<?xml version="1.0" encoding="UTF-8" standalone="no"?>
<svg
   version="1.2"
   width="800"
   height="642"
   viewBox="0 0 800 642"
   stroke-linecap="round"
   stroke-linejoin="round"
   id="svg5"
   sodipodi:docname="Abadiño.svg"
   inkscape:version="1.1.2 (b8e25be833, 2022-02-05)"
   xmlns:inkscape="http://www.inkscape.org/namespaces/inkscape"
   xmlns:sodipodi="http://sodipodi.sourceforge.net/DTD/sodipodi-0.dtd"
   xmlns="http://www.w3.org/2000/svg"
   xmlns:svg="http://www.w3.org/2000/svg">
  <defs
     id="defs9" />
  <sodipodi:namedview
     id="namedview7"
     pagecolor="#ffffff"
     bordercolor="#666666"
     borderopacity="1.0"
     inkscape:pageshadow="2"
     inkscape:pageopacity="0.0"
     inkscape:pagecheckerboard="0"
     showgrid="false"
     inkscape:zoom="1.3146417"
     inkscape:cx="399.72867"
     inkscape:cy="246.07464"
     inkscape:window-width="1848"
     inkscape:window-height="1016"
     inkscape:window-x="72"
     inkscape:window-y="1107"
     inkscape:window-maximized="1"
     inkscape:current-layer="svg5" />
  <g
     id="Abadiño"
     transform="matrix(12.580899,0,0,12.580899,-2575.476,-1828.921)">
    <path
       d="m 241.91,148.83 0.39,0.17 0.05,0.02 0.57,0.4 0.3,0.81 -0.01,1.16 0.28,0.96 0.68,0.59 0.57,0.06 0.3,0.79 -0.42,0.58 -0.07,0.1 -0.05,0.19 0.14,0.65 0.06,-0.02 0.06,-0.03 0.04,-0.02 0.07,-0.02 0.11,-0.01 0.03,-0.03 0.02,-0.17 0.01,-0.08 0.01,-0.12 v -0.05 l 0.02,-0.09 0.25,0.07 1.08,1.67 3.4,1.92 0.99,2.13 0.03,0.22 -0.04,0.15 -0.05,0.31 -0.01,0.14 0.03,0.16 0.02,0.06 0.02,0.06 0.01,0.03 0.01,0.03 0.03,0.04 0.01,0.02 0.03,0.04 0.01,0.02 0.03,0.04 0.03,0.03 0.03,0.01 0.03,0.03 0.03,0.03 0.03,0.03 0.04,0.04 0.01,0.12 -0.03,0.04 -0.04,0.03 -0.04,0.09 0.05,0.09 -0.02,0.08 -0.07,-0.01 -0.05,0.02 -0.04,0.05 -0.02,0.03 -2.28,2.61 -2.52,0.4 -0.2,0.03 -0.08,0.01 h -0.01 -0.02 -0.01 l -0.01,0.01 v 0 h -0.01 -0.01 l -0.01,0.01 h -0.02 -0.01 -0.01 l -0.01,0.01 h -0.01 -0.01 l -0.01,0.01 v 0 l -0.01,0.01 h -0.01 l -0.01,0.01 h -0.01 -0.01 l -0.01,0.01 h -0.01 l -0.01,0.01 h -0.01 l -0.01,0.01 h -0.01 l -0.01,0.01 -0.01,0.01 h -0.01 l -0.01,0.01 v 0 l -0.01,0.01 -0.01,0.01 h -0.01 l -0.01,0.01 h -0.01 v 0.01 l -0.01,0.01 h -0.01 l -0.01,0.01 -0.01,0.01 h -0.01 l -0.08,0.08 -0.24,0.24 0.3,0.23 -0.06,0.29 0.3,0.7 -0.01,0.03 -0.01,0.03 -0.02,0.02 -0.02,0.02 -0.03,0.01 -0.01,0.02 -0.03,0.01 -0.08,0.09 -0.02,0.02 -0.05,0.06 -0.07,0.08 -0.01,0.02 -0.02,0.02 -0.02,0.02 -0.02,0.04 h -0.01 l -0.12,0.17 -0.04,0.03 -0.02,0.02 -0.01,0.02 -0.03,0.02 -0.02,0.02 -0.02,0.03 -0.02,0.02 -0.01,0.02 -0.01,0.03 -0.03,0.08 -0.01,0.01 0.01,0.05 0.03,0.1 0.32,0.93 v 0.06 l -0.02,0.03 -0.02,0.02 -0.02,0.01 -0.03,0.02 -0.04,0.02 -0.02,0.02 -0.02,0.02 -0.02,0.02 -0.03,0.01 -0.04,0.04 -0.01,0.01 -0.01,0.02 -0.02,0.04 -0.01,0.01 -0.01,0.03 -0.01,0.01 -0.03,0.02 -0.02,0.02 -0.02,0.03 -0.02,0.02 -0.02,0.03 -0.01,0.02 -0.02,0.02 -0.02,0.02 -0.02,0.03 -0.04,0.02 -0.07,0.06 -0.03,-0.01 -0.11,-0.07 -0.16,-0.11 -0.23,0.08 h -0.02 l -0.57,0.71 v 0.01 h -0.01 v 0.02 l -0.31,0.37 -0.21,0.27 -0.22,0.29 -0.24,0.29 -0.04,0.06 -0.02,0.02 -0.08,0.05 -0.07,0.04 -0.81,0.37 -0.22,0.28 -0.28,0.33 -0.22,0.24 -0.21,0.23 -0.32,0.34 -0.26,0.26 -0.31,0.33 -0.06,0.08 -0.17,0.34 -0.2,0.38 -0.12,0.29 -0.15,0.29 -0.05,0.09 0.24,1.04 v 0.02 l 0.14,0.52 0.09,0.35 -0.55,0.25 -0.44,0.16 -0.45,0.14 -0.41,0.14 -0.16,0.05 0.05,0.06 0.04,0.07 0.02,0.03 0.02,0.02 0.02,0.02 0.03,0.01 0.02,0.02 v 0.01 l 0.03,0.07 0.04,0.04 0.02,0.03 0.04,0.04 0.06,0.06 0.12,0.31 0.1,0.21 0.06,0.11 0.03,0.04 0.04,0.05 0.03,0.05 0.08,0.08 0.12,0.14 0.17,0.19 0.18,0.22 0.07,0.08 0.28,0.39 0.13,0.35 0.21,0.87 0.03,0.08 0.21,0.97 -0.49,0.42 -0.04,0.05 -0.01,0.02 -0.02,0.04 -0.02,0.04 -0.02,0.03 -0.02,0.02 -0.02,0.02 -0.03,0.01 -0.02,0.02 -0.02,0.02 -0.02,0.02 -0.03,0.01 -0.03,0.03 -0.02,0.02 -0.03,0.01 -0.02,0.03 -0.02,0.02 -0.02,0.02 -0.02,0.02 -0.02,0.01 -0.02,0.02 -0.02,0.02 -0.02,0.02 -0.07,0.07 -0.04,0.05 -0.03,0.06 v 0.01 l -0.01,0.03 -0.01,0.03 -0.02,0.03 -0.01,0.02 -0.01,0.03 -0.02,0.03 -0.01,0.02 -0.02,0.02 v 0.05 l -0.02,0.09 -0.01,0.03 v 0.02 l -0.01,0.02 -0.03,0.04 -0.05,0.03 -0.04,0.03 -0.02,0.01 -0.02,0.02 -0.02,0.02 -0.02,0.03 -0.02,0.02 -0.04,0.02 -0.03,0.01 -0.04,0.02 -0.05,0.02 h -0.03 l -0.05,0.01 -0.03,0.01 -0.03,0.01 h -0.03 l -0.04,0.03 -0.04,0.02 -0.02,0.02 -0.02,0.02 -0.02,0.02 -0.02,0.02 -0.02,0.03 -0.02,0.02 -0.01,0.04 -0.01,0.03 v 0.03 l -0.01,0.04 -0.01,0.04 v 0.03 l -0.01,0.03 -0.01,0.03 -0.01,0.04 -0.01,0.01 -0.01,0.02 -0.02,0.01 -0.05,0.02 -0.04,0.01 -0.03,0.01 h -0.02 l -0.04,0.01 -0.02,0.01 h -0.03 l -0.03,0.01 -0.04,0.01 -0.05,0.03 -0.02,0.02 -0.02,0.02 -0.01,0.02 -0.02,0.03 -0.01,0.03 -0.01,0.03 v 0.05 l -0.01,0.03 v 0.02 l -0.02,0.04 -0.01,0.03 -0.02,0.02 -0.01,0.02 v 0.02 l -0.02,0.03 -0.03,0.03 -1.09,-0.25 -1.43,-0.26 -1.99,1.36 -1.78,0.94 -0.5,0.29 -0.72,0.51 -0.49,0.23 -0.72,0.62 -1.53,0.92 -0.42,0.18 -0.08,0.29 0.03,0.06 0.07,0.06 0.03,0.05 v 0.06 0.06 l 0.02,0.07 v 0.05 l -0.01,0.07 v 0.02 l 0.02,0.03 0.04,0.03 h 0.06 0.06 0.04 l 0.01,0.02 0.01,0.02 -0.02,0.02 -0.04,0.02 -0.09,0.03 -0.02,0.02 v 0.07 l 0.04,0.08 0.02,0.09 0.03,0.01 h 0.04 l 0.02,0.03 0.04,0.05 0.01,0.04 -0.04,0.16 -0.03,0.11 v 0.03 l 0.01,0.05 0.01,0.08 0.01,0.11 -0.01,0.06 -0.01,0.04 0.03,0.18 0.01,0.06 0.03,0.03 0.01,0.04 v 0.22 l -0.03,0.07 0.06,0.09 0.06,0.02 v 0.03 l -0.06,0.05 v 0.02 l 0.02,0.01 0.03,0.06 0.01,0.03 -0.02,0.03 -0.06,0.02 -0.03,0.02 -0.01,0.03 v 0.04 l -0.02,0.01 -0.04,-0.01 -0.05,-0.01 h -0.01 l -0.01,0.03 0.03,0.01 0.02,0.02 0.03,0.02 v 0.04 l -0.03,0.02 -0.06,-0.02 -0.08,-0.04 -0.02,0.01 -0.01,-0.01 -0.01,-0.02 -0.01,-0.02 -0.01,-0.01 -0.01,-0.01 -0.01,-0.01 -0.01,-0.01 -0.01,-0.03 v -0.01 l -0.01,-0.01 v -0.02 -0.02 -0.02 -0.02 0 l 0.01,-0.02 0.02,-0.01 -0.01,-0.03 v -0.02 l -0.03,-0.01 -0.02,-0.01 -0.06,-0.08 -0.01,-0.01 -0.03,-0.05 -0.02,-0.05 -0.02,-0.04 -0.04,-0.1 -0.04,-0.08 -0.02,-0.04 -0.03,-0.05 -0.02,-0.05 -0.02,-0.03 -0.02,-0.03 -0.01,-0.05 -0.02,-0.02 -0.02,-0.02 -0.06,-0.07 -0.05,-0.07 0.03,-0.07 0.03,-0.04 0.04,-0.09 0.02,-0.05 -0.01,-0.03 v -0.08 l -0.01,-0.07 -0.03,-0.11 -0.01,-0.09 -0.02,-0.12 -0.02,-0.11 -0.05,-0.1 -0.05,-0.14 -0.05,-0.11 -0.05,-0.13 -0.04,-0.13 -0.03,-0.12 -0.04,-0.15 -0.05,-0.11 -0.05,-0.11 -0.02,-0.12 -0.03,-0.13 -0.03,-0.07 -0.01,-0.09 -0.04,-0.12 -0.04,-0.09 -0.05,-0.1 -0.07,-0.09 -0.06,-0.11 -0.06,-0.09 -0.08,-0.12 -0.07,-0.13 -0.09,-0.12 -0.1,-0.13 -0.08,-0.16 -0.06,-0.12 -0.1,-0.16 -0.07,-0.15 -0.12,-0.25 -0.07,-0.13 -0.06,-0.12 -0.06,-0.13 -0.05,-0.12 -0.03,-0.12 -0.05,-0.14 -0.06,-0.14 -0.07,-0.12 -0.03,-0.1 -0.08,-0.2 -0.08,-0.24 0.25,-0.41 -0.07,-0.66 0.09,-1.09 -0.03,-0.4 -0.01,-0.04 -0.17,-0.61 -0.11,-0.62 -0.29,-0.55 -0.72,-1.69 0.11,-0.17 1.39,0.46 0.35,-0.01 0.27,0.1 0.88,-0.19 0.29,-0.07 0.8,-0.08 0.71,-0.02 0.63,-0.05 1.3,-1.22 0.1,-0.49 v -0.1 l -0.01,-0.04 -0.02,-0.04 -0.02,-0.06 -0.03,-0.08 -0.01,-0.08 -0.02,-0.11 -0.03,-0.12 -0.03,-0.18 -0.03,-0.21 0.28,-0.04 0.23,-0.04 0.36,-0.12 0.27,-0.09 0.3,-0.07 h 0.07 0.01 l 0.02,-0.02 0.01,-0.06 v -0.12 l 0.01,-0.15 v -0.12 l -0.01,-0.1 -0.03,-0.13 -0.01,-0.07 -0.02,-0.1 -0.01,-0.04 -0.01,-0.04 -0.01,-0.05 v -0.05 -0.08 -0.09 l 0.01,-0.1 -0.01,-0.11 v -0.1 -0.06 -0.09 -0.07 l 0.01,-0.11 0.03,-0.29 0.03,-0.15 0.06,-0.18 0.01,-0.01 v -0.01 l 0.04,-0.21 v -0.17 -0.3 -0.03 l -0.01,-0.03 0.01,-0.01 -0.01,-0.38 v -0.01 l 0.01,-0.32 0.03,-0.39 0.06,-0.46 v -0.02 l 0.06,-0.55 0.06,-0.63 0.06,-0.52 0.02,-0.31 0.02,-0.14 0.02,-0.09 0.06,-0.16 1.1,-2.71 0.21,-0.57 0.06,-0.11 0.02,-0.03 0.01,-0.02 0.02,-0.01 0.02,-0.02 0.01,-0.01 0.02,-0.01 0.02,-0.02 0.02,-0.01 0.02,-0.02 0.02,-0.01 0.02,-0.01 0.03,-0.01 0.02,-0.02 0.02,-0.01 0.02,-0.01 0.02,-0.01 0.01,-0.01 0.02,-0.01 0.02,-0.01 0.02,-0.02 0.02,-0.01 0.01,-0.01 0.02,-0.01 0.02,-0.02 0.02,-0.01 0.01,-0.02 0.02,-0.02 0.01,-0.01 0.02,-0.02 0.01,-0.01 0.01,-0.02 0.01,-0.02 0.01,-0.02 0.01,-0.02 0.01,-0.02 v -0.03 l 0.01,-0.02 v -0.02 -0.03 -0.02 -0.02 -0.02 l 0.02,-0.21 0.02,-0.13 0.02,-0.09 0.02,-0.07 0.01,-0.03 0.02,-0.04 0.03,-0.07 0.03,-0.08 0.01,-0.02 0.02,-0.06 0.08,-0.16 0.01,-0.02 0.07,-0.15 0.1,-0.19 0.08,-0.17 0.05,-0.11 0.01,-0.03 0.01,-0.03 v -0.03 -0.07 l -0.01,-0.11 -0.02,-0.11 -0.01,-0.1 -0.01,-0.09 -0.01,-0.11 -0.01,-0.04 -0.01,-0.03 v -0.03 l 0.01,-0.01 0.02,-0.03 0.03,-0.04 0.03,-0.04 0.01,-0.02 v -0.03 l -0.01,-0.07 v -0.02 l 0.01,-0.02 0.02,-0.02 0.04,-0.03 0.03,-0.02 0.05,-0.05 0.01,-0.02 0.07,-0.23 0.05,-0.16 0.05,-0.17 0.07,-0.23 0.03,-0.09 0.27,-0.98 0.76,0.56 0.68,-0.56 -0.02,-0.08 -0.01,-0.1 0.1,-0.14 0.09,-0.26 0.05,-0.03 0.4,-0.09 0.07,-0.01 h 0.04 0.07 l 0.1,-0.05 0.05,-0.03 0.08,-0.07 0.09,-0.1 0.04,-0.04 0.06,-0.05 0.6,-0.37 0.22,-0.1 0.16,-0.04 0.63,-0.04 -0.01,-0.16 0.02,-0.18 0.02,-0.09 0.02,-0.1 -0.02,-0.11 0.04,-0.22 v -0.07 l 0.24,-0.95 -0.07,-0.12 -0.34,-0.52 -0.06,-0.35 -0.04,-0.1 -0.09,-0.16 -0.03,-0.11 -0.01,-0.06 v -0.05 l 0.02,-0.05 0.2,0.05 0.38,-0.05 0.05,-0.02 0.12,-0.1 -0.1,-0.18 0.06,-0.08 -0.09,-0.11 -0.09,-0.16 -0.29,-0.34 0.08,-0.1 -0.17,-0.26 -0.17,-0.3 -0.09,-0.16 -0.23,-0.14 0.03,-0.05 -0.05,-0.16 -0.01,-0.01 -0.2,-0.52 -0.08,-0.14 -0.21,-0.01 -0.33,-0.21 -0.05,-0.07 0.16,-0.61 -0.01,-0.46 -0.01,-0.18 -0.1,-0.07 0.22,0.04 0.15,0.02 0.02,-0.01 -0.02,-0.16 -0.02,-0.13 0.74,-0.05 0.24,-0.31 0.14,-0.2 0.35,-0.38 0.21,-0.97 v -0.04 l 0.06,-0.59 0.34,-0.55 0.43,-0.25 0.26,0.31 0.17,0.31 0.09,0.44 0.53,0.22 0.74,-0.46 z"
       id="path2" />
  </g>
</svg>
