<?xml version="1.0" encoding="UTF-8" standalone="no"?>
<svg
   version="1.2"
   width="800"
   height="642"
   viewBox="0 0 800 642"
   stroke-linecap="round"
   stroke-linejoin="round"
   id="svg32"
   sodipodi:docname="Abanto.svg"
   inkscape:version="1.1.2 (b8e25be833, 2022-02-05)"
   xmlns:inkscape="http://www.inkscape.org/namespaces/inkscape"
   xmlns:sodipodi="http://sodipodi.sourceforge.net/DTD/sodipodi-0.dtd"
   xmlns="http://www.w3.org/2000/svg"
   xmlns:svg="http://www.w3.org/2000/svg">
  <defs
     id="defs36" />
  <sodipodi:namedview
     id="namedview34"
     pagecolor="#ffffff"
     bordercolor="#666666"
     borderopacity="1.0"
     inkscape:pageshadow="2"
     inkscape:pageopacity="0.0"
     inkscape:pagecheckerboard="0"
     showgrid="false"
     inkscape:zoom="1.3146417"
     inkscape:cx="399.72867"
     inkscape:cy="321.38033"
     inkscape:window-width="1848"
     inkscape:window-height="1016"
     inkscape:window-x="72"
     inkscape:window-y="1107"
     inkscape:window-maximized="1"
     inkscape:current-layer="svg32" />
  <g
     id="Abanto-Zierbena"
     transform="matrix(27.28112,0,0,27.28112,-2424.5783,-2405.3666)">
    <path
       d="m 111.58,91.57 -0.28,0.28 -0.13,0.34 -0.22,-0.14 -0.05,0.11 0.09,0.06 -0.3,0.89 -0.45,0.28 -0.22,0.52 0.14,1.5 0.21,2.36 0.16,1.06 0.15,0.97 0.26,1.74 -0.06,-0.01 h -0.04 l -0.23,0.06 -0.23,0.25 -0.09,0.1 -0.33,0.08 h -0.12 l -0.03,0.99 -0.53,0.96 -0.07,0.19 -0.08,0.47 -0.34,1.27 -0.1,0.34 -0.31,1.07 -0.28,0.84 -0.26,1.15 -0.75,-0.34 -1.19,-0.61 -0.97,-0.47 -1.44,-0.92 -0.75,-0.37 -1.1,-0.21 -0.87,-0.32 -0.51,-0.17 -0.62,-0.2 -0.47,0.19 -0.32,0.14 -1.16,0.66 -0.04,0.01 -0.14,-0.09 -0.04,-0.05 -0.05,-0.1 -0.03,-0.04 -0.41,-0.36 -0.28,-0.34 -0.09,-0.12 -0.48,-0.34 -0.29,-0.96 0.56,-1.34 0.95,0.07 0.07,0.02 -0.36,-1.34 -0.14,-0.5 0.14,-0.62 0.14,-0.81 0.24,-1.2 0.12,-0.8 0.19,-1.07 0.14,-1.44 0.67,-0.16 -0.12,-0.71 0.21,-0.53 0.2,-0.24 0.69,-0.73 0.15,-0.2 0.33,-0.44 0.85,-1.15 -0.25,-0.87 0.12,0.14 0.16,0.18 0.01,0.02 0.07,0.08 0.24,0.27 0.04,0.03 0.13,0.15 0.07,0.07 0.03,0.03 0.04,0.03 0.06,0.05 0.03,0.03 0.03,0.02 0.04,0.03 0.05,0.04 0.03,0.02 0.05,0.03 0.05,0.03 0.02,0.01 0.04,0.02 0.09,0.04 0.08,0.03 0.06,0.02 0.06,0.02 0.1,0.03 0.05,0.01 0.04,0.01 0.08,0.01 h 0.05 l 0.05,0.01 h 0.02 0.04 0.06 0.01 0.03 0.04 0.01 l 0.04,-0.01 h 0.04 l 0.05,-0.01 h 0.03 l 0.05,-0.01 0.05,-0.01 h 0.01 l 0.06,-0.02 h 0.04 l 0.02,-0.01 0.07,-0.02 0.1,-0.04 v 0 l 0.04,-0.02 h 0.02 l 0.02,-0.01 0.02,-0.01 0.01,-0.01 0.06,-0.03 0.07,-0.04 0.08,-0.04 0.01,-0.01 0.06,-0.04 0.01,-0.01 0.05,-0.04 0.03,-0.02 0.05,-0.03 0.02,-0.01 0.04,-0.04 0.05,-0.03 0.08,-0.05 0.02,-0.01 0.04,-0.03 0.05,-0.02 0.05,-0.02 0.05,-0.03 h 0.01 l 0.02,-0.01 0.01,-0.01 h 0.02 l 0.07,-0.03 0.04,-0.01 0.07,-0.02 0.03,-0.01 0.08,-0.01 0.01,-0.01 0.04,-0.01 0.08,-0.01 h 0.03 l 0.06,-0.01 h 0.02 0.03 0.05 0.04 0.05 0.07 l 0.01,0.01 h 0.04 l 0.05,0.01 0.05,0.01 h 0.01 l 0.07,0.01 0.02,0.01 0.04,0.01 0.09,0.02 0.13,0.03 0.05,0.01 0.06,0.01 0.02,0.01 0.12,0.02 0.06,0.01 0.06,0.01 0.07,0.01 h 0.07 0.06 0.06 0.02 0.02 l 0.06,-0.01 0.04,-0.01 h 0.02 l 0.05,-0.01 0.05,-0.01 0.09,-0.02 h 0.03 l 0.02,-0.01 0.04,-0.01 0.04,-0.01 h 0.02 l 0.02,-0.01 0.06,-0.02 0.11,-0.03 h 0.01 l 0.03,-0.01 0.06,-0.02 0.02,-0.01 0.1,-0.02 0.04,-0.01 0.03,-0.01 h 0.03 l 0.03,-0.01 0.04,-0.01 h 0.03 0.04 l 0.02,-0.01 h 0.02 0.04 0.05 0.02 0.04 0.03 0.04 0.03 0.06 0.06 l 0.04,0.01 h 0.04 l 0.06,0.01 0.08,0.01 0.07,0.01 0.16,0.01 0.48,-0.06 0.51,-0.24 h 0.04 l 0.26,0.07 0.23,0.05 h 0.02 l 0.04,0.01 h 0.02 l 0.03,0.02 0.01,0.01 0.03,0.01 0.02,0.03 0.02,0.03 0.04,0.07 0.03,0.04 v 0.01 l 0.02,0.02 0.03,0.03 h 0.01 l 0.02,0.01 h 0.01 l 0.02,0.01 h 0.05 l 0.02,0.01 h 0.03 l 0.02,0.01 0.06,0.04 0.02,0.01 0.25,0.16 0.18,0.08 0.11,0.05 0.16,0.08 0.12,0.05 0.01,0.01 0.07,0.02 z"
       id="path29" />
  </g>
</svg>
