<?xml version="1.0" encoding="UTF-8" standalone="no"?>
<svg
   version="1.2"
   width="800"
   height="642"
   viewBox="0 0 800 642"
   stroke-linecap="round"
   stroke-linejoin="round"
   id="svg23"
   sodipodi:docname="Aberin.svg"
   inkscape:version="1.1.2 (b8e25be833, 2022-02-05)"
   xmlns:inkscape="http://www.inkscape.org/namespaces/inkscape"
   xmlns:sodipodi="http://sodipodi.sourceforge.net/DTD/sodipodi-0.dtd"
   xmlns="http://www.w3.org/2000/svg"
   xmlns:svg="http://www.w3.org/2000/svg">
  <defs
     id="defs27" />
  <sodipodi:namedview
     id="namedview25"
     pagecolor="#ffffff"
     bordercolor="#666666"
     borderopacity="1.0"
     inkscape:pageshadow="2"
     inkscape:pageopacity="0.0"
     inkscape:pagecheckerboard="0"
     showgrid="false"
     inkscape:zoom="1.3146417"
     inkscape:cx="399.72867"
     inkscape:cy="369.30213"
     inkscape:window-width="1848"
     inkscape:window-height="1016"
     inkscape:window-x="72"
     inkscape:window-y="1107"
     inkscape:window-maximized="1"
     inkscape:current-layer="svg23" />
  <g
     id="Aberin"
     transform="matrix(19.806485,0,0,19.806485,-7926.0202,-6966.906)">
    <path
       d="m 416.74,356.8 0.06,-0.02 0.09,-0.02 0.06,-0.01 0.06,-0.02 0.07,-0.03 0.06,-0.02 0.04,-0.02 0.06,-0.01 0.08,-0.01 h 0.06 l 0.06,0.01 0.1,0.02 0.07,0.02 0.06,0.01 h 0.04 l 0.05,0.01 0.06,0.02 0.05,0.02 0.07,0.02 0.08,0.03 0.06,0.02 0.03,0.02 0.03,0.02 0.02,0.03 0.03,0.03 0.01,0.02 0.01,0.06 0.01,0.06 0.01,0.05 0.01,0.05 0.02,0.04 v 0.04 0.04 l -0.01,0.06 -0.01,0.05 -0.02,0.05 -0.03,0.06 -0.03,0.05 -0.05,0.07 -0.06,0.07 -0.08,0.08 -0.07,0.08 -0.06,0.04 -0.04,0.04 -0.04,0.03 -0.03,0.03 -0.02,0.03 -0.02,0.02 v 0.02 l -0.01,0.01 -0.01,0.02 v 0.03 0.03 0.04 0.03 0.03 0.02 l -0.01,0.02 -0.01,0.02 -0.01,0.03 -0.02,0.02 -0.02,0.04 -0.03,0.04 -0.01,0.03 -0.01,0.01 -0.01,0.02 -0.01,0.02 v 0.03 0.04 0.03 0.04 l 0.01,0.03 0.01,0.02 0.01,0.02 0.01,0.02 0.01,0.02 0.01,0.03 0.01,0.03 0.01,0.03 0.02,0.04 0.02,0.03 0.03,0.02 0.02,0.03 0.03,0.02 0.04,0.02 0.04,0.02 0.03,0.02 h 0.03 0.02 0.02 l 0.04,-0.01 0.04,-0.01 0.04,-0.01 h 0.04 l 0.04,0.01 0.05,0.01 0.05,0.02 0.03,0.01 0.04,0.02 0.04,0.03 0.03,0.02 0.03,0.02 0.07,0.04 0.06,0.03 0.09,0.03 0.07,0.03 0.05,0.02 h 0.06 l 0.04,0.01 0.04,0.01 0.05,0.02 0.04,0.01 0.05,0.02 0.06,-0.02 0.09,-0.04 v 0 l 0.02,-0.01 0.02,-0.01 0.02,-0.02 0.04,-0.02 0.04,-0.02 0.04,-0.02 0.01,-0.01 0.03,-0.01 0.03,-0.01 0.05,-0.01 0.05,-0.01 0.05,-0.01 h 0.05 l 0.02,-0.01 0.05,-0.01 0.03,-0.01 0.03,-0.01 v 0 h 0.02 0.02 l 0.02,0.01 0.01,0.01 0.02,0.02 0.02,0.04 0.03,0.05 0.04,0.07 0.03,0.06 0.08,0.17 0.02,0.07 0.02,0.06 0.02,0.07 0.02,0.05 0.03,0.06 0.02,0.06 0.04,0.07 0.06,0.1 0.06,0.09 0.11,0.17 0.11,0.02 0.17,0.03 0.1,0.01 0.1,0.01 0.1,0.02 0.07,0.02 0.05,0.01 0.06,0.01 0.03,0.01 0.03,0.01 0.04,0.02 0.04,0.02 0.03,0.03 0.05,0.04 0.06,0.07 0.05,0.05 0.05,0.06 0.05,0.04 0.07,0.07 0.1,0.06 0.08,0.05 0.06,0.02 0.06,0.03 0.07,0.01 0.06,0.02 0.08,0.02 0.07,0.02 0.07,0.02 0.03,0.01 0.03,0.02 0.03,0.02 0.02,0.03 0.03,0.04 0.04,0.07 0.06,0.11 0.04,0.07 0.02,0.06 0.02,0.03 0.01,0.03 0.01,0.04 0.01,0.04 0.03,0.05 0.04,0.05 0.05,0.01 0.05,-0.01 h 0.05 l 0.04,-0.01 0.04,-0.02 0.02,-0.01 h 0.02 l 0.02,-0.01 h 0.04 l 0.08,0.01 h 0.03 0.02 l 0.05,0.01 0.06,0.02 0.11,0.03 0.08,0.02 0.06,0.02 0.02,0.01 0.04,0.02 0.08,0.03 0.02,0.01 0.03,0.01 0.05,0.03 0.08,0.05 0.06,0.03 0.04,0.03 0.07,0.05 0.07,0.04 0.03,0.03 0.07,0.06 0.05,0.08 0.06,0.09 0.06,0.1 0.1,0.14 0.05,0.06 0.12,0.06 0.15,0.07 0.2,0.18 0.17,0.16 -0.27,0.38 -0.07,0.09 -0.03,0.03 -0.01,0.01 -0.04,0.04 -0.08,0.09 -0.02,0.02 -0.07,0.05 v 0.02 l -0.03,0.1 -0.01,0.02 -0.01,0.03 -0.04,0.06 -0.06,0.09 -0.16,0.2 -0.07,0.1 -0.05,0.09 -0.02,0.02 -0.04,0.11 -0.02,0.05 -0.04,0.14 v 0.02 l -0.01,0.07 -0.03,0.09 -0.04,0.16 -0.02,0.07 v 0.08 l -0.01,0.21 v 0.02 l -0.03,0.07 v 0.03 l 0.01,0.03 0.03,0.08 0.01,0.03 0.01,0.01 0.02,0.04 0.01,0.02 0.05,0.07 0.01,0.03 0.01,0.02 0.06,0.11 0.04,0.09 0.02,0.05 0.02,0.04 0.01,0.02 0.04,0.03 0.06,0.05 0.05,0.05 0.07,0.06 0.03,0.04 0.04,0.1 0.01,0.03 0.02,0.02 0.07,0.12 0.06,0.07 0.06,0.05 0.17,0.13 0.08,0.06 0.01,0.01 0.07,0.06 0.05,0.05 v 0.01 l 0.05,0.07 0.02,0.02 0.03,0.05 0.1,0.17 0.01,0.01 0.06,0.09 0.05,0.06 0.04,0.05 0.08,0.1 0.05,0.06 0.02,0.03 0.11,0.15 0.02,0.04 0.06,0.08 0.01,0.03 0.01,0.09 v 0.11 0.1 l 0.01,0.09 0.04,0.1 0.01,0.02 v 0.01 l 0.01,0.03 0.02,0.07 0.01,0.02 0.02,0.03 0.01,0.02 0.01,0.02 0.05,0.07 0.12,0.14 0.07,0.07 0.13,0.13 0.11,0.11 0.09,0.08 0.1,0.08 0.22,0.18 0.12,0.11 0.12,0.12 0.03,0.02 0.04,0.03 0.07,0.04 0.05,0.04 0.18,0.16 0.07,0.07 0.14,0.17 0.08,0.09 0.12,0.1 0.07,0.04 0.04,0.02 0.12,0.05 0.17,0.07 0.16,0.07 0.02,0.01 h 0.01 l 0.08,0.04 0.06,0.02 0.05,0.03 0.02,0.01 0.02,0.02 0.08,0.05 0.09,0.07 0.04,0.02 0.02,0.03 0.07,0.12 0.04,0.09 0.03,0.06 0.01,0.05 0.01,0.05 -0.01,0.08 -0.01,0.05 -0.01,0.07 -0.01,0.04 -0.02,0.08 v 0.02 0.02 l 0.01,0.01 0.07,0.04 0.06,0.06 0.04,0.04 h 0.01 l 0.06,0.04 0.03,0.02 0.04,0.05 0.03,0.04 0.05,0.07 h 0.01 l 0.04,0.08 0.03,0.06 0.04,0.06 0.01,0.04 0.03,0.05 0.03,0.01 0.04,0.01 0.07,0.03 0.11,0.09 0.01,0.01 0.16,0.09 0.32,0.17 0.17,0.11 0.05,0.03 h 0.01 l 0.02,0.01 -0.01,0.06 0.49,-0.05 0.02,0.01 0.01,0.01 0.21,0.12 0.08,0.03 0.11,0.05 0.11,0.04 0.08,0.03 0.1,0.04 0.12,0.03 0.05,0.02 0.18,0.04 0.04,0.02 0.05,0.03 0.09,0.06 0.13,0.07 0.06,0.04 0.01,0.01 0.15,0.08 0.18,0.11 0.11,0.07 0.16,0.07 0.21,0.13 0.04,0.02 0.1,0.05 0.04,0.02 0.16,0.09 0.03,0.01 0.02,0.07 0.02,0.09 0.02,0.05 0.02,0.16 0.02,0.11 v 0.03 l 0.02,0.1 0.01,0.05 v 0.08 0.15 0.06 l 0.01,0.06 0.03,0.09 0.05,0.11 0.02,0.09 v 0.02 l 0.03,0.11 0.05,0.18 0.04,0.13 0.02,0.13 0.04,0.14 0.04,0.11 0.13,0.25 0.04,0.09 0.03,0.07 0.03,0.07 0.05,0.11 0.03,0.08 0.02,0.06 v 0.06 l 0.01,0.07 0.02,0.13 0.02,0.1 0.01,0.08 v 0.06 l -0.01,0.07 v 0.05 l 0.01,0.03 0.03,0.17 0.02,0.1 0.02,0.15 0.01,0.07 0.02,0.12 0.01,0.06 0.03,0.12 0.03,0.13 0.02,0.05 v 0.01 l 0.04,0.17 0.04,0.13 v 0.04 0.02 l 0.03,0.1 0.01,0.03 0.01,0.04 0.01,0.07 0.01,0.07 v 0.08 l 0.04,0.21 v 0.04 l 0.02,0.1 0.01,0.06 0.01,0.04 0.03,0.09 v 0.05 0.06 l -0.01,0.07 -0.01,0.02 v 0.02 l -0.02,0.1 -0.02,0.09 -0.02,0.09 V 381 l -0.01,0.01 -0.01,0.07 -0.01,0.07 v 0.03 l -0.05,-0.02 -0.02,-0.01 -0.21,-0.07 -0.12,-0.04 -0.06,-0.01 -0.15,-0.04 h -0.03 l -0.04,-0.01 -0.09,-0.02 -0.1,-0.03 -0.09,-0.03 -0.04,-0.01 -0.07,-0.01 h -0.02 -0.02 -0.01 -0.01 v 0 l -0.02,0.01 h -0.02 l -0.07,-0.02 h -0.01 l -0.1,-0.03 -0.08,-0.02 -0.05,-0.01 h -0.06 l -0.07,-0.01 h -0.16 l -0.09,-0.03 -0.08,-0.01 h -0.02 l -0.06,-0.01 -0.03,0.01 -0.04,0.01 -0.16,0.01 h -0.03 -0.01 l -0.01,0.01 -0.06,0.01 -0.1,0.04 -0.2,0.08 -0.14,0.05 -0.06,0.02 h -0.01 l -0.04,0.01 -0.07,0.01 -0.09,0.01 -0.03,0.01 h -0.02 l -0.03,0.01 h -0.04 l -0.08,0.02 -0.03,0.01 h -0.01 -0.02 -0.04 -0.04 l -0.04,-0.01 -0.04,-0.01 -0.06,-0.02 -0.06,-0.03 -0.04,-0.01 -0.03,-0.01 h -0.04 -0.02 l -0.02,-0.01 h -0.02 -0.04 l -0.02,-0.01 h -0.01 -0.01 l -0.04,-0.01 -0.13,-0.02 -0.01,-0.01 -0.12,-0.01 -0.06,-0.02 -0.13,-0.07 -0.03,-0.02 -0.02,-0.01 h -0.01 l -0.02,-0.01 -0.01,-0.01 h -0.01 l -0.01,-0.01 -0.05,-0.02 h -0.05 -0.11 -0.03 -0.09 l -0.33,-0.03 -0.03,-0.01 -0.04,-0.02 -0.12,-0.11 -0.01,-0.01 -0.11,-0.08 -0.09,-0.05 -0.25,-0.17 -0.07,-0.05 -0.05,-0.03 -0.15,-0.09 -0.15,-0.07 -0.03,-0.01 -0.06,-0.02 -0.13,-0.06 -0.01,-0.01 -0.02,-0.01 h -0.02 l -0.05,-0.03 -0.05,-0.06 -0.16,-0.25 -0.05,-0.08 -0.04,-0.04 -0.13,-0.2 -0.07,-0.09 -0.13,-0.14 -0.14,-0.12 -0.06,-0.06 v -0.01 l -0.02,-0.07 -0.02,-0.07 -0.01,-0.01 -0.03,-0.01 -0.11,-0.02 -0.01,-0.01 h -0.02 l -0.09,-0.01 -0.06,-0.02 -0.03,-0.01 -0.14,-0.06 -0.06,-0.03 -0.06,-0.05 -0.04,-0.03 -0.03,-0.04 -0.06,-0.1 -0.09,-0.18 -0.08,-0.15 -0.01,-0.02 -0.35,-0.58 -0.03,-0.04 -0.01,-0.02 v -0.01 l -0.09,-0.14 -0.09,-0.14 -0.03,-0.03 -0.18,-0.16 -0.22,-0.19 -0.01,-0.02 -0.02,-0.01 -0.05,-0.05 -0.11,-0.11 -0.38,-0.21 -0.17,-0.1 -0.18,-0.1 -0.08,-0.04 -0.02,-0.02 -0.12,-0.05 -0.07,-0.03 -0.26,-0.12 -0.13,-0.05 v 0 l -0.04,-0.02 -0.05,-0.02 -0.07,-0.06 -0.05,-0.03 -0.14,-0.08 -0.04,-0.02 -0.12,-0.08 -0.02,-0.01 -0.15,-0.1 -0.01,-0.01 -0.08,-0.06 -0.18,-0.11 -0.03,-0.02 -0.04,-0.05 -0.01,-0.02 -0.11,-0.05 -0.15,-0.06 -0.02,-0.01 -0.24,-0.13 -0.07,-0.03 -0.02,-0.01 -0.01,-0.01 -0.02,-0.01 -0.09,-0.05 -0.07,-0.06 h -0.01 l -0.13,-0.05 -0.24,-0.13 -0.05,-0.03 -0.03,-0.02 -0.03,-0.03 -0.05,-0.04 -0.01,-0.01 -0.01,-0.02 -0.13,-0.21 -0.24,-0.38 -0.13,-0.21 -0.01,-0.05 -0.04,-0.08 -0.02,-0.04 -0.07,-0.11 -0.07,-0.13 -0.01,-0.02 -0.06,-0.1 -0.05,-0.08 -0.05,-0.05 -0.07,-0.07 -0.08,-0.09 -0.01,-0.01 -0.05,-0.06 -0.05,-0.06 -0.06,-0.09 -0.03,-0.05 -0.03,-0.05 -0.06,-0.07 -0.06,-0.09 -0.05,0.01 -0.15,0.03 -0.06,-0.03 -0.07,-0.03 -0.19,-0.1 -0.11,-0.05 -0.03,-0.02 -0.04,-0.03 -0.2,-0.18 -0.01,-0.02 -0.02,-0.01 v -0.01 l -0.01,-0.01 -0.01,-0.01 -0.01,-0.02 -0.14,-0.14 -0.21,-0.23 v -0.01 l -0.05,-0.06 -0.05,-0.05 -0.02,-0.05 -0.02,-0.02 -0.01,-0.02 -0.01,-0.02 -0.04,-0.1 -0.01,-0.02 -0.01,-0.01 -0.04,-0.05 -0.03,-0.05 -0.01,-0.01 -0.03,-0.01 -0.09,-0.01 -0.04,-0.02 h -0.03 l -0.06,0.01 -0.05,0.01 -0.02,-0.01 -0.02,-0.01 -0.03,-0.01 -0.04,-0.02 h -0.01 l -0.03,-0.01 h -0.04 l -0.07,-0.01 h -0.05 l -0.05,-0.01 h -0.03 l -0.06,-0.03 h -0.04 l -0.03,-0.02 -0.02,-0.01 -0.01,-0.01 -0.03,-0.06 -0.02,-0.02 -0.04,-0.03 -0.02,-0.02 h -0.01 l -0.12,-0.11 -0.02,-0.02 -0.03,-0.02 -0.06,-0.04 -0.04,-0.02 -0.05,-0.03 -0.02,-0.01 h -0.01 l -0.03,-0.03 v 0 l -0.08,-0.07 -0.11,-0.1 -0.2,-0.15 -0.06,-0.06 -0.08,-0.08 -0.06,-0.05 -0.04,-0.04 v 0 l -0.08,-0.09 -0.01,-0.02 -0.05,-0.04 -0.03,-0.01 -0.01,-0.01 -0.06,-0.04 -0.04,-0.02 -0.03,-0.02 -0.04,-0.02 -0.16,-0.1 -0.04,-0.03 -0.16,-0.09 -0.02,-0.02 v -0.01 l -0.1,-0.16 -0.06,-0.11 -0.02,-0.02 -0.26,-0.15 -0.01,-0.01 -0.02,-0.01 -0.01,-0.01 -0.03,-0.02 -0.05,-0.02 -0.03,-0.01 -0.02,-0.01 -0.01,-0.01 -0.03,-0.04 -0.06,-0.07 -0.12,-0.12 -0.11,-0.11 -0.1,-0.09 -0.1,-0.09 -0.12,-0.09 -0.01,-0.01 v -0.01 h -0.01 l -0.03,-0.03 -0.01,-0.01 -0.03,-0.02 -0.04,-0.03 -0.01,-0.01 -0.06,-0.05 h -0.01 l -0.01,-0.01 -0.01,-0.01 -0.01,-0.01 -0.01,-0.01 -0.12,-0.08 -0.03,-0.02 h -0.01 l -0.02,-0.01 -0.03,-0.02 -0.07,-0.03 -0.04,-0.02 -0.21,-0.08 -0.01,-0.01 -0.08,-0.03 h -0.04 l -0.05,-0.03 -0.05,-0.02 -0.04,-0.02 -0.04,-0.01 -0.04,-0.02 -0.21,-0.08 -0.02,-0.01 h -0.02 l -0.02,-0.01 h -0.02 l -0.04,-0.01 -0.11,-0.05 -0.02,-0.01 -0.02,-0.01 -0.09,-0.04 -0.09,-0.03 -0.12,-0.04 -0.03,-0.02 v 0 l -0.03,-0.01 -0.09,-0.03 -0.03,-0.02 -0.08,-0.03 -0.05,-0.01 -0.09,-0.02 h -0.09 L 412.09,367 h -0.01 l -0.06,-0.01 -0.04,-0.01 h -0.02 l -0.04,-0.02 h -0.01 l -0.03,-0.02 -0.07,-0.04 -0.05,-0.02 h -0.01 l -0.04,-0.02 -0.03,-0.02 -0.11,-0.05 -0.01,-0.01 -0.01,-0.01 -0.2,-0.1 -0.14,-0.08 -0.04,-0.02 -0.06,-0.03 h -0.05 -0.01 l -0.07,0.02 -0.11,0.02 h -0.03 l -0.03,0.01 -0.04,0.01 -0.07,0.02 -0.15,0.02 h -0.04 -0.03 l -0.05,-0.02 -0.03,-0.01 -0.1,-0.07 -0.08,-0.04 -0.04,-0.01 -0.04,-0.01 -0.07,-0.02 h -0.04 -0.05 -0.03 -0.05 l -0.13,-0.02 h -0.04 l -0.07,-0.02 -0.07,-0.03 -0.09,-0.05 -0.11,-0.07 -0.06,-0.06 -0.06,-0.05 -0.03,-0.03 -0.06,-0.06 -0.08,-0.09 -0.05,-0.04 -0.07,-0.07 -0.1,-0.08 -0.02,-0.02 -0.12,-0.08 -0.1,-0.06 -0.07,-0.05 -0.09,-0.05 -0.14,-0.08 -0.1,-0.04 -0.1,-0.04 -0.08,-0.03 -0.05,-0.03 -0.03,-0.02 -0.08,-0.08 -0.06,-0.05 -0.05,-0.05 -0.02,-0.01 -0.11,0.09 -0.1,0.1 -0.09,0.09 -0.11,0.11 h -0.01 -0.02 l -0.14,-0.03 -0.16,-0.03 -0.13,-0.01 h -0.13 l -0.12,-0.01 h -0.08 l -0.08,0.02 -0.09,0.02 h -0.05 l -0.05,-0.04 -0.06,-0.09 -0.03,-0.03 -0.03,-0.03 -0.06,-0.06 -0.11,-0.15 -0.13,-0.16 -0.09,-0.13 -0.09,-0.11 -0.09,-0.12 -0.04,-0.06 -0.03,-0.05 -0.02,-0.07 -0.01,-0.05 -0.07,-0.09 -0.09,-0.09 -0.03,-0.04 -0.01,-0.01 -0.06,-0.06 -0.05,-0.06 -0.06,-0.08 -0.06,-0.07 -0.03,-0.03 -0.04,-0.07 -0.1,-0.16 -0.03,-0.03 v -0.01 l -0.03,-0.04 -0.05,-0.05 -0.12,-0.13 -0.06,-0.05 -0.06,-0.06 -0.05,-0.08 -0.04,-0.07 -0.04,-0.06 -0.05,-0.07 -0.04,-0.07 -0.04,-0.06 -0.03,-0.06 -0.02,-0.05 -0.02,-0.04 -0.02,-0.01 -0.02,-0.02 -0.03,-0.02 -0.03,-0.02 -0.06,-0.04 -0.05,-0.03 0.09,-0.03 0.14,-0.07 0.07,-0.08 0.03,-0.06 -0.01,-0.04 0.02,-0.01 0.05,0.02 0.04,-0.01 0.01,-0.02 v -0.09 l -0.02,-0.07 V 362 l 0.01,-0.01 0.06,0.01 h 0.04 l 0.08,-0.01 0.09,-0.03 0.06,-0.03 0.09,-0.05 0.03,-0.03 0.06,-0.05 H 405 l 0.02,-0.01 h 0.06 l 0.09,0.02 0.1,0.05 0.19,0.1 0.09,0.04 0.06,0.02 0.14,0.05 0.07,0.02 0.05,0.01 0.07,-0.02 0.04,-0.02 h 0.06 l 0.07,0.01 0.08,-0.04 0.06,-0.04 0.03,-0.04 0.01,-0.08 0.01,-0.05 0.01,-0.04 v -0.01 l 0.01,-0.02 0.02,-0.03 0.04,-0.05 0.05,-0.05 0.05,-0.04 0.08,-0.04 0.07,-0.05 0.06,-0.03 0.07,-0.05 -0.03,0.03 0.03,0.04 0.05,0.05 0.05,0.04 0.02,0.03 0.04,0.04 0.04,0.03 0.05,0.04 0.06,0.05 0.05,0.03 0.06,0.05 0.07,0.04 0.04,0.03 0.05,0.03 0.04,0.03 0.04,-0.06 0.05,-0.06 0.06,-0.08 0.07,-0.08 0.06,-0.07 0.06,-0.07 0.04,-0.05 0.04,-0.05 0.07,-0.07 0.08,-0.06 0.05,-0.05 0.06,-0.04 0.03,-0.02 0.04,-0.03 0.05,-0.04 0.02,-0.02 0.04,-0.05 0.05,-0.07 0.04,-0.04 0.04,-0.06 0.07,-0.08 0.05,-0.06 0.03,-0.04 0.02,-0.05 0.07,-0.12 0.05,-0.09 0.02,-0.02 0.02,-0.05 0.02,-0.02 0.02,-0.02 0.04,-0.04 0.06,-0.05 0.05,-0.05 0.04,-0.03 0.04,-0.03 0.04,-0.03 0.05,-0.02 0.08,-0.01 0.05,-0.01 h 0.06 l 0.06,-0.01 h 0.07 l 0.08,-0.01 0.09,-0.01 h 0.04 l 0.05,-0.04 0.03,-0.02 0.1,-0.07 0.1,-0.07 0.12,-0.09 0.14,-0.1 0.1,-0.07 0.13,-0.09 0.02,-0.01 0.04,-0.04 0.12,-0.06 0.13,-0.07 0.02,-0.02 0.13,-0.07 0.11,-0.07 0.05,-0.03 0.05,-0.03 0.01,-0.01 0.07,-0.05 0.09,-0.06 0.02,-0.01 0.02,-0.01 0.07,-0.04 0.06,-0.04 0.09,-0.05 0.04,-0.02 0.01,-0.01 0.03,-0.01 0.06,-0.02 0.05,-0.02 0.05,-0.01 0.01,-0.01 h 0.02 l 0.04,-0.02 0.05,-0.02 0.05,-0.02 0.05,-0.02 h 0.02 l 0.01,-0.01 h 0.02 v 0 h 0.02 l 0.03,0.01 0.05,0.01 0.06,0.01 0.03,0.01 0.13,0.02 0.13,0.02 0.1,0.02 0.16,0.03 0.08,0.01 0.04,0.01 0.05,-0.01 0.08,0.01 h 0.06 0.07 0.04 l 0.04,-0.01 0.06,-0.02 h 0.02 l 0.11,-0.03 h 0.03 l 0.13,-0.03 0.1,-0.03 0.05,-0.01 0.12,-0.03 0.09,-0.02 h 0.01 l 0.06,-0.01 0.01,-0.01 0.03,-0.01 0.05,-0.07 0.03,-0.04 0.01,-0.03 0.01,-0.01 0.01,-0.01 h 0.01 l 0.01,-0.01 0.03,-0.01 0.01,-0.01 0.01,-0.01 0.03,-0.03 0.01,-0.02 0.02,-0.01 0.02,-0.02 0.02,-0.01 h 0.01 0.01 l 0.01,0.01 0.03,0.02 0.02,0.02 0.03,0.02 0.03,0.01 0.02,0.01 h 0.02 0.01 l 0.02,-0.01 v 0 l 0.01,-0.01 0.02,-0.01 0.02,-0.02 0.02,-0.01 0.02,-0.02 0.02,-0.01 0.02,-0.01 0.02,-0.01 0.02,-0.01 h 0.02 0.01 l 0.02,-0.01 h 0.03 l 0.02,-0.01 h 0.02 0.01 0.03 l 0.03,-0.01 h 0.02 l 0.04,-0.01 h 0.01 l 0.01,-0.01 0.01,-0.01 0.01,-0.02 0.02,-0.02 0.01,-0.02 0.01,-0.01 v -0.02 -0.02 -0.03 -0.02 -0.02 l -0.01,-0.05 0.02,-0.02 0.04,-0.02 0.04,-0.02 0.01,-0.01 0.05,-0.03 h 0.01 l 0.09,0.01 h 0.08 0.03 l 0.11,-0.01 0.07,-0.01 h 0.07 l 0.05,-0.01 0.05,-0.01 0.02,-0.01 h 0.01 l 0.06,-0.02 0.03,-0.01 h 0.01 l 0.01,-0.01 0.02,-0.01 0.05,-0.02 0.04,-0.02 0.1,-0.06 0.1,-0.06 0.1,-0.06 0.12,-0.07 0.05,-0.03 0.03,-0.02 0.08,-0.04 0.03,-0.02 0.06,-0.03 0.02,-0.03 0.05,-0.05 0.02,-0.03 0.01,-0.01 -0.01,-0.02 -0.02,-0.03 -0.01,-0.01 -0.01,-0.02 v -0.03 -0.02 -0.02 -0.02 -0.03 l 0.01,-0.02 0.01,-0.02 0.01,-0.02 0.01,-0.01 0.02,-0.02 0.01,-0.02 0.02,-0.07 0.01,-0.03 z"
       id="path20" />
  </g>
</svg>
