<?xml version="1.0" encoding="UTF-8" standalone="no"?>
<svg
   version="1.2"
   width="800"
   height="642"
   viewBox="0 0 800 642"
   stroke-linecap="round"
   stroke-linejoin="round"
   id="svg59"
   sodipodi:docname="Ahetze.svg"
   inkscape:version="1.1.2 (b8e25be833, 2022-02-05)"
   xmlns:inkscape="http://www.inkscape.org/namespaces/inkscape"
   xmlns:sodipodi="http://sodipodi.sourceforge.net/DTD/sodipodi-0.dtd"
   xmlns="http://www.w3.org/2000/svg"
   xmlns:svg="http://www.w3.org/2000/svg">
  <defs
     id="defs63" />
  <sodipodi:namedview
     id="namedview61"
     pagecolor="#ffffff"
     bordercolor="#666666"
     borderopacity="1.0"
     inkscape:pageshadow="2"
     inkscape:pageopacity="0.0"
     inkscape:pagecheckerboard="0"
     showgrid="false"
     inkscape:zoom="1.3146417"
     inkscape:cx="399.72867"
     inkscape:cy="199.67417"
     inkscape:window-width="1848"
     inkscape:window-height="1016"
     inkscape:window-x="72"
     inkscape:window-y="1107"
     inkscape:window-maximized="1"
     inkscape:current-layer="svg59" />
  <g
     id="Ahetze"
     transform="matrix(24.150587,0,0,24.150587,-12564.747,-1104.8648)">
    <path
       d="m 527.31,55.09 0.08,-0.05 h 0.02 0.02 0.01 l 0.02,-0.01 0.01,-0.02 0.01,-0.01 h 0.03 l 0.09,-0.02 0.1,-0.03 0.1,-0.02 0.08,-0.01 0.07,-0.02 0.05,-0.01 0.01,-0.01 0.09,-0.03 0.12,-0.04 0.08,-0.04 0.02,-0.01 0.01,-0.01 0.13,-0.06 0.11,-0.07 0.07,-0.05 0.05,-0.02 0.07,-0.04 0.07,-0.04 0.18,-0.09 0.07,-0.04 0.05,-0.03 0.07,-0.05 0.1,-0.07 0.09,-0.06 0.05,-0.04 0.06,-0.08 0.01,-0.02 0.02,-0.01 0.01,-0.01 0.05,-0.01 0.15,-0.04 0.06,-0.04 0.05,-0.03 0.09,-0.07 0.07,-0.06 0.1,-0.06 0.02,-0.02 0.02,-0.04 0.4,0.21 0.07,0.02 0.09,0.04 0.32,0.15 0.02,0.01 0.67,0.33 0.24,-0.09 0.24,-0.09 0.09,-0.1 0.06,-0.08 0.08,-0.1 0.02,-0.03 0.07,-0.11 0.14,-0.16 0.01,-0.02 0.01,-0.03 0.01,-0.03 0.15,-0.44 0.03,-0.09 0.15,-0.21 0.3,-0.4 0.17,0.16 0.18,0.15 0.18,0.15 0.02,0.01 0.01,0.01 0.06,0.06 0.02,0.03 0.06,0.05 0.14,0.15 0.17,0.16 0.04,0.06 0.01,0.02 0.28,0.25 0.22,0.2 0.24,0.16 0.06,0.04 0.07,0.04 0.05,0.03 0.03,0.03 0.01,0.05 0.01,0.06 v 0.04 l 0.01,0.01 0.01,0.01 0.02,0.01 0.02,0.01 h 0.01 0.01 0.01 0.01 0.01 v -0.01 -0.01 -0.02 l -0.01,-0.01 -0.01,-0.04 -0.01,-0.02 V 54.2 l -0.01,-0.02 0.01,-0.02 h 0.01 0.01 0.02 l 0.02,-0.01 h 0.01 l 0.01,-0.02 0.08,0.02 0.17,0.16 0.18,0.06 0.04,-0.03 0.04,-0.03 v 0.07 l 0.02,0.07 h 0.01 l 0.03,-0.01 0.03,-0.01 0.03,-0.01 0.02,-0.01 0.03,-0.01 h 0.02 l 0.02,-0.01 h 0.03 l 0.02,-0.01 0.04,-0.01 h 0.02 l 0.01,-0.01 0.02,-0.01 0.02,-0.01 0.01,-0.02 0.02,-0.01 0.01,-0.02 0.02,-0.01 0.02,-0.01 0.01,-0.02 0.02,-0.01 0.02,-0.01 0.02,-0.02 0.03,-0.02 0.01,-0.01 0.01,-0.01 0.02,-0.02 0.01,-0.01 0.02,-0.01 0.02,-0.01 h 0.01 0.02 l 0.01,-0.01 0.01,-0.01 0.01,-0.01 0.01,-0.02 V 54.04 53.8 l 0.15,-0.05 0.25,-0.07 0.15,0.08 0.17,0.25 0.04,-0.03 0.07,-0.03 0.04,-0.02 0.03,-0.01 h 0.03 l 0.05,-0.01 0.03,-0.01 h 0.02 l 0.04,-0.01 h 0.02 l -0.01,0.03 v 0.05 l 0.01,0.05 -0.01,0.05 v 0.02 0.01 0.02 0.02 l -0.01,0.01 v 0.01 l -0.01,0.01 -0.01,0.01 -0.01,0.02 -0.01,0.01 -0.01,0.02 -0.01,0.02 -0.01,0.02 -0.01,0.03 -0.02,0.09 -0.01,0.03 v 0.04 l -0.01,0.03 -0.01,0.01 v 0.03 l -0.01,0.02 v 0.02 0.03 l 0.01,0.05 v 0.03 0.03 l 0.01,0.03 v 0.03 0.03 l 0.01,0.02 v 0.04 0.02 0.03 0.03 l -0.01,0.04 v 0.03 l -0.01,0.04 v 0.01 l -0.01,0.02 -0.01,0.01 -0.01,0.02 -0.01,0.02 -0.01,0.01 v 0.01 l -0.01,0.02 -0.01,0.02 -0.01,0.02 -0.01,0.03 v 0.02 l -0.03,0.04 0.03,0.02 0.07,0.05 0.04,0.02 0.21,0.13 0.08,0.06 H 538 l 0.02,0.01 0.05,0.05 0.01,0.03 h 0.01 l 0.1,-0.03 0.09,-0.03 0.08,-0.04 0.09,-0.03 0.05,-0.02 0.02,-0.01 h 0.02 l 0.02,0.01 0.02,0.02 0.09,0.09 0.12,0.12 0.02,0.03 0.01,0.02 0.03,-0.02 0.02,-0.01 v -0.01 l 0.02,-0.01 0.02,-0.01 0.02,-0.01 0.01,-0.01 h 0.01 0.01 0.02 L 539,55.71 h 0.02 0.01 0.01 l 0.01,-0.01 h 0.01 l 0.03,-0.02 v 0 l 0.01,-0.01 h 0.02 0.01 l 0.01,-0.01 h 0.01 l 0.03,-0.01 0.04,-0.02 0.02,-0.01 0.01,-0.01 h 0.02 l 0.02,-0.01 0.05,-0.02 0.07,-0.02 0.06,-0.02 0.08,-0.03 0.06,-0.03 0.02,-0.01 0.03,-0.02 0.01,-0.01 0.01,-0.01 0.02,-0.03 h 0.01 0.01 l 0.02,-0.01 h 0.02 0.01 0.02 0.01 0.02 l 0.01,-0.01 0.02,-0.01 h 0.01 0.01 0.01 0.01 0.01 0.02 0.01 l 0.01,0.01 h 0.01 0.01 l 0.02,0.01 0.03,-0.01 h 0.04 0.01 l 0.01,0.01 h 0.01 v 0.02 0.03 0.03 l 0.03,0.05 0.03,0.06 0.02,0.03 0.01,0.02 0.01,0.05 0.01,0.05 0.01,0.05 0.04,0.2 h 0.07 l -0.03,0.07 -0.04,0.01 -0.03,0.03 -0.01,0.02 -0.02,0.03 0.01,0.02 0.07,0.07 0.05,0.07 0.02,0.1 0.01,0.08 0.03,0.07 0.08,0.1 0.06,0.03 0.07,0.02 0.06,0.02 h 0.01 0.04 0.04 l 0.06,-0.01 h 0.04 l 0.03,-0.01 0.05,-0.02 h 0.05 0.01 0.03 l 0.03,-0.02 0.02,-0.02 0.01,-0.01 0.03,-0.02 0.03,-0.01 0.03,0.02 0.05,-0.01 0.05,-0.01 0.02,-0.01 h 0.03 0.06 l 0.09,0.01 h 0.02 l 0.02,0.01 0.03,0.02 0.04,0.02 0.01,0.01 0.02,0.01 0.03,0.04 0.03,0.02 0.02,0.02 0.01,0.02 0.03,0.02 0.02,0.01 0.01,0.02 0.01,0.01 0.03,0.02 0.03,0.02 0.05,0.03 0.03,0.03 0.02,0.04 0.04,0.04 0.05,0.05 0.04,0.05 0.02,0.03 0.02,0.02 0.04,0.05 0.03,0.04 0.04,0.04 0.04,0.02 0.05,0.02 0.01,0.01 0.03,0.02 0.04,0.03 0.05,0.02 0.05,0.01 0.03,0.02 0.03,0.04 0.03,0.05 0.02,0.04 0.02,0.02 0.03,0.02 0.04,0.05 0.07,0.13 0.03,0.06 0.08,0.14 0.01,0.02 -0.06,-0.01 h -0.14 l 0.02,0.11 0.03,0.2 0.01,0.09 -0.01,0.01 -0.08,-0.01 h -0.03 v 0.17 0.06 l -0.01,0.09 -0.01,0.17 v 0.02 l 0.04,0.04 0.08,0.17 0.04,0.09 0.06,0.12 0.05,-0.05 -0.01,0.02 -0.02,0.05 -0.02,0.05 -0.01,0.03 v 0.03 l 0.03,0.07 0.22,0.22 v 0.03 0.02 l 0.02,0.25 0.02,0.14 0.01,0.04 0.01,0.03 0.01,0.05 v 0.01 0.05 l 0.01,0.09 v 0.04 0.02 l 0.36,0.72 0.01,0.02 -0.02,0.02 -0.03,0.01 0.05,0.05 0.03,0.1 v 0.03 l 0.01,0.02 0.05,0.16 0.01,0.03 0.01,0.06 0.02,0.06 0.01,0.02 0.01,0.03 0.15,0.11 0.07,0.05 0.22,0.14 0.28,0.23 0.06,0.06 -0.2,0.84 0.09,0.01 0.02,-0.02 0.01,-0.03 0.01,-0.04 0.02,-0.03 0.03,-0.01 0.01,-0.03 0.01,-0.03 0.03,-0.03 0.03,-0.02 0.03,-0.01 0.03,-0.03 0.02,-0.03 0.01,-0.02 0.02,-0.03 0.04,-0.01 0.01,-0.03 v -0.03 l 0.03,-0.03 h 0.03 l 0.04,-0.01 0.02,-0.03 0.01,-0.03 0.01,-0.04 0.02,-0.05 v -0.03 l 0.01,-0.05 0.02,-0.03 0.01,-0.03 0.02,-0.04 0.03,-0.04 0.03,-0.03 0.03,-0.03 0.03,-0.02 0.03,-0.03 0.01,-0.03 0.02,-0.03 0.02,-0.03 0.04,-0.01 0.03,-0.02 0.01,-0.03 0.02,-0.03 0.02,-0.01 0.05,-0.01 0.02,-0.03 0.03,-0.03 0.02,-0.02 0.01,-0.03 h 0.04 l 0.06,-0.01 h 0.03 0.05 0.04 0.03 L 545.59,62 h 0.05 l 0.03,-0.02 0.03,-0.02 0.02,-0.01 0.03,-0.02 0.05,-0.03 0.04,-0.01 0.03,-0.03 0.04,-0.04 0.03,-0.04 0.03,-0.03 0.05,-0.08 0.04,-0.04 0.05,-0.03 0.05,-0.01 0.04,-0.03 0.03,-0.04 0.04,-0.03 0.06,-0.02 h 0.04 l 0.06,0.01 0.05,0.01 h 0.06 0.07 l 0.06,-0.01 h 0.1 l 0.08,-0.01 0.08,0.01 -0.29,0.54 -0.02,0.04 -0.05,0.05 -0.06,0.08 -0.05,0.06 -0.02,0.05 -0.04,0.07 -0.07,0.15 -0.04,0.11 -0.01,0.02 -0.14,0.07 -0.04,0.02 -0.02,0.01 -0.05,0.02 -0.11,0.05 -0.07,0.03 -0.08,0.04 -0.08,0.05 -0.02,0.01 -0.05,0.04 -0.02,0.01 -0.51,0.27 -0.08,0.04 -0.06,0.02 -0.13,0.03 -0.14,0.02 -0.19,0.06 -0.03,0.01 -0.28,0.08 -0.02,0.01 -0.1,0.03 -0.28,0.07 -0.46,0.14 -0.43,-0.06 -0.07,0.01 -0.22,0.05 -0.17,0.03 -0.03,0.01 h -0.07 l -0.04,0.01 -0.18,0.03 -0.23,0.04 -0.26,0.05 -0.27,0.04 -0.12,-0.01 -0.06,0.01 -0.12,0.01 -0.04,0.01 -0.04,-0.01 h -0.03 l -0.21,0.04 -0.07,0.01 v 0.02 l -0.01,0.04 -0.01,-0.01 -0.04,-0.02 -0.08,0.01 h -0.04 -0.06 -0.05 -0.05 -0.06 -0.04 -0.04 -0.03 l -0.04,-0.01 -0.05,-0.01 -0.06,-0.01 -0.06,-0.01 -0.05,-0.01 -0.03,-0.01 -0.17,-0.04 -0.16,-0.04 -0.12,-0.03 -0.13,-0.03 -0.09,-0.02 -0.09,-0.02 -0.07,-0.02 -0.07,-0.02 -0.09,-0.02 -0.09,-0.03 -0.1,-0.03 -0.1,-0.03 -0.07,-0.02 -0.1,-0.02 -0.06,-0.02 -0.09,-0.02 -0.07,-0.01 -0.06,-0.01 -0.06,-0.02 -0.06,-0.01 -0.05,-0.02 -0.06,-0.01 -0.05,-0.01 -0.04,-0.01 -0.03,-0.01 -0.02,-0.01 -0.02,-0.02 -0.05,0.01 -0.08,0.03 -0.05,0.01 -0.04,0.01 -0.08,0.03 -0.05,0.01 h -0.02 l -0.03,0.01 -0.07,0.02 -0.06,0.03 -0.06,0.02 -0.07,0.03 -0.02,0.01 h -0.02 L 537.03,63.71 537,63.7 h -0.06 -0.07 -0.01 -0.07 l -0.06,-0.01 h -0.06 l -0.13,-0.01 h -0.05 -0.02 -0.04 l -0.02,0.01 -0.15,-0.02 -0.43,0.03 -0.21,0.01 h -0.05 -0.02 l -0.05,-0.03 -0.02,-0.02 -0.14,-0.09 h -0.01 l -0.04,-0.03 -0.06,-0.04 -0.05,-0.04 -0.07,-0.06 -0.05,-0.03 -0.14,-0.1 -0.01,-0.01 -0.04,-0.03 -0.04,-0.02 -0.02,-0.01 -0.04,-0.04 -0.04,-0.03 -0.04,-0.03 h -0.02 l -0.04,-0.03 -0.04,-0.02 -0.04,-0.03 -0.03,-0.02 -0.29,-0.19 -0.02,-0.02 -0.36,-0.18 -0.17,-0.09 -0.13,-0.07 -0.05,-0.02 -0.04,-0.03 -0.25,-0.12 -0.35,-0.19 h -0.04 l -0.12,-0.01 h -0.1 -0.01 l -0.42,-0.02 h -0.03 l -0.06,-0.01 h -0.05 l -0.24,-0.01 h -0.16 l -0.12,-0.04 -0.04,-0.01 -0.23,-0.06 -0.28,-0.08 -0.04,-0.01 -0.47,-0.14 -0.12,-0.03 h -0.01 l -0.03,-0.01 -0.06,-0.02 h -0.01 l -0.16,-0.03 -0.14,-0.02 -0.34,-0.21 -0.04,-0.02 -0.05,-0.03 -0.06,-0.04 -0.1,-0.04 -0.03,-0.02 -0.05,-0.03 -0.11,-0.08 -0.09,-0.08 -0.09,-0.08 -0.09,-0.08 -0.01,-0.01 -0.09,-0.07 -0.03,-0.03 -0.01,-0.01 -0.1,-0.09 -0.09,-0.06 -0.06,-0.04 -0.04,-0.02 -0.03,-0.01 -0.06,-0.02 -0.12,-0.03 -0.13,-0.04 h -0.01 l -0.09,-0.02 -0.02,-0.01 -0.04,-0.01 -0.03,-0.01 -0.08,-0.03 -0.07,-0.03 -0.03,-0.18 -0.04,-0.17 -0.02,-0.11 -0.01,-0.07 -0.03,-0.18 -0.03,-0.14 -0.13,-0.7 -0.01,-0.06 -0.04,-0.22 -0.09,-0.51 -0.06,-0.33 -0.02,-0.08 -0.11,-0.61 -0.03,-0.13 v -0.04 l -0.01,-0.03 -0.01,-0.05 -0.03,-0.16 0.07,-0.26 0.09,-0.32 0.02,-0.11 0.01,-0.03 z"
       id="path56" />
  </g>
</svg>
