<?xml version="1.0" encoding="UTF-8" standalone="no"?>
<svg
   version="1.2"
   width="800"
   height="642"
   viewBox="0 0 800 642"
   stroke-linecap="round"
   stroke-linejoin="round"
   id="svg68"
   sodipodi:docname="Aia.svg"
   inkscape:version="1.1.2 (b8e25be833, 2022-02-05)"
   xmlns:inkscape="http://www.inkscape.org/namespaces/inkscape"
   xmlns:sodipodi="http://sodipodi.sourceforge.net/DTD/sodipodi-0.dtd"
   xmlns="http://www.w3.org/2000/svg"
   xmlns:svg="http://www.w3.org/2000/svg">
  <defs
     id="defs72" />
  <sodipodi:namedview
     id="namedview70"
     pagecolor="#ffffff"
     bordercolor="#666666"
     borderopacity="1.0"
     inkscape:pageshadow="2"
     inkscape:pageopacity="0.0"
     inkscape:pagecheckerboard="0"
     showgrid="false"
     inkscape:zoom="1.3146417"
     inkscape:cx="399.72867"
     inkscape:cy="139.20142"
     inkscape:window-width="1848"
     inkscape:window-height="1043"
     inkscape:window-x="72"
     inkscape:window-y="0"
     inkscape:window-maximized="1"
     inkscape:current-layer="svg68" />
  <g
     id="Aia"
     transform="matrix(14.264019,0,0,14.264019,-4949.3606,-1442.3957)">
    <path
       d="m 373.59,104 0.04,-0.02 0.03,-0.01 0.05,0.02 0.01,0.02 0.03,0.03 0.03,0.02 h 0.02 0.02 l 0.05,0.04 0.02,0.02 h 0.02 l 0.04,0.01 0.03,0.01 0.02,0.01 0.02,0.02 0.03,-0.01 0.03,0.02 0.03,0.01 0.04,0.01 h 0.04 l 0.04,0.01 0.03,0.01 0.01,0.01 0.02,0.02 0.02,0.02 0.03,0.02 h 0.03 l 0.04,0.02 0.05,0.02 h 0.02 l 0.04,0.01 0.04,0.01 h 0.05 l 0.05,0.01 0.05,0.01 h 0.04 l 0.02,0.01 0.02,0.01 0.05,0.02 0.03,0.01 0.04,0.02 0.04,0.03 0.07,0.02 0.05,0.02 h 0.03 l 0.03,0.01 h 0.04 l 0.03,0.01 0.03,0.01 0.06,0.01 h 0.03 l 0.04,0.01 0.04,0.01 0.06,0.02 0.04,0.02 0.04,0.01 0.01,0.01 h 0.01 l 0.18,0.03 0.03,0.01 v 0.01 l 0.03,0.02 h 0.02 0.03 l 0.02,0.01 0.03,0.01 0.01,0.02 0.01,0.02 0.02,0.01 0.02,-0.01 v -0.03 -0.03 -0.02 l 0.01,-0.03 v -0.02 l 0.01,-0.04 0.01,-0.02 v -0.04 l 0.01,-0.04 0.01,-0.03 v -0.04 l 0.02,-0.03 v -0.04 l 0.02,-0.03 0.01,-0.03 0.01,-0.03 0.01,-0.02 0.03,-0.04 0.03,-0.03 0.01,-0.02 0.03,-0.03 0.04,-0.04 0.03,-0.02 0.04,-0.03 0.02,-0.03 0.03,-0.02 0.03,-0.03 0.04,-0.02 0.03,-0.03 0.03,-0.02 0.02,-0.01 h 0.03 l 0.03,0.01 0.03,0.02 0.02,0.03 v 0.04 l -0.01,0.04 -0.04,0.04 -0.03,0.02 -0.02,0.01 -0.01,0.01 h -0.01 v 0 l -0.02,0.01 -0.01,0.01 -0.01,0.01 -0.02,0.01 -0.01,0.01 -0.01,0.01 -0.01,0.01 -0.02,0.01 -0.01,0.01 -0.01,0.01 -0.01,0.01 -0.02,0.01 -0.01,0.02 -0.01,0.01 -0.01,0.01 -0.01,0.01 v 0.01 l -0.01,0.01 -0.01,0.01 v 0.01 l -0.01,0.01 v 0.01 l -0.01,0.01 v 0.01 l -0.01,0.01 v 0.01 l -0.01,0.02 v 0.01 l -0.01,0.01 v 0.01 0.01 0.01 l -0.01,0.01 v 0.02 0.01 0.01 l -0.01,0.01 v 0.01 0.01 0.01 0.01 0.02 0.01 0.01 0.01 0.01 0.01 0.01 0.01 0.02 l 0.01,0.01 v 0.01 0.01 0.01 l 0.01,0.01 v 0.01 0.02 l 0.01,0.02 0.01,0.01 v 0.02 l 0.01,0.02 0.01,0.01 v 0.02 l 0.01,0.02 0.01,0.01 0.01,0.02 v 0.01 l 0.01,0.02 0.01,0.02 0.01,0.03 -0.1,0.08 v 0.01 l 0.01,0.01 0.01,0.01 0.01,0.01 v 0.01 l 0.02,0.01 v 0.01 h 0.01 0.01 l 0.01,0.01 v 0.01 0.01 l 0.01,0.02 v 0 0.01 0.01 l 0.01,0.01 0.01,0.01 h 0.01 0.01 l 0.01,0.01 v 0.01 0.01 0.01 h -0.01 v 0.01 0.01 0.01 0.01 0 l -0.01,0.01 v 0.01 l 0.01,0.01 v 0.01 l 0.02,0.01 h 0.02 l 0.02,-0.01 0.01,-0.01 0.02,-0.01 0.02,-0.02 0.01,-0.02 0.01,-0.03 0.01,-0.01 0.03,-0.01 h 0.02 l 0.01,0.01 0.01,0.01 v 0.02 0.01 l -0.02,0.03 -0.03,0.04 -0.02,0.03 -0.03,0.04 -0.04,0.02 -0.02,0.03 -0.01,0.01 v 0.01 l 0.01,0.04 v 0 l 0.01,0.01 v 0.01 l 0.01,0.01 v 0.01 l 0.01,0.02 0.01,0.01 0.01,0.01 0.01,0.02 v 0 0.01 l 0.01,0.02 v 0.01 l 0.01,0.02 v 0.01 0.01 l 0.01,0.02 v 0.01 0.01 l 0.01,0.03 0.01,0.01 v 0.01 0.01 l 0.01,0.02 0.01,0.05 0.01,0.01 v 0.01 l 0.01,0.01 0.01,0.02 v 0 l 0.01,0.01 0.01,0.02 0.01,0.01 v 0 l 0.01,0.02 h 0.02 l 0.03,-0.02 v 0 h 0.01 l 0.01,-0.01 0.02,-0.01 0.01,-0.01 0.01,-0.01 0.02,-0.01 0.02,-0.01 0.01,-0.01 0.01,-0.01 0.05,-0.04 0.01,-0.01 0.02,-0.02 v -0.01 l 0.01,-0.01 0.01,-0.02 v -0.01 l 0.02,0.01 0.01,0.01 v 0.01 l -0.01,0.02 v 0.01 l -0.01,0.01 v 0 l -0.01,0.02 -0.01,0.01 -0.01,0.01 v 0.01 h -0.01 l -0.01,0.01 -0.01,0.01 h -0.01 l -0.01,0.01 h -0.01 l -0.01,0.01 -0.02,0.02 -0.02,0.01 -0.02,0.01 v 0.01 h -0.02 l -0.01,0.01 h -0.01 l -0.01,0.01 -0.01,0.01 -0.02,0.01 -0.02,0.01 v 0.01 0.03 l 0.01,0.03 h 0.01 l 0.02,0.03 0.01,0.01 h 0.01 l 0.01,0.01 0.02,0.01 0.01,0.01 h 0.01 l 0.01,0.01 h 0.01 l 0.01,0.01 h 0.01 0.01 l 0.04,0.02 v 0.01 l 0.02,0.01 v 0.01 l 0.03,0.03 0.01,0.02 0.01,0.01 h 0.01 l 0.01,0.01 v 0 l 0.01,0.01 0.02,0.01 v 0 l 0.01,0.02 h 0.01 v 0.01 l 0.01,0.01 0.03,-0.01 0.01,-0.01 0.01,-0.01 h 0.01 l 0.01,-0.01 0.02,-0.02 h 0.01 v -0.01 l 0.03,-0.01 0.01,-0.01 0.01,-0.01 v 0 l 0.01,-0.01 v -0.01 l 0.02,-0.05 0.01,-0.01 h 0.01 0.01 l 0.01,0.01 v 0.01 l -0.01,0.03 v 0.01 l -0.01,0.02 v 0.01 l -0.01,0.01 -0.02,0.01 v 0.01 l -0.03,0.02 -0.02,0.01 -0.01,0.01 v 0 l -0.04,0.02 -0.03,0.02 -0.01,0.01 h -0.01 l -0.01,0.01 -0.01,0.01 v 0 0.01 l 0.01,0.01 0.01,0.01 0.01,0.01 0.02,0.03 0.01,0.01 v 0.01 0.01 0.01 0.02 h -0.01 v 0.02 0.01 H 377 v 0.01 0.01 0.01 0.01 0.01 0.01 0.01 0.01 0.02 0.01 0 0.01 l 0.01,0.03 v 0.01 l 0.01,0.01 v 0 0.01 l 0.01,0.01 v 0.01 l 0.01,0.01 v 0 l 0.02,0.02 0.01,0.02 0.01,0.01 0.01,0.01 h 0.01 l 0.01,0.01 0.01,0.01 h 0.01 l 0.02,0.02 h 0.01 l 0.01,0.01 0.01,0.01 h 0.01 l 0.01,0.01 h 0.01 l 0.01,0.01 0.02,0.01 0.01,0.01 h 0.01 l 0.02,0.01 v 0 l 0.01,0.01 0.01,0.01 v 0.01 l 0.01,0.03 v 0.01 0.01 0.01 l -0.01,0.01 v 0.01 l -0.02,0.02 -0.01,0.01 v 0 l -0.01,0.01 -0.02,0.01 h -0.01 -0.02 -0.02 -0.03 -0.02 -0.03 l -0.03,-0.01 h -0.02 l -0.03,-0.01 h -0.01 -0.03 -0.03 -0.04 -0.03 -0.04 l -0.03,0.01 -0.02,0.01 -0.05,0.03 -0.01,0.01 h -0.01 l -0.35,0.15 -0.06,0.34 0.43,0.16 -0.36,0.66 -0.14,0.68 0.22,1.5 0.47,0.54 0.01,0.12 0.25,0.09 0.41,0.03 0.22,-0.02 0.65,-0.01 0.87,-0.02 0.23,-0.07 -0.02,-0.06 0.02,-0.01 h 0.07 l 0.12,-0.02 0.01,0.02 0.2,-0.03 v -0.04 h -0.02 l -0.01,-0.02 0.08,-0.01 0.01,0.02 h -0.02 l 0.01,0.04 v 0 l 0.09,-0.01 0.01,-0.01 h 0.02 0.02 l 0.01,-0.01 h 0.01 0.02 0.03 0.01 l 0.01,-0.01 h 0.02 0.01 0.01 l 0.01,-0.01 h 0.02 0.01 0.01 0.01 l 0.01,-0.01 h 0.02 0.01 l 0.05,-0.01 0.01,-0.01 h 0.01 0.02 0.02 0.02 0.01 0.02 0.01 0.03 0.01 0.01 0.01 0.01 0.01 0.02 0.01 l 0.01,-0.01 0.01,0.01 h 0.02 0.03 0.01 0.01 l 0.02,0.01 h 0.01 0.01 0.01 l 0.01,0.01 h 0.01 0.01 0.01 0.01 l 0.02,0.01 h 0.01 0.02 v 0.01 l 0.03,0.01 0.01,0.01 0.01,0.01 0.01,0.01 0.01,0.01 v 0.01 l 0.05,-0.01 0.01,0.11 0.01,0.03 0.01,0.03 0.02,0.04 0.01,0.01 0.03,0.06 0.04,0.08 0.05,0.09 0.04,0.08 0.04,0.07 0.01,0.01 0.01,0.03 0.02,0.01 0.01,0.02 0.01,0.01 0.02,0.03 0.02,0.02 0.03,0.02 0.01,0.02 0.02,0.01 0.03,0.02 0.03,0.02 0.03,0.03 0.03,0.03 0.03,0.03 0.02,0.02 0.03,0.03 v 0.01 l 0.02,0.02 v 0.02 l 0.02,0.01 0.02,0.02 0.01,0.01 0.01,0.02 0.04,0.02 0.01,0.01 0.01,0.01 0.03,0.01 0.01,0.01 0.03,0.01 h 0.02 0.01 l 0.03,0.01 h 0.02 0.01 0.01 0.02 l 0.01,0.01 h 0.01 l 0.01,0.01 h 0.02 0.02 l 0.02,0.01 h 0.02 0.02 0.01 l 0.02,0.01 0.04,0.01 h 0.03 0.02 l 0.02,0.01 h 0.01 0.02 l 0.1,0.01 h 0.02 0.03 0.02 0.02 0.01 l 0.02,-0.01 h 0.01 l 0.01,-0.01 h 0.02 l 0.01,-0.01 0.03,-0.01 0.05,-0.02 h 0.02 l 0.01,-0.01 0.03,-0.01 0.03,-0.01 0.03,-0.01 0.03,-0.01 0.02,-0.01 h 0.02 0.04 l 0.02,-0.01 h 0.01 0.02 0.02 0.01 l 0.02,-0.01 h 0.02 l 0.01,0.01 h 0.02 0.03 0.02 0.03 0.01 l 0.02,0.01 h 0.01 0.02 l 0.02,-0.01 h 0.02 0.02 l 0.02,-0.01 h 0.01 l 0.02,-0.01 h 0.02 l 0.02,-0.01 h 0.01 l 0.05,-0.02 0.01,-0.01 0.02,-0.01 h 0.02 l 0.01,-0.01 0.02,-0.01 0.03,-0.01 0.01,-0.01 h 0.02 l 0.02,-0.02 0.02,-0.01 h 0.01 l 0.02,-0.01 0.01,-0.01 h 0.01 0.01 l 0.02,-0.01 0.01,-0.01 0.01,-0.01 h 0.01 l 0.01,-0.01 0.01,-0.01 h 0.01 l 0.02,-0.01 0.01,-0.01 0.04,-0.02 0.02,-0.01 h 0.01 0.02 l 0.01,-0.01 0.01,-0.01 0.01,-0.01 h 0.02 l 0.01,-0.01 0.02,-0.02 h 0.02 l 0.01,-0.01 0.04,-0.02 0.01,-0.01 0.02,-0.01 0.01,-0.01 0.01,-0.01 0.01,-0.01 v -0.01 l 0.01,-0.01 v -0.01 -0.02 l -0.01,-0.01 v -0.01 l -0.01,-0.01 v -0.01 L 384,111.77 v -0.01 -0.01 -0.02 -0.01 -0.01 -0.01 -0.01 l 0.01,-0.01 0.01,-0.02 0.01,-0.01 0.01,-0.01 0.02,-0.01 0.01,-0.01 0.01,-0.01 h 0.01 l 0.01,-0.01 0.02,-0.01 v 0 h 0.01 0.01 0.01 0.02 l 0.01,-0.01 v -0.01 -0.01 -0.01 l 0.01,-0.01 v -0.01 h 0.01 0.01 0.01 l 0.01,0.01 h 0.01 l 0.01,0.01 h 0.01 l 0.02,0.01 0.01,0.01 0.02,0.01 0.02,0.01 0.01,0.01 0.03,0.02 0.02,0.02 0.02,0.01 0.02,0.01 0.02,0.01 0.02,0.01 0.01,0.01 0.02,0.01 0.02,0.01 0.02,0.01 0.01,0.01 0.02,0.02 0.02,0.02 0.01,0.02 0.02,0.01 0.02,0.01 h 0.02 0.02 l 0.02,0.01 v 0 l 0.02,0.01 h 0.01 l 0.05,0.05 0.01,0.01 0.02,0.01 0.02,0.02 0.03,0.01 0.02,0.01 0.02,0.01 0.02,0.01 0.02,0.01 0.02,0.02 0.02,0.01 0.02,0.02 0.01,0.02 0.03,0.03 0.01,0.02 0.02,0.01 0.01,0.01 0.02,0.02 0.02,0.01 0.01,0.01 0.02,0.01 0.02,0.02 0.01,0.01 0.01,0.02 0.01,0.01 0.02,0.02 0.01,0.02 0.02,0.01 0.01,0.02 0.01,0.01 0.02,0.01 0.01,0.01 0.01,0.01 0.01,0.02 0.02,0.02 0.01,0.02 0.02,0.01 0.01,0.01 0.01,0.01 0.02,0.01 0.01,0.01 0.02,0.03 v 0 l 0.01,0.02 0.01,0.01 0.01,0.01 0.01,0.01 0.01,0.01 0.02,0.02 0.02,0.02 0.01,0.01 0.02,0.02 0.01,0.01 0.01,0.01 0.01,0.01 0.02,0.01 0.01,0.01 h 0.01 l 0.02,0.01 h 0.01 v 0.01 h 0.01 l 0.02,0.01 h 0.01 l 0.01,0.01 v 0 h 0.01 l 0.02,0.01 h 0.01 l 0.02,0.01 h 0.01 l 0.02,0.01 h 0.01 l 0.02,0.01 0.01,0.01 h 0.02 l 0.01,0.01 h 0.02 l 0.01,0.01 0.01,0.01 0.02,0.01 0.01,0.01 0.01,0.01 h 0.01 l 0.01,0.01 0.02,0.01 h 0.01 0.01 l 0.01,0.01 h 0.02 0.01 l 0.02,0.01 0.02,0.01 0.02,0.01 h 0.01 l 0.02,0.01 h 0.02 l 0.02,0.01 0.01,0.01 0.02,0.01 h 0.02 l 0.01,0.01 0.02,0.01 0.03,0.01 0.02,0.02 h 0.02 l 0.03,0.02 0.03,0.02 0.04,0.01 0.02,0.01 h 0.03 0.03 0.03 0.02 l 0.02,0.01 h 0.01 0.02 0.01 0.02 l 0.01,0.01 h 0.01 0.02 0.07 l 0.08,-0.01 h 0.07 l 0.08,-0.01 0.1,0.01 0.07,0.01 0.09,0.02 h 0.09 0.11 0.07 l 0.09,-0.01 0.03,-0.01 0.01,0.06 h 0.01 l 0.01,0.02 0.01,0.04 0.03,0.02 0.04,0.02 0.04,0.01 0.03,0.01 v 0.03 0.04 0.05 l -0.01,0.06 v 0.06 l 0.01,0.08 0.02,0.04 0.03,0.03 0.04,0.02 0.04,0.02 0.02,0.04 0.03,0.04 0.01,0.04 v 0.04 l 0.02,0.04 0.01,0.03 0.03,0.02 v 0.06 0.02 0.01 0.01 l -0.01,0.01 h -0.01 v 0.01 0.01 0.01 l -0.01,0.01 v 0.01 0.01 0.01 0.01 l -0.01,0.02 v 0 0.01 0.01 0.01 l -0.01,0.03 -0.01,0.01 v 0.01 l -0.01,0.01 v 0 0.02 h -0.01 v 0.01 0.02 l -0.01,0.01 v 0.01 0.01 0.01 l -0.01,0.01 v 0.02 0.01 0.03 0.01 0 0.01 l 0.01,0.01 0.01,0.03 0.01,0.01 v 0.01 l 0.01,0.01 v 0.01 l 0.02,0.01 v 0.01 l 0.01,0.01 h 0.01 l 0.01,0.01 v 0.01 l 0.01,0.01 v 0.01 h 0.01 v 0.01 0.01 l 0.01,0.01 v 0.01 0.01 0.01 0.01 0 l -0.01,0.02 v 0.01 l -0.01,0.01 -0.01,0.01 v 0 l -0.01,0.01 v 0.01 0 0.05 0.01 0.01 0.02 l -0.01,0.01 v 0 0.02 0.01 l -0.01,0.02 v 0.01 0.01 0.01 l -0.01,0.02 v 0 0.02 0.01 H 388 l -0.01,0.02 -0.01,0.01 v 0 l -0.01,0.01 -0.01,0.01 -0.01,0.01 -0.02,0.01 -0.01,0.01 -0.02,0.02 -0.01,0.02 h -0.01 l -0.01,0.01 v 0.01 l -0.01,0.01 v 0.01 l -0.01,0.01 -0.01,0.01 -0.01,0.01 -0.01,0.01 -0.01,0.01 h -0.01 l -0.01,0.01 -0.01,0.01 -0.03,0.03 -0.01,0.01 v 0.01 l -0.01,0.01 v 0.01 l -0.01,0.01 v 0.01 0.01 0.01 0.01 l -0.01,0.01 v 0.02 0.01 0.01 0.01 0.02 0.01 0.01 0.01 0.01 l 0.01,0.02 v 0.01 0.01 0.01 0.01 0.01 0.01 0.01 0.02 0.01 0.01 0.01 l 0.01,0.01 v 0.02 0.01 0.01 0.02 0 0.01 0.02 0.01 0 0.02 0.01 0.01 0.01 0.01 0 0.01 0.01 0.02 0.01 0.01 0.02 0.01 0.01 0.02 0.01 0.01 0.02 0.01 0.01 l -0.01,0.02 v 0.01 0.01 0.01 0 0.01 0.01 0.01 0.01 0.02 0.01 0.01 0.01 l -0.01,0.01 v 0.01 0.01 0.01 0.01 l -0.01,0.01 v 0.01 0.01 0.01 0.01 0.01 l -0.01,0.01 v 0.03 0.01 0.01 0.01 l 0.01,0.01 v 0.01 0.01 0.02 0.01 0.01 0.01 l 0.01,0.01 v 0.01 0.02 0.01 0.01 0.01 0.01 l 0.01,0.01 v 0.01 0.02 0.01 0.01 l 0.01,0.04 v 0.01 0.02 0.01 0.01 l 0.01,0.01 v 0.01 l 0.01,0.01 0.01,0.02 v 0.01 0.01 l 0.01,0.01 v 0.01 l 0.01,0.01 v 0.01 l 0.01,0.01 v 0.01 0.01 h 0.01 v 0.01 0.02 h 0.01 v 0.01 l 0.01,0.02 v 0.01 l 0.01,0.01 0.01,0.02 v 0.01 0.01 0.01 0.01 0.01 0.01 0.02 0.02 0.02 0.06 0.03 0.04 0.01 0.01 0.02 0.02 0.02 0.04 0.01 0.02 0.01 0.02 0 0.02 0.01 0.01 0.01 0.01 0.01 l 0.01,0.01 0.01,0.02 v 0.01 0.01 l 0.01,0.01 0.01,0.01 v 0 0.01 l 0.01,0.01 v 0.01 l 0.01,0.01 v 0.01 l 0.01,0.01 v 0 0.02 0 l 0.01,0.01 0.01,0.06 v 0.03 0.03 0.02 0.02 0.01 l 0.03,0.03 0.03,0.02 0.01,0.02 0.04,0.06 0.02,0.02 0.04,0.03 0.04,0.02 0.05,0.03 0.03,0.02 0.03,0.03 0.02,0.02 0.02,0.02 0.02,0.03 0.01,0.01 0.02,0.02 0.01,0.03 0.03,0.05 0.03,0.05 0.02,0.02 0.03,0.02 0.02,0.03 0.02,0.02 0.02,0.04 0.01,0.02 0.02,0.02 0.01,0.02 0.01,0.02 0.01,0.02 0.03,0.03 0.02,0.02 0.01,0.02 0.01,0.01 0.01,0.01 0.02,0.02 0.01,0.02 0.02,0.04 0.01,0.02 0.02,0.02 0.01,0.02 0.02,0.03 0.03,0.02 0.02,0.03 0.02,0.01 0.02,0.02 0.01,0.01 0.02,0.01 0.02,0.01 0.02,0.01 0.02,0.01 0.02,0.01 h 0.02 0.02 l 0.02,0.01 h 0.02 0.04 0.01 l 0.02,0.01 0.02,0.01 0.03,0.01 h 0.01 l 0.02,0.02 0.02,0.01 0.01,0.02 0.02,0.02 0.01,0.02 0.01,0.01 0.01,0.04 0.01,0.02 0.01,0.01 0.01,0.02 v 0.01 l 0.01,0.03 v 0.01 0.02 l 0.01,0.03 v 0.04 l 0.01,0.01 v 0.02 l -0.01,0.02 v 0.01 l 0.01,0.02 0.01,0.02 v 0.03 0.02 0.02 l 0.01,0.01 0.02,0.02 0.02,0.02 0.01,0.01 h 0.01 l 0.01,0.01 0.01,0.01 0.01,0.01 v 0.02 l 0.02,0.02 0.01,0.02 v 0.01 l 0.02,0.02 v 0.01 l 0.01,0.01 0.01,0.02 0.01,0.03 0.01,0.02 0.01,0.02 0.01,0.03 0.01,0.02 0.01,0.03 0.01,0.01 0.01,0.03 0.02,0.03 0.01,0.02 v 0.01 0.01 h 0.01 v 0.02 0.02 0.01 l 0.01,0.03 0.02,0.02 0.03,0.02 0.01,0.01 0.02,0.03 0.01,0.01 0.02,0.02 0.02,0.03 0.01,0.02 0.02,0.01 0.04,0.03 0.01,0.02 0.03,0.01 0.01,0.01 0.02,0.02 0.02,0.01 0.01,0.01 0.02,0.02 0.01,0.01 0.02,0.01 0.02,0.02 0.03,0.01 0.02,0.01 v 0 l 0.02,0.02 v 0.01 l 0.01,0.02 0.01,0.02 0.01,0.03 0.01,0.03 0.01,0.01 0.01,0.02 0.01,0.02 0.01,0.02 0.01,0.01 0.01,0.02 0.02,0.02 0.01,0.01 v 0.02 0.02 0.03 0.03 0.03 0.02 0.02 l -0.01,0.01 -0.01,0.01 -0.02,0.01 -0.02,0.01 -0.01,0.01 -0.02,0.01 -0.04,0.02 -0.01,0.01 -0.01,0.01 h -0.01 l -0.01,0.02 -0.01,0.02 v 0.02 l -0.01,0.04 -0.01,0.02 -0.01,0.05 v 0.01 l -0.01,0.03 -0.01,0.04 v 0.01 l 0.01,0.02 0.01,0.03 0.01,0.01 v 0.01 0.03 0.03 0.02 0.01 l 0.01,0.01 v 0.01 l -0.01,0.02 v 0.02 0.02 l -0.01,0.03 -0.02,0.03 -0.01,0.02 -0.01,0.02 -0.01,0.03 -0.01,0.02 v 0.01 0.01 l -0.01,0.03 0.01,0.03 0.01,0.05 0.01,0.03 0.01,0.01 v 0.05 l 0.01,0.04 0.01,0.03 0.01,0.03 0.03,0.03 0.03,0.04 0.03,0.03 0.02,0.02 0.02,0.02 0.03,0.02 0.03,0.01 0.04,0.03 0.06,0.03 0.03,0.02 0.03,0.01 h 0.01 v 0.08 l 0.02,0.18 -0.05,0.04 -0.08,0.06 -0.08,0.08 -0.02,0.04 -0.01,0.03 -0.01,0.04 -0.01,0.04 -0.01,0.03 v 0 l -0.01,0.02 v 0.01 l -0.01,0.01 v 0.01 0 0.01 0.05 0.02 h 0.01 v 0.02 l 0.01,0.01 0.02,0.03 0.05,0.08 0.04,0.06 0.02,0.03 0.02,0.05 0.02,0.03 v 0.04 0.03 0.03 l -0.01,0.03 -0.01,0.03 -0.02,0.03 -0.02,0.03 -0.01,0.03 -0.01,0.03 -0.01,0.02 -0.01,0.02 0.03,0.01 0.02,0.02 0.02,0.03 0.03,0.05 0.03,0.02 0.03,0.04 0.01,0.03 0.03,0.03 0.02,0.02 0.02,0.02 0.02,0.01 0.04,0.01 0.04,0.01 h 0.03 0.04 0.08 0.04 0.05 0.05 0.06 0.07 l 0.07,-0.01 h 0.04 l 0.04,-0.01 0.04,-0.01 h 0.03 l 0.05,-0.01 h 0.02 l 0.03,0.01 h 0.04 0.04 0.04 0.07 0.03 l 0.02,0.26 h -0.18 l -0.17,0.07 -0.11,0.06 -0.21,0.06 -0.18,0.05 -0.32,0.09 -0.44,0.11 -0.15,-0.36 -0.49,0.45 -0.01,0.19 -0.02,0.24 -0.01,0.24 -0.01,0.15 -0.1,0.09 -0.09,0.09 -0.06,0.06 -0.08,0.07 -0.06,0.06 -0.07,0.07 -0.12,0.11 -0.07,0.06 -0.05,0.05 -0.1,0.1 -0.05,0.05 -0.09,0.1 -0.13,0.14 -0.06,0.08 -0.08,0.08 -0.13,0.14 -0.17,0.19 -0.1,0.12 -0.11,0.11 -0.11,0.12 -0.12,0.15 -0.15,0.16 -0.15,0.16 -0.12,0.14 -0.14,0.15 -0.11,0.13 -0.11,0.12 -0.1,0.06 -0.12,0.05 -0.14,0.08 -0.17,0.09 -0.23,0.12 -0.13,0.04 -0.12,0.05 -0.39,0.06 -0.3,0.02 -0.05,0.02 -0.08,0.03 -0.07,0.03 -0.04,0.01 h -0.06 l -0.16,0.01 -0.18,-0.01 -0.17,-0.02 -0.17,-0.02 -0.19,-0.03 -0.16,-0.04 v 0.02 l 0.01,0.07 0.01,0.07 0.01,0.07 v 0.05 0.02 l 0.01,0.05 0.01,0.02 v 0.01 0.02 0.02 l -0.01,0.02 v 0.02 0.02 0.03 0.02 l -0.01,0.03 v 0.03 l -0.18,0.04 -0.21,0.05 -0.24,0.06 -0.19,0.04 -0.25,0.06 -0.25,0.06 -0.06,0.01 -0.21,0.07 -0.15,-0.06 -0.18,0.1 -0.2,0.1 -0.21,0.11 -0.22,0.13 -0.18,0.1 -0.16,0.09 -0.17,0.08 -0.11,0.06 -0.04,0.04 -0.13,0.11 -0.11,0.09 -0.09,0.08 -0.11,0.09 -0.28,0.1 -0.23,0.09 -0.1,0.03 -0.16,0.06 -0.15,0.06 -0.1,0.04 -0.17,0.03 -0.25,0.05 -0.18,0.03 -0.17,0.03 -0.15,0.03 v 0.02 l -0.01,0.03 -0.01,0.02 v 0.02 0.02 l -0.01,0.02 -0.01,0.03 -0.01,0.02 -0.01,0.03 -0.01,0.03 -0.02,0.05 -0.02,0.07 -0.02,0.02 -0.02,0.04 -0.03,0.05 -0.03,0.03 -0.04,0.03 -0.04,0.02 -0.05,0.02 -0.08,0.01 -0.06,0.01 -0.07,0.01 -0.06,0.01 -0.04,-0.01 -0.05,-0.01 h -0.07 l -0.04,0.01 -0.05,0.03 -0.02,0.04 L 377,132 v 0.04 l 0.02,0.04 0.01,0.03 0.01,0.06 0.01,0.04 v 0.07 l 0.01,0.07 0.01,0.06 0.01,0.07 v 0.06 0.07 l -0.01,0.06 v 0.04 l -0.01,0.03 v 0.03 l -0.02,0.04 -0.03,0.03 -0.03,0.03 -0.04,0.02 -0.04,0.03 -0.04,0.03 -0.05,0.03 -0.03,0.03 -0.05,0.03 -0.04,0.04 -0.04,0.03 -0.05,0.05 -0.03,0.02 -0.02,0.02 -0.05,0.04 -0.04,0.04 -0.06,0.03 -0.04,0.02 -0.04,0.03 -0.03,0.02 -0.03,0.02 -0.01,0.01 -0.04,0.03 -0.02,0.03 -0.01,0.03 -0.02,0.04 -0.01,0.04 v 0.05 l -0.01,0.04 v 0.05 l -0.01,0.04 -0.02,0.06 -0.02,0.04 -0.02,0.05 -0.01,0.05 -0.02,0.06 v 0.07 l -0.01,0.07 -0.01,0.08 -0.01,0.07 -0.03,0.08 -0.02,0.06 -0.02,0.04 -0.02,0.05 -0.03,0.05 -0.02,0.05 -0.03,0.04 -0.02,0.03 -0.03,0.05 -0.03,0.03 -0.04,0.03 -0.04,0.04 -0.03,0.05 -0.03,0.04 -0.04,0.06 -0.01,0.04 -0.02,0.06 -0.01,0.05 -0.01,0.05 -0.01,0.06 v 0.04 0.04 0.07 0.04 0.06 l -0.01,0.06 -0.04,0.02 -0.02,0.02 -0.04,0.01 -0.05,0.03 -0.05,0.02 -0.06,0.03 -0.07,0.02 -0.06,0.02 -0.07,0.03 -0.04,0.03 -0.06,0.03 -0.04,0.01 -0.05,0.01 -0.08,0.01 -0.06,0.01 -0.05,0.02 -0.12,0.03 -0.07,0.02 -0.06,0.02 -0.07,0.02 -0.08,0.02 -0.06,0.01 -0.07,0.02 -0.08,0.02 -0.07,0.02 -0.06,0.01 -0.05,0.02 -0.05,0.01 -0.03,0.01 -0.07,0.01 h -0.03 -0.03 l -0.11,0.04 -0.17,0.03 -0.16,0.05 -0.25,0.42 -0.47,0.48 -0.03,0.04 -0.14,0.12 -0.04,0.05 -0.05,0.06 -0.01,0.05 v 0.08 l 0.02,0.07 0.03,0.07 0.04,0.06 0.05,0.08 0.04,0.08 0.04,0.08 0.06,0.1 0.03,0.08 0.05,0.09 0.03,0.05 -0.01,0.06 -0.02,0.06 -0.02,0.07 -0.05,0.09 -0.05,0.12 -0.15,0.14 -0.61,0.71 -0.35,0.36 -0.03,0.09 0.05,0.3 0.1,0.45 0.05,0.11 0.14,0.42 v 0.06 l 0.01,0.15 0.01,0.06 0.03,0.06 0.05,0.07 0.12,0.19 0.07,0.1 0.05,0.07 0.06,0.16 0.07,0.14 0.04,0.13 0.05,0.09 0.01,0.01 0.12,0.15 -0.02,0.03 -0.01,-0.03 h -0.03 -0.01 l -0.03,0.02 -0.02,0.01 h -0.01 l -0.01,0.01 h -0.02 l -0.02,0.01 h -0.01 l -0.03,0.01 -0.04,0.01 -0.04,0.01 -0.04,0.03 -0.06,0.02 -0.05,0.02 -0.04,0.02 -0.03,0.01 -0.02,0.01 -0.03,0.01 -0.03,0.02 -0.03,0.01 -0.03,0.01 h -0.01 -0.06 -0.04 l -0.05,0.03 -0.02,0.02 -0.1,0.04 -0.04,0.01 h -0.02 -0.04 l -0.02,-0.01 -0.05,-0.01 -0.02,-0.01 -0.02,-0.01 -0.03,-0.02 -0.01,-0.01 -0.03,-0.02 -0.03,-0.03 -0.02,-0.02 -0.02,-0.02 -0.02,-0.01 -0.03,-0.02 -0.04,-0.02 -0.03,-0.02 -0.03,-0.02 -0.04,-0.02 -0.03,-0.02 -0.04,-0.02 -0.04,-0.02 -0.03,-0.01 -0.1,-0.05 -0.05,-0.02 -0.04,-0.03 -0.02,-0.01 -0.03,-0.01 -0.03,-0.02 -0.04,-0.02 -0.02,-0.01 h -0.01 l -0.01,-0.01 -0.02,-0.01 -0.02,-0.01 -0.01,-0.01 -0.02,-0.01 -0.04,-0.01 -0.03,-0.01 -0.03,-0.01 -0.03,-0.01 -0.04,-0.02 -0.04,-0.01 -0.03,-0.01 h -0.04 l -0.03,-0.01 -0.02,-0.01 -0.03,0.01 -0.03,0.01 -0.02,0.01 -0.02,0.01 -0.02,0.01 -0.02,0.01 -0.03,0.01 -0.02,0.01 h -0.04 l -0.01,0.01 -0.02,-0.01 -0.02,-0.01 -0.03,-0.02 -0.02,-0.01 -0.03,-0.03 -0.03,-0.01 -0.02,-0.02 -0.06,-0.03 -0.02,-0.01 h -0.03 -0.02 -0.02 -0.03 -0.01 l -0.01,-0.01 -0.02,-0.01 -0.01,-0.02 v -0.02 -0.01 l -0.01,-0.03 -0.01,-0.03 v -0.03 -0.03 l -0.01,-0.03 v -0.03 l -0.01,-0.02 -0.01,-0.01 -0.01,-0.01 -0.02,-0.01 -0.01,-0.02 V 142.03 142 l -0.01,-0.04 -0.02,-0.03 -0.03,-0.05 -0.04,-0.05 -0.03,-0.04 -0.04,-0.04 -0.04,-0.03 -0.02,-0.03 -0.02,-0.01 -0.04,-0.02 -0.03,-0.02 -0.03,-0.02 -0.04,-0.03 -0.02,-0.01 -0.01,-0.01 -0.05,-0.03 -0.02,-0.01 -0.06,-0.06 -0.02,-0.04 -0.02,-0.03 -0.01,-0.01 v -0.02 l -0.01,-0.05 -0.02,-0.09 -0.01,-0.02 -0.01,-0.01 -0.04,-0.01 h -0.01 l -0.08,-0.01 -0.06,-0.01 -0.07,-0.02 -0.13,-0.04 -0.04,-0.02 -0.01,-0.01 -0.01,-0.01 -0.02,-0.04 v -0.04 -0.02 l 0.01,-0.03 v -0.04 -0.04 -0.03 -0.03 l 0.03,-0.03 0.02,-0.03 v -0.03 -0.07 l 0.01,-0.06 0.02,-0.1 0.01,-0.06 0.03,-0.07 0.01,-0.08 0.01,-0.03 -0.01,-0.04 -0.03,-0.05 -0.05,-0.08 -0.03,-0.08 -0.04,-0.1 -0.03,-0.05 -0.07,-0.14 -0.02,-0.04 -0.02,-0.03 -0.02,-0.02 -0.01,0.01 -0.62,-0.9 -0.28,-0.15 -0.84,-0.44 -0.88,-0.9 -0.28,-0.21 -0.38,-0.17 -0.52,-0.17 -0.31,-0.12 -0.83,-0.09 -0.26,-0.04 -0.29,-0.32 h -0.01 l -0.03,-0.01 -0.03,-0.01 -0.02,-0.01 -0.04,-0.01 -0.03,-0.01 -0.01,-0.01 -0.02,-0.01 -0.01,-0.02 -0.01,-0.02 -0.01,-0.02 -0.02,-0.04 -0.01,-0.04 -0.01,-0.03 -0.03,-0.04 -0.02,-0.03 -0.01,-0.02 -0.03,-0.02 -0.02,-0.02 -0.04,-0.03 -0.01,-0.02 -0.02,-0.04 -0.02,-0.03 -0.02,-0.02 h -0.01 -0.03 -0.04 -0.03 -0.04 -0.05 -0.02 l -0.02,-0.01 -0.02,-0.02 -0.01,-0.02 -0.02,-0.03 -0.02,-0.03 -0.01,-0.01 -0.01,-0.01 -0.02,-0.03 -0.01,-0.02 -0.02,-0.03 -0.04,-0.03 -0.02,-0.04 -0.06,-0.06 -0.04,-0.07 h -0.03 l -0.06,-0.01 -0.06,-0.01 -0.06,-0.02 -0.08,-0.01 -0.04,-0.01 -0.05,0.01 H 361.04 361 l -0.02,-0.01 -0.04,-0.01 -0.04,-0.02 -0.05,-0.02 -0.03,-0.03 -0.02,-0.02 -0.03,-0.01 -0.04,-0.02 -0.02,-0.01 -0.03,-0.01 -0.04,-0.01 -0.03,-0.06 -0.02,-0.05 v -0.04 -0.03 -0.03 l 0.01,-0.04 v -0.03 -0.05 l -0.01,-0.03 -0.01,-0.02 -0.02,-0.02 -0.02,-0.02 -0.02,-0.02 -0.04,-0.02 -0.04,-0.03 -0.03,-0.04 -0.02,-0.03 -0.02,-0.04 -0.01,-0.03 -0.01,-0.04 -0.01,-0.03 -0.01,-0.02 -0.03,-0.05 -0.02,-0.04 -0.01,-0.03 -0.01,-0.04 v -0.03 l -0.01,-0.01 -0.01,-0.03 -0.01,-0.04 -0.02,-0.04 -0.01,-0.02 -0.01,-0.02 -0.02,-0.01 -0.02,-0.02 -0.02,-0.02 -0.05,-0.06 -0.02,-0.03 -0.01,-0.02 -0.01,-0.04 -0.02,-0.05 -0.02,-0.02 -0.01,-0.02 h -0.01 l -0.02,-0.01 -0.02,-0.02 -0.03,-0.01 -0.02,-0.01 h -0.03 -0.02 -0.06 l -0.03,-0.01 -0.02,-0.01 -0.03,-0.01 -0.04,-0.02 -0.01,-0.02 -0.02,-0.02 -0.01,-0.03 -0.01,-0.03 v -0.06 -0.06 l -0.01,-0.02 v -0.01 l -0.01,-0.02 -0.01,-0.02 v -0.02 -0.08 -0.03 l -0.02,-0.08 v -0.04 -0.04 l -0.01,-0.05 v -0.04 l -0.01,-0.03 -0.02,-0.04 -0.01,-0.03 -0.01,-0.02 -0.01,-0.02 -0.01,-0.02 -0.02,-0.01 -0.02,-0.02 -0.01,-0.01 -0.02,-0.01 -0.03,-0.01 -0.02,-0.01 -0.02,-0.01 -0.03,-0.03 -0.02,-0.03 -0.03,-0.04 -0.03,-0.03 -0.02,-0.02 -0.03,-0.02 -0.01,-0.02 -0.01,-0.02 -0.01,-0.02 -0.01,-0.01 -0.01,-0.02 -0.03,-0.02 -0.03,-0.03 -0.03,-0.02 -0.02,-0.02 -0.04,-0.02 -0.08,-0.04 -0.06,-0.03 -0.05,-0.02 -0.01,-0.01 -0.02,-0.02 -0.01,-0.04 -0.02,-0.03 -0.01,-0.04 -0.01,-0.03 -0.02,-0.03 -0.02,-0.02 -0.02,-0.02 -0.02,-0.02 -0.05,-0.03 -0.03,-0.02 -0.02,-0.01 -0.03,-0.01 -0.03,-0.01 -0.04,-0.01 -0.07,-0.01 -0.05,-0.02 -0.04,-0.01 -0.03,-0.01 -0.02,-0.02 -0.03,-0.02 -0.02,-0.01 -0.01,-0.03 -0.02,-0.02 -0.01,-0.04 -0.02,-0.04 -0.01,-0.03 -0.02,-0.03 -0.01,-0.01 -0.04,-0.02 -0.04,-0.01 -0.05,-0.02 -0.03,-0.01 -0.03,-0.01 h -0.03 l -0.04,-0.01 -0.03,-0.01 -0.02,-0.02 -0.02,-0.02 -0.02,-0.03 -0.02,-0.03 -0.02,-0.04 v -0.01 l -0.03,-0.07 -0.01,-0.07 -0.01,-0.05 v -0.05 -0.05 l 0.01,-0.04 -0.01,-0.07 -0.01,-0.02 -0.01,-0.04 -0.02,-0.04 -0.02,-0.01 -0.01,-0.01 -0.02,-0.01 -0.03,-0.01 -0.04,-0.01 -0.02,-0.01 -0.02,-0.02 -0.02,-0.02 -0.02,-0.04 -0.04,-0.1 -0.05,-0.12 -0.03,-0.08 -0.04,-0.11 -0.01,-0.08 -0.01,-0.03 -0.01,-0.09 v -0.03 l 0.01,-0.05 0.01,-0.02 v -0.02 l 0.01,-0.04 0.01,-0.03 0.01,-0.06 0.01,-0.03 0.02,-0.05 0.03,-0.07 0.01,-0.05 v -0.05 -0.05 l -0.01,-0.06 -0.01,-0.05 -0.01,-0.04 -0.02,-0.05 -0.02,-0.04 -0.03,-0.05 -0.02,-0.03 v -0.02 l -0.01,-0.04 v -0.03 -0.04 -0.05 l 0.01,-0.04 0.01,-0.04 0.01,-0.03 v -0.01 l 0.01,-0.04 0.02,-0.03 v -0.03 -0.04 -0.04 l -0.01,-0.03 -0.02,-0.04 -0.02,-0.02 -0.05,-0.05 -0.05,-0.03 -0.02,-0.01 -0.03,-0.01 -0.02,-0.01 h -0.04 -0.12 l -0.04,-0.01 -0.03,-0.03 -0.01,-0.03 -0.01,-0.02 v -0.03 -0.04 -0.03 l -0.01,-0.04 v -0.04 l -0.01,-0.05 -0.02,-0.04 -0.02,-0.04 -0.01,-0.05 -0.05,-0.07 -0.06,-0.1 -0.05,-0.08 -0.02,-0.04 -0.01,-0.04 v -0.04 -0.01 l 0.01,-0.03 v -0.03 l 0.02,-0.04 0.01,-0.03 0.01,-0.05 0.02,-0.06 0.01,-0.05 v -0.04 -0.03 l -0.01,-0.03 v -0.05 l -0.02,-0.04 -0.02,-0.04 -0.02,-0.04 -0.03,-0.03 -0.04,-0.04 -0.03,-0.04 -0.03,-0.06 -0.03,-0.05 -0.02,-0.05 v -0.04 -0.06 -0.01 -0.04 -0.03 l 0.03,-0.05 0.01,-0.03 0.01,-0.04 v -0.06 l -0.01,-0.04 v -0.04 l -0.01,-0.03 -0.02,-0.03 -0.02,-0.03 -0.02,-0.03 -0.02,-0.01 -0.03,-0.02 -0.02,-0.02 -0.04,-0.02 -0.03,-0.01 -0.04,-0.02 -0.04,-0.01 -0.06,-0.02 -0.05,-0.01 -0.04,-0.02 -0.05,-0.01 -0.03,-0.02 -0.03,-0.02 -0.01,-0.02 -0.02,-0.01 -0.03,-0.04 -0.04,-0.06 -0.02,-0.06 -0.02,-0.06 -0.02,-0.04 v -0.04 -0.04 -0.05 -0.06 l 0.01,-0.06 0.01,-0.05 v -0.02 l -0.01,-0.01 -0.02,-0.03 -0.01,-0.03 -0.02,-0.03 -0.02,-0.02 -0.01,-0.01 -0.02,-0.01 -0.03,-0.02 h -0.01 l -0.07,-0.03 -0.04,-0.02 -0.03,-0.01 -0.02,-0.01 -0.04,-0.01 -0.03,-0.02 -0.02,-0.03 -0.01,-0.03 -0.02,-0.03 -0.01,-0.04 -0.01,-0.04 -0.01,-0.06 -0.01,-0.03 -0.02,-0.04 -0.01,-0.03 -0.01,-0.04 -0.01,-0.03 v -0.02 l -0.01,-0.02 -0.01,-0.03 -0.01,-0.02 -0.01,-0.04 -0.01,-0.03 -0.02,-0.03 -0.01,-0.03 -0.02,-0.02 -0.03,-0.01 -0.03,0.01 -0.03,0.01 h -0.03 l -0.03,-0.01 h -0.04 l -0.03,-0.01 h -0.05 -0.06 l -0.04,-0.01 -0.03,-0.01 -0.02,-0.01 -0.01,-0.02 -0.01,-0.02 v -0.03 -0.01 l 0.01,-0.02 0.01,-0.01 0.01,-0.01 v -0.02 l 0.01,-0.01 v -0.03 l 0.01,-0.03 0.01,-0.05 0.01,-0.04 0.01,-0.04 0.01,-0.04 v -0.04 -0.03 l -0.01,-0.03 -0.01,-0.02 -0.02,-0.02 -0.02,-0.02 -0.01,-0.02 -0.02,-0.02 -0.03,-0.02 -0.02,-0.03 -0.03,-0.02 h -0.03 l -0.02,-0.03 -0.02,-0.04 -0.01,-0.03 v -0.03 -0.04 -0.03 -0.03 -0.04 -0.03 l 0.01,-0.04 v -0.02 -0.02 -0.02 l -0.01,-0.03 v -0.01 l 0.01,-0.02 v -0.01 l 0.01,-0.03 0.01,-0.03 0.02,-0.04 0.01,-0.05 v -0.01 l 0.01,-0.05 v -0.02 -0.02 l -0.01,-0.02 -0.01,-0.01 -0.02,-0.02 -0.01,-0.02 -0.01,-0.01 -0.02,-0.01 -0.02,-0.03 -0.02,-0.02 -0.01,-0.03 -0.02,-0.02 v -0.03 -0.03 -0.02 l 0.02,-0.05 0.01,-0.04 0.01,-0.03 0.01,-0.02 v -0.05 l 0.01,-0.03 -0.01,-0.04 v -0.04 l -0.01,-0.05 -0.01,-0.03 -0.02,-0.04 -0.01,-0.04 -0.02,-0.03 -0.01,-0.03 -0.03,-0.04 -0.02,-0.04 -0.03,-0.03 -0.02,-0.02 -0.03,-0.02 -0.01,-0.01 -0.04,-0.03 -0.05,-0.02 -0.05,-0.03 -0.03,-0.01 -0.04,-0.02 -0.04,-0.01 -0.05,-0.01 h -0.02 -0.03 l -0.04,0.01 -0.01,-0.03 0.01,-0.05 0.02,-0.03 0.05,-0.05 0.01,-0.08 0.02,-0.07 0.01,-0.06 0.02,-0.05 v -0.04 l 0.01,-0.02 0.01,-0.03 0.02,-0.05 0.02,-0.02 0.04,-0.06 0.01,-0.02 0.03,-0.04 0.02,-0.02 0.02,-0.03 0.01,-0.02 0.01,-0.02 0.02,-0.03 0.01,-0.03 0.01,-0.01 0.01,-0.02 0.01,-0.01 0.03,-0.04 v -0.01 l 0.01,-0.02 0.03,-0.04 0.02,-0.02 V 121 l 0.02,-0.03 0.02,-0.04 0.01,-0.03 v -0.02 l 0.01,-0.03 v -0.02 -0.02 l 0.01,-0.02 v -0.01 l 0.01,-0.04 0.01,-0.05 0.01,-0.03 0.02,-0.04 0.01,-0.04 v -0.03 l -0.01,-0.03 v -0.01 l 0.01,-0.04 v -0.06 l 0.01,-0.03 0.03,-0.05 0.02,-0.03 0.02,-0.04 0.01,-0.03 0.03,-0.02 0.03,-0.04 0.03,-0.03 0.02,-0.04 0.02,-0.04 0.02,-0.02 0.01,-0.02 0.03,-0.04 0.01,-0.01 0.02,-0.02 0.01,-0.01 0.02,-0.02 0.01,-0.03 0.03,-0.04 0.02,-0.03 0.02,-0.04 0.01,-0.03 0.03,-0.06 0.01,-0.02 0.05,-0.08 v -0.01 l 0.07,-0.09 0.03,-0.04 0.04,-0.05 0.03,-0.03 0.03,-0.02 0.02,-0.02 0.02,-0.03 0.03,-0.03 0.02,-0.02 0.03,-0.01 0.01,-0.01 -0.5,-0.43 -1.96,-1.62 1.64,-1.85 0.4,-0.39 0.32,-0.87 0.21,-0.51 0.55,0.26 0.61,-0.68 0.15,0.13 0.94,-1.36 0.62,-0.36 0.81,-0.58 0.93,0.51 -0.13,1.01 0.09,0.01 0.05,0.01 0.05,0.01 0.04,0.01 0.05,0.01 h 0.06 l 0.04,0.01 0.05,0.01 h 0.07 l 0.05,0.01 h 0.03 l 0.05,0.02 0.06,0.03 0.05,0.03 0.03,0.02 0.02,0.01 0.02,0.01 h 0.03 0.02 0.13 0.11 l 0.13,-0.01 h 0.04 l 0.02,-0.02 -0.02,0.3 0.03,-0.01 0.02,-0.01 0.02,-0.01 0.03,-0.02 0.03,-0.03 0.03,-0.02 0.03,-0.04 0.02,-0.04 0.02,-0.03 0.02,-0.06 v -0.04 -0.04 -0.03 -0.01 l -0.01,-0.03 v -0.04 -0.01 l -0.01,-0.08 0.01,-0.03 0.01,-0.03 0.01,-0.02 0.03,-0.02 0.05,-0.03 0.04,-0.01 0.04,-0.01 h 0.04 0.05 l 0.04,0.01 0.02,0.01 0.01,0.01 0.02,0.01 h 0.02 l 0.05,0.02 h 0.02 0.03 l 0.04,-0.01 0.05,-0.01 0.03,-0.01 0.03,-0.01 0.03,-0.02 0.02,-0.01 0.01,-0.01 0.02,-0.02 0.02,0.01 h 0.01 l 0.03,0.02 h 0.03 l 0.04,0.01 h 0.03 l 0.03,0.01 0.04,-0.01 h 0.02 l 0.02,-0.01 0.01,0.01 0.02,0.01 0.04,0.08 0.01,0.01 0.01,0.03 0.03,0.05 0.02,0.03 0.03,0.03 0.03,0.03 0.02,0.02 0.03,0.06 0.02,0.05 0.02,0.06 0.02,0.05 v 0.03 0.03 0.05 l -0.01,0.04 -0.02,0.03 -0.02,0.05 -0.01,0.02 -0.01,0.03 v 0.04 l 0.01,0.03 0.02,0.06 0.02,0.04 0.01,0.06 0.03,0.02 0.04,0.06 0.03,0.05 0.02,0.03 0.03,0.04 0.03,0.04 0.02,0.03 0.01,0.02 0.02,0.04 0.01,0.04 0.01,0.04 -0.01,0.04 v 0.03 l -0.02,0.02 -0.01,0.02 -0.03,0.04 -0.01,0.03 v 0.02 l 0.01,0.05 -0.01,0.06 0.01,0.06 -0.01,0.03 -0.01,0.03 v 0.04 l -0.01,0.05 v 0.04 0.03 0.04 0.04 0.02 0.02 l 0.01,0.01 0.01,0.04 0.03,0.04 0.02,0.03 0.01,0.03 0.01,0.02 0.01,0.02 0.01,0.03 v 0.03 l -0.02,0.04 -0.02,0.04 -0.01,0.03 -0.01,0.03 -0.01,0.04 v 0.03 0.04 l 0.01,0.05 0.01,0.04 0.01,0.05 0.01,0.07 0.02,0.04 0.01,0.04 0.01,0.05 0.02,0.03 v 0.03 l 0.02,0.03 0.01,0.04 0.01,0.04 0.01,0.04 0.01,0.09 0.01,0.06 0.03,0.05 0.01,0.05 0.02,0.06 0.01,0.05 0.02,0.05 0.04,0.07 0.04,0.05 0.04,0.05 0.08,0.07 0.09,0.15 0.03,0.05 0.02,0.07 0.02,0.08 v 0.06 l -0.01,0.03 v 0.03 l -0.01,0.04 -0.03,0.06 -0.02,0.03 -0.01,0.03 -0.02,0.06 -0.03,0.08 -0.02,0.04 -0.03,0.06 -0.03,0.06 -0.04,0.04 -0.02,0.02 v 0.01 l -0.02,0.02 -0.02,0.02 -0.04,0.04 -0.01,0.01 -0.01,0.02 -0.01,0.02 -0.01,0.02 -0.01,0.02 -0.01,0.01 -0.01,0.02 v 0.02 l -0.03,0.04 -0.01,0.02 -0.02,0.01 -0.02,0.02 -0.02,0.02 -0.03,0.02 v 0 l -0.01,0.01 -0.01,0.01 v 0.01 l -0.01,0.01 v 0.01 l -0.01,0.01 v 0.04 l -0.01,0.05 -0.01,0.04 -0.02,0.08 -0.01,0.02 v 0.01 l -0.01,0.02 -0.01,0.04 -0.03,0.04 -0.02,0.02 h -0.01 v 0.01 l -0.01,0.01 v 0 l -0.01,0.02 -0.01,0.02 v 0.01 l -0.01,0.01 -0.01,0.02 v 0.01 0.01 0.02 0.02 l -0.01,0.01 v 0.01 0.02 l -0.01,0.01 -0.02,0.03 -0.04,0.04 -0.01,0.02 -0.03,0.06 v 0.02 l -0.01,0.02 v 0.01 0.01 0.01 l 0.01,0.01 0.01,0.01 0.01,0.01 0.01,0.02 0.01,0.02 0.02,0.02 0.03,0.05 0.01,0.01 v 0.01 0.01 0.01 0 0.02 0.01 l -0.01,0.02 -0.02,0.02 -0.03,0.02 -0.01,0.01 -0.01,0.01 -0.01,0.01 v 0.01 l -0.01,0.01 v 0.01 0.01 0.01 0.01 0.04 0.04 0.03 0.04 l -0.01,0.01 v 0.01 0.01 0.01 l -0.01,0.01 -0.04,0.03 -0.02,0.01 -0.02,0.02 -0.05,0.03 -0.01,0.01 -0.01,0.01 -0.01,0.02 -0.01,0.01 -0.01,0.02 -0.01,0.01 -0.01,0.02 -0.01,0.01 -0.01,0.02 v 0.01 l -0.01,0.04 -0.01,0.03 -0.01,0.02 -0.05,0.04 -0.01,0.01 -0.03,0.03 -0.01,0.04 -0.01,0.03 -0.01,0.02 -0.01,0.03 -0.03,0.04 -0.03,0.05 -0.01,0.01 -0.01,0.01 v 0 l -0.01,0.01 v 0 l -0.06,0.04 -0.03,0.02 -0.02,0.02 h -0.01 l -0.01,0.01 -0.04,0.14 v 0.03 0.07 l -0.02,0.1 -0.01,0.03 v 0.03 l -0.01,0.03 -0.02,0.08 -0.01,0.02 v 0.03 l -0.01,0.02 v 0.01 l -0.01,0.01 v 0.01 l -0.01,0.01 -0.01,0.02 -0.04,0.07 v 0.02 l -0.02,0.1 -0.03,0.05 -0.05,0.07 -0.01,0.04 -0.01,0.02 -0.03,0.09 -0.02,0.03 -0.01,0.07 -0.01,0.04 -0.01,0.01 -0.01,0.03 1.04,1.19 -0.05,0.04 h -0.02 l -0.03,0.02 -0.04,0.02 -0.03,0.01 h -0.05 l -0.01,0.01 h -0.03 l -0.01,0.01 -0.01,0.01 -0.02,0.01 -0.02,0.02 -0.02,0.01 -0.07,0.06 -0.02,0.02 -0.02,0.02 -0.04,0.03 -0.02,0.02 -0.02,0.02 -0.02,0.02 -0.02,0.01 -0.02,0.02 -0.06,0.04 -0.02,0.02 -0.05,0.03 -0.01,0.02 -0.04,0.02 -0.04,0.03 -0.02,0.02 -0.02,0.03 -0.03,0.02 -0.01,0.01 -0.02,0.01 v 0 l -0.01,0.01 h -0.01 -0.01 v 0 l -0.01,0.01 -0.04,0.02 h -0.02 l -0.03,0.01 h -0.05 -0.02 l -0.02,0.01 -0.06,0.02 -0.06,0.02 v 0.01 h -0.01 l -0.01,0.01 h -0.02 l -0.02,0.01 -0.02,0.01 -0.09,0.03 -0.03,0.02 -0.02,0.01 -0.02,0.01 -0.02,0.01 -0.03,0.02 -0.03,0.02 h -0.02 l -0.01,0.01 h -0.01 l -0.02,0.01 h -0.01 -0.01 -0.02 l -0.01,0.01 -0.03,0.01 -0.06,0.05 -0.01,0.01 -0.05,0.02 -0.02,0.02 -0.4,0.15 0.03,0.29 1.33,0.19 0.83,-0.22 0.94,-0.16 0.09,-0.14 0.5,-1.03 0.4,-0.78 1.62,-2.37 0.32,-0.33 0.02,-0.02 0.03,-0.04 0.01,-0.01 0.01,-0.02 h 0.01 l 0.03,-0.03 0.03,-0.04 0.03,-0.04 0.02,-0.04 0.01,-0.01 0.01,-0.01 0.01,-0.01 0.01,-0.01 0.01,-0.02 0.01,-0.02 0.02,-0.01 0.01,-0.02 0.02,-0.01 0.01,-0.01 0.01,-0.01 0.01,-0.02 0.01,-0.01 v 0 l 0.01,-0.01 0.02,-0.01 h 0.01 l 0.03,-0.01 h 0.01 0.01 l 0.02,-0.01 0.02,-0.01 h 0.01 l 0.01,-0.01 0.01,-0.01 0.02,-0.01 0.01,-0.02 0.01,-0.01 0.02,-0.01 0.1,-0.11 0.04,-0.02 0.03,-0.01 0.03,-0.01 0.04,-0.02 0.03,-0.02 h 0.01 0.03 0.02 0.02 0.03 0.02 0.01 l 0.08,-0.03 h 0.02 l 0.05,-0.03 0.02,-0.01 0.02,-0.02 0.03,-0.02 0.02,-0.03 0.01,-0.01 0.01,-0.02 0.01,-0.09 0.01,-0.01 0.01,-0.01 v -0.01 l 0.01,-0.01 0.03,-0.03 0.06,-0.04 0.01,-0.01 v -0.01 l 0.01,-0.01 0.03,-0.05 0.01,-0.01 v 0 l 0.01,-0.01 0.01,-0.01 0.02,-0.01 0.02,-0.01 h 0.01 l 0.02,-0.01 h 0.02 0.02 l 0.09,0.01 h 0.01 0.02 0.01 0.01 l 0.02,-0.01 h 0.01 l 0.02,-0.01 0.01,-0.01 0.08,-0.03 0.03,-0.03 0.04,-0.03 0.05,-0.04 0.03,-0.03 0.01,-0.01 0.01,-0.01 0.01,-0.02 0.01,-0.01 0.02,-0.04 0.02,-0.04 h 0.01 l 0.01,-0.01 v -0.01 l 0.01,-0.01 0.01,-0.01 h 0.01 l 0.01,-0.01 0.04,-0.02 h 0.02 l 0.02,-0.01 0.03,-0.01 0.02,-0.01 0.04,-0.02 0.02,-0.01 0.01,-0.02 0.01,-0.01 0.02,-0.03 v -0.01 -0.01 0 -0.01 l -0.01,-0.01 -0.01,-0.01 v -0.01 l -0.01,-0.01 -0.01,-0.01 h -0.02 l -0.01,-0.01 -0.01,-0.01 -0.01,-0.01 h -0.01 v -0.01 l -0.01,-0.01 v 0 -0.03 -0.03 -0.08 l 0.01,-0.03 0.01,-0.01 0.01,-0.04 0.01,-0.04 0.02,-0.04 0.01,-0.03 0.01,-0.02 v -0.04 -0.03 l -0.01,-0.02 v -0.01 l 2.29,-0.35 0.26,-0.06 0.72,0.3 2.1,-6.95 -0.93,-0.52 0.08,-0.15 0.29,-0.31 -0.05,-0.79 -0.18,-0.58 0.04,-1.6 0.66,-0.53 -0.09,-0.18 z m 9.4,22.85 0.49,-0.49 0.21,0.01 0.19,0.02 0.11,-0.02 -0.11,-0.11 -0.13,-0.13 -0.14,-0.16 -0.11,-0.22 0.01,-0.17 0.06,-0.27 0.07,-0.15 -0.04,-0.04 -0.11,0.06 -0.11,0.12 -0.09,0.15 -0.07,0.12 v 0.2 l -0.55,-0.05 -0.02,0.1 0.09,0.15 0.11,0.08 0.16,0.18 0.07,0.11 -0.22,0.37 z m -0.92,-0.93 0.16,-0.02 0.09,-0.09 0.02,-0.07 0.05,-0.07 -0.01,-0.14 0.01,-0.15 0.23,-0.13 0.04,-0.09 -0.05,-0.21 -0.15,-0.24 -0.05,-0.1 h -0.1 l -0.01,-0.13 0.04,-0.24 0.13,-0.21 0.16,-0.31 0.03,-0.1 -0.2,-0.08 -0.12,0.05 -0.08,-0.06 -0.15,-0.05 -0.12,-0.08 -0.09,-0.04 -0.17,-0.04 -0.15,-0.14 -0.06,-0.09 -0.12,-0.1 -0.14,-0.08 -0.09,0.12 -0.03,0.07 0.01,0.14 -0.03,0.18 v 0.14 l 0.25,0.2 0.06,0.09 -0.04,0.15 -0.08,0.14 0.02,0.24 0.08,0.25 0.07,0.18 0.14,0.13 0.26,0.21 0.24,0.06 0.07,0.08 -0.01,0.09 -0.15,0.12 -0.18,0.03 -0.08,0.02 -0.12,0.03 -0.12,0.06 -0.07,0.1 0.03,0.09 0.29,0.06 0.17,0.03 z m -23.44,-12.25 0.27,-0.1 0.06,0.03 0.34,-0.07 0.15,0.05 0.25,0.01 0.36,-0.1 0.57,-0.32 h -0.04 -0.03 l -0.08,0.02 -0.04,0.01 h -0.01 -0.03 l -0.02,0.01 -0.25,-0.45 -0.1,-0.02 -0.57,0.2 -0.27,-0.22 -0.14,-0.11 0.08,-0.11 h -0.02 -0.04 l -0.04,-0.01 h -0.05 -0.04 -0.04 l -0.07,0.01 -0.07,0.02 -0.14,0.03 -0.04,0.01 -0.06,0.01 -0.03,0.01 -0.07,0.02 -0.05,0.01 h -0.03 l -0.05,0.02 -0.07,0.02 -0.05,0.01 -0.03,0.01 -0.03,0.01 -0.05,0.02 -0.02,0.02 -0.05,0.03 -0.2,0.51 z m -2.22,4.56 1.62,-0.08 -0.44,-1.72 -0.68,-1.49 -0.25,0.03 -1.23,1.08 z"
       fill-rule="evenodd"
       id="path65" />
  </g>
</svg>
