<?xml version="1.0" encoding="UTF-8" standalone="no"?>
<svg
   version="1.2"
   width="800"
   height="642"
   viewBox="0 0 800 642"
   stroke-linecap="round"
   stroke-linejoin="round"
   id="svg77"
   sodipodi:docname="Aiara.svg"
   inkscape:version="1.1.2 (b8e25be833, 2022-02-05)"
   xmlns:inkscape="http://www.inkscape.org/namespaces/inkscape"
   xmlns:sodipodi="http://sodipodi.sourceforge.net/DTD/sodipodi-0.dtd"
   xmlns="http://www.w3.org/2000/svg"
   xmlns:svg="http://www.w3.org/2000/svg">
  <defs
     id="defs81" />
  <sodipodi:namedview
     id="namedview79"
     pagecolor="#ffffff"
     bordercolor="#666666"
     borderopacity="1.0"
     inkscape:pageshadow="2"
     inkscape:pageopacity="0.0"
     inkscape:pagecheckerboard="0"
     showgrid="false"
     inkscape:zoom="1.3146417"
     inkscape:cx="399.72867"
     inkscape:cy="258.62559"
     inkscape:window-width="1848"
     inkscape:window-height="1043"
     inkscape:window-x="72"
     inkscape:window-y="0"
     inkscape:window-maximized="1"
     inkscape:current-layer="svg77" />
  <g
     id="Aiara"
     transform="matrix(10.295784,0,0,10.295784,-733.3444,-1636.9594)">
    <path
       d="m 98.32,163.6 0.05,-0.27 0.89,-0.59 0.35,-0.23 1.44,-0.96 0.33,-0.27 1.22,-0.5 0.37,0.09 1.24,0.04 0.12,0.08 1.03,0.74 0.73,0.42 1.95,0.43 0.01,-0.02 0.11,0.03 0.41,0.14 0.56,0.1 0.44,0.15 0.3,0.1 0.14,0.29 -0.05,0.4 -0.14,0.42 -0.1,0.43 -0.1,0.35 -0.08,0.33 0.04,0.24 0.12,0.16 0.24,0.1 0.19,0.15 0.09,0.19 0.12,0.14 0.28,0.07 0.43,0.01 0.32,-0.03 0.34,0.1 0.38,0.27 0.43,0.19 0.45,0.24 0.36,0.16 0.44,0.02 0.51,0.04 0.66,-0.03 0.53,0.03 0.46,0.02 0.79,-0.29 0.65,-0.27 0.58,-0.2 0.5,-0.1 0.55,-0.01 0.64,0.1 0.62,-0.84 0.25,0.39 0.2,0.32 0.2,0.33 0.25,0.22 0.52,0.28 0.38,0.06 0.53,0.12 -0.09,0.3 -0.02,0.45 0.22,0.4 0.32,0.4 0.37,0.32 0.39,0.42 0.1,0.52 0.12,0.59 -0.02,0.55 0.05,0.56 0.12,0.58 0.27,0.54 0.4,0.45 0.3,0.11 0.24,-0.1 0.38,-0.17 h 0.29 l 0.22,0.27 0.17,0.42 0.38,0.68 0.4,0.46 0.48,0.29 0.68,0.32 0.53,0.45 0.64,0.32 0.66,0.43 0.51,0.44 0.42,0.26 0.33,0.38 0.3,0.43 0.36,0.5 0.46,0.38 0.49,0.22 0.52,0.12 0.52,0.14 0.4,0.17 0.41,0.27 0.53,0.23 0.53,0.22 0.3,0.14 0.19,0.08 0.04,0.02 0.04,0.07 0.1,0.08 0.01,0.06 0.08,0.27 0.02,0.09 0.09,0.31 0.03,0.05 0.21,0.51 0.01,0.02 -0.28,0.08 -0.34,0.08 -0.42,0.14 -0.48,0.18 -0.4,0.21 -0.4,0.18 -0.58,0.31 -0.55,0.29 -0.33,0.15 -0.45,0.27 -0.47,0.35 -0.44,0.42 -0.38,0.23 -0.34,0.25 -0.3,0.27 -0.3,0.23 -0.28,0.26 -0.29,0.34 -0.2,0.3 -0.18,0.32 -0.35,0.3 -0.25,-0.07 -0.23,-0.49 -0.13,-0.23 -0.06,-0.24 -0.01,-0.06 -0.06,0.09 -0.04,0.07 -0.02,0.03 -0.02,0.02 -0.02,0.04 0.06,0.11 0.01,0.2 0.16,3.12 0.06,1.19 0.36,1.7 -2.22,1.73 -0.3,0.23 -0.14,0.16 -0.81,0.92 -0.02,0.06 -0.42,1.31 -0.49,0.72 -0.03,0.04 -0.51,0.74 0.56,2.7 0.88,1.63 0.13,0.24 -0.83,0.32 -0.29,0.47 -0.46,0.76 -0.8,0.1 -1.97,0.42 -0.09,-2.35 -0.22,-2.33 -4,1.54 -0.05,-0.28 -0.33,-0.57 -0.03,-0.07 -0.04,-0.06 -0.07,-0.04 -0.42,0.12 -0.55,0.36 -0.07,-0.05 -0.69,-0.34 -0.16,0.33 -0.19,0.3 -0.35,0.41 -0.29,0.28 -0.18,0.15 -0.32,0.29 -0.28,0.46 -0.58,0.83 -0.23,0.24 -0.25,0.41 -0.39,0.18 -0.17,0.05 -0.01,0.02 -0.01,0.02 v 0.08 l -0.02,0.06 v 0.03 l -0.01,0.02 -0.01,0.04 -0.01,0.02 -0.01,0.02 -0.02,0.05 -0.01,0.02 -0.03,0.04 -0.03,0.07 -0.01,0.01 -0.01,0.03 -0.01,0.04 -0.02,0.07 -0.01,0.05 -0.01,0.02 v 0.05 l -0.01,0.07 v 0.02 0.02 0.02 l -0.01,0.02 -0.01,0.02 -0.04,0.09 -0.09,0.13 -0.01,0.02 -0.01,0.02 -0.01,0.04 -0.03,0.12 -0.02,0.08 v 0.03 l -0.02,0.05 v 0.04 l -0.01,0.02 -0.01,0.1 v 0.02 0.02 0.03 0.02 l 0.03,0.1 0.01,0.06 0.02,0.12 v 0.05 0.05 0.02 l 0.01,0.02 v 0.02 l 0.01,0.02 0.03,0.06 0.01,0.02 0.03,0.07 0.01,0.03 0.01,0.01 0.02,0.05 0.02,0.04 0.01,0.03 0.01,0.01 0.01,0.02 0.02,0.07 0.01,0.03 0.01,0.03 0.01,0.04 0.02,0.09 0.03,0.1 v 0.02 l 0.01,0.05 v 0.05 0.05 l -0.01,0.1 v 0.01 0.04 0.04 0.08 0.04 0.11 0.05 0.02 l 0.01,0.1 v 0.1 0.08 0.07 0.02 0.03 0.05 l -0.01,0.04 -0.01,0.05 v 0.02 l -0.01,0.03 v 0.02 l -0.01,0.03 -0.07,0.21 -0.02,0.07 -0.01,0.02 -0.01,0.02 -0.01,0.02 -0.03,0.05 -0.02,0.07 -0.08,0.14 -0.01,0.03 -0.01,0.02 -0.01,0.02 -0.02,0.04 -0.05,0.05 -0.02,0.02 -0.05,0.04 -0.1,0.08 -0.11,0.09 -0.02,0.02 -0.04,0.02 -0.04,0.03 -0.02,0.01 -0.07,0.04 -0.02,0.01 -0.09,0.04 -0.06,0.03 -0.04,0.02 -0.05,0.02 -0.04,0.01 -0.09,0.03 -0.02,0.01 -0.06,0.03 -0.07,0.05 -0.05,0.02 -0.08,0.05 -0.04,0.03 -0.08,0.05 -0.06,0.04 -0.06,0.04 -0.02,0.01 -0.04,0.02 -0.03,0.03 -0.14,0.08 -0.34,0.18 -0.12,0.08 -0.14,0.1 -0.1,0.08 -0.06,0.08 v 0.15 l -0.03,0.22 -0.18,0.14 -0.33,0.3 -0.34,0.19 -0.47,0.25 -0.33,0.22 -0.42,0.23 -0.45,0.29 -0.51,0.31 -0.38,0.27 -0.44,0.26 -0.4,0.3 -0.27,0.27 -0.27,0.33 -0.09,0.41 0.01,0.46 0.31,2.21 -0.52,-0.06 -0.5,-0.11 -0.39,-0.23 -0.61,-0.22 -0.66,-0.15 -0.65,-0.16 -0.68,-0.21 -0.69,-0.12 -0.71,-0.12 -0.74,-0.03 -0.56,-0.08 -0.68,-0.04 -0.64,-0.06 -0.6,-0.08 -0.47,-0.13 -0.48,-0.24 -0.34,-0.24 -0.58,-0.03 -0.77,0.02 -0.43,-0.02 h -0.8 l -0.53,0.11 -0.62,0.03 -0.83,0.01 -0.85,0.08 -0.66,0.11 -0.32,-0.05 -0.54,-0.27 -0.51,-0.46 -0.46,-0.36 -0.57,-0.39 -0.6,-0.33 -0.54,-0.27 -0.71,-0.22 -0.68,-0.2 -0.44,-0.15 -0.45,-0.14 -0.63,-0.18 -0.42,-0.33 -0.44,-0.67 -0.39,-0.46 -0.5,-0.53 -0.39,-0.41 -0.31,-0.4 -0.17,-0.39 0.18,-0.28 0.31,-0.02 0.38,-0.11 0.4,-0.23 0.34,-0.17 0.29,-0.22 0.06,-0.08 -0.2,-0.32 -0.15,-0.14 0.31,-0.69 0.44,-0.07 h 0.63 l 0.62,0.03 0.54,0.08 0.62,0.14 0.61,0.09 0.59,0.14 0.63,0.14 h 0.79 l 0.79,-0.03 0.69,-0.09 0.67,-0.11 0.36,-0.11 0.23,-0.4 0.02,-0.5 -0.2,-0.46 -0.49,-0.37 -0.51,-0.25 -0.33,-0.37 -0.02,-0.57 0.18,-0.61 0.34,-0.36 0.23,-0.45 0.05,-0.52 0.04,-0.78 -0.02,-0.66 -0.05,-0.34 -0.02,-0.42 -0.05,-0.42 -0.1,-0.71 0.96,-0.15 -0.07,-0.56 -0.21,-0.72 -0.17,-0.6 0.03,-0.56 0.26,-0.56 0.35,-0.47 0.19,-0.52 -0.02,-0.67 -0.03,-0.6 -0.05,-0.64 0.01,-0.74 -0.12,-0.43 -0.18,-0.28 -0.57,-0.02 -0.65,-0.05 -0.51,-0.11 -0.55,-0.16 -0.56,-0.17 -0.51,-0.32 -0.49,-0.27 -0.4,-0.35 -0.32,-0.44 -0.03,-0.45 0.23,-0.44 0.47,-0.41 0.45,-0.38 0.43,-0.44 0.38,-0.48 0.37,-0.56 0.28,-0.54 0.07,-0.51 0.09,-0.46 0.59,-0.43 0.56,-0.5 0.53,-0.62 0.42,-0.57 0.54,-0.64 0.5,-0.6 0.45,-0.52 0.22,-0.37 0.26,-0.22 0.23,0.11 0.17,0.03 0.27,-0.01 0.23,-0.15 0.3,-0.21 0.27,-0.32 0.31,-0.29 0.41,-0.35 0.49,-0.39 0.31,-0.24 0.46,-0.32 0.45,-0.31 0.36,-0.29 0.5,-0.34 0.26,-0.32 0.17,-0.35 0.14,-0.32 0.06,-0.41 0.03,-0.36 v -0.47 l -0.07,-0.38 -0.17,-0.44 -0.12,-0.24 -0.14,-0.29 0.09,-0.21 0.19,-0.18 0.31,-0.18 0.28,-0.4 0.21,-0.46 0.23,-0.32 0.3,-0.4 0.31,-0.33 0.08,-0.39 0.11,-0.46 0.09,-0.56 v -0.42 l -0.26,-0.98 -0.12,-0.58 -0.11,-0.64 0.08,-0.29 0.03,-0.32 -0.01,-0.41 0.13,-0.49 0.27,-0.6 0.22,-0.43 0.26,-0.57 0.24,-0.56 0.07,-0.32 -0.1,-0.42 -0.34,-0.23 -0.36,-0.38 z"
       id="path74" />
  </g>
</svg>
