<?xml version="1.0" encoding="UTF-8" standalone="no"?>
<svg
   version="1.2"
   width="800"
   height="642"
   viewBox="0 0 800 642"
   stroke-linecap="round"
   stroke-linejoin="round"
   id="svg14"
   sodipodi:docname="Aiherra.svg"
   inkscape:version="1.1.2 (b8e25be833, 2022-02-05)"
   xmlns:inkscape="http://www.inkscape.org/namespaces/inkscape"
   xmlns:sodipodi="http://sodipodi.sourceforge.net/DTD/sodipodi-0.dtd"
   xmlns="http://www.w3.org/2000/svg"
   xmlns:svg="http://www.w3.org/2000/svg">
  <defs
     id="defs18" />
  <sodipodi:namedview
     id="namedview16"
     pagecolor="#ffffff"
     bordercolor="#666666"
     borderopacity="1.0"
     inkscape:pageshadow="2"
     inkscape:pageopacity="0.0"
     inkscape:pagecheckerboard="0"
     showgrid="false"
     inkscape:zoom="1.3146417"
     inkscape:cx="399.72867"
     inkscape:cy="321.38033"
     inkscape:window-width="1848"
     inkscape:window-height="1016"
     inkscape:window-x="72"
     inkscape:window-y="1107"
     inkscape:window-maximized="1"
     inkscape:current-layer="svg14" />
  <g
     id="Aiherra"
     transform="matrix(18.299387,0,0,18.299387,-11164.333,-946.44947)">
    <path
       d="m 618.91,54.71 0.29,0.1 0.08,0.03 0.08,0.02 0.2,0.07 0.1,0.03 0.31,0.11 0.11,0.03 0.09,0.03 0.58,0.19 0.07,0.03 0.07,0.02 0.06,0.02 0.31,0.1 0.24,0.08 0.93,0.31 0.33,0.11 0.04,0.01 0.21,0.07 0.09,0.03 0.21,0.07 0.29,0.1 0.15,0.04 0.22,0.07 0.19,0.07 0.09,0.03 0.2,0.06 0.12,0.04 0.23,0.07 0.19,0.07 0.17,0.06 0.38,0.12 0.01,0.01 h 0.01 l 0.08,0.03 0.03,0.01 0.65,0.21 0.37,0.13 0.13,0.04 0.04,0.01 0.62,0.21 0.61,0.21 0.56,0.18 0.5,0.17 0.27,0.09 0.39,0.13 0.22,0.04 0.09,0.02 0.19,0.03 0.16,0.04 0.47,0.09 0.17,0.03 0.16,0.03 0.04,0.01 0.29,0.06 0.24,0.04 0.26,0.05 0.31,0.07 0.34,0.06 0.11,0.02 0.27,0.05 0.06,0.02 0.39,0.07 0.08,0.02 h 0.04 l 0.82,0.11 0.17,0.02 0.31,0.04 0.14,0.01 0.09,0.02 0.15,0.01 0.1,0.02 0.13,0.03 0.26,0.06 0.17,0.03 0.12,0.03 h 0.02 l 0.02,0.01 0.77,0.08 0.14,0.03 0.17,0.04 0.08,0.02 0.58,0.12 0.27,0.07 0.23,0.06 0.07,0.02 h 0.03 l 0.03,0.01 0.01,0.01 0.04,0.01 h 0.03 0.03 0.03 0.07 l 0.04,-0.01 h 0.03 l 0.07,-0.02 0.07,-0.01 0.08,-0.01 0.09,-0.01 0.08,-0.02 h 0.03 l 0.07,-0.02 0.07,-0.01 0.06,-0.02 0.05,-0.01 0.05,-0.01 0.03,-0.01 h 0.01 l 0.02,-0.01 0.04,-0.01 0.05,-0.01 0.04,-0.01 0.05,-0.01 0.03,-0.01 0.67,-0.14 0.1,-0.03 0.23,-0.05 0.17,-0.01 0.33,-0.03 h 0.05 0.04 l 0.04,-0.01 0.06,-0.01 0.06,-0.01 0.07,-0.02 0.05,-0.01 0.06,-0.01 0.04,-0.01 0.05,-0.01 0.07,-0.01 0.05,-0.01 0.04,-0.01 0.04,-0.01 0.04,-0.01 h 0.03 l 0.03,-0.01 0.04,-0.01 0.07,-0.02 0.05,-0.01 0.04,-0.02 0.04,-0.01 0.03,-0.01 0.03,-0.01 0.03,-0.01 0.03,-0.01 0.05,-0.01 0.06,-0.02 0.05,-0.02 0.07,-0.02 0.05,-0.02 0.06,-0.01 0.08,-0.03 0.08,-0.02 0.06,-0.03 0.03,-0.01 0.06,-0.01 -0.05,0.23 v 0.02 l 0.03,0.29 0.02,0.14 0.05,0.12 0.04,0.09 0.23,0.23 0.38,0.42 0.08,0.09 0.07,0.1 0.13,0.19 0.15,0.19 0.17,0.23 0.01,0.02 0.03,0.03 0.08,0.11 0.05,0.07 0.07,0.08 0.1,0.15 0.11,0.14 0.1,0.14 0.04,0.05 0.01,0.02 0.01,0.01 0.01,0.02 0.04,0.03 0.04,0.07 0.06,0.06 0.01,0.02 0.04,0.05 0.03,0.05 0.01,0.01 0.01,0.02 0.03,0.05 h -0.01 v 0.01 h -0.01 l -0.01,0.01 h -0.02 l -0.01,0.01 h -0.01 -0.01 l -0.01,0.01 -0.02,-0.05 -0.01,-0.02 -0.03,-0.01 -0.02,-0.01 -0.02,0.03 -0.01,0.02 -0.02,0.02 -0.01,0.02 -0.02,0.02 -0.01,0.01 -0.02,-0.03 -0.02,-0.05 h -0.01 v -0.02 l -0.01,-0.01 h -0.01 -0.01 -0.02 -0.02 l -0.01,0.01 -0.01,0.01 v 0 l -0.01,0.02 -0.01,0.01 -0.01,0.01 -0.02,0.01 h -0.03 -0.02 l -0.03,-0.01 -0.04,0.13 -0.02,0.01 -0.03,0.01 h -0.02 -0.03 -0.03 -0.04 l -0.05,0.01 h -0.05 l -0.02,-0.02 0.02,-0.05 -0.03,-0.03 -0.06,-0.05 -0.06,-0.03 h -0.03 l -0.02,-0.01 h -0.04 -0.02 l -0.02,0.01 h -0.01 l -0.02,0.01 -0.01,0.02 -0.03,0.01 -0.03,0.02 -0.03,0.02 -0.04,0.01 -0.03,0.01 -0.05,0.01 h -0.04 l -0.49,0.05 -0.09,0.01 -0.26,0.03 -0.66,0.06 -0.18,0.02 -0.05,0.01 h -0.09 l -0.09,-0.02 -0.05,-0.01 -0.05,-0.01 -0.09,-0.02 h -0.06 -0.1 l -0.06,0.01 -0.03,0.01 -0.04,0.01 -0.05,0.02 -0.05,0.02 h -0.04 l -0.08,0.01 -0.07,0.01 -0.08,0.01 -0.1,0.02 h -0.08 l -0.05,0.02 -0.25,0.19 h -0.18 l -0.6,0.09 -0.05,0.02 -0.12,0.05 -0.17,0.06 -0.04,0.02 -0.14,0.05 -0.18,0.07 -0.15,0.05 h -0.01 l -0.09,0.04 -0.11,0.04 -0.01,0.01 -0.03,0.02 -0.02,0.02 -0.05,0.05 -0.07,0.07 -0.07,0.04 -0.02,0.01 -0.02,0.01 h -0.01 -0.02 l -0.02,0.01 -0.03,0.03 -0.05,0.04 -0.04,0.05 -0.05,0.05 -0.05,0.06 -0.02,0.03 -0.03,0.04 -0.05,0.08 -0.04,0.05 -0.03,0.06 -0.03,0.06 -0.03,0.05 -0.04,0.03 -0.04,0.04 -0.15,0.14 -0.07,0.07 -0.45,0.41 -0.53,0.28 -0.02,0.01 -0.11,0.06 -0.19,0.1 -0.17,0.09 -0.03,0.02 -0.09,0.04 -0.03,0.02 -0.14,0.08 -0.06,0.03 -0.23,0.12 -0.02,0.01 -0.04,0.02 -0.03,0.01 -0.06,0.1 -0.11,0.17 -0.1,0.17 -0.01,0.02 0.06,0.25 -0.36,0.61 -0.21,0.06 -0.06,0.27 -0.09,0.41 h -0.03 -0.01 l -0.11,-0.01 -0.04,-0.01 h -0.03 -0.01 l -0.03,0.01 -0.04,0.02 -0.08,0.04 -0.12,0.07 -0.08,0.06 -0.04,0.03 -0.02,0.06 v 0.02 0.03 0.02 l -0.01,0.03 v 0.04 0.02 l 0.01,0.02 0.01,0.02 0.01,0.01 0.02,0.03 0.03,0.03 0.02,0.02 0.04,0.02 0.03,0.02 0.03,0.03 0.01,0.03 -0.14,0.54 v 0.01 l 0.01,0.03 0.02,0.07 0.02,0.04 0.04,0.08 0.03,0.08 0.01,0.03 v 0.03 0.01 0 0.01 l -0.02,0.02 -0.02,0.02 -0.04,0.03 -0.06,0.08 -0.06,0.08 -0.03,0.04 -0.03,0.02 0.03,0.03 0.03,0.03 -0.31,0.4 -0.03,0.48 -0.02,0.01 -0.03,0.01 -0.01,0.01 -0.02,0.01 -0.07,0.01 -0.08,0.02 -0.07,0.03 -0.07,0.02 -0.03,0.01 h -0.08 -0.1 l -0.05,0.01 -0.06,0.01 h -0.05 -0.03 l -0.03,-0.01 -0.03,-0.01 h -0.01 -0.02 l -0.01,0.01 -0.01,0.02 v 0.02 l -0.01,0.03 -0.06,0.17 -0.03,0.08 -0.01,0.03 -0.02,0.02 -0.01,0.01 -0.1,0.07 -0.07,0.08 -0.05,0.06 -0.05,0.1 -0.03,0.04 -0.03,0.03 -0.02,0.02 -0.06,0.06 0.07,0.52 0.26,0.49 -0.19,0.06 v 0.03 l -0.01,0.02 -0.03,0.04 -0.02,0.05 -0.02,0.05 -0.34,-0.31 -0.27,0.36 0.36,0.31 -0.35,0.33 0.06,0.66 0.4,0.13 -0.34,0.03 0.09,0.42 0.07,0.19 0.03,0.67 0.01,0.63 v 0.63 l -0.03,0.61 0.01,0.37 -0.32,0.23 -0.37,0.45 -0.23,0.24 -0.15,0.07 -0.05,-0.01 -0.03,-0.01 -0.04,-0.01 h -0.04 -0.04 -0.03 -0.03 -0.03 -0.04 -0.03 l -0.03,-0.01 -0.01,-0.02 -0.02,-0.02 -0.02,-0.03 -0.02,-0.02 L 630.5,79 h -0.02 l -0.01,-0.01 -0.03,0.01 -0.04,0.01 -0.04,0.01 -0.04,0.01 h -0.04 -0.04 -0.04 -0.04 l -0.03,-0.01 -0.04,-0.01 0.03,0.08 -0.01,0.02 -0.02,0.03 -0.03,0.04 -0.03,0.02 -0.02,0.02 -0.01,0.05 0.01,0.04 -0.01,0.03 -0.02,0.05 -0.01,0.05 -0.03,0.04 -0.03,0.04 -0.03,0.02 -0.05,0.02 -0.02,0.01 -0.02,0.03 -0.01,0.02 -0.01,0.02 v 0.02 l -0.02,0.02 -0.01,0.02 -0.01,0.04 -0.01,0.03 -0.01,0.02 -0.01,0.01 -0.02,0.02 -0.01,0.02 -0.01,0.01 -0.02,0.04 -0.01,0.04 -0.01,0.02 -0.01,0.01 -0.01,0.02 -0.01,0.01 -0.01,0.02 -0.01,0.03 v 0.02 l -0.01,0.02 v 0.02 0.01 0.04 0.02 l 0.01,0.03 v 0.02 0.03 0.02 l -0.01,0.03 -0.01,0.01 -0.01,0.02 -0.01,0.02 -0.01,0.03 -0.01,0.02 v 0.02 l -0.01,0.01 v 0.01 l -0.01,0.02 v 0.02 0.01 0.02 l -0.01,0.01 v 0.01 l -0.01,0.02 v 0.03 l -0.01,0.01 v 0.01 l -0.01,0.02 -0.02,0.03 v 0.01 l -0.01,0.05 -0.01,0.06 -0.02,0.07 v 0.03 l -0.01,0.11 v 0.08 0.04 0.07 l -0.01,0.15 -0.01,0.13 v 0.08 0.09 0.04 0.02 0.07 0.05 l -0.01,0.03 -0.02,0.01 -0.13,0.71 0.01,0.01 v 0.01 l 0.01,0.01 0.01,0.02 0.01,0.01 v 0.02 0.02 l -0.01,0.02 v 0 0.02 l 0.01,0.03 v 0.02 l 0.01,0.02 v 0.02 l 0.01,0.03 v 0.03 l 0.01,0.01 0.02,0.01 0.01,0.02 0.01,0.02 -0.07,0.05 -0.3,0.57 -0.16,0.23 -0.14,0.17 0.02,0.02 0.04,0.05 0.01,0.03 v 0.03 l -0.01,0.02 -0.01,0.02 -0.01,0.01 -0.01,0.02 -0.01,0.02 -0.03,0.04 -0.03,0.03 -0.05,0.05 -0.04,0.05 -0.04,0.06 -0.05,0.06 -0.04,0.06 -0.05,0.06 -0.03,0.03 h -0.02 l 0.19,0.09 0.05,0.05 -0.09,0.21 -0.04,-0.03 -0.04,-0.03 -0.03,-0.01 -0.04,-0.01 -0.04,-0.02 -0.04,-0.01 -0.02,-0.02 -0.03,-0.01 -0.03,-0.02 -0.04,-0.01 -0.03,-0.02 -0.04,-0.01 -0.04,-0.01 -0.02,-0.01 -0.02,-0.01 h -0.03 l -0.03,-0.01 h -0.03 -0.04 -0.04 l -0.03,0.01 h -0.04 l -0.03,0.01 -0.04,0.01 -0.03,0.02 -0.04,0.01 h -0.03 -0.03 -0.03 -0.05 -0.03 -0.03 l -0.03,-0.01 h -0.03 -0.02 -0.02 -0.05 l -0.07,0.01 -0.06,0.01 -0.05,0.01 H 627 626.96 l -0.03,-0.01 -0.03,-0.01 -0.05,-0.02 h -0.03 l -0.02,-0.01 h -0.02 -0.01 l -0.03,0.01 h -0.02 -0.02 -0.02 l -0.01,-0.01 h -0.03 -0.06 v 0 l -0.02,-0.01 -0.01,-0.01 -0.01,-0.01 -0.01,-0.01 h -0.03 -0.02 l -0.03,-0.01 h -0.03 -0.02 -0.01 -0.03 -0.02 -0.04 l -0.02,-0.01 -0.02,-0.01 h -0.04 l -0.01,-0.01 h -0.02 -0.02 -0.03 -0.02 l -0.03,0.01 h -0.03 -0.03 L 626,84.66 h -0.05 l -0.04,0.01 h -0.04 -0.07 -0.02 -0.04 l -0.02,-0.01 h -0.04 -0.03 -0.02 -0.04 -0.02 l -0.03,0.01 -0.04,-0.01 h -0.03 -0.04 l -0.02,0.01 -0.03,0.01 -0.05,0.03 -0.03,0.01 -0.03,0.02 -0.04,0.01 -0.04,0.02 -0.03,0.01 -0.02,0.02 -0.02,0.01 -0.02,0.02 -0.02,0.01 -0.01,0.03 -0.02,0.03 -0.01,0.01 -0.01,0.02 -0.03,0.01 -0.04,0.03 -0.03,0.02 -0.03,0.02 -0.04,0.03 -0.02,0.02 -0.02,0.02 -0.01,0.02 -0.01,0.03 -0.02,0.03 -0.03,0.02 -0.02,0.01 -0.03,0.03 -0.03,0.02 h -0.02 l -0.04,0.01 h -0.06 l -0.05,0.01 -0.05,0.01 -0.04,0.01 -0.06,0.01 -0.03,0.01 h -0.05 l -0.07,0.01 -0.05,0.01 h -0.04 -0.08 l -0.02,0.01 -0.1,-0.14 -0.06,-0.35 0.02,-0.86 -0.03,-0.36 0.02,-0.66 0.03,-0.06 0.01,-0.03 0.02,-0.1 -0.03,-0.09 -0.01,-0.04 -0.01,-0.04 -0.01,-0.02 -0.01,-0.02 -0.01,-0.02 -0.02,-0.03 -0.01,-0.03 -0.02,-0.02 -0.01,-0.03 -0.03,-0.03 -0.02,-0.03 -0.02,-0.03 -0.02,-0.03 -0.03,-0.03 -0.03,-0.03 -0.02,-0.03 -0.03,-0.04 -0.05,-0.05 -0.03,-0.03 -0.01,-0.02 -0.03,-0.01 -0.03,-0.01 0.04,-0.14 0.02,-0.06 0.5,-0.28 0.02,0.02 0.02,0.03 0.25,-0.12 0.32,-0.62 -0.13,-0.06 -0.1,-0.05 -0.05,-0.03 -0.03,-0.02 0.6,-0.83 -0.23,-0.09 -0.03,0.01 -0.04,0.01 -0.04,0.01 -0.07,0.02 -0.03,0.01 -0.03,0.04 -0.03,0.03 -0.01,0.02 -0.04,0.05 -0.02,0.02 -0.05,0.03 -0.04,0.02 -0.04,0.02 -0.04,0.02 -0.02,0.02 -0.03,0.03 -0.03,0.03 -0.02,0.02 -0.02,0.04 -0.01,0.03 -0.04,0.06 -0.03,0.03 -0.02,0.03 -0.01,0.01 -0.01,0.01 -0.01,0.01 v 0.01 l -0.01,0.01 v 0.02 l -0.02,0.01 -0.03,0.03 -0.02,0.02 -0.01,0.02 0.06,-0.74 0.05,-0.73 v -0.58 -0.49 l 0.07,-0.15 -0.01,-0.01 v -0.01 -0.01 l 0.01,-0.01 0.01,-0.02 0.01,-0.06 0.01,-0.03 0.01,-0.05 V 77.6 l 0.01,-0.05 0.01,-0.03 V 77.49 77.45 77.4 77.38 77.37 l -0.01,-0.01 -0.01,-0.01 h -0.02 l 0.02,-0.01 0.01,-0.01 v -0.01 l 0.01,-0.01 v -0.02 -0.04 -0.03 -0.03 l 0.01,-0.03 0.01,-0.07 0.02,-0.09 0.01,-0.07 0.01,-0.06 0.01,-0.09 0.02,-0.1 v -0.04 l 0.01,-0.01 v -0.01 l 0.17,-0.64 0.21,-0.82 0.01,-0.02 0.1,-0.48 -0.02,-0.29 -0.29,-0.35 -0.22,-0.24 -0.09,-0.19 0.01,-0.14 0.03,-0.12 0.1,-0.08 0.26,0.02 0.07,-0.06 0.16,-0.21 -0.01,-0.01 -0.01,-0.02 -0.01,-0.03 h -0.01 l -0.02,-0.01 h -0.01 -0.01 l -0.01,-0.01 v -0.06 l -0.01,-0.03 0.01,-0.01 0.01,-0.01 0.03,-0.02 0.01,-0.01 0.01,-0.01 v -0.02 -0.02 l -0.01,-0.03 -0.02,-0.02 -0.03,-0.03 -0.06,-0.03 h -0.01 -0.01 l -0.01,0.01 -0.02,0.01 -0.01,0.02 h -0.01 l -0.01,0.01 0.05,-0.1 -0.02,-0.01 -0.08,-0.06 -0.12,-0.09 -0.08,-0.06 -0.1,-0.09 -0.05,-0.06 -0.05,-0.05 -0.04,-0.04 -0.04,-0.06 -0.03,-0.05 -0.03,-0.06 -0.03,-0.04 -0.04,-0.06 -0.07,-0.1 -0.05,-0.07 -0.06,-0.08 -0.04,-0.04 -0.03,-0.03 -0.02,-0.02 h -0.01 l -0.01,-0.01 -0.03,-0.01 -0.04,-0.03 -0.04,-0.03 -0.02,-0.02 -0.02,-0.01 -0.02,-0.01 -0.03,-0.01 0.07,-0.19 0.09,-0.13 0.02,-0.02 0.3,-0.6 -0.12,0.01 -0.09,0.01 h -0.09 -0.04 l -0.04,-0.01 -0.05,0.01 -0.06,0.01 -0.2,-0.05 -0.02,-0.03 -0.04,-0.07 -0.03,-0.04 -0.05,-0.06 -0.18,-0.11 v -0.03 -0.02 -0.02 l -0.01,-0.02 V 70 l -0.01,-0.01 -0.02,-0.01 -0.01,-0.01 -0.01,-0.01 -0.01,-0.01 v -0.03 l 0.01,-0.02 0.02,-0.02 0.01,-0.01 0.02,-0.01 0.01,-0.02 0.02,-0.01 0.02,-0.01 0.01,-0.01 0.02,-0.02 0.01,-0.01 0.01,-0.01 0.01,-0.02 v -0.01 l 0.01,-0.02 0.01,-0.04 v -0.02 l -0.01,-0.04 v -0.04 l -0.01,-0.03 -0.01,-0.01 v -0.01 l -0.01,-0.01 -0.02,-0.01 -0.01,-0.01 h -0.01 -0.01 l -0.01,0.01 h -0.02 l -0.02,0.02 -0.01,0.01 -0.02,0.01 h -0.01 l -0.04,0.01 -0.01,-0.01 V 69.54 69.53 69.51 69.5 l 0.01,-0.02 0.01,-0.01 0.02,-0.04 0.02,-0.03 0.01,-0.03 0.02,-0.01 0.01,-0.02 0.01,-0.02 0.02,-0.04 0.02,-0.04 0.02,-0.04 0.01,-0.02 0.01,-0.02 0.01,-0.02 0.01,-0.04 0.02,-0.04 0.01,-0.02 0.01,-0.02 0.01,-0.02 0.01,-0.01 0.01,-0.03 0.01,-0.04 v -0.03 -0.01 -0.02 -0.02 l -0.01,-0.01 -0.01,-0.01 -0.03,-0.02 h -0.05 -0.03 -0.02 l -0.02,-0.01 -0.03,-0.01 -0.02,-0.01 -0.02,-0.01 -0.01,-0.02 -0.02,-0.02 -0.02,-0.01 -0.03,-0.03 -0.03,-0.02 -0.02,-0.01 -0.02,-0.02 -0.03,-0.01 -0.03,-0.02 -0.03,-0.02 -0.03,-0.03 -0.02,-0.02 -0.02,-0.01 -0.02,-0.03 -0.02,-0.02 -0.01,-0.02 -0.01,-0.02 -0.01,-0.01 -0.01,-0.03 -0.01,-0.03 -0.01,-0.02 -0.02,-0.03 -0.02,-0.02 -0.03,-0.02 -0.02,-0.02 -0.02,-0.03 -0.02,-0.02 -0.01,-0.01 -0.02,-0.02 -0.02,-0.02 -0.02,-0.03 -0.01,-0.01 -0.01,-0.04 -0.01,-0.02 -0.02,-0.04 L 622,68 l -0.02,-0.02 -0.02,-0.01 -0.03,-0.01 -0.04,-0.01 -0.04,-0.01 -0.03,-0.01 -0.03,-0.02 -0.02,-0.01 -0.03,-0.01 h -0.01 l -0.04,-0.02 -0.03,-0.01 -0.03,-0.01 -0.02,-0.02 -0.02,-0.02 -0.01,-0.02 -0.01,-0.01 -0.01,-0.02 -0.01,-0.02 v -0.02 -0.03 -0.02 -0.02 -0.02 -0.02 -0.03 l 0.01,-0.02 v -0.01 -0.02 -0.02 l -0.01,-0.02 v -0.02 l -0.01,-0.02 -0.01,-0.02 -0.01,-0.02 -0.02,-0.03 -0.02,-0.01 -0.02,-0.01 -0.01,-0.02 -0.03,-0.02 -0.05,-0.04 -0.03,-0.02 -0.03,-0.02 -0.03,-0.02 -0.03,-0.03 -0.01,-0.02 -0.02,-0.03 -0.01,-0.02 -0.01,-0.02 -0.01,-0.02 -0.01,-0.02 -0.01,-0.02 -0.01,-0.01 -0.01,-0.01 -0.02,-0.01 -0.02,-0.01 h -0.01 -0.02 l -0.02,0.02 -0.02,0.01 -0.02,0.02 -0.02,0.02 -0.01,0.02 -0.02,0.01 -0.01,0.01 -0.03,0.01 -0.02,0.01 -0.02,0.02 -0.01,0.02 -0.01,0.03 v 0.04 0.02 l -0.01,0.03 -0.01,0.03 -0.02,0.03 -0.01,0.02 -0.01,0.01 -0.01,0.02 -0.02,0.02 -0.02,0.02 -0.03,0.03 -0.02,0.02 -0.02,0.02 -0.02,0.03 -0.13,0.15 -0.04,0.03 -0.03,0.04 -0.03,0.03 -0.03,0.02 -0.03,0.02 -0.04,0.01 h -0.02 l -0.03,-0.01 -0.04,-0.01 -0.02,-0.02 -0.04,-0.02 -0.03,-0.03 -0.03,-0.01 -0.03,-0.02 -0.03,-0.02 -0.01,-0.01 -0.02,-0.02 -0.02,-0.03 -0.02,-0.04 -0.01,-0.03 -0.01,-0.03 V 67.51 67.5 67.47 67.44 l 0.01,-0.03 0.01,-0.03 0.01,-0.03 0.02,-0.04 0.01,-0.02 0.01,-0.02 0.01,-0.03 0.01,-0.03 0.01,-0.02 0.01,-0.01 0.01,-0.02 0.01,-0.02 0.02,-0.03 0.02,-0.03 0.05,-0.1 0.01,-0.04 0.05,-0.1 0.01,-0.03 v -0.04 l 0.01,-0.02 v -0.02 -0.02 -0.02 -0.01 l -0.01,-0.02 v -0.01 -0.02 l -0.01,-0.02 v -0.02 l -0.01,-0.02 v -0.01 -0.02 -0.02 -0.02 -0.01 -0.02 -0.02 0 -0.01 -0.02 l -0.01,-0.01 v -0.02 -0.01 -0.02 l -0.01,-0.02 v -0.02 -0.03 l -0.01,-0.02 v -0.02 -0.01 -0.02 l -0.01,-0.02 v -0.01 -0.01 -0.01 -0.02 -0.02 l 0.01,-0.01 V 66.1 l 0.01,-0.03 0.01,-0.02 0.01,-0.02 0.01,-0.02 0.01,-0.02 0.01,-0.01 0.01,-0.02 0.01,-0.02 0.01,-0.02 0.01,-0.02 v -0.02 l 0.01,-0.02 0.01,-0.03 0.01,-0.01 0.01,-0.02 0.01,-0.02 0.02,-0.01 0.01,-0.02 0.02,-0.01 0.01,-0.01 0.02,-0.02 0.02,-0.01 0.01,-0.01 0.03,-0.01 0.02,-0.01 0.02,-0.01 h 0.02 l 0.02,-0.01 0.01,-0.01 0.02,-0.01 0.02,-0.01 0.02,-0.02 0.01,-0.01 0.02,-0.01 0.01,-0.02 0.02,-0.01 0.03,-0.02 0.01,-0.01 0.02,-0.01 h 0.02 0.01 0.02 l 0.01,0.01 0.01,0.02 0.02,0.01 0.01,0.01 0.01,0.02 0.02,0.02 0.02,0.02 0.01,0.01 0.02,0.01 0.01,0.01 0.02,0.01 h 0.02 0.02 0.01 0.02 l 0.01,-0.01 v -0.02 -0.01 l 0.01,-0.01 v -0.02 l 0.01,-0.02 V 65.55 65.53 65.51 65.5 l -0.01,-0.02 v -0.02 l -0.01,-0.02 -0.01,-0.01 -0.01,-0.01 -0.01,-0.02 -0.02,-0.01 -0.01,-0.02 -0.02,-0.01 -0.01,-0.01 -0.02,-0.01 -0.01,-0.02 -0.02,-0.01 -0.01,-0.01 -0.02,-0.01 -0.01,-0.01 -0.02,-0.02 -0.01,-0.01 -0.02,-0.02 -0.01,-0.01 -0.01,-0.01 -0.02,-0.02 -0.01,-0.01 -0.01,-0.02 v 0 l -0.01,-0.01 -0.01,-0.02 -0.02,-0.01 -0.01,-0.02 -0.01,-0.02 -0.01,-0.02 -0.01,-0.02 V 65.02 L 620.69,65 620.68,64.98 v -0.01 l -0.01,-0.02 -0.02,-0.01 -0.01,-0.01 -0.01,-0.02 -0.01,-0.01 -0.01,-0.02 -0.01,-0.02 -0.01,-0.02 v -0.02 l -0.01,-0.02 v -0.02 -0.02 l -0.01,-0.02 v -0.02 l -0.01,-0.02 v -0.02 -0.02 l -0.01,-0.01 -0.01,-0.03 -0.01,-0.02 -0.01,-0.02 -0.01,-0.01 -0.02,-0.01 -0.01,-0.01 h -0.02 -0.02 -0.02 -0.01 -0.02 -0.02 -0.03 -0.02 -0.02 -0.02 -0.02 l -0.02,-0.01 h -0.02 l -0.02,-0.01 h -0.02 l -0.02,-0.01 -0.02,-0.01 -0.01,-0.01 -0.02,-0.02 -0.01,-0.02 -0.01,-0.02 v -0.02 l -0.01,-0.01 v -0.02 -0.01 l 0.01,-0.02 0.01,-0.01 0.01,-0.02 0.01,-0.01 0.02,-0.01 0.02,-0.01 0.02,-0.02 0.02,-0.02 0.02,-0.01 0.01,-0.02 0.02,-0.01 0.02,-0.02 0.02,-0.01 0.01,-0.02 0.02,-0.02 0.01,-0.01 0.02,-0.02 0.01,-0.02 0.02,-0.01 0.01,-0.02 0.01,-0.02 v -0.01 l 0.01,-0.02 V 64 63.98 l 0.01,-0.01 v -0.02 l 0.01,-0.01 0.01,-0.01 v -0.01 l 0.01,-0.02 0.01,-0.01 0.01,-0.01 0.01,-0.02 0.02,-0.02 0.01,-0.02 0.01,-0.02 0.01,-0.01 0.01,-0.02 v -0.02 l 0.01,-0.02 V 63.72 63.7 l -0.01,-0.01 -0.01,-0.01 -0.01,-0.02 -0.01,-0.01 -0.01,-0.01 -0.02,-0.02 -0.01,-0.01 -0.02,-0.01 -0.01,-0.01 -0.02,-0.01 -0.01,-0.01 -0.02,-0.01 -0.01,-0.01 h -0.01 l -0.01,-0.01 -0.01,-0.01 -0.01,-0.01 -0.01,-0.01 -0.02,-0.01 -0.01,-0.01 -0.01,-0.01 -0.02,-0.02 -0.01,-0.01 -0.01,-0.02 -0.01,-0.01 -0.01,-0.01 -0.01,-0.02 -0.01,-0.01 -0.02,-0.02 -0.01,-0.01 -0.01,-0.02 -0.01,-0.02 V 63.3 l -0.01,-0.02 V 63.26 63.25 63.23 63.21 63.2 l 0.01,-0.02 0.01,-0.01 v -0.02 l 0.01,-0.02 V 63.11 63.1 63.08 l -0.01,-0.01 -0.01,-0.02 -0.01,-0.01 -0.01,-0.01 -0.01,-0.01 -0.02,-0.01 -0.01,-0.01 -0.02,-0.02 -0.01,-0.01 -0.02,-0.01 -0.01,-0.01 -0.01,-0.01 v -0.02 -0.01 -0.02 -0.01 -0.02 l 0.01,-0.01 0.01,-0.01 0.02,-0.02 0.01,-0.01 0.02,-0.01 0.01,-0.01 0.01,-0.01 0.02,-0.01 -0.07,-0.15 v -0.01 l -0.02,-0.02 -0.01,-0.02 -0.01,-0.02 v -0.01 l -0.02,-0.02 -0.01,-0.03 -0.01,-0.02 -0.01,-0.03 -0.02,-0.03 v -0.03 -0.03 -0.03 l 0.01,-0.03 0.01,-0.03 0.01,-0.04 0.01,-0.04 0.01,-0.05 0.02,-0.05 0.01,-0.07 0.02,-0.1 -0.06,-0.2 -0.15,-0.15 -0.04,-0.04 -0.17,-0.02 -0.07,-0.08 -0.05,-0.02 -0.07,-0.03 -0.04,-0.02 -0.05,-0.02 -0.05,-0.02 -0.06,-0.03 -0.02,-0.01 -0.05,-0.02 -0.05,-0.03 -0.05,-0.02 h -0.05 -0.05 l -0.05,0.01 -0.07,0.01 -0.05,0.01 -0.07,0.02 -0.06,0.01 -0.08,0.02 -0.02,0.01 -0.03,0.01 -0.05,0.01 -0.07,0.02 -0.06,0.02 -0.06,0.01 -0.05,0.02 h -0.05 l -0.03,0.02 -0.02,0.01 -0.02,0.01 -0.03,0.01 -0.03,0.01 -0.05,0.01 -0.05,0.01 h -0.04 -0.05 l -0.04,0.01 -0.06,0.02 -0.07,0.01 -0.06,0.01 -0.04,0.01 -0.02,-0.01 h -0.04 -0.04 -0.04 l -0.03,-0.01 h -0.05 v 0 h -0.04 l -0.06,0.01 -0.04,0.01 h -0.05 l -0.05,0.01 -0.05,0.01 h -0.01 l -0.1,0.02 h -0.01 l -0.05,0.01 h -0.03 l -0.02,-0.02 -0.03,-0.01 -0.03,-0.03 -0.03,-0.01 -0.02,-0.02 -0.03,-0.01 -0.02,0.01 h -0.04 l -0.04,0.01 -0.02,0.01 -0.02,-0.01 h -0.02 l -0.03,-0.01 h -0.03 l -0.04,-0.01 h -0.01 l -0.04,-0.01 h -0.03 l -0.03,-0.02 -0.03,-0.01 -0.02,-0.01 -0.03,-0.01 h -0.03 l -0.03,-0.01 -0.03,-0.01 -0.03,-0.01 -0.02,-0.03 -0.02,-0.01 -0.03,-0.03 -0.03,-0.02 -0.03,-0.03 v -0.01 l -0.01,-0.02 0.01,-0.04 v -0.03 l 0.01,-0.03 0.01,-0.02 0.01,-0.01 v -0.03 l -0.01,-0.04 -0.01,-0.03 -0.02,-0.02 -0.04,-0.02 -0.05,-0.03 -0.08,-0.02 -0.02,-0.01 0.14,-0.31 0.01,-0.18 0.01,-0.15 0.01,-0.18 0.09,-0.35 0.11,-0.45 0.04,-0.08 0.04,-0.08 0.02,-0.06 0.02,-0.03 0.03,-0.02 0.06,-0.08 0.05,-0.07 0.06,-0.08 0.07,-0.08 0.02,-0.03 0.03,-0.05 0.04,-0.07 0.04,-0.07 0.02,-0.02 0.04,-0.09 v -0.01 l 0.08,-0.14 0.05,-0.11 0.03,-0.04 0.01,-0.02 0.01,-0.01 0.03,-0.04 0.04,-0.05 0.03,-0.07 0.01,-0.01 0.03,-0.07 0.04,-0.11 0.02,-0.05 0.02,-0.05 0.02,-0.05 0.01,-0.04 0.01,-0.04 v -0.04 -0.04 l -0.01,-0.05 0.01,-0.04 0.01,-0.03 0.02,-0.04 0.03,-0.03 0.02,-0.04 v 0 l 0.01,-0.02 0.04,-0.08 0.02,-0.03 0.03,-0.03 0.03,-0.04 0.02,-0.04 0.05,-0.08 0.03,-0.05 0.02,-0.06 0.03,-0.04 0.03,-0.05 0.02,-0.04 0.03,-0.05 0.03,-0.05 0.03,-0.04 0.03,-0.04 0.04,-0.05 0.03,-0.05 0.04,-0.05 0.03,-0.04 0.02,-0.03 0.03,-0.03 0.04,-0.02 0.04,-0.03 0.04,-0.02 0.03,-0.01 0.04,-0.02 0.04,-0.03 0.05,-0.03 0.06,-0.05 0.01,-0.02 0.05,-0.03 0.05,-0.05 0.01,-0.02 h 0.01 l 0.05,-0.04 0.03,-0.05 0.02,-0.03 0.01,-0.03 0.04,-0.09 0.07,-0.17 0.11,-0.24 0.06,-0.15 0.05,-0.12 0.03,-0.07 0.01,-0.06 v -0.05 z"
       id="path11" />
  </g>
</svg>
