<?xml version="1.0" encoding="UTF-8" standalone="no"?>
<svg
   version="1.2"
   width="800"
   height="642"
   viewBox="0 0 800 642"
   stroke-linecap="round"
   stroke-linejoin="round"
   id="svg95"
   sodipodi:docname="Ainhize-Monjolose.svg"
   inkscape:version="1.1.2 (b8e25be833, 2022-02-05)"
   xmlns:inkscape="http://www.inkscape.org/namespaces/inkscape"
   xmlns:sodipodi="http://sodipodi.sourceforge.net/DTD/sodipodi-0.dtd"
   xmlns="http://www.w3.org/2000/svg"
   xmlns:svg="http://www.w3.org/2000/svg">
  <defs
     id="defs99" />
  <sodipodi:namedview
     id="namedview97"
     pagecolor="#ffffff"
     bordercolor="#666666"
     borderopacity="1.0"
     inkscape:pageshadow="2"
     inkscape:pageopacity="0.0"
     inkscape:pagecheckerboard="0"
     showgrid="false"
     inkscape:zoom="1.3146417"
     inkscape:cx="399.72867"
     inkscape:cy="321"
     inkscape:window-width="1848"
     inkscape:window-height="1043"
     inkscape:window-x="72"
     inkscape:window-y="0"
     inkscape:window-maximized="1"
     inkscape:current-layer="svg95" />
  <g
     id="Ainhize-Monjolose"
     transform="matrix(32.699974,0,0,32.699974,-20985.383,-3915.2638)">
    <path
       d="m 651.62,123.51 0.09,0.12 0.1,0.17 0.28,0.31 0.56,0.61 0.56,0.61 0.56,0.61 0.15,0.16 0.42,0.14 0.54,0.28 0.56,0.16 0.83,-0.16 0.87,-0.15 0.62,-0.23 0.61,-0.23 0.61,-0.24 0.62,-0.23 0.54,0.28 0.54,0.29 0.54,0.28 0.2,0.58 0.19,0.58 0.2,0.58 0.19,0.58 -0.15,0.08 -0.12,0.16 -0.28,-0.03 -0.2,0.36 -0.51,0.06 -0.13,0.14 -0.26,0.3 -0.05,0.03 0.01,-0.2 -0.03,0.02 -0.02,0.01 -0.04,0.02 -0.02,0.02 -0.03,0.03 -0.02,0.02 -0.02,0.02 -0.05,0.04 -0.05,0.03 -0.06,0.04 -0.03,0.02 -0.03,0.03 -0.02,0.02 -0.03,0.03 -0.13,0.09 -0.21,-0.01 -0.03,0.04 -0.05,0.03 -0.06,0.02 h -0.03 l -0.22,0.15 0.05,0.02 0.06,0.04 0.08,0.05 0.08,0.06 0.07,0.04 0.09,0.05 0.06,0.04 0.03,0.02 0.03,0.01 0.06,0.01 0.08,0.27 -0.11,0.23 0.02,0.06 0.31,0.19 0.04,0.05 -0.16,0.19 -0.14,0.29 -0.12,-0.03 -0.08,-0.05 -0.09,-0.03 -0.03,0.04 -0.42,0.89 -0.18,0.2 -0.17,0.42 -0.11,0.2 -0.18,0.43 0.08,0.05 0.13,0.15 0.23,0.36 -0.39,0.23 -0.24,0.38 -0.08,0.29 -0.02,0.05 -0.02,0.04 -0.02,0.03 -0.04,0.03 -0.05,0.05 -0.04,0.03 -0.03,0.03 -0.06,0.08 -0.04,0.05 -0.05,0.05 -0.02,0.02 -0.03,0.01 -0.02,-0.01 -0.05,0.15 -0.02,0.06 0.06,0.19 0.01,0.02 -0.05,0.33 0.03,0.48 -0.05,0.09 -0.26,0.23 -0.07,0.07 0.16,0.17 -0.01,0.01 -0.01,0.02 v 0.03 l -0.01,0.02 -0.01,0.03 -0.02,0.03 -0.07,0.08 -0.03,0.04 -0.03,0.04 -0.03,0.02 -0.02,0.01 -0.02,0.01 v 0.02 l -0.01,0.01 h -0.02 -0.01 l -0.02,0.01 -0.02,0.01 v 0.02 l -0.01,0.02 -0.01,0.01 h -0.02 -0.02 -0.02 l -0.02,0.02 -0.02,0.01 -0.05,0.01 h -0.03 l -0.02,-0.02 -0.01,-0.01 -0.05,-0.01 -0.03,-0.01 -0.04,0.01 -0.04,0.01 -0.06,0.05 -0.01,0.01 -0.01,0.01 v 0 h -0.01 l -0.01,-0.01 h -0.02 -0.01 l -0.01,-0.01 h -0.02 -0.02 -0.01 -0.01 l -0.02,-0.02 v -0.01 l -0.01,-0.01 h -0.02 l -0.02,-0.02 -0.01,-0.03 -0.01,-0.03 -0.01,-0.02 v -0.02 l -0.01,-0.02 -0.05,-0.04 -0.03,-0.03 h -0.02 l -0.01,-0.01 h -0.02 l -0.01,0.02 h -0.01 -0.03 -0.02 -0.02 l -0.02,0.01 -0.02,0.01 h -0.01 l -0.03,-0.01 -0.02,-0.01 -0.03,-0.01 h -0.04 -0.03 l -0.05,-0.01 h -0.02 l -0.02,-0.01 -0.02,-0.02 -0.03,-0.02 -0.03,-0.02 -0.02,-0.01 -0.04,-0.01 h -0.02 -0.03 -0.03 -0.03 l -0.03,-0.01 h -0.04 -0.04 l -0.04,0.01 -0.04,0.01 -0.04,0.01 -0.04,0.01 -0.04,0.02 -0.06,0.02 -0.15,0.05 -0.07,0.03 -0.15,0.05 -0.05,0.02 -0.04,0.03 -0.03,0.02 -0.05,0.02 -0.03,0.01 -0.05,0.02 -0.03,0.02 -0.04,0.02 -0.05,0.04 -0.03,0.01 h -0.04 l -0.03,0.01 h -0.05 l -0.04,0.01 -0.04,0.01 h -0.04 l -0.04,0.01 h -0.03 l -0.04,0.02 -0.04,0.04 -0.01,0.02 -0.02,0.02 -0.02,0.01 -0.04,0.01 -0.01,0.01 -0.04,0.01 h -0.03 l -0.03,0.01 -0.03,0.01 -0.03,0.02 -0.03,0.02 h -0.03 l -0.02,0.01 -0.04,0.01 -0.05,0.01 -0.03,0.02 h -0.01 l -0.02,0.01 h -0.02 l -0.01,-0.01 -0.03,-0.01 -0.01,-0.02 -0.11,-0.1 -0.14,-0.09 -0.05,-0.02 -0.03,-0.01 h -0.05 l -0.04,0.01 -0.14,0.01 h -0.05 l -0.03,-0.01 -0.03,-0.02 -0.05,-0.03 -0.09,-0.07 -0.03,-0.02 h -0.04 v -0.15 l 0.1,-0.34 0.16,-0.29 0.2,-0.45 -0.02,-0.3 0.05,-0.21 v -0.02 l -0.01,-0.18 0.12,-0.15 0.2,-0.15 -0.04,-0.08 -0.08,-0.02 -0.13,0.08 -0.01,0.06 -0.2,0.24 -0.3,-0.02 v -0.01 l -0.01,-0.02 -0.01,-0.01 -0.01,-0.01 h -0.02 l -0.01,-0.01 -0.01,-0.02 -0.01,-0.01 v -0.02 l -0.01,-0.02 v -0.02 -0.02 -0.03 l 0.01,-0.02 0.01,-0.01 0.01,-0.01 h 0.02 0.02 l 0.02,-0.01 0.02,-0.02 0.02,-0.01 0.01,-0.02 v -0.02 -0.02 -0.02 -0.02 -0.02 -0.02 -0.02 -0.03 l 0.01,-0.02 0.01,-0.02 v -0.02 l 0.01,-0.02 0.01,-0.02 v -0.03 l 0.01,-0.02 v -0.02 -0.02 l 0.01,-0.02 0.01,-0.02 0.02,-0.02 0.01,-0.02 -0.01,-0.02 v 0 l -0.02,-0.01 -0.02,-0.01 -0.01,-0.01 -0.02,-0.01 -0.01,-0.01 h -0.01 l -0.01,-0.01 v -0.01 l -0.01,-0.02 -0.01,-0.01 -0.01,-0.01 h -0.02 l -0.01,-0.01 -0.02,-0.02 -0.63,0.08 -0.16,-0.02 -0.57,-0.12 -0.1,0.28 -0.07,0.04 -0.08,-0.08 -0.07,-0.01 0.01,0.15 -0.05,0.06 -0.05,0.02 -0.05,-0.21 -0.05,-0.01 -0.13,0.15 -0.02,0.05 h -0.01 l -0.09,0.08 -0.1,-0.01 -0.09,-0.33 -0.41,0.08 -0.15,0.29 -0.15,-0.27 -0.14,0.08 -0.1,-0.14 -0.41,-0.38 0.11,-0.05 v -0.04 l -0.01,-0.03 -0.02,-0.03 -0.01,-0.02 -0.01,-0.02 -0.01,-0.04 v -0.02 -0.02 -0.04 -0.02 l -0.01,-0.03 -0.01,-0.03 -0.03,-0.02 -0.01,-0.02 v -0.02 l 0.01,-0.03 v -0.05 l 0.01,-0.03 v -0.03 l 0.01,-0.04 v -0.02 l 0.41,-0.89 0.25,-0.1 0.05,-0.08 0.02,-0.23 -0.11,-0.32 0.13,-0.2 -0.03,-0.29 -0.3,0.12 -0.15,-0.15 -0.2,-0.1 -0.2,-0.19 -0.1,-0.16 -0.05,-0.01 -0.28,0.33 -0.02,0.06 0.1,0.13 0.06,0.1 -0.03,0.04 h -0.23 l -0.13,-0.05 -0.1,-0.27 0.19,-0.19 0.08,-0.2 -0.09,-0.06 -0.13,0.11 -0.05,0.06 -0.06,0.05 -0.03,0.03 -0.21,-0.05 -0.08,-0.11 -0.26,-0.57 -0.16,0.05 -0.01,-0.19 0.19,-0.05 0.01,-0.16 -0.33,-0.04 v -0.02 l 0.01,-0.02 0.01,-0.01 v -0.02 l 0.01,-0.01 0.01,-0.02 0.01,-0.03 0.01,-0.02 0.01,-0.01 0.02,-0.01 0.03,-0.01 0.01,-0.03 0.01,-0.02 0.01,-0.02 0.02,-0.02 0.01,-0.02 0.02,-0.02 0.01,-0.02 0.01,-0.02 0.02,-0.02 0.01,-0.02 0.01,-0.02 0.01,-0.02 0.01,-0.03 v -0.02 l 0.02,-0.01 0.01,-0.02 0.03,-0.01 0.01,-0.02 0.01,-0.02 0.02,-0.01 0.02,-0.02 0.01,-0.01 0.02,-0.02 0.01,-0.01 0.02,-0.01 0.02,-0.01 h 0.01 l 0.01,-0.01 0.02,-0.02 0.01,-0.02 0.01,-0.01 v -0.02 l 0.01,-0.01 0.01,-0.02 v -0.02 l 0.01,-0.02 v -0.02 -0.02 l 0.01,-0.01 v -0.02 l 0.01,-0.01 v -0.01 l -0.17,-0.1 0.01,-0.03 0.22,-0.16 0.08,-0.13 0.18,-0.55 0.12,-0.22 0.07,-0.08 -0.08,-0.04 -0.3,-0.04 -0.07,-0.1 0.01,-0.07 0.01,-0.12 0.38,-0.04 0.07,-0.57 -0.01,-0.14 -0.09,-0.12 -0.14,-0.24 0.02,-0.03 0.01,-0.03 0.02,-0.03 0.01,-0.05 0.02,-0.05 0.02,-0.04 0.01,-0.04 0.02,-0.03 0.01,-0.01 0.01,-0.02 0.05,-0.15 0.03,-0.01 0.1,-0.07 0.2,-0.18 0.05,-0.04 0.07,-0.07 0.02,-0.01 h 0.02 0.03 0.03 l 0.03,-0.02 0.02,-0.02 0.03,-0.02 0.02,0.01 0.03,0.01 0.04,0.01 0.04,0.01 0.03,0.01 0.03,0.01 0.03,0.01 0.02,0.01 0.03,0.01 0.03,-0.01 h 0.03 0.02 0.01 l 0.03,-0.01 0.03,-0.01 0.03,-0.02 0.02,-0.02 0.02,-0.02 0.02,-0.03 0.02,-0.03 0.02,-0.03 0.01,-0.02 0.01,-0.04 0.01,-0.02 v -0.03 l -0.01,-0.04 v -0.04 -0.03 -0.04 l 0.01,-0.03 0.01,-0.04 0.01,-0.03 0.01,-0.04 0.01,-0.03 v -0.03 -0.04 l 0.02,-0.03 0.01,-0.03 v -0.04 l -0.01,-0.03 0.01,-0.03 0.01,-0.04 0.02,-0.02 0.02,-0.03 0.02,-0.01 0.02,0.02 0.02,0.02 0.02,0.01 0.03,0.01 0.04,0.01 0.04,0.01 h 0.04 l 0.04,-0.01 0.02,-0.02 0.03,-0.03 0.02,-0.03 0.02,-0.04 0.03,-0.03 0.01,-0.04 0.02,-0.03 0.01,-0.02 0.01,-0.03 0.01,-0.03 0.01,-0.02 0.01,-0.02 v -0.02 l 0.01,-0.02 0.02,-0.01 0.03,-0.02 0.03,-0.01 0.03,-0.02 0.01,-0.02 0.03,-0.02 0.02,-0.02 0.01,-0.01 0.02,-0.02 0.02,-0.01 0.02,-0.02 0.01,-0.02 v -0.02 l 0.01,-0.02 v -0.02 -0.02 l 0.01,-0.03 0.01,-0.02 0.01,-0.01 0.01,-0.02 0.01,-0.02 0.01,-0.03 0.01,-0.03 v -0.02 -0.02 -0.03 -0.02 l 0.01,-0.03 0.01,-0.02 0.02,-0.01 0.01,-0.02 0.01,-0.02 0.01,-0.02 0.02,-0.03 0.01,-0.01 0.01,-0.02 0.01,-0.01 0.02,-0.02 0.01,-0.02 v -0.01 l 0.01,-0.01 v -0.01 l 0.01,-0.02 0.01,-0.01 v -0.01 l 0.01,-0.02 0.01,-0.01 0.01,-0.02 0.02,-0.02 0.01,-0.01 0.02,-0.01 0.01,-0.02 0.02,-0.02 0.01,-0.02 V 124 l 0.01,-0.01 0.02,-0.02 0.02,-0.01 0.02,-0.01 h 0.03 l 0.03,-0.02 0.03,-0.01 0.02,-0.02 0.02,-0.01 0.03,-0.01 0.03,-0.01 0.03,-0.01 0.01,-0.02 0.03,-0.02 0.02,-0.01 0.03,-0.01 0.02,-0.01 0.03,-0.01 0.03,-0.01 0.02,-0.01 0.03,-0.01 h 0.03 0.02 0.02 z"
       id="path92" />
  </g>
</svg>
