<?xml version="1.0" encoding="UTF-8" standalone="no"?>
<svg
   version="1.2"
   width="800"
   height="642"
   viewBox="0 0 800 642"
   stroke-linecap="round"
   stroke-linejoin="round"
   id="svg104"
   sodipodi:docname="Ainhoa.svg"
   inkscape:version="1.1.2 (b8e25be833, 2022-02-05)"
   xmlns:inkscape="http://www.inkscape.org/namespaces/inkscape"
   xmlns:sodipodi="http://sodipodi.sourceforge.net/DTD/sodipodi-0.dtd"
   xmlns="http://www.w3.org/2000/svg"
   xmlns:svg="http://www.w3.org/2000/svg">
  <defs
     id="defs108" />
  <sodipodi:namedview
     id="namedview106"
     pagecolor="#ffffff"
     bordercolor="#666666"
     borderopacity="1.0"
     inkscape:pageshadow="2"
     inkscape:pageopacity="0.0"
     inkscape:pagecheckerboard="0"
     showgrid="false"
     inkscape:zoom="1.3146417"
     inkscape:cx="399.72867"
     inkscape:cy="321.38033"
     inkscape:window-width="1848"
     inkscape:window-height="1016"
     inkscape:window-x="72"
     inkscape:window-y="1107"
     inkscape:window-maximized="1"
     inkscape:current-layer="svg104" />
  <g
     id="Ainhoa"
     transform="matrix(23.182264,0,0,23.182264,-12617.752,-1997.7416)">
    <path
       d="m 562.3,94.63 v 0.01 l 0.11,0.39 0.13,0.45 0.1,0.37 0.09,0.74 0.04,0.3 v 0.04 l 0.01,0.04 0.24,0.47 0.06,0.12 0.21,0.41 0.02,0.03 0.25,0.57 0.07,0.16 0.06,0.12 0.1,0.23 0.03,0.05 0.05,0.11 0.05,0.13 0.05,0.11 0.13,0.28 0.02,0.04 0.03,0.06 0.07,0.15 0.24,0.46 0.07,0.14 0.08,0.17 0.01,0.02 0.14,0.09 0.25,0.16 0.63,0.41 0.02,0.02 0.02,0.02 0.03,0.03 0.02,0.02 0.03,0.02 0.41,0.27 0.42,0.27 0.41,0.28 0.02,0.01 1.15,0.5 0.74,1.09 0.06,0.09 0.14,0.21 0.65,0.97 0.17,0.25 0.05,0.06 0.46,0.49 0.76,0.84 0.13,0.96 0.01,0.05 0.01,0.07 0.01,0.05 0.02,0.14 v 0.04 l 0.06,0.57 0.07,0.58 0.02,0.17 0.24,0.75 v 0.02 l 0.07,0.21 -0.12,0.01 -0.12,0.01 h -0.02 l -0.24,-0.08 -0.08,-0.03 -0.06,-0.02 -0.07,-0.01 -0.09,-0.02 -0.08,-0.02 h -0.08 l -0.07,-0.01 -0.08,-0.01 -0.08,-0.02 -0.08,0.01 h -0.05 l -0.04,-0.01 -0.09,-0.03 h -0.01 v -0.01 l -0.01,-0.07 -0.01,-0.04 -0.03,-0.06 -0.02,-0.04 -0.02,-0.05 -0.02,-0.03 -0.01,-0.03 -0.01,-0.02 -0.03,-0.03 -0.04,-0.04 -0.04,-0.02 -0.05,-0.02 -0.06,-0.02 -0.05,-0.04 -0.08,-0.03 -0.05,0.01 -0.07,-0.01 -0.05,-0.01 -0.05,0.01 -0.05,0.01 h -0.06 -0.07 -0.08 -0.05 l -0.06,-0.02 h -0.07 -0.09 -0.07 -0.04 l -0.04,-0.01 -0.03,-0.01 -0.05,-0.01 -0.09,-0.01 h -0.07 -0.04 l -0.02,0.01 -0.03,0.02 -0.04,0.01 h -0.04 l -0.06,0.01 -0.04,0.02 -0.05,-0.01 -0.04,-0.01 -0.03,0.01 -0.05,0.02 -0.06,0.01 -0.1,0.01 -0.06,0.01 -0.04,0.01 -0.06,-0.01 -0.08,-0.01 h -0.07 -0.07 -0.06 l -0.06,-0.01 -0.11,-0.03 -0.05,-0.02 h -0.02 l -0.03,-0.01 -0.04,-0.03 -0.05,-0.02 -0.05,-0.03 -0.07,-0.02 -0.04,-0.02 -0.04,-0.03 -0.05,-0.03 -0.04,-0.02 -0.05,-0.01 -0.06,-0.01 -0.09,-0.01 -0.08,-0.01 -0.06,-0.01 h -0.05 -0.05 -0.03 l -0.06,-0.01 -0.12,-0.03 -0.05,-0.02 -0.06,-0.05 -0.05,-0.02 -0.05,-0.02 -0.02,-0.02 -0.03,-0.03 -0.03,-0.02 -0.06,-0.03 -0.05,-0.02 -0.06,-0.04 -0.05,-0.02 -0.03,-0.01 h -0.04 l -0.03,-0.01 -0.04,-0.02 -0.01,-0.01 -0.1,-0.03 -0.09,-0.06 -0.07,-0.05 -0.06,-0.03 -0.02,-0.04 -0.03,-0.02 -0.05,-0.03 -0.04,-0.01 -0.03,-0.02 -0.04,-0.03 -0.04,-0.03 -0.02,-0.04 -0.03,-0.04 -0.03,-0.04 -0.05,-0.05 -0.06,-0.06 -0.04,-0.03 -0.04,-0.03 -0.07,-0.03 -0.05,-0.02 -0.05,-0.01 -0.05,-0.01 -0.07,-0.03 -0.05,-0.03 -0.03,-0.03 -0.03,-0.02 -0.04,-0.02 -0.04,-0.03 -0.04,-0.02 -0.05,-0.02 -0.06,-0.03 -0.04,-0.01 -0.08,-0.01 -0.05,-0.02 -0.06,-0.02 h -0.04 l -0.07,-0.02 -0.05,-0.02 -0.01,-0.01 -0.08,-0.02 -0.06,-0.02 -0.07,-0.03 -0.09,-0.04 h -0.04 l -0.07,-0.02 -0.06,-0.02 -0.02,-0.01 -0.04,-0.03 -0.03,-0.04 -0.06,-0.03 -0.06,-0.03 -0.07,-0.04 -0.06,-0.05 -0.06,-0.05 -0.04,-0.03 -0.01,-0.03 -0.01,-0.04 v -0.03 l -0.02,-0.02 -0.03,-0.04 -0.02,-0.07 -0.02,-0.05 -0.02,-0.03 -0.04,-0.02 -0.03,-0.01 -0.04,-0.01 -0.05,-0.03 -0.04,-0.02 -0.04,-0.03 -0.02,-0.02 -0.02,-0.03 -0.03,-0.05 -0.03,-0.05 -0.03,-0.05 -0.02,-0.04 -0.03,-0.05 -0.03,-0.04 -0.02,-0.04 -0.03,-0.02 -0.02,-0.03 -0.03,-0.03 -0.03,-0.04 -0.03,-0.03 -0.02,-0.03 -0.03,-0.03 -0.01,-0.01 -0.01,-0.02 -0.01,-0.01 -0.02,-0.03 -0.03,-0.04 -0.01,-0.03 -0.04,-0.05 -0.03,-0.05 -0.03,-0.05 -0.03,-0.04 -0.03,-0.04 -0.02,-0.03 -0.03,-0.04 -0.03,-0.03 -0.03,-0.03 -0.02,-0.03 -0.02,-0.03 -0.01,-0.03 -0.02,-0.05 v -0.03 l -0.01,-0.04 v -0.05 l -0.01,-0.05 -0.01,-0.04 -0.01,-0.04 -0.01,-0.05 -0.01,-0.03 -0.01,-0.04 -0.01,-0.03 -0.01,-0.05 -0.01,-0.03 -0.02,-0.04 -0.01,-0.04 -0.02,-0.04 -0.01,-0.04 -0.02,-0.03 -0.03,-0.02 -0.04,-0.02 h -0.03 l -0.05,0.01 h -0.04 l -0.05,0.01 -0.03,0.01 -0.03,0.02 -0.02,0.03 -0.04,0.02 -0.03,0.01 -0.04,0.01 h -0.05 -0.05 -0.05 -0.04 -0.03 l -0.04,0.02 -0.03,0.02 -0.03,0.01 -0.02,0.03 -0.03,0.02 -0.02,0.03 -0.01,0.02 -0.02,0.02 -0.02,0.02 -0.03,0.02 -0.03,0.01 -0.05,0.02 -0.05,0.01 -0.04,0.01 -0.03,0.01 -0.02,0.02 -0.03,0.03 -0.02,0.03 v 0.05 l -0.01,0.04 -0.01,0.03 -0.01,0.03 -0.02,0.02 -0.04,0.02 -0.06,0.03 -0.06,0.03 -0.04,0.02 -0.05,0.02 -0.05,0.02 -0.05,0.01 -0.04,0.01 -0.06,0.02 -0.05,0.01 -0.05,0.02 -0.06,0.02 -0.04,0.01 -0.05,0.02 h -0.04 -0.06 l -0.05,0.01 h -0.06 l -0.06,-0.01 h -0.05 -0.04 -0.05 -0.04 l -0.04,0.02 -0.03,0.01 -0.02,0.02 -0.01,0.01 -0.02,0.02 -0.02,0.02 -0.02,0.03 -0.02,0.03 -0.02,0.03 -0.03,0.04 -0.02,0.03 -0.02,0.02 -0.03,0.03 -0.03,0.02 h -0.01 v 0 -0.02 l -0.02,-0.03 -0.02,-0.06 v -0.1 l -0.01,-0.04 v -0.06 l -0.01,-0.05 -0.01,-0.05 -0.03,-0.06 -0.01,-0.01 -0.03,-0.02 -0.05,-0.01 -0.07,-0.03 -0.09,-0.05 -0.06,-0.04 -0.07,-0.04 -0.1,-0.06 -0.01,-0.01 -0.09,-0.07 -0.05,-0.05 -0.04,-0.05 -0.07,-0.09 -0.04,-0.05 -0.03,-0.02 h -0.02 -0.04 l -0.04,0.01 -0.08,0.02 h -0.05 -0.01 l -0.02,-0.01 -0.03,-0.02 -0.02,-0.04 -0.02,-0.07 -0.03,-0.11 v -0.08 l 0.01,-0.02 v -0.03 l 0.01,-0.08 -0.02,-0.03 -0.01,-0.02 -0.01,-0.01 -0.03,-0.02 -0.05,-0.03 -0.05,-0.05 -0.12,-0.09 -0.01,-0.01 -0.02,-0.01 -0.02,-0.02 -0.02,-0.01 -0.02,-0.01 -0.02,-0.01 -0.03,-0.02 -0.01,-0.01 -0.02,-0.01 -0.01,-0.01 -0.02,-0.01 -0.01,-0.01 h -0.01 l -0.01,-0.01 -0.01,-0.01 -0.03,-0.04 -0.01,-0.01 0.01,-0.01 v -0.01 l -0.01,-0.02 0.01,-0.01 v -0.02 l 0.01,-0.02 v -0.02 l 0.01,-0.02 v -0.01 -0.05 l 0.01,-0.02 v -0.02 -0.02 h 0.01 v -0.02 -0.01 -0.02 l 0.01,-0.07 -0.01,-0.05 -0.02,-0.03 -0.01,-0.03 -0.02,-0.03 -0.01,-0.03 v -0.04 l -0.02,-0.03 -0.04,-0.04 -0.04,-0.04 -0.03,-0.02 -0.05,-0.01 -0.04,-0.01 -0.06,-0.01 h -0.07 l -0.09,-0.03 -0.08,-0.02 h -0.04 -0.02 l -0.05,0.01 -0.04,0.02 h -0.02 v 0 l -0.03,-0.02 -0.04,-0.03 -0.08,-0.05 -0.08,-0.06 -0.07,-0.08 -0.08,-0.07 -0.02,-0.03 -0.02,-0.03 -0.01,-0.02 -0.01,-0.02 -0.01,-0.02 v -0.02 l -0.01,-0.03 -0.01,-0.01 v -0.02 l -0.01,-0.01 -0.02,-0.02 -0.01,-0.01 -0.02,-0.02 -0.02,-0.02 -0.03,-0.03 -0.01,-0.02 -0.02,-0.02 -0.02,-0.02 -0.01,-0.02 v -0.01 l -0.01,-0.02 v -0.02 -0.02 l 0.01,-0.01 v -0.02 l 0.01,-0.02 0.01,-0.02 v -0.01 l 0.01,-0.02 h 0.02 v -0.01 h 0.02 l 0.01,-0.02 0.01,-0.01 v -0.01 -0.02 l 0.01,-0.01 -0.01,-0.02 -0.01,-0.01 -0.02,-0.03 -0.01,-0.02 -0.01,-0.01 -0.02,-0.03 -0.02,-0.03 v -0.01 l -0.01,-0.01 -0.03,-0.06 -0.02,-0.03 -0.03,-0.03 -0.02,-0.02 -0.02,-0.03 -0.03,-0.05 -0.02,-0.04 -0.02,-0.03 -0.01,-0.04 -0.01,-0.02 v -0.04 l 0.01,-0.01 -0.01,-0.11 -0.01,-0.08 -0.02,-0.03 -0.04,-0.04 -0.08,-0.07 -0.06,-0.05 -0.05,-0.06 -0.06,-0.06 -0.07,-0.06 -0.02,-0.02 -0.02,-0.02 -0.05,-0.04 -0.07,-0.05 -0.05,-0.03 0.01,-0.02 -0.01,-0.04 -0.02,-0.06 -0.01,-0.05 v -0.07 l 0.01,-0.09 0.02,-0.07 0.01,-0.06 v -0.04 -0.07 -0.08 l -0.02,-0.06 -0.02,-0.06 -0.02,-0.04 -0.01,-0.04 -0.02,-0.05 -0.03,-0.09 -0.02,-0.06 -0.03,-0.04 -0.03,-0.06 -0.03,-0.06 -0.02,-0.03 -0.06,-0.07 -0.05,-0.06 -0.02,-0.03 -0.02,-0.03 -0.03,-0.05 -0.02,-0.05 -0.02,-0.05 -0.06,-0.09 -0.06,-0.1 -0.05,-0.07 -0.03,-0.03 -0.05,-0.05 -0.05,-0.07 -0.08,-0.08 -0.05,-0.05 -0.07,-0.05 -0.09,-0.05 -0.09,-0.04 -0.08,-0.05 -0.06,-0.03 -0.03,-0.04 -0.02,-0.03 -0.1,-0.12 -0.07,-0.1 -0.06,-0.11 -0.05,-0.09 -0.03,-0.06 -0.02,-0.07 -0.05,-0.12 -0.03,-0.07 -0.04,-0.07 -0.03,-0.06 -0.04,-0.04 -0.02,-0.02 -0.03,-0.03 -0.02,-0.04 -0.04,-0.1 -0.05,-0.1 -0.04,-0.08 -0.01,-0.04 -0.08,-0.14 -0.06,-0.1 -0.07,-0.08 -0.13,-0.12 -0.13,-0.12 -0.05,-0.05 -0.01,-0.01 -0.04,-0.03 -0.08,-0.08 -0.11,-0.12 -0.07,-0.07 -0.08,-0.06 -0.03,-0.03 -0.08,-0.07 -0.02,-0.02 -0.24,-0.2 -0.05,-0.04 -0.04,-0.02 -0.03,-0.02 -0.03,-0.03 -0.03,-0.04 -0.02,-0.04 -0.05,-0.05 -0.07,-0.09 -0.07,-0.06 -0.1,-0.09 -0.04,-0.03 -0.05,-0.03 -0.09,-0.06 -0.06,-0.04 0.01,-0.01 0.22,-0.22 0.05,-0.04 0.07,-0.06 0.11,-0.08 0.09,-0.06 0.05,-0.05 0.06,-0.04 0.04,-0.03 0.01,-0.03 0.03,-0.04 0.16,-0.28 0.09,-0.16 0.14,-0.25 0.08,-0.14 v -0.01 l 0.24,-0.43 0.02,-0.04 0.08,-0.15 0.06,-0.09 0.02,-0.04 0.09,-0.15 0.04,-0.07 0.07,-0.11 0.02,-0.03 0.06,-0.12 0.05,-0.08 0.08,-0.11 0.06,-0.12 0.12,-0.29 0.21,-0.52 v -0.01 l 0.01,-0.02 0.01,-0.03 0.03,-0.05 0.02,-0.02 0.05,-0.03 0.07,-0.06 0.04,-0.04 0.03,-0.03 0.09,-0.08 0.01,-0.01 0.09,-0.13 0.04,-0.03 0.03,-0.08 0.02,-0.03 0.17,-0.33 0.08,-0.14 0.01,-0.02 0.24,-0.43 0.05,-0.1 0.05,-0.08 0.17,-0.31 0.05,-0.08 0.12,-0.02 0.38,-0.07 0.28,-0.05 0.02,0.01 0.05,0.01 0.06,0.03 0.12,0.08 0.14,0.07 0.07,0.04 h 0.05 l 0.09,0.01 0.25,0.02 0.28,0.02 0.22,0.02 h 0.01 l 0.38,-0.04 h 0.06 0.03 l 0.07,-0.01 0.24,-0.02 0.36,-0.03 0.12,-0.01 0.48,-0.13 0.16,-0.02 0.22,-0.03 0.15,-0.01 0.13,-0.03 0.3,-0.02 0.19,-0.03 0.09,-0.01 0.1,-0.01 0.24,-0.04 0.06,0.06 0.13,0.14 0.1,0.1 0.38,0.42 0.26,0.3 0.04,0.04 0.02,0.04 0.02,0.06 0.07,0.2 0.07,0.18 0.17,0.44 0.06,0.23 0.13,0.5 0.12,0.43 0.02,0.11 0.03,0.11 0.13,0.52 0.02,0.05 0.09,0.26 0.09,0.25 0.1,0.3 0.09,0.27 z"
       id="path101" />
  </g>
</svg>
