<?xml version="1.0" encoding="UTF-8" standalone="no"?>
<svg
   version="1.2"
   width="800"
   height="642"
   viewBox="0 0 800 642"
   stroke-linecap="round"
   stroke-linejoin="round"
   id="svg32"
   sodipodi:docname="Aintzila.svg"
   inkscape:version="1.1.2 (b8e25be833, 2022-02-05)"
   xmlns:inkscape="http://www.inkscape.org/namespaces/inkscape"
   xmlns:sodipodi="http://sodipodi.sourceforge.net/DTD/sodipodi-0.dtd"
   xmlns="http://www.w3.org/2000/svg"
   xmlns:svg="http://www.w3.org/2000/svg">
  <defs
     id="defs36" />
  <sodipodi:namedview
     id="namedview34"
     pagecolor="#ffffff"
     bordercolor="#666666"
     borderopacity="1.0"
     inkscape:pageshadow="2"
     inkscape:pageopacity="0.0"
     inkscape:pagecheckerboard="0"
     showgrid="false"
     inkscape:zoom="1.3146417"
     inkscape:cx="399.72867"
     inkscape:cy="321.38033"
     inkscape:window-width="1848"
     inkscape:window-height="1016"
     inkscape:window-x="72"
     inkscape:window-y="1107"
     inkscape:window-maximized="1"
     inkscape:current-layer="svg32" />
  <g
     id="Aintzila"
     transform="matrix(36.221955,0,0,36.221955,-22880.887,-5549.9605)">
    <path
       d="m 641.68,156.57 0.53,0.07 -0.04,-0.74 0.66,0.19 0.54,-0.02 0.04,0.11 0.18,-0.01 0.11,-0.1 -0.06,-0.19 -0.01,-0.07 0.41,-0.08 0.11,-0.16 0.04,-0.09 0.05,-0.04 0.18,-0.03 0.11,-0.18 0.1,-0.06 0.02,-0.22 0.02,-0.33 0.24,0.02 v 0.24 l 0.39,0.59 0.23,0.32 0.07,-0.05 0.09,-0.05 0.06,-0.04 0.03,-0.02 0.04,-0.04 0.06,-0.05 0.05,-0.05 0.03,-0.04 0.03,-0.04 0.03,-0.06 0.03,-0.05 0.02,-0.05 0.02,-0.03 0.02,-0.02 0.03,-0.03 0.02,-0.01 0.03,-0.01 -0.01,-0.06 v -0.05 l -0.01,-0.04 -0.01,-0.06 -0.01,-0.05 -0.01,-0.07 -0.01,-0.05 -0.01,-0.06 v -0.1 l -0.01,-0.08 v -0.06 -0.07 l 0.01,-0.06 v -0.07 l 0.01,-0.06 v -0.01 l 0.16,-0.05 0.01,0.01 0.14,0.1 0.04,0.03 0.03,0.02 0.02,0.03 0.01,0.03 -0.01,0.04 v 0.02 l -0.01,0.04 -0.02,0.03 v 0.02 l -0.01,0.02 0.01,0.02 0.01,0.03 0.02,0.02 0.02,0.02 0.03,0.01 h 0.03 0.03 0.05 l 0.07,-0.02 0.08,-0.01 0.04,-0.01 h 0.02 0.03 0.01 l 0.02,0.01 0.01,0.01 0.01,0.01 0.01,0.05 v 0.05 l -0.01,0.04 -0.01,0.04 -0.02,0.03 -0.02,0.03 -0.04,0.04 -0.04,0.04 -0.02,0.05 -0.02,0.03 -0.02,0.06 -0.02,0.06 -0.01,0.04 -0.04,0.12 -0.03,0.08 -0.01,0.05 -0.02,0.08 v 0.04 0.03 0.02 0.01 0.02 l 0.01,0.02 v 0.01 l 0.01,0.02 h 0.02 0.02 0.03 0.03 l 0.04,-0.01 -0.1,0.21 -0.07,0.25 -0.01,0.48 0.03,0.4 h 0.05 l 0.21,-0.3 0.06,-0.19 0.09,-0.02 0.11,0.46 -0.01,0.16 -0.24,0.03 -0.07,0.06 -0.03,0.27 0.02,0.12 0.18,0.06 0.01,0.15 -0.03,0.08 -0.16,-0.03 -0.14,-0.06 -0.01,-0.14 -0.16,-0.01 -0.04,0.29 0.32,0.2 -0.05,0.57 0.35,0.08 -0.27,0.72 0.28,0.45 -0.05,0.04 -0.02,0.02 -0.05,0.07 -0.05,0.05 -0.28,0.03 -0.04,0.02 -0.03,0.04 0.01,0.04 0.04,0.04 0.03,0.05 0.03,0.02 h 0.07 l 0.25,-0.04 0.04,-0.06 0.04,-0.03 0.09,-0.2 0.18,0.08 -0.02,0.25 -0.25,0.41 -0.25,0.42 -0.25,0.41 -0.03,0.09 0.32,0.25 -0.01,0.01 -0.06,0.07 -0.04,0.07 -0.02,0.04 -0.02,0.05 -0.01,0.03 v 0.01 0.03 l 0.01,0.02 0.05,0.04 0.03,0.03 0.05,0.03 0.05,0.02 0.04,0.03 0.02,0.02 0.01,0.04 -0.01,0.07 -0.01,0.04 -0.02,0.03 -0.03,0.06 -0.02,0.11 v 0.03 l -0.3,0.06 0.01,0.01 v 0.02 l 0.01,0.04 V 163 l -0.01,0.06 v 0.03 0.03 0.01 l 0.02,0.04 0.02,0.04 0.06,0.08 0.02,0.03 v 0.04 l 0.06,0.09 -0.02,0.03 -0.02,0.08 v 0.07 l -0.03,0.06 -0.03,0.05 -0.17,-0.06 -0.33,0.05 -0.02,0.02 -0.01,0.02 -0.01,0.01 -0.02,0.02 -0.02,0.03 -0.01,0.03 -0.01,0.04 -0.01,0.01 v 0.01 0.01 l 0.01,0.01 v 0.01 0.01 0.01 h -0.01 l -0.01,-0.01 -0.02,-0.03 -0.01,-0.02 -0.01,-0.03 v -0.05 h -0.01 l -0.01,-0.01 v 0.01 l -0.02,0.05 v 0.03 l -0.01,0.02 v 0.02 l -0.01,0.02 v 0.01 l -0.01,0.01 -0.01,0.01 -0.02,0.02 -0.02,0.04 -0.01,0.04 -0.01,0.03 -0.01,0.02 v 0.03 0.02 0.01 l 0.01,0.01 0.02,0.02 0.03,0.01 h 0.02 l 0.01,0.01 h 0.01 l 0.01,0.02 v 0 l -0.01,0.02 v 0.02 l -0.01,0.04 v 0.02 0.01 0.01 0.02 l 0.02,0.07 0.02,0.03 0.02,0.03 0.02,0.03 0.02,0.03 0.01,0.01 0.02,0.01 v 0.01 l 0.01,0.01 v 0.02 0.01 0.02 l -0.01,0.01 v 0.02 0.01 l 0.01,0.02 v 0.01 0.01 l 0.01,0.01 0.01,0.02 v 0.01 l 0.01,0.01 v 0 l 0.01,0.02 -0.01,0.03 -0.01,0.04 v 0.04 l -0.01,0.02 v 0 l 0.01,0.02 v 0.04 l 0.01,0.02 0.01,0.02 v 0.02 0.01 h 0.01 l 0.01,0.01 h 0.01 l 0.01,0.01 h 0.02 l 0.03,0.01 0.01,0.01 0.01,0.01 0.01,0.02 0.03,0.03 0.01,0.02 h 0.01 0.03 0.05 0.01 0.01 l 0.01,-0.01 h 0.01 0.02 0.02 l 0.05,0.03 h 0.01 l 0.02,0.01 0.03,0.01 h 0.03 l 0.02,0.01 0.03,0.02 0.06,0.05 0.03,0.02 0.04,0.02 0.04,0.02 0.03,0.01 0.02,0.01 0.03,0.02 0.06,0.03 0.08,0.04 0.12,-0.09 0.26,0.16 0.17,0.25 0.3,0.3 0.42,0.27 0.09,0.05 0.06,0.08 0.02,0.28 0.2,0.41 0.3,0.44 0.5,0.16 0.09,0.05 -0.13,0.15 -0.27,0.44 -0.17,0.2 -0.11,0.1 -0.41,0.13 -0.83,0.31 -0.03,-0.04 -0.03,-0.07 -0.05,-0.09 -0.03,-0.05 -0.02,-0.04 -0.02,-0.03 -0.01,-0.02 -0.02,-0.02 -0.03,-0.01 -0.02,-0.02 -0.02,-0.02 -0.01,-0.03 -0.01,-0.03 -0.01,-0.03 -0.02,-0.05 v -0.04 -0.03 -0.04 l 0.01,-0.04 0.01,-0.03 0.01,-0.02 0.04,-0.03 0.04,-0.04 0.05,-0.05 0.04,-0.05 0.04,-0.04 0.04,-0.05 0.01,-0.03 0.02,-0.04 0.01,-0.03 v -0.01 -0.01 l -0.01,-0.01 h -0.02 -0.03 -0.04 -0.04 l -0.04,-0.01 -0.07,-0.02 -0.08,-0.03 -0.07,-0.02 -0.05,-0.03 -0.04,-0.01 -0.03,-0.01 h -0.03 -0.04 l -0.05,-0.01 h -0.03 l -0.03,-0.02 -0.03,-0.02 -0.03,-0.02 -0.05,-0.04 -0.05,-0.03 -0.03,-0.01 h -0.04 -0.03 -0.04 l -0.04,0.01 -0.04,0.01 -0.05,0.02 -0.07,0.02 -0.04,0.02 -0.07,0.02 -0.01,0.01 -0.02,-0.01 h -0.02 l -0.02,-0.01 -0.03,-0.02 -0.03,-0.02 -0.06,-0.06 -0.06,-0.07 -0.05,-0.05 -0.03,-0.04 -0.02,-0.03 -0.02,-0.03 -0.03,-0.05 -0.01,-0.04 -0.02,-0.03 -0.01,-0.02 -0.03,-0.01 -0.02,-0.01 -0.04,-0.02 -0.02,-0.01 -0.03,-0.02 -0.03,0.04 -0.04,0.02 -0.04,0.03 -0.02,0.02 -0.04,0.01 h -0.03 l -0.04,0.01 h -0.03 -0.08 -0.04 -0.03 l -0.02,-0.01 -0.02,-0.01 -0.01,-0.02 v -0.02 -0.02 l -0.01,-0.03 v -0.03 l -0.02,-0.05 -0.39,0.1 -0.41,-0.15 -0.1,-0.05 -0.51,-0.14 -0.54,-0.05 -0.4,-0.01 -0.33,0.11 -0.53,0.23 -0.15,0.15 -0.25,0.19 -0.24,0.1 -0.06,-0.33 -0.05,-0.51 -0.06,-0.51 -0.06,-0.51 0.04,-0.2 -0.23,-0.04 h -0.29 l -0.07,0.04 -0.01,0.23 h -0.02 l -0.03,-0.01 h -0.04 l -0.01,-0.01 -0.02,-0.01 -0.01,-0.02 -0.02,-0.02 -0.01,-0.02 h -0.02 l -0.02,0.01 h -0.02 -0.02 -0.01 l -0.02,-0.01 h -0.02 l -0.01,0.01 -0.01,-0.01 h -0.01 l -0.02,-0.02 -0.04,-0.04 -0.03,-0.05 -0.04,-0.07 -0.01,-0.05 -0.02,-0.06 -0.02,-0.05 -0.01,-0.06 -0.02,-0.06 -0.01,-0.05 -0.01,-0.03 v -0.04 l -0.01,-0.03 v -0.04 -0.05 l 0.01,-0.03 v -0.04 -0.01 -0.01 -0.03 L 640.1,165 v -0.03 -0.03 l 0.02,-0.02 0.03,-0.03 -0.32,-0.18 -0.27,-0.1 -0.33,-0.06 -0.01,-0.08 -0.02,-0.08 -0.03,-0.05 -0.02,-0.04 -0.01,-0.03 -0.02,-0.03 0.18,-0.04 -0.2,-0.51 v -0.05 l -0.01,-0.08 -0.02,-0.07 v -0.03 -0.04 -0.01 l 0.01,-0.06 -0.01,-0.03 v -0.04 -0.03 -0.03 l 0.01,-0.04 0.02,-0.04 0.03,-0.02 0.03,-0.04 0.03,-0.03 0.07,-0.05 0.03,-0.04 0.05,-0.03 0.02,-0.02 0.02,-0.03 0.02,-0.04 0.02,-0.05 0.02,-0.05 h 0.01 l 0.02,-0.01 0.04,-0.04 0.08,-0.07 0.06,-0.05 0.08,-0.05 0.03,-0.03 0.1,-0.07 0.06,-0.04 0.04,-0.03 0.05,-0.02 0.02,-0.18 0.02,-0.07 -0.1,-0.14 -0.02,-0.07 0.26,-0.21 0.04,-0.05 0.08,-0.06 0.19,-0.26 0.05,-0.11 0.11,0.03 0.13,0.11 0.07,-0.05 0.01,-0.06 -0.1,-0.24 0.06,-0.09 0.09,0.01 0.14,0.21 0.26,0.06 -0.02,-0.13 -0.05,-0.25 -0.17,-0.17 -0.02,-0.02 -0.05,-0.03 -0.02,-0.01 -0.02,-0.01 h -0.02 l -0.01,-0.01 h -0.01 l -0.01,-0.02 -0.01,-0.03 -0.01,-0.02 -0.01,-0.04 -0.02,-0.03 -0.02,-0.04 -0.03,-0.04 -0.06,-0.18 0.03,-0.11 0.22,-0.43 0.66,-0.92 0.13,-0.26 -0.24,-0.09 h -0.08 l -0.08,0.2 -0.22,0.04 0.02,-0.05 0.01,-0.04 0.01,-0.05 v -0.06 -0.05 -0.04 l 0.01,-0.02 0.01,-0.03 0.01,-0.02 0.01,-0.03 v -0.02 l 0.01,-0.02 v -0.03 l 0.24,-0.09 v -0.67 l -0.07,-0.27 0.01,-0.06 v -0.06 -0.06 -0.07 -0.04 l -0.01,-0.04 v -0.03 -0.01 -0.01 -0.01 -0.01 h 0.01 0.01 0.02 z"
       id="path29" />
  </g>
</svg>
