<?xml version="1.0" encoding="UTF-8" standalone="no"?>
<svg
   version="1.2"
   width="800"
   height="642"
   viewBox="0 0 800 642"
   stroke-linecap="round"
   stroke-linejoin="round"
   id="svg113"
   sodipodi:docname="Aizarnazabal.svg"
   inkscape:version="1.1.2 (b8e25be833, 2022-02-05)"
   xmlns:inkscape="http://www.inkscape.org/namespaces/inkscape"
   xmlns:sodipodi="http://sodipodi.sourceforge.net/DTD/sodipodi-0.dtd"
   xmlns="http://www.w3.org/2000/svg"
   xmlns:svg="http://www.w3.org/2000/svg">
  <defs
     id="defs117" />
  <sodipodi:namedview
     id="namedview115"
     pagecolor="#ffffff"
     bordercolor="#666666"
     borderopacity="1.0"
     inkscape:pageshadow="2"
     inkscape:pageopacity="0.0"
     inkscape:pagecheckerboard="0"
     showgrid="false"
     inkscape:zoom="1.3146417"
     inkscape:cx="399.72867"
     inkscape:cy="287.15047"
     inkscape:window-width="1848"
     inkscape:window-height="1016"
     inkscape:window-x="72"
     inkscape:window-y="1107"
     inkscape:window-maximized="1"
     inkscape:current-layer="svg113" />
  <g
     id="Aizarnazabal"
     transform="matrix(39.314463,0,0,39.314463,-13307.323,-4235.8072)">
    <path
       d="m 355.65,112.26 -0.11,0.24 -0.13,1.06 -0.21,0.51 -0.32,0.87 -0.4,0.39 -1.64,1.85 -0.88,0.47 -0.55,0.35 -0.54,0.4 -0.6,0.45 h -0.04 -0.02 l -0.05,0.03 -0.05,0.03 -0.03,0.01 -0.03,0.01 h -0.04 l -0.05,0.01 h -0.01 l -0.03,0.01 -0.02,0.01 -0.02,0.01 -0.02,0.01 h -0.01 l -0.02,0.02 h -0.02 v 0 l -0.01,0.01 h -0.03 -0.01 -0.02 -0.02 -0.03 l -0.06,0.01 -0.02,0.01 -0.02,0.01 -0.02,0.02 -0.01,0.03 -0.02,0.02 h -0.02 l -0.04,0.01 h -0.05 l -0.04,-0.01 h -0.04 -0.04 -0.04 l -0.04,0.01 -0.03,0.01 h -0.04 l -0.03,0.01 -0.03,0.01 -0.02,0.01 h -0.02 l -0.02,0.02 -0.03,0.01 -0.02,0.01 -0.04,0.01 -0.01,0.01 -0.04,0.01 -0.01,0.01 -0.04,0.01 -0.02,0.01 -0.05,0.01 -0.01,0.01 -0.04,0.01 -0.01,0.01 -0.03,0.02 -0.02,0.01 -0.03,0.02 -0.03,0.01 h -0.02 l -0.03,0.01 h -0.03 l -0.03,-0.01 -0.04,-0.01 h -0.02 -0.02 l -0.05,-0.02 -0.03,-0.01 -0.06,-0.02 -0.02,-0.02 -0.04,-0.02 -0.15,-0.13 -0.01,0.02 -0.12,0.18 -0.03,0.05 -0.1,0.14 -0.07,0.08 -0.02,0.03 -0.04,0.04 -0.1,0.1 -0.04,0.04 -0.03,0.02 -0.02,0.02 -0.02,0.02 -0.07,0.05 -0.08,0.05 -0.05,0.03 -0.02,0.01 -0.04,0.01 -0.07,0.02 -0.08,0.02 -0.15,0.03 -0.07,0.02 h -0.06 l -0.1,0.02 -0.06,0.01 -0.06,0.01 -0.14,0.01 -0.12,0.01 -0.14,-0.02 -0.08,-0.01 -0.06,-0.02 -0.08,-0.01 -0.1,-0.04 -0.18,-0.06 -0.12,-0.04 -0.09,-0.04 -0.14,-0.04 -0.14,-0.06 -0.11,-0.06 -0.1,-0.04 -0.09,-0.03 -0.28,-0.08 -0.25,-0.08 -0.16,-0.03 h -0.04 -0.09 l -0.11,0.02 -0.12,0.03 -0.12,0.04 -0.04,0.02 -0.16,0.06 -0.07,0.03 -0.14,0.05 -0.06,0.04 -0.03,0.03 -0.04,0.04 -0.04,0.04 -0.19,0.23 -0.05,0.04 -0.04,0.03 -0.05,0.02 -0.05,0.01 h -0.06 l -0.05,-0.02 h -0.01 l -0.08,-0.04 -0.04,-0.04 -0.03,-0.03 -0.02,-0.04 -0.06,-0.11 -0.04,-0.13 -0.02,-0.08 -0.03,-0.16 -0.01,-0.11 -0.02,-0.15 0.01,-0.12 -0.01,-0.12 0.01,-0.14 0.02,-0.14 0.01,-0.08 v -0.05 l 0.02,-0.07 v -0.03 -0.02 l 0.02,-0.11 0.01,-0.1 0.02,-0.1 0.03,-0.25 v -0.09 l 0.01,-0.14 0.05,-0.48 0.04,-0.21 0.01,-0.06 0.01,-0.08 -0.01,-0.15 v -0.03 l -0.02,-0.07 v -0.01 l -0.04,-0.11 -0.03,-0.06 -0.09,-0.16 -0.08,-0.13 -0.07,-0.14 -0.06,-0.08 -0.03,-0.02 -0.05,-0.03 -0.04,-0.01 -0.1,-0.05 -0.07,-0.04 -0.09,-0.02 -0.03,-0.01 -0.04,-0.01 h -0.01 l 0.04,-0.59 0.41,-1.03 -0.44,-0.32 0.67,-0.44 0.58,-0.38 0.08,0.36 h 0.01 l 0.05,0.03 0.03,0.02 0.05,0.03 0.13,-0.02 0.03,-0.01 h 0.05 l 0.04,-0.01 h 0.06 l 0.04,-0.01 0.05,-0.01 h 0.07 0.05 l 0.04,0.01 h 0.07 0.05 l 0.05,-0.01 h 0.04 l 0.04,-0.02 0.01,-0.01 0.03,-0.01 0.03,-0.02 0.02,-0.01 0.03,-0.02 0.04,-0.03 0.04,-0.03 0.01,-0.02 0.02,-0.02 0.04,-0.03 0.03,-0.03 0.04,-0.04 0.02,-0.03 0.03,-0.03 0.07,-0.07 0.03,-0.02 0.03,-0.04 0.03,-0.03 0.04,-0.05 0.06,-0.09 0.03,-0.03 0.03,-0.04 0.04,-0.04 0.03,-0.04 0.03,-0.02 0.05,-0.06 0.06,-0.08 0.03,-0.04 0.01,-0.01 0.04,-0.04 0.03,-0.03 0.04,-0.04 0.05,-0.05 0.02,-0.03 0.02,-0.02 0.03,-0.02 0.03,-0.03 0.04,-0.04 0.05,-0.06 0.05,-0.06 0.03,-0.04 0.03,-0.04 0.03,-0.02 0.03,-0.01 0.02,-0.01 0.02,-0.01 h 0.02 l 0.04,-0.02 0.05,-0.02 0.04,-0.02 0.05,-0.01 0.03,-0.01 h 0.01 l 0.03,-0.01 0.06,-0.02 0.06,-0.03 0.04,-0.01 0.03,-0.01 0.02,-0.01 h 0.03 0.03 0.03 0.03 0.03 l 0.03,-0.02 0.04,-0.01 0.04,-0.03 h 0.02 l 0.03,-0.02 0.03,-0.01 0.02,-0.01 0.04,-0.02 0.02,-0.02 0.04,-0.03 0.02,-0.02 0.07,-0.04 0.02,-0.04 0.03,-0.02 0.03,-0.03 0.03,0.01 h 0.04 0.01 0.01 0.01 0.01 0.01 v 0 h 0.01 0.03 0.02 0.03 0.02 0.03 0.01 0.01 0.01 0.01 0.01 0.01 l 0.01,-0.01 v 0 h 0.01 0.01 0.01 l 0.01,-0.01 h 0.01 v 0 l 0.01,-0.01 h 0.01 0.01 0.01 l 0.01,-0.01 h 0.01 l 0.01,-0.01 h 0.02 0.01 l 0.02,-0.01 h 0.01 l 0.02,-0.01 h 0.02 0.01 l 0.02,-0.01 h 0.02 l 0.02,-0.01 h 0.01 0.01 l 0.01,-0.01 h 0.01 l 0.01,-0.01 h 0.01 v -0.01 h 0.01 0.01 l 0.01,-0.01 h 0.01 v 0 l 0.01,-0.01 h 0.01 0.01 l 0.01,-0.01 v 0 h 0.02 v 0 h 0.01 l 0.02,-0.01 h 0.01 l 0.02,-0.01 0.02,-0.01 h 0.01 l 0.03,-0.01 0.02,-0.01 0.03,-0.01 0.03,-0.01 0.03,-0.01 h 0.02 l 0.02,-0.01 h 0.03 l 0.02,-0.01 0.02,-0.01 h 0.01 0.01 0.01 v 0 h 0.01 0.01 l 0.01,-0.01 v 0 h 0.01 0.01 0.01 l 0.01,-0.01 h 0.01 0.01 0.01 l 0.34,0.18 0.05,0.46 0.04,0.02 0.01,0.01 0.01,0.01 h 0.01 l 0.01,0.01 h 0.01 l 0.01,0.01 h 0.01 0.01 l 0.01,0.01 h 0.01 0.01 0.01 l 0.01,0.01 h 0.01 0.02 v 0.01 h 0.01 l 0.01,0.01 h 0.01 v 0 l 0.01,0.01 h 0.01 v 0.01 h 0.01 l 0.01,0.01 v 0 l 0.01,0.01 0.01,0.01 0.02,0.01 0.01,0.01 0.01,0.01 v 0.01 0.01 l 0.01,0.01 v 0.01 0.01 h 0.01 v 0.01 l 0.01,0.01 v 0 l 0.01,0.01 0.01,0.04 0.01,0.01 v 0.01 l 0.03,0.04 0.04,0.04 0.04,0.04 0.04,0.04 0.03,0.02 0.03,0.02 0.01,0.01 h 0.01 v 0 l 0.01,0.01 h 0.01 0.01 l 0.01,0.01 v 0 h 0.01 l 0.01,0.01 h 0.02 l 0.01,0.01 h 0.01 0.02 0.01 l 0.01,0.01 H 349 l 0.01,0.01 v 0 l 0.01,0.01 h 0.01 0.01 v 0.01 l 0.01,0.01 h 0.01 v 0.01 l 0.01,0.01 v 0.01 l 0.01,0.01 v 0 0.01 0.02 0.01 l -0.01,0.01 v 0.01 0.02 l -0.01,0.01 v 0.01 0 0.01 0.01 0.01 l -0.01,0.01 v 0.01 0.01 l 0.01,0.01 v 0.01 0.01 0 0.01 l 0.01,0.01 v 0.01 0.01 l 0.01,0.01 v 0.02 l 0.01,0.01 v 0.01 l 0.01,0.01 v 0.02 l 0.01,0.01 v 0.01 l 0.01,0.01 0.01,0.02 v 0.01 l 0.01,0.01 0.01,0.01 0.01,0.02 0.01,0.01 0.01,0.01 0.01,0.01 0.01,0.01 0.01,0.02 0.01,0.01 0.01,0.02 0.01,0.01 0.02,0.01 0.01,0.02 0.01,0.01 0.02,0.02 0.01,0.01 0.01,0.01 0.02,0.01 h 0.01 l 0.01,0.01 0.01,0.01 0.01,0.01 h 0.01 l 0.01,0.01 v 0.01 l 0.01,0.01 h 0.01 l 0.01,0.01 v 0 l 0.01,0.01 v 0.01 h 0.02 l 0.01,0.01 0.01,0.01 0.01,0.01 h 0.02 l 0.01,0.01 h 0.01 l 0.01,0.01 h 0.01 l 0.02,0.01 h 0.01 l 0.01,0.01 h 0.01 0.01 l 0.01,0.01 h 0.01 0.01 l 0.02,0.01 h 0.01 l 0.02,0.01 h 0.01 0.01 0.01 l 0.02,0.01 h 0.01 0.01 0.02 0.01 l 0.02,0.01 h 0.01 0.01 0.02 0.01 v 0.01 h 0.01 0.01 0.01 0.01 0.01 0.01 0.01 0.01 0.01 0.01 v 0 h 0.01 0.01 0.01 0.01 0.01 0.01 l 0.01,-0.01 h 0.01 0.01 v 0 h 0.01 0.01 l 0.01,-0.01 h 0.01 0.01 l 0.01,-0.01 h 0.01 0.01 l 0.02,-0.01 0.01,-0.01 h 0.01 0.02 l 0.01,-0.01 h 0.01 0.01 l 0.01,-0.01 h 0.01 0.01 l 0.01,-0.01 h 0.01 0.01 0.01 l 0.02,-0.01 0.06,-0.01 0.03,-0.01 0.03,-0.01 0.04,-0.02 0.01,-0.01 0.03,-0.01 0.01,-0.01 0.02,-0.01 0.03,-0.03 0.03,-0.03 0.02,-0.03 0.01,-0.01 0.02,-0.03 0.02,-0.02 0.03,-0.03 0.03,-0.04 0.02,-0.02 0.02,-0.04 0.01,-0.02 0.03,-0.03 0.01,-0.02 0.01,-0.02 0.02,-0.01 0.01,-0.02 h 0.01 l 0.02,-0.02 0.02,-0.01 0.03,-0.01 h 0.01 l 0.03,-0.01 h 0.01 0.04 l 0.07,0.01 h 0.05 0.02 0.02 0.03 0.03 0.01 0.01 l 0.03,-0.01 h 0.04 l 0.03,-0.02 0.03,-0.01 0.01,-0.01 0.04,-0.01 0.02,-0.01 0.02,-0.01 h 0.01 l 0.02,-0.01 h 0.02 0.04 0.03 0.05 0.06 0.06 l 0.07,0.02 h 0.01 0.02 l 0.05,0.01 0.06,0.01 0.04,0.01 h 0.03 0.03 0.03 0.03 l 0.03,-0.01 0.06,-0.01 0.07,-0.03 0.05,-0.02 0.04,-0.01 0.03,-0.01 0.02,-0.01 h 0.02 l 0.03,-0.01 h 0.03 l 0.02,0.01 h 0.04 l 0.03,0.01 0.02,0.01 0.04,0.01 0.04,0.02 0.03,0.02 0.03,0.03 0.01,0.01 0.02,0.01 h 0.04 0.03 0.03 0.03 0.02 l 0.03,-0.02 0.04,-0.02 0.02,-0.02 0.04,-0.02 h 0.03 l 0.03,-0.01 h 0.02 0.02 0.03 0.03 l 0.05,0.01 0.03,-0.02 0.04,-0.01 0.06,-0.02 0.03,-0.01 h 0.02 l 0.01,-0.01 0.02,-0.01 0.02,-0.01 0.01,-0.01 h 0.01 l 0.03,-0.02 0.01,-0.02 0.03,-0.02 0.02,-0.02 0.02,-0.01 h 0.03 l 0.02,-0.01 h 0.01 l 0.05,-0.01 h 0.03 0.05 0.04 l 0.04,-0.01 0.04,0.01 h 0.02 l 0.04,0.01 0.04,0.02 0.06,0.02 0.03,0.02 0.05,0.04 0.03,0.01 0.02,0.01 0.02,0.02 0.03,0.01 0.05,0.02 0.03,0.01 0.02,0.02 0.04,0.02 0.03,0.02 h 0.01 l 0.8,-0.43 z"
       id="path110" />
  </g>
</svg>
