<?xml version="1.0" encoding="UTF-8" standalone="no"?>
<svg
   version="1.2"
   width="800"
   height="642"
   viewBox="0 0 800 642"
   stroke-linecap="round"
   stroke-linejoin="round"
   id="svg95"
   sodipodi:docname="Aiziritze.svg"
   inkscape:version="1.1.2 (b8e25be833, 2022-02-05)"
   xmlns:inkscape="http://www.inkscape.org/namespaces/inkscape"
   xmlns:sodipodi="http://sodipodi.sourceforge.net/DTD/sodipodi-0.dtd"
   xmlns="http://www.w3.org/2000/svg"
   xmlns:svg="http://www.w3.org/2000/svg">
  <defs
     id="defs99" />
  <sodipodi:namedview
     id="namedview97"
     pagecolor="#ffffff"
     bordercolor="#666666"
     borderopacity="1.0"
     inkscape:pageshadow="2"
     inkscape:pageopacity="0.0"
     inkscape:pagecheckerboard="0"
     showgrid="false"
     inkscape:zoom="1.3146417"
     inkscape:cx="399.72867"
     inkscape:cy="321.38033"
     inkscape:window-width="1848"
     inkscape:window-height="1016"
     inkscape:window-x="72"
     inkscape:window-y="1107"
     inkscape:window-maximized="1"
     inkscape:current-layer="svg95" />
  <g
     id="Aiziritze"
     transform="matrix(17.479328,0,0,17.479328,-11738.428,-1018.4168)">
    <path
       d="m 691.19,73.92 v -0.14 l 0.01,-0.2 0.02,-0.15 0.02,-0.13 0.06,-0.15 0.1,-0.23 0.12,-0.28 0.1,-0.23 0.02,-0.05 0.03,-0.13 0.01,-0.02 0.02,-0.14 v -0.1 l -0.02,-0.23 -0.02,-0.26 v -0.1 l -0.02,-0.19 -0.04,-0.16 -0.02,-0.24 -0.03,-0.42 v -0.06 l 0.01,-0.02 v -0.07 l 0.03,-0.14 0.08,-0.2 0.05,-0.13 0.09,-0.13 0.06,-0.09 0.03,-0.06 0.03,-0.11 0.02,-0.16 0.01,-0.05 v -0.03 -0.05 -0.06 l -0.02,-0.06 -0.02,-0.07 -0.02,-0.04 -0.01,-0.06 -0.01,-0.05 -0.01,-0.05 v -0.02 l -0.01,-0.02 v -0.01 l -0.01,-0.06 -0.01,-0.05 -0.02,-0.06 -0.05,-0.09 -0.03,-0.06 -0.02,-0.1 -0.04,-0.18 -0.06,-0.33 -0.01,-0.12 -0.03,-0.13 -0.07,-0.25 -0.02,-0.08 -0.02,-0.04 -0.03,-0.09 -0.02,-0.06 -0.02,-0.1 -0.02,-0.11 -0.01,-0.07 v -0.07 -0.09 -0.11 -0.09 l 0.01,-0.09 v -0.09 l -0.01,-0.09 v -0.09 l -0.01,-0.09 -0.02,-0.06 v -0.05 l -0.01,-0.06 v -0.1 l 0.02,-0.14 0.01,-0.07 0.02,-0.17 0.01,-0.09 0.06,-0.33 0.02,-0.05 0.04,0.01 0.02,0.02 0.2,0.13 0.14,0.09 0.03,0.02 0.04,0.01 h 0.03 l 0.02,-0.01 0.01,-0.03 0.02,-0.03 0.04,-0.02 0.04,-0.05 0.1,-0.07 0.04,-0.02 h 0.01 l 0.03,0.01 0.03,0.02 0.05,0.01 0.05,0.01 0.05,0.01 0.04,0.01 0.02,0.01 0.01,0.01 0.02,0.02 0.01,0.02 0.02,0.01 0.02,0.01 0.22,0.01 0.21,0.02 h 0.09 0.03 0.01 0.02 l 0.14,0.03 0.01,-0.02 0.01,-0.04 0.07,-0.12 0.06,-0.09 0.05,-0.03 0.06,-0.03 0.04,-0.04 0.09,-0.1 0.06,-0.06 0.05,-0.04 0.03,-0.01 0.03,-0.03 0.02,-0.02 0.1,-0.11 0.04,-0.04 0.02,-0.04 0.01,-0.04 0.02,-0.02 0.32,-0.03 0.18,-0.19 0.39,-0.45 0.08,-0.18 0.02,-0.11 -0.13,-0.18 0.01,-0.16 0.05,-0.25 0.21,0.16 0.21,0.07 0.01,0.07 0.01,0.02 0.01,0.01 0.05,0.04 0.08,0.06 0.09,0.07 0.13,0.1 0.06,0.03 0.03,0.02 0.05,0.02 0.08,0.05 0.12,0.06 0.05,0.03 0.08,0.05 0.05,0.03 0.05,0.04 0.05,0.04 0.1,0.07 0.07,0.05 0.05,0.04 0.02,0.02 0.01,0.02 0.02,0.04 0.03,0.04 0.03,0.03 0.03,0.03 0.07,0.04 0.06,0.03 0.06,0.03 0.02,0.01 -0.16,0.45 -0.02,0.49 0.05,0.15 -0.07,0.14 -0.09,0.16 h -0.07 l -0.09,-0.01 h -0.16 l -0.06,0.07 0.01,0.16 0.09,0.15 0.03,0.16 -0.21,0.27 v 0.06 l 0.31,0.1 0.18,0.03 v 0.05 l -0.01,0.17 -0.01,0.13 -0.03,0.11 -0.05,0.12 v 0.02 l -0.45,-0.11 -0.06,0.21 -0.17,0.44 -0.16,0.24 -0.15,0.09 -0.31,0.02 -0.05,0.02 v 0.06 l 0.09,0.06 0.21,0.16 0.02,0.09 -0.16,0.01 -0.23,-0.07 -0.17,-0.13 -0.05,-0.02 -0.04,0.04 -0.18,0.49 v 0.17 l 0.07,0.07 0.13,0.01 0.04,-0.09 0.12,-0.08 0.33,-0.02 0.18,0.04 0.02,0.07 -0.09,0.21 -0.02,0.15 0.27,0.39 -0.01,0.01 -0.17,0.09 -0.17,0.09 -0.05,0.03 -0.18,0.09 -0.08,0.05 -0.06,0.05 0.34,0.35 -0.01,0.09 -0.13,0.36 -0.03,0.14 0.34,0.1 0.14,0.18 0.27,0.07 0.2,0.15 0.04,0.04 0.05,0.03 h 0.03 l 0.03,0.03 0.21,0.25 0.01,0.03 0.01,0.02 0.05,0.07 0.22,0.27 v 0.03 0.03 0.02 l 0.11,0.21 0.03,0.03 0.02,0.01 0.03,0.01 0.01,0.03 v 0.03 l -0.01,0.01 -0.04,0.02 -0.04,0.02 -0.02,0.03 -0.05,0.05 -0.05,0.03 -0.06,0.05 0.03,0.25 -0.05,0.21 -0.05,0.13 -0.03,0.11 0.27,-0.02 0.18,0.16 0.09,0.01 0.08,-0.09 0.05,-0.19 0.06,-0.05 0.31,-0.09 0.25,0.29 0.12,-0.08 0.08,-0.16 0.08,-0.03 0.34,0.29 -0.01,0.01 -0.16,0.14 -0.26,0.2 0.15,0.24 0.2,0.46 -0.3,0.16 -0.06,0.27 -0.06,0.13 -0.08,0.05 -0.52,0.11 -0.19,0.08 -0.12,0.29 -0.04,0.02 -0.11,-0.13 -0.06,-0.02 -0.06,0.08 -0.03,0.09 0.27,0.12 0.7,0.2 0.15,0.12 0.06,0.06 0.27,0.19 -0.08,0.31 0.05,0.05 0.13,0.01 0.3,-0.23 0.2,-0.09 0.62,0.28 v 0.04 l -0.31,0.05 -0.26,0.07 -0.37,0.02 -0.2,0.09 -0.16,0.02 -0.11,-0.07 -0.19,0.03 -0.08,-0.18 -0.07,0.02 -0.08,0.03 -0.05,0.02 -0.05,0.04 -0.03,0.04 -0.03,0.04 -0.02,0.09 -0.02,0.09 -0.04,0.14 -0.08,0.18 -0.03,0.05 -0.05,0.05 -0.15,0.14 -0.04,0.05 -0.03,0.04 -0.02,0.06 -0.03,0.13 0.03,0.17 -0.03,0.02 -0.14,0.09 -0.13,0.12 -0.22,0.25 -0.38,0.41 -0.28,0.3 -0.26,0.28 -0.22,0.24 -0.07,0.09 0.11,0.05 0.18,0.06 0.11,0.05 0.1,0.05 0.12,0.06 -0.03,0.06 h -0.05 -0.06 l -0.04,0.01 -0.05,0.12 -0.03,0.13 0.02,0.14 0.03,0.12 -0.01,0.08 0.01,0.07 0.02,0.04 0.05,0.06 0.03,0.07 0.01,0.07 v 0.13 l 0.01,0.19 -0.01,0.04 -0.03,0.03 -0.08,0.07 -0.01,0.04 v 0.05 l 0.06,0.15 0.07,0.13 0.05,0.09 0.01,0.07 -0.02,0.06 -0.03,0.07 v 0.06 l 0.05,0.23 0.01,0.07 -0.01,0.06 v 0.09 l 0.01,0.05 0.04,0.05 v 0.04 l -0.04,0.06 -0.04,0.08 -0.03,0.1 -0.02,0.06 -0.03,0.02 -0.07,0.03 -0.03,0.01 h -0.04 l -0.03,0.02 -0.03,0.01 -0.03,0.06 -0.02,0.02 -0.04,0.02 -0.02,0.01 -0.03,0.02 -0.03,0.05 -0.02,0.08 -0.02,0.09 -0.04,0.03 -0.07,-0.01 -0.04,-0.01 h -0.04 l -0.05,0.01 -0.08,0.05 -0.05,0.01 h -0.04 -0.03 l -0.04,0.02 -0.02,0.03 v 0.05 l -0.01,0.09 -0.03,0.05 -0.09,0.05 -0.11,0.05 -0.08,0.1 -0.1,0.12 -0.1,0.09 h -0.06 -0.07 -0.02 l -0.01,0.01 -0.07,0.05 -0.02,0.04 -0.02,0.06 -0.13,0.09 -0.06,0.07 -0.07,0.04 -0.03,0.01 -0.12,-0.02 -0.13,0.01 -0.04,0.04 -0.14,0.12 -0.1,0.1 -0.1,0.1 -0.1,0.12 -0.04,0.05 0.41,0.36 -0.5,0.18 -0.37,0.12 -0.06,0.22 -0.03,0.01 -0.28,0.41 0.11,0.1 -0.04,0.16 0.28,0.03 0.22,0.08 -0.03,0.16 -0.21,0.44 -0.01,-0.01 -0.02,-0.01 -0.03,-0.02 -0.03,-0.01 -0.03,-0.02 h -0.03 l -0.02,-0.01 h -0.03 -0.03 -0.03 -0.02 l -0.03,0.01 h -0.03 -0.04 l -0.04,0.01 -0.03,0.01 -0.04,0.01 h -0.04 l -0.04,0.02 -0.03,0.01 -0.03,0.01 -0.05,0.01 -0.03,0.01 -0.03,0.02 -0.02,0.01 -0.03,0.01 h -0.04 l -0.03,0.01 h -0.03 l -0.04,0.01 h -0.03 l -0.03,-0.01 h -0.02 l -0.02,-0.01 -0.02,-0.02 V 87.52 L 691.54,87.5 V 87.49 87.46 87.43 87.4 87.38 87.35 l -0.01,-0.04 -0.01,-0.03 v -0.03 l -0.01,-0.03 v -0.03 -0.03 l -0.01,-0.09 v -0.02 -0.11 l -0.02,-0.26 -0.03,-0.07 -0.03,-0.04 -0.02,-0.01 -0.1,-0.05 -0.22,-0.05 -0.05,-0.01 -0.25,0.02 -0.11,0.03 -0.18,0.06 -0.33,0.14 -0.48,0.24 h -0.04 -0.05 l -0.18,-0.08 -0.23,-0.17 -0.08,-0.08 -0.01,-0.06 V 86.5 l 0.01,-0.03 0.02,-0.04 0.07,-0.06 0.13,-0.08 0.14,-0.12 0.01,-0.01 0.06,-0.08 0.06,-0.09 0.03,-0.04 0.08,-0.15 0.03,-0.09 0.08,-0.22 0.08,-0.22 0.09,-0.35 0.12,-0.44 0.07,-0.25 0.02,-0.13 0.02,-0.09 0.02,-0.19 0.04,-0.16 0.15,-0.44 0.08,-0.13 -0.27,-0.16 -0.19,0.36 -0.26,-0.19 -0.13,-0.06 -0.39,-0.24 0.01,-0.05 0.04,-0.18 0.03,-0.11 0.02,-0.06 0.04,-0.12 0.03,-0.13 0.02,-0.05 0.03,-0.14 v -0.08 -0.15 l 0.03,-0.27 0.01,-0.18 0.01,-0.11 0.04,-0.19 0.04,-0.1 v -0.06 l 0.01,-0.04 -0.02,-0.15 -0.03,-0.08 -0.04,-0.03 h -0.03 l -0.09,0.05 -0.04,0.01 h -0.03 -0.04 l -0.04,-0.04 -0.04,-0.09 v -0.04 l 0.01,-0.07 0.04,-0.14 0.15,-0.2 0.06,-0.13 0.08,-0.18 0.18,0.06 0.2,-0.44 0.21,0.02 0.2,0.02 v -0.08 -0.19 l 0.02,-0.12 0.03,-0.22 0.11,-0.34 v -0.04 l 0.01,-0.07 0.03,-0.09 0.03,-0.03 0.05,-0.04 0.03,-0.08 0.02,-0.03 0.07,-0.1 0.06,-0.12 0.1,-0.19 0.09,-0.19 0.03,-0.1 0.01,-0.07 v -0.07 -0.11 l -0.03,-0.12 -0.03,-0.2 -0.01,-0.16 -0.02,-0.22 0.01,-0.05 v -0.03 l 0.01,-0.21 -0.01,-0.17 -0.01,-0.26 v -0.13 -0.11 l 0.03,-0.28 0.02,-0.15 0.04,-0.24 0.04,-0.16 0.05,-0.27 0.04,-0.21 0.01,-0.09 z"
       id="path92" />
  </g>
</svg>
