<?xml version="1.0" encoding="UTF-8" standalone="no"?>
<svg
   version="1.2"
   width="800"
   height="642"
   viewBox="0 0 800 642"
   stroke-linecap="round"
   stroke-linejoin="round"
   id="svg41"
   sodipodi:docname="Akamarre.svg"
   inkscape:version="1.1.2 (b8e25be833, 2022-02-05)"
   xmlns:inkscape="http://www.inkscape.org/namespaces/inkscape"
   xmlns:sodipodi="http://sodipodi.sourceforge.net/DTD/sodipodi-0.dtd"
   xmlns="http://www.w3.org/2000/svg"
   xmlns:svg="http://www.w3.org/2000/svg">
  <defs
     id="defs45" />
  <sodipodi:namedview
     id="namedview43"
     pagecolor="#ffffff"
     bordercolor="#666666"
     borderopacity="1.0"
     inkscape:pageshadow="2"
     inkscape:pageopacity="0.0"
     inkscape:pagecheckerboard="0"
     showgrid="false"
     inkscape:zoom="1.3146417"
     inkscape:cx="399.72867"
     inkscape:cy="321.38033"
     inkscape:window-width="1848"
     inkscape:window-height="1016"
     inkscape:window-x="72"
     inkscape:window-y="1107"
     inkscape:window-maximized="1"
     inkscape:current-layer="svg41" />
  <g
     id="Akamarre"
     transform="matrix(16.631342,0,0,16.631342,-10650.571,-152.40558)">
    <path
       d="m 680.45,34.62 -0.05,0.03 -0.03,0.03 -0.02,0.01 -0.04,0.02 -0.04,0.02 h -0.04 l -0.03,0.02 -0.05,0.02 -0.07,0.02 -0.09,0.01 -0.1,0.02 -0.05,0.02 -0.06,0.04 -0.01,0.02 -0.02,0.01 -0.06,0.06 -0.05,0.08 -0.01,0.04 -0.02,0.03 -0.03,0.02 -0.04,0.03 -0.04,0.03 -0.02,0.02 -0.04,0.02 -0.03,0.02 -0.04,0.01 -0.04,0.01 -0.04,0.01 -0.03,0.01 -0.05,0.03 -0.03,0.02 -0.03,0.03 -0.04,0.03 -0.02,0.02 -0.03,0.03 -0.04,0.03 -0.03,0.03 -0.03,0.03 -0.03,0.03 -0.03,0.03 -0.05,0.03 h -0.01 l -0.02,0.01 -0.04,0.01 h -0.04 l -0.03,0.01 h -0.03 l -0.04,0.01 -0.04,0.02 -0.04,0.02 -0.06,0.02 -0.15,0.34 -0.17,0.19 -0.1,0.09 v 0.06 0.04 0.04 l 0.01,0.06 0.01,0.1 0.01,0.05 0.01,0.05 0.01,0.04 0.01,0.05 v 0.06 0.04 l -0.02,0.07 -0.02,0.06 -0.02,0.04 -0.02,0.04 -0.02,0.04 -0.03,0.06 -0.02,0.03 -0.03,0.04 -0.03,0.02 -0.04,0.02 -0.04,0.03 -0.05,0.05 -0.03,0.03 -0.03,0.06 -0.02,0.04 -0.02,0.05 -0.03,0.04 -0.04,0.04 -0.04,0.03 -0.04,0.02 -0.04,0.03 -0.04,0.03 -0.04,0.06 -0.05,0.06 -0.03,0.03 -0.03,0.02 -0.06,0.05 -0.04,0.03 -0.04,0.01 -0.06,0.01 -0.05,0.02 -0.04,0.01 h -0.04 l -0.07,0.01 -0.03,0.01 -0.01,0.01 -0.02,0.01 -0.01,0.02 -0.02,0.01 -0.03,0.01 h -0.03 -0.03 -0.04 l -0.04,-0.01 -0.02,-0.09 -0.01,-0.07 v -0.05 l -0.01,-0.06 v -0.05 l -0.02,-0.14 -0.02,-0.05 -0.03,-0.05 -0.03,-0.06 -0.03,-0.04 -0.08,-0.05 -0.15,-0.1 -0.04,-0.02 -0.02,-0.01 -0.08,-0.02 -0.06,-0.01 h -0.04 l -0.07,0.01 -0.08,0.07 -0.12,0.1 -0.07,0.05 -0.03,0.02 -0.05,0.02 -0.03,0.01 -0.06,0.02 -0.01,0.01 -0.13,0.04 -0.04,0.03 -0.04,0.04 -0.04,0.05 -0.01,0.03 -0.03,0.04 -0.03,0.04 -0.06,0.09 -0.03,0.06 -0.05,0.12 -0.02,0.05 -0.04,0.13 -0.02,0.05 -0.03,0.07 -0.01,0.02 v 0.02 l -0.01,0.04 0.01,0.08 0.01,0.12 0.01,0.08 0.01,0.06 v 0.08 0.06 l -0.01,0.06 -0.01,0.05 -0.03,0.08 v 0.03 l -0.05,0.13 -0.04,0.09 -0.04,0.07 -0.03,0.07 -0.02,0.09 -0.01,0.08 v 0.13 l -0.01,0.12 0.01,0.1 -0.01,0.12 v 0.13 l 0.01,0.12 -0.01,0.09 v 0.09 l -0.02,0.08 -0.06,0.15 -0.04,0.07 -0.12,0.16 -0.13,0.17 -0.13,0.14 -0.12,0.13 -0.07,0.05 -0.06,0.05 -0.05,0.01 -0.04,0.01 h -0.05 -0.03 l -0.11,-0.02 -0.18,-0.03 -0.25,-0.04 -0.21,-0.06 -0.09,-0.07 -0.08,-0.08 -0.08,-0.13 -0.03,-0.1 -0.02,-0.05 -0.05,-0.1 -0.09,-0.14 -0.06,-0.12 -0.05,-0.1 -0.02,-0.03 -0.02,-0.1 -0.02,0.01 -0.56,0.24 -0.59,0.25 -0.39,0.14 -0.13,0.05 h -0.03 l -0.07,0.02 -0.05,0.02 -0.08,0.01 h -0.03 -0.01 l -0.4,0.03 -0.27,0.02 -0.1,0.01 -0.33,0.03 -0.19,0.01 -0.25,0.02 -0.27,0.02 -0.39,0.03 -0.11,0.01 -0.3,0.03 -0.11,0.01 -0.09,-0.09 -0.04,-0.04 -0.41,-0.44 -0.12,-0.12 -0.44,-0.48 -0.11,-0.12 -0.1,-0.1 -0.56,-0.6 -0.08,-0.09 0.04,-0.1 0.11,-0.28 0.01,-0.05 0.01,-0.03 0.2,-0.45 0.02,-0.06 0.15,-0.35 0.08,-0.17 0.05,-0.12 0.05,-0.14 0.05,-0.15 0.06,-0.17 0.07,-0.17 0.07,-0.18 0.06,-0.15 0.04,-0.09 0.01,-0.03 v -0.03 l 0.13,-0.26 -0.09,-0.1 -0.03,-0.04 -0.02,-0.01 -0.02,-0.01 -0.02,0.02 -0.02,-0.02 h -0.01 l -0.01,0.01 -0.02,0.01 -0.02,-0.01 h -0.02 l -0.01,-0.01 -0.02,-0.01 -0.02,0.01 -0.01,0.02 -0.01,0.01 h -0.03 l -0.03,-0.01 -0.02,-0.01 -0.09,-0.03 h -0.03 l -0.02,0.01 -0.07,0.03 -0.07,0.02 h -0.02 l -0.02,-0.01 -0.04,-0.02 h -0.02 l -0.02,0.01 h -0.01 l -0.03,0.01 h -0.02 l -0.03,0.01 -0.04,0.01 h -0.03 -0.02 l -0.01,0.02 -0.01,0.02 h -0.02 l -0.01,0.01 -0.02,0.01 v 0.02 0.02 l -0.02,0.01 -0.01,-0.01 -0.04,-0.01 -0.07,0.04 v 0.01 l -0.01,0.01 -0.01,0.01 h -0.01 -0.01 l -0.01,-0.01 -0.03,0.01 -0.03,0.01 -0.05,0.03 -0.05,0.01 h -0.03 -0.05 -0.07 l -0.07,0.01 -0.1,0.01 -0.08,0.01 -0.07,0.01 -0.05,0.01 -0.07,0.02 -0.05,0.01 h -0.01 l -0.02,0.01 h -0.04 -0.03 -0.04 l -0.18,0.02 -0.12,0.02 h -0.03 l -0.07,-0.01 -0.07,-0.01 -0.08,-0.02 -0.06,-0.01 -0.01,-0.01 h -0.04 l -0.21,0.01 h -0.02 l -0.02,0.01 -0.08,0.07 -0.02,0.01 -0.07,-0.02 -0.62,0.13 -0.15,0.03 -0.02,-0.23 -0.02,-0.16 0.03,-0.1 -0.05,-0.01 -0.2,-0.06 v -0.25 l -0.01,-0.24 v -0.04 l -0.01,-0.17 -0.03,-0.02 v -0.04 l -0.01,-0.01 -0.02,-0.01 -0.03,-0.01 -0.06,-0.02 -0.02,-0.01 -0.01,-0.01 -0.01,-0.01 -0.27,-0.08 -0.1,0.04 -0.02,-0.01 -0.03,-0.07 -0.02,-0.03 v -0.01 l -0.01,-0.03 -0.01,-0.03 V 35.2 35.18 l 0.01,-0.03 0.01,-0.03 0.01,-0.03 0.01,-0.01 0.01,-0.02 h 0.01 l 0.01,-0.01 h 0.02 0.01 l 0.01,0.01 v 0.02 l 0.02,0.01 v 0.02 h 0.01 l 0.01,0.02 0.01,0.03 0.03,0.01 0.03,0.02 0.02,0.01 0.02,0.01 0.02,0.01 0.01,0.01 h 0.01 V 35.2 l 0.01,-0.02 0.02,-0.02 0.02,-0.01 0.03,0.01 h 0.03 l 0.05,0.01 0.08,0.02 0.02,0.01 0.07,0.01 0.08,-0.01 0.09,0.01 0.06,-0.01 0.02,-0.01 0.01,-0.01 0.03,-0.01 0.04,-0.01 0.07,0.01 h 0.04 l 0.18,0.01 h 0.07 l 0.07,-0.01 0.03,-0.02 0.02,-0.02 0.02,-0.02 0.04,-0.04 0.08,-0.14 0.06,-0.11 0.06,-0.1 0.03,-0.04 0.05,-0.07 0.02,-0.04 0.02,-0.05 0.01,-0.04 v -0.02 -0.03 l -0.01,-0.05 -0.01,-0.03 -0.02,-0.06 -0.03,-0.06 -0.04,-0.08 -0.04,-0.07 -0.07,-0.08 -0.06,-0.05 -0.04,-0.02 -0.02,-0.02 -0.08,-0.06 -0.08,-0.06 0.28,-0.25 0.02,-0.01 0.01,-0.01 0.02,-0.02 0.09,-0.08 0.09,-0.07 0.05,-0.14 0.25,-0.67 0.02,-0.02 0.03,-0.04 0.16,-0.19 0.14,-0.16 0.1,-0.1 0.05,-0.03 0.21,-0.1 0.01,-0.02 0.04,-0.04 0.02,-0.02 0.02,-0.01 0.04,-0.04 0.03,-0.01 0.11,-0.02 0.03,-0.01 0.03,0.01 h 0.03 l 0.03,0.01 0.03,0.01 0.03,0.02 0.04,0.01 h 0.01 v -0.12 l -0.03,-0.08 -0.02,-0.06 h -0.04 l -0.06,-0.01 h -0.12 l -0.01,-0.02 -0.01,-0.02 -0.01,-0.04 -0.01,-0.01 -0.01,-0.03 v -0.04 l 0.02,-0.05 0.01,-0.04 0.02,-0.06 0.02,-0.03 0.02,-0.05 0.02,-0.04 0.01,-0.05 0.01,-0.06 V 30.86 30.81 30.77 30.72 30.6 30.5 30.46 30.44 l -0.01,-0.04 0.03,-0.06 -0.08,-0.24 -0.03,-0.16 v -0.01 l 0.02,-0.01 0.01,-0.02 0.02,-0.01 -0.09,-0.08 -0.19,-0.27 -0.01,-0.01 -0.04,-0.03 -0.15,-0.1 -0.03,-0.04 -0.07,-0.07 -0.07,-0.09 -0.06,-0.08 -0.08,-0.1 -0.01,-0.01 -0.02,-0.03 -0.07,-0.08 -0.02,-0.02 -0.07,-0.09 -0.07,-0.09 -0.08,-0.09 -0.1,-0.13 -0.02,-0.02 -0.07,-0.1 -0.07,-0.08 -0.04,-0.05 -0.04,-0.04 -0.01,-0.01 -0.07,-0.15 -0.04,-0.06 -0.11,-0.11 -0.09,-0.12 -0.02,-0.02 -0.02,-0.02 -0.02,-0.01 -0.02,-0.02 h -0.03 l -0.01,0.01 h -0.01 l -0.04,0.01 -0.22,-0.22 -0.13,-0.12 -0.04,-0.04 0.12,-0.14 -0.15,-0.23 -0.02,-0.02 -0.02,0.02 -0.04,-0.08 -0.06,-0.14 -0.06,0.05 -0.01,0.01 -0.21,-0.24 -0.16,-0.13 -0.03,-0.02 -0.06,-0.06 -0.01,-0.01 -0.1,-0.05 -0.05,-0.03 h -0.01 l -0.01,-0.07 -0.01,-0.16 v -0.04 l 0.07,-0.01 0.04,-0.32 v -0.02 -0.01 -0.03 l -0.01,-0.1 V 25.39 L 662,25.32 661.98,25.24 v -0.01 l -0.01,-0.04 -0.02,-0.06 -0.03,-0.03 -0.15,-0.08 -0.1,-0.05 -0.04,-0.01 h -0.01 -0.03 l -0.1,0.02 -0.03,0.02 -0.01,-0.02 -0.01,-0.21 v -0.07 0 -0.04 -0.04 l -0.12,0.02 -0.22,0.05 -0.13,0.02 h -0.11 l -0.08,-0.02 -0.05,-0.04 -0.03,-0.1 -0.04,-0.16 -0.06,-0.09 -0.06,-0.06 -0.07,-0.12 -0.03,-0.09 -0.02,-0.11 -0.03,-0.26 -0.04,-0.21 -0.02,-0.18 v -0.12 l 0.03,-0.16 0.03,-0.21 0.01,-0.17 v -0.13 l -0.03,-0.19 -0.06,-0.2 -0.11,-0.25 -0.1,-0.21 -0.08,-0.16 -0.07,-0.19 -0.07,-0.14 -0.08,-0.15 -0.07,-0.14 -0.09,-0.15 -0.05,-0.08 -0.1,-0.18 -0.05,-0.11 -0.01,-0.07 -0.01,-0.05 v -0.06 l -0.02,-0.07 -0.03,-0.12 -0.07,-0.31 -0.03,-0.15 -0.04,-0.14 -0.01,-0.04 0.04,-0.02 0.03,-0.02 0.02,-0.01 h 0.01 0.02 0.02 l 0.03,0.01 h 0.02 0.02 l 0.01,-0.02 0.1,0.05 0.2,-0.09 0.19,-0.09 -0.04,-0.19 h 0.04 0.06 0.03 l 0.03,-0.01 0.03,-0.02 0.03,-0.03 0.06,-0.03 0.03,-0.01 h 0.03 0.02 0.02 l 0.05,-0.02 h 0.02 0.02 l 0.04,0.01 0.05,0.01 0.04,0.01 0.02,0.02 0.01,0.01 h 0.01 0.04 l 0.02,-0.01 0.02,-0.02 0.01,-0.01 0.05,-0.01 0.06,-0.01 0.09,-0.01 0.04,-0.01 0.04,-0.02 0.03,-0.04 0.03,-0.03 0.01,-0.05 0.02,-0.02 v -0.01 l 0.03,-0.01 h 0.03 l 0.03,0.01 0.03,-0.01 0.06,0.01 0.01,-0.01 h 0.02 V 18.61 18.6 l 0.02,-0.01 0.04,0.01 0.03,-0.01 h 0.07 l 0.05,-0.01 0.04,-0.02 0.02,-0.02 0.03,-0.01 0.03,0.01 h 0.01 l 0.01,-0.01 0.02,-0.01 0.04,0.02 h 0.01 l 0.02,0.01 0.01,0.01 0.01,0.01 v 0 h 0.02 0.01 0.01 0.03 0.01 0.01 l 0.01,-0.01 h 0.01 0.01 l 0.01,-0.01 h 0.01 v -0.03 l 0.01,-0.01 h 0.04 l 0.01,0.01 0.01,0.01 h 0.02 l 0.03,-0.01 0.02,-0.01 0.02,-0.02 v -0.02 -0.01 l 0.01,-0.02 0.04,-0.02 h 0.04 0.03 0.04 l 0.02,0.01 0.02,0.01 0.03,0.01 0.05,0.01 h 0.04 l 0.03,-0.01 0.03,-0.01 0.02,-0.01 0.02,0.01 h 0.02 l 0.02,0.03 0.01,0.02 v 0.02 l 0.01,0.01 0.01,0.01 0.01,0.01 0.02,0.01 h 0.03 0.02 0.03 l 0.03,-0.01 0.02,-0.02 0.01,-0.03 0.02,-0.01 v -0.01 l 0.04,-0.01 0.03,0.01 0.03,-0.01 0.05,0.01 0.02,0.02 0.02,0.02 h 0.02 0.03 l 0.03,0.01 0.02,0.02 0.04,0.01 0.04,0.01 0.02,-0.01 0.02,-0.02 0.02,-0.01 h 0.03 l 0.03,0.01 h 0.02 0.04 0.02 l 0.02,0.01 h 0.01 0.01 l 0.02,0.01 0.03,0.01 h 0.02 l 0.02,-0.01 h 0.03 0.05 l 0.16,-0.3 -0.01,-0.11 v -0.03 l 0.04,-0.05 0.05,-0.05 0.03,-0.04 0.01,-0.05 v -0.1 l 0.01,-0.02 0.03,-0.03 0.03,-0.01 0.04,0.02 0.04,-0.06 0.13,-0.26 0.05,-0.06 0.22,-0.08 h 0.02 l 0.06,-0.04 0.02,-0.01 0.22,-0.22 0.04,-0.15 0.03,-0.1 0.02,-0.08 -0.01,-0.06 0.01,-0.15 0.01,-0.17 -0.11,-0.21 -0.11,-0.23 0.3,-0.34 0.18,-0.21 0.07,-0.16 -0.02,-0.02 0.21,-0.27 0.14,-0.4 0.05,0.02 0.12,-0.26 0.19,-0.42 0.01,-0.02 0.03,-0.13 0.04,-0.17 0.01,-0.08 0.18,-0.03 0.2,-0.02 0.07,-0.01 0.02,0.01 0.07,0.02 0.01,0.01 0.07,0.02 0.13,0.05 0.1,0.04 0.17,0.07 0.09,0.03 0.26,0.1 0.05,0.02 0.1,0.03 1.06,0.41 v -0.01 h 0.02 l 0.02,0.01 0.19,0.07 0.17,0.07 0.06,0.02 0.02,0.01 h 0.01 l 0.11,0.04 0.19,0.07 0.01,0.01 0.21,0.08 0.15,0.06 0.03,0.01 h 0.01 l 0.01,0.01 h 0.03 0.02 l 0.02,0.01 v 0 l 0.04,0.01 h 0.04 l 0.04,-0.01 h 0.05 l 0.06,-0.01 0.06,0.01 0.04,-0.01 h 0.05 0.04 l 0.03,-0.02 0.01,-0.01 0.02,-0.02 0.04,-0.02 0.05,-0.01 0.05,-0.03 0.04,-0.02 0.05,-0.03 0.05,-0.03 0.02,-0.03 0.01,-0.02 0.02,-0.01 h 0.03 l 0.13,-0.03 -0.01,-0.05 0.01,-0.03 v -0.03 l 0.01,-0.01 0.01,-0.03 0.02,-0.05 0.01,-0.05 0.02,-0.04 0.01,-0.03 v -0.01 l 0.01,-0.02 0.01,-0.02 0.02,-0.02 0.01,-0.02 0.01,-0.02 0.01,-0.02 0.01,-0.01 0.02,-0.02 0.05,-0.03 0.04,-0.03 0.02,-0.01 0.03,-0.01 0.02,-0.02 0.03,-0.01 0.03,-0.01 0.03,-0.01 h 0.02 l 0.02,-0.01 h 0.01 l 0.03,-0.01 0.02,-0.01 h 0.01 l 0.01,-0.01 h 0.01 l 0.06,0.08 v 0.01 l 0.02,0.02 0.01,0.02 0.03,0.02 0.02,0.02 0.04,0.04 0.03,0.03 0.02,0.01 0.01,0.02 0.03,0.03 0.02,0.03 0.05,0.03 0.04,0.04 0.03,0.03 0.05,0.04 0.04,0.03 0.04,0.03 0.02,0.03 0.02,0.01 0.03,0.02 0.08,0.07 0.11,0.11 0.08,0.07 0.04,-0.08 0.04,-0.09 0.02,-0.03 0.1,-0.19 0.05,-0.1 0.05,-0.11 0.03,-0.04 0.01,-0.03 0.02,-0.04 0.02,-0.03 0.02,-0.05 0.02,-0.02 0.01,-0.02 0.02,-0.04 0.27,-0.47 0.19,-0.32 0.14,-0.38 0.06,-0.06 0.05,-0.06 0.09,-0.03 0.01,-0.09 0.01,-0.02 0.01,-0.04 0.02,-0.02 0.05,-0.07 0.01,-0.05 0.01,-0.02 0.01,-0.04 0.01,-0.02 0.02,-0.03 0.03,-0.04 0.02,-0.03 0.06,-0.05 0.04,-0.01 0.04,-0.02 0.04,-0.01 0.03,-0.02 0.04,-0.02 0.03,-0.02 0.03,-0.03 0.01,-0.03 0.03,-0.05 v -0.02 l -0.01,-0.04 -0.02,-0.03 v -0.03 l 0.01,-0.03 -0.02,-0.04 -0.04,-0.11 -0.02,-0.03 v -0.01 l -0.01,-0.03 -0.01,-0.03 0.01,-0.02 V 11.2 11.17 l 0.02,-0.03 v -0.03 l 0.01,-0.04 v -0.03 l -0.03,-0.07 -0.01,-0.02 v -0.03 -0.04 -0.03 l -0.01,-0.03 v -0.05 -0.06 l 0.01,-0.05 v -0.04 -0.04 l 0.01,-0.04 0.01,-0.03 v -0.04 -0.04 l -0.01,-0.03 -0.02,-0.03 -0.04,-0.05 -0.02,-0.02 -0.01,-0.03 -0.01,-0.04 -0.01,-0.02 -0.01,-0.04 v -0.01 -0.04 -0.01 -0.02 l 0.01,-0.04 0.01,-0.03 V 9.97 l 0.01,-0.03 -0.01,-0.05 0.02,-0.1 V 9.75 l 0.04,0.01 h 0.03 l 0.02,0.02 0.02,0.02 0.02,0.01 h 0.01 l 0.03,-0.01 h 0.03 l 0.02,0.01 0.05,0.03 0.03,0.02 0.03,0.01 0.03,0.01 0.03,0.04 0.01,0.03 0.01,0.03 0.01,0.02 0.01,0.02 0.03,0.03 0.02,0.02 0.03,0.03 0.01,0.02 0.01,0.04 v 0.02 l -0.01,0.04 -0.02,0.02 -0.02,0.03 0.01,0.03 0.02,0.04 0.02,0.02 0.03,0.03 0.03,0.02 0.01,0.03 0.02,0.02 0.02,0.01 h 0.04 0.02 l 0.03,-0.01 h 0.07 0.04 l 0.03,0.01 0.03,0.01 0.03,0.01 0.03,-0.01 0.03,-0.01 0.02,-0.01 h 0.03 0.04 0.08 0.04 l 0.03,0.02 0.02,0.03 0.03,0.05 0.02,0.02 0.03,0.02 0.04,0.02 0.05,0.03 0.03,0.03 v 0.05 0.02 0.02 l 0.02,0.04 v 0.01 l 0.02,0.04 0.01,0.07 0.03,0.04 0.03,0.05 0.04,0.04 0.05,0.04 0.04,0.02 0.05,0.01 0.06,-0.01 h 0.05 l 0.05,-0.01 h 0.04 0.04 0.03 l 0.03,-0.01 0.04,-0.02 0.02,-0.01 0.02,0.01 0.03,0.1 0.04,0.09 0.02,0.04 0.04,0.04 0.05,0.03 0.05,0.03 0.02,0.04 v 0.03 0.05 l 0.02,0.01 h 0.03 l 0.03,-0.01 0.03,-0.01 0.05,0.03 0.01,0.02 0.01,0.03 0.02,0.07 0.01,0.04 -0.02,0.05 -0.04,0.03 -0.01,0.01 -0.02,0.04 -0.02,0.05 v 0.05 l 0.01,0.01 0.01,0.03 0.02,0.03 v 0.05 l 0.02,0.05 0.03,0.06 0.02,0.04 0.01,0.04 0.01,0.04 0.01,0.04 -0.01,0.06 -0.02,0.03 -0.03,0.03 -0.02,0.03 -0.02,0.04 v 0.03 l -0.01,0.01 0.01,0.05 0.01,0.04 0.01,0.04 -0.01,0.04 0.01,0.02 0.01,0.03 v 0.03 l -0.02,0.02 -0.01,0.03 v 0.04 l 0.03,0.04 0.02,0.02 v 0.02 l -0.01,0.02 0.01,0.02 0.03,0.02 0.02,0.02 0.02,0.04 v 0.03 l -0.01,0.02 -0.02,0.03 -0.01,0.04 0.01,0.01 0.02,0.04 0.04,0.02 0.03,0.05 v 0.06 0.04 l -0.01,0.03 v 0.03 l 0.02,0.04 0.04,0.03 0.05,0.03 h 0.01 l 0.04,0.03 0.06,0.08 0.04,0.05 0.03,0.05 0.02,0.06 0.01,0.04 -0.01,0.05 v 0.05 l -0.02,0.04 -0.01,0.05 0.01,0.06 -0.01,0.07 -0.03,0.03 -0.03,0.01 -0.03,0.01 -0.02,-0.01 h -0.04 l -0.01,0.02 -0.03,0.02 -0.01,0.02 0.01,0.02 v 0.01 l 0.02,0.02 0.01,0.01 0.04,0.01 0.03,0.07 0.06,0.04 0.06,0.04 0.02,0.04 0.07,0.13 0.08,0.07 0.07,0.06 0.06,0.06 0.04,0.02 0.03,0.05 0.01,0.03 0.01,0.04 0.02,0.04 0.01,0.05 0.02,0.03 0.02,0.02 0.04,0.04 0.05,0.07 0.03,0.03 0.01,0.04 0.08,0.08 0.02,0.06 0.01,0.02 0.02,0.02 v 0.03 l 0.01,0.02 v 0.03 l 0.01,0.04 v 0.02 0.02 l 0.01,0.04 v 0.04 l -0.01,0.03 -0.01,0.03 -0.01,0.02 v 0.03 0.03 0.03 l 0.01,0.02 0.01,0.03 0.01,0.03 v 0.03 l -0.01,0.02 -0.03,0.05 -0.01,0.03 -0.01,0.03 -0.01,0.02 -0.02,0.02 -0.01,0.04 v 0.02 l 0.02,0.04 v 0.02 l 0.01,0.04 0.02,0.03 0.01,0.02 0.01,0.04 v 0.05 0.03 0.04 l -0.02,0.03 -0.01,0.04 -0.02,0.05 v 0.05 0.04 0.03 l 0.01,0.04 -0.01,0.04 -0.01,0.03 -0.02,0.05 -0.02,0.04 -0.02,0.04 v 0.08 0.03 l 0.01,0.02 v 0.02 l 0.01,0.02 0.01,0.02 0.02,0.02 0.01,0.03 v 0.03 l 0.01,0.03 v 0.03 l -0.01,0.02 v 0.02 0.03 l 0.01,0.02 0.02,0.02 0.01,0.01 0.02,0.03 0.01,0.02 0.01,0.03 0.01,0.02 0.01,0.02 0.01,0.02 0.02,0.04 0.01,0.02 0.01,0.02 0.07,0.07 0.01,0.05 0.02,0.03 h 0.02 l 0.02,0.02 0.01,0.01 0.01,0.01 0.01,0.03 0.02,0.04 0.01,0.02 0.01,0.02 0.02,0.02 h 0.01 l 0.02,0.01 h 0.01 0.01 l 0.02,0.03 0.01,0.02 0.02,0.01 h 0.02 0.02 0.02 l 0.02,0.01 0.03,0.01 0.04,0.02 0.02,0.03 0.02,0.05 -0.01,0.03 v 0.03 l -0.03,0.03 -0.04,0.03 -0.03,0.04 -0.01,0.01 -0.01,0.02 v 0.02 0.02 l 0.01,0.01 v 0.02 l 0.01,0.01 v 0.02 l 0.01,0.02 v 0.02 0.03 0.03 l -0.01,0.01 -0.02,0.02 -0.02,0.02 -0.01,0.02 -0.01,0.02 0.01,0.02 v 0.04 l 0.05,0.09 0.08,0.09 0.02,0.03 0.02,0.01 h 0.02 0.02 0.03 l 0.07,-0.04 0.03,-0.02 0.05,-0.01 0.05,-0.01 0.05,0.01 h 0.03 l 0.02,0.01 0.01,0.02 0.01,0.02 v 0.03 0.04 0.03 0.03 l 0.02,0.02 0.02,0.02 0.05,0.04 h 0.02 l 0.03,0.01 0.05,0.03 v 0.01 l 0.01,0.02 0.01,0.01 v 0.01 l 0.01,0.02 0.01,0.03 v 0.01 l 0.01,0.01 0.01,0.01 0.02,0.01 0.02,0.02 0.02,0.02 0.06,-0.04 0.05,-0.03 0.24,0.3 0.11,0.16 -0.18,0.3 0.06,0.07 0.01,0.01 v 0.01 0.02 0 l -0.02,0.02 -0.01,0.04 -0.01,0.02 -0.01,0.01 0.01,0.02 v 0.03 l 0.02,0.13 0.03,0.18 0.02,0.03 0.03,0.06 0.01,0.03 v 0.04 0.11 l 0.01,0.19 0.01,0.15 v 0.02 l -0.01,0.09 -0.01,0.09 -0.01,0.05 v 0.02 l 0.01,0.02 0.03,0.08 0.04,0.09 0.02,0.05 0.01,0.05 0.07,0.28 0.04,0.16 0.02,0.07 -0.01,0.02 v 0.01 l -0.03,0.09 -0.01,0.03 -0.01,0.03 0.01,0.03 0.05,0.06 0.05,0.07 0.03,0.06 0.03,0.04 0.02,0.02 0.01,0.01 0.08,0.04 0.09,0.04 0.08,0.04 0.19,-0.12 0.02,0.01 0.03,0.03 0.03,0.03 0.05,0.07 0.04,0.06 0.04,0.03 0.03,0.02 0.04,0.01 h 0.05 0.02 l 0.01,0.02 0.03,0.05 0.06,0.14 v 0.03 0.02 l -0.01,0.02 h -0.01 l -0.01,0.01 -0.01,0.01 v 0.01 l -0.01,0.02 0.01,0.15 0.01,0.09 0.01,0.04 0.01,0.03 0.03,0.05 0.08,0.12 0.1,0.13 0.06,0.07 0.12,0.16 0.07,0.1 0.06,0.08 0.01,0.01 h 0.01 l 0.01,0.01 0.01,0.02 0.04,0.07 0.04,0.03 h 0.02 0.02 l 0.02,0.01 0.02,0.02 v 0.02 0.02 l -0.01,0.03 0.01,0.04 v 0.01 l 0.08,0.13 0.04,0.05 v 0.01 0.01 l 0.15,0.19 -0.49,0.27 -0.07,-0.07 -0.05,-0.05 v -0.07 l -0.41,-0.06 -0.03,0.02 -0.03,0.01 -0.02,0.02 -0.02,0.02 -0.01,0.03 -0.01,0.02 -0.03,0.01 -0.01,0.01 -0.02,0.01 -0.02,0.01 0.01,0.02 v 0.01 l 0.02,0.02 0.07,0.09 0.02,0.04 0.02,0.04 v 0.06 0.03 l -0.02,0.02 -0.02,0.01 v 0.08 l 0.01,0.03 0.03,0.02 0.03,0.02 0.02,0.01 0.03,0.02 0.01,0.02 v 0.03 l -0.01,0.01 h -0.05 -0.03 -0.02 l -0.01,0.01 -0.03,0.01 v 0.01 0.03 l -0.02,0.01 -0.03,0.01 -0.02,0.01 -0.02,0.01 -0.01,0.03 -0.01,0.04 -0.01,0.04 v 0.03 l 0.01,0.03 0.02,0.03 0.03,0.02 0.02,0.01 0.01,0.02 0.01,0.01 0.01,0.02 -0.02,0.01 -0.03,0.02 -0.01,0.03 0.01,0.02 0.02,0.01 h 0.03 0.03 l 0.02,0.02 0.01,0.01 0.01,0.03 v 0.02 l -0.02,0.01 -0.02,0.02 h -0.01 l -0.03,0.01 -0.02,0.01 -0.01,0.01 v 0.01 l 0.01,0.01 0.02,0.01 0.02,0.01 0.02,0.02 0.01,0.01 0.01,0.03 v 0.03 l -0.01,0.01 -0.01,0.03 -0.02,0.02 -0.03,0.02 -0.01,0.03 0.02,0.01 0.02,0.01 0.02,0.01 h 0.02 v 0.03 0.05 l -0.02,0.02 -0.01,0.02 -0.02,0.02 0.01,0.03 0.02,0.02 0.01,0.02 0.01,0.04 v 0.04 l -0.02,0.02 -0.01,0.02 -0.01,0.02 -0.01,0.02 v 0.03 0.03 l -0.02,0.02 -0.02,0.01 -0.01,0.01 -0.01,0.01 v 0.02 l 0.01,0.03 v 0.03 l -0.01,0.01 v 0.02 l -0.01,0.03 -0.04,0.08 -0.01,0.03 -0.02,0.03 -0.01,0.06 v 0.04 0.04 l 0.01,0.04 v 0.04 0.07 0.04 0.04 0.02 0.04 l -0.01,0.04 -0.01,0.03 -0.01,0.02 -0.02,0.03 -0.02,0.02 -0.01,0.01 -0.02,0.03 -0.02,0.01 -0.02,0.01 -0.01,0.02 -0.01,0.02 -0.01,0.01 v 0.02 0.01 0.04 0.01 l 0.02,0.02 0.01,0.03 -0.02,0.08 -0.02,0.04 -0.03,0.02 -0.05,0.03 -0.05,0.05 -0.06,0.04 -0.01,0.01 h -0.02 -0.03 -0.02 l -0.03,0.01 -0.01,0.01 -0.02,0.02 -0.01,0.02 -0.02,0.03 -0.02,0.01 -0.02,0.01 h -0.03 l -0.02,0.02 -0.02,0.01 -0.01,0.02 -0.01,0.02 -0.01,0.02 v 0.12 0.09 l -0.01,0.04 v 0.03 l 0.01,0.02 0.01,0.06 v 0.02 0.02 0.03 l 0.01,0.02 0.02,0.01 h 0.02 l 0.03,0.01 0.02,0.01 0.03,0.01 v 0.02 0.04 0.02 l -0.05,0.08 -0.02,0.04 -0.03,0.03 -0.01,0.03 -0.02,0.03 v 0.04 l -0.01,0.04 v 0.04 l -0.01,0.03 -0.01,0.02 -0.01,0.01 -0.02,0.01 -0.02,0.01 h -0.01 -0.02 -0.02 v 0.01 l -0.04,0.12 v 0.01 0.03 l 0.02,0.08 0.01,0.02 v 0.01 0.01 l -0.04,0.18 -0.01,0.04 v 0.03 l -0.01,0.12 0.04,0.05 -0.06,0.14 -0.04,0.09 -0.01,0.06 -0.03,0.12 -0.01,0.06 v 0.05 l 0.01,0.06 0.02,0.07 0.02,0.11 0.03,0.08 0.02,0.05 0.01,0.04 0.02,0.07 0.02,0.11 v 0.06 0.04 l 0.05,0.07 0.04,0.06 0.01,0.03 0.03,0.03 0.01,0.03 0.02,0.03 0.02,0.03 0.01,0.02 v 0.02 l 0.01,0.02 0.03,0.02 0.03,0.02 0.03,0.02 v 0.01 0.02 l -0.01,0.02 -0.01,0.02 -0.01,0.02 v 0.02 l 0.01,0.01 0.02,0.01 0.02,-0.01 h 0.02 l 0.02,-0.01 0.02,-0.01 h 0.02 0.02 l 0.01,-0.01 h 0.02 0.02 l 0.02,0.02 0.03,0.01 0.03,0.01 0.02,0.02 0.04,0.03 0.03,0.03 0.01,0.01 0.02,0.02 0.03,0.01 0.02,0.02 0.03,0.04 0.02,0.02 0.01,0.02 0.01,0.03 0.02,0.04 0.01,0.02 0.02,0.04 0.03,0.01 0.03,0.01 0.04,0.02 0.04,0.02 0.03,0.02 0.02,0.02 0.03,0.02 0.02,0.03 0.02,0.03 0.02,0.03 0.01,0.02 0.01,0.01 -0.01,0.02 v 0.02 l 0.02,0.02 0.01,0.02 0.02,0.01 0.02,0.01 0.02,0.01 0.01,0.01 0.02,0.01 0.01,0.03 v 0.02 0.02 0.02 0.03 0.02 0.03 0.02 0.03 l -0.01,0.03 v 0.02 l -0.02,0.02 -0.02,0.02 -0.01,0.01 -0.01,0.01 -0.02,0.01 v 0.01 0.02 h 0.02 0.01 l 0.01,0.02 0.01,0.01 v 0.01 0.01 l -0.02,0.01 v 0.01 l -0.01,0.01 -0.01,0.01 v 0.02 0.01 l 0.01,0.03 -0.02,0.04 -0.02,0.02 -0.01,0.02 -0.01,0.02 -0.01,0.04 -0.01,0.02 v 0.02 l -0.01,0.02 -0.01,0.04 -0.01,0.01 v 0.02 l -0.01,0.02 -0.01,0.03 -0.01,0.04 v 0.02 l -0.01,0.03 -0.01,0.03 -0.01,0.04 -0.01,0.02 -0.01,0.03 v 0.02 l 0.01,0.03 0.02,0.04 0.01,0.01 0.01,0.04 0.02,0.04 0.01,0.02 0.01,0.03 0.01,0.02 0.01,0.03 v 0.03 l 0.01,0.03 v 0.03 0.02 0.02 0.04 l 0.02,0.02 0.02,0.02 0.01,0.02 0.01,0.02 v 0.02 l 0.01,0.03 0.02,0.02 z"
       id="path38" />
  </g>
</svg>
