<?xml version="1.0" encoding="UTF-8" standalone="no"?>
<svg
   version="1.2"
   width="800"
   height="642"
   viewBox="0 0 800 642"
   stroke-linecap="round"
   stroke-linejoin="round"
   id="svg140"
   sodipodi:docname="Aldude.svg"
   inkscape:version="1.1.2 (b8e25be833, 2022-02-05)"
   xmlns:inkscape="http://www.inkscape.org/namespaces/inkscape"
   xmlns:sodipodi="http://sodipodi.sourceforge.net/DTD/sodipodi-0.dtd"
   xmlns="http://www.w3.org/2000/svg"
   xmlns:svg="http://www.w3.org/2000/svg">
  <defs
     id="defs144" />
  <sodipodi:namedview
     id="namedview142"
     pagecolor="#ffffff"
     bordercolor="#666666"
     borderopacity="1.0"
     inkscape:pageshadow="2"
     inkscape:pageopacity="0.0"
     inkscape:pagecheckerboard="0"
     showgrid="false"
     inkscape:zoom="1.3146417"
     inkscape:cx="399.72867"
     inkscape:cy="403.53199"
     inkscape:window-width="1848"
     inkscape:window-height="1016"
     inkscape:window-x="72"
     inkscape:window-y="1107"
     inkscape:window-maximized="1"
     inkscape:current-layer="svg140" />
  <g
     id="Aldude"
     transform="matrix(21.201032,0,0,21.201032,-11822.778,-3484.6891)">
    <path
       d="m 578.82,168.67 0.06,0.08 0.04,-0.02 h 0.07 0.06 l 0.07,0.01 0.07,0.01 0.04,0.01 0.04,0.01 h 0.03 0.02 0.03 0.03 l 0.04,-0.01 0.02,-0.01 0.04,-0.01 0.05,-0.01 0.05,-0.01 0.06,-0.02 0.06,-0.03 0.06,-0.04 0.06,-0.04 0.05,-0.03 0.04,-0.02 0.02,-0.03 0.03,-0.02 0.02,-0.02 0.04,-0.02 0.03,-0.01 0.03,0.01 0.02,0.01 0.03,0.01 0.03,0.01 h 0.04 0.03 0.03 l 0.04,-0.01 h 0.04 0.03 l 0.03,0.01 h 0.03 0.03 0.04 0.02 0.02 l 0.02,0.01 0.03,0.01 h 0.03 0.03 0.08 l 0.09,-0.02 0.11,-0.01 0.11,-0.01 0.05,-0.01 0.06,-0.01 0.04,-0.01 h 0.03 0.03 l 0.03,-0.01 0.03,-0.01 0.03,0.01 0.03,0.01 0.03,0.01 0.02,0.01 h 0.03 l 0.02,0.01 0.02,0.01 h 0.03 l 0.03,0.01 0.03,0.01 0.02,0.03 0.03,0.02 0.02,0.01 0.02,0.03 0.01,0.02 0.04,0.03 0.02,0.02 0.02,0.02 0.03,0.02 0.05,0.03 0.05,0.04 0.02,0.01 0.03,0.03 0.02,0.02 0.02,0.02 0.03,0.01 0.02,0.02 0.03,0.01 0.02,0.02 0.02,0.02 0.01,0.01 0.02,0.02 0.02,0.02 0.02,0.02 0.03,0.02 0.02,0.01 0.03,0.02 0.02,0.01 0.02,0.02 0.01,0.02 0.03,0.01 0.02,0.02 0.01,0.02 0.03,0.02 0.02,0.03 0.02,0.02 0.02,0.02 0.02,0.03 0.01,0.03 0.02,0.03 0.01,0.02 0.02,0.03 0.01,0.03 0.01,0.04 v 0.03 l 0.01,0.04 v 0.03 l 0.01,0.02 0.01,0.03 0.01,0.03 0.02,0.03 0.01,0.03 0.02,0.03 0.01,0.02 0.01,0.03 0.01,0.03 v 0.03 l 0.01,0.03 0.01,0.02 0.02,0.02 0.02,0.02 0.03,0.02 0.03,0.01 h 0.04 0.03 l 0.04,-0.01 0.03,-0.02 0.03,-0.01 0.03,-0.01 0.03,-0.01 h 0.03 l 0.03,0.01 0.02,0.01 0.03,0.02 0.02,0.03 0.01,0.03 0.01,0.03 0.01,0.04 0.01,0.03 0.02,0.03 0.02,0.05 0.02,0.02 0.03,0.01 0.02,0.01 0.02,0.01 h 0.03 l 0.02,0.01 0.03,0.01 0.01,0.01 0.02,0.03 0.01,0.02 v 0.04 0.02 l 0.01,0.04 0.01,0.02 0.01,0.03 0.02,0.02 0.01,0.02 0.02,0.02 0.03,0.01 h 0.02 0.03 0.03 l 0.02,-0.01 h 0.03 0.02 l 0.02,-0.01 h 0.02 l 0.03,0.01 0.02,0.02 0.03,0.03 0.03,0.06 0.02,0.04 0.02,0.05 0.02,0.04 0.02,0.04 0.01,0.05 0.01,0.05 0.01,0.07 0.01,0.04 v 0.04 0.04 l -0.01,0.03 v 0.03 l -0.01,0.03 -0.02,0.05 -0.02,0.09 -0.01,0.03 v 0.03 0.04 l 0.01,0.05 0.03,0.03 0.14,0.18 0.03,-0.02 0.05,-0.02 0.05,-0.02 0.06,-0.01 0.05,-0.01 h 0.04 0.05 0.03 0.04 l 0.03,0.01 0.04,0.01 0.04,0.01 h 0.03 l 0.04,0.01 0.03,-0.01 h 0.03 l 0.04,-0.01 0.03,-0.01 0.05,-0.05 0.04,0.08 0.06,0.1 0.01,0.03 v 0.04 l -0.01,0.04 v 0.03 0.03 0.04 0.03 l -0.01,0.05 -0.01,0.05 -0.02,0.04 -0.02,0.05 -0.02,0.04 -0.02,0.04 -0.02,0.07 -0.01,0.03 -0.02,0.05 v 0.05 0.04 0.05 0.05 l 0.02,0.04 0.02,0.04 0.02,0.04 0.02,0.03 0.01,0.03 0.01,0.05 0.01,0.06 -0.01,0.03 v 0.05 l -0.01,0.04 0.01,0.06 v 0.03 l 0.02,0.05 0.02,0.03 0.03,0.02 0.04,0.01 0.03,0.01 h 0.02 l 0.04,0.01 0.02,-0.01 0.03,0.01 h 0.03 l 0.03,0.03 0.02,0.01 0.03,0.02 0.02,0.02 0.04,0.05 0.02,0.03 0.03,0.02 0.04,0.03 0.05,0.06 0.05,0.03 0.05,0.04 0.07,0.03 0.06,0.03 0.05,0.02 0.04,0.02 0.05,0.02 0.06,0.04 0.03,0.03 0.02,0.02 0.02,0.03 0.02,0.05 0.01,0.03 v 0.03 l 0.01,0.05 -0.01,0.04 v 0.04 0.03 l -0.01,0.04 v 0.03 l -0.02,0.04 v 0.03 l -0.01,0.03 0.01,0.03 0.01,0.03 0.03,0.03 0.01,0.02 0.02,0.03 0.02,0.05 0.01,0.02 0.02,0.05 0.02,0.03 0.01,0.03 0.01,0.05 0.01,0.05 v 0.03 0.03 0.03 0.04 l 0.01,0.03 v 0.03 l 0.02,0.04 v 0.03 0.04 0.03 0.03 0.02 l 0.01,0.03 0.01,0.02 0.01,0.04 0.01,0.02 v 0.03 l 0.01,0.02 0.01,0.03 0.01,0.03 0.01,0.02 0.02,0.03 0.01,0.03 v 0.03 0.03 0.03 0.02 0.02 0.03 0.02 l 0.01,0.03 0.01,0.03 0.01,0.03 0.01,0.03 0.02,0.03 0.01,0.02 0.02,0.02 0.01,0.02 v 0.02 0.01 0.02 0.03 0.02 0.03 l 0.01,0.03 0.01,0.03 0.02,0.02 0.03,0.03 0.03,0.02 0.01,0.01 0.04,0.02 0.04,0.01 0.18,0.29 0.31,0.44 0.52,0.84 0.17,0.24 0.05,0.17 -0.01,0.35 -0.05,0.37 0.08,0.18 0.3,0.54 0.13,0.38 0.23,0.17 -0.05,0.02 -0.06,0.01 h -0.01 -0.01 -0.04 l -0.03,-0.01 -0.03,-0.01 -0.05,-0.04 -0.03,-0.02 -0.07,-0.04 -0.01,-0.02 -0.04,-0.01 -0.08,-0.05 -0.06,-0.05 -0.05,-0.03 -0.04,-0.02 -0.05,-0.02 -0.05,-0.01 h -0.03 l -0.06,0.02 -0.13,0.04 -0.12,0.04 -0.04,0.01 -0.03,0.01 -0.02,0.01 -0.05,0.04 -0.04,0.01 -0.09,0.02 -0.03,0.02 -0.08,0.04 -0.07,0.03 -0.06,0.02 -0.04,0.01 -0.01,0.03 -0.02,0.02 h -0.02 -0.02 l -0.03,-0.01 -0.01,-0.03 -0.01,-0.05 -0.03,-0.08 -0.02,-0.07 -0.03,-0.05 -0.05,-0.04 -0.07,-0.07 -0.07,-0.06 -0.06,-0.03 -0.04,-0.01 -0.07,-0.01 -0.05,-0.01 h -0.07 l -0.04,0.01 -0.04,0.02 -0.04,0.03 -0.06,0.04 -0.02,0.03 -0.04,0.05 -0.04,0.03 -0.05,0.04 -0.01,0.01 -0.08,0.09 -0.02,0.02 -0.09,0.07 -0.04,0.03 -0.05,0.05 -0.03,0.03 -0.04,0.01 -0.04,0.03 -0.03,0.01 0.16,0.14 0.19,0.14 0.17,0.08 0.01,0.06 0.02,0.05 0.02,0.05 0.03,0.06 0.09,0.13 0.01,0.04 0.02,0.06 0.02,0.04 0.01,0.03 0.01,0.03 0.02,0.04 0.02,0.04 0.01,0.03 0.01,0.03 0.01,0.03 0.02,0.05 v 0.05 0.03 0.04 l -0.01,0.04 -0.01,0.03 -0.01,0.03 -0.03,0.03 -0.01,0.01 -0.02,0.02 -0.03,0.02 -0.02,0.02 -0.03,0.02 -0.03,0.03 -0.02,0.02 -0.03,0.02 -0.04,0.01 h -0.03 -0.04 l -0.03,0.01 -0.04,0.01 -0.03,0.03 -0.04,0.03 -0.03,0.02 -0.04,0.03 -0.03,0.01 -0.03,0.02 -0.04,0.02 -0.04,0.02 -0.05,0.03 -0.04,0.02 h -0.04 l -0.03,0.01 -0.03,0.01 -0.04,0.01 -0.03,0.02 -0.04,0.02 -0.04,0.02 -0.04,0.02 -0.05,0.02 -0.04,0.02 -0.02,0.03 -0.02,0.03 -0.02,0.04 v 0.03 l -0.01,0.03 -0.02,0.04 -0.02,0.03 -0.02,0.02 -0.03,0.02 -0.02,0.03 v 0.04 0.03 l 0.02,0.03 0.01,0.06 v 0.05 l -0.02,0.05 -0.02,0.04 -0.03,0.01 -0.03,0.02 -0.07,0.05 -0.03,0.02 -0.01,0.03 -0.03,0.04 -0.03,0.04 -0.04,0.05 -0.08,0.02 -0.07,0.04 -0.07,0.05 -0.03,0.01 -0.06,0.01 -0.04,0.01 -0.09,0.04 -0.04,0.04 -0.05,0.05 -0.02,0.05 -0.07,0.06 -0.05,0.02 -0.08,0.01 -0.05,0.02 -0.04,0.05 -0.04,0.05 -0.07,0.04 -0.08,0.03 -0.07,0.05 -0.09,0.06 -0.06,0.04 -0.05,0.06 -0.03,0.04 -0.02,0.04 -0.04,0.02 -0.05,0.01 -0.02,0.01 -0.02,0.02 -0.02,0.01 -0.06,0.03 -0.05,0.02 -0.03,0.02 -0.02,0.01 -0.05,-0.01 h -0.08 l -0.07,0.01 -0.06,0.02 -0.11,0.02 -0.06,0.01 -0.04,0.01 h -0.03 l -0.04,-0.01 -0.02,-0.01 -0.01,-0.01 -0.02,-0.01 -0.01,-0.01 h -0.01 l -0.02,-0.01 h -0.02 -0.02 l -0.03,0.01 h -0.01 l -0.02,-0.01 -0.01,-0.01 h -0.01 l -0.03,-0.01 h -0.06 l -0.04,-0.01 -0.03,-0.01 h -0.03 l -0.03,-0.01 h -0.02 -0.03 -0.01 -0.02 l -0.02,-0.01 -0.01,-0.03 -0.02,-0.01 h -0.02 -0.02 -0.03 l -0.05,0.01 h -0.03 l -0.03,0.01 h -0.04 l -0.02,0.01 h -0.03 -0.02 -0.01 -0.02 l -0.01,0.01 h -0.01 -0.02 l -0.01,0.01 v 0.02 0.01 l -0.01,0.01 v 0 l -0.02,-0.01 h -0.01 v 0.01 h -0.02 -0.01 l -0.02,-0.01 h -0.02 l -0.01,0.01 -0.01,0.02 -0.02,0.01 -0.01,0.01 -0.03,0.01 h -0.01 l -0.01,0.01 -0.03,0.01 h -0.02 -0.03 -0.02 l -0.02,-0.01 -0.02,-0.01 h -0.02 l -0.02,-0.01 -0.01,-0.01 -0.02,-0.01 -0.01,-0.01 v -0.01 -0.01 h -0.01 L 581,183.95 h -0.01 l -0.01,-0.01 -0.02,0.01 h -0.01 -0.01 l -0.01,-0.01 -0.01,-0.01 -0.02,-0.01 v 0 l -0.01,0.01 h -0.01 -0.01 l -0.01,-0.01 -0.01,0.01 -0.01,0.01 v 0 h -0.01 l -0.01,-0.01 -0.01,-0.01 -0.01,0.01 -0.01,0.01 -0.01,0.01 -0.04,0.02 -0.01,0.01 -0.01,0.01 h -0.01 -0.02 l -0.01,0.02 v 0.01 l -0.01,0.01 v 0 h -0.01 -0.02 l -0.02,-0.01 -0.03,0.06 h -0.01 l -0.07,0.02 -0.06,0.02 -0.05,0.02 -0.04,0.02 -0.03,0.02 -0.02,0.02 -0.01,0.01 -0.01,0.02 v 0.02 l -0.02,0.01 -0.02,0.01 -0.04,0.01 v 0.05 0.13 0.17 0.08 0.04 l -0.04,0.02 -0.05,0.03 -0.08,0.03 -0.04,0.03 -0.05,0.07 -0.02,0.05 -0.02,0.04 -0.01,0.02 -0.01,0.02 -0.03,0.03 0.01,0.02 0.02,0.03 0.09,0.1 0.06,0.06 0.03,0.02 0.01,0.01 -0.04,0.08 0.03,0.04 0.05,0.08 0.05,0.09 -0.29,0.09 -0.91,0.02 -0.91,0.01 0.14,0.76 0.01,0.01 0.11,0.09 0.01,0.02 0.01,0.01 v 0.03 0.03 l 0.01,0.17 v 0.11 0.1 l -0.01,0.06 v 0.02 0.02 l -0.02,0.05 -0.03,0.05 -0.03,0.04 -0.03,0.04 -0.04,0.03 -0.03,0.04 -0.03,0.03 -0.03,0.03 -0.05,0.04 -0.03,0.03 -0.02,0.02 -0.02,0.03 -0.01,0.02 -0.02,0.04 -0.03,0.08 -0.02,0.08 -0.02,0.05 -0.02,0.02 -0.02,0.03 -0.03,0.03 -0.03,0.04 -0.02,0.02 -0.03,0.06 -0.03,0.03 -0.03,0.03 -0.05,0.04 -0.04,0.03 -0.02,0.01 -0.06,0.02 -0.05,0.02 -0.03,0.01 -0.04,0.02 -0.06,0.01 -0.05,0.01 -0.06,0.02 -0.03,0.02 -0.03,0.03 -0.03,0.03 -0.03,0.05 -0.02,0.06 -0.03,0.07 -0.02,0.05 -0.01,0.06 -0.01,0.04 -0.01,0.08 -0.02,0.05 -0.02,0.06 -0.04,0.05 -0.02,0.01 -0.03,0.01 h -0.04 -0.05 l -0.05,0.01 -0.03,0.02 -0.03,0.03 -0.04,0.06 -0.03,0.07 -0.02,0.06 -0.01,0.04 v 0.05 0.1 0.02 l -0.01,0.02 h -0.02 l -0.58,0.21 -0.58,0.21 -0.65,0.18 -0.51,0.13 -0.14,0.06 -0.06,0.03 -0.01,-0.01 -0.03,-0.02 -0.03,-0.01 h -0.02 -0.02 l -0.03,0.01 -0.1,0.04 -0.18,0.07 -0.04,0.01 -0.04,0.01 -0.37,0.13 -0.06,0.05 -0.05,0.04 -0.04,0.03 -0.52,0.06 -0.91,0.32 -0.01,0.02 -0.01,0.02 -0.02,0.02 h -0.01 -0.02 l -0.02,-0.01 -0.01,-0.02 h -0.02 l -0.02,0.01 -0.02,0.01 -0.03,0.01 h -0.05 l -0.2,0.03 -0.18,0.07 -0.02,-0.04 -0.03,-0.03 -0.09,-0.1 -0.09,-0.1 -0.09,-0.1 -0.02,-0.02 -0.05,-0.07 -0.04,-0.09 -0.11,-0.18 -0.03,-0.04 -0.03,-0.08 -0.11,-0.18 -0.07,-0.14 -0.02,-0.04 v -0.01 l -0.1,-0.17 -0.04,-0.06 -0.02,-0.05 -0.04,-0.07 -0.08,-0.16 -0.08,-0.09 -0.01,-0.01 v -0.01 l -0.13,-0.16 -0.02,-0.03 -0.03,-0.04 -0.1,-0.12 -0.09,-0.11 -0.05,-0.07 -0.04,-0.05 -0.08,-0.1 -0.13,-0.16 -0.12,-0.15 -0.12,-0.16 -0.12,-0.15 -0.08,-0.12 -0.11,-0.17 -0.14,-0.19 -0.1,-0.15 -0.04,-0.06 -0.11,-0.15 -0.03,-0.05 -0.01,-0.01 -0.04,-0.07 -0.01,-0.02 -0.11,-0.15 -0.09,-0.15 -0.05,-0.06 -0.05,-0.08 -0.09,-0.13 -0.03,-0.04 -0.03,-0.04 -0.05,-0.07 -0.03,-0.05 -0.01,-0.02 -0.02,-0.03 -0.08,-0.11 -0.07,-0.1 -0.06,-0.09 -0.06,-0.1 -0.08,-0.11 -0.07,-0.1 -0.09,-0.14 -0.05,-0.09 -0.01,-0.01 -0.01,-0.01 -0.06,-0.11 -0.05,-0.07 -0.01,-0.02 -0.06,-0.09 -0.03,-0.05 -0.06,-0.09 -0.06,-0.09 -0.08,-0.12 -0.07,-0.12 -0.06,-0.08 -0.04,-0.07 -0.07,-0.13 -0.04,-0.08 -0.06,-0.12 -0.22,-0.97 -0.25,-1.22 0.11,-0.22 0.18,-0.3 0.08,-0.28 0.13,-0.24 0.02,-0.05 0.01,-0.04 0.07,-0.23 0.23,-0.74 0.06,-0.18 0.01,-0.06 0.01,-0.01 0.01,-0.02 0.38,-0.47 0.38,-0.45 0.25,-0.3 0.08,-0.1 0.03,-0.03 0.03,-0.05 0.04,-0.05 0.05,-0.05 0.05,-0.06 0.14,-0.17 0.02,-0.03 0.23,-0.25 0.12,-0.14 0.05,-0.05 0.12,-0.13 0.3,-0.08 0.39,-0.09 0.23,-0.06 0.41,-0.1 0.16,-0.04 0.05,-0.02 0.48,-0.33 0.47,-0.32 0.34,-0.23 0.24,-0.17 0.05,-0.04 h 0.01 l 0.05,-0.03 v -0.38 -0.07 l -0.01,-0.19 0.02,-0.05 0.19,-0.09 0.01,-0.01 0.04,-0.02 0.02,-0.01 0.74,-0.3 0.25,-0.18 0.01,-0.01 0.7,-0.4 0.03,-0.01 0.02,-0.01 0.28,-0.17 h 0.01 l 0.13,-0.08 h 0.01 l 0.03,-0.02 0.04,-0.01 0.01,-0.01 0.02,-0.01 0.14,-0.05 0.02,-0.01 0.11,-0.04 0.21,-0.07 -0.54,-1.24 -0.11,-0.26 -0.03,-0.07 0.51,-0.1 0.13,-0.03 0.32,-0.06 h 0.02 l 0.02,-0.01 0.15,-0.03 h 0.01 l 0.04,-0.01 h 0.02 l 0.21,-0.12 0.17,-0.1 0.23,-0.12 0.03,-0.01 0.08,-0.05 0.04,-0.02 0.54,-0.29 0.08,-0.04 0.18,-0.1 0.09,-0.04 0.37,-0.2 0.02,-0.01 0.65,-0.35 0.31,-0.16 0.12,-0.07 0.07,-0.04 0.08,-0.04 h 0.01 l 0.03,-0.02 0.04,-0.02 0.02,-0.03 0.01,-0.01 0.07,-0.93 z"
       id="path137" />
  </g>
</svg>
