<?xml version="1.0" encoding="UTF-8" standalone="no"?>
<svg
   version="1.2"
   width="800"
   height="642"
   viewBox="0 0 800 642"
   stroke-linecap="round"
   stroke-linejoin="round"
   id="svg50"
   sodipodi:docname="Alegia.svg"
   inkscape:version="1.1.2 (b8e25be833, 2022-02-05)"
   xmlns:inkscape="http://www.inkscape.org/namespaces/inkscape"
   xmlns:sodipodi="http://sodipodi.sourceforge.net/DTD/sodipodi-0.dtd"
   xmlns="http://www.w3.org/2000/svg"
   xmlns:svg="http://www.w3.org/2000/svg">
  <defs
     id="defs54" />
  <sodipodi:namedview
     id="namedview52"
     pagecolor="#ffffff"
     bordercolor="#666666"
     borderopacity="1.0"
     inkscape:pageshadow="2"
     inkscape:pageopacity="0.0"
     inkscape:pagecheckerboard="0"
     showgrid="false"
     inkscape:zoom="1.3146417"
     inkscape:cx="399.72867"
     inkscape:cy="259.00592"
     inkscape:window-width="1848"
     inkscape:window-height="1016"
     inkscape:window-x="72"
     inkscape:window-y="1107"
     inkscape:window-maximized="1"
     inkscape:current-layer="svg50" />
  <g
     id="Alegia"
     transform="matrix(30.719676,0,0,30.719676,-11477.507,-5252.1453)">
    <path
       d="m 389.48,174.42 v 0.03 0.03 l -0.03,0.06 -0.05,0.05 -0.02,0.03 -0.04,0.03 -0.04,0.02 -0.04,0.02 -0.09,0.02 -0.11,0.03 -0.1,0.01 -0.04,0.01 -0.12,0.05 -0.07,0.03 -0.05,0.03 -0.08,0.03 -0.03,0.01 -0.1,0.04 h -0.04 l -0.06,0.02 -0.12,0.04 -0.05,0.01 -0.06,-0.01 -0.03,-0.02 -0.07,-0.03 -0.07,-0.02 -0.05,-0.02 -0.06,-0.01 h -0.04 l -0.04,0.01 -0.07,0.03 -0.04,0.03 -0.06,0.07 -0.04,0.07 -0.02,0.03 -0.01,0.06 v 0.07 l 0.01,0.08 0.01,0.05 0.02,0.06 0.03,0.06 0.01,0.06 0.02,0.07 0.01,0.06 0.01,0.01 0.01,0.05 0.01,0.03 v 0.01 0.03 l 0.01,0.07 0.01,0.16 0.01,0.08 v 0.07 l 0.02,0.05 0.01,0.06 0.02,0.06 0.04,0.09 0.05,0.09 0.03,0.04 0.04,0.06 0.05,0.11 0.05,0.12 0.03,0.03 0.05,0.07 0.03,0.07 0.01,0.07 0.01,0.04 v 0.08 l 0.01,0.04 -0.02,0.11 -0.02,0.06 -0.05,0.12 -0.02,0.06 -0.05,0.14 -0.01,0.01 -0.03,0.08 -0.06,0.15 -0.04,0.14 0.98,0.58 -0.38,0.77 1.23,0.64 0.2,0.44 -0.03,0.59 1.04,1.3 0.1,0.32 0.39,0.32 0.37,-0.45 0.6,0.54 0.03,-0.01 0.03,-0.01 h 0.02 l 0.03,-0.01 h 0.03 l 0.02,-0.01 0.04,-0.01 0.01,-0.01 0.04,-0.01 0.02,-0.01 0.01,-0.01 0.02,-0.01 0.01,-0.02 0.03,-0.02 0.02,-0.02 0.02,-0.01 0.03,-0.01 0.03,-0.02 h 0.03 l 0.02,-0.01 h 0.02 l 0.01,-0.01 h 0.01 L 392.9,183 h 0.02 l 0.02,-0.02 h 0.03 l 0.02,-0.01 0.04,0.01 0.04,0.02 0.06,0.01 h 0.03 l 0.03,0.01 h 0.04 l 0.02,0.01 0.01,0.01 0.01,0.02 0.01,0.01 0.01,0.01 h 0.01 0.02 0.03 l 0.03,-0.01 h 0.02 l 0.03,-0.01 h 0.04 0.02 0.02 0.02 l 0.03,0.01 0.02,0.01 0.02,0.02 0.03,0.02 0.01,0.01 0.02,0.02 v 0.02 l 0.01,0.01 0.02,0.01 h 0.01 0.02 0.01 l 0.01,0.01 h 0.02 l 0.02,0.01 h 0.03 0.05 l 0.04,0.01 0.04,0.01 0.03,0.01 0.04,0.01 0.03,0.02 0.04,0.02 0.02,0.01 0.02,0.03 0.03,0.02 0.03,0.02 0.04,0.03 0.04,0.02 0.05,0.03 0.03,0.01 0.03,0.02 0.03,0.02 v 0.01 l 0.02,0.01 0.02,0.02 0.02,0.03 0.01,0.02 v 0.03 l 0.01,0.04 0.01,0.02 0.01,0.02 0.03,0.03 0.03,0.02 0.04,0.02 0.02,0.01 0.03,0.01 0.03,0.01 h 0.03 0.02 l 0.02,0.02 0.03,0.01 0.03,0.01 0.03,0.01 -0.01,0.02 v 0.03 0.03 l -0.01,0.03 -0.01,0.03 v 0.03 l -0.02,0.04 v 0.04 0.04 l -0.01,0.05 v 0.01 0.05 0.02 0.03 l 0.01,0.04 0.01,0.03 0.01,0.04 0.01,0.04 0.01,0.04 0.01,0.03 0.01,0.03 0.01,0.03 v 0.04 l 0.01,0.04 0.02,0.03 v 0.03 l 0.01,0.04 v 0.04 l 0.01,0.03 v 0.04 0.04 l 0.01,0.03 0.01,0.04 v 0.03 0.03 0.03 l 0.01,0.04 0.01,0.03 v 0.04 l 0.01,0.04 v 0.05 0.03 l 0.01,0.04 v 0.03 l 0.01,0.03 0.02,0.04 0.01,0.03 0.01,0.04 0.01,0.03 0.01,0.03 v 0.04 0.03 l 0.01,0.04 0.01,0.03 v 0.03 0.03 0.03 0.03 l 0.01,0.03 0.01,0.02 0.02,0.03 0.02,0.04 0.01,0.04 0.03,0.04 0.02,0.04 0.02,0.02 0.02,0.05 v 0.03 l 0.02,0.05 v 0.03 l 0.01,0.04 0.02,0.04 0.02,0.03 0.04,0.04 0.01,0.02 0.02,0.02 0.02,0.02 0.02,0.03 0.01,0.02 v 0.03 l 0.01,0.02 0.01,0.02 0.01,0.03 0.02,0.02 0.02,0.03 v 0.02 l 0.01,0.04 v 0.03 l 0.01,0.05 0.01,0.05 0.01,0.04 0.02,0.04 0.02,0.04 0.02,0.03 0.04,0.04 0.02,0.03 0.02,0.05 0.02,0.03 0.01,0.04 0.01,0.03 0.13,0.39 -1.22,-0.38 -0.98,0.08 -1.6,-0.49 -0.31,-0.07 -0.01,-0.01 -0.04,-0.01 -0.01,-0.02 -0.05,-0.03 -0.02,-0.02 -0.03,-0.01 -0.02,-0.02 -0.03,-0.02 -0.03,-0.02 -0.02,-0.02 -0.04,-0.02 -0.03,-0.02 -0.03,-0.01 -0.03,-0.02 -0.03,-0.01 -0.02,-0.01 -0.03,-0.02 h -0.01 -0.02 -0.02 -0.03 -0.04 -0.02 -0.02 -0.04 l -0.03,-0.01 h -0.03 -0.03 l -0.03,-0.01 h -0.04 -0.03 -0.03 l -0.03,-0.01 h -0.04 l -0.03,-0.01 h -0.03 -0.02 -0.02 l -0.02,-0.01 -0.03,-0.01 -0.03,-0.01 -0.02,-0.01 h -0.03 l -0.03,-0.01 -0.04,0.01 h -0.02 -0.03 l -0.02,0.01 -0.03,0.01 -0.03,0.02 -0.03,0.01 -0.03,0.01 -0.03,0.02 h -0.03 l -0.03,0.01 -0.03,0.01 h -0.02 l -0.02,0.01 -0.02,0.01 h -0.03 l -0.02,0.01 -0.03,0.01 -0.02,0.01 h -0.02 -0.02 l -0.03,-0.01 h -0.02 l -0.02,-0.01 -0.02,-0.01 h -0.02 l -0.02,-0.01 h -0.01 l -0.04,-0.02 -0.03,-0.01 -0.03,-0.01 -0.03,-0.01 v -0.01 l 0.01,-0.03 v -0.04 -0.03 -0.04 -0.03 l -0.01,-0.03 -0.01,-0.03 -0.01,-0.03 -0.01,-0.03 -0.01,-0.02 -0.02,-0.02 -0.04,-0.03 -0.01,-0.01 -0.01,-0.02 -0.01,-0.01 -0.04,-0.04 -0.02,-0.01 -0.02,-0.01 -0.02,-0.02 -0.03,-0.02 -0.01,-0.02 -0.02,-0.03 -0.02,-0.02 -0.01,-0.03 -0.01,-0.03 -0.01,-0.04 -0.01,-0.05 0.01,-0.03 v -0.02 -0.03 -0.02 l 0.01,-0.04 0.03,-0.06 0.03,-0.04 0.02,-0.03 0.04,-0.04 0.04,-0.06 0.03,-0.04 0.02,-0.05 0.04,-0.06 0.01,-0.02 0.03,-0.04 -1.22,-1.2 -0.15,-0.16 -0.06,-0.11 -0.14,-0.13 -0.31,-0.11 -0.57,-0.25 -0.28,-0.14 -0.46,-0.54 -0.23,-0.28 -0.86,0.35 -0.48,-0.1 -0.34,-0.08 0.37,-0.35 0.01,-0.01 0.02,-0.02 0.02,-0.03 0.01,-0.02 0.01,-0.03 0.01,-0.02 0.01,-0.01 0.01,-0.02 v -0.02 l 0.01,-0.02 0.01,-0.01 v -0.02 l 0.01,-0.02 0.01,-0.02 0.01,-0.01 0.01,-0.03 0.01,-0.01 0.01,-0.02 0.01,-0.01 v -0.01 l 0.01,-0.01 0.03,-0.02 0.02,-0.01 0.02,-0.01 0.01,-0.02 0.01,-0.02 0.01,-0.03 v -0.02 l 0.01,-0.03 0.01,-0.02 v -0.01 l 0.01,-0.01 0.01,-0.01 v -0.02 l -0.01,-0.02 v -0.05 -0.02 -0.01 -0.03 l 0.01,-0.03 v -0.03 l 0.02,-0.03 0.01,-0.02 v -0.02 l 0.02,-0.03 0.01,-0.01 0.02,-0.01 0.01,-0.01 0.01,-0.01 0.01,-0.03 0.03,-0.07 0.06,-0.11 0.02,-0.03 0.01,-0.02 -0.73,-0.08 -0.57,0.85 -0.27,0.06 -0.23,0.35 -0.44,-0.29 -0.24,0.28 -0.03,-0.01 -0.04,-0.02 -0.02,-0.01 -0.02,-0.04 -0.04,-0.05 -0.03,-0.04 -0.04,-0.05 -0.04,-0.06 -0.05,-0.06 -0.03,-0.04 -0.03,-0.04 -0.01,-0.01 -0.01,-0.02 -0.01,-0.03 -0.03,-0.04 -0.01,-0.02 -0.01,-0.05 -0.02,-0.06 0.01,-0.03 -0.04,-0.09 -0.02,-0.06 -0.01,-0.05 -0.03,-0.07 -0.03,-0.12 0.04,-0.02 0.13,-0.09 0.09,-0.08 0.07,-0.07 0.04,-0.04 -0.12,-0.14 -0.05,-0.05 -0.04,-0.03 h -0.01 -0.02 l -0.03,-0.01 -0.02,-0.01 -0.01,-0.03 -0.01,-0.02 v -0.02 l -0.04,-0.09 -0.02,-0.05 -0.02,-0.05 -0.03,-0.04 -0.03,-0.03 v -0.03 l -0.01,-0.02 -0.01,-0.01 -0.03,-0.02 -0.05,-0.03 -0.06,-0.01 -0.08,-0.01 h -0.06 -0.04 -0.02 l -0.04,-0.02 -0.07,-0.03 -0.08,-0.03 -0.08,-0.04 -0.07,-0.04 -0.05,-0.05 -0.03,-0.03 -0.04,-0.09 -0.04,-0.09 -0.04,-0.09 -0.02,-0.07 -0.01,-0.02 -0.04,-0.1 v -0.08 l -0.03,-0.11 -0.01,-0.11 -0.02,-0.09 -0.04,-0.11 v -0.06 l -0.01,-0.06 -0.03,-0.07 -0.03,-0.06 -0.03,-0.04 -0.04,-0.04 -0.03,-0.02 -0.02,-0.03 -0.01,-0.03 -0.05,-0.05 -0.06,-0.06 -0.1,-0.07 -0.07,-0.05 -0.03,-0.05 -0.02,-0.06 -0.02,-0.03 -0.04,-0.1 -0.03,-0.08 -0.03,-0.09 -0.01,-0.06 -0.02,-0.08 -0.02,-0.08 -0.02,-0.08 -0.05,-0.05 -0.04,-0.08 -0.03,-0.06 -0.03,-0.04 -0.01,-0.05 -0.02,-0.05 -0.04,-0.04 -0.04,-0.05 v -0.04 l -0.02,-0.05 -0.01,-0.05 -0.02,-0.06 -0.03,-0.04 -0.01,-0.02 -0.01,-0.03 0.02,-0.01 -0.49,-0.23 -0.31,-1.78 -0.23,-1.39 1.67,0.04 0.49,-0.11 0.56,0.07 0.45,-0.24 0.73,-0.15 0.87,-0.27 0.45,0.1 0.72,0.56 0.43,0.28 0.28,0.12 0.52,0.19 0.45,0.17 0.37,-0.11 0.34,0.03 0.67,0.21 0.38,0.12 0.13,0.05 0.1,0.03 z"
       id="path47" />
  </g>
</svg>
