<?xml version="1.0" encoding="UTF-8" standalone="no"?>
<svg
   version="1.2"
   width="800"
   height="642"
   viewBox="0 0 800 642"
   stroke-linecap="round"
   stroke-linejoin="round"
   id="svg59"
   sodipodi:docname="Alkiza.svg"
   inkscape:version="1.1.2 (b8e25be833, 2022-02-05)"
   xmlns:inkscape="http://www.inkscape.org/namespaces/inkscape"
   xmlns:sodipodi="http://sodipodi.sourceforge.net/DTD/sodipodi-0.dtd"
   xmlns="http://www.w3.org/2000/svg"
   xmlns:svg="http://www.w3.org/2000/svg">
  <defs
     id="defs63" />
  <sodipodi:namedview
     id="namedview61"
     pagecolor="#ffffff"
     bordercolor="#666666"
     borderopacity="1.0"
     inkscape:pageshadow="2"
     inkscape:pageopacity="0.0"
     inkscape:pagecheckerboard="0"
     showgrid="false"
     inkscape:zoom="1.3146417"
     inkscape:cx="399.72867"
     inkscape:cy="346.1019"
     inkscape:window-width="1848"
     inkscape:window-height="1043"
     inkscape:window-x="72"
     inkscape:window-y="0"
     inkscape:window-maximized="1"
     inkscape:current-layer="svg59" />
  <g
     id="Alkiza"
     transform="matrix(35.437703,0,0,35.437703,-13094.955,-5031.1832)">
    <path
       d="m 390.59,148.95 -0.54,0.71 -0.19,0.88 0.23,0.67 0.35,0.89 -0.29,0.51 -0.53,1.37 -0.55,1.21 -0.24,0.27 -0.43,0.2 -0.47,0.15 -0.47,0.16 -0.45,0.15 -0.38,0.13 -1.21,0.04 -0.34,0.37 -0.87,0.05 -0.7,0.01 -0.8,-0.29 -0.23,0.88 -0.76,0.04 -0.65,0.1 -0.3,0.41 -0.4,-0.43 -1.17,-0.14 -2.37,-0.36 -1.03,-0.75 -2.05,-2.37 -0.61,-1.07 -0.5,-1.98 0.05,0.02 0.42,-0.94 0.02,-0.03 0.01,-0.02 0.02,-0.03 0.02,-0.01 0.01,-0.02 0.03,-0.02 0.02,-0.02 0.03,-0.03 0.02,-0.04 0.03,-0.03 0.02,-0.04 0.02,-0.03 0.03,-0.04 0.02,-0.02 0.03,-0.05 0.03,-0.03 0.03,-0.05 0.02,-0.03 0.02,-0.03 0.02,-0.03 0.02,-0.03 0.03,-0.03 0.02,-0.03 0.04,-0.02 0.02,-0.02 0.04,-0.03 0.03,-0.02 0.04,-0.02 0.05,-0.02 0.05,-0.03 0.04,-0.02 0.03,-0.02 0.07,-0.03 0.05,-0.02 0.05,-0.02 0.05,-0.02 0.05,-0.02 0.05,-0.01 0.07,-0.02 0.05,-0.01 0.06,-0.03 0.07,-0.02 0.06,-0.02 0.06,-0.03 0.07,-0.01 0.07,-0.03 0.07,-0.02 0.04,-0.02 0.06,-0.02 0.07,-0.03 0.06,-0.02 0.07,-0.02 0.07,-0.03 0.06,-0.02 0.07,-0.02 0.06,-0.02 0.07,-0.02 0.07,-0.03 0.06,-0.02 0.06,-0.02 0.07,-0.03 0.04,-0.01 0.07,-0.02 0.08,-0.02 0.06,-0.02 0.07,-0.02 0.06,-0.02 0.06,-0.02 0.06,-0.02 0.06,-0.02 0.08,-0.02 0.06,-0.02 0.05,-0.01 0.04,-0.01 0.05,-0.02 0.05,-0.01 0.04,-0.02 0.05,-0.01 0.05,-0.02 0.04,-0.01 0.04,-0.01 0.04,-0.01 0.03,-0.01 0.04,-0.02 0.04,-0.01 0.05,-0.02 h 0.03 l 0.08,-0.03 0.08,-0.04 0.07,-0.04 0.1,-0.06 0.08,-0.07 0.06,-0.06 0.04,-0.04 0.07,-0.06 0.08,-0.06 0.06,-0.04 0.04,-0.03 0.28,0.05 0.45,-0.05 0.34,-0.06 0.2,-0.03 0.22,-0.04 0.1,-0.01 0.52,-0.09 0.51,-0.08 0.52,-0.07 0.53,-0.04 h 0.1 l 0.19,0.02 0.23,0.02 0.1,0.01 0.09,0.01 0.16,0.02 0.09,0.01 0.08,0.01 0.08,0.02 0.07,0.01 0.08,0.03 0.1,0.03 0.09,0.03 0.08,0.03 0.1,0.03 0.09,0.03 0.09,0.02 0.07,0.02 0.11,0.02 0.07,0.02 0.08,0.02 0.09,0.02 0.08,0.02 0.09,0.02 0.08,0.02 0.09,0.02 0.08,0.01 0.1,0.02 0.09,0.02 0.09,0.02 0.06,0.01 0.09,0.02 0.09,0.02 0.08,0.02 0.09,0.02 0.1,0.01 0.11,-0.01 0.05,-0.02 h 0.04 l 0.04,-0.01 0.04,-0.01 0.04,-0.01 0.04,-0.01 0.05,-0.01 0.04,-0.01 0.05,-0.01 0.04,-0.01 0.04,-0.01 0.04,-0.01 h 0.04 l 0.04,-0.01 0.05,-0.01 0.04,-0.01 0.04,-0.01 0.05,-0.01 0.05,-0.01 0.05,-0.01 0.07,-0.02 0.06,-0.01 0.04,-0.02 0.04,-0.02 0.04,-0.01 0.05,-0.02 0.03,-0.02 0.04,-0.01 0.06,-0.02 0.03,-0.02 0.04,-0.01 0.04,-0.02 0.03,-0.01 0.04,-0.02 h 0.03 l 0.05,-0.01 0.04,-0.01 0.05,-0.01 h 0.04 0.05 0.05 0.05 0.03 l 0.05,0.01 h 0.04 l 0.04,0.01 h 0.04 0.04 l 0.05,0.01 0.04,0.01 0.04,0.01 0.05,0.03 0.03,0.01 0.05,0.01 0.03,0.02 0.05,0.03 0.02,0.03 0.04,0.04 0.02,0.02 0.01,0.02 0.05,-0.04 0.03,-0.03 0.03,-0.02 0.04,-0.03 0.05,-0.04 0.04,-0.03 0.06,-0.05 0.04,-0.04 0.04,-0.03 0.03,-0.04 0.02,-0.02 0.04,-0.04 0.02,-0.03 0.02,-0.02 0.01,-0.01 0.03,-0.06 h 0.01 l 0.01,-0.02 0.02,-0.01 0.02,-0.02 0.02,-0.01 0.04,-0.01 h 0.01 0.03 l 0.03,0.01 h 0.03 l 0.03,0.02 0.04,0.01 0.04,-0.01 0.04,-0.03 0.03,-0.02 0.02,-0.03 0.02,-0.03 0.03,-0.04 0.02,-0.04 0.02,-0.04 0.02,-0.04 0.02,-0.04 0.02,-0.04 0.03,-0.04 0.02,-0.04 0.04,-0.03 0.04,-0.04 0.03,-0.03 0.03,-0.02 0.02,-0.03 0.02,-0.03 0.01,-0.02 0.02,-0.04 0.02,-0.04 0.02,-0.03 0.02,-0.02 0.03,-0.03 0.02,-0.01 0.02,-0.01 0.03,-0.02 0.01,-0.04 0.01,-0.02 v -0.02 -0.02 -0.02 -0.01 -0.03 l -0.01,-0.02 -0.01,-0.01 v -0.02 -0.03 -0.01 l 0.01,-0.02 v -0.01 l 0.01,-0.02 0.01,-0.01 0.02,-0.01 0.01,-0.01 0.02,-0.01 0.02,-0.02 0.01,-0.01 0.01,-0.02 0.01,-0.02 v -0.02 -0.01 -0.04 l 0.06,0.05 0.09,0.07 0.04,0.04 0.08,0.07 0.08,0.07 0.05,0.04 0.04,0.03 0.02,0.03 0.04,0.02 0.02,0.03 0.04,0.03 0.03,0.03 0.04,0.03 0.03,0.03 0.04,0.02 0.03,0.04 0.03,0.02 0.04,0.04 0.03,0.02 0.03,0.03 0.03,0.04 0.03,0.03 0.05,0.05 0.03,0.03 0.04,0.06 0.02,0.01 0.39,-0.1 0.37,0.07 v 0.1 l -0.01,0.07 -0.02,0.07 -0.01,0.05 -0.02,0.06 -0.02,0.07 -0.02,0.05 -0.01,0.04 -0.04,0.05 -0.06,0.05 -0.07,0.04 -0.1,0.03 -0.04,0.03 -0.06,0.04 -0.07,0.05 -0.05,0.05 -0.03,0.05 -0.04,0.06 -0.03,0.06 -0.02,0.04 -0.02,0.08 -0.03,0.06 -0.04,0.08 -0.02,0.06 -0.01,0.07 -0.01,0.03 -0.04,0.07 -0.05,0.08 -0.02,0.05 -0.03,0.04 v 0.04 l -0.05,0.09 -0.04,0.08 -0.02,0.05 -0.01,0.05 -0.01,0.04 -0.02,0.06 -0.04,0.09 -0.02,0.05 -0.01,0.04 -0.01,0.03 z"
       id="path56" />
  </g>
</svg>
