<?xml version="1.0" encoding="UTF-8" standalone="no"?>
<svg
   version="1.2"
   width="800"
   height="642"
   viewBox="0 0 800 642"
   stroke-linecap="round"
   stroke-linejoin="round"
   id="svg149"
   sodipodi:docname="Allin.svg"
   inkscape:version="1.1.2 (b8e25be833, 2022-02-05)"
   xmlns:inkscape="http://www.inkscape.org/namespaces/inkscape"
   xmlns:sodipodi="http://sodipodi.sourceforge.net/DTD/sodipodi-0.dtd"
   xmlns="http://www.w3.org/2000/svg"
   xmlns:svg="http://www.w3.org/2000/svg">
  <defs
     id="defs153" />
  <sodipodi:namedview
     id="namedview151"
     pagecolor="#ffffff"
     bordercolor="#666666"
     borderopacity="1.0"
     inkscape:pageshadow="2"
     inkscape:pageopacity="0.0"
     inkscape:pagecheckerboard="0"
     showgrid="false"
     inkscape:zoom="1.3146417"
     inkscape:cx="399.72867"
     inkscape:cy="282.58649"
     inkscape:window-width="1848"
     inkscape:window-height="1016"
     inkscape:window-x="72"
     inkscape:window-y="1107"
     inkscape:window-maximized="1"
     inkscape:current-layer="svg149" />
  <g
     id="Allin"
     transform="matrix(14.191565,0,0,14.191565,-5165.9479,-4383.3629)">
    <path
       d="m 384.44,316.07 0.14,-0.14 0.16,-0.16 0.25,-0.18 0.28,-0.18 0.1,-0.06 0.28,-0.19 0.3,-0.18 0.09,-0.05 0.01,-0.01 0.07,-0.04 0.21,-0.11 0.28,-0.15 0.15,-0.08 0.05,-0.02 0.02,-0.01 0.09,-0.04 0.35,-0.19 0.23,-0.13 0.02,-0.01 0.04,-0.02 0.01,0.05 0.08,0.11 0.06,0.09 0.07,0.09 0.08,0.08 0.03,-0.02 0.05,-0.04 0.03,-0.02 0.03,-0.03 0.03,-0.02 h 0.01 l 0.02,-0.02 0.06,-0.04 0.05,-0.05 0.03,-0.03 0.05,-0.05 0.07,-0.07 0.03,-0.03 0.04,-0.03 0.04,-0.03 0.06,-0.05 0.05,-0.04 0.06,-0.05 0.05,-0.03 0.05,-0.04 0.04,-0.04 0.05,-0.04 0.03,-0.03 0.01,-0.01 v 0 l 0.05,-0.05 0.04,-0.03 0.06,-0.05 0.05,-0.05 0.02,-0.02 0.05,-0.02 0.05,-0.03 0.03,-0.03 0.05,-0.02 0.05,-0.03 0.04,-0.03 0.05,-0.05 0.04,-0.03 0.1,-0.08 0.03,-0.03 0.04,-0.03 0.02,-0.02 0.04,-0.04 0.04,-0.04 0.03,-0.03 0.03,-0.04 0.02,-0.02 0.04,0.01 0.05,0.01 0.08,0.03 0.08,0.03 0.05,0.02 0.09,0.02 0.05,0.02 0.08,0.02 h 0.02 l 0.03,0.02 0.05,0.02 0.06,0.02 0.04,0.02 0.08,0.03 0.04,0.02 0.04,0.01 0.05,0.01 0.06,0.01 h 0.05 l 0.07,0.01 0.06,0.01 h 0.04 l 0.05,0.01 0.06,0.02 0.04,0.01 0.06,0.03 0.05,0.02 0.03,0.01 0.05,-0.01 0.04,-0.01 0.04,-0.01 h 0.03 l 0.03,-0.01 h 0.06 l 0.04,-0.01 0.05,-0.01 0.05,-0.01 h 0.04 0.06 l 0.07,0.02 0.05,-0.02 0.06,-0.01 0.04,-0.01 0.07,-0.02 0.05,-0.02 0.05,-0.01 0.05,-0.02 h 0.01 0.01 0.03 0.04 0.04 l 0.03,0.01 0.05,0.01 0.04,0.02 0.04,0.03 0.04,0.03 0.03,0.03 0.03,0.03 0.02,0.03 0.03,0.01 h 0.03 l 0.02,0.01 h 0.05 0.02 l 0.05,0.01 0.03,-0.01 h 0.04 l 0.06,-0.01 0.05,-0.02 0.05,-0.01 0.05,-0.02 h 0.05 l 0.04,-0.01 h 0.05 0.06 0.07 0.05 l 0.04,-0.01 h 0.05 0.05 0.06 0.05 0.07 0.03 0.04 l 0.07,0.01 0.06,0.02 0.06,0.02 0.07,0.03 0.06,0.03 0.06,0.03 0.08,0.03 0.04,0.02 0.05,0.01 0.04,0.01 0.06,0.01 0.06,0.02 h 0.05 l 0.07,0.02 0.07,0.01 h 0.05 l 0.03,0.01 0.05,0.03 0.04,0.03 0.04,0.04 0.05,0.04 0.07,0.08 0.04,0.04 0.04,0.03 0.03,0.04 0.04,0.03 0.04,0.04 0.04,0.04 0.04,0.03 0.03,0.02 0.04,0.03 0.01,0.01 0.04,0.03 0.06,0.03 0.07,0.05 0.03,0.04 0.04,0.03 0.04,0.04 0.04,0.04 0.04,0.03 0.03,0.04 0.02,0.03 0.02,0.02 0.03,0.05 0.02,0.03 0.04,0.04 0.04,0.04 0.03,0.04 0.03,0.04 0.04,0.05 0.03,0.05 0.03,0.04 0.03,0.05 0.03,0.05 0.03,0.05 0.03,0.03 0.03,0.06 0.03,0.04 0.04,0.06 0.03,0.05 0.03,0.05 0.04,0.07 0.04,0.08 0.03,0.05 0.01,0.04 v 0.01 0.03 l 0.01,0.03 0.01,0.04 v 0.04 l 0.01,0.04 v 0.04 0.05 l 0.01,0.04 0.01,0.05 v 0.03 l 0.01,0.02 0.01,0.04 0.01,0.04 0.01,0.03 0.01,0.05 0.02,0.04 0.01,0.05 0.02,0.03 v 0.01 l 0.02,0.04 0.02,0.04 0.02,0.05 0.03,0.04 0.03,0.05 0.03,0.05 0.02,0.04 0.03,0.04 0.03,0.05 0.03,0.04 0.03,0.04 0.02,0.05 0.04,0.04 0.02,0.04 0.02,0.03 0.02,0.03 0.03,0.03 0.03,0.06 0.03,0.04 0.04,0.06 0.06,0.07 0.04,0.04 0.05,0.07 0.04,0.05 0.03,0.03 0.04,0.04 0.03,0.03 0.03,0.02 0.02,0.01 0.03,0.02 0.07,0.03 0.05,0.03 0.06,0.03 0.07,0.03 0.04,0.01 v 0.04 l 0.02,0.06 0.02,0.05 0.01,0.05 0.02,0.06 0.02,0.06 0.02,0.05 v 0.01 l 0.02,0.06 0.02,0.06 0.02,0.06 0.02,0.06 0.01,0.05 0.02,0.04 v 0.01 l 0.02,0.06 0.03,0.07 0.02,0.06 0.03,0.07 0.01,0.03 0.02,0.03 0.03,0.04 0.02,0.02 0.02,0.02 0.03,0.02 0.04,0.04 0.03,0.05 0.02,0.03 0.04,0.04 0.01,0.01 0.07,0.04 0.07,0.03 0.08,0.02 0.05,0.02 0.08,0.02 h 0.05 l 0.03,0.01 0.03,0.01 0.04,0.01 0.05,0.02 0.04,0.01 0.05,0.01 0.06,0.02 0.05,0.02 0.05,0.01 0.06,0.01 0.08,0.02 0.09,0.01 0.07,0.02 0.07,0.01 0.05,0.01 h 0.05 0.06 l 0.04,0.01 h 0.06 0.04 l 0.05,-0.01 H 400 l 0.05,-0.01 h 0.04 0.06 l 0.07,-0.01 h 0.01 l 0.07,-0.01 h 0.07 l 0.06,-0.01 h 0.05 l 0.09,-0.01 h 0.07 0.06 0.06 l 0.05,-0.01 h 0.03 0.06 l 0.08,-0.01 h 0.07 0.07 0.06 l 0.08,-0.01 h 0.07 0.1 0.04 l 0.09,-0.01 h 0.03 0.05 l 0.09,-0.01 0.04,0.01 0.07,0.01 0.11,0.04 0.1,0.03 0.13,0.04 0.13,0.05 0.06,0.02 0.06,0.03 0.06,0.03 0.08,0.05 0.07,0.04 0.07,0.03 0.07,0.04 0.08,0.03 0.05,0.03 0.04,0.03 h 0.04 0.02 l 0.02,0.01 0.04,0.01 v 0 l -0.02,0.11 v 0.02 l -0.03,0.13 -0.03,0.13 -0.06,0.14 -0.1,0.19 -0.06,0.1 -0.06,0.14 -0.06,0.12 -0.13,0.25 -0.09,0.18 -0.09,0.17 -0.02,0.07 v 0.03 l -0.01,0.1 -0.01,0.11 -0.02,0.08 -0.04,0.13 -0.04,0.1 -0.02,0.1 -0.04,0.09 -0.12,0.23 -0.06,0.1 -0.03,0.09 -0.04,0.1 -0.05,0.18 -0.07,0.19 -0.07,0.18 -0.01,0.05 -0.02,0.06 v 0.14 l -0.01,0.12 v 0.16 0.29 l 0.01,0.09 v 0.06 0.04 l -0.01,0.02 -0.03,0.03 -0.02,0.02 -0.04,0.02 -0.04,0.03 -0.11,0.02 -0.12,0.02 h -0.05 l -0.01,0.17 -0.04,0.08 -0.04,0.09 -0.05,0.1 -0.03,0.07 -0.02,0.03 -0.01,0.02 v 0.06 l -0.01,0.16 v 0.17 l -0.02,0.12 -0.01,0.15 -0.01,0.04 v 0.03 0.01 l -0.05,0.08 -0.04,0.07 -0.04,0.09 -0.03,0.06 -0.02,0.07 -0.02,0.1 -0.11,0.36 -0.08,0.19 -0.02,0.06 -0.03,0.1 -0.06,0.17 -0.04,0.15 -0.01,0.04 -0.03,0.09 -0.03,0.22 v 0.2 0.03 0.02 l -0.03,0.11 -0.02,0.09 -0.02,0.1 -0.03,0.1 -0.03,0.09 -0.07,0.1 -0.07,0.1 -0.05,0.07 -0.06,0.07 -0.09,0.08 -0.03,0.03 -0.05,0.06 -0.01,0.01 0.05,0.16 0.01,0.06 0.01,0.01 -0.01,0.03 -0.04,0.07 -0.02,0.02 -0.02,0.01 -0.12,0.03 h -0.07 -0.04 l -0.08,0.05 -0.18,0.11 -0.13,0.11 -0.02,0.01 -0.02,0.02 -0.03,0.08 -0.07,0.17 -0.07,0.19 -0.02,0.07 v 0.01 l 0.01,0.05 0.03,0.1 -0.01,0.09 -0.01,0.03 -0.01,0.02 0.04,0.09 0.02,0.07 0.05,0.14 0.04,0.11 0.01,0.02 0.08,0.08 0.1,0.11 0.06,0.04 0.07,0.03 0.07,0.02 0.01,0.01 0.01,0.02 v 0.18 l -0.01,0.05 v 0.02 0.08 l -0.01,0.16 -0.01,0.11 v 0.1 l -0.02,0.17 0.69,0.88 0.02,0.01 0.04,0.05 0.01,0.06 0.01,0.08 0.01,0.05 -0.01,0.05 -0.02,0.03 -0.04,0.02 -0.09,0.06 -0.03,0.03 -0.03,0.03 v 0.02 0.11 l 0.04,0.14 0.04,0.11 0.05,0.1 0.07,0.1 0.08,0.07 0.06,0.04 0.06,0.06 0.05,0.06 0.05,0.07 0.02,0.03 0.04,0.03 0.05,0.02 0.03,0.01 0.01,0.01 v 0.01 0.01 0.02 l -0.04,0.07 -0.05,0.11 -0.08,0.17 -0.02,0.03 -0.01,0.03 -0.02,0.03 -0.01,0.01 0.05,0.11 0.04,0.09 0.02,0.07 0.02,0.07 v 0.07 0.05 l -0.03,0.05 -0.04,0.08 -0.04,0.05 -0.01,0.02 -0.01,0.04 0.01,0.13 0.01,0.13 0.01,0.05 0.01,0.06 0.04,0.11 0.01,0.08 0.03,0.07 0.03,0.06 0.03,0.04 0.05,0.05 0.06,0.04 0.06,0.04 0.06,0.03 0.06,0.04 0.08,0.04 0.12,0.07 0.07,0.03 0.1,0.01 0.18,0.01 0.21,0.01 h 0.12 l 0.08,-0.01 0.09,-0.03 0.05,-0.03 0.05,-0.04 0.04,-0.03 0.06,-0.04 0.05,-0.02 0.02,-0.01 0.03,0.01 0.04,0.02 0.05,0.08 0.07,0.13 0.02,0.04 0.05,0.03 0.1,0.05 0.03,0.03 0.06,0.05 0.07,0.08 0.05,0.06 0.04,0.06 0.04,0.06 0.05,0.1 0.03,0.06 0.02,0.05 0.01,0.05 v 0.11 l -0.03,0.09 -0.02,-0.01 -0.11,-0.06 -0.09,-0.06 -0.07,0.05 -0.06,0.05 -0.04,0.03 -0.06,0.05 -0.04,0.01 -0.06,0.01 h -0.05 l -0.04,0.01 -0.12,0.02 -0.07,0.01 -0.01,0.01 -1,0.3 -0.03,0.01 -0.02,-0.14 v -0.02 l -0.02,-0.11 -0.01,-0.06 -0.01,-0.05 v -0.01 l -0.01,-0.1 -0.08,0.02 -0.17,0.08 -0.07,0.03 -0.12,0.05 -0.07,0.03 -0.06,0.02 -0.03,0.01 h -0.04 -0.08 -0.1 l -0.16,-0.01 h -0.26 l -0.19,0.15 -0.24,0.17 -0.03,0.03 -0.33,0.24 -0.26,0.2 -0.13,0.09 -0.46,-0.1 -0.38,0.96 1.25,1.21 0.55,0.51 0.17,0.2 0.08,0.04 0.14,0.09 0.14,0.08 0.46,0.27 0.09,0.06 0.05,0.02 0.14,0.08 0.1,0.06 0.13,-0.04 0.04,0.02 0.04,0.02 v 0.01 l 0.02,0.09 v 0.03 l -0.1,0.41 -0.01,0.08 -0.01,0.08 v 0.1 l -0.01,0.02 0.07,0.18 0.05,0.13 0.03,0.05 0.02,0.04 0.05,0.03 0.08,0.05 0.1,0.05 0.02,0.01 0.06,0.06 0.07,0.07 0.06,0.07 0.07,0.08 0.06,0.07 0.11,0.16 0.05,0.07 0.08,0.12 0.02,0.08 v 0.03 l 0.01,0.02 0.02,0.07 v 0.03 l 0.01,0.05 0.08,0.07 0.04,0.04 0.01,0.01 0.01,0.01 0.06,-0.11 0.02,-0.05 v -0.04 l 0.01,-0.03 0.02,-0.02 0.02,-0.03 0.01,-0.04 v -0.04 l 0.01,-0.02 -0.01,-0.04 0.01,-0.05 0.43,-0.04 0.09,0.02 0.1,0.02 0.09,0.02 0.08,0.02 0.15,0.04 h 0.02 0.05 l 0.08,0.01 0.05,0.01 0.06,0.02 0.05,0.02 0.05,0.02 0.03,0.01 h 0.04 0.04 l 0.01,0.02 0.01,0.04 v 0.05 0.02 l 0.01,0.09 v 0.07 0.07 0.1 l 0.03,0.1 0.03,0.05 0.02,0.02 v 0.01 l 0.01,0.01 0.03,0.06 0.05,0.09 0.07,0.13 0.16,0.13 0.07,0.06 0.05,0.06 0.01,0.01 0.04,0.05 0.03,0.06 0.02,0.05 0.02,0.08 v 0.05 0.06 0.04 l 0.01,0.05 -0.01,0.04 -0.02,0.03 -0.02,0.05 -0.01,0.08 -0.03,0.15 -0.02,0.12 -0.02,0.1 v 0.03 l -0.03,0.09 -0.01,0.06 0.04,0.07 0.02,0.04 0.06,0.09 v 0.07 l 0.01,0.13 0.02,0.03 0.01,0.03 0.06,0.14 0.01,0.02 0.03,0.05 -0.29,0.11 h -0.02 l -0.08,0.03 -0.05,0.01 -0.14,0.05 -0.07,0.03 -0.12,0.04 -0.15,0.06 -0.04,0.02 -0.05,0.02 -0.03,0.01 -0.02,0.01 -0.02,0.01 h -0.02 l -0.03,0.02 -0.04,0.01 -0.04,0.02 h -0.02 l -0.02,0.02 -0.05,0.02 -0.06,0.02 -0.06,0.04 -0.05,0.03 -0.23,0.15 -0.03,0.03 -0.03,0.03 -0.01,0.01 -0.04,0.03 -0.03,0.02 -0.04,0.02 -0.05,0.04 -0.06,0.03 -0.07,0.05 -0.06,0.04 -0.05,0.03 -0.04,0.02 -0.05,0.03 -0.03,0.01 -0.04,0.01 -0.07,0.02 -0.04,0.01 h -0.01 l -0.03,0.01 h -0.05 -0.05 -0.03 -0.03 l -0.04,0.01 h -0.04 -0.08 l -0.08,-0.01 h -0.08 l -0.09,-0.01 h -0.03 l -0.03,0.01 -0.04,0.02 -0.07,0.03 -0.06,0.04 h -0.02 l -0.01,0.01 -0.01,0.01 -0.06,0.01 -0.07,0.03 -0.02,0.01 -0.07,0.02 -0.08,0.02 -0.07,0.03 -0.11,0.02 -0.06,0.02 -0.05,0.01 h -0.05 l -0.08,-0.01 h -0.04 -0.03 -0.04 l -0.03,0.02 -0.03,0.02 -0.03,0.04 -0.04,0.05 -0.04,0.04 -0.05,0.05 -0.04,0.03 -0.04,0.01 -0.02,0.04 -0.08,0.1 -0.04,0.05 -0.03,0.04 -0.03,0.04 -0.04,0.04 -0.02,0.03 -0.02,0.05 -0.03,0.13 -0.05,0.13 -0.03,0.11 -0.06,0.16 -0.03,0.11 -0.02,0.07 -0.03,0.08 v 0.03 l -0.02,0.05 -0.01,0.02 -0.02,0.02 -0.03,0.02 -0.06,0.03 -0.07,0.03 -0.07,0.04 -0.09,0.03 -0.05,0.02 -0.02,0.01 -0.03,0.01 -0.04,0.01 -0.03,0.01 h -0.06 -0.07 -0.08 l -0.07,0.01 -0.07,0.01 h -0.07 l -0.06,0.01 -0.07,0.01 -0.07,0.01 h -0.05 l -0.1,0.03 -0.01,0.01 h -0.02 l -0.01,0.01 -0.02,0.04 -0.03,0.03 -0.06,0.06 -0.06,0.07 -0.03,0.02 -0.05,0.05 -0.08,0.05 -0.08,0.05 -0.08,0.06 -0.02,0.02 -0.11,0.07 -0.05,0.03 -0.01,0.01 -0.03,0.03 -0.04,0.02 -0.01,0.02 h -0.01 l -0.01,0.01 -0.11,0.08 -0.04,0.03 -0.05,0.03 -0.09,0.05 -0.05,0.03 -0.04,0.01 -0.03,0.02 -0.03,0.02 -0.02,0.02 -0.03,0.02 -0.03,0.03 -0.03,0.02 -0.03,0.02 -0.05,0.03 h -0.03 -0.06 -0.06 -0.05 l -0.04,-0.01 -0.06,-0.02 -0.05,-0.02 -0.05,-0.02 -0.05,-0.01 h -0.03 -0.02 l -0.19,-0.02 -0.1,-0.08 -0.02,-0.02 H 396 l -0.07,-0.06 -0.05,-0.05 -0.09,-0.07 -0.05,-0.05 -0.05,-0.06 -0.08,-0.08 -0.07,-0.07 -0.09,-0.11 -0.07,-0.09 -0.08,-0.11 -0.05,-0.07 -0.03,-0.05 -0.05,-0.05 -0.07,-0.08 -0.05,-0.07 -0.06,-0.06 -0.04,-0.06 -0.03,-0.03 -0.03,-0.04 -0.03,-0.04 -0.05,-0.05 -0.04,-0.05 -0.06,-0.05 -0.05,-0.05 -0.05,-0.05 -0.01,-0.01 v 0 l -0.01,-0.01 -0.04,-0.03 -0.08,-0.06 -0.09,-0.07 -0.09,-0.06 0.01,-0.04 v -0.03 l 0.01,-0.08 0.01,-0.06 0.01,-0.09 0.01,-0.01 0.01,-0.04 0.01,-0.04 v -0.04 l 0.01,-0.04 0.01,-0.04 v -0.01 l 0.01,-0.02 v -0.03 -0.01 -0.01 l 0.01,-0.05 v -0.01 l -0.03,0.01 h -0.04 -0.05 l -0.04,-0.01 -0.05,-0.02 -0.04,-0.01 -0.06,-0.02 h -0.06 -0.07 -0.1 l -0.07,0.01 h -0.06 -0.17 l -0.06,0.01 h -0.06 -0.07 l -0.05,0.02 -0.06,0.01 -0.04,0.02 -0.05,0.02 -0.04,0.03 -0.03,0.02 -0.01,-0.05 v -0.01 l -0.02,-0.08 -0.01,-0.08 -0.04,-0.22 -0.1,-0.54 -0.02,-0.16 -0.03,-0.19 -0.05,-0.22 -0.04,-0.21 -0.03,-0.2 -0.06,-0.36 h -0.01 v -0.01 -0.01 l -0.03,-0.2 -0.03,-0.19 -0.03,-0.19 -0.03,-0.21 -0.02,-0.13 -0.01,-0.03 -0.01,-0.07 v -0.01 l -0.01,-0.03 -0.01,-0.01 -0.02,-0.08 -0.01,-0.01 -0.01,-0.04 -0.01,-0.01 v -0.02 l -0.05,-0.12 -0.01,-0.02 -0.05,-0.14 v -0.01 l -0.03,-0.07 v -0.01 l -0.01,-0.02 -0.09,-0.21 -0.03,-0.05 -0.01,-0.02 -0.03,-0.02 -0.05,-0.05 -0.1,-0.12 -0.08,-0.09 -0.02,-0.03 -0.06,-0.09 v -0.02 l -0.01,-0.02 0.01,-0.01 v -0.02 l 0.01,-0.05 -0.01,-0.06 -0.01,-0.04 -0.02,-0.05 -0.01,-0.02 -0.02,-0.05 -0.05,-0.12 -0.01,-0.06 -0.02,-0.03 v -0.02 l -0.02,-0.07 -0.02,-0.02 -0.03,-0.05 -0.07,-0.07 -0.02,-0.01 -0.04,-0.04 -0.04,-0.06 -0.07,-0.11 -0.03,-0.03 -0.1,-0.06 -0.05,-0.04 -0.02,-0.02 -0.04,-0.03 -0.07,-0.07 -0.11,-0.12 -0.07,-0.11 -0.05,-0.1 -0.02,-0.03 -0.04,-0.09 -0.09,-0.15 -0.13,-0.18 -0.09,-0.11 -0.03,-0.04 -0.14,-0.16 -0.12,-0.12 -0.14,-0.13 -0.09,-0.09 -0.08,-0.07 -0.02,-0.02 -0.05,-0.03 h -0.03 -0.01 l -0.05,-0.02 -0.04,-0.09 -0.06,-0.13 -0.01,-0.02 v -0.01 l -0.01,-0.01 -0.01,-0.11 -0.03,-0.16 v -0.05 h -0.01 l -0.02,-0.06 -0.05,-0.12 -0.04,-0.07 v -0.01 l -0.01,-0.01 -0.03,-0.05 0.04,-0.04 0.06,-0.06 0.02,-0.02 0.02,-0.05 0.08,-0.16 0.1,-0.22 0.07,-0.16 0.04,-0.08 0.06,-0.11 0.06,-0.11 0.05,-0.1 0.05,-0.1 0.02,-0.05 0.04,-0.07 0.02,-0.04 0.02,-0.05 0.01,-0.03 0.01,-0.04 v -0.03 l 0.01,-0.01 0.01,-0.05 v -0.03 -0.01 h -0.01 l -0.02,-0.01 -0.03,-0.01 -0.03,-0.02 -0.06,-0.04 -0.06,-0.06 -0.1,-0.08 -0.11,-0.08 -0.07,-0.07 -0.07,-0.05 -0.06,-0.04 -0.07,-0.04 -0.1,-0.07 -0.07,-0.05 -0.07,-0.05 -0.03,-0.03 -0.03,-0.04 -0.08,-0.1 -0.06,-0.09 -0.03,-0.04 -0.03,-0.03 -0.03,-0.02 -0.05,-0.05 -0.03,-0.04 -0.02,-0.03 -0.06,-0.05 -0.06,-0.04 -0.05,-0.04 -0.05,-0.05 -0.03,-0.02 -0.03,-0.03 -0.03,-0.04 -0.03,-0.03 -0.02,-0.03 -0.02,-0.02 -0.03,-0.03 -0.01,-0.03 -0.02,-0.02 -0.04,-0.02 -0.05,-0.03 -0.04,-0.05 -0.06,-0.03 -0.05,-0.04 -0.05,-0.03 -0.04,-0.03 -0.05,-0.04 -0.04,-0.03 -0.05,-0.03 -0.03,-0.02 -0.03,-0.03 -0.02,-0.01 -0.02,-0.01 h -0.01 l -0.04,-0.05 -0.01,-0.01 -0.02,-0.02 -0.02,-0.03 -0.04,-0.04 -0.05,-0.03 -0.04,-0.02 -0.04,-0.02 -0.02,-0.01 -0.02,-0.02 -0.02,-0.01 -0.01,-0.01 -0.03,-0.01 -0.04,-0.02 -0.03,-0.01 -0.03,-0.01 -0.04,-0.01 -0.04,-0.01 -0.05,-0.02 -0.03,-0.02 -0.03,-0.01 h -0.03 l -0.04,-0.01 -0.04,-0.01 -0.05,-0.01 h -0.02 -0.02 l -0.01,-0.01 h -0.01 -0.03 -0.05 -0.02 -0.03 -0.06 l -0.04,-0.01 -0.06,-0.01 -0.04,-0.01 h -0.02 l -0.05,-0.03 -0.05,-0.02 -0.06,-0.02 -0.03,-0.01 -0.05,-0.03 -0.04,-0.01 -0.01,-0.01 h -0.01 l -0.05,-0.02 -0.07,-0.04 -0.06,-0.04 -0.07,-0.03 -0.06,-0.03 -0.04,-0.02 -0.05,-0.02 -0.05,-0.02 -0.02,-0.01 -0.04,-0.02 -0.06,-0.04 -0.04,-0.02 -0.03,-0.03 -0.04,-0.03 -0.05,-0.03 -0.06,-0.04 -0.04,-0.03 -0.04,-0.03 -0.05,-0.03 -0.03,-0.03 -0.03,-0.02 -0.03,-0.03 -0.02,-0.03 -0.03,-0.04 -0.03,-0.04 -0.04,-0.04 -0.04,-0.05 -0.06,-0.07 -0.06,-0.08 -0.05,-0.06 -0.04,-0.06 -0.04,-0.06 -0.04,-0.06 -0.04,-0.06 -0.05,-0.07 v 0 l -0.04,-0.07 -0.05,-0.08 -0.05,-0.06 -0.02,-0.02 -0.05,-0.09 -0.01,-0.01 -0.03,-0.04 -0.01,-0.02 -0.01,-0.02 -0.03,-0.03 -0.04,-0.07 -0.03,-0.04 -0.03,-0.05 -0.04,-0.04 -0.02,-0.04 -0.02,-0.03 -0.03,-0.03 -0.03,-0.04 -0.02,-0.02 -0.02,-0.01 -0.01,-0.01 -0.01,-0.01 -0.03,-0.03 -0.02,-0.01 -0.02,-0.02 -0.01,-0.02 -0.01,-0.01 -0.02,-0.02 -0.01,-0.01 -0.06,-0.07 -0.03,-0.04 -0.04,-0.04 -0.04,-0.04 -0.01,-0.01 -0.02,-0.02 -0.02,-0.02 -0.02,-0.02 -0.02,-0.02 -0.03,-0.03 -0.01,-0.01 -0.02,-0.02 -0.01,-0.01 -0.01,-0.01 -0.02,-0.02 -0.02,-0.02 -0.03,-0.02 -0.03,-0.02 -0.04,-0.03 -0.04,-0.02 -0.02,-0.02 -0.04,-0.04 -0.01,-0.01 -0.02,-0.03 -0.03,-0.03 -0.01,-0.01 -0.02,-0.03 -0.01,-0.01 -0.02,-0.03 -0.03,-0.03 -0.03,-0.03 -0.04,-0.03 -0.05,-0.04 -0.03,-0.03 -0.01,-0.01 -0.05,-0.04 -0.03,-0.03 -0.02,-0.02 -0.02,-0.01 -0.03,-0.02 -0.02,-0.03 -0.01,-0.02 -0.01,-0.01 -0.01,-0.01 -0.02,-0.02 -0.02,-0.03 -0.03,-0.05 -0.04,-0.06 -0.02,-0.04 -0.02,-0.03 -0.03,-0.05 -0.02,-0.03 -0.01,-0.01 -0.04,-0.07 -0.02,-0.03 -0.01,-0.02 -0.05,-0.08 -0.03,-0.04 -0.06,-0.09 -0.03,-0.04 -0.02,-0.04 -0.04,-0.05 -0.04,-0.05 -0.03,-0.04 -0.04,-0.06 -0.04,-0.05 -0.04,-0.05 -0.03,-0.03 -0.02,-0.04 -0.04,-0.04 -0.03,-0.04 -0.04,-0.05 -0.11,-0.11 -0.07,-0.05 h -0.01 l -0.05,-0.04 -0.15,-0.08 -0.13,-0.09 -0.15,-0.09 -0.15,-0.1 -0.1,-0.07 -0.03,-0.02 -0.12,-0.11 -0.11,-0.1 -0.12,-0.12 -0.12,-0.11 -0.11,-0.11 -0.13,-0.13 -0.01,-0.03 0.09,-0.05 0.15,-0.07 0.11,-0.14 v -0.01 l 0.01,-0.02 0.06,-0.13 0.06,-0.17 0.07,-0.17 0.07,-0.15 0.09,-0.17 0.07,-0.15 0.06,-0.19 0.09,-0.16 0.09,-0.16 0.08,-0.14 0.07,-0.15 0.08,-0.14 0.07,-0.16 0.09,-0.14 0.06,-0.17 0.05,-0.16 0.04,-0.16 0.06,-0.15 0.06,-0.16 0.06,-0.17 0.06,-0.17 0.04,-0.16 0.04,-0.15 0.04,-0.17 0.04,-0.15 0.04,-0.17 0.02,-0.16 0.02,-0.15 -0.01,-0.04 -0.02,-0.02 -0.03,-0.03 -0.03,-0.04 -0.02,-0.03 -0.01,-0.01 -0.01,-0.01 -0.03,-0.04 -0.03,-0.05 -0.02,-0.02 -0.05,-0.04 -0.01,-0.08 -0.02,-0.09 -0.02,-0.07 v -0.02 l -0.01,-0.02 v -0.03 l -0.02,-0.06 -0.01,-0.07 -0.02,-0.07 -0.01,-0.07 -0.02,-0.05 v -0.06 l -0.02,-0.07 -0.01,-0.05 -0.01,-0.09 -0.01,-0.05 v -0.05 l -0.01,-0.06 -0.01,-0.04 v -0.06 -0.04 l -0.01,-0.05 0.01,-0.05 v -0.07 -0.04 -0.06 -0.05 -0.06 l 0.01,-0.04 v -0.06 -0.03 -0.02 -0.04 l 0.01,-0.05 v -0.06 -0.07 -0.07 -0.07 -0.06 -0.07 l 0.01,-0.06 v -0.06 -0.07 -0.04 -0.03 -0.04 -0.03 -0.08 -0.05 -0.06 l 0.01,-0.06 0.01,-0.07 v -0.07 l 0.01,-0.04 v -0.04 l -0.02,-0.01 -0.06,-0.02 -0.07,-0.04 -0.07,-0.04 -0.06,-0.04 -0.06,-0.03 -0.07,-0.04 -0.07,-0.05 -0.05,-0.03 -0.06,-0.03 -0.05,-0.02 -0.03,-0.03 -0.04,-0.02 -0.04,-0.03 -0.04,-0.03 -0.04,-0.03 -0.04,-0.03 -0.04,-0.03 -0.05,-0.04 -0.04,-0.03 -0.02,-0.01 -0.02,-0.02 -0.05,-0.02 -0.05,-0.02 -0.04,-0.03 -0.03,-0.02 -0.02,-0.02 -0.03,-0.04 -0.05,-0.04 -0.03,-0.03 -0.05,-0.04 -0.05,-0.04 -0.05,-0.05 -0.04,-0.04 -0.05,-0.04 -0.04,-0.05 -0.03,-0.04 -0.03,-0.04 -0.02,-0.02 -0.04,-0.04 -0.02,-0.03 -0.04,-0.04 -0.03,-0.03 -0.03,-0.03 -0.03,-0.03 -0.03,-0.04 -0.03,-0.03 -0.02,-0.02 -0.03,-0.03 -0.03,-0.02 -0.03,-0.05 -0.04,-0.05 -0.04,-0.04 -0.03,-0.03 -0.04,-0.02 -0.04,-0.02 -0.04,-0.02 -0.04,-0.03 -0.05,-0.02 -0.04,-0.02 -0.05,-0.03 -0.05,-0.03 -0.05,-0.02 -0.04,-0.01 -0.04,-0.02 -0.06,-0.02 -0.06,-0.02 -0.06,-0.03 -0.04,-0.01 -0.05,-0.02 -0.04,-0.01 -0.05,-0.02 -0.03,-0.02 -0.05,-0.02 -0.04,-0.02 -0.06,-0.03 -0.04,-0.02 -0.03,-0.02 -0.03,-0.01 -0.04,-0.01 -0.05,-0.03 -0.05,-0.02 -0.05,-0.01 -0.05,-0.03 -0.04,-0.02 -0.06,-0.03 -0.05,-0.02 -0.04,-0.03 -0.04,-0.01 -0.03,-0.02 -0.04,-0.02 -0.05,-0.02 -0.04,-0.01 -0.03,-0.02 -0.03,-0.02 -0.04,-0.02 -0.04,-0.03 -0.03,-0.03 -0.03,-0.03 -0.04,-0.03 -0.03,-0.03 -0.02,-0.03 -0.03,-0.04 -0.03,-0.03 -0.03,-0.04 -0.03,-0.01 -0.03,-0.02 -0.03,-0.02 -0.03,-0.01 -0.02,-0.02 -0.03,-0.03 -0.03,-0.03 -0.02,-0.02 -0.03,-0.03 -0.01,-0.02 -0.02,-0.03 -0.02,-0.02 -0.01,-0.02 -0.04,-0.04 -0.02,-0.03 -0.03,-0.03 -0.03,-0.02 -0.03,-0.03 -0.03,-0.03 -0.03,-0.03 -0.03,-0.03 -0.02,-0.03 -0.03,-0.03 -0.03,-0.04 -0.03,-0.03 -0.03,-0.03 -0.03,-0.02 -0.04,-0.03 -0.04,-0.02 -0.04,-0.02 -0.03,-0.03 h 0.01 l 0.03,-0.01 h 0.05 0.04 0.05 l 0.06,0.01 h 0.03 0.08 0.05 0.06 0.05 0.05 0.02 0.02 v 0.01 h 0.03 l 0.05,0.01 h 0.01 l 0.03,0.01 0.04,0.02 0.04,0.01 0.02,0.02 0.04,0.02 0.02,0.01 0.05,0.02 0.04,0.02 0.04,0.03 0.04,0.02 0.04,0.03 0.04,0.03 0.04,0.02 0.05,0.03 0.03,0.02 0.05,0.03 0.04,0.02 0.03,0.02 0.05,0.02 0.04,0.03 0.04,0.02 0.04,0.02 0.04,0.02 0.04,0.02 0.02,0.01 0.03,0.01 0.03,0.03 0.05,0.02 0.04,0.03 0.04,0.01 0.04,0.02 0.05,0.02 0.04,0.01 0.04,0.02 0.03,0.02 0.05,0.01 0.04,0.02 0.03,0.01 0.03,0.01 h 0.03 0.03 0.04 l 0.04,0.01 h 0.05 0.06 0.04 l 0.05,0.01 h 0.03 l 0.06,0.01 h 0.04 l 0.06,0.01 h 0.04 l 0.04,0.01 h 0.04 0.02 0.02 0.05 l 0.05,0.01 h 0.05 l 0.04,0.01 h 0.05 0.06 l 0.06,0.01 h 0.04 l 0.04,0.01 0.05,0.01 0.02,0.01 0.04,0.01 0.03,0.01 h 0.04 l 0.04,0.01 0.03,0.01 h 0.03 0.04 0.04 0.03 l 0.05,-0.01 h 0.04 0.06 0.03 0.04 0.04 0.03 l 0.03,0.01 0.03,-0.01 h 0.03 0.04 l 0.03,-0.01 0.05,-0.01 h 0.04 l 0.05,-0.01 h 0.04 0.04 0.04 0.04 l 0.04,0.01 0.04,0.01 h 0.04 l 0.06,0.01 0.06,0.01 h 0.06 0.03 0.03 l 0.04,-0.01 h 0.03 l 0.02,-0.01 0.05,-0.01 0.05,-0.02 0.05,-0.01 0.07,-0.01 h 0.02 0.02 0.06 l 0.04,-0.01 0.06,-0.01 h 0.05 0.05 l 0.03,0.01 h 0.02 0.05 0.06 0.05 0.06 0.03 0.03 0.05 l 0.05,0.01 h 0.03 0.04 0.04 0.05 l 0.04,0.01 0.04,0.01 0.04,0.01 0.04,0.02 0.04,0.01 0.06,0.02 0.05,0.02 0.05,0.02 0.06,0.02 0.05,0.02 0.06,0.02 0.05,0.02 0.05,0.02 0.06,0.02 0.04,0.02 h 0.02 l 0.04,0.01 0.11,0.03 0.06,0.01 0.03,0.01 0.06,0.02 0.05,0.02 0.05,0.02 0.05,0.02 0.05,0.01 h 0.02 l 0.03,0.01 h 0.06 0.07 l 0.07,0.01 h 0.05 0.07 l 0.07,0.01 h 0.08 0.05 l 0.05,0.01 h 0.07 l 0.08,0.01 h 0.07 0.07 l 0.05,0.01 h 0.05 0.06 l 0.06,0.01 0.01,-0.02 v -0.03 -0.03 l -0.01,-0.04 -0.01,-0.04 -0.01,-0.03 -0.01,-0.04 -0.03,-0.1 -0.04,-0.1 -0.03,-0.07 -0.02,-0.07 -0.01,-0.05 0.02,-0.1 0.01,-0.07 0.01,-0.07 0.01,-0.08 0.01,-0.04 0.04,-0.01 0.02,-0.01 0.02,-0.01 0.04,-0.01 0.03,-0.03 0.03,-0.01 0.03,-0.02 h 0.01 l 0.05,-0.03 0.03,-0.01 0.02,-0.02 0.02,-0.02 0.02,-0.02 0.01,-0.03 0.02,-0.04 0.02,-0.06 0.02,-0.04 0.04,-0.08 0.01,-0.03 0.01,-0.05 0.02,-0.06 0.02,-0.09 0.02,-0.05 0.01,-0.06 0.01,-0.06 0.01,-0.06 0.01,-0.06 v -0.04 l 0.02,-0.08 -0.05,-0.06 -0.04,-0.05 -0.03,-0.03 -0.02,-0.03 -0.01,-0.03 -0.02,-0.03 -0.03,-0.04 v -0.01 l -0.01,-0.03 -0.02,-0.04 -0.01,-0.04 -0.01,-0.03 -0.02,-0.02 -0.02,-0.03 -0.03,-0.02 -0.03,-0.02 -0.02,-0.02 -0.04,-0.02 -0.04,-0.03 -0.02,-0.01 -0.03,-0.04 -0.02,-0.04 -0.03,-0.05 -0.02,-0.04 -0.02,-0.04 -0.01,-0.03 -0.02,-0.03 -0.01,-0.06 -0.01,-0.04 -0.01,-0.05 -0.01,-0.04 v -0.06 l -0.01,-0.01 -0.01,-0.01 -0.03,-0.05 -0.09,-0.1 -0.09,-0.11 -0.06,-0.11 -0.09,-0.12 -0.1,-0.1 -0.08,-0.09 -0.06,-0.1 -0.05,-0.13 z"
       id="path146" />
  </g>
</svg>
