<?xml version="1.0" encoding="UTF-8" standalone="no"?>
<svg
   version="1.2"
   width="800"
   height="642"
   viewBox="0 0 800 642"
   stroke-linecap="round"
   stroke-linejoin="round"
   id="svg68"
   sodipodi:docname="Allo.svg"
   inkscape:version="1.1.2 (b8e25be833, 2022-02-05)"
   xmlns:inkscape="http://www.inkscape.org/namespaces/inkscape"
   xmlns:sodipodi="http://sodipodi.sourceforge.net/DTD/sodipodi-0.dtd"
   xmlns="http://www.w3.org/2000/svg"
   xmlns:svg="http://www.w3.org/2000/svg">
  <defs
     id="defs72" />
  <sodipodi:namedview
     id="namedview70"
     pagecolor="#ffffff"
     bordercolor="#666666"
     borderopacity="1.0"
     inkscape:pageshadow="2"
     inkscape:pageopacity="0.0"
     inkscape:pagecheckerboard="0"
     showgrid="false"
     inkscape:zoom="1.3146417"
     inkscape:cx="399.72867"
     inkscape:cy="321"
     inkscape:window-width="1848"
     inkscape:window-height="1043"
     inkscape:window-x="72"
     inkscape:window-y="0"
     inkscape:window-maximized="1"
     inkscape:current-layer="svg68" />
  <g
     id="Allo"
     transform="matrix(17.711528,0,0,17.711528,-6881.8461,-6731.0168)">
    <path
       d="m 409.77,384.86 v -0.01 l 0.02,-0.03 0.09,-0.11 0.1,-0.15 0.07,-0.07 v -0.02 l 0.02,-0.01 0.08,-0.09 0.07,-0.08 0.03,-0.03 0.03,-0.03 0.05,-0.06 0.04,-0.04 0.02,-0.04 0.02,-0.02 0.01,-0.01 0.02,-0.04 0.02,-0.02 0.04,-0.06 0.06,-0.07 0.06,-0.09 0.01,-0.01 v -0.01 l 0.02,-0.02 0.03,-0.05 v -0.01 l 0.02,-0.02 0.01,-0.02 0.08,-0.1 0.06,-0.09 0.02,-0.02 0.02,-0.02 0.1,-0.12 0.06,-0.09 0.01,-0.01 0.11,-0.15 0.07,-0.08 0.02,-0.03 0.03,-0.03 v -0.01 l 0.01,-0.01 0.02,-0.02 0.02,-0.02 0.01,-0.01 0.01,-0.01 0.04,-0.05 0.02,-0.02 h 0.01 l 0.01,-0.01 0.03,-0.02 h 0.04 l 0.17,-0.06 0.05,-0.01 0.01,-0.01 0.04,-0.01 h 0.02 l 0.08,-0.02 h 0.01 l 0.06,-0.01 0.04,-0.01 0.28,-0.07 h 0.02 l 0.19,-0.05 h 0.01 l 0.02,-0.01 0.17,-0.05 0.2,-0.06 0.04,-0.01 0.08,-0.03 0.06,-0.02 0.06,-0.03 h 0.03 l 0.01,-0.02 h 0.01 l 0.12,-0.07 0.08,-0.05 0.04,-0.03 h 0.03 0.01 l 0.19,0.01 h 0.04 l 0.18,0.01 h 0.01 0.03 0.01 v -0.01 l 0.11,-0.04 0.02,-0.02 0.09,-0.04 0.11,-0.05 0.01,-0.02 0.01,-0.01 0.06,-0.06 v -0.01 l 0.05,-0.05 0.23,-0.26 0.02,-0.02 0.07,-0.08 0.04,-0.04 0.04,-0.05 h 0.01 l 0.03,-0.02 0.18,-0.05 H 415 l 0.11,-0.03 0.01,-0.01 0.1,-0.02 0.01,-0.01 0.08,-0.01 0.14,-0.04 h 0.01 l 0.07,-0.01 0.14,-0.03 0.03,-0.01 0.04,-0.01 h 0.02 0.02 l 0.01,-0.01 h 0.01 l 0.03,-0.01 0.04,-0.01 0.23,-0.06 0.03,-0.01 h 0.01 l 0.23,-0.08 0.07,-0.03 0.02,-0.01 h 0.01 l 0.06,0.02 0.04,0.01 0.01,0.01 0.04,0.02 h 0.01 l 0.04,0.01 0.04,0.01 h 0.03 l 0.04,0.01 0.03,0.03 0.03,0.02 0.05,0.04 0.03,0.02 0.03,0.01 0.01,0.01 h 0.01 0.04 l 0.04,0.03 0.03,0.03 0.01,0.01 h 0.01 0.02 l 0.02,0.01 0.03,0.01 0.04,0.02 0.02,0.01 v 0.01 l 0.02,0.02 0.02,0.05 0.01,0.01 0.02,0.04 0.02,0.03 0.03,0.05 0.03,0.05 0.04,0.07 0.05,0.08 0.02,0.02 0.01,0.01 0.01,0.01 0.02,0.01 0.07,0.04 0.02,0.01 0.09,0.04 0.02,0.01 0.04,0.02 0.05,0.04 0.07,0.07 0.06,0.06 0.1,0.13 0.08,0.1 v 0.01 l 0.05,0.04 0.04,0.05 0.01,0.01 0.01,0.02 0.02,0.01 0.02,0.03 0.01,0.03 0.04,0.04 0.04,0.05 0.01,0.01 0.01,0.01 0.02,0.02 0.07,0.07 0.02,0.03 0.07,0.01 0.02,0.01 0.02,0.01 0.06,0.04 0.02,0.01 0.08,0.04 0.02,0.01 0.03,0.01 0.02,0.02 0.02,0.02 0.02,0.03 0.08,0.08 0.03,0.02 0.02,0.01 0.08,0.06 0.09,0.04 0.05,0.02 0.04,0.01 0.01,0.02 0.05,0.03 0.04,0.02 0.06,0.05 0.03,0.02 h 0.02 l 0.02,0.02 0.03,0.01 h 0.03 0.03 0.07 0.02 0.04 0.04 0.03 0.06 0.02 0.04 0.03 0.01 l 0.02,0.01 0.04,0.01 0.05,0.01 0.04,0.03 0.04,0.01 0.04,0.02 0.05,0.02 0.04,0.01 0.11,0.04 0.05,0.02 0.05,0.01 0.06,0.01 0.01,0.01 0.02,0.04 0.04,0.07 0.01,0.03 0.05,0.08 0.01,0.02 0.02,0.04 0.1,0.18 0.04,0.07 0.05,0.11 0.02,0.04 0.04,0.09 0.03,0.07 0.02,0.03 0.34,0.38 0.07,0.06 0.02,0.02 0.02,0.01 0.04,0.04 0.02,0.03 0.02,0.01 0.02,0.01 0.07,0.03 0.06,0.03 0.03,0.01 0.02,0.01 0.02,0.03 0.03,0.04 0.02,0.01 0.05,0.03 0.02,0.02 0.01,0.01 0.01,0.01 0.01,0.02 0.08,0.05 0.05,0.04 0.01,0.01 0.28,0.22 0.02,0.03 0.07,0.05 0.04,0.03 0.04,0.02 0.01,0.01 0.04,0.04 0.05,0.04 0.03,0.03 0.06,0.05 0.03,0.03 0.03,0.02 0.05,0.05 0.02,0.02 0.1,0.09 0.15,0.15 0.08,0.08 0.02,0.01 0.08,0.04 0.11,0.05 0.02,0.01 0.14,0.08 0.01,0.02 0.03,0.04 0.04,0.03 0.15,0.24 0.02,0.01 0.01,0.02 0.01,0.01 0.02,0.02 0.05,0.04 0.07,0.07 0.04,0.04 0.01,0.01 0.02,0.02 0.05,0.05 0.01,0.01 0.09,0.08 0.07,0.07 0.08,0.08 0.01,0.01 0.15,0.14 0.31,0.07 0.04,0.01 0.03,0.01 0.03,0.01 0.03,0.02 0.03,0.07 0.01,0.04 0.02,0.05 0.01,0.03 0.01,0.01 0.03,0.08 0.01,0.04 0.01,0.02 v 0.02 l 0.04,0.08 0.01,0.06 -0.24,0.01 -0.19,0.03 -0.14,0.04 -0.05,0.03 -0.04,0.03 -0.03,0.07 -0.02,0.07 v 0.05 l 0.01,0.04 0.04,0.05 0.06,0.06 0.05,0.09 0.04,0.1 0.03,0.11 0.02,0.11 0.01,0.14 -0.01,0.18 -0.02,0.11 -0.03,0.12 -0.08,0.17 -0.15,0.28 -0.15,0.24 -0.04,0.08 -0.01,0.05 v 0.05 l 0.01,0.03 0.03,0.06 0.07,0.1 0.03,0.07 v 0.05 0.04 l -0.02,0.04 -0.01,0.01 -0.01,0.02 -0.1,0.1 -0.15,0.11 -0.37,0.25 -0.06,0.06 -0.04,0.05 -0.03,0.09 -0.03,0.07 -0.05,0.05 -0.1,0.08 -0.1,0.08 -0.08,0.1 -0.12,0.19 -0.05,0.07 -0.1,0.1 -0.11,0.12 -0.04,0.05 -0.01,0.08 v 0.04 l 0.03,0.06 0.14,0.19 0.18,0.25 0.16,0.22 0.13,0.25 0.16,0.32 0.09,0.16 0.06,0.07 0.08,0.06 0.05,0.06 0.03,0.05 0.03,0.09 0.03,0.08 0.05,0.09 0.12,0.15 0.15,0.16 0.25,0.24 0.2,0.15 0.06,0.06 0.05,0.07 0.04,0.08 0.13,0.38 0.06,0.18 0.02,0.07 0.01,0.1 -0.02,0.12 -0.07,0.32 -0.03,0.13 -0.03,0.08 -0.04,0.08 -0.04,0.06 -0.04,0.04 -0.02,0.02 -0.05,0.02 -0.17,0.01 -0.03,0.01 -0.03,0.02 -0.01,0.01 -0.01,0.01 v 0.02 0.04 l -0.01,0.04 -0.02,0.03 -0.03,0.03 -0.2,0.15 -0.04,0.05 -0.03,0.05 -0.02,0.05 -0.01,0.07 0.01,0.06 0.01,0.04 0.03,0.03 0.05,0.03 0.1,0.03 0.12,0.03 h 0.18 l 0.14,0.01 0.07,0.01 0.05,0.01 0.05,0.03 0.05,0.05 0.08,0.1 0.05,0.04 0.02,0.01 0.09,0.07 0.1,0.1 0.07,0.08 0.06,0.08 0.04,0.08 0.03,0.07 0.02,0.11 0.06,0.19 0.05,0.22 0.01,0.12 v 0.05 l -0.01,0.03 -0.02,0.06 -0.07,0.12 -0.1,0.15 -0.19,0.27 -0.2,0.32 -0.04,0.08 -0.03,0.1 -0.01,0.08 v 0.07 0.05 l 0.01,0.03 0.02,0.02 0.02,0.01 0.03,0.01 0.07,-0.01 0.15,-0.05 0.2,-0.07 0.11,-0.02 h 0.09 l 0.08,0.01 0.05,0.02 0.03,0.01 0.02,0.02 v 0.03 l 0.01,0.04 v 0.03 0.04 l -0.01,0.02 -0.01,0.02 -0.01,0.02 -0.01,0.02 -0.01,0.02 v 0.07 l -0.02,0.05 -0.01,0.02 -0.01,0.03 -0.02,0.02 -0.04,0.06 -0.04,0.04 -0.09,0.07 -0.03,0.03 -0.04,0.06 -0.03,0.05 -0.01,0.04 -0.02,0.04 -0.03,0.12 -0.03,0.09 -0.01,0.04 v 0.03 0.05 l 0.01,0.07 v 0.02 l 0.02,0.08 0.02,0.06 0.02,0.1 0.01,0.13 v 0.04 0.11 l -0.01,0.11 -0.01,0.08 -0.02,0.03 -0.01,0.02 -0.03,0.03 -0.06,0.05 -0.04,0.03 -0.04,0.03 -0.06,0.03 -0.09,0.05 -0.11,0.08 -0.09,0.05 -0.06,0.03 -0.03,0.01 -0.08,0.02 -0.11,0.01 -0.06,0.02 -0.08,0.03 -0.07,0.05 -0.28,0.22 -0.09,0.08 -0.06,0.07 -0.04,0.05 -0.03,0.03 -0.08,0.17 -0.05,0.12 -0.02,0.05 v 0.04 0.05 l 0.01,0.05 v 0.03 l 0.02,0.05 0.01,0.02 0.03,0.02 0.01,0.01 0.08,0.03 0.03,0.02 0.01,0.03 0.01,0.03 0.01,0.05 0.01,0.05 -0.01,0.04 -0.01,0.03 -0.01,0.02 -0.01,0.01 -0.03,0.03 -0.03,0.02 h -0.02 l -0.18,0.03 -0.07,0.02 -0.15,0.06 -0.05,0.01 h -0.05 l -0.14,-0.02 h -0.04 l -0.09,0.03 -0.09,0.01 h -0.11 l -0.14,-0.02 -0.06,-0.01 h -0.07 l -0.09,-0.01 h -0.14 -0.24 l -0.11,0.01 -0.16,0.05 -0.1,0.04 -0.15,0.07 -0.03,0.06 -0.01,0.01 -0.01,0.03 -0.02,0.07 -0.15,0.43 -0.07,0.22 -0.02,0.07 -0.01,0.02 -0.08,0.23 -0.01,0.03 -0.01,0.04 -0.03,0.08 -0.01,0.03 -0.06,0.13 -0.01,0.02 -0.14,0.3 -0.03,0.07 -0.01,0.01 -0.13,0.06 -0.01,0.01 -0.05,0.02 -0.09,0.04 h -0.02 l -0.11,0.06 h -0.01 l -0.17,0.08 h -0.01 l -0.02,0.01 -0.18,0.08 v 0 l -0.02,-0.07 v -0.03 l -0.01,-0.03 -0.01,-0.02 -0.03,-0.03 -0.06,-0.06 -0.05,-0.05 -0.01,-0.03 -0.04,-0.08 -0.04,-0.11 -0.01,-0.01 -0.02,-0.02 -0.01,-0.02 h -0.01 l -0.02,-0.01 h -0.01 -0.03 l -0.03,0.01 -0.02,0.02 -0.02,0.02 h -0.01 l -0.03,0.01 h -0.03 -0.04 l -0.1,-0.03 -0.07,-0.03 h -0.02 l -0.05,-0.02 -0.04,-0.01 -0.05,-0.03 -0.02,-0.02 -0.03,-0.03 -0.01,-0.02 -0.02,-0.05 -0.01,-0.04 -0.01,-0.03 -0.01,-0.01 -0.01,-0.02 -0.04,-0.01 -0.2,-0.08 -0.07,-0.04 -0.08,-0.05 -0.02,-0.01 -0.1,-0.04 h -0.02 l -0.1,-0.04 -0.05,-0.01 -0.02,-0.01 -0.06,-0.03 -0.08,-0.05 -0.02,-0.01 -0.04,-0.03 -0.01,-0.02 -0.02,-0.01 v 0 l -0.04,-0.02 -0.01,-0.01 h -0.01 l -0.04,-0.01 -0.07,-0.03 -0.01,-0.01 -0.02,-0.01 h -0.02 -0.1 -0.14 -0.01 -0.02 l -0.09,-0.02 -0.01,-0.01 h -0.01 l -0.05,-0.01 -0.08,-0.03 h -0.03 l -0.03,-0.01 v 0 h -0.03 -0.03 l -0.08,-0.02 -0.1,-0.03 h -0.03 l -0.04,-0.01 -0.01,-0.01 h -0.01 -0.03 l -0.03,-0.01 -0.06,-0.01 -0.02,-0.01 -0.01,-0.01 -0.03,-0.01 h -0.03 l -0.03,0.01 -0.02,0.01 h -0.02 l -0.05,-0.01 h -0.03 l -0.04,0.01 -0.04,0.01 h -0.1 -0.06 l -0.06,0.01 h -0.05 -0.03 l -0.12,-0.01 h -0.06 -0.06 -0.04 l -0.05,-0.01 -0.03,-0.01 -0.05,-0.02 -0.04,-0.01 -0.02,-0.01 h -0.07 -0.06 -0.02 l -0.02,0.02 -0.01,0.01 -0.01,0.07 -0.01,0.02 -0.01,0.02 -0.03,0.03 -0.05,0.03 -0.04,0.01 -0.03,0.01 -0.01,0.01 -0.03,0.02 -0.07,0.07 -0.02,0.03 -0.02,0.03 -0.01,0.02 -0.03,0.04 -0.04,0.11 -0.01,0.04 -0.01,0.06 -0.01,0.04 -0.04,0.11 -0.01,0.03 -0.02,0.06 -0.03,0.09 -0.08,0.16 -0.03,0.07 -0.01,0.02 -0.02,0.02 -0.02,0.04 -0.03,0.03 -0.08,0.07 -0.03,0.03 -0.02,0.03 -0.01,0.02 -0.06,0.12 -0.03,0.05 -0.02,0.01 -0.01,0.02 -0.05,0.05 -0.08,0.07 -0.04,0.03 -0.05,0.03 -0.05,0.01 -0.07,0.03 -0.11,0.04 -0.05,0.02 h -0.01 l -0.03,0.01 -0.06,0.02 -0.03,0.01 -0.03,0.01 -0.03,0.01 -0.13,0.02 -0.08,0.02 -0.11,0.03 -0.09,0.01 h -0.03 l -0.2,0.12 -0.09,0.06 -0.01,0.08 -0.03,0.31 v 0.02 l 0.02,0.06 v 0.04 0.04 0.01 0.03 0.01 l -0.02,0.09 -0.03,0.13 -0.02,0.08 v 0.04 l 0.01,0.07 0.01,0.03 v 0.02 l 0.01,0.04 v 0.06 l 0.04,0.32 0.01,0.13 v 0 l 0.01,0.01 v 0.05 0.03 0.05 l -0.01,0.15 v 0.03 0.14 l 0.01,0.1 v 0.04 0.01 0.01 0.01 0.01 0.02 l -0.02,0.08 -0.11,0.28 -0.04,0.09 -0.01,0.03 -0.05,0.09 -0.13,0.24 -0.03,0.05 -0.06,0.1 -0.02,0.02 -0.07,0.09 -0.03,0.04 -0.06,0.04 -0.2,0.15 -0.03,0.01 -0.07,0.06 -0.02,0.01 -0.17,0.16 -0.04,0.04 -0.07,0.07 -0.04,0.03 -0.13,0.12 -0.03,0.05 -0.06,0.1 -0.19,0.31 -0.02,0.05 -0.06,0.11 v 0 l -0.06,0.12 -0.07,0.12 -0.01,0.02 -0.01,0.01 -0.06,0.11 -0.13,0.2 -0.05,0.1 -0.1,0.16 -0.31,0.42 -0.07,0.1 -0.01,0.01 -0.07,0.1 -0.06,0.08 -0.04,0.06 -0.03,0.05 -0.09,0.12 -0.02,0.05 -0.08,0.09 v 0.01 l -0.02,0.03 -0.06,0.09 h -0.03 -0.01 l -0.06,-0.02 -0.11,-0.06 -0.02,-0.01 -0.07,-0.02 h -0.02 l -0.14,-0.01 -0.07,-0.02 -0.04,-0.02 -0.05,-0.03 -0.19,-0.12 -0.05,-0.03 -0.04,-0.02 -0.07,-0.02 -0.04,-0.01 -0.05,-0.01 -0.07,-0.02 -0.12,-0.04 -0.32,-0.11 -0.07,-0.02 -0.09,-0.01 -0.1,-0.01 -0.21,-0.03 -0.19,-0.01 -0.05,-0.01 h -0.02 l -0.05,-0.02 -0.07,-0.04 -0.05,-0.02 -0.21,-0.09 -0.09,-0.04 -0.14,-0.06 -0.32,-0.14 -0.02,-0.02 -0.12,-0.06 -0.1,-0.05 -0.14,-0.08 -0.13,-0.07 -0.04,-0.02 -0.04,-0.02 -0.12,-0.02 -0.16,-0.04 -0.1,-0.04 -0.03,-0.02 -0.05,-0.02 -0.13,-0.05 -0.06,-0.02 -0.09,-0.02 -0.06,-0.01 -0.09,-0.02 -0.14,-0.04 -0.03,-0.01 -0.3,-0.1 -0.23,-0.08 -0.07,-0.02 -0.02,-0.01 -0.01,-0.02 -0.08,-0.08 -0.06,-0.08 0.07,-0.09 0.01,-0.02 0.01,-0.01 0.03,-0.05 0.03,-0.05 0.05,-0.07 0.04,-0.06 0.02,-0.05 0.04,-0.06 0.02,-0.05 0.01,-0.03 0.01,-0.03 0.02,-0.07 0.01,-0.2 0.01,-0.06 v -0.06 l 0.01,-0.07 0.01,-0.1 0.01,-0.07 0.04,-0.17 0.01,-0.04 0.02,-0.11 0.02,-0.11 0.04,-0.25 v 0 l 0.01,-0.05 0.02,-0.09 v -0.03 l 0.01,-0.05 0.01,-0.03 0.01,-0.05 0.04,-0.14 0.01,-0.02 0.03,-0.13 0.02,-0.05 0.02,-0.05 0.01,-0.05 0.03,-0.21 v -0.01 l 0.01,-0.04 0.03,-0.19 0.04,-0.22 v -0.04 l 0.02,-0.13 0.03,-0.15 0.01,-0.12 0.02,-0.14 0.02,-0.2 0.01,-0.06 0.02,-0.21 v -0.06 l 0.01,-0.19 v -0.02 -0.12 -0.06 -0.01 -0.16 -0.1 -0.08 -0.09 -0.02 -0.04 -0.01 l -0.01,-0.14 v -0.09 l -0.01,-0.06 v -0.03 -0.01 -0.03 l -0.08,-0.41 v -0.05 l -0.03,-0.11 v -0.04 l -0.02,-0.06 -0.01,-0.05 -0.04,-0.09 -0.02,-0.06 -0.02,-0.04 v -0.03 l -0.01,-0.02 -0.02,-0.07 v -0.02 l -0.01,-0.01 -0.02,-0.1 -0.03,-0.11 v -0.01 l -0.02,-0.13 -0.01,-0.02 -0.01,-0.08 v -0.02 l -0.01,-0.07 -0.02,-0.17 v -0.01 l -0.01,-0.04 v -0.09 l -0.02,-0.13 -0.01,-0.11 -0.03,-0.16 -0.03,-0.16 -0.02,-0.08 0.07,-0.01 H 405 l 0.29,-0.05 0.01,-0.01 h 0.04 l 0.02,-0.11 0.01,-0.12 0.01,-0.11 0.03,-0.2 0.03,-0.21 0.01,-0.08 v -0.02 l 0.03,-0.23 0.05,-0.22 0.05,-0.27 v -0.02 -0.01 l 0.05,-0.26 0.07,-0.33 0.01,-0.08 0.02,-0.48 v -0.05 -0.01 -0.01 -0.01 l 0.01,-0.02 v -0.06 l 0.01,-0.24 v -0.03 l 0.01,-0.25 0.05,-0.33 v -0.01 l 0.04,-0.25 0.01,-0.06 0.01,-0.02 0.02,-0.18 0.01,-0.04 v -0.02 l 0.05,-0.13 0.16,-0.48 0.01,-0.04 v 0 l 0.02,-0.05 0.04,-0.16 0.04,-0.12 0.01,-0.04 0.01,-0.05 v -0.01 l 0.02,-0.06 0.1,-0.36 0.04,-0.12 0.02,-0.09 v -0.09 -0.01 l 0.01,-0.39 v -0.06 l 0.01,-0.72 v -0.22 -0.01 -0.02 l 0.01,-0.28 V 396 395.99 l 0.01,-0.17 v -0.01 l 0.01,-0.12 v -0.01 -0.02 l 0.13,-0.29 0.02,-0.04 0.02,-0.04 0.07,-0.13 0.05,-0.12 0.02,-0.05 v -0.01 -0.01 l -0.01,-0.13 v -0.21 l -0.01,-0.02 v -0.1 l -0.01,-0.21 v -0.1 l -0.01,-0.17 -0.01,-0.1 v -0.08 l 0.01,-0.03 v -0.01 -0.01 l 0.11,-0.26 0.04,-0.09 0.05,-0.12 0.09,-0.19 0.01,-0.04 0.01,-0.03 0.04,-0.17 0.07,-0.27 0.04,-0.12 0.03,-0.11 0.03,-0.1 0.02,-0.07 v -0.02 h 0.01 v -0.03 l 0.04,-0.1 0.03,-0.11 v -0.02 l 0.02,-0.07 0.04,-0.1 0.05,-0.17 0.05,-0.14 0.01,-0.04 0.04,-0.13 0.02,-0.06 v -0.01 l 0.02,-0.06 0.04,-0.18 0.05,-0.18 0.04,-0.13 v -0.01 l 0.01,-0.05 0.02,-0.05 v -0.01 l 0.07,-0.25 v -0.01 l 0.01,-0.02 0.01,-0.03 0.03,-0.1 0.06,-0.22 0.02,-0.05 0.03,-0.1 0.04,-0.11 v -0.02 l 0.01,-0.03 0.02,-0.07 0.03,-0.1 0.06,-0.21 0.02,-0.06 0.02,-0.05 0.07,-0.25 v -0.01 l 0.08,-0.16 0.01,-0.04 0.02,-0.03 0.06,-0.11 0.06,-0.08 0.05,-0.1 0.01,-0.02 0.04,-0.06 0.06,-0.11 0.01,-0.02 0.09,-0.2 0.03,-0.05 0.02,-0.04 0.06,-0.13 0.02,-0.04 0.09,-0.18 0.05,-0.1 0.01,-0.01 v -0.01 l 0.03,-0.06 0.08,-0.19 v -0.01 l 0.01,-0.02 0.07,-0.14 0.01,-0.02 0.01,-0.03 0.02,-0.04 0.02,-0.06 0.06,-0.16 0.05,-0.13 0.02,-0.08 0.04,-0.1 v -0.01 -0.01 l 0.16,-0.41 0.03,-0.1 0.02,-0.05 0.01,-0.01 0.01,-0.04 0.02,-0.08 0.04,-0.11 0.01,-0.01 0.01,-0.03 v 0 l 0.01,-0.03 0.01,-0.04 0.02,-0.06 0.01,-0.01 0.01,-0.04 0.01,-0.03 0.03,-0.06 0.01,-0.04 0.02,-0.05 0.02,-0.06 v -0.01 -0.01 0 l -0.12,-0.18 z"
       id="path65" />
  </g>
</svg>
