<?xml version="1.0" encoding="UTF-8" standalone="no"?>
<svg
   version="1.2"
   width="800"
   height="642"
   viewBox="0 0 800 642"
   stroke-linecap="round"
   stroke-linejoin="round"
   id="svg158"
   sodipodi:docname="Alonsotegi.svg"
   inkscape:version="1.1.2 (b8e25be833, 2022-02-05)"
   xmlns:inkscape="http://www.inkscape.org/namespaces/inkscape"
   xmlns:sodipodi="http://sodipodi.sourceforge.net/DTD/sodipodi-0.dtd"
   xmlns="http://www.w3.org/2000/svg"
   xmlns:svg="http://www.w3.org/2000/svg">
  <defs
     id="defs162" />
  <sodipodi:namedview
     id="namedview160"
     pagecolor="#ffffff"
     bordercolor="#666666"
     borderopacity="1.0"
     inkscape:pageshadow="2"
     inkscape:pageopacity="0.0"
     inkscape:pagecheckerboard="0"
     showgrid="false"
     inkscape:zoom="1.3146417"
     inkscape:cx="399.72867"
     inkscape:cy="332.02962"
     inkscape:window-width="1848"
     inkscape:window-height="1016"
     inkscape:window-x="72"
     inkscape:window-y="1107"
     inkscape:window-maximized="1"
     inkscape:current-layer="svg158" />
  <g
     id="Alonsotegi"
     transform="matrix(24.487186,0,0,24.487186,-2895.8332,-2885.1772)">
    <path
       d="m 135.7,122.56 -0.01,0.02 v 0.08 l -0.02,0.05 -0.03,0.05 -0.03,0.05 -0.05,0.04 -0.06,0.04 -0.06,0.02 h -0.06 l -0.09,-0.02 -0.08,-0.01 -0.09,-0.01 -0.08,-0.01 -0.08,-0.02 h -0.05 -0.09 -0.05 l -0.05,0.01 -0.1,0.03 -0.04,0.02 -0.03,0.02 -0.04,0.02 -0.03,0.01 -0.05,0.02 -0.05,0.05 -0.06,0.06 -0.06,0.08 -0.04,0.06 -0.07,0.11 -0.06,0.09 -0.07,0.11 -0.05,0.06 -0.06,0.06 -0.04,0.03 -0.06,0.05 -0.04,0.02 -0.04,0.01 -0.01,0.01 h -0.06 -0.02 l -0.28,-0.09 v 0.05 l 0.39,0.71 0.55,0.63 0.6,0.68 0.39,0.45 0.35,0.4 1.34,1.58 1.19,0.92 0.77,0.26 1.42,0.25 0.86,0.66 1.5,1.16 0.64,0.16 0.19,0.16 0.1,0.13 0.3,0.3 0.22,0.15 0.09,0.13 -0.02,0.83 0.09,0.98 0.28,0.26 0.08,0.29 -1.15,0.08 -0.43,0.33 -0.16,0.41 -0.32,0.2 -0.21,0.27 -0.31,0.09 -0.12,0.12 -0.29,0.45 -0.18,0.12 -0.04,0.05 -0.02,0.04 -0.06,0.06 -0.01,0.02 -0.03,0.05 -0.03,0.05 -0.02,0.04 -0.01,0.04 -0.03,0.07 -0.02,0.05 -0.02,0.06 -0.02,0.04 -0.04,0.08 -0.01,0.11 -0.02,0.11 0.01,0.08 -0.05,0.55 -0.06,0.29 -0.2,0.15 -0.22,0.14 -0.3,0.13 -0.37,0.4 -0.18,0.06 -1.09,0.14 -0.92,0.22 -0.52,0.2 -0.47,-0.03 -0.82,0.3 -0.3,0.06 -0.36,0.28 -0.09,0.06 -0.51,-0.02 -0.06,0.14 -0.46,-0.37 -0.75,-0.28 -0.18,-0.12 -0.44,-0.24 -0.11,-0.28 -0.2,-0.45 -0.09,-0.09 -0.1,-0.12 -0.05,-0.14 -0.3,-0.25 -0.12,-0.15 -0.04,-0.02 -0.26,-0.2 -0.09,-0.14 -0.03,-0.1 -0.09,-0.11 -0.08,-0.04 -0.12,0.02 -0.18,0.08 h -0.12 l -0.09,-0.06 -0.1,-0.22 -0.09,-0.06 -0.31,-0.16 -0.09,-0.07 -0.2,-0.08 -0.21,-0.13 -0.17,-0.03 -0.36,0.04 -0.2,0.03 -0.17,0.07 -0.17,-0.03 -0.03,-0.09 h -0.18 l -0.15,0.01 -0.09,-0.02 -0.01,-0.11 -0.06,-0.05 -0.2,-0.29 -0.29,-0.1 -0.09,-0.35 0.01,-0.14 -0.08,-0.17 -0.11,-0.12 -0.07,-0.13 v -0.16 l 0.06,-0.15 0.01,-0.1 0.14,-0.36 -0.01,-0.19 0.02,-0.1 -0.14,-0.36 -0.11,-0.12 -0.15,-0.09 -0.3,-0.52 -0.15,-0.09 -0.09,-0.18 -0.18,-0.15 -0.09,-0.18 -0.09,-0.05 -0.29,-0.04 -0.35,-0.18 -0.21,-0.22 -0.11,-0.02 -0.07,0.04 -0.1,-0.03 -0.02,-0.11 -0.04,-0.07 -0.08,-0.04 -0.31,-0.09 -0.02,-0.05 v -0.14 l -0.11,-0.12 -0.02,-0.29 0.18,-0.27 0.02,-0.26 0.48,-0.69 0.09,-0.2 0.12,-0.24 0.08,-0.18 0.03,-0.06 0.05,-0.08 0.06,-0.1 0.17,-0.26 0.08,-0.13 0.01,-0.11 0.01,-0.09 -0.04,-0.12 -0.04,-0.1 -0.02,-0.03 -0.04,-0.08 -0.07,-0.1 -0.03,-0.03 -0.02,-0.01 -0.09,-0.05 -0.02,-0.01 -0.07,-0.02 h -0.05 l -0.04,0.02 -0.14,0.05 h -0.01 l -0.32,0.13 h -0.02 l -0.03,0.01 h -0.03 l -0.03,0.01 h -0.04 l -0.06,0.01 h -0.04 l -0.06,-0.01 -0.03,-0.01 -0.04,-0.02 -0.03,-0.03 -0.02,-0.03 -0.03,-0.03 -0.01,-0.04 -0.01,-0.02 v -0.04 -0.03 -0.02 -0.04 l 0.01,-0.02 0.05,-0.11 -0.16,-0.06 -0.04,-0.04 -0.04,-0.05 -0.04,-0.05 -0.05,-0.04 -0.01,-0.01 -0.02,-0.01 -0.02,-0.01 -0.02,-0.01 -0.01,-0.01 -0.02,-0.01 h -0.02 l -0.13,-0.08 h -0.01 l -0.02,-0.01 -0.02,-0.01 -0.01,-0.01 -0.02,-0.01 -0.01,-0.01 -0.02,-0.01 -0.01,-0.01 -0.02,-0.01 -0.01,-0.02 -0.01,-0.02 -0.01,-0.02 v -0.01 l -0.01,-0.03 v -0.01 -0.03 l -0.01,-0.02 v -0.02 -0.02 -0.01 l -0.01,-0.02 v -0.02 -0.02 l -0.01,-0.02 -0.01,-0.02 -0.01,-0.02 -0.01,-0.01 -0.01,-0.02 -0.01,-0.02 v -0.01 l -0.01,-0.02 -0.01,-0.02 -0.01,-0.02 -0.01,-0.01 -0.01,-0.02 -0.01,-0.01 -0.01,-0.02 -0.01,-0.02 -0.01,-0.01 v -0.02 l -0.01,-0.02 v -0.02 -0.02 l -0.01,-0.02 v -0.01 l -0.01,-0.02 -0.02,-0.01 -0.01,-0.02 -0.01,-0.01 -0.02,-0.02 -0.01,-0.01 -0.02,-0.01 2.3,-1.34 -0.83,-1.7 -0.82,-1.65 -0.11,-0.21 1.81,-0.29 1.7,-0.81 0.12,-0.05 v -0.01 l 0.01,-0.01 h 0.01 l 0.01,-0.02 h 0.01 l 0.01,-0.01 0.02,-0.05 0.06,-0.07 0.07,-0.06 0.01,-0.01 0.02,-0.01 0.01,-0.02 0.01,-0.01 0.02,-0.01 0.01,-0.01 0.01,-0.02 0.02,-0.01 0.01,-0.01 0.01,-0.02 0.02,-0.01 0.01,-0.02 0.02,-0.01 0.02,-0.01 h 0.01 l 0.02,-0.01 h 0.02 0.02 0.02 l 0.02,-0.01 h 0.02 0.02 0.02 l 0.02,0.01 h 0.02 0.02 0.02 0.02 0.02 l 0.02,0.01 h 0.02 0.02 0.02 l 0.02,0.01 h 0.02 0.02 l 0.02,0.01 h 0.02 l 0.01,0.01 h 0.03 l 0.01,0.01 h 0.02 l 0.02,0.01 h 0.02 l 0.02,0.01 h 0.01 l 0.02,0.01 0.02,0.01 h 0.02 l 0.02,0.01 h 0.02 l 0.02,0.01 h 0.01 l 0.02,0.01 h 0.02 l 0.02,0.01 h 0.02 l 0.02,0.01 h 0.02 0.02 0.02 l 0.02,0.01 h 0.02 l 0.02,0.01 h 0.02 0.01 l 0.02,0.01 h 0.02 l 0.02,0.01 h 0.02 0.02 0.01 0.02 0.02 0.02 0.01 l 0.02,-0.01 h 0.02 l 0.01,-0.02 0.02,-0.01 0.01,-0.02 0.01,-0.01 0.02,-0.02 v -0.01 l 0.01,-0.02 0.01,-0.01 0.02,-0.02 0.01,-0.02 0.01,-0.01 0.01,-0.02 0.01,-0.01 0.02,-0.02 0.01,-0.01 0.02,-0.01 h 0.02 l 0.02,-0.01 0.01,-0.01 0.02,-0.01 0.02,-0.01 0.02,-0.01 0.01,-0.01 h 0.02 l 0.02,-0.01 0.02,-0.01 0.01,-0.01 0.02,-0.01 0.02,-0.01 0.02,-0.01 h 0.01 l 0.02,-0.01 0.02,-0.01 h 0.02 l 0.02,-0.01 0.02,-0.01 h 0.02 l 0.01,-0.01 0.02,-0.01 0.02,-0.01 h 0.01 l 0.02,-0.01 0.02,-0.01 v -0.02 l 0.01,-0.02 0.01,-0.01 h 0.02 l 0.02,-0.02 h 0.01 l 0.02,-0.02 0.01,-0.01 0.01,-0.01 0.02,-0.01 0.02,-0.01 h 0.02 l 0.02,-0.01 h 0.02 l 0.02,-0.01 0.01,-0.01 0.01,-0.01 0.02,-0.02 0.01,-0.01 0.01,-0.02 0.01,-0.01 0.02,-0.01 0.01,-0.01 0.03,-0.01 0.01,-0.01 0.02,-0.01 h 0.02 l 0.02,-0.01 h 0.02 0.02 0.01 0.02 0.02 0.02 l 0.02,-0.01 h 0.02 0.02 l 0.01,-0.01 0.02,-0.01 h 0.02 0.02 0.02 0.03 l 0.06,0.01 h 0.02 l 0.02,-0.01 h 0.02 l 0.02,-0.01 h 0.02 l 0.01,-0.01 h 0.02 l 0.02,-0.01 h 0.02 0.02 0.02 0.02 0.02 l 0.02,0.01 h 0.01 0.02 0.02 0.02 0.02 l 0.02,-0.01 h 0.01 0.02 0.02 0.02 0.02 0.02 0.02 0.02 l 0.02,0.01 h 0.02 0.01 l 0.02,-0.01 h 0.02 0.02 l 0.02,-0.01 0.01,-0.02 0.02,-0.01 0.01,-0.01 0.02,-0.01 h 0.02 l 0.01,-0.01 0.02,-0.01 h 0.02 0.02 0.02 l 0.02,-0.01 h 0.01 0.02 0.02 0.02 l 0.02,0.01 h 0.01 0.02 l 0.02,0.01 h 0.02 l 0.02,0.01 0.01,0.01 0.02,0.01 0.02,0.01 h 0.02 l 0.02,0.01 h 0.02 0.02 l 0.02,-0.01 h 0.02 0.01 l 0.03,0.01 h 0.02 0.02 l 0.02,0.01 h 0.02 0.02 0.02 l 0.02,0.01 h 0.02 l 0.02,-0.01 h 0.01 0.03 0.02 0.02 0.01 0.02 0.02 0.02 0.02 0.02 0.02 0.02 0.02 0.02 0.02 0.01 0.03 0.01 l 0.02,0.01 h 0.02 0.02 l 0.02,0.01 h 0.02 l 0.02,0.01 h 0.01 0.02 0.02 l 0.05,0.07 0.03,0.04 0.42,0.44 0.53,0.02 0.52,1.1 h 0.49 l 0.66,0.72 z"
       id="path155" />
  </g>
</svg>
