<?xml version="1.0" encoding="UTF-8" standalone="no"?>
<svg
   version="1.2"
   width="800"
   height="642"
   viewBox="0 0 800 642"
   stroke-linecap="round"
   stroke-linejoin="round"
   id="svg77"
   sodipodi:docname="Aloze-Ziboze-Onizegaine.svg"
   inkscape:version="1.1.2 (b8e25be833, 2022-02-05)"
   xmlns:inkscape="http://www.inkscape.org/namespaces/inkscape"
   xmlns:sodipodi="http://sodipodi.sourceforge.net/DTD/sodipodi-0.dtd"
   xmlns="http://www.w3.org/2000/svg"
   xmlns:svg="http://www.w3.org/2000/svg">
  <defs
     id="defs81" />
  <sodipodi:namedview
     id="namedview79"
     pagecolor="#ffffff"
     bordercolor="#666666"
     borderopacity="1.0"
     inkscape:pageshadow="2"
     inkscape:pageopacity="0.0"
     inkscape:pagecheckerboard="0"
     showgrid="false"
     inkscape:zoom="1.3146417"
     inkscape:cx="399.72867"
     inkscape:cy="321"
     inkscape:window-width="1848"
     inkscape:window-height="1043"
     inkscape:window-x="72"
     inkscape:window-y="0"
     inkscape:window-maximized="1"
     inkscape:current-layer="svg77" />
  <g
     id="Aloze-Ziboze-Onizegaine"
     transform="matrix(26.677272,0,0,26.677272,-19201.02,-4209.4865)">
    <path
       d="m 731.37,163.15 0.1,-0.09 0.43,-0.47 0.09,-0.22 0.25,-0.35 0.39,0.07 0.06,-0.13 -0.01,-0.09 -0.13,-0.11 0.01,-0.14 0.25,-0.3 0.07,-0.15 0.25,-0.39 0.01,-0.11 0.02,-0.02 0.01,-0.02 0.09,-0.03 0.03,-0.01 0.02,0.01 h 0.02 l 0.02,0.01 0.01,0.01 0.03,0.02 0.03,0.02 0.1,0.1 0.02,0.04 0.03,0.05 0.12,0.17 -0.25,0.25 -0.02,0.2 -0.04,0.21 0.1,0.17 0.02,0.46 h 0.07 l 0.09,-0.05 h 0.12 l 0.25,-0.18 0.2,-0.02 0.04,0.38 0.05,0.59 0.02,0.03 0.02,0.03 0.02,0.03 0.01,0.03 0.02,0.03 v 0.03 0.03 0.03 0.03 l -0.01,0.04 v 0.07 l 0.01,0.02 v 0.02 l 0.01,0.04 0.02,0.04 0.01,0.03 0.01,0.04 0.02,0.04 v 0.03 l 0.02,0.04 0.02,0.03 0.01,0.03 0.01,0.03 0.03,0.03 0.02,0.02 0.03,0.03 0.02,0.02 0.02,0.03 0.01,0.02 0.01,0.02 0.01,0.03 v 0.04 l 0.03,0.11 v 0.01 l 0.38,0.07 0.35,0.01 0.21,-0.14 0.04,0.05 0.13,0.09 0.11,0.09 0.04,0.02 0.02,0.01 0.05,0.02 0.02,0.01 h 0.02 l 0.01,0.01 0.03,0.01 0.1,0.09 h 0.06 0.01 0.04 l 0.05,0.01 0.04,0.01 0.05,0.02 0.05,0.02 h 0.07 l 0.12,0.02 0.08,0.02 0.14,0.03 0.11,0.02 0.03,0.01 0.04,0.02 0.03,0.02 0.01,0.02 h 0.06 0.06 l 0.13,-0.02 0.09,0.08 0.14,0.07 0.08,0.03 0.05,-0.03 0.03,0.05 0.04,0.06 0.03,0.04 0.09,0.08 0.09,0.07 0.18,0.57 0.05,0.13 0.06,0.1 0.29,0.14 0.07,0.15 0.06,0.11 0.07,0.16 0.08,0.11 0.02,0.03 0.07,0.12 0.05,0.1 0.07,0.08 0.05,0.04 v 0.05 0.05 l 0.03,0.06 0.02,0.04 0.04,0.06 0.03,0.04 0.19,0.13 0.2,0.48 0.48,0.6 0.06,0.15 0.04,0.09 0.03,0.09 0.01,0.03 0.02,0.08 0.01,0.09 0.04,0.1 0.03,0.07 0.04,0.09 0.03,0.07 0.02,0.06 v 0.04 l -0.49,0.37 -0.01,0.01 -0.01,0.09 0.01,0.09 v 0.03 l 0.03,0.05 0.01,0.02 0.01,0.01 0.02,0.01 0.05,0.02 0.02,0.03 0.03,0.05 0.02,0.03 0.02,0.05 0.02,0.03 0.02,0.02 0.04,0.07 0.21,0.39 0.04,0.04 0.05,0.34 0.08,0.25 -0.2,0.57 -0.1,0.34 -0.49,0.95 0.02,0.11 0.01,0.08 0.01,0.08 0.02,0.05 v 0.07 0.04 0.04 l -0.01,0.04 v 0.01 l -0.04,0.05 -0.09,0.07 -0.14,0.1 -0.13,0.11 -0.09,0.1 -0.12,0.13 -0.05,0.06 -0.08,-0.02 -0.18,-0.01 -0.02,-0.02 -0.04,-0.1 -0.12,-0.24 -0.01,-0.19 -0.08,-0.18 0.07,-0.07 0.06,-0.05 0.03,-0.04 0.04,-0.04 0.02,-0.03 0.03,-0.05 0.11,-0.12 -0.03,0.01 h -0.04 l -0.02,-0.02 -0.05,-0.03 -0.02,-0.01 -0.03,-0.01 -0.04,-0.03 -0.04,-0.03 -0.06,-0.03 -0.07,-0.04 -0.05,-0.02 -0.06,-0.01 h -0.03 -0.06 -0.06 l -0.08,0.01 h -0.09 l -0.04,-0.01 -0.14,0.14 -0.21,0.07 -0.62,0.02 -0.07,-0.03 -0.03,-0.16 -0.04,-0.01 -0.06,-0.01 -0.04,-0.02 -0.05,-0.04 -0.04,-0.05 -0.06,-0.05 -0.03,-0.02 -0.04,-0.02 -0.06,-0.01 -0.09,-0.04 -0.09,-0.04 -0.08,-0.04 -0.08,-0.03 -0.05,-0.01 -0.06,-0.02 -0.06,-0.01 -0.07,0.01 -0.11,0.01 -0.12,0.03 -0.11,0.02 -0.11,0.04 0.03,0.19 h -0.05 -0.02 -0.03 -0.04 l -0.03,0.01 h -0.05 l -0.04,0.01 h -0.04 -0.03 -0.02 l -0.02,-0.01 -0.01,-0.01 -0.01,-0.02 v -0.02 -0.03 l 0.03,-0.03 0.06,-0.07 0.04,-0.05 0.05,-0.04 0.02,-0.04 0.02,-0.02 0.01,-0.02 0.01,-0.02 -0.24,-0.07 0.04,-0.27 0.01,-0.24 -0.02,-0.02 -0.03,-0.02 -0.03,-0.04 -0.02,-0.03 -0.01,-0.03 -0.01,-0.03 -0.01,-0.03 -0.02,-0.04 -0.01,-0.01 -0.03,-0.01 -0.01,0.01 -0.05,0.06 -0.05,0.07 -0.04,0.07 -0.02,0.05 -0.03,0.06 -0.01,0.03 -0.02,0.04 -0.02,0.03 -0.01,0.03 -0.02,0.03 -0.01,0.03 -0.01,0.05 -0.02,0.07 -0.01,0.06 -0.01,0.06 -0.03,0.04 -0.22,0.08 -0.14,0.1 -0.19,0.01 -0.17,0.19 v -0.02 -0.01 -0.02 -0.01 -0.02 -0.02 l 0.01,-0.01 v -0.02 l -0.01,-0.02 v -0.01 -0.02 l -0.01,-0.01 v -0.01 l -0.01,-0.01 v -0.02 -0.01 l -0.01,-0.02 v -0.01 l -0.01,-0.02 -0.01,-0.02 v -0.01 l -0.01,-0.01 -0.01,-0.02 -0.01,-0.02 v -0.01 l -0.01,-0.02 v -0.02 l -0.01,-0.01 v -0.02 -0.01 -0.01 L 734,172.49 v -0.01 -0.01 -0.01 l -0.01,-0.02 v -0.01 -0.01 l -0.01,-0.01 v -0.02 l -0.01,-0.02 v -0.01 -0.02 l -0.01,-0.01 v -0.02 l -0.01,-0.01 v -0.01 -0.02 l -0.01,-0.01 v -0.02 l -0.01,-0.01 v -0.01 -0.01 l -0.01,-0.01 v -0.01 -0.01 -0.01 -0.01 -0.02 -0.01 -0.01 -0.02 -0.01 l -0.01,-0.02 v -0.01 l -0.01,-0.02 v -0.02 l -0.01,-0.01 V 172 l -0.01,-0.02 -0.01,-0.02 v -0.01 l -0.01,-0.01 -0.01,-0.02 -0.01,-0.01 -0.01,-0.01 v -0.01 l -0.01,-0.01 -0.01,-0.01 -0.01,-0.01 v -0.01 l -0.02,-0.01 h -0.01 l -0.01,-0.01 -0.01,-0.01 -0.01,-0.01 -0.01,-0.01 -0.01,-0.01 -0.01,-0.01 -0.01,-0.01 -0.01,-0.01 -0.01,-0.01 -0.02,-0.02 -0.01,-0.01 -0.01,-0.01 -0.02,-0.01 -0.01,-0.01 -0.01,-0.01 h -0.01 l -0.01,-0.01 -0.01,-0.01 -0.01,-0.01 -0.01,-0.01 h -0.01 l -0.01,-0.01 h -0.01 -0.01 -0.02 -0.01 l -0.01,-0.01 h -0.01 -0.02 -0.01 -0.01 l -0.02,-0.01 h -0.01 -0.01 -0.02 v -0.01 -0.02 -0.01 -0.02 l -0.01,-0.01 v -0.01 -0.01 -0.01 l -0.01,-0.01 v -0.02 -0.01 -0.01 l -0.01,-0.01 v -0.02 -0.01 -0.01 l -0.01,-0.01 v -0.01 -0.01 -0.02 -0.01 -0.01 l -0.01,-0.01 v -0.01 -0.01 l -0.01,-0.02 v -0.01 l -0.01,-0.01 -0.01,-0.02 v 0 l -0.01,-0.01 v -0.02 l -0.01,-0.01 v 0 -0.01 l -0.01,-0.02 v -0.01 -0.01 l -0.01,-0.01 v -0.01 -0.01 l -0.01,-0.01 v -0.01 l -0.01,-0.01 -0.01,-0.01 v -0.01 l -0.01,-0.01 -0.01,-0.01 -0.01,-0.01 v 0 l -0.01,-0.01 -0.01,-0.01 v -0.01 l -0.01,-0.02 -0.01,-0.01 v -0.01 l -0.18,-0.24 0.28,-0.39 0.13,-0.17 0.11,-0.15 0.1,-0.15 -0.68,-0.03 -0.45,-0.16 0.11,-0.43 -0.26,0.24 -0.45,-0.56 v -0.25 l -0.46,-0.61 -0.3,-0.43 -0.21,0.04 -0.01,-0.05 0.2,-0.16 0.12,-0.13 -0.03,-0.39 -0.03,-0.39 -0.04,-0.39 0.07,-0.29 -0.04,-0.15 -0.21,-0.16 -0.23,-0.13 -0.01,-0.2 0.03,-0.36 0.21,-0.04 0.19,-0.26 0.02,-0.08 0.01,-0.05 0.01,-0.03 0.01,-0.04 0.01,-0.05 0.02,-0.03 0.02,-0.04 0.02,-0.03 0.02,-0.03 0.02,-0.04 0.03,-0.04 0.02,-0.03 v -0.03 l 0.01,-0.03 v -0.05 -0.04 -0.03 l 0.01,-0.03 0.02,-0.05 0.01,-0.04 0.02,-0.04 0.01,-0.03 0.03,-0.04 0.03,-0.05 0.01,-0.02 v -0.03 l -0.01,-0.02 -0.02,-0.02 -0.01,-0.03 v -0.02 l 0.01,-0.03 0.01,-0.05 0.01,-0.02 v -0.03 l -0.01,-0.03 -0.01,-0.03 -0.01,-0.02 -0.01,-0.03 -0.01,-0.02 v -0.03 l -0.02,-0.04 z"
       id="path74" />
  </g>
</svg>
