<?xml version="1.0" encoding="UTF-8" standalone="no"?>
<svg
   version="1.2"
   width="800"
   height="642"
   viewBox="0 0 800 642"
   stroke-linecap="round"
   stroke-linejoin="round"
   id="svg176"
   sodipodi:docname="Altzo.svg"
   inkscape:version="1.1.2 (b8e25be833, 2022-02-05)"
   xmlns:inkscape="http://www.inkscape.org/namespaces/inkscape"
   xmlns:sodipodi="http://sodipodi.sourceforge.net/DTD/sodipodi-0.dtd"
   xmlns="http://www.w3.org/2000/svg"
   xmlns:svg="http://www.w3.org/2000/svg">
  <defs
     id="defs180" />
  <sodipodi:namedview
     id="namedview178"
     pagecolor="#ffffff"
     bordercolor="#666666"
     borderopacity="1.0"
     inkscape:pageshadow="2"
     inkscape:pageopacity="0.0"
     inkscape:pagecheckerboard="0"
     showgrid="false"
     inkscape:zoom="1.3146417"
     inkscape:cx="399.72867"
     inkscape:cy="447.65047"
     inkscape:window-width="1848"
     inkscape:window-height="1016"
     inkscape:window-x="72"
     inkscape:window-y="1107"
     inkscape:window-maximized="1"
     inkscape:current-layer="svg176" />
  <g
     id="Altzo"
     transform="matrix(35.137112,0,0,35.137112,-13500.641,-6064.7411)">
    <path
       d="m 393.69,173.87 h 0.02 l 0.02,-0.02 0.05,-0.05 0.05,-0.03 0.04,-0.04 0.02,-0.01 0.04,-0.02 0.05,-0.01 h 0.03 0.04 0.05 l 0.04,0.02 0.03,0.02 0.02,0.03 0.02,0.04 0.02,0.05 0.02,0.05 0.01,0.06 v 0.05 0.05 0.04 0.06 0.06 0.04 0.03 0.01 0.01 l 0.01,0.01 v 0.02 l 0.01,0.02 v 0.02 l 0.01,0.01 v 0.01 h 0.01 l 0.01,0.02 0.02,0.02 0.02,0.03 0.03,0.02 0.03,0.03 0.03,0.03 0.04,0.03 0.02,0.02 0.02,0.02 0.04,0.03 0.04,0.03 0.04,0.03 0.03,0.03 0.02,0.01 0.03,0.01 0.05,0.03 0.05,0.02 0.04,0.02 0.03,0.01 0.02,0.01 h 0.02 l 0.04,0.01 0.04,0.01 0.04,0.02 h 0.03 l 0.02,0.01 0.03,0.01 0.02,0.01 h 0.02 l 0.05,0.02 0.03,0.02 0.02,0.01 h 0.02 l 0.02,0.02 0.01,0.01 0.06,0.05 0.07,0.05 0.05,0.05 0.03,0.02 0.04,0.03 0.05,0.03 0.02,0.02 h 0.02 l 0.03,0.02 0.03,0.01 0.06,0.02 0.07,0.01 0.09,0.02 0.05,0.02 h 0.01 0.03 0.03 0.06 0.01 l 0.04,-0.01 h 0.07 0.06 l 0.05,0.01 0.06,0.03 0.12,0.07 0.07,0.04 0.03,0.02 0.02,0.02 0.03,0.01 0.01,0.01 0.03,0.02 0.03,0.02 0.02,0.02 0.04,0.02 0.03,0.02 0.04,0.02 0.04,0.01 h 0.05 0.04 l 0.05,-0.01 0.05,-0.01 0.03,-0.03 0.03,-0.03 0.02,-0.05 0.01,-0.03 v -0.03 -0.04 -0.04 l -0.01,-0.05 v -0.04 l -0.01,-0.03 v -0.06 -0.03 l -0.01,-0.04 v -0.03 l -0.02,-0.04 -0.01,-0.04 v -0.02 l -0.04,-0.07 -0.03,-0.08 -0.03,-0.06 -0.04,-0.06 -0.07,-0.06 -0.05,-0.04 -0.02,-0.03 -0.01,-0.04 0.01,-0.05 0.01,-0.02 0.03,-0.02 0.04,-0.01 0.07,-0.01 0.09,-0.01 h 0.08 0.03 0.04 0.04 0.02 l 0.02,-0.01 0.03,-0.01 h 0.03 l 0.04,-0.02 0.03,-0.01 0.02,-0.02 0.01,-0.01 0.01,-0.02 0.02,-0.01 0.01,-0.02 0.02,-0.01 0.01,-0.02 0.01,-0.01 0.01,-0.01 h 0.02 l 0.01,-0.01 0.02,-0.01 0.03,-0.01 h 0.04 l 0.05,0.01 h 0.04 l 0.05,0.01 h 0.03 l 0.04,-0.01 0.02,-0.01 0.04,-0.02 0.02,-0.02 0.02,-0.02 0.03,-0.05 h 0.02 0.01 0.01 0.01 l 0.02,0.01 0.02,0.01 0.03,0.01 0.01,0.01 h 0.02 0.01 0.03 0.01 l 0.02,-0.01 h 0.03 0.03 0.02 0.01 0.01 0.02 0.02 0.01 l 0.01,0.01 0.01,0.01 0.01,0.02 0.02,0.01 0.02,0.02 0.02,0.01 0.01,0.02 0.02,0.01 v 0.01 h 0.02 l 0.01,0.01 0.01,0.02 h 0.02 l 0.01,0.01 0.01,0.01 v 0.01 l 0.01,0.02 0.01,0.02 v 0.01 l 0.01,0.01 0.01,0.01 0.02,0.02 0.01,0.01 0.01,0.01 0.01,0.02 0.02,0.02 0.01,0.02 v 0.01 l 0.01,0.01 0.01,0.02 v 0.02 0.01 l 0.01,0.01 v 0.01 l 0.01,0.02 0.01,0.02 0.01,0.02 0.01,0.02 v 0.02 l 0.01,0.02 v 0.02 l 0.01,0.01 0.01,0.03 v 0.02 0.01 0.02 h 0.01 v 0.03 l 0.01,0.02 v 0.02 l 0.01,0.01 v 0.01 l 0.01,0.03 v 0.02 0.02 l 0.01,0.02 v 0.04 0.01 l 0.01,0.02 v 0 l -0.01,0.02 v 0.02 0.02 l -0.01,0.01 v 0.01 0.02 l -0.01,0.02 v 0.01 0.02 l -0.01,0.01 v 0.02 l -0.01,0.02 v 0.01 l 0.01,0.02 v 0.01 l 0.01,0.02 v 0.02 0.01 0.02 l 0.01,0.02 v 0.01 0.01 0.02 0.02 0.02 0.01 0.01 0.02 0.02 0.02 0.01 0.02 0.03 0.04 0.02 0.03 l 0.01,0.02 v 0.02 0.01 0.02 0.02 0.02 l -0.01,0.02 v 0.02 l -0.01,0.02 -0.01,0.03 -0.01,0.02 v 0.03 0.02 0.03 0.01 0.03 0.02 0.02 l 0.01,0.02 v 0.01 l -0.01,0.04 v 0.01 l 0.01,0.03 -0.01,0.02 0.01,0.02 v 0.03 0.03 l 0.01,0.02 v 0.04 l 0.01,0.01 0.01,0.03 0.01,0.03 0.01,0.02 v 0.02 l 0.01,0.02 0.01,0.02 v 0.01 l 0.01,0.02 v 0.02 l 0.01,0.02 0.01,0.02 v 0.03 0.01 l 0.01,0.03 0.01,0.02 v 0.02 l 0.01,0.03 v 0.02 l 0.01,0.02 v 0.03 l 0.01,0.02 0.01,0.03 v 0.02 l 0.01,0.02 0.01,0.02 v 0.02 l 0.01,0.01 0.01,0.01 0.97,3.09 -0.01,0.06 -0.01,0.08 v 0.05 0.02 l -0.01,0.06 v 0.03 l 0.01,0.04 0.03,0.08 v 0.05 0.03 0.08 0.02 l -0.01,0.06 -0.01,0.06 -0.01,0.03 v 0.03 l 0.02,0.03 0.02,0.06 v 0.01 l 0.03,0.06 0.03,0.07 0.01,0.04 0.03,0.04 0.04,0.05 h 0.01 v 0.01 h 0.01 l 0.01,0.01 h 0.01 v 0 l 0.01,0.01 h 0.01 v 0.01 h 0.01 0.01 l 0.01,0.01 h 0.01 l 0.01,0.01 h 0.01 v 0.01 l 0.01,0.01 v 0.02 l 0.01,0.01 v 0.01 l 0.01,0.01 v 0.01 0.01 l 0.01,0.01 v 0.01 0.01 h 0.01 v 0.02 l 0.01,0.03 0.01,0.02 0.01,0.02 v 0.02 l 0.01,0.02 v 0.02 l 0.01,0.01 v 0.02 l 0.01,0.01 v 0.02 l 0.01,0.01 v 0.02 l 0.01,0.01 v 0.02 0.02 l 0.01,0.01 v 0.02 0.01 0 0.02 h 0.01 v 0.01 0.01 0.01 l 0.01,0.01 v 0.01 0.01 l 0.01,0.01 v 0.01 l 0.03,0.05 0.01,0.05 0.01,0.02 0.01,0.02 0.01,0.03 0.02,0.03 0.02,0.05 0.02,0.03 0.02,0.02 0.02,0.05 v 0.01 l 0.02,0.05 0.02,0.05 0.02,0.03 0.02,0.05 0.05,0.12 v 0.03 l 0.02,0.07 v 0.02 l 0.01,0.01 v 0.01 0.01 l 0.01,0.01 v 0.02 0.01 l 0.01,0.01 v 0.01 l 0.01,0.01 0.01,0.02 v 0.02 l 0.01,0.02 v 0.02 l 0.01,0.01 0.01,0.02 v 0.02 0.02 l 0.01,0.02 v 0.02 l 0.01,0.01 v 0.02 l 0.03,0.09 0.02,0.04 0.01,0.05 0.03,0.06 0.01,0.03 0.01,0.03 0.01,0.08 v 0.02 0.05 l 0.01,0.04 v 0.04 l -0.01,0.04 0.01,0.04 v 0.07 l 0.02,0.04 0.01,0.06 0.01,0.01 0.01,0.01 0.02,0.03 0.02,0.01 0.01,0.01 0.01,0.01 0.01,0.01 0.01,0.01 0.01,0.01 0.01,0.01 0.01,0.01 0.01,0.01 0.01,0.01 0.01,0.01 0.01,0.01 0.01,0.01 0.01,0.01 0.07,0.08 0.02,0.03 0.02,0.02 0.01,0.02 0.03,0.02 0.02,0.03 0.02,0.03 0.02,0.02 0.01,0.01 0.02,0.04 h 0.01 l 0.01,0.01 v 0.01 l 0.01,0.01 0.01,0.01 v 0.01 h 0.01 l 0.01,0.01 v 0.01 l 0.01,0.02 0.02,0.01 0.01,0.02 0.01,0.01 0.02,0.02 v 0.01 h 0.01 v 0.01 l 0.01,0.01 v 0 l 0.01,0.01 v 0.01 h 0.01 l 0.01,0.01 v 0 l 0.01,0.01 0.01,0.01 v 0 0.01 l 0.01,0.01 v 0 l 0.01,0.01 h 0.01 v 0.01 l 0.01,0.01 v 0 l 0.01,0.01 h 0.01 v 0.01 l 0.01,0.01 h 0.01 l 0.01,0.01 0.02,0.01 0.01,0.01 0.01,0.01 0.01,0.01 0.01,0.01 0.01,0.01 v 0.01 l 0.01,0.01 h 0.01 l 0.01,0.01 h 0.01 l 0.02,0.01 v 0 h 0.01 l 0.01,0.01 0.01,0.01 h 0.01 v 0.01 h 0.01 l 0.01,0.01 v 0 l 0.01,0.02 0.01,0.01 v 0 l 0.01,0.01 v 0 l 0.01,0.01 0.01,0.01 h 0.01 v 0.01 l 0.01,0.01 h 0.01 v 0.01 l 0.01,0.01 h 0.01 l 0.01,0.01 h 0.01 v 0.01 h 0.01 l 0.02,0.01 0.01,0.01 0.01,0.01 v 0.01 l 0.01,0.01 0.01,0.01 h 0.01 v 0.01 l 0.11,0.09 0.02,0.03 0.02,0.02 0.03,0.02 0.02,0.02 0.01,0.01 v 0.01 l 0.01,0.01 v 0 l 0.01,0.01 h 0.01 v 0.01 h 0.01 v 0.01 h 0.01 0.01 v 0.01 h 0.01 l 0.01,0.01 h 0.01 l 0.01,0.01 v 0 l 0.01,0.01 0.01,0.01 0.01,0.01 v 0.01 l 0.02,0.01 0.01,0.01 0.01,0.02 0.02,0.01 0.01,0.01 h 0.01 v 0.01 l 0.01,0.01 v 0 l 0.01,0.01 v 0.01 h 0.01 v 0.01 0.01 h 0.01 v 0.01 0.01 l 0.01,0.01 v 0.01 l 0.01,0.02 0.01,0.02 0.01,0.01 0.01,0.02 v 0.01 l 0.01,0.01 v 0.01 0.01 0.01 l 0.01,0.01 v 0.02 l 0.01,0.01 v 0.01 0.01 0.01 l 0.01,0.01 v 0.01 0.01 l 0.01,0.01 v 0.01 l 0.01,0.01 v 0.01 l 0.01,0.03 0.01,0.03 v 0.03 l 0.01,0.03 v 0.01 l 0.01,0.01 v 0.01 0.01 0 0.01 0.01 0.02 0.01 0 0.01 0.01 l -0.01,0.01 v 0.01 0.01 h -0.01 v 0.01 0.01 0.01 l -0.01,0.01 v 0.01 l 0.01,0.01 v 0.01 0 l 0.01,0.01 v 0.01 l 0.01,0.01 0.01,0.01 0.01,0.01 0.01,0.01 0.01,0.01 0.01,0.02 0.02,0.01 v 0.01 l 0.01,0.01 v 0.01 l 0.01,0.01 0.01,0.01 0.01,0.01 0.01,0.01 h 0.01 l 0.01,0.01 h 0.01 l 0.01,0.01 h 0.01 l 0.01,0.01 v 0.01 h 0.01 l 0.01,0.01 0.01,0.01 0.01,0.01 0.02,0.01 0.01,0.02 0.02,0.01 0.01,0.01 0.02,0.02 0.01,0.01 0.01,0.01 0.01,0.01 0.02,0.01 0.01,0.01 h 0.01 l 0.01,0.01 0.02,0.01 0.01,0.01 0.01,0.01 0.01,0.01 h 0.02 0.01 0.02 l 0.01,-0.01 0.01,-0.01 v 0 l -0.01,-0.01 0.01,-0.01 v -0.01 0 l 0.01,-0.01 h 0.01 0.01 v 0.01 h 0.01 v 0.01 l -0.01,0.01 v 0.01 0.01 0.01 0.01 0.01 0.03 l 0.04,0.09 v 0.01 l 0.03,0.05 0.02,0.05 0.01,0.03 v 0.05 l 0.02,0.05 0.01,0.02 0.02,0.05 0.02,0.03 0.03,0.06 0.02,0.02 0.01,0.02 v 0.03 l 0.01,0.03 v 0.04 0.01 0.04 0.06 0.03 l -0.02,0.04 -0.01,0.11 -0.01,0.04 v 0.06 l -0.01,0.03 v 0.03 l 0.01,0.03 -0.02,0.02 -0.01,0.05 0.01,0.04 v 0.02 0.04 l 0.01,0.03 v 0.02 l 0.02,0.05 0.01,0.04 v 0.01 l 0.01,0.02 v 0 l 0.01,0.02 0.01,0.02 0.01,0.04 0.01,0.04 v 0.04 0.03 0.04 0.02 0.04 l 0.01,0.03 0.05,0.13 0.1,0.15 0.14,0.14 -0.62,0.6 -1.25,0.51 -0.27,-0.22 -0.02,0.01 -0.01,0.02 h -0.05 l -0.05,0.01 -0.04,0.02 h -0.05 l -0.05,-0.01 h -0.04 l -0.06,-0.02 -0.06,-0.03 -0.05,-0.03 -0.06,-0.04 -0.05,-0.02 -0.03,-0.01 -0.03,-0.01 -0.05,-0.01 -0.11,-0.02 h -0.04 -0.05 l -0.1,-0.02 -0.05,-0.01 -0.06,-0.03 -0.07,-0.05 -0.03,-0.02 -0.08,-0.05 -0.03,-0.04 -0.03,-0.04 -0.03,-0.05 -0.01,-0.04 v -0.04 l -0.01,-0.04 -0.01,-0.05 v -0.04 l -0.01,-0.04 -0.01,-0.05 v -0.04 l -0.01,-0.06 -0.01,-0.06 -0.01,-0.04 -0.02,-0.05 -0.01,-0.06 -0.02,-0.04 -0.03,-0.03 -0.05,-0.06 -0.03,-0.05 -0.02,-0.03 -0.02,-0.03 -0.01,-0.01 -0.02,-0.03 -0.02,-0.02 -0.05,-0.03 -0.03,-0.02 -0.04,-0.04 -0.02,-0.01 -0.04,-0.03 -0.03,-0.03 -0.03,-0.02 -0.03,-0.02 -0.03,-0.03 -0.03,-0.02 -0.03,-0.03 -0.03,-0.03 -0.03,-0.02 -0.03,-0.03 -0.03,-0.02 -0.03,-0.03 -0.03,-0.03 -0.04,-0.04 -0.02,-0.04 -0.03,-0.06 -0.01,-0.04 -0.01,-0.02 -0.01,-0.06 -0.01,-0.04 -0.02,-0.06 -0.02,-0.06 -0.01,-0.05 -0.02,-0.07 -0.02,-0.05 -0.03,-0.04 -0.03,-0.03 -0.03,-0.03 -0.03,-0.04 -0.03,-0.04 -0.04,-0.04 -0.05,-0.03 -0.05,-0.03 -0.03,-0.01 h -0.03 -0.02 l -0.05,-0.02 -0.06,-0.03 -0.06,-0.02 -0.04,-0.03 -0.04,-0.02 -0.02,-0.02 -0.01,-0.04 -0.04,-0.06 -0.02,-0.02 -0.01,-0.01 -0.01,-0.01 h -0.01 l -0.02,-0.01 h -0.02 -0.01 l -0.04,-0.01 -0.04,-0.01 h -0.06 l -0.03,-0.01 -0.03,-0.01 -0.04,-0.03 -0.04,-0.03 -0.04,-0.04 -0.01,-0.02 -0.02,-0.02 v -0.05 l -0.01,-0.06 -0.01,-0.05 -0.01,-0.04 -0.02,-0.04 -0.03,-0.04 -0.01,-0.04 -0.01,-0.07 -0.01,-0.05 -0.03,-0.05 -0.03,-0.04 -0.04,-0.04 -0.04,-0.02 -0.04,-0.02 -0.03,-0.01 -0.04,-0.04 -0.04,-0.03 -0.02,-0.03 -0.03,-0.02 -0.02,-0.02 -0.01,-0.03 -0.01,-0.05 -0.03,-0.05 -0.03,-0.04 -0.03,-0.04 -0.03,-0.03 -0.02,-0.03 -0.02,-0.03 -0.01,-0.01 -0.02,-0.04 -0.03,-0.05 -0.02,-0.03 -0.03,-0.05 -0.02,-0.03 -0.04,-0.04 -0.04,-0.05 v -0.03 -0.05 l -0.01,-0.05 -0.02,-0.04 -0.04,-0.05 -0.04,-0.03 -0.06,-0.04 -0.04,-0.02 -0.05,-0.02 -0.05,-0.03 -0.06,-0.02 -0.05,-0.03 h -0.04 -0.05 -0.05 -0.03 -0.04 -0.05 l -0.04,-0.02 -0.07,-0.02 -0.07,-0.01 -0.08,-0.02 h -0.05 l -0.09,-0.01 -0.04,-0.01 -0.04,-0.01 -0.04,-0.02 -0.07,-0.02 -0.06,-0.03 -0.04,-0.04 -0.06,-0.04 -0.04,-0.03 -0.03,-0.03 -0.02,-0.04 v -0.01 l 0.01,-0.04 0.01,-0.03 v -0.02 l 0.01,-0.02 -0.01,-0.03 v -0.01 l -0.02,-0.01 -0.04,-0.01 h -0.04 l -0.03,0.01 h -0.03 -0.02 l -0.03,0.01 h -0.03 -0.08 -0.05 -0.06 l -0.03,-0.01 -0.03,-0.02 -0.02,-0.02 -0.03,-0.02 -0.04,-0.02 -0.03,-0.02 -0.02,-0.02 -0.03,-0.01 -0.03,-0.02 -0.03,-0.02 -0.01,-0.01 -0.04,-0.02 -0.03,-0.01 h -0.01 l -0.02,0.01 -0.03,0.01 -0.02,0.02 h -0.03 l -0.01,0.01 -0.03,-0.01 -0.03,-0.01 -0.03,-0.01 -0.02,-0.02 h -0.02 -0.03 l -0.03,-0.01 -0.03,-0.01 -0.02,-0.01 -0.04,-0.02 -0.03,-0.02 -0.03,-0.03 -0.01,-0.02 -0.01,-0.02 -0.01,-0.04 v -0.03 l -0.01,-0.02 -0.02,-0.03 -0.02,-0.02 -0.02,-0.01 v -0.01 l -0.03,-0.02 -0.03,-0.02 -0.03,-0.01 -0.05,-0.03 -0.04,-0.02 -0.04,-0.03 -0.03,-0.02 -0.03,-0.02 -0.02,-0.03 -0.02,-0.01 -0.04,-0.02 -0.03,-0.02 -0.04,-0.01 -0.03,-0.01 -0.04,-0.01 -0.04,-0.01 h -0.05 -0.03 l -0.02,-0.01 h -0.02 l -0.01,-0.01 h -0.01 -0.02 -0.01 l -0.02,-0.01 -0.01,-0.01 v -0.02 l -0.02,-0.02 -0.01,-0.01 -0.03,-0.02 -0.02,-0.02 -0.02,-0.01 -0.03,-0.01 h -0.02 -0.02 -0.02 -0.04 l -0.03,0.01 h -0.02 l -0.03,0.01 h -0.03 -0.02 -0.01 l -0.01,-0.01 -0.01,-0.01 -0.01,-0.02 -0.01,-0.01 -0.02,-0.01 h -0.04 l -0.03,-0.01 h -0.03 l -0.06,-0.01 -0.04,-0.02 -0.04,-0.01 -0.02,0.01 h -0.03 l -0.02,0.02 h -0.02 l -0.01,0.01 h -0.01 l -0.01,0.01 h -0.02 l -0.02,0.01 h -0.03 l -0.03,0.02 -0.03,0.01 -0.02,0.01 -0.02,0.02 -0.03,0.02 -0.01,0.02 -0.02,0.01 -0.01,0.01 -0.02,0.01 -0.04,0.01 -0.01,0.01 -0.04,0.01 -0.02,0.01 h -0.03 l -0.03,0.01 h -0.02 l -0.03,0.01 -0.03,0.01 -0.6,-0.54 -0.37,0.45 -0.39,-0.32 -0.1,-0.32 -1.04,-1.3 0.03,-0.59 -0.2,-0.44 -1.23,-0.64 0.38,-0.77 -0.98,-0.58 0.04,-0.14 0.06,-0.15 0.03,-0.08 0.01,-0.01 0.05,-0.14 0.02,-0.06 0.05,-0.12 0.02,-0.06 0.02,-0.11 -0.01,-0.04 v -0.08 l -0.01,-0.04 -0.01,-0.07 -0.03,-0.07 -0.05,-0.07 -0.03,-0.03 -0.05,-0.12 -0.05,-0.11 -0.04,-0.06 -0.03,-0.04 -0.05,-0.09 -0.04,-0.09 -0.02,-0.06 -0.01,-0.06 -0.02,-0.05 v -0.07 l -0.01,-0.08 -0.01,-0.16 -0.01,-0.07 v -0.03 -0.01 l -0.01,-0.03 -0.01,-0.05 -0.01,-0.01 -0.01,-0.06 -0.02,-0.07 -0.01,-0.06 -0.03,-0.06 -0.02,-0.06 -0.01,-0.05 -0.01,-0.08 v -0.07 l 0.01,-0.06 0.02,-0.03 0.04,-0.07 0.06,-0.07 0.04,-0.03 0.07,-0.03 0.04,-0.01 h 0.04 l 0.06,0.01 0.05,0.02 0.07,0.02 0.07,0.03 0.03,0.02 0.06,0.01 0.05,-0.01 0.12,-0.04 0.06,-0.02 h 0.04 l 0.1,-0.04 0.03,-0.01 0.08,-0.03 0.05,-0.03 0.07,-0.03 0.12,-0.05 0.04,-0.01 0.1,-0.01 0.11,-0.03 0.09,-0.02 0.04,-0.02 0.04,-0.02 0.04,-0.03 0.02,-0.03 0.05,-0.05 0.03,-0.06 v -0.03 -0.03 -0.04 -0.05 l -0.01,-0.06 -0.02,-0.04 v -0.02 l 0.14,-0.07 0.07,-0.04 0.04,-0.03 0.04,-0.02 0.09,-0.04 0.03,-0.02 h 0.05 l 0.06,0.01 0.07,0.02 0.05,0.01 0.07,-0.01 0.06,-0.04 0.05,-0.01 0.04,-0.01 0.03,-0.01 0.01,0.03 0.95,0.37 0.45,0.19 0.63,-0.58 0.08,-0.04 0.16,0.11 0.03,0.19 1.08,-0.16 z"
       id="path173" />
  </g>
</svg>
