<?xml version="1.0" encoding="UTF-8" standalone="no"?>
<svg
   version="1.2"
   width="800"
   height="642"
   viewBox="0 0 800 642"
   stroke-linecap="round"
   stroke-linejoin="round"
   id="svg185"
   sodipodi:docname="Altzürükü.svg"
   inkscape:version="1.1.2 (b8e25be833, 2022-02-05)"
   xmlns:inkscape="http://www.inkscape.org/namespaces/inkscape"
   xmlns:sodipodi="http://sodipodi.sourceforge.net/DTD/sodipodi-0.dtd"
   xmlns="http://www.w3.org/2000/svg"
   xmlns:svg="http://www.w3.org/2000/svg">
  <defs
     id="defs189" />
  <sodipodi:namedview
     id="namedview187"
     pagecolor="#ffffff"
     bordercolor="#666666"
     borderopacity="1.0"
     inkscape:pageshadow="2"
     inkscape:pageopacity="0.0"
     inkscape:pagecheckerboard="0"
     showgrid="false"
     inkscape:zoom="1.3146417"
     inkscape:cx="399.72867"
     inkscape:cy="321.38033"
     inkscape:window-width="1848"
     inkscape:window-height="1016"
     inkscape:window-x="72"
     inkscape:window-y="1107"
     inkscape:window-maximized="1"
     inkscape:current-layer="svg185" />
  <g
     id="Altzürükü"
     transform="matrix(17.34305,0,0,17.34305,-11861.438,-2504.4726)">
    <path
       d="m 714.31,145.32 h 0.03 l 0.06,0.01 0.04,0.02 0.06,0.01 0.02,0.01 0.03,0.01 h 0.03 0.03 l 0.03,0.01 0.07,0.03 0.05,0.01 0.05,0.01 0.04,-0.01 h 0.02 l 0.04,0.01 0.02,0.01 0.01,0.01 0.02,0.02 0.03,0.02 0.02,0.01 0.02,0.02 0.02,0.02 0.01,0.02 0.01,0.01 0.03,0.01 h 0.02 l 0.02,0.02 0.01,0.02 0.02,0.02 0.01,0.02 0.02,0.02 0.03,0.05 0.02,0.02 0.02,0.04 0.02,0.03 0.02,0.03 0.02,0.04 0.03,0.03 0.02,0.03 0.02,0.02 0.04,0.03 0.03,0.02 0.04,0.02 0.02,0.02 0.02,0.01 0.03,0.02 0.03,0.01 0.02,0.01 0.05,0.01 h 0.02 l 0.08,0.01 h 0.01 0.02 0.01 0.02 0.01 0.02 0.01 0.01 0.02 0.01 l 0.01,0.01 h 0.01 0.01 0.01 0.01 l 0.01,0.01 h 0.01 0.01 l 0.02,0.01 h 0.01 0.02 l 0.01,0.01 h 0.01 v 0.01 l 0.01,0.01 0.01,0.01 0.01,0.02 0.01,0.01 0.01,0.01 v 0 l 0.01,0.02 h 0.01 l 0.01,0.01 0.01,0.01 v 0.01 l 0.01,0.01 0.01,0.01 0.02,0.01 0.01,0.01 h 0.01 0.01 l 0.01,0.01 h 0.01 l 0.01,0.01 0.01,0.01 v 0 l 0.01,0.01 h 0.01 l 0.01,0.01 0.02,0.01 h 0.01 l 0.01,0.01 h 0.01 l 0.01,0.01 0.05,0.04 h 0.02 l 0.01,0.01 h 0.01 0.01 0.01 l 0.01,0.01 h 0.01 l 0.01,0.01 h 0.01 l 0.01,0.01 h 0.02 l 0.01,0.01 0.01,0.01 h 0.01 l 0.01,0.01 0.01,0.01 h 0.01 l 0.02,0.01 0.01,0.01 0.01,0.01 h 0.02 l 0.01,0.01 h 0.01 l 0.01,0.01 h 0.01 0.01 l 0.01,0.01 h 0.02 0.01 l 0.01,0.01 0.01,0.01 h 0.02 l 0.01,0.01 h 0.01 l 0.01,0.01 0.02,0.01 h 0.01 l 0.01,0.01 h 0.01 l 0.02,0.01 h 0.01 0.01 l 0.02,0.01 h 0.01 l 0.02,0.01 h 0.01 0.02 l 0.01,0.01 h 0.02 0.01 0.02 0.01 0.02 0.01 0.02 0.02 0.01 0.02 l 0.01,-0.01 h 0.02 0.01 0.01 0.02 0.02 l 0.01,-0.01 h 0.02 0.01 l 0.14,0.27 v 0.02 0.01 0.02 0.01 0.02 l 0.01,0.01 v 0.01 0.02 0.01 l 0.01,0.02 v 0.01 0.02 l 0.01,0.01 v 0.01 0.02 l 0.01,0.02 v 0.01 l 0.01,0.02 v 0.01 l 0.01,0.01 0.01,0.02 0.01,0.01 v 0.02 l 0.01,0.01 0.01,0.01 0.01,0.02 0.01,0.01 0.01,0.01 0.01,0.02 0.01,0.01 0.01,0.01 0.01,0.01 0.01,0.02 0.01,0.01 0.02,0.01 0.01,0.01 0.01,0.01 0.01,0.01 0.01,0.01 0.01,0.01 h 0.01 l 0.01,0.01 0.01,0.01 0.01,0.01 h 0.01 l 0.01,0.01 0.01,0.01 0.01,0.01 0.02,0.01 0.01,0.01 h 0.01 l 0.01,0.01 h 0.02 l 0.01,0.01 h 0.01 0.02 l 0.01,0.01 h 0.01 l 0.02,0.01 h 0.01 0.02 0.01 0.02 0.01 l 0.01,0.01 h 0.02 l 0.01,0.01 h 0.02 0.01 l 0.02,0.01 h 0.01 0.01 l 0.02,0.01 h 0.01 0.02 0.01 0.01 l 0.02,0.01 h 0.01 0.01 0.01 l 0.01,0.01 h 0.02 0.01 0.01 0.01 0.01 0.02 0.01 0.02 0.01 0.01 l 0.05,0.01 0.01,0.01 v 0.01 l 0.01,0.01 0.01,0.01 0.01,0.01 0.01,0.01 0.01,0.01 0.01,0.01 0.01,0.01 v 0.02 l 0.01,0.01 0.01,0.01 v 0.01 l 0.01,0.02 v 0.01 l 0.01,0.02 v 0.01 l 0.01,0.01 v 0.01 0.01 l 0.01,0.02 v 0.01 0.01 l 0.01,0.01 v 0.02 l 0.01,0.01 0.01,0.01 -0.08,0.34 -0.04,0.04 -0.02,0.05 -0.01,0.04 -0.01,0.03 -0.01,0.03 v 0.03 0.03 0.03 l -0.01,0.03 -0.01,0.03 -0.01,0.03 -0.01,0.03 v 0.03 0.03 0.03 l 0.01,0.02 0.02,0.03 0.01,0.03 0.01,0.03 0.01,0.03 0.01,0.02 0.01,0.03 0.01,0.02 0.01,0.02 0.01,0.03 v 0.02 l 0.02,0.02 0.05,0.09 0.01,0.7 0.23,0.06 0.02,-0.01 0.03,-0.03 0.02,-0.01 0.03,-0.02 0.04,-0.01 h 0.02 0.04 l 0.04,0.01 0.05,0.02 0.03,0.02 0.04,0.03 0.02,0.04 0.03,0.03 0.03,0.05 0.02,0.05 0.03,0.05 0.02,0.04 0.03,0.04 0.03,0.04 0.04,0.05 0.03,0.04 0.03,0.05 0.03,0.03 0.03,0.04 0.03,0.05 0.04,0.04 0.03,0.04 0.02,0.03 0.02,0.02 0.02,0.02 0.03,0.05 0.02,0.03 0.03,0.03 0.04,0.03 0.05,0.01 h 0.05 l 0.06,0.01 0.04,0.01 0.06,0.02 0.04,0.01 h 0.04 0.04 l 0.04,-0.02 0.04,-0.01 0.05,-0.03 0.05,-0.03 0.05,-0.04 0.05,-0.03 0.05,-0.03 0.05,-0.02 0.06,-0.01 0.04,-0.03 0.04,-0.02 0.03,-0.02 0.04,-0.02 0.06,-0.02 0.03,-0.02 0.06,-0.02 0.04,-0.03 0.04,-0.02 0.04,-0.03 0.06,-0.03 0.04,-0.03 h 0.01 l 0.04,-0.03 0.04,-0.02 0.05,-0.01 0.05,-0.01 0.05,-0.01 0.06,-0.01 h 0.06 l 0.05,0.01 0.06,0.01 h 0.04 l 0.04,0.01 h 0.04 l 0.1,-0.01 0.02,0.01 0.04,0.02 0.04,0.03 0.04,0.02 0.03,0.02 0.04,0.02 0.04,0.02 0.01,0.01 0.02,0.01 0.05,0.03 0.03,0.01 h 0.04 0.05 l 0.04,-0.02 h 0.04 l 0.05,-0.01 h 0.04 l 0.03,-0.01 0.03,-0.01 0.03,-0.01 h 0.02 l 0.02,-0.02 v -0.01 l 0.01,-0.02 0.01,-0.02 0.01,-0.01 0.03,-0.02 0.03,-0.01 0.02,-0.02 0.01,-0.02 0.01,-0.03 v -0.03 l 0.01,-0.02 0.01,-0.02 0.03,-0.01 0.03,-0.01 0.03,-0.01 h 0.04 0.03 0.05 l 0.04,0.01 0.05,0.02 v 0.03 l -0.01,0.03 v 0.03 l 0.01,0.04 0.01,0.02 0.02,0.03 0.02,0.03 0.05,0.05 0.01,0.03 0.01,0.03 -0.01,0.03 -0.01,0.02 -0.01,0.04 -0.01,0.04 v 0.04 0.03 l -0.01,0.04 -0.01,0.04 -0.01,0.04 -0.01,0.03 v 0.04 l 0.02,0.02 0.02,0.04 0.01,0.02 0.01,0.03 v 0.02 l -0.01,0.04 -0.02,0.03 -0.01,0.03 -0.02,0.03 -0.03,0.02 -0.01,0.03 -0.01,0.05 -0.01,0.04 -0.01,0.03 -0.01,0.04 -0.02,0.03 -0.01,0.02 -0.02,0.04 -0.01,0.04 -0.01,0.04 v 0.05 l 0.01,0.03 0.01,0.03 0.02,0.04 0.02,0.03 0.01,0.03 0.02,0.02 0.01,0.03 0.01,0.03 v 0.03 l 0.01,0.03 0.01,0.03 0.01,0.03 0.01,0.04 v 0.03 l 0.01,0.03 0.01,0.03 0.02,0.03 0.01,0.03 0.02,0.04 0.02,0.03 0.02,0.03 0.01,0.03 v 0.04 0.03 l -0.01,0.02 -0.02,0.03 -0.02,0.02 -0.01,0.02 -0.02,0.03 -0.01,0.03 v 0.03 l -0.01,0.05 -0.01,0.03 -0.01,0.04 -0.01,0.02 0.07,0.03 h 0.03 0.03 0.03 l 0.02,0.01 0.06,0.01 0.08,0.03 0.02,0.01 0.03,0.01 0.03,0.02 0.02,0.02 0.02,0.02 0.03,0.03 0.03,0.04 0.05,0.08 v 0.05 0.04 0.03 l -0.01,0.04 -0.01,0.05 v 0.04 0.04 0.04 0.05 0.03 0.05 l -0.01,0.03 v 0.05 0.03 l 0.01,0.04 0.02,0.03 0.01,0.03 0.01,0.03 -0.01,0.04 -0.01,0.04 0.02,0.04 0.02,0.03 0.01,0.03 -0.01,0.03 -0.53,0.36 -0.14,-0.14 -0.11,0.03 -0.08,0.2 -0.12,0.38 -0.14,0.34 -0.24,0.28 -0.04,0.13 0.05,0.08 0.17,0.13 v 0.05 l -0.25,0.11 -0.02,0.19 -0.15,-0.06 -0.47,-0.41 -0.04,0.03 -0.04,0.03 -0.03,0.04 -0.04,0.04 -0.04,0.05 h -0.01 l 0.13,0.14 0.11,0.25 0.18,0.03 0.02,0.05 0.01,0.12 -0.08,0.2 -0.16,0.43 -0.29,0.46 -0.43,0.48 -0.33,0.32 0.13,0.14 0.14,0.18 0.01,0.19 -0.15,0.64 -0.16,0.63 -0.15,0.63 -0.01,0.03 -0.18,0.72 -0.17,0.71 -0.17,0.72 -0.18,0.71 -0.07,0.25 -0.41,0.15 -0.42,0.15 -0.41,0.15 -0.01,0.04 -0.18,0.05 -0.82,0.57 -0.83,0.57 -0.83,0.58 -0.83,0.57 -0.82,0.57 -0.9,0.57 -0.89,0.57 -0.79,-0.15 -0.09,0.07 -0.05,0.3 -0.07,0.22 -0.4,0.64 v 0.03 0.03 l -0.02,0.03 v 0.01 l -0.02,0.02 -0.01,0.01 -0.02,0.02 -0.02,0.02 -0.01,0.02 -0.01,0.02 v 0.03 0.03 0.02 0.04 0.04 l 0.01,0.03 v 0.04 0.09 0.05 l -0.01,0.05 v 0.05 l -0.01,0.03 -0.02,0.03 -0.02,0.02 -0.03,0.01 -0.02,0.02 -0.02,0.03 -0.02,0.02 -0.01,0.03 -0.01,0.02 v 0.03 l -0.01,0.02 v 0.03 0.03 0.03 0.03 l 0.01,0.02 0.01,0.03 v 0.03 l 0.01,0.02 0.01,0.03 0.01,0.04 0.01,0.02 0.02,0.05 0.03,0.05 0.01,0.03 0.06,0.1 0.03,0.04 0.02,0.04 0.02,0.05 0.02,0.02 0.01,0.04 0.03,0.06 0.01,0.03 0.02,0.02 0.03,0.02 0.02,0.01 0.04,0.04 0.03,0.03 0.02,0.04 0.02,0.05 0.02,0.05 0.02,0.04 0.02,0.04 0.02,0.04 0.13,0.17 0.01,0.06 0.01,0.03 0.02,0.04 0.03,0.03 0.03,0.05 0.01,0.02 0.01,0.02 v 0.02 l -0.01,0.02 -0.01,0.03 v 0.03 l -0.01,0.02 v 0.04 l 0.01,0.05 0.02,0.08 -0.01,0.03 v 0.03 0.01 l -0.01,0.04 -0.01,0.04 -0.02,0.08 -0.01,0.02 -0.01,0.02 -0.03,0.03 -0.04,0.03 -0.05,0.05 -0.01,0.03 -0.02,0.04 v 0.03 0.03 0.05 l 0.01,0.03 v 0.04 l -0.01,0.04 -0.05,0.08 -0.02,0.02 -0.01,0.03 -0.01,0.05 -0.04,0.11 -0.04,0.09 -0.02,0.04 -0.02,0.04 -0.01,0.07 v 0.15 0.04 l -0.01,0.06 v 0.09 l -0.01,0.08 -0.02,0.02 -0.01,0.02 -0.02,0.03 -0.08,0.07 -0.03,0.02 -0.03,0.04 -0.06,0.12 -0.01,0.04 -0.03,0.04 -0.03,0.05 -0.05,0.05 -0.07,0.06 -0.05,0.03 -0.01,0.01 -0.01,0.02 -0.01,0.01 -0.01,0.03 -0.01,0.02 -0.01,0.03 v 0.02 l -0.01,0.04 -0.02,0.03 -0.01,0.03 -0.02,0.03 -0.01,0.03 -0.02,0.03 -0.02,0.05 -0.03,0.06 -0.03,0.06 -0.02,0.05 -0.02,0.06 -0.02,0.05 -0.02,0.05 -0.01,0.03 -0.01,0.02 -0.01,0.01 -0.01,0.02 -0.02,0.03 -0.04,0.07 -0.07,0.09 -0.05,0.07 -0.04,0.04 -0.06,0.06 -0.06,0.07 -0.1,0.11 -0.06,0.07 -0.07,0.07 -0.04,0.03 -0.04,0.03 -0.03,0.01 h -0.02 l -0.02,0.01 h -0.02 l -0.02,0.01 h -0.02 l -0.02,0.01 -0.02,0.01 h -0.02 l -0.02,0.01 -0.01,0.02 -0.02,0.01 -0.02,0.02 -0.03,0.04 -0.02,0.02 -0.02,0.02 -0.02,0.01 -0.03,0.02 -0.02,0.01 h -0.02 l -0.05,0.01 h -0.02 -0.03 l -0.03,0.01 -0.04,0.01 -0.05,0.02 -0.03,0.02 -0.04,0.02 -0.06,0.05 -0.08,0.04 -0.04,0.02 -0.06,0.03 -0.04,0.02 -0.03,0.01 h -0.02 -0.02 -0.09 -0.06 -0.05 l -0.04,0.01 h -0.05 -0.02 l -0.02,0.01 h -0.02 -0.02 -0.02 l -0.02,-0.01 h -0.02 l -0.04,-0.01 -0.08,-0.02 -0.09,-0.04 -0.04,-0.01 -0.04,-0.02 -0.04,-0.02 -0.03,-0.02 -0.02,-0.02 -0.04,-0.04 -0.07,-0.05 -0.02,-0.02 -0.03,-0.03 -0.06,-0.04 -0.08,-0.04 -0.09,-0.05 -0.04,-0.03 -0.07,-0.02 -0.06,-0.02 -0.04,-0.02 -0.05,-0.02 -0.07,-0.03 -0.09,-0.04 -0.05,-0.02 -0.03,-0.01 -0.03,-0.01 -0.03,-0.02 h -0.03 l -0.02,-0.01 h -0.03 -0.04 -0.04 l -0.05,-0.01 -0.05,-0.01 -0.03,-0.01 h -0.03 l -0.04,-0.02 -0.05,-0.02 -0.04,-0.01 -0.04,-0.01 h -0.04 l -0.03,-0.01 -0.02,-0.01 -0.04,-0.01 -0.03,-0.01 -0.05,-0.01 -0.05,-0.01 -0.07,-0.01 -0.08,-0.01 h -0.03 -0.03 -0.02 -0.04 -0.03 -0.03 -0.01 -0.02 l -0.01,-0.01 h -0.01 l -0.02,-0.01 -0.06,-0.03 -0.07,-0.05 -0.04,-0.03 -0.02,-0.01 -0.02,-0.03 -0.03,-0.04 -0.03,-0.04 -0.05,-0.03 -0.09,-0.07 -0.01,-0.01 -0.07,-0.05 -0.03,-0.03 -0.03,-0.02 -0.04,-0.04 -0.05,-0.04 -0.09,-0.07 -0.07,-0.05 -0.06,-0.03 -0.03,-0.02 -0.04,-0.02 -0.05,-0.03 -0.03,-0.03 -0.04,-0.03 -0.03,-0.02 -0.01,-0.01 -0.03,-0.01 h -0.02 v 0 l -0.04,-0.01 -0.1,-0.01 h -0.07 l -0.05,-0.01 h -0.03 l -0.06,-0.02 -0.06,-0.01 -0.05,-0.01 -0.06,-0.01 h -0.05 -0.04 -0.04 -0.05 -0.08 -0.08 -0.03 -0.02 l -0.03,0.01 -0.05,0.01 h -0.06 l -0.04,0.01 h -0.04 l -0.04,-0.01 h -0.06 l -0.07,-0.01 -0.07,-0.01 h -0.06 -0.08 l -0.07,-0.01 -0.03,-0.01 -0.05,-0.01 -0.04,-0.01 -0.05,-0.02 -0.07,-0.03 -0.07,-0.04 -0.08,-0.02 -0.07,-0.02 -0.04,-0.02 h -0.02 l -0.03,-0.01 h -0.05 -0.08 l -0.09,0.01 -0.12,-0.01 -0.12,0.01 -0.08,0.01 -0.04,0.01 -0.04,0.02 -0.03,0.02 -0.04,0.02 -0.03,0.01 h -0.05 -0.09 -0.08 -0.09 l -0.09,-0.01 -0.11,-0.03 -0.09,-0.02 -0.09,-0.02 -0.11,-0.03 -0.09,-0.02 -0.07,-0.01 -0.07,-0.01 h -0.12 -0.13 l -0.1,0.01 -0.07,0.01 -0.08,0.03 -0.14,0.06 -0.11,0.05 -0.07,0.03 -0.02,0.01 -0.05,0.02 -0.03,0.02 -0.08,0.05 -0.09,0.06 -0.04,0.03 -0.04,0.02 -0.05,0.04 -0.03,0.02 h -0.03 l -0.02,0.01 -0.05,0.02 -0.01,0.01 h -0.01 -0.02 l -0.05,0.02 -0.05,0.01 -0.02,0.01 h -0.02 l -0.01,0.01 -0.01,0.01 -0.02,0.01 -0.01,0.01 -0.02,0.01 h -0.01 l -0.01,0.01 -0.02,0.01 h -0.02 l -0.01,0.01 -0.01,0.01 -0.01,0.01 h -0.01 l -0.01,0.01 -0.03,0.01 -0.02,0.01 h -0.02 l -0.03,0.01 -0.04,0.02 -0.04,0.02 -0.02,0.02 -0.04,0.02 -0.02,0.01 -0.02,0.01 -0.03,0.01 -0.06,0.02 -0.08,0.03 -0.06,0.02 -0.05,0.01 -0.06,0.02 h -0.05 -0.04 -0.04 l -0.06,0.02 -0.09,0.04 -0.06,0.03 -0.1,0.06 -0.1,0.06 -0.09,0.06 -0.09,0.06 -0.08,0.06 -0.08,0.05 -0.07,0.06 -0.06,0.04 -0.06,0.04 -0.08,0.05 -0.06,0.05 -0.07,0.05 -0.06,0.01 -0.09,0.03 -0.09,0.03 -0.08,0.01 h -0.03 -0.03 l -0.03,-0.01 -0.01,0.01 v 0.01 l 0.01,0.01 0.03,0.03 0.06,0.02 0.07,0.04 0.02,0.01 v 0.01 0.01 l -0.01,0.01 -0.02,0.01 -0.01,0.01 v 0.01 l -0.01,0.01 -0.01,0.01 h -0.02 l -0.07,0.01 -0.1,0.02 -0.06,0.01 -0.07,0.02 -0.06,0.02 -0.04,0.02 -0.03,0.02 -0.02,0.03 -0.02,0.03 -0.02,0.04 v 0.01 l -0.01,0.01 -0.01,0.01 H 696 l -0.07,0.02 -0.12,0.04 -0.11,0.03 -0.09,0.02 -0.08,0.03 -0.05,0.03 -0.01,0.03 v 0.01 l -0.01,0.02 v 0.01 0 l 0.01,0.02 v 0.02 0.02 0.01 0.01 0.01 h -0.01 l -0.01,0.01 -0.06,0.03 -0.09,0.02 -0.11,0.03 -0.08,0.03 -0.06,0.03 -0.03,0.01 -0.06,0.05 -0.08,0.06 -0.07,0.05 -0.07,0.05 -0.08,0.06 -0.05,0.06 -0.05,0.05 -0.05,0.05 -0.04,0.05 -0.05,0.05 -0.04,0.03 -0.04,0.04 -0.01,-0.01 -0.03,-0.03 -0.03,-0.03 -0.03,-0.03 -0.03,-0.04 -0.05,-0.08 -0.02,-0.03 v -0.02 -0.02 -0.02 l -0.01,-0.02 h -0.01 l -0.01,-0.01 h -0.01 -0.01 l -0.04,0.01 -0.06,0.03 -0.03,0.02 -0.01,0.02 -0.01,0.02 -0.01,0.01 -0.02,0.02 h -0.01 l -0.02,0.01 -0.01,-0.01 -0.04,-0.01 -0.04,-0.03 -0.04,-0.03 -0.02,-0.02 h -0.02 -0.02 v 0.02 l -0.69,-0.28 -1.16,-0.66 -0.06,-0.01 -0.06,-0.02 -0.05,-0.01 h -0.05 -0.05 l -0.12,0.01 -0.05,0.01 -0.06,0.03 -0.19,-0.01 -0.5,0.18 -0.44,-0.03 -0.2,-0.02 -0.13,0.1 -0.01,-0.01 -0.04,-0.74 0.06,-1.06 0.07,-1.06 -0.01,-0.06 0.01,-0.1 0.01,-0.15 v -0.12 -0.15 l -0.01,-0.12 v -0.03 l -0.01,-0.08 -0.11,-0.34 -0.04,-0.07 -0.02,-0.06 -0.02,-0.09 -0.03,-0.06 -0.04,-0.12 -0.05,-0.13 -0.01,-0.15 0.02,-0.13 0.01,-0.09 -0.02,-0.06 -0.01,-0.08 -0.14,-0.36 -0.03,-0.19 v -0.32 l -0.01,-0.06 -0.02,-0.07 -0.03,-0.07 -0.04,-0.07 -0.05,-0.08 -0.03,-0.06 -0.06,-0.1 v -0.02 l -0.06,-0.08 0.02,-0.06 -0.43,-1.11 -0.89,-0.38 -0.03,-0.05 0.02,-0.01 0.04,-0.01 0.52,-0.31 0.66,-0.38 0.42,-0.16 0.63,-0.29 0.42,-0.29 0.3,-0.44 0.68,-0.98 0.6,-0.98 0.38,-0.24 0.61,-0.97 0.57,-0.83 0.04,-0.08 0.18,-0.17 0.41,-0.59 0.3,-0.29 0.1,-0.07 0.13,-0.24 0.63,-0.85 0.08,-0.08 0.21,-0.01 1.1,-0.16 0.63,0.43 0.63,0.44 0.62,0.43 0.63,0.44 0.47,-0.13 0.47,-0.13 0.47,-0.13 0.07,-0.32 0.13,-0.4 0.12,-0.36 0.28,-0.49 0.27,-0.49 0.27,-0.49 0.11,-0.19 0.14,-0.29 0.29,-0.63 0.29,-0.63 -0.01,-0.01 0.29,-0.67 0.07,-0.37 0.26,-1.15 0.21,-1.01 0.04,-0.06 0.03,-0.02 0.03,-0.01 0.02,-0.02 0.02,-0.01 0.03,-0.03 0.03,-0.03 0.03,-0.08 0.02,-0.07 0.01,-0.04 v -0.02 -0.03 -0.02 -0.03 -0.02 -0.02 -0.02 l -0.01,-0.02 v -0.02 l -0.01,-0.02 -0.03,-0.04 -0.04,-0.07 -0.01,-0.02 -0.01,-0.03 -0.01,-0.04 -0.01,-0.01 -0.01,-0.04 -0.01,-0.06 -0.01,-0.02 -0.01,-0.02 -0.01,-0.03 0.02,-0.02 0.04,-0.02 0.02,-0.01 0.02,-0.02 0.01,-0.01 0.02,-0.02 h 0.02 l 0.03,-0.02 0.02,-0.01 0.02,-0.02 0.01,-0.02 0.01,-0.02 0.01,-0.02 0.02,-0.01 0.02,-0.02 v -0.02 -0.03 -0.01 l 0.02,-0.02 0.02,-0.02 0.02,-0.02 0.01,-0.01 0.02,-0.02 0.02,-0.02 0.02,-0.01 h 0.01 l 0.04,-0.01 h 0.03 0.01 l 0.03,-0.01 0.02,-0.01 0.02,-0.01 0.02,-0.02 0.03,-0.02 0.03,-0.02 0.03,-0.02 0.03,-0.01 h 0.02 0.03 l 0.03,-0.01 0.02,-0.01 0.03,-0.02 0.09,-0.04 0.05,-0.03 h 0.03 0.02 l 0.01,0.01 0.01,0.01 h 0.01 0.02 l 0.01,0.01 h 0.01 l 0.02,0.01 h 0.03 0.02 l 0.02,-0.01 v 0 l 0.01,-0.02 0.01,-0.03 v -0.02 l 0.01,-0.05 0.02,-0.04 0.03,-0.04 0.02,-0.01 0.02,-0.02 h 0.02 l 0.03,-0.01 0.03,0.01 0.03,-0.01 0.04,-0.01 0.03,-0.01 0.03,-0.03 0.03,-0.03 0.02,-0.04 0.02,-0.04 0.02,-0.04 0.01,-0.04 0.02,-0.03 0.02,-0.05 0.01,-0.03 v -0.05 l 0.02,-0.04 0.01,-0.03 0.02,-0.04 0.01,-0.04 0.03,-0.07 0.02,-0.02 0.03,-0.01 0.04,-0.02 0.02,-0.01 0.03,-0.02 h 0.02 l 0.04,-0.02 0.03,-0.01 0.04,-0.05 0.01,-0.03 0.01,-0.05 0.01,-0.04 0.01,-0.04 v -0.04 l 0.01,-0.05 0.01,-0.1 v -0.02 l 0.01,-0.06 0.01,-0.02 v -0.02 l 0.02,-0.02 0.02,-0.01 0.03,-0.01 0.03,-0.01 0.02,-0.01 h 0.04 l 0.02,-0.01 0.04,-0.01 0.03,-0.02 0.04,-0.03 0.02,-0.02 0.02,-0.02 0.03,-0.02 0.03,-0.01 0.02,-0.01 0.02,-0.02 0.02,-0.01 0.02,-0.04 0.01,-0.02 0.02,-0.02 0.02,-0.02 h 0.02 l 0.02,-0.01 0.02,-0.02 0.06,-0.05 0.05,-0.05 0.02,-0.04 0.01,-0.03 v -0.03 -0.01 -0.03 l 0.01,-0.02 0.01,-0.02 0.02,-0.04 0.01,-0.03 0.02,-0.02 0.03,-0.04 0.02,-0.02 0.02,-0.02 0.04,-0.05 0.01,-0.02 0.04,-0.02 0.02,-0.01 0.05,-0.02 0.02,0.01 0.01,0.01 0.04,0.02 0.02,0.01 h 0.01 0.02 l 0.02,-0.01 0.01,-0.02 0.02,-0.03 0.03,-0.04 0.03,-0.04 0.04,-0.04 0.05,-0.04 0.02,-0.02 0.03,-0.01 0.04,-0.02 0.09,-0.07 0.06,-0.05 0.04,-0.05 0.04,-0.04 0.02,-0.03 0.03,-0.01 0.02,-0.01 h 0.01 0.03 0.02 l 0.01,-0.01 0.03,-0.02 v -0.02 l 0.02,-0.03 0.01,-0.02 0.03,-0.01 h 0.01 0.02 0.05 0.04 0.05 0.04 0.02 0.02 l 0.04,-0.03 0.02,-0.02 0.01,-0.01 0.02,-0.02 0.01,-0.01 0.01,-0.02 0.02,-0.01 0.01,-0.01 0.02,-0.01 0.02,-0.01 0.01,-0.01 0.02,-0.02 0.02,-0.02 0.01,-0.02 0.02,-0.03 0.02,-0.06 0.01,-0.02 0.01,-0.02 0.01,-0.01 0.03,-0.01 h 0.02 l 0.03,-0.01 h 0.02 0.02 l 0.03,-0.01 h 0.02 l 0.01,-0.02 0.05,-0.03 0.03,-0.03 0.05,-0.04 0.02,-0.01 0.02,-0.02 0.02,-0.01 h 0.02 0.02 0.02 0.02 l 0.02,0.01 0.02,0.01 0.02,0.02 0.02,0.02 0.02,0.01 0.01,0.02 0.01,0.01 0.01,0.01 0.02,0.01 h 0.01 l 0.02,-0.01 0.01,-0.01 0.02,-0.02 0.01,-0.02 0.03,-0.03 0.03,-0.04 0.01,-0.02 0.02,-0.01 0.01,-0.01 h 0.02 l 0.05,-0.02 0.06,-0.03 0.04,-0.02 0.02,-0.01 h 0.02 0.02 l 0.03,-0.01 h 0.02 l 0.02,-0.01 0.02,-0.01 0.02,-0.01 0.02,-0.01 0.02,-0.01 0.02,-0.01 h 0.03 l 0.02,-0.01 h 0.02 l 0.02,0.01 h 0.02 0.02 0.02 l 0.01,-0.01 0.02,-0.01 0.02,-0.01 0.01,-0.01 0.02,-0.02 0.01,-0.01 0.01,-0.01 0.02,-0.02 0.02,-0.03 0.02,-0.02 0.01,-0.01 0.01,-0.01 h 0.02 l 0.02,-0.02 0.06,-0.05 0.02,-0.01 0.03,-0.03 0.03,-0.02 0.02,-0.03 0.02,-0.02 0.02,-0.04 0.02,-0.03 0.02,-0.02 0.02,-0.02 0.01,-0.01 0.01,-0.02 0.01,-0.02 0.01,-0.01 h 0.02 0.02 v -0.01 l 0.01,-0.01 0.01,-0.02 0.01,-0.02 -0.01,-0.01 v -0.02 -0.01 -0.01 l 0.02,-0.02 0.01,-0.02 0.03,-0.03 0.01,-0.01 0.02,-0.02 0.02,-0.03 0.01,-0.01 0.01,-0.02 0.03,-0.03 0.03,-0.02 0.04,-0.02 v -0.01 l 0.01,-0.01 h 0.01 l 0.01,-0.01 v 0 l 0.01,-0.01 v 0 l 0.01,-0.01 v -0.01 l 0.01,-0.01 v 0 l 0.01,-0.01 0.01,-0.01 v -0.01 -0.01 l 0.01,-0.01 v -0.01 h 0.01 v -0.01 l 0.01,-0.01 v -0.01 l 0.01,-0.01 v -0.01 l 0.01,-0.01 v -0.01 l 0.01,-0.01 v -0.01 l 0.01,-0.01 v -0.01 l 0.01,-0.01 0.01,-0.01 v 0 l 0.01,-0.01 v -0.01 l 0.01,-0.01 v -0.01 0 -0.01 l 0.01,-0.01 v -0.01 -0.01 -0.01 -0.01 -0.01 -0.01 -0.01 -0.01 -0.01 -0.01 l -0.01,-0.01 v -0.01 -0.01 l -0.01,-0.01 v 0 l -0.01,-0.01 v -0.01 l -0.01,-0.01 v -0.01 0 l 0.01,-0.01 0.01,-0.01 v -0.01 h 0.01 v -0.01 l 0.01,-0.01 0.01,-0.01 v 0 l 0.01,-0.01 0.01,-0.01 0.01,-0.01 h 0.01 l 0.01,-0.01 v -0.01 l 0.01,-0.01 h 0.01 l 0.01,-0.01 0.01,-0.01 0.01,-0.01 h 0.01 0.01 l 0.01,-0.01 h 0.01 0.01 l 0.01,-0.01 h 0.01 0.01 0.01 0.01 0.01 0.01 0.01 0.01 0.01 0.01 0.01 0.01 l 0.01,-0.01 h 0.01 v -0.01 l 0.01,-0.01 v -0.01 l 0.01,-0.01 0.01,-0.02 v 0 l 0.01,-0.02 v 0 l 0.01,-0.02 0.01,-0.01 v 0 l 0.01,-0.01 0.01,-0.02 0.01,-0.01 v -0.01 l 0.65,0.02 0.46,0.13 0.24,-0.13 0.28,0.03 0.38,-0.23 0.28,-0.15 v -0.03 l 0.01,-0.02 v -0.02 -0.03 -0.04 -0.03 -0.01 -0.04 -0.03 -0.02 -0.02 l -0.01,-0.02 v -0.02 l -0.01,-0.02 -0.01,-0.03 -0.01,-0.02 -0.01,-0.02 -0.01,-0.04 -0.01,-0.02 -0.01,-0.03 v -0.03 l 0.01,-0.03 v -0.03 l 0.01,-0.01 0.01,-0.02 0.02,-0.01 0.01,-0.01 h 0.01 0.01 0.02 l 0.01,-0.01 0.01,-0.01 0.01,-0.01 0.01,-0.01 0.04,-0.01 h 0.01 v -0.01 h 0.01 0.01 l 0.01,-0.01 h 0.01 l 0.01,-0.01 v 0 h 0.02 0.01 0.01 0.01 0.01 0.01 0.01 0.01 0.01 0.01 l 0.01,0.01 0.02,-0.01 v 0.01 l 0.02,-0.01 h 0.01 0.01 0.01 l 0.01,-0.01 h 0.01 0.01 0.01 0.01 l 0.01,0.01 h 0.01 0.01 l 0.01,0.01 h 0.01 0.01 0.01 l 0.01,-0.01 h 0.01 l 0.01,-0.01 h 0.01 l 0.01,-0.01 0.01,-0.01 h 0.01 l 0.01,-0.01 v -0.01 h 0.01 v -0.02 l 0.01,-0.01 v -0.01 l 0.01,-0.01 v -0.01 l 0.01,-0.01 v -0.01 h 0.01 l 0.01,-0.01 v -0.01 l 0.01,-0.01 v 0 l 0.01,-0.01 v -0.01 -0.01 l 0.01,-0.01 v -0.01 l 0.01,-0.01 v -0.01 0 l 0.01,-0.01 v -0.01 -0.01 0 l 0.01,-0.01 v -0.01 l 0.01,-0.01 v 0 l 0.01,-0.01 v -0.01 h 0.01 l 0.01,-0.01 h 0.01 l 0.01,-0.01 h 0.01 0.01 l 0.01,-0.01 v 0 l 0.01,-0.01 h 0.01 0.01 0.01 v 0 h 0.01 l 0.01,0.01 h 0.01 0.01 v 0.01 h 0.01 v 0.01 l 0.01,0.01 v 0.01 0.01 l 0.01,0.01 v 0.01 l 0.01,0.01 v 0 l 0.01,0.01 h 0.01 v 0.01 h 0.02 0.03 l 0.01,-0.01 h 0.01 l 0.01,-0.01 0.01,-0.01 v -0.01 h 0.01 v -0.02 0 l 0.01,-0.01 v -0.01 -0.01 l 0.01,-0.01 v -0.01 -0.01 -0.01 -0.01 -0.01 -0.01 -0.01 -0.02 -0.01 0 -0.02 h 0.01 v -0.01 -0.01 -0.01 -0.01 -0.01 l 0.01,-0.01 v -0.01 -0.01 l 0.01,-0.01 v -0.01 z"
       id="path182" />
  </g>
</svg>
