<?xml version="1.0" encoding="UTF-8" standalone="no"?>
<svg
   version="1.2"
   width="800"
   height="642"
   viewBox="0 0 800 642"
   stroke-linecap="round"
   stroke-linejoin="round"
   id="svg212"
   sodipodi:docname="Amezketa.svg"
   inkscape:version="1.1.2 (b8e25be833, 2022-02-05)"
   xmlns:inkscape="http://www.inkscape.org/namespaces/inkscape"
   xmlns:sodipodi="http://sodipodi.sourceforge.net/DTD/sodipodi-0.dtd"
   xmlns="http://www.w3.org/2000/svg"
   xmlns:svg="http://www.w3.org/2000/svg">
  <defs
     id="defs216" />
  <sodipodi:namedview
     id="namedview214"
     pagecolor="#ffffff"
     bordercolor="#666666"
     borderopacity="1.0"
     inkscape:pageshadow="2"
     inkscape:pageopacity="0.0"
     inkscape:pagecheckerboard="0"
     showgrid="false"
     inkscape:zoom="1.3146417"
     inkscape:cx="399.72867"
     inkscape:cy="443.08649"
     inkscape:window-width="1848"
     inkscape:window-height="1016"
     inkscape:window-x="72"
     inkscape:window-y="1107"
     inkscape:window-maximized="1"
     inkscape:current-layer="svg212" />
  <g
     id="Amezketa"
     transform="matrix(24.873316,0,0,24.873316,-9437.7891,-4622.5885)">
    <path
       d="m 389.68,186.44 0.03,0.01 0.03,0.01 0.03,0.01 0.04,0.02 h 0.01 l 0.02,0.01 h 0.02 l 0.02,0.01 0.02,0.01 h 0.02 l 0.03,0.01 h 0.02 0.02 l 0.02,-0.01 0.03,-0.01 0.02,-0.01 h 0.03 l 0.02,-0.01 0.02,-0.01 h 0.02 l 0.03,-0.01 0.03,-0.01 h 0.03 l 0.03,-0.02 0.03,-0.01 0.03,-0.01 0.03,-0.02 0.03,-0.01 0.02,-0.01 h 0.03 0.02 l 0.04,-0.01 0.03,0.01 h 0.03 l 0.02,0.01 0.03,0.01 0.03,0.01 0.02,0.01 h 0.02 0.02 0.03 l 0.03,0.01 h 0.04 l 0.03,0.01 h 0.03 0.03 0.04 l 0.03,0.01 h 0.03 0.03 l 0.03,0.01 h 0.04 0.02 0.02 0.04 0.03 0.02 0.02 0.01 l 0.03,0.02 0.02,0.01 0.03,0.01 0.03,0.02 0.03,0.01 0.03,0.02 0.04,0.02 0.02,0.02 0.03,0.02 0.03,0.02 0.02,0.02 0.03,0.01 0.02,0.02 0.05,0.03 0.01,0.02 0.04,0.01 0.01,0.01 0.31,0.07 1.6,0.49 0.98,-0.08 1.22,0.38 -0.13,1.4 -0.02,-0.01 -0.01,0.02 v 0.03 l -0.02,0.05 -0.03,0.04 -0.03,0.04 -0.03,0.04 -0.03,0.03 -0.02,0.04 -0.03,0.04 -0.02,0.07 -0.01,0.07 -0.02,0.06 -0.02,0.1 -0.04,0.07 -0.03,0.07 -0.05,0.06 -0.04,0.1 -0.03,0.03 -0.06,0.05 -0.05,0.06 -0.04,0.07 -0.04,0.09 -0.04,0.08 -0.03,0.08 -0.04,0.05 -0.03,0.08 -0.03,0.08 v 0.05 l 0.01,0.04 -0.01,0.06 -0.01,0.05 -0.02,0.05 -0.03,0.03 -0.04,0.03 -0.05,0.04 -0.04,0.03 -0.04,0.02 -0.02,0.01 -0.03,0.02 -0.03,0.06 -0.02,0.03 -0.01,0.05 v 0.04 0.06 l 0.03,0.05 0.02,0.04 0.02,0.04 0.02,0.04 v 0.04 l -0.01,0.04 v 0.03 l -0.01,0.04 v 0.05 l 0.01,0.02 v 0.04 0.04 l -0.03,0.04 -0.05,0.05 -0.04,0.03 -0.03,0.03 -0.01,0.03 -0.03,0.06 -0.03,0.04 -0.05,0.09 -0.02,0.03 -0.01,0.05 -0.02,0.06 -0.01,0.04 -0.02,0.07 -0.01,0.04 -0.02,0.04 -0.02,0.03 -0.02,0.03 -0.03,0.04 -0.04,0.04 -0.03,0.05 -0.01,0.03 v 0.02 l -0.01,0.03 -0.02,0.03 -0.03,0.03 -0.03,0.05 -0.01,0.04 -0.01,0.05 v 0.03 l -0.01,0.03 -0.02,0.02 -0.03,0.04 -0.03,0.03 -0.01,0.01 -0.01,0.01 -0.03,0.04 -0.02,0.04 -0.03,0.03 -0.02,0.02 -0.03,0.03 v 0.01 l -0.02,0.01 -0.01,0.01 -0.01,0.01 v 0 l -0.02,0.02 0.02,0.02 0.02,0.02 0.02,0.03 0.03,0.02 0.02,0.02 0.02,0.02 0.02,0.01 0.02,0.01 0.02,0.01 h 0.03 l 0.02,0.01 h 0.02 l 0.03,0.01 h 0.02 l 0.01,0.01 0.03,0.01 0.04,0.03 0.03,0.01 0.02,0.01 0.01,0.01 0.02,0.02 0.01,0.01 0.02,0.02 0.01,0.02 0.02,0.03 v 0.01 h 0.01 l 0.01,0.01 h 0.01 l 0.01,0.01 h 0.01 l 0.01,0.01 h 0.02 0.01 0.02 l 0.01,0.01 h 0.01 0.02 l 0.01,-0.01 h 0.01 0.01 0.01 0.04 0.01 0.01 l 0.01,0.01 h 0.01 l 0.01,0.01 h 0.01 l 0.01,0.01 0.01,0.01 h 0.01 l 0.02,0.01 h 0.01 0.01 l 0.03,0.01 h 0.02 0.01 l 0.02,0.01 h 0.03 l 0.02,0.01 0.02,0.01 0.02,0.01 h 0.01 l 0.03,0.01 0.02,0.01 0.03,0.01 0.02,0.01 0.03,0.03 0.02,0.01 v 0.01 l 0.02,0.03 v 0.01 l 0.01,0.01 0.03,0.03 0.01,0.03 0.02,0.01 0.01,0.02 0.02,0.01 0.01,0.01 0.02,0.01 0.02,0.01 0.03,0.01 0.04,0.01 0.03,0.01 h 0.04 0.02 0.03 0.05 0.03 0.03 l 0.03,-0.01 h 0.04 l 0.02,-0.01 h 0.03 l 0.03,-0.01 h 0.03 l 0.04,-0.01 h 0.03 0.02 l 0.04,-0.01 h 0.04 l 0.04,0.01 h 0.02 0.03 l 0.03,0.01 0.04,0.01 0.03,0.01 h 0.03 l 0.01,0.01 h 0.02 0.01 0.01 l 0.01,-0.01 H 396 l 0.03,-0.01 0.03,-0.01 0.04,-0.01 h 0.02 l 0.02,-0.01 h 0.05 0.03 0.04 0.05 0.04 l 0.05,0.01 0.08,0.01 h 0.06 0.04 l 0.04,0.01 h 0.05 l 0.07,0.01 0.06,0.01 0.03,0.01 0.03,0.01 0.04,0.01 0.05,0.01 0.05,0.02 0.04,0.01 0.04,0.01 0.04,0.01 0.04,0.01 0.04,0.01 0.05,0.01 h 0.01 0.01 l 0.01,0.01 h 0.02 l 0.01,0.01 h 0.01 l 0.01,0.01 h 0.01 l 0.01,0.01 h 0.01 l 0.01,0.01 h 0.02 l 0.02,0.01 0.02,-0.01 h 0.01 l 0.02,-0.01 0.02,-0.02 0.01,-0.01 0.02,-0.02 0.02,-0.02 0.03,-0.02 h 0.02 l 0.04,-0.01 h 0.03 l 0.02,0.01 h 0.02 l 0.03,0.01 h 0.02 0.02 0.05 l 0.04,0.01 h 0.02 0.04 0.04 0.03 l 0.04,-0.01 h 0.05 l 0.02,-0.01 h 0.03 0.02 0.01 l 0.02,-0.01 0.03,0.01 0.02,0.01 0.02,0.01 0.02,0.01 h 0.01 0.03 0.02 l 0.02,-0.01 h 0.03 l 0.03,-0.01 h 0.02 0.02 0.01 l 0.03,0.01 0.03,0.01 0.05,0.02 0.03,0.01 0.04,0.02 0.05,0.02 0.05,0.02 0.03,0.01 0.04,0.02 0.03,0.01 0.02,0.01 h 0.02 l 0.03,0.01 0.04,0.01 h 0.03 l 0.03,0.02 0.04,0.01 0.04,0.01 0.02,0.01 0.02,0.01 0.02,0.01 h 0.02 l 0.05,0.01 0.03,0.01 h 0.02 0.03 l 0.03,0.01 0.02,0.01 0.04,0.01 0.04,0.01 0.03,0.01 h 0.04 l 0.04,0.01 0.04,0.01 h 0.03 0.02 l 0.04,0.01 h 0.04 0.03 0.06 0.05 0.04 0.02 0.02 l 0.04,-0.01 h 0.03 l 0.03,-0.01 h 0.03 l 0.03,-0.01 h 0.01 l 0.01,-0.01 h 0.03 l 0.02,-0.01 h 0.02 0.02 0.01 l 0.02,-0.01 0.02,-0.02 h 0.01 l 0.03,-0.01 h 0.03 l 0.03,-0.01 h 0.04 0.04 0.03 l 0.04,-0.01 h 0.06 0.02 0.01 l 0.04,0.01 h 0.04 0.05 0.03 l 0.04,0.01 0.03,0.01 h 0.05 0.03 l 0.03,0.01 h 0.04 0.04 l 0.04,0.01 h 0.03 l 0.03,0.01 h 0.01 0.02 l 0.02,0.01 h 0.01 0.03 0.04 0.03 0.03 0.02 l 0.03,0.01 0.04,0.01 h 0.02 l 0.03,0.02 h 0.03 l 0.01,0.01 0.04,0.01 0.02,0.01 0.03,0.01 0.02,0.01 0.03,0.01 0.03,0.01 0.04,0.01 0.04,0.01 h 0.04 l 0.04,0.01 0.03,0.01 0.03,0.01 0.03,0.01 0.02,0.01 0.04,0.01 0.02,0.01 0.01,0.01 0.03,0.01 0.03,0.02 0.03,0.01 0.05,0.01 0.04,0.01 0.04,0.02 0.03,0.02 0.03,0.01 h 0.03 0.04 0.03 l 0.03,-0.01 h 0.02 l 0.02,-0.01 0.03,-0.01 h 0.01 l 0.03,-0.01 0.04,0.01 0.03,0.01 0.05,0.03 0.03,0.01 0.01,0.02 0.01,0.03 0.01,0.03 0.02,0.03 0.02,0.04 v 0.01 l 0.02,0.02 0.03,0.02 0.01,0.02 0.01,0.03 h 0.01 l 0.03,0.07 v 0.02 l -0.02,0.02 -0.02,0.03 -0.03,0.04 -0.02,0.04 -0.01,0.03 v 0.01 l 0.01,0.03 v 0.07 l 0.01,0.03 v 0.05 l 0.01,0.02 0.01,0.04 0.01,0.02 0.01,0.03 0.02,0.03 0.02,0.03 0.01,0.03 0.01,0.02 0.03,0.04 0.01,0.03 0.02,0.03 v 0.03 0.03 l -0.01,0.03 v 0.05 0.06 l 0.01,0.04 0.01,0.04 0.01,0.04 0.02,0.03 0.01,0.03 0.01,0.03 0.02,0.04 0.02,0.05 0.01,0.02 v 0.02 l -0.01,0.04 -0.01,0.04 -0.01,0.05 -0.01,0.05 -0.01,0.09 0.02,0.04 0.01,0.03 0.01,0.04 0.01,0.05 v 0.05 0.05 l -0.01,0.03 -0.02,0.05 v 0.05 0.03 l -0.01,0.02 v 0.03 l -0.02,0.04 -0.02,0.04 -0.03,0.03 -0.03,0.02 -0.05,0.02 -0.04,0.01 -0.07,0.02 -0.03,0.02 -0.04,0.02 -0.03,0.04 -0.01,0.05 -0.01,0.04 -0.01,0.05 v 0.05 0.05 l 0.01,0.04 v 0.05 l 0.02,0.05 v 0.04 l 0.02,0.12 v 0.14 l 0.01,0.08 v 0.06 l 0.01,0.05 0.01,0.04 0.01,0.03 v 0.05 0.04 l 0.01,0.03 0.01,0.04 0.01,0.03 v 0.03 l -0.01,0.04 v 0.03 0.04 0.05 l 0.01,0.04 0.02,0.03 0.02,0.04 0.01,0.03 v 0.04 l -0.01,0.04 v 0.06 l 0.01,0.03 0.01,0.05 0.02,0.05 0.02,0.04 0.01,0.04 v 0.13 l 0.01,0.07 0.01,0.08 0.01,0.08 v 0.04 l -0.01,0.09 v 0.06 l -0.01,0.08 -0.01,0.06 v 0.03 0.05 0.04 l -0.02,0.05 -0.05,0.06 -0.03,0.03 -0.04,0.04 -0.03,0.03 v 0.03 0.04 l 0.01,0.04 0.01,0.04 0.02,0.05 -0.02,0.05 -0.01,0.04 -0.02,0.08 -0.03,0.09 -0.02,0.05 -0.01,0.06 -0.01,0.03 0.01,0.06 v 0.06 0.04 0.06 l 0.01,0.11 0.01,0.09 -0.01,0.06 v 0.01 l 0.01,0.06 0.01,0.03 0.03,0.05 0.04,0.05 0.01,0.06 0.01,0.04 0.03,0.06 0.03,0.05 0.02,0.06 0.02,0.05 0.04,0.07 0.01,0.03 0.03,0.03 0.05,0.03 0.04,0.03 0.07,0.03 0.07,0.03 0.06,0.01 0.04,0.02 0.02,0.02 0.03,0.02 h 0.01 l 0.21,2.09 0.07,0.63 0.03,0.36 0.06,0.62 -0.13,-0.08 -0.07,-0.04 -0.07,-0.05 -0.07,-0.03 0.02,0.06 0.07,0.16 0.03,0.09 0.02,0.05 0.06,0.13 0.02,0.06 0.01,0.01 0.03,0.08 0.01,0.02 0.05,0.09 0.08,0.12 -0.41,0.22 -0.27,0.13 -3.45,1.8 -0.59,-0.09 -0.79,-0.25 -0.46,-0.2 -0.75,-0.3 -2.37,0.85 -0.02,0.03 -0.02,0.02 -0.02,0.02 -0.01,0.01 -0.03,0.02 -0.02,0.03 -0.02,0.02 -0.02,0.04 -0.01,0.02 -0.01,0.04 -0.03,0.03 -0.02,0.04 -0.02,0.02 -0.04,0.03 -0.03,0.03 -0.04,0.04 -0.01,0.01 -0.05,0.04 v 0.01 l -0.01,0.01 v 0.01 l -0.01,0.01 v 0 l -0.01,0.01 -0.01,0.01 v 0 l -0.01,0.01 v 0 l -0.01,0.01 -0.01,0.01 v 0.01 0 0.01 0.01 0.01 0.01 0.01 0.01 l -0.01,0.01 v 0.01 0 0.01 0.01 0.01 h 0.01 v 0.01 0.01 0.01 0.01 h -0.01 -0.01 l -0.01,0.01 h -0.01 l -0.01,0.01 h -0.01 -0.01 -0.01 -0.01 v 0 h -0.01 l -0.01,-0.01 h -0.01 -0.01 -0.01 -0.01 l -0.01,-0.01 h -0.01 -0.01 -0.02 -0.01 -0.01 -0.06 l -0.05,-0.01 -0.04,-0.02 -0.03,-0.01 -0.05,-0.07 -0.05,-0.03 -0.01,-0.01 h -0.01 l -0.01,-0.01 -0.01,-0.01 h -0.01 l -0.01,-0.01 h -0.01 l -0.01,-0.01 -0.01,-0.01 h -0.01 v -0.01 h -0.01 l -0.01,-0.01 -0.01,-0.01 -0.01,-0.01 v 0 l -0.01,-0.01 v -0.01 l -0.01,-0.01 v -0.01 -0.01 l -0.01,-0.01 v -0.01 -0.01 l 0.01,-0.01 v -0.01 -0.01 h 0.01 l -0.01,-0.01 v -0.01 h -0.01 -0.01 v 0 h -0.01 l -0.01,0.01 h -0.01 v 0.01 l -0.01,0.01 v 0.01 h -0.01 l -0.01,0.01 -0.01,0.01 h -0.01 -0.01 l -0.01,0.01 -0.04,0.01 -0.02,0.01 -0.03,0.02 -0.04,0.02 -0.1,0.03 -0.01,0.01 h -0.02 l -0.01,0.01 h -0.02 l -0.01,0.01 h -0.02 l -0.02,0.01 v 0 h -0.01 l -0.01,0.01 h -0.01 -0.01 -0.01 v 0.01 h -0.01 -0.01 -0.01 -0.01 -0.01 -0.01 -0.01 -0.01 -0.01 -0.01 l -0.01,-0.01 v 0 l -0.01,-0.01 h -0.01 -0.01 v 0 l -0.01,-0.01 h -0.01 -0.01 -0.01 -0.01 v 0 l -0.03,0.01 -0.02,0.02 -0.01,0.01 -0.02,0.01 -0.02,0.01 -2.5,0.08 -0.19,-0.63 -0.24,-0.8 -0.34,-0.81 -0.3,-1.02 -0.3,-2.45 -0.55,-1 -0.43,-0.78 0.9,-2.89 -0.71,-3.09 -0.24,-0.87 -0.78,-2.2 v -0.08 l -0.01,-0.03 v -0.05 -0.03 l 0.01,-0.05 v -0.03 l -0.01,-0.03 -0.01,-0.03 -0.03,-0.08 -0.02,-0.05 -0.04,-0.05 -0.01,-0.05 -0.03,0.01 0.1,-0.91 0.3,-0.86 v -0.02 h 0.01 0.07 0.06 0.1 l 0.05,0.01 h 0.03 0.02 l 0.04,-0.02 0.04,-0.01 0.04,-0.02 0.09,-0.03 0.05,-0.04 0.03,-0.03 0.05,-0.03 0.07,-0.04 0.09,-0.04 0.03,-0.03 0.04,-0.04 0.06,-0.07 0.06,-0.04 0.04,-0.05 0.05,-0.04 0.08,-0.04 0.04,-0.02 0.04,-0.01 0.03,-0.02 0.01,-0.02 0.03,-0.03 0.09,-0.07 0.11,-0.06 0.06,-0.03 0.02,-0.01 0.06,-0.03 0.06,-0.03 0.11,-0.04 0.05,-0.02 0.04,-0.02 0.07,-0.03 0.04,-0.02 0.04,-0.04 0.03,-0.03 0.04,-0.04 0.03,-0.03 0.04,-0.05 0.03,-0.04 0.02,-0.01 0.06,-0.05 0.03,-0.04 0.04,-0.04 0.02,-0.02 0.02,-0.03 0.03,-0.02 h 0.02 l 0.03,-0.02 0.05,-0.02 0.01,-0.01 0.05,-0.03 0.04,-0.04 0.03,-0.03 0.02,-0.02 0.03,-0.02 0.09,-0.03 h 0.07 l 0.12,-0.03 v -0.04 l -0.01,-0.03 -0.02,-0.06 -0.01,-0.03 -0.01,-0.03 -0.01,-0.02 -0.01,-0.03 -0.01,-0.02 -0.02,-0.03 -0.02,-0.02 -0.02,-0.01 -0.02,-0.02 -0.03,-0.01 -0.03,-0.02 -0.02,-0.02 -0.01,-0.01 -0.02,-0.01 -0.03,-0.03 -0.02,-0.02 -0.01,-0.02 -0.02,-0.04 -0.01,-0.02 -0.01,-0.03 v -0.04 -0.02 -0.01 -0.03 l 0.01,-0.02 v -0.02 l 0.01,-0.03 0.01,-0.03 0.02,-0.05 v -0.02 l 0.03,-0.14 0.01,-0.08 v -0.02 l 0.01,-0.02 v -0.04 L 390,187.59 v -0.04 l -0.01,-0.03 -0.01,-0.03 -0.01,-0.03 -0.01,-0.02 -0.01,-0.03 -0.02,-0.03 -0.01,-0.02 -0.02,-0.03 -0.01,-0.02 -0.01,-0.03 -0.02,-0.03 -0.01,-0.03 -0.02,-0.04 -0.01,-0.03 -0.01,-0.02 -0.01,-0.02 -0.01,-0.02 -0.01,-0.04 -0.02,-0.04 -0.01,-0.03 -0.01,-0.03 -0.02,-0.04 v -0.02 l -0.01,-0.02 -0.01,-0.03 -0.02,-0.04 -0.01,-0.04 v -0.03 l -0.01,-0.05 -0.01,-0.03 v -0.03 -0.03 -0.02 -0.01 l 0.01,-0.02 0.01,-0.02 0.01,-0.03 v -0.03 z"
       id="path209" />
  </g>
</svg>
