<?xml version="1.0" encoding="UTF-8" standalone="no"?>
<svg
   version="1.2"
   width="800"
   height="642"
   viewBox="0 0 800 642"
   stroke-linecap="round"
   stroke-linejoin="round"
   id="svg248"
   sodipodi:docname="Andoain.svg"
   inkscape:version="1.1.2 (b8e25be833, 2022-02-05)"
   xmlns:inkscape="http://www.inkscape.org/namespaces/inkscape"
   xmlns:sodipodi="http://sodipodi.sourceforge.net/DTD/sodipodi-0.dtd"
   xmlns="http://www.w3.org/2000/svg"
   xmlns:svg="http://www.w3.org/2000/svg">
  <defs
     id="defs252" />
  <sodipodi:namedview
     id="namedview250"
     pagecolor="#ffffff"
     bordercolor="#666666"
     borderopacity="1.0"
     inkscape:pageshadow="2"
     inkscape:pageopacity="0.0"
     inkscape:pagecheckerboard="0"
     showgrid="false"
     inkscape:zoom="1.3146417"
     inkscape:cx="399.72867"
     inkscape:cy="252.92062"
     inkscape:window-width="1848"
     inkscape:window-height="1016"
     inkscape:window-x="72"
     inkscape:window-y="1107"
     inkscape:window-maximized="1"
     inkscape:current-layer="svg248" />
  <g
     id="Andoain"
     transform="matrix(22.648917,0,0,22.648917,-8870.0235,-2698.9377)">
    <path
       d="m 399.79,123.15 0.01,-0.02 0.01,-0.02 0.02,-0.03 0.02,-0.02 0.03,-0.02 0.02,-0.01 0.04,-0.02 h 0.04 0.02 0.03 l 0.01,0.01 0.02,0.01 0.02,0.01 0.02,0.01 0.02,0.01 0.01,0.01 h 0.02 0.01 l 0.01,-0.01 0.02,-0.02 0.03,-0.03 0.03,-0.03 0.04,-0.03 0.02,-0.01 0.02,-0.02 0.02,-0.02 0.02,-0.03 0.01,-0.04 0.02,-0.03 0.02,-0.06 0.03,-0.05 0.02,-0.04 0.01,-0.02 0.02,-0.02 0.02,-0.02 h 0.01 l 0.02,-0.01 0.03,-0.01 h 0.05 l 0.03,-0.01 h 0.03 l 0.04,-0.01 h 0.05 l 0.06,-0.01 h 0.06 0.02 0.03 0.02 l 0.01,0.01 0.01,-0.01 0.77,0.74 0.44,0.46 0.35,0.32 -0.1,-2.03 h 0.04 0.05 l 0.04,0.01 h 0.05 l 0.05,0.02 0.04,0.01 0.02,0.01 0.02,0.01 h 0.05 l 0.04,0.01 h 0.03 l 0.02,0.01 h 0.01 l 0.03,0.01 0.02,0.02 0.02,0.01 0.01,0.01 0.02,0.02 0.01,0.02 v 0.01 l 0.01,0.02 -0.01,0.01 -0.01,0.02 v 0.02 l -0.01,0.01 v 0.04 0.04 l 0.01,0.01 v 0.02 l 0.01,0.02 0.01,0.03 0.01,0.02 0.02,0.02 0.01,0.01 0.02,0.01 h 0.02 l 0.01,-0.01 0.04,-0.01 0.02,-0.01 0.02,-0.01 0.06,-0.05 0.07,-0.05 0.06,-0.05 0.06,-0.04 0.03,-0.03 0.02,-0.01 0.02,-0.01 h 0.02 0.03 l 0.02,0.01 0.02,0.02 0.01,0.01 0.01,0.01 0.01,0.03 0.01,0.02 0.02,0.03 0.02,0.03 0.02,0.03 0.03,0.02 0.02,0.02 0.03,0.03 0.01,0.01 0.01,0.01 v 0.02 l 0.01,0.03 v 0.03 l -0.01,0.03 v 0.03 0.02 l -0.01,0.02 v 0.02 0 l 0.01,0.01 v 0.01 h 0.01 0.01 l 0.02,0.01 0.02,0.01 v 0.01 0.01 l 0.02,0.02 0.02,0.02 0.05,0.02 0.04,0.03 0.04,0.03 0.05,0.03 0.04,0.04 0.04,0.04 0.01,0.01 0.01,0.02 0.02,0.01 0.01,0.01 0.02,0.01 0.01,0.01 0.02,0.01 0.01,0.01 0.02,0.01 0.02,0.01 0.04,0.01 0.03,0.01 h 0.02 l 0.03,0.01 h 0.01 0.01 l 0.06,0.01 0.07,0.01 0.05,-0.01 0.02,0.01 0.05,0.01 0.06,0.01 0.03,0.02 h 0.02 l 0.01,0.01 0.01,0.01 0.03,0.02 0.02,0.02 0.03,0.04 0.02,0.02 0.01,0.01 0.03,0.02 0.02,0.01 0.03,0.02 0.01,0.01 0.03,0.01 0.02,0.01 0.03,0.01 0.01,0.01 h 0.01 l 0.01,0.01 h 0.01 l 0.01,0.01 h 0.01 l 0.05,0.02 0.12,0.03 0.1,0.03 0.06,0.02 0.03,0.02 0.03,0.01 h 0.03 0.03 0.02 0.02 0.02 0.03 0.02 l 0.02,0.01 h 0.02 l 0.03,0.01 h 0.02 0.01 l 0.01,0.01 0.01,0.01 0.01,0.01 0.02,0.04 0.01,0.01 v 0.02 l 0.01,0.02 0.02,0.04 0.02,0.02 0.02,0.02 0.08,0.07 0.11,0.07 0.02,-0.03 0.06,-0.08 0.03,-0.06 0.02,-0.06 0.03,-0.07 0.04,-0.06 0.04,-0.07 0.04,-0.05 0.05,-0.04 0.06,-0.04 0.05,-0.03 0.09,-0.04 0.03,-0.01 0.05,-0.02 0.08,-0.05 0.09,-0.05 0.13,-0.11 0.02,-0.01 0.04,-0.03 0.16,-0.15 0.08,-0.11 0.02,-0.03 0.14,-0.16 0.13,-0.14 0.03,-0.05 0.05,0.12 0.03,0.06 0.02,0.06 0.04,0.08 0.02,0.05 0.03,0.05 0.02,0.03 0.02,0.03 0.03,0.03 0.03,0.02 0.02,0.02 0.05,0.04 0.05,0.03 0.04,0.05 0.02,0.03 0.05,0.05 0.02,0.06 0.02,0.03 0.03,0.05 0.02,0.07 0.02,0.04 0.01,0.05 v 0.04 l 0.01,0.04 v 0.04 l 0.01,0.04 v 0.03 l 0.01,0.04 0.01,0.03 0.01,0.05 v 0.03 l 0.01,0.04 0.01,0.03 v 0.04 l 0.01,0.04 0.01,0.05 v 0.04 l 0.01,0.04 0.01,0.04 v 0.04 l 0.01,0.03 0.01,0.03 0.01,0.04 -0.11,0.07 0.13,0.22 0.02,0.02 0.01,0.02 0.04,0.02 0.01,0.02 h 0.02 0.02 l 0.02,0.01 0.01,0.01 0.05,0.05 0.05,-0.01 0.05,-0.01 h 0.05 0.03 l 0.05,0.01 h 0.07 0.06 l 0.06,-0.01 0.06,-0.01 0.05,-0.03 0.03,-0.03 0.04,-0.03 0.04,-0.03 0.04,-0.03 0.03,-0.01 0.02,-0.01 0.03,-0.02 0.02,-0.01 0.03,-0.04 0.03,-0.03 0.05,-0.03 0.03,-0.02 0.05,-0.02 0.03,-0.01 0.05,-0.03 0.07,-0.03 0.05,-0.03 0.04,-0.02 0.04,-0.02 0.04,-0.02 0.04,-0.03 0.02,-0.02 0.03,-0.02 0.03,-0.02 0.03,-0.03 0.05,-0.05 0.05,-0.04 0.06,-0.04 0.04,-0.02 0.06,-0.03 0.06,-0.01 0.06,-0.02 0.07,-0.02 0.05,-0.01 0.04,-0.02 0.04,-0.02 0.04,-0.03 0.03,-0.03 0.03,-0.02 0.03,-0.03 0.03,-0.05 0.03,-0.03 0.02,-0.04 0.02,-0.03 0.03,-0.05 0.02,-0.03 0.04,-0.05 0.02,-0.02 0.02,-0.03 0.05,-0.03 0.04,-0.03 0.04,-0.02 0.04,-0.02 0.03,-0.01 h 0.03 l 0.03,-0.01 0.05,-0.01 0.05,-0.01 h 0.03 l 0.03,-0.01 0.03,-0.02 0.01,-0.01 0.03,-0.02 0.02,-0.01 0.01,0.01 0.19,0.54 0.98,1.5 0.43,0.55 0.37,0.58 0.36,0.34 h 0.33 l 0.32,0.91 0.25,0.4 0.44,0.53 0.09,0.66 0.48,0.65 0.45,0.2 0.8,0.9 1.28,1.18 0.24,0.1 0.46,0.29 0.26,0.34 0.17,0.17 0.21,0.35 0.75,0.43 0.18,0.2 0.21,0.12 0.02,0.08 0.04,-0.01 0.04,-0.01 h 0.02 l 0.02,0.02 0.04,0.04 0.04,0.03 0.03,0.03 0.03,0.03 0.03,0.04 0.04,0.04 0.01,0.01 0.03,0.01 0.02,0.02 0.01,0.01 0.01,0.01 0.01,0.02 v 0.01 l 0.01,0.02 0.02,0.01 0.01,0.02 0.02,0.01 0.02,0.02 0.01,0.01 0.03,0.03 h 0.01 l 0.03,0.03 0.03,0.02 0.01,0.02 0.01,0.01 0.01,0.01 0.01,0.02 0.01,0.01 0.01,0.01 v 0 l 0.01,0.01 v 0.01 0.01 0.02 l -0.01,0.02 v 0.03 l -0.01,0.04 -0.01,0.02 v 0.02 0.03 l -0.01,0.01 v 0.04 l -0.01,0.03 v 0.04 0.04 0.01 l -0.01,0.03 -0.01,0.05 -0.01,0.02 -0.01,0.04 -0.02,0.06 -0.01,0.02 -0.02,0.06 -0.02,0.05 v 0.02 l -0.01,0.03 -0.01,0.03 v 0.03 0.04 0.03 0.03 l 0.01,0.04 0.02,0.04 0.02,0.03 0.01,0.01 0.04,0.04 0.02,0.02 0.01,0.02 0.01,0.04 0.01,0.04 0.01,0.04 0.01,0.05 v 0.05 0.04 0.02 l 0.01,0.04 0.02,0.05 0.01,0.05 0.01,0.05 0.01,0.04 0.01,0.04 v 0.02 l -0.01,0.02 -0.01,0.06 -0.01,0.03 -0.02,0.03 -0.01,0.01 -0.01,0.02 v 0.03 0.03 0.05 l 0.01,0.05 v 0.03 l -0.01,0.04 v 0.01 0.02 l 0.01,0.05 0.01,0.05 0.01,0.02 0.01,0.02 v 0.03 0.03 l 0.01,0.04 0.01,0.03 0.01,0.03 0.03,0.03 0.02,0.02 0.02,0.02 0.01,0.02 0.02,0.03 0.02,0.03 0.01,0.03 0.01,0.02 v 0.04 l 0.01,0.04 v 0.04 l 0.01,0.04 0.01,0.04 0.02,0.02 0.01,0.03 0.02,0.01 0.02,0.01 0.02,0.01 0.01,0.01 0.01,0.01 0.01,0.03 0.01,0.02 0.02,0.03 0.02,0.02 0.03,0.04 0.02,0.01 0.02,0.03 0.02,0.02 0.02,0.04 0.02,0.04 0.02,0.04 0.02,0.04 0.02,0.03 0.02,0.03 0.01,0.02 0.01,0.02 0.03,0.01 0.03,0.02 0.02,0.01 0.02,0.02 0.01,0.04 0.02,0.02 0.01,0.03 0.03,0.03 0.01,0.01 v 0.01 l 0.01,0.01 v 0.03 0.03 0.02 0.04 l 0.01,0.02 0.02,0.02 0.05,0.04 0.02,0.03 0.04,0.02 0.03,0.02 0.06,0.04 0.04,0.02 0.03,0.02 0.03,0.03 0.03,0.03 0.04,0.03 0.02,0.02 0.02,0.02 0.03,0.01 0.02,0.02 0.02,0.02 0.03,0.01 0.01,0.01 0.02,0.02 0.03,0.02 0.02,0.02 0.01,0.01 0.02,0.02 0.02,0.01 0.01,0.02 0.02,0.03 0.01,0.01 0.03,0.03 0.05,0.03 0.02,0.02 0.02,0.02 0.03,0.01 0.02,0.02 0.03,0.01 0.03,0.04 0.05,0.03 0.02,0.03 0.04,0.04 0.03,0.03 0.05,0.04 0.04,0.02 0.04,0.01 0.04,0.01 0.02,0.03 0.03,0.06 0.05,0.05 0.03,0.02 0.04,0.02 0.03,0.02 h 0.03 l 0.16,-0.05 0.53,0.41 0.32,0.28 -0.75,1.47 -0.56,0.34 -0.8,0.13 -1.31,0.06 -0.64,0.06 -0.69,0.53 -0.42,0.4 -0.21,0.24 -0.09,0.42 -0.03,0.4 -0.14,0.14 -0.83,0.4 -0.78,0.22 -0.46,-0.02 -0.2,0.04 -0.44,-0.08 -0.38,0.12 -0.28,0.16 -0.04,0.01 v -0.01 l -0.01,-0.03 -0.02,-0.03 -0.02,-0.03 -0.02,-0.02 -0.04,-0.03 -0.02,-0.02 -0.06,-0.03 -0.04,-0.01 -0.04,-0.01 -0.06,-0.02 -0.06,-0.02 h -0.05 -0.05 l -0.07,0.02 -0.06,0.02 -0.03,0.01 -0.05,0.03 -0.04,0.01 H 415 l -0.05,0.01 -0.04,0.01 -0.04,0.02 -0.06,0.04 -0.06,0.06 -0.05,0.04 -0.06,0.04 -0.04,0.03 -0.04,0.03 -0.03,0.02 -0.08,0.05 -0.08,0.04 -0.09,0.01 -0.09,0.01 h -0.08 l -0.08,-0.02 -0.06,-0.01 -0.03,-0.01 -0.07,-0.04 -0.05,-0.04 -0.06,-0.05 -0.03,-0.04 -0.04,-0.05 -0.05,-0.05 -0.06,-0.05 -0.04,-0.04 -0.05,-0.03 -0.05,-0.03 -0.06,-0.03 -0.05,-0.03 -0.04,-0.03 -0.03,-0.04 -0.03,-0.03 -0.03,-0.04 -0.05,-0.04 -0.04,-0.02 -0.03,-0.02 -0.04,-0.02 -0.05,-0.02 -0.04,-0.04 -0.01,-0.02 -0.03,-0.06 -0.03,-0.04 -0.03,-0.04 -0.04,-0.05 -0.03,-0.05 -0.02,-0.06 -0.01,-0.03 v -0.03 -0.03 l 0.01,-0.01 v -0.02 l 0.01,-0.02 0.01,-0.03 v -0.02 -0.03 -0.03 l 0.01,-0.03 0.01,-0.03 0.02,-0.03 0.01,-0.03 0.03,-0.02 0.03,-0.02 0.01,-0.01 0.02,-0.01 h 0.04 v -0.01 l 0.02,-0.02 0.01,-0.04 v -0.08 l -0.01,-0.07 -0.01,-0.06 -0.02,-0.07 -0.01,-0.06 -0.01,-0.04 -0.01,-0.04 v -0.03 l -0.01,-0.04 -0.01,-0.03 -0.01,-0.04 -0.03,-0.05 -0.01,-0.02 -0.01,-0.02 -0.02,-0.02 -0.05,-0.03 -0.03,-0.02 -0.02,-0.02 -0.01,-0.03 -0.02,-0.02 -0.02,-0.02 -0.01,-0.02 -0.03,-0.01 -0.03,-0.02 -0.04,-0.01 -0.04,-0.02 h -0.03 l -0.06,-0.02 -0.1,-0.03 -0.03,-0.02 -0.04,-0.01 -0.05,-0.04 -0.03,-0.03 -0.03,-0.03 -0.02,-0.05 -0.01,-0.03 v -0.06 l -0.01,-0.06 -0.01,-0.07 -0.01,-0.06 -0.02,-0.04 -0.01,-0.03 -0.02,-0.05 -0.02,-0.04 -0.02,-0.04 -0.03,-0.03 -0.01,-0.01 -0.02,-0.02 -0.02,-0.01 -0.03,-0.02 -0.02,-0.02 -0.02,-0.03 -0.03,-0.05 -0.03,-0.04 -0.03,-0.04 -0.02,-0.03 -0.03,-0.07 -0.02,-0.06 -0.02,-0.06 -0.02,-0.03 -0.01,-0.03 -0.02,-0.03 -0.03,-0.07 -0.05,-0.08 -0.02,-0.07 -0.03,-0.07 -0.03,-0.06 -0.04,-0.09 -0.05,-0.09 -0.04,-0.06 -0.05,-0.06 -0.04,-0.04 -0.03,-0.04 -0.07,-0.04 -0.06,-0.04 -0.08,-0.06 -0.06,-0.05 -0.05,-0.03 -0.05,-0.04 -0.01,-0.01 -0.05,0.06 -0.03,0.03 -0.03,0.04 -0.02,0.02 -0.03,0.01 -0.03,0.03 -0.03,0.03 -0.02,0.01 -0.02,0.02 -0.02,0.01 h -0.03 l -0.04,0.01 v 0 l -0.02,0.02 -0.03,0.04 -0.04,0.04 -0.02,0.02 -0.04,0.04 -0.03,0.04 -0.03,0.04 -0.03,0.03 -0.01,0.03 -0.01,0.01 -0.02,0.01 -0.05,0.02 -0.04,0.01 h -0.03 l -0.06,0.01 -0.06,0.02 -0.05,0.01 h -0.02 l -0.03,0.02 -0.04,0.01 -0.03,0.02 -0.04,0.01 -0.08,0.04 -0.05,0.03 -0.03,0.02 -0.03,0.02 -0.03,0.02 -0.03,0.02 -0.03,0.03 -0.03,0.03 -0.03,0.02 -0.01,0.03 -0.02,0.03 -0.01,0.03 -0.03,0.05 -0.02,0.06 -0.02,0.04 -0.01,0.02 -0.02,0.02 -0.02,0.02 h -0.02 l -0.02,0.01 h -0.04 l -0.04,0.01 h -0.03 l -0.92,-0.34 -1.83,-1.72 0.01,-0.01 -0.02,-0.01 -0.03,-0.03 -0.03,-0.04 -0.02,-0.02 -0.05,-0.02 h -0.02 -0.03 l -0.02,0.01 -0.04,0.01 -0.07,0.04 -0.12,0.04 -0.09,0.03 -0.13,0.03 -0.16,0.04 -0.12,0.03 h -0.09 l -0.09,-0.01 -0.06,-0.02 -0.06,-0.01 -0.06,-0.02 -0.07,-0.01 -0.01,-0.02 -0.01,-0.02 -0.01,-0.02 -0.01,-0.01 -0.02,-0.01 -0.01,-0.01 -0.02,-0.01 -0.02,-0.01 -0.01,-0.01 -0.01,-0.01 -0.02,-0.01 v -0.01 h -0.01 l -0.02,-0.01 -0.01,-0.01 -0.05,-0.02 h -0.04 l -0.05,-0.01 -0.02,-0.01 h -0.02 l -0.03,-0.01 h -0.01 l -0.02,-0.01 -0.04,-0.01 -0.03,-0.02 -0.03,-0.04 -0.01,-0.02 -0.01,-0.01 v -0.02 l -0.01,-0.02 v -0.03 -0.02 l -0.01,-0.02 -0.01,-0.01 h -0.01 l -0.22,-0.03 h -0.02 v 0 h -0.03 -0.03 -0.01 l -0.01,-0.01 h -0.02 l -0.01,-0.01 h -0.01 l -0.25,-0.05 -0.05,-0.03 -0.02,-0.01 -0.04,-0.02 h -0.01 -0.02 l -0.01,-0.01 -0.01,-0.01 -0.01,-0.02 h -0.01 l -0.02,-0.01 -0.02,-0.01 -0.01,-0.02 -0.01,-0.02 -0.06,-0.04 -0.02,-0.02 0.02,-0.02 0.03,-0.07 0.03,-0.08 0.02,-0.06 0.02,-0.05 0.01,-0.03 0.02,-0.04 0.01,-0.03 0.01,-0.03 0.01,-0.04 0.01,-0.04 0.01,-0.04 0.01,-0.04 v -0.04 l 0.01,-0.04 0.01,-0.06 0.01,-0.04 0.01,-0.03 0.02,-0.03 0.02,-0.03 0.03,-0.01 0.03,-0.01 0.04,-0.01 0.03,-0.01 0.04,-0.01 h 0.03 l 0.04,-0.01 h 0.03 l 0.03,0.01 0.03,0.02 0.01,0.02 0.01,0.02 0.02,0.03 0.01,0.02 0.02,0.02 0.03,0.03 0.03,0.01 h 0.04 l 0.03,-0.01 h 0.04 l 0.03,-0.01 0.04,-0.01 0.04,-0.02 0.03,-0.03 0.01,-0.03 0.02,-0.04 0.01,-0.03 v -0.03 -0.05 l 0.01,-0.05 v -0.04 l -0.01,-0.04 -0.02,-0.03 -0.02,-0.02 -0.03,-0.03 -0.03,-0.03 -0.02,-0.03 -0.03,-0.05 v -0.06 -0.04 -0.07 l 0.01,-0.06 v -0.05 l 0.01,-0.08 -0.15,-0.06 -0.09,-0.04 -0.05,-0.02 h -0.02 -0.01 l -0.03,0.01 -0.04,0.03 -0.04,0.02 -0.04,0.02 -0.03,0.01 h -0.03 -0.02 -0.05 l -0.04,-0.01 -0.04,0.01 -0.02,0.01 -0.03,0.02 -0.04,0.02 -0.04,0.02 -0.05,-0.01 -0.05,-0.01 -0.05,-0.01 -0.07,-0.01 -0.06,-0.01 -0.05,-0.02 -0.1,-0.05 -0.03,0.05 -0.08,-0.01 -0.02,0.1 -0.03,-0.01 0.03,-0.1 0.22,-0.4 -0.03,-0.03 0.07,-0.17 0.01,-0.04 -0.03,-0.01 -0.04,-0.02 -0.03,-0.01 -0.03,-0.02 -0.04,-0.02 -0.04,-0.02 -0.02,-0.01 -0.03,-0.01 -0.04,0.01 h -0.02 l -0.02,0.01 -0.03,0.01 h -0.02 l -0.02,0.01 h -0.03 -0.02 l -0.03,-0.01 -0.03,-0.01 h -0.04 -0.03 -0.03 -0.04 -0.02 l -0.03,-0.01 -0.03,-0.01 -0.04,-0.02 -0.02,-0.02 -0.02,-0.01 -0.02,-0.02 -0.03,-0.03 -0.03,-0.02 -0.02,-0.01 -0.03,-0.02 h -0.02 l -0.02,-0.02 -0.02,-0.01 -0.02,-0.03 -0.02,-0.04 -0.02,-0.04 -0.03,-0.04 -0.02,-0.04 -0.02,-0.05 -0.01,-0.02 -0.04,-0.05 -0.03,-0.06 -0.02,-0.05 -0.02,-0.04 -0.02,-0.05 -0.02,-0.04 -0.02,-0.05 -0.01,-0.03 -0.01,-0.02 -0.02,-0.03 -0.01,-0.02 -0.01,-0.03 -0.02,-0.03 -0.02,-0.03 -0.02,-0.04 -0.02,-0.04 -0.01,-0.04 -0.01,-0.04 -0.02,-0.04 -0.01,-0.03 -0.02,-0.04 -0.01,-0.03 -0.02,-0.03 -0.02,-0.03 -0.03,-0.04 -0.02,-0.04 -0.02,-0.03 -0.03,-0.03 -0.01,-0.02 -0.03,-0.03 -0.02,-0.03 -0.02,-0.02 -0.02,-0.02 -0.02,-0.03 -0.01,-0.02 -0.03,-0.07 -0.03,-0.07 -0.02,-0.06 -0.02,-0.05 -0.02,-0.04 -0.01,-0.03 -0.2,-0.49 -0.36,-0.68 -0.18,-0.38 -0.6,-1.1 0.34,-0.19 0.1,-0.04 0.14,-0.07 0.07,-0.03 0.07,-0.04 0.08,-0.05 0.05,-0.04 0.04,-0.02 0.02,-0.01 0.04,-0.01 0.06,-0.01 0.13,-0.14 0.04,-0.04 0.03,-0.05 0.02,-0.03 v -0.05 l 0.01,-0.1 0.01,-0.49 0.02,-0.29 -0.03,-0.15 0.09,-0.11 0.42,-0.12 0.11,-0.03 0.07,-0.02 0.07,-0.02 0.09,-0.03 0.09,-0.01 0.1,-0.02 0.07,-0.01 0.1,-0.01 0.1,-0.02 0.08,-0.02 h 0.1 l 0.08,-0.01 h 0.08 l 0.08,-0.01 h 0.09 l 0.09,-0.01 0.09,-0.01 0.08,-0.01 0.12,-0.02 0.16,-0.02 -0.03,-0.03 -0.02,-0.03 -0.02,-0.04 -0.02,-0.03 -0.02,-0.04 -0.03,-0.03 -0.03,-0.03 -0.03,-0.03 -0.03,-0.03 -0.03,-0.03 -0.03,-0.03 -0.03,-0.04 -0.04,-0.02 h -0.04 l -0.03,0.02 -0.02,0.01 h -0.04 -0.03 l -0.03,-0.01 -0.05,-0.01 -0.05,-0.02 -0.04,-0.02 -0.04,-0.02 -0.05,-0.01 -0.03,-0.01 -0.03,-0.01 -0.03,-0.01 -0.03,-0.01 -0.03,-0.02 -0.01,-0.01 h -0.09 l -0.09,0.01 h -0.13 l -0.06,-0.01 -0.52,-0.18 -0.24,-0.08 v -0.06 -0.04 l -0.01,-0.07 -0.02,-0.12 -0.11,-0.69 -0.03,0.04 -0.03,0.04 -0.02,0.03 -0.03,0.03 -0.08,0.1 -0.04,0.04 -0.02,0.02 -0.04,0.03 -0.05,0.03 -0.03,0.03 -0.06,0.05 -0.04,0.03 -0.04,0.03 -0.07,0.02 -0.08,0.03 -0.03,0.03 -0.03,0.02 -0.04,0.03 -0.03,0.03 -0.04,0.04 -0.01,0.01 -0.03,0.03 -0.04,0.03 -0.03,0.05 -0.03,0.03 -0.01,0.01 v 0.01 l -0.02,0.01 -0.02,0.02 -0.03,0.01 -0.02,0.01 -0.03,0.01 -0.03,0.01 -0.03,0.01 -0.03,0.01 -0.03,0.01 -0.03,0.01 -0.03,0.01 h -0.03 l -0.05,0.01 -0.05,0.01 h -0.04 -0.06 -0.03 l -0.05,-0.01 h -0.03 l -0.04,-0.02 -0.03,-0.02 -0.03,-0.02 -0.04,-0.03 -0.03,-0.01 -0.03,-0.03 -0.05,-0.04 -0.05,-0.01 -0.04,-0.01 -0.06,-0.01 h -0.06 l -0.06,-0.01 -0.05,-0.01 -0.06,-0.02 -0.03,-0.01 -0.1,-0.02 -0.04,-0.02 -0.04,-0.01 -0.03,-0.02 h -0.02 v -0.02 l -0.03,-0.03 -0.02,-0.03 -0.03,-0.03 -0.03,-0.03 -0.04,-0.03 -0.02,-0.04 -0.02,-0.05 -0.03,-0.04 -0.03,-0.04 0.01,-0.05 v -0.04 -0.06 -0.07 l 0.01,-0.05 v -0.03 -0.13 l 0.01,-0.05 v -0.07 -0.04 l -0.01,-0.05 -0.01,-0.04 -0.01,-0.03 -0.04,-0.08 -0.01,-0.03 v -0.04 l -0.01,-0.03 -0.01,-0.02 -0.01,-0.01 -0.03,-0.03 -0.04,-0.04 -0.03,-0.03 v -0.03 -0.05 -0.07 l 0.01,-0.08 0.01,-0.08 0.01,-0.07 v -0.07 -0.05 -0.07 -0.05 -0.03 -0.04 l -0.01,-0.02 -0.01,-0.03 -0.02,-0.02 -0.02,-0.03 -0.03,-0.03 -0.04,-0.02 -0.04,-0.04 -0.03,-0.02 -0.06,-0.03 -0.04,-0.04 -0.01,-0.02 -0.01,-0.06 -0.01,-0.07 0.01,-0.04 0.01,-0.04 0.02,-0.04 0.02,-0.02 0.03,-0.03 0.03,-0.03 0.02,-0.02 0.04,-0.01 0.06,-0.04 0.05,-0.02 0.06,-0.01 0.05,-0.01 0.03,-0.02 0.02,-0.05 0.02,-0.1 v -0.11 l -0.01,-0.05 0.02,-0.01 v -0.01 l 0.01,-0.01 v -0.02 l 0.01,-0.02 v -0.02 l -0.01,-0.03 -0.01,-0.03 -0.01,-0.03 -0.01,-0.02 -0.02,-0.04 -0.02,-0.03 -0.01,-0.02 -0.02,-0.02 -0.01,-0.01 -0.02,-0.01 -0.01,-0.01 v -0.02 -0.02 -0.01 -0.04 l -0.01,-0.04 v -0.02 l -0.01,-0.03 -0.01,-0.04 -0.01,-0.01 v -0.02 -0.02 l 0.01,-0.02 0.01,-0.02 0.01,-0.01 0.02,-0.03 0.01,-0.03 v -0.03 -0.04 -0.04 l 0.01,-0.03 0.01,-0.01 v -0.02 l 0.02,-0.01 h 0.01 l 0.02,-0.01 h 0.02 l 0.04,-0.01 h 0.01 l 0.02,0.01 0.05,0.01 0.04,0.02 0.03,0.01 0.03,0.02 0.02,0.01 h 0.02 0.01 v -0.01 l 0.01,-0.01 0.02,-0.06 0.01,-0.05 0.01,-0.07 0.01,-0.07 v -0.03 -0.03 l -0.01,-0.02 -0.01,-0.03 v -0.01 l -0.01,-0.01 v -0.04 -0.07 -0.06 -0.01 l 0.01,-0.01 0.01,-0.01 v -0.01 l 0.03,-0.01 0.02,-0.01 0.04,-0.02 0.03,-0.02 0.04,-0.02 0.04,-0.02 0.04,-0.02 0.04,-0.01 0.04,-0.01 0.04,-0.01 h 0.04 l 0.03,-0.01 0.01,-0.01 h 0.02 l 0.02,-0.02 0.02,-0.01 0.03,-0.03 0.03,-0.03 0.04,-0.02 0.04,-0.03 0.02,-0.02 0.03,-0.02 0.03,-0.04 0.02,-0.04 0.02,-0.05 0.03,-0.07 0.01,-0.03 0.01,-0.04 0.01,-0.07 0.01,-0.07 0.01,-0.02 0.01,-0.03 0.01,-0.05 z"
       id="path245" />
  </g>
</svg>
