<?xml version="1.0" encoding="UTF-8" standalone="no"?>
<svg
   version="1.2"
   width="800"
   height="642"
   viewBox="0 0 800 642"
   stroke-linecap="round"
   stroke-linejoin="round"
   id="svg68"
   sodipodi:docname="Antzuola.svg"
   inkscape:version="1.1.2 (b8e25be833, 2022-02-05)"
   xmlns:inkscape="http://www.inkscape.org/namespaces/inkscape"
   xmlns:sodipodi="http://sodipodi.sourceforge.net/DTD/sodipodi-0.dtd"
   xmlns="http://www.w3.org/2000/svg"
   xmlns:svg="http://www.w3.org/2000/svg">
  <defs
     id="defs72" />
  <sodipodi:namedview
     id="namedview70"
     pagecolor="#ffffff"
     bordercolor="#666666"
     borderopacity="1.0"
     inkscape:pageshadow="2"
     inkscape:pageopacity="0.0"
     inkscape:pagecheckerboard="0"
     showgrid="false"
     inkscape:zoom="1.3146417"
     inkscape:cx="399.72867"
     inkscape:cy="321.38033"
     inkscape:window-width="1848"
     inkscape:window-height="1016"
     inkscape:window-x="72"
     inkscape:window-y="1107"
     inkscape:window-maximized="1"
     inkscape:current-layer="svg68" />
  <g
     id="Antzuola"
     transform="matrix(16.350919,0,0,16.350919,-4660.1544,-2642.3826)">
    <path
       d="m 317.32,172.15 v 0.02 l -0.01,0.03 -0.02,0.03 -0.02,0.04 -0.03,0.04 -0.05,0.05 -0.03,0.04 -0.04,0.05 -0.03,0.03 -0.02,0.03 -0.03,0.03 -0.03,0.03 -0.02,0.03 -0.01,0.02 -0.02,0.04 -0.02,0.07 -0.02,0.05 -0.01,0.02 v 0.02 l -0.01,0.03 v 0.01 l 0.01,0.02 0.03,0.03 0.02,0.04 0.03,0.02 0.03,0.01 h 0.02 0.03 0.04 l 0.04,0.01 0.04,0.02 0.06,0.02 0.05,0.02 0.03,0.01 0.04,0.03 0.02,0.01 0.02,0.02 0.02,0.02 0.02,0.03 0.02,0.02 0.01,0.03 v 0.02 0.03 l 0.01,0.06 v 0.04 0.02 0.02 l -0.01,0.06 -0.01,0.05 -0.01,0.08 -0.01,0.06 -0.02,0.05 v 0.03 l -0.01,0.03 v 0.02 l -0.01,0.04 -0.02,0.04 v 0.04 l -0.01,0.02 -0.02,0.04 -0.01,0.03 -0.02,0.03 -0.02,0.03 -0.02,0.03 -0.01,0.02 -0.01,0.02 v 0.02 0.02 l 0.03,0.04 0.02,0.04 0.02,0.03 0.01,0.03 0.02,0.03 0.03,0.04 0.06,0.06 0.05,0.05 0.06,0.03 0.06,0.02 0.05,0.02 0.04,0.01 h 0.03 0.01 0.04 0.01 0.03 l 0.04,-0.01 0.03,-0.02 h 0.03 l 0.04,-0.02 0.04,-0.03 0.02,-0.02 0.01,-0.01 0.04,-0.02 0.05,-0.02 0.04,-0.01 h 0.03 0.02 l 0.02,0.01 0.04,0.01 0.02,0.01 0.03,0.02 0.02,0.03 0.02,0.03 0.02,0.05 0.01,0.04 v 0.04 l 0.01,0.06 v 0.06 l -0.01,0.04 v 0.04 l -0.01,0.04 v 0.02 l 0.02,0.04 0.04,0.04 0.01,0.03 0.01,0.01 0.03,0.04 0.01,0.02 0.03,0.03 0.02,0.06 0.01,0.02 0.03,0.03 0.02,0.02 0.04,0.01 -0.86,0.73 -1.68,0.87 -0.2,0.56 -0.18,0.87 0.09,0.1 0.1,0.1 0.07,0.07 0.05,0.03 0.12,0.08 0.07,0.05 0.07,0.08 0.05,0.06 0.07,0.08 0.13,0.13 0.09,0.07 0.11,0.14 0.08,0.1 0.03,0.05 0.04,0.04 -0.61,0.49 -1.23,3.8 0.1,0.8 v 0.11 l -0.7,2.08 -0.55,1.18 -0.21,0.98 0.24,0.97 -2.02,0.74 -0.03,0.01 -0.13,0.03 -0.25,0.03 -0.19,0.03 -0.06,0.03 -0.25,0.12 -0.07,0.05 -0.06,0.15 -0.02,0.12 -0.05,0.11 -0.12,0.13 -0.09,0.05 -0.03,0.01 -0.13,0.05 h -0.11 l -0.17,0.04 -0.27,0.09 -0.38,0.09 -0.38,0.1 -0.08,-0.01 -0.16,-0.03 -0.22,-0.04 -0.1,-0.01 -0.07,0.04 -0.1,0.08 -0.01,0.01 -0.08,0.11 -0.08,0.2 -0.05,0.16 v 0.1 l -0.05,0.08 -0.12,0.18 -0.16,0.23 -0.1,0.11 -0.05,0.04 -0.03,0.03 -0.07,0.09 -0.15,0.15 -0.17,0.17 -0.02,0.02 -0.02,0.01 -0.02,0.02 -0.02,0.02 -0.01,0.01 h -0.01 l -0.01,0.01 -0.01,0.01 h -0.01 v 0.01 0.01 l -1.2,-0.72 h -0.04 l -0.17,0.01 -0.09,0.03 -0.05,0.02 h -0.05 l -0.04,-0.03 -0.11,-0.03 h -0.14 l -0.17,0.01 h -0.03 -0.03 l -0.02,-0.01 h -0.02 l -0.03,-0.01 -0.03,-0.01 -0.02,-0.01 -0.03,-0.02 -0.12,-0.03 -0.16,-0.05 -0.14,-0.03 -0.06,-0.03 -0.1,-0.03 -0.03,-0.01 -0.05,-0.01 h -0.04 -0.04 l -0.07,0.01 -0.09,0.02 -0.07,0.02 -0.07,0.01 -0.09,0.03 -0.1,0.02 -0.07,0.01 -0.04,0.01 -0.07,0.01 -0.07,0.01 h -0.05 l -0.05,-0.01 -0.05,-0.03 -0.12,-0.06 -0.07,-0.05 -0.05,-0.04 -0.04,-0.04 -0.04,-0.03 -0.06,-0.07 -0.05,-0.05 -0.03,-0.1 -0.02,-0.2 -0.01,-0.11 -0.06,-0.2 -0.06,-0.16 -0.01,-0.01 -0.04,-0.07 -0.05,-0.1 -0.05,-0.08 -0.04,-0.05 -0.05,-0.03 -0.03,-0.1 -0.03,-0.18 -0.03,-0.04 V 191 190.98 l -0.08,-0.03 -0.06,-0.03 -0.05,-0.02 -0.14,-0.03 -0.11,-0.04 -0.24,-0.07 -0.06,-0.04 -0.06,-0.02 h -0.08 l -0.08,-0.01 -0.04,-0.02 -0.02,-0.02 -0.04,-0.08 -0.06,-0.07 -0.04,-0.05 -0.06,-0.08 -0.03,-0.08 -0.04,-0.07 -0.04,-0.08 -0.05,-0.12 -0.05,-0.07 -0.03,-0.09 -0.03,-0.05 -0.02,-0.06 -0.01,-0.06 -0.03,-0.06 -0.03,-0.05 v -0.02 l -0.01,-0.04 -0.04,-0.04 -0.04,-0.05 h -0.03 l -0.09,-0.02 -0.05,-0.03 -0.06,-0.04 -0.11,-0.05 -0.1,-0.01 -0.08,0.03 -0.06,0.04 -0.1,0.03 -0.07,0.04 -0.03,0.01 -0.04,0.02 -0.05,0.02 -0.05,0.02 -0.04,0.02 -0.07,0.04 -0.05,0.03 -0.08,0.03 -0.04,0.04 -0.06,0.02 -0.06,0.04 -0.06,0.03 -0.06,0.01 -0.07,-0.01 -0.06,-0.01 -0.08,-0.01 -0.07,-0.02 -0.14,-0.02 -0.08,-0.01 h -0.11 l -0.07,0.01 -0.06,0.01 -0.07,0.02 -0.08,0.03 -0.08,0.02 -0.66,0.32 -0.09,0.01 -0.05,0.01 -0.12,0.04 0.08,-0.11 0.46,-0.49 0.94,-0.61 -0.22,-1.36 0.06,-0.21 0.25,-0.33 v -0.35 l -0.32,-0.73 0.13,-0.67 -0.3,-0.98 0.42,-0.87 0.2,-0.58 0.03,-0.04 0.03,-0.03 0.03,-0.03 0.02,-0.04 0.03,-0.02 0.03,-0.04 0.03,-0.02 0.03,-0.06 0.03,-0.06 0.03,-0.05 v -0.01 l 0.03,-0.06 0.02,-0.06 0.03,-0.05 0.01,-0.05 0.02,-0.06 0.02,-0.06 0.02,-0.06 0.04,-0.09 0.04,-0.07 0.04,-0.1 0.06,-0.09 0.03,-0.08 0.03,-0.05 0.01,-0.03 0.02,-0.04 -0.01,-0.05 v -0.04 l 0.01,-0.03 0.01,-0.03 0.01,-0.03 v -0.02 l 0.01,-0.04 v -0.03 l 0.01,-0.03 0.01,-0.03 0.01,-0.02 0.02,-0.03 0.01,-0.01 0.01,-0.02 v -0.01 -0.03 l 0.01,-0.03 v -0.01 -0.03 l 0.01,-0.11 v -0.08 l 0.01,-0.05 v -0.05 -0.03 l -0.02,-0.04 -0.01,-0.02 v -0.07 l -0.02,-0.07 -0.03,-0.09 -0.02,-0.07 -0.03,-0.06 -0.02,-0.06 -0.02,-0.03 -0.03,-0.03 -0.02,-0.04 -0.03,-0.06 -0.05,-0.07 -0.01,-0.02 -0.02,-0.03 -0.02,-0.04 v -0.07 l 0.02,-0.04 0.01,-0.01 0.02,-0.06 0.02,-0.07 0.01,-0.03 0.02,-0.04 0.03,-0.09 v -0.02 l 0.01,-0.05 0.01,-0.02 v -0.03 l 0.02,-0.07 0.01,-0.09 v -0.01 -0.02 -0.06 -0.06 -0.04 l 0.01,-0.05 0.01,-0.03 v -0.02 l 0.02,-0.05 0.01,-0.06 0.01,-0.05 v -0.06 -0.06 l 0.01,-0.03 0.01,-0.04 v -0.04 l 0.01,-0.03 v -0.04 l 0.01,-0.06 v -0.05 -0.04 l 0.01,-0.03 v -0.05 l -0.01,-0.07 -0.01,-0.05 -0.01,-0.06 -0.02,-0.04 -0.01,-0.04 -0.01,-0.05 v -0.02 -0.03 l 0.02,-0.06 0.02,-0.05 0.01,-0.03 0.01,-0.04 0.01,-0.06 0.01,-0.04 v -0.04 -0.05 l -0.01,-0.04 -0.01,-0.04 v -0.04 l 0.01,-0.04 -0.01,-0.02 -0.01,-0.03 v -0.03 -0.01 l 0.01,-0.01 0.01,-0.01 v -0.01 l 0.03,-0.04 0.01,-0.02 0.03,0.01 h 0.04 0.03 l 0.02,-0.02 0.03,-0.02 0.04,-0.04 0.03,-0.04 0.05,-0.05 0.04,-0.01 0.06,-0.02 0.06,-0.02 0.04,-0.01 0.06,-0.01 h 0.04 l 0.02,0.01 0.03,0.03 0.02,0.04 v 0.02 l 0.06,-0.03 0.02,-0.01 0.02,-0.02 0.01,-0.02 0.02,-0.03 0.02,-0.05 0.01,-0.03 -0.01,-0.02 -0.01,-0.02 v -0.06 -0.04 l 0.01,-0.03 h 0.03 l -0.72,-1.33 1.4,-1.97 0.32,-0.39 0.45,-0.17 0.62,-0.18 0.78,-1.24 0.47,-1.24 v -0.01 l 0.05,-0.01 0.08,-0.01 0.06,-0.01 0.1,-0.04 0.07,-0.04 0.06,-0.02 0.13,-0.07 0.01,-0.01 0.16,-0.05 0.11,-0.03 0.11,-0.02 0.12,-0.02 0.18,-0.07 0.1,-0.03 0.09,-0.03 0.09,-0.02 0.06,-0.05 0.07,-0.05 0.08,-0.03 0.09,-0.02 0.15,-0.01 0.13,-0.01 0.1,-0.01 h 0.12 0.11 l 0.13,-0.01 h 0.1 l 0.11,-0.02 0.15,-0.03 0.1,-0.04 0.05,-0.05 0.02,-0.05 0.03,-0.03 0.04,-0.04 0.03,-0.05 0.03,-0.04 0.02,-0.04 0.02,-0.04 0.02,-0.02 0.02,-0.02 0.02,0.02 0.89,0.22 0.43,0.08 1.13,0.25 0.01,-0.02 0.02,0.01 0.03,0.02 0.02,0.01 0.03,0.02 0.02,0.01 0.02,0.01 0.04,0.02 0.02,0.01 0.03,0.02 h 0.01 l 0.03,0.02 0.02,0.01 0.02,0.01 0.01,0.01 0.03,0.02 0.02,0.02 0.01,0.01 0.02,0.03 0.01,0.02 0.01,0.03 0.01,0.01 0.02,0.03 0.02,0.03 0.01,0.03 0.02,0.02 0.02,0.03 0.01,0.03 0.01,0.03 0.02,0.01 0.01,0.01 0.02,0.01 0.03,0.03 0.02,0.01 0.01,0.01 0.02,0.02 0.02,0.03 0.03,0.03 0.02,0.01 0.02,0.02 0.03,0.03 0.02,0.01 0.01,0.03 0.01,0.01 0.01,0.01 0.02,0.02 0.02,0.02 0.03,0.03 0.01,0.01 0.02,0.03 0.02,0.01 0.02,0.02 0.04,0.02 0.03,0.01 0.02,0.01 0.03,0.02 0.02,0.01 0.05,0.03 0.03,0.02 h 0.02 0.02 l 0.02,-0.01 0.05,-0.01 h 0.05 0.04 0.05 0.03 0.05 l 0.03,0.01 0.05,0.01 h 0.02 l 0.03,-0.01 h 0.04 l 0.03,-0.01 h 0.05 l 0.03,-0.01 h 0.04 l 0.03,-0.01 h 0.03 0.05 0.03 l 0.04,0.01 0.02,0.01 0.04,0.01 h 0.02 l 0.04,0.02 h 0.01 v 0 l 0.03,0.01 0.02,0.01 0.03,0.01 0.02,0.01 0.04,0.02 0.03,0.01 0.03,0.01 0.03,0.01 0.03,0.01 0.03,0.01 0.03,0.01 0.02,0.01 0.03,0.01 0.02,0.02 h 0.02 l 0.03,0.01 h 0.01 l 0.05,0.01 h 0.02 0.01 0.02 0.03 0.02 0.04 l 0.04,-0.01 0.05,-0.01 0.04,-0.01 h 0.02 l 0.01,-0.01 0.01,-0.01 0.05,-0.05 0.01,-0.01 0.01,-0.02 0.01,-0.02 v -0.02 l 0.01,-0.01 v -0.01 l 0.02,-0.03 0.01,-0.01 0.01,-0.01 0.02,-0.01 0.02,-0.02 0.03,-0.01 0.02,-0.01 0.01,-0.01 0.04,-0.01 0.01,-0.01 0.02,-0.01 0.02,-0.02 0.03,-0.03 0.02,-0.02 0.02,-0.03 0.03,-0.04 0.01,-0.03 0.02,-0.04 0.01,-0.01 0.02,-0.01 0.02,-0.01 0.02,-0.01 h 0.02 l 0.03,-0.01 h 0.05 0.03 l 0.02,-0.01 h 0.04 l 0.07,-0.01 h 0.08 l 0.03,-0.01 h 0.05 l 0.04,-0.02 0.03,-0.01 0.04,-0.01 0.03,-0.02 0.06,-0.02 0.05,-0.01 0.01,-0.01 0.02,-0.01 0.04,-0.01 0.02,-0.01 0.03,-0.01 h 0.02 0.02 0.03 0.02 0.04 0.03 0.02 l 0.03,-0.01 0.06,-0.03 0.04,-0.01 0.03,-0.01 0.04,-0.02 0.03,-0.01 0.02,-0.01 0.02,-0.02 0.03,-0.03 0.02,-0.02 0.02,-0.02 0.03,-0.05 0.02,-0.04 0.03,-0.04 0.03,-0.04 0.04,-0.05 0.03,-0.03 0.04,-0.03 0.03,-0.03 0.03,-0.03 h 0.02 l 0.02,-0.01 h 0.01 0.02 l 0.05,-0.01 H 315 v 0.02 0.03 0.03 0.01 0.03 0.03 l -0.01,0.07 v 0.04 0.03 0.02 l 0.01,0.04 0.03,0.03 0.04,0.04 0.04,0.03 0.04,0.03 0.05,0.03 0.05,0.03 0.04,0.03 0.03,0.03 0.04,0.02 0.03,0.03 0.03,0.02 0.02,0.02 0.02,0.02 0.01,0.02 0.03,0.02 0.04,0.04 0.03,0.03 0.04,0.04 0.03,0.03 0.02,0.02 0.02,0.03 v 0.02 0.04 l -0.01,0.07 v 0.03 0.03 0.03 0.02 0.01 l 0.01,0.02 0.02,0.01 0.01,0.02 0.05,0.02 0.01,0.01 0.05,0.02 0.05,0.02 0.05,0.02 0.05,0.02 0.06,0.03 0.03,0.01 0.05,0.03 0.02,0.01 0.04,0.01 0.04,0.03 0.05,0.02 0.04,0.03 0.06,0.04 0.05,0.04 0.04,0.04 0.05,0.04 0.04,0.05 0.05,0.05 0.03,0.05 0.03,0.03 0.03,0.04 0.03,0.04 0.03,0.04 0.02,0.03 0.02,0.03 0.02,0.02 0.02,0.02 0.03,0.04 0.03,0.06 0.02,0.05 0.02,0.04 0.01,0.02 0.02,0.03 0.04,0.05 0.05,0.05 0.07,0.05 0.04,0.04 0.03,0.03 0.03,0.02 0.02,0.03 0.02,0.02 0.02,0.01 0.02,0.02 0.02,0.01 v 0.03 z"
       id="path65" />
  </g>
</svg>
