<?xml version="1.0" encoding="UTF-8" standalone="no"?>
<svg
   version="1.2"
   width="800"
   height="642"
   viewBox="0 0 800 642"
   stroke-linecap="round"
   stroke-linejoin="round"
   id="svg95"
   sodipodi:docname="Arakaldo.svg"
   inkscape:version="1.1.2 (b8e25be833, 2022-02-05)"
   xmlns:inkscape="http://www.inkscape.org/namespaces/inkscape"
   xmlns:sodipodi="http://sodipodi.sourceforge.net/DTD/sodipodi-0.dtd"
   xmlns="http://www.w3.org/2000/svg"
   xmlns:svg="http://www.w3.org/2000/svg">
  <defs
     id="defs99" />
  <sodipodi:namedview
     id="namedview97"
     pagecolor="#ffffff"
     bordercolor="#666666"
     borderopacity="1.0"
     inkscape:pageshadow="2"
     inkscape:pageopacity="0.0"
     inkscape:pagecheckerboard="0"
     showgrid="false"
     inkscape:zoom="1.3146417"
     inkscape:cx="399.72867"
     inkscape:cy="321.38033"
     inkscape:window-width="1848"
     inkscape:window-height="1016"
     inkscape:window-x="72"
     inkscape:window-y="1107"
     inkscape:window-maximized="1"
     inkscape:current-layer="svg95" />
  <g
     id="Arakaldo"
     transform="matrix(48.384245,0,0,45.159594,-6846.6703,-7035.587)">
    <path
       d="m 146.63,162.78 -0.08,-0.96 -0.11,-1.43 -0.08,-0.01 -0.1,-0.09 -0.03,-0.3 0.05,-0.14 0.03,-0.28 0.05,-0.23 0.07,-0.2 0.06,-0.09 0.23,-0.26 0.19,-0.19 0.09,-0.12 0.06,-0.04 0.13,-0.03 h 0.15 l 0.16,0.02 0.11,0.02 0.24,0.01 0.29,0.01 0.92,0.62 0.57,0.33 h 0.09 l 0.08,-0.08 0.09,-0.16 -0.08,-1.34 0.3,-0.09 0.3,0.03 0.06,0.05 0.06,0.27 0.17,0.32 0.08,0.08 0.07,0.04 0.54,0.8 0.33,0.32 0.26,0.26 0.44,0.51 0.51,0.72 0.24,0.42 0.33,0.69 0.29,0.36 0.03,0.13 0.32,1.54 -0.69,-0.03 -1.62,-0.12 -0.83,-0.14 -0.17,0.01 -0.23,-0.02 -0.41,0.08 -0.89,-0.03 -0.77,-0.17 -1.28,-0.71 -0.06,-0.03 -0.27,-0.13 -0.01,-0.02 -0.01,-0.02 -0.02,-0.01 -0.03,-0.01 -0.04,-0.02 -0.03,-0.01 -0.05,-0.04 -0.04,-0.04 -0.03,-0.01 -0.02,-0.02 z"
       id="path92" />
  </g>
</svg>
