<?xml version="1.0" encoding="UTF-8" standalone="no"?>
<svg
   version="1.2"
   width="800"
   height="642"
   viewBox="0 0 800 642"
   stroke-linecap="round"
   stroke-linejoin="round"
   id="svg23"
   sodipodi:docname="Arano.svg"
   inkscape:version="1.1.2 (b8e25be833, 2022-02-05)"
   xmlns:inkscape="http://www.inkscape.org/namespaces/inkscape"
   xmlns:sodipodi="http://sodipodi.sourceforge.net/DTD/sodipodi-0.dtd"
   xmlns="http://www.w3.org/2000/svg"
   xmlns:svg="http://www.w3.org/2000/svg">
  <defs
     id="defs27" />
  <sodipodi:namedview
     id="namedview25"
     pagecolor="#ffffff"
     bordercolor="#666666"
     borderopacity="1.0"
     inkscape:pageshadow="2"
     inkscape:pageopacity="0.0"
     inkscape:pagecheckerboard="0"
     showgrid="false"
     inkscape:zoom="1.3146417"
     inkscape:cx="399.72867"
     inkscape:cy="216.40877"
     inkscape:window-width="1848"
     inkscape:window-height="1016"
     inkscape:window-x="72"
     inkscape:window-y="1107"
     inkscape:window-maximized="1"
     inkscape:current-layer="svg23" />
  <g
     id="Arano"
     transform="matrix(10.816042,0,0,10.816042,-4346.8866,-1308.0597)">
    <path
       d="m 440.2,130.7 -0.06,0.01 -0.05,0.01 -0.04,0.01 -0.03,0.01 -0.01,0.01 -0.02,0.01 -0.01,0.01 -0.01,0.01 -0.02,0.02 -0.02,0.05 -0.02,0.04 -0.01,0.03 v 0.01 0.03 l -0.01,0.05 v 0.05 0.04 l 0.01,0.04 0.02,0.07 0.01,0.04 v 0.01 l 0.02,0.06 0.02,0.05 0.03,0.05 0.03,0.04 0.04,0.03 0.05,0.04 0.06,0.03 0.06,0.04 0.07,0.03 0.1,0.04 0.08,0.03 0.12,0.04 0.1,0.03 h 0.01 0.01 l 0.07,0.01 0.06,0.02 h 0.02 l 0.06,0.01 h 0.02 l 0.09,0.01 0.08,0.01 h 0.01 l 0.06,-0.01 h 0.03 0.03 0.02 l 0.04,-0.01 h 0.06 0.02 0.01 0.02 0.04 l 0.06,0.01 0.05,0.01 0.06,0.01 0.04,0.02 0.06,0.02 0.04,0.03 0.04,0.03 0.03,0.03 0.03,0.03 0.01,0.01 0.03,0.04 0.04,0.05 0.01,0.02 0.04,0.05 v 0 l 0.04,0.06 0.02,0.04 0.01,0.01 0.01,0.03 0.01,0.03 0.01,0.02 0.01,0.04 0.01,0.02 0.02,0.04 v 0.04 0.04 l -0.01,0.05 -0.02,0.06 -0.02,0.04 -0.04,0.03 -0.03,0.02 -0.04,0.02 -0.03,0.01 -0.05,0.01 -0.04,0.01 h -0.05 -0.05 -0.04 -0.06 -0.06 -0.05 -0.04 l -0.07,-0.02 h -0.03 -0.03 -0.03 l -0.06,0.01 h -0.01 l -0.04,0.01 -0.07,0.01 h -0.03 l -0.1,0.03 -0.1,0.02 -0.07,0.02 -0.04,0.02 -0.04,0.04 -0.03,0.05 -0.02,0.04 -0.03,0.06 v 0.02 0.02 0.02 l 0.02,0.03 v 0.01 l 0.02,0.02 0.04,0.03 0.05,0.03 0.08,0.04 0.01,0.01 0.14,0.07 0.14,0.07 0.02,0.01 0.13,0.06 h 0.01 l 0.08,0.04 0.04,0.03 0.04,0.04 0.05,0.04 0.02,0.02 0.02,0.02 0.02,0.03 0.02,0.02 0.04,0.07 0.01,0.01 0.03,0.05 0.03,0.06 v 0.01 l 0.03,0.04 v 0.02 l 0.02,0.04 0.01,0.02 0.01,0.03 0.01,0.02 v 0.06 l 0.01,0.05 0.01,0.05 v 0.02 0.06 0.04 0.04 0.06 l 0.01,0.05 -0.01,0.04 v 0.04 l -0.03,0.07 -0.01,0.03 v 0.03 l -0.01,0.01 v 0.02 0.05 l 0.02,0.05 0.01,0.01 0.01,0.03 0.01,0.02 0.02,0.03 0.05,0.06 0.03,0.04 0.04,0.03 0.05,0.03 0.07,0.05 0.06,0.05 0.06,0.02 0.06,0.02 0.05,0.01 h 0.04 0.03 l 0.02,-0.01 h 0.01 l 0.05,-0.01 0.07,-0.03 0.06,-0.02 0.06,-0.02 0.04,-0.01 0.05,-0.01 0.04,0.01 0.05,0.01 0.06,0.03 0.03,0.01 0.03,0.01 0.06,0.02 0.05,0.02 0.05,0.01 0.01,0.01 0.05,0.02 0.04,0.01 0.04,0.02 0.03,0.01 0.07,0.03 h 0.01 l 0.04,0.02 0.06,0.02 0.03,0.01 0.04,0.02 h 0.01 l 0.03,0.01 0.04,0.02 0.04,0.01 0.06,0.03 0.09,0.04 h 0.01 l 0.05,0.03 0.07,0.03 0.06,0.03 0.05,0.02 0.01,0.01 0.05,0.02 0.03,0.02 0.07,0.02 0.03,0.02 0.07,0.02 0.09,0.04 h 0.03 l 0.04,0.01 0.06,-0.01 0.03,-0.01 0.03,-0.02 0.06,-0.03 0.06,-0.04 0.07,-0.05 0.07,-0.04 0.08,-0.04 0.06,-0.03 h 0.01 l 0.07,-0.02 0.01,-0.01 0.06,-0.01 h 0.03 l 0.03,0.01 0.06,0.01 0.03,0.03 0.01,0.01 0.01,0.03 v 0.02 0.04 l -0.01,0.05 v 0.04 0.02 l -0.03,0.12 v 0.06 0.05 l 0.02,0.07 0.01,0.05 0.01,0.05 0.01,0.04 0.02,0.06 0.01,0.01 0.01,0.02 0.02,0.03 0.02,0.04 0.02,0.04 0.01,0.01 0.05,0.07 0.03,0.04 0.05,0.06 0.04,0.05 0.05,0.04 0.04,0.03 0.04,0.01 h 0.04 l 0.05,-0.04 0.01,-0.01 0.04,-0.03 0.06,-0.07 0.05,-0.05 0.02,-0.06 0.01,-0.08 -0.01,-0.12 0.01,-0.06 v -0.06 l 0.02,-0.07 0.01,-0.03 v -0.03 l 0.02,-0.06 0.01,-0.01 0.01,-0.06 0.02,-0.03 0.01,-0.02 0.02,-0.05 0.01,-0.01 v -0.01 l 0.02,-0.04 0.03,-0.03 0.01,-0.02 0.03,-0.05 0.01,-0.03 0.01,-0.03 0.01,-0.01 0.02,-0.06 0.01,-0.06 0.01,-0.03 0.01,-0.03 0.01,-0.02 0.01,-0.05 0.02,-0.04 0.04,-0.09 v -0.05 -0.13 L 446.43,135 v -0.03 -0.05 l -0.01,-0.02 -0.02,-0.11 -0.02,-0.04 -0.01,-0.04 -0.03,-0.06 -0.03,-0.03 -0.04,-0.05 -0.04,-0.04 -0.04,-0.06 -0.02,-0.02 -0.02,-0.03 -0.04,-0.06 -0.03,-0.05 -0.02,-0.04 -0.02,-0.05 0.01,-0.09 0.02,-0.1 0.01,-0.02 0.01,-0.02 0.01,-0.02 0.05,-0.05 0.04,-0.03 0.06,-0.03 0.08,-0.01 0.07,-0.01 h 0.06 l 0.02,0.01 h 0.01 0.02 0.05 0.01 l 0.06,0.02 0.07,0.03 0.04,0.02 0.02,0.01 0.02,0.02 0.05,0.02 0.06,0.06 0.01,0.01 0.05,0.04 0.02,0.03 0.04,0.03 0.01,0.01 0.06,0.07 v 0 l 0.06,0.06 0.07,0.08 0.01,0.02 0.07,0.06 0.03,0.06 0.03,0.04 0.02,0.04 0.04,0.06 0.03,0.04 0.03,0.05 0.04,0.05 0.02,0.03 0.03,0.04 0.03,0.04 0.01,0.02 0.01,0.01 0.07,0.1 0.05,0.08 0.02,0.02 0.02,0.09 0.02,0.12 0.01,0.11 v 0.01 0.03 l -0.01,0.01 v 0.03 0.01 l -0.01,0.04 v 0.06 l -0.02,0.08 -0.01,0.04 -0.02,0.13 -0.01,0.03 -0.01,0.05 -0.01,0.08 v 0.07 0.05 l 0.01,0.04 v 0.02 l 0.03,0.07 0.03,0.03 0.04,0.04 0.03,0.06 0.05,0.08 0.04,0.07 0.05,0.07 0.04,0.08 0.02,0.05 0.02,0.04 0.03,0.03 0.03,0.03 0.06,0.01 h 0.05 l 0.06,-0.02 0.05,-0.04 0.04,-0.04 0.03,-0.05 0.03,-0.06 0.02,-0.11 0.01,-0.07 0.01,-0.01 -0.01,-0.06 -0.01,-0.02 -0.02,-0.06 -0.02,-0.04 -0.06,-0.1 -0.02,-0.05 -0.01,-0.01 -0.06,-0.11 -0.02,-0.04 -0.04,-0.07 -0.02,-0.04 -0.04,-0.08 -0.03,-0.09 v -0.04 l 0.01,-0.06 v -0.05 l 0.01,-0.12 v -0.01 l 0.01,-0.05 0.01,-0.06 v -0.07 -0.05 -0.02 l 0.01,-0.06 v -0.04 l 0.01,-0.05 0.03,-0.06 0.03,-0.05 0.06,-0.07 v 0 l 0.02,-0.02 0.04,-0.03 0.03,-0.02 0.03,-0.02 0.01,-0.01 0.05,-0.01 h 0.02 0.02 0.03 l 0.04,0.01 h 0.03 l 0.07,0.02 0.05,0.03 0.02,0.01 0.02,0.02 0.01,0.01 0.05,0.04 0.04,0.04 0.01,0.02 v 0.09 l -0.01,0.06 -0.01,0.05 -0.03,0.09 -0.04,0.08 -0.03,0.07 -0.01,0.05 -0.01,0.05 v 0.07 l 0.01,0.06 0.02,0.04 0.05,0.05 0.1,0.08 0.12,0.06 0.11,0.05 0.14,0.05 0.18,0.05 0.2,0.08 0.17,0.05 0.12,0.01 0.12,-0.01 0.06,-0.02 0.1,-0.06 0.1,-0.07 0.05,-0.03 0.07,-0.02 0.09,-0.02 0.1,-0.04 0.08,-0.01 0.09,-0.01 0.05,-0.02 0.05,-0.02 0.06,-0.06 0.08,-0.11 0.05,-0.06 0.07,-0.05 0.07,-0.07 0.08,-0.05 0.05,-0.02 0.05,-0.01 h 0.07 l 0.05,0.01 0.05,0.03 0.06,0.05 0.05,0.1 0.06,0.1 0.06,0.1 0.05,0.09 0.05,0.11 0.05,0.12 0.04,0.08 0.03,0.07 0.03,0.05 0.05,0.07 0.05,0.07 0.05,0.04 0.08,0.04 0.07,0.04 0.08,0.02 0.1,0.02 h 0.07 l 0.05,-0.01 0.04,-0.02 0.05,-0.05 0.03,-0.04 0.01,-0.06 v -0.1 l 0.03,-0.04 0.03,-0.04 0.09,-0.06 0.1,-0.07 0.05,-0.03 0.05,-0.03 h 0.03 l 0.06,0.07 0.1,0.08 0.05,0.03 0.03,0.02 0.06,0.01 0.05,0.01 0.05,-0.01 0.04,-0.01 0.05,-0.02 0.06,-0.04 0.06,-0.03 0.05,-0.04 0.04,-0.08 0.02,-0.07 0.01,-0.09 0.03,-0.08 0.04,-0.06 0.09,-0.06 0.12,-0.06 0.1,-0.06 0.1,-0.06 0.11,-0.05 0.09,-0.04 0.08,-0.03 0.08,-0.02 0.08,-0.02 0.06,-0.02 h 0.03 l 0.05,0.02 0.11,0.1 0.07,0.07 0.04,0.06 0.01,0.08 v 0.06 l -0.01,0.06 -0.03,0.06 -0.07,0.06 -0.07,0.04 -0.1,0.04 -0.1,0.04 -0.1,0.03 -0.09,0.04 -0.06,0.03 -0.02,0.03 -0.03,0.04 -0.02,0.04 -0.02,0.05 v 0.04 l 0.01,0.05 v 0.05 l 0.03,0.07 0.04,0.06 0.05,0.07 0.06,0.09 0.12,0.14 0.07,0.07 0.07,0.07 0.12,0.08 0.13,0.07 0.06,0.04 0.04,0.04 0.01,0.04 v 0.04 l -0.02,0.08 -0.03,0.06 -0.03,0.08 -0.06,0.11 -0.07,0.1 -0.05,0.06 -0.03,0.03 -0.02,0.01 -0.04,0.01 -0.08,-0.02 -0.1,-0.03 -0.07,-0.01 h -0.05 -0.05 l -0.04,0.02 -0.04,0.03 -0.05,0.03 -0.03,0.05 -0.07,0.08 -0.03,0.05 -0.03,0.06 -0.01,0.06 0.01,0.07 0.02,0.08 0.04,0.07 0.01,0.05 0.01,0.04 -0.02,0.06 -0.04,0.08 -0.06,0.08 -0.06,0.09 -0.04,0.05 -0.03,0.06 v 0.04 l 0.03,0.06 0.04,0.05 0.07,0.03 h 0.09 0.05 v 0.02 0.01 l -0.02,0.05 -0.01,0.09 -0.03,0.1 -0.04,0.09 -0.04,0.04 -0.03,0.01 -0.02,-0.01 -0.03,-0.01 -0.04,-0.04 -0.05,-0.01 h -0.09 l -0.1,-0.01 h -0.08 -0.07 l -0.06,0.01 -0.04,0.02 -0.06,0.04 -0.06,0.04 -0.03,0.02 h -0.05 l -0.07,0.01 -0.05,0.01 -0.09,0.06 -0.04,0.01 -0.05,-0.01 -0.11,-0.03 -0.07,-0.01 h -0.05 l -0.04,0.02 -0.08,0.05 -0.07,0.04 -0.05,0.02 -0.05,0.01 -0.09,-0.01 -0.09,-0.01 -0.09,-0.03 -0.12,-0.06 h -0.02 l -0.03,-0.02 -0.04,0.01 -0.05,0.02 -0.05,0.05 -0.05,0.03 -0.07,0.03 -0.07,0.02 h -0.02 -0.04 -0.05 l -0.04,-0.01 -0.05,-0.02 -0.02,-0.01 -0.06,-0.04 -0.07,-0.05 -0.04,-0.02 h -0.03 l -0.05,0.01 -0.04,0.01 h -0.06 l -0.07,-0.01 -0.14,-0.04 -0.08,-0.02 h -0.04 -0.02 l -0.06,0.01 h -0.09 l -0.07,0.01 h -0.08 l -0.06,-0.02 -0.04,-0.03 -0.06,-0.03 h -0.03 l -0.03,0.01 -0.04,0.03 0.01,0.03 -0.01,0.04 -0.04,0.08 -0.02,0.07 -0.04,0.04 -0.02,0.04 -0.01,0.01 -0.01,0.02 -0.08,0.21 -0.09,0.23 -0.05,0.11 -0.04,0.06 -0.04,0.03 -0.02,0.01 -0.06,0.02 -0.05,0.03 -0.02,0.03 -0.01,0.02 v 0.02 l -0.01,0.04 v 0.06 l -0.02,0.05 -0.01,0.02 -0.03,0.01 -0.1,0.05 -0.02,0.01 -0.13,0.07 -0.05,0.03 -0.05,0.03 -0.03,0.02 -0.06,0.02 -0.06,0.01 -0.05,0.02 -0.04,0.03 -0.02,0.06 -0.03,0.08 -0.02,0.04 -0.03,0.04 h -0.01 l -0.07,0.06 -0.07,0.06 -0.05,0.06 -0.04,0.1 -0.03,0.07 -0.01,0.02 -0.03,0.03 -0.05,0.04 -0.06,0.03 -0.07,0.01 -0.06,0.02 -0.06,0.04 -0.05,0.05 -0.01,0.03 -0.05,0.05 -0.02,0.05 0.01,0.04 0.01,0.04 v 0.03 l -0.05,0.12 -0.04,0.06 -0.06,0.06 -0.04,0.08 -0.05,0.08 -0.08,0.1 -0.04,0.07 -0.03,0.06 v 0.01 l -0.01,0.09 -0.06,0.07 -0.05,0.05 -0.03,0.02 h -0.01 v 0.01 l -0.02,0.01 -0.06,0.01 -0.06,0.01 -0.05,0.04 -0.06,0.05 -0.08,0.09 -0.09,0.09 -0.01,0.01 -0.12,0.11 -0.07,0.08 -0.06,0.08 -0.06,0.1 -0.04,0.04 -0.08,0.08 -0.08,0.12 -0.12,0.12 -0.07,0.04 -0.05,0.03 -0.03,0.06 -0.05,0.08 -0.11,0.12 -0.06,0.03 -0.04,0.03 -0.02,0.02 -0.02,0.03 -0.03,0.07 -0.02,0.06 -0.01,0.04 -0.03,0.03 -0.02,0.01 -0.04,0.01 -0.05,0.01 -0.04,0.01 -0.02,0.02 v 0.01 l -0.02,0.02 -0.01,0.06 0.01,0.04 0.03,0.03 0.04,0.03 0.05,0.01 0.04,0.02 0.04,0.02 0.02,0.03 0.02,0.03 0.02,0.04 0.03,0.05 0.02,0.06 0.02,0.06 v 0.06 0.07 l -0.01,0.07 -0.03,0.09 -0.01,0.05 -0.03,0.06 -0.03,0.06 -0.01,0.02 -0.02,0.05 -0.03,0.08 -0.01,0.02 -0.01,0.03 -0.02,0.05 -0.01,0.04 -0.01,0.04 v 0.06 l 0.02,0.06 0.03,0.04 0.05,0.05 -0.01,0.03 v 0.01 l -0.02,0.05 -0.02,0.04 -0.03,0.05 v 0 l -0.03,0.03 -0.05,0.05 -0.05,0.03 -0.07,0.06 -0.01,0.01 -0.08,0.06 -0.07,0.05 -0.05,0.05 -0.1,0.05 -0.08,0.04 -0.05,0.03 -0.07,0.01 -0.07,-0.01 h -0.01 l -0.05,-0.01 -0.02,0.02 -0.07,0.09 -0.03,0.03 -0.03,0.04 -0.04,0.05 -0.1,0.12 -0.12,0.14 -0.01,0.01 -0.04,0.05 -0.08,0.09 -0.11,0.12 -0.09,0.11 -0.05,0.07 h -0.04 l -0.08,-0.01 -0.33,-0.03 -0.62,-0.06 -2.29,2.94 -0.45,0.11 h -0.02 -0.02 l -1.23,0.31 h -0.01 l -0.08,0.02 -0.09,0.06 -0.05,0.03 -0.06,0.04 -0.06,0.03 -0.03,0.02 -0.04,0.03 -0.04,0.05 -0.04,0.04 -0.04,0.03 -0.06,0.03 -0.05,0.01 -0.04,0.03 -0.06,0.02 -0.06,0.03 -0.05,0.04 -0.05,0.02 -0.03,0.02 -0.05,-0.06 -0.08,-0.08 v -0.01 l -0.07,-0.07 -0.07,-0.07 -0.03,-0.04 -0.04,-0.04 -0.09,-0.1 -0.09,-0.11 -0.03,-0.03 -0.06,-0.07 -0.07,-0.08 -0.02,-0.02 -0.06,-0.06 -0.05,-0.06 -0.07,-0.08 -0.06,-0.08 -0.11,-0.11 -0.02,-0.02 -0.01,-0.01 -0.03,-0.02 -0.01,-0.01 -0.01,-0.01 -0.01,-0.01 -0.01,-0.02 0.01,-0.09 v -0.05 l 0.01,-0.03 0.02,-0.09 0.02,-0.06 0.03,-0.15 -0.04,-0.17 -0.01,-0.06 v -0.03 l -0.01,-0.02 -0.05,-0.3 -0.02,-0.08 -0.01,-0.01 -0.15,-0.18 -0.16,-0.2 -0.08,-0.1 -0.04,-0.26 v -0.01 0 l -0.01,-0.06 -0.02,-0.14 -0.01,-0.1 -0.03,-0.1 -0.02,-0.09 -0.02,-0.15 -0.01,-0.16 0.05,-0.21 0.05,-0.21 0.02,-0.12 0.02,-0.09 0.02,-0.06 0.08,-0.38 0.03,-0.18 v -0.01 -0.06 -0.03 l -0.01,-0.04 v -0.06 l -0.04,-0.32 -0.03,-0.23 -0.01,-0.23 -0.01,-0.22 -0.01,-0.12 0.01,-0.08 0.03,-0.14 0.03,-0.15 0.01,-0.04 0.03,-0.03 0.05,-0.05 0.04,-0.04 0.01,-0.01 0.04,-0.04 0.13,-0.13 0.07,-0.11 0.07,-0.1 0.02,-0.03 0.06,-0.08 0.01,-0.01 0.08,-0.12 0.05,-0.11 0.03,-0.09 0.01,-0.05 0.01,-0.04 0.01,-0.04 h 0.36 l 0.14,-0.21 0.02,-0.03 0.02,-0.04 0.03,-0.03 0.01,-0.02 0.03,-0.05 0.02,-0.04 0.01,-0.01 0.02,-0.03 0.08,-0.13 0.08,-0.1 0.01,-0.02 0.03,-0.03 0.03,-0.05 0.07,-0.1 0.03,-0.04 0.06,-0.08 0.04,-0.08 0.02,-0.03 0.03,-0.07 0.02,-0.05 0.01,-0.02 0.01,-0.01 v 0 l 0.03,-0.06 0.04,-0.07 0.01,-0.05 0.02,-0.11 v -0.02 l 0.01,-0.05 0.01,-0.04 v -0.03 l 0.01,-0.02 0.04,-0.09 0.04,-0.09 0.01,-0.04 v -0.04 l -0.01,-0.07 v -0.11 l -0.01,-0.02 v -0.01 -0.03 -0.04 -0.09 l 0.01,-0.09 v -0.01 l 0.01,-0.09 v -0.01 l 0.01,-0.06 0.03,-0.07 0.05,-0.14 0.02,-0.04 0.01,-0.01 0.04,-0.11 v -0.02 l 0.05,-0.12 0.01,-0.01 0.03,-0.09 0.01,-0.01 0.04,-0.11 0.03,-0.07 0.02,-0.05 0.03,-0.07 0.03,-0.09 0.02,-0.05 v -0.01 l 0.03,-0.05 0.04,-0.12 0.01,-0.01 0.04,-0.12 0.03,-0.06 0.02,-0.05 0.01,-0.03 0.04,-0.09 0.05,-0.12 0.01,-0.03 0.04,-0.11 0.04,-0.09 0.02,-0.05 0.03,-0.08 0.05,-0.12 0.02,-0.06 0.01,-0.03 0.06,-0.14 0.01,-0.05 v -0.04 l -0.02,-0.1 -0.01,-0.12 -0.02,-0.14 v 0 l -0.01,-0.06 -0.01,-0.1 v -0.02 -0.01 l -0.01,-0.07 -0.01,-0.02 -0.01,-0.08 v -0.04 l -0.01,-0.04 -0.01,-0.09 -0.01,-0.07 -0.01,-0.01 -0.01,-0.06 -0.01,-0.05 -0.01,-0.05 -0.01,-0.04 -0.03,-0.11 v -0.01 l -0.01,-0.06 -0.02,-0.06 -0.01,-0.03 V 137 l -0.01,-0.02 -0.01,-0.05 -0.02,-0.06 v -0.02 l -0.01,-0.04 -0.01,-0.02 -0.02,-0.08 -0.04,-0.15 -0.04,-0.17 -0.01,-0.04 -0.01,-0.02 -0.02,-0.06 v -0.01 l -0.02,-0.06 -0.05,-0.07 -0.04,-0.04 -0.01,-0.02 -0.03,-0.04 V 136 l -0.01,-0.03 -0.01,-0.03 v -0.01 l -0.01,-0.01 -0.02,-0.08 v -0.01 l -0.02,-0.09 -0.02,-0.07 -0.01,-0.04 -0.01,-0.02 -0.02,-0.1 0.01,-0.08 v -0.07 l 0.01,-0.06 v -0.06 -0.02 -0.02 l 0.01,-0.02 v -0.07 l 0.01,-0.06 0.02,-0.08 0.02,-0.12 0.03,-0.11 0.02,-0.1 0.01,-0.02 0.02,-0.11 v -0.01 l 0.02,-0.08 0.03,-0.12 0.02,-0.17 v -0.01 l 0.01,-0.09 v -0.08 -0.03 l 0.01,-0.09 v -0.04 l 0.02,-0.15 -0.04,-0.12 v -0.03 l -0.01,-0.03 -0.01,-0.08 v -0.02 -0.02 l -0.01,-0.01 -0.02,-0.12 v -0.02 l -0.02,-0.07 -0.02,-0.07 -0.01,-0.01 -0.04,-0.08 -0.04,-0.1 -0.03,-0.06 -0.03,-0.09 -0.01,-0.05 -0.03,-0.06 v -0.03 l -0.01,-0.09 v -0.01 l -0.03,-0.16 v -0.02 l -0.01,-0.07 h -0.01 v -0.02 -0.02 -0.02 l -0.01,-0.02 v -0.04 l -0.01,-0.05 -0.02,-0.07 -0.01,-0.05 -0.01,-0.06 -0.01,-0.07 v -0.01 l -0.01,-0.05 v -0.03 -0.06 l -0.01,-0.11 v -0.03 l 0.05,-0.01 0.05,-0.01 0.03,-0.02 0.02,-0.03 0.02,-0.02 0.01,-0.04 0.01,-0.03 v -0.03 l -0.01,-0.04 -0.01,-0.03 -0.01,-0.02 -0.02,-0.02 -0.03,-0.03 -0.03,-0.02 -0.04,-0.02 -0.06,-0.02 -0.08,-0.03 -0.07,-0.03 -0.08,-0.03 -0.07,-0.03 -0.07,-0.02 -0.07,-0.03 -0.05,-0.02 -0.04,-0.03 -0.02,-0.01 -0.01,-0.02 -0.02,-0.01 -0.01,-0.01 -0.04,-0.04 -0.01,-0.03 -0.01,-0.02 v -0.04 l 0.01,-0.03 v 0 l 0.01,-0.04 0.01,-0.01 0.01,-0.02 0.01,-0.03 0.03,-0.03 0.01,-0.01 0.03,-0.02 0.02,-0.01 0.03,-0.01 h 0.01 l 0.04,-0.01 0.03,-0.01 0.02,-0.01 0.01,-0.01 0.02,-0.02 0.02,-0.03 0.01,-0.03 0.01,-0.1 0.01,-0.04 v -0.04 l 0.01,-0.07 0.01,-0.04 0.01,-0.03 v -0.03 l 0.02,-0.03 0.01,-0.03 0.01,-0.03 0.01,-0.01 0.02,-0.03 0.02,-0.03 0.03,-0.03 0.04,-0.03 0.04,-0.02 0.05,-0.03 0.01,-0.01 0.05,-0.03 0.06,-0.02 0.03,-0.02 0.01,-0.01 0.03,-0.01 h 0.02 l 0.02,-0.02 h 0.02 l 0.03,-0.03 0.04,-0.04 0.01,-0.01 0.02,-0.03 0.03,-0.05 0.01,-0.03 0.03,-0.05 0.03,-0.07 0.04,-0.08 0.03,-0.05 0.01,-0.02 0.05,-0.06 0.02,-0.04 0.04,-0.03 0.05,-0.04 0.04,-0.02 0.05,-0.01 0.04,-0.01 h 0.04 l 0.04,0.01 h 0.02 l 0.02,0.01 0.02,0.01 0.03,0.03 0.05,0.04 0.04,0.03 0.03,0.03 0.03,0.05 0.04,0.06 0.02,0.06 0.04,0.06 0.04,0.08 0.02,0.04 0.01,0.02 0.01,0.03 0.02,0.05 0.03,0.07 0.01,0.02 v 0.01 l 0.02,0.04 0.03,0.07 0.02,0.07 0.02,0.05 v 0.03 l 0.01,0.01 0.01,0.06 0.01,0.07 0.01,0.07 0.02,0.08 v 0.07 l -0.01,0.04 -0.01,0.06 -0.02,0.06 -0.03,0.05 -0.03,0.03 -0.04,0.03 -0.04,0.03 -0.04,0.03 -0.04,0.02 -0.05,0.02 -0.05,0.01 -0.05,0.01 z"
       id="path20" />
  </g>
</svg>
