<?xml version="1.0" encoding="UTF-8" standalone="no"?>
<svg
   version="1.2"
   width="800"
   height="642"
   viewBox="0 0 800 642"
   stroke-linecap="round"
   stroke-linejoin="round"
   id="svg41"
   sodipodi:docname="Arantzazu.svg"
   inkscape:version="1.1.2 (b8e25be833, 2022-02-05)"
   xmlns:inkscape="http://www.inkscape.org/namespaces/inkscape"
   xmlns:sodipodi="http://sodipodi.sourceforge.net/DTD/sodipodi-0.dtd"
   xmlns="http://www.w3.org/2000/svg"
   xmlns:svg="http://www.w3.org/2000/svg">
  <defs
     id="defs45" />
  <sodipodi:namedview
     id="namedview43"
     pagecolor="#ffffff"
     bordercolor="#666666"
     borderopacity="1.0"
     inkscape:pageshadow="2"
     inkscape:pageopacity="0.0"
     inkscape:pagecheckerboard="0"
     showgrid="false"
     inkscape:zoom="1.3146417"
     inkscape:cx="399.72867"
     inkscape:cy="321.38033"
     inkscape:window-width="1848"
     inkscape:window-height="1016"
     inkscape:window-x="72"
     inkscape:window-y="1107"
     inkscape:window-maximized="1"
     inkscape:current-layer="svg41" />
  <g
     id="Arantzazu"
     transform="matrix(33.823039,0,0,33.823039,-6133.4472,-5233.4595)">
    <path
       d="m 192.54,159.46 0.02,0.08 0.08,0.21 0.05,0.79 0.02,0.3 0.14,0.21 -0.02,0.45 -0.01,0.16 -0.13,0.63 -0.05,0.2 v 0.15 0.04 l -0.01,0.02 v 0.04 0.07 l 0.01,0.1 v 0.12 l -0.01,0.11 -0.02,0.16 -0.02,0.12 -0.02,0.1 -0.04,0.09 v 0.12 l 0.01,0.12 0.03,0.19 -0.01,0.21 -0.01,0.12 0.01,0.18 -0.01,0.18 0.04,0.17 0.03,0.18 0.02,0.13 0.04,0.14 0.11,0.2 0.03,0.08 0.04,0.1 0.05,0.11 0.05,0.1 0.07,0.12 0.05,0.1 0.07,0.08 0.07,0.08 0.04,0.06 -0.23,0.24 -0.11,0.11 -0.02,0.02 -0.1,0.04 -0.08,0.04 -0.08,0.05 -0.07,0.07 -0.06,0.07 -0.06,0.09 -0.07,-0.12 -0.06,-0.12 -0.04,-0.09 -0.06,-0.15 -0.03,-0.11 -0.04,-0.15 -0.03,-0.14 v -0.08 -0.03 l -0.03,-0.03 -0.12,-0.03 -0.04,-0.01 h -0.04 l -0.01,-0.03 -0.02,-0.05 -0.04,-0.07 -0.06,-0.06 -0.08,-0.19 -0.04,-0.1 -0.03,-0.1 -0.02,-0.08 v -0.08 l 0.01,-0.08 0.02,-0.08 0.03,-0.1 0.02,-0.11 0.02,-0.11 0.01,-0.11 -0.03,-0.13 v -0.08 l 0.01,-0.1 -0.01,-0.09 -0.02,-0.1 -0.01,-0.14 -0.01,-0.16 -0.03,-0.1 -0.04,-0.23 -0.05,-0.08 -0.05,-0.1 -0.04,-0.1 -0.06,-0.12 -0.05,-0.11 -0.02,-0.1 v -0.1 -0.1 l -0.01,-0.05 -0.02,-0.02 -0.05,-0.14 -0.52,-0.13 h -0.05 l -0.57,-0.08 -0.32,-0.04 0.13,0.39 0.06,0.18 -0.03,0.07 -0.03,0.07 -0.04,0.07 -0.07,0.06 -0.1,0.06 -0.06,0.04 -0.03,0.04 -0.03,0.05 -0.04,0.04 -0.05,0.03 -0.07,0.01 -0.07,-0.01 -0.1,-0.02 h -0.07 l -0.03,0.01 -0.03,0.03 -0.02,0.03 -0.04,0.01 h -0.05 -0.05 l -0.04,-0.02 -0.06,0.01 -0.04,0.01 -0.11,0.03 -0.14,0.01 -0.08,0.02 -0.07,0.02 -0.09,-0.05 -0.11,0.03 -0.16,0.04 -0.1,0.03 -0.08,0.05 -0.06,0.05 -0.09,0.06 -0.05,0.04 -0.06,0.05 -0.02,0.04 h -0.16 l -0.06,0.01 -0.04,0.02 -0.04,0.02 -0.05,0.01 h -0.1 -0.1 l -0.08,0.01 -0.1,0.02 h -0.09 l -0.08,-0.12 -0.07,-0.07 -0.05,-0.05 -0.09,-0.1 -0.11,-0.12 -0.08,-0.1 -0.04,-0.08 -0.02,-0.04 0.01,-0.03 0.01,-0.02 -0.26,-0.54 -0.19,-0.4 -0.37,-0.39 -0.84,-0.14 v -0.01 l -0.36,-0.3 0.12,-0.33 -0.3,-0.3 -0.16,-1 -0.15,-0.31 -0.01,-0.02 0.13,-0.09 0.02,0.01 0.04,0.09 0.03,0.04 0.02,0.04 0.07,0.07 0.3,-0.51 0.13,-0.26 0.17,0.06 0.18,-0.17 0.25,-0.24 0.16,-0.65 0.13,-0.49 0.1,-0.42 0.04,-0.32 0.04,-0.42 0.31,-0.52 v 0.09 0.21 l 0.03,0.13 0.03,0.07 0.02,0.05 0.02,0.01 v 0.06 l 0.09,0.02 0.05,0.09 0.24,0.41 0.31,0.2 0.17,0.05 0.04,0.03 0.05,0.02 0.04,0.02 0.05,0.04 0.18,0.22 0.05,0.04 0.09,0.15 0.18,0.07 0.11,0.07 0.05,0.02 h 0.11 l 0.07,0.02 0.16,0.03 v -0.01 l 0.05,-0.01 0.15,-0.06 0.12,-0.01 0.1,0.03 0.19,0.07 0.5,-0.02 0.11,-0.01 0.28,0.09 0.28,-0.07 0.05,-0.09 0.03,-0.04 0.05,-0.04 0.04,-0.02 0.04,-0.02 0.04,0.01 0.06,0.03 0.04,0.01 0.09,0.03 0.06,0.01 0.03,0.01 0.03,0.01 h 0.04 0.02 0.05 0.03 l 0.03,-0.02 0.01,0.06 0.24,0.13 0.72,0.51 0.46,0.28 0.49,0.42 z"
       id="path38" />
  </g>
</svg>
