<?xml version="1.0" encoding="UTF-8" standalone="no"?>
<svg
   version="1.2"
   width="800"
   height="642"
   viewBox="0 0 800 642"
   stroke-linecap="round"
   stroke-linejoin="round"
   id="svg68"
   sodipodi:docname="Arbizu.svg"
   inkscape:version="1.1.2 (b8e25be833, 2022-02-05)"
   xmlns:inkscape="http://www.inkscape.org/namespaces/inkscape"
   xmlns:sodipodi="http://sodipodi.sourceforge.net/DTD/sodipodi-0.dtd"
   xmlns="http://www.w3.org/2000/svg"
   xmlns:svg="http://www.w3.org/2000/svg">
  <defs
     id="defs72" />
  <sodipodi:namedview
     id="namedview70"
     pagecolor="#ffffff"
     bordercolor="#666666"
     borderopacity="1.0"
     inkscape:pageshadow="2"
     inkscape:pageopacity="0.0"
     inkscape:pagecheckerboard="0"
     showgrid="false"
     inkscape:zoom="1.3146417"
     inkscape:cx="399.72867"
     inkscape:cy="344.20024"
     inkscape:window-width="1848"
     inkscape:window-height="1016"
     inkscape:window-x="72"
     inkscape:window-y="1107"
     inkscape:window-maximized="1"
     inkscape:current-layer="svg68" />
  <g
     id="Arbizu"
     transform="matrix(14.970791,0,0,14.970791,-5671.7476,-3395.1556)">
    <path
       d="m 404.35,230.25 -0.01,-0.01 0.01,-0.01 0.01,-0.01 0.01,-0.01 0.02,-0.01 0.01,-0.01 0.02,-0.01 0.01,-0.01 0.02,-0.02 v 0 l 0.02,-0.01 0.01,-0.02 0.01,-0.01 0.01,-0.01 0.01,-0.01 0.02,-0.02 0.01,-0.01 0.02,-0.01 0.01,-0.01 0.02,-0.01 0.01,-0.01 0.02,-0.01 h 0.01 0.01 l 0.02,-0.01 0.02,-0.01 0.01,-0.01 0.02,-0.01 0.02,-0.03 0.02,-0.01 0.01,-0.01 0.03,-0.02 0.03,-0.02 0.03,-0.02 0.06,-0.05 h 0.05 0.02 0.04 0.04 v 0.01 h 0.01 0.02 0.02 0.02 0.01 0.04 0.01 0.02 0.02 0.02 0.02 0.01 0.02 0.01 0.02 0.01 0.02 l 0.02,-0.01 h 0.02 0.01 0.04 0.02 l 0.03,-0.01 h 0.02 0.03 l 0.02,-0.01 h 0.04 l 0.05,-0.02 0.32,0.03 0.2,0.03 h 0.01 0.02 l 0.02,0.01 h 0.02 0.01 0.02 0.02 l 0.02,0.01 h 0.04 0.03 l 0.05,0.01 h 0.02 l 0.03,0.01 h 0.05 l 0.02,0.01 h 0.02 0.01 0.04 0.02 l 0.01,0.01 h 0.02 0.02 0.02 0.02 l 0.01,0.01 h 0.02 0.02 l 0.02,0.01 0.05,0.01 h 0.02 0.03 l 0.02,0.01 h 0.02 0.01 l 0.02,0.01 h 0.01 l 0.02,0.01 h 0.02 l 0.01,0.01 h 0.02 l 0.02,0.01 0.01,0.01 h 0.01 l 0.02,0.01 0.02,0.01 0.01,0.01 0.02,0.01 h 0.01 l 0.02,0.01 0.01,0.01 0.01,0.01 0.01,0.02 0.02,0.01 0.01,0.01 0.01,0.02 0.01,0.01 0.01,0.01 0.01,0.01 0.01,0.02 0.01,0.01 0.01,0.01 0.02,0.01 0.01,0.02 0.01,0.01 0.02,0.02 0.01,0.01 0.01,0.01 0.01,0.01 0.02,0.01 v 0.01 l 0.02,0.01 0.01,0.01 0.01,0.01 0.01,0.02 0.03,0.02 0.01,0.01 0.02,0.01 0.01,0.01 0.01,0.01 0.02,0.01 v 0.01 l 0.01,0.01 0.01,0.02 0.01,0.01 0.01,0.02 0.01,0.01 0.01,0.01 0.01,0.01 0.01,0.01 0.02,0.03 0.01,0.02 0.01,0.01 0.01,0.01 0.01,0.02 0.01,0.01 0.01,0.02 0.01,0.01 0.01,0.02 0.01,0.01 0.01,0.01 0.01,0.01 0.01,0.01 0.01,0.02 0.01,0.01 0.01,0.01 0.01,0.02 0.01,0.01 0.01,0.02 0.02,0.02 0.01,0.01 0.01,0.02 0.02,0.03 0.01,0.01 0.01,0.02 0.01,0.01 0.01,0.02 0.01,0.01 0.01,0.01 0.01,0.02 0.01,0.01 0.01,0.02 0.01,0.02 0.01,0.01 0.01,0.02 v 0 l -0.02,0.04 v 0.02 0.01 l -0.01,0.02 v 0.02 0.02 0 l -0.01,0.04 -0.01,0.02 v 0.01 0.02 l -0.01,0.01 v 0.02 l -0.01,0.01 -0.01,0.04 -0.01,0.01 v 0.02 l -0.01,0.02 v 0.01 l -0.01,0.02 -0.01,0.02 -0.01,0.04 -0.01,0.01 -0.01,0.02 v 0.02 0.02 l -0.01,0.01 v 0.02 l -0.02,0.01 0.04,0.03 0.01,0.01 v 0.02 l 0.01,0.01 0.01,0.02 v 0.01 0.02 0.02 0.01 0.02 0.02 l -0.01,0.02 v 0.01 0.03 0.02 0.02 0.02 0.01 0.02 l 0.01,0.02 v 0.02 0.01 0.02 l 0.01,0.02 v 0.02 0.04 0.02 0.01 l 0.01,0.02 v 0.01 0.02 l 0.01,0.02 v 0.02 l 0.01,0.01 0.01,0.02 v 0.02 l 0.01,0.01 0.01,0.02 0.01,0.02 v 0.01 l 0.01,0.02 0.01,0.01 0.01,0.02 0.01,0.01 0.02,0.01 0.01,0.02 0.01,0.01 v 0.01 l 0.01,0.02 0.01,0.01 0.01,0.02 0.01,0.01 0.01,0.02 0.01,0.01 0.01,0.01 0.01,0.02 0.01,0.01 0.01,0.02 0.01,0.01 0.01,0.01 0.01,0.02 0.01,0.02 v 0.02 l 0.01,0.01 v 0.02 l 0.01,0.01 0.02,0.09 v 0.02 l 0.01,0.01 v 0.02 l 0.01,0.02 v 0.01 0.03 0.01 0.02 0.02 0.01 l 0.01,0.02 V 233 l 0.01,0.02 v 0.02 l 0.01,0.01 v 0.02 0.02 l 0.01,0.02 v 0.01 0.02 l 0.01,0.02 v 0.02 l 0.01,0.01 v 0.02 l 0.01,0.02 v 0.01 l 0.01,0.02 0.01,0.02 v 0.02 l 0.02,0.03 v 0.02 l 0.01,0.01 0.01,0.02 v 0.02 l 0.01,0.03 0.01,0.01 0.01,0.03 v 0.02 l 0.01,0.02 v 0.01 l 0.01,0.02 0.01,0.03 0.01,0.02 v 0.01 l 0.01,0.01 v 0.02 l 0.01,0.02 0.01,0.01 v 0.02 l 0.01,0.02 v 0.02 l 0.01,0.02 v 0.01 0.02 0.02 l 0.01,0.03 v 0.02 0.01 0.01 0.06 l 0.01,0.03 v 0.02 l 0.01,0.05 v 0.03 0.01 0.04 0.02 l 0.01,0.01 v 0.02 0.02 0.01 0.02 0.02 0.02 0.01 0.02 0.02 l -0.01,0.01 v 0.02 0.01 0.02 0.02 l -0.01,0.02 v 0.01 0.02 0.01 l -0.01,0.01 v 0.02 l -0.01,0.02 -0.01,0.01 v 0.02 l -0.01,0.02 v 0.02 l -0.01,0.01 v 0.02 l -0.01,0.02 -0.01,0.03 v 0.02 l -0.01,0.01 v 0.02 l -0.02,0.03 v 0.02 l -0.01,0.02 v 0.01 l -0.01,0.02 -0.01,0.02 v 0.02 l -0.01,0.01 -0.01,0.02 v 0.01 l -0.01,0.02 -0.01,0.02 -0.02,0.04 -0.01,0.03 -0.01,0.03 -0.04,0.06 -0.02,0.05 -0.04,0.08 v 0.01 l -0.01,0.01 -0.01,0.02 -0.03,0.07 -0.01,0.01 -0.03,0.06 0.01,0.08 v 0.08 l -0.01,0.02 v 0.01 l -0.01,0.03 -0.01,0.02 v 0.02 l -0.01,0.01 -0.01,0.04 -0.02,0.03 -0.01,0.02 v 0.02 l -0.01,0.01 -0.01,0.04 -0.01,0.02 -0.01,0.02 -0.02,0.04 v 0.01 l -0.01,0.02 -0.02,0.05 v 0.01 l -0.01,0.02 -0.02,0.05 -0.02,0.03 -0.02,0.06 -0.02,0.05 -0.01,0.03 -0.01,0.02 -0.01,0.01 v 0.02 l -0.01,0.02 v 0.01 l -0.01,0.02 v 0.01 l -0.01,0.02 v 0.02 l -0.01,0.01 -0.01,0.04 -0.01,0.03 v 0.02 l -0.01,0.01 v 0.02 l -0.01,0.02 v 0.01 l -0.01,0.02 -0.01,0.01 v 0.02 l -0.01,0.01 -0.01,0.02 -0.01,0.03 v 0.01 l -0.01,0.02 -0.01,0.01 -0.01,0.02 -0.01,0.01 v 0.02 l -0.01,0.01 v 0.02 0.02 l -0.01,0.01 v 0.02 0.02 l -0.01,0.01 v 0.02 l -0.01,0.01 v 0.02 l -0.01,0.02 -0.01,0.02 v 0.01 l -0.01,0.01 -0.01,0.02 v 0.02 l -0.01,0.01 -0.01,0.02 v 0.01 l -0.02,0.04 v 0.01 l -0.02,0.03 -0.02,0.05 -0.01,0.01 -0.01,0.02 -0.01,0.03 -0.01,0.02 -0.01,0.02 -0.01,0.03 -0.02,0.03 -0.01,0.03 -0.01,0.02 -0.01,0.02 -0.01,0.02 -0.01,0.02 -0.01,0.01 v 0.02 l -0.11,0.26 v 0.01 l 0.01,0.02 0.01,0.01 0.01,0.01 0.01,0.02 0.01,0.01 0.01,0.02 0.01,0.01 0.01,0.03 0.01,0.02 0.01,0.01 0.01,0.02 0.01,0.01 0.01,0.02 0.01,0.01 v 0.02 l 0.02,0.03 0.01,0.03 0.01,0.01 0.01,0.02 0.01,0.01 0.01,0.02 v 0.02 l 0.01,0.01 0.01,0.02 v 0.02 l 0.01,0.01 0.01,0.02 v 0.02 0.01 l 0.01,0.02 v 0.02 l 0.01,0.02 v 0.01 0.02 0.02 0.01 l 0.01,0.02 v 0.02 0.02 0.01 0.02 0.02 0.02 l -0.01,0.01 v 0.02 0.01 0.02 l -0.01,0.02 v 0.02 0.01 l -0.01,0.02 v 0.02 l -0.01,0.01 -0.01,0.02 v 0.02 l -0.01,0.01 -0.01,0.02 -0.01,0.02 v 0.01 l -0.01,0.02 -0.01,0.01 -0.02,0.04 -0.02,0.04 -0.02,0.05 -0.01,0.02 -0.01,0.01 -0.01,0.02 -0.02,0.03 v 0.01 l -0.01,0.02 -0.01,0.01 -0.01,0.02 v 0.01 l -0.02,0.03 v 0.02 l -0.01,0.01 v 0.02 l -0.01,0.02 v 0.02 0.01 0.02 0.01 0.02 0.02 l 0.01,0.02 v 0.02 0.02 l 0.01,0.01 v 0.02 0.02 l 0.01,0.01 v 0.02 0.02 l 0.01,0.02 v 0.01 l 0.01,0.02 v 0.01 l 0.01,0.04 0.01,0.01 v 0.02 l 0.01,0.02 v 0.01 0.01 0.02 l 0.01,0.02 v 0.02 0.01 0.02 0.02 l 0.01,0.02 v 0.02 0.01 0.02 0.02 0.02 0.01 0.02 l -0.01,0.02 v 0.02 l -0.01,0.01 v 0.02 l -0.01,0.02 v 0.02 0.01 l -0.01,0.02 v 0.02 l -0.01,0.02 v 0.01 0.02 l -0.01,0.04 v 0.01 l -0.01,0.02 v 0.03 l -0.01,0.06 -0.01,0.03 v 0.02 l -0.01,0.02 v 0.03 l -0.01,0.04 v 0.03 l -0.01,0.04 v 0.03 l -0.03,0.22 v 0.02 0.02 0.01 l -0.01,0.02 v 0.02 0.02 l -0.01,0.02 v 0.02 l -0.01,0.02 v 0.01 l -0.01,0.04 v 0.01 l -0.01,0.02 v 0.02 l -0.01,0.02 v 0.02 0.02 l -0.01,0.01 v 0.02 0.02 l -0.01,0.03 v 0.03 l -0.01,0.03 -0.01,0.04 v 0.03 0.02 l -0.01,0.03 v 0.04 l -0.01,0.03 v 0.03 l -0.02,0.07 v 0.19 0.01 0.01 0.02 0.02 0.02 0.02 0.01 l -0.01,0.02 v 0.02 0.02 l -0.01,0.03 v 0.03 0.01 l -0.01,0.04 -0.01,0.03 v 0.02 0.01 l -0.01,0.02 v 0.02 0.02 0 l -0.01,0.02 v 0.04 0.01 l -0.01,0.03 v 0.02 l -0.01,0.02 v 0.02 0.01 l -0.01,0.02 v 0.02 l -0.01,0.01 v 0.02 l -0.01,0.02 v 0.01 l -0.01,0.02 v 0.01 l -0.01,0.02 -0.01,0.03 -0.01,0.01 -0.01,0.02 -0.01,0.03 -0.02,0.04 -0.01,0.03 -0.01,0.02 v 0.01 l -0.01,0.03 -0.01,0.01 -0.01,0.02 -0.01,0.01 -0.01,0.02 v 0.02 l -0.01,0.01 -0.01,0.01 -0.01,0.02 v 0.01 l -0.01,0.02 -0.01,0.01 -0.02,0.04 v 0.01 l -0.01,0.02 -0.01,0.01 -0.01,0.02 -0.01,0.02 -0.02,0.02 -0.01,0.01 -0.01,0.02 -0.01,0.01 -0.01,0.02 -0.02,0.01 -0.02,0.03 -0.01,0.01 -0.01,0.01 -0.01,0.01 -0.02,0.02 -0.01,0.01 -0.01,0.01 -0.02,0.01 -0.02,0.03 -0.02,0.01 -0.03,0.02 -0.02,0.03 -0.02,0.01 -0.02,0.03 -0.05,0.04 -0.03,0.03 -0.04,0.03 0.01,0.1 0.01,0.02 v 0.01 l 0.01,0.02 v 0.02 0.01 l 0.01,0.04 v 0.02 l 0.01,0.03 v 0.02 0.02 l 0.01,0.01 v 0.02 0.02 l 0.01,0.03 v 0.01 l 0.01,0.01 v 0.02 l -0.01,0.01 v 0.02 l -0.01,0.01 v 0.02 l -0.01,0.01 -0.01,0.02 v 0.01 l -0.01,0.02 -0.01,0.01 -0.01,0.02 -0.01,0.01 -0.01,0.02 -0.01,0.02 -0.01,0.01 -0.02,0.03 -0.02,0.02 v 0.01 0.02 0.01 0.02 0.02 l 0.01,0.01 v 0.01 l 0.01,0.04 0.01,0.01 v 0.02 0.02 l 0.01,0.02 v 0.02 0.01 l -0.01,0.04 -1.05,0.7 -0.02,0.01 -0.53,0.35 -0.21,0.14 -0.03,0.33 -0.03,0.28 -0.02,0.18 h 0.01 0.02 0.02 0.02 v 0 h 0.02 0.02 0.02 0.01 0.02 0.02 0.02 0.02 0.01 0.01 0.02 l 0.02,-0.01 h 0.01 0.04 0.01 0.01 l 0.04,-0.01 h 0.02 0.02 0.02 0.01 0.03 0.01 0.02 l 0.02,0.01 h 0.02 0.02 l 0.01,0.01 h 0.02 0.01 l 0.02,0.01 h 0.02 0.01 l 0.02,0.01 h 0.02 l 0.01,0.01 h 0.05 v 0.03 0.01 0.02 l 0.01,0.02 v 0.01 0.02 l 0.01,0.03 v 0.02 0.01 0.02 l 0.01,0.01 v 0 0.02 l 0.01,0.09 0.01,0.02 v 0.02 0.02 0.02 l 0.01,0.01 v 0.02 0.01 0.02 0.02 0.02 l 0.01,0.02 v 0.01 0.02 0.02 0.02 0.01 0.02 0.01 0.02 0.02 0.02 0.02 0.03 0.05 0.02 l 0.01,0.01 v 0.02 0 l 0.01,0.02 v 0.02 0.02 l 0.01,0.01 v 0.02 0.02 0.02 0.02 0.02 l 0.01,0.03 v 0.02 0.05 0.03 l 0.01,0.13 v 0.03 h 0.02 0.01 0.03 l 0.01,0.01 h 0.01 0.02 l 0.02,0.01 0.03,0.01 h 0.02 l 0.01,0.01 h 0.02 l 0.02,0.01 0.01,0.01 0.02,0.01 0.01,0.01 0.01,0.01 0.02,0.02 0.01,0.02 v 0.01 l 0.01,0.01 0.01,0.01 0.01,0.02 0.03,0.03 0.01,0.02 v 0.01 l 0.02,0.01 0.01,0.01 0.01,0.02 0.01,0.01 0.03,0.04 0.01,0.02 0.03,0.03 0.01,0.01 v 0.01 l 0.01,0.02 0.02,0.01 0.01,0.02 0.01,0.01 0.02,0.01 -0.02,0.03 -0.01,0.01 v 0.01 l -0.01,0.02 -0.01,0.01 v 0.01 0.02 l -0.01,0.02 v 0.01 0.06 l -0.01,0.03 v 0.02 0.01 0.03 0.01 0.03 0.02 0.02 0.03 0.02 0.02 0 l -0.01,0.02 -0.02,0.08 v 0.02 l -0.01,0.02 -0.01,0.03 v 0.03 0.01 l -0.01,0.02 v 0.01 0.02 0.01 0.02 0.02 0.02 0.01 0.01 0.02 0.02 0.04 l 0.01,0.05 v 0.04 0.04 0.03 0.02 0.02 0.02 0.03 0.02 l 0.01,0.01 0.01,0.02 0.01,0.02 0.01,0.01 0.01,0.01 0.01,0.02 0.01,0.02 0.01,0.01 0.01,0.02 0.01,0.01 0.01,0.02 0.01,0.01 0.05,0.11 0.01,0.02 0.05,0.1 0.04,0.08 v 0.02 l 0.01,0.01 0.01,0.03 v 0.02 l 0.01,0.03 0.01,0.02 0.01,0.03 0.02,0.09 0.01,0.02 0.02,0.02 v 0.01 l 0.01,0.02 v 0.01 l 0.01,0.02 v 0.01 l 0.01,0.04 h 0.04 0.01 0.02 0.01 0.02 0.03 0.01 0.01 0.02 l 0.02,-0.01 h 0.01 0.02 0.02 v 0 l 0.02,-0.01 h 0.02 0.01 l 0.04,-0.01 h 0.02 l 0.02,-0.01 h 0.01 l 0.02,-0.01 0.02,-0.01 h 0.02 l 0.01,-0.01 0.01,0.01 h 0.02 l 0.02,0.01 h 0.01 0.02 l 0.01,0.01 h 0.02 0.03 l 0.02,0.11 0.01,0.07 h -0.04 -0.01 l 0.01,0.05 0.01,0.05 0.01,0.03 v 0.01 0.02 l 0.01,0.02 0.01,0.04 v 0.01 l 0.01,0.03 0.01,0.02 v 0.02 0.01 l 0.01,0.02 v 0.01 l 0.01,0.01 0.01,0.02 0.01,0.02 v 0.02 l 0.01,0.01 0.01,0.01 0.01,0.02 0.01,0.01 0.01,0.02 0.03,0.06 0.07,0.11 0.01,0.02 v 0.01 l 0.01,0.02 0.01,0.01 0.01,0.02 v 0.01 0.02 l 0.01,0.01 0.01,0.03 0.01,0.02 v 0.01 l 0.01,0.02 0.01,0.02 v 0.01 0.01 l 0.02,0.03 0.01,0.03 0.01,0.02 v 0.01 l 0.01,0.01 v 0.01 l 0.01,0.01 0.01,0.03 v 0 l 0.01,0.02 0.01,0.02 0.01,0.01 0.01,0.04 0.01,0.01 0.01,0.02 0.01,0.01 v 0.02 l 0.01,0.01 0.01,0.02 v 0.01 l 0.01,0.01 0.02,0.02 0.01,0.02 v 0.01 l 0.01,0.02 0.01,0.01 0.01,0.01 0.02,0.03 0.01,0.02 v 0 l 0.01,0.02 0.02,0.03 v 0.01 l 0.02,0.03 v 0.02 h 0.01 v 0.01 l 0.01,0.02 0.01,0.01 0.01,0.02 v 0.01 l 0.01,0.02 0.02,0.02 v 0.02 l 0.01,0.02 0.01,0.02 0.01,0.02 0.01,0.01 0.02,0.03 0.01,0.02 v 0.02 l 0.01,0.01 0.01,0.02 0.01,0.01 0.01,0.02 v 0.01 l 0.01,0.01 v 0.02 l 0.01,0.01 0.01,0.02 0.01,0.01 v 0.02 l 0.02,0.02 v 0.01 l 0.01,0.02 0.01,0.02 v 0.02 l 0.01,0.01 0.01,0.02 0.02,0.02 h 0.02 l 0.01,0.01 h 0.01 0.02 0.02 0.02 0.02 0.02 0.01 0.02 l 0.02,0.01 h 0.02 0.01 l 0.02,0.01 h 0.01 l 0.02,0.01 h 0.02 0.01 0.01 l 0.01,0.01 0.01,0.02 h 0.02 0.02 0.02 0.01 0.02 l 0.02,0.01 0.01,0.01 0.01,0.01 0.02,0.01 h 0.01 l 0.02,0.01 0.01,0.01 0.02,0.01 h 0.01 l 0.03,0.01 0.01,0.01 h 0.02 l 0.02,0.01 0.02,0.01 0.02,0.01 h 0.01 l 0.02,0.01 h 0.02 0.01 l 0.02,0.01 0.02,0.01 h 0.01 0.02 l 0.02,0.01 0.05,0.01 0.05,0.01 h 0.04 v 0.01 l -0.01,0.05 0.01,0.01 0.1,0.02 0.1,0.03 0.04,0.02 0.07,0.02 0.06,0.02 h 0.01 l 0.15,0.05 0.1,0.03 0.03,0.01 0.07,0.02 h 0.02 l 0.07,0.02 v -0.02 -0.02 -0.02 -0.01 -0.02 -0.03 -0.03 -0.03 l 0.01,-0.04 0.02,0.01 h 0.01 0.02 0.01 l 0.02,0.01 h 0.02 0.02 v 0 l 0.02,0.01 h 0.04 l 0.01,0.01 h 0.02 0.02 l 0.01,0.01 h 0.02 l 0.02,0.01 0.04,0.01 0.03,0.01 h 0.02 l 0.02,0.01 h 0.02 0.01 l 0.02,0.01 h 0.01 l 0.02,0.01 h 0.02 l 0.01,0.01 h 0.02 l 0.02,0.01 h 0.01 l 0.02,0.01 0.03,0.01 h 0.01 l 0.02,0.01 0.02,0.01 h 0.01 l 0.02,0.01 0.03,0.01 h 0.01 l 0.05,0.02 0.02,0.01 h 0.01 l 0.01,0.01 h 0.02 l 0.02,0.01 0.01,0.01 h 0.02 l 0.02,0.01 0.03,0.01 0.02,0.01 0.01,0.01 h 0.02 l 0.02,0.01 0.01,0.01 h 0.01 0.02 0.02 0.02 0.02 0.01 0.01 0.03 0.02 0.02 0.02 0.01 l 0.02,-0.01 h 0.02 0.02 l 0.03,-0.01 h 0.03 l 0.02,-0.01 h 0.02 0.01 l 0.02,-0.01 h 0.02 0.02 l 0.01,-0.01 h 0.02 0.01 l 0.03,-0.01 h 0.01 0.02 0.02 0.02 0.02 0.02 l 0.02,0.01 h 0.01 0.01 l 0.02,0.01 0.01,0.01 h 0.02 0.02 0.02 l 0.02,0.01 0.04,0.01 h 0.02 l 0.01,0.01 h 0.02 0.02 l 0.02,0.01 h 0.02 l 0.02,0.01 0.01,0.01 0.05,0.01 h 0.02 l 0.01,0.01 h 0.02 l 0.02,0.01 h 0.01 l 0.02,0.01 h 0.02 0.04 l 0.01,0.01 h 0.02 0.01 l 0.01,0.01 h 0.02 l 0.02,0.01 h 0.01 l 0.02,0.01 h 0.02 l 0.01,0.01 h 0.02 0.12 0.02 0.03 0.04 0.03 0.02 0.02 0.01 l 0.02,-0.01 h 0.02 0.02 0.01 0.03 0.01 l 0.02,0.01 h 0.02 0.02 l 0.01,0.01 h 0.02 0.02 l 0.01,0.01 h 0.02 l 0.02,0.01 0.01,0.01 h 0.02 l 0.06,0.04 0.01,0.01 0.02,0.01 0.01,0.01 0.03,0.02 0.02,0.01 0.01,0.01 0.02,0.01 0.01,0.01 0.02,0.01 0.01,0.01 0.02,0.01 v 0.01 l 0.02,0.01 0.01,0.01 0.02,0.01 0.01,0.01 0.01,0.01 0.02,0.02 h 0.01 l 0.01,0.01 0.01,0.02 0.02,0.01 0.01,0.01 0.01,0.01 0.01,0.01 0.01,0.01 0.01,0.01 0.01,0.01 0.02,0.02 0.01,0.01 0.01,0.01 0.01,0.02 0.02,0.01 0.01,0.02 0.01,0.01 0.02,0.01 0.01,0.01 0.01,0.01 0.03,0.03 0.03,0.03 0.01,0.01 0.02,0.01 0.01,0.01 0.01,0.01 0.02,0.02 0.03,0.02 0.01,0.01 0.02,0.01 0.01,0.01 0.01,0.02 0.02,0.01 0.01,0.01 0.02,0.01 0.01,0.01 0.02,0.01 0.01,0.01 0.03,0.02 0.01,0.01 0.01,0.01 0.02,0.01 0.02,0.01 0.01,0.01 0.01,0.01 0.02,0.01 0.02,0.01 0.01,0.01 0.02,0.01 0.01,0.01 0.01,0.01 0.04,0.02 0.01,0.01 0.01,0.01 0.02,0.01 0.02,0.01 0.01,0.01 0.02,0.01 0.01,0.01 0.02,0.01 0.01,0.01 0.02,0.02 0.02,0.01 0.02,0.01 h 0.01 l 0.02,0.01 0.01,0.01 0.01,0.01 h 0.01 l 0.04,0.03 0.02,0.01 0.01,0.01 0.03,0.02 0.03,0.02 h 0.02 l 0.01,0.01 0.02,0.01 0.01,0.01 0.03,0.02 0.01,0.01 0.02,0.01 0.01,0.01 0.02,0.01 0.02,0.01 0.01,0.01 h 0.02 l 0.01,0.01 0.02,0.01 0.01,0.01 0.02,0.01 0.03,0.02 h 0.02 l 0.01,0.01 0.02,0.01 0.02,0.01 0.02,0.01 0.02,0.01 h 0.01 l 0.02,0.01 h 0.01 l 0.01,0.01 -0.02,0.35 -0.13,-0.01 h -0.04 -0.03 -0.02 l -0.02,-0.01 h -0.03 l -0.03,0.01 h -0.02 -0.02 -0.02 -0.03 -0.02 -0.05 -0.04 -0.02 -0.01 -0.01 -0.02 -0.02 -0.02 -0.01 -0.02 -0.02 -0.02 l -0.01,0.01 h -0.02 -0.01 -0.02 -0.02 -0.02 l -0.01,0.01 h -0.02 -0.02 -0.02 -0.02 -0.01 -0.02 -0.04 -0.03 -0.02 -0.02 -0.01 -0.01 -0.02 -0.02 -0.02 l -0.01,0.01 h -0.04 -0.01 -0.02 -0.04 -0.01 l -0.01,0.01 h -0.02 -0.04 -0.03 -0.04 -0.01 -0.04 l -0.03,0.01 h -0.02 -0.02 -0.02 -0.03 l -0.04,0.01 h -0.01 -0.02 -0.04 l -0.05,0.01 h -0.03 -0.02 l -0.03,0.01 h -0.02 -0.04 -0.01 l -0.02,0.01 h -0.02 -0.02 -0.01 -0.02 l -0.02,0.01 h -0.02 l -0.01,0.01 h -0.02 -0.02 l -0.02,0.01 h -0.01 -0.02 l -0.02,0.01 h -0.01 l -0.02,0.01 h -0.02 l -0.02,0.01 h -0.02 l -0.01,0.01 h -0.02 l -0.02,0.01 h -0.01 l -0.02,0.01 -0.02,0.01 h -0.01 l -0.02,0.01 h -0.01 l -0.02,0.01 h -0.02 l -0.01,0.01 -0.02,0.01 h -0.02 l -0.01,0.01 -0.02,0.01 h -0.01 l -0.02,0.01 -0.02,0.01 -0.01,0.01 -0.02,0.01 v 0 l -0.02,0.01 -0.02,0.02 -0.01,0.01 -0.01,0.01 -0.01,0.01 -0.05,0.04 -0.02,0.01 -0.03,0.01 -0.03,0.02 -0.02,0.01 -0.03,0.02 h -0.02 l -0.04,0.02 -0.01,0.01 -0.02,0.01 -0.01,0.01 -0.01,0.01 -0.01,0.01 -0.01,0.01 -0.01,0.02 -0.01,0.01 -0.01,0.02 -0.01,0.01 -0.01,0.02 -0.02,0.02 -0.01,0.01 -0.01,0.02 -0.01,0.01 -0.01,0.01 -0.01,0.02 v 0.01 l -0.01,0.02 -0.01,0.01 -0.01,0.02 -0.01,0.01 -0.02,0.03 -0.01,0.02 -0.01,0.01 -0.01,0.01 -0.01,0.02 v 0.01 l -0.01,0.02 -0.01,0.01 v 0.01 l -0.01,0.02 -0.02,0.03 -0.01,0.01 -0.02,0.03 -0.01,0.02 -0.01,0.01 v 0.02 l -0.01,0.01 -0.01,0.02 -0.01,0.01 -0.01,0.02 -0.02,0.02 h -0.01 -0.01 -0.02 l -0.02,-0.01 h -0.01 -0.02 l -0.02,-0.01 -0.05,-0.01 -0.03,-0.01 h -0.02 -0.02 l -0.01,-0.01 h -0.02 l -0.02,-0.01 h -0.01 l -0.06,-0.02 -0.02,-0.01 -0.02,-0.01 0.02,-0.12 -0.01,-0.01 h -0.02 l -0.02,-0.01 h -0.01 -0.01 l -0.02,-0.01 h -0.02 l -0.01,-0.01 -0.04,-0.02 v 0 h -0.02 l -0.02,-0.01 -0.02,-0.01 h -0.01 l -0.02,-0.01 h -0.02 l -0.01,-0.01 -0.02,-0.01 -0.02,-0.01 -0.01,-0.01 -0.02,-0.01 -0.01,-0.01 -0.02,-0.02 -0.01,-0.01 -0.01,-0.01 -0.02,-0.01 -0.01,-0.01 -0.03,-0.02 -0.01,-0.01 -0.01,-0.01 h -0.02 -0.01 -0.02 -0.02 l -0.01,0.01 h -0.01 l -0.01,0.01 -0.01,0.01 -0.02,0.01 h -0.01 -0.02 -0.02 -0.01 -0.02 -0.01 -0.01 l -0.02,-0.01 -0.02,-0.01 v 0.02 l -0.01,0.02 v 0.01 0.01 0.02 l -0.01,0.01 v 0.02 0.02 l -0.01,0.01 v 0.02 l -0.01,0.01 -0.01,0.01 v 0.02 l -0.01,0.01 -0.02,0.02 -0.01,0.01 -0.02,0.02 -0.01,0.01 -0.01,0.01 h -0.02 l -0.01,0.02 h -0.01 l -0.01,0.02 -0.01,0.01 v 0.01 l -0.01,0.02 -0.01,0.01 v 0.02 l -0.01,0.02 -0.01,0.01 v 0.02 l -0.01,0.01 -0.01,0.02 -0.01,0.01 -0.01,0.02 -0.01,0.01 -0.01,0.01 -0.01,0.01 -0.01,0.01 -0.01,0.01 -0.01,0.01 -0.02,0.01 -0.01,0.01 -0.02,0.02 -0.02,0.01 -0.01,0.02 -0.01,0.02 -0.01,0.01 -0.01,0.02 -0.01,0.01 v 0.02 l -0.01,0.01 v 0.02 0.01 0.02 0.02 0.02 0.02 0.01 l -0.01,0.01 -0.01,0.02 -0.02,0.02 -0.01,0.01 -0.01,0.02 -0.01,0.02 -0.01,0.01 -0.01,0.02 v 0.03 l -0.01,0.02 -0.01,0.02 v 0.01 l -0.01,0.01 -0.01,0.01 -0.02,0.01 -0.02,0.01 v 0 l -0.03,-0.01 -0.02,-0.01 h -0.01 v -0.01 l -0.02,-0.01 -0.01,-0.01 h -0.01 l -0.02,-0.01 -0.01,-0.01 -0.03,-0.01 h -0.02 l -0.02,-0.01 h -0.01 -0.02 -0.02 -0.01 -0.02 -0.01 -0.02 -0.01 v 0.01 h -0.03 l -0.04,0.01 -0.01,0.01 h -0.01 l -0.05,0.02 -0.03,0.01 -0.03,0.01 h -0.01 l -0.04,0.02 -0.04,0.03 h -0.01 l -0.03,0.01 -0.04,0.02 -0.06,0.04 h -0.01 l -0.01,0.01 -0.02,0.01 h -0.02 l -0.03,0.01 -0.02,0.01 -0.02,0.01 h -0.01 l -0.03,0.01 h -0.01 l -0.03,0.01 v 0.01 0.02 l -0.01,0.02 -0.01,0.01 v 0.02 l -0.01,0.02 v 0.02 l -0.01,0.02 v 0.02 0.01 l -0.01,0.02 v 0.02 0.01 l -0.01,0.02 v 0.01 l -0.01,0.02 -0.01,0.02 -0.01,0.02 -0.01,0.01 v 0.02 l -0.01,0.01 -0.01,0.02 -0.01,0.02 -0.01,0.02 v 0.02 0.01 0.02 l 0.01,0.02 -0.01,0.01 v 0.02 l -0.01,0.01 -0.01,0.01 v 0.02 l 0.01,0.01 v 0.01 l 0.01,0.02 h 0.01 0.02 l 0.01,0.01 0.02,-0.01 0.02,0.01 h 0.02 0.01 l 0.02,0.01 0.02,0.01 0.02,0.01 0.01,0.03 h -0.01 l -0.01,0.01 -0.02,0.01 h -0.01 l -0.02,0.01 -0.02,0.01 -0.02,0.01 -0.02,0.01 h -0.01 l -0.01,0.01 h -0.02 -0.02 -0.01 -0.01 -0.02 -0.02 -0.02 l -0.01,-0.01 h -0.03 -0.01 -0.02 l -0.01,0.01 h -0.02 -0.02 -0.02 -0.02 l -0.02,-0.02 -0.09,0.07 -0.02,0.01 -0.09,0.07 -0.06,0.05 -0.06,0.05 -0.05,0.03 -0.12,0.08 -0.01,0.01 -0.04,0.02 -0.1,0.07 -0.09,0.07 -0.01,0.01 -0.02,0.01 -0.01,0.01 -0.01,0.01 -0.01,0.01 -0.02,0.02 -0.02,0.01 -0.01,0.01 -0.01,0.01 -0.01,0.01 -0.01,0.01 -0.02,0.02 -0.02,0.03 -0.01,0.01 -0.01,0.01 -0.01,0.01 -0.02,0.01 -0.01,0.01 h -0.01 l -0.01,0.01 -0.02,0.01 h -0.02 l -0.02,0.01 -0.02,0.01 -0.01,0.01 -0.02,0.01 h -0.01 -0.01 l -0.02,0.01 -0.08,0.02 -0.02,0.01 h -0.02 -0.01 -0.02 l -0.01,0.01 -0.02,0.01 h -0.02 l -0.03,0.02 -0.03,0.01 h -0.02 -0.02 l 0.03,0.13 -0.1,0.05 -0.11,0.06 -0.13,0.07 -0.06,0.04 -0.03,0.01 -0.02,0.01 -0.09,0.02 -0.07,0.02 -0.1,0.02 -0.07,0.01 -0.01,-0.01 -0.05,-0.02 -0.09,-0.04 -0.08,-0.04 -0.06,-0.03 -0.1,-0.04 h -0.07 l -0.03,-0.01 h -0.02 -0.02 -0.01 -0.02 -0.04 -0.01 -0.02 -0.01 -0.02 -0.02 -0.02 L 405,258.54 h -0.01 -0.04 -0.02 -0.02 -0.02 -0.01 -0.02 -0.02 -0.01 -0.02 -0.02 -0.02 -0.01 -0.02 -0.02 -0.01 -0.02 -0.05 l -0.02,-0.01 -0.23,-0.01 -0.23,-0.01 h -0.22 l -0.07,-0.01 -0.1,0.01 -0.02,0.01 h -0.01 -0.02 -0.02 -0.02 -0.02 l -0.01,0.01 h -0.02 -0.02 -0.02 -0.01 -0.02 -0.04 -0.03 -0.02 -0.01 l -0.04,-0.01 h -0.03 -0.02 -0.01 -0.02 -0.02 -0.02 -0.01 -0.01 -0.01 -0.01 l -0.01,-0.03 v -0.01 -0.03 -0.01 -0.02 -0.02 -0.01 l 0.01,-0.02 v -0.02 -0.01 -0.03 -0.02 -0.01 l -0.01,-0.01 v -0.02 l -0.01,-0.02 -0.01,-0.01 v -0.01 l -0.01,-0.02 -0.01,-0.02 -0.01,-0.01 v -0.02 l -0.01,-0.01 v -0.01 l -0.01,-0.02 -0.01,-0.02 v -0.01 l -0.01,-0.02 v -0.01 l -0.01,-0.02 V 258 l -0.01,-0.01 -0.01,-0.02 v -0.01 -0.02 l -0.01,-0.02 v -0.02 l -0.01,-0.01 v -0.02 -0.02 l -0.01,-0.02 v -0.01 -0.02 -0.02 l -0.01,-0.01 v -0.02 l -0.01,-0.01 v -0.02 l -0.01,-0.01 -0.01,-0.02 -0.01,-0.01 -0.01,-0.02 v -0.01 l -0.01,-0.01 -0.01,-0.02 v 0 l -0.02,-0.03 -0.01,-0.01 -0.01,-0.02 -0.01,-0.02 -0.01,-0.01 -0.01,-0.02 v -0.01 l -0.01,-0.01 -0.01,-0.02 -0.01,-0.01 -0.01,-0.01 -0.01,-0.02 -0.01,-0.02 v -0.02 l -0.01,-0.01 v -0.01 -0.02 l -0.01,-0.01 v -0.02 -0.01 -0.01 -0.02 -0.02 -0.01 -0.02 -0.01 -0.02 -0.02 -0.01 l 0.01,-0.01 v -0.02 -0.02 -0.02 -0.01 l -0.01,-0.02 v -0.02 -0.02 -0.01 -0.01 l 0.01,-0.02 0.01,-0.02 0.01,-0.01 0.01,-0.01 v -0.02 -0.02 -0.02 -0.01 l -0.01,-0.02 -0.01,-0.01 -0.01,-0.01 -0.01,-0.02 -0.01,-0.01 -0.01,-0.01 -0.01,-0.02 -0.01,-0.02 -0.01,-0.01 -0.01,-0.02 -0.01,-0.01 v -0.02 l -0.01,-0.01 v -0.02 -0.02 -0.02 -0.03 l -0.01,-0.02 v -0.01 -0.01 l -0.01,-0.02 v -0.02 -0.01 l -0.01,-0.02 v -0.04 -0.01 l -0.01,-0.01 v -0.02 -0.01 -0.02 l -0.01,-0.02 v -0.01 -0.02 -0.01 -0.01 -0.02 l -0.01,-0.02 v -0.02 l -0.01,-0.02 v -0.01 -0.02 l -0.01,-0.01 v -0.02 l -0.01,-0.01 -0.01,-0.04 -0.02,-0.06 -0.02,-0.05 -0.02,-0.06 -0.01,-0.01 v -0.02 l -0.02,-0.05 -0.03,-0.08 -0.02,-0.06 -0.01,-0.05 -0.01,-0.04 -0.01,-0.03 -0.01,-0.02 -0.01,-0.02 v -0.01 l -0.01,-0.02 v -0.02 l -0.01,-0.01 -0.02,-0.05 -0.03,-0.1 -0.02,-0.05 -0.04,-0.1 v -0.02 l -0.03,-0.06 v -0.02 l -0.02,-0.04 v -0.01 -0.01 l -0.01,-0.03 -0.01,-0.01 -0.04,-0.12 -0.02,-0.05 -0.02,-0.05 -0.03,-0.1 -0.05,-0.12 v -0.02 l -0.02,-0.06 -0.03,-0.08 -0.02,-0.05 -0.02,-0.05 -0.02,-0.06 -0.02,-0.05 -0.01,-0.04 -0.03,-0.08 -0.02,-0.05 -0.03,-0.09 -0.02,-0.04 -0.02,-0.05 -0.01,-0.05 -0.02,-0.04 -0.02,-0.04 -0.01,-0.04 v -0.01 l -0.01,-0.02 -0.01,-0.02 v -0.02 l -0.01,-0.03 -0.02,-0.04 v -0.01 l -0.02,-0.05 -0.01,-0.03 -0.01,-0.03 -0.01,-0.03 -0.01,-0.03 -0.02,-0.05 v -0.01 l -0.01,-0.02 v -0.01 l -0.02,-0.03 -0.01,-0.02 v -0.02 l -0.01,-0.03 -0.01,-0.02 v -0.02 l -0.01,-0.01 -0.01,-0.02 -0.01,-0.01 v -0.01 l -0.01,-0.02 v -0.02 l -0.01,-0.03 0.18,-0.07 0.21,-0.09 -0.01,-0.03 v -0.03 l -0.02,-0.07 h 0.01 l 0.01,-0.01 h 0.02 0.02 0.02 0.02 0.02 l 0.02,-0.01 0.02,-0.01 h 0.01 l -0.01,-0.01 -0.01,-0.02 -0.01,-0.01 -0.02,-0.01 -0.01,-0.02 -0.01,-0.01 -0.01,-0.01 v -0.01 -0.02 l -0.01,-0.02 h -0.01 -0.02 l -0.01,0.01 h -0.02 -0.01 -0.02 l -0.02,0.01 h -0.02 -0.01 l -0.01,-0.01 -0.04,-0.07 -0.02,-0.08 -0.05,-0.15 -0.02,-0.04 -0.01,-0.01 -0.01,-0.01 h -0.02 -0.01 l -0.02,-0.01 -0.02,-0.01 -0.05,-0.06 -0.03,-0.05 -0.01,-0.02 v -0.06 -0.02 -0.02 0 -0.02 l 0.01,-0.03 v -0.02 -0.01 -0.02 0 l 0.01,-0.03 0.01,-0.03 0.01,-0.02 v 0 l 0.01,-0.02 v -0.02 l 0.01,-0.01 v -0.02 l 0.01,-0.02 0.01,-0.02 v -0.01 l 0.01,-0.01 0.01,-0.02 0.01,-0.01 0.01,-0.02 v -0.01 l 0.03,-0.04 0.03,-0.05 0.01,-0.02 0.01,-0.02 0.01,-0.02 0.01,-0.01 0.01,-0.02 0.01,-0.02 0.01,-0.02 v -0.01 l 0.01,-0.01 0.01,-0.02 0.01,-0.01 0.03,-0.03 0.01,-0.01 h 0.01 l 0.02,-0.01 h 0.02 l 0.01,-0.01 h 0.02 0.02 l 0.02,-0.01 h 0.02 0.03 l 0.07,-0.01 0.03,-0.01 h 0.02 0.02 l 0.04,-0.01 h 0.01 0.02 l 0.01,-0.01 h 0.02 0.04 l 0.03,-0.01 h 0.02 0.01 0.04 0.02 l 0.02,-0.01 h 0.02 0.01 l 0.01,-0.01 h 0.02 l 0.04,-0.02 0.02,-0.02 0.02,-0.01 0.01,-0.01 0.02,-0.01 h 0.01 l 0.01,-0.01 0.02,-0.01 0.01,-0.01 0.01,-0.01 0.02,-0.02 0.01,-0.01 0.03,-0.03 0.01,-0.02 0.02,-0.02 0.02,-0.03 0.01,-0.05 v -0.08 l -0.01,-0.04 -0.01,-0.03 -0.01,-0.02 -0.02,-0.01 -0.09,-0.03 -0.04,-0.02 -0.03,-0.02 -0.06,-0.06 -0.03,-0.02 -0.05,-0.03 -0.06,-0.01 h -0.05 l -0.05,0.01 h -0.04 l -0.02,-0.01 -0.03,-0.01 -0.01,-0.03 -0.01,-0.03 -0.01,-0.04 0.01,-0.03 v -0.03 l 0.02,-0.05 0.02,-0.05 0.01,-0.04 0.01,-0.05 0.01,-0.04 v -0.04 l -0.01,-0.03 -0.01,-0.04 -0.01,-0.04 -0.01,-0.03 v -0.06 l 0.01,-0.04 0.02,-0.04 0.02,-0.04 0.05,-0.06 0.04,-0.05 0.05,-0.05 0.08,-0.09 0.07,-0.08 0.07,-0.06 0.03,-0.03 0.04,-0.04 0.01,-0.03 0.01,-0.04 0.01,-0.06 v -0.06 -0.02 -0.05 l -0.02,-0.05 -0.02,-0.06 v -0.07 -0.06 -0.05 l 0.06,-0.18 0.08,-0.14 0.11,-0.14 0.14,-0.11 0.14,-0.08 0.22,-0.06 0.2,-0.05 0.2,-0.01 0.14,-0.02 0.11,-0.02 0.09,-0.04 0.08,-0.05 0.08,-0.07 0.05,-0.03 0.04,-0.03 0.09,-0.03 0.07,-0.02 -0.03,-0.07 -0.03,-0.03 -0.01,-0.02 -0.02,-0.02 -0.01,-0.01 v 0 l -0.02,-0.02 -0.02,-0.01 -0.01,-0.01 -0.03,-0.01 h -0.02 l -0.01,-0.01 h -0.02 -0.02 -0.01 -0.02 -0.02 -0.02 l -0.02,0.01 h -0.01 -0.02 l -0.02,0.01 -0.01,0.01 h -0.01 l -0.02,0.01 -0.01,0.01 -0.02,0.01 -0.01,0.01 h -0.01 l -0.02,0.02 -0.02,0.01 -0.01,0.01 -0.02,0.01 -0.01,0.01 h -0.02 l -0.02,0.01 -0.02,0.01 -0.01,0.01 h -0.02 l -0.02,0.01 -0.01,0.01 h -0.02 l -0.02,0.01 h -0.02 -0.01 l -0.02,0.01 h -0.02 -0.02 l -0.02,0.01 h -0.01 -0.01 -0.02 -0.02 -0.01 -0.02 l -0.02,0.01 h -0.02 -0.02 -0.02 -0.03 -0.04 -0.02 -0.01 l -0.01,-0.01 h -0.02 -0.01 -0.02 -0.01 l -0.02,0.01 h -0.01 l -0.01,0.01 h -0.01 -0.02 l -0.02,0.01 -0.01,0.01 -0.02,0.01 -0.01,0.01 v -0.01 l -0.01,-0.01 v -0.01 l -0.01,-0.02 -0.01,-0.01 -0.01,-0.02 -0.01,-0.01 -0.01,-0.02 -0.01,-0.02 v -0.01 l -0.01,-0.02 -0.01,-0.01 -0.01,-0.02 -0.01,-0.02 -0.01,-0.01 -0.01,-0.02 -0.01,-0.01 -0.01,-0.02 v 0 l -0.01,-0.02 -0.01,-0.01 -0.01,-0.02 -0.01,-0.01 -0.01,-0.02 -0.01,-0.01 -0.01,-0.02 -0.01,-0.01 -0.02,-0.03 -0.01,-0.03 -0.01,-0.02 -0.01,-0.01 -0.01,-0.02 -0.01,-0.01 -0.01,-0.02 -0.01,-0.02 -0.02,-0.03 -0.01,-0.03 -0.03,-0.05 -0.01,-0.03 -0.02,-0.02 v -0.02 l -0.02,-0.03 -0.02,-0.03 -0.01,-0.03 -0.01,-0.02 -0.01,-0.01 v -0.02 l -0.01,-0.01 -0.01,-0.02 v 0 l -0.01,-0.02 v -0.01 l -0.01,-0.02 -0.02,-0.01 -0.01,-0.01 -0.01,-0.02 v -0.01 l -0.01,-0.01 -0.01,-0.02 v -0.01 l -0.01,-0.02 -0.01,-0.02 v -0.01 l -0.01,-0.02 v -0.01 -0.01 l -0.01,-0.02 v -0.02 -0.02 -0.01 l -0.01,-0.02 v -0.02 -0.02 -0.01 -0.02 -0.02 -0.01 -0.01 -0.02 -0.02 -0.02 l -0.01,-0.02 v -0.02 l -0.01,-0.01 -0.01,-0.02 -0.01,-0.01 -0.01,-0.01 -0.01,-0.02 -0.01,-0.02 -0.01,-0.02 -0.01,-0.01 -0.01,-0.02 -0.01,-0.02 -0.03,-0.05 v -0.01 l -0.01,-0.02 -0.01,-0.01 -0.01,-0.01 -0.01,-0.02 v -0.02 -0.02 -0.01 l -0.01,-0.02 v -0.01 -0.02 l -0.01,-0.01 v -0.03 l -0.01,-0.01 -0.01,-0.02 v -0.01 l -0.01,-0.02 -0.01,-0.01 v -0.02 l -0.01,-0.02 -0.01,-0.01 v -0.02 l -0.01,-0.01 -0.01,-0.01 v -0.02 l -0.01,-0.02 -0.02,-0.03 v -0.02 l -0.01,-0.02 -0.01,-0.01 -0.01,-0.02 v -0.01 l -0.01,-0.02 -0.01,-0.02 v 0 -0.04 -0.02 -0.02 l 0.01,-0.02 v -0.01 -0.02 -0.01 -0.02 -0.02 -0.01 -0.02 -0.01 -0.01 l 0.01,-0.03 v -0.02 -0.02 -0.02 -0.02 -0.01 -0.02 l -0.01,-0.01 v -0.02 -0.02 -0.03 -0.01 l -0.01,-0.02 v -0.01 -0.02 -0.02 -0.02 -0.01 -0.02 -0.02 -0.02 -0.01 -0.02 -0.02 -0.02 -0.01 -0.02 -0.01 -0.02 l 0.01,-0.02 v -0.02 l -0.01,-0.02 v -0.01 -0.02 -0.02 -0.02 -0.04 -0.01 -0.01 l -0.01,-0.02 v -0.01 -0.03 -0.02 -0.03 -0.04 -0.02 -0.02 l -0.01,-0.01 v -0.03 -0.02 -0.01 -0.02 -0.01 h -0.04 -0.01 -0.02 -0.02 -0.02 -0.02 -0.01 -0.02 -0.02 -0.02 -0.01 l -0.02,-0.01 h -0.02 -0.02 -0.01 -0.02 -0.01 l -0.02,-0.01 h -0.02 -0.02 -0.02 -0.02 -0.01 -0.02 -0.03 -0.01 -0.04 -0.02 -0.01 -0.01 -0.02 -0.02 -0.02 -0.01 -0.02 l -0.03,-0.01 h -0.02 -0.02 -0.02 -0.02 -0.03 -0.02 l -0.02,-0.01 h -0.02 -0.02 -0.02 -0.02 -0.01 -0.01 -0.02 -0.02 -0.01 -0.04 -0.01 -0.02 -0.02 -0.01 -0.03 l -0.12,-0.01 -0.12,-0.01 -0.15,-0.01 -0.19,-0.02 h -0.14 l -0.16,-0.03 -0.17,-0.02 -0.17,-0.02 h -0.02 l -0.03,0.01 h -0.01 l -0.03,0.02 -0.03,0.01 -0.03,0.02 -0.01,0.02 -0.02,0.02 -0.01,0.01 -0.01,0.02 -0.01,0.01 -0.01,0.03 -0.01,0.02 -0.01,0.02 v 0.02 0.03 l 0.01,0.03 v 0.03 0.02 l 0.01,0.03 v 0.02 0.03 l 0.01,0.02 v 0.02 l 0.01,0.03 v 0.02 0.02 0.02 0.02 0.01 0.01 0.01 l 0.01,0.02 v 0.03 l 0.01,0.02 v 0.02 0.01 l 0.01,0.02 v 0.02 l 0.01,0.01 v 0.02 l 0.01,0.02 v 0.03 l 0.01,0.02 V 245 l 0.01,0.01 0.01,0.04 0.01,0.02 v 0.03 l 0.01,0.02 v 0.02 0.01 0.01 l -0.01,0.02 -0.01,0.03 v 0.02 l -0.01,0.02 v 0.02 l -0.01,0.03 -0.01,0.03 v 0.04 l -0.01,0.02 -0.01,0.02 v 0.02 l -0.01,0.02 h -0.03 v -0.03 l -0.02,-0.05 -0.01,-0.01 h -0.01 l -0.02,-0.01 -0.02,-0.01 -0.01,-0.01 -0.02,-0.01 -0.01,-0.01 h -0.01 l -0.01,-0.01 -0.01,-0.01 -0.02,-0.01 -0.01,-0.01 -0.01,-0.02 -0.01,-0.01 -0.02,-0.01 v -0.01 l -0.01,-0.01 v -0.01 -0.01 l -0.01,-0.01 v -0.01 l -0.01,-0.03 -0.02,-0.07 -0.01,-0.02 -0.01,-0.03 -0.01,-0.01 -0.01,-0.03 -0.01,-0.01 h -0.01 l -0.02,-0.02 -0.02,-0.01 -0.02,-0.01 -0.03,-0.01 h -0.01 -0.01 l -0.02,-0.01 -0.03,-0.01 h -0.01 l -0.02,-0.01 h -0.01 -0.01 l -0.01,-0.01 v 0 l -0.01,-0.02 -0.01,-0.01 -0.01,-0.02 -0.01,-0.01 -0.01,-0.01 v -0.01 -0.01 l -0.04,-0.02 -0.02,-0.02 -0.01,-0.01 -0.03,-0.02 -0.04,-0.02 -0.01,-0.01 -0.03,-0.01 -0.04,-0.03 -0.04,-0.02 -0.01,-0.01 -0.03,-0.02 -0.03,-0.02 -0.02,-0.01 -0.04,-0.04 -0.01,0.01 h -0.02 -0.01 -0.01 v 0 l -0.01,-0.01 -0.01,-0.01 -0.02,-0.02 -0.01,-0.01 v -0.01 l -0.01,-0.02 h -0.01 l -0.01,-0.01 h -0.01 l -0.01,-0.02 -0.01,-0.02 -0.02,-0.02 -0.01,-0.01 -0.03,-0.02 -0.04,-0.03 -0.01,-0.01 -0.02,-0.01 -0.02,-0.02 -0.01,-0.01 -0.02,-0.02 -0.02,-0.02 -0.03,-0.02 -0.02,-0.02 -0.01,-0.01 -0.03,-0.01 -0.01,-0.02 -0.02,-0.01 -0.01,-0.01 h -0.01 l -0.01,-0.01 h -0.01 l -0.01,-0.01 -0.01,-0.02 -0.03,-0.03 -0.02,-0.03 -0.03,-0.02 -0.02,-0.04 h -0.01 l -0.02,-0.03 -0.02,-0.03 -0.03,-0.03 -0.01,-0.02 h -0.01 l -0.01,-0.01 v 0 l -0.01,-0.01 -0.02,-0.01 -0.04,-0.02 h -0.01 l -0.02,-0.01 -0.03,-0.01 -0.04,-0.01 v 0 l -0.02,-0.01 -0.02,-0.01 -0.03,-0.01 -0.02,-0.01 -0.02,-0.01 h -0.01 l -0.01,-0.01 h -0.01 -0.01 -0.01 -0.01 l -0.01,-0.01 -0.01,-0.01 v -0.01 l -0.01,-0.01 -0.01,-0.02 -0.01,-0.01 v -0.01 l -0.01,-0.01 -0.01,-0.02 -0.02,-0.02 -0.01,-0.02 -0.01,-0.01 -0.01,-0.01 -0.01,-0.01 -0.01,-0.01 -0.01,-0.01 -0.01,-0.01 -0.02,-0.01 -0.02,-0.01 -0.01,-0.01 h -0.01 l -0.01,-0.01 h -0.02 l -0.03,-0.02 -0.03,-0.01 -0.02,-0.01 -0.02,-0.01 -0.01,-0.01 v -0.01 l -0.02,-0.01 -0.01,-0.02 -0.02,-0.02 v -0.01 h -0.01 l -0.01,-0.01 -0.01,-0.01 h -0.02 l -0.01,-0.01 -0.02,-0.01 -0.02,-0.01 h -0.01 l -0.03,-0.05 -0.03,-0.03 -0.04,-0.03 -0.03,-0.02 -0.03,-0.02 -0.04,-0.02 -0.05,-0.03 -0.06,-0.02 -0.07,-0.03 -0.01,-0.01 -0.04,-0.02 -0.02,-0.01 -0.05,-0.02 -0.04,-0.02 -0.04,-0.02 -0.04,-0.02 -0.03,-0.01 -0.01,-0.01 -0.04,-0.01 -0.01,-0.01 -0.04,-0.01 -0.01,0.01 h -0.02 l -0.02,0.01 h -0.02 l -0.02,-0.01 -0.01,-0.01 -0.02,-0.01 h -0.01 l 0.01,-0.04 v -0.03 -0.02 -0.03 l -0.03,-0.03 -0.02,-0.03 -0.04,-0.03 -0.04,-0.03 -0.04,-0.02 -0.04,-0.02 -0.04,-0.01 h -0.04 l -0.06,-0.01 -0.01,-0.01 -0.01,-0.01 -0.02,-0.01 -0.01,-0.02 -0.01,-0.01 -0.01,-0.01 -0.01,-0.02 -0.01,-0.01 -0.01,-0.01 -0.01,-0.01 h -0.02 l -0.01,-0.01 -0.02,-0.01 -0.01,-0.01 -0.01,-0.01 h -0.02 l -0.01,-0.02 h -0.02 l -0.01,-0.01 -0.01,-0.02 -0.01,-0.01 -0.02,-0.01 -0.01,-0.01 -0.01,-0.02 v -0.01 -0.02 -0.01 -0.02 -0.01 l 0.01,-0.02 0.02,-0.01 h 0.02 0.01 0.02 0.01 l 0.02,0.01 0.02,0.01 h 0.01 l 0.01,0.01 h 0.02 l 0.03,0.01 0.02,0.01 h 0.01 l 0.02,0.01 0.01,0.01 h 0.02 l 0.03,0.02 0.02,0.01 h 0.01 l 0.01,0.01 H 396 l 0.01,0.01 0.02,0.01 h 0.02 l 0.01,0.01 0.02,0.01 0.03,0.01 0.01,0.01 h 0.02 l 0.02,0.01 h 0.01 l 0.02,0.01 0.02,0.01 h 0.01 l 0.02,0.01 h 0.02 l 0.01,0.01 h 0.02 l 0.01,0.01 0.02,0.01 h 0.02 0.02 0.01 l 0.02,-0.01 0.04,-0.01 0.01,-0.01 0.02,-0.01 0.01,-0.01 0.02,-0.01 h 0.01 l 0.02,-0.01 0.01,-0.01 h 0.02 l 0.02,-0.01 0.02,-0.01 h 0.02 l 0.01,-0.01 h 0.02 l 0.02,-0.01 h 0.01 0.02 l 0.02,-0.01 h 0.02 0.01 0.02 0.02 0.01 0.02 0.02 0.02 0.01 0.02 0.02 0.01 0.02 0.02 l 0.02,0.01 h 0.01 0.06 0.03 l 0.03,0.01 h 0.02 0.02 0.02 0.01 0.02 0.01 0.01 0.01 0.04 0.02 l 0.01,0.01 h 0.02 0.02 l 0.02,0.01 h 0.01 l 0.02,0.01 0.02,0.02 h 0.01 v 0.01 l 0.01,0.01 0.01,0.01 0.02,0.02 0.01,0.01 0.01,0.01 0.01,0.02 0.01,0.01 0.02,0.01 0.01,0.02 0.01,0.01 0.01,0.01 0.02,0.01 v 0.01 h 0.02 l 0.01,0.01 0.02,0.01 0.02,0.01 v 0 h 0.02 l 0.01,0.01 h 0.02 0.01 l 0.02,0.01 h 0.02 l 0.01,0.01 h 0.01 l 0.01,0.01 h 0.07 0.01 v -0.01 -0.02 -0.02 -0.03 -0.02 l -0.01,-0.01 v -0.01 -0.02 -0.02 l -0.01,-0.02 v -0.01 -0.02 -0.01 l -0.01,-0.02 v -0.02 l -0.01,-0.01 v -0.02 l -0.01,-0.03 -0.01,-0.02 -0.01,-0.02 v -0.01 l -0.01,-0.02 v -0.02 l -0.02,-0.03 0.24,-0.14 h 0.01 l 0.01,-0.01 0.02,-0.01 0.01,-0.01 0.02,-0.02 0.01,-0.01 0.01,-0.01 0.01,-0.02 0.01,-0.01 0.02,-0.01 0.01,-0.02 0.02,-0.02 0.01,-0.01 v 0 l 0.01,-0.01 0.01,-0.01 0.01,-0.01 0.01,-0.02 0.01,-0.01 0.01,-0.02 0.01,-0.01 0.02,-0.02 0.01,-0.02 0.01,-0.01 0.02,-0.01 0.01,-0.01 0.02,-0.01 0.01,-0.01 0.02,-0.01 h 0.01 0.01 l 0.02,-0.01 h 0.01 l 0.02,-0.01 h 0.02 l 0.05,-0.01 -0.19,-1.53 -0.58,-0.78 0.16,-0.48 -0.46,-1.4 -0.01,-0.02 v -0.01 l -0.01,-0.02 -0.01,-0.02 -0.01,-0.02 -0.01,-0.01 -0.01,-0.02 -0.01,-0.01 -0.01,-0.02 -0.02,-0.01 -0.01,-0.01 -0.01,-0.02 -0.01,-0.01 -0.02,-0.01 -0.06,-0.06 -0.11,-0.3 h 0.02 0.01 0.02 0.02 0.01 0.02 l 0.02,-0.01 h 0.02 0.01 l 0.02,-0.01 h 0.02 0.02 0.01 0.04 0.02 l 0.01,-0.01 h 0.04 0.02 l 0.01,-0.01 h 0.02 0.02 0.02 l 0.01,-0.01 h 0.02 0.02 l 0.02,-0.01 h 0.01 0.02 l 0.02,-0.01 h 0.01 l 0.02,-0.01 h 0.01 l 0.02,-0.01 h 0.02 0.01 0.01 0.02 l 0.01,0.01 h 0.02 0.02 l 0.03,0.01 h 0.02 l 0.04,0.01 h 0.03 l 0.02,0.01 h 0.03 l 0.02,0.01 h 0.02 0.03 l 0.01,0.01 h 0.02 l 0.02,0.01 h 0.02 0.02 l 0.02,0.01 h 0.02 0.01 l 0.04,0.01 0.01,0.01 h 0.02 0.01 l 0.02,0.01 h 0.02 0.01 l 0.03,0.01 h 0.02 l 0.02,0.01 h 0.02 0.02 l 0.03,0.01 h 0.02 0.02 l 0.03,0.01 0.04,0.01 0.07,0.02 0.02,0.17 h 0.01 0.02 0.02 0.01 0.01 l 0.02,-0.01 h 0.04 0.01 0.02 0.02 0.01 0.02 0.02 0.02 0.03 0.07 0.02 0.01 0.04 0.02 0.01 0.02 0.02 0.02 0.01 0.02 0.01 0.02 0.02 0.03 l 0.02,0.01 h 0.02 0.02 0.01 0.03 0.02 0.02 l 0.01,0.01 h 0.04 0.02 0.01 0.02 l 0.02,0.01 h 0.02 0.01 v 0 h 0.01 0.02 0.02 0.02 0.01 0.02 l 0.02,-0.01 h 0.02 l 0.01,0.01 h 0.02 0.01 0.02 0.02 0.01 l 0.02,0.01 h 0.02 0.01 l 0.02,0.01 h 0.02 0.01 0.02 l 0.02,0.01 h 0.02 0.01 l 0.03,0.01 0.01,-0.01 h 0.01 l 0.02,-0.01 h 0.01 0.02 l 0.02,-0.01 h 0.02 0.01 l 0.02,-0.01 h 0.01 0.02 0.02 l 0.02,-0.01 h 0.01 0.02 0.02 0.02 0.01 l 0.02,0.01 h 0.02 l 0.02,0.01 h 0.01 0.01 0.02 0.02 0.01 0.02 0.02 0.02 0.01 0.02 0.02 0.02 l 0.03,-0.01 h 0.04 0.01 0.01 0.02 l 0.04,-0.01 h 0.01 0.02 0.02 0.02 0.02 0.02 0.01 l 0.02,-0.01 h 0.02 0.02 0.01 0.02 0.02 0.02 0.01 l 0.02,0.01 h 0.02 0.02 0.01 0.02 0.02 0.02 0.01 0.02 0.02 l 0.02,0.01 h 0.01 0.02 0.02 l 0.02,0.01 h 0.01 l 0.11,0.03 0.17,-0.17 0.01,-0.01 0.01,-0.01 0.01,-0.01 0.02,-0.02 V 237 l 0.01,-0.01 0.02,-0.01 0.01,-0.02 0.01,-0.01 0.01,-0.01 0.02,-0.01 0.01,-0.01 0.02,-0.01 0.01,-0.01 0.02,-0.01 0.01,-0.01 0.01,-0.01 h 0.02 l 0.01,-0.01 0.02,-0.01 0.02,-0.01 v 0 l 0.02,-0.01 h 0.02 l 0.01,-0.01 0.02,-0.01 h 0.01 l 0.02,-0.01 h 0.02 l 0.02,-0.01 h 0.01 l 0.02,-0.01 h 0.02 0.02 l 0.01,-0.01 h 0.02 0.02 0.08 l 0.01,-0.01 v -0.01 l 0.01,-0.02 0.01,-0.01 0.01,-0.02 0.01,-0.01 0.01,-0.02 0.01,-0.01 0.01,-0.02 0.01,-0.01 0.01,-0.02 0.01,-0.01 0.01,-0.02 0.01,-0.01 0.01,-0.01 0.01,-0.02 0.01,-0.02 0.01,-0.01 0.01,-0.01 0.01,-0.02 0.02,-0.01 0.03,-0.04 0.01,-0.01 0.01,-0.02 0.02,-0.01 0.03,-0.03 0.03,-0.04 0.02,-0.03 0.01,-0.01 0.01,-0.02 0.03,-0.02 0.02,-0.03 0.02,-0.02 0.03,-0.03 0.02,-0.02 0.03,-0.03 0.21,-0.52 0.01,-0.02 0.01,-0.01 0.02,-0.02 0.01,-0.02 0.03,-0.03 0.02,-0.03 0.01,-0.01 0.01,-0.02 0.02,-0.01 0.01,-0.01 0.02,-0.03 0.01,-0.01 0.01,-0.02 0.01,-0.01 0.02,-0.02 0.01,-0.01 0.01,-0.02 0.01,-0.01 0.01,-0.01 0.02,-0.03 0.01,-0.02 0.01,-0.01 v -0.01 l 0.01,-0.02 0.03,-0.02 0.01,-0.02 0.01,-0.01 0.01,-0.02 v -0.01 l 0.01,-0.02 0.01,-0.01 0.01,-0.02 0.02,-0.03 0.02,-0.03 v -0.01 l 0.01,-0.02 0.04,-0.06 0.01,-0.03 h 0.01 l 0.01,-0.02 0.02,-0.04 0.02,-0.03 0.01,-0.02 0.01,-0.01 0.01,-0.02 0.01,-0.02 v -0.01 l 0.01,-0.01 0.01,-0.02 0.01,-0.02 v -0.01 l 0.02,-0.03 0.01,-0.02 v -0.01 l 0.01,-0.02 0.02,-0.03 0.01,-0.03 0.01,-0.02 0.02,-0.03 0.02,-0.03 v -0.02 l 0.01,-0.01 0.01,-0.02 0.01,-0.01 0.01,-0.02 v -0.02 l 0.01,-0.01 v -0.01 l 0.01,-0.02 0.01,-0.01 v -0.02 l 0.01,-0.02 0.01,-0.01 v -0.02 l 0.01,-0.01 v -0.02 -0.02 l 0.01,-0.01 v -0.02 l 0.01,-0.02 v -0.01 -0.02 l 0.01,-0.02 v -0.02 l 0.01,-0.01 v -0.03 l 0.01,-0.01 v -0.01 -0.02 l 0.01,-0.03 0.01,-0.03 0.01,-0.02 v -0.02 -0.01 l 0.01,-0.02 v -0.02 -0.02 l 0.01,-0.01 v -0.02 -0.02 -0.02 -0.01 -0.02 -0.02 l 0.01,-0.03 v -0.02 -0.02 -0.01 l 0.01,-0.04 v -0.01 -0.04 -0.02 l 0.01,-0.03 v -0.02 -0.02 -0.02 l 0.01,-0.03 v -0.02 -0.02 -0.01 -0.02 -0.02 -0.02 l 0.01,-0.03 v -0.02 -0.02 -0.01 -0.02 -0.02 -0.02 l 0.01,-0.02 v -0.03 -0.02 -0.02 l 0.01,-0.01 v -0.02 -0.02 -0.02 l 0.01,-0.01 v -0.03 -0.01 -0.02 -0.02 -0.02 -0.01 -0.02 -0.01 l 0.01,-0.02 v -0.01 -0.02 l 0.01,-0.02 v -0.02 -0.02 -0.01 -0.02 -0.02 -0.02 -0.01 -0.02 -0.02 -0.01 -0.02 -0.02 l 0.01,-0.02 v -0.02 -0.02 -0.01 l 0.01,-0.02 v -0.02 -0.01 -0.01 l 0.01,-0.02 v -0.02 l 0.01,-0.01 v -0.02 l 0.01,-0.02 0.01,-0.02 0.01,-0.03 0.01,-0.03 v -0.02 l 0.01,-0.02 v -0.02 l 0.02,-0.05 v -0.02 l 0.01,-0.02 0.02,-0.04 0.01,-0.04 v -0.02 l 0.01,-0.01 v -0.02 l 0.01,-0.02 v -0.02 l 0.01,-0.01 v -0.02 l 0.01,-0.04 0.01,-0.01 0.01,-0.04 v -0.02 l 0.02,-0.06 v -0.01 l 0.01,-0.04 0.01,-0.01 0.01,-0.04 0.01,-0.06 0.01,-0.02 v -0.02 l 0.01,-0.01 v -0.02 -0.02 l 0.01,-0.02 v -0.02 -0.02 l 0.01,-0.02 v -0.03 -0.02 -0.01 l 0.01,-0.04 v -0.05 l 0.01,-0.05 0.01,-0.02 v -0.01 -0.02 -0.03 l 0.01,-0.02 v -0.02 l 0.01,-0.03 v -0.04 l 0.01,-0.04 v -0.02 l 0.01,-0.02 v -0.02 -0.01 l 0.01,-0.02 v -0.02 l 0.01,-0.03 0.01,-0.04 v -0.02 l 0.01,-0.03 0.01,-0.04 v -0.03 l 0.01,-0.04 0.01,-0.03 0.01,-0.04 0.01,-0.03 v -0.02 l 0.01,-0.01 0.04,-0.1 -0.05,-0.07 z"
       id="path65" />
  </g>
</svg>
