<?xml version="1.0" encoding="UTF-8" standalone="no"?>
<svg
   version="1.2"
   width="800"
   height="642"
   viewBox="0 0 800 642"
   stroke-linecap="round"
   stroke-linejoin="round"
   id="svg86"
   sodipodi:docname="Arboti-Zohota.svg"
   inkscape:version="1.1.2 (b8e25be833, 2022-02-05)"
   xmlns:inkscape="http://www.inkscape.org/namespaces/inkscape"
   xmlns:sodipodi="http://sodipodi.sourceforge.net/DTD/sodipodi-0.dtd"
   xmlns="http://www.w3.org/2000/svg"
   xmlns:svg="http://www.w3.org/2000/svg">
  <defs
     id="defs90" />
  <sodipodi:namedview
     id="namedview88"
     pagecolor="#ffffff"
     bordercolor="#666666"
     borderopacity="1.0"
     inkscape:pageshadow="2"
     inkscape:pageopacity="0.0"
     inkscape:pagecheckerboard="0"
     showgrid="false"
     inkscape:zoom="1.3146417"
     inkscape:cx="399.72867"
     inkscape:cy="321"
     inkscape:window-width="1848"
     inkscape:window-height="1043"
     inkscape:window-x="72"
     inkscape:window-y="0"
     inkscape:window-maximized="1"
     inkscape:current-layer="svg86" />
  <g
     id="Arboti-Zohota"
     transform="matrix(16.727986,0,0,16.727986,-11153.344,-844.90744)">
    <path
       d="m 695.29,58.78 -0.01,-0.01 -0.02,-0.02 v -0.03 l 0.01,-0.03 0.02,-0.04 0.02,-0.03 0.03,-0.04 0.01,-0.05 V 58.5 58.46 l -0.01,-0.03 V 58.4 l 0.01,-0.04 0.08,-0.17 0.03,-0.05 0.03,-0.02 0.01,-0.03 v -0.01 l -0.03,-0.01 -0.01,-0.02 -0.01,-0.02 -0.01,-0.02 0.02,-0.02 0.02,-0.02 0.04,-0.03 0.04,-0.01 0.04,-0.01 0.02,-0.02 0.01,-0.02 0.01,-0.03 V 57.82 57.79 57.78 57.75 57.73 57.72 57.7 l -0.01,-0.02 -0.02,-0.01 -0.03,-0.01 -0.04,-0.01 h -0.02 l -0.03,-0.02 -0.02,-0.02 -0.02,-0.03 -0.03,-0.02 -0.03,-0.03 -0.04,-0.01 -0.03,-0.02 -0.03,-0.01 -0.03,-0.01 -0.03,-0.02 -0.03,-0.02 -0.01,-0.03 -0.02,-0.03 -0.02,-0.01 -0.03,-0.01 h -0.04 l -0.04,-0.01 h -0.02 l -0.01,-0.02 -0.02,-0.03 v -0.03 l -0.01,-0.02 -0.02,-0.02 -0.01,-0.02 -0.01,-0.02 -0.02,-0.02 -0.03,-0.02 -0.03,-0.01 -0.03,-0.02 -0.02,-0.02 -0.02,-0.02 -0.01,-0.02 -0.01,-0.02 V 57 56.96 l -0.01,-0.03 v -0.04 l 0.01,-0.02 0.02,-0.02 0.03,-0.02 0.03,-0.02 0.02,-0.04 0.01,-0.04 0.01,-0.03 0.02,-0.02 0.01,-0.03 v -0.04 -0.04 -0.02 -0.01 -0.02 l -0.01,-0.03 -0.02,-0.02 -0.03,-0.04 -0.16,-0.12 -0.02,-0.02 -0.01,-0.02 v -0.03 l 0.01,-0.03 0.01,-0.03 v -0.04 l 0.01,-0.02 0.01,-0.04 0.03,-0.02 0.02,-0.03 0.01,-0.02 0.02,-0.03 v -0.03 l -0.01,-0.03 -0.03,-0.03 -0.01,-0.04 -0.02,-0.04 -0.01,-0.03 v -0.04 -0.03 l -0.01,-0.03 v -0.03 l -0.01,-0.03 -0.01,-0.03 v -0.03 -0.03 l 0.02,-0.03 0.03,-0.02 0.04,-0.02 0.03,-0.03 0.03,-0.02 0.03,-0.02 0.02,-0.03 0.01,-0.03 V 55.3 l -0.03,-0.02 -0.04,-0.01 -0.03,-0.01 -0.02,-0.02 -0.02,-0.03 v -0.03 l -0.01,-0.05 -0.03,-0.04 -0.03,-0.07 -0.02,-0.02 -0.02,-0.02 -0.03,-0.01 -0.05,-0.02 h -0.04 l -0.05,-0.01 h -0.08 -0.09 l -0.04,-0.01 h -0.01 l -0.01,-0.02 -0.02,-0.02 -0.02,-0.04 -0.01,-0.03 0.13,-0.25 -0.01,-0.12 -0.14,-0.2 0.02,-0.02 0.03,-0.03 0.01,-0.01 0.01,-0.03 0.01,-0.04 0.02,-0.04 0.03,-0.04 0.02,-0.03 0.05,-0.03 0.04,-0.03 0.02,-0.01 0.01,-0.01 0.02,-0.02 0.02,-0.02 0.02,-0.03 0.03,-0.04 0.05,-0.04 0.04,-0.03 0.03,-0.02 0.04,-0.01 h 0.02 0.05 l 0.08,0.01 0.02,-0.01 h 0.02 0.02 l 0.32,0.74 0.31,0.71 0.32,0.72 0.31,0.71 0.04,0.07 0.08,0.19 0.28,0.17 0.82,0.47 0.83,0.47 0.83,0.47 0.82,0.47 0.24,0.15 0.1,-0.08 0.51,-0.3 -0.11,-0.1 0.06,-0.14 h 0.03 l 0.17,0.11 0.21,0.27 0.12,0.22 0.13,0.24 -0.15,0.07 -0.1,0.06 -0.02,0.02 v 0.02 l -0.01,0.03 0.43,0.33 0.95,0.8 0.09,0.03 h 0.02 l 0.02,0.02 0.02,0.04 0.66,0.48 0.22,0.67 0.04,0.19 0.02,0.16 0.05,0.2 0.05,0.18 0.01,0.05 v 0.04 0.02 l 0.17,0.7 0.17,0.69 0.27,0.39 0.13,0.26 0.14,0.14 0.25,0.31 0.25,0.37 0.25,0.38 0.24,0.38 0.19,0.21 0.08,0.04 0.02,0.03 0.29,0.21 0.62,0.49 0.54,0.77 0.4,0.5 0.42,0.5 0.65,0.73 0.09,0.4 v 0.03 l -0.07,0.51 0.17,0.44 0.03,0.16 0.06,0.4 0.05,0.55 0.05,0.55 0.06,0.55 -0.02,0.01 -0.01,0.02 -0.03,0.04 -0.03,0.05 -0.11,0.14 v 0.01 l -0.01,0.01 0.01,0.01 -0.34,0.35 -0.13,0.21 -0.9,0.91 -0.1,0.04 -0.04,0.02 h -0.01 -0.02 l -0.14,0.05 -0.17,0.08 -0.06,0.03 0.04,0.63 -0.06,0.25 -0.07,0.14 -0.24,0.06 -0.04,0.01 -0.04,0.02 -0.02,0.01 -0.03,0.03 -0.03,0.03 -0.03,0.04 -0.06,0.06 -0.09,0.09 -0.01,0.01 -0.15,-0.08 -0.19,0.14 -0.3,-0.02 -0.1,0.08 -0.11,0.37 -0.16,0.26 -0.59,-0.22 -0.36,0.17 -0.65,-0.31 -0.23,-0.22 -0.23,-0.03 -0.23,-0.08 -0.26,0.07 -0.08,0.16 -0.48,0.07 -0.05,-0.22 -0.27,-0.03 0.13,-0.53 h -0.03 l -0.04,-0.01 -0.03,-0.01 -0.05,-0.01 h -0.05 l -0.03,-0.01 -0.07,-0.01 -0.03,-0.01 -0.03,-0.01 -0.03,-0.01 -0.02,-0.01 -0.07,-0.02 -0.03,0.01 -0.02,-0.01 h -0.03 -0.02 -0.02 -0.02 L 701.4,76.2 h -0.01 -0.03 -0.02 -0.03 l -0.04,0.01 -0.04,0.01 -0.03,0.01 -0.04,0.02 -0.04,0.02 -0.03,0.01 -0.05,0.03 -0.04,0.01 -0.03,0.02 -0.04,0.01 -0.03,0.01 -0.03,0.01 h -0.03 l -0.09,0.03 -0.03,0.01 -0.03,0.02 -0.03,0.01 h -0.03 -0.04 l -0.04,0.01 h -0.03 l -0.03,0.01 -0.04,0.02 h -0.04 l -0.03,0.01 h -0.04 l -0.04,-0.01 -0.03,0.01 -0.05,0.01 h -0.04 -0.03 l -0.05,0.01 -0.03,0.01 h -0.04 l -0.03,0.01 -0.03,0.02 -0.03,0.02 -0.04,0.01 h -0.04 l -0.04,0.01 -0.05,0.01 -0.03,0.01 h -0.03 -0.04 -0.09 l -0.62,-0.28 -0.2,0.09 -0.3,0.23 -0.13,-0.01 -0.05,-0.05 0.08,-0.31 -0.27,-0.19 -0.06,-0.06 -0.15,-0.12 -0.7,-0.2 -0.27,-0.12 0.03,-0.09 0.06,-0.08 0.06,0.02 0.11,0.13 0.04,-0.02 0.12,-0.29 0.19,-0.08 0.52,-0.11 0.08,-0.05 0.06,-0.13 0.06,-0.27 0.3,-0.16 -0.2,-0.46 -0.15,-0.24 0.26,-0.2 0.16,-0.14 0.01,-0.01 -0.34,-0.29 -0.08,0.03 -0.08,0.16 -0.12,0.08 -0.25,-0.29 -0.31,0.09 -0.06,0.05 -0.05,0.19 -0.08,0.09 -0.09,-0.01 -0.18,-0.16 -0.27,0.02 0.03,-0.11 0.05,-0.13 0.05,-0.21 -0.03,-0.25 0.06,-0.05 0.05,-0.03 0.05,-0.05 0.02,-0.03 0.04,-0.02 0.04,-0.02 0.01,-0.01 v -0.03 l -0.01,-0.03 -0.03,-0.01 -0.02,-0.01 -0.03,-0.03 -0.11,-0.21 v -0.02 -0.03 -0.03 l -0.22,-0.27 -0.05,-0.07 -0.01,-0.02 -0.01,-0.03 -0.21,-0.25 -0.03,-0.03 h -0.03 l -0.05,-0.03 -0.04,-0.04 -0.2,-0.15 -0.27,-0.07 -0.14,-0.18 -0.34,-0.1 0.03,-0.14 0.13,-0.36 0.01,-0.09 -0.34,-0.35 0.06,-0.05 0.08,-0.05 0.18,-0.09 0.05,-0.03 0.17,-0.09 0.17,-0.09 0.01,-0.01 -0.27,-0.39 0.02,-0.15 0.09,-0.21 -0.02,-0.07 -0.18,-0.04 -0.33,0.02 -0.12,0.08 -0.04,0.09 -0.13,-0.01 -0.07,-0.07 v -0.17 l 0.18,-0.49 0.04,-0.04 0.05,0.02 0.17,0.13 0.23,0.07 0.16,-0.01 -0.02,-0.09 -0.21,-0.16 -0.09,-0.06 v -0.06 l 0.05,-0.02 0.31,-0.02 0.15,-0.09 0.16,-0.24 0.17,-0.44 0.06,-0.21 0.45,0.11 v -0.02 l 0.05,-0.12 0.03,-0.11 0.01,-0.13 0.01,-0.17 v -0.05 l -0.18,-0.03 -0.31,-0.1 v -0.06 l 0.21,-0.27 -0.03,-0.16 -0.09,-0.15 -0.01,-0.16 0.06,-0.07 h 0.16 l 0.09,0.01 h 0.07 l 0.09,-0.16 0.07,-0.14 -0.05,-0.15 0.02,-0.49 0.16,-0.45 -0.02,-0.01 -0.06,-0.03 -0.06,-0.03 -0.07,-0.04 -0.03,-0.03 -0.03,-0.03 -0.03,-0.04 -0.02,-0.04 -0.01,-0.02 -0.02,-0.02 -0.05,-0.04 -0.07,-0.05 -0.1,-0.07 -0.05,-0.04 -0.05,-0.04 -0.05,-0.03 -0.08,-0.05 -0.05,-0.03 -0.12,-0.06 -0.08,-0.05 -0.05,-0.02 -0.03,-0.02 -0.06,-0.03 -0.13,-0.1 -0.09,-0.07 -0.08,-0.06 -0.05,-0.04 -0.01,-0.01 -0.01,-0.02 -0.01,-0.07 -0.21,-0.07 0.18,-0.19 V 62.5 l 0.02,-0.04 0.01,-0.03 v -0.02 l -0.01,-0.02 -0.01,-0.05 -0.02,-0.08 -0.02,-0.09 -0.02,-0.07 -0.01,-0.07 -0.02,-0.06 -0.01,-0.04 0.27,-0.05 0.27,0.02 0.01,0.12 0.38,0.08 0.01,-0.06 v -0.15 -0.12 l 0.01,-0.08 0.01,-0.11 0.03,-0.31 v -0.21 l 0.02,-0.09 0.01,-0.06 0.02,-0.07 0.02,-0.07 0.03,-0.07 0.08,-0.09 0.07,-0.08 0.09,-0.1 0.05,-0.07 0.04,-0.07 0.02,-0.03 0.03,-0.05 0.02,-0.04 0.05,-0.09 0.2,-0.42 -0.01,-0.01 -0.01,-0.02 -0.02,-0.05 v -0.01 l -0.01,-0.03 -0.02,-0.01 -0.01,-0.01 -0.01,-0.02 -0.02,-0.01 -0.01,-0.02 -0.01,-0.02 v -0.02 -0.02 l -0.01,-0.02 0.01,-0.04 v -0.03 l 0.01,-0.02 -0.01,-0.03 -0.03,-0.01 h -0.03 -0.03 -0.04 l -0.04,0.01 h -0.03 l -0.06,0.02 -0.09,0.02 -0.09,0.04 -0.04,0.01 -0.03,0.01 -0.02,0.01 h -0.03 -0.05 l -0.04,-0.02 -0.04,-0.03 -0.04,-0.02 -0.05,-0.02 -0.05,-0.02 -0.05,-0.01 -0.04,-0.02 -0.04,-0.02 -0.04,-0.04 -0.02,-0.03 -0.02,-0.04 -0.02,-0.04 -0.01,-0.03 V 59 58.98 58.94 l -0.01,-0.03 -0.03,-0.04 -0.03,-0.03 -0.02,-0.03 -0.01,-0.02 -0.03,-0.01 h -0.03 l -0.03,0.02 -0.02,0.01 -0.03,-0.01 -0.03,-0.02 -0.02,-0.03 h -0.03 -0.03 l -0.02,0.03 -0.02,0.02 h -0.02 -0.03 l -0.02,-0.03 -0.01,-0.03 h -0.01 l -0.02,0.01 v 0.03 l -0.01,0.02 -0.03,-0.01 z"
       id="path83" />
  </g>
</svg>
