<?xml version="1.0" encoding="UTF-8" standalone="no"?>
<svg
   version="1.2"
   width="800"
   height="642"
   viewBox="0 0 800 642"
   stroke-linecap="round"
   stroke-linejoin="round"
   id="svg77"
   sodipodi:docname="Arbona.svg"
   inkscape:version="1.1.2 (b8e25be833, 2022-02-05)"
   xmlns:inkscape="http://www.inkscape.org/namespaces/inkscape"
   xmlns:sodipodi="http://sodipodi.sourceforge.net/DTD/sodipodi-0.dtd"
   xmlns="http://www.w3.org/2000/svg"
   xmlns:svg="http://www.w3.org/2000/svg">
  <defs
     id="defs81" />
  <sodipodi:namedview
     id="namedview79"
     pagecolor="#ffffff"
     bordercolor="#666666"
     borderopacity="1.0"
     inkscape:pageshadow="2"
     inkscape:pageopacity="0.0"
     inkscape:pagecheckerboard="0"
     showgrid="false"
     inkscape:zoom="1.3146417"
     inkscape:cx="399.72867"
     inkscape:cy="199.29384"
     inkscape:window-width="1848"
     inkscape:window-height="1043"
     inkscape:window-x="72"
     inkscape:window-y="0"
     inkscape:window-maximized="1"
     inkscape:current-layer="svg77" />
  <g
     id="Arbona"
     transform="matrix(13.342908,0,0,13.342908,-6663.1632,-551.88408)">
    <path
       d="m 543.43,41.86 h 0.03 l 0.3,-0.02 0.06,-0.01 h 0.22 0.01 l -0.01,0.07 v 0.04 l -0.01,0.04 -0.01,0.11 -0.05,0.36 0.01,0.07 v 0.04 0.04 l -0.01,0.04 0.01,0.05 0.01,0.02 0.01,0.02 0.01,0.02 0.03,0.03 0.02,0.02 0.02,0.02 0.01,0.03 0.02,0.09 0.02,0.05 0.01,0.03 0.03,0.06 0.01,0.03 0.01,0.02 0.02,0.02 0.02,0.02 0.09,0.07 0.03,0.03 0.01,0.01 0.03,0.02 0.01,0.02 0.01,0.02 v 0.03 0.03 0.02 l 0.01,0.04 0.01,0.01 0.02,0.01 0.02,0.01 0.09,0.19 0.03,0.06 -0.04,0.36 -0.03,0.27 -0.02,0.11 -0.08,0.09 -0.01,0.01 -0.02,0.01 h -0.02 l 0.02,0.04 0.02,0.02 -0.11,0.16 0.02,0.04 v 0.07 l -0.01,0.09 -0.1,0.02 -0.05,0.01 -0.01,0.16 0.09,0.03 0.04,0.03 0.34,0.19 v 0.02 0.03 0.03 0.03 l 0.03,0.23 0.58,0.07 0.22,0.17 v 0.01 0.02 l 0.01,0.02 0.06,0.13 0.01,0.02 0.02,0.02 0.13,0.28 0.02,0.05 0.01,-0.01 0.24,0.46 0.09,0.16 0.04,0.1 0.21,0.42 0.12,0.25 0.01,0.21 0.01,0.09 -0.06,0.04 -0.06,0.03 -0.01,0.01 -0.02,0.01 -0.02,0.01 -0.01,0.02 -0.02,0.01 -0.01,0.01 -0.02,0.02 -0.01,0.02 -0.01,0.01 -0.01,0.01 -0.01,0.01 -0.01,0.02 -0.02,0.01 -0.02,0.04 -0.01,0.02 -0.02,0.02 v 0.01 l -0.01,0.01 -0.01,0.01 -0.01,0.02 v 0.01 l -0.01,0.02 -0.01,0.02 -0.01,0.01 v 0.01 l -0.01,0.01 v 0.02 H 546 l -0.01,0.03 -0.01,0.03 -0.01,0.06 -0.02,0.08 -0.03,0.06 -0.01,0.03 v 0.01 l -0.01,0.03 v 0.03 l -0.01,0.02 v 0.01 0.03 0.02 0.01 l -0.01,0.02 v 0.01 0.01 l 0.01,0.01 v 0.02 0.01 0.02 0.03 0.01 l 0.01,0.02 -0.02,0.01 h -0.02 l -0.01,0.01 v 0.01 l -0.01,0.02 -0.01,0.01 v 0.01 l -0.02,0.01 -0.01,0.01 -0.01,0.02 -0.01,0.02 -0.03,0.07 v 0.02 l -0.01,0.01 -0.01,0.01 -0.01,0.02 -0.01,0.01 v 0.01 l -0.01,0.01 v 0.02 0.02 0.02 0.02 0.02 l -0.01,0.02 -0.01,0.01 v 0.02 l 0.01,0.02 v 0.04 l 0.01,0.04 v 0.03 0.03 l 0.01,0.03 v 0.01 l 0.02,0.09 0.01,0.06 v 0.04 l 0.01,0.02 0.01,0.02 0.01,0.02 v 0.01 l 0.01,0.03 -0.13,-0.02 -0.03,0.12 -0.07,0.19 -0.03,0.03 -0.01,0.01 -0.09,-0.01 -0.15,-0.02 h -0.02 l -0.19,-0.02 -0.27,-0.01 -0.16,0.27 -0.11,0.19 -0.18,0.31 -0.07,0.12 -0.01,0.01 -0.01,0.02 -0.01,0.01 v 0.01 l -0.01,0.01 v 0.02 l 0.01,0.02 0.01,0.02 v 0.01 h 0.01 v 0 l 0.01,0.01 v 0.01 l 0.01,0.02 v 0 l 0.01,0.01 h 0.01 0.01 0.01 0.01 0.01 l 0.03,0.01 0.01,0.01 0.01,0.01 0.01,0.01 h 0.01 l 0.01,0.02 v 0.01 0.01 0.02 0.01 0.01 l -0.01,0.02 v 0.01 0.01 0.02 0.01 l 0.01,0.01 0.02,0.02 0.01,0.01 0.01,0.01 v 0.01 l 0.01,0.05 v 0.02 0.01 0.01 l 0.02,0.02 V 52 52.01 l -0.01,0.02 -0.01,0.02 0.01,0.03 h -0.02 l -0.31,0.06 -0.12,0.05 0.02,0.15 0.01,0.21 0.05,0.24 0.04,0.15 0.02,0.09 v 0.03 h 0.06 l 0.04,0.02 0.04,-0.01 0.05,0.01 h 0.01 l 0.03,0.01 0.02,0.02 0.03,0.02 h 0.03 l 0.03,-0.01 0.01,0.33 0.39,0.58 0.14,0.29 0.01,0.01 0.02,0.11 0.05,0.14 0.01,0.07 -0.09,0.02 0.03,0.17 0.08,0.18 0.03,-0.03 0.04,-0.02 0.03,-0.02 0.16,0.34 0.04,-0.02 0.05,-0.02 0.04,-0.02 h 0.04 0.04 0.02 l 0.07,0.01 h 0.03 0.04 l 0.08,0.01 0.04,-0.01 0.03,0.01 h 0.07 0.04 0.05 l 0.02,-0.01 0.03,-0.03 0.04,-0.02 0.04,-0.01 0.04,-0.01 0.05,-0.01 0.04,-0.02 h 0.03 l 0.02,-0.02 0.03,-0.02 0.03,-0.03 h 0.02 l 0.03,-0.01 h 0.02 l 0.04,0.06 0.06,0.01 0.04,0.01 0.01,0.01 0.01,0.03 0.01,0.06 0.01,0.04 0.01,0.06 -0.01,0.04 v 0.02 l -0.01,0.03 -0.04,0.04 -0.03,0.02 -0.03,0.04 -0.01,0.04 -0.01,0.03 v 0.01 0.02 l 0.03,0.02 v 0.01 l 0.01,0.03 0.01,0.07 v 0.06 0.05 l -0.01,0.06 0.01,0.03 v 0.01 0.04 l 0.01,0.02 0.01,0.02 -0.01,0.02 -0.02,0.03 -0.01,0.01 v 0.01 l 0.01,0.01 0.01,0.01 0.01,0.01 -0.01,0.02 v 0.03 l 0.01,0.02 h 0.01 l 0.02,-0.02 0.01,0.01 0.01,0.01 0.01,0.02 0.01,0.02 h 0.02 0.04 0.02 l 0.02,0.02 v 0.02 0.02 l 0.01,0.02 0.01,0.01 0.01,0.02 0.01,0.01 0.01,0.02 v 0.01 l 0.01,0.04 0.01,0.01 0.01,0.04 0.01,0.05 0.01,0.03 -0.01,0.02 -0.01,0.03 -0.01,0.02 v 0.02 0.02 l 0.01,0.03 0.01,0.02 0.02,0.04 v 0.02 l -0.01,0.01 -0.02,0.02 -0.03,0.01 h -0.02 l -0.02,0.02 -0.03,0.03 -0.02,0.02 v 0.03 0.02 l -0.01,0.02 v 0.02 0.02 0.03 0.03 0.01 l -0.01,0.01 -0.01,0.02 0.01,0.01 v 0.01 l 0.01,0.02 v 0.02 0.02 0.03 0.02 l 0.03,0.02 0.02,0.02 0.02,0.02 0.01,0.01 0.01,0.01 0.01,0.03 0.02,0.03 0.02,0.07 0.02,0.06 0.01,0.02 v 0.02 0.01 0.03 l 0.01,0.03 v 0.03 l 0.01,0.01 v 0.01 h 0.01 0.01 0.01 l 0.01,0.01 0.01,0.02 v 0.01 l 0.01,0.03 0.02,0.06 0.02,0.06 0.03,0.08 0.02,0.05 0.02,0.02 0.01,0.02 0.01,0.01 v 0.01 0.03 0.02 0.03 0.04 l -0.01,0.03 -0.01,0.06 v 0.03 l -0.01,0.03 -0.01,0.03 -0.01,0.01 -0.01,0.02 -0.01,0.01 0.01,0.01 v 0.03 l -0.02,0.04 -0.01,0.01 v 0.02 l -0.01,0.02 -0.02,0.01 -0.01,0.03 -0.02,0.03 v 0.03 0.02 0.03 0.02 l -0.01,0.03 -0.02,0.01 -0.01,0.02 v 0.01 l 0.01,0.02 0.02,0.04 0.01,0.03 0.02,0.05 0.01,0.04 0.01,0.05 0.01,0.05 0.01,0.02 0.01,0.04 0.01,0.03 0.01,0.04 0.01,0.02 0.01,0.02 0.03,0.03 0.03,0.02 0.03,0.03 0.03,0.02 0.03,0.02 0.01,0.02 0.01,0.03 0.01,0.02 0.03,0.04 0.02,0.04 0.02,0.05 0.01,0.03 v 0.02 l 0.01,0.02 v 0.04 l 0.01,0.03 v 0.02 l 0.01,0.02 v 0.02 l 0.02,0.04 0.01,0.02 0.02,0.02 0.01,0.04 0.02,0.03 v 0.01 l 0.01,0.02 0.01,0.02 0.01,0.02 -0.01,0.03 V 60 l 0.01,0.02 v 0.02 0.03 l 0.01,0.03 -0.01,0.02 v 0.02 l -0.01,0.02 v 0.02 0.03 0.03 0.03 l -0.01,0.03 v 0.02 l -0.01,0.02 v 0.03 0.03 l 0.01,0.03 v 0.03 l 0.01,0.05 0.01,0.04 v 0.03 l 0.01,0.03 0.01,0.03 0.02,0.04 0.01,0.03 0.01,0.03 v 0.03 0.03 0.03 l -0.01,0.04 -0.01,0.04 v 0.03 l 0.01,0.04 v 0.03 l -0.01,0.03 v 0.03 0.03 0.02 0.01 l -0.01,0.03 -0.03,0.11 -0.2,0.11 -0.31,0.05 -0.07,0.05 -0.08,-0.01 -0.08,0.01 h -0.1 l -0.06,0.01 h -0.07 -0.06 l -0.05,-0.01 -0.06,-0.01 h -0.04 l -0.06,0.02 -0.04,0.03 -0.03,0.04 -0.04,0.03 -0.05,0.01 -0.05,0.03 -0.04,0.04 -0.05,0.08 -0.03,0.03 -0.03,0.04 -0.04,0.04 -0.03,0.03 -0.04,0.01 -0.05,0.03 -0.03,0.02 -0.02,0.01 -0.03,0.02 -0.03,0.02 h -0.05 l -0.04,0.02 h -0.03 -0.04 -0.05 -0.03 l -0.06,0.01 h -0.04 l -0.01,0.03 -0.02,0.02 -0.03,0.03 -0.02,0.03 -0.05,0.01 -0.02,0.01 -0.02,0.03 -0.01,0.03 -0.03,0.02 -0.04,0.01 -0.02,0.03 -0.02,0.03 -0.01,0.03 -0.03,0.03 -0.03,0.02 -0.03,0.03 -0.03,0.03 -0.03,0.04 -0.02,0.04 -0.01,0.03 -0.02,0.03 -0.01,0.05 v 0.03 l -0.02,0.05 -0.01,0.04 -0.01,0.03 -0.02,0.03 -0.04,0.01 h -0.03 l -0.03,0.03 v 0.03 l -0.01,0.03 -0.04,0.01 -0.02,0.03 -0.01,0.02 -0.02,0.03 -0.03,0.03 -0.03,0.01 -0.03,0.02 -0.03,0.03 -0.01,0.03 -0.01,0.03 -0.03,0.01 -0.02,0.03 -0.01,0.04 -0.01,0.03 -0.02,0.02 -0.09,-0.01 0.2,-0.84 -0.06,-0.06 -0.28,-0.23 -0.22,-0.14 -0.07,-0.05 -0.15,-0.11 -0.01,-0.03 -0.01,-0.02 -0.02,-0.06 -0.01,-0.06 -0.01,-0.03 -0.05,-0.16 -0.01,-0.02 v -0.03 l -0.03,-0.1 -0.05,-0.05 0.03,-0.01 0.02,-0.02 -0.01,-0.02 -0.36,-0.72 V 60.5 60.46 l -0.01,-0.09 v -0.05 -0.01 l -0.01,-0.05 -0.01,-0.03 -0.01,-0.04 -0.02,-0.14 -0.02,-0.25 v -0.02 -0.03 l -0.22,-0.22 -0.03,-0.07 v -0.03 l 0.01,-0.03 0.02,-0.05 0.02,-0.05 0.01,-0.02 -0.05,0.05 -0.06,-0.12 -0.04,-0.09 -0.08,-0.17 -0.04,-0.04 v -0.02 l 0.01,-0.17 0.01,-0.09 V 58.57 58.4 h 0.03 l 0.08,0.01 0.01,-0.01 -0.01,-0.09 -0.03,-0.2 -0.02,-0.11 h 0.14 l 0.06,0.01 -0.01,-0.02 -0.08,-0.14 -0.03,-0.06 -0.07,-0.13 -0.04,-0.05 -0.03,-0.02 -0.02,-0.02 -0.02,-0.04 -0.03,-0.05 -0.03,-0.04 -0.03,-0.02 -0.05,-0.01 -0.05,-0.02 -0.04,-0.03 -0.03,-0.02 -0.01,-0.01 -0.05,-0.02 -0.04,-0.02 -0.04,-0.04 -0.03,-0.04 -0.04,-0.05 -0.02,-0.02 -0.02,-0.03 -0.04,-0.05 -0.05,-0.05 -0.04,-0.04 -0.02,-0.04 -0.03,-0.03 -0.05,-0.03 -0.03,-0.02 -0.03,-0.02 -0.01,-0.01 -0.01,-0.02 -0.02,-0.01 -0.03,-0.02 -0.01,-0.02 -0.02,-0.02 -0.03,-0.02 -0.03,-0.04 -0.02,-0.01 -0.01,-0.01 -0.04,-0.02 -0.03,-0.02 -0.02,-0.01 h -0.02 l -0.09,-0.01 h -0.06 -0.03 l -0.02,0.01 -0.05,0.01 -0.05,0.01 -0.03,-0.02 -0.03,0.01 -0.03,0.02 -0.01,0.01 -0.02,0.02 -0.03,0.02 h -0.03 -0.01 -0.05 l -0.05,0.02 -0.03,0.01 h -0.04 l -0.06,0.01 h -0.04 -0.04 -0.01 l -0.06,-0.02 -0.07,-0.02 -0.06,-0.03 -0.08,-0.1 -0.03,-0.07 -0.01,-0.08 -0.02,-0.1 -0.05,-0.07 -0.07,-0.07 -0.01,-0.02 0.02,-0.03 0.01,-0.02 0.03,-0.03 0.04,-0.01 0.03,-0.07 h -0.07 l -0.04,-0.2 -0.01,-0.05 -0.01,-0.05 -0.01,-0.05 -0.01,-0.02 -0.02,-0.03 -0.03,-0.06 -0.03,-0.05 v -0.03 -0.03 -0.02 h -0.01 l -0.01,-0.01 h -0.01 -0.04 l -0.03,0.01 -0.02,-0.01 h -0.01 -0.01 l -0.01,-0.01 h -0.01 -0.02 -0.01 -0.01 -0.01 -0.01 -0.01 l -0.02,0.01 -0.01,0.01 h -0.02 -0.01 -0.02 -0.01 -0.02 l -0.02,0.01 h -0.01 -0.01 l -0.02,0.03 -0.01,0.01 -0.01,0.01 -0.03,0.02 -0.02,0.01 -0.06,0.03 -0.08,0.03 -0.06,0.02 -0.07,0.02 -0.05,0.02 -0.02,0.01 h -0.02 l -0.01,0.01 -0.02,0.01 -0.04,0.02 -0.03,0.01 h -0.01 l -0.01,0.01 h -0.01 -0.02 l -0.01,0.01 v 0 l -0.03,0.02 h -0.01 l -0.01,0.01 h -0.01 -0.01 -0.02 l -0.02,0.01 h -0.02 -0.01 -0.01 l -0.01,0.01 -0.02,0.01 -0.02,0.01 -0.02,0.01 v 0.01 l -0.02,0.01 -0.03,0.02 -0.01,-0.02 -0.02,-0.03 -0.12,-0.12 -0.09,-0.09 -0.02,-0.02 -0.02,-0.01 h -0.02 l -0.02,0.01 -0.05,0.02 -0.09,0.03 -0.08,0.04 -0.09,0.03 -0.1,0.03 h -0.01 l -0.01,-0.03 -0.05,-0.05 -0.02,-0.01 h -0.02 l -0.08,-0.06 -0.21,-0.13 -0.04,-0.02 -0.07,-0.05 -0.03,-0.02 0.03,-0.04 v -0.02 l 0.01,-0.03 0.01,-0.02 0.01,-0.02 0.01,-0.02 v -0.01 l 0.01,-0.01 0.01,-0.02 0.01,-0.02 0.01,-0.01 0.01,-0.02 v -0.01 l 0.01,-0.04 v -0.03 l 0.01,-0.04 v -0.03 -0.03 -0.02 -0.04 l -0.01,-0.02 v -0.03 -0.03 l -0.01,-0.03 v -0.03 -0.03 l -0.01,-0.05 v -0.03 -0.02 l 0.01,-0.02 V 54.5 l 0.01,-0.01 0.01,-0.03 v -0.04 l 0.01,-0.03 0.02,-0.09 0.01,-0.03 0.01,-0.02 0.01,-0.02 0.01,-0.02 0.01,-0.01 0.01,-0.02 0.01,-0.01 0.01,-0.01 v -0.01 l 0.01,-0.01 V 54.12 54.1 54.09 54.07 l 0.01,-0.05 -0.01,-0.05 v -0.05 l 0.01,-0.03 h -0.02 l -0.04,0.01 h -0.02 l -0.03,0.01 -0.05,0.01 h -0.03 l -0.03,0.01 -0.04,0.02 -0.07,0.03 -0.04,0.03 -0.17,-0.25 -0.15,-0.08 -0.25,0.07 -0.15,0.05 v 0.24 0.03 l -0.01,0.02 -0.01,0.01 -0.01,0.01 -0.01,0.01 h -0.02 -0.01 l -0.02,0.01 -0.02,0.01 -0.01,0.01 -0.02,0.02 -0.01,0.01 -0.01,0.01 -0.03,0.02 -0.02,0.02 -0.02,0.01 -0.02,0.01 -0.01,0.02 -0.02,0.01 -0.02,0.01 -0.01,0.02 -0.02,0.01 -0.01,0.02 -0.02,0.01 -0.02,0.01 -0.01,0.01 h -0.02 l -0.04,0.01 -0.02,0.01 h -0.03 l -0.02,0.01 h -0.02 l -0.03,0.01 -0.02,0.01 -0.03,0.01 -0.03,0.01 -0.03,0.01 h -0.01 l -0.02,-0.07 v -0.07 l -0.04,0.03 -0.04,0.03 -0.18,-0.06 -0.17,-0.16 -0.08,-0.02 -0.01,0.02 h -0.01 l -0.02,0.01 h -0.02 -0.01 -0.01 l -0.01,0.02 0.01,0.02 v 0.02 l 0.01,0.02 0.01,0.04 0.01,0.01 v 0.02 0.01 0.01 h -0.01 -0.01 -0.01 -0.01 -0.01 l -0.02,-0.01 -0.02,-0.01 -0.01,-0.01 -0.01,-0.01 v -0.04 l -0.01,-0.06 -0.01,-0.05 -0.03,-0.03 -0.05,-0.03 -0.07,-0.04 -0.06,-0.04 -0.24,-0.16 -0.22,-0.2 -0.28,-0.25 -0.01,-0.02 -0.04,-0.06 -0.17,-0.16 -0.14,-0.15 -0.06,-0.05 -0.02,-0.03 -0.06,-0.06 -0.01,-0.01 -0.02,-0.01 -0.18,-0.15 -0.18,-0.15 -0.17,-0.16 0.16,-0.11 0.14,-0.1 0.18,-0.13 0.04,-0.01 0.02,-0.04 0.11,-0.12 0.2,-0.22 0.08,-0.09 0.02,-0.01 -0.02,-0.1 0.06,-0.29 v -0.13 l 0.06,-0.09 h 0.01 0.01 l 0.39,-0.91 0.06,-0.15 0.02,0.06 0.09,-0.09 0.35,-0.09 0.16,-0.02 0.13,-0.07 0.09,-0.04 h 0.01 0.13 0.04 0.02 l 0.04,-0.01 0.15,-0.02 0.04,-0.01 0.03,-0.01 0.13,-0.04 0.01,-0.02 0.02,-0.02 0.02,-0.04 0.03,-0.08 0.03,-0.05 0.02,-0.01 0.08,-0.15 0.01,-0.01 0.36,-0.13 0.04,-0.02 0.02,0.01 h 0.03 l 0.3,0.03 0.1,-0.01 0.01,-0.12 0.02,-0.09 0.03,-0.06 0.03,-0.05 0.03,-0.05 0.02,-0.07 0.02,-0.06 0.03,-0.04 0.2,-0.2 -0.03,0.01 h -0.04 -0.03 l -0.04,-0.01 h -0.03 l -0.03,-0.02 -0.03,-0.03 -0.01,-0.01 -0.01,-0.03 v -0.03 -0.02 l 0.01,-0.02 v -0.03 -0.02 -0.02 h -0.01 -0.01 l -0.02,0.01 -0.04,0.03 -0.02,0.02 -0.01,0.03 v 0.01 l -0.01,0.01 -0.02,0.02 -0.02,-0.01 -0.01,-0.01 v -0.01 -0.02 l 0.01,-0.04 0.03,-0.07 0.01,-0.03 v -0.03 l -0.01,-0.03 h 0.04 0.03 l 0.02,-0.02 0.03,-0.03 0.02,-0.05 0.02,-0.04 v -0.03 l -0.01,-0.06 -0.01,-0.05 v -0.03 l 0.01,-0.03 -0.01,-0.02 0.03,-0.01 0.02,-0.03 0.01,-0.02 0.02,-0.01 0.03,-0.02 0.1,-0.07 0.07,-0.04 0.01,-0.01 0.06,-0.04 0.04,-0.01 0.09,-0.05 0.16,-0.07 0.12,-0.06 0.05,-0.02 0.04,-0.03 0.11,-0.1 0.04,-0.04 0.02,-0.03 0.03,-0.07 0.04,-0.09 0.04,-0.05 0.02,-0.01 0.08,-0.01 h 0.08 l 0.07,-0.01 0.03,-0.01 0.03,-0.02 0.02,-0.02 0.01,-0.03 0.01,-0.02 0.01,-0.03 v -0.02 l -0.01,-0.02 -0.07,-0.05 -0.36,-0.54 -0.2,-0.45 -0.02,-0.04 -0.02,-0.07 -0.01,-0.07 -0.01,-0.08 -0.02,-0.11 -0.05,-0.12 -0.06,-0.12 -0.07,-0.12 0.01,-0.02 v -0.02 l 0.01,-0.02 v -0.03 -0.1 -0.15 l 0.01,-0.05 V 44.3 44.27 l -0.01,-0.15 v -0.04 l 0.01,-0.02 v -0.03 l 0.01,-0.03 0.02,-0.08 0.02,-0.07 0.01,-0.04 0.02,-0.04 0.01,-0.02 0.08,0.06 0.09,-0.03 0.55,0.23 0.16,0.06 0.4,0.17 0.15,0.06 0.6,0.25 0.13,0.05 0.06,0.03 0.03,0.01 0.28,-0.02 0.16,0.01 h 0.46 0.09 l 0.54,0.01 h 0.03 l 0.13,0.01 0.04,-0.15 0.03,-0.09 0.03,-0.07 0.04,-0.11 0.07,-0.15 0.01,-0.02 0.01,-0.02 0.06,-0.15 0.02,-0.04 0.11,-0.24 0.02,-0.06 0.04,-0.09 0.02,-0.05 0.01,-0.03 0.01,-0.05 0.1,-0.19 0.02,-0.03 0.01,-0.02 0.13,-0.26 0.4,-0.78 0.05,-0.1 z"
       id="path74" />
  </g>
</svg>
