<?xml version="1.0" encoding="UTF-8" standalone="no"?>
<svg
   version="1.2"
   width="800"
   height="642"
   viewBox="0 0 800 642"
   stroke-linecap="round"
   stroke-linejoin="round"
   id="svg95"
   sodipodi:docname="Areatza.svg"
   inkscape:version="1.1.2 (b8e25be833, 2022-02-05)"
   xmlns:inkscape="http://www.inkscape.org/namespaces/inkscape"
   xmlns:sodipodi="http://sodipodi.sourceforge.net/DTD/sodipodi-0.dtd"
   xmlns="http://www.w3.org/2000/svg"
   xmlns:svg="http://www.w3.org/2000/svg">
  <defs
     id="defs99" />
  <sodipodi:namedview
     id="namedview97"
     pagecolor="#ffffff"
     bordercolor="#666666"
     borderopacity="1.0"
     inkscape:pageshadow="2"
     inkscape:pageopacity="0.0"
     inkscape:pagecheckerboard="0"
     showgrid="false"
     inkscape:zoom="1.3146417"
     inkscape:cx="399.72867"
     inkscape:cy="251.01896"
     inkscape:window-width="1848"
     inkscape:window-height="1043"
     inkscape:window-x="72"
     inkscape:window-y="0"
     inkscape:window-maximized="1"
     inkscape:current-layer="svg95" />
  <g
     id="Areatza"
     transform="matrix(12.327311,0,0,12.327311,-2142.8067,-2017.0063)">
    <path
       d="m 195.18,170.31 -0.29,0.26 -0.09,0.09 -0.14,0.14 -0.24,0.22 v 0.01 l 0.05,0.07 0.04,0.03 0.02,0.02 0.03,0.03 0.04,0.04 0.04,0.02 0.03,0.02 0.03,0.01 h 0.02 l 0.04,-0.03 0.02,-0.02 0.02,-0.02 0.05,-0.05 0.02,-0.02 0.03,-0.02 0.02,-0.02 h 0.03 l 0.04,0.07 0.01,0.01 0.04,0.07 0.05,0.07 0.04,0.06 0.12,0.15 0.02,0.04 0.02,0.04 0.01,0.04 v 0.05 0.03 l -0.01,0.05 v 0.04 l 0.01,0.07 0.02,0.03 0.04,0.02 0.06,0.03 0.07,0.01 0.05,0.02 0.05,0.02 0.03,0.02 0.03,0.02 0.03,0.03 0.02,0.03 0.01,0.03 v 0.01 l 0.03,-0.02 0.15,-0.12 0.05,-0.03 0.06,-0.03 0.04,-0.01 0.07,0.02 0.04,0.02 0.03,0.02 v 0.03 l 0.01,0.1 -0.33,0.11 h -0.08 -0.06 v 0.01 0.05 l 0.02,0.05 0.04,0.09 0.04,0.07 0.02,0.06 -0.01,0.12 0.02,0.12 0.03,0.09 0.04,0.09 0.02,0.13 0.01,0.05 0.02,0.02 0.02,0.02 0.02,0.02 0.02,0.03 v 0.03 l 0.01,0.03 0.02,0.03 0.02,0.03 0.01,0.05 v 0.11 l -0.01,0.2 v 0.14 0.17 l 0.01,0.14 0.01,0.11 0.02,0.09 0.04,-0.03 0.04,-0.06 0.02,-0.09 0.05,-0.11 0.03,-0.02 0.04,-0.02 0.1,-0.02 0.14,-0.04 v -0.09 h 0.15 v 0.16 l 0.03,0.27 0.04,0.04 0.1,0.12 0.11,0.11 0.12,0.11 0.13,0.12 0.15,0.13 0.15,0.12 0.16,0.14 0.17,0.14 0.15,0.15 0.15,0.14 0.12,0.12 0.05,0.06 0.09,0.12 0.08,0.07 0.02,0.04 0.15,0.16 0.15,0.13 0.13,0.19 0.04,0.07 0.05,0.1 0.03,0.08 0.05,0.09 0.07,0.06 0.13,0.07 0.12,0.06 0.2,0.11 -0.09,0.43 -0.07,0.31 -0.01,-0.02 -0.03,-0.03 -0.03,-0.04 -0.02,-0.03 -0.03,-0.04 -0.02,-0.03 -0.02,-0.03 -0.01,-0.02 -0.02,-0.02 -0.02,-0.02 -0.02,-0.02 -0.02,-0.02 -0.03,-0.02 -0.03,-0.02 -0.02,-0.02 -0.02,-0.02 -0.05,-0.03 -0.04,-0.02 -0.02,-0.02 -0.03,-0.04 -0.02,-0.02 -0.01,-0.02 -0.02,-0.02 -0.02,-0.02 -0.04,-0.1 -0.04,-0.07 -0.06,-0.09 -0.06,-0.06 -0.1,-0.07 -0.07,-0.03 -0.09,-0.06 -0.05,-0.06 -0.07,-0.09 -0.09,-0.12 -0.09,-0.07 -0.07,-0.05 -0.1,-0.04 -0.13,-0.07 -0.05,-0.02 -0.1,-0.06 -0.09,-0.1 -0.08,-0.11 -0.11,-0.09 -0.08,-0.07 -0.12,-0.08 -0.17,-0.09 -0.18,-0.1 -0.21,-0.09 -0.12,-0.04 -0.14,-0.04 -0.12,-0.02 -0.04,0.06 -0.39,0.61 -0.33,-0.21 -0.14,0.14 -0.19,0.18 -0.16,0.11 -0.18,0.12 -0.07,0.07 -0.07,0.06 -0.06,0.06 -0.05,0.05 -0.04,0.06 -0.06,0.09 -0.05,0.07 -0.04,0.08 -0.04,0.07 -0.03,0.06 -0.01,0.03 h -0.05 l -0.09,-0.01 h -0.08 -0.05 l -0.08,0.01 -0.08,-0.02 -0.08,-0.01 -0.07,-0.01 h -0.09 l -0.09,-0.01 -0.09,-0.01 -0.06,-0.02 -0.08,-0.01 h -0.1 -0.07 -0.23 l -0.11,0.03 -0.09,0.04 -0.08,0.05 -0.05,0.05 -0.05,0.02 -0.06,0.02 -0.1,0.03 -0.13,0.05 -0.11,0.04 -0.1,0.04 -0.1,0.05 -0.09,0.05 -0.09,0.06 -0.11,0.07 -0.12,0.07 -0.1,0.06 -0.09,0.05 -0.11,0.09 -0.08,0.07 -0.07,0.08 -0.11,0.09 -0.06,0.08 -0.06,0.07 -0.05,0.09 -0.04,0.12 -0.04,0.1 -0.04,0.1 -0.02,0.09 v 0.11 l -0.03,0.08 -0.05,0.09 -0.1,0.15 -0.02,0.02 -0.1,0.15 -0.27,0.36 -0.18,0.23 -0.16,0.22 -0.19,0.25 -0.18,0.56 -0.03,0.17 -0.02,0.42 -0.05,0.49 -0.06,0.12 -0.06,0.16 -0.05,0.11 -0.04,0.1 -0.03,0.08 -0.09,0.29 -0.03,0.08 -0.05,0.17 -0.06,0.19 -0.08,0.24 0.01,0.81 0.45,-0.01 0.4,0.21 0.13,0.28 0.59,0.58 0.31,0.55 0.26,0.56 -0.2,0.41 -0.02,0.03 -0.04,0.04 -0.06,0.09 -0.09,0.11 -0.08,0.11 -0.15,0.17 -0.13,0.17 -0.17,0.19 -0.13,0.14 -0.11,0.12 -0.11,0.13 -0.13,0.13 -0.11,0.14 -0.08,0.11 -0.05,0.07 -0.03,0.08 -0.05,0.15 -0.05,0.08 v 0.04 l -0.06,0.06 -0.04,0.03 -0.06,0.04 v 0.02 l -0.02,0.07 v 0.02 l -0.09,0.17 -0.11,0.06 -0.17,0.14 -0.18,0.13 -0.17,0.14 -0.2,0.19 -0.18,0.17 -0.21,0.19 -0.19,0.18 -0.17,0.17 -0.14,0.13 -0.05,0.05 -0.02,0.07 -0.02,0.08 -0.06,0.1 -0.08,0.1 -0.04,0.03 -0.03,-0.05 -0.01,-0.01 v -0.01 h -0.01 l -0.02,-0.02 -0.02,-0.02 -0.02,-0.02 -0.02,-0.02 -0.02,-0.02 -0.03,-0.01 -0.03,-0.01 -0.02,-0.02 -0.06,-0.04 -0.05,-0.03 -0.02,-0.02 -0.03,-0.02 -0.02,-0.01 -0.03,-0.01 -0.03,-0.03 -0.03,-0.01 -0.03,-0.02 -0.03,-0.03 -0.03,-0.01 -0.02,-0.02 -0.02,-0.02 -0.02,-0.03 -0.02,-0.02 v -0.04 -0.01 -0.02 -0.02 l 0.01,-0.03 v -0.02 -0.03 l 0.01,-0.03 v -0.02 -0.02 -0.05 -0.03 -0.02 -0.02 -0.04 -0.03 l -0.01,-0.04 -0.01,-0.03 -0.01,-0.03 -0.03,-0.07 -0.01,-0.02 -0.01,-0.02 -0.01,-0.01 -0.01,-0.02 v -0.01 l -0.01,-0.02 v -0.04 l -0.01,-0.03 v -0.02 l -0.02,-0.05 v -0.03 l -0.02,-0.06 -0.01,-0.02 -0.01,-0.04 -0.01,-0.03 v -0.02 l -0.02,-0.05 v -0.03 l -0.02,-0.05 v -0.04 L 186,189.71 v -0.03 -0.04 l -0.01,-0.05 v -0.02 -0.02 l -0.01,-0.02 v -0.03 l -0.01,-0.03 -0.01,-0.05 v -0.03 l -0.01,-0.03 v -0.05 l -0.01,-0.02 v -0.04 l -0.01,-0.03 v -0.05 -0.03 l -0.01,-0.03 v -0.05 -0.03 L 185.91,189 v -0.04 -0.06 -0.03 -0.03 -0.03 -0.04 -0.03 -0.02 -0.02 -0.05 l 0.01,-0.03 v -0.02 -0.02 l 0.01,-0.03 v -0.02 -0.03 l 0.01,-0.03 v -0.03 -0.02 l 0.01,-0.02 v -0.03 -0.03 -0.02 -0.03 l 0.01,-0.03 v -0.01 -0.02 -0.01 -0.02 l -0.02,-0.07 -0.08,-0.28 v 0 l -0.06,-0.2 -0.04,-0.13 -0.04,-0.17 -0.03,-0.13 -0.01,-0.05 -0.03,-0.1 -0.14,-0.58 -0.63,-1.68 -0.26,-1.28 -0.01,-0.91 -0.83,-1.54 -0.58,-1.32 -0.21,-0.21 0.48,-0.33 0.46,-0.27 0.13,-0.18 v -0.01 l 0.03,-0.03 0.01,-0.02 0.02,-0.02 0.01,-0.03 0.02,-0.03 v -0.02 -0.01 l 0.02,-0.02 0.01,-0.01 0.01,-0.02 0.01,-0.01 0.01,-0.03 0.01,-0.02 0.01,-0.02 0.01,-0.03 0.01,-0.01 v -0.01 l 0.01,-0.02 0.01,-0.01 0.01,-0.02 0.02,-0.01 0.03,-0.03 0.02,-0.01 0.02,-0.01 0.03,-0.01 h 0.03 0.03 0.02 l 0.03,0.01 h 0.02 l 0.03,-0.01 0.02,-0.02 0.02,-0.02 0.01,-0.02 0.03,-0.04 0.03,-0.04 0.04,-0.04 0.03,-0.03 0.03,-0.04 0.01,-0.05 0.02,-0.06 0.04,-0.09 0.03,-0.07 0.04,-0.09 0.03,-0.04 v -0.05 l 0.02,-0.11 0.08,-0.11 0.09,-0.1 0.09,-0.1 0.08,-0.09 0.14,-0.19 0.18,-0.19 0.15,-0.15 0.14,-0.13 0.04,-0.02 0.11,-0.04 0.24,-0.07 0.18,-0.05 0.16,-0.05 0.11,-0.03 0.21,-0.07 0.14,-0.06 0.12,-0.05 0.15,-0.09 0.1,-0.06 0.07,-0.06 0.06,-0.05 0.03,-0.03 0.02,-0.06 0.03,-0.06 0.01,-0.06 -0.01,-0.07 -0.03,-0.06 -0.05,-0.1 -0.04,-0.09 -0.01,-0.06 0.02,-0.04 0.05,-0.07 0.07,-0.06 0.08,-0.08 0.06,-0.06 0.07,-0.06 0.05,-0.06 0.02,-0.08 -0.02,-0.07 -0.02,-0.08 v -0.08 l 0.06,-0.09 0.05,-0.08 0.06,-0.06 0.09,-0.08 0.1,-0.15 0.06,-0.06 0.07,-0.05 0.18,-0.12 0.19,-0.11 0.15,-0.07 0.16,-0.08 0.19,-0.1 0.02,-0.05 0.05,-0.12 0.1,-0.12 0.12,-0.11 0.1,-0.09 0.12,-0.08 0.14,-0.11 0.12,-0.09 0.11,-0.04 0.11,-0.04 0.18,-0.01 0.18,-0.01 0.15,-0.01 0.04,-0.06 0.17,-0.14 0.25,-0.17 0.19,-0.14 0.13,-0.1 0.18,-0.15 0.1,-0.08 0.08,-0.07 0.05,-0.01 0.14,0.01 0.11,-0.01 0.17,-0.01 0.22,-0.01 0.21,-0.01 0.17,0.01 0.14,0.01 0.11,0.01 0.13,-0.01 0.09,-0.01 0.12,-0.06 0.06,-0.08 0.05,-0.09 0.08,-0.11 0.06,-0.08 0.06,-0.05 0.01,-0.06 -0.02,-0.2 v -0.01 -0.02 -0.03 l 0.02,-0.09 0.01,-0.12 0.01,-0.12 0.02,-0.09 0.02,-0.11 0.03,-0.09 0.02,-0.04 0.05,-0.05 0.1,-0.11 0.08,-0.11 0.09,-0.15 0.08,-0.1 0.07,-0.12 0.31,-0.03 h 0.02 l 0.07,0.31 0.09,0.2 0.09,0.18 0.06,0.12 z"
       id="path92" />
  </g>
</svg>
