<?xml version="1.0" encoding="UTF-8" standalone="no"?>
<svg
   version="1.2"
   width="800"
   height="642"
   viewBox="0 0 800 642"
   stroke-linecap="round"
   stroke-linejoin="round"
   id="svg104"
   sodipodi:docname="Arellano.svg"
   inkscape:version="1.1.2 (b8e25be833, 2022-02-05)"
   xmlns:inkscape="http://www.inkscape.org/namespaces/inkscape"
   xmlns:sodipodi="http://sodipodi.sourceforge.net/DTD/sodipodi-0.dtd"
   xmlns="http://www.w3.org/2000/svg"
   xmlns:svg="http://www.w3.org/2000/svg">
  <defs
     id="defs108" />
  <sodipodi:namedview
     id="namedview106"
     pagecolor="#ffffff"
     bordercolor="#666666"
     borderopacity="1.0"
     inkscape:pageshadow="2"
     inkscape:pageopacity="0.0"
     inkscape:pagecheckerboard="0"
     showgrid="false"
     inkscape:zoom="1.3146417"
     inkscape:cx="399.72867"
     inkscape:cy="321"
     inkscape:window-width="1848"
     inkscape:window-height="1043"
     inkscape:window-x="72"
     inkscape:window-y="0"
     inkscape:window-maximized="1"
     inkscape:current-layer="svg104" />
  <g
     id="Arellano"
     transform="matrix(8.8169294,0,0,8.8169294,-3123.7194,-3057.8019)">
    <path
       d="m 397.39,373.55 v -0.16 l -0.04,-0.05 -0.03,-0.12 -0.03,-0.12 -0.07,-0.16 -0.02,-0.03 -0.05,-0.12 -0.01,-0.03 -0.1,-0.26 -0.03,-0.09 -0.03,-0.06 -0.05,-0.11 -0.04,-0.07 -0.02,-0.04 -0.04,-0.09 -0.02,-0.03 -0.04,-0.06 v -0.01 l -0.05,-0.06 -0.04,-0.07 0.02,-0.03 0.06,-0.08 0.01,-0.01 0.05,-0.1 0.02,-0.05 0.01,-0.02 0.01,-0.01 0.08,-0.15 0.03,-0.06 0.02,-0.03 0.01,-0.02 0.01,-0.02 0.01,-0.01 0.02,-0.05 0.05,-0.09 0.04,-0.09 0.01,-0.01 0.03,-0.09 0.08,-0.17 0.03,-0.08 0.06,-0.14 0.06,-0.03 0.01,-0.01 0.06,-0.03 0.02,-0.01 h 0.02 l 0.04,-0.03 0.02,-0.01 h 0.01 l 0.08,-0.05 0.04,-0.01 0.02,-0.01 0.07,-0.02 0.11,-0.02 h 0.01 l 0.03,-0.01 0.06,-0.02 0.08,-0.01 0.11,-0.03 h 0.06 l 0.02,-0.01 h 0.04 l 0.1,-0.02 0.12,-0.02 0.12,-0.02 0.09,-0.02 0.08,-0.03 0.06,-0.03 0.03,-0.02 0.02,-0.02 0.03,-0.03 0.04,-0.05 0.05,-0.06 0.06,-0.05 0.06,-0.06 0.05,-0.07 0.04,-0.05 0.01,-0.02 0.01,-0.05 0.03,-0.07 0.03,-0.06 0.01,-0.01 -0.01,-0.04 0.02,-0.04 0.01,-0.05 0.03,-0.14 0.03,-0.17 0.04,-0.17 0.01,-0.12 0.03,-0.14 0.03,-0.12 0.01,-0.12 0.01,-0.13 -0.01,-0.15 v -0.14 l -0.01,-0.13 -0.01,-0.15 -0.01,-0.09 -0.01,-0.14 -0.01,-0.24 v -0.2 l 0.15,-0.11 -0.02,-0.07 -0.03,-0.14 v -0.01 l -0.03,-0.13 -0.02,-0.1 -0.02,-0.1 -0.02,-0.09 -0.02,-0.07 -0.03,-0.13 v -0.07 -0.02 l 0.27,0.01 h 0.22 l 0.19,0.01 0.32,0.01 0.27,0.02 h 0.02 0.17 l 0.25,0.01 h 0.21 l 0.32,-0.02 0.29,-0.01 0.08,0.01 0.16,-0.02 0.18,-0.11 0.09,-0.05 0.12,-0.08 0.06,-0.02 0.12,-0.02 0.05,0.01 0.14,0.02 0.19,0.03 0.16,0.03 0.08,0.01 h 0.08 l 0.16,0.01 0.19,0.02 0.16,0.1 0.13,0.07 0.14,0.07 0.13,0.07 0.14,0.07 0.14,0.07 0.04,0.02 0.1,0.05 0.05,0.04 0.05,0.02 0.06,0.02 0.06,0.03 0.07,0.03 0.06,0.02 0.06,0.01 0.15,0.03 0.1,0.01 0.08,0.01 h 0.05 l 0.05,-0.01 h 0.03 l 0.04,-0.01 0.06,-0.03 0.03,-0.02 0.03,-0.01 0.01,-0.01 h 0.01 0.02 l 0.01,-0.01 0.04,-0.01 0.04,0.01 h 0.01 0.02 l 0.06,0.03 0.07,0.04 0.02,0.03 0.02,0.03 0.1,0.1 0.06,0.07 0.05,0.05 0.01,0.02 0.03,0.07 0.03,0.07 0.03,0.06 0.06,0.07 0.11,0.11 0.03,0.04 0.02,0.03 0.17,0.28 0.06,0.08 0.01,0.13 v 0.01 0.02 l 0.01,0.14 0.01,0.14 0.01,0.07 0.01,0.2 0.01,0.22 v 0.16 l 0.01,0.05 0.02,0.1 0.01,0.04 0.01,0.05 0.03,0.06 0.03,0.07 v 0.02 l 0.04,0.1 0.04,0.14 0.01,0.06 0.01,0.08 v 0.07 l 0.01,0.06 0.01,0.08 0.01,0.14 0.01,0.1 0.05,0.19 0.03,0.12 0.01,0.03 v 0.02 l 0.01,0.05 0.01,0.03 0.03,0.06 0.03,0.03 0.03,0.06 0.02,0.02 0.06,0.09 0.02,0.06 0.02,0.04 0.02,0.13 v 0.06 l -0.02,0.1 0.01,0.1 0.05,0.13 0.06,0.12 0.05,0.09 0.05,0.07 0.03,0.04 0.15,0.15 0.11,0.13 -0.05,0.04 -0.03,0.03 -0.02,0.02 -0.02,0.02 -0.11,0.11 -0.03,0.03 -0.07,0.07 -0.01,0.01 -0.08,0.08 -0.01,0.01 -0.01,0.01 -0.05,0.05 v 0 l -0.07,0.07 -0.01,0.01 -0.03,0.03 -0.03,0.04 -0.01,0.01 h -0.01 l -0.01,0.02 -0.07,0.07 h -0.01 l -0.04,0.04 v 0.01 0.01 0.01 l 0.01,0.01 0.01,0.1 0.01,0.06 0.01,0.13 0.01,0.08 v 0.02 l 0.01,0.04 v 0.01 0.02 l 0.02,0.11 0.02,0.1 0.03,0.13 0.02,0.1 0.03,0.14 0.02,0.08 0.02,0.11 0.01,0.04 0.01,0.01 0.01,0.02 0.05,0.17 -0.02,0.02 -0.09,0.09 -0.02,0.01 -0.01,0.01 -0.13,0.12 -0.11,0.1 v 0.01 l -0.01,0.01 -0.02,0.02 -0.03,0.02 -0.07,0.07 -0.01,0.01 -0.01,0.01 -0.03,0.03 -0.08,0.07 -0.01,0.02 -0.07,0.04 -0.12,0.08 -0.02,0.01 -0.07,0.05 -0.05,0.03 -0.04,0.01 h -0.04 -0.03 l -0.06,-0.01 -0.12,-0.02 h -0.03 -0.1 -0.1 l -0.03,-0.01 h -0.02 -0.02 -0.03 l -0.15,-0.01 -0.03,0.02 -0.21,0.13 -0.03,0.01 -0.08,0.05 -0.05,0.12 -0.01,0.02 -0.03,0.07 -0.02,0.05 -0.01,0.04 -0.02,0.01 -0.24,0.07 -0.05,0.02 -0.06,0.04 H 405 l -0.15,0.09 h -0.01 -0.01 l -0.01,0.01 -0.08,0.03 -0.01,0.01 -0.09,0.04 -0.01,0.01 h -0.01 l -0.05,0.03 -0.02,0.01 -0.02,0.02 -0.01,0.01 -0.06,0.08 -0.15,0.22 -0.09,0.14 -0.15,0.22 -0.01,0.02 -0.02,0.02 -0.03,0.01 -0.05,0.02 -0.09,0.02 -0.1,0.03 -0.12,0.07 -0.07,0.04 -0.11,0.07 -0.04,0.04 -0.05,0.09 -0.04,0.08 -0.03,0.06 -0.02,0.06 -0.01,0.05 -0.03,0.08 -0.05,0.16 -0.01,0.01 -0.02,0.05 v 0.01 l -0.04,0.21 -0.01,0.03 v 0.02 l -0.01,0.03 -0.04,0.17 0.08,0.03 0.05,0.03 0.08,0.04 0.05,0.04 0.04,0.06 0.03,0.04 0.01,0.02 v 0.03 0.04 l -0.02,0.14 -0.02,0.08 -0.01,0.05 -0.02,0.1 -0.01,0.02 -0.02,0.06 -0.02,0.1 -0.02,0.13 -0.01,0.01 v 0.03 l 0.01,0.09 0.01,0.06 0.05,0.16 0.03,0.14 0.01,0.01 0.01,0.02 v 0.01 0.09 l 0.02,0.17 0.01,0.12 0.01,0.03 v 0.06 l -0.01,0.05 v 0.08 l -0.01,0.17 v 0.13 l -0.01,0.06 0.01,0.04 0.01,0.03 0.02,0.04 0.01,0.03 0.04,0.08 0.01,0.01 0.04,0.09 0.07,0.14 0.03,0.07 0.01,0.01 0.02,0.03 0.01,0.03 0.08,0.15 v 0.02 l 0.02,0.12 0.03,0.14 0.01,0.09 0.04,0.14 0.05,0.16 0.01,0.05 0.01,0.02 0.01,0.04 0.01,0.09 0.01,0.11 0.01,0.18 -0.01,0.03 -0.01,0.04 -0.06,0.22 -0.07,0.27 -0.04,0.13 v 0.02 0.02 0.03 l -0.01,0.07 -0.01,0.04 v 0.01 0.01 l -0.01,0.17 -0.01,0.19 -0.01,0.14 -0.02,0.12 -0.01,0.03 v 0.01 l -0.01,0.04 -0.01,0.04 -0.05,0.13 -0.04,0.1 -0.01,0.01 -0.15,0.31 -0.11,0.2 -0.05,0.12 -0.04,0.09 -0.05,0.09 -0.03,0.06 -0.03,0.04 -0.01,0.01 -0.11,0.19 -0.04,0.08 -0.01,0.01 v 0.01 l -0.01,0.01 v 0.01 l -0.03,0.05 v 0 l -0.09,0.16 -0.01,0.01 -0.08,0.14 -0.03,0.05 -0.05,0.06 -0.11,0.1 -0.1,0.09 -0.06,0.05 -0.01,0.01 -0.02,0.03 -0.02,0.02 -0.06,0.07 -0.04,0.05 -0.06,0.09 -0.14,0.17 -0.01,0.01 -0.06,0.08 -0.01,0.01 v 0.02 l -0.23,0.1 -0.01,0.01 -0.03,0.05 -0.01,0.04 -0.1,0.2 -0.1,0.19 -0.02,0.02 -0.19,0.28 -0.05,0.09 -0.05,0.07 -0.01,0.01 -0.01,0.01 v 0.01 l -0.03,0.05 -0.09,0.14 -0.17,0.23 -0.04,0.07 -0.01,0.02 -0.01,0.03 -0.08,0.13 -0.01,0.01 -0.03,0.06 -0.09,0.15 -0.01,0.01 v 0.01 l -0.08,0.15 -0.01,0.01 -0.05,0.08 -0.09,0.18 -0.01,0.02 -0.02,0.04 -0.14,0.39 -0.13,0.41 -0.01,0.03 -0.04,0.32 -0.02,0.17 -0.03,0.21 -0.03,0.12 -0.07,0.3 -0.01,0.05 v 0.12 0.28 0.01 0.06 0.01 0.12 0.05 0.02 0.05 0.02 0.07 0.01 l -0.01,0.03 -0.05,0.11 -0.09,0.22 -0.03,0.08 -0.04,0.07 -0.05,0.09 -0.03,0.09 -0.03,0.07 -0.05,0.16 -0.03,0.14 -0.01,0.02 -0.05,0.22 -0.02,0.06 -0.01,0.05 -0.01,0.04 v 0.04 0.01 0.02 0.05 l 0.01,0.07 v 0.02 0.02 l 0.01,0.04 -0.01,0.03 -0.01,0.06 -0.01,0.08 v 0.07 l 0.02,0.06 0.01,0.02 0.02,0.03 0.03,0.06 -0.03,0.04 -0.07,0.06 -0.04,0.03 -0.08,0.08 -0.12,0.09 -0.1,0.09 -0.05,0.08 -0.01,0.01 -0.01,0.02 -0.05,0.06 -0.05,0.06 -0.03,0.03 -0.07,0.11 -0.11,0.13 -0.09,0.14 -0.1,0.14 -0.05,0.06 -0.01,0.01 -0.01,0.01 v 0.01 l 0.01,0.02 0.01,0.01 0.06,0.13 0.04,0.08 0.06,0.1 0.06,0.12 -0.02,0.06 -0.01,0.02 -0.01,0.06 -0.01,0.1 -0.03,0.1 -0.01,0.09 v 0.01 l -0.01,0.02 -0.01,0.04 -0.01,0.09 v 0.01 l -0.04,0.32 v 0.03 l -0.02,0.07 -0.01,0.03 v 0.04 l -0.01,0.06 -0.04,0.21 -0.01,0.03 -0.02,0.06 -0.04,0.1 -0.09,0.21 -0.12,0.28 v 0.01 l -0.03,0.05 -0.1,0.23 -0.08,0.18 -0.01,0.05 -0.07,0.12 -0.1,0.18 -0.05,0.08 -0.06,0.1 -0.04,0.08 -0.07,0.11 v 0.03 l -0.01,0.07 -0.02,0.1 -0.01,0.1 -0.01,0.04 -0.03,0.21 -0.01,0.07 -0.03,0.1 -0.04,0.17 -0.03,0.07 -0.01,0.02 -0.03,0.08 -0.02,0.05 -0.02,0.04 -0.02,0.05 -0.01,0.01 -0.05,0.13 -0.05,0.09 v 0.02 l -0.01,0.01 -0.01,0.04 v 0.02 l -0.01,0.03 -0.02,0.04 -0.03,0.05 v 0.01 l -0.07,0.11 -0.04,0.05 -0.01,0.02 -0.03,0.05 -0.07,0.12 -0.02,0.03 -0.01,0.03 -0.02,0.04 -0.08,0.14 -0.08,0.17 -0.09,0.2 -0.06,0.12 -0.04,0.07 -0.04,0.1 -0.01,0.05 -0.01,0.02 v 0.01 l -0.01,0.01 v 0.01 l -0.03,0.08 -0.05,0.12 -0.03,0.07 -0.04,0.13 -0.01,0.03 -0.01,0.03 -0.05,0.18 -0.04,0.1 -0.01,0.03 v 0.02 l -0.02,0.05 -0.01,0.02 v 0 l -0.01,0.03 -0.01,0.05 -0.01,0.01 v 0.04 l -0.02,0.04 -0.02,0.08 -0.01,0.07 -0.03,0.1 -0.03,0.14 -0.02,0.07 -0.06,0.16 -0.03,0.06 -0.04,0.17 -0.03,0.12 -0.19,0.05 h -0.01 -0.02 -0.02 l -0.02,0.01 -0.05,0.01 -0.07,0.01 h -0.11 -0.12 -0.02 v 0 l -0.17,0.01 h -0.01 -0.02 l -0.01,0.01 -0.24,0.01 h -0.02 -0.01 -0.03 l -0.07,0.01 h -0.15 l -0.12,0.01 H 394 l -0.31,0.03 h -0.24 l -0.04,0.03 -0.02,-0.03 -0.03,-0.04 -0.05,-0.04 -0.07,-0.06 -0.02,-0.03 -0.01,-0.04 -0.03,-0.08 -0.13,-0.29 -0.12,-0.24 -0.05,-0.12 -0.01,-0.02 -0.01,-0.02 -0.05,-0.1 v -0.04 l 0.01,-0.03 v -0.06 -0.07 -0.09 -0.01 -0.02 -0.01 l 0.01,-0.03 0.01,-0.1 0.01,-0.07 v -0.1 -0.14 l -0.01,-0.03 -0.04,-0.11 -0.03,-0.08 -0.01,-0.02 v -0.01 l -0.07,-0.22 -0.03,-0.08 -0.09,-0.25 -0.01,-0.01 -0.04,-0.08 -0.03,-0.05 -0.01,-0.01 -0.04,-0.08 -0.05,-0.09 -0.07,-0.14 -0.05,-0.11 -0.01,-0.02 -0.01,-0.01 -0.01,-0.04 -0.01,-0.01 -0.01,-0.01 -0.01,-0.04 v -0.01 l -0.01,-0.02 -0.02,-0.08 v -0.01 l -0.02,-0.07 -0.01,-0.01 -0.03,-0.13 -0.01,-0.03 -0.01,-0.06 -0.06,-0.21 v -0.09 -0.09 -0.04 l -0.01,-0.02 0.01,-0.02 v -0.05 -0.06 l -0.01,-0.06 -0.01,-0.02 v -0.02 L 392,399.75 v -0.01 -0.02 -0.02 l 0.01,-0.03 v -0.03 -0.01 l -0.01,-0.15 -0.01,-0.14 v -0.02 l 0.01,-0.03 0.01,-0.06 0.02,-0.08 0.01,-0.02 v -0.02 l 0.01,-0.05 v -0.05 -0.06 l 0.01,-0.04 v -0.04 l 0.01,-0.03 v -0.1 l 0.01,-0.05 v -0.11 l 0.01,-0.06 v -0.03 l 0.01,-0.02 v -0.01 l 0.01,-0.03 v -0.01 l 0.01,-0.06 0.01,-0.08 0.01,-0.04 v -0.03 l 0.01,-0.01 0.01,-0.07 0.01,-0.03 v -0.03 l 0.01,-0.02 v -0.01 l 0.02,-0.07 v -0.03 l 0.01,-0.09 0.01,-0.09 0.01,-0.02 v -0.05 l 0.03,-0.05 v -0.04 l 0.03,-0.09 0.03,-0.05 0.03,-0.09 0.05,-0.14 0.01,-0.02 0.03,-0.09 0.02,-0.04 0.06,-0.16 0.03,-0.1 0.02,-0.05 0.02,-0.07 0.05,-0.2 0.04,-0.17 0.02,-0.07 0.01,-0.05 0.01,-0.01 v -0.01 -0.01 l 0.02,-0.15 0.03,-0.15 v -0.01 -0.03 -0.01 l 0.01,-0.04 v -0.01 l 0.01,-0.06 0.01,-0.12 0.03,-0.15 0.02,-0.09 0.02,-0.11 -0.01,-0.03 v -0.04 -0.08 l -0.02,-0.12 v 0 -0.05 l -0.01,-0.05 0.01,-0.06 0.02,-0.14 0.02,-0.16 0.02,-0.13 v -0.03 -0.02 -0.01 -0.01 -0.02 -0.02 l 0.01,-0.05 0.02,-0.08 0.02,-0.05 0.04,-0.13 0.03,-0.09 0.01,-0.02 0.01,-0.01 0.04,-0.12 0.06,-0.16 0.04,-0.09 0.06,-0.18 0.01,-0.03 h 0.01 l 0.07,-0.15 0.09,-0.15 0.11,-0.17 0.13,-0.18 0.04,-0.05 0.01,-0.01 0.01,-0.02 0.05,-0.08 0.1,-0.13 0.06,-0.07 0.01,-0.02 0.02,-0.02 0.01,-0.01 0.08,-0.08 0.17,-0.17 0.01,-0.01 0.04,-0.04 0.03,-0.02 0.03,-0.03 0.08,-0.08 0.03,-0.02 0.01,-0.01 0.02,-0.01 0.09,-0.08 0.05,-0.05 0.03,-0.04 0.03,-0.02 0.02,-0.03 0.02,-0.01 h 0.01 l 0.01,-0.01 v 0 l 0.04,-0.05 0.01,-0.01 0.01,-0.03 0.01,-0.02 0.02,-0.05 0.01,-0.05 0.01,-0.01 0.01,-0.05 0.02,-0.03 0.08,-0.08 v -0.01 l 0.01,-0.01 0.01,-0.01 0.05,-0.08 0.03,-0.05 0.01,-0.02 0.04,-0.06 0.01,-0.03 0.04,-0.09 h 0.01 l 0.04,-0.03 0.04,-0.03 0.05,-0.06 0.08,-0.09 0.02,-0.02 0.04,-0.04 0.07,-0.06 0.01,-0.01 0.01,-0.02 0.01,-0.01 0.02,-0.04 0.02,-0.04 0.05,-0.11 0.04,-0.11 0.03,-0.06 0.02,-0.02 0.02,-0.05 v -0.01 l 0.1,-0.16 0.02,-0.03 0.01,-0.01 0.03,-0.04 0.12,-0.2 0.02,-0.03 0.01,-0.01 0.03,-0.06 0.05,-0.13 0.03,-0.05 0.06,-0.13 0.01,-0.02 v -0.01 l 0.07,-0.13 0.07,-0.13 0.02,-0.02 0.1,-0.12 0.01,-0.01 0.05,-0.02 0.04,-0.03 0.07,-0.07 0.07,-0.05 0.03,-0.03 0.01,-0.01 0.02,-0.01 0.17,-0.08 0.08,-0.05 0.01,-0.01 h 0.01 l 0.04,-0.03 0.03,-0.03 0.04,-0.03 v -0.01 l 0.03,-0.02 0.05,-0.06 0.03,-0.04 0.03,-0.04 0.01,-0.02 0.01,-0.02 v -0.05 l 0.05,-0.05 0.04,-0.04 v -0.01 l 0.01,-0.01 0.01,-0.01 0.09,-0.14 0.13,-0.2 0.03,-0.04 0.1,-0.13 h 0.01 l 0.03,-0.04 0.02,-0.03 0.09,-0.12 0.08,-0.1 0.01,-0.01 0.02,-0.03 0.06,-0.05 0.02,-0.02 0.01,-0.01 0.02,-0.01 0.01,-0.02 0.01,-0.01 0.03,-0.04 0.03,-0.03 0.01,-0.01 0.02,-0.02 0.07,-0.08 v 0 l 0.06,-0.06 0.03,-0.03 0.07,-0.08 0.19,-0.17 0.21,-0.19 0.03,-0.03 0.01,-0.01 0.06,-0.13 0.11,-0.24 0.01,-0.02 0.01,-0.02 0.07,-0.24 0.01,-0.03 0.01,-0.01 0.01,-0.02 0.13,-0.17 0.05,-0.06 0.01,-0.01 0.06,-0.07 0.01,-0.01 0.05,-0.05 v -0.01 l 0.01,-0.02 0.01,-0.01 0.12,-0.16 0.08,-0.1 0.08,-0.1 0.05,-0.05 0.08,-0.11 0.03,-0.06 0.05,-0.1 0.04,-0.09 0.02,-0.03 0.01,-0.03 0.02,-0.03 v 0 l 0.03,-0.04 0.09,-0.17 0.01,-0.01 0.06,-0.09 0.01,-0.01 0.05,-0.11 0.05,-0.12 0.05,-0.1 0.05,-0.11 0.07,-0.14 0.01,-0.03 0.07,-0.15 0.03,-0.06 0.04,-0.1 0.06,-0.14 0.03,-0.09 0.01,-0.04 v -0.06 l 0.02,-0.18 0.02,-0.12 v -0.02 -0.04 -0.02 l -0.01,-0.06 v -0.03 l -0.01,-0.03 v -0.02 l -0.01,-0.01 -0.02,-0.15 -0.02,-0.17 -0.01,-0.13 v -0.02 -0.15 -0.06 l 0.01,-0.15 0.03,-0.2 V 381 380.97 l 0.01,-0.02 0.01,-0.06 v -0.01 -0.02 l 0.01,-0.01 v -0.01 l -0.01,-0.01 0.01,-0.03 0.01,-0.09 0.01,-0.08 0.01,-0.02 -0.01,-0.04 v -0.01 l -0.01,-0.04 -0.03,-0.06 -0.02,-0.06 -0.01,-0.05 -0.02,-0.08 -0.02,-0.07 -0.01,-0.05 -0.01,-0.05 -0.01,-0.07 v -0.07 l -0.02,-0.12 v -0.04 -0.03 l -0.03,-0.08 -0.06,-0.13 v -0.02 l -0.05,-0.1 -0.03,-0.08 -0.01,-0.01 -0.07,-0.12 -0.05,-0.09 -0.01,-0.07 -0.05,-0.15 -0.04,-0.06 -0.01,-0.02 -0.02,-0.01 -0.08,-0.08 -0.13,-0.12 -0.03,-0.04 -0.05,-0.09 -0.07,-0.14 -0.04,-0.06 -0.02,-0.08 v -0.03 -0.02 -0.03 -0.03 -0.03 l -0.01,-0.05 -0.01,-0.02 -0.04,-0.07 -0.02,-0.06 -0.03,-0.02 -0.02,-0.02 -0.02,-0.02 -0.03,-0.02 -0.03,-0.01 -0.07,-0.05 -0.04,-0.04 -0.01,-0.01 -0.08,-0.05 -0.03,-0.02 -0.02,-0.01 -0.01,-0.03 -0.01,-0.02 -0.02,-0.04 -0.02,-0.02 -0.02,-0.03 -0.07,-0.13 -0.05,-0.1 -0.04,-0.07 -0.03,-0.07 -0.01,-0.01 -0.09,-0.19 -0.06,-0.11 -0.03,-0.07 -0.01,-0.02 -0.02,-0.07 -0.04,-0.1 -0.01,-0.03 -0.05,-0.1 -0.06,-0.12 -0.06,-0.11 -0.07,-0.09 -0.04,-0.05 -0.01,-0.01 -0.01,-0.02 -0.03,-0.05 -0.09,-0.16 -0.04,-0.08 -0.01,-0.02 -0.01,-0.01 -0.05,-0.1 v -0.01 l -0.01,-0.01 -0.02,-0.04 -0.07,-0.13 -0.05,-0.12 -0.01,-0.02 -0.01,-0.02 -0.01,-0.03 -0.02,-0.03 v -0.01 l -0.01,-0.01 -0.01,-0.02 -0.02,-0.03 -0.01,-0.03 -0.02,-0.03 -0.02,-0.06 -0.01,-0.06 -0.03,-0.09 -0.01,-0.04 -0.05,-0.1 -0.07,-0.13 -0.05,-0.07 -0.04,-0.07 -0.03,-0.06 -0.03,-0.09 -0.03,-0.09 -0.02,-0.04 -0.01,-0.05 -0.01,-0.08 -0.01,-0.02 -0.02,-0.08 -0.03,-0.07 -0.01,-0.03 -0.05,-0.05 -0.08,-0.1 z"
       id="path101" />
  </g>
</svg>
