<?xml version="1.0" encoding="UTF-8" standalone="no"?>
<svg
   version="1.2"
   width="800"
   height="642"
   viewBox="0 0 800 642"
   stroke-linecap="round"
   stroke-linejoin="round"
   id="svg122"
   sodipodi:docname="Aretxabaleta.svg"
   inkscape:version="1.1.2 (b8e25be833, 2022-02-05)"
   xmlns:inkscape="http://www.inkscape.org/namespaces/inkscape"
   xmlns:sodipodi="http://sodipodi.sourceforge.net/DTD/sodipodi-0.dtd"
   xmlns="http://www.w3.org/2000/svg"
   xmlns:svg="http://www.w3.org/2000/svg">
  <defs
     id="defs126" />
  <sodipodi:namedview
     id="namedview124"
     pagecolor="#ffffff"
     bordercolor="#666666"
     borderopacity="1.0"
     inkscape:pageshadow="2"
     inkscape:pageopacity="0.0"
     inkscape:pagecheckerboard="0"
     showgrid="false"
     inkscape:zoom="1.3146417"
     inkscape:cx="399.72867"
     inkscape:cy="199.67417"
     inkscape:window-width="1848"
     inkscape:window-height="1016"
     inkscape:window-x="72"
     inkscape:window-y="1107"
     inkscape:window-maximized="1"
     inkscape:current-layer="svg122" />
  <g
     id="Aretxabaleta"
     transform="matrix(8.6398869,0,0,8.6398869,-2142.3383,-1599.649)">
    <path
       d="m 263.93,198.89 2.59,-0.21 0.3,-0.26 1.19,0.83 1.46,0.83 1.34,0.06 0.7,-0.05 h 0.03 0.05 0.04 l 0.04,0.01 0.05,0.02 0.04,0.02 0.03,0.03 0.02,0.02 0.04,0.03 0.05,0.03 0.03,0.02 0.05,0.01 0.04,0.01 0.05,0.02 0.03,0.02 0.05,0.03 0.02,0.03 0.03,0.04 0.02,0.02 0.03,0.04 0.05,0.04 0.01,0.03 0.02,0.04 0.01,0.03 0.01,0.05 v 0.06 l 0.02,0.11 0.03,0.1 0.1,0.01 0.1,-0.09 0.41,-0.27 0.24,-0.18 0.1,-0.15 0.22,-0.34 0.01,0.02 0.02,0.01 0.03,0.01 0.02,0.03 0.03,0.05 0.03,0.02 0.04,0.02 0.03,0.02 0.03,0.01 h 0.02 l 0.04,0.01 h 0.01 l 0.02,0.04 0.04,0.05 0.02,0.04 0.01,0.01 0.02,0.05 0.04,0.07 0.01,0.02 0.05,0.09 0.04,0.05 0.01,0.04 0.01,0.03 0.01,0.04 0.01,0.04 0.02,0.05 0.03,0.04 0.04,0.08 0.02,0.06 0.02,0.04 0.01,0.01 v 0.01 l 0.01,0.06 0.03,0.08 0.02,0.05 0.01,0.04 0.02,0.05 0.02,0.03 0.02,0.06 0.01,0.04 0.01,0.05 v 0.01 h 0.01 l 0.17,0.52 -0.15,0.65 0.17,0.17 0.35,-0.16 0.44,0.93 0.25,0.26 0.6,0.1 0.78,0.06 0.45,-0.19 0.43,0.08 0.89,-0.03 0.96,-0.39 0.93,-0.73 0.27,-0.9 -0.03,-0.06 0.03,-0.02 0.03,-0.02 0.04,-0.01 0.25,-0.04 h 0.03 l 0.02,0.01 0.03,0.01 0.04,0.01 0.03,0.01 0.03,0.02 h 0.02 l 0.02,0.01 h 0.02 l 0.03,-0.01 0.03,-0.01 0.03,-0.01 0.04,-0.03 0.04,-0.02 0.03,-0.02 0.02,-0.02 0.02,-0.01 0.04,-0.01 0.06,-0.01 0.05,-0.02 0.04,-0.01 0.05,-0.01 0.04,-0.02 0.05,-0.01 0.06,-0.02 0.04,-0.01 0.05,-0.01 0.04,-0.01 0.02,-0.01 0.03,-0.02 0.02,-0.01 h 0.01 0.02 0.01 l 0.03,0.01 0.04,0.03 0.03,0.01 0.02,0.01 0.03,0.01 0.03,0.01 h 0.04 0.04 l 0.93,-0.02 0.56,0.66 0.16,0.33 0.04,0.39 0.15,1.41 0.62,1.04 0.43,0.77 0.35,0.95 0.33,0.99 -0.06,1.56 -0.85,1.88 -0.37,1.27 -1.56,3.57 -0.76,0.91 -0.79,1.03 -1.18,1.97 -0.24,1.05 0.1,1.2 0.13,1.04 -0.24,1.26 -0.35,0.85 -1.36,1.55 0.15,3.62 -0.2,0.77 -0.27,0.91 h -0.01 l -0.92,0.35 -0.26,0.03 -0.27,-0.49 -0.62,-2.02 -0.34,-1.28 -0.59,-1.6 -0.09,-0.46 -0.07,-0.46 -0.1,-0.65 -0.16,-1.14 -0.93,-2.78 0.13,-0.64 -0.49,-0.7 0.03,-1.44 -0.96,-0.91 -0.5,-0.83 -0.37,-0.79 1.01,-0.83 -0.53,-1.3 0.7,-0.02 -0.61,-1.66 0.42,-0.68 -0.05,-1.09 -0.38,-0.6 -0.38,-0.26 -0.12,1.28 -1.94,1.23 -0.79,-0.53 0.27,-0.39 0.09,-0.38 -0.02,-0.8 -0.04,-0.93 -0.12,-0.45 -0.21,-0.16 -0.15,-0.15 -1.15,-1.08 0.14,-0.59 0.14,-0.51 -0.66,-0.78 -0.72,-0.94 -0.42,-0.92 -0.2,-0.34 -0.42,-0.76 -0.19,-0.43 -0.63,-0.8 -0.15,-0.67 -0.15,-0.63 -0.27,-0.81 -0.35,-0.64 z"
       id="path119" />
  </g>
</svg>
