<?xml version="1.0" encoding="UTF-8" standalone="no"?>
<svg
   xmlns:dc="http://purl.org/dc/elements/1.1/"
   xmlns:cc="http://creativecommons.org/ns#"
   xmlns:rdf="http://www.w3.org/1999/02/22-rdf-syntax-ns#"
   xmlns:svg="http://www.w3.org/2000/svg"
   xmlns="http://www.w3.org/2000/svg"
   xmlns:sodipodi="http://sodipodi.sourceforge.net/DTD/sodipodi-0.dtd"
   xmlns:inkscape="http://www.inkscape.org/namespaces/inkscape"
   version="1.2"
   width="800"
   height="642"
   viewBox="0 0 800 642"
   stroke-linecap="round"
   stroke-linejoin="round"
   id="svg5"
   sodipodi:docname="Arguedas.svg"
   inkscape:version="0.92.5 (2060ec1f9f, 2020-04-08)">
  <metadata
     id="metadata11">
    <rdf:RDF>
      <cc:Work
         rdf:about="">
        <dc:format>image/svg+xml</dc:format>
        <dc:type
           rdf:resource="http://purl.org/dc/dcmitype/StillImage" />
      </cc:Work>
    </rdf:RDF>
  </metadata>
  <defs
     id="defs9" />
  <sodipodi:namedview
     pagecolor="#ffffff"
     bordercolor="#666666"
     borderopacity="1"
     objecttolerance="10"
     gridtolerance="10"
     guidetolerance="10"
     inkscape:pageopacity="0"
     inkscape:pageshadow="2"
     inkscape:window-width="1848"
     inkscape:window-height="1016"
     id="namedview7"
     showgrid="false"
     inkscape:zoom="1.0397333"
     inkscape:cx="400"
     inkscape:cy="321"
     inkscape:window-x="72"
     inkscape:window-y="27"
     inkscape:window-maximized="1"
     inkscape:current-layer="svg5" />
  <g
     id="Arguedas"
     transform="matrix(8.0916129,0,0,8.0916129,-3931.1606,-3868.9987)">
    <path
       d="m 549.06,513.16 h 0.06 0.11 l 0.1,0.03 0.1,0.06 0.08,0.03 0.08,0.02 0.09,-0.01 0.09,-0.01 0.04,0.01 0.08,0.03 0.09,0.06 0.08,0.04 0.08,0.04 0.07,0.02 0.05,0.01 0.11,0.05 0.13,0.08 0.1,0.06 0.12,0.05 0.12,0.04 0.14,0.07 0.1,0.07 0.1,0.06 0.11,0.05 0.1,0.04 0.09,0.01 h 0.09 l 0.07,-0.01 0.11,0.01 0.11,0.01 0.1,0.02 0.1,0.03 0.09,0.03 0.01,0.02 0.12,0.07 0.17,0.1 0.2,0.11 0.09,0.05 0.04,0.01 h 0.05 l 0.07,-0.01 h 0.09 l 0.05,0.01 0.04,0.02 0.03,0.03 0.04,0.08 0.06,0.14 0.06,0.11 0.06,0.09 0.06,0.07 0.08,0.07 0.12,0.07 0.16,0.07 0.13,0.05 0.16,0.05 0.22,0.06 0.25,0.05 0.12,0.04 0.1,0.04 0.08,0.05 0.06,0.05 0.1,0.1 0.13,0.15 0.1,0.13 0.1,0.1 0.09,0.11 0.01,0.09 v 0.19 l 0.01,0.12 0.01,0.11 0.01,0.14 0.01,0.05 v 0.02 0.01 0.01 l 0.01,0.04 v 0.03 l 0.02,0.04 0.02,0.05 0.02,0.07 0.01,0.05 0.01,0.05 v 0.01 l 0.01,0.06 0.01,0.08 v 0.1 0.08 l -0.01,0.08 -0.02,0.09 -0.01,0.07 v 0.02 l 0.02,0.04 v 0.02 l 0.02,0.02 0.02,0.05 0.02,0.03 v 0.01 l 0.04,0.08 0.05,0.1 0.03,0.06 0.01,0.03 v 0.02 0.05 l 0.01,0.05 0.02,0.05 0.02,0.04 0.03,0.04 0.02,0.04 0.02,0.07 0.01,0.03 0.01,0.05 0.01,0.07 0.02,0.05 0.01,0.04 0.01,0.02 0.03,0.07 0.04,0.09 0.03,0.08 0.06,0.17 0.02,0.07 0.02,0.03 0.02,0.03 0.03,0.03 0.05,0.06 0.08,0.1 0.01,0.01 0.03,0.04 0.03,0.04 0.02,0.03 0.01,0.03 0.01,0.03 v 0.04 0.03 l -0.01,0.03 -0.01,0.03 -0.02,0.04 -0.02,0.04 -0.05,0.06 -0.06,0.06 -0.04,0.05 -0.04,0.05 -0.01,0.03 -0.01,0.03 -0.01,0.04 -0.01,0.03 -0.01,0.04 v 0.05 0.04 0.03 0.04 l 0.01,0.04 0.01,0.04 0.01,0.03 0.02,0.05 0.02,0.04 0.04,0.06 0.05,0.05 0.04,0.04 0.05,0.04 0.04,0.03 0.06,0.04 0.07,0.04 0.08,0.04 0.12,0.07 0.15,0.06 0.14,0.06 0.09,0.04 0.03,0.01 0.02,0.03 0.04,0.04 0.01,0.03 0.01,0.03 v 0.03 0.03 l -0.01,0.04 -0.01,0.04 -0.01,0.04 v 0.02 0.04 l 0.02,0.05 0.01,0.11 0.02,0.08 0.02,0.11 0.02,0.07 0.01,0.06 v 0.04 0.04 0.05 l -0.01,0.04 -0.01,0.05 -0.02,0.05 -0.02,0.02 -0.02,0.04 -0.03,0.03 -0.02,0.01 0.02,0.06 0.09,0.3 0.08,0.24 0.01,0.03 0.01,0.04 0.08,0.25 0.08,0.24 0.08,0.27 0.06,0.2 0.06,0.19 0.01,0.03 -0.01,0.1 -0.02,0.15 -0.03,0.21 -0.03,0.21 -0.01,0.09 -0.04,0.27 -0.04,0.18 -0.08,0.29 -0.07,0.3 -0.02,0.07 -0.04,0.15 -0.01,0.09 -0.01,0.12 v 0.06 l 0.01,0.1 0.01,0.14 v 0.07 0.01 l 0.01,0.11 0.01,0.16 v 0.09 0.07 l 0.01,0.04 v 0.06 0.01 0.01 0.05 l 0.02,0.31 0.01,0.21 v 0.09 l 0.01,0.01 v 0.12 l 0.01,0.03 v 0.03 l -0.01,0.04 v 0.01 l -0.03,0.12 v 0.02 l -0.06,0.33 -0.04,0.2 -0.01,0.06 v 0.01 0.01 l -0.01,0.02 -0.02,0.12 -0.03,0.16 -0.03,0.16 -0.03,0.16 -0.01,0.05 -0.01,0.07 v 0.05 l -0.02,0.11 -0.02,0.23 -0.03,0.19 -0.02,0.11 v 0.06 0.04 0.02 0.09 0.12 l -0.02,0.11 -0.01,0.06 v 0.04 l -0.03,0.2 -0.05,0.31 -0.03,0.21 -0.03,0.22 v 0.03 l -0.01,0.04 -0.02,0.07 -0.02,0.09 0.01,0.03 -0.01,0.05 v 0.05 0.03 l -0.02,0.07 -0.01,0.03 -0.05,0.13 -0.04,0.14 -0.01,0.02 -0.07,0.23 -0.03,0.14 -0.03,0.15 -0.02,0.12 -0.01,0.05 v 0.05 0.08 l -0.02,0.08 -0.13,0.24 -0.03,0.04 -0.03,0.05 -0.01,0.01 -0.07,0.12 v 0.08 l 0.01,0.15 0.01,0.21 -0.05,0.1 v 0.02 l 0.02,0.2 0.05,0.31 v 0.02 0.01 0.01 l 0.01,0.1 0.02,0.17 0.02,0.12 v 0.06 l 0.01,0.06 -0.01,0.08 v 0.09 0.08 0.08 l -0.01,0.03 -0.03,0.09 -0.03,0.05 -0.01,0.03 -0.02,0.09 -0.01,0.01 -0.01,0.03 -0.01,0.06 -0.01,0.06 -0.03,0.12 -0.02,0.09 v 0.02 l -0.01,0.05 -0.01,0.03 -0.01,0.04 -0.01,0.05 -0.08,0.26 -0.02,0.11 v 0.01 0.01 l -0.01,0.01 v 0.01 0.02 0.05 l -0.02,0.08 -0.01,0.05 -0.02,0.11 v 0.14 l -0.02,0.11 -0.04,0.15 -0.06,0.24 -0.07,0.25 -0.07,0.36 -0.08,0.42 -0.1,0.44 v 0 l -0.07,0.37 -0.01,0.02 -0.01,0.05 -0.05,0.23 -0.01,0.07 -0.03,0.11 -0.04,0.08 -0.02,0.13 -0.01,0.01 -0.01,0.08 -0.01,0.06 -0.01,0.03 v 0.01 0 l -0.02,0.03 -0.02,0.05 -0.03,0.05 -0.1,0.13 -0.09,0.12 -0.01,0.01 -0.02,0.04 -0.09,0.11 -0.08,0.11 -0.01,0.01 -0.01,0.01 -0.01,0.02 h -0.01 l -0.01,0.01 -0.04,0.06 -0.05,0.07 -0.03,0.08 -0.02,0.05 -0.01,0.01 -0.02,0.05 v 0.03 l -0.03,0.09 -0.02,0.1 v 0.03 l -0.02,0.04 -0.02,0.05 -0.02,0.04 -0.02,0.04 -0.02,0.03 -0.03,0.03 -0.05,0.05 -0.07,0.07 -0.07,0.05 -0.07,0.07 -0.03,0.04 -0.02,0.02 v 0.01 l -0.04,0.06 -0.1,0.15 -0.09,0.11 -0.08,0.11 -0.06,0.09 -0.01,0.02 -0.08,0.1 -0.03,0.05 -0.07,0.09 -0.05,0.06 -0.1,0.15 -0.03,0.03 -0.03,0.05 -0.02,0.02 -0.05,0.06 -0.05,0.06 -0.03,0.06 -0.03,0.05 -0.02,0.05 -0.03,0.09 -0.01,0.01 v 0.02 l -0.02,0.05 h -0.01 l -0.1,0.21 -0.04,0.05 -0.1,0.19 -0.06,0.08 -0.02,0.03 -0.01,0.01 -0.01,0.01 -0.01,0.01 -0.04,0.01 -0.04,0.04 -0.02,0.01 -0.04,0.02 -0.05,0.04 -0.08,0.06 -0.09,0.07 -0.13,0.09 -0.07,0.06 -0.03,0.03 -0.03,0.03 -0.06,0.06 -0.08,0.09 -0.03,0.03 -0.03,0.01 -0.05,0.03 -0.03,0.03 -0.04,0.03 -0.05,0.06 -0.02,0.02 -0.01,0.02 -0.05,0.06 -0.04,0.05 -0.04,0.05 -0.13,0.14 -0.02,0.02 -0.07,0.08 -0.07,0.08 -0.01,0.01 -0.06,0.08 -0.04,0.09 -0.03,0.05 -0.02,0.01 -0.04,0.05 -0.05,0.05 -0.08,0.07 -0.03,0.05 -0.02,0.02 -0.03,0.04 -0.02,0.02 -0.01,0.01 -0.03,0.03 -0.01,0.02 -0.01,0.02 -0.02,0.03 -0.03,0.04 -0.02,0.02 -0.03,0.01 -0.01,0.01 v 0.02 l -0.02,0.03 -0.01,0.03 -0.01,0.02 -0.05,0.07 -0.07,0.09 -0.15,0.2 -0.15,0.2 -0.01,0.01 -0.01,0.01 -0.01,0.01 -0.02,0.03 -0.26,0.36 -0.04,0.05 -0.17,0.24 -0.07,0.1 -0.18,0.25 -0.09,0.13 -0.07,0.12 -0.17,0.25 -0.07,0.1 -0.09,0.12 -0.11,0.16 -0.01,0.02 -0.03,0.03 -0.01,0.02 -0.04,0.05 -0.01,0.02 -0.01,0.02 -0.06,0.07 -0.1,0.15 -0.15,0.2 -0.08,0.12 -0.04,0.06 -0.09,0.12 -0.02,0.03 -0.02,0.03 -0.07,0.09 -0.02,0.02 -0.02,0.02 v 0 l -0.01,0.01 -0.01,0.02 -0.01,0.01 -0.05,0.06 -0.07,0.08 -0.02,0.02 -0.02,0.03 -0.02,0.02 -0.01,0.02 -0.02,0.02 -0.06,0.06 v 0.01 l -0.01,0.01 -0.01,0.01 -0.03,0.04 -0.1,0.12 -0.06,0.07 -0.01,0.01 -0.01,0.01 -0.01,0.01 -0.19,0.22 -0.15,0.19 -0.15,0.18 -0.01,0.01 -0.01,0.01 -0.02,0.02 -0.03,0.03 -0.01,0.01 -0.01,0.01 -0.03,0.03 -0.09,0.08 -0.13,0.13 -0.15,0.15 -0.17,0.13 -0.23,0.23 -0.26,0.23 -0.19,0.18 -0.03,0.02 -0.03,0.03 -0.02,0.02 -0.19,-0.91 -0.01,-0.02 v -0.01 -0.01 l -0.13,-0.61 -0.17,-0.75 v -0.02 -0.01 l -0.13,-0.56 -0.18,-0.83 -0.12,-0.54 -0.31,-1.5 -0.16,-0.73 h -0.02 l -0.02,0.01 -0.61,0.13 -1.18,0.25 -0.95,0.21 -1.07,0.23 -0.5,0.11 -0.79,0.17 -0.01,-0.03 -0.31,-1.33 -0.01,-0.02 -0.1,-0.44 h -0.01 l -0.02,0.01 -0.03,0.01 -0.01,0.01 -0.04,0.02 -0.51,0.26 -0.13,0.07 -0.04,-0.03 -0.1,-0.07 -0.13,-0.11 -0.02,-0.01 -0.04,-0.03 -0.02,-0.01 h -0.01 l -0.01,0.01 0.01,0.02 0.01,0.02 0.02,0.02 v 0.08 0.02 0.04 0.04 0.22 0.03 0 0.22 l 0.01,0.03 -0.01,0.15 v 0.07 0.03 0.02 0.21 0.02 0.01 l -0.08,0.26 v 0.01 l -0.02,0.03 -0.02,0.05 -0.03,0.09 -0.05,0.09 -0.01,0.02 -0.01,0.02 -0.01,0.02 -0.04,0.07 -0.05,0.07 -0.05,0.05 -0.05,-0.01 -0.04,-0.01 -0.19,-0.06 -0.22,-0.07 -0.02,-0.01 -0.04,-0.01 -0.07,-0.02 -0.17,-0.05 -0.15,-0.02 h -0.01 -0.02 l -0.04,-0.01 h -0.02 l -0.13,-0.01 -0.07,0.01 h -0.08 l -0.13,0.02 h -0.02 -0.12 -0.07 l -0.05,0.02 -0.04,0.02 -0.05,-0.06 -0.06,-0.05 -0.02,-0.01 -0.03,-0.01 -0.01,-0.01 h -0.01 l -0.05,-0.02 -0.13,-0.04 -0.06,-0.03 -0.06,-0.04 -0.02,-0.02 -0.06,-0.04 -0.08,-0.07 -0.1,-0.08 -0.02,-0.03 -0.11,-0.09 -0.12,-0.09 -0.04,-0.03 -0.07,-0.06 -0.03,-0.02 -0.03,-0.03 -0.02,-0.01 -0.02,-0.02 -0.01,-0.01 -0.02,-0.02 -0.03,-0.03 -0.02,-0.02 -0.01,-0.01 -0.01,-0.01 -0.05,-0.04 -0.02,-0.03 -0.03,-0.03 -0.07,-0.06 -0.07,0.01 -0.07,0.02 -0.05,0.03 -0.09,0.01 h -0.04 -0.01 l -0.04,0.01 -0.18,0.07 -0.22,0.09 -0.04,0.02 -0.06,0.07 -0.06,0.06 -0.07,0.08 -0.03,0.03 -0.03,0.01 -0.14,0.01 h -0.1 l -0.03,0.01 h -0.02 l -0.03,0.02 -0.09,0.07 -0.09,0.06 h -0.02 l -0.09,0.06 -0.05,0.02 -0.11,0.06 -0.08,0.04 -0.1,0.03 -0.09,0.05 -0.06,0.04 -0.06,0.05 -0.09,0.09 -0.03,0.04 -0.07,0.07 -0.1,0.11 -0.05,0.07 -0.03,0.05 -0.01,0.02 -0.02,0.02 -0.01,0.02 -0.02,0.02 -0.03,0.03 -0.08,0.07 -0.07,0.05 -0.01,0.01 -0.14,0.1 -0.07,0.06 -0.02,0.02 h -0.01 l -0.11,0.11 -0.09,0.07 -0.02,0.02 -0.13,0.11 -0.07,0.06 -0.04,0.03 -0.03,0.03 -0.05,0.03 -0.07,0.05 -0.05,0.03 -0.06,0.01 h -0.04 l -0.05,0.01 -0.12,0.01 -0.6,0.01 -0.89,0.03 -0.03,-0.02 -0.04,-0.02 -0.04,-0.04 -0.02,-0.08 -0.05,-0.19 -0.03,-0.23 -0.02,-0.2 -0.01,-0.14 -0.06,-0.18 -0.11,-0.26 -0.07,-0.17 -0.1,-0.26 -0.09,-0.17 -0.03,-0.04 -0.13,-0.22 -0.16,-0.27 -0.17,-0.23 -0.18,-0.25 -0.11,-0.12 -0.13,-0.12 -0.19,-0.14 -0.18,-0.11 -0.13,-0.08 -0.16,-0.06 -0.07,-0.02 -0.27,-0.01 h -0.27 l -0.19,0.01 -0.28,0.02 -0.22,-0.01 -0.14,-0.02 -0.03,-0.14 -0.02,-0.07 v -0.03 l 0.01,-0.03 0.07,-0.17 0.03,-0.09 0.08,-0.24 0.1,-0.27 0.01,-0.02 v -0.04 l 0.01,-0.08 0.07,-0.42 0.05,-0.31 0.06,-0.31 0.07,-0.41 0.02,-0.09 0.01,-0.08 0.04,-0.31 0.01,-0.04 0.01,-0.05 0.01,-0.05 0.04,-0.18 0.01,-0.06 0.01,-0.05 0.01,-0.07 0.02,-0.09 0.01,-0.08 0.02,-0.09 0.01,-0.04 0.02,-0.05 0.01,-0.02 0.01,-0.03 0.03,-0.08 0.01,-0.03 0.02,-0.05 0.02,-0.04 0.03,-0.05 0.01,-0.04 0.02,-0.04 0.02,-0.07 0.01,-0.03 0.03,-0.09 0.02,-0.04 0.01,-0.03 0.03,-0.09 0.03,-0.06 0.11,-0.22 0.07,-0.15 0.03,-0.06 -0.03,-0.15 0.03,-0.08 0.04,-0.09 0.02,-0.07 v -0.08 l -0.01,-0.1 -0.01,-0.08 v -0.03 l 0.01,-0.07 0.01,-0.1 v -0.09 l -0.01,-0.09 0.01,-0.01 -0.01,-0.03 -0.01,-0.03 -0.01,-0.05 -0.02,-0.05 v -0.04 l -0.01,-0.03 v -0.01 l -0.01,-0.04 -0.01,-0.04 v -0.03 l -0.01,-0.03 -0.01,-0.03 v -0.04 -0.05 l -0.01,-0.08 -0.01,-0.02 v -0.02 -0.06 l 0.01,-0.08 -0.02,-0.02 v -0.02 -0.03 l 0.01,-0.03 0.01,-0.07 v -0.04 -0.06 -0.06 -0.04 l -0.01,-0.05 0.02,-0.06 v -0.02 l 0.01,-0.04 0.01,-0.06 0.01,-0.06 0.01,-0.03 -0.03,-0.02 0.01,-0.01 v -0.09 -0.08 l -0.01,-0.01 -0.01,-0.04 -0.03,-0.08 -0.01,-0.03 0.06,-0.01 0.02,-0.02 0.02,-0.02 0.03,-0.01 0.04,-0.01 0.07,-0.03 0.08,-0.02 0.04,-0.02 0.04,-0.02 0.06,-0.01 0.05,-0.01 0.06,-0.03 0.02,-0.02 0.08,-0.03 0.03,-0.01 0.05,0.01 0.1,0.02 0.09,0.04 0.04,0.02 0.01,-0.01 0.02,-0.03 0.04,-0.05 0.03,-0.07 0.02,-0.04 0.01,-0.05 0.05,-0.07 0.01,-0.01 0.02,-0.06 h 0.01 l 0.02,-0.05 0.01,-0.01 0.05,-0.05 0.03,-0.04 0.07,-0.01 0.08,-0.02 0.07,-0.01 0.06,0.01 h 0.01 l 0.07,-0.01 h 0.01 l -0.03,-0.05 -0.06,-0.08 -0.05,-0.05 0.02,-0.02 h 0.05 l 0.01,-0.01 0.03,-0.05 0.01,-0.01 0.04,-0.11 0.02,-0.03 0.01,-0.02 0.02,-0.05 0.04,-0.08 0.07,0.03 0.17,0.09 0.1,0.03 h 0.02 0.01 l 0.01,-0.01 0.01,-0.01 0.01,-0.03 0.01,-0.03 0.02,-0.03 0.02,-0.04 0.01,-0.03 0.02,-0.01 v -0.01 l 0.02,-0.04 0.01,-0.03 0.01,-0.03 v -0.04 l 0.01,-0.06 v -0.05 -0.05 l 0.01,-0.02 v -0.05 l 0.01,-0.03 v -0.01 l 0.01,-0.05 0.02,-0.06 0.02,-0.04 0.01,-0.06 0.02,-0.03 0.02,-0.04 0.02,-0.03 v -0.02 -0.03 -0.01 -0.03 l 0.01,-0.01 0.03,-0.06 0.02,-0.03 0.03,-0.03 0.01,-0.01 0.01,-0.02 0.02,-0.02 0.02,-0.03 0.04,-0.06 0.01,-0.02 0.02,-0.03 0.02,-0.02 0.01,-0.02 v -0.02 l 0.01,-0.03 0.01,-0.03 0.01,-0.02 v -0.01 l -0.02,-0.05 -0.02,-0.03 -0.01,-0.03 -0.01,-0.03 v -0.03 l -0.03,-0.03 0.03,-0.05 0.02,-0.05 0.04,-0.05 0.16,-0.3 0.01,-0.01 0.07,-0.18 -0.03,-0.02 0.02,-0.02 0.01,-0.01 0.03,-0.04 0.03,-0.03 0.03,-0.03 0.02,-0.03 0.01,-0.02 0.01,-0.01 v -0.01 l 0.02,-0.02 0.02,-0.03 0.01,-0.02 0.02,-0.01 0.01,-0.01 0.04,-0.02 0.02,-0.01 0.03,-0.03 0.03,-0.03 0.06,-0.06 0.11,-0.14 0.02,-0.03 0.05,-0.06 0.08,-0.08 0.04,-0.06 0.05,-0.06 0.03,-0.02 0.01,-0.02 0.06,-0.04 0.04,-0.03 0.01,-0.01 0.25,-0.34 0.06,-0.12 0.03,-0.06 0.08,-0.13 0.03,-0.06 0.12,-0.13 0.32,-0.35 0.38,-0.42 0.17,-0.39 0.01,-0.13 0.02,-0.08 0.02,-0.06 0.07,-0.09 0.25,-0.33 0.09,-0.12 0.13,-0.18 0.21,-0.26 0.03,-0.06 0.28,-0.48 0.07,-0.13 0.17,-0.34 0.03,-0.04 0.06,-0.06 0.21,-0.7 0.04,-0.03 0.12,-0.15 0.05,-0.04 0.09,-0.06 0.02,-0.05 0.09,-0.16 0.11,-0.18 0.04,-0.09 0.05,-0.1 0.08,-0.18 0.14,-0.29 0.05,-0.1 v -0.01 l 0.05,-0.1 0.09,-0.17 0.04,-0.06 0.1,-0.21 0.01,-0.01 0.24,-0.45 0.07,-0.12 0.3,-0.53 0.01,-0.01 0.11,-0.2 0.07,-0.08 0.15,-0.27 0.3,-0.52 0.01,-0.01 0.1,-0.17 0.21,-0.36 0.01,-0.01 0.31,-0.53 0.01,-0.01 -0.12,-0.12 -0.09,-0.06 -0.04,-0.03 -0.1,-0.08 -0.02,-0.01 -0.05,-0.04 -0.01,-0.01 -0.05,-0.04 -0.01,-0.01 -0.04,-0.06 -0.03,-0.04 -0.09,-0.07 -0.01,-0.01 -0.05,-0.05 -0.13,-0.11 -0.14,-0.1 -0.23,-0.17 -0.03,-0.02 -0.07,-0.08 -0.08,-0.07 0.32,-0.54 0.08,-0.15 0.13,-0.29 0.08,-0.17 0.06,-0.14 0.01,-0.03 0.02,-0.04 0.1,-0.25 0.06,-0.2 0.02,-0.06 0.03,-0.1 0.02,-0.11 0.05,-0.23 0.07,-0.23 0.05,-0.21 0.01,-0.02 v -0.02 l 0.07,-0.28 0.01,-0.02 0.07,-0.2 0.15,-0.41 0.03,-0.06 0.04,-0.08 0.05,-0.09 0.01,-0.02 0.09,-0.2 0.07,-0.13 0.01,-0.01 0.12,-0.08 0.01,-0.01 0.03,-0.02 v 0 l 0.01,-0.01 0.06,-0.04 0.1,-0.08 0.07,-0.04 0.05,-0.04 0.09,-0.07 v -0.01 l 0.04,-0.03 0.01,-0.01 0.01,-0.01 0.05,-0.03 0.01,-0.01 0.07,-0.05 0.04,-0.04 0.02,-0.01 0.07,-0.06 0.07,-0.06 0.03,-0.03 v -0.01 l 0.03,-0.03 h 0.02 l 0.07,-0.05 0.1,-0.08 0.03,0.03 0.06,0.07 0.06,0.04 0.16,0.11 0.1,0.06 0.07,0.07 0.04,0.04 0.06,0.08 0.07,0.08 0.02,0.02 0.06,0.06 0.04,0.07 0.02,0.05 0.03,0.06 0.05,0.06 0.04,0.04 0.02,0.02 0.09,0.05 0.18,0.09 h 0.02 l 0.04,-0.01 0.06,-0.03 h 0.02 l 0.13,0.05 0.03,0.01 0.01,0.01 0.11,0.04 0.07,0.03 0.08,0.04 0.01,0.04 0.02,0.06 0.03,0.08 0.04,0.04 0.06,0.02 h 0.01 l 0.04,-0.01 0.1,-0.02 h 0.01 0.03 l 0.02,0.01 h 0.01 l 0.02,0.01 0.01,0.02 0.01,0.03 0.02,0.04 0.05,0.05 0.1,0.07 0.06,0.01 H 540 l 0.16,0.04 0.19,0.05 0.24,0.04 0.15,0.02 h 0.08 l 0.05,0.06 0.04,0.04 0.06,0.03 h 0.03 0.04 0.03 0.01 0.01 l 0.02,0.01 0.18,0.04 0.07,-0.21 0.02,-0.05 0.05,-0.1 0.1,-0.23 0.04,-0.02 0.03,-0.01 0.01,-0.01 0.03,-0.01 0.01,-0.02 0.1,-0.04 0.13,-0.06 0.06,-0.02 h 0.01 l 0.11,-0.04 0.14,-0.05 0.05,-0.03 0.12,-0.04 v 0 l 0.04,-0.03 0.07,-0.03 0.14,-0.07 h 0.02 l 0.13,-0.06 0.03,-0.01 0.05,-0.04 0.06,-0.06 0.09,-0.09 0.19,-0.21 0.01,-0.01 0.07,-0.08 0.1,-0.1 0.18,-0.16 0.06,-0.05 0.09,-0.08 0.19,-0.13 0.08,-0.06 0.27,-0.17 0.12,-0.07 0.17,-0.08 0.14,-0.07 0.12,-0.05 0.08,-0.04 0.06,-0.02 0.23,-0.1 0.07,-0.02 0.04,-0.01 0.13,-0.04 0.27,-0.06 0.08,-0.05 0.02,-0.01 0.09,-0.04 0.15,-0.08 0.13,-0.08 0.12,-0.07 0.09,-0.07 0.07,-0.05 0.13,-0.1 0.14,-0.1 0.07,-0.05 0.03,-0.02 0.02,-0.01 0.04,-0.02 0.04,-0.02 0.26,-0.15 0.02,-0.01 0.28,-0.15 0.25,-0.12 0.18,-0.08 0.1,-0.04 0.07,-0.02 0.09,-0.01 0.15,-0.02 h 0.02 0.05 l 0.01,-0.02 0.02,-0.03 0.03,-0.05 0.05,-0.09 0.1,-0.18 0.26,-0.47 0.03,-0.05 z"
       id="path2"
       inkscape:connector-curvature="0" />
  </g>
</svg>
