<?xml version="1.0" encoding="UTF-8" standalone="no"?>
<svg
   xmlns:dc="http://purl.org/dc/elements/1.1/"
   xmlns:cc="http://creativecommons.org/ns#"
   xmlns:rdf="http://www.w3.org/1999/02/22-rdf-syntax-ns#"
   xmlns:svg="http://www.w3.org/2000/svg"
   xmlns="http://www.w3.org/2000/svg"
   xmlns:sodipodi="http://sodipodi.sourceforge.net/DTD/sodipodi-0.dtd"
   xmlns:inkscape="http://www.inkscape.org/namespaces/inkscape"
   version="1.2"
   width="800"
   height="642"
   viewBox="0 0 800 642"
   stroke-linecap="round"
   stroke-linejoin="round"
   id="svg60"
   sodipodi:docname="Armendaritze.svg"
   inkscape:version="0.92.5 (2060ec1f9f, 2020-04-08)">
  <metadata
     id="metadata66">
    <rdf:RDF>
      <cc:Work
         rdf:about="">
        <dc:format>image/svg+xml</dc:format>
        <dc:type
           rdf:resource="http://purl.org/dc/dcmitype/StillImage" />
      </cc:Work>
    </rdf:RDF>
  </metadata>
  <defs
     id="defs64" />
  <sodipodi:namedview
     pagecolor="#ffffff"
     bordercolor="#666666"
     borderopacity="1"
     objecttolerance="10"
     gridtolerance="10"
     guidetolerance="10"
     inkscape:pageopacity="0"
     inkscape:pageshadow="2"
     inkscape:window-width="1848"
     inkscape:window-height="1016"
     id="namedview62"
     showgrid="false"
     inkscape:zoom="1.0397333"
     inkscape:cx="400"
     inkscape:cy="321"
     inkscape:window-x="72"
     inkscape:window-y="27"
     inkscape:window-maximized="1"
     inkscape:current-layer="svg60" />
  <g
     id="Armendaritze"
     transform="matrix(15.583611,0,0,15.583611,-9614.0329,-1300.8821)">
    <path
       d="m 643.25,92.15 0.11,0.03 0.05,0.01 0.05,0.01 0.03,0.02 0.05,0.01 0.06,0.01 0.04,0.01 0.04,0.01 0.02,0.01 0.31,-0.14 0.39,-0.15 0.34,0.01 0.63,-0.07 0.51,-0.21 0.15,-0.12 0.05,-0.09 0.34,-0.21 0.17,-0.08 0.73,-0.6 0.76,-0.8 0.38,-0.36 0.23,-0.32 0.27,-0.39 0.02,0.02 0.03,0.01 0.02,0.02 0.02,0.03 0.03,0.02 0.05,0.02 0.07,0.01 0.04,0.01 0.05,0.01 0.04,0.01 0.04,0.02 0.05,0.01 0.06,0.02 0.04,0.01 0.04,0.01 0.05,0.02 0.01,0.01 0.04,0.01 0.06,0.01 h 0.05 l 0.04,0.01 0.05,0.02 0.05,0.02 0.04,0.02 0.04,0.03 0.03,0.02 0.04,0.01 h 0.04 l 0.06,0.01 0.06,0.02 0.06,0.02 0.04,0.01 0.01,0.01 0.03,0.01 0.03,0.01 h 0.03 l 0.02,-0.02 h 0.03 l 0.03,0.01 0.02,0.01 0.02,0.01 0.02,0.03 v 0.03 l 0.02,0.03 0.05,0.01 h 0.04 l 0.03,0.01 h 0.03 0.03 l 0.03,0.01 0.04,0.02 0.03,0.01 0.03,0.01 h 0.03 0.02 l 0.03,0.01 0.01,0.01 0.02,0.02 0.03,0.02 0.01,0.02 0.02,0.01 0.03,0.01 0.03,0.02 h 0.04 0.03 0.03 0.03 0.04 l 0.03,-0.01 h 0.03 l 0.05,0.02 0.03,0.01 0.02,0.01 0.02,0.01 0.01,0.02 0.01,0.01 0.02,0.01 0.03,0.01 h 0.02 l 0.02,0.01 h 0.03 l 0.03,0.01 0.03,0.01 0.02,0.01 0.02,0.02 v 0.03 l 0.02,0.02 0.03,0.01 h 0.03 l 0.04,0.01 0.02,0.01 0.02,0.01 0.03,0.02 0.03,0.02 0.02,0.01 0.03,0.01 h 0.03 l 0.03,0.01 0.02,0.02 0.03,0.02 0.02,0.01 0.03,0.02 0.03,0.02 0.02,0.01 h 0.03 l 0.03,-0.01 0.03,-0.02 0.03,-0.01 0.03,-0.01 h 0.04 0.04 0.03 l 0.03,0.01 h 0.03 l 0.03,0.01 0.03,0.01 h 0.03 0.04 l 0.04,-0.01 0.03,-0.01 0.03,-0.02 0.02,-0.01 0.04,-0.01 0.04,-0.02 0.03,-0.01 0.01,-0.02 0.03,-0.01 0.03,-0.02 h 0.04 0.03 0.03 0.04 l 0.03,0.01 h 0.03 l 0.03,0.01 0.04,0.01 0.03,0.02 0.03,0.01 0.03,0.02 0.03,0.01 0.03,0.02 0.02,0.01 0.03,0.01 h 0.03 l 0.02,0.01 0.01,0.01 0.02,0.03 0.02,0.02 0.02,0.02 0.02,0.02 0.01,0.02 0.01,0.02 0.02,0.03 0.01,0.02 0.01,0.01 0.01,0.02 -0.01,0.01 -0.03,0.01 -0.03,0.03 -0.01,0.03 -0.03,0.03 -0.02,0.04 -0.01,0.03 0.01,0.03 0.01,0.03 0.02,0.03 0.02,0.03 0.02,0.03 0.03,0.02 0.02,0.02 0.03,0.01 0.02,0.02 1.03,0.83 1,0.79 0.99,0.76 0.99,0.76 0.98,0.74 0.98,0.73 0.03,-0.01 0.42,0.34 0.24,0.15 0.01,0.03 0.02,0.02 0.02,0.02 h 0.02 l 0.09,0.09 -0.11,0.12 -0.06,0.28 -0.19,0.39 0.5,0.47 v 0.02 0.02 0.02 0.02 0.03 0.01 l -0.01,0.05 0.06,0.2 0.02,0.02 0.05,0.02 0.05,0.02 0.01,0.01 0.01,0.01 0.04,0.07 0.05,0.09 0.05,0.1 0.03,0.08 0.02,0.12 0.02,0.11 0.02,0.05 v 0.03 0.03 l -0.01,0.06 -0.01,0.06 -0.03,0.07 -0.02,0.06 -0.01,0.04 -0.03,0.06 -0.02,0.08 -0.02,0.06 v 0.02 l 0.01,0.03 h 0.03 0.05 l 0.05,0.02 0.06,0.04 0.09,0.06 0.06,0.04 0.07,0.03 0.07,0.04 0.05,0.03 0.04,0.05 0.03,0.03 0.13,0.06 0.1,0.03 0.07,0.01 0.02,0.01 h 0.04 l 0.03,0.03 0.02,0.02 0.04,0.01 0.04,0.01 0.03,0.01 0.03,0.01 0.05,0.02 0.04,0.01 0.04,0.04 0.03,0.02 0.03,0.04 0.02,0.04 0.03,0.04 0.04,0.05 0.04,0.05 0.06,0.07 0.02,0.03 0.03,0.02 0.02,0.04 0.01,0.03 0.02,0.04 0.01,0.05 v 0.04 l 0.01,0.05 0.02,0.08 0.01,0.12 v 0.04 0.04 l 0.01,0.03 0.01,0.04 0.01,0.03 0.02,0.02 0.01,0.02 v 0.03 l 0.01,0.02 0.01,0.02 v 0.03 l 0.01,0.03 -0.01,0.04 -0.01,0.04 -0.03,0.07 -0.05,0.09 -0.01,0.03 -0.03,0.06 -0.01,0.06 -0.01,0.05 -0.01,0.05 -0.01,0.02 -0.02,0.01 h -0.01 l -0.01,0.01 v 0.03 0.03 l 0.01,0.04 0.01,0.04 v 0.04 l 0.01,0.04 0.01,0.03 0.01,0.03 0.01,0.04 v 0.03 l 0.01,0.03 v 0.04 0.03 0.04 l -0.01,0.03 v 0.01 l 0.01,0.03 0.02,0.02 0.06,0.09 0.05,0.06 0.05,0.05 0.05,0.08 0.01,0.02 0.02,0.03 v 0.02 l -0.01,0.03 V 102 l 0.01,0.02 0.02,0.02 0.03,0.03 0.02,0.04 v 0.04 l -0.01,0.02 v 0.01 l 0.01,0.02 0.02,0.03 v 0.03 0.04 0.06 l -0.01,0.04 v 0.02 l -0.02,0.02 -0.03,0.02 -0.01,0.03 v 0.04 l 0.01,0.06 0.01,0.04 v 0.04 0.05 l 0.01,0.04 0.01,0.04 0.01,0.07 0.01,0.03 0.02,0.04 0.02,0.03 0.02,0.04 0.01,0.04 0.03,0.03 0.02,0.01 0.03,0.01 0.03,0.01 0.02,0.02 0.02,0.03 0.01,0.03 0.02,0.02 0.03,0.02 0.02,0.03 0.02,0.05 0.04,0.07 0.03,0.09 0.02,0.05 0.01,0.06 0.01,0.06 0.02,0.09 v 0.04 0.09 l 0.01,0.02 v 0.01 0.01 l 0.01,0.01 0.01,0.01 v 0.01 0.02 0.01 0.01 l 0.01,0.01 h 0.01 0.02 v 0.01 h 0.01 0.01 0.02 0.01 l 0.01,0.01 0.01,0.01 h 0.01 0.01 0.02 l 0.01,0.01 0.01,0.01 v 0.01 h 0.01 0.02 l 0.01,-0.01 h 0.01 l 0.02,0.01 0.01,0.01 0.01,0.01 0.02,0.01 h 0.01 l 0.01,0.01 h 0.01 0.02 l 0.04,-0.01 0.01,0.02 v 0.03 h -0.01 l -0.02,0.02 -0.01,0.02 -0.02,0.02 v 0.03 0.03 l -0.02,0.04 v 0.04 l -0.01,0.03 -0.01,0.03 v 0.03 0.03 0.03 0.03 l -0.01,0.03 -0.01,0.03 v 0.03 0.02 l -0.02,0.02 v 0.03 0.04 l 0.01,0.03 0.02,0.03 0.02,0.05 0.02,0.03 0.01,0.06 0.01,0.04 0.01,0.08 0.01,0.05 0.01,0.05 v 0.07 l -0.02,0.04 v 0.04 0.04 0.03 l 0.01,0.04 v 0.03 0.04 l -0.01,0.04 v 0.03 0.02 l -0.08,0.51 -0.08,0.52 -0.08,0.52 -0.61,0.2 -0.62,0.21 -0.61,0.2 -0.65,0.13 -0.15,0.29 -0.08,0.15 -0.22,0.29 -0.36,-0.38 -0.27,-0.35 -0.2,-0.22 -0.01,-0.02 -0.01,-0.02 v -0.03 l -0.01,-0.03 v -0.02 l -0.01,-0.03 -0.01,-0.02 v -0.01 l -0.01,-0.02 v -0.02 -0.02 -0.01 -0.02 l -0.01,-0.02 v -0.02 -0.01 l -0.01,-0.02 -0.02,-0.01 v -0.02 -0.03 l 0.03,-0.02 0.03,-0.01 0.02,-0.02 0.01,-0.01 0.01,-0.02 0.01,-0.03 v -0.02 -0.02 -0.02 l -0.01,-0.02 V 107 l 0.01,-0.02 0.01,-0.02 0.02,-0.02 0.01,-0.01 v -0.02 -0.03 -0.03 -0.02 l -0.01,-0.02 v -0.01 -0.03 -0.03 l -0.01,-0.03 v -0.03 -0.01 -0.03 l -0.02,-0.02 -0.01,-0.01 v -0.02 l 0.01,-0.03 v -0.03 l 0.01,-0.01 v -0.03 -0.03 -0.02 -0.03 -0.02 l -0.02,-0.02 -0.02,-0.02 -0.01,-0.03 -0.01,-0.02 -0.01,-0.03 -0.02,-0.03 -0.01,-0.03 -0.02,-0.04 -0.01,-0.05 v -0.05 l -0.01,-0.04 v -0.05 -0.05 l 0.01,-0.04 v -0.05 -0.05 -0.04 -0.03 l -0.01,-0.02 v -0.03 l -0.01,-0.04 -0.01,-0.04 -0.01,-0.03 -0.01,-0.02 -0.03,-0.04 -0.03,-0.01 -0.03,-0.01 -0.01,-0.04 -0.01,-0.04 -0.03,-0.07 -0.01,-0.02 0.01,-0.04 -0.01,-0.02 -0.03,-0.02 -0.08,-0.05 -0.07,-0.02 -0.04,-0.02 -0.07,-0.01 -0.1,-0.02 -0.09,-0.02 -0.07,-0.01 -0.05,-0.01 -0.24,-0.07 -0.12,-0.28 -0.03,0.01 h -0.02 l -0.03,-0.02 -0.04,-0.02 -0.05,-0.02 -0.05,-0.02 -0.04,-0.02 h -0.05 -0.03 -0.02 l -0.01,0.01 -0.02,0.02 -0.02,0.01 v 0.02 l -0.01,0.02 -0.01,0.02 -0.01,0.01 -0.02,0.01 v 0.01 h -0.03 -0.03 l -0.02,-0.01 h -0.02 l -0.02,-0.01 h -0.03 -0.03 -0.02 -0.01 l -0.02,0.01 -0.01,0.01 -0.04,0.01 h -0.02 -0.07 l -0.19,0.01 -0.13,0.01 h -0.02 l -0.01,-0.01 -0.02,-0.01 -0.02,-0.03 -0.11,-0.13 -0.08,-0.1 -0.03,-0.03 -0.02,-0.02 -0.02,-0.02 -0.03,-0.01 -0.04,-0.01 -0.02,-0.01 -0.03,-0.01 -0.03,-0.01 -0.02,-0.02 -0.02,-0.03 -0.02,-0.02 -0.02,-0.04 -0.02,-0.02 -0.02,-0.03 -0.02,-0.03 -0.01,-0.03 -0.01,-0.03 -0.02,-0.04 -0.01,-0.03 -0.01,-0.07 v -0.03 -0.03 -0.03 -0.02 -0.02 -0.04 -0.03 -0.02 -0.02 -0.01 -0.04 l -0.01,-0.02 v -0.02 l -0.01,-0.03 v -0.03 l -0.02,-0.04 -0.01,-0.02 -0.01,-0.02 -0.01,-0.03 -0.01,-0.03 -0.01,-0.03 -0.01,-0.03 v -0.03 -0.02 -0.02 -0.01 l -0.01,-0.02 v -0.02 -0.01 -0.03 -0.01 l -0.01,-0.02 v -0.03 -0.04 l -0.01,-0.01 v -0.03 l -0.01,-0.03 -0.01,-0.03 -0.01,-0.03 -0.01,-0.01 -0.01,-0.02 -0.01,-0.02 -0.02,-0.02 -0.02,-0.03 -0.01,-0.01 -0.03,-0.01 -0.01,-0.01 -0.01,-0.02 -0.02,-0.02 -0.02,-0.01 -0.02,-0.02 -0.02,-0.03 -0.01,-0.03 -0.01,-0.02 -0.01,-0.01 -0.02,-0.03 -0.02,-0.03 -0.01,-0.02 -0.04,-0.06 -0.04,-0.04 -0.02,-0.01 -0.02,-0.01 -0.03,-0.02 -0.01,-0.01 -0.03,-0.01 -0.02,-0.02 -0.02,-0.01 -0.02,-0.02 -0.02,-0.02 -0.03,-0.03 -0.01,-0.02 -0.02,-0.02 -0.02,-0.02 -0.08,-0.08 -0.02,-0.02 -0.02,-0.01 -0.02,-0.02 -0.02,-0.02 -0.02,-0.01 h -0.02 -0.03 -0.02 l -0.04,-0.01 h -0.02 l -0.03,-0.01 -0.02,-0.01 -0.1,-0.05 -0.03,-0.01 -0.02,-0.01 -0.03,-0.01 -0.03,-0.02 -0.04,-0.02 -0.03,-0.02 -0.03,-0.01 -0.02,-0.02 -0.02,-0.01 -0.02,-0.02 -0.02,-0.01 -0.02,-0.03 -0.01,-0.02 -0.02,-0.01 -0.02,-0.02 -0.02,-0.02 -0.01,-0.02 -0.02,-0.03 v -0.01 l -0.01,-0.02 -0.01,-0.02 -0.01,-0.02 -0.02,-0.01 v -0.01 -0.02 l -0.01,-0.02 h -0.02 -0.02 -0.03 -0.02 -0.02 l -0.04,-0.04 -0.02,-0.01 -0.02,-0.02 -0.02,-0.01 -0.35,0.06 -0.11,0.12 -0.06,-0.06 -0.04,-0.04 -0.1,-0.06 -0.08,-0.08 -0.07,-0.06 -0.04,-0.03 v -0.01 l -0.01,-0.02 -0.19,0.08 -0.01,0.01 h -0.02 l -0.06,0.01 -0.09,0.01 h -0.1 l -0.14,-0.01 -0.12,-0.01 -0.11,-0.02 -0.06,-0.01 h -0.02 -0.01 -0.02 l -0.01,0.01 -0.02,0.01 h -0.02 -0.04 l -0.02,0.01 h -0.03 l -0.03,0.01 h -0.04 l -0.03,0.02 -0.03,0.01 -0.04,0.02 -0.05,0.03 h -0.02 -0.05 l -0.03,-0.01 -0.03,-0.02 -0.05,-0.01 -0.04,-0.01 -0.02,-0.01 -0.05,0.13 0.2,0.3 h -0.07 -0.05 l -0.04,-0.01 -0.07,-0.03 -0.06,-0.02 -0.05,-0.02 -0.04,-0.02 -0.04,-0.03 -0.03,-0.01 -0.02,-0.01 -0.02,0.01 -0.05,0.03 -0.05,0.03 -0.05,0.03 -0.06,0.03 -0.07,0.01 -0.1,0.01 -0.07,-0.01 -0.05,-0.01 -0.09,-0.27 -0.11,-0.52 -0.08,-0.04 -0.17,-0.3 h -0.11 l 0.09,0.71 -0.26,0.33 h -0.05 l -0.03,-0.36 -0.41,-0.12 0.06,-0.49 -0.48,-0.06 -0.23,-0.25 -0.05,0.02 -0.57,0.44 -0.51,0.22 h -0.03 -0.06 -0.07 l -0.04,0.02 h -0.03 l -0.03,0.01 -0.06,-0.02 -0.06,-0.03 -0.03,-0.02 -0.07,-0.04 -0.04,-0.02 -0.06,-0.02 -0.03,-0.01 -0.04,-0.01 -0.03,-0.01 h -0.04 -0.04 l -0.04,0.01 h -0.02 l -0.02,-0.01 v -0.01 l -0.02,-0.01 -0.06,-0.01 -0.09,-0.02 -0.1,-0.02 -0.05,-0.02 -0.07,-0.04 -0.08,-0.04 -0.03,-0.02 -0.59,-0.06 -0.02,-0.05 0.25,-0.22 -0.3,-0.12 -0.2,-0.04 -0.03,0.4 h -0.03 l -0.43,-0.52 -0.05,0.03 -0.03,0.01 -0.04,0.01 h -0.04 l -0.04,0.01 -0.05,0.01 -0.07,0.02 -0.03,0.02 -0.04,0.03 -0.04,0.04 -0.03,0.04 -0.04,0.06 -0.02,0.05 -0.02,0.04 -0.02,0.06 -0.02,0.05 -0.02,0.05 -0.03,0.09 -0.01,0.03 -0.03,0.02 -0.03,0.03 -0.03,0.02 -0.25,-0.19 -0.03,-0.14 -0.23,-0.11 -0.39,-0.82 -0.18,-0.04 -0.46,-0.09 -0.74,-0.19 -0.37,0.01 h -0.01 l -0.03,-0.08 -0.02,-0.04 -0.02,-0.03 -0.03,-0.02 -0.12,-0.07 -0.12,-0.06 -0.05,-0.03 -0.06,-0.05 -0.05,-0.05 -0.05,-0.05 -0.06,-0.04 -0.08,-0.04 -0.01,-0.01 -0.13,0.22 -0.12,0.1 -0.15,-0.37 -0.01,0.01 h -0.01 -0.01 l -0.01,-0.01 -0.04,-0.02 -0.03,-0.02 -0.03,-0.01 -0.04,-0.02 -0.02,-0.01 -0.07,-0.02 -0.06,-0.03 h -0.01 l -0.02,0.01 -0.04,0.02 -0.04,0.04 -0.04,0.04 -0.08,0.12 -0.05,0.07 -0.07,0.09 -0.03,0.06 -0.21,0.06 -0.13,-0.07 -0.04,-0.13 0.05,-0.02 0.12,-0.06 V 98.9 l 0.06,-0.06 0.23,-0.51 0.26,-0.35 0.05,-0.05 0.15,-0.13 0.12,-0.12 0.12,-0.09 0.13,-0.12 0.11,-0.09 0.08,-0.09 0.08,-0.11 0.04,-0.07 0.05,-0.05 0.04,-0.06 0.04,-0.03 0.04,-0.02 0.06,-0.02 0.07,-0.01 0.01,-0.07 0.02,-0.04 0.04,-0.06 0.04,-0.06 0.04,-0.07 0.03,-0.08 0.02,-0.06 0.01,-0.04 0.01,-0.03 0.01,-0.03 0.02,-0.02 0.05,-0.03 0.05,-0.04 0.04,-0.04 0.04,-0.06 0.03,-0.04 0.03,-0.04 0.02,-0.05 0.01,-0.04 0.02,-0.05 0.03,-0.1 0.03,-0.04 0.02,-0.03 -0.03,-0.36 0.2,-0.3 -0.01,-0.01 -0.02,-0.05 V 95 l 0.01,-0.04 v -0.05 -0.03 l 0.01,-0.12 0.01,-0.06 V 94.66 94.63 94.6 94.57 l -0.01,-0.03 -0.01,-0.01 -0.04,-0.03 -0.02,-0.02 -0.03,-0.02 -0.04,-0.02 -0.03,-0.02 0.07,-0.17 0.01,-0.44 0.01,-0.45 0.01,-0.45 0.28,-0.54 0.03,-0.03 0.04,-0.02 0.02,-0.02 0.02,-0.03 0.02,-0.02 0.02,-0.02 0.05,-0.02 0.03,-0.02 h 0.01 z"
       id="path57"
       inkscape:connector-curvature="0" />
  </g>
</svg>
