<?xml version="1.0" encoding="UTF-8" standalone="no"?>
<svg
   xmlns:dc="http://purl.org/dc/elements/1.1/"
   xmlns:cc="http://creativecommons.org/ns#"
   xmlns:rdf="http://www.w3.org/1999/02/22-rdf-syntax-ns#"
   xmlns:svg="http://www.w3.org/2000/svg"
   xmlns="http://www.w3.org/2000/svg"
   xmlns:sodipodi="http://sodipodi.sourceforge.net/DTD/sodipodi-0.dtd"
   xmlns:inkscape="http://www.inkscape.org/namespaces/inkscape"
   version="1.2"
   width="800"
   height="642"
   viewBox="0 0 800 642"
   stroke-linecap="round"
   stroke-linejoin="round"
   id="svg71"
   sodipodi:docname="Armiñon.svg"
   inkscape:version="0.92.5 (2060ec1f9f, 2020-04-08)">
  <metadata
     id="metadata77">
    <rdf:RDF>
      <cc:Work
         rdf:about="">
        <dc:format>image/svg+xml</dc:format>
        <dc:type
           rdf:resource="http://purl.org/dc/dcmitype/StillImage" />
      </cc:Work>
    </rdf:RDF>
  </metadata>
  <defs
     id="defs75" />
  <sodipodi:namedview
     pagecolor="#ffffff"
     bordercolor="#666666"
     borderopacity="1"
     objecttolerance="10"
     gridtolerance="10"
     guidetolerance="10"
     inkscape:pageopacity="0"
     inkscape:pageshadow="2"
     inkscape:window-width="1848"
     inkscape:window-height="1016"
     id="namedview73"
     showgrid="false"
     inkscape:zoom="1.470405"
     inkscape:cx="372.79661"
     inkscape:cy="271.22464"
     inkscape:window-x="72"
     inkscape:window-y="27"
     inkscape:window-maximized="1"
     inkscape:current-layer="svg71" />
  <g
     id="Armiñón"
     transform="matrix(13.311278,0,0,13.311278,-1958.6263,-4071.7079)">
    <path
       d="m 166.87,320.98 0.19,0.24 0.49,0.65 0.44,0.32 0.54,0.05 0.48,-0.12 0.51,-0.05 0.5,-0.03 0.63,0.08 0.65,0.49 0.39,0.25 0.55,0.42 0.7,0.78 0.51,0.6 -0.63,0.16 -0.95,0.4 -0.57,0.19 -0.2,0.11 -0.1,0.16 -0.05,0.16 0.01,0.18 0.11,0.11 0.1,0.05 0.12,0.03 0.26,0.11 0.35,0.23 0.5,0.4 0.63,0.09 0.94,0.08 0.37,0.16 0.63,0.41 0.74,0.51 0.12,0.06 -0.03,0.05 -0.08,0.12 -0.1,0.13 -0.03,0.18 -0.05,0.13 -0.04,0.12 -0.08,0.16 -0.08,0.16 -0.12,0.1 -0.16,0.08 -0.19,0.02 -0.15,0.01 -0.03,-0.03 -0.02,-0.06 -0.03,-0.02 h -0.15 l -0.13,0.02 -0.07,0.09 -0.13,-0.2 -0.11,0.02 -0.18,0.07 -0.12,0.06 -0.13,0.09 -0.13,0.02 -0.07,-0.04 -0.07,0.06 -0.05,0.09 -0.1,0.14 -0.15,0.15 -0.17,0.13 -0.2,0.07 -0.16,0.03 -0.13,-0.05 -0.12,0.03 -0.23,0.03 h -0.23 l -0.13,0.12 -0.15,0.11 -0.18,0.17 -0.16,0.2 -0.12,0.17 -0.1,0.15 -0.08,0.18 -0.09,0.18 -0.15,0.13 -0.26,0.15 -0.15,0.13 -0.04,0.13 -0.02,0.14 -0.04,0.22 -0.06,0.4 -0.03,0.31 0.01,0.31 -0.11,0.24 -0.09,0.19 -0.16,0.18 -0.15,0.14 -0.13,0.15 -0.16,0.16 -0.15,0.22 -0.14,0.17 -0.12,0.22 -0.09,0.23 -0.07,0.2 -0.03,0.24 -0.09,0.09 h -0.17 l -0.27,0.05 -0.22,0.06 -0.1,0.07 -0.13,0.12 -0.14,0.14 -0.12,0.16 -0.1,0.17 -0.1,0.16 -0.14,0.13 h -0.16 l -0.16,-0.08 -0.19,-0.06 -0.21,-0.06 -0.18,-0.04 -0.2,-0.05 -0.08,-0.05 -0.06,-0.07 -0.09,-0.05 -0.04,0.09 -0.04,0.09 -0.05,0.15 -0.08,0.21 -0.08,0.24 -0.07,0.21 -0.08,0.13 -0.11,0.01 -0.17,-0.03 -0.2,-0.04 h -0.25 l -0.24,-0.04 -0.31,-0.06 -0.3,-0.04 -0.31,-0.1 0.14,-0.34 0.21,-0.28 0.2,-0.42 0.21,-0.35 0.31,-0.3 0.38,-0.27 0.38,-0.32 0.04,-0.36 0.05,-0.48 -0.04,-0.39 -0.1,-0.43 -0.24,-0.02 -0.45,-0.04 -0.49,-0.01 -0.5,-0.07 -0.42,-0.08 -0.44,-0.04 -0.43,-0.01 -0.58,-0.07 H 161 l -0.57,-0.07 v -0.51 l 0.03,-0.47 0.01,-0.42 0.04,-0.35 0.08,-0.44 0.02,-0.41 -0.11,-0.29 -0.09,-0.43 -0.09,-0.48 -0.11,-0.48 -0.04,-0.41 -0.04,-0.38 -0.04,-0.39 0.07,-0.34 0.25,-0.13 0.36,-0.29 0.41,-0.23 0.36,-0.13 v -0.22 l -0.18,-0.34 -0.29,-0.43 -0.23,-0.34 0.15,-0.42 0.3,0.14 0.31,0.24 0.38,0.2 0.37,0.25 0.59,0.17 0.65,0.11 0.59,0.03 0.53,0.05 0.5,-0.13 0.21,-0.3 0.19,-0.28 v -0.49 -0.28 l 0.06,-0.36 -0.05,-0.4 V 323 l -0.03,-0.42 0.13,-0.48 0.22,-0.36 0.32,-0.34 0.3,-0.22 z m -4.18,18.39 v 0.01 l -0.04,0.36 -0.04,0.37 0.03,0.54 0.03,0.47 -0.06,0.41 -0.02,0.35 -0.08,0.41 -0.12,0.42 -0.32,0.4 -0.41,0.48 -0.28,0.25 -0.37,-0.06 -0.42,0.03 -0.53,0.21 -0.37,0.3 -0.22,0.33 -0.47,-0.56 -0.49,-0.54 -0.37,-0.07 -0.45,-0.21 -0.45,-1.11 -0.01,-0.89 0.12,-0.69 0.12,-0.53 0.05,-0.53 -0.13,-0.27 -0.42,-0.15 -0.36,0.04 -0.28,-0.15 0.05,-0.57 0.1,-0.28 0.07,-0.16 0.25,-0.38 0.32,0.04 0.28,0.09 0.38,0.13 0.52,0.07 0.46,0.13 0.46,0.04 h 0.54 l 0.37,0.07 0.35,0.06 0.37,0.14 0.28,0.17 0.36,0.3 0.38,0.32 0.4,0.2 z"
       id="path68"
       inkscape:connector-curvature="0" />
  </g>
</svg>
