<?xml version="1.0" encoding="UTF-8" standalone="no"?>
<svg
   xmlns:dc="http://purl.org/dc/elements/1.1/"
   xmlns:cc="http://creativecommons.org/ns#"
   xmlns:rdf="http://www.w3.org/1999/02/22-rdf-syntax-ns#"
   xmlns:svg="http://www.w3.org/2000/svg"
   xmlns="http://www.w3.org/2000/svg"
   xmlns:sodipodi="http://sodipodi.sourceforge.net/DTD/sodipodi-0.dtd"
   xmlns:inkscape="http://www.inkscape.org/namespaces/inkscape"
   version="1.2"
   width="800"
   height="642"
   viewBox="0 0 800 642"
   stroke-linecap="round"
   stroke-linejoin="round"
   id="svg115"
   sodipodi:docname="Arrankudiaga.svg"
   inkscape:version="0.92.5 (2060ec1f9f, 2020-04-08)">
  <metadata
     id="metadata121">
    <rdf:RDF>
      <cc:Work
         rdf:about="">
        <dc:format>image/svg+xml</dc:format>
        <dc:type
           rdf:resource="http://purl.org/dc/dcmitype/StillImage" />
      </cc:Work>
    </rdf:RDF>
  </metadata>
  <defs
     id="defs119" />
  <sodipodi:namedview
     pagecolor="#ffffff"
     bordercolor="#666666"
     borderopacity="1"
     objecttolerance="10"
     gridtolerance="10"
     guidetolerance="10"
     inkscape:pageopacity="0"
     inkscape:pageshadow="2"
     inkscape:window-width="1848"
     inkscape:window-height="1016"
     id="namedview117"
     showgrid="false"
     inkscape:zoom="1.0397333"
     inkscape:cx="400"
     inkscape:cy="321"
     inkscape:window-x="72"
     inkscape:window-y="27"
     inkscape:window-maximized="1"
     inkscape:current-layer="svg115" />
  <g
     id="Arrankudiaga"
     transform="matrix(16.908707,0,0,16.908707,-2086.0057,-2206.6109)">
    <path
       d="m 134.63,140.91 0.06,-0.14 0.51,0.02 0.09,-0.06 0.36,-0.28 0.3,-0.06 0.82,-0.3 0.47,0.03 0.52,-0.2 0.92,-0.22 1.09,-0.14 0.18,-0.06 0.37,-0.4 0.3,-0.13 0.22,-0.14 0.2,-0.15 0.06,-0.29 0.05,-0.55 -0.01,-0.08 0.02,-0.11 0.01,-0.11 0.04,-0.08 0.02,-0.04 0.02,-0.06 0.02,-0.05 0.03,-0.07 0.01,-0.04 0.02,-0.04 0.03,-0.05 0.03,-0.05 0.01,-0.02 0.06,-0.06 0.02,-0.04 0.04,-0.05 0.18,-0.12 -0.03,0.61 0.1,0.06 0.02,0.03 0.04,0.03 0.02,0.03 0.02,0.04 0.02,0.03 v 0.05 0.04 0.04 l 0.01,0.03 0.01,0.05 0.03,0.04 0.02,0.03 0.04,0.03 0.04,0.02 0.07,0.05 0.07,0.06 0.05,0.04 0.05,0.03 0.06,0.03 0.04,0.04 0.03,0.01 0.05,0.02 0.02,0.01 0.03,0.01 0.01,0.03 0.02,0.03 0.02,0.04 0.01,0.02 0.02,0.05 0.09,0.29 0.06,0.07 0.16,0.11 0.13,0.09 0.14,0.08 0.03,0.05 0.02,0.19 0.05,0.15 0.81,0.57 0.31,0.3 0.29,-0.01 0.1,0.14 0.27,0.56 0.58,0.59 0.57,0.77 0.14,0.32 0.29,0.22 0.55,0.18 0.17,0.06 0.35,0.15 0.2,-0.04 0.19,-0.09 -0.27,-0.7 -0.37,-0.43 -0.03,-0.04 0.06,-0.06 0.02,-0.03 0.02,-0.04 0.02,-0.03 0.02,-0.04 0.01,-0.03 0.03,-0.01 0.01,-0.02 0.02,-0.02 0.03,-0.03 0.02,-0.03 0.05,-0.04 0.04,-0.01 0.05,-0.02 0.1,-0.04 0.03,0.01 0.07,-0.01 0.06,-0.02 0.09,-0.02 0.16,-0.04 0.11,-0.01 0.21,-0.04 0.1,-0.01 h 0.07 l 0.02,-0.01 0.06,-0.04 0.1,-0.06 0.05,-0.02 0.07,-0.01 0.04,-0.01 0.07,-0.01 0.03,-0.01 0.04,-0.01 0.03,-0.01 0.05,-0.04 0.01,-0.02 0.13,-0.11 0.1,0.01 0.02,0.02 0.02,0.01 0.01,0.01 0.03,0.03 0.01,0.01 0.02,0.04 0.04,0.04 0.04,0.04 0.05,0.05 0.05,0.04 0.05,0.04 0.05,0.04 0.06,0.05 0.06,0.04 0.05,0.05 0.05,0.05 0.03,0.03 0.12,0.1 0.12,0.06 0.03,0.01 0.04,0.01 0.03,0.01 h 0.04 l 0.03,0.01 0.02,0.02 0.02,0.01 0.01,0.03 v 0.02 l 0.01,0.01 v 0.03 l 0.04,0.09 0.02,0.2 0.01,0.02 0.03,0.05 0.04,0.04 0.05,0.04 0.06,0.05 0.07,0.05 0.03,0.01 0.04,0.03 0.03,0.02 0.06,0.04 0.02,0.02 0.01,0.02 0.02,0.03 0.07,0.06 0.03,0.02 0.07,0.05 0.04,0.03 0.03,0.03 0.05,0.03 0.03,0.02 0.05,0.02 0.1,0.03 0.04,0.02 0.04,0.03 0.03,0.02 0.01,0.01 0.02,0.02 0.06,0.09 -0.27,0.32 -0.22,0.48 -0.02,0.05 -0.44,0.93 -0.6,0.87 -0.45,0.02 0.5,0.41 0.34,0.29 0.37,0.33 0.51,0.41 0.82,0.95 0.19,0.07 0.34,-0.04 0.19,0.12 0.26,0.39 0.54,0.76 0.19,-0.09 0.28,-0.01 0.14,0.03 0.11,0.11 0.15,0.28 0.12,0.29 0.17,0.15 0.08,0.05 0.12,0.04 0.26,0.06 0.28,0.03 0.08,-0.01 0.05,-0.02 -0.08,0.2 -0.19,0.4 -0.43,0.19 -0.51,0.11 0.41,1.05 0.68,0.44 0.3,0.68 0.1,0.51 0.31,0.34 0.01,0.05 v 0.12 l -0.01,0.13 v 0.07 l -0.01,0.07 -0.06,0.09 -0.15,0.52 -0.39,0.74 -0.28,0.44 -0.43,0.49 -0.11,0.21 -0.19,0.21 0.31,0.31 0.28,0.34 0.03,0.45 0.03,0.61 0.23,0.48 0.03,0.78 0.32,0.71 0.15,0.99 -0.32,0.61 -0.11,0.22 -0.08,0.41 -0.17,1.2 -0.82,-0.17 -0.51,-0.03 -0.22,-0.09 -0.32,-1.54 -0.03,-0.13 -0.29,-0.36 -0.33,-0.69 -0.24,-0.42 -0.51,-0.72 -0.44,-0.51 -0.26,-0.26 -0.33,-0.32 -0.54,-0.8 -0.07,-0.04 -0.08,-0.08 -0.17,-0.32 -0.06,-0.27 -0.06,-0.05 -0.3,-0.03 -0.3,0.09 0.08,1.34 -0.09,0.16 -0.08,0.08 h -0.09 l -0.57,-0.33 -0.92,-0.62 -0.29,-0.01 -0.24,-0.01 -0.11,-0.02 -0.16,-0.02 h -0.15 l -0.13,0.03 -0.06,0.04 -0.09,0.12 -0.19,0.19 -0.23,0.26 -0.06,0.09 -0.07,0.2 -0.05,0.23 -0.03,0.28 -0.05,0.14 0.03,0.3 0.1,0.09 0.08,0.01 0.11,1.43 0.08,0.96 -0.06,0.08 -0.06,0.03 -0.24,-0.05 -0.16,-0.35 0.07,-0.03 -0.4,-0.65 -0.04,-0.09 -0.04,-0.11 -0.11,-0.21 -0.12,-0.2 -0.25,-0.45 -0.21,-0.36 -0.09,-0.16 -0.03,-0.06 -0.05,-0.1 -0.06,-0.12 -0.04,-0.06 -0.05,-0.1 -0.08,-0.11 -0.06,-0.09 -0.14,-0.17 -0.17,-0.25 -0.11,-0.17 -0.19,-0.29 -0.05,-0.06 -0.06,-0.1 -0.04,-0.05 -0.07,-0.07 -0.13,-0.13 v -0.01 l -0.02,-0.01 -0.01,-0.01 -0.01,-0.02 -0.02,-0.01 -0.01,-0.02 -0.04,-0.03 -0.04,-0.04 -0.07,-0.08 -0.1,-0.09 -0.06,-0.06 -0.06,-0.05 -0.05,-0.05 -0.05,-0.04 -0.01,-0.01 -0.01,-0.01 -0.02,-0.02 -0.02,-0.01 -0.02,-0.01 -0.01,-0.01 -0.02,-0.02 -0.02,-0.01 -0.01,-0.01 -0.02,-0.01 -0.02,-0.01 v -0.01 l -0.19,-0.11 -0.12,-0.08 0.02,-0.12 0.01,-0.04 v -0.07 l 0.01,-0.06 0.01,-0.06 0.01,-0.06 0.02,-0.1 v -0.01 l 0.02,-0.05 0.05,-0.2 0.02,-0.06 0.01,-0.04 0.01,-0.02 0.01,-0.02 0.04,-0.07 0.01,-0.02 0.01,-0.02 v -0.02 l 0.01,-0.02 0.01,-0.01 0.01,-0.02 0.01,-0.02 0.01,-0.01 0.01,-0.02 0.01,-0.02 0.01,-0.02 0.01,-0.02 0.01,-0.02 0.01,-0.01 0.01,-0.02 0.01,-0.01 0.01,-0.02 0.01,-0.02 0.01,-0.02 0.01,-0.02 0.01,-0.01 0.01,-0.02 0.01,-0.02 0.01,-0.02 0.01,-0.01 0.01,-0.02 0.02,-0.02 v -0.02 l 0.01,-0.02 0.01,-0.01 v -0.02 l 0.01,-0.02 0.01,-0.01 0.01,-0.02 0.01,-0.02 0.02,-0.02 0.01,-0.01 0.01,-0.02 0.04,-0.08 0.01,-0.01 0.01,-0.01 0.01,-0.02 0.01,-0.02 0.01,-0.01 0.01,-0.02 0.01,-0.01 0.02,-0.02 0.01,-0.01 0.01,-0.02 0.01,-0.01 0.02,-0.02 0.01,-0.02 0.02,-0.02 0.01,-0.01 0.02,-0.01 0.01,-0.02 0.02,-0.01 0.01,-0.02 0.01,-0.01 0.01,-0.02 0.02,-0.01 0.01,-0.02 0.01,-0.01 0.02,-0.01 0.01,-0.02 0.01,-0.01 0.02,-0.02 0.01,-0.01 0.01,-0.02 0.02,-0.01 0.01,-0.02 0.02,-0.01 0.12,-0.13 0.03,-0.03 0.04,-0.04 0.03,-0.05 0.09,-0.12 0.09,-0.11 0.06,-0.08 0.01,-0.01 0.01,-0.02 0.35,-0.42 0.01,-0.26 -0.04,-0.25 0.18,-0.55 -0.18,-0.04 -0.39,-0.31 -0.07,-0.04 -0.12,-0.03 -0.2,-0.04 -0.2,-0.01 h -0.13 l -0.18,0.01 -0.09,0.03 -0.36,-0.1 -0.18,-0.07 -0.06,-0.02 -0.14,-0.14 -0.16,-0.17 -0.17,-0.19 -0.04,-0.06 -0.03,-0.05 -0.04,-0.07 -0.05,-0.05 -0.04,-0.04 -0.06,-0.03 -0.04,-0.02 -0.03,-0.02 -0.09,-0.05 -0.16,-0.1 -0.24,-0.04 -0.19,-0.04 -0.13,-0.03 -0.08,-0.03 -0.13,-0.09 -0.07,-0.05 -0.15,-0.16 -0.17,-0.21 -0.09,-0.08 -0.12,-0.09 -0.15,-0.17 -0.11,-0.12 -0.11,-0.13 -0.14,-0.14 -0.13,-0.24 -0.02,-0.05 -0.01,-0.05 -0.01,-0.06 -0.01,-0.05 -0.07,-0.05 -0.06,-0.07 -0.03,-0.08 -0.06,-0.06 -0.05,-0.06 -0.06,-0.05 -0.09,-0.08 -0.19,-0.21 -0.35,-0.25 -0.05,-0.05 -0.13,-0.1 -0.09,-0.17 -0.04,-0.23 -0.02,-0.12 -0.02,-0.07 -0.03,-0.06 0.06,-0.23 -0.12,-0.14 -0.17,-0.19 -0.16,-0.13 -0.47,-0.27 -0.09,-0.05 -0.18,-0.48 -0.43,-1.13 -0.11,-0.58 -0.55,-0.86 -0.18,-0.89 -0.23,-0.75 -0.09,-0.12 -0.28,-0.9 z"
       id="path112"
       inkscape:connector-curvature="0" />
  </g>
</svg>
