<?xml version="1.0" encoding="UTF-8" standalone="no"?>
<svg
   xmlns:dc="http://purl.org/dc/elements/1.1/"
   xmlns:cc="http://creativecommons.org/ns#"
   xmlns:rdf="http://www.w3.org/1999/02/22-rdf-syntax-ns#"
   xmlns:svg="http://www.w3.org/2000/svg"
   xmlns="http://www.w3.org/2000/svg"
   xmlns:sodipodi="http://sodipodi.sourceforge.net/DTD/sodipodi-0.dtd"
   xmlns:inkscape="http://www.inkscape.org/namespaces/inkscape"
   version="1.2"
   width="800"
   height="642"
   viewBox="0 0 800 642"
   stroke-linecap="round"
   stroke-linejoin="round"
   id="svg104"
   sodipodi:docname="Arrangoitze.svg"
   inkscape:version="0.92.5 (2060ec1f9f, 2020-04-08)">
  <metadata
     id="metadata110">
    <rdf:RDF>
      <cc:Work
         rdf:about="">
        <dc:format>image/svg+xml</dc:format>
        <dc:type
           rdf:resource="http://purl.org/dc/dcmitype/StillImage" />
      </cc:Work>
    </rdf:RDF>
  </metadata>
  <defs
     id="defs108" />
  <sodipodi:namedview
     pagecolor="#ffffff"
     bordercolor="#666666"
     borderopacity="1"
     objecttolerance="10"
     gridtolerance="10"
     guidetolerance="10"
     inkscape:pageopacity="0"
     inkscape:pageshadow="2"
     inkscape:window-width="1848"
     inkscape:window-height="1016"
     id="namedview106"
     showgrid="false"
     inkscape:zoom="1.0397333"
     inkscape:cx="400"
     inkscape:cy="321"
     inkscape:window-x="72"
     inkscape:window-y="27"
     inkscape:window-maximized="1"
     inkscape:current-layer="svg104" />
  <g
     id="Arrangoitze"
     transform="matrix(15.52086,0,0,15.52086,-8004.0993,-527.76154)">
    <path
       d="m 550.52,39.81 -0.07,0.02 -0.04,0.02 -0.04,0.03 -0.03,0.03 -0.01,0.01 -0.35,0.31 -0.05,0.04 -0.04,0.03 -0.03,0.03 -0.05,0.04 -0.51,0.45 -0.03,0.02 -0.01,0.01 0.07,0.05 0.02,0.01 0.05,0.03 -0.04,0.05 0.06,0.02 0.06,0.01 0.04,0.01 0.07,0.03 0.1,0.05 0.12,0.06 0.08,0.05 0.08,0.05 0.09,0.06 0.1,0.07 0.06,0.04 0.02,0.02 0.23,0.26 h 0.1 l 0.03,-0.01 h 0.08 0.03 l 0.05,0.11 0.03,0.07 0.02,0.03 v 0.03 l 0.01,0.03 v 0.05 l -0.01,0.04 0.06,0.39 0.02,0.17 -0.05,0.11 -0.14,0.31 v 0.03 0 l -0.01,0.06 -0.02,0.05 -0.02,0.07 -0.04,0.08 -0.03,0.07 -0.02,0.06 v 0.01 l -0.01,0.03 v 0.02 l -0.03,0.11 -0.02,0.1 -0.02,0.09 -0.01,0.05 -0.01,0.06 -0.01,0.03 -0.01,0.03 -0.01,0.02 -0.01,0.02 -0.02,0.04 -0.03,0.05 -0.05,0.06 -0.06,0.07 -0.03,0.05 -0.05,0.05 -0.06,0.06 -0.04,0.05 0.13,0.27 v 0.03 h 0.01 l 0.25,0.54 0.02,0.05 0.09,0.19 0.03,0.06 0.03,0.01 0.07,0.01 0.06,0.01 h 0.05 0.04 0.05 0.04 l 0.49,0.03 -0.04,0.06 -0.03,0.07 v 0.02 l -0.19,0.2 -0.15,0.16 -0.01,0.01 h 0.07 l 0.29,-0.02 0.14,-0.01 0.28,-0.02 0.16,-0.01 0.02,0.24 0.01,0.09 v 0.07 l 0.07,-0.03 0.11,-0.02 0.2,-0.1 0.14,-0.04 0.01,0.09 v 0.03 l 0.09,0.67 0.01,0.22 h 0.02 l 0.1,0.01 h 0.05 l 0.04,-0.01 h 0.08 l 0.9,-0.01 0.64,-0.01 h 0.1 L 555,47.32 h 0.07 0.06 0.08 l 0.26,-0.01 h 0.05 0.13 l -0.1,-0.18 -0.1,-0.18 -0.08,-0.16 v -0.01 l -0.01,-0.04 -0.03,-0.06 -0.04,-0.06 -0.02,-0.05 -0.03,-0.07 0.04,-0.01 h 0.03 l 0.03,-0.01 0.01,-0.01 0.01,-0.02 0.01,-0.03 0.03,-0.03 0.01,-0.03 v -0.02 -0.01 -0.02 l 0.03,-0.03 0.02,-0.02 0.03,-0.01 0.04,-0.01 h 0.02 l 0.01,0.01 0.01,0.01 0.02,0.01 h 0.01 l 0.01,0.02 0.01,0.01 0.01,0.02 0.04,0.02 0.03,0.02 0.01,0.01 h 0.01 v -0.01 l 0.02,-0.02 0.02,-0.02 0.02,-0.01 0.01,-0.02 h 0.01 l 0.01,-0.01 v 0.03 0.05 l 0.03,-0.01 0.03,-0.02 0.01,-0.01 0.01,-0.01 V 46.3 46.28 l 0.01,-0.01 0.03,-0.02 h 0.03 0.02 0.03 0.01 0.02 l 0.02,0.01 0.03,0.01 h 0.02 0.03 0.01 l 0.02,0.01 h 0.02 0.02 l 0.01,-0.02 0.03,-0.04 0.01,-0.03 0.03,-0.04 0.02,-0.05 0.02,0.07 0.01,0.01 0.01,0.03 v 0.02 l 0.03,0.04 0.01,0.02 v 0.05 l 0.02,0.09 0.01,0.01 0.03,0.03 0.04,0.02 0.04,0.03 0.07,0.05 0.06,0.05 0.05,0.04 0.05,0.04 0.03,0.05 0.01,0.03 -0.01,0.04 0.01,0.05 0.04,0.06 0.05,0.04 0.05,0.03 0.06,0.02 h 0.02 l 0.04,0.01 h 0.04 0.04 0.04 l 0.05,-0.01 0.05,-0.01 0.04,-0.01 0.06,-0.01 0.09,-0.05 0.07,0.06 0.19,0.16 0.07,0.07 0.13,0.12 0.13,0.08 0.07,-0.06 0.17,-0.15 0.26,-0.23 0.39,-0.36 0.03,-0.03 0.12,-0.03 0.01,-0.05 0.01,-0.05 0.02,-0.04 0.03,-0.04 0.03,-0.04 0.03,-0.03 0.04,-0.04 0.03,-0.01 0.04,-0.01 h 0.03 l 0.06,-0.03 0.04,-0.02 0.09,-0.05 0.03,-0.02 0.06,-0.04 0.06,-0.02 0.04,-0.02 0.06,-0.01 0.05,-0.01 0.06,-0.02 0.04,-0.01 0.02,-0.01 0.02,-0.02 0.03,-0.02 0.03,-0.01 h 0.03 0.03 l 0.06,-0.01 0.03,-0.02 0.03,-0.01 0.04,-0.01 0.03,-0.02 0.04,-0.02 0.07,-0.02 0.07,-0.02 0.05,-0.01 0.02,-0.02 0.03,-0.02 0.04,-0.02 0.04,-0.03 0.01,-0.01 0.02,-0.02 h 0.02 l 0.03,-0.01 0.03,-0.01 0.04,0.01 h 0.04 0.06 l 0.05,-0.01 0.05,-0.01 0.04,0.01 h 0.02 l 0.03,-0.01 0.17,-0.03 0.02,-0.02 0.03,-0.01 0.03,-0.02 0.02,-0.02 0.03,-0.03 0.02,-0.03 0.02,-0.03 0.1,-0.12 0.03,-0.02 0.01,-0.01 0.07,-0.04 0.03,-0.01 h 0.03 0.03 l 0.01,0.01 0.03,0.02 0.04,0.02 0.06,0.01 0.07,0.01 0.1,0.02 h 0.07 0.03 l 0.03,0.01 0.01,-0.01 0.01,-0.01 h 0.02 0.01 v 0 l 0.02,-0.01 0.01,-0.01 0.01,-0.02 0.01,-0.02 h 0.01 l 0.01,-0.01 h 0.01 l 0.01,-0.01 0.01,-0.01 0.02,-0.02 0.01,-0.01 v -0.02 l 0.01,-0.01 v -0.03 l 0.01,-0.03 h 0.01 0.02 l 0.01,-0.01 0.01,-0.01 0.01,-0.01 0.02,0.01 v 0.02 l -0.01,0.02 -0.01,0.01 -0.02,0.02 -0.01,0.02 0.01,0.02 0.01,0.02 0.05,0.03 0.03,0.03 0.02,0.02 v 0.03 0.03 l -0.04,0.04 -0.03,0.02 -0.01,0.02 -0.01,0.01 v 0.03 l 0.02,0.06 0.02,0.09 v 0.05 0.01 0.02 0.02 l 0.01,0.02 0.01,0.03 v 0.02 l -0.01,0.03 -0.02,0.04 -0.03,0.05 -0.02,0.02 -0.02,0.03 -0.03,0.05 -0.04,0.07 v 0.02 0.02 0.03 l 0.01,0.02 v 0.03 0.02 l -0.02,0.03 -0.02,0.01 -0.02,0.01 -0.01,0.02 -0.03,0.02 -0.03,0.02 -0.03,0.03 -0.04,0.03 -0.01,0.03 -0.02,0.03 -0.02,0.05 -0.01,0.04 -0.02,0.05 v 0.05 l 0.01,0.03 v 0.02 l -0.01,0.03 v 0.02 l 0.01,0.03 0.01,0.02 0.01,0.03 0.02,0.05 0.01,0.02 v 0 0.01 l -0.01,0.03 -0.01,0.02 v 0.02 l -0.01,0.02 v 0.02 0.03 l -0.02,0.01 -0.01,0.02 -0.02,0.02 v 0.01 l -0.01,0.01 -0.01,0.02 -0.02,0.02 -0.02,0.02 h -0.04 l -0.05,0.02 -0.06,0.01 -0.02,0.01 h -0.02 -0.02 l -0.02,0.01 -0.01,0.01 -0.01,0.01 -0.04,0.02 h -0.02 l -0.02,-0.01 h -0.02 l -0.02,-0.01 -0.03,-0.01 -0.02,0.01 h -0.02 l -0.02,0.01 -0.04,0.01 h -0.04 l -0.03,0.01 h -0.02 l -0.08,0.03 -0.03,0.01 -0.03,0.01 -0.02,0.02 -0.03,0.02 -0.03,0.01 -0.04,0.01 h -0.03 l -0.03,0.01 -0.03,0.01 -0.03,0.01 -0.02,0.02 -0.01,0.02 -0.01,0.03 -0.02,0.04 -0.01,0.03 v 0.02 l -0.02,0.05 -0.01,0.02 -0.01,0.04 v 0.01 l -0.02,0.03 -0.01,0.02 v 0.03 l 0.01,0.03 v 0.01 l 0.01,0.02 -0.01,0.03 -0.01,0.02 -0.02,0.03 -0.03,0.02 -0.02,0.01 -0.01,0.02 -0.01,0.01 -0.02,0.02 v 0.02 l -0.02,0.03 -0.01,0.02 -0.01,0.02 -0.02,0.01 v 0.02 l 0.01,0.01 0.01,0.01 v 0.01 l -0.01,0.02 -0.02,0.01 -0.01,0.03 -0.01,0.02 -0.02,0.03 v 0.02 0.04 0.03 0.03 l 0.01,0.04 0.01,0.02 0.01,0.04 v 0.02 l 0.01,0.03 0.01,0.04 0.01,0.05 0.01,0.04 v 0.02 0.03 l 0.01,0.04 v 0.04 l 0.01,0.05 v 0.06 0.04 0.03 l -0.01,0.04 -0.02,0.02 -0.02,0.02 -0.06,0.05 -0.01,0.01 -0.01,0.02 v 0.03 l -0.01,0.02 -0.01,0.02 -0.01,0.02 -0.01,0.03 -0.01,0.02 v 0.02 0.03 0.02 l -0.01,0.01 -0.01,0.01 h -0.02 -0.03 l -0.01,0.01 -0.01,0.01 v 0.02 l -0.01,0.04 v 0.02 l -0.01,0.03 -0.01,0.03 -0.01,0.03 -0.01,0.02 -0.02,0.01 -0.01,0.02 v 0.03 0.03 0.03 l 0.01,0.03 0.01,0.02 h 0.01 l 0.01,0.02 0.01,0.02 v 0.02 l -0.01,0.01 v 0.02 0.02 l -0.01,0.03 -0.01,0.04 -0.01,0.02 -0.01,0.02 v 0.04 0.03 0.03 l -0.01,0.02 v 0 l -0.01,0.02 -0.01,0.01 v 0.04 l -0.01,0.03 -0.01,0.01 -0.03,0.02 -0.01,0.01 -0.01,0.02 -0.01,0.02 v 0.02 l -0.01,0.02 -0.02,0.01 -0.01,0.01 -0.01,0.02 -0.01,0.02 -0.01,0.02 0.01,0.02 v 0.01 0.02 l 0.01,0.02 0.01,0.01 -0.01,0.02 -0.01,0.02 v 0.02 l -0.01,0.03 -0.02,0.03 -0.02,0.01 h -0.03 l -0.02,0.01 -0.01,0.02 v 0.01 0.02 l 0.02,0.04 v 0.02 l -0.01,0.02 h -0.01 -0.03 -0.02 -0.01 l -0.02,0.01 -0.02,0.02 -0.01,0.02 -0.01,0.02 v 0.01 l -0.01,0.02 h -0.01 l -0.02,0.01 h -0.02 l -0.02,0.02 -0.01,0.01 v 0.01 0.01 l 0.01,0.02 0.01,0.01 v 0.02 l -0.01,0.03 -0.01,0.02 v 0.03 0.03 0.03 l -0.01,0.02 -0.01,0.01 -0.01,0.03 -0.01,0.03 -0.01,0.01 v 0.01 0.03 0.05 0.04 0.04 0.04 0.03 0.04 l 0.02,0.08 0.01,0.1 0.02,0.04 0.02,0.04 0.01,0.05 v 0.03 l -0.01,0.01 -0.01,0.02 -0.01,0.04 -0.02,0.03 -0.01,0.02 -0.02,0.03 -0.03,0.02 -0.03,0.01 -0.02,0.01 -0.01,0.01 h -0.02 -0.02 l -0.03,0.01 -0.04,0.02 -0.06,0.01 h -0.03 -0.02 l -0.05,-0.01 h -0.04 l -0.05,-0.01 -0.03,-0.01 -0.06,-0.01 -0.07,-0.01 -0.08,0.01 -0.06,0.01 H 559.05 559 l -0.05,-0.01 -0.11,0.01 h -0.13 -0.1 -0.04 -0.04 v -0.02 l 0.01,-0.03 -0.01,-0.04 -0.01,-0.02 -0.01,-0.03 -0.03,-0.04 -0.02,-0.02 -0.01,0.02 -0.03,0.03 -0.09,0.09 -0.11,0.13 -0.1,0.07 -0.03,0.03 -0.08,0.01 h -0.04 l -0.42,0.57 -0.16,0.21 -0.02,0.04 -0.31,0.41 -0.2,0.04 -0.13,0.03 -0.37,0.03 -0.1,0.01 -0.11,0.02 -0.2,0.04 -0.08,0.01 h -0.03 l -0.39,0.04 -0.81,0.1 v 0.02 0.02 0.02 0.01 l 0.02,0.04 0.01,0.03 0.01,0.03 v 0.02 0.01 0.01 l -0.01,0.01 V 54 l -0.01,0.01 v 0.01 l -0.01,0.01 v 0.02 l 0.02,0.03 v 0 l 0.01,0.01 v 0.01 0.02 0.01 0.03 l 0.01,0.01 v 0.01 h 0.01 0.02 0.01 l 0.01,0.01 0.01,0.01 v 0.01 0.01 l 0.02,0.05 0.04,0.07 v 0.01 l 0.01,0.01 v 0.01 l 0.01,0.03 v 0.01 l 0.01,0.02 v 0.02 0.01 0.01 0.01 0.02 l -0.01,0.02 v 0.01 l -0.01,0.01 v 0.02 0.02 0 0.02 0.02 0.01 0.02 0.04 l 0.01,0.03 v 0.01 l 0.01,0.01 0.01,0.01 v 0 l 0.01,0.02 v 0.01 0.01 0.02 0.01 0.02 l 0.01,0.01 v 0.01 l 0.01,0.01 0.02,0.01 0.02,0.01 0.02,0.02 0.02,0.02 h 0.01 l 0.01,0.01 0.01,0.02 v 0.02 l 0.01,0.01 v 0.02 0.04 0.02 0.06 0.04 0.02 0.02 0.02 l -0.01,0.02 v 0.02 0.05 l 0.01,0.03 v 0.01 0.03 0.02 l 0.01,0.03 h 0.01 0.02 v 0 h 0.01 l 0.01,0.01 v 0.01 0.01 0.01 0.01 0.01 l -0.02,0.04 -0.01,0.01 v 0.01 0.01 h 0.01 v 0.01 l 0.01,0.01 0.02,-0.01 h 0.01 0.01 l 0.01,0.01 0.01,0.01 v 0.01 l 0.01,0.03 0.01,0.02 -0.01,0.01 v 0.02 0.01 l 0.01,0.01 h 0.01 l 0.02,0.01 0.01,0.02 v 0.01 0.02 0.01 l -0.01,0.01 v 0.01 l -0.02,0.02 h -0.02 l -0.05,0.02 -0.01,0.01 -0.01,0.02 -0.01,0.02 -0.02,0.01 -0.06,0.06 -0.07,0.06 -0.02,0.01 -0.01,0.01 -0.01,0.01 -0.01,0.01 -0.01,0.01 v 0.01 l -0.01,0.01 -0.01,0.02 v 0.02 l -0.01,0.01 -0.02,0.01 -0.01,0.02 -0.01,0.01 v 0.02 l 0.01,0.02 -0.01,0.01 v 0.01 l -0.01,0.02 -0.01,0.02 -0.01,0.01 -0.01,0.02 -0.02,0.01 -0.02,0.01 -0.01,0.01 -0.02,0.01 -0.03,0.01 -0.03,0.01 -0.03,0.03 -0.04,0.03 -0.03,0.02 -0.04,0.04 -0.04,0.03 -0.02,0.03 -0.02,0.04 -0.02,0.02 -0.03,0.05 -0.01,0.04 -0.03,0.03 -0.07,0.05 -0.1,0.04 -0.07,0.06 -0.02,0.02 -0.02,0.02 -0.14,0.11 -0.11,0.08 -0.02,0.01 -0.12,0.12 -0.02,0.03 -0.02,0.04 -0.02,0.03 -0.03,0.04 -0.02,0.03 -0.01,0.03 -0.01,0.03 -0.02,0.04 -0.01,0.06 -0.02,0.05 -0.01,0.06 -0.01,0.05 -0.03,0.09 -0.01,0.04 -0.01,0.03 -0.01,0.03 -0.01,0.04 -0.01,0.02 -0.03,0.03 -0.02,0.01 -0.02,0.01 -0.02,0.03 -0.02,0.05 -0.02,0.04 -0.02,0.05 -0.02,0.05 -0.02,0.03 -0.01,0.03 -0.02,0.02 -0.02,0.01 -0.02,0.02 -0.04,0.01 h -0.02 -0.02 -0.02 -0.02 -0.03 -0.02 l -0.02,0.01 -0.01,0.01 v 0.02 h -0.01 l -0.01,0.01 h -0.02 l -0.01,0.01 h -0.01 -0.02 l -0.01,0.01 -0.02,0.01 h -0.03 -0.03 l -0.03,0.01 -0.03,0.01 h -0.02 -0.02 l -0.03,0.01 h -0.01 l -0.04,0.01 h -0.01 -0.02 l -0.02,-0.01 -0.02,-0.01 h -0.03 l -0.03,-0.01 h -0.03 -0.02 -0.03 -0.02 -0.02 -0.02 -0.01 -0.02 -0.03 -0.02 l -0.03,0.02 -0.03,0.02 -0.01,0.01 -0.02,0.02 -0.01,0.01 -0.03,0.01 -0.02,0.02 -0.03,0.02 -0.02,0.01 h -0.02 -0.03 l -0.03,0.01 -0.03,0.01 -0.03,0.01 -0.05,0.02 -0.02,0.01 -0.02,0.02 -0.07,0.02 -0.03,0.01 -0.02,0.01 h -0.03 l -0.06,-0.01 h -0.03 l -0.03,0.01 -0.03,0.01 -0.03,0.02 h -0.03 l -0.03,0.01 -0.09,0.01 h -0.06 l -0.02,0.01 -0.03,0.01 -0.06,0.03 -0.05,0.02 -0.03,0.01 h -0.03 l -0.03,0.01 -0.02,0.01 -0.01,0.02 h -0.03 l -0.02,0.01 -0.02,0.01 -0.04,0.01 0.01,0.02 -0.01,0.07 0.02,0.02 0.03,0.03 0.02,0.03 -0.01,0.04 0.02,0.05 0.03,0.01 0.03,0.03 0.01,0.04 0.03,0.02 0.04,0.01 0.04,-0.01 0.02,0.03 0.02,0.03 0.02,0.01 0.05,-0.02 h 0.03 l 0.04,0.01 0.02,0.03 -0.01,0.04 -0.03,0.04 -0.03,0.05 -0.02,0.03 0.01,0.03 0.04,0.02 0.05,0.02 0.03,0.03 -0.01,0.03 -0.03,0.04 -0.04,0.03 -0.07,0.04 -0.02,0.03 0.01,0.02 0.05,0.02 0.03,0.01 v 0.02 0.01 0.02 l -0.01,0.04 0.01,0.02 v 0.02 l -0.02,0.01 h -0.01 l -0.06,-0.02 -0.05,0.01 -0.01,0.02 -0.02,0.01 -0.02,0.03 h -0.03 L 551,60.05 v 0.06 l 0.01,0.06 0.01,0.02 0.02,0.02 h 0.02 0.02 l 0.03,0.01 0.03,0.01 v 0.03 l -0.03,0.02 -0.01,0.02 -0.02,0.02 h -0.02 l -0.02,0.01 -0.02,0.01 -0.03,0.01 -0.01,0.03 v 0.03 l -0.01,0.02 0.02,0.01 0.01,0.01 v 0.03 l -0.02,0.02 -0.02,0.02 -0.01,0.03 v 0.02 l 0.01,0.03 v 0.02 0.03 h 0.01 0.03 l 0.03,0.01 0.03,0.01 0.02,0.02 v 0.02 l -0.01,0.03 -0.01,0.02 -0.03,0.01 H 551 550.97 l -0.02,0.01 -0.01,0.02 0.02,0.03 0.02,0.01 0.02,0.01 h 0.03 0.03 v -0.02 l 0.02,-0.02 0.03,-0.01 h 0.03 l 0.02,0.02 v 0.02 l -0.02,0.02 -0.04,0.01 -0.03,0.02 -0.02,0.02 0.01,0.04 0.02,0.04 0.01,0.02 v 0.03 l -0.02,0.02 -0.02,0.02 -0.01,0.02 0.02,0.02 0.03,0.03 v 0.02 0.03 l -0.02,0.03 -0.03,0.03 -0.02,0.02 -0.02,0.03 -0.01,0.02 0.02,0.03 h 0.02 0.04 l 0.02,-0.01 0.02,-0.01 0.01,0.01 -0.01,0.03 -0.03,0.03 -0.03,0.02 -0.03,0.04 -0.01,0.02 0.01,0.03 0.02,0.02 h 0.04 l 0.04,0.01 0.02,0.02 v 0.03 l -0.03,0.03 -0.03,0.02 -0.03,0.02 -0.02,0.02 -0.04,0.06 -0.02,0.02 -0.03,0.01 -0.03,0.01 h -0.03 l -0.02,0.01 -0.01,0.02 v 0.03 0.03 0.02 0.03 l -0.01,0.03 v 0.02 l -0.01,0.03 v 0.03 0.02 0.03 0.02 l -0.02,0.03 -0.01,0.03 -0.01,0.02 v 0.03 l -0.01,0.02 -0.01,0.01 h -0.01 l -0.01,0.03 -0.01,0.02 v 0.02 0.04 l 0.01,0.04 v 0.04 l 0.01,0.04 v 0.03 l 0.01,0.04 -0.01,0.02 h -0.01 l -0.02,-0.01 -0.02,-0.01 -0.01,0.01 -0.02,0.02 v 0.02 0.02 l 0.02,0.04 0.01,0.02 0.01,0.02 0.02,0.02 0.02,0.01 0.02,0.02 0.01,0.03 0.01,0.02 0.01,0.06 0.02,0.02 0.01,0.02 v 0.02 l 0.02,0.02 0.02,0.01 0.01,0.02 0.01,0.03 0.01,0.03 0.02,0.01 0.01,0.01 v 0.02 l 0.01,0.02 0.01,0.02 v 0.04 l 0.01,0.03 v 0.01 l -0.01,0.04 -0.01,0.02 -0.01,0.02 0.01,0.03 v 0.01 l -0.01,0.03 -0.01,0.02 v 0.02 l -0.01,0.03 v 0.02 l 0.01,0.03 0.01,0.02 v 0.02 0.02 l -0.02,0.03 -0.01,0.03 -0.01,0.02 v 0.03 0.01 l -0.02,0.01 -0.05,0.02 h -0.04 l -0.02,0.02 -0.01,0.01 -0.06,-0.01 -0.47,-0.08 -0.22,-0.04 -0.31,-0.05 -0.21,-0.03 -0.15,-0.03 -0.25,-0.04 -0.23,-0.04 -0.14,-0.02 -0.05,-0.01 v -0.02 l -0.14,-0.16 -0.1,-0.12 -0.05,-0.06 -0.03,-0.01 -0.19,-0.04 -0.12,-0.03 -0.07,-0.01 -0.3,-0.03 -0.67,-0.12 -0.15,-0.02 -0.08,-0.01 -0.49,-0.07 0.01,-0.02 0.04,-0.11 0.07,-0.15 0.04,-0.07 0.02,-0.05 0.05,-0.06 0.06,-0.08 0.05,-0.05 0.02,-0.04 0.29,-0.54 0.07,-0.05 0.31,-0.05 0.2,-0.11 0.03,-0.11 0.01,-0.03 V 61.12 61.1 61.07 61.04 l 0.01,-0.03 v -0.03 l -0.01,-0.04 v -0.03 l 0.01,-0.04 0.01,-0.04 V 60.8 60.77 60.74 l -0.01,-0.03 -0.01,-0.03 -0.02,-0.04 -0.01,-0.03 -0.01,-0.03 v -0.03 l -0.01,-0.04 -0.01,-0.05 v -0.03 l -0.01,-0.03 v -0.03 -0.03 l 0.01,-0.02 V 60.3 l 0.01,-0.03 v -0.03 -0.03 -0.03 -0.02 l 0.01,-0.02 v -0.02 l 0.01,-0.02 -0.01,-0.03 V 60.04 60.02 L 547.5,60 v -0.01 l 0.01,-0.03 -0.01,-0.02 -0.01,-0.02 -0.01,-0.02 v -0.01 l -0.02,-0.03 -0.01,-0.04 -0.02,-0.02 -0.01,-0.02 -0.02,-0.04 v -0.02 l -0.01,-0.02 v -0.02 l -0.01,-0.03 v -0.04 l -0.01,-0.02 v -0.02 l -0.01,-0.03 -0.02,-0.05 -0.02,-0.04 -0.03,-0.04 -0.01,-0.02 -0.01,-0.03 -0.01,-0.02 -0.03,-0.02 -0.03,-0.02 -0.03,-0.03 -0.03,-0.02 -0.03,-0.03 -0.01,-0.02 -0.01,-0.02 -0.01,-0.04 -0.01,-0.03 -0.01,-0.04 -0.01,-0.02 -0.01,-0.05 -0.01,-0.05 -0.01,-0.04 -0.02,-0.05 -0.01,-0.03 -0.02,-0.04 -0.01,-0.02 v -0.01 l 0.01,-0.02 0.02,-0.01 L 547,58.7 V 58.68 58.65 58.63 58.6 l 0.02,-0.03 0.01,-0.03 0.02,-0.01 0.01,-0.02 v -0.02 l 0.01,-0.01 0.02,-0.04 v -0.03 l -0.01,-0.01 0.01,-0.01 0.01,-0.02 0.01,-0.01 0.01,-0.03 0.01,-0.03 v -0.03 l 0.01,-0.06 0.01,-0.03 v -0.04 -0.03 -0.02 -0.03 -0.01 l -0.01,-0.01 -0.01,-0.02 -0.02,-0.02 -0.02,-0.05 -0.03,-0.08 -0.02,-0.06 -0.02,-0.06 -0.01,-0.03 V 57.71 L 547,57.69 546.99,57.68 h -0.01 -0.01 -0.01 v -0.01 l -0.01,-0.01 v -0.03 l -0.01,-0.03 v -0.03 -0.01 -0.02 l -0.01,-0.02 -0.02,-0.06 -0.02,-0.07 -0.02,-0.03 -0.01,-0.03 -0.01,-0.01 -0.01,-0.01 -0.02,-0.02 -0.02,-0.02 -0.03,-0.02 V 57.23 57.2 57.18 57.16 l -0.01,-0.02 v -0.01 l -0.01,-0.01 0.01,-0.02 0.01,-0.01 V 57.08 57.05 57.02 57 56.98 l 0.01,-0.02 v -0.02 -0.03 l 0.02,-0.02 0.03,-0.03 0.02,-0.02 h 0.02 l 0.03,-0.01 0.02,-0.02 0.01,-0.01 v -0.02 l -0.02,-0.04 -0.01,-0.02 -0.01,-0.03 v -0.02 -0.02 l 0.01,-0.02 0.01,-0.03 0.01,-0.02 -0.01,-0.03 -0.01,-0.05 -0.01,-0.04 -0.01,-0.01 -0.01,-0.04 V 56.4 l -0.01,-0.02 -0.01,-0.01 -0.01,-0.02 -0.01,-0.01 -0.01,-0.02 V 56.3 56.28 l -0.02,-0.02 h -0.02 -0.04 -0.02 l -0.01,-0.02 -0.01,-0.02 -0.01,-0.01 -0.01,-0.01 -0.02,0.02 h -0.01 l -0.01,-0.02 v -0.03 l 0.01,-0.02 -0.01,-0.01 -0.01,-0.01 -0.01,-0.01 v -0.01 l 0.01,-0.01 0.02,-0.03 0.01,-0.02 -0.01,-0.02 -0.01,-0.02 v -0.04 -0.01 l -0.01,-0.03 0.01,-0.06 v -0.05 -0.06 l -0.01,-0.07 -0.01,-0.03 v -0.01 l -0.03,-0.02 V 55.61 55.6 l 0.01,-0.03 0.01,-0.04 0.03,-0.04 0.03,-0.02 0.04,-0.04 0.01,-0.03 v -0.02 l 0.01,-0.04 -0.01,-0.06 -0.01,-0.04 -0.01,-0.06 -0.01,-0.03 -0.01,-0.01 -0.04,-0.01 -0.06,-0.01 -0.04,-0.06 h -0.02 l -0.03,0.01 h -0.02 l -0.03,0.03 -0.03,0.02 -0.02,0.02 h -0.03 l -0.04,0.02 -0.05,0.01 -0.04,0.01 -0.04,0.01 -0.04,0.02 -0.03,0.03 -0.02,0.01 h -0.05 -0.04 -0.07 l -0.03,-0.01 -0.04,0.01 -0.08,-0.01 h -0.04 -0.03 l -0.07,-0.01 h -0.02 -0.04 -0.04 l -0.04,0.02 -0.05,0.02 -0.04,0.02 -0.16,-0.34 -0.03,0.02 -0.04,0.02 -0.03,0.03 -0.08,-0.18 -0.03,-0.17 0.09,-0.02 -0.01,-0.07 -0.05,-0.14 -0.02,-0.11 -0.01,-0.01 -0.14,-0.29 -0.39,-0.58 -0.01,-0.33 -0.03,0.01 h -0.03 l -0.03,-0.02 -0.02,-0.02 -0.03,-0.01 h -0.01 l -0.05,-0.01 -0.04,0.01 -0.04,-0.02 h -0.06 v -0.03 l -0.02,-0.09 -0.04,-0.15 -0.05,-0.24 -0.01,-0.21 -0.02,-0.15 0.12,-0.05 0.31,-0.06 h 0.02 l -0.01,-0.03 0.01,-0.02 0.01,-0.02 V 52 51.97 l -0.02,-0.02 v -0.01 -0.01 -0.02 l -0.01,-0.05 v -0.01 l -0.01,-0.01 -0.01,-0.01 -0.02,-0.02 -0.01,-0.01 v -0.01 -0.02 -0.01 -0.01 l 0.01,-0.02 v -0.01 -0.01 -0.02 -0.01 -0.01 l -0.01,-0.02 h -0.01 l -0.01,-0.01 -0.01,-0.01 -0.01,-0.01 -0.03,-0.01 h -0.01 -0.01 -0.01 -0.01 -0.01 l -0.01,-0.01 v 0 l -0.01,-0.02 v -0.01 l -0.01,-0.01 v 0 h -0.01 v -0.01 l -0.01,-0.02 -0.01,-0.02 v -0.02 l 0.01,-0.01 v -0.01 l 0.01,-0.01 0.01,-0.02 0.01,-0.01 0.07,-0.12 0.18,-0.31 0.11,-0.19 0.16,-0.27 0.27,0.01 0.19,0.02 h 0.02 l 0.15,0.02 0.09,0.01 0.01,-0.01 0.03,-0.03 0.07,-0.19 0.03,-0.12 0.13,0.02 -0.01,-0.03 v -0.01 l -0.01,-0.02 -0.01,-0.02 -0.01,-0.02 v -0.04 l -0.01,-0.06 -0.02,-0.09 v -0.01 l -0.01,-0.03 v -0.03 -0.03 l -0.01,-0.04 V 49.8 l -0.01,-0.02 v -0.02 l 0.01,-0.01 0.01,-0.02 v -0.02 -0.02 -0.02 -0.02 -0.02 l 0.01,-0.01 v -0.01 l 0.01,-0.01 0.01,-0.02 0.01,-0.01 0.01,-0.01 v -0.02 l 0.03,-0.07 0.01,-0.02 0.01,-0.02 0.01,-0.01 0.02,-0.01 V 49.4 l 0.01,-0.01 0.01,-0.02 v -0.01 l 0.01,-0.01 h 0.02 l 0.02,-0.01 -0.01,-0.02 v -0.01 -0.03 -0.02 -0.01 -0.02 l -0.01,-0.01 V 49.21 49.2 l 0.01,-0.02 v -0.01 -0.02 -0.03 -0.01 l 0.01,-0.02 v -0.03 l 0.01,-0.03 v -0.01 l 0.01,-0.03 0.03,-0.06 0.02,-0.08 0.01,-0.06 0.01,-0.03 0.01,-0.03 h 0.01 v -0.02 l 0.01,-0.01 v -0.01 l 0.01,-0.01 0.01,-0.02 0.01,-0.02 v -0.01 l 0.01,-0.02 0.01,-0.01 0.01,-0.01 v -0.01 l 0.02,-0.02 0.01,-0.02 0.02,-0.04 0.02,-0.01 0.01,-0.02 0.01,-0.01 0.01,-0.01 0.01,-0.01 0.01,-0.02 0.02,-0.02 0.01,-0.01 0.02,-0.01 0.01,-0.02 0.02,-0.01 0.02,-0.01 0.01,-0.01 0.06,-0.03 0.06,-0.04 -0.01,-0.09 -0.01,-0.21 -0.12,-0.25 -0.21,-0.42 -0.04,-0.1 -0.09,-0.16 -0.24,-0.46 -0.01,0.01 -0.02,-0.05 -0.13,-0.28 -0.02,-0.02 -0.01,-0.02 -0.06,-0.13 -0.01,-0.02 v -0.02 -0.01 l -0.22,-0.17 -0.58,-0.07 -0.03,-0.23 V 45.53 45.5 45.47 45.45 l -0.34,-0.19 -0.04,-0.03 -0.09,-0.03 0.01,-0.16 0.05,-0.01 0.1,-0.02 0.01,-0.09 v -0.07 l -0.02,-0.04 0.11,-0.16 -0.02,-0.02 -0.02,-0.04 h 0.02 l 0.02,-0.01 0.01,-0.01 0.08,-0.09 0.02,-0.11 0.03,-0.27 0.04,-0.36 -0.03,-0.06 -0.09,-0.19 -0.02,-0.01 -0.02,-0.01 -0.01,-0.01 -0.01,-0.04 V 43.4 43.37 43.34 l -0.01,-0.02 -0.01,-0.02 -0.03,-0.02 -0.01,-0.01 -0.03,-0.03 -0.09,-0.07 -0.02,-0.02 -0.02,-0.02 -0.01,-0.02 -0.01,-0.03 -0.03,-0.06 -0.01,-0.03 -0.02,-0.05 -0.02,-0.09 -0.01,-0.03 -0.02,-0.02 -0.02,-0.02 -0.03,-0.03 -0.01,-0.02 -0.01,-0.02 -0.01,-0.02 -0.01,-0.05 0.01,-0.04 v -0.04 -0.04 l -0.01,-0.07 0.05,-0.36 0.01,-0.11 0.01,-0.04 V 41.9 l 0.01,-0.07 -0.02,-0.12 -0.01,-0.27 V 41.4 l -0.03,-0.21 -0.05,-0.38 -0.07,-0.41 0.06,-0.58 0.03,-0.26 v -0.02 l 0.02,-0.19 v -0.04 l 0.01,-0.02 0.07,-0.25 0.08,-0.15 0.01,-0.01 0.01,-0.03 0.09,-0.16 0.05,-0.07 0.07,-0.12 0.08,-0.13 0.08,-0.14 0.01,-0.03 v -0.02 l 0.08,-0.13 0.16,-0.31 0.01,-0.02 0.09,-0.17 0.03,-0.04 0.02,-0.03 0.03,-0.06 0.02,-0.03 0.01,-0.04 0.02,-0.03 0.06,-0.1 0.02,-0.03 0.01,-0.05 0.01,-0.06 0.06,-0.26 0.04,-0.21 0.16,0.05 0.14,0.05 0.6,0.2 0.64,0.24 0.16,0.05 0.1,0.04 0.15,0.05 0.32,0.11 0.61,0.17 0.12,0.04 h 0.46 l 0.34,0.12 0.12,0.04 0.04,0.01 0.18,0.06 0.02,0.02 0.02,0.01 0.02,0.01 0.05,0.02 0.05,0.03 0.04,0.03 0.05,0.04 0.06,0.05 0.04,0.03 h 0.01 l 0.06,0.05 0.07,0.05 0.05,0.03 0.01,0.03 0.12,0.06 0.08,0.07 0.05,0.04 v 0.01 l 0.03,0.04 0.02,0.07 0.09,0.47 0.03,0.14 0.12,0.4 z"
       id="path101"
       inkscape:connector-curvature="0" />
  </g>
</svg>
