<?xml version="1.0" encoding="UTF-8" standalone="no"?>
<svg
   xmlns:dc="http://purl.org/dc/elements/1.1/"
   xmlns:cc="http://creativecommons.org/ns#"
   xmlns:rdf="http://www.w3.org/1999/02/22-rdf-syntax-ns#"
   xmlns:svg="http://www.w3.org/2000/svg"
   xmlns="http://www.w3.org/2000/svg"
   xmlns:sodipodi="http://sodipodi.sourceforge.net/DTD/sodipodi-0.dtd"
   xmlns:inkscape="http://www.inkscape.org/namespaces/inkscape"
   version="1.2"
   width="800"
   height="642"
   viewBox="0 0 800 642"
   stroke-linecap="round"
   stroke-linejoin="round"
   id="svg159"
   sodipodi:docname="Arrieta.svg"
   inkscape:version="0.92.5 (2060ec1f9f, 2020-04-08)">
  <metadata
     id="metadata165">
    <rdf:RDF>
      <cc:Work
         rdf:about="">
        <dc:format>image/svg+xml</dc:format>
        <dc:type
           rdf:resource="http://purl.org/dc/dcmitype/StillImage" />
      </cc:Work>
    </rdf:RDF>
  </metadata>
  <defs
     id="defs163" />
  <sodipodi:namedview
     pagecolor="#ffffff"
     bordercolor="#666666"
     borderopacity="1"
     objecttolerance="10"
     gridtolerance="10"
     guidetolerance="10"
     inkscape:pageopacity="0"
     inkscape:pageshadow="2"
     inkscape:window-width="1848"
     inkscape:window-height="1016"
     id="namedview161"
     showgrid="false"
     inkscape:zoom="1.470405"
     inkscape:cx="400"
     inkscape:cy="321"
     inkscape:window-x="72"
     inkscape:window-y="27"
     inkscape:window-maximized="1"
     inkscape:current-layer="svg159" />
  <g
     id="Arrieta"
     transform="matrix(24.247128,0,0,24.247128,-4408.3528,-1690.0662)">
    <path
       d="m 196.9,73.13 -0.28,0.14 v 0.04 l -0.02,0.29 0.8,0.53 0.04,0.83 0.48,0.58 0.55,-0.09 -0.14,0.34 0.28,0.04 0.52,0.01 0.54,-0.02 0.04,0.93 -0.16,0.31 0.27,0.08 -0.38,0.47 0.18,0.68 0.31,0.4 0.08,0.26 0.01,0.33 0.31,0.04 0.86,0.17 0.39,0.12 0.38,0.2 0.08,0.04 0.11,-0.01 0.69,0.21 0.82,0.63 0.11,0.01 0.24,0.17 0.05,0.12 0.11,0.08 0.08,0.05 0.07,0.05 0.08,0.07 0.06,0.06 0.06,0.05 0.06,0.03 0.03,0.04 0.11,0.1 0.04,0.04 0.01,0.02 0.06,0.07 h 0.04 l 0.03,0.01 0.03,0.01 0.03,0.04 0.04,0.03 0.03,0.03 0.1,0.04 0.12,0.34 -0.24,0.85 -0.23,0.41 -0.18,0.32 -0.56,1.04 -0.1,0.38 -0.09,0.15 -0.12,0.23 -0.09,0.16 -0.07,0.21 0.02,0.28 v 0.02 l -0.58,0.19 -0.1,-0.05 -0.03,-0.02 -0.06,-0.02 -0.05,-0.02 -0.05,-0.02 -0.05,-0.03 -0.07,-0.04 -0.06,-0.03 -0.04,-0.02 -0.04,-0.04 -0.03,-0.01 -0.03,-0.03 -0.04,-0.03 -0.03,-0.02 -0.05,-0.01 -0.04,-0.02 -0.06,-0.02 -0.06,-0.01 -0.06,-0.01 -0.05,-0.01 -0.06,-0.01 -0.05,-0.01 -0.04,-0.01 -0.03,-0.01 -0.04,-0.02 -0.04,-0.01 -0.04,-0.01 -0.06,-0.01 h -0.04 l -0.03,0.01 h -0.04 l -0.04,0.01 -0.05,0.01 -0.05,0.01 -0.06,0.01 -0.05,0.01 -0.04,0.02 -0.04,0.03 -0.06,0.02 -0.05,0.02 -0.06,0.02 -0.04,0.02 -0.03,0.01 -0.03,0.03 -0.02,0.02 -0.02,0.04 -0.03,0.05 -0.02,0.04 -0.01,0.02 -0.04,0.04 -0.05,0.05 -0.06,0.05 -0.03,0.04 -0.03,0.01 -0.01,0.03 -0.02,0.03 -0.01,0.03 v 0.03 0.03 l 0.01,0.03 v 0.04 0.03 l -0.01,0.04 -0.01,0.04 -0.02,0.05 -0.01,0.04 0.01,0.04 0.01,0.03 v 0.03 l -0.01,0.03 -0.01,0.04 -0.01,0.04 -0.01,0.03 0.01,0.04 v 0.04 l 0.01,0.04 v 0.02 0.01 l -0.02,0.02 -0.02,0.04 -0.03,0.04 -0.03,0.05 -0.02,0.02 -0.01,0.03 v 0.03 0.04 l -0.01,0.03 -0.01,0.03 -0.01,0.03 -0.02,0.04 -0.02,0.03 -0.02,0.03 v 0.02 l 0.02,0.02 0.03,0.03 0.03,0.03 0.04,0.04 0.03,0.03 0.01,0.02 0.01,0.03 0.02,0.02 0.02,0.02 0.03,0.04 0.04,0.03 0.02,0.02 0.03,0.02 0.02,0.01 0.03,0.01 0.03,0.01 0.04,0.02 0.02,0.02 0.03,0.02 0.03,0.03 0.03,0.02 0.01,0.04 0.01,0.03 v 0.03 0.03 l -0.01,0.03 -0.02,0.04 -0.01,0.03 -0.02,0.03 -0.02,0.04 -0.02,0.04 -0.01,0.02 v 0.03 0.02 l -0.01,0.02 -0.01,0.03 -0.01,0.03 v 0.02 l 0.01,0.02 0.01,0.03 0.02,0.03 0.02,0.03 0.02,0.03 0.03,0.04 0.03,0.03 0.02,0.04 0.02,0.03 0.01,0.04 -0.02,0.05 v 0.01 0.02 0.03 h -0.02 -0.02 l -0.02,0.01 -0.02,0.01 -0.02,0.01 -0.03,0.02 -0.03,0.03 -0.02,0.02 -0.01,0.02 -0.03,0.04 -0.02,0.03 -0.01,0.02 v 0.03 l -0.01,0.03 v 0.02 l 0.01,0.04 -0.01,0.01 v 0.02 l -0.01,0.01 -0.02,0.01 -0.02,0.01 h -0.03 -0.02 l -0.03,-0.01 h -0.03 -0.03 -0.02 l -0.01,0.02 -0.01,0.01 v 0.09 0.03 0.03 l -0.02,0.03 -0.02,0.03 -0.03,0.04 -0.01,0.03 -0.01,0.02 v 0.03 0.02 l 0.01,0.03 0.01,0.04 -0.01,0.04 v 0.04 0.04 0.05 0.04 l -0.01,0.03 -0.01,0.03 -0.01,0.03 -0.03,0.03 -0.02,0.03 -0.03,0.05 -0.02,0.04 -0.01,0.03 -0.03,0.03 -0.02,0.03 -0.02,0.04 v 0.03 l -0.01,0.05 -0.01,0.01 -0.03,0.03 -0.03,0.04 -0.02,0.01 -0.03,0.02 -0.02,0.02 -0.04,0.02 -0.04,0.03 -0.03,0.03 -0.03,0.03 -0.03,0.02 -0.03,0.01 -0.05,0.03 -0.05,0.02 -0.06,0.02 -0.05,0.03 -0.05,0.02 -0.04,0.01 -0.02,0.02 -0.03,0.02 -0.01,0.03 -0.02,0.04 -0.02,0.03 -0.02,0.03 -0.02,0.01 -0.03,0.01 h -0.05 l -0.04,-0.01 h -0.04 l -0.03,0.01 -0.03,0.01 -0.02,0.02 -0.02,0.04 -0.02,0.04 -0.01,0.04 -0.02,0.05 -0.01,0.04 -0.01,0.02 -0.01,0.04 -0.02,0.03 -0.02,0.04 -0.02,0.04 -0.01,0.03 -0.01,0.03 -0.01,0.06 0.08,0.2 0.46,1.13 -1.04,0.05 -0.65,0.11 h -1.32 l -0.89,0.15 -0.23,-0.01 -0.46,-0.01 -0.3,-0.03 -0.38,-0.03 -0.53,0.19 -1.61,-0.53 -0.74,-1.29 0.74,-0.7 -0.09,-0.29 0.16,-0.12 -0.05,-0.38 -0.41,-0.68 -0.23,-0.3 -0.52,-0.61 -0.07,0.09 -0.16,0.27 -0.27,-0.18 -0.34,-0.42 0.02,-0.35 v -0.03 l -0.24,-0.35 -0.03,-0.01 -0.08,-0.01 0.11,-0.4 0.11,-0.35 0.31,0.08 0.14,-0.29 -0.2,-0.05 -0.12,-0.04 -0.14,-0.18 -0.12,-0.34 0.16,-0.58 -0.06,-0.05 -0.15,0.19 -0.06,-0.17 0.01,-0.06 0.07,-0.09 0.02,-0.31 -0.21,-0.19 0.14,-0.11 h 0.14 l 0.02,-0.14 -0.19,-0.5 -0.02,-0.13 -0.09,-0.44 0.04,-0.12 0.1,-0.35 0.06,-0.13 0.06,-0.14 0.1,-0.22 0.08,-0.18 0.1,-0.24 0.09,-0.19 -0.01,-0.12 0.03,-0.13 0.04,-0.19 v -0.04 l -0.02,-0.12 -0.01,-0.04 0.01,-0.05 0.02,-0.09 0.05,0.02 0.03,0.03 0.05,0.04 0.05,0.03 0.06,0.02 0.03,0.02 0.06,0.04 h 0.01 l 0.03,-0.03 0.01,-0.01 0.04,-0.07 0.04,-0.05 0.02,-0.02 0.03,-0.04 0.04,-0.03 0.02,-0.02 0.04,-0.01 0.06,-0.03 0.05,-0.03 h 0.01 l 0.05,-0.01 h 0.06 l 0.01,-0.01 0.1,-0.04 0.07,-0.02 0.04,-0.02 0.02,-0.02 0.03,-0.03 0.02,-0.03 0.02,-0.03 0.02,-0.04 0.02,-0.05 0.01,-0.01 v -0.07 l 0.01,-0.16 0.02,-0.03 0.02,-0.01 0.04,-0.02 0.07,-0.02 0.2,-0.2 0.03,-0.07 0.03,-0.04 0.01,-0.01 0.04,-0.01 h 0.05 l 0.02,0.01 0.03,0.04 0.04,0.04 0.04,0.03 0.05,-0.02 0.08,-0.07 0.02,-0.02 0.03,-0.02 h 0.02 0.18 l 0.04,-0.02 0.05,-0.06 0.03,-0.02 h 0.02 l 0.08,0.04 0.02,0.01 h 0.04 0.02 l 0.05,-0.01 v -0.01 l 0.08,-0.07 0.02,-0.02 0.04,-0.01 0.01,-0.01 0.04,-0.02 h 0.02 l 0.1,-0.01 h 0.01 l 0.1,0.04 h 0.01 l 0.05,-0.01 0.06,-0.03 0.02,-0.01 0.04,-0.01 0.06,-0.01 h 0.02 l 0.04,0.01 0.04,0.06 h 0.04 l 0.06,-0.04 0.04,-0.03 h 0.02 l 0.1,-0.02 h 0.01 l 0.11,0.02 h 0.06 0.04 l 0.02,0.01 0.1,0.04 h 0.01 0.04 0.02 l 0.03,-0.02 0.01,-0.03 v -0.06 l -0.01,-0.36 v -0.02 l 0.01,-0.05 0.01,-0.04 v -0.02 l 0.01,-0.04 v -0.03 -0.04 l -0.01,-0.05 v -0.02 -0.05 l 0.01,-0.06 0.01,-0.05 0.01,-0.03 0.01,-0.04 0.01,-0.05 0.01,-0.01 0.04,-0.03 v -0.1 l 0.03,-0.06 0.02,-0.04 0.02,-0.07 0.01,-0.01 v -0.01 l 0.01,-0.01 v -0.01 l 0.01,-0.01 v -0.01 h 0.01 v -0.01 -0.01 l 0.01,-0.01 v 0 l 0.01,-0.01 0.01,-0.01 v 0 h 0.01 l 0.01,-0.01 h 0.01 0.01 l 0.01,-0.01 h 0.01 l 0.01,-0.01 h 0.01 l 0.01,-0.01 h 0.01 v -0.01 l 0.01,-0.01 0.01,-0.01 v -0.01 l 0.01,-0.01 v -0.01 -0.01 l 0.01,-0.01 v -0.01 -0.01 0 -0.01 -0.01 -0.01 -0.01 -0.02 -0.01 -0.01 l -0.01,-0.01 V 78.1 78.09 78.07 l -0.01,-0.01 v -0.01 l -0.01,-0.01 v -0.01 l -0.01,-0.01 V 78.01 78 78 l -0.01,-0.01 v -0.01 -0.01 -0.01 -0.01 -0.01 -0.01 -0.02 -0.01 0 -0.01 l 0.01,-0.01 v -0.01 -0.01 -0.01 l 0.01,-0.01 v -0.01 h 0.01 v -0.01 l 0.01,-0.01 v 0 l 0.01,-0.01 0.01,-0.01 h 0.01 l 0.01,-0.01 h 0.01 l 0.01,-0.01 h 0.01 l 0.01,-0.01 0.01,-0.01 v -0.01 l 0.01,-0.01 0.01,-0.01 V 77.71 77.7 h 0.01 v -0.01 -0.01 -0.01 l 0.01,-0.01 v 0 -0.01 -0.01 l 0.01,-0.01 v -0.01 -0.01 0 -0.01 l 0.01,-0.01 v -0.01 l 0.01,-0.01 v 0 l 0.01,-0.01 v -0.01 l 0.01,-0.01 v 0 l 0.01,-0.01 v -0.01 0 l 0.01,-0.02 v -0.01 l 0.01,-0.01 v -0.01 -0.02 -0.01 l 0.01,-0.01 v -0.01 -0.01 l 0.01,-0.01 v -0.01 -0.01 l 0.03,-0.01 -0.02,-0.09 -0.02,-0.05 -0.03,-0.06 -0.03,-0.04 -0.01,-0.03 0.01,-0.05 V 77 l 0.01,-0.06 0.02,-0.09 0.03,-0.18 v -0.19 l 0.07,-0.33 0.12,-0.11 -0.01,-0.01 0.01,-0.1 0.18,-1.02 0.25,-0.93 0.07,-0.31 0.14,-0.02 0.29,-0.95 z"
       id="path156"
       inkscape:connector-curvature="0" />
  </g>
</svg>
