<?xml version="1.0" encoding="UTF-8" standalone="no"?>
<svg
   xmlns:dc="http://purl.org/dc/elements/1.1/"
   xmlns:cc="http://creativecommons.org/ns#"
   xmlns:rdf="http://www.w3.org/1999/02/22-rdf-syntax-ns#"
   xmlns:svg="http://www.w3.org/2000/svg"
   xmlns="http://www.w3.org/2000/svg"
   xmlns:sodipodi="http://sodipodi.sourceforge.net/DTD/sodipodi-0.dtd"
   xmlns:inkscape="http://www.inkscape.org/namespaces/inkscape"
   version="1.2"
   width="800"
   height="642"
   viewBox="0 0 800 642"
   stroke-linecap="round"
   stroke-linejoin="round"
   id="svg49"
   sodipodi:docname="Arruta-Sarrikota-Amikuze.svg"
   inkscape:version="0.92.5 (2060ec1f9f, 2020-04-08)">
  <metadata
     id="metadata55">
    <rdf:RDF>
      <cc:Work
         rdf:about="">
        <dc:format>image/svg+xml</dc:format>
        <dc:type
           rdf:resource="http://purl.org/dc/dcmitype/StillImage" />
      </cc:Work>
    </rdf:RDF>
  </metadata>
  <defs
     id="defs53" />
  <sodipodi:namedview
     pagecolor="#ffffff"
     bordercolor="#666666"
     borderopacity="1"
     objecttolerance="10"
     gridtolerance="10"
     guidetolerance="10"
     inkscape:pageopacity="0"
     inkscape:pageshadow="2"
     inkscape:window-width="1848"
     inkscape:window-height="1016"
     id="namedview51"
     showgrid="false"
     inkscape:zoom="0.73520249"
     inkscape:cx="400"
     inkscape:cy="321"
     inkscape:window-x="72"
     inkscape:window-y="27"
     inkscape:window-maximized="1"
     inkscape:current-layer="svg49" />
  <g
     id="Arruta-Sarrikota-Amikuze"
     transform="matrix(16.456472,0,0,16.456472,-10463.722,-576.83552)">
    <path
       d="m 676.66,38.19 0.01,0.14 0.01,0.15 v 0.11 0.09 l 0.01,0.12 v 0.04 l 0.01,0.04 0.01,0.05 0.01,0.04 0.02,0.05 0.07,0.13 0.06,0.14 0.02,0.06 0.02,0.03 0.02,0.05 0.01,0.08 v 0.06 0.07 0.02 l 0.02,0.3 0.01,0.16 0.01,0.1 v 0.13 l -0.03,0.16 v 0.04 l -0.01,0.04 -0.02,0.1 -0.01,0.14 v 0.12 0.12 0.2 0.1 0.12 0.17 0.1 0.1 l -0.01,0.08 -0.01,0.09 -0.01,0.07 -0.01,0.08 -0.01,0.09 -0.01,0.06 -0.02,0.06 -0.07,0.1 -0.08,0.11 -0.13,0.16 -0.05,0.06 -0.05,0.04 -0.06,0.05 -0.05,0.04 -0.07,0.04 -0.06,0.03 -0.05,0.02 h -0.01 l -0.06,0.01 h -0.05 -0.05 l -0.05,-0.01 -0.03,-0.01 -0.02,-0.01 -0.13,-0.01 h -0.08 -0.07 l -0.07,0.02 -0.09,0.03 -0.09,0.03 -0.08,0.03 -0.09,0.01 h -0.09 -0.08 l -0.08,-0.01 -0.08,-0.01 h -0.07 l -0.11,-0.01 -0.06,-0.01 -0.11,-0.02 -0.12,-0.01 -0.11,-0.03 -0.16,-0.05 -0.06,-0.01 -0.05,-0.01 -0.04,0.01 -0.04,0.01 -0.03,0.02 -0.05,0.02 -0.04,0.03 -0.04,0.02 -0.04,0.04 -0.01,0.03 -0.01,0.03 -0.03,0.08 -0.02,0.06 -0.01,0.05 v 0.01 l -0.02,0.12 -0.01,0.07 -0.06,0.14 -0.11,0.3 -0.02,0.09 -0.01,0.03 -0.01,0.06 0.01,0.08 0.02,0.08 0.03,0.08 0.04,0.08 0.06,0.09 0.11,0.14 0.08,0.11 0.09,0.11 0.03,0.04 0.05,0.04 0.03,0.03 0.07,0.05 0.06,0.05 0.06,0.05 0.07,0.06 0.06,0.04 0.07,0.04 0.06,0.02 -0.01,0.03 -0.01,0.04 -0.02,0.05 -0.02,0.03 -0.04,0.04 -0.03,0.03 -0.04,0.01 -0.05,0.02 -0.04,0.01 -0.06,0.02 -0.05,0.02 -0.03,0.02 -0.04,0.03 -0.02,0.03 -0.03,0.03 -0.02,0.04 -0.03,0.03 -0.02,0.02 -0.02,0.02 -0.02,0.02 v 0.03 l -0.01,0.02 -0.02,0.01 h -0.02 -0.02 -0.02 l -0.02,0.01 -0.03,0.03 -0.01,0.03 -0.02,0.03 -0.01,0.01 -0.03,0.01 h -0.03 l -0.03,-0.01 h -0.02 -0.02 -0.03 l -0.02,0.02 -0.01,0.02 -0.01,0.02 v 0.03 l -0.04,0.01 -0.06,0.01 h -0.02 l -0.01,-0.02 h -0.03 l -0.01,0.01 -0.02,0.04 -0.01,0.02 v 0.02 l -0.02,0.02 -0.01,0.01 h -0.02 l -0.03,0.02 -0.05,0.03 -0.02,0.03 -0.02,0.02 -0.02,0.02 -0.01,0.01 h -0.02 -0.02 l -0.02,0.01 h -0.09 l -0.06,0.01 -0.03,0.01 -0.02,0.02 -0.03,0.03 -0.01,0.04 v 0.01 l -0.01,0.02 -0.01,0.01 -0.01,0.01 h -0.02 -0.04 v 0.01 l -0.01,0.01 -0.03,0.02 h -0.02 -0.03 l -0.02,0.01 -0.01,0.02 -0.02,0.04 -0.01,0.04 -0.01,0.02 -0.01,0.02 -0.03,0.03 -0.06,0.03 -0.02,0.03 -0.01,0.03 v 0.02 l -0.01,0.01 v 0 h -0.03 l -0.03,-0.01 -0.03,-0.01 h -0.03 -0.03 l -0.05,0.02 -0.04,0.03 -0.06,0.1 -0.01,0.03 -0.02,0.04 -0.06,0.07 -0.02,0.03 -0.06,0.05 -0.05,0.02 h -0.04 l -0.03,0.01 h -0.07 -0.09 l -0.04,-0.01 h -0.02 l -0.03,0.02 -0.02,0.02 h -0.05 l -0.03,0.01 -0.03,0.02 -0.04,0.01 -0.08,0.03 -0.13,0.03 -0.08,0.02 h -0.05 l -0.02,-0.01 h -0.03 l -0.03,-0.01 h -0.03 l -0.04,-0.02 -0.03,-0.01 -0.06,-0.01 -0.04,-0.01 h -0.06 -0.08 l -0.04,-0.01 h -0.06 l 0.3,0.6 0.15,-0.05 0.02,-0.01 0.07,0.11 0.08,0.12 0.03,0.02 0.19,0.24 0.03,0.06 v 0.02 l 0.01,0.01 0.02,0.02 0.03,0.04 0.14,0.19 0.05,0.22 0.03,0.04 0.11,0.15 0.03,0.03 0.07,0.13 0.05,0.06 0.01,0.02 0.03,0.05 0.08,0.14 0.05,0.07 0.17,0.27 0.11,0.19 0.07,0.11 0.03,0.04 0.02,0.04 0.04,-0.01 h 0.03 l 0.05,0.01 h 0.02 0.03 l 0.03,0.03 0.04,0.02 0.02,0.02 0.02,0.01 0.04,0.02 0.17,0.1 0.04,0.02 0.06,0.03 0.03,0.01 0.01,0.02 h 0.05 l 0.02,0.01 h 0.03 l 0.04,0.01 h 0.03 l 0.03,0.02 h 0.01 l 0.03,0.02 0.03,0.01 0.02,0.03 v 0.01 l 0.01,0.02 -0.02,0.03 -0.01,0.02 v 0.02 l 0.01,0.03 0.02,0.01 0.02,0.02 0.03,0.02 0.02,0.02 0.02,0.03 0.01,0.02 0.02,0.05 0.02,0.05 0.01,0.02 0.02,0.06 0.01,0.04 0.01,0.01 -0.02,0.03 0.03,0.03 0.11,0.12 0.02,0.06 0.06,0.14 0.08,0.06 -0.08,0.06 -0.11,0.06 -0.35,0.12 0.01,0.06 h 0.2 0.07 l 0.1,-0.01 0.17,0.1 0.02,0.01 0.13,0.1 0.31,0.22 0.14,0.13 0.04,0.05 0.01,0.07 -0.4,0.17 -0.01,0.16 0.01,0.35 -0.07,0.11 -0.02,0.09 -0.02,0.01 -0.04,0.04 -0.01,0.01 -0.04,0.04 0.11,0.15 h -0.01 -0.04 l -0.04,0.01 h -0.03 l -0.03,0.03 -0.02,0.05 -0.02,0.05 -0.02,0.05 -0.02,0.01 -0.02,0.02 -0.05,0.02 -0.04,0.03 -0.02,0.03 -0.01,0.04 -0.03,0.04 -0.05,0.04 -0.05,0.04 -0.05,0.1 -0.02,0.07 v 0.04 l 0.02,0.03 0.01,0.02 v 0.02 l -0.04,0.03 -0.03,0.03 -0.02,0.02 -0.06,0.06 -0.04,0.05 -0.04,0.03 -0.05,0.02 -0.04,0.02 h -0.05 -0.04 -0.04 l -0.05,0.01 -0.05,0.01 -0.04,0.02 -0.03,0.03 -0.02,0.03 h -0.03 l -0.02,-0.02 -0.02,-0.01 h -0.03 l -0.02,0.02 v 0.03 l 0.01,0.03 0.01,0.01 v 0.02 l 0.02,0.03 v 0.03 l -0.02,0.03 -0.02,0.04 -0.02,0.01 -0.02,0.03 h -0.02 l -0.03,-0.01 -0.02,-0.02 -0.01,-0.02 -0.02,-0.02 -0.1,0.02 -0.06,0.02 -0.03,0.01 -0.09,0.03 -0.09,0.04 -0.1,0.04 -0.07,0.11 -0.06,0.1 -0.02,0.03 -0.07,0.1 -0.02,0.01 -0.02,0.02 -0.02,0.01 -0.03,0.01 -0.02,0.01 -0.01,0.01 -0.01,0.02 -0.03,0.04 v 0.01 l -0.01,0.05 -0.01,0.05 v 0.07 0.02 l -0.01,0.05 v 0.03 l -0.02,0.03 -0.11,0.08 v 0.39 l -0.4,-0.2 -0.17,0.08 0.01,0.12 -0.03,0.05 -0.05,0.03 -0.38,-0.02 -0.1,0.12 v -0.04 l -0.03,-0.06 -0.08,-0.13 -0.07,-0.13 -0.04,-0.04 -0.09,0.09 -0.65,0.32 -0.04,-0.06 -0.1,0.06 0.03,0.06 -0.01,0.01 -0.05,0.03 0.03,0.04 0.01,0.04 0.01,0.05 0.01,0.02 0.01,0.05 0.02,0.04 0.01,0.02 0.01,0.02 0.02,0.04 0.02,0.04 0.02,0.04 0.02,0.04 0.04,0.02 0.03,0.03 0.04,0.01 h 0.02 l 0.03,0.02 0.01,0.03 -0.01,0.03 -0.02,0.03 v 0.05 l -0.01,0.03 0.01,0.04 0.01,0.03 0.01,0.02 0.03,0.01 0.02,0.01 0.02,0.03 0.01,0.02 0.02,0.01 0.02,-0.01 0.03,-0.02 0.04,-0.01 0.12,0.02 h 0.04 l 0.04,0.01 0.03,0.01 h 0.02 l 0.02,0.01 0.16,0.16 -0.03,0.27 -0.01,0.04 v 0.06 0.07 l 0.01,0.07 -0.02,0.07 -0.03,0.03 h -0.04 -0.02 l -0.07,0.02 -0.11,0.03 -0.11,0.01 -0.1,0.03 -0.03,0.12 -0.01,0.06 -0.01,0.05 -0.03,0.07 -0.03,0.12 -0.01,0.01 -0.02,0.03 -0.02,0.01 -0.04,0.03 -0.04,0.02 -0.03,0.02 -0.09,0.08 -0.03,0.01 0.21,0.25 0.05,0.03 v 0 l -0.02,0.04 h -0.01 l -0.37,0.23 -0.06,0.03 -0.03,0.02 -0.02,0.02 v 0.04 l -0.01,0.03 0.01,0.03 0.01,0.2 -0.19,0.25 -0.12,0.05 -0.14,0.05 -0.04,0.01 0.01,0.04 -0.02,0.01 -0.04,0.01 -0.04,0.01 -0.03,0.01 -0.04,0.01 h -0.05 -0.06 l -0.08,-0.02 -0.04,0.01 -0.04,-0.01 h -0.04 l -0.03,-0.01 -0.18,-0.18 -0.19,-0.05 -0.09,0.01 h -0.18 v 0.07 0.14 0.13 0.02 l -0.02,0.02 -0.02,0.02 -0.06,0.05 -0.07,0.03 -0.02,0.02 h -0.01 l 0.03,0.07 0.07,0.11 0.05,0.09 h 0.05 l 0.04,-0.01 0.03,-0.01 0.02,-0.01 0.06,-0.03 0.04,-0.02 0.02,-0.01 0.03,-0.01 0.03,-0.01 0.06,-0.01 0.21,0.14 0.01,-0.11 0.05,-0.07 0.08,-0.06 0.07,0.14 0.15,0.32 0.02,-0.01 h 0.02 l 0.01,-0.01 h 0.01 l 0.02,0.01 0.01,0.01 0.03,0.03 v 0.01 l 0.01,0.01 0.01,0.02 0.02,0.02 0.02,0.02 0.02,0.04 0.02,0.02 0.02,0.01 0.03,0.02 h 0.03 l 0.03,0.01 0.02,0.01 0.01,0.01 0.01,0.02 0.02,0.01 v 0.02 0.02 l -0.02,0.02 -0.01,0.01 v 0.02 h -0.03 l -0.07,0.03 -0.1,0.03 -0.08,0.02 -0.06,0.02 -0.09,0.03 -0.11,0.06 -0.09,0.03 -0.04,0.02 -0.06,0.04 -0.18,0.13 -0.06,0.03 -0.03,0.02 -0.03,0.01 -0.14,0.03 -0.05,0.01 -0.06,0.01 -0.38,0.08 -0.18,0.04 -0.11,-0.12 -0.13,-0.13 -0.01,-0.01 -0.08,-0.17 -0.14,-0.06 -0.17,-0.02 -0.23,-0.03 -0.13,-0.03 h -0.02 l -0.07,-0.03 -0.49,-0.21 v 0.01 l -0.01,0.02 -0.06,0.24 -0.02,0.11 -0.02,0.04 -0.07,0.29 -0.12,-0.01 -0.08,-0.02 -0.21,-0.03 h -0.08 -0.03 l 0.14,0.31 -0.01,0.02 -0.04,0.03 -0.22,0.14 -0.03,-0.01 -0.08,-0.04 -0.1,-0.04 -0.07,-0.01 -0.04,-0.02 -0.1,-0.01 0.01,0.03 0.01,0.05 v 0.09 l -0.01,0.09 v 0.09 l 0.01,0.14 v 0.04 0.07 0.09 l -0.01,0.07 -0.02,0.05 -0.07,0.09 -0.02,0.02 -0.04,0.05 -0.04,0.03 -0.01,0.01 0.12,0.08 -0.07,0.11 -0.08,0.1 -0.04,0.05 0.1,0.08 -0.09,0.1 -0.16,0.22 -0.11,0.13 -0.07,-0.04 -0.07,-0.03 -0.05,0.05 -0.06,0.05 -0.04,0.03 -0.06,0.02 h -0.01 l -0.08,0.02 -0.09,0.02 -0.05,0.02 -0.08,0.03 -0.08,0.02 -0.06,0.01 -0.06,0.04 -0.04,0.03 -0.09,0.07 -0.03,0.05 -0.02,0.03 -0.01,0.03 v 0.03 l -0.01,0.03 v 0.06 l -0.01,0.07 -0.02,0.11 -0.02,0.06 -0.07,0.12 -0.06,0.19 -0.01,0.02 -0.02,0.08 v 0.04 l -0.03,0.13 -0.05,0.18 v 0.03 l -0.16,0.5 -0.02,-0.02 -0.01,-0.02 v -0.01 l -0.01,-0.02 -0.02,-0.01 -0.03,-0.01 -0.03,-0.02 -0.03,-0.01 -0.03,-0.02 -0.03,-0.01 -0.02,-0.02 -0.03,-0.02 -0.03,-0.02 -0.03,-0.01 -0.02,-0.02 h -0.03 l -0.03,-0.01 h -0.03 l -0.03,-0.01 -0.03,-0.01 -0.03,-0.01 -0.03,-0.01 -0.03,-0.01 -0.03,-0.01 -0.03,-0.02 -0.04,-0.01 -0.03,-0.01 h -0.04 l -0.03,-0.02 -0.03,-0.01 -0.02,-0.01 -0.04,-0.01 -0.02,-0.01 -0.03,-0.01 h -0.03 l -0.02,-0.01 -0.04,-0.02 -0.06,-0.02 -0.03,-0.01 h -0.02 -0.03 -0.03 l -0.03,-0.01 -0.03,-0.02 -0.02,-0.02 -0.05,-0.03 -0.02,-0.02 -0.02,-0.01 -0.02,-0.02 -0.04,-0.03 -0.05,-0.03 -0.05,-0.03 -0.03,-0.01 h -0.04 l -0.05,-0.02 -0.03,-0.01 -0.03,-0.01 -0.02,-0.01 h -0.01 l -0.02,-0.01 -0.01,-0.01 -0.01,-0.02 v -0.01 l 0.39,-0.4 0.05,-0.05 0.38,-0.39 0.13,-0.13 0.06,-0.06 0.22,-0.21 0.14,-0.14 0.23,-0.23 0.31,-0.32 0.05,-0.04 0.01,-0.01 0.18,-0.48 0.02,-0.03 0.07,0.03 0.03,-0.05 0.09,-0.19 0.05,-0.09 h 0.02 l 0.03,-0.01 V 62.6 l -0.06,-0.13 -0.01,-0.03 -0.03,-0.05 -0.03,-0.02 -0.01,-0.02 -0.01,-0.02 -0.02,-0.02 v -0.02 l -0.01,-0.04 v -0.04 -0.03 -0.02 l -0.01,-0.02 v -0.03 -0.04 -0.02 l -0.01,-0.02 v -0.02 -0.02 -0.02 -0.03 l 0.01,-0.02 0.02,-0.04 0.01,-0.02 0.01,-0.02 0.02,-0.02 0.01,-0.02 0.01,-0.01 0.01,-0.02 0.01,-0.03 v -0.03 -0.03 -0.03 -0.04 -0.02 -0.02 l 0.01,-0.02 v -0.04 -0.02 -0.01 -0.03 -0.04 -0.03 -0.04 l -0.01,-0.02 -0.01,-0.01 -0.01,-0.02 -0.03,-0.04 -0.03,-0.06 -0.01,-0.04 -0.01,-0.04 -0.01,-0.07 v -0.06 -0.04 l 0.01,-0.05 v -0.04 -0.04 -0.05 l 0.01,-0.04 v -0.03 -0.04 -0.06 -0.03 -0.03 l 0.01,-0.02 0.01,-0.02 v -0.03 l 0.01,-0.07 0.01,-0.04 V 60.32 60.3 l -0.01,-0.01 -0.01,-0.01 -0.03,-0.04 -0.01,-0.02 -0.01,-0.02 -0.01,-0.04 V 60.12 60.04 60 l -0.01,-0.04 -0.01,-0.08 v -0.04 -0.01 l -0.01,-0.02 v -0.05 0 l 0.03,-0.01 0.03,-0.02 h 0.03 l 0.04,-0.02 h 0.01 l 0.02,-0.01 h 0.02 l -0.02,-0.03 -0.09,-0.13 -0.08,-0.11 -0.17,-0.22 -0.1,-0.12 0.17,-0.09 -0.09,-0.28 -0.01,-0.05 -0.01,-0.15 V 58.5 l -0.03,0.01 -0.05,-0.07 -0.12,-0.05 h -0.02 -0.02 l -0.03,0.01 H 662 l -0.03,0.01 h -0.03 l -0.03,0.01 -0.02,-0.01 h -0.01 l -0.02,-0.01 -0.02,-0.01 -0.02,-0.02 -0.01,-0.02 -0.03,-0.02 -0.03,-0.02 -0.04,-0.03 -0.07,-0.01 -0.14,-0.07 -0.1,-0.08 -0.06,-0.08 -0.04,-0.08 -0.03,-0.07 -0.05,-0.07 -0.13,-0.17 -0.11,-0.18 -0.05,-0.08 -0.03,-0.05 -0.04,-0.07 -0.12,-0.21 -0.2,-0.21 -0.01,-0.01 -0.03,-0.03 -0.05,-0.07 -0.16,-0.23 0.04,-0.03 -0.1,-0.06 -0.38,-0.26 0.01,-0.01 -0.01,-0.02 v -0.04 -0.02 l -0.01,-0.05 -0.01,-0.07 -0.01,-0.04 -0.01,-0.04 v -0.03 l -0.01,-0.02 0.01,-0.05 0.01,-0.02 V 55.73 55.7 l -0.02,-0.03 v -0.05 -0.04 -0.02 l -0.01,-0.03 0.01,-0.04 -0.01,-0.05 -0.01,-0.02 v -0.03 -0.02 l 0.01,-0.02 0.02,-0.05 -0.01,-0.03 V 55.24 55.2 55.14 l 0.03,-0.15 0.01,-0.06 0.01,-0.04 0.03,-0.04 0.01,-0.03 0.01,-0.03 0.03,-0.02 0.01,-0.02 0.01,-0.02 V 54.7 l 0.01,-0.06 0.01,-0.06 v -0.01 l 0.01,-0.01 0.01,-0.03 0.02,-0.01 0.03,-0.02 0.03,-0.04 0.02,-0.02 0.01,-0.02 0.02,-0.01 0.03,-0.03 0.04,-0.02 0.03,-0.02 0.02,-0.02 0.03,-0.07 -0.03,-0.01 -0.09,-0.07 -0.02,-0.04 V 54.1 54.08 l 0.04,-0.04 v -0.02 l -0.01,-0.01 h -0.01 l -0.01,-0.02 -0.02,-0.01 -0.03,-0.04 v -0.02 -0.03 l -0.02,-0.04 -0.01,-0.01 -0.02,-0.02 -0.03,-0.02 -0.01,-0.02 -0.02,-0.01 -0.03,-0.02 -0.03,-0.02 v -0.01 l -0.07,0.07 -0.03,0.06 -0.03,0.01 -0.05,-0.08 -0.04,-0.09 -0.03,-0.04 -0.01,0.01 -0.05,0.01 -0.06,0.03 -0.03,0.03 -0.01,0.01 -0.04,0.04 h -0.02 l -0.05,-0.03 -0.03,-0.02 -0.01,0.03 -0.02,0.03 0.01,0.07 -0.05,0.02 -0.03,-0.01 -0.03,-0.04 -0.02,-0.04 -0.04,-0.02 v -0.04 l -0.01,-0.05 0.03,-0.03 0.06,-0.03 -0.01,-0.02 v -0.02 l -0.01,-0.03 -0.01,-0.01 h -0.01 -0.02 -0.02 -0.01 l -0.03,0.01 -0.02,0.01 -0.02,0.01 h -0.02 l -0.02,-0.01 -0.02,-0.01 -0.01,-0.01 -0.01,-0.01 V 53.52 L 659,53.48 658.99,53.46 h -0.02 -0.02 -0.01 l -0.02,-0.02 -0.01,-0.01 h -0.02 l -0.01,0.01 -0.01,0.01 -0.01,0.02 -0.02,0.01 h -0.02 -0.02 l -0.04,-0.01 -0.05,-0.02 -0.05,-0.01 h -0.04 -0.04 -0.03 -0.03 l -0.02,0.01 -0.04,0.01 -0.03,0.01 -0.02,0.01 h -0.02 -0.02 l -0.01,-0.01 -0.01,-0.01 v -0.01 l -0.01,-0.02 0.01,-0.02 V 53.4 l 0.02,-0.01 0.01,-0.01 h 0.01 0.01 l 0.01,-0.01 0.01,-0.02 0.01,-0.02 0.01,-0.02 v -0.02 l -0.02,-0.02 -0.01,-0.02 -0.03,-0.02 -0.05,-0.04 -0.06,-0.05 -0.05,-0.04 -0.01,-0.01 -0.03,-0.02 -0.03,-0.01 -0.01,-0.01 -0.01,-0.01 -0.01,-0.01 -0.01,-0.01 h -0.01 l -0.02,-0.01 h -0.01 L 658.05,53 h -0.01 -0.02 -0.01 l -0.01,-0.01 -0.01,-0.02 -0.01,-0.01 -0.01,-0.02 -0.01,-0.02 -0.02,-0.02 -0.01,-0.01 -0.01,0.01 v 0 h -0.01 -0.01 -0.02 v -0.01 h -0.01 l -0.01,-0.02 v -0.01 l -0.01,-0.01 0.01,-0.06 v -0.04 -0.03 l -0.01,-0.01 -0.04,-0.01 -0.01,-0.06 0.05,-0.03 0.01,-0.01 0.03,-0.03 v -0.01 -0.03 l -0.03,-0.08 -0.01,-0.02 0.01,-0.01 0.04,-0.02 0.05,-0.02 h 0.02 0.03 0.01 0.02 0.02 0.02 0.02 0.02 0.03 0.02 l 0.02,-0.01 h 0.01 0.02 l 0.01,-0.01 V 52.35 52.33 52.32 52.31 52.3 l 0.03,-0.01 h 0.01 0.02 0.03 0.01 0.02 0.01 l 0.03,-0.02 v -0.01 l 0.01,-0.01 0.02,-0.01 0.01,-0.04 v -0.01 l 0.01,-0.02 0.01,-0.02 0.01,-0.01 0.03,-0.04 0.01,-0.01 0.01,-0.02 v -0.02 l 0.01,-0.02 V 52.02 52 l -0.01,-0.02 v -0.02 l -0.02,-0.02 -0.01,-0.01 h -0.04 -0.01 l -0.02,0.01 -0.02,0.01 h -0.02 l -0.02,0.01 -0.01,0.01 -0.01,0.01 -0.02,0.01 -0.01,0.01 h -0.02 l -0.02,-0.01 h -0.01 l -0.02,-0.02 v -0.01 l -0.01,-0.02 -0.01,-0.03 v -0.02 l -0.02,-0.02 -0.01,-0.01 -0.02,-0.02 -0.02,-0.01 -0.01,-0.01 -0.02,-0.01 -0.01,-0.02 -0.01,-0.01 -0.02,-0.02 -0.02,-0.02 -0.01,-0.02 -0.02,-0.02 -0.01,-0.01 -0.01,-0.02 -0.02,-0.02 -0.02,-0.02 h -0.01 -0.02 -0.01 l -0.01,0.01 -0.01,0.01 -0.01,0.02 v 0.02 l -0.01,0.03 -0.02,0.04 -0.01,0.03 -0.01,0.02 -0.02,0.03 -0.02,0.02 -0.01,0.01 h -0.02 l -0.02,-0.01 h -0.01 l -0.01,-0.01 -0.02,-0.01 -0.01,-0.02 h -0.01 l -0.03,-0.02 -0.02,-0.02 -0.01,-0.01 -0.02,-0.02 -0.01,-0.01 -0.01,-0.01 -0.01,-0.02 V 51.7 51.68 51.66 l 0.01,-0.02 0.01,-0.01 0.02,-0.03 0.01,-0.02 0.01,-0.02 0.01,-0.03 0.01,-0.02 0.01,-0.01 0.01,-0.03 -0.01,-0.02 v -0.02 -0.02 l -0.01,-0.02 -0.01,-0.02 v -0.02 l -0.01,-0.02 v -0.01 l -0.01,-0.01 -0.02,-0.01 -0.01,-0.02 -0.02,-0.02 -0.02,-0.02 -0.01,-0.01 -0.01,-0.02 -0.01,-0.01 -0.02,-0.01 -0.01,-0.02 -0.02,-0.02 -0.01,-0.01 -0.01,-0.02 -0.01,-0.01 -0.01,-0.01 -0.01,-0.01 h -0.01 l -0.02,0.02 -0.02,0.01 -0.01,0.01 -0.01,0.02 -0.02,0.01 h -0.01 -0.01 l -0.01,-0.01 h -0.01 -0.02 -0.01 -0.02 -0.01 l -0.02,-0.01 -0.01,-0.01 -0.01,-0.01 v -0.01 l -0.01,-0.01 -0.01,-0.02 v -0.02 l -0.02,-0.02 v -0.01 l -0.01,-0.02 -0.01,-0.03 v -0.03 -0.01 -0.02 l 0.01,-0.01 V 50.88 50.86 50.84 50.82 50.8 l -0.01,-0.03 -0.01,-0.04 V 50.72 L 657.11,50.7 V 50.68 50.66 50.64 50.62 50.6 l 0.01,-0.03 0.02,-0.04 0.01,-0.01 v -0.01 l 0.01,-0.02 v -0.04 -0.03 l -0.01,-0.01 v -0.02 l -0.01,-0.01 -0.01,-0.01 v -0.01 l -0.01,-0.03 h -0.01 l -0.02,-0.01 -0.02,-0.02 h -0.02 -0.02 l -0.02,-0.01 h -0.02 -0.01 l -0.04,-0.01 h -0.03 -0.02 l -0.04,0.02 -0.02,0.02 -0.02,0.01 -0.02,0.03 -0.01,0.01 -0.02,0.01 h -0.03 -0.02 -0.01 l -0.02,0.01 v 0.02 l -0.01,0.01 -0.04,0.01 -0.02,0.02 -0.02,0.02 -0.01,0.03 h -0.02 l -0.01,0.01 -0.02,0.01 -0.03,0.01 h -0.01 l -0.02,0.01 -0.03,0.01 -0.01,0.01 h -0.02 v -0.01 l -0.01,-0.01 v -0.02 l -0.01,-0.01 -0.02,-0.01 h -0.01 l -0.01,0.01 h -0.02 l -0.01,0.01 -0.01,0.01 -0.02,0.02 -0.01,0.01 -0.01,0.02 -0.02,0.01 -0.02,0.01 -0.02,0.01 -0.01,0.01 -0.02,0.02 -0.01,0.02 -0.01,0.02 v 0.01 l -0.01,0.01 h -0.01 l -0.01,-0.01 -0.01,-0.01 -0.01,-0.02 -0.02,-0.01 -0.01,-0.01 -0.01,-0.01 -0.01,-0.02 -0.03,-0.02 -0.01,-0.02 -0.03,-0.02 -0.01,-0.02 -0.02,-0.02 V 50.5 l -0.01,-0.03 -0.01,-0.02 -0.01,-0.03 v -0.01 l -0.01,-0.03 -0.03,-0.02 -0.02,-0.01 -0.02,-0.01 h -0.02 l -0.02,-0.01 h -0.02 -0.02 l -0.03,-0.01 h -0.04 l -0.02,-0.02 -0.02,-0.01 -0.03,-0.01 h -0.02 l -0.03,-0.01 -0.02,-0.01 -0.02,-0.01 h -0.01 l -0.06,-0.01 h -0.02 -0.02 l -0.03,-0.01 -0.02,-0.01 h -0.02 l -0.02,-0.01 -0.03,-0.03 -0.01,-0.01 -0.01,-0.01 -0.02,-0.01 -0.02,-0.01 -0.02,-0.01 h -0.02 -0.01 l -0.02,-0.01 -0.01,-0.01 -0.02,-0.02 v -0.02 l -0.01,-0.02 -0.01,-0.02 -0.04,-0.06 -0.02,-0.01 -0.01,-0.02 -0.01,-0.02 -0.01,-0.01 -0.01,-0.01 -0.01,-0.01 -0.02,-0.01 -0.01,-0.01 -0.02,-0.01 -0.01,-0.02 -0.01,-0.02 v -0.01 -0.02 l 0.01,-0.02 0.01,-0.01 0.02,-0.02 0.01,-0.02 0.02,-0.01 0.01,-0.02 0.01,-0.02 0.01,-0.02 v -0.03 l 0.01,-0.01 V 49.6 l 0.01,-0.01 h 0.01 0.02 l 0.02,-0.01 h 0.01 0.02 l 0.01,-0.01 h 0.02 0.01 0.02 0.01 l 0.02,-0.01 h 0.01 0.01 l 0.07,-0.01 v -0.01 l 0.01,-0.01 v -0.01 l 0.01,-0.02 v -0.01 l -0.01,-0.01 0.01,-0.03 -0.04,-0.08 -0.05,-0.15 0.02,-0.05 -0.01,-0.02 -0.01,-0.02 -0.01,-0.02 -0.01,-0.02 v -0.02 l -0.01,-0.02 -0.01,-0.03 -0.01,-0.02 -0.01,-0.01 -0.02,-0.01 -0.01,-0.01 -0.02,-0.01 -0.01,-0.01 h -0.01 l -0.01,-0.01 h -0.02 l -0.01,-0.01 h -0.03 -0.02 -0.01 -0.01 -0.03 -0.01 -0.04 -0.03 l -0.01,0.01 -0.04,0.01 -0.02,0.02 -0.03,0.02 -0.01,0.02 h -0.03 -0.02 -0.02 -0.01 L 654.7,49 h -0.02 -0.02 l -0.01,-0.02 -0.01,-0.02 v -0.04 l -0.01,-0.02 -0.01,-0.03 v -0.02 l -0.01,-0.02 v -0.02 -0.04 -0.02 -0.02 -0.01 l -0.01,-0.01 v -0.03 l -0.01,-0.01 v -0.02 -0.01 l -0.01,-0.04 -0.01,-0.02 -0.01,-0.02 -0.01,-0.01 -0.01,-0.01 h -0.02 -0.03 l -0.01,-0.01 h -0.01 l -0.02,-0.01 -0.03,0.01 h -0.02 -0.02 l -0.05,0.01 -0.04,0.01 h -0.04 l -0.01,0.01 h -0.02 l -0.02,-0.01 h -0.02 l -0.01,-0.01 -0.02,-0.01 -0.02,-0.02 v -0.02 l -0.01,-0.03 -0.01,-0.01 v -0.02 l -0.01,-0.02 -0.01,-0.02 -0.02,-0.01 -0.01,-0.03 -0.03,-0.06 -0.01,-0.02 -0.01,-0.02 -0.01,-0.02 -0.01,-0.01 -0.03,-0.03 -0.02,-0.01 -0.01,-0.02 -0.06,-0.01 -0.12,-0.04 -0.01,-0.01 V 48.07 48.02 48 47.97 47.94 47.92 l -0.01,-0.03 -0.01,-0.01 -0.01,-0.02 v -0.03 l -0.01,-0.02 v -0.02 -0.03 l 0.01,-0.03 v -0.02 l 0.02,-0.02 0.01,-0.02 v -0.02 l 0.01,-0.02 v -0.02 -0.02 -0.02 l 0.01,-0.03 v -0.02 l -0.01,-0.02 v -0.01 l 0.01,-0.02 0.01,-0.02 0.01,-0.02 0.02,-0.02 0.01,-0.02 0.01,-0.02 0.02,-0.02 0.02,-0.02 0.02,-0.01 0.03,-0.01 V 47.3 l 0.02,-0.01 0.01,-0.01 0.01,-0.02 -0.01,-0.02 -0.01,-0.02 -0.01,-0.02 v -0.02 -0.03 -0.02 l -0.01,-0.02 v -0.03 l 0.01,-0.02 v -0.02 -0.02 l 0.01,-0.02 0.01,-0.02 -0.01,-0.01 v -0.02 l -0.01,-0.02 0.01,-0.02 v -0.02 l 0.01,-0.02 0.01,-0.02 0.01,-0.02 0.01,-0.02 v -0.02 -0.02 -0.02 l -0.01,-0.02 v -0.02 l -0.01,-0.03 v -0.02 -0.02 -0.03 l 0.01,-0.01 v -0.02 -0.02 -0.02 l 0.02,-0.02 0.01,-0.01 0.01,-0.01 0.02,-0.01 0.02,-0.01 0.01,-0.01 h 0.02 l 0.02,-0.01 0.02,-0.01 0.02,-0.01 h 0.02 l 0.02,-0.01 0.02,-0.01 0.01,-0.02 0.01,-0.01 0.01,-0.02 0.01,-0.02 v -0.02 l 0.01,-0.02 v -0.02 l 0.01,-0.02 V 46.25 46.23 46.22 46.2 46.19 46.17 l -0.01,-0.02 -0.01,-0.01 v -0.02 l -0.01,-0.01 -0.01,-0.02 -0.02,-0.02 -0.02,-0.01 -0.01,0.01 -0.01,0.01 -0.01,0.02 -0.01,0.02 v 0.02 l -0.01,0.01 -0.02,0.01 -0.02,0.01 h -0.02 -0.01 l -0.02,-0.01 -0.02,-0.01 -0.01,-0.01 -0.02,-0.02 -0.01,-0.01 -0.01,-0.03 -0.02,-0.02 -0.01,-0.01 h -0.02 -0.02 l -0.01,0.01 -0.02,0.02 -0.01,0.01 -0.01,0.01 -0.02,0.01 h -0.01 -0.01 l -0.01,-0.01 v -0.01 l -0.01,-0.01 0.01,-0.02 0.01,-0.02 0.01,-0.02 0.01,-0.01 0.01,-0.02 0.01,-0.03 v -0.02 -0.02 l 0.01,-0.03 v -0.03 l 0.01,-0.03 0.01,-0.02 0.01,-0.03 v -0.03 -0.03 l 0.01,-0.03 v -0.03 -0.02 l -0.01,-0.01 v -0.01 l -0.01,-0.02 h -0.02 l -0.02,-0.01 h -0.02 l -0.01,0.01 h -0.02 l -0.03,0.01 h -0.02 l -0.02,0.01 h -0.02 -0.02 -0.01 -0.02 l -0.01,-0.01 -0.01,-0.01 -0.01,-0.02 V 45.56 L 653.6,45.55 V 45.54 45.52 45.5 45.48 l -0.01,-0.02 0.01,-0.02 v -0.01 -0.01 l 0.01,-0.03 v -0.02 l 0.01,-0.02 v -0.02 l 0.01,-0.02 v -0.02 l 0.01,-0.02 0.01,-0.02 0.01,-0.02 0.01,-0.01 0.01,-0.03 0.02,-0.02 0.02,-0.02 0.01,-0.02 0.02,-0.01 h 0.01 l 0.02,-0.01 0.01,-0.02 0.02,-0.01 0.02,-0.02 0.02,-0.02 0.02,-0.01 v -0.02 -0.02 l -0.01,-0.02 V 44.94 44.92 44.9 l -0.01,-0.01 -0.01,-0.02 v -0.03 l -0.01,-0.02 -0.01,-0.02 -0.01,-0.02 -0.02,-0.01 h -0.01 -0.02 l -0.01,0.01 -0.01,0.02 -0.01,0.02 v 0.01 0.02 0.01 l -0.01,0.02 -0.01,0.01 -0.02,0.02 -0.01,0.01 v 0.02 l -0.01,0.02 v 0.02 l -0.01,0.02 -0.01,0.02 -0.02,0.01 -0.01,-0.01 -0.02,-0.01 -0.01,-0.01 -0.01,-0.02 v -0.01 l -0.01,-0.02 v -0.02 -0.02 -0.02 -0.02 -0.02 l 0.01,-0.02 v -0.02 -0.02 l 0.01,-0.02 v -0.04 l 0.01,-0.02 v -0.02 l 0.01,-0.02 0.01,-0.04 v -0.05 l -0.01,-0.02 -0.01,-0.02 -0.03,-0.02 h -0.02 l -0.02,0.01 -0.01,0.01 -0.01,0.02 -0.01,0.02 -0.01,0.02 -0.01,0.01 -0.01,0.03 -0.01,0.02 v 0.03 l -0.02,0.02 -0.01,0.02 -0.01,0.03 -0.01,0.02 -0.01,0.01 -0.01,0.02 -0.01,0.02 -0.01,0.02 -0.01,0.02 -0.02,0.02 -0.01,0.01 -0.03,0.04 -0.01,0.01 -0.03,0.01 h -0.02 l -0.03,-0.01 -0.03,-0.01 h -0.03 l -0.03,-0.01 -0.06,-0.01 -0.04,-0.02 -0.03,-0.02 -0.07,-0.07 -0.04,-0.03 -0.01,-0.02 -0.02,-0.02 -0.01,-0.03 -0.01,-0.05 -0.01,-0.03 -0.01,-0.04 V 44.54 44.5 l 0.01,-0.04 v -0.05 l 0.01,-0.04 0.01,-0.04 V 44.3 l -0.01,-0.02 h -0.02 -0.02 l -0.02,0.02 -0.01,0.03 -0.01,0.02 v 0.01 l -0.01,0.02 -0.02,0.03 -0.01,0.01 h -0.02 l -0.02,-0.02 -0.01,-0.03 -0.01,-0.03 V 44.3 44.25 44.18 l -0.01,-0.04 v -0.05 -0.04 l -0.01,-0.03 -0.01,-0.03 -0.01,-0.02 -0.01,-0.01 -0.02,-0.02 h -0.02 l -0.02,-0.01 h -0.02 -0.03 -0.03 l -0.03,0.01 h -0.03 l -0.04,-0.01 -0.04,-0.01 -0.02,-0.01 -0.07,-0.04 -0.08,-0.02 -0.03,-0.02 -0.02,-0.01 -0.03,-0.02 -0.02,-0.01 -0.03,-0.02 -0.03,-0.02 -0.02,-0.01 -0.02,-0.02 -0.03,-0.01 -0.03,-0.01 -0.03,-0.01 -0.03,-0.01 -0.04,-0.01 -0.03,-0.01 -0.03,-0.02 -0.01,-0.01 -0.01,-0.01 -0.02,-0.02 -0.01,-0.02 -0.01,-0.03 0.01,-0.02 v -0.04 l 0.03,-0.02 0.01,-0.01 h 0.02 l 0.02,0.01 h 0.02 0.03 l 0.02,-0.01 0.01,-0.01 0.01,-0.03 0.07,0.02 0.76,0.12 0.19,0.03 0.28,0.05 0.4,0.06 0.09,0.02 0.25,0.04 0.5,0.08 0.06,0.01 0.46,0.07 0.23,0.04 0.09,0.02 0.39,0.06 h 0.02 l 0.09,0.02 0.11,0.01 0.09,0.02 0.19,0.03 0.38,0.06 0.19,0.03 0.26,0.04 0.01,0.01 0.05,0.01 0.19,0.03 h 0.02 l 0.09,0.01 0.08,0.02 0.09,0.01 0.08,0.01 0.13,0.03 0.06,0.01 0.22,0.03 0.07,0.01 0.15,0.02 0.26,0.03 0.15,0.02 0.26,0.04 0.51,-0.08 0.24,-0.05 h 0.03 l 0.3,-0.05 0.08,-0.01 0.29,-0.05 0.1,-0.01 0.32,-0.05 0.46,-0.08 0.07,-0.01 0.17,-0.04 0.34,-0.07 0.13,-0.03 0.72,-0.15 0.39,-0.08 0.07,-0.01 0.06,-0.02 0.05,-0.01 0.13,-0.04 0.19,-0.05 0.05,-0.01 0.34,-0.09 0.07,-0.02 0.05,-0.01 0.12,-0.03 0.23,-0.07 0.04,-0.01 h 0.03 l 0.12,-0.04 0.15,-0.04 0.03,-0.01 0.06,-0.02 0.05,-0.01 0.49,-0.17 0.15,-0.05 0.03,-0.01 0.08,-0.03 0.14,-0.04 0.29,-0.1 0.16,-0.05 0.02,-0.01 0.05,-0.01 0.04,-0.02 0.25,-0.07 0.08,-0.03 0.05,-0.01 0.18,-0.06 0.12,-0.03 0.07,-0.02 0.76,-0.22 0.06,-0.02 0.09,-0.03 h 0.02 l 0.31,-0.09 0.23,-0.06 0.08,-0.03 0.82,-0.25 0.05,-0.02 0.42,-0.13 0.25,-0.08 0.19,-0.06 h 0.03 l 0.18,-0.06 0.09,-0.03 v 0 l 0.2,-0.06 0.1,-0.03 h 0.01 l 0.2,-0.06 0.06,-0.02 0.28,-0.09 0.74,-0.26 0.03,-0.14 0.2,-0.19 0.01,-0.02 0.02,0.03 0.05,0.1 0.06,0.12 0.09,0.14 0.05,0.1 0.02,0.05 0.03,0.1 0.08,0.13 0.08,0.08 0.09,0.07 0.21,0.06 0.25,0.04 0.18,0.03 0.11,0.02 h 0.03 0.05 l 0.04,-0.01 0.05,-0.01 0.06,-0.05 0.07,-0.05 0.12,-0.13 0.13,-0.14 0.13,-0.17 0.12,-0.16 0.04,-0.07 0.06,-0.15 0.02,-0.08 v -0.09 l 0.01,-0.09 -0.01,-0.12 v -0.13 l 0.01,-0.12 -0.01,-0.1 0.01,-0.12 v -0.13 l 0.01,-0.08 0.02,-0.09 0.03,-0.07 0.04,-0.07 0.04,-0.09 0.05,-0.13 v -0.03 l 0.03,-0.08 0.01,-0.05 0.01,-0.06 v -0.06 -0.08 l -0.01,-0.06 -0.01,-0.08 -0.01,-0.12 -0.01,-0.08 0.01,-0.04 v -0.02 l 0.01,-0.02 0.03,-0.07 0.02,-0.05 0.04,-0.13 0.02,-0.05 0.05,-0.12 0.03,-0.06 0.06,-0.09 0.03,-0.04 0.03,-0.04 0.01,-0.03 0.04,-0.05 0.04,-0.04 0.04,-0.03 0.13,-0.04 0.01,-0.01 0.06,-0.02 0.03,-0.01 0.05,-0.02 0.03,-0.02 0.07,-0.05 0.12,-0.1 0.08,-0.07 0.07,-0.01 h 0.04 l 0.06,0.01 0.08,0.02 0.02,0.01 0.04,0.02 0.15,0.1 0.08,0.05 0.03,0.04 0.03,0.06 0.03,0.05 0.02,0.05 0.02,0.14 v 0.05 l 0.01,0.06 v 0.05 l 0.01,0.07 z"
       id="path46"
       inkscape:connector-curvature="0" />
  </g>
</svg>
