<?xml version="1.0" encoding="UTF-8" standalone="no"?>
<svg
   xmlns:dc="http://purl.org/dc/elements/1.1/"
   xmlns:cc="http://creativecommons.org/ns#"
   xmlns:rdf="http://www.w3.org/1999/02/22-rdf-syntax-ns#"
   xmlns:svg="http://www.w3.org/2000/svg"
   xmlns="http://www.w3.org/2000/svg"
   xmlns:sodipodi="http://sodipodi.sourceforge.net/DTD/sodipodi-0.dtd"
   xmlns:inkscape="http://www.inkscape.org/namespaces/inkscape"
   version="1.2"
   width="800"
   height="642"
   viewBox="0 0 800 642"
   stroke-linecap="round"
   stroke-linejoin="round"
   id="svg93"
   sodipodi:docname="Artzentales.svg"
   inkscape:version="0.92.5 (2060ec1f9f, 2020-04-08)">
  <metadata
     id="metadata99">
    <rdf:RDF>
      <cc:Work
         rdf:about="">
        <dc:format>image/svg+xml</dc:format>
        <dc:type
           rdf:resource="http://purl.org/dc/dcmitype/StillImage" />
      </cc:Work>
    </rdf:RDF>
  </metadata>
  <defs
     id="defs97" />
  <sodipodi:namedview
     pagecolor="#ffffff"
     bordercolor="#666666"
     borderopacity="1"
     objecttolerance="10"
     gridtolerance="10"
     guidetolerance="10"
     inkscape:pageopacity="0"
     inkscape:pageshadow="2"
     inkscape:window-width="1848"
     inkscape:window-height="1016"
     id="namedview95"
     showgrid="false"
     inkscape:zoom="0.73520249"
     inkscape:cx="400"
     inkscape:cy="321"
     inkscape:window-x="72"
     inkscape:window-y="27"
     inkscape:window-maximized="1"
     inkscape:current-layer="svg93" />
  <g
     id="Artzentales"
     transform="matrix(11.480117,0,0,11.480117,-504.19844,-1127.3462)">
    <path
       d="m 69.69,109 0.03,0.8 0.03,0.36 0.06,0.14 0.09,0.48 -0.05,0.76 -0.04,0.3 0.03,0.46 0.42,1.56 0.01,0.09 0.14,1.48 0.73,1.18 0.08,0.14 -0.24,0.56 -0.01,0.4 -0.13,0.39 0.35,0.75 0.25,0.32 0.11,0.23 -0.13,0.48 -0.05,0.36 0.25,0.51 0.26,0.22 0.03,0.1 0.19,0.74 0.13,0.27 0.31,0.66 -0.15,0.97 0.25,1.92 0.29,2.25 -0.01,1.03 -0.02,1.3 v 0.15 l 0.15,1.44 -0.01,1.2 -0.12,0.88 -0.14,0.5 -0.2,-0.11 -0.09,-0.04 -0.08,-0.01 -0.17,0.01 -0.18,0.01 -0.16,-0.01 -0.25,-0.05 -0.14,-0.05 -0.08,-0.01 -0.19,0.04 -0.13,0.05 -0.11,0.02 -0.2,0.04 -0.22,0.06 -0.17,0.03 -0.27,0.09 -0.08,0.02 h -0.07 -0.14 l -0.73,-0.06 -1.02,0.05 -1.91,0.47 -1.21,1.07 -0.07,0.16 -0.25,0.82 -0.2,0.39 -0.47,0.52 -0.23,0.18 -0.06,0.05 -0.07,0.03 -0.06,0.03 -0.06,0.02 -0.08,0.02 -0.08,0.01 -0.07,0.01 -0.06,-0.02 -0.07,-0.02 -0.08,-0.03 -0.07,-0.02 -0.2,-0.06 -0.11,-0.03 -0.03,-0.01 h -0.03 l -0.04,0.01 h -0.05 l -0.04,0.02 -0.05,0.01 h -0.04 l -0.05,0.01 -0.02,0.02 -0.22,0.17 -0.01,0.01 -0.23,0.18 -0.78,0.09 -0.14,0.09 -0.61,0.68 -0.4,0.31 -0.73,0.28 -0.47,-0.1 -0.76,-0.29 0.08,0.88 -0.21,0.85 -0.75,0.78 -0.35,1.13 -0.05,0.38 H 55.7 l -0.17,-0.03 -0.11,-0.01 -0.25,-0.1 -0.1,-0.04 -0.09,-0.05 -0.09,-0.01 -0.05,-0.07 -0.07,-0.04 -0.1,-0.08 -0.09,-0.04 -0.1,0.17 -0.05,0.08 -0.07,0.07 -0.11,0.1 -0.32,0.13 -0.15,0.08 -0.18,0.02 -0.25,0.05 h -0.17 l -0.5,0.06 -0.17,0.03 H 52.4 l -0.2,0.01 -0.11,0.02 -0.42,-0.05 -0.48,-0.1 -0.98,-0.06 -0.2,0.05 -1.9,-1.12 3.96,-2 1.11,-0.56 0.02,-0.04 0.03,-0.09 0.02,-0.09 0.01,-0.07 0.01,-0.05 v -0.07 l -0.03,-0.05 0.01,-0.04 0.01,-0.04 0.04,-0.06 0.06,-0.08 0.05,-0.04 0.09,-0.04 0.07,-0.07 0.02,-0.03 0.04,-0.13 v -0.05 l -0.09,-0.18 -0.1,-0.11 -0.07,-0.06 -0.11,-0.11 -0.04,-0.12 -0.05,-0.18 -0.03,-0.18 -0.21,-0.22 -0.05,-0.17 -0.15,-0.24 -0.06,-0.2 -0.03,-0.08 -0.05,-0.07 -0.04,-0.07 -0.01,-0.03 -0.02,-0.08 -0.04,-0.09 -0.03,-0.09 -0.14,-0.22 -0.02,-0.04 -0.01,-0.05 v -0.05 l 0.02,-0.04 0.04,-0.04 0.07,-0.05 0.06,-0.05 0.04,-0.06 0.03,-0.06 v -0.06 l -0.01,-0.08 -0.05,-0.07 -0.03,-0.06 -0.02,-0.04 -0.03,-0.09 -0.05,-0.06 -0.07,-0.06 -0.01,-0.02 -0.04,-0.1 -0.02,-0.09 -0.01,-0.06 -0.03,-0.09 -0.06,-0.19 -0.12,-0.24 -0.02,-0.09 -0.02,-0.14 -0.03,-0.11 v -0.11 l 0.03,-0.09 0.06,-0.17 0.06,-0.11 0.04,-0.05 0.08,-0.08 0.06,-0.06 0.07,-0.13 0.09,-0.17 0.05,-0.08 0.07,-0.06 0.16,-0.08 0.09,-0.06 0.08,-0.05 0.06,-0.08 0.04,-0.08 0.05,-0.07 0.06,-0.09 0.06,-0.05 0.09,-0.04 0.01,-0.06 0.1,-0.03 -0.02,-0.11 -0.03,-0.06 -0.06,-0.08 -0.07,-0.08 -0.08,-0.07 -0.2,-0.3 -0.03,-0.06 v -0.06 l 0.02,-0.31 0.01,-0.12 0.02,-0.04 0.06,-0.21 0.01,-0.05 -0.02,-0.03 -0.03,-0.04 -0.05,-0.02 -0.06,-0.02 h -0.07 l -0.05,-0.01 -0.05,-0.04 -0.02,-0.04 v -0.06 -0.09 l 0.02,-0.11 -0.01,-0.08 -0.01,-0.04 -0.09,-0.05 -0.11,-0.04 h -0.03 l -0.02,-0.01 -0.03,-0.08 -0.04,-0.21 v -0.03 l -0.01,-0.03 v -0.03 l -0.01,-0.04 -0.01,-0.03 -0.02,-0.03 -0.03,-0.04 -0.02,-0.02 -0.04,-0.04 v -0.01 -0.02 l 0.01,-0.03 0.02,-0.05 0.03,-0.06 0.04,-0.04 0.06,-0.04 0.03,-0.01 0.03,-0.02 0.02,-0.02 0.02,-0.05 0.01,-0.03 0.01,-0.07 v -0.04 l 0.01,-0.05 -0.01,-0.02 v -0.03 l -0.01,-0.03 -0.01,-0.03 v -0.02 l 0.01,-0.05 0.01,-0.03 0.05,-0.08 0.02,-0.02 0.01,-0.01 v -0.03 l 0.01,-0.02 -0.01,-0.02 v -0.02 l -0.01,-0.02 -0.01,-0.03 -0.02,-0.02 -0.01,-0.02 v -0.02 -0.01 l 0.04,-0.01 0.28,-0.36 0.19,-0.13 0.3,-0.27 0.28,-0.22 1.6,-1.06 0.3,-0.12 0.5,-0.5 0.69,-1.41 0.18,-0.41 0.7,-0.69 0.27,-1.54 0.09,-0.54 0.12,-2.12 0.35,-1.07 0.84,-1.35 0.16,-1.41 -0.39,-1.09 0.62,-0.54 1.67,-1.45 h 0.03 v 0 l 0.05,-0.02 0.02,-0.01 0.03,-0.02 0.02,-0.03 0.03,-0.04 0.02,-0.03 v -0.04 -0.03 l 0.01,-0.04 0.01,-0.04 0.03,-0.06 0.03,-0.04 0.03,-0.03 0.02,-0.03 0.02,-0.04 0.03,-0.03 0.02,-0.03 0.02,-0.04 0.02,-0.03 0.03,-0.03 0.03,-0.04 0.01,-0.02 0.02,-0.03 0.03,-0.02 0.04,-0.02 0.05,-0.01 h 0.03 0.05 l 0.03,-0.01 0.04,-0.01 h 0.04 l 0.04,0.01 0.03,0.01 0.04,0.01 0.03,0.01 0.05,0.02 h 0.04 0.04 l 0.04,0.01 0.03,-0.01 0.04,-0.01 0.02,-0.03 0.02,-0.03 0.04,-0.02 0.03,-0.01 0.04,0.01 0.04,0.01 0.04,0.01 0.04,0.01 h 0.03 l 0.04,0.01 0.04,0.01 h 0.04 l 0.03,0.01 h 0.05 0.04 l 0.03,0.01 h 0.04 l 0.04,-0.01 h 0.03 l 0.05,0.01 0.03,0.01 0.04,0.02 0.04,0.01 h 0.04 0.04 0.03 l 0.04,0.01 0.03,0.01 0.04,0.02 0.03,0.02 0.04,0.03 0.04,0.05 0.01,0.02 0.02,0.04 0.02,0.03 0.03,0.04 0.03,0.01 0.03,0.03 0.02,0.02 0.04,0.02 0.03,0.01 0.04,0.01 0.04,-0.02 0.03,-0.02 0.03,-0.02 0.03,-0.03 0.02,-0.01 0.01,-0.01 0.04,-0.01 h 0.04 l 0.03,-0.01 h 0.04 l 0.04,-0.01 h 0.03 0.04 l 0.04,0.01 h 0.03 0.04 l 0.04,-0.01 0.01,-0.02 0.01,-0.04 0.01,-0.03 0.01,-0.04 0.01,-0.03 0.01,-0.04 0.01,-0.04 0.01,-0.03 0.01,-0.04 v -0.04 l 0.01,-0.04 0.01,-0.03 0.02,-0.04 0.01,-0.03 0.01,-0.03 v -0.04 l -0.01,-0.04 -0.01,-0.04 v -0.03 l 0.01,-0.05 v -0.03 -0.04 l 0.01,-0.04 v -0.04 -0.04 -0.04 -0.03 l -0.01,-0.04 v -0.04 l -0.01,-0.04 v -0.04 -0.04 -0.03 -0.04 l 0.01,-0.04 0.01,-0.04 0.01,-0.04 0.01,-0.03 v -0.04 l 0.02,-0.03 0.02,-0.04 0.02,-0.03 0.02,-0.03 0.02,-0.04 0.01,-0.03 0.01,-0.04 0.01,-0.04 v -0.04 -0.04 -0.04 -0.04 l 0.01,-0.04 0.01,-0.04 0.01,-0.04 0.01,-0.04 0.02,-0.04 0.02,-0.04 0.01,-0.03 0.02,-0.03 0.01,-0.04 0.02,-0.03 0.01,-0.04 0.01,-0.06 v -0.04 l 0.01,-0.03 0.01,-0.04 0.01,-0.04 0.01,-0.03 v -0.04 -0.03 -0.04 -0.04 l -0.01,-0.04 v -0.03 l -0.01,-0.04 -0.02,-0.03 -0.02,-0.03 -0.02,-0.04 -0.02,-0.03 -0.02,-0.04 -0.02,-0.03 -0.03,-0.02 -0.03,-0.03 -0.03,-0.03 -0.03,-0.01 -0.04,-0.02 -0.01,-0.04 v -0.03 l -0.01,-0.04 -0.01,-0.03 -0.01,-0.04 -0.02,-0.04 -0.01,-0.03 -0.01,-0.03 -0.02,-0.04 -0.02,-0.04 -0.02,-0.03 -0.12,-0.2 0.36,-0.16 1.5,-0.54 0.68,0.2 0.29,-0.09 0.1,-0.03 h 0.16 l 1.57,1 z"
       id="path90"
       inkscape:connector-curvature="0" />
  </g>
</svg>
