<?xml version="1.0" encoding="UTF-8" standalone="no"?>
<svg
   xmlns:dc="http://purl.org/dc/elements/1.1/"
   xmlns:cc="http://creativecommons.org/ns#"
   xmlns:rdf="http://www.w3.org/1999/02/22-rdf-syntax-ns#"
   xmlns:svg="http://www.w3.org/2000/svg"
   xmlns="http://www.w3.org/2000/svg"
   xmlns:sodipodi="http://sodipodi.sourceforge.net/DTD/sodipodi-0.dtd"
   xmlns:inkscape="http://www.inkscape.org/namespaces/inkscape"
   version="1.2"
   width="800"
   height="642"
   viewBox="0 0 800 642"
   stroke-linecap="round"
   stroke-linejoin="round"
   id="svg148"
   sodipodi:docname="Asteasu.svg"
   inkscape:version="0.92.5 (2060ec1f9f, 2020-04-08)">
  <metadata
     id="metadata154">
    <rdf:RDF>
      <cc:Work
         rdf:about="">
        <dc:format>image/svg+xml</dc:format>
        <dc:type
           rdf:resource="http://purl.org/dc/dcmitype/StillImage" />
      </cc:Work>
    </rdf:RDF>
  </metadata>
  <defs
     id="defs152" />
  <sodipodi:namedview
     pagecolor="#ffffff"
     bordercolor="#666666"
     borderopacity="1"
     objecttolerance="10"
     gridtolerance="10"
     guidetolerance="10"
     inkscape:pageopacity="0"
     inkscape:pageshadow="2"
     inkscape:window-width="1848"
     inkscape:window-height="1016"
     id="namedview150"
     showgrid="false"
     inkscape:zoom="1.0397333"
     inkscape:cx="400"
     inkscape:cy="321"
     inkscape:window-x="72"
     inkscape:window-y="27"
     inkscape:window-maximized="1"
     inkscape:current-layer="svg148" />
  <g
     id="Asteasu"
     transform="matrix(20.244293,0,0,20.244293,-7333.7237,-2509.6379)">
    <path
       d="m 372.35,142.77 0.02,-0.03 -0.12,-0.15 -0.01,-0.01 -0.05,-0.09 -0.04,-0.13 -0.07,-0.14 -0.06,-0.16 -0.05,-0.07 -0.07,-0.1 -0.12,-0.19 -0.05,-0.07 -0.03,-0.06 -0.01,-0.06 -0.01,-0.15 v -0.06 l -0.14,-0.42 -0.05,-0.11 -0.1,-0.45 -0.05,-0.3 0.03,-0.09 0.35,-0.36 0.61,-0.71 0.15,-0.14 0.05,-0.12 0.05,-0.09 0.02,-0.07 0.02,-0.06 0.01,-0.06 -0.03,-0.05 -0.05,-0.09 -0.03,-0.08 -0.06,-0.1 -0.04,-0.08 -0.04,-0.08 -0.05,-0.08 -0.04,-0.06 -0.03,-0.07 -0.02,-0.07 v -0.08 l 0.01,-0.05 0.05,-0.06 0.04,-0.05 0.14,-0.12 0.03,-0.04 0.47,-0.48 0.25,-0.42 0.16,-0.05 0.17,-0.03 0.11,-0.04 h 0.03 0.03 l 0.07,-0.01 0.03,-0.01 0.05,-0.01 0.05,-0.02 0.06,-0.01 0.07,-0.02 0.08,-0.02 0.07,-0.02 0.06,-0.01 0.08,-0.02 0.07,-0.02 0.06,-0.02 0.07,-0.02 0.12,-0.03 0.05,-0.02 0.06,-0.01 0.08,-0.01 0.05,-0.01 0.04,-0.01 0.06,-0.03 0.04,-0.03 0.07,-0.03 0.06,-0.02 0.07,-0.02 0.06,-0.03 0.05,-0.02 0.05,-0.03 0.04,-0.01 0.02,-0.02 0.04,-0.02 0.01,-0.06 v -0.06 -0.04 -0.07 -0.04 -0.04 l 0.01,-0.06 0.01,-0.05 0.01,-0.05 0.02,-0.06 0.01,-0.04 0.04,-0.06 0.03,-0.04 0.03,-0.05 0.04,-0.04 0.04,-0.03 0.03,-0.03 0.03,-0.05 0.02,-0.03 0.03,-0.04 0.02,-0.05 0.03,-0.05 0.02,-0.05 0.02,-0.04 0.02,-0.06 0.03,-0.08 0.01,-0.07 0.01,-0.08 0.01,-0.07 v -0.07 l 0.02,-0.06 0.01,-0.05 0.02,-0.05 0.02,-0.04 0.02,-0.06 0.01,-0.04 v -0.05 l 0.01,-0.04 v -0.05 l 0.01,-0.04 0.02,-0.04 0.01,-0.03 0.02,-0.03 0.04,-0.03 0.01,-0.01 0.03,-0.02 0.03,-0.02 0.04,-0.03 0.04,-0.02 0.06,-0.03 0.04,-0.04 0.05,-0.04 0.02,-0.02 0.03,-0.02 0.05,-0.05 0.04,-0.03 0.04,-0.04 0.05,-0.03 0.03,-0.03 0.05,-0.03 0.04,-0.03 0.04,-0.03 0.04,-0.02 0.03,-0.03 0.03,-0.03 0.02,-0.04 v -0.03 l 0.01,-0.03 v -0.04 l 0.01,-0.06 v -0.07 -0.06 l -0.01,-0.07 -0.01,-0.06 -0.01,-0.07 v -0.07 l -0.01,-0.04 -0.01,-0.06 -0.01,-0.03 -0.02,-0.04 V 132 l 0.01,-0.06 0.02,-0.04 0.05,-0.03 0.04,-0.01 h 0.07 l 0.05,0.01 0.04,0.01 0.06,-0.01 0.07,-0.01 0.06,-0.01 0.08,-0.01 0.05,-0.02 0.04,-0.02 0.04,-0.03 0.03,-0.03 0.03,-0.05 0.02,-0.04 0.02,-0.02 0.02,-0.07 0.02,-0.05 0.01,-0.03 0.01,-0.03 0.01,-0.02 0.01,-0.03 0.01,-0.02 v -0.02 -0.02 l 0.01,-0.02 0.01,-0.03 v -0.02 l 0.15,-0.03 0.17,-0.03 0.18,-0.03 0.25,-0.05 0.17,-0.03 0.1,-0.04 0.15,-0.06 0.16,-0.06 0.1,-0.03 0.23,-0.09 0.28,-0.1 0.11,-0.09 0.09,-0.08 0.11,-0.09 0.13,-0.11 0.04,-0.04 0.11,-0.06 0.17,-0.08 0.16,-0.09 0.18,-0.1 0.22,-0.13 0.21,-0.11 0.2,-0.1 0.18,-0.1 0.15,0.06 0.21,-0.07 0.06,-0.01 0.25,-0.06 0.25,-0.06 0.19,-0.04 0.24,-0.06 0.21,-0.05 0.18,-0.04 v 0.02 l -0.01,0.05 -0.01,0.05 -0.01,0.03 -0.01,0.05 -0.01,0.06 v 0.04 0.04 l 0.01,0.05 0.01,0.04 0.03,0.06 0.02,0.04 0.01,0.05 0.03,0.06 0.03,0.07 0.01,0.03 0.04,0.04 0.03,0.03 0.03,0.02 0.04,0.03 0.03,0.01 0.04,0.03 0.05,0.02 0.04,0.02 0.05,0.02 0.05,0.02 0.04,0.02 h 0.04 l 0.04,0.01 0.03,0.02 0.09,0.05 0.02,0.01 0.04,0.02 0.04,0.03 0.04,0.05 0.03,0.04 0.03,0.03 0.03,0.03 0.03,0.03 0.03,0.01 0.02,0.02 0.04,0.03 0.02,0.01 0.02,0.02 0.03,0.02 0.03,0.01 0.02,0.01 0.01,0.01 0.1,0.05 0.04,0.02 0.03,0.02 0.02,0.02 0.03,0.02 0.03,0.02 0.02,0.01 0.02,0.02 0.02,0.01 0.03,0.03 0.02,0.02 0.03,0.01 0.01,0.01 0.02,0.03 0.01,0.03 0.01,0.03 0.01,0.03 v 0.03 0.02 l 0.05,0.04 0.06,0.06 0.07,0.06 0.07,0.06 0.06,0.05 0.06,0.07 0.06,0.05 0.05,0.06 0.07,0.07 0.05,0.07 0.05,0.06 0.05,0.07 0.06,0.08 0.05,0.08 0.05,0.07 0.04,0.07 0.05,0.07 0.12,0.17 0.02,0.06 0.04,0.07 0.04,0.07 0.04,0.08 0.04,0.07 0.04,0.08 0.03,0.07 0.04,0.08 0.04,0.08 0.04,0.08 0.04,0.08 0.04,0.09 0.04,0.07 0.04,0.09 0.04,0.07 0.04,0.08 0.03,0.08 0.04,0.08 0.03,0.09 0.03,0.07 0.03,0.08 0.03,0.09 0.03,0.07 0.02,0.09 0.03,0.08 0.04,0.1 0.02,0.07 0.03,0.09 0.03,0.08 0.03,0.08 0.04,0.08 0.03,0.09 0.03,0.07 0.03,0.08 0.03,0.07 0.04,0.1 0.05,0.09 0.01,0.01 0.03,0.06 0.03,0.05 0.01,0.02 0.04,0.05 0.03,0.03 0.03,0.03 0.02,0.02 0.02,0.02 0.02,0.05 0.02,0.01 0.01,0.02 0.02,0.02 0.03,0.02 0.04,0.02 0.03,0.01 0.03,0.01 0.03,0.02 0.03,0.02 0.03,0.02 0.02,0.03 0.04,0.04 0.05,0.04 0.03,0.03 0.03,0.03 0.03,0.03 0.03,0.02 0.07,0.05 0.02,0.02 0.02,0.02 0.02,0.03 0.01,0.02 0.02,0.03 0.02,0.03 0.01,0.04 v 0.02 l 0.01,0.04 0.01,0.02 0.02,0.02 0.03,0.01 0.02,0.02 0.04,0.01 0.03,0.01 0.04,0.02 0.03,0.01 0.03,0.02 0.04,0.02 0.03,0.02 0.02,0.02 0.01,0.01 0.01,0.01 0.01,0.03 v 0.02 l 0.01,0.02 v 0.03 0.06 0.04 0.04 0.05 0.03 0.03 0.03 l 0.01,0.02 v 0.02 0.01 0.02 l 0.01,0.03 v 0.02 l 0.01,0.03 v 0.03 l 0.01,0.02 0.01,0.02 v 0.02 l 0.01,0.03 v 0.02 l -0.01,0.04 -0.01,0.05 -0.01,0.02 -0.01,0.03 -0.02,0.03 -0.04,0.04 -0.02,0.03 -0.03,0.03 -0.02,0.02 -0.03,0.03 -0.03,0.03 -0.02,0.02 -0.03,0.03 -0.02,0.02 -0.03,0.02 -0.03,0.03 -0.03,0.03 -0.03,0.02 -0.03,0.04 -0.03,0.03 -0.02,0.03 -0.01,0.03 -0.01,0.03 v 0.02 l -0.01,0.02 -0.02,0.02 -0.01,0.01 -0.01,0.02 -0.01,0.03 -0.01,0.02 v 0.03 0.04 l -0.02,0.02 -0.01,0.02 -0.02,0.02 -0.02,0.02 -0.02,0.01 -0.03,0.01 -0.02,0.02 -0.02,0.02 -0.01,0.01 -0.02,0.02 -0.02,0.01 -0.02,0.01 -0.02,0.01 -0.02,0.01 -0.01,0.01 -0.01,0.01 -0.01,0.01 -0.01,0.02 v 0.02 0.02 l 0.01,0.02 H 388 l 0.01,0.02 0.02,0.01 h 0.02 l 0.01,0.01 0.02,0.01 0.01,0.02 v 0.03 l -0.02,0.02 v 0.04 l 0.01,0.02 0.01,0.02 0.01,0.02 0.01,0.01 0.01,0.02 v 0.01 l 0.01,0.02 0.01,0.02 0.01,0.02 0.01,0.03 0.01,0.02 0.01,0.01 0.01,0.02 0.02,0.02 v 0.01 l 0.01,0.02 0.01,0.01 0.02,0.02 0.01,0.02 0.01,0.02 0.01,0.02 0.02,0.03 0.01,0.01 0.02,0.03 0.02,0.02 0.01,0.02 0.01,0.03 0.02,0.03 0.01,0.02 0.01,0.02 0.02,0.03 0.02,0.03 0.02,0.02 0.01,0.03 v 0.01 l 0.01,0.02 v 0.02 l 0.01,0.02 0.01,0.02 0.02,0.02 0.01,0.02 0.02,0.03 0.01,0.02 0.01,0.01 0.01,0.02 0.01,0.02 v 0.02 l -0.01,0.02 v 0.04 l -0.01,0.02 v 0.03 0.02 0.03 l 0.01,0.03 0.01,0.03 0.02,0.02 0.02,0.02 0.02,0.02 0.02,0.02 0.01,0.02 0.02,0.02 0.02,0.03 0.02,0.02 0.02,0.03 0.01,0.03 0.01,0.02 0.01,0.02 0.01,0.03 0.02,0.02 0.03,0.01 0.01,0.01 h 0.03 l 0.02,0.02 0.02,0.02 h 0.02 l 0.02,0.02 0.02,0.03 0.01,0.01 0.01,0.03 v 0.03 0.03 l 0.01,0.03 0.01,0.03 v 0.03 0.01 l 0.01,0.03 0.01,0.03 0.01,0.03 v 0.03 l 0.01,0.03 0.03,0.02 0.98,1.33 0.49,1.28 0.83,0.68 0.01,-0.01 0.02,-0.01 0.03,-0.01 0.04,-0.01 0.03,-0.02 0.03,-0.03 0.03,-0.04 0.02,-0.02 0.03,-0.03 0.02,-0.02 0.02,-0.03 0.02,-0.02 0.02,-0.02 0.03,-0.01 0.03,-0.01 0.05,-0.02 0.07,-0.01 h 0.05 0.04 l 0.04,0.01 h 0.04 l 0.04,0.01 0.04,0.01 0.03,0.01 0.03,0.01 0.03,0.02 0.03,0.01 0.03,0.02 0.02,0.01 0.04,0.01 0.03,0.01 h 0.01 l 0.04,-0.01 h 0.03 l 0.04,-0.01 0.03,-0.01 h 0.04 l 0.05,-0.01 h 0.03 l 0.04,0.01 0.03,0.01 0.04,0.02 0.03,0.01 0.03,0.01 0.03,0.02 h 0.03 l 0.03,0.01 h 0.03 l 0.05,0.01 0.04,0.02 0.04,0.01 0.05,0.02 0.03,0.01 0.04,0.01 0.03,0.01 h 0.02 0.03 0.04 0.04 0.03 l 0.02,0.01 0.03,0.01 0.03,0.01 0.01,0.01 0.02,0.01 v 0.02 l -0.01,0.02 -0.01,0.03 -0.01,0.02 -0.02,0.02 -0.01,0.02 -0.01,0.01 -0.02,0.03 -0.01,0.02 -0.01,0.01 -0.01,0.02 -0.01,0.02 v 0.02 0.02 0.02 0.03 l 0.01,0.04 0.01,0.02 v 0.02 l 0.02,0.03 v 0.01 l 0.01,0.02 v 0.02 l 0.01,0.03 v 0.02 0.02 0.03 l 0.01,0.03 v 0.02 l -0.01,0.03 v 0.02 l 0.01,0.01 v 0.02 0.04 0.03 0.03 0.03 l -0.01,0.02 v 0.02 0.01 0.02 h -0.01 l -0.01,0.02 -0.02,0.01 h -0.01 l -0.02,0.02 -0.01,0.01 -0.02,0.03 v 0.01 0.03 0.02 0.01 l 0.01,0.03 v 0.01 0.01 0.01 0.02 0 0.01 0.04 0.05 0.01 l 0.02,0.02 0.15,0.11 -0.04,0.75 0.25,1.7 -0.03,0.07 -0.31,0.55 -0.43,-0.13 -0.82,0.09 -1,0.52 -0.55,0.14 -0.72,-0.15 0.01,-0.03 0.01,-0.04 0.02,-0.05 0.04,-0.09 0.02,-0.06 0.01,-0.04 0.01,-0.05 0.02,-0.05 0.04,-0.08 0.05,-0.09 v -0.04 l 0.03,-0.04 0.02,-0.05 0.05,-0.08 0.04,-0.07 0.01,-0.03 0.01,-0.07 0.02,-0.06 0.04,-0.08 0.03,-0.06 0.02,-0.08 0.02,-0.04 0.03,-0.06 0.04,-0.06 0.03,-0.05 0.05,-0.05 0.07,-0.05 0.06,-0.04 0.04,-0.03 0.1,-0.03 0.07,-0.04 0.06,-0.05 0.04,-0.05 0.01,-0.04 0.02,-0.05 0.02,-0.07 0.02,-0.06 0.01,-0.05 0.02,-0.07 0.01,-0.07 v -0.1 l -0.37,-0.07 -0.39,0.1 -0.02,-0.01 -0.04,-0.06 -0.03,-0.03 -0.05,-0.05 -0.03,-0.03 -0.03,-0.04 -0.03,-0.03 -0.03,-0.02 -0.04,-0.04 -0.03,-0.02 -0.03,-0.04 -0.04,-0.02 -0.03,-0.03 -0.04,-0.03 -0.03,-0.03 -0.04,-0.03 -0.02,-0.03 -0.04,-0.02 -0.02,-0.03 -0.04,-0.03 -0.05,-0.04 -0.08,-0.07 -0.08,-0.07 -0.04,-0.04 -0.09,-0.07 -0.06,-0.05 h -0.02 l -0.03,-0.01 -0.05,-0.01 -0.05,-0.01 -0.05,-0.01 -0.03,-0.01 -0.05,-0.01 -0.04,-0.02 -0.04,-0.01 -0.04,-0.03 -0.04,-0.03 -0.03,-0.03 -0.04,-0.03 -0.03,-0.02 -0.04,-0.03 -0.04,-0.03 -0.03,-0.02 -0.03,-0.03 -0.04,-0.03 -0.03,-0.02 -0.04,-0.02 -0.04,-0.04 -0.21,-0.27 -0.39,-0.37 -0.07,-0.05 -0.06,-0.06 -0.08,-0.05 -0.09,-0.07 -0.13,-0.07 -0.44,-0.29 -0.47,-0.26 -0.08,-0.04 -0.09,-0.03 -0.17,-0.06 -0.15,-0.06 -0.25,-0.1 -0.24,-0.1 -0.24,-0.1 -0.2,-0.08 -0.15,-0.03 -0.03,-0.01 -0.06,-0.01 -0.1,-0.02 -0.09,-0.02 -0.08,-0.03 -0.09,-0.02 -0.08,-0.03 -0.07,-0.03 -0.09,-0.02 -0.08,-0.03 -0.08,-0.03 -0.09,-0.03 -0.09,-0.03 -0.06,-0.03 -0.1,-0.03 -0.13,-0.04 -0.05,-0.04 -0.05,-0.04 -0.05,-0.05 -0.03,-0.03 -0.03,0.01 h -0.06 l -0.03,0.02 -0.49,0.46 -0.05,0.02 -0.07,0.02 -0.07,0.02 -0.09,0.03 -0.08,0.02 -0.08,0.02 -0.06,0.02 -0.05,0.02 -0.15,0.09 -0.07,0.03 -0.11,0.06 -0.06,0.03 -0.05,0.03 -0.08,0.05 -0.06,0.05 -0.07,0.03 -0.07,0.05 -0.06,0.03 -0.05,0.03 -0.06,0.04 -0.07,0.03 -0.07,0.04 -0.08,0.04 -0.14,0.08 -0.07,0.03 -0.04,-0.01 -0.05,-0.02 -0.06,-0.02 -0.07,-0.04 -0.04,-0.01 -0.06,-0.03 -0.06,-0.02 -0.05,-0.02 -0.05,-0.03 -0.08,-0.03 -0.06,-0.03 -0.06,-0.02 -0.05,-0.01 -0.08,-0.03 -0.08,-0.01 h -0.07 -0.09 l -0.1,-0.02 h -0.08 l -0.09,-0.02 -0.04,-0.01 -0.05,-0.01 h -0.05 l -0.04,-0.02 -0.04,-0.01 -0.05,-0.01 -0.04,-0.01 -0.05,-0.02 -0.05,-0.02 -0.05,-0.01 -0.05,-0.02 -0.04,-0.02 -0.06,-0.03 -0.05,-0.02 -0.04,-0.02 -0.07,-0.04 -0.06,-0.02 -0.05,-0.02 -0.06,-0.04 -0.05,-0.04 -0.05,-0.03 -0.06,-0.03 -0.05,-0.04 -0.08,-0.06 -0.09,-0.07 -0.47,0.13 -0.05,-0.06 -0.06,-0.08 -0.08,-0.08 -0.05,-0.05 -0.07,-0.05 -0.07,-0.05 -0.07,-0.04 -0.12,-0.05 -0.9,0.43 -0.08,0.04 -0.08,0.04 -0.07,0.03 -0.09,0.05 -0.08,0.03 -0.07,0.04 -0.07,0.04 -0.09,0.04 -0.08,0.04 -0.08,0.04 -0.08,0.04 -0.07,0.04 -0.07,0.04 -0.09,0.04 -0.08,0.04 -0.09,0.04 -0.16,0.08 -0.07,0.04 -0.08,0.04 -0.08,0.04 -0.08,0.04 -0.06,0.03 -0.06,0.06 -0.04,0.05 -0.04,0.05 -0.04,0.04 -0.03,0.03 -0.03,0.04 -0.04,0.06 -0.03,0.07 -0.03,0.09 -0.04,0.07 -0.03,0.07 -0.04,0.09 -0.04,0.08 -0.03,0.08 -0.05,0.08 -0.03,0.08 -0.04,0.09 -0.04,0.07 -0.03,0.08 -0.04,0.08 -0.02,0.04 -0.12,1 -0.03,0.02 -0.02,0.01 -0.03,0.03 -0.04,0.02 -0.05,0.03 -0.03,0.02 -0.03,0.03 -0.04,0.02 -1.02,0.51 -0.42,-0.79 -0.05,-0.1 -0.04,-0.06 -0.06,-0.08 -0.05,-0.08 -0.05,-0.07 -0.05,-0.07 -0.05,-0.07 -0.05,-0.06 -0.06,-0.08 -0.05,-0.07 -0.05,-0.07 -0.03,-0.04 -0.01,-0.02 0.19,-0.46 0.2,-0.52 0.2,-0.51 0.32,-0.82 v -0.02 z"
       id="path145"
       inkscape:connector-curvature="0" />
  </g>
</svg>
