<?xml version="1.0" encoding="UTF-8" standalone="no"?>
<svg
   xmlns:dc="http://purl.org/dc/elements/1.1/"
   xmlns:cc="http://creativecommons.org/ns#"
   xmlns:rdf="http://www.w3.org/1999/02/22-rdf-syntax-ns#"
   xmlns:svg="http://www.w3.org/2000/svg"
   xmlns="http://www.w3.org/2000/svg"
   xmlns:sodipodi="http://sodipodi.sourceforge.net/DTD/sodipodi-0.dtd"
   xmlns:inkscape="http://www.inkscape.org/namespaces/inkscape"
   version="1.2"
   width="800"
   height="642"
   viewBox="0 0 800 642"
   stroke-linecap="round"
   stroke-linejoin="round"
   id="svg170"
   sodipodi:docname="Atarrabia.svg"
   inkscape:version="0.92.5 (2060ec1f9f, 2020-04-08)">
  <metadata
     id="metadata176">
    <rdf:RDF>
      <cc:Work
         rdf:about="">
        <dc:format>image/svg+xml</dc:format>
        <dc:type
           rdf:resource="http://purl.org/dc/dcmitype/StillImage" />
      </cc:Work>
    </rdf:RDF>
  </metadata>
  <defs
     id="defs174" />
  <sodipodi:namedview
     pagecolor="#ffffff"
     bordercolor="#666666"
     borderopacity="1"
     objecttolerance="10"
     gridtolerance="10"
     guidetolerance="10"
     inkscape:pageopacity="0"
     inkscape:pageshadow="2"
     inkscape:window-width="1848"
     inkscape:window-height="1016"
     id="namedview172"
     showgrid="false"
     inkscape:zoom="1.0397333"
     inkscape:cx="400"
     inkscape:cy="321"
     inkscape:window-x="72"
     inkscape:window-y="27"
     inkscape:window-maximized="1"
     inkscape:current-layer="svg170" />
  <g
     id="Atarrabia"
     transform="matrix(66.928815,0,0,66.928815,-34979.774,-18594.929)">
    <path
       d="m 530.13,280.24 -0.01,0.19 v 0.13 l -0.01,0.07 0.04,0.05 0.04,0.03 0.08,0.1 0.01,0.01 0.02,0.03 h -0.06 -0.05 -0.13 v 0.02 0.11 l 0.01,0.05 v 0.04 l 0.03,0.17 0.01,0.12 0.08,0.46 0.02,0.06 0.05,0.09 0.04,0.11 h 0.01 l 0.02,0.05 0.02,0.05 -0.03,0.05 -0.02,0.05 -0.03,0.04 -0.02,0.05 -0.04,0.06 -0.01,0.01 -0.01,0.02 v 0.01 l -0.02,0.03 -0.01,0.01 v 0.01 l -0.04,0.04 -0.06,0.06 -0.23,0.21 v 0.02 0.01 0 l 0.01,0.03 0.01,0.01 0.01,0.01 0.02,0.01 0.02,0.02 0.03,0.02 h 0.01 v 0.01 0.01 l -0.01,0.02 -0.01,0.02 -0.01,0.01 -0.01,0.02 -0.02,0.02 -0.01,0.03 -0.01,0.02 -0.02,0.02 v 0.01 l -0.01,0.02 -0.01,0.03 -0.01,0.02 -0.02,0.03 v 0.01 l -0.01,0.03 -0.01,0.01 v 0.01 0.01 0.01 l -0.01,0.02 v 0.01 0.02 0.02 0.02 0.01 l -0.01,0.02 v 0.01 0.01 l -0.01,0.01 v 0.03 l -0.01,0.01 v 0.01 l -0.01,0.01 v 0.01 l -0.01,0.01 -0.02,0.03 -0.01,0.02 -0.02,0.01 -0.02,0.02 -0.02,0.01 -0.02,0.01 -0.01,0.02 h -0.01 l -0.01,0.02 -0.03,0.01 -0.02,0.02 -0.02,0.01 -0.01,0.01 h -0.02 l -0.03,0.01 h -0.01 l -0.02,0.01 h -0.01 l -0.01,0.01 -0.01,0.01 -0.02,0.02 -0.04,0.04 -0.05,0.04 -0.03,0.03 -0.03,0.02 -0.04,0.03 -0.03,0.02 -0.02,0.01 -0.02,0.02 h -0.01 l -0.01,0.01 h -0.01 l -0.02,0.02 h -0.01 l -0.01,0.01 -0.01,0.01 -0.01,0.01 H 529 l -0.01,0.02 -0.02,0.01 -0.01,0.01 -0.01,0.01 -0.01,0.01 -0.01,0.01 -0.01,0.02 -0.01,0.01 -0.01,0.01 -0.02,-0.02 -0.2,-0.17 -0.02,-0.01 -0.01,-0.01 -0.02,-0.01 -0.18,-0.1 -0.05,-0.02 -0.12,-0.07 -0.31,-0.17 -0.03,-0.02 h -0.02 l -0.01,-0.01 -0.11,-0.06 -0.03,-0.02 -0.01,-0.01 -0.04,-0.02 -0.08,-0.04 -0.1,-0.06 -0.01,-0.01 -0.02,-0.03 -0.02,-0.02 -0.5,-0.68 -0.05,-0.06 -0.01,-0.01 v -0.01 h -0.01 l -0.22,-0.3 -0.03,-0.05 -0.03,-0.05 -0.01,-0.02 -0.02,-0.09 -0.05,-0.27 v -0.02 l -0.01,-0.06 -0.03,-0.11 -0.04,-0.26 -0.01,-0.01 v -0.03 l -0.05,-0.24 -0.02,-0.08 v -0.03 -0.01 l -0.01,-0.17 -0.01,-0.14 -0.01,-0.11 -0.02,-0.14 v -0.06 l -0.01,-0.1 0.01,-0.15 0.01,-0.14 0.02,-0.14 0.02,-0.21 0.01,-0.04 0.01,-0.16 0.02,-0.13 0.09,0.04 0.24,0.08 0.13,0.02 0.32,0.07 0.14,0.02 0.02,0.01 0.08,0.03 0.22,0.06 0.45,0.15 0.53,0.17 0.16,0.05 0.02,0.01 0.03,0.01 0.03,0.01 h 0.02 l 0.03,0.01 0.03,0.01 h 0.01 l 0.01,0.01 h 0.02 l 0.03,0.01 h 0.01 l 0.03,0.01 0.01,0.01 h 0.01 0.01 l 0.01,0.01 h 0.03 l 0.02,0.01 0.1,0.04 0.12,0.05 0.13,0.06 0.08,0.03 0.03,0.02 0.07,0.03 0.03,0.02 0.02,0.01 0.05,0.02 h 0.01 l 0.04,0.02 0.02,0.01 0.06,-0.03 h 0.01 l 0.04,-0.02 0.08,-0.03 0.02,-0.01 z"
       id="path167"
       inkscape:connector-curvature="0" />
  </g>
</svg>
