<svg xmlns="http://www.w3.org/2000/svg" version="1.2" baseProfile="tiny" stroke-linecap="round" stroke-linejoin="round" viewBox="486.82 224.48 23.08 28.4"><g xmlns="http://www.w3.org/2000/svg" id="Atetz">
<path d="M 489.14 224.81 489.31 224.79 489.46 224.76 489.59 224.74 489.71 224.71 491.22 224.86 491.84 224.77 491.87 224.76 492.78 224.62 492.8 224.62 492.81 224.62 492.98 224.59 493.77 224.85 494.64 224.87 495.3 224.83 495.32 224.83 495.33 224.83 495.36 224.82 495.38 224.82 495.94 224.65 496.29 224.62 496.3 224.61 497.4 224.49 497.73 224.64 497.7 224.86 497.69 224.94 497.68 225.08 497.65 225.2 497.64 225.29 497.63 225.35 497.62 225.4 497.64 225.4 497.67 225.39 497.73 225.36 497.74 225.35 497.74 225.47 497.73 225.63 497.72 225.95 497.71 226.15 497.71 226.17 497.71 226.2 497.7 226.32 497.78 226.67 497.87 227.01 498.43 227.44 498.72 227.66 498.86 227.77 499.2 228.02 499.45 227.89 499.73 227.75 500.04 227.89 500.45 228.06 500.85 228.21 500.86 228.25 500.86 228.39 500.87 228.49 500.87 228.58 500.87 228.69 500.87 228.7 500.88 228.73 500.89 228.81 500.9 229.01 500.91 229.14 500.91 229.21 500.91 229.29 500.9 229.39 500.9 229.47 500.89 229.55 500.88 229.62 500.87 229.69 500.87 229.78 500.86 229.82 500.86 229.87 500.85 229.91 500.84 229.98 500.84 230.05 500.83 230.12 500.82 230.21 500.81 230.32 500.8 230.39 500.79 230.46 500.78 230.55 500.77 230.64 500.76 230.73 500.74 230.87 500.73 230.92 500.71 230.99 500.7 231.07 500.68 231.15 500.66 231.22 500.64 231.29 500.63 231.36 500.6 231.44 500.59 231.49 500.57 231.58 500.55 231.68 500.53 231.76 500.49 231.9 500.46 232.03 500.43 232.12 500.43 232.15 500.43 232.21 500.43 232.26 500.43 232.35 500.44 232.47 500.44 232.6 500.44 232.71 500.44 232.79 500.46 232.86 500.47 232.94 500.49 233.02 500.51 233.13 500.51 233.14 500.52 233.2 500.56 233.29 500.6 233.38 500.64 233.45 500.7 233.58 500.75 233.68 500.82 233.81 500.89 233.93 500.96 234.06 500.98 234.11 501.03 234.19 501.1 234.32 501.17 234.45 501.22 234.5 501.31 234.59 501.4 234.68 501.51 234.78 501.61 234.88 501.68 234.94 501.77 235.03 501.93 235.15 502.04 235.25 502.18 235.36 502.28 235.46 502.34 235.5 502.41 235.55 502.53 235.63 502.63 235.7 502.73 235.76 502.85 235.82 502.97 235.89 503.1 235.96 503.23 236.04 503.37 236.12 503.5 236.19 503.64 236.27 503.78 236.34 503.87 236.39 503.96 236.43 504.06 236.48 504.17 236.52 504.29 236.55 504.4 236.58 504.5 236.61 504.63 236.63 504.73 236.65 504.79 236.66 504.87 236.67 504.96 236.68 505.07 236.68 505.15 236.68 505.29 236.67 505.47 236.65 505.65 236.64 505.8 236.64 505.92 236.64 506.02 236.66 506.03 236.67 506.06 236.67 506.13 236.69 506.2 236.7 506.26 236.72 506.31 236.73 506.42 236.75 506.49 236.78 506.59 236.82 506.71 236.87 506.86 236.94 507.02 237.01 507.09 237.05 507.17 237.11 507.26 237.16 507.34 237.22 507.43 237.28 507.51 237.33 507.55 237.37 507.62 237.43 507.69 237.49 507.76 237.55 507.85 237.64 507.91 237.69 507.98 237.76 508.01 237.79 508.05 237.82 508.11 237.88 508.19 237.95 508.25 238.01 508.44 238.03 508.46 238.03 508.47 238.03 508.64 238.05 508.8 238.07 508.81 238.09 508.84 238.13 508.85 238.17 508.91 238.29 508.98 238.43 509.02 238.5 509.03 238.51 509.04 238.53 509.11 238.67 509.18 238.78 509.25 238.9 509.33 239.02 509.39 239.12 509.41 239.15 509.41 239.16 509.42 239.17 509.48 239.23 509.55 239.32 509.64 239.42 509.71 239.51 509.76 239.57 509.87 239.67 509.74 239.83 509.23 240.41 509 240.67 508.97 240.72 508.9 240.84 508.85 240.93 508.8 240.99 508.8 241.01 508.76 241.09 508.7 241.2 508.63 241.33 508.6 241.37 508.57 241.45 508.55 241.5 508.55 241.52 508.54 241.54 508.52 241.59 508.5 241.67 508.5 241.71 508.49 241.74 508.48 241.84 508.48 241.88 508.48 241.89 508.48 241.91 508.48 241.93 508.47 241.96 508.47 241.98 508.4 241.99 508.34 241.99 508.3 241.98 508.25 241.97 508.21 241.95 508.18 241.95 508.17 241.96 508.16 242.13 508.01 242.11 507.99 242.13 507.94 242.18 507.88 242.24 507.86 242.25 507.88 242.26 507.96 242.35 508.06 242.44 508.13 242.5 508.19 242.55 508.21 242.58 508.25 242.61 508.26 242.61 508.27 242.62 508.35 242.7 508.64 243.01 508.65 243.16 508.49 243.25 508.3 243.36 508.26 243.39 508.04 243.47 507.8 243.56 507.57 243.66 507.5 243.68 507.58 243.98 507.79 244.24 508.03 244.55 508.04 244.56 508.28 244.86 508.52 245.15 508.66 245.34 508.61 245.64 508.52 246.31 508.47 246.64 508.42 246.97 508.39 247.16 508.39 247.18 508.37 247.3 508.35 247.48 508.16 247.72 508.06 247.83 507.99 247.93 507.93 248 507.86 248.08 507.81 248.15 507.73 248.24 507.65 248.34 507.53 248.47 507.33 248.69 507.23 248.79 507.12 248.91 506.97 249.06 506.87 249.17 506.76 249.28 506.67 249.37 506.58 249.45 506.57 249.46 506.52 249.51 506.49 249.54 506.39 249.64 506.36 249.67 506.35 249.68 506.31 249.72 506.22 249.81 506.13 249.89 506.03 249.99 505.96 250.07 505.87 250.15 505.8 250.22 505.72 250.3 505.63 250.38 505.56 250.45 505.52 250.51 505.43 250.59 505.37 250.65 505.32 250.66 505.2 250.68 505.05 250.71 504.96 250.72 504.82 250.74 504.73 250.76 504.77 250.89 504.81 251.02 504.85 251.12 504.87 251.17 504.88 251.22 504.82 251.23 504.79 251.25 504.74 251.26 504.65 251.29 504.54 251.33 504.44 251.36 504.29 251.39 504.17 251.41 504.08 251.43 503.99 251.44 503.97 251.44 503.93 251.44 503.85 251.44 503.77 251.43 503.71 251.43 503.69 251.51 503.68 251.52 503.64 251.66 503.59 251.8 503.56 251.91 503.54 251.98 503.5 252.01 503.41 252.07 503.32 252.13 503.26 252.17 503.21 252.21 503.18 252.24 503.15 252.27 503.05 252.35 502.98 252.4 502.91 252.46 502.82 252.54 502.78 252.57 502.72 252.58 502.63 252.6 502.55 252.61 502.46 252.63 502.4 252.64 502.33 252.65 502.25 252.66 502.18 252.67 502.09 252.67 502.02 252.67 501.97 252.67 501.94 252.66 501.93 252.66 501.85 252.64 501.75 252.61 501.64 252.58 501.61 252.57 501.57 252.56 501.55 252.55 501.49 252.54 501.48 252.54 501.4 252.53 501.34 252.52 501.28 252.54 501.27 252.54 501.16 252.59 501.07 252.63 500.99 252.65 500.95 252.67 500.89 252.69 500.85 252.71 500.74 252.75 500.62 252.79 500.52 252.83 500.46 252.85 500.42 252.84 500.38 252.83 500.29 252.81 500.26 252.8 500.22 252.8 500.2 252.78 500.18 252.78 500.18 252.74 500.17 252.67 500.17 252.65 500.17 252.56 500.16 252.42 500.16 252.33 500.15 252.24 500.15 252.15 500.14 252.07 500.14 251.98 500.13 251.94 500.13 251.89 500.13 251.86 500.14 251.78 500.15 251.7 500.16 251.62 500.16 251.6 500.16 251.58 500.16 251.55 500.15 251.52 500.15 251.47 500.14 251.43 500.13 251.39 500.12 251.35 500.1 251.29 500.09 251.25 500.08 251.22 500.07 251.18 500.06 251.14 500.04 251.1 500.04 251.07 500.03 251.04 500.02 251.01 500 250.97 500 250.93 499.99 250.91 499.99 250.9 499.98 250.84 499.97 250.77 499.97 250.71 499.95 250.63 499.95 250.56 499.94 250.49 499.93 250.43 499.92 250.36 499.91 250.3 499.91 250.24 499.9 250.18 499.89 250.11 499.88 250.05 499.91 250.03 499.92 250.02 499.94 250 499.96 249.98 500.02 249.94 500.09 249.88 500.14 249.84 500.21 249.78 500.25 249.74 500.32 249.69 500.37 249.65 500.38 249.62 500.4 249.57 500.43 249.5 500.46 249.42 500.48 249.33 500.5 249.27 500.53 249.21 500.55 249.14 500.59 249.06 500.61 249.02 500.62 248.98 500.64 248.96 500.66 248.94 500.69 248.9 500.71 248.87 500.72 248.85 500.72 248.84 500.72 248.82 500.72 248.8 500.71 248.77 500.7 248.74 500.69 248.69 500.67 248.62 500.66 248.57 500.65 248.53 500.64 248.5 500.62 248.46 500.59 248.41 500.56 248.36 500.54 248.3 500.53 248.27 500.5 248.22 500.48 248.18 500.44 248.13 500.42 248.09 500.39 248.05 500.38 248.02 500.36 247.98 500.34 247.95 500.31 247.91 500.29 247.87 500.26 247.82 500.24 247.79 500.22 247.75 500.19 247.7 500.17 247.66 500.15 247.62 500.13 247.59 500.1 247.55 500.08 247.51 500.06 247.47 500.03 247.41 500 247.37 499.96 247.31 499.94 247.27 499.91 247.22 499.9 247.21 499.9 247.2 499.87 247.15 499.85 247.12 499.82 247.07 499.78 247.01 499.75 246.96 499.73 246.91 499.71 246.88 499.69 246.84 499.66 246.81 499.64 246.77 499.62 246.73 499.6 246.69 499.58 246.64 499.56 246.58 499.54 246.53 499.52 246.48 499.51 246.43 499.48 246.37 499.47 246.34 499.47 246.33 499.46 246.31 499.43 246.22 499.4 246.14 499.38 246.06 499.35 245.99 499.32 245.92 499.28 245.79 499.24 245.67 499.2 245.56 499.17 245.47 499.13 245.37 499.1 245.29 499.09 245.25 499.08 245.22 499.07 245.19 499.06 245.16 499.06 245.09 499.06 245.03 499.06 244.98 499.06 244.94 499.06 244.88 499.06 244.81 499.05 244.75 499.05 244.68 499.05 244.63 499.05 244.57 499.05 244.52 499.06 244.44 499.06 244.34 499.07 244.22 499.07 244.11 499.09 244.01 499.09 243.87 499.1 243.77 499.1 243.69 499.11 243.61 499.11 243.58 499.11 243.56 499.03 243.56 498.96 243.57 498.88 243.57 498.83 243.58 498.78 243.58 498.73 243.58 498.67 243.58 498.59 243.58 498.48 243.59 498.41 243.59 498.36 243.59 498.29 243.59 498.22 243.59 498.15 243.59 498.08 243.59 498.02 243.6 497.99 243.6 497.96 243.61 497.94 243.61 497.88 243.62 497.8 243.64 497.72 243.66 497.65 243.68 497.58 243.69 497.51 243.71 497.5 243.71 497.48 243.72 497.44 243.73 497.37 243.75 497.31 243.76 497.24 243.75 497.15 243.75 497.08 243.75 497.01 243.74 496.89 243.73 496.83 243.72 496.78 243.71 496.69 243.69 496.63 243.68 496.58 243.67 496.52 243.66 496.37 243.63 496.32 243.62 496.26 243.61 496.23 243.61 496.21 243.6 496.2 243.6 496.14 243.59 496.07 243.58 495.96 243.56 495.89 243.54 495.83 243.53 495.75 243.53 495.65 243.51 495.57 243.51 495.52 243.5 495.47 243.5 495.4 243.5 495.3 243.5 495.24 243.49 495.17 243.49 495.07 243.49 495 243.48 494.99 243.48 494.96 243.48 494.92 243.49 494.83 243.52 494.71 243.55 494.62 243.57 494.55 243.59 494.52 243.63 494.46 243.73 494.43 243.79 494.32 243.78 494.26 243.78 494.18 243.77 494.1 243.76 494.02 243.76 493.95 243.75 493.89 243.75 493.83 243.75 493.78 243.74 493.73 243.73 493.69 243.73 493.67 243.73 493.65 243.73 493.62 243.75 493.58 243.76 493.52 243.79 493.47 243.81 493.41 243.83 493.33 243.86 493.27 243.89 493.26 244.03 493.24 244.24 493.22 244.44 493.22 244.54 493.21 244.59 493.11 244.58 493.01 244.58 492.93 244.58 492.84 244.58 492.76 244.57 492.69 244.57 492.64 244.57 492.59 244.57 492.55 244.56 492.5 244.55 492.45 244.55 492.4 244.54 492.37 244.53 492.31 244.52 492.27 244.51 492.23 244.51 492.19 244.5 492.15 244.5 492.11 244.51 492.07 244.51 492.02 244.51 491.99 244.51 491.95 244.51 491.94 244.47 491.94 244.25 491.93 244.17 491.93 244.01 491.93 243.94 491.92 243.77 491.92 243.7 491.92 243.54 491.91 243.29 491.9 243.2 491.9 243.03 491.9 242.97 491.89 242.8 491.89 242.57 491.89 242.53 491.88 242.48 491.88 242.44 491.87 242.34 491.87 242.33 491.87 242.29 491.86 242.18 491.84 242.01 491.84 241.9 491.83 241.81 491.83 241.74 491.82 241.62 491.81 241.48 491.79 241.28 491.78 241.25 491.66 240.69 491.52 240.01 491.46 239.76 491.45 239.69 491.44 239.68 491.44 239.68 491.43 239.64 491.41 239.59 491.34 239.4 491.31 239.32 491.27 239.2 491.24 239.12 491.19 239 491.16 238.94 491.12 238.8 491.09 238.73 491.04 238.6 491 238.47 490.96 238.37 490.94 238.29 490.89 238.01 490.85 237.76 490.84 237.66 490.82 237.51 490.82 237.48 490.73 236.97 490.71 236.82 490.66 236.59 490.65 236.53 490.63 236.51 490.58 236.45 490.4 236.24 490.28 236.11 490.22 236.06 490.19 236.01 490.06 235.87 490.02 235.82 489.86 235.59 489.86 235.51 489.86 235.47 489.85 235.34 489.84 235.3 489.79 235.09 489.74 234.87 489.72 234.77 489.4 234.31 489.39 234.29 489 233.98 488.77 233.97 488.75 233.97 488.7 233.97 488.56 233.99 488.53 233.99 488.35 233.44 488.32 233.34 488.19 232.9 487.99 232.23 487.82 231.74 487.66 231.3 487.57 231.01 487.51 230.65 487.53 230.34 487.56 229.96 487.57 229.89 487.59 229.57 487.59 229.56 487.69 229.08 487.7 228.85 487.7 228.84 487.7 228.83 487.7 228.82 487.69 228.71 487.68 228.55 487.67 228.15 487.58 227.75 487.58 227.72 487.56 227.5 487.56 227.23 487.58 227.11 487.59 227.04 487.6 227.01 487.63 226.87 487.64 226.53 487.66 226.15 486.85 225.86 486.84 225.85 486.86 225.52 486.83 225.03 486.86 224.83 486.97 224.81 487.05 224.8 487.23 224.83 487.34 224.85 487.49 224.87 487.66 224.9 487.8 224.92 487.91 224.94 488.04 224.95 488.13 224.95 488.31 224.95 488.36 224.95 488.47 224.93 488.72 224.89 488.82 224.87 488.95 224.85 489.07 224.83 489.14 224.81 Z"/>
</g></svg>