<svg xmlns="http://www.w3.org/2000/svg" version="1.2" baseProfile="tiny" stroke-linecap="round" stroke-linejoin="round" viewBox="236.85 165.1 21.93 22.7"><g xmlns="http://www.w3.org/2000/svg" id="Atxondo">
<path d="M 258.78 185.11 258.03 185.49 257.68 185.52 257.24 185.65 256.35 185.92 255.54 186.41 254.95 186.23 254.49 186.2 254.39 186.23 253.1 186.68 251.95 186.64 251.75 186.68 251.6 186.71 251.42 186.75 251.24 186.8 250.47 186.79 249.81 186.69 249.49 186.63 248.99 186.63 248.69 186.84 247.93 187.33 247.63 187.7 245.75 187.77 243.71 187.33 242.53 186.99 242.51 186.98 242.49 186.98 242.47 186.98 242.45 186.97 242.43 186.97 242.41 186.97 242.39 186.97 242.37 186.96 242.36 186.96 242.34 186.96 242.32 186.96 242.3 186.95 242.28 186.95 242.26 186.95 242.24 186.95 242.22 186.95 242.2 186.95 242.18 186.95 242.16 186.95 242.14 186.95 242.12 186.95 242.11 186.95 242.09 186.95 242.07 186.95 242.05 186.95 242.03 186.95 242.01 186.95 241.99 186.95 241.97 186.95 241.96 186.95 241.94 186.95 241.93 186.95 241.91 186.96 241.9 186.96 241.88 186.96 241.87 186.96 241.85 186.96 241.84 186.95 241.83 186.95 241.81 186.95 241.8 186.95 241.78 186.95 241.77 186.95 241.75 186.94 241.74 186.94 241.73 186.94 241.71 186.93 241.7 186.93 241.68 186.93 241.67 186.92 241.66 186.92 241.64 186.91 241.63 186.91 241.62 186.9 241.6 186.89 241.59 186.89 241.58 186.88 241.56 186.88 241.31 186.61 241.12 186.55 240.74 186.43 239.03 186.26 236.86 186.08 236.89 186.05 236.91 186.02 236.91 186 236.92 185.98 236.94 185.96 236.95 185.93 236.97 185.89 236.97 185.87 236.98 185.84 236.98 185.79 236.99 185.76 237 185.73 237.02 185.7 237.03 185.68 237.05 185.66 237.07 185.64 237.12 185.61 237.16 185.6 237.19 185.59 237.22 185.59 237.24 185.58 237.28 185.57 237.3 185.57 237.33 185.56 237.37 185.55 237.42 185.53 237.44 185.52 237.45 185.5 237.46 185.49 237.47 185.45 237.48 185.42 237.49 185.39 237.49 185.36 237.5 185.32 237.51 185.28 237.51 185.25 237.52 185.22 237.53 185.18 237.55 185.16 237.57 185.13 237.59 185.11 237.61 185.09 237.63 185.07 237.65 185.05 237.69 185.03 237.73 185 237.76 185 237.79 184.99 237.82 184.98 237.87 184.97 237.9 184.97 237.95 184.95 237.99 184.93 238.02 184.92 238.06 184.9 238.08 184.88 238.1 184.85 238.12 184.83 238.14 184.81 238.16 184.8 238.2 184.77 238.25 184.74 238.28 184.7 238.29 184.68 238.29 184.66 238.3 184.63 238.32 184.54 238.32 184.49 238.34 184.47 238.35 184.45 238.37 184.42 238.38 184.39 238.39 184.37 238.41 184.34 238.42 184.31 238.43 184.28 238.43 184.27 238.46 184.21 238.5 184.16 238.57 184.09 238.59 184.07 238.61 184.05 238.63 184.03 238.65 184.02 238.67 184 238.69 183.98 238.71 183.96 238.73 183.93 238.76 183.92 238.78 183.9 238.81 183.87 238.84 183.86 238.86 183.84 238.88 183.82 238.9 183.8 238.93 183.79 238.95 183.77 238.97 183.75 238.99 183.72 239.01 183.68 239.03 183.64 239.04 183.62 239.08 183.57 239.57 183.15 239.36 182.18 239.33 182.1 239.12 181.23 238.99 180.88 238.71 180.49 238.64 180.41 238.46 180.19 238.29 180 238.17 179.86 238.09 179.78 238.06 179.73 238.02 179.68 237.99 179.64 237.93 179.53 237.83 179.32 237.71 179.01 237.65 178.95 237.61 178.91 237.59 178.88 237.55 178.84 237.52 178.77 237.52 178.76 237.5 178.74 237.47 178.73 237.45 178.71 237.43 178.69 237.41 178.66 237.37 178.59 237.32 178.53 237.48 178.48 237.89 178.34 238.34 178.2 238.78 178.04 239.33 177.79 239.24 177.44 239.1 176.92 239.1 176.9 238.86 175.86 238.91 175.77 239.06 175.48 239.18 175.19 239.38 174.81 239.55 174.47 239.61 174.39 239.92 174.06 240.18 173.8 240.5 173.46 240.71 173.23 240.93 172.99 241.21 172.66 241.43 172.38 242.24 172.01 242.31 171.97 242.39 171.92 242.41 171.9 242.45 171.84 242.69 171.55 242.91 171.26 243.12 170.99 243.43 170.62 243.43 170.6 243.44 170.6 243.44 170.59 244.01 169.88 244.03 169.88 244.26 169.8 244.42 169.91 244.53 169.98 244.56 169.99 244.63 169.93 244.67 169.91 244.69 169.88 244.71 169.86 244.73 169.84 244.74 169.82 244.76 169.79 244.78 169.77 244.8 169.74 244.82 169.72 244.85 169.7 244.86 169.69 244.87 169.66 244.88 169.65 244.9 169.61 244.91 169.59 244.92 169.58 244.96 169.54 244.99 169.53 245.01 169.51 245.03 169.49 245.05 169.47 245.09 169.45 245.12 169.43 245.14 169.42 245.16 169.4 245.18 169.37 245.18 169.31 244.86 168.38 244.83 168.28 244.82 168.23 244.83 168.22 244.86 168.14 244.87 168.11 244.88 168.09 244.9 168.07 244.92 168.04 244.94 168.02 244.97 168 244.98 167.98 245 167.96 245.04 167.93 245.16 167.76 245.17 167.76 245.19 167.72 245.21 167.7 245.23 167.68 245.24 167.66 245.31 167.58 245.36 167.52 245.38 167.5 245.46 167.41 245.49 167.4 245.5 167.38 245.53 167.37 245.55 167.35 245.57 167.33 245.58 167.3 245.59 167.27 245.29 166.57 245.35 166.28 245.05 166.05 245.29 165.81 245.37 165.73 245.38 165.73 245.39 165.72 245.4 165.71 245.41 165.71 245.42 165.7 245.42 165.69 245.43 165.69 245.44 165.68 245.45 165.68 245.46 165.67 245.47 165.66 245.47 165.66 245.48 165.65 245.49 165.65 245.5 165.64 245.51 165.63 245.52 165.63 245.53 165.62 245.54 165.62 245.55 165.61 245.56 165.61 245.57 165.6 245.58 165.6 245.59 165.6 245.6 165.59 245.61 165.59 245.62 165.58 245.62 165.58 245.63 165.57 245.64 165.57 245.65 165.57 245.66 165.56 245.67 165.56 245.68 165.56 245.7 165.56 245.71 165.55 245.72 165.55 245.73 165.55 245.73 165.55 245.74 165.54 245.75 165.54 245.77 165.54 245.78 165.54 245.86 165.53 246.06 165.5 248.58 165.1 249.08 165.65 252.22 166.74 252.19 168.33 252.19 168.51 252.4 169.03 252.68 169.54 252.69 169.95 252.68 170.54 252.68 170.56 252.67 170.57 252.67 170.58 252.66 170.77 252.65 171.25 252.63 171.48 252.63 171.79 252.64 172.09 252.64 172.23 252.62 172.38 252.6 172.55 252.57 172.67 252.53 172.78 252.46 172.9 252.42 173 252.39 173.07 252.29 173.25 252.22 173.36 252.14 173.47 252.08 173.54 252.06 173.58 252.05 173.63 252.05 173.71 252.06 173.78 252.09 173.87 252.1 173.94 252.13 174.03 252.16 174.1 252.19 174.17 252.21 174.27 252.24 174.43 252.25 174.51 252.27 174.64 252.28 174.69 252.3 174.75 252.32 174.82 252.32 174.85 252.34 174.91 252.34 174.95 252.35 175.05 252.36 175.12 252.38 175.19 252.41 175.26 252.47 175.35 252.51 175.38 252.56 175.42 252.6 175.45 252.66 175.53 252.79 175.66 252.85 175.72 252.93 175.78 253.01 175.84 253.06 175.9 253.11 175.95 253.23 176.06 253.29 176.12 253.34 176.19 253.37 176.32 253.39 176.43 253.42 176.74 253.43 176.82 253.45 176.91 253.47 176.97 253.49 177.04 253.57 177.2 253.62 177.27 253.75 177.4 253.82 177.46 253.9 177.52 253.99 177.6 254.08 177.69 254.16 177.75 254.19 177.77 254.24 177.81 254.3 177.86 254.33 177.89 254.35 177.9 254.47 178.01 254.52 178.04 254.89 178.25 255.03 178.35 255.19 178.43 255.37 178.59 255.41 178.64 255.46 178.69 255.47 178.72 255.6 178.81 256.69 178.88 257.3 179.31 257.2 180.44 257.44 180.82 257.41 181.09 257.42 181.21 256.83 180.98 257.13 181.52 256.63 181.59 256.38 181.92 257.32 182.46 257.3 182.51 257.27 182.56 257.13 182.71 257.05 182.75 256.97 182.8 256.91 182.83 256.8 182.84 256.79 182.84 256.74 182.86 256.69 182.89 256.64 182.94 256.59 183.03 256.48 183.09 256.38 183.11 256.31 183.13 256.21 183.19 256.31 183.26 256.34 183.29 256.38 183.33 256.6 183.64 256.62 183.71 256.64 183.76 256.74 183.9 256.87 184.03 256.92 184.07 256.97 184.15 257.03 184.19 257.13 184.22 257.23 184.28 257.43 184.36 257.61 184.42 257.66 184.46 257.76 184.49 257.81 184.5 258 184.56 258.11 184.59 258.36 184.59 258.56 184.81 258.78 185.11 Z"/>
</g></svg>