<svg xmlns="http://www.w3.org/2000/svg" version="1.2" baseProfile="tiny" stroke-linecap="round" stroke-linejoin="round" viewBox="593.97 203.53 21.82 31.55"><g xmlns="http://www.w3.org/2000/svg" id="Auritz">
<path d="M 600.29 204.12 600.35 204.14 600.41 204.15 600.43 204.16 600.44 204.16 600.46 204.17 600.53 204.19 600.54 204.2 600.68 204.24 600.82 204.29 600.98 204.34 601.15 204.39 601.24 204.42 601.33 204.44 601.35 204.44 601.42 204.46 601.56 204.48 601.63 204.5 601.72 204.51 601.75 204.52 601.85 204.54 601.93 204.55 602.04 204.58 602.13 204.6 602.26 204.62 602.32 204.64 602.36 204.65 602.39 204.65 602.42 204.66 602.48 204.67 602.57 204.7 602.72 204.75 602.86 204.78 603.02 204.83 603.15 204.86 603.19 204.88 603.23 204.89 603.24 204.89 603.28 204.9 603.36 204.9 603.46 204.89 603.53 204.89 603.54 204.89 603.6 204.89 603.67 204.89 603.73 204.88 603.74 204.88 603.81 204.88 603.91 204.88 603.99 204.87 603.99 204.93 603.98 205.04 603.98 205.11 603.98 205.14 603.98 205.32 603.98 205.48 603.98 205.59 603.97 205.61 603.93 205.65 603.92 205.66 603.87 205.71 603.83 205.75 603.79 205.8 603.74 205.86 603.69 205.9 603.65 205.95 603.61 205.99 603.54 206.07 603.48 206.13 603.43 206.19 603.38 206.24 603.31 206.32 603.26 206.37 603.22 206.43 603.17 206.5 603.12 206.59 603.07 206.66 603.03 206.73 602.97 206.84 602.92 206.91 602.91 206.93 602.88 207.08 602.83 207.25 602.78 207.41 602.72 207.62 602.66 207.82 602.72 207.98 602.72 208.09 602.71 208.23 602.71 208.35 602.7 208.48 602.7 208.63 602.7 208.75 602.69 208.88 602.69 209.01 602.69 209.14 602.68 209.25 602.68 209.41 602.67 209.53 602.68 209.57 602.7 209.62 602.73 209.68 602.75 209.73 602.76 209.76 602.78 209.84 602.8 209.92 602.82 210 602.83 210.02 602.87 210.09 602.91 210.16 602.94 210.22 602.97 210.28 602.99 210.31 603 210.33 603 210.38 602.99 210.42 602.98 210.49 602.98 210.57 602.97 210.64 602.96 210.69 602.96 210.74 602.95 210.79 602.95 210.84 602.94 210.87 602.94 210.9 602.95 210.91 602.97 210.93 603 210.95 603.05 210.97 603.09 210.98 603.12 211 603.15 211.02 603.19 211.05 603.23 211.07 603.25 211.09 603.28 211.13 603.3 211.16 603.32 211.17 603.34 211.2 603.35 211.21 603.36 211.24 603.39 211.26 603.42 211.29 603.46 211.32 603.49 211.34 603.53 211.37 603.57 211.4 603.6 211.41 603.65 211.43 603.67 211.44 603.7 211.46 603.72 211.48 603.75 211.5 603.78 211.52 603.81 211.56 603.83 211.59 603.84 211.61 603.86 211.63 603.86 211.65 603.86 211.67 603.87 211.7 603.88 211.72 603.91 211.75 603.93 211.79 603.94 211.81 603.95 211.83 603.96 211.86 603.97 211.9 603.98 211.93 603.99 211.96 604 212 604.01 212.03 604.01 212.07 603.99 212.12 603.97 212.15 603.95 212.18 603.94 212.21 603.92 212.23 603.91 212.25 603.91 212.27 603.91 212.29 603.91 212.32 603.92 212.34 603.93 212.36 603.96 212.4 604.01 212.45 604.06 212.51 604.11 212.56 604.14 212.59 604.2 212.62 604.25 212.64 604.32 212.66 604.37 212.67 604.42 212.68 604.45 212.69 604.52 212.71 604.55 212.72 604.58 212.74 604.6 212.75 604.61 212.77 604.62 212.8 604.63 212.83 604.64 212.87 604.65 212.91 604.65 212.94 604.65 212.98 604.65 213.02 604.65 213.04 604.66 213.07 604.69 213.09 604.72 213.11 604.75 213.12 604.78 213.14 604.79 213.18 604.8 213.21 604.79 213.24 604.79 213.28 604.77 213.31 604.76 213.33 604.74 213.35 604.71 213.36 604.69 213.36 604.68 213.37 604.67 213.38 604.66 213.4 604.66 213.43 604.67 213.46 604.69 213.5 604.7 213.53 604.7 213.57 604.7 213.61 604.72 213.63 604.75 213.66 604.77 213.68 604.76 213.71 604.74 213.74 604.71 213.78 604.67 213.81 604.63 213.83 604.6 213.84 604.57 213.86 604.54 213.87 604.51 213.88 604.49 213.9 604.47 213.93 604.46 213.95 604.45 213.99 604.44 214.01 604.42 214.04 604.41 214.07 604.39 214.09 604.38 214.12 604.38 214.15 604.39 214.18 604.42 214.21 604.43 214.23 604.46 214.24 604.5 214.25 604.55 214.25 604.57 214.26 604.59 214.28 604.59 214.3 604.59 214.32 604.59 214.35 604.59 214.38 604.6 214.4 604.62 214.42 604.64 214.42 604.67 214.42 604.7 214.42 604.72 214.42 604.73 214.43 604.79 214.45 604.88 214.5 604.94 214.54 604.99 214.57 605 214.57 605.03 214.59 605.11 214.64 605.2 214.69 605.35 214.77 605.37 214.79 605.39 214.8 605.45 214.83 605.48 214.85 605.61 214.93 605.8 215.02 605.89 215.06 605.91 215.07 605.98 215.11 606.03 215.14 606.16 215.22 606.25 215.27 606.29 215.29 606.31 215.31 606.33 215.32 606.38 215.36 606.47 215.42 606.56 215.48 606.66 215.57 606.69 215.59 606.71 215.61 606.73 215.62 606.8 215.69 606.9 215.78 607.01 215.87 607.07 215.93 607.1 215.96 607.11 215.97 607.18 216.03 607.2 216.04 607.29 216.13 607.33 216.16 607.34 216.17 607.37 216.2 607.44 216.27 607.45 216.28 607.46 216.29 607.55 216.37 607.6 216.4 607.7 216.46 607.71 216.47 607.83 216.54 607.92 216.61 607.94 216.62 607.95 216.63 608.08 216.71 608.13 216.6 608.19 216.48 608.21 216.46 608.25 216.38 608.27 216.35 608.3 216.3 608.33 216.26 608.37 216.2 608.39 216.18 608.45 216.11 608.51 216.05 608.57 215.99 608.63 215.94 608.66 215.91 608.74 215.84 608.8 215.8 608.84 215.76 608.85 215.74 608.89 215.7 608.95 215.64 608.97 215.62 609.02 215.58 609.06 215.55 609.11 215.53 609.16 215.51 609.17 215.51 609.26 215.48 609.31 215.47 609.35 215.45 609.39 215.44 609.46 215.46 609.51 215.47 609.54 215.47 609.56 215.48 609.57 215.48 609.65 215.49 609.7 215.5 609.78 215.52 609.88 215.53 610 215.55 610.08 215.56 610.13 215.57 610.14 215.57 610.25 215.59 610.27 215.59 610.32 215.6 610.41 215.62 610.5 215.63 610.58 215.65 610.67 215.67 610.79 215.71 610.8 215.71 610.86 215.73 610.92 215.75 610.97 215.76 611.04 215.78 611.09 215.8 611.1 215.81 611.15 215.82 611.24 215.79 611.25 215.79 611.29 215.78 611.39 215.75 611.58 215.71 611.8 215.65 612.03 215.61 612.23 215.58 612.33 215.56 612.36 215.55 612.41 215.54 612.67 215.45 612.68 215.45 613.01 215.36 613.04 215.35 613.07 215.34 613.2 215.3 613.22 215.3 613.34 215.26 613.62 215.18 613.93 215.09 614.03 215.06 614.18 215.06 614.35 215.04 614.48 214.96 614.53 214.93 614.62 214.91 614.68 214.89 614.79 214.86 614.92 214.84 614.97 214.83 615.05 214.84 615.17 214.85 615.29 214.86 615.43 214.88 615.52 214.9 615.62 214.93 615.71 214.96 615.77 214.97 615.76 215.01 615.76 215.03 615.74 215.08 615.7 215.25 615.68 215.31 615.65 215.4 615.62 215.47 615.6 215.56 615.59 215.67 615.57 215.78 615.55 215.88 615.54 215.95 615.54 216 615.47 216.1 615.43 216.18 615.37 216.27 615.32 216.35 615.26 216.44 615.2 216.53 615.14 216.63 615.08 216.73 615.01 216.83 614.94 216.94 614.83 217.12 614.74 217.15 614.66 217.18 614.6 217.29 614.52 217.43 614.46 217.53 614.4 217.64 614.34 217.74 614.29 217.85 614.24 217.94 614.23 217.96 614.21 217.98 614.21 218.11 614.21 218.27 614.2 218.42 614.19 218.51 614.18 218.58 614.17 218.64 614.16 218.7 614.15 218.74 614.23 218.87 614.31 218.99 614.41 219.13 614.5 219.25 614.61 219.4 614.69 219.52 614.73 219.58 614.71 219.66 614.71 219.67 614.7 219.68 614.69 219.71 614.68 219.78 614.65 219.87 614.63 219.94 614.61 220.02 614.59 220.1 614.58 220.16 614.58 220.2 614.58 220.25 614.59 220.3 614.6 220.36 614.61 220.42 614.61 220.47 614.62 220.54 614.63 220.6 614.64 220.68 614.65 220.76 614.66 220.84 614.67 220.89 614.67 220.93 614.67 220.97 614.66 221.01 614.65 221.06 614.63 221.11 614.62 221.15 614.59 221.21 614.58 221.26 614.52 221.31 614.48 221.34 614.44 221.37 614.4 221.4 614.37 221.43 614.33 221.46 614.29 221.5 614.24 221.55 614.2 221.57 614.17 221.61 614.14 221.64 614.1 221.67 614.06 221.72 614.03 221.76 614 221.79 613.96 221.83 613.93 221.88 613.89 221.92 613.85 221.96 613.8 221.99 613.75 222.03 613.71 222.07 613.66 222.1 613.62 222.12 613.58 222.16 613.55 222.17 613.54 222.23 613.52 222.28 613.51 222.33 613.49 222.37 613.48 222.41 613.42 222.43 613.36 222.45 613.29 222.47 613.21 222.5 613.13 222.53 613.06 222.55 613 222.58 612.91 222.61 612.84 222.63 612.76 222.66 612.69 222.69 612.62 222.71 612.6 222.75 612.57 222.8 612.54 222.85 612.5 222.91 612.48 222.97 612.46 223.02 612.46 223.04 612.45 223.18 612.44 223.23 612.44 223.37 612.42 223.6 612.41 223.87 612.4 224.09 612.4 224.1 612.39 224.1 612.39 224.19 612.39 224.22 612.39 224.24 612.38 224.3 612.38 224.31 612.38 224.32 612.37 224.38 612.36 224.49 612.36 224.5 612.33 224.61 612.3 224.75 612.27 224.86 612.26 224.91 612.24 225.02 612.21 225.12 612.19 225.17 612.18 225.19 612.17 225.2 612.1 225.31 612.1 225.32 612.03 225.45 611.98 225.54 611.95 225.58 611.9 225.67 611.81 225.84 611.66 225.88 611.55 225.91 611.4 225.84 611.33 225.82 611.26 225.86 611.18 225.9 611.13 225.93 611.07 225.96 610.93 226.05 610.86 226.09 610.84 226.1 610.82 226.11 610.73 226.17 610.71 226.18 610.7 226.16 610.69 226.14 610.67 226.12 610.66 226.09 610.64 226.07 610.62 226.04 610.59 226.01 610.56 225.98 610.56 225.96 610.55 225.88 610.56 225.7 610.56 225.63 610.61 225.52 610.62 225.44 610.61 225.37 610.59 225.33 610.53 225.27 610.47 225.22 610.44 225.16 610.43 225.1 610.41 225.14 610.4 225.13 610.39 225.12 610.37 225.14 610.34 225.17 610.3 225.22 610.24 225.28 610.18 225.32 610.14 225.36 610.08 225.41 609.96 225.5 609.79 225.64 609.71 225.71 609.66 225.75 609.56 225.82 609.47 225.89 609.42 225.94 609.38 225.96 609.33 225.99 609.27 226.01 609.21 226.06 609.16 226.1 609.12 226.14 609.08 226.19 609.04 226.24 608.99 226.31 608.95 226.39 608.9 226.47 608.87 226.54 608.85 226.6 608.83 226.67 608.81 226.7 608.77 226.74 608.71 226.79 608.68 226.82 608.66 226.86 608.65 226.89 608.64 226.94 608.64 227 608.64 227.03 608.62 227.09 608.6 227.14 608.58 227.16 608.56 227.19 608.52 227.24 608.49 227.27 608.48 227.29 608.46 227.32 608.42 227.36 608.39 227.4 608.36 227.44 608.33 227.47 608.26 227.55 608.22 227.59 608.18 227.62 608.13 227.65 608.1 227.67 607.98 227.73 607.93 227.77 607.91 227.78 607.92 227.78 607.89 227.8 607.9 227.84 607.93 227.91 607.97 228 608.02 228.12 608.05 228.21 608.08 228.29 608.1 228.34 608.12 228.38 608.13 228.43 608.14 228.47 608.16 228.54 608.17 228.59 608.18 228.63 608.19 228.7 608.2 228.78 608.21 228.85 608.21 228.87 608.22 228.94 608.23 229.07 608.23 229.22 608.23 229.37 608.23 229.45 608.23 229.61 608.23 229.76 608.23 229.78 608.23 229.8 608.24 229.89 608.24 229.93 608.24 230.04 608.24 230.11 608.23 230.15 608.22 230.19 608.2 230.23 608.17 230.28 608.12 230.36 608.08 230.42 608.05 230.48 608.01 230.56 607.97 230.64 607.94 230.69 607.91 230.75 607.88 230.81 607.83 230.92 607.82 230.96 607.81 231 607.78 231.05 607.76 231.09 607.74 231.13 607.71 231.16 607.68 231.19 607.67 231.21 607.66 231.24 607.66 231.27 607.64 231.28 607.63 231.31 607.62 231.36 607.61 231.42 607.6 231.46 607.59 231.5 607.56 231.61 607.52 231.75 607.48 231.91 607.45 232.02 607.42 232.13 607.38 232.28 607.38 232.29 607.34 232.39 607.27 232.55 607.21 232.68 607.14 232.82 607.06 232.95 606.97 233.09 606.88 233.24 606.79 233.38 606.68 233.57 606.61 233.71 606.52 233.9 606.46 234.04 606.4 234.18 606.33 234.33 606.27 234.46 606.23 234.54 606.19 234.66 606.15 234.76 606.11 234.91 606.06 235.06 606.03 235.04 605.9 234.92 605.87 234.88 605.82 234.83 605.77 234.77 605.73 234.73 605.67 234.65 605.6 234.58 605.54 234.51 605.48 234.43 605.41 234.35 605.34 234.27 605.27 234.2 605.24 234.17 605.19 234.12 605.16 234.1 605.13 234.07 605.11 234.06 605.09 234.04 605.05 234 605.02 233.96 604.98 233.92 604.94 233.87 604.91 233.84 604.89 233.82 604.86 233.8 604.81 233.74 604.76 233.69 604.68 233.6 604.58 233.48 604.51 233.41 604.37 233.26 604.24 233.11 604.11 232.98 603.99 232.85 603.9 232.74 603.81 232.65 603.73 232.55 603.63 232.44 603.58 232.38 603.55 232.35 603.51 232.31 603.46 232.25 603.43 232.22 603.41 232.19 603.39 232.16 603.37 232.12 603.31 232.01 603.26 231.93 603.22 231.85 603.13 231.69 603.03 231.5 603 231.44 602.91 231.31 602.9 231.28 602.87 231.25 602.85 231.22 602.76 231.12 602.7 231.04 602.66 231 602.52 230.91 602.38 230.82 602.34 230.79 602.32 230.77 602.31 230.76 602.3 230.75 602.28 230.73 602.27 230.7 602.24 230.64 602.23 230.61 602.18 230.49 602.12 230.36 602.11 230.33 602.06 230.3 602 230.26 601.91 230.21 601.82 230.15 601.7 230.07 601.58 229.99 601.49 229.94 601.47 229.93 601.46 229.92 601.43 229.89 601.39 229.85 601.35 229.8 601.29 229.74 601.23 229.67 601.21 229.65 601.19 229.61 601.14 229.56 601.11 229.51 601.05 229.45 601.01 229.41 600.96 229.36 600.92 229.32 600.9 229.3 600.8 229.22 600.67 229.07 600.49 228.8 600.11 228.27 600.14 228.2 600.18 228.16 600.24 228.09 600.31 228.03 600.39 227.96 600.4 227.92 600.41 227.91 600.44 227.91 600.47 227.91 600.49 227.9 600.53 227.88 600.55 227.86 600.58 227.82 600.61 227.76 600.62 227.72 600.63 227.67 600.63 227.63 600.63 227.58 600.63 227.52 600.62 227.46 600.62 227.39 600.61 227.33 600.6 227.27 600.6 227.22 600.59 227.17 600.59 227.12 600.59 227.05 600.59 226.98 600.59 226.91 600.6 226.87 600.61 226.82 600.62 226.77 600.64 226.72 600.67 226.66 600.71 226.59 600.75 226.53 600.79 226.5 600.82 226.47 600.89 226.42 600.97 226.36 601.05 226.31 601.12 226.27 601.2 226.23 601.27 226.2 601.28 226.19 601.26 226.15 601.26 226.11 601.27 226.09 601.3 226.07 601.35 226.06 601.39 226.05 601.43 226.06 601.48 226.07 601.55 226.1 601.62 226.13 601.66 226.16 601.72 226.21 601.77 226.24 601.78 226.23 601.79 226.21 601.8 226.18 601.8 226.13 601.82 226.09 601.84 226.06 601.85 226.05 601.89 226.04 601.96 226.02 601.99 226 602.04 225.99 602.09 225.97 602.13 225.95 602.24 225.93 602.35 225.92 602.4 225.92 602.43 225.92 602.51 225.92 602.58 225.92 602.62 225.92 602.71 225.92 602.81 225.93 602.91 225.94 603 225.96 603.11 225.99 603.11 225.99 603.21 226.02 603.29 226.04 603.38 226.04 603.46 226.05 603.53 226.07 603.6 226.08 603.65 226.1 603.71 226.11 603.73 226.11 603.76 226.06 603.8 225.99 603.84 225.93 603.87 225.86 603.89 225.82 603.91 225.79 603.95 225.75 604 225.71 604.03 225.66 604.06 225.62 604.09 225.58 604.13 225.51 604.17 225.45 604.21 225.38 604.23 225.33 604.24 225.31 604.25 225.29 604.25 225.28 604.27 225.24 604.29 225.18 604.3 225.15 604.33 225.08 604.36 225.01 604.4 224.95 604.42 224.92 604.47 224.85 604.5 224.81 604.53 224.77 604.57 224.73 604.6 224.7 604.65 224.67 604.65 224.65 604.64 224.59 604.64 224.52 604.64 224.42 604.65 224.36 604.65 224.3 604.66 224.2 604.67 224.12 604.69 224.05 604.71 223.96 604.73 223.91 604.75 223.84 604.77 223.77 604.79 223.7 604.81 223.64 604.83 223.57 604.86 223.5 604.88 223.46 604.9 223.43 604.92 223.41 604.93 223.37 604.97 223.27 605 223.18 605.03 223.12 605.06 223.06 605.07 223.01 605.08 222.95 605.12 222.83 605.13 222.78 605.14 222.73 605.15 222.69 605.17 222.62 605.2 222.51 605.23 222.42 605.26 222.31 605.27 222.29 605.28 222.28 605.28 222.27 605.3 222.24 605.32 222.2 605.35 222.08 605.38 221.97 605.35 221.97 605.31 221.95 605.26 221.93 605.22 221.9 605.2 221.87 605.18 221.86 605.15 221.85 605.1 221.84 605.07 221.84 605.03 221.83 605 221.82 604.92 221.79 604.86 221.76 604.82 221.73 604.79 221.68 604.77 221.65 604.74 221.61 604.68 221.59 604.62 221.58 604.57 221.57 604.44 221.53 604.33 221.49 604.27 221.47 604.24 221.46 604.2 221.44 604.18 221.43 604.16 221.43 604.16 221.43 604.13 221.42 604.01 221.41 603.83 221.39 603.65 221.37 603.64 221.37 603.55 221.36 603.52 221.36 603.48 221.35 603.46 221.35 603.4 221.34 603.2 221.32 603.01 221.3 602.89 221.29 602.89 221.29 602.83 221.28 602.81 221.28 602.82 221.26 602.83 221.24 602.84 221.21 602.84 221.19 602.83 221.17 602.82 221.15 602.8 221.14 602.77 221.13 602.74 221.12 602.69 221.1 602.66 221.09 602.62 221.07 602.59 221.05 602.57 221.04 602.54 221.01 602.52 220.99 602.49 220.97 602.45 220.94 602.42 220.92 602.37 220.91 602.34 220.91 602.3 220.91 602.26 220.9 602.23 220.9 602.19 220.89 602.16 220.87 602.14 220.86 602.11 220.83 602.08 220.81 602.05 220.78 602.03 220.76 602.01 220.74 601.99 220.7 601.98 220.67 601.96 220.62 601.94 220.59 601.93 220.55 601.91 220.5 601.91 220.48 601.91 220.45 601.91 220.42 601.91 220.37 601.92 220.32 601.92 220.28 601.91 220.22 601.91 220.17 601.88 220.11 601.87 220.08 601.85 220.05 601.83 220.02 601.8 220 601.77 219.97 601.74 219.96 601.72 219.95 601.69 219.94 601.66 219.95 601.63 219.96 601.61 219.97 601.58 219.97 601.57 219.96 601.55 219.93 601.52 219.91 601.49 219.91 601.46 219.92 601.44 219.92 601.42 219.92 601.42 219.9 601.41 219.88 601.4 219.85 601.4 219.82 601.38 219.81 601.35 219.79 601.31 219.78 601.27 219.76 601.22 219.74 601.17 219.73 601.11 219.71 601.05 219.7 601 219.68 600.97 219.67 600.95 219.65 600.93 219.63 600.92 219.6 600.92 219.58 600.9 219.56 600.88 219.55 600.85 219.55 600.81 219.55 600.76 219.55 600.72 219.54 600.7 219.54 600.68 219.53 600.65 219.52 600.62 219.51 600.59 219.49 600.55 219.47 600.48 219.43 600.44 219.39 600.41 219.36 600.39 219.33 600.34 219.3 600.31 219.27 600.28 219.25 600.25 219.22 600.23 219.2 600.21 219.21 600.19 219.17 600.18 219.13 600.16 219.07 600.15 219 600.13 218.96 600.12 218.91 600.1 218.88 600.08 218.83 600.07 218.77 600.06 218.71 600.05 218.66 600.04 218.62 600.03 218.58 600.02 218.56 600.01 218.52 600.01 218.46 600 218.43 600 218.4 599.99 218.37 599.97 218.35 599.96 218.33 599.96 218.31 599.97 218.3 599.98 218.27 600 218.24 600.01 218.2 600.02 218.18 600.02 218.15 600.01 218.14 599.99 218.14 599.97 218.15 599.95 218.16 599.93 218.15 599.91 218.14 599.89 218.11 599.88 218.08 599.86 218.05 599.83 218.02 599.82 218 599.81 217.97 599.8 217.94 599.8 217.9 599.8 217.88 599.79 217.86 599.78 217.84 599.76 217.82 599.74 217.8 599.72 217.77 599.71 217.74 599.71 217.71 599.69 217.69 599.67 217.66 599.65 217.64 599.62 217.6 599.6 217.58 599.59 217.55 599.58 217.53 599.57 217.5 599.56 217.45 599.54 217.43 599.53 217.4 599.51 217.38 599.49 217.34 599.48 217.31 599.48 217.27 599.48 217.23 599.49 217.22 599.49 217.15 599.49 217.08 599.5 216.99 599.51 216.93 599.51 216.81 599.51 216.7 599.52 216.59 599.52 216.54 599.52 216.5 599.52 216.49 599.53 216.43 599.55 216.31 599.57 216.23 599.58 216.13 599.59 216.02 599.62 215.87 599.64 215.73 599.67 215.56 599.68 215.39 599.71 215.21 599.73 215.04 599.74 215 599.75 214.92 599.76 214.85 599.79 214.7 599.81 214.61 599.86 214.43 599.9 214.29 599.93 214.15 599.96 214.04 599.99 213.97 600 213.88 600.02 213.79 600.04 213.68 600.07 213.55 600.11 213.41 600.16 213.25 600.19 213.11 600.23 212.96 600.24 212.91 600.25 212.88 600.25 212.83 600.26 212.81 600.26 212.76 600.22 212.72 600.16 212.68 600.09 212.62 600.01 212.56 599.92 212.49 599.86 212.43 599.77 212.35 599.7 212.29 599.64 212.23 599.57 212.18 599.53 212.14 599.46 212.09 599.41 212.05 599.38 212.03 599.35 212.01 599.32 211.99 599.29 211.98 599.24 211.95 599.19 211.92 599.11 211.89 599.03 211.86 598.96 211.84 598.86 211.8 598.79 211.77 598.75 211.75 598.69 211.73 598.66 211.72 598.63 211.71 598.58 211.72 598.45 211.74 598.31 211.76 598.15 211.79 598.04 211.82 597.88 211.84 597.77 211.87 597.72 211.88 597.69 211.88 597.68 211.87 597.64 211.85 597.57 211.81 597.49 211.75 597.44 211.72 597.36 211.66 597.3 211.62 597.25 211.58 597.14 211.51 597.04 211.44 596.97 211.4 596.88 211.46 596.68 211.59 596.51 211.7 596.44 211.69 596.35 211.67 596.23 211.65 596.11 211.63 596.04 211.62 596.03 211.61 596.02 211.61 595.84 211.58 595.65 211.54 595.49 211.5 595.37 211.47 595.34 211.45 595.18 211.33 595.01 211.19 594.83 211.06 594.73 211.05 594.58 211.05 594.38 211.06 594.38 210.75 594.39 210.47 594.39 210.18 594.34 210 594.28 209.78 594.2 209.52 594.13 209.27 594.04 208.94 593.97 208.72 594 208.57 594.04 208.32 594.25 208.24 594.58 208.12 594.86 208.01 595.11 208.03 595.41 208.05 595.66 208.06 595.82 208.07 595.95 208.05 596.11 208.02 596.28 208 596.37 207.66 596.44 207.41 596.64 207.45 596.82 207.49 597.01 207.53 597.55 207.16 597.86 206.95 597.93 206.77 597.96 206.7 598 206.6 598.05 206.46 598.09 206.37 598.17 206.17 598.27 205.95 598.29 205.9 598.37 205.72 598.42 205.58 598.42 205.44 598.43 205.32 598.43 205.23 598.44 205.05 598.44 205.04 598.45 204.95 598.45 204.89 598.46 204.64 598.47 204.45 598.48 204.26 598.49 204.09 598.5 203.92 598.5 203.78 598.51 203.68 598.52 203.54 598.76 203.62 598.92 203.67 599.12 203.74 599.51 203.86 599.8 203.96 599.88 203.99 600.07 204.05 600.17 204.08 600.22 204.1 600.25 204.1 600.26 204.11 600.29 204.12 Z"/>
</g></svg>