<svg xmlns="http://www.w3.org/2000/svg" version="1.2" baseProfile="tiny" stroke-linecap="round" stroke-linejoin="round" viewBox="441.32 474.85 24.67 34.97"><g xmlns="http://www.w3.org/2000/svg" id="Azagra">
<path d="M 441.75 479.78 441.69 479.63 441.66 479.51 441.63 479.42 441.62 479.4 441.59 479.28 441.59 479.26 441.57 479.23 441.56 479.23 441.54 479.2 441.46 479.1 441.44 479.07 441.35 478.97 441.33 478.94 441.32 478.93 441.32 478.91 441.32 478.9 441.32 478.85 441.33 478.78 441.33 478.77 441.34 478.74 441.36 478.7 441.38 478.67 441.42 478.62 441.45 478.59 441.5 478.54 441.6 478.45 441.62 478.43 441.66 478.4 441.72 478.33 441.69 478.29 441.66 478.26 441.65 478.15 441.63 477.95 441.74 477.87 441.83 477.79 441.8 477.69 441.76 477.58 441.75 477.56 441.77 477.55 441.77 477.54 441.84 477.43 441.85 477.41 441.86 477.4 441.86 477.39 441.88 477.37 441.93 477.3 441.97 477.36 442 477.42 442.09 477.58 442.14 477.65 442.18 477.72 442.19 477.76 442.21 477.79 442.25 477.88 442.27 477.91 442.38 478.17 442.46 478.24 442.5 478.28 442.52 478.29 442.6 478.36 442.65 478.41 442.74 478.48 442.82 478.54 442.92 478.61 442.94 478.63 443.08 478.74 443.37 478.96 443.39 478.98 443.5 479.04 443.57 479.08 443.79 479.2 443.75 479.26 443.63 479.41 443.62 479.43 443.6 479.45 443.59 479.63 443.58 479.65 443.57 479.74 443.57 479.81 443.55 479.97 443.55 480 443.55 480.04 443.57 480.1 443.58 480.15 443.61 480.14 443.67 480.12 443.74 480.11 443.8 480.1 443.88 480.09 443.95 480.09 444.03 480.08 444.05 480.07 444.08 480.07 444.1 480.06 444.11 480.05 444.13 480.04 444.15 480.03 444.17 480.03 444.19 480.03 444.21 480.03 444.22 480.03 444.23 480.04 444.25 480.04 444.38 479.99 444.59 479.9 444.6 479.9 444.61 479.89 444.63 479.89 444.65 479.88 444.66 479.88 444.71 479.86 444.76 479.83 444.79 479.82 444.8 479.81 444.9 479.76 445.04 479.69 445.12 479.63 445.16 479.61 445.19 479.58 445.24 479.55 445.29 479.5 445.3 479.5 445.38 479.43 445.61 479.24 445.75 479.17 445.76 479.16 445.77 479.16 445.95 479.07 446.15 478.96 446.22 478.93 446.42 478.82 446.74 478.66 447.03 478.35 447.12 478.29 447.14 478.27 447.16 478.26 447.21 478.23 447.22 478.22 447.41 478.09 447.52 478.01 447.77 477.84 448.03 477.66 448.04 477.65 448.07 477.63 448.28 477.49 448.37 477.41 448.5 477.33 448.74 477.23 448.87 477.18 448.94 477.15 448.98 477.14 449.16 477.05 449.18 477.04 449.29 476.98 449.48 476.88 449.64 476.8 449.69 476.77 449.78 476.72 449.96 476.62 450.53 476.3 450.54 476.28 450.55 476.26 450.57 476.25 450.88 476.09 451.12 475.97 451.16 475.95 451.23 475.91 451.34 475.85 451.37 475.83 451.39 475.82 451.43 475.79 451.44 475.78 451.49 475.75 451.51 475.74 451.52 475.73 451.54 475.72 451.61 475.68 451.64 475.67 451.68 475.65 451.72 475.63 451.74 475.61 451.77 475.6 451.78 475.58 451.8 475.56 451.82 475.55 451.83 475.54 451.85 475.52 451.88 475.49 451.92 475.46 451.95 475.43 452 475.39 452.05 475.36 452.06 475.35 452.08 475.33 452.12 475.31 452.15 475.29 452.21 475.24 452.27 475.18 452.29 475.15 452.31 475.13 452.35 475.09 452.4 475.04 452.49 474.95 452.56 474.87 452.58 474.86 452.59 474.87 452.6 474.88 452.62 474.9 452.63 474.91 452.65 474.92 452.66 474.93 452.69 474.96 452.7 474.97 452.71 474.99 452.72 475 452.73 475.01 452.74 475.02 452.75 475.03 452.76 475.04 452.77 475.06 452.8 475.08 452.83 475.12 452.84 475.14 452.85 475.15 452.87 475.17 452.9 475.21 452.94 475.25 452.99 475.3 453.02 475.34 453.12 475.44 453.13 475.46 453.17 475.5 453.18 475.51 453.19 475.52 453.2 475.54 453.21 475.55 453.22 475.56 453.24 475.57 453.25 475.58 453.26 475.59 453.28 475.6 453.32 475.63 453.33 475.65 453.35 475.66 453.36 475.67 453.4 475.7 453.44 475.73 453.47 475.76 453.56 475.84 453.59 475.86 453.61 475.88 453.64 475.91 453.65 475.91 453.66 475.92 453.67 475.94 453.71 475.97 453.72 475.98 453.74 476 453.75 476.01 453.76 476.02 453.78 476.03 453.79 476.04 453.8 476.05 453.82 476.06 453.83 476.07 453.85 476.08 453.88 476.1 453.91 476.12 453.92 476.13 453.96 476.16 453.98 476.17 454.02 476.2 454.03 476.21 454.05 476.22 454.06 476.23 454.07 476.24 454.09 476.25 454.1 476.26 454.12 476.27 454.13 476.28 454.37 476.53 454.52 476.68 454.52 476.69 454.53 476.7 454.54 476.72 454.55 476.73 454.57 476.74 454.58 476.75 454.59 476.77 454.6 476.78 454.62 476.79 454.63 476.8 454.65 476.82 454.66 476.83 454.67 476.84 454.68 476.85 454.7 476.86 454.71 476.87 454.72 476.88 454.74 476.89 454.75 476.9 454.77 476.91 454.78 476.92 454.79 476.93 454.81 476.94 454.83 476.95 454.84 476.96 454.88 476.97 454.89 476.98 454.91 476.99 454.92 477 454.95 477.01 454.97 477.02 454.98 477.03 455 477.04 455.01 477.05 455.03 477.06 455.04 477.07 455.05 477.08 455.07 477.09 455.08 477.11 455.09 477.12 455.1 477.13 455.11 477.14 455.12 477.16 455.13 477.17 455.3 477.4 455.3 477.41 455.31 477.43 455.32 477.44 455.33 477.46 455.34 477.47 455.35 477.48 455.36 477.49 455.37 477.51 455.39 477.52 455.41 477.55 455.46 477.61 455.47 477.62 455.48 477.63 455.49 477.65 455.51 477.66 455.52 477.67 455.53 477.68 455.55 477.7 455.56 477.71 455.58 477.72 455.59 477.73 455.61 477.74 455.62 477.75 455.63 477.76 455.65 477.77 455.66 477.78 455.67 477.78 455.69 477.79 455.7 477.8 455.75 477.82 455.76 477.83 455.77 477.83 455.78 477.84 455.8 477.85 455.81 477.86 455.83 477.87 455.84 477.88 455.86 477.89 455.87 477.9 455.88 477.91 455.9 477.92 455.91 477.93 455.92 477.94 455.94 477.95 455.95 477.97 455.96 477.98 455.98 477.99 455.99 478 456 478.01 456.02 478.03 456.03 478.04 456.04 478.05 456.05 478.06 456.07 478.08 456.08 478.09 456.09 478.1 456.1 478.12 456.11 478.13 456.12 478.14 456.13 478.16 456.14 478.17 456.15 478.19 456.16 478.2 456.17 478.22 456.18 478.23 456.18 478.24 456.19 478.26 456.2 478.27 456.21 478.29 456.21 478.3 456.24 478.35 456.24 478.37 456.25 478.38 456.26 478.4 456.26 478.41 456.27 478.42 456.28 478.44 456.29 478.45 456.3 478.47 456.32 478.5 456.35 478.56 456.37 478.58 456.38 478.61 456.49 478.79 456.51 478.82 456.53 478.85 456.57 478.91 456.58 478.94 456.59 478.95 456.6 478.97 456.61 478.98 456.62 479 456.63 479.01 456.64 479.03 456.64 479.04 456.65 479.05 456.66 479.06 456.67 479.08 456.68 479.09 456.7 479.12 456.73 479.16 456.74 479.18 456.75 479.19 456.76 479.21 456.78 479.23 456.78 479.24 456.79 479.26 456.82 479.3 456.83 479.31 456.84 479.33 456.85 479.34 456.86 479.36 456.87 479.37 456.88 479.38 456.89 479.4 456.9 479.41 456.91 479.42 456.92 479.44 456.93 479.45 456.95 479.46 456.96 479.48 456.97 479.49 456.98 479.5 457 479.52 457.01 479.53 457.03 479.55 457.04 479.56 457.05 479.57 457.06 479.58 457.09 479.6 457.14 479.65 457.16 479.67 457.24 479.74 457.27 479.77 457.28 479.78 457.29 479.79 457.31 479.8 457.32 479.81 457.33 479.82 457.35 479.83 457.37 479.85 457.38 479.86 457.4 479.87 457.41 479.88 457.43 479.89 457.44 479.9 457.45 479.91 457.47 479.92 457.48 479.93 457.5 479.95 457.51 479.95 457.53 479.96 457.54 479.97 457.76 480.14 457.86 480.22 457.87 480.23 457.88 480.23 457.89 480.25 457.91 480.25 457.92 480.26 457.93 480.27 457.95 480.28 457.96 480.29 457.98 480.3 458 480.31 458.01 480.32 458.03 480.32 458.05 480.33 458.07 480.34 458.08 480.35 458.1 480.35 458.12 480.36 458.13 480.36 458.15 480.37 458.17 480.38 458.19 480.39 458.2 480.4 458.22 480.4 458.26 480.43 458.28 480.44 458.29 480.45 458.31 480.45 458.32 480.46 458.33 480.47 458.35 480.48 458.36 480.49 458.41 480.52 458.42 480.53 458.43 480.54 458.45 480.55 458.46 480.56 458.49 480.58 458.52 480.6 458.58 480.64 458.64 480.67 458.65 480.68 458.67 480.69 458.68 480.7 458.7 480.71 458.73 480.74 458.76 480.75 458.79 480.78 458.82 480.8 458.85 480.82 458.87 480.84 458.9 480.86 458.96 480.9 458.96 480.91 458.98 480.92 458.99 480.94 459.03 480.97 459.05 480.99 459.1 481.04 459.11 481.06 459.12 481.07 459.13 481.08 459.15 481.09 459.16 481.1 459.17 481.12 459.2 481.14 459.24 481.18 459.27 481.21 459.29 481.23 459.33 481.26 459.35 481.28 459.37 481.3 459.38 481.31 459.4 481.32 459.44 481.35 459.45 481.36 459.47 481.37 459.49 481.39 459.51 481.41 459.53 481.43 459.54 481.44 459.55 481.45 459.56 481.46 459.58 481.47 459.59 481.49 459.6 481.5 459.61 481.52 459.62 481.53 459.63 481.54 459.64 481.56 459.68 481.6 459.7 481.63 459.75 481.7 459.76 481.72 459.78 481.74 459.8 481.77 459.82 481.79 459.84 481.82 459.86 481.83 459.92 481.9 459.93 481.91 459.94 481.92 459.98 481.96 460.03 482.04 460.08 482.1 460.16 482.2 460.18 482.23 460.21 482.27 460.25 482.32 460.29 482.37 460.3 482.38 460.36 482.43 460.42 482.48 460.44 482.49 460.45 482.51 460.45 482.53 460.45 482.55 460.45 482.58 460.44 482.67 460.39 482.91 460.36 483.06 460.36 483.08 460.33 483.21 460.31 483.33 460.28 483.45 460.28 483.47 460.27 483.52 460.26 483.6 460.26 483.68 460.26 483.71 460.26 483.74 460.28 483.79 460.3 483.89 460.32 483.94 460.32 483.95 460.34 484.04 460.36 484.17 460.37 484.19 460.38 484.23 460.39 484.24 460.39 484.26 460.42 484.32 460.47 484.48 460.5 484.58 460.51 484.6 460.54 484.65 460.55 484.68 460.57 484.72 460.59 484.76 460.64 484.81 460.66 484.84 460.9 485.08 460.93 485.13 461.06 485.32 461.16 485.45 461.18 485.5 461.19 485.52 461.19 485.53 461.26 485.63 461.39 485.85 461.42 485.9 461.43 485.92 461.55 486.09 461.58 486.12 461.59 486.14 461.61 486.17 461.64 486.21 461.67 486.23 461.69 486.25 461.71 486.29 461.89 486.59 461.94 486.67 461.96 486.71 461.99 486.76 462.02 486.81 462.06 486.94 462.09 487.11 462.1 487.18 462.1 487.18 462.1 487.22 462.13 487.31 462.17 487.44 462.2 487.54 462.22 487.62 462.27 487.8 462.29 487.91 462.3 487.94 462.34 488.09 462.39 488.24 462.4 488.25 462.43 488.32 462.49 488.47 462.51 488.53 462.55 488.7 462.56 488.71 462.57 488.76 462.58 488.78 462.59 488.82 462.6 488.84 462.64 488.93 462.76 489.16 462.78 489.21 462.83 489.31 462.95 489.53 463.01 489.66 463.02 489.67 463.02 489.67 463.02 489.69 463.02 489.7 463.04 489.77 463.08 489.87 463.09 489.88 463.11 489.93 463.12 489.93 463.16 490.05 463.2 490.23 463.22 490.36 463.24 490.39 463.25 490.41 463.26 490.5 463.29 490.58 463.3 490.66 463.35 490.8 463.37 490.89 463.41 490.95 463.41 490.97 463.43 491.02 463.46 491.09 463.48 491.14 463.49 491.17 463.51 491.22 463.53 491.25 463.55 491.31 463.56 491.33 463.6 491.42 463.62 491.47 463.66 491.56 463.72 491.71 463.72 491.72 463.76 491.82 463.78 491.86 463.81 491.98 463.82 491.99 463.82 492.02 463.89 492.18 463.9 492.2 463.93 492.25 463.95 492.31 464.03 492.55 464.09 492.7 464.12 492.81 464.14 492.87 464.16 492.93 464.18 493.01 464.19 493.02 464.21 493.08 464.27 493.27 464.27 493.28 464.31 493.41 464.32 493.45 464.32 493.47 464.32 493.52 464.32 493.57 464.31 493.62 464.31 493.67 464.32 493.73 464.33 493.75 464.35 493.77 464.35 493.77 464.37 493.83 464.38 493.85 464.39 493.91 464.47 494.15 464.52 494.28 464.55 494.38 464.58 494.49 464.58 494.53 464.59 494.56 464.59 494.58 464.62 494.63 464.64 494.7 464.65 494.8 464.67 494.87 464.68 494.96 464.69 495.06 464.69 495.14 464.68 495.25 464.68 495.28 464.68 495.35 464.68 495.4 464.7 495.47 464.7 495.48 464.71 495.49 464.72 495.5 464.75 495.52 464.81 495.55 464.84 495.56 464.88 495.59 464.9 495.63 464.92 495.66 464.93 495.69 464.96 495.77 464.97 495.81 464.98 495.82 465.04 495.97 465.14 496.19 465.14 496.2 465.17 496.25 465.19 496.35 465.2 496.37 465.21 496.48 465.21 496.51 465.23 496.61 465.24 496.69 465.25 496.84 465.25 496.86 465.25 496.91 465.25 496.92 465.24 496.94 465.21 497.01 465.2 497.06 465.18 497.15 465.16 497.27 465.15 497.37 465.16 497.44 465.16 497.49 465.2 497.59 465.25 497.72 465.27 497.75 465.3 497.88 465.33 497.98 465.35 498.08 465.36 498.14 465.38 498.24 465.46 498.57 465.5 498.7 465.55 498.79 465.58 498.85 465.62 498.93 465.68 499.03 465.73 499.15 465.79 499.26 465.81 499.29 465.86 499.37 465.88 499.41 465.91 499.47 465.94 499.57 465.95 499.59 465.96 499.66 465.96 499.69 465.95 499.74 465.91 499.85 465.88 499.96 465.87 500.03 465.85 500.13 465.84 500.19 465.83 500.26 465.82 500.36 465.82 500.39 465.8 500.51 465.77 500.59 465.73 500.69 465.68 500.83 465.67 500.88 465.67 500.9 465.67 500.97 465.67 500.98 465.67 501.01 465.66 501.03 465.65 501.05 465.64 501.06 465.64 501.08 465.61 501.11 465.6 501.13 465.58 501.15 465.52 501.27 465.47 501.34 465.45 501.37 465.4 501.49 465.38 501.53 465.36 501.58 465.34 501.64 465.23 501.9 465.23 501.91 465.11 502.26 465.07 502.38 464.99 502.58 464.97 502.63 464.84 502.91 464.71 503.18 464.7 503.21 464.63 503.36 464.61 503.43 464.55 503.6 464.44 503.92 464.37 504.14 464.37 504.14 464.36 504.16 464.36 504.18 464.3 504.41 464.15 504.94 464.15 504.97 464.15 505.02 464.15 505.03 464.15 505.05 464.16 505.18 464.23 505.81 464.26 506.1 464.26 506.12 464.26 506.13 464.26 506.14 464.26 506.15 464.29 506.4 464.31 506.66 464.35 507.04 464.38 507.38 464.4 507.58 464.65 508.37 464.73 508.65 464.7 508.65 464.66 508.64 464.64 508.64 464.61 508.63 464.59 508.62 464.56 508.6 464.54 508.58 464.5 508.56 464.47 508.53 464.43 508.49 464.39 508.46 464.35 508.41 464.19 508.21 463.99 507.96 463.89 507.83 463.79 507.71 463.74 507.61 463.72 507.58 463.66 507.49 463.56 507.29 463.46 507.08 463.43 507.02 463.27 506.79 463.24 506.75 463.22 506.73 463.2 506.72 463.14 506.69 463.01 506.62 462.98 506.61 462.89 506.57 462.76 506.5 462.38 506.3 462.32 506.27 462.31 506.27 462.24 506.27 462.08 506.27 461.92 506.27 461.87 506.3 461.68 506.4 461.66 506.41 461.63 506.43 461.55 506.47 461.51 506.51 461.38 506.62 461.37 506.65 461.35 506.67 461.32 506.73 461.29 506.8 461.29 506.81 461.25 506.88 461.22 506.94 461.21 506.95 461.19 506.99 461.16 507.09 461.12 507.22 461.07 507.4 461.05 507.45 461.05 507.66 461.05 507.74 461.06 507.76 461.07 507.77 461.09 507.81 461.23 508.01 461.29 508.07 461.34 508.13 461.35 508.14 461.39 508.19 461.41 508.23 461.43 508.28 461.44 508.31 461.45 508.35 461.46 508.39 461.47 508.44 461.47 508.47 461.47 508.51 461.47 508.57 461.47 508.67 461.46 508.79 461.45 508.86 461.44 508.98 461.41 509.13 461.38 509.24 461.36 509.3 461.31 509.43 461.28 509.48 461.23 509.54 461.2 509.57 461.15 509.62 461.05 509.7 460.98 509.74 460.92 509.77 460.85 509.78 460.79 509.79 460.74 509.78 460.43 509.63 460.38 509.64 460.17 509.69 459.97 509.74 459.75 509.74 459.52 509.72 459.28 509.71 458.93 509.69 458.46 509.66 458.13 509.63 457.72 509.57 457.48 509.52 457.26 509.45 457.07 509.37 457.03 509.34 456.84 509.25 456.55 509.12 456.35 509.02 456.21 508.97 456.07 508.92 455.95 508.86 455.91 508.83 455.72 508.65 455.46 508.34 455.26 508.09 455.19 508 455.14 507.93 455.08 507.78 454.97 507.47 454.87 507.2 454.77 506.95 454.76 506.92 454.77 506.64 454.77 506.48 454.78 506.43 454.78 506.39 454.92 506.18 455.01 506.05 455.04 506.02 455.24 505.86 455.67 505.53 455.8 505.4 455.89 505.31 455.92 505.27 455.94 505.23 455.95 505.19 455.96 505.11 455.97 505.04 455.97 504.97 456.13 504.66 456.39 504.23 456.48 504.07 456.62 503.75 456.7 503.55 456.79 503.36 456.87 503.24 457 503.06 457.16 502.85 457.23 502.71 457.3 502.57 457.4 502.33 457.49 502 457.54 501.8 457.54 501.72 457.57 501.58 457.62 501.35 457.67 501.19 457.73 501.05 457.76 500.97 457.8 500.9 457.82 500.81 457.84 500.74 457.84 500.58 457.81 499.91 457.79 499.69 457.77 499.63 457.76 499.62 457.71 499.56 457.64 499.49 457.41 499.3 457.27 499.18 457.12 499.07 457.05 499.03 457 498.97 456.92 498.84 456.83 498.68 456.76 498.51 456.76 498.48 456.77 498.43 456.79 498.2 456.81 498.06 456.84 497.92 456.88 497.74 456.93 497.6 456.97 497.49 457.01 497.38 457.03 497.34 457.06 497.27 457.08 497.22 457.13 497.11 457.15 497.04 457.18 496.93 457.19 496.88 457.19 496.83 457.18 496.77 457.17 496.7 457.15 496.64 457.14 496.59 457.11 496.49 457.08 496.35 457.03 496.2 456.99 496.07 456.91 495.87 456.81 495.59 456.75 495.45 456.71 495.39 456.63 495.28 456.57 495.22 456.5 495.14 456.41 495.02 456.31 494.89 456.18 494.67 456.06 494.49 455.75 494.21 455.72 494.2 455.69 494.2 455.67 494.2 455.65 494.22 455.64 494.24 455.62 494.3 455.61 494.36 455.6 494.41 455.59 494.44 455.57 494.47 455.53 494.52 455.48 494.57 455.43 494.6 455.37 494.62 455.3 494.64 455.24 494.66 455.17 494.7 455.12 494.74 455.06 494.79 455.03 494.84 455 494.9 454.97 494.97 454.96 494.99 454.74 495.46 454.73 495.47 454.31 495.58 454.28 495.58 454.18 495.61 454.17 495.61 454.15 495.62 453.76 495.71 452.48 495.42 452.42 495.4 452.26 495.33 449.84 494.32 449.63 494.23 449.47 494.15 449.35 494.07 449.26 493.99 449.2 493.92 449.17 493.87 449.14 493.8 449.12 493.72 449.09 493.64 449.03 493.55 448.99 493.5 448.96 493.48 448.88 493.44 448.59 493.27 448.33 493.14 448.05 493.01 447.79 492.9 447.48 492.75 447.24 492.65 446.92 492.5 446.64 492.37 446.4 492.24 446.05 492.03 445.94 491.97 445.79 491.89 445.51 491.71 445.31 491.6 445 491.4 444.66 491.2 444.21 490.91 443.9 490.68 443.62 490.51 443.46 490.44 443.32 490.34 443.24 490.28 443.24 490.24 443.25 490.18 443.38 490.01 443.55 489.79 443.7 489.6 443.87 489.43 443.96 489.37 444.09 489.33 444.26 489.3 444.36 489.28 444.53 489.16 444.63 489.08 444.79 488.97 445.03 488.8 445.07 488.77 445.1 488.7 445.15 488.63 445.21 488.57 445.31 488.45 445.4 488.33 445.46 488.23 445.55 488.08 445.6 488.02 445.61 487.99 445.61 487.95 445.61 487.89 445.64 487.79 445.66 487.7 445.65 487.6 445.67 487.41 445.71 487.11 445.7 487.06 445.67 487.03 445.61 486.99 445.56 486.94 445.45 486.82 445.41 486.78 445.3 486.68 445.15 486.52 445 486.37 444.99 486.34 444.89 486.22 444.85 486.17 444.77 486.09 444.62 485.96 444.45 485.84 444.28 485.76 444.13 485.63 444.11 485.61 444.09 485.6 444.05 485.59 444 485.55 443.93 485.52 443.88 485.48 443.83 485.46 443.72 485.37 443.69 485.36 443.67 485.36 443.63 485.37 443.61 485.38 443.6 485.4 443.57 485.42 443.54 485.45 443.52 485.46 443.49 485.46 443.44 485.46 443.35 485.45 443.32 485.45 443.3 485.44 443.27 485.42 443.26 485.41 443.23 485.39 443.18 485.34 443.13 485.3 443.06 485.24 443.04 485.22 443.02 485.2 442.96 485.17 442.88 485.11 442.81 485.08 442.71 485.02 442.68 485 442.63 484.97 442.55 484.92 442.51 484.89 442.49 484.88 442.42 484.84 442.39 484.81 442.35 484.78 442.34 484.76 442.32 484.73 442.3 484.72 442.26 484.65 442.21 484.55 442.14 484.44 442.05 484.3 442 484.22 441.97 484.17 441.96 484.12 441.94 484.08 441.93 484.03 441.91 483.97 441.89 483.9 441.88 483.84 441.88 483.79 441.87 483.74 441.87 483.66 441.87 483.57 441.87 483.53 441.88 483.44 441.89 483.39 441.9 483.31 441.91 483.26 442 482.99 442.04 482.9 442.05 482.87 442.08 482.81 442.1 482.79 442.12 482.76 442.2 482.65 442.25 482.59 442.28 482.54 442.34 482.46 442.41 482.38 442.5 482.28 442.53 482.23 442.57 482.19 442.59 482.18 442.63 482.12 442.69 482.06 442.71 482.02 442.72 482 442.73 481.98 442.74 481.95 442.76 481.91 442.77 481.87 442.79 481.77 442.82 481.66 442.84 481.56 442.86 481.43 442.88 481.2 442.89 481.17 442.89 481.11 442.89 481.08 442.89 480.99 442.9 480.91 442.9 480.86 442.89 480.76 442.86 480.66 442.85 480.6 442.84 480.57 442.84 480.5 442.84 480.47 442.84 480.45 442.84 480.4 442.84 480.37 442.84 480.35 442.82 480.33 442.81 480.32 442.79 480.3 442.75 480.27 442.72 480.24 442.71 480.23 442.69 480.22 442.65 480.2 442.55 480.17 442.47 480.14 442.3 480.09 442.12 480.03 442.04 479.99 441.89 479.92 441.84 479.9 441.82 479.88 441.79 479.86 441.78 479.84 441.76 479.81 441.75 479.78 Z"/>
</g></svg>