<svg xmlns="http://www.w3.org/2000/svg" version="1.2" baseProfile="tiny" stroke-linecap="round" stroke-linejoin="round" viewBox="510.47 73.52 18.35 22.5"><g xmlns="http://www.w3.org/2000/svg" id="Azkaine">
<path d="M 515.84 73.57 515.88 73.56 515.89 73.56 515.91 73.57 515.93 73.58 515.97 73.6 516 73.61 516.02 73.61 516.03 73.62 516.04 73.63 516.04 73.64 516.04 73.66 516.03 73.67 516.03 73.69 516.04 73.71 516.06 73.73 516.07 73.74 516.1 73.75 516.12 73.75 516.13 73.74 516.14 73.72 516.17 73.69 516.2 73.67 516.23 73.64 516.24 73.64 516.27 73.65 516.3 73.66 516.33 73.68 516.34 73.68 516.35 73.69 516.37 73.7 516.39 73.73 516.41 73.76 516.43 73.79 516.46 73.82 516.47 73.83 516.53 73.85 516.6 73.86 516.63 73.87 516.65 73.89 516.69 73.94 516.71 73.98 516.74 74 516.76 74.01 516.78 74.03 516.83 74.04 516.87 74.05 516.9 74.05 516.94 74.06 516.96 74.06 516.98 74.06 517.02 74.06 517.04 74.06 517.06 74.05 517.07 74.04 517.09 74.04 517.11 74.02 517.12 74.01 517.15 74.01 517.16 74 517.17 73.99 517.19 73.98 517.22 73.96 517.26 73.94 517.3 73.92 517.35 73.9 517.4 73.9 517.43 73.89 517.46 73.88 517.48 73.88 517.5 73.89 517.52 73.9 517.55 73.91 517.57 73.91 517.59 73.9 517.6 73.88 517.61 73.86 517.62 73.82 517.63 73.81 517.65 73.78 517.67 73.78 517.69 73.77 517.72 73.73 517.74 73.71 517.76 73.71 517.77 73.73 517.79 73.74 517.81 73.73 517.83 73.72 517.85 73.71 517.87 73.69 517.88 73.69 517.89 73.7 517.9 73.73 517.91 73.74 517.93 73.76 517.95 73.75 517.97 73.73 517.98 73.71 518 73.68 518.02 73.67 518.03 73.64 518.05 73.62 518.08 73.59 518.1 73.57 518.12 73.56 518.14 73.56 518.15 73.57 518.16 73.59 518.18 73.6 518.2 73.62 518.22 73.63 518.23 73.64 518.26 73.63 518.28 73.62 518.3 73.6 518.32 73.61 518.34 73.62 518.37 73.62 518.39 73.6 518.41 73.6 518.45 73.62 518.47 73.63 518.49 73.64 518.5 73.65 518.53 73.65 518.56 73.64 518.57 73.63 518.6 73.62 518.62 73.62 518.66 73.63 518.68 73.63 518.71 73.62 518.73 73.6 518.77 73.56 518.78 73.55 518.79 73.54 518.82 73.54 518.84 73.54 518.85 73.55 518.86 73.55 518.88 73.56 518.88 73.57 518.88 73.59 518.88 73.6 518.88 73.6 518.87 73.61 518.86 73.62 518.86 73.63 518.89 73.65 518.92 73.67 518.94 73.67 518.96 73.66 518.98 73.66 518.99 73.64 519.01 73.64 519.03 73.64 519.06 73.63 519.07 73.62 519.08 73.63 519.1 73.6 519.12 73.58 519.14 73.57 519.15 73.56 519.17 73.57 519.18 73.58 519.2 73.58 519.21 73.57 519.22 73.58 519.22 73.59 519.24 73.6 519.25 73.6 519.26 73.6 519.27 73.61 519.28 73.63 519.29 73.63 519.3 73.63 519.31 73.63 519.34 73.64 519.35 73.64 519.4 73.65 519.53 73.67 519.59 73.68 519.63 73.69 519.64 73.69 519.66 73.7 519.69 73.71 519.8 73.76 519.92 73.79 519.96 73.8 519.98 73.81 520 73.81 520.02 73.82 520.03 73.83 520.05 73.83 520.07 73.84 520.13 73.86 520.15 73.87 520.18 73.88 520.19 73.88 520.21 73.9 520.22 73.9 520.25 73.91 520.29 73.93 520.32 73.94 520.36 73.95 520.4 73.97 520.45 73.99 520.47 74 520.5 74 520.53 74.01 520.56 74.02 520.59 74.03 520.62 74.04 520.65 74.06 520.67 74.07 520.69 74.08 520.72 74.09 520.75 74.09 520.76 74.12 520.78 74.11 520.8 74.12 520.82 74.12 520.84 74.13 520.86 74.13 520.88 74.16 520.92 74.17 520.99 74.19 521.05 74.21 521.08 74.22 521.09 74.23 521.11 74.24 521.13 74.25 521.15 74.24 521.18 74.25 521.21 74.27 521.25 74.28 521.34 74.32 521.4 74.35 521.43 74.35 521.45 74.34 521.47 74.33 521.49 74.33 521.51 74.32 521.55 74.32 521.59 74.33 521.62 74.34 521.65 74.34 521.69 74.36 521.71 74.36 521.73 74.34 521.74 74.33 521.72 74.3 521.7 74.29 521.7 74.27 521.71 74.26 521.73 74.26 521.75 74.25 521.75 74.23 521.75 74.22 521.75 74.21 521.75 74.2 521.77 74.19 521.78 74.18 521.8 74.18 521.81 74.19 521.82 74.19 521.83 74.19 521.84 74.19 521.84 74.18 521.85 74.17 521.86 74.16 521.88 74.17 521.89 74.19 521.89 74.2 521.91 74.21 521.92 74.19 521.95 74.16 521.98 74.14 522 74.14 522.02 74.13 522.04 74.09 522.06 74.06 522.09 74.03 522.13 74 522.16 73.97 522.19 73.97 522.22 73.97 522.25 73.98 522.28 73.97 522.29 73.94 522.3 73.93 522.3 73.91 522.31 73.89 522.33 73.88 522.35 73.87 522.37 73.84 522.39 73.83 522.41 73.83 522.41 73.8 522.53 73.71 522.5 73.79 522.39 74.23 522.29 74.63 522.23 74.89 522.19 75.03 522.1 75.39 522.07 75.53 522.12 75.58 522.16 75.62 522.18 75.64 522.21 75.69 522.26 75.75 522.29 75.8 522.31 75.84 522.31 75.84 522.11 76.51 522.09 76.59 522.06 76.67 522.04 76.73 522.03 76.74 522 76.82 521.99 76.83 522.03 77.1 522.04 77.12 522.11 77.26 522.19 77.49 522.32 77.72 522.37 77.8 522.43 77.9 522.46 77.93 522.47 77.94 522.52 77.99 522.5 78.02 522.49 78.06 522.49 78.09 522.48 78.13 522.48 78.16 522.68 78.67 522.92 79.29 522.93 79.33 522.96 79.39 522.98 79.47 523.02 79.55 523.05 79.65 523.08 79.73 523.1 79.78 523.13 79.78 523.17 79.8 523.3 79.89 523.36 79.92 523.39 79.93 523.69 80.1 523.72 80.12 523.98 80.24 524.33 80.44 524.7 80.66 525.16 80.92 525.34 81.08 525.42 81.16 526.01 81.68 526.1 81.78 526.18 81.86 526.31 82 526.48 82.15 526.49 82.17 526.69 82.34 526.87 82.52 526.9 82.55 526.94 82.59 526.98 82.63 527.43 83.09 527.74 83.4 527.84 83.51 528.55 84.22 528.61 84.28 528.75 84.42 528.81 84.46 528.14 85.65 528.07 85.79 528.05 85.82 528 85.9 527.96 85.96 527.91 86.04 527.76 86.25 527.46 86.7 527.36 86.85 527.12 87.21 526.98 87.41 526.93 87.46 526.91 87.48 526.72 87.65 526.57 87.79 526.56 87.8 526.42 87.98 526.41 88 526.34 88.11 526.27 88.22 526.13 88.41 526.11 88.43 526.1 88.44 526.09 88.47 526.05 88.52 525.99 88.58 525.97 88.6 525.87 88.73 525.85 88.75 525.82 88.8 525.68 89 525.58 89.11 525.53 89.18 525.46 89.27 525.38 89.38 525.32 89.46 525.27 89.52 525.24 89.56 525.16 89.66 525.1 89.75 525.07 89.79 525.05 89.82 525.02 89.84 524.97 89.9 524.92 89.95 524.85 90.01 524.83 90.03 524.8 90.07 524.7 90.17 524.68 90.18 524.45 90.35 523.51 91.04 522.99 91.42 522.78 91.57 522.76 91.58 522.68 91.64 522.66 91.65 522.6 91.7 522.01 92.12 521.85 92.23 521.82 92.26 521.51 92.67 521.38 92.85 521.15 93.16 520.75 93.7 520.63 93.86 520.54 93.99 520.46 94.09 520.32 94.21 520.14 94.36 519.89 94.57 519.8 94.64 519.76 94.68 519.71 94.72 519.58 94.82 519.04 95.25 518.72 95.51 518.21 95.97 518.16 96.01 518.15 96.01 518.14 96.01 518.12 96 518.11 96 518.09 95.99 518.07 95.99 518.06 95.98 518.05 95.98 518.04 95.98 518.03 95.98 518.02 95.97 518.01 95.97 518 95.97 517.99 95.97 517.98 95.97 517.97 95.97 517.96 95.97 517.95 95.97 517.94 95.97 517.93 95.97 517.92 95.97 517.91 95.97 517.89 95.97 517.88 95.97 517.87 95.97 517.86 95.97 517.85 95.97 517.84 95.97 517.83 95.97 517.82 95.98 517.81 95.98 517.8 95.98 517.79 95.98 517.78 95.98 517.77 95.99 517.76 95.99 517.75 95.99 517.74 95.99 517.73 96 517.71 96 517.7 96 517.69 96.01 517.68 96.01 517.66 96.01 517.61 95.89 517.58 95.85 517.57 95.81 517.31 95.26 517.13 94.88 517.06 94.74 516.99 94.59 516.96 94.51 516.91 94.41 516.8 94.18 516.3 93.13 516.27 93.13 516.25 93.13 516.22 93.13 516.19 93.14 516.16 93.15 516.14 93.17 516.12 93.18 516.1 93.19 516.07 93.19 516.02 93.16 516 93.15 515.98 93.13 515.95 93.12 515.93 93.13 515.91 93.14 515.89 93.15 515.86 93.15 515.84 93.14 515.83 93.14 515.81 93.13 515.74 93.12 515.68 93.14 515.65 93.15 515.64 93.15 515.61 93.14 515.6 93.13 515.59 93.11 515.57 93.1 515.54 93.1 515.52 93.1 515.49 93.1 515.46 93.11 515.43 93.11 515.43 93.1 515.41 93.1 515.38 93.08 515.36 93.07 515.33 93.06 515.32 93.05 515.32 93.03 515.31 93.02 515.29 93.01 515.26 93.01 515.25 93.01 515.23 92.99 515.21 92.98 515.2 92.97 515.17 92.96 515.14 92.98 515.13 92.98 515.12 92.99 515.08 93 515.05 93.01 515.02 93.01 514.98 92.99 514.95 92.98 514.91 92.97 514.87 92.97 514.84 92.96 514.8 92.95 514.77 92.94 514.74 92.92 514.72 92.89 514.69 92.84 514.67 92.81 514.65 92.78 514.63 92.76 514.59 92.74 514.57 92.71 514.54 92.68 514.5 92.65 514.47 92.62 514.44 92.59 514.41 92.56 514.38 92.53 514.38 92.52 514.37 92.5 514.35 92.49 514.33 92.46 514.31 92.44 514.29 92.42 514.27 92.41 514.22 92.41 514.18 92.42 514.16 92.42 514.13 92.41 514.11 92.39 514.1 92.38 514.07 92.37 514.05 92.36 514.02 92.34 514 92.33 513.97 92.32 513.94 92.31 513.92 92.29 513.89 92.27 513.86 92.25 513.84 92.23 513.82 92.22 513.8 92.2 513.77 92.19 513.75 92.19 513.72 92.18 513.69 92.16 513.67 92.14 513.63 92.12 513.61 92.11 513.6 92.09 513.59 92.07 513.58 92.05 513.56 92.02 513.54 92.01 513.53 91.99 513.53 91.97 513.53 91.95 513.52 91.93 513.52 91.9 513.51 91.86 513.5 91.83 513.49 91.82 513.49 91.8 513.48 91.79 513.46 91.77 513.44 91.76 513.41 91.75 513.38 91.75 513.36 91.74 513.33 91.74 513.3 91.73 513.28 91.74 513.26 91.74 513.23 91.75 513.16 91.76 513.14 91.77 513.12 91.79 513.11 91.79 513.08 91.77 513.06 91.77 513.06 91.76 513.05 91.74 513.02 91.71 513.01 91.69 513 91.66 512.99 91.63 512.99 91.6 512.98 91.57 512.97 91.56 512.95 91.54 512.94 91.53 512.94 91.47 512.93 91.45 512.94 91.44 512.94 91.42 512.95 91.39 512.95 91.36 512.93 91.33 512.92 91.3 512.9 91.28 512.87 91.26 512.84 91.24 512.81 91.23 512.77 91.23 512.75 91.22 512.74 91.21 512.7 91.18 512.69 91.15 512.68 91.13 512.69 91.1 512.71 91.07 512.72 91.05 512.74 91 512.75 90.97 512.75 90.96 512.74 90.94 512.73 90.91 512.71 90.89 512.68 90.87 512.65 90.85 512.62 90.83 512.6 90.79 512.57 90.77 512.55 90.73 512.53 90.7 512.52 90.66 512.51 90.58 512.51 90.53 512.5 90.5 512.5 90.45 512.5 90.43 512.49 90.42 512.48 90.39 512.47 90.37 512.46 90.35 512.43 90.35 512.41 90.35 512.38 90.32 512.37 90.29 512.37 90.25 512.38 90.22 512.38 90.19 512.38 90.15 512.37 90.13 512.36 90.11 512.35 90.08 512.32 90.05 512.29 90.03 512.26 90.01 512.24 89.98 512.22 89.93 512.19 89.9 512.17 89.89 512.13 89.88 512.1 89.88 512.07 89.86 512.06 89.85 512.04 89.85 512.01 89.84 511.97 89.81 511.94 89.78 511.91 89.73 511.89 89.69 511.87 89.67 511.85 89.65 511.83 89.62 511.81 89.61 511.78 89.59 511.77 89.57 511.76 89.54 511.74 89.51 511.73 89.5 511.69 89.48 511.63 89.46 511.58 89.44 511.52 89.42 511.47 89.4 511.43 89.38 511.39 89.34 511.3 89.25 511.25 89.2 511.24 89.17 511.22 89.13 511.2 89.09 511.18 89.06 511.15 89.01 511.13 88.98 511.11 88.96 511.1 88.92 511.09 88.88 511.08 88.84 511.06 88.8 511.04 88.75 511.02 88.71 511 88.69 510.96 88.66 510.94 88.64 510.93 88.63 510.92 88.61 510.89 88.58 510.88 88.54 510.87 88.5 510.87 88.45 510.86 88.42 510.85 88.4 510.83 88.37 510.82 88.34 510.83 88.3 510.83 88.26 510.83 88.22 510.84 88.18 510.86 88.15 510.87 88.11 510.87 88.09 510.87 88.08 510.84 88.06 510.83 88.06 510.81 88.05 510.8 88.04 510.79 88.02 510.77 87.99 510.74 87.96 510.71 87.93 510.69 87.91 510.69 87.88 510.69 87.86 510.7 87.83 510.72 87.79 510.74 87.75 510.75 87.71 510.76 87.65 510.77 87.58 510.77 87.53 510.77 87.49 510.78 87.48 510.77 87.46 510.78 87.43 510.79 87.41 510.82 87.38 510.82 87.36 510.83 87.34 510.83 87.32 510.82 87.29 510.82 87.28 510.81 87.26 510.8 87.25 510.79 87.24 510.77 87.23 510.75 87.21 510.73 87.18 510.72 87.11 510.73 87.08 510.74 87.05 510.75 87.02 510.74 87 510.74 86.96 510.72 86.94 510.7 86.92 510.68 86.9 510.67 86.89 510.63 86.84 510.61 86.81 510.59 86.76 510.59 86.72 510.6 86.61 510.6 86.57 510.61 86.51 510.62 86.47 510.64 86.44 510.67 86.42 510.68 86.4 510.69 86.37 510.69 86.33 510.69 86.29 510.68 86.27 510.66 86.25 510.63 86.21 510.62 86.2 510.6 86.18 510.59 86.17 510.59 86.15 510.6 86.13 510.62 86.11 510.66 86.09 510.7 86.07 510.74 86.07 510.78 86.07 510.81 86.06 510.84 86.05 510.86 86.02 510.86 86 510.86 85.97 510.85 85.94 510.83 85.91 510.82 85.9 510.8 85.88 510.78 85.87 510.74 85.87 510.7 85.86 510.67 85.85 510.65 85.84 510.63 85.82 510.62 85.8 510.61 85.78 510.6 85.75 510.59 85.74 510.58 85.72 510.47 85.66 510.56 85.58 510.72 85.44 510.81 85.33 511.14 84.97 510.92 85.05 510.91 85.02 510.83 84.83 510.79 84.77 510.76 84.68 510.75 84.66 510.72 84.53 510.73 84.49 511.43 84.39 511.72 84.34 512.05 84.29 512.27 84.26 512.63 84.2 512.72 84.19 513.11 83.89 513.07 83.57 512.88 83.13 512.82 82.97 512.76 82.83 512.7 82.69 512.65 82.58 512.63 82.53 512.59 82.41 512.57 82.37 512.51 82.23 512.47 82.12 512.43 82 512.35 81.8 512.35 81.79 512.32 81.72 512.2 81.43 512.2 81.41 512.05 80.94 512.05 80.92 512.01 80.47 512.01 80.37 512 80.23 511.99 80 511.97 79.27 511.97 79.24 511.92 79.03 511.91 79 511.88 78.9 511.87 78.88 511.83 78.73 511.82 78.7 511.84 78.57 511.86 78.42 511.88 78.27 512.05 78.3 512.09 78.31 512.57 78.13 512.92 78.17 513.02 78.17 513.43 78.19 513.45 78.19 513.53 78.2 513.54 78.2 513.73 78.21 514.03 77.88 514.12 77.63 514.2 77.4 514.2 77.4 514.2 77.39 514.24 77.3 514.31 77.11 514.35 77.03 514.37 76.96 514.43 76.81 514.44 76.8 514.44 76.79 514.48 76.79 514.52 76.79 514.56 76.79 514.61 76.81 514.71 76.84 514.75 76.84 514.81 76.83 514.88 76.79 514.94 76.75 515.04 76.76 515.08 76.75 515.12 76.75 515.17 76.74 515.2 76.72 515.23 76.7 515.26 76.68 515.28 76.67 515.33 76.66 515.39 76.66 515.45 76.67 515.49 76.68 515.54 76.68 515.57 76.67 515.61 76.67 515.64 76.66 515.67 76.65 515.73 76.66 515.77 76.66 515.8 76.66 515.83 76.66 515.86 76.65 515.89 76.64 515.91 76.64 515.94 76.61 515.95 76.58 515.98 76.53 515.99 76.5 516 76.47 516.01 76.44 516.02 76.42 516.02 76.39 516.02 76.36 516.02 76.32 516.02 76.27 516.02 76.23 516.02 76.18 516.02 76.15 516.04 76.11 516.04 76.1 516.05 76.08 516.08 76.05 516.09 76.03 516.1 76.01 516.12 76.01 516.14 76.01 516.15 75.99 516.15 75.98 516.16 75.97 516.18 75.96 516.19 75.96 516.2 75.94 516.21 75.94 516.23 75.88 516.16 75.84 516.12 75.79 516.11 75.76 516.1 75.68 516.11 75.57 516.14 75.44 516.17 75.31 516.17 75.09 516.17 74.94 516.11 74.52 516.07 74.35 516.01 74.12 515.84 73.57 Z"/>
</g></svg>