<svg xmlns="http://www.w3.org/2000/svg" version="1.2" baseProfile="tiny" stroke-linecap="round" stroke-linejoin="round" viewBox="620.92 134.95 8.53 17.55"><g xmlns="http://www.w3.org/2000/svg" id="Azkarate">
<path d="M 621.49 135.04 621.54 135.08 621.57 135.12 621.63 135.14 621.75 135.16 621.87 135.15 622.02 135.14 622.17 135.12 622.25 135.1 622.28 135.08 622.34 135.07 622.4 135.05 622.47 135.05 622.59 135.05 622.67 135.04 622.79 135.01 622.91 134.99 623.02 134.98 623.15 134.99 623.25 135.02 623.45 135.07 623.52 135.09 623.59 135.12 623.78 135.16 623.88 135.19 624.08 135.24 624.2 135.28 624.34 135.3 624.46 135.3 624.57 135.29 624.63 135.28 624.74 135.25 624.81 135.23 624.87 135.22 625.01 135.22 625.12 135.23 625.23 135.28 625.3 135.33 625.41 135.4 625.48 135.44 625.56 135.52 625.59 135.58 625.6 135.66 625.61 135.82 625.63 135.99 625.64 136.16 625.68 136.31 625.73 136.52 625.78 136.64 625.81 136.68 625.93 136.75 626.08 136.84 626.12 136.86 626.17 136.9 626.25 136.95 626.29 137 626.3 137.02 626.35 137.05 626.5 137.13 626.59 137.18 626.65 137.23 626.7 137.28 626.72 137.36 626.72 137.43 626.71 137.55 626.7 137.61 626.67 137.71 626.65 137.86 626.65 137.97 626.66 138.08 626.71 138.25 626.77 138.39 626.85 138.49 626.89 138.54 626.89 138.55 626.89 138.61 626.8 138.86 626.77 138.98 626.77 139.03 626.78 139.07 626.79 139.09 626.81 139.12 626.87 139.16 626.98 139.22 627.16 139.28 627.18 139.29 627.2 139.29 627.23 139.31 627.3 139.35 627.35 139.39 627.4 139.44 627.47 139.53 627.52 139.62 627.59 139.75 627.64 139.86 627.69 139.96 627.71 140.07 627.73 140.17 627.79 140.36 627.79 140.38 627.85 140.57 627.91 140.73 627.97 140.86 628.01 141.02 628.04 141.13 628.06 141.22 628.07 141.35 628.07 141.43 628.06 141.5 628.03 141.65 627.99 141.75 627.95 141.83 627.92 141.92 627.86 142.12 627.83 142.15 627.8 142.17 627.75 142.19 627.7 142.2 627.52 142.19 627.41 142.18 627.31 142.18 627.22 142.18 627.21 142.18 627.14 142.19 627.07 142.21 627.01 142.22 626.88 142.27 626.8 142.32 626.76 142.33 626.68 142.38 626.64 142.41 626.62 142.45 626.59 142.5 626.58 142.53 626.56 142.61 626.55 142.65 626.54 142.71 626.53 142.75 626.52 142.82 626.51 142.9 626.51 142.98 626.51 143.04 626.51 143.1 626.51 143.14 626.52 143.24 626.5 143.31 626.5 143.35 626.48 143.38 626.47 143.42 626.45 143.45 626.44 143.48 626.41 143.53 626.37 143.6 626.34 143.65 626.29 143.72 626.23 143.79 626.22 143.81 626.19 143.85 626.14 143.91 626.11 143.96 626.07 144.03 626.05 144.09 626.03 144.16 626.01 144.24 626.01 144.3 626.01 144.4 626.01 144.47 626.02 144.52 626.06 144.6 626.09 144.66 626.1 144.71 626.1 144.76 626.1 144.81 626.1 144.86 626.08 144.96 626.08 144.98 626.08 145.04 626.08 145.1 626.1 145.14 626.11 145.17 626.14 145.2 626.2 145.24 626.28 145.29 626.36 145.34 626.44 145.38 626.56 145.45 626.64 145.49 626.73 145.52 626.8 145.55 626.9 145.58 626.98 145.61 627.01 145.62 627.01 145.62 627.28 145.71 627.43 145.77 627.55 145.82 627.66 145.88 627.78 145.96 628 146.18 628.12 146.32 628.21 146.44 628.26 146.53 628.29 146.59 628.32 146.67 628.35 146.76 628.37 146.85 628.42 147.12 628.42 147.18 628.44 147.23 628.46 147.27 628.5 147.31 628.54 147.35 628.59 147.39 628.68 147.44 628.71 147.45 628.77 147.5 628.85 147.57 628.93 147.63 629.01 147.71 629.1 147.8 629.18 147.88 629.24 147.93 629.28 147.96 629.31 147.97 629.3 148 629.3 148.03 629.31 148.08 629.33 148.15 629.37 148.25 629.41 148.43 629.42 148.49 629.4 148.53 629.37 148.54 629.32 148.54 629.26 148.55 629.21 148.57 629.09 148.65 629.04 148.69 628.99 148.72 628.94 148.76 628.87 148.81 628.82 148.85 628.79 148.9 628.76 148.95 628.75 149 628.73 149.06 628.72 149.1 628.72 149.15 628.71 149.18 628.7 149.22 628.68 149.25 628.68 149.28 628.72 149.33 628.96 149.52 629.13 149.66 629.26 149.79 629.31 149.85 629.33 149.88 629.27 149.91 629.24 149.9 629.21 149.88 629.16 149.87 628.94 149.85 628.88 149.85 628.82 149.85 628.75 149.83 628.65 149.79 628.63 149.78 628.61 149.76 628.56 149.7 628.51 149.68 628.45 149.64 628.4 149.61 628.3 149.51 628.26 149.47 628.22 149.45 628.19 149.44 628.15 149.42 628.12 149.42 628.1 149.42 628.05 149.43 627.98 149.56 627.65 149.98 627.47 150.33 627.35 150.74 627.32 151.06 626.96 150.89 626.83 150.9 626.59 151.18 626.5 151.2 626.47 150.97 626.41 150.89 626.21 150.85 626.21 150.87 626.17 150.91 626.12 150.95 626.07 150.99 626.03 151.02 625.97 151.04 625.93 151.04 625.88 151.04 625.76 150.91 625.76 150.87 625.78 150.79 625.82 150.67 625.84 150.63 625.88 150.57 625.92 150.51 625.98 150.37 626.12 150.1 625.66 149.9 625.67 149.81 625.18 149.55 625.13 149.73 625.04 149.94 624.92 150.21 624.84 150.39 624.82 150.41 624.78 150.43 624.59 150.56 624.38 150.7 624.33 150.72 624.24 150.74 624.18 150.4 623.81 150.34 623.65 150.27 623.6 150.35 623.6 150.37 623.59 150.39 623.6 150.41 623.6 150.44 623.58 150.5 623.54 150.59 623.5 150.65 623.48 150.71 623.45 150.77 623.42 150.87 623.39 150.96 623.37 151.02 623.31 151.09 623.29 151.12 623.27 151.13 623.23 151.17 622.65 151.16 622.63 151.17 622.59 151.19 622.52 151.22 622.47 151.25 622.43 151.28 622.38 151.32 622.32 151.37 622.25 151.42 622.18 151.46 622.12 151.51 622.04 151.57 621.99 151.62 621.95 151.64 621.92 151.68 621.86 151.76 621.81 151.84 621.8 151.86 621.78 151.89 621.75 151.97 621.73 152.02 621.7 152.07 621.66 152.12 621.66 152.13 621.63 152.17 621.61 152.21 621.58 152.26 621.54 152.34 621.51 152.39 621.47 152.44 621.43 152.49 621.31 152.3 621.55 151.97 621.36 151.71 621.34 151.58 621.38 151.49 621.55 151.4 621.87 151.27 622.36 151.05 622.37 150.9 622.45 150.83 622.48 150.69 622.57 150.61 622.47 150.21 622.46 150.14 622.59 150.05 622.84 149.8 623.03 149.69 623.1 149.64 623.15 149.56 623.19 149.42 623.22 149.38 623.28 149.35 623.37 149.3 623.4 149.27 623.43 149.24 623.45 149.2 623.4 148.92 623.71 148.62 623.55 148.54 623.02 148.42 623.06 148.33 623.12 148.18 623.19 148.03 623.26 147.88 623.32 147.73 623.36 147.64 623.37 147.61 623.46 147.4 623.48 147.21 622.5 147.27 622.53 147.15 622.53 147.09 622.7 147.03 622.75 146.97 622.68 146.55 622.94 146.57 623.12 146.72 623.19 146.72 623.24 146.66 623.08 146.43 622.76 146.08 622.6 146.05 622.35 146.05 622.26 145.9 622.26 145.77 622.34 145.61 622.23 145.23 622.24 145.09 622.39 144.92 622.42 144.92 622.4 144.82 622.2 144.55 622.08 144.37 622.05 144.38 622.04 144.38 621.98 144.1 622.2 143.93 622.31 143.73 622.32 143.61 622.21 143.33 622.54 143.15 623.15 142.95 623.23 142.7 623.25 142.47 623.2 141.71 623.06 141.46 623.27 141.21 623.45 141.23 623.63 141.22 623.62 141.06 623.51 140.87 623.48 140.86 623.03 140.52 622.87 140.29 622.83 140.26 622.78 140.2 622.72 140.11 622.67 140.04 622.64 140.03 622.49 140.01 622.43 139.96 622.42 139.94 622.42 139.93 622.42 139.92 622.41 139.88 622.41 139.84 622.42 139.81 622.43 139.78 622.46 139.74 622.46 139.72 622.47 139.72 622.49 139.71 622.5 139.67 622.51 139.65 622.25 139.61 621.83 139.55 621.86 139.38 622.53 139.43 622.55 139.38 622.55 139.35 622.55 139.31 622.54 139.26 622.52 139.21 622.51 139.17 622.49 139.14 622.44 139.08 622.41 139.04 622.39 139.02 622.49 138.74 622.87 138.42 623.05 138.39 623.23 138.26 623.24 138.23 623.26 138.21 623.41 137.94 623.36 137.76 623.01 137.76 623 137.72 623 137.7 623 137.68 623.25 137.65 623.21 137.52 623.04 137.27 622.98 137.19 622.91 137.12 622.79 136.97 622.76 136.94 622.6 136.75 622.51 136.75 622.09 136.95 622.03 136.98 621.85 137.22 621.67 137.18 621.3 137.08 620.95 137.17 620.94 137 620.92 136.97 621 136.78 621.16 136.51 621.42 136.52 621.34 136.09 621.3 135.97 621.12 136 621.12 135.99 621.11 135.97 621.11 135.95 621.1 135.93 621.09 135.91 621.09 135.89 621.09 135.87 621.09 135.85 621.08 135.83 621.07 135.81 621.07 135.79 621.06 135.78 621.06 135.76 621.06 135.74 621.08 135.73 621.08 135.71 621.09 135.69 621.09 135.68 621.09 135.65 621.1 135.63 621.1 135.61 621.09 135.58 621.1 135.56 621.11 135.54 621.12 135.53 621.14 135.51 621.16 135.48 621.17 135.46 621.17 135.44 621.17 135.41 621.17 135.39 621.19 135.38 621.21 135.37 621.23 135.35 621.25 135.32 621.25 135.3 621.27 135.27 621.27 135.26 621.28 135.24 621.3 135.23 621.32 135.22 621.33 135.21 621.33 135.19 621.33 135.16 621.35 135.14 621.37 135.12 621.39 135.11 621.47 135.05 621.49 135.04 Z"/>
</g></svg>