<svg xmlns="http://www.w3.org/2000/svg" version="1.2" baseProfile="tiny" stroke-linecap="round" stroke-linejoin="round" viewBox="309.85 129.17 22.37 43"><g xmlns="http://www.w3.org/2000/svg" id="Azkoitia">
<path d="M 319.75 129.17 323.41 132.5 324.56 133.11 325.94 133.84 326.73 134.46 326.77 134.47 326.8 134.47 326.83 134.47 326.86 134.47 326.89 134.48 326.92 134.49 326.94 134.5 326.96 134.51 326.99 134.52 327.01 134.53 327.04 134.54 327.06 134.56 327.08 134.57 327.09 134.58 327.11 134.59 327.12 134.6 327.14 134.62 327.16 134.65 327.18 134.67 327.19 134.68 327.22 134.7 327.24 134.72 327.27 134.74 327.29 134.76 327.31 134.78 327.33 134.8 327.36 134.82 327.38 134.83 327.41 134.85 327.43 134.86 327.45 134.87 327.48 134.88 327.5 134.89 327.51 134.91 327.53 134.92 327.54 134.93 327.56 134.93 327.59 134.94 327.61 134.94 327.64 134.95 327.66 134.95 327.7 134.95 327.72 134.96 327.73 134.97 327.73 134.97 327.74 134.98 327.76 135.01 327.79 135.03 327.81 135.05 327.83 135.06 327.85 135.08 327.87 135.09 327.91 135.1 327.93 135.11 327.96 135.12 327.98 135.14 328 135.14 328.02 135.15 328.04 135.15 328.05 135.16 328.07 135.17 328.09 135.18 328.12 135.19 328.16 135.2 328.18 135.21 328.21 135.22 328.23 135.23 328.25 135.23 328.26 135.23 328.27 135.23 328.31 135.23 328.34 135.23 328.36 135.24 328.38 135.25 328.42 135.26 328.47 135.28 328.51 135.31 328.54 135.33 328.56 135.36 328.57 135.36 328.95 135.55 331.28 139.69 330.8 141.58 331.76 144.16 332.15 145.61 332.18 145.6 332.19 145.61 332.19 145.62 332.19 145.63 332.18 145.64 332.16 145.66 332.14 145.69 332.13 145.72 332.12 145.74 332.11 145.75 332.09 145.77 332.06 145.8 332.05 145.81 332.04 145.83 332.03 145.85 332.01 145.88 332 145.9 331.99 145.94 331.98 145.97 331.97 146 331.96 146.03 331.95 146.04 331.94 146.06 331.93 146.08 331.93 146.09 331.92 146.11 331.91 146.14 331.9 146.18 331.89 146.2 331.88 146.22 331.86 146.25 331.85 146.28 331.84 146.32 331.82 146.35 331.81 146.38 331.79 146.43 331.76 146.48 331.75 146.52 331.73 146.55 331.73 146.59 331.72 146.63 331.72 146.67 331.73 146.71 331.73 146.79 331.72 146.83 331.71 146.88 331.7 146.93 331.69 146.97 331.7 147.01 331.7 147.06 331.71 147.11 331.71 147.16 331.7 147.17 331.7 147.19 331.68 147.23 331.66 147.26 331.62 147.29 331.6 147.33 331.58 147.36 331.56 147.41 331.55 147.44 331.53 147.51 331.52 147.58 331.49 147.68 331.47 147.75 331.46 147.79 331.47 147.83 331.47 147.88 331.48 147.96 331.48 147.98 331.48 148.03 331.47 148.07 331.46 148.11 331.44 148.15 331.44 148.19 331.44 148.25 331.45 148.31 331.46 148.35 331.46 148.41 331.46 148.47 331.47 148.51 331.48 148.55 331.51 148.6 331.56 148.69 331.64 148.82 331.69 148.91 331.73 148.97 331.74 148.98 331.74 149 331.75 149.02 331.22 149.14 331.36 149.76 331.36 149.78 331.46 150.22 331.51 150.48 331.44 150.48 331.43 150.49 331.45 150.6 331.47 150.64 331.47 150.66 331.46 150.72 331.47 150.77 331.5 150.82 331.56 150.92 331.59 151.15 331.55 151.13 331.47 151.1 331.29 151.07 331.17 151.06 331.14 151.05 331.05 151.05 330.92 151.04 330.88 151.03 330.8 151.02 330.73 151.01 330.67 151 330.63 150.98 330.6 150.96 330.46 150.87 330.34 150.81 330.25 150.77 330.21 150.77 329.94 150.74 329.62 150.71 329.56 150.71 329.52 150.72 329.5 150.73 329.49 150.75 329.47 150.77 329.45 150.8 329.44 150.84 329.4 151.02 329.38 151.14 329.35 151.26 329.23 151.53 329.22 151.55 329.26 151.57 329.37 151.58 329.62 151.65 329.72 151.69 329.86 151.98 329.98 152.12 329.88 152.22 329.87 152.35 330 152.41 330.11 152.45 330.21 152.54 330.23 152.6 330.26 152.71 330.29 152.88 330.29 152.95 330.28 152.99 330.48 153.06 330.64 153.09 330.68 153.27 330.67 153.45 330.64 153.6 330.56 153.85 330.58 153.96 330.68 154.06 330.69 154.14 330.74 154.28 330.79 154.36 330.72 154.36 330.62 154.36 330.62 154.46 330.74 154.61 330.64 154.73 330.55 154.89 330.68 155.02 330.83 155.17 330.72 155.29 330.64 155.4 330.54 155.57 330.66 155.67 330.9 155.81 331.11 155.95 331.12 155.97 331.13 155.98 331.16 156 331.18 156.03 331.2 156.04 331.21 156.05 331.22 156.07 331.24 156.08 331.25 156.09 331.28 156.1 331.29 156.1 331.3 156.12 331.32 156.15 331.34 156.16 331.35 156.18 331.38 156.19 331.39 156.18 331.41 156.18 331.43 156.18 331.43 156.19 331.44 156.2 331.45 156.21 331.45 156.23 331.47 156.25 331.48 156.26 331.5 156.29 331.53 156.32 331.54 156.34 331.55 156.36 331.56 156.38 331.58 156.39 331.6 156.4 331.62 156.41 331.63 156.44 331.62 156.44 331.59 156.47 331.54 156.51 331.53 156.52 331.52 156.54 331.51 156.56 331.5 156.59 331.48 156.61 331.47 156.63 331.44 156.68 331.42 156.71 331.4 156.76 331.38 156.8 331.37 156.82 331.35 156.84 331.34 156.85 331.32 156.87 331.29 156.91 331.24 156.96 331.23 156.98 331.22 156.99 331.21 157.04 331.2 157.09 331.19 157.14 331.18 157.19 331.16 157.26 331.15 157.33 331.15 157.36 331.14 157.43 331.14 157.47 331.14 157.51 331.14 157.54 331.14 157.56 331.15 157.58 331.15 157.62 331.13 157.69 331.12 157.75 331.12 157.78 331.11 157.8 331.12 157.84 331.13 157.89 331.13 157.91 331.13 157.96 331.12 157.99 331.12 158.06 331.12 158.14 331.12 158.27 331.13 158.35 331.14 158.37 331.14 158.41 331.14 158.46 331.13 158.49 331.13 158.53 331.12 158.58 331.09 158.64 331.08 158.67 331.06 158.71 331.06 158.72 331.03 158.75 331.02 158.77 331 158.8 330.99 158.82 330.97 158.85 330.96 158.86 330.95 158.91 330.94 158.97 330.94 158.99 330.93 159.03 330.82 159.25 330.96 159.87 331.15 160.07 331.56 160.37 331.55 160.4 331.53 160.44 331.52 160.48 331.51 160.53 331.5 160.55 331.49 160.58 331.48 160.59 331.45 160.62 331.43 160.66 331.42 160.69 331.4 160.72 331.39 160.77 331.38 160.8 331.35 160.86 331.33 160.9 331.32 160.93 331.31 160.97 331.3 161.01 331.29 161.07 331.29 161.13 331.28 161.15 331.28 161.16 331.29 161.18 331.3 161.21 331.31 161.23 331.32 161.25 331.32 161.28 331.33 161.31 331.35 161.36 331.36 161.4 331.37 161.43 331.38 161.46 331.39 161.51 331.4 161.53 331.4 161.55 331.4 161.58 331.39 161.61 331.39 161.66 331.39 161.73 331.37 161.78 331.37 161.8 331.37 161.83 331.35 161.88 331.35 161.92 331.34 161.94 331.32 161.97 331.3 162.02 331.29 162.03 331.27 162.05 331.25 162.06 331.22 162.07 331.2 162.07 331.16 162.09 331.11 162.11 331.02 162.16 330.97 162.18 330.91 162.21 330.88 162.22 330.85 162.23 330.83 162.23 330.82 162.23 330.78 162.23 330.75 162.24 330.74 162.24 330.72 162.26 330.7 162.29 330.68 162.32 330.67 162.33 330.64 162.34 330.62 162.35 330.59 162.36 330.57 162.36 330.54 162.36 330.51 162.37 330.48 162.38 330.44 162.38 330.42 162.38 330.39 162.39 330.37 162.4 330.34 162.4 330.33 162.41 330.28 162.42 330.25 162.44 330.23 162.46 330.21 162.48 330.17 162.52 330.16 162.54 330.12 162.56 330.1 162.58 330.09 162.6 330.08 162.61 330.05 162.63 330.03 162.64 330.02 162.65 330.01 162.67 330 162.71 329.99 162.72 329.97 162.74 329.94 162.77 329.93 162.78 329.92 162.8 329.9 162.81 329.87 162.83 329.84 162.86 329.82 162.87 329.8 162.89 329.78 162.9 329.75 162.91 329.73 162.92 329.69 162.95 329.65 162.97 329.62 163 329.6 163.01 329.58 163.02 329.87 163.6 328.24 164.34 327.85 165.59 327.97 166.57 327.62 167.1 327.36 167.68 325.93 167.66 325.74 167.74 325.47 167.73 325.17 167.72 324.76 167.71 324.38 167.72 324.03 167.79 323.81 167.89 323.64 167.57 323.05 167.41 322.51 167.76 322.26 167.67 321.97 167.85 321.4 168.08 321.16 168.08 321.12 168.12 320.59 168.45 320.06 169.26 320.04 169.33 319.97 169.47 319.87 169.64 319.58 169.92 319.62 170.02 319.59 170.25 318.97 171.58 318.74 171.83 318.72 171.86 318.7 171.86 318.67 171.86 318.66 171.87 318.63 171.87 318.62 171.87 318.6 171.88 318.57 171.89 318.56 171.89 318.53 171.89 318.51 171.9 318.49 171.9 318.48 171.91 318.46 171.91 318.44 171.92 318.43 171.93 318.42 171.93 318.39 171.94 318.37 171.95 318.36 171.95 318.33 171.95 318.31 171.94 318.29 171.94 318.28 171.94 318.26 171.95 318.25 171.95 318.23 171.96 318.21 171.96 318.19 171.97 318.18 171.98 318.17 171.98 318.14 171.99 318.11 171.99 318.11 171.99 318.08 171.99 318.07 171.99 318.06 171.99 318.05 171.99 318.04 172 318.02 172 318 172 317.99 172.01 317.97 172.01 317.94 172.02 317.92 172.03 317.9 172.03 317.87 172.03 317.85 172.04 317.83 172.03 317.82 172.04 317.79 172.04 317.77 172.05 317.74 172.05 317.72 172.06 317.7 172.07 317.59 172.06 317.35 172.15 317.32 172.15 317.31 172.13 317.31 172.1 317.29 172.09 317.27 172.07 317.25 172.06 317.23 172.04 317.21 172.01 317.18 171.99 317.15 171.96 317.11 171.92 317.04 171.87 316.99 171.82 316.95 171.77 316.93 171.74 316.92 171.72 316.9 171.68 316.88 171.63 316.85 171.57 316.82 171.53 316.8 171.51 316.78 171.49 316.76 171.46 316.74 171.43 316.71 171.39 316.68 171.35 316.65 171.31 316.62 171.28 316.59 171.23 316.54 171.18 316.5 171.13 316.45 171.09 316.41 171.05 316.36 171.01 316.3 170.97 316.26 170.94 316.21 170.92 316.17 170.89 316.13 170.88 316.11 170.87 316.06 170.84 316.03 170.83 315.97 170.8 315.92 170.78 315.87 170.76 315.82 170.74 315.77 170.72 315.76 170.71 315.71 170.69 315.7 170.67 315.68 170.66 315.67 170.64 315.67 170.63 315.67 170.61 315.67 170.58 315.67 170.55 315.67 170.52 315.68 170.45 315.68 170.41 315.68 170.39 315.66 170.36 315.64 170.34 315.61 170.31 315.57 170.27 315.54 170.24 315.5 170.2 315.47 170.18 315.46 170.16 315.44 170.14 315.42 170.12 315.39 170.1 315.36 170.07 315.32 170.05 315.29 170.02 315.25 169.99 315.2 169.96 315.15 169.93 315.11 169.9 315.07 169.87 315.03 169.83 315 169.8 314.99 169.76 314.99 169.74 314.99 169.71 314.99 169.67 315 169.6 315 169.57 315 169.54 315 169.53 315 169.5 315 169.47 315 169.45 315 169.42 314.99 169.38 314.99 169.34 315 169.31 315 169.29 315 169.26 315 169.24 314.99 169.21 314.98 169.19 314.97 169.16 314.96 169.13 314.94 169.11 314.92 169.09 314.89 169.06 314.87 169.04 314.83 168.98 314.81 168.94 314.79 168.91 314.78 168.86 314.77 168.83 314.77 168.8 314.77 168.77 314.77 168.73 314.77 168.7 314.78 168.67 314.79 168.62 314.81 168.56 314.82 168.52 314.82 168.51 314.84 168.47 314.84 168.44 314.84 168.41 314.84 168.38 314.84 168.35 314.83 168.3 314.82 168.27 314.81 168.24 314.79 168.22 314.76 168.2 314.74 168.18 314.71 168.16 314.68 168.14 314.64 168.11 314.57 168.07 314.55 168.06 314.53 168.03 314.53 168.01 314.53 167.99 314.54 167.96 314.55 167.94 314.57 167.91 314.59 167.88 314.61 167.84 314.63 167.81 314.64 167.77 314.65 167.73 314.65 167.7 314.66 167.65 314.66 167.63 314.66 167.61 314.65 167.57 314.65 167.55 314.64 167.51 314.62 167.46 314.62 167.45 314.61 167.42 314.6 167.41 314.59 167.38 314.57 167.33 314.54 167.29 314.53 167.26 314.52 167.23 314.52 167.2 314.51 167.19 314.51 167.17 314.41 167.15 314.39 167.14 314.2 167.1 314.16 167.1 314.11 167.11 314.09 167.11 314.06 167.12 314.04 167.13 314.01 167.14 313.99 167.14 313.96 167.15 313.92 167.15 313.88 167.14 313.86 167.14 313.83 167.15 313.8 167.15 313.78 167.15 313.75 167.15 313.73 167.14 313.72 167.14 313.7 167.15 313.67 167.16 313.63 167.16 313.59 167.17 313.57 167.17 313.54 167.18 313.51 167.18 313.47 167.18 313.46 167.19 313.45 167.19 313.43 167.19 313.42 167.19 313.4 167.18 313.38 167.18 313.36 167.18 313.34 167.17 313.33 167.17 313.31 167.17 313.3 167.17 313.28 167.17 313.25 167.17 313.22 167.17 313.21 167.17 313.18 167.18 313.15 167.18 313.13 167.19 313.11 167.2 313.09 167.2 313.08 167.2 313.06 167.2 313.04 167.19 313.03 167.19 313.02 167.18 313 167.18 313 167.18 312.97 167.19 312.94 167.2 312.91 167.21 312.87 167.21 312.85 167.22 312.83 167.22 312.8 167.22 312.79 167.22 312.77 167.23 312.75 167.24 312.73 167.24 312.7 167.25 312.64 167.26 312.58 167.27 312.54 167.28 312.5 167.28 312.48 167.26 312.46 167.25 312.44 167.24 312.37 167.22 312.36 167.22 312.37 167.16 312.61 165.03 311.97 164.47 310.58 163.43 310.43 160.73 310.5 160.62 310.56 160.56 310.71 160.51 310.8 160.46 311.02 160.36 311.13 160.29 311.19 160.22 311.28 160.06 311.36 159.93 311.4 159.83 311.44 159.8 311.5 159.69 311.5 159.62 311.5 159.59 311.48 159.51 311.43 159.37 311.37 159.23 311.27 158.99 311.22 158.87 311.12 158.65 311.05 158.43 310.98 158.26 310.9 158.06 310.87 157.95 310.83 157.84 310.79 157.71 310.76 157.55 310.76 157.45 310.75 157.3 310.77 157.07 310.8 156.8 310.81 156.74 310.82 156.71 310.85 156.65 310.94 156.53 311 156.42 311.06 156.28 311.1 156.09 311.17 155.81 311.26 155.65 311.41 155.33 311.55 155.07 311.61 154.93 311.71 154.83 311.8 154.72 311.84 154.64 311.82 154.56 311.78 154.48 311.75 154.43 311.7 154.37 311.6 154.29 311.45 154.15 311.27 153.9 311.11 153.71 310.79 153.17 310.65 153.06 310.57 152.97 310.52 152.81 310.48 152.69 310.48 152.58 310.47 152.42 310.46 152.34 310.46 152.33 310.46 152.32 310.47 152.19 310.49 152.09 310.49 152.01 310.51 151.89 310.51 151.78 310.53 151.58 310.54 151.46 310.54 151.34 310.5 151.27 310.45 151.19 310.42 151.12 310.39 151.07 310.35 151.01 310.28 150.94 310.19 150.84 310.12 150.79 310.09 150.7 310.06 150.57 310.02 150.47 309.99 150.44 309.98 150.39 309.97 150.32 309.92 150.25 309.87 150.17 309.87 150.09 309.87 150.02 309.86 149.99 309.9 149.94 309.94 149.88 309.96 149.83 309.96 149.77 309.96 149.69 309.97 149.64 309.99 149.55 310 149.46 310.01 149.4 310.04 149.37 310.08 149.31 310.1 149.28 310.13 149.26 310.18 149.17 310.23 149.12 310.25 149.1 310.3 149.05 310.34 149.01 310.37 148.97 310.38 148.93 310.38 148.9 310.39 148.82 310.4 148.8 310.43 148.77 310.41 148.72 310.35 148.55 310.25 148.41 310.16 148.16 310.11 148.04 310.07 147.89 309.99 147.73 309.92 147.64 309.93 147.52 309.95 147.26 309.99 147.05 310.02 146.98 310.06 146.91 310.1 146.83 310.21 146.71 310.29 146.61 310.34 146.56 310.39 146.47 310.46 146.4 310.56 146.37 310.7 146.34 310.82 146.31 310.91 146.24 310.98 146.2 311.09 146.1 311.24 145.97 311.3 145.89 311.31 145.82 311.34 145.69 311.41 145.59 311.47 145.47 311.49 145.32 311.53 145.23 311.6 145.14 311.61 145.04 311.62 144.97 311.66 144.85 311.67 144.82 311.68 144.74 311.69 144.66 311.7 144.6 311.74 144.56 311.78 144.48 311.82 144.39 311.85 144.3 311.82 144.25 311.78 144.2 311.76 144.1 311.75 144.01 311.73 143.91 311.71 143.84 311.67 143.78 311.65 143.72 311.65 143.66 311.6 143.61 311.55 143.52 311.54 143.45 311.54 143.36 311.53 143.28 311.5 143.21 311.49 143.19 311.47 143.11 311.39 142.99 311.28 142.9 311.24 142.86 311.18 142.8 311.15 142.75 311.09 142.69 311.04 142.65 311.01 142.63 310.97 142.63 310.94 142.61 310.92 142.6 310.91 142.56 310.89 142.52 310.88 142.42 310.87 142.36 310.85 142.3 310.83 142.27 310.79 142.22 310.77 142.17 310.76 142.13 310.73 142.09 310.71 142 310.63 141.83 310.57 141.7 310.55 141.65 310.54 141.59 310.55 141.52 310.58 141.47 310.58 141.34 310.58 141.31 310.53 141.27 310.49 141.24 310.4 141.17 310.38 141.13 310.39 141.07 310.44 141.02 310.52 140.97 310.58 140.87 310.62 140.82 310.7 140.76 310.76 140.72 310.82 140.66 311.4 139.77 312.79 137.4 312.73 137.38 312.65 137.3 312.62 137.28 312.53 137.21 312.45 137.14 312.4 137.06 312.39 137.01 312.35 136.96 312.3 136.88 312.27 136.8 312.25 136.76 312.16 136.67 312.06 136.58 312.02 136.5 311.99 136.44 311.97 136.35 311.97 136.3 311.97 136.24 311.97 136.16 311.98 136.09 311.97 136.03 311.99 135.97 312 135.88 312.01 135.86 312.01 135.8 311.99 135.73 311.98 135.69 311.95 135.64 313.02 135.58 313 135.6 313.02 135.61 313.04 135.62 313.05 135.63 313.06 135.65 313.07 135.65 313.09 135.67 313.11 135.68 313.13 135.69 313.15 135.71 313.17 135.72 313.19 135.73 313.22 135.74 313.24 135.74 313.27 135.75 313.29 135.76 313.32 135.77 313.33 135.78 313.34 135.78 313.36 135.8 313.39 135.82 313.41 135.84 313.43 135.84 313.46 135.87 313.48 135.88 313.51 135.89 313.53 135.91 313.55 135.92 313.57 135.92 313.6 135.93 313.64 135.93 313.66 135.94 313.67 135.94 313.68 135.94 313.7 135.93 313.72 135.93 313.74 135.92 313.75 135.91 313.76 135.9 313.77 135.9 313.8 135.89 313.82 135.88 313.84 135.88 313.86 135.88 313.87 135.88 313.88 135.88 313.89 135.89 313.91 135.9 313.93 135.9 313.94 135.9 313.95 135.9 313.96 135.89 313.97 135.87 313.98 135.85 313.99 135.83 314 135.81 314 135.78 314 135.76 314 135.74 314.01 135.73 314.02 135.71 314.02 135.69 314.04 135.68 314.05 135.67 314.06 135.66 314.08 135.65 314.09 135.65 314.1 135.64 314.11 135.64 314.12 135.63 314.13 135.62 314.14 135.61 314.17 135.6 314.18 135.59 314.19 135.59 314.21 135.59 314.22 135.59 314.23 135.59 314.24 135.59 314.25 135.58 314.26 135.57 314.27 135.55 314.28 135.53 314.29 135.52 314.3 135.5 314.3 135.49 314.31 135.48 314.32 135.47 314.32 135.46 314.34 135.45 314.35 135.45 314.36 135.44 314.37 135.44 314.39 135.45 314.4 135.45 314.42 135.45 314.44 135.45 314.46 135.45 314.49 135.45 314.51 135.45 314.53 135.45 314.56 135.44 314.57 135.44 314.6 135.42 314.62 135.41 314.63 135.4 314.65 135.38 314.67 135.35 314.7 135.32 314.71 135.31 314.73 135.29 314.74 135.27 314.76 135.26 314.78 135.25 314.79 135.24 314.81 135.21 314.83 135.2 314.85 135.18 314.87 135.16 314.89 135.15 314.92 135.12 314.95 135.1 314.98 135.07 314.99 135.06 315.02 135.04 315.05 135.02 315.06 135 315.08 134.98 315.09 134.97 315.1 134.96 315.12 134.93 315.14 134.91 315.15 134.9 315.16 134.88 315.17 134.87 315.19 134.86 315.2 134.84 315.2 134.83 315.22 134.82 315.23 134.81 315.24 134.8 315.25 134.79 315.26 134.77 315.27 134.75 315.28 134.74 315.29 134.73 315.29 134.71 315.3 134.7 315.32 134.68 315.33 134.67 315.35 134.64 315.36 134.63 315.37 134.62 315.37 134.61 315.38 134.6 315.39 134.6 315.4 134.59 315.41 134.59 315.42 134.58 315.43 134.57 315.44 134.56 315.45 134.56 315.45 134.54 315.45 134.53 315.46 134.52 315.46 134.51 315.46 134.49 315.46 134.48 315.47 134.47 315.47 134.46 315.48 134.45 315.48 134.44 315.48 134.4 315.48 134.39 315.48 134.37 315.47 134.35 315.48 134.31 315.47 134.29 315.48 134.26 315.48 134.22 315.49 134.2 315.48 134.19 315.51 134.18 315.55 134.19 315.58 134.21 315.61 134.22 315.65 134.23 315.67 134.23 315.7 134.24 315.73 134.24 315.77 134.26 315.8 134.26 315.81 134.26 315.83 134.27 315.84 134.27 315.85 134.28 315.88 134.29 315.89 134.29 315.91 134.3 315.95 134.31 315.97 134.32 315.99 134.32 316.01 134.33 316.03 134.34 316.05 134.34 316.07 134.34 316.08 134.35 316.11 134.36 316.13 134.37 316.16 134.38 316.19 134.39 316.21 134.4 316.23 134.4 316.25 134.41 316.29 134.43 316.34 134.46 316.35 134.47 316.37 134.48 316.39 134.49 316.4 134.5 316.41 134.5 316.43 134.5 316.45 134.5 316.49 134.51 316.53 134.51 316.57 134.52 316.61 134.53 316.63 134.53 316.67 134.54 316.71 134.54 316.73 134.55 316.76 134.56 316.8 134.57 316.83 134.57 316.86 134.58 316.88 134.59 317.01 134.22 317.33 133.97 317.87 133.41 317.92 131.7 319.03 130.2 318.93 129.54 319.75 129.17 Z"/>
</g></svg>