<svg xmlns="http://www.w3.org/2000/svg" version="1.2" baseProfile="tiny" stroke-linecap="round" stroke-linejoin="round" viewBox="308.85 360.02 13.77 24.23"><g xmlns="http://www.w3.org/2000/svg" id="Azuelo">
<path d="M 311.2 361 311.21 360.91 311.22 360.86 311.26 360.63 311.27 360.59 311.29 360.47 311.33 360.27 311.35 360.13 311.37 360.04 311.43 360.04 311.59 360.05 311.79 360.07 312.04 360.08 312.3 360.1 312.52 360.12 312.73 360.14 312.84 360.18 312.9 360.21 312.98 360.24 313.17 360.33 313.47 360.46 313.53 360.49 313.69 360.55 313.89 360.64 314.05 360.71 314.27 360.81 314.35 360.85 314.41 360.9 314.49 360.94 314.6 361.02 314.71 361.08 314.74 361.1 314.93 361 315.11 360.9 315.17 360.88 315.22 360.85 315.25 360.84 315.28 360.84 315.42 360.82 315.6 360.81 315.66 360.8 315.77 360.79 315.87 360.77 315.96 360.74 315.97 360.74 316.07 360.71 316.2 360.67 316.24 360.66 316.3 360.66 316.5 360.69 316.68 360.74 316.73 360.76 316.76 360.78 316.79 360.8 316.84 360.86 316.88 360.91 316.92 360.98 316.95 361.03 316.98 361.08 317.01 361.14 317.02 361.15 317.04 361.19 317.08 361.26 317.11 361.31 317.14 361.34 317.16 361.36 317.2 361.35 317.22 361.45 317.25 361.55 317.27 361.62 317.29 361.72 317.29 361.74 317.31 361.82 317.34 361.92 317.35 361.97 317.35 362.07 317.35 362.15 317.35 362.3 317.35 362.42 317.35 362.5 317.35 362.56 317.35 362.68 317.35 362.77 317.35 362.84 317.35 362.91 317.34 362.99 317.33 363.06 317.31 363.17 317.29 363.23 317.28 363.27 317.25 363.33 317.22 363.4 317.18 363.47 317.15 363.53 317.1 363.6 317.06 363.66 317.01 363.72 316.98 363.77 316.94 363.81 316.89 363.86 316.85 363.91 316.81 363.95 316.76 364 316.7 364.06 316.63 364.12 316.56 364.18 316.49 364.24 316.43 364.3 316.36 364.36 316.29 364.44 316.23 364.51 316.06 364.67 315.99 364.75 315.92 364.82 315.84 364.89 315.86 364.97 315.89 365.06 315.92 365.12 315.96 365.23 316.02 365.4 316.09 365.62 316.1 365.63 316.15 365.79 316.22 366 316.23 366.01 316.3 366.21 316.33 366.33 316.34 366.35 316.34 366.36 316.39 366.5 316.4 366.56 316.44 366.68 316.46 366.74 316.52 366.88 316.52 366.9 316.52 366.92 316.54 367.02 316.54 367.1 316.55 367.18 316.56 367.22 316.56 367.26 316.56 367.27 316.58 367.27 316.63 367.25 316.73 367.22 316.76 367.21 316.8 367.21 316.83 367.2 316.88 367.19 316.95 367.17 317.06 367.14 317.08 367.14 317.1 367.13 317.15 367.15 317.24 367.18 317.29 367.2 317.35 367.22 317.39 367.24 317.43 367.25 317.53 367.28 317.55 367.29 317.61 367.31 317.69 367.43 317.71 367.45 317.73 367.48 317.75 367.51 317.84 367.64 317.94 367.79 318.03 367.91 318.12 368.05 318.16 368.1 318.17 368.12 318.19 368.13 318.21 368.16 318.23 368.18 318.26 368.22 318.29 368.25 318.34 368.31 318.39 368.37 318.42 368.41 318.44 368.43 318.45 368.44 318.45 368.49 318.46 368.57 318.47 368.64 318.47 368.72 318.48 368.83 318.48 368.85 318.48 368.87 318.49 368.91 318.5 368.95 318.51 369 318.52 369.08 318.53 369.18 318.54 369.21 318.55 369.25 318.55 369.29 318.56 369.34 318.56 369.38 318.56 369.41 318.57 369.51 318.57 369.53 318.6 369.62 318.6 369.63 318.62 369.7 318.63 369.73 318.64 369.75 318.65 369.8 318.67 369.85 318.68 369.88 318.69 369.9 318.7 369.93 318.72 370.02 318.72 370.03 318.73 370.05 318.73 370.07 318.75 370.13 318.75 370.14 318.77 370.21 318.79 370.25 318.8 370.3 318.81 370.31 318.82 370.33 318.84 370.38 318.86 370.43 318.88 370.48 318.9 370.53 318.91 370.56 318.92 370.6 318.95 370.67 318.98 370.76 319 370.81 319.04 370.92 319.05 370.95 319.07 371 319.08 371.03 319.09 371.05 319.11 371.09 319.13 371.13 319.16 371.18 319.19 371.22 319.21 371.25 319.22 371.27 319.23 371.28 319.25 371.31 319.27 371.35 319.29 371.38 319.31 371.4 319.33 371.43 319.36 371.46 319.37 371.47 319.4 371.5 319.41 371.53 319.44 371.57 319.46 371.61 319.49 371.67 319.52 371.72 319.55 371.77 319.57 371.83 319.59 371.86 319.61 371.9 319.63 371.94 319.65 371.98 319.66 372 319.68 372.04 319.7 372.07 319.7 372.09 319.71 372.11 319.74 372.15 319.74 372.16 319.77 372.19 319.82 372.25 319.86 372.3 319.9 372.34 319.92 372.37 319.93 372.38 319.97 372.43 320.01 372.47 320.03 372.5 320.05 372.52 320.07 372.53 320.12 372.54 320.16 372.55 320.18 372.56 320.23 372.57 320.24 372.57 320.28 372.58 320.32 372.59 320.34 372.6 320.37 372.6 320.37 372.64 320.38 372.65 320.39 372.71 320.4 372.78 320.39 372.8 320.39 372.81 320.39 372.82 320.39 372.87 320.38 372.93 320.37 372.94 320.37 372.95 320.37 372.99 320.38 373.08 320.38 373.1 320.38 373.14 320.38 373.22 320.4 373.29 320.4 373.33 320.4 373.34 320.39 373.35 320.39 373.49 320.38 373.57 320.37 373.6 320.37 373.66 320.37 373.67 320.36 373.7 320.34 373.74 320.33 373.76 320.31 373.8 320.29 373.84 320.29 373.85 320.28 373.89 320.25 373.94 320.25 373.95 320.23 373.99 320.22 374.01 320.21 374.04 320.17 374.12 320.16 374.17 320.14 374.19 320.12 374.25 320.1 374.32 320.08 374.38 320.08 374.4 320.07 374.44 320.06 374.49 320.05 374.52 320.03 374.57 320.02 374.62 320.02 374.64 320.01 374.65 320 374.68 320 374.69 319.99 374.74 319.99 374.79 319.98 374.85 319.97 374.9 319.96 374.92 319.95 374.96 319.95 374.97 319.94 375 319.92 375.08 319.92 375.11 319.89 375.19 319.87 375.24 319.86 375.29 319.84 375.36 319.83 375.41 319.81 375.46 319.8 375.51 319.78 375.57 319.77 375.59 319.75 375.67 319.72 375.76 319.69 375.85 319.66 375.93 319.63 376.04 319.6 376.1 319.59 376.13 319.56 376.23 319.54 376.28 319.54 376.32 319.53 376.36 319.89 376.5 320.1 376.59 320.34 376.69 320.37 376.7 320.58 376.78 320.72 376.79 320.77 376.79 320.89 376.8 321.27 376.82 321.4 376.83 321.44 376.86 321.45 376.87 321.48 376.9 321.7 377.09 321.77 377.15 321.8 377.18 321.82 377.19 321.83 377.2 321.84 377.21 321.92 377.27 321.94 377.28 321.99 377.31 322.05 377.34 322.07 377.35 322.22 377.43 322.26 377.45 322.33 377.49 322.37 377.5 322.42 377.52 322.49 377.54 322.52 377.55 322.53 377.55 322.59 377.57 322.56 377.6 322.46 377.71 322.43 377.74 322.39 377.78 322.35 377.82 322.32 377.86 322.31 377.87 322.18 377.99 322.08 378.08 322.06 378.1 321.96 378.19 321.94 378.21 321.9 378.25 321.83 378.31 321.8 378.34 321.79 378.35 321.77 378.36 321.71 378.42 321.7 378.43 321.67 378.46 321.61 378.52 321.57 378.54 321.52 378.58 321.51 378.59 321.5 378.59 321.43 378.64 321.41 378.65 321.38 378.67 321.39 378.68 321.4 378.71 321.41 378.73 321.43 378.76 321.43 378.77 321.44 378.82 321.45 378.86 321.46 378.91 321.47 378.94 321.47 378.98 321.46 379.02 321.46 379.08 321.45 379.15 321.45 379.25 321.46 379.34 321.46 379.39 321.46 379.44 321.45 379.46 321.44 379.49 321.41 379.54 321.4 379.57 321.4 379.6 321.4 379.65 321.4 379.72 321.4 379.77 321.39 379.84 321.38 379.91 321.37 379.98 321.35 380.05 321.33 380.1 321.32 380.12 321.32 380.13 321.32 380.16 321.33 380.19 321.33 380.21 321.36 380.26 321.38 380.3 321.4 380.33 321.42 380.35 321.43 380.37 321.44 380.39 321.45 380.45 321.46 380.51 321.46 380.55 321.47 380.6 321.48 380.64 321.49 380.66 321.51 380.68 321.54 380.72 321.58 380.76 321.61 380.8 321.63 380.84 321.64 380.89 321.65 380.95 321.66 380.99 321.66 381.04 321.67 381.08 321.66 381.12 321.65 381.15 321.65 381.17 321.67 381.21 321.7 381.28 321.73 381.33 321.75 381.35 321.78 381.38 321.81 381.4 321.83 381.43 321.85 381.47 321.88 381.53 321.91 381.57 321.94 381.6 321.97 381.64 322 381.67 322.04 381.69 322.06 381.71 322.1 381.73 322.13 381.76 322.15 381.78 322.18 381.8 322.19 381.82 322.2 381.84 322.21 381.85 322.22 381.89 322.22 381.92 322.23 381.96 322.05 382.12 322.02 382.14 321.93 382.22 321.86 382.28 321.84 382.32 321.81 382.38 321.75 382.51 321.68 382.66 321.63 382.77 321.61 382.83 321.6 382.85 321.56 383 321.53 383.09 321.52 383.1 321.5 383.26 321.48 383.37 321.47 383.46 321.45 383.55 321.45 383.59 321.43 383.69 321.43 383.7 321.41 383.8 321.41 383.81 321.4 383.88 321.39 383.9 321.38 383.97 321.35 384.07 321.34 384.1 321.33 384.16 321.32 384.25 321.3 384.23 321.28 384.18 321.27 384.17 321.25 384.14 321.24 384.13 321.23 384.12 321.19 384.05 321.17 384.02 321.1 383.91 321.07 383.87 321.02 383.8 321.01 383.78 320.96 383.71 320.88 383.58 320.77 383.42 320.67 383.28 320.67 383.27 320.62 383.2 320.61 383.19 320.55 383.1 320.51 383.04 320.48 383 320.48 382.99 320.45 382.95 320.4 382.86 320.36 382.8 320.34 382.78 320.33 382.76 320.28 382.71 320.26 382.69 320.23 382.67 320.2 382.64 320.19 382.63 320.15 382.58 320.13 382.56 320 382.43 319.91 382.35 319.89 382.33 319.85 382.33 319.74 382.34 319.67 382.34 319.61 382.35 319.5 382.36 319.33 382.37 319.27 382.38 319.17 382.39 319.15 382.39 319.12 382.39 319.03 382.4 318.89 382.4 318.74 382.42 318.62 382.43 318.6 382.43 318.58 382.43 318.48 382.44 318.44 382.44 318.41 382.45 318.38 382.45 318.36 382.45 318.3 382.45 318.21 382.46 318.14 382.46 318.12 382.46 318.11 382.47 318.06 382.47 318.05 382.47 317.98 382.48 317.89 382.48 317.83 382.49 317.75 382.5 317.68 382.5 317.63 382.49 317.56 382.48 317.53 382.48 317.4 382.45 317.37 382.45 317.32 382.44 317.31 382.44 317.3 382.44 317.29 382.43 317.27 382.43 317.17 382.38 317.15 382.37 317.13 382.36 316.96 382.28 316.84 382.22 316.83 382.22 316.8 382.21 316.77 382.19 316.74 382.18 316.64 382.13 316.56 382.1 316.52 382.08 316.51 382.08 316.5 382.07 316.47 382.06 316.46 382.05 316.43 382.04 316.37 382.01 316.33 381.99 316.28 381.97 316.25 381.95 316.23 381.95 316.2 381.93 316.15 381.91 316.12 381.9 316.07 381.88 315.97 381.84 315.96 381.84 315.84 381.79 315.66 381.73 315.55 381.69 315.52 381.68 315.44 381.65 315.41 381.64 315.39 381.64 315.28 381.61 315.11 381.57 315.03 381.55 315 381.54 314.95 381.52 314.94 381.52 314.9 381.51 314.89 381.51 314.86 381.5 314.82 381.49 314.73 381.47 314.64 381.45 314.63 381.45 314.62 381.45 314.61 381.45 314.51 381.42 314.46 381.41 314.41 381.41 314.4 381.4 314.39 381.4 314.35 381.4 314.28 381.39 314.16 381.36 314.12 381.35 314.09 381.35 314.03 381.33 314.01 381.33 313.97 381.32 313.92 381.31 313.9 381.26 313.83 381.13 313.83 381.12 313.8 381.07 313.8 381.06 313.77 381.01 313.77 381 313.73 380.93 313.73 380.92 313.69 380.83 313.67 380.79 313.62 380.69 313.59 380.64 313.56 380.57 313.54 380.52 313.5 380.44 313.5 380.44 313.48 380.4 313.44 380.31 313.43 380.28 313.38 380.18 313.35 380.12 313.32 380.07 313.32 380.06 313.28 379.98 313.25 379.92 313.23 379.88 313.2 379.81 313.18 379.77 313.17 379.74 313.14 379.67 313.12 379.64 313.08 379.56 313.04 379.43 313.04 379.4 313.03 379.38 313.02 379.36 313.01 379.3 312.99 379.2 313 379.17 313.03 379.05 313.03 379.04 313.05 378.96 313.06 378.94 313.12 378.7 313.14 378.65 313.2 378.47 313.27 378.23 313.29 378.18 313.31 378.14 313.37 377.97 313.38 377.96 313.46 377.91 313.46 377.84 313.45 377.75 313.45 377.74 313.49 377.61 313.53 377.47 313.57 377.35 313.59 377.27 313.61 377.23 313.66 377.19 313.71 377.16 313.73 377.13 313.82 377.01 313.91 376.87 313.95 376.83 313.98 376.78 314.03 376.72 314.04 376.7 314.08 376.64 314.09 376.63 314.1 376.62 314.11 376.61 314.13 376.59 314.2 376.49 314.25 376.43 314.32 376.35 314.35 376.32 314.43 376.21 314.48 376.16 314.5 376.13 314.51 376.12 314.52 376.09 314.52 376.04 314.51 375.99 314.49 375.89 314.49 375.87 314.48 375.81 314.46 375.73 314.46 375.68 314.46 375.64 314.46 375.63 314.46 375.6 314.46 375.53 314.47 375.49 314.48 375.45 314.49 375.44 314.51 375.38 314.53 375.33 314.54 375.32 314.54 375.31 314.55 375.3 314.55 375.29 314.6 375.23 314.68 375.12 314.73 375.04 314.8 374.93 314.86 374.82 314.91 374.73 314.92 374.7 315 374.57 315.08 374.39 315.09 374.38 315.11 374.33 315.14 374.28 315.18 374.19 315.18 374.19 315.19 374.17 315.22 374.1 315.28 373.98 315.3 373.94 315.31 373.93 315.36 373.82 315.37 373.77 315.37 373.76 315.38 373.7 315.39 373.62 315.4 373.52 315.42 373.42 315.42 373.39 315.44 373.3 315.44 373.25 315.46 373.11 315.47 372.92 315.47 372.87 315.48 372.83 315.48 372.8 315.49 372.75 315.5 372.74 315.5 372.72 315.51 372.66 315.52 372.64 315.52 372.61 315.53 372.59 315.57 372.44 315.58 372.43 315.58 372.42 315.58 372.41 315.59 372.39 315.61 372.33 315.61 372.32 315.61 372.31 315.65 372.14 315.66 372.1 315.68 372.04 315.68 372.02 315.68 372.02 315.71 371.93 315.71 371.92 315.72 371.89 315.71 371.88 315.69 371.83 315.66 371.76 315.64 371.72 315.63 371.69 315.6 371.65 315.6 371.64 315.58 371.61 315.57 371.59 315.54 371.54 315.52 371.5 315.5 371.47 315.48 371.45 315.45 371.4 315.41 371.35 315.39 371.32 315.36 371.29 315.34 371.28 315.33 371.27 315.32 371.25 315.3 371.23 315.29 371.21 315.27 371.18 315.27 371.14 315.28 371.09 315.28 371.07 315.3 371.01 315.31 370.99 315.27 370.96 315.25 370.96 315.24 370.94 315.17 370.9 315.08 370.85 315.07 370.84 315.01 370.8 314.99 370.79 314.97 370.78 314.89 370.73 314.82 370.67 314.8 370.67 314.79 370.66 314.71 370.61 314.63 370.56 314.56 370.5 314.52 370.45 314.48 370.39 314.43 370.33 314.38 370.28 314.32 370.22 314.23 370.12 314.19 370.08 314.14 370.02 314.09 369.97 314.07 369.94 314.02 369.92 313.95 369.9 313.91 369.89 313.9 369.89 313.88 369.88 313.86 369.88 313.78 369.85 313.66 369.81 313.61 369.8 313.6 369.79 313.55 369.78 313.52 369.76 313.48 369.76 313.44 369.75 313.43 369.74 313.41 369.74 313.38 369.74 313.32 369.75 313.27 369.75 313.23 369.73 313.23 369.73 313.22 369.72 313.16 369.68 313.12 369.63 313.07 369.56 313.03 369.5 313.01 369.46 312.99 369.43 312.93 369.36 312.92 369.34 312.89 369.3 312.88 369.29 312.87 369.28 312.86 369.25 312.83 369.21 312.77 369.25 312.74 369.26 312.7 369.28 312.67 369.3 312.65 369.31 312.57 369.35 312.5 369.37 312.43 369.41 312.38 369.43 312.36 369.44 312.29 369.45 312.22 369.45 312.17 369.47 312.1 369.48 312.08 369.48 312.06 369.48 312.03 369.49 311.99 369.49 311.94 369.49 311.93 369.49 311.9 369.48 311.85 369.47 311.81 369.45 311.75 369.41 311.69 369.38 311.67 369.37 311.65 369.34 311.62 369.28 311.6 369.23 311.57 369.19 311.56 369.16 311.52 369.1 311.49 369.03 311.46 368.98 311.41 368.92 311.39 368.86 311.36 368.8 311.33 368.7 311.3 368.66 311.26 368.62 311.23 368.58 311.19 368.56 311.16 368.52 311.14 368.47 311.1 368.42 311.06 368.39 311.03 368.33 311.02 368.29 311.01 368.27 311.01 368.26 311.01 368.25 310.99 368.2 310.97 368.16 310.93 368.1 310.89 368.04 310.85 367.98 310.8 367.93 310.75 367.86 310.71 367.8 310.67 367.75 310.63 367.7 310.6 367.66 310.59 367.66 310.54 367.6 310.53 367.59 310.48 367.55 310.42 367.51 310.38 367.46 310.3 367.4 310.3 367.39 310.26 367.35 310.25 367.34 310.21 367.28 310.17 367.23 310.13 367.17 310.12 367.15 310.08 367.09 310.04 367.02 310 366.95 309.99 366.94 309.97 366.9 309.93 366.84 309.91 366.8 309.89 366.78 309.89 366.78 309.89 366.77 309.88 366.75 309.87 366.73 309.81 366.64 309.77 366.57 309.71 366.48 309.66 366.4 309.64 366.37 309.6 366.3 309.56 366.24 309.55 366.22 309.53 366.18 309.51 366.15 309.5 366.14 309.47 366.1 309.46 366.09 309.45 366.07 309.42 366.03 309.37 365.97 309.31 365.89 309.3 365.87 309.24 365.8 309.19 365.72 309.12 365.63 309.06 365.55 309 365.46 308.94 365.38 308.92 365.34 308.89 365.3 308.87 365.28 308.85 365.27 308.89 365.24 308.97 365.18 309.04 365.14 309.08 365.11 309.15 365.06 309.17 365.05 309.22 365.02 309.27 365 309.33 364.97 309.38 365.02 309.45 365.07 309.5 365.12 309.53 365.14 309.56 365.18 309.57 365.2 309.61 365.25 309.65 365.29 309.67 365.32 309.69 365.35 309.69 365.39 309.69 365.41 309.69 365.43 309.71 365.5 309.72 365.56 309.73 365.62 309.74 365.64 309.77 365.68 309.79 365.7 309.82 365.7 309.84 365.7 309.86 365.69 309.89 365.69 309.91 365.7 309.94 365.72 310.01 365.77 310.01 365.78 310.06 365.82 310.07 365.82 310.09 365.84 310.12 365.86 310.13 365.87 310.16 365.9 310.21 365.95 310.23 365.98 310.24 365.99 310.29 366.02 310.32 366.05 310.34 366.07 310.35 366.07 310.38 366.09 310.42 366.12 310.44 366.13 310.45 366.13 310.47 366.12 310.5 366.1 310.52 366.08 310.54 366.05 310.58 365.99 310.61 365.94 310.63 365.92 310.65 365.88 310.66 365.85 310.67 365.83 310.67 365.78 310.67 365.73 310.68 365.67 310.68 365.62 310.69 365.58 310.76 365.58 310.84 365.58 310.89 365.58 310.93 365.58 310.97 365.57 310.99 365.57 311 365.57 311.05 365.57 311.07 365.57 311.08 365.55 311.09 365.5 311.12 365.41 311.14 365.34 311.14 365.3 311.15 365.28 311.15 365.26 311.15 365.25 311.16 365.21 311.17 365.16 311.18 365.07 311.18 364.94 311.18 364.84 311.18 364.71 311.18 364.62 311.18 364.5 311.19 364.37 311.19 364.22 311.19 364.15 311.19 364.02 311.19 363.93 311.19 363.9 311.19 363.88 311.19 363.78 311.2 363.66 311.2 363.55 311.2 363.42 311.2 363.28 311.2 363.18 311.21 363.07 311.21 362.91 311.21 362.89 311.21 362.76 311.21 362.67 311.21 362.62 311.19 362.48 311.19 362.39 311.18 362.27 311.17 362.18 311.15 362.03 311.14 361.97 311.11 361.85 311.1 361.78 311.08 361.67 311.09 361.58 311.11 361.46 311.13 361.35 311.16 361.2 311.18 361.1 311.2 361 Z"/>
</g></svg>