<svg xmlns="http://www.w3.org/2000/svg" version="1.2" baseProfile="tiny" stroke-linecap="round" stroke-linejoin="round" viewBox="583.8 122.75 30.18 45.45"><g xmlns="http://www.w3.org/2000/svg" id="Baigorri">
<path d="M 591.87 124.09 592.14 124.33 592.45 124.43 592.78 124.51 593.26 124.8 593.48 124.89 593.6 124.92 593.97 124.91 594.31 124.94 594.39 124.82 594.42 124.83 594.51 124.85 594.6 124.86 594.69 124.88 594.8 124.91 594.86 124.87 594.95 124.81 595.03 124.74 595.14 124.62 595.21 124.54 595.25 124.52 595.33 124.5 595.44 124.45 595.53 124.39 595.62 124.34 595.67 124.28 595.81 124.15 595.96 124.04 596.11 123.92 596.16 123.88 596.2 123.84 596.25 123.8 596.31 123.76 596.39 123.72 596.42 123.68 596.46 123.64 596.51 123.61 596.59 123.52 596.64 123.48 596.67 123.46 596.71 123.44 596.82 123.41 596.87 123.41 596.94 123.36 596.99 123.31 597.04 123.28 597.08 123.27 597.12 123.25 597.18 123.22 597.22 123.17 597.27 123.1 597.3 123.02 597.32 122.95 597.35 122.92 597.38 122.89 597.42 122.87 597.46 122.83 597.52 122.79 597.56 122.76 597.67 123.06 597.8 123.2 598.15 123.5 598.26 123.54 598.85 123.86 599.01 123.95 599.44 124.05 599.96 123.99 599.96 123.98 599.97 123.96 599.98 123.92 599.99 123.87 600 123.84 600.01 123.82 600.02 123.81 600.05 123.79 600.08 123.77 600.13 123.75 600.15 123.73 600.18 123.69 600.25 123.62 600.28 123.6 600.29 123.6 600.3 123.61 600.31 123.62 600.31 123.63 600.3 123.68 600.29 123.76 600.29 123.79 600.29 123.81 600.3 123.84 600.34 123.89 600.38 123.93 600.44 123.97 600.54 124.02 600.65 124.07 600.78 124.1 600.86 124.12 600.91 124.11 600.94 124.11 601 124.09 601.28 124.02 601.64 124.12 601.84 124.21 602.4 124.28 602.97 124.34 603.53 124.41 603.54 124.43 603.7 124.62 603.78 124.75 603.79 124.77 603.81 124.81 604.35 125.15 604.43 125.74 604.34 126.78 604.55 127.15 604.52 127.51 604.53 127.54 604.54 127.61 604.45 128.24 604.33 128.82 604.2 129.4 604.26 129.59 604.43 129.91 604.45 129.91 604.46 129.91 604.5 129.98 604.54 130.04 604.57 130.11 604.58 130.14 604.58 130.17 604.58 130.21 604.58 130.24 604.58 130.26 604.6 130.29 604.64 130.39 604.66 130.43 604.68 130.44 604.7 130.44 604.71 130.44 604.96 130.85 605.37 131.21 605.72 131.42 606.12 131.36 606.24 131.37 606.34 131.39 606.43 131.42 606.51 131.43 606.59 131.4 606.7 131.41 606.8 131.43 606.88 131.45 606.97 131.47 607.04 131.47 607.15 131.49 607.23 131.52 607.3 131.55 607.37 131.59 607.44 131.63 607.52 131.65 607.59 131.72 607.65 131.76 607.74 131.8 607.83 131.83 607.93 131.9 608.01 131.96 608.09 132.03 608.18 132.12 608.24 132.19 608.4 132.4 608.3 132.49 608.17 132.59 608.14 132.62 608.16 132.63 608.22 132.68 608.29 132.73 608.41 132.79 608.53 132.82 608.65 132.87 608.73 132.89 608.85 132.96 608.94 133.03 609.03 133.12 609.1 133.17 609.21 133.21 609.29 133.22 609.37 133.2 609.47 133.2 609.56 133.21 609.6 133.22 609.67 133.26 609.75 133.32 609.8 133.39 609.88 133.46 609.95 133.53 610.03 133.61 610.17 133.74 610.25 133.81 610.32 133.9 610.41 133.97 610.46 134.04 610.49 134.11 610.54 134.19 610.63 134.29 610.72 134.41 610.81 134.99 610.95 135.3 611.4 135.69 611.51 135.78 612.11 136.23 612.16 136.29 612.22 136.28 612.29 136.29 612.35 136.32 612.36 136.34 612.37 136.39 612.41 136.45 612.47 136.51 612.52 136.56 612.61 136.62 612.7 136.66 612.81 136.68 612.92 136.7 613.01 136.74 613.14 136.8 613.29 136.88 613.39 136.94 613.46 136.98 613.53 136.99 613.63 137.01 613.62 137.12 613.62 137.14 613.59 137.49 613.55 137.56 613.81 137.95 613.93 138.2 613.95 138.43 613.87 138.56 613.6 138.7 613.5 138.83 613.43 139.17 613.32 139.65 612.81 140.43 612.79 140.41 612.78 140.39 612.77 140.37 612.76 140.35 612.75 140.34 612.74 140.35 612.74 140.38 612.75 140.41 612.76 140.44 612.76 140.47 612.76 140.51 612.78 140.59 612.78 140.64 612.77 140.7 612.77 140.78 612.7 141.26 612.7 141.45 612.62 141.58 612.27 142.36 612.06 142.72 612 142.88 611.72 143.42 611.69 143.5 611.96 143.96 612.23 144.56 612.23 144.8 612.25 145.37 611.99 145.46 612.07 145.68 612.25 145.98 612.11 146.24 612.07 146.42 612.44 146.69 612.5 146.79 612.39 147.06 612.25 147.27 612.22 147.36 612.39 147.44 612.38 147.45 612.38 147.46 612.41 147.5 612.48 147.56 612.52 147.61 612.53 147.62 612.53 147.63 612.53 147.65 612.51 147.76 612.49 147.93 612.47 148 612.46 148.03 612.43 148.06 612.42 148.06 612.41 148.07 612.78 148.56 612.92 148.75 612.88 148.9 612.74 149.08 612.56 149.39 612.65 149.61 612.71 149.86 612.9 150.35 612.92 150.36 612.94 150.36 612.97 150.37 612.99 150.38 613 150.39 613.01 150.4 613.02 150.44 613.02 150.46 613.02 150.48 613.02 150.5 613.03 150.53 613.02 150.57 613.02 150.6 613.02 150.63 613.03 150.66 613.04 150.69 613.05 150.72 613.07 150.76 613.08 150.78 613.09 150.81 613.11 150.83 613.12 150.86 613.13 150.89 613.15 150.92 613.16 150.94 613.18 150.96 613.19 150.99 613.2 151.01 613.21 151.02 613.1 151.19 613.11 151.44 612.99 151.93 612.92 152.22 613.03 152.22 613.34 151.9 613.36 151.93 613.37 151.97 613.38 152.05 613.39 152.09 613.42 152.13 613.44 152.16 613.46 152.2 613.47 152.22 613.48 152.25 613.49 152.32 613.49 152.36 613.48 152.4 613.46 152.49 613.46 152.53 613.45 152.57 613.43 152.61 613.42 152.65 613.39 152.7 613.38 152.74 613.37 152.79 613.35 152.84 613.34 152.88 613.32 152.92 613.3 152.95 613.28 152.99 613.24 153.05 613.21 153.09 613.19 153.13 613.16 153.16 613.14 153.2 613.12 153.23 613.09 153.26 613.06 153.29 613.04 153.33 613.03 153.37 613.01 153.4 612.99 153.44 612.98 153.46 612.98 153.53 613 153.52 613.03 153.51 613.08 153.49 613.28 153.46 613.49 153.43 613.52 153.62 613.48 153.85 613.03 154.59 612.87 155.07 612.88 155.42 612.85 155.41 612.83 155.41 612.8 155.42 612.75 155.46 612.63 155.59 612.47 155.8 612.38 155.91 612.35 155.93 612.33 155.94 612.29 155.95 612.22 155.97 611.55 156.3 611.36 156.44 611.28 156.56 611.25 156.9 611.2 157.15 611.1 157.23 610.54 157.33 610.29 157.49 610.18 157.69 610.14 157.94 610.19 158.97 610.26 159.28 610.58 159.56 610.83 159.85 611.14 160.32 611.28 160.4 611.28 160.41 611.28 160.43 611.27 160.46 611.26 160.48 611.25 160.49 611.22 160.56 611.2 160.57 611.18 160.59 611.17 160.6 611.15 160.6 611.13 160.6 611.12 160.6 611.1 160.6 611.08 160.61 611.06 160.61 611.04 160.63 611.03 160.65 611.02 160.67 611.02 160.69 611 160.71 610.99 160.73 610.99 160.75 610.98 160.77 610.97 160.81 610.96 160.84 610.96 160.88 610.91 161.03 610.83 161.24 610.77 161.38 610.75 161.41 610.86 161.53 610.89 162.18 610.6 162.65 610.55 162.77 610.52 162.84 610.49 162.9 610.46 162.95 610.41 163.03 610.35 163.13 610.31 163.2 610.27 163.29 610.25 163.34 610.24 163.37 610.19 163.5 610.17 163.53 610.15 163.56 610.13 163.57 610.12 163.57 610.1 163.57 610.08 163.57 610.06 163.55 610.03 163.54 609.96 163.52 609.93 163.52 609.87 163.52 609.8 163.53 609.71 163.55 609.63 163.57 609.54 163.6 609.53 163.61 609.51 163.61 609.5 163.6 609.45 163.6 609.43 163.59 609.41 163.59 609.36 163.6 609.32 163.61 609.23 163.65 609.14 163.69 609.06 163.74 608.98 163.79 608.92 163.83 608.88 163.85 608.86 163.86 608.82 163.86 608.7 163.87 608.59 163.87 608.48 163.87 608.4 163.87 608.35 163.89 608.32 163.89 608.24 163.91 608.19 163.92 608.15 163.92 608.11 163.92 608.08 163.9 608.06 163.89 608.01 163.86 607.96 163.82 607.88 163.79 607.83 163.77 607.8 163.77 607.77 163.78 607.68 163.81 607.59 163.85 607.57 163.87 607.53 163.9 607.46 164 607.41 164.07 607.37 164.12 607.29 164.2 607.23 164.25 607.18 164.32 607.14 164.4 607.11 164.44 607.07 164.51 607.01 164.58 606.94 164.65 606.87 164.73 606.81 164.8 606.77 164.84 606.73 164.88 606.69 164.9 606.65 164.92 606.61 164.95 606.52 165.03 606.47 165.08 606.43 165.13 606.41 165.16 606.38 165.23 606.36 165.26 606.32 165.33 606.27 165.4 606.21 165.47 606.15 165.53 606.11 165.56 606.09 165.58 606.08 165.6 606.07 165.62 606.07 165.65 606.09 165.72 606.12 165.78 606.12 165.81 606.12 165.83 606.11 165.86 606.09 165.93 606.06 166 606.05 166.04 606.04 166.1 606.03 166.18 606.03 166.23 606.03 166.26 606.04 166.3 606.04 166.35 606.05 166.38 606.06 166.42 606.06 166.46 606.06 166.52 606.07 166.56 606.07 166.6 606.07 166.66 606.07 166.7 606.06 166.74 606.04 166.78 606.02 166.8 605.99 166.86 605.97 166.92 605.93 167.02 605.9 167.08 605.87 167.12 605.85 167.13 605.83 167.14 605.76 167.17 605.73 167.19 605.7 167.21 605.68 167.23 605.62 167.8 605.59 168.08 604.67 168.17 604.59 168.13 604.52 168.09 604.47 168.07 604.42 168.03 604.37 167.99 604.31 167.94 604.22 167.87 604.15 167.81 604.09 167.76 604.03 167.72 604.01 167.65 603.97 167.57 603.94 167.51 603.92 167.43 603.89 167.3 603.88 167.22 603.82 167.1 603.79 166.91 603.74 166.8 603.67 166.68 603.58 166.55 603.48 166.35 603.37 166.17 603.28 166.09 603.19 165.98 603.05 165.83 602.92 165.73 602.85 165.65 602.74 165.53 602.66 165.51 602.55 165.48 602.41 165.42 602.32 165.38 602.23 165.33 602.19 165.3 602.18 165.29 602.14 165.25 602.12 165.2 602.09 165.13 602.07 165.05 602.03 164.98 601.99 164.91 601.94 164.84 601.86 164.76 601.77 164.69 601.7 164.66 601.64 164.6 601.61 164.56 601.57 164.49 601.55 164.4 601.51 164.28 601.48 164.18 601.46 164.1 601.41 164.02 601.38 163.97 601.34 163.91 601.31 163.85 601.28 163.79 601.26 163.74 601.24 163.7 601.22 163.67 601.2 163.65 601.18 163.63 601.16 163.62 601.13 163.62 601.1 163.62 601.08 163.61 601.04 163.59 600.97 163.56 600.91 163.52 600.8 163.49 600.74 163.48 600.69 163.45 600.64 163.44 600.55 163.4 600.52 163.38 600.48 163.35 600.44 163.33 600.41 163.31 600.37 163.27 600.34 163.23 600.3 163.19 600.26 163.12 600.24 163.07 600.22 163.02 600.21 162.97 600.22 162.93 600.23 162.86 600.23 162.81 600.23 162.78 600.22 162.74 600.2 162.71 600.18 162.67 600.18 162.64 600.2 162.61 600.21 162.59 600.23 162.55 600.23 162.52 600.23 162.47 600.22 162.43 600.21 162.39 600.19 162.36 600.17 162.34 600.15 162.32 600.13 162.28 600.11 162.25 600.08 162.21 600.06 162.2 600.01 162.16 599.98 162.15 599.96 162.14 599.92 162.14 599.89 162.14 599.87 162.14 599.84 162.14 599.8 162.13 599.77 162.13 599.73 162.13 599.7 162.13 599.67 162.12 599.66 162.11 599.64 162.08 599.64 162.05 599.62 162.03 599.61 162.02 599.59 162.01 599.55 162.01 599.52 162.01 599.49 162 599.46 161.98 599.44 161.96 599.42 161.94 599.38 161.9 599.35 161.87 599.31 161.86 599.26 161.86 599.22 161.85 599.19 161.82 599.16 161.78 599.15 161.74 599.15 161.7 599.14 161.66 599.12 161.63 599.1 161.6 599.09 161.59 599.07 161.55 599.07 161.53 599.06 161.48 599.07 161.45 599.08 161.43 599.12 161.37 599.14 161.35 599.18 161.26 599.2 161.23 599.2 161.2 599.2 161.17 599.19 161.14 599.16 161.12 599.11 161.1 599.05 161.08 598.99 161.06 598.94 161.05 598.89 161.04 598.85 161.02 598.83 161.01 598.83 160.97 598.81 160.94 598.78 160.92 598.73 160.9 598.69 160.89 598.66 160.86 598.64 160.82 598.63 160.8 598.63 160.78 598.61 160.73 598.6 160.7 598.57 160.66 598.5 160.61 598.42 160.56 598.39 160.55 598.36 160.54 598.33 160.53 598.31 160.5 598.29 160.48 598.17 160.43 598.07 160.38 598.03 160.36 598.01 160.35 597.98 160.37 597.92 160.38 597.89 160.39 597.84 160.39 597.8 160.39 597.75 160.37 597.71 160.35 597.68 160.32 597.63 160.28 597.57 160.24 597.53 160.21 597.49 160.2 597.45 160.2 597.41 160.22 597.38 160.24 597.34 160.27 597.3 160.28 597.27 160.27 597.24 160.27 597.16 160.24 597.08 160.2 597.04 160.19 596.99 160.17 596.94 160.17 596.9 160.17 596.86 160.16 596.83 160.15 596.78 160.15 596.74 160.12 596.7 160.1 596.67 160.08 596.63 160.06 596.59 160.05 596.55 160.07 596.5 160.1 596.44 160.13 596.39 160.15 596.32 160.17 596.27 160.17 596.21 160.17 596.14 160.15 596.11 160.12 596.07 160.09 596.04 160.08 596 160.1 595.96 160.08 595.96 160.13 595.95 160.21 595.95 160.28 595.95 160.38 595.94 160.45 595.93 160.5 595.91 160.56 595.9 160.63 595.9 160.71 595.94 160.84 595.98 160.9 595.99 160.94 596.03 160.99 596.11 161.03 596.21 161.07 596.29 161.14 596.34 161.21 596.38 161.29 596.4 161.33 596.4 161.34 596.42 161.41 596.45 161.5 596.46 161.57 596.47 161.66 596.48 161.72 596.48 161.73 596.48 161.8 596.47 161.83 596.43 161.89 596.4 161.96 596.37 162.05 596.34 162.08 596.33 162.07 596.29 162.04 596.22 162 596.18 161.96 596.16 161.92 596.13 161.86 596.12 161.81 596.1 161.75 596.1 161.72 596.09 161.69 596.07 161.66 596.06 161.65 596.03 161.62 596 161.62 595.97 161.6 595.94 161.59 595.84 161.54 595.74 161.49 595.69 161.47 595.62 161.47 595.56 161.47 595.51 161.48 595.46 161.48 595.39 161.47 595.33 161.45 595.3 161.43 595.25 161.42 595.13 161.41 595.06 161.4 594.94 161.37 594.88 161.39 594.83 161.4 594.79 161.42 594.75 161.43 594.72 161.46 594.69 161.47 594.66 161.5 594.64 161.52 594.62 161.54 594.59 161.55 594.56 161.57 594.5 161.59 594.47 161.62 594.41 161.67 594.35 161.73 594.32 161.76 594.29 161.78 594.23 161.82 594.15 161.89 594.06 161.95 593.97 162 593.9 162.03 593.87 162.04 593.08 161.61 592.3 161.18 591.52 160.75 590.73 160.32 590.34 160.17 589.61 159.77 589.58 159.78 589.56 159.77 589.53 159.77 589.5 159.76 589.48 159.75 589.46 159.74 589.43 159.71 589.41 159.69 589.39 159.67 589.36 159.65 589.34 159.63 589.32 159.62 589.3 159.6 589.28 159.58 589.27 159.57 589.24 159.55 589.23 159.53 589.21 159.52 589.19 159.51 589.18 159.49 589.14 159.48 589.12 159.46 589.09 159.43 589.06 159.41 589.02 159.38 588.99 159.35 588.97 159.32 588.95 159.3 588.93 159.28 588.92 159.25 588.91 159.22 588.89 159.2 588.88 159.17 588.87 159.14 588.87 159.12 588.87 159.1 588.86 159.09 588.85 159.08 588.83 159.06 588.83 159.04 588.83 159.01 588.84 158.99 588.86 158.96 588.88 158.94 588.89 158.92 588.91 158.91 588.93 158.89 588.94 158.87 588.96 158.84 588.96 158.83 588.97 158.8 588.95 158.77 588.94 158.76 588.91 158.74 588.89 158.73 588.86 158.73 588.84 158.73 588.82 158.74 588.8 158.74 588.78 158.74 588.76 158.73 588.75 158.73 588.73 158.73 588.7 158.73 588.69 158.71 588.67 158.69 588.66 158.68 588.65 158.67 588.63 158.64 588.61 158.63 588.6 158.62 588.58 158.62 588.56 158.61 588.53 158.6 588.5 158.6 588.48 158.58 588.45 158.57 588.43 158.56 588.42 158.54 588.4 158.51 588.37 158.49 588.35 158.48 588.32 158.47 588.29 158.47 588.26 158.48 588.23 158.5 588.19 158.51 588.15 158.52 588.08 158.54 588.03 158.54 587.98 158.54 587.96 158.54 587.94 158.52 587.93 158.51 587.92 158.49 587.9 158.48 587.87 158.48 587.86 158.48 587.83 158.48 587.81 158.48 587.79 158.47 587.78 158.47 587.76 158.46 587.72 158.46 587.7 158.47 587.68 158.48 587.66 158.5 587.65 158.51 587.62 158.53 587.6 158.53 587.58 158.53 587.57 158.53 587.55 158.53 587.53 158.54 587.51 158.53 587.5 158.51 587.48 158.49 587.46 158.47 587.44 158.44 587.41 158.41 587.38 158.39 587.36 158.37 587.33 158.36 587.3 158.35 587.25 158.35 587.18 158.34 587.12 158.33 587.08 158.31 587.05 158.31 587.01 158.32 586.98 158.33 586.96 158.34 586.94 158.36 586.91 158.39 586.89 158.4 586.87 158.4 586.85 158.39 586.83 158.38 586.81 158.37 586.78 158.36 586.76 158.36 586.75 158.36 586.72 158.36 586.7 158.36 586.68 158.36 586.63 158.36 586.61 158.36 586.59 158.36 586.58 158.36 586.56 158.36 586.54 158.36 586.53 158.36 586.5 158.36 586.49 158.37 586.47 158.37 586.45 158.37 586.43 158.36 586.42 158.35 586.4 158.34 586.38 158.33 586.32 158.3 586.31 158.23 586.31 158.2 586.31 158.17 586.3 158.12 586.27 158.05 586.24 157.98 586.22 157.92 586.21 157.88 586.2 157.85 586.21 157.84 586.24 157.79 586.25 157.77 586.24 157.74 586.25 157.71 586.25 157.69 586.25 157.67 586.26 157.65 586.26 157.63 586.26 157.61 586.25 157.59 586.25 157.57 586.24 157.55 586.23 157.52 586.22 157.51 586.2 157.49 586.18 157.49 586.16 157.48 586.15 157.47 586.13 157.45 586.1 157.43 586.07 157.41 586 157.39 585.96 157.38 585.94 157.38 585.93 157.38 585.91 157.37 585.89 157.36 585.87 157.34 585.85 157.32 585.83 157.31 585.8 157.28 585.76 157.25 585.73 157.23 585.71 157.22 585.68 157.2 585.66 157.18 585.65 157.16 585.64 157.14 585.63 157.12 585.62 157.08 585.61 157.06 585.59 157.04 585.57 157.04 585.56 157.03 585.53 157.03 585.52 157.02 585.49 157 585.46 156.98 585.39 156.92 585.28 156.81 585.22 156.73 585.16 156.65 585.1 156.58 585.09 156.53 585.09 156.51 584.95 156.43 584.85 156.36 584.75 156.29 584.58 156.19 584.46 156.13 584.35 156.13 584.24 155.86 584.18 155.55 583.83 155.08 583.85 155.06 583.88 154.97 583.91 154.89 583.94 154.81 583.94 154.8 583.96 154.75 583.97 154.72 584.09 154.63 584.46 154.72 584.89 154.82 584.97 154.79 585.05 154.76 585.18 154.72 585.31 154.67 585.4 154.64 585.43 154.63 585.42 153.65 584.95 152.67 584.97 151.65 584.97 151.6 585.07 151.54 585.09 151.53 585.17 151.49 585.17 150.3 585.18 150.01 585.18 150 585.18 149.97 585.21 149.6 585.25 148.95 585.21 148.83 585.01 148.28 585.07 148.06 585.1 147.96 585.14 147.8 585.15 147.78 585.19 147.58 585.2 147.53 585.23 147.44 585.3 147.16 585.3 147.15 585.33 147.04 585.35 146.98 585.36 146.94 585.37 146.9 585.37 146.86 585.37 146.83 585.37 146.81 585.37 146.8 585.37 146.79 585.36 146.74 585.36 146.73 585.35 146.64 585.35 146.54 585.34 146.45 585.33 146.44 585.33 146.34 585.32 146.24 585.31 146.16 585.3 146.1 585.3 146.09 585.3 146.08 585.3 146.06 585.3 146 585.29 145.99 585.31 145.94 585.32 145.92 585.34 145.88 585.38 145.83 585.49 145.71 585.52 145.67 585.53 145.65 585.6 145.59 585.65 145.54 585.67 145.52 585.71 145.47 585.76 145.42 585.81 145.38 585.81 145.38 585.85 145.32 585.87 145.3 585.89 145.27 585.92 145.21 585.95 145.15 585.99 145.08 586 145.07 586.02 145.02 586.06 144.96 586.1 144.89 586.14 144.82 586.19 144.76 586.22 144.71 586.29 144.6 586.33 144.55 586.37 144.51 586.41 144.46 586.45 144.43 586.5 144.38 586.59 144.29 586.64 144.24 586.69 144.19 586.75 144.14 586.77 144.11 586.8 144.08 586.86 144.03 586.93 143.97 587 143.91 587.06 143.85 587.1 143.81 587.16 143.75 587.17 143.74 587.23 143.69 587.28 143.64 587.29 143.63 587.34 143.59 587.38 143.56 587.4 143.54 587.45 143.49 587.52 143.43 587.55 143.4 587.59 143.37 587.65 143.32 587.66 143.31 587.72 143.26 587.78 143.2 587.8 143.18 587.85 143.13 587.91 143.08 587.97 143.04 587.98 143.03 588.05 142.97 588.09 142.92 588.14 142.87 588.17 142.84 588.2 142.82 588.26 142.76 588.28 142.74 588.31 142.71 588.36 142.67 588.38 142.65 588.42 142.64 588.43 142.63 588.5 142.61 588.57 142.6 588.61 142.59 588.65 142.58 588.74 142.56 588.8 142.55 588.83 142.54 588.88 142.53 588.93 142.52 588.94 142.51 589.01 142.5 589.07 142.47 589.14 142.44 589.19 142.42 589.24 142.4 589.26 142.4 589.26 142.4 589.33 142.38 589.38 142.36 589.39 142.36 589.46 142.34 589.48 142.34 589.52 142.33 589.56 142.32 589.59 142.31 589.64 142.29 589.65 142.29 589.72 142.26 589.72 142.26 589.79 142.23 589.85 142.21 589.91 142.17 589.95 142.15 589.97 142.14 590 142.12 590.01 142.1 590.09 142.04 590.74 142.15 590.8 142.16 591.2 141.23 590.73 140.8 590.27 140.38 590.24 140.33 590.16 140.19 590.07 140.05 589.93 139.72 589.84 139.47 589.86 139.41 589.87 139.32 589.89 139.25 589.9 139.18 589.92 139.11 589.93 139.03 589.94 138.97 589.97 138.89 590 138.8 590.03 138.73 590.06 138.66 590.09 138.57 590.12 138.5 590.15 138.43 590.18 138.35 590.21 138.29 590.25 138.21 590.29 138.14 590.32 138.08 590.35 138.03 590.49 137.84 590.54 137.77 590.59 137.71 590.63 137.64 590.68 137.6 590.79 137.5 590.83 137.45 590.93 137.37 590.89 137.21 590.89 137.2 590.89 137.19 590.77 136.79 590.76 136.72 590.75 136.65 590.73 136.58 590.71 136.54 590.72 136.5 590.73 136.44 590.75 136.39 590.76 136.33 590.76 136.26 590.77 136.18 590.78 136.12 590.78 136.06 590.8 135.99 590.82 135.93 590.83 135.88 590.83 135.83 590.84 135.77 590.84 135.7 590.82 135.63 590.79 135.58 590.78 135.52 590.75 135.45 590.72 135.41 590.69 135.34 590.66 135.29 590.62 135.22 590.59 135.17 590.55 135.1 590.52 135.05 590.49 135 590.46 134.94 590.44 134.88 590.41 134.83 590.37 134.74 590.35 134.67 590.33 134.61 590.31 134.54 590.28 134.48 590.25 134.4 590.23 134.33 590.21 134.26 590.19 134.17 590.18 134.09 590.17 133.96 590.17 133.93 590.17 133.9 590.16 133.84 590.17 133.78 590.16 133.71 590.16 133.64 590.16 133.58 590.16 133.51 590.16 133.47 590.17 133.29 590.18 133.22 590.18 133.15 590.19 133.11 590.2 133.1 590.21 133.07 590.23 133 590.26 132.91 590.3 132.85 590.97 132.09 591.03 132.04 591.08 132.01 591.15 131.95 591.2 131.91 591.26 131.88 591.33 131.84 591.39 131.81 591.55 131.73 591.57 131.73 591.58 131.71 591.59 131.68 591.57 131.65 591.53 131.63 591.49 131.61 591.43 131.58 591.34 131.54 591.28 131.51 591.22 131.46 591.15 131.41 591.09 131.35 591.05 131.29 591.02 131.22 590.96 131.18 590.92 131.15 590.86 131.11 590.8 131.08 590.74 131.04 590.71 131 590.7 130.96 590.68 130.93 590.66 130.88 590.65 130.84 590.65 130.81 590.64 130.78 590.64 130.76 590.65 130.73 590.65 130.71 590.66 130.67 590.66 130.65 590.66 130.62 590.64 130.59 590.62 130.56 590.58 130.52 590.54 130.47 590.49 130.42 590.43 130.34 590.4 130.26 590.36 130.19 590.33 130.12 590.29 130.02 590.27 129.93 590.26 129.9 590.25 129.85 590.26 129.77 590.26 129.7 590.26 129.64 590.27 129.58 590.27 129.54 590.26 129.51 590.25 129.48 590.24 129.45 590.23 129.4 590.21 129.36 590.19 129.32 590.17 129.27 590.15 129.23 590.14 129.2 590.13 129.15 590.12 129.1 590.11 129.06 590.11 129.02 590.1 128.98 590.1 128.94 590.11 128.87 590.11 128.8 590.12 128.72 590.13 128.66 590.14 128.59 590.15 128.52 590.16 128.51 590.17 128.45 590.19 128.37 590.2 128.36 590.21 128.31 590.24 128.24 590.27 128.16 590.3 128.1 590.32 128.03 590.36 127.95 590.45 127.71 590.45 127.71 590.75 127.17 590.78 127.16 590.83 127.16 590.86 127.16 590.9 127.15 590.94 127.14 590.98 127.14 591.02 127.13 591.03 127.12 591.07 127.11 591.11 127.09 591.14 127.08 591.16 127.08 591.19 127.06 591.21 127.05 591.23 127.03 591.24 127.02 591.27 127 591.29 126.97 591.34 126.85 591.38 126.75 591.38 126.73 591.38 126.7 591.38 126.66 591.39 126.63 591.4 126.6 591.43 126.52 591.47 126.45 591.5 126.37 591.53 126.3 591.56 126.23 591.6 126.13 591.61 126.12 591.61 126.1 591.63 126.05 591.66 125.95 591.7 125.79 591.73 125.69 591.73 125.68 591.76 125.59 591.77 125.52 591.78 125.46 591.79 125.38 591.81 125.3 591.82 125.22 591.83 125.14 591.84 125.08 591.84 125 591.85 124.9 591.85 124.82 591.86 124.73 591.87 124.53 591.88 124.39 591.88 124.33 591.87 124.22 591.87 124.22 591.87 124.21 591.87 124.09 Z"/>
</g></svg>