<svg xmlns="http://www.w3.org/2000/svg" version="1.2" baseProfile="tiny" stroke-linecap="round" stroke-linejoin="round" viewBox="553.77 13.62 24.77 27.13"><g xmlns="http://www.w3.org/2000/svg" id="Baiona">
<path d="M 557.21 16.5 558.09 16.49 558.16 16.49 558.18 16.49 558.24 16.49 558.31 16.48 558.38 16.48 558.47 16.48 558.5 16.48 558.5 16.48 558.52 16.48 558.54 16.48 558.57 16.48 558.58 16.48 558.59 16.47 558.62 16.46 558.67 16.45 558.71 16.43 558.72 16.41 558.72 16.39 558.78 16.19 558.8 16.16 558.83 16.14 558.85 16.12 558.86 16.12 558.9 16.09 558.9 16.08 558.92 16.06 558.93 16.03 558.94 16 558.92 15.97 558.9 15.94 558.9 15.93 558.92 15.89 558.94 15.83 558.97 15.79 559 15.75 559.02 15.72 559.03 15.71 559.06 15.68 559.11 15.64 559.17 15.61 559.2 15.59 559.24 15.57 559.27 15.57 559.31 15.58 559.34 15.59 559.4 15.62 559.45 15.66 559.53 15.73 559.56 15.77 559.59 15.77 559.62 15.78 559.65 15.78 559.71 15.78 559.73 15.79 559.73 15.8 559.74 15.81 559.74 15.83 559.74 15.86 559.74 15.87 559.73 15.88 559.73 15.9 559.73 15.92 559.74 15.93 559.75 15.93 559.77 15.94 559.8 15.94 559.83 15.94 559.87 15.93 559.94 15.92 560.36 15.88 560.78 15.84 561.2 15.8 561.21 15.79 561.23 15.79 561.26 15.79 561.29 15.79 561.37 15.77 561.44 15.75 561.52 15.72 561.61 15.75 561.68 15.73 561.7 15.71 561.77 15.69 561.8 15.68 561.86 15.67 561.95 15.66 561.97 15.65 561.98 15.63 562.01 15.61 562.09 15.48 562.12 15.45 562.18 15.38 562.19 15.39 562.21 15.4 562.22 15.4 562.22 15.4 562.24 15.38 562.26 15.37 562.28 15.37 562.3 15.39 562.31 15.41 562.33 15.4 562.36 15.39 562.37 15.38 562.39 15.36 562.4 15.34 562.42 15.34 562.45 15.34 562.49 15.35 562.52 15.35 562.55 15.34 562.58 15.33 562.62 15.3 562.67 15.25 562.71 15.19 562.73 15.17 562.75 15.16 562.75 15.15 562.76 15.17 562.77 15.18 562.78 15.19 562.79 15.2 562.79 15.21 562.81 15.22 562.83 15.23 562.84 15.24 562.85 15.23 562.85 15.21 562.83 15.18 562.83 15.17 562.83 15.15 562.83 15.13 562.85 15.15 562.87 15.16 562.88 15.17 562.89 15.16 562.9 15.14 562.91 15.13 562.92 15.12 562.91 15.1 562.9 15.09 562.88 15.09 562.87 15.08 562.87 15.05 562.88 15.02 562.89 15.02 562.92 15.02 562.95 15.02 562.96 15.05 562.97 15.09 562.99 15.1 563 15.1 563 15.13 563.02 15.14 563.04 15.13 563.05 15.13 563.06 15.12 563.07 15.11 563.05 15.09 563.04 15.07 563.03 15.05 563.02 15.03 563.03 15.02 563.04 15.03 563.05 15.02 563.04 14.99 563.04 14.97 563.05 14.95 563.06 14.94 563.06 14.95 563.08 14.95 563.09 14.96 563.1 14.94 563.1 14.92 563.09 14.9 563.07 14.89 563.06 14.88 563.06 14.85 563.06 14.84 563.08 14.84 563.09 14.84 563.1 14.85 563.1 14.88 563.1 14.9 563.13 14.91 563.14 14.9 563.14 14.88 563.14 14.86 563.16 14.85 563.18 14.85 563.19 14.85 563.21 14.86 563.22 14.87 563.23 14.87 563.24 14.83 563.24 14.82 563.26 14.81 563.27 14.81 563.28 14.82 563.29 14.81 563.3 14.81 563.31 14.82 563.32 14.8 563.33 14.8 563.35 14.82 563.36 14.82 563.38 14.81 563.38 14.79 563.38 14.78 563.38 14.77 563.38 14.76 563.4 14.76 563.42 14.77 563.47 14.82 563.5 14.85 563.53 14.87 563.56 14.87 563.58 14.87 563.63 14.85 563.64 14.83 563.66 14.8 563.65 14.78 563.65 14.75 563.64 14.73 563.64 14.7 563.64 14.67 563.66 14.64 563.68 14.6 563.71 14.56 563.74 14.54 563.76 14.52 563.86 14.45 563.88 14.46 563.92 14.47 563.99 14.48 564.1 14.52 564.12 14.53 564.14 14.53 564.17 14.54 564.19 14.55 564.21 14.56 564.23 14.56 564.27 14.57 564.37 14.61 564.44 14.62 564.47 14.63 564.58 14.65 564.6 14.66 564.63 14.66 564.66 14.67 565.03 14.38 565.36 14.15 565.67 13.93 565.72 13.89 565.74 13.87 566.09 13.78 566.12 13.77 566.14 13.76 566.15 13.74 566.24 13.65 566.26 13.63 566.29 13.63 566.32 13.64 566.37 13.64 566.4 13.65 566.43 13.65 566.46 13.64 566.49 13.66 566.51 13.67 566.56 13.7 566.6 13.74 567.09 13.91 567.21 13.94 567.25 13.91 567.75 14.58 567.9 14.71 568.05 14.62 568.06 14.61 568.2 14.59 568.22 14.59 568.23 14.61 568.26 14.61 568.28 14.61 568.29 14.62 568.31 14.63 568.34 14.65 568.37 14.7 568.39 14.71 568.41 14.72 568.43 14.72 568.5 14.73 568.55 14.72 568.57 14.72 568.59 14.73 568.6 14.73 568.62 14.72 568.67 14.72 568.69 14.72 568.82 14.73 568.85 14.72 568.87 14.72 568.9 14.73 568.92 14.74 568.95 14.73 568.97 14.72 568.98 14.71 569 14.71 569.05 14.69 569.1 14.65 569.12 14.65 569.14 14.64 569.16 14.64 569.3 14.65 569.47 14.65 569.48 14.66 569.5 14.67 569.52 14.66 569.59 14.66 569.62 14.67 569.63 14.67 569.64 14.67 569.67 14.67 569.69 14.68 569.69 14.69 569.7 14.71 569.72 14.71 569.73 14.71 569.74 14.73 569.76 14.74 569.78 14.75 569.79 14.77 569.8 14.81 569.81 14.83 569.83 14.84 569.84 14.85 569.86 14.85 569.87 14.85 569.88 14.83 569.89 14.82 569.9 14.79 569.9 14.78 569.92 14.78 569.94 14.79 569.97 14.77 570.01 14.76 570.03 14.76 570.07 14.78 570.09 14.81 570.1 14.83 570.11 14.84 570.14 14.84 570.18 14.85 570.22 14.86 570.26 14.9 570.29 14.93 570.31 14.97 570.32 15 570.34 15.02 570.36 15.02 570.39 15 570.46 14.98 570.53 14.97 570.57 14.97 570.6 14.98 570.63 14.99 570.69 15.03 570.74 15.05 570.77 15.08 570.8 15.1 570.81 15.1 570.83 15.1 570.85 15.13 570.86 15.13 570.87 15.15 570.91 15.18 570.94 15.19 570.94 15.2 570.95 15.21 571.01 15.26 571.03 15.28 571.05 15.3 571.08 15.33 571.1 15.36 571.19 15.44 571.26 15.37 571.31 15.36 571.51 15.31 571.57 15.33 571.61 15.34 571.67 15.41 571.69 15.52 571.72 15.55 571.73 15.6 571.78 15.7 571.98 15.76 572.02 15.7 572.1 15.71 572.18 15.72 572.21 15.73 572.24 15.73 572.26 15.73 572.28 15.73 572.31 15.74 572.34 15.74 572.35 15.74 572.43 15.75 572.48 15.77 572.49 15.78 572.61 15.76 572.63 15.79 572.65 15.84 572.77 15.76 572.82 15.73 572.86 15.71 572.98 15.63 573.02 15.6 573.05 15.58 573.1 15.54 573.15 15.54 573.2 15.54 573.4 15.53 573.53 15.49 574.02 15.4 574.25 15.29 574.47 15.19 574.48 15.2 574.56 15.29 574.61 15.34 574.62 15.35 574.63 15.36 574.64 15.36 574.64 15.37 574.65 15.38 574.66 15.39 574.67 15.4 574.67 15.41 574.68 15.41 574.69 15.42 574.7 15.43 574.71 15.44 574.71 15.45 574.72 15.46 574.73 15.47 574.73 15.48 574.74 15.48 574.74 15.49 574.75 15.5 574.76 15.51 574.76 15.52 574.77 15.53 574.77 15.53 574.78 15.54 574.78 15.55 574.78 15.56 574.79 15.57 574.79 15.57 574.8 15.58 574.8 15.59 574.81 15.6 574.82 15.62 574.82 15.63 574.83 15.64 574.84 15.65 574.84 15.66 574.85 15.67 574.85 15.69 574.86 15.7 574.87 15.71 574.87 15.72 574.88 15.73 574.89 15.74 574.9 15.76 574.9 15.77 574.91 15.78 574.92 15.79 574.92 15.8 574.93 15.8 574.94 15.81 574.94 15.82 574.95 15.83 574.95 15.83 574.96 15.84 574.96 15.85 574.97 15.86 574.98 15.87 574.98 15.87 574.99 15.88 574.99 15.89 575 15.9 575 15.91 575.01 15.91 575.01 15.93 575.02 15.94 575.03 15.95 575.04 15.96 575.05 15.97 575.06 15.98 575.06 15.99 575.06 16 575.07 16 575.07 16.01 575.08 16.02 575.08 16.03 575.09 16.03 575.1 16.04 575.1 16.05 575.11 16.05 575.12 16.06 575.13 16.07 575.16 16.08 575.17 16.1 575.17 16.13 575.17 16.15 575.17 16.16 575.17 16.16 575.18 16.17 575.18 16.18 575.19 16.19 575.19 16.2 575.19 16.21 575.19 16.22 575.2 16.22 575.2 16.23 575.21 16.24 575.21 16.25 575.22 16.25 575.22 16.26 575.22 16.27 575.23 16.28 575.24 16.29 575.24 16.29 575.25 16.3 575.26 16.31 575.27 16.32 575.28 16.33 575.3 16.35 575.31 16.37 575.33 16.38 575.35 16.4 575.36 16.41 575.38 16.42 575.39 16.44 575.4 16.46 575.42 16.48 575.43 16.49 575.45 16.51 575.47 16.53 575.48 16.54 575.5 16.56 575.52 16.58 575.53 16.6 575.53 16.62 575.54 16.64 575.54 16.66 575.54 16.68 575.54 16.7 575.54 16.72 575.54 16.74 575.55 16.75 575.55 16.77 575.57 16.79 575.58 16.8 575.6 16.82 575.61 16.84 575.63 16.85 575.65 16.86 575.66 16.88 575.69 16.9 575.71 16.92 575.73 16.94 575.75 16.96 575.77 16.97 575.79 16.99 575.81 17 575.84 17.01 575.85 17.02 575.87 17.03 575.9 17.06 575.92 17.09 575.92 17.09 575.93 17.13 575.95 17.21 575.97 17.36 575.99 17.43 576 17.45 576.07 17.5 576.09 17.52 576.11 17.52 576.11 17.54 576.11 17.57 576.12 17.64 576.13 17.67 576.15 17.69 576.17 17.72 576.19 17.74 576.2 17.77 576.22 17.8 576.23 17.83 576.25 17.85 576.26 17.88 576.28 17.93 576.29 17.95 576.28 17.97 576.28 18 576.27 18.02 576.25 18.04 576.24 18.06 576.23 18.09 576.23 18.11 576.24 18.14 576.26 18.16 576.27 18.2 576.29 18.24 576.38 18.43 576.39 18.46 576.7 19.08 576.71 19.09 576.72 19.1 576.74 19.11 576.75 19.11 576.78 19.09 576.84 19.06 576.99 18.99 577.03 18.98 577.04 18.98 577.05 18.98 577.18 19.21 577.25 19.32 577.43 19.63 577.44 19.65 577.45 19.68 577.49 19.69 577.58 19.72 577.61 19.73 577.64 19.73 577.67 19.74 577.98 19.81 578.18 19.86 578.19 19.86 578.14 20.11 578.13 20.14 578.13 20.18 578.12 20.21 578.12 20.23 578.11 20.26 578.11 20.28 578.11 20.3 578.11 20.33 578.11 20.35 578.1 20.39 578.1 20.4 578.1 20.43 578.09 20.46 578.09 20.53 578.09 20.55 578.09 20.57 578.09 20.59 578.1 20.6 578.11 20.64 578.12 20.65 578.13 20.66 578.14 20.67 578.16 20.67 578.17 20.67 578.18 20.67 578.34 20.63 578.45 20.79 578.46 20.8 578.51 20.83 578.52 20.84 578.51 20.87 578.49 20.88 578.48 20.89 578.46 20.9 578.44 20.92 578.42 20.93 578.42 20.97 578.43 20.99 578.44 21 578.45 21.01 578.47 21.02 578.48 21.03 578.49 21.04 578.5 21.05 578.51 21.06 578.51 21.07 578.51 21.08 578.49 21.1 578.48 21.1 578.47 21.12 578.45 21.13 578.44 21.14 578.42 21.15 578.41 21.15 578.4 21.16 578.39 21.17 578.39 21.19 578.4 21.2 578.4 21.21 578.41 21.22 578.41 21.24 578.42 21.26 578.41 21.27 578.4 21.29 578.39 21.32 578.38 21.34 578.37 21.36 578.37 21.38 578.36 21.4 578.36 21.42 578.35 21.46 578.35 21.5 578.35 21.53 578.4 21.94 578.19 21.99 577.71 22.11 577.64 22.12 576.91 22.29 576.5 22.43 575.84 22.74 575.38 23.08 574.99 23.64 574.32 24.32 573.76 24.78 573.43 24.9 573.06 25.1 572.12 25.52 571.76 25.7 571.59 25.79 571.21 26.02 571.15 26.07 570.71 26.28 570.99 26.94 571.01 27.02 571.01 27.04 571.08 27.08 571.01 27.15 570.95 27.2 570.91 27.23 570.88 27.25 570.86 27.26 570.82 27.28 570.81 27.28 570.74 27.33 570.73 27.33 570.67 27.38 570.46 27.52 570.38 27.58 570.42 27.59 570.47 27.6 570.49 27.62 570.52 27.65 570.55 27.69 570.57 27.71 570.6 27.72 570.64 27.73 570.7 27.72 570.76 27.71 570.77 27.71 570.78 27.73 570.78 27.75 570.78 27.77 570.78 27.8 570.79 27.82 570.8 27.86 570.8 27.88 570.8 27.91 570.78 27.94 570.78 27.96 570.79 27.98 570.8 28 570.81 28.03 570.81 28.06 570.82 28.08 570.83 28.1 570.84 28.14 570.84 28.16 570.83 28.18 570.83 28.2 570.82 28.21 570.81 28.23 570.79 28.23 570.73 28.23 570.55 28.22 570.55 28.23 570.56 28.28 570.57 28.37 570.58 28.43 570.59 28.48 570.6 28.51 570.62 28.55 570.65 28.59 570.66 28.61 570.69 28.65 570.72 28.67 570.76 28.68 570.77 28.7 570.77 28.72 570.76 28.75 570.75 28.76 570.73 28.78 570.7 28.8 570.69 28.81 570.67 28.82 570.66 28.83 570.66 28.85 570.66 28.86 570.65 28.88 570.64 28.88 570.62 28.88 570.59 28.88 570.58 28.89 570.58 28.91 570.57 28.93 570.57 28.95 570.57 28.98 570.57 29.03 570.58 29.05 570.6 29.08 570.61 29.1 570.72 29.05 570.75 29.18 570.75 29.19 570.72 29.21 570.7 29.22 570.66 29.23 570.63 29.23 570.62 29.24 570.56 29.26 570.5 29.28 570.48 29.3 570.45 29.31 570.46 29.35 570.45 29.38 570.41 29.45 570.4 29.46 570.34 29.54 570.29 29.61 570.24 29.67 570.19 29.71 570.13 29.77 570.08 29.81 570.06 29.84 569.92 29.99 569.9 30.01 569.87 30.05 569.77 30.15 569.7 30.22 569.61 30.28 569.5 30.36 569.34 30.46 569.36 30.48 569.35 30.5 569.19 30.59 569.17 30.59 569.14 30.61 569.1 30.56 569.07 30.57 568.82 30.64 568.79 30.65 568.56 30.7 568.5 30.71 568.42 30.73 568.4 30.74 568.34 30.77 568.32 30.78 568.29 30.8 568.28 30.78 568.24 30.73 568.21 30.69 568.18 30.65 568.19 30.61 568.19 30.6 568.19 30.56 568.2 30.33 568.2 30.3 568.19 30.28 568.1 30.17 568.04 30.1 568 30.04 567.96 29.98 567.91 29.86 567.88 29.81 567.86 29.78 567.83 29.72 567.81 29.69 567.78 29.65 567.69 29.54 567.61 29.44 567.59 29.41 567.57 29.42 567.53 29.44 567.41 29.5 567.23 29.58 567.2 29.59 567.15 29.62 567.13 29.59 567.11 29.55 567.06 29.48 567.02 29.4 566.99 29.35 566.95 29.28 566.91 29.24 566.89 29.19 566.86 29.16 566.83 29.12 566.91 29.05 566.96 29.01 566.98 28.99 566.99 28.98 566.97 28.97 566.9 28.92 566.79 28.85 566.78 28.82 566.71 28.78 566.68 28.77 566.62 28.71 566.58 28.67 566.57 28.66 566.55 28.65 566.52 28.66 566.51 28.67 566.52 28.7 566.51 28.71 566.48 28.72 566.46 28.74 566.4 28.82 566.45 28.85 566.42 28.92 566.38 28.91 566.37 28.9 566.36 28.9 566.34 28.9 566.33 28.9 566.32 28.9 566.31 28.9 566.3 28.9 566.29 28.9 566.28 28.91 566.27 28.91 566.27 28.92 566.25 28.92 566.24 28.93 566.23 28.94 566.23 28.94 566.23 28.95 566.21 28.97 566.2 28.99 566.2 29 566.2 29.01 566.19 29.02 566.18 29.03 566.18 29.04 566.17 29.04 566.16 29.05 566.15 29.05 566.12 29.07 566.1 29.07 566.08 29.07 566.07 29.06 566.06 29.07 566.04 29.08 566.04 29.09 566.03 29.1 566.02 29.11 566.01 29.11 566 29.11 565.98 29.11 565.98 29.12 565.97 29.13 565.96 29.14 565.95 29.15 565.91 29.19 565.9 29.21 565.88 29.23 565.87 29.24 565.86 29.25 565.85 29.26 565.84 29.27 565.84 29.28 565.83 29.29 565.82 29.31 565.81 29.33 565.79 29.38 565.79 29.4 565.77 29.41 565.75 29.42 565.73 29.43 565.71 29.44 565.7 29.45 565.68 29.46 565.67 29.47 565.66 29.49 565.49 29.68 565.47 29.7 565.46 29.71 565.45 29.72 565.43 29.73 565.42 29.74 565.41 29.75 565.4 29.77 565.38 29.78 565.37 29.78 565.35 29.79 565.34 29.8 565.34 29.81 565.33 29.83 565.31 29.84 565.3 29.85 565.28 29.86 565.27 29.86 565.25 29.87 565.24 29.88 565.22 29.9 565.21 29.91 565.2 29.92 565.18 29.92 565.17 29.93 565.16 29.94 565.15 29.96 565.14 29.96 565.13 29.97 565.11 29.98 565.1 29.99 565.09 30 565.08 30.02 565.07 30.03 565.05 30.04 565.04 30.05 565.02 30.06 565.01 30.07 565 30.08 564.98 30.1 564.96 30.11 564.95 30.1 564.94 30.1 564.91 30.1 564.9 30.1 564.88 30.11 564.87 30.12 564.86 30.13 564.85 30.14 564.84 30.16 564.83 30.18 564.82 30.19 564.81 30.21 564.77 30.26 564.75 30.28 564.75 30.29 564.73 30.28 564.72 30.28 564.64 30.24 564.54 30.2 564.51 30.19 564.51 30.2 564.5 30.21 564.49 30.2 564.46 30.2 564.45 30.21 564.44 30.21 564.44 30.22 564.43 30.23 564.42 30.24 564.41 30.25 564.36 30.29 564.34 30.31 564.33 30.33 564.37 30.35 564.4 30.38 564.44 30.42 564.45 30.43 564.48 30.46 564.54 30.52 564.59 30.56 564.63 30.59 564.71 30.64 564.74 30.67 564.77 30.7 564.8 30.74 564.82 30.76 564.67 30.89 564.66 30.9 564.65 30.91 564.63 30.92 564.62 30.92 564.63 30.94 564.63 30.96 564.65 31 564.66 31.07 564.69 31.16 564.71 31.24 564.71 31.27 564.71 31.29 564.71 31.31 564.71 31.34 564.7 31.37 564.7 31.38 564.69 31.39 564.68 31.4 564.67 31.42 564.67 31.43 564.65 31.44 564.63 31.45 564.56 31.49 564.54 31.5 564.53 31.51 564.53 31.52 564.52 31.53 564.48 31.59 564.46 31.63 564.45 31.66 564.44 31.67 564.44 31.69 564.43 31.7 564.43 31.72 564.43 31.74 564.44 31.75 564.45 31.8 564.46 31.81 564.47 31.83 564.47 31.84 564.5 31.87 564.53 31.9 564.55 31.92 564.56 31.94 564.58 31.94 564.59 31.95 564.61 31.95 564.66 31.96 564.68 31.96 564.65 32.09 564.43 32.1 564.06 32.13 563.92 32.24 563.83 32.37 563.82 32.39 563.76 32.74 563.75 32.78 563.74 32.84 563.73 32.91 563.69 33.19 563.76 33.41 563.77 33.43 563.93 33.7 564.04 33.89 564.1 34 563.9 33.99 563.69 33.98 563.53 33.98 563.46 33.98 563.35 33.97 563.3 33.97 563.16 33.97 563.14 33.97 563.08 33.96 562.97 33.96 562.76 33.95 562.68 33.95 562.66 33.95 562.65 33.95 562.65 33.94 562.64 33.93 562.62 33.95 562.58 33.95 562.48 33.94 562.41 33.94 562.36 33.94 562.34 33.95 562.33 33.94 562.32 33.94 562.29 33.94 562.22 33.94 562.17 33.93 562.13 33.93 562.1 33.92 562.08 33.92 562.07 33.92 562.06 33.9 562.04 33.89 561.97 33.87 561.96 33.87 561.95 33.87 561.94 33.87 561.91 33.89 561.86 33.91 561.85 33.91 561.84 33.91 561.81 33.91 561.78 33.91 561.77 33.9 561.73 33.9 561.71 33.9 561.69 33.9 561.67 33.91 561.64 33.91 561.63 33.97 561.63 33.99 561.6 34.04 561.58 34.09 561.57 34.12 561.56 34.13 561.56 34.15 561.56 34.17 561.55 34.19 561.53 34.24 561.51 34.28 561.48 34.33 561.44 34.37 561.43 34.38 561.42 34.4 561.4 34.43 561.39 34.42 561.28 34.42 561.21 34.41 561.14 34.41 561.12 34.42 561.11 34.42 561.07 34.43 561.04 34.43 561.03 34.43 561.01 34.43 560.99 34.43 560.96 34.42 560.89 34.42 560.87 34.42 560.85 34.42 560.85 34.44 560.84 34.45 560.84 34.46 560.82 34.49 560.77 34.56 560.71 34.67 560.67 34.72 560.53 34.92 560.51 34.93 560.5 34.95 560.44 34.99 560.57 35.14 560.64 35.24 560.7 35.33 560.75 35.47 560.79 35.57 560.82 35.69 560.82 35.82 560.8 35.95 560.78 36.09 560.73 36.26 560.69 36.43 560.66 36.5 560.55 36.7 560.41 36.86 560.22 37.04 559.98 37.18 559.74 37.28 559.51 37.36 559.41 37.43 559.36 37.49 559.32 37.57 559.34 37.68 559.41 37.81 559.56 37.99 559.74 38.17 559.7 38.28 559.69 38.32 559.7 38.34 559.69 38.36 559.7 38.38 559.69 38.41 559.69 38.47 559.69 38.53 559.68 38.58 559.68 38.61 559.68 38.63 559.66 38.64 559.62 38.67 559.59 38.68 559.55 38.68 559.52 38.68 559.49 38.67 559.48 38.65 559.47 38.62 559.48 38.59 559.49 38.57 559.49 38.54 559.48 38.51 559.46 38.48 559.42 38.43 559.39 38.39 559.36 38.37 559.32 38.36 559.28 38.36 559.26 38.37 559.23 38.4 559.22 38.44 559.21 38.48 559.21 38.54 559.18 38.59 559.15 38.63 559.13 38.66 559.09 38.67 559.04 38.68 559 38.67 558.96 38.66 558.93 38.63 558.92 38.61 558.91 38.59 558.89 38.57 558.85 38.56 558.76 38.56 558.73 38.57 558.72 38.58 558.71 38.61 558.71 38.65 558.71 38.68 558.7 38.7 558.68 38.73 558.65 38.74 558.62 38.75 558.59 38.75 558.57 38.72 558.54 38.69 558.51 38.66 558.49 38.64 558.46 38.64 558.43 38.64 558.4 38.65 558.39 38.67 558.39 38.71 558.39 38.75 558.38 38.79 558.37 38.82 558.35 38.85 558.33 38.86 558.3 38.87 558.25 38.88 558.23 38.89 558.2 38.88 558.16 38.86 558.14 38.85 558.12 38.85 558.09 38.85 558.08 38.87 558.08 38.89 558.09 38.93 558.1 38.96 558.11 38.99 558.11 39.03 558.11 39.06 558.1 39.07 558.1 39.07 558.09 39.08 558.05 39.08 558.01 39.09 558 39.1 557.98 39.12 557.96 39.15 557.95 39.16 557.91 39.18 557.86 39.2 557.84 39.22 557.81 39.23 557.75 39.27 557.71 39.29 557.67 39.3 557.64 39.31 557.61 39.34 557.59 39.37 557.58 39.41 557.56 39.45 557.53 39.5 557.5 39.56 557.47 39.65 557.45 39.73 557.43 39.82 557.42 39.91 557.41 39.98 557.41 40.05 557.42 40.07 557.42 40.11 557.44 40.17 557.44 40.21 557.43 40.24 557.42 40.27 557.41 40.29 557.4 40.32 557.38 40.36 557.34 40.47 557.31 40.51 557.28 40.58 557.27 40.61 557.25 40.63 557.23 40.69 557.23 40.72 557.21 40.71 557.2 40.69 557.19 40.68 557.19 40.67 557.17 40.67 557.14 40.67 557.11 40.66 557.07 40.63 556.99 40.57 556.86 40.48 556.82 40.44 556.79 40.4 556.76 40.36 556.74 40.32 556.73 40.29 556.71 40.24 556.7 40.19 556.7 40.14 556.69 40.06 556.69 39.96 556.69 39.93 556.7 39.77 556.7 39.66 556.78 39.27 556.8 39.15 556.87 38.8 556.89 38.7 556.9 38.65 556.93 38.6 556.96 38.52 556.98 38.48 556.99 38.37 557 38.33 557 38.26 557.01 38.21 557.02 38.15 557.03 38.14 557.03 38.12 557.05 38.05 557.06 37.97 557.08 37.89 557.09 37.85 556.8 37.92 556.77 37.83 556.75 37.78 556.64 37.49 556.54 37.21 556.44 36.92 556.42 36.86 556.43 36.77 556.44 36.55 556.43 36.5 556.43 36.46 556.43 36.44 556.42 36.41 556.42 36.36 556.42 36.31 556.42 36.25 556.42 36.22 556.43 36.16 556.43 36.09 556.44 36.03 556.4 35.83 556.37 35.76 556.33 35.67 556.31 35.66 556.3 35.65 556.28 35.6 556.25 35.56 556.19 35.49 556.07 35.38 556.04 35.37 555.98 35.34 555.78 35.24 555.75 35.23 555.71 35.21 555.87 35.04 555.89 35.05 555.94 35.07 555.98 35.08 556 35.09 556.02 35.1 556.04 35.1 556.05 35.09 556.07 35.08 556.09 35.07 556.1 35.06 556.12 35.04 556.13 35.03 556.13 35.01 556.13 34.98 556.13 34.95 556.13 34.94 556.12 34.91 556.1 34.88 556.08 34.84 556.07 34.83 556.08 34.82 556.08 34.81 556.08 34.79 556.08 34.73 556.07 34.68 556.07 34.63 556.07 34.59 556.07 34.55 556.07 34.51 556.2 34.42 556.19 34.32 556.21 34.23 556.26 33.95 556.24 33.89 556.23 33.86 556.23 33.84 556.23 33.83 556.21 33.76 556.21 33.75 556.21 33.73 556.23 33.7 556.27 33.66 556.29 33.62 556.31 33.59 556.35 33.5 556.37 33.46 556.39 33.45 556.41 33.44 556.43 33.45 556.44 33.45 556.46 33.44 556.49 33.42 556.56 33.39 556.6 33.37 556.62 33.36 556.72 33.34 556.74 33.32 556.75 33.3 556.75 33.27 556.76 33.26 556.77 33.26 556.79 33.27 556.81 33.27 556.86 33.25 556.9 33.22 556.9 33.21 556.89 33.21 556.9 33.19 556.95 33.13 556.95 33.12 557.03 33.01 557.06 32.98 557.09 32.95 557.13 32.94 557.14 32.93 557.16 32.93 557.19 32.92 557.21 32.9 557.22 32.88 557.23 32.88 557.26 32.87 557.28 32.84 557.28 32.83 557.28 32.8 557.27 32.74 557.27 32.73 557.27 32.69 557.28 32.65 557.28 32.63 557.29 32.55 557.29 32.47 557.32 32.4 557.33 32.37 557.4 32.33 557.44 32.31 557.46 32.3 557.46 32.28 557.46 32.28 557.45 32.27 557.47 32.25 557.58 32.2 557.61 32.19 557.62 32.17 557.62 32.14 557.64 32.14 557.66 32.14 557.69 32.16 557.72 32.17 557.75 32.16 557.78 32.14 557.82 32.14 557.86 32.15 557.87 32.15 557.91 32.16 557.95 32.15 557.97 32.09 557.98 32.07 558 32.05 558.04 32.01 558.07 31.96 558.09 31.92 558.09 31.83 558.09 31.78 558.1 31.72 558.09 31.68 558.08 31.66 558.06 31.58 558.03 31.55 558.01 31.49 558 31.47 557.98 31.45 557.96 31.42 557.96 31.4 557.95 31.39 557.94 31.39 557.92 31.4 557.89 31.39 557.89 31.36 557.89 31.31 557.87 31.27 557.85 31.21 557.85 31.18 557.85 31.14 557.83 31.05 557.84 31.02 557.85 30.97 557.86 30.94 557.85 30.9 557.84 30.86 557.84 30.83 557.83 30.8 557.83 30.79 557.83 30.76 557.83 30.75 557.84 30.69 557.85 30.67 557.86 30.64 557.85 30.62 557.82 30.56 557.78 30.48 557.75 30.41 557.73 30.38 557.69 30.37 557.64 30.34 557.62 30.32 557.45 30.13 557.42 30.07 557.37 30.01 557.36 30.02 557.34 30.05 557.32 30.06 557.22 30.08 557.08 30.08 557.02 30.09 556.99 30.09 556.97 30.1 556.96 30.11 556.96 30.12 556.96 30.16 556.94 30.22 556.92 30.28 556.92 30.35 556.91 30.38 556.88 30.41 556.84 30.45 556.79 30.49 556.77 30.54 556.74 30.58 556.69 30.61 556.62 30.65 556.57 30.66 556.51 30.69 556.47 30.71 556.43 30.73 556.4 30.73 556.34 30.74 556.23 30.74 556.18 30.73 556.12 30.7 556.08 30.67 556.04 30.61 555.98 30.55 556.03 30.44 556.07 30.28 556.1 30.11 555.75 30.1 555.71 30.1 555.65 30.09 555.57 30.07 555.5 30.06 555.48 30.04 555.48 30.03 555.44 30.02 555.34 30.01 555.21 29.99 555.16 29.98 554.96 29.95 554.81 29.93 554.79 29.92 554.67 29.92 554.62 29.91 554.57 29.91 554.49 29.9 554.39 29.88 554.32 29.86 554.28 29.85 554.23 29.85 554.2 29.84 554.18 29.84 554.12 29.84 554.02 29.82 553.89 29.83 553.89 29.82 553.88 29.79 553.87 29.75 553.85 29.65 553.85 29.63 553.84 29.59 553.83 29.55 553.82 29.52 553.8 29.46 553.83 29.36 553.84 29.34 553.84 29.31 553.84 29.28 553.85 29.19 553.87 29.15 553.88 29.13 553.88 29.13 553.88 29.12 553.88 29.11 553.88 29.09 553.88 29.08 553.87 29.07 553.87 29.06 553.86 29.06 553.85 29.05 553.84 29.04 553.84 29.03 553.83 29.02 553.83 29.01 553.82 29 553.82 28.97 553.82 28.95 553.82 28.93 553.82 28.91 553.82 28.9 553.81 28.86 553.81 28.84 553.81 28.81 553.81 28.79 553.81 28.77 553.81 28.74 553.81 28.72 553.81 28.69 553.81 28.67 553.81 28.65 553.81 28.63 553.8 28.62 553.8 28.6 553.8 28.59 553.8 28.59 553.79 28.58 553.79 28.57 553.79 28.56 553.79 28.55 553.79 28.54 553.79 28.53 553.8 28.52 553.81 28.51 553.81 28.5 553.82 28.49 553.82 28.48 553.83 28.48 553.84 28.47 553.86 28.45 553.87 28.43 553.87 28.42 553.89 28.41 553.9 28.4 553.97 28.34 553.99 28.33 554.02 28.3 554.06 28.24 554.07 28.23 554.1 28.19 554.13 28.16 554.14 28.14 554.15 28.12 554.17 28.1 554.25 28.02 554.35 27.93 554.42 27.87 554.43 27.86 554.44 27.85 554.45 27.84 554.49 27.77 554.54 27.7 554.53 27.58 554.6 27.51 554.66 27.46 554.73 27.38 554.79 27.31 554.81 27.3 554.82 27.29 554.84 27.29 554.85 27.3 554.87 27.3 554.93 27.32 555.01 27.33 555.09 27.34 555.14 27.34 555.18 27.34 555.21 27.32 555.23 27.3 555.24 27.28 555.3 27.12 555.34 27 555.35 26.96 555.36 26.94 555.37 26.92 555.37 26.9 555.37 26.88 555.43 26.68 555.44 26.66 555.46 26.6 555.55 26.33 555.66 26.01 555.76 25.72 555.87 25.4 555.95 25.12 555.98 25.04 556.01 24.95 556.03 24.86 556.04 24.82 556.07 24.77 556.16 24.55 556.18 24.5 556.21 24.42 556.22 24.39 556.23 24.36 556.24 24.34 556.25 24.3 556.36 24 556.38 23.94 556.4 23.86 556.43 23.78 556.44 23.75 556.46 23.7 556.49 23.6 556.49 23.56 556.53 23.32 556.53 23.29 556.57 23.1 556.66 22.59 556.69 22.41 556.71 22.31 556.72 22.28 556.72 22.24 556.75 22.11 556.76 22.05 556.76 22.02 556.77 22 556.78 21.92 556.78 21.9 556.79 21.86 556.8 21.81 556.8 21.79 556.8 21.77 556.8 21.76 556.81 21.71 556.84 21.6 556.87 21.52 556.91 21.44 556.97 21.36 557.01 21.3 557.05 21.22 557.08 21.14 557.11 21.07 557.16 20.95 557.19 20.88 557.22 20.8 557.23 20.78 557.25 20.76 557.26 20.75 557.27 20.73 557.29 20.73 557.32 20.72 557.74 19.98 557.41 19.37 557.12 18.6 557.09 18.29 557.03 17.82 557.06 17.03 557.21 16.5 Z"/>
</g></svg>