<svg xmlns="http://www.w3.org/2000/svg" version="1.2" baseProfile="tiny" stroke-linecap="round" stroke-linejoin="round" viewBox="378 240.3 13.1 27.35"><g xmlns="http://www.w3.org/2000/svg" id="Bakaiku">
<path d="M 382.17 240.33 382.18 240.34 382.18 240.35 382.19 240.37 382.19 240.38 382.21 240.42 382.21 240.43 382.23 240.47 382.23 240.48 382.24 240.51 382.26 240.56 382.28 240.59 382.29 240.62 382.3 240.65 382.31 240.67 382.32 240.69 382.32 240.7 382.33 240.71 382.33 240.73 382.34 240.75 382.38 240.83 382.39 240.86 382.41 240.89 382.41 240.91 382.43 240.94 382.43 240.95 382.45 240.98 382.45 241 382.46 241.02 382.47 241.03 382.48 241.05 382.48 241.06 382.49 241.07 382.49 241.09 382.5 241.1 382.51 241.12 382.52 241.14 382.52 241.15 382.53 241.17 382.54 241.18 382.56 241.23 382.57 241.24 382.57 241.26 382.58 241.27 382.59 241.29 382.6 241.3 382.61 241.32 382.61 241.34 382.62 241.35 382.63 241.37 382.63 241.38 382.64 241.39 382.64 241.41 382.65 241.43 382.65 241.44 382.66 241.46 382.66 241.48 382.67 241.49 382.68 241.51 382.68 241.51 382.7 241.53 382.71 241.54 382.72 241.54 382.73 241.56 382.75 241.57 382.76 241.57 382.78 241.59 382.79 241.6 382.8 241.61 382.82 241.62 382.83 241.63 382.84 241.64 382.85 241.65 382.87 241.66 382.88 241.67 382.9 241.7 382.91 241.71 382.95 241.74 382.96 241.76 382.99 241.78 383 241.8 383.01 241.81 383.14 241.94 383.16 241.96 383.18 241.98 383.2 242.01 383.23 242.04 383.25 242.06 383.26 242.07 383.27 242.08 383.28 242.1 383.29 242.11 383.32 242.14 383.33 242.15 383.34 242.16 383.35 242.18 383.36 242.19 383.37 242.2 383.38 242.22 383.4 242.25 383.41 242.26 383.42 242.28 383.43 242.29 383.44 242.31 383.44 242.32 383.45 242.33 383.46 242.35 383.47 242.36 383.48 242.37 383.49 242.39 383.5 242.4 383.51 242.42 383.52 242.43 383.53 242.45 383.54 242.46 383.55 242.48 383.56 242.5 383.56 242.51 383.57 242.53 383.58 242.54 383.59 242.56 383.6 242.57 383.61 242.58 383.63 242.6 383.64 242.61 383.65 242.62 383.67 242.64 383.68 242.65 383.69 242.66 383.7 242.68 383.71 242.69 383.73 242.71 383.73 242.72 383.74 242.74 383.75 242.76 383.76 242.77 383.77 242.79 383.78 242.81 383.79 242.82 383.8 242.84 383.81 242.85 383.81 242.87 383.82 242.88 383.83 242.9 383.84 242.92 383.85 242.95 383.86 242.96 383.87 242.98 383.88 242.99 383.88 243 383.89 243.02 383.9 243.03 383.91 243.05 383.92 243.06 383.92 243.08 383.93 243.09 383.94 243.11 383.94 243.13 383.95 243.15 383.95 243.17 383.95 243.18 383.96 243.2 383.96 243.22 383.96 243.23 383.96 243.25 383.97 243.26 383.97 243.28 383.98 243.3 383.98 243.31 384 243.35 384.01 243.38 384.01 243.4 384.02 243.42 384.02 243.44 384.03 243.45 384.04 243.47 384.04 243.48 384.05 243.5 384.06 243.51 384.07 243.53 384.08 243.54 384.09 243.56 384.11 243.6 384.12 243.62 384.13 243.64 384.14 243.65 384.14 243.66 384.15 243.68 384.16 243.7 384.16 243.71 384.17 243.73 384.18 243.74 384.18 243.76 384.19 243.77 384.19 243.79 384.19 243.81 384.19 243.83 384.2 243.84 384.2 243.86 384.2 243.88 384.2 243.9 384.2 243.91 384.19 243.93 384.19 243.95 384.19 243.97 384.19 243.99 384.19 244.01 384.2 244.04 384.2 244.06 384.2 244.07 384.21 244.08 384.21 244.1 384.21 244.12 384.21 244.13 384.21 244.15 384.21 244.17 384.21 244.19 384.2 244.2 384.2 244.22 384.2 244.24 384.2 244.26 384.19 244.27 384.19 244.29 384.19 244.3 384.19 244.32 384.2 244.34 384.2 244.36 384.2 244.39 384.2 244.41 384.2 244.43 384.2 244.43 384.21 244.45 384.21 244.47 384.21 244.5 384.21 244.52 384.21 244.54 384.21 244.56 384.21 244.58 384.22 244.6 384.22 244.61 384.22 244.63 384.22 244.65 384.23 244.68 384.23 244.71 384.23 244.72 384.24 244.76 384.24 244.78 384.24 244.79 384.24 244.81 384.24 244.82 384.24 244.84 384.24 244.85 384.24 244.87 384.24 244.89 384.24 244.92 384.24 244.94 384.24 244.96 384.24 244.98 384.24 245 384.24 245.02 384.24 245.03 384.24 245.05 384.24 245.07 384.24 245.08 384.24 245.1 384.23 245.13 384.23 245.15 384.23 245.17 384.23 245.18 384.23 245.19 384.24 245.21 384.25 245.22 384.25 245.24 384.26 245.26 384.27 245.28 384.27 245.29 384.27 245.31 384.27 245.33 384.28 245.34 384.28 245.36 384.28 245.38 384.28 245.39 384.28 245.41 384.28 245.43 384.28 245.45 384.28 245.46 384.28 245.48 384.28 245.5 384.28 245.51 384.28 245.53 384.28 245.55 384.28 245.57 384.28 245.58 384.28 245.6 384.27 245.62 384.27 245.64 384.27 245.66 384.26 245.67 384.26 245.69 384.26 245.71 384.25 245.72 384.25 245.74 384.25 245.76 384.25 245.78 384.25 245.79 384.25 245.83 384.25 245.85 384.25 245.86 384.25 245.88 384.25 245.9 384.25 245.92 384.24 245.95 384.24 245.97 384.24 245.99 384.24 246.01 384.24 246.03 384.24 246.04 384.24 246.06 384.24 246.08 384.24 246.1 384.24 246.11 384.24 246.13 384.25 246.15 384.25 246.16 384.25 246.18 384.24 246.2 384.24 246.22 384.24 246.24 384.24 246.26 384.24 246.27 384.23 246.29 384.23 246.31 384.22 246.33 384.21 246.36 384.21 246.38 384.21 246.4 384.2 246.42 384.2 246.43 384.2 246.45 384.2 246.47 384.2 246.49 384.2 246.5 384.21 246.52 384.21 246.53 384.21 246.55 384.21 246.56 384.21 246.58 384.21 246.6 384.21 246.61 384.22 246.63 384.22 246.65 384.22 246.67 384.22 246.68 384.22 246.7 384.22 246.72 384.22 246.73 384.22 246.75 384.22 246.77 384.22 246.79 384.22 246.8 384.22 246.82 384.22 246.84 384.22 246.86 384.22 246.87 384.22 246.89 384.21 246.91 384.21 246.93 384.21 246.95 384.2 246.96 384.2 247 384.2 247.01 384.19 247.04 384.19 247.06 384.18 247.09 384.18 247.11 384.17 247.12 384.17 247.14 384.17 247.15 384.17 247.17 384.17 247.19 384.17 247.2 384.16 247.22 384.16 247.23 384.15 247.25 384.14 247.28 384.13 247.3 384.13 247.3 384.12 247.32 384.12 247.34 384.12 247.35 384.11 247.39 384.09 247.43 384.09 247.45 384.09 247.46 384.09 247.48 384.09 247.49 384.09 247.51 384.1 247.53 384.1 247.55 384.1 247.57 384.1 247.59 384.1 247.6 384.09 247.62 384.09 247.63 384.08 247.65 384.08 247.66 384.08 247.68 384.07 247.69 384.07 247.71 384.07 247.73 384.06 247.74 384.06 247.76 384.05 247.77 384.04 247.79 384.03 247.8 384.02 247.82 384.01 247.83 384.01 247.85 384 247.86 384 247.88 383.99 247.9 383.99 247.92 383.98 247.93 383.98 247.95 383.98 247.97 383.97 247.98 383.97 248 383.97 248.01 383.97 248.03 383.97 248.06 383.97 248.08 383.97 248.11 383.97 248.12 383.97 248.13 383.96 248.15 383.96 248.17 383.95 248.19 383.94 248.21 383.93 248.22 383.93 248.24 383.92 248.26 383.92 248.27 383.92 248.29 383.92 248.31 383.92 248.33 383.93 248.36 383.93 248.37 383.94 248.39 383.94 248.41 383.95 248.43 383.95 248.44 383.96 248.45 383.97 248.47 383.98 248.48 383.99 248.5 384 248.51 384.01 248.52 384.02 248.53 384.03 248.54 384.05 248.55 384.06 248.57 384.07 248.58 384.08 248.6 384.08 248.61 384.09 248.63 384.1 248.64 384.11 248.66 384.12 248.67 384.13 248.69 384.14 248.7 384.15 248.71 384.17 248.73 384.18 248.74 384.19 248.75 384.2 248.76 384.21 248.78 384.22 248.79 384.24 248.8 384.25 248.81 384.26 248.83 384.27 248.84 384.28 248.86 384.29 248.87 384.29 248.89 384.3 248.9 384.31 248.91 384.32 248.94 384.33 248.96 384.34 248.98 384.35 248.99 384.36 249 384.37 249.02 384.38 249.03 384.39 249.04 384.41 249.05 384.42 249.06 384.43 249.07 384.44 249.09 384.45 249.1 384.46 249.12 384.45 249.14 384.45 249.16 384.45 249.17 384.44 249.19 384.43 249.21 384.43 249.21 384.43 249.23 384.43 249.25 384.43 249.27 384.43 249.28 384.43 249.3 384.44 249.32 384.45 249.33 384.46 249.34 384.48 249.34 384.5 249.34 384.51 249.34 384.53 249.34 384.54 249.34 384.56 249.34 384.58 249.34 384.59 249.36 384.6 249.37 384.61 249.38 384.61 249.4 384.62 249.41 384.62 249.43 384.61 249.45 384.61 249.47 384.61 249.49 384.6 249.51 384.61 249.52 384.61 249.54 384.63 249.55 384.65 249.55 384.66 249.55 384.68 249.55 384.69 249.56 384.7 249.57 384.71 249.58 384.72 249.6 384.72 249.62 384.72 249.63 384.71 249.65 384.69 249.84 384.69 249.85 384.69 249.87 384.69 249.89 384.69 249.91 384.69 249.92 384.69 249.93 384.69 249.95 384.69 249.97 384.69 249.99 384.69 250 384.69 250.02 384.69 250.03 384.69 250.04 384.7 250.06 384.71 250.06 384.72 250.08 384.74 250.09 384.76 250.1 384.78 250.1 384.8 250.1 384.81 250.09 384.83 250.09 384.88 250.08 384.9 250.07 384.92 250.07 384.96 250.06 384.99 250.05 385.01 250.04 385.03 250.04 385.03 250.04 385.05 250.03 385.07 250.03 385.09 250.03 385.12 250.03 385.14 250.03 385.17 250.05 385.21 250.06 385.23 250.07 385.24 250.08 385.26 250.08 385.29 250.08 385.35 250.07 385.42 250.06 385.5 250.05 385.58 250.05 385.65 250.06 385.75 250.08 385.8 250.1 385.87 250.13 385.9 250.16 385.93 250.18 385.95 250.21 385.97 250.25 385.98 250.27 385.98 250.33 385.98 250.38 385.98 250.42 385.99 250.46 386.02 250.52 386.05 250.55 386.1 250.58 386.13 250.59 386.17 250.59 386.21 250.58 386.24 250.57 386.28 250.55 386.31 250.54 386.33 250.53 386.34 250.52 386.35 250.52 386.37 250.52 386.39 250.52 386.41 250.52 386.43 250.52 386.46 250.53 386.47 250.53 386.47 250.54 386.47 250.55 386.47 250.56 386.46 250.57 386.44 250.59 386.43 250.61 386.43 250.63 386.44 250.64 386.45 250.65 386.46 250.66 386.48 250.66 386.5 250.65 386.52 250.65 386.53 250.64 386.55 250.63 386.56 250.62 386.57 250.6 386.59 250.59 386.6 250.59 386.62 250.58 386.64 250.59 386.66 250.59 386.67 250.59 386.68 250.6 386.7 250.61 386.71 250.62 386.72 250.64 386.73 250.65 386.74 250.66 386.76 250.67 386.78 250.69 386.79 250.7 386.8 250.71 386.82 250.72 386.83 250.73 386.85 250.74 386.86 250.75 386.87 250.75 386.89 250.76 386.9 250.77 386.92 250.78 386.94 250.79 386.96 250.79 386.98 250.8 386.98 250.8 387 250.8 387.02 250.81 387.03 250.81 387.05 250.81 387.07 250.81 387.09 250.81 387.1 250.81 387.12 250.81 387.14 250.81 387.16 250.81 387.17 250.8 387.19 250.8 387.21 250.8 387.22 250.8 387.23 250.81 387.24 250.82 387.25 250.83 387.25 250.84 387.25 250.86 387.26 250.88 387.26 250.9 387.26 250.92 387.25 250.94 387.26 250.95 387.26 250.96 387.27 250.96 387.28 250.96 387.3 250.95 387.3 250.95 387.32 250.94 387.34 250.93 387.35 250.93 387.37 250.94 387.38 250.96 387.39 250.98 387.38 251 387.38 251.01 387.38 251.03 387.38 251.05 387.38 251.07 387.37 251.09 387.37 251.1 387.37 251.12 387.36 251.14 387.36 251.16 387.35 251.19 387.36 251.2 387.38 251.2 387.39 251.21 387.4 251.22 387.42 251.23 387.43 251.24 387.44 251.26 387.45 251.27 387.45 251.29 387.45 251.29 387.45 251.31 387.44 251.34 387.44 251.36 387.43 251.38 387.43 251.4 387.43 251.42 387.43 251.44 387.42 251.46 387.42 251.48 387.42 251.49 387.42 251.5 387.41 251.54 387.41 251.56 387.41 251.57 387.41 251.59 387.41 251.6 387.41 251.62 387.41 251.64 387.41 251.66 387.41 251.67 387.41 251.69 387.41 251.71 387.41 251.73 387.41 251.73 387.41 251.75 387.42 251.77 387.42 251.79 387.42 251.79 387.43 251.81 387.43 251.83 387.44 251.84 387.44 251.87 387.45 251.88 387.46 251.9 387.46 251.92 387.47 251.94 387.48 251.95 387.48 251.96 387.49 251.97 387.5 251.99 387.51 252.01 387.52 252.03 387.53 252.05 387.53 252.06 387.55 252.09 387.56 252.11 387.56 252.12 387.57 252.14 387.57 252.15 387.58 252.16 387.58 252.18 387.59 252.2 387.6 252.21 387.6 252.22 387.6 252.24 387.61 252.26 387.62 252.27 387.62 252.29 387.63 252.31 387.63 252.33 387.63 252.34 387.64 252.36 387.64 252.38 387.64 252.39 387.65 252.4 387.65 252.42 387.65 252.44 387.66 252.45 387.67 252.49 387.67 252.5 387.68 252.52 387.68 252.54 387.69 252.56 387.69 252.57 387.7 252.59 387.7 252.61 387.71 252.63 387.71 252.66 387.72 252.68 387.72 252.71 387.73 252.73 387.73 252.75 387.73 252.77 387.74 252.78 387.74 252.8 387.77 252.89 387.79 252.88 387.81 252.87 387.82 252.86 387.83 252.86 387.85 252.85 387.86 252.85 387.87 252.84 387.89 252.84 387.9 252.83 387.92 252.83 387.93 252.82 387.95 252.82 387.97 252.82 387.97 252.82 388.01 252.81 388.02 252.8 388.04 252.8 388.05 252.79 388.07 252.79 388.11 252.78 388.13 252.78 388.14 252.78 388.16 252.77 388.18 252.77 388.19 252.76 388.2 252.76 388.22 252.76 388.24 252.75 388.26 252.75 388.37 252.73 388.38 252.73 388.39 252.75 388.4 252.77 388.41 252.78 388.43 252.79 388.44 252.81 388.46 252.82 388.47 252.83 388.48 252.85 388.49 252.86 388.5 252.88 388.51 252.89 388.52 252.9 388.53 252.92 388.55 252.93 388.56 252.95 388.56 252.96 388.57 252.97 388.58 252.99 388.59 253 388.62 253.05 388.61 253.07 388.6 253.08 388.59 253.1 388.58 253.11 388.57 253.13 388.56 253.14 388.55 253.16 388.54 253.17 388.54 253.19 388.52 253.21 388.52 253.22 388.51 253.24 388.5 253.26 388.49 253.28 388.47 253.32 388.46 253.34 388.46 253.35 388.45 253.37 388.44 253.4 388.43 253.41 388.42 253.43 388.41 253.46 388.4 253.47 388.39 253.5 388.39 253.51 388.37 253.54 388.37 253.56 388.36 253.58 388.36 253.6 388.35 253.61 388.35 253.62 388.34 253.64 388.34 253.66 388.33 253.67 388.33 253.69 388.33 253.71 388.32 253.72 388.32 253.74 388.31 253.76 388.31 253.78 388.31 253.8 388.31 253.81 388.31 253.83 388.31 253.84 388.3 253.86 388.3 253.87 388.3 253.89 388.3 253.91 388.3 253.93 388.29 253.95 388.29 253.96 388.29 253.98 388.29 254 388.29 254.01 388.29 254.03 388.29 254.07 388.29 254.08 388.29 254.1 388.29 254.12 388.29 254.13 388.29 254.15 388.29 254.17 388.29 254.19 388.29 254.24 388.29 254.26 388.29 254.28 388.29 254.29 388.29 254.31 388.3 254.33 388.3 254.34 388.3 254.36 388.31 254.36 388.31 254.38 388.31 254.4 388.32 254.41 388.32 254.43 388.32 254.46 388.32 254.48 388.33 254.49 388.33 254.51 388.33 254.52 388.33 254.54 388.33 254.56 388.33 254.57 388.33 254.59 388.33 254.61 388.33 254.64 388.33 254.67 388.33 254.68 388.33 254.7 388.33 254.71 388.33 254.73 388.33 254.75 388.33 254.77 388.32 254.79 388.32 254.8 388.32 254.82 388.31 254.85 388.31 254.87 388.31 254.89 388.31 254.9 388.3 254.92 388.3 254.94 388.3 254.96 388.3 254.98 388.3 254.99 388.3 255.01 388.3 255.02 388.31 255.04 388.31 255.06 388.31 255.08 388.32 255.1 388.32 255.12 388.32 255.13 388.33 255.14 388.33 255.16 388.33 255.18 388.34 255.19 388.35 255.22 388.35 255.23 388.36 255.25 388.37 255.27 388.37 255.29 388.38 255.3 388.38 255.32 388.39 255.34 388.4 255.35 388.41 255.37 388.42 255.38 388.42 255.39 388.43 255.41 388.44 255.42 388.45 255.44 388.46 255.45 388.46 255.46 388.48 255.48 388.49 255.49 388.5 255.5 388.51 255.52 388.52 255.53 388.53 255.55 388.54 255.56 388.54 255.58 388.56 255.6 388.57 255.61 388.57 255.62 388.58 255.64 388.58 255.65 388.59 255.67 388.59 255.68 388.6 255.7 388.6 255.71 388.61 255.72 388.62 255.77 388.63 255.79 388.64 255.8 388.64 255.82 388.65 255.84 388.65 255.86 388.65 255.87 388.65 255.89 388.66 255.9 388.67 255.95 388.68 255.96 388.68 255.98 388.69 256 388.69 256.01 388.7 256.02 388.71 256.04 388.71 256.06 388.72 256.07 388.73 256.09 388.74 256.1 388.75 256.11 388.75 256.13 388.76 256.15 388.77 256.18 388.78 256.2 388.78 256.2 388.8 256.24 388.8 256.26 388.81 256.27 388.81 256.3 388.82 256.31 388.82 256.33 388.83 256.35 388.83 256.37 388.83 256.38 388.83 256.39 388.84 256.41 388.84 256.43 388.85 256.45 388.86 256.46 388.86 256.47 388.87 256.49 388.87 256.5 388.88 256.53 388.89 256.54 388.9 256.57 388.91 256.59 388.92 256.6 388.93 256.64 388.96 256.68 388.96 256.69 388.97 256.7 388.98 256.72 388.98 256.74 388.99 256.74 389 256.76 389.01 256.78 389.02 256.8 389.02 256.81 389.03 256.83 389.03 256.84 389.06 256.88 389.24 257.21 389.32 257.31 389.41 257.46 389.42 257.48 389.42 257.49 389.43 257.5 389.44 257.51 389.46 257.52 389.47 257.52 389.49 257.52 389.5 257.53 389.52 257.53 389.54 257.55 389.55 257.55 389.57 257.56 389.61 257.61 389.63 257.63 389.64 257.63 389.65 257.65 389.67 257.66 389.68 257.67 389.69 257.68 389.7 257.69 389.72 257.7 389.74 257.71 389.75 257.73 389.76 257.74 389.77 257.75 389.78 257.76 389.8 257.78 389.8 257.78 389.82 257.8 389.82 257.81 389.84 257.82 389.85 257.83 389.86 257.85 389.87 257.86 389.88 257.88 389.89 257.9 389.9 257.91 389.91 257.93 389.91 257.94 389.92 257.96 389.93 257.98 389.94 257.99 389.94 258.01 389.95 258.03 389.96 258.04 389.97 258.07 390.01 258.2 390.05 258.32 390.14 258.62 390.15 258.63 390.16 258.7 390.17 258.72 390.17 258.75 390.22 259 390.22 259.01 390.27 259.26 390.32 259.44 390.36 259.53 390.37 259.55 390.38 259.56 390.47 259.72 390.47 259.73 390.48 259.75 390.49 259.76 390.49 259.78 390.5 259.79 390.5 259.8 390.51 259.82 390.51 259.83 390.52 259.85 390.55 259.91 390.56 259.93 390.57 259.98 390.6 260.04 390.6 260.06 390.61 260.07 390.61 260.08 390.62 260.1 390.63 260.13 390.64 260.16 390.65 260.18 390.66 260.19 390.66 260.21 390.67 260.22 390.68 260.24 390.68 260.25 390.69 260.26 390.69 260.28 390.7 260.3 390.71 260.31 390.71 260.33 390.72 260.34 390.72 260.36 390.73 260.37 390.75 260.42 390.76 260.44 390.76 260.45 390.77 260.47 390.78 260.48 390.78 260.49 390.78 260.51 390.79 260.52 390.8 260.54 390.8 260.56 390.81 260.58 390.81 260.59 390.82 260.62 390.83 260.64 390.84 260.66 390.85 260.69 390.85 260.71 390.86 260.72 390.86 260.74 390.86 260.75 390.87 260.77 390.87 260.79 390.87 260.81 390.88 260.82 390.88 260.84 390.89 260.9 390.9 260.91 390.9 260.93 390.9 260.95 390.91 260.97 390.91 260.98 390.91 261 390.92 261.02 390.92 261.06 390.93 261.07 390.93 261.09 390.94 261.11 390.95 261.14 390.95 261.16 390.96 261.17 390.96 261.19 390.97 261.2 390.97 261.22 390.97 261.23 390.98 261.25 390.99 261.27 390.99 261.29 391 261.31 391 261.32 391 261.34 391.01 261.36 391.02 261.37 391.03 261.41 391.04 261.44 391.05 261.45 391.06 261.47 391.06 261.48 391.06 261.49 391.07 261.51 391.07 261.53 391.07 261.54 391.07 261.56 391.07 261.58 391.07 261.59 391.08 261.61 391.07 261.63 391.07 261.64 391.07 261.66 391.06 261.67 391.06 261.69 391.04 261.73 391.03 261.74 391.02 261.76 391.02 261.77 391.02 261.78 391.01 261.8 391 261.82 391 261.83 390.99 261.85 390.98 261.87 390.97 261.88 390.96 261.91 390.95 261.93 390.94 261.95 390.93 261.96 390.92 261.99 390.89 262.04 390.87 262.07 390.87 262.09 390.86 262.1 390.85 262.12 390.85 262.13 390.83 262.17 390.81 262.2 390.81 262.21 390.81 262.23 390.8 262.24 390.8 262.26 390.8 262.27 390.8 262.28 390.8 262.33 390.8 262.35 390.8 262.36 390.8 262.38 390.81 262.4 390.81 262.42 390.81 262.44 390.81 262.46 390.81 262.48 390.81 262.49 390.81 262.51 390.81 262.53 390.81 262.55 390.8 262.56 390.8 262.59 390.79 262.6 390.79 262.61 390.79 262.63 390.78 262.65 390.77 262.67 390.77 262.69 390.76 262.72 390.75 262.76 390.74 262.77 390.74 262.79 390.73 262.81 390.73 262.82 390.72 262.85 390.72 262.87 390.72 262.89 390.72 262.9 390.72 262.91 390.72 262.93 390.72 262.94 390.72 262.96 390.72 262.98 390.72 263 390.71 263.02 390.71 263.03 390.7 263.06 390.7 263.08 390.7 263.09 390.69 263.11 390.69 263.12 390.68 263.14 390.68 263.15 390.67 263.17 390.67 263.18 390.66 263.2 390.66 263.21 390.65 263.23 390.64 263.24 390.63 263.28 390.62 263.3 390.61 263.31 390.61 263.33 390.6 263.34 390.6 263.35 390.59 263.37 390.58 263.38 390.58 263.39 390.57 263.43 390.56 263.44 390.55 263.45 390.55 263.47 390.55 263.48 390.54 263.5 390.54 263.52 390.54 263.54 390.54 263.55 390.54 263.57 390.54 263.59 390.54 263.6 390.55 263.62 390.55 263.63 390.55 263.65 390.56 263.67 390.57 263.68 390.57 263.7 390.58 263.71 390.59 263.73 390.59 263.74 390.6 263.75 390.6 263.77 390.61 263.78 390.62 263.8 390.63 263.82 390.63 263.83 390.64 263.84 390.65 263.87 390.66 263.9 390.67 263.92 390.67 263.93 390.69 263.97 390.7 263.98 390.7 264 390.71 264.02 390.72 264.03 390.72 264.05 390.73 264.07 390.74 264.09 390.75 264.13 390.76 264.14 390.77 264.17 390.78 264.19 390.79 264.22 390.79 264.24 390.8 264.26 390.81 264.27 390.81 264.28 390.82 264.3 390.82 264.32 390.83 264.33 390.84 264.35 390.84 264.36 390.85 264.37 390.85 264.39 390.87 264.42 390.87 264.44 390.88 264.45 390.9 264.5 390.9 264.52 390.91 264.53 390.92 264.55 390.92 264.56 390.93 264.58 390.94 264.61 390.95 264.62 390.96 264.64 390.96 264.66 390.97 264.68 390.97 264.68 390.98 264.7 390.98 264.71 390.98 264.72 390.98 264.74 390.98 264.76 390.98 264.77 390.98 264.79 390.98 264.81 390.98 264.83 390.98 264.85 390.99 264.87 390.99 264.89 390.99 264.9 390.99 264.92 390.99 264.94 390.99 264.96 390.99 264.98 390.99 265 390.99 265.01 390.99 265.03 390.99 265.05 390.99 265.08 391 265.1 391 265.13 391 265.16 391 265.18 391.01 265.2 391.01 265.22 391.01 265.24 391.01 265.25 391.01 265.27 391.01 265.29 391.01 265.3 391.01 265.32 391.01 265.36 391.01 265.37 391.01 265.38 391.01 265.4 391.01 265.42 391.01 265.44 391.01 265.45 391.01 265.47 391.02 265.49 391.02 265.5 391.02 265.52 391.02 265.54 391.02 265.55 391.03 265.57 391.03 265.59 391.03 265.6 391.03 265.62 391.03 265.64 391.03 265.66 391.03 265.67 391.03 265.7 391.03 265.72 391.03 265.74 391.03 265.75 391.03 265.78 391.03 265.8 391.04 265.82 391.04 265.84 391.04 265.85 391.04 265.87 391.04 265.89 391.05 265.92 391.05 265.94 391.05 265.96 391.05 265.98 391.05 266 391.05 266.01 391.05 266.03 391.05 266.05 391.05 266.07 391.05 266.09 391.05 266.1 391.05 266.12 391.05 266.14 391.06 266.16 391.06 266.17 391.06 266.19 391.06 266.2 391.06 266.24 391.06 266.26 391.06 266.27 391.06 266.29 391.07 266.31 391.07 266.33 391.07 266.34 391.07 266.36 391.07 266.38 391.07 266.42 391.07 266.49 391.07 266.53 391.07 266.56 391.07 266.58 391.07 266.62 391.08 266.63 391.08 266.65 391.07 266.66 391.07 266.7 391.07 266.71 391.07 266.74 391.08 266.75 391.08 266.77 391.08 266.78 391.03 266.77 391.01 266.76 391 266.76 390.98 266.76 390.96 266.75 390.94 266.75 390.93 266.74 390.89 266.73 390.87 266.73 390.83 266.72 390.82 266.71 390.8 266.71 390.78 266.71 390.77 266.7 390.75 266.7 390.74 266.7 390.72 266.69 390.7 266.69 390.69 266.68 390.67 266.68 390.66 266.67 390.64 266.67 390.62 266.66 390.6 266.66 390.58 266.65 390.57 266.65 390.55 266.64 390.53 266.64 390.52 266.64 390.51 266.63 390.49 266.63 390.47 266.62 390.46 266.61 390.44 266.61 390.42 266.61 390.41 266.6 390.38 266.59 390.36 266.59 390.35 266.59 390.33 266.58 390.31 266.58 390.29 266.57 390.27 266.57 390.26 266.57 390.24 266.57 390.23 266.56 390.21 266.56 390.2 266.56 390.18 266.55 390.16 266.55 390.15 266.54 390.14 266.54 390.12 266.53 390.1 266.53 390.09 266.53 390.07 266.53 390.05 266.53 390.05 266.53 390.03 266.53 390.01 266.52 389.99 266.52 389.98 266.51 389.96 266.5 389.94 266.49 389.93 266.47 389.92 266.46 389.92 266.45 389.9 266.44 389.88 266.44 389.85 266.43 389.83 266.43 389.82 266.42 389.81 266.42 389.79 266.42 389.77 266.41 389.76 266.4 389.74 266.4 389.72 266.39 389.7 266.38 389.69 266.36 389.68 266.35 389.67 266.34 389.66 266.32 389.65 266.31 389.65 266.3 389.39 266.44 389.23 266.35 389.19 266.33 389.17 266.32 389.16 266.31 389.15 266.3 389.13 266.3 389.11 266.29 389.1 266.29 389.09 266.28 389.07 266.27 389.05 266.27 389.04 266.27 389.02 266.27 389 266.27 388.99 266.27 388.97 266.27 388.96 266.27 388.94 266.27 388.92 266.28 388.92 266.28 388.9 266.28 388.88 266.28 388.87 266.28 388.85 266.28 388.84 266.28 388.82 266.28 388.8 266.28 388.78 266.28 388.77 266.28 388.75 266.28 388.73 266.28 388.73 266.28 388.71 266.28 388.69 266.29 388.67 266.29 388.66 266.29 388.65 266.3 388.63 266.3 388.61 266.31 388.6 266.31 388.58 266.32 388.57 266.32 388.55 266.33 388.53 266.34 388.51 266.35 388.5 266.36 388.48 266.38 388.48 266.39 388.47 266.41 388.46 266.42 388.45 266.43 388.43 266.44 388.41 266.44 388.4 266.44 388.38 266.44 388.37 266.44 388.35 266.44 388.34 266.44 388.32 266.44 388.3 266.45 388.29 266.45 388.27 266.44 388.24 266.44 388.23 266.44 388.21 266.44 388.2 266.44 388.18 266.43 388.17 266.43 388.13 266.43 388.11 266.43 388.1 266.43 388.08 266.43 388.06 266.43 388.05 266.43 388.03 266.43 388.02 266.43 388 266.43 387.99 266.43 387.97 266.43 387.95 266.43 387.94 266.44 387.91 266.44 387.89 266.44 387.87 266.44 387.86 266.45 387.84 266.45 387.82 266.46 387.8 266.46 387.79 266.46 387.78 266.47 387.76 266.47 387.75 266.47 387.73 266.48 387.72 266.48 387.71 266.49 387.69 266.49 387.67 266.49 387.66 266.5 387.65 266.5 387.64 266.51 387.63 266.52 387.62 266.53 387.61 266.53 387.59 266.54 387.58 266.54 387.56 266.55 387.55 266.56 387.53 266.57 387.52 266.57 387.5 266.58 387.48 266.59 387.48 266.59 387.47 266.61 387.46 266.62 387.45 266.63 387.44 266.66 387.42 266.69 387.41 266.69 387.4 266.71 387.39 266.73 387.38 266.74 387.31 266.82 387.3 266.83 387.29 266.84 387.29 266.86 387.28 266.87 387.27 266.89 387.26 266.91 387.24 266.94 387.23 266.95 387.22 266.97 387.21 266.98 387.2 267 387.19 267.01 387.18 267.02 387.17 267.04 387.16 267.06 387.14 267.07 387.13 267.08 387.12 267.1 387.11 267.11 387.1 267.12 387.02 267.19 387 267.2 386.98 267.22 386.94 267.25 386.9 267.28 386.86 267.31 386.85 267.32 386.84 267.33 386.8 267.37 386.78 267.38 386.77 267.39 386.76 267.4 386.74 267.41 386.73 267.42 386.71 267.43 386.7 267.44 386.68 267.45 386.67 267.46 386.65 267.47 386.63 267.48 386.62 267.48 386.6 267.49 386.57 267.51 386.54 267.52 386.52 267.53 386.51 267.54 386.49 267.55 386.48 267.55 386.46 267.56 386.44 267.57 386.43 267.57 386.41 267.58 386.4 267.59 386.27 267.64 386.27 267.64 386.26 267.62 386.26 267.6 386.26 267.59 386.25 267.57 386.25 267.56 386.25 267.54 386.25 267.54 386.25 267.52 386.24 267.51 386.24 267.49 386.23 267.44 386.22 267.39 386.2 267.28 386.14 267.11 386.13 267.04 386.12 266.99 386.02 266.74 386.02 266.69 386.01 266.67 386.02 266.65 386.02 266.63 386.02 266.62 386.03 266.6 386.03 266.58 386.03 266.56 386.03 266.54 386.03 266.53 386.04 266.51 386.04 266.49 386.04 266.46 386.04 266.44 386.04 266.42 386.04 266.4 386.04 266.38 386.05 266.37 386.06 266.32 386.07 266.26 386.06 266.26 386.05 266.25 386.04 266.24 386.02 266.23 386.01 266.22 385.99 266.21 385.97 266.2 385.96 266.19 385.95 266.18 385.94 266.16 385.92 266.15 385.91 266.14 385.9 266.12 385.89 266.11 385.88 266.1 385.87 266.09 385.86 266.08 385.84 266.07 385.82 266.04 385.81 266.03 385.79 266.02 385.74 265.91 385.69 265.74 385.68 265.72 385.67 265.69 385.66 265.65 385.65 265.62 385.65 265.6 385.64 265.58 385.64 265.58 385.63 265.56 385.63 265.54 385.62 265.52 385.62 265.5 385.61 265.49 385.61 265.47 385.55 265.33 385.45 265.09 385.34 264.84 385.25 264.69 384.83 263.81 384.78 263.7 384.73 263.58 384.61 263.29 384.55 263.14 384.53 263.08 384.53 263.07 384.51 262.82 384.49 262.82 384.4 262.83 384.37 262.83 384.28 262.84 384.24 262.67 384.23 262.66 384.2 262.67 384.19 262.61 384.14 262.62 384.11 262.48 384.06 262.49 384.02 262.5 383.99 262.33 383.98 262.26 384.01 262.25 384.05 262.25 384.05 262.23 384.03 262.15 383.95 262.16 383.95 262.1 383.94 261.99 383.92 261.9 383.89 261.87 383.89 261.86 383.89 261.85 383.89 261.83 383.9 261.72 383.91 261.73 384.03 261.76 384.04 261.72 384.04 261.7 384.04 261.7 384.03 261.68 384.01 261.67 384.01 261.65 384.02 261.43 384.02 261.41 384.18 261.46 384.21 261.46 384.26 261.45 384.22 261.29 384.29 261.28 384.22 260.94 384.21 260.94 384.09 260.84 384.08 260.82 384.07 260.8 384.07 260.78 384.06 260.72 384.04 260.72 384 260.47 384.08 260.46 384.08 260.34 384.08 260.29 384.08 260.26 384.08 260.23 384.08 260.19 384.07 260.15 384.07 260.12 384.07 260.09 384.07 260.07 384.1 260.06 384.1 260.07 384.1 260.09 384.11 260.12 384.11 260.14 384.12 260.18 384.19 260.21 384.23 260.24 384.25 260.24 384.25 260.2 384.26 260.15 384.26 260.14 384.27 260.12 384.27 260.11 384.28 260.09 384.28 260.08 384.29 260.06 384.3 260.04 384.3 260.02 384.3 260.01 384.31 259.98 384.32 259.97 384.32 259.97 384.35 259.95 384.37 259.95 384.38 259.94 384.4 259.94 384.42 259.93 384.43 259.92 384.43 259.91 384.42 259.76 384.42 259.72 384.41 259.71 384.42 259.69 384.42 259.67 384.43 259.65 384.44 259.63 384.45 259.62 384.47 259.61 384.5 259.6 384.51 259.59 384.52 259.58 384.54 259.58 384.56 259.57 384.57 259.56 384.61 259.54 384.61 259.5 384.6 259.49 384.58 259.49 384.56 259.49 384.54 259.49 384.52 259.49 384.51 259.48 384.49 259.48 384.47 259.48 384.45 259.48 384.44 259.48 384.42 259.48 384.41 259.48 384.39 259.49 384.38 259.5 384.36 259.51 384.35 259.52 384.33 259.53 384.32 259.54 384.31 259.55 384.29 259.56 384.28 259.57 384.26 259.59 384.25 259.6 384.24 259.61 384.23 259.61 384.22 259.62 384.2 259.63 384.19 259.65 384.17 259.66 384.16 259.66 384.14 259.67 384.13 259.68 384.11 259.69 384.11 259.7 384.09 259.7 384.08 259.71 384.06 259.72 384.04 259.72 384.03 259.73 384.01 259.73 384 259.74 383.98 259.74 383.97 259.74 383.95 259.74 383.93 259.74 383.91 259.74 383.9 259.74 383.88 259.73 383.87 259.73 383.85 259.72 383.84 259.72 383.82 259.71 383.8 259.7 383.79 259.69 383.77 259.67 383.76 259.66 383.75 259.65 383.74 259.63 383.73 259.62 383.72 259.6 383.71 259.59 383.7 259.57 383.69 259.56 383.69 259.54 383.68 259.52 383.68 259.51 383.67 259.49 383.67 259.47 383.66 259.46 383.65 259.44 383.65 259.42 383.64 259.4 383.64 259.39 383.63 259.37 383.63 259.35 383.63 259.33 383.63 259.32 383.63 259.3 383.63 259.28 383.63 259.26 383.63 259.2 383.63 259.19 383.64 259.15 383.64 259.14 383.64 259.1 383.65 259.08 383.65 259.08 383.65 259.04 383.65 259.02 383.65 259.01 383.65 258.99 383.65 258.97 383.64 258.96 383.64 258.94 383.63 258.92 383.63 258.9 383.62 258.88 383.61 258.87 383.61 258.86 383.59 258.84 383.58 258.82 383.58 258.78 383.58 258.61 383.58 258.59 383.57 258.52 383.57 258.5 383.57 258.48 383.57 258.46 383.57 258.45 383.57 258.42 383.57 258.41 383.57 258.4 383.57 258.37 383.57 258.35 383.57 258.3 383.56 258.22 383.56 258.21 383.56 258.16 383.56 258.12 383.55 258.01 383.53 257.92 383.53 257.91 383.51 257.82 383.47 257.56 383.45 257.46 383.44 257.42 383.44 257.4 383.42 257.32 383.37 257.03 383.33 256.86 383.31 256.7 383.31 256.66 383.3 256.65 383.3 256.61 383.3 256.6 383.3 256.58 383.3 256.56 383.3 256.54 383.3 256.52 383.3 256.51 383.3 256.49 383.3 256.48 383.3 256.45 383.3 256.43 383.3 256.41 383.29 256.4 383.29 256.38 383.29 256.36 383.29 256.34 383.29 256.32 383.28 256.3 383.28 256.28 383.28 256.27 383.27 256.22 383.27 256.13 383.27 256.08 383.27 256.06 383.27 256.05 383.27 256.03 383.27 256.02 383.28 256 383.28 255.97 383.28 255.96 383.28 255.94 383.28 255.92 383.28 255.91 383.28 255.89 383.29 255.87 383.29 255.85 383.29 255.83 383.29 255.8 383.29 255.78 383.29 255.76 383.29 255.75 383.29 255.74 383.3 255.72 383.3 255.7 383.3 255.68 383.3 255.67 383.3 255.65 383.31 255.62 383.31 255.6 383.32 255.56 383.32 255.55 383.32 255.53 383.32 255.51 383.33 255.5 383.33 255.48 383.34 255.46 383.34 255.45 383.35 255.43 383.35 255.41 383.35 255.4 383.36 255.38 383.36 255.37 383.36 255.35 383.37 255.33 383.38 255.29 383.38 255.28 383.35 255.22 383.06 254.77 382.55 253.95 382.5 253.85 382.49 253.84 382.48 253.81 382.44 253.73 382.42 253.7 382.41 253.67 382.4 253.64 382.38 253.62 382.37 253.59 382.36 253.57 382.35 253.54 382.33 253.51 382.32 253.49 382.31 253.47 382.3 253.46 382.3 253.44 382.26 253.37 382.25 253.35 382.23 253.32 382.22 253.3 382.22 253.29 382.21 253.27 382.2 253.26 382.18 253.21 382.15 253.16 382.14 253.13 382.13 253.11 382.12 253.1 382.11 253.08 382.09 253.04 382.04 252.94 382.02 252.89 382.02 252.89 382 252.85 381.98 252.82 381.97 252.8 381.97 252.79 381.96 252.78 381.93 252.72 381.92 252.7 381.91 252.69 381.89 252.64 381.88 252.62 381.87 252.59 381.86 252.58 381.85 252.56 381.84 252.54 381.84 252.53 381.83 252.51 381.82 252.49 381.81 252.47 381.8 252.45 381.79 252.43 381.78 252.42 381.78 252.4 381.77 252.39 381.76 252.37 381.75 252.35 381.75 252.34 381.74 252.32 381.73 252.31 381.72 252.29 381.7 252.24 381.67 252.19 381.65 252.14 381.64 252.13 381.63 252.11 381.62 252.08 381.6 252.05 381.59 252.03 381.59 252.01 381.58 252 381.57 251.98 381.57 251.96 381.56 251.95 381.56 251.93 381.55 251.91 381.54 251.89 381.54 251.88 381.53 251.84 381.52 251.83 381.51 251.81 381.51 251.79 381.5 251.76 381.49 251.74 381.49 251.73 381.48 251.71 381.47 251.7 381.47 251.68 381.46 251.67 381.45 251.65 381.45 251.63 381.42 251.59 381.42 251.57 381.41 251.56 381.4 251.54 381.39 251.52 381.39 251.5 381.38 251.49 381.38 251.47 381.36 251.44 381.36 251.42 381.35 251.41 381.35 251.4 381.34 251.38 381.34 251.37 381.33 251.35 381.32 251.34 381.31 251.32 381.31 251.3 381.3 251.28 381.27 251.2 381.26 251.19 381.25 251.17 381.25 251.16 381.24 251.14 381.23 251.13 381.22 251.11 381.22 251.1 381.2 251.06 381.2 251.04 381.18 251.01 381.18 250.99 381.17 250.97 381.16 250.94 381.15 250.92 381.14 250.91 381.13 250.9 381.13 250.88 381.12 250.86 381.11 250.84 381.1 250.83 381.1 250.81 381.09 250.79 381.07 250.74 381.06 250.72 381.05 250.69 381.04 250.67 381.03 250.65 381.03 250.63 381.02 250.62 381.01 250.6 381 250.59 381 250.57 380.99 250.55 380.98 250.54 380.97 250.52 380.96 250.51 380.96 250.49 380.94 250.47 380.93 250.44 380.93 250.43 380.92 250.42 380.91 250.4 380.9 250.39 380.89 250.37 380.89 250.35 380.88 250.34 380.88 250.32 380.87 250.31 380.87 250.29 380.86 250.27 380.86 250.26 380.85 250.24 380.84 250.21 380.84 250.19 380.84 250.17 380.83 250.16 380.83 250.14 380.83 250.12 380.82 250.11 380.82 250.1 380.82 250.08 380.81 250.06 380.81 250.05 380.81 250.03 380.81 250.01 380.8 250 380.8 249.98 380.8 249.94 380.79 249.92 380.79 249.91 380.78 249.87 380.77 249.81 380.77 249.79 380.77 249.78 380.77 249.76 380.77 249.73 380.77 249.72 380.76 249.7 380.76 249.68 380.76 249.66 380.76 249.65 380.77 249.51 380.77 249.49 380.77 249.47 380.77 249.45 380.76 249.43 380.75 249.42 380.74 249.4 380.73 249.39 380.72 249.38 380.71 249.37 380.7 249.35 380.69 249.34 380.68 249.32 380.66 249.3 380.65 249.28 380.64 249.27 380.63 249.25 380.62 249.24 380.61 249.22 380.6 249.2 380.58 249.18 380.57 249.16 380.56 249.15 380.55 249.13 380.54 249.12 380.53 249.1 380.51 249.07 380.5 249.06 380.49 249.04 380.47 249.01 380.45 248.98 380.44 248.96 380.43 248.95 380.41 248.92 380.4 248.89 380.38 248.86 380.37 248.85 380.34 248.8 380.32 248.77 380.31 248.75 380.3 248.74 380.29 248.72 380.28 248.71 380.26 248.68 380.24 248.65 380.22 248.62 380.21 248.6 380.2 248.58 380.19 248.56 380.18 248.55 380.16 248.52 380.15 248.5 380.14 248.49 380.13 248.47 380.12 248.44 380.11 248.42 380.1 248.41 380.09 248.4 380.08 248.38 380.07 248.37 380.05 248.34 380.04 248.32 380.02 248.29 379.99 248.25 379.96 248.2 379.95 248.19 379.94 248.17 379.92 248.15 379.9 248.12 379.88 248.09 379.87 248.08 379.86 248.06 379.84 248.03 379.83 248.02 379.82 248.01 379.81 247.99 379.8 247.98 379.79 247.97 379.78 247.95 379.77 247.94 379.76 247.92 379.75 247.91 379.74 247.9 379.73 247.89 379.72 247.87 379.72 247.86 379.71 247.84 379.7 247.83 379.68 247.81 379.67 247.8 379.66 247.78 379.65 247.77 379.64 247.76 379.63 247.74 379.61 247.73 379.6 247.72 379.59 247.71 379.58 247.69 379.57 247.68 379.56 247.66 379.55 247.65 379.54 247.63 379.52 247.62 379.51 247.6 379.5 247.59 379.49 247.58 379.48 247.56 379.47 247.55 379.44 247.52 379.42 247.49 379.41 247.48 379.4 247.47 379.39 247.45 379.38 247.44 379.37 247.43 379.36 247.41 379.34 247.4 379.33 247.39 379.31 247.36 379.29 247.35 379.28 247.33 379.27 247.32 379.26 247.31 379.25 247.3 379.23 247.28 379.22 247.26 379.2 247.24 379.19 247.22 379.17 247.2 379.16 247.19 379.14 247.19 379.13 247.18 379.12 247.16 379.12 247.15 379.11 247.13 379.09 247.1 379.08 247.08 379.08 247.07 379.07 247.06 379.07 247.04 379.06 247.02 379.06 247.01 379.05 246.99 379.05 246.97 379.04 246.96 379.04 246.94 379.03 246.93 379.02 246.91 379.01 246.88 379 246.85 379 246.84 378.99 246.82 378.98 246.79 378.98 246.77 378.97 246.75 378.96 246.72 378.96 246.71 378.95 246.7 378.95 246.68 378.94 246.66 378.93 246.65 378.93 246.63 378.92 246.61 378.92 246.6 378.91 246.58 378.91 246.56 378.9 246.55 378.9 246.53 378.89 246.52 378.89 246.5 378.88 246.49 378.87 246.47 378.86 246.44 378.86 246.44 378.85 246.4 378.84 246.39 378.84 246.37 378.83 246.36 378.82 246.34 378.82 246.32 378.81 246.31 378.81 246.3 378.8 246.28 378.8 246.26 378.79 246.25 378.79 246.23 378.78 246.21 378.77 246.2 378.77 246.18 378.76 246.16 378.76 246.15 378.75 246.13 378.75 246.11 378.74 246.09 378.74 246.07 378.74 246.06 378.74 246.04 378.73 246 378.73 245.99 378.73 245.98 378.73 245.96 378.72 245.94 378.72 245.92 378.72 245.91 378.71 245.87 378.71 245.85 378.7 245.82 378.7 245.79 378.69 245.77 378.69 245.76 378.68 245.7 378.68 245.69 378.67 245.66 378.67 245.64 378.67 245.62 378.66 245.61 378.65 245.55 378.65 245.54 378.64 245.5 378.64 245.48 378.64 245.47 378.63 245.44 378.63 245.4 378.62 245.38 378.62 245.37 378.61 245.32 378.61 245.3 378.61 245.28 378.6 245.26 378.6 245.24 378.59 245.17 378.58 245.13 378.58 245.12 378.57 245.08 378.57 245.07 378.56 245.05 378.56 245.03 378.56 245 378.55 244.96 378.55 244.95 378.54 244.91 378.54 244.89 378.54 244.87 378.53 244.83 378.53 244.82 378.52 244.78 378.51 244.73 378.51 244.7 378.5 244.68 378.5 244.65 378.49 244.63 378.49 244.59 378.48 244.58 378.48 244.56 378.48 244.54 378.47 244.53 378.47 244.51 378.47 244.49 378.47 244.47 378.46 244.44 378.46 244.42 378.45 244.4 378.45 244.39 378.45 244.37 378.45 244.35 378.44 244.33 378.44 244.32 378.44 244.3 378.44 244.28 378.43 244.27 378.43 244.25 378.42 244.22 378.42 244.2 378.41 244.18 378.41 244.17 378.41 244.15 378.4 244.12 378.4 244.1 378.4 244.08 378.39 244.06 378.39 244.03 378.38 244 378.38 243.96 378.37 243.93 378.37 243.92 378.36 243.89 378.36 243.85 378.35 243.84 378.35 243.82 378.34 243.75 378.33 243.71 378.32 243.66 378.32 243.64 378.31 243.59 378.3 243.55 378.3 243.54 378.29 243.5 378.29 243.47 378.28 243.42 378.27 243.38 378.25 243.27 378.24 243.22 378.22 243.08 378.21 243 378.2 242.96 378.2 242.95 378.19 242.91 378.19 242.89 378.18 242.88 378.18 242.86 378.18 242.82 378.17 242.79 378.17 242.77 378.16 242.75 378.16 242.72 378.15 242.69 378.15 242.68 378.15 242.66 378.14 242.65 378.14 242.63 378.14 242.61 378.13 242.58 378.13 242.57 378.13 242.55 378.12 242.53 378.12 242.5 378.11 242.46 378.11 242.45 378.1 242.42 378.1 242.41 378.09 242.34 378.08 242.31 378.08 242.27 378.07 242.24 378.06 242.2 378.06 242.18 378.05 242.15 378.05 242.14 378.05 242.13 378.05 242.1 378.04 242.08 378.04 242.06 378.03 242.03 378.03 242.01 378.03 241.99 378.02 241.97 378.02 241.96 378.01 241.94 378.01 241.91 378.02 241.9 378.03 241.89 378.05 241.87 378.06 241.87 378.07 241.86 378.09 241.85 378.1 241.84 378.12 241.83 378.14 241.82 378.17 241.8 378.18 241.79 378.22 241.77 378.24 241.76 378.25 241.75 378.27 241.74 378.28 241.74 378.3 241.72 378.32 241.71 378.34 241.71 378.36 241.7 378.37 241.69 378.38 241.68 378.4 241.68 378.41 241.67 378.52 241.6 378.54 241.61 378.56 241.62 378.57 241.63 378.59 241.64 378.6 241.64 378.6 241.64 378.62 241.65 378.64 241.66 378.66 241.67 378.67 241.67 378.69 241.68 378.71 241.69 378.72 241.7 378.73 241.7 378.74 241.7 378.76 241.71 378.77 241.72 378.81 241.73 378.82 241.73 378.84 241.74 378.85 241.75 378.87 241.75 378.88 241.76 378.9 241.77 378.91 241.77 378.92 241.78 378.95 241.79 378.96 241.8 378.99 241.82 379.01 241.83 379.06 241.85 379.09 241.87 379.12 241.89 379.15 241.9 379.17 241.91 379.18 241.92 379.19 241.92 379.2 241.93 379.31 242.01 379.32 242.02 379.33 241.99 379.34 241.98 379.35 241.96 379.36 241.93 379.38 241.89 379.38 241.88 379.39 241.85 379.4 241.84 379.41 241.82 379.41 241.8 379.42 241.79 379.43 241.78 379.43 241.76 379.44 241.74 379.46 241.71 379.47 241.68 379.48 241.67 379.5 241.64 379.53 241.58 379.55 241.53 379.57 241.48 379.58 241.46 379.62 241.39 379.63 241.37 379.65 241.36 379.68 241.35 379.74 241.33 379.78 241.31 379.85 241.28 379.93 241.25 379.95 241.24 379.96 241.24 380.01 241.22 380.03 241.21 380.05 241.21 380.06 241.2 380.08 241.19 380.1 241.19 380.12 241.18 380.14 241.18 380.15 241.17 380.17 241.17 380.19 241.16 380.2 241.16 380.27 241.14 380.28 241.12 380.29 241.1 380.3 241.09 380.32 241.05 380.34 241.01 380.36 240.98 380.4 240.89 380.45 240.8 380.46 240.79 380.47 240.77 380.5 240.72 380.52 240.67 380.53 240.65 380.56 240.59 380.57 240.57 380.58 240.56 380.59 240.55 380.61 240.54 380.62 240.53 380.64 240.51 380.66 240.5 380.68 240.48 380.7 240.47 380.71 240.45 380.72 240.45 380.73 240.44 380.75 240.42 380.76 240.41 380.78 240.4 380.79 240.39 380.83 240.36 380.85 240.36 380.87 240.37 380.88 240.37 380.9 240.38 380.92 240.38 380.94 240.39 380.97 240.4 381.01 240.4 381.03 240.41 381.04 240.41 381.06 240.41 381.08 240.42 381.09 240.42 381.11 240.42 381.13 240.42 381.15 240.42 381.2 240.42 381.22 240.42 381.24 240.42 381.29 240.43 381.31 240.43 381.33 240.43 381.35 240.43 381.37 240.43 381.39 240.43 381.41 240.43 381.43 240.43 381.44 240.43 381.46 240.43 381.48 240.43 381.5 240.42 381.52 240.42 381.54 240.42 381.56 240.42 381.57 240.42 381.59 240.42 381.61 240.42 381.64 240.41 381.69 240.41 381.7 240.4 381.72 240.4 381.74 240.4 381.77 240.39 381.86 240.38 382.03 240.36 382.17 240.33 Z"/>
</g></svg>