<svg xmlns="http://www.w3.org/2000/svg" version="1.2" baseProfile="tiny" stroke-linecap="round" stroke-linejoin="round" viewBox="373.87 186 7.13 7.95"><g xmlns="http://www.w3.org/2000/svg" id="Baliarrain">
<path d="M 374.13 189.71 374.28 188.81 375.42 187.59 375.81 187.58 376.14 187.56 376.64 187.11 376.65 187.42 376.83 187.59 377.11 187.05 377.76 186.73 378.23 186.82 378.44 186.48 378.64 186.15 378.76 186.03 378.8 186.3 379.16 186.1 379.16 186.11 379.15 186.15 379.16 186.19 379.16 186.2 379.18 186.22 379.22 186.26 379.25 186.29 379.27 186.32 379.27 186.34 379.26 186.38 379.25 186.4 379.22 186.45 379.19 186.53 379.17 186.58 379.17 186.63 379.18 186.67 379.19 186.7 379.22 186.74 379.26 186.8 379.29 186.85 379.29 186.88 379.3 186.92 379.3 186.96 379.26 187.06 379.24 187.12 379.24 187.16 379.24 187.2 379.26 187.23 379.28 187.26 379.32 187.29 379.39 187.32 379.44 187.36 379.46 187.4 379.48 187.44 379.52 187.51 379.55 187.59 379.59 187.67 379.63 187.72 379.66 187.76 379.69 187.83 379.71 187.9 379.72 187.95 379.74 188.02 379.76 188.08 379.77 188.14 379.78 188.15 379.79 188.18 379.8 188.21 379.8 188.24 379.79 188.27 379.78 188.33 379.77 188.37 379.78 188.41 379.78 188.45 379.79 188.47 379.81 188.49 379.82 188.49 379.85 188.49 379.88 188.49 379.91 188.49 379.94 188.48 379.97 188.48 380 188.49 380.02 188.51 380.03 188.53 380.03 188.57 380.04 188.62 380.05 188.67 380.06 188.71 380.07 188.75 380.09 188.78 380.11 188.8 380.13 188.81 380.15 188.82 380.18 188.83 380.21 188.83 380.24 188.84 380.27 188.86 380.31 188.87 380.33 188.89 380.36 188.9 380.38 188.92 380.4 188.94 380.41 188.97 380.41 189 380.41 189.02 380.4 189.04 380.39 189.06 380.38 189.07 380.35 189.09 380.31 189.12 380.3 189.12 380.3 189.14 380.29 189.15 380.29 189.17 380.3 189.19 380.31 189.21 380.32 189.23 380.34 189.25 380.38 189.28 380.41 189.3 380.43 189.31 380.47 189.33 380.48 189.33 380.52 189.35 380.54 189.36 380.57 189.38 380.59 189.39 380.62 189.43 380.65 189.48 380.67 189.52 380.69 189.55 380.71 189.59 380.73 189.63 380.76 189.67 380.77 189.68 380.78 189.71 380.8 189.74 380.81 189.76 380.83 189.79 380.85 189.83 380.87 189.87 380.89 189.92 380.89 189.93 380.9 189.96 380.89 189.98 380.88 189.99 380.86 190.02 380.84 190.05 380.81 190.09 380.78 190.13 380.75 190.19 380.73 190.24 380.71 190.27 380.67 190.42 380.66 190.51 380.66 190.55 380.66 190.6 380.68 190.63 380.69 190.66 380.72 190.69 380.75 190.73 380.8 190.77 380.85 190.81 380.89 190.85 380.93 190.9 380.96 190.96 380.97 190.98 380.99 191.01 380.99 191.04 380.99 191.05 381 191.08 381 191.14 380.99 191.19 380.99 191.22 380.98 191.25 380.96 191.3 380.94 191.33 380.9 191.36 380.87 191.39 380.84 191.4 380.82 191.43 380.81 191.45 380.81 191.48 380.81 191.51 380.78 191.55 380.75 191.58 380.72 191.61 380.68 191.64 380.64 191.66 380.61 191.67 380.56 191.7 380.52 191.73 380.47 191.77 380.4 191.83 380.36 191.85 380.32 191.88 380.24 191.92 380.18 191.95 380.13 191.97 380.1 192 380.03 192.03 379.99 192.05 379.92 192.09 379.85 192.12 379.79 192.14 379.74 192.16 379.69 192.18 379.62 192.2 379.55 192.23 379.49 192.25 379.43 192.27 379.37 192.29 379.32 192.3 379.16 192.3 379.11 192.31 379.06 192.31 378.98 192.31 378.93 192.31 378.89 192.31 378.8 192.31 378.76 192.31 378.72 192.32 378.64 192.33 378.61 192.34 378.57 192.36 378.52 192.4 378.47 192.44 378.44 192.48 378.39 192.53 378.35 192.59 378.31 192.62 378.26 192.66 378.22 192.68 378.19 192.7 378.09 192.74 378.01 192.78 377.95 192.81 377.88 192.83 377.8 192.87 377.74 192.9 377.68 192.93 377.62 192.96 377.52 193 377.42 193.04 377.34 193.06 377.26 193.09 377.2 193.11 377.13 193.11 377.09 193.11 377.05 193.11 376.97 193.11 376.91 193.1 376.86 193.09 376.83 193.11 376.8 193.13 376.78 193.15 376.74 193.19 376.72 193.22 376.67 193.25 376.63 193.26 376.57 193.27 376.54 193.27 376.5 193.27 376.49 193.28 376.45 193.33 376.4 193.38 376.37 193.41 376.33 193.43 376.24 193.48 376.2 193.49 376.15 193.51 376.08 193.51 376.01 193.53 375.96 193.55 375.9 193.59 375.85 193.62 375.82 193.65 375.79 193.68 375.73 193.7 375.68 193.72 375.63 193.73 375.59 193.74 375.53 193.76 375.47 193.77 375.42 193.8 375.36 193.82 375.33 193.84 375.3 193.84 375.26 193.85 375.22 193.86 375.17 193.86 375.12 193.87 375.07 193.88 375.06 193.92 375.07 193.74 374.93 193.61 374.88 193.45 374.78 193.27 374.7 193.06 374.64 192.9 374.54 192.67 374.44 192.42 374.32 192.37 374.21 192.31 374.2 191.81 374.19 191.46 373.89 191.28 374.13 189.71 Z"/>
</g></svg>