<svg xmlns="http://www.w3.org/2000/svg" version="1.2" baseProfile="tiny" stroke-linecap="round" stroke-linejoin="round" viewBox="501.85 291.25 8.43 4.03"><g xmlns="http://www.w3.org/2000/svg" id="Barañain">
<path d="M 507.19 293.94 506.56 294.16 506.56 294.14 506.42 294.19 506.41 294.2 506.35 294.22 506.3 294.25 506.24 294.27 506.2 294.29 506.11 294.34 506.03 294.37 505.97 294.4 505.89 294.44 505.82 294.48 505.66 294.56 505.59 294.6 505.55 294.62 505.51 294.6 505.44 294.58 505.38 294.57 505.33 294.59 505.29 294.61 505.25 294.62 505.19 294.64 505.13 294.66 505.07 294.67 505.01 294.69 504.95 294.69 504.88 294.7 504.82 294.7 504.75 294.68 504.64 294.66 504.57 294.65 504.51 294.63 504.46 294.6 504.4 294.56 504.36 294.51 504.33 294.47 504.27 294.48 504.21 294.49 504.16 294.48 504.11 294.48 504.08 294.48 503.61 294.53 503.59 294.54 503.57 294.54 503.46 294.55 503.44 294.55 503.41 294.55 503.56 294.79 503.65 294.93 503.69 294.99 503.73 295.04 503.74 295.06 503.71 295.09 503.71 295.09 503.69 295.11 503.62 295.13 503.55 295.16 503.52 295.16 503.49 295.18 503.42 295.2 503.35 295.22 503.3 295.23 503.27 295.24 503.22 295.24 503.14 295.25 503.06 295.26 502.99 295.27 502.91 295.27 502.84 295.25 502.75 295.23 502.67 295.2 502.58 295.18 502.48 295.16 502.39 295.13 502.3 295.08 502.22 295.05 502.14 295 502.09 294.97 502.04 294.93 501.99 294.88 501.97 294.85 501.95 294.82 501.93 294.78 501.93 294.74 501.94 294.69 501.96 294.63 501.96 294.58 501.97 294.53 501.96 294.48 501.96 294.43 501.95 294.39 501.94 294.34 501.92 294.3 501.89 294.27 501.86 294.24 501.89 294.22 501.92 294.18 501.98 294.13 502.04 294.06 502.11 293.99 502.16 293.95 502.23 293.89 502.32 293.81 502.38 293.76 502.43 293.72 502.48 293.67 502.53 293.62 502.58 293.57 502.63 293.52 502.66 293.49 502.68 293.48 502.69 293.47 502.72 293.45 502.77 293.39 502.84 293.34 502.9 293.28 502.93 293.25 503 293.2 503.06 293.16 503.12 293.11 503.18 293.07 503.24 293.02 503.28 292.98 503.32 292.95 503.36 292.9 503.4 292.87 503.43 292.83 503.46 292.79 503.48 292.77 503.5 292.73 503.53 292.68 503.54 292.63 503.56 292.53 503.58 292.47 503.6 292.42 503.62 292.35 503.65 292.29 503.67 292.24 503.7 292.17 503.74 292.11 503.77 292.05 503.86 291.95 503.92 291.88 503.97 291.84 504.03 291.79 504.09 291.75 504.15 291.7 504.2 291.68 504.27 291.64 504.33 291.61 504.4 291.59 504.49 291.55 504.56 291.52 504.64 291.48 504.71 291.43 504.79 291.38 504.86 291.33 504.91 291.31 504.96 291.29 505.04 291.27 505.12 291.26 505.17 291.26 505.23 291.27 505.3 291.28 505.37 291.3 505.44 291.32 505.5 291.34 505.59 291.38 505.71 291.42 505.89 291.47 505.94 291.49 505.99 291.52 506.05 291.55 506.11 291.59 506.14 291.61 506.15 291.62 506.19 291.66 506.24 291.71 506.29 291.76 506.34 291.81 506.38 291.84 506.44 291.9 506.48 291.95 506.55 291.98 506.62 292.03 506.71 292.07 506.78 292.1 506.85 292.12 506.94 292.14 507.03 292.14 507.14 292.16 507.22 292.18 507.3 292.19 507.37 292.19 507.44 292.18 507.49 292.17 507.53 292.16 507.57 292.14 507.6 292.11 507.62 292.08 507.64 292.04 507.66 292 507.69 292 507.72 291.99 507.75 291.99 507.77 291.99 507.8 291.98 507.83 291.98 507.87 291.98 507.9 291.98 507.94 291.97 507.98 291.94 508.04 291.89 508.09 291.84 508.14 291.8 508.19 291.75 508.24 291.71 508.29 291.66 508.34 291.6 508.39 291.55 508.45 291.54 508.52 291.53 508.61 291.52 508.68 291.51 508.71 291.5 508.78 291.49 508.81 291.52 508.83 291.53 508.85 291.55 508.92 291.61 508.97 291.65 509.02 291.67 509.08 291.7 509.13 291.73 509.17 291.74 509.19 291.75 509.24 291.78 509.29 291.8 509.32 291.82 509.36 291.87 509.39 291.92 509.43 291.96 509.46 292 509.48 292.01 509.5 292.04 509.55 292.07 509.57 292.07 509.58 292.08 509.6 292.08 509.63 292.09 509.64 292.09 509.67 292.1 509.72 292.11 509.78 292.12 509.82 292.13 509.86 292.16 509.91 292.19 509.98 292.25 510.03 292.32 510.09 292.38 510.12 292.41 510.13 292.42 510.19 292.5 510.22 292.54 510.25 292.57 510.27 292.59 510.23 292.62 510.15 292.69 510.05 292.76 509.96 292.81 509.86 292.87 509.79 292.9 509.59 293 509.42 293.07 509.28 293.13 509.15 293.19 509 293.26 508.85 293.32 508.7 293.38 508.56 293.44 508.44 293.48 508.32 293.53 508.25 293.55 508.2 293.58 508.11 293.61 507.95 293.67 507.8 293.72 507.74 293.75 507.67 293.77 507.19 293.94 Z"/>
</g></svg>