<svg xmlns="http://www.w3.org/2000/svg" version="1.2" baseProfile="tiny" stroke-linecap="round" stroke-linejoin="round" viewBox="501.1 359.15 22.18 15.28"><g xmlns="http://www.w3.org/2000/svg" id="Barasoain">
<path d="M 511.87 359.47 512 359.36 512.02 359.36 512.06 359.32 512.11 359.3 512.13 359.28 512.16 359.27 512.27 359.22 512.27 359.21 512.34 359.18 512.34 359.26 512.34 359.28 512.34 359.3 512.34 359.32 512.34 359.34 512.34 359.34 512.35 359.36 512.36 359.38 512.36 359.39 512.37 359.41 512.38 359.42 512.39 359.44 512.4 359.45 512.41 359.47 512.42 359.48 512.43 359.5 512.44 359.52 512.45 359.54 512.45 359.55 512.46 359.57 512.47 359.58 512.48 359.6 512.48 359.61 512.49 359.62 512.49 359.64 512.5 359.66 512.51 359.68 512.51 359.7 512.52 359.71 512.52 359.72 512.52 359.73 512.53 359.76 512.54 359.78 512.54 359.79 512.55 359.81 512.55 359.82 512.56 359.84 512.57 359.85 512.58 359.87 512.58 359.89 512.59 359.9 512.6 359.92 512.61 359.93 512.62 359.94 512.62 359.95 512.65 360.01 512.66 360.03 512.67 360.04 512.68 360.06 512.68 360.07 512.69 360.08 512.7 360.1 512.71 360.12 512.71 360.13 512.72 360.15 512.73 360.16 512.74 360.18 512.75 360.2 512.75 360.22 512.77 360.25 512.78 360.27 512.78 360.27 512.79 360.29 512.79 360.3 512.8 360.32 512.81 360.33 512.82 360.35 512.82 360.36 512.83 360.38 512.84 360.39 512.85 360.41 512.86 360.43 512.87 360.44 512.88 360.46 512.89 360.47 512.9 360.48 512.91 360.5 512.92 360.51 512.93 360.53 512.93 360.55 512.94 360.56 512.95 360.58 512.96 360.6 512.97 360.61 512.98 360.63 512.99 360.64 513 360.66 513.01 360.68 513.01 360.68 513.02 360.7 513.02 360.72 513.03 360.73 513.04 360.75 513.04 360.77 513.05 360.78 513.05 360.79 513.06 360.8 513.07 360.82 513.07 360.84 513.09 360.87 513.11 360.92 513.12 360.93 513.17 360.97 513.18 360.99 513.19 361 513.2 361.01 513.22 361.02 513.23 361.04 513.25 361.06 513.26 361.07 513.28 361.09 513.31 361.12 513.33 361.15 513.34 361.16 513.37 361.19 513.38 361.2 513.41 361.23 513.42 361.24 513.44 361.26 513.45 361.28 513.49 361.32 513.49 361.32 513.51 361.34 513.52 361.35 513.53 361.36 513.54 361.38 513.55 361.39 513.57 361.4 513.58 361.42 513.59 361.43 513.6 361.44 513.61 361.45 513.62 361.47 513.63 361.48 513.64 361.5 513.66 361.51 513.67 361.53 513.67 361.54 513.68 361.55 513.69 361.56 513.72 361.61 513.76 361.67 514.23 362.36 514.27 362.42 514.31 362.42 514.33 362.43 514.35 362.43 514.36 362.43 514.38 362.44 514.4 362.44 514.42 362.44 514.42 362.45 514.48 362.45 514.49 362.46 514.51 362.46 514.53 362.47 514.55 362.48 514.56 362.48 514.58 362.49 514.59 362.5 514.61 362.51 514.62 362.52 514.64 362.53 514.66 362.53 514.67 362.54 514.68 362.55 514.7 362.56 514.74 362.58 514.74 362.59 514.75 362.6 514.76 362.6 514.78 362.61 514.79 362.62 514.81 362.63 514.82 362.63 514.89 362.66 514.9 362.67 514.92 362.68 514.93 362.69 514.95 362.7 514.96 362.7 514.98 362.72 514.99 362.73 515 362.74 515.04 362.8 515.05 362.81 515.06 362.82 515.07 362.82 515.08 362.83 515.09 362.84 515.11 362.86 515.13 362.86 515.14 362.87 515.17 362.89 515.19 362.89 515.2 362.9 515.22 362.9 515.24 362.91 515.26 362.91 515.27 362.91 515.29 362.92 515.31 362.92 515.31 362.93 515.33 362.93 515.35 362.93 515.4 362.94 515.42 362.94 515.43 362.94 515.45 362.94 515.47 362.94 515.48 362.94 515.5 362.94 515.52 362.94 515.54 362.94 515.56 362.93 515.57 362.93 515.59 362.93 515.61 362.93 515.62 362.92 515.64 362.92 515.66 362.92 515.71 362.91 515.74 362.91 515.75 362.91 515.76 362.91 515.78 362.91 515.79 362.91 515.81 362.92 515.83 362.93 515.85 362.95 515.86 362.96 515.87 362.97 515.87 362.99 515.88 363 515.88 363.02 515.89 363.03 515.9 363.04 515.91 363.06 515.92 363.07 515.93 363.08 515.94 363.09 515.95 363.1 515.96 363.11 515.98 363.12 516 363.14 516.03 363.15 516.03 363.15 516.05 363.16 516.07 363.17 516.07 363.17 516.08 363.18 516.11 363.19 516.12 363.19 516.14 363.2 516.17 363.2 516.18 363.21 516.2 363.21 516.22 363.22 516.23 363.22 516.25 363.23 516.26 363.23 516.28 363.24 516.29 363.24 516.31 363.25 516.32 363.26 516.34 363.26 516.35 363.27 516.36 363.27 516.38 363.27 516.41 363.27 516.43 363.28 516.44 363.28 516.46 363.28 516.48 363.28 516.5 363.28 516.51 363.28 516.53 363.29 516.54 363.29 516.56 363.29 516.59 363.29 516.66 363.3 516.68 363.3 516.78 363.31 516.79 363.31 516.79 363.31 516.81 363.32 516.83 363.32 516.85 363.32 516.86 363.32 516.88 363.32 516.9 363.33 516.91 363.33 516.93 363.33 516.95 363.33 516.97 363.34 516.98 363.34 517 363.34 517.02 363.34 517.04 363.34 517.04 363.34 517.08 363.34 517.1 363.35 517.11 363.35 517.12 363.35 517.14 363.35 517.16 363.35 517.18 363.36 517.19 363.36 517.21 363.36 517.22 363.36 517.24 363.37 517.25 363.37 517.28 363.38 517.3 363.38 517.31 363.38 517.33 363.38 517.34 363.39 517.36 363.39 517.37 363.39 517.39 363.39 517.4 363.39 517.42 363.4 517.44 363.4 517.45 363.4 517.47 363.41 517.49 363.41 517.51 363.41 517.53 363.42 517.54 363.42 517.56 363.42 517.57 363.43 517.59 363.43 517.61 363.43 517.63 363.44 517.66 363.44 517.67 363.45 517.71 363.45 517.76 363.46 517.78 363.47 517.79 363.47 517.81 363.47 517.83 363.48 517.85 363.48 517.87 363.49 517.91 363.5 517.92 363.5 517.95 363.51 517.96 363.51 517.97 363.52 517.99 363.52 518.01 363.53 518.02 363.53 518.03 363.53 518.05 363.54 518.07 363.56 518.09 363.56 518.1 363.57 518.11 363.59 518.13 363.61 518.13 363.62 518.14 363.63 518.15 363.64 518.16 363.65 518.16 363.67 518.17 363.68 518.18 363.7 518.19 363.71 518.19 363.73 518.2 363.74 518.2 363.76 518.21 363.77 518.22 363.79 518.22 363.8 518.23 363.81 518.24 363.83 518.25 363.85 518.25 363.86 518.26 363.87 518.27 363.89 518.28 363.9 518.28 363.91 518.29 363.92 518.3 363.94 518.31 363.95 518.33 363.97 518.34 363.99 518.35 364 518.36 364.01 518.37 364.03 518.38 364.04 518.39 364.05 518.4 364.06 518.41 364.07 518.42 364.08 518.43 364.09 518.45 364.1 518.45 364.11 518.47 364.12 518.48 364.13 518.49 364.14 518.51 364.15 518.52 364.16 518.54 364.17 518.55 364.18 518.57 364.19 518.58 364.2 518.6 364.21 518.61 364.22 518.65 364.25 518.65 364.25 518.67 364.26 518.68 364.28 518.7 364.29 518.72 364.29 518.72 364.3 518.74 364.31 518.75 364.31 518.76 364.31 518.78 364.32 518.81 364.33 518.83 364.34 518.87 364.35 518.88 364.35 518.9 364.36 518.92 364.36 518.95 364.37 518.99 364.38 519.02 364.39 519.03 364.4 519.05 364.4 519.07 364.41 519.08 364.41 519.11 364.42 519.12 364.42 519.13 364.43 519.15 364.43 519.17 364.44 519.2 364.44 519.23 364.45 519.24 364.46 519.26 364.46 519.28 364.47 519.28 364.47 519.34 364.48 519.42 364.5 519.53 364.54 519.63 364.57 519.63 364.57 519.64 364.58 519.66 364.59 519.7 364.62 519.82 364.71 519.82 364.72 519.84 364.73 519.85 364.74 519.86 364.75 519.87 364.76 519.88 364.77 519.91 364.8 519.92 364.81 519.93 364.83 519.95 364.84 519.96 364.86 519.96 364.87 519.97 364.88 519.99 364.9 520 364.91 520.16 365.1 520.17 365.11 520.28 365.24 520.3 365.25 520.31 365.26 520.5 365.47 520.51 365.48 520.54 365.49 520.93 365.67 520.95 365.67 520.96 365.68 520.97 365.69 520.99 365.69 521.01 365.7 521.02 365.71 521.03 365.72 521.06 365.73 521.07 365.73 521.1 365.75 521.12 365.75 521.15 365.77 521.17 365.78 521.18 365.78 521.2 365.79 521.21 365.8 521.23 365.81 521.25 365.81 521.26 365.82 521.28 365.83 521.3 365.84 521.31 365.84 521.33 365.85 521.37 365.87 521.39 365.87 521.4 365.88 521.41 365.88 521.43 365.89 521.45 365.89 521.46 365.9 521.48 365.9 521.49 365.9 521.5 365.91 521.52 365.91 521.54 365.92 521.57 365.92 521.59 365.93 521.61 365.93 521.63 365.94 521.64 365.94 521.67 365.95 521.72 365.96 521.74 365.97 521.77 365.98 521.8 365.98 521.81 365.99 521.83 365.99 521.87 366 521.88 366.01 521.95 366.03 522.01 366.04 522.03 366.05 522.05 366.05 522.07 366.06 522.09 366.06 522.13 366.07 522.14 366.08 522.18 366.09 522.21 366.1 522.23 366.1 522.26 366.11 522.28 366.12 522.31 366.13 522.41 366.15 522.48 366.17 522.52 366.19 522.56 366.2 522.6 366.21 522.68 366.23 522.73 366.24 522.88 366.28 522.87 366.3 522.87 366.32 522.86 366.36 522.85 366.39 522.84 366.43 522.83 366.47 522.82 366.49 522.82 366.5 522.81 366.53 522.8 366.55 522.79 366.59 522.79 366.61 522.78 366.62 522.77 366.68 522.76 366.7 522.76 366.72 522.75 366.74 522.74 366.77 522.73 366.79 522.73 366.8 522.72 366.82 522.72 366.84 522.72 366.86 522.71 366.88 522.71 366.88 522.7 366.9 522.7 366.92 522.69 366.93 522.68 366.95 522.67 366.97 522.66 367 522.65 367.03 522.64 367.06 522.63 367.08 522.63 367.1 522.63 367.1 522.62 367.12 522.61 367.15 522.61 367.17 522.6 367.18 522.6 367.2 522.59 367.23 522.58 367.26 522.57 367.28 522.57 367.3 522.56 367.31 522.56 367.33 522.55 367.35 522.55 367.36 522.54 367.38 522.54 367.39 522.52 367.43 522.52 367.44 522.5 367.48 522.5 367.5 522.49 367.51 522.49 367.52 522.48 367.54 522.48 367.55 522.48 367.57 522.47 367.6 522.47 367.62 522.46 367.64 522.46 367.66 522.46 367.66 522.45 367.68 522.45 367.71 522.44 367.73 522.44 367.74 522.43 367.78 522.43 367.8 522.43 367.81 522.42 367.84 522.42 367.87 522.41 367.89 522.41 367.9 522.41 367.91 522.41 367.93 522.41 367.95 522.4 367.97 522.4 367.99 522.4 368.03 522.39 368.06 522.39 368.08 522.39 368.1 522.39 368.12 522.38 368.13 522.38 368.15 522.38 368.17 522.38 368.2 522.38 368.22 522.37 368.29 522.37 368.33 522.37 368.38 522.37 368.4 522.36 368.42 522.36 368.44 522.36 368.46 522.36 368.47 522.36 368.49 522.36 368.51 522.36 368.52 522.36 368.56 522.36 368.6 522.36 368.62 522.36 368.67 522.4 368.73 522.41 368.75 522.44 368.79 522.45 368.81 522.46 368.83 522.47 368.85 522.48 368.86 522.49 368.88 522.51 368.9 522.51 368.91 522.52 368.92 522.53 368.94 522.54 368.95 522.55 368.98 522.56 368.99 522.57 369.01 522.58 369.01 522.59 369.03 522.6 369.04 522.61 369.06 522.62 369.07 522.63 369.09 522.64 369.11 522.65 369.12 522.66 369.14 522.67 369.15 522.67 369.16 522.68 369.17 522.68 369.19 522.69 369.19 522.7 369.21 522.71 369.22 522.71 369.24 522.72 369.25 522.73 369.27 522.74 369.28 522.75 369.29 522.76 369.31 522.77 369.33 522.78 369.34 522.79 369.36 522.8 369.37 522.81 369.39 522.82 369.4 522.83 369.42 522.84 369.42 522.85 369.44 522.86 369.45 522.88 369.47 522.89 369.48 522.9 369.49 522.91 369.51 522.92 369.52 522.94 369.53 522.95 369.54 522.96 369.56 522.97 369.57 522.98 369.58 522.99 369.58 523 369.6 523.02 369.61 523.03 369.62 523.04 369.63 523.05 369.64 523.06 369.65 523.07 369.66 523.09 369.67 523.1 369.68 523.11 369.69 523.12 369.71 523.14 369.72 523.16 369.74 523.17 369.75 523.18 369.75 523.19 369.77 523.21 369.78 523.24 369.8 523.27 369.82 523.25 369.83 523.23 369.84 523.23 369.84 523.21 369.85 523.19 369.85 523.17 369.87 523.14 369.88 523.12 369.89 523.09 369.9 523.08 369.91 523.06 369.92 523.05 369.93 523.03 369.93 523.02 369.94 523.01 369.95 522.98 369.96 522.96 369.98 522.96 369.98 522.94 369.99 522.92 370 522.9 370 522.89 370.01 522.87 370.01 522.86 370.02 522.85 370.02 522.7 370.06 522.54 370.11 522.41 370.15 522.29 370.2 522.18 370.25 522.02 370.31 521.97 370.34 521.89 370.38 521.85 370.42 521.83 370.43 521.8 370.44 521.79 370.44 521.73 370.47 521.69 370.49 521.67 370.5 521.64 370.51 521.51 370.57 521.47 370.59 521.41 370.62 521.36 370.64 521.27 370.68 521.24 370.7 521.05 370.7 521.05 370.72 520.9 370.85 520.76 370.96 520.54 371.14 520.51 371.18 520.49 371.2 520.29 371.24 520.21 371.25 520.05 371.28 519.75 371.52 519.73 371.52 519.72 371.53 519.71 371.55 519.69 371.56 519.67 371.59 519.66 371.61 519.66 371.62 519.65 371.63 519.64 371.65 519.62 371.66 519.6 371.67 519.58 371.67 519.57 371.67 519.55 371.68 519.55 371.68 519.53 371.7 519.52 371.72 519.5 371.74 519.48 371.75 519.46 371.77 519.44 371.78 519.41 371.81 519.23 371.9 519.15 371.94 519.12 371.95 519.1 371.96 519.08 371.98 518.96 372.04 518.91 372.07 518.87 372.09 518.84 372.1 518.73 372.15 518.66 372.18 518.61 372.2 518.6 372.21 518.47 372.25 518.46 372.26 518.44 372.27 518.42 372.27 518.41 372.28 518.39 372.28 518.38 372.29 518.36 372.3 518.35 372.31 518.33 372.31 518.32 372.32 518.31 372.33 518.29 372.34 518.28 372.35 518.27 372.36 518.25 372.37 518.24 372.37 518.22 372.38 518.19 372.38 518.17 372.39 518.15 372.39 518.13 372.39 518.09 372.4 518.05 372.4 518.03 372.41 518.02 372.41 518 372.41 517.98 372.42 517.97 372.42 517.96 372.42 517.89 372.42 517.83 372.41 517.82 372.41 517.8 372.4 517.78 372.39 517.76 372.38 517.75 372.38 517.73 372.37 517.7 372.35 517.69 372.34 517.65 372.33 517.62 372.31 517.59 372.3 517.57 372.29 517.54 372.27 517.53 372.26 517.51 372.25 517.51 372.25 517.49 372.24 517.47 372.24 517.46 372.23 517.42 372.22 517.41 372.21 517.39 372.2 517.37 372.19 517.36 372.18 517.34 372.18 517.32 372.17 517.31 372.16 517.29 372.16 517.26 372.15 517.24 372.14 517.23 372.13 517.19 372.12 517.18 372.11 517.16 372.11 517.14 372.1 517.13 372.1 517.09 372.09 517.08 372.08 517.06 372.08 517.02 372.07 517.01 372.07 516.99 372.06 516.97 372.06 516.96 372.05 516.94 372.04 516.93 372.03 516.91 372.02 516.9 372.01 516.88 372 516.85 371.98 516.84 371.97 516.83 371.96 516.82 371.95 516.8 371.94 516.79 371.93 516.77 371.92 516.76 371.91 516.73 371.89 516.71 371.89 516.69 371.88 516.68 371.87 516.66 371.86 516.65 371.85 516.64 371.84 516.62 371.83 516.61 371.81 516.6 371.8 516.58 371.79 516.55 371.76 516.54 371.75 516.52 371.74 516.51 371.73 516.49 371.72 516.48 371.71 516.46 371.69 516.44 371.69 516.43 371.68 516.41 371.67 516.4 371.66 516.39 371.66 516.37 371.65 516.36 371.64 516.34 371.63 516.32 371.63 516.3 371.62 516.28 371.61 516.27 371.61 516.25 371.6 516.23 371.6 516.22 371.59 516.2 371.59 516.18 371.58 516.18 371.58 516.16 371.58 516.14 371.58 516.12 371.57 516.11 371.57 516.07 371.56 516.05 371.56 516.03 371.56 516 371.55 515.98 371.55 515.96 371.54 515.94 371.54 515.92 371.53 515.91 371.53 515.89 371.52 515.87 371.51 515.84 371.5 515.82 371.49 515.81 371.49 515.79 371.48 515.78 371.48 515.76 371.47 515.74 371.47 515.73 371.47 515.71 371.47 515.69 371.47 515.68 371.47 515.66 371.47 515.64 371.46 515.62 371.46 515.6 371.46 515.57 371.46 515.49 371.45 515.48 371.45 515.46 371.45 515.44 371.45 515.42 371.45 515.4 371.44 515.39 371.44 515.37 371.44 515.33 371.43 515.32 371.43 515.29 371.42 515.24 371.41 515.22 371.41 515.21 371.41 515.19 371.4 515.17 371.4 515.15 371.4 515.14 371.4 515.12 371.4 515.1 371.4 515.09 371.41 515.05 371.41 515.03 371.41 515.02 371.41 515 371.41 514.95 371.42 514.91 371.42 514.89 371.42 514.88 371.42 514.86 371.42 514.83 371.43 514.82 371.43 514.8 371.43 514.78 371.43 514.76 371.43 514.75 371.44 514.73 371.44 514.71 371.45 514.69 371.45 514.67 371.45 514.65 371.46 514.64 371.46 514.62 371.46 514.61 371.47 514.59 371.47 514.54 371.49 514.52 371.49 514.49 371.51 514.48 371.51 514.46 371.52 514.44 371.52 514.43 371.52 514.4 371.53 514.38 371.53 514.37 371.54 514.35 371.54 514.33 371.54 514.31 371.55 514.3 371.55 514.28 371.55 514.27 371.55 514.25 371.55 514.21 371.55 514.2 371.55 514.18 371.55 514.16 371.55 514.14 371.55 514.09 371.55 514.05 371.55 514.04 371.55 514.02 371.55 513.97 371.55 513.95 371.55 513.93 371.55 513.92 371.55 513.89 371.55 513.88 371.55 513.84 371.56 513.83 371.56 513.82 371.56 513.78 371.56 513.76 371.56 513.75 371.56 513.73 371.56 513.71 371.57 513.7 371.57 513.69 371.58 513.67 371.58 513.65 371.59 513.64 371.6 513.62 371.61 513.61 371.62 513.6 371.63 513.58 371.63 513.56 371.64 513.55 371.64 513.53 371.65 513.49 371.65 513.48 371.65 513.45 371.66 513.42 371.66 513.33 371.68 513.27 371.69 513.24 371.69 513.22 371.69 513.21 371.7 513.18 371.7 513.16 371.71 513.11 371.72 513.08 371.72 513.06 371.72 513.03 371.73 512.92 371.75 512.91 371.75 512.87 371.76 512.86 371.76 512.84 371.76 512.82 371.76 512.81 371.77 512.79 371.76 512.77 371.76 512.75 371.76 512.74 371.76 512.72 371.76 512.7 371.76 512.69 371.76 512.67 371.75 512.65 371.75 512.62 371.74 512.6 371.74 512.59 371.74 512.57 371.74 512.56 371.74 512.54 371.73 512.52 371.73 512.5 371.73 512.49 371.73 512.47 371.74 512.45 371.74 512.43 371.74 512.41 371.74 512.37 371.75 512.35 371.75 512.34 371.75 512.32 371.75 512.3 371.75 512.29 371.76 512.27 371.76 512.23 371.76 512.22 371.77 512.2 371.77 512.18 371.77 512.17 371.77 512.16 371.78 512.14 371.78 512.12 371.78 512.09 371.78 512.05 371.78 512.01 371.78 511.94 371.79 511.9 371.79 511.89 371.79 511.87 371.79 511.85 371.79 511.83 371.79 511.82 371.79 511.79 371.8 511.78 371.8 511.76 371.8 511.74 371.8 511.72 371.81 511.71 371.81 511.69 371.81 511.67 371.82 511.66 371.82 511.64 371.82 511.63 371.83 511.61 371.83 511.59 371.84 511.58 371.84 511.56 371.85 511.54 371.85 511.52 371.86 511.51 371.87 511.49 371.88 511.48 371.89 511.42 371.92 511.4 371.92 511.39 371.93 511.37 371.94 511.36 371.95 511.34 371.95 511.32 371.96 511.3 371.96 511.29 371.97 511.27 371.97 511.25 371.98 511.24 371.98 511.22 371.98 511.2 371.99 511.18 371.99 511.16 371.99 511.15 372 511.13 372 511.11 372 511.09 372.01 511.08 372.01 511.06 372.01 511.05 372.01 511.03 372.01 510.99 372.01 510.95 372.01 510.84 372.01 510.75 372.01 510.72 372.01 510.69 372.01 510.63 372.02 510.62 372.02 510.6 372.02 510.58 372.02 510.56 372.02 510.54 372.02 510.53 372.02 510.51 372.03 510.49 372.03 510.48 372.04 510.46 372.04 510.39 372.05 510.34 372.07 510.32 372.07 510.3 372.07 510.28 372.08 510.26 372.08 510.24 372.08 510.22 372.09 510.21 372.09 510.19 372.09 510.17 372.09 510.15 372.09 510.12 372.09 510.1 372.09 510.08 372.09 510.01 372.09 510 372.09 509.98 372.09 509.96 372.09 509.94 372.09 509.93 372.09 509.91 372.09 509.89 372.09 509.87 372.09 509.85 372.09 509.83 372.1 509.82 372.1 509.76 372.11 509.75 372.11 509.73 372.11 509.71 372.11 509.7 372.12 509.68 372.12 509.66 372.12 509.65 372.13 509.63 372.14 509.61 372.14 509.6 372.15 509.56 372.16 509.55 372.16 509.54 372.17 509.52 372.18 509.5 372.19 509.49 372.19 509.47 372.2 509.45 372.21 509.44 372.21 509.42 372.22 509.4 372.22 509.39 372.22 509.37 372.23 509.35 372.23 509.33 372.23 509.32 372.24 509.3 372.24 509.28 372.24 509.26 372.24 509.24 372.24 509.21 372.24 509.19 372.24 509.17 372.24 509.16 372.24 509.12 372.24 509.1 372.24 509.09 372.24 509.07 372.24 509.06 372.25 509.04 372.25 509.02 372.26 509.01 372.26 508.99 372.27 508.97 372.28 508.96 372.29 508.94 372.3 508.93 372.3 508.91 372.31 508.9 372.32 508.87 372.34 508.84 372.36 508.83 372.37 508.81 372.38 508.8 372.39 508.78 372.4 508.7 372.45 508.69 372.46 508.67 372.47 508.66 372.48 508.64 372.5 508.63 372.51 508.62 372.52 508.6 372.53 508.59 372.54 508.57 372.55 508.56 372.56 508.54 372.57 508.53 372.57 508.5 372.59 508.48 372.6 508.47 372.61 508.45 372.62 508.44 372.62 508.4 372.64 508.39 372.65 508.36 372.66 508.3 372.69 508.25 372.72 508.2 372.74 508.16 372.76 508.11 372.79 508.07 372.81 508.03 372.83 507.98 372.86 507.92 372.89 507.88 372.91 507.8 372.96 507.74 372.99 507.71 373.01 507.65 373.04 507.62 373.06 507.61 373.07 507.59 373.07 507.58 373.08 507.55 373.09 507.54 373.1 507.52 373.11 507.5 373.12 507.49 373.12 507.47 373.13 507.43 373.13 507.31 373.2 507.3 373.2 507.25 373.22 507.21 373.23 507.18 373.24 507.16 373.24 507.11 373.25 507.08 373.26 507.06 373.27 507.04 373.27 507.02 373.28 506.99 373.29 506.97 373.29 506.95 373.3 506.93 373.3 506.91 373.3 506.9 373.31 506.87 373.31 506.85 373.31 506.83 373.32 506.82 373.32 506.8 373.32 506.78 373.32 506.76 373.32 506.75 373.32 506.73 373.31 506.71 373.31 506.7 373.31 506.68 373.3 506.67 373.3 506.65 373.29 506.62 373.28 506.6 373.28 506.57 373.27 506.53 373.26 506.52 373.25 506.5 373.25 506.48 373.24 506.46 373.24 506.44 373.24 506.43 373.24 506.41 373.24 506.39 373.24 506.38 373.24 506.36 373.24 506.34 373.24 506.32 373.24 506.31 373.24 506.28 373.25 506.27 373.25 506.25 373.25 506.23 373.26 506.21 373.26 506.2 373.26 506.18 373.27 506.16 373.27 506.14 373.27 506.13 373.28 506.09 373.29 506.06 373.29 506.05 373.3 506.03 373.3 506.01 373.3 506 373.31 505.98 373.31 505.97 373.32 505.95 373.33 505.93 373.34 505.92 373.35 505.9 373.36 505.89 373.37 505.87 373.37 505.86 373.38 505.84 373.39 505.82 373.4 505.81 373.41 505.79 373.41 505.77 373.41 505.75 373.41 505.74 373.41 505.7 373.41 505.68 373.41 505.66 373.41 505.64 373.41 505.62 373.41 505.6 373.41 505.58 373.41 505.56 373.41 505.54 373.41 505.49 373.4 505.47 373.4 505.46 373.4 505.44 373.4 505.42 373.4 505.4 373.4 505.39 373.4 505.37 373.4 505.36 373.4 505.35 373.41 505.33 373.42 505.07 373.51 505.05 373.52 504.82 373.6 504.47 373.75 504.09 373.89 503.9 373.98 503.84 374.01 503.47 374.22 503.06 374.31 503.04 374.31 503.03 374.31 502.92 374.33 502.88 374.34 502.71 374.39 502.67 374.39 502.66 374.39 502.44 374.37 502.42 374.36 502.16 374.41 502.1 374.42 501.98 374.1 501.94 373.98 501.93 373.95 501.93 373.94 501.92 373.88 501.91 373.79 501.89 373.74 501.88 373.68 501.88 373.66 501.9 373.56 501.9 373.53 501.89 373.52 501.88 373.48 501.76 373.38 501.71 373.34 501.66 373.28 501.62 373.25 501.59 373.22 501.57 373.21 501.55 373.21 501.54 373.2 501.52 373.2 501.5 373.19 501.49 373.18 501.47 373.18 501.45 373.17 501.45 373.17 501.43 373.16 501.41 373.15 501.4 373.14 501.38 373.13 501.37 373.12 501.35 373.11 501.34 373.1 501.31 373.08 501.3 373.07 501.28 373.06 501.26 373.05 501.25 373.04 501.23 373.03 501.22 373.03 501.2 373.01 501.19 373.01 501.18 372.99 501.16 372.98 501.15 372.97 501.14 372.96 501.12 372.94 501.12 372.92 501.12 372.91 501.11 372.89 501.11 372.87 501.11 372.85 501.11 372.84 501.11 372.82 501.1 372.8 501.11 372.78 501.11 372.76 501.11 372.75 501.12 372.68 501.12 372.66 501.12 372.64 501.12 372.63 501.12 372.61 501.12 372.59 501.12 372.58 501.13 372.56 501.13 372.54 501.13 372.52 501.13 372.51 501.13 372.49 501.13 372.47 501.13 372.45 501.13 372.44 501.13 372.41 501.13 372.4 501.13 372.38 501.13 372.36 501.13 372.34 501.13 372.32 501.13 372.3 501.13 372.29 501.13 372.27 501.13 372.25 501.13 372.23 501.12 372.21 501.12 372.19 501.12 372.18 501.12 372.16 501.12 372.14 501.11 372.12 501.11 372.12 501.11 372.1 501.11 372.08 501.11 372.05 501.11 372.03 501.11 372.02 501.11 372 501.1 371.98 501.1 371.96 501.17 371.91 501.14 371.74 501.15 371.71 501.17 371.67 501.17 371.65 501.18 371.64 501.19 371.62 501.2 371.61 501.21 371.6 501.22 371.58 501.23 371.57 501.24 371.55 501.25 371.54 501.26 371.53 501.27 371.51 501.29 371.5 501.3 371.49 501.31 371.47 501.32 371.46 501.34 371.46 501.47 371.43 501.48 371.42 501.49 371.4 501.5 371.39 501.52 371.38 501.53 371.38 501.55 371.37 501.65 371.31 501.67 371.29 501.68 371.28 501.68 371.26 501.69 371.25 501.7 371.24 501.7 371.22 501.71 371.21 501.72 371.19 501.73 371.17 501.74 371.16 501.75 371.14 501.76 371.13 501.76 371.12 501.76 371.1 501.77 371.08 501.77 371.06 501.78 371.04 501.78 371.03 501.79 371.02 501.79 371.01 501.79 370.99 501.8 370.98 501.8 370.97 501.8 370.96 501.8 370.94 501.81 370.93 501.82 370.9 501.82 370.88 501.82 370.87 501.82 370.85 501.82 370.83 501.82 370.83 501.82 370.81 501.82 370.79 501.82 370.77 501.82 370.76 501.82 370.74 501.82 370.73 501.82 370.71 501.82 370.7 501.82 370.69 501.82 370.68 501.82 370.67 501.82 370.65 501.82 370.64 501.82 370.62 501.82 370.6 501.82 370.59 501.82 370.58 501.82 370.57 501.82 370.54 501.82 370.53 501.82 370.51 501.82 370.5 501.82 370.49 501.81 370.47 501.81 370.46 501.81 370.44 501.81 370.43 501.81 370.42 501.81 370.41 501.81 370.4 501.81 370.39 501.81 370.37 501.81 370.37 501.81 370.35 501.83 370.34 501.84 370.33 501.85 370.31 501.85 370.31 501.86 370.3 501.87 370.3 501.88 370.29 501.89 370.28 501.9 370.28 501.91 370.27 501.92 370.26 501.94 370.25 501.95 370.24 501.97 370.23 501.98 370.22 501.99 370.21 502 370.2 502.01 370.19 502.03 370.17 502.04 370.16 502.04 370.14 502.05 370.13 502.12 369.94 502.13 369.9 502.13 369.81 502.13 369.8 502.12 369.78 502.13 369.77 502.13 369.75 502.14 369.73 502.15 369.72 502.16 369.7 502.18 369.69 502.19 369.67 502.2 369.66 502.21 369.65 502.23 369.64 502.26 369.62 502.28 369.61 502.29 369.6 502.31 369.59 502.32 369.58 502.34 369.57 502.36 369.56 502.37 369.55 502.39 369.54 502.4 369.53 502.42 369.53 502.46 369.5 502.48 369.49 502.49 369.48 502.51 369.47 502.53 369.47 502.54 369.46 502.56 369.45 502.62 369.42 502.69 369.36 502.74 369.32 502.75 369.31 502.76 369.3 502.77 369.28 502.78 369.26 502.78 369.25 502.79 369.23 502.79 369.22 502.8 369.2 502.8 369.18 502.81 369.16 502.81 369.15 502.82 369.13 502.83 369.12 502.84 369.1 502.85 369.09 502.85 369.08 502.87 369.07 502.89 369.04 502.9 369.03 502.92 369.02 502.93 369.01 502.94 368.99 502.95 368.98 502.96 368.96 502.97 368.94 502.98 368.92 502.99 368.9 502.99 368.89 502.99 368.88 502.99 368.86 502.99 368.85 502.99 368.83 502.98 368.82 502.97 368.8 502.97 368.79 502.96 368.77 502.96 368.76 502.95 368.75 502.95 368.73 502.94 368.72 502.94 368.69 502.94 368.68 502.93 368.66 502.94 368.65 502.94 368.63 502.94 368.62 502.95 368.61 502.95 368.61 502.95 368.6 502.95 368.59 502.96 368.57 502.96 368.56 502.97 368.55 502.98 368.53 502.99 368.51 503 368.5 503.02 368.49 503.03 368.47 503.04 368.46 503.05 368.45 503.06 368.44 503.07 368.42 503.08 368.41 503.14 368.34 503.21 368.4 503.22 368.41 503.23 368.42 503.25 368.43 503.26 368.44 503.27 368.45 503.29 368.46 503.31 368.46 503.32 368.47 503.34 368.47 503.4 368.49 503.41 368.49 503.43 368.5 503.43 368.5 503.45 368.5 503.46 368.5 503.47 368.5 503.48 368.49 503.5 368.49 503.51 368.49 503.53 368.49 503.55 368.48 503.57 368.49 503.58 368.49 503.6 368.49 503.61 368.49 503.63 368.49 503.65 368.49 503.67 368.49 503.68 368.49 503.7 368.49 503.72 368.49 503.74 368.49 503.76 368.48 503.78 368.48 503.79 368.48 503.8 368.47 503.82 368.47 503.84 368.47 503.85 368.46 503.87 368.45 503.88 368.44 503.9 368.44 503.91 368.43 503.95 368.41 503.96 368.41 503.98 368.4 503.99 368.4 504.06 368.37 504.1 368.35 504.17 368.32 504.18 368.32 504.2 368.31 504.21 368.3 504.23 368.29 504.24 368.29 504.26 368.28 504.27 368.27 504.29 368.26 504.3 368.24 504.3 368.22 504.33 368.17 504.34 368.15 504.35 368.12 504.36 368.09 504.38 368.05 504.4 367.99 504.5 367.76 504.52 367.72 504.56 367.67 504.58 367.65 504.59 367.64 504.6 367.63 504.61 367.61 504.62 367.6 504.63 367.58 504.64 367.57 504.65 367.56 504.66 367.55 504.67 367.53 504.69 367.51 504.7 367.49 504.71 367.48 504.72 367.47 504.76 367.43 504.77 367.41 504.78 367.4 504.79 367.39 504.8 367.38 504.82 367.35 504.83 367.33 504.85 367.31 504.86 367.3 504.87 367.29 504.88 367.28 504.89 367.26 504.91 367.25 504.93 367.23 504.94 367.21 504.95 367.2 504.96 367.19 504.98 367.18 504.99 367.17 505 367.15 505.02 367.14 505.03 367.13 505.06 367.11 505.07 367.1 505.09 367.08 505.1 367.07 505.11 367.06 505.13 367.04 505.16 367.01 505.2 366.98 505.21 366.96 505.22 366.95 505.23 366.94 505.26 366.91 505.27 366.9 505.29 366.88 505.31 366.87 505.32 366.85 505.37 366.81 505.45 366.71 505.68 366.44 505.68 366.43 505.72 366.38 505.79 366.28 505.86 366.17 505.86 366.16 505.87 366.15 505.88 366.13 505.89 366.12 505.9 366.1 505.91 366.09 505.92 366.07 505.93 366.05 505.94 366.04 505.95 366.02 505.96 366.01 505.97 365.99 506.01 365.94 506.02 365.92 506.03 365.91 506.04 365.89 506.05 365.88 506.06 365.86 506.07 365.85 506.08 365.84 506.09 365.82 506.1 365.8 506.1 365.79 506.11 365.77 506.12 365.76 506.17 365.66 506.27 365.46 506.27 365.44 506.28 365.43 506.29 365.41 506.3 365.39 506.31 365.36 506.33 365.33 506.33 365.31 506.34 365.3 506.35 365.28 506.36 365.27 506.37 365.25 506.37 365.24 506.38 365.22 506.39 365.21 506.4 365.19 506.41 365.18 506.42 365.16 506.42 365.15 506.47 365.08 506.49 365.04 506.54 364.97 506.55 364.95 506.57 364.93 506.58 364.92 506.59 364.9 506.6 364.89 506.61 364.87 506.62 364.85 506.63 364.84 506.64 364.82 506.65 364.81 506.71 364.75 506.72 364.75 506.78 364.69 506.86 364.62 506.86 364.61 506.95 364.52 506.95 364.51 507.05 364.38 507.06 364.37 507.1 364.31 507.11 364.3 507.12 364.29 507.12 364.28 507.18 364.2 507.18 364.19 507.22 364.13 507.23 364.13 507.3 364 507.3 363.99 507.31 363.98 507.32 363.97 507.32 363.96 507.33 363.95 507.34 363.92 507.35 363.91 507.36 363.89 507.37 363.88 507.38 363.86 507.39 363.85 507.39 363.84 507.41 363.83 507.42 363.82 507.43 363.82 507.44 363.81 507.46 363.8 507.47 363.8 507.49 363.79 507.5 363.78 507.52 363.76 507.54 363.75 507.55 363.74 507.55 363.73 507.56 363.72 507.57 363.7 507.58 363.68 507.59 363.67 507.6 363.65 507.61 363.64 507.62 363.62 507.63 363.6 507.63 363.6 507.64 363.58 507.65 363.57 507.67 363.55 507.68 363.54 507.69 363.53 507.71 363.51 507.72 363.49 507.73 363.48 507.74 363.46 507.74 363.44 507.75 363.44 507.76 363.42 507.76 363.41 507.78 363.38 507.87 363.22 507.95 363.19 508.34 363.05 508.36 363.01 508.43 362.89 508.65 362.47 508.67 362.37 508.88 362.02 509.02 361.82 509.15 361.71 509.15 361.7 509.22 361.49 509.26 361.34 509.47 361.19 509.48 361.18 509.51 361.17 509.66 361.06 509.68 361.05 509.7 361.04 510.12 360.5 510.25 360.34 510.26 360.33 510.32 360.26 510.48 360.1 510.49 360.08 510.5 360.07 510.52 360.06 510.53 360.05 510.54 360.04 510.55 360.03 510.57 360.01 510.58 360 510.59 359.99 510.61 359.98 510.62 359.97 510.72 359.95 510.93 359.9 510.97 359.9 510.99 359.89 511 359.89 511.02 359.89 511.04 359.88 511.05 359.88 511.07 359.87 511.09 359.87 511.1 359.86 511.11 359.86 511.16 359.85 511.2 359.83 511.22 359.83 511.24 359.82 511.25 359.81 511.27 359.81 511.29 359.8 511.3 359.79 511.32 359.79 511.33 359.78 511.35 359.77 511.36 359.77 511.38 359.76 511.39 359.75 511.41 359.74 511.42 359.73 511.44 359.72 511.48 359.7 511.53 359.67 511.54 359.66 511.56 359.65 511.6 359.63 511.62 359.62 511.63 359.61 511.65 359.6 511.66 359.59 511.68 359.59 511.7 359.58 511.71 359.57 511.73 359.56 511.74 359.55 511.76 359.55 511.77 359.54 511.79 359.53 511.8 359.53 511.81 359.52 511.87 359.47 Z"/>
</g></svg>