<svg xmlns="http://www.w3.org/2000/svg" version="1.2" baseProfile="tiny" stroke-linecap="round" stroke-linejoin="round" viewBox="369.83 371.45 21.55 19.88"><g xmlns="http://www.w3.org/2000/svg" id="Barbarin">
<path d="M 377.77 377.8 377.78 377.77 377.8 377.73 377.8 377.72 377.81 377.7 377.85 377.69 377.9 377.68 377.91 377.67 377.95 377.66 377.96 377.66 378.02 377.64 378.12 377.62 378.18 377.6 378.24 377.59 378.35 377.56 378.46 377.53 378.5 377.53 378.59 377.51 378.69 377.49 378.82 377.46 378.96 377.42 379.09 377.4 379.13 377.39 379.19 377.38 379.28 377.38 379.39 377.38 379.46 377.39 379.61 377.42 379.69 377.45 379.78 377.47 379.88 377.48 379.97 377.48 380.03 377.47 380.08 377.46 380.13 377.44 380.18 377.43 380.23 377.42 380.29 377.41 380.36 377.4 380.44 377.41 380.51 377.41 380.57 377.41 380.62 377.41 380.67 377.41 380.73 377.41 380.8 377.41 380.86 377.41 380.91 377.4 380.95 377.4 381 377.39 381.07 377.36 381.15 377.33 381.22 377.3 381.29 377.27 381.37 377.24 381.44 377.23 381.48 377.23 381.5 377.22 381.55 377.14 381.57 377.13 381.62 377.05 381.64 377.03 381.64 376.99 381.65 376.98 381.66 376.93 381.67 376.87 381.68 376.72 381.71 376.54 381.75 376.22 381.75 376.18 381.76 376.13 381.76 376.1 381.76 376.08 381.88 376.03 382.05 375.95 382.19 375.88 382.36 375.79 382.49 375.73 382.57 375.7 382.6 375.69 382.66 375.66 383.06 375.47 383.18 375.42 383.36 375.33 383.41 375.3 383.44 375.29 383.53 375.23 383.63 375.17 383.71 375.12 383.77 375.09 383.82 375.05 383.86 375.02 383.9 374.99 383.92 374.97 383.93 374.96 383.94 374.94 383.95 374.93 384.03 374.8 384.12 374.66 384.3 374.53 384.39 374.47 384.41 374.45 384.43 374.44 384.46 374.43 384.69 374.33 384.8 374.28 384.97 374.21 385.05 374.18 385.17 373.96 385.21 373.89 385.33 373.83 385.36 373.81 385.44 373.77 385.49 373.76 385.58 373.69 385.62 373.67 385.66 373.62 385.73 373.58 385.8 373.53 385.82 373.51 385.86 373.49 385.88 373.46 385.9 373.43 385.95 373.35 385.96 373.34 385.99 373.28 386.01 373.26 386.03 373.22 386.03 373.21 386.06 373.12 386.12 372.95 386.13 372.9 386.13 372.89 386.25 372.58 386.29 372.47 386.3 372.46 386.31 372.44 386.43 372.09 386.45 372.05 386.47 372.01 386.6 371.83 386.61 371.8 386.62 371.79 386.76 371.59 386.78 371.57 386.83 371.5 387.37 371.47 387.47 371.47 387.83 371.48 387.85 371.48 387.86 371.48 387.87 371.48 387.91 371.49 388.16 371.49 388.17 371.49 388.19 371.5 388.22 371.5 388.49 371.53 388.53 371.53 388.6 371.54 388.62 371.54 388.63 371.55 388.65 371.55 388.68 371.55 388.7 371.55 388.74 371.56 389.02 371.59 389.05 371.59 389.32 371.6 389.47 371.6 389.53 371.6 389.64 371.61 389.76 371.61 389.86 371.61 389.9 371.61 390.02 371.61 390.14 371.67 390.19 371.69 390.22 371.71 390.27 371.72 390.34 371.74 390.43 371.72 390.53 371.68 390.58 371.67 390.6 371.65 390.64 371.63 390.67 371.61 390.71 371.57 390.74 371.53 390.76 371.51 390.94 371.5 391.11 371.48 391.21 371.47 391.27 371.46 391.31 371.45 391.38 371.45 391.28 371.51 391.25 371.54 391.23 371.56 391.2 371.59 391.14 371.63 391.07 371.69 391.01 371.74 390.97 371.79 390.87 371.86 390.78 371.93 390.65 372.04 390.57 372.1 390.33 372.21 390.27 372.25 390.19 372.3 390.14 372.34 390.08 372.39 390.03 372.46 389.99 372.53 389.96 372.58 389.92 372.61 389.87 372.65 389.85 372.69 389.84 372.71 389.81 372.77 389.77 372.9 389.76 372.96 389.75 373 389.72 373.17 389.7 373.31 389.69 373.42 389.68 373.55 389.68 373.59 389.69 373.65 389.7 373.71 389.7 373.82 389.69 373.83 389.67 373.86 389.63 373.92 389.57 374 389.43 374.21 389.41 374.23 389.33 374.36 389.29 374.41 389.27 374.5 389.27 374.51 389.26 374.54 389.24 374.58 389.23 374.6 389.21 374.64 389.19 374.69 389.17 374.71 389.16 374.72 389.16 374.73 389.13 374.76 389.11 374.78 388.96 375 388.9 375.08 388.8 375.22 388.78 375.25 388.75 375.31 388.68 375.45 388.67 375.46 388.66 375.49 388.63 375.54 388.56 375.67 388.54 375.71 388.53 375.71 388.41 375.77 388.37 375.78 388.27 375.83 388.13 375.89 388.09 375.91 388.05 375.93 388.02 375.94 387.88 376 387.82 376.03 387.72 376.07 387.67 376.09 387.64 376.11 387.62 376.12 387.58 376.14 387.57 376.14 387.53 376.16 387.52 376.17 387.51 376.17 387.5 376.18 387.47 376.19 387.42 376.22 387.37 376.24 387.35 376.24 387.34 376.24 387.33 376.24 387.27 376.26 387.26 376.26 387.25 376.27 387.23 376.27 387.22 376.28 386.98 376.37 386.87 376.42 386.81 376.44 386.8 376.45 386.77 376.47 386.7 376.52 386.64 376.56 386.3 376.82 386.27 376.84 386.26 376.85 386.14 376.94 385.56 377.42 385.45 377.51 385.42 377.53 385.19 377.7 385.18 377.71 385.12 377.74 385.09 377.76 385.03 377.79 384.96 377.82 384.95 377.82 384.94 377.83 384.9 377.84 384.86 377.86 384.83 377.87 384.81 377.88 384.8 377.89 384.77 377.9 384.76 377.91 384.63 377.99 384.57 378.05 384.55 378.06 384.47 378.12 384.42 378.16 384.37 378.22 384.31 378.3 384.26 378.36 384.2 378.43 384.17 378.48 384.15 378.5 384.14 378.51 384.02 378.56 383.96 378.59 383.94 378.61 383.92 378.64 383.89 378.67 383.85 378.72 383.84 378.73 383.8 378.81 383.71 378.97 383.68 379.01 383.58 379.19 383.57 379.21 383.56 379.21 383.55 379.22 383.48 379.26 383.44 379.28 383.4 379.3 383.29 379.37 383.25 379.41 383.23 379.43 383.12 379.53 383.09 379.57 383.06 379.59 382.94 379.71 382.81 379.82 382.63 379.99 382.38 380.12 382.3 380.16 382.13 380.27 382.09 380.29 382.06 380.31 382.03 380.35 381.94 380.43 381.89 380.46 381.84 380.51 381.78 380.58 381.66 380.74 381.61 380.8 381.6 380.8 380.92 381.41 380.91 381.42 380.91 381.44 380.9 381.5 380.9 381.54 380.89 381.6 380.86 381.71 380.85 381.75 380.81 381.83 380.76 381.89 380.72 381.95 380.68 382.02 380.67 382.06 380.59 382.18 380.53 382.29 380.49 382.36 380.39 382.54 380.34 382.61 380.33 382.63 380.3 382.67 380.28 382.7 380.26 382.73 380.23 382.77 380.19 382.83 379.95 383.16 379.85 383.32 379.8 383.4 379.73 383.5 379.62 383.63 379.59 383.67 379.55 383.72 379.52 383.76 379.51 383.77 379.48 383.83 379.39 383.99 379.35 384.08 379.3 384.2 379.27 384.24 379.26 384.27 379.25 384.29 379.24 384.31 379.22 384.34 379.17 384.4 379.11 384.46 379.01 384.56 378.98 384.61 378.94 384.66 378.9 384.74 378.85 384.84 378.84 384.88 378.78 385.02 378.76 385.1 378.76 385.14 378.76 385.14 378.75 385.19 378.74 385.22 378.74 385.27 378.74 385.33 378.74 385.35 378.74 385.37 378.72 385.46 378.71 385.51 378.69 385.55 378.69 385.56 378.68 385.58 378.67 385.6 378.64 385.68 378.61 385.72 378.56 385.78 378.49 385.88 378.47 385.9 378.45 385.94 378.4 385.99 378.33 386.08 378.31 386.11 378.24 386.19 378.19 386.27 378.15 386.34 378.11 386.4 378.07 386.45 378 386.53 378.01 386.53 377.97 386.57 377.95 386.6 377.94 386.61 377.91 386.67 377.9 386.71 377.88 386.78 377.87 386.81 377.84 386.86 377.82 386.91 377.78 386.98 377.77 387.01 377.75 387.1 377.74 387.14 377.7 387.23 377.68 387.26 377.66 387.31 377.65 387.32 377.64 387.34 377.59 387.4 377.58 387.42 377.56 387.45 377.54 387.47 377.53 387.49 377.52 387.53 377.51 387.55 377.47 387.6 377.45 387.65 377.39 387.78 377.34 387.89 377.33 387.91 377.3 387.94 377.26 387.96 377.24 387.98 377.23 388 377.19 388.05 377.18 388.07 377.16 388.1 377.09 388.23 377.08 388.25 377.07 388.29 377.06 388.32 377.06 388.32 377.06 388.35 377.05 388.38 377.05 388.47 377.02 388.61 377 388.66 377 388.7 376.96 388.82 376.95 388.89 376.94 388.94 376.93 388.95 376.9 389.03 376.87 389.14 376.83 389.23 376.81 389.27 376.79 389.33 376.77 389.37 376.75 389.41 376.74 389.43 376.7 389.52 376.68 389.55 376.67 389.6 376.67 389.6 376.66 389.68 376.66 389.71 376.64 389.75 376.63 389.78 376.6 389.84 376.56 389.93 376.54 389.97 376.55 389.98 376.53 390.02 376.47 390.11 376.4 390.23 376.36 390.3 376.31 390.39 376.29 390.42 376.28 390.43 376.27 390.46 376.24 390.48 376.22 390.5 376.21 390.51 376.16 390.56 376.13 390.61 376.11 390.65 376.1 390.68 376.09 390.7 376.07 390.76 376.07 390.77 376.05 390.82 376.03 390.87 376.01 390.9 375.99 390.94 375.97 390.98 375.93 391.05 375.93 391.06 375.92 391.07 375.92 391.08 375.91 391.1 375.89 391.19 375.88 391.23 375.88 391.24 375.87 391.25 375.85 391.31 375.81 391.3 375.72 391.28 375.6 391.25 375.57 391.25 375.55 391.24 375.41 391.2 375.34 391.19 375.25 391.17 375.21 391.16 375.19 391.15 375.03 391.07 374.87 390.97 374.8 390.93 374.77 390.92 374.75 390.83 374.63 390.22 374.57 389.88 374.57 389.86 374.52 389.81 374.35 389.61 374.34 389.61 374.31 389.64 374.26 389.69 374.24 389.71 374.22 389.73 374.2 389.76 374.11 389.87 374.09 389.89 374.08 389.89 374.07 389.9 373.9 390.04 373.73 390.19 373.72 390.2 373.71 390.21 373.69 390.22 373.68 390.22 373.62 390.26 373.53 390.32 373.45 390.37 373.27 390.49 373.24 390.51 373.03 390.65 372.81 390.63 372.67 390.61 372.5 390.59 372.34 390.57 372.32 390.57 372.17 390.55 372.09 390.54 372.06 390.45 372.05 390.41 372.04 390.4 372.01 390.29 372 390.27 372 390.26 371.91 390.11 371.86 390.03 371.85 390.01 371.79 389.97 371.76 389.95 371.75 389.93 371.67 389.84 371.63 389.81 371.59 389.75 371.54 389.68 371.49 389.62 371.43 389.55 371.38 389.51 371.33 389.45 371.31 389.41 371.3 389.39 371.3 389.38 371.27 389.33 371.25 389.29 371.2 389.21 371.19 389.19 371.17 389.16 371.1 389.08 371.06 389.05 370.99 389.02 370.98 389.01 370.96 389 370.94 388.98 370.92 388.96 370.9 388.94 370.82 388.86 370.78 388.82 370.76 388.8 370.72 388.77 370.67 388.72 370.63 388.69 370.6 388.67 370.57 388.65 370.54 388.62 370.52 388.61 370.44 388.57 370.3 388.48 370.05 388.32 369.96 388.27 369.94 388.26 369.93 388.25 369.93 388.19 369.94 388.14 369.94 388 369.95 387.88 369.95 387.8 369.96 387.69 369.95 387.63 369.95 387.56 369.94 387.52 369.93 387.39 369.92 387.3 369.91 387.23 369.91 387.13 369.9 387.11 369.9 387.11 369.9 387.1 369.9 387.09 369.9 387.08 369.9 387.07 369.9 387.06 369.9 386.98 369.88 386.7 369.88 386.64 369.88 386.53 369.88 386.36 369.88 386.3 369.87 385.92 369.87 385.91 369.87 385.89 369.87 385.88 369.86 385.74 369.86 385.72 369.86 385.53 369.85 385.23 369.84 384.9 369.93 384.9 369.95 384.9 370.07 384.91 370.13 384.91 370.41 384.91 370.42 384.91 371.16 384.93 371.21 384.93 371.23 384.92 371.25 384.9 371.29 384.88 371.56 384.74 371.66 384.69 371.73 384.65 371.9 384.56 372.1 384.54 372.18 384.53 372.42 384.5 372.83 384.45 372.91 384.38 372.98 384.32 373.43 383.94 373.54 383.8 373.55 383.78 373.68 383.62 373.73 383.55 373.86 383.39 373.95 383.27 373.99 383.23 374.07 383.12 374.08 383.09 374.12 382.97 374.17 382.87 374.23 382.74 374.29 382.63 374.36 382.54 374.45 382.46 374.49 382.43 374.52 382.42 374.54 382.41 374.62 382.32 374.71 382 374.78 381.89 374.76 381.94 374.75 382.01 374.74 382.09 374.73 382.16 374.72 382.22 374.71 382.3 374.7 382.35 374.56 382.75 374.49 382.85 374.45 382.91 374.42 382.97 374.39 383.03 374.38 383.06 374.37 383.12 374.36 383.17 374.34 383.22 374.33 383.31 374.33 383.32 374.31 383.39 374.28 383.48 374.23 383.65 374.2 383.67 374.16 383.71 374.13 383.74 374.12 383.76 374.08 383.81 374.02 383.85 373.95 383.9 373.87 383.97 373.83 384 373.76 384.05 373.72 384.09 373.69 384.12 373.64 384.19 373.59 384.27 373.54 384.34 373.52 384.4 373.51 384.43 373.51 384.44 373.47 384.53 373.44 384.62 373.43 384.64 373.41 384.73 373.4 384.77 373.41 384.84 373.42 384.87 373.42 384.9 373.43 384.95 373.42 385 373.4 385.06 373.39 385.1 373.38 385.11 373.38 385.12 373.38 385.17 373.37 385.23 373.37 385.31 373.37 385.35 373.37 385.42 373.38 385.49 373.38 385.53 373.37 385.58 373.36 385.62 373.35 385.63 373.34 385.67 373.35 385.7 373.36 385.74 373.44 385.75 373.6 385.75 373.64 385.76 373.72 385.78 373.83 385.82 373.95 385.86 374 385.89 374.03 385.9 374.14 385.94 374.22 385.97 374.25 385.98 374.3 385.98 374.32 385.98 374.35 385.97 374.48 385.97 374.55 385.97 374.57 385.97 374.63 385.98 374.66 385.97 374.68 385.97 374.76 385.96 374.78 385.95 374.81 385.92 374.84 385.9 374.89 385.87 374.92 385.85 374.98 385.82 375.05 385.78 375.15 385.72 375.32 385.64 375.34 385.62 375.38 385.6 375.51 385.54 375.62 385.49 375.62 385.48 375.67 385.46 375.71 385.44 375.72 385.43 376.01 385.13 376.02 385.12 376.08 385.13 376.14 385.14 376.23 385.16 376.26 385.16 376.28 385.16 376.3 385.14 376.33 385.12 376.36 385.09 376.4 385.03 376.42 385 376.46 384.93 376.49 384.86 376.5 384.82 376.5 384.8 376.46 384.75 376.44 384.74 376.43 384.73 376.38 384.67 376.38 384.65 376.4 384.56 376.41 384.5 376.42 384.43 376.43 384.4 376.45 384.34 376.47 384.24 376.52 384.11 376.55 384.01 376.65 383.71 376.59 383.47 376.57 383.42 376.56 383.4 376.55 383.38 376.55 383.35 376.55 383.32 376.54 383.28 376.54 383.25 376.54 383.24 376.53 383.2 376.52 383.16 376.52 383.15 376.51 383.09 376.51 383.08 376.5 383.05 376.5 383.03 376.48 382.98 376.48 382.98 376.46 382.87 376.46 382.86 376.45 382.84 376.45 382.82 376.44 382.81 376.44 382.79 376.59 382.77 376.64 382.76 376.68 382.76 376.72 382.74 376.77 382.71 376.79 382.7 376.83 382.67 376.84 382.66 376.85 382.64 376.86 382.63 376.88 382.61 376.9 382.58 376.93 382.55 376.95 382.53 376.98 382.49 377 382.45 377.03 382.38 377.04 382.32 377.05 382.27 377.07 382.19 377.08 382.13 377.09 382.08 377.08 382.08 377.05 382.09 377.03 382.1 377.02 382.12 376.99 382.14 376.97 382.14 376.93 382.16 376.84 382.2 376.83 382.21 376.81 382.22 376.78 382.24 376.74 382.28 376.68 382.31 376.62 382.34 376.57 382.36 376.52 382.38 376.43 382.35 376.27 382.3 376.05 382.24 375.85 381.95 375.83 381.93 375.81 381.91 375.62 381.84 375.6 381.83 375.55 381.81 375.47 381.78 375.32 381.7 375.3 381.69 375.25 381.67 375.12 381.7 375.1 381.7 375.06 381.7 375.03 381.71 375 381.72 374.94 381.73 374.92 381.74 374.91 381.74 374.84 381.76 374.87 381.73 374.89 381.7 374.94 381.64 375.03 381.53 375.11 381.45 375.17 381.37 375.22 381.31 375.25 381.27 375.3 381.21 375.34 381.15 375.36 381.11 375.4 381.04 375.45 380.95 375.51 380.79 375.54 380.73 375.56 380.7 375.58 380.68 375.6 380.66 375.62 380.64 375.64 380.62 375.76 380.52 375.8 380.48 375.85 380.45 375.93 380.39 376.04 380.31 376.14 380.23 376.16 380.21 376.19 380.17 376.2 380.16 376.24 380.11 376.29 380.02 376.33 379.96 376.35 379.91 376.39 379.87 376.44 379.85 376.5 379.81 376.57 379.77 376.75 379.67 376.78 379.65 376.82 379.63 376.85 379.62 376.88 379.61 376.97 379.58 377.02 379.56 377.09 379.53 377.15 379.5 377.21 379.46 377.23 379.46 377.25 379.44 377.26 379.44 377.29 379.42 377.32 379.41 377.35 379.4 377.37 379.4 377.41 379.36 377.47 379.29 377.51 379.23 377.59 379.11 377.66 379 377.73 378.88 377.79 378.78 377.8 378.77 377.82 378.71 377.84 378.65 377.85 378.6 377.86 378.55 377.86 378.54 377.86 378.51 377.85 378.47 377.85 378.44 377.83 378.38 377.82 378.29 377.81 378.24 377.8 378.2 377.79 378.15 377.79 378.12 377.78 378.1 377.78 378.08 377.78 378.07 377.79 377.92 377.77 377.8 Z"/>
</g></svg>