<svg xmlns="http://www.w3.org/2000/svg" version="1.2" baseProfile="tiny" stroke-linecap="round" stroke-linejoin="round" viewBox="619.02 15.32 31.57 29.2"><g xmlns="http://www.w3.org/2000/svg" id="Bardoze">
<path d="M 623.83 16.16 624.26 15.94 624.6 15.77 624.81 15.73 624.95 15.7 625 15.69 625.1 15.65 625.26 15.59 625.42 15.52 625.4 15.5 625.39 15.48 625.54 15.4 625.63 15.34 625.65 15.37 626.29 16.28 626.44 16.51 626.52 16.58 626.53 16.57 626.61 16.61 626.69 16.66 626.7 16.67 626.71 16.68 626.71 16.7 626.73 16.71 626.76 16.73 626.78 16.71 626.82 16.65 626.85 16.61 626.88 16.59 626.91 16.57 626.94 16.56 626.96 16.56 626.97 16.56 627.01 16.58 627.07 16.6 627.1 16.61 627.12 16.64 627.27 16.9 627.31 16.98 627.46 17.27 627.63 17.59 627.77 17.53 627.81 17.5 627.87 17.48 627.93 17.46 628.01 17.43 628.05 17.41 628.13 17.39 628.16 17.37 628.19 17.36 628.21 17.34 628.23 17.31 628.26 17.29 628.28 17.27 628.3 17.25 628.33 17.24 628.36 17.23 628.39 17.22 628.42 17.2 628.48 17.31 628.52 17.38 628.52 17.41 628.47 17.46 628.54 17.44 628.56 17.47 628.61 17.6 628.82 17.6 628.84 17.6 628.91 17.63 629.01 17.7 629.06 17.72 629.09 17.75 629.1 17.77 629.11 17.79 629.13 17.84 629.15 17.89 629.17 17.95 629.2 18.01 629.24 18.13 629.27 18.2 629.28 18.24 629.3 18.27 629.32 18.3 629.39 18.37 629.44 18.43 629.45 18.44 629.57 18.58 629.59 18.6 629.65 18.67 629.7 18.73 629.78 18.82 629.91 18.98 630.02 19.11 630.12 19.23 630.17 19.27 630.19 19.3 630.2 19.33 630.21 19.34 630.23 19.44 630.24 19.48 630.25 19.52 630.2 19.62 630.17 19.64 630.14 19.66 630.11 19.73 630.09 19.78 630.1 19.82 630.09 19.84 630.09 19.85 630.06 19.91 630 19.97 629.96 19.99 629.96 20.01 629.93 20.09 629.91 20.18 629.9 20.3 629.89 20.36 629.9 20.4 629.93 20.44 629.99 20.49 630 20.58 629.99 20.63 629.98 20.67 629.93 20.68 629.89 20.69 629.84 20.72 629.81 20.78 629.8 20.87 629.83 20.9 629.92 21.01 630.08 21.24 630.26 21.54 630.32 21.62 630.34 21.65 630.4 21.75 630.45 21.78 630.52 21.79 630.6 21.78 630.68 21.77 630.79 21.75 630.85 21.86 630.89 21.94 630.91 21.98 631 22.08 631.02 22.1 631.07 22.15 631.11 22.19 631.16 22.24 631.19 22.29 631.25 22.37 631.33 22.44 631.35 22.46 631.37 22.46 631.39 22.47 631.43 22.49 631.49 22.54 631.53 22.57 631.55 22.6 631.61 22.67 631.64 22.7 631.67 22.74 631.72 22.81 631.74 22.84 631.75 22.88 631.75 22.95 631.75 22.98 631.76 23.02 631.76 23.1 631.77 23.13 631.76 23.21 631.76 23.24 631.76 23.27 631.78 23.33 631.8 23.39 631.82 23.41 631.84 23.43 631.89 23.48 631.89 23.5 631.91 23.51 631.95 23.57 632 23.62 632.01 23.64 632.02 23.68 632.03 23.75 632.04 23.79 632.06 23.8 632.09 23.85 632.14 23.89 632.15 23.9 632.28 23.99 632.3 24.01 632.31 24.02 632.31 24.04 632.32 24.07 632.33 24.09 632.35 24.1 632.36 24.11 632.39 24.11 632.4 24.12 632.46 24.17 632.51 24.2 632.54 24.22 632.55 24.23 632.57 24.24 632.65 24.27 632.68 24.28 632.71 24.3 632.72 24.31 632.75 24.33 632.82 24.35 632.9 24.37 632.93 24.39 632.96 24.4 632.97 24.43 632.98 24.44 633 24.46 633.06 24.53 633.12 24.6 633.14 24.62 633.16 24.62 633.17 24.63 633.22 24.64 633.26 24.64 633.3 24.64 633.35 24.62 633.4 24.59 633.45 24.54 633.49 24.5 633.54 24.48 633.6 24.46 633.64 24.45 633.68 24.44 633.69 24.46 633.68 24.5 633.67 24.52 633.69 24.53 633.7 24.52 633.71 24.51 633.73 24.5 633.76 24.51 633.81 24.5 633.84 24.45 633.87 24.4 633.9 24.39 633.99 24.4 634.03 24.4 634.05 24.38 634.07 24.34 634.09 24.28 634.11 24.28 634.13 24.31 634.18 24.35 634.18 24.36 634.2 24.37 634.24 24.39 634.29 24.4 634.35 24.37 634.4 24.35 634.42 24.34 634.46 24.35 634.48 24.37 634.51 24.38 634.57 24.38 634.63 24.35 634.63 24.34 634.67 24.32 634.69 24.31 634.71 24.3 634.71 24.28 634.73 24.28 634.73 24.25 634.71 24.23 634.73 24.21 634.75 24.21 634.78 24.2 634.8 24.19 634.84 24.13 634.88 24.06 634.9 24.02 634.91 23.97 634.91 23.88 634.91 23.86 634.93 23.85 634.99 23.86 635.07 23.88 635.12 23.86 635.15 23.85 635.22 23.81 635.23 23.81 635.25 23.81 635.33 23.81 635.37 23.81 635.41 23.82 635.46 23.82 635.49 23.82 635.53 23.83 635.6 23.85 635.72 23.88 635.77 23.89 635.8 23.9 635.88 23.93 635.91 23.94 635.96 23.96 635.98 23.97 636.02 23.98 636.11 24 636.17 24 636.31 24 636.39 24 636.43 24 636.48 23.99 636.52 23.99 636.6 24.01 636.71 24.03 636.82 24.06 636.86 24.06 636.87 24.07 636.91 24.07 636.98 24.07 637.06 24.07 637.13 24.07 637.22 24.06 637.32 24.06 637.37 24.07 637.39 24.09 637.43 24.11 637.48 24.12 637.51 24.13 637.55 24.12 637.58 24.11 637.66 24.09 637.77 24.05 637.82 24.1 637.92 24.17 638.04 24.24 638.13 24.29 638.16 24.29 638.23 24.3 638.34 24.3 638.45 24.31 638.54 24.32 638.63 24.33 638.68 24.33 638.8 24.34 638.83 24.34 638.89 24.35 638.92 24.34 638.93 24.37 638.98 24.35 638.98 24.35 639 24.35 639.17 24.42 639.19 24.43 639.42 24.53 639.42 24.57 639.46 24.62 639.51 24.69 639.56 24.75 639.61 24.82 639.65 24.89 639.67 24.93 639.71 24.97 639.76 25.02 639.83 25.02 639.88 25.04 639.93 25.05 639.96 25.06 640.02 25.09 640.1 25.12 640.19 25.16 640.31 25.2 640.41 25.24 640.46 25.26 640.51 25.28 640.56 25.29 640.58 25.29 640.62 25.29 640.68 25.29 640.75 25.27 640.77 25.26 640.84 25.23 640.93 25.17 640.95 25.16 641.01 25.13 641.09 25.09 641.14 25.04 641.15 25.02 641.15 24.97 641.16 24.93 641.19 24.87 641.21 24.85 641.23 24.86 641.25 24.86 641.26 24.84 641.29 24.8 641.31 24.79 641.32 24.77 641.3 24.73 641.31 24.71 641.32 24.71 641.42 24.7 641.46 24.69 641.5 24.63 641.59 24.56 641.65 24.54 641.74 24.46 641.81 24.41 641.93 24.34 641.98 24.27 642.01 24.2 642.03 24.11 642.05 24.05 642.06 24.03 642.07 23.95 642.08 23.93 642.1 23.91 642.15 23.84 642.19 23.82 642.21 23.81 642.28 23.75 642.34 23.7 642.36 23.68 642.38 23.66 642.39 23.62 642.4 23.54 642.4 23.47 642.41 23.43 642.42 23.39 642.45 23.36 642.49 23.33 642.54 23.32 642.66 23.29 642.75 23.27 642.79 23.26 642.8 23.25 642.82 23.22 642.89 23.08 642.94 22.95 642.98 22.87 642.99 22.84 643.01 22.82 643.04 22.8 643.08 22.79 643.12 22.77 643.18 22.75 643.24 22.73 643.31 22.69 643.36 22.68 643.4 22.67 643.43 22.67 643.46 22.68 643.47 22.68 643.49 22.67 643.51 22.66 643.52 22.64 643.53 22.62 643.56 22.59 643.6 22.57 643.63 22.57 643.67 22.57 643.7 22.57 643.74 22.59 643.78 22.6 643.83 22.61 643.85 22.61 643.87 22.61 643.89 22.6 643.92 22.57 643.94 22.55 643.98 22.54 644 22.54 644.02 22.55 644.04 22.56 644.06 22.56 644.08 22.55 644.11 22.53 644.13 22.51 644.14 22.5 644.16 22.5 644.18 22.5 644.21 22.52 644.27 22.56 644.3 22.57 644.32 22.59 644.34 22.59 644.35 22.6 644.41 22.58 644.46 22.57 644.5 22.57 644.54 22.58 644.58 22.59 644.59 22.55 644.63 22.47 644.66 22.45 644.68 22.44 644.71 22.45 644.87 22.53 644.88 22.55 644.89 22.6 644.95 22.69 645.02 22.73 645.08 22.74 645.15 22.75 645.17 22.75 645.21 22.75 645.25 22.75 645.45 22.67 645.58 22.63 645.67 22.58 645.74 22.56 645.75 22.55 645.76 22.55 645.77 22.56 645.8 22.56 645.81 22.56 645.82 22.55 645.82 22.53 645.8 22.5 645.75 22.46 645.72 22.44 645.7 22.42 645.72 22.39 645.73 22.38 645.76 22.37 645.78 22.35 645.79 22.34 645.81 22.3 645.88 22.15 645.95 22.06 646.01 21.97 646.02 21.95 646.03 21.94 646.05 21.92 646.07 21.85 646.1 21.81 646.18 21.67 646.26 21.55 646.35 21.4 646.38 21.34 646.4 21.33 646.43 21.3 646.55 21.21 646.69 21.1 646.85 20.97 647 20.86 647.03 20.83 647.06 20.8 647.09 20.77 647.14 20.72 647.16 20.69 647.19 20.67 647.3 20.6 647.39 20.54 647.48 20.47 647.54 20.43 647.59 20.41 647.68 20.37 647.69 20.37 647.77 20.35 647.83 20.33 647.9 20.3 648.01 20.25 648.06 20.23 648.19 20.18 648.25 20.17 648.29 20.18 648.35 20.22 648.37 20.25 648.4 20.48 648.64 20.56 648.67 20.57 648.73 20.58 648.67 20.81 648.58 21.15 648.56 21.25 648.55 21.4 648.56 21.52 648.59 21.64 648.63 21.74 648.67 21.82 648.72 21.9 648.77 21.98 648.73 22.01 648.72 22.02 648.7 22.03 648.69 22.04 648.68 22.05 648.65 22.05 648.64 22.05 648.63 22.04 648.61 22.03 648.58 22 648.55 21.98 648.47 21.97 648.41 21.97 648.36 21.96 648.34 21.96 648.27 21.97 648.21 21.99 648.19 22.01 648.16 22.03 648.12 22.06 648.06 22.1 648.05 22.11 647.96 22.16 647.84 22.23 647.71 22.3 647.61 22.35 647.56 22.37 647.51 22.39 647.61 22.53 647.6 22.54 647.58 22.56 647.57 22.58 647.56 22.59 647.51 22.62 647.32 22.7 647.28 22.71 647.24 22.72 647.17 22.73 647.07 22.75 647.04 22.75 646.89 22.78 646.85 22.79 646.82 22.79 646.74 22.84 646.72 22.87 646.71 22.89 646.71 22.9 646.63 22.96 646.55 23.02 646.52 23.06 646.52 23.07 646.5 23.09 646.48 23.13 646.53 23.14 646.53 23.18 646.57 23.2 646.6 23.22 646.58 23.28 646.47 23.65 646.45 23.75 646.38 23.67 646.34 23.63 646.32 23.63 646.31 23.62 646.3 23.62 646.18 23.66 646 23.85 645.98 23.89 645.95 23.97 645.9 24.05 645.85 24.11 645.79 24.16 645.76 24.21 645.69 24.27 645.64 24.3 645.62 24.31 645.61 24.32 645.6 24.34 645.6 24.37 645.6 24.4 645.59 24.42 645.58 24.43 645.56 24.45 645.52 24.47 645.48 24.51 645.44 24.57 645.38 24.67 645.34 24.73 645.34 24.76 645.35 24.83 645.36 24.84 645.43 24.94 645.48 25.03 645.51 25.11 645.52 25.2 645.53 25.23 645.56 25.35 645.59 25.46 645.6 25.5 645.67 25.61 645.71 25.69 645.73 25.77 645.75 25.84 645.75 25.96 645.76 26.1 645.74 26.24 645.72 26.37 645.66 26.5 645.61 26.62 645.55 26.7 645.74 26.82 645.75 26.84 645.77 26.95 645.78 26.97 645.8 27.08 645.83 27.18 645.85 27.23 645.87 27.26 645.79 27.3 645.69 27.34 645.66 27.35 645.65 27.35 646.2 28.3 646.21 28.34 646.25 28.58 646.25 28.6 646.27 28.71 646.43 29.03 646.44 29.08 646.47 29.18 646.48 29.2 646.49 29.24 646.5 29.26 646.51 29.27 646.54 29.3 646.59 29.34 646.6 29.36 646.62 29.39 646.64 29.47 646.65 29.56 646.68 29.64 646.71 29.68 646.72 29.7 646.73 29.74 646.74 29.81 646.76 29.89 646.77 29.94 646.77 29.96 646.78 30.02 646.79 30.11 646.8 30.19 646.8 30.19 646.81 30.28 646.82 30.35 646.83 30.4 646.83 30.49 646.83 30.54 646.82 30.57 646.83 30.6 646.85 30.71 646.86 30.81 646.88 30.85 646.89 30.94 646.91 31.02 646.92 31.11 646.97 31.2 647.01 31.29 647.05 31.35 647.09 31.42 647.15 31.5 647.18 31.56 647.21 31.63 647.23 31.71 647.24 31.76 647.24 31.78 647.25 31.8 647.25 31.85 647.26 31.9 647.27 31.95 647.29 32 647.31 32.03 647.32 32.06 647.34 32.08 647.34 32.1 647.35 32.13 647.35 32.16 647.34 32.19 647.33 32.22 647.32 32.24 647.31 32.25 647.29 32.26 647.29 32.28 647.27 32.3 647.26 32.33 647.25 32.36 647.25 32.39 647.25 32.42 647.26 32.45 647.27 32.48 647.28 32.51 647.29 32.53 647.3 32.53 647.31 32.53 647.33 32.53 647.37 32.53 647.39 32.53 647.42 32.53 647.43 32.53 647.46 32.55 647.49 32.57 647.51 32.57 647.53 32.58 647.54 32.59 647.54 32.63 647.53 32.65 647.54 32.67 647.54 32.7 647.54 32.72 647.55 32.73 647.57 32.72 647.6 32.7 647.63 32.68 647.66 32.67 647.68 32.66 647.7 32.65 647.73 32.64 647.75 32.65 647.77 32.69 647.79 32.72 647.82 32.75 647.82 32.77 647.81 32.79 647.78 32.81 647.76 32.83 647.75 32.85 647.74 32.87 647.75 32.89 647.77 32.91 647.79 32.91 647.81 32.9 647.83 32.88 647.86 32.86 647.89 32.85 647.91 32.84 647.92 32.85 647.94 32.87 647.96 32.89 647.98 32.9 647.99 32.92 647.99 32.94 647.99 32.96 647.98 32.99 647.98 33.02 647.96 33.04 647.95 33.06 647.92 33.08 647.9 33.09 647.88 33.1 647.89 33.13 647.91 33.16 647.93 33.21 647.94 33.25 647.95 33.29 647.97 33.33 647.99 33.36 648.01 33.39 648.03 33.43 648.05 33.45 648.06 33.46 648.07 33.47 648.12 33.47 648.16 33.47 648.22 33.46 648.27 33.46 648.32 33.46 648.36 33.46 648.39 33.46 648.42 33.47 648.46 33.47 648.48 33.49 648.52 33.52 648.54 33.53 648.56 33.54 648.58 33.56 648.6 33.58 648.61 33.6 648.63 33.62 648.65 33.62 648.68 33.62 648.69 33.63 648.71 33.65 648.73 33.69 648.74 33.71 648.75 33.73 648.77 33.75 648.79 33.76 648.82 33.76 648.84 33.76 648.87 33.76 648.89 33.76 648.91 33.78 648.92 33.82 648.91 33.84 648.9 33.86 648.89 33.88 648.89 33.9 648.9 33.92 648.93 33.94 648.97 33.95 649 33.96 649.03 33.97 649.06 33.97 649.08 33.98 649.1 33.99 649.12 34.01 649.13 34.03 649.13 34.05 649.11 34.07 649.08 34.07 649.07 34.09 649.07 34.12 649.08 34.15 649.11 34.17 649.14 34.18 649.15 34.18 649.18 34.18 649.21 34.17 649.24 34.16 649.26 34.14 649.28 34.12 649.29 34.1 649.32 34.09 649.35 34.09 649.37 34.1 649.4 34.12 649.43 34.14 649.44 34.15 649.46 34.17 649.47 34.2 649.47 34.23 649.47 34.26 649.46 34.28 649.47 34.3 649.47 34.33 649.49 34.35 649.52 34.37 649.55 34.39 649.57 34.41 649.59 34.44 649.61 34.46 649.62 34.47 649.63 34.48 649.66 34.48 649.68 34.48 649.7 34.49 649.73 34.5 649.75 34.52 649.77 34.56 649.78 34.61 649.79 34.63 649.8 34.64 649.8 34.67 649.79 34.7 649.78 34.73 649.77 34.75 649.77 34.77 649.78 34.79 649.81 34.8 649.83 34.79 649.87 34.77 649.94 34.73 649.97 34.7 649.99 34.7 650 34.71 650.02 34.76 650.05 34.87 650.06 34.93 650.08 34.98 650.09 35.02 650.08 35.06 650.07 35.11 650.07 35.13 650.09 35.15 650.12 35.17 650.15 35.19 650.18 35.2 650.2 35.19 650.22 35.16 650.23 35.13 650.25 35.12 650.29 35.13 650.32 35.14 650.34 35.15 650.36 35.15 650.38 35.16 650.39 35.17 650.38 35.19 650.37 35.21 650.37 35.23 650.38 35.25 650.4 35.26 650.43 35.26 650.46 35.25 650.48 35.24 650.5 35.23 650.5 35.26 650.51 35.3 650.51 35.32 650.53 35.35 650.55 35.37 650.56 35.4 650.57 35.41 650.55 35.42 650.48 35.44 650.42 35.46 650.33 35.47 650.26 35.5 650.2 35.53 650.11 35.59 650.04 35.68 650 35.74 649.95 35.86 649.9 36.02 649.86 36.18 649.82 36.29 649.8 36.4 649.77 36.59 649.76 36.76 649.77 36.89 649.8 36.95 649.85 37.02 649.88 37.05 649.89 37.09 649.92 37.19 649.97 37.44 650 37.57 650.01 37.62 650.05 37.76 650.08 37.85 650.13 37.99 650.15 38.07 650.16 38.16 650.17 38.22 650.17 38.3 650.16 38.4 650.15 38.47 650.11 38.71 650.09 38.75 650.07 38.78 650.05 38.83 650.01 38.86 649.99 38.88 649.96 38.89 649.92 38.89 649.86 38.89 649.8 38.89 649.72 38.9 649.65 38.91 649.62 38.92 649.59 38.95 649.51 39.04 649.46 39.08 649.38 39.18 649.3 39.25 649.26 39.28 649.23 39.29 649.19 39.29 649.16 39.28 649.12 39.25 649.06 39.18 649.01 39.12 648.96 39.05 648.91 38.99 648.88 38.92 648.84 38.85 648.82 38.81 648.8 38.74 648.77 38.69 648.74 38.64 648.7 38.61 648.64 38.56 648.56 38.5 648.52 38.47 648.5 38.46 648.47 38.45 648.42 38.43 648.31 38.4 648.24 38.38 648.2 38.37 648.15 38.37 648.11 38.38 648.08 38.39 648.04 38.41 647.98 38.43 647.9 38.47 647.79 38.51 647.73 38.53 647.68 38.54 647.6 38.56 647.49 38.62 647.4 38.65 647.35 38.68 647.24 38.74 647.16 38.79 647.08 38.83 646.98 38.88 646.92 38.91 646.88 38.93 646.84 38.98 646.79 39.04 646.75 39.1 646.72 39.14 646.69 39.23 646.65 39.34 646.62 39.43 646.58 39.52 646.55 39.59 646.52 39.64 646.51 39.67 646.48 39.69 646.46 39.7 646.44 39.7 646.41 39.7 646.36 39.67 646.27 39.62 646.19 39.58 646.09 39.53 646.01 39.5 645.97 39.48 645.94 39.48 645.92 39.48 645.9 39.48 645.87 39.5 645.85 39.52 645.8 39.59 645.73 39.71 645.66 39.85 645.63 39.9 645.58 40.02 645.49 40.24 645.45 40.35 645.43 40.41 645.4 40.56 645.38 40.67 645.37 40.74 645.38 40.81 645.39 40.85 645.38 40.89 645.38 40.92 645.36 40.97 645.35 41.04 645.32 41.15 645.31 41.25 645.31 41.32 645.32 41.44 645.33 41.57 645.34 41.6 645.37 41.74 645.41 41.87 645.42 41.9 645.43 41.95 645.47 42.09 645.51 42.23 645.57 42.49 645.61 42.67 645.62 42.78 645.63 42.82 645.63 42.86 645.62 42.91 645.59 42.99 645.52 43.08 645.44 43.13 645.37 43.19 645.34 43.18 645.29 43.18 645.18 43.18 645.14 43.18 645.09 43.18 645.07 43.18 645.01 43.18 644.94 43.17 644.84 43.15 644.78 43.13 644.71 43.09 644.65 43.07 644.59 43.05 644.54 43.02 644.49 42.99 644.44 42.96 644.4 42.94 644.36 42.91 644.31 42.87 644.25 42.83 644.23 42.81 644.15 42.76 644.11 42.73 644.09 42.7 644.08 42.69 644.08 42.69 644.07 42.66 644.06 42.62 644.06 42.58 644.07 42.56 644.07 42.51 644.07 42.46 644.08 42.42 644.08 42.4 644.09 42.37 644.09 42.34 644.08 42.29 644.06 42.23 644.05 42.2 644.03 42.16 644.01 42.15 643.97 42.13 643.95 42.13 643.93 42.13 643.91 42.13 643.87 42.14 643.83 42.17 643.82 42.18 643.78 42.18 643.75 42.18 643.69 42.17 643.67 42.16 643.65 42.14 643.63 42.13 643.61 42.1 643.61 42.08 643.61 42.07 643.61 42.04 643.62 41.99 643.62 41.97 643.67 41.86 643.73 41.75 643.78 41.67 643.81 41.62 643.83 41.58 643.84 41.54 643.84 41.51 643.85 41.49 643.85 41.39 643.87 41.35 643.89 41.29 643.91 41.26 643.91 41.23 643.9 41.17 643.85 41.09 643.82 41.01 643.79 40.94 643.78 40.88 643.79 40.71 643.79 40.64 643.78 40.6 643.78 40.57 643.76 40.55 643.73 40.52 643.71 40.5 643.68 40.49 643.64 40.5 643.61 40.5 643.54 40.53 643.47 40.55 643.36 40.54 643.32 40.54 643.27 40.54 643.17 40.54 643.12 40.55 643.04 40.56 642.98 40.55 642.97 40.55 642.91 40.55 642.87 40.54 642.78 40.51 642.75 40.5 642.72 40.49 642.69 40.49 642.66 40.48 642.64 40.48 642.62 40.48 642.6 40.48 642.57 40.51 642.52 40.53 642.48 40.56 642.47 40.57 642.46 40.58 642.44 40.59 642.43 40.59 642.41 40.63 642.4 40.66 642.4 40.68 642.38 40.72 642.36 40.74 642.34 40.75 642.32 40.76 642.3 40.78 642.28 40.8 642.26 40.82 642.24 40.84 642.23 40.86 642.21 40.88 642.2 40.89 642.17 40.91 642.15 40.91 642.14 40.91 642.09 40.88 642.07 40.86 642.05 40.83 642.04 40.78 642.04 40.7 642.04 40.67 642.04 40.64 642.02 40.63 641.97 40.6 641.94 40.58 641.9 40.55 641.88 40.53 641.83 40.45 641.77 40.37 641.7 40.29 641.63 40.22 641.59 40.2 641.55 40.17 641.53 40.15 641.51 40.14 641.48 40.12 641.45 40.12 641.42 40.12 641.37 40.14 641.3 40.17 641.24 40.19 641.2 40.2 641.17 40.22 641.14 40.23 641.11 40.25 641.09 40.26 641.08 40.27 641.04 40.27 641.03 40.27 640.99 40.27 640.94 40.28 640.9 40.29 640.85 40.3 640.8 40.31 640.74 40.32 640.7 40.32 640.68 40.31 640.67 40.31 640.65 40.29 640.64 40.27 640.63 40.24 640.62 40.22 640.6 40.21 640.59 40.21 640.56 40.21 640.55 40.22 640.53 40.22 640.51 40.23 640.47 40.27 640.42 40.31 640.4 40.34 640.35 40.39 640.33 40.4 640.31 40.43 640.29 40.47 640.27 40.5 640.25 40.53 640.23 40.56 640.22 40.58 640.21 40.6 640.18 40.63 640.16 40.65 640.14 40.67 640.11 40.68 640.09 40.68 640.04 40.66 639.97 40.63 639.91 40.61 639.86 40.58 639.81 40.57 639.78 40.55 639.75 40.54 639.74 40.53 639.72 40.52 639.71 40.52 639.69 40.52 639.68 40.51 639.67 40.51 639.66 40.51 639.63 40.51 639.62 40.52 639.62 40.53 639.61 40.55 639.6 40.56 639.6 40.57 639.6 40.58 639.59 40.6 639.59 40.61 639.59 40.63 639.6 40.65 639.61 40.66 639.62 40.67 639.64 40.69 639.65 40.7 639.66 40.71 639.68 40.72 639.68 40.73 639.69 40.76 639.69 40.77 639.69 40.78 639.67 40.79 639.64 40.8 639.61 40.8 639.59 40.81 639.58 40.81 639.57 40.81 639.54 40.81 639.52 40.82 639.5 40.82 639.47 40.82 639.45 40.82 639.42 40.82 639.4 40.82 639.37 40.83 639.35 40.83 639.33 40.84 639.3 40.85 639.28 40.86 639.26 40.87 639.24 40.88 639.22 40.89 639.2 40.89 639.18 40.9 639.15 40.9 639.14 40.91 639.12 40.91 639.1 40.92 639.08 40.93 639.06 40.94 639.05 40.95 639.04 40.96 639.02 40.98 639 41 638.99 41.02 638.98 41.04 638.97 41.05 638.96 41.07 638.95 41.09 638.94 41.12 638.94 41.15 638.93 41.17 638.93 41.2 638.92 41.22 638.92 41.24 638.91 41.27 638.9 41.29 638.9 41.31 638.89 41.33 638.89 41.35 638.89 41.36 638.88 41.39 638.89 41.41 638.89 41.42 638.89 41.44 638.89 41.46 638.89 41.48 638.89 41.5 638.89 41.52 638.9 41.53 638.91 41.54 638.93 41.55 638.93 41.56 639.03 41.66 639.02 41.68 639.02 41.7 639.01 41.72 639 41.74 638.99 41.77 638.99 41.78 638.98 41.8 638.98 41.83 638.98 41.85 638.98 41.87 638.98 41.89 638.99 41.91 638.99 41.94 638.99 41.96 638.99 41.98 638.99 42.01 639 42.03 639 42.05 639 42.07 638.99 42.1 638.99 42.12 638.99 42.15 638.98 42.17 638.97 42.2 638.96 42.22 638.95 42.25 638.95 42.28 638.95 42.31 638.95 42.33 638.94 42.34 638.93 42.35 638.92 42.37 638.91 42.38 638.9 42.4 638.89 42.41 638.88 42.43 638.87 42.44 638.87 42.46 638.87 42.48 638.87 42.5 638.87 42.52 638.87 42.53 638.86 42.55 638.85 42.57 638.85 42.59 638.84 42.61 638.84 42.63 638.83 42.65 638.82 42.67 638.81 42.69 638.8 42.7 638.79 42.72 638.79 42.73 638.78 42.75 638.78 42.77 638.77 42.79 638.76 42.8 638.75 42.81 638.74 42.81 638.72 42.82 638.71 42.83 638.69 42.85 638.68 42.87 638.67 42.88 638.66 42.9 638.64 42.92 638.63 42.93 638.62 42.95 638.61 42.96 638.6 42.97 638.59 42.99 638.57 43.01 638.56 43.02 638.54 43.04 638.53 43.06 638.5 43.08 638.49 43.09 638.48 43.1 638.46 43.11 638.45 43.11 638.43 43.12 638.43 43.14 638.43 43.16 638.43 43.17 638.41 43.19 638.4 43.19 638.38 43.19 638.37 43.18 638.36 43.18 638.34 43.16 638.33 43.15 638.32 43.14 638.31 43.12 638.29 43.11 638.28 43.09 638.27 43.07 638.26 43.05 638.25 43.03 638.24 43.02 638.24 43 638.23 42.98 638.22 42.96 638.22 42.94 638.2 42.93 638.18 42.93 638.16 42.93 638.15 42.93 638.13 42.93 638.11 42.94 638.09 42.95 638.08 42.96 638.07 42.97 638.08 42.99 638.09 43 638.11 43.02 638.12 43.04 638.13 43.06 638.15 43.09 638.16 43.11 638.17 43.13 638.17 43.15 638.18 43.17 638.18 43.19 638.17 43.21 638.16 43.23 638.15 43.25 638.14 43.26 638.13 43.27 638.12 43.28 638.1 43.28 638.07 43.26 638.06 43.25 638.04 43.23 638.02 43.21 638 43.19 637.98 43.18 637.96 43.16 637.95 43.15 637.93 43.14 637.9 43.13 637.88 43.13 637.86 43.13 637.83 43.12 637.81 43.12 637.79 43.12 637.77 43.12 637.75 43.13 637.73 43.13 637.71 43.14 637.69 43.15 637.68 43.16 637.66 43.16 637.65 43.16 637.64 43.18 637.64 43.19 637.63 43.2 637.62 43.22 637.61 43.24 637.6 43.25 637.59 43.27 637.58 43.29 637.57 43.3 637.56 43.32 637.55 43.34 637.54 43.36 637.53 43.38 637.52 43.4 637.5 43.42 637.49 43.43 637.48 43.45 637.47 43.47 637.46 43.48 637.44 43.5 637.43 43.52 637.42 43.54 637.41 43.56 637.39 43.58 637.38 43.6 637.37 43.62 637.36 43.63 637.35 43.65 637.33 43.67 637.32 43.69 637.31 43.7 637.3 43.72 637.29 43.73 637.27 43.75 637.25 43.76 637.24 43.78 637.23 43.79 637.22 43.81 637.21 43.83 637.19 43.84 637.19 43.85 637.18 43.87 637.16 43.88 637.15 43.89 637.13 43.9 637.12 43.91 637.1 43.92 637.09 43.93 637.07 43.94 637.06 43.95 637.05 43.96 637.03 43.97 637.02 43.97 637 43.98 636.99 43.97 636.98 43.97 636.97 43.95 636.96 43.93 636.96 43.91 636.95 43.88 636.94 43.86 636.93 43.84 636.91 43.84 636.9 43.84 636.89 43.85 636.87 43.86 636.85 43.88 636.83 43.88 636.82 43.89 636.81 43.9 636.79 43.91 636.78 43.92 636.76 43.92 636.73 43.92 636.71 43.92 636.69 43.92 636.67 43.92 636.66 43.92 636.65 43.94 636.64 43.96 636.64 43.98 636.65 44.01 636.66 44.03 636.67 44.05 636.67 44.07 636.67 44.1 636.67 44.12 636.68 44.14 636.69 44.17 636.69 44.19 636.69 44.21 636.68 44.23 636.68 44.25 636.67 44.28 636.66 44.3 636.66 44.32 636.65 44.34 636.64 44.35 636.62 44.37 636.6 44.39 636.59 44.39 636.58 44.4 636.57 44.41 636.56 44.41 636.55 44.42 636.54 44.44 636.52 44.46 636.51 44.47 636.49 44.48 636.47 44.49 636.45 44.49 636.43 44.5 636.39 44.5 636.38 44.5 636.37 44.47 636.36 44.45 636.35 44.43 636.34 44.41 636.32 44.39 636.31 44.38 636.29 44.36 636.27 44.34 636.25 44.33 636.23 44.32 636.21 44.31 636.19 44.3 636.18 44.3 636.15 44.29 636.13 44.29 636.11 44.28 636.1 44.28 636.09 44.27 636.08 44.25 636.05 44.11 636.04 44.08 636.04 44.07 636.02 44.06 636.01 44.05 635.99 44.04 635.97 44.03 635.95 44.02 635.93 44.01 635.92 43.99 635.91 43.97 635.9 43.96 635.9 43.95 635.88 43.94 635.86 43.92 635.85 43.9 635.84 43.88 635.82 43.86 635.81 43.84 635.79 43.82 635.77 43.81 635.75 43.8 635.74 43.78 635.72 43.77 635.71 43.75 635.69 43.73 635.67 43.72 635.64 43.71 635.63 43.71 635.62 43.7 635.6 43.69 635.57 43.69 635.55 43.68 635.52 43.67 635.5 43.67 635.48 43.66 635.46 43.64 635.44 43.63 635.43 43.61 635.4 43.59 635.38 43.58 635.35 43.57 635.33 43.56 635.31 43.55 635.29 43.53 635.27 43.53 635.24 43.52 635.22 43.52 635.2 43.51 635.18 43.5 635.15 43.49 635.13 43.48 635.11 43.47 635.09 43.46 635.07 43.45 635.04 43.44 635.02 43.44 635 43.45 634.98 43.45 634.96 43.44 634.93 43.44 634.92 43.42 634.91 43.4 634.89 43.4 634.86 43.39 634.84 43.39 634.81 43.39 634.78 43.39 634.75 43.39 634.73 43.38 634.71 43.36 634.68 43.36 634.67 43.36 634.65 43.36 634.63 43.35 634.6 43.34 634.58 43.34 634.55 43.34 634.52 43.34 634.5 43.34 634.47 43.34 634.44 43.33 634.42 43.32 634.4 43.31 634.4 43.29 634.38 43.28 634.36 43.27 634.33 43.26 634.31 43.27 634.28 43.28 634.26 43.29 634.24 43.29 634.21 43.29 634.18 43.29 634.16 43.3 634.13 43.3 634.11 43.3 634.09 43.3 634.07 43.31 634.05 43.32 634.03 43.33 634.02 43.34 634 43.35 633.98 43.36 633.93 43.4 633.86 43.43 633.81 43.45 633.75 43.45 633.71 43.44 633.68 43.44 633.66 43.45 633.63 43.46 633.55 43.47 633.45 43.47 633.38 43.46 633.37 43.46 633.34 43.48 633.23 43.53 633.18 43.56 633.11 43.54 633 43.51 632.81 43.55 632.69 43.49 632.56 43.45 632.47 43.43 632.44 43.43 632.39 43.43 632.27 43.4 632.2 43.39 632.07 43.38 631.95 43.36 631.87 43.36 631.79 43.34 631.74 43.34 631.73 43.34 631.7 43.34 631.65 43.36 631.54 43.4 631.48 43.43 631.41 43.47 631.35 43.5 631.18 43.82 631.16 43.85 631.15 43.88 631.17 43.93 631.12 43.93 630.95 43.97 630.75 44.02 630.59 44.07 630.48 44.08 630.39 44.1 630.48 44.37 630.43 44.36 630.35 44.35 630.33 44.34 630.32 44.32 630.28 44.28 630.26 44.25 630.23 44.22 630.2 44.23 630.17 44.23 630.1 44.22 630.02 44.23 629.97 44.23 629.95 44.2 629.94 44.14 629.93 44.11 629.9 44.09 629.87 44.07 629.83 44.04 629.71 44.01 629.62 43.99 629.58 43.98 629.54 43.99 629.46 44.02 629.42 44.02 629.35 44.04 629.3 44.05 629.25 44.05 629.21 44.05 629.17 44.03 629.09 44.01 629.03 43.97 628.98 43.95 628.94 43.95 628.91 43.96 628.88 43.97 628.84 43.99 628.79 44.01 628.75 44.02 628.72 44.02 628.69 44.01 628.66 44 628.63 44 628.58 43.97 628.53 43.95 628.51 43.94 628.5 43.94 628.49 43.95 628.48 43.95 628.47 43.96 628.42 44.06 628.35 44.1 628.29 44.07 628.26 44.06 628.18 44.05 628.16 44.04 628.12 44.03 628.08 44.02 628.06 44.02 628.03 44.01 628 44.01 627.99 44 627.98 43.95 627.96 43.93 627.93 43.84 627.92 43.84 627.9 43.82 627.85 43.8 627.81 43.79 627.8 43.78 627.76 43.78 627.71 43.78 627.68 43.78 627.57 43.77 627.51 43.77 627.48 43.77 627.46 43.77 627.41 43.79 627.37 43.8 627.32 43.82 627.28 43.82 627.24 43.82 627.22 43.82 627.2 43.82 627.18 43.83 627.15 43.84 627.12 43.85 627.11 43.84 627.11 43.83 627.11 43.81 627.11 43.8 627.11 43.78 627.11 43.76 627.11 43.74 627.11 43.72 627.1 43.7 627.09 43.69 627.08 43.68 627.06 43.66 627.05 43.66 627.03 43.66 627.01 43.66 626.99 43.65 626.97 43.65 626.95 43.65 626.92 43.65 626.9 43.64 626.86 43.62 626.85 43.61 626.83 43.6 626.81 43.59 626.8 43.57 626.78 43.56 626.77 43.55 626.77 43.53 626.77 43.51 626.76 43.48 626.76 43.46 626.77 43.43 626.77 43.4 626.77 43.37 626.77 43.35 626.77 43.32 626.77 43.28 626.77 43.26 626.76 43.25 626.75 43.23 626.74 43.22 626.72 43.21 626.7 43.2 626.68 43.19 626.66 43.19 626.64 43.18 626.62 43.17 626.6 43.17 626.59 43.16 626.57 43.17 626.55 43.17 626.53 43.17 626.51 43.17 626.48 43.18 626.45 43.18 626.43 43.18 626.4 43.17 626.38 43.17 626.37 43.17 626.35 43.18 626.33 43.18 626.31 43.19 626.3 43.2 626.29 43.2 626.27 43.21 626.26 43.2 626.24 43.2 626.23 43.18 626.21 43.16 626.19 43.14 626.18 43.12 626.17 43.11 626.16 43.1 626.13 43.08 626.12 43.06 626.09 43.03 626.09 43.02 626.09 43 626.1 42.95 626.11 42.92 626.11 42.91 626.16 42.92 626.18 42.92 626.19 42.92 626.2 42.9 626.21 42.89 626.22 42.87 626.22 42.83 626.21 42.81 626.2 42.75 626.2 42.69 626.18 42.65 626.15 42.59 626.14 42.56 626.14 42.53 626.13 42.49 626.12 42.46 626.1 42.4 626.06 42.34 626.02 42.28 626 42.27 625.97 42.26 625.94 42.24 625.93 42.23 625.92 42.21 625.92 42.19 625.91 42.18 625.89 42.16 625.83 42.14 625.79 42.13 625.77 42.14 625.71 42.16 625.7 42.16 625.67 42.16 625.65 42.16 625.63 42.16 625.61 42.19 625.59 42.21 625.57 42.21 625.56 42.21 625.53 42.17 625.49 42.11 625.48 42.1 625.47 42.09 625.44 42.08 625.42 42.04 625.41 42.02 625.41 42 625.41 41.99 625.41 41.98 625.41 41.97 625.42 41.96 625.42 41.94 625.42 41.93 625.45 41.87 625.47 41.83 625.47 41.82 625.47 41.81 625.47 41.79 625.46 41.79 625.46 41.78 625.45 41.77 625.45 41.75 625.45 41.74 625.44 41.69 625.43 41.68 625.42 41.67 625.41 41.66 625.4 41.65 625.39 41.65 625.37 41.64 625.35 41.64 625.34 41.64 625.32 41.65 625.31 41.65 625.29 41.65 625.28 41.65 625.26 41.66 625.25 41.66 625.23 41.66 625.22 41.66 625.2 41.66 625.18 41.66 625.16 41.65 625.15 41.65 625.13 41.64 625.12 41.63 625.1 41.62 625.09 41.61 625.08 41.59 625.07 41.58 625.07 41.56 625.06 41.54 625.06 41.53 625.05 41.5 625.05 41.48 625.06 41.47 625.06 41.45 625.07 41.43 625.07 41.42 625.08 41.4 625.09 41.39 625.09 41.37 625.1 41.35 625.1 41.33 625.11 41.32 625.12 41.3 625.13 41.28 625.13 41.26 625.12 41.25 625.11 41.24 625.11 41.23 625.09 41.22 625.08 41.22 625.07 41.21 625.06 41.19 625.06 41.18 625.06 41.17 625.06 41.15 625.06 41.13 625.06 41.11 625.06 41.1 625.05 41.08 625.04 41.07 625.02 41.06 625.01 41.05 625 41.05 624.98 41.04 624.97 41.03 624.95 41.03 624.94 41.02 624.91 41.02 624.9 41.02 624.88 41.02 624.87 41.02 624.85 41.02 624.84 41.01 624.83 41.01 624.82 41 624.82 40.99 624.81 40.98 624.81 40.97 624.81 40.95 624.81 40.94 624.81 40.93 624.81 40.91 624.82 40.9 624.82 40.88 624.81 40.87 624.81 40.86 624.8 40.85 624.8 40.83 624.8 40.81 624.79 40.8 624.8 40.78 624.8 40.76 624.81 40.75 624.83 40.74 624.84 40.73 624.85 40.72 624.86 40.7 624.87 40.69 624.88 40.67 624.88 40.65 624.89 40.64 624.89 40.62 624.88 40.61 624.88 40.59 624.88 40.57 624.87 40.56 624.87 40.54 624.86 40.53 624.85 40.51 624.84 40.49 624.83 40.47 624.82 40.46 624.81 40.44 624.79 40.43 624.78 40.41 624.76 40.39 624.75 40.38 624.74 40.36 624.73 40.35 624.72 40.33 624.71 40.32 624.71 40.3 624.71 40.28 624.71 40.27 624.72 40.26 624.73 40.24 624.75 40.23 624.76 40.21 624.77 40.2 624.77 40.18 624.77 40.16 624.77 40.15 624.76 40.13 624.75 40.12 624.74 40.11 624.73 40.1 624.71 40.09 624.7 40.08 624.68 40.07 624.66 40.05 624.64 40.04 624.63 40.03 624.62 40.01 624.62 40 624.61 39.98 624.6 39.96 624.6 39.94 624.59 39.93 624.59 39.91 624.58 39.89 624.57 39.87 624.55 39.86 624.54 39.85 624.53 39.84 624.51 39.84 624.5 39.84 624.48 39.83 624.46 39.82 624.45 39.81 624.43 39.8 624.42 39.79 624.42 39.77 624.41 39.75 624.4 39.73 624.39 39.71 624.39 39.7 624.39 39.68 624.39 39.66 624.39 39.64 624.38 39.62 624.38 39.61 624.37 39.58 624.36 39.56 624.36 39.54 624.36 39.53 624.35 39.52 624.34 39.51 624.33 39.5 624.33 39.47 624.33 39.44 624.33 39.42 624.33 39.4 624.33 39.37 624.33 39.35 624.33 39.32 624.34 39.3 624.34 39.28 624.35 39.22 624.36 39.19 624.37 39.16 624.41 39.14 624.51 39.11 624.46 39.07 624.26 39.05 624.18 39.09 624.12 39.32 624.05 39.26 624.04 39.29 624.01 39.38 623.99 39.36 623.95 39.31 623.93 39.29 623.91 39.26 623.9 39.23 623.88 39.2 623.86 39.18 623.85 39.15 623.83 39.13 623.81 39.12 623.81 39.11 623.8 39.1 623.76 39.06 623.75 39.05 623.74 39.04 623.73 39.03 623.71 39.01 623.71 39.01 623.69 38.99 623.68 38.97 623.67 38.96 623.66 38.94 623.63 38.9 623.55 38.82 623.51 38.77 623.59 38.72 623.58 38.71 623.57 38.7 623.56 38.68 623.55 38.67 623.55 38.65 623.55 38.63 623.54 38.62 623.54 38.6 623.54 38.59 623.54 38.57 623.54 38.56 623.53 38.54 623.53 38.53 623.53 38.51 623.52 38.51 623.51 38.5 623.49 38.49 623.47 38.49 623.45 38.48 623.44 38.48 623.42 38.48 623.41 38.48 623.39 38.48 623.37 38.48 623.36 38.48 623.34 38.48 623.33 38.48 623.31 38.48 623.3 38.47 623.28 38.46 623.27 38.45 623.25 38.44 623.24 38.43 623.23 38.42 623.22 38.41 623.21 38.4 623.2 38.38 623.19 38.37 623.18 38.36 623.16 38.36 623.15 38.35 623.14 38.35 623.12 38.36 623.11 38.36 623.1 38.37 623.09 38.38 623.08 38.39 623.07 38.4 623.06 38.41 623.04 38.41 623.03 38.41 623.01 38.42 623 38.42 622.98 38.42 622.97 38.42 622.95 38.43 622.94 38.44 622.93 38.45 622.92 38.46 622.9 38.47 622.89 38.48 622.88 38.49 622.87 38.5 622.86 38.5 622.84 38.51 622.83 38.52 622.81 38.52 622.8 38.53 622.79 38.53 622.78 38.54 622.77 38.55 622.76 38.57 622.76 38.58 622.75 38.59 622.74 38.6 622.73 38.6 622.72 38.6 622.7 38.59 622.68 38.58 622.67 38.58 622.66 38.57 622.65 38.56 622.64 38.55 622.63 38.55 622.61 38.54 622.6 38.54 622.59 38.54 622.58 38.55 622.57 38.56 622.56 38.57 622.55 38.58 622.55 38.59 622.55 38.6 622.55 38.61 622.56 38.62 622.56 38.63 622.57 38.65 622.58 38.66 622.58 38.67 622.59 38.68 622.6 38.69 622.6 38.7 622.61 38.72 622.61 38.73 622.62 38.74 622.62 38.75 622.62 38.76 622.62 38.78 622.61 38.79 622.61 38.8 622.62 38.82 622.61 38.83 622.61 38.84 622.61 38.85 622.6 38.86 622.59 38.86 622.58 38.87 622.57 38.87 622.56 38.88 622.55 38.88 622.53 38.88 622.52 38.88 622.51 38.89 622.5 38.89 622.48 38.89 622.47 38.9 622.45 38.91 622.44 38.91 622.43 38.92 622.41 38.92 622.4 38.92 622.39 38.93 622.38 38.93 622.36 38.93 622.35 38.93 622.34 38.92 622.33 38.92 622.31 38.91 622.3 38.9 622.29 38.89 622.28 38.88 622.27 38.87 622.26 38.86 622.26 38.85 622.26 38.84 622.26 38.83 622.25 38.82 622.26 38.8 622.26 38.79 622.27 38.78 622.27 38.76 622.28 38.75 622.29 38.74 622.3 38.72 622.31 38.71 622.31 38.7 622.32 38.69 622.32 38.68 622.31 38.66 622.31 38.65 622.3 38.65 622.29 38.64 622.28 38.62 622.27 38.61 622.27 38.6 622.27 38.59 622.27 38.58 622.27 38.56 622.26 38.55 622.26 38.53 622.26 38.52 622.26 38.51 622.26 38.49 622.26 38.48 622.25 38.46 622.24 38.46 622.23 38.45 622.22 38.44 622.21 38.43 622.2 38.43 622.19 38.42 622.18 38.42 622.17 38.41 622.16 38.41 622.15 38.4 622.14 38.39 622.12 38.38 622.11 38.38 622.1 38.37 622.1 38.36 622.09 38.35 622.08 38.34 622.08 38.32 622.08 38.31 622.07 38.3 622.07 38.3 622.06 38.29 622.05 38.27 622.05 38.26 622.05 38.25 622.06 38.24 622.06 38.23 622.06 38.22 622.07 38.21 622.06 38.2 622.06 38.2 622.05 38.19 622.04 38.19 622.03 38.19 622.01 38.19 622 38.19 621.99 38.19 621.98 38.19 621.97 38.19 621.96 38.19 621.95 38.18 621.94 38.17 621.94 38.16 621.94 38.16 621.93 38.15 621.93 38.14 621.93 38.13 621.93 38.11 621.93 38.09 621.95 38.07 621.97 38.07 621.98 38.07 622 38.07 622.03 38.08 622.04 38.08 622.06 38.08 622.07 38.07 622.09 38.06 622.09 38.05 622.1 38.01 622.09 37.99 622.09 37.98 622.08 37.96 622.06 37.95 622.04 37.94 622.02 37.93 622 37.93 621.98 37.92 621.95 37.91 621.93 37.9 621.91 37.89 621.89 37.88 621.87 37.87 621.86 37.85 621.84 37.82 621.82 37.8 621.81 37.79 621.8 37.77 621.8 37.75 621.81 37.73 621.83 37.72 621.85 37.72 621.87 37.72 621.89 37.73 621.91 37.74 621.93 37.74 621.96 37.75 621.98 37.75 622.01 37.75 622.03 37.75 622.05 37.74 622.07 37.74 622.08 37.73 622.09 37.71 622.09 37.7 622.08 37.66 622.06 37.62 622.05 37.57 622.04 37.56 622.02 37.54 621.99 37.52 621.97 37.51 621.91 37.45 621.9 37.44 621.89 37.42 621.89 37.39 621.89 37.37 621.89 37.36 621.9 37.34 621.91 37.31 621.9 37.3 621.89 37.29 621.88 37.28 621.86 37.28 621.84 37.27 621.81 37.26 621.79 37.26 621.75 37.26 621.74 37.26 621.69 37.26 621.67 37.27 621.66 37.27 621.64 37.27 621.63 37.28 621.61 37.28 621.6 37.27 621.58 37.27 621.57 37.26 621.57 37.24 621.56 37.23 621.56 37.21 621.56 37.18 621.56 37.16 621.56 37.14 621.57 37.13 621.57 37.11 621.57 37.09 621.57 37.07 621.58 37.04 621.58 37.02 621.58 37 621.58 36.98 621.58 36.96 621.58 36.94 621.58 36.92 621.58 36.91 621.59 36.89 621.6 36.87 621.6 36.85 621.61 36.84 621.61 36.82 621.61 36.8 621.62 36.78 621.62 36.76 621.62 36.72 621.62 36.71 621.61 36.69 621.61 36.68 621.6 36.67 621.59 36.66 621.57 36.65 621.55 36.64 621.54 36.64 621.53 36.64 621.5 36.65 621.49 36.65 621.47 36.65 621.45 36.66 621.44 36.66 621.43 36.65 621.42 36.64 621.42 36.62 621.42 36.61 621.42 36.59 621.42 36.58 621.43 36.57 621.44 36.56 621.45 36.54 621.47 36.53 621.49 36.51 621.5 36.5 621.52 36.49 621.53 36.47 621.55 36.46 621.56 36.44 621.58 36.42 621.58 36.41 621.58 36.39 621.58 36.38 621.57 36.37 621.56 36.36 621.54 36.35 621.53 36.34 621.51 36.33 621.49 36.32 621.48 36.31 621.46 36.28 621.45 36.27 621.44 36.25 621.44 36.23 621.43 36.21 621.43 36.19 621.42 36.17 621.42 36.15 621.41 36.14 621.4 36.13 621.39 36.13 621.37 36.13 621.35 36.13 621.33 36.13 621.31 36.14 621.29 36.14 621.27 36.14 621.26 36.14 621.24 36.14 621.22 36.14 621.21 36.13 621.21 36.13 621.19 36.12 621.18 36.11 621.17 36.09 621.16 36.08 621.16 36.06 621.15 36.05 621.15 36.03 621.16 36.01 621.16 35.99 621.17 35.98 621.17 35.96 621.18 35.94 621.19 35.92 621.2 35.9 621.21 35.88 621.21 35.87 621.21 35.85 621.21 35.83 621.2 35.82 621.19 35.81 621.18 35.79 621.16 35.78 621.15 35.77 621.13 35.77 621.12 35.76 621.1 35.76 621.08 35.76 621.07 35.76 621.05 35.76 621.04 35.76 621.02 35.76 621.01 35.76 621 35.77 620.98 35.77 620.97 35.76 620.96 35.76 620.95 35.75 620.94 35.73 620.94 35.72 620.94 35.7 620.94 35.69 620.94 35.68 620.95 35.66 620.95 35.65 620.95 35.64 620.99 35.59 621 35.58 621 35.57 621.01 35.55 621.02 35.54 621.03 35.52 621.03 35.5 621.02 35.47 621.01 35.45 621 35.43 621 35.42 620.99 35.4 620.98 35.39 620.96 35.36 620.95 35.34 620.94 35.32 620.94 35.31 620.94 35.3 620.94 35.29 620.94 35.27 620.94 35.26 620.94 35.24 620.9 35.2 620.88 35.17 620.87 35.15 620.87 35.14 620.87 35.12 620.87 35.1 620.87 35.08 620.87 35.06 620.88 35.04 620.88 35.03 620.89 35.01 620.89 34.99 620.9 34.97 620.9 34.96 620.9 34.94 620.89 34.92 620.89 34.9 620.88 34.89 620.87 34.87 620.86 34.86 620.86 34.84 620.86 34.82 620.87 34.8 620.88 34.78 620.89 34.77 620.91 34.76 620.92 34.75 620.93 34.74 620.96 34.71 620.96 34.7 620.97 34.68 620.97 34.66 620.98 34.64 620.99 34.63 621.01 34.6 621.02 34.59 621.03 34.58 621.05 34.55 621.05 34.54 621.05 34.53 621.04 34.51 621.03 34.5 621.02 34.49 621.01 34.48 620.96 34.44 620.95 34.42 620.93 34.41 620.91 34.4 620.9 34.39 620.88 34.38 620.85 34.37 620.84 34.36 620.82 34.34 620.81 34.32 620.81 34.31 620.81 34.29 620.82 34.28 620.84 34.25 620.85 34.24 620.85 34.23 620.86 34.21 620.86 34.2 620.86 34.19 620.85 34.18 620.84 34.16 620.83 34.14 620.77 34.18 620.64 34.21 620.6 34.21 620.59 34.2 620.58 34.18 620.57 34.15 620.56 34.11 620.56 34.04 620.56 34.03 620.56 34.01 620.56 34 620.57 33.99 620.58 33.98 620.59 33.97 620.6 33.96 620.61 33.95 620.62 33.94 620.64 33.93 620.65 33.92 620.67 33.92 620.69 33.91 620.68 33.89 620.7 33.86 620.72 33.84 620.71 33.83 620.68 33.81 620.64 33.78 620.63 33.78 620.61 33.77 620.59 33.75 620.58 33.74 620.56 33.73 620.55 33.72 620.53 33.71 620.52 33.7 620.5 33.69 620.49 33.67 620.48 33.66 620.46 33.65 620.45 33.64 620.43 33.63 620.39 33.6 620.37 33.59 620.34 33.57 620.33 33.56 620.31 33.54 620.3 33.52 620.29 33.51 620.28 33.5 620.27 33.49 620.24 33.47 620.23 33.47 620.22 33.44 620.18 33.4 620.17 33.39 620.16 33.38 620.14 33.36 620.13 33.34 620.12 33.33 620.11 33.31 620.09 33.29 620.08 33.27 620.07 33.25 620.06 33.23 620.05 33.21 620.03 33.19 620.02 33.17 620.01 33.15 620 33.13 619.99 33.11 619.98 33.09 619.97 33.06 619.97 33.04 619.96 33.01 619.95 32.99 619.94 32.96 619.94 32.93 619.93 32.91 619.92 32.88 619.91 32.86 619.91 32.83 619.9 32.8 619.9 32.78 619.89 32.75 619.88 32.73 619.88 32.7 619.87 32.68 619.86 32.65 619.85 32.63 619.84 32.61 619.83 32.58 619.82 32.56 619.81 32.54 619.8 32.51 619.8 32.48 619.8 32.46 619.8 32.43 619.8 32.41 619.79 32.38 619.79 32.36 619.78 32.33 619.78 32.3 619.77 32.28 619.77 32.25 619.76 32.23 619.76 32.2 619.75 32.18 619.74 32.15 619.74 32.13 619.73 32.11 619.72 32.08 619.72 32.05 619.71 32.03 619.71 32.01 619.7 31.98 619.7 31.95 619.7 31.93 619.69 31.9 619.69 31.88 619.69 31.85 619.68 31.83 619.67 31.81 619.67 31.78 619.66 31.76 619.66 31.74 619.66 31.72 619.66 31.7 619.66 31.67 619.67 31.65 619.68 31.62 619.68 31.6 619.69 31.57 619.69 31.54 619.69 31.52 619.69 31.5 619.68 31.47 619.68 31.45 619.68 31.43 619.67 31.41 619.66 31.39 619.65 31.37 619.64 31.35 619.63 31.32 619.62 31.3 619.6 31.28 619.6 31.26 619.59 31.24 619.58 31.22 619.58 31.2 619.57 31.18 619.57 31.16 619.57 31.14 619.56 31.12 619.56 31.11 619.56 31.1 619.57 31.08 619.57 31.06 619.58 31.03 619.58 31.02 619.59 31 619.59 30.99 619.6 30.97 619.6 30.95 619.6 30.92 619.59 30.89 619.59 30.88 619.58 30.84 619.58 30.83 619.56 30.79 619.55 30.77 619.55 30.75 619.54 30.73 619.53 30.71 619.53 30.7 619.52 30.68 619.51 30.66 619.49 30.65 619.48 30.62 619.46 30.55 619.46 30.53 619.44 30.51 619.42 30.5 619.4 30.5 619.41 30.46 619.4 30.42 619.39 30.38 619.38 30.35 619.37 30.32 619.38 30.3 619.39 30.28 619.39 30.27 619.41 30.26 619.42 30.25 619.43 30.24 619.46 30.22 619.47 30.2 619.49 30.19 619.49 30.16 619.49 30.14 619.49 30.13 619.48 30.12 619.47 30.12 619.42 30.13 619.38 30.13 619.35 30.13 619.33 30.12 619.31 30.11 619.3 30.1 619.29 30.08 619.29 30.06 619.3 30.04 619.32 30.02 619.32 30 619.31 29.96 619.3 29.94 619.28 29.91 619.25 29.9 619.22 29.89 619.16 29.87 619.15 29.86 619.13 29.85 619.12 29.83 619.11 29.81 619.11 29.8 619.11 29.76 619.11 29.71 619.11 29.69 619.1 29.66 619.07 29.62 619.06 29.58 619.05 29.56 619.06 29.55 619.08 29.55 619.1 29.55 619.14 29.56 619.16 29.56 619.17 29.56 619.2 29.54 619.24 29.51 619.27 29.5 619.28 29.48 619.28 29.47 619.27 29.44 619.26 29.41 619.26 29.38 619.26 29.35 619.27 29.34 619.28 29.32 619.31 29.28 619.32 29.26 619.32 29.24 619.32 29.21 619.33 29.18 619.34 29.17 619.36 29.15 619.38 29.14 619.4 29.13 619.42 29.12 619.42 29.11 619.42 29.09 619.42 29.07 619.42 29 619.41 28.97 619.42 28.95 619.43 28.93 619.45 28.93 619.48 28.92 619.53 28.92 619.54 28.92 619.58 28.91 619.62 28.9 619.66 28.89 619.71 28.88 619.75 28.88 619.76 28.87 619.77 28.84 619.77 28.81 619.78 28.79 619.79 28.77 619.81 28.76 619.82 28.76 619.84 28.77 619.87 28.79 619.89 28.79 619.91 28.79 619.92 28.78 619.93 28.77 619.93 28.76 619.93 28.75 619.92 28.73 619.91 28.72 619.88 28.71 619.86 28.7 619.84 28.69 619.83 28.68 619.83 28.66 619.83 28.64 619.84 28.61 619.88 28.55 619.9 28.52 619.92 28.5 619.94 28.49 619.97 28.49 619.99 28.48 620 28.47 620.03 28.45 620.04 28.43 620.04 28.42 620.04 28.41 620.04 28.39 620.03 28.38 620.01 28.38 619.98 28.37 619.96 28.36 619.95 28.35 619.95 28.33 619.95 28.32 619.96 28.31 619.99 28.29 620.01 28.28 620.03 28.26 620.05 28.24 620.09 28.2 620.12 28.17 620.16 28.13 620.19 28.09 620.22 28.07 620.24 28.06 620.26 28.06 620.27 28.06 620.31 28.06 620.33 28.07 620.36 28.06 620.37 28.05 620.4 28.04 620.42 28.02 620.44 28 620.47 27.98 620.48 27.97 620.51 27.96 620.57 27.95 620.62 27.94 620.64 27.94 620.65 27.95 620.69 27.96 620.74 27.97 620.78 27.97 620.8 27.96 620.83 27.95 620.87 27.93 620.88 27.91 620.89 27.9 620.9 27.87 620.93 27.83 620.94 27.82 620.95 27.81 620.96 27.81 620.98 27.81 621.03 27.82 621.06 27.83 621.08 27.83 621.12 27.81 621.15 27.79 621.18 27.77 621.21 27.75 621.23 27.74 621.27 27.74 621.32 27.73 621.4 27.71 621.49 27.69 621.55 27.68 621.57 27.68 621.62 27.69 621.69 27.71 621.72 27.71 621.75 27.71 621.76 27.71 621.79 27.7 621.81 27.69 621.86 27.67 621.96 27.63 622 27.61 622.04 27.59 622.08 27.56 622.12 27.54 622.17 27.49 622.22 27.44 622.27 27.41 622.33 27.38 622.37 27.36 622.43 27.34 622.48 27.32 622.49 27.31 622.5 27.3 622.59 27.25 622.7 27.17 622.74 27.13 622.76 27.11 622.77 27.08 622.77 27.05 622.76 27 622.76 26.94 622.76 26.88 622.75 26.83 622.77 26.8 622.78 26.77 622.8 26.75 622.86 26.69 622.88 26.65 622.9 26.63 622.9 26.61 622.89 26.59 622.87 26.56 622.83 26.54 622.81 26.52 622.8 26.49 622.8 26.47 622.82 26.45 622.85 26.44 622.87 26.44 622.91 26.44 622.95 26.43 622.98 26.42 623.03 26.39 623.08 26.37 623.14 26.35 623.2 26.33 623.23 26.31 623.25 26.3 623.26 26.29 623.27 26.26 623.27 26.22 623.28 26.19 623.28 26.15 623.28 26.1 623.28 26.03 623.28 25.98 623.27 25.92 623.27 25.89 623.26 25.85 623.24 25.8 623.22 25.78 623.21 25.77 623.18 25.75 623.15 25.75 623.12 25.75 623.09 25.75 623.04 25.75 623.02 25.74 623.01 25.72 623 25.69 623.01 25.66 623.01 25.62 623.03 25.55 623.03 25.51 623.03 25.43 623.01 25.37 622.99 25.31 622.98 25.25 622.98 25.2 622.97 25.15 622.94 25.11 622.91 25.09 622.87 25.06 622.82 25.06 622.67 25.08 622.58 25.1 622.44 25.14 622.35 25.16 622.31 25.15 622.27 25.13 622.24 25.08 622.21 25.01 622.16 24.92 622.13 24.89 622.08 24.86 621.97 24.81 621.9 24.77 621.82 24.73 621.73 24.69 621.69 24.68 621.68 24.63 621.69 24.59 621.7 24.54 621.74 24.48 621.79 24.42 621.85 24.36 621.89 24.32 621.94 24.28 622.03 24.23 622.09 24.2 622.14 24.17 622.15 24.14 622.14 24.09 622.11 24.04 622.07 24 621.99 23.95 621.94 23.93 621.9 23.94 621.85 23.94 621.8 23.95 621.75 23.95 621.65 23.95 621.57 23.96 621.52 23.98 621.45 24.02 621.4 24.03 621.37 24.03 621.34 24.02 621.28 23.96 621.26 23.92 621.25 23.87 621.24 23.81 621.26 23.76 621.29 23.68 621.33 23.61 621.37 23.52 621.42 23.48 621.48 23.43 621.56 23.38 621.63 23.33 621.71 23.26 621.73 23.24 621.76 23.21 621.77 23.15 621.77 23.1 621.77 23.03 621.77 22.99 621.8 22.92 621.84 22.85 621.89 22.78 621.93 22.71 621.95 22.67 621.96 22.62 621.95 22.57 621.92 22.52 621.88 22.5 621.81 22.47 621.75 22.46 621.71 22.46 621.62 22.46 621.57 22.46 621.53 22.44 621.49 22.4 621.47 22.36 621.46 22.33 621.47 22.27 621.48 22.2 621.5 22.17 621.55 22.15 621.62 22.15 621.69 22.14 621.74 22.13 621.8 22.11 621.86 22.11 621.93 22.11 621.99 22.12 622.03 22.14 622.1 22.16 622.12 22.15 622.16 22.16 622.19 22.13 622.21 22.11 622.23 22.05 622.23 21.98 622.22 21.91 622.2 21.86 622.17 21.81 622.14 21.78 622.13 21.74 622.12 21.72 622.14 21.7 622.19 21.67 622.25 21.65 622.33 21.65 622.4 21.65 622.46 21.65 622.48 21.64 622.53 21.62 622.58 21.62 622.69 21.61 622.78 21.62 622.87 21.64 622.95 21.66 623 21.73 623.01 21.8 623.01 21.87 622.99 21.94 622.93 22.05 622.87 22.14 622.8 22.26 622.78 22.31 622.79 22.35 622.8 22.38 622.83 22.4 622.88 22.39 622.93 22.38 623.02 22.36 623.1 22.33 623.18 22.29 623.28 22.26 623.39 22.21 623.46 22.17 623.52 22.14 623.57 22.11 623.62 22.08 623.67 22.03 623.74 21.96 623.83 21.9 623.88 21.88 623.93 21.88 624.01 21.92 624.07 22 624.14 22.1 624.21 22.16 624.31 22.22 624.42 22.24 624.66 22.24 624.78 22.23 624.86 22.2 624.91 22.17 624.98 22.12 625.03 22.05 625.05 22.01 625.05 21.97 625.03 21.91 625 21.86 624.97 21.81 624.96 21.74 624.95 21.68 624.93 21.62 624.88 21.55 624.83 21.47 624.81 21.39 624.8 21.34 624.8 21.28 624.81 21.25 624.84 21.22 624.88 21.19 624.93 21.17 625.03 21.15 625.12 21.13 625.2 21.11 625.24 21.09 625.26 21.06 625.31 20.98 625.35 20.89 625.38 20.81 625.44 20.73 625.47 20.65 625.5 20.57 625.51 20.47 625.5 20.36 625.48 20.23 625.48 20.16 625.49 20.08 625.52 20.05 625.57 19.98 625.64 19.92 625.85 19.68 625.96 19.52 626.01 19.41 626.02 19.31 626.03 19.24 626.02 19.21 625.99 19.18 625.97 19.15 625.88 19.11 625.8 19.08 625.74 19.05 625.66 19.01 625.61 18.98 625.53 18.94 625.47 18.9 625.44 18.85 625.38 18.78 625.37 18.75 625.35 18.7 625.32 18.59 625.3 18.49 625.31 18.41 625.32 18.34 625.36 18.26 625.4 18.16 625.43 18.05 625.45 17.92 625.46 17.86 625.45 17.83 625.42 17.8 625.4 17.79 625.36 17.77 625.3 17.74 625.23 17.72 625.17 17.7 625.08 17.67 624.99 17.63 624.92 17.59 624.83 17.52 624.74 17.47 624.69 17.45 624.65 17.44 624.62 17.44 624.58 17.44 624.53 17.41 624.51 17.4 624.49 17.39 624.46 17.34 624.41 17.24 624.37 17.17 624.35 17.13 624.29 17.03 624.23 16.91 624.17 16.8 624.08 16.63 624.03 16.54 623.96 16.41 623.89 16.28 623.84 16.19 623.83 16.16 Z"/>
</g></svg>