<svg xmlns="http://www.w3.org/2000/svg" version="1.2" baseProfile="tiny" stroke-linecap="round" stroke-linejoin="round" viewBox="321.27 377.57 16.13 47.08"><g xmlns="http://www.w3.org/2000/svg" id="Bargota">
<path d="M 322.59 377.57 322.73 377.64 322.74 377.65 322.84 377.71 322.93 377.77 322.96 377.78 323.03 377.82 323.11 377.87 323.19 377.92 323.26 377.96 323.28 377.97 323.3 377.98 323.35 378.01 323.37 378.03 323.38 378.04 323.42 378.06 323.49 378.08 323.53 378.1 323.6 378.12 323.65 378.14 323.68 378.16 323.71 378.17 323.76 378.19 323.83 378.21 323.9 378.24 323.93 378.24 324.14 378.25 324.22 378.25 324.24 378.25 324.27 378.25 324.28 378.25 324.36 378.25 324.37 378.25 324.44 378.25 324.46 378.25 324.49 378.25 324.49 378.25 324.56 378.25 324.65 378.24 324.69 378.24 324.73 378.23 324.76 378.23 324.83 378.22 324.89 378.21 324.9 378.21 324.94 378.2 324.98 378.2 325.02 378.19 325.04 378.19 325.11 378.18 325.16 378.17 325.22 378.17 325.25 378.16 325.3 378.22 325.34 378.27 325.42 378.35 325.45 378.39 325.54 378.5 325.56 378.52 325.7 378.69 325.73 378.72 325.77 378.77 325.78 378.81 325.79 378.84 325.82 378.96 325.83 379.01 325.86 379.11 325.9 379.23 325.95 379.41 325.97 379.5 325.98 379.56 325.99 379.59 325.99 379.61 326.02 379.81 326.06 380.09 326.09 380.27 326.1 380.29 326.11 380.31 326.13 380.39 326.17 380.47 326.19 380.51 326.25 380.64 326.27 380.67 326.3 380.75 326.34 380.83 326.4 380.94 326.47 381.09 326.48 381.11 326.53 381.21 326.56 381.27 326.57 381.29 326.6 381.35 326.64 381.44 326.69 381.53 326.72 381.58 326.74 381.62 326.8 381.72 326.83 381.79 326.84 381.8 326.85 381.82 326.88 381.88 326.92 381.93 327 382.01 327.02 382.03 327.04 382.06 327.08 382.1 327.15 382.18 327.22 382.26 327.29 382.34 327.37 382.42 327.38 382.43 327.4 382.45 327.44 382.49 327.45 382.5 327.55 382.59 327.78 382.68 327.93 382.75 328.1 382.81 328.24 382.87 328.4 382.94 328.54 383 328.71 383.07 328.71 383.15 328.71 383.24 328.7 383.34 328.7 383.4 328.7 383.46 328.7 383.5 328.72 383.57 328.76 383.67 328.77 383.72 328.78 383.75 328.81 383.77 328.84 383.8 328.92 383.87 328.96 383.9 329.02 383.94 329.09 383.98 329.09 384 329.09 384.08 329.07 384.21 329.06 384.34 329.08 384.42 329.08 384.43 329.1 384.59 329.12 384.68 329.13 384.76 329.16 384.92 329.17 385 329.19 385.1 329.21 385.21 329.22 385.24 329.23 385.28 329.24 385.36 329.26 385.43 329.27 385.45 329.28 385.5 329.3 385.59 329.3 385.63 329.32 385.67 329.34 385.7 329.38 385.77 329.39 385.79 329.45 385.89 329.5 385.98 329.58 386.1 329.63 386.19 329.65 386.23 329.69 386.33 329.76 386.5 329.78 386.54 329.8 386.59 329.82 386.65 329.89 386.79 329.89 386.8 329.97 387 329.99 387.06 330 387.07 330.08 387.26 330.11 387.32 330.12 387.34 330.12 387.35 330.15 387.4 330.17 387.45 330.21 387.53 330.21 387.55 330.22 387.57 330.25 387.62 330.26 387.64 330.34 387.8 330.35 387.81 330.38 387.86 330.42 387.93 330.49 388.07 330.5 388.09 330.53 388.15 330.56 388.21 330.58 388.24 330.61 388.31 330.63 388.33 330.66 388.38 330.66 388.39 330.78 388.56 330.8 388.59 330.85 388.64 330.87 388.67 330.9 388.71 331 388.85 331.03 388.89 331.07 388.96 331.09 388.97 331.13 389.04 331.22 389.16 331.23 389.17 331.29 389.25 331.37 389.38 331.43 389.46 331.53 389.61 331.53 389.62 331.62 389.75 331.67 389.85 331.68 389.86 331.72 389.94 331.73 389.96 331.75 390.01 331.79 390.08 331.82 390.15 331.83 390.16 331.84 390.19 331.88 390.27 331.91 390.33 331.92 390.37 331.99 390.49 332.05 390.64 332.06 390.65 332.08 390.68 332.11 390.72 332.12 390.74 332.13 390.76 332.14 390.82 332.15 390.87 332.17 390.94 332.2 391.03 332.23 391.14 332.23 391.16 332.22 391.2 332.22 391.21 332.22 391.24 332.21 391.32 332.21 391.33 332.2 391.36 332.19 391.46 332.19 391.54 332.19 391.56 332.18 391.6 332.18 391.61 332.17 391.62 332.14 391.68 332.06 391.76 332.03 391.79 332 391.83 331.88 391.97 331.81 392.03 331.77 392.08 331.66 392.21 331.54 392.34 331.53 392.34 331.52 392.36 331.5 392.38 331.48 392.41 331.46 392.44 331.42 392.5 331.4 392.53 331.36 392.58 331.34 392.62 331.27 392.7 331.22 392.76 331.21 392.78 331.2 392.79 331.2 392.8 331.18 392.83 331.17 392.85 331.15 392.89 331.14 392.91 331.11 392.96 331.1 392.97 331.05 393.06 331 393.15 330.99 393.17 330.95 393.23 330.93 393.27 330.92 393.29 330.92 393.3 330.91 393.3 330.9 393.33 330.89 393.38 330.86 393.48 330.84 393.56 330.86 393.61 330.88 393.71 330.9 393.75 330.9 393.76 330.95 393.82 330.94 393.83 330.91 393.85 330.9 393.88 330.85 393.98 330.83 394.06 330.8 394.11 330.81 394.13 330.82 394.14 330.83 394.18 330.84 394.2 330.85 394.22 330.86 394.24 330.92 394.41 330.93 394.43 330.94 394.45 330.99 394.58 331 394.6 331.04 394.7 331.06 394.75 331.07 394.78 331.08 394.8 331.14 394.88 331.22 394.99 331.29 395.08 331.3 395.1 331.32 395.12 331.35 395.17 331.38 395.26 331.42 395.39 331.43 395.43 331.43 395.44 331.44 395.48 331.48 395.55 331.5 395.59 331.54 395.67 331.58 395.74 331.6 395.78 331.61 395.82 331.65 395.88 331.71 396 331.77 396.13 331.8 396.18 331.81 396.2 331.84 396.22 331.86 396.25 331.88 396.27 331.89 396.3 331.9 396.34 331.93 396.4 331.97 396.47 332 396.54 332.03 396.58 332.03 396.6 332.04 396.65 332.05 396.68 332.06 396.75 332.1 396.87 332.13 396.98 332.14 397.04 332.14 397.1 332.13 397.21 332.12 397.3 332.12 397.37 332.11 397.42 332.12 397.44 332.12 397.46 332.12 397.48 332.12 397.51 332.12 397.53 332.13 397.55 332.14 397.57 332.16 397.61 332.2 397.67 332.25 397.76 332.3 397.84 332.33 397.91 332.35 397.96 332.37 398 332.41 398.07 332.45 398.15 332.5 398.24 332.54 398.31 332.56 398.35 332.61 398.41 332.65 398.46 332.67 398.5 332.69 398.54 332.71 398.59 332.74 398.68 332.79 398.81 332.84 398.95 332.87 399.04 332.88 399.09 332.88 399.1 332.9 399.18 332.91 399.22 332.93 399.34 332.98 399.46 332.99 399.48 332.99 399.5 333.01 399.54 333.02 399.58 333.06 399.67 333.1 399.78 333.11 399.81 333.12 399.84 333.12 399.85 333.12 399.86 333.15 400 333.18 400.15 333.19 400.21 333.23 400.37 333.23 400.42 333.24 400.45 333.25 400.51 333.26 400.59 333.28 400.68 333.3 400.85 333.31 400.89 333.33 401.06 333.34 401.13 333.36 401.26 333.37 401.37 333.38 401.4 333.43 401.49 333.49 401.63 333.57 401.8 333.59 401.84 333.64 401.95 333.66 402 333.67 402.02 333.68 402.04 333.69 402.05 333.71 402.1 333.76 402.18 333.79 402.22 333.84 402.29 333.89 402.36 333.98 402.49 334.01 402.53 334.13 402.69 334.29 402.92 334.36 403.01 334.37 403.04 334.38 403.09 334.39 403.14 334.41 403.24 334.44 403.39 334.45 403.43 334.49 403.62 334.53 403.77 334.54 403.82 334.54 403.83 334.55 403.89 334.62 404.15 334.67 404.35 334.69 404.44 334.7 404.51 334.73 404.63 334.78 404.88 334.87 405.24 334.88 405.27 334.92 405.46 334.96 405.6 334.96 405.62 334.98 405.72 335.03 405.89 335.03 405.93 335.08 406.13 335.12 406.32 335.19 406.55 335.24 406.73 335.26 406.77 335.27 406.81 335.31 406.97 335.36 407.12 335.38 407.19 335.39 407.24 335.39 407.25 335.38 407.32 335.37 407.39 335.34 407.57 335.33 407.63 335.3 407.77 335.3 407.78 335.3 407.81 335.28 407.89 335.28 407.94 335.25 408.07 335.23 408.2 335.17 408.31 335.13 408.41 335.07 408.5 335 408.65 334.98 408.69 334.93 408.78 334.85 408.94 334.79 409.07 334.78 409.09 334.72 409.21 334.71 409.23 334.65 409.33 334.59 409.45 334.58 409.47 334.53 409.55 334.5 409.61 334.47 409.69 334.45 409.76 334.43 409.88 334.39 410.03 334.39 410.04 334.35 410.18 334.35 410.2 334.33 410.27 334.32 410.31 334.27 410.43 334.26 410.47 334.24 410.51 334.23 410.59 334.22 410.62 334.21 410.71 334.21 410.72 334.2 410.76 334.19 410.83 334.18 410.9 334.17 410.95 334.15 411.08 334.13 411.19 334.13 411.2 334.07 411.48 334.05 411.58 334.04 411.65 334.01 411.79 334 411.84 333.96 411.98 333.92 412.16 333.9 412.2 333.88 412.27 333.88 412.27 333.86 412.37 333.85 412.46 333.84 412.52 333.81 412.71 333.79 412.84 333.77 412.92 333.73 413.04 333.71 413.13 333.7 413.16 333.69 413.17 333.68 413.19 333.67 413.21 333.62 413.29 333.54 413.42 333.46 413.54 333.39 413.65 333.34 413.73 333.32 413.76 333.32 413.77 333.3 413.82 333.3 413.83 333.27 413.88 333.26 413.93 333.25 413.95 333.23 414.05 333.19 414.16 333.18 414.19 333.14 414.33 333.11 414.45 333.1 414.49 333.09 414.5 333.08 414.55 333.07 414.6 333.07 414.63 333.08 414.68 333.11 414.78 333.11 414.8 333.11 414.95 333.11 414.98 333.11 414.99 333.12 415.12 333.12 415.36 333.13 415.38 333.13 415.5 333.13 415.62 333.14 415.92 333.14 415.95 333.14 416.02 333.14 416.04 333.14 416.26 333.14 416.51 333.14 416.53 333.14 416.54 333.14 416.69 333.13 416.89 333.13 417.02 333.13 417.03 333.14 417.07 333.15 417.09 333.18 417.17 333.24 417.35 333.26 417.42 333.29 417.49 333.35 417.67 333.42 417.88 333.42 417.9 333.44 417.93 333.48 418.06 333.51 418.08 333.55 418.1 333.6 418.11 333.63 418.11 333.76 418.11 333.82 418.11 333.98 418.11 334.22 418.12 334.48 418.13 334.56 418.13 334.64 418.13 334.69 418.13 334.77 418.13 334.92 418.15 335.01 418.16 335.07 418.17 335.14 418.2 335.27 418.25 335.35 418.29 335.39 418.3 335.48 418.34 335.54 418.38 335.65 418.46 335.67 418.48 335.79 418.57 335.84 418.61 335.87 418.63 335.9 418.64 335.93 418.65 335.97 418.66 336.02 418.67 336.06 418.67 336.08 418.67 336.14 418.7 336.2 418.72 336.28 418.76 336.59 418.87 336.8 418.96 336.89 418.99 336.95 419.01 336.97 419.02 337.02 419 337.1 418.99 337.15 418.98 337.19 418.98 337.19 418.98 337.24 418.98 337.26 418.98 337.28 418.98 337.34 419 337.4 418.99 337.4 419 337.28 419.57 337.28 419.59 337.27 419.61 337.24 419.74 337.23 419.75 337.21 419.83 337.2 419.88 337.18 419.96 337.16 420.06 337.15 420.11 337.14 420.15 337.11 420.24 337.1 420.3 337.08 420.35 337.08 420.37 337.03 420.55 336.98 420.71 336.95 420.82 336.93 420.9 336.92 420.94 336.91 420.96 336.91 420.97 336.9 420.98 336.9 420.99 336.88 421.03 336.84 421.13 336.81 421.2 336.78 421.29 336.75 421.37 336.74 421.42 336.72 421.47 336.71 421.53 336.7 421.54 336.69 421.58 336.68 421.62 336.66 421.7 336.66 421.75 336.64 421.79 336.63 421.83 336.59 421.98 336.58 421.99 336.55 422.09 336.51 422.31 336.49 422.43 336.47 422.5 336.41 422.75 336.39 422.85 336.38 422.87 336.36 422.97 336.33 423.1 336.27 423.35 336.23 423.52 336.2 423.64 336.19 423.67 336.18 423.72 336.18 423.73 336.18 423.75 336.18 423.76 336.18 423.77 336.17 423.78 336.17 423.79 336.16 423.81 336.15 423.83 336.15 423.85 336.14 423.86 336.13 423.87 336.1 423.88 336.08 423.91 336.06 423.95 336.04 423.99 336.03 424.01 336.02 424.02 335.99 424.04 335.92 424.08 335.85 424.1 335.78 424.1 335.77 424.1 335.46 424.04 335.26 424 335.22 423.99 335.13 424.01 335.05 424.02 334.39 424.13 334.04 424.16 333.85 424.18 333.81 424.18 333.66 424.19 333.09 424.26 333.01 424.29 332.98 424.3 332.96 424.3 332.45 424.46 332.22 424.53 331.34 424.61 331.21 424.62 331.12 424.37 331.12 424.36 331.09 424.28 331.03 424.11 331.02 424.09 331.01 424.06 331.01 424.05 331 424.02 330.99 424 330.99 423.98 330.96 423.91 330.95 423.9 330.94 423.88 330.89 423.77 330.8 423.62 330.65 423.34 330.64 423.32 330.52 423.11 330.31 422.71 330.3 422.7 330.29 422.68 330.26 422.62 330.16 422.43 330.13 422.39 329.97 422.12 329.82 421.88 329.8 421.85 329.79 421.82 329.78 421.81 329.76 421.76 329.75 421.74 329.74 421.73 329.73 421.71 329.56 421.32 329.45 421.09 329.44 421.08 329.44 421.06 329.27 420.71 329.26 420.7 329.25 420.67 329.24 420.65 329.23 420.63 329.2 420.52 329.17 420.41 329.15 420.36 329.11 420.24 329.06 420.12 329.03 420.04 328.94 419.81 328.86 419.6 328.85 419.59 328.85 419.58 328.84 419.57 328.78 419.41 328.76 419.35 328.77 419.29 328.77 419.27 328.77 419.24 328.77 419.16 328.77 419.14 328.77 419.09 328.78 419.01 328.78 418.92 328.78 418.85 328.79 418.76 328.8 418.66 328.81 418.59 328.82 418.48 328.83 418.41 328.84 418.37 328.87 418.28 328.87 418.24 328.87 418.21 328.87 418.13 328.88 418.08 328.89 418.04 328.9 418 328.92 417.92 328.92 417.91 328.93 417.89 328.94 417.85 328.96 417.81 328.96 417.8 328.97 417.78 328.97 417.75 328.97 417.73 328.97 417.68 328.97 417.62 328.97 417.56 328.98 417.51 328.98 417.48 328.98 417.47 328.99 417.46 329 417.44 329.01 417.42 329.02 417.39 329.03 417.34 329.03 417.2 329.03 417.12 329.03 417.1 329.05 417.04 329.06 416.97 329.07 416.89 329.08 416.73 329.09 416.64 329.08 416.61 329.06 416.54 329.06 416.46 329.06 416.36 329.06 416.21 329.06 416.04 329.06 415.89 329.06 415.83 329.06 415.77 329.05 415.72 329.03 415.62 329.02 415.58 329.02 415.5 329.02 415.41 329.02 415.37 329.01 415.32 329.01 415.23 329.01 415.18 329 415.03 328.99 414.84 328.99 414.7 328.99 414.58 328.97 414.38 328.97 414.37 328.97 414.36 328.97 414.26 328.97 414.22 328.96 414.07 328.96 414.02 328.96 413.96 328.95 413.9 328.95 413.89 328.95 413.78 328.94 413.76 328.93 413.62 328.93 413.61 328.92 413.41 328.92 413.4 328.92 413.33 328.91 413.24 328.91 413.16 328.91 413.07 328.9 412.94 328.89 412.82 328.89 412.76 328.88 412.75 328.88 412.71 328.86 412.45 328.86 412.41 328.84 412.2 328.84 412.19 328.83 412.08 328.83 412.04 328.81 411.81 328.8 411.71 328.8 411.65 328.8 411.63 328.79 411.61 328.79 411.58 328.79 411.42 328.79 411.39 328.79 411.35 328.79 411.14 328.78 410.72 328.78 410.68 328.78 410.62 328.78 410.55 328.78 410.46 328.76 410.24 328.74 409.89 328.7 409.37 328.68 409.05 328.67 408.88 328.63 408.35 328.62 408.16 328.61 408.1 328.62 408.06 328.62 408.03 328.6 408 328.58 407.96 328.55 407.92 328.5 407.84 328.47 407.78 328.43 407.71 328.41 407.67 328.4 407.64 328.4 407.61 328.4 407.54 328.4 407.47 328.4 407.39 328.39 407.32 328.38 407.21 328.38 407.14 328.37 407.07 328.37 407.02 328.38 406.99 328.38 406.94 328.4 406.89 328.43 406.83 328.46 406.77 328.5 406.73 328.53 406.7 328.53 406.65 328.51 406.6 328.48 406.46 328.47 406.43 328.44 406.3 328.41 406.16 328.41 406.15 328.35 405.92 328.32 405.75 328.31 405.7 328.3 405.68 328.3 405.65 328.28 405.55 328.27 405.51 328.26 405.49 328.25 405.48 328.23 405.43 328.21 405.37 328.19 405.34 328.18 405.32 328.16 405.28 328.15 405.26 328.14 405.24 328.1 405.14 328.04 405.04 328 404.96 327.89 404.72 327.87 404.66 327.77 404.47 327.69 404.29 327.69 404.28 327.67 404.24 327.65 404.21 327.64 404.18 327.62 404.15 327.56 404.09 327.55 404.09 327.53 404.07 327.5 404.04 327.47 404.01 327.41 403.96 327.4 403.95 327.29 403.85 327.1 403.68 327.07 403.64 326.99 403.57 326.88 403.31 326.88 403.29 326.84 403.18 326.83 403.17 326.79 403.05 326.63 402.64 326.53 402.38 326.44 402.17 326.34 401.87 326.33 401.84 326.31 401.77 326.24 401.58 326.09 401.16 326.08 401.13 325.99 400.88 325.98 400.87 325.93 400.73 325.88 400.52 325.83 400.39 325.83 400.38 325.83 400.36 325.82 400.35 325.81 400.34 325.78 400.31 325.72 400.26 325.71 400.25 325.69 400.23 325.63 400.17 325.6 400.14 325.53 400.07 325.5 400.04 325.27 399.84 325.23 399.8 325.22 399.79 325.07 399.65 325.03 399.61 324.96 399.55 324.93 399.52 324.89 399.48 324.86 399.45 324.82 399.42 324.77 399.37 324.74 399.35 324.73 399.33 324.66 399.27 324.58 399.2 324.55 399.17 324.49 399.11 324.48 399.1 324.42 399.02 324.37 398.95 324.27 398.85 324.23 398.81 324.18 398.73 324.16 398.71 324.15 398.67 324.14 398.61 324.14 398.55 324.14 398.51 324.14 398.49 324.13 398.46 324.1 398.42 324.06 398.38 324.04 398.34 324.03 398.3 324.04 398.23 324.03 398.17 324.03 398.11 324.02 398.09 324.01 398.05 323.98 397.96 323.96 397.87 323.94 397.82 323.94 397.81 323.93 397.78 323.92 397.77 323.89 397.75 323.87 397.74 323.86 397.72 323.85 397.65 323.83 397.6 323.82 397.56 323.8 397.51 323.78 397.47 323.74 397.4 323.69 397.3 323.64 397.22 323.6 397.14 323.55 397.05 323.5 396.97 323.44 396.84 323.4 396.78 323.39 396.66 323.39 396.6 323.39 396.54 323.4 396.48 323.41 396.43 323.41 396.38 323.41 396.33 323.4 396.27 323.39 396.24 323.38 396.21 323.35 396.18 323.33 396.16 323.29 396.13 323.25 396.1 323.22 396.07 323.19 396.05 323.17 396.03 323.15 395.99 323.12 395.96 323.11 395.94 323.08 395.92 323.05 395.89 323.01 395.87 322.98 395.83 322.95 395.8 322.91 395.74 322.87 395.68 322.82 395.61 322.81 395.59 322.79 395.57 322.77 395.55 322.77 395.53 322.79 395.42 322.79 395.4 322.82 395.29 322.84 395.16 322.85 395.07 322.86 395.01 322.88 394.93 322.89 394.89 322.91 394.8 322.91 394.78 322.92 394.73 322.93 394.68 322.92 394.52 322.92 394.41 322.92 394.36 322.92 394.32 322.92 394.28 322.92 394.23 322.92 394.14 322.92 394.12 322.96 393.97 322.98 393.92 322.98 393.89 322.99 393.86 323.05 393.65 323.15 393.28 323.16 393.26 323.2 393.09 323.25 392.93 323.26 392.86 323.28 392.8 323.29 392.75 323.28 392.7 323.26 392.64 323.18 392.38 323.14 392.27 323.1 392.13 323.07 392.05 323.06 392.03 323.04 391.96 323 391.86 322.97 391.76 322.96 391.73 322.96 391.66 322.96 391.62 322.94 391.51 322.93 391.36 322.92 391.27 322.91 391.21 322.89 391.14 322.88 391.12 322.85 391.01 322.81 390.89 322.8 390.85 322.76 390.73 322.73 390.61 322.72 390.6 322.68 390.48 322.62 390.34 322.64 390.29 322.65 390.26 322.69 390.18 322.71 390.1 322.73 390.02 322.73 389.96 322.74 389.9 322.76 389.78 322.84 389.75 322.85 389.75 322.82 389.67 322.8 389.61 322.78 389.58 322.72 389.52 322.69 389.48 322.67 389.46 322.66 389.44 322.64 389.42 322.61 389.36 322.58 389.31 322.54 389.28 322.5 389.24 322.45 389.19 322.39 389.12 322.34 389.06 322.31 388.99 322.28 388.93 322.28 388.92 322.27 388.88 322.26 388.85 322.25 388.82 322.25 388.78 322.23 388.72 322.22 388.68 322.21 388.64 322.21 388.6 322.2 388.55 322.2 388.5 322.2 388.45 322.2 388.41 322.2 388.37 322.21 388.32 322.22 388.27 322.22 388.22 322.23 388.15 322.25 388.11 322.27 388.04 322.29 387.96 322.32 387.88 322.32 387.83 322.32 387.8 322.31 387.78 322.3 387.75 322.28 387.73 322.27 387.7 322.25 387.68 322.22 387.64 322.18 387.61 322.13 387.57 322.11 387.54 322.09 387.51 322.08 387.47 322.05 387.42 322.03 387.37 322 387.32 321.99 387.29 321.98 387.24 321.97 387.2 321.97 387.15 321.97 387.07 321.96 387.02 321.97 386.99 321.96 386.97 321.96 386.93 321.95 386.9 321.93 386.87 321.92 386.84 321.9 386.79 321.86 386.74 321.86 386.72 321.84 386.69 321.83 386.65 321.81 386.6 321.78 386.54 321.76 386.46 321.73 386.39 321.7 386.32 321.69 386.28 321.69 386.24 321.68 386.21 321.69 386.19 321.69 386.16 321.69 386.15 321.67 386.09 321.67 386.08 321.65 386.02 321.63 385.96 321.61 385.89 321.6 385.86 321.59 385.83 321.59 385.79 321.58 385.73 321.58 385.69 321.57 385.62 321.56 385.58 321.53 385.54 321.52 385.5 321.51 385.46 321.51 385.44 321.52 385.4 321.52 385.37 321.53 385.34 321.53 385.31 321.52 385.3 321.52 385.28 321.51 385.26 321.49 385.22 321.48 385.19 321.47 385.15 321.46 385.09 321.45 385.01 321.44 384.92 321.43 384.85 321.42 384.79 321.4 384.71 321.39 384.67 321.39 384.66 321.38 384.62 321.37 384.58 321.35 384.5 321.32 384.42 321.3 384.34 321.3 384.3 321.32 384.25 321.33 384.16 321.34 384.1 321.35 384.07 321.38 383.97 321.39 383.9 321.4 383.88 321.41 383.81 321.41 383.8 321.43 383.7 321.43 383.69 321.45 383.59 321.45 383.55 321.47 383.46 321.48 383.37 321.5 383.26 321.52 383.1 321.53 383.09 321.56 383 321.6 382.85 321.61 382.83 321.63 382.77 321.68 382.66 321.75 382.51 321.81 382.38 321.84 382.32 321.86 382.28 321.93 382.22 322.02 382.14 322.05 382.12 322.23 381.96 322.22 381.92 322.22 381.89 322.21 381.85 322.2 381.84 322.19 381.82 322.18 381.8 322.15 381.78 322.13 381.76 322.1 381.73 322.06 381.71 322.04 381.69 322 381.67 321.97 381.64 321.94 381.6 321.91 381.57 321.88 381.53 321.85 381.47 321.83 381.43 321.81 381.4 321.78 381.38 321.75 381.35 321.73 381.33 321.7 381.28 321.67 381.21 321.65 381.17 321.65 381.15 321.66 381.12 321.67 381.08 321.66 381.04 321.66 380.99 321.65 380.95 321.64 380.89 321.63 380.84 321.61 380.8 321.58 380.76 321.54 380.72 321.51 380.68 321.49 380.66 321.48 380.64 321.47 380.6 321.46 380.55 321.46 380.51 321.45 380.45 321.44 380.39 321.43 380.37 321.42 380.35 321.4 380.33 321.38 380.3 321.36 380.26 321.33 380.21 321.33 380.19 321.32 380.16 321.32 380.13 321.32 380.12 321.33 380.1 321.35 380.05 321.37 379.98 321.38 379.91 321.39 379.84 321.4 379.77 321.4 379.72 321.4 379.65 321.4 379.6 321.4 379.57 321.41 379.54 321.44 379.49 321.45 379.46 321.46 379.44 321.46 379.39 321.46 379.34 321.45 379.25 321.45 379.15 321.46 379.08 321.46 379.02 321.47 378.98 321.47 378.94 321.46 378.91 321.45 378.86 321.44 378.82 321.43 378.77 321.43 378.76 321.41 378.73 321.4 378.71 321.39 378.68 321.38 378.67 321.41 378.65 321.43 378.64 321.5 378.59 321.51 378.59 321.52 378.58 321.57 378.54 321.61 378.52 321.67 378.46 321.7 378.43 321.71 378.42 321.77 378.36 321.79 378.35 321.8 378.34 321.83 378.31 321.9 378.25 321.94 378.21 321.96 378.19 322.06 378.1 322.08 378.08 322.18 377.99 322.31 377.87 322.32 377.86 322.35 377.82 322.39 377.78 322.43 377.74 322.46 377.71 322.56 377.6 322.59 377.57 Z"/>
</g></svg>