<svg xmlns="http://www.w3.org/2000/svg" version="1.2" baseProfile="tiny" stroke-linecap="round" stroke-linejoin="round" viewBox="743.07 114.52 29.18 51.05"><g xmlns="http://www.w3.org/2000/svg" id="Barkoxe">
<path d="M 763.37 114.56 763.41 114.55 763.46 114.54 763.49 114.53 763.54 114.54 763.58 114.54 763.63 114.55 763.68 114.56 763.72 114.57 763.76 114.58 763.81 114.58 763.86 114.58 763.96 114.6 764.04 114.61 764.11 114.61 764.15 114.61 764.22 114.8 764.35 114.92 764.4 114.99 764.44 115.07 764.51 115.18 764.55 115.25 764.58 115.3 764.61 115.35 764.65 115.4 764.69 115.44 764.75 115.5 764.8 115.53 764.78 115.55 764.72 115.58 764.67 115.61 764.63 115.62 764.58 115.64 764.53 115.65 764.44 115.65 764.43 115.76 764.43 115.83 764.44 115.9 764.44 115.98 764.44 116.04 764.36 116.72 764.28 117.4 764.21 117.6 764.64 118.06 764.68 118.12 764.74 118.21 764.78 118.29 764.83 118.37 764.87 118.43 764.89 118.46 764.97 118.57 764.98 118.58 765.18 118.8 765.27 118.92 765.34 118.99 765.43 119.07 765.51 119.14 765.56 119.18 765.66 119.25 765.72 119.28 765.79 119.3 765.79 119.52 765.95 119.78 766.39 120.11 766.38 120.13 766.37 120.16 766.37 120.19 766.37 120.22 766.39 120.28 766.41 120.34 766.42 120.38 766.42 120.44 766.41 120.55 766.41 120.56 766.4 120.61 766.41 120.68 766.39 120.82 766.37 120.93 766.34 121.01 766.3 121.09 766.5 121.24 766.47 121.36 766.65 121.73 766.95 122.84 767.15 123.28 767.39 123.38 767.46 123.46 767.61 123.62 767.63 123.63 767.38 123.8 767.37 123.91 767.49 124.34 767.6 124.86 767.64 124.87 767.68 124.89 767.69 124.91 767.71 124.94 767.72 125.02 767.73 125.14 767.73 125.2 767.73 125.29 767.74 125.4 767.76 125.82 767.82 125.86 767.85 125.89 767.87 125.91 767.87 125.95 767.87 126 767.88 126.04 767.89 126.06 767.9 126.09 767.92 126.17 767.93 126.25 767.93 126.3 767.94 126.35 767.92 126.42 768.35 127.13 768.86 127.8 769.08 128.27 769.18 128.43 769.15 128.54 769.33 128.83 769.5 129.08 769.56 129.16 769.72 129.46 769.75 129.48 769.77 129.49 769.78 129.5 769.81 129.53 769.83 129.57 769.85 129.6 769.86 129.65 769.88 129.68 769.89 129.71 769.9 129.74 769.89 129.78 769.9 129.8 769.91 129.83 769.92 129.86 769.93 129.89 769.93 129.92 769.93 129.96 769.93 129.99 769.92 130.02 769.92 130.06 769.91 130.1 769.91 130.14 769.91 130.17 769.92 130.25 769.92 130.38 769.93 130.43 769.94 130.48 769.96 130.51 769.98 130.54 770.03 130.63 770.05 130.67 770.09 130.71 770.11 130.74 770.15 130.77 770.2 130.81 770.23 130.83 770.26 130.86 770.28 130.89 770.28 130.93 770.29 130.96 770.3 131 770.33 131.03 770.37 131.07 770.43 131.12 770.5 131.17 770.55 131.21 770.62 131.27 770.68 131.33 770.76 131.41 770.85 131.57 770.92 131.71 770.98 131.83 771 131.85 771.03 131.87 771.11 131.92 771.19 131.93 771.42 131.95 771.78 132 771.8 132 771.87 132.01 772.01 132.02 772.14 132.03 772.2 132.05 772.22 132.07 772.23 132.09 772.24 132.1 772.23 132.16 772.23 132.18 772.23 132.21 772.23 132.24 772.23 132.28 772.23 132.31 772.23 132.34 772.23 132.38 772.21 132.41 772.18 132.44 772.15 132.46 772.12 132.48 772.08 132.48 772.04 132.47 771.99 132.46 771.94 132.45 771.91 132.43 771.84 132.42 771.78 132.41 771.76 132.41 771.73 132.42 771.69 132.45 771.65 132.47 771.6 132.51 771.56 132.55 771.53 132.57 771.5 132.59 771.45 132.61 771.38 132.63 771.3 132.65 771.25 132.67 771.2 132.68 771.18 132.69 771.15 132.7 771.14 132.71 771.12 132.72 771.1 132.74 771.08 132.75 771.05 132.76 771.03 132.76 771 132.76 770.98 132.73 770.97 132.7 770.96 132.68 770.94 132.65 770.93 132.62 770.89 132.54 770.86 132.5 770.83 132.46 770.8 132.41 770.78 132.36 770.75 132.32 770.73 132.31 770.7 132.32 770.67 132.33 770.65 132.36 770.65 132.41 770.66 132.44 770.67 132.48 770.69 132.52 770.72 132.56 770.74 132.6 770.77 132.65 770.79 132.69 770.79 132.73 770.79 132.79 770.79 132.81 770.78 132.85 770.75 132.88 770.73 132.89 770.7 132.9 770.67 132.91 770.64 132.94 770.61 132.97 770.59 133 770.56 133 770.53 132.99 770.49 132.96 770.45 132.93 770.43 132.9 770.41 132.86 770.38 132.83 770.34 132.8 770.3 132.78 770.26 132.77 770.23 132.78 770.2 132.79 770.16 132.8 770.12 132.81 770.07 132.81 770.03 132.82 769.98 132.81 769.93 132.81 769.89 132.81 769.84 132.81 769.78 132.81 769.73 132.81 769.68 132.81 769.63 132.81 769.57 132.81 769.52 132.81 769.49 132.81 769.45 132.82 769.41 132.84 769.38 132.85 769.34 132.87 769.28 132.89 769.25 132.91 769.21 132.94 769.18 132.96 769.16 132.99 769.13 133.01 769.07 133.08 769.04 133.1 769 133.16 768.97 133.2 768.94 133.24 768.91 133.28 768.88 133.33 768.86 133.37 768.84 133.41 768.82 133.45 768.81 133.47 768.81 133.5 768.81 133.54 768.81 133.57 768.82 133.61 768.83 133.67 768.83 133.71 768.81 133.74 768.8 133.78 768.79 133.83 768.79 133.86 768.79 133.89 768.8 133.92 768.82 133.95 768.86 134.01 768.91 134.06 768.94 134.09 768.97 134.14 769 134.17 769.02 134.21 769.04 134.24 769.05 134.28 769.05 134.31 769.05 134.34 769.04 134.37 769.02 134.42 769 134.46 768.95 134.54 768.88 134.62 768.84 134.69 768.82 134.73 768.81 134.77 768.8 134.81 768.78 134.85 768.76 134.88 768.73 134.92 768.71 134.96 768.69 135 768.69 135.02 768.69 135.05 768.69 135.07 768.67 135.08 768.64 135.07 768.62 135.08 768.62 135.1 768.63 135.13 768.71 135.15 768.73 135.17 768.75 135.18 768.76 135.24 768.76 135.3 768.74 135.32 768.7 135.35 768.68 135.36 768.65 135.4 768.64 135.44 768.63 135.47 768.63 135.53 768.64 135.58 768.64 135.63 768.66 135.68 768.66 135.73 768.65 135.78 768.63 135.81 768.62 135.84 768.57 135.91 768.55 135.92 768.52 135.94 768.49 135.95 768.46 135.95 768.44 135.95 768.4 135.94 768.38 135.92 768.36 135.9 768.33 135.88 768.29 135.87 768.22 135.85 768.18 135.83 768.12 135.81 768.08 135.8 768.05 135.8 768.01 135.81 767.98 135.82 767.96 135.83 767.94 135.85 767.93 135.89 767.92 135.92 767.92 135.96 767.91 136.01 767.91 136.05 767.9 136.09 767.88 136.13 767.86 136.17 767.83 136.21 767.81 136.23 767.79 136.24 767.77 136.24 767.75 136.24 767.72 136.22 767.7 136.2 767.67 136.19 767.63 136.18 767.6 136.17 767.55 136.18 767.52 136.19 767.5 136.2 767.48 136.23 767.46 136.25 767.44 136.29 767.41 136.32 767.39 136.34 767.35 136.38 767.34 136.4 767.32 136.41 767.3 136.42 767.28 136.43 767.26 136.43 767.24 136.42 767.22 136.4 767.19 136.37 767.16 136.33 767.15 136.31 767.12 136.29 767.1 136.29 767.08 136.29 767.04 136.32 767 136.37 766.97 136.41 766.92 136.47 766.9 136.53 766.88 136.58 766.86 136.6 766.85 136.61 766.82 136.62 766.8 136.62 766.76 136.64 766.74 136.64 766.72 136.64 766.7 136.64 766.66 136.67 766.58 136.73 766.53 136.76 766.49 136.77 766.46 136.79 766.45 136.8 766.43 136.88 766.41 136.93 766.42 136.96 766.43 136.98 766.45 137 766.45 137.04 766.47 137.07 766.49 137.11 766.5 137.13 766.54 137.18 766.58 137.22 766.59 137.25 766.59 137.27 766.57 137.31 766.55 137.33 766.52 137.36 766.49 137.38 766.47 137.39 766.44 137.39 766.41 137.38 766.39 137.36 766.36 137.32 766.33 137.28 766.3 137.26 766.28 137.26 766.25 137.26 766.22 137.27 766.19 137.3 766.18 137.35 766.18 137.36 766.19 137.39 766.2 137.42 766.24 137.48 766.27 137.53 766.29 137.58 766.3 137.62 766.3 137.66 766.29 137.72 766.29 137.77 766.29 137.8 766.31 137.84 766.33 137.85 766.36 137.88 766.39 137.91 766.44 137.97 766.48 138.05 766.52 138.11 766.53 138.12 766.54 138.14 766.56 138.18 766.57 138.26 766.57 138.31 766.55 138.36 766.52 138.43 766.47 138.5 766.45 138.54 766.41 138.6 766.39 138.63 766.35 138.69 766.33 138.73 766.33 138.76 766.35 138.78 766.37 138.8 766.4 138.84 766.42 138.89 766.41 138.92 766.39 138.96 766.36 139 766.34 139.09 766.35 139.11 766.36 139.13 766.38 139.16 766.4 139.19 766.41 139.23 766.41 139.26 766.4 139.29 766.4 139.3 766.38 139.34 766.35 139.39 766.31 139.44 766.28 139.48 766.25 139.51 766.21 139.56 766.17 139.61 766.15 139.64 766.13 139.67 766.1 139.71 766.09 139.73 766.05 139.77 766.04 139.79 766.02 139.83 766.01 139.86 766.01 139.9 766.01 139.94 766 139.98 765.99 140 765.96 140.02 765.93 140.04 765.9 140.07 765.89 140.1 765.89 140.15 765.89 140.19 765.91 140.25 765.93 140.29 765.95 140.32 765.97 140.36 765.97 140.39 765.95 140.41 765.94 140.43 765.91 140.45 765.88 140.47 765.84 140.5 765.81 140.51 765.78 140.52 765.77 140.51 765.73 140.5 765.71 140.49 765.67 140.48 765.63 140.48 765.6 140.5 765.58 140.53 765.56 140.55 765.55 140.56 765.46 140.58 765.42 140.59 765.35 140.61 765.3 140.62 765.23 140.65 765.21 140.67 765.19 140.7 765.17 140.73 765.15 140.77 765.13 140.79 765.11 140.81 765.09 140.84 765 140.88 764.94 140.89 764.89 140.89 764.84 140.9 764.82 140.9 764.8 140.9 764.72 140.9 764.69 140.9 764.65 140.91 764.62 140.92 764.6 140.95 764.57 140.98 764.57 141.01 764.57 141.05 764.57 141.09 764.59 141.13 764.6 141.16 764.64 141.18 764.71 141.23 764.75 141.25 764.77 141.27 764.77 141.3 764.76 141.32 764.75 141.34 764.73 141.36 764.7 141.37 764.68 141.37 764.66 141.4 764.64 141.44 764.63 141.48 764.63 141.5 764.64 141.52 764.67 141.53 764.69 141.53 764.73 141.53 764.76 141.52 764.8 141.51 764.85 141.49 764.89 141.47 764.91 141.44 764.94 141.4 764.95 141.38 764.97 141.34 764.97 141.31 764.97 141.3 764.97 141.28 764.98 141.27 765 141.26 765.02 141.25 765.04 141.24 765.06 141.23 765.07 141.21 765.09 141.19 765.12 141.17 765.16 141.16 765.21 141.15 765.24 141.16 765.28 141.17 765.32 141.2 765.35 141.23 765.39 141.26 765.43 141.29 765.48 141.33 765.53 141.38 765.57 141.42 765.59 141.45 765.59 141.48 765.58 141.51 765.57 141.54 765.55 141.57 765.52 141.64 765.51 141.67 765.5 141.68 765.47 141.69 765.45 141.71 765.43 141.72 765.42 141.75 765.41 141.78 765.4 141.79 765.4 141.87 765.4 141.9 765.39 141.93 765.38 141.95 765.37 141.97 765.34 141.99 765.32 142 765.29 142.02 765.27 142.05 765.26 142.07 765.26 142.1 765.25 142.14 765.24 142.15 765.23 142.17 765.21 142.18 765.17 142.19 765.16 142.19 765.14 142.19 765.1 142.19 765.05 142.19 765.02 142.19 765 142.21 764.97 142.23 764.93 142.27 764.92 142.28 764.89 142.31 764.87 142.32 764.86 142.33 764.82 142.34 764.79 142.35 764.75 142.36 764.71 142.38 764.67 142.39 764.62 142.4 764.58 142.42 764.56 142.43 764.54 142.46 764.53 142.49 764.52 142.53 764.51 142.58 764.5 142.63 764.49 142.68 764.49 142.69 764.52 142.72 764.55 142.75 764.59 142.8 764.6 142.82 764.6 142.84 764.6 142.87 764.59 142.91 764.57 142.95 764.57 142.98 764.56 143 764.54 143.01 764.53 143.01 764.5 143.01 764.47 143 764.44 142.98 764.41 142.97 764.39 142.96 764.37 142.95 764.35 142.95 764.33 142.95 764.31 142.96 764.29 142.98 764.27 142.99 764.27 143.02 764.28 143.05 764.29 143.08 764.3 143.1 764.32 143.14 764.35 143.18 764.35 143.21 764.35 143.23 764.36 143.26 764.37 143.29 764.38 143.31 764.4 143.33 764.43 143.34 764.46 143.34 764.48 143.35 764.49 143.37 764.49 143.4 764.51 143.46 764.53 143.49 764.55 143.52 764.57 143.54 764.6 143.59 764.63 143.63 764.65 143.67 764.67 143.7 764.68 143.73 764.68 143.76 764.68 143.82 764.68 143.84 764.68 143.85 764.69 143.9 764.71 143.93 764.72 143.95 764.75 143.97 764.78 143.99 764.81 144.02 764.84 144.04 764.86 144.07 764.87 144.09 764.87 144.11 764.87 144.14 764.85 144.17 764.83 144.18 764.8 144.18 764.77 144.18 764.75 144.18 764.74 144.19 764.74 144.21 764.74 144.23 764.74 144.26 764.75 144.28 764.76 144.3 764.78 144.32 764.8 144.33 764.83 144.34 764.87 144.37 764.9 144.39 764.94 144.41 764.98 144.45 765 144.46 765.01 144.48 765.02 144.52 765.02 144.56 765.02 144.59 765.01 144.61 765.01 144.63 765.01 144.65 765.01 144.68 765.03 144.7 765.06 144.73 765.08 144.76 765.08 144.79 765.09 144.82 765.09 144.84 765.11 144.86 765.13 144.86 765.24 144.82 765.3 144.81 765.33 144.81 765.37 144.81 765.4 144.81 765.44 144.82 765.48 144.81 765.52 144.82 765.55 144.84 765.58 144.85 765.61 144.85 765.64 144.85 765.66 144.86 765.69 144.87 765.7 144.88 765.73 144.9 765.79 144.96 765.81 145 765.82 145.02 765.82 145.04 765.82 145.07 765.82 145.09 765.81 145.12 765.79 145.15 765.77 145.18 765.77 145.2 765.78 145.23 765.8 145.26 765.8 145.28 765.8 145.3 765.79 145.32 765.78 145.34 765.76 145.34 765.74 145.34 765.72 145.35 765.7 145.35 765.69 145.36 765.68 145.39 765.68 145.43 765.67 145.45 765.65 145.49 765.63 145.51 765.61 145.52 765.59 145.53 765.57 145.54 765.56 145.56 765.56 145.58 765.56 145.6 765.57 145.62 765.58 145.64 765.58 145.67 765.57 145.7 765.55 145.74 765.52 145.77 765.49 145.81 765.44 145.86 765.41 145.89 765.38 145.91 765.34 145.93 765.3 145.93 765.27 145.94 765.24 145.95 765.22 145.96 765.17 145.96 765.14 145.96 765.12 145.97 765.1 145.99 765.08 146.02 765.04 146.06 765.02 146.09 764.99 146.13 764.98 146.14 764.96 146.16 764.93 146.19 764.89 146.22 764.85 146.27 764.83 146.3 764.79 146.33 764.75 146.34 764.73 146.35 764.7 146.35 764.66 146.35 764.62 146.35 764.59 146.36 764.57 146.38 764.56 146.41 764.54 146.42 764.51 146.44 764.48 146.47 764.46 146.49 764.44 146.51 764.42 146.54 764.41 146.57 764.4 146.65 764.4 146.67 764.4 146.73 764.42 146.88 764.45 146.99 764.49 147.11 764.56 147.25 764.59 147.31 764.61 147.33 764.64 147.34 764.67 147.35 764.7 147.36 764.72 147.38 764.74 147.4 764.74 147.42 764.75 147.45 764.75 147.48 764.74 147.51 764.74 147.54 764.72 147.58 764.7 147.61 764.67 147.64 764.56 147.69 764.52 147.71 764.49 147.71 764.46 147.71 764.43 147.71 764.4 147.7 764.37 147.68 764.34 147.67 764.31 147.64 764.28 147.62 764.26 147.61 764.23 147.6 764.21 147.61 764.19 147.62 764.18 147.64 764.18 147.66 764.18 147.68 764.2 147.72 764.21 147.75 764.23 147.78 764.25 147.81 764.28 147.84 764.31 147.86 764.33 147.88 764.36 147.89 764.41 147.9 764.45 147.91 764.5 147.91 764.54 147.92 764.58 147.93 764.62 147.94 764.65 147.96 764.67 147.97 764.7 147.99 764.73 148.01 764.75 148.02 764.78 148.03 764.82 148.05 764.84 148.06 764.88 148.06 764.92 148.07 764.94 148.08 764.98 148.09 765.01 148.11 765.03 148.13 765.06 148.15 765.08 148.17 765.11 148.19 765.15 148.23 765.18 148.25 765.2 148.28 765.27 148.39 765.38 148.5 765.53 148.63 765.62 148.72 765.69 148.77 765.85 148.95 765.91 149 765.95 149.02 765.98 149.03 766.01 149.03 766.03 149.03 766.06 149.03 766.08 149.03 766.09 149.05 766.09 149.06 766.09 149.1 766.08 149.13 766.07 149.15 766.06 149.18 766.05 149.2 766.05 149.22 766.05 149.24 766.06 149.26 766.07 149.28 766.08 149.3 766.11 149.33 766.12 149.35 766.14 149.38 766.14 149.41 766.14 149.43 766.14 149.45 766.13 149.48 766.11 149.49 766.09 149.51 766.08 149.54 766.07 149.57 766.07 149.6 766.06 149.63 766.05 149.65 766.03 149.66 766 149.67 765.98 149.68 765.96 149.69 765.95 149.71 765.94 149.73 765.94 149.75 765.94 149.76 765.95 149.78 765.96 149.79 765.97 149.8 765.99 149.82 766.02 149.85 766.04 149.86 766.06 149.86 766.08 149.87 766.09 149.88 766.1 149.89 766.11 149.9 766.12 149.92 766.13 149.95 766.14 149.99 766.15 150.02 766.17 150.07 766.18 150.1 766.18 150.13 766.18 150.17 766.16 150.2 766.15 150.22 766.13 150.22 766.11 150.22 766.08 150.22 766.05 150.22 766.03 150.22 766.01 150.22 765.98 150.22 765.96 150.24 765.95 150.25 765.92 150.27 765.9 150.29 765.89 150.32 765.87 150.35 765.86 150.38 765.86 150.4 765.86 150.42 765.87 150.45 765.87 150.47 765.88 150.49 765.9 150.53 765.9 150.55 765.91 150.57 765.91 150.6 765.92 150.64 765.92 150.67 765.92 150.71 765.92 150.75 765.92 150.79 765.91 150.83 765.9 150.86 765.88 150.9 765.86 150.93 765.83 150.96 765.8 150.99 765.77 151.03 765.73 151.06 765.7 151.08 765.67 151.1 765.63 151.12 765.61 151.13 765.58 151.13 765.56 151.14 765.53 151.16 765.51 151.18 765.49 151.21 765.47 151.24 765.46 151.25 765.44 151.28 765.43 151.3 765.42 151.33 765.42 151.35 765.4 151.38 765.39 151.4 765.37 151.43 765.34 151.45 765.31 151.48 765.27 151.5 765.25 151.53 765.23 151.55 765.21 151.58 765.18 151.62 765.13 151.69 765.1 151.72 765.07 151.75 765.03 151.77 765.01 151.79 764.98 151.81 764.96 151.84 764.95 151.86 764.94 151.89 764.93 151.92 764.91 151.95 764.91 151.99 764.9 152.01 764.91 152.03 764.92 152.05 764.93 152.07 764.95 152.08 764.96 152.1 764.98 152.11 765 152.13 765.03 152.15 765.08 152.18 765.09 152.19 765.11 152.2 765.12 152.23 765.15 152.26 765.16 152.29 765.17 152.32 765.19 152.34 765.2 152.37 765.2 152.4 765.21 152.42 765.21 152.45 765.21 152.48 765.21 152.51 765.2 152.53 765.2 152.56 765.19 152.59 765.18 152.61 765.17 152.63 765.16 152.66 765.15 152.67 765.12 152.68 765.09 152.7 765.06 152.72 765.04 152.73 765 152.78 764.97 152.81 764.94 152.84 764.92 152.87 764.91 152.9 764.9 152.93 764.88 153.01 764.86 153.17 764.83 153.41 764.81 153.53 764.77 153.61 764.76 153.64 764.74 153.66 764.72 153.68 764.7 153.69 764.67 153.7 764.64 153.71 764.6 153.73 764.58 153.73 764.56 153.74 764.54 153.74 764.52 153.74 764.49 153.74 764.47 153.75 764.44 153.77 764.42 153.79 764.4 153.81 764.38 153.82 764.35 153.83 764.34 153.84 764.32 153.85 764.32 153.86 764.31 153.88 764.3 153.9 764.3 153.93 764.29 153.95 764.28 153.97 764.28 154 764.27 154.03 764.26 154.05 764.25 154.08 764.24 154.1 764.24 154.12 764.24 154.14 764.25 154.15 764.26 154.16 764.28 154.17 764.29 154.17 764.31 154.18 764.34 154.19 764.37 154.21 764.37 154.22 764.38 154.24 764.38 154.27 764.39 154.29 764.39 154.32 764.4 154.33 764.42 154.35 764.43 154.37 764.44 154.39 764.45 154.41 764.45 154.42 764.46 154.44 764.46 154.47 764.46 154.5 764.46 154.52 764.47 154.55 764.5 154.57 764.51 154.6 764.53 154.62 764.55 154.65 764.56 154.68 764.57 154.7 764.57 154.73 764.57 154.75 764.57 154.76 764.56 154.77 764.55 154.78 764.53 154.77 764.5 154.77 764.48 154.76 764.46 154.75 764.43 154.75 764.41 154.76 764.4 154.76 764.39 154.78 764.38 154.79 764.38 154.81 764.38 154.82 764.38 154.84 764.39 154.85 764.39 154.87 764.41 154.89 764.42 154.91 764.43 154.93 764.43 154.95 764.43 154.96 764.43 154.99 764.43 155 764.43 155.03 764.44 155.05 764.46 155.08 764.49 155.09 764.52 155.11 764.55 155.12 764.58 155.12 764.61 155.13 764.64 155.14 764.66 155.15 764.69 155.16 764.73 155.2 764.77 155.22 764.79 155.25 764.8 155.26 764.8 155.28 764.8 155.3 764.8 155.31 764.79 155.33 764.78 155.33 764.76 155.34 764.74 155.35 764.73 155.36 764.71 155.38 764.7 155.41 764.68 155.44 764.66 155.48 764.63 155.52 764.61 155.55 764.58 155.59 764.57 155.62 764.56 155.65 764.56 155.67 764.55 155.72 764.55 155.74 764.55 155.76 764.56 155.77 764.58 155.8 764.6 155.81 764.61 155.82 764.62 155.84 764.62 155.86 764.61 155.89 764.6 155.92 764.59 155.94 764.58 155.97 764.57 156.01 764.56 156.04 764.55 156.07 764.52 156.1 764.51 156.14 764.5 156.16 764.49 156.18 764.48 156.2 764.47 156.22 764.45 156.24 764.44 156.26 764.44 156.28 764.44 156.32 764.44 156.34 764.44 156.37 764.43 156.39 764.43 156.4 764.41 156.43 764.4 156.44 764.39 156.46 764.39 156.48 764.38 156.5 764.39 156.52 764.4 156.54 764.4 156.56 764.41 156.58 764.41 156.6 764.41 156.63 764.41 156.66 764.41 156.69 764.41 156.71 764.4 156.74 764.39 156.77 764.38 156.81 764.37 156.84 764.36 156.87 764.35 156.9 764.33 156.92 764.31 156.93 764.3 156.95 764.27 156.97 764.23 157 764.2 157.01 764.18 157.02 764.15 157.03 764.12 157.05 764.1 157.06 764.09 157.08 764.08 157.1 764.09 157.12 764.1 157.13 764.12 157.14 764.13 157.17 764.15 157.19 764.17 157.21 764.2 157.24 764.21 157.26 764.22 157.29 764.23 157.31 764.23 157.34 764.22 157.36 764.22 157.38 764.2 157.41 764.19 157.44 764.18 157.46 764.17 157.48 764.15 157.51 764.13 157.53 764.09 157.56 764.06 157.58 764.03 157.59 764 157.61 763.98 157.62 763.97 157.64 763.96 157.66 763.96 157.67 763.96 157.7 763.96 157.73 763.97 157.76 763.97 157.8 763.98 157.83 763.99 157.86 763.98 157.88 763.98 157.91 763.96 157.92 763.94 157.94 763.87 158.01 763.85 158.04 763.75 158.09 763.68 158.13 763.65 158.15 763.64 158.17 763.63 158.19 763.62 158.21 763.62 158.23 763.62 158.25 763.63 158.26 763.64 158.28 763.65 158.3 763.68 158.34 763.7 158.37 763.71 158.38 763.71 158.4 763.7 158.42 763.69 158.43 763.67 158.44 763.62 158.47 763.54 158.53 763.52 158.54 763.47 158.57 763.43 158.59 763.41 158.6 763.39 158.61 763.37 158.63 763.36 158.64 763.34 158.66 763.33 158.67 763.31 158.69 763.3 158.71 763.29 158.73 763.27 158.74 763.25 158.75 763.23 158.77 763.21 158.77 763.17 158.78 763.15 158.78 763.12 158.79 763.1 158.8 763.07 158.8 763.05 158.82 763.04 158.83 763.03 158.85 763.02 158.87 763.01 158.89 763 158.91 762.99 158.93 762.99 158.95 762.98 158.96 762.97 158.97 762.94 158.99 762.92 158.99 762.88 159.01 762.86 159.02 762.84 159.04 762.82 159.05 762.8 159.07 762.78 159.09 762.77 159.11 762.77 159.13 762.76 159.15 762.76 159.17 762.76 159.21 762.76 159.24 762.77 159.26 762.76 159.28 762.75 159.28 762.74 159.28 762.71 159.29 762.61 159.29 762.58 159.29 762.56 159.3 762.54 159.32 762.52 159.33 762.51 159.35 762.49 159.36 762.47 159.38 762.47 159.41 762.45 159.45 762.43 159.5 762.41 159.52 762.38 159.57 762.34 159.62 762.31 159.66 762.3 159.68 762.27 159.7 762.26 159.72 762.24 159.74 762.24 159.76 762.24 159.78 762.24 159.8 762.25 159.83 762.25 159.85 762.25 159.88 762.24 159.9 762.24 159.92 762.24 159.94 762.24 159.95 762.25 159.96 762.26 159.98 762.27 159.99 762.29 160 762.32 160.02 762.33 160.03 762.35 160.05 762.36 160.06 762.37 160.08 762.38 160.09 762.39 160.11 762.4 160.14 762.41 160.16 762.41 160.17 762.42 160.18 762.43 160.2 762.44 160.22 762.45 160.23 762.46 160.24 762.48 160.25 762.49 160.26 762.5 160.27 762.51 160.29 762.52 160.3 762.53 160.33 762.54 160.35 762.55 160.37 762.57 160.39 762.58 160.41 762.59 160.42 762.6 160.43 762.6 160.45 762.61 160.47 762.61 160.49 762.62 160.51 762.62 160.68 762.63 160.7 762.64 160.72 762.65 160.74 762.66 160.76 762.71 160.82 762.75 160.87 762.77 160.89 762.78 160.91 762.78 160.93 762.79 160.95 762.78 160.97 762.78 160.99 762.77 161.01 762.76 161.03 762.76 161.04 762.77 161.06 762.78 161.07 762.79 161.09 762.8 161.11 762.8 161.14 762.81 161.16 762.82 161.18 762.83 161.21 762.83 161.23 762.84 161.26 762.84 161.28 762.84 161.31 762.84 161.34 762.83 161.37 762.83 161.4 762.82 161.43 762.81 161.47 762.8 161.5 762.8 161.52 762.79 161.55 762.79 161.57 762.78 161.59 762.77 161.61 762.77 161.63 762.77 161.65 762.77 161.68 762.77 161.7 762.77 161.72 762.78 161.74 762.78 161.76 762.79 161.78 762.79 161.82 762.79 161.89 762.78 161.99 762.78 162.02 762.78 162.06 762.79 162.1 762.79 162.13 762.79 162.18 762.79 162.21 762.79 162.24 762.78 162.28 762.78 162.31 762.77 162.35 762.74 162.42 762.72 162.46 762.7 162.5 762.68 162.53 762.66 162.54 762.62 162.55 762.62 162.59 762.61 162.65 762.6 162.72 762.59 162.79 762.59 162.9 762.6 163.08 762.6 163.1 762.6 163.2 762.61 163.27 762.61 163.33 762.61 163.39 762.62 163.56 762.62 163.68 762.63 163.83 762.63 163.91 762.63 163.97 762.63 164.02 762.63 164.07 762.64 164.13 762.66 164.17 762.67 164.21 762.69 164.24 762.7 164.29 762.71 164.33 762.71 164.38 762.71 164.42 762.7 164.47 762.69 164.52 762.68 164.58 762.67 164.62 762.67 164.67 762.66 164.72 762.65 164.76 762.65 164.8 762.61 164.89 762.58 164.98 762.56 165.04 762.54 165.11 762.53 165.16 762.52 165.19 762.52 165.22 762.52 165.27 762.54 165.32 762.44 165.51 762.37 165.55 761.83 165.39 761.31 165.21 760.78 165.02 759.94 164.79 759.18 164.5 758.06 164.17 757.88 163.89 757.85 163.87 757.83 163.85 757.8 163.8 757.77 163.74 757.74 163.67 757.72 163.57 757.7 163.52 757.7 163.47 757.67 163.41 757.64 163.36 757.33 163.16 757.07 162.92 756.93 162.84 756.9 162.83 756.88 162.83 756.4 162.44 755.19 161.43 754.56 160.9 754.59 160.86 754.61 160.82 754.63 160.8 754.64 160.8 754.65 160.8 754.68 160.8 754.72 160.79 754.75 160.78 754.8 160.77 754.84 160.74 754.89 160.71 754.95 160.67 755.01 160.62 755.11 160.57 755.18 160.53 755.2 160.52 755.23 160.51 755.3 160.5 755.31 160.49 755.34 160.49 755.36 160.49 755.32 160.45 755.35 160.45 755.39 160.45 755.43 160.44 755.47 160.44 755.5 160.42 755.53 160.41 755.56 160.4 755.58 160.38 755.61 160.36 755.64 160.34 755.66 160.32 755.68 160.3 755.71 160.29 755.74 160.28 755.77 160.26 755.79 160.25 755.81 160.23 755.84 160.21 755.86 160.19 755.87 160.17 755.89 160.16 755.9 160.15 755.91 160.14 755.93 160.13 756.06 160.1 756.07 160.1 756.08 160.11 756.08 160.12 756.1 160.12 756.13 160.12 756.16 160.12 756.18 160.11 756.21 160.1 756.23 160.1 756.27 160.1 756.3 160.1 756.35 160.1 756.39 160.1 756.43 160.1 756.45 160.1 756.49 160.1 756.52 160.1 756.55 160.09 756.58 160.09 756.61 160.08 756.63 160.08 756.67 160.08 756.7 160.08 756.73 160.08 756.77 160.08 756.81 160.08 756.86 160.09 756.9 160.09 756.94 160.09 756.98 160.09 757.01 160.09 757.04 160.09 757.06 160.09 757.09 160.08 757.11 160.09 757.13 160.1 757.18 160.12 757.18 160.09 757.17 160.06 757.18 160.04 757.19 160.03 757.2 160.02 757.22 160.01 757.24 160 757.28 159.98 757.3 159.97 757.31 159.96 757.34 159.94 757.38 159.92 757.36 159.89 757.33 159.83 757.27 159.75 757.25 159.72 757.24 159.69 757.23 159.66 757.22 159.64 757.22 159.59 757.22 159.55 757.22 159.5 757.21 159.46 757.19 159.41 757.19 159.37 757.18 159.34 757.16 159.32 757.14 159.3 757.12 159.29 757.1 159.28 757.07 159.27 757.04 159.26 756.95 159.21 756.91 159.19 756.88 159.16 756.84 159.14 756.81 159.1 756.78 159.07 756.75 159.05 756.73 159.01 756.71 158.98 756.69 158.95 756.67 158.91 756.65 158.88 756.6 158.76 756.57 158.71 756.54 158.65 756.49 158.55 756.47 158.5 756.46 158.47 756.43 158.41 756.4 158.37 756.38 158.34 756.34 158.31 756.32 158.28 756.28 158.23 756.27 158.2 756.24 158.16 756.23 158.13 756.22 158.1 756.16 157.99 756.11 157.85 756.01 157.53 755.98 157.42 755.97 157.39 755.95 157.36 755.94 157.34 755.87 157.27 755.8 157.2 755.72 157.13 755.72 157.12 755.62 157.01 755.5 156.89 755.46 156.82 755.43 156.79 755.42 156.76 755.4 156.73 755.39 156.7 755.38 156.67 755.38 156.64 755.37 156.61 755.36 156.59 755.36 156.56 755.36 156.53 755.37 156.51 755.37 156.5 755.37 156.44 755.39 156.36 755.44 156.11 755.44 156.03 755.15 155.97 754.99 155.81 755.03 155.66 755.07 155.48 754.84 155.39 754.38 155.03 753.93 154.67 753.48 154.3 753.32 154.3 752.36 154.34 751.39 154.39 750.42 154.44 749.46 154.48 748.49 154.53 747.52 154.58 746.56 154.62 745.59 154.67 745.13 154.65 744.99 154.59 744.86 154.56 744.73 154.41 744.62 154.12 744.55 153.54 744.43 152.91 744.32 152.22 744.21 151.53 744.11 150.79 743.98 150.52 743.71 149.94 743.44 149.37 743.17 148.79 743.1 148.62 743.69 148.43 744.28 148.24 744.81 148.09 745.39 147.95 745.98 147.81 746.91 147.57 747.81 147.34 748.71 147.11 748.39 146.26 748.17 145.49 747.94 144.73 747.76 144.15 747.75 144.1 747.72 144.01 747.69 143.93 747.68 143.91 747.67 143.87 747.64 143.76 747.63 143.7 747.63 143.65 747.63 143.62 747.64 143.58 747.65 143.53 747.67 143.44 747.7 143.33 747.72 143.24 747.74 143.14 747.75 143.07 747.77 143 747.77 142.97 747.76 142.93 747.74 142.89 747.72 142.82 747.7 142.74 747.95 141.62 747.96 141.47 747.96 141.44 747.97 141.41 747.97 141.36 747.99 141.18 748.13 140.5 748.29 139.88 748.33 139.6 749.37 138.8 749.98 138.39 750.59 137.98 750.37 137.26 750.38 137.23 750.37 137.22 750.37 137.2 750.25 136.48 750.31 136.38 750.35 136.33 750.38 136.28 750.4 136.26 750.42 136.22 750.44 136.2 750.47 136.16 750.5 136.12 750.54 136.08 750.58 136.04 750.62 136 750.65 135.96 750.68 135.92 750.7 135.88 750.72 135.85 750.74 135.81 750.77 135.77 750.78 135.73 750.8 135.69 750.82 135.65 750.83 135.62 750.84 135.57 750.84 135.53 750.85 135.49 750.86 135.45 750.88 135.41 750.9 135.38 750.93 135.36 750.96 135.33 751.01 135.3 751.04 135.28 751.12 135.21 751.1 135.18 751.08 135.13 751.07 135.09 751.07 135.05 751.03 134.87 751.02 134.83 751.01 134.79 751.02 134.75 751.04 134.71 751.05 134.68 751.06 134.66 751.07 134.63 751.09 134.61 751.11 134.6 751.14 134.57 751.15 134.54 751.17 134.51 751.18 134.49 751.2 134.45 751.22 134.42 751.24 134.38 751.24 134.34 751.24 134.31 751.25 134.27 751.25 134.22 751.34 134.1 751.37 134.06 751.51 133.93 751.54 133.9 751.61 133.81 751.69 133.74 751.71 133.72 751.72 133.75 751.73 133.77 751.74 133.79 751.75 133.81 751.76 133.84 751.77 133.86 751.79 133.88 751.82 133.9 751.85 133.9 751.89 133.91 751.92 133.93 751.95 133.96 751.98 133.98 752 134.01 752.02 134.04 752.04 134.05 752.06 134.06 752.08 134.06 752.12 134.05 752.14 134.04 752.17 134.03 752.2 134.04 752.25 134.07 752.32 134.12 752.41 134.18 752.46 134.21 752.49 134.22 752.53 134.22 752.55 134.22 752.57 134.23 753.16 134.27 754.2 133.92 755.01 133.86 755.02 133.83 755.03 133.78 755.36 133.05 755.73 132.29 755.8 132.26 755.84 132.2 755.88 132.14 755.91 132.09 755.96 132.05 756.03 132 756.09 131.93 756.14 131.88 756.21 131.82 756.28 131.74 756.32 131.53 756.71 131.29 757.12 131.07 757.61 130.73 757.86 130.52 758.02 130.39 758.19 130.38 758.22 130.31 758.24 130.26 758.24 130.23 758.22 130.2 758.2 130.18 758.17 130.12 758.16 130.08 758.15 130.04 758.14 129.99 758.14 129.95 758.14 129.91 758.13 129.88 758.12 129.84 758.15 129.8 758.16 129.78 758.18 129.76 758.19 129.73 758.2 129.7 758.21 129.67 758.24 129.63 758.26 129.59 758.3 129.56 758.36 129.47 758.4 129.41 758.42 129.39 758.44 129.37 758.47 129.36 758.49 129.35 758.51 129.35 758.53 129.35 758.55 129.36 758.58 129.36 758.6 129.36 758.63 129.37 758.65 129.37 758.67 129.37 758.69 129.36 758.7 129.35 758.71 129.32 758.72 129.29 758.74 129.26 758.75 129.22 758.78 129.21 758.8 129.19 758.82 129.17 758.83 129.15 758.85 129.14 758.87 129.12 758.88 129.09 758.88 129.04 758.89 129.01 758.89 128.99 758.9 128.96 758.91 128.94 758.92 128.93 758.95 128.91 758.97 128.88 758.99 128.85 759.02 128.83 759.04 128.8 759.05 128.78 759.07 128.76 759.09 128.73 759.11 128.72 759.15 128.69 759.18 128.66 759.2 128.62 759.22 128.58 759.24 128.56 759.3 128.51 759.36 128.45 759.39 128.41 759.43 128.39 759.52 128.34 759.57 128.31 759.63 128.27 759.68 128.21 759.73 128.16 759.79 128.09 759.8 128.06 759.81 128.02 759.82 127.99 759.83 127.97 759.83 127.95 759.84 127.94 759.85 127.92 759.9 127.84 759.93 127.81 759.95 127.78 760.01 127.74 760.07 127.69 760.11 127.66 760.13 127.64 760.17 127.6 760.19 127.57 760.21 127.54 760.22 127.5 760.23 127.46 760.24 127.43 760.25 127.41 760.26 127.38 760.29 127.36 760.31 127.34 760.36 127.31 760.37 127.29 760.39 127.28 760.41 127.27 760.44 127.28 760.46 127.29 760.48 127.29 760.5 127.27 760.55 127.24 760.55 127.22 760.55 127.13 760.55 127.09 760.54 127.06 760.53 127.02 760.51 126.99 760.5 126.96 760.5 126.93 760.5 126.9 760.52 126.86 760.54 126.83 760.55 126.8 760.57 126.76 760.58 126.69 760.58 126.66 760.58 126.63 760.58 126.59 760.58 126.57 760.58 126.54 760.57 126.52 760.56 126.48 760.55 126.4 760.54 126.37 760.54 126.34 760.53 126.33 760.51 126.3 760.51 126.27 760.53 126.23 760.55 126.2 760.57 126.18 760.58 126.14 760.63 126.04 760.67 125.95 760.72 125.85 760.77 125.79 760.78 125.76 760.78 125.73 760.78 125.69 760.78 125.66 760.78 125.64 760.81 125.63 760.85 125.59 760.87 125.56 760.89 125.52 760.92 125.41 760.94 125.34 760.95 125.31 760.96 125.28 760.96 125.26 760.95 125.24 760.93 125.23 760.9 125.21 760.89 125.2 760.89 125.16 760.89 125.14 760.9 125.12 760.91 125.06 760.92 125.02 761.04 124.88 761.14 124.78 761.16 124.76 761.18 124.77 761.2 124.78 761.22 124.79 761.24 124.8 761.27 124.8 761.32 124.77 761.4 124.69 761.45 124.6 761.49 124.51 761.62 124.35 761.64 124.34 761.69 124.32 761.74 124.29 761.81 124.25 761.88 124.21 761.93 124.18 761.97 124.16 762.01 124.15 762.11 124.14 762.21 124.13 762.24 124.13 762.29 124.14 762.33 124.15 762.38 124.16 762.41 124.16 762.44 124.14 762.51 124.11 762.58 124.06 762.61 124.04 762.64 124.02 762.68 124.01 762.71 124.01 762.75 124.02 762.79 124.03 762.82 124.04 762.83 124.06 762.85 124.07 762.88 124.06 762.92 124.05 762.96 124.03 762.99 124.02 763.03 124.01 763.05 124.01 763.07 124.01 763.09 124.01 763.12 124.02 763.16 124.04 763.2 124.06 763.23 124.09 763.26 124.1 763.28 124.1 763.31 124.1 763.34 124.08 763.36 124.07 763.37 124.05 763.4 124.03 763.41 123.99 763.41 123.96 763.42 123.92 763.42 123.9 763.45 123.88 763.49 123.86 763.58 123.82 763.64 123.78 763.68 123.75 763.72 123.72 763.8 123.69 763.87 123.65 763.9 123.64 763.93 123.62 763.95 123.6 763.95 123.58 763.95 123.55 763.93 123.53 763.91 123.51 763.9 123.48 763.88 123.46 763.87 123.43 763.86 123.39 763.87 123.37 763.86 123.34 763.87 123.32 763.87 123.3 763.88 123.27 763.88 123.22 763.88 123.18 763.88 123.14 763.87 123.08 763.86 123.01 763.86 122.94 763.85 122.9 763.85 122.87 763.85 122.84 763.86 122.81 763.87 122.78 763.93 122.72 763.99 122.64 764.03 122.59 764.12 122.5 764.18 122.46 764.23 122.42 764.27 122.39 764.23 122.25 764.1 122.32 763.98 122.39 763.96 122.4 763.94 122.41 763.89 122.42 763.85 122.41 763.78 122.39 763.71 122.36 763.66 122.35 763.62 122.34 763.57 122.35 763.55 122.37 763.52 122.38 763.5 122.38 763.49 122.37 763.46 122.36 763.43 122.35 763.4 122.34 763.37 122.34 763.34 122.34 763.29 122.35 763.21 122.35 763.13 122.34 763.08 122.32 763.03 122.3 763 122.28 762.97 122.26 762.93 122.19 762.89 122.13 762.84 122.1 762.81 122.08 762.76 122.06 762.71 122.05 762.67 122.05 762.63 122.05 762.59 122.05 762.57 122.03 762.55 121.99 762.53 121.95 762.51 121.92 762.49 121.91 762.47 121.91 762.45 121.91 762.42 121.9 762.39 121.88 762.34 121.86 762.32 121.86 762.29 121.88 762.27 121.88 762.22 121.86 762.19 121.83 762.18 121.81 762.16 121.75 762.13 121.69 762.09 121.6 762.07 121.54 762.05 121.49 762.03 121.45 761.99 121.38 761.96 121.34 761.94 121.28 761.92 121.24 761.89 121.19 761.86 121.13 761.84 121.08 761.82 121.04 761.78 120.99 761.68 120.87 761.62 120.81 761.57 120.76 761.54 120.74 761.5 120.71 761.45 120.66 761.34 120.56 761.2 120.44 761.08 120.33 760.97 120.26 760.89 120.23 760.8 120.2 760.68 120.16 760.5 119.93 760.49 119.81 760.75 119.41 760.89 119.33 761.07 119.31 761.07 119.28 761.08 119.26 761.1 119.23 761.11 119.22 761.17 119.16 761.25 119.08 761.33 119 761.39 118.94 761.48 118.86 761.53 118.82 761.56 118.8 761.59 118.8 761.64 118.79 761.79 118.61 761.91 118.53 762.01 118.41 762.18 118.23 762.35 118 762.45 117.86 762.51 117.76 762.57 117.66 762.63 117.53 762.66 117.46 762.68 117.38 762.7 117.3 762.7 117.2 762.7 117.1 762.68 117.03 762.66 116.95 762.61 116.9 762.58 116.85 762.57 116.8 762.56 116.73 762.57 116.56 762.58 116.3 762.58 116.14 762.58 116.08 762.57 116.04 762.56 116 762.56 115.96 762.56 115.93 762.57 115.87 762.58 115.83 762.6 115.8 762.62 115.75 762.76 115.41 762.74 115.32 762.53 115.09 762.55 115.04 762.56 115.03 762.59 114.99 762.64 114.94 762.73 114.85 762.79 114.8 762.84 114.78 762.92 114.74 762.99 114.72 763.09 114.67 763.16 114.63 763.21 114.61 763.31 114.59 763.35 114.57 763.37 114.56 Z"/>
</g></svg>