<svg xmlns="http://www.w3.org/2000/svg" version="1.2" baseProfile="tiny" stroke-linecap="round" stroke-linejoin="round" viewBox="154.05 123.77 13.28 11.87"><g xmlns="http://www.w3.org/2000/svg" id="Basauri">
<path d="M 156.19 123.97 156.21 124.08 156.22 124.1 156.24 124.13 156.26 124.16 156.29 124.18 156.33 124.2 156.55 124.32 156.73 124.45 156.77 124.48 156.82 124.5 156.85 124.52 156.89 124.54 156.91 124.56 156.93 124.58 156.95 124.6 156.97 124.62 157 124.68 157.01 124.72 157.03 124.76 157.03 124.78 157.03 124.81 157.03 124.84 157.03 124.87 157.33 124.91 157.33 125.04 157.38 125.25 157.41 125.35 157.44 125.42 157.45 125.43 157.46 125.46 157.51 125.53 157.55 125.59 157.59 125.63 157.63 125.67 157.68 125.72 157.7 125.73 157.75 125.77 157.82 125.81 157.87 125.84 157.92 125.87 157.97 125.9 158.05 125.94 158.23 125.99 158.24 125.99 158.32 126 158.37 126.01 158.52 126.04 158.61 126.06 158.7 126.07 158.78 126.09 158.86 126.09 158.93 126.1 159.01 126.1 159.04 126.09 159.21 126.02 159.31 125.96 159.41 125.88 159.45 125.83 159.59 125.66 159.74 125.47 159.91 125.26 160.05 125.07 160.09 125.01 160.17 124.93 160.26 124.83 160.29 124.78 160.32 124.76 160.44 124.66 160.54 124.61 161 124.43 161.34 124.17 161.6 124.06 161.81 124.01 161.92 123.99 162.14 123.98 162.3 124 162.59 124.03 162.77 124.07 163.51 124.39 164.1 124.83 164.35 124.96 164.48 125.08 164.55 125.17 164.6 125.28 164.62 125.39 164.62 125.41 164.59 125.94 164.59 125.99 164.61 126.09 164.66 126.15 164.7 126.19 164.82 126.32 164.83 126.32 165.05 126.42 165.4 126.56 165.56 126.66 165.65 126.73 165.71 126.78 165.74 126.8 165.9 127.01 165.96 127.11 165.99 127.21 166.04 127.56 166.08 127.74 166.18 128.05 166.44 128.43 166.7 128.81 166.91 129.11 166.96 129.18 167.04 129.26 167.17 129.37 167.32 129.49 167.32 129.54 167.22 129.66 167.02 129.8 166.96 130.02 166.52 130.25 166.39 130.31 166.01 130.69 165.53 131.69 164.87 132.26 164.67 132.38 164.58 132.43 164.6 132.47 164.76 132.79 164.8 132.84 164.82 132.9 164.84 132.93 164.85 132.98 164.86 133.02 164.86 133.08 164.85 133.13 164.84 133.18 164.84 133.22 164.82 133.27 164.8 133.32 164.78 133.37 164.71 133.5 164.64 133.61 164.41 133.99 164.29 134.17 164.17 134.3 163.87 134.51 163.6 134.67 163.44 134.77 163.14 134.96 162.97 135.04 162.89 135.07 162.86 135.08 162.61 135.18 162.4 135.26 162.29 135.3 162.21 135.33 162.05 135.37 161.96 135.39 161.34 135.04 161.32 135.03 161.3 135.04 161.28 135.06 161.23 135.07 161.17 135.09 161.1 135.11 161.03 135.13 160.95 135.17 160.64 135.28 160.56 135.32 160.52 135.39 160.12 135.45 160.01 135.48 159.56 135.6 159.22 135.54 159.06 135.51 158.33 135.31 158.01 134.7 158.07 134.53 158.04 134.06 158.11 133.96 158.28 133.7 158.46 133.65 158.68 133.58 158.81 133.53 158.93 133.46 159 133.32 159.05 133.24 159.11 133.15 159.11 133.14 159.05 132.99 158.97 132.77 158.98 132.34 158.91 132.1 158.54 131.79 158.22 130.92 158.05 130.49 157.82 130.26 157.63 130.05 157.32 129.6 157.63 128.88 156.96 128 156.77 127.74 156.57 127.41 155.92 126.44 155.86 126.42 155.62 126.37 155.44 126.32 154.39 125.98 154.1 123.91 154.08 123.79 154.15 123.79 154.21 123.79 154.25 123.79 154.31 123.78 154.38 123.79 154.45 123.8 154.52 123.8 154.56 123.81 154.62 123.81 154.68 123.83 154.91 123.88 154.98 123.89 155.1 123.92 155.23 123.95 155.32 123.97 155.4 123.99 155.48 124 155.57 124 155.6 124 155.79 124.01 155.9 124.02 155.99 124.03 156.05 124.03 156.07 124.03 156.12 124 156.15 123.98 156.18 123.97 156.19 123.97 Z"/>
</g></svg>