<svg xmlns="http://www.w3.org/2000/svg" version="1.2" baseProfile="tiny" stroke-linecap="round" stroke-linejoin="round" viewBox="169.7 43.25 474.08 350.1"><g xmlns="http://www.w3.org/2000/svg" id="Bastida">
<path d="M 627.12 43.85 627.15 43.84 627.18 43.83 627.2 43.82 627.22 43.82 627.24 43.82 627.28 43.82 627.32 43.82 627.37 43.8 627.41 43.79 627.46 43.77 627.48 43.77 627.51 43.77 627.57 43.77 627.68 43.78 627.71 43.78 627.76 43.78 627.8 43.78 627.81 43.79 627.85 43.8 627.9 43.82 627.92 43.84 627.93 43.84 627.96 43.93 627.98 43.95 627.99 44 628 44.01 628.03 44.01 628.06 44.02 628.08 44.02 628.12 44.03 628.16 44.04 628.18 44.05 628.26 44.06 628.29 44.07 628.35 44.1 628.42 44.06 628.47 43.96 628.48 43.95 628.49 43.95 628.5 43.94 628.51 43.94 628.53 43.95 628.58 43.97 628.63 44 628.66 44 628.69 44.01 628.72 44.02 628.75 44.02 628.79 44.01 628.84 43.99 628.88 43.97 628.91 43.96 628.94 43.95 628.98 43.95 629.03 43.97 629.09 44.01 629.17 44.03 629.21 44.05 629.25 44.05 629.3 44.05 629.35 44.04 629.42 44.02 629.46 44.02 629.54 43.99 629.58 43.98 629.62 43.99 629.71 44.01 629.83 44.04 629.87 44.07 629.9 44.09 629.93 44.11 629.94 44.14 629.95 44.2 629.97 44.23 630.02 44.23 630.1 44.22 630.17 44.23 630.2 44.23 630.23 44.22 630.26 44.25 630.28 44.28 630.32 44.32 630.33 44.34 630.35 44.35 630.43 44.36 630.48 44.37 630.39 44.1 630.48 44.08 630.59 44.07 630.75 44.02 630.95 43.97 631.12 43.93 631.17 43.93 631.15 43.88 631.16 43.85 631.18 43.82 631.35 43.5 631.41 43.47 631.48 43.43 631.54 43.4 631.65 43.36 631.7 43.34 631.73 43.34 631.74 43.34 631.79 43.34 631.87 43.36 631.95 43.36 632.07 43.38 632.2 43.39 632.27 43.4 632.39 43.43 632.44 43.43 632.47 43.43 632.56 43.45 632.69 43.49 632.81 43.55 633 43.51 633.11 43.54 633.18 43.56 633.23 43.53 633.34 43.48 633.37 43.46 633.38 43.46 633.45 43.47 633.55 43.47 633.63 43.46 633.66 43.45 633.68 43.44 633.71 43.44 633.75 43.45 633.81 43.45 633.86 43.43 633.93 43.4 633.98 43.36 634 43.35 634.02 43.34 634.03 43.33 634.05 43.32 634.07 43.31 634.09 43.3 634.11 43.3 634.13 43.3 634.16 43.3 634.18 43.29 634.21 43.29 634.24 43.29 634.26 43.29 634.28 43.28 634.31 43.27 634.33 43.26 634.36 43.27 634.38 43.28 634.4 43.29 634.4 43.31 634.42 43.32 634.44 43.33 634.47 43.34 634.5 43.34 634.52 43.34 634.55 43.34 634.58 43.34 634.6 43.34 634.63 43.35 634.65 43.36 634.67 43.36 634.68 43.36 634.71 43.36 634.73 43.38 634.75 43.39 634.78 43.39 634.81 43.39 634.84 43.39 634.86 43.39 634.89 43.4 634.91 43.4 634.92 43.42 634.93 43.44 634.96 43.44 634.98 43.45 635 43.45 635.02 43.44 635.04 43.44 635.07 43.45 635.09 43.46 635.11 43.47 635.13 43.48 635.15 43.49 635.18 43.5 635.2 43.51 635.22 43.52 635.24 43.52 635.27 43.53 635.29 43.53 635.31 43.55 635.33 43.56 635.35 43.57 635.38 43.58 635.4 43.59 635.43 43.61 635.44 43.63 635.46 43.64 635.48 43.66 635.5 43.67 635.52 43.67 635.55 43.68 635.57 43.69 635.6 43.69 635.62 43.7 635.63 43.71 635.64 43.71 635.67 43.72 635.69 43.73 635.71 43.75 635.72 43.77 635.74 43.78 635.75 43.8 635.77 43.81 635.79 43.82 635.81 43.84 635.82 43.86 635.84 43.88 635.85 43.9 635.86 43.92 635.88 43.94 635.9 43.95 635.9 43.96 635.91 43.97 635.92 43.99 635.93 44.01 635.95 44.02 635.97 44.03 635.99 44.04 636.01 44.05 636.02 44.06 636.04 44.07 636.04 44.08 636.05 44.11 636.08 44.25 636.09 44.27 636.1 44.28 636.11 44.28 636.13 44.29 636.15 44.29 636.18 44.3 636.19 44.3 636.21 44.31 636.23 44.32 636.25 44.33 636.27 44.34 636.29 44.36 636.31 44.38 636.32 44.39 636.34 44.41 636.35 44.43 636.36 44.45 636.37 44.47 636.38 44.5 636.39 44.5 636.43 44.5 636.45 44.49 636.47 44.49 636.49 44.48 636.51 44.47 636.52 44.46 636.54 44.44 636.55 44.42 636.56 44.41 636.57 44.41 636.58 44.4 636.59 44.39 636.6 44.39 636.62 44.37 636.64 44.35 636.65 44.34 636.68 44.34 636.71 44.35 636.74 44.33 636.71 44.3 636.74 44.25 636.78 44.22 636.82 44.22 636.84 44.23 636.86 44.24 636.88 44.26 636.88 44.27 636.88 44.31 636.86 44.35 636.85 44.37 636.85 44.37 636.83 44.42 636.81 44.44 636.8 44.45 636.8 44.48 636.79 44.49 636.78 44.5 636.78 44.52 636.8 44.54 636.8 44.56 636.79 44.58 636.8 44.61 636.8 44.63 636.81 44.66 636.82 44.69 636.81 44.7 636.79 44.72 636.78 44.73 636.75 44.73 636.73 44.73 636.71 44.73 636.7 44.74 636.69 44.75 636.68 44.77 636.68 44.79 636.67 44.81 636.67 44.83 636.68 44.85 636.69 44.86 636.7 44.89 636.71 44.91 636.73 44.91 636.74 44.91 636.76 44.92 636.76 44.94 636.77 44.96 636.78 44.98 636.78 45 636.78 45.02 636.8 45.04 636.8 45.06 636.81 45.08 636.83 45.1 636.85 45.1 636.86 45.12 636.88 45.13 636.88 45.14 636.9 45.17 636.9 45.19 636.9 45.21 636.89 45.31 636.89 45.36 636.94 45.4 636.95 45.41 636.96 45.44 636.97 45.51 636.98 45.51 637 45.52 637.01 45.53 637.03 45.53 637.05 45.54 637.07 45.55 637.09 45.55 637.11 45.55 637.14 45.55 637.16 45.55 637.18 45.56 637.2 45.57 637.23 45.58 637.24 45.6 637.25 45.61 637.26 45.63 637.27 45.65 637.28 45.67 637.29 45.69 637.31 45.69 637.32 45.69 637.34 45.71 637.34 45.72 637.36 45.73 637.37 45.74 637.37 45.75 637.37 45.77 637.36 45.78 637.36 45.8 637.36 45.82 637.37 45.84 637.39 45.84 637.4 45.83 637.42 45.82 637.44 45.82 637.45 45.83 637.46 45.84 637.47 45.84 637.48 45.88 637.49 45.91 637.51 45.92 637.52 45.9 637.55 45.88 637.59 45.85 637.6 45.86 637.61 45.88 637.62 45.9 637.63 45.92 637.63 45.94 637.63 45.96 637.63 45.98 637.65 45.99 637.66 46.01 637.68 46.02 637.7 46.03 637.71 46.03 637.73 46.03 637.75 46.01 637.77 46 637.79 45.99 637.81 45.99 637.83 45.99 637.84 46 637.86 46.01 637.87 46.03 637.88 46.04 637.9 46.04 637.91 46.05 637.92 46.06 637.93 46.08 637.93 46.1 637.94 46.12 637.95 46.14 637.97 46.16 637.98 46.17 638.01 46.19 638.03 46.2 638.05 46.2 638.05 46.21 638.06 46.23 638.07 46.25 638.08 46.26 638.09 46.28 638.1 46.29 638.1 46.31 638.1 46.34 638.08 46.39 638.08 46.4 638.06 46.42 638.06 46.44 638.06 46.45 638.05 46.47 638.05 46.48 638.05 46.49 638.08 46.49 638.1 46.49 638.12 46.51 638.13 46.52 638.15 46.54 638.16 46.55 638.16 46.57 638.17 46.59 638.2 46.62 638.21 46.62 638.24 46.62 638.25 46.61 638.27 46.61 638.29 46.61 638.29 46.63 638.31 46.64 638.33 46.65 638.35 46.66 638.37 46.68 638.39 46.69 638.4 46.7 638.42 46.7 638.44 46.7 638.45 46.72 638.51 46.7 638.54 46.72 638.56 46.73 638.52 46.83 638.53 46.84 638.54 46.85 638.55 46.86 638.55 46.87 638.56 46.89 638.56 46.9 638.57 46.91 638.58 46.92 638.59 46.94 638.59 46.95 638.6 46.96 638.61 46.97 638.62 46.99 638.63 47 638.63 47.02 638.64 47.03 638.65 47.04 638.66 47.05 638.67 47.05 638.68 47.06 638.69 47.07 638.7 47.07 638.72 47.07 638.73 47.07 638.75 47.08 638.76 47.09 638.78 47.1 638.79 47.11 638.81 47.12 638.83 47.14 638.84 47.15 638.86 47.16 638.88 47.18 638.89 47.19 638.91 47.21 638.92 47.23 638.94 47.24 638.95 47.25 638.96 47.28 638.97 47.31 638.98 47.33 638.99 47.35 639 47.37 639.01 47.4 639.02 47.41 639.03 47.43 639.04 47.44 639.05 47.46 639.06 47.48 639.07 47.5 639.08 47.51 639.1 47.52 639.11 47.52 639.13 47.53 639.15 47.54 639.16 47.54 639.18 47.55 639.2 47.56 639.21 47.56 639.23 47.57 639.24 47.59 639.25 47.61 639.25 47.63 639.24 47.65 639.23 47.67 639.22 47.69 639.21 47.71 639.2 47.73 639.19 47.76 639.19 47.77 639.19 47.8 639.19 47.82 639.2 47.84 639.21 47.86 639.23 47.88 639.24 47.9 639.25 47.92 639.26 47.94 639.27 47.96 639.28 47.97 639.29 47.98 639.3 48 639.3 48.01 639.29 48.03 639.3 48.05 639.3 48.06 639.31 48.07 639.33 48.09 639.33 48.08 639.35 48.07 639.37 48.07 639.39 48.07 639.41 48.07 639.43 48.07 639.44 48.08 639.46 48.09 639.48 48.1 639.49 48.12 639.51 48.13 639.53 48.14 639.54 48.16 639.55 48.17 639.56 48.18 639.57 48.19 639.58 48.21 639.57 48.22 639.54 48.24 639.53 48.25 639.51 48.26 639.5 48.28 639.49 48.29 639.48 48.3 639.48 48.31 639.48 48.32 639.48 48.33 639.49 48.34 639.51 48.35 639.53 48.36 639.54 48.37 639.56 48.37 639.57 48.37 639.59 48.38 639.6 48.39 639.61 48.41 639.62 48.43 639.63 48.45 639.64 48.46 639.65 48.48 639.66 48.49 639.68 48.5 639.68 48.52 639.69 48.53 639.7 48.54 639.71 48.55 639.73 48.55 639.74 48.55 639.76 48.54 639.78 48.54 639.8 48.55 639.81 48.56 639.83 48.58 639.84 48.59 639.85 48.6 639.86 48.62 639.87 48.63 639.89 48.63 639.92 48.64 639.94 48.64 639.96 48.65 639.97 48.65 639.97 48.66 639.97 48.67 639.97 48.69 639.95 48.71 639.93 48.72 639.92 48.73 639.91 48.74 639.9 48.76 639.9 48.77 639.91 48.79 639.93 48.81 639.94 48.83 639.95 48.85 639.95 48.86 639.97 48.87 639.98 48.87 640 48.86 640.01 48.84 640.02 48.83 640.02 48.81 640.04 48.79 640.05 48.79 640.07 48.79 640.08 48.81 640.09 48.83 640.1 48.85 640.11 48.86 640.12 48.88 640.13 48.91 640.14 48.92 640.15 48.95 640.15 48.96 640.17 48.98 640.19 48.99 640.19 49 640.2 49.01 640.2 49.03 640.21 49.05 640.22 49.07 640.22 49.09 640.23 49.11 640.23 49.12 640.23 49.15 640.23 49.17 640.24 49.18 640.25 49.21 640.25 49.23 640.26 49.24 640.28 49.25 640.29 49.26 640.3 49.27 640.32 49.28 640.34 49.28 640.36 49.29 640.38 49.29 640.39 49.3 640.4 49.31 640.41 49.32 640.41 49.35 640.41 49.37 640.4 49.39 640.39 49.42 640.39 49.44 640.41 49.45 640.43 49.47 640.44 49.48 640.45 49.5 640.46 49.51 640.47 49.53 640.47 49.54 640.46 49.56 640.45 49.58 640.45 49.6 640.46 49.61 640.48 49.64 640.49 49.65 640.51 49.67 640.52 49.69 640.52 49.71 640.53 49.73 640.54 49.75 640.54 49.77 640.54 49.79 640.55 49.81 640.56 49.83 640.57 49.85 640.58 49.86 640.58 49.88 640.59 49.89 640.6 49.91 640.61 49.92 640.62 49.94 640.63 49.96 640.64 49.97 640.65 50 640.66 50.02 640.66 50.05 640.67 50.06 640.67 50.07 640.67 50.08 640.68 50.09 640.7 50.1 640.72 50.09 640.73 50.09 640.74 50.08 640.75 50.08 640.76 50.08 640.77 50.08 640.78 50.08 640.79 50.09 640.8 50.1 640.81 50.12 640.8 50.14 640.8 50.14 640.81 50.16 640.81 50.2 640.83 50.23 640.84 50.31 640.85 50.36 640.86 50.4 640.87 50.41 640.88 50.42 640.89 50.43 640.89 50.45 640.89 50.47 640.89 50.48 640.89 50.5 640.89 50.51 640.9 50.52 640.91 50.54 640.91 50.55 640.91 50.56 640.91 50.57 640.92 50.58 640.94 50.61 640.96 50.63 640.99 50.64 641.01 50.65 641.03 50.65 641.07 50.65 641.1 50.65 641.11 50.65 641.14 50.65 641.15 50.65 641.19 50.64 641.2 50.65 641.19 50.68 641.22 50.71 641.26 50.7 641.29 50.7 641.28 50.76 641.28 50.78 641.3 50.82 641.35 50.87 641.38 50.89 641.42 50.87 641.43 50.86 641.44 50.89 641.46 50.93 641.5 50.96 641.57 51 641.59 51.01 641.61 50.99 641.63 51 641.63 51.03 641.64 51.06 641.64 51.08 641.66 51.08 641.71 51.06 641.77 51.08 641.79 51.09 641.81 51.1 641.84 51.13 641.87 51.17 641.9 51.2 641.94 51.23 641.99 51.27 642.02 51.29 642.07 51.32 642.17 51.38 642.2 51.46 642.22 51.47 642.24 51.49 642.31 51.47 642.37 51.51 642.44 51.57 642.52 51.63 642.54 51.65 642.58 51.69 642.64 51.75 642.7 51.8 642.71 51.81 642.75 51.86 642.75 51.91 642.75 51.95 642.78 51.96 642.82 51.98 642.83 52.01 642.84 52.07 642.86 52.14 642.86 52.22 642.87 52.25 642.88 52.37 642.9 52.47 642.9 52.49 642.92 52.62 642.93 52.64 642.94 52.69 642.95 52.72 642.97 52.74 642.98 52.76 643.01 52.79 643.04 52.83 643.08 52.88 643.11 52.93 643.12 52.96 643.13 52.99 643.13 53 643.18 53.37 643.26 53.96 643.29 54.15 643.35 54.58 643.36 54.64 643.37 54.76 643.39 54.88 643.44 55.2 643.46 55.37 643.47 55.46 643.48 55.5 643.48 55.54 643.49 55.6 643.5 55.67 643.51 55.77 643.52 55.79 643.52 55.81 643.53 55.9 643.54 55.95 643.54 55.96 643.57 56.2 643.6 56.37 643.61 56.47 643.65 56.73 643.78 57.66 643.76 57.7 643.74 57.74 643.71 57.8 643.47 58.33 643.42 58.43 643.36 58.58 643.17 59 643.11 59.01 643.08 59.02 643.02 59.05 642.94 59.07 642.86 59.1 642.8 59.11 642.75 59.13 642.68 59.15 642.63 59.17 642.57 59.19 642.52 59.2 642.49 59.21 642.46 59.22 642.43 59.23 642.4 59.24 642.36 59.25 642.32 59.27 642.27 59.28 642.2 59.3 642.16 59.31 642.13 59.32 642.1 59.32 642.06 59.33 642.02 59.34 641.98 59.35 641.93 59.36 641.86 59.37 641.81 59.38 641.77 59.39 641.71 59.4 641.66 59.41 641.59 59.43 641.53 59.44 641.47 59.45 641.43 59.46 641.39 59.46 641.34 59.46 641.01 59.49 640.84 59.5 640.61 59.55 640.51 59.58 639.84 59.72 639.81 59.73 639.76 59.74 639.72 59.75 639.67 59.76 639.63 59.77 639.61 59.78 639.6 59.78 639.57 59.79 639.52 59.8 639.47 59.81 639.41 59.83 639.34 59.84 639.27 59.86 639.24 59.86 639.16 59.88 639.07 59.89 638.99 59.9 638.92 59.91 638.85 59.93 638.82 59.93 638.78 59.94 638.71 59.94 638.68 59.94 638.65 59.94 638.62 59.94 638.58 59.93 638.57 59.92 638.54 59.91 638.51 59.91 638.44 59.89 638.21 59.83 637.94 59.76 637.36 59.64 637.28 59.62 637.11 59.58 636.97 59.55 636.2 59.47 636.18 59.46 636.16 59.46 636.04 59.43 635.87 59.4 635.61 59.34 635.48 59.31 635.38 59.29 635.23 59.28 635.14 59.26 635 59.25 634.69 59.21 634.52 59.19 633.7 59.08 633.66 59.08 633.58 59.06 633.19 58.99 633.13 58.97 632.86 58.92 632.75 58.9 632.41 58.84 632.1 58.77 631.84 58.72 631.6 58.68 631.31 58.62 631.27 58.61 631.11 58.58 630.94 58.55 630.47 58.46 630.31 58.42 630.12 58.39 630.03 58.37 629.81 58.33 629.42 58.2 629.15 58.11 628.65 57.94 628.09 57.76 627.48 57.55 626.86 57.34 626.82 57.33 626.69 57.29 626.32 57.16 625.67 56.95 625.64 56.94 625.56 56.91 625.55 56.91 625.54 56.9 625.16 56.78 624.99 56.72 624.8 56.65 624.57 56.58 624.45 56.54 624.25 56.48 624.16 56.45 623.97 56.38 623.75 56.31 623.6 56.27 623.31 56.17 623.1 56.1 623.01 56.07 622.8 56 622.76 55.99 622.43 55.88 621.5 55.57 621.26 55.49 620.95 55.39 620.89 55.37 620.82 55.35 620.75 55.32 620.17 55.13 620.08 55.1 619.97 55.07 619.66 54.96 619.56 54.93 619.36 54.86 619.28 54.84 619.2 54.81 618.91 54.71 618.91 54.66 618.91 54.59 618.9 54.51 618.9 54.44 618.9 54.42 618.89 54.33 618.88 54.26 618.88 54.21 618.89 54.14 618.9 54.07 618.92 54 618.93 53.94 618.95 53.9 618.98 53.83 619.01 53.81 619.04 53.76 619.08 53.72 619.11 53.67 619.14 53.63 619.15 53.62 619.17 53.6 619.22 53.56 619.27 53.52 619.31 53.48 619.35 53.43 619.38 53.39 619.4 53.34 619.41 53.33 619.43 53.25 619.48 53.11 619.5 53.06 619.51 53.04 619.54 52.97 619.56 52.94 619.57 52.91 619.58 52.89 619.58 52.84 619.58 52.8 619.56 52.74 619.55 52.7 619.54 52.67 619.53 52.66 619.51 52.6 619.49 52.51 619.48 52.45 619.47 52.4 619.46 52.35 619.45 52.33 619.45 52.32 619.42 52.24 619.41 52.18 619.4 52.12 619.41 52.05 619.42 52 619.42 51.98 619.44 51.93 619.46 51.88 619.49 51.84 619.49 51.82 619.5 51.81 619.51 51.77 619.52 51.74 619.54 51.69 619.55 51.63 619.56 51.6 619.58 51.53 619.61 51.48 619.62 51.43 619.63 51.37 619.64 51.17 619.64 51.05 619.64 50.92 619.63 50.82 619.62 50.79 619.61 50.77 619.6 50.76 619.58 50.72 619.55 50.67 619.55 50.65 619.54 50.62 619.54 50.57 619.54 50.49 619.55 50.45 619.55 50.41 619.56 50.37 619.57 50.34 619.58 50.28 619.59 50.23 619.61 50.18 619.64 50.13 619.67 50.09 619.72 50.03 619.77 49.96 619.8 49.92 619.83 49.89 619.84 49.86 619.85 49.82 619.86 49.77 619.88 49.71 619.9 49.66 619.93 49.62 619.97 49.55 619.99 49.51 619.99 49.51 620.02 49.46 620.05 49.42 620.08 49.39 620.1 49.35 620.12 49.32 620.13 49.3 620.14 49.27 620.14 49.24 620.14 49.21 620.15 49.18 620.15 49.16 620.15 49.13 620.16 49.1 620.17 49.06 620.18 49.04 620.2 49.01 620.21 48.98 620.24 48.93 620.28 48.85 620.34 48.74 620.36 48.69 620.39 48.65 620.42 48.61 620.46 48.57 620.49 48.54 620.51 48.51 620.54 48.49 620.57 48.47 620.58 48.47 620.6 48.46 620.63 48.45 620.66 48.44 620.68 48.43 620.74 48.42 620.8 48.42 620.85 48.41 620.9 48.39 620.96 48.37 621.01 48.35 621.04 48.33 621.05 48.32 621.07 48.3 621.1 48.27 621.13 48.24 621.18 48.21 621.23 48.2 621.28 48.18 621.3 48.18 621.32 48.17 621.36 48.16 621.4 48.13 621.44 48.12 621.48 48.1 621.52 48.09 621.53 48.07 621.55 48.06 621.59 48.03 621.61 48.01 621.64 47.99 621.66 47.95 621.67 47.94 621.69 47.92 621.71 47.87 621.73 47.85 621.75 47.82 621.77 47.79 621.8 47.77 621.83 47.74 621.86 47.71 621.88 47.69 621.9 47.66 621.92 47.63 621.94 47.6 621.96 47.56 621.99 47.54 622.02 47.51 622.05 47.49 622.09 47.47 622.12 47.46 622.15 47.44 622.18 47.42 622.21 47.41 622.24 47.36 622.26 47.33 622.27 47.3 622.28 47.27 622.29 47.23 622.3 47.21 622.31 47.17 622.32 47.11 622.33 47.06 622.33 47.03 622.34 47.02 622.35 46.98 622.36 46.96 622.38 46.93 622.4 46.88 622.43 46.85 622.45 46.82 622.48 46.78 622.49 46.77 622.51 46.74 622.53 46.71 622.55 46.68 622.56 46.65 622.58 46.61 622.6 46.58 622.62 46.54 622.64 46.51 622.67 46.47 622.69 46.44 622.71 46.41 622.72 46.4 622.75 46.37 622.77 46.34 622.81 46.3 622.83 46.28 622.87 46.24 622.89 46.22 622.92 46.19 622.95 46.16 622.98 46.13 623 46.11 623.04 46.09 623.08 46.07 623.11 46.05 623.13 46.04 623.16 46.02 623.19 45.99 623.2 45.98 623.23 45.96 623.26 45.93 623.29 45.9 623.31 45.87 623.34 45.83 623.36 45.8 623.39 45.76 623.4 45.74 623.42 45.72 623.43 45.71 623.44 45.7 623.45 45.67 623.48 45.63 623.49 45.63 623.48 45.61 623.48 45.6 623.48 45.59 623.49 45.58 623.49 45.57 623.49 45.56 623.5 45.54 623.75 45.29 623.87 45.19 623.91 45.16 623.9 45.14 624.03 45.02 624.03 44.99 624.07 45 624.07 44.97 624.21 44.85 624.43 44.78 624.58 44.77 624.6 44.76 624.64 44.73 624.69 44.72 624.73 44.71 624.77 44.69 624.82 44.67 624.87 44.66 624.88 44.65 624.91 44.63 624.96 44.61 625.01 44.59 625.05 44.56 625.09 44.54 625.13 44.52 625.14 44.52 625.2 44.53 625.25 44.52 625.3 44.51 625.33 44.51 625.35 44.51 625.36 44.51 625.38 44.51 625.4 44.52 625.42 44.53 625.43 44.53 625.45 44.54 625.48 44.54 625.49 44.54 625.51 44.55 625.53 44.55 625.57 44.56 625.61 44.57 625.64 44.58 625.68 44.6 625.71 44.61 625.74 44.64 625.79 44.67 625.81 44.69 625.84 44.71 625.88 44.73 625.93 44.76 625.95 44.78 625.99 44.82 626.04 44.85 626.08 44.87 626.18 44.97 626.14 45.05 626.15 45.06 626.16 45.06 626.18 45.08 626.2 45.1 626.24 45.14 626.28 45.21 626.29 45.27 626.3 45.27 626.32 45.27 626.34 45.26 626.36 45.26 626.38 45.27 626.4 45.26 626.41 45.25 626.43 45.24 626.44 45.23 626.45 45.22 626.46 45.2 626.47 45.2 626.49 45.19 626.5 45.2 626.51 45.22 626.52 45.23 626.52 45.24 626.53 45.24 626.54 45.25 626.55 45.25 626.57 45.24 626.6 45.22 626.63 45.21 626.65 45.2 626.68 45.19 626.7 45.18 626.72 45.18 626.74 45.17 626.75 45.16 626.76 45.14 626.78 45.12 626.79 45.11 626.81 45.09 626.82 45.07 626.82 45.06 626.83 45.03 626.84 45 626.84 44.98 626.84 44.97 626.85 44.95 626.86 44.93 626.87 44.91 626.87 44.9 626.87 44.88 626.87 44.87 626.86 44.86 626.85 44.85 626.83 44.84 626.8 44.84 626.79 44.84 626.78 44.84 626.77 44.83 626.76 44.82 626.76 44.81 626.75 44.8 626.75 44.77 626.75 44.76 626.76 44.74 626.77 44.73 626.78 44.72 626.81 44.7 626.83 44.7 626.84 44.69 626.86 44.69 626.88 44.7 626.9 44.7 626.92 44.7 626.93 44.7 626.94 44.7 626.96 44.69 626.97 44.67 626.97 44.66 626.97 44.64 626.95 44.62 626.94 44.61 626.92 44.58 626.91 44.58 626.89 44.57 626.88 44.56 626.86 44.56 626.84 44.56 626.82 44.56 626.81 44.56 626.79 44.56 626.76 44.57 626.74 44.57 626.73 44.56 626.71 44.55 626.71 44.54 626.7 44.53 626.7 44.53 626.7 44.5 626.7 44.49 626.7 44.47 626.7 44.46 626.71 44.44 626.72 44.42 626.74 44.41 626.75 44.39 626.76 44.38 626.76 44.37 626.78 44.35 626.79 44.34 626.82 44.29 626.84 44.27 626.86 44.24 626.87 44.23 626.88 44.22 626.89 44.2 626.92 44.17 626.93 44.16 626.94 44.15 626.96 44.15 626.98 44.14 627.01 44.14 627.04 44.14 627.05 44.14 627.07 44.14 627.09 44.13 627.12 44.13 627.13 44.12 627.15 44.12 627.17 44.12 627.18 44.11 627.19 44.1 627.21 44.09 627.22 44.07 627.23 44.06 627.24 44.05 627.25 44.02 627.25 44 627.25 43.98 627.25 43.97 627.24 43.96 627.22 43.94 627.21 43.92 627.19 43.91 627.18 43.9 627.16 43.89 627.15 43.88 627.14 43.87 627.13 43.86 627.12 43.85 Z"/>
<path d="M 188.5 362.82 189.01 362.47 189.33 362.21 189.63 362.01 190.01 362.02 190.3 362.24 190.55 362.58 190.93 362.87 191.47 363.16 191.89 363.35 192.27 363.56 192.6 363.68 192.99 363.89 193.25 364.21 193.55 364.72 193.87 365.22 194.25 365.78 194.96 366.37 195.81 366.97 196.35 367.37 196.83 367.69 196.63 368.13 196.58 368.71 196.41 369.08 196.23 369.5 195.96 370.03 195.54 370.74 195.25 371.37 194.96 372.06 194.7 372.72 194.55 373.24 194.49 373.65 194.51 374.11 194.63 374.57 194.6 375.14 194.69 375.62 194.87 376.52 194.96 377.16 194.97 377.72 194.86 378.18 194.7 378.55 194.47 378.87 194.12 379.23 193.74 379.53 193.6 379.82 193.55 380.21 193.4 380.38 193.08 380.75 192.95 381.21 192.97 381.73 193.06 382.39 193.09 382.94 192.92 383.27 192.55 383.52 191.92 383.84 191.3 384 190.7 384 190.25 384.05 189.96 384.18 189.4 384.51 188.58 385.02 188.08 385.42 187.66 385.78 187.42 386.22 187.29 386.74 187.29 387.27 187.29 387.94 187.07 388.68 186.47 389.14 185.96 389.36 185.78 388.98 185.62 388.58 185.41 388.28 185.13 388.2 184.69 388.18 184.32 388.14 183.97 387.8 183.55 387.49 183.1 387.43 182.77 387.63 182.48 388.08 182.25 388.66 182.06 389.23 181.95 389.72 181.88 390.25 181.95 390.71 182.04 391.18 182.17 391.63 182.1 392.07 181.85 392.47 181.55 392.85 181.1 393.21 180.74 393.31 180.32 393.32 179.97 393.25 179.81 393.05 179.73 392.62 179.69 392.2 179.63 391.66 179.48 390.95 179.27 390.35 178.96 389.7 178.63 389.42 178.24 389.13 177.78 388.82 177.41 388.45 177.07 388 176.69 387.63 176.34 387.27 176.2 386.94 176.14 386.37 176.15 385.88 176.1 385.09 175.93 384.49 175.74 384.04 175.52 383.51 175.39 383.16 175.37 382.78 175.58 382.42 176.19 382.15 176.71 381.96 177.39 381.74 178.07 381.46 178.81 381.08 179.51 380.68 180.23 380.25 180.71 379.84 181.24 379.21 181.48 378.74 181.65 378.18 181.83 377.4 182.01 376.88 181.99 376.32 181.76 375.82 181.33 375.46 180.87 375.19 180.19 374.99 180.93 373.11 181.39 371.95 181.65 371.11 181.63 370.75 181.47 370.39 181.22 370.05 181.04 369.91 180.34 370.2 179.73 370.49 179.32 370.72 178.59 371.15 178 371.54 177.33 371.83 176.72 372.01 175.58 372.26 174.92 372.28 174.87 371.76 174.84 371.32 174.66 370.91 174.43 370.46 174.18 369.98 174.02 369.74 173.79 369.63 173.59 369.49 173.32 369.25 173.2 368.96 173.26 368.59 173.45 368.26 173.74 367.91 174.02 367.56 174.09 367.31 174.18 366.98 174.33 366.77 174.5 366.57 174.63 366.19 174.69 365.77 174.75 365.3 174.89 364.86 174.81 364.42 174.53 363.89 174.15 363.45 173.69 363.04 173.27 362.65 172.86 362.43 172.48 362.17 171.97 361.7 171.34 361.27 171.09 361.1 170.79 360.96 170.25 360.76 169.78 360.6 169.72 360.58 169.79 360.44 169.85 360.39 170 360.29 170.12 360.22 170.32 360.15 170.56 360.07 171.47 359.8 171.9 359.72 172.55 359.73 173.32 359.76 173.98 359.71 174.48 359.6 175.27 359.5 176.05 359.39 176.82 359.14 177.59 358.75 178.45 358.34 179.02 358.15 179.47 358.07 179.92 358.09 180.25 358.24 180.75 358.69 181.25 359.17 181.91 359.83 182.41 360.06 182.99 360.15 183.73 359.94 184.24 359.81 184.91 359.78 185.36 359.98 185.89 360.32 185.93 360.94 185.82 361.26 185.7 361.74 185.62 362.29 185.6 362.88 185.71 363.13 186.13 363.23 186.74 363.18 187.4 363.11 188.01 362.98 188.5 362.82 Z"/>
</g></svg>