<svg xmlns="http://www.w3.org/2000/svg" version="1.2" baseProfile="tiny" stroke-linecap="round" stroke-linejoin="round" viewBox="549.25 38.17 13.75 9.28"><g xmlns="http://www.w3.org/2000/svg" id="Basusarri">
<path d="M 559.74 38.17 559.74 38.17 559.87 38.29 560.05 38.44 560.18 38.57 560.26 38.68 560.36 38.83 560.47 38.99 560.56 39.08 560.66 39.15 560.79 39.23 560.83 39.25 560.98 39.29 561.13 39.29 561.33 39.24 561.49 39.19 561.65 39.15 561.77 39.16 561.89 39.2 561.98 39.27 562.08 39.42 562.12 39.55 562.17 39.69 562.22 39.85 562.28 40.06 562.32 40.21 562.39 40.39 562.47 40.55 562.53 40.63 562.61 40.71 562.7 40.81 562.83 40.92 562.89 41 562.94 41.1 562.99 41.22 563 41.35 562.97 41.46 562.97 41.5 562.89 41.65 562.8 41.81 562.72 41.98 562.64 42.16 562.58 42.35 562.54 42.52 562.53 42.57 562.51 42.72 562.5 42.98 562.51 43.23 562.55 43.5 562.57 43.74 562.61 44.02 562.64 44.31 562.7 44.57 562.72 44.75 562.63 44.78 562.61 44.78 562.59 44.78 562.57 44.78 562.56 44.79 562.53 44.8 562.5 44.8 562.48 44.8 562.45 44.8 562.42 44.79 562.42 44.79 562.41 44.8 562.4 44.85 562.39 44.88 562.38 44.91 562.37 44.92 562.37 44.93 562.37 44.95 562.39 44.96 562.42 44.97 562.43 44.99 562.44 45 562.44 45.01 562.44 45.03 562.44 45.05 562.44 45.06 562.44 45.08 562.45 45.11 562.44 45.12 562.43 45.13 562.42 45.14 562.4 45.14 562.39 45.14 562.38 45.17 562.38 45.2 562.37 45.21 562.37 45.23 562.36 45.24 562.34 45.26 562.33 45.27 562.32 45.28 562.31 45.28 562.3 45.29 562.29 45.29 562.28 45.31 562.27 45.33 562.26 45.34 562.24 45.35 562.24 45.35 562.23 45.35 562.21 45.35 562.2 45.36 562.19 45.37 562.16 45.36 562.13 45.36 562.06 45.36 561.96 45.34 561.89 45.33 561.83 45.32 561.79 45.3 561.76 45.28 561.75 45.27 561.72 45.27 561.69 45.27 561.66 45.28 561.59 45.32 561.58 45.33 561.55 45.35 561.45 45.47 561.43 45.5 561.41 45.53 561.38 45.56 561.36 45.58 561.33 45.6 561.3 45.61 561.28 45.63 561.11 45.66 561.08 45.67 561.06 45.67 561.02 45.66 560.97 45.67 560.92 45.68 560.86 45.68 560.82 45.68 560.78 45.67 560.75 45.68 560.72 45.69 560.7 45.69 560.68 45.71 560.67 45.72 560.63 45.75 560.59 45.77 560.56 45.79 560.54 45.81 560.49 45.82 560.42 45.84 560.35 45.86 560.31 45.88 560.28 45.9 560.24 45.91 560.21 45.92 560.18 45.94 560.12 45.95 560.09 45.95 560.06 45.95 560.03 45.96 560 45.98 559.98 46 559.96 46.01 559.92 46.02 559.86 46.04 559.81 46.05 559.75 46.06 559.71 46.08 559.65 46.1 559.59 46.14 559.56 46.16 559.47 46.21 559.43 46.23 559.37 46.26 559.34 46.26 559.3 46.27 559.27 46.28 559.23 46.32 559.2 46.35 559.17 46.39 559.14 46.43 559.12 46.47 559.11 46.52 559.1 46.57 558.98 46.6 558.95 46.63 558.56 46.99 558.3 47.22 558.13 47.37 558.06 47.43 557.93 47.35 557.8 47.23 557.73 47.16 557.54 47 557.47 46.94 557.38 46.99 557.32 47 557.28 47.01 557.23 47.02 557.18 47.03 557.14 47.03 557.1 47.03 557.06 47.03 557.02 47.02 557 47.02 556.94 47 556.89 46.97 556.84 46.93 556.8 46.87 556.79 46.82 556.8 46.78 556.79 46.75 556.76 46.7 556.71 46.66 556.66 46.62 556.6 46.57 556.53 46.52 556.49 46.49 556.45 46.47 556.42 46.44 556.41 46.43 556.39 46.34 556.39 46.29 556.38 46.27 556.35 46.23 556.35 46.21 556.34 46.18 556.33 46.17 556.31 46.1 556.29 46.15 556.26 46.19 556.25 46.22 556.22 46.26 556.21 46.28 556.19 46.28 556.17 46.28 556.15 46.27 556.14 46.27 556.11 46.27 556.09 46.27 556.06 46.26 556.04 46.25 556.02 46.25 556.01 46.25 555.98 46.25 555.96 46.25 555.93 46.25 555.9 46.27 555.89 46.28 555.89 46.3 555.89 46.31 555.88 46.32 555.87 46.33 555.84 46.35 555.81 46.36 555.81 46.31 555.81 46.28 555.8 46.29 555.79 46.29 555.78 46.31 555.76 46.32 555.74 46.34 555.72 46.36 555.72 46.37 555.71 46.37 555.7 46.36 555.67 46.34 555.63 46.32 555.62 46.3 555.61 46.29 555.6 46.27 555.59 46.27 555.57 46.26 555.56 46.25 555.55 46.24 555.53 46.24 555.49 46.25 555.46 46.26 555.44 46.28 555.41 46.31 555.41 46.33 555.41 46.34 555.41 46.36 555.4 46.39 555.37 46.42 555.36 46.45 555.35 46.47 555.34 46.48 555.31 46.49 555.28 46.49 555.24 46.5 555.27 46.57 555.29 46.62 555.33 46.68 555.36 46.74 555.37 46.78 555.37 46.79 555.45 46.95 555.55 47.13 555.65 47.31 555.52 47.31 555.47 47.31 555.21 47.32 555.13 47.32 555.07 47.32 555 47.32 554.55 47.33 554.45 47.33 553.81 47.34 552.91 47.35 552.83 47.35 552.79 47.36 552.74 47.36 552.64 47.35 552.62 47.35 552.61 47.13 552.52 46.46 552.52 46.43 552.51 46.34 552.37 46.38 552.17 46.48 552.06 46.5 551.99 46.53 551.99 46.46 551.98 46.37 551.96 46.13 551.8 46.14 551.52 46.16 551.38 46.17 551.09 46.19 551.02 46.19 551.03 46.18 551.18 46.02 551.37 45.82 551.37 45.8 551.4 45.73 551.44 45.67 550.95 45.64 550.91 45.64 550.86 45.64 550.82 45.64 550.77 45.64 550.71 45.63 550.64 45.62 550.61 45.61 550.58 45.55 550.49 45.36 550.47 45.31 550.22 44.77 550.21 44.77 550.21 44.74 550.08 44.47 550.12 44.42 550.18 44.36 550.23 44.31 550.26 44.26 550.32 44.19 550.37 44.13 550.4 44.08 550.42 44.04 550.43 44.02 550.44 44 550.45 43.97 550.46 43.94 550.47 43.88 550.48 43.83 550.5 43.74 550.52 43.64 550.55 43.53 550.55 43.51 550.56 43.48 550.56 43.47 550.58 43.41 550.61 43.34 550.65 43.26 550.67 43.19 550.69 43.14 550.7 43.08 550.7 43.08 550.7 43.05 550.84 42.74 550.89 42.63 550.87 42.46 550.81 42.07 550.82 42.03 550.82 41.98 550.81 41.95 550.81 41.92 550.79 41.89 550.76 41.82 550.71 41.71 550.68 41.71 550.6 41.71 550.57 41.72 550.47 41.72 550.24 41.46 550.22 41.44 550.16 41.4 550.06 41.33 549.97 41.27 549.89 41.22 549.81 41.17 549.69 41.11 549.59 41.06 549.52 41.03 549.48 41.02 549.42 41.01 549.36 40.99 549.4 40.94 549.35 40.91 549.33 40.9 549.26 40.85 549.27 40.84 549.3 40.82 549.81 40.37 549.86 40.33 549.89 40.3 549.93 40.27 549.98 40.23 550.33 39.92 550.34 39.91 550.37 39.88 550.41 39.85 550.45 39.83 550.52 39.81 550.59 39.79 550.6 39.79 550.67 39.88 550.72 39.93 550.86 40.19 550.88 40.29 550.93 40.29 550.99 40.3 551.04 40.3 551.07 40.31 551.12 40.33 551.16 40.34 551.2 40.36 551.24 40.39 551.26 40.4 551.28 40.41 551.3 40.41 551.31 40.42 551.34 40.43 551.35 40.45 551.37 40.46 551.4 40.48 551.42 40.5 551.43 40.52 551.46 40.53 551.5 40.56 551.52 40.57 551.55 40.6 551.57 40.61 551.58 40.62 551.62 40.63 551.65 40.63 551.68 40.61 551.71 40.62 551.75 40.62 551.77 40.61 551.81 40.61 551.84 40.6 551.86 40.6 551.88 40.6 551.91 40.59 551.95 40.6 551.98 40.59 552.01 40.58 552.03 40.58 552.06 40.58 552.08 40.59 552.11 40.59 552.15 40.59 552.16 40.58 552.21 40.55 552.23 40.54 552.25 40.53 552.29 40.52 552.34 40.52 552.37 40.5 552.39 40.49 552.42 40.5 552.44 40.49 552.46 40.48 552.51 40.47 552.54 40.46 552.57 40.45 552.6 40.43 552.64 40.42 552.66 40.41 552.68 40.41 552.71 40.41 552.74 40.41 552.77 40.4 552.8 40.39 552.85 40.37 552.88 40.36 552.93 40.35 552.94 40.35 552.97 40.34 552.99 40.33 553.01 40.33 553.04 40.32 553.07 40.32 553.1 40.33 553.14 40.32 553.16 40.31 553.2 40.3 553.22 40.29 553.24 40.28 553.26 40.28 553.31 40.28 553.35 40.27 553.38 40.27 553.44 40.27 553.48 40.26 553.52 40.26 553.57 40.34 554.05 40.28 554.05 40.21 554.05 40.16 554.17 40.2 554.19 40.22 554.21 40.22 554.23 40.22 554.26 40.24 554.29 40.26 554.31 40.26 554.35 40.28 554.39 40.31 554.41 40.33 554.44 40.34 554.47 40.35 554.52 40.38 554.63 40.44 554.64 40.44 554.74 40.48 554.76 40.48 554.8 40.5 554.84 40.51 554.85 40.51 555.57 40.77 555.65 40.8 555.73 40.83 555.8 40.85 555.85 40.86 555.88 40.87 555.9 40.87 555.92 40.87 555.94 40.87 556.01 40.81 556.04 40.78 556.3 40.56 556.31 40.54 556.38 40.48 556.39 40.47 556.45 40.42 556.5 40.38 556.55 40.36 556.58 40.35 556.61 40.36 556.65 40.38 556.71 40.42 556.78 40.46 556.82 40.47 556.86 40.48 556.99 40.57 557.07 40.63 557.11 40.66 557.14 40.67 557.17 40.67 557.19 40.67 557.19 40.68 557.2 40.69 557.21 40.71 557.23 40.72 557.23 40.69 557.25 40.63 557.27 40.61 557.28 40.58 557.31 40.51 557.34 40.47 557.38 40.36 557.4 40.32 557.41 40.29 557.42 40.27 557.43 40.24 557.44 40.21 557.44 40.17 557.42 40.11 557.42 40.07 557.41 40.05 557.41 39.98 557.42 39.91 557.43 39.82 557.45 39.73 557.47 39.65 557.5 39.56 557.53 39.5 557.56 39.45 557.58 39.41 557.59 39.37 557.61 39.34 557.64 39.31 557.67 39.3 557.71 39.29 557.75 39.27 557.81 39.23 557.84 39.22 557.86 39.2 557.91 39.18 557.95 39.16 557.96 39.15 557.98 39.12 558 39.1 558.01 39.09 558.05 39.08 558.09 39.08 558.1 39.07 558.1 39.07 558.11 39.06 558.11 39.03 558.11 38.99 558.1 38.96 558.09 38.93 558.08 38.89 558.08 38.87 558.09 38.85 558.12 38.85 558.14 38.85 558.16 38.86 558.2 38.88 558.23 38.89 558.25 38.88 558.3 38.87 558.33 38.86 558.35 38.85 558.37 38.82 558.38 38.79 558.39 38.75 558.39 38.71 558.39 38.67 558.4 38.65 558.43 38.64 558.46 38.64 558.49 38.64 558.51 38.66 558.54 38.69 558.57 38.72 558.59 38.75 558.62 38.75 558.65 38.74 558.68 38.73 558.7 38.7 558.71 38.68 558.71 38.65 558.71 38.61 558.72 38.58 558.73 38.57 558.76 38.56 558.85 38.56 558.89 38.57 558.91 38.59 558.92 38.61 558.93 38.63 558.96 38.66 559 38.67 559.04 38.68 559.09 38.67 559.13 38.66 559.15 38.63 559.18 38.59 559.21 38.54 559.21 38.48 559.22 38.44 559.23 38.4 559.26 38.37 559.28 38.36 559.32 38.36 559.36 38.37 559.39 38.39 559.42 38.43 559.46 38.48 559.48 38.51 559.49 38.54 559.49 38.57 559.48 38.59 559.47 38.62 559.48 38.65 559.49 38.67 559.52 38.68 559.55 38.68 559.59 38.68 559.62 38.67 559.66 38.64 559.68 38.63 559.68 38.61 559.68 38.58 559.69 38.53 559.69 38.47 559.69 38.41 559.7 38.38 559.69 38.36 559.7 38.34 559.69 38.32 559.7 38.28 559.74 38.17 Z"/>
</g></svg>