<svg xmlns="http://www.w3.org/2000/svg" version="1.2" baseProfile="tiny" stroke-linecap="round" stroke-linejoin="round" viewBox="516.22 101.05 75.68 102.83"><g xmlns="http://www.w3.org/2000/svg" id="Baztan">
<path d="M 552.57 101.19 552.51 101.31 552.42 101.46 552.35 101.57 552.33 101.61 552.24 101.76 552.21 101.81 552.16 101.9 552.07 102.04 552 102.15 551.98 102.18 551.94 102.25 551.86 102.39 551.81 102.46 551.77 102.53 551.69 102.67 551.6 102.82 551.51 102.97 551.49 103.01 551.44 103.1 551.42 103.12 551.4 103.15 551.34 103.25 551.26 103.39 551.24 103.42 551.17 103.53 551.16 103.55 551.09 103.66 551 103.8 550.97 103.85 550.95 103.87 550.95 103.88 550.91 103.95 550.89 103.98 550.86 104.02 550.83 104.07 550.81 104.12 550.78 104.16 550.72 104.26 550.69 104.29 550.6 104.44 550.52 104.58 550.42 104.73 550.39 104.79 550.38 104.8 550.31 104.91 550.25 104.98 550.24 104.99 550.22 105.01 550.09 105.15 549.97 105.28 549.84 105.41 549.79 105.47 549.74 105.52 549.72 105.54 549.62 105.65 549.61 105.66 549.6 105.67 549.56 105.72 549.47 105.81 549.45 105.82 549.4 105.88 549.38 105.9 549.34 105.94 549.22 106.07 549.11 106.18 549.1 106.2 548.98 106.32 548.87 106.44 548.8 106.51 548.79 106.53 548.76 106.55 548.65 106.67 548.53 106.8 548.52 106.82 548.51 106.82 548.47 106.86 548.42 106.92 548.4 106.94 548.36 106.98 548.31 107.04 548.18 107.17 548.14 107.22 548.06 107.3 547.95 107.42 547.84 107.54 547.8 107.58 547.73 107.65 547.72 107.66 547.71 107.68 547.69 107.7 547.68 107.71 547.62 107.77 547.59 107.8 547.59 107.81 547.53 107.87 547.48 107.92 547.42 107.99 547.34 108.06 547.33 108.13 547.31 108.2 547.3 108.28 547.28 108.34 547.27 108.43 547.26 108.48 547.26 108.49 547.25 108.57 547.23 108.66 547.22 108.73 547.21 108.8 547.2 108.89 547.19 108.94 547.19 108.96 547.18 109 547.18 109.05 547.17 109.19 547.17 109.26 547.15 109.23 547.13 109.22 547.11 109.22 547.1 109.22 547.07 109.23 547.05 109.23 547.03 109.21 546.99 109.16 546.99 109.15 546.94 109.05 546.9 108.98 546.86 108.94 546.83 108.93 546.81 108.92 546.79 108.91 546.77 108.91 546.76 108.9 546.69 108.9 546.68 108.89 546.64 108.85 546.58 108.74 546.53 108.69 546.48 108.65 546.46 108.64 546.41 108.62 546.38 108.61 546.32 108.55 546.25 108.45 546.2 108.36 546.15 108.24 546.12 108.18 546.08 108.11 546.03 108.07 545.99 108.02 545.96 107.96 545.91 107.9 545.88 107.81 545.83 107.68 545.81 107.65 545.77 107.59 545.75 107.54 545.72 107.48 545.68 107.39 545.63 107.31 545.6 107.26 545.57 107.16 545.55 107.09 545.51 107.05 545.44 106.98 545.4 106.95 545.39 106.95 545.35 106.93 545.31 106.9 545.26 106.84 545.2 106.75 545.17 106.71 545.09 106.57 545.03 106.47 544.99 106.36 544.99 106.35 544.96 106.24 544.94 106.21 544.93 106.2 544.92 106.17 544.91 106.16 544.89 106.11 544.87 106.05 544.85 105.94 544.85 105.85 544.85 105.74 544.86 105.7 544.86 105.65 544.88 105.58 544.88 105.56 544.9 105.55 544.92 105.55 544.96 105.55 544.97 105.54 544.97 105.52 544.97 105.52 544.97 105.48 544.98 105.37 544.99 105.25 544.99 105.14 544.99 105.12 544.99 105.05 544.98 104.97 544.97 104.89 544.96 104.85 544.95 104.82 544.93 104.75 544.92 104.67 544.93 104.57 544.94 104.55 544.95 104.53 544.97 104.52 544.99 104.51 545.01 104.5 545.03 104.47 545.04 104.4 545.05 104.35 545.08 104.31 545.11 104.29 545.15 104.27 545.17 104.24 545.18 104.2 545.2 104.16 545.21 104.12 545.25 104.08 545.28 104.04 545.3 104.01 545.31 103.97 545.34 103.53 545.34 103.37 545.33 103.32 545.33 103.31 545.26 103.23 545 103.47 544.99 103.48 544.48 103.97 544.07 104.07 544.06 104.07 544.04 104.08 543.84 104.15 543.44 104.29 543.39 104.31 543.39 104.31 543.34 104.33 543.13 104.4 543.12 104.41 542.97 104.48 542.86 104.53 542.63 104.64 542.61 104.65 542.61 104.69 542.62 104.72 542.63 104.74 542.65 104.78 542.68 104.82 542.72 104.89 542.76 104.96 542.8 105.02 542.85 105.09 542.87 105.13 542.89 105.17 542.91 105.22 542.91 105.26 542.81 105.3 542.54 105.4 542.02 105.59 541.95 105.62 541.92 105.63 541.88 105.62 541.82 105.61 541.76 105.58 541.63 105.54 541.55 105.54 541.5 105.54 541.44 105.55 541.39 105.57 541.37 105.57 541.3 105.58 541.25 105.58 541.21 105.6 541.18 105.62 541.15 105.64 541.08 105.64 541.06 105.65 541.05 105.67 540.98 105.79 540.97 105.83 540.96 105.85 540.96 105.88 541 106 541.02 106.04 541.03 106.07 541.03 106.08 541.03 106.14 541.03 106.26 541.03 106.33 541.04 106.41 541.1 106.59 541.14 106.96 541.15 107.01 541.15 107.02 541.14 107.02 540.96 107.4 540.97 107.43 540.98 107.5 540.99 107.53 541 107.58 541.04 107.81 541.08 108.01 541.09 108.03 541.09 108.04 541.09 108.06 541.1 108.08 541.11 108.15 541.11 108.16 541.12 108.2 541.12 108.2 541.13 108.26 541.11 108.35 541.11 108.37 541.09 108.43 541.09 108.45 541.09 108.46 541.08 108.51 541.07 108.54 541.05 108.66 541.04 108.75 541.03 108.8 541.03 108.81 541.02 108.85 540.93 109.35 540.92 109.39 540.91 109.45 540.88 109.64 540.88 109.65 540.83 109.93 540.82 109.96 540.82 109.98 540.81 110 540.78 110.15 540.73 110.38 540.73 110.39 540.73 110.48 540.72 110.77 540.71 110.89 540.71 110.91 540.71 110.98 540.7 111.28 540.7 111.4 540.7 111.41 540.69 111.42 540.69 111.53 540.69 111.57 540.68 111.66 540.68 111.69 540.68 111.77 540.68 111.88 540.67 112.13 540.67 112.19 540.68 112.42 540.68 112.46 540.68 112.66 540.68 112.68 540.68 112.8 540.68 112.87 540.68 112.89 540.68 113.07 540.68 113.22 540.68 113.24 540.68 113.57 540.68 113.6 540.68 113.61 540.69 113.63 540.72 113.74 540.85 114.12 541.02 114.65 540.98 114.73 540.96 114.76 540.88 114.91 540.88 114.92 540.47 115.73 540.62 115.82 540.86 115.97 541.01 116.06 541.02 116.06 541.12 116.12 541.21 116.18 541.22 116.18 541.28 116.22 541.52 116.34 541.54 116.35 541.91 116.55 542.44 116.83 543.05 117.9 543.32 117.57 544.5 116.13 544.69 115.9 544.71 115.89 544.72 115.87 544.73 115.86 544.77 115.81 544.8 115.78 544.93 115.72 545.4 115.55 546.01 115.1 546.22 115.05 546.27 115.03 546.45 114.9 546.64 114.75 546.93 114.52 547.49 113.97 547.51 113.96 547.58 113.89 547.59 113.88 547.74 113.77 547.83 113.7 548.31 113.37 548.33 113.35 548.8 113.03 548.46 112.29 548.27 111.88 548.21 111.75 548.1 111.52 548.1 111.5 548.08 111.45 548.04 111.37 548.03 111.33 548.03 111.33 548.03 111.26 548.02 111.2 548.02 111.15 548.05 111.05 548.06 111.01 548.07 110.99 548.08 110.93 548.08 110.85 548.08 110.76 548.08 110.66 548.08 110.62 548.08 110.6 548.08 110.53 548.09 110.42 548.08 110.37 548.08 110.35 548.07 110.34 548.23 110.38 548.5 110.5 548.66 110.57 549.06 110.74 549.43 110.91 549.48 110.93 549.58 110.97 549.89 111.11 549.96 111.14 550.33 111.3 550.52 111.37 550.64 111.49 550.76 111.61 550.79 111.64 550.79 111.64 550.85 111.7 550.88 111.74 550.94 111.79 551 111.85 551.01 111.86 551.02 111.86 551.02 111.87 551.08 111.92 551.16 112 551.18 112.02 551.28 112.11 551.36 112.18 551.45 112.25 551.51 112.3 551.61 112.38 551.66 112.42 551.68 112.44 551.72 112.46 551.82 112.54 551.86 112.57 551.91 112.61 552.04 112.71 552.05 112.72 552.1 112.76 552.11 112.77 552.19 112.84 552.25 112.89 552.33 112.94 552.44 113.04 552.48 113.07 552.64 113.2 552.68 113.23 552.76 113.29 552.79 113.32 552.93 113.44 553.05 113.53 553.14 113.6 553.15 113.61 553.16 113.63 553.17 113.63 553.23 113.69 553.32 113.76 553.45 113.88 553.58 114 553.68 114.09 553.69 114.1 553.7 114.12 553.73 114.14 553.83 114.23 553.96 114.34 554.05 114.43 554.13 114.5 554.14 114.52 554.21 114.57 554.24 114.6 554.3 114.63 554.37 114.67 554.37 114.68 554.39 114.69 554.42 114.71 554.49 114.75 554.55 114.79 554.62 114.84 554.69 114.88 554.76 114.93 554.81 114.96 554.84 114.96 554.85 114.97 554.84 114.94 554.84 114.91 554.83 114.89 554.82 114.87 554.82 114.86 554.82 114.83 554.82 114.8 554.82 114.75 554.82 114.72 554.83 114.69 554.85 114.65 554.86 114.62 554.89 114.59 554.92 114.55 554.95 114.51 555 114.43 555.03 114.39 555.06 114.32 555.1 114.26 555.13 114.2 555.14 114.19 555.17 114.1 555.21 114 555.24 113.91 555.29 113.76 555.34 113.63 555.39 113.54 555.42 113.48 555.45 113.44 555.49 113.39 555.54 113.34 555.59 113.28 555.63 113.22 555.66 113.15 555.66 113.06 555.67 112.99 555.68 112.91 555.72 112.83 555.77 112.78 555.85 112.71 555.94 112.61 555.98 112.53 556.01 112.46 556.05 112.41 556.09 112.35 556.09 112.34 556.12 112.28 556.15 112.2 556.17 112.13 556.17 112.08 556.17 112.04 556.15 112.01 556.13 111.98 556.09 111.95 556.05 111.91 556.03 111.89 556.02 111.88 555.98 111.84 555.96 111.82 555.95 111.8 555.95 111.8 555.99 111.77 556.01 111.74 556.02 111.71 556.03 111.69 556.02 111.67 556.02 111.63 556.02 111.58 556.05 111.45 556.06 111.41 556.08 111.39 556.15 111.34 556.21 111.3 556.24 111.23 556.26 111.18 556.3 111.11 556.31 111.1 556.36 111.08 556.36 111.07 556.47 111.01 556.6 110.93 556.62 110.92 556.65 110.91 556.68 110.89 557 110.7 557.21 110.56 557.26 110.54 557.29 110.52 557.32 110.5 557.35 110.48 557.36 110.47 557.37 110.44 557.38 110.41 557.39 110.36 557.41 110.32 557.43 110.29 557.47 110.28 557.52 110.27 557.56 110.28 557.61 110.27 557.64 110.26 557.68 110.24 557.71 110.23 557.75 110.24 557.79 110.25 557.82 110.28 557.84 110.31 557.86 110.32 557.9 110.33 557.93 110.34 557.97 110.34 558.02 110.36 558.09 110.38 558.17 110.4 558.3 110.42 558.37 110.42 558.41 110.41 558.45 110.39 558.51 110.34 558.52 110.32 558.54 110.28 558.55 110.31 558.55 110.32 558.56 110.34 558.57 110.37 558.57 110.4 558.58 110.41 558.6 110.44 558.64 110.47 558.66 110.49 558.67 110.49 558.7 110.52 558.75 110.55 558.77 110.57 558.79 110.58 558.82 110.58 558.84 110.56 558.85 110.54 558.9 110.48 558.93 110.44 558.96 110.41 558.97 110.4 558.97 110.39 558.98 110.38 559 110.36 559.06 110.28 559.09 110.24 559.1 110.21 559.07 110.2 559.06 110.18 559.03 110.16 559.01 110.11 558.99 110.08 558.98 110.03 558.99 109.98 559.02 109.94 559.05 109.89 559.09 109.86 559.1 109.84 559.16 109.74 559.2 109.66 559.24 109.6 559.25 109.59 559.29 109.55 559.31 109.51 559.31 109.42 559.31 109.4 559.32 109.26 559.35 109.16 559.35 109.09 559.33 109.03 559.3 108.99 559.3 108.95 559.32 108.93 559.33 108.91 559.37 108.85 559.39 108.81 559.38 108.76 559.35 108.73 559.31 108.7 559.29 108.67 559.27 108.63 559.26 108.57 559.26 108.56 559.28 108.49 559.28 108.48 559.28 108.43 559.27 108.41 559.24 108.39 559.2 108.36 559.15 108.32 559.11 108.27 559.09 108.23 559.09 108.19 559.11 108.17 559.16 108.15 559.16 108.15 559.17 108.14 559.18 108.13 559.19 108.13 559.22 108.1 559.24 108.07 559.26 108.04 559.29 108.02 559.3 108.01 559.35 107.99 559.39 107.95 559.39 107.92 559.38 107.88 559.37 107.86 559.37 107.82 559.36 107.77 559.31 107.66 559.28 107.54 559.26 107.46 559.25 107.43 559.23 107.41 559.2 107.38 559.14 107.31 559.13 107.3 559.12 107.3 559.07 107.21 559.02 107.12 558.94 106.99 558.92 106.94 558.92 106.93 558.93 106.9 558.95 106.88 559 106.86 559.05 106.85 559.08 106.84 559.09 106.84 559.15 106.83 559.19 106.8 559.19 106.78 559.19 106.75 559.15 106.69 559.14 106.67 559.13 106.63 559.11 106.57 559.08 106.54 559.07 106.54 559.06 106.54 559.02 106.54 558.98 106.54 558.95 106.53 558.9 106.5 558.89 106.47 558.88 106.44 558.91 106.42 558.94 106.39 558.96 106.37 558.98 106.34 559.01 106.3 559.03 106.27 559.05 106.24 559.07 106.21 559.09 106.19 559.11 106.17 559.12 106.16 559.14 106.14 559.17 106.13 559.21 106.11 559.25 106.11 559.3 106.11 559.34 106.11 559.39 106.11 559.45 106.12 559.51 106.12 559.56 106.11 559.62 106.11 559.66 106.11 559.71 106.09 559.75 106.08 559.81 106.06 559.86 106.04 559.91 106.03 559.97 106.01 560.01 106 560.06 105.99 560.11 105.97 560.16 105.95 560.2 105.93 560.26 105.9 560.32 105.87 560.36 105.85 560.38 105.83 560.39 105.8 560.4 105.77 560.41 105.73 560.41 105.68 560.43 105.65 560.46 105.62 560.48 105.6 560.51 105.59 560.55 105.58 560.6 105.57 560.65 105.55 560.68 105.54 560.71 105.52 560.73 105.5 560.75 105.48 560.76 105.46 560.78 105.43 560.81 105.41 560.83 105.38 560.86 105.37 560.89 105.35 560.93 105.33 560.96 105.33 561 105.33 561.05 105.33 561.1 105.33 561.15 105.33 561.19 105.32 561.22 105.31 561.26 105.29 561.28 105.26 561.31 105.24 561.34 105.23 561.39 105.22 561.43 105.22 561.48 105.21 561.51 105.21 561.55 105.23 561.58 105.25 561.6 105.28 561.61 105.32 561.63 105.36 561.64 105.4 561.66 105.44 561.67 105.47 561.68 105.52 561.69 105.55 561.7 105.59 561.71 105.62 561.72 105.67 561.73 105.71 561.74 105.75 561.75 105.8 561.75 105.85 561.76 105.89 561.76 105.92 561.78 105.97 561.79 106 561.81 106.03 561.83 106.06 561.86 106.09 561.89 106.12 561.92 106.16 561.94 106.19 561.97 106.23 562 106.27 562.03 106.32 562.06 106.37 562.1 106.42 562.11 106.45 562.14 106.49 562.16 106.52 562.17 106.53 562.18 106.55 562.19 106.56 562.22 106.59 562.24 106.62 562.27 106.65 562.3 106.69 562.33 106.72 562.35 106.75 562.38 106.77 562.4 106.81 562.43 106.85 562.46 106.9 562.48 106.94 562.51 106.99 562.54 107.04 562.57 107.09 562.59 107.12 562.61 107.14 562.65 107.17 562.69 107.19 562.74 107.22 562.78 107.23 562.81 107.24 562.85 107.26 562.87 107.29 562.89 107.34 562.91 107.41 562.94 107.45 562.96 107.47 562.96 107.5 562.97 107.54 562.98 107.57 563.02 107.6 563.08 107.65 563.14 107.7 563.21 107.74 563.27 107.77 563.33 107.8 563.36 107.84 563.4 107.87 563.42 107.88 563.48 107.9 563.55 107.92 563.59 107.92 563.68 107.96 563.75 107.99 563.81 108.01 563.89 108.03 563.9 108.04 563.95 108.06 564.02 108.08 564.06 108.08 564.12 108.1 564.17 108.12 564.25 108.13 564.29 108.14 564.35 108.17 564.4 108.19 564.44 108.21 564.48 108.24 564.52 108.26 564.55 108.28 564.58 108.31 564.63 108.34 564.7 108.37 564.75 108.38 564.8 108.39 564.85 108.41 564.92 108.44 564.96 108.47 565 108.5 565.06 108.56 565.11 108.61 565.14 108.65 565.17 108.69 565.19 108.73 565.23 108.76 565.27 108.79 565.3 108.81 565.34 108.82 565.39 108.85 565.42 108.87 565.44 108.91 565.5 108.94 565.57 108.99 565.66 109.05 565.76 109.08 565.77 109.09 565.81 109.11 565.84 109.12 565.88 109.12 565.91 109.13 565.96 109.15 566.02 109.19 566.07 109.21 566.13 109.24 566.16 109.26 566.19 109.29 566.21 109.31 566.26 109.33 566.31 109.35 566.37 109.4 566.42 109.42 566.54 109.45 566.6 109.46 566.63 109.46 566.68 109.46 566.73 109.46 566.79 109.47 566.87 109.48 566.96 109.49 567.02 109.5 567.07 109.51 567.11 109.53 567.16 109.56 567.2 109.59 567.24 109.61 567.31 109.63 567.36 109.66 567.41 109.68 567.45 109.71 567.48 109.72 567.5 109.72 567.55 109.74 567.66 109.77 567.72 109.78 567.78 109.78 567.85 109.78 567.92 109.78 568 109.79 568.06 109.8 568.1 109.79 568.16 109.78 568.26 109.77 568.32 109.76 568.37 109.74 568.4 109.73 568.44 109.74 568.49 109.75 568.53 109.73 568.59 109.72 568.63 109.72 568.67 109.71 568.7 109.69 568.72 109.68 568.76 109.68 568.83 109.68 568.92 109.69 568.97 109.7 569 109.71 569.04 109.72 569.08 109.72 569.15 109.72 569.24 109.72 569.31 109.72 569.37 109.74 569.42 109.74 569.5 109.74 569.57 109.74 569.63 109.74 569.68 109.73 569.73 109.72 569.78 109.73 569.85 109.74 569.9 109.73 569.98 109.76 570.03 109.8 570.09 109.82 570.14 109.84 570.18 109.86 570.22 109.9 570.25 109.93 570.26 109.95 570.27 109.98 570.29 110.01 570.31 110.06 570.33 110.1 570.36 110.16 570.37 110.2 570.38 110.27 570.38 110.28 570.39 110.28 570.48 110.31 570.52 110.32 570.57 110.32 570.65 110.31 570.73 110.33 570.81 110.34 570.88 110.35 570.96 110.35 571.04 110.37 571.13 110.39 571.2 110.4 571.26 110.42 571.34 110.45 571.58 110.53 571.6 110.53 571.72 110.52 571.84 110.51 571.97 110.5 572.05 110.53 572.15 110.57 573.57 111.18 573.71 111.25 574 111.41 574.01 111.41 574.02 111.42 574.07 111.45 574.09 111.46 574.15 111.48 574.18 111.49 574.6 111.46 575.1 111.43 575.18 111.43 575.63 111.4 575.8 111.39 576.45 111.35 576.48 111.35 576.82 111.33 576.85 111.33 577.56 111.29 577.6 111.29 579.52 110.37 580 109.77 580.43 109.23 580.44 109.22 580.6 109.02 580.9 108.92 580.93 108.91 581.61 108.67 581.79 108.83 582.34 109.32 582.36 109.33 583.34 109.71 583.82 109.88 583.83 109.91 583.84 109.92 584.28 110.94 584.5 111.43 584.52 111.42 584.55 111.4 585.07 111.16 586.5 112.48 587.14 113.08 588.29 114.16 588.31 114.18 588.33 114.21 588.35 114.24 588.6 114.58 588.67 114.68 588.69 114.71 588.74 114.79 588.76 114.82 588.82 114.89 588.83 114.91 589.05 115.23 589.14 115.36 589.15 115.37 589.22 115.47 589.25 115.51 589.42 115.75 589.45 115.79 590.29 116.45 590.3 116.46 590.3 116.49 590.36 117.26 590.37 117.28 590.4 117.7 590.4 117.74 590.42 117.79 590.43 117.87 590.9 119.95 590.91 120.01 591.79 123.27 591.81 123.33 591.84 123.74 591.85 123.83 591.87 124.05 591.87 124.09 591.87 124.21 591.87 124.22 591.87 124.22 591.88 124.33 591.88 124.39 591.87 124.53 591.86 124.73 591.85 124.82 591.85 124.9 591.84 125 591.84 125.08 591.83 125.14 591.82 125.22 591.81 125.3 591.79 125.38 591.78 125.46 591.77 125.52 591.76 125.59 591.73 125.68 591.73 125.69 591.7 125.79 591.66 125.95 591.63 126.05 591.61 126.1 591.61 126.12 591.6 126.13 591.56 126.23 591.53 126.3 591.5 126.37 591.47 126.45 591.43 126.52 591.4 126.6 591.39 126.63 591.38 126.66 591.38 126.7 591.38 126.73 591.38 126.75 591.34 126.85 591.29 126.97 591.27 127 591.24 127.02 591.23 127.03 591.21 127.05 591.19 127.06 591.16 127.08 591.14 127.08 591.11 127.09 591.07 127.11 591.03 127.12 591.02 127.13 590.98 127.14 590.94 127.14 590.9 127.15 590.86 127.16 590.83 127.16 590.78 127.16 590.75 127.17 590.45 127.71 590.45 127.71 590.36 127.95 590.32 128.03 590.3 128.1 590.27 128.16 590.24 128.24 590.21 128.31 590.2 128.36 590.19 128.37 590.17 128.45 590.16 128.51 590.15 128.52 590.14 128.59 590.13 128.66 590.12 128.72 590.11 128.8 590.11 128.87 590.1 128.94 590.1 128.98 590.11 129.02 590.11 129.06 590.12 129.1 590.13 129.15 590.14 129.2 590.15 129.23 590.17 129.27 590.19 129.32 590.21 129.36 590.23 129.4 590.24 129.45 590.25 129.48 590.26 129.51 590.27 129.54 590.27 129.58 590.26 129.64 590.26 129.7 590.26 129.77 590.25 129.85 590.26 129.9 590.27 129.93 590.29 130.02 590.33 130.12 590.36 130.19 590.4 130.26 590.43 130.34 590.49 130.42 590.54 130.47 590.58 130.52 590.62 130.56 590.64 130.59 590.66 130.62 590.66 130.65 590.66 130.67 590.65 130.71 590.65 130.73 590.64 130.76 590.64 130.78 590.65 130.81 590.65 130.84 590.66 130.88 590.68 130.93 590.7 130.96 590.71 131 590.74 131.04 590.8 131.08 590.86 131.11 590.92 131.15 590.96 131.18 591.02 131.22 591.05 131.29 591.09 131.35 591.15 131.41 591.22 131.46 591.28 131.51 591.34 131.54 591.43 131.58 591.49 131.61 591.53 131.63 591.57 131.65 591.59 131.68 591.58 131.71 591.57 131.73 591.55 131.73 591.39 131.81 591.33 131.84 591.26 131.88 591.2 131.91 591.15 131.95 591.08 132.01 591.03 132.04 590.97 132.09 590.3 132.85 590.26 132.91 590.23 133 590.21 133.07 590.2 133.1 590.19 133.11 590.18 133.15 590.18 133.22 590.17 133.29 590.16 133.47 590.16 133.51 590.16 133.58 590.16 133.64 590.16 133.71 590.17 133.78 590.16 133.84 590.17 133.9 590.17 133.93 590.17 133.96 590.18 134.09 590.19 134.17 590.21 134.26 590.23 134.33 590.25 134.4 590.28 134.48 590.31 134.54 590.33 134.61 590.35 134.67 590.37 134.74 590.41 134.83 590.44 134.88 590.46 134.94 590.49 135 590.52 135.05 590.55 135.1 590.59 135.17 590.62 135.22 590.66 135.29 590.69 135.34 590.72 135.41 590.75 135.45 590.78 135.52 590.79 135.58 590.82 135.63 590.84 135.7 590.84 135.77 590.83 135.83 590.83 135.88 590.82 135.93 590.8 135.99 590.78 136.06 590.78 136.12 590.77 136.18 590.76 136.26 590.76 136.33 590.75 136.39 590.73 136.44 590.72 136.5 590.71 136.54 590.73 136.58 590.75 136.65 590.76 136.72 590.77 136.79 590.89 137.19 590.89 137.2 590.89 137.21 590.93 137.37 590.83 137.45 590.79 137.5 590.68 137.6 590.63 137.64 590.59 137.71 590.54 137.77 590.49 137.84 590.35 138.03 590.32 138.08 590.29 138.14 590.25 138.21 590.21 138.29 590.18 138.35 590.15 138.43 590.12 138.5 590.09 138.57 590.06 138.66 590.03 138.73 590 138.8 589.97 138.89 589.94 138.97 589.93 139.03 589.92 139.11 589.9 139.18 589.89 139.25 589.87 139.32 589.86 139.41 589.84 139.47 589.93 139.72 590.07 140.05 590.16 140.19 590.24 140.33 590.27 140.38 590.73 140.8 591.2 141.23 590.8 142.16 590.74 142.15 590.09 142.04 590.01 142.1 590 142.12 589.97 142.14 589.95 142.15 589.91 142.17 589.85 142.21 589.79 142.23 589.72 142.26 589.72 142.26 589.65 142.29 589.64 142.29 589.59 142.31 589.56 142.32 589.52 142.33 589.48 142.34 589.46 142.34 589.39 142.36 589.38 142.36 589.33 142.38 589.26 142.4 589.26 142.4 589.24 142.4 589.19 142.42 589.14 142.44 589.07 142.47 589.01 142.5 588.94 142.51 588.93 142.52 588.88 142.53 588.83 142.54 588.8 142.55 588.74 142.56 588.65 142.58 588.61 142.59 588.57 142.6 588.5 142.61 588.43 142.63 588.42 142.64 588.38 142.65 588.36 142.67 588.31 142.71 588.28 142.74 588.26 142.76 588.2 142.82 588.17 142.84 588.14 142.87 588.09 142.92 588.05 142.97 587.98 143.03 587.97 143.04 587.91 143.08 587.85 143.13 587.8 143.18 587.78 143.2 587.72 143.26 587.66 143.31 587.65 143.32 587.59 143.37 587.55 143.4 587.52 143.43 587.45 143.49 587.4 143.54 587.38 143.56 587.34 143.59 587.29 143.63 587.28 143.64 587.23 143.69 587.17 143.74 587.16 143.75 587.1 143.81 587.06 143.85 587 143.91 586.93 143.97 586.86 144.03 586.8 144.08 586.77 144.11 586.75 144.14 586.69 144.19 586.64 144.24 586.59 144.29 586.5 144.38 586.45 144.43 586.41 144.46 586.37 144.51 586.33 144.55 586.29 144.6 586.22 144.71 586.19 144.76 586.14 144.82 586.1 144.89 586.06 144.96 586.02 145.02 586 145.07 585.99 145.08 585.95 145.15 585.92 145.21 585.89 145.27 585.87 145.3 585.85 145.32 585.81 145.38 585.81 145.38 585.76 145.42 585.71 145.47 585.67 145.52 585.65 145.54 585.6 145.59 585.53 145.65 585.52 145.67 585.49 145.71 585.38 145.83 585.34 145.88 585.32 145.92 585.31 145.94 585.29 145.99 585.3 146 585.3 146.06 585.3 146.08 585.3 146.09 585.3 146.1 585.31 146.16 585.32 146.24 585.33 146.34 585.33 146.44 585.34 146.45 585.35 146.54 585.35 146.64 585.36 146.73 585.36 146.74 585.37 146.79 585.37 146.8 585.37 146.81 585.37 146.83 585.37 146.86 585.37 146.9 585.36 146.94 585.35 146.98 585.33 147.04 585.3 147.15 585.3 147.16 585.23 147.44 585.2 147.53 585.19 147.58 585.15 147.78 585.14 147.8 585.1 147.96 585.07 148.06 585.01 148.28 585.21 148.83 585.25 148.95 585.21 149.6 585.18 149.97 585.18 150 585.18 150.01 585.17 150.3 585.17 151.49 585.09 151.53 585.07 151.54 584.97 151.6 584.97 151.65 584.95 152.67 585.42 153.65 585.43 154.63 585.4 154.64 585.31 154.67 585.18 154.72 585.05 154.76 584.97 154.79 584.89 154.82 584.46 154.72 584.09 154.63 583.97 154.72 583.96 154.75 583.94 154.8 583.94 154.81 583.91 154.89 583.88 154.97 583.85 155.06 583.83 155.08 583.82 155.09 583.7 155.18 583.66 155.21 583.56 155.28 583.44 155.38 583.25 155.52 583.23 155.53 582.99 155.71 582.92 155.77 582.9 155.79 582.88 155.83 582.86 155.91 582.86 155.94 582.85 155.96 582.85 155.98 582.76 156.36 582.55 156.55 582.51 156.58 582.48 156.62 582.26 156.82 582.13 156.93 582.01 157.04 581.92 157.12 581.9 157.13 581.93 157.2 581.94 157.22 581.95 157.23 582.51 158.48 582.55 158.56 583.7 160 583.28 160.42 583.25 160.47 583.05 160.94 582.91 161.56 582.9 161.6 582.69 161.81 582.45 162.05 582.34 162.17 582.33 162.19 582.33 162.21 582.33 162.22 582.31 162.34 582.2 162.96 582.19 163 582.2 163.17 582.2 163.27 582.2 163.52 582.11 164.14 582.1 164.16 582.07 164.37 582.08 164.41 582.29 164.96 582.09 165.11 581.98 165.2 581.95 165.22 581.7 165.41 581.65 165.45 580.64 166.22 580.23 166.53 580.19 166.53 580 166.56 579.98 166.56 579.81 166.59 579.25 166.66 579.23 166.72 579.08 167.17 578.9 167.72 578.86 168.25 578.86 168.27 578.82 168.67 578.8 168.95 578.73 169.88 578.72 169.89 578.7 169.92 578.66 169.94 578.63 169.96 578.62 169.96 578.54 170 578.47 170.04 578.35 170.11 578.04 170.27 577.39 170.62 577.37 170.63 577 170.83 576.91 170.87 576.73 170.97 576.65 171.01 576.11 171.3 576.07 171.32 575.99 171.37 575.96 171.38 575.73 171.5 575.56 171.6 575.35 171.72 575.33 171.72 575.29 171.73 575.28 171.73 575.13 171.76 575.11 171.77 575.09 171.77 574.77 171.83 574.64 171.86 574.13 171.96 574.16 172.03 574.27 172.29 574.81 173.53 574.6 173.6 574.49 173.64 574.47 173.65 574.33 173.7 574.31 173.71 574.3 173.72 574.26 173.73 574.23 173.75 574.22 173.75 574.09 173.83 574.08 173.83 573.8 174 573.78 174.01 573.75 174.02 573.05 174.42 573.04 174.43 572.79 174.61 572.05 174.91 572.03 174.92 571.99 174.94 571.98 174.95 571.79 175.04 571.77 175.09 571.78 175.28 571.78 175.35 571.78 175.73 571.73 175.76 571.72 175.76 571.67 175.8 571.43 175.97 571.09 176.2 570.62 176.52 570.14 176.85 570.09 176.87 569.93 176.91 569.52 177.01 569.29 177.07 568.9 177.16 568.6 177.24 568.48 177.37 568.43 177.42 568.31 177.56 568.08 177.81 568.06 177.84 567.92 178.01 567.87 178.07 567.82 178.12 567.78 178.17 567.75 178.22 567.72 178.25 567.64 178.35 567.39 178.65 567.01 179.1 566.63 179.57 566.62 179.59 566.61 179.6 566.6 179.66 566.54 179.84 566.31 180.58 566.24 180.81 566.23 180.85 566.21 180.9 566.08 181.14 566 181.42 565.82 181.72 565.71 181.94 565.96 183.16 566.18 184.13 566.24 184.25 566.28 184.33 566.35 184.46 566.39 184.53 566.45 184.61 566.52 184.73 566.6 184.85 566.66 184.94 566.72 185.03 566.75 185.08 566.81 185.17 566.82 185.19 566.87 185.26 566.93 185.37 566.94 185.38 566.95 185.39 567 185.48 567.09 185.62 567.16 185.72 567.24 185.83 567.3 185.93 567.36 186.02 567.43 186.12 567.51 186.23 567.53 186.26 567.54 186.28 567.57 186.33 567.62 186.4 567.65 186.44 567.68 186.48 567.77 186.61 567.82 186.69 567.87 186.75 567.96 186.9 568.07 187.05 568.08 187.07 568.12 187.14 568.13 187.15 568.16 187.2 568.27 187.35 568.31 187.41 568.41 187.56 568.55 187.75 568.66 187.92 568.74 188.04 568.86 188.19 568.98 188.35 569.1 188.5 569.23 188.66 569.31 188.76 569.35 188.81 569.4 188.88 569.49 188.99 569.59 189.11 569.62 189.15 569.64 189.18 569.77 189.34 569.77 189.35 569.78 189.36 569.86 189.45 569.94 189.61 569.98 189.68 570 189.73 570.04 189.79 570.14 189.96 570.14 189.97 570.16 190.01 570.23 190.15 570.34 190.33 570.37 190.41 570.4 190.45 570.51 190.63 570.55 190.72 570.6 190.79 570.62 190.81 570.71 190.91 570.8 191.01 570.89 191.11 570.92 191.14 570.94 191.18 570.95 191.2 571 191.28 571.05 191.36 571.06 191.37 571.08 191.39 571.16 191.51 571.19 191.55 571.22 191.59 571.31 191.71 571.4 191.85 571.49 191.97 571.5 191.99 571.54 192.03 571.55 192.06 571.61 192.13 571.61 192.14 571.62 192.15 571.66 192.22 571.74 192.34 571.84 192.49 571.92 192.62 571.97 192.7 572 192.73 572 192.74 572.01 192.75 572.1 192.9 572.19 193.04 572.19 193.05 572.21 193.07 572.24 193.13 572.27 193.18 572.32 193.26 572.38 193.35 572.45 193.47 572.51 193.57 572.58 193.67 572.65 193.79 572.66 193.8 572.73 193.91 572.8 194.02 572.81 194.05 572.85 194.11 572.86 194.12 572.86 194.13 572.89 194.17 572.91 194.2 572.92 194.22 572.93 194.23 572.99 194.29 573.08 194.39 573.18 194.49 573.25 194.57 573.26 194.58 573.29 194.61 573.32 194.64 573.33 194.65 573.37 194.69 573.4 194.73 573.42 194.76 573.44 194.78 573.46 194.8 573.47 194.81 573.51 194.85 573.52 194.86 573.5 194.86 573.49 194.86 573.48 194.87 573.45 194.87 573.41 194.86 573.34 194.88 573.28 194.89 573.26 194.9 573.2 194.99 573.15 195.1 573.13 195.12 573.1 195.13 573.07 195.14 573.02 195.13 572.99 195.11 572.97 195.09 572.94 195.08 572.91 195.08 572.89 195.08 572.87 195.09 572.84 195.11 572.83 195.14 572.82 195.17 572.82 195.24 572.82 195.29 572.82 195.31 572.8 195.34 572.79 195.35 572.76 195.37 572.74 195.38 572.73 195.4 572.7 195.45 572.68 195.58 572.67 195.65 572.66 195.7 572.66 195.71 572.65 195.73 572.64 195.76 572.6 195.82 572.56 195.89 572.52 195.93 572.49 195.99 572.45 196.08 572.42 196.23 572.41 196.32 572.38 196.47 572.34 196.64 572.32 196.7 572.29 196.78 572.25 196.85 572.2 196.94 572.19 197 572.14 197.18 572.13 197.23 572.11 197.28 572.09 197.31 572.06 197.35 572.05 197.38 572.03 197.39 572.02 197.4 572.01 197.41 572 197.41 571.99 197.42 571.98 197.43 571.95 197.45 571.93 197.48 571.89 197.52 571.85 197.58 571.81 197.62 571.81 197.63 571.78 197.67 571.76 197.71 571.75 197.73 571.74 197.75 571.73 197.76 571.72 197.77 571.7 197.8 571.65 197.88 571.63 197.91 571.62 197.94 571.61 197.96 571.6 197.97 571.55 197.98 571.47 197.99 571.43 198 571.4 198.01 571.38 198.02 571.36 198.04 571.33 198.05 571.29 198.06 571.23 198.11 571.19 198.13 571.16 198.15 571.11 198.18 571.04 198.19 570.96 198.21 570.92 198.22 570.85 198.21 570.82 198.21 570.79 198.22 570.76 198.23 570.73 198.25 570.71 198.27 570.68 198.31 570.67 198.36 570.66 198.41 570.66 198.44 570.64 198.46 570.61 198.48 570.57 198.5 570.54 198.51 570.49 198.52 570.45 198.51 570.41 198.49 570.37 198.46 570.3 198.39 570.21 198.31 570.15 198.24 570.13 198.22 570.11 198.21 570.08 198.2 570.06 198.2 570.03 198.21 570 198.23 569.98 198.26 569.95 198.31 569.92 198.37 569.89 198.42 569.86 198.45 569.8 198.49 569.68 198.5 569.5 198.5 569.44 198.49 569.41 198.5 569.38 198.5 569.37 198.52 569.35 198.59 569.34 198.65 569.32 198.68 569.3 198.7 569.27 198.72 569.21 198.74 569.11 198.76 569.06 198.76 569 198.75 568.95 198.73 568.88 198.68 568.82 198.61 568.78 198.53 568.75 198.45 568.68 198.28 568.66 198.24 568.62 198.2 568.58 198.18 568.54 198.16 568.51 198.15 568.47 198.14 568.43 198.13 568.42 198.13 568.36 198.13 568.26 198.15 568.2 198.15 568.11 198.12 568.07 198.07 568.05 198.05 568.02 198.05 568 198.04 567.99 198.05 567.96 198.09 567.94 198.17 567.91 198.22 567.86 198.28 567.82 198.33 567.76 198.37 567.73 198.38 567.71 198.4 567.7 198.4 567.68 198.4 567.66 198.4 567.65 198.4 567.63 198.39 567.6 198.38 567.59 198.37 567.58 198.36 567.56 198.34 567.52 198.26 567.5 198.22 567.48 198.19 567.46 198.17 567.44 198.15 567.42 198.14 567.41 198.14 567.39 198.13 567.35 198.13 567.33 198.13 567.3 198.14 567.26 198.15 567.22 198.17 567.18 198.2 567.13 198.22 567.09 198.25 567.02 198.29 567.03 198.3 567.05 198.37 567.06 198.39 567.07 198.42 567.08 198.44 567.09 198.46 567.1 198.48 567.1 198.5 567.1 198.52 567.1 198.53 567.1 198.55 567.09 198.57 567.08 198.59 567.07 198.6 567.04 198.63 566.94 198.71 566.9 198.73 566.88 198.75 566.86 198.77 566.83 198.8 566.81 198.82 566.79 198.84 566.77 198.85 566.73 198.87 566.69 198.9 566.63 198.92 566.58 198.95 566.53 198.97 566.48 198.98 566.45 199 566.43 199.01 566.4 199.03 566.38 199.05 566.37 199.07 566.42 199.19 566.45 199.26 566.51 199.41 566.53 199.45 566.55 199.5 566.57 199.57 566.59 199.64 566.59 199.72 566.59 199.77 566.61 199.85 566.63 199.91 566.68 199.98 566.72 200.04 566.74 200.11 566.75 200.13 566.76 200.22 566.77 200.33 566.78 200.39 566.8 200.47 566.83 200.54 566.88 200.64 566.89 200.7 566.9 200.75 566.92 200.82 566.93 200.91 566.93 200.99 566.93 201.07 566.92 201.24 566.91 201.47 566.9 201.6 566.9 201.63 566.87 201.63 566.85 201.63 566.74 201.64 566.5 201.65 566.29 201.66 566.09 201.67 565.94 201.58 565.78 201.46 565.59 201.33 565.43 201.39 565.36 201.42 565.29 201.45 565.1 201.38 564.84 201.29 564.76 201.26 564.72 201.25 564.67 201.23 564.57 201.27 564.47 201.31 564.35 201.36 564.23 201.47 564.12 201.57 563.94 201.72 563.8 201.82 563.76 201.84 563.59 201.97 563.46 202.01 563.36 202.04 563.3 202.03 563.26 202.02 563.24 202.02 563.06 201.97 562.87 201.92 562.67 201.87 562.57 201.78 562.31 201.56 562.07 201.34 562.05 201.33 561.83 201.14 561.71 201.05 561.65 201.04 561.61 201.04 561.39 201.04 561.13 201.03 560.9 201.02 560.73 201.02 560.6 201.01 560.45 201.11 560.39 201.15 560.35 201.18 560.32 201.2 560.06 201.37 560.05 201.37 560.04 201.38 559.88 201.49 559.68 201.62 559.51 201.73 559.31 201.86 559.12 201.98 558.93 202.11 558.77 202.22 558.75 202.23 558.56 202.36 558.34 202.5 558.28 202.54 558.11 202.65 557.87 202.81 557.65 202.96 557.43 203.1 557.29 203.19 557.14 203.29 556.95 203.41 556.82 203.5 556.68 203.6 556.54 203.69 556.42 203.77 556.29 203.85 556.33 203.81 556.44 203.68 556.66 203.44 556.78 203.31 556.88 203.19 557 203.07 557.04 202.99 557.08 202.92 557.12 202.86 557.15 202.81 557.19 202.75 557.26 202.61 557.33 202.49 557.41 202.35 557.48 202.23 557.54 202.14 557.56 202.1 557.66 201.97 557.73 201.87 557.81 201.77 558.02 201.5 558.16 201.31 558.3 201.13 558.45 200.93 558.49 200.88 558.62 200.7 558.78 200.49 558.83 200.44 558.92 200.35 559.04 200.24 559.18 200.1 559.26 200.03 559.33 199.92 559.45 199.7 559.47 199.67 559.55 199.53 559.68 199.32 559.83 199.06 559.94 198.87 559.93 198.75 559.92 198.6 559.9 198.49 559.9 198.38 559.89 198.3 559.87 198.21 559.86 198.14 559.83 198.05 559.78 197.88 559.73 197.72 559.7 197.61 559.69 197.59 559.66 197.49 559.63 197.38 559.58 197.26 559.55 197.14 559.51 197.03 559.47 196.9 559.43 196.77 559.4 196.65 559.38 196.55 559.28 196.36 559.08 196.26 558.98 196.2 558.82 196.1 558.68 196.01 558.57 195.94 558.48 195.9 558.37 195.85 558.21 195.77 558.11 195.76 557.99 195.76 557.83 195.75 557.65 195.75 557.5 195.77 557.29 195.81 557.11 195.84 556.91 195.86 556.71 195.87 556.52 195.71 556.32 195.64 556.13 195.58 555.99 195.54 555.81 195.48 555.72 195.45 555.57 195.39 555.46 195.34 555.3 195.26 555.15 195.2 555 195.13 554.84 195.06 554.81 195.05 554.69 194.99 554.55 194.92 554.43 194.87 554.35 194.84 554.33 194.83 554.31 194.8 554.29 194.78 554.27 194.77 554.25 194.77 554.21 194.81 554.18 194.84 554.14 194.88 554.12 194.94 554.11 194.98 554.1 195 554.1 195.01 554.09 195.03 554.08 195.05 554.06 195.07 554.04 195.09 554.01 195.11 553.98 195.12 553.96 195.14 553.93 195.16 553.9 195.18 553.86 195.21 553.81 195.23 553.76 195.27 553.72 195.29 553.67 195.31 553.63 195.33 553.6 195.35 553.56 195.36 553.54 195.36 553.49 195.36 553.45 195.36 553.4 195.35 553.37 195.35 553.33 195.36 553.3 195.37 553.27 195.39 553.25 195.41 553.22 195.44 553.2 195.46 553.18 195.49 553.17 195.52 553.14 195.56 553.12 195.58 553.08 195.61 553.05 195.63 553.01 195.67 552.98 195.68 552.93 195.69 552.87 195.69 552.82 195.68 552.77 195.68 552.73 195.67 552.7 195.67 552.71 195.69 552.72 195.72 552.73 195.75 552.74 195.79 552.74 195.82 552.76 195.86 552.76 195.89 552.76 195.91 552.77 195.95 552.78 195.99 552.78 196.02 552.78 196.06 552.79 196.1 552.79 196.14 552.79 196.17 552.78 196.21 552.79 196.24 552.79 196.27 552.78 196.31 552.77 196.34 552.78 196.38 552.78 196.41 552.78 196.44 552.79 196.5 552.79 196.53 552.79 196.55 552.8 196.57 552.81 196.6 552.82 196.63 552.83 196.66 552.84 196.68 552.84 196.7 552.84 196.71 552.83 196.74 552.83 196.76 552.82 196.78 552.82 196.81 552.81 196.83 552.8 196.86 552.79 196.89 552.78 196.93 552.78 196.96 552.78 196.98 552.79 197 552.79 197.02 552.8 197.04 552.81 197.07 552.83 197.1 552.85 197.12 552.86 197.14 552.89 197.16 552.9 197.18 552.92 197.2 552.93 197.22 552.95 197.25 552.96 197.27 552.96 197.3 552.97 197.32 552.96 197.36 552.95 197.38 552.94 197.41 552.93 197.44 552.93 197.47 552.94 197.5 552.95 197.57 552.96 197.6 552.96 197.64 552.97 197.66 552.98 197.72 553 197.76 553.01 197.82 553.02 197.89 553.03 197.95 553.03 198.01 553.03 198.07 553.03 198.14 553.02 198.18 553 198.21 552.99 198.24 552.97 198.27 552.96 198.31 552.95 198.34 552.92 198.38 552.9 198.41 552.88 198.45 552.85 198.47 552.81 198.48 552.78 198.5 552.74 198.5 552.7 198.51 552.67 198.52 552.64 198.53 552.61 198.55 552.58 198.55 552.56 198.56 552.53 198.57 552.5 198.59 552.48 198.6 552.46 198.61 552.44 198.62 552.38 198.66 552.37 198.68 552.35 198.69 552.33 198.73 552.33 198.76 552.33 198.78 552.34 198.83 552.35 198.85 552.36 198.88 552.37 198.9 552.39 198.91 552.41 198.95 552.44 198.97 552.47 199 552.48 199.02 552.49 199.05 552.5 199.07 552.51 199.11 552.5 199.13 552.5 199.16 552.5 199.19 552.49 199.22 552.49 199.25 552.48 199.28 552.47 199.31 552.46 199.33 552.43 199.35 552.41 199.36 552.4 199.38 552.37 199.42 552.34 199.45 552.32 199.49 552.29 199.54 552.27 199.58 552.23 199.63 552.2 199.66 552.18 199.69 552.17 199.72 552.14 199.76 552.13 199.78 552.1 199.81 552.08 199.83 552.05 199.86 552.04 199.87 552.01 199.89 551.99 199.91 551.93 199.95 551.91 199.98 551.89 199.99 551.87 200.02 551.85 200.04 551.83 200.07 551.81 200.08 551.79 200.12 551.78 200.14 551.77 200.18 551.76 200.2 551.75 200.24 551.75 200.26 551.74 200.3 551.73 200.33 551.72 200.36 551.7 200.4 551.68 200.44 551.66 200.47 551.64 200.51 551.61 200.54 551.59 200.56 551.56 200.59 551.54 200.62 551.52 200.64 551.49 200.67 551.47 200.71 551.43 200.74 551.42 200.77 551.38 200.81 551.36 200.84 551.34 200.87 551.31 200.9 551.29 200.93 551.27 200.96 551.24 200.99 551.21 201.01 551.18 201.04 551.13 201.09 551.09 201.14 551.04 201.17 551 201.2 550.98 201.21 550.96 201.23 550.93 201.25 550.92 201.26 550.89 201.28 550.86 201.31 550.82 201.34 550.78 201.36 550.74 201.39 550.7 201.4 550.66 201.41 550.61 201.43 550.57 201.44 550.53 201.45 550.51 201.47 550.48 201.51 550.46 201.53 550.44 201.56 550.42 201.59 550.39 201.61 550.35 201.64 550.34 201.64 550.32 201.65 550.29 201.65 550.26 201.65 550.24 201.64 550.22 201.64 550.19 201.62 550.16 201.6 550.13 201.57 550.1 201.54 550.08 201.51 550.06 201.48 550.03 201.44 550.01 201.41 549.99 201.39 549.97 201.37 549.94 201.36 549.92 201.35 549.89 201.36 549.86 201.36 549.83 201.36 549.8 201.37 549.78 201.37 549.75 201.38 549.72 201.39 549.69 201.4 549.66 201.41 549.64 201.41 549.62 201.41 549.59 201.41 549.58 201.41 549.55 201.39 549.51 201.37 549.48 201.34 549.46 201.32 549.44 201.3 549.43 201.28 549.42 201.26 549.4 201.24 549.39 201.22 549.38 201.2 549.37 201.18 549.35 201.15 549.34 201.12 549.31 201.09 549.28 201.07 549.24 201.03 549.22 201.02 549.19 201 549.16 201 549.13 200.99 549.11 200.98 549.08 200.98 549.04 200.97 549.02 200.97 548.99 200.97 548.95 200.98 548.92 200.98 548.89 200.98 548.86 200.98 548.83 200.98 548.8 200.99 548.75 201.01 548.73 201.02 548.71 201.03 548.68 201.04 548.66 201.05 548.64 201.06 548.61 201.08 548.57 201.09 548.53 201.1 548.49 201.1 548.47 201.1 548.42 201.1 548.39 201.09 548.36 201.09 548.33 201.08 548.29 201.07 548.26 201.06 548.21 201.03 548.18 201.02 548.14 201 548.12 200.99 548.08 200.97 548.04 200.95 548.02 200.94 548 200.93 547.98 200.9 547.95 200.87 547.93 200.83 547.92 200.81 547.91 200.8 547.91 200.79 547.9 200.78 547.88 200.75 547.87 200.74 547.85 200.71 547.82 200.66 547.81 200.65 547.79 200.63 547.77 200.6 547.74 200.55 547.71 200.53 547.67 200.49 547.64 200.47 547.6 200.43 547.59 200.42 547.58 200.41 547.56 200.4 547.54 200.38 547.52 200.36 547.48 200.33 547.45 200.31 547.41 200.29 547.39 200.27 547.35 200.26 547.32 200.24 547.28 200.22 547.26 200.21 547.24 200.2 547.2 200.18 547.17 200.16 547.13 200.13 547.11 200.11 547.09 200.09 547.06 200.07 547.01 200.02 546.98 199.98 546.96 199.96 546.93 199.93 546.91 199.92 546.88 199.88 546.87 199.86 546.84 199.82 546.82 199.79 546.8 199.76 546.79 199.73 546.78 199.69 546.77 199.64 546.76 199.6 546.76 199.57 546.76 199.52 546.76 199.47 546.76 199.42 546.75 199.39 546.74 199.36 546.73 199.34 546.71 199.31 546.68 199.28 546.64 199.24 546.61 199.2 546.58 199.17 546.56 199.14 546.55 199.11 546.54 199.08 546.53 199.03 546.52 198.98 546.51 198.93 546.49 198.87 546.48 198.84 546.46 198.8 546.45 198.77 546.45 198.75 546.44 198.72 546.44 198.69 546.43 198.67 546.41 198.66 546.39 198.65 546.35 198.65 546.3 198.66 546.25 198.66 546.19 198.67 546.14 198.67 546.09 198.68 546.03 198.71 545.99 198.73 545.94 198.76 545.91 198.79 545.87 198.83 545.83 198.87 545.81 198.91 545.76 198.98 545.72 199.02 545.67 199.08 545.63 199.13 545.58 199.18 545.52 199.23 545.48 199.27 545.43 199.3 545.36 199.34 545.3 199.35 545.24 199.35 545.19 199.36 545.11 199.38 545.03 199.39 544.98 199.39 544.93 199.39 544.88 199.39 544.85 199.4 544.81 199.42 544.78 199.45 544.74 199.49 544.69 199.52 544.62 199.56 544.56 199.59 544.5 199.63 544.44 199.69 544.39 199.75 544.34 199.8 544.29 199.86 544.23 199.91 544.16 199.96 544.1 199.99 544.06 200.04 544.01 200.1 543.97 200.15 543.91 200.19 543.85 200.22 543.8 200.25 543.72 200.25 543.66 200.27 543.59 200.3 543.5 200.36 543.42 200.4 543.41 200.41 543.39 200.42 543.38 200.42 543.34 200.45 543.22 200.51 543.11 200.56 542.97 200.61 542.85 200.66 542.77 200.68 542.74 200.7 542.71 200.71 542.67 200.72 542.65 200.73 542.57 200.76 542.49 200.77 542.42 200.65 542.39 200.6 542.33 200.5 542.24 200.34 542.19 200.26 542.11 200.22 541.95 200.12 541.79 200.02 541.66 199.93 541.64 199.92 541.54 199.86 541.53 199.85 541.25 199.68 540.88 199.47 540.6 199.3 540.47 199.23 540.4 199.19 540.32 199.14 540.17 199.05 540.16 199.05 540.13 199.04 540.08 199.03 540.02 199.01 539.94 199 539.89 198.98 539.84 198.98 539.78 198.97 539.71 198.95 539.63 198.94 539.58 198.93 539.51 198.91 539.45 198.92 539.38 198.92 539.31 198.92 539.25 198.93 539.19 198.93 539.13 198.93 539.07 198.93 539 198.93 538.94 198.94 538.89 198.94 538.84 198.94 538.75 198.94 538.66 198.93 538.59 198.93 538.55 198.91 538.49 198.91 538.43 198.92 538.36 198.93 538.25 198.95 538.18 198.96 538.13 198.96 538.08 198.96 538 198.94 537.96 198.92 537.9 198.9 537.84 198.93 537.8 198.95 537.72 198.98 537.65 199 537.57 199.03 537.54 199.04 537.48 199.04 537.41 199.04 537.31 199.04 537.09 199.02 536.86 199.01 536.73 199 536.66 198.99 536.59 199.06 536.53 199.12 536.46 199.18 536.39 199.24 536.3 199.32 536.2 199.41 536.09 199.51 536.04 199.55 535.99 199.59 535.94 199.59 535.9 199.59 535.83 199.58 535.69 199.56 535.55 199.54 535.45 199.52 535.44 199.52 535.39 199.51 535.29 199.49 535.18 199.47 535.05 199.44 534.93 199.43 534.86 199.47 534.78 199.51 534.66 199.59 534.58 199.63 534.54 199.66 534.5 199.69 534.46 199.72 534.35 199.79 534.28 199.83 534.24 199.85 534.17 199.87 534.07 199.9 534.01 199.92 533.97 199.93 533.93 199.95 533.86 199.98 533.7 200.05 533.43 200.19 533.18 200.28 532.69 200.35 532.46 200.38 532.23 200.42 531.99 200.42 531.55 200.48 531.44 200.5 531.37 200.51 531.22 200.38 531.19 200.35 531.18 200.33 530.99 200.13 530.97 200.11 530.96 200.1 530.88 200.03 530.83 199.99 530.8 199.97 530.77 199.95 530.73 199.91 530.69 199.88 530.65 199.85 530.62 199.82 530.55 199.79 530.48 199.74 530.42 199.72 530.35 199.71 530.27 199.71 530.21 199.69 530.16 199.68 530.09 199.67 529.95 199.66 529.83 199.65 529.79 199.71 529.72 199.79 529.67 199.86 529.61 199.93 529.56 200 529.51 200.07 529.37 200.41 529.36 200.42 529.3 200.61 529.28 200.96 529.12 200.94 528.94 200.91 528.76 200.88 528.58 200.77 528.4 200.65 528.21 200.53 528.18 200.5 528.12 200.46 528.07 200.43 527.92 200.33 527.76 200.22 527.71 200.19 527.67 200.16 527.58 200.09 527.48 200.02 527.34 199.92 527.34 199.92 527.33 199.91 527.26 199.86 527.11 199.75 526.92 199.75 526.81 199.74 526.68 199.74 526.48 199.74 526.16 199.72 525.89 199.69 525.62 199.67 525.32 199.65 525.21 199.66 525.19 199.66 525.15 199.66 524.8 199.69 524.47 199.73 524.18 199.75 523.9 199.81 523.52 199.9 523.09 199.99 522.77 200.06 522.62 200.1 522.57 200.1 522.56 200.11 522.54 200.11 522.52 200.12 522.51 200.12 522.31 200.17 522.04 200.23 521.96 200.25 521.95 200.25 521.86 200.27 521.85 200.27 521.77 200.3 521.44 200.45 521.3 200.56 521.28 200.57 521.27 200.58 521.1 200.7 520.95 200.8 520.86 200.87 520.83 200.9 520.49 200.63 520.32 200.49 520.11 200.31 519.98 200.2 519.88 200.13 519.71 199.99 519.58 199.87 519.39 199.63 519.28 199.48 519.13 199.29 519.11 199.26 518.99 199.1 518.96 199.07 518.95 199.05 518.85 198.93 518.75 198.79 518.74 198.78 518.67 198.68 518.63 198.63 518.62 198.62 518.62 198.62 518.53 198.49 518.51 198.47 518.45 198.39 518.23 198.11 518.15 198.01 518.06 197.89 518 197.81 517.99 197.8 517.98 197.78 517.97 197.77 517.96 197.76 517.95 197.76 517.92 197.72 517.79 197.56 517.65 197.41 517.56 197.29 517.4 197.07 517.25 196.86 517.1 196.63 517 196.5 516.98 196.47 516.89 196.33 516.84 196.27 516.73 196.13 516.64 196.01 516.61 195.99 516.59 195.98 516.58 195.97 516.53 195.92 516.5 195.87 516.57 195.76 516.84 195.59 517.06 195.47 517.06 195.46 517.1 195.11 517.13 194.73 517.25 194.57 517.29 194.54 517.64 194.11 517.68 194.05 517.81 193.81 517.65 193.32 517.56 193.05 517.54 193 517.5 192.89 517.49 192.75 517.22 192.48 516.88 192.18 516.86 192.14 516.76 192 516.51 191.7 516.44 191.57 516.36 191.41 516.28 191.25 516.24 191.17 516.23 191.14 516.27 191.15 516.3 191.17 516.33 191.17 516.34 191.17 516.38 191.16 516.41 191.15 516.44 191.13 516.47 191.09 516.48 191.07 516.47 191.03 516.48 190.99 516.48 190.96 516.5 190.93 516.53 190.87 516.55 190.84 516.58 190.81 516.61 190.78 516.66 190.75 516.71 190.73 516.76 190.71 516.84 190.68 516.9 190.66 516.99 190.64 517.04 190.63 517.07 190.62 517.11 190.63 517.14 190.64 517.18 190.66 517.23 190.67 517.27 190.68 517.3 190.68 517.34 190.68 517.38 190.68 517.43 190.67 517.51 190.64 517.55 190.62 517.59 190.6 517.62 190.57 517.67 190.53 517.71 190.5 517.74 190.48 517.79 190.46 517.83 190.44 517.9 190.43 517.96 190.42 518 190.42 518.05 190.43 518.09 190.45 518.12 190.47 518.18 190.48 518.27 190.48 518.32 190.48 518.38 190.47 518.45 190.47 518.52 190.47 518.6 190.48 518.65 190.48 518.68 190.47 518.71 190.46 518.77 190.43 518.81 190.41 518.84 190.38 518.86 190.36 518.88 190.33 518.89 190.3 518.9 190.23 518.91 190.18 518.92 190.15 518.93 190.14 518.94 190.12 519 190.06 519.04 190.03 519.06 190 519.1 189.95 519.14 189.86 519.17 189.8 519.21 189.7 519.24 189.61 519.27 189.53 519.29 189.48 519.3 189.44 519.31 189.37 519.32 189.32 519.31 189.23 519.3 189.13 519.3 189.02 519.3 188.97 519.28 188.9 519.26 188.82 519.26 188.72 519.25 188.61 519.25 188.54 519.26 188.51 519.26 188.48 519.29 188.43 519.32 188.38 519.35 188.33 519.37 188.26 519.39 188.2 519.41 188.12 519.42 188.09 519.43 188.05 519.45 188.01 519.48 187.96 519.49 187.91 519.51 187.85 519.52 187.81 519.51 187.78 519.5 187.73 519.48 187.67 519.43 187.58 519.38 187.49 519.29 187.35 519.21 187.24 519.18 187.2 519.16 187.16 519.15 187.11 519.14 187.08 519.13 187.05 519.09 187.01 519.01 186.95 518.97 186.91 518.96 186.88 518.95 186.86 518.95 186.81 518.96 186.77 518.98 186.68 519 186.64 519.02 186.61 519.06 186.56 519.1 186.49 519.12 186.45 519.13 186.44 519.17 186.43 519.26 186.42 519.33 186.41 519.38 186.39 519.42 186.35 519.45 186.33 519.46 186.32 519.52 186.31 519.6 186.3 519.65 186.28 519.69 186.26 519.73 186.23 519.76 186.19 519.79 186.16 519.82 186.11 519.87 186.02 519.9 185.98 519.93 185.95 519.96 185.92 519.99 185.89 520.06 185.85 520.15 185.82 520.27 185.77 520.31 185.74 520.36 185.71 520.38 185.69 520.41 185.65 520.43 185.61 520.46 185.56 520.5 185.53 520.51 185.51 520.52 185.49 520.51 185.42 520.5 185.34 520.51 185.28 520.52 185.25 520.53 185.22 520.54 185.2 520.57 185.17 520.61 185.13 520.67 185.06 520.69 185.03 520.71 185 520.73 184.97 520.74 184.95 520.74 184.92 520.72 184.86 520.7 184.81 520.68 184.79 520.65 184.77 520.61 184.74 520.54 184.71 520.5 184.69 520.47 184.67 520.46 184.66 520.44 184.63 520.44 184.6 520.45 184.57 520.47 184.54 520.5 184.51 520.54 184.47 520.58 184.44 520.62 184.41 520.66 184.39 520.69 184.36 520.76 184.32 520.81 184.29 520.86 184.28 520.9 184.25 520.93 184.23 520.96 184.2 520.99 184.17 521.02 184.16 521.06 184.15 521.09 184.13 521.11 184.11 521.11 184.09 521.1 184.06 521.08 184.03 521.07 183.99 521.07 183.96 521.06 183.94 521.06 183.92 521.08 183.9 521.11 183.89 521.14 183.87 521.18 183.85 521.21 183.84 521.23 183.81 521.25 183.8 521.27 183.78 521.3 183.75 521.31 183.73 521.33 183.7 521.35 183.67 521.36 183.64 521.37 183.6 521.37 183.57 521.36 183.53 521.34 183.48 521.31 183.45 521.27 183.41 521.23 183.37 521.2 183.35 521.18 183.32 521.17 183.31 521.16 183.28 521.17 183.26 521.19 183.22 521.23 183.16 521.27 183.12 521.3 183.07 521.32 183.04 521.32 183.01 521.32 182.98 521.31 182.95 521.29 182.93 521.27 182.91 521.23 182.87 521.18 182.84 521.14 182.81 521.1 182.78 521.05 182.73 521.01 182.7 520.99 182.67 520.98 182.63 520.97 182.59 520.98 182.55 520.99 182.51 521 182.47 521.01 182.43 521.04 182.36 521.06 182.32 521.07 182.28 521.08 182.25 521.09 182.21 521.09 182.17 521.07 182.14 521.05 182.08 521.02 182.01 520.99 181.96 520.97 181.91 520.94 181.86 520.92 181.81 520.92 181.78 520.91 181.74 520.91 181.69 520.92 181.64 520.92 181.61 520.94 181.56 520.97 181.5 520.99 181.45 521.01 181.41 521.04 181.38 521.06 181.35 521.07 181.32 521.09 181.29 521.09 181.26 521.08 181.22 521.04 181.17 521.01 181.09 520.98 181.03 520.95 180.99 520.93 180.95 520.9 180.92 520.88 180.9 520.85 180.88 520.81 180.85 520.78 180.83 520.74 180.81 520.71 180.77 520.68 180.75 520.66 180.72 520.64 180.67 520.63 180.62 520.62 180.58 520.62 180.53 520.62 180.49 520.61 180.45 520.6 180.4 520.58 180.34 520.55 180.29 520.53 180.25 520.52 180.21 520.51 180.18 520.51 180.16 520.52 180.13 520.53 180.1 520.56 180.04 520.58 180.01 520.61 179.98 520.63 179.96 520.66 179.95 520.71 179.92 520.77 179.9 520.83 179.88 520.89 179.87 521.01 179.87 521.06 179.88 521.13 179.89 521.19 179.89 521.23 179.89 521.25 179.87 521.27 179.86 521.28 179.83 521.28 179.79 521.27 179.72 521.25 179.63 521.22 179.56 521.22 179.52 521.22 179.49 521.23 179.45 521.25 179.4 521.27 179.37 521.28 179.33 521.28 179.25 521.28 179.19 521.28 179.08 521.29 178.99 521.3 178.95 521.31 178.91 521.32 178.88 521.34 178.87 521.36 178.86 521.38 178.85 521.42 178.86 521.46 178.87 521.48 178.88 521.51 178.89 521.53 178.89 521.55 178.89 521.56 178.88 521.57 178.85 521.57 178.83 521.57 178.79 521.55 178.75 521.52 178.7 521.48 178.65 521.43 178.6 521.39 178.55 521.35 178.5 521.33 178.47 521.33 178.45 521.33 178.42 521.35 178.39 521.37 178.37 521.4 178.34 521.43 178.31 521.47 178.28 521.53 178.23 521.68 178.16 521.73 178.14 521.84 178.1 521.89 178.08 521.95 178.05 522.01 178.03 522.07 178.02 522.11 178.01 522.15 177.99 522.18 177.96 522.21 177.94 522.23 177.91 522.25 177.88 522.28 177.85 522.31 177.82 522.34 177.78 522.36 177.76 522.38 177.74 522.38 177.72 522.38 177.7 522.37 177.66 522.36 177.61 522.36 177.57 522.38 177.53 522.4 177.52 522.43 177.5 522.47 177.47 522.52 177.45 522.56 177.43 522.6 177.4 522.63 177.37 522.66 177.33 522.69 177.28 522.72 177.25 522.76 177.2 522.8 177.16 522.84 177.12 522.88 177.09 522.92 177.05 522.95 177.03 522.96 177.01 523.01 176.97 523.05 176.93 523.09 176.9 523.12 176.87 523.17 176.83 523.22 176.79 523.26 176.75 523.29 176.72 523.32 176.68 523.34 176.65 523.37 176.59 523.39 176.52 523.4 176.45 523.41 176.39 523.42 176.32 523.42 176.26 523.43 176.23 523.44 176.19 523.44 176.16 523.46 176.13 523.48 176.1 523.5 176.08 523.54 176.05 523.57 176.02 523.6 175.99 523.63 175.96 523.66 175.92 523.69 175.89 523.72 175.85 523.74 175.81 523.75 175.79 523.76 175.76 523.76 175.73 523.77 175.69 523.78 175.63 523.78 175.59 523.77 175.56 523.76 175.53 523.75 175.49 523.73 175.45 523.72 175.41 523.71 175.37 523.71 175.33 523.71 175.29 523.71 175.26 523.72 175.23 523.74 175.22 523.76 175.19 523.79 175.17 523.82 175.16 523.85 175.15 523.89 175.15 523.94 175.15 523.97 175.16 524.01 175.16 524.05 175.15 524.08 175.15 524.11 175.14 524.13 175.13 524.15 175.12 524.16 175.1 524.17 175.07 524.17 175.04 524.15 175 524.14 174.97 524.14 174.93 524.14 174.87 524.14 174.82 524.13 174.76 524.11 174.7 524.08 174.64 524.05 174.57 524.02 174.5 523.98 174.42 523.94 174.35 523.9 174.28 523.86 174.2 523.82 174.14 523.79 174.07 523.77 174.03 523.76 173.98 523.76 173.94 523.76 173.89 523.76 173.84 523.77 173.78 523.79 173.71 523.81 173.66 523.84 173.61 523.87 173.57 523.91 173.55 523.94 173.52 523.97 173.49 523.99 173.46 523.99 173.43 523.99 173.37 523.98 173.3 523.98 173.26 524 173.22 524.01 173.19 524.03 173.16 524.05 173.11 524.06 173.05 524.05 172.98 524.04 172.91 524.02 172.83 524 172.78 523.98 172.73 523.96 172.66 523.94 172.59 523.93 172.53 523.92 172.48 523.91 172.44 523.92 172.41 523.93 172.39 523.95 172.36 523.97 172.33 524 172.29 524.04 172.23 524.06 172.17 524.08 172.13 524.09 172.08 524.1 172.03 524.1 171.98 524.09 171.94 524.07 171.9 524.07 171.87 524.07 171.84 524.07 171.81 524.08 171.8 524.1 171.78 524.14 171.74 524.18 171.7 524.22 171.65 524.24 171.62 524.26 171.57 524.28 171.53 524.3 171.48 524.33 171.43 524.35 171.38 524.37 171.34 524.4 171.31 524.43 171.27 524.47 171.24 524.49 171.19 524.51 171.15 524.53 171.11 524.55 171.06 524.55 171.02 524.55 170.98 524.54 170.93 524.54 170.88 524.54 170.81 524.54 170.75 524.55 170.7 524.57 170.66 524.59 170.64 524.61 170.61 524.65 170.57 524.68 170.53 524.7 170.5 524.71 170.46 524.71 170.43 524.7 170.4 524.69 170.36 524.69 170.35 524.68 170.33 524.66 170.29 524.66 170.25 524.65 170.22 524.65 170.18 524.67 170.12 524.68 170.04 524.7 169.95 524.7 169.91 524.7 169.87 524.69 169.78 524.68 169.73 524.68 169.71 524.69 169.69 524.74 169.66 524.8 169.63 524.87 169.6 524.92 169.56 524.95 169.53 524.98 169.49 525.01 169.45 525.02 169.42 525.04 169.35 525.04 169.27 525.06 169.2 525.07 169.13 525.08 169.08 525.09 169.05 525.09 169.04 525.12 169.01 525.24 168.94 525.37 168.87 525.4 168.84 525.53 168.81 525.57 168.8 525.6 168.78 525.64 168.75 525.69 168.7 525.72 168.65 525.76 168.6 525.8 168.58 525.87 168.51 525.89 168.48 525.9 168.46 525.92 168.42 525.92 168.37 525.93 168.31 525.94 168.27 525.95 168.23 525.97 168.16 525.98 168.1 526.01 168.05 526.05 167.95 526.07 167.91 526.1 167.87 526.14 167.82 526.18 167.77 526.22 167.74 526.27 167.69 526.31 167.65 526.34 167.62 526.37 167.6 526.39 167.59 526.42 167.57 526.44 167.55 526.46 167.52 526.47 167.5 526.48 167.48 526.48 167.43 526.49 167.35 526.5 167.29 526.51 167.26 526.53 167.23 526.55 167.2 526.61 167.1 526.67 167.02 526.72 166.9 526.75 166.84 526.76 166.79 526.77 166.71 526.78 166.64 526.79 166.6 526.81 166.53 526.83 166.43 526.84 166.32 526.86 166.2 526.88 166.15 526.9 166.07 526.92 165.93 526.93 165.82 526.93 165.8 526.92 165.78 526.91 165.75 526.88 165.7 526.85 165.64 526.83 165.56 526.81 165.51 526.8 165.47 526.8 165.43 526.8 165.37 526.8 165.28 526.81 165.13 526.81 165.02 526.8 164.88 526.78 164.79 526.76 164.76 526.75 164.74 526.71 164.71 526.66 164.68 526.6 164.63 526.56 164.58 526.49 164.5 526.42 164.41 526.34 164.32 526.29 164.25 526.26 164.18 526.23 164.14 526.21 164.08 526.19 164.03 526.19 164 526.19 163.95 526.19 163.91 526.19 163.79 526.19 163.7 526.18 163.44 526.17 163.38 526.16 163.36 526.16 163.35 526.15 163.34 526.14 163.33 526.11 163.31 526.06 163.27 526.01 163.24 526 163.21 525.97 163.17 525.96 163.13 525.95 163.12 525.94 163.1 525.93 163.08 525.91 163.03 525.89 162.98 525.87 162.91 525.85 162.86 525.85 162.85 525.84 162.82 525.83 162.8 525.79 162.73 525.74 162.64 525.73 162.63 525.7 162.58 525.75 162.55 525.84 162.46 525.93 162.35 526.05 162.22 526.15 162.12 526.25 162 526.3 161.93 526.33 161.91 526.45 161.83 526.53 161.76 526.6 161.7 526.66 161.65 526.73 161.58 526.82 161.5 526.89 161.45 526.97 161.37 527.02 161.31 527.07 161.26 527.12 161.19 527.09 161.18 526.98 161.14 526.89 161.09 527.35 160.09 527.35 160.09 527.38 159.88 527.38 159.84 527.39 159.79 527.39 159.77 527.41 159.6 527.42 159.57 527.45 159.46 527.51 159.27 527.53 159.18 527.89 159.05 527.93 159.03 528.06 158.99 528.21 158.93 528.42 158.95 528.59 158.97 528.84 158.68 528.95 158.48 529.07 158.26 529.08 158.21 529.08 158.19 529.09 158.16 529.09 158.15 529.09 158.09 529.1 157.98 529.1 157.96 529.11 157.86 529.12 157.82 529.13 157.8 529.15 157.77 529.18 157.75 529.25 157.7 529.31 157.67 529.34 157.65 529.41 157.62 529.52 157.59 529.63 157.56 529.7 157.54 529.78 157.51 529.93 157.45 529.95 157.45 530.13 157.41 530.15 157.39 530.16 157.39 530.23 157.34 530.31 157.27 530.36 157.22 530.42 157.15 530.48 157.09 530.49 157.07 530.53 157.03 530.57 156.97 530.6 156.9 530.61 156.89 530.63 156.85 530.64 156.83 530.65 156.79 530.66 156.65 530.68 156.5 530.69 156.39 530.7 156.23 530.71 156.08 530.75 155.87 530.85 155.72 531.01 155.47 531.09 155.41 531.18 155.34 531.32 155.25 531.39 155.2 531.5 155.1 531.63 154.91 531.8 154.66 531.96 154.43 531.97 154.39 531.98 154.37 532.07 154.13 532.45 153.81 532.76 153.8 532.81 153.81 532.84 153.81 533.16 153.9 533.31 153.75 533.36 153.69 533.41 153.64 533.46 153.57 533.52 153.29 533.58 153.09 533.64 152.88 533.67 152.8 533.74 152.69 533.78 152.64 533.8 152.63 533.93 152.56 533.99 152.49 534.11 152.33 534.13 152.32 534.3 152.1 534.36 151.9 534.39 151.81 534.41 151.74 534.43 151.66 534.44 151.65 534.45 151.59 534.47 151.53 534.48 151.45 534.51 151.33 534.51 151.22 534.51 151.2 534.49 150.85 534.24 150.54 533.69 150.29 533.79 149.81 533.92 149.51 533.94 149.46 533.94 149.3 533.98 148.98 534.04 148.88 534.14 148.67 534.27 148.41 534.76 148 534.78 147.9 534.82 147.61 534.88 147.51 534.9 147.48 534.97 147.37 535.02 147.27 535.09 147.16 535.11 147.12 535.14 147.03 535.16 146.98 535.16 146.96 535.16 146.94 535.16 146.92 535.16 146.91 535.16 146.9 535.17 146.86 535.18 146.81 535.18 146.62 535.18 146.5 535.18 146.41 535.18 146.4 535.18 146.37 535.17 146.04 535.17 146.01 535.17 145.98 535.2 145.86 535.38 145.19 535.4 145.15 535.41 145.12 535.42 145.06 535.43 145.05 535.43 145.03 535.44 145 535.46 144.91 535.47 144.84 535.47 144.75 535.46 144.64 535.46 144.54 535.45 144.48 535.45 144.47 535.44 144.44 535.42 144.4 535.39 144.35 535.35 144.3 535.32 144.26 535.29 144.24 535.27 144.2 535.25 144.15 535.22 144.04 535.19 143.95 535.17 143.91 535.15 143.89 535.12 143.85 535.1 143.83 535.09 143.77 535.06 143.68 535.05 143.58 535.04 143.47 535.04 143.44 535.04 143.4 535.05 143.36 535.06 143.34 535.08 143.32 535.11 143.3 535.15 143.27 535.19 143.24 535.21 143.19 535.24 143.15 535.24 143.14 535.28 143.07 535.32 143.01 535.36 142.93 535.41 142.86 535.47 142.8 535.5 142.76 535.54 142.72 535.65 142.65 535.75 142.55 535.85 142.44 535.91 142.37 535.93 142.31 535.94 142.27 535.95 142.2 535.95 142.13 535.97 142.07 536 142.01 536.04 141.91 536.06 141.84 536.06 141.79 536.06 141.73 536.04 141.65 536.03 141.57 536.02 141.51 536.01 141.48 536 141.47 535.99 141.45 535.97 141.41 535.95 141.39 535.94 141.34 535.93 141.32 535.94 141.28 535.96 141.24 535.99 141.17 536.03 141.09 536.06 141.05 536.13 140.98 536.19 140.92 536.22 140.87 536.23 140.84 536.22 140.82 536.21 140.8 536.18 140.76 536.08 140.66 536.06 140.64 536.02 140.61 535.97 140.59 535.93 140.57 535.9 140.53 535.85 140.49 535.75 140.36 535.73 140.31 535.72 140.28 535.72 140.16 535.71 140.1 535.7 140.07 535.66 140.01 535.63 139.97 535.59 139.94 535.55 139.9 535.46 139.84 535.36 139.77 535.3 139.71 535.27 139.67 535.24 139.63 535.22 139.58 535.21 139.54 535.22 139.51 535.22 139.51 535.22 139.46 535.23 139.3 535.27 139.06 535.26 139.03 535.18 138.89 535.15 138.83 535.13 138.8 535.09 138.77 535.05 138.75 535.02 138.72 535 138.68 534.98 138.63 534.96 138.57 534.96 138.52 534.96 138.42 534.96 138.33 534.94 138.27 534.94 138.26 534.93 138.25 534.92 138.23 534.88 138.17 534.84 138.09 534.71 137.96 534.66 137.9 534.62 137.85 534.56 137.78 534.52 137.73 534.49 137.67 534.46 137.6 534.41 137.51 534.38 137.42 534.36 137.35 534.33 137.26 534.31 137.1 534.31 137.06 534.3 137.04 534.3 137 534.26 136.85 534.21 136.71 534.14 136.42 534.13 136.36 534.11 136.31 534.1 136.25 534.09 136.19 534.08 136.14 534.08 136.09 534.07 136.04 534.07 136.01 534.08 135.94 534.08 135.92 534.09 135.89 534.11 135.87 534.13 135.84 534.17 135.78 534.21 135.73 534.23 135.71 534.25 135.67 534.28 135.64 534.32 135.59 534.36 135.55 534.38 135.53 534.4 135.51 534.44 135.47 534.51 135.43 534.55 135.41 534.59 135.38 534.61 135.36 534.62 135.34 534.62 135.29 534.58 135.25 534.55 135.21 534.54 135.2 534.57 135.17 534.62 135.15 534.67 135.14 534.7 135.13 534.75 135.13 534.76 135.12 534.81 135.12 534.86 135.11 534.91 135.1 534.93 135.1 534.97 135.08 535 135.07 535.02 135.06 535.06 135.05 535.09 135.03 535.12 135.01 535.15 134.99 535.17 134.97 535.2 134.95 535.25 134.93 535.3 134.91 535.34 134.89 535.37 134.86 535.42 134.83 535.46 134.8 535.51 134.76 535.56 134.73 535.59 134.72 535.62 134.71 535.64 134.72 535.68 134.74 535.72 134.77 535.75 134.79 535.79 134.82 535.82 134.83 535.92 134.85 536.06 134.87 536.11 134.88 536.14 134.88 536.29 134.93 536.35 134.95 536.42 134.95 536.45 134.96 536.5 134.95 536.57 134.95 536.59 134.95 536.61 134.94 536.67 134.95 536.72 134.97 536.75 134.98 536.78 134.99 536.83 135.01 536.87 135.04 536.9 135.04 536.93 135.04 536.95 135.04 536.97 135.04 537.01 135.04 537.03 135.03 537.06 135 537.09 134.95 537.11 134.92 537.14 134.82 537.16 134.77 537.22 134.68 537.26 134.61 537.28 134.52 537.3 134.41 537.32 134.32 537.34 134.25 537.37 134.14 537.41 134.11 537.46 134.07 537.47 134.05 537.5 133.98 537.5 133.98 537.53 133.93 537.55 133.92 537.6 133.85 537.64 133.8 537.65 133.63 537.65 133.6 537.62 133.45 537.64 133.4 537.66 133.35 537.67 133.3 537.67 133.29 537.68 133.27 537.68 133.24 537.68 133.14 537.68 133.07 537.68 133.01 537.7 132.93 537.71 132.87 537.73 132.8 537.74 132.76 537.76 132.69 537.78 132.6 537.8 132.56 537.8 132.55 537.81 132.51 537.83 132.48 537.84 132.45 537.85 132.42 537.88 132.37 537.91 132.31 537.94 132.26 537.97 132.2 538 132.15 538.02 132.1 538.03 132.05 538.05 131.95 538.05 131.9 538.06 131.84 538.05 131.78 538.05 131.73 538.04 131.67 538.04 131.61 538.03 131.56 538.02 131.5 538.02 131.45 538.03 131.37 538.04 131.32 538.05 131.26 538.07 131.22 538.1 131.17 538.13 131.12 538.17 131.08 538.23 131.01 538.28 130.96 538.32 130.92 538.36 130.88 538.4 130.84 538.44 130.8 538.47 130.77 538.49 130.75 538.53 130.71 538.57 130.69 538.6 130.67 538.62 130.65 538.68 130.6 538.73 130.57 538.75 130.56 538.76 130.55 538.76 130.53 538.78 130.51 538.78 130.5 538.77 130.33 538.77 130.28 538.76 130.13 538.75 130.13 538.72 130.11 538.71 130.09 538.7 130.08 538.68 130.07 538.67 130.06 538.65 130.04 538.63 130.01 538.59 129.96 538.57 129.93 538.55 129.9 538.53 129.88 538.51 129.86 538.51 129.83 538.5 129.8 538.5 129.78 538.5 129.75 538.51 129.66 538.51 129.57 538.51 129.49 538.51 129.42 538.51 129.34 538.52 129.27 538.52 129.23 538.52 129.2 538.48 129.2 538.45 129.19 538.45 129.18 538.44 129.13 538.44 129.1 538.43 129.05 538.44 128.99 538.45 128.91 538.45 128.88 538.45 128.86 538.45 128.85 538.45 128.82 538.46 128.71 538.47 128.61 538.47 128.5 538.48 128.42 538.5 128.4 538.53 128.35 538.54 128.32 538.55 128.28 538.57 128.22 538.6 128.15 538.61 128.09 538.63 128.01 538.65 127.93 538.67 127.86 538.68 127.79 538.69 127.73 538.69 127.67 538.7 127.61 538.69 127.56 538.68 127.51 538.67 127.44 538.66 127.37 538.64 127.3 538.63 127.21 538.62 127.14 538.6 127.08 538.6 127.06 538.58 126.97 538.56 126.88 538.56 126.83 538.55 126.82 538.54 126.77 538.55 126.66 538.56 126.6 538.57 126.55 538.58 126.49 538.59 126.34 538.6 126.26 538.6 126.22 538.61 126.17 538.61 126.1 538.61 126.04 538.62 125.96 538.62 125.9 538.61 125.87 538.61 125.86 538.61 125.85 538.61 125.84 538.61 125.81 538.61 125.77 538.61 125.74 538.62 125.71 538.62 125.68 538.63 125.66 538.65 125.63 538.68 125.59 538.72 125.57 538.74 125.55 538.77 125.54 538.8 125.53 538.84 125.52 538.88 125.51 538.89 125.47 538.9 125.45 538.93 125.34 538.95 125.27 538.96 125.22 538.97 125.15 538.97 125.09 538.98 125.02 538.99 124.95 539 124.89 539.01 124.83 539.02 124.75 539.03 124.68 539.03 124.63 539.02 124.57 539.01 124.52 539.01 124.46 539.01 124.45 539.01 124.44 539.01 124.37 539.01 124.34 539.02 124.32 539.03 124.29 539.04 124.27 539.08 124.23 539.12 124.19 539.15 124.17 539.17 124.16 539.19 124.15 539.21 124.11 539.23 124.08 539.24 124.06 539.25 124.01 539.25 123.96 539.26 123.93 539.27 123.91 539.29 123.89 539.31 123.88 539.34 123.86 539.39 123.84 539.44 123.83 539.47 123.82 539.49 123.81 539.51 123.8 539.53 123.78 539.56 123.76 539.59 123.73 539.61 123.7 539.63 123.65 539.66 123.61 539.7 123.57 539.71 123.55 539.71 123.53 539.71 123.5 539.72 123.46 539.73 123.42 539.74 123.37 539.75 123.33 539.76 123.3 539.78 123.27 539.78 123.24 539.77 123.21 539.77 123.19 539.78 123.17 539.78 123.15 539.79 123.13 539.82 123.1 539.85 123.07 539.88 123.05 539.91 123.04 539.94 123.03 539.96 123.03 539.98 123.02 540.04 123.01 540.06 123 540.1 122.99 540.15 122.96 540.16 122.96 540.18 122.94 540.16 122.93 540.14 122.92 540.12 122.9 540.1 122.88 540.07 122.84 540.03 122.78 540.02 122.76 540 122.72 539.99 122.67 539.97 122.63 539.95 122.62 539.93 122.61 539.91 122.6 539.88 122.6 539.84 122.58 539.82 122.56 539.81 122.53 539.82 122.51 539.82 122.47 539.81 122.45 539.8 122.44 539.77 122.44 539.74 122.43 539.71 122.41 539.68 122.4 539.66 122.39 539.64 122.39 539.61 122.4 539.6 122.41 539.58 122.42 539.56 122.45 539.52 122.49 539.49 122.52 539.46 122.53 539.41 122.55 539.37 122.55 539.34 122.53 539.32 122.52 539.32 122.51 539.31 122.49 539.29 122.45 539.28 122.4 539.26 122.38 539.24 122.38 539.22 122.39 539.16 122.41 539.13 122.41 539.11 122.4 539.08 122.4 539.06 122.4 539.03 122.41 539.02 122.41 539 122.42 538.98 122.4 538.94 122.38 538.9 122.36 538.86 122.35 538.81 122.32 538.79 122.31 538.77 122.29 538.75 122.27 538.73 122.24 538.7 122.19 538.64 122.11 538.62 122.07 538.6 122.05 538.58 122.03 538.55 122.02 538.53 122.01 538.5 122 538.48 121.98 538.47 121.95 538.45 121.93 538.44 121.9 538.42 121.87 538.4 121.83 538.38 121.8 538.37 121.76 538.36 121.72 538.33 121.68 538.32 121.66 538.3 121.65 538.28 121.64 538.27 121.63 538.23 121.63 538.19 121.62 538.15 121.61 538.1 121.6 538.08 121.59 538.07 121.57 538.07 121.55 538.06 121.53 538.05 121.52 538.03 121.51 538.02 121.5 538.02 121.47 538.02 121.45 538.03 121.43 538.05 121.41 538.06 121.4 538.06 121.38 538.06 121.36 538.05 121.34 538.03 121.31 538.02 121.28 538.02 121.25 538.02 121.22 538.03 121.2 538.03 121.18 538.04 121.15 538.06 121.11 538.08 121.08 538.1 121.05 538.12 121.03 538.15 121.01 538.18 120.99 538.19 120.95 538.21 120.91 538.21 120.87 538.21 120.83 538.19 120.79 538.18 120.75 538.16 120.7 538.15 120.65 538.13 120.61 538.11 120.58 538.09 120.55 538.06 120.52 538.05 120.5 538.04 120.48 538.04 120.44 538.04 120.43 538.04 120.41 537.99 120.39 537.95 120.36 537.9 120.34 537.86 120.32 537.82 120.3 537.78 120.28 537.74 120.26 537.71 120.23 537.69 120.2 537.67 120.16 537.67 120.13 537.66 120.09 537.66 120.05 537.65 120 537.65 119.96 537.64 119.94 537.62 119.91 537.61 119.89 537.59 119.87 537.57 119.85 537.55 119.83 537.54 119.82 537.51 119.81 537.47 119.79 537.43 119.79 537.39 119.79 537.35 119.79 537.3 119.8 537.26 119.79 537.2 119.79 537.16 119.79 537.14 119.79 537.1 119.78 537.05 119.77 537.01 119.75 536.98 119.73 536.96 119.7 536.92 119.68 536.88 119.67 536.85 119.66 536.81 119.66 536.77 119.65 536.72 119.65 536.66 119.65 536.62 119.66 536.58 119.67 536.53 119.67 536.49 119.68 536.46 119.68 536.43 119.68 536.41 119.67 536.39 119.62 536.38 119.61 536.38 119.58 536.36 119.54 536.34 119.51 536.32 119.48 536.3 119.46 536.28 119.43 536.28 119.4 536.28 119.38 536.28 119.36 536.27 119.32 536.27 119.29 536.25 119.26 536.22 119.21 536.2 119.18 536.15 119.13 536.12 119.1 536.08 119.06 536.04 119.01 536.01 118.96 535.96 118.91 535.93 118.86 535.87 118.78 535.81 118.68 535.77 118.69 535.68 118.69 535.56 118.7 535.55 118.7 535.49 118.69 535.47 118.69 535.46 118.66 535.46 118.61 535.47 118.55 535.49 118.48 535.51 118.41 535.53 118.37 535.6 118.23 535.66 118.12 535.91 117.89 536.2 117.6 536.37 117.34 536.49 117.16 536.67 116.9 536.82 116.71 537.01 116.46 537.13 116.14 537.26 115.78 537.44 115.28 537.65 114.68 537.84 114.17 538.07 113.51 538.13 113.32 538.14 113.29 538.22 113.08 538.32 112.79 538.34 112.73 538.36 112.7 538.36 112.68 538.41 112.54 538.44 112.46 538.48 112.34 538.48 112.34 538.49 112.32 538.5 112.29 538.51 112.23 538.5 112.18 538.49 112.12 538.47 112.08 538.46 112.06 538.43 112.03 538.42 112.02 538.42 112 538.41 111.98 538.4 111.94 538.41 111.9 538.42 111.87 538.44 111.83 538.54 111.71 538.54 111.7 538.62 111.59 538.66 111.52 538.68 111.45 538.67 111.42 538.66 111.38 538.66 111.36 538.66 111.35 538.65 111.34 538.65 111.32 538.65 111.31 538.65 111.25 538.65 111.21 538.65 111.18 538.68 111.12 538.71 111.02 538.74 110.94 538.76 110.9 538.78 110.88 538.8 110.87 538.84 110.85 538.86 110.84 538.87 110.82 538.88 110.77 538.92 110.71 538.94 110.69 538.96 110.68 538.97 110.68 539 110.66 539.01 110.64 539.02 110.62 539.04 110.57 539.06 110.53 539.07 110.51 539.09 110.46 539.11 110.41 539.13 110.34 539.14 110.26 539.16 110.22 539.17 110.19 539.18 110.17 539.2 110.15 539.25 110.12 539.3 110.08 539.34 110.04 539.35 110.03 539.37 109.99 539.41 109.94 539.41 109.93 539.43 109.87 539.46 109.8 539.49 109.76 539.49 109.75 539.52 109.7 539.53 109.69 539.53 109.68 539.53 109.67 539.55 109.61 539.55 109.57 539.55 109.57 539.54 109.5 539.54 109.4 539.52 109.35 539.52 109.32 539.51 109.31 539.5 109.27 539.49 109.24 539.49 109.23 539.45 109.14 539.45 109.11 539.44 109.08 539.44 109.07 539.43 109.02 539.43 108.97 539.43 108.94 539.44 108.91 539.46 108.86 539.5 108.8 539.54 108.76 539.62 108.71 539.7 108.66 539.77 108.61 539.8 108.58 539.83 108.55 539.9 108.48 539.95 108.42 540 108.36 540.04 108.3 540.06 108.25 540.06 108.24 540.07 108.23 540.11 108.14 540.12 108.05 540.13 108.01 540.14 107.97 540.14 107.93 540.14 107.9 540.12 107.84 540.12 107.81 540.12 107.76 540.15 107.69 540.17 107.61 540.2 107.55 540.23 107.46 540.24 107.43 540.26 107.38 540.29 107.35 540.31 107.33 540.32 107.32 540.34 107.3 540.37 107.28 540.39 107.26 540.4 107.21 540.41 107.19 540.42 107.15 540.43 107.1 540.43 107.04 540.43 107 540.39 106.94 540.33 106.88 540.32 106.88 540.25 106.83 540.2 106.79 540.16 106.74 540.13 106.67 540.09 106.6 540.06 106.55 540.03 106.49 540.01 106.45 540 106.39 539.98 106.32 539.94 106.24 539.94 106.23 539.89 106.15 539.83 106.03 539.79 105.95 539.78 105.92 539.75 105.85 539.72 105.79 539.71 105.78 539.71 105.77 539.71 105.76 539.71 105.74 539.71 105.72 539.71 105.7 539.71 105.66 539.71 105.63 539.7 105.59 539.69 105.57 539.64 105.48 539.62 105.46 539.6 105.44 539.58 105.4 539.58 105.36 539.57 105.32 539.56 105.31 539.54 105.3 539.53 105.3 539.46 105.3 539.42 105.31 539.35 105.31 539.3 105.33 539.23 105.35 539.17 105.34 539.14 105.35 539.1 105.35 539.09 105.35 539.01 105.35 538.92 105.35 538.87 105.35 538.86 105.34 538.85 105.34 538.78 105.3 538.68 105.25 538.56 105.19 538.52 105.17 538.51 105.15 538.51 105.12 538.51 105.05 538.51 105.01 538.5 104.99 538.49 104.97 538.44 104.87 538.42 104.85 538.37 104.76 538.36 104.75 538.33 104.7 538.3 104.63 538.28 104.56 538.27 104.53 538.26 104.5 538.26 104.45 538.26 104.43 538.26 104.41 538.25 104.37 538.24 104.33 538.23 104.31 538.21 104.25 538.21 104.22 538.21 104.21 538.2 104.1 538.19 104.06 538.17 104 538.17 103.99 538.13 103.9 538.1 103.82 538.15 103.81 538.18 103.8 538.22 103.78 538.27 103.75 538.33 103.72 538.42 103.67 538.5 103.63 538.63 103.56 538.76 103.49 538.83 103.45 538.9 103.42 538.99 103.38 539.12 103.32 539.22 103.27 539.28 103.23 539.34 103.19 539.41 103.16 539.49 103.12 539.57 103.08 539.65 103.05 539.7 103.01 539.73 103 539.77 102.98 539.82 102.97 539.86 102.97 539.88 102.96 539.92 102.94 539.98 102.9 540.06 102.85 540.13 102.82 540.14 102.81 540.22 102.76 540.3 102.72 540.32 102.71 540.37 102.68 540.39 102.66 540.41 102.65 540.75 102.57 540.78 102.56 540.87 102.54 541.1 102.47 541.26 102.42 541.36 102.38 541.5 102.34 541.66 102.29 541.88 102.23 542.11 102.23 542.38 102.24 542.73 102.23 542.8 102.23 542.82 102.24 542.86 102.25 542.91 102.27 542.93 102.28 542.99 102.28 543.05 102.27 543.1 102.27 543.17 102.25 543.24 102.22 543.34 102.2 543.52 102.16 543.68 102.13 543.81 102.09 543.98 102.05 544.03 102.04 544.12 102.05 544.27 102.09 544.31 102.1 544.38 102.13 544.44 102.14 544.53 102.15 544.63 102.16 544.72 102.17 544.81 102.19 544.99 102.24 545.11 102.28 545.14 102.28 545.2 102.3 545.24 102.31 545.27 102.32 545.29 102.31 545.34 102.27 545.35 102.26 545.51 102.1 545.73 101.88 545.98 101.64 546.14 101.48 546.25 101.37 546.36 101.27 546.54 101.09 546.62 101.13 546.73 101.18 546.85 101.24 546.93 101.3 547.02 101.34 547.04 101.36 547.25 101.46 547.29 101.47 547.36 101.51 547.55 101.52 547.67 101.53 547.7 101.53 547.77 101.53 547.98 101.53 548.04 101.54 548.24 101.54 548.35 101.54 548.48 101.55 548.72 101.56 548.77 101.56 548.84 101.56 548.86 101.56 548.97 101.57 549.07 101.58 549.13 101.58 549.37 101.6 549.41 101.6 549.46 101.62 549.53 101.63 549.63 101.61 549.74 101.6 549.81 101.59 549.94 101.6 550.12 101.6 550.3 101.6 550.47 101.6 550.58 101.6 550.61 101.6 550.68 101.6 550.7 101.6 550.75 101.59 550.87 101.56 550.93 101.55 551.15 101.51 551.28 101.48 551.35 101.47 551.37 101.47 551.51 101.44 551.66 101.41 551.89 101.37 552 101.32 552.06 101.29 552.12 101.24 552.2 101.18 552.31 101.1 552.37 101.07 552.57 101.19 Z"/>
</g></svg>