<svg xmlns="http://www.w3.org/2000/svg" version="1.2" baseProfile="tiny" stroke-linecap="round" stroke-linejoin="round" viewBox="343.87 173.93 18.33 31.13"><g xmlns="http://www.w3.org/2000/svg" id="Beasain">
<path d="M 345.96 176.82 345.95 176.8 345.95 176.79 345.95 176.78 345.94 176.77 345.93 176.75 345.93 176.74 345.93 176.73 345.93 176.71 345.93 176.7 345.93 176.68 345.93 176.66 345.93 176.65 345.93 176.64 345.93 176.62 345.93 176.61 345.93 176.61 345.93 176.59 345.93 176.56 345.93 176.54 345.93 176.52 345.93 176.5 345.93 176.47 345.93 176.46 345.93 176.44 345.93 176.42 345.94 176.41 345.95 176.39 345.96 176.38 345.98 176.38 346.01 176.37 346.03 176.37 346.05 176.38 346.08 176.38 346.1 176.38 346.13 176.37 346.15 176.36 346.17 176.34 346.19 176.32 346.2 176.32 346.21 176.3 346.22 176.28 346.24 176.26 346.25 176.24 346.27 176.22 346.29 176.21 346.3 176.19 346.32 176.17 346.35 176.16 346.37 176.14 346.39 176.12 346.41 176.11 346.43 176.09 346.45 176.08 346.48 176.05 346.54 176 346.55 175.99 346.56 175.98 346.57 175.98 346.59 175.98 346.61 175.97 346.63 175.96 346.64 175.95 346.66 175.94 346.67 175.93 346.68 175.92 346.69 175.91 346.71 175.89 346.72 175.88 346.74 175.86 346.75 175.84 346.77 175.82 346.78 175.8 346.8 175.78 346.81 175.75 346.84 175.72 346.86 175.69 346.88 175.67 346.9 175.64 346.91 175.61 346.93 175.59 346.94 175.58 346.96 175.55 347 175.5 347.04 175.46 347.06 175.43 347.07 175.41 347.09 175.38 347.1 175.36 347.12 175.34 347.14 175.33 347.15 175.32 347.17 175.3 347.19 175.28 347.21 175.27 347.23 175.26 347.25 175.25 347.27 175.24 347.3 175.23 347.32 175.22 347.34 175.22 347.35 175.22 347.36 175.22 347.4 175.22 347.41 175.22 347.43 175.23 347.51 175.22 347.53 175.22 347.56 175.24 347.58 175.25 347.6 175.26 347.63 175.27 347.65 175.27 347.67 175.26 347.76 175.21 347.85 175.15 347.95 175.11 347.98 175.11 348.01 175.11 348.03 175.1 348.11 175.08 348.16 175.07 348.17 175.06 348.19 175.06 348.25 175.05 348.32 175.02 348.35 175.01 348.39 175.01 348.42 174.98 348.44 174.97 348.46 174.93 348.48 174.9 348.49 174.89 348.5 174.88 348.59 174.77 348.62 174.72 348.65 174.67 348.7 174.6 348.75 174.54 348.78 174.5 348.82 174.49 348.86 174.49 348.89 174.49 348.93 174.5 349.03 174.52 349.1 174.51 349.13 174.5 349.14 174.5 349.17 174.5 349.22 174.49 349.3 174.48 349.35 174.46 349.39 174.44 349.45 174.42 349.51 174.41 349.62 174.42 349.68 174.42 349.69 174.42 349.71 174.41 349.74 174.37 349.81 174.33 349.83 174.32 349.92 174.27 349.98 174.24 350.03 174.18 350.08 174.11 350.14 174.02 350.17 173.96 350.18 173.96 350.24 174.03 350.26 174.05 350.27 174.06 350.28 174.07 350.3 174.08 350.32 174.1 350.33 174.11 350.35 174.13 350.36 174.14 350.39 174.15 350.47 174.17 350.48 174.17 350.54 174.16 350.6 174.16 350.66 174.17 350.81 174.18 350.84 174.18 350.87 174.17 350.91 174.16 350.94 174.16 350.97 174.15 351 174.15 351.02 174.15 351.05 174.14 351.09 174.13 351.13 174.13 351.16 174.15 351.17 174.15 351.18 174.17 351.2 174.18 351.21 174.19 351.22 174.2 351.23 174.22 351.25 174.21 351.27 174.2 351.3 174.21 351.32 174.22 351.37 174.24 351.39 174.26 351.4 174.26 351.42 174.26 351.43 174.26 351.47 174.24 351.49 174.23 351.51 174.22 351.53 174.21 351.55 174.2 351.57 174.19 351.58 174.19 351.59 174.18 351.6 174.18 351.62 174.18 351.64 174.19 351.66 174.22 351.68 174.25 351.69 174.27 351.72 174.31 351.73 174.33 351.76 174.35 351.78 174.37 351.8 174.38 351.83 174.39 351.85 174.39 351.88 174.39 351.9 174.39 351.92 174.38 351.94 174.38 352 174.37 352.02 174.37 352.05 174.36 352.07 174.37 352.09 174.39 352.11 174.42 352.13 174.47 352.17 174.53 352.19 174.58 352.22 174.62 352.25 174.67 352.3 174.72 352.35 174.77 352.38 174.79 352.41 174.81 352.45 174.82 352.48 174.83 352.53 174.83 352.58 174.84 352.63 174.84 352.68 174.85 352.73 174.87 352.77 174.88 352.81 174.89 352.86 174.91 352.87 174.92 352.88 174.95 352.9 174.99 352.91 175.01 352.94 175.05 352.96 175.09 353 175.15 353.04 175.21 353.07 175.25 353.12 175.27 353.17 175.3 353.21 175.34 353.24 175.37 353.27 175.41 353.3 175.47 353.35 175.5 353.4 175.55 353.47 175.6 353.51 175.63 353.55 175.65 353.6 175.67 353.63 175.69 353.67 175.71 353.75 175.76 353.8 175.79 353.89 175.84 353.95 175.88 354.04 175.94 354.09 175.97 354.16 176.02 354.22 176.06 354.31 176.11 354.38 176.14 354.42 176.17 354.49 176.19 354.52 176.21 354.56 176.24 354.61 176.29 354.64 176.31 354.71 176.35 354.76 176.39 354.82 176.44 354.83 176.46 354.85 176.48 354.87 176.54 354.89 176.57 354.91 176.62 354.92 176.65 354.93 176.69 354.95 176.73 354.98 176.77 355.01 176.81 355.05 176.84 355.08 176.86 355.1 176.87 355.11 176.88 355.16 176.92 355.21 176.96 355.23 176.98 355.27 176.99 355.29 177 355.33 177.03 355.35 177.06 355.38 177.09 355.39 177.11 355.43 177.16 355.46 177.18 355.51 177.24 355.54 177.28 355.58 177.31 355.62 177.36 355.66 177.39 358.16 178.67 358.08 178.81 358.04 178.86 358 178.91 357.81 179.22 357.81 179.24 357.85 179.38 357.7 180.74 357.23 182.92 357.25 183.15 356.78 183.43 356.33 183.79 356.07 184.15 355.84 184.52 356.21 185.49 356.34 185.76 356.65 186.41 356.83 186.76 357.09 187.28 357.14 187.36 357.17 187.36 357.21 187.35 357.22 187.35 357.26 187.36 357.31 187.38 357.36 187.39 357.41 187.4 357.44 187.41 357.47 187.42 357.5 187.42 357.53 187.43 357.55 187.45 357.58 187.48 357.6 187.5 357.61 187.51 357.62 187.53 357.65 187.59 357.68 187.62 357.69 187.66 357.72 187.69 357.74 187.72 357.77 187.76 357.78 187.78 357.8 187.79 357.81 187.84 357.83 187.86 357.86 187.89 357.88 187.92 357.89 187.96 357.9 187.99 357.9 188.01 357.9 188.05 357.9 188.08 357.9 188.11 357.9 188.13 357.9 188.15 357.89 188.16 357.87 188.18 357.86 188.2 357.86 188.21 357.87 188.22 357.88 188.24 357.9 188.26 357.92 188.28 357.94 188.28 357.96 188.29 357.99 188.3 358.02 188.3 358.04 188.31 358.06 188.32 358.08 188.34 358.1 188.36 358.12 188.4 358.14 188.45 358.17 188.47 358.21 188.51 358.25 188.54 358.28 188.57 358.32 188.59 358.38 188.63 358.41 188.65 358.44 188.67 358.48 188.68 358.51 188.7 358.54 188.71 358.56 188.71 358.59 188.72 358.61 188.73 358.66 188.73 358.69 188.74 358.72 188.74 358.76 188.75 358.79 188.75 358.84 188.76 358.92 188.78 358.97 188.8 359.02 188.82 359.08 188.85 359.14 188.87 359.19 188.9 359.22 188.91 359.26 188.94 359.28 188.96 359.31 188.96 359.32 188.97 359.37 188.99 359.4 189.02 359.45 189.05 359.49 189.09 359.52 189.12 359.57 189.17 359.61 189.21 359.65 189.24 359.69 189.28 359.73 189.3 359.75 189.32 359.76 189.34 359.78 189.35 359.8 189.35 359.84 189.34 359.88 189.33 359.93 189.34 359.96 189.36 360.01 189.39 360.04 189.42 360.09 189.45 360.11 189.47 360.13 189.49 360.15 189.52 360.18 189.54 360.21 189.56 360.25 189.58 360.28 189.65 360.28 189.71 360.29 189.78 360.31 189.84 360.33 189.88 360.35 189.91 360.38 189.96 360.41 190 360.43 190.04 360.46 190.08 360.47 190.12 360.49 190.15 360.51 190.2 360.54 190.23 360.55 190.27 360.57 190.32 360.58 190.37 360.6 190.41 360.61 190.44 360.62 190.49 360.64 190.55 360.66 190.61 360.68 190.67 360.7 190.71 360.72 190.75 360.74 190.81 360.74 190.86 360.75 190.9 360.75 190.94 360.76 191 360.76 191.02 360.75 191.07 360.74 191.11 360.73 191.14 360.72 191.17 360.7 191.2 360.67 191.23 360.64 191.27 360.63 191.3 360.62 191.33 360.62 191.35 360.62 191.41 360.63 191.44 360.64 191.46 360.66 191.48 360.69 191.5 360.72 191.52 360.74 191.53 360.76 191.55 360.78 191.58 360.8 191.61 360.82 191.65 360.83 191.68 360.84 191.72 360.85 191.75 360.85 191.78 360.87 191.82 360.89 191.85 360.9 191.87 360.9 191.91 360.9 191.94 360.9 192 360.89 192.03 360.88 192.06 360.86 192.09 360.81 192.11 360.78 192.13 360.74 192.15 360.69 192.17 360.65 192.19 360.62 192.2 360.6 192.21 360.57 192.23 360.56 192.26 360.53 192.3 360.51 192.35 360.49 192.39 360.48 192.42 360.47 192.45 360.47 192.47 360.47 192.5 360.49 192.53 360.51 192.55 360.54 192.57 360.57 192.58 360.6 192.59 360.62 192.6 360.64 192.62 360.66 192.66 360.68 192.69 360.7 192.73 360.73 192.76 360.77 192.8 360.8 192.82 360.82 192.85 360.84 192.87 360.85 192.88 360.85 192.91 360.85 192.93 360.83 192.98 360.82 193.02 360.81 193.05 360.81 193.08 360.81 193.12 360.81 193.14 360.82 193.19 360.81 193.23 360.81 193.32 360.81 193.36 360.81 193.39 360.82 193.42 360.82 193.45 360.81 193.47 360.8 193.5 360.78 193.52 360.75 193.54 360.73 193.56 360.73 193.58 360.74 193.61 360.77 193.63 360.8 193.65 360.84 193.68 360.87 193.7 360.88 193.72 360.89 193.74 360.88 193.77 360.88 193.8 360.87 193.81 360.86 193.84 360.85 193.87 360.85 193.92 360.85 193.96 360.85 194 360.85 194.03 360.85 194.06 360.86 194.08 360.88 194.1 360.9 194.11 360.93 194.12 360.94 194.13 360.95 194.15 360.95 194.17 360.95 194.2 360.94 194.24 360.93 194.27 360.92 194.3 360.92 194.34 360.93 194.36 360.93 194.37 360.96 194.39 360.99 194.42 361.02 194.43 361.05 194.45 361.08 194.49 361.09 194.51 361.11 194.54 361.1 194.56 361.09 194.59 361.07 194.61 361.04 194.62 361.01 194.63 360.97 194.63 360.92 194.64 360.88 194.65 360.85 194.68 360.84 194.7 360.85 194.73 360.87 194.76 360.91 194.79 360.93 194.8 360.96 194.84 360.97 194.86 360.98 194.9 360.96 194.93 360.94 194.96 360.93 194.98 360.91 195 360.89 195.03 360.87 195.07 360.86 195.1 360.86 195.13 360.86 195.16 360.87 195.19 360.89 195.24 360.93 195.29 360.95 195.32 360.98 195.34 360.99 195.34 361.02 195.36 361.06 195.38 361.12 195.4 361.15 195.42 361.19 195.44 361.22 195.46 361.24 195.5 361.26 195.54 361.27 195.59 361.27 195.61 361.28 195.65 361.3 195.7 361.31 195.74 361.31 195.75 361.33 195.78 361.35 195.8 361.37 195.81 361.41 195.84 361.44 195.85 361.47 195.87 361.49 195.9 361.51 195.94 361.52 195.97 361.52 196.01 361.52 196.03 361.51 196.09 361.5 196.17 361.5 196.23 361.5 196.25 361.51 196.28 361.51 196.3 361.51 196.32 361.51 196.35 361.51 196.36 361.5 196.38 361.5 196.41 361.5 196.47 361.51 196.51 361.52 196.53 361.54 196.54 361.55 196.56 361.57 196.59 361.57 196.6 361.59 196.65 361.6 196.67 361.63 196.72 361.64 196.74 361.67 196.78 361.7 196.81 361.72 196.83 361.74 196.86 361.75 196.88 361.76 196.91 361.77 196.95 361.77 196.98 361.71 197.18 361.71 197.21 361.87 197.85 362.06 198.28 362.02 199.17 362.12 199.76 362.17 200.2 361.51 199.99 360.68 199.58 360.67 199.63 360.67 199.65 360.66 199.72 360.64 199.8 360.62 199.83 360.61 199.88 360.59 199.92 360.56 199.98 360.56 200.02 360.56 200.09 360.53 200.19 360.51 200.28 360.51 200.3 360.51 200.36 360.54 200.44 360.55 200.5 360.56 200.55 360.55 200.63 360.54 200.69 360.52 200.77 360.51 200.87 360.5 200.92 360.5 200.96 360.5 201 360.5 201.05 360.51 201.15 360.51 201.16 360.51 201.2 360.51 201.27 360.5 201.32 360.48 201.43 360.46 201.49 360.45 201.53 360.44 201.65 360.43 201.68 360.42 201.78 360.39 201.89 360.35 202.02 360.34 202.06 360.34 202.11 360.34 202.14 360.34 202.16 360.36 202.17 360.38 202.18 360.4 202.2 360.47 202.22 360.51 202.24 360.52 202.25 360.67 202.31 360.72 202.33 360.77 202.36 360.81 202.39 360.83 202.4 360.85 202.43 360.3 202.77 360.12 202.88 359.55 203.17 358.94 203.46 358.92 203.65 358.5 203.85 358.26 203.88 358.06 203.9 357.56 203.75 356.57 203.42 355.88 203.52 355.86 203.5 355.84 203.48 355.81 203.45 355.76 203.39 355.74 203.36 355.71 203.31 355.68 203.27 355.67 203.24 355.65 203.2 355.63 203.15 355.62 203.08 355.6 203 355.57 202.88 355.57 202.85 355.56 202.8 355.54 202.76 355.54 202.73 355.53 202.69 355.52 202.66 355.51 202.63 355.48 202.59 355.44 202.54 355.41 202.51 355.38 202.48 355.37 202.47 355.3 202.43 355.26 202.4 355.2 202.37 355.12 202.29 354.98 202.2 354.95 202.17 354.93 202.15 354.91 202.13 354.89 202.12 354.87 202.11 354.84 202.09 354.81 202.09 354.77 202.09 354.72 202.08 354.69 202.07 354.64 202.06 354.57 202.04 354.56 202.04 354.39 202 354.37 202 354.35 201.99 354.33 201.98 354.31 201.97 354.3 201.96 354.29 201.95 354.28 201.93 354.27 201.92 354.25 201.9 354.24 201.88 354.22 201.87 354.21 201.86 354.19 201.86 354.18 201.86 354.14 201.83 354.11 201.82 354.05 201.82 354.01 201.83 353.95 201.84 353.9 201.84 353.85 201.85 353.8 201.84 353.73 201.82 353.71 201.81 353.69 201.81 353.62 201.81 353.6 201.84 353.56 201.89 353.51 201.93 353.47 201.97 353.43 202.01 353.42 202.02 353.36 202.09 353.29 202.18 353.26 202.21 353.22 202.27 353.13 202.38 353.1 202.4 353.05 202.43 352.98 202.5 352.93 202.54 352.91 202.57 352.89 202.59 352.86 202.65 352.84 202.71 352.83 202.77 352.82 202.92 352.81 203.08 352.8 203.13 352.8 203.18 352.8 203.21 352.8 203.23 352.79 203.38 352.78 203.48 352.78 203.49 352.77 203.54 352.77 203.56 352.76 203.57 352.76 203.59 352.73 203.68 352.71 203.75 352.69 203.83 352.68 203.89 352.65 203.96 352.64 204 352.63 204.01 352.62 204.05 352.6 204.07 352.58 204.12 352.56 204.18 352.54 204.3 352.52 204.39 352.5 204.53 352.5 204.55 352.51 204.65 352.53 204.75 352.54 204.91 352.4 204.98 352.26 205 352.12 205.01 352.01 204.99 351.93 204.98 351.89 205 351.79 205.02 351.72 205.03 351.64 205.04 351.52 205.03 351.46 205.04 351.36 205.03 351.3 205.02 351.23 205.01 351.1 205 350.95 204.99 350.9 204.99 350.87 204.99 350.79 204.98 350.77 204.98 350.7 204.97 350.65 204.96 350.61 204.93 350.6 204.92 350.58 204.9 350.56 204.86 350.52 204.77 350.49 204.71 350.47 204.68 350.42 204.65 350.36 204.64 350.31 204.64 350.26 204.63 350.21 204.62 349.4 204.66 349.57 202.95 349.53 202.94 349.45 202.88 349.38 202.82 349.26 202.7 349.21 202.66 349.14 202.6 349.09 202.55 349.05 202.5 349.01 202.47 348.94 202.42 348.87 202.38 348.8 202.35 348.73 202.31 348.61 202.24 348.53 202.21 348.45 202.18 348.44 202.18 348.4 202.17 348.3 202.14 348.2 202.12 348.07 202.04 348.03 202.01 347.98 201.96 347.95 201.92 347.92 201.87 347.89 201.81 347.87 201.76 347.86 201.69 347.84 201.63 347.83 201.58 347.81 201.52 347.8 201.48 347.8 201.44 347.8 201.41 347.8 201.38 347.81 201.35 347.81 201.31 347.81 201.28 347.81 201.27 347.82 201.2 347.82 201.14 347.8 201.15 347.77 201.16 347.75 201.16 347.73 201.15 347.68 201.13 347.61 201.1 347.57 201.08 347.54 201.07 347.53 201.06 347.51 201.05 347.45 201.05 347.4 201.04 347.36 201.03 347.34 201.02 347.32 201 347.29 200.97 347.27 200.94 347.26 200.93 347.23 200.91 347.21 200.9 347.18 200.88 347.16 200.88 347.13 200.88 347.11 200.88 347.09 200.89 347.06 200.9 347.02 200.9 346.98 200.91 346.94 200.92 346.93 200.92 346.91 200.92 346.9 200.92 346.88 200.91 346.86 200.89 346.83 200.87 346.81 200.85 346.78 200.83 346.75 200.81 346.7 200.79 346.69 200.79 346.64 200.78 346.6 200.8 346.57 200.81 346.54 200.83 346.51 200.82 346.5 200.8 346.49 200.78 346.46 200.75 346.34 200.51 346.34 200.49 346.34 200.46 346.34 200.43 346.35 200.4 346.36 200.37 346.36 200.35 346.36 200.32 346.34 200.27 346.32 200.19 346.29 200.05 346.26 199.9 346.24 199.85 346.23 199.84 346.21 199.78 346.18 199.72 346.16 199.65 346.16 199.63 346.13 199.58 346.12 199.54 346.1 199.47 346.1 199.45 346.01 198.45 345.98 198.43 345.94 198.42 345.9 198.4 345.86 198.39 345.85 198.38 345.83 198.38 345.82 198.37 345.8 198.37 345.79 198.36 345.78 198.35 345.76 198.35 345.74 198.34 345.73 198.34 345.72 198.33 345.71 198.33 345.71 198.32 345.7 198.32 345.7 198.31 345.7 198.3 345.69 198.3 345.69 198.29 345.69 198.28 345.69 198.27 345.69 198.25 345.7 198.23 345.7 198.21 345.7 198.2 345.7 198.19 345.7 198.18 345.7 198.17 345.7 198.15 345.7 198.14 345.7 198.13 345.7 198.12 345.7 198.1 345.7 198.09 345.7 198.08 345.69 198.07 345.69 198.06 345.69 198.05 345.69 198.04 345.69 198.03 345.69 198.02 345.69 198.01 345.69 198 345.7 197.99 345.7 197.98 345.7 197.96 345.7 197.96 345.7 197.95 345.7 197.94 345.71 197.93 345.71 197.91 345.72 197.9 345.73 197.89 345.73 197.88 345.73 197.87 345.73 197.86 345.73 197.85 345.73 197.84 345.73 197.83 345.73 197.82 345.73 197.81 345.73 197.8 345.73 197.79 345.72 197.79 345.72 197.78 345.71 197.78 345.7 197.77 345.7 197.77 345.69 197.76 345.68 197.76 345.67 197.75 345.66 197.75 345.65 197.74 345.63 197.74 345.62 197.73 345.61 197.72 345.6 197.71 345.59 197.71 345.58 197.7 345.57 197.69 345.56 197.68 345.55 197.68 345.54 197.67 345.53 197.65 345.52 197.64 345.51 197.63 345.5 197.62 345.49 197.61 345.47 197.6 345.46 197.59 345.45 197.58 345.44 197.57 345.39 197.53 345.34 197.45 345.29 197.37 345.25 197.32 345.22 197.28 345.17 197.16 345.15 197.04 345.13 196.9 345.13 196.84 345.09 196.69 345.05 196.54 344.95 196.25 344.95 196.23 344.94 196.21 344.93 196.19 344.92 196.17 344.92 196.15 344.91 196.13 344.9 196.11 344.89 196.09 344.89 196.07 344.88 196.05 344.88 196.04 344.87 196.02 344.86 196 344.86 195.98 344.85 195.96 344.85 195.94 344.85 195.92 344.84 195.9 344.84 195.88 344.84 195.86 344.83 195.84 344.83 195.82 344.83 195.81 344.83 195.8 344.82 195.79 344.82 195.78 344.82 195.78 344.82 195.77 344.81 195.76 344.81 195.75 344.81 195.74 344.8 195.74 344.8 195.73 344.79 195.72 344.79 195.71 344.78 195.71 344.78 195.69 344.77 195.68 344.77 195.67 344.76 195.66 344.76 195.65 344.75 195.64 344.75 195.63 344.75 195.62 344.74 195.6 344.74 195.59 344.74 195.58 344.73 195.57 344.73 195.56 344.73 195.54 344.73 195.53 344.73 195.52 344.73 195.51 344.73 195.49 344.72 195.48 344.72 195.47 344.72 195.46 344.72 195.45 344.72 195.44 344.72 195.42 344.71 195.41 344.71 195.4 344.71 195.39 344.7 195.38 344.7 195.36 344.7 195.35 344.69 195.34 344.69 195.33 344.68 195.32 344.68 195.31 344.67 195.3 344.67 195.29 344.67 195.29 344.67 195.28 344.67 195.27 344.67 195.26 344.68 195.25 344.68 195.24 344.69 195.23 344.69 195.23 344.69 195.22 344.69 195.21 344.69 195.2 344.69 195.19 344.69 195.18 344.68 195.17 344.68 195.16 344.67 195.15 344.67 195.15 344.66 195.14 344.66 195.13 344.65 195.12 344.65 195.11 344.64 195.1 344.63 195.1 344.63 195.09 344.62 195.08 344.62 195.08 344.61 195.07 344.6 195.06 344.59 195.05 344.59 195.05 344.58 195.04 344.57 195.03 344.56 195.02 344.55 195.02 344.54 195.01 344.53 195 344.53 194.99 344.52 194.98 344.51 194.97 344.5 194.96 344.5 194.95 344.49 194.94 344.48 194.93 344.47 194.92 344.47 194.91 344.46 194.9 344.46 194.89 344.45 194.88 344.44 194.86 344.44 194.86 344.44 194.85 344.44 194.84 344.43 194.83 344.43 194.83 344.42 194.82 344.42 194.81 344.41 194.8 344.41 194.8 344.41 194.79 344.4 194.79 344.39 194.78 344.39 194.77 344.38 194.77 344.38 194.76 344.37 194.76 344.36 194.75 344.35 194.75 344.35 194.74 344.34 194.74 344.33 194.73 344.32 194.73 344.32 194.72 344.31 194.72 344.3 194.71 344.29 194.71 344.29 194.7 344.28 194.7 344.27 194.69 344.27 194.68 344.26 194.68 344.26 194.67 344.26 194.66 344.27 194.66 344.27 194.65 344.27 194.63 344.28 194.63 344.28 194.62 344.28 194.6 344.29 194.59 344.29 194.58 344.29 194.57 344.29 194.56 344.29 194.55 344.3 194.54 344.3 194.53 344.3 194.52 344.3 194.51 344.3 194.5 344.3 194.49 344.3 194.48 344.3 194.47 344.3 194.46 344.3 194.45 344.3 194.44 344.3 194.43 344.3 194.42 344.29 194.41 344.29 194.4 344.29 194.39 344.29 194.39 344.28 194.37 344.28 194.37 344.28 194.36 344.27 194.35 344.27 194.34 344.26 194.33 344.26 194.32 344.25 194.31 344.25 194.3 344.25 194.29 344.24 194.28 344.24 194.27 344.24 194.27 344.23 194.26 344.23 194.25 344.23 194.24 344.23 194.23 344.22 194.22 344.22 194.21 344.22 194.2 344.22 194.19 344.22 194.18 344.22 194.17 344.22 194.16 344.22 194.15 344.22 194.14 344.22 194.13 344.23 194.12 344.23 194.11 344.23 194.1 344.23 194.08 344.23 194.07 344.23 194.06 344.23 194.05 344.23 194.04 344.23 194.03 344.23 194.02 344.23 194.01 344.23 194 344.23 193.99 344.22 193.98 344.22 193.97 344.22 193.96 344.22 193.95 344.22 193.94 344.22 193.93 344.22 193.93 344.22 193.92 344.22 193.91 344.22 193.9 344.22 193.89 344.23 193.88 344.23 193.87 344.23 193.87 344.23 193.86 344.23 193.85 344.24 193.84 344.24 193.83 344.24 193.83 344.24 193.82 344.25 193.81 344.25 193.8 344.26 193.8 344.26 193.79 344.27 193.77 344.27 193.75 344.28 193.74 344.29 193.72 344.3 193.7 344.3 193.68 344.31 193.67 344.31 193.65 344.32 193.63 344.32 193.62 344.33 193.6 344.33 193.58 344.34 193.56 344.34 193.54 344.35 193.53 344.35 193.51 344.36 193.49 344.36 193.48 344.36 193.46 344.36 193.45 344.36 193.43 344.36 193.42 344.36 193.4 344.36 193.39 344.36 193.37 344.36 193.36 344.36 193.34 344.36 193.33 344.35 193.32 344.35 193.3 344.35 193.29 344.35 193.27 344.34 193.26 344.34 193.24 344.34 193.23 344.33 193.21 344.33 193.18 344.33 193.16 344.33 193.15 344.33 193.14 344.33 193.13 344.33 193.12 344.33 193.11 344.34 193.1 344.36 193.07 344.37 193.04 344.38 193.03 344.39 193.02 344.4 193.01 344.4 193 344.41 192.99 344.42 192.98 344.43 192.97 344.44 192.96 344.45 192.95 344.46 192.94 344.47 192.93 344.48 192.93 344.48 192.92 344.49 192.92 344.5 192.91 344.5 192.91 344.51 192.9 344.51 192.89 344.52 192.89 344.52 192.88 344.53 192.88 344.54 192.86 344.54 192.86 344.55 192.85 344.55 192.84 344.55 192.83 344.55 192.82 344.56 192.81 344.56 192.8 344.56 192.79 344.56 192.78 344.56 192.76 344.56 192.75 344.56 192.74 344.55 192.73 344.55 192.72 344.55 192.71 344.55 192.7 344.55 192.69 344.54 192.68 344.54 192.67 344.54 192.66 344.54 192.65 344.53 192.64 344.53 192.63 344.52 192.62 344.52 192.6 344.51 192.59 344.51 192.57 344.5 192.56 344.5 192.54 344.49 192.53 344.49 192.51 344.48 192.5 344.48 192.48 344.47 192.47 344.47 192.45 344.47 192.44 344.46 192.42 344.46 192.41 344.46 192.39 344.45 192.38 344.45 192.36 344.44 192.34 344.44 192.31 344.44 192.28 344.43 192.26 344.43 192.23 344.42 192.2 344.42 192.18 344.42 192.15 344.41 192.13 344.41 192.1 344.41 192.07 344.41 192.05 344.41 192.02 344.4 191.99 344.4 191.96 344.36 191.48 343.87 190.68 343.94 190.61 343.96 190.58 343.98 190.56 344.01 190.53 344.05 190.5 344.07 190.48 344.11 190.46 344.16 190.43 344.19 190.39 344.21 190.37 344.23 190.31 344.26 190.26 344.27 190.23 344.33 190.2 344.37 190.17 344.41 190.16 344.45 190.15 344.47 190.14 344.5 190.11 344.53 190.09 344.56 190.08 344.59 190.08 344.62 190.09 344.65 190.09 344.69 190.08 344.77 190.06 344.81 190.07 344.86 190.07 344.91 190.07 344.95 190.06 344.98 190.06 345.04 190.04 345.09 190.04 345.13 190.05 345.19 190.05 345.24 190.06 345.3 190.07 345.35 190.07 345.43 190.07 345.48 190.06 345.52 190.07 345.57 190.06 345.64 190.06 345.76 190.05 345.85 190.03 345.86 190.03 345.88 190.02 345.92 190.01 345.97 189.99 346.04 189.95 346.07 189.92 346.1 189.9 346.11 189.87 346.12 189.84 346.13 189.81 346.15 189.8 346.17 189.78 346.19 189.77 346.22 189.74 346.26 189.72 346.29 189.7 346.33 189.68 346.34 189.67 346.41 189.63 346.47 189.59 346.55 189.54 346.54 189.53 346.54 189.51 346.54 189.47 346.52 189.43 346.5 189.39 346.5 189.34 346.51 189.3 346.54 189.2 346.56 189.14 346.57 189.08 346.58 189.02 346.59 188.95 346.59 188.92 346.59 188.87 346.59 188.81 346.6 188.76 346.62 188.68 346.6 188.64 346.58 188.61 346.57 188.6 346.54 188.58 346.52 188.56 346.5 188.55 346.48 188.52 346.46 188.49 346.45 188.47 346.43 188.45 346.41 188.44 346.4 188.42 346.38 188.4 346.35 188.37 346.34 188.35 346.32 188.35 346.3 188.34 346.27 188.33 346.2 188.29 346.18 188.28 346.16 188.26 346.14 188.24 346.12 188.22 346.11 188.2 346.08 188.18 346.05 188.15 346.03 188.14 346.02 188.12 345.98 188.06 345.95 188 345.94 187.96 345.93 187.9 345.93 187.82 345.93 187.78 345.94 187.73 345.94 187.7 345.94 187.68 345.92 187.66 345.89 187.64 345.84 187.61 345.81 187.57 345.78 187.53 345.76 187.51 345.74 187.47 345.73 187.43 345.73 187.41 345.72 187.39 345.72 187.38 345.71 187.36 345.7 187.35 345.69 187.34 345.69 187.33 345.7 187.32 345.7 187.3 345.7 187.28 345.69 187.27 345.67 187.24 345.64 187.21 345.61 187.17 345.6 187.15 345.57 187.13 345.55 187.12 345.52 187.11 345.51 187.09 345.5 187.08 345.49 187.06 345.49 187.03 345.48 187 345.46 186.96 345.43 186.91 345.4 186.86 345.38 186.81 345.35 186.76 345.33 186.7 345.32 186.65 345.31 186.59 345.3 186.52 345.3 186.47 345.29 186.39 345.29 186.32 345.29 186.28 345.3 186.23 345.29 186.17 345.28 186.11 345.28 186.07 345.29 186.02 345.28 185.97 345.29 185.93 345.29 185.87 345.3 185.83 345.29 185.78 345.29 185.72 345.28 185.67 345.28 185.62 345.26 185.55 345.25 185.52 345.25 185.47 345.24 185.41 345.24 185.36 345.24 185.32 345.24 185.28 345.23 185.23 345.23 185.2 345.23 185.16 345.23 185.12 345.25 185.07 345.25 185.03 345.27 184.99 345.27 184.96 345.29 184.93 345.29 184.89 345.26 184.85 346.93 183.73 346.63 182.75 347.83 182 347.85 181.97 347.79 181.92 347.72 181.85 347.66 181.79 347.62 181.77 347.58 181.73 347.57 181.73 347.55 181.69 347.52 181.62 347.48 181.57 347.47 181.52 347.44 181.46 347.42 181.4 347.39 181.35 347.38 181.3 347.37 181.27 347.36 181.23 347.35 181.2 347.33 181.17 347.31 181.14 347.29 181.11 347.27 181.08 347.22 181.02 347.17 180.96 347.07 180.84 347.03 180.81 347.02 180.78 347 180.78 346.98 180.77 346.93 180.76 346.88 180.74 346.84 180.73 346.79 180.71 346.74 180.7 346.71 180.69 346.67 180.69 346.61 180.68 346.57 180.67 346.5 180.65 346.47 180.64 346.42 180.63 346.39 180.62 346.36 180.61 346.29 180.58 346.23 180.56 346.17 180.54 346.05 180.5 346.02 180.49 345.97 180.47 345.92 180.45 345.85 180.42 345.8 180.4 345.75 180.39 345.7 180.39 345.64 180.36 345.63 180.32 345.62 180.28 345.61 180.24 345.59 180.2 345.56 180.17 345.55 180.15 345.53 180.12 345.51 180.09 345.49 180.05 345.47 180.03 345.44 180.02 345.41 180 345.38 179.99 345.34 179.99 345.31 180 345.28 180.01 345.25 180 345.23 179.99 345.22 179.98 345.21 179.96 345.19 179.94 345.2 179.92 345.21 179.89 345.21 179.88 345.23 179.85 345.25 179.82 345.25 179.79 345.26 179.75 345.27 179.71 345.28 179.69 345.3 179.66 345.33 179.63 345.37 179.61 345.41 179.59 345.46 179.57 345.5 179.55 345.53 179.53 345.55 179.51 345.58 179.44 345.6 179.39 345.6 179.36 345.61 179.35 345.61 179.32 345.62 179.28 345.63 179.25 345.64 179.22 345.66 179.2 345.71 179.17 345.75 179.14 345.78 179.11 345.81 179.09 345.82 179.07 345.82 179.04 345.82 179 345.82 178.97 345.82 178.92 345.82 178.87 345.83 178.8 345.85 178.73 345.87 178.63 345.88 178.57 345.88 178.53 345.88 178.48 345.86 178.42 345.85 178.39 345.84 178.37 345.84 178.35 345.83 178.33 345.83 178.3 345.83 178.28 345.83 178.26 345.83 178.22 345.84 178.19 345.84 178.17 345.84 178.14 345.85 178.12 345.85 178.09 345.85 178.07 345.85 178.04 345.85 178.03 345.86 178.02 345.87 178 345.88 177.99 345.9 177.97 345.91 177.96 345.92 177.93 345.94 177.91 345.96 177.87 345.97 177.83 345.96 177.78 345.95 177.72 345.93 177.65 345.92 177.62 345.9 177.58 345.87 177.53 345.85 177.48 345.83 177.43 345.82 177.37 345.83 177.33 345.84 177.28 345.86 177.23 345.86 177.19 345.88 177.14 345.9 177.09 345.93 177.03 345.94 177.01 345.95 176.96 345.96 176.95 345.96 176.93 345.97 176.91 345.97 176.89 345.97 176.88 345.97 176.86 345.97 176.84 345.96 176.83 345.96 176.82 Z"/>
</g></svg>