<svg xmlns="http://www.w3.org/2000/svg" version="1.2" baseProfile="tiny" stroke-linecap="round" stroke-linejoin="round" viewBox="172.1 129.42 19.88 24.33"><g xmlns="http://www.w3.org/2000/svg" id="Bedia">
<path d="M 191.96 130.23 191.89 130.57 191.86 130.67 191.63 130.99 191.44 131.25 191.09 131.58 190.72 132.02 190.45 132.46 190.09 133.01 189.9 133.32 189.69 133.65 189.48 133.99 189.27 134.35 189.13 134.59 188.93 134.9 188.72 135.23 188.34 135.7 188.07 136.12 187.8 137 187.81 137.47 187.85 138.12 187.89 138.3 187.88 139.08 187.93 139.46 187.93 140.11 187.94 140.67 187.99 141.29 188.04 141.82 187.6 142.68 187.3 143.18 187.08 143.66 186.97 143.85 186.89 144.02 186.74 144.43 186.43 144.7 185.94 145.18 185.69 145.46 184.73 146.64 184.42 146.53 184.38 146.51 184.34 146.82 184.12 147.21 184.16 147.33 184.1 147.57 184.08 147.77 183.86 147.96 183.75 147.98 183.53 148.05 183.41 148.26 183.26 148.52 183.19 148.61 183.04 148.62 182.85 148.72 182.62 148.83 182.58 149.28 182.41 149.35 182.11 149.65 181.89 149.79 181.73 149.91 181.42 150.09 181.13 150.15 181.09 150.2 180.82 150.28 180.83 150.45 180.76 150.61 180.81 150.71 180.76 150.97 180.57 151.65 180.06 151.53 179.72 151.38 179.58 151.35 178.89 151.19 178.42 151.13 178.18 151.06 178.01 151.22 177.69 151.33 177.27 151.18 176.78 151.4 176.43 151.53 175.9 151.71 175.48 151.85 175.14 152.29 174.98 152.49 174.82 152.71 174.81 152.95 174.8 153.15 174.78 153.46 174.54 153.73 174.31 153.38 174.28 153.33 174.25 153.28 174.23 153.23 174.2 153.18 174.17 153.14 174.13 153.1 174.09 153.03 174.05 153 174.01 152.96 173.96 152.93 173.92 152.89 173.88 152.84 173.83 152.81 173.78 152.78 173.73 152.75 173.68 152.72 173.62 152.7 173.56 152.7 173.49 152.7 173.47 152.69 173.45 152.63 173.42 152.42 173.4 152.36 173.4 152.31 173.4 152.26 173.41 152.19 173.44 152.04 173.41 152.01 173.37 151.95 173.35 151.85 173.28 151.81 173.25 151.78 173.2 151.7 173.17 151.66 173.15 151.64 173.09 151.61 173.03 151.58 172.98 151.54 172.93 151.48 172.89 151.44 172.87 151.4 172.85 151.38 172.86 151.34 172.87 151.32 172.88 151.27 172.89 151.23 172.89 151.19 172.88 151.14 172.86 151.11 172.83 151.08 172.8 151.05 172.77 151.04 172.71 151.03 172.65 151.02 172.59 151.01 172.55 150.99 172.52 150.96 172.49 150.92 172.47 150.88 172.46 150.85 172.45 150.81 172.45 150.77 172.46 150.74 172.49 150.68 172.55 150.6 172.61 150.52 172.65 150.46 172.69 150.41 172.7 150.36 172.72 150.31 172.72 150.25 172.72 150.2 172.71 150.15 172.7 150.09 172.68 150.04 172.64 150 172.6 149.96 172.55 149.93 172.5 149.9 172.46 149.86 172.43 149.81 172.41 149.76 172.38 149.71 172.34 149.65 172.31 149.59 172.28 149.53 172.27 149.47 172.25 149.42 172.24 149.36 172.24 149.3 172.24 149.24 172.25 149.16 172.26 149.08 172.27 149.02 172.27 148.97 172.27 148.89 172.26 148.88 172.26 148.82 172.26 148.79 172.24 148.7 172.23 148.62 172.23 148.56 172.22 148.51 172.22 148.46 172.21 148.41 172.2 148.38 172.18 148.35 172.14 148.31 172.11 148.27 172.12 148.26 172.13 148.22 172.16 148.19 172.17 148.14 172.18 148.08 172.22 148 172.24 147.94 172.26 147.89 172.29 147.83 172.33 147.77 172.34 147.72 172.37 147.57 172.41 147.49 172.44 147.43 172.48 147.41 172.53 147.38 172.56 147.35 172.59 147.31 172.6 147.26 172.64 147.22 172.66 147.18 172.69 147.12 172.72 147.07 172.79 146.98 172.79 146.93 172.8 146.88 172.81 146.83 172.83 146.78 172.86 146.74 172.88 146.69 172.9 146.65 172.93 146.61 172.97 146.56 173 146.52 173.03 146.48 173.11 146.34 173.13 146.32 173.15 146.28 173.19 146.21 173.22 146.13 173.27 146.04 173.29 145.98 173.31 145.93 173.34 145.89 173.36 145.87 173.4 145.85 173.46 145.84 173.52 145.84 173.58 145.84 173.63 145.82 173.68 145.81 173.74 145.79 173.8 145.78 173.85 145.77 173.89 145.75 173.92 145.73 173.95 145.72 173.98 145.68 174.01 145.62 174.04 145.56 174.07 145.52 174.1 145.48 174.13 145.46 174.16 145.44 174.19 145.44 174.22 145.42 174.27 145.37 174.31 145.33 174.33 145.31 174.35 145.28 174.36 145.22 174.36 145.16 174.37 145.11 174.39 145.08 174.41 145.04 174.44 145.01 174.48 144.97 174.53 144.94 174.58 144.91 174.6 144.88 174.62 144.83 174.64 144.78 174.66 144.75 174.7 144.72 174.73 144.68 174.75 144.63 174.78 144.58 174.81 144.55 174.84 144.53 174.88 144.51 174.94 144.49 174.98 144.47 175.19 144.15 175.28 143.86 175.75 143.58 175.77 143.52 175.8 143.44 175.83 143.38 175.86 143.32 175.91 143.23 175.94 143.16 175.98 143.1 176 143.07 176.02 143.05 176.04 143 176.06 142.96 176.07 142.92 176.09 142.88 176.13 142.83 176.15 142.79 176.16 142.75 176.16 142.69 176.14 142.64 176.11 142.59 176.09 142.54 176.08 142.49 176.08 142.46 176.09 142.44 176.13 142.41 176.16 142.38 176.17 142.36 176.18 142.32 176.16 142.28 176.11 142.24 176.06 142.21 176.01 142.18 175.96 142.16 175.92 142.13 175.89 142.1 175.87 142.06 175.85 142.02 175.84 141.98 175.85 141.95 175.86 141.92 175.9 141.89 175.95 141.84 176.01 141.8 176.06 141.74 176.09 141.7 176.13 141.66 176.13 141.63 176.11 141.58 176.07 141.59 176.04 141.58 176.02 141.57 176.01 141.56 176.01 141.54 176.01 141.53 176.01 141.52 176.04 141.48 176.04 141.46 176.02 141.42 176 141.38 176 141.33 175.99 141.26 176.01 141.22 176.04 141.11 176.07 141.05 176.08 141 176.08 140.95 176.08 140.89 176.07 140.83 176.07 140.76 176.07 140.7 176.08 140.64 176.09 140.58 176.11 140.52 176.13 140.47 176.16 140.41 176.18 140.36 176.19 140.35 176.22 140.36 176.27 140.37 176.3 140.36 176.32 140.34 176.33 140.3 176.35 140.25 176.39 140.21 176.43 140.17 176.47 140.12 176.51 140.08 176.53 140.04 176.55 139.99 176.56 139.96 176.55 139.91 176.54 139.87 176.5 139.81 176.49 139.7 176.48 139.64 176.49 139.58 176.5 139.52 176.51 139.47 176.55 139.43 176.59 139.43 176.63 139.42 176.67 139.38 176.72 139.33 176.76 139.28 176.79 139.24 176.82 139.19 176.82 139.15 176.8 139.1 176.77 139.02 176.75 138.96 176.73 138.91 176.73 138.89 176.69 138.84 176.66 138.77 176.64 138.72 176.62 138.69 176.62 138.67 176.61 138.64 176.66 138.63 176.7 138.62 176.73 138.62 176.75 138.58 176.78 138.52 176.81 138.5 176.85 138.48 176.9 138.46 176.94 138.44 176.96 138.43 176.99 138.39 177.02 138.37 177.03 138.35 177.07 138.28 177.1 138.19 177.13 138.12 177.16 138.05 177.18 138.02 177.21 137.96 177.29 137.86 177.38 137.76 177.43 137.7 177.47 137.66 177.5 137.63 177.53 137.61 177.55 137.59 177.6 137.56 177.66 137.54 177.77 137.51 177.82 137.5 177.88 137.48 177.92 137.46 177.95 137.44 177.98 137.41 178 137.39 178.01 137.38 178.02 137.37 178.04 137.34 178.05 137.31 178.07 137.27 178.18 137.01 178.2 136.94 178.2 136.9 178.2 136.83 178.2 136.77 178.2 136.73 178.21 136.7 178.22 136.67 178.24 136.64 178.27 136.61 178.31 136.57 178.35 136.54 178.41 136.51 178.47 136.47 178.53 136.44 178.58 136.42 178.65 136.39 178.74 136.36 178.82 136.34 178.92 136.31 178.99 136.28 179.07 136.24 179.14 136.21 179.19 136.19 179.21 136.17 179.23 136.15 179.26 136.14 179.27 136.13 179.35 136.13 179.36 136.13 179.38 136.14 179.41 136.16 179.43 136.18 179.45 136.2 179.45 136.21 179.45 136.24 179.46 136.28 179.47 136.29 179.49 136.29 179.53 136.29 179.57 136.26 179.64 136.24 179.7 136.21 179.74 136.2 179.79 136.2 179.83 136.2 179.87 136.2 179.9 136.19 179.95 136.17 179.99 136.17 180.05 136.16 180.11 136.15 180.16 136.15 180.2 136.14 180.24 136.13 180.28 136.1 180.33 136.06 180.39 136.03 180.43 136 180.48 135.99 180.53 135.97 180.57 135.97 180.61 135.96 180.64 135.94 180.67 135.91 180.72 135.88 180.77 135.86 180.82 135.84 180.86 135.81 180.9 135.78 180.91 135.77 180.9 135.67 180.92 135.64 180.93 135.62 180.94 135.58 180.96 135.55 180.99 135.53 181.02 135.54 181.07 135.56 181.11 135.57 181.14 135.57 181.16 135.57 181.18 135.57 181.21 135.55 181.22 135.54 181.24 135.51 181.24 135.5 181.26 135.47 181.28 135.44 181.3 135.42 181.33 135.4 181.37 135.38 181.42 135.35 181.45 135.34 181.46 135.33 181.49 135.32 181.52 135.32 181.57 135.34 181.63 135.36 181.66 135.38 181.68 135.38 181.69 135.39 181.75 135.41 181.79 135.42 181.83 135.43 181.86 135.44 181.9 135.45 181.93 135.45 181.94 135.46 181.94 135.48 181.94 135.51 181.94 135.54 181.94 135.58 181.92 135.6 181.92 135.62 181.92 135.65 181.93 135.66 181.95 135.66 181.99 135.66 182.04 135.66 182.1 135.64 182.16 135.63 182.21 135.61 182.25 135.6 182.27 135.6 182.31 135.56 182.2 135.25 182.1 134.97 182.04 134.8 182.12 134.75 182.16 134.73 182.2 134.71 182.23 134.69 182.27 134.7 182.32 134.71 182.36 134.71 182.4 134.7 182.49 134.72 182.61 134.7 182.66 134.7 182.68 134.68 182.69 134.68 182.71 134.69 182.74 134.7 182.77 134.7 182.79 134.69 182.83 134.66 182.84 134.64 182.85 134.61 182.88 134.61 182.94 134.64 182.99 134.66 183.04 134.68 183.07 134.68 183.09 134.67 183.14 134.64 183.2 134.64 183.21 134.64 183.25 134.61 183.26 134.61 183.3 134.57 183.33 134.53 183.39 134.51 183.43 134.5 183.44 134.5 183.45 134.49 183.5 134.47 183.52 134.48 183.53 134.53 183.54 134.55 183.54 134.55 183.54 134.56 183.55 134.57 183.56 134.57 183.57 134.57 183.58 134.57 183.58 134.58 183.59 134.58 183.6 134.58 183.61 134.58 183.62 134.57 183.63 134.57 183.64 134.57 183.65 134.56 183.65 134.56 183.66 134.55 183.73 134.47 183.99 134.22 184.14 133.91 184.34 133.64 184.53 133.15 184.64 132.87 184.65 132.78 184.67 132.72 184.7 132.66 184.7 132.65 184.72 132.61 184.74 132.57 184.76 132.53 184.77 132.5 184.8 132.44 184.83 132.39 184.86 132.34 184.9 132.28 184.93 132.23 184.96 132.18 184.99 132.14 185.02 132.1 185.07 131.99 185.14 131.94 185.17 131.91 185.2 131.88 185.24 131.85 185.27 131.82 185.3 131.79 185.33 131.76 185.35 131.75 185.39 131.69 185.83 131.29 186.2 131.82 186.4 131.9 186.87 132.07 187.43 132.32 187.53 132.17 187.62 132.03 188 131.54 188.03 131.56 188.83 130.21 189.19 129.61 189.31 129.42 189.44 129.59 189.45 129.59 189.46 129.6 189.47 129.6 189.49 129.6 189.5 129.6 189.5 129.6 189.51 129.6 189.52 129.6 189.53 129.6 189.54 129.6 189.55 129.6 189.56 129.6 189.57 129.6 189.58 129.6 189.59 129.6 189.6 129.6 189.61 129.6 189.62 129.6 189.62 129.61 189.63 129.61 189.64 129.61 189.65 129.61 189.66 129.62 189.67 129.62 189.68 129.62 189.69 129.63 189.7 129.63 189.71 129.63 189.74 129.63 189.79 129.62 189.86 129.67 189.87 129.67 189.87 129.68 189.88 129.68 189.89 129.68 189.89 129.69 189.91 129.69 189.92 129.69 189.93 129.69 189.94 129.69 189.95 129.69 189.96 129.69 189.96 129.69 189.97 129.69 189.98 129.68 189.99 129.68 190 129.68 190.01 129.68 190.02 129.67 190.03 129.67 190.04 129.67 190.05 129.66 190.06 129.66 190.07 129.66 190.08 129.66 190.09 129.65 190.1 129.65 190.11 129.65 190.12 129.64 190.14 129.64 190.15 129.64 190.16 129.64 190.17 129.63 190.18 129.63 190.19 129.63 190.2 129.63 190.21 129.62 190.22 129.62 190.22 129.62 190.23 129.62 190.24 129.62 190.25 129.62 190.26 129.62 190.26 129.62 190.27 129.63 190.28 129.63 190.29 129.64 190.29 129.64 190.3 129.65 190.31 129.66 190.32 129.67 190.37 129.68 190.37 129.72 190.39 129.75 190.4 129.76 190.41 129.76 190.42 129.76 190.44 129.76 190.45 129.76 190.46 129.76 190.47 129.75 190.48 129.75 190.48 129.75 190.49 129.74 190.5 129.74 190.51 129.74 190.51 129.73 190.52 129.73 190.53 129.72 190.54 129.72 190.54 129.71 190.55 129.7 190.56 129.7 190.57 129.69 190.57 129.68 190.58 129.68 190.58 129.67 190.59 129.67 190.6 129.66 190.61 129.66 190.62 129.65 190.63 129.65 190.64 129.65 190.65 129.65 190.66 129.65 190.67 129.65 190.68 129.65 190.69 129.65 190.7 129.65 190.71 129.65 190.72 129.65 190.73 129.65 190.75 129.65 190.76 129.65 190.77 129.65 190.78 129.65 190.79 129.66 190.8 129.66 190.81 129.67 190.82 129.68 190.83 129.69 190.83 129.69 190.84 129.71 190.84 129.72 190.84 129.73 190.84 129.74 190.85 129.81 190.85 129.82 190.85 129.82 190.86 129.83 190.86 129.84 190.87 129.85 190.87 129.85 190.88 129.86 190.88 129.87 190.89 129.88 190.9 129.88 190.9 129.89 190.92 129.9 190.92 129.9 190.93 129.9 190.94 129.91 190.95 129.91 190.96 129.91 190.97 129.91 190.98 129.91 190.99 129.91 191 129.91 191 129.91 191.01 129.91 191.02 129.9 191.03 129.9 191.04 129.9 191.05 129.89 191.07 129.89 191.08 129.88 191.09 129.88 191.11 129.88 191.12 129.87 191.13 129.87 191.14 129.87 191.15 129.87 191.16 129.88 191.17 129.88 191.18 129.88 191.19 129.88 191.2 129.88 191.2 129.88 191.21 129.89 191.22 129.89 191.23 129.89 191.24 129.89 191.25 129.89 191.26 129.89 191.27 129.89 191.28 129.9 191.28 129.9 191.29 129.9 191.3 129.9 191.31 129.9 191.32 129.9 191.32 129.9 191.33 129.9 191.34 129.9 191.35 129.89 191.35 129.89 191.36 129.89 191.37 129.88 191.38 129.87 191.39 129.87 191.4 129.87 191.41 129.86 191.42 129.86 191.43 129.86 191.44 129.86 191.45 129.87 191.46 129.87 191.47 129.87 191.48 129.88 191.68 129.84 191.72 129.85 191.78 129.85 191.79 129.88 191.78 129.99 191.74 130.05 191.96 130.23 Z"/>
</g></svg>