<svg xmlns="http://www.w3.org/2000/svg" version="1.2" baseProfile="tiny" stroke-linecap="round" stroke-linejoin="round" viewBox="691.52 82.87 9.55 12.17"><g xmlns="http://www.w3.org/2000/svg" id="Behaskane-Laphizketa">
<path d="M 695.69 83.25 695.74 83.27 695.84 83.34 695.92 83.32 695.99 83.26 696.04 83.25 696.13 83.3 696.19 83.31 696.24 83.29 696.28 83.22 696.31 83.17 696.38 83.1 696.43 83.08 696.48 83.08 696.52 83.07 696.56 83.02 696.65 82.95 696.73 82.91 696.77 82.91 696.84 82.95 696.88 82.94 696.94 82.91 697.02 82.87 697.21 83.01 697.15 83.17 697.03 83.41 697.05 83.46 697.18 83.54 697.72 84 697.81 84.13 697.73 84.24 697.75 84.29 698.05 84.46 698.06 84.44 698.1 84.43 698.13 84.43 698.2 84.45 698.33 84.48 698.52 84.51 698.72 84.51 698.75 84.49 698.85 84.38 698.96 84.41 698.98 84.51 699.04 84.54 699.07 84.54 699.16 84.35 699.28 84.37 699.34 84.15 699.55 84.25 699.45 84.57 699.54 84.58 699.54 84.89 699.82 84.93 700.1 84.93 700.26 84.95 700.23 84.87 700.17 84.77 700.46 84.8 700.58 84.81 700.53 85.06 700.52 85.15 700.54 85.2 700.62 85.21 700.75 85.74 700.83 86.14 700.92 86.55 701 86.95 701.06 87.33 701.05 87.34 700.96 87.37 700.92 87.4 700.9 87.42 700.82 87.52 700.78 87.59 700.77 87.6 700.77 87.62 700.77 87.63 700.78 87.64 700.79 87.66 700.84 87.7 700.89 87.76 700.91 87.77 700.91 87.79 700.91 87.8 700.91 87.81 700.89 87.84 700.83 87.92 700.76 88 700.7 88.08 700.66 88.12 700.62 88.15 700.56 88.19 700.48 88.24 700.38 88.29 700.32 88.34 700.29 88.35 700.23 88.41 700.13 88.52 700.06 88.58 700.05 88.6 700.04 88.62 700.02 88.65 699.99 88.7 699.97 88.74 699.96 88.76 699.92 88.79 699.77 88.93 699.75 88.94 699.74 88.95 699.74 88.97 699.75 88.98 699.42 89.18 699.18 89.51 699.19 89.69 699.16 89.92 699.06 90.37 698.98 90.95 699.12 91.48 699.11 91.48 699.15 91.68 699.16 92.19 699.26 92.62 699.47 93.19 699.5 93.54 699.54 93.57 699.59 93.62 699.61 93.64 699.62 93.66 699.62 93.71 699.65 93.89 699.68 94.07 699.7 94.16 699.72 94.31 699.74 94.44 699.75 94.49 699.77 94.56 699.79 94.62 699.62 94.66 698.97 94.83 698.94 94.57 698.92 94.37 698.91 94.26 698.9 94.16 698.88 94.1 698.87 94.03 698.85 93.97 698.84 93.92 698.82 93.87 698.8 93.83 698.79 93.79 698.79 93.75 698.79 93.73 698.78 93.69 698.77 93.63 698.77 93.56 698.76 93.5 698.76 93.44 698.76 93.37 698.75 93.32 698.75 93.26 698.73 93.19 698.72 93.15 698.71 93.11 698.7 93.07 698.68 92.98 698.66 92.95 698.65 92.92 698.62 92.91 698.61 92.9 698.58 92.89 698.54 92.88 698.52 92.88 698.47 92.86 698.44 92.85 698.42 92.83 698.39 92.8 698.35 92.78 698.32 92.76 698.27 92.74 698.24 92.73 698.19 92.72 698.15 92.71 698.1 92.7 698.06 92.69 697.99 92.68 697.96 92.67 697.9 92.66 697.35 93.25 697.08 92.7 697.04 92.77 696.96 92.91 696.93 92.99 696.91 93.05 696.77 93.02 696.76 93.05 696.73 93.09 696.71 93.12 696.68 93.15 696.66 93.17 696.63 93.2 696.6 93.22 696.57 93.26 696.55 93.28 696.53 93.32 696.5 93.35 696.47 93.4 696.46 93.42 696.42 93.46 696.4 93.49 696.37 93.51 696.35 93.54 696.33 93.55 696.2 93.53 696.18 93.57 696.1 93.67 696.08 93.7 696.03 93.79 696 93.84 695.97 93.88 695.86 94.07 695.7 94.33 695.64 94.43 695.59 94.49 695.47 94.61 695.41 94.66 695.39 94.67 695.29 94.74 695.25 94.77 695.24 94.77 695.14 94.86 695.02 94.97 694.96 95.03 694.44 94.6 694.38 94.63 693.9 94.38 693.74 94.55 693.57 94.75 693.51 94.91 693.41 94.92 693.13 94.69 693.04 94.68 692.96 94.77 692.87 94.81 692.58 94.62 692.46 94.59 692.42 94.63 691.56 94.95 691.69 94.75 691.72 94.67 691.63 94.57 691.55 94.51 691.61 94.36 691.7 94.36 691.83 94.42 691.88 94.4 692.04 94.09 692.09 93.91 691.73 93.71 692.19 92.99 692.24 92.91 692.29 92.82 692.34 92.66 692.38 92.55 692.42 92.45 692.48 92.34 692.58 92.17 692.68 91.99 692.74 91.88 693.11 92.09 693.13 92.04 693.15 91.99 693.17 91.94 693.19 91.89 693.22 91.84 693.25 91.8 693.28 91.74 693.3 91.7 693.33 91.63 693.37 91.55 693.39 91.48 693.4 91.4 693.4 91.33 693.39 91.27 693.37 91.21 693.37 91.16 693.37 91.1 693.37 91.04 693.36 90.97 693.35 90.91 693.35 90.86 693.35 90.81 693.35 90.75 693.34 90.68 693.19 90.36 693.22 90.29 693.18 90.22 693.2 90.2 693.23 90.17 693.27 90.13 693.3 90.1 693.34 90.05 693.37 90.03 693.41 89.99 693.43 89.97 693.46 89.96 693.49 89.93 693.51 89.91 693.52 89.88 693.5 89.88 693.48 89.87 693.45 89.86 693.43 89.84 693.41 89.82 693.38 89.8 693.36 89.77 693.34 89.76 693.33 89.72 693.32 89.7 693.31 89.69 693.3 89.65 693.3 89.63 693.3 89.59 693.3 89.57 693.31 89.54 693.32 89.51 693.32 89.49 693.33 89.45 693.34 89.42 693.35 89.38 693.37 89.34 693.39 89.31 693.41 89.27 693.42 89.24 693.44 89.2 693.47 89.16 693.49 89.13 693.51 89.11 693.52 89.1 693.53 89.07 693.53 89.04 693.52 89.01 693.51 88.98 693.51 88.95 693.51 88.92 693.51 88.88 693.52 88.85 693.52 88.82 693.52 88.8 693.53 88.71 693.54 88.67 693.54 88.63 693.55 88.57 693.56 88.54 693.57 88.5 693.58 88.47 693.61 88.4 693.64 88.34 693.65 88.31 693.67 88.25 693.66 88.18 693.66 88.14 693.65 88.11 693.63 88.05 693.62 88.03 693.6 88 693.58 87.97 693.55 87.95 693.53 87.92 693.5 87.91 693.47 87.89 693.44 87.88 693.4 87.87 693.38 87.86 693.35 87.85 693.32 87.85 693.3 87.85 693.27 87.84 693.24 87.84 693.2 87.83 693.18 87.83 693.15 87.82 693.12 87.81 693.09 87.8 693.07 87.79 693.04 87.78 693.02 87.77 692.99 87.76 692.96 87.76 692.93 87.75 692.91 87.73 692.88 87.72 692.87 87.71 692.85 87.69 692.83 87.67 692.8 87.65 692.78 87.63 692.74 87.6 692.72 87.59 692.69 87.56 692.68 87.55 692.66 87.53 692.64 87.53 692.63 87.52 692.61 87.52 692.6 87.5 692.81 87.06 692.84 86.9 692.62 86.82 692.34 86.79 692.38 86.63 692.27 86.53 692.55 86.12 692.58 86.11 692.64 85.89 693.01 85.77 693.51 85.59 693.1 85.23 693.14 85.18 693.24 85.06 693.34 84.96 693.44 84.86 693.58 84.74 693.62 84.7 693.75 84.69 693.87 84.71 693.9 84.7 693.97 84.66 694.03 84.59 694.16 84.5 694.18 84.44 694.2 84.4 694.27 84.35 694.28 84.34 694.3 84.34 694.37 84.34 694.43 84.34 694.53 84.25 694.63 84.13 694.71 84.03 694.82 83.98 694.91 83.93 694.94 83.88 694.95 83.79 694.95 83.74 694.97 83.71 695.01 83.69 695.04 83.69 695.08 83.69 695.13 83.68 695.21 83.63 695.26 83.62 695.3 83.62 695.34 83.63 695.41 83.64 695.45 83.61 695.47 83.52 695.49 83.44 695.52 83.39 695.55 83.37 695.57 83.36 695.61 83.34 695.63 83.32 695.66 83.26 695.69 83.25 Z"/>
</g></svg>