<svg xmlns="http://www.w3.org/2000/svg" version="1.2" baseProfile="tiny" stroke-linecap="round" stroke-linejoin="round" viewBox="662.45 66.47 14.4 19.38"><g xmlns="http://www.w3.org/2000/svg" id="Behauze">
<path d="M 670.32 67.88 670.46 67.87 670.44 67.52 670.57 67.54 670.71 67.64 670.72 67.83 671.02 67.88 671.02 67.86 671.04 67.82 671.08 67.73 671.11 67.63 671.14 67.55 671.15 67.5 671.15 67.44 671.22 67.48 671.26 67.5 671.29 67.51 671.33 67.51 671.42 67.5 671.47 67.48 671.51 67.48 671.56 67.47 671.72 67.49 671.93 67.51 671.98 67.52 672.04 67.51 672.09 67.5 672.54 67.64 672.39 68.03 672.49 68.01 672.61 67.98 672.69 67.97 672.88 67.93 673 67.88 673.09 67.91 673.11 68.08 673.25 68.15 673.34 68.24 673.28 68.07 673.25 68.02 673.23 67.98 673.22 67.94 673.2 67.88 673.19 67.83 673.17 67.77 673.17 67.74 673.15 67.7 673.14 67.67 673.13 67.65 673.13 67.62 673.12 67.59 673.11 67.56 673.09 67.46 673.08 67.42 673.07 67.38 673.06 67.33 673.09 67.15 673.09 67.12 673.08 67.07 673.07 67.02 673.05 66.99 673.05 66.95 673.04 66.89 673.04 66.85 673.05 66.83 673.07 66.8 673.1 66.78 673.13 66.78 673.18 66.8 673.33 66.5 673.38 66.49 673.41 66.49 673.47 66.51 673.5 66.53 673.53 66.57 673.56 66.6 673.59 66.63 673.61 66.68 673.67 66.8 673.72 66.91 673.78 67.02 673.85 67.12 673.88 67.15 673.9 67.17 673.94 67.21 673.98 67.24 674.03 67.28 674.09 67.32 674.15 67.36 674.22 67.39 674.3 67.42 674.36 67.44 674.37 67.45 674.44 67.47 674.59 67.52 674.68 67.55 674.71 67.55 674.74 67.55 674.76 67.55 674.78 67.55 674.81 67.53 674.83 67.5 674.88 67.41 674.94 67.3 674.98 67.21 674.99 67.19 675.43 67.48 675.35 67.63 675.91 68.02 675.98 68.07 676.49 67.97 676.5 68.31 675.98 68.43 676.13 68.9 675.5 68.78 675.47 69.26 675.55 69.24 675.96 69.74 675.63 69.93 675.48 70.2 675.52 70.18 675.56 70.17 675.6 70.17 675.63 70.16 675.64 70.16 675.66 70.16 675.7 70.16 675.75 70.17 675.68 70.22 675.71 70.21 675.73 70.21 675.78 70.22 675.83 70.23 675.85 70.24 675.87 70.26 675.88 70.27 675.9 70.3 675.92 70.32 675.93 70.34 675.93 70.37 675.93 70.39 675.92 70.41 675.92 70.43 675.9 70.46 675.89 70.47 675.88 70.49 675.87 70.51 675.86 70.52 675.85 70.54 675.85 70.56 675.85 70.58 675.86 70.59 675.88 70.6 675.9 70.62 675.91 70.64 675.92 70.66 675.92 70.69 675.92 70.71 675.92 70.72 675.92 70.75 675.92 70.78 675.91 70.81 675.9 70.85 675.89 70.88 675.89 70.9 675.87 70.93 675.86 70.96 675.85 70.98 675.84 71.01 675.83 71.04 675.82 71.07 675.82 71.11 675.81 71.17 675.81 71.21 675.81 71.25 675.81 71.26 675.8 71.29 675.79 71.32 675.78 71.34 675.76 71.36 675.75 71.38 675.72 71.4 675.71 71.41 675.68 71.43 675.67 71.44 675.65 71.46 675.63 71.48 675.61 71.49 675.6 71.52 675.6 71.55 675.6 71.58 675.6 71.62 675.6 71.67 675.6 71.71 675.6 71.77 675.6 71.8 675.61 71.82 675.61 71.84 675.63 71.86 675.64 71.87 675.66 71.88 675.68 71.88 675.7 71.89 675.72 71.91 675.73 71.93 675.75 71.96 675.77 72 675.78 72.03 675.79 72.05 675.79 72.08 675.78 72.1 675.77 72.13 675.76 72.14 675.75 72.16 675.74 72.18 675.74 72.2 675.75 72.22 675.76 72.24 675.77 72.25 675.78 72.27 675.78 72.29 675.78 72.3 675.76 72.32 675.74 72.32 675.72 72.33 675.7 72.34 675.68 72.36 675.66 72.37 675.62 72.39 675.59 72.41 675.57 72.43 675.56 72.45 675.53 72.48 675.52 72.5 675.5 72.53 675.49 72.57 675.48 72.62 675.72 72.68 675.87 72.6 675.92 72.6 675.95 72.73 676.06 72.85 676.14 72.9 676.25 73 676.3 72.98 676.42 72.85 676.48 72.81 676.64 72.82 676.72 72.9 676.33 73.39 676.82 73.53 676.77 73.83 676.68 73.84 676.55 73.85 676.35 73.95 676.26 74.04 676.16 74.2 676.09 74.43 675.96 74.56 675.92 74.59 675.87 74.6 675.84 74.62 675.82 74.63 675.82 74.64 675.8 74.68 675.78 74.73 675.75 74.81 675.74 74.85 675.72 74.88 675.71 74.9 675.68 74.94 675.67 74.96 675.66 74.99 675.66 75.04 675.66 75.07 675.66 75.08 675.66 75.09 675.68 75.13 675.69 75.16 675.69 75.19 675.69 75.21 675.69 75.22 675.67 75.26 675.66 75.3 675.62 75.41 675.61 75.47 675.58 75.57 675.56 75.64 675.56 75.68 675.56 75.73 675.57 75.77 675.61 75.95 675.63 75.99 675.64 76.01 675.65 76.02 675.67 76.03 675.72 76.06 675.58 76.3 675.57 76.32 675.21 76.39 675.22 76.4 675.26 76.43 675.27 76.44 675.29 76.45 675.31 76.47 675.34 76.48 675.37 76.49 675.41 76.5 675.55 76.51 675.57 76.52 675.59 76.53 675.6 76.55 675.62 76.57 675.64 76.59 675.65 76.6 675.66 76.61 675.66 76.63 675.67 76.64 675.68 76.66 675.7 76.67 675.71 76.69 675.72 76.71 675.73 76.72 675.74 76.74 675.75 76.75 675.76 76.75 675.77 76.74 675.79 76.74 675.8 76.75 675.81 76.75 675.82 76.77 675.83 76.78 675.84 76.8 675.85 76.8 675.85 76.83 675.85 76.84 675.84 76.86 675.83 76.87 675.82 76.88 675.81 76.9 675.8 76.91 675.79 76.92 675.77 76.94 675.76 76.95 675.75 76.97 675.74 76.99 675.74 77 675.74 77.01 675.75 77.03 675.75 77.05 675.75 77.07 675.74 77.08 675.73 77.1 675.71 77.12 675.7 77.14 675.68 77.16 675.66 77.19 675.65 77.21 675.64 77.24 675.62 77.26 675.6 77.29 675.58 77.33 675.57 77.35 675.56 77.36 675.55 77.38 675.53 77.41 675.52 77.43 675.51 77.44 675.49 77.45 675.47 77.48 675.46 77.49 675.45 77.51 675.44 77.52 675.43 77.54 675.41 77.55 675.4 77.56 675.39 77.58 675.38 77.6 675.38 77.61 675.37 77.62 675.35 77.64 675.34 77.64 675.32 77.65 675.3 77.66 675.28 77.66 675.26 77.66 675.23 77.67 675.22 77.68 675.21 77.69 675.19 77.7 675.17 77.72 675.15 77.74 675.13 77.76 675.12 77.78 675.11 77.79 675.11 77.82 675.1 77.82 675.1 77.84 675.1 77.86 675.1 77.87 675.1 77.89 675.09 77.9 675.07 77.91 675.07 77.92 675.05 77.92 675.03 77.93 675.01 77.93 674.98 77.94 674.96 77.95 674.94 77.96 674.94 77.96 674.83 77.93 674.8 78.02 674.78 78.1 674.75 78.19 674.71 78.3 674.7 78.34 674.68 78.4 674.68 78.41 674.65 78.47 674.64 78.49 674.69 78.57 674.67 78.59 674.63 78.65 674.58 78.71 674.53 78.76 674.46 78.84 674.42 78.88 674.39 78.91 674.36 78.91 674.32 78.93 674.28 78.95 674.25 78.99 674.23 79.02 674.22 79.05 674.19 79.07 674.17 79.09 674.15 79.13 674.13 79.17 674.1 79.22 674.06 79.28 674.02 79.33 673.98 79.38 673.95 79.41 673.91 79.44 673.87 79.46 673.84 79.47 673.81 79.48 673.79 79.48 673.77 79.49 673.76 79.5 673.74 79.5 673.72 79.51 673.71 79.53 673.71 79.55 673.71 79.59 673.7 79.62 673.68 79.64 673.66 79.66 673.62 79.67 673.59 79.69 673.57 79.71 673.55 79.75 673.52 79.77 673.49 79.79 673.47 79.84 673.44 79.88 673.42 79.9 673.41 79.93 673.4 79.95 673.39 79.96 673.35 79.98 673.32 80 673.31 80.02 673.29 80.05 673.26 80.09 673.24 80.12 673.21 80.17 673.19 80.22 673.16 80.32 673.14 80.43 673.13 80.5 673.13 80.55 673.13 80.59 673.15 80.64 673.17 80.66 673.18 80.67 673.2 80.68 673.22 80.69 673.23 80.73 673.25 80.79 673.27 80.84 673.28 80.89 673.29 80.95 673.3 81 673.3 81.05 673.3 81.09 673.28 81.13 673.27 81.17 673.25 81.21 673.25 81.25 673.25 81.28 673.26 81.32 673.28 81.37 673.3 81.43 673.34 81.52 673.36 81.58 673.38 81.64 673.39 81.75 673.41 81.82 673.42 81.89 673.43 81.99 673.43 82.06 673.42 82.12 673.42 82.21 673.44 82.35 673.44 82.48 673.45 82.57 673.46 82.62 673.49 82.64 673.51 82.68 673.55 82.74 673.59 82.82 673.63 82.9 673.67 82.96 673.7 83.01 673.72 83.06 673.76 83.16 673.77 83.19 673.77 83.21 673.74 83.25 673.72 83.26 673.71 83.27 673.69 83.4 673.69 83.43 673.68 83.44 673.66 83.45 673.63 83.45 673.61 83.45 673.48 83.46 673.42 83.46 673.37 83.46 673.33 83.45 673.26 83.44 673.21 83.43 673.16 83.4 673.12 83.37 673.07 83.34 673.02 83.32 672.94 83.29 672.87 83.27 672.81 83.22 672.76 83.19 672.7 83.17 672.65 83.16 672.6 83.15 672.54 83.17 672.48 83.18 672.45 83.21 672.42 83.23 672.4 83.24 672.35 83.26 672.31 83.27 672.23 83.31 672.15 83.35 672.1 83.37 672.07 83.39 672 83.45 671.94 83.48 671.91 83.5 671.88 83.51 671.75 83.57 671.69 83.6 671.63 83.62 671.6 83.62 671.58 83.62 671.51 83.63 671.47 83.63 671.45 83.63 671.37 83.64 671.28 83.64 671.19 83.65 671.09 83.68 670.96 83.73 670.84 83.78 670.71 83.84 670.58 83.91 670.44 84 670.37 84.06 670.34 84.1 670.32 84.14 670.31 84.18 670.28 84.24 670.26 84.29 670.24 84.34 670.22 84.38 670.2 84.43 670.2 84.49 670.19 84.53 670.15 84.64 670.09 84.79 670.01 84.98 669.98 85.06 669.92 85.21 669.87 85.35 669.86 85.38 669.28 84.9 668.8 84.93 668.64 84.91 667.86 84.75 667.45 84.77 667.09 85 667.06 84.99 666.94 84.98 666.85 84.98 666.76 84.98 666.67 84.98 666.62 84.98 666.55 84.96 666.53 84.96 666.51 84.95 665.96 85.63 665.93 85.69 665.91 85.71 665.89 85.73 665.88 85.73 665.87 85.75 665.86 85.77 665.85 85.78 665.84 85.78 665.82 85.79 665.8 85.81 665.79 85.81 665.77 85.81 665.74 85.82 665.72 85.83 665.68 85.84 665.66 85.84 665.65 85.84 665.63 85.82 665.6 85.81 665.57 85.8 665.53 85.78 665.5 85.76 665.44 85.74 665.42 85.74 665.39 85.73 665.36 85.71 665.33 85.68 665.3 85.65 665.27 85.62 665.23 85.59 665.17 85.56 665.05 85.47 665.02 85.45 664.99 85.42 664.98 85.42 664.97 85.41 664.95 85.4 664.94 85.39 664.91 85.36 664.86 85.33 664.82 85.3 664.77 85.26 664.74 85.22 664.7 85.19 664.67 85.15 664.62 85.11 664.57 85.07 664.52 85.03 664.48 85.01 664.41 84.96 664.38 84.95 664.36 84.94 664.32 84.91 664.29 84.9 664.27 84.89 664.24 84.88 664.19 84.88 664.13 84.87 664.09 84.87 664.05 84.86 664.01 84.87 663.97 84.87 663.94 84.88 663.91 84.88 663.89 84.89 663.86 84.9 663.82 84.92 663.77 84.94 663.73 84.96 663.7 84.97 663.65 84.97 663.61 84.96 663.56 84.96 663.51 84.97 663.47 84.98 663.45 84.98 663.43 84.98 663.41 84.97 663.38 84.96 663.36 84.94 663.32 84.94 663.28 84.94 663.24 84.94 663.19 84.93 663.13 84.92 663.09 84.92 663.05 84.92 663.02 84.93 662.99 84.94 662.97 84.95 662.94 84.97 662.92 84.97 662.89 84.98 662.84 84.98 662.81 84.99 662.78 85 662.76 85.01 662.72 85.02 662.67 85.02 662.61 85.03 662.56 85.03 662.52 85.04 662.49 85.06 662.45 85.07 662.47 85.02 662.5 84.98 662.52 84.96 662.56 84.93 662.59 84.92 662.61 84.89 662.63 84.85 662.64 84.82 662.64 84.79 662.64 84.76 662.63 84.73 662.61 84.69 662.59 84.66 662.56 84.6 662.56 84.58 662.56 84.55 662.58 84.53 662.59 84.48 662.6 84.45 662.61 84.41 662.61 84.37 662.61 84.34 662.61 84.3 662.6 84.24 662.59 84.18 662.58 84.15 662.58 84.11 662.58 84.08 662.59 84.04 662.59 84.02 662.58 84 662.57 83.97 662.56 83.94 662.56 83.93 662.56 83.91 662.56 83.9 662.57 83.89 662.58 83.87 662.6 83.85 662.61 83.83 662.61 83.8 662.62 83.77 662.63 83.73 662.65 83.71 662.67 83.68 662.72 83.65 662.75 83.62 662.76 83.6 662.77 83.58 662.78 83.56 662.78 83.54 662.78 83.52 662.78 83.45 662.81 83.44 662.86 83.43 662.91 83.43 662.96 83.42 662.98 83.41 663.01 83.37 663.05 83.33 663.08 83.3 663.12 83.28 663.13 83.26 663.15 83.24 663.17 83.2 663.18 83.19 663.23 83.12 663.29 83.03 663.34 82.97 663.4 82.9 663.46 82.85 663.49 82.82 663.74 82.58 664.34 82.35 664.34 82.32 664.35 82.3 664.36 82.28 664.37 82.27 664.37 82.27 664.37 82.25 664.47 81.81 664.48 81.8 664.48 81.78 664.48 81.76 664.49 81.72 664.49 81.69 664.5 81.66 664.54 81.65 664.58 81.65 664.63 81.64 664.68 81.64 664.74 81.63 664.8 81.62 664.86 81.62 664.93 81.61 664.97 81.6 665.01 81.59 665.04 81.59 665.07 81.58 665.09 81.57 665.11 81.56 665.14 81.55 665.18 81.54 665.25 81.54 665.33 81.52 665.38 81.52 665.43 81.51 665.48 81.49 665.56 81.44 665.56 81.42 665.55 81.4 665.54 81.37 665.52 81.34 665.5 81.31 665.48 81.27 665.46 81.22 665.44 81.19 665.4 81.13 665.38 81.1 665.36 81.08 665.33 81.05 665.33 81.04 665.32 81.01 665.31 80.97 665.31 80.91 665.3 80.88 665.32 80.86 665.34 80.83 665.35 80.81 665.34 80.78 665.33 80.76 665.32 80.71 665.31 80.67 665.31 80.65 665.31 80.61 665.32 80.56 665.32 80.52 665.32 80.46 665.3 80.43 665.3 80.42 665.3 80.39 665.32 80.35 665.33 80.31 665.31 80.26 665.31 80.22 665.3 80.17 665.31 80.12 665.32 80.09 665.33 80.04 665.33 80.01 665.33 79.96 665.34 79.92 665.35 79.87 665.35 79.82 665.35 79.77 665.35 79.74 665.35 79.72 665.36 79.65 665.37 79.61 665.37 79.57 665.39 79.53 665.39 79.5 665.39 79.48 665.39 79.46 665.38 79.43 665.37 79.36 665.35 79.33 665.32 79.26 665.3 79.21 665.28 79.17 665.26 79.11 665.25 79.09 665.23 79.07 665.22 79.05 665.21 79.03 665.22 79 665.23 78.98 665.24 78.95 665.24 78.94 665.25 78.9 665.25 78.86 665.25 78.84 665.26 78.82 665.27 78.79 665.28 78.78 665.31 78.73 665.32 78.72 665.33 78.69 665.34 78.67 665.35 78.64 665.36 78.61 665.37 78.59 665.4 78.55 665.43 78.51 665.45 78.49 665.47 78.46 665.49 78.43 665.5 78.42 665.5 78.39 665.5 78.36 665.51 78.31 665.52 78.27 665.55 78.23 665.58 78.17 665.6 78.16 665.63 78.12 665.66 78.09 665.68 78.06 665.71 78.04 665.73 78.03 665.76 78.01 665.77 78 665.78 77.98 665.79 77.93 665.83 77.82 665.86 77.78 665.88 77.73 665.89 77.7 665.9 77.68 665.9 77.66 665.9 77.65 665.9 77.63 665.89 77.6 665.89 77.58 665.88 77.56 665.88 77.54 665.87 77.52 665.86 77.49 665.86 77.45 665.86 77.39 665.86 77.33 665.86 77.26 665.86 77.19 665.87 77.12 665.88 77.06 665.89 76.99 666.3 76.43 666.34 76.38 666.37 76.36 666.4 76.34 666.46 76.31 666.51 76.26 666.58 76.19 666.59 76.19 666.74 76.05 666.79 76 666.89 75.9 666.96 75.83 667.01 75.78 667.04 75.75 667.2 75.59 667.35 75.48 667.45 75.41 667.5 75.39 667.55 75.35 667.6 75.3 667.69 75.21 667.74 75.17 667.8 75.14 667.83 75.11 667.86 75.09 667.96 75.02 668.04 74.98 668.06 74.97 668.08 74.99 668.1 74.98 668.13 74.95 668.16 74.94 668.19 74.93 668.23 74.93 668.28 74.94 668.32 74.93 668.36 74.92 668.38 74.9 668.4 74.89 668.45 74.87 668.52 74.86 668.58 74.85 668.65 74.84 668.69 74.83 668.74 74.81 668.8 74.78 668.86 74.76 668.91 74.75 668.95 74.74 668.94 74.72 668.91 74.66 668.86 74.57 668.83 74.51 668.79 74.48 668.76 74.46 668.72 74.41 668.68 74.35 668.65 74.3 668.61 74.23 668.58 74.17 668.56 74.12 668.55 74.08 668.53 74.05 668.51 74.02 668.47 73.94 668.6 73.81 668.6 73.63 668.92 73.38 668.91 73.29 668.86 73.02 669.11 72.95 669.09 72.93 669.06 72.88 669.03 72.83 668.99 72.78 668.95 72.71 668.93 72.68 668.89 72.65 668.87 72.63 668.85 72.61 668.82 72.58 668.79 72.54 668.76 72.51 668.74 72.47 668.74 72.46 668.73 72.44 668.73 72.42 668.73 72.4 668.57 72.33 668.39 72.29 668.3 72.26 668.22 72.15 668.17 72.19 668.09 72.24 668.03 72.1 668.01 72.07 667.82 72.12 667.66 72.13 667.6 72.04 667.81 71.73 667.82 71.7 667.5 71.42 667.51 71.4 667.53 71.38 667.54 71.32 667.55 71.2 667.55 71.06 667.55 71.04 667.54 71.01 667.54 70.98 667.53 70.92 667.53 70.86 667.53 70.8 667.53 70.74 667.53 70.68 667.54 70.6 667.55 70.51 667.57 70.45 667.59 70.37 667.6 70.36 667.81 70.36 667.86 70.36 667.95 70.58 668.15 70.74 668.44 70.82 668.43 70.86 668.42 70.93 668.4 70.97 668.39 71.02 668.38 71.08 668.38 71.13 668.38 71.16 668.39 71.17 668.41 71.18 668.47 71.2 668.48 71.22 668.48 71.22 668.53 71.21 668.59 71.21 668.63 71.2 668.66 71.19 668.68 71.18 668.7 71.16 668.72 71.15 668.74 71.14 668.77 71.13 668.88 70.64 669.06 70.56 669.19 70.63 669.25 70.57 669.29 70.52 669.34 70.48 669.39 70.44 669.43 70.4 669.48 70.38 669.52 70.36 669.58 70.32 669.61 70.16 669.63 70.1 669.65 70.05 669.66 70.01 669.67 69.98 669.69 69.95 669.71 69.92 669.73 69.91 669.77 69.88 669.8 69.84 669.82 69.8 669.86 69.74 669.88 69.69 669.9 69.64 669.92 69.58 669.95 69.52 669.96 69.47 670.3 69.65 670.6 68.89 670.53 68.81 670.46 68.75 670.38 68.69 670.34 68.67 670.31 68.66 670.32 68.63 670.32 68.59 670.32 68.58 670.32 68.57 670.32 68.55 670.31 68.52 670.32 68.48 670.33 68.46 670.35 68.43 670.38 68.4 670.39 68.39 670.42 68.37 670.44 68.34 670.44 68.32 670.43 68.29 670.42 68.28 670.41 68.25 670.4 68.24 670.39 68.21 670.37 68.18 670.36 68.16 670.34 68.12 670.33 68.1 670.32 68.07 670.31 68.04 670.31 68 670.31 67.95 670.31 67.93 670.32 67.89 670.32 67.88 Z"/>
</g></svg>