<svg xmlns="http://www.w3.org/2000/svg" version="1.2" baseProfile="tiny" stroke-linecap="round" stroke-linejoin="round" viewBox="524.67 416.42 22.33 20"><g xmlns="http://www.w3.org/2000/svg" id="Beire">
<path d="M 527.27 417.44 527.29 417.45 527.35 417.46 527.4 417.47 527.42 417.48 527.43 417.48 527.49 417.49 527.61 417.52 527.62 417.52 527.69 417.54 527.78 417.56 527.93 417.6 528.18 417.67 528.31 417.7 528.32 417.7 528.34 417.71 528.4 417.73 528.49 417.76 528.6 417.8 528.62 417.8 528.69 417.82 528.8 417.86 528.81 417.86 528.83 417.86 528.84 417.87 528.85 417.89 528.87 417.91 528.89 417.92 528.9 417.92 528.91 417.92 528.93 417.9 528.95 417.9 528.98 417.91 529.06 417.93 529.13 417.94 529.18 417.95 529.22 417.94 529.24 417.93 529.26 417.93 529.29 417.91 529.32 417.91 529.36 417.91 529.38 417.92 529.42 417.93 529.45 417.94 529.48 417.94 529.5 417.94 529.53 417.93 529.58 417.93 529.61 417.94 529.63 417.95 529.66 417.96 529.67 417.96 529.69 417.98 529.75 417.99 529.8 418 529.92 418.01 530.12 418.04 530.22 418.06 530.24 418.06 530.27 418.06 530.28 418.06 530.32 418.07 530.43 418.08 530.59 418.1 530.76 418.11 530.85 418.13 530.94 418.13 531 418.14 531.07 418.15 531.18 418.16 531.29 418.18 531.34 418.19 531.38 418.2 531.39 418.2 531.41 418.21 531.42 418.21 531.51 418.23 531.64 418.27 531.73 418.29 531.77 418.29 531.8 418.29 531.87 418.3 531.94 418.32 531.96 418.32 531.99 418.32 532.01 418.33 532.09 418.34 532.18 418.36 532.24 418.36 532.31 418.37 532.36 418.37 532.38 418.37 532.39 418.37 532.44 418.38 532.54 418.38 532.6 418.39 532.65 418.4 532.71 418.4 532.75 418.4 532.78 418.41 532.82 418.41 532.89 418.43 532.98 418.44 533.06 418.45 533.13 418.47 533.2 418.48 533.22 418.49 533.24 418.49 533.33 418.5 533.43 418.52 533.54 418.54 533.65 418.56 533.76 418.58 533.8 418.59 533.81 418.59 533.91 418.61 534 418.62 534.08 418.64 534.11 418.65 534.15 418.66 534.18 418.66 534.24 418.67 534.3 418.67 534.37 418.68 534.46 418.69 534.53 418.69 534.61 418.69 534.71 418.69 534.81 418.69 534.89 418.67 534.96 418.65 534.99 418.65 535.03 418.64 535.09 418.62 535.15 418.6 535.24 418.58 535.32 418.56 535.37 418.55 535.44 418.54 535.48 418.52 535.52 418.52 535.55 418.51 535.57 418.51 535.6 418.5 535.62 418.5 535.63 418.5 535.71 418.49 535.79 418.48 535.85 418.47 535.86 418.47 535.94 418.46 535.96 418.46 536.08 418.44 536.19 418.42 536.27 418.4 536.29 418.4 536.38 418.38 536.51 418.35 536.53 418.35 536.58 418.34 536.66 418.32 536.74 418.3 536.82 418.28 536.84 418.27 536.88 418.26 536.88 418.26 536.93 418.25 536.95 418.24 536.99 418.24 537.06 418.22 537.09 418.21 537.21 418.19 537.32 418.17 537.38 418.16 537.44 418.14 537.45 418.14 537.47 418.14 537.56 418.13 537.63 418.11 537.73 418.1 537.85 418.07 537.97 418.05 538.01 418.04 538.07 418.03 538.09 418.03 538.13 418.02 538.14 418.01 538.22 418 538.32 417.98 538.4 417.97 538.43 417.96 538.51 417.95 538.63 417.92 538.74 417.9 538.81 417.88 538.83 417.87 538.88 417.86 538.91 417.85 538.94 417.84 538.95 417.84 538.99 417.83 539.03 417.83 539.07 417.82 539.15 417.82 539.2 417.81 539.26 417.8 539.32 417.79 539.35 417.78 539.4 417.76 539.43 417.75 539.45 417.75 539.48 417.74 539.5 417.75 539.51 417.75 539.54 417.75 539.56 417.76 539.6 417.77 539.65 417.77 539.69 417.77 539.74 417.76 539.76 417.76 539.82 417.75 539.89 417.74 539.95 417.73 540 417.72 540.05 417.71 540.11 417.7 540.21 417.69 540.3 417.67 540.35 417.67 540.4 417.66 540.43 417.66 540.48 417.64 540.55 417.63 540.63 417.61 540.7 417.6 540.76 417.59 540.82 417.59 540.9 417.59 540.99 417.59 541.06 417.59 541.13 417.59 541.18 417.59 541.22 417.58 541.23 417.57 541.27 417.55 541.28 417.55 541.32 417.53 541.37 417.5 541.42 417.46 541.47 417.44 541.52 417.42 541.59 417.4 541.61 417.4 541.65 417.39 541.7 417.39 541.76 417.41 541.81 417.42 541.86 417.43 541.91 417.43 541.96 417.43 542.01 417.41 542.04 417.4 542.08 417.39 542.12 417.38 542.17 417.38 542.19 417.38 542.2 417.38 542.24 417.37 542.3 417.37 542.38 417.36 542.47 417.35 542.55 417.34 542.63 417.33 542.66 417.32 542.72 417.31 542.77 417.3 542.84 417.29 542.92 417.27 543 417.25 543.07 417.24 543.09 417.23 543.13 417.22 543.15 417.22 543.21 417.21 543.27 417.18 543.3 417.18 543.35 417.18 543.42 417.19 543.46 417.19 543.48 417.19 543.54 417.19 543.6 417.18 543.64 417.18 543.68 417.15 543.7 417.13 543.71 417.12 543.76 417.06 543.79 417.02 543.8 417 543.84 416.96 543.87 416.94 543.88 416.93 543.89 416.92 543.92 416.92 543.98 416.91 544.02 416.9 544.06 416.89 544.11 416.88 544.16 416.86 544.19 416.84 544.24 416.8 544.25 416.79 544.28 416.78 544.32 416.77 544.33 416.76 544.34 416.76 544.38 416.75 544.42 416.75 544.45 416.74 544.49 416.74 544.52 416.74 544.55 416.74 544.58 416.74 544.6 416.74 544.63 416.74 544.66 416.74 544.72 416.73 544.76 416.72 544.82 416.71 544.86 416.7 544.91 416.69 544.96 416.68 545.01 416.67 545.06 416.66 545.12 416.65 545.18 416.64 545.22 416.63 545.27 416.62 545.29 416.61 545.31 416.61 545.33 416.6 545.38 416.59 545.43 416.58 545.46 416.57 545.5 416.56 545.52 416.55 545.56 416.54 545.6 416.53 545.64 416.51 545.68 416.5 545.71 416.49 545.75 416.48 545.79 416.48 545.82 416.47 545.86 416.47 545.89 416.47 545.92 416.47 545.96 416.46 546 416.46 546.03 416.45 546.06 416.45 546.09 416.45 546.1 416.44 546.13 416.44 546.15 416.44 546.18 416.44 546.22 416.44 546.26 416.44 546.3 416.44 546.33 416.45 546.35 416.45 546.38 416.46 546.41 416.47 546.43 416.48 546.45 416.48 546.49 416.48 546.52 416.48 546.55 416.49 546.58 416.49 546.6 416.49 546.63 416.5 546.66 416.5 546.7 416.51 546.76 416.53 546.8 416.54 546.83 416.55 546.87 416.56 546.91 416.57 546.94 416.59 546.97 416.6 546.96 416.62 546.92 416.72 546.91 416.73 546.9 416.74 546.89 416.78 546.88 416.8 546.88 416.82 546.87 416.84 546.86 416.86 546.78 416.95 546.76 416.97 546.73 417 546.72 417.05 546.72 417.07 546.72 417.07 546.71 417.09 546.68 417.2 546.62 417.38 546.55 417.62 546.53 417.66 546.49 417.76 546.49 417.78 546.48 417.79 546.48 417.81 546.37 418.08 546.36 418.11 546.35 418.13 546.35 418.14 546.25 418.36 546.24 418.38 546.19 418.5 546.13 418.63 546.08 418.76 546.07 418.8 546.04 418.9 546.03 418.91 545.99 419.03 545.95 419.15 545.93 419.21 545.89 419.34 545.88 419.37 545.81 419.57 545.78 419.65 545.76 419.71 545.73 419.81 545.7 419.88 545.66 419.97 545.65 419.99 545.65 420 545.61 420.08 545.58 420.16 545.52 420.29 545.49 420.36 545.45 420.43 545.43 420.49 545.42 420.51 545.42 420.52 545.38 420.65 545.37 420.67 545.37 420.69 545.36 420.71 545.35 420.72 545.33 420.76 545.32 420.77 545.3 420.8 545.29 420.83 545.25 420.88 545.23 420.92 545.19 421 545.14 421.11 545.08 421.22 545.03 421.31 545 421.35 544.96 421.42 544.92 421.5 544.85 421.61 544.78 421.74 544.76 421.76 544.73 421.84 544.67 421.95 544.63 422.07 544.62 422.1 544.55 422.24 544.54 422.28 544.51 422.34 544.47 422.41 544.44 422.46 544.4 422.52 544.33 422.64 544.29 422.72 544.16 422.93 544.08 423.07 543.96 423.27 543.92 423.35 543.89 423.38 543.75 423.55 543.71 423.6 543.7 423.61 543.69 423.63 543.65 423.68 543.64 423.7 543.61 423.75 543.45 424.04 543.23 424.43 543.2 424.49 543.11 424.66 543.08 424.72 543.02 424.83 542.94 424.95 542.9 425.03 542.89 425.05 542.87 425.08 542.79 425.21 542.74 425.29 542.68 425.5 542.66 425.59 542.64 425.67 542.62 425.72 542.6 425.76 542.57 425.81 542.5 425.91 542.47 425.94 542.46 425.96 542.42 426.06 542.3 426.33 542.29 426.36 542.28 426.39 542.26 426.43 542.23 426.49 542.22 426.51 542.16 426.63 542.12 426.71 542.1 426.75 542.05 426.85 542.04 426.88 542.03 426.89 542.01 426.91 541.87 427.1 541.77 427.23 541.69 427.35 541.68 427.37 541.59 427.5 541.53 427.58 541.44 427.71 541.43 427.71 541.36 427.79 541.35 427.81 541.27 427.89 541.21 427.97 541.17 428.01 541.15 428.04 541.14 428.04 541.02 428.18 540.94 428.26 540.84 428.31 540.78 428.33 540.65 428.4 540.5 428.47 540.38 428.55 540.36 428.55 540.29 428.59 540.22 428.65 540.17 428.69 540.13 428.73 540.1 428.77 540.09 428.78 540.05 428.85 540 428.93 539.94 429.03 539.93 429.06 539.91 429.1 539.9 429.12 539.87 429.17 539.85 429.2 539.84 429.21 539.81 429.24 539.78 429.27 539.72 429.33 539.65 429.39 539.58 429.44 539.48 429.5 539.38 429.57 539.34 429.61 539.3 429.65 539.24 429.7 539.2 429.73 539.17 429.77 539.14 429.8 539.13 429.81 539.1 429.85 539.09 429.86 539.06 429.89 539.01 429.95 538.98 429.99 538.96 430 538.96 430.01 538.92 430.07 538.89 430.13 538.87 430.17 538.85 430.22 538.84 430.25 538.81 430.29 538.73 430.42 538.71 430.45 538.58 430.62 538.5 430.73 538.48 430.78 538.47 430.8 538.46 430.83 538.45 430.86 538.43 430.88 538.4 430.9 538.34 430.93 538.32 430.94 538.29 430.96 538.26 430.98 538.26 430.99 538.25 431.01 538.21 431.08 538.12 431.23 538.05 431.35 538.01 431.42 537.93 431.53 537.79 431.69 537.71 431.8 537.59 431.99 537.52 432.11 537.46 432.2 537.38 432.33 537.36 432.37 537.35 432.39 537.27 432.52 537.16 432.69 537.14 432.71 537.11 432.77 537.1 432.78 537.07 432.79 537.05 432.8 536.95 432.83 536.8 432.87 536.69 432.91 536.56 432.95 536.42 432.98 536.41 432.99 536.38 433 536.34 433.01 536.27 433.03 536.26 433.04 536.24 433.04 536.23 433.05 536.21 433.06 536.17 433.07 536.12 433.09 536.09 433.1 536.04 433.12 535.93 433.15 535.92 433.15 535.82 433.17 535.71 433.19 535.65 433.2 535.64 433.2 535.58 433.21 535.54 433.23 535.52 433.24 535.46 433.26 535.24 433.35 535.15 433.39 535.08 433.42 534.91 433.48 534.9 433.49 534.84 433.51 534.71 433.56 534.62 433.59 534.52 433.62 534.39 433.65 534.35 433.65 534.31 433.67 534.27 433.67 534.15 433.71 533.97 433.76 533.86 433.8 533.82 433.81 533.8 433.82 533.75 433.84 533.73 433.85 533.72 433.85 533.69 433.86 533.68 433.86 533.58 433.9 533.48 433.93 533.43 433.95 533.33 433.97 533.31 433.98 533.31 433.98 533.07 434.06 533 434.09 532.79 434.16 532.78 434.16 532.74 434.17 532.59 434.22 532.5 434.24 532.48 434.25 532.45 434.26 532.36 434.28 532.3 434.3 532.27 434.31 532.22 434.32 532.14 434.35 532 434.39 531.93 434.41 531.7 434.48 531.68 434.48 531.53 434.53 531.5 434.54 531.34 434.58 531.32 434.59 531.28 434.6 531.21 434.62 531.17 434.64 531.03 434.68 530.91 434.72 530.85 434.74 530.64 434.81 530.49 434.85 530.47 434.86 530.42 434.88 530.36 434.9 530.21 434.96 530.18 434.97 530.01 435.03 529.94 435.05 529.92 435.06 529.88 435.07 529.75 435.13 529.68 435.15 529.59 435.18 529.57 435.19 529.39 435.25 529.28 435.3 529.26 435.3 529.24 435.31 529.18 435.33 529.07 435.37 528.97 435.39 528.91 435.41 528.88 435.42 528.85 435.43 528.77 435.46 528.64 435.51 528.55 435.55 528.54 435.55 528.52 435.56 528.46 435.59 528.39 435.63 528.34 435.66 528.33 435.67 528.3 435.68 528.24 435.69 528.23 435.7 528.11 435.74 528.07 435.75 528.06 435.76 527.98 435.78 527.97 435.79 527.96 435.79 527.82 435.84 527.73 435.87 527.7 435.88 527.67 435.9 527.65 435.9 527.51 435.96 527.38 436 527.36 436 527.24 436.04 527.22 436.05 527.18 436.07 527.15 436.07 526.98 436.1 526.94 436.11 526.85 436.12 526.48 436.18 525.9 436.27 525.79 436.29 525.28 436.37 525.27 436.37 525.06 436.41 525.04 436.2 525.04 436.19 525.02 435.87 525.01 435.76 525 435.57 525 435.55 525 435.53 525 435.51 525 435.49 524.99 435.46 524.98 435.4 524.97 435.34 524.95 435.25 524.94 435.18 524.93 435.12 524.92 435.08 524.91 435.04 524.9 435.01 524.9 435 524.9 434.95 524.89 434.91 524.88 434.85 524.87 434.8 524.86 434.76 524.85 434.7 524.85 434.66 524.84 434.64 524.84 434.62 524.83 434.58 524.82 434.55 524.81 434.52 524.81 434.51 524.81 434.48 524.8 434.43 524.8 434.36 524.79 434.26 524.78 434.14 524.77 434.01 524.76 433.94 524.76 433.87 524.75 433.8 524.74 433.65 524.73 433.47 524.72 433.4 524.72 433.39 524.71 433.29 524.71 433.21 524.71 433.13 524.7 433.06 524.7 432.98 524.7 432.78 524.7 432.67 524.7 432.65 524.7 432.51 524.7 432.38 524.7 432.32 524.7 432.29 524.7 432.22 524.69 431.89 524.69 431.88 524.69 431.87 524.69 431.8 524.69 431.73 524.68 431.47 524.68 431.45 524.68 431.4 524.68 431.25 524.68 431.18 524.69 431.13 524.69 431.06 524.69 430.97 524.69 430.88 524.69 430.82 524.7 430.74 524.7 430.66 524.7 430.6 524.71 430.53 524.72 430.48 524.72 430.43 524.72 430.36 524.73 430.32 524.73 430.29 524.74 430.24 524.74 430.13 524.75 430.11 524.71 429.84 524.71 429.83 524.7 429.77 524.7 429.75 524.7 429.75 524.7 429.74 524.75 429.32 524.76 429.19 524.77 429.1 524.78 429.08 524.82 428.7 524.83 428.62 524.9 428.05 524.9 428.02 524.87 427.91 524.84 427.84 524.77 427.64 524.76 427.56 524.76 427.54 524.76 427.52 524.8 427.3 524.81 427.23 524.81 427.22 524.82 427.2 524.82 427.18 524.82 427.16 524.84 427.09 524.89 426.93 524.93 426.79 524.95 426.73 524.97 426.65 525.05 426.39 525.05 426.37 525.05 426.36 525.07 426.29 525.08 426.28 525.17 425.99 525.29 425.6 525.34 425.44 525.35 425.42 525.35 425.4 525.36 425.38 525.36 425.37 525.39 425.27 525.4 425.25 525.42 425.18 525.42 425.16 525.48 424.97 525.49 424.94 525.54 424.74 525.55 424.73 525.55 424.72 525.62 424.46 525.62 424.44 525.73 423.99 525.77 423.81 525.82 423.6 525.83 423.58 525.84 423.54 525.87 423.44 525.89 423.34 525.93 423.16 525.94 423.14 525.95 423.11 525.99 422.91 526 422.87 526.01 422.86 526.01 422.85 526.02 422.8 526.02 422.79 526.06 422.53 526.07 422.5 526.09 422.41 526.09 422.37 526.11 422.27 526.14 422.15 526.25 421.82 526.27 421.77 526.39 421.39 526.39 421.39 526.41 421.34 526.43 421.27 526.59 420.78 526.65 420.6 526.68 420.5 526.73 420.35 526.73 420.33 526.74 420.32 526.75 420.29 526.89 419.78 526.93 419.59 526.94 419.55 526.94 419.53 526.95 419.48 526.96 419.45 526.98 419.36 527.03 419.13 527.12 418.86 527.13 418.82 527.14 418.82 527.14 418.8 527.14 418.79 527.22 418.56 527.22 418.55 527.24 418.21 527.24 418.09 527.24 418.07 527.25 417.74 527.26 417.68 527.26 417.67 527.26 417.64 527.27 417.46 527.27 417.44 Z"/>
</g></svg>