<svg xmlns="http://www.w3.org/2000/svg" version="1.2" baseProfile="tiny" stroke-linecap="round" stroke-linejoin="round" viewBox="348.22 159.48 16.88 19.22"><g xmlns="http://www.w3.org/2000/svg" id="Beizama">
<path d="M 359.71 161.1 360.04 161.66 360.68 162.05 361.35 162.45 360.87 163.11 360.38 163.75 360.62 164.37 360.78 164.76 360.91 165.1 360.98 165.33 361.7 165.89 362.01 166.07 362.54 166.56 362.81 166.87 363.06 168.11 363.55 168.67 363.69 169.03 363.97 169.75 364.05 170.09 364.22 170.71 364.66 171.1 365.08 172.01 363.76 172.59 363.65 173.02 363.85 173.31 364.06 173.63 363.88 174.02 363.69 174.39 364.16 174.61 363.83 175.18 363.61 175.57 363.55 175.67 363.19 176.28 362.87 176.8 362.88 176.82 362.9 176.87 362.91 176.89 362.93 176.94 362.95 177 362.96 177.04 362.98 177.1 362.99 177.16 362.99 177.2 363 177.24 363 177.29 362.99 177.32 362.97 177.35 362.97 177.38 362.97 177.42 362.98 177.48 362.98 177.55 362.97 177.59 362.96 177.65 362.96 177.69 362.94 177.72 362.91 177.78 362.9 177.82 362.9 177.84 362.13 178.17 361.45 178.45 361.17 178.58 360.92 178.48 360.45 177.96 359.14 177.27 358.16 178.67 355.66 177.39 355.62 177.36 355.58 177.31 355.54 177.28 355.51 177.24 355.46 177.18 355.43 177.16 355.39 177.11 355.38 177.09 355.35 177.06 355.33 177.03 355.29 177 355.27 176.99 355.23 176.98 355.21 176.96 355.16 176.92 355.11 176.88 355.1 176.87 355.08 176.86 355.05 176.84 355.01 176.81 354.98 176.77 354.95 176.73 354.93 176.69 354.92 176.65 354.91 176.62 354.89 176.57 354.87 176.54 354.85 176.48 354.83 176.46 354.82 176.44 354.76 176.39 354.71 176.35 354.64 176.31 354.61 176.29 354.56 176.24 354.52 176.21 354.49 176.19 354.42 176.17 354.38 176.14 354.31 176.11 354.22 176.06 354.16 176.02 354.09 175.97 354.04 175.94 353.95 175.88 353.89 175.84 353.8 175.79 353.75 175.76 353.67 175.71 353.63 175.69 353.6 175.67 353.55 175.65 353.51 175.63 353.47 175.6 353.4 175.55 353.35 175.5 353.3 175.47 353.27 175.41 353.24 175.37 353.21 175.34 353.17 175.3 353.12 175.27 353.07 175.25 353.04 175.21 353 175.15 352.96 175.09 352.94 175.05 352.91 175.01 352.9 174.99 352.88 174.95 352.87 174.92 352.86 174.91 352.81 174.89 352.77 174.88 352.73 174.87 352.68 174.85 352.63 174.84 352.58 174.84 352.53 174.83 352.48 174.83 352.45 174.82 352.41 174.81 352.38 174.79 352.35 174.77 352.3 174.72 352.25 174.67 352.22 174.62 352.19 174.58 352.17 174.53 352.13 174.47 352.11 174.42 352.09 174.39 352.07 174.37 352.05 174.36 352.02 174.37 352 174.37 351.94 174.38 351.92 174.38 351.9 174.39 351.88 174.39 351.85 174.39 351.83 174.39 351.8 174.38 351.78 174.37 351.76 174.35 351.73 174.33 351.72 174.31 351.69 174.27 351.68 174.25 351.66 174.22 351.64 174.19 351.62 174.18 351.6 174.18 351.59 174.18 351.58 174.19 351.57 174.19 351.55 174.2 351.53 174.21 351.51 174.22 351.49 174.23 351.47 174.24 351.43 174.26 351.42 174.26 351.4 174.26 351.39 174.26 351.37 174.24 351.32 174.22 351.3 174.21 351.27 174.2 351.25 174.21 351.23 174.22 351.22 174.2 351.21 174.19 351.2 174.18 351.18 174.17 351.17 174.15 351.16 174.15 351.13 174.13 351.09 174.13 351.05 174.14 351.02 174.15 351 174.15 350.97 174.15 350.94 174.16 350.91 174.16 350.87 174.17 350.84 174.18 350.81 174.18 350.66 174.17 350.6 174.16 350.54 174.16 350.48 174.17 350.47 174.17 350.39 174.15 350.36 174.14 350.35 174.13 350.33 174.11 350.32 174.1 350.3 174.08 350.28 174.07 350.27 174.06 350.26 174.05 350.24 174.03 350.18 173.96 350.17 173.96 350.19 173.93 350.21 173.89 350.25 173.76 350.27 173.68 350.27 173.64 350.25 173.61 350.23 173.58 350.21 173.56 350.18 173.54 350.09 173.53 350 173.54 349.96 173.55 349.92 173.57 349.9 173.57 349.81 173.6 349.78 173.6 349.72 173.58 349.69 173.55 349.67 173.53 349.66 173.49 349.67 173.45 349.69 173.4 349.71 173.37 349.74 173.33 349.78 173.29 349.85 173.22 349.93 173.14 349.96 173.09 349.99 173.06 350 173.02 350.01 173.01 350.07 172.88 350.11 172.8 350.13 172.77 350.18 172.69 350.27 172.57 350.3 172.56 350.33 172.55 350.35 172.54 350.38 172.54 350.41 172.53 350.45 172.52 350.48 172.51 350.51 172.5 350.53 172.49 350.55 172.48 350.57 172.46 350.58 172.45 350.58 172.43 350.59 172.41 350.59 172.4 350.58 172.38 350.57 172.36 350.56 172.34 350.55 172.33 350.53 172.3 350.5 172.26 350.49 172.25 350.48 172.23 350.47 172.21 350.46 172.19 350.44 172.17 350.43 172.16 350.42 172.14 350.42 172.13 350.41 172.11 350.4 172.09 350.39 172.07 350.38 172.05 350.38 172.03 350.37 172.01 350.37 171.99 350.36 171.96 350.36 171.95 350.36 171.92 350.36 171.91 350.37 171.89 350.37 171.87 350.38 171.84 350.39 171.82 350.4 171.78 350.41 171.75 350.42 171.72 350.43 171.68 350.43 171.65 350.44 171.64 350.45 171.62 350.45 171.61 350.46 171.59 350.47 171.58 350.48 171.55 350.5 171.52 350.51 171.5 350.52 171.47 350.53 171.45 350.53 171.43 350.54 171.41 350.55 171.39 350.56 171.37 350.57 171.35 350.57 171.34 350.57 171.32 350.57 171.27 350.57 171.25 350.57 171.24 350.56 171.22 350.55 171.21 350.53 171.19 350.52 171.18 350.49 171.16 350.46 171.14 350.44 171.13 350.42 171.12 350.4 171.12 350.38 171.11 350.37 171.11 350.35 171.11 350.32 171.11 350.29 171.11 350.26 171.11 350.23 171.11 350.21 171.11 350.2 171.1 350.18 171.09 350.17 171.08 350.15 171.07 350.15 171.05 350.14 171.03 350.13 171.02 350.13 171 350.13 170.98 350.12 170.96 350.12 170.95 350.13 170.93 350.14 170.91 350.14 170.89 350.15 170.88 350.16 170.86 350.17 170.84 350.18 170.83 350.19 170.81 350.2 170.8 350.22 170.8 350.24 170.79 350.27 170.78 350.29 170.78 350.32 170.77 350.35 170.75 350.38 170.74 350.41 170.73 350.44 170.72 350.48 170.7 350.51 170.69 350.54 170.68 350.57 170.66 350.59 170.65 350.61 170.63 350.63 170.62 350.65 170.6 350.67 170.58 350.68 170.57 350.69 170.55 350.69 170.54 350.7 170.52 350.7 170.51 350.7 170.49 350.7 170.48 350.69 170.46 350.68 170.45 350.67 170.44 350.65 170.43 350.63 170.42 350.6 170.41 350.58 170.39 350.55 170.38 350.52 170.37 350.49 170.36 350.46 170.35 350.44 170.34 350.42 170.33 350.39 170.31 350.36 170.3 350.34 170.29 350.32 170.28 350.31 170.27 350.29 170.25 350.29 170.24 350.28 170.23 350.28 170.21 350.28 170.17 350.28 170.16 350.29 170.14 350.29 170.13 350.31 170.11 350.32 170.1 350.34 170.08 350.36 170.06 350.39 170.04 350.41 170.02 350.43 170 350.47 169.96 350.54 169.9 350.57 169.87 350.57 169.86 350.58 169.86 350.59 169.85 350.59 169.85 350.6 169.84 350.61 169.83 350.61 169.83 350.62 169.82 350.63 169.82 350.63 169.81 350.64 169.8 350.65 169.79 350.66 169.78 350.67 169.78 350.68 169.76 350.69 169.75 350.7 169.73 350.72 169.72 350.74 169.7 350.77 169.67 350.78 169.65 350.79 169.64 350.79 169.63 350.8 169.62 350.81 169.61 350.81 169.59 350.81 169.58 350.81 169.56 350.8 169.55 350.8 169.53 350.79 169.52 350.78 169.5 350.77 169.49 350.75 169.47 350.74 169.45 350.72 169.43 350.72 169.42 350.71 169.41 350.71 169.4 350.71 169.39 350.71 169.38 350.71 169.37 350.71 169.35 350.72 169.33 350.73 169.32 350.74 169.3 350.75 169.28 350.75 169.26 350.76 169.25 350.77 169.23 350.77 169.22 350.78 169.2 350.78 169.19 350.77 169.19 350.77 169.18 350.77 169.17 350.77 169.16 350.76 169.15 350.75 169.14 350.74 169.13 350.73 169.12 350.72 169.11 350.71 169.1 350.7 169.09 350.69 169.08 350.67 169.07 350.66 169.06 350.64 169.04 350.62 169.03 350.61 169.02 350.59 169.02 350.58 169.01 350.56 169 350.55 169 350.53 168.99 350.5 168.98 350.49 168.97 350.47 168.97 350.46 168.96 350.44 168.96 350.42 168.96 350.41 168.96 350.4 168.95 350.38 168.94 350.37 168.94 350.34 168.92 350.32 168.91 350.31 168.9 350.29 168.89 350.28 168.87 350.27 168.86 350.26 168.84 350.25 168.83 350.24 168.81 350.24 168.8 350.24 168.79 350.23 168.78 350.22 168.77 350.22 168.76 350.21 168.75 350.21 168.72 349.9 168.78 349.85 168.77 349.84 168.75 349.79 168.67 349.77 168.64 349.77 168.63 349.76 168.61 349.75 168.6 349.71 168.54 349.67 168.49 349.65 168.45 349.57 168.34 349.49 168.23 349.42 168.12 349.34 168.02 349.28 167.93 349.27 167.92 349.19 167.86 349.15 167.84 349.13 167.82 349.06 167.78 349.04 167.75 349.03 167.73 349.03 167.7 349.03 167.65 349.04 167.58 349.05 167.55 349.05 167.52 349.05 167.5 349.05 167.46 349.05 167.44 349.05 167.42 349.05 167.4 349.05 167.39 349.05 167.38 349.05 167.36 349.04 167.33 349.03 167.31 349 167.28 348.99 167.25 348.97 167.23 348.93 167.18 348.92 167.16 348.87 167.11 348.81 167.04 348.75 166.98 348.73 166.97 348.67 166.9 348.62 166.85 348.6 166.82 348.6 166.82 348.55 166.73 348.53 166.71 348.5 166.64 348.49 166.6 348.48 166.54 348.47 166.51 348.47 166.49 348.47 166.43 348.46 166.38 348.45 166.32 348.44 166.29 348.44 166.27 348.43 166.24 348.43 166.22 348.43 166.2 348.42 166.16 348.42 166.11 348.41 166.07 348.4 166.03 348.38 165.96 348.34 165.85 348.33 165.81 348.32 165.78 348.3 165.74 348.29 165.71 348.27 165.66 348.25 165.62 348.23 165.55 348.22 165.5 348.22 165.47 348.22 165.42 348.22 165.38 348.23 165.35 348.23 165.33 348.25 165.28 348.25 165.26 348.27 165.22 348.28 165.19 348.29 165.19 348.31 165.19 348.33 165.2 348.34 165.21 348.35 165.23 348.36 165.24 348.38 165.26 348.38 165.27 348.4 165.28 348.42 165.29 348.43 165.3 348.44 165.3 348.45 165.31 348.46 165.32 348.47 165.33 348.48 165.33 348.49 165.33 348.51 165.34 348.52 165.34 348.53 165.33 348.54 165.32 348.54 165.31 348.54 165.29 348.54 165.29 348.55 165.28 348.55 165.27 348.56 165.26 348.57 165.25 348.59 165.24 348.6 165.23 348.61 165.22 348.63 165.22 348.64 165.22 348.67 165.21 348.69 165.2 348.73 165.19 348.77 165.16 348.83 165.12 348.88 165.11 348.93 165.1 349.01 165.08 349.05 165.07 349.11 165.04 349.15 165.02 349.17 165 349.21 164.97 349.24 164.94 349.28 164.9 349.32 164.88 349.37 164.86 349.44 164.84 349.49 164.83 349.51 164.82 349.56 164.81 349.6 164.81 349.64 164.8 349.69 164.78 349.73 164.75 349.77 164.72 349.81 164.69 349.83 164.66 349.85 164.63 349.87 164.61 349.89 164.58 349.93 164.55 349.97 164.53 350.03 164.52 350.07 164.52 350.1 164.53 350.13 164.53 350.15 164.52 350.19 164.49 350.22 164.47 350.25 164.45 350.27 164.45 350.29 164.45 350.31 164.45 350.32 164.43 350.34 164.41 350.37 164.37 350.4 164.31 350.42 164.26 350.43 164.23 350.43 164.19 350.45 164.15 350.47 164.12 350.5 164.11 350.52 164.09 350.55 164.08 350.56 164.07 350.58 164.06 350.59 164.04 350.59 164.02 350.6 163.99 350.6 163.98 350.6 163.95 350.61 163.92 350.64 163.88 350.67 163.85 350.71 163.85 350.76 163.84 350.78 163.81 350.79 163.78 350.79 163.73 350.78 163.7 350.78 163.68 350.79 163.66 350.82 163.65 350.85 163.65 350.87 163.64 350.9 163.64 350.92 163.63 350.94 163.61 350.97 163.6 351.01 163.57 351.03 163.56 351.07 163.54 351.1 163.53 351.11 163.52 351.12 163.5 351.13 163.47 351.15 163.44 351.16 163.41 351.17 163.4 351.17 163.38 351.18 163.36 351.19 163.33 351.2 163.31 351.21 163.29 351.22 163.28 351.26 163.24 351.29 163.22 351.31 163.21 351.33 163.2 351.37 163.19 351.39 163.18 351.4 163.17 351.42 163.14 351.43 163.13 351.43 163.11 351.44 163.09 351.44 163.07 351.44 163.02 351.45 162.98 351.46 162.94 351.48 162.9 351.5 162.87 351.52 162.84 351.57 162.78 351.62 162.74 351.68 162.68 351.72 162.63 351.8 162.54 351.87 162.48 351.92 162.42 351.97 162.37 352.03 162.32 352.08 162.28 352.16 162.21 352.21 162.18 352.25 162.15 352.3 162.12 352.34 162.09 352.37 162.06 352.4 162.03 352.43 161.99 352.47 161.96 352.49 161.94 352.52 161.92 352.58 161.87 352.61 161.83 352.63 161.81 352.64 161.8 352.65 161.78 352.69 161.76 352.71 161.74 352.75 161.73 352.84 161.69 352.9 161.66 352.97 161.62 353 161.59 353.06 161.55 353.13 161.52 353.2 161.5 353.26 161.47 353.28 161.46 353.3 161.45 353.34 161.42 353.36 161.41 353.38 161.39 353.4 161.36 353.4 161.33 353.4 161.31 353.41 161.29 353.43 161.27 353.46 161.25 353.5 161.23 353.53 161.23 353.56 161.22 353.59 161.22 353.64 161.19 353.67 161.15 353.7 161.13 353.71 161.1 353.72 161.07 353.74 161.04 353.75 161.02 353.78 160.98 353.8 160.97 353.82 160.95 353.84 160.93 353.88 160.91 353.91 160.89 353.97 160.86 354.01 160.83 354.05 160.8 354.09 160.78 354.12 160.75 354.16 160.71 354.17 160.69 354.18 160.67 354.18 160.65 354.19 160.63 354.23 160.59 354.25 160.57 354.28 160.54 354.31 160.52 354.34 160.49 354.36 160.47 354.38 160.45 354.42 160.41 354.44 160.39 354.46 160.37 354.49 160.34 354.52 160.31 354.57 160.28 354.61 160.25 354.65 160.24 354.7 160.21 354.75 160.18 354.79 160.15 354.84 160.13 354.88 160.1 354.91 160.07 354.98 160.03 354.99 160.02 355.05 159.99 355.08 159.97 355.11 159.94 355.15 159.92 355.21 159.89 355.25 159.88 355.29 159.87 355.34 159.87 355.37 159.88 355.44 159.88 355.5 159.87 355.53 159.87 355.54 159.86 355.58 159.84 355.61 159.81 355.63 159.79 355.65 159.77 355.66 159.76 355.68 159.74 355.71 159.72 355.73 159.72 355.76 159.71 355.79 159.72 355.82 159.72 355.85 159.74 355.89 159.74 355.94 159.74 355.98 159.74 356.02 159.74 356.06 159.73 356.11 159.73 356.15 159.71 356.19 159.7 356.22 159.69 356.25 159.68 356.29 159.69 356.34 159.7 356.38 159.71 356.44 159.71 356.51 159.72 356.58 159.72 356.62 159.71 356.67 159.7 356.7 159.69 356.75 159.67 356.8 159.66 356.84 159.68 356.89 159.68 356.91 159.68 356.94 159.68 357.02 159.67 358.28 159.49 358.76 159.57 359.71 161.1 Z"/>
</g></svg>