<svg xmlns="http://www.w3.org/2000/svg" version="1.2" baseProfile="tiny" stroke-linecap="round" stroke-linejoin="round" viewBox="491 93.93 30.62 23.57"><g xmlns="http://www.w3.org/2000/svg" id="Bera">
<path d="M 518.16 96.01 518.17 96.02 518.18 96.02 518.19 96.03 518.2 96.03 518.21 96.04 518.21 96.05 518.22 96.05 518.23 96.06 518.24 96.07 518.26 96.09 518.27 96.1 518.3 96.12 518.32 96.14 518.33 96.15 518.35 96.17 518.35 96.17 518.36 96.18 518.37 96.19 518.38 96.2 518.38 96.2 518.39 96.21 518.4 96.22 518.4 96.23 518.41 96.23 518.41 96.24 518.42 96.25 518.44 96.27 518.44 96.27 518.45 96.29 518.47 96.32 518.49 96.33 518.49 96.34 518.5 96.35 518.51 96.36 518.51 96.37 518.52 96.37 518.53 96.38 518.54 96.4 518.56 96.42 518.58 96.44 518.59 96.44 518.59 96.45 518.61 96.47 518.62 96.48 518.63 96.49 518.63 96.5 518.64 96.51 518.65 96.51 518.65 96.53 518.65 96.54 518.65 96.55 518.65 96.56 518.64 96.57 518.64 96.58 518.64 96.59 518.64 96.6 518.64 96.61 518.64 96.62 518.64 96.63 518.65 96.64 518.66 96.65 518.67 96.66 518.68 96.66 518.69 96.67 518.7 96.67 518.71 96.67 518.72 96.67 518.73 96.67 518.75 96.68 518.76 96.68 518.77 96.68 518.78 96.68 518.79 96.68 518.8 96.68 518.82 96.68 518.86 96.68 518.87 96.68 518.88 96.68 518.89 96.68 518.91 96.68 518.92 96.68 518.93 96.68 518.94 96.68 518.96 96.68 518.99 96.68 519 96.69 519.01 96.69 519.02 96.69 519.03 96.69 519.04 96.69 519.06 96.69 519.07 96.68 519.08 96.68 519.09 96.68 519.1 96.68 519.12 96.68 519.14 96.68 519.16 96.68 519.17 96.69 519.19 96.69 519.3 96.69 519.33 96.69 519.47 96.68 519.48 96.68 519.49 96.69 519.5 96.69 519.51 96.69 519.52 96.69 519.53 96.7 519.55 96.7 519.58 96.71 519.59 96.71 519.6 96.71 519.62 96.71 519.65 96.72 519.68 96.72 519.72 96.73 519.74 96.73 519.76 96.73 519.77 96.73 519.78 96.74 519.79 96.74 519.81 96.74 519.82 96.74 519.83 96.74 519.85 96.74 519.89 96.74 519.93 96.74 519.94 96.74 519.95 96.74 519.96 96.74 519.98 96.74 520 96.74 520.02 96.74 520.06 96.74 520.08 96.74 520.12 96.74 520.16 96.75 520.19 96.75 520.21 96.76 520.24 96.76 520.27 96.76 520.28 96.76 520.29 96.76 520.3 96.76 520.31 96.77 520.31 96.77 520.33 96.77 520.34 96.77 520.35 96.77 520.37 96.78 520.43 96.79 520.45 96.8 520.48 96.8 520.54 96.82 520.56 96.82 520.58 96.82 520.6 96.83 520.62 96.83 520.64 96.84 520.67 96.85 520.72 96.86 520.74 96.87 520.76 96.87 520.77 96.87 520.78 96.87 520.79 96.88 520.8 96.88 520.84 96.89 520.85 96.89 520.86 96.89 520.87 96.9 520.88 96.9 520.89 96.9 520.9 96.9 520.91 96.91 520.92 96.91 520.93 96.92 520.93 96.92 520.94 96.92 520.95 96.93 520.96 96.93 520.97 96.94 520.98 96.94 520.99 96.95 521 96.96 521.01 96.96 521.02 96.97 521.03 96.97 521.04 96.98 521.04 96.99 521.05 96.99 521.07 97 521.08 97.01 521.08 97.02 521.09 97.02 521.1 97.03 521.11 97.04 521.12 97.04 521.12 97.05 521.13 97.06 521.14 97.06 521.15 97.07 521.17 97.1 521.19 97.19 521.26 97.51 521.39 98.11 521.56 98.9 521.61 99.16 521.59 99.2 521.57 99.26 521.54 99.31 521.51 99.37 521.49 99.43 521.48 99.43 521.45 99.5 521.43 99.54 521.4 99.6 521.34 99.75 521.32 99.8 521.3 99.84 521.29 99.86 521.28 99.89 521.25 99.95 521.22 100.01 521.2 100.07 521.14 100.18 521.12 100.23 521.09 100.29 521.07 100.34 521.04 100.4 521.04 100.41 521.03 100.43 521.01 100.45 521 100.48 520.98 100.52 520.97 100.54 520.95 100.58 520.92 100.63 520.83 100.79 520.79 100.88 520.72 101.01 520.69 101.07 520.66 101.11 520.62 101.19 520.6 101.23 520.59 101.26 520.57 101.28 520.55 101.31 520.55 101.33 520.54 101.35 520.53 101.36 520.51 101.39 520.46 101.46 520.36 101.62 520.31 101.69 520.29 101.73 520.27 101.75 520.22 101.83 520.21 101.85 520.2 101.87 520.19 101.88 520.19 101.89 520.18 101.9 520.18 101.91 520.17 101.92 520.17 101.93 520.16 101.94 520.15 101.96 520.15 101.96 520.14 101.97 520.14 101.98 520.13 101.99 520.13 102 520.13 102.01 520.12 102.02 520.12 102.03 520.12 102.04 520.11 102.06 520.1 102.09 520.1 102.1 520.1 102.1 520.08 102.16 520.07 102.2 520.06 102.21 520.06 102.23 520.05 102.25 520.05 102.26 520.04 102.27 520.04 102.29 520.02 102.33 520.01 102.34 520.01 102.35 520.01 102.36 520 102.37 520 102.38 519.99 102.39 519.99 102.41 519.99 102.42 519.99 102.43 519.99 102.44 519.99 102.45 519.98 102.46 519.98 102.47 519.98 102.48 519.98 102.49 519.99 102.5 519.99 102.51 519.99 102.52 519.99 102.53 519.99 102.54 520 102.55 520 102.56 520 102.57 520 102.58 520.01 102.59 520.01 102.6 520.01 102.61 520.02 102.62 520.02 102.63 520.03 102.64 520.03 102.65 520.03 102.66 520.04 102.67 520.04 102.68 520.05 102.69 520.06 102.7 520.13 102.76 520.13 102.77 520.13 102.79 520.13 102.81 520.13 102.84 520.13 102.85 520.13 102.89 520.13 102.9 520.13 102.91 520.13 102.92 520.12 102.93 520.12 102.94 520.12 102.95 520.12 102.96 520.12 102.97 520.11 102.98 520.11 102.99 520.11 103 520.11 103.01 520.1 103.02 520.1 103.03 520.1 103.04 520.09 103.05 520.09 103.06 520.08 103.07 520.08 103.08 520.07 103.09 520.07 103.1 520.07 103.11 520.06 103.12 520.06 103.13 520.05 103.14 520.04 103.16 520.02 103.2 520.01 103.21 520.01 103.21 520 103.22 520 103.23 519.99 103.24 519.99 103.25 519.99 103.26 519.97 103.3 519.96 103.31 519.96 103.32 519.95 103.33 519.95 103.34 519.94 103.35 519.94 103.35 519.94 103.36 519.93 103.37 519.92 103.38 519.92 103.39 519.91 103.4 519.91 103.41 519.9 103.41 519.89 103.43 519.86 103.47 519.85 103.47 519.84 103.48 519.84 103.49 519.82 103.51 519.81 103.52 519.8 103.53 519.79 103.54 519.79 103.54 519.78 103.55 519.77 103.56 519.77 103.57 519.76 103.58 519.76 103.59 519.75 103.6 519.75 103.6 519.74 103.61 519.74 103.62 519.73 103.63 519.73 103.64 519.72 103.65 519.72 103.66 519.72 103.67 519.71 103.68 519.71 103.69 519.71 103.7 519.7 103.72 519.7 103.73 519.69 103.74 519.69 103.75 519.69 103.76 519.69 103.77 519.69 103.78 519.68 103.81 519.68 103.85 519.67 103.86 519.67 103.89 519.66 103.92 519.66 103.94 519.66 103.96 519.65 103.97 519.65 103.98 519.65 103.99 519.65 104 519.65 104.01 519.65 104.02 519.65 104.03 519.65 104.04 519.65 104.06 519.65 104.07 519.65 104.08 519.65 104.09 519.65 104.11 519.65 104.12 519.65 104.13 519.65 104.14 519.65 104.15 519.66 104.16 519.66 104.17 519.66 104.19 519.66 104.2 519.66 104.21 519.66 104.22 519.67 104.23 519.67 104.24 519.67 104.25 519.67 104.26 519.67 104.27 519.68 104.28 519.68 104.29 519.68 104.3 519.69 104.31 519.69 104.33 519.7 104.34 519.7 104.35 519.72 104.38 519.72 104.39 519.73 104.4 519.73 104.4 519.74 104.41 519.74 104.42 519.74 104.43 519.74 104.44 519.74 104.45 519.74 104.46 519.74 104.47 519.48 105.53 519.48 105.54 519.49 105.55 519.49 105.56 519.5 105.57 519.5 105.58 519.51 105.59 519.51 105.6 519.52 105.61 519.52 105.62 519.53 105.64 519.54 105.65 519.54 105.67 519.55 105.67 519.57 105.71 519.57 105.72 519.58 105.73 519.58 105.74 519.59 105.75 519.6 105.76 519.6 105.77 519.61 105.78 519.62 105.78 519.64 105.8 519.66 105.82 519.67 105.83 519.68 105.84 519.69 105.85 519.7 105.86 519.71 105.87 519.72 105.89 519.74 105.9 519.76 105.93 519.78 105.95 519.8 105.98 519.82 106 519.84 106.03 519.86 106.05 519.88 106.08 519.9 106.1 519.91 106.12 519.93 106.18 519.94 106.22 519.96 106.27 519.97 106.3 520.17 106.94 520.21 107.15 520.41 108.12 520.59 108.86 520.69 109.24 520.91 110.12 520.92 110.39 520.97 110.79 520.99 110.87 520.98 110.88 520.96 110.89 520.95 110.9 520.94 110.9 520.93 110.9 520.92 110.91 520.91 110.91 520.9 110.92 520.87 110.93 520.85 110.94 520.85 110.95 520.84 110.95 520.83 110.96 520.81 110.97 520.8 110.97 520.79 110.97 520.78 110.98 520.77 110.98 520.76 110.99 520.75 110.99 520.74 111 520.73 111 520.72 111.01 520.71 111.02 520.71 111.03 520.7 111.03 520.69 111.04 520.69 111.05 520.68 111.06 520.68 111.07 520.67 111.09 520.66 111.11 520.65 111.13 520.63 111.16 520.62 111.19 520.61 111.2 520.61 111.21 520.6 111.23 520.59 111.23 520.59 111.24 520.57 111.26 520.56 111.29 520.55 111.31 520.54 111.32 520.53 111.34 520.52 111.35 520.51 111.36 520.51 111.37 520.5 111.38 520.49 111.39 520.48 111.4 520.48 111.41 520.47 111.42 520.46 111.44 520.44 111.46 520.43 111.47 520.42 111.49 520.4 111.51 520.4 111.51 520.39 111.52 520.38 111.53 520.38 111.54 520.37 111.55 520.36 111.56 520.36 111.56 520.35 111.57 520.34 111.58 520.33 111.58 520.32 111.59 520.31 111.6 520.3 111.6 520.29 111.6 520.27 111.61 520.24 111.63 520.23 111.63 520.22 111.63 520.2 111.64 520.19 111.64 520.18 111.65 520.15 111.66 520.14 111.67 520.12 111.67 520.1 111.68 520.09 111.68 520.08 111.69 520.06 111.69 520.05 111.7 520.04 111.7 520.03 111.7 519.98 111.73 519.96 111.73 519.95 111.74 519.94 111.74 519.93 111.75 519.92 111.75 519.91 111.76 519.91 111.76 519.9 111.77 519.88 111.77 519.87 111.78 519.86 111.79 519.86 111.79 519.85 111.8 519.84 111.81 519.83 111.81 519.82 111.82 519.81 111.83 519.81 111.84 519.8 111.85 519.79 111.86 519.78 111.87 519.77 111.88 519.76 111.89 519.74 111.92 519.72 111.94 519.71 111.95 519.69 111.97 519.68 111.99 519.67 112 519.66 112.01 519.65 112.02 519.64 112.04 519.63 112.06 519.62 112.06 519.61 112.09 519.6 112.1 519.59 112.1 519.59 112.12 519.58 112.12 519.57 112.14 519.54 112.17 519.53 112.19 519.53 112.19 519.52 112.2 519.51 112.21 519.5 112.22 519.5 112.23 519.49 112.23 519.48 112.24 519.48 112.25 519.47 112.26 519.46 112.26 519.45 112.27 519.44 112.28 519.44 112.29 519.43 112.29 519.42 112.3 519.4 112.31 519.39 112.33 519.38 112.33 519.37 112.34 519.36 112.35 519.35 112.35 519.34 112.36 519.33 112.37 519.32 112.38 519.31 112.38 519.3 112.39 519.28 112.41 519.26 112.42 519.25 112.42 519.23 112.44 519.22 112.44 519.22 112.45 519.21 112.45 519.2 112.46 519.19 112.46 519.18 112.47 519.17 112.47 519.16 112.48 519.15 112.48 519.14 112.48 519.13 112.49 519.12 112.49 519.11 112.5 519.1 112.5 519.09 112.5 519.08 112.5 519.07 112.51 519.06 112.51 519.05 112.52 519.05 112.52 519.04 112.52 519.03 112.53 519.02 112.53 519.01 112.54 519 112.55 518.99 112.56 518.98 112.56 518.98 112.57 518.97 112.58 518.96 112.59 518.96 112.6 518.95 112.61 518.94 112.62 518.94 112.63 518.93 112.64 518.93 112.65 518.92 112.66 518.92 112.66 518.91 112.69 518.9 112.7 518.9 112.71 518.89 112.72 518.89 112.73 518.86 112.78 518.86 112.8 518.85 112.81 518.85 112.82 518.84 112.83 518.83 112.84 518.82 112.86 518.81 112.88 518.81 112.88 518.8 112.89 518.79 112.91 518.79 112.92 518.78 112.93 518.77 112.95 518.76 112.96 518.75 112.98 518.74 113 518.73 113.02 518.71 113.04 518.7 113.05 518.7 113.06 518.68 113.08 518.67 113.09 518.67 113.1 518.66 113.11 518.65 113.12 518.65 113.12 518.64 113.13 518.63 113.14 518.63 113.14 518.62 113.15 518.61 113.16 518.6 113.16 518.59 113.17 518.58 113.17 518.57 113.17 518.56 113.18 518.55 113.18 518.54 113.18 518.53 113.19 518.52 113.2 518.51 113.21 518.5 113.21 518.49 113.22 518.48 113.22 518.47 113.23 518.46 113.23 518.45 113.23 518.44 113.24 518.43 113.24 518.42 113.24 518.41 113.25 518.39 113.25 518.37 113.25 518.36 113.26 518.35 113.26 518.34 113.26 518.33 113.27 518.31 113.27 518.3 113.27 518.29 113.27 518.28 113.27 518.27 113.28 518.26 113.28 518.25 113.28 518.24 113.28 518.23 113.28 518.21 113.28 518.2 113.29 518.19 113.29 518.18 113.29 518.17 113.29 518.16 113.29 518.15 113.29 518.14 113.29 518.13 113.29 518.12 113.29 518.11 113.29 518.1 113.29 518.08 113.29 518.07 113.29 518.06 113.29 518.05 113.28 518.04 113.28 518.03 113.28 518.02 113.28 518 113.28 517.99 113.28 517.97 113.27 517.96 113.27 517.95 113.27 517.92 113.26 517.9 113.26 517.88 113.26 517.87 113.26 517.86 113.26 517.85 113.25 517.84 113.25 517.83 113.25 517.83 113.25 517.81 113.25 517.8 113.24 517.79 113.24 517.78 113.24 517.76 113.23 517.74 113.23 517.73 113.23 517.73 113.22 517.71 113.22 517.7 113.22 517.68 113.21 517.67 113.21 517.66 113.21 517.65 113.21 517.64 113.21 517.63 113.2 517.62 113.2 517.61 113.2 517.59 113.2 517.58 113.2 517.57 113.2 517.55 113.2 517.54 113.2 517.53 113.19 517.52 113.19 517.5 113.19 517.49 113.19 517.48 113.19 517.47 113.19 517.46 113.19 517.45 113.19 517.43 113.19 517.4 113.19 517.39 113.19 517.38 113.19 517.37 113.19 517.36 113.19 517.34 113.19 517.33 113.19 517.3 113.19 517.28 113.19 517.27 113.19 517.26 113.19 517.25 113.19 517.24 113.19 517.23 113.19 517.22 113.19 517.21 113.19 517.19 113.19 517.18 113.18 517.17 113.18 517.16 113.18 517.15 113.18 517.13 113.18 517.12 113.18 517.11 113.18 517.1 113.17 517.09 113.17 517.08 113.17 517.07 113.17 517.05 113.17 517.04 113.17 517.03 113.16 517.01 113.16 517 113.16 516.99 113.16 516.97 113.15 516.96 113.15 516.95 113.15 516.94 113.15 516.92 113.15 516.91 113.15 516.9 113.15 516.89 113.15 516.88 113.15 516.87 113.15 516.86 113.15 516.85 113.15 516.84 113.15 516.83 113.15 516.82 113.15 516.81 113.16 516.8 113.16 516.79 113.16 516.78 113.17 516.77 113.17 516.76 113.17 516.75 113.18 516.73 113.18 516.72 113.19 516.71 113.19 516.7 113.21 516.69 113.21 516.68 113.22 516.65 113.24 516.64 113.24 516.63 113.25 516.62 113.25 516.61 113.25 516.6 113.26 516.59 113.26 516.58 113.26 516.57 113.27 516.56 113.27 516.55 113.27 516.53 113.27 516.52 113.27 516.51 113.27 516.5 113.27 516.49 113.27 516.48 113.27 516.47 113.27 516.46 113.27 516.45 113.27 516.44 113.26 516.43 113.26 516.42 113.26 516.4 113.25 516.4 113.25 516.38 113.25 516.37 113.25 516.36 113.24 516.35 113.24 516.34 113.24 516.33 113.23 516.32 113.23 516.3 113.24 516.29 113.24 516.28 113.24 516.27 113.25 516.27 113.25 516.26 113.26 516.25 113.27 516.24 113.27 516.23 113.29 516.22 113.3 516.22 113.31 516.21 113.32 516.21 113.34 516.2 113.35 516.2 113.35 516.2 113.37 516.2 113.38 516.19 113.39 516.19 113.4 516.19 113.41 516.19 113.42 516.18 113.43 516.18 113.44 516.18 113.45 516.18 113.47 516.18 113.48 516.17 113.53 516.17 113.54 516.17 113.55 516.17 113.57 516.17 113.58 516.17 113.59 516.17 113.6 516.16 113.61 516.16 113.62 516.15 113.63 516.15 113.64 516.14 113.65 516.14 113.66 516.13 113.67 516.12 113.68 516.12 113.69 516.11 113.69 516.1 113.7 516.09 113.71 516.08 113.71 516.07 113.72 516.05 113.73 516.04 113.74 516.02 113.75 516.01 113.75 516.01 113.76 515.95 113.78 515.94 113.79 515.93 113.8 515.92 113.8 515.91 113.81 515.9 113.81 515.89 113.82 515.88 113.83 515.87 113.83 515.84 113.85 515.84 113.85 515.83 113.86 515.82 113.87 515.81 113.87 515.8 113.88 515.79 113.89 515.79 113.89 515.78 113.9 515.77 113.91 515.76 113.92 515.76 113.93 515.75 113.94 515.75 113.95 515.74 113.96 515.74 113.97 515.74 113.98 515.73 113.99 515.73 114 515.73 114.01 515.72 114.03 515.72 114.04 515.71 114.06 515.7 114.08 515.7 114.09 515.7 114.1 515.69 114.11 515.69 114.12 515.68 114.13 515.68 114.14 515.68 114.15 515.67 114.16 515.67 114.17 515.66 114.18 515.66 114.19 515.65 114.2 515.64 114.2 515.63 114.22 515.62 114.23 515.62 114.24 515.61 114.25 515.6 114.26 515.6 114.27 515.59 114.28 515.59 114.29 515.58 114.3 515.58 114.31 515.58 114.32 515.57 114.33 515.57 114.34 515.57 114.35 515.57 114.36 515.57 114.37 515.57 114.38 515.56 114.4 515.56 114.41 515.56 114.42 515.56 114.44 515.56 114.45 515.56 114.47 515.56 114.48 515.56 114.5 515.56 114.52 515.56 114.54 515.55 114.56 515.55 114.57 515.55 114.58 515.55 114.63 515.55 114.66 515.55 114.67 515.55 114.68 515.55 114.69 515.55 114.71 515.55 114.73 515.55 114.78 515.55 114.79 515.55 114.8 515.55 114.81 515.55 114.82 515.55 114.83 515.55 114.85 515.56 114.86 515.56 114.87 515.56 114.88 515.57 114.89 515.57 114.9 515.57 114.91 515.58 114.92 515.58 114.93 515.59 114.94 515.6 114.95 515.6 114.96 515.61 114.97 515.62 114.98 515.62 114.98 515.63 114.99 515.64 115 515.64 115.01 515.65 115.02 515.66 115.03 515.67 115.04 515.67 115.05 515.68 115.07 515.69 115.07 515.7 115.08 515.71 115.1 515.71 115.11 515.72 115.12 515.73 115.13 515.73 115.13 515.76 115.2 515.76 115.21 515.76 115.22 515.76 115.23 515.76 115.24 515.77 115.25 515.77 115.26 515.77 115.27 515.77 115.28 515.78 115.32 515.78 115.33 515.78 115.34 515.79 115.36 515.79 115.37 515.79 115.38 515.79 115.39 515.79 115.4 515.79 115.41 515.79 115.42 515.79 115.43 515.79 115.44 515.79 115.45 515.78 115.46 515.78 115.47 515.77 115.48 515.77 115.49 515.76 115.5 515.75 115.51 515.74 115.51 515.74 115.52 515.72 115.53 515.71 115.53 515.71 115.54 515.7 115.54 515.69 115.54 515.68 115.55 515.67 115.55 515.65 115.55 515.64 115.55 515.63 115.55 515.62 115.55 515.61 115.55 515.59 115.55 515.58 115.55 515.57 115.54 515.56 115.54 515.55 115.54 515.54 115.53 515.53 115.53 515.52 115.52 515.51 115.52 515.5 115.51 515.49 115.51 515.48 115.5 515.48 115.49 515.47 115.48 515.46 115.48 515.46 115.47 515.45 115.46 515.45 115.45 515.45 115.44 515.44 115.43 515.44 115.42 515.44 115.41 515.45 115.4 515.45 115.39 515.45 115.38 515.46 115.37 515.46 115.36 515.47 115.35 515.47 115.34 515.48 115.33 515.48 115.32 515.48 115.31 515.49 115.3 515.49 115.29 515.49 115.28 515.49 115.26 515.49 115.25 515.49 115.24 515.48 115.23 515.48 115.22 515.47 115.21 515.46 115.21 515.45 115.2 515.44 115.2 515.42 115.2 515.41 115.2 515.4 115.2 515.39 115.2 515.38 115.21 515.37 115.21 515.36 115.21 515.35 115.22 515.34 115.23 515.34 115.23 515.27 115.29 515.26 115.29 515.25 115.3 515.25 115.31 515.24 115.32 515.22 115.34 515.22 115.35 515.21 115.36 515.21 115.37 515.2 115.38 515.2 115.39 515.2 115.4 515.18 115.41 515.18 115.42 515.17 115.43 515.16 115.44 515.15 115.45 515.15 115.46 515.14 115.47 515.14 115.48 515.13 115.49 515.12 115.5 515.11 115.51 515.11 115.52 515.1 115.53 515.1 115.54 515.09 115.55 515.08 115.55 515.08 115.56 515.07 115.57 515.06 115.58 515.06 115.58 515.05 115.58 515.03 115.58 515.02 115.58 515.01 115.58 515 115.58 514.99 115.58 514.98 115.57 514.97 115.57 514.96 115.56 514.95 115.56 514.94 115.55 514.94 115.54 514.93 115.54 514.92 115.53 514.91 115.52 514.9 115.52 514.89 115.51 514.89 115.5 514.88 115.49 514.87 115.48 514.86 115.48 514.85 115.47 514.84 115.45 514.83 115.45 514.82 115.44 514.82 115.43 514.8 115.42 514.8 115.41 514.79 115.4 514.78 115.39 514.77 115.39 514.76 115.39 514.75 115.39 514.74 115.39 514.73 115.39 514.72 115.39 514.71 115.4 514.7 115.41 514.69 115.42 514.69 115.43 514.68 115.44 514.67 115.44 514.66 115.45 514.65 115.45 514.64 115.45 514.63 115.45 514.62 115.45 514.61 115.45 514.6 115.45 514.59 115.45 514.58 115.44 514.57 115.44 514.56 115.43 514.56 115.42 514.55 115.42 514.54 115.41 514.53 115.4 514.53 115.39 514.52 115.38 514.52 115.37 514.52 115.36 514.51 115.35 514.51 115.34 514.51 115.33 514.51 115.32 514.52 115.31 514.52 115.3 514.52 115.29 514.52 115.28 514.53 115.27 514.53 115.26 514.53 115.25 514.54 115.24 514.56 115.22 514.56 115.22 514.57 115.21 514.58 115.21 514.59 115.2 514.59 115.19 514.6 115.18 514.61 115.18 514.63 115.15 514.65 115.13 514.65 115.13 514.66 115.11 514.67 115.1 514.67 115.1 514.68 115.09 514.68 115.07 514.68 115.06 514.67 115.05 514.67 115.03 514.67 115.02 514.66 115.01 514.66 115 514.65 115 514.64 114.99 514.63 114.98 514.63 114.98 514.62 114.97 514.61 114.96 514.6 114.96 514.59 114.95 514.58 114.95 514.57 114.94 514.56 114.94 514.55 114.93 514.54 114.93 514.53 114.92 514.52 114.92 514.51 114.92 514.5 114.91 514.49 114.91 514.48 114.91 514.47 114.91 514.46 114.91 514.45 114.91 514.44 114.92 514.42 114.92 514.41 114.94 514.41 114.95 514.41 114.96 514.41 114.97 514.41 114.98 514.41 114.99 514.41 114.99 514.42 115 514.42 115.01 514.42 115.02 514.42 115.03 514.42 115.05 514.42 115.06 514.42 115.07 514.42 115.08 514.42 115.09 514.42 115.1 514.42 115.11 514.41 115.11 514.4 115.12 514.39 115.12 514.38 115.13 514.37 115.13 514.36 115.13 514.35 115.14 514.34 115.14 514.33 115.14 514.32 115.14 514.31 115.15 514.3 115.15 514.29 115.16 514.28 115.17 514.28 115.18 514.28 115.2 514.28 115.21 514.28 115.22 514.28 115.23 514.28 115.24 514.28 115.25 514.28 115.26 514.28 115.26 514.27 115.27 514.26 115.28 514.25 115.29 514.24 115.29 514.23 115.3 514.22 115.3 514.21 115.31 514.2 115.31 514.19 115.32 514.18 115.32 514.17 115.32 514.16 115.32 514.15 115.32 514.14 115.32 514.13 115.32 514.12 115.32 514.11 115.32 514.1 115.32 514.09 115.33 514.08 115.33 514.07 115.34 514.06 115.34 514.06 115.35 514.05 115.36 514.04 115.36 514.03 115.37 514.03 115.38 514.02 115.39 514.01 115.41 514.01 115.42 513.98 115.47 513.96 115.49 513.95 115.51 513.95 115.51 513.94 115.52 513.94 115.54 513.93 115.54 513.92 115.55 513.92 115.56 513.91 115.57 513.9 115.58 513.89 115.59 513.88 115.59 513.87 115.59 513.86 115.6 513.84 115.6 513.83 115.61 513.82 115.61 513.81 115.61 513.8 115.61 513.79 115.62 513.78 115.62 513.76 115.62 513.75 115.62 513.74 115.62 513.73 115.62 513.71 115.62 513.7 115.62 513.69 115.61 513.66 115.61 513.65 115.61 513.64 115.61 513.63 115.61 513.62 115.61 513.61 115.61 513.59 115.61 513.58 115.61 513.57 115.61 513.56 115.61 513.55 115.61 513.54 115.6 513.53 115.6 513.53 115.59 513.52 115.59 513.51 115.58 513.5 115.58 513.5 115.57 513.49 115.56 513.48 115.54 513.48 115.54 513.47 115.52 513.47 115.52 513.47 115.51 513.46 115.5 513.46 115.49 513.46 115.48 513.45 115.46 513.45 115.46 513.45 115.45 513.45 115.43 513.45 115.43 513.45 115.42 513.44 115.41 513.44 115.4 513.44 115.39 513.44 115.38 513.44 115.36 513.44 115.35 513.43 115.32 513.42 115.32 513.41 115.32 513.4 115.32 513.39 115.32 513.38 115.33 513.37 115.33 513.36 115.33 513.35 115.34 513.34 115.35 513.33 115.36 513.32 115.36 513.31 115.37 513.31 115.38 513.3 115.39 513.29 115.39 513.29 115.41 513.28 115.42 513.28 115.43 513.27 115.45 513.26 115.46 513.26 115.46 513.25 115.47 513.24 115.49 513.23 115.49 513.22 115.51 513.21 115.52 513.21 115.53 513.19 115.54 513.19 115.55 513.18 115.56 513.18 115.57 513.17 115.58 513.17 115.59 513.16 115.61 513.15 115.62 513.15 115.63 513.14 115.64 513.14 115.65 513.14 115.66 513.14 115.69 513.13 115.7 513.13 115.71 513.13 115.72 513.13 115.73 513.12 115.74 513.12 115.75 513.11 115.76 513.11 115.77 513.1 115.78 513.1 115.78 513.09 115.79 513.09 115.8 513.08 115.81 513.07 115.81 513.06 115.82 513.05 115.82 513.04 115.82 513.02 115.82 513.01 115.81 513.01 115.81 512.99 115.8 512.98 115.79 512.98 115.79 512.97 115.78 512.96 115.77 512.95 115.77 512.94 115.76 512.93 115.75 512.92 115.75 512.91 115.74 512.9 115.74 512.89 115.73 512.88 115.72 512.87 115.72 512.86 115.72 512.85 115.71 512.84 115.71 512.83 115.71 512.82 115.71 512.81 115.71 512.79 115.71 512.79 115.71 512.77 115.72 512.77 115.73 512.76 115.74 512.76 115.76 512.76 115.77 512.77 115.78 512.77 115.79 512.77 115.8 512.77 115.81 512.77 115.82 512.78 115.83 512.78 115.84 512.78 115.85 512.79 115.86 512.79 115.87 512.79 115.88 512.8 115.89 512.8 115.9 512.8 115.91 512.81 115.92 512.81 115.93 512.82 115.94 512.83 115.96 512.84 115.98 512.84 115.99 512.85 116 512.86 116.02 512.86 116.03 512.87 116.04 512.87 116.05 512.88 116.06 512.88 116.07 512.89 116.08 512.89 116.09 512.89 116.1 512.9 116.11 512.9 116.12 512.9 116.13 512.9 116.14 512.9 116.15 512.9 116.16 512.9 116.17 512.9 116.18 512.9 116.19 512.9 116.2 512.9 116.21 512.9 116.22 512.9 116.23 512.9 116.24 512.9 116.25 512.9 116.26 512.9 116.27 512.9 116.28 512.9 116.29 512.9 116.3 512.89 116.31 512.89 116.33 512.89 116.34 512.89 116.35 512.88 116.37 512.88 116.38 512.88 116.39 512.87 116.41 512.87 116.42 512.87 116.43 512.87 116.44 512.87 116.45 512.86 116.46 512.85 116.47 512.85 116.48 512.84 116.48 512.83 116.48 512.81 116.49 512.8 116.49 512.79 116.49 512.77 116.49 512.76 116.48 512.75 116.47 512.74 116.47 512.73 116.46 512.72 116.45 512.71 116.44 512.7 116.44 512.69 116.43 512.68 116.43 512.67 116.43 512.66 116.43 512.64 116.43 512.63 116.43 512.62 116.43 512.61 116.43 512.59 116.43 512.58 116.44 512.57 116.44 512.55 116.43 512.54 116.43 512.53 116.43 512.52 116.42 512.52 116.42 512.51 116.41 512.5 116.41 512.49 116.4 512.48 116.39 512.48 116.38 512.47 116.38 512.47 116.37 512.46 116.36 512.45 116.34 512.44 116.33 512.44 116.33 512.43 116.32 512.43 116.31 512.42 116.3 512.41 116.29 512.4 116.28 512.39 116.27 512.38 116.27 512.37 116.28 512.36 116.28 512.35 116.28 512.34 116.3 512.34 116.31 512.33 116.32 512.33 116.33 512.33 116.34 512.33 116.35 512.34 116.36 512.34 116.38 512.34 116.39 512.34 116.4 512.34 116.41 512.34 116.42 512.34 116.43 512.34 116.44 512.34 116.45 512.33 116.46 512.32 116.47 512.31 116.47 512.3 116.48 512.29 116.48 512.29 116.49 512.27 116.49 512.26 116.49 512.25 116.49 512.24 116.49 512.23 116.49 512.22 116.49 512.21 116.49 512.19 116.47 512.19 116.47 512.18 116.45 512.17 116.44 512.17 116.44 512.16 116.43 512.15 116.42 512.15 116.41 512.14 116.4 512.14 116.39 512.13 116.38 512.13 116.37 512.12 116.36 512.12 116.35 512.12 116.35 512.11 116.33 512.1 116.32 512.1 116.31 512.09 116.3 512.09 116.28 512.08 116.27 512.08 116.26 512.08 116.25 512.07 116.24 512.06 116.23 512.06 116.22 512.05 116.22 512.04 116.21 512.03 116.21 512.02 116.21 512.01 116.21 512 116.21 511.99 116.22 511.98 116.22 511.97 116.22 511.96 116.23 511.95 116.24 511.94 116.24 511.93 116.25 511.92 116.25 511.91 116.26 511.9 116.26 511.89 116.26 511.88 116.26 511.87 116.26 511.85 116.27 511.84 116.27 511.83 116.27 511.82 116.26 511.81 116.26 511.8 116.26 511.79 116.26 511.78 116.26 511.76 116.25 511.75 116.25 511.74 116.25 511.73 116.24 511.72 116.24 511.71 116.24 511.71 116.23 511.7 116.23 511.69 116.22 511.68 116.21 511.67 116.21 511.66 116.2 511.65 116.2 511.64 116.19 511.63 116.18 511.62 116.17 511.61 116.16 511.6 116.15 511.59 116.15 511.59 116.14 511.58 116.13 511.57 116.13 511.56 116.12 511.55 116.11 511.55 116.11 511.54 116.1 511.53 116.09 511.52 116.08 511.51 116.07 511.51 116.06 511.5 116.05 511.49 116.05 511.49 116.04 511.48 116.03 511.47 116.02 511.46 116.01 511.45 116 511.45 115.99 511.44 115.98 511.43 115.97 511.43 115.96 511.42 115.95 511.42 115.94 511.41 115.94 511.41 115.93 511.4 115.91 511.39 115.9 511.39 115.89 511.39 115.88 511.38 115.88 511.38 115.87 511.38 115.85 511.37 115.85 511.37 115.84 511.37 115.83 511.37 115.82 511.37 115.81 511.37 115.79 511.37 115.78 511.37 115.78 511.37 115.77 511.37 115.75 511.37 115.74 511.37 115.73 511.37 115.72 511.38 115.7 511.38 115.69 511.38 115.68 511.38 115.67 511.39 115.66 511.39 115.65 511.39 115.64 511.39 115.63 511.4 115.62 511.4 115.61 511.41 115.6 511.41 115.59 511.41 115.58 511.42 115.56 511.42 115.56 511.42 115.55 511.42 115.54 511.42 115.52 511.43 115.51 511.43 115.5 511.43 115.48 511.43 115.48 511.43 115.46 511.43 115.45 511.43 115.44 511.44 115.43 511.44 115.42 511.44 115.41 511.44 115.4 511.44 115.39 511.44 115.37 511.44 115.35 511.44 115.34 511.44 115.33 511.44 115.32 511.44 115.31 511.44 115.3 511.44 115.29 511.43 115.28 511.43 115.27 511.43 115.26 511.43 115.25 511.42 115.24 511.42 115.23 511.42 115.22 511.41 115.21 511.41 115.2 511.4 115.19 511.4 115.18 511.39 115.17 511.39 115.16 511.38 115.16 511.38 115.15 511.37 115.14 511.36 115.14 511.35 115.14 511.34 115.14 511.33 115.14 511.32 115.15 511.31 115.15 511.31 115.16 511.3 115.17 511.29 115.18 511.28 115.19 511.28 115.19 511.27 115.2 511.26 115.21 511.26 115.22 511.25 115.24 511.25 115.25 511.24 115.26 511.24 115.27 511.24 115.28 511.24 115.29 511.23 115.3 511.23 115.32 511.23 115.33 511.22 115.34 511.22 115.35 511.21 115.36 511.2 115.36 511.18 115.36 511.16 115.36 511.15 115.36 511.15 115.35 511.14 115.34 511.13 115.33 511.13 115.32 511.13 115.31 511.13 115.3 511.12 115.29 511.12 115.28 511.12 115.27 511.12 115.26 511.12 115.25 511.12 115.24 511.12 115.22 511.12 115.21 511.12 115.2 511.12 115.19 511.12 115.18 511.12 115.16 511.13 115.15 511.13 115.15 511.13 115.14 511.14 115.13 511.14 115.12 511.15 115.11 511.15 115.1 511.15 115.09 511.16 115.08 511.16 115.07 511.16 115.06 511.17 115.05 511.17 115.03 511.17 115.02 511.17 115.01 511.17 115 511.17 114.99 511.17 114.98 511.17 114.97 511.16 114.96 511.16 114.95 511.16 114.94 511.16 114.93 511.16 114.92 511.15 114.91 511.15 114.9 511.14 114.89 511.14 114.88 511.14 114.87 511.13 114.86 511.12 114.85 511.12 114.84 511.11 114.83 511.1 114.82 511.1 114.82 511.09 114.81 511.08 114.8 511.07 114.8 511.06 114.79 511.05 114.79 511.04 114.79 511.02 114.79 511.02 114.79 511.01 114.78 511 114.78 510.99 114.77 510.98 114.77 510.97 114.76 510.96 114.75 510.96 114.74 510.95 114.73 510.94 114.73 510.93 114.73 510.92 114.73 510.91 114.73 510.9 114.73 510.89 114.74 510.88 114.74 510.87 114.74 510.86 114.75 510.85 114.75 510.84 114.75 510.83 114.76 510.82 114.76 510.81 114.76 510.8 114.77 510.79 114.76 510.78 114.76 510.77 114.76 510.76 114.75 510.75 114.75 510.74 114.74 510.73 114.74 510.72 114.73 510.71 114.72 510.71 114.72 510.7 114.71 510.7 114.7 510.69 114.69 510.68 114.69 510.68 114.68 510.67 114.67 510.67 114.66 510.66 114.65 510.66 114.64 510.65 114.63 510.65 114.62 510.64 114.61 510.63 114.6 510.62 114.58 510.62 114.57 510.61 114.56 510.6 114.55 510.6 114.54 510.59 114.53 510.59 114.52 510.58 114.51 510.58 114.5 510.57 114.49 510.56 114.49 510.56 114.48 510.55 114.47 510.54 114.46 510.53 114.45 510.53 114.44 510.52 114.43 510.52 114.42 510.51 114.41 510.51 114.41 510.5 114.4 510.49 114.39 510.48 114.39 510.47 114.38 510.46 114.38 510.45 114.37 510.44 114.37 510.43 114.36 510.42 114.36 510.41 114.36 510.4 114.36 510.39 114.36 510.38 114.36 510.37 114.37 510.36 114.37 510.35 114.37 510.34 114.38 510.33 114.39 510.32 114.39 510.31 114.4 510.31 114.41 510.3 114.41 510.29 114.42 510.28 114.43 510.27 114.45 510.26 114.46 510.26 114.46 510.25 114.47 510.24 114.48 510.23 114.49 510.22 114.5 510.21 114.51 510.2 114.51 510.2 114.52 510.19 114.53 510.18 114.53 510.18 114.54 510.15 114.57 510.14 114.58 510.13 114.59 510.13 114.6 510.12 114.61 510.11 114.62 510.1 114.63 510.1 114.64 510.09 114.65 510.09 114.66 510.08 114.67 510.08 114.67 510.07 114.69 510.07 114.7 510.07 114.71 510.07 114.72 510.07 114.73 510.06 114.75 510.06 114.76 510.06 114.8 510.05 114.82 510.05 114.83 510.05 114.84 510.05 114.85 510.05 114.87 510.05 114.88 510.05 114.89 510.04 114.91 510.04 114.92 510.03 114.93 510.03 114.94 510.02 114.95 510.01 114.95 510.01 114.96 509.99 114.98 509.99 114.99 509.98 114.99 509.96 115 509.95 115 509.94 115 509.93 115 509.92 115 509.91 114.99 509.9 114.99 509.89 114.98 509.88 114.98 509.87 114.97 509.86 114.97 509.86 114.96 509.85 114.95 509.84 114.95 509.83 114.94 509.82 114.92 509.81 114.91 509.81 114.9 509.8 114.89 509.8 114.88 509.79 114.86 509.78 114.85 509.78 114.85 509.77 114.83 509.76 114.82 509.76 114.81 509.75 114.8 509.74 114.79 509.74 114.78 509.73 114.77 509.73 114.76 509.72 114.75 509.71 114.74 509.7 114.73 509.69 114.72 509.68 114.71 509.67 114.71 509.67 114.7 509.66 114.69 509.65 114.69 509.64 114.68 509.63 114.68 509.62 114.67 509.6 114.67 509.59 114.67 509.58 114.66 509.57 114.66 509.56 114.66 509.55 114.67 509.54 114.67 509.53 114.67 509.53 114.68 509.52 114.69 509.52 114.7 509.51 114.72 509.5 114.73 509.5 114.74 509.5 114.75 509.5 114.76 509.5 114.77 509.5 114.78 509.5 114.79 509.5 114.8 509.5 114.81 509.5 114.82 509.51 114.84 509.51 114.85 509.51 114.87 509.52 114.88 509.52 114.89 509.52 114.91 509.53 114.93 509.53 114.94 509.53 114.95 509.53 114.96 509.53 114.97 509.53 114.98 509.53 114.99 509.53 115 509.53 115.01 509.53 115.02 509.53 115.03 509.53 115.05 509.53 115.06 509.52 115.07 509.52 115.08 509.52 115.09 509.52 115.1 509.51 115.11 509.5 115.13 509.5 115.14 509.49 115.15 509.49 115.16 509.48 115.17 509.47 115.18 509.47 115.18 509.46 115.19 509.44 115.2 509.43 115.21 509.42 115.22 509.41 115.23 509.4 115.24 509.39 115.24 509.38 115.25 509.37 115.25 509.36 115.26 509.35 115.26 509.34 115.27 509.33 115.27 509.32 115.28 509.3 115.28 509.29 115.28 509.28 115.28 509.27 115.29 509.26 115.29 509.25 115.29 509.24 115.31 509.23 115.31 509.22 115.33 509.22 115.34 509.21 115.35 509.21 115.36 509.2 115.37 509.18 115.37 509.17 115.36 509.16 115.36 509.14 115.35 509.12 115.34 509.11 115.34 509.1 115.33 509.09 115.33 509.09 115.33 509.08 115.33 509.07 115.34 509.06 115.34 509.05 115.34 509.04 115.35 509.03 115.35 509.02 115.36 509.02 115.37 509.01 115.38 509 115.39 509 115.4 509 115.41 509 115.42 509 115.43 509 115.45 509.01 115.46 509.01 115.47 509.01 115.48 509.01 115.49 509.02 115.5 509.02 115.51 509.03 115.52 509.03 115.53 509.04 115.54 509.05 115.55 509.05 115.56 509.07 115.58 509.07 115.58 509.08 115.59 509.09 115.6 509.09 115.61 509.1 115.62 509.11 115.64 509.12 115.65 509.12 115.65 509.13 115.66 509.14 115.67 509.14 115.68 509.15 115.69 509.15 115.7 509.16 115.71 509.16 115.72 509.17 115.73 509.17 115.74 509.18 115.75 509.18 115.76 509.18 115.77 509.18 115.78 509.19 115.79 509.18 115.81 509.18 115.82 509.18 115.83 509.18 115.84 509.18 115.85 509.18 115.86 509.18 115.87 509.18 115.88 509.18 115.9 509.18 115.91 509.17 115.92 509.17 115.93 509.17 115.94 509.17 115.95 509.17 115.96 509.18 115.97 509.18 115.98 509.18 115.99 509.18 116 509.18 116.02 509.19 116.03 509.2 116.04 509.21 116.05 509.21 116.05 509.22 116.06 509.22 116.07 509.22 116.08 509.23 116.09 509.23 116.1 509.23 116.11 509.23 116.12 509.23 116.13 509.23 116.14 509.22 116.15 509.22 116.16 509.22 116.17 509.21 116.18 509.21 116.18 509.2 116.19 509.19 116.2 509.18 116.21 509.18 116.21 509.17 116.22 509.16 116.22 509.15 116.23 509.14 116.23 509.12 116.23 509.11 116.23 509.1 116.23 509.09 116.22 509.08 116.22 509.06 116.22 509.05 116.22 509.03 116.21 509.02 116.21 509.01 116.21 509 116.21 508.98 116.21 508.97 116.21 508.96 116.21 508.95 116.22 508.94 116.22 508.93 116.22 508.92 116.23 508.92 116.24 508.91 116.24 508.9 116.25 508.9 116.26 508.89 116.27 508.89 116.29 508.88 116.3 508.88 116.31 508.88 116.32 508.87 116.33 508.87 116.34 508.87 116.35 508.87 116.36 508.87 116.37 508.87 116.38 508.87 116.39 508.87 116.4 508.88 116.41 508.88 116.42 508.89 116.43 508.9 116.43 508.91 116.44 508.92 116.44 508.93 116.44 508.94 116.44 508.95 116.44 508.96 116.44 508.97 116.44 508.99 116.44 509 116.44 509.01 116.44 509.02 116.44 509.05 116.43 509.05 116.43 509.06 116.43 509.08 116.43 509.1 116.42 509.11 116.42 509.12 116.42 509.13 116.42 509.14 116.42 509.15 116.41 509.16 116.42 509.17 116.42 509.18 116.42 509.19 116.43 509.2 116.43 509.21 116.44 509.22 116.45 509.23 116.46 509.23 116.47 509.24 116.47 509.25 116.48 509.26 116.49 509.27 116.49 509.29 116.5 509.29 116.51 509.3 116.52 509.31 116.53 509.32 116.54 509.32 116.55 509.32 116.56 509.32 116.57 509.32 116.58 509.31 116.6 509.3 116.61 509.29 116.62 509.29 116.63 509.28 116.64 509.27 116.65 509.27 116.66 509.26 116.66 509.25 116.67 509.24 116.67 509.23 116.68 509.22 116.68 509.22 116.69 509.21 116.7 509.2 116.7 509.19 116.71 509.18 116.71 509.17 116.71 509.16 116.72 509.15 116.72 509.13 116.73 509.12 116.74 509.11 116.74 509.1 116.74 509.09 116.75 509.08 116.75 509.06 116.76 509.04 116.77 509.02 116.77 509 116.78 508.99 116.78 508.98 116.79 508.96 116.79 508.94 116.8 508.93 116.8 508.91 116.81 508.89 116.81 508.88 116.82 508.87 116.82 508.84 116.83 508.83 116.83 508.82 116.84 508.8 116.84 508.79 116.85 508.78 116.85 508.77 116.86 508.76 116.86 508.75 116.86 508.74 116.86 508.73 116.87 508.72 116.87 508.71 116.87 508.7 116.87 508.68 116.87 508.67 116.87 508.66 116.87 508.65 116.87 508.64 116.87 508.63 116.86 508.62 116.86 508.61 116.85 508.61 116.84 508.61 116.83 508.6 116.82 508.6 116.81 508.59 116.8 508.58 116.79 508.58 116.78 508.57 116.77 508.56 116.77 508.55 116.76 508.54 116.76 508.52 116.76 508.51 116.76 508.5 116.77 508.49 116.77 508.48 116.78 508.47 116.79 508.46 116.79 508.46 116.8 508.45 116.81 508.44 116.83 508.43 116.83 508.4 116.86 508.38 116.88 508.38 116.89 508.37 116.9 508.36 116.9 508.35 116.91 508.34 116.92 508.33 116.92 508.32 116.93 508.31 116.93 508.3 116.94 508.29 116.94 508.29 116.95 508.28 116.95 508.27 116.95 508.25 116.96 508.24 116.96 508.23 116.96 508.22 116.97 508.21 116.97 508.2 116.96 508.19 116.96 508.18 116.96 508.17 116.95 508.16 116.94 508.15 116.93 508.15 116.92 508.14 116.92 508.14 116.91 508.13 116.9 508.13 116.89 508.12 116.88 508.12 116.87 508.12 116.86 508.11 116.85 508.11 116.84 508.11 116.82 508.11 116.81 508.1 116.8 508.1 116.79 508.09 116.78 508.09 116.77 508.08 116.76 508.07 116.74 508.07 116.74 508.06 116.73 508.04 116.73 508.03 116.73 508.02 116.73 508.01 116.73 508 116.74 507.99 116.74 507.98 116.75 507.97 116.76 507.97 116.77 507.96 116.79 507.96 116.8 507.96 116.81 507.96 116.82 507.96 116.84 507.95 116.85 507.95 116.86 507.94 116.86 507.93 116.87 507.92 116.88 507.91 116.88 507.9 116.89 507.89 116.89 507.88 116.89 507.87 116.89 507.86 116.9 507.85 116.9 507.84 116.9 507.83 116.89 507.82 116.89 507.81 116.89 507.8 116.89 507.79 116.89 507.78 116.88 507.77 116.88 507.76 116.88 507.75 116.87 507.74 116.87 507.73 116.86 507.72 116.86 507.71 116.85 507.7 116.84 507.69 116.84 507.68 116.83 507.67 116.83 507.66 116.82 507.65 116.82 507.64 116.82 507.63 116.82 507.62 116.82 507.61 116.82 507.6 116.83 507.59 116.83 507.58 116.84 507.57 116.84 507.56 116.85 507.55 116.85 507.54 116.85 507.53 116.85 507.52 116.85 507.51 116.85 507.5 116.85 507.49 116.84 507.48 116.84 507.47 116.83 507.46 116.82 507.45 116.81 507.45 116.8 507.44 116.79 507.44 116.79 507.43 116.78 507.43 116.77 507.43 116.76 507.42 116.75 507.42 116.74 507.42 116.73 507.42 116.72 507.42 116.71 507.42 116.7 507.42 116.69 507.42 116.68 507.43 116.66 507.43 116.66 507.44 116.64 507.44 116.64 507.45 116.63 507.46 116.62 507.47 116.61 507.46 116.6 507.45 116.6 507.43 116.6 507.42 116.6 507.41 116.61 507.4 116.61 507.39 116.62 507.37 116.63 507.37 116.64 507.36 116.65 507.35 116.66 507.35 116.67 507.34 116.68 507.33 116.68 507.33 116.69 507.33 116.7 507.32 116.71 507.32 116.72 507.31 116.73 507.31 116.74 507.31 116.76 507.3 116.76 507.3 116.77 507.3 116.79 507.29 116.8 507.29 116.8 507.29 116.81 507.29 116.83 507.29 116.84 507.29 116.85 507.28 116.87 507.28 116.88 507.28 116.89 507.28 116.9 507.27 116.91 507.27 116.92 507.27 116.93 507.27 116.94 507.27 116.96 507.28 116.96 507.28 116.97 507.29 116.99 507.3 116.99 507.31 117 507.32 117.01 507.33 117.01 507.34 117.02 507.35 117.02 507.36 117.03 507.36 117.04 507.37 117.05 507.37 117.06 507.37 117.07 507.36 117.08 507.36 117.09 507.35 117.1 507.35 117.11 507.34 117.12 507.34 117.13 507.32 117.14 507.31 117.14 507.3 117.14 507.29 117.14 507.28 117.14 507.27 117.14 507.26 117.14 507.25 117.14 507.24 117.14 507.23 117.14 507.22 117.13 507.21 117.13 507.2 117.12 507.18 117.11 507.18 117.11 507.17 117.1 507.16 117.1 507.15 117.09 507.14 117.09 507.13 117.07 507.12 117.07 507.11 117.06 507.1 117.06 507.09 117.05 507.08 117.04 507.07 117.04 507.06 117.04 507.05 117.03 507.04 117.03 507.03 117.02 507.02 117.02 507.01 117.02 506.99 117.02 506.98 117.02 506.97 117.02 506.96 117.02 506.95 117.02 506.94 117.03 506.93 117.03 506.92 117.04 506.91 117.05 506.9 117.06 506.89 117.06 506.89 117.07 506.88 117.08 506.87 117.09 506.86 117.11 506.84 117.13 506.84 117.13 506.83 117.14 506.82 117.15 506.82 117.16 506.81 117.16 506.8 117.17 506.8 117.18 506.79 117.19 506.78 117.19 506.77 117.2 506.76 117.2 506.75 117.2 506.74 117.2 506.73 117.2 506.71 117.2 506.7 117.2 506.69 117.2 506.68 117.2 506.67 117.2 506.66 117.2 506.65 117.19 506.65 117.19 506.64 117.18 506.63 117.17 506.62 117.16 506.62 117.16 506.62 117.14 506.62 117.13 506.61 117.12 506.61 117.11 506.62 117.1 506.62 117.09 506.62 117.08 506.62 117.07 506.63 117.07 506.63 117.06 506.63 117.05 506.64 117.04 506.64 117.03 506.65 117.02 506.65 117.01 506.65 117 506.66 116.98 506.67 116.97 506.67 116.96 506.67 116.95 506.68 116.94 506.68 116.93 506.68 116.92 506.68 116.91 506.68 116.9 506.68 116.89 506.68 116.88 506.67 116.87 506.66 116.86 506.65 116.86 506.64 116.85 506.63 116.85 506.61 116.85 506.6 116.85 506.59 116.86 506.58 116.86 506.57 116.86 506.56 116.86 506.55 116.87 506.54 116.87 506.53 116.87 506.52 116.88 506.51 116.89 506.5 116.89 506.49 116.89 506.49 116.9 506.48 116.9 506.47 116.91 506.46 116.92 506.45 116.92 506.44 116.93 506.43 116.94 506.42 116.95 506.41 116.95 506.41 116.96 506.4 116.97 506.39 116.98 506.38 116.99 506.38 117 506.37 117.01 506.37 117.02 506.36 117.03 506.36 117.04 506.36 117.05 506.36 117.06 506.35 117.07 506.35 117.08 506.35 117.09 506.35 117.1 506.35 117.11 506.34 117.12 506.34 117.13 506.34 117.14 506.34 117.16 506.34 117.18 506.33 117.19 506.33 117.2 506.33 117.21 506.33 117.22 506.33 117.23 506.33 117.24 506.32 117.25 506.32 117.26 506.32 117.27 506.32 117.29 506.31 117.3 506.31 117.31 506.31 117.32 506.31 117.33 506.3 117.34 506.3 117.35 506.3 117.36 506.29 117.36 506.29 117.37 506.28 117.38 506.28 117.39 506.27 117.4 506.27 117.41 506.26 117.42 506.25 117.43 506.25 117.44 506.24 117.44 506.22 117.46 506.2 117.47 506.19 117.47 506.18 117.47 506.17 117.48 506.15 117.48 506.14 117.48 506.13 117.47 506.12 117.47 506.11 117.46 506.11 117.46 506.1 117.45 506.09 117.44 506.08 117.44 506.07 117.43 506.07 117.42 506.06 117.41 506.05 117.41 506.04 117.4 506.04 117.39 506.03 117.38 506.03 117.37 506.02 117.36 506.02 117.36 506.01 117.35 506.01 117.34 506 117.33 505.99 117.31 505.99 117.3 505.98 117.29 505.98 117.29 505.98 117.27 505.97 117.27 505.97 117.26 505.96 117.24 505.96 117.24 505.96 117.23 505.95 117.21 505.95 117.2 505.94 117.19 505.94 117.18 505.94 117.17 505.93 117.16 505.93 117.15 505.93 117.14 505.93 117.13 505.93 117.12 505.93 117.11 505.93 117.1 505.93 117.09 505.93 117.08 505.94 117.07 505.94 117.06 505.95 117.06 505.96 117.05 505.97 117.04 505.98 117.03 505.98 117.02 505.99 117.01 506 117 506 116.99 506 116.98 506.01 116.97 506 116.96 506 116.95 506 116.94 505.99 116.93 505.99 116.92 505.98 116.91 505.98 116.9 505.97 116.9 505.96 116.89 505.95 116.89 505.94 116.88 505.93 116.87 505.91 116.86 505.91 116.86 505.9 116.85 505.89 116.85 505.88 116.84 505.87 116.83 505.86 116.83 505.85 116.82 505.85 116.81 505.84 116.8 505.83 116.8 505.82 116.79 505.82 116.78 505.81 116.77 505.8 116.76 505.8 116.76 505.79 116.75 505.79 116.74 505.78 116.73 505.77 116.71 505.77 116.71 505.76 116.7 505.76 116.69 505.75 116.68 505.75 116.67 505.75 116.66 505.74 116.65 505.74 116.64 505.73 116.62 505.73 116.61 505.73 116.6 505.72 116.59 505.72 116.58 505.72 116.57 505.71 116.55 505.7 116.52 505.69 116.51 505.68 116.48 505.67 116.46 505.67 116.44 505.66 116.43 505.65 116.43 505.63 116.41 505.61 116.4 505.57 116.39 505.52 116.36 505.52 116.34 505.53 116.31 505.54 116.28 505.55 116.25 505.58 116.17 505.59 116.14 505.6 116.11 505.61 116.08 505.63 116.01 505.64 115.98 505.64 115.96 505.65 115.94 505.66 115.91 505.67 115.88 505.7 115.79 505.71 115.76 505.72 115.72 505.73 115.7 505.74 115.68 505.74 115.66 505.75 115.63 505.76 115.62 505.76 115.61 505.76 115.6 505.77 115.59 505.77 115.58 505.77 115.57 505.78 115.56 505.78 115.55 505.78 115.54 505.78 115.53 505.78 115.52 505.78 115.51 505.78 115.5 505.79 115.49 505.79 115.48 505.79 115.47 505.79 115.46 505.79 115.45 505.79 115.44 505.79 115.42 505.79 115.41 505.79 115.4 505.79 115.39 505.79 115.38 505.78 115.37 505.78 115.36 505.78 115.35 505.78 115.34 505.78 115.33 505.78 115.31 505.77 115.29 505.76 115.2 505.76 115.19 505.76 115.18 505.76 115.17 505.75 115.16 505.75 115.15 505.75 115.14 505.74 115.13 505.74 115.12 505.74 115.11 505.73 115.1 505.73 115.09 505.72 115.08 505.71 115.07 505.71 115.06 505.7 115.05 505.7 115.04 505.69 115.03 505.68 115.02 505.67 115.02 505.67 115.01 505.66 115 505.65 114.99 505.64 114.99 505.63 114.98 505.62 114.97 505.61 114.97 505.61 114.96 505.6 114.96 505.58 114.95 505.57 114.94 505.56 114.94 505.55 114.93 505.54 114.93 505.53 114.92 505.52 114.92 505.51 114.92 505.5 114.92 505.49 114.92 505.48 114.92 505.47 114.92 505.46 114.93 505.45 114.93 505.44 114.93 505.43 114.94 505.42 114.94 505.41 114.95 505.4 114.95 505.36 114.97 505.34 114.99 505.33 114.99 505.33 115 505.32 115 505.31 115.01 505.3 115.01 505.29 115.02 505.28 115.03 505.27 115.03 505.25 115.05 505.24 115.06 505.23 115.07 505.23 115.07 505.22 115.08 505.21 115.08 505.2 115.09 505.19 115.09 505.18 115.1 505.17 115.1 505.16 115.11 505.15 115.11 505.14 115.12 505.13 115.12 505.12 115.12 505.11 115.12 505.1 115.12 505.07 115.12 505.06 115.12 505.05 115.12 505.04 115.12 505.03 115.13 505 115.13 504.96 115.13 504.93 115.13 504.82 115.13 504.75 115.12 504.69 115.11 504.63 115.09 504.57 115.07 504.5 115.03 504.42 114.99 504.36 114.96 504.3 114.92 504.25 114.89 504.21 114.86 504.15 114.81 504.09 114.77 504.04 114.72 504 114.68 503.95 114.63 503.9 114.59 503.85 114.53 503.8 114.49 503.77 114.44 503.71 114.38 503.66 114.33 503.61 114.27 503.57 114.22 503.54 114.19 503.51 114.13 503.5 114.09 503.48 114.04 503.46 113.99 503.45 113.94 503.44 113.89 503.43 113.85 503.43 113.79 503.44 113.74 503.45 113.68 503.46 113.63 503.48 113.57 503.49 113.54 503.51 113.49 503.57 113.39 503.62 113.35 503.66 113.3 503.7 113.25 503.74 113.2 503.78 113.15 503.82 113.1 503.86 113.05 503.9 112.99 503.97 112.91 504.01 112.86 504.05 112.8 504.08 112.75 504.11 112.7 504.14 112.64 504.16 112.61 504.17 112.58 504.19 112.52 504.24 112.4 504.26 112.34 504.28 112.28 504.31 112.23 504.33 112.19 504.34 112.15 504.35 112.11 504.36 112.04 504.37 112 504.38 111.94 504.38 111.88 504.38 111.85 504.37 111.79 504.34 111.74 504.3 111.68 504.26 111.66 504.21 111.61 504.16 111.58 504.11 111.55 504.05 111.53 503.94 111.49 503.88 111.47 503.81 111.45 503.73 111.44 503.68 111.43 503.59 111.41 503.5 111.38 503.43 111.37 503.38 111.35 503.35 111.35 503.31 111.32 503.27 111.27 503.22 111.22 503.18 111.14 503.15 111.1 503.14 111.07 503.04 110.92 502.99 110.83 502.94 110.74 502.9 110.65 502.86 110.56 502.84 110.49 502.83 110.46 502.81 110.41 502.79 110.34 502.77 110.29 502.76 110.25 502.75 110.18 502.74 110.13 502.73 110.07 502.72 110.01 502.7 109.92 502.69 109.84 502.67 109.73 502.65 109.64 502.63 109.56 502.61 109.47 502.57 109.3 502.54 109.15 502.54 109 502.53 108.85 502.51 108.6 502.5 108.46 502.49 108.31 502.49 108.17 502.47 108.01 502.46 107.8 502.45 107.66 502.44 107.52 502.42 107.39 502.39 107.24 502.35 107.09 502.31 106.97 502.29 106.93 502.26 106.91 502.23 106.9 502.17 106.89 502.09 106.9 501.91 106.91 501.56 106.93 501.45 106.94 501.35 106.94 501.25 106.95 501.21 106.95 501.03 106.97 500.92 106.97 500.84 106.98 500.76 106.98 500.64 107 500.62 107 500.57 107 500.49 107.01 500.41 107.02 500.36 107.03 500.26 107.06 500.2 107.08 500.14 107.1 500.1 107.12 500.05 107.14 500.01 107.18 499.98 107.21 499.95 107.25 499.92 107.29 499.91 107.32 499.91 107.35 499.9 107.38 499.9 107.41 499.91 107.43 499.93 107.47 499.94 107.5 499.96 107.52 499.99 107.55 500.02 107.59 500.07 107.62 500.11 107.65 500.17 107.68 500.22 107.7 500.25 107.71 500.29 107.73 500.34 107.76 500.39 107.79 500.44 107.82 500.49 107.86 500.55 107.9 500.61 107.94 500.67 107.98 500.73 108.02 500.79 108.07 500.88 108.14 500.94 108.2 501.03 108.28 501.11 108.36 501.16 108.41 501.19 108.44 501.19 108.46 501.19 108.47 501.19 108.49 501.18 108.52 501.14 108.58 501.08 108.69 501.04 108.76 500.99 108.83 500.94 108.9 500.91 108.95 500.87 108.99 500.81 109.07 500.77 109.11 500.68 109.18 500.57 109.27 500.47 109.32 500.37 109.36 500.27 109.39 500.15 109.42 500.03 109.44 499.93 109.44 499.76 109.43 499.61 109.43 499.49 109.43 499.35 109.43 499.15 109.44 499.03 109.44 499.02 109.44 498.96 109.44 498.92 109.44 498.88 109.44 498.85 109.44 498.81 109.43 498.78 109.43 498.75 109.43 498.72 109.43 498.66 109.43 498.63 109.43 498.61 109.43 498.59 109.42 498.56 109.42 498.54 109.42 498.52 109.42 498.5 109.41 498.49 109.41 498.48 109.41 498.47 109.41 498.45 109.41 498.43 109.4 498.41 109.4 498.39 109.39 498.38 109.39 498.37 109.39 498.36 109.39 498.35 109.38 498.34 109.38 498.33 109.38 498.32 109.37 498.31 109.37 498.3 109.37 498.29 109.36 498.28 109.36 498.27 109.36 498.26 109.35 498.24 109.35 498.23 109.34 498.22 109.34 498.21 109.34 498.2 109.33 498.2 109.33 498.19 109.32 498.18 109.32 498.17 109.31 498.15 109.3 498.13 109.29 498.1 109.28 498.06 109.25 498.03 109.24 498.02 109.23 498 109.22 497.98 109.21 497.95 109.19 497.91 109.16 497.89 109.15 497.87 109.14 497.85 109.13 497.83 109.12 497.82 109.12 497.82 109.11 497.8 109.1 497.77 109.09 497.75 109.08 497.73 109.07 497.71 109.06 497.69 109.05 497.67 109.05 497.65 109.04 497.64 109.03 497.62 109.02 497.6 109.01 497.58 109.01 497.56 109 497.54 108.99 497.53 108.99 497.52 108.99 497.51 108.98 497.5 108.98 497.48 108.98 497.46 108.97 497.44 108.96 497.41 108.96 497.36 108.94 497.34 108.94 497.32 108.94 497.29 108.93 497.24 108.92 497.14 108.9 497.08 108.89 496.94 108.86 496.88 108.84 496.76 108.82 496.69 108.81 496.64 108.8 496.59 108.79 496.55 108.78 496.51 108.77 496.46 108.77 496.37 108.75 496.32 108.74 496.32 108.74 496.31 108.74 496.3 108.74 496.26 108.74 496.25 108.74 496.24 108.73 496.23 108.73 496.22 108.73 496.21 108.73 496.2 108.72 496.19 108.72 496.18 108.72 496.17 108.71 496.16 108.71 496.15 108.7 496.14 108.7 496.13 108.69 496.12 108.69 496.12 108.68 496.11 108.67 496.1 108.67 496.09 108.66 496.09 108.65 496.08 108.64 496.08 108.63 496.07 108.62 496.07 108.62 496.06 108.61 496.06 108.6 496.05 108.59 496.05 108.58 496.04 108.57 496.04 108.56 496.04 108.55 496.03 108.54 496.03 108.53 496.03 108.51 496.03 108.5 496.03 108.49 496.03 108.48 496.02 108.47 496.02 108.46 496.02 108.45 496.03 108.42 496.03 108.38 496.03 108.36 496.03 108.34 496.03 108.31 496.03 108.27 496.03 108.24 496.03 108.23 496.04 108.21 496.04 108.18 496.04 108.15 496.04 108.14 496.04 108.13 496.05 108.09 496.05 108.08 496.05 108.06 496.05 108.05 496.05 108.03 496.05 108.01 496.06 107.99 496.06 107.97 496.06 107.93 496.06 107.91 496.06 107.89 496.07 107.86 496.07 107.85 496.07 107.83 496.07 107.81 496.07 107.78 496.07 107.76 496.07 107.74 496.07 107.72 496.08 107.69 496.08 107.68 496.08 107.66 496.08 107.65 496.08 107.63 496.08 107.6 496.08 107.58 496.08 107.57 496.08 107.55 496.08 107.53 496.08 107.51 496.08 107.5 496.08 107.49 496.08 107.47 496.08 107.44 496.08 107.42 496.08 107.39 496.08 107.36 496.07 107.34 496.07 107.32 496.07 107.3 496.07 107.29 496.07 107.27 496.07 107.26 496.07 107.25 496.06 107.23 496.06 107.21 496.06 107.19 496.06 107.18 496.05 107.17 496.05 107.16 496.05 107.15 496.05 107.14 496.05 107.13 496.04 107.12 496.04 107.1 496.04 107.09 496.03 107.08 496.03 107.07 496.03 107.06 496.03 107.05 496.02 107.04 496.02 107.03 496.01 107.02 496.01 107.01 496.01 107 496 106.99 496 106.98 495.99 106.97 495.99 106.96 495.98 106.95 495.98 106.94 495.97 106.93 495.95 106.9 495.95 106.89 495.94 106.88 495.94 106.87 495.93 106.86 495.92 106.83 495.91 106.81 495.9 106.8 495.9 106.79 495.89 106.78 495.89 106.77 495.89 106.76 495.88 106.75 495.88 106.74 495.87 106.72 495.87 106.71 495.87 106.7 495.86 106.69 495.86 106.68 495.86 106.67 495.85 106.66 495.85 106.65 495.85 106.64 495.85 106.63 495.85 106.61 495.85 106.6 495.85 106.59 495.85 106.58 495.85 106.57 495.85 106.56 495.85 106.55 495.85 106.54 495.85 106.53 495.86 106.52 495.86 106.51 495.86 106.5 495.87 106.48 495.87 106.47 495.87 106.47 495.88 106.45 495.88 106.44 495.88 106.44 495.89 106.43 495.89 106.42 495.9 106.41 495.9 106.4 495.91 106.39 495.91 106.38 495.92 106.37 495.92 106.36 495.93 106.35 495.93 106.35 495.94 106.34 495.95 106.33 495.95 106.32 495.96 106.31 495.97 106.3 495.97 106.3 495.98 106.29 495.99 106.28 496.01 106.26 496.02 106.25 496.03 106.24 496.03 106.24 496.04 106.23 496.06 106.21 496.06 106.2 496.07 106.19 496.08 106.18 496.08 106.17 496.09 106.16 496.09 106.15 496.1 106.15 496.1 106.14 496.11 106.13 496.11 106.12 496.12 106.11 496.12 106.1 496.12 106.09 496.13 106.08 496.13 106.07 496.13 106.06 496.14 106.05 496.14 106.04 496.14 106.03 496.14 106.02 496.15 106.01 496.15 106 496.15 105.99 496.15 105.98 496.15 105.97 496.15 105.96 496.16 105.94 496.16 105.88 496.16 105.86 496.17 105.84 496.17 105.82 496.17 105.81 496.17 105.8 496.17 105.79 496.17 105.78 496.17 105.76 496.17 105.76 496.17 105.75 496.17 105.74 496.17 105.72 496.17 105.7 496.17 105.68 496.16 105.66 496.16 105.63 496.16 105.57 496.16 105.55 496.15 105.51 496.15 105.47 496.14 105.41 496.14 105.38 496.14 105.35 496.13 105.32 496.13 105.3 496.13 105.27 496.13 105.24 496.13 105.2 496.13 105.17 496.13 105.14 496.12 105.11 496.12 105.08 496.12 105.06 496.12 105.03 496.13 105.01 496.13 104.99 496.13 104.97 496.13 104.92 496.13 104.9 496.13 104.88 496.13 104.86 496.14 104.85 496.14 104.84 496.14 104.83 496.14 104.82 496.14 104.8 496.14 104.79 496.14 104.78 496.15 104.77 496.15 104.76 496.15 104.75 496.15 104.74 496.15 104.73 496.16 104.72 496.16 104.7 496.17 104.68 496.17 104.66 496.18 104.64 496.18 104.62 496.19 104.59 496.2 104.57 496.21 104.55 496.21 104.53 496.22 104.51 496.23 104.49 496.24 104.46 496.26 104.42 496.26 104.4 496.27 104.38 496.28 104.36 496.29 104.33 496.32 104.28 496.32 104.26 496.33 104.24 496.34 104.21 496.35 104.2 496.35 104.2 496.36 104.18 496.36 104.18 496.36 104.17 496.37 104.16 496.37 104.15 496.37 104.14 496.37 104.13 496.37 104.12 496.37 104.1 496.36 104.09 496.36 104.08 496.35 104.06 496.35 104.05 496.35 104.04 496.35 104.03 496.35 104.02 496.35 104.01 496.35 104 496.35 103.99 496.35 103.98 496.35 103.97 496.35 103.95 496.35 103.95 496.35 103.94 496.35 103.93 496.36 103.89 496.36 103.88 496.36 103.87 496.36 103.84 496.36 103.83 496.36 103.82 496.36 103.81 496.37 103.8 496.37 103.78 496.37 103.77 496.36 103.76 496.36 103.75 496.36 103.74 496.36 103.73 496.36 103.72 496.36 103.71 496.36 103.7 496.35 103.69 496.35 103.68 496.35 103.67 496.35 103.66 496.34 103.65 496.33 103.64 496.32 103.63 496.32 103.62 496.31 103.61 496.3 103.61 496.29 103.61 496.28 103.6 496.25 103.6 496.24 103.59 496.23 103.59 496.22 103.59 496.21 103.59 496.19 103.58 496.17 103.58 496.15 103.58 496.12 103.57 496.05 103.56 496.03 103.56 496.01 103.55 495.97 103.55 495.89 103.54 495.86 103.54 495.84 103.54 495.77 103.53 495.74 103.52 495.71 103.52 495.69 103.52 495.67 103.51 495.65 103.51 495.63 103.51 495.61 103.5 495.58 103.49 495.48 103.47 495.47 103.47 495.42 103.46 495.4 103.45 495.38 103.45 495.35 103.45 495.32 103.44 495.27 103.43 495.2 103.42 495.09 103.4 495.06 103.39 495.03 103.39 495.01 103.38 494.99 103.38 494.97 103.38 494.9 103.37 494.88 103.37 494.86 103.37 494.84 103.36 494.82 103.36 494.79 103.35 494.75 103.35 494.73 103.34 494.7 103.34 494.65 103.33 494.6 103.32 494.57 103.31 494.54 103.3 494.5 103.29 494.47 103.29 494.35 103.27 494.31 103.26 494.26 103.25 494.12 103.22 494.1 103.22 494.08 103.21 494.07 103.21 494.06 103.21 494.05 103.21 494.04 103.21 494.03 103.21 494.02 103.2 494.01 103.2 494 103.2 493.99 103.2 493.98 103.2 493.97 103.2 493.94 103.21 493.92 103.21 493.86 103.21 493.79 103.21 493.75 103.22 493.71 103.22 493.66 103.22 493.6 103.23 493.49 103.24 493.45 103.24 493.4 103.25 493.38 103.25 493.36 103.25 493.34 103.25 493.32 103.25 493.3 103.25 493.27 103.25 493.22 103.25 493.12 103.26 493.05 103.26 492.92 103.26 492.86 103.26 492.81 103.26 492.76 103.26 492.71 103.27 492.61 103.27 492.53 103.28 492.48 103.28 492.43 103.28 492.37 103.28 492.33 103.29 492.29 103.29 492.26 103.29 492.24 103.29 492.22 103.29 492.19 103.29 492.16 103.29 492.13 103.29 492.1 103.29 492.07 103.29 492.03 103.29 492.01 103.28 491.99 103.28 491.97 103.28 491.95 103.28 491.93 103.28 491.91 103.28 491.89 103.27 491.87 103.27 491.85 103.27 491.84 103.27 491.83 103.27 491.82 103.26 491.81 103.26 491.8 103.26 491.79 103.26 491.78 103.25 491.77 103.25 491.76 103.25 491.75 103.25 491.74 103.24 491.73 103.24 491.72 103.24 491.7 103.23 491.68 103.22 491.66 103.22 491.64 103.21 491.62 103.2 491.61 103.2 491.6 103.19 491.59 103.19 491.58 103.19 491.57 103.18 491.56 103.18 491.55 103.17 491.54 103.17 491.53 103.16 491.52 103.16 491.49 103.15 491.49 103.15 491.48 103.14 491.47 103.14 491.46 103.13 491.45 103.13 491.44 103.12 491.43 103.12 491.42 103.11 491.41 103.1 491.39 103.08 491.38 103.08 491.37 103.07 491.36 103.06 491.35 103.06 491.35 103.05 491.34 103.04 491.33 103.03 491.33 103.03 491.32 103.02 491.31 103.01 491.31 103 491.3 102.99 491.3 102.99 491.29 102.98 491.28 102.97 491.28 102.96 491.28 102.95 491.27 102.94 491.27 102.93 491.26 102.92 491.26 102.91 491.26 102.9 491.25 102.89 491.25 102.88 491.25 102.87 491.25 102.86 491.25 102.85 491.24 102.82 491.24 102.8 491.24 102.79 491.24 102.78 491.24 102.77 491.24 102.76 491.24 102.75 491.24 102.74 491.24 102.73 491.24 102.72 491.24 102.71 491.24 102.7 491.24 102.69 491.24 102.68 491.24 102.67 491.24 102.66 491.24 102.65 491.24 102.64 491.24 102.62 491.25 102.59 491.25 102.53 491.26 102.51 491.26 102.47 491.27 102.42 491.27 102.4 491.27 102.38 491.27 102.35 491.28 102.31 491.28 102.29 491.28 102.28 491.28 102.26 491.28 102.25 491.29 102.22 491.29 102.21 491.29 102.19 491.29 102.19 491.29 102.17 491.29 102.16 491.29 102.15 491.29 102.14 491.29 102.1 491.29 102.09 491.29 102.08 491.29 102.07 491.29 102.06 491.29 102.05 491.29 102.04 491.29 102.03 491.29 102.02 491.29 102.01 491.29 102 491.29 101.99 491.28 101.97 491.28 101.96 491.28 101.96 491.27 101.94 491.27 101.93 491.27 101.93 491.26 101.91 491.26 101.9 491.25 101.9 491.25 101.88 491.24 101.87 491.24 101.86 491.23 101.86 491.23 101.84 491.22 101.84 491.22 101.83 491.21 101.82 491.21 101.81 491.2 101.8 491.18 101.78 491.17 101.76 491.15 101.73 491.14 101.72 491.12 101.7 491.11 101.68 491.1 101.66 491.09 101.65 491.08 101.63 491.06 101.61 491.04 101.59 491.03 101.58 491.04 101.57 491.05 101.56 491.06 101.56 491.07 101.55 491.08 101.54 491.09 101.53 491.1 101.53 491.11 101.52 491.12 101.52 491.13 101.51 491.14 101.51 491.15 101.5 491.17 101.49 491.18 101.49 491.21 101.48 491.25 101.46 491.28 101.45 491.31 101.43 491.34 101.42 491.37 101.41 491.4 101.4 491.43 101.39 491.46 101.38 491.49 101.37 491.53 101.35 491.63 101.32 491.67 101.3 491.69 101.3 491.73 101.28 491.76 101.27 491.78 101.27 491.8 101.26 491.81 101.26 491.82 101.25 491.83 101.25 491.84 101.25 491.85 101.24 491.86 101.24 491.87 101.23 491.88 101.23 491.89 101.23 491.9 101.22 491.91 101.21 491.91 101.21 492.1 101.08 492.11 101.07 492.14 101.05 492.15 101.04 492.18 101.02 492.19 101.01 492.2 101.01 492.21 100.99 492.22 100.98 492.23 100.98 492.24 100.97 492.24 100.96 492.25 100.96 492.26 100.95 492.27 100.94 492.27 100.93 492.28 100.92 492.29 100.91 492.3 100.91 492.3 100.9 492.31 100.89 492.32 100.88 492.32 100.87 492.33 100.86 492.34 100.85 492.34 100.85 492.35 100.84 492.35 100.83 492.36 100.82 492.37 100.81 492.37 100.8 492.38 100.79 492.38 100.78 492.39 100.77 492.39 100.76 492.39 100.75 492.4 100.74 492.4 100.73 492.4 100.72 492.41 100.71 492.41 100.7 492.41 100.69 492.42 100.67 492.42 100.66 492.42 100.65 492.42 100.64 492.42 100.61 492.43 100.6 492.43 100.59 492.43 100.58 492.44 100.57 492.44 100.56 492.44 100.55 492.45 100.54 492.46 100.53 492.46 100.52 492.47 100.51 492.47 100.5 492.48 100.49 492.48 100.49 492.49 100.48 492.5 100.47 492.51 100.45 492.53 100.43 492.55 100.39 492.57 100.38 492.57 100.37 492.58 100.36 492.62 100.31 492.66 100.24 492.71 100.18 492.73 100.15 492.76 100.11 492.79 100.07 492.8 100.05 492.82 100.03 492.83 100.01 492.84 100 492.84 100 492.85 99.98 492.86 99.97 492.87 99.96 492.87 99.96 492.89 99.95 492.9 99.94 492.91 99.94 492.92 99.93 492.93 99.93 492.94 99.93 492.96 99.92 492.97 99.92 493.16 99.87 493.28 99.84 493.44 99.8 493.5 99.78 493.56 99.77 493.61 99.75 493.66 99.74 493.72 99.73 493.76 99.72 493.8 99.71 493.83 99.7 493.86 99.7 493.91 99.69 493.94 99.68 493.96 99.68 493.98 99.67 493.99 99.67 494 99.67 494.01 99.67 494.02 99.67 494.04 99.66 494.07 99.66 494.09 99.66 494.11 99.66 494.13 99.66 494.14 99.66 494.15 99.66 494.16 99.66 494.17 99.66 494.19 99.66 494.2 99.66 494.21 99.66 494.22 99.66 494.23 99.66 494.25 99.66 494.27 99.66 494.3 99.66 494.36 99.67 494.37 99.67 494.38 99.67 494.41 99.67 494.42 99.68 494.43 99.68 494.44 99.68 494.46 99.68 494.47 99.68 494.48 99.68 494.49 99.67 494.51 99.67 494.52 99.67 494.54 99.67 494.59 99.66 494.61 99.66 494.62 99.66 494.63 99.66 494.64 99.66 494.66 99.66 494.67 99.66 494.68 99.66 494.69 99.66 494.7 99.66 494.72 99.66 494.74 99.66 494.76 99.66 494.78 99.66 494.8 99.66 494.82 99.66 494.84 99.67 494.85 99.67 494.87 99.67 494.89 99.67 494.91 99.67 494.94 99.68 495.02 99.69 495.05 99.7 495.13 99.71 495.15 99.71 495.17 99.72 495.18 99.72 495.19 99.72 495.2 99.72 495.21 99.73 495.22 99.73 495.23 99.73 495.24 99.73 495.25 99.74 495.26 99.74 495.28 99.74 495.29 99.75 495.3 99.75 495.31 99.76 495.32 99.77 495.34 99.77 495.38 99.79 495.39 99.8 495.4 99.81 495.41 99.81 495.42 99.82 495.43 99.82 495.44 99.83 495.45 99.84 495.46 99.84 495.47 99.85 495.48 99.86 495.48 99.86 495.5 99.88 495.52 99.89 495.52 99.9 495.53 99.91 495.54 99.91 495.55 99.92 495.57 99.93 495.57 99.94 495.58 99.94 495.6 99.95 495.61 99.94 495.62 99.94 495.63 99.94 495.64 99.93 495.65 99.93 495.67 99.92 495.69 99.91 495.7 99.9 495.71 99.9 495.72 99.9 495.73 99.89 495.74 99.88 495.75 99.87 495.75 99.86 495.76 99.85 495.76 99.84 495.77 99.83 495.77 99.83 495.79 99.8 495.81 99.78 495.81 99.77 495.82 99.76 495.82 99.75 495.84 99.74 495.84 99.73 495.85 99.72 495.86 99.71 495.86 99.7 495.87 99.7 495.88 99.69 495.89 99.68 495.89 99.68 495.91 99.66 495.92 99.66 495.93 99.64 495.94 99.63 495.94 99.63 495.95 99.62 495.96 99.61 495.96 99.6 495.98 99.59 496 99.55 496.01 99.54 496.02 99.53 496.06 99.48 496.08 99.46 496.09 99.44 496.1 99.44 496.11 99.43 496.11 99.42 496.12 99.41 496.13 99.4 496.13 99.4 496.14 99.39 496.15 99.38 496.16 99.38 496.19 99.35 496.2 99.34 496.21 99.33 496.23 99.31 496.29 99.25 496.31 99.23 496.33 99.21 496.35 99.2 496.36 99.19 496.37 99.18 496.39 99.16 496.41 99.14 496.45 99.12 496.47 99.1 496.49 99.08 496.5 99.07 496.51 99.06 496.52 99.05 496.53 99.05 496.53 99.04 496.54 99.03 496.57 99.01 496.59 98.99 496.6 98.97 496.62 98.96 496.63 98.94 496.65 98.93 496.66 98.91 496.68 98.9 496.69 98.88 496.7 98.87 496.72 98.85 496.73 98.83 496.75 98.81 496.76 98.79 496.76 98.78 496.8 98.64 496.83 98.52 496.84 98.47 496.85 98.42 496.85 98.41 496.85 98.4 496.86 98.38 496.91 98.17 496.94 98.03 496.96 98.01 496.97 98.01 496.97 97.99 496.98 97.96 496.98 97.94 496.98 97.93 496.98 97.92 496.99 97.91 496.99 97.9 496.99 97.89 497 97.88 497 97.87 497 97.86 497.01 97.85 497.01 97.84 497.01 97.83 497.02 97.82 497.02 97.81 497.03 97.8 497.03 97.79 497.04 97.78 497.04 97.77 497.05 97.76 497.05 97.75 497.07 97.73 497.07 97.72 497.08 97.72 497.09 97.71 497.1 97.7 497.11 97.69 497.11 97.69 497.13 97.68 497.14 97.67 497.16 97.66 497.17 97.66 497.17 97.65 497.18 97.64 497.19 97.63 497.2 97.63 497.2 97.62 497.21 97.6 497.22 97.59 497.23 97.58 497.24 97.56 497.26 97.53 497.27 97.51 497.29 97.49 497.35 97.39 497.36 97.36 497.37 97.35 497.38 97.33 497.39 97.32 497.39 97.31 497.4 97.3 497.41 97.29 497.41 97.28 497.42 97.27 497.43 97.26 497.43 97.25 497.44 97.24 497.45 97.24 497.45 97.23 497.46 97.22 497.47 97.21 497.47 97.2 497.48 97.2 497.49 97.19 497.49 97.18 497.5 97.18 497.52 97.16 497.53 97.15 497.54 97.14 497.55 97.13 497.55 97.12 497.56 97.12 497.57 97.11 497.57 97.1 497.58 97.09 497.59 97.08 497.59 97.07 497.6 97.07 497.61 97.05 497.64 97.01 497.65 97 497.65 96.99 497.66 96.98 497.67 96.97 497.68 96.96 497.7 96.94 497.71 96.92 497.72 96.9 497.73 96.9 497.74 96.89 497.74 96.88 497.75 96.87 497.76 96.86 497.77 96.86 497.77 96.85 497.78 96.84 497.79 96.83 497.8 96.83 497.81 96.82 497.81 96.81 497.82 96.81 497.83 96.8 497.84 96.79 497.85 96.79 497.86 96.78 497.86 96.77 497.87 96.77 497.88 96.77 497.89 96.76 497.9 96.76 497.91 96.75 497.93 96.74 497.94 96.74 497.95 96.74 497.96 96.73 497.99 96.71 498.01 96.7 498.02 96.7 498.03 96.69 498.04 96.69 498.05 96.68 498.06 96.68 498.06 96.67 498.07 96.66 498.08 96.66 498.09 96.65 498.1 96.64 498.11 96.64 498.11 96.63 498.12 96.63 498.14 96.61 498.19 96.57 498.21 96.55 498.23 96.53 498.24 96.51 498.25 96.5 498.27 96.49 498.28 96.47 498.3 96.46 498.31 96.45 498.32 96.44 498.32 96.43 498.33 96.43 498.34 96.41 498.36 96.39 498.36 96.38 498.37 96.38 498.38 96.37 498.38 96.36 498.42 96.33 498.43 96.32 498.43 96.31 498.44 96.3 498.45 96.3 498.46 96.29 498.47 96.28 498.48 96.27 498.49 96.27 498.5 96.26 498.51 96.26 498.51 96.25 498.53 96.25 498.54 96.25 498.55 96.25 498.56 96.25 498.57 96.24 498.58 96.24 498.6 96.24 498.61 96.24 498.63 96.24 498.64 96.24 498.66 96.24 498.69 96.24 498.74 96.23 498.75 96.23 498.78 96.23 498.82 96.23 498.87 96.23 498.91 96.22 498.96 96.22 499.03 96.22 499.09 96.22 499.11 96.22 499.14 96.21 499.19 96.21 499.21 96.21 499.22 96.21 499.24 96.21 499.25 96.21 499.26 96.21 499.27 96.21 499.28 96.2 499.29 96.2 499.3 96.2 499.32 96.2 499.33 96.2 499.34 96.2 499.35 96.19 499.36 96.19 499.37 96.19 499.38 96.19 499.39 96.18 499.4 96.18 499.42 96.17 499.43 96.17 499.44 96.16 499.45 96.16 499.46 96.15 499.47 96.15 499.48 96.15 499.49 96.14 499.5 96.14 499.52 96.13 499.55 96.11 499.56 96.1 499.57 96.1 499.58 96.09 499.6 96.08 499.61 96.07 499.61 96.07 499.62 96.06 499.63 96.06 499.64 96.05 499.65 96.04 499.66 96.03 499.66 96.02 499.67 96.02 499.68 96.01 499.68 96 499.69 95.99 499.7 95.98 499.71 95.96 499.72 95.95 499.72 95.94 499.74 95.92 499.75 95.91 499.76 95.89 499.78 95.86 499.79 95.85 499.82 95.81 499.83 95.8 499.84 95.79 499.84 95.78 499.85 95.77 499.87 95.75 499.88 95.74 499.89 95.73 499.9 95.72 499.9 95.71 499.91 95.7 499.92 95.7 499.93 95.69 499.93 95.68 499.94 95.67 499.95 95.67 499.96 95.66 499.96 95.65 499.97 95.65 499.98 95.63 499.99 95.63 500.01 95.61 500.05 95.58 500.07 95.56 500.08 95.56 500.12 95.53 500.16 95.5 500.2 95.47 500.21 95.46 500.24 95.44 500.27 95.42 500.3 95.4 500.32 95.38 500.33 95.37 500.37 95.34 500.4 95.32 500.41 95.31 500.46 95.27 500.47 95.26 500.47 95.26 500.48 95.25 500.49 95.25 500.5 95.24 500.51 95.23 500.52 95.23 500.53 95.23 500.54 95.22 500.55 95.22 500.57 95.21 500.57 95.21 500.58 95.2 500.59 95.2 500.61 95.19 500.64 95.18 500.68 95.16 500.71 95.15 500.79 95.12 500.92 95.07 500.98 95.04 501.02 95.02 501.03 95.02 501.05 95.01 501.07 95 501.08 95 501.09 94.99 501.1 94.99 501.11 94.99 501.12 94.98 501.13 94.98 501.14 94.98 501.15 94.97 501.16 94.98 501.17 94.98 501.18 94.98 501.19 94.98 501.2 94.98 501.21 94.98 501.22 94.99 501.23 94.99 501.24 95 501.25 95 501.26 95.01 501.27 95.02 501.28 95.02 501.29 95.03 501.3 95.03 501.31 95.03 501.32 95.04 501.33 95.04 501.34 95.05 501.35 95.05 501.35 95.05 501.36 95.06 501.38 95.06 501.38 95.07 501.39 95.07 501.4 95.07 501.42 95.08 501.43 95.08 501.44 95.08 501.45 95.08 501.47 95.08 501.49 95.07 501.5 95.07 501.51 95.07 501.52 95.07 501.53 95.08 501.54 95.09 501.54 95.1 501.56 95.1 501.63 95.1 501.78 95.14 501.98 95.21 502.13 95.26 502.14 95.26 502.15 95.27 502.15 95.27 502.17 95.27 502.21 95.29 502.24 95.29 502.28 95.31 502.32 95.32 502.35 95.33 502.39 95.34 502.52 95.44 502.55 95.48 502.58 95.51 502.62 95.54 502.69 95.58 502.73 95.61 502.82 95.68 502.88 95.73 502.92 95.76 502.94 95.77 502.96 95.78 503.01 95.8 503.07 95.84 503.1 95.87 503.14 95.97 503.15 95.97 503.16 95.97 503.17 95.97 503.18 95.97 503.19 95.97 503.2 95.97 503.22 95.98 503.23 95.98 503.24 95.98 503.25 95.98 503.26 95.98 503.27 95.99 503.28 95.99 503.29 95.99 503.31 96 503.32 96 503.33 96 503.35 96.01 503.36 96.01 503.37 96.01 503.38 96.01 503.39 96.02 503.4 96.02 503.41 96.02 503.42 96.03 503.43 96.03 503.44 96.03 503.45 96.04 503.46 96.04 503.47 96.04 503.49 96.04 503.5 96.04 503.51 96.05 503.52 96.05 503.53 96.05 503.54 96.05 503.55 96.05 503.56 96.05 503.57 96.05 503.58 96.05 503.59 96.05 503.6 96.05 503.61 96.05 503.62 96.05 503.63 96.05 503.64 96.05 503.65 96.05 503.66 96.05 503.67 96.05 503.68 96.05 503.69 96.05 503.7 96.05 503.71 96.05 503.72 96.05 503.74 96.04 503.75 96.04 503.76 96.04 503.77 96.04 503.78 96.04 503.79 96.03 503.79 96.03 503.8 96.03 503.81 96.02 503.82 96.02 503.83 96.02 503.84 96.01 503.85 96.01 503.86 96.01 503.87 96 503.88 96 503.89 96 503.9 95.99 503.91 95.99 503.92 95.99 503.93 95.98 503.94 95.98 503.95 95.97 503.96 95.97 503.97 95.97 503.98 95.96 503.99 95.95 504.05 95.94 504.05 95.93 504.08 95.91 504.08 95.9 504.1 95.88 504.1 95.88 504.11 95.87 504.12 95.86 504.13 95.86 504.14 95.85 504.15 95.85 504.17 95.84 504.18 95.83 504.19 95.83 504.2 95.83 504.22 95.82 504.22 95.81 504.23 95.81 504.24 95.8 504.25 95.79 504.32 95.74 504.33 95.73 504.34 95.72 504.35 95.72 504.36 95.71 504.37 95.71 504.38 95.71 504.39 95.71 504.41 95.7 504.42 95.7 504.43 95.7 504.45 95.7 504.47 95.7 504.48 95.7 504.49 95.7 504.5 95.7 504.51 95.7 504.52 95.7 504.53 95.7 504.54 95.7 504.55 95.7 504.56 95.7 504.57 95.7 504.58 95.7 504.6 95.71 504.61 95.71 504.62 95.71 504.64 95.71 504.66 95.72 504.67 95.72 504.69 95.73 504.71 95.73 504.72 95.73 504.77 95.75 504.79 95.75 504.8 95.75 504.81 95.76 504.82 95.76 504.84 95.76 504.85 95.76 504.86 95.76 504.87 95.77 504.88 95.77 504.89 95.77 504.9 95.77 504.91 95.77 504.94 95.77 504.95 95.77 504.97 95.77 504.98 95.77 505 95.78 505.02 95.78 505.05 95.78 505.07 95.78 505.08 95.78 505.09 95.78 505.1 95.78 505.11 95.78 505.12 95.77 505.14 95.77 505.15 95.77 505.16 95.77 505.17 95.77 505.18 95.77 505.19 95.77 505.2 95.76 505.21 95.76 505.22 95.75 505.23 95.75 505.24 95.74 505.25 95.74 505.26 95.73 505.28 95.72 505.31 95.71 505.34 95.69 505.39 95.67 505.44 95.64 505.6 95.55 505.68 95.51 505.74 95.47 505.79 95.45 505.8 95.44 505.82 95.43 505.85 95.41 505.88 95.39 505.9 95.38 505.91 95.37 505.92 95.37 505.93 95.36 505.94 95.36 505.96 95.35 505.98 95.34 506 95.33 506.02 95.32 506.04 95.31 506.06 95.31 506.07 95.3 506.08 95.3 506.11 95.28 506.12 95.28 506.13 95.28 506.14 95.28 506.16 95.27 506.21 95.26 506.36 95.22 506.46 95.19 506.63 95.14 506.7 95.12 506.72 95.11 506.73 95.11 506.78 95.09 506.81 95.08 506.82 95.08 506.83 95.08 506.84 95.07 506.85 95.07 506.87 95.06 506.88 95.06 506.89 95.05 506.9 95.05 506.91 95.05 506.91 95.04 506.92 95.03 506.93 95.03 506.94 95.02 506.95 95.02 506.96 95.01 506.97 95 506.98 95 506.99 94.99 507.01 94.97 507.02 94.96 507.03 94.95 507.05 94.93 507.06 94.92 507.07 94.92 507.08 94.91 507.1 94.9 507.1 94.89 507.11 94.88 507.13 94.87 507.14 94.87 507.15 94.86 507.15 94.86 507.18 94.84 507.19 94.83 507.21 94.82 507.22 94.81 507.24 94.8 507.25 94.8 507.26 94.79 508.28 94.11 508.54 93.94 508.59 93.95 508.61 93.96 508.63 93.96 508.64 93.97 508.65 93.97 508.66 93.97 508.67 93.97 508.68 93.97 508.69 93.98 508.7 93.98 508.71 93.98 508.72 93.98 508.73 93.98 508.74 93.99 508.75 93.99 508.8 94 508.91 94.03 509.06 94.06 509.12 94.08 509.13 94.08 509.16 94.09 509.17 94.09 509.18 94.09 509.19 94.09 509.2 94.1 509.21 94.1 509.22 94.1 509.23 94.11 509.26 94.12 509.32 94.15 509.33 94.16 509.4 94.19 509.43 94.2 509.44 94.21 509.46 94.21 509.48 94.22 509.49 94.23 509.53 94.24 509.55 94.24 509.56 94.25 509.57 94.25 509.58 94.26 509.59 94.26 509.6 94.26 509.61 94.26 509.62 94.27 509.63 94.27 509.64 94.27 509.65 94.27 509.66 94.27 509.67 94.27 509.68 94.27 509.7 94.27 509.72 94.27 509.73 94.27 509.74 94.27 509.79 94.26 509.8 94.26 509.84 94.26 509.85 94.26 509.86 94.26 509.87 94.26 509.88 94.26 509.9 94.26 509.91 94.26 509.92 94.26 509.93 94.26 509.94 94.26 509.96 94.26 509.97 94.26 510 94.26 510.04 94.26 510.11 94.26 510.13 94.27 510.15 94.27 510.16 94.27 510.18 94.27 510.21 94.27 510.24 94.27 510.26 94.27 510.29 94.27 510.31 94.27 510.33 94.26 510.34 94.26 510.35 94.26 510.36 94.26 510.38 94.26 510.39 94.26 510.4 94.26 510.41 94.26 510.42 94.26 510.43 94.26 510.44 94.26 510.46 94.26 510.47 94.26 510.48 94.26 510.49 94.26 510.51 94.26 510.52 94.26 510.53 94.27 510.54 94.27 510.55 94.27 510.57 94.27 510.58 94.27 510.61 94.28 510.62 94.28 510.63 94.28 510.64 94.29 510.66 94.29 510.68 94.29 510.69 94.29 510.7 94.3 510.71 94.3 510.72 94.3 510.73 94.3 510.74 94.3 510.76 94.3 510.79 94.31 510.8 94.31 510.81 94.31 510.84 94.31 510.87 94.32 510.93 94.33 510.95 94.33 510.97 94.33 510.99 94.34 511.02 94.34 511.04 94.34 511.06 94.34 511.08 94.34 511.1 94.35 511.12 94.35 511.14 94.35 511.15 94.35 511.17 94.35 511.19 94.35 511.21 94.35 511.23 94.36 511.25 94.36 511.27 94.36 511.3 94.36 511.31 94.36 511.32 94.36 511.33 94.36 511.34 94.36 511.36 94.36 511.39 94.36 511.41 94.37 511.43 94.37 511.44 94.37 511.45 94.37 511.46 94.37 511.47 94.37 511.48 94.38 511.49 94.38 511.5 94.38 511.52 94.38 511.53 94.39 511.54 94.39 511.55 94.39 511.56 94.4 511.57 94.4 511.6 94.41 511.64 94.43 511.67 94.44 511.7 94.45 511.73 94.46 511.75 94.47 511.77 94.48 511.8 94.49 511.83 94.51 511.85 94.52 511.87 94.52 511.9 94.53 511.93 94.54 511.96 94.55 511.99 94.56 512.02 94.58 512.04 94.58 512.07 94.59 512.1 94.6 512.14 94.62 512.17 94.63 512.19 94.63 512.2 94.64 512.21 94.64 512.22 94.64 512.24 94.65 512.25 94.65 512.26 94.65 512.27 94.65 512.28 94.66 512.3 94.66 512.31 94.66 512.32 94.66 512.33 94.66 512.34 94.67 512.34 94.67 512.35 94.67 512.36 94.68 512.37 94.68 512.38 94.68 512.39 94.69 512.43 94.71 512.44 94.71 512.44 94.72 512.45 94.72 512.46 94.73 512.47 94.73 512.48 94.74 512.49 94.75 512.5 94.76 512.5 94.77 512.51 94.78 512.52 94.79 512.52 94.8 512.53 94.81 512.54 94.82 512.54 94.83 512.55 94.84 512.55 94.85 512.56 94.86 512.57 94.88 512.58 94.9 512.59 94.92 512.59 94.93 512.6 94.95 512.61 94.97 512.62 94.99 512.63 95.01 512.64 95.04 512.66 95.09 512.67 95.12 512.68 95.14 512.69 95.16 512.7 95.19 512.72 95.23 512.72 95.25 512.73 95.26 512.73 95.27 512.74 95.28 512.74 95.29 512.74 95.3 512.75 95.31 512.75 95.32 512.76 95.32 512.76 95.33 512.77 95.34 512.78 95.36 512.78 95.36 512.79 95.37 512.8 95.38 512.8 95.39 512.81 95.4 512.81 95.41 512.82 95.42 512.83 95.43 512.83 95.44 512.84 95.44 512.85 95.45 512.86 95.47 512.87 95.48 512.89 95.5 512.9 95.52 512.92 95.53 512.93 95.55 512.94 95.56 512.96 95.58 512.97 95.59 512.98 95.6 512.99 95.6 512.99 95.61 513 95.62 513.02 95.63 513.03 95.65 513.05 95.66 513.07 95.67 513.08 95.69 513.1 95.7 513.12 95.71 513.13 95.72 513.16 95.74 513.19 95.76 513.2 95.77 513.22 95.79 513.24 95.8 513.26 95.81 513.27 95.82 513.29 95.83 513.32 95.85 513.35 95.86 513.4 95.89 513.45 95.92 513.5 95.95 513.51 95.96 513.56 95.98 513.68 96.05 513.71 96.07 513.74 96.09 513.77 96.1 513.8 96.12 513.84 96.15 513.9 96.18 513.92 96.2 513.95 96.21 513.98 96.23 514 96.24 514.01 96.25 514.03 96.26 514.04 96.26 514.05 96.27 514.07 96.28 514.1 96.29 514.12 96.3 514.14 96.31 514.15 96.32 514.16 96.32 514.2 96.34 514.2 96.34 514.21 96.35 514.22 96.36 514.23 96.36 514.24 96.37 514.25 96.38 514.26 96.38 514.28 96.4 514.29 96.41 514.33 96.44 514.35 96.45 514.36 96.46 514.38 96.48 514.39 96.48 514.4 96.49 514.4 96.5 514.41 96.5 514.43 96.51 514.44 96.52 514.46 96.53 514.48 96.54 514.5 96.55 514.52 96.56 514.53 96.57 514.56 96.59 514.59 96.6 514.62 96.62 514.65 96.63 514.66 96.64 514.66 96.64 514.67 96.65 514.68 96.65 514.7 96.66 514.73 96.67 514.77 96.69 514.79 96.7 514.81 96.71 514.82 96.71 514.83 96.72 514.84 96.72 514.85 96.73 514.86 96.73 514.86 96.74 514.87 96.74 514.88 96.75 514.89 96.75 514.9 96.76 514.91 96.76 514.92 96.77 514.93 96.77 514.94 96.78 514.94 96.79 514.95 96.79 514.96 96.8 514.97 96.8 515 96.83 515.01 96.83 515.02 96.84 515.03 96.85 515.04 96.85 515.05 96.86 515.06 96.86 515.07 96.87 515.09 96.87 515.15 96.89 515.17 96.89 515.18 96.9 515.19 96.9 515.2 96.9 515.21 96.9 515.22 96.9 515.23 96.91 515.27 96.92 515.28 96.92 515.29 96.92 515.3 96.92 515.31 96.92 515.32 96.93 515.33 96.93 515.36 96.94 515.37 96.94 515.38 96.94 515.39 96.95 515.4 96.95 515.41 96.95 515.42 96.95 515.43 96.96 515.44 96.96 515.45 96.96 515.46 96.96 515.48 96.96 515.49 96.96 515.5 96.96 515.51 96.95 515.52 96.95 515.53 96.95 515.54 96.95 515.55 96.95 515.56 96.94 515.57 96.94 515.59 96.94 515.62 96.93 515.64 96.92 515.65 96.92 515.66 96.91 515.67 96.91 515.68 96.91 515.69 96.9 515.7 96.9 515.71 96.9 515.72 96.89 515.73 96.89 515.74 96.88 515.76 96.87 515.78 96.87 515.82 96.85 515.83 96.84 515.84 96.83 515.86 96.82 515.89 96.81 515.92 96.79 515.95 96.77 516 96.75 516.02 96.74 516.04 96.73 516.08 96.71 516.1 96.7 516.11 96.69 516.11 96.69 516.12 96.69 516.14 96.68 516.15 96.67 516.16 96.67 516.17 96.67 516.19 96.66 516.22 96.65 516.25 96.64 516.28 96.63 516.3 96.62 516.32 96.61 516.33 96.61 516.34 96.6 516.36 96.6 516.37 96.59 516.38 96.59 516.39 96.59 516.4 96.58 516.41 96.58 516.43 96.57 516.47 96.55 516.48 96.54 516.49 96.54 516.51 96.53 516.53 96.52 516.56 96.51 516.59 96.49 516.84 96.38 516.93 96.33 516.98 96.31 517.02 96.29 517.04 96.28 517.07 96.27 517.14 96.23 517.17 96.22 517.19 96.21 517.21 96.2 517.25 96.18 517.28 96.17 517.31 96.15 517.33 96.15 517.36 96.13 517.39 96.12 517.41 96.11 517.42 96.11 517.45 96.1 517.51 96.07 517.53 96.07 517.55 96.06 517.59 96.04 517.62 96.03 517.64 96.02 517.65 96.02 517.66 96.01 517.68 96.01 517.69 96.01 517.7 96 517.71 96 517.73 96 517.74 95.99 517.75 95.99 517.76 95.99 517.77 95.99 517.78 95.98 517.79 95.98 517.8 95.98 517.81 95.98 517.82 95.98 517.83 95.97 517.84 95.97 517.85 95.97 517.86 95.97 517.87 95.97 517.88 95.97 517.89 95.97 517.91 95.97 517.92 95.97 517.93 95.97 517.94 95.97 517.95 95.97 517.96 95.97 517.97 95.97 517.98 95.97 517.99 95.97 518 95.97 518.01 95.97 518.02 95.97 518.03 95.98 518.04 95.98 518.05 95.98 518.06 95.98 518.07 95.99 518.09 95.99 518.11 96 518.12 96 518.14 96.01 518.15 96.01 518.16 96.01 Z"/>
</g></svg>