<svg xmlns="http://www.w3.org/2000/svg" version="1.2" baseProfile="tiny" stroke-linecap="round" stroke-linejoin="round" viewBox="408.75 144.25 34.2 38.4"><g xmlns="http://www.w3.org/2000/svg" id="Berastegi">
<path d="M 437.66 155.92 437.65 155.93 437.61 156 437.59 156.12 437.53 156.72 437.51 156.89 437.49 157.01 437.48 157.21 437.47 157.32 437.46 157.42 437.45 157.52 437.44 157.61 437.42 157.73 437.41 157.83 437.41 157.96 437.39 158.1 437.37 158.23 437.36 158.33 437.34 158.44 437.32 158.57 437.31 158.66 437.3 158.72 437.29 158.81 437.28 158.9 437.27 158.99 437.26 159.22 437.29 159.23 437.82 159.5 438.14 159.66 438.34 159.76 438.39 159.79 438.44 159.81 438.51 159.85 438.56 159.87 438.63 159.91 438.65 159.92 439.17 160.19 439.46 160.34 440.13 160.69 440.21 160.69 440.28 160.69 440.73 160.69 440.79 160.68 440.91 160.68 440.95 160.68 441 160.68 441.06 160.67 441.18 160.73 441.22 160.76 441.23 160.76 441.24 160.77 441.26 160.78 441.3 160.8 441.47 160.92 441.48 160.92 441.58 160.98 441.75 161.09 441.77 161.1 441.83 161.15 441.87 161.19 441.92 161.25 441.96 161.29 441.99 161.33 442.08 161.43 442.16 161.52 442.18 161.56 442.21 161.61 442.24 161.66 442.27 161.72 442.3 161.76 442.32 161.8 442.35 161.84 442.37 161.89 442.5 162.11 442.64 162.5 442.66 162.54 442.68 162.6 442.69 162.64 442.75 162.79 442.7 162.88 442.76 162.96 442.77 163.15 442.77 163.28 442.77 163.33 442.78 163.4 442.8 163.51 442.82 163.62 442.87 163.75 442.88 163.82 442.89 163.86 442.89 163.91 442.89 163.94 442.89 163.96 442.9 164 442.9 164.03 442.91 164.08 442.91 164.12 442.92 164.15 442.93 164.23 442.93 164.33 442.93 164.41 442.91 164.65 442.91 164.67 442.87 164.69 442.83 164.72 442.81 164.73 442.78 164.75 442.77 164.76 442.45 165.08 442.4 165.12 442.38 165.14 442.35 165.17 442.34 165.18 442.17 165.1 442.15 165.11 442.14 165.13 442.13 165.13 442.1 165.16 442.03 165.22 441.79 165.41 441.79 165.42 441.78 165.42 441.65 165.5 441.57 165.54 441.47 165.6 441.14 165.87 441.09 165.91 441.05 165.95 440.98 166 440.89 166.08 440.78 166.17 440.7 166.23 440.63 166.29 440.58 166.34 440.56 166.35 440.43 166.5 440.42 166.51 440.05 166.92 440.05 166.92 439.98 166.99 439.91 167.08 439.86 167.13 439.83 167.17 439.81 167.19 439.79 167.21 439.6 167.42 439.49 167.43 439.42 167.44 439.36 167.44 439.31 167.45 439.27 167.45 439.22 167.45 439.18 167.48 439.14 167.51 439.1 167.54 439.07 167.56 439.04 167.58 439.02 167.59 439.01 167.59 439 167.6 438.85 167.74 438.79 167.79 438.76 167.86 438.71 167.97 438.68 168.04 438.68 168.06 438.65 168.13 438.64 168.14 438.63 168.19 438.6 168.23 438.59 168.25 438.55 168.31 438.52 168.36 438.49 168.41 438.48 168.42 438.46 168.46 438.42 168.52 438.4 168.54 438.34 168.64 438.27 168.75 438.26 168.76 438.24 168.79 438.16 168.91 438.11 168.99 437.96 169.13 437.91 169.18 437.87 169.21 437.87 169.22 437.84 169.24 437.81 169.3 437.75 169.4 437.7 169.48 437.67 169.52 437.61 169.61 437.59 169.63 437.57 169.65 437.56 169.67 437.52 169.72 437.48 169.77 437.46 169.8 437.45 169.82 437.44 169.84 437.43 169.85 437.43 169.86 437.42 169.87 437.42 169.88 437.41 169.89 437.4 169.91 437.38 169.95 437.38 169.97 437.37 170.02 437.36 170.05 437.35 170.09 437.33 170.13 437.33 170.16 437.33 170.2 437.34 170.25 437.34 170.3 437.35 170.38 437.37 170.46 437.39 170.54 437.39 170.57 437.4 170.62 437.43 170.72 437.54 170.97 437.14 171.89 436.65 172.71 436.6 172.79 436.6 172.8 436.5 172.92 436.49 172.93 436.1 173.4 435.82 173.47 435.74 173.49 435.68 173.51 435.57 173.53 435.47 173.55 435.38 173.58 435.34 173.59 435.3 173.59 435.25 173.6 435.22 173.62 435.11 173.68 434.83 173.95 434.81 173.96 434.69 174.08 434.66 174.11 434.62 174.15 434.56 174.21 434.43 174.39 434.42 174.4 434.36 174.49 434.34 174.51 434.27 174.6 434.16 174.74 434.04 174.78 433.98 174.8 433.93 174.82 433.8 174.86 433.79 174.87 433.72 174.89 433.68 174.9 433.59 174.93 433.53 174.95 433.51 174.95 433.45 174.97 433.37 175 433.34 175.01 433.33 175.02 433.33 175.02 433.3 175.03 433.26 175.05 433.22 175.07 433.19 175.08 433.18 175.08 433.13 175.1 433.1 175.11 433.08 175.12 433.07 175.12 433.04 175.13 433.02 175.13 433.01 175.12 433 175.11 432.99 175.11 432.99 175.11 432.98 175.12 432.98 175.13 432.95 175.19 432.94 175.17 432.93 175.15 432.92 175.13 432.9 175.11 432.89 175.09 432.87 175.07 432.85 175.05 432.85 175.05 432.81 175.06 432.82 175.08 432.82 175.1 432.81 175.1 432.81 175.14 432.8 175.17 432.79 175.18 432.77 175.2 432.77 175.21 432.75 175.24 432.75 175.24 432.73 175.27 432.71 175.29 432.67 175.32 432.61 175.35 432.58 175.36 432.54 175.38 432.5 175.41 432.49 175.42 432.46 175.44 432.45 175.47 432.44 175.51 432.43 175.55 432.42 175.59 432.42 175.6 432.42 175.62 432.42 175.65 432.42 175.69 432.42 175.72 432.42 175.73 432.43 175.76 432.45 175.8 432.47 175.84 432.48 175.86 432.53 175.92 432.59 175.97 432.64 176 432.68 176.02 432.73 176.04 432.76 176.06 432.79 176.07 432.81 176.09 432.82 176.11 432.84 176.14 432.85 176.14 432.85 176.16 432.85 176.18 432.86 176.19 432.86 176.2 432.85 176.22 432.85 176.23 432.84 176.26 432.82 176.3 432.8 176.32 432.79 176.33 432.78 176.35 432.76 176.39 432.76 176.4 432.74 176.42 432.73 176.45 432.72 176.46 432.71 176.48 432.7 176.5 432.68 176.52 432.68 176.54 432.67 176.55 432.66 176.57 432.65 176.6 432.62 176.64 432.62 176.66 432.62 176.67 432.61 176.68 432.61 176.69 432.61 176.71 432.58 176.75 432.57 176.77 432.56 176.79 432.53 176.84 432.51 176.87 432.5 176.88 432.47 176.9 432.46 176.92 432.43 176.94 432.37 176.99 432.32 177.02 432.31 177.03 432.29 177.04 432.25 177.06 432.21 177.09 432.2 177.1 432.19 177.11 432.16 177.12 432.1 177.14 432.03 177.17 431.99 177.19 431.93 177.22 431.9 177.23 431.87 177.24 431.85 177.25 431.82 177.27 431.78 177.29 431.76 177.29 431.74 177.3 431.73 177.31 431.72 177.31 431.69 177.32 431.68 177.32 431.66 177.33 431.64 177.33 431.62 177.34 431.57 177.35 431.56 177.35 431.55 177.35 431.5 177.35 431.46 177.36 431.44 177.36 431.42 177.37 431.39 177.37 431.37 177.37 431.33 177.38 431.29 177.38 431.26 177.38 431.2 177.38 431.16 177.39 431.14 177.39 431.12 177.39 431.1 177.4 431.07 177.42 431.03 177.44 431.01 177.46 430.99 177.49 430.96 177.53 430.95 177.56 430.92 177.61 430.91 177.63 430.89 177.67 430.86 177.73 430.85 177.75 430.83 177.81 430.83 177.82 430.8 177.87 430.79 177.9 430.76 177.93 430.73 177.98 430.69 178.01 430.67 178.04 430.65 178.05 430.63 178.09 430.61 178.13 430.6 178.16 430.59 178.17 430.58 178.19 430.58 178.2 430.57 178.21 430.55 178.22 430.53 178.23 430.51 178.23 430.49 178.25 430.48 178.26 430.46 178.27 430.46 178.27 430.43 178.28 430.42 178.29 430.4 178.3 430.37 178.31 430.34 178.32 430.33 178.33 430.32 178.33 430.31 178.34 430.3 178.34 430.28 178.35 430.26 178.36 430.26 178.37 430.22 178.4 430.2 178.43 430.19 178.44 430.18 178.47 430.18 178.5 430.18 178.54 430.19 178.59 430.2 178.61 430.21 178.63 430.21 178.64 430.22 178.65 430.23 178.68 430.24 178.71 430.24 178.74 430.23 178.76 430.22 178.79 430.18 178.82 430.15 178.83 430.12 178.84 430.07 178.84 430.01 178.84 429.97 178.83 429.93 178.82 429.91 178.82 429.88 178.82 429.86 178.81 429.85 178.81 429.83 178.81 429.82 178.81 429.81 178.81 429.79 178.82 429.78 178.83 429.77 178.85 429.76 178.87 429.75 178.88 429.75 178.89 429.74 178.9 429.73 178.92 429.73 178.95 429.73 178.96 429.72 178.97 429.73 178.98 429.73 179.01 429.75 179.06 429.79 179.12 429.85 179.19 429.87 179.21 429.88 179.22 429.92 179.27 429.98 179.35 429.99 179.37 430.01 179.39 430.03 179.43 430.05 179.46 430.08 179.51 430.1 179.58 430.1 179.61 430.12 179.68 430.13 179.7 430.11 179.71 430.1 179.71 430.09 179.72 430.05 179.74 430.02 179.76 429.98 179.77 429.91 179.78 429.9 179.79 429.89 179.78 429.88 179.78 429.87 179.77 429.86 179.77 429.85 179.77 429.82 179.78 429.8 179.8 429.8 179.8 429.79 179.81 429.78 179.81 429.76 179.82 429.75 179.82 429.74 179.83 429.74 179.83 429.73 179.84 429.73 179.85 429.73 179.86 429.73 179.87 429.73 179.89 429.73 179.9 429.72 179.92 429.71 179.93 429.7 179.94 429.69 179.95 429.67 179.95 429.65 179.95 429.64 179.95 429.62 179.95 429.61 179.95 429.6 179.94 429.59 179.95 429.58 179.95 429.57 179.95 429.55 179.97 429.52 179.98 429.51 179.99 429.5 179.99 429.49 179.99 429.48 179.98 429.48 179.97 429.47 179.96 429.47 179.95 429.47 179.94 429.46 179.92 429.46 179.89 429.45 179.87 429.45 179.85 429.44 179.85 429.43 179.85 429.41 179.84 429.39 179.84 429.37 179.84 429.35 179.85 429.32 179.85 429.27 179.87 429.26 179.88 429.25 179.89 429.25 179.9 429.25 179.91 429.25 179.92 429.26 179.94 429.27 179.95 429.28 179.97 429.28 179.98 429.28 179.99 429.27 180 429.26 180.01 429.25 180.01 429.24 180.02 429.22 180.02 429.2 180.02 429.18 180.01 429.17 180 429.16 180 429.14 179.99 429.12 179.97 429.1 179.95 429.09 179.94 429.07 179.93 429.05 179.92 429.03 179.91 429.01 179.91 429 179.9 428.96 179.91 428.93 179.91 428.91 179.89 428.9 179.89 428.89 179.88 428.87 179.88 428.8 179.88 428.77 179.87 428.76 179.88 428.75 179.89 428.74 179.89 428.72 179.9 428.72 179.91 428.71 179.91 428.7 179.92 428.69 179.92 428.66 179.93 428.64 179.94 428.62 179.95 428.61 179.95 428.6 179.96 428.58 179.96 428.57 179.97 428.53 179.97 428.49 179.97 428.47 179.97 428.46 179.97 428.45 179.97 428.43 179.97 428.42 179.98 428.4 179.99 428.39 180 428.38 180.01 428.37 180.02 428.36 180.02 428.35 180.01 428.34 180.01 428.34 180 428.33 179.99 428.33 179.99 428.32 179.99 428.31 179.99 428.29 179.99 428.28 180 428.28 180.01 428.28 180.02 428.28 180.03 428.27 180.04 428.25 180.04 428.24 180.04 428.24 180.03 428.23 180.02 428.2 179.99 428.2 179.99 428.19 179.98 428.18 179.98 428.17 179.98 428.16 179.99 428.15 179.99 428.14 180 428.13 180.01 428.12 180.04 428.1 180.05 428.09 180.07 428.08 180.08 428.07 180.09 428.06 180.1 428.03 180.11 428.01 180.13 428 180.14 427.99 180.14 427.94 180.14 427.92 180.14 427.91 180.14 427.9 180.15 427.89 180.15 427.86 180.17 427.85 180.18 427.84 180.18 427.81 180.18 427.8 180.18 427.79 180.18 427.78 180.19 427.78 180.2 427.77 180.2 427.76 180.2 427.74 180.18 427.72 180.17 427.72 180.17 427.71 180.16 427.7 180.15 427.69 180.14 427.68 180.14 427.65 180.13 427.62 180.13 427.61 180.13 427.6 180.13 427.59 180.14 427.58 180.14 427.58 180.15 427.57 180.16 427.56 180.19 427.55 180.2 427.54 180.21 427.54 180.23 427.53 180.24 427.52 180.24 427.51 180.25 427.49 180.25 427.47 180.26 427.44 180.26 427.41 180.26 427.38 180.25 427.37 180.25 427.36 180.25 427.35 180.24 427.35 180.23 427.35 180.22 427.34 180.21 427.34 180.19 427.34 180.18 427.33 180.17 427.33 180.17 427.33 180.16 427.32 180.15 427.31 180.15 427.3 180.15 427.29 180.15 427.27 180.15 427.26 180.16 427.25 180.16 427.24 180.17 427.24 180.18 427.23 180.19 427.23 180.21 427.23 180.24 427.23 180.24 427.22 180.25 427.2 180.26 427.19 180.27 427.18 180.27 427.16 180.27 427.14 180.27 427.1 180.26 427.08 180.26 427.07 180.26 427.06 180.25 427.06 180.25 427.04 180.26 427.03 180.26 427.02 180.26 427 180.26 427 180.26 426.97 180.25 426.91 180.25 426.91 180.25 426.89 180.26 426.87 180.27 426.86 180.28 426.85 180.28 426.84 180.3 426.83 180.31 426.82 180.32 426.76 180.32 426.75 180.32 426.73 180.32 426.71 180.31 426.7 180.31 426.69 180.31 426.67 180.32 426.67 180.32 426.65 180.32 426.63 180.33 426.6 180.35 426.58 180.35 426.56 180.36 426.55 180.37 426.55 180.38 426.55 180.38 426.56 180.4 426.56 180.42 426.57 180.43 426.56 180.44 426.56 180.44 426.55 180.45 426.54 180.45 426.53 180.45 426.52 180.44 426.5 180.43 426.48 180.4 426.47 180.4 426.46 180.39 426.45 180.4 426.44 180.4 426.42 180.4 426.4 180.41 426.39 180.41 426.38 180.42 426.37 180.43 426.36 180.44 426.36 180.45 426.34 180.45 426.34 180.44 426.32 180.45 426.27 180.47 426.23 180.49 426.2 180.5 426.2 180.5 426.19 180.51 426.18 180.52 426.17 180.52 426.16 180.53 426.16 180.54 426.15 180.55 426.13 180.56 426.11 180.57 426.1 180.57 426.07 180.58 426.04 180.58 426.03 180.59 426.03 180.59 426.01 180.6 425.96 180.63 425.95 180.64 425.94 180.64 425.91 180.66 425.88 180.67 425.87 180.67 425.86 180.66 425.85 180.65 425.82 180.62 425.81 180.6 425.81 180.6 425.8 180.6 425.79 180.6 425.78 180.6 425.78 180.61 425.77 180.61 425.76 180.59 425.75 180.58 425.74 180.58 425.73 180.57 425.71 180.57 425.7 180.57 425.69 180.57 425.67 180.57 425.65 180.57 425.64 180.57 425.62 180.58 425.59 180.58 425.56 180.58 425.54 180.59 425.53 180.58 425.52 180.58 425.5 180.57 425.48 180.57 425.46 180.57 425.44 180.57 425.43 180.57 425.42 180.57 425.41 180.58 425.39 180.58 425.36 180.59 425.32 180.6 425.31 180.6 425.28 180.61 425.26 180.62 425.24 180.62 425.22 180.63 425.2 180.63 424.97 180.63 424.95 180.63 424.92 180.63 424.91 180.63 424.89 180.63 424.85 180.64 424.83 180.64 424.82 180.64 424.8 180.65 424.79 180.66 424.79 180.67 424.78 180.67 424.77 180.68 424.77 180.69 424.76 180.7 424.76 180.7 424.75 180.73 424.74 180.74 424.73 180.75 424.72 180.76 424.72 180.77 424.71 180.77 424.69 180.78 424.68 180.79 424.66 180.81 424.62 180.83 424.53 180.88 424.46 180.93 424.44 180.94 424.42 180.95 424.42 180.96 424.4 180.97 424.39 180.97 424.39 180.97 424.38 180.98 424.36 180.99 424.36 180.99 424.32 181 424.28 181.03 424.25 181.04 424.22 181.07 424.2 181.09 424.18 181.1 424.16 181.12 424.14 181.15 424.12 181.17 424.1 181.19 424.07 181.23 424.06 181.25 424.03 181.27 423.96 181.36 423.94 181.39 423.84 181.52 423.74 181.63 423.38 182.07 423.37 182.08 423.36 182.09 423.17 182.25 422.5 182.46 422.09 182.5 421.61 182.55 421.3 182.58 421 182.61 420.74 182.64 420.62 182.19 420.44 181.52 419.33 181.43 418.49 181.44 417.36 180.8 416.83 180.46 416.1 179.11 415.84 178.4 415.77 178.18 415.67 177.85 415.55 177.58 415.35 177.49 415.01 177.12 414.77 176.61 414.81 175.82 414.52 175.34 414.36 174.78 414.35 174.53 414.6 173.82 414.57 173.26 413.43 172.08 413.5 171.38 414.01 169.98 414.3 169.25 414.65 168.97 415.41 167.56 416.05 166.2 416.15 165.74 416.22 165.4 416.34 164.76 418.32 163.3 419.85 161.33 420.03 161.11 420.06 161.11 420.08 161.11 420.12 161.11 420.23 161.11 420.28 161.1 420.32 161.1 420.36 161.09 420.39 161.08 420.43 161.07 420.45 161.05 420.48 161.04 420.52 161.01 420.55 160.99 420.58 160.97 420.6 160.95 420.62 160.94 420.65 160.92 420.67 160.91 420.7 160.89 420.72 160.87 420.76 160.85 420.78 160.83 420.8 160.8 420.82 160.79 420.84 160.78 420.86 160.77 420.88 160.76 420.91 160.76 420.93 160.75 420.96 160.74 420.98 160.74 421.01 160.72 421.04 160.71 421.07 160.69 421.1 160.68 421.14 160.67 421.16 160.67 421.2 160.67 421.23 160.67 421.28 160.66 421.3 160.66 421.34 160.66 421.38 160.65 421.41 160.64 421.44 160.63 421.48 160.63 421.52 160.63 421.56 160.64 421.59 160.64 421.63 160.64 421.67 160.64 421.7 160.64 421.75 160.65 421.8 160.66 421.83 160.66 421.86 160.67 421.9 160.68 421.93 160.7 421.96 160.71 421.99 160.73 422.02 160.75 422.05 160.77 422.06 160.79 422.09 160.81 422.12 160.83 422.15 160.85 422.19 160.87 422.21 160.89 422.25 160.92 422.28 160.94 422.3 160.96 422.33 160.98 422.36 161 422.41 161.03 422.44 161.04 422.47 161.05 422.5 161.07 422.52 161.09 422.54 161.1 422.56 161.12 422.58 161.13 422.6 161.14 422.62 161.16 422.64 161.18 422.66 161.2 422.69 161.22 422.71 161.25 422.72 161.26 422.75 161.28 422.77 161.3 422.79 161.33 422.81 161.34 422.83 161.36 422.84 161.38 422.86 161.4 422.88 161.42 422.9 161.43 422.92 161.45 422.94 161.47 422.96 161.48 422.98 161.5 423.02 161.53 423.03 161.54 423.05 161.55 423.07 161.56 423.09 161.57 423.11 161.58 423.13 161.59 423.15 161.6 423.17 161.61 423.2 161.62 423.22 161.62 423.24 161.62 423.26 161.61 423.29 161.6 423.32 161.59 423.34 161.59 423.36 161.6 423.37 161.61 423.39 161.63 423.41 161.65 423.42 161.67 423.43 161.69 423.45 161.71 423.46 161.73 423.49 161.73 423.52 161.74 423.55 161.74 423.58 161.74 423.61 161.74 423.63 161.74 423.66 161.74 423.67 161.74 423.67 161.73 423.68 161.71 423.69 161.68 423.7 161.65 423.71 161.62 423.72 161.59 423.74 161.56 423.76 161.51 423.76 161.48 423.75 161.45 423.75 161.42 423.75 161.39 423.77 161.35 423.78 161.32 423.79 161.29 423.8 161.26 423.8 161.23 423.79 161.14 423.78 161.1 423.77 161.06 423.77 161.02 423.76 160.99 423.76 160.97 423.76 160.95 423.76 160.92 423.75 160.88 423.75 160.84 423.76 160.8 423.76 160.77 423.78 160.76 423.8 160.74 423.82 160.73 423.85 160.71 423.89 160.71 423.92 160.7 423.98 160.69 424.01 160.67 424.04 160.64 424.06 160.61 424.07 160.57 424.08 160.52 424.08 160.49 424.09 160.45 424.1 160.4 424.11 160.36 424.12 160.34 424.14 160.32 424.16 160.31 424.18 160.3 424.21 160.3 424.26 160.31 424.3 160.33 424.34 160.33 424.37 160.33 424.4 160.32 424.45 160.28 424.48 160.25 424.51 160.21 424.55 160.18 424.57 160.15 424.59 160.13 424.6 160.1 424.6 160.05 424.59 160.02 424.58 159.97 424.58 159.92 424.57 159.88 424.59 159.85 424.61 159.83 424.63 159.81 424.68 159.8 424.72 159.78 424.76 159.78 424.82 159.78 424.85 159.79 424.89 159.8 424.92 159.8 424.94 159.81 424.97 159.81 425.01 159.8 425.05 159.79 425.08 159.77 425.11 159.74 425.14 159.7 425.15 159.67 425.16 159.63 425.17 159.6 425.13 159.58 425.09 159.56 425.04 159.53 424.99 159.49 424.95 159.45 424.93 159.41 424.92 159.34 424.91 159.3 424.92 159.24 424.94 159.19 424.95 159.13 424.96 159.09 424.98 159.05 424.99 159 425.01 158.94 425.01 158.88 425.01 158.81 425.01 158.75 425 158.7 425 158.65 425.01 158.62 425.01 158.57 425.01 158.52 425 158.47 425 158.42 424.99 158.39 424.99 158.35 424.98 158.3 424.98 158.27 424.97 158.25 424.97 158.22 424.97 158.18 424.96 158.15 424.96 158.12 424.95 158.08 424.94 158.05 424.93 158.02 424.92 157.98 424.91 157.95 424.91 157.93 424.9 157.9 424.89 157.88 424.88 157.85 424.87 157.81 424.86 157.78 424.86 157.74 424.87 157.74 424.87 157.71 424.89 157.69 424.92 157.68 424.96 157.68 424.99 157.68 425.02 157.69 425.04 157.71 425.06 157.73 425.08 157.74 425.1 157.75 425.12 157.75 425.14 157.76 425.16 157.75 425.19 157.74 425.2 157.74 425.26 157.72 425.33 157.68 425.4 157.64 425.45 157.58 425.46 157.55 425.46 157.54 425.47 157.51 425.47 157.46 425.46 157.41 425.44 157.36 425.42 157.33 425.4 157.31 425.37 157.3 425.33 157.28 425.31 157.28 425.3 157.27 425.27 157.28 425.24 157.28 425.2 157.28 425.15 157.28 425.11 157.27 425.07 157.27 425.02 157.24 424.99 157.23 424.95 157.21 424.9 157.19 424.86 157.17 424.81 157.14 424.78 157.11 424.74 157.08 424.72 157.05 424.71 157.02 424.71 156.99 424.71 156.96 424.71 156.94 424.72 156.91 424.72 156.89 424.73 156.86 424.73 156.83 424.73 156.81 424.72 156.77 424.71 156.74 424.7 156.72 424.68 156.7 424.67 156.69 424.63 156.67 424.58 156.67 424.54 156.69 424.52 156.7 424.51 156.71 424.5 156.72 424.48 156.76 424.46 156.79 424.43 156.84 424.4 156.88 424.37 156.91 424.33 156.95 424.3 156.97 424.28 157 424.24 157.02 424.21 157.02 424.16 157.02 424.13 157.02 424.1 157.01 424.07 156.99 424.05 156.97 424.03 156.95 424.01 156.92 423.99 156.9 423.97 156.87 423.94 156.83 423.91 156.8 423.88 156.75 423.86 156.72 423.85 156.7 423.81 156.63 423.78 156.57 423.75 156.48 423.74 156.42 423.74 156.37 423.74 156.32 423.75 156.28 423.76 156.25 423.77 156.24 423.79 156.22 423.81 156.2 423.83 156.18 423.86 156.17 423.88 156.16 423.91 156.16 423.93 156.16 423.97 156.16 424.03 156.15 424.11 156.16 424.17 156.18 424.22 156.19 424.27 156.22 424.31 156.25 424.36 156.29 424.41 156.33 424.42 156.33 424.44 156.35 424.46 156.37 424.49 156.39 424.52 156.42 424.55 156.45 424.58 156.48 424.61 156.49 424.63 156.49 424.66 156.48 424.68 156.47 424.7 156.45 424.72 156.42 424.72 156.39 424.73 156.36 424.73 156.33 424.72 156.29 424.71 156.25 424.7 156.23 424.7 156.22 424.69 156.17 424.67 156.14 424.67 156.12 424.66 156.1 424.64 156.07 424.63 156.03 424.61 156 424.59 155.96 424.57 155.93 424.55 155.9 424.51 155.88 424.49 155.86 424.47 155.84 424.47 155.83 424.47 155.81 424.46 155.76 424.47 155.7 424.49 155.67 424.51 155.63 424.54 155.6 424.58 155.58 424.6 155.57 424.66 155.55 424.7 155.53 424.73 155.51 424.76 155.49 424.79 155.44 424.82 155.35 424.84 155.28 424.84 155.22 424.84 155.17 424.83 155.14 424.82 155.12 424.79 155.1 424.75 155.08 424.72 155.06 424.67 155.06 424.65 155.05 424.61 155.05 424.57 155.04 424.54 155.04 424.51 155.03 424.47 155.01 424.43 155 424.39 154.98 424.37 154.95 424.35 154.92 424.34 154.89 424.34 154.84 424.34 154.8 424.34 154.77 424.34 154.75 424.35 154.7 424.35 154.67 424.35 154.66 424.36 154.61 424.35 154.58 424.35 154.54 424.34 154.49 424.33 154.45 424.3 154.4 424.27 154.36 424.24 154.34 424.2 154.32 424.17 154.32 424.14 154.31 424.1 154.31 424.07 154.31 424.02 154.32 423.98 154.33 423.92 154.33 423.85 154.32 423.79 154.31 423.74 154.3 423.68 154.29 423.61 154.26 423.57 154.22 423.52 154.18 423.5 154.15 423.5 154.13 423.49 154.08 423.49 154.03 423.51 153.97 423.52 153.94 423.54 153.9 423.56 153.86 423.59 153.83 423.62 153.8 423.65 153.78 423.7 153.76 423.73 153.74 423.76 153.73 423.82 153.72 423.88 153.72 423.92 153.7 423.97 153.69 424.01 153.68 424.06 153.67 424.13 153.66 424.22 153.65 424.3 153.64 424.39 153.63 424.46 153.62 424.55 153.62 424.61 153.62 424.67 153.62 424.71 153.62 424.77 153.62 424.83 153.62 424.9 153.62 424.96 153.63 425.04 153.62 425.09 153.61 425.15 153.6 425.19 153.58 425.22 153.56 425.24 153.54 425.26 153.5 425.27 153.48 425.27 153.44 425.26 153.4 425.26 153.36 425.26 153.32 425.25 153.3 425.25 153.29 425.24 153.26 425.23 153.22 425.21 153.18 425.21 153.17 425.2 153.14 425.19 153.11 425.19 153.07 425.2 153.05 425.2 153.02 425.22 153 425.24 152.98 425.25 152.97 425.28 152.94 425.31 152.92 425.36 152.91 425.43 152.9 425.49 152.9 425.53 152.91 425.57 152.91 425.61 152.92 425.66 152.92 425.68 152.93 425.72 152.94 425.75 152.97 425.8 153 425.82 153.03 425.84 153.03 425.86 153.06 425.87 153.07 425.88 153.09 425.89 153.1 425.91 153.12 425.94 153.14 425.99 153.17 426.01 153.19 426.02 153.21 426.02 153.22 426.02 153.24 426.02 153.27 426.01 153.29 426 153.32 425.99 153.35 425.97 153.37 425.94 153.39 425.93 153.41 425.91 153.43 425.9 153.46 425.89 153.49 425.88 153.53 425.88 153.61 425.89 153.65 425.91 153.68 425.93 153.71 425.96 153.73 425.99 153.75 426.03 153.77 426.07 153.78 426.11 153.79 426.14 153.8 426.18 153.8 426.22 153.8 426.24 153.79 426.27 153.79 426.3 153.77 426.33 153.75 426.35 153.73 426.39 153.7 426.42 153.65 426.44 153.61 426.45 153.56 426.46 153.51 426.48 153.52 426.52 153.53 426.55 153.54 426.59 153.54 426.65 153.54 426.69 153.53 426.74 153.51 426.76 153.49 426.79 153.46 426.81 153.42 426.83 153.39 426.85 153.34 426.87 153.32 426.88 153.28 426.9 153.26 426.92 153.24 426.95 153.22 426.97 153.21 426.99 153.2 427.01 153.19 427.04 153.19 427.06 153.2 427.07 153.21 427.1 153.22 427.11 153.24 427.12 153.26 427.13 153.28 427.14 153.3 427.14 153.33 427.14 153.35 427.15 153.36 427.16 153.39 427.17 153.4 427.2 153.41 427.24 153.41 427.31 153.42 427.34 153.42 427.38 153.42 427.42 153.43 427.44 153.43 427.46 153.44 427.5 153.45 427.54 153.47 427.57 153.48 427.59 153.5 427.62 153.52 427.64 153.54 427.65 153.56 427.66 153.58 427.66 153.62 427.67 153.65 427.67 153.69 427.67 153.7 427.69 153.72 427.72 153.72 427.76 153.71 427.8 153.71 427.85 153.7 427.9 153.7 427.94 153.7 427.98 153.7 428.01 153.71 428.03 153.72 428.07 153.73 428.09 153.74 428.12 153.75 428.16 153.75 428.19 153.75 428.21 153.74 428.22 153.74 428.23 153.72 428.24 153.7 428.24 153.68 428.23 153.66 428.22 153.63 428.19 153.6 428.15 153.56 428.13 153.53 428.11 153.51 428.09 153.49 428.09 153.47 428.08 153.46 428.08 153.45 428.09 153.43 428.1 153.43 428.11 153.42 428.14 153.41 428.17 153.39 428.19 153.37 428.22 153.35 428.24 153.33 428.26 153.31 428.27 153.29 428.3 153.27 428.32 153.25 428.35 153.23 428.38 153.21 428.41 153.19 428.44 153.18 428.45 153.18 428.48 153.17 428.49 153.18 428.51 153.19 428.52 153.2 428.53 153.22 428.53 153.24 428.53 153.26 428.51 153.28 428.5 153.29 428.5 153.31 428.5 153.34 428.5 153.36 428.51 153.39 428.53 153.42 428.55 153.43 428.57 153.45 428.58 153.46 428.6 153.49 428.61 153.52 428.61 153.56 428.61 153.61 428.6 153.65 428.59 153.69 428.58 153.72 428.57 153.75 428.56 153.79 428.56 153.82 428.56 153.85 428.56 153.86 428.57 153.88 428.59 153.9 428.61 153.91 428.65 153.91 428.69 153.9 428.72 153.89 428.75 153.87 428.78 153.85 428.8 153.84 428.82 153.82 428.85 153.82 428.88 153.82 428.9 153.82 428.93 153.83 428.95 153.83 428.98 153.85 429 153.86 429.03 153.87 429.07 153.87 429.1 153.86 429.12 153.84 429.14 153.83 429.15 153.81 429.17 153.78 429.18 153.76 429.19 153.74 429.19 153.73 429.21 153.71 429.23 153.68 429.25 153.67 429.27 153.65 429.29 153.64 429.3 153.62 429.31 153.6 429.31 153.59 429.31 153.57 429.31 153.55 429.3 153.53 429.29 153.5 429.27 153.48 429.26 153.46 429.24 153.44 429.22 153.42 429.21 153.39 429.2 153.34 429.2 153.32 429.21 153.29 429.22 153.27 429.23 153.25 429.25 153.24 429.27 153.23 429.29 153.22 429.32 153.22 429.35 153.23 429.4 153.23 429.45 153.24 429.49 153.25 429.51 153.26 429.53 153.28 429.54 153.3 429.56 153.32 429.56 153.34 429.57 153.38 429.57 153.41 429.57 153.45 429.58 153.48 429.6 153.53 429.63 153.57 429.66 153.6 429.7 153.63 429.73 153.65 429.76 153.65 429.78 153.63 429.79 153.62 429.8 153.6 429.8 153.58 429.8 153.5 429.81 153.46 429.82 153.43 429.84 153.41 429.86 153.38 429.88 153.36 429.91 153.35 429.93 153.34 429.95 153.34 429.98 153.34 430.01 153.34 430.03 153.34 430.04 153.36 430.07 153.37 430.09 153.39 430.11 153.42 430.13 153.44 430.15 153.46 430.17 153.48 430.19 153.5 430.21 153.51 430.22 153.51 430.24 153.52 430.25 153.52 430.27 153.51 430.28 153.49 430.29 153.47 430.3 153.44 430.31 153.42 430.31 153.39 430.32 153.38 430.33 153.37 430.35 153.37 430.36 153.37 430.38 153.38 430.39 153.39 430.41 153.42 430.42 153.45 430.44 153.47 430.46 153.49 430.49 153.5 430.52 153.51 430.54 153.51 430.57 153.51 430.61 153.5 430.62 153.48 430.64 153.45 430.65 153.41 430.66 153.38 430.67 153.36 430.69 153.34 430.72 153.33 430.76 153.34 430.78 153.35 430.8 153.36 430.82 153.36 430.84 153.38 430.87 153.4 430.89 153.42 430.91 153.44 430.92 153.47 430.92 153.49 430.91 153.52 430.89 153.55 430.87 153.58 430.86 153.6 430.86 153.62 430.85 153.65 430.86 153.67 430.87 153.68 430.88 153.69 430.9 153.69 430.92 153.68 430.94 153.66 430.98 153.64 431.01 153.61 431.03 153.6 431.06 153.58 431.09 153.58 431.12 153.58 431.14 153.59 431.15 153.6 431.16 153.61 431.17 153.62 431.17 153.65 431.16 153.69 431.14 153.72 431.12 153.75 431.1 153.78 431.08 153.8 431.07 153.83 431.07 153.86 431.06 153.88 431.06 153.92 431.06 153.94 431.06 153.96 431.06 153.98 431.07 154.03 431.07 154.06 431.09 154.1 431.11 154.14 431.14 154.16 431.18 154.17 431.21 154.17 431.25 154.16 431.29 154.14 431.31 154.14 431.33 154.13 431.35 154.14 431.39 154.14 431.43 154.15 431.46 154.16 431.5 154.15 431.53 154.14 431.56 154.12 431.58 154.09 431.6 154.08 431.61 154.06 431.62 154.05 431.64 154.04 431.66 154.05 431.7 154.06 431.73 154.08 431.75 154.09 431.78 154.11 431.81 154.14 431.84 154.15 431.86 154.16 431.88 154.18 431.9 154.2 431.93 154.22 431.97 154.24 432 154.24 432.02 154.25 432.05 154.25 432.08 154.27 432.09 154.27 432.11 154.28 432.12 154.29 432.13 154.29 432.15 154.28 432.17 154.27 432.19 154.26 432.2 154.24 432.21 154.21 432.22 154.19 432.23 154.16 432.23 154.14 432.23 154.12 432.21 154.08 432.19 154.06 432.18 154.05 432.17 154.02 432.16 154.01 432.16 153.98 432.17 153.96 432.19 153.93 432.21 153.91 432.22 153.9 432.23 153.89 432.25 153.88 432.27 153.88 432.29 153.89 432.32 153.91 432.33 153.94 432.34 153.95 432.36 153.98 432.39 154 432.43 154.02 432.46 154.04 432.48 154.06 432.5 154.08 432.53 154.09 432.55 154.09 432.56 154.08 432.58 154.05 432.59 154.04 432.6 154.02 432.61 154.02 432.63 154.01 432.66 154.02 432.69 154.03 432.71 154.04 432.74 154.07 432.76 154.09 432.77 154.1 432.79 154.11 432.8 154.11 432.82 154.11 432.84 154.11 432.86 154.09 432.88 154.08 432.9 154.05 432.91 154.03 432.93 154.01 432.95 153.99 432.97 153.98 433 153.96 433.02 153.96 433.05 153.96 433.08 153.96 433.09 153.96 433.11 153.96 433.13 153.95 433.14 153.94 433.16 153.92 433.17 153.91 433.18 153.89 433.2 153.87 433.23 153.85 433.25 153.83 433.26 153.81 433.28 153.79 433.3 153.78 433.33 153.77 433.36 153.77 433.4 153.77 433.43 153.76 433.46 153.74 433.46 153.73 433.48 153.71 433.5 153.69 433.52 153.67 433.55 153.65 433.57 153.63 433.59 153.62 433.62 153.6 433.65 153.6 433.68 153.6 433.71 153.6 433.74 153.61 433.76 153.61 433.78 153.62 433.8 153.63 433.82 153.65 433.84 153.67 433.85 153.68 433.87 153.7 433.88 153.71 433.9 153.73 433.92 153.73 433.94 153.73 433.97 153.73 433.99 153.72 434.02 153.71 434.04 153.69 434.07 153.66 434.09 153.64 434.12 153.61 434.14 153.6 434.17 153.58 434.2 153.58 434.22 153.58 434.24 153.58 434.25 153.58 434.27 153.59 434.3 153.61 434.32 153.62 434.34 153.63 434.36 153.64 434.38 153.64 434.39 153.64 434.4 153.63 434.42 153.61 434.44 153.6 434.47 153.6 434.49 153.59 434.52 153.6 434.55 153.61 434.57 153.62 434.58 153.64 434.61 153.65 434.64 153.66 434.66 153.66 434.68 153.67 434.7 153.68 434.73 153.69 434.74 153.7 434.76 153.71 434.8 153.72 434.82 153.72 434.84 153.72 434.86 153.72 434.88 153.72 434.91 153.71 434.94 153.71 434.97 153.71 435 153.71 435.03 153.71 435.06 153.71 435.09 153.7 435.14 153.69 435.16 153.68 435.19 153.68 435.21 153.69 435.24 153.72 435.26 153.76 435.27 153.79 435.3 153.82 435.32 153.86 435.32 153.89 435.33 153.93 435.32 153.96 435.31 153.99 435.31 154.03 435.31 154.06 435.31 154.09 435.31 154.11 435.31 154.15 435.32 154.17 435.34 154.2 435.35 154.22 435.36 154.24 435.38 154.26 435.39 154.28 435.4 154.31 435.41 154.34 435.44 154.38 435.45 154.41 435.46 154.44 435.47 154.47 435.48 154.5 435.5 154.52 435.52 154.55 435.55 154.58 435.56 154.61 435.59 154.64 435.62 154.68 435.65 154.73 435.67 154.77 435.71 154.82 435.74 154.84 435.77 154.86 435.8 154.88 435.81 154.88 435.82 154.9 435.84 154.91 435.86 154.92 435.88 154.94 435.91 154.95 435.93 154.98 435.94 155 435.96 155.03 435.98 155.06 435.99 155.09 436.02 155.13 436.04 155.16 436.06 155.18 436.08 155.21 436.1 155.24 436.11 155.27 436.13 155.31 436.15 155.34 436.16 155.37 436.17 155.4 436.19 155.43 436.2 155.45 436.22 155.48 436.23 155.49 436.26 155.52 436.3 155.56 436.32 155.59 436.35 155.62 436.37 155.64 436.39 155.66 436.41 155.66 436.43 155.67 436.45 155.68 436.47 155.69 436.49 155.69 436.51 155.69 436.52 155.68 436.54 155.68 436.56 155.68 436.58 155.69 436.61 155.7 436.63 155.7 436.65 155.72 436.68 155.74 436.71 155.76 436.73 155.77 436.76 155.79 436.79 155.8 436.81 155.8 436.81 155.85 437.11 155.82 437.66 155.92 Z M 419.35 144.26 418.21 146.83 417.37 148.87 416.07 150.4 415.93 151.76 415.3 153.42 414.33 155.1 413.94 156.08 413.89 157.04 413.84 157.84 413.83 157.84 413.82 157.86 413.8 157.86 413.79 157.87 413.76 157.88 413.75 157.89 413.75 157.91 413.75 157.93 413.76 157.93 413.76 157.94 413.77 157.95 413.78 157.96 413.79 157.98 413.79 157.99 413.8 158.01 413.8 158.04 413.8 158.11 413.65 158.29 413.33 158.42 413.28 158.4 413.23 158.38 413.17 158.36 413.15 158.35 413.12 158.34 413.07 158.33 413.05 158.36 413.04 158.36 413.03 158.38 413.01 158.4 413 158.41 412.98 158.43 412.97 158.46 412.96 158.47 412.96 158.48 412.97 158.49 412.97 158.5 412.96 158.52 412.96 158.53 412.95 158.54 412.94 158.58 412.94 158.6 412.95 158.65 412.95 158.67 412.95 158.7 412.96 158.71 412.96 158.74 412.96 158.77 412.96 158.81 412.95 158.82 412.95 158.85 412.94 158.87 412.93 158.88 412.91 158.89 412.87 158.91 412.84 158.92 412.78 158.93 412.74 158.93 412.69 158.93 412.66 158.93 412.62 158.95 412.6 158.96 412.56 158.99 412.54 159 412.52 159.02 412.49 159.05 412.46 159.08 412.43 159.12 412.4 159.13 412.36 159.15 412.33 159.16 412.29 159.17 412.23 159.2 412.21 159.21 412.17 159.25 412.12 159.29 412.09 159.32 412.05 159.35 412.03 159.37 412 159.4 411.94 159.45 411.9 159.47 411.85 159.51 411.8 159.54 411.76 159.57 411.73 159.61 411.69 159.67 411.67 159.71 411.66 159.74 411.63 159.76 411.59 159.81 411.55 159.84 411.52 159.88 411.47 159.93 411.44 159.96 411.41 159.98 411.38 160.02 411.35 160.05 411.33 160.09 411.31 160.14 411.3 160.2 411.29 160.23 411.27 160.26 411.26 160.3 411.24 160.36 411.23 160.4 411.21 160.43 411.19 160.45 411.18 160.46 411.17 160.48 411.17 160.51 411.18 160.56 411.19 160.6 411.21 160.66 411.22 160.72 411.24 160.75 411.27 160.77 411.3 160.79 411.33 160.8 411.38 160.81 411.41 160.83 411.44 160.85 411.47 160.9 411.5 160.93 411.52 160.99 411.54 161.03 411.56 161.07 411.58 161.11 411.6 161.15 411.6 161.16 411.6 161.19 411.61 161.23 411.61 161.27 411.62 161.31 411.64 161.34 411.67 161.39 411.69 161.45 411.71 161.49 411.71 161.55 411.71 161.6 411.69 161.66 411.69 161.71 411.69 161.75 411.7 161.8 411.7 161.81 411.72 161.85 411.74 161.9 411.77 161.93 411.79 161.95 411.81 161.96 411.84 161.98 411.85 162 411.87 162.02 411.88 162.06 411.88 162.08 411.89 162.12 411.89 162.14 411.9 162.17 411.91 162.22 411.89 162.23 411.87 162.24 411.85 162.25 411.84 162.26 411.82 162.28 411.78 162.32 411.75 162.36 411.72 162.4 411.69 162.44 411.68 162.46 411.65 162.54 411.62 162.59 411.61 162.62 411.59 162.65 411.57 162.66 411.57 162.66 411.63 163.57 411.24 164.88 409.86 165.63 410.12 166.54 410.12 167.76 409.78 165.98 409.59 164.75 409.16 162.72 408.83 162 408.77 161.93 408.77 161.8 408.76 161.59 408.77 161.55 408.78 161.53 408.79 161.51 408.8 161.47 408.81 161.44 408.82 161.39 408.82 161.35 408.83 161.31 408.84 161.27 408.84 161.22 408.85 161.17 408.85 161.14 408.86 161.13 408.86 161.09 408.87 161.05 408.88 161.02 408.9 160.97 408.91 160.92 408.91 160.87 408.91 160.84 408.91 160.81 408.91 160.76 408.9 160.7 408.9 160.66 408.9 160.64 408.9 160.61 408.9 160.57 408.9 160.53 408.91 160.48 408.9 160.45 408.9 160.36 408.9 160.31 408.9 160.29 408.9 160.26 408.91 160.22 408.91 160.2 408.93 160.17 408.95 160.13 408.96 160.11 408.98 160.07 409 160.04 409.02 160 409.03 159.98 409.04 159.95 409.05 159.91 409.38 159.82 410.04 159.53 410.06 159.51 410.08 159.49 410.11 159.46 410.13 159.45 410.16 159.45 410.2 159.43 410.22 159.42 410.24 159.41 410.27 159.4 410.29 159.38 410.3 159.37 410.33 159.35 410.34 159.33 410.36 159.31 410.37 159.3 410.4 159.28 410.43 159.26 410.44 159.25 410.45 159.22 410.47 159.2 410.48 159.18 410.49 159.15 410.51 159.13 410.53 159.11 410.55 159.09 410.56 159.06 410.58 159.04 410.58 159.02 410.59 159 410.6 158.98 410.6 158.95 410.61 158.93 410.62 158.9 410.62 158.88 410.63 158.86 410.64 158.84 410.65 158.82 410.65 158.79 410.66 158.76 410.66 158.73 410.67 158.69 410.67 158.66 410.67 158.63 410.67 158.6 410.68 158.57 410.68 158.53 410.68 158.5 410.69 158.47 410.69 158.45 410.69 158.42 410.69 158.38 410.69 158.35 410.69 158.32 410.69 158.3 410.69 158.25 410.69 158.22 410.68 158.19 410.68 158.17 410.69 158.14 410.7 158.08 410.7 158.06 410.71 158.01 410.72 157.98 410.73 157.96 410.76 157.93 410.77 157.9 410.8 157.87 410.82 157.85 410.85 157.83 410.88 157.81 410.91 157.79 410.93 157.78 410.96 157.76 410.98 157.74 410.99 157.72 411.01 157.7 411.02 157.67 411.04 157.63 411.06 157.6 411.06 157.58 411.07 157.56 411.08 157.53 411.09 157.51 411.12 157.48 411.14 157.47 411.16 157.46 411.19 157.43 411.21 157.42 411.23 157.4 411.24 157.38 411.25 157.37 411.28 157.37 411.3 157.35 411.32 157.34 411.36 157.32 411.39 157.3 411.41 157.28 411.45 157.24 411.45 157.22 411.46 157.21 411.47 157.18 411.47 157.16 411.47 157.15 411.48 157.12 411.48 157.05 411.48 157.03 411.48 157 411.48 156.98 411.47 156.95 411.48 156.93 411.48 156.91 411.5 156.89 411.51 156.87 411.52 156.85 411.52 156.82 411.53 156.79 411.54 156.76 411.54 156.73 411.54 156.69 411.55 156.65 411.54 156.61 411.54 156.58 411.55 156.55 411.56 156.51 411.56 156.49 411.57 156.46 411.57 156.42 411.57 156.39 411.57 156.35 411.57 156.31 411.57 156.27 411.57 156.26 411.59 156.22 411.6 156.2 411.61 156.17 411.62 156.15 411.63 156.12 411.64 156.09 411.64 156.05 411.64 156.03 411.64 156.01 411.65 155.97 411.65 155.94 411.66 155.89 411.66 155.86 411.67 155.84 411.68 155.8 411.7 155.76 411.71 155.73 411.72 155.7 411.73 155.67 411.75 155.64 411.77 155.6 411.78 155.57 411.8 155.54 411.81 155.51 411.81 155.49 411.81 155.46 411.81 155.44 411.83 155.42 411.84 155.39 411.87 155.37 411.86 155.36 412.1 154.78 412.85 153.55 412.87 153.53 412.9 153.5 412.96 153.47 413.02 153.45 413.07 153.42 413.1 153.39 413.12 153.37 413.15 153.34 413.17 153.32 413.21 153.28 413.23 153.27 413.25 153.26 413.28 153.26 413.31 153.24 413.33 153.23 413.35 153.22 413.37 153.19 413.4 153.16 413.42 153.14 413.44 153.12 413.46 153.09 413.47 153.08 413.53 153.05 413.55 153.02 413.57 153.01 413.6 152.97 413.61 152.95 413.65 152.92 413.67 152.9 413.68 152.89 413.71 152.88 413.73 152.87 413.77 152.85 413.81 152.83 413.84 152.8 413.86 152.76 413.88 152.72 413.91 152.65 413.93 152.6 413.93 152.56 413.94 152.52 413.94 152.5 413.95 152.48 413.96 152.45 413.97 152.42 413.98 152.4 413.98 152.38 413.99 152.34 413.99 152.21 413.98 152.19 413.98 152.17 413.96 152.12 413.94 152.06 413.92 152.01 413.91 151.97 413.9 151.94 413.9 151.89 413.9 151.83 413.89 151.79 413.88 151.78 413.87 151.75 413.85 151.73 413.84 151.72 413.83 151.7 413.82 151.68 413.81 151.63 413.81 151.6 413.81 151.57 413.8 151.52 413.79 151.49 413.77 151.43 413.76 151.4 413.75 151.36 413.74 151.31 413.74 151.27 413.74 151.26 413.76 151.22 413.78 151.16 413.79 151.12 413.8 151.06 413.8 151.03 413.79 151 413.79 150.97 413.78 150.95 413.77 150.9 413.76 150.86 413.75 150.83 413.75 150.78 413.74 150.71 413.73 150.67 413.72 150.62 413.71 150.59 413.7 150.56 413.67 150.53 413.65 150.52 413.63 150.51 413.6 150.49 413.57 150.47 413.53 150.46 413.5 150.44 413.47 150.4 413.44 150.38 413.43 150.35 413.42 150.32 413.4 150.27 413.38 150.23 413.35 150.17 413.34 150.14 413.34 150.13 413.35 150.11 413.36 150.1 413.37 150.07 413.38 150.04 413.38 150.01 413.38 149.97 413.37 149.92 413.37 149.86 413.37 149.84 413.39 149.8 413.41 149.77 413.43 149.75 413.45 149.73 413.47 149.71 413.5 149.69 413.54 149.68 413.57 149.66 413.58 149.65 413.61 149.6 413.64 149.53 413.66 149.48 413.67 149.45 413.68 149.42 413.7 149.38 413.72 149.33 413.74 149.31 413.75 149.29 413.77 149.26 413.8 149.24 413.81 149.22 413.84 149.19 413.86 149.15 413.87 149.12 413.89 149.09 413.91 149.04 413.92 149.02 413.94 148.99 413.95 148.96 413.96 148.96 413.98 148.95 413.99 148.94 414.02 148.93 414.05 148.9 414.09 148.86 414.1 148.85 414.12 148.84 414.16 148.82 414.18 148.81 414.21 148.79 414.22 148.79 414.27 148.76 414.32 148.73 414.34 148.7 414.37 148.68 414.38 148.67 414.42 148.65 414.47 148.63 414.49 148.63 414.51 148.62 414.55 148.61 414.6 148.59 414.64 148.58 414.66 148.57 414.67 148.57 414.69 148.57 414.72 148.57 414.74 148.57 414.77 148.55 414.79 148.54 414.81 148.54 414.82 148.53 414.83 148.52 414.85 148.5 414.86 148.49 414.88 148.47 414.9 148.46 414.91 148.45 414.94 148.43 414.97 148.42 415.01 148.39 415.03 148.38 415.05 148.37 415.07 148.37 415.09 148.36 415.11 148.36 415.15 148.34 415.2 148.31 415.22 148.29 415.24 148.27 415.27 148.24 415.3 148.2 415.31 148.19 415.33 148.16 415.36 148.1 415.38 148.06 415.39 148.03 415.41 147.99 415.43 147.96 415.44 147.92 415.45 147.9 415.46 147.88 415.47 147.87 415.49 147.85 415.5 147.83 415.51 147.8 415.53 147.76 415.54 147.73 415.55 147.68 415.56 147.67 415.57 147.64 415.58 147.62 415.6 147.59 415.61 147.57 415.63 147.54 415.65 147.52 415.67 147.5 415.69 147.49 415.71 147.48 415.74 147.46 415.76 147.44 415.79 147.42 415.82 147.41 415.85 147.39 415.86 147.39 415.87 147.38 415.9 147.37 415.91 147.37 415.92 147.35 415.94 147.33 415.95 147.32 415.96 147.33 415.96 147.33 415.97 147.34 415.99 147.34 416 147.35 416.01 147.35 416.04 147.36 416.06 147.36 416.07 147.36 416.09 147.36 416.13 147.36 416.15 147.36 416.18 147.36 416.21 147.36 416.24 147.36 416.28 147.36 416.31 147.35 416.34 147.34 416.31 147.3 416.27 147.25 416.24 147.21 416.19 147.16 416.14 147.1 416.1 147.06 416.07 147.02 416.04 146.97 416.02 146.93 416.01 146.91 415.99 146.87 415.97 146.83 415.95 146.79 415.92 146.75 415.9 146.72 415.88 146.7 415.88 146.69 415.86 146.65 415.84 146.62 415.83 146.58 415.81 146.52 415.8 146.49 415.78 146.41 415.77 146.37 415.75 146.34 415.74 146.31 415.71 146.28 415.69 146.25 415.68 146.22 415.66 146.18 415.66 146.13 415.65 146.08 415.65 146.02 415.66 145.99 415.67 145.94 415.68 145.91 415.7 145.85 415.72 145.78 415.7 145.77 415.71 145.75 415.71 145.72 415.72 145.69 415.73 145.66 415.75 145.63 415.77 145.59 415.78 145.56 415.8 145.51 415.81 145.48 415.81 145.38 415.81 145.35 415.81 145.31 415.8 145.26 415.8 145.25 415.84 145.24 416.12 145.08 416.5 144.96 416.94 145.04 417.14 145 417.6 145.02 418.38 144.8 419.21 144.4 419.35 144.26 Z"/>
</g></svg>