<svg xmlns="http://www.w3.org/2000/svg" version="1.2" baseProfile="tiny" stroke-linecap="round" stroke-linejoin="round" viewBox="458.63 308.88 14.95 10.73"><g xmlns="http://www.w3.org/2000/svg" id="Belaskoain">
<path d="M 458.66 313.01 458.71 313.02 458.8 313.04 458.91 313.05 459.01 313.07 459.09 313.09 459.16 313.07 459.3 313.01 459.32 313.01 459.36 312.99 459.38 312.98 459.42 312.96 459.51 312.9 459.57 312.87 459.6 312.85 459.66 312.83 459.75 312.79 459.99 312.67 460.13 312.61 460.28 312.54 460.36 312.51 460.37 312.51 460.38 312.5 460.58 312.47 460.79 312.44 460.86 312.42 460.89 312.4 460.92 312.36 460.95 312.33 460.97 312.3 461.11 312.14 461.14 312.09 461.31 311.89 461.36 311.83 461.38 311.81 461.39 311.8 461.41 311.78 461.42 311.77 461.44 311.75 461.46 311.72 461.47 311.72 461.51 311.71 461.54 311.7 461.6 311.7 461.61 311.69 461.66 311.69 461.67 311.68 461.71 311.68 461.73 311.68 461.75 311.67 461.79 311.66 461.82 311.65 461.83 311.65 461.84 311.65 461.86 311.64 461.89 311.62 461.9 311.62 461.94 311.6 461.97 311.58 462.01 311.55 462.03 311.54 462.06 311.52 462.13 311.47 462.15 311.45 462.21 311.4 462.25 311.36 462.3 311.32 462.35 311.26 462.37 311.21 462.4 311.15 462.41 311.14 462.44 311.03 462.47 310.97 462.5 310.92 462.5 310.91 462.52 310.84 462.53 310.83 462.53 310.82 462.56 310.75 462.57 310.73 462.58 310.69 462.6 310.66 462.65 310.65 462.73 310.62 462.76 310.61 462.83 310.6 462.87 310.61 462.91 310.61 462.95 310.62 462.97 310.62 463.11 310.63 463.13 310.64 463.17 310.64 463.25 310.61 463.26 310.61 463.33 310.59 463.36 310.58 463.39 310.57 463.51 310.53 463.58 310.51 463.69 310.48 463.78 310.46 463.83 310.45 463.92 310.43 463.94 310.43 463.98 310.42 464.04 310.41 464.12 310.4 464.13 310.4 464.18 310.39 464.26 310.38 464.27 310.37 464.31 310.37 464.37 310.36 464.41 310.36 464.46 310.36 464.47 310.36 464.51 310.36 464.56 310.36 464.62 310.37 464.68 310.37 464.71 310.37 464.73 310.37 464.8 310.36 464.81 310.36 464.89 310.35 464.95 310.35 465.11 310.34 465.16 310.33 465.4 310.32 465.48 310.31 465.54 310.31 465.57 310.31 465.58 310.31 465.6 310.3 465.69 310.29 465.69 310.24 465.7 310.15 465.72 309.98 465.73 309.84 465.73 309.74 465.75 309.61 465.77 309.53 465.77 309.5 465.76 309.45 465.75 309.38 465.73 309.32 465.7 309.26 465.67 309.18 465.63 309.12 465.58 309.05 465.64 309.02 465.69 308.99 465.7 308.99 465.71 308.98 465.77 308.94 465.82 308.91 465.83 308.91 465.87 308.91 465.93 308.92 465.99 308.95 466.04 308.97 466.06 308.98 466.07 308.99 466.12 309.03 466.18 309.06 466.19 309.07 466.23 309.1 466.25 309.11 466.29 309.13 466.34 309.16 466.38 309.17 466.43 309.18 466.47 309.19 466.5 309.24 466.54 309.31 466.6 309.42 466.64 309.48 466.66 309.51 466.71 309.61 466.75 309.7 466.8 309.77 466.82 309.81 466.86 309.91 466.88 309.94 466.89 309.96 466.91 310.01 466.93 310.05 466.94 310.06 466.96 310.09 466.96 310.1 466.96 310.12 466.95 310.32 466.95 310.35 466.94 310.59 466.94 310.79 466.94 310.8 466.94 310.81 467 310.9 467.03 310.94 467.06 310.99 467.07 311 467.11 311.06 467.11 311.07 467.15 311.12 467.29 311.35 467.32 311.39 467.39 311.5 467.43 311.55 467.44 311.56 467.5 311.6 467.55 311.64 467.62 311.7 467.63 311.71 467.66 311.73 467.7 311.77 467.74 311.79 467.75 311.81 467.78 311.83 467.82 311.86 467.85 311.88 467.89 311.92 467.96 311.98 467.99 312 468.04 312.04 468.09 312.08 468.14 312.12 468.17 312.14 468.19 312.16 468.21 312.18 468.28 312.24 468.29 312.25 468.34 312.3 468.4 312.37 468.44 312.41 468.49 312.44 468.51 312.47 468.59 312.51 468.66 312.57 468.74 312.62 468.75 312.64 468.81 312.68 468.82 312.69 468.86 312.72 468.92 312.75 469 312.8 469.09 312.83 469.13 312.84 469.2 312.87 469.24 312.88 469.28 312.9 469.31 312.92 469.32 312.93 469.35 312.97 469.39 313.01 469.41 313.05 469.42 313.07 469.47 313.12 469.51 313.14 469.55 313.17 469.6 313.19 469.64 313.22 469.68 313.25 469.73 313.31 469.79 313.37 469.83 313.42 469.86 313.46 469.88 313.51 469.91 313.56 469.95 313.65 469.98 313.72 470 313.78 470.05 313.87 470.08 313.93 470.12 314.02 470.17 314.12 470.2 314.19 470.23 314.25 470.26 314.32 470.27 314.33 470.3 314.38 470.36 314.46 470.43 314.55 470.48 314.62 470.53 314.69 470.55 314.71 470.59 314.77 470.62 314.81 470.69 314.88 470.74 314.93 470.78 314.97 470.82 315.03 470.87 315.09 470.93 315.16 470.99 315.23 471.04 315.29 471.05 315.3 471.11 315.37 471.15 315.41 471.16 315.43 471.2 315.47 471.24 315.52 471.27 315.54 471.33 315.59 471.39 315.63 471.43 315.66 471.45 315.67 471.5 315.71 471.51 315.72 471.55 315.75 471.62 315.79 471.67 315.83 471.73 315.86 471.77 315.9 471.82 315.94 471.94 316.01 472.01 316.06 472.1 316.12 472.19 316.19 472.22 316.21 472.27 316.23 472.35 316.27 472.46 316.32 472.5 316.34 472.59 316.39 472.6 316.39 472.65 316.42 472.68 316.43 472.81 316.54 472.92 316.64 472.97 316.68 473.02 316.72 473.08 316.76 473.13 316.78 473.23 316.84 473.33 316.9 473.42 316.98 473.49 317.03 473.55 317.08 473.57 317.09 473.48 317.13 473.39 317.16 473.37 317.17 473.35 317.17 473.28 317.2 473.19 317.23 473.15 317.24 473.09 317.27 472.99 317.32 472.95 317.34 472.9 317.36 472.86 317.38 472.78 317.42 472.72 317.45 472.69 317.47 472.67 317.47 472.65 317.48 472.6 317.52 472.56 317.55 472.47 317.6 472.43 317.62 472.41 317.64 472.35 317.67 472.29 317.69 472.26 317.72 472.22 317.74 472.19 317.75 472.16 317.77 472.13 317.78 472.11 317.78 472.06 317.8 472.01 317.8 471.98 317.81 471.94 317.81 471.91 317.82 471.85 317.81 471.78 317.81 471.72 317.8 471.69 317.8 471.67 317.8 471.64 317.8 471.57 317.79 471.5 317.79 471.44 317.78 471.42 317.77 471.38 317.77 471.32 317.76 471.26 317.75 471.2 317.74 471.17 317.74 471.16 317.74 471.11 317.73 471.05 317.73 471.04 317.72 470.98 317.72 470.93 317.7 470.87 317.69 470.83 317.67 470.78 317.65 470.74 317.62 470.68 317.59 470.64 317.57 470.57 317.55 470.48 317.52 470.43 317.51 470.34 317.5 470.25 317.48 470.17 317.46 470.06 317.42 470.01 317.41 469.87 317.36 469.81 317.35 469.67 317.32 469.56 317.31 469.47 317.28 469.32 317.24 469.27 317.26 469.23 317.3 469.1 317.39 469.04 317.43 468.91 317.51 468.86 317.55 468.73 317.64 468.61 317.72 468.5 317.77 468.37 317.86 468.28 317.9 468.18 317.96 468.08 318.02 468.01 318.06 467.96 318.08 467.91 318.11 467.82 318.18 467.77 318.22 467.75 318.23 467.71 318.28 467.66 318.34 467.61 318.39 467.57 318.44 467.55 318.46 467.5 318.5 467.46 318.53 467.4 318.57 467.3 318.64 467.27 318.66 467.21 318.7 467.18 318.75 467.16 318.78 467.14 318.8 467.11 318.87 467.06 318.9 467.02 318.93 466.94 318.97 466.89 319 466.84 319.02 466.8 319.05 466.73 319.11 466.68 319.16 466.61 319.22 466.55 319.29 466.5 319.33 466.44 319.39 466.39 319.43 466.34 319.47 466.31 319.48 466.27 319.51 466.22 319.53 466.17 319.55 466.13 319.56 466.1 319.56 466.01 319.56 465.93 319.58 465.87 319.59 465.83 319.58 465.79 319.57 465.71 319.53 465.64 319.5 465.58 319.48 465.52 319.45 465.45 319.41 465.43 319.41 465.38 319.41 465.34 319.42 465.28 319.42 465.23 319.43 465.19 319.43 465.1 319.44 465.12 319.36 465.14 319.22 465.15 319.12 465.17 319.04 465.17 319.03 465.17 319.02 465.17 319.01 465.17 318.98 465.16 318.94 465.15 318.84 465.12 318.69 465.09 318.55 465.08 318.44 465.03 318.41 464.93 318.32 464.85 318.25 464.76 318.18 464.75 318.17 464.66 318.09 464.6 318.03 464.53 317.97 464.45 317.9 464.36 317.82 464.29 317.77 464.24 317.76 464.18 317.75 464.08 317.75 464.02 317.74 464.02 317.74 463.99 317.74 463.94 317.74 463.85 317.75 463.78 317.76 463.75 317.76 463.72 317.77 463.66 317.77 463.62 317.77 463.58 317.77 463.5 317.77 463.49 317.81 463.49 317.82 463.48 317.86 463.45 317.9 463.44 317.94 463.42 317.98 463.4 318.01 463.37 318.04 463.35 318.06 463.31 318.09 463.26 318.12 463.22 318.14 463.17 318.17 463.16 318.18 463.05 318.22 462.99 318.25 462.85 318.3 462.74 318.34 462.58 318.41 462.45 318.47 462.37 318.51 462.29 318.55 462.18 318.63 462.16 318.64 462.13 318.66 462.02 318.74 461.86 318.86 461.8 318.92 461.72 318.98 461.68 319.03 461.67 319.05 461.65 319.07 461.64 319.1 461.63 319.14 461.62 319.18 461.63 319.23 461.64 319.27 461.65 319.31 461.67 319.35 461.68 319.4 461.69 319.45 461.69 319.48 461.66 319.47 461.61 319.47 461.53 319.46 461.49 319.45 461.44 319.44 461.36 319.43 461.32 319.42 461.29 319.41 461.25 319.4 461.23 319.4 461.25 319.28 461.26 319.23 461.29 319.12 461.3 319.05 461.33 318.94 461.34 318.86 461.37 318.76 461.38 318.68 461.41 318.56 461.43 318.48 461.46 318.35 461.48 318.27 461.5 318.16 461.52 318.07 461.54 317.96 461.56 317.88 461.58 317.76 461.59 317.75 461.6 317.69 461.62 317.57 461.63 317.51 461.64 317.5 461.64 317.49 461.66 317.39 461.67 317.31 461.68 317.28 461.59 317.25 461.52 317.22 461.49 317.21 461.44 317.15 461.41 317.1 461.34 317.02 461.29 316.96 461.22 316.88 461.18 316.82 461.12 316.75 461.07 316.69 461.01 316.61 460.95 316.54 460.89 316.47 460.84 316.4 460.78 316.32 460.73 316.26 460.66 316.18 460.62 316.13 460.57 316.06 460.51 315.99 460.46 315.93 460.45 315.91 460.42 315.88 460.42 315.88 460.41 315.87 460.4 315.83 460.38 315.72 460.38 315.66 460.36 315.55 460.35 315.47 460.34 315.36 460.33 315.29 460.32 315.19 460.3 315.1 460.29 314.99 460.28 314.92 460.28 314.85 460.27 314.83 460.27 314.77 460.25 314.67 460.23 314.58 460.22 314.51 460.21 314.44 460.19 314.34 460.19 314.3 460.19 314.29 460.18 314.26 460.12 314.2 460.06 314.16 459.98 314.1 459.91 314.04 459.85 313.99 459.8 313.95 459.73 313.89 459.64 313.82 459.51 313.71 459.41 313.63 459.36 313.59 459.27 313.51 459.2 313.46 459.13 313.4 459.08 313.36 459 313.29 458.94 313.24 458.86 313.18 458.79 313.12 458.71 313.05 458.66 313.01 Z"/>
</g></svg>