<svg xmlns="http://www.w3.org/2000/svg" version="1.2" baseProfile="tiny" stroke-linecap="round" stroke-linejoin="round" viewBox="270.87 150.05 44.13 40.58"><g xmlns="http://www.w3.org/2000/svg" id="Bergara">
<path d="M 308.22 150.34 308.28 150.34 308.37 150.32 308.42 150.31 308.5 150.27 308.56 150.25 308.64 150.25 308.68 150.24 308.72 150.24 308.78 150.23 308.85 150.23 308.91 150.2 308.96 150.17 309 150.13 309.04 150.12 309.14 150.11 309.21 150.1 309.24 150.1 309.31 150.08 309.41 150.07 309.48 150.07 309.53 150.09 309.57 150.09 309.6 150.09 309.63 150.09 309.67 150.09 309.72 150.09 309.77 150.11 309.82 150.14 309.84 150.16 309.87 150.17 309.92 150.25 309.97 150.32 309.98 150.39 309.99 150.44 310.02 150.47 310.06 150.57 310.09 150.7 310.12 150.79 310.19 150.84 310.28 150.94 310.35 151.01 310.39 151.07 310.42 151.12 310.45 151.19 310.5 151.27 310.54 151.34 310.54 151.46 310.53 151.58 310.51 151.78 310.51 151.89 310.49 152.01 310.49 152.09 310.47 152.19 310.46 152.32 310.46 152.33 310.46 152.34 310.47 152.42 310.48 152.58 310.48 152.69 310.52 152.81 310.57 152.97 310.65 153.06 310.79 153.17 311.11 153.71 311.27 153.9 311.45 154.15 311.6 154.29 311.7 154.37 311.75 154.43 311.78 154.48 311.82 154.56 311.84 154.64 311.8 154.72 311.71 154.83 311.61 154.93 311.55 155.07 311.41 155.33 311.26 155.65 311.17 155.81 311.1 156.09 311.06 156.28 311 156.42 310.94 156.53 310.85 156.65 310.82 156.71 310.81 156.74 310.8 156.8 310.77 157.07 310.75 157.3 310.76 157.45 310.76 157.55 310.79 157.71 310.83 157.84 310.87 157.95 310.9 158.06 310.98 158.26 311.05 158.43 311.12 158.65 311.22 158.87 311.27 158.99 311.37 159.23 311.43 159.37 311.48 159.51 311.5 159.59 311.5 159.62 311.5 159.69 311.44 159.8 311.4 159.83 311.36 159.93 311.28 160.06 311.19 160.22 311.13 160.29 311.02 160.36 310.8 160.46 310.71 160.51 310.56 160.56 310.5 160.62 310.43 160.73 310.58 163.43 311.97 164.47 312.61 165.03 312.37 167.16 312.36 167.22 312.37 167.22 312.44 167.24 312.46 167.25 312.48 167.26 312.5 167.28 312.54 167.28 312.58 167.27 312.64 167.26 312.7 167.25 312.73 167.24 312.75 167.24 312.77 167.23 312.79 167.22 312.8 167.22 312.83 167.22 312.85 167.22 312.87 167.21 312.91 167.21 312.94 167.2 312.97 167.19 313 167.18 313 167.18 313.02 167.18 313.03 167.19 313.04 167.19 313.06 167.2 313.08 167.2 313.09 167.2 313.11 167.2 313.13 167.19 313.15 167.18 313.18 167.18 313.21 167.17 313.22 167.17 313.25 167.17 313.28 167.17 313.3 167.17 313.31 167.17 313.33 167.17 313.34 167.17 313.36 167.18 313.38 167.18 313.4 167.18 313.42 167.19 313.43 167.19 313.45 167.19 313.46 167.19 313.47 167.18 313.51 167.18 313.54 167.18 313.57 167.17 313.59 167.17 313.63 167.16 313.67 167.16 313.7 167.15 313.72 167.14 313.73 167.14 313.75 167.15 313.78 167.15 313.8 167.15 313.83 167.15 313.86 167.14 313.88 167.14 313.92 167.15 313.96 167.15 313.99 167.14 314.01 167.14 314.04 167.13 314.06 167.12 314.09 167.11 314.11 167.11 314.16 167.1 314.2 167.1 314.39 167.14 314.41 167.15 314.51 167.17 314.51 167.19 314.52 167.2 314.52 167.23 314.53 167.26 314.54 167.29 314.57 167.33 314.59 167.38 314.6 167.41 314.61 167.42 314.62 167.45 314.62 167.46 314.64 167.51 314.65 167.55 314.65 167.57 314.66 167.61 314.66 167.63 314.66 167.65 314.65 167.7 314.65 167.73 314.64 167.77 314.63 167.81 314.61 167.84 314.59 167.88 314.57 167.91 314.55 167.94 314.54 167.96 314.53 167.99 314.53 168.01 314.53 168.03 314.55 168.06 314.57 168.07 314.64 168.11 314.68 168.14 314.71 168.16 314.74 168.18 314.76 168.2 314.79 168.22 314.81 168.24 314.82 168.27 314.83 168.3 314.84 168.35 314.84 168.38 314.84 168.41 314.84 168.44 314.84 168.47 314.82 168.51 314.82 168.52 314.81 168.56 314.79 168.62 314.78 168.67 314.77 168.7 314.77 168.73 314.77 168.77 314.77 168.8 314.77 168.83 314.78 168.86 314.79 168.91 314.81 168.94 314.83 168.98 314.87 169.04 314.89 169.06 314.92 169.09 314.94 169.11 314.96 169.13 314.97 169.16 314.98 169.19 314.99 169.21 315 169.24 315 169.26 315 169.29 315 169.31 314.99 169.34 314.99 169.38 315 169.42 315 169.45 314.97 169.45 314.92 169.46 314.9 169.46 314.89 169.46 314.87 169.47 314.85 169.47 314.82 169.5 314.79 169.53 314.75 169.56 314.72 169.59 314.68 169.64 314.65 169.68 314.62 169.72 314.6 169.76 314.57 169.81 314.55 169.83 314.53 169.85 314.5 169.88 314.48 169.9 314.46 169.91 314.43 169.92 314.39 169.94 314.36 169.95 314.32 169.96 314.26 169.99 314.23 170 314.21 170 314.18 170 314.14 170 314.12 170 314.09 170 314.07 170 314.05 170 314.02 170.01 314 170.02 313.96 170.03 313.94 170.04 313.93 170.05 313.88 170.06 313.82 170.08 313.79 170.1 313.75 170.11 313.72 170.12 313.68 170.14 313.63 170.14 313.6 170.15 313.52 170.15 313.45 170.16 313.41 170.16 313.39 170.17 313.36 170.17 313.31 170.17 313.28 170.18 313.26 170.18 313.24 170.19 313.22 170.2 313.2 170.21 313.19 170.22 313.17 170.26 313.16 170.29 313.13 170.33 313.11 170.36 313.09 170.38 313.06 170.41 313.04 170.43 313.02 170.44 313.01 170.45 312.97 170.46 312.96 170.47 312.94 170.48 312.91 170.49 312.89 170.51 312.87 170.52 312.86 170.53 312.85 170.54 312.83 170.57 312.83 170.58 312.82 170.59 312.82 170.61 312.81 170.63 312.8 170.65 312.79 170.66 312.74 170.71 312.73 170.72 312.72 170.73 312.7 170.73 312.66 170.74 312.61 170.75 312.57 170.76 312.53 170.76 312.51 170.76 312.48 170.76 312.46 170.76 312.45 170.76 312.43 170.76 312.38 170.75 312.37 170.75 312.34 170.74 312.32 170.74 312.3 170.72 312.27 170.71 312.25 170.7 312.22 170.69 312.19 170.68 312.16 170.67 312.13 170.66 312.1 170.65 312.07 170.64 312.03 170.62 312.01 170.61 311.98 170.6 311.96 170.59 311.93 170.58 311.93 170.58 311.92 170.58 311.88 170.56 311.86 170.56 311.82 170.55 311.8 170.54 311.76 170.53 311.73 170.53 311.68 170.53 311.65 170.53 311.62 170.54 311.58 170.54 311.55 170.55 311.5 170.55 311.47 170.56 311.43 170.56 311.4 170.57 311.38 170.57 311.33 170.56 311.3 170.55 311.25 170.55 311.22 170.55 311.17 170.55 311.13 170.55 311.08 170.55 311.03 170.56 311.01 170.57 310.99 170.57 310.97 170.57 310.94 170.55 310.89 170.52 310.87 170.51 310.84 170.49 310.82 170.48 310.79 170.47 310.75 170.45 310.73 170.43 310.71 170.42 310.69 170.39 310.68 170.38 310.65 170.35 310.63 170.33 310.61 170.31 310.6 170.3 310.59 170.29 310.58 170.26 310.56 170.25 310.53 170.22 310.51 170.2 310.49 170.19 310.46 170.16 310.44 170.13 310.42 170.11 310.41 170.1 310.39 170.09 310.36 170.06 310.34 170.05 310.33 170.04 310.31 170.03 310.3 170 310.29 169.97 310.27 169.94 310.25 169.92 310.24 169.89 310.22 169.86 310.2 169.83 310.19 169.82 310.18 169.79 310.17 169.77 310.15 169.74 310.14 169.73 310.12 169.71 310.09 169.69 310.08 169.68 310.06 169.67 310.04 169.66 310.01 169.64 310 169.64 309.97 169.62 309.95 169.61 309.91 169.59 309.89 169.58 309.87 169.57 309.84 169.55 309.82 169.54 309.79 169.52 309.77 169.51 309.76 169.53 308.63 169.28 308.2 169.2 307.31 168.98 307.29 168.96 307.27 168.98 307.25 169 307.23 169.04 307.21 169.08 307.18 169.12 307.15 169.17 307.11 169.21 307.08 169.24 307.06 169.29 307.01 169.34 306.91 169.38 306.76 169.41 306.65 169.43 306.55 169.43 306.42 169.44 306.31 169.44 306.19 169.44 306.09 169.45 305.96 169.46 305.81 169.47 305.72 169.49 305.64 169.52 305.57 169.57 305.51 169.62 305.42 169.64 305.33 169.67 305.23 169.7 305.05 169.77 304.93 169.79 304.82 169.81 304.71 169.84 304.55 169.89 304.54 169.9 304.41 169.97 304.35 169.99 304.28 170.03 304.18 170.07 304.12 170.08 304.04 170.09 303.99 170.1 303.99 170.11 303.52 171.35 302.74 172.59 302.12 172.77 301.67 172.94 301.35 173.33 299.95 175.3 300.67 176.63 300.64 176.63 300.63 176.66 300.63 176.7 300.63 176.76 300.64 176.78 300.65 176.8 300.64 176.83 300.62 176.88 300.6 176.91 300.59 176.93 300.57 176.95 300.55 176.96 300.49 176.99 300.49 176.97 300.47 176.93 300.44 176.9 300.42 176.89 300.38 176.89 300.32 176.9 300.28 176.91 300.22 176.93 300.16 176.95 300.12 176.96 300.07 177.01 300.04 177.05 300 177.09 299.97 177.11 299.95 177.13 299.92 177.13 299.88 177.13 299.85 177.12 299.84 177.14 299.81 177.18 299.81 177.19 299.8 177.2 299.79 177.21 299.79 177.22 299.79 177.25 299.8 177.28 299.81 177.3 299.8 177.34 299.8 177.38 299.81 177.42 299.82 177.46 299.82 177.51 299.82 177.55 299.81 177.59 299.8 177.65 299.79 177.69 299.78 177.72 299.76 177.77 299.74 177.83 299.74 177.86 299.74 177.88 299.75 177.93 299.76 177.97 299.78 178.01 299.79 178.07 299.8 178.12 299.81 178.19 299.81 178.24 299.8 178.27 299.8 178.31 299.8 178.36 299.79 178.42 299.79 178.46 299.78 178.49 299.78 178.53 299.77 178.57 299.76 178.6 299.76 178.66 299.76 178.72 299.75 178.77 299.74 178.83 299.72 178.88 299.72 178.9 299.71 178.93 299.7 178.98 299.7 179.02 299.7 179.08 299.7 179.14 299.7 179.16 299.7 179.17 299.69 179.26 299.67 179.33 299.67 179.36 299.66 179.38 299.65 179.43 299.65 179.45 299.62 179.54 299.6 179.58 299.59 179.61 299.57 179.68 299.55 179.74 299.54 179.75 299.52 179.79 299.52 179.86 299.54 179.9 299.56 179.93 299.57 179.95 299.62 180.02 299.65 180.08 299.67 180.12 299.7 180.15 299.72 180.18 299.74 180.24 299.77 180.3 299.79 180.37 299.82 180.46 299.84 180.53 299.84 180.6 299.85 180.62 299.87 180.66 299.87 180.69 299.87 180.74 299.86 180.79 299.86 180.87 299.85 180.98 299.85 181.01 299.85 181.02 299.84 181.05 299.84 181.08 299.84 181.09 299.83 181.11 299.82 181.12 299.8 181.15 299.79 181.17 299.78 181.2 299.77 181.23 299.77 181.26 299.76 181.3 299.76 181.32 299.75 181.35 299.74 181.38 299.73 181.41 299.73 181.45 299.74 181.5 299.72 181.54 299.71 181.57 299.68 181.62 299.65 181.7 299.59 181.79 299.55 181.89 299.51 181.96 299.47 182.05 299.45 182.11 299.43 182.17 299.41 182.23 299.4 182.28 299.37 182.33 299.35 182.39 299.32 182.45 299.32 182.46 299.29 182.51 299.26 182.57 299.23 182.63 299.2 182.65 299.17 182.69 299.14 182.71 299.12 182.75 299.09 182.78 299.06 182.81 299.03 182.85 298.83 183.43 298.41 184.3 298.71 185.28 298.58 185.95 298.9 186.68 298.9 187.03 298.65 187.36 298.59 187.57 298.81 188.93 297.87 189.54 297.41 190.03 297.33 190.14 297.17 190.19 297.12 190.22 297.05 190.3 297.01 190.38 296.97 190.46 296.92 190.51 296.87 190.55 296.79 190.58 296.7 190.6 296.63 190.59 296.58 190.56 296.49 190.53 296.38 190.52 296.28 190.51 296.17 190.49 295.95 190.42 295.78 190.35 295.69 190.32 295.63 190.24 295.58 190.16 295.53 190.02 295.49 189.94 295.46 189.88 295.28 189.67 295.14 189.55 295.08 189.51 295.03 189.48 294.98 189.44 294.88 189.4 294.84 189.39 294.78 189.36 294.74 189.35 294.69 189.32 294.61 189.29 294.55 189.28 294.49 189.26 294.45 189.25 294.42 189.24 294.34 189.21 294.22 189.2 294.08 189.2 293.95 189.22 293.88 189.24 293.66 189.29 293.5 189.38 293.27 189.45 293.17 189.5 293.09 189.51 292.8 189.5 292.58 189.53 292.37 189.56 292.17 189.59 292.08 189.59 291.91 189.58 291.74 189.52 291.58 189.36 291.51 189.27 291.42 189.17 291.27 189.07 291.21 189.03 291.16 189 291 188.87 290.91 188.76 290.86 188.67 290.83 188.61 290.73 188.56 290.56 188.48 290.5 188.45 290.38 188.4 290.33 188.38 290.27 188.36 290.2 188.34 290.14 188.31 290.09 188.29 290.04 188.28 290.01 188.26 289.94 188.23 289.86 188.2 289.81 188.17 289.77 188.15 289.73 188.15 289.71 188.15 289.69 188.16 289.65 188.18 289.62 188.19 289.58 188.21 289.56 188.23 289.52 188.24 289.49 188.24 289.44 188.24 289.41 188.24 289.37 188.26 289.34 188.28 289.31 188.31 289.28 188.31 287.42 187.79 287.38 187.79 287.39 187.71 287.39 187.68 287.4 187.61 287.41 187.54 287.43 187.46 287.44 187.38 287.45 187.3 287.46 187.23 287.48 187.18 287.5 187.13 287.51 187.11 287.53 187.05 287.47 187.09 287.45 187.09 287.41 187.15 287.38 187.2 287.31 187.31 287.23 187.45 287.19 187.52 287.17 187.56 287.11 187.65 287.06 187.72 287.05 187.74 287.02 187.77 286.99 187.81 286.97 187.83 286.94 187.88 286.92 187.91 286.9 187.96 286.87 187.99 286.84 188.02 286.8 188.05 286.74 188.08 286.69 188.08 286.65 188.08 286.62 188.07 286.58 188.05 286.56 188.03 286.53 187.99 286.5 187.96 286.48 187.92 286.46 187.89 286.42 187.86 286.38 187.84 286.33 187.81 286.28 187.8 286.24 187.79 286.21 187.8 286.15 187.8 286.1 187.81 286.05 187.83 285.97 187.87 285.93 187.92 285.91 187.93 285.85 188.01 285.8 188.07 285.75 188.13 285.75 188.14 285.7 188.23 285.66 188.27 285.61 188.32 285.56 188.39 285.5 188.46 285.44 188.53 285.41 188.57 285.35 188.61 285.31 188.64 285.26 188.66 285.2 188.67 285.15 188.68 285.09 188.68 285.04 188.67 285.01 188.66 284.94 188.64 284.88 188.6 284.84 188.56 284.79 188.55 284.73 188.54 284.68 188.55 284.64 188.56 284.6 188.59 284.59 188.61 284.58 188.66 284.57 188.7 284.57 188.72 284.56 188.75 284.55 188.8 284.54 188.82 284.53 188.84 284.52 188.85 284.49 188.9 284.45 188.95 284.41 188.99 284.38 189 284.31 189.02 284.26 189.02 284.22 189.02 284.16 189 284.08 188.98 283.99 188.98 283.88 188.97 283.86 188.97 283.77 188.97 283.7 188.96 283.62 188.95 283.55 188.95 283.51 188.95 283.49 188.96 283.48 188.96 283.47 188.97 283.46 188.99 283.46 189.01 283.46 189.04 283.46 189.06 283.45 189.15 283.45 189.2 283.45 189.28 283.46 189.38 283.46 189.45 283.44 189.52 283.41 189.58 283.38 189.64 283.34 189.68 283.29 189.71 283.24 189.75 283.22 189.77 283.2 189.76 283.18 189.74 283.14 189.69 283.09 189.62 283.05 189.57 283.03 189.55 283 189.55 282.98 189.55 282.95 189.55 282.92 189.55 282.88 189.54 282.85 189.52 282.82 189.49 282.81 189.46 282.8 189.45 282.77 189.43 282.7 189.41 282.66 189.39 282.54 189.33 282.51 189.28 282.49 189.24 282.49 189.23 282.48 189.21 282.46 189.15 282.45 189.09 282.43 189.04 282.43 189.01 282.41 188.95 282.4 188.9 282.38 188.86 282.36 188.84 282.34 188.82 282.31 188.79 282.29 188.77 282.27 188.74 282.24 188.69 282.23 188.67 282.22 188.63 282.21 188.6 282.21 188.58 282.21 188.56 282.21 188.53 282.22 188.51 282.23 188.48 282.26 188.43 282.29 188.39 282.32 188.37 282.34 188.31 282.34 188.27 282.33 188.21 282.31 188.13 282.31 188.1 282.3 188.04 282.3 188.01 282.29 187.98 282.28 187.95 282.27 187.91 282.26 187.87 282.26 187.85 282.26 187.82 282.25 187.8 282.24 187.77 282.2 187.75 282.16 187.73 282.11 187.71 282.07 187.7 282.03 187.68 282 187.66 281.97 187.64 281.95 187.6 281.94 187.56 281.93 187.53 281.94 187.49 281.95 187.45 281.96 187.4 281.96 187.36 281.95 187.34 281.93 187.31 281.9 187.28 281.87 187.26 281.83 187.25 281.79 187.23 281.73 187.21 281.69 187.18 281.66 187.16 281.65 187.12 281.62 187.07 281.6 187.03 281.59 186.98 281.57 186.94 281.52 186.89 281.48 186.84 281.44 186.81 281.41 186.78 281.38 186.77 281.36 186.73 281.33 186.69 281.3 186.63 281.26 186.57 281.25 186.51 281.22 186.47 281.19 186.42 281.16 186.33 281.14 186.3 281.11 186.26 281.09 186.22 281.05 186.17 281.02 186.14 280.98 186.1 280.94 186.06 280.9 186.04 280.87 186.01 280.84 185.98 280.82 185.95 280.81 185.92 280.79 185.88 280.78 185.82 280.77 185.76 280.75 185.7 280.74 185.66 280.73 185.62 280.71 185.56 280.7 185.53 280.67 185.49 280.64 185.46 280.62 185.42 280.6 185.37 280.61 185.33 280.61 185.3 280.63 185.27 280.65 185.23 280.69 185.19 280.71 185.15 280.72 185.12 280.73 185.08 280.73 185.03 280.73 184.98 280.71 184.92 280.68 184.86 280.67 184.83 280.65 184.79 280.64 184.77 280.62 184.75 280.58 184.7 280.51 184.66 280.47 184.62 280.43 184.59 280.37 184.55 280.3 184.51 280.25 184.49 280.22 184.47 280.19 184.44 280.18 184.4 280.18 184.36 280.19 184.29 280.18 184.24 280.17 184.21 280.15 184.17 280.13 184.13 280.08 184.07 280.03 183.99 279.99 183.94 279.95 183.88 279.94 183.85 279.94 183.83 279.94 183.78 279.95 183.75 279.95 183.71 279.93 183.66 279.9 183.62 279.9 183.59 279.89 183.58 279.87 183.52 279.87 183.49 279.85 183.46 279.83 183.42 279.82 183.38 279.82 183.34 279.81 183.28 279.8 183.24 279.78 183.2 279.77 183.19 279.73 183.16 279.68 183.13 279.62 183.1 279.56 183.07 279.5 183.05 279.44 183.03 279.43 183.02 279.4 183.01 279.36 182.99 279.32 182.96 279.29 182.94 279.25 182.91 279.21 182.88 279.18 182.86 279.14 182.84 279.1 182.83 279.05 182.82 279.01 182.81 278.98 182.8 278.94 182.77 278.9 182.73 278.86 182.68 278.81 182.61 278.79 182.57 278.76 182.54 278.72 182.51 278.68 182.5 278.62 182.48 278.57 182.48 278.52 182.47 278.48 182.44 278.45 182.42 278.42 182.41 278.35 182.4 278.27 182.4 278.23 182.4 278.21 182.4 278.17 182.4 278.08 182.39 277.99 182.38 277.91 182.37 277.84 182.36 277.77 182.36 277.72 182.35 277.68 182.35 277.65 182.34 277.61 182.31 277.58 182.28 277.54 182.26 277.5 182.26 277.44 182.26 277.37 182.27 277.32 182.27 277.29 182.26 277.21 182.26 277.17 182.26 277.1 182.26 277.03 182.26 276.98 182.26 276.93 182.25 276.86 182.24 276.79 182.23 276.73 182.24 276.64 182.25 276.54 182.28 276.47 182.3 276.42 182.32 276.4 182.34 276.35 182.36 276.26 182.4 276.19 182.43 276.13 182.47 276.04 182.52 275.98 182.54 275.91 182.57 275.84 182.6 275.78 182.62 275.73 182.63 275.68 182.63 275.63 182.63 275.6 182.62 275.55 182.61 275.52 182.61 275.47 182.59 275.44 182.58 275.42 182.57 275.4 182.56 275.38 182.56 275.35 182.56 275.34 182.56 275.24 182.61 275.19 182.64 275.13 182.66 275.07 182.7 275.03 182.72 274.98 182.75 274.95 182.76 274.95 182.77 274.93 182.78 274.9 182.82 274.89 182.82 274.86 182.85 274.82 182.91 274.8 182.93 274.77 182.95 274.74 182.97 274.71 182.98 274.68 182.99 274.65 183 274.63 183 274.62 183.01 274.6 183.01 274.57 183.01 274.55 183.01 274.52 183.01 274.5 183.02 274.48 183.04 274.45 183.07 274.43 183.08 274.4 183.1 274.36 183.11 274.33 183.13 274.31 183.13 274.29 183.14 273.82 183.23 273.47 183.3 273.43 183.26 273.39 183.23 273.35 183.2 273.28 183.16 273.21 183.1 273.16 183.06 273.12 183 273.08 182.95 273.05 182.9 273.03 182.87 272.99 182.83 272.94 182.82 272.89 182.83 272.84 182.83 272.76 182.82 272.69 182.8 272.61 182.79 272.55 182.79 272.5 182.77 272.44 182.74 272.41 182.72 272.4 182.72 272.35 182.69 272.31 182.66 272.26 182.61 272.23 182.58 272.21 182.55 272.18 182.49 272.14 182.45 272.12 182.42 272.08 182.37 272.05 182.36 272.02 182.35 271.95 182.32 271.9 182.3 271.86 182.28 271.81 182.26 271.76 182.23 271.71 182.21 271.72 182.19 272.03 181.7 270.88 181.57 270.94 180.92 271.18 178.63 271.19 178.24 271.41 176.48 271.88 172.84 273.22 171.12 275.16 171.18 275.91 171.22 278.16 171.36 279.75 171.59 282.43 166.56 281.92 165.02 281.92 164.99 281.92 164.96 281.92 164.94 281.91 164.92 281.91 164.77 281.91 164.73 281.89 164.65 281.88 164.59 281.86 164.54 281.84 164.48 281.81 164.4 281.78 164.35 281.77 164.3 281.77 164.27 282.34 164.08 284.8 160.11 284.54 157.85 283.79 156.84 283.53 155.18 283.85 154.88 284.14 154.63 284.57 154.22 285.41 153.37 286 152.67 287.96 153.13 288.16 152.87 288.16 152.86 288.87 153.13 288.91 153.3 289.45 153.39 290.12 153.41 290.3 153.45 290.5 153.55 290.41 153.66 290.13 153.76 290.03 153.92 289.9 154.14 289.82 154.35 291.27 154.44 291.34 154.39 291.41 154.36 291.46 154.33 291.52 154.31 291.61 154.29 291.67 154.28 291.75 154.26 291.79 154.24 291.83 154.21 291.83 154.21 291.84 154.18 291.86 154.15 291.87 154.09 291.88 154.02 291.89 153.98 291.91 153.93 291.93 153.89 291.97 153.84 292 153.82 293.05 154.33 293.57 153.68 293.89 154.19 294.35 154.26 294.53 154.86 294.63 155.15 295.12 155.28 295.78 155.47 295.92 154.97 296.81 154.73 297.66 155.46 298.33 155.72 298.72 155.72 299.25 155.74 300.54 155.46 300.59 155.36 300.6 155.36 300.66 155.4 300.69 155.43 300.73 155.48 300.75 155.53 300.77 155.59 300.77 155.66 300.77 155.72 300.76 155.76 300.75 155.82 300.74 155.86 300.82 155.86 300.85 155.87 300.88 155.88 300.92 155.89 300.96 155.88 301 155.88 301.04 155.86 301.05 155.86 301.08 155.85 301.11 155.84 301.18 155.83 301.24 155.82 301.27 155.81 301.3 155.8 301.34 155.8 301.39 155.8 301.43 155.81 301.45 155.82 301.46 155.82 301.49 155.83 301.55 155.85 301.59 155.86 301.61 155.86 301.63 155.87 301.65 155.87 301.68 155.87 301.71 155.87 301.73 155.87 301.74 155.87 301.75 155.87 301.78 155.86 301.81 155.84 301.85 155.83 301.9 155.8 301.94 155.79 301.96 155.76 301.97 155.75 301.99 155.72 302.01 155.7 302.04 155.68 302.08 155.63 302.11 155.59 302.14 155.55 302.19 155.5 302.24 155.46 302.27 155.44 302.29 155.42 302.32 155.4 302.36 155.38 302.4 155.35 302.44 155.32 302.47 155.29 302.51 155.26 302.54 155.24 302.55 155.21 302.59 155.18 302.6 155.16 302.61 155.13 302.64 155.1 302.66 155.07 302.67 155.03 302.67 155.01 302.69 154.98 302.71 154.96 302.73 154.94 302.77 154.92 302.83 154.9 302.89 154.88 302.96 154.87 303.03 154.84 303.09 154.83 303.16 154.82 303.22 154.81 303.28 154.79 303.29 154.79 303.29 154.81 305.48 153.69 305.77 153.29 307.23 152.72 307.61 152.2 308.05 151.05 308.22 150.34 Z"/>
</g></svg>