<svg xmlns="http://www.w3.org/2000/svg" version="1.2" baseProfile="tiny" stroke-linecap="round" stroke-linejoin="round" viewBox="188.12 41.4 31.82 31.73"><g xmlns="http://www.w3.org/2000/svg" id="Bermeo">
<path d="M 219.9 54.32 219.89 54.32 219.85 54.32 219.81 54.32 219.8 54.32 219.78 54.31 219.76 54.3 219.75 54.28 219.74 54.27 219.72 54.26 219.71 54.25 219.69 54.24 219.68 54.23 219.67 54.22 219.66 54.2 219.62 54.18 219.59 54.17 219.58 54.16 219.57 54.15 219.55 54.14 219.54 54.13 219.53 54.12 219.52 54.11 219.5 54.1 219.49 54.09 219.47 54.07 219.45 54.05 219.43 54.03 219.42 54.02 219.41 54 219.39 53.98 219.37 53.97 219.33 53.94 219.28 53.91 219.27 53.89 219.25 53.88 219.23 53.87 219.2 53.84 219.16 53.81 219.12 53.77 219.11 53.76 219.08 53.72 219.08 53.71 219.07 53.68 219.06 53.67 219.05 53.65 219.03 53.63 219.02 53.62 219.01 53.6 219 53.58 218.98 53.57 218.96 53.55 218.93 53.51 218.91 53.51 218.89 53.49 218.86 53.47 218.85 53.46 218.82 53.43 218.79 53.4 218.77 53.38 218.75 53.36 218.72 53.34 218.7 53.33 218.64 53.29 218.63 53.29 218.61 53.27 218.58 53.25 218.56 53.24 218.54 53.22 218.44 53.14 218.44 53.13 218.4 53.07 218.39 53.05 218.36 53.01 218.34 52.99 218.33 52.98 218.31 52.96 218.3 52.95 218.29 52.94 218.31 52.94 218.34 52.95 218.34 52.94 218.35 52.92 218.36 52.92 218.37 52.93 218.39 52.94 218.42 52.95 218.46 52.98 218.47 52.98 218.48 52.99 218.51 52.99 218.52 53 218.54 53.01 218.56 53.02 218.57 53.04 218.59 53.05 218.6 53.05 218.6 53.06 218.62 53.08 218.64 53.1 218.66 53.12 218.69 53.15 218.7 53.14 218.73 53.14 218.73 53.15 218.77 53.16 218.79 53.18 218.81 53.19 218.84 53.2 218.87 53.22 218.9 53.23 218.91 53.24 218.93 53.26 218.95 53.27 218.97 53.28 218.98 53.29 219 53.3 219.02 53.32 219.06 53.34 219.08 53.36 219.09 53.37 219.1 53.39 219.11 53.41 219.12 53.43 219.13 53.44 219.14 53.45 219.17 53.46 219.18 53.47 219.22 53.49 219.26 53.51 219.27 53.52 219.29 53.53 219.31 53.55 219.32 53.56 219.33 53.57 219.35 53.56 219.34 53.53 219.34 53.52 219.35 53.51 219.36 53.51 219.39 53.51 219.42 53.51 219.43 53.51 219.45 53.52 219.46 53.52 219.47 53.51 219.48 53.5 219.48 53.47 219.5 53.48 219.51 53.48 219.56 53.5 219.57 53.49 219.58 53.48 219.59 53.48 219.6 53.49 219.62 53.5 219.64 53.51 219.65 53.5 219.65 53.49 219.66 53.46 219.67 53.44 219.68 53.43 219.69 53.43 219.7 53.43 219.71 53.43 219.72 53.43 219.75 53.44 219.77 53.46 219.79 53.48 219.83 53.5 219.86 53.53 219.88 53.55 219.89 53.57 219.9 53.58 219.9 53.6 219.9 53.61 219.9 53.62 219.91 53.63 219.91 53.64 219.91 53.65 219.91 53.66 219.9 53.67 219.89 53.68 219.88 53.69 219.85 53.69 219.84 53.71 219.83 53.72 219.83 53.73 219.83 53.74 219.83 53.74 219.83 53.76 219.83 53.76 219.83 53.77 219.82 53.79 219.83 53.8 219.86 53.83 219.86 53.84 219.88 53.88 219.88 53.89 219.89 53.91 219.89 53.91 219.89 53.93 219.89 53.94 219.89 53.95 219.89 53.97 219.89 53.99 219.9 54.01 219.88 54.02 219.87 54.02 219.87 54.03 219.87 54.03 219.87 54.04 219.86 54.07 219.85 54.1 219.85 54.12 219.85 54.14 219.85 54.15 219.85 54.16 219.85 54.18 219.85 54.2 219.85 54.21 219.87 54.23 219.86 54.24 219.85 54.25 219.86 54.26 219.86 54.26 219.86 54.27 219.86 54.28 219.86 54.29 219.87 54.3 219.88 54.3 219.91 54.32 219.9 54.32 Z M 210.55 56.39 210.58 56.83 210.6 56.86 210.64 56.9 210.72 56.95 210.78 56.98 210.79 57.01 211.02 57.1 211.13 57.18 211.22 57.26 211.25 57.3 211.27 57.4 211.28 57.45 211.3 57.63 211.31 57.84 211.29 57.94 211.28 58.05 211.19 58.26 211.17 58.33 211.13 58.56 211.01 58.69 210.95 58.78 210.87 58.86 210.84 58.97 210.82 59.27 210.82 59.33 210.85 59.44 210.85 59.56 210.79 59.78 210.79 59.84 210.8 59.96 210.82 60.29 210.54 61.16 208.7 62.75 208.21 63.12 207.13 63.51 207.07 63.51 206.75 63.58 206.35 63.72 205.75 63.92 205.74 64.01 205.76 64.12 205.77 64.12 205.78 64.13 205.79 64.14 205.8 64.14 205.81 64.15 205.82 64.15 205.83 64.16 205.84 64.16 205.85 64.17 205.86 64.17 205.87 64.17 205.88 64.18 205.9 64.18 205.91 64.19 205.92 64.2 205.94 64.21 205.95 64.21 205.96 64.22 205.98 64.23 205.99 64.24 206 64.25 206.01 64.26 206.03 64.27 206.04 64.28 206.05 64.29 206.06 64.3 206.07 64.31 206.07 64.32 206.08 64.33 206.09 64.34 206.09 64.35 206.1 64.36 206.1 64.37 206.11 64.38 206.11 64.39 206.11 64.4 206.11 64.41 206.11 64.42 206.11 64.43 206.11 64.44 206.1 64.45 206.1 64.46 206.09 64.47 206.08 64.48 206.07 64.49 206.06 64.49 206.05 64.5 206.02 64.51 205.78 64.57 204.93 64.82 205.31 64.85 205.65 65.5 205.92 65.77 206 65.81 206.09 65.83 206.12 65.79 206.34 65.91 206.37 65.99 206.72 66.32 207 66.64 207.27 66.83 208.25 67.68 207.82 68.02 207.46 68.4 206.79 68.93 206.37 69.19 205.47 69.71 201.38 71.65 200.19 71.9 199.11 72.07 197.91 72.11 197.74 72.3 197.48 72.46 197.16 72.61 196.9 73.13 196.09 72.7 195.5 71.78 194.53 70.15 194.42 70.04 194.24 69.8 194.17 69.76 194.1 69.61 194.06 69.56 194.04 69.54 194.01 69.51 193.98 69.5 193.87 69.44 193.8 69.35 193.68 69.2 193.66 69.09 193.55 68.9 193.54 68.7 193.54 68.66 193.52 68.54 193.46 68.45 193.37 68.32 193.2 68.18 193.17 68.12 193.14 67.99 193.13 67.89 193.11 67.73 193.1 67.66 193.03 67.53 193.03 67.47 193.05 67.39 193.05 67.25 193.03 67.16 192.96 67.04 192.92 67.02 192.86 66.93 192.72 66.83 192.6 66.71 192.61 66.68 192.69 66.61 192.71 66.54 192.69 66.44 192.63 66.41 192.59 66.35 192.56 66.25 192.57 66.21 192.6 66.15 192.65 65.99 192.63 65.85 192.64 65.8 192.68 65.63 192.65 65.59 192.6 65.46 192.59 65.3 192.57 65.2 192.54 65.08 192.43 64.81 192.4 64.61 192.39 64.34 192.38 64.26 192.17 64.22 192.08 64.18 191.92 64.14 191.72 64.29 191.65 64.31 191.62 64.23 191.61 64.06 191.6 63.99 191.51 63.96 191.37 64.02 191.23 64 191.21 63.87 191.17 63.8 191.19 63.69 191.16 63.63 190.94 63.52 190.89 63.41 190.78 63.32 190.63 63.32 190.6 63.28 190.61 63.24 190.68 63.15 190.65 63.1 190.42 63.01 190.39 62.94 190.38 62.67 190.29 62.62 190.21 62.65 189.91 62.72 189.74 62.7 189.67 62.62 189.53 62.59 189.45 62.62 189.3 62.78 189.22 62.8 189.16 62.75 189.05 62.54 189 62.51 188.81 62.51 188.71 62.49 188.62 62.41 188.39 62.24 188.12 61.94 188.14 61.87 188.15 61.34 188.2 61.38 188.23 61.43 188.25 61.47 188.28 61.52 188.34 61.53 188.46 61.53 188.51 61.53 188.56 61.56 188.59 61.6 188.66 61.65 188.67 61.59 188.69 61.46 188.67 61.42 188.63 61.39 188.55 61.34 188.41 60.35 188.62 60.53 188.6 60.3 188.7 60.26 188.67 59.79 188.48 59.52 188.66 58.81 189.39 56.68 189.61 55.91 189.82 55.67 190.17 55.27 190.38 55.19 190.49 55.08 190.51 55.08 190.53 55.07 190.55 55.06 190.56 55.05 190.57 55.03 190.58 55 190.59 54.98 190.61 54.95 190.63 54.93 190.64 54.91 190.67 54.88 190.69 54.87 190.72 54.85 190.74 54.84 190.76 54.83 190.78 54.82 190.82 54.8 190.86 54.77 190.9 54.74 190.94 54.7 191.04 54.65 191.08 54.62 191.13 54.59 191.15 54.57 191.16 54.55 191.17 54.43 191.17 54.38 191.16 54.33 191.15 54.27 191.15 54.25 191.17 54.22 191.13 54.14 191.03 54.12 191.01 54.11 190.98 54.09 190.94 54.06 190.93 54.04 190.92 54.03 190.9 54.01 190.88 53.96 190.87 53.94 190.85 53.93 190.84 53.87 190.93 53.19 191.04 52.1 191.14 51.83 191.29 51.46 191.29 51.45 191.36 51.03 191.38 50.98 191.49 50.78 191.55 50.6 191.57 50.56 191.57 50.51 191.6 50.44 191.68 50.35 191.73 50.3 191.76 50.29 191.95 49.82 192.03 49.52 192.24 49.06 192.39 48.81 192 48.48 191.8 48.29 191.13 47.54 191.34 46.97 191.47 46.96 191.41 46.91 191.37 46.89 191.34 46.85 191.35 46.79 191.46 46.73 191.45 46.68 191.43 46.65 191.4 46.63 191.37 46.61 191.25 46.56 191.23 46.51 191.22 46.48 191.19 46.46 191.16 46.45 191.09 46.43 190.92 46.32 190.87 46.29 190.83 46.23 190.8 46.18 190.75 46.13 190.65 46.06 190.65 46.05 190.66 46 190.65 45.99 190.64 45.97 190.63 45.95 190.63 45.93 190.64 45.92 190.63 45.9 190.62 45.88 190.6 45.86 190.58 45.85 190.57 45.85 190.55 45.86 190.55 45.88 190.54 45.9 190.52 45.9 190.5 45.9 190.48 45.91 190.47 45.91 190.45 45.89 190.45 45.87 190.46 45.85 190.46 45.82 190.47 45.8 190.48 45.77 190.48 45.76 190.5 45.75 190.51 45.75 190.52 45.74 190.51 45.73 190.5 45.71 190.49 45.69 190.49 45.67 190.49 45.64 190.48 45.62 190.47 45.6 190.45 45.59 190.43 45.57 190.4 45.56 190.38 45.55 190.36 45.53 190.34 45.51 190.33 45.48 190.32 45.46 190.3 45.44 190.28 45.43 190.27 45.41 190.27 45.37 190.26 45.37 190.23 45.39 190.22 45.4 190.21 45.42 190.19 45.43 190.17 45.45 190.15 45.46 190.14 45.48 190.13 45.5 190.11 45.51 190.1 45.53 190.08 45.54 190.07 45.56 190.05 45.57 190.03 45.58 190.01 45.58 189.99 45.57 189.96 45.55 189.94 45.53 189.92 45.51 189.91 45.48 189.9 45.45 189.88 45.4 189.86 45.38 189.86 45.36 189.87 45.34 189.89 45.33 189.91 45.32 189.92 45.3 189.92 45.29 189.93 45.26 189.94 45.24 189.96 45.22 189.99 45.2 190.01 45.19 190.03 45.18 190.05 45.18 190.08 45.19 190.1 45.2 190.11 45.22 190.13 45.23 190.15 45.23 190.17 45.23 190.19 45.23 190.2 45.22 190.2 45.2 190.19 45.18 190.18 45.16 190.18 45.13 190.18 45.1 190.17 44.98 190.18 44.95 190.18 44.92 190.18 44.9 190.18 44.87 190.18 44.86 190.2 44.86 190.22 44.86 190.24 44.88 190.27 44.89 190.29 44.9 190.31 44.9 190.33 44.9 190.34 44.9 190.35 44.92 190.35 44.94 190.35 44.96 190.35 44.97 190.36 44.98 190.38 44.97 190.39 44.96 190.39 44.94 190.4 44.91 190.43 44.86 190.44 44.84 190.45 44.82 190.47 44.8 190.49 44.78 190.52 44.78 190.56 44.77 190.58 44.76 190.58 44.74 190.58 44.73 190.59 44.72 190.6 44.72 190.62 44.73 190.62 44.76 190.63 44.78 190.63 44.8 190.65 44.82 190.66 44.84 190.67 44.87 190.69 44.89 190.71 44.9 190.73 44.9 190.74 44.89 190.75 44.87 190.77 44.86 190.79 44.85 190.81 44.84 190.81 44.8 190.81 44.78 190.82 44.76 190.84 44.75 190.86 44.75 190.88 44.76 190.9 44.78 190.91 44.79 190.92 44.8 190.94 44.81 190.95 44.83 190.96 44.86 190.95 44.88 190.94 44.91 190.92 44.93 190.91 44.95 190.89 44.96 190.87 44.95 190.85 44.94 190.84 44.93 190.83 44.93 190.82 44.95 190.83 44.97 190.83 44.99 190.82 45 190.79 45.01 190.78 45.01 190.77 45.02 190.77 45.06 190.77 45.09 190.76 45.11 190.77 45.14 190.78 45.15 190.79 45.17 190.79 45.22 190.78 45.26 190.78 45.29 190.78 45.3 190.77 45.32 190.76 45.34 190.74 45.36 190.69 45.36 190.67 45.37 190.65 45.39 190.64 45.41 190.62 45.44 190.62 45.46 190.61 45.47 190.62 45.49 190.64 45.5 190.64 45.52 190.63 45.54 190.62 45.55 190.6 45.57 190.6 45.58 190.61 45.59 190.62 45.61 190.63 45.63 190.63 45.65 190.63 45.66 190.61 45.68 190.6 45.69 190.62 45.71 190.63 45.73 190.64 45.75 190.64 45.77 190.65 45.79 190.66 45.8 190.67 45.83 190.71 45.86 190.73 45.88 190.75 45.89 190.78 45.9 190.8 45.92 190.82 45.94 190.84 45.99 190.85 46.01 190.87 46.03 190.9 46.04 190.92 46.05 190.95 46.1 190.97 46.12 191 46.13 191.02 46.13 191.04 46.14 191.06 46.14 191.08 46.15 191.09 46.15 191.11 46.15 191.14 46.16 191.16 46.16 191.21 46.16 191.34 46.16 191.37 46.16 191.39 46.16 191.43 46.17 191.46 46.17 191.48 46.18 191.5 46.18 191.53 46.19 191.57 46.2 191.58 46.21 191.61 46.21 191.65 46.22 191.67 46.23 191.68 46.24 191.7 46.25 191.74 46.27 191.76 46.28 191.77 46.29 191.81 46.3 191.83 46.32 191.86 46.34 191.88 46.35 191.9 46.36 191.93 46.37 191.96 46.37 191.99 46.37 192.02 46.36 192.14 46.34 192.22 46.31 192.25 46.31 192.27 46.31 192.28 46.3 192.3 46.29 192.32 46.28 192.33 46.26 192.35 46.24 192.39 46.2 192.41 46.18 192.44 46.16 192.46 46.15 192.48 46.13 192.51 46.12 192.53 46.11 192.55 46.1 192.58 46.1 192.6 46.1 192.63 46.1 192.66 46.11 192.69 46.11 192.72 46.11 192.74 46.11 192.8 46.12 192.83 46.12 192.85 46.12 192.88 46.11 192.9 46.11 192.92 46.09 192.94 46.08 192.96 46.06 193.01 46.03 193.05 46 193.07 45.98 193.09 45.96 193.11 45.95 193.13 45.92 193.14 45.9 193.19 45.83 193.21 45.81 193.22 45.79 193.24 45.77 193.26 45.76 193.27 45.74 193.29 45.73 193.31 45.72 193.33 45.7 193.35 45.69 193.37 45.68 193.39 45.67 193.41 45.66 193.43 45.65 193.47 45.64 193.49 45.63 193.51 45.63 193.53 45.62 193.55 45.61 193.57 45.6 193.58 45.59 193.59 45.58 193.6 45.54 193.59 45.51 193.59 45.49 193.58 45.47 193.58 45.45 193.57 45.43 193.57 45.41 193.57 45.37 193.57 45.35 193.57 45.33 193.58 45.31 193.59 45.29 193.6 45.23 193.61 45.2 193.63 45.19 193.64 45.17 193.66 45.16 193.72 45.11 193.74 45.1 193.76 45.09 193.77 45.08 193.82 45.06 193.85 45.04 193.9 45.01 193.93 45 193.94 44.99 193.96 45.01 193.97 45.04 193.97 45.06 193.98 45.08 193.98 45.1 193.98 45.14 193.98 45.15 193.99 45.16 194.01 45.15 194.04 45.14 194.06 45.12 194.09 45.1 194.1 45.08 194.12 45.06 194.14 45.05 194.16 45.04 194.18 45.03 194.2 45.01 194.22 44.99 194.23 44.96 194.24 44.95 194.24 44.93 194.24 44.91 194.24 44.89 194.23 44.85 194.23 44.84 194.24 44.84 194.26 44.84 194.28 44.84 194.31 44.83 194.33 44.82 194.35 44.8 194.37 44.8 194.43 44.8 194.45 44.8 194.47 44.8 194.49 44.79 194.51 44.79 194.54 44.78 194.56 44.78 194.58 44.78 194.6 44.78 194.62 44.78 194.63 44.78 194.65 44.78 194.67 44.77 194.7 44.75 194.72 44.74 194.73 44.73 194.73 44.71 194.74 44.68 194.74 44.67 194.76 44.65 194.8 44.63 194.84 44.63 194.87 44.64 194.9 44.65 194.91 44.65 194.93 44.63 194.96 44.62 194.98 44.62 195.02 44.62 195.05 44.61 195.08 44.6 195.09 44.6 195.12 44.61 195.13 44.62 195.13 44.64 195.14 44.66 195.16 44.66 195.17 44.66 195.17 44.64 195.17 44.6 195.17 44.58 195.19 44.57 195.24 44.54 195.27 44.53 195.29 44.52 195.31 44.51 195.33 44.51 195.36 44.52 195.38 44.54 195.39 44.55 195.41 44.56 195.42 44.57 195.44 44.6 195.45 44.62 195.47 44.63 195.48 44.65 195.49 44.67 195.51 44.69 195.54 44.71 195.57 44.72 195.6 44.73 195.64 44.74 195.67 44.74 195.71 44.75 195.74 44.75 195.77 44.75 195.82 44.75 195.85 44.75 195.87 44.74 195.9 44.74 196.03 44.7 196.13 44.67 196.16 44.66 196.19 44.65 196.26 44.63 196.3 44.61 196.33 44.6 196.4 44.58 196.44 44.57 196.47 44.55 196.51 44.54 196.54 44.53 196.61 44.51 196.65 44.51 196.69 44.5 196.72 44.49 196.76 44.48 196.79 44.47 196.86 44.44 196.93 44.41 196.97 44.4 197 44.38 197.03 44.36 197.07 44.35 197.1 44.33 197.16 44.29 197.19 44.27 197.22 44.25 197.25 44.23 197.31 44.19 197.34 44.17 197.37 44.14 197.39 44.12 197.42 44.09 197.44 44.07 197.48 44.01 197.51 43.98 197.53 43.95 197.55 43.92 197.57 43.89 197.59 43.86 197.61 43.83 197.65 43.77 197.67 43.74 197.69 43.72 197.7 43.69 197.72 43.66 197.74 43.63 197.76 43.6 197.78 43.58 197.8 43.56 197.83 43.54 197.86 43.52 197.92 43.48 197.95 43.46 197.97 43.45 198 43.43 198.02 43.41 198.08 43.37 198.1 43.36 198.13 43.34 198.19 43.31 198.22 43.29 198.24 43.27 198.27 43.25 198.29 43.23 198.31 43.21 198.33 43.19 198.35 43.17 198.37 43.15 198.39 43.13 198.42 43.09 198.44 43.07 198.45 43.04 198.48 42.99 198.49 42.96 198.5 42.94 198.51 42.92 198.51 42.9 198.52 42.85 198.53 42.83 198.54 42.8 198.54 42.79 198.57 42.74 198.58 42.72 198.59 42.7 198.61 42.68 198.62 42.66 198.64 42.63 198.66 42.61 198.69 42.59 198.71 42.57 198.78 42.52 198.83 42.48 198.85 42.46 198.87 42.45 198.91 42.41 198.93 42.4 198.97 42.36 198.99 42.35 199.01 42.33 199.03 42.32 199.05 42.31 199.06 42.29 199.09 42.26 199.09 42.25 199.09 42.23 199.08 42.21 199.09 42.18 199.11 42.15 199.12 42.13 199.13 42.12 199.14 42.1 199.15 42.08 199.16 42.07 199.17 42.05 199.19 42.02 199.21 42.01 199.23 41.98 199.24 41.95 199.25 41.92 199.24 41.9 199.25 41.88 199.26 41.86 199.29 41.86 199.31 41.85 199.34 41.83 199.35 41.8 199.36 41.77 199.37 41.74 199.38 41.72 199.39 41.69 199.4 41.66 199.41 41.62 199.43 41.6 199.45 41.58 199.48 41.57 199.51 41.56 199.54 41.55 199.57 41.55 199.6 41.54 199.62 41.53 199.63 41.51 199.64 41.5 199.65 41.49 199.67 41.5 199.7 41.51 199.72 41.53 199.72 41.55 199.72 41.57 199.73 41.58 199.74 41.59 199.75 41.57 199.75 41.55 199.74 41.5 199.73 41.48 199.73 41.45 199.74 41.43 199.75 41.41 199.76 41.41 199.78 41.42 199.8 41.43 199.82 41.45 199.87 41.49 199.9 41.51 199.92 41.53 199.95 41.54 199.96 41.56 199.97 41.58 199.99 41.59 200.01 41.6 200.02 41.61 200.02 41.62 200 41.63 200 41.65 199.99 41.66 199.99 41.67 200 41.69 200.01 41.72 200.02 41.73 200.04 41.73 200.06 41.74 200.08 41.76 200.1 41.78 200.13 41.79 200.14 41.81 200.16 41.83 200.16 41.84 200.15 41.86 200.15 41.87 200.16 41.88 200.17 41.9 200.17 41.92 200.18 41.94 200.19 41.96 200.21 41.98 200.23 42 200.25 42 200.27 42 200.29 41.99 200.3 41.99 200.31 42.01 200.32 42.02 200.32 42.01 200.32 42 200.34 41.99 200.35 42 200.38 42.01 200.4 42.04 200.44 42.09 200.45 42.1 200.46 42.12 200.47 42.13 200.48 42.15 200.5 42.17 200.51 42.18 200.54 42.23 200.56 42.25 200.57 42.27 200.57 42.28 200.56 42.29 200.54 42.29 200.52 42.28 200.51 42.28 200.51 42.28 200.52 42.3 200.54 42.31 200.56 42.31 200.58 42.32 200.6 42.34 200.62 42.36 200.63 42.38 200.64 42.39 200.7 42.45 200.72 42.46 200.75 42.49 200.77 42.51 200.8 42.54 200.81 42.56 200.84 42.59 200.85 42.61 200.87 42.62 200.89 42.63 200.9 42.64 200.92 42.66 200.93 42.67 200.94 42.69 200.94 42.73 200.94 42.74 200.96 42.77 200.98 42.79 200.99 42.81 201.01 42.84 201.02 42.86 201.03 42.88 201.06 42.92 201.08 42.95 201.09 42.97 201.12 43.01 201.14 43.05 201.18 43.13 201.19 43.15 201.22 43.19 201.23 43.2 201.25 43.22 201.28 43.26 201.29 43.27 201.29 43.3 201.28 43.32 201.26 43.4 201.25 43.47 201.24 43.5 201.23 43.52 201.22 43.54 201.2 43.58 201.2 43.59 201.18 43.63 201.18 43.65 201.16 43.68 201.15 43.72 201.15 43.75 201.15 43.76 201.15 43.78 201.15 43.8 201.15 43.82 201.16 43.85 201.17 43.87 201.18 43.88 201.19 43.9 201.2 43.92 201.21 43.94 201.22 43.96 201.25 43.99 201.26 44.01 201.27 44.03 201.28 44.05 201.29 44.06 201.3 44.09 201.3 44.12 201.29 44.15 201.27 44.17 201.24 44.19 201.2 44.22 201.19 44.24 201.16 44.26 201.15 44.27 201.13 44.28 201.12 44.3 201.09 44.33 201.07 44.34 201.06 44.36 201.04 44.37 201.03 44.39 201.01 44.41 201 44.42 200.99 44.46 200.98 44.48 200.98 44.49 200.97 44.51 200.97 44.54 200.96 44.56 200.96 44.58 200.96 44.6 200.96 44.63 200.96 44.65 200.96 44.67 200.96 44.7 200.97 44.72 200.98 44.76 200.99 44.81 200.99 44.83 201 44.85 201.01 44.88 201.02 44.9 201.02 44.92 201.03 44.94 201.04 44.98 201.04 45 201.04 45.01 201.04 45.05 201.05 45.12 201.04 45.14 201.04 45.16 201.03 45.18 201.03 45.19 201.01 45.22 200.99 45.25 200.99 45.27 200.97 45.3 200.96 45.32 200.96 45.34 200.95 45.38 200.94 45.42 200.94 45.44 200.93 45.46 200.93 45.48 200.93 45.5 200.93 45.52 200.93 45.61 200.93 45.63 200.93 45.68 200.93 45.7 200.93 46.01 200.93 46.03 200.94 46.06 200.94 46.08 200.95 46.1 200.95 46.12 200.96 46.14 200.97 46.16 200.97 46.18 200.98 46.2 200.99 46.22 201 46.24 201.01 46.26 201.01 46.29 201.03 46.32 201.04 46.35 201.05 46.37 201.07 46.39 201.08 46.42 201.12 46.48 201.13 46.5 201.15 46.52 201.18 46.55 201.21 46.58 201.22 46.59 201.27 46.64 201.28 46.66 201.31 46.68 201.33 46.7 201.36 46.73 201.38 46.74 201.39 46.75 201.41 46.77 201.42 46.79 201.43 46.8 201.44 46.82 201.49 46.88 201.51 46.91 201.52 46.92 201.53 46.94 201.54 46.96 201.54 46.98 201.55 47.02 201.56 47.04 201.57 47.05 201.59 47.11 201.6 47.12 201.62 47.16 201.63 47.19 201.64 47.21 201.65 47.23 201.66 47.24 201.69 47.3 201.7 47.32 201.72 47.35 201.73 47.37 201.75 47.41 201.77 47.44 201.78 47.46 201.79 47.48 201.8 47.51 201.8 47.53 201.82 47.57 201.84 47.61 201.85 47.63 201.85 47.66 201.86 47.68 201.87 47.7 201.88 47.72 201.9 47.78 201.91 47.8 201.92 47.82 201.94 47.85 201.97 47.92 202.09 48.21 202.09 48.22 202.11 48.26 202.14 48.31 202.15 48.33 202.16 48.36 202.17 48.38 202.18 48.39 202.19 48.42 202.2 48.44 202.2 48.44 202.2 48.46 202.21 48.47 202.22 48.51 202.24 48.56 202.26 48.61 202.27 48.63 202.27 48.66 202.28 48.68 202.28 48.71 202.28 48.75 202.28 48.77 202.28 48.78 202.29 48.82 202.3 48.85 202.3 48.9 202.31 48.96 202.31 48.99 202.31 49.11 202.31 49.13 202.29 49.23 202.27 49.32 202.27 49.34 202.27 49.37 202.26 49.38 202.27 49.42 202.27 49.47 202.27 49.5 202.27 49.52 202.28 49.54 202.29 49.58 202.29 49.6 202.29 49.63 202.29 49.65 202.3 49.67 202.33 49.72 202.33 49.73 202.34 49.75 202.34 49.81 202.35 49.83 202.35 49.84 202.37 49.88 202.39 49.92 202.39 49.93 202.4 49.94 202.42 49.97 202.43 49.98 202.45 50.02 202.48 50.09 202.49 50.12 202.51 50.15 202.52 50.17 202.53 50.19 202.58 50.24 202.61 50.28 202.64 50.31 202.65 50.32 202.67 50.33 202.69 50.33 202.71 50.35 202.74 50.37 202.79 50.41 202.87 50.48 202.92 50.52 202.95 50.54 202.96 50.55 203.01 50.61 203.09 50.67 203.13 50.7 203.14 50.71 203.16 50.72 203.17 50.73 203.18 50.74 203.19 50.75 203.2 50.76 203.23 50.79 203.24 50.8 203.26 50.83 203.29 50.88 203.29 50.89 203.3 50.91 203.3 50.92 203.31 50.94 203.31 50.95 203.31 50.96 203.32 51.05 203.32 51.06 203.35 51.12 203.35 51.15 203.36 51.22 203.37 51.23 203.38 51.26 203.39 51.29 203.4 51.31 203.4 51.38 203.4 51.4 203.43 51.51 203.43 51.56 203.44 51.61 203.44 51.69 203.45 51.75 203.46 51.8 203.47 51.83 203.48 51.85 203.5 51.89 203.5 51.9 203.55 51.96 203.6 52.02 203.62 52.05 203.65 52.09 203.66 52.1 203.68 52.11 203.72 52.14 203.74 52.16 203.75 52.18 203.76 52.18 203.79 52.21 203.83 52.23 203.86 52.25 203.91 52.29 203.94 52.3 203.98 52.34 204.03 52.38 204.05 52.4 204.07 52.41 204.1 52.44 204.13 52.46 204.15 52.48 204.2 52.52 204.27 52.56 204.3 52.57 204.31 52.58 204.33 52.58 204.34 52.58 204.35 52.58 204.35 52.58 204.38 52.55 204.4 52.54 204.43 52.53 204.44 52.53 204.44 52.53 204.46 52.53 204.47 52.54 204.47 52.54 204.48 52.55 204.49 52.57 204.53 52.59 204.53 52.61 204.52 52.62 204.51 52.63 204.49 52.65 204.48 52.67 204.48 52.67 204.43 52.71 204.42 52.72 204.4 52.75 204.39 52.76 204.39 52.77 204.4 52.78 204.41 52.79 204.43 52.79 204.46 52.78 204.48 52.79 204.59 52.79 204.6 52.79 204.61 52.8 204.61 52.8 204.61 52.82 204.62 52.83 204.63 52.85 204.64 52.85 204.65 52.86 204.66 52.85 204.67 52.85 204.67 52.85 204.69 52.83 204.7 52.83 204.71 52.83 204.72 52.85 204.73 52.89 204.73 52.9 204.73 52.91 204.72 52.91 204.71 52.92 204.7 52.93 204.7 52.94 204.71 52.94 204.72 52.95 204.73 52.95 204.75 52.95 204.76 52.95 204.77 52.94 204.79 52.94 204.81 52.94 204.86 52.94 204.87 52.94 204.88 52.93 204.91 52.91 204.92 52.9 204.94 52.9 204.95 52.91 204.97 52.92 204.98 52.94 204.99 52.94 205 52.95 205.02 52.95 205.05 52.94 205.06 52.94 205.09 52.92 205.1 52.92 205.12 52.91 205.13 52.91 205.13 52.92 205.13 52.93 205.12 52.95 205.11 52.97 205.1 52.98 205.11 52.99 205.18 52.99 205.19 52.99 205.21 53 205.24 53.02 205.25 53.03 205.25 53.03 205.26 53.02 205.26 53.01 205.26 52.96 205.26 52.95 205.26 52.95 205.3 52.95 205.31 52.95 205.31 52.95 205.32 52.96 205.34 52.99 205.36 53.03 205.36 53.04 205.37 53.04 205.38 53.05 205.39 53.06 205.41 53.07 205.43 53.08 205.45 53.1 205.46 53.1 205.47 53.11 205.48 53.11 205.51 53.11 205.53 53.12 205.55 53.13 205.56 53.14 205.58 53.16 205.59 53.17 205.6 53.18 205.61 53.19 205.61 53.21 205.62 53.23 205.62 53.23 205.63 53.24 205.66 53.24 205.74 53.24 205.75 53.23 205.76 53.22 205.75 53.21 205.72 53.2 205.7 53.19 205.69 53.19 205.67 53.19 205.67 53.18 205.66 53.18 205.65 53.17 205.65 53.15 205.65 53.14 205.66 53.13 205.68 53.13 205.69 53.13 205.7 53.13 205.74 53.14 205.77 53.16 205.81 53.17 205.84 53.18 205.89 53.2 205.9 53.2 205.91 53.2 205.92 53.2 205.93 53.21 205.94 53.22 205.94 53.23 205.94 53.25 205.94 53.28 205.94 53.29 205.95 53.3 205.97 53.3 205.98 53.31 205.99 53.32 206 53.33 206.01 53.34 206.03 53.34 206.04 53.34 206.04 53.34 206.05 53.33 206.05 53.31 206.06 53.3 206.07 53.3 206.07 53.3 206.09 53.3 206.11 53.3 206.12 53.31 206.13 53.32 206.12 53.32 206.11 53.33 206.1 53.34 206.09 53.35 206.1 53.37 206.11 53.37 206.12 53.36 206.13 53.35 206.14 53.35 206.17 53.31 206.17 53.31 206.17 53.3 206.17 53.29 206.17 53.28 206.18 53.27 206.17 53.25 206.17 53.22 206.16 53.21 206.16 53.2 206.17 53.19 206.17 53.18 206.18 53.18 206.18 53.17 206.18 53.16 206.17 53.15 206.17 53.14 206.17 53.13 206.18 53.13 206.21 53.13 206.23 53.13 206.25 53.15 206.29 53.16 206.31 53.17 206.36 53.21 206.37 53.22 206.38 53.23 206.39 53.24 206.39 53.25 206.38 53.27 206.37 53.28 206.36 53.29 206.33 53.3 206.32 53.3 206.32 53.31 206.33 53.34 206.33 53.35 206.32 53.35 206.31 53.36 206.3 53.36 206.28 53.36 206.27 53.36 206.26 53.34 206.25 53.33 206.24 53.32 206.23 53.32 206.21 53.32 206.19 53.33 206.18 53.34 206.18 53.44 206.18 53.46 206.19 53.49 206.19 53.52 206.2 53.52 206.25 53.52 206.29 53.52 206.36 53.52 206.38 53.52 206.38 53.52 206.39 53.51 206.39 53.49 206.38 53.49 206.38 53.48 206.37 53.48 206.36 53.47 206.36 53.46 206.38 53.45 206.38 53.45 206.4 53.44 206.43 53.44 206.43 53.42 206.44 53.42 206.45 53.42 206.48 53.42 206.49 53.43 206.5 53.43 206.51 53.45 206.52 53.45 206.53 53.43 206.55 53.43 206.55 53.43 206.57 53.4 206.56 53.38 206.56 53.37 206.57 53.36 206.57 53.35 206.58 53.36 206.59 53.36 206.59 53.37 206.59 53.38 206.6 53.39 206.61 53.41 206.62 53.42 206.63 53.42 206.63 53.43 206.64 53.43 206.66 53.43 206.68 53.43 206.69 53.42 206.69 53.42 206.68 53.41 206.67 53.4 206.66 53.38 206.64 53.37 206.64 53.36 206.64 53.35 206.63 53.34 206.63 53.34 206.63 53.33 206.63 53.32 206.63 53.32 206.64 53.31 206.64 53.31 206.65 53.31 206.66 53.32 206.68 53.33 206.7 53.35 206.71 53.36 206.72 53.36 206.73 53.37 206.74 53.38 206.74 53.4 206.75 53.41 206.77 53.43 206.77 53.44 206.78 53.45 206.79 53.45 206.81 53.46 206.83 53.46 206.84 53.46 206.85 53.47 206.85 53.48 206.86 53.48 206.87 53.49 206.91 53.49 206.92 53.49 206.94 53.5 206.96 53.51 206.97 53.51 206.97 53.5 206.98 53.5 207.04 53.5 207.04 53.49 207.03 53.48 207.03 53.47 207.01 53.45 207 53.44 206.99 53.42 206.99 53.41 206.99 53.4 207.02 53.39 207.03 53.39 207.06 53.39 207.08 53.39 207.1 53.39 207.11 53.38 207.11 53.38 207.11 53.33 207.12 53.32 207.12 53.32 207.13 53.32 207.15 53.33 207.17 53.33 207.18 53.33 207.2 53.32 207.22 53.32 207.23 53.32 207.24 53.32 207.25 53.32 207.26 53.33 207.26 53.33 207.27 53.34 207.3 53.34 207.32 53.34 207.33 53.34 207.35 53.34 207.36 53.35 207.37 53.36 207.39 53.36 207.39 53.35 207.4 53.35 207.4 53.34 207.4 53.32 207.4 53.31 207.41 53.3 207.42 53.29 207.49 53.29 207.56 53.28 207.64 53.28 207.65 53.28 207.65 53.27 207.63 53.26 207.63 53.25 207.64 53.24 207.66 53.23 207.68 53.22 207.7 53.22 207.81 53.22 207.82 53.22 207.82 53.21 207.82 53.18 207.82 53.18 207.83 53.17 207.9 53.17 207.9 53.16 207.91 53.16 207.93 53.16 208 53.16 208 53.17 208 53.18 208 53.18 208.02 53.19 208.04 53.21 208.04 53.22 208.05 53.22 208.07 53.22 208.14 53.22 208.15 53.22 208.16 53.23 208.16 53.24 208.16 53.26 208.17 53.28 208.18 53.29 208.19 53.3 208.19 53.3 208.18 53.31 208.18 53.32 208.16 53.32 208.14 53.33 208.14 53.34 208.13 53.35 208.12 53.37 208.1 53.4 208.1 53.41 208.1 53.42 208.11 53.42 208.1 53.43 208.09 53.44 208.07 53.45 208.06 53.45 208.03 53.46 208.02 53.46 208.01 53.46 208 53.47 208 53.48 208.01 53.48 208.03 53.48 208.08 53.48 208.09 53.47 208.1 53.47 208.14 53.45 208.15 53.45 208.17 53.45 208.18 53.45 208.21 53.47 208.22 53.47 208.23 53.46 208.24 53.45 208.25 53.45 208.26 53.45 208.28 53.44 208.3 53.44 208.31 53.44 208.32 53.45 208.32 53.46 208.32 53.47 208.33 53.48 208.34 53.49 208.35 53.5 208.37 53.5 208.37 53.5 208.38 53.5 208.38 53.49 208.37 53.47 208.37 53.46 208.38 53.46 208.38 53.45 208.39 53.43 208.4 53.41 208.4 53.4 208.41 53.39 208.41 53.39 208.42 53.38 208.43 53.38 208.54 53.36 208.55 53.36 208.58 53.34 208.58 53.33 208.58 53.32 208.58 53.32 208.57 53.32 208.56 53.32 208.54 53.34 208.51 53.35 208.45 53.36 208.43 53.36 208.4 53.34 208.39 53.34 208.39 53.34 208.38 53.33 208.38 53.32 208.38 53.31 208.37 53.3 208.36 53.3 208.36 53.3 208.33 53.29 208.33 53.29 208.33 53.27 208.33 53.26 208.37 53.25 208.38 53.26 208.38 53.26 208.39 53.27 208.4 53.29 208.41 53.29 208.41 53.3 208.43 53.3 208.45 53.29 208.47 53.29 208.48 53.28 208.48 53.26 208.48 53.25 208.49 53.24 208.5 53.24 208.51 53.24 208.52 53.24 208.53 53.24 208.53 53.24 208.54 53.23 208.55 53.22 208.57 53.21 208.58 53.2 208.6 53.19 208.61 53.19 208.62 53.19 208.63 53.19 208.68 53.21 208.69 53.21 208.7 53.22 208.7 53.23 208.69 53.23 208.68 53.23 208.67 53.23 208.63 53.22 208.62 53.22 208.62 53.23 208.63 53.25 208.64 53.26 208.66 53.29 208.67 53.29 208.68 53.29 208.69 53.29 208.7 53.28 208.71 53.28 208.72 53.28 208.75 53.29 208.75 53.3 208.75 53.31 208.75 53.32 208.75 53.33 208.74 53.34 208.7 53.36 208.68 53.37 208.67 53.38 208.65 53.38 208.64 53.39 208.65 53.39 208.65 53.4 208.66 53.4 208.69 53.39 208.73 53.38 208.77 53.36 208.78 53.36 208.78 53.37 208.79 53.38 208.8 53.38 208.82 53.37 208.83 53.37 208.83 53.37 208.84 53.38 208.84 53.39 208.84 53.4 208.84 53.4 208.81 53.42 208.76 53.44 208.71 53.46 208.7 53.46 208.69 53.47 208.69 53.48 208.7 53.49 208.72 53.53 208.73 53.53 208.76 53.55 208.78 53.56 208.78 53.57 208.78 53.58 208.78 53.6 208.79 53.61 208.79 53.62 208.8 53.62 208.85 53.62 208.86 53.62 208.9 53.59 208.94 53.56 208.95 53.56 208.97 53.56 208.98 53.56 208.99 53.56 208.99 53.57 208.99 53.58 208.99 53.6 208.99 53.61 208.99 53.62 208.97 53.63 208.94 53.64 208.93 53.65 208.93 53.65 208.92 53.66 208.92 53.67 208.91 53.68 208.9 53.68 208.89 53.68 208.87 53.68 208.86 53.68 208.86 53.69 208.85 53.7 208.85 53.71 208.84 53.75 208.82 53.76 208.8 53.77 208.79 53.78 208.79 53.79 208.79 53.8 208.81 53.8 208.82 53.81 208.82 53.82 208.82 53.82 208.82 53.83 208.81 53.84 208.78 53.86 208.77 53.87 208.77 53.88 208.76 53.9 208.75 53.92 208.73 53.92 208.72 53.93 208.71 53.94 208.68 53.94 208.65 53.95 208.63 53.96 208.62 53.97 208.61 53.98 208.6 54 208.59 54.02 208.57 54.04 208.57 54.06 208.56 54.12 208.56 54.14 208.56 54.16 208.56 54.17 208.57 54.19 208.58 54.22 208.6 54.25 208.61 54.27 208.61 54.28 208.62 54.29 208.65 54.3 208.67 54.31 208.67 54.31 208.7 54.32 208.73 54.32 208.76 54.31 208.77 54.31 208.79 54.32 208.8 54.32 208.84 54.32 208.96 54.32 208.97 54.32 208.98 54.33 208.98 54.34 208.98 54.35 208.97 54.37 208.97 54.38 208.97 54.39 208.98 54.4 208.98 54.41 208.98 54.43 208.98 54.44 208.97 54.45 208.95 54.46 208.94 54.48 208.94 54.49 208.94 54.52 208.93 54.55 208.93 54.58 208.92 54.59 208.91 54.6 208.91 54.6 208.9 54.61 208.9 54.64 208.89 54.67 208.89 54.68 208.89 54.69 208.87 54.7 208.86 54.71 208.86 54.72 208.85 54.74 208.85 54.77 208.85 54.79 208.85 54.82 208.85 54.83 208.85 54.84 208.86 54.88 208.86 54.9 208.87 54.92 208.87 54.93 208.87 54.93 208.87 54.94 208.86 54.97 208.89 54.97 209.09 54.97 209.1 54.97 209.1 54.98 209.1 55.12 209.11 55.24 209.11 55.3 209.12 55.37 209.12 55.42 209.13 55.44 209.13 55.45 209.14 55.46 209.14 55.47 209.17 55.47 209.19 55.48 209.24 55.5 209.26 55.51 209.28 55.51 209.32 55.5 209.33 55.5 209.36 55.5 209.41 55.49 209.46 55.47 209.47 55.47 209.49 55.47 209.52 55.46 209.53 55.46 209.54 55.46 209.55 55.45 209.57 55.43 209.59 55.41 209.61 55.4 209.64 55.39 209.66 55.38 209.69 55.38 209.73 55.37 209.78 55.37 209.8 55.36 209.82 55.36 209.85 55.34 209.9 55.32 209.93 55.31 209.95 55.3 209.96 55.3 210.03 55.29 210.13 55.27 210.19 55.26 210.29 55.23 210.34 55.21 210.38 55.2 210.44 55.18 210.52 55.16 210.6 55.13 210.73 55.09 210.76 55.08 210.78 55.07 210.84 55.04 210.86 55.04 210.92 55.02 210.97 55.01 211.04 55 211.05 55 211.1 54.98 211.13 54.97 211.19 54.96 211.21 54.95 211.31 54.92 211.36 54.91 211.39 54.9 211.46 54.88 211.5 54.87 211.53 54.85 211.6 54.83 211.64 54.82 211.66 54.81 211.69 54.81 211.69 54.81 211.7 54.8 211.72 54.8 211.76 54.78 211.81 54.77 211.83 54.77 211.86 54.78 211.87 54.78 211.88 54.79 211.89 54.8 211.89 54.81 211.89 54.83 211.88 54.86 211.88 54.88 211.87 54.9 211.86 54.91 211.86 54.92 211.85 54.92 211.84 54.93 211.83 54.93 211.82 54.92 211.81 54.92 211.79 54.91 211.78 54.91 211.76 54.9 211.75 54.9 211.52 54.96 211.53 54.98 211.47 55 211.46 54.98 211.06 55.09 211.07 55.1 211.06 55.11 211.01 55.12 211 55.11 210.89 55.14 210.55 55.25 210.56 55.27 210.56 55.28 210.51 55.29 210.49 55.29 210.49 55.27 210.03 55.39 210.04 55.42 210.08 55.41 210.09 55.44 210.05 55.45 210.13 55.76 210.08 55.77 210.01 55.5 209.39 55.69 209.34 55.84 209.32 55.84 209.29 55.96 209.33 56.09 209.31 56.1 209.33 56.12 209.52 56.22 209.51 56.25 209.33 56.17 209.15 56.27 209.15 56.28 209.14 56.29 209.12 56.29 209.11 56.28 209.11 56.27 209.06 56.3 209.05 56.3 209.04 56.3 209.03 56.29 209.02 56.28 209.03 56.25 209.2 56.16 209.18 56.14 209.22 56.12 209.16 56.01 209.15 55.83 209.19 55.82 209.24 55.66 209.24 55.64 209.22 55.59 209.19 55.57 209 55.49 208.92 55.51 208.76 55.62 208.73 55.65 208.71 55.71 208.69 55.79 208.71 55.79 208.76 55.89 208.96 55.89 208.96 56.21 208.91 56.26 208.37 56.22 208.33 56.22 208.27 56.22 208.18 56.25 207.96 56.34 207.97 56.36 207.95 56.37 208.04 56.49 208.15 56.44 208.22 56.59 208.26 56.59 208.29 56.67 208.38 56.59 208.98 56.7 209.38 56.67 209.4 56.51 210.55 56.39 Z M 193.32 43.93 193.28 43.93 193.27 43.92 193.25 43.91 193.24 43.91 193.2 43.89 193.19 43.89 193.18 43.88 193.17 43.87 193.16 43.86 193.15 43.85 193.13 43.81 193.12 43.8 193.11 43.79 193.1 43.79 193.05 43.76 193.03 43.75 193 43.74 192.99 43.73 192.98 43.73 192.95 43.73 192.94 43.73 192.92 43.72 192.91 43.71 192.9 43.7 192.88 43.69 192.87 43.67 192.85 43.65 192.84 43.63 192.82 43.62 192.8 43.6 192.78 43.58 192.78 43.56 192.78 43.55 192.78 43.53 192.78 43.51 192.78 43.5 192.77 43.49 192.77 43.48 192.76 43.47 192.74 43.45 192.73 43.44 192.73 43.43 192.73 43.42 192.73 43.4 192.73 43.38 192.74 43.37 192.75 43.35 192.76 43.34 192.77 43.33 192.78 43.32 192.81 43.3 192.82 43.29 192.83 43.28 192.85 43.26 192.87 43.24 192.88 43.23 192.9 43.19 192.92 43.16 192.94 43.12 192.94 43.1 192.96 43.08 192.97 43.05 192.98 43.04 192.99 43.03 193.02 43 193.03 42.99 193.05 42.99 193.07 43 193.09 43.01 193.1 43.02 193.11 43.02 193.11 43.03 193.13 43.07 193.14 43.09 193.15 43.12 193.17 43.16 193.18 43.18 193.18 43.19 193.2 43.2 193.2 43.2 193.24 43.22 193.25 43.23 193.25 43.24 193.26 43.25 193.26 43.26 193.27 43.27 193.28 43.28 193.29 43.29 193.3 43.3 193.3 43.3 193.3 43.31 193.29 43.32 193.29 43.35 193.3 43.35 193.31 43.36 193.34 43.36 193.34 43.37 193.36 43.41 193.36 43.42 193.38 43.46 193.38 43.47 193.38 43.51 193.38 43.52 193.38 43.53 193.39 43.56 193.38 43.57 193.36 43.62 193.36 43.63 193.33 43.67 193.32 43.68 193.33 43.71 193.37 43.74 193.37 43.75 193.38 43.76 193.38 43.79 193.41 43.83 193.42 43.85 193.43 43.86 193.43 43.87 193.43 43.89 193.44 43.89 193.46 43.9 193.46 43.91 193.44 43.93 193.38 43.93 193.32 43.93 Z"/>
</g></svg>