<svg xmlns="http://www.w3.org/2000/svg" version="1.2" baseProfile="tiny" stroke-linecap="round" stroke-linejoin="round" viewBox="241.8 301.82 55.23 70.42"><g xmlns="http://www.w3.org/2000/svg" id="Bernedo">
<path d="M 263.12 301.88 263.61 301.88 264.08 301.95 264.48 301.9 264.84 301.83 264.93 302.1 265 302.55 265.09 303.28 265.18 303.92 265.31 304.42 265.58 304.74 266.35 305.23 266.92 305.71 267.32 305.81 267.55 305.92 267.86 305.97 268.34 306.14 268.73 306.51 268.76 307 268.71 307.41 269.01 307.83 269.33 308.16 269.52 308.64 269.75 309.03 270.11 309.25 270.29 309.84 270.36 310.59 270.5 310.99 270.64 311.21 269.11 312.67 268.16 313.54 267.65 314.11 267.16 314.51 267 314.69 266.77 314.8 266.52 314.82 266.05 314.74 265.43 314.58 265.16 314.58 265.05 314.68 265.05 314.98 265.04 315.42 265.22 316.24 265.52 317.63 265.68 318.32 265.89 318.82 266.09 319.05 266.63 319.49 266.84 319.72 266.86 319.84 266.73 319.84 266.22 319.56 266.08 319.59 266.09 319.75 266.23 319.91 266.51 320.24 266.75 320.87 267.01 321.7 267.5 322.34 267.73 322.67 267.88 323.06 267.82 323.53 267.67 324.06 267.67 324.46 267.87 324.97 267.99 325.35 267.82 325.55 267.55 325.64 267.31 325.85 267.05 326.03 266.96 326.13 266.91 326.24 266.91 326.37 266.94 326.47 266.98 326.52 267.05 326.55 267.33 326.51 267.65 326.39 267.91 326.38 267.84 326.76 267.78 327.03 267.73 327.32 267.85 327.52 268.06 327.66 268.41 327.9 268.75 328.03 268.81 327.94 268.67 327.53 268.5 327.08 268.32 326.66 268.4 326.46 268.66 326.55 269.04 326.7 269.48 326.57 269.9 326.61 270.2 326.92 270.49 327.39 270.8 327.84 271.22 328.21 271.58 328.64 271.61 328.85 271.79 329.27 272.04 329.52 272.35 329.92 272.48 330.5 272.43 331.1 272.13 331.37 271.61 331.75 271.02 332.23 270.76 332.58 271.09 332.89 271.39 333.2 271.53 333.61 271.9 334.21 272.35 334.63 272.91 334.92 273.27 335.5 273.46 335.98 273.96 335.96 274.33 336.02 274.86 336.19 275.69 336.58 276.41 336.87 276.95 336.96 277.69 337.22 278.19 337.38 278.55 337.6 279.15 337.81 279.68 337.91 280.16 338.02 280.37 338.46 280.64 338.81 280.99 338.81 281.25 338.63 281.57 338.41 281.87 338.43 282.53 338.57 283.04 338.78 283.21 339.03 283.59 339.19 283.94 339.39 284.16 339.81 284.37 340.05 284.74 340.6 284.75 340.97 284.55 341.5 284.25 342.01 284.25 342.48 284.38 343.11 284.72 343.74 285.16 344.2 285.71 344.55 286.51 344.69 287.13 344.66 287.83 344.56 288.62 344.55 289.31 344.58 289.84 344.74 290.06 344.94 290.11 345.21 290.08 345.7 290.18 345.94 290.68 346.02 291.12 345.77 291.27 345.37 291.42 344.56 291.58 344.14 292.38 343.67 292.55 343.68 292.88 344.02 293.36 344.28 293.76 344.34 294.35 344.7 294.54 345.12 294.56 345.4 294.61 345.74 294.65 346.25 294.62 346.63 294.67 346.79 294.89 346.88 295.11 347.06 295.31 347.45 295.65 348.1 295.71 348.38 295.61 348.57 295.4 348.71 294.93 348.84 294.58 348.94 294.42 349.04 294.93 349.42 295.56 349.71 296.07 350.02 296.4 350.14 296.85 350.23 297.02 351.11 296.93 351.12 296.62 351.15 296.54 351.15 296.52 351.15 296.4 351.16 296.15 351.26 295.9 351.36 295.89 351.37 295.63 351.48 295.33 351.61 295.31 351.61 295.09 351.7 295.08 351.71 294.77 351.87 294.69 351.92 294.68 351.94 294.57 352.1 294.46 352.27 294.39 352.38 293.93 352.4 293.58 352.41 293.43 352.41 293.36 352.63 293.3 352.85 293.3 352.86 293.26 353 293.23 353.12 293.23 353.14 293.19 353.26 293.18 353.32 293.21 353.5 293.27 353.81 293.31 354.07 293.3 354.08 292.3 354.22 292.22 354.27 292.2 354.29 291.77 354.58 291.77 354.58 291.76 354.59 291.7 354.63 291.63 354.69 291.5 354.77 291.45 354.81 291.41 354.84 291.33 354.87 291.3 354.88 291.25 354.9 291.17 354.93 291.14 354.94 291.07 354.97 291.02 354.99 290.95 355.02 290.9 355.03 290.84 355.05 290.8 355.07 290.74 355.1 290.7 355.13 290.66 355.15 290.62 355.18 290.57 355.2 290.52 355.23 290.48 355.27 290.42 355.3 290.36 355.33 290.31 355.36 290.27 355.39 290.25 355.4 290.22 355.42 290.2 355.43 290.14 355.46 290.08 355.5 290.05 355.51 289.99 355.55 289.92 355.58 289.83 355.63 289.78 355.66 289.74 355.68 289.68 355.71 289.63 355.74 289.56 355.78 289.49 355.81 289.42 355.85 289.35 355.88 289.31 355.91 289.25 355.94 289.2 355.95 289.16 355.97 289.1 355.99 289.04 356.01 288.97 356.03 288.9 356.07 288.82 356.13 288.75 356.17 288.69 356.21 288.63 356.24 288.57 356.28 288.52 356.31 288.5 356.32 288.43 356.36 288.37 356.41 288.35 356.42 288.29 356.46 288.24 356.49 288.17 356.54 288.09 356.58 288.04 356.62 287.98 356.65 287.9 356.7 287.84 356.74 287.79 356.76 287.7 356.83 287.67 356.84 287.66 356.85 287.64 356.88 287.58 356.94 287.52 357 287.48 357.04 287.42 357.12 287.38 357.17 287.35 357.21 287.33 357.23 287.3 357.31 287.29 357.36 287.27 357.42 287.26 357.49 287.25 357.56 287.24 357.62 287.23 357.68 287.21 357.75 287.2 357.82 287.19 357.88 287.18 357.94 287.17 358.01 287.16 358.04 287.14 358.12 287.14 358.13 287.11 358.19 287.09 358.24 287.07 358.31 287.05 358.38 287.04 358.41 287.02 358.47 286.99 358.54 286.99 358.57 286.96 358.63 286.92 358.7 286.89 358.78 286.84 358.86 286.8 358.93 286.76 359.01 286.72 359.09 286.68 359.17 286.65 359.23 286.61 359.3 286.54 359.42 286.51 359.48 286.47 359.56 286.43 359.63 286.39 359.7 286.36 359.76 286.32 359.82 286.3 359.87 286.28 359.91 286.26 359.94 286.24 359.98 286.23 359.99 286.2 360.05 286.17 360.11 286.15 360.14 286.1 360.13 286.04 360.11 285.97 360.09 285.9 360.06 285.87 360.05 285.84 360.03 285.83 360.03 285.8 360 285.76 359.97 285.71 359.93 285.67 359.89 285.62 359.85 285.59 359.82 285.56 359.87 285.52 359.92 285.48 359.98 285.43 360.04 285.39 360.1 285.34 360.16 285.3 360.21 285.26 360.27 285.23 360.33 285.18 360.39 285.14 360.46 285.1 360.51 285.07 360.55 285.02 360.61 284.98 360.68 284.93 360.74 284.92 360.79 284.91 360.86 284.89 360.93 284.87 361 284.84 361.07 284.83 361.11 284.83 361.15 284.81 361.22 284.79 361.29 284.75 361.42 284.73 361.5 284.71 361.56 284.69 361.64 284.67 361.69 284.65 361.77 284.63 361.83 284.61 361.86 284.58 361.91 284.55 361.96 284.51 362.03 284.48 362.09 284.45 362.13 284.42 362.15 284.4 362.16 284.38 362.17 284.31 362.23 284.25 362.27 284.19 362.32 284.08 362.39 284.03 362.43 283.97 362.48 283.93 362.51 283.89 362.6 283.86 362.65 283.84 362.7 283.81 362.77 283.79 362.83 283.77 362.87 283.74 362.94 283.72 362.99 283.68 363.06 283.63 363.17 283.59 363.29 283.58 363.34 283.56 363.38 283.57 363.42 283.58 363.54 283.59 363.61 283.59 363.68 283.6 363.82 283.61 363.93 283.61 363.97 283.55 364.04 283.46 364.12 283.38 364.21 283.34 364.25 283.33 364.27 283.29 364.31 283.28 364.32 283.25 364.35 283.24 364.37 283.21 364.39 283.2 364.41 283.15 364.45 283.11 364.5 283.06 364.55 283.05 364.55 282.7 364.55 282.53 364.57 282.47 364.57 282.45 364.57 282.38 364.57 282.3 364.57 282.23 364.57 282.17 364.58 282.11 364.58 282.03 364.59 282.01 364.59 281.96 364.59 281.9 364.57 281.82 364.56 281.75 364.56 281.68 364.56 281.62 364.57 281.58 364.57 281.56 364.61 281.5 364.72 281.46 364.78 281.44 364.82 281.4 364.88 281.37 364.93 281.33 364.98 281.3 365.02 281.3 365.04 281.31 365.07 281.32 365.11 281.33 365.18 281.34 365.24 281.34 365.28 281.35 365.34 281.35 365.37 281.36 365.41 281.36 365.43 281.36 365.45 281.35 365.47 281.33 365.5 281.3 365.53 281.29 365.56 281.27 365.59 281.25 365.64 281.24 365.67 281.22 365.7 281.19 365.73 281.15 365.75 281.13 365.77 281.07 365.81 281.02 365.86 280.95 365.91 280.83 366 280.78 366.06 280.74 366.1 280.71 366.13 280.68 366.16 280.62 366.22 280.61 366.23 280.57 366.27 280.52 366.32 280.47 366.37 280.45 366.39 280.42 366.42 280.4 366.46 280.39 366.5 280.36 366.57 280.34 366.63 280.31 366.69 280.29 366.76 280.26 366.83 280.24 366.89 280.21 366.96 280.19 367.02 280.16 367.1 280.15 367.11 280.13 367.17 280.12 367.19 280.1 367.24 280.07 367.32 280.04 367.39 280.01 367.49 279.98 367.56 279.95 367.63 279.93 367.69 279.93 367.7 279.91 367.74 279.89 367.78 279.88 367.81 279.85 367.89 279.83 367.95 279.8 368.03 279.77 368.1 279.75 368.16 279.72 368.23 279.7 368.29 279.69 368.31 279.69 368.32 279.67 368.36 279.65 368.42 279.62 368.49 279.59 368.55 279.57 368.63 279.54 368.7 279.51 368.78 279.48 368.85 279.45 368.92 279.43 368.98 279.41 369.02 279.34 369.03 279.31 369.05 279.28 369.06 279.26 369.06 279.25 369.07 279.23 369.09 279.22 369.1 279.18 369.15 279.13 369.19 279.08 369.23 279.04 369.27 278.98 369.32 278.93 369.36 278.89 369.41 278.84 369.45 278.74 369.54 278.65 369.62 278.56 369.71 278.51 369.76 278.45 369.8 278.4 369.85 278.35 369.89 278.3 369.94 278.25 369.99 278.2 370.03 278.19 370.04 278.16 370.07 278.11 370.12 278.06 370.16 278.02 370.2 277.97 370.25 277.92 370.28 277.87 370.34 277.86 370.34 277.79 370.32 277.73 370.31 277.67 370.29 277.6 370.28 277.55 370.26 277.49 370.25 277.43 370.23 277.37 370.22 277.31 370.2 277.26 370.17 277.2 370.15 277.15 370.12 277.09 370.1 277.04 370.08 276.92 370.04 276.85 370.01 276.79 369.99 276.74 369.97 276.68 369.95 276.62 369.93 276.59 369.91 276.56 369.9 276.53 369.87 276.5 369.85 276.47 369.82 276.42 369.79 276.39 369.76 276.37 369.75 276.32 369.72 276.28 369.7 276.25 369.68 276.2 369.66 276.16 369.64 276.11 369.62 276.06 369.61 276 369.59 275.95 369.58 275.88 369.56 275.84 369.55 275.78 369.54 275.72 369.54 275.66 369.53 275.6 369.52 275.54 369.52 275.47 369.5 275.41 369.49 275.38 369.48 275.35 369.47 275.3 369.44 275.24 369.42 275.18 369.39 275.12 369.37 275.06 369.35 275 369.33 274.94 369.31 274.88 369.29 274.83 369.27 274.76 369.26 274.7 369.24 274.65 369.23 274.63 369.23 274.6 369.21 274.57 369.19 274.54 369.18 274.52 369.17 274.48 369.16 274.44 369.15 274.41 369.14 274.34 369.12 274.28 369.1 274.23 369.09 274.16 369.07 274.1 369.05 274.05 369.04 273.99 369.02 273.92 369 273.88 368.98 273.84 368.97 273.83 369.08 273.83 369.16 273.82 369.23 273.81 369.3 273.8 369.36 273.8 369.43 273.79 369.51 273.78 369.57 273.78 369.63 273.77 369.68 273.77 369.75 273.76 369.83 273.75 369.9 273.74 370.03 273.73 370.16 273.71 370.28 273.71 370.29 273.66 370.4 273.58 369.9 273.55 369.27 273.51 368.77 273.5 368.75 273.12 368.68 272.64 368.6 272.02 368.53 271.27 368.45 270.43 368.44 269.54 368.48 268.75 368.64 268.15 368.84 267.33 369.31 267.21 369.41 267.05 369.56 266.78 369.65 266.49 369.56 266.21 369.5 265.91 369.5 265.79 369.53 265.74 369.54 265.24 369.73 264.75 369.98 264.21 370.21 263.68 370.38 263.04 370.57 262.48 370.71 261.9 370.75 261.11 370.87 260.55 370.99 259.85 371.24 259.39 371.44 258.7 371.81 258.06 372.21 258.03 370.77 258.02 369.04 258 367.23 257.95 365.67 257.93 364.7 258.46 364.27 258.97 363.89 258.76 362.92 258.53 362.03 259.47 361.29 260.27 361.09 261.19 360.75 261.89 360.43 262.3 359.93 262.92 359.74 264.19 359.27 265.42 358.82 265.74 358.61 266.29 358.06 266.81 357.78 267.29 357.62 267.84 357.57 268.26 357.38 268.36 357.23 268.38 356.77 268.29 356.1 268.2 355.53 268.17 355.26 268.23 354.85 268.33 354.59 268.4 354.39 268.39 354.04 268.24 353.41 268.11 352.94 267.89 352.39 267.65 351.98 267.42 351.62 267 350.98 266.62 350.29 266.49 349.79 266.4 349.45 266.37 349.22 266.33 349.02 266.45 347.51 266.6 346 266.74 344.17 266.84 342.78 266.73 342.55 266.24 342.28 265.36 341.91 264.57 341.59 264.25 341.59 263.56 341.29 263.06 341.16 262.64 341.36 262.27 341.69 261.83 341.62 261.58 342.48 261.15 343.49 260.9 344.23 260.41 345.16 259.87 346.11 259.63 346.63 259.45 347.46 259.24 347.82 259.1 348.25 257.91 348.19 256.37 348.11 255.39 348 254.85 347.77 253.76 347.7 253.2 348.07 252.08 348.59 251.45 348.62 250.8 348.66 250.47 348.17 250.39 347.51 250.32 346.23 249.9 345.56 248.92 344.24 247.81 342.72 247.32 342.04 246.65 341.19 246.16 340.46 245.51 339.86 244.6 339.29 243.62 338.58 242.77 338.02 242.45 338.02 241.83 338.02 241.89 337.42 242.01 336.32 242.12 335.28 242.19 334.06 242.19 333.47 242.64 333.47 243.13 333.23 243.45 332.74 243.43 332.31 243.55 331.75 244.01 330.89 244.44 330.34 244.66 330.35 244.77 330.58 244.86 330.97 245.57 331.51 246.53 332.1 247 332.05 247.55 331.77 248.29 331.05 248.85 330.41 249.56 329.55 250.05 328.92 250.61 328.36 251.29 327.53 251.98 326.56 252.48 325.45 252.82 324.33 253.16 323.1 253.75 322.44 254 321.44 254.55 321.22 254.96 320.37 254.86 319.52 254.55 318.45 254.59 317.65 254.88 317.13 255.52 316.21 255.96 315.49 256.15 314.38 256.29 313.41 256.24 312.38 256.17 311.84 255.81 311.69 255.29 311.61 254.71 311.6 254.33 311.71 254.17 311.95 253.76 312.98 252.99 313.6 251.95 314.11 251.6 314.36 251.35 314.71 250.81 315.09 249.83 315.53 248.74 316.04 247.85 316.44 247.3 316.6 246.81 316.41 246.63 316.01 246.7 315.18 246.79 314.33 246.47 313.61 246.11 312.99 245.46 312.55 244.62 311.84 243.88 311.04 243.48 310.44 243.33 309.73 243.49 308.86 243.64 307.99 243.86 307.79 244.27 307.65 244.42 307.28 244.5 306.76 244.87 306.32 245.19 306.01 245.37 305.65 245.81 305.35 246.49 305.25 247.07 305.36 247.43 305.21 247.67 304.63 247.95 304.08 248.38 303.66 248.82 303.43 249.25 303.37 249.88 303.43 250.69 303.6 251.2 303.81 251.65 304.01 252.08 303.93 252.53 303.63 252.97 303.49 253.25 303.64 253.61 303.97 254.02 303.98 254.38 303.81 254.44 303.78 254.95 303.59 255.41 303.46 255.85 303.37 256.57 303.34 256.89 303.2 257.14 303.06 257.44 303.03 257.81 303.13 258.25 303.16 258.86 303.14 259.29 303.06 259.84 302.96 259.86 302.95 260.37 302.93 260.88 302.89 261.67 302.65 262.41 302.27 263.12 301.89 263.12 301.88 Z"/>
</g></svg>