<svg xmlns="http://www.w3.org/2000/svg" version="1.2" baseProfile="tiny" stroke-linecap="round" stroke-linejoin="round" viewBox="508 273.02 6.2 9.75"><g xmlns="http://www.w3.org/2000/svg" id="Berriozar">
<path d="M 512.21 281.56 512.01 281.77 511.92 281.86 511.89 281.89 511.86 281.93 511.77 282.02 511.67 282.13 511.53 282.27 511.44 282.37 511.33 282.49 511.27 282.55 511.22 282.6 511.16 282.65 511.1 282.69 511.05 282.71 511 282.73 510.98 282.73 510.92 282.75 510.87 282.76 510.86 282.76 510.82 282.76 510.8 282.73 510.8 282.72 510.76 282.66 510.71 282.59 510.65 282.51 510.59 282.44 510.55 282.39 510.49 282.34 510.4 282.25 510.23 282.08 510.11 281.95 510.06 281.91 509.95 281.79 509.84 281.69 509.78 281.63 509.73 281.57 509.6 281.43 509.48 281.32 509.38 281.22 509.24 281.08 509.02 280.86 508.98 280.82 508.77 280.61 508.61 280.45 508.49 280.33 508.35 280.19 508.22 280.05 508.14 279.97 508.09 279.91 508.01 279.83 508.03 279.78 508.03 279.77 508.07 279.67 508.11 279.62 508.14 279.6 508.3 279.44 508.27 279.41 508.17 279.31 508.34 279.14 508.21 279.01 508.42 278.8 508.44 278.75 508.45 278.72 508.46 278.71 508.47 278.68 508.47 278.68 508.48 278.66 508.5 278.6 508.51 278.54 508.52 278.51 508.53 278.49 508.56 278.38 508.58 278.33 508.58 278.32 508.59 278.3 508.61 278.23 508.62 278.21 508.62 278.2 508.63 278.15 508.63 278.14 508.63 278.14 508.65 278.07 508.67 278.02 508.69 277.95 508.7 277.94 508.72 277.87 508.72 277.86 508.76 277.74 508.78 277.67 508.82 277.54 508.83 277.5 508.84 277.48 508.84 277.45 508.86 277.41 508.88 277.33 508.9 277.27 508.9 277.27 508.92 277.22 508.92 277.21 508.93 277.18 508.94 277.15 508.95 277.11 508.96 277.08 508.97 277.05 508.97 277.03 508.99 276.97 508.99 276.96 509 276.92 509.01 276.9 509.04 276.82 509.06 276.73 509.06 276.71 509.06 276.69 509.08 276.69 509.08 276.65 509.09 276.61 509.1 276.6 509.1 276.58 509.12 276.53 509.12 276.51 509.13 276.48 509.14 276.45 509.15 276.41 509.16 276.39 509.18 276.33 509.19 276.25 509.22 276.16 509.23 276.13 509.24 276.1 509.25 276.04 509.26 276.02 509.28 275.93 509.3 275.84 509.33 275.76 509.35 275.69 509.36 275.68 509.38 275.63 509.43 275.53 509.46 275.47 509.49 275.4 509.55 275.29 509.6 275.21 509.65 275.13 509.73 275.01 509.77 274.94 509.78 274.93 509.82 274.87 509.89 274.77 509.95 274.68 509.99 274.63 510.06 274.55 510.1 274.49 510.15 274.44 510.2 274.37 510.28 274.26 510.35 274.18 510.4 274.12 510.46 274.04 510.51 273.98 510.55 273.93 510.59 273.88 510.64 273.8 510.68 273.74 510.69 273.73 510.7 273.72 510.72 273.69 510.74 273.65 510.75 273.63 510.76 273.61 510.76 273.54 510.76 273.51 510.77 273.49 510.82 273.39 510.83 273.36 510.85 273.31 510.88 273.25 510.92 273.17 510.95 273.12 510.99 273.05 511.11 273.12 511.23 273.17 511.34 273.22 511.47 273.28 511.57 273.34 511.67 273.39 511.79 273.46 511.8 273.47 511.89 273.54 511.95 273.58 512 273.61 512.11 273.67 512.16 273.71 512.2 273.73 512.29 273.78 512.38 273.84 512.43 273.87 512.51 273.93 512.58 273.97 512.63 274 512.71 274.05 512.79 274.11 512.85 274.14 512.95 274.2 513.06 274.28 513.15 274.33 513.22 274.38 513.27 274.42 513.38 274.48 513.47 274.54 513.57 274.6 513.64 274.64 513.68 274.68 513.77 274.73 513.83 274.77 513.89 274.8 513.99 274.87 514.04 274.91 514.09 274.93 514.08 274.95 514.08 274.98 514.07 275 514.07 275.02 514.07 275.05 514.05 275.1 514.05 275.15 514.05 275.17 514.06 275.2 514.07 275.24 514.11 275.32 514.14 275.38 514.15 275.42 514.17 275.45 514.17 275.46 514.15 275.48 514.12 275.53 514.06 275.61 513.99 275.71 513.91 275.81 513.88 275.84 513.88 275.84 513.87 275.85 513.86 275.86 513.82 275.92 513.76 276 513.67 276.13 513.64 276.18 513.57 276.3 513.54 276.34 513.52 276.38 513.5 276.43 513.46 276.51 513.46 276.52 513.46 276.53 513.45 276.54 513.42 276.57 513.39 276.63 513.35 276.68 513.31 276.74 513.28 276.78 513.26 276.82 513.24 276.86 513.22 276.9 513.21 276.94 513.21 276.95 513.19 277.01 513.18 277.08 513.16 277.15 513.13 277.3 513.11 277.38 513.09 277.46 513.08 277.53 513.06 277.6 513.05 277.66 513.04 277.73 513.04 277.81 513.03 277.9 513.02 277.96 513.02 278.03 513.02 278.07 513.04 278.11 513.04 278.13 513.04 278.14 513.03 278.21 513.03 278.25 513.02 278.53 513.02 278.59 513.02 278.63 513.02 278.75 513.02 278.81 513.02 278.91 513.02 278.99 513.02 279.11 513.02 279.17 513.02 279.21 512.96 279.19 512.84 279.36 512.77 279.44 512.76 279.46 512.75 279.47 512.71 279.52 512.69 279.56 512.66 279.61 512.61 279.67 512.61 279.68 512.55 279.75 512.49 279.85 512.46 279.88 512.37 280.07 512.37 280.08 512.33 280.15 512.32 280.17 512.47 280.33 512.18 280.59 512.12 280.65 512.1 280.67 512.03 280.73 512 280.76 512.1 280.85 512.16 280.92 512.14 280.94 512.08 280.99 512.07 280.97 512.03 280.93 512 280.9 511.87 281.02 511.83 281.06 511.91 281.15 511.86 281.2 511.83 281.23 511.93 281.33 511.96 281.36 511.98 281.38 512 281.39 512.03 281.42 512.06 281.45 512.1 281.48 512.13 281.5 512.15 281.52 512.17 281.53 512.2 281.55 512.21 281.56 Z"/>
</g></svg>