<svg xmlns="http://www.w3.org/2000/svg" version="1.2" baseProfile="tiny" stroke-linecap="round" stroke-linejoin="round" viewBox="511.5 136.1 24.75 55.1"><g xmlns="http://www.w3.org/2000/svg" id="Bertizarana">
<path d="M 526.45 140.24 526.47 140.19 526.53 140.07 526.58 139.96 526.64 139.83 526.75 139.58 526.81 139.47 527.07 139.33 527.2 139.19 527.33 139.04 527.49 138.85 527.55 138.77 527.72 138.62 527.89 138.47 527.99 138.39 528.09 138.29 528.12 138.25 528.15 138.22 528.17 138.21 528.31 138.14 528.49 138.05 528.52 138.03 528.58 137.98 528.7 137.88 528.84 137.77 529.01 137.62 529.19 137.47 529.3 137.38 529.31 137.37 529.33 137.35 529.4 137.3 529.5 137.23 529.61 137.16 529.68 137.13 529.77 137.09 529.85 137.06 529.94 137.04 530.09 137.03 530.1 137.02 530.22 137 530.39 136.98 530.45 136.96 530.51 136.94 530.59 136.91 530.62 136.89 530.72 136.77 530.74 136.75 530.74 136.75 530.75 136.74 530.79 136.68 530.82 136.66 530.87 136.63 530.93 136.59 531.15 136.48 531.62 136.25 531.75 136.19 531.9 136.12 531.94 136.1 532.32 136.11 532.5 136.12 532.81 136.2 533.08 136.28 533.23 136.32 533.4 136.39 533.59 136.46 533.73 136.44 533.87 136.43 533.98 136.42 534.02 136.42 534.08 136.42 534.14 136.42 534.21 136.71 534.26 136.85 534.3 137 534.3 137.04 534.31 137.06 534.31 137.1 534.33 137.26 534.36 137.35 534.38 137.42 534.41 137.51 534.46 137.6 534.49 137.67 534.52 137.73 534.56 137.78 534.62 137.85 534.66 137.9 534.71 137.96 534.84 138.09 534.88 138.17 534.92 138.23 534.93 138.25 534.94 138.26 534.94 138.27 534.96 138.33 534.96 138.42 534.96 138.52 534.96 138.57 534.98 138.63 535 138.68 535.02 138.72 535.05 138.75 535.09 138.77 535.13 138.8 535.15 138.83 535.18 138.89 535.26 139.03 535.27 139.06 535.23 139.3 535.22 139.46 535.22 139.51 535.22 139.51 535.21 139.54 535.22 139.58 535.24 139.63 535.27 139.67 535.3 139.71 535.36 139.77 535.46 139.84 535.55 139.9 535.59 139.94 535.63 139.97 535.66 140.01 535.7 140.07 535.71 140.1 535.72 140.16 535.72 140.28 535.73 140.31 535.75 140.36 535.85 140.49 535.9 140.53 535.93 140.57 535.97 140.59 536.02 140.61 536.06 140.64 536.08 140.66 536.18 140.76 536.21 140.8 536.22 140.82 536.23 140.84 536.22 140.87 536.19 140.92 536.13 140.98 536.06 141.05 536.03 141.09 535.99 141.17 535.96 141.24 535.94 141.28 535.93 141.32 535.94 141.34 535.95 141.39 535.97 141.41 535.99 141.45 536 141.47 536.01 141.48 536.02 141.51 536.03 141.57 536.04 141.65 536.06 141.73 536.06 141.79 536.06 141.84 536.04 141.91 536 142.01 535.97 142.07 535.95 142.13 535.95 142.2 535.94 142.27 535.93 142.31 535.91 142.37 535.85 142.44 535.75 142.55 535.65 142.65 535.54 142.72 535.5 142.76 535.47 142.8 535.41 142.86 535.36 142.93 535.32 143.01 535.28 143.07 535.24 143.14 535.24 143.15 535.21 143.19 535.19 143.24 535.15 143.27 535.11 143.3 535.08 143.32 535.06 143.34 535.05 143.36 535.04 143.4 535.04 143.44 535.04 143.47 535.05 143.58 535.06 143.68 535.09 143.77 535.1 143.83 535.12 143.85 535.15 143.89 535.17 143.91 535.19 143.95 535.22 144.04 535.25 144.15 535.27 144.2 535.29 144.24 535.32 144.26 535.35 144.3 535.39 144.35 535.42 144.4 535.44 144.44 535.45 144.47 535.45 144.48 535.46 144.54 535.46 144.64 535.47 144.75 535.47 144.84 535.46 144.91 535.44 145 535.43 145.03 535.43 145.05 535.42 145.06 535.41 145.12 535.4 145.15 535.38 145.19 535.2 145.86 535.17 145.98 535.17 146.01 535.17 146.04 535.18 146.37 535.18 146.4 535.18 146.41 535.18 146.5 535.18 146.62 535.18 146.81 535.17 146.86 535.16 146.9 535.16 146.91 535.16 146.92 535.16 146.94 535.16 146.96 535.16 146.98 535.14 147.03 535.11 147.12 535.09 147.16 535.02 147.27 534.97 147.37 534.9 147.48 534.88 147.51 534.82 147.61 534.78 147.9 534.76 148 534.27 148.41 534.14 148.67 534.04 148.88 533.98 148.98 533.94 149.3 533.94 149.46 533.92 149.51 533.79 149.81 533.69 150.29 534.24 150.54 534.49 150.85 534.51 151.2 534.51 151.22 534.51 151.33 534.48 151.45 534.47 151.53 534.45 151.59 534.44 151.65 534.43 151.66 534.41 151.74 534.39 151.81 534.36 151.9 534.3 152.1 534.13 152.32 534.11 152.33 533.99 152.49 533.93 152.56 533.8 152.63 533.78 152.64 533.74 152.69 533.67 152.8 533.64 152.88 533.58 153.09 533.52 153.29 533.46 153.57 533.41 153.64 533.36 153.69 533.31 153.75 533.16 153.9 532.84 153.81 532.81 153.81 532.76 153.8 532.45 153.81 532.07 154.13 531.98 154.37 531.97 154.39 531.96 154.43 531.8 154.66 531.63 154.91 531.5 155.1 531.39 155.2 531.32 155.25 531.18 155.34 531.09 155.41 531.01 155.47 530.85 155.72 530.75 155.87 530.71 156.08 530.7 156.23 530.69 156.39 530.68 156.5 530.66 156.65 530.65 156.79 530.64 156.83 530.63 156.85 530.61 156.89 530.6 156.9 530.57 156.97 530.53 157.03 530.49 157.07 530.48 157.09 530.42 157.15 530.36 157.22 530.31 157.27 530.23 157.34 530.16 157.39 530.15 157.39 530.13 157.41 529.95 157.45 529.93 157.45 529.78 157.51 529.7 157.54 529.63 157.56 529.52 157.59 529.41 157.62 529.34 157.65 529.31 157.67 529.25 157.7 529.18 157.75 529.15 157.77 529.13 157.8 529.12 157.82 529.11 157.86 529.1 157.96 529.1 157.98 529.09 158.09 529.09 158.15 529.09 158.16 529.08 158.19 529.08 158.21 529.07 158.26 528.95 158.48 528.84 158.68 528.59 158.97 528.42 158.95 528.21 158.93 528.06 158.99 527.93 159.03 527.89 159.05 527.53 159.18 527.51 159.27 527.45 159.46 527.42 159.57 527.41 159.6 527.39 159.77 527.39 159.79 527.38 159.84 527.38 159.88 527.35 160.09 527.35 160.09 526.89 161.09 526.98 161.14 527.09 161.18 527.12 161.19 527.07 161.26 527.02 161.31 526.97 161.37 526.89 161.45 526.82 161.5 526.73 161.58 526.66 161.65 526.6 161.7 526.53 161.76 526.45 161.83 526.33 161.91 526.3 161.93 526.25 162 526.15 162.12 526.05 162.22 525.93 162.35 525.84 162.46 525.75 162.55 525.7 162.58 525.73 162.63 525.74 162.64 525.79 162.73 525.83 162.8 525.84 162.82 525.85 162.85 525.85 162.86 525.87 162.91 525.89 162.98 525.91 163.03 525.93 163.08 525.94 163.1 525.95 163.12 525.96 163.13 525.97 163.17 526 163.21 526.01 163.24 526.06 163.27 526.11 163.31 526.14 163.33 526.15 163.34 526.16 163.35 526.16 163.36 526.17 163.38 526.18 163.44 526.19 163.7 526.19 163.79 526.19 163.91 526.19 163.95 526.19 164 526.19 164.03 526.21 164.08 526.23 164.14 526.26 164.18 526.29 164.25 526.34 164.32 526.42 164.41 526.49 164.5 526.56 164.58 526.6 164.63 526.66 164.68 526.71 164.71 526.75 164.74 526.76 164.76 526.78 164.79 526.8 164.88 526.81 165.02 526.81 165.13 526.8 165.28 526.8 165.37 526.8 165.43 526.8 165.47 526.81 165.51 526.83 165.56 526.85 165.64 526.88 165.7 526.91 165.75 526.92 165.78 526.93 165.8 526.93 165.82 526.92 165.93 526.9 166.07 526.88 166.15 526.86 166.2 526.84 166.32 526.83 166.43 526.81 166.53 526.79 166.6 526.78 166.64 526.77 166.71 526.76 166.79 526.75 166.84 526.72 166.9 526.67 167.02 526.61 167.1 526.55 167.2 526.53 167.23 526.51 167.26 526.5 167.29 526.49 167.35 526.48 167.43 526.48 167.48 526.47 167.5 526.46 167.52 526.44 167.55 526.42 167.57 526.39 167.59 526.37 167.6 526.34 167.62 526.31 167.65 526.27 167.69 526.22 167.74 526.18 167.77 526.14 167.82 526.1 167.87 526.07 167.91 526.05 167.95 526.01 168.05 525.98 168.1 525.97 168.16 525.95 168.23 525.94 168.27 525.93 168.31 525.92 168.37 525.92 168.42 525.9 168.46 525.89 168.48 525.87 168.51 525.8 168.58 525.76 168.6 525.72 168.65 525.69 168.7 525.64 168.75 525.6 168.78 525.57 168.8 525.53 168.81 525.4 168.84 525.37 168.87 525.24 168.94 525.12 169.01 525.09 169.04 525.09 169.05 525.08 169.08 525.07 169.13 525.06 169.2 525.04 169.27 525.04 169.35 525.02 169.42 525.01 169.45 524.98 169.49 524.95 169.53 524.92 169.56 524.87 169.6 524.8 169.63 524.74 169.66 524.69 169.69 524.68 169.71 524.68 169.73 524.69 169.78 524.7 169.87 524.7 169.91 524.7 169.95 524.68 170.04 524.67 170.12 524.65 170.18 524.65 170.22 524.66 170.25 524.66 170.29 524.68 170.33 524.69 170.35 524.69 170.36 524.7 170.4 524.71 170.43 524.71 170.46 524.7 170.5 524.68 170.53 524.65 170.57 524.61 170.61 524.59 170.64 524.57 170.66 524.55 170.7 524.54 170.75 524.54 170.81 524.54 170.88 524.54 170.93 524.55 170.98 524.55 171.02 524.55 171.06 524.53 171.11 524.51 171.15 524.49 171.19 524.47 171.24 524.43 171.27 524.4 171.31 524.37 171.34 524.35 171.38 524.33 171.43 524.3 171.48 524.28 171.53 524.26 171.57 524.24 171.62 524.22 171.65 524.18 171.7 524.14 171.74 524.1 171.78 524.08 171.8 524.07 171.81 524.07 171.84 524.07 171.87 524.07 171.9 524.09 171.94 524.1 171.98 524.1 172.03 524.09 172.08 524.08 172.13 524.06 172.17 524.04 172.23 524 172.29 523.97 172.33 523.95 172.36 523.93 172.39 523.92 172.41 523.91 172.44 523.92 172.48 523.93 172.53 523.94 172.59 523.96 172.66 523.98 172.73 524 172.78 524.02 172.83 524.04 172.91 524.05 172.98 524.06 173.05 524.05 173.11 524.03 173.16 524.01 173.19 524 173.22 523.98 173.26 523.98 173.3 523.99 173.37 523.99 173.43 523.99 173.46 523.97 173.49 523.94 173.52 523.91 173.55 523.87 173.57 523.84 173.61 523.81 173.66 523.79 173.71 523.77 173.78 523.76 173.84 523.76 173.89 523.76 173.94 523.76 173.98 523.77 174.03 523.79 174.07 523.82 174.14 523.86 174.2 523.9 174.28 523.94 174.35 523.98 174.42 524.02 174.5 524.05 174.57 524.08 174.64 524.11 174.7 524.13 174.76 524.14 174.82 524.14 174.87 524.14 174.93 524.14 174.97 524.15 175 524.17 175.04 524.17 175.07 524.16 175.1 524.15 175.12 524.13 175.13 524.11 175.14 524.08 175.15 524.05 175.15 524.01 175.16 523.97 175.16 523.94 175.15 523.89 175.15 523.85 175.15 523.82 175.16 523.79 175.17 523.76 175.19 523.74 175.22 523.72 175.23 523.71 175.26 523.71 175.29 523.71 175.33 523.71 175.37 523.72 175.41 523.73 175.45 523.75 175.49 523.76 175.53 523.77 175.56 523.78 175.59 523.78 175.63 523.77 175.69 523.76 175.73 523.76 175.76 523.75 175.79 523.74 175.81 523.72 175.85 523.69 175.89 523.66 175.92 523.63 175.96 523.6 175.99 523.57 176.02 523.54 176.05 523.5 176.08 523.48 176.1 523.46 176.13 523.44 176.16 523.44 176.19 523.43 176.23 523.42 176.26 523.42 176.32 523.41 176.39 523.4 176.45 523.39 176.52 523.37 176.59 523.34 176.65 523.32 176.68 523.29 176.72 523.26 176.75 523.22 176.79 523.17 176.83 523.12 176.87 523.09 176.9 523.05 176.93 523.01 176.97 522.96 177.01 522.95 177.03 522.92 177.05 522.88 177.09 522.84 177.12 522.8 177.16 522.76 177.2 522.72 177.25 522.69 177.28 522.66 177.33 522.63 177.37 522.6 177.4 522.56 177.43 522.52 177.45 522.47 177.47 522.43 177.5 522.4 177.52 522.38 177.53 522.36 177.57 522.36 177.61 522.37 177.66 522.38 177.7 522.38 177.72 522.38 177.74 522.36 177.76 522.34 177.78 522.31 177.82 522.28 177.85 522.25 177.88 522.23 177.91 522.21 177.94 522.18 177.96 522.15 177.99 522.11 178.01 522.07 178.02 522.01 178.03 521.95 178.05 521.89 178.08 521.84 178.1 521.73 178.14 521.68 178.16 521.53 178.23 521.47 178.28 521.43 178.31 521.4 178.34 521.37 178.37 521.35 178.39 521.33 178.42 521.33 178.45 521.33 178.47 521.35 178.5 521.39 178.55 521.43 178.6 521.48 178.65 521.52 178.7 521.55 178.75 521.57 178.79 521.57 178.83 521.57 178.85 521.56 178.88 521.55 178.89 521.53 178.89 521.51 178.89 521.48 178.88 521.46 178.87 521.42 178.86 521.38 178.85 521.36 178.86 521.34 178.87 521.32 178.88 521.31 178.91 521.3 178.95 521.29 178.99 521.28 179.08 521.28 179.19 521.28 179.25 521.28 179.33 521.27 179.37 521.25 179.4 521.23 179.45 521.22 179.49 521.22 179.52 521.22 179.56 521.25 179.63 521.27 179.72 521.28 179.79 521.28 179.83 521.27 179.86 521.25 179.87 521.23 179.89 521.19 179.89 521.13 179.89 521.06 179.88 521.01 179.87 520.89 179.87 520.83 179.88 520.77 179.9 520.71 179.92 520.66 179.95 520.63 179.96 520.61 179.98 520.58 180.01 520.56 180.04 520.53 180.1 520.52 180.13 520.51 180.16 520.51 180.18 520.52 180.21 520.53 180.25 520.55 180.29 520.58 180.34 520.6 180.4 520.61 180.45 520.62 180.49 520.62 180.53 520.62 180.58 520.63 180.62 520.64 180.67 520.66 180.72 520.68 180.75 520.71 180.77 520.74 180.81 520.78 180.83 520.81 180.85 520.85 180.88 520.88 180.9 520.9 180.92 520.93 180.95 520.95 180.99 520.98 181.03 521.01 181.09 521.04 181.17 521.08 181.22 521.09 181.26 521.09 181.29 521.07 181.32 521.06 181.35 521.04 181.38 521.01 181.41 520.99 181.45 520.97 181.5 520.94 181.56 520.92 181.61 520.92 181.64 520.91 181.69 520.91 181.74 520.92 181.78 520.92 181.81 520.94 181.86 520.97 181.91 520.99 181.96 521.02 182.01 521.05 182.08 521.07 182.14 521.09 182.17 521.09 182.21 521.08 182.25 521.07 182.28 521.06 182.32 521.04 182.36 521.01 182.43 521 182.47 520.99 182.51 520.98 182.55 520.97 182.59 520.98 182.63 520.99 182.67 521.01 182.7 521.05 182.73 521.1 182.78 521.14 182.81 521.18 182.84 521.23 182.87 521.27 182.91 521.29 182.93 521.31 182.95 521.32 182.98 521.32 183.01 521.32 183.04 521.3 183.07 521.27 183.12 521.23 183.16 521.19 183.22 521.17 183.26 521.16 183.28 521.17 183.31 521.18 183.32 521.2 183.35 521.23 183.37 521.27 183.41 521.31 183.45 521.34 183.48 521.36 183.53 521.37 183.57 521.37 183.6 521.36 183.64 521.35 183.67 521.33 183.7 521.31 183.73 521.3 183.75 521.27 183.78 521.25 183.8 521.23 183.81 521.21 183.84 521.18 183.85 521.14 183.87 521.11 183.89 521.08 183.9 521.06 183.92 521.06 183.94 521.07 183.96 521.07 183.99 521.08 184.03 521.1 184.06 521.11 184.09 521.11 184.11 521.09 184.13 521.06 184.15 521.02 184.16 520.99 184.17 520.96 184.2 520.93 184.23 520.9 184.25 520.86 184.28 520.81 184.29 520.76 184.32 520.69 184.36 520.66 184.39 520.62 184.41 520.58 184.44 520.54 184.47 520.5 184.51 520.47 184.54 520.45 184.57 520.44 184.6 520.44 184.63 520.46 184.66 520.47 184.67 520.5 184.69 520.54 184.71 520.61 184.74 520.65 184.77 520.68 184.79 520.7 184.81 520.72 184.86 520.74 184.92 520.74 184.95 520.73 184.97 520.71 185 520.69 185.03 520.67 185.06 520.61 185.13 520.57 185.17 520.54 185.2 520.53 185.22 520.52 185.25 520.51 185.28 520.5 185.34 520.51 185.42 520.52 185.49 520.51 185.51 520.5 185.53 520.46 185.56 520.43 185.61 520.41 185.65 520.38 185.69 520.36 185.71 520.31 185.74 520.27 185.77 520.15 185.82 520.06 185.85 519.99 185.89 519.96 185.92 519.93 185.95 519.9 185.98 519.87 186.02 519.82 186.11 519.79 186.16 519.76 186.19 519.73 186.23 519.69 186.26 519.65 186.28 519.6 186.3 519.52 186.31 519.46 186.32 519.45 186.33 519.42 186.35 519.38 186.39 519.33 186.41 519.26 186.42 519.17 186.43 519.13 186.44 519.12 186.45 519.1 186.49 519.06 186.56 519.02 186.61 519 186.64 518.98 186.68 518.96 186.77 518.95 186.81 518.95 186.86 518.96 186.88 518.97 186.91 519.01 186.95 519.09 187.01 519.13 187.05 519.14 187.08 519.15 187.11 519.16 187.16 519.18 187.2 519.21 187.24 519.29 187.35 519.38 187.49 519.43 187.58 519.48 187.67 519.5 187.73 519.51 187.78 519.52 187.81 519.51 187.85 519.49 187.91 519.48 187.96 519.45 188.01 519.43 188.05 519.42 188.09 519.41 188.12 519.39 188.2 519.37 188.26 519.35 188.33 519.32 188.38 519.29 188.43 519.26 188.48 519.26 188.51 519.25 188.54 519.25 188.61 519.26 188.72 519.26 188.82 519.28 188.9 519.3 188.97 519.3 189.02 519.3 189.13 519.31 189.23 519.32 189.32 519.31 189.37 519.3 189.44 519.29 189.48 519.27 189.53 519.24 189.61 519.21 189.7 519.17 189.8 519.14 189.86 519.1 189.95 519.06 190 519.04 190.03 519 190.06 518.94 190.12 518.93 190.14 518.92 190.15 518.91 190.18 518.9 190.23 518.89 190.3 518.88 190.33 518.86 190.36 518.84 190.38 518.81 190.41 518.77 190.43 518.71 190.46 518.68 190.47 518.65 190.48 518.6 190.48 518.52 190.47 518.45 190.47 518.38 190.47 518.32 190.48 518.27 190.48 518.18 190.48 518.12 190.47 518.09 190.45 518.05 190.43 518 190.42 517.96 190.42 517.9 190.43 517.83 190.44 517.79 190.46 517.74 190.48 517.71 190.5 517.67 190.53 517.62 190.57 517.59 190.6 517.55 190.62 517.51 190.64 517.43 190.67 517.38 190.68 517.34 190.68 517.3 190.68 517.27 190.68 517.23 190.67 517.18 190.66 517.14 190.64 517.11 190.63 517.07 190.62 517.04 190.63 516.99 190.64 516.9 190.66 516.84 190.68 516.76 190.71 516.71 190.73 516.66 190.75 516.61 190.78 516.58 190.81 516.55 190.84 516.53 190.87 516.5 190.93 516.48 190.96 516.48 190.99 516.47 191.03 516.48 191.07 516.47 191.09 516.44 191.13 516.41 191.15 516.38 191.16 516.34 191.17 516.33 191.17 516.3 191.17 516.27 191.15 516.23 191.14 516.18 191.09 516.07 191.03 515.96 190.96 515.91 190.92 515.87 190.89 515.83 190.85 515.81 190.8 515.76 190.71 515.73 190.69 515.65 190.63 515.56 190.57 515.49 190.5 515.43 190.46 515.39 190.44 515.35 190.44 515.31 190.44 515.28 190.45 515.24 190.46 515.21 190.48 515.16 190.5 515.06 190.56 515 190.59 514.95 190.6 514.91 190.59 514.86 190.59 514.71 190.55 514.65 190.53 514.65 190.52 514.64 190.49 514.62 190.45 514.09 189.74 513.78 189.89 513.78 189.86 513.78 189.69 513.77 189.33 513.77 189.26 513.72 188.91 513.71 188.77 513.71 188.67 513.75 188.17 514.08 187.69 514.08 187.22 514.14 187.03 514.16 186.99 514.21 186.84 514.31 186.51 514.31 186.48 514.36 186.12 514.36 186.11 514.36 186.1 514.36 186.09 514.38 185.97 514.48 185.75 514.79 185.42 515.03 185.17 515.13 185.12 515.39 184.98 515.57 184.88 515.71 184.81 515.9 184.7 516.04 184.63 516.15 184.51 516.28 184.4 516.39 184.29 516.46 184.22 516.52 184.02 516.99 182.47 517.33 181.96 517.47 181.75 517.51 181.69 517.53 181.66 517.65 181.38 517.66 181.37 517.75 181.14 517.76 181.12 517.9 180.78 517.97 180.62 517.99 180.57 518.01 180.39 518.02 180.27 518.02 180.25 518.03 180.17 518.05 180.05 518.06 179.92 518.07 179.8 518.07 179.76 518.07 179.75 518.07 179.74 518.08 179.69 518.02 179.45 518.04 178.59 518.04 178.38 518.05 178 518.17 177.85 518.22 177.66 518.27 177.5 518.27 177.49 518.3 177.4 518.33 177.15 518.27 176.47 518.32 176.38 518.39 176.28 518.51 176.02 518.59 175.88 518.65 175.85 519.06 175.67 519.07 175.67 519.07 175.66 519.18 175.34 519.25 175.1 519.3 174.72 519.34 174.38 519.36 174.2 519.36 174.18 519.36 174.17 519.37 174.06 519.36 174.04 519.35 173.99 519.24 173.37 519.21 173.28 519.09 173.05 519.05 172.99 518.85 172.6 518.81 172.54 518.78 172.47 518.78 172.46 518.77 172.45 518.74 172.38 518.69 172.29 518.53 172.01 518.51 171.99 518.46 171.9 518.43 171.83 518.38 171.69 518.27 171.37 518.27 171.35 518.26 171.3 518.22 171.21 518.22 171.19 518.22 171.18 518.2 171.13 518.19 171.11 518.13 170.96 518.12 170.94 518.12 170.93 518.04 170.78 517.98 170.71 517.85 170.59 517.68 170.42 517.57 170.32 517.41 170.17 517.22 169.98 517.13 169.9 517.07 169.84 516.94 169.72 516.9 169.68 516.89 169.67 516.76 169.55 516.62 169.41 516.6 169.4 516.51 169.31 516.49 169.3 516.48 169.28 516.45 169.26 516.34 169.15 516.25 169.06 516.24 169.05 516.15 168.96 516.12 168.92 516.04 168.91 515.89 168.9 515.85 168.9 515.82 168.9 515.8 168.89 515.77 168.89 515.74 168.89 515.57 168.87 515.51 168.87 515.42 168.86 515.38 168.85 515.27 168.84 515.14 168.83 515.08 168.82 515.04 168.82 514.97 168.81 514.94 168.81 514.73 168.78 514.62 168.77 514.47 168.75 514.4 168.74 514.28 168.72 514.26 168.71 514.07 168.67 514.05 168.67 514.04 168.67 514.01 168.66 513.77 168.61 513.72 168.6 513.72 168.6 513.61 168.58 513.39 168.53 513.38 168.52 513.25 168.5 513.19 168.48 513.16 168.48 512.92 168.43 512.86 168.42 512.85 168.41 512.83 168.41 512.65 168.37 512.59 168.36 512.45 168.33 512.19 168.29 511.89 168.2 511.98 168.01 512.01 167.96 512.02 167.94 512.06 167.88 512.08 167.85 512.13 167.76 512.11 167.42 512.1 167.4 512.1 167.32 512.11 167.27 512.12 167.2 512.06 166.97 512.02 166.91 511.97 166.86 511.96 166.85 511.94 166.82 511.88 166.74 511.82 166.66 511.8 166.63 511.78 166.61 511.75 166.57 511.7 166.5 511.65 166.43 511.59 166.36 511.53 166.29 511.5 166.24 511.5 166.17 511.52 166.07 511.54 166.09 511.58 166.14 511.63 166.2 511.69 166.26 511.75 166.32 511.81 166.37 511.87 166.41 511.93 166.43 511.98 166.45 512.03 166.46 512.17 166.46 512.26 166.45 512.35 166.43 512.43 166.4 512.51 166.37 512.56 166.35 512.64 166.32 512.69 166.3 512.76 166.26 512.87 166.22 512.98 166.17 513.12 166.11 513.26 166.04 513.37 166 513.5 165.94 513.62 165.88 513.72 165.84 513.84 165.79 513.94 165.74 514 165.71 514.05 165.68 514.18 165.61 514.24 165.57 514.31 165.53 514.41 165.48 514.51 165.43 514.62 165.37 514.67 165.36 514.73 165.36 514.81 165.35 514.92 165.34 515 165.34 515.07 165.33 515.1 165.34 515.1 165.29 515.1 165.22 515.1 165.19 515.1 165.11 515.09 165.04 515.08 164.97 515.08 164.89 515.06 164.82 515.05 164.78 515.02 164.73 514.99 164.68 514.96 164.63 514.95 164.6 514.95 164.59 514.96 164.56 514.98 164.49 514.99 164.42 514.99 164.39 514.98 164.36 514.97 164.32 514.95 164.28 514.93 164.22 514.91 164.19 514.88 164.15 514.84 164.11 514.82 164.07 514.81 164.05 514.81 164.02 514.8 163.98 514.8 163.9 514.79 163.86 514.79 163.83 514.79 163.78 514.81 163.7 514.81 163.65 514.8 163.57 514.79 163.41 514.78 163.3 514.78 163.24 514.79 163.2 514.8 163.16 514.81 163.13 514.81 163.11 514.82 163.1 514.84 163.06 514.88 163 514.91 162.96 514.98 162.88 515.03 162.82 515.06 162.77 515.06 162.73 515.06 162.69 515.06 162.67 515.05 162.65 515.03 162.61 514.97 162.53 514.96 162.5 514.95 162.48 514.9 162.4 514.88 162.35 514.83 162.26 514.82 162.21 514.8 162 514.78 161.8 514.78 161.77 514.77 161.73 514.76 161.69 514.83 161.51 514.84 161.5 514.85 161.46 514.91 161.28 514.93 161.21 514.93 161.18 514.94 161.15 514.94 161.12 514.95 161.09 514.95 161.07 514.96 161.06 514.98 161 515 160.95 515.02 160.88 515.06 160.78 515.07 160.76 515.07 160.75 515.08 160.73 515.04 160.58 514.89 160.06 514.78 159.67 514.74 159.52 514.65 159.2 514.6 159.02 514.74 158.94 514.88 158.85 515.14 158.7 515.15 158.69 515.97 158.21 516.29 158.02 516.32 158.01 516.49 157.97 516.87 157.88 516.89 157.88 517.85 157.64 517.86 157.64 518.28 157.31 518.71 156.97 518.58 156.56 518.51 156.34 518.5 156.3 518.36 156.16 518.3 156.08 518.27 156.06 518.14 155.98 518.07 155.93 518.05 155.9 518.02 155.84 517.99 155.78 517.92 155.62 517.87 155.5 517.82 155.36 517.81 155.35 517.71 155.18 517.63 155.01 517.63 154.89 517.63 154.78 517.64 154.62 517.65 154.53 517.66 154.49 517.67 154.44 517.67 154.27 517.7 154.17 517.72 154.04 517.73 153.97 517.75 153.9 517.77 153.83 517.78 153.79 517.82 153.64 517.89 153.29 517.89 153.26 517.89 153.25 517.92 153.09 517.98 152.86 518.04 152.63 518.14 152.22 518.13 151.8 518.11 151.48 518.12 151.44 518.15 151.41 518.24 151.34 518.39 151.2 518.46 151.15 518.52 151.09 518.56 151.06 518.62 151.03 518.66 151.01 518.74 150.98 518.88 150.93 518.95 150.9 519.06 150.87 519.13 150.85 519.16 150.84 519.18 150.82 519.21 150.79 519.23 150.77 519.28 150.73 519.33 150.69 519.39 150.63 519.42 150.58 519.44 150.56 519.45 150.54 519.47 150.45 519.52 150.28 519.57 150.11 519.59 150.02 519.62 149.95 519.65 149.91 519.72 149.84 519.77 149.79 519.82 149.73 519.88 149.67 519.94 149.62 520 149.55 520.05 149.49 520.13 149.41 520.2 149.34 520.26 149.27 520.32 149.21 520.4 149.12 520.47 149.04 520.53 148.98 520.58 148.93 520.6 148.89 520.64 148.8 520.7 148.65 520.76 148.53 520.81 148.42 520.89 148.23 520.94 148.11 520.99 148.02 521.01 148.02 521.04 148.01 521.09 147.99 521.14 147.98 521.21 147.95 521.26 147.94 521.3 147.94 521.34 147.94 521.42 147.94 521.47 147.93 521.53 147.93 521.59 147.93 521.64 147.92 521.68 147.93 521.77 147.93 521.84 147.93 521.89 147.93 521.95 147.93 522.05 147.94 522.11 147.94 522.17 147.95 522.21 147.96 522.29 147.96 522.35 147.98 522.45 148 522.57 148.02 522.65 148.04 522.72 148.07 522.77 148.08 522.82 148.11 522.9 148.15 522.94 148.16 522.99 148.18 523.01 148.19 523.05 148.17 523.09 148.14 523.15 148.12 523.2 148.1 523.25 148.08 523.3 148.05 523.36 148.03 523.5 147.96 523.6 147.91 523.66 147.89 523.72 147.88 523.75 147.89 523.79 147.88 523.82 147.86 523.87 147.81 523.98 147.7 524.14 147.53 524.39 147.28 524.47 147.21 524.59 147.12 524.7 147.02 524.81 146.93 524.9 146.83 524.99 146.74 525.11 146.62 525.22 146.51 525.29 146.41 525.39 146.27 525.5 146.11 525.57 146.01 525.61 145.96 525.69 145.83 525.78 145.69 525.85 145.58 525.92 145.51 526 145.4 526.11 145.28 526.15 145.23 526.2 145.2 526.29 145.13 526.33 145.11 526.39 145.03 526.47 144.92 526.55 144.75 526.62 144.63 526.69 144.49 526.77 144.35 526.79 144.31 526.84 144.27 526.91 144.23 526.96 144.2 526.99 144.17 527.05 144.12 527.1 144.08 527.14 144.02 527.18 143.96 527.21 143.89 527.24 143.84 527.24 143.77 527.24 143.7 527.25 143.63 527.26 143.58 527.29 143.52 527.33 143.46 527.38 143.4 527.47 143.31 527.55 143.21 527.76 142.95 527.91 142.75 527.94 142.69 527.97 142.67 528.03 142.64 528.11 142.59 528.13 142.58 528.28 142.31 528.41 142.07 528.42 142.05 528.58 141.77 528.57 141.75 528.24 141.13 528.19 141.03 528.09 140.84 527.94 140.79 527.72 140.71 527.67 140.7 527.57 140.68 527.41 140.63 527.31 140.61 527.21 140.59 527.09 140.54 526.96 140.48 526.78 140.4 526.66 140.34 526.58 140.3 526.45 140.24 Z"/>
</g></svg>