<svg xmlns="http://www.w3.org/2000/svg" version="1.2" baseProfile="tiny" stroke-linecap="round" stroke-linejoin="round" viewBox="417.25 204.05 9.4 18.15"><g xmlns="http://www.w3.org/2000/svg" id="Betelu">
<path d="M 425.1 204.08 425.11 204.08 425.13 204.08 425.16 204.09 425.19 204.09 425.24 204.11 425.26 204.13 425.3 204.14 425.38 204.15 425.51 204.18 425.63 204.22 425.76 204.24 425.85 204.26 425.92 204.28 425.99 204.29 426.08 204.29 426.21 204.28 426.4 204.28 426.47 204.28 426.52 204.28 426.47 204.33 426.41 204.43 426.34 204.54 426.25 204.68 426.2 204.75 426.17 204.82 426.14 204.89 426.1 205 426.04 205.13 425.99 205.25 425.93 205.38 425.89 205.47 425.74 205.78 425.64 205.93 425.56 206.08 425.51 206.17 425.48 206.24 425.4 206.39 425.34 206.53 425.32 206.6 425.31 206.62 425.28 206.76 425.25 206.85 425.22 206.92 425.22 206.98 425.22 206.99 425.22 207.01 425.22 207.16 425.21 207.3 425.21 207.42 425.22 207.43 425.22 207.45 425.22 207.46 425.2 207.59 425.18 207.83 425.16 208.05 425.14 208.21 425.12 208.52 425.08 208.91 425.03 209.24 425.01 209.43 425 209.52 425 209.54 425 209.56 424.99 209.62 425.09 209.61 425.1 209.61 425.23 209.59 425.3 209.59 425.35 209.6 425.39 209.63 425.44 209.67 425.46 209.68 425.47 209.69 425.6 209.79 425.71 209.89 425.86 209.98 425.94 210.03 426 210.07 426.05 210.12 426.11 210.2 426.18 210.32 426.21 210.37 426.25 210.41 426.3 210.43 426.34 210.44 426.4 210.44 426.45 210.44 426.46 210.49 426.6 211.29 426.64 211.56 426.61 211.61 426.58 211.69 426.54 211.81 426.49 211.91 426.47 211.98 426.36 212.15 426.21 212.4 426.14 212.51 426.1 212.6 426.09 212.61 425.95 212.91 425.92 212.98 425.87 213.08 425.86 213.11 425.83 213.17 425.57 213.72 425.34 214.2 425.33 214.21 425.26 214.35 425.25 214.38 425.14 214.59 425.12 214.63 425.1 214.67 424.91 215 424.83 215.13 424.75 215.27 424.7 215.36 424.67 215.44 424.67 215.44 424.65 215.5 424.55 215.83 424.54 215.85 424.5 216 424.47 216.08 424.41 216.26 424.36 216.39 424.3 216.52 424.26 216.65 424.14 217.01 423.81 217.62 423.75 217.74 423.7 217.82 423.69 217.85 423.68 217.86 423.64 217.93 423.63 217.96 423.57 218.08 423.47 218.34 423.43 218.43 423.4 218.5 423.34 218.65 423.34 218.66 423.28 218.89 423.22 219.11 423.21 219.12 423.16 219.31 423.11 219.53 423.09 219.6 423.08 219.63 423.08 219.65 423.05 219.68 422.93 219.8 422.74 219.99 422.66 220.07 422.61 220.12 422.59 220.14 422.53 220.26 422.46 220.39 422.42 220.47 422.31 220.69 422.21 220.89 422.1 221.12 422.02 221.26 422 221.3 421.96 221.34 421.88 221.44 421.78 221.55 421.57 221.79 421.26 222.17 419.88 221.57 419.91 221.35 419.93 221.11 419.95 220.97 420.01 220.75 420.05 220.57 420.14 220.29 420.22 220.02 420.33 219.79 420.48 219.36 420.52 219.23 420.54 219.14 420.55 218.99 420.55 218.97 420.57 218.85 420.6 218.66 420.6 218.64 420.6 218.63 420.6 218.59 420.61 218.51 420.62 218.47 420.62 218.46 420.62 218.41 420.63 218.39 420.64 218.26 420.64 218.23 420.64 218.15 420.67 217.95 420.68 217.88 420.7 217.72 420.71 217.71 420.71 217.68 420.72 217.54 420.73 217.35 420.75 217.2 420.77 217.02 420.77 216.82 420.78 216.75 420.79 216.5 420.8 216.32 420.81 216.22 420.81 216.17 420.83 216.11 420.82 216.09 420.82 216.07 420.82 216.04 420.81 215.98 420.74 215.63 420.72 215.53 420.7 215.43 420.68 215.35 420.68 215.33 420.67 215.25 420.66 215.21 420.63 215.06 420.6 214.91 420.59 214.85 420.59 214.83 420.56 214.66 420.53 214.49 420.52 214.41 420.51 214.39 420.5 214.32 420.49 214.28 420.48 214.24 420.46 214.18 420.45 214.13 420.44 214.08 420.41 213.99 420.36 213.83 420.34 213.77 420.3 213.64 420.28 213.59 420.28 213.55 420.29 213.51 420.29 213.44 420.3 213.4 420.3 213.21 420.31 213.13 420.31 213.12 420.31 213.05 420.3 212.95 420.31 212.89 420.31 212.87 420.31 212.8 420.31 212.71 420.3 212.7 420.29 212.68 420.28 212.67 420.26 212.64 420.21 212.57 420.15 212.44 420.13 212.39 420.11 212.34 420.08 212.27 420.04 212.17 420.03 212.13 420.01 212.1 419.99 212.07 419.96 212.03 419.91 211.94 419.85 211.86 419.74 211.66 419.72 211.63 419.65 211.49 419.29 210.83 419.29 210.8 419.29 210.77 419.3 210.74 419.31 210.67 419.31 210.57 419.31 210.5 419.31 210.44 419.31 210.39 419.3 210.34 419.3 210.28 419.28 210.22 419.27 210.17 419.26 210.15 419.24 210.13 419.2 210.08 419.18 210.05 419.11 209.97 419.09 209.94 419 209.84 418.99 209.82 418.94 209.78 418.89 209.71 418.75 209.56 418.74 209.54 418.71 209.51 418.67 209.45 418.65 209.44 418.54 209.33 418.53 209.29 418.47 209.2 418.41 209.1 418.3 208.94 418.22 208.84 418.18 208.8 418.17 208.79 418.15 208.77 418.12 208.74 418.1 208.72 418.07 208.7 418.05 208.68 418.02 208.66 418 208.64 417.84 208.51 417.81 208.49 417.56 208.28 417.47 208.2 417.46 208.2 417.36 208.11 417.26 208.03 417.31 207.96 417.34 207.91 417.41 207.8 417.44 207.76 417.56 207.59 417.64 207.46 417.67 207.41 417.67 207.4 417.68 207.39 417.69 207.38 417.7 207.38 417.76 207.32 417.86 207.26 417.87 207.26 417.95 207.21 418.04 207.15 418.07 207.13 418.16 207.06 418.32 206.96 418.42 206.9 418.46 206.88 418.75 206.7 418.81 206.66 418.86 206.62 418.9 206.59 418.93 206.56 418.96 206.53 419.02 206.48 419.03 206.47 419.03 206.47 419.08 206.43 419.17 206.37 419.17 206.37 419.23 206.33 419.25 206.31 419.28 206.29 419.34 206.26 419.42 206.21 419.48 206.18 419.67 206.11 419.87 206.02 419.93 206 419.97 205.98 420.01 205.96 420.04 205.95 420.05 205.94 420.11 205.92 420.13 205.91 420.15 205.9 420.19 205.88 420.31 205.84 420.32 205.83 420.34 205.83 420.46 205.79 420.5 205.78 420.52 205.77 420.58 205.76 420.6 205.75 420.63 205.74 420.66 205.73 420.78 205.71 420.89 205.69 420.96 205.68 420.99 205.67 421.08 205.65 421.1 205.64 421.15 205.63 421.17 205.63 421.27 205.6 421.35 205.57 421.36 205.57 421.37 205.56 421.43 205.55 421.51 205.52 421.52 205.51 421.62 205.47 421.69 205.43 421.69 205.43 421.71 205.42 421.78 205.41 421.79 205.4 421.88 205.38 421.9 205.37 421.93 205.36 421.98 205.34 422.36 205.11 422.4 205.09 422.44 205.07 422.66 204.96 422.92 204.82 422.98 204.79 423.38 204.58 423.39 204.57 423.41 204.56 423.77 204.38 423.82 204.36 424.05 204.3 424.38 204.23 424.75 204.13 424.97 204.09 425.01 204.08 425.05 204.08 425.08 204.08 425.1 204.08 Z"/>
</g></svg>