<svg xmlns="http://www.w3.org/2000/svg" version="1.2" baseProfile="tiny" stroke-linecap="round" stroke-linejoin="round" viewBox="533.35 23.6 12.13 18.4"><g xmlns="http://www.w3.org/2000/svg" id="Biarritz/Miarritze">
<path d="M 541.26 24.12 541.27 24.13 541.34 24.23 541.43 24.22 541.5 24.21 541.65 24.32 541.8 24.42 541.83 24.45 541.85 24.47 541.88 24.49 541.92 24.52 541.93 24.53 541.98 24.56 542.09 24.65 542.11 24.67 542.34 24.85 542.38 24.87 542.41 24.9 542.48 24.95 542.49 24.96 542.51 24.98 542.55 25.01 542.59 25.04 542.64 25.08 542.71 25.14 542.72 25.14 542.73 25.15 542.76 25.18 542.8 25.21 542.82 25.23 542.83 25.23 542.85 25.25 542.89 25.28 542.9 25.29 542.91 25.3 542.95 25.33 542.97 25.34 543.02 25.39 543.06 25.42 543.11 25.46 543.35 25.65 543.54 25.79 543.65 25.87 543.7 25.91 543.75 25.95 543.77 25.97 543.95 26.09 544.05 26.16 544.07 26.18 544.14 26.23 544.16 26.25 544.18 26.26 544.21 26.28 544.36 26.39 544.38 26.4 544.39 26.41 544.4 26.43 544.43 26.45 544.49 26.5 544.53 26.54 544.57 26.56 544.61 26.59 544.67 26.63 544.71 26.66 544.72 26.68 544.77 26.72 544.84 26.77 544.88 26.8 544.97 26.87 545.03 26.92 545.07 26.95 545.07 27 545.08 27.02 545.08 27.04 545.09 27.07 545.09 27.11 545.1 27.19 545.11 27.36 545.12 27.54 545.14 27.82 545.17 28.31 545.17 28.43 545.17 28.78 545.18 28.9 545.18 28.93 545.19 29.01 545.19 29.06 545.2 29.18 545.2 29.19 545.21 29.28 545.21 29.3 545.23 29.56 545.23 29.61 545.24 29.68 545.24 29.71 545.24 29.74 545.24 29.81 545.25 29.84 545.25 29.88 545.25 29.92 545.26 30.01 545.26 30.03 545.26 30.08 545.27 30.28 545.27 30.35 545.27 30.38 545.27 30.43 545.27 30.48 545.28 30.65 545.28 30.68 545.29 30.8 545.3 30.9 545.33 31.19 545.34 31.41 545.39 31.91 545.41 32.12 545.45 32.42 545.45 32.51 545.45 32.59 545.46 32.71 545.46 32.72 545.46 32.81 545.46 32.82 545.46 32.91 545.46 33.05 545.47 33.53 545.46 33.67 545.45 33.83 545.44 34.04 545.44 34.51 545.43 34.59 545.42 34.72 545.42 34.8 545.42 34.81 545.4 35.01 545.38 35.25 545.37 35.35 545.33 35.66 545.32 35.73 545.32 35.76 545.31 35.93 545.29 36.01 545.29 36.03 545.28 36.09 545.27 36.15 545.22 36.57 545.21 36.61 545.17 36.82 545.11 37.08 545.1 37.14 545.09 37.19 545.07 37.22 545.01 37.32 544.99 37.35 544.98 37.39 544.96 37.42 544.93 37.48 544.91 37.51 544.88 37.55 544.79 37.72 544.78 37.74 544.62 38.05 544.54 38.18 544.54 38.2 544.53 38.23 544.45 38.37 544.37 38.5 544.3 38.62 544.25 38.69 544.16 38.85 544.15 38.88 544.14 38.89 544.06 39.04 543.99 39.29 543.98 39.31 543.98 39.35 543.96 39.54 543.96 39.56 543.93 39.82 543.87 40.4 543.94 40.81 543.99 41.19 544.02 41.4 544.02 41.44 544.03 41.71 544.05 41.83 544.04 41.83 543.82 41.83 543.76 41.84 543.46 41.86 543.43 41.86 543.11 41.88 542.78 41.89 542.76 41.89 542.51 41.9 542.36 41.91 542.09 41.92 542.01 41.92 541.58 41.94 541.16 41.95 540.73 41.97 540.68 41.97 540.37 41.89 540.29 41.86 540.25 41.85 540.13 41.82 539.77 41.71 539.76 41.71 539.59 41.66 539.31 41.52 539.3 41.52 539.27 41.51 539.21 41.48 539.08 41.41 538.99 41.36 538.78 41.25 538.72 41.22 538.64 41.18 538.56 41.14 538.49 41.1 538.43 41.06 538.38 41.04 538.37 41.03 538.34 41.01 538.03 40.82 537.79 40.67 537.7 40.62 537.52 40.22 537.34 39.8 537.32 39.78 537.31 39.74 537.27 39.68 537.07 39.18 536.94 38.89 536.92 38.84 536.91 38.85 536.88 38.86 536.84 38.86 536.8 38.87 536.76 38.89 536.75 38.9 536.73 38.88 536.7 38.85 536.7 38.84 536.67 38.79 536.64 38.73 536.63 38.68 536.63 38.66 536.6 38.63 536.55 38.59 536.54 38.56 536.52 38.53 536.52 38.5 536.52 38.47 536.52 38.45 536.52 38.42 536.49 38.34 536.49 38.3 536.48 38.26 536.46 38.23 536.44 38.18 536.41 38.13 536.38 38.09 536.35 38.06 536.29 37.99 536.23 37.92 536.17 37.85 536.16 37.84 535.99 37.67 535.96 37.58 535.93 37.55 535.89 37.51 536.04 37.32 535.67 37.31 535.59 37.22 535.53 37.17 535.49 37.13 535.46 37.09 535.44 37.09 535.37 37.06 535.08 36.96 534.04 36.59 533.79 36.5 533.77 36.49 533.59 36.43 533.55 36.41 533.52 36.4 533.44 36.21 533.42 36.14 533.37 36.03 533.42 35.98 533.49 35.98 533.54 35.97 533.58 35.94 533.6 35.88 533.63 35.82 533.67 35.77 533.69 35.71 533.7 35.65 533.71 35.63 533.73 35.61 533.75 35.59 533.77 35.57 533.79 35.55 533.8 35.53 533.82 35.49 533.82 35.46 533.83 35.44 533.83 35.41 533.83 35.38 533.83 35.36 533.84 35.35 533.86 35.33 533.88 35.31 533.89 35.28 533.89 35.25 533.9 35.21 533.91 35.17 533.92 35.13 533.94 35.1 533.96 35.08 533.97 35.05 533.98 35.02 533.98 34.99 533.97 34.97 533.96 34.95 533.95 34.94 533.95 34.9 533.95 34.86 533.96 34.82 533.97 34.73 533.98 34.68 533.98 34.64 533.98 34.59 533.99 34.55 533.99 34.52 534 34.5 534.01 34.49 534.02 34.48 534.02 34.47 534.03 34.47 534.04 34.46 534.05 34.45 534.06 34.45 534.13 34.42 534.17 34.41 534.19 34.4 534.21 34.39 534.23 34.37 534.28 34.34 534.29 34.33 534.31 34.31 534.33 34.3 534.34 34.28 534.35 34.26 534.37 34.23 534.4 34.21 534.42 34.19 534.44 34.17 534.46 34.15 534.48 34.13 534.5 34.1 534.52 34.07 534.53 34.04 534.55 34.02 534.56 33.99 534.58 33.96 534.59 33.93 534.61 33.91 534.62 33.89 534.63 33.88 534.65 33.86 534.66 33.84 534.67 33.81 534.69 33.79 534.71 33.75 534.73 33.73 534.74 33.72 534.75 33.7 534.76 33.67 534.78 33.65 534.78 33.64 534.79 33.63 534.81 33.6 534.82 33.58 534.83 33.56 534.83 33.54 534.83 33.53 534.82 33.5 534.82 33.49 534.82 33.47 534.82 33.46 534.84 33.45 534.84 33.45 534.85 33.44 534.86 33.42 534.86 33.41 534.87 33.4 534.88 33.39 534.89 33.38 534.9 33.38 534.9 33.37 534.91 33.36 534.91 33.35 534.91 33.33 534.92 33.31 534.92 33.29 534.93 33.28 534.93 33.27 534.93 33.26 534.93 33.25 534.94 33.24 534.96 33.23 534.97 33.21 534.97 33.21 534.97 33.19 534.98 33.18 534.99 33.17 535 33.17 535.01 33.16 535.02 33.15 535.02 33.14 535.03 33.13 535.04 33.12 535.05 33.11 535.06 33.1 535.07 33.09 535.08 33.08 535.09 33.07 535.1 33.06 535.11 33.03 535.12 33.02 535.12 33.01 535.13 33 535.14 32.99 535.14 32.99 535.15 32.98 535.16 32.97 535.16 32.97 535.17 32.94 535.18 32.9 535.19 32.88 535.19 32.87 535.2 32.86 535.21 32.85 535.22 32.85 535.22 32.84 535.22 32.83 535.22 32.82 535.23 32.81 535.23 32.8 535.24 32.8 535.26 32.78 535.27 32.76 535.28 32.75 535.28 32.74 535.29 32.72 535.29 32.71 535.29 32.7 535.3 32.69 535.31 32.69 535.32 32.67 535.33 32.64 535.33 32.64 535.32 32.63 535.32 32.62 535.33 32.61 535.34 32.61 535.35 32.6 535.37 32.59 535.38 32.58 535.38 32.57 535.38 32.56 535.38 32.55 535.39 32.54 535.39 32.53 535.4 32.52 535.39 32.51 535.39 32.5 535.39 32.49 535.39 32.48 535.41 32.47 535.42 32.46 535.43 32.45 535.44 32.43 535.45 32.41 535.45 32.41 535.46 32.4 535.47 32.39 535.48 32.39 535.48 32.38 535.49 32.34 535.5 32.32 535.5 32.31 535.5 32.29 535.51 32.29 535.52 32.29 535.52 32.26 535.53 32.24 535.53 32.23 535.54 32.22 535.55 32.21 535.56 32.19 535.57 32.18 535.57 32.17 535.58 32.16 535.58 32.14 535.59 32.12 535.6 32.12 535.61 32.1 535.62 32.08 535.63 32.05 535.65 32.02 535.66 31.99 535.67 31.98 535.67 31.96 535.68 31.95 535.68 31.93 535.69 31.91 535.7 31.92 535.7 31.91 535.71 31.9 535.7 31.86 535.69 31.84 535.68 31.83 535.68 31.82 535.69 31.81 535.7 31.78 535.73 31.75 535.74 31.72 535.76 31.69 535.78 31.65 535.79 31.61 535.81 31.55 535.83 31.48 535.85 31.43 535.86 31.4 535.88 31.33 535.9 31.26 535.93 31.13 535.96 31.05 535.97 31.02 536.01 30.87 536.11 30.56 536.17 30.38 536.18 30.34 536.21 30.23 536.17 30.22 536.18 30.16 536.23 30.17 536.26 30.05 536.27 30.01 536.27 30 536.32 29.62 536.33 29.53 536.35 29.35 536.36 29.3 536.36 29.26 536.36 29.24 536.35 29.21 536.35 29.19 536.33 29.16 536.29 29.12 536.27 29.09 536.24 29.07 536.14 29.02 535.93 28.93 535.91 28.93 535.88 28.91 535.82 28.9 535.73 28.87 535.69 28.85 535.66 28.84 535.64 28.83 535.63 28.81 535.62 28.79 535.6 28.79 535.58 28.79 535.57 28.8 535.54 28.8 535.53 28.81 535.52 28.78 535.51 28.77 535.52 28.75 535.51 28.72 535.51 28.7 535.5 28.69 535.48 28.68 535.47 28.66 535.47 28.65 535.46 28.64 535.45 28.63 535.49 28.63 535.52 28.62 535.54 28.62 535.56 28.62 535.58 28.63 535.6 28.65 535.61 28.66 535.61 28.67 535.63 28.67 535.64 28.63 535.63 28.6 535.61 28.6 535.6 28.6 535.58 28.6 535.57 28.58 535.55 28.57 535.54 28.56 535.54 28.55 535.55 28.54 535.56 28.54 535.56 28.54 535.57 28.54 535.58 28.53 535.59 28.54 535.6 28.54 535.61 28.56 535.62 28.57 535.64 28.58 535.64 28.59 535.65 28.59 535.67 28.59 535.67 28.57 535.66 28.55 535.66 28.53 535.64 28.5 535.63 28.48 535.62 28.49 535.61 28.48 535.58 28.46 535.58 28.46 535.58 28.44 535.59 28.43 535.59 28.43 535.59 28.41 535.59 28.4 535.61 28.39 535.61 28.39 535.62 28.38 535.62 28.37 535.62 28.37 535.63 28.36 535.64 28.36 535.65 28.38 535.66 28.38 535.67 28.4 535.68 28.41 535.7 28.43 535.7 28.44 535.71 28.45 535.72 28.46 535.72 28.47 535.76 28.46 535.78 28.46 535.8 28.44 535.81 28.44 535.83 28.43 535.84 28.42 535.84 28.41 535.85 28.41 535.86 28.4 535.88 28.38 535.91 28.34 535.92 28.32 535.93 28.3 535.92 28.29 535.92 28.27 535.89 28.26 535.87 28.25 535.85 28.25 535.84 28.25 535.85 28.23 535.83 28.22 535.82 28.21 535.82 28.19 535.81 28.18 535.8 28.18 535.8 28.17 535.78 28.16 535.77 28.15 535.76 28.14 535.73 28.13 535.72 28.13 535.71 28.13 535.68 28.13 535.67 28.13 535.65 28.13 535.64 28.12 535.64 28.12 535.62 28.12 535.61 28.12 535.6 28.11 535.6 28.11 535.6 28.1 535.59 28.1 535.58 28.08 535.58 28.08 535.57 28.07 535.57 28.06 535.58 28.05 535.59 28.05 535.61 28.05 535.62 28.06 535.62 28.05 535.62 28.04 535.62 28.02 535.62 28.01 535.61 27.98 535.6 27.95 535.59 27.94 535.58 27.92 535.57 27.91 535.54 27.9 535.52 27.9 535.49 27.89 535.47 27.88 535.46 27.88 535.45 27.87 535.43 27.86 535.43 27.85 535.42 27.84 535.43 27.84 535.44 27.84 535.45 27.84 535.46 27.84 535.48 27.84 535.5 27.85 535.51 27.85 535.52 27.84 535.53 27.84 535.54 27.83 535.56 27.83 535.56 27.81 535.55 27.81 535.54 27.81 535.52 27.8 535.52 27.8 535.5 27.8 535.49 27.79 535.48 27.79 535.47 27.78 535.46 27.78 535.44 27.77 535.42 27.76 535.42 27.75 535.4 27.75 535.39 27.75 535.39 27.74 535.39 27.73 535.39 27.72 535.4 27.72 535.41 27.72 535.44 27.72 535.46 27.72 535.48 27.72 535.51 27.73 535.52 27.74 535.54 27.77 535.55 27.78 535.58 27.8 535.58 27.81 535.59 27.82 535.6 27.83 535.61 27.84 535.62 27.84 535.63 27.84 535.64 27.84 535.64 27.85 535.66 27.86 535.68 27.88 535.7 27.88 535.7 27.88 535.71 27.89 535.72 27.89 535.74 27.89 535.75 27.88 535.76 27.88 535.78 27.88 535.78 27.87 535.8 27.87 535.81 27.86 535.81 27.87 535.87 27.87 535.88 27.86 535.89 27.85 535.9 27.84 535.9 27.84 535.91 27.83 535.92 27.82 535.93 27.82 535.94 27.82 535.93 27.81 535.94 27.8 535.95 27.8 535.96 27.8 535.96 27.78 535.98 27.77 535.98 27.75 535.99 27.75 535.99 27.75 536.01 27.75 536.03 27.75 536.03 27.74 536.05 27.73 536.05 27.73 536.06 27.73 536.08 27.73 536.1 27.74 536.13 27.74 536.15 27.73 536.16 27.72 536.16 27.71 536.17 27.7 536.18 27.69 536.19 27.69 536.22 27.66 536.24 27.64 536.25 27.62 536.25 27.61 536.24 27.61 536.23 27.6 536.21 27.59 536.2 27.59 536.18 27.58 536.15 27.57 536.12 27.56 536.1 27.55 536.09 27.54 536.09 27.52 536.09 27.51 536.09 27.48 536.08 27.48 536.07 27.47 536.07 27.46 536.07 27.44 536.07 27.43 536.08 27.42 536.08 27.42 536.1 27.42 536.11 27.41 536.12 27.41 536.13 27.42 536.14 27.42 536.15 27.43 536.16 27.44 536.17 27.45 536.17 27.48 536.17 27.49 536.16 27.49 536.15 27.5 536.13 27.5 536.12 27.5 536.11 27.5 536.11 27.51 536.11 27.52 536.11 27.53 536.13 27.54 536.18 27.56 536.2 27.57 536.23 27.58 536.25 27.58 536.25 27.58 536.27 27.57 536.28 27.57 536.29 27.58 536.29 27.59 536.29 27.6 536.3 27.61 536.31 27.62 536.3 27.63 536.29 27.63 536.28 27.63 536.27 27.64 536.26 27.66 536.25 27.68 536.22 27.7 536.21 27.71 536.23 27.71 536.25 27.72 536.28 27.72 536.29 27.72 536.29 27.72 536.31 27.71 536.32 27.7 536.32 27.71 536.33 27.71 536.33 27.72 536.34 27.73 536.35 27.74 536.36 27.76 536.37 27.77 536.37 27.79 536.38 27.81 536.38 27.82 536.38 27.85 536.38 27.86 536.37 27.88 536.37 27.89 536.36 27.9 536.33 27.92 536.31 27.94 536.28 27.95 536.27 27.98 536.26 27.99 536.25 28 536.24 28.01 536.23 28.02 536.23 28.03 536.23 28.04 536.22 28.05 536.22 28.07 536.22 28.08 536.23 28.09 536.25 28.09 536.26 28.09 536.29 28.09 536.31 28.09 536.33 28.09 536.37 28.1 536.48 28.1 536.48 28.08 536.5 28.07 536.5 28.06 536.51 28.05 536.53 28.04 536.53 28.03 536.54 28.03 536.57 28.02 536.58 28.01 536.64 28.02 536.68 28.02 536.74 28.03 536.75 28.03 536.77 28.05 536.8 28.07 536.84 28.04 536.86 28.02 536.87 27.99 536.88 27.98 536.91 27.97 536.91 27.98 536.98 28 536.99 28 536.99 28.01 537.01 28.01 537.04 28.01 537.08 28.01 537.11 28.01 537.14 28 537.15 28 537.16 27.99 537.16 27.99 537.17 27.99 537.19 27.99 537.2 27.98 537.2 27.97 537.22 27.97 537.22 27.96 537.22 27.95 537.23 27.95 537.25 27.95 537.25 27.96 537.27 27.96 537.3 27.95 537.31 27.94 537.32 27.93 537.33 27.92 537.34 27.92 537.36 27.91 537.37 27.9 537.39 27.89 537.4 27.88 537.41 27.87 537.43 27.85 537.45 27.83 537.46 27.81 537.46 27.8 537.46 27.79 537.46 27.78 537.47 27.77 537.49 27.77 537.5 27.78 537.51 27.79 537.52 27.79 537.53 27.81 537.54 27.82 537.6 27.85 537.61 27.86 537.63 27.87 537.67 27.88 537.66 27.88 537.65 27.89 537.65 27.9 537.65 27.92 537.67 27.93 537.68 27.93 537.7 27.94 537.73 27.94 537.76 27.93 537.79 27.92 537.82 27.9 537.85 27.88 537.88 27.86 537.91 27.83 537.94 27.82 537.97 27.79 538 27.76 538.03 27.74 538.06 27.71 538.1 27.68 538.14 27.65 538.17 27.62 538.21 27.59 538.25 27.55 538.3 27.5 538.36 27.44 538.42 27.36 538.47 27.31 538.53 27.24 538.58 27.17 538.61 27.12 538.65 27.06 538.67 27.02 538.69 26.99 538.71 26.95 538.74 26.9 538.76 26.87 538.77 26.83 538.8 26.78 538.81 26.75 538.84 26.72 538.87 26.69 538.89 26.66 538.91 26.64 538.94 26.6 538.95 26.59 538.96 26.56 539 26.55 539.02 26.52 539.02 26.5 539.08 26.47 539.1 26.45 539.13 26.43 539.16 26.4 539.19 26.36 539.21 26.33 539.24 26.28 539.27 26.24 539.29 26.21 539.31 26.17 539.34 26.14 539.37 26.11 539.4 26.08 539.42 26.06 539.44 26.04 539.47 26.02 539.49 26 539.51 25.97 539.53 25.94 539.56 25.89 539.6 25.83 539.62 25.82 539.65 25.8 539.68 25.78 539.7 25.76 539.72 25.74 539.74 25.71 539.75 25.68 539.76 25.64 539.77 25.63 539.78 25.61 539.79 25.6 539.79 25.58 539.8 25.54 539.81 25.51 539.83 25.48 539.84 25.45 539.87 25.41 539.88 25.38 539.9 25.35 539.95 25.29 539.98 25.25 539.99 25.23 540.01 25.2 540.01 25.19 540.02 25.17 540.03 25.15 540.04 25.12 540.05 25.09 540.07 25.06 540.08 25.04 540.09 25.01 540.1 24.98 540.11 24.95 540.11 24.91 540.11 24.91 540.12 24.83 540.12 24.8 540.13 24.78 540.14 24.77 540.14 24.75 540.14 24.74 540.14 24.72 540.13 24.71 540.13 24.71 540.11 24.7 540.1 24.7 540.1 24.68 540.09 24.67 540.1 24.64 540.1 24.62 540.1 24.61 540.09 24.6 540.08 24.59 540.07 24.59 540.05 24.58 540.05 24.55 540.05 24.53 540.05 24.52 540.06 24.49 540.07 24.45 540.07 24.43 540.07 24.41 540.07 24.39 540.06 24.35 540.05 24.3 540.04 24.27 540.02 24.23 540 24.21 539.98 24.19 539.95 24.18 539.91 24.17 539.9 24.17 539.84 24.18 539.74 24.2 539.71 24.21 539.69 24.22 539.64 24.23 539.61 24.23 539.59 24.23 539.57 24.23 539.56 24.24 539.54 24.24 539.54 24.24 539.53 24.23 539.53 24.22 539.52 24.2 539.52 24.19 539.51 24.18 539.5 24.17 539.48 24.16 539.48 24.15 539.47 24.14 539.47 24.13 539.47 24.12 539.48 24.11 539.47 24.09 539.47 24.07 539.47 24.06 539.46 24.05 539.45 24.04 539.45 24.03 539.45 24.01 539.44 24 539.43 23.99 539.42 23.97 539.41 23.96 539.4 23.95 539.38 23.94 539.38 23.93 539.38 23.9 539.38 23.88 539.39 23.84 539.39 23.83 539.38 23.81 539.37 23.79 539.36 23.76 539.36 23.75 539.36 23.74 539.36 23.73 539.37 23.73 539.4 23.72 539.4 23.72 539.41 23.71 539.41 23.7 539.42 23.7 539.44 23.69 539.46 23.69 539.46 23.68 539.47 23.68 539.48 23.69 539.49 23.68 539.5 23.69 539.53 23.69 539.55 23.69 539.56 23.68 539.57 23.68 539.59 23.66 539.6 23.64 539.62 23.63 539.63 23.62 539.65 23.61 539.67 23.62 539.68 23.62 539.68 23.63 539.69 23.63 539.7 23.62 539.72 23.63 539.72 23.63 539.74 23.63 539.77 23.65 539.78 23.66 539.81 23.66 539.84 23.66 539.86 23.66 539.87 23.66 539.89 23.67 539.92 23.69 539.93 23.7 539.94 23.72 539.99 23.72 539.98 23.73 540.01 23.74 540.04 23.77 540.07 23.79 540.1 23.81 540.13 23.82 540.15 23.83 540.18 23.83 540.2 23.84 540.22 23.84 540.24 23.85 540.29 23.87 540.31 23.88 540.34 23.9 540.37 23.92 540.38 23.93 540.4 23.94 540.43 23.95 540.46 23.97 540.48 23.98 540.5 24 540.53 24.02 540.55 24.04 540.57 24.06 540.59 24.08 540.6 24.08 540.63 24.07 540.64 24.08 540.65 24.09 540.67 24.1 540.68 24.11 540.69 24.12 540.69 24.13 540.69 24.14 540.7 24.16 540.71 24.17 540.72 24.18 540.76 24.19 540.77 24.19 540.78 24.19 540.79 24.19 540.81 24.18 540.83 24.17 540.84 24.17 540.86 24.16 540.87 24.16 540.88 24.15 540.9 24.13 540.9 24.12 540.91 24.12 540.92 24.11 540.93 24.11 540.95 24.11 540.95 24.11 540.97 24.12 540.98 24.12 540.99 24.13 541 24.13 541.01 24.12 541.02 24.12 541.04 24.12 541.05 24.12 541.06 24.13 541.07 24.13 541.08 24.14 541.11 24.16 541.12 24.16 541.14 24.16 541.15 24.16 541.17 24.16 541.19 24.16 541.22 24.15 541.24 24.13 541.26 24.12 Z"/>
</g></svg>