<svg xmlns="http://www.w3.org/2000/svg" version="1.2" baseProfile="tiny" stroke-linecap="round" stroke-linejoin="round" viewBox="455.5 302.12 11.77 11"><g xmlns="http://www.w3.org/2000/svg" id="Bidaurreta">
<path d="M 467.26 306.52 467.23 306.55 467.15 306.57 467.08 306.59 466.98 306.63 466.94 306.65 466.88 306.66 466.83 306.67 466.8 306.67 466.75 306.67 466.68 306.68 466.6 306.68 466.53 306.68 466.45 306.68 466.39 306.68 466.3 306.68 466.21 306.68 466.13 306.67 466.06 306.66 465.98 306.65 465.88 306.62 465.8 306.6 465.79 306.65 465.78 306.67 465.77 306.7 465.76 306.72 465.75 306.72 465.73 306.78 465.7 306.85 465.68 306.87 465.67 306.9 465.65 306.94 465.62 306.99 465.59 307.04 465.57 307.06 465.54 307.12 465.49 307.19 465.48 307.2 465.47 307.22 465.45 307.25 465.44 307.27 465.42 307.3 465.4 307.32 465.34 307.41 465.31 307.47 465.28 307.52 465.25 307.57 465.22 307.6 465.21 307.63 465.2 307.64 465.16 307.7 465.11 307.76 465.13 307.89 465.15 307.97 465.2 308.17 465.23 308.35 465.26 308.44 465.3 308.53 465.34 308.65 465.39 308.77 465.44 308.86 465.53 308.97 465.58 309.05 465.63 309.12 465.67 309.18 465.7 309.26 465.73 309.32 465.75 309.38 465.76 309.45 465.77 309.5 465.77 309.53 465.75 309.61 465.73 309.74 465.73 309.84 465.72 309.98 465.7 310.15 465.69 310.24 465.69 310.29 465.6 310.3 465.58 310.31 465.57 310.31 465.54 310.31 465.48 310.31 465.4 310.32 465.16 310.33 465.11 310.34 464.95 310.35 464.89 310.35 464.81 310.36 464.8 310.36 464.73 310.37 464.71 310.37 464.68 310.37 464.62 310.37 464.56 310.36 464.51 310.36 464.47 310.36 464.46 310.36 464.41 310.36 464.37 310.36 464.31 310.37 464.27 310.37 464.26 310.38 464.18 310.39 464.13 310.4 464.12 310.4 464.04 310.41 463.98 310.42 463.94 310.43 463.92 310.43 463.83 310.45 463.78 310.46 463.69 310.48 463.58 310.51 463.51 310.53 463.39 310.57 463.36 310.58 463.33 310.59 463.26 310.61 463.25 310.61 463.17 310.64 463.13 310.64 463.11 310.63 462.97 310.62 462.95 310.62 462.91 310.61 462.87 310.61 462.83 310.6 462.76 310.61 462.73 310.62 462.65 310.65 462.6 310.66 462.58 310.69 462.57 310.73 462.56 310.75 462.53 310.82 462.53 310.83 462.52 310.84 462.5 310.91 462.5 310.92 462.47 310.97 462.44 311.03 462.41 311.14 462.4 311.15 462.37 311.21 462.35 311.26 462.3 311.32 462.25 311.36 462.21 311.4 462.15 311.45 462.13 311.47 462.06 311.52 462.03 311.54 462.01 311.55 461.97 311.58 461.94 311.6 461.9 311.62 461.89 311.62 461.86 311.64 461.84 311.65 461.83 311.65 461.82 311.65 461.79 311.66 461.75 311.67 461.73 311.68 461.71 311.68 461.67 311.68 461.66 311.69 461.61 311.69 461.6 311.7 461.54 311.7 461.51 311.71 461.47 311.72 461.46 311.72 461.44 311.75 461.42 311.77 461.41 311.78 461.39 311.8 461.38 311.81 461.36 311.83 461.31 311.89 461.14 312.09 461.11 312.14 460.97 312.3 460.95 312.33 460.92 312.36 460.89 312.4 460.86 312.42 460.79 312.44 460.58 312.47 460.38 312.5 460.37 312.51 460.36 312.51 460.28 312.54 460.13 312.61 459.99 312.67 459.75 312.79 459.66 312.83 459.6 312.85 459.57 312.87 459.51 312.9 459.42 312.96 459.38 312.98 459.36 312.99 459.32 313.01 459.3 313.01 459.16 313.07 459.09 313.09 459.01 313.07 458.91 313.05 458.8 313.04 458.71 313.02 458.66 313.01 458.59 312.96 458.54 312.93 458.43 312.88 458.36 312.84 458.32 312.82 458.3 312.81 458.29 312.81 458.2 312.76 458.13 312.73 458.03 312.67 457.94 312.63 457.86 312.59 457.78 312.55 457.69 312.5 457.59 312.45 457.51 312.41 457.46 312.38 457.35 312.33 457.28 312.29 457.17 312.24 457.1 312.21 457.01 312.15 456.96 312.11 456.86 312.03 456.77 311.96 456.7 311.9 456.63 311.85 456.54 311.78 456.47 311.72 456.4 311.67 456.31 311.6 456.25 311.54 456.17 311.48 456.1 311.43 456.07 311.4 456.01 311.35 455.96 311.31 455.87 311.24 455.81 311.19 455.74 311.1 455.68 311.04 455.62 310.98 455.56 310.92 455.51 310.87 455.67 310.8 455.73 310.77 455.78 310.74 455.81 310.73 455.87 310.7 455.89 310.68 456.12 310.66 456.38 310.63 456.64 310.59 456.78 310.57 456.95 310.55 457.06 310.53 457.21 310.52 457.38 310.49 457.43 310.48 457.47 310.46 457.53 310.42 457.58 310.38 457.65 310.31 457.74 310.21 457.8 310.15 457.88 310.08 457.98 309.98 458.07 309.88 458.18 309.77 458.26 309.69 458.33 309.61 458.38 309.56 458.41 309.49 458.44 309.43 458.47 309.37 458.54 309.2 458.59 309.09 458.72 308.74 458.79 308.57 458.86 308.38 458.91 308.23 458.96 308.06 459.01 307.9 459.04 307.79 459.08 307.68 459.15 307.55 459.18 307.48 459.24 307.4 459.27 307.35 459.28 307.32 459.32 307.23 459.37 307.02 459.41 306.89 459.45 306.74 459.44 306.73 459.46 306.68 459.48 306.63 459.49 306.59 459.53 306.5 459.57 306.41 459.63 306.3 459.67 306.21 459.72 306.09 459.75 306 459.78 305.92 459.81 305.84 459.84 305.77 459.86 305.71 459.88 305.64 459.89 305.58 459.9 305.53 459.91 305.5 459.91 305.48 459.9 305.46 459.9 305.43 459.88 305.38 459.88 305.32 459.87 305.25 459.87 305.19 459.87 305.14 459.87 305.08 459.87 305.01 459.87 304.92 459.87 304.85 459.87 304.78 459.87 304.72 459.87 304.66 459.86 304.58 459.86 304.49 459.85 304.42 459.84 304.35 459.84 304.29 459.84 304.28 459.83 304.22 459.83 304.18 459.84 304.13 459.84 304.09 459.84 304.06 459.85 304.01 459.85 303.97 459.86 303.93 459.87 303.87 459.87 303.83 459.88 303.79 459.9 303.75 459.91 303.71 459.93 303.66 459.96 303.6 459.98 303.54 460.02 303.47 460.04 303.41 460.05 303.38 460.06 303.34 460.09 303.27 460.11 303.22 460.14 303.14 460.17 303.08 460.2 303.02 460.25 302.91 460.27 302.88 460.3 302.84 460.32 302.79 460.34 302.75 460.37 302.71 460.4 302.66 460.42 302.62 460.45 302.58 460.47 302.56 460.49 302.54 460.51 302.52 460.54 302.51 460.57 302.49 460.6 302.47 460.64 302.45 460.69 302.42 460.76 302.37 460.8 302.35 460.86 302.32 460.92 302.29 460.98 302.27 461.03 302.24 461.09 302.22 461.16 302.2 461.22 302.18 461.29 302.16 461.35 302.15 461.34 302.18 461.37 302.25 461.41 302.38 461.44 302.47 461.47 302.57 461.54 302.64 461.61 302.71 461.66 302.75 461.72 302.83 461.84 302.94 461.91 303 461.98 303.09 462.09 303.19 462.17 303.27 462.23 303.34 462.28 303.37 462.33 303.4 462.38 303.41 462.42 303.43 462.47 303.44 462.51 303.46 462.54 303.46 462.56 303.47 462.59 303.47 462.62 303.47 462.68 303.47 462.75 303.39 462.83 303.31 462.85 303.29 462.91 303.22 462.98 303.15 463.05 303.07 463.08 303.03 463.14 302.97 463.18 302.92 463.19 302.91 463.23 302.87 463.29 302.81 463.31 302.78 463.34 302.75 463.36 302.73 463.39 302.69 463.43 302.65 463.47 302.62 463.49 302.61 463.51 302.6 463.6 302.56 463.65 302.53 463.72 302.49 463.73 302.49 463.81 302.45 463.82 302.44 463.89 302.42 463.95 302.41 463.98 302.41 464.07 302.38 464.15 302.37 464.17 302.36 464.19 302.36 464.28 302.34 464.35 302.32 464.4 302.32 464.41 302.34 464.41 302.35 464.42 302.37 464.42 302.38 464.44 302.45 464.46 302.54 464.49 302.62 464.52 302.74 464.52 302.76 464.53 302.81 464.54 302.84 464.57 302.88 464.58 302.91 464.61 302.94 464.63 302.98 464.65 303 464.68 303.03 464.7 303.05 464.72 303.08 464.76 303.12 464.79 303.15 464.83 303.18 464.86 303.21 464.9 303.24 464.93 303.26 464.98 303.31 465.02 303.34 465.05 303.36 465.08 303.38 465.14 303.42 465.15 303.42 465.19 303.44 465.24 303.47 465.29 303.49 465.32 303.51 465.35 303.52 465.4 303.52 465.41 303.52 465.44 303.52 465.46 303.52 465.48 303.52 465.5 303.53 465.53 303.54 465.58 303.57 465.6 303.59 465.63 303.61 465.64 303.62 465.65 303.63 465.72 303.71 465.78 303.78 465.86 303.87 465.96 303.98 466.06 304.08 466.08 304.1 466.09 304.12 466.12 304.15 466.16 304.21 466.18 304.22 466.19 304.25 466.22 304.28 466.27 304.34 466.28 304.36 466.31 304.38 466.35 304.43 466.4 304.5 466.41 304.51 466.43 304.54 466.48 304.61 466.52 304.66 466.52 304.68 466.55 304.74 466.59 304.8 466.62 304.86 466.62 304.86 466.63 304.87 466.67 304.97 466.71 305.04 466.73 305.1 466.74 305.11 466.77 305.17 466.79 305.22 466.82 305.28 466.86 305.36 466.89 305.44 466.92 305.5 466.95 305.57 466.96 305.6 466.97 305.62 466.97 305.63 466.98 305.65 466.99 305.69 467.02 305.76 467.02 305.78 467.03 305.8 467.06 305.88 467.09 305.96 467.12 306.05 467.14 306.12 467.14 306.13 467.16 306.18 467.18 306.24 467.19 306.26 467.19 306.28 467.2 306.32 467.23 306.4 467.23 306.42 467.24 306.43 467.24 306.45 467.25 306.48 467.26 306.5 467.26 306.52 Z"/>
</g></svg>