<svg xmlns="http://www.w3.org/2000/svg" version="1.2" baseProfile="tiny" stroke-linecap="round" stroke-linejoin="round" viewBox="691.5 262.1 18.53 40.77"><g xmlns="http://www.w3.org/2000/svg" id="Bidankoze">
<path d="M 699.59 262.11 699.62 262.13 699.65 262.15 699.68 262.16 699.71 262.17 699.75 262.18 699.8 262.2 699.85 262.21 699.89 262.22 699.92 262.23 699.96 262.23 700 262.23 700.02 262.23 700.05 262.23 700.07 262.23 700.09 262.24 700.11 262.25 700.14 262.27 700.19 262.3 700.22 262.33 700.26 262.36 700.28 262.37 700.29 262.38 700.3 262.39 700.32 262.41 700.33 262.43 700.34 262.45 700.36 262.47 700.38 262.49 700.41 262.51 700.43 262.52 700.45 262.53 700.48 262.54 700.49 262.54 700.53 262.56 700.56 262.57 700.59 262.59 700.64 262.62 700.7 262.65 700.75 262.68 700.8 262.71 700.83 262.73 700.86 262.74 700.88 262.76 700.91 262.77 700.93 262.78 700.98 262.8 701.03 262.82 701.09 262.82 701.11 262.82 701.16 262.83 701.25 262.85 701.32 262.86 701.36 262.87 701.4 262.88 701.42 262.88 701.44 262.87 701.45 262.87 701.48 262.85 701.5 262.84 701.52 262.82 701.54 262.79 701.56 262.77 701.58 262.75 701.6 262.73 701.62 262.71 701.65 262.69 701.67 262.68 701.7 262.66 701.73 262.64 701.76 262.63 701.78 262.62 701.82 262.61 701.85 262.6 701.89 262.59 701.92 262.58 701.96 262.57 702 262.57 702.04 262.56 702.09 262.56 702.14 262.55 702.17 262.54 702.2 262.53 702.21 262.53 702.22 262.53 702.24 262.53 702.25 262.54 702.29 262.55 702.38 262.56 702.4 262.56 702.43 262.57 702.46 262.57 702.59 262.6 702.7 262.61 702.76 262.62 702.83 262.63 702.87 262.64 702.91 262.64 702.99 262.64 703.04 262.65 703.07 262.65 703.09 262.65 703.18 262.66 703.26 262.66 703.3 262.66 703.3 262.66 703.37 262.65 703.42 262.64 703.44 262.64 703.53 262.62 703.62 262.61 703.67 262.6 703.69 262.6 703.7 262.6 703.76 262.58 703.85 262.57 703.92 262.56 703.99 262.55 704.08 262.54 704.15 262.52 704.21 262.51 704.27 262.49 704.34 262.47 704.39 262.46 704.46 262.44 704.56 262.41 704.58 262.41 704.6 262.4 704.67 262.42 704.72 262.43 704.77 262.44 704.87 262.46 704.99 262.48 705.13 262.5 705.23 262.52 705.33 262.54 705.44 262.56 705.53 262.58 705.63 262.6 705.73 262.61 705.83 262.63 705.84 262.63 705.86 262.64 705.91 262.65 706.02 262.69 706.14 262.72 706.15 262.73 706.26 262.76 706.39 262.81 706.52 262.86 706.55 262.87 706.64 262.9 706.7 262.93 706.73 262.94 706.82 262.97 706.87 262.99 706.92 263 707.05 263.05 707.06 263.05 707.1 263.07 707.12 263.07 707.15 263.09 707.28 263.14 707.35 263.17 707.4 263.19 707.58 263.26 707.71 263.32 707.85 263.39 707.94 263.42 707.98 263.44 708.09 263.49 708.16 263.52 708.24 263.55 708.28 263.56 708.29 263.56 708.38 263.59 708.45 263.61 708.5 263.63 708.56 263.65 708.63 263.68 708.66 263.69 708.67 263.69 708.76 263.72 708.81 263.74 708.85 263.8 708.91 263.88 708.95 263.96 708.95 263.96 708.96 263.98 708.98 264 709.03 264.05 709.09 264.11 709.16 264.17 709.2 264.2 709.24 264.22 709.25 264.23 709.32 264.28 709.4 264.34 709.47 264.38 709.48 264.38 709.55 264.42 709.63 264.46 709.7 264.5 709.79 264.53 709.82 264.55 709.88 264.57 709.99 264.61 709.99 264.67 709.99 264.78 710 264.91 710 264.92 710.01 265.04 710.02 265.17 709.99 265.22 709.91 265.36 709.87 265.42 709.82 265.5 709.71 265.69 709.63 265.83 709.54 265.98 709.49 266.07 709.43 266.12 709.41 266.14 709.38 266.18 709.36 266.19 709.3 266.24 709.21 266.33 709.16 266.36 709.1 266.42 709.09 266.43 709.04 266.47 709.02 266.49 708.93 266.57 708.83 266.66 708.72 266.76 708.61 266.86 708.51 266.95 708.37 267.07 708.27 267.16 708.15 267.27 708.09 267.41 708.01 267.58 707.94 267.72 707.87 267.87 707.82 267.97 707.77 268.04 707.69 268.12 707.64 268.18 707.46 268.37 707.37 268.46 707.31 268.52 707.3 268.53 707.23 268.62 707.19 268.72 707.13 268.88 707.13 268.9 707.1 268.98 707.08 269.02 707.07 269.06 706.99 269.3 706.94 269.44 706.9 269.59 706.88 269.65 706.84 269.77 706.8 269.87 706.77 269.96 706.75 270 706.74 270.07 706.73 270.11 706.73 270.13 706.73 270.15 706.67 270.45 706.68 270.47 707.03 271 707.17 271.2 707.19 271.22 707.25 271.31 707.22 271.46 707.21 271.5 707.2 271.54 707.13 271.84 707.11 271.88 707.06 272.08 707.06 272.1 707.04 272.17 707.1 272.25 707.59 273.05 707.87 273.52 708 273.74 708.01 273.76 707.85 273.87 707.6 274.05 707.4 274.17 707.47 274.63 707.48 274.68 707.54 275.03 707.57 275.23 707.57 275.3 707.55 275.42 707.5 275.73 707.48 275.79 707.06 276.11 706.81 276.29 706.76 276.35 706.58 276.59 706.46 276.7 706.39 276.77 706.29 276.85 706.27 276.86 706.11 277 705.79 277.26 705.78 277.33 705.75 277.54 705.74 277.64 705.73 277.68 705.73 277.72 705.73 277.74 705.73 277.75 705.72 277.76 705.71 278.01 705.71 278.09 705.71 278.13 705.73 278.25 705.78 278.42 705.84 278.61 705.85 278.65 705.86 278.65 705.91 278.8 705.96 279.04 705.98 279.2 705.98 279.34 705.97 279.4 705.94 279.54 705.93 279.58 705.82 280 705.8 280.11 705.74 280.37 705.72 280.5 705.7 280.61 705.7 280.7 705.71 280.72 705.73 280.77 705.83 281.05 705.87 281.18 705.94 281.34 706.02 281.58 706.07 281.68 706.07 281.69 706.07 281.7 706.1 281.76 706.11 281.79 706.16 281.94 706.22 282.21 706.24 282.28 706.24 282.3 706.28 282.43 706.33 282.63 706.36 282.74 706.38 282.83 706.49 283.22 706.5 283.25 706.53 283.34 706.63 283.68 706.67 283.82 706.72 283.97 706.79 284.18 706.87 284.41 706.87 284.41 706.91 284.45 706.97 284.5 707.03 284.55 707.09 284.59 707.12 284.63 707.16 284.7 707.22 284.78 707.28 284.86 707.31 284.92 707.34 284.97 707.37 285.04 707.4 285.11 707.43 285.24 707.4 285.3 707.41 285.36 707.44 285.42 707.49 285.5 707.5 285.53 707.51 285.56 707.5 285.61 707.49 285.67 707.49 285.72 707.51 285.81 707.51 285.83 707.51 285.93 707.51 286.1 707.53 286.19 707.57 286.29 707.63 286.41 707.68 286.56 707.73 286.69 707.76 286.81 707.78 286.93 707.78 287 707.78 287.11 707.77 287.25 707.77 287.44 707.78 287.56 707.8 287.64 707.84 287.73 707.9 287.85 708.02 288.04 708.1 288.16 708.18 288.24 708.23 288.32 708.23 288.4 708.23 288.47 708.26 288.58 708.31 288.7 708.36 288.83 708.36 288.92 708.34 289 708.33 289.1 708.34 289.16 708.37 289.21 708.43 289.27 708.56 289.37 708.61 289.41 708.63 289.45 708.64 289.53 708.67 289.6 708.71 289.66 708.78 289.74 708.84 289.81 708.88 289.86 708.89 289.91 708.89 289.97 708.9 290.05 708.91 290.11 708.95 290.14 709 290.16 709.03 290.19 709.04 290.22 709.04 290.27 709.03 290.36 709.03 290.4 709.06 290.43 709.11 290.47 709.16 290.51 709.2 290.57 709.27 290.66 709.34 290.75 709.34 290.79 709.34 290.81 709.35 290.86 709.35 290.91 709.35 290.93 709.35 291.02 709.36 291.1 709.36 291.14 709.36 291.2 709.37 291.27 709.37 291.33 709.36 291.37 709.34 291.45 709.3 291.55 709.3 291.57 709.28 291.62 709.27 291.64 709.25 291.73 709.2 291.86 709.15 292.02 709.1 292.18 709.08 292.27 709.07 292.28 709.06 292.3 709.05 292.36 709.04 292.37 709 292.55 708.95 292.71 708.91 292.89 708.87 293.04 708.82 293.2 708.73 293.58 708.69 293.71 708.68 293.77 708.65 293.88 708.64 293.92 708.6 294.01 708.54 294.13 708.48 294.26 708.45 294.32 708.43 294.37 708.38 294.47 708.34 294.55 708.29 294.65 708.28 294.67 708.25 294.74 708.2 294.85 708.14 294.98 708.14 295.09 708.15 295.1 708.15 295.21 708.15 295.24 708.16 295.34 708.17 295.43 708.18 295.49 708.19 295.62 708.2 295.76 708.21 295.92 708.22 295.98 708.23 296.07 708.23 296.2 708.23 296.38 708.23 296.5 708.23 296.52 708.23 296.62 708.23 296.65 708.23 296.78 708.23 296.91 708.22 296.99 708.22 297.01 708.22 297.08 708.2 297.21 708.17 297.36 708.14 297.52 708.1 297.66 708.09 297.76 708.07 297.84 708.05 297.96 708.01 298.14 707.99 298.22 707.98 298.26 707.97 298.33 707.97 298.44 707.97 298.48 707.96 298.6 707.96 298.66 707.96 298.82 707.96 298.92 707.96 298.95 707.96 298.96 707.95 299.1 707.95 299.25 707.94 299.39 707.94 299.46 707.85 299.56 707.75 299.67 707.65 299.78 707.56 299.89 707.53 299.92 707.44 300.02 707.32 300.14 707.2 300.28 707.19 300.29 707.09 300.39 707.03 300.46 707 300.51 706.94 300.61 706.86 300.72 706.8 300.82 706.74 300.92 706.73 300.93 706.73 300.94 706.67 301.04 706.57 301.21 706.48 301.36 706.46 301.39 706.43 301.43 706.42 301.44 706.37 301.5 706.36 301.51 706.31 301.52 706.25 301.54 706.16 301.57 706.01 301.62 705.89 301.66 705.84 301.68 705.83 301.68 705.71 301.72 705.55 301.77 705.37 301.83 705.35 301.83 705.17 301.89 705.01 301.94 704.92 301.97 704.88 301.98 704.68 302.05 704.59 302.08 704.57 302.09 704.54 302.1 704.52 302.1 704.35 302.16 704.29 302.18 704.27 302.19 704.25 302.2 704.23 302.2 704.21 302.21 704.18 302.22 704.15 302.23 704.01 302.31 703.92 302.36 703.81 302.43 703.43 302.67 703.22 302.8 703.09 302.81 703.08 302.81 703.03 302.81 702.93 302.81 702.86 302.81 702.76 302.81 702.71 302.81 702.66 302.81 702.56 302.81 702.44 302.81 702.34 302.81 702.25 302.8 702.14 302.8 702.07 302.8 702.02 302.8 701.92 302.8 701.87 302.81 701.82 302.81 701.8 302.81 701.72 302.82 701.59 302.84 701.51 302.82 701.49 302.82 701.47 302.82 701.46 302.82 701.45 302.81 701.43 302.81 701.42 302.81 700.98 302.73 700.94 302.73 700.67 302.68 700.62 302.67 700.39 302.63 700.37 302.62 700.18 302.59 700.05 302.58 700.03 302.58 699.88 302.58 699.43 302.56 699.42 302.56 699.04 302.54 698.92 302.54 698.9 302.54 698.85 302.54 698.55 302.52 698.4 302.44 698.29 302.38 698.24 302.35 698.15 302.31 698.07 302.25 697.89 302.16 697.67 302.03 697.5 301.92 697.44 301.89 697.37 301.85 697.28 301.8 697.32 301.5 697.33 301.45 697.34 301.38 697.37 301.2 697.02 300.84 696.81 300.76 696.36 300.57 696.22 300.6 695.69 300.75 695.46 300.81 695.37 300.7 695.05 300.28 695.04 300.27 694.98 300.2 694.97 300.18 694.93 300.14 694.92 300.12 694.93 300.08 694.95 299.97 694.95 299.93 695.11 299.66 695.13 299.61 695.15 299.57 695.21 299.45 695.23 299.42 695.42 299.05 695.26 299 695.16 298.97 695.06 298.94 694.86 298.89 694.68 298.8 694.52 298.72 694.37 298.65 694.28 298.61 694.24 298.6 694.12 298.56 694.03 298.53 693.96 298.51 693.71 298.43 693.64 298.34 693.54 298.23 693.44 298.14 693.42 298.12 693.31 298.03 693.19 297.97 693.1 297.93 693.02 297.98 692.95 297.87 692.89 297.8 692.86 297.77 692.84 297.74 692.83 297.71 692.77 297.58 692.76 297.56 692.73 297.5 692.72 297.45 692.72 297.42 692.72 297.38 692.72 297.34 692.73 297.28 692.74 297.23 692.79 297.1 692.82 297.01 692.8 296.95 692.79 296.92 692.77 296.89 692.75 296.82 692.58 296.68 692.53 296.63 692.49 296.59 692.47 296.55 692.45 296.53 692.44 296.51 692.43 296.48 692.43 296.43 692.43 296.39 692.42 296.34 692.42 296.31 692.43 296.28 692.42 296.27 692.42 296.25 692.41 296.22 692.41 296.2 692.41 296.19 692.41 296.18 692.4 296.17 692.39 296.14 692.37 296.1 692.34 296 692.31 295.92 692.31 295.9 692.3 295.83 692.28 295.78 692.28 295.75 692.29 295.71 692.3 295.7 692.31 295.67 692.34 295.63 692.37 295.57 692.4 295.53 692.49 295.41 692.5 295.39 692.51 295.37 692.52 295.34 692.53 295.32 692.53 295.3 692.53 295.28 692.51 295.24 692.5 295.2 692.47 295.15 692.44 295.11 692.31 294.91 692.21 294.75 692.11 294.59 692.02 294.47 691.92 294.35 691.87 294.24 691.83 294.14 691.82 294.1 691.8 294.05 691.78 293.96 691.76 293.89 691.76 293.85 691.75 293.81 691.75 293.74 691.74 293.67 691.73 293.62 691.72 293.59 691.71 293.54 691.67 293.47 691.63 293.35 691.6 293.26 691.56 293.17 691.54 293.07 691.52 292.99 691.51 292.91 691.5 292.83 691.5 292.77 691.5 292.76 691.5 292.72 691.5 292.66 691.52 292.59 691.51 292.5 691.5 292.41 691.5 292.36 691.51 292.28 691.53 292.15 691.55 292.02 691.56 291.99 691.58 291.8 691.61 291.69 691.62 291.62 691.65 291.46 691.68 291.3 691.66 291.27 691.59 291.18 691.63 291.1 691.75 290.87 691.8 290.78 691.86 290.67 691.94 290.51 691.95 290.5 691.98 290.43 692.01 290.36 692.07 290.26 692.08 290.24 692.11 290.18 692.12 290.15 692.12 290.12 692.13 289.95 692.13 289.8 692.14 289.64 692.14 289.63 692.14 289.61 692.14 289.51 692.14 289.47 692.14 289.45 692.14 289.41 692.13 289.32 692.11 289.21 692.1 289.12 692.1 289.08 692.08 288.94 692.06 288.81 692.04 288.66 692.02 288.47 692 288.3 691.99 288.26 691.99 288.23 691.98 288.17 691.99 288.11 691.99 288.06 692 287.89 692 287.87 692 287.86 692.02 287.57 692.01 287.43 692.01 287.42 692.06 287.37 692.13 287.28 692.14 287.28 692.25 287.24 692.31 287.22 692.41 287.19 692.43 287.18 692.45 287.17 692.47 287.17 692.49 287.16 692.65 287.1 692.8 287.04 692.96 286.97 693.09 286.91 693.21 286.85 693.24 286.83 693.35 286.78 693.41 286.75 693.43 286.74 693.47 286.72 693.66 286.63 693.7 286.61 693.89 286.53 694.01 286.48 694.01 286.45 694.01 286.38 694.02 286.25 694.02 286.23 694.03 286.18 694.04 286.15 694.06 286.14 694.06 286.13 694.13 286.04 694.17 285.97 694.2 285.92 694.22 285.88 694.3 285.74 694.37 285.59 694.39 285.46 694.47 285.27 694.47 285.26 694.52 285.14 694.59 284.98 694.67 284.8 694.7 284.71 694.76 284.55 694.74 284.51 694.7 284.44 694.7 284.43 694.66 284.36 694.65 284.34 694.64 284.3 694.61 284.2 694.61 284.17 694.61 284.14 694.61 284.1 694.61 284.04 694.62 284.02 694.62 283.99 694.63 283.95 694.64 283.89 694.66 283.78 694.67 283.75 694.69 283.7 694.7 283.65 694.72 283.6 694.75 283.54 694.76 283.5 694.79 283.46 694.82 283.4 694.86 283.34 694.89 283.29 694.91 283.24 694.93 283.21 694.94 283.2 694.98 283.14 695.02 283.09 695.06 283.04 695.1 282.99 695.11 282.96 695.14 282.89 695.16 282.85 695.17 282.82 695.2 282.74 695.26 282.6 695.21 282.47 695.2 282.43 695.18 282.37 695.16 282.31 695.13 282.22 695.1 282.12 695.1 282.07 695.11 281.93 695.12 281.85 695.13 281.76 695.14 281.6 695.16 281.44 695.17 281.27 695.18 281.14 695.2 280.99 695.21 280.82 695.23 280.68 695.24 280.53 695.24 280.51 695.25 280.4 695.26 280.28 695.28 280.16 695.28 280.07 695.28 280.07 695.28 280.06 695.29 279.96 695.3 279.84 695.31 279.73 695.32 279.58 695.33 279.44 695.34 279.31 695.35 279.18 695.36 279.14 695.36 279.07 695.37 279.03 695.39 278.93 695.4 278.85 695.41 278.75 695.49 278.62 695.57 278.49 695.64 278.37 695.71 278.25 695.74 278.19 695.75 278.17 695.81 278.05 695.82 278.02 695.84 277.98 695.89 277.86 695.92 277.81 695.92 277.79 695.95 277.73 696.02 277.58 696.06 277.49 696.09 277.42 696.12 277.36 696.17 277.27 696.15 277.22 696.12 277.1 696.1 277.04 696.05 276.88 696.01 276.75 696 276.73 696 276.71 695.97 276.61 695.96 276.57 695.93 276.49 696.01 276.39 696.03 276.35 696.09 276.28 696.13 276.23 696.24 276.08 696.34 275.96 696.47 275.79 696.6 275.62 696.59 275.59 696.58 275.57 696.53 275.46 696.49 275.36 696.48 275.3 696.45 275.18 696.43 275.06 696.4 274.95 696.39 274.85 696.38 274.69 696.37 274.56 696.46 274.47 696.47 274.47 696.48 274.46 696.58 274.35 696.68 274.26 696.78 274.17 696.83 274.11 696.89 274.06 697.03 273.92 697.12 273.83 697.22 273.72 697.25 273.68 697.35 273.6 697.49 273.49 697.65 273.36 697.8 273.23 697.95 273.1 698.16 272.93 698.31 272.81 698.45 272.7 698.59 272.58 698.73 272.47 698.88 272.34 699 272.24 699.12 272.14 699.27 271.83 699.33 271.7 699.41 271.54 699.42 271.52 699.42 271.51 699.43 271.5 699.5 271.36 699.55 271.15 699.59 271.01 699.63 270.86 699.61 270.77 699.6 270.67 699.59 270.64 699.57 270.52 699.54 270.37 699.53 270.35 699.51 270.22 699.5 270.19 699.48 270.06 699.45 269.9 699.44 269.88 699.42 269.77 699.4 269.63 699.37 269.48 699.37 269.46 699.34 269.29 699.34 269.23 699.35 269.13 699.37 268.98 699.37 268.93 699.38 268.84 699.37 268.62 699.37 268.44 699.37 268.27 699.25 268.12 699.15 267.99 699.07 267.89 699 267.8 698.89 267.65 698.79 267.52 698.69 267.4 698.6 267.28 698.53 267.19 698.45 267.08 698.35 266.94 698.26 266.84 698.19 266.73 698.2 266.71 698.22 266.68 698.29 266.48 698.32 266.42 698.32 266.41 698.28 266.28 698.22 266.15 698.18 266.03 698.28 265.38 698.31 265.2 698.38 264.84 698.39 264.77 698.44 264.41 698.5 264 698.5 263.99 698.53 263.82 698.49 263.72 698.46 263.63 698.38 263.43 698.35 263.37 698.47 263.25 698.65 263.06 698.85 262.87 699.04 262.67 699.24 262.47 699.44 262.26 699.48 262.23 699.59 262.11 Z"/>
</g></svg>