<svg xmlns="http://www.w3.org/2000/svg" version="1.2" baseProfile="tiny" stroke-linecap="round" stroke-linejoin="round" viewBox="524.68 36 18.77 19.1"><g xmlns="http://www.w3.org/2000/svg" id="Bidarte">
<path d="M 533.37 36.03 533.42 36.14 533.44 36.21 533.52 36.4 533.55 36.41 533.59 36.43 533.77 36.49 533.79 36.5 534.04 36.59 535.08 36.96 535.37 37.06 535.44 37.09 535.46 37.09 535.49 37.13 535.53 37.17 535.59 37.22 535.67 37.31 536.04 37.32 535.89 37.51 535.93 37.55 535.96 37.58 535.99 37.67 536.16 37.84 536.17 37.85 536.23 37.92 536.29 37.99 536.35 38.06 536.38 38.09 536.41 38.13 536.44 38.18 536.46 38.23 536.48 38.26 536.49 38.3 536.49 38.34 536.52 38.42 536.52 38.45 536.52 38.47 536.52 38.5 536.52 38.53 536.54 38.56 536.55 38.59 536.6 38.63 536.63 38.66 536.63 38.68 536.64 38.73 536.67 38.79 536.7 38.84 536.7 38.85 536.73 38.88 536.75 38.9 536.76 38.89 536.8 38.87 536.84 38.86 536.88 38.86 536.91 38.85 536.92 38.84 536.94 38.89 537.07 39.18 537.27 39.68 537.31 39.74 537.32 39.78 537.34 39.8 537.52 40.22 537.7 40.62 537.79 40.67 538.03 40.82 538.34 41.01 538.37 41.03 538.38 41.04 538.43 41.06 538.49 41.1 538.56 41.14 538.64 41.18 538.72 41.22 538.78 41.25 538.99 41.36 539.08 41.41 539.21 41.48 539.27 41.51 539.3 41.52 539.31 41.52 539.59 41.66 539.76 41.71 539.77 41.71 540.13 41.82 540.25 41.85 540.29 41.86 540.37 41.89 540.68 41.97 540.73 41.97 541.16 41.95 541.58 41.94 542.01 41.92 542.09 41.92 542.36 41.91 542.51 41.9 542.76 41.89 542.78 41.89 543.11 41.88 543.43 41.86 543.38 41.95 543.33 42.05 542.93 42.83 542.8 43.09 542.79 43.11 542.77 43.14 542.67 43.33 542.66 43.38 542.65 43.41 542.63 43.46 542.59 43.55 542.57 43.61 542.46 43.85 542.44 43.89 542.38 44.04 542.37 44.06 542.36 44.08 542.29 44.23 542.25 44.34 542.22 44.41 542.19 44.5 542.15 44.65 542.02 44.64 541.99 44.64 541.45 44.63 541.36 44.63 540.9 44.63 540.74 44.62 540.46 44.64 540.43 44.63 540.37 44.6 540.24 44.55 539.64 44.3 539.49 44.24 539.09 44.07 538.93 44.01 538.38 43.78 538.29 43.81 538.21 43.75 538.2 43.77 538.18 43.81 538.17 43.85 538.15 43.92 538.13 44 538.12 44.03 538.12 44.06 538.11 44.08 538.11 44.12 538.12 44.27 538.12 44.3 538.12 44.36 538.11 44.41 538.11 44.56 538.11 44.66 538.11 44.69 538.1 44.71 538.1 44.73 538.09 44.75 538.16 44.87 538.22 44.99 538.27 45.11 538.29 45.22 538.3 45.3 538.31 45.37 538.33 45.44 538.35 45.48 538.55 45.93 538.91 46.47 538.98 46.52 538.99 46.54 538.99 46.56 538.98 46.59 538.97 46.61 538.96 46.64 538.94 46.66 538.91 46.68 538.88 46.69 538.81 46.7 538.73 46.7 538.65 46.71 538.63 46.72 538.59 46.77 538.55 46.86 538.52 46.93 538.5 46.96 538.46 47 538.35 47.1 538.31 47.13 538.26 47.15 538.14 47.21 537.98 47.28 537.89 47.33 537.85 47.34 537.79 47.38 537.78 47.39 537.71 47.43 537.61 47.5 537.58 47.52 537.56 47.53 537.55 47.55 537.53 47.58 537.5 47.59 537.51 47.61 537.5 47.64 537.5 47.67 537.51 47.72 537.52 47.78 537.52 47.81 537.5 47.85 537.48 47.9 537.45 47.93 537.43 47.95 537.4 47.95 537.36 47.95 537.37 47.98 537.37 48.01 537.36 48.04 537.33 48.11 537.32 48.15 537.32 48.17 537.32 48.18 537.33 48.19 537.35 48.2 537.37 48.18 537.38 48.17 537.38 48.16 537.39 48.13 537.41 48.11 537.45 48.08 537.47 48.07 537.48 48.07 537.49 48.07 537.49 48.09 537.49 48.11 537.49 48.14 537.48 48.16 537.48 48.18 537.48 48.21 537.49 48.24 537.5 48.25 537.53 48.28 537.56 48.3 537.59 48.3 537.63 48.31 537.66 48.31 537.7 48.31 537.73 48.3 537.53 48.5 537.5 48.54 537.48 48.6 537.46 48.67 537.43 48.72 537.4 48.77 537.37 48.83 537.35 48.92 537.34 49.04 537.24 49.05 536.94 49.02 536.91 49.02 536.89 49.01 536.85 49.03 536.49 49.16 536.48 49.17 536.4 49.32 536.38 49.33 536.35 49.38 536.32 49.46 536.3 49.5 536.28 49.52 536.27 49.54 536.14 49.58 536.11 49.59 536.07 49.6 535.92 49.62 535.88 49.63 535.86 49.63 535.82 49.63 535.69 49.63 535.68 49.63 535.59 49.67 535.46 49.74 535.3 49.76 534.95 49.85 534.86 49.94 534.84 49.88 534.78 50.03 534.39 50.94 534.38 50.94 534.37 50.94 534.31 51.03 534.31 51.16 534.25 51.45 534.27 51.55 534.25 51.56 534.17 51.65 533.97 51.87 533.86 51.99 533.84 52.03 533.8 52.04 533.62 52.17 533.48 52.27 533.32 52.38 533.02 52.78 532.87 52.99 532.84 53.08 532.69 53.52 532.68 53.55 532.67 53.58 532.66 53.6 532.52 53.76 532.45 53.87 532.43 53.9 532.35 54 532.29 54.08 532.2 54.18 531.96 54.27 531.72 54.36 531.05 54.03 531.03 54.02 530.71 53.87 530.62 53.83 530.55 53.81 530.15 53.6 530.13 53.64 530.11 53.66 530.01 53.72 529.94 53.78 529.85 53.85 529.8 53.88 529.74 53.92 529.59 53.96 529.54 53.97 529.53 53.98 529.51 53.99 529.5 54.01 529.44 54.09 529.39 54.13 529.3 54.19 529.2 54.26 529.13 54.31 529.08 54.34 529.01 54.38 528.83 54.47 528.76 54.51 528.69 54.55 528.64 54.57 528.57 54.62 528.46 54.69 528.33 54.75 528.32 54.76 528.3 54.77 528.22 54.81 528.1 54.85 528.01 54.88 528 54.89 527.95 54.9 527.88 54.92 527.8 54.93 527.7 54.95 527.6 54.98 527.51 55 527.48 55 527.47 55.01 527.46 55.03 527.44 55.04 527.43 55.04 527.41 55.04 527.39 55.04 527.31 55.09 527.3 55.08 527.28 55.05 527.27 55.05 527.23 55.02 527.07 54.86 527.02 54.8 527.02 54.65 527 54.4 526.97 54.09 526.96 54.01 526.95 53.89 526.92 53.54 526.9 53.3 526.89 53.23 526.89 53.18 526.88 53.1 526.87 53.02 526.86 52.93 526.85 52.81 526.84 52.67 526.82 52.4 526.82 52.36 526.8 52.23 526.79 52.08 526.78 52.05 526.77 52.04 526.76 52.02 526.69 51.96 526.62 51.87 526.55 51.8 526.54 51.78 526.5 51.71 526.44 51.63 526.38 51.55 526.31 51.44 526.25 51.34 526.19 51.25 526.13 51.14 526.08 51.07 526.04 51.02 526.01 50.99 526 50.98 525.98 50.97 526.01 50.89 526.04 50.79 526.05 50.75 526.05 50.73 525.97 50.7 525.95 50.78 525.93 50.84 525.9 50.83 525.83 50.81 525.78 50.79 525.72 50.74 525.63 50.68 525.55 50.64 525.54 50.65 525.52 50.66 525.28 50.62 525.26 50.57 525.25 50.57 525.15 50.59 524.94 50.63 524.92 50.63 524.88 50.64 524.84 50.55 524.82 50.48 524.8 50.42 524.79 50.41 524.72 50.2 524.69 50.11 524.74 50.08 524.8 50.06 524.84 50.04 524.89 50.01 524.92 49.97 524.96 49.92 525.01 49.89 525.04 49.86 525.06 49.82 525.08 49.8 525.1 49.78 525.15 49.78 525.18 49.77 525.2 49.73 525.23 49.69 525.26 49.65 525.29 49.62 525.33 49.59 525.39 49.55 525.43 49.5 525.46 49.46 525.48 49.43 525.5 49.41 525.52 49.38 525.55 49.36 525.59 49.33 525.62 49.3 525.64 49.28 525.68 49.26 525.71 49.23 525.72 49.21 525.73 49.18 525.74 49.15 525.76 49.14 525.78 49.14 525.8 49.13 525.81 49.12 525.83 49.1 525.89 49.09 525.91 49.08 525.93 49.06 525.94 49.05 525.95 49.03 525.96 49.02 525.97 49 526 48.99 526.03 48.98 526.05 48.97 526.07 48.96 526.09 48.96 526.12 48.94 526.17 48.92 526.19 48.9 526.2 48.89 526.21 48.88 526.23 48.86 526.25 48.85 526.27 48.84 526.3 48.83 526.33 48.81 526.34 48.79 526.36 48.77 526.38 48.76 526.4 48.74 526.41 48.73 526.41 48.72 526.43 48.69 526.46 48.67 526.49 48.64 526.53 48.62 526.56 48.57 526.57 48.53 526.59 48.47 526.62 48.43 526.65 48.4 526.67 48.37 526.7 48.31 526.72 48.27 526.74 48.23 526.76 48.21 526.8 48.17 526.83 48.13 526.86 48.12 526.91 48.09 526.95 48.08 526.97 48.08 526.99 48.08 527.03 48.1 527.06 48.11 527.08 48.12 527.12 48.14 527.16 48.18 527.21 48.2 527.24 48.23 527.29 48.25 527.33 48.26 527.37 48.27 527.49 48.28 527.57 48.3 527.64 48.32 527.76 48.34 527.83 48.35 527.85 48.33 527.9 48.28 527.88 48.25 527.85 48.25 527.78 48.23 527.68 48.21 527.58 48.21 527.51 48.19 527.45 48.18 527.44 48.17 527.37 48.16 527.35 48.15 527.31 48.15 527.25 48.11 527.21 48.09 527.17 48.04 527.17 48.01 527.19 47.98 527.22 47.94 527.23 47.92 527.25 47.88 527.24 47.83 527.23 47.79 527.26 47.76 527.3 47.72 527.33 47.68 527.36 47.63 527.39 47.59 527.42 47.56 527.43 47.54 527.44 47.48 527.45 47.42 527.45 47.39 527.45 47.35 527.47 47.32 527.47 47.29 527.47 47.28 527.46 47.25 527.47 47.23 527.49 47.21 527.49 47.18 527.5 47.15 527.52 47.13 527.52 47.12 527.55 47.08 527.57 47.04 527.59 46.99 527.61 46.97 527.62 46.95 527.63 46.94 527.65 46.91 527.69 46.87 527.72 46.85 527.75 46.82 527.79 46.76 527.82 46.71 527.86 46.64 527.9 46.58 527.93 46.5 527.98 46.42 528.03 46.35 528.07 46.29 528.1 46.21 528.12 46.16 528.15 46.08 528.2 46.03 528.23 45.96 528.25 45.9 528.28 45.84 528.31 45.78 528.34 45.73 528.37 45.69 528.4 45.61 528.41 45.56 528.43 45.49 528.44 45.45 528.45 45.41 528.48 45.37 528.5 45.32 528.52 45.28 528.52 45.26 528.52 45.24 528.52 45.21 528.52 45.19 528.52 45.17 528.54 45.14 528.56 45.12 528.58 45.11 528.62 45.11 528.63 45.1 528.64 45.08 528.65 45.06 528.66 45.05 528.67 45.04 528.68 45.04 528.68 45.02 528.69 45.01 528.69 44.99 528.7 44.97 528.7 44.92 528.72 44.88 528.76 44.83 528.79 44.78 528.82 44.74 528.85 44.7 528.87 44.63 528.91 44.58 528.93 44.53 528.94 44.49 528.97 44.43 528.98 44.35 528.99 44.3 529.03 44.26 529.04 44.2 529.07 44.11 529.1 44.01 529.1 43.96 529.08 43.94 529.07 43.93 529.07 43.9 529.08 43.9 529.1 43.89 529.1 43.88 529.11 43.86 529.13 43.81 529.17 43.75 529.18 43.69 529.18 43.64 529.22 43.52 529.24 43.47 529.28 43.39 529.31 43.33 529.36 43.25 529.41 43.19 529.45 43.13 529.51 43.05 529.53 43.01 529.54 42.99 529.54 42.97 529.54 42.96 529.56 42.96 529.6 42.92 529.66 42.85 529.69 42.81 529.73 42.75 529.79 42.69 529.81 42.66 529.84 42.63 529.87 42.58 529.89 42.53 529.93 42.47 529.96 42.44 530 42.38 530.04 42.31 530.07 42.27 530.11 42.21 530.14 42.16 530.19 42.08 530.29 41.94 530.38 41.8 530.45 41.67 530.5 41.59 530.56 41.49 530.6 41.43 530.65 41.38 530.72 41.27 530.75 41.23 530.81 41.16 530.88 41.07 530.88 41.06 530.96 40.92 531.05 40.75 531.13 40.6 531.17 40.47 531.21 40.37 531.26 40.25 531.32 40.13 531.38 40.02 531.48 39.89 531.57 39.79 531.65 39.67 531.74 39.5 531.81 39.31 531.89 39.07 531.97 38.81 532 38.71 532.04 38.61 532.1 38.51 532.16 38.44 532.2 38.37 532.26 38.26 532.28 38.19 532.32 38.08 532.37 37.98 532.41 37.88 532.51 37.74 532.56 37.66 532.62 37.58 532.67 37.5 532.72 37.44 532.76 37.38 532.82 37.3 532.86 37.25 532.9 37.21 532.94 37.15 532.98 37.09 533.01 37.02 533.04 36.95 533.09 36.86 533.12 36.79 533.19 36.71 533.2 36.67 533.2 36.65 533.2 36.58 533.21 36.53 533.21 36.52 533.21 36.49 533.21 36.43 533.22 36.38 533.23 36.35 533.25 36.29 533.29 36.25 533.33 36.21 533.34 36.2 533.35 36.18 533.35 36.12 533.35 36.08 533.37 36.03 Z"/>
</g></svg>