<svg xmlns="http://www.w3.org/2000/svg" version="1.2" baseProfile="tiny" stroke-linecap="round" stroke-linejoin="round" viewBox="581.77 96.75 33.73 28.2"><g xmlns="http://www.w3.org/2000/svg" id="Bidarrai">
<path d="M 595.38 98.12 595.41 98.14 595.47 98.18 595.52 98.21 595.56 98.23 595.61 98.25 595.67 98.26 595.71 98.26 595.76 98.24 595.79 98.22 595.84 98.19 595.88 98.15 595.92 98.12 595.94 98.1 595.95 98.09 595.98 98.05 596.03 98.01 596.07 97.97 596.1 97.94 596.14 97.9 596.18 97.87 596.22 97.84 596.26 97.8 596.3 97.75 596.33 97.71 596.37 97.66 596.41 97.62 596.45 97.57 596.49 97.53 596.56 97.49 596.61 97.45 596.64 97.43 596.66 97.41 596.71 97.38 596.78 97.33 596.83 97.29 596.89 97.25 596.95 97.22 597 97.19 597.07 97.14 597.14 97.09 597.21 97.05 597.3 97 597.35 96.97 597.43 96.93 597.51 96.89 597.57 96.86 597.65 96.84 597.72 96.81 597.81 96.79 597.87 96.77 597.92 96.76 597.97 96.75 598.03 96.75 598.08 96.76 598.13 96.77 598.19 96.8 598.27 96.86 598.41 96.96 598.54 97.05 598.58 97.1 598.61 97.17 598.63 97.25 598.65 97.36 598.58 97.76 598.6 97.77 598.62 97.78 598.64 97.8 598.67 97.8 598.71 97.8 598.74 97.8 598.76 97.8 598.79 97.81 598.81 97.81 598.83 97.81 598.86 97.81 598.89 97.81 598.91 97.81 598.94 97.81 599.01 97.81 599.03 97.81 599.05 97.81 599.07 97.82 599.09 97.84 599.11 97.85 599.13 97.87 599.17 97.88 599.23 97.9 599.25 97.91 599.27 97.92 599.3 97.93 599.34 97.93 599.37 97.93 599.39 97.92 599.41 97.91 599.43 97.9 599.45 97.9 599.46 97.91 599.48 97.92 599.6 97.99 599.62 97.99 599.68 97.98 599.74 97.99 599.76 97.99 599.78 98.04 599.8 98.11 599.8 98.13 599.77 98.15 599.76 98.17 599.76 98.2 599.79 98.23 599.85 98.26 599.99 98.33 600.11 98.36 600.16 98.36 600.23 98.35 600.3 98.33 600.43 98.24 600.53 98.14 600.63 98.09 600.77 98.01 600.87 97.95 600.95 97.93 601.03 97.87 601.06 97.81 601.08 97.75 601.11 97.71 601.13 97.7 601.16 97.69 601.18 97.7 601.19 97.71 601.37 97.74 601.47 97.77 601.6 97.77 601.66 97.77 601.74 97.73 601.85 97.65 601.95 97.59 601.98 97.58 602.05 97.58 602.06 97.58 602.07 97.6 602.09 97.67 602.11 97.71 602.15 97.73 602.22 97.77 602.28 97.78 602.38 97.77 602.47 97.75 602.51 97.75 602.58 97.78 602.6 97.81 602.61 97.84 602.63 97.85 602.67 97.86 602.7 97.85 602.77 97.8 602.81 97.79 602.85 97.79 602.89 97.83 602.92 97.87 602.94 97.95 603 98.01 603.04 98.03 603.12 98.03 603.16 98.05 603.2 98.07 603.24 98.12 603.28 98.16 603.41 98.21 603.48 98.25 603.62 98.32 603.67 98.32 603.71 98.32 603.8 98.28 603.88 98.21 604.01 98.17 604.08 98.16 604.15 98.17 604.2 98.19 604.27 98.23 604.33 98.29 604.39 98.35 604.46 98.4 604.53 98.45 604.61 98.47 604.65 98.46 604.7 98.44 604.74 98.44 604.78 98.45 604.84 98.51 604.87 98.53 604.95 98.54 605.06 98.54 605.14 98.64 605.19 98.69 605.23 98.74 605.28 98.79 605.3 98.81 605.34 98.88 605.37 98.93 605.38 99.01 605.39 99.04 605.43 99.11 605.49 99.16 605.53 99.22 605.6 99.21 605.7 99.21 605.76 99.18 605.81 99.15 605.87 99.08 605.9 99.06 605.92 99.05 605.98 99.05 606.04 99.06 606.09 99.07 606.16 99.09 606.23 99.12 606.3 99.14 606.34 99.15 606.38 99.14 606.43 99.11 606.49 99.05 606.53 99.04 606.57 99.03 606.64 99.03 606.68 99.03 606.7 99.02 606.74 98.99 606.79 98.97 606.87 98.93 606.91 98.92 606.95 98.92 607.05 98.95 607.13 98.98 607.2 98.99 607.26 99 607.33 99.03 607.38 99.06 607.43 99.1 607.5 99.17 607.57 99.24 607.63 99.31 607.68 99.38 608.02 99.5 608.47 99.56 608.49 99.62 608.52 99.65 608.54 99.66 608.56 99.7 608.57 99.74 608.58 99.78 608.59 99.81 608.62 99.86 608.68 99.92 608.73 99.97 608.77 100.01 608.82 100.03 608.99 100.07 609.13 100.11 609.24 100.14 609.36 100.16 609.38 100.16 609.49 100.41 609.63 100.49 609.75 100.48 610.29 100.29 610.43 100.3 610.5 100.33 610.71 100.26 610.74 100.28 610.79 100.3 610.82 100.31 610.84 100.31 610.87 100.3 610.89 100.31 610.93 100.31 610.96 100.31 611 100.31 611.03 100.32 611.06 100.34 611.1 100.36 611.15 100.38 611.19 100.39 611.21 100.4 611.22 100.4 611.26 100.43 611.31 100.45 611.36 100.46 611.4 100.49 611.41 100.49 611.47 100.53 611.54 100.57 611.61 100.62 611.65 100.66 611.7 100.69 611.73 100.69 611.78 100.69 611.83 100.71 611.86 100.73 611.9 100.76 611.98 100.78 612.09 100.8 612.18 100.81 612.26 100.82 612.33 100.83 612.4 100.84 612.54 100.87 612.59 100.87 612.62 100.89 612.67 100.91 612.72 100.95 612.75 100.98 612.79 101.01 612.82 101.02 612.83 101.02 612.88 101.03 612.92 101.06 612.96 101.12 613.05 101.23 613.12 101.33 613.18 101.4 613.19 101.42 613.61 101.58 614.1 101.85 614.33 101.93 614.94 102.04 614.96 102.03 614.99 102.01 615.01 101.99 615.03 101.97 615.05 101.96 615.06 101.96 615.08 101.95 615.1 101.95 615.1 101.94 615.1 101.93 615.11 101.92 615.12 101.91 615.13 101.89 615.14 101.89 615.15 101.89 615.16 101.89 615.17 101.89 615.17 101.89 615.18 101.89 615.5 101.82 615.39 101.96 614.88 102.28 614.72 102.48 614.58 102.77 614.65 103.05 614.75 103.83 614.92 104.42 614.79 104.57 614.77 104.64 614.94 104.86 614.96 104.91 614.89 105.06 614.78 105.1 614.64 105.27 614.55 105.33 614.54 105.38 614.39 105.51 613.96 105.74 613.53 105.96 613.1 106.19 612.74 106.44 612.39 106.68 612.19 106.83 611.19 107.53 610.58 107.8 610.11 107.95 609.63 108.05 609.3 108.2 608.76 108.3 608.76 108.32 608.98 108.94 609.05 109.67 609.12 110.33 609.52 110.75 609.57 111.2 609.49 111.42 609.24 111.89 608.84 112.18 608.44 112.81 607.88 113.88 607.67 113.65 607.64 113.64 607.6 113.62 607.58 113.6 607.55 113.59 607.52 113.58 607.5 113.56 607.46 113.54 607.43 113.52 607.41 113.5 607.38 113.49 607.35 113.47 607.33 113.45 607.3 113.41 607.25 113.32 607.22 113.27 607.2 113.24 607.17 113.22 607.14 113.2 607.12 113.18 607.11 113.17 607.09 113.16 607.06 113.07 607.04 113.03 607.02 113 606.99 112.99 606.96 112.95 606.92 112.93 606.9 112.92 606.86 112.89 606.76 112.84 606.72 112.82 606.65 112.77 606.55 112.7 606.42 112.62 606.41 112.61 606.24 112.86 606.15 112.99 606.09 113.01 606.07 112.98 605.73 112.79 605.48 112.73 605.48 112.75 605.55 113.03 605.37 113.14 605.24 113.15 604.65 113 604.29 113.11 604.01 113.21 603.82 113.23 602.97 113.16 602.84 113.2 602.59 113.47 602.48 113.65 602.51 113.69 602.54 113.75 602.57 113.81 602.57 113.83 602.57 113.85 602.57 113.87 602.57 113.9 602.57 113.91 602.57 113.93 602.56 113.94 602.68 114.13 602.27 114.82 602.24 114.91 602.36 114.91 602.49 114.98 602.35 115.19 602.35 115.26 602.29 115.44 602.11 115.62 601.95 115.63 601.95 115.64 601.93 115.67 601.9 115.72 601.88 115.73 601.86 115.74 601.83 115.75 601.73 115.77 601.71 115.78 601.69 115.79 601.68 115.8 601.65 115.83 601.63 115.88 601.61 115.98 601.59 116.06 601.59 116.13 601.59 116.16 601.6 116.19 601.6 116.22 601.6 116.23 601.6 116.24 601.66 116.51 601.67 116.51 601.79 116.55 601.92 116.64 602.15 116.78 602.28 116.86 602.3 117.19 602.01 117.58 601.94 117.62 601.48 117.31 601.39 117.39 601.32 117.45 601.33 117.5 601.33 117.58 601.33 117.66 601.31 117.78 601.29 117.86 601.29 117.93 601.36 118.15 601.63 119.02 601.92 119.68 602 119.85 602.16 120.41 602.44 121 602.43 121.06 602.39 121.6 602.29 122.23 602.23 122.36 601.9 122.46 601.85 122.54 601.62 122.7 601.6 122.7 601.53 122.66 601.41 122.57 601.35 122.54 601.31 122.52 601.26 122.51 601.18 122.52 601.12 122.51 601.06 122.49 601 122.46 600.94 122.41 600.87 122.34 600.85 122.29 600.83 122.26 600.8 122.24 600.76 122.22 600.69 122.17 600.64 122.11 600.62 122.07 600.6 122.04 600.57 122.01 600.48 121.95 600.42 121.9 600.39 121.87 600.35 121.85 600.33 121.82 600.31 121.8 600.3 121.76 600.13 121.7 599.99 121.69 599.59 121.77 599.13 121.44 599.11 121.48 599.09 121.5 599.01 121.55 598.96 121.59 598.82 121.7 598.75 121.73 598.7 121.76 598.61 121.77 598.57 121.78 598.53 121.79 598.47 121.81 598.41 121.84 598.39 121.84 598.36 121.84 598.35 121.86 598.38 121.91 598.39 121.93 598.4 121.96 598.41 122.03 598.43 122.09 598.44 122.14 598.44 122.18 598.45 122.25 598.47 122.36 598.48 122.46 598.5 122.53 598.5 122.59 598.5 122.62 598.49 122.65 598.45 122.71 598.4 122.8 598.34 122.87 598.29 122.93 598.26 122.98 598.24 123.03 598.21 123.13 598.19 123.21 598.17 123.29 598.17 123.33 598.16 123.4 598.15 123.47 598.15 123.5 597.8 123.2 597.67 123.06 597.56 122.76 597.52 122.79 597.46 122.83 597.42 122.87 597.38 122.89 597.35 122.92 597.32 122.95 597.3 123.02 597.27 123.1 597.22 123.17 597.18 123.22 597.12 123.25 597.08 123.27 597.04 123.28 596.99 123.31 596.94 123.36 596.87 123.41 596.82 123.41 596.71 123.44 596.67 123.46 596.64 123.48 596.59 123.52 596.51 123.61 596.46 123.64 596.42 123.68 596.39 123.72 596.31 123.76 596.25 123.8 596.2 123.84 596.16 123.88 596.11 123.92 595.96 124.04 595.81 124.15 595.67 124.28 595.62 124.34 595.53 124.39 595.44 124.45 595.33 124.5 595.25 124.52 595.21 124.54 595.14 124.62 595.03 124.74 594.95 124.81 594.86 124.87 594.8 124.91 594.69 124.88 594.6 124.86 594.51 124.85 594.42 124.83 594.39 124.82 594.31 124.94 593.97 124.91 593.6 124.92 593.48 124.89 593.26 124.8 592.78 124.51 592.45 124.43 592.14 124.33 591.87 124.09 591.87 124.05 591.85 123.83 591.84 123.74 591.81 123.33 591.79 123.27 590.91 120.01 590.9 119.95 590.43 117.87 590.42 117.79 590.4 117.74 590.4 117.7 590.37 117.28 590.36 117.26 590.3 116.49 590.3 116.46 590.29 116.45 589.45 115.79 589.42 115.75 589.25 115.51 589.22 115.47 589.15 115.37 589.14 115.36 589.05 115.23 588.83 114.91 588.82 114.89 588.76 114.82 588.74 114.79 588.69 114.71 588.67 114.68 588.6 114.58 588.35 114.24 588.33 114.21 588.31 114.18 588.29 114.16 587.14 113.08 586.5 112.48 585.07 111.16 584.55 111.4 584.52 111.42 584.5 111.43 584.28 110.94 583.84 109.92 583.83 109.91 583.82 109.88 583.34 109.71 582.36 109.33 582.34 109.32 581.79 108.83 581.85 108.82 581.92 108.8 582 108.78 582.04 108.77 582.05 108.62 582.32 108.28 582.45 108.08 583.03 107.75 583.56 107.5 583.76 107.14 584.21 106.77 584.85 106.33 585.44 106.03 586.03 105.65 586.33 105.51 586.76 105.41 587.04 105.36 587.26 105.19 587.36 105.07 587.69 104.97 587.87 104.79 587.96 104.66 587.96 104.53 587.82 104.25 587.8 103.94 587.88 103.55 587.94 103.4 587.96 103.35 587.99 103.31 588.25 102.56 588.3 102.45 589 102.18 589.69 101.92 590.8 101.42 591.09 101.23 591.72 101.13 591.73 101.12 592.43 101.04 592.5 101.03 592.53 101.03 592.55 101.02 592.58 101.02 592.6 101.02 592.64 101.02 592.66 101.02 592.69 101.02 592.72 101.02 592.75 101.01 592.79 101.01 592.87 101.03 592.91 101.04 592.98 101.06 593.03 101.06 593.05 101.06 593.08 101.06 593.11 101.05 593.15 101.04 593.19 101.04 593.26 101.04 593.31 101.03 593.34 101.01 593.36 100.99 593.36 100.96 593.35 100.92 593.35 100.89 593.36 100.84 593.37 100.81 593.38 100.79 593.4 100.76 593.42 100.74 593.45 100.72 593.48 100.7 593.54 100.69 593.58 100.68 593.61 100.67 593.63 100.67 593.67 100.67 593.71 100.66 593.74 100.66 593.78 100.66 593.81 100.66 593.85 100.66 593.89 100.67 593.93 100.66 593.95 100.65 593.97 100.63 593.99 100.6 594 100.57 594.03 100.53 594.05 100.5 594.11 100.44 594.16 100.38 594.18 100.34 594.22 100.31 594.23 100.29 594.25 100.28 594.28 100.26 594.31 100.24 594.32 100.22 594.34 100.19 594.36 100.17 594.37 100.15 594.38 100.13 594.4 100.09 594.42 100.07 594.44 100.03 594.47 99.98 594.49 99.96 594.51 99.92 594.54 99.88 594.56 99.85 594.58 99.82 594.59 99.79 594.61 99.75 594.62 99.72 594.64 99.68 594.66 99.63 594.68 99.59 594.74 99.5 594.76 99.45 594.77 99.4 594.78 99.37 594.78 99.33 594.79 99.3 594.79 99.26 594.79 99.23 594.8 99.18 594.81 99.14 594.82 99.11 594.83 99.08 594.85 99.05 594.87 99.03 594.9 99 594.92 98.98 594.94 98.97 594.97 98.95 594.99 98.94 595.01 98.93 595.03 98.92 595.05 98.9 595.08 98.87 595.09 98.85 595.11 98.82 595.12 98.8 595.12 98.78 595.12 98.75 595.11 98.72 595.1 98.7 595.09 98.69 595.08 98.68 595.06 98.65 595.04 98.63 595.02 98.57 595.02 98.55 595.02 98.52 595.04 98.49 595.06 98.48 595.08 98.46 595.12 98.44 595.14 98.42 595.16 98.39 595.19 98.37 595.2 98.35 595.21 98.33 595.22 98.31 595.24 98.29 595.26 98.27 595.28 98.24 595.31 98.21 595.33 98.19 595.38 98.12 Z"/>
</g></svg>