<svg xmlns="http://www.w3.org/2000/svg" version="1.2" baseProfile="tiny" stroke-linecap="round" stroke-linejoin="round" viewBox="645.28 18.98 27.2 25.58"><g xmlns="http://www.w3.org/2000/svg" id="Bidaxune">
<path d="M 648.77 21.98 648.85 22.09 648.93 22.18 649 22.25 649.1 22.35 649.19 22.4 649.26 22.45 649.34 22.52 649.37 22.56 649.41 22.6 649.5 22.67 649.59 22.72 649.62 22.73 649.67 22.74 649.73 22.76 649.78 22.79 649.86 22.82 649.95 22.86 650.05 22.88 650.17 22.89 650.27 22.86 650.33 22.84 650.43 22.84 650.55 22.81 650.66 22.74 650.75 22.66 650.84 22.61 650.91 22.54 651 22.45 651.04 22.38 651.14 22.23 651.31 21.97 651.43 21.78 651.59 21.55 651.72 21.38 651.83 21.22 651.97 21.05 652.13 20.89 652.28 20.73 652.42 20.62 652.55 20.53 652.68 20.47 652.82 20.42 652.92 20.4 653.01 20.39 653.11 20.39 653.32 20.41 653.52 20.44 653.75 20.5 653.87 20.54 653.97 20.59 654.13 20.69 654.22 20.76 654.32 20.85 654.43 20.96 654.5 21.06 654.56 21.18 654.61 21.31 654.65 21.44 654.69 21.64 654.7 21.76 654.72 22.03 654.75 22.33 654.76 22.55 654.76 22.84 654.78 23.07 654.82 23.26 654.87 23.44 654.91 23.55 654.98 23.68 655.04 23.76 655.1 23.83 655.18 23.9 655.26 23.95 655.35 24 655.44 24.03 655.52 24.06 655.68 24.08 655.88 24.08 656.05 24.04 656.27 23.98 656.41 23.93 656.53 23.89 656.67 23.83 656.77 23.78 656.91 23.71 657.06 23.62 657.18 23.54 657.32 23.44 657.43 23.35 657.49 23.29 657.5 23.28 657.53 23.23 657.61 23.1 657.66 22.96 657.68 22.84 657.69 22.66 657.7 22.52 657.7 22.39 657.7 22.22 657.67 21.98 657.62 21.74 657.59 21.58 657.54 21.4 657.48 21.14 657.45 20.97 657.42 20.8 657.38 20.64 657.35 20.48 657.34 20.34 657.34 20.19 657.36 20.05 657.39 19.94 657.42 19.85 657.46 19.77 657.5 19.65 657.56 19.56 657.62 19.47 657.68 19.37 657.75 19.26 657.84 19.17 657.92 19.1 658.01 19.04 658.08 19 658.15 18.99 658.23 19 658.37 19.02 658.48 19.05 658.57 19.04 658.69 19.06 658.76 19.08 658.84 19.1 658.91 19.11 658.99 19.14 659.06 19.16 659.15 19.22 659.2 19.28 659.22 19.32 659.23 19.36 659.27 19.5 659.3 19.65 659.37 19.96 659.4 20.08 659.42 20.15 659.42 20.21 659.43 20.26 659.44 20.33 659.49 20.44 659.59 20.62 659.64 20.7 659.73 20.85 659.8 20.99 659.88 21.14 659.95 21.28 660.02 21.47 660.1 21.63 660.2 21.84 660.31 22.09 660.37 22.29 660.4 22.48 660.4 22.61 660.39 22.78 660.36 22.99 660.33 23.15 660.33 23.27 660.35 23.45 660.39 23.66 660.42 23.92 660.44 24.03 660.47 24.12 660.54 24.24 660.6 24.3 660.66 24.39 660.7 24.55 660.73 24.65 660.78 24.69 660.86 24.71 660.97 24.71 661.1 24.69 661.32 24.64 661.44 24.62 661.44 24.66 661.44 24.7 661.44 24.7 661.44 24.77 661.45 24.98 661.46 25 661.49 24.98 661.59 24.96 661.62 24.96 661.63 24.96 661.67 24.97 661.77 25.02 661.92 25.1 661.95 25.13 661.97 25.19 661.98 25.23 661.98 25.24 662 25.32 662.01 25.39 662.01 25.48 662.02 25.58 662.02 25.61 662.02 25.62 662.02 25.64 661.98 25.96 661.91 25.97 661.91 26.01 661.92 26.17 661.93 26.24 661.94 26.24 661.99 26.27 662.09 26.32 662.1 26.33 662.16 26.39 662.19 26.41 662.35 26.54 662.56 26.78 662.57 26.77 662.63 26.72 662.69 26.86 662.73 26.94 662.75 26.92 662.77 26.94 662.92 27.17 662.8 27.31 662.84 27.35 662.97 27.47 663.19 27.69 663.23 27.68 663.24 27.68 663.25 27.67 663.28 27.67 663.3 27.69 663.32 27.7 663.34 27.72 663.36 27.74 663.45 27.86 663.56 27.97 663.6 28.03 663.67 28.18 663.68 28.19 663.72 28.23 663.76 28.28 663.83 28.36 663.9 28.46 663.92 28.48 664.02 28.61 664.1 28.7 664.17 28.79 664.24 28.88 664.26 28.9 664.33 28.98 664.35 29.01 664.36 29.02 664.44 29.12 664.5 29.2 664.57 29.29 664.64 29.36 664.67 29.4 664.82 29.5 664.86 29.53 664.87 29.54 665.06 29.81 665.15 29.89 665.13 29.9 665.12 29.92 665.1 29.93 665.1 29.94 665.13 30.1 665.21 30.34 665.18 30.4 665.19 30.44 665.19 30.46 665.19 30.5 665.19 30.6 665.19 30.72 665.19 30.77 665.19 30.81 665.19 30.86 665.19 30.98 665.18 31.04 665.17 31.09 665.15 31.13 665.13 31.18 665.11 31.21 665.09 31.27 665.08 31.31 665.06 31.36 665.06 31.4 665.07 31.43 665.08 31.44 665.09 31.48 665.1 31.5 665.11 31.52 665.23 31.52 665.29 31.53 665.33 31.53 665.35 31.59 665.38 31.67 665.38 31.79 665.37 31.79 665.33 31.78 665.3 31.76 665.27 31.75 665.24 31.74 665.21 31.74 665.18 31.73 665.15 31.74 665.04 31.76 665.01 31.77 664.97 31.81 664.95 31.82 664.93 31.84 664.89 31.88 664.88 31.9 664.67 32 664.62 32.03 664.52 32.13 664.38 32.29 664.22 32.48 664.19 32.52 664.17 32.54 663.92 33.21 663.87 33.35 663.78 33.42 663.69 33.5 663.67 33.52 663.66 33.53 663.64 33.54 663.36 33.79 663.44 33.85 663.52 33.91 663.54 33.93 663.58 33.95 663.64 34 663.71 34.08 663.75 34.15 663.79 34.23 663.82 34.29 663.84 34.35 663.85 34.38 663.86 34.43 663.86 34.46 663.86 34.48 663.85 34.52 663.83 34.57 663.81 34.61 663.76 34.68 663.73 34.72 663.67 34.82 663.61 34.93 663.53 35.07 663.49 35.11 663.47 35.13 663.45 35.15 663.42 35.17 663.35 35.18 663.28 35.18 663.1 35.17 663.06 35.17 662.99 35.16 662.95 35.17 662.92 35.18 662.91 35.19 662.89 35.2 662.83 35.21 662.74 35.2 662.66 35.21 662.59 35.2 662.57 35.19 662.49 35.17 662.44 35.16 662.41 35.16 662.38 35.15 662.36 35.16 662.34 35.18 662.33 35.2 662.33 35.23 662.32 35.23 662.31 35.22 662.29 35.21 662.27 35.2 662.25 35.19 662.22 35.17 662.19 35.16 662.18 35.13 662.17 35.11 662.16 35.11 662.16 35.09 662.14 35.08 662.14 35.06 662.13 35.05 662.12 35.05 662.1 35.05 662.09 35.06 662.08 35.06 662.07 35.08 662.06 35.09 662.05 35.12 662.04 35.15 662.03 35.18 662.03 35.2 662.03 35.22 662.04 35.25 662.05 35.28 662.05 35.29 662.07 35.32 662.1 35.39 662.12 35.4 662.22 35.36 662.49 35.44 662.5 35.45 662.51 35.46 662.53 35.47 662.59 35.49 662.62 35.5 662.64 35.51 662.65 35.52 662.65 35.56 662.68 35.58 662.69 35.75 662.69 35.79 662.7 36.03 662.7 36.28 662.9 36.34 662.95 36.35 662.92 36.45 662.94 36.61 662.96 36.84 663.11 36.81 663.73 36.68 663.8 36.7 663.82 36.69 663.9 36.62 663.92 36.61 663.94 36.61 664.15 36.6 664.19 36.6 664.2 36.61 664.26 36.62 664.34 36.64 664.41 36.65 664.48 36.66 664.51 36.66 664.63 36.64 664.81 36.62 664.85 36.62 664.88 36.62 664.92 36.62 664.94 36.61 664.95 36.61 665 36.6 665.07 36.58 665.12 36.57 665.19 36.56 665.27 36.55 665.37 36.54 665.44 36.53 665.51 36.53 665.56 36.53 665.59 36.53 665.64 36.52 665.69 36.49 665.72 36.48 665.75 36.47 665.76 36.48 665.77 36.48 665.78 36.48 665.79 36.47 665.8 36.46 665.8 36.45 665.87 36.41 665.91 36.42 665.92 36.43 665.94 36.42 665.94 36.4 665.94 36.38 665.96 36.37 665.97 36.36 665.99 36.36 666 36.34 666.01 36.32 666.03 36.32 666.06 36.32 666.1 36.31 666.13 36.3 666.15 36.3 666.18 36.29 666.19 36.29 666.21 36.28 666.23 36.28 666.27 36.3 666.29 36.31 666.31 36.31 666.38 36.29 666.45 36.26 666.47 36.25 666.5 36.25 666.59 36.28 666.61 36.29 666.64 36.3 666.67 36.3 666.68 36.29 666.69 36.27 666.71 36.26 666.73 36.27 666.74 36.28 666.76 36.28 666.78 36.29 666.8 36.28 666.81 36.27 666.82 36.27 666.84 36.29 666.86 36.27 666.88 36.28 666.9 36.29 666.93 36.33 667.02 36.43 666.89 36.69 666.89 36.72 666.88 36.75 666.84 36.84 666.78 36.99 666.71 37.17 666.64 37.34 666.58 37.51 666.53 37.66 666.48 37.8 666.43 37.92 666.35 38.09 666.2 38.44 666.18 38.5 665.98 38.95 665.97 38.98 665.96 39.03 665.85 39.31 665.81 39.41 665.89 39.5 666.45 40.1 666.55 40.2 666.66 40.32 667.1 40.8 667.22 40.92 667.63 41.36 667.67 41.4 667.76 41.49 667.87 41.48 668.17 41.45 668.28 41.44 668.67 41.41 668.94 41.39 669.19 41.37 669.38 41.36 669.71 41.33 669.81 41.32 670.08 41.3 670.48 41.27 670.49 41.27 670.52 41.27 670.6 41.26 670.65 41.24 670.72 41.22 670.75 41.22 670.88 41.17 671.27 41.03 671.86 40.78 672.42 40.54 672.44 40.53 672.46 40.63 672.45 40.65 672.25 40.84 672.22 40.98 671.48 41.24 671.2 41.33 671.14 41.35 670.94 41.41 670.93 41.41 670.83 41.44 670.63 41.5 670.63 41.5 670.54 41.53 670.36 41.59 670.33 41.59 670.14 41.65 669.89 41.73 669.47 41.86 669.42 41.88 668.6 42.13 668.52 42.16 668.29 42.22 667.98 42.31 667.96 42.31 667.87 42.34 667.81 42.36 667.05 42.58 666.98 42.6 666.86 42.63 666.68 42.69 666.63 42.7 666.55 42.73 666.3 42.8 666.26 42.82 666.21 42.83 666.19 42.84 666.03 42.89 665.74 42.99 665.6 43.03 665.52 43.06 665.49 43.07 665.34 43.12 664.85 43.29 664.8 43.3 664.74 43.32 664.71 43.33 664.56 43.37 664.44 43.41 664.41 43.41 664.37 43.42 664.14 43.49 664.02 43.52 663.97 43.53 663.9 43.55 663.56 43.64 663.51 43.65 663.32 43.7 663.19 43.74 663.14 43.75 663.08 43.77 663.01 43.78 662.62 43.86 661.9 44.01 661.77 44.04 661.43 44.11 661.26 44.15 661.19 44.16 660.73 44.24 660.41 44.29 660.31 44.3 660.02 44.35 659.94 44.36 659.64 44.41 659.61 44.41 659.37 44.46 658.86 44.54 658.6 44.5 658.45 44.48 658.19 44.45 658.04 44.43 657.97 44.42 657.75 44.39 657.69 44.38 657.56 44.35 657.48 44.34 657.39 44.33 657.31 44.31 657.22 44.3 657.2 44.3 657.01 44.27 656.96 44.26 656.95 44.25 656.69 44.21 656.5 44.18 656.12 44.12 655.93 44.09 655.84 44.07 655.73 44.06 655.64 44.04 655.62 44.04 655.23 43.98 655.14 43.96 654.91 43.92 654.45 43.85 654.39 43.84 653.89 43.76 653.64 43.72 653.55 43.7 653.15 43.64 652.87 43.59 652.68 43.56 651.92 43.44 651.85 43.42 651.79 43.42 651.71 43.41 651.64 43.4 651.62 43.39 651.6 43.39 651.55 43.38 651.46 43.37 650.77 43.24 650.09 43.12 649.41 42.99 649.02 42.91 648.94 42.9 647.83 42.68 647.8 42.67 647.68 42.65 647.56 42.63 647.33 42.58 647.17 42.55 646.78 42.47 646.65 42.45 646.46 42.41 645.97 42.32 645.61 42.25 645.53 42.23 645.51 42.23 645.47 42.09 645.43 41.95 645.42 41.9 645.41 41.87 645.37 41.74 645.34 41.6 645.33 41.57 645.32 41.44 645.31 41.32 645.31 41.25 645.32 41.15 645.35 41.04 645.36 40.97 645.38 40.92 645.38 40.89 645.39 40.85 645.38 40.81 645.37 40.74 645.38 40.67 645.4 40.56 645.43 40.41 645.45 40.35 645.49 40.24 645.58 40.02 645.63 39.9 645.66 39.85 645.73 39.71 645.8 39.59 645.85 39.52 645.87 39.5 645.9 39.48 645.92 39.48 645.94 39.48 645.97 39.48 646.01 39.5 646.09 39.53 646.19 39.58 646.27 39.62 646.36 39.67 646.41 39.7 646.44 39.7 646.46 39.7 646.48 39.69 646.51 39.67 646.52 39.64 646.55 39.59 646.58 39.52 646.62 39.43 646.65 39.34 646.69 39.23 646.72 39.14 646.75 39.1 646.79 39.04 646.84 38.98 646.88 38.93 646.92 38.91 646.98 38.88 647.08 38.83 647.16 38.79 647.24 38.74 647.35 38.68 647.4 38.65 647.49 38.62 647.6 38.56 647.68 38.54 647.73 38.53 647.79 38.51 647.9 38.47 647.98 38.43 648.04 38.41 648.08 38.39 648.11 38.38 648.15 38.37 648.2 38.37 648.24 38.38 648.31 38.4 648.42 38.43 648.47 38.45 648.5 38.46 648.52 38.47 648.56 38.5 648.64 38.56 648.7 38.61 648.74 38.64 648.77 38.69 648.8 38.74 648.82 38.81 648.84 38.85 648.88 38.92 648.91 38.99 648.96 39.05 649.01 39.12 649.06 39.18 649.12 39.25 649.16 39.28 649.19 39.29 649.23 39.29 649.26 39.28 649.3 39.25 649.38 39.18 649.46 39.08 649.51 39.04 649.59 38.95 649.62 38.92 649.65 38.91 649.72 38.9 649.8 38.89 649.86 38.89 649.92 38.89 649.96 38.89 649.99 38.88 650.01 38.86 650.05 38.83 650.07 38.78 650.09 38.75 650.11 38.71 650.15 38.47 650.16 38.4 650.17 38.3 650.17 38.22 650.16 38.16 650.15 38.07 650.13 37.99 650.08 37.85 650.05 37.76 650.01 37.62 650 37.57 649.97 37.44 649.92 37.19 649.89 37.09 649.88 37.05 649.85 37.02 649.8 36.95 649.77 36.89 649.76 36.76 649.77 36.59 649.8 36.4 649.82 36.29 649.86 36.18 649.9 36.02 649.95 35.86 650 35.74 650.04 35.68 650.11 35.59 650.2 35.53 650.26 35.5 650.33 35.47 650.42 35.46 650.48 35.44 650.55 35.42 650.57 35.41 650.56 35.4 650.55 35.37 650.53 35.35 650.51 35.32 650.51 35.3 650.5 35.26 650.5 35.23 650.48 35.24 650.46 35.25 650.43 35.26 650.4 35.26 650.38 35.25 650.37 35.23 650.37 35.21 650.38 35.19 650.39 35.17 650.38 35.16 650.36 35.15 650.34 35.15 650.32 35.14 650.29 35.13 650.25 35.12 650.23 35.13 650.22 35.16 650.2 35.19 650.18 35.2 650.15 35.19 650.12 35.17 650.09 35.15 650.07 35.13 650.07 35.11 650.08 35.06 650.09 35.02 650.08 34.98 650.06 34.93 650.05 34.87 650.02 34.76 650 34.71 649.99 34.7 649.97 34.7 649.94 34.73 649.87 34.77 649.83 34.79 649.81 34.8 649.78 34.79 649.77 34.77 649.77 34.75 649.78 34.73 649.79 34.7 649.8 34.67 649.8 34.64 649.79 34.63 649.78 34.61 649.77 34.56 649.75 34.52 649.73 34.5 649.7 34.49 649.68 34.48 649.66 34.48 649.63 34.48 649.62 34.47 649.61 34.46 649.59 34.44 649.57 34.41 649.55 34.39 649.52 34.37 649.49 34.35 649.47 34.33 649.47 34.3 649.46 34.28 649.47 34.26 649.47 34.23 649.47 34.2 649.46 34.17 649.44 34.15 649.43 34.14 649.4 34.12 649.37 34.1 649.35 34.09 649.32 34.09 649.29 34.1 649.28 34.12 649.26 34.14 649.24 34.16 649.21 34.17 649.18 34.18 649.15 34.18 649.14 34.18 649.11 34.17 649.08 34.15 649.07 34.12 649.07 34.09 649.08 34.07 649.11 34.07 649.13 34.05 649.13 34.03 649.12 34.01 649.1 33.99 649.08 33.98 649.06 33.97 649.03 33.97 649 33.96 648.97 33.95 648.93 33.94 648.9 33.92 648.89 33.9 648.89 33.88 648.9 33.86 648.91 33.84 648.92 33.82 648.91 33.78 648.89 33.76 648.87 33.76 648.84 33.76 648.82 33.76 648.79 33.76 648.77 33.75 648.75 33.73 648.74 33.71 648.73 33.69 648.71 33.65 648.69 33.63 648.68 33.62 648.65 33.62 648.63 33.62 648.61 33.6 648.6 33.58 648.58 33.56 648.56 33.54 648.54 33.53 648.52 33.52 648.48 33.49 648.46 33.47 648.42 33.47 648.39 33.46 648.36 33.46 648.32 33.46 648.27 33.46 648.22 33.46 648.16 33.47 648.12 33.47 648.07 33.47 648.06 33.46 648.05 33.45 648.03 33.43 648.01 33.39 647.99 33.36 647.97 33.33 647.95 33.29 647.94 33.25 647.93 33.21 647.91 33.16 647.89 33.13 647.88 33.1 647.9 33.09 647.92 33.08 647.95 33.06 647.96 33.04 647.98 33.02 647.98 32.99 647.99 32.96 647.99 32.94 647.99 32.92 647.98 32.9 647.96 32.89 647.94 32.87 647.92 32.85 647.91 32.84 647.89 32.85 647.86 32.86 647.83 32.88 647.81 32.9 647.79 32.91 647.77 32.91 647.75 32.89 647.74 32.87 647.75 32.85 647.76 32.83 647.78 32.81 647.81 32.79 647.82 32.77 647.82 32.75 647.79 32.72 647.77 32.69 647.75 32.65 647.73 32.64 647.7 32.65 647.68 32.66 647.66 32.67 647.63 32.68 647.6 32.7 647.57 32.72 647.55 32.73 647.54 32.72 647.54 32.7 647.54 32.67 647.53 32.65 647.54 32.63 647.54 32.59 647.53 32.58 647.51 32.57 647.49 32.57 647.46 32.55 647.43 32.53 647.42 32.53 647.39 32.53 647.37 32.53 647.33 32.53 647.31 32.53 647.3 32.53 647.29 32.53 647.28 32.51 647.27 32.48 647.26 32.45 647.25 32.42 647.25 32.39 647.25 32.36 647.26 32.33 647.27 32.3 647.29 32.28 647.29 32.26 647.31 32.25 647.32 32.24 647.33 32.22 647.34 32.19 647.35 32.16 647.35 32.13 647.34 32.1 647.34 32.08 647.32 32.06 647.31 32.03 647.29 32 647.27 31.95 647.26 31.9 647.25 31.85 647.25 31.8 647.24 31.78 647.24 31.76 647.23 31.71 647.21 31.63 647.18 31.56 647.15 31.5 647.09 31.42 647.05 31.35 647.01 31.29 646.97 31.2 646.92 31.11 646.91 31.02 646.89 30.94 646.88 30.85 646.86 30.81 646.85 30.71 646.83 30.6 646.82 30.57 646.83 30.54 646.83 30.49 646.83 30.4 646.82 30.35 646.81 30.28 646.8 30.19 646.8 30.19 646.79 30.11 646.78 30.02 646.77 29.96 646.77 29.94 646.76 29.89 646.74 29.81 646.73 29.74 646.72 29.7 646.71 29.68 646.68 29.64 646.65 29.56 646.64 29.47 646.62 29.39 646.6 29.36 646.59 29.34 646.54 29.3 646.51 29.27 646.5 29.26 646.49 29.24 646.48 29.2 646.47 29.18 646.44 29.08 646.43 29.03 646.27 28.71 646.25 28.6 646.25 28.58 646.21 28.34 646.2 28.3 645.65 27.35 645.66 27.35 645.69 27.34 645.79 27.3 645.87 27.26 645.85 27.23 645.83 27.18 645.8 27.08 645.78 26.97 645.77 26.95 645.75 26.84 645.74 26.82 645.55 26.7 645.61 26.62 645.66 26.5 645.72 26.37 645.74 26.24 645.76 26.1 645.75 25.96 645.75 25.84 645.73 25.77 645.71 25.69 645.67 25.61 645.6 25.5 645.59 25.46 645.56 25.35 645.53 25.23 645.52 25.2 645.51 25.11 645.48 25.03 645.43 24.94 645.36 24.84 645.35 24.83 645.34 24.76 645.34 24.73 645.38 24.67 645.44 24.57 645.48 24.51 645.52 24.47 645.56 24.45 645.58 24.43 645.59 24.42 645.6 24.4 645.6 24.37 645.6 24.34 645.61 24.32 645.62 24.31 645.64 24.3 645.69 24.27 645.76 24.21 645.79 24.16 645.85 24.11 645.9 24.05 645.95 23.97 645.98 23.89 646 23.85 646.18 23.66 646.3 23.62 646.31 23.62 646.32 23.63 646.34 23.63 646.38 23.67 646.45 23.75 646.47 23.65 646.58 23.28 646.6 23.22 646.57 23.2 646.53 23.18 646.53 23.14 646.48 23.13 646.5 23.09 646.52 23.07 646.52 23.06 646.55 23.02 646.63 22.96 646.71 22.9 646.71 22.89 646.72 22.87 646.74 22.84 646.82 22.79 646.85 22.79 646.89 22.78 647.04 22.75 647.07 22.75 647.17 22.73 647.24 22.72 647.28 22.71 647.32 22.7 647.51 22.62 647.56 22.59 647.57 22.58 647.58 22.56 647.6 22.54 647.61 22.53 647.51 22.39 647.56 22.37 647.61 22.35 647.71 22.3 647.84 22.23 647.96 22.16 648.05 22.11 648.06 22.1 648.12 22.06 648.16 22.03 648.19 22.01 648.21 21.99 648.27 21.97 648.34 21.96 648.36 21.96 648.41 21.97 648.47 21.97 648.55 21.98 648.58 22 648.61 22.03 648.63 22.04 648.64 22.05 648.65 22.05 648.68 22.05 648.69 22.04 648.7 22.03 648.72 22.02 648.73 22.01 648.77 21.98 Z"/>
</g></svg>