<svg xmlns="http://www.w3.org/2000/svg" version="1.2" baseProfile="tiny" stroke-linecap="round" stroke-linejoin="round" viewBox="133.35 106.52 30.15 29.8"><g xmlns="http://www.w3.org/2000/svg" id="Bilbo">
<path d="M 144.49 107.48 144.38 107.78 144.36 107.83 144.3 107.99 144.28 108.04 144.23 108.17 144.18 108.29 144.16 108.34 144.15 108.36 144.03 108.57 144.01 108.62 143.94 108.8 143.93 109.09 144.08 109.42 144.26 109.62 144.48 109.83 144.55 109.94 144.77 110.18 144.92 110.34 144.98 110.41 145.1 110.35 145.29 110.51 145.32 110.55 145.48 110.51 145.55 110.52 145.6 110.52 145.72 110.54 145.81 110.54 146.18 110.58 146.32 110.59 146.6 110.67 147.01 110.78 147.15 110.82 147.38 110.9 147.54 110.97 147.62 111.01 147.76 111.08 147.94 111.15 148.06 111.16 148.93 111.18 149.46 111.18 149.56 111.25 149.8 111.44 150.05 111.55 150.21 111.63 150.43 111.73 150.63 111.83 150.79 111.92 150.95 112 150.96 112 151.13 112.08 151.23 112.14 151.52 112.35 151.71 112.41 151.87 112.47 151.98 112.52 152.08 112.56 152.19 112.6 152.25 112.63 152.35 112.67 152.36 112.68 152.41 112.7 152.59 112.78 152.72 112.84 152.78 112.87 152.94 112.44 152.99 112.23 153.03 112.12 153.08 111.94 153.11 111.6 153.34 110.98 153.52 110.68 153.51 110.5 153.59 110.29 153.6 110.09 153.46 109.86 153.17 109.34 153.01 108.6 153.08 108.27 153.49 108.2 153.5 108.14 153.52 108.1 153.54 108.05 153.58 107.9 153.66 107.93 153.97 108.07 154.32 108.27 154.43 108.05 154.49 108.09 154.54 108.12 154.59 108.13 154.64 108.13 154.7 108.14 154.8 108.16 154.92 108.37 155.02 108.43 155.29 108.45 155.21 108.68 154.88 108.83 154.89 108.83 155.12 108.86 155.2 108.9 155.31 108.99 155.51 109.08 155.68 109.45 155.74 109.49 155.81 109.63 156.19 109.7 156.2 109.8 156.4 109.93 156.56 110.09 156.95 110.25 157.17 110.57 157.28 110.66 157.53 110.87 157.58 110.91 157.82 111.14 158.19 111.51 157.7 112.18 157.51 113.09 157.28 114.01 157.28 114.05 159.03 114.34 159.58 114.47 159.9 114.53 160.34 114.8 160.52 114.9 160.61 114.95 160.81 115.06 161.4 115.27 161.95 115.68 162.2 115.82 162.39 115.92 162.68 116.02 163.03 116.12 163.48 116.17 163.38 117.12 162.89 118.01 162.78 118.36 162.75 118.39 162.74 118.42 162.72 118.45 162.7 118.47 162.68 118.49 162.65 118.51 162.59 118.6 162.54 118.56 162.19 118.58 162.17 118.58 162.19 119.31 162.09 119.57 162.18 119.74 162.14 119.74 162.12 119.77 162.1 119.8 162.06 119.82 162.02 119.84 161.96 119.87 161.92 119.89 161.87 119.91 161.83 119.93 161.79 119.94 161.76 119.95 161.73 119.99 161.69 120.02 161.64 120.05 161.61 120.07 161.59 120.1 161.56 120.14 161.52 120.18 161.48 120.23 161.45 120.26 161.42 120.31 161.38 120.35 161.35 120.37 161.32 120.4 161.27 120.42 161.23 120.46 160.76 120.88 160.75 120.89 160.58 121.03 160.45 120.86 160.44 120.86 160.42 120.84 160.39 120.81 160.32 120.78 160.29 120.77 160.24 120.76 160.19 120.74 160.14 120.73 160.08 120.72 160.01 120.71 159.95 120.71 159.89 120.7 159.82 120.7 159.74 120.7 159.68 120.7 159.65 120.7 159.61 120.71 159.57 120.73 159.5 120.76 159.42 120.79 159.36 120.83 159.28 120.86 159.23 120.9 159.17 120.94 159.15 120.95 159.05 121.04 158.99 121.09 158.95 121.14 158.89 121.19 158.83 121.27 158.79 121.31 158.72 121.39 158.69 121.43 158.65 121.47 158.59 121.55 158.56 121.6 158.53 121.65 158.52 121.67 158.45 121.79 158.4 121.89 158.38 121.94 158.36 121.99 158.33 122.04 158.28 122.13 157.89 122.69 157.81 122.8 157.75 122.87 157.71 122.92 157.66 122.96 157.65 122.97 157.5 123.09 157.42 123.17 157.4 123.2 157.37 123.23 157.35 123.25 157.22 123.4 157.2 123.43 156.89 123.7 156.84 123.75 156.77 123.81 156.75 123.82 156.68 123.87 156.63 123.91 156.58 123.93 156.52 123.94 156.49 123.95 156.44 123.96 156.38 123.96 156.33 123.96 156.28 123.96 156.21 123.97 156.19 123.97 156.18 123.97 156.15 123.98 156.12 124 156.07 124.03 156.05 124.03 155.99 124.03 155.9 124.02 155.79 124.01 155.6 124 155.57 124 155.48 124 155.4 123.99 155.32 123.97 155.23 123.95 155.1 123.92 154.98 123.89 154.91 123.88 154.68 123.83 154.62 123.81 154.56 123.81 154.52 123.8 154.45 123.8 154.38 123.79 154.31 123.78 154.25 123.79 154.21 123.79 154.15 123.79 154.08 123.79 154 123.8 153.9 123.82 153.84 123.83 153.8 123.84 153.75 123.86 153.73 123.87 153.68 123.89 153.62 123.92 153.59 123.94 153.45 124.05 153.41 124.1 153.38 124.15 153.27 124.32 153.23 124.37 153.2 124.4 153.16 124.44 153.13 124.49 153.12 124.49 153.07 124.53 153.04 124.57 152.99 124.6 152.95 124.63 152.86 124.7 152.79 124.75 152.3 125.01 151.91 125.14 152.19 125.76 152.03 125.97 152.03 126.04 152.09 126.13 152.29 126.43 152.31 126.67 152.48 126.92 152.61 127.31 152.86 127.63 152.99 127.73 153.35 127.95 153.54 128.3 153.93 128.53 153.99 128.63 154.15 128.97 154.12 129.04 154.08 129.07 154.14 129.22 154.16 129.27 154.19 129.31 154.21 129.33 154.24 129.36 154.29 129.4 154.37 129.48 154.42 129.5 154.47 129.53 154.51 129.55 154.56 129.57 154.6 129.58 154.61 129.59 154.64 129.61 154.67 129.63 154.71 129.67 154.74 129.69 154.76 129.73 154.8 129.78 154.83 129.83 154.86 129.89 154.89 129.94 154.91 130.01 154.95 130.11 155.02 130.26 155.1 130.47 155.39 130.81 155.94 131.21 156.18 131.48 155.99 131.9 155.51 132.71 155.08 134.09 154.12 134.47 153.56 134.77 152.41 135.18 151.26 135.65 150.67 135.93 149.57 136.31 148.87 135.75 147.94 135.56 147.17 135.32 146.46 135.1 145.59 134.93 145.19 134.82 144.69 134.82 144.61 134.53 144.33 134.27 144.24 133.29 144.26 132.46 144.17 132.33 143.95 132.18 143.65 131.88 143.55 131.75 143.36 131.59 142.72 131.43 141.22 130.27 140.36 129.61 138.94 129.36 138.17 129.1 136.98 128.18 135.64 126.6 135.29 126.2 134.9 125.75 134.3 125.07 133.75 124.44 133.36 123.73 133.36 123.68 133.64 123.77 133.66 123.77 133.72 123.77 133.73 123.76 133.77 123.75 133.81 123.73 133.87 123.68 133.91 123.65 133.97 123.59 134.02 123.53 134.09 123.42 134.15 123.33 134.22 123.22 134.26 123.16 134.32 123.08 134.38 123.02 134.43 122.97 134.48 122.95 134.51 122.94 134.55 122.92 134.58 122.9 134.62 122.88 134.72 122.85 134.77 122.84 134.82 122.84 134.91 122.84 134.96 122.84 135.04 122.86 135.12 122.87 135.21 122.88 135.29 122.89 135.38 122.91 135.44 122.91 135.5 122.89 135.56 122.85 135.61 122.81 135.64 122.76 135.67 122.71 135.69 122.66 135.69 122.58 135.7 122.56 135.7 122.53 135.71 122.43 135.73 122.38 135.75 122.34 135.79 122.31 135.85 122.27 135.92 122.23 135.98 122.2 136.06 122.15 136.17 122.06 136.3 121.96 136.4 121.88 136.46 121.83 136.53 121.77 136.59 121.73 136.63 121.7 136.66 121.67 136.68 121.64 136.71 121.6 136.73 121.57 136.74 121.53 136.75 121.5 136.76 121.46 136.76 121.43 136.76 121.39 136.75 121.36 136.74 121.32 136.71 121.27 136.62 121.06 136.61 121.05 136.61 121 136.6 120.97 136.6 120.93 136.6 120.9 136.61 120.86 136.61 120.83 136.62 120.79 136.63 120.74 136.64 120.7 136.66 120.66 136.68 120.62 136.7 120.59 136.71 120.55 136.75 120.48 136.79 120.41 136.82 120.37 136.86 120.32 136.89 120.28 136.93 120.23 137.06 120.09 137.17 119.98 137.2 119.94 137.22 119.9 137.25 119.86 137.27 119.83 137.28 119.8 137.29 119.78 137.31 119.76 137.32 119.72 137.34 119.65 137.39 119.48 137.42 119.35 137.45 119.27 137.46 119.23 137.47 119.19 137.49 119.16 137.51 119.13 137.53 119.1 137.56 119.06 137.61 119.02 137.69 118.94 137.71 118.91 137.73 118.87 137.74 118.86 137.75 118.84 137.77 118.78 137.77 118.74 137.77 118.7 137.77 118.66 137.77 118.65 137.76 118.61 137.75 118.58 137.71 118.49 137.68 118.44 137.63 118.37 137.56 118.3 137.51 118.24 137.42 118.15 137.34 118.06 137.26 117.97 137.2 117.89 137.12 117.81 137.06 117.75 137 117.7 136.91 117.62 136.79 117.52 136.62 117.38 136.57 117.33 136.5 117.26 136.46 117.22 136.43 117.19 136.4 117.16 136.37 117.12 136.33 117.08 136.3 117.03 136.27 116.99 136.24 116.94 136.22 116.89 136.21 116.86 136.19 116.82 136.18 116.78 136.17 116.75 136.17 116.7 136.16 116.66 136.16 116.62 136.17 116.58 136.17 116.54 136.18 116.51 136.2 116.47 136.21 116.44 136.24 116.4 136.26 116.38 136.29 116.33 136.36 116.27 136.5 116.15 136.75 115.93 136.78 115.9 136.87 115.83 136.9 115.8 136.93 115.77 136.95 115.74 136.96 115.7 136.97 115.67 136.98 115.63 136.98 115.6 136.98 115.56 136.97 115.52 136.96 115.48 136.94 115.39 136.92 115.3 136.88 115.17 136.84 115 136.73 114.73 136.64 114.5 136.56 114.33 136.47 114.13 136.39 114.02 136.3 113.89 136.16 113.69 136.05 113.54 136.01 113.49 135.93 113.4 135.89 113.35 135.86 113.3 135.84 113.28 135.82 113.24 135.81 113.19 135.8 113.18 135.79 113.12 135.78 113.06 135.78 113 135.78 112.93 135.8 112.88 135.84 112.76 135.94 112.48 135.97 112.39 136.03 112.23 136.05 112.18 136.07 112.12 136.08 112.08 136.08 112.04 136.09 111.98 136.09 111.94 136.09 111.9 136.09 111.85 136.09 111.81 136.08 111.76 136.06 111.71 136.06 111.7 136.04 111.64 136.01 111.58 135.98 111.51 135.89 111.34 135.88 111.31 135.86 111.27 135.86 111.22 135.85 111.17 135.86 111.12 135.86 111.05 135.88 110.98 135.92 110.87 135.99 110.65 136 110.62 136.02 110.57 136.04 110.54 136.06 110.52 136.09 110.47 136.12 110.43 136.24 110.28 136.33 110.18 136.44 110.06 136.53 109.98 136.6 109.91 136.7 109.83 136.79 109.75 136.87 109.69 136.97 109.62 137.04 109.57 137.13 109.52 137.21 109.46 137.3 109.41 137.36 109.37 137.4 109.34 137.43 109.3 137.45 109.28 137.47 109.24 137.48 109.2 137.49 109.17 137.5 109.12 137.5 109.07 137.5 109.01 137.5 108.94 137.5 108.61 137.49 108.32 137.5 108.09 137.51 107.95 137.51 107.85 137.52 107.76 137.52 107.72 137.53 107.69 137.53 107.63 137.54 107.56 137.55 107.56 137.74 107.18 137.52 106.53 137.56 106.53 137.6 106.53 137.64 106.52 137.65 106.52 137.7 106.53 137.73 106.53 137.77 106.53 137.81 106.54 137.84 106.54 137.86 106.55 137.88 106.55 137.94 106.58 137.98 106.6 138.04 106.63 138.09 106.66 138.13 106.69 138.24 106.78 138.33 106.83 138.49 106.93 138.57 106.97 138.68 107.04 138.75 107.08 138.83 107.13 138.94 107.19 139.08 107.26 139.23 107.34 139.4 107.46 139.45 107.49 139.55 107.58 139.7 107.71 139.75 107.78 139.78 107.81 139.82 107.86 139.87 107.9 139.92 107.93 139.98 107.98 140.12 108.06 140.31 108.15 140.46 108.24 140.59 108.3 140.66 108.33 140.72 108.34 141.03 108.26 141.57 108.17 142.47 108 142.51 107.99 142.67 107.96 143.4 106.99 143.56 106.77 143.67 106.91 143.8 107.04 143.9 107.13 144.01 107.21 144.12 107.28 144.21 107.33 144.37 107.42 144.49 107.48 Z"/>
</g></svg>