<svg xmlns="http://www.w3.org/2000/svg" version="1.2" baseProfile="tiny" stroke-linecap="round" stroke-linejoin="round" viewBox="482.45 80.97 15.8 20.63"><g xmlns="http://www.w3.org/2000/svg" id="Biriatu">
<path d="M 498.24 96.51 498.23 96.53 498.21 96.55 498.19 96.57 498.14 96.61 498.12 96.63 498.11 96.63 498.11 96.64 498.1 96.64 498.09 96.65 498.08 96.66 498.07 96.66 498.06 96.67 498.06 96.68 498.05 96.68 498.04 96.69 498.03 96.69 498.02 96.7 498.01 96.7 497.99 96.71 497.96 96.73 497.95 96.74 497.94 96.74 497.93 96.74 497.91 96.75 497.9 96.76 497.89 96.76 497.88 96.77 497.87 96.77 497.86 96.77 497.86 96.78 497.85 96.79 497.84 96.79 497.83 96.8 497.82 96.81 497.81 96.81 497.81 96.82 497.8 96.83 497.79 96.83 497.78 96.84 497.77 96.85 497.77 96.86 497.76 96.86 497.75 96.87 497.74 96.88 497.74 96.89 497.73 96.9 497.72 96.9 497.71 96.92 497.7 96.94 497.68 96.96 497.67 96.97 497.66 96.98 497.65 96.99 497.65 97 497.64 97.01 497.61 97.05 497.6 97.07 497.59 97.07 497.59 97.08 497.58 97.09 497.57 97.1 497.57 97.11 497.56 97.12 497.55 97.12 497.55 97.13 497.54 97.14 497.53 97.15 497.52 97.16 497.5 97.18 497.49 97.18 497.49 97.19 497.48 97.2 497.47 97.2 497.47 97.21 497.46 97.22 497.45 97.23 497.45 97.24 497.44 97.24 497.43 97.25 497.43 97.26 497.42 97.27 497.41 97.28 497.41 97.29 497.4 97.3 497.39 97.31 497.39 97.32 497.38 97.33 497.37 97.35 497.36 97.36 497.35 97.39 497.29 97.49 497.27 97.51 497.26 97.53 497.24 97.56 497.23 97.58 497.22 97.59 497.21 97.6 497.2 97.62 497.2 97.63 497.19 97.63 497.18 97.64 497.17 97.65 497.17 97.66 497.16 97.66 497.14 97.67 497.13 97.68 497.11 97.69 497.11 97.69 497.1 97.7 497.09 97.71 497.08 97.72 497.07 97.72 497.07 97.73 497.05 97.75 497.05 97.76 497.04 97.77 497.04 97.78 497.03 97.79 497.03 97.8 497.02 97.81 497.02 97.82 497.01 97.83 497.01 97.84 497.01 97.85 497 97.86 497 97.87 497 97.88 496.99 97.89 496.99 97.9 496.99 97.91 496.98 97.92 496.98 97.93 496.98 97.94 496.98 97.96 496.97 97.99 496.97 98.01 496.96 98.01 496.94 98.03 496.91 98.17 496.86 98.38 496.85 98.4 496.85 98.41 496.85 98.42 496.84 98.47 496.83 98.52 496.8 98.64 496.76 98.78 496.76 98.79 496.75 98.81 496.73 98.83 496.72 98.85 496.7 98.87 496.69 98.88 496.68 98.9 496.66 98.91 496.65 98.93 496.63 98.94 496.62 98.96 496.6 98.97 496.59 98.99 496.57 99.01 496.54 99.03 496.53 99.04 496.53 99.05 496.52 99.05 496.51 99.06 496.5 99.07 496.49 99.08 496.47 99.1 496.45 99.12 496.41 99.14 496.39 99.16 496.37 99.18 496.36 99.19 496.35 99.2 496.33 99.21 496.31 99.23 496.29 99.25 496.23 99.31 496.21 99.33 496.2 99.34 496.19 99.35 496.16 99.38 496.15 99.38 496.14 99.39 496.13 99.4 496.13 99.4 496.12 99.41 496.11 99.42 496.11 99.43 496.1 99.44 496.09 99.44 496.08 99.46 496.06 99.48 496.02 99.53 496.01 99.54 496 99.55 495.98 99.59 495.96 99.6 495.96 99.61 495.95 99.62 495.94 99.63 495.94 99.63 495.93 99.64 495.92 99.66 495.91 99.66 495.89 99.68 495.89 99.68 495.88 99.69 495.87 99.7 495.86 99.7 495.86 99.71 495.85 99.72 495.84 99.73 495.84 99.74 495.82 99.75 495.82 99.76 495.81 99.77 495.81 99.78 495.79 99.8 495.77 99.83 495.77 99.83 495.76 99.84 495.76 99.85 495.75 99.86 495.75 99.87 495.74 99.88 495.73 99.89 495.72 99.9 495.71 99.9 495.7 99.9 495.69 99.91 495.67 99.92 495.65 99.93 495.64 99.93 495.63 99.94 495.62 99.94 495.61 99.94 495.6 99.95 495.58 99.94 495.57 99.94 495.57 99.93 495.55 99.92 495.54 99.91 495.53 99.91 495.52 99.9 495.52 99.89 495.5 99.88 495.48 99.86 495.48 99.86 495.47 99.85 495.46 99.84 495.45 99.84 495.44 99.83 495.43 99.82 495.42 99.82 495.41 99.81 495.4 99.81 495.39 99.8 495.38 99.79 495.34 99.77 495.32 99.77 495.31 99.76 495.3 99.75 495.29 99.75 495.28 99.74 495.26 99.74 495.25 99.74 495.24 99.73 495.23 99.73 495.22 99.73 495.21 99.73 495.2 99.72 495.19 99.72 495.18 99.72 495.17 99.72 495.15 99.71 495.13 99.71 495.05 99.7 495.02 99.69 494.94 99.68 494.91 99.67 494.89 99.67 494.87 99.67 494.85 99.67 494.84 99.67 494.82 99.66 494.8 99.66 494.78 99.66 494.76 99.66 494.74 99.66 494.72 99.66 494.7 99.66 494.69 99.66 494.68 99.66 494.67 99.66 494.66 99.66 494.64 99.66 494.63 99.66 494.62 99.66 494.61 99.66 494.59 99.66 494.54 99.67 494.52 99.67 494.51 99.67 494.49 99.67 494.48 99.68 494.47 99.68 494.46 99.68 494.44 99.68 494.43 99.68 494.42 99.68 494.41 99.67 494.38 99.67 494.37 99.67 494.36 99.67 494.3 99.66 494.27 99.66 494.25 99.66 494.23 99.66 494.22 99.66 494.21 99.66 494.2 99.66 494.19 99.66 494.17 99.66 494.16 99.66 494.15 99.66 494.14 99.66 494.13 99.66 494.11 99.66 494.09 99.66 494.07 99.66 494.04 99.66 494.02 99.67 494.01 99.67 494 99.67 493.99 99.67 493.98 99.67 493.96 99.68 493.94 99.68 493.91 99.69 493.86 99.7 493.83 99.7 493.8 99.71 493.76 99.72 493.72 99.73 493.66 99.74 493.61 99.75 493.56 99.77 493.5 99.78 493.44 99.8 493.28 99.84 493.16 99.87 492.97 99.92 492.96 99.92 492.94 99.93 492.93 99.93 492.92 99.93 492.91 99.94 492.9 99.94 492.89 99.95 492.87 99.96 492.87 99.96 492.86 99.97 492.85 99.98 492.84 100 492.84 100 492.83 100.01 492.82 100.03 492.8 100.05 492.79 100.07 492.76 100.11 492.73 100.15 492.71 100.18 492.66 100.24 492.62 100.31 492.58 100.36 492.57 100.37 492.57 100.38 492.55 100.39 492.53 100.43 492.51 100.45 492.5 100.47 492.49 100.48 492.48 100.49 492.48 100.49 492.47 100.5 492.47 100.51 492.46 100.52 492.46 100.53 492.45 100.54 492.44 100.55 492.44 100.56 492.44 100.57 492.43 100.58 492.43 100.59 492.43 100.6 492.42 100.61 492.42 100.64 492.42 100.65 492.42 100.66 492.42 100.67 492.41 100.69 492.41 100.7 492.41 100.71 492.4 100.72 492.4 100.73 492.4 100.74 492.39 100.75 492.39 100.76 492.39 100.77 492.38 100.78 492.38 100.79 492.37 100.8 492.37 100.81 492.36 100.82 492.35 100.83 492.35 100.84 492.34 100.85 492.34 100.85 492.33 100.86 492.32 100.87 492.32 100.88 492.31 100.89 492.3 100.9 492.3 100.91 492.29 100.91 492.28 100.92 492.27 100.93 492.27 100.94 492.26 100.95 492.25 100.96 492.24 100.96 492.24 100.97 492.23 100.98 492.22 100.98 492.21 100.99 492.2 101.01 492.19 101.01 492.18 101.02 492.15 101.04 492.14 101.05 492.11 101.07 492.1 101.08 491.91 101.21 491.91 101.21 491.9 101.22 491.89 101.23 491.88 101.23 491.87 101.23 491.86 101.24 491.85 101.24 491.84 101.25 491.83 101.25 491.82 101.25 491.81 101.26 491.8 101.26 491.78 101.27 491.76 101.27 491.73 101.28 491.69 101.3 491.67 101.3 491.63 101.32 491.53 101.35 491.49 101.37 491.46 101.38 491.43 101.39 491.4 101.4 491.37 101.41 491.34 101.42 491.31 101.43 491.28 101.45 491.25 101.46 491.21 101.48 491.18 101.49 491.17 101.49 491.15 101.5 491.14 101.51 491.13 101.51 491.12 101.52 491.11 101.52 491.1 101.53 491.09 101.53 491.08 101.54 491.07 101.55 491.06 101.56 491.05 101.56 491.04 101.57 491.03 101.58 491.01 101.59 490.99 101.56 490.98 101.53 490.97 101.51 490.95 101.47 490.93 101.42 490.92 101.38 490.91 101.35 490.9 101.3 490.9 101.28 490.9 101.27 490.9 101.26 490.9 101.24 490.88 101.22 490.87 101.19 490.85 101.15 490.83 101.11 490.82 101.06 490.81 101.01 490.8 100.98 490.79 100.96 490.78 100.94 490.76 100.92 490.75 100.9 490.75 100.88 490.74 100.86 490.74 100.84 490.73 100.82 490.71 100.78 490.7 100.75 490.69 100.72 490.7 100.69 490.7 100.67 490.69 100.63 490.68 100.55 490.68 100.51 490.67 100.46 490.67 100.4 490.66 100.36 490.64 100.31 490.61 100.23 490.6 100.2 490.59 100.19 490.58 100.16 490.57 100.13 490.56 100.09 490.55 100.06 490.54 100.02 490.53 99.99 490.52 99.96 490.49 99.93 490.47 99.9 490.44 99.86 490.38 99.8 490.34 99.75 490.31 99.72 490.28 99.68 490.26 99.66 490.24 99.62 490.23 99.59 490.21 99.54 490.2 99.51 490.19 99.48 490.18 99.46 490.17 99.43 490.16 99.37 490.14 99.32 490.11 99.25 490.09 99.19 490.07 99.11 490.06 99.09 490.06 99.06 490.05 99.02 490.02 98.86 489.99 98.76 489.97 98.72 489.96 98.67 489.95 98.61 489.95 98.58 489.94 98.55 489.94 98.48 489.93 98.42 489.93 98.41 489.91 98.28 489.91 98.25 489.9 98.2 489.89 98.14 489.88 98.1 489.87 98.07 489.87 98.02 489.86 97.95 489.86 97.89 489.86 97.81 489.85 97.77 489.85 97.75 489.85 97.73 489.86 97.69 489.86 97.54 489.85 97.5 489.84 97.45 489.83 97.41 489.82 97.34 489.8 97.24 489.8 97.22 489.79 97.16 489.77 97.04 489.77 97 489.76 96.97 489.73 96.91 489.73 96.89 489.72 96.87 489.71 96.85 489.69 96.81 489.68 96.79 489.65 96.74 489.62 96.67 489.59 96.58 489.56 96.51 489.53 96.41 489.5 96.35 489.47 96.23 489.44 96.13 489.41 96.05 489.4 96.01 489.37 95.96 489.35 95.92 489.3 95.88 489.24 95.82 489.18 95.79 489.11 95.76 489.05 95.75 489 95.74 488.95 95.74 488.89 95.74 488.88 95.74 488.84 95.74 488.83 95.75 488.8 95.75 488.77 95.76 488.74 95.76 488.7 95.75 488.66 95.74 488.63 95.74 488.62 95.74 488.57 95.75 488.52 95.77 488.41 95.77 488.37 95.76 488.29 95.74 488.2 95.7 488.12 95.67 488.1 95.64 488.06 95.59 488.03 95.55 488.01 95.5 488.01 95.48 488.01 95.45 488.02 95.44 488.02 95.42 488.03 95.41 488.03 95.4 488.03 95.39 488.04 95.37 488.04 95.36 488.05 95.34 488.05 95.31 488.06 95.28 488.06 95.27 488.06 95.25 488.07 95.23 488.09 95.2 488.09 95.19 488.11 95.16 488.11 95.14 488.12 95.12 488.13 95.11 488.14 95.1 488.17 95.07 488.19 95.05 488.2 95.05 488.21 95.04 488.24 95.03 488.26 95.03 488.28 95.02 488.33 95 488.36 94.99 488.36 94.99 488.38 94.98 488.4 94.97 488.41 94.96 488.41 94.96 488.43 94.95 488.44 94.94 488.44 94.94 488.47 94.91 488.48 94.9 488.5 94.89 488.51 94.88 488.52 94.87 488.54 94.86 488.59 94.84 488.63 94.83 488.64 94.82 488.67 94.82 488.69 94.81 488.71 94.81 488.72 94.8 488.74 94.78 488.75 94.77 488.76 94.75 488.77 94.72 488.78 94.69 488.77 94.66 488.77 94.63 488.76 94.61 488.75 94.59 488.73 94.54 488.68 94.47 488.63 94.4 488.58 94.35 488.51 94.3 488.48 94.26 488.44 94.21 488.4 94.16 488.32 94.1 488.23 94.04 488.19 94.01 488.15 93.98 488.1 93.94 488.01 93.88 487.91 93.81 487.84 93.76 487.79 93.72 487.75 93.68 487.69 93.61 487.66 93.56 487.65 93.51 487.64 93.49 487.63 93.44 487.63 93.4 487.64 93.35 487.64 93.32 487.64 93.22 487.65 93.2 487.66 93.18 487.66 93.17 487.67 93.13 487.69 93.1 487.71 93.08 487.72 93.07 487.75 93.03 487.77 93.01 487.78 92.99 487.82 92.96 487.83 92.95 487.85 92.92 487.88 92.88 487.98 92.74 488 92.7 488.02 92.68 488.06 92.6 488.14 92.52 488.27 92.32 488.28 92.3 488.3 92.28 488.33 92.23 488.37 92.17 488.39 92.13 488.41 92.1 488.43 92.07 488.43 92.06 488.46 92.02 488.51 91.97 488.55 91.93 488.57 91.89 488.59 91.86 488.6 91.84 488.61 91.82 488.65 91.7 488.67 91.63 488.67 91.63 488.69 91.57 488.71 91.48 488.72 91.4 488.75 91.28 488.77 91.2 488.78 91.13 488.81 91.06 488.84 90.92 488.86 90.81 488.86 90.75 488.86 90.68 488.85 90.61 488.83 90.57 488.8 90.51 488.75 90.45 488.73 90.39 488.71 90.35 488.67 90.3 488.64 90.26 488.6 90.22 488.57 90.17 488.53 90.14 488.49 90.1 488.47 90.06 488.44 90 488.43 89.95 488.43 89.89 488.44 89.82 488.45 89.76 488.46 89.7 488.48 89.59 488.49 89.52 488.49 89.43 488.5 89.28 488.52 89.17 488.55 89.05 488.56 89.01 488.57 88.99 488.58 88.97 488.59 88.94 488.61 88.89 488.62 88.87 488.64 88.84 488.64 88.83 488.67 88.78 488.72 88.67 488.75 88.6 488.77 88.54 488.79 88.44 488.8 88.37 488.8 88.31 488.8 88.26 488.8 88.22 488.77 88.18 488.72 88.14 488.65 88.09 488.58 88.04 488.48 87.99 488.36 87.92 488.21 87.87 488.15 87.85 488.1 87.82 488.08 87.81 488.04 87.8 488 87.79 487.93 87.76 487.87 87.72 487.8 87.69 487.69 87.65 487.61 87.64 487.52 87.64 487.42 87.63 487.36 87.62 487.27 87.63 487.13 87.64 487.02 87.66 486.94 87.67 486.83 87.69 486.8 87.7 486.78 87.7 486.65 87.73 486.61 87.74 486.41 87.77 486.4 87.77 486.33 87.78 486.21 87.81 486.07 87.85 485.94 87.89 485.92 87.91 485.88 87.92 485.84 87.94 485.8 87.94 485.66 87.95 485.6 87.94 485.59 87.94 485.47 87.92 485.42 87.9 485.4 87.89 485.37 87.87 485.31 87.82 485.18 87.73 485.1 87.67 484.97 87.6 484.88 87.54 484.84 87.5 484.78 87.45 484.71 87.38 484.69 87.36 484.53 87.21 484.47 87.15 484.45 87.13 484.4 87.05 484.37 86.97 484.35 86.88 484.33 86.8 484.32 86.7 484.33 86.61 484.33 86.5 484.33 86.42 484.35 86.38 484.36 86.35 484.37 86.33 484.39 86.29 484.4 86.28 484.42 86.26 484.44 86.25 484.48 86.23 484.52 86.21 484.55 86.19 484.57 86.17 484.58 86.17 484.59 86.16 484.64 86.09 484.66 86.03 484.7 85.99 484.71 85.97 484.72 85.94 484.71 85.92 484.7 85.89 484.69 85.84 484.67 85.8 484.66 85.71 484.64 85.6 484.61 85.47 484.6 85.42 484.57 85.35 484.55 85.28 484.49 85.14 484.48 85.1 484.47 84.98 484.47 84.93 484.46 84.86 484.46 84.83 484.44 84.75 484.43 84.71 484.41 84.64 484.38 84.53 484.37 84.49 484.36 84.45 484.34 84.38 484.34 84.34 484.33 84.26 484.32 84.24 484.31 84.19 484.29 84.12 484.27 84.09 484.24 84.02 484.16 83.9 484.12 83.86 484.09 83.82 484.05 83.78 483.93 83.68 483.86 83.62 483.71 83.49 483.63 83.44 483.53 83.36 483.28 83.16 483.2 83.09 483.16 83.06 483.08 83.01 483.08 83.01 483 82.97 482.89 82.91 482.84 82.9 482.78 82.88 482.72 82.86 482.67 82.84 482.61 82.83 482.6 82.83 482.57 82.83 482.45 82.82 482.61 82.76 482.67 82.77 483.42 82.94 484.23 83.12 484.54 83.22 484.77 82.95 484.99 82.64 485.19 82.13 485.19 82.11 485.18 82.09 485.18 82.07 485.19 82.02 485.19 81.98 485.21 81.92 485.23 81.87 485.24 81.83 485.24 81.79 485.23 81.75 485.23 81.75 485.25 81.69 485.26 81.63 485.26 81.6 485.27 81.53 485.28 81.34 485.29 81.15 485.3 81.09 485.3 81.06 485.3 81.05 485.44 81.04 485.49 81.03 485.66 81.02 486.14 80.98 486.25 81 486.56 81.04 486.59 81.04 486.8 81.07 487.06 81.1 487.11 81.11 487.69 81.18 487.85 81.2 487.94 81.18 488.05 81.17 488.2 81.14 488.23 81.13 488.26 81.13 488.35 81.11 488.47 81.09 488.62 81.06 488.75 81.03 488.83 81.02 488.86 81.01 488.91 81.01 488.95 81 488.96 81.01 489.01 81.04 489.05 81.07 489.1 81.1 489.14 81.12 489.17 81.16 489.22 81.22 489.24 81.26 489.35 81.4 489.39 81.45 489.41 81.48 489.76 81.95 489.78 81.97 489.82 82.01 490.11 82.33 490.19 82.43 490.27 82.51 490.33 82.59 490.39 82.68 490.64 83.02 490.66 83.06 490.66 83.07 490.7 83.14 490.74 83.23 490.86 83.49 490.91 83.59 490.92 83.61 491.06 83.91 491.11 84.01 491.16 84.03 491.23 84.07 491.25 84.08 491.26 84.1 491.25 84.11 491.25 84.12 491.24 84.14 491.35 84.4 491.37 84.4 491.39 84.41 491.43 84.44 491.46 84.46 491.48 84.48 491.49 84.49 491.5 84.51 491.51 84.53 491.53 84.61 491.54 84.67 491.55 84.69 491.55 84.74 491.56 84.79 491.56 84.82 491.56 84.84 491.57 84.85 491.58 84.87 491.59 84.88 491.6 84.89 491.72 85.01 491.94 85.23 491.95 85.24 491.99 85.27 492.18 85.46 492.26 85.54 492.8 86.09 493.34 86.64 493.88 87.19 494.11 87.43 494.01 87.85 493.97 87.98 493.94 88.13 493.79 88.75 493.77 88.83 493.69 89.28 493.62 89.74 493.54 90.19 493.65 90.36 493.66 90.41 493.67 90.44 493.68 90.49 493.69 90.54 493.71 90.59 493.74 90.65 493.78 90.7 493.82 90.75 493.87 90.78 493.91 90.8 493.95 90.83 493.99 90.85 494.01 90.88 494.02 90.91 494.04 90.94 494.04 90.97 494.04 91 494.05 91.03 494.05 91.04 494.05 91.08 494.04 91.11 494.04 91.14 494.04 91.18 494.04 91.22 494.04 91.26 494.06 91.29 494.06 91.32 494.06 91.35 494.05 91.38 494.04 91.39 494.04 91.42 494.04 91.44 494.06 91.46 494.08 91.5 494.11 91.53 494.14 91.56 494.15 91.6 494.14 91.62 494.14 91.64 494.14 91.66 494.14 91.67 494.15 91.69 494.16 91.73 494.18 91.78 494.19 91.84 494.2 91.89 494.21 91.99 494.22 92.04 494.22 92.08 494.21 92.13 494.21 92.17 494.2 92.2 494.21 92.24 494.23 92.25 494.26 92.27 494.29 92.3 494.32 92.32 494.37 92.36 494.44 92.4 494.47 92.41 494.5 92.42 494.52 92.43 494.55 92.44 494.6 92.45 494.65 92.45 494.69 92.44 494.73 92.45 494.77 92.47 494.83 92.49 494.87 92.49 494.88 92.49 494.91 92.49 494.95 92.49 494.99 92.5 495.03 92.51 495.07 92.52 495.14 92.54 495.18 92.56 495.22 92.58 495.26 92.6 495.29 92.63 495.32 92.65 495.35 92.66 495.38 92.67 495.4 92.68 495.43 92.69 495.45 92.71 495.46 92.74 495.47 92.77 495.48 92.81 495.5 92.83 495.53 92.85 495.55 92.87 495.56 92.89 495.57 92.9 495.67 93.04 495.69 93.06 495.74 93.15 495.81 93.25 495.92 93.41 496.02 93.57 496.06 93.63 496.11 93.7 496.4 94.3 496.88 95.31 497.27 96.11 497.8 96.33 497.93 96.38 498.24 96.51 Z"/>
</g></svg>