<svg xmlns="http://www.w3.org/2000/svg" version="1.2" baseProfile="tiny" stroke-linecap="round" stroke-linejoin="round" viewBox="249.37 235.75 20.03 67.63"><g xmlns="http://www.w3.org/2000/svg" id="Burgelu">
<path d="M 250.21 268.56 250.39 268.48 250.73 268.37 251.23 268.27 251.34 267.83 251.46 267.47 251.6 267.11 251.8 266.69 251.99 266.31 252.24 265.93 252.56 265.54 252.83 265.25 253.06 264.94 253.33 264.66 253.58 264.28 253.78 263.92 254.61 264.64 254.91 264.82 255.26 264.93 255 265.24 255.13 265.46 255.62 265.79 256.11 266.06 256.72 266.48 257.35 266.89 257.86 267.1 258.45 267.35 258.89 267.47 259.39 267.7 260.01 267.94 260.61 268.04 261.12 268.12 261.76 268.14 262.85 268.18 263.45 268.21 263.61 267.84 263.73 267.49 263.91 266.95 264 266.56 264.23 266.42 264.72 266.37 265.4 266.3 265.89 266.23 266.33 266.18 266.73 266.17 267.45 266.04 268.69 265.71 268.93 266.72 269.11 267.99 269.4 268.95 269.37 269.64 269.07 270.71 268.78 271.77 268.51 272.43 267.92 273.05 267.41 273.45 267.2 273.69 266.77 274.18 266.67 274.37 266.62 274.75 266.51 275.43 266.49 276.1 266.42 276.54 266.31 276.97 266.12 277.1 265.78 277.09 265.24 277.02 264.81 277.06 264.73 277.47 264.85 278.23 264.96 278.93 265.12 279.54 265.32 280.24 265.48 280.91 265.46 281.55 265.38 282.18 265.35 282.78 265.37 283.43 265.4 284.2 265.34 284.54 265.24 284.83 265.21 285.19 265.24 285.5 265.3 285.89 265.21 286.12 264.51 286.79 263.12 288.11 262.91 288.35 262.9 288.36 261.71 288.61 261.64 289.64 261.54 290.37 261.41 291.09 260.32 292.79 260.31 293.19 260.28 293.53 260.24 294.11 260.27 294.61 260.36 294.9 260.26 295.06 260.14 295.27 259.51 295.69 259.38 295.76 259.28 295.78 258.77 297.11 258.71 298.14 259.04 300.51 259.86 302.95 259.84 302.96 259.29 303.06 258.86 303.14 258.25 303.16 257.81 303.13 257.44 303.03 257.14 303.06 256.89 303.2 256.57 303.34 255.85 303.37 255.8 302.87 255.77 301.87 255.67 300.82 255.64 300.05 255.73 299.57 255.78 299.35 255.72 298.05 255.64 297.77 255.44 297.71 255.08 297.71 254.9 297.52 254.86 297.09 255.3 295.81 255.45 295.24 255.45 295 255.26 294.75 255.13 294.41 255.19 294.18 255.94 293.33 256.87 292.29 256.93 290.5 257.01 289.17 257.12 288.86 257.32 288.71 258.05 288.48 258.27 288.38 258.23 288.13 258.05 287.46 257.93 286.84 257.77 286.38 257.67 285.84 256.67 284.86 256.07 284.53 255.53 284.29 255.54 283.94 255.46 283.6 255.39 283.14 255.31 282.71 255.21 282.3 255.06 281.79 254.96 281.38 254.95 280.92 255.05 280.45 255.24 280.03 255.52 279.69 255.83 279.26 256.16 278.89 256.55 278.38 256.96 277.8 257.36 277.1 257.68 277.07 258.15 277.11 258.62 277.1 259.06 277.09 259.44 276.94 259.58 276.65 259.74 276.22 259.79 275.81 259.8 275.36 259.69 274.93 259.45 274.51 259.15 274.13 258.88 273.78 258.46 273.32 258.13 272.97 257.85 272.67 257.46 272.27 257.07 271.92 256.76 271.68 256.49 271.43 256.23 271.16 256 270.92 255.72 270.83 255.47 270.96 255.3 271.17 255.05 271.45 254.65 271.68 254.23 271.94 253.78 272.07 253.45 271.97 253 271.81 252.49 271.56 252.13 271.31 251.8 271.07 251.47 270.92 251.1 270.78 250.75 270.49 250.92 270.16 250.98 269.92 250.94 269.67 250.86 269.35 250.63 269.1 250.41 268.96 250.14 268.84 249.9 268.68 250.09 268.62 250.21 268.56 Z M 257.77 235.76 257.83 235.83 258.07 236.1 258.37 236.49 258.62 236.89 258.85 237.29 258.53 237.95 258.16 238.57 258.04 238.76 257.69 239.27 257.35 240.05 257.21 240.71 256.99 241.45 256.79 242.25 256.68 243.11 256.65 244.16 256.7 244.92 257.04 245.13 257.3 245.47 257.29 245.81 257.22 246.23 257.03 246.48 256.51 246.56 256.23 246.78 256.31 247.09 256.64 247.25 257.02 247.44 257.15 247.74 257.42 248.06 257.89 248.16 258.26 248 258.53 248.12 258.49 248.44 258.38 248.8 258.38 249.12 257.97 249.22 257.57 249.24 257.48 249.43 257.64 249.68 257.97 249.89 258.36 250.09 258.35 250.46 258.07 250.79 257.8 251.12 257.61 251.49 257.25 252.07 256.99 252.85 257.11 253.52 257.38 253.97 257.53 254.42 257.86 254.78 258.45 254.52 258.77 254.25 259.1 254.46 259.58 254.94 260.03 255.31 260.65 255.79 261.14 256.38 261.41 257.02 261.83 257.47 262.37 258.01 262.89 258.56 263.15 258.92 263.14 259.37 262.81 260.64 262.64 260.98 262.29 261.04 261.78 260.79 261.49 260.46 260.98 260.25 260.28 260.31 259.92 260.46 259.17 260.3 258.44 260.13 257.77 259.91 257.13 259.71 256.43 259.46 256 259.24 255.54 259.16 255.11 259.29 254.85 259.78 254.72 260.3 254.64 260.24 254.23 259.9 253.81 259.69 253.58 259.59 253.39 259.54 253.12 259.47 252.63 259.3 252.25 259.09 251.89 258.81 251.51 258.63 251.07 258.47 250.75 258.41 250.31 258.18 249.9 257.98 249.67 257.83 249.67 257.55 249.77 257.22 249.81 256.83 249.82 256.38 249.75 255.99 249.59 255.59 249.39 255.32 249.85 255.02 250.11 255 250.36 255.2 250.7 255.45 250.98 255.58 251.34 255.66 251.64 255.52 251.76 255.23 251.88 254.89 252.03 254.44 252.06 254.04 252.12 253.66 252.22 253.24 252.3 252.86 252.47 252.53 252.68 252.26 252.89 252.06 253.17 251.96 253.57 251.98 253.93 252.02 254.28 252.06 254.64 251.99 254.84 251.69 254.92 251.19 254.93 250.72 254.88 249.99 254.89 249.44 254.85 248.83 254.85 248.21 254.85 247.57 254.83 247.12 254.86 246.65 254.86 246.27 254.88 245.82 254.9 245.17 254.85 244.47 254.88 243.83 254.93 243.26 254.94 242.79 254.96 242.31 254.95 241.78 254.93 241.05 254.97 240.3 255.03 239.84 255.15 239.41 255.29 238.98 255.49 238.57 255.7 238.19 255.88 237.88 256.1 237.55 256.35 237.24 256.63 236.94 256.91 236.62 257.2 236.31 257.48 236.09 257.6 236 257.77 235.76 Z"/>
</g></svg>