<svg xmlns="http://www.w3.org/2000/svg" version="1.2" baseProfile="tiny" stroke-linecap="round" stroke-linejoin="round" viewBox="689.1 300.12 37.02 29.93"><g xmlns="http://www.w3.org/2000/svg" id="Burgi">
<path d="M 694.92 300.12 694.93 300.14 694.97 300.18 694.98 300.2 695.04 300.27 695.05 300.28 695.37 300.7 695.46 300.81 695.69 300.75 696.22 300.6 696.36 300.57 696.81 300.76 697.02 300.84 697.37 301.2 697.34 301.38 697.33 301.45 697.32 301.5 697.28 301.8 697.37 301.85 697.44 301.89 697.5 301.92 697.67 302.03 697.89 302.16 698.07 302.25 698.15 302.31 698.24 302.35 698.29 302.38 698.4 302.44 698.55 302.52 698.85 302.54 698.9 302.54 698.92 302.54 699.04 302.54 699.42 302.56 699.43 302.56 699.88 302.58 700.03 302.58 700.05 302.58 700.18 302.59 700.37 302.62 700.39 302.63 700.62 302.67 700.67 302.68 700.94 302.73 700.98 302.73 701.42 302.81 701.43 302.81 701.45 302.81 701.46 302.82 701.47 302.82 701.49 302.82 701.51 302.82 701.59 302.84 701.72 302.82 701.8 302.81 701.82 302.81 701.87 302.81 701.92 302.8 702.02 302.8 702.07 302.8 702.14 302.8 702.25 302.8 702.34 302.81 702.44 302.81 702.56 302.81 702.66 302.81 702.71 302.81 702.76 302.81 702.86 302.81 702.93 302.81 703.03 302.81 703.08 302.81 703.09 302.81 703.22 302.8 703.43 302.67 703.81 302.43 703.92 302.36 704.01 302.31 704.15 302.23 704.18 302.22 704.21 302.21 704.23 302.2 704.25 302.2 704.27 302.19 704.29 302.18 704.35 302.16 704.52 302.1 704.54 302.1 704.57 302.09 704.59 302.08 704.68 302.05 704.88 301.98 704.92 301.97 705.01 301.94 705.17 301.89 705.35 301.83 705.37 301.83 705.55 301.77 705.71 301.72 705.83 301.68 705.84 301.68 705.89 301.66 706.01 301.62 706.16 301.57 706.25 301.54 706.31 301.52 706.36 301.51 706.37 301.5 706.73 301.42 707 301.36 707.27 301.53 707.3 301.55 707.43 301.62 707.55 301.69 707.6 301.73 707.75 301.82 707.77 301.91 707.8 302 707.81 302.07 707.83 302.13 707.84 302.2 707.85 302.25 707.87 302.3 707.89 302.35 707.9 302.38 707.92 302.46 707.93 302.48 707.94 302.49 707.94 302.51 707.96 302.52 707.97 302.53 707.97 302.55 707.98 302.56 707.99 302.57 707.99 302.59 708 302.6 708 302.64 708.01 302.66 708.02 302.69 708.03 302.71 708.04 302.75 708.07 302.8 708.08 302.83 708.09 302.85 708.1 302.87 708.12 302.89 708.14 302.92 708.16 302.94 708.17 302.97 708.19 302.99 708.21 303.01 708.22 303.03 708.24 303.05 708.25 303.06 708.26 303.07 708.26 303.08 708.27 303.08 708.29 303.09 708.3 303.09 708.3 303.09 708.32 303.09 708.34 303.09 708.38 303.09 708.41 303.08 708.45 303.08 708.5 303.09 708.55 303.08 708.59 303.08 708.61 303.09 708.64 303.09 708.66 303.09 708.68 303.09 708.7 303.1 708.72 303.1 708.74 303.1 708.76 303.11 708.8 303.12 708.82 303.13 708.84 303.13 708.86 303.13 708.88 303.13 708.89 303.13 708.9 303.13 708.91 303.13 708.93 303.12 708.97 303.11 709 303.1 709.02 303.1 709.05 303.09 709.07 303.09 709.09 303.09 709.11 303.09 709.12 303.09 709.15 303.1 709.18 303.1 709.21 303.1 709.26 303.11 709.28 303.11 709.31 303.12 709.33 303.12 709.39 303.13 709.43 303.14 709.46 303.15 709.49 303.16 709.52 303.16 709.56 303.17 709.59 303.17 709.62 303.17 709.64 303.18 709.66 303.18 709.68 303.19 709.7 303.19 709.72 303.19 709.74 303.2 709.78 303.21 709.83 303.21 709.87 303.22 709.9 303.23 709.91 303.23 709.92 303.23 709.96 303.22 709.98 303.22 710 303.22 710.03 303.22 710.05 303.22 710.08 303.23 710.1 303.23 710.11 303.23 710.12 303.24 710.13 303.24 710.15 303.24 710.18 303.24 710.2 303.23 710.23 303.23 710.27 303.23 710.29 303.23 710.31 303.23 710.34 303.23 710.37 303.23 710.39 303.23 710.41 303.23 710.42 303.23 710.44 303.23 710.45 303.24 710.47 303.24 710.49 303.25 710.5 303.25 710.52 303.26 710.54 303.27 710.56 303.27 710.57 303.28 710.59 303.29 710.6 303.3 710.62 303.3 710.64 303.31 710.67 303.33 710.7 303.33 710.72 303.34 710.75 303.35 710.77 303.35 710.81 303.37 710.85 303.37 710.87 303.38 710.89 303.39 710.91 303.4 710.92 303.41 710.93 303.41 710.95 303.42 710.96 303.43 710.97 303.43 710.99 303.43 711 303.43 711.01 303.44 711.02 303.44 711.03 303.44 711.05 303.44 711.06 303.43 711.1 303.42 711.13 303.41 711.15 303.41 711.17 303.4 711.22 303.39 711.25 303.39 711.27 303.38 711.3 303.38 711.36 303.38 711.37 303.38 711.39 303.37 711.41 303.37 711.43 303.37 711.44 303.37 711.46 303.37 711.47 303.37 711.49 303.37 711.49 303.37 711.52 303.39 711.54 303.4 711.57 303.42 711.6 303.44 711.63 303.45 711.66 303.48 711.68 303.49 711.7 303.5 711.73 303.52 711.75 303.52 711.76 303.53 711.78 303.54 711.8 303.54 711.81 303.55 711.82 303.55 711.84 303.55 711.85 303.55 711.89 303.54 711.92 303.53 711.96 303.52 711.98 303.51 711.99 303.51 712.01 303.51 712.02 303.51 712.04 303.51 712.05 303.51 712.06 303.52 712.07 303.52 712.08 303.53 712.09 303.54 712.11 303.57 712.11 303.58 712.12 303.58 712.13 303.59 712.14 303.59 712.16 303.59 712.17 303.6 712.18 303.6 712.2 303.61 712.22 303.62 712.24 303.64 712.26 303.65 712.28 303.66 712.29 303.66 712.31 303.66 712.32 303.66 712.34 303.66 712.35 303.66 712.37 303.66 712.39 303.65 712.42 303.65 712.44 303.65 712.46 303.65 712.48 303.65 712.53 303.65 712.55 303.65 712.57 303.65 712.6 303.64 712.63 303.64 712.64 303.64 712.65 303.64 712.67 303.65 712.68 303.65 712.69 303.66 712.71 303.66 712.73 303.68 712.75 303.68 712.77 303.68 712.78 303.68 712.79 303.68 712.81 303.68 712.82 303.67 712.85 303.67 712.89 303.65 712.91 303.65 712.92 303.65 712.93 303.65 712.94 303.65 712.96 303.65 712.99 303.66 713.03 303.67 713.06 303.69 713.09 303.7 713.12 303.72 713.16 303.75 713.18 303.76 713.2 303.78 713.21 303.79 713.23 303.81 713.24 303.82 713.25 303.84 713.26 303.86 713.27 303.88 713.29 303.93 713.3 303.97 713.32 304.02 713.33 304.05 713.34 304.08 713.37 304.16 713.39 304.2 713.39 304.21 713.4 304.22 713.41 304.22 713.42 304.23 713.44 304.24 713.46 304.25 713.47 304.26 713.48 304.27 713.49 304.28 713.49 304.29 713.5 304.3 713.51 304.32 713.52 304.34 713.54 304.37 713.55 304.4 713.57 304.44 713.6 304.5 713.61 304.51 713.61 304.52 713.62 304.52 713.63 304.53 713.65 304.53 713.67 304.53 713.7 304.53 713.76 304.52 713.8 304.52 713.82 304.52 713.89 304.55 713.91 304.55 713.9 304.57 713.9 304.58 713.89 304.59 713.89 304.6 713.89 304.62 713.89 304.64 713.89 304.65 713.89 304.69 713.91 304.69 714.3 304.69 714.52 304.7 714.67 304.7 715.15 304.7 715.92 304.85 716.01 304.82 716.43 304.68 716.76 304.71 716.81 304.71 716.82 304.72 716.87 304.73 716.94 304.74 716.99 304.75 717.03 304.76 717.13 304.77 717.34 304.81 717.42 304.83 717.49 304.85 717.54 304.86 717.65 304.88 717.71 304.89 717.93 305.01 718.25 305.18 718.37 305.25 718.77 305.46 719.26 305.51 719.32 305.52 719.86 306.09 719.88 306.11 719.9 306.13 719.96 306.18 719.97 306.2 720.05 306.33 720.06 306.35 720.21 306.59 720.22 306.61 720.22 306.61 720.32 306.77 720.41 306.88 720.45 306.94 720.48 306.98 720.51 307 720.54 307.03 720.57 307.05 720.6 307.07 720.64 307.1 720.65 307.11 720.67 307.11 720.68 307.12 720.74 307.16 720.76 307.17 720.78 307.18 720.89 307.26 720.98 307.33 721.03 307.37 721.09 307.4 721.46 307.65 721.47 307.66 721.62 307.76 721.72 307.83 721.95 307.99 721.99 308.01 722.02 308.03 722.03 308.04 722.27 308.19 722.3 308.21 722.31 308.22 722.36 308.25 722.47 308.32 722.57 308.36 722.58 308.37 722.74 308.45 723.03 308.59 723.22 308.68 723.4 308.76 723.47 308.8 723.54 308.84 723.58 308.86 723.8 308.97 723.96 309.06 724.02 309.09 724.06 309.11 724.09 309.14 724.11 309.14 724.14 309.16 724.15 309.17 724.17 309.17 724.21 309.19 724.24 309.21 724.32 309.24 724.36 309.25 724.37 309.26 724.43 309.28 724.46 309.29 724.56 309.34 724.58 309.34 724.72 309.4 724.87 309.46 725.03 309.53 725.15 309.58 725.3 309.63 725.33 309.78 725.36 309.9 725.39 309.99 725.45 310.19 725.45 310.2 725.49 310.33 725.53 310.47 725.6 310.71 725.7 311.04 725.78 311.31 725.87 311.64 725.94 311.88 726 312.08 726.03 312.25 726.06 312.42 726.07 312.46 726.07 312.48 726.07 312.51 726.08 312.52 726.08 312.59 726.09 312.66 726.1 312.71 726.1 312.75 726.1 312.81 726.11 312.87 726.11 312.92 726.11 312.95 726.11 312.99 726.11 313.01 726.1 313.04 726.09 313.09 726.09 313.13 726.08 313.16 726.07 313.19 726.06 313.21 726.03 313.25 726.01 313.27 725.98 313.31 725.96 313.34 725.92 313.38 725.88 313.44 725.77 313.56 725.73 313.61 725.72 313.62 725.65 313.7 725.6 313.77 725.81 314.17 725.75 314.21 725.68 314.25 725.44 314.42 725.12 314.63 724.95 314.75 724.62 315 724.62 315 724.4 315.17 724.24 315.3 724.21 315.32 724.2 315.33 724.19 315.33 724.18 315.34 724.16 315.35 724.14 315.36 724.13 315.36 724.1 315.37 724.08 315.38 724.05 315.39 724.02 315.4 723.98 315.41 723.94 315.42 723.91 315.44 723.85 315.46 723.83 315.46 723.8 315.47 723.76 315.47 723.63 315.5 723.28 315.55 723.01 315.77 722.93 315.88 722.83 315.99 722.64 316.35 722.48 316.63 722.47 316.82 722.46 316.88 722.45 316.92 722.44 316.97 722.41 317.12 722.4 317.14 722.34 317.51 722.3 317.67 722.23 317.99 722.22 318.03 722.2 318.12 722.18 318.27 722.16 318.4 722.15 318.5 722.14 318.59 722.12 318.71 722.1 318.81 722.09 318.89 722.08 318.97 722.06 319.1 722.06 319.11 722 319.46 721.82 319.56 721.69 319.62 721.23 319.86 721.04 319.89 721.02 319.9 721 319.9 720.96 319.9 720.94 319.96 720.92 320.02 720.89 320.1 720.86 320.2 720.85 320.23 720.82 320.28 720.81 320.32 720.8 320.32 720.8 320.33 720.78 320.36 720.75 320.4 720.73 320.43 720.7 320.46 720.69 320.47 720.67 320.49 720.66 320.49 720.63 320.5 720.39 320.57 720.37 320.61 720.36 320.68 720.35 320.72 720.34 320.77 720.34 320.86 720.33 320.9 720.33 320.96 720.33 321.05 720.34 321.11 720.34 321.16 720.34 321.25 720.34 321.32 720.33 321.4 720.34 321.44 720.33 321.46 720.33 321.49 720.33 321.53 720.32 321.56 720.31 321.61 720.28 321.72 720.27 321.79 720.26 321.8 720.26 321.84 720.25 321.89 720.24 321.92 720.23 321.97 720.21 322.04 720.2 322.07 720.19 322.11 720.18 322.14 720.17 322.24 720.16 322.27 720.16 322.3 720.16 322.34 720.16 322.35 720.17 322.43 720.17 322.46 720.17 322.47 720.17 322.48 720.16 322.49 720.15 322.5 720.09 322.58 720.05 322.62 720.02 322.66 720 322.69 719.99 322.71 719.97 322.76 719.96 322.79 719.93 322.85 719.91 322.91 719.88 322.96 719.81 323.13 719.79 323.16 719.78 323.19 719.75 323.25 719.71 323.33 719.69 323.36 719.66 323.41 719.63 323.46 719.61 323.52 719.59 323.56 719.57 323.63 719.84 323.89 719.87 323.91 719.87 323.92 719.87 323.93 719.88 323.94 719.88 323.95 719.88 323.96 719.87 323.98 719.87 324 719.85 324.03 719.79 324.14 719.74 324.23 719.74 324.24 719.7 324.33 719.66 324.4 719.6 324.51 719.59 324.55 719.56 324.6 719.54 324.64 719.54 324.65 719.53 324.67 719.49 324.75 719.47 324.78 719.46 324.8 719.45 324.82 719.43 324.83 719.42 324.85 719.33 324.92 719.23 325 719.21 325.01 719.2 325.02 719.18 325.02 719.16 325.02 719.14 325.01 719.09 325 719.07 325 719.05 324.99 718.99 324.97 718.96 324.95 718.92 324.94 718.9 324.93 718.88 324.93 718.86 324.92 718.83 324.91 718.75 324.9 718.71 324.89 718.68 324.88 718.66 324.88 718.64 324.87 718.62 324.86 718.6 324.85 718.57 324.84 718.46 324.8 718.44 324.78 718.41 324.76 718.36 324.74 718.3 324.71 718.25 324.69 718.11 324.63 718.02 324.6 718.01 324.6 718 324.6 717.99 324.6 717.97 324.6 717.96 324.59 717.94 324.58 717.93 324.57 717.93 324.56 717.91 324.54 717.83 324.51 717.81 324.5 717.8 324.5 717.79 324.51 717.78 324.51 717.77 324.52 717.73 324.54 717.71 324.55 717.64 324.57 717.59 324.59 717.57 324.59 717.54 324.59 717.52 324.59 717.49 324.59 717.47 324.59 717.39 324.61 717.28 324.63 717.11 324.66 716.84 324.81 716.8 324.84 716.46 325.04 716.31 325.13 716.15 325.15 715.78 325.18 715.24 325.64 715.23 325.64 715.23 325.65 715.03 325.97 714.89 326.2 714.84 326.29 714.79 326.37 714.7 326.52 714.5 326.6 714.12 326.77 713.89 326.89 713.68 327.13 713.57 327.26 713.5 327.51 713.47 327.62 713.35 328.08 712.84 327.88 712.78 327.86 712.39 327.83 711.84 327.8 711.74 327.97 711.57 327.96 711.44 327.94 711.27 327.93 711.09 327.91 710.97 327.9 710.9 327.89 710.87 327.89 710.84 327.89 710.82 327.89 710.81 327.89 710.56 327.9 710.49 327.9 710.47 327.9 710.46 327.9 710.44 327.9 710.43 327.91 710.42 327.92 710.39 327.95 710.32 328.04 710.29 328.07 710.26 328.11 710.24 328.13 710.22 328.15 710.2 328.16 710.17 328.17 710.14 328.19 710.06 328.23 710.01 328.26 710 328.27 709.95 328.29 709.89 328.32 709.82 328.36 709.8 328.37 709.74 328.41 709.65 328.45 709.61 328.47 709.57 328.5 709.53 328.52 709.5 328.54 709.47 328.55 709.45 328.57 709.42 328.59 709.39 328.6 709.35 328.63 709.19 328.76 709.16 328.78 709.14 328.78 709.12 328.79 709.1 328.79 709.06 328.79 708.97 328.8 708.94 328.79 708.93 328.79 708.91 328.78 708.89 328.77 708.86 328.75 708.78 328.7 708.61 328.59 708.43 328.61 708.27 328.63 708.13 328.64 708.11 328.64 707.93 328.65 707.83 328.76 707.69 328.88 707.65 328.91 707.55 329 707.41 329.11 707.28 329.12 707.21 329.13 707.19 329.13 707.14 329.14 707.1 329.14 707.06 329.14 707.01 329.15 706.99 329.15 706.87 329.15 706.72 329.17 706.58 329.19 706.42 329.26 706.13 329.39 706 329.45 705.99 329.45 705.86 329.5 705.62 329.52 705.52 329.53 705.34 329.55 705.01 329.58 704.84 329.6 704.64 329.63 704.44 329.66 704.17 329.7 703.84 329.74 703.62 329.77 703.61 329.78 703.54 329.79 703.36 329.81 703.07 329.85 702.96 329.86 702.9 329.86 702.85 329.86 702.77 329.87 702.67 329.86 702.44 329.85 702.35 329.85 702.29 329.85 702.17 329.83 702.07 329.82 701.76 329.77 701.47 329.72 701.42 329.71 701.39 329.7 701.36 329.7 701.34 329.69 701.3 329.69 701.25 329.69 701.21 329.69 701.17 329.69 701.13 329.69 701.05 329.69 701.02 329.69 700.95 329.69 700.93 329.69 700.88 329.67 700.63 329.59 700 329.38 699.99 329.38 699.95 329.37 699.91 329.35 699.88 329.34 699.83 329.33 699.82 329.33 699.77 329.34 699.76 329.34 699.69 329.37 699.6 329.41 699.55 329.42 699.46 329.44 699.34 329.47 699.19 329.5 699.03 329.52 698.84 329.55 698.67 329.57 698.53 329.58 698.47 329.59 698.37 329.61 698.25 329.64 698.22 329.65 698.1 329.68 697.95 329.7 697.83 329.73 697.71 329.75 697.62 329.77 697.59 329.77 697.56 329.78 697.53 329.78 697.51 329.78 697.46 329.8 697.37 329.83 697.25 329.87 697.16 329.89 697.11 329.9 697.07 329.91 697.03 329.91 697.01 329.9 696.98 329.9 696.94 329.89 696.85 329.88 696.78 329.87 696.67 329.87 696.62 329.86 696.58 329.85 696.52 329.84 696.45 329.83 696.36 329.82 696.3 329.81 696.24 329.81 696.2 329.81 696.17 329.82 696.03 329.87 695.88 329.91 695.71 329.96 695.61 329.98 695.48 330.01 695.43 330.02 695.37 330.03 695.3 330.04 695.25 330.04 695.15 330.04 695.07 330.04 695.04 330.03 695 330.04 694.92 330.04 694.88 330.03 694.81 330.03 694.72 330.03 694.63 330.03 694.58 330.02 694.53 330.02 694.47 330.01 694.36 330 694.27 329.98 694.2 329.97 694.14 329.97 694.05 329.97 693.93 329.97 693.8 329.96 693.73 329.96 693.64 329.96 693.6 329.96 693.55 329.96 693.47 329.97 693.43 329.96 693.4 329.96 693.38 329.95 693.32 329.93 693.21 329.9 693.1 329.86 693.06 329.84 693.02 329.83 692.98 329.82 692.95 329.81 692.92 329.8 692.87 329.79 692.73 329.77 692.62 329.75 692.57 329.74 692.54 329.73 692.52 329.72 692.51 329.72 692.48 329.7 692.45 329.67 692.36 329.57 692.32 329.53 692.29 329.48 692.25 329.42 692.23 329.38 692.22 329.34 692.2 329.27 692.2 329.26 692.18 329.15 692.17 329.11 692.17 329.08 692.17 329.03 692.17 328.99 692.17 328.94 692.16 328.81 692.16 328.77 692.16 328.75 692.16 328.73 692.17 328.68 692.18 328.64 692.19 328.62 692.19 328.62 692.21 328.59 692.27 328.52 692.33 328.44 692.35 328.43 692.38 328.4 692.41 328.37 692.46 328.34 692.49 328.32 692.57 328.28 692.64 328.25 692.72 328.21 692.77 328.19 692.73 328.01 692.7 327.85 692.7 327.82 692.69 327.79 692.69 327.77 692.65 327.65 692.65 327.64 692.64 327.61 692.62 327.54 692.61 327.51 692.64 327.45 692.69 327.37 692.72 327.31 692.73 327.29 692.73 327.28 692.74 327.25 692.74 327.22 692.75 327.19 692.75 327.17 692.75 327.14 692.74 327.08 692.74 327.05 692.74 327.03 692.73 327 692.71 326.95 692.69 326.9 692.6 326.7 692.55 326.63 692.51 326.57 692.51 326.56 692.5 326.55 692.49 326.52 692.49 326.5 692.49 326.46 692.5 326.41 692.51 326.34 692.53 326.27 692.54 326.2 692.54 326.19 692.53 326.17 692.52 326.14 692.5 326.09 692.48 326.05 692.47 326.01 692.46 325.99 692.47 325.97 692.48 325.93 692.51 325.84 692.55 325.77 692.59 325.68 692.63 325.61 692.64 325.58 692.66 325.54 692.69 325.48 692.73 325.43 692.75 325.38 692.77 325.31 692.78 325.27 692.78 325.22 692.79 325.19 692.8 325.15 692.8 325.12 692.8 325.08 692.79 325.02 692.77 324.88 692.74 324.78 692.74 324.77 692.74 324.75 692.74 324.73 692.75 324.68 692.76 324.63 692.76 324.59 692.75 324.55 692.75 324.45 692.75 324.35 692.75 324.07 692.74 323.79 692.74 323.74 692.74 323.64 692.74 323.63 692.74 323.62 692.73 323.61 692.72 323.59 692.71 323.56 692.64 323.45 692.59 323.38 692.55 323.34 692.52 323.3 692.5 323.27 692.49 323.25 692.47 323.22 692.45 323.2 692.43 323.18 692.41 323.16 692.4 323.14 692.39 323.13 692.37 323.12 692.35 323.1 692.33 323.09 692.32 323.08 692.28 323.06 692.24 323.03 692.23 323.02 692.21 323.01 692.17 322.98 692.14 322.95 692.11 322.93 692.1 322.92 692.07 322.91 692.04 322.89 691.98 322.86 691.94 322.84 691.9 322.82 691.88 322.81 691.88 322.8 691.87 322.79 691.86 322.78 691.85 322.78 691.85 322.77 691.84 322.76 691.82 322.75 691.8 322.74 691.77 322.73 691.76 322.73 691.74 322.72 691.73 322.72 691.72 322.72 691.71 322.71 691.7 322.7 691.62 322.66 691.51 322.6 691.49 322.59 691.41 322.54 691.29 322.44 691.18 322.34 691.11 322.27 691.07 322.23 691.03 322.18 690.97 322.09 690.94 322.03 690.94 322.02 690.93 321.95 690.92 321.88 690.92 321.79 690.94 321.61 690.95 321.54 690.98 321.45 691.01 321.37 691.02 321.34 691.04 321.29 691.06 321.21 691.06 321.19 691.07 321.16 691.07 321.1 691.06 321.02 691.04 320.94 691.02 320.84 691 320.79 690.97 320.72 690.94 320.64 690.9 320.56 690.83 320.46 690.79 320.4 690.75 320.31 690.74 320.25 690.72 320.2 690.71 320.15 690.7 320.12 690.7 320.08 690.71 320.01 690.7 319.9 690.69 319.79 690.69 319.75 690.68 319.57 690.67 319.38 690.66 319.29 690.65 319.17 690.64 319.06 690.63 318.98 690.63 318.92 690.64 318.81 690.65 318.74 690.65 318.71 690.65 318.65 690.65 318.57 690.65 318.5 690.64 318.41 690.64 318.39 690.64 318.3 690.64 318.24 690.64 318.2 690.63 318.13 690.62 318.09 690.61 318.05 690.6 318.01 690.59 317.93 690.57 317.86 690.57 317.77 690.57 317.68 690.57 317.57 690.57 317.47 690.57 317.38 690.56 317.26 690.56 317.22 690.55 317.1 690.54 317.03 690.53 316.98 690.52 316.96 690.41 316.68 690.25 316.32 690.21 316.22 690.09 315.91 689.97 315.63 689.93 315.53 689.92 315.48 689.91 315.42 689.91 315.38 689.91 315.33 689.93 315.24 690.02 314.81 690.06 314.65 690.03 314.54 689.94 314.18 689.91 314.05 689.88 313.96 689.67 313.69 689.65 313.66 689.63 313.63 689.59 313.53 689.57 313.46 689.55 313.41 689.54 313.37 689.51 313.14 689.48 312.93 689.49 312.41 689.53 312.31 689.6 312.17 689.69 312.14 689.75 312.13 689.88 312.09 690.31 311.99 690.48 311.72 690.53 311.46 690.38 311.24 690.27 311.16 690.25 311.14 690.23 311 690.18 310.83 690.18 310.79 690.17 310.77 690.14 310.64 690.14 310.56 690.12 310.51 690.09 310.36 690.06 310.25 690.04 310.16 690.02 310.08 690.01 310.01 690.01 309.93 690.01 309.84 690.02 309.75 690.02 309.68 690.03 309.61 690.05 309.54 690.06 309.51 690.07 309.44 690.08 309.4 690.08 309.34 690.09 309.32 690.09 309.3 690.09 309.29 690.09 309.22 690.09 309.19 690.07 309.14 690.04 309.08 689.99 308.97 689.91 308.86 689.77 308.69 689.61 308.51 689.54 308.43 689.5 308.37 689.4 308.28 689.23 308.06 689.12 307.93 689.24 307.65 689.3 307.49 689.35 307.38 689.52 307.22 689.59 306.93 689.6 306.9 689.69 306.57 689.71 306.53 689.95 306.07 689.88 305.99 689.75 305.85 689.61 305.7 689.52 305.6 689.56 305.24 689.57 305.13 689.59 305.07 689.61 305 689.65 304.89 689.68 304.82 689.86 304.32 689.93 304.13 689.99 303.96 690.37 303.56 690.65 303.28 690.95 302.93 691.07 302.78 691.12 302.72 691.18 302.66 691.38 302.47 691.39 302.46 691.48 302.38 691.53 302.34 691.56 302.32 691.59 302.31 691.65 302.28 691.72 302.26 691.74 302.25 691.76 302.25 691.77 302.24 691.88 302.2 691.96 302.23 691.99 302.24 692.02 302.24 692.04 302.25 692.06 302.25 692.08 302.25 692.1 302.25 692.14 302.25 692.17 302.25 692.19 302.25 692.21 302.25 692.24 302.25 692.27 302.26 692.29 302.26 692.31 302.27 692.34 302.27 692.4 302.29 692.41 302.29 693.13 302.17 693.94 302.03 693.95 301.53 693.95 301.43 693.95 301.35 693.95 301.3 693.95 301.25 693.95 301.22 693.96 301.19 693.97 301.17 693.98 301.15 693.99 301.12 694 301.09 694.01 301.06 694.01 301.04 694 301.02 694 300.99 693.99 300.97 693.96 300.86 694.48 300.66 694.85 300.21 694.92 300.12 Z"/>
</g></svg>