<svg xmlns="http://www.w3.org/2000/svg" version="1.2" baseProfile="tiny" stroke-linecap="round" stroke-linejoin="round" viewBox="523.22 280.37 6.33 8.38"><g xmlns="http://www.w3.org/2000/svg" id="Burlata">
<path d="M 526.4 280.92 526.4 280.93 526.4 280.96 526.42 281.04 526.47 281.28 526.47 281.31 526.48 281.32 526.52 281.58 526.55 281.69 526.56 281.75 526.56 281.77 526.61 282.04 526.63 282.13 526.64 282.15 526.67 282.2 526.7 282.25 526.92 282.55 526.93 282.55 526.93 282.56 526.94 282.57 526.99 282.63 527.49 283.31 527.51 283.33 527.53 283.36 527.54 283.37 527.64 283.43 527.72 283.47 527.76 283.49 527.77 283.5 527.8 283.52 527.91 283.58 527.92 283.59 527.94 283.59 527.97 283.61 528.28 283.78 528.4 283.85 528.45 283.87 528.63 283.97 528.65 283.98 528.66 283.99 528.68 284 528.88 284.17 528.9 284.19 528.9 284.23 528.89 284.26 528.86 284.31 528.85 284.33 528.83 284.35 528.8 284.4 528.76 284.45 528.7 284.53 528.65 284.6 528.61 284.66 528.57 284.72 528.53 284.77 528.48 284.84 528.44 284.9 528.4 284.96 528.36 285.01 528.33 285.05 528.34 285.07 528.37 285.09 528.39 285.11 528.41 285.13 528.45 285.17 528.5 285.22 528.54 285.26 528.57 285.29 528.6 285.33 528.64 285.38 528.69 285.43 528.75 285.48 528.8 285.54 528.87 285.61 528.94 285.68 529.03 285.75 529.1 285.8 529.19 285.87 529.24 285.92 529.33 285.98 529.38 286.02 529.41 286.05 529.43 286.09 529.44 286.17 529.45 286.24 529.47 286.3 529.47 286.34 529.48 286.39 529.49 286.44 529.48 286.49 529.48 286.57 529.48 286.65 529.47 286.72 529.47 286.76 529.47 286.78 529.47 286.83 529.47 286.91 529.47 287 529.47 287.04 529.48 287.18 529.48 287.2 529.48 287.29 529.49 287.37 529.55 287.41 529.53 287.42 529.52 287.43 529.47 287.49 529.46 287.49 529.42 287.53 529.41 287.54 529.39 287.56 529.36 287.58 529.31 287.64 529.28 287.67 529.26 287.69 529.23 287.71 529.17 287.76 529.16 287.78 529.12 287.81 529.06 287.87 529.02 287.91 528.99 287.93 528.99 287.94 528.98 287.95 528.97 287.97 528.97 287.97 528.93 288.02 528.93 288.03 528.92 288.05 528.92 288.06 528.91 288.09 528.9 288.12 528.89 288.14 528.89 288.17 528.88 288.18 528.87 288.21 528.86 288.25 528.86 288.28 528.86 288.32 528.86 288.35 528.86 288.37 528.86 288.39 528.86 288.44 528.85 288.48 528.85 288.52 528.85 288.54 528.85 288.56 528.84 288.58 528.84 288.6 528.84 288.64 528.83 288.68 528.82 288.69 528.82 288.69 528.82 288.71 528.81 288.74 528.77 288.74 528.72 288.74 528.69 288.74 528.63 288.74 528.58 288.74 528.55 288.73 528.5 288.73 528.47 288.73 528.43 288.73 528.37 288.73 528.29 288.72 528.24 288.72 528.18 288.72 528.12 288.72 528.01 288.71 527.96 288.71 527.93 288.71 527.83 288.7 527.73 288.69 527.66 288.68 527.61 288.68 527.57 288.67 527.53 288.67 527.48 288.66 527.46 288.64 527.45 288.62 527.45 288.62 527.44 288.6 527.42 288.58 527.4 288.55 527.36 288.5 527.33 288.46 527.29 288.4 527.29 288.39 527.27 288.36 527.24 288.33 527.23 288.32 527.21 288.28 527.19 288.25 527.18 288.24 527.16 288.22 527.13 288.18 527.09 288.14 527.06 288.1 527.03 288.07 526.98 288.01 526.94 287.97 526.9 287.92 526.86 287.87 526.81 287.83 526.77 287.78 526.75 287.75 526.71 287.71 526.68 287.68 526.65 287.64 526.62 287.61 526.59 287.58 526.56 287.54 526.54 287.52 526.54 287.48 526.55 287.46 526.55 287.43 526.55 287.39 526.56 287.36 526.56 287.35 526.56 287.33 526.56 287.33 526.56 287.31 526.56 287.3 526.55 287.14 526.54 287.03 526.53 287.02 526.52 287.01 526.51 287.01 526.43 286.94 526.42 286.93 526.36 286.88 526.25 286.9 526.17 286.91 526.09 286.88 525.96 286.79 525.86 286.72 525.74 286.62 525.66 286.53 525.59 286.46 525.52 286.39 525.44 286.29 525.38 286.22 525.35 286.18 525.32 286.15 525.29 286.13 525.25 286.1 525.2 286.07 525.12 286.03 525.1 286.02 525.07 286 525.04 285.97 524.96 285.91 524.88 285.85 524.84 285.84 524.73 285.82 524.66 285.8 524.47 285.83 524.3 285.85 524.13 285.87 523.96 285.89 523.76 285.9 523.56 286.02 523.55 285.99 523.54 285.94 523.52 285.84 523.52 285.81 523.49 285.65 523.47 285.5 523.46 285.46 523.44 285.33 523.43 285.28 523.41 285.15 523.4 285.1 523.38 284.96 523.37 284.92 523.36 284.89 523.24 284.52 523.22 284.45 523.23 284.41 523.23 284.4 523.23 284.4 523.23 284.39 523.23 284.38 523.23 284.37 523.23 284.35 523.23 284.34 523.23 284.33 523.23 284.3 523.23 284.29 523.23 284.28 523.23 284.27 523.23 284.26 523.23 284.25 523.23 284.24 523.23 284.23 523.23 284.21 523.24 284.2 523.24 284.18 523.24 284.16 523.24 284.15 523.25 284.13 523.25 284.11 523.25 284.09 523.26 284.08 523.26 284.07 523.26 284.06 523.27 284.05 523.27 284.04 523.27 284.03 523.28 284.02 523.28 284.01 523.28 284 523.29 283.98 523.29 283.97 523.3 283.96 523.31 283.95 523.31 283.93 523.32 283.92 523.33 283.9 523.36 283.85 523.37 283.85 523.37 283.82 523.38 283.79 523.39 283.78 523.4 283.77 523.42 283.75 523.44 283.73 523.47 283.71 523.49 283.69 523.5 283.69 523.55 283.65 523.61 283.55 523.61 283.55 523.62 283.53 523.63 283.53 523.64 283.52 523.66 283.5 523.66 283.49 523.67 283.49 523.68 283.48 523.68 283.47 523.69 283.46 523.7 283.45 523.7 283.45 523.71 283.43 523.72 283.42 523.73 283.41 523.74 283.4 523.75 283.4 523.75 283.39 523.76 283.38 523.77 283.38 523.78 283.37 523.79 283.36 523.8 283.36 523.81 283.35 523.82 283.35 523.83 283.35 523.84 283.34 523.85 283.34 523.85 283.34 523.86 283.33 523.87 283.33 523.89 283.32 523.9 283.32 523.91 283.31 523.91 283.31 523.93 283.3 523.94 283.3 523.96 283.29 523.97 283.29 523.98 283.29 524 283.29 524.01 283.29 524.02 283.29 524.04 283.28 524.06 283.28 524.06 283.28 524.07 283.28 524.08 283.28 524.09 283.28 524.12 283.28 524.14 283.28 524.15 283.28 524.17 283.28 524.19 283.28 524.21 283.28 524.22 283.28 524.24 283.28 524.25 283.27 524.26 283.27 524.26 283.27 524.27 283.27 524.29 283.26 524.29 283.25 524.3 283.25 524.31 283.25 524.32 283.24 524.33 283.23 524.35 283.22 524.37 283.21 524.38 283.21 524.4 283.2 524.41 283.19 524.43 283.19 524.44 283.18 524.45 283.17 524.46 283.17 524.47 283.17 524.48 283.16 524.49 283.16 524.5 283.16 524.51 283.15 524.51 283.15 524.52 283.15 524.54 283.14 524.55 283.13 524.56 283.12 524.61 283.1 524.67 283.07 524.71 283.03 524.79 282.95 524.86 282.87 524.89 282.84 524.91 282.82 524.46 282.17 524.54 282.11 524.54 282.1 524.68 281.76 525.02 281.12 525.03 281.11 525.03 281.09 524.89 280.78 524.82 280.58 524.78 280.49 524.72 280.41 524.71 280.4 524.79 280.39 525.05 280.49 525.26 280.58 525.33 280.6 525.64 280.75 525.67 280.76 525.71 280.76 525.75 280.78 525.8 280.79 525.87 280.81 525.97 280.83 526.04 280.85 526.06 280.86 526.12 280.86 526.13 280.86 526.2 280.87 526.31 280.9 526.4 280.92 Z"/>
</g></svg>