<svg xmlns="http://www.w3.org/2000/svg" version="1.2" baseProfile="tiny" stroke-linecap="round" stroke-linejoin="round" viewBox="344.52 390.75 8.92 17.48"><g xmlns="http://www.w3.org/2000/svg" id="Busto">
<path d="M 352.78 394.4 352.8 394.45 352.85 394.54 352.9 394.62 352.93 394.68 352.95 394.72 353.01 394.85 353.05 394.87 353.18 394.93 353.31 395 353.39 395.04 353.43 395.06 353.38 395.08 353.33 395.1 353.31 395.11 353.28 395.12 353.25 395.13 353.21 395.14 353.16 395.15 353.1 395.15 353.04 395.15 352.98 395.15 352.9 395.15 352.85 395.14 352.77 395.13 352.69 395.12 352.63 395.11 352.62 395.1 352.59 395.1 352.5 395.08 352.47 395.07 352.46 395.07 352.39 395.06 352.29 395.04 352.09 395 352.08 395.04 352.07 395.08 352.06 395.17 352.06 395.27 352.06 395.29 352.05 395.4 352.06 395.49 352.06 395.5 352.07 395.52 352.08 395.53 352.09 395.58 352.11 395.67 352.13 395.73 352.13 395.74 352.16 395.87 352.17 395.9 352.2 395.98 352.22 396.03 352.19 396.06 352.09 396.14 351.99 396.22 351.9 396.29 351.89 396.3 351.86 396.32 351.85 396.33 351.85 396.34 351.84 396.36 351.83 396.4 351.81 396.45 351.8 396.5 351.8 396.55 351.79 396.58 351.78 396.63 351.77 396.67 351.77 396.69 351.77 396.7 351.77 396.73 351.78 396.74 351.78 396.75 351.81 396.78 351.86 396.84 351.91 396.9 351.97 396.97 352.01 397.02 352.04 397.05 352.08 397.08 352.16 397.14 352.43 397.34 352.52 397.41 352.68 397.52 352.74 397.57 352.61 397.63 352.59 397.64 352.49 397.7 352.46 397.71 352.33 397.78 352.18 397.85 352.14 397.87 352 397.95 351.87 398.47 352.17 398.83 352.17 398.84 352.2 398.9 352.24 398.96 352.29 399.02 352.37 399.11 352.39 399.14 352.39 399.15 352.4 399.16 352.42 399.2 352.58 399.42 352.6 399.46 352.6 399.5 352.59 399.53 352.58 399.64 352.58 399.7 352.58 399.74 352.56 399.95 352.55 399.97 352.51 399.99 352.47 400.01 352.42 400.04 352.39 400.06 352.36 400.08 352.31 400.11 352.29 400.12 352.26 400.15 352.22 400.19 352.17 400.23 352.13 400.27 352.1 400.31 352.05 400.36 351.97 400.45 351.94 400.5 351.89 400.57 351.85 400.65 351.81 400.71 351.77 400.79 351.74 400.87 351.71 400.95 351.68 401.02 351.69 401.11 351.69 401.21 351.7 401.23 351.7 401.32 351.71 401.38 351.72 401.49 351.73 401.58 351.74 401.68 351.75 401.77 351.76 401.87 351.77 401.92 351.77 401.97 351.79 402.05 351.79 402.1 351.81 402.16 351.82 402.22 351.83 402.27 351.84 402.3 351.84 402.35 351.85 402.43 351.86 402.52 351.87 402.61 351.88 402.68 351.89 402.75 351.89 402.77 351.91 402.86 351.92 402.92 351.94 402.98 351.95 403.02 351.95 403.04 351.98 403.12 352 403.2 352.03 403.29 352.05 403.38 352.06 403.4 352.06 403.42 352.08 403.47 352.09 403.48 352.1 403.53 352.13 403.59 352.14 403.62 352.15 403.66 352.15 403.68 352.16 403.71 352.17 403.75 352.17 403.78 352.17 403.82 352.17 403.88 352.17 403.93 352.17 403.97 352.17 404.02 352.17 404.06 352.17 404.1 352.17 404.19 352.17 404.22 352.17 404.22 352.16 404.26 352.15 404.29 352.15 404.32 352.15 404.34 352.15 404.38 352.16 404.42 352.17 404.47 352.17 404.5 352.18 404.52 352.18 404.57 352.14 404.74 352.07 404.97 352.03 405.14 352.02 405.17 351.99 405.29 351.97 405.35 351.97 405.37 351.94 405.54 351.93 405.55 351.92 405.63 351.91 405.7 351.9 405.89 351.9 406.15 351.89 406.25 351.87 406.35 351.87 406.36 351.82 406.57 351.82 406.6 351.78 406.8 351.73 407.03 351.71 407.13 351.68 407.25 351.67 407.31 351.44 407.88 351.37 408.05 351.32 408.18 351.31 408.21 351.3 408.21 351.24 408.17 351.23 408.13 351.22 408.12 351.21 408.11 351.07 407.83 350.8 407.3 350.79 407.28 350.68 407.08 350.31 406.36 350.3 406.34 350.11 406.02 350.1 405.99 350.05 405.91 350.03 405.87 350.02 405.85 349.99 405.8 349.96 405.76 349.92 405.71 349.91 405.7 349.88 405.67 349.8 405.6 349.79 405.59 349.71 405.53 349.68 405.5 349.48 405.34 349.3 405.19 349.25 405.14 349.25 405.13 349.2 405.08 349.18 405.07 349.08 404.95 349.02 404.89 348.88 404.77 348.8 404.7 348.66 404.51 348.63 404.48 348.4 404.17 348.33 404.08 348.31 404.07 347.62 403.67 347.6 403.65 347.56 403.63 347.01 403.31 346.68 403.12 346.36 402.94 346.33 402.92 345.89 402.67 345.86 402.64 345.85 402.63 345.85 402.62 345.84 402.62 345.76 402.54 345.49 402.28 345.4 402.18 345.08 401.81 344.98 401.7 344.92 401.63 344.91 401.61 344.88 401.58 344.76 401.44 344.73 401.41 344.66 401.33 344.65 401.31 344.61 401.27 344.61 401.26 344.54 401.18 344.56 401.11 344.58 401 344.61 400.88 344.68 400.56 344.69 400.48 344.7 400.47 344.72 400.43 344.76 400.39 344.85 400.27 344.86 400.26 344.87 400.25 344.89 400.22 345.05 400.02 345.05 400.01 345.15 399.89 345.21 399.81 345.21 399.78 345.22 399.77 345.22 399.75 345.23 399.74 345.23 399.71 345.26 399.6 345.35 399.26 345.36 399.22 345.37 399.19 345.37 399.19 345.48 398.85 345.48 398.83 345.49 398.81 345.51 398.74 345.53 398.67 345.54 398.66 345.54 398.65 345.54 398.64 345.59 398.52 345.66 398.32 345.67 398.29 345.68 398.28 345.81 397.91 345.82 397.88 345.81 397.84 345.81 397.84 345.8 397.81 345.73 397.5 345.73 397.48 345.73 397.47 345.69 397.29 345.68 397.28 345.65 397.13 345.65 397.12 345.65 397.11 345.61 396.93 345.6 396.92 345.6 396.91 345.59 396.83 345.58 396.83 345.58 396.79 345.58 396.78 345.52 396.39 345.52 396.38 345.51 396.36 345.51 396.35 345.48 396.14 345.48 396.12 345.48 396.1 345.48 396.09 345.47 396.08 345.47 396.04 345.46 396.01 345.45 395.98 345.39 395.76 345.39 395.74 345.33 395.53 345.33 395.51 345.26 395.25 345.24 395.2 345.21 395.08 345.21 395.06 345.2 395 345.19 394.78 345.19 394.77 345.17 394.44 345.17 394.44 345.17 394.43 345.17 394.42 345.16 394.19 345.16 394.17 345.17 394.15 345.18 394.14 345.18 394.14 345.3 394.04 345.3 394.04 345.31 394.02 345.49 393.87 345.52 393.85 345.52 393.85 345.53 393.84 345.64 393.74 345.65 393.73 345.74 393.63 345.75 393.62 345.88 393.47 345.9 393.46 345.91 393.45 346.01 393.38 346.16 393.29 346.19 393.28 346.22 393.26 346.44 393.15 346.45 393.14 346.46 393.14 346.47 393.13 346.57 393.08 346.63 393.03 346.64 393.02 346.69 392.99 346.7 392.98 346.74 392.95 346.75 392.94 346.97 392.77 347.07 392.68 347.08 392.67 347.18 392.57 347.19 392.57 347.31 392.45 347.48 392.29 347.67 392.1 347.67 392.09 347.7 392.06 347.83 391.93 347.88 391.88 348.02 391.75 348.26 391.53 348.26 391.52 348.27 391.52 348.28 391.51 348.42 391.43 348.44 391.42 348.45 391.42 348.46 391.41 348.48 391.4 348.49 391.39 348.52 391.38 348.54 391.37 349.22 391.2 349.23 391.19 349.66 391.04 349.74 391.01 349.79 390.99 349.8 390.99 350.02 390.9 350.05 390.9 350.13 390.87 350.14 390.86 350.39 390.77 350.84 390.86 350.86 390.86 350.87 390.86 350.92 390.86 350.97 390.86 351.03 390.88 351.07 390.89 351.09 390.91 351.1 390.91 351.5 391.11 351.52 391.12 351.53 391.12 351.54 391.13 351.91 391.47 351.99 391.54 352 391.54 352.31 391.82 352.42 391.92 352.45 391.95 352.51 392 352.55 392.03 352.8 392.26 352.83 392.29 352.84 392.3 352.89 392.38 352.93 392.45 352.93 392.5 352.96 392.75 353.05 392.99 353.06 393.01 353.07 393.03 353.15 393.24 353.15 393.27 353.12 393.59 353.09 393.86 352.97 394.08 352.96 394.09 352.95 394.11 352.91 394.18 352.78 394.4 Z"/>
</g></svg>