<svg xmlns="http://www.w3.org/2000/svg" version="1.2" baseProfile="tiny" stroke-linecap="round" stroke-linejoin="round" viewBox="641.8 131.68 9.18 17.65"><g xmlns="http://www.w3.org/2000/svg" id="Bustintze-Iriberri">
<path d="M 650.66 135.55 650.95 135.94 650.93 136.06 650.82 136.26 650.78 136.34 650.79 136.36 650.81 136.4 650.83 136.43 650.84 136.47 650.85 136.5 650.86 136.53 650.87 136.57 650.87 136.61 650.87 136.64 650.87 136.68 650.87 136.72 650.85 136.83 650.83 136.93 650.8 137 650.78 137.08 650.77 137.11 650.74 137.17 650.73 137.24 650.72 137.29 650.7 137.35 650.69 137.4 650.68 137.45 650.67 137.51 650.67 137.54 650.66 137.61 650.66 137.66 650.65 137.8 650.65 137.88 650.65 137.94 650.66 137.96 650.66 138 650.67 138.03 650.68 138.05 650.69 138.07 650.7 138.09 650.7 138.1 650.69 138.12 650.68 138.14 650.67 138.17 650.67 138.19 650.66 138.21 650.66 138.23 650.66 138.25 650.69 138.24 650.73 138.23 650.66 138.37 650.49 138.51 650.41 138.59 650.33 138.67 650.62 139.02 650.76 139.26 650.8 139.5 650.74 139.75 650.83 139.8 650.87 140.06 650.82 140.11 650.41 140.28 650.27 140.31 650.08 140.19 650.06 140.2 650.02 140.22 649.97 140.25 649.92 140.27 649.83 140.32 649.79 140.34 649.87 140.47 649.94 140.65 650.1 140.95 650.2 141.16 650.07 141.24 649.97 140.98 649.82 141.05 649.74 141.4 649.68 141.52 649.76 141.91 649.63 142.05 649.55 142.25 649.27 142.29 649.22 142.34 649.2 142.5 649.22 142.57 649.29 142.55 649.48 142.56 649.58 143.04 649.37 143.34 649.38 143.41 649.56 143.52 649.78 143.7 649.92 143.88 649.97 144.16 650.02 144.34 650.2 144.53 650.3 144.7 650.27 144.78 650.12 145.05 650.03 145.04 650.13 145.66 650.02 145.73 649.92 145.88 649.73 145.69 649.47 145.71 649.45 145.69 649.32 145.33 649.29 145.33 649.14 145.43 648.99 145.4 649.03 145.61 648.87 145.96 648.88 146.27 648.86 146.57 648.75 146.81 648.34 147.27 648.31 147.24 647.98 147.14 647.85 147.03 647.81 146.87 647.71 146.66 647.58 146.62 647.14 146.65 647.11 146.67 647.05 146.88 646.95 147 646.55 147.13 646.52 147.13 646.5 147.13 646.47 147.14 646.45 147.14 646.41 147.15 646.38 147.18 646.36 147.19 646.34 147.21 646.33 147.23 646.31 147.25 646.26 147.3 646.22 147.31 646.17 147.35 646.13 147.37 646.09 147.39 645.95 147.49 645.9 147.51 645.89 147.5 645.61 147.69 645.59 148.16 645.84 148.61 645.88 148.69 645.75 148.72 645.69 148.73 645.61 148.77 645.45 148.84 645.35 148.9 645.3 148.99 645.21 149.15 645.08 149.33 644.94 149.26 645.17 148.78 644.92 148.42 644.81 147.45 645.39 147.12 645.36 147.08 645.32 147.05 645.3 147.02 645.29 146.98 645.26 146.99 645.23 146.98 645.19 146.96 645.18 146.95 645.16 146.92 645.15 146.89 645.16 146.87 645.17 146.86 645.18 146.84 645.19 146.82 645.18 146.8 645.17 146.76 645.15 146.72 645.13 146.68 645.12 146.65 645.1 146.63 645.09 146.57 645.09 146.54 645.07 146.52 645.06 146.49 645.04 146.47 645.03 146.46 645 146.43 645 146.41 645.01 146.39 645.02 146.34 645.01 146.32 644.99 146.28 644.98 146.25 644.96 146.21 644.95 146.19 644.93 146.17 644.93 146.16 644.93 146.14 644.93 146.11 644.92 146.06 644.93 146.03 644.93 146 644.92 145.96 644.91 145.93 644.88 145.88 644.82 145.79 644.76 145.73 644.73 145.69 644.71 145.63 644.68 145.6 644.65 145.54 644.97 145.14 644.91 145.03 644.73 145.06 644.62 145.16 644.46 145.2 644.3 145.22 644.21 145.25 644.16 145.26 644.11 145.26 644.06 145.26 643.87 145.33 643.74 145.38 643.58 145.44 643.48 145.5 643.46 145.54 643.39 145.62 643.25 145.42 643.02 145.46 642.98 145.41 642.95 145.23 642.98 144.84 642.99 144.66 642.97 144.64 642.96 144.62 642.95 144.57 642.93 144.47 642.91 144.4 642.74 144.38 642.62 144.14 642.49 143.63 642.54 143.46 642.22 143.24 642.02 143.13 642 143.11 642.12 143.05 642.42 143.03 642.42 143.01 642.38 142.96 642.19 142.68 642.15 142.54 642.59 142.42 642.59 142.37 642.37 142.19 642.3 142.18 642.25 142.23 642.2 142.25 642.07 142.19 641.96 142.1 641.83 142.02 641.83 141.98 641.84 141.89 641.86 141.68 641.9 141.55 642.06 141.47 642.32 141.53 642.39 141.63 642.24 141.83 642.16 141.97 642.34 142 642.67 141.63 643.08 141.48 643.29 140.65 643.18 140.29 643.19 140.22 643.26 140.15 643.36 140.14 643.47 140.26 643.56 140.41 643.91 140.39 643.96 140.45 644.15 140.76 644.14 140.71 644.15 140.65 644.16 140.6 644.17 140.56 644.19 140.49 644.24 140.41 644.29 140.34 644.36 140.24 644.44 140.14 644.53 140.05 644.68 139.94 644.86 139.8 645.01 139.7 645.14 139.61 645.28 139.52 645.4 139.47 645.52 139.4 645.57 139.38 645.62 139.38 645.64 139.39 645.67 139.39 645.7 139.39 645.73 139.39 645.77 139.39 645.82 139.41 645.85 139.43 645.9 139.46 645.96 139.49 646.04 139.5 646.3 139.07 646.27 138.7 646.38 138.58 646.51 138.91 646.91 139.02 646.91 138.77 647.17 138.73 647.2 138.49 646.48 138.06 646.68 137.65 646.8 137.43 646.83 137.32 646.86 137.27 646.87 137.24 646.87 137.2 646.86 137.13 646.86 137.08 646.87 137.01 646.87 136.95 646.87 136.94 646.96 136.9 646.98 136.85 647 136.83 647.01 136.81 647.01 136.8 647.02 136.78 647.02 136.77 647.02 136.75 647.02 136.72 647.01 136.7 647.01 136.7 647.02 136.68 647.03 136.66 647.05 136.64 647.07 136.62 646.84 136.5 646.85 136.46 646.84 136.42 646.74 136.14 646.79 136.05 647.32 135.61 647.4 135.39 647.59 135.03 647.64 134.99 647.76 135.02 647.89 135.15 647.95 135.13 647.91 134.94 647.85 134.78 647.96 134.57 648.08 134.47 648.08 134.44 647.95 134.37 647.72 134.35 647.63 134.3 647.64 134.2 647.82 133.76 647.97 133.81 648.22 133.93 648.28 133.74 648.24 133.45 648.29 133.11 648.06 132.99 648.02 133.11 647.74 133.05 647.64 132.89 647.29 132.75 647.42 132.6 647.5 132.58 647.52 132.57 647.51 132.55 647.79 132.66 647.86 132.74 647.92 132.84 648.07 132.92 648.12 132.92 648.19 132.63 648.05 132.34 648.05 132.31 648.22 132.31 648.35 132.36 648.58 132.36 648.61 132.32 648.55 132.22 648.45 132.09 648.47 132.03 648.75 131.7 648.8 131.71 648.9 131.87 649.1 132.06 649.3 132.16 649.45 132.31 649.75 132.19 649.78 132.48 649.65 132.68 649.76 133 649.74 133.23 649.69 133.31 649.44 133.41 649.03 134.3 649.03 134.32 649.02 134.36 649.02 134.39 649.01 134.42 649.01 134.47 649 134.5 649 134.52 649.01 134.54 649.04 134.56 649.05 134.59 649.06 134.62 649.06 134.64 649.06 134.68 649.06 134.7 649.06 134.72 649.07 134.76 649.08 134.78 649.09 134.8 649.11 134.83 649.12 134.86 649.12 134.9 649.01 134.95 649.42 135.33 649.52 135.47 649.66 135.39 649.81 135.66 649.96 135.37 650.37 135.29 650.46 135.62 650.56 135.63 650.65 135.55 650.66 135.55 Z"/>
</g></svg>