<svg xmlns="http://www.w3.org/2000/svg" version="1.2" baseProfile="tiny" stroke-linecap="round" stroke-linejoin="round" viewBox="546.47 574.2 24.33 29.42"><g xmlns="http://www.w3.org/2000/svg" id="Cabanillas">
<path d="M 558.89 574.39 558.89 574.43 558.91 574.45 558.93 574.48 558.95 574.49 558.99 574.5 558.99 574.52 558.98 574.57 558.95 574.61 558.93 574.67 558.91 574.73 558.92 574.78 558.92 574.81 558.94 574.85 558.94 574.86 559 574.93 559.03 574.95 559.07 574.98 559.1 574.99 559.11 574.99 559.14 574.99 559.16 574.99 559.17 574.99 559.21 574.98 559.23 574.97 559.25 574.97 559.26 574.97 559.34 574.96 559.44 574.95 559.51 574.93 559.54 574.93 559.73 574.89 559.85 574.87 559.88 574.86 559.95 574.85 559.99 574.84 560.05 574.82 560.08 574.82 560.11 574.81 560.14 574.8 560.17 574.79 560.25 574.76 560.33 574.75 560.43 574.75 560.52 574.74 560.59 574.73 560.65 574.74 560.69 574.74 560.71 574.75 560.73 574.75 560.81 574.76 560.88 574.78 560.92 574.79 560.95 574.79 560.97 574.8 561.06 574.83 561.09 574.84 561.15 574.86 561.23 574.88 561.3 574.89 561.31 574.89 561.4 574.91 561.47 574.92 561.48 574.92 561.49 574.92 561.59 574.94 561.71 574.95 561.84 574.97 561.88 574.97 561.91 574.97 562 574.96 562.04 574.94 562.06 574.93 562.07 574.93 562.12 574.9 562.14 574.89 562.14 574.88 562.16 574.87 562.17 574.86 562.19 574.86 562.2 574.85 562.23 574.84 562.29 574.82 562.36 574.8 562.44 574.77 562.49 574.75 562.55 574.74 562.57 574.74 562.6 574.74 562.62 574.74 562.63 574.74 562.66 574.74 562.69 574.74 562.7 574.74 562.75 574.75 562.77 574.75 562.83 574.76 562.95 574.76 563.02 574.77 563.07 574.78 563.09 574.78 563.12 574.78 563.17 574.77 563.25 574.74 563.36 574.68 563.44 574.64 563.52 574.61 563.6 574.58 563.68 574.54 563.74 574.52 563.8 574.51 563.87 574.48 563.96 574.47 564.05 574.46 564.15 574.42 564.22 574.39 564.32 574.35 564.59 574.25 564.7 574.22 564.76 574.2 564.81 574.21 564.87 574.25 564.94 574.31 565.01 574.39 565.12 574.54 565.18 574.6 565.19 574.62 565.24 574.67 565.27 574.71 565.3 574.75 565.34 574.8 565.35 574.85 565.35 574.86 565.35 574.91 565.36 574.99 565.37 575.13 565.39 575.38 565.39 575.44 565.39 575.46 565.4 575.56 565.42 575.68 565.42 575.8 565.42 575.91 565.42 575.99 565.42 576.04 565.42 576.06 565.41 576.16 565.41 576.25 565.39 576.34 565.39 576.42 565.38 576.49 565.38 576.53 565.38 576.59 565.41 576.63 565.42 576.66 565.47 576.7 565.54 576.75 565.58 576.76 565.63 576.76 565.67 576.78 565.74 576.8 565.81 576.82 565.83 576.83 565.87 576.84 565.89 576.84 565.91 576.84 565.94 576.84 565.98 576.85 565.99 576.85 566.05 576.9 566.12 576.96 566.13 576.97 566.15 577 566.16 577.02 566.18 577.08 566.2 577.18 566.23 577.28 566.24 577.4 566.23 577.53 566.25 577.59 566.27 577.65 566.31 577.7 566.37 577.78 566.41 577.83 566.43 577.84 566.46 577.85 566.48 577.89 566.49 577.9 566.53 577.94 566.6 577.98 566.73 578 566.86 578.01 566.97 578 567.03 577.98 567.11 577.96 567.18 577.93 567.2 577.91 567.27 577.87 567.34 577.81 567.4 577.77 567.46 577.75 567.48 577.75 567.49 577.76 567.49 577.79 567.44 577.94 567.44 577.99 567.42 578.06 567.41 578.16 567.41 578.25 567.45 578.34 567.47 578.54 567.5 578.64 567.55 578.71 567.62 578.77 567.69 578.81 567.83 578.88 568.06 579.02 568.12 579.05 568.19 579.08 568.24 579.11 568.3 579.15 568.33 579.16 568.33 579.16 568.39 579.2 568.49 579.25 568.62 579.32 568.67 579.33 568.69 579.33 568.72 579.32 568.79 579.29 568.86 579.25 568.95 579.2 569.03 579.13 569.04 579.13 569.1 579.12 569.12 579.11 569.14 579.1 569.15 579.1 569.21 579.07 569.25 579.05 569.26 579.05 569.28 579.04 569.35 579.02 569.35 579.02 569.38 579.02 569.4 579.02 569.5 579.03 569.59 579.06 569.71 579.12 569.82 579.2 570.03 579.33 570.22 579.45 570.32 579.5 570.26 579.73 570.23 579.84 570.23 579.86 570.22 579.89 570.23 579.93 570.24 579.95 570.25 579.96 570.28 579.97 570.31 579.97 570.35 579.96 570.41 579.92 570.47 579.89 570.53 579.86 570.54 579.86 570.55 579.85 570.59 579.84 570.62 579.83 570.72 579.76 570.79 579.74 570.78 579.75 570.75 579.84 570.74 579.85 570.74 579.86 570.67 580.02 570.63 580.11 570.63 580.12 570.62 580.14 570.58 580.24 570.58 580.25 570.57 580.26 570.55 580.32 570.5 580.43 570.42 580.66 570.33 580.91 570.25 581.13 570.21 581.23 570.1 581.47 570.08 581.55 570.07 581.57 570.07 581.59 570.05 581.64 570.04 581.65 569.98 581.8 569.98 581.82 569.91 582 569.9 582.02 569.82 582.25 569.82 582.26 569.81 582.28 569.77 582.39 569.72 582.52 569.71 582.54 569.7 582.55 569.7 582.57 569.68 582.63 569.67 582.66 569.65 582.7 569.65 582.72 569.63 582.77 569.62 582.78 569.62 582.79 569.59 582.87 569.57 582.93 569.53 583.04 569.48 583.17 569.39 583.43 569.36 583.5 569.28 583.72 569.27 583.76 569.19 583.96 569.18 583.98 569.15 584.07 569.14 584.1 569.13 584.12 569.07 584.28 568.99 584.48 568.98 584.49 568.87 584.79 568.82 584.91 568.71 585.2 568.66 585.33 568.58 585.54 568.54 585.63 568.42 585.94 568.41 585.99 568.4 586 568.39 586.04 568.22 586.46 568.19 586.53 568.15 586.63 568.06 586.89 568.05 586.91 567.98 587.11 567.96 587.15 567.94 587.2 567.72 587.8 567.61 588.08 567.45 588.47 567.4 588.6 567.36 588.7 567.1 589.33 567.07 589.4 567.03 589.54 566.97 589.69 566.95 589.73 566.6 590.62 566.54 590.78 566.47 590.96 566.36 591.23 566.34 591.27 566.28 591.43 566.27 591.47 566.19 591.66 566.19 591.67 566.18 591.69 566.17 591.71 566.17 591.72 566.1 591.91 566.06 592.01 566.04 592.05 566.02 592.09 565.98 592.19 565.97 592.22 565.97 592.23 565.91 592.38 565.89 592.44 565.86 592.52 565.77 592.74 565.73 592.87 565.71 592.9 565.67 593 565.66 593.05 565.65 593.06 565.55 593.31 565.54 593.33 565.48 593.48 565.47 593.52 565.42 593.64 565.32 593.89 565.28 594 565.28 594.01 565.26 594.05 565.26 594.06 565.16 594.31 565.15 594.32 565.06 594.57 565 594.72 564.98 594.78 564.86 595.09 564.85 595.12 564.83 595.15 564.66 595.61 564.61 595.75 564.58 595.82 564.55 595.88 564.61 595.88 564.67 595.9 564.73 595.92 564.82 595.94 564.89 595.96 564.98 595.99 565.06 596.01 565.12 596.03 565.19 596.05 565.23 596.07 565.26 596.09 565.31 596.11 565.38 596.14 565.43 596.17 565.47 596.19 565.52 596.21 565.57 596.24 565.64 596.29 565.71 596.32 565.78 596.36 565.84 596.39 565.91 596.43 565.95 596.45 566.01 596.48 566.07 596.5 566.11 596.5 566.16 596.51 566.23 596.51 566.28 596.52 566.3 596.53 566.34 596.54 566.36 596.56 566.39 596.58 566.4 596.6 566.41 596.63 566.43 596.67 566.42 596.69 566.41 596.72 566.44 596.78 566.48 596.86 566.51 596.91 566.57 597 566.59 597.03 566.61 597.05 566.63 597.07 566.6 597.1 566.56 597.14 566.5 597.24 566.46 597.29 566.42 597.36 566.29 597.32 566.02 597.23 565.83 597.15 565.79 597.13 565.75 597.13 565.7 597.13 565.65 597.13 565.57 597.13 565.5 597.14 565.42 597.16 565.31 597.17 565.2 597.19 565.09 597.21 564.99 597.23 564.91 597.26 564.85 597.28 564.78 597.29 564.71 597.31 564.64 597.32 564.57 597.33 564.5 597.33 564.42 597.33 564.35 597.32 564.27 597.3 564.2 597.28 564.12 597.27 564.02 597.25 563.93 597.22 563.86 597.19 563.78 597.16 563.78 597.17 563.77 597.19 563.77 597.2 563.72 597.31 563.71 597.32 563.76 597.36 563.81 597.41 563.88 597.48 563.91 597.52 563.96 597.6 563.98 597.63 564 597.65 564.01 597.68 564.02 597.72 564.05 597.77 564.1 597.82 564.15 597.87 564.19 597.9 564.28 597.94 564.38 597.98 564.46 598.01 564.58 598.06 564.69 598.09 564.79 598.12 564.86 598.15 564.91 598.18 564.97 598.22 565.05 598.27 565.11 598.31 565.15 598.33 565.18 598.35 565.16 598.37 565.11 598.44 565.05 598.53 564.99 598.61 564.95 598.58 564.92 598.55 564.9 598.53 564.88 598.51 564.85 598.48 564.81 598.46 564.78 598.44 564.77 598.43 564.76 598.41 564.75 598.41 564.74 598.4 564.73 598.39 564.71 598.38 564.69 598.36 564.62 598.32 564.43 598.24 564.24 598.17 563.87 598.04 563.87 598.05 563.87 598.06 563.86 598.1 563.84 598.15 563.8 598.24 563.75 598.36 563.7 598.46 563.69 598.45 563.68 598.47 563.68 598.48 563.66 598.51 563.65 598.54 563.61 598.56 563.6 598.57 563.57 598.59 563.54 598.61 563.49 598.65 563.41 598.7 563.36 598.73 563.33 598.76 563.31 598.76 563.3 598.78 563.28 598.8 563.27 598.81 563.27 598.85 563.28 598.86 563.29 598.88 563.31 598.93 563.33 599.02 563.34 599.04 563.34 599.05 563.35 599.07 563.35 599.1 563.37 599.16 563.39 599.26 563.41 599.33 563.41 599.36 563.42 599.42 563.43 599.46 563.43 599.47 563.43 599.5 563.39 599.55 563.38 599.56 563.37 599.57 563.35 599.58 563.33 599.62 563.33 599.63 563.32 599.64 563.31 599.66 563.29 599.67 563.28 599.68 563.28 599.69 563.23 599.72 563.2 599.74 563.19 599.75 563.16 599.78 563.16 599.78 563.12 599.81 563.11 599.81 563.02 599.88 562.99 599.9 562.99 599.91 562.94 599.94 562.92 599.95 562.89 599.97 562.86 599.99 562.84 599.99 562.82 600 562.77 599.99 562.73 599.99 562.69 599.98 562.67 599.98 562.54 599.99 562.53 599.99 562.45 599.99 562.42 600 562.38 600 562.33 600.01 562.26 600.01 562.25 600.01 562.21 600.02 562.18 600.02 562.11 600.02 562.09 600.02 562.04 600.01 562.01 600.01 561.99 600.01 561.98 600 561.94 600.03 561.91 600.08 561.87 600.11 561.86 600.13 561.86 600.14 561.85 600.17 561.84 600.21 561.84 600.24 561.85 600.28 561.85 600.32 561.85 600.36 561.84 600.4 561.84 600.41 561.82 600.43 561.81 600.46 561.81 600.47 561.81 600.5 561.78 600.61 561.73 600.59 561.72 600.63 561.72 600.67 561.72 600.68 561.72 600.71 561.71 600.77 561.71 600.86 561.69 600.91 561.67 600.97 561.66 600.98 561.66 600.99 561.63 601.04 561.62 601.05 561.6 601.08 561.54 601.13 561.48 601.17 561.4 601.08 561.28 600.94 561.16 600.76 561.01 600.56 560.88 600.37 560.6 599.97 560.54 599.88 560.49 599.98 560.42 600.15 560.37 600.24 560.34 600.31 560.29 600.41 560.26 600.55 560.2 600.78 560.14 601.04 560.09 601.22 560.06 601.3 559.82 600.9 559.81 600.89 559.37 600.18 559.08 599.7 558.69 599.1 558.44 598.72 558.15 598.27 558.14 598.26 558.13 598.24 558.08 598.16 557.78 597.71 557.68 597.53 557.57 597.36 557.46 597.38 557.35 597.41 557.16 597.5 557.04 597.57 556.95 597.64 556.85 597.72 556.72 597.78 556.62 597.83 556.29 597.95 556.25 598 554.09 598.49 553.69 598.59 553.63 598.27 553.58 597.97 553.52 597.85 553.49 597.83 553.45 597.79 553.13 597.84 552.87 597.87 552.58 597.91 552.35 597.95 552.3 597.94 552.27 597.93 552.18 597.92 552.11 597.93 552.02 597.93 551.93 597.91 551.79 597.86 551.65 597.8 551.33 597.7 551.25 597.67 550.92 597.56 550.57 597.59 550.54 597.59 550.53 597.6 550.52 597.6 550.43 597.62 550 597.74 549.79 597.77 549.58 597.8 549.39 597.83 549.18 597.85 548.97 597.89 548.8 597.85 548.71 597.83 548.61 597.8 548.43 597.75 548.32 597.71 548.21 597.67 548.14 597.63 547.89 597.5 547.72 597.35 547.52 597.15 547.42 597 547.4 596.73 547.42 596.67 547.44 596.6 547.46 596.54 547.48 596.5 547.57 596.32 547.72 596.01 547.84 595.89 547.9 595.82 547.94 595.79 548.05 595.67 548.26 595.55 548.42 595.45 548.78 595.09 548.83 595 549.14 594.03 549.15 594 549.16 593.89 549.19 593.73 549.21 593.59 549.24 593.44 549.27 593.28 549.32 593.05 549.38 592.83 549.46 592.51 549.52 592.26 549.57 592.04 549.64 591.87 549.74 591.65 549.83 591.42 549.9 591.22 549.97 590.99 550.05 590.76 550.1 590.58 550.17 590.33 550.22 590.12 550.25 589.92 550.27 589.77 550.27 589.7 550.26 589.51 550.24 589.32 550.22 589.15 550.18 588.99 550.13 588.8 550.08 588.65 550.02 588.5 549.97 588.34 549.91 588.17 549.84 588.02 549.75 587.83 549.66 587.68 549.56 587.52 549.44 587.33 549.32 587.18 549.19 587.01 549.08 586.88 549 586.78 548.86 586.64 548.73 586.52 548.59 586.4 548.45 586.29 548.32 586.18 548.05 585.98 547.84 585.84 547.77 585.79 547.64 585.68 547.49 585.54 547.34 585.43 547.26 585.37 547.03 585.12 546.93 585.03 546.67 584.78 546.48 584.61 546.51 584.57 546.52 584.56 546.54 584.51 546.55 584.5 546.57 584.48 546.59 584.44 546.61 584.42 546.61 584.4 546.62 584.39 546.63 584.39 546.71 584.27 546.71 584.26 546.72 584.25 546.75 584.21 546.76 584.2 546.91 583.94 546.88 583.74 546.59 583.33 546.49 582.91 546.52 582.89 546.54 582.89 546.55 582.88 546.65 582.85 546.67 582.84 546.98 582.74 547.05 582.73 547.08 582.46 547.1 582.34 547.1 582.31 547.12 582.15 547.12 582.14 547.13 582.1 547.14 581.99 547.21 581.9 547.32 581.76 547.35 581.76 547.58 581.88 548.11 581.8 548.15 581.8 548.22 581.79 548.24 581.77 548.26 581.67 548.27 581.62 548.27 581.57 548.28 581.55 548.28 581.54 548.28 581.52 548.3 581.43 548.32 581.32 548.34 581.21 548.36 581.13 548.36 581.04 548.37 580.97 548.37 580.91 548.37 580.88 548.38 580.71 548.39 580.59 548.38 580.47 548.37 580.31 548.36 580.25 548.35 580.09 548.48 580.01 548.57 579.94 548.69 579.82 548.79 579.73 548.85 579.65 548.91 579.57 548.98 579.48 549.06 579.37 549.12 579.3 549.26 579.14 549.27 579.12 549.38 579 549.47 578.8 549.52 578.71 549.52 578.64 549.52 578.44 549.68 578.35 549.75 578.31 549.95 578.21 549.98 578.18 550.1 578.13 550.13 578.12 550.15 578.12 550.32 578.15 550.34 578.16 550.35 578.16 550.38 578.18 550.46 578.25 550.57 578.33 550.64 578.38 550.71 578.41 550.74 578.43 550.75 578.45 550.77 578.47 550.8 578.52 550.84 578.6 550.87 578.65 550.89 578.68 550.9 578.7 550.92 578.71 550.96 578.73 551.06 578.71 551.08 578.7 551.09 578.69 551.1 578.66 551.12 578.64 551.24 578.58 551.51 578.47 551.54 578.45 551.59 578.38 551.63 578.33 551.73 578.19 551.74 578.18 551.75 578.18 551.87 578.2 551.9 578.2 552.06 578.23 552.11 578.17 552.2 578.05 552.33 577.88 552.48 577.68 552.62 577.5 552.63 577.48 552.64 577.46 552.65 577.44 552.68 577.41 552.73 577.38 552.81 577.34 552.83 577.33 552.89 577.31 552.93 577.29 552.99 577.27 553.01 577.25 553.03 577.24 553.07 577.08 553.13 576.84 553.14 576.75 553.14 576.67 553.14 576.63 553.13 576.61 553.11 576.58 553.07 576.53 553.05 576.49 553.02 576.39 553.01 576.33 553.12 576.28 553.19 576.25 553.28 576.21 553.34 576.18 553.43 576.1 553.54 575.99 553.71 575.82 553.73 575.8 553.96 575.85 554.11 575.75 554.16 575.73 554.28 575.71 554.41 575.7 554.44 575.69 554.7 575.56 554.79 575.52 554.97 575.23 555.12 574.98 555.33 574.61 555.51 574.31 555.51 574.32 555.61 574.34 555.81 574.39 555.91 574.41 555.94 574.4 556 574.39 556.06 574.44 556.14 574.5 556.17 574.53 556.29 574.53 556.44 574.52 556.49 574.53 556.57 574.53 556.66 574.54 556.76 574.57 556.84 574.59 556.88 574.62 556.91 574.61 556.95 574.59 557.01 574.53 557.18 574.38 557.21 574.36 557.35 574.48 557.55 574.65 557.74 574.81 557.91 574.94 558.12 575.11 558.15 575.12 558.37 575.15 558.46 575.17 558.51 575.17 558.54 575.17 558.59 575.15 558.63 575.12 558.66 575.08 558.68 574.93 558.72 574.74 558.77 574.57 558.82 574.47 558.89 574.39 Z M 566.81 602.85 566.78 602.86 566.65 602.94 566.59 602.98 566.49 603.04 566.34 603.15 566.23 603.24 566.1 603.33 565.95 603.41 565.8 603.47 565.67 603.53 565.55 603.57 565.43 603.59 565.31 603.6 565.19 603.6 565.14 603.51 565.11 603.46 565.08 603.4 565.07 603.39 565.03 603.32 564.98 603.24 564.94 603.17 564.89 603.08 564.86 603.04 564.84 602.99 564.79 602.91 564.78 602.89 564.77 602.87 564.76 602.84 564.73 602.8 564.7 602.75 564.69 602.73 564.67 602.7 564.63 602.63 564.6 602.59 564.58 602.54 564.55 602.48 564.5 602.41 564.47 602.35 564.46 602.34 564.45 602.31 564.44 602.3 564.43 602.28 564.43 602.27 564.43 602.24 564.45 602.17 564.46 602.11 564.46 602.07 564.47 602.02 564.48 601.98 564.49 601.92 564.5 601.88 564.48 601.83 564.49 601.76 564.51 601.74 564.56 601.7 564.62 601.64 564.66 601.6 564.7 601.55 564.74 601.51 564.77 601.47 564.8 601.44 564.84 601.39 564.88 601.35 564.92 601.31 564.94 601.27 564.95 601.25 564.96 601.23 564.97 601.21 565 601.16 565 601.15 565.04 601.07 565.07 601.01 565.1 600.96 565.12 600.9 565.15 600.88 565.17 600.86 565.19 600.84 565.21 600.81 565.24 600.77 565.26 600.72 565.28 600.68 565.32 600.59 565.33 600.58 565.34 600.56 565.36 600.5 565.39 600.44 565.41 600.4 565.42 600.37 565.44 600.31 565.46 600.23 565.47 600.18 565.48 600.13 565.49 600.05 565.5 600 565.5 599.93 565.51 599.88 565.51 599.84 565.51 599.81 565.5 599.76 565.5 599.71 565.49 599.65 565.49 599.58 565.49 599.54 565.49 599.5 565.5 599.48 565.51 599.47 565.54 599.45 565.65 599.45 565.67 599.45 565.69 599.44 565.7 599.43 565.69 599.38 565.67 599.34 565.68 599.33 565.79 599.24 565.96 599.1 566.14 598.97 566.26 598.88 566.3 598.85 566.34 598.81 566.4 598.75 566.45 598.68 566.51 598.6 566.56 598.53 566.59 598.47 566.6 598.45 566.59 598.43 566.58 598.41 566.63 598.43 566.68 598.44 566.72 598.46 566.78 598.48 566.82 598.5 566.87 598.52 566.89 598.55 566.91 598.56 566.9 598.59 566.9 598.63 566.89 598.68 566.89 598.7 566.88 598.77 566.89 598.84 566.89 598.85 566.89 598.94 566.89 599.02 566.88 599.04 566.88 599.06 566.88 599.14 566.87 599.26 566.86 599.36 566.86 599.4 566.86 599.42 566.87 599.5 566.87 599.58 566.86 599.68 566.86 599.74 566.85 599.81 566.84 599.93 566.83 599.95 566.83 600.01 566.82 600.08 566.82 600.11 566.82 600.14 566.83 600.18 566.82 600.24 566.82 600.31 566.81 600.37 566.81 600.41 566.81 600.45 566.82 600.48 566.83 600.51 566.83 600.56 566.82 600.6 566.82 600.62 566.81 600.68 566.79 600.74 566.78 600.8 566.77 600.84 566.77 600.89 566.78 600.94 566.77 601.02 566.77 601.09 566.77 601.15 566.76 601.22 566.76 601.24 566.76 601.25 566.77 601.32 566.76 601.43 566.76 601.48 566.75 601.51 566.75 601.52 566.75 601.53 566.74 601.55 566.74 601.57 566.75 601.62 566.75 601.65 566.76 601.67 566.76 601.68 566.76 601.73 566.77 601.77 566.77 601.81 566.78 601.84 566.79 601.88 566.81 601.93 566.82 601.98 566.84 602.01 566.85 602.05 566.85 602.08 566.86 602.12 566.86 602.13 566.86 602.19 566.86 602.25 566.86 602.28 566.88 602.3 566.88 602.33 566.87 602.36 566.87 602.37 566.87 602.38 566.87 602.39 566.87 602.42 566.86 602.44 566.85 602.51 566.83 602.62 566.82 602.71 566.81 602.85 Z"/>
</g></svg>