<svg xmlns="http://www.w3.org/2000/svg" version="1.2" baseProfile="tiny" stroke-linecap="round" stroke-linejoin="round" viewBox="286.12 354.07 16.42 16.17"><g xmlns="http://www.w3.org/2000/svg" id="Cabredo">
<path d="M 293.31 354.07 293.38 354.11 293.56 354.19 293.71 354.26 293.93 354.35 294.01 354.39 294.01 354.39 294.02 354.4 294.03 354.4 294.13 354.45 294.27 354.52 294.37 354.59 294.51 354.69 294.62 354.76 294.65 354.79 294.68 354.81 294.71 354.83 294.76 354.86 294.85 354.89 294.86 354.89 295.01 354.92 295.07 354.95 295.17 354.98 295.18 354.98 295.28 355.02 295.32 355.03 295.35 355.04 295.38 355.05 295.44 355.07 295.76 355.18 295.84 355.25 295.94 355.33 295.96 355.34 296 355.37 296.1 355.46 296.36 355.4 296.57 355.37 296.88 355.42 296.99 355.44 297.11 355.57 297.24 355.69 297.26 355.71 297.29 355.74 297.36 355.8 297.41 355.84 297.46 355.87 297.5 355.92 297.53 355.95 297.64 356.06 297.77 356.19 297.85 356.28 297.87 356.3 297.91 356.34 297.92 356.35 297.92 356.35 297.93 356.36 297.97 356.4 298.06 356.51 298.1 356.57 298.23 356.73 298.35 356.86 298.46 356.99 298.52 357.05 298.58 357.13 298.59 357.15 298.63 357.2 298.72 357.31 298.83 357.45 299.07 357.72 299.33 358.03 299.41 358.12 299.47 358.19 299.53 358.27 299.74 358.54 299.78 358.6 299.94 358.8 299.94 358.81 299.96 358.83 299.99 358.88 300.13 359.07 300.17 359.12 300.27 359.24 300.39 359.38 300.41 359.41 300.66 359.69 300.8 359.85 300.83 359.88 300.83 359.88 300.89 359.95 300.9 359.96 300.96 360 300.99 360.02 301.03 360.05 301.15 360.12 301.16 360.14 301.17 360.15 301.18 360.16 301.26 360.25 301.29 360.28 301.3 360.3 301.43 360.45 301.46 360.48 301.48 360.5 301.58 360.61 301.59 360.63 301.6 360.64 301.63 360.67 301.7 360.75 301.71 360.76 301.82 360.88 301.83 360.89 301.93 361.04 301.97 361.1 301.97 361.11 301.98 361.12 302 361.16 302.01 361.18 302.03 361.23 302.04 361.26 302.09 361.3 302.12 361.34 302.15 361.37 302.21 361.43 302.27 361.48 302.28 361.49 302.3 361.51 302.37 361.6 302.45 361.72 302.52 361.82 302.48 361.95 302.43 362.08 302.38 362.21 302.33 362.37 302.28 362.52 302.25 362.62 302.23 362.69 302.21 362.76 302.19 362.84 302.2 362.94 302.2 363.07 302.27 363.17 302.33 363.24 302.4 363.33 302.44 363.38 302.33 363.44 302.23 363.5 302.15 363.54 302.08 363.59 301.97 363.66 301.86 363.72 301.78 363.77 301.67 363.85 301.59 363.89 301.5 363.94 301.26 364.08 301.17 364.14 301.06 364.2 300.98 364.25 300.86 364.31 300.78 364.36 300.68 364.42 300.6 364.46 300.5 364.52 300.54 364.63 300.57 364.7 300.58 364.72 300.59 364.74 300.6 364.77 300.64 364.89 300.68 364.99 300.7 365.04 300.72 365.14 300.74 365.24 300.74 365.3 300.74 365.32 300.74 365.32 300.76 365.45 300.77 365.52 300.78 365.64 300.79 365.67 300.79 365.73 300.81 365.86 300.82 365.9 300.82 365.94 300.83 366.02 300.83 366.04 300.84 366.06 300.84 366.09 300.85 366.14 300.87 366.17 300.9 366.26 300.91 366.29 300.92 366.3 300.93 366.33 300.94 366.34 300.94 366.36 300.94 366.36 300.95 366.37 300.95 366.38 300.98 366.44 301 366.52 301.04 366.62 301.05 366.62 301.08 366.71 301.1 366.76 301.11 366.78 301.11 366.79 301.13 366.84 301.14 366.85 301.16 366.92 301.18 366.97 301.17 366.97 301.09 367.01 300.97 367.07 300.89 367.11 300.78 367.15 300.7 367.19 300.6 367.24 300.5 367.29 300.39 367.33 300.31 367.37 300.19 367.43 300.11 367.47 300 367.53 299.91 367.59 299.83 367.64 299.72 367.72 299.65 367.77 299.62 367.79 299.61 367.81 299.6 367.83 299.59 367.87 299.59 367.94 299.59 367.98 299.59 368.01 299.59 368.02 299.6 368.05 299.6 368.07 299.59 368.1 299.59 368.11 299.58 368.12 299.57 368.14 299.52 368.18 299.48 368.21 299.43 368.25 299.4 368.27 299.26 368.37 299.17 368.44 299.06 368.53 298.88 368.69 298.8 368.76 298.69 368.86 298.58 368.95 298.45 369.08 298.31 369.21 298.21 369.29 298.07 369.4 297.98 369.48 297.87 369.58 297.76 369.67 297.67 369.75 297.6 369.81 297.54 369.86 297.53 369.86 297.47 369.91 297.45 369.92 297.44 369.93 297.41 369.95 297.4 369.96 297.31 370.03 297.26 370.07 297.17 370.14 297.16 370.15 297.1 370.2 297 370.18 296.85 370.15 296.72 370.13 296.63 370.12 296.51 370.07 296.42 370.03 296.29 369.97 296.18 369.9 296.1 369.84 296.08 369.83 296.07 369.82 296.02 369.78 295.99 369.76 295.95 369.72 295.94 369.71 295.85 369.65 295.71 369.57 295.61 369.5 295.55 369.46 295.52 369.44 295.51 369.43 295.46 369.39 295.37 369.29 295.32 369.23 295.29 369.21 295.25 369.17 295.23 369.16 295.19 369.14 295.19 369.13 295.15 369.12 295.11 369.1 295.06 369.07 295.01 369.05 294.94 369.03 294.87 369.01 294.8 368.99 294.75 368.97 294.7 368.96 294.69 368.95 294.64 368.94 294.59 368.93 294.53 368.92 294.51 368.91 294.47 368.91 294.42 368.9 294.36 368.89 294.32 368.89 294.27 368.88 294.19 368.87 294.15 368.87 294.13 368.87 294.09 368.86 294.05 368.85 294 368.83 293.95 368.81 293.88 368.77 293.81 368.75 293.76 368.72 293.7 368.7 293.64 368.68 293.61 368.66 293.6 368.66 293.56 368.65 293.55 368.65 293.51 368.63 293.46 368.63 293.42 368.64 293.38 368.65 293.37 368.66 293.34 368.66 293.31 368.68 293.28 368.69 293.23 368.7 293.18 368.71 293.13 368.71 293.07 368.72 293 368.71 292.94 368.69 292.88 368.67 292.83 368.65 292.81 368.64 292.75 368.62 292.72 368.61 292.71 368.6 292.67 368.57 292.64 368.55 292.61 368.53 292.59 368.52 292.58 368.5 292.57 368.47 292.58 368.45 292.58 368.43 292.6 368.39 292.61 368.34 292.64 368.28 292.66 368.22 292.67 368.17 292.67 368.12 292.68 368.09 292.68 368.05 292.68 367.99 292.67 367.95 292.67 367.9 292.66 367.86 292.65 367.82 292.65 367.79 292.66 367.78 292.67 367.74 292.68 367.68 292.7 367.64 292.71 367.62 292.69 367.58 292.68 367.56 292.66 367.55 292.66 367.53 292.66 367.5 292.66 367.48 292.65 367.45 292.64 367.41 292.64 367.38 292.64 367.34 292.63 367.32 292.62 367.29 292.61 367.26 292.62 367.22 292.62 367.18 292.64 367.1 292.64 367.05 292.65 367.01 292.65 366.98 292.66 366.95 292.67 366.91 292.69 366.87 292.7 366.83 292.69 366.77 292.7 366.72 292.7 366.68 292.69 366.63 292.67 366.61 292.66 366.57 292.65 366.55 292.64 366.51 292.64 366.47 292.63 366.44 292.62 366.4 292.61 366.38 292.59 366.36 292.57 366.32 292.55 366.29 292.55 366.26 292.55 366.21 292.55 366.14 292.54 366.08 292.54 366.03 292.54 365.98 292.54 365.93 292.53 365.91 292.51 365.87 292.49 365.82 292.48 365.77 292.48 365.75 292.47 365.71 292.48 365.67 292.48 365.63 292.49 365.61 292.5 365.58 292.52 365.55 292.53 365.52 292.54 365.49 292.54 365.47 292.53 365.44 292.52 365.42 292.52 365.39 292.53 365.36 292.53 365.33 292.53 365.3 292.53 365.27 292.52 365.24 292.51 365.21 292.5 365.19 292.49 365.13 292.48 365.11 292.47 365.09 292.46 365.06 292.45 365.04 292.45 365.01 292.45 364.96 292.44 364.92 292.45 364.9 292.46 364.87 292.49 364.84 292.51 364.82 292.52 364.8 292.52 364.76 292.52 364.71 292.53 364.69 292.54 364.67 292.55 364.66 292.57 364.65 292.59 364.64 292.6 364.61 292.6 364.59 292.6 364.57 292.59 364.54 292.57 364.52 292.55 364.5 292.55 364.48 292.55 364.46 292.56 364.44 292.55 364.41 292.53 364.37 292.52 364.33 292.51 364.31 292.49 364.3 292.48 364.28 292.47 364.26 292.47 364.24 292.48 364.22 292.48 364.19 292.49 364.18 292.49 364.15 292.48 364.11 292.47 364.08 292.46 364.05 292.46 364.03 292.45 364.01 292.44 363.98 292.44 363.96 292.44 363.94 292.45 363.91 292.48 363.88 292.5 363.85 292.5 363.82 292.51 363.79 292.51 363.77 292.49 363.75 292.48 363.72 292.47 363.7 292.47 363.67 292.46 363.65 292.46 363.63 292.44 363.61 292.41 363.59 292.38 363.58 292.35 363.58 292.32 363.57 292.28 363.57 292.26 363.56 292.25 363.54 292.23 363.52 292.21 363.5 292.17 363.47 292.14 363.46 292.13 363.45 292.11 363.43 292.1 363.42 292.1 363.39 292.09 363.37 292.1 363.35 292.09 363.34 292.09 363.32 292.07 363.31 292.05 363.29 292.04 363.28 292.03 363.26 292.03 363.24 292.01 363.22 291.99 363.2 291.97 363.17 291.95 363.14 291.93 363.12 291.91 363.11 291.89 363.1 291.86 363.09 291.83 363.07 291.8 363.04 291.78 363.03 291.75 362.99 291.73 362.96 291.71 362.92 291.7 362.88 291.7 362.87 291.71 362.85 291.72 362.82 291.73 362.79 291.74 362.78 291.76 362.76 291.77 362.75 291.79 362.73 291.76 362.71 291.72 362.67 291.71 362.65 291.7 362.64 291.69 362.64 291.68 362.64 291.65 362.63 291.63 362.62 291.59 362.6 291.53 362.57 291.49 362.55 291.45 362.53 291.39 362.5 291.33 362.48 291.3 362.46 291.17 362.4 291.1 362.35 290.97 362.29 290.89 362.25 290.77 362.19 290.69 362.14 290.56 362.07 290.49 362.04 290.37 361.98 290.18 361.87 290.11 361.84 289.98 361.77 289.91 361.73 289.78 361.67 289.7 361.62 289.57 361.55 289.48 361.5 289.35 361.43 289.28 361.4 289.2 361.36 289.19 361.35 289.15 361.36 289.09 361.36 289.06 361.37 288.94 361.38 288.83 361.4 288.68 361.41 288.59 361.42 288.44 361.44 288.34 361.45 288.21 361.47 288.07 361.48 287.98 361.5 287.9 361.5 287.76 361.52 287.61 361.54 287.53 361.55 287.46 361.56 287.35 361.57 287.3 361.58 287.29 361.58 287.21 361.59 287.07 361.61 286.99 361.62 286.93 361.62 286.91 361.63 286.84 361.64 286.75 361.65 286.6 361.66 286.53 361.68 286.45 361.68 286.39 361.69 286.35 361.7 286.32 361.7 286.33 361.67 286.33 361.6 286.33 361.55 286.34 361.49 286.34 361.41 286.33 361.33 286.33 361.2 286.33 361.11 286.33 361.04 286.32 360.97 286.32 360.96 286.32 360.89 286.31 360.83 286.3 360.74 286.28 360.67 286.27 360.6 286.25 360.53 286.24 360.47 286.22 360.4 286.2 360.32 286.19 360.27 286.17 360.21 286.15 360.14 286.17 360.11 286.2 360.05 286.23 359.99 286.24 359.98 286.26 359.94 286.28 359.91 286.3 359.87 286.32 359.82 286.36 359.76 286.39 359.7 286.43 359.63 286.47 359.56 286.51 359.48 286.54 359.42 286.61 359.3 286.65 359.23 286.68 359.17 286.72 359.09 286.76 359.01 286.8 358.93 286.84 358.86 286.89 358.78 286.92 358.7 286.96 358.63 286.99 358.57 286.99 358.54 287.02 358.47 287.04 358.41 287.05 358.38 287.07 358.31 287.09 358.24 287.11 358.19 287.14 358.13 287.14 358.12 287.16 358.04 287.17 358.01 287.18 357.94 287.19 357.88 287.2 357.82 287.21 357.75 287.23 357.68 287.24 357.62 287.25 357.56 287.26 357.49 287.27 357.42 287.29 357.36 287.3 357.31 287.33 357.23 287.35 357.21 287.38 357.17 287.42 357.12 287.48 357.04 287.52 357 287.58 356.94 287.64 356.88 287.66 356.85 287.67 356.84 287.7 356.83 287.79 356.76 287.84 356.74 287.9 356.7 287.98 356.65 288.04 356.62 288.09 356.58 288.17 356.54 288.24 356.49 288.29 356.46 288.35 356.42 288.37 356.41 288.43 356.36 288.5 356.32 288.52 356.31 288.57 356.28 288.63 356.24 288.69 356.21 288.75 356.17 288.82 356.13 288.9 356.07 288.97 356.03 289.04 356.01 289.1 355.99 289.16 355.97 289.2 355.95 289.25 355.94 289.31 355.91 289.35 355.88 289.42 355.85 289.49 355.81 289.56 355.78 289.63 355.74 289.68 355.71 289.74 355.68 289.78 355.66 289.83 355.63 289.92 355.58 289.99 355.55 290.05 355.51 290.08 355.5 290.14 355.46 290.2 355.43 290.22 355.42 290.25 355.4 290.27 355.39 290.31 355.36 290.36 355.33 290.42 355.3 290.48 355.27 290.52 355.23 290.57 355.2 290.62 355.18 290.66 355.15 290.7 355.13 290.74 355.1 290.8 355.07 290.84 355.05 290.9 355.03 290.95 355.02 291.02 354.99 291.07 354.97 291.14 354.94 291.17 354.93 291.25 354.9 291.3 354.88 291.33 354.87 291.41 354.84 291.45 354.81 291.5 354.77 291.63 354.69 291.7 354.63 291.76 354.59 291.77 354.58 291.77 354.58 292.2 354.29 292.22 354.27 292.3 354.22 293.3 354.08 293.31 354.07 Z"/>
</g></svg>