<svg xmlns="http://www.w3.org/2000/svg" version="1.2" baseProfile="tiny" stroke-linecap="round" stroke-linejoin="round" viewBox="501.2 452.7 37.07 52.55"><g xmlns="http://www.w3.org/2000/svg" id="Caparroso">
<path d="M 506.02 458.16 506.05 458.16 506.16 458.16 506.51 458.17 506.69 458.18 507.33 457.89 507.34 457.88 507.38 457.87 507.71 457.74 507.78 457.7 507.81 457.68 507.87 457.62 507.89 457.61 508.07 457.51 508.41 457.22 508.45 457.16 508.58 456.92 508.66 456.95 508.67 456.96 508.68 456.96 508.71 456.97 508.72 456.98 508.75 456.99 508.85 457.03 508.9 457.03 508.91 457.04 508.96 457.04 509 457.05 509.14 457.1 509.36 457.18 509.38 457.19 509.4 457.19 509.41 457.19 509.45 457.21 509.49 457.22 509.57 457.24 509.62 457.25 509.68 457.25 509.73 457.25 509.77 457.25 509.81 457.25 509.85 457.24 509.87 457.23 509.88 457.23 509.95 457.21 509.97 457.2 509.98 457.19 510.02 457.15 510.08 457.1 510.12 457.06 510.12 457.05 510.15 457.02 510.17 457.01 510.18 457 510.23 456.98 510.32 456.92 510.37 456.89 510.41 456.88 510.46 456.85 510.48 456.85 510.53 456.84 510.58 456.82 510.63 456.8 510.67 456.78 510.7 456.75 510.74 456.72 510.77 456.68 510.79 456.65 510.82 456.62 510.99 456.62 511.04 456.62 511.16 456.61 511.18 456.61 511.2 456.61 511.23 456.6 511.28 456.6 511.29 456.6 511.33 456.58 511.42 456.55 511.46 456.53 511.5 456.52 511.58 456.49 511.59 456.49 511.63 456.49 511.68 456.5 511.75 456.47 511.84 456.45 511.9 456.43 511.91 456.43 511.98 456.4 512.05 456.38 512.1 456.34 512.2 456.28 512.36 456.16 512.45 456.1 512.6 456.03 512.61 456.03 512.71 455.99 512.75 455.97 512.85 455.93 513.06 455.9 513.17 455.92 513.33 455.96 513.5 456.01 513.52 456.01 513.62 456.04 513.76 456.1 514.03 456.17 514.03 456.18 514.07 456.2 514.08 456.21 514.13 456.22 514.18 456.22 514.41 456.26 514.45 456.26 514.48 456.26 514.64 456.26 514.78 456.26 514.83 456.25 514.93 456.22 514.95 456.21 515.02 456.18 515.03 456.18 515.28 456.11 515.32 456.1 515.41 456.1 515.46 456.11 515.56 456.12 515.68 456.13 515.8 456.14 515.88 456.17 515.89 456.17 515.99 456.19 516.08 456.22 516.16 456.25 516.28 456.26 516.37 456.28 516.55 456.31 516.65 456.34 516.73 456.35 516.76 456.34 516.77 456.31 516.78 456.3 516.78 456.28 516.8 456.24 516.83 456.23 516.84 456.22 516.85 456.21 516.9 456.17 517.02 456.07 517.05 456.05 517.06 456.04 517.08 456.03 517.09 456.01 517.11 456 517.12 455.99 517.13 455.97 517.15 455.96 517.16 455.94 517.17 455.93 517.17 455.92 517.18 455.9 517.19 455.89 517.2 455.87 517.21 455.86 517.21 455.84 517.21 455.83 517.55 455.62 517.59 455.59 517.66 455.54 517.71 455.51 517.72 455.5 517.73 455.48 517.74 455.47 517.76 455.45 517.81 455.41 517.84 455.37 517.87 455.32 517.93 455.24 517.97 455.15 518.03 455.05 518.08 454.96 518.11 454.91 518.16 454.83 518.18 454.8 518.22 454.75 518.28 454.69 518.32 454.66 518.34 454.63 518.38 454.58 518.42 454.52 518.44 454.49 518.56 454.33 518.59 454.29 518.6 454.28 518.61 454.26 518.62 454.25 518.65 454.22 518.66 454.2 518.67 454.19 518.69 454.17 518.7 454.16 518.71 454.15 518.72 454.14 518.74 454.12 518.75 454.11 518.76 454.1 518.78 454.09 518.79 454.08 518.81 454.07 518.82 454.06 518.83 454.06 518.85 454.05 518.86 454.04 518.87 454.03 518.89 454.02 518.9 454.02 518.92 454.01 518.95 453.99 518.97 453.98 518.98 453.97 518.99 453.96 519.01 453.94 519.02 453.93 519.02 453.92 519.04 453.91 519.05 453.89 519.06 453.89 519.07 453.87 519.09 453.86 519.29 453.81 519.3 453.8 519.33 453.8 519.34 453.79 519.35 453.79 519.37 453.79 519.38 453.78 519.4 453.78 519.41 453.78 519.43 453.77 519.45 453.76 519.46 453.75 519.48 453.75 519.49 453.74 519.51 453.74 519.52 453.73 519.53 453.73 519.55 453.72 519.56 453.71 519.57 453.7 519.59 453.69 519.6 453.68 519.61 453.67 519.62 453.66 519.64 453.65 519.64 453.64 519.65 453.63 519.66 453.62 519.67 453.6 519.69 453.59 519.7 453.57 519.7 453.56 519.87 453.33 519.92 453.25 519.94 453.23 519.97 453.19 520.03 453.1 520.17 452.87 520.25 452.73 520.28 452.76 520.3 452.76 520.32 452.77 520.33 452.77 520.36 452.78 520.37 452.78 520.39 452.78 520.4 452.78 520.42 452.78 520.43 452.78 520.45 452.78 520.47 452.78 520.49 452.78 520.51 452.78 520.52 452.78 520.54 452.78 520.56 452.77 520.57 452.77 520.61 452.76 520.63 452.75 520.64 452.75 520.65 452.74 520.67 452.74 520.69 452.73 520.81 452.72 520.83 452.72 520.84 452.72 520.86 452.72 520.88 452.72 520.89 452.72 520.91 452.71 520.92 452.71 520.94 452.71 520.96 452.71 520.98 452.72 521 452.72 521 452.72 521.02 452.72 521.06 452.73 521.07 452.73 521.09 452.73 521.1 452.73 521.43 452.78 521.44 452.78 521.49 452.8 521.55 452.82 521.6 452.83 521.66 452.85 521.69 452.86 521.86 452.92 521.96 453.27 522.12 453.75 522.14 453.85 522.19 454.01 522.2 454.24 522.2 454.28 522.2 454.34 522.2 454.39 522.2 454.41 522.2 454.46 522.21 454.52 522.21 454.57 522.21 454.59 522.21 454.65 522.22 454.78 522.23 454.82 522.34 455.22 522.49 455.8 522.54 456.05 522.56 456.12 522.62 456.4 522.66 456.56 522.68 456.64 522.68 456.7 522.69 456.79 522.77 456.98 522.79 457.08 522.86 457.26 522.87 457.28 522.91 457.34 522.95 457.42 522.97 457.51 523 457.61 523 457.62 523.03 457.74 523.06 457.9 523.09 458.02 523.09 458.04 523.09 458.08 523.13 458.14 523.15 458.2 523.17 458.25 523.28 458.57 523.31 458.66 523.36 458.86 523.39 458.95 523.43 459.06 523.47 459.14 523.49 459.17 523.5 459.21 523.55 459.29 523.59 459.38 523.62 459.47 523.71 459.72 523.72 459.79 523.72 460.01 523.72 460.09 523.71 460.2 523.7 460.28 523.69 460.35 523.71 460.43 523.73 460.63 523.7 460.94 523.73 461.41 523.78 461.86 523.74 462.32 523.74 462.34 523.73 462.36 523.73 462.38 523.73 462.4 523.73 462.45 523.75 462.74 523.79 463.23 523.85 463.36 523.92 463.5 523.94 463.56 523.54 464.06 523.42 464.32 523.38 464.7 523.43 464.9 523.51 464.98 523.59 465.02 523.72 465.02 523.78 465.02 523.87 465.02 524 465.08 524.06 465.3 524.27 465.55 524.57 465.71 524.86 465.94 525.01 466.19 524.96 466.49 524.82 466.82 524.66 467.14 524.52 467.32 524.36 467.47 524.34 467.54 524.34 467.82 524.31 467.89 523.91 468.1 523.89 468.1 523.88 468.27 523.63 468.51 523.57 468.66 523.57 468.79 524.22 468.72 524.35 468.84 524.37 468.93 524.19 469.15 523.92 469.3 523.84 469.35 523.78 469.39 523.4 469.77 523.39 469.92 523.38 470.08 523.38 470.12 523.38 470.15 523.37 470.26 523.4 470.43 523.4 470.44 523.4 470.46 523.4 470.47 523.38 471.12 523.38 471.13 523.38 471.17 523.4 471.59 523.4 471.63 523.41 471.75 523.42 471.78 523.42 471.8 523.42 471.81 523.43 471.83 523.48 472.09 523.49 472.13 523.53 472.33 523.53 472.34 523.54 472.35 523.54 472.35 523.69 473.03 523.7 473.06 523.71 473.11 523.73 473.17 523.73 473.18 523.73 473.2 523.72 473.27 523.72 473.28 523.72 473.42 523.75 473.5 523.78 473.58 523.81 473.68 523.87 473.83 523.95 474.02 524.09 474.28 524.19 474.44 524.32 474.63 524.35 474.67 524.36 474.69 524.41 474.77 524.49 474.89 524.62 475.09 524.64 475.12 524.65 475.15 524.73 475.27 524.75 475.31 524.76 475.32 524.77 475.35 524.9 475.56 524.92 475.58 524.98 475.68 525.24 476.16 525.33 476.32 525.34 476.35 525.35 476.36 525.44 476.56 525.48 476.67 525.49 476.69 525.57 476.89 525.58 476.91 525.59 476.93 525.61 476.98 525.65 477.07 525.79 477.41 525.82 477.49 525.83 477.5 525.83 477.53 525.84 477.6 525.85 477.71 525.85 477.81 525.85 477.82 525.85 477.88 525.85 477.9 525.85 477.92 525.86 477.93 525.88 478.06 525.89 478.14 525.9 478.2 525.9 478.28 525.9 478.43 525.9 478.47 525.9 478.49 525.94 478.66 525.95 478.82 525.96 478.89 525.96 478.92 526.01 479.09 526.02 479.12 526.02 479.17 526.02 479.3 526.02 479.32 526.02 479.36 525.95 479.44 525.98 479.49 525.98 479.5 526 479.56 526 479.68 526 479.72 526.01 479.77 526.03 479.89 526.03 479.9 526.18 480.55 526.19 480.57 526.19 480.58 526.34 480.98 526.38 481.13 526.39 481.18 526.41 481.25 526.43 481.41 526.43 481.43 526.44 481.46 526.47 481.55 526.49 481.64 526.5 481.66 526.51 481.7 526.51 481.8 526.51 481.88 526.51 481.9 526.51 481.98 526.51 482.05 528.36 483.12 529.5 483.71 529.6 484.05 529.65 484.21 529.65 484.23 529.67 484.29 529.67 484.33 529.68 484.42 529.68 484.45 529.69 484.55 529.7 484.62 529.67 484.73 529.66 484.75 529.65 484.78 529.64 484.82 529.63 484.88 529.59 485.07 529.59 485.08 529.55 485.33 529.54 485.45 529.54 485.54 529.53 485.63 529.5 485.84 529.5 485.88 529.49 485.94 529.46 486.11 529.4 486.8 529.36 487.18 529.37 487.33 529.37 487.34 529.38 487.37 529.4 487.61 529.4 487.64 529.43 487.82 529.41 487.98 529.42 488.05 529.47 488.37 529.82 488.72 530.12 488.99 530.82 489.57 531.15 489.71 531.55 489.91 531.64 489.96 531.7 489.98 531.72 490 531.87 490.12 532.01 490.25 532.13 490.35 532.71 490.8 533.16 491.13 533.45 491.35 534.16 491.74 534.21 491.77 534.3 491.83 534.33 491.86 534.45 491.96 534.47 491.97 534.68 492.16 534.69 492.16 534.75 492.21 534.82 492.28 534.95 492.39 535.01 492.43 535.04 492.45 535.26 492.6 535.34 492.66 535.41 492.71 535.49 492.78 535.52 492.81 535.66 492.91 535.78 493.01 535.88 493.08 536.11 493.31 536.39 493.52 536.51 493.6 536.74 493.77 536.94 493.8 537.01 493.86 537.06 493.9 537.21 494.06 537.3 494.14 537.39 494.23 537.51 494.36 537.57 494.42 537.61 494.46 537.69 494.55 537.72 494.58 537.77 494.64 537.78 494.65 537.81 494.68 537.86 494.74 538.26 495.21 538.2 495.34 538.12 495.55 538.03 495.77 537.99 495.85 537.98 495.87 537.88 496.13 537.85 496.18 537.82 496.23 537.75 496.32 537.58 496.53 537.44 496.77 537.29 497.01 537.24 497.17 536.99 497.84 536.93 498 536.88 498.14 536.52 498.72 536.39 498.91 536.25 499.07 536.15 499.18 536.03 499.31 535.87 499.51 535.63 499.81 535.51 499.94 535.3 500.16 535.12 500.35 535.06 500.42 534.99 500.63 534.91 500.85 534.64 501.33 533.95 502.08 533.84 502.2 533.71 502.33 533.66 502.39 533.49 502.58 533.4 502.94 533.25 503.17 533.23 503.19 533.19 503.24 533.15 503.27 533.08 503.33 532.97 503.48 532.88 503.6 532.61 503.75 532.43 503.76 532.37 503.77 532.16 503.78 532.07 503.79 531.77 503.87 531.75 503.87 531.73 503.88 531.64 503.9 531.49 503.97 531.15 504.12 530.96 504.22 530.95 504.23 530.93 504.25 530.91 504.27 530.88 504.3 530.86 504.32 530.83 504.34 530.8 504.37 530.78 504.39 530.77 504.41 530.58 504.61 530.56 504.63 530.54 504.64 530.39 504.74 530.36 504.76 530.33 504.79 530.29 504.82 530.28 504.83 530.27 504.84 530.24 504.86 530.21 504.87 530.2 504.87 530.19 504.87 530.14 504.87 530.12 504.87 530.01 504.88 529.89 504.9 529.87 504.91 529.86 504.91 529.84 504.92 529.84 504.9 529.83 504.9 529.82 504.9 529.6 504.9 529.54 504.9 529.54 504.9 529.53 504.91 529.49 504.91 529.46 504.91 529.43 504.9 529.41 504.9 529.4 504.89 529.39 504.9 529.38 504.91 529.37 504.91 529.36 504.91 529.35 504.9 529.34 504.9 529.17 504.93 529 504.95 528.99 504.96 528.98 504.96 528.97 504.96 528.96 504.96 528.95 504.95 528.95 504.96 528.93 504.97 528.9 504.98 528.87 504.99 528.85 505.01 528.82 505.02 528.8 505.03 528.77 505.04 528.74 505.04 528.7 505.03 528.67 505.01 528.41 504.99 528.38 504.99 528.17 504.97 528.16 504.98 528.15 504.99 528.14 505.01 528.12 505.03 528.09 505.05 528.07 505.06 528.06 505.07 528.05 505.08 528.04 505.09 528.02 505.11 528 505.11 527.99 505.12 527.97 505.13 527.95 505.13 527.94 505.13 527.91 505.14 527.88 505.14 527.87 505.14 527.81 505.17 527.76 505.19 527.73 505.21 527.72 505.21 527.71 505.22 527.7 505.22 527.69 505.22 527.68 505.23 527.67 505.23 527.59 505.22 527.48 505.21 527.36 505.19 527.34 505.19 527.33 505.18 527.32 505.17 527.24 505.08 527.17 504.99 527.1 504.92 527.07 504.89 527.05 504.87 527.04 504.86 527.02 504.86 527.02 504.85 527.02 504.84 527.02 504.83 527 504.81 527 504.81 526.99 504.79 526.83 504.41 526.81 504.37 526.48 503.54 526.45 503.53 526.4 503.52 526.34 503.5 526.3 503.47 526.28 503.48 526.27 503.46 526.25 503.45 526.09 503.36 526.06 503.35 526.04 503.34 525.08 501.47 524.98 501.26 524.97 501.25 524.86 501.04 524.86 501.02 524.79 500.88 524.75 500.82 524.75 500.81 524.68 500.67 524.67 500.66 524.63 500.58 524.62 500.57 524.6 500.52 524.59 500.51 524.35 500.04 524.24 499.96 524.1 499.87 523.97 499.79 523.85 499.72 523.71 499.65 523.57 499.58 523.43 499.52 523.29 499.45 523.15 499.39 523 499.33 522.89 499.29 522.69 499.21 522.33 499.1 522.26 499.07 522.19 499.05 522.03 498.99 521.75 498.9 521.46 498.81 521.36 498.76 521.29 498.72 521.19 498.69 520.93 498.6 520.84 498.58 520.71 498.58 520.62 498.58 520.53 498.57 520.43 498.55 520.42 498.55 520.28 498.52 520.16 498.48 520.09 498.45 520.02 498.41 519.93 498.37 519.89 498.35 519.86 498.34 519.84 498.32 519.82 498.31 519.79 498.29 519.74 498.26 519.7 498.23 519.65 498.19 519.61 498.16 519.55 498.12 519.48 498.08 519.41 498.06 519.34 498.03 519.29 498.01 519.23 498 519.06 497.96 518.72 497.85 518.55 497.79 518.44 497.76 518.34 497.73 518.23 497.7 518.06 497.66 517.92 497.64 517.53 497.57 517.41 497.56 517.34 497.55 517.29 497.54 517.24 497.54 517.22 497.54 517.13 497.52 517.08 497.51 517.03 497.5 516.95 497.47 516.92 497.46 516.9 497.46 516.87 497.45 516.85 497.44 516.8 497.42 516.74 497.4 516.67 497.37 516.65 497.36 516.64 497.35 516.59 497.33 516.53 497.31 516.47 497.28 516.37 497.25 516.26 497.21 516.14 497.17 516.05 497.14 515.93 497.11 515.83 497.08 515.67 497.04 515.42 496.96 515.27 496.92 515.14 496.89 515.01 496.86 514.81 496.82 514.73 496.78 513.57 496.19 513.1 496 512.99 495.95 512.55 495.74 512.03 495.49 511.93 495.47 511.64 495.38 511.49 495.68 511.27 495.84 511.35 496.3 511.35 496.31 511.36 496.37 511.36 496.39 511.34 496.54 511.33 496.74 511.33 496.85 511.32 496.88 511.32 496.89 511.32 497.02 511.32 497.04 511.3 497.2 511.32 497.41 511.34 497.5 511.35 497.53 511.43 498.35 511.43 498.39 510.95 497.8 510.75 497.52 510.6 497.3 510.53 497.2 510.22 496.82 510.15 496.74 510.08 496.66 510.01 496.57 509.93 496.49 509.85 496.41 509.77 496.33 509.7 496.26 509.63 496.19 509.54 496.12 509.43 496.03 508.29 495.16 508.16 495.04 507.75 494.69 507.71 494.64 507.66 494.59 507.62 494.53 507.58 494.48 507.55 494.44 507.52 494.38 507.49 494.33 507.48 494.25 507.46 494.2 507.44 494.13 507.44 494.1 507.44 494.05 507.43 494 507.4 493.93 507.38 493.86 507.36 493.8 507.33 493.74 507.3 493.69 507.29 493.63 507.28 493.59 507.3 493.53 507.31 493.47 507.33 493.4 507.36 493.29 507.4 493.2 507.42 493.15 507.42 493.12 507.42 493.07 507.41 493.02 507.4 493 507.39 492.98 507.36 492.93 507.36 492.85 507.35 492.8 507.32 492.74 507.29 492.64 507.27 492.55 507.25 492.5 507.22 492.46 507.2 492.43 507.19 492.39 507.18 492.36 507.17 492.35 507.16 492.31 507.15 492.24 507.15 492.18 507.16 492.12 507.17 492 507.19 491.82 507.13 491.7 507.08 491.63 507.04 491.55 507 491.47 507 491.43 506.99 491.39 507 491.34 507.01 491.28 507.02 491.22 507.02 491.18 507.02 491.1 507.02 491.06 507.01 491.04 507 490.98 506.98 490.95 506.95 490.9 506.94 490.88 506.93 490.84 506.88 490.79 506.84 490.74 506.81 490.69 506.79 490.67 506.75 490.64 506.72 490.61 506.71 490.6 506.6 490.35 506.55 490.25 506.52 490.16 506.48 490.05 506.46 489.96 506.43 489.79 506.4 489.71 506.39 489.69 506.39 489.66 506.36 489.61 506.33 489.55 505.91 488.77 505.89 488.73 505.88 488.69 505.89 488.64 505.89 488.62 505.89 488.61 505.89 488.6 505.89 488.6 505.88 488.57 505.87 488.53 505.85 488.48 505.82 488.44 505.79 488.4 505.73 488.31 505.69 488.23 505.67 488.19 505.65 488.14 505.61 488.09 505.56 488.04 505.49 487.9 505.37 487.76 505.25 487.57 505.15 487.43 505.09 487.32 504.98 487.18 504.9 487.11 504.79 486.99 504.67 486.86 504.55 486.71 504.34 486.4 504.13 486.09 504.06 486.02 504.01 485.97 503.96 485.9 503.95 485.86 503.93 485.8 503.92 485.73 503.91 485.67 503.9 485.63 503.85 485.56 503.8 485.53 503.75 485.51 503.69 485.48 503.65 485.47 503.64 485.46 503.64 485.42 503.64 485.39 503.62 485.34 503.53 485.25 503.46 485.17 503.41 485.1 503.33 485.04 503.3 484.97 503.26 484.91 503.19 484.85 503.15 484.82 503.1 484.8 503.02 484.73 502.99 484.7 502.92 484.62 502.85 484.53 502.81 484.47 502.74 484.39 502.69 484.32 502.65 484.27 502.59 484.21 502.52 484.12 502.49 484.1 502.43 484.05 502.37 484.01 502.33 483.98 502.31 483.95 502.26 483.92 502.24 483.89 502.22 483.87 502.18 483.83 502.14 483.79 502.1 483.75 502.05 483.71 502.03 483.69 502 483.65 501.96 483.62 501.94 483.6 501.91 483.56 501.87 483.52 501.83 483.47 501.79 483.41 501.76 483.38 501.74 483.35 501.71 483.29 501.68 483.26 501.66 483.22 501.63 483.19 501.6 483.16 501.57 483.14 501.54 483.11 501.51 483.09 501.49 483.07 501.47 483.05 501.46 483.03 501.57 482.97 501.67 482.93 501.75 482.87 501.8 482.82 501.84 482.77 501.86 482.75 501.95 482.68 502 482.62 502.1 482.47 502.13 482.39 502.22 482.29 502.25 482.24 502.27 482.2 502.35 481.96 502.38 481.92 502.47 481.84 502.5 481.82 502.51 481.83 502.48 481.98 502.51 481.96 502.58 481.89 502.65 481.8 502.72 481.71 502.73 481.68 502.73 481.66 502.71 481.62 502.66 481.57 502.64 481.55 502.58 481.5 502.57 481.49 502.57 481.48 502.58 481.44 502.6 481.38 502.63 481.32 502.65 481.27 502.66 481.22 502.68 481.19 502.71 481.11 502.75 481.04 502.79 480.96 502.82 480.91 502.85 480.87 502.86 480.84 502.87 480.81 502.89 480.78 502.93 480.74 502.95 480.68 502.98 480.59 503.01 480.47 503.04 480.42 503.07 480.36 503.1 480.28 503.15 480.19 503.19 480.14 503.25 480.06 503.27 480.01 503.32 479.92 503.4 479.61 503.43 479.56 503.49 479.45 503.53 479.4 503.58 479.35 503.65 479.3 503.68 479.27 503.69 479.25 503.72 479.17 503.76 479.09 503.79 479.06 503.83 479.02 503.86 478.99 503.9 478.95 503.95 478.88 504.02 478.8 504.05 478.76 504.16 478.65 504.21 478.61 504.26 478.55 504.32 478.47 504.33 478.46 504.39 478.37 504.5 478.23 504.64 478.07 504.69 478.03 504.72 478.01 504.74 478.01 504.79 477.98 504.83 477.96 504.92 477.92 505.12 477.85 505.24 477.82 505.34 477.78 505.46 477.74 505.44 477.69 505.43 477.68 505.4 477.59 505.38 477.52 505.35 477.44 505.29 477.23 505.26 477.15 505.24 477.12 505.24 477.11 505.21 477.03 505.2 477 505.19 476.95 505.17 476.89 505.14 476.82 505.11 476.7 505.1 476.64 505.07 476.53 505.07 476.52 505.05 476.45 505 476.2 504.96 476.05 504.93 475.92 504.92 475.9 504.91 475.85 504.9 475.84 504.9 475.81 504.89 475.8 504.89 475.78 504.88 475.74 504.85 475.65 504.84 475.61 504.82 475.53 504.82 475.52 504.76 475.34 504.73 475.27 504.69 475.16 504.57 474.87 504.52 474.72 504.45 474.55 504.37 474.38 504.37 474.38 504.33 474.3 504.32 474.29 504.26 474.17 504.2 474.06 504.18 474.03 504.17 474.01 504.16 473.99 504.16 473.98 504.15 473.96 504.2 473.94 504.29 473.91 504.33 473.89 504.42 473.86 504.47 473.83 504.54 473.77 504.63 473.71 504.73 473.64 504.79 473.6 504.85 473.57 504.9 473.54 504.94 473.5 504.94 473.49 504.94 473.48 504.93 473.47 504.89 473.42 504.84 473.35 504.82 473.33 504.75 473.26 504.72 473.23 504.72 473.22 504.71 473.21 504.7 473.2 504.69 473.18 504.68 473.17 504.64 473.12 504.6 473.07 504.53 472.97 504.5 472.94 504.44 472.87 504.28 472.67 504.26 472.64 504.19 472.55 504.15 472.49 504.1 472.42 504.09 472.39 504.07 472.36 504.06 472.34 504.05 472.31 504.04 472.3 504.02 472.26 504.01 472.25 503.98 472.2 503.94 472.14 503.92 472.09 503.91 472.08 503.9 472.05 503.82 471.92 503.81 471.9 503.8 471.89 503.79 471.86 503.78 471.85 503.71 471.72 503.64 471.59 503.61 471.54 503.58 471.49 503.58 471.48 503.57 471.47 503.56 471.46 503.53 471.41 503.49 471.33 503.46 471.28 503.43 471.23 503.33 471.07 503.22 470.91 503.19 470.86 503.17 470.83 503.16 470.82 503.16 470.81 503.14 470.79 503.13 470.76 503.11 470.74 503.03 470.62 503.02 470.61 503 470.55 502.98 470.52 502.98 470.51 502.94 470.43 502.91 470.4 502.9 470.37 502.85 470.29 502.83 470.27 502.83 470.26 502.81 470.24 502.79 470.22 502.78 470.21 502.73 470.13 502.69 470.08 502.64 470 502.59 469.91 502.55 469.85 502.5 469.79 502.39 469.65 502.3 469.52 502.21 469.4 502.15 469.31 502.1 469.23 502.08 469.21 502.05 469.18 502.02 469.14 501.99 469.09 501.97 469.06 501.95 469.03 501.94 469.02 501.93 469.01 501.92 468.99 501.9 468.94 501.85 468.86 501.85 468.85 501.81 468.79 501.79 468.75 501.75 468.7 501.75 468.68 501.73 468.64 501.72 468.63 501.7 468.59 501.7 468.56 501.68 468.49 501.68 468.45 501.67 468.43 501.67 468.41 501.67 468.4 501.64 468.28 501.62 468.16 501.61 468.05 501.61 468.02 501.6 468 501.59 467.95 501.58 467.84 501.57 467.77 501.56 467.74 501.56 467.72 501.55 467.69 501.55 467.69 501.54 467.68 501.5 467.58 501.49 467.56 501.44 467.42 501.43 467.4 501.4 467.35 501.39 467.32 501.38 467.3 501.34 467.21 501.33 467.19 501.26 467.02 501.24 466.98 501.23 466.95 501.22 466.91 501.21 466.9 501.21 466.89 501.22 466.89 501.4 466.85 501.44 466.85 501.53 466.83 501.62 466.81 501.76 466.79 501.84 466.79 501.9 466.8 502 466.81 502.04 466.81 502.09 466.82 502.35 466.85 502.38 466.86 502.41 466.87 502.45 466.87 502.54 466.89 502.67 466.9 502.87 466.9 502.95 466.88 503.13 466.78 503.22 466.73 503.22 466.73 503.27 466.7 503.29 466.68 503.37 466.65 503.54 466.59 503.6 466.58 503.64 466.58 503.71 466.58 503.83 466.6 503.98 466.61 504.01 466.61 504.08 466.62 504.17 466.63 504.35 466.65 504.42 466.65 504.72 466.64 504.9 466.63 505 466.62 505.05 466.62 505.07 466.62 506.3 466.33 506.52 466.21 506.62 466.16 506.76 466.08 506.81 466.06 506.9 466 506.95 465.96 507.02 465.89 507.05 465.86 507.08 465.83 507.13 465.8 507.19 465.77 507.14 465.64 507.07 465.41 507.05 465.35 507.04 465.31 507.03 465.3 507.03 465.27 507 465.19 506.99 465.15 506.97 465.1 506.96 465.04 506.93 464.96 506.9 464.8 506.88 464.73 506.87 464.66 506.85 464.61 506.83 464.49 506.81 464.4 506.79 464.3 506.76 464.17 506.75 464.08 506.73 464.01 506.72 463.95 506.7 463.86 506.69 463.81 506.69 463.74 506.69 463.55 506.63 463.14 506.6 462.88 506.59 462.87 506.56 462.75 506.54 462.7 506.49 462.58 506.48 462.53 506.44 462.38 506.44 462.37 506.43 462.34 506.4 462.26 506.38 462.18 506.37 462.16 506.35 462.06 506.34 462 506.33 461.93 506.33 461.91 506.33 461.79 506.31 461.57 506.3 461.5 506.3 461.48 506.3 461.46 506.29 461.44 506.29 461.4 506.29 461.37 506.28 461.36 506.28 461.34 506.27 461.28 506.27 461.27 506.27 461.23 506.26 461.23 506.25 461.14 506.25 461.11 506.24 461.09 506.24 461.05 506.22 460.91 506.22 460.86 506.23 460.79 506.23 460.78 506.23 460.77 506.24 460.68 506.25 460.63 506.26 460.62 506.26 460.56 506.27 460.41 506.27 460.39 506.27 460.37 506.27 460.34 506.26 460.32 506.25 460.29 506.2 460.21 506.15 460.09 506.13 460.01 506.12 459.99 506.07 459.84 506.06 459.8 506.04 459.74 506.02 459.7 506.02 459.68 505.9 459.43 505.88 459.41 505.83 459.3 505.71 459.05 505.69 459.02 505.69 458.99 505.67 458.82 505.67 458.66 505.68 458.6 505.68 458.59 505.68 458.57 505.69 458.55 505.73 458.5 505.74 458.49 505.76 458.47 506 458.18 506.02 458.16 Z"/>
</g></svg>