<svg xmlns="http://www.w3.org/2000/svg" version="1.2" baseProfile="tiny" stroke-linecap="round" stroke-linejoin="round" viewBox="478.75 585.23 50.63 33.97"><g xmlns="http://www.w3.org/2000/svg" id="Cascante">
<path d="M 522.8 593.88 522.84 593.91 522.89 593.95 522.93 593.99 522.96 594.03 522.99 594 523.02 593.97 523.08 593.96 523.13 593.93 523.16 593.91 523.17 593.9 523.2 593.87 523.22 593.84 523.24 593.79 523.26 593.75 523.28 593.72 523.29 593.71 523.32 593.69 523.34 593.68 523.38 593.65 523.39 593.64 523.41 593.6 523.44 593.56 523.48 593.54 523.54 593.5 523.55 593.5 523.56 593.49 523.59 593.48 523.63 593.48 523.65 593.47 523.67 593.46 523.69 593.46 523.7 593.45 523.74 593.44 523.76 593.42 523.77 593.41 523.8 593.38 523.83 593.34 523.85 593.3 523.86 593.26 523.86 593.25 523.88 593.2 523.89 593.16 523.9 593.14 523.93 593.12 523.95 593.11 523.97 593.12 523.99 593.12 524.02 593.12 524.05 593.13 524.09 593.12 524.12 593.11 524.13 593.1 524.13 593.08 524.12 593.05 524.11 593.03 524.09 593.01 524.09 592.99 524.09 592.98 524.09 592.96 524.11 592.94 524.12 592.92 524.16 592.87 524.18 592.84 524.19 592.83 524.21 592.8 524.23 592.77 524.23 592.75 524.24 592.72 524.25 592.71 524.28 592.69 524.31 592.67 524.34 592.66 524.36 592.63 524.37 592.59 524.38 592.55 524.38 592.5 524.38 592.46 524.37 592.41 524.37 592.36 524.38 592.32 524.41 592.29 524.44 592.26 524.48 592.24 524.52 592.23 524.55 592.22 524.58 592.2 524.61 592.17 524.65 592.14 524.68 592.11 524.71 592.11 524.75 592.09 524.79 592.07 524.83 592.04 524.86 592.01 524.88 591.96 524.9 591.92 524.91 591.89 524.91 591.86 524.91 591.83 524.89 591.79 524.87 591.76 524.85 591.7 524.83 591.66 524.83 591.63 524.84 591.6 524.88 591.57 524.9 591.55 524.93 591.55 524.96 591.55 524.98 591.54 525.02 591.49 525.05 591.41 525.08 591.37 525.14 591.31 525.18 591.27 525.23 591.22 525.26 591.18 525.27 591.12 525.28 591.07 525.3 591.03 525.33 591.01 525.39 590.98 525.44 590.97 525.47 590.96 525.49 590.94 525.52 590.91 525.55 590.88 525.58 590.85 525.61 590.83 525.62 590.8 525.62 590.78 525.65 590.76 525.68 590.74 525.72 590.73 525.74 590.72 525.75 590.75 525.77 590.78 525.79 590.81 525.81 590.83 525.84 590.86 525.85 590.88 525.86 590.9 525.86 590.92 525.84 590.95 525.81 590.99 525.79 591.04 525.76 591.06 525.74 591.08 525.75 591.09 525.76 591.13 525.78 591.16 525.82 591.19 525.85 591.22 525.89 591.26 525.91 591.29 525.96 591.31 525.98 591.33 526 591.36 526.02 591.38 526.03 591.4 526.06 591.42 526.1 591.44 526.11 591.46 526.13 591.48 526.17 591.51 526.21 591.54 526.26 591.58 526.31 591.61 526.32 591.62 526.35 591.63 526.39 591.67 526.44 591.71 526.49 591.75 526.53 591.79 526.58 591.82 526.63 591.85 526.67 591.86 526.71 591.86 526.73 591.88 526.78 591.89 526.83 591.9 526.88 591.89 526.9 591.88 526.93 591.86 527 591.84 527.05 591.82 527.06 591.82 527.08 591.8 527.1 591.77 527.1 591.73 527.08 591.67 527.08 591.61 527.09 591.57 527.11 591.5 527.12 591.45 527.13 591.39 527.14 591.31 527.16 591.24 527.16 591.17 527.17 591.11 527.18 591.02 527.19 590.93 527.2 590.82 527.21 590.75 527.23 590.7 527.25 590.67 527.28 590.65 527.29 590.65 527.33 590.66 527.34 590.69 527.36 590.72 527.39 590.75 527.44 590.77 527.5 590.79 527.54 590.8 527.57 590.8 527.61 590.82 527.65 590.82 527.7 590.84 527.73 590.85 527.77 590.89 527.78 590.91 527.79 590.93 527.81 590.98 527.82 591.02 527.83 591.05 527.85 591.07 527.88 591.1 527.9 591.13 527.92 591.17 527.95 591.19 527.98 591.21 528.02 591.23 528.06 591.24 528.08 591.26 528.11 591.27 528.14 591.29 528.17 591.31 528.23 591.36 528.28 591.41 528.33 591.46 528.38 591.53 528.42 591.57 528.44 591.64 528.47 591.71 528.5 591.78 528.52 591.84 528.57 591.89 528.62 591.96 528.68 592.02 528.75 592.07 528.8 592.11 528.83 592.13 528.86 592.15 528.87 592.16 528.85 592.19 528.81 592.26 528.82 592.27 528.87 592.29 528.97 592.35 529.04 592.38 529.06 592.39 529.17 592.47 529.19 592.48 529.19 592.49 529.37 592.61 529.32 592.66 529.31 592.68 529.28 592.71 529.2 592.65 529.15 592.62 529.14 592.62 529.09 592.66 529.06 592.71 529.01 592.76 528.96 592.83 528.92 592.9 528.88 592.96 528.85 593 528.83 593.03 528.83 593.03 528.74 593.11 528.72 593.13 528.76 593.16 529.08 593.5 529.09 593.51 529.1 593.53 529.07 593.58 529.05 593.61 529.04 593.61 529 593.65 529 593.66 528.98 593.67 528.95 593.7 528.97 593.71 529.02 593.75 529.09 593.81 529.13 593.84 529.14 593.81 529.16 593.79 529.16 593.78 529.18 593.76 529.2 593.75 529.15 593.89 529.11 594.01 529.11 594.02 529.11 594.04 529.12 594.07 529.14 594.09 529.15 594.11 529.15 594.12 529.16 594.13 529.17 594.16 529.17 594.16 529.18 594.17 529.18 594.18 529.18 594.2 529.18 594.22 529.19 594.23 529.2 594.28 529.2 594.3 529.2 594.31 529.2 594.33 529.16 594.35 529.11 594.37 529.05 594.4 528.99 594.42 528.93 594.44 528.89 594.45 528.86 594.46 528.85 594.46 528.83 594.45 528.81 594.47 528.78 594.51 528.76 594.55 528.73 594.59 528.69 594.65 528.68 594.67 528.66 594.7 528.65 594.72 528.64 594.72 528.63 594.73 528.6 594.73 528.58 594.76 528.55 594.8 528.54 594.83 528.57 594.85 528.55 594.88 528.54 594.9 528.52 594.95 528.6 594.99 528.59 595.02 528.58 595.03 528.57 595.07 528.54 595.12 528.52 595.16 528.49 595.2 528.47 595.18 528.45 595.16 528.42 595.14 528.38 595.12 528.35 595.16 528.34 595.18 528.34 595.2 528.35 595.21 528.37 595.23 528.43 595.27 528.4 595.32 528.34 595.42 528.24 595.36 528.24 595.39 528.23 595.41 528.18 595.45 528.09 595.53 528.08 595.54 528.03 595.58 528 595.6 527.95 595.64 528 595.67 528.02 595.69 528.05 595.72 528.08 595.74 528.09 595.75 528.11 595.78 528.13 595.82 528.16 595.85 528.18 595.89 528.22 595.93 528.26 595.97 528.28 595.99 528.3 596 528.3 596.02 528.3 596.03 528.29 596.06 528.29 596.08 528.29 596.1 528.31 596.11 528.3 596.15 528.3 596.17 528.29 596.18 528.29 596.21 528.25 596.21 528.2 596.19 528.15 596.18 528.09 596.16 528.04 596.14 528.03 596.15 528.01 596.21 527.98 596.28 527.96 596.34 528.02 596.36 528.05 596.36 528.03 596.39 527.99 596.43 527.98 596.44 527.97 596.45 527.95 596.47 527.92 596.51 527.88 596.56 527.84 596.61 527.81 596.64 527.8 596.63 527.72 596.59 527.59 596.52 527.49 596.47 527.47 596.47 527.45 596.49 527.43 596.51 527.43 596.54 527.42 596.6 527.42 596.68 527.41 596.75 527.41 596.81 527.4 596.88 527.4 596.95 527.4 597 527.4 597.03 527.39 597.07 527.39 597.11 527.39 597.15 527.39 597.17 527.39 597.2 527.39 597.23 527.4 597.25 527.41 597.26 527.43 597.28 527.43 597.3 527.43 597.34 527.42 597.4 527.41 597.46 527.4 597.52 527.39 597.6 527.39 597.66 527.38 597.72 527.37 597.78 527.36 597.82 527.35 597.87 527.35 597.92 527.34 597.97 527.33 598.01 527.33 598.05 527.33 598.07 527.32 598.11 527.32 598.14 527.31 598.15 527.27 598.18 527.24 598.22 527.21 598.23 527.19 598.24 527.17 598.24 527.15 598.23 527.14 598.23 527.13 598.23 527.11 598.23 527.09 598.24 527.07 598.25 527.05 598.27 527.01 598.29 526.99 598.3 526.95 598.32 526.92 598.33 526.89 598.35 526.87 598.36 526.84 598.37 526.81 598.38 526.78 598.39 526.75 598.4 526.72 598.41 526.71 598.42 526.7 598.43 526.68 598.44 526.66 598.45 526.62 598.46 526.59 598.48 526.55 598.5 526.52 598.52 526.49 598.53 526.46 598.55 526.43 598.56 526.38 598.58 526.34 598.59 526.29 598.61 526.25 598.62 526.23 598.63 526.21 598.65 526.19 598.66 526.16 598.67 526.13 598.68 526.1 598.68 526.07 598.69 526.06 598.7 526.05 598.73 526.04 598.75 526.01 598.76 525.98 598.78 525.94 598.81 525.91 598.83 525.87 598.86 525.83 598.89 525.8 598.92 525.77 598.94 525.74 598.97 525.7 599 525.68 599.03 525.65 599.05 525.63 599.07 525.6 599.09 525.57 599.11 525.55 599.13 525.53 599.15 525.51 599.17 525.5 599.18 525.48 599.19 525.46 599.19 525.45 599.21 525.43 599.23 525.41 599.24 525.39 599.26 525.35 599.28 525.33 599.29 525.3 599.33 525.28 599.35 525.24 599.38 525.2 599.41 525.17 599.43 525.14 599.46 525.11 599.48 525.07 599.5 525.03 599.52 524.99 599.55 524.97 599.57 524.93 599.61 524.9 599.64 524.87 599.67 524.84 599.7 524.81 599.74 524.77 599.77 524.76 599.78 524.75 599.79 524.74 599.8 524.73 599.83 524.71 599.85 524.68 599.86 524.67 599.88 524.66 599.89 524.64 599.91 524.62 599.92 524.6 599.93 524.59 599.95 524.58 599.97 524.56 599.99 524.53 599.99 524.52 600 524.51 600.03 524.5 600.05 524.5 600.07 524.5 600.1 524.51 600.09 524.52 600.08 524.53 600.06 524.56 600.05 524.59 600.04 524.63 600.03 524.66 600.03 524.69 600.03 524.72 600.04 524.75 600.04 524.79 600.04 524.82 600.04 524.84 600.05 524.87 600.05 524.9 600.06 524.96 600.05 524.99 600.05 525.02 600.06 525.04 600.07 525.06 600.07 525.05 600.08 525 600.12 524.98 600.15 524.91 600.22 524.8 600.3 524.77 600.33 524.75 600.35 524.72 600.37 524.64 600.45 524.56 600.54 524.48 600.62 524.47 600.63 524.46 600.64 524.44 600.66 524.4 600.71 524.36 600.76 524.32 600.79 524.3 600.8 524.25 600.83 524.19 600.87 524.18 600.88 524.17 600.89 524.15 600.9 524.11 600.92 524.07 600.95 524.06 600.96 524.06 600.97 523.98 601.01 523.92 601.05 523.82 601.08 523.77 601.1 523.71 601.12 523.61 601.16 523.55 601.18 523.52 601.19 523.47 601.21 523.44 601.22 523.38 601.23 523.33 601.24 523.23 601.26 523.16 601.27 523.14 601.27 523.12 601.27 523.05 601.26 522.98 601.25 522.91 601.25 522.87 601.25 522.83 601.26 522.8 601.26 522.78 601.25 522.77 601.24 522.71 601.23 522.62 601.23 522.46 601.24 522.32 601.25 522.21 601.27 522.12 601.28 522.1 601.28 522.08 601.28 522.07 601.28 522.06 601.29 522.04 601.26 522.02 601.23 522.01 601.24 522 601.27 521.95 601.35 521.86 601.53 521.84 601.57 521.83 601.58 521.82 601.59 521.81 601.61 521.78 601.67 521.73 601.77 521.72 601.8 521.71 601.81 521.69 601.82 521.68 601.83 521.67 601.83 521.66 601.84 521.64 601.88 521.62 601.92 521.59 601.99 521.57 602.06 521.55 602.15 521.53 602.23 521.51 602.32 521.48 602.44 521.46 602.57 521.42 602.73 521.4 602.84 521.39 602.92 521.39 602.95 521.37 603.05 521.35 603.17 521.34 603.24 521.33 603.27 521.33 603.31 521.33 603.35 521.32 603.43 521.32 603.51 521.31 603.58 521.31 603.66 521.3 603.71 521.3 603.76 521.31 603.77 521.33 603.78 521.32 603.84 521.32 603.9 521.32 603.94 521.31 604.01 521.29 604.11 521.27 604.18 521.26 604.23 521.25 604.26 521.22 604.34 521.17 604.47 521.14 604.55 521.13 604.57 521.08 604.71 521.04 604.82 521.03 604.85 521.03 604.88 521.02 604.91 520.98 605.02 520.92 605.17 520.91 605.19 520.86 605.34 520.84 605.38 520.83 605.42 520.81 605.46 520.8 605.47 520.79 605.47 520.74 605.56 520.69 605.67 520.66 605.71 520.63 605.8 520.62 605.82 520.58 605.91 520.57 605.94 520.56 605.95 520.53 606.02 520.52 606.06 520.5 606.1 520.5 606.11 520.48 606.15 520.46 606.21 520.44 606.26 520.43 606.27 520.41 606.28 520.39 606.3 520.37 606.31 520.31 606.37 520.25 606.45 520.16 606.54 520.12 606.58 520.08 606.63 520.05 606.66 520.03 606.68 520 606.7 519.96 606.72 519.94 606.73 519.92 606.74 519.89 606.77 519.86 606.77 519.85 606.77 519.82 606.8 519.8 606.84 519.79 606.87 519.76 606.91 519.73 606.96 519.72 607 519.72 607.01 519.71 607.03 519.7 607.06 519.69 607.07 519.65 607.13 519.6 607.2 519.57 607.24 519.56 607.25 519.54 607.26 519.53 607.28 519.52 607.3 519.5 607.33 519.47 607.36 519.46 607.37 519.45 607.39 519.43 607.42 519.42 607.43 519.41 607.45 519.44 607.47 519.54 607.54 519.57 607.56 519.59 607.57 519.62 607.59 519.67 607.62 519.7 607.64 519.72 607.65 519.7 607.67 519.67 607.7 519.58 607.77 519.55 607.8 519.52 607.83 519.44 607.9 519.4 607.93 519.38 607.95 519.33 607.99 519.29 608.02 519.28 608.02 519.28 608.03 519.27 608.04 519.27 608.05 519.25 608.05 519.23 608.07 519.2 608.1 519.18 608.12 519.17 608.13 519.13 608.17 519.06 608.23 519.03 608.26 519.06 608.29 519.11 608.32 519.15 608.34 519.22 608.39 519.28 608.42 519.3 608.45 519.29 608.46 519.27 608.48 519.25 608.5 519.22 608.52 519.19 608.54 519.15 608.55 519.13 608.56 519.1 608.58 519.07 608.6 519.03 608.63 518.98 608.68 518.95 608.71 519 608.73 519.05 608.75 519.07 608.75 519.13 608.79 519.2 608.82 519.23 608.84 519.24 608.84 519.26 608.86 519.3 608.88 519.33 608.9 519.36 608.93 519.39 608.96 519.41 608.97 519.42 608.97 519.42 608.98 519.36 609.11 519.33 609.17 519.32 609.19 519.37 609.21 519.42 609.24 519.46 609.25 519.49 609.27 519.51 609.28 519.55 609.3 519.62 609.33 519.65 609.36 519.69 609.38 519.72 609.4 519.77 609.44 519.79 609.46 519.81 609.46 519.85 609.49 519.95 609.54 519.98 609.56 520.03 609.6 520.12 609.65 520.2 609.7 520.19 609.72 520.18 609.75 520.17 609.78 520.16 609.8 520.16 609.82 520.15 609.84 520.15 609.85 520.14 609.88 520.14 609.91 520.14 609.92 520.13 609.95 520.12 609.98 520.11 610.04 520.11 610.09 520.1 610.12 520.1 610.17 520.1 610.21 520.1 610.22 520.1 610.23 520.11 610.27 520.12 610.3 520.13 610.33 520.14 610.35 520.16 610.38 520.18 610.43 520.2 610.47 520.22 610.5 520.26 610.54 520.27 610.56 520.31 610.58 520.36 610.62 520.42 610.66 520.46 610.7 520.47 610.73 520.5 610.76 520.5 610.76 520.53 610.81 520.57 610.9 520.61 610.97 520.63 611.02 520.66 611.08 520.69 611.15 520.71 611.21 520.72 611.23 520.73 611.25 520.77 611.24 520.83 611.21 520.88 611.2 520.9 611.2 520.97 611.19 521.06 611.18 521.15 611.18 521.21 611.18 521.24 611.17 521.43 611.16 521.51 611.15 521.59 611.15 521.65 611.15 521.69 611.14 521.71 611.14 521.74 611.14 521.82 611.12 521.86 611.12 521.9 611.12 521.91 611.12 521.93 611.12 521.94 611.12 521.96 611.12 522 611.12 522.03 611.13 522.07 611.15 522.09 611.15 522.13 611.16 522.16 611.17 522.2 611.18 522.24 611.21 522.28 611.23 522.32 611.25 522.35 611.28 522.39 611.31 522.43 611.34 522.46 611.37 522.48 611.4 522.51 611.44 522.54 611.47 522.55 611.5 522.56 611.52 522.56 611.55 522.56 611.59 522.56 611.63 522.55 611.66 522.55 611.7 522.54 611.73 522.54 611.77 522.53 611.84 522.53 611.87 522.52 611.9 522.52 611.93 522.49 611.98 522.46 612.01 522.45 612.03 522.42 612.05 522.4 612.09 522.37 612.13 522.34 612.17 522.27 612.27 522.25 612.3 522.23 612.33 522.21 612.37 522.2 612.4 522.19 612.43 522.16 612.49 522.13 612.56 522.12 612.6 522.11 612.62 522.09 612.66 522.09 612.72 522.08 612.78 522.07 612.82 522.06 612.87 522.05 612.9 522.04 612.95 522.02 612.99 522 613.03 521.98 613.06 521.95 613.1 521.92 613.12 521.89 613.15 521.85 613.16 521.82 613.18 521.79 613.21 521.74 613.26 521.71 613.29 521.67 613.34 521.63 613.36 521.58 613.39 521.55 613.41 521.5 613.43 521.46 613.45 521.42 613.47 521.39 613.48 521.36 613.5 521.32 613.51 521.27 613.52 521.23 613.53 521.19 613.56 521.15 613.59 520.79 613.74 520.77 613.75 520.76 613.75 520.74 613.76 520.62 613.84 520.54 613.89 520.53 613.89 520.28 614.07 520.22 614.1 520.2 614.1 520.13 614.06 520.1 614.03 520.09 614.03 520.08 614.02 520.06 614 520.03 613.98 519.95 614.03 519.83 614.1 519.71 614.2 519.62 614.27 519.54 614.35 519.5 614.43 519.49 614.49 519.47 614.53 519.41 614.59 519.39 614.61 519.31 614.66 519.25 614.7 519.19 614.75 519.14 614.79 519.07 614.84 519.02 614.87 518.96 614.89 518.92 614.91 518.86 614.93 518.84 614.93 518.83 614.95 518.82 614.96 518.8 614.99 518.79 614.97 518.78 614.96 518.77 614.93 518.76 614.92 518.75 614.93 518.75 614.93 518.74 614.95 518.72 614.98 518.72 615.01 518.72 615.03 518.73 615.08 518.72 615.1 518.72 615.13 518.72 615.15 518.72 615.19 518.72 615.24 518.71 615.26 518.7 615.3 518.7 615.33 518.7 615.38 518.69 615.43 518.68 615.48 518.67 615.53 518.66 615.57 518.65 615.61 518.65 615.65 518.66 615.68 518.68 615.72 518.69 615.75 518.66 615.74 518.61 615.73 518.58 615.72 518.53 615.71 518.48 615.7 518.42 615.68 518.39 615.68 518.38 615.67 518.37 615.67 518.33 615.65 518.3 615.63 518.27 615.61 518.26 615.61 518.24 615.59 518.21 615.58 518.19 615.56 518.16 615.55 518.12 615.52 518.07 615.49 518.03 615.46 518 615.44 517.99 615.43 517.96 615.4 517.93 615.37 517.89 615.34 517.84 615.31 517.78 615.28 517.78 615.27 517.75 615.26 517.7 615.23 517.66 615.2 517.62 615.18 517.6 615.16 517.56 615.13 517.51 615.07 517.48 615.04 517.45 615.01 517.43 614.99 517.4 614.98 517.38 614.97 517.34 614.96 517.29 614.94 517.24 614.92 517.21 614.9 517.16 614.88 517.15 614.87 517.11 614.85 517.07 614.83 517.04 614.82 517.02 614.81 517 614.79 516.94 614.76 516.89 614.72 516.88 614.72 516.83 614.69 516.71 614.61 516.67 614.59 516.62 614.56 516.69 614.4 516.7 614.38 516.72 614.36 516.74 614.33 516.77 614.3 516.81 614.26 516.82 614.24 516.83 614.21 516.82 614.15 516.82 614.11 516.83 614.1 516.84 614.08 516.86 614.07 516.94 614.02 516.98 614 517 613.97 516.99 613.94 516.98 613.92 516.97 613.89 516.97 613.86 516.97 613.84 516.97 613.8 516.97 613.79 516.98 613.76 516.97 613.75 516.93 613.73 516.87 613.71 516.81 613.67 516.76 613.64 516.75 613.64 516.72 613.61 516.69 613.58 516.79 613.48 516.84 613.43 516.88 613.39 516.91 613.36 516.89 613.32 516.88 613.29 516.88 613.26 516.88 613.24 516.89 613.21 516.94 613.14 516.95 613.12 516.96 613.1 517.01 613 517.06 612.92 517.07 612.89 517.08 612.88 517.07 612.86 517.06 612.86 517.05 612.84 517.04 612.84 517.03 612.84 517 612.85 517 612.78 517.01 612.74 517.03 612.69 517.04 612.65 516.91 612.63 516.89 612.62 516.92 612.52 516.95 612.43 516.96 612.41 516.98 612.38 517.01 612.35 517.06 612.27 517.09 612.24 517.15 612.15 517.21 612.07 517.22 612.06 517.2 612.03 517.19 612.01 517.19 612.01 517.15 611.97 517.13 611.94 517.09 611.91 517.06 611.9 517 611.86 516.95 611.82 516.85 611.76 516.76 611.7 516.76 611.69 516.78 611.66 516.81 611.62 516.84 611.57 516.88 611.54 516.88 611.53 516.91 611.5 516.96 611.46 517 611.43 517.07 611.36 517.12 611.31 517.14 611.29 517.07 611.19 517.03 611.13 517.02 611.11 517.01 611.07 516.99 611.01 516.97 610.98 516.96 610.97 516.92 610.96 516.88 610.96 516.85 610.97 516.85 610.99 516.84 611.05 516.84 611.08 516.83 611.12 516.83 611.17 516.83 611.2 516.82 611.24 516.82 611.28 516.81 611.32 516.81 611.35 516.81 611.38 516.81 611.41 516.81 611.42 516.81 611.47 516.8 611.5 516.8 611.52 516.78 611.58 516.77 611.62 516.75 611.66 516.73 611.71 516.71 611.75 516.68 611.81 516.67 611.85 516.64 611.93 516.61 612.02 516.59 612.08 516.57 612.16 516.55 612.21 516.53 612.26 516.52 612.3 516.5 612.31 516.48 612.32 516.47 612.33 516.46 612.35 516.45 612.36 516.45 612.38 516.45 612.4 516.45 612.42 516.44 612.43 516.44 612.44 516.43 612.45 516.42 612.46 516.42 612.47 516.41 612.48 516.39 612.5 516.38 612.52 516.37 612.53 516.35 612.55 516.34 612.56 516.33 612.58 516.33 612.58 516.31 612.59 516.29 612.61 516.27 612.64 516.23 612.7 516.22 612.71 516.2 612.74 516.18 612.76 516.14 612.82 516.13 612.84 516.09 612.89 516.05 612.94 516.03 612.97 516.02 612.98 516 612.97 515.99 612.96 515.98 612.94 515.97 612.91 515.95 612.89 515.94 612.88 515.93 612.89 515.88 612.92 515.82 612.96 515.77 612.99 515.75 613.01 515.72 613.04 515.71 613.05 515.71 613.07 515.69 613.05 515.66 613.01 515.63 612.96 515.61 612.92 515.59 612.88 515.59 612.85 515.59 612.82 515.58 612.78 515.56 612.7 515.55 612.65 515.53 612.64 515.52 612.62 515.51 612.62 515.49 612.6 515.45 612.59 515.41 612.56 515.39 612.55 515.35 612.55 515.35 612.54 515.34 612.54 515.3 612.51 515.31 612.45 515.31 612.34 515.31 612.22 515.31 612.09 515.26 612.08 515.23 612.07 515.19 612.07 515.17 612.06 515.15 612.06 515.13 612.04 515.08 612.02 515.04 612 515.01 611.98 515 611.97 514.96 611.95 514.95 611.94 514.94 611.93 514.94 611.91 514.92 611.87 514.91 611.84 514.89 611.81 514.88 611.79 514.86 611.79 514.86 611.79 514.85 611.8 514.83 611.8 514.8 611.8 514.78 611.81 514.76 611.82 514.76 611.82 514.75 611.82 514.74 611.79 514.73 611.77 514.71 611.74 514.68 611.71 514.65 611.68 514.62 611.65 514.61 611.63 514.56 611.58 514.54 611.54 514.52 611.53 514.5 611.52 514.48 611.51 514.47 611.5 514.46 611.48 514.44 611.47 514.42 611.45 514.38 611.43 514.34 611.38 514.32 611.36 514.32 611.35 514.31 611.32 514.3 611.3 514.29 611.28 514.25 611.23 514.23 611.21 514.21 611.2 514.2 611.19 514.18 611.17 514.16 611.14 514.14 611.11 514.11 611.07 514.08 611.05 514.06 611.02 514.06 610.93 514.03 610.93 514 610.93 513.98 610.93 513.94 610.93 513.93 610.93 513.89 610.94 513.87 610.94 513.84 610.94 513.81 610.94 513.78 610.94 513.77 610.94 513.73 610.95 513.71 610.95 513.7 610.95 513.67 610.94 513.64 610.94 513.61 610.94 513.6 610.94 513.59 610.94 513.58 610.94 513.57 610.94 513.52 610.94 513.5 610.94 513.47 610.95 513.41 610.96 513.39 610.96 513.34 610.96 513.31 610.96 513.29 610.95 513.27 610.95 513.26 610.95 513.26 611.01 513.28 611.07 513.3 611.12 513.32 611.13 513.32 611.14 513.37 611.17 513.37 611.18 513.38 611.19 513.38 611.21 513.38 611.22 513.38 611.24 513.37 611.26 513.36 611.28 513.35 611.3 513.36 611.32 513.38 611.34 513.41 611.36 513.42 611.37 513.42 611.39 513.41 611.41 513.39 611.44 513.38 611.47 513.38 611.48 513.38 611.5 513.39 611.51 513.42 611.54 513.43 611.55 513.43 611.56 513.44 611.58 513.44 611.6 513.43 611.61 513.42 611.63 513.41 611.64 513.4 611.64 513.37 611.66 513.36 611.67 513.35 611.68 513.34 611.7 513.33 611.74 513.32 611.76 513.3 611.77 513.27 611.81 513.25 611.84 513.24 611.86 513.24 611.88 513.24 611.9 513.25 611.9 513.25 611.91 513.26 611.92 513.26 611.94 513.25 611.95 513.25 611.96 513.26 611.97 513.27 611.98 513.29 611.97 513.31 611.94 513.33 611.93 513.34 611.94 513.36 611.94 513.37 611.95 513.37 611.98 513.37 612 513.36 612.03 513.34 612.08 513.34 612.1 513.33 612.11 513.32 612.14 513.29 612.23 513.28 612.23 513.24 612.24 513.19 612.24 513.17 612.23 513.14 612.23 513.15 612.21 513.15 612.2 513.16 612.17 513.17 612.14 513.17 612.13 513.17 612.12 513.17 612.08 513.16 612.05 513.15 612.04 513.13 612.02 513.13 612.02 513.11 612.01 513.1 612.01 513.08 612.02 513.06 612.03 513.04 612.05 513.03 612.08 513.01 612.12 513 612.15 512.99 612.16 512.99 612.19 512.98 612.21 512.97 612.23 512.96 612.23 512.95 612.22 512.95 612.2 512.94 612.16 512.94 612.11 512.94 612.08 512.95 612.05 512.96 612.02 512.97 612 512.98 611.97 512.97 611.96 512.97 611.94 512.97 611.9 512.97 611.88 512.96 611.86 512.95 611.85 512.94 611.84 512.93 611.83 512.93 611.8 512.92 611.78 512.92 611.74 512.92 611.71 512.91 611.69 512.9 611.68 512.89 611.64 512.88 611.59 512.88 611.53 512.87 611.51 512.86 611.47 512.85 611.45 512.83 611.43 512.81 611.4 512.79 611.39 512.78 611.38 512.78 611.38 512.76 611.37 512.72 611.34 512.7 611.33 512.69 611.33 512.68 611.32 512.66 611.32 512.66 611.31 512.66 611.3 512.65 611.27 512.64 611.25 512.63 611.22 512.62 611.21 512.61 611.2 512.59 611.17 512.57 611.14 512.53 611.11 512.48 611.07 512.46 611.07 512.45 611.06 512.44 611.06 512.41 611.05 512.38 611.04 512.36 611.08 512.35 611.08 512.34 611.08 511.99 611.03 511.86 611.01 511.85 610.98 511.86 610.95 511.86 610.93 511.87 610.9 511.88 610.86 511.89 610.81 511.91 610.75 511.93 610.69 511.95 610.64 511.96 610.61 511.97 610.6 511.98 610.58 511.99 610.56 512.01 610.54 512.01 610.52 512.02 610.5 512.03 610.48 512.04 610.46 512.06 610.44 512.07 610.42 512.07 610.4 512.08 610.38 512.1 610.37 512.09 610.36 512.03 610.34 512.03 610.33 512.02 610.3 512.01 610.3 512 610.3 511.98 610.3 511.96 610.3 511.94 610.31 511.91 610.32 511.87 610.35 511.84 610.36 511.81 610.36 511.79 610.37 511.76 610.38 511.7 610.39 511.66 610.39 511.64 610.4 511.63 610.4 511.6 610.4 511.56 610.4 511.51 610.41 511.47 610.42 511.45 610.42 511.43 610.42 511.41 610.42 511.39 610.42 511.35 610.42 511.34 610.42 511.33 610.42 511.29 610.43 511.28 610.43 511.25 610.43 511.2 610.4 511.16 610.4 511.14 610.4 511.1 610.39 511.05 610.39 511.02 610.38 510.99 610.38 510.97 610.38 510.92 610.38 510.91 610.38 510.88 610.38 510.88 610.38 510.85 610.38 510.82 610.38 510.8 610.38 510.79 610.38 510.74 610.37 510.71 610.37 510.67 610.38 510.66 610.37 510.63 610.36 510.6 610.35 510.58 610.34 510.56 610.33 510.51 610.3 510.5 610.3 510.49 610.29 510.44 610.27 510.4 610.24 510.38 610.23 510.36 610.21 510.34 610.2 510.32 610.2 510.3 610.2 510.28 610.2 510.26 610.2 510.23 610.21 510.21 610.22 510.19 610.23 510.18 610.24 510.16 610.26 510.13 610.27 510.12 610.27 510.09 610.27 510.06 610.27 510.04 610.25 510.02 610.25 509.99 610.25 509.97 610.24 509.95 610.22 509.92 610.21 509.89 610.2 509.87 610.19 509.82 610.18 509.8 610.18 509.75 610.18 509.74 610.18 509.73 610.16 509.72 610.13 509.7 610.1 509.69 610.07 509.68 610.04 509.67 610.02 509.65 610 509.62 610 509.61 609.98 509.58 609.95 509.57 609.95 509.56 609.93 509.55 609.91 509.53 609.88 509.51 609.85 509.51 609.82 509.5 609.8 509.48 609.77 509.47 609.76 509.45 609.73 509.44 609.71 509.42 609.69 509.4 609.67 509.38 609.63 509.37 609.61 509.33 609.55 509.31 609.53 509.3 609.52 509.28 609.51 509.27 609.5 509.25 609.5 509.23 609.49 509.22 609.47 509.19 609.46 509.17 609.45 509.13 609.44 509.11 609.43 509.08 609.43 509.07 609.42 509.06 609.39 509.04 609.36 509.04 609.35 509.04 609.32 509.05 609.3 509.05 609.28 509.05 609.26 509.03 609.24 509.01 609.22 508.99 609.19 508.97 609.17 508.94 609.15 508.92 609.13 508.9 609.11 508.86 609.11 508.83 609.1 508.8 609.08 508.78 609.07 508.77 609.04 508.76 609.03 508.76 608.99 508.75 608.98 508.74 608.98 508.72 608.98 508.69 608.98 508.66 608.99 508.58 609 508.57 609.04 508.56 609.06 508.56 609.07 508.56 609.1 508.56 609.12 508.56 609.13 508.56 609.15 508.55 609.17 508.53 609.19 508.51 609.21 508.48 609.25 508.46 609.29 508.45 609.31 508.42 609.33 508.39 609.35 508.35 609.37 508.32 609.39 508.3 609.41 508.28 609.43 508.27 609.43 508.26 609.43 508.22 609.44 508.2 609.45 508.18 609.46 508.18 609.49 508.19 609.52 508.21 609.57 508.25 609.64 508.28 609.72 508.31 609.76 508.31 609.79 508.31 609.8 508.29 609.83 508.27 609.84 508.25 609.84 508.23 609.83 508.22 609.83 508.21 609.82 508.2 609.82 508.18 609.81 508.17 609.78 508.15 609.75 508.12 609.72 508.1 609.71 508.07 609.7 508.06 609.69 508.04 609.67 508.04 609.64 508.03 609.62 508.02 609.6 508.01 609.6 507.99 609.6 507.97 609.61 507.95 609.62 507.93 609.63 507.89 609.65 507.87 609.67 507.86 609.69 507.85 609.7 507.85 609.72 507.85 609.73 507.87 609.74 507.89 609.75 507.9 609.76 507.9 609.77 507.89 609.8 507.88 609.82 507.87 609.86 507.87 609.9 507.87 609.94 507.88 609.95 507.91 609.97 507.99 610.01 508.02 610.03 508.02 610.05 508.02 610.07 508.01 610.08 508 610.1 507.99 610.11 507.97 610.12 507.95 610.12 507.92 610.12 507.9 610.1 507.88 610.09 507.86 610.08 507.85 610.08 507.83 610.08 507.81 610.1 507.78 610.12 507.76 610.13 507.74 610.12 507.71 610.11 507.68 610.11 507.65 610.12 507.62 610.13 507.59 610.14 507.58 610.16 507.56 610.18 507.55 610.19 507.53 610.2 507.5 610.2 507.49 610.2 507.48 610.22 507.47 610.23 507.46 610.26 507.45 610.28 507.43 610.31 507.42 610.33 507.41 610.36 507.4 610.39 507.39 610.4 507.36 610.41 507.35 610.42 507.34 610.44 507.32 610.45 507.28 610.47 507.28 610.48 507.27 610.52 507.25 610.55 507.23 610.57 507.2 610.6 507.17 610.63 507.15 610.67 507.13 610.7 507.1 610.73 507.09 610.76 507.09 610.78 507.1 610.81 507.1 610.84 507.12 610.87 507.13 610.89 507.16 610.92 507.17 610.93 507.18 610.97 507.19 610.99 507.2 611.02 507.22 611.07 507.24 611.09 507.23 611.1 507.23 611.11 507.22 611.12 507.2 611.14 507.17 611.15 507.16 611.15 507.15 611.16 507.15 611.18 507.16 611.19 507.17 611.2 507.18 611.21 507.2 611.22 507.21 611.24 507.22 611.29 507.23 611.32 507.24 611.34 507.26 611.35 507.28 611.37 507.29 611.38 507.3 611.4 507.32 611.43 507.33 611.48 507.34 611.5 507.35 611.52 507.37 611.54 507.39 611.54 507.41 611.55 507.42 611.55 507.45 611.56 507.47 611.57 507.49 611.57 507.52 611.57 507.55 611.57 507.57 611.56 507.6 611.55 507.62 611.54 507.63 611.54 507.65 611.54 507.65 611.54 507.66 611.55 507.65 611.56 507.65 611.58 507.64 611.61 507.64 611.65 507.63 611.67 507.62 611.69 507.61 611.69 507.59 611.7 507.57 611.72 507.55 611.74 507.53 611.77 507.51 611.81 507.5 611.83 507.48 611.84 507.46 611.85 507.44 611.85 507.41 611.85 507.4 611.84 507.37 611.84 507.34 611.83 507.32 611.81 507.31 611.81 507.3 611.81 507.28 611.83 507.27 611.84 507.25 611.88 507.22 611.91 507.22 611.92 507.22 611.95 507.23 611.96 507.25 611.97 507.27 611.98 507.27 612 507.27 612.02 507.26 612.04 507.26 612.06 507.26 612.07 507.27 612.08 507.28 612.09 507.3 612.1 507.33 612.1 507.35 612.11 507.36 612.12 507.36 612.13 507.36 612.15 507.35 612.15 507.32 612.15 507.3 612.15 507.27 612.15 507.26 612.16 507.23 612.17 507.21 612.17 507.18 612.17 507.15 612.16 507.12 612.14 507.1 612.14 507.09 612.15 507.07 612.16 507.07 612.17 507.07 612.19 507.08 612.2 507.1 612.26 507.11 612.27 507.11 612.28 507.1 612.3 507.08 612.32 507.07 612.34 507.07 612.35 507.05 612.41 507.04 612.43 507.02 612.44 507.01 612.45 506.98 612.46 506.96 612.46 506.94 612.48 506.91 612.49 506.9 612.49 506.83 612.5 506.8 612.5 506.79 612.5 506.75 612.5 506.7 612.52 506.67 612.54 506.64 612.54 506.63 612.55 506.59 612.56 506.59 612.56 506.58 612.56 506.56 612.56 506.49 612.58 506.44 612.6 506.42 612.61 506.41 612.63 506.4 612.64 506.4 612.66 506.4 612.67 506.4 612.7 506.42 612.73 506.42 612.74 506.42 612.76 506.42 612.79 506.42 612.8 506.41 612.84 506.4 612.89 506.4 612.91 506.39 612.93 506.39 612.94 506.38 612.97 506.39 612.99 506.4 613.02 506.43 613.06 506.44 613.09 506.5 613.21 506.53 613.28 506.54 613.29 506.54 613.32 506.54 613.36 506.54 613.39 506.53 613.46 506.52 613.55 506.51 613.58 506.53 613.59 506.56 613.61 506.57 613.61 506.61 613.63 506.66 613.66 506.71 613.68 506.76 613.71 506.77 613.72 506.79 613.72 506.8 613.73 506.8 613.75 506.8 613.79 506.82 613.82 506.84 613.85 506.86 613.87 506.87 613.9 506.9 613.92 506.93 613.93 506.95 613.93 506.96 613.93 506.99 613.94 507 613.95 507.01 613.99 507.02 614.01 507.03 614.04 507.04 614.04 507.04 614.05 507.05 614.06 507.09 614.08 507.13 614.11 507.13 614.11 507.17 614.13 507.19 614.15 507.2 614.16 507.23 614.18 507.24 614.2 507.25 614.21 507.26 614.23 507.28 614.27 507.29 614.29 507.3 614.34 507.31 614.39 507.32 614.4 507.36 614.41 507.42 614.42 507.42 614.42 507.43 614.44 507.45 614.46 507.45 614.48 507.45 614.54 507.43 614.62 507.43 614.64 507.42 614.74 507.42 614.75 507.43 614.77 507.42 614.79 507.4 614.83 507.39 614.86 507.4 614.86 507.43 614.84 507.46 614.83 507.52 614.8 507.56 614.79 507.57 614.78 507.59 614.78 507.61 614.79 507.63 614.79 507.68 614.8 507.7 614.8 507.75 614.8 507.81 614.8 507.89 614.8 507.92 614.8 507.98 614.82 507.98 614.84 507.97 614.85 507.94 614.88 507.92 614.91 507.91 614.92 507.91 614.94 507.91 614.96 507.92 614.97 507.95 614.98 507.97 615.01 508 615.03 508.02 615.04 508.05 615.05 508.09 615.05 508.12 615.06 508.13 615.06 508.14 615.08 508.15 615.09 508.16 615.12 508.17 615.15 508.17 615.16 508.16 615.16 508.15 615.16 508.12 615.15 508.1 615.13 508.08 615.13 508.06 615.13 508.02 615.13 508 615.13 507.99 615.14 507.97 615.14 507.94 615.13 507.92 615.12 507.89 615.11 507.86 615.1 507.83 615.09 507.82 615.1 507.81 615.11 507.8 615.13 507.79 615.16 507.79 615.17 507.78 615.19 507.77 615.2 507.75 615.25 507.74 615.28 507.73 615.3 507.7 615.33 507.67 615.36 507.64 615.38 507.62 615.38 507.61 615.38 507.58 615.39 507.53 615.38 507.52 615.38 507.49 615.38 507.48 615.38 507.44 615.38 507.39 615.38 507.3 615.37 507.22 615.37 507.16 615.37 507.14 615.37 507.1 615.37 507.09 615.37 507.06 615.37 507.05 615.37 506.94 615.36 506.88 615.37 506.86 615.37 506.76 615.37 506.67 615.37 506.58 615.37 506.51 615.37 506.5 615.37 506.43 615.37 506.42 615.37 506.36 615.36 506.35 615.36 506.2 615.37 506.19 615.37 506.03 615.37 505.95 615.37 505.94 615.37 505.9 615.37 505.7 615.37 505.53 615.37 505.45 615.37 505.3 615.37 505.21 615.37 505.2 615.37 505.11 615.37 505.1 615.37 505.01 615.37 505 615.37 504.9 615.37 504.89 615.37 504.87 615.37 504.77 615.37 504.75 615.37 504.66 615.36 504.65 615.36 504.61 615.36 504.53 615.36 504.45 615.36 504.4 615.36 504.35 615.35 504.33 615.35 504.27 615.35 504.22 615.35 504.14 615.35 504.03 615.34 504 615.34 503.98 615.34 503.96 615.34 503.9 615.34 503.82 615.33 503.78 615.33 503.72 615.33 503.65 615.33 503.59 615.33 503.57 615.33 503.56 615.32 503.54 615.32 503.53 615.32 503.49 615.32 503.46 615.32 503.34 615.32 503.25 615.32 503.19 615.31 503.13 615.31 502.97 615.3 502.77 615.3 502.62 615.3 502.57 615.3 502.51 615.3 502.41 615.31 502.32 615.31 502.22 615.31 502.19 615.31 502.09 615.31 502.04 615.31 502.03 615.31 501.93 615.3 501.83 615.3 501.79 615.3 501.69 615.3 501.65 615.3 501.64 615.3 501.59 615.31 501.51 615.33 501.44 615.34 501.39 615.35 501.37 615.35 501.31 615.36 501.29 615.37 501.25 615.36 501.2 615.36 501.15 615.35 501.13 615.35 501.1 615.34 501.08 615.34 501.02 615.34 500.95 615.33 500.89 615.32 500.87 615.32 500.86 615.32 500.78 615.31 500.71 615.3 500.67 615.3 500.66 615.3 500.65 615.3 500.55 615.3 500.54 615.3 500.06 615.29 500.04 615.29 499.85 615.29 499.84 615.29 499.75 615.29 499.75 615.29 499.5 615.29 499.49 615.29 499.4 615.35 499.31 615.41 499.19 615.52 499.06 615.64 499.02 615.71 498.93 615.77 498.84 615.85 498.8 615.88 498.68 615.98 498.62 616.02 498.55 616.07 498.54 616.07 498.5 616.1 498.43 616.13 498.32 616.2 498.22 616.28 498.12 616.34 498 616.41 497.84 616.53 497.79 616.58 497.76 616.6 497.74 616.63 497.71 616.66 497.67 616.71 497.62 616.79 497.58 616.84 497.51 616.91 497.41 616.98 497.38 617.01 497.3 617.09 497.24 617.16 497.19 617.23 497.13 617.3 497.14 617.34 497.12 617.37 497.08 617.45 497.03 617.52 496.98 617.59 496.92 617.63 496.84 617.68 496.77 617.72 496.71 617.76 496.64 617.83 496.56 617.87 496.49 617.9 496.45 617.95 496.43 618 496.41 618.06 496.41 618.13 496.43 618.21 496.45 618.28 496.45 618.36 496.44 618.42 496.42 618.49 496.38 618.6 496.36 618.68 496.31 618.78 496.27 618.87 496.22 618.91 496.13 618.98 496.05 619.04 496.05 619.05 495.91 619.15 495.88 619.16 495.85 619.17 495.69 619.13 495.68 619.13 495.61 619.11 495.56 619.07 495.51 619.03 495.45 618.95 495.45 618.94 495.4 618.86 495.39 618.82 495.38 618.78 495.38 618.7 495.38 618.63 495.38 618.62 495.37 618.55 495.36 618.5 495.34 618.47 495.32 618.43 495.28 618.37 495.27 618.34 495.23 618.27 495.19 618.16 495.19 618.15 495.14 618.01 495.1 617.88 495.05 617.74 495 617.63 494.94 617.53 494.92 617.49 494.9 617.45 494.85 617.37 494.76 617.24 494.71 617.18 494.64 617.13 494.59 617.07 494.54 617 494.5 616.96 494.41 616.89 494.31 616.83 494.17 616.73 494.08 616.64 494.02 616.57 493.94 616.48 493.86 616.39 493.75 616.28 493.65 616.21 493.55 616.15 493.47 616.1 493.38 616.02 493.31 615.93 493.22 615.84 493.13 615.76 493.08 615.72 493.05 615.67 492.99 615.62 492.92 615.55 492.84 615.5 492.72 615.41 492.6 615.34 492.49 615.24 492.38 615.14 492.29 615.07 492.24 614.97 492.11 614.82 492.1 614.8 492.07 614.75 492.05 614.73 492.01 614.69 491.99 614.66 491.97 614.64 491.96 614.63 491.89 614.53 491.82 614.43 491.78 614.37 491.76 614.33 491.72 614.24 491.67 614.12 491.63 614.04 491.62 614 491.6 613.95 491.57 613.89 491.56 613.84 491.55 613.81 491.53 613.74 491.5 613.69 491.49 613.67 491.47 613.64 491.43 613.61 491.37 613.55 491.32 613.5 491.27 613.43 491.22 613.35 491.16 613.25 491.08 613.11 491.03 613.01 490.9 612.77 490.82 612.63 490.78 612.55 490.73 612.44 490.67 612.32 490.62 612.22 490.59 612.13 490.55 612.04 490.51 611.97 490.48 611.93 490.45 611.89 490.4 611.82 490.32 611.73 490.24 611.62 490.2 611.55 490.13 611.44 490.09 611.37 490.06 611.34 490.02 611.31 489.93 611.22 489.88 611.16 489.81 611.09 489.78 611.07 489.74 611.01 489.7 610.97 489.64 610.93 489.61 610.9 489.59 610.88 489.57 610.83 489.54 610.75 489.47 610.67 489.38 610.51 489.33 610.43 489.3 610.4 489.22 610.34 489.08 610.23 488.93 610.07 488.8 609.95 488.74 609.87 488.7 609.81 488.56 609.65 488.39 609.44 488.26 609.27 488.13 609.1 488.08 609.01 488.03 608.93 487.98 608.86 487.92 608.79 487.88 608.74 487.85 608.75 487.83 608.75 487.73 608.78 487.59 608.81 487.41 608.84 487.32 608.85 487.28 608.85 487.14 608.84 487.05 608.83 486.95 608.82 486.9 608.81 486.81 608.8 486.69 608.79 486.64 608.79 486.62 608.78 486.58 608.78 486.57 608.78 486.53 608.77 486.46 608.75 486.4 608.73 486.35 608.73 486.29 608.72 486.22 608.69 486.18 608.67 486.14 608.66 486.1 608.63 486.06 608.59 486.03 608.58 486.01 608.57 485.99 608.58 485.96 608.59 485.94 608.61 485.88 608.65 485.84 608.68 485.79 608.71 485.73 608.74 485.7 608.77 485.67 608.8 485.62 608.84 485.55 608.88 485.52 608.9 485.48 608.93 485.42 608.96 485.38 608.98 485.36 609 485.32 609.03 485.23 609.07 485.13 609.11 485.05 609.15 485.01 609.18 484.94 609.24 484.92 609.26 484.9 609.27 484.85 609.3 484.79 609.33 484.74 609.37 484.7 609.4 484.66 609.42 484.55 609.43 484.51 609.45 484.46 609.48 484.37 609.53 484.33 609.55 484.29 609.56 484.21 609.59 484.04 609.67 483.98 609.69 483.89 609.74 483.8 609.78 483.79 609.79 483.76 609.8 483.73 609.81 483.68 609.85 483.66 609.87 483.61 609.89 483.53 609.92 483.42 609.96 483.36 609.98 483.33 609.99 483.3 610.01 483.25 610.06 483.22 610.09 483.18 610.12 483.14 610.16 483.08 610.22 483.05 610.25 483.01 610.28 482.96 610.3 482.88 610.33 482.83 610.36 482.79 610.38 482.72 610.42 482.65 610.46 482.59 610.49 482.53 610.52 482.47 610.57 482.39 610.62 482.33 610.66 482.28 610.69 482.23 610.71 482.2 610.72 482.15 610.72 482.12 610.72 482.07 610.71 481.97 610.68 481.84 610.65 481.74 610.62 481.69 610.61 481.66 610.62 481.61 610.63 481.56 610.65 481.51 610.66 481.44 610.68 481.4 610.69 481.32 610.71 481.3 610.73 481.27 610.75 481.23 610.78 481.18 610.82 481.13 610.87 481.08 610.91 481.03 610.94 480.98 610.97 480.93 610.98 480.9 611.02 480.84 611.06 480.8 611.11 480.77 611.09 480.74 611.04 480.69 610.98 480.66 610.93 480.62 610.89 480.55 610.85 480.52 610.83 480.5 610.8 480.45 610.77 480.39 610.74 480.34 610.7 480.3 610.68 480.26 610.66 480.23 610.65 480.19 610.64 480.15 610.62 480.14 610.61 480.12 610.57 480.11 610.55 480.02 610.52 479.99 610.51 479.98 610.5 479.97 610.5 479.93 610.49 479.87 610.47 479.79 610.46 479.73 610.43 479.61 610.38 479.5 610.33 479.39 610.28 479.35 610.28 479.31 610.27 479.27 610.25 479.22 610.23 479.17 610.2 479.12 610.18 479.07 610.17 479.03 610.15 478.97 610.12 478.92 610.1 478.88 610.07 478.84 610.05 478.8 610.01 478.77 609.99 479.07 609.77 479.19 609.71 479.3 609.64 479.31 609.63 479.49 609.52 479.63 609.43 479.68 609.4 479.93 609.24 480.24 609.05 480.29 609.02 480.31 609.01 480.48 608.9 480.5 608.88 480.53 608.87 480.85 608.68 480.91 608.64 480.97 608.62 481.13 608.49 481.32 608.38 481.7 608.14 482.04 607.93 482.11 607.9 482.14 607.88 482.35 607.72 482.37 607.71 482.76 607.46 483.53 606.97 483.64 606.9 483.65 606.89 483.77 606.81 483.96 606.69 484.03 606.64 484.05 606.63 484.06 606.62 484.21 606.52 484.22 606.52 484.25 606.5 484.42 606.39 484.48 606.35 484.63 606.26 484.72 606.19 484.74 606.18 484.9 606.06 484.97 606.01 485.04 605.96 485.08 605.93 485.1 605.91 485.11 605.9 485.24 605.79 485.46 605.59 485.57 605.49 485.59 605.47 485.61 605.45 485.76 605.32 485.84 605.24 485.88 605.21 485.99 605.11 486.02 605.08 486.13 604.97 486.2 604.9 486.21 604.89 486.22 604.88 486.22 604.88 486.28 604.83 486.28 604.82 486.39 604.73 486.45 604.66 486.47 604.64 486.49 604.63 486.49 604.62 486.53 604.59 486.57 604.54 486.63 604.48 486.64 604.48 486.73 604.38 486.74 604.37 486.8 604.32 486.83 604.29 486.91 604.22 486.92 604.21 486.96 604.18 487.05 604.11 487.06 604.1 487.07 604.08 487.09 604.07 487.11 604.05 487.25 603.93 487.26 603.92 487.46 603.75 487.58 603.65 487.6 603.63 488.12 603.15 488.13 603.14 488.19 603.08 488.2 603.08 488.55 602.75 489.01 602.31 489.02 602.3 489.09 602.23 489.11 602.22 489.15 602.18 489.15 602.18 489.16 602.17 489.3 602.04 489.3 602.03 489.34 601.99 489.36 601.98 489.38 601.96 489.47 601.88 489.49 601.85 489.5 601.84 489.61 601.74 489.78 601.58 489.81 601.55 489.9 601.47 489.92 601.45 490.17 601.22 490.17 601.21 490.18 601.2 490.27 601.12 490.28 601.11 490.3 601.09 490.35 601.04 490.36 601.04 490.37 601.02 490.66 600.75 490.71 600.7 490.76 600.65 490.84 600.57 490.93 600.49 490.95 600.48 490.96 600.47 491 600.43 491.06 600.37 491.14 600.3 491.22 600.23 491.31 600.15 491.42 600.04 491.52 599.96 491.57 599.92 491.69 599.81 491.79 599.73 491.89 599.63 491.99 599.55 492.03 599.51 492.04 599.51 492.44 599.34 492.5 599.32 492.53 599.31 492.58 599.21 492.69 599.02 492.84 598.75 492.91 598.69 492.92 598.67 493.02 598.56 493.07 598.51 493.16 598.41 493.29 598.28 493.34 598.22 493.51 597.94 493.52 597.93 493.6 597.79 493.63 597.74 493.71 597.59 493.82 597.39 493.89 597.26 493.95 597.15 494.01 597.06 494.03 597.03 494.04 596.96 494.06 596.87 494.07 596.82 494.13 596.52 494.16 596.39 494.26 595.92 494.28 595.83 494.29 595.8 494.63 595.5 494.92 595.27 494.93 595.26 495 595.2 495.05 595.17 495.11 595.13 495.12 595.12 495.22 595.05 495.37 594.95 495.42 594.92 495.43 594.91 495.47 594.89 495.51 594.87 495.61 594.8 495.65 594.78 495.73 594.73 495.77 594.69 495.87 594.62 496 594.52 496.16 594.41 496.3 594.3 496.33 594.27 496.38 594.23 496.49 594.15 496.68 594 496.76 593.95 496.81 593.9 496.93 593.79 497.06 593.67 497.1 593.63 497.12 593.61 497.14 593.6 497.19 593.54 497.21 593.52 497.19 593.46 497.18 593.43 497.17 593.41 497.13 593.33 497.09 593.22 497.06 593.16 496.99 592.99 496.89 592.76 496.88 592.74 496.84 592.65 496.82 592.6 496.81 592.58 496.8 592.56 496.77 592.5 496.76 592.46 496.75 592.45 496.73 592.38 496.72 592.37 496.71 592.35 496.71 592.34 496.67 592.24 496.66 592.22 496.63 592.16 496.56 592.01 496.54 591.97 496.54 591.96 496.49 591.86 496.4 591.64 496.38 591.61 496.37 591.58 496.36 591.55 496.34 591.52 496.34 591.51 496.31 591.45 496.3 591.42 496.29 591.41 496.27 591.35 496.22 591.25 496.2 591.19 496.19 591.16 496.15 591.08 496.14 591.05 496.12 591.01 496.07 590.91 496.06 590.88 496.03 590.81 496.01 590.77 495.99 590.74 495.98 590.72 495.98 590.71 495.97 590.68 495.95 590.63 495.93 590.6 495.92 590.58 495.88 590.46 495.85 590.39 495.84 590.36 495.82 590.33 495.82 590.32 495.78 590.2 495.76 590.16 495.75 590.13 495.72 590.05 495.67 589.93 495.63 589.84 495.63 589.82 495.62 589.82 495.59 589.73 495.58 589.72 495.58 589.7 495.54 589.59 495.53 589.58 495.49 589.49 495.49 589.48 495.44 589.33 495.44 589.32 495.49 589.2 495.5 589.19 495.53 589.12 495.58 589.01 495.6 588.96 495.61 588.95 495.64 588.88 495.64 588.87 495.65 588.86 495.66 588.84 495.7 588.75 495.74 588.67 495.76 588.62 495.8 588.54 495.83 588.47 495.85 588.43 495.9 588.32 495.95 588.22 495.95 588.22 496 588.11 496.04 588.03 496.12 587.86 496.18 587.72 496.19 587.7 496.2 587.69 496.21 587.68 496.23 587.61 496.24 587.6 496.27 587.54 496.32 587.43 496.32 587.42 496.33 587.41 496.33 587.4 496.37 587.32 496.41 587.23 496.42 587.22 496.42 587.21 496.47 587.12 496.53 586.99 496.55 586.94 496.56 586.92 496.7 586.62 496.73 586.54 496.9 586.18 497 585.97 497.04 585.89 497.04 585.88 497.09 585.77 497.19 585.55 497.24 585.46 497.24 585.45 497.25 585.44 497.26 585.42 497.26 585.41 497.27 585.39 497.28 585.39 497.32 585.38 497.41 585.35 497.43 585.38 497.46 585.41 497.49 585.42 497.5 585.43 497.51 585.43 497.6 585.43 497.77 585.42 497.98 585.41 498.1 585.39 498.27 585.35 498.52 585.28 498.58 585.26 498.71 585.26 498.99 585.25 499.32 585.24 499.62 585.24 499.86 585.26 500.03 585.29 500.05 585.29 500.19 585.31 500.28 585.32 500.38 585.34 500.52 585.36 500.69 585.38 500.8 585.39 500.82 585.39 500.9 585.4 501.12 585.37 501.22 585.36 501.49 585.33 501.57 585.32 501.61 585.32 501.63 585.31 501.7 585.29 502.05 585.36 502.32 585.4 502.46 585.43 502.63 585.46 503.06 585.53 503.09 585.53 503.18 585.55 503.32 585.57 503.82 585.66 504.89 585.84 504.91 585.84 504.95 585.85 505.14 585.88 505.17 585.92 505.16 585.96 505.16 586 505.25 586.14 505.34 586.27 505.36 586.3 505.41 586.41 505.47 586.56 505.48 586.65 505.48 586.74 505.49 586.82 505.5 586.88 505.53 586.92 505.6 587.01 505.62 587.05 505.61 587.11 505.56 587.23 505.53 587.3 505.45 587.42 505.39 587.56 505.36 587.67 505.35 587.78 505.36 587.85 505.37 587.88 505.43 587.96 505.5 588.03 505.56 588.06 505.65 588.06 505.83 588.03 505.96 587.99 506.1 587.9 506.13 587.88 506.19 587.8 506.28 587.72 506.41 587.63 506.56 587.48 506.76 587.31 506.76 587.3 506.78 587.3 506.78 587.29 506.91 587.21 507.05 587.12 507.09 587.09 507.23 587.06 507.36 587.04 507.5 587.07 507.71 587.12 507.93 587.16 508.11 587.2 508.14 587.21 508.18 587.22 508.21 587.25 508.3 587.3 508.34 587.34 508.36 587.37 508.35 587.46 508.32 587.55 508.32 587.58 508.34 587.61 508.38 587.65 508.41 587.66 508.48 587.64 508.54 587.6 508.73 587.54 508.87 587.43 509.04 587.29 509.18 587.14 509.27 586.99 509.33 586.82 509.38 586.75 509.45 586.67 509.57 586.6 509.66 586.52 509.7 586.46 509.74 586.41 509.74 586.36 509.75 586.31 509.8 586.28 509.91 586.28 510.01 586.28 510.08 586.28 510.14 586.27 510.2 586.27 510.35 586.33 510.54 586.41 510.58 586.43 510.61 586.45 510.69 586.53 510.71 586.54 510.74 586.58 510.84 586.66 510.85 586.67 510.97 586.77 511.06 586.85 511.14 586.93 511.2 587 511.25 587.06 511.27 587.09 511.28 587.12 511.34 587.17 511.35 587.19 511.4 587.24 511.46 587.29 511.48 587.32 511.5 587.34 511.54 587.39 511.57 587.43 511.58 587.43 511.63 587.49 511.64 587.5 511.68 587.55 511.71 587.58 511.75 587.62 511.79 587.66 511.82 587.69 511.85 587.71 511.87 587.74 511.9 587.79 511.94 587.84 511.94 587.85 511.97 587.88 512.02 587.93 512.05 587.97 512.06 587.97 512.1 588.01 512.14 588.04 512.17 588.08 512.2 588.13 512.23 588.16 512.24 588.19 512.24 588.24 512.24 588.3 512.23 588.35 512.23 588.36 512.21 588.43 512.2 588.49 512.2 588.51 512.19 588.56 512.19 588.57 512.2 588.62 512.2 588.65 512.2 588.67 512.2 588.68 512.2 588.69 512.2 588.75 512.18 588.82 512.15 588.94 512.11 589.05 512.07 589.18 512.04 589.32 512.02 589.47 512 589.59 511.99 589.62 511.99 589.68 511.99 589.75 512 589.8 512 589.81 512 589.83 512.01 589.85 512.04 589.95 512.07 590.04 512.07 590.05 512.08 590.08 512.15 590.21 512.18 590.28 512.2 590.32 512.21 590.37 512.23 590.43 512.25 590.5 512.27 590.6 512.29 590.68 512.3 590.7 512.31 590.77 512.32 590.78 512.32 590.84 512.33 590.92 512.33 591.01 512.34 591.1 512.33 591.18 512.3 591.26 512.27 591.32 512.21 591.41 512.18 591.47 512.17 591.49 512.17 591.49 512.16 591.51 512.11 591.59 512.05 591.7 512.03 591.76 512 591.86 511.97 591.95 511.94 592.05 511.92 592.14 511.9 592.23 511.89 592.31 511.88 592.38 511.87 592.43 511.88 592.49 511.89 592.55 511.9 592.59 511.9 592.61 511.9 592.63 511.89 592.66 511.89 592.72 511.88 592.78 511.86 592.84 511.84 592.89 511.83 592.92 511.82 592.94 511.82 592.95 511.81 592.98 511.8 593.02 511.79 593.02 511.78 593.07 511.78 593.15 511.78 593.19 511.79 593.23 511.79 593.28 511.79 593.32 511.79 593.36 511.79 593.38 511.78 593.42 511.77 593.46 511.76 593.54 511.76 593.56 511.76 593.58 511.76 593.6 511.76 593.62 511.76 593.64 511.76 593.67 511.76 593.69 511.77 593.72 511.77 593.75 511.78 593.78 511.81 593.85 511.81 593.87 511.82 593.89 511.84 593.93 511.86 593.96 511.86 593.97 511.87 593.99 511.88 594.01 511.92 594.08 511.94 594.13 511.97 594.17 512 594.22 512.02 594.27 512.04 594.3 512.08 594.37 512.11 594.42 512.14 594.47 512.2 594.56 512.21 594.58 512.22 594.59 512.26 594.64 512.3 594.7 512.34 594.76 512.39 594.82 512.4 594.83 512.4 594.84 512.42 594.87 512.46 594.95 512.48 595 512.51 595.06 512.53 595.09 512.53 595.1 512.54 595.12 512.55 595.13 512.6 595.24 512.64 595.35 512.68 595.47 512.72 595.59 512.76 595.75 512.77 595.81 512.79 595.86 512.8 595.87 512.81 595.91 512.83 595.95 512.84 595.98 512.86 596.02 512.87 596.03 512.92 596.12 512.99 596.23 513.04 596.32 513.08 596.4 513.1 596.47 513.13 596.54 513.17 596.64 513.2 596.7 513.2 596.71 513.23 596.79 513.26 596.86 513.28 596.95 513.33 597.1 513.39 597.26 513.4 597.27 513.4 597.28 513.41 597.31 513.44 597.38 513.51 597.52 513.56 597.61 513.56 597.62 513.58 597.67 513.6 597.71 513.64 597.86 513.66 597.93 513.66 597.95 513.69 598.05 513.72 598.2 513.73 598.22 513.76 598.34 513.79 598.42 513.81 598.47 513.82 598.51 513.83 598.58 513.84 598.61 513.85 598.65 513.85 598.68 513.85 598.7 513.85 598.71 513.86 598.75 513.86 598.78 513.86 598.8 513.86 598.81 513.85 598.83 513.85 598.88 513.86 598.9 513.86 598.92 513.87 598.97 513.89 599.01 513.9 599.03 513.9 599.05 513.93 599.12 513.97 599.19 514 599.24 514.03 599.3 514.07 599.35 514.11 599.4 514.16 599.44 514.19 599.45 514.21 599.46 514.26 599.46 514.35 599.47 514.43 599.47 514.51 599.46 514.51 599.46 514.52 599.46 514.53 599.46 514.54 599.47 514.54 599.49 514.57 599.46 514.63 599.43 514.68 599.4 514.71 599.38 514.74 599.37 514.78 599.36 514.81 599.34 514.88 599.31 514.96 599.25 515 599.21 515.01 599.18 515.03 599.12 515.04 599.06 515.06 599.03 515.07 599 515.09 598.97 515.12 598.93 515.18 598.87 515.22 598.81 515.25 598.77 515.27 598.72 515.28 598.65 515.31 598.59 515.33 598.55 515.34 598.53 515.37 598.51 515.43 598.46 515.48 598.42 515.5 598.39 515.53 598.36 515.55 598.32 515.57 598.3 515.57 598.25 515.57 598.24 515.57 598.21 515.55 598.18 515.54 598.17 515.52 598.14 515.51 598.13 515.51 598.11 515.51 598.09 515.52 598.08 515.53 598.06 515.56 598.04 515.6 598.02 515.63 598 515.66 597.97 515.7 597.96 515.73 597.94 515.75 597.93 515.76 597.91 515.78 597.87 515.79 597.83 515.79 597.8 515.78 597.76 515.76 597.73 515.74 597.7 515.72 597.68 515.7 597.65 515.68 597.63 515.66 597.61 515.65 597.59 515.65 597.56 515.65 597.52 515.65 597.51 515.66 597.49 515.68 597.48 515.71 597.47 515.73 597.47 515.78 597.46 515.8 597.46 515.83 597.46 515.87 597.46 515.91 597.47 515.95 597.48 515.97 597.49 515.99 597.49 516.05 597.5 516.09 597.52 516.11 597.52 516.15 597.53 516.18 597.53 516.21 597.53 516.25 597.53 516.27 597.53 516.29 597.52 516.31 597.52 516.33 597.52 516.35 597.51 516.38 597.49 516.41 597.47 516.45 597.44 516.48 597.42 516.51 597.39 516.54 597.36 516.56 597.35 516.57 597.35 516.6 597.37 516.59 597.39 516.56 597.42 516.49 597.51 516.5 597.52 516.51 597.53 516.52 597.54 516.56 597.56 516.59 597.58 516.52 597.72 516.45 597.86 516.46 597.87 516.69 598.04 516.7 598.05 516.7 598.07 516.69 598.11 516.69 598.12 516.68 598.13 516.66 598.14 516.65 598.17 516.64 598.18 516.69 598.2 516.71 598.2 516.72 598.18 516.74 598.16 516.75 598.17 516.84 598.2 516.96 598.25 517.11 598.3 517.2 598.33 517.22 598.25 517.24 598.18 517.25 598.15 517.27 598.13 517.29 598.11 517.31 598.08 517.33 598.06 517.36 598.01 517.41 597.91 517.41 597.89 517.45 597.81 517.46 597.77 517.46 597.75 517.45 597.74 517.44 597.73 517.43 597.72 517.41 597.68 517.39 597.62 517.38 597.58 517.38 597.57 517.38 597.56 517.42 597.54 517.47 597.51 517.49 597.5 517.53 597.48 517.58 597.46 517.61 597.44 517.68 597.42 517.74 597.4 517.83 597.37 517.91 597.34 517.94 597.33 518.01 597.3 518.09 597.26 518.19 597.21 518.23 597.18 518.24 597.18 518.27 597.17 518.28 597.16 518.29 597.15 518.3 597.19 518.3 597.2 518.31 597.24 518.31 597.28 518.33 597.29 518.34 597.29 518.36 597.29 518.41 597.31 518.47 597.33 518.5 597.34 518.56 597.34 518.57 597.35 518.6 597.35 518.63 597.37 518.66 597.38 518.68 597.38 518.69 597.39 518.7 597.4 518.74 597.44 518.78 597.47 518.8 597.5 518.81 597.51 518.83 597.53 518.87 597.55 518.88 597.56 518.89 597.58 518.93 597.61 518.95 597.64 518.97 597.67 519.01 597.7 519.03 597.73 519.05 597.75 519.07 597.77 519.1 597.8 519.12 597.83 519.12 597.83 519.13 597.85 519.14 597.87 519.15 597.9 519.16 597.93 519.16 597.94 519.17 597.95 519.19 597.96 519.2 597.96 519.21 597.97 519.23 597.98 519.24 597.99 519.25 598.01 519.27 598.04 519.29 598.06 519.26 598.09 519.23 598.12 519.2 598.14 519.17 598.16 519.13 598.18 519.09 598.19 519.05 598.2 519.02 598.22 518.99 598.22 518.96 598.22 518.95 598.22 518.92 598.24 518.88 598.26 518.84 598.29 518.8 598.32 518.77 598.35 518.7 598.36 518.65 598.37 518.64 598.37 518.61 598.38 518.65 598.38 518.71 598.39 518.75 598.38 518.79 598.36 518.82 598.33 518.87 598.3 518.91 598.27 518.94 598.26 518.97 598.25 519 598.25 519.04 598.25 519.06 598.25 519.08 598.25 519.09 598.24 519.12 598.21 519.14 598.2 519.16 598.19 519.18 598.19 519.21 598.18 519.22 598.18 519.24 598.19 519.25 598.19 519.26 598.2 519.26 598.22 519.27 598.25 519.28 598.28 519.28 598.29 519.3 598.29 519.34 598.28 519.36 598.27 519.38 598.27 519.39 598.28 519.4 598.28 519.42 598.28 519.43 598.27 519.45 598.26 519.47 598.25 519.48 598.25 519.49 598.26 519.5 598.27 519.51 598.28 519.52 598.28 519.53 598.28 519.57 598.29 519.6 598.29 519.63 598.3 519.67 598.3 519.7 598.31 519.73 598.32 519.78 598.31 519.81 598.31 519.85 598.32 519.85 598.31 519.85 598.3 519.83 598.28 519.81 598.26 519.8 598.24 519.8 598.22 519.8 598.2 519.82 598.15 519.81 598.12 519.81 598.1 519.82 598.09 519.84 598.07 519.85 598.07 519.86 598.07 519.88 598.06 519.91 598.05 519.94 598.02 519.97 598 520 597.98 520.02 597.97 520.05 597.97 520.08 597.96 520.1 597.97 520.12 597.97 520.13 598.02 520.18 598.06 520.23 598.1 520.29 598.14 520.35 598.18 520.41 598.22 520.46 598.26 520.51 598.28 520.55 598.3 520.63 598.35 520.66 598.37 520.68 598.35 520.7 598.3 520.72 598.28 520.74 598.25 520.75 598.22 520.76 598.2 520.76 598.18 520.77 598.16 520.78 598.14 520.78 598.14 520.78 598.13 520.79 598.1 520.8 598.06 520.8 598.05 520.8 598.01 520.81 597.96 520.82 597.92 520.82 597.88 520.83 597.85 520.83 597.83 520.83 597.81 520.83 597.79 520.82 597.76 520.8 597.73 520.79 597.71 520.76 597.68 520.74 597.66 520.71 597.64 520.69 597.63 520.66 597.62 520.62 597.62 520.58 597.61 520.56 597.61 520.53 597.61 520.5 597.63 520.47 597.65 520.45 597.66 520.43 597.69 520.41 597.72 520.39 597.75 520.38 597.77 520.36 597.79 520.34 597.8 520.32 597.83 520.31 597.86 520.3 597.88 520.29 597.91 520.28 597.93 520.26 597.95 520.24 597.96 520.21 597.98 520.2 597.98 520.17 597.97 520.15 597.97 520.14 597.96 520.13 597.9 520.11 597.78 520.1 597.67 520.09 597.56 520.08 597.46 520.08 597.4 520.07 597.38 520.11 597.37 520.16 597.36 520.22 597.35 520.3 597.34 520.35 597.33 520.39 597.32 520.43 597.31 520.45 597.3 520.47 597.3 520.5 597.3 520.52 597.3 520.53 597.31 520.55 597.32 520.56 597.33 520.58 597.35 520.59 597.36 520.61 597.37 520.64 597.37 520.67 597.37 520.71 597.37 520.73 597.37 520.74 597.37 520.75 597.37 520.75 597.34 520.74 597.3 520.73 597.28 520.72 597.26 520.67 597.26 520.64 597.25 520.61 597.23 520.59 597.2 520.59 597.19 520.59 597.19 520.59 597.17 520.62 597.16 520.66 597.16 520.71 597.13 520.74 597.11 520.78 597.09 520.82 597.06 520.86 597.03 520.91 597 520.96 596.97 521 596.93 521.02 596.89 521.04 596.85 521.04 596.82 521.05 596.81 521.06 596.79 521.06 596.78 521.07 596.76 521.09 596.73 521.11 596.7 521.13 596.69 521.15 596.68 521.16 596.67 521.18 596.67 521.21 596.66 521.23 596.64 521.25 596.63 521.26 596.61 521.29 596.57 521.31 596.55 521.34 596.51 521.36 596.49 521.39 596.47 521.4 596.47 521.41 596.46 521.44 596.43 521.45 596.41 521.46 596.39 521.47 596.37 521.5 596.33 521.52 596.29 521.53 596.27 521.54 596.27 521.57 596.24 521.6 596.22 521.62 596.2 521.64 596.19 521.65 596.19 521.66 596.18 521.66 596.16 521.66 596.14 521.66 596.13 521.65 596.11 521.65 596.09 521.65 596.08 521.66 596.07 521.68 596.02 521.7 596 521.73 595.98 521.77 595.96 521.79 595.95 521.81 595.92 521.82 595.9 521.82 595.89 521.85 595.87 521.87 595.86 521.88 595.86 521.9 595.85 521.92 595.85 521.92 595.88 521.93 595.89 521.94 595.89 521.98 595.87 521.99 595.86 522 595.86 522.06 595.81 522.07 595.8 522.08 595.8 522.13 595.75 522.14 595.74 522.16 595.72 522.19 595.71 522.23 595.66 522.25 595.62 522.27 595.58 522.27 595.54 522.28 595.5 522.28 595.48 522.28 595.46 522.3 595.43 522.31 595.39 522.33 595.34 522.35 595.31 522.36 595.28 522.36 595.26 522.36 595.24 522.36 595.22 522.35 595.2 522.33 595.18 522.29 595.16 522.26 595.15 522.24 595.13 522.23 595.11 522.23 595.1 522.23 595.09 522.24 595.05 522.24 595.02 522.24 595 522.25 594.98 522.26 594.96 522.28 594.93 522.29 594.92 522.3 594.92 522.31 594.88 522.32 594.86 522.33 594.85 522.34 594.84 522.36 594.82 522.38 594.79 522.39 594.76 522.4 594.73 522.39 594.7 522.39 594.69 522.36 594.68 522.35 594.67 522.35 594.65 522.35 594.62 522.35 594.62 522.36 594.59 522.36 594.58 522.36 594.56 522.37 594.54 522.37 594.52 522.38 594.51 522.38 594.5 522.45 594.46 522.5 594.43 522.54 594.41 522.57 594.39 522.58 594.38 522.58 594.36 522.57 594.34 522.56 594.33 522.56 594.3 522.57 594.27 522.58 594.21 522.58 594.16 522.58 594.14 522.58 594.13 522.6 594.11 522.63 594.07 522.72 594.01 522.74 593.98 522.75 593.95 522.77 593.92 522.78 593.89 522.8 593.88 Z"/>
</g></svg>