<svg xmlns="http://www.w3.org/2000/svg" version="1.2" baseProfile="tiny" stroke-linecap="round" stroke-linejoin="round" viewBox="500.87 532.95 23.37 26.78"><g xmlns="http://www.w3.org/2000/svg" id="Castejón">
<path d="M 512.15 532.95 512.16 532.99 512.14 533.04 512.12 533.09 512.11 533.12 512.01 533.45 511.47 535.31 511.47 535.32 511.46 535.34 511.46 535.35 511.46 535.37 511.45 535.38 511.45 535.39 511.45 535.41 511.45 535.42 511.44 535.44 511.43 535.45 511.43 535.47 511.42 535.48 511.41 535.5 511.41 535.51 511.4 535.52 511.4 535.54 511.39 535.55 511.39 535.56 511.39 535.57 511.38 535.59 511.38 535.6 511.38 535.61 511.37 535.63 511.37 535.64 511.36 535.66 511.36 535.68 511.36 535.69 511.36 535.71 511.35 535.72 511.35 535.75 511.35 535.75 511.35 535.76 511.34 535.77 511.34 535.8 511.33 535.85 511.33 535.9 511.33 535.91 511.33 535.92 511.33 535.92 511.32 535.94 511.32 535.95 511.29 536.23 511.29 536.24 511.25 536.52 511.22 536.72 512.5 536.63 512.65 536.62 512.86 536.63 513 536.64 513.13 536.68 513.23 536.73 513.33 536.79 513.46 536.88 513.54 536.96 513.62 537.06 513.71 537.19 513.79 537.32 513.87 537.49 513.9 537.59 513.91 537.72 513.9 537.91 513.87 538.13 513.83 538.3 513.79 538.47 513.76 538.58 513.74 538.68 513.74 538.76 513.75 538.82 513.76 538.87 513.78 538.94 513.8 538.99 513.83 539.05 513.89 539.12 513.94 539.19 514.01 539.25 514.08 539.32 514.25 539.45 514.4 539.55 514.54 539.63 514.59 539.66 514.71 539.72 514.87 539.79 515.04 539.86 515.22 539.92 515.41 539.99 515.57 540.03 515.71 540.07 515.83 540.09 516 540.11 516.19 540.12 516.35 540.11 516.44 540.1 516.57 540.06 516.67 540 516.73 539.96 516.81 539.89 516.92 539.78 517.01 539.67 517.1 539.53 517.2 539.39 517.33 539.21 517.45 539.05 517.58 538.9 517.77 538.69 517.96 538.51 518.14 538.35 518.31 538.22 518.54 538.1 518.73 538.04 518.89 538.01 519.02 538.02 519.13 538.04 519.24 538.08 519.36 538.14 519.47 538.21 519.61 538.32 519.74 538.44 519.88 538.59 520.04 538.78 520.16 538.94 520.29 539.13 520.38 539.27 520.41 539.34 520.43 539.4 520.43 539.47 520.41 539.57 520.37 539.64 520.32 539.71 520.24 539.79 520.16 539.87 520.1 539.91 520.03 539.95 520.19 540.14 520.21 540.16 520.22 540.15 520.26 540.13 520.29 540.11 520.33 540.08 520.36 540.06 520.4 540.04 520.43 540.01 520.47 539.99 520.5 539.96 520.54 539.94 520.57 539.92 520.61 539.89 520.64 539.86 520.67 539.84 520.71 539.81 520.74 539.79 520.75 539.78 520.76 539.76 520.78 539.75 520.79 539.75 520.8 539.74 520.81 539.73 520.82 539.71 520.85 539.68 520.87 539.65 520.88 539.64 520.95 539.56 520.96 539.55 521.02 539.48 521.07 539.41 521.05 539.39 521.02 539.33 521.01 539.26 521.01 539.2 521.01 539.18 521 539.15 520.96 539.09 520.89 539 520.81 538.9 520.72 538.81 520.66 538.74 520.54 538.67 520.53 538.66 520.52 538.66 520.51 538.66 520.5 538.64 520.49 538.64 520.48 538.63 520.47 538.61 520.46 538.61 520.45 538.6 520.43 538.6 520.42 538.6 520.4 538.59 520.39 538.58 520.21 538.3 520.18 538.26 519.78 537.71 519.37 537.39 518.97 537.11 518.95 536.96 518.92 536.52 518.92 536.51 518.92 536.47 518.92 536.39 518.93 536.35 518.94 536.29 518.95 536.23 518.97 536.19 518.98 536.15 519 536.12 519.04 536.06 519.07 536.02 519.11 535.98 519.16 535.96 519.23 535.92 519.3 535.89 519.4 535.83 519.46 535.79 519.53 535.74 519.61 535.7 519.67 535.67 519.75 535.63 519.82 535.61 519.88 535.59 519.94 535.58 520.01 535.57 520.07 535.57 520.15 535.57 520.25 535.57 520.32 535.57 520.4 535.57 520.48 535.57 520.56 535.58 520.65 535.59 520.72 535.61 520.8 535.63 520.87 535.65 520.95 535.68 520.99 535.69 521.11 535.76 521.18 535.79 521.26 535.84 521.29 535.87 521.35 535.91 521.4 535.96 521.44 536.01 521.48 536.06 521.5 536.09 521.52 536.13 521.54 536.17 521.55 536.22 521.57 536.27 521.59 536.33 521.61 536.39 521.63 536.44 521.65 536.48 521.67 536.54 521.69 536.58 521.72 536.63 521.75 536.7 521.8 536.79 521.82 536.85 521.85 536.89 521.88 536.94 521.91 537 521.94 537.05 521.98 537.12 522.02 537.18 522.04 537.22 522.05 537.25 522.1 537.31 522.13 537.37 522.16 537.43 522.15 537.54 522.13 537.69 522.13 537.7 522.13 537.72 522.11 537.8 522.1 537.93 522.09 538.08 522.09 538.11 522.09 538.14 522.09 538.21 522.1 538.35 522.1 538.41 522.09 538.46 522.1 538.57 522.11 538.69 522.11 538.71 522.11 538.8 522.11 538.9 522.11 538.95 522.11 539.08 522.12 539.15 522.13 539.23 522.13 539.25 522.13 539.29 522.13 539.34 522.14 539.36 522.14 539.4 522.16 539.47 522.17 539.5 522.19 539.58 522.19 539.61 522.21 539.68 522.21 539.71 522.23 539.82 522.25 539.91 522.25 539.93 522.24 539.96 522.24 539.99 522.21 540.03 522.18 540.06 522.09 540.2 522.07 540.24 522.05 540.29 521.97 540.46 521.93 540.51 521.83 540.62 521.72 540.71 521.64 540.78 521.58 540.84 521.54 540.9 521.49 540.96 521.45 541.02 521.38 541.17 521.33 541.28 521.26 541.43 521.15 541.69 521.03 541.97 520.96 542.13 520.82 542.43 520.68 542.76 520.76 542.82 520.85 542.87 520.94 542.91 521.01 542.93 521.09 542.93 521.16 542.92 521.24 542.88 521.3 542.82 521.38 542.75 521.45 542.65 521.52 542.55 521.57 542.45 521.64 542.33 521.68 542.25 521.79 541.99 521.91 541.71 522 541.51 522.04 541.41 522.07 541.35 522.1 541.24 522.15 541.18 522.23 541.1 522.31 541.03 522.37 540.98 522.43 540.94 522.48 540.9 522.53 540.87 522.57 540.85 522.61 540.84 522.65 540.83 522.7 540.81 522.75 540.81 522.81 540.8 522.86 540.81 522.92 540.81 523 540.82 523.1 540.84 523.19 540.86 523.28 540.88 523.29 540.89 523.38 540.91 523.45 540.94 523.51 540.97 523.58 541 523.65 541.05 523.72 541.09 523.79 541.13 523.85 541.18 523.93 541.24 523.99 541.3 524.05 541.35 524.07 541.38 524.11 541.46 524.15 541.56 524.18 541.64 524.2 541.71 524.17 541.76 523.78 541.96 523.72 542 522.97 542.38 522.85 542.44 522.13 542.8 522.09 542.81 521.86 542.9 521.57 543.01 521.43 543.06 521.36 543.09 521.29 543.12 521.21 543.16 521.12 543.2 521.06 543.22 521.01 543.22 520.96 543.21 520.87 543.17 520.77 543.13 520.69 543.1 520.67 543.09 520.67 543.11 520.78 543.23 520.98 543.43 521.05 543.49 521.09 543.54 521.14 543.58 521.15 543.6 521.31 543.79 521.47 544.02 521.49 544.03 521.5 544.04 521.54 544.1 521.61 544.2 521.64 544.28 521.68 544.36 521.71 544.42 521.77 544.48 521.78 544.5 521.79 544.51 521.81 544.55 521.85 544.62 521.89 544.69 521.92 544.76 521.94 544.82 521.98 544.9 522.02 544.96 522.07 545.02 522.09 545.07 522.11 545.11 522.12 545.15 522.12 545.2 522.14 545.23 522.17 545.28 522.25 545.39 522.31 545.48 522.38 545.59 522.43 545.65 522.53 545.74 522.63 545.83 522.63 545.84 522.63 545.85 522.62 545.86 522.61 545.87 522.6 545.89 522.57 545.9 522.48 545.91 522.41 545.93 522.31 545.99 522.19 546.06 522.12 546.12 522.05 546.17 522.04 546.18 521.97 546.24 521.88 546.32 521.79 546.39 521.36 546.7 521.03 546.95 521.01 546.96 520.77 547.14 520.65 547.23 520.5 547.37 520.34 547.51 520.27 547.57 520.24 547.58 520.22 547.58 520.19 547.59 520.02 547.56 519.96 547.55 519.83 547.53 519.7 547.58 519.48 547.64 518.51 547.93 518.2 548.01 517.49 548.23 516.6 548.49 516.25 548.61 516.23 548.62 515.89 548.73 515.68 548.81 515.67 548.81 515.64 548.83 515.56 548.86 515.52 548.87 515.5 548.88 515.44 548.9 515.4 548.92 515.29 548.95 515.17 549 514.84 549.11 514.78 549.13 514.57 549.2 514.45 549.24 514.39 549.26 514.33 549.35 514.24 549.48 514.13 549.66 514.08 549.74 513.71 550.31 513.73 550.35 513.76 550.43 513.8 550.51 513.8 550.52 513.8 550.52 513.81 550.53 513.88 550.71 513.9 550.76 513.92 550.81 513.95 550.87 513.96 550.9 514.01 551.02 514.03 551.08 514.09 551.21 514.09 551.22 514.08 551.26 514.02 551.47 514.01 551.52 514.01 551.54 514 551.58 513.99 551.59 513.97 551.67 513.95 551.76 513.95 551.79 513.94 551.8 513.94 551.81 513.87 552.06 513.87 552.07 513.87 552.08 513.83 552.25 513.81 552.3 513.81 552.33 513.65 552.45 513.42 552.63 513.28 552.75 513.22 552.79 512.73 553.19 512.72 553.2 512.7 553.21 512.64 553.25 512.64 553.26 512.38 553.5 512.36 553.53 512.1 553.76 512.09 553.77 512.06 553.8 511.96 553.89 511.64 554.18 511.61 554.2 511.49 554.31 511.15 554.65 510.8 555 510.58 555.23 510.54 555.27 510.53 555.28 510.47 555.34 510.39 555.42 510.25 555.56 510.14 555.67 510.1 555.7 510.09 555.71 510.04 555.76 510 555.8 510 555.8 509.98 555.82 509.95 555.84 509.94 555.85 509.93 555.87 509.92 555.87 509.88 555.91 509.83 555.98 509.8 556.02 509.8 556.03 509.76 556.1 509.75 556.12 509.69 556.24 509.68 556.25 509.68 556.26 509.63 556.34 509.56 556.48 509.48 556.64 509.35 556.87 509.35 556.88 509.31 556.95 509.26 557.05 509.21 557.12 509.2 557.14 509.18 557.17 509.16 557.21 509.15 557.23 509.14 557.24 509.12 557.28 509.09 557.31 508.96 557.46 508.82 557.63 508.8 557.65 508.78 557.67 508.67 557.8 508.62 557.88 508.54 557.97 508.52 557.99 508.42 558.11 508.4 558.14 508.18 558.52 508.09 558.66 508.04 558.75 508.03 558.77 508.02 558.78 508 558.8 507.81 558.95 507.54 559.13 507.41 559.23 507.36 559.27 507.34 559.29 507.32 559.31 507.04 559.62 507.03 559.62 506.97 559.7 506.91 559.66 506.84 559.6 506.83 559.6 506.81 559.58 506.78 559.56 506.68 559.49 506.65 559.46 506.59 559.41 506.46 559.32 506.34 559.23 506.11 559.06 506.03 558.99 505.97 558.94 505.95 558.93 505.82 558.83 505.79 558.81 505.76 558.79 505.69 558.74 505.67 558.71 505.65 558.7 505.63 558.69 505.62 558.68 505.56 558.63 505.55 558.63 505.51 558.6 505.4 558.51 505.34 558.47 505.32 558.45 505.25 558.38 505.09 558.25 505.01 558.18 504.95 558.14 504.78 557.99 504.74 557.97 504.72 557.96 504.62 557.87 504.49 557.76 504.47 557.74 504.46 557.73 504.45 557.72 504.44 557.71 504.43 557.7 504.43 557.7 504.41 557.68 504.31 557.6 504.11 557.45 504.1 557.44 503.85 557.24 503.68 557.09 503.67 557.09 503.5 556.96 503.36 556.84 503.07 556.6 502.91 556.48 502.74 556.34 502.66 556.27 502.65 556.27 502.64 556.26 502.52 556.16 502.46 556.11 502.45 556.1 502.44 556.1 502.42 556.08 502.25 555.94 501.98 555.73 501.83 555.61 501.82 555.6 501.57 555.41 501.45 555.31 501.44 555.31 501.43 555.3 501.36 555.25 501.35 555.24 501.31 555.21 501.1 555.04 500.98 554.95 500.95 554.92 500.89 554.87 501.03 554.78 501.15 554.72 501.34 554.61 501.58 554.49 501.62 554.47 501.72 554.41 501.87 554.34 502.01 554.27 502.21 554.17 502.3 554.12 502.38 554.09 502.42 554.08 502.43 554.07 502.49 554.05 502.55 554.03 502.59 554.03 502.6 554.03 502.63 554.02 502.67 554.01 502.71 554 502.75 553.98 502.81 553.96 502.88 553.93 502.95 553.91 503.05 553.88 503.12 553.85 503.2 553.81 503.21 553.8 503.25 553.78 503.29 553.76 503.31 553.75 503.34 553.73 503.38 553.72 503.42 553.72 503.45 553.71 503.46 553.71 503.48 553.71 503.51 553.71 503.55 553.71 503.62 553.7 503.7 553.69 503.77 553.66 503.85 553.63 503.96 553.6 504.02 553.57 504.12 553.5 504.2 553.44 504.25 553.4 504.32 553.36 504.36 553.32 504.43 553.25 504.49 553.18 504.56 553.1 504.56 553.08 504.62 553.03 504.72 552.94 504.82 552.86 504.92 552.78 505.01 552.7 505.04 552.67 505.06 552.62 505.11 552.57 505.16 552.51 505.23 552.46 505.28 552.45 505.31 552.45 505.36 552.42 505.44 552.37 505.53 552.31 505.66 552.23 505.73 552.2 505.79 552.18 505.83 552.15 505.89 552.1 505.96 552.02 506.02 551.94 506.04 551.92 506.13 551.81 506.2 551.72 506.29 551.61 506.39 551.51 506.52 551.4 506.63 551.31 506.69 551.24 506.73 551.2 506.77 551.17 506.82 551.09 506.88 551 506.97 550.94 507.05 550.85 507.12 550.78 507.25 550.7 507.38 550.61 507.47 550.51 507.57 550.43 507.7 550.31 507.83 550.21 507.92 550.15 508.04 550.07 508.14 550 508.15 549.99 508.31 549.9 508.46 549.76 508.48 549.72 508.53 549.69 508.56 549.67 508.61 549.65 508.64 549.63 508.69 549.6 508.75 549.56 508.79 549.53 508.82 549.52 508.85 549.49 508.9 549.43 508.99 549.35 509 549.34 509.02 549.31 509.06 549.27 509.09 549.23 509.11 549.2 509.17 549.11 509.21 549.05 509.22 549.04 509.26 548.99 509.27 548.97 509.28 548.94 509.31 548.89 509.32 548.88 509.34 548.87 509.37 548.86 509.39 548.84 509.43 548.84 509.46 548.83 509.49 548.81 509.55 548.78 509.59 548.75 509.64 548.72 509.72 548.69 509.81 548.65 509.94 548.58 509.99 548.56 510.04 548.53 510.1 548.51 510.13 548.5 510.14 548.5 510.16 548.49 510.18 548.49 510.22 548.48 510.28 548.47 510.36 548.45 510.43 548.43 510.46 548.42 510.51 548.4 510.57 548.38 510.66 548.34 510.72 548.3 510.85 548.24 510.88 548.23 510.9 548.22 510.96 548.21 510.98 548.21 510.99 548.21 511 548.21 511.04 548.22 511.06 548.22 511.07 548.22 511.11 548.2 511.14 548.19 511.17 548.17 511.22 548.15 511.23 548.14 511.25 548.12 511.33 548.08 511.48 547.98 511.72 547.83 511.83 547.77 511.89 547.74 511.99 547.7 512.07 547.65 512.12 547.62 512.24 547.55 512.4 547.45 512.47 547.4 512.48 547.39 512.5 547.38 512.47 547.34 512.42 547.29 512.4 547.27 512.35 547.25 512.33 547.24 512.31 547.22 512.27 547.18 512.12 547.03 512.04 546.95 511.97 546.89 511.92 546.84 511.88 546.82 511.87 546.8 511.85 546.79 511.84 546.78 511.82 546.77 511.71 546.67 511.64 546.6 511.55 546.52 511.5 546.48 511.46 546.44 511.44 546.42 511.41 546.4 511.4 546.38 511.38 546.36 511.35 546.32 511.32 546.3 511.3 546.27 511.26 546.24 511.24 546.22 511.2 546.2 511.15 546.17 511.12 546.15 511.1 546.13 511.09 546.13 511.05 546.1 510.97 546.06 510.91 546.01 510.89 545.99 510.87 545.97 510.84 545.94 510.81 545.9 510.8 545.88 510.78 545.86 510.76 545.84 510.73 545.82 510.68 545.78 510.63 545.75 510.59 545.72 510.55 545.71 510.51 545.7 510.49 545.69 510.46 545.68 510.41 545.67 510.39 545.67 510.35 545.65 510.31 545.64 510.27 545.62 510.22 545.6 510.18 545.58 510.12 545.56 510.09 545.55 510.03 545.53 509.97 545.51 509.9 545.49 509.8 545.47 509.54 545.39 509.29 545.32 509.11 545.26 509.05 545.24 509 545.23 508.95 545.2 508.9 545.16 508.85 545.13 508.79 545.11 508.61 545.03 508.53 544.99 508.52 544.98 508.45 544.93 508.37 544.87 508.35 544.86 508.35 544.84 508.37 544.8 508.37 544.79 508.36 544.78 508.35 544.76 508.28 544.68 508.24 544.64 508.23 544.62 508.2 544.53 508.1 544.3 508.07 544.23 508.06 544.21 508.05 544.18 508.04 544.15 508.02 544.07 508.01 544.04 508 544.02 507.99 543.99 507.97 543.97 507.9 543.87 507.76 543.65 507.73 543.62 507.65 543.51 507.61 543.44 507.55 543.37 507.52 543.31 507.48 543.27 507.46 543.23 507.44 543.21 507.43 543.18 507.41 543.15 507.38 543.12 507.35 543.08 507.31 543.04 507.22 542.89 507.2 542.85 507.19 542.83 507.18 542.81 507.17 542.72 507.15 542.65 507.12 542.56 507.09 542.46 507.02 542.3 506.96 542.16 506.96 542.14 506.86 541.88 506.75 541.65 506.73 541.6 506.7 541.55 506.67 541.47 506.63 541.4 506.58 541.33 506.57 541.27 506.56 541.24 506.55 541.21 506.54 541.2 506.53 541.15 506.48 540.99 506.45 540.86 506.45 540.74 506.43 540.66 506.39 540.54 506.39 540.51 506.37 540.41 506.37 540.31 506.36 540.23 506.34 540.09 506.32 539.99 506.32 539.96 506.32 539.93 506.31 539.85 506.29 539.76 506.28 539.65 506.25 539.49 506.22 539.34 506.21 539.21 506.2 539.07 506.21 539.01 506.25 538.94 506.29 538.83 506.32 538.77 506.32 538.76 506.33 538.73 506.34 538.71 506.36 538.66 506.4 538.57 506.44 538.44 506.45 538.42 506.47 538.38 506.47 538.37 506.49 538.31 506.54 538.2 506.55 538.18 506.56 538.13 506.6 538.05 506.61 538.02 506.63 537.96 506.66 537.88 506.72 537.78 506.76 537.66 506.8 537.54 506.86 537.37 506.93 537.17 506.96 537.08 506.96 537.07 506.97 537.06 506.99 536.97 507.04 536.84 507.05 536.83 507.07 536.73 507.08 536.72 507.09 536.61 507.12 536.52 507.13 536.46 507.16 536.33 507.24 536.26 507.4 536.11 507.57 535.97 507.66 535.89 507.79 535.77 507.83 535.73 507.87 535.7 507.97 535.61 508.01 535.57 508.13 535.47 508.23 535.37 508.36 535.28 508.44 535.21 508.52 535.16 508.65 535.09 508.79 535.01 508.9 534.94 509.08 534.83 509.41 534.64 509.55 534.55 509.68 534.47 509.79 534.41 509.92 534.33 510.04 534.26 510.07 534.24 510.14 534.2 510.26 534.13 510.42 534.03 510.51 533.98 510.56 533.94 510.72 533.85 510.94 533.71 511.16 533.58 511.37 533.45 511.43 533.41 511.61 533.3 511.92 533.1 512.15 532.95 Z"/>
</g></svg>