<svg xmlns="http://www.w3.org/2000/svg" version="1.2" baseProfile="tiny" stroke-linecap="round" stroke-linejoin="round" viewBox="467.02 567.85 27.27 28"><g xmlns="http://www.w3.org/2000/svg" id="Cintruenigo">
<path d="M 494.27 577.63 494.25 577.66 494.23 577.68 494.22 577.69 494.13 577.78 494.1 577.81 493.99 577.94 493.97 577.96 493.96 577.97 493.95 577.98 493.89 578.06 493.86 578.09 493.83 578.12 493.82 578.13 493.82 578.14 493.81 578.15 493.8 578.15 493.76 578.21 493.66 578.32 493.65 578.33 493.61 578.38 493.59 578.4 493.44 578.58 493.33 578.7 493.33 578.71 493.24 578.81 493.11 578.95 493.11 578.96 492.88 579.22 492.87 579.23 492.77 579.35 492.75 579.36 492.65 579.48 492.64 579.49 492.58 579.56 492.57 579.57 492.48 579.67 492.48 579.67 492.43 579.72 492.29 579.89 492.28 579.89 492.27 579.9 492.19 580 492.05 580.15 492.04 580.17 492.03 580.18 492.02 580.19 491.73 580.42 491.72 580.43 490.94 581.04 490.91 581.07 490.87 581.1 490.71 581.24 490.67 581.27 490.64 581.3 490.5 581.43 490.37 581.53 490.35 581.54 490.11 581.77 490.09 581.79 489.95 581.9 489.89 581.95 489.85 581.97 489.6 582.22 489.59 582.23 489.57 582.25 489.51 582.31 489.5 582.32 489.49 582.32 489.48 582.33 489.32 582.48 489.29 582.53 489.26 582.56 489.24 582.58 489.22 582.6 489.2 582.62 489.18 582.64 489.18 582.64 488.83 583 488.61 583.21 488.6 583.22 488.57 583.25 488.43 583.39 488.22 583.6 488.11 583.71 488.1 583.72 488.09 583.73 488.07 583.75 488.01 583.8 488 583.82 487.95 583.86 487.91 583.89 487.78 584 487.4 584.34 487.31 584.41 487.29 584.43 487.28 584.44 487.27 584.45 487.07 584.64 486.93 584.77 486.83 584.86 486.83 584.87 486.79 584.9 486.75 584.95 486.67 585.02 486.63 585.05 486.6 585.07 486.59 585.08 486.54 585.14 486.54 585.14 486.5 585.19 486.49 585.2 486.47 585.22 486.42 585.28 486.41 585.29 486.26 585.46 486.25 585.48 486.16 585.59 486.13 585.62 485.98 585.8 485.84 585.97 485.75 586.08 485.7 586.14 485.63 586.2 485.6 586.23 485.58 586.24 485.55 586.28 485.3 586.52 485.29 586.53 484.99 586.82 484.91 586.9 484.9 586.91 484.88 586.92 484.94 586.97 484.98 586.99 484.99 587 485.07 587.05 485.13 587.1 485.21 587.16 485.31 587.24 485.4 587.32 485.49 587.4 485.58 587.48 485.67 587.56 485.71 587.59 485.73 587.6 485.76 587.65 485.77 587.65 485.79 587.69 485.8 587.72 485.8 587.82 485.8 587.84 485.8 587.86 485.8 587.96 485.8 588.13 485.8 588.19 485.8 588.23 485.8 588.25 485.8 588.36 485.8 588.37 485.8 588.39 485.81 588.48 485.82 588.6 485.83 588.72 485.83 588.78 485.84 588.88 485.84 588.91 485.84 588.94 485.85 589 485.85 589.02 485.85 589.05 485.86 589.12 485.86 589.13 485.86 589.15 485.87 589.26 485.87 589.28 485.87 589.31 485.88 589.36 485.88 589.42 485.89 589.5 485.89 589.51 485.89 589.52 485.9 589.6 485.9 589.63 485.9 589.65 485.78 589.87 485.52 590.39 485.5 590.45 485.42 590.61 485.38 590.73 485.37 590.75 485.35 590.79 485.34 590.81 485.33 590.83 485.32 590.84 485.3 590.87 485.29 590.9 485.28 590.9 485.27 590.93 485.26 590.94 485.25 590.99 485.22 591.04 485.21 591.06 485.21 591.08 485.19 591.12 485.17 591.17 485.14 591.22 485.11 591.27 485.09 591.31 485.05 591.37 485.03 591.4 485.01 591.42 484.97 591.48 484.95 591.51 484.93 591.53 484.91 591.56 484.9 591.57 484.87 591.6 484.84 591.65 484.76 591.76 484.72 591.81 484.69 591.87 484.65 591.92 484.61 591.97 484.56 592.04 484.54 592.06 484.54 592.07 484.53 592.09 484.5 592.13 484.47 592.17 484.46 592.18 484.44 592.21 484.4 592.27 484.39 592.27 484.39 592.28 484.38 592.29 484.38 592.3 484.34 592.35 484.28 592.44 484.26 592.46 484.22 592.52 484.21 592.53 484.21 592.53 484.19 592.52 484.16 592.5 484.11 592.48 484.07 592.46 484.01 592.43 483.96 592.41 483.93 592.39 483.88 592.38 483.83 592.37 483.75 592.35 483.66 592.32 483.6 592.31 483.56 592.3 483.52 592.29 483.49 592.27 483.44 592.25 483.44 592.25 483.39 592.22 483.36 592.19 483.32 592.17 483.29 592.15 483.23 592.13 483.19 592.1 483.15 592.07 483.1 592.05 483.05 592.02 483.02 592 482.99 591.97 482.95 591.95 482.9 591.93 482.85 591.91 482.81 591.9 482.75 591.88 482.72 591.88 482.68 591.87 482.64 591.85 482.61 591.84 482.58 591.82 482.55 591.8 482.52 591.78 482.48 591.76 482.46 591.75 482.43 591.77 482.39 591.8 482.39 591.8 482.37 591.82 482.26 591.89 482.16 591.95 482.08 592.01 482.01 592.06 481.91 592.11 481.83 592.17 481.77 592.21 481.76 592.21 481.75 592.22 481.74 592.23 481.7 592.26 481.65 592.32 481.59 592.39 481.51 592.47 481.46 592.53 481.39 592.61 481.32 592.69 481.29 592.72 481.28 592.73 481.26 592.75 481.2 592.82 481.14 592.89 481.08 592.95 481.02 593.01 480.98 593.05 480.97 593.06 480.93 593.11 480.87 593.18 480.83 593.22 480.81 593.25 480.79 593.26 480.77 593.29 480.76 593.29 480.75 593.29 480.72 593.3 480.7 593.31 480.69 593.31 480.67 593.31 480.63 593.32 480.54 593.35 480.45 593.37 480.37 593.39 480.31 593.41 480.29 593.42 480.28 593.42 480.26 593.43 480.21 593.44 480.16 593.45 480.13 593.46 480.11 593.47 480.07 593.48 479.99 593.5 479.97 593.51 479.94 593.52 479.89 593.53 479.85 593.54 479.81 593.55 479.79 593.56 479.76 593.57 479.71 593.58 479.69 593.59 479.68 593.59 479.63 593.6 479.62 593.61 479.61 593.61 479.5 593.64 479.44 593.66 479.42 593.67 479.33 593.69 479.2 593.73 479.19 593.73 479.04 593.77 479.03 593.78 478.9 593.81 478.86 593.82 478.83 593.83 478.77 593.85 478.73 593.86 478.71 593.87 478.64 593.88 478.52 593.91 478.45 593.93 478.42 593.94 478.16 593.97 478.14 593.98 478.13 593.98 478.09 593.98 478.07 593.99 478.06 593.99 477.75 594.04 477.72 594.04 477.7 594.05 477.68 594.05 477.66 594.06 477.6 594.07 477.48 594.1 477.46 594.11 477.4 594.12 477.38 594.13 477.26 594.15 477.25 594.16 477.11 594.19 477.05 594.2 476.85 594.25 476.84 594.25 476.78 594.27 476.76 594.27 476.72 594.28 476.7 594.28 476.69 594.29 476.55 594.32 476.53 594.33 476.5 594.33 476.47 594.34 476.45 594.35 476.41 594.37 476.39 594.37 476.35 594.39 476.33 594.39 476.11 594.47 475.91 594.54 475.74 594.59 475.73 594.6 475.67 594.62 475.64 594.63 475.63 594.63 475.36 594.73 475.34 594.73 475.27 594.76 475.26 594.77 475.25 594.77 475.24 594.77 475.21 594.79 475.17 594.81 475.05 594.88 475.03 594.89 475.02 594.9 474.98 594.93 474.83 595.02 474.82 595.03 474.81 595.03 474.74 595.08 474.5 595.23 474.47 595.25 474.46 595.26 474.41 595.29 474.39 595.3 474.37 595.31 474.36 595.32 474.26 595.39 474.25 595.4 473.94 595.58 473.94 595.59 473.88 595.62 473.74 595.63 473.72 595.63 473.6 595.64 473.58 595.64 473.49 595.64 473.42 595.65 473.4 595.65 473.38 595.65 473.26 595.66 473.25 595.66 473.23 595.66 473.22 595.66 473.06 595.66 472.83 595.66 472.74 595.66 472.73 595.66 472.66 595.67 472.64 595.67 472.63 595.67 472.47 595.73 472.44 595.75 472.4 595.76 472.35 595.78 472.3 595.8 472.26 595.81 472.19 595.84 472.18 595.82 472.17 595.8 472.16 595.79 472.16 595.78 472.12 595.72 472.1 595.67 472.09 595.66 472.07 595.62 472.06 595.61 472.06 595.61 472 595.51 472 595.5 471.97 595.45 471.9 595.32 471.85 595.24 471.87 595.15 471.89 594.97 471.67 594.72 471.55 594.58 471.46 594.48 471.41 594.43 471.37 594.37 471.36 594.36 471.36 594.35 471.31 594.27 471.25 594.17 471.24 594.15 471.19 594.07 471.09 593.9 471.02 593.77 471 593.73 470.95 593.65 470.94 593.64 470.87 593.52 470.86 593.51 470.83 593.45 470.77 593.37 470.76 593.36 470.64 593.16 470.52 592.98 470.49 592.92 470.48 592.9 470.46 592.84 470.43 592.8 470.42 592.77 470.38 592.67 470.37 592.65 470.36 592.64 470.3 592.5 470.3 592.49 470.25 592.4 470.16 592.19 470.09 592.04 470.09 592.03 470.08 592.02 470.04 591.92 469.98 591.79 469.9 591.6 469.84 591.47 469.82 591.41 469.76 591.27 469.75 591.25 469.63 590.99 469.62 590.98 469.62 590.95 469.59 590.94 469.57 590.87 469.56 590.86 469.55 590.84 469.54 590.82 469.53 590.81 469.5 590.75 469.47 590.7 469.46 590.69 469.46 590.68 469.44 590.64 469.37 590.5 469.31 590.37 469.28 590.3 469.26 590.24 469.25 590.23 469.24 590.21 469.21 590.14 469.17 590.04 469.12 589.93 469.11 589.89 469.1 589.86 469.08 589.82 469.04 589.73 468.98 589.62 468.92 589.48 468.87 589.39 468.82 589.27 468.77 589.18 468.73 589.07 468.72 589.04 468.68 588.96 468.63 588.85 468.58 588.74 468.56 588.71 468.55 588.68 468.53 588.62 468.48 588.53 468.42 588.39 468.37 588.27 468.32 588.16 468.26 588.03 468.21 587.92 468.15 587.8 468.11 587.69 468.06 587.58 468.02 587.49 467.95 587.34 467.9 587.22 467.89 587.2 467.88 587.18 467.87 587.17 467.86 587.1 467.84 586.98 467.82 586.85 467.81 586.74 467.8 586.62 467.8 586.59 467.8 586.56 467.79 586.5 467.79 586.48 467.78 586.47 467.77 586.35 467.76 586.28 467.76 586.24 467.75 586.22 467.74 586.13 467.73 586.05 467.71 585.93 467.7 585.87 467.69 585.83 467.67 585.72 467.66 585.67 467.65 585.66 467.65 585.65 467.65 585.63 467.64 585.59 467.66 585.55 467.67 585.54 467.7 585.53 467.74 585.52 467.79 585.53 467.82 585.54 467.85 585.54 467.87 585.54 467.89 585.54 467.91 585.53 467.94 585.49 467.96 585.46 467.98 585.45 468 585.45 468.04 585.45 468.12 585.45 468.16 585.46 468.23 585.43 468.28 585.41 468.36 585.39 468.38 585.38 468.44 585.32 468.52 585.24 468.57 585.16 468.63 585.13 468.7 585.07 468.76 585.02 468.81 584.99 468.88 584.97 468.96 584.95 469.03 584.95 469.09 584.95 469.15 584.95 469.18 584.95 469.2 584.95 469.18 584.92 469.14 584.88 468.98 584.7 468.94 584.66 468.86 584.57 468.76 584.47 468.61 584.51 468.32 584.59 468.24 584.62 468.18 584.64 468.07 584.67 468 584.69 467.9 584.71 467.88 584.72 467.71 584.59 467.53 584.45 467.36 584.31 467.35 584.3 467.26 584.23 467.22 584.2 467.2 584.16 467.2 584.15 467.21 584.12 467.22 584.08 467.22 584.05 467.21 584.05 467.18 584.05 467.15 584.05 467.14 584.05 467.12 584.03 467.1 584 467.09 583.99 467.07 583.98 467.05 583.97 467.07 583.95 467.1 583.89 467.11 583.87 467.17 583.85 467.18 583.85 467.21 583.85 467.24 583.86 467.26 583.86 467.29 583.85 467.32 583.82 467.34 583.78 467.35 583.75 467.36 583.73 467.35 583.7 467.33 583.59 467.33 583.55 467.27 583.51 467.27 583.49 467.26 583.47 467.23 583.43 467.2 583.41 467.19 583.4 467.16 583.38 467.14 583.38 467.12 583.37 467.11 583.36 467.11 583.35 467.11 583.33 467.14 583.27 467.15 583.24 467.18 583.21 467.21 583.19 467.23 583.19 467.25 583.21 467.3 583.22 467.34 583.22 467.36 583.23 467.38 583.24 467.43 583.26 467.45 583.27 467.47 583.29 467.49 583.3 467.51 583.3 467.54 583.29 467.56 583.28 467.57 583.27 467.63 583.23 467.65 583.19 467.66 583.13 467.67 583.09 467.69 583.06 467.72 583.02 467.74 582.99 467.74 582.98 467.74 582.93 467.69 582.87 467.68 582.84 467.66 582.81 467.64 582.76 467.64 582.71 467.64 582.68 467.68 582.64 467.72 582.61 467.75 582.61 467.79 582.62 467.82 582.65 467.87 582.68 467.91 582.7 467.93 582.7 467.96 582.66 467.99 582.62 468 582.58 468.01 582.56 468.08 582.52 468.14 582.46 468.2 582.39 468.26 582.32 468.3 582.25 468.35 582.18 468.37 582.12 468.37 582.08 468.37 582.04 468.37 582.01 468.39 581.96 468.41 581.92 468.41 581.85 468.4 581.81 468.42 581.79 468.46 581.75 468.46 581.71 468.46 581.68 468.47 581.66 468.51 581.62 468.53 581.58 468.54 581.58 468.58 581.56 468.63 581.51 468.66 581.43 468.7 581.34 468.7 581.31 468.69 581.29 468.68 581.28 468.65 581.27 468.63 581.25 468.61 581.23 468.61 581.21 468.62 581.19 468.64 581.18 468.68 581.18 468.72 581.16 468.77 581.13 468.79 581.12 468.8 581.08 468.78 581.01 468.77 580.98 468.81 580.92 468.87 580.86 468.91 580.87 468.95 580.89 468.99 580.88 469.02 580.86 469.04 580.82 469.06 580.79 469.05 580.76 469.04 580.73 469.04 580.72 469.06 580.7 469.13 580.7 469.17 580.69 469.26 580.66 469.32 580.65 469.36 580.62 469.41 580.58 469.46 580.55 469.49 580.53 469.58 580.53 469.62 580.53 469.66 580.5 469.73 580.46 469.78 580.44 469.85 580.4 469.92 580.36 469.98 580.34 470.04 580.3 470.07 580.27 470.12 580.27 470.18 580.25 470.26 580.23 470.28 580.21 470.29 580.21 470.28 580.19 470.27 580.17 470.24 580.16 470.23 580.15 470.23 580.12 470.23 580.1 470.21 580.09 470.2 580.07 470.17 580.06 470.14 580.06 470.13 580.04 470.11 580.01 470.09 579.99 470.06 579.97 470.04 579.96 470 579.97 469.97 579.96 469.94 579.97 469.9 579.97 469.88 579.97 469.88 579.96 469.85 579.92 469.84 579.91 469.8 579.88 469.78 579.86 469.76 579.85 469.76 579.82 469.76 579.8 469.77 579.75 469.81 579.65 469.81 579.64 469.82 579.62 469.83 579.61 469.85 579.59 469.86 579.58 469.89 579.56 469.91 579.53 469.94 579.52 469.96 579.5 469.98 579.47 469.99 579.45 469.99 579.44 469.98 579.41 469.95 579.4 469.89 579.39 469.86 579.39 469.82 579.42 469.8 579.44 469.79 579.44 469.77 579.44 469.73 579.42 469.71 579.42 469.7 579.43 469.66 579.48 469.63 579.5 469.6 579.52 469.56 579.55 469.54 579.56 469.48 579.53 469.41 579.49 469.41 579.48 469.4 579.47 469.4 579.43 469.41 579.38 469.42 579.36 469.41 579.33 469.38 579.26 469.38 579.23 469.39 579.19 469.43 579.16 469.5 579.1 469.54 579.07 469.59 579.03 469.62 579.01 469.65 579.01 469.7 579.03 469.75 579.07 469.77 579.08 469.79 579.1 469.82 579.11 469.84 579.11 469.87 579.11 469.9 579.12 469.94 579.13 469.98 579.16 470 579.18 470.02 579.19 470.06 579.18 470.08 579.18 470.09 579.18 470.12 579.16 470.12 579.13 470.14 579.08 470.16 579.05 470.17 579.03 470.19 578.99 470.19 578.96 470.19 578.93 470.2 578.9 470.2 578.88 470.21 578.86 470.23 578.83 470.24 578.82 470.25 578.8 470.25 578.78 470.25 578.77 470.26 578.76 470.29 578.75 470.31 578.73 470.33 578.71 470.35 578.68 470.35 578.68 470.36 578.67 470.37 578.67 470.4 578.65 470.44 578.65 470.46 578.64 470.48 578.63 470.49 578.63 470.5 578.62 470.51 578.62 470.53 578.61 470.54 578.59 470.56 578.57 470.58 578.54 470.59 578.53 470.59 578.52 470.61 578.5 470.61 578.49 470.62 578.47 470.62 578.46 470.62 578.41 470.62 578.39 470.61 578.34 470.61 578.31 470.61 578.28 470.61 578.23 470.6 578.22 470.6 578.19 470.61 578.16 470.63 578.09 470.65 578.03 470.66 578.01 470.66 578 470.66 577.97 470.66 577.95 470.65 577.9 470.63 577.87 470.61 577.82 470.6 577.8 470.6 577.79 470.6 577.77 470.6 577.76 470.6 577.73 470.61 577.7 470.62 577.68 470.62 577.67 470.62 577.66 470.61 577.65 470.61 577.64 470.59 577.63 470.58 577.63 470.57 577.62 470.55 577.63 470.53 577.64 470.5 577.66 470.49 577.67 470.48 577.68 470.45 577.75 470.42 577.78 470.39 577.83 470.37 577.86 470.36 577.87 470.35 577.89 470.33 577.9 470.32 577.93 470.32 577.96 470.31 577.98 470.3 578 470.3 578.02 470.29 578.03 470.28 578.04 470.25 578.05 470.22 578.05 470.21 578.06 470.18 578.07 470.16 578.08 470.14 578.09 470.12 578.11 470.09 578.13 470.08 578.16 470.06 578.18 470.05 578.19 470.04 578.2 470.02 578.22 470.01 578.22 470 578.23 469.99 578.23 469.97 578.24 469.95 578.24 469.93 578.23 469.9 578.22 469.87 578.2 469.83 578.17 469.81 578.16 469.78 578.15 469.73 578.14 469.71 578.14 469.66 578.12 469.64 578.11 469.62 578.11 469.6 578.11 469.59 578.12 469.58 578.12 469.56 578.12 469.55 578.11 469.53 578.1 469.52 578.08 469.51 578.06 469.5 578.04 469.49 578.03 469.47 578.01 469.45 577.99 469.4 577.97 469.39 577.96 469.36 577.95 469.34 577.94 469.32 577.93 469.3 577.93 469.29 577.93 469.27 577.93 469.25 577.93 469.22 577.94 469.2 577.96 469.16 578 469.14 578.01 469.13 578.02 469.12 578.03 469.1 578.04 469.09 578.04 469.07 578.04 469.04 578.04 468.99 578.03 468.92 577.99 468.9 577.98 468.88 577.96 468.87 577.95 468.87 577.93 468.88 577.9 468.89 577.86 468.94 577.74 468.94 577.72 468.94 577.7 468.93 577.59 468.91 577.58 468.91 577.56 468.84 577.5 468.81 577.48 468.8 577.47 468.79 577.46 468.79 577.45 468.79 577.43 468.79 577.41 468.8 577.4 468.81 577.39 468.82 577.37 468.9 577.33 468.92 577.31 468.94 577.3 468.96 577.3 468.98 577.29 469.02 577.29 469.2 577.28 469.21 577.28 469.23 577.28 469.26 577.27 469.29 577.27 469.31 577.26 469.33 577.25 469.35 577.24 469.37 577.23 469.39 577.22 469.4 577.21 469.42 577.19 469.43 577.18 469.44 577.16 469.45 577.13 469.46 577.11 469.47 577.06 469.49 577.03 469.5 577 469.5 576.97 469.51 576.95 469.51 576.94 469.52 576.93 469.53 576.92 469.54 576.91 469.55 576.89 469.57 576.88 469.58 576.87 469.6 576.87 469.62 576.87 469.65 576.88 469.67 576.89 469.69 576.9 469.71 576.9 469.77 576.9 469.8 576.91 469.82 576.91 469.86 576.93 469.89 576.95 469.92 576.98 469.96 577.02 469.97 577.03 469.98 577.03 470.01 577.05 470.04 577.05 470.06 577.06 470.16 577.07 470.24 577.08 470.26 577.08 470.29 577.07 470.4 577.04 470.41 577.03 470.43 577.01 470.45 577 470.46 576.98 470.48 576.96 470.49 576.94 470.49 576.93 470.51 576.91 470.51 576.89 470.51 576.88 470.52 576.87 470.52 576.85 470.51 576.84 470.49 576.81 470.44 576.77 470.42 576.75 470.37 576.72 470.35 576.7 470.34 576.68 470.33 576.67 470.33 576.66 470.33 576.65 470.33 576.63 470.35 576.61 470.39 576.59 470.44 576.55 470.54 576.49 470.58 576.46 470.59 576.45 470.6 576.44 470.61 576.43 470.61 576.41 470.61 576.4 470.59 576.39 470.58 576.37 470.53 576.33 470.51 576.32 470.48 576.29 470.47 576.28 470.46 576.26 470.44 576.24 470.43 576.21 470.42 576.19 470.42 576.19 470.4 576.15 470.38 576.12 470.36 576.09 470.35 576.08 470.35 576.06 470.35 576.05 470.34 576.04 470.34 576.02 470.35 576.01 470.36 575.99 470.4 575.96 470.42 575.96 470.43 575.95 470.45 575.96 470.48 575.96 470.49 575.97 470.52 575.99 470.53 575.99 470.56 576.01 470.59 576.02 470.62 576.04 470.66 576.05 470.78 576.07 470.81 576.08 470.85 576.09 470.9 576.1 470.95 576.12 470.97 576.12 470.98 576.13 471.01 576.14 471.03 576.14 471.04 576.14 471.07 576.15 471.08 576.14 471.1 576.14 471.12 576.12 471.16 576.08 471.18 576.06 471.2 576.04 471.25 576 471.34 575.93 471.34 575.92 471.35 575.92 471.38 575.9 471.41 575.87 471.44 575.84 471.48 575.79 471.49 575.78 471.5 575.77 471.5 575.75 471.5 575.74 471.48 575.72 471.45 575.69 471.43 575.66 471.41 575.64 471.41 575.62 471.41 575.62 471.41 575.61 471.42 575.6 471.45 575.6 471.54 575.62 471.59 575.63 471.6 575.64 471.62 575.64 471.64 575.63 471.65 575.62 471.65 575.61 471.65 575.6 471.66 575.59 471.66 575.56 471.67 575.55 471.67 575.55 471.67 575.54 471.69 575.53 471.71 575.52 471.73 575.51 471.74 575.5 471.76 575.49 471.77 575.48 471.79 575.45 471.8 575.45 471.82 575.44 471.83 575.43 471.87 575.42 471.89 575.41 471.9 575.41 471.92 575.4 471.95 575.39 471.96 575.37 472 575.37 472.03 575.37 472.06 575.36 472.08 575.36 472.1 575.35 472.11 575.34 472.13 575.33 472.13 575.32 472.13 575.3 472.13 575.29 472.13 575.27 472.12 575.26 472.11 575.25 472.1 575.24 472.1 575.23 472.05 575.19 472.04 575.17 472.02 575.16 472.02 575.14 472.02 575.13 472.02 575.11 472.03 575.09 472.06 575.06 472.08 575.02 472.11 574.97 472.12 574.94 472.13 574.92 472.14 574.9 472.15 574.88 472.15 574.87 472.15 574.84 472.15 574.81 472.15 574.76 472.14 574.67 472.15 574.64 472.15 574.62 472.14 574.6 472.13 574.59 472.12 574.58 472.1 574.55 472.09 574.54 472.05 574.51 472.02 574.49 471.99 574.48 471.98 574.48 471.96 574.47 471.94 574.47 471.88 574.46 471.86 574.46 471.84 574.45 471.82 574.44 471.81 574.44 471.8 574.44 471.79 574.43 471.77 574.43 471.76 574.44 471.75 574.44 471.74 574.44 471.72 574.45 471.7 574.46 471.66 574.47 471.63 574.49 471.6 574.49 471.59 574.5 471.57 574.51 471.55 574.53 471.52 574.55 471.51 574.57 471.47 574.58 471.43 574.6 471.41 574.61 471.39 574.62 471.37 574.62 471.33 574.61 471.26 574.59 471.19 574.56 471.14 574.53 471.11 574.5 471.1 574.5 471.07 574.49 471.04 574.48 471.02 574.47 471.01 574.47 470.97 574.45 470.96 574.44 470.96 574.44 470.95 574.4 470.95 574.38 470.95 574.35 470.95 574.33 470.95 574.32 470.95 574.3 470.95 574.29 470.94 574.27 470.93 574.25 470.91 574.22 470.89 574.18 470.86 574.15 470.84 574.13 470.83 574.12 470.8 574.1 470.74 574.04 470.72 574.02 470.7 574 470.69 573.98 470.68 573.96 470.65 573.94 470.64 573.91 470.63 573.89 470.62 573.87 470.61 573.85 470.6 573.83 470.58 573.81 470.57 573.8 470.56 573.79 470.56 573.78 470.57 573.77 470.57 573.77 470.6 573.77 470.63 573.77 470.68 573.78 470.71 573.79 470.75 573.79 470.77 573.79 470.78 573.79 470.83 573.78 470.87 573.77 470.9 573.77 470.93 573.77 470.97 573.79 470.99 573.8 471.02 573.84 471.04 573.85 471.05 573.86 471.08 573.86 471.1 573.86 471.12 573.85 471.13 573.83 471.15 573.82 471.21 573.8 471.23 573.8 471.26 573.81 471.33 573.82 471.36 573.82 471.38 573.81 471.4 573.8 471.42 573.79 471.43 573.78 471.45 573.76 471.47 573.73 471.49 573.69 471.51 573.67 471.53 573.64 471.57 573.61 471.58 573.59 471.61 573.57 471.62 573.57 471.65 573.57 471.74 573.6 471.76 573.61 471.77 573.62 471.78 573.64 471.78 573.68 471.78 573.7 471.8 573.73 471.82 573.77 471.84 573.78 471.85 573.79 471.87 573.82 471.91 573.85 471.92 573.86 471.96 573.88 472.01 573.91 472.03 573.92 472.04 573.92 472.07 573.9 472.09 573.88 472.13 573.84 472.14 573.83 472.15 573.81 472.17 573.78 472.19 573.75 472.21 573.74 472.22 573.72 472.25 573.71 472.28 573.71 472.34 573.7 472.4 573.69 472.41 573.69 472.43 573.68 472.44 573.67 472.45 573.66 472.45 573.65 472.45 573.64 472.45 573.63 472.43 573.61 472.43 573.61 472.39 573.57 472.35 573.55 472.32 573.52 472.3 573.49 472.29 573.48 472.28 573.46 472.26 573.46 472.24 573.45 472.23 573.45 472.22 573.43 472.19 573.39 472.18 573.37 472.15 573.32 472.14 573.3 472.14 573.28 472.13 573.26 472.12 573.25 472.1 573.23 472.09 573.22 472.07 573.21 472.06 573.2 472.04 573.19 472.03 573.19 472.01 573.19 472 573.2 471.98 573.2 471.96 573.2 471.93 573.19 471.89 573.19 471.87 573.18 471.85 573.18 471.84 573.15 471.84 573.12 471.83 573.1 471.83 573.09 471.84 573.08 471.85 573.07 471.88 573.06 471.93 573.05 471.98 573.03 472 573.02 472.02 573.01 472.03 573 472.03 572.99 472.04 572.98 472.04 572.97 472.04 572.96 472.03 572.96 472.02 572.95 472 572.95 471.98 572.94 471.96 572.93 471.95 572.9 471.93 572.88 471.93 572.86 471.91 572.84 471.9 572.83 471.89 572.82 471.87 572.81 471.85 572.81 471.83 572.81 471.8 572.82 471.77 572.81 471.74 572.79 471.73 572.79 471.71 572.78 471.68 572.78 471.64 572.78 471.6 572.77 471.56 572.75 471.48 572.71 471.46 572.7 471.43 572.69 471.4 572.66 471.38 572.66 471.37 572.65 471.35 572.64 471.33 572.64 471.31 572.65 471.28 572.65 471.25 572.66 471.25 572.66 471.23 572.67 471.21 572.68 471.15 572.69 471.1 572.69 471.07 572.7 471.05 572.71 471.03 572.71 471 572.7 470.96 572.67 470.91 572.62 470.89 572.58 470.88 572.55 470.87 572.53 470.88 572.52 470.91 572.5 470.99 572.47 471.01 572.46 471.02 572.46 471.04 572.46 471.06 572.47 471.08 572.48 471.11 572.48 471.13 572.48 471.15 572.48 471.17 572.48 471.19 572.47 471.2 572.46 471.22 572.45 471.24 572.44 471.27 572.45 471.32 572.46 471.39 572.46 471.47 572.47 471.51 572.48 471.55 572.49 471.59 572.49 471.63 572.49 471.66 572.49 471.67 572.48 471.69 572.47 471.7 572.46 471.71 572.45 471.71 572.43 471.7 572.41 471.69 572.39 471.68 572.37 471.67 572.36 471.66 572.35 471.66 572.33 471.66 572.32 471.66 572.3 471.68 572.21 471.71 572.12 471.75 571.99 471.76 571.97 471.76 571.96 471.76 571.95 471.76 571.94 471.75 571.91 471.76 571.89 471.8 571.85 471.87 571.78 471.92 571.73 471.93 571.72 471.94 571.71 471.95 571.7 471.96 571.69 471.96 571.7 471.97 571.71 472 571.74 472.02 571.78 472.05 571.85 472.07 571.87 472.1 571.9 472.13 571.94 472.17 571.97 472.17 571.97 472.2 571.99 472.22 572.01 472.24 572.02 472.26 572.03 472.28 572.03 472.29 572.03 472.3 572.03 472.33 572.03 472.35 572.02 472.36 572.02 472.37 572.01 472.4 572.01 472.43 572 472.48 572.01 472.51 572 472.55 572.01 472.58 572.01 472.59 572.01 472.64 572.03 472.68 572.04 472.76 572.08 472.82 572.11 472.83 572.11 472.88 572.13 472.92 572.16 472.95 572.17 472.97 572.19 472.97 572.23 472.97 572.27 472.97 572.31 472.98 572.34 472.99 572.35 473 572.39 473.01 572.45 473.04 572.51 473.05 572.55 473.06 572.57 473.07 572.59 473.08 572.62 473.09 572.64 473.1 572.65 473.11 572.66 473.13 572.68 473.16 572.69 473.18 572.68 473.2 572.68 473.23 572.68 473.26 572.68 473.3 572.67 473.32 572.67 473.35 572.68 473.38 572.68 473.41 572.68 473.44 572.7 473.47 572.71 473.47 572.71 473.51 572.73 473.53 572.75 473.56 572.76 473.57 572.76 473.59 572.77 473.61 572.77 473.64 572.76 473.65 572.76 473.66 572.75 473.67 572.74 473.68 572.73 473.7 572.73 473.72 572.71 473.74 572.69 473.77 572.67 473.79 572.65 473.8 572.63 473.82 572.61 473.83 572.59 473.85 572.54 473.88 572.5 473.89 572.51 473.91 572.52 473.99 572.57 474.01 572.59 474.02 572.6 474.03 572.63 474.03 572.64 474.03 572.66 474.02 572.68 474.03 572.69 474.05 572.68 474.06 572.66 474.08 572.65 474.08 572.64 474.09 572.62 474.1 572.6 474.11 572.58 474.12 572.57 474.14 572.56 474.16 572.56 474.18 572.54 474.27 572.46 474.37 572.38 474.41 572.33 474.46 572.29 474.47 572.28 474.51 572.27 474.57 572.22 474.65 572.16 474.7 572.11 474.71 572.1 474.72 572.1 474.72 572.08 474.72 572.05 474.72 572.03 474.72 572.03 474.72 572.02 474.75 572 474.77 571.98 474.79 571.95 474.8 571.93 474.82 571.88 474.83 571.84 474.83 571.8 474.83 571.77 474.84 571.72 474.84 571.66 474.84 571.63 474.86 571.57 474.86 571.55 474.87 571.51 474.87 571.46 474.87 571.44 474.87 571.4 474.88 571.39 474.88 571.36 474.88 571.36 474.88 571.34 474.89 571.33 474.89 571.31 474.9 571.29 474.9 571.28 474.9 571.27 474.91 571.25 474.95 571.18 474.96 571.16 474.97 571.15 474.98 571.13 474.98 571.1 474.98 571.08 474.99 571.06 474.99 571.05 475.01 571.01 475.03 570.99 475.05 570.95 475.05 570.93 475.05 570.91 475.05 570.87 475.04 570.85 475.03 570.84 475.03 570.83 475.03 570.79 475.03 570.77 475.03 570.74 475.03 570.73 475.03 570.71 475.04 570.7 475.04 570.69 475.05 570.66 475.05 570.65 475.06 570.64 475.06 570.63 475.07 570.62 475.09 570.61 475.1 570.6 475.1 570.6 475.11 570.59 475.12 570.6 475.13 570.61 475.16 570.62 475.16 570.63 475.18 570.64 475.19 570.64 475.21 570.64 475.23 570.63 475.26 570.62 475.27 570.61 475.3 570.59 475.33 570.56 475.35 570.55 475.37 570.52 475.39 570.5 475.41 570.47 475.43 570.44 475.45 570.41 475.49 570.37 475.51 570.35 475.52 570.33 475.53 570.31 475.54 570.3 475.55 570.27 475.55 570.25 475.56 570.22 475.57 570.19 475.59 570.16 475.64 570.11 475.67 570.07 475.68 570.06 475.71 570.03 475.71 570.02 475.72 570 475.72 569.97 475.73 569.94 475.72 569.89 475.73 569.86 475.73 569.84 475.74 569.82 475.76 569.79 475.78 569.75 475.8 569.72 475.82 569.69 475.85 569.65 475.86 569.62 475.89 569.58 475.91 569.56 475.92 569.55 475.94 569.53 475.96 569.51 475.97 569.49 475.98 569.47 476 569.45 476.03 569.42 476.05 569.41 476.07 569.39 476.09 569.38 476.11 569.35 476.14 569.33 476.16 569.3 476.18 569.27 476.18 569.26 476.19 569.24 476.24 569.2 476.26 569.17 476.28 569.15 476.3 569.11 476.35 569.03 476.37 569.01 476.38 568.99 476.41 568.96 476.43 568.94 476.45 568.91 476.48 568.86 476.51 568.81 476.53 568.79 476.54 568.76 476.54 568.75 476.54 568.73 476.54 568.71 476.54 568.68 476.55 568.67 476.55 568.65 476.56 568.63 476.58 568.62 476.6 568.6 476.65 568.56 476.66 568.54 476.68 568.54 476.7 568.54 476.73 568.53 476.75 568.52 476.76 568.5 476.78 568.47 476.8 568.44 476.81 568.4 476.82 568.38 476.84 568.36 476.86 568.35 476.87 568.34 476.9 568.32 476.93 568.3 476.95 568.29 476.98 568.27 476.99 568.26 477.05 568.22 477.11 568.17 477.16 568.13 477.19 568.1 477.22 568.07 477.26 568.03 477.3 567.99 477.33 567.96 477.35 567.93 477.37 567.91 477.38 567.88 477.4 567.89 477.41 567.89 477.44 567.91 477.47 567.92 477.49 567.93 477.5 567.93 477.51 567.94 477.52 567.96 477.55 567.98 477.55 567.98 477.56 567.99 477.57 568 477.58 568.01 477.59 568.02 477.6 568.03 477.61 568.03 477.62 568.04 477.65 568.05 477.66 568.07 477.69 568.09 477.7 568.12 477.72 568.14 477.74 568.15 477.75 568.16 477.77 568.17 477.8 568.2 477.82 568.22 477.86 568.25 477.89 568.27 477.9 568.27 477.91 568.28 477.92 568.28 477.95 568.29 477.98 568.28 477.99 568.29 478.02 568.31 478.06 568.33 478.15 568.39 478.18 568.4 478.2 568.41 478.23 568.43 478.25 568.44 478.29 568.47 478.35 568.51 478.35 568.52 478.7 568.76 478.74 568.79 478.76 568.8 478.77 568.81 478.78 568.81 478.91 568.91 479 568.97 479.02 568.99 479.03 568.99 479.06 569.01 479.11 569.05 479.13 569.06 479.15 569.07 479.46 569.27 479.47 569.28 479.64 569.4 479.68 569.41 479.7 569.42 479.73 569.42 479.73 569.42 479.74 569.43 479.8 569.46 479.93 569.52 480 569.55 480.03 569.56 480.08 569.57 480.13 569.59 480.2 569.63 480.26 569.66 480.27 569.67 480.28 569.67 480.33 569.7 480.36 569.71 480.38 569.7 480.41 569.7 480.43 569.7 480.46 569.69 480.49 569.7 480.55 569.7 480.7 569.73 480.73 569.74 480.76 569.74 480.8 569.75 480.83 569.75 480.86 569.75 480.9 569.74 480.92 569.74 480.94 569.77 480.96 569.79 480.99 569.8 481.01 569.82 481.02 569.83 481.02 569.84 481.02 569.86 481.03 569.88 481.05 569.92 481.06 569.93 481.08 569.95 481.08 569.96 481.09 569.97 481.09 569.98 481.1 570 481.11 570.03 481.13 570.04 481.17 570.06 481.27 570.09 481.32 570.1 481.34 570.1 481.35 570.1 481.36 570.1 481.37 570.1 481.41 570.1 481.54 570.1 481.55 570.1 481.89 570.11 481.9 570.11 481.98 570.11 482 570.11 482.03 570.11 482.06 570.11 482.07 570.12 482.1 570.13 482.16 570.15 482.18 570.16 482.23 570.18 482.32 570.21 482.33 570.21 482.38 570.22 482.42 570.23 482.43 570.23 482.47 570.24 482.48 570.24 482.5 570.24 482.52 570.24 482.54 570.24 482.56 570.25 482.61 570.27 482.63 570.28 482.8 570.33 482.81 570.34 482.82 570.34 483.77 570.58 483.78 570.59 483.78 570.59 483.79 570.59 483.81 570.59 483.82 570.6 484 570.64 484.02 570.64 484.27 570.69 484.64 570.77 484.65 570.77 484.66 570.78 484.75 570.78 484.86 570.81 484.89 570.81 484.97 570.82 485.04 570.84 485.32 570.88 485.4 570.9 485.44 570.9 485.45 570.91 485.48 570.91 485.49 570.91 485.58 570.93 485.6 570.93 485.62 570.93 485.75 570.94 485.76 570.94 486.07 570.97 486.1 570.97 486.11 570.97 486.12 570.98 486.14 570.98 486.19 570.99 486.29 571.01 486.36 571.02 486.37 571.03 486.38 571.03 486.78 571.08 486.8 571.08 486.83 571.04 486.85 571 486.86 570.99 486.87 570.97 486.9 570.92 486.93 570.89 486.95 570.86 486.97 570.82 487 570.8 487.02 570.77 487.04 570.75 487.07 570.73 487.1 570.71 487.13 570.69 487.16 570.68 487.19 570.66 487.22 570.63 487.24 570.62 487.29 570.58 487.33 570.55 487.35 570.52 487.38 570.5 487.4 570.48 487.41 570.47 487.43 570.46 487.5 570.42 487.54 570.4 487.58 570.38 487.59 570.37 488.14 570.05 488.15 570.04 488.18 570.03 488.83 569.64 489.13 569.47 489.21 569.42 489.22 569.41 489.53 569.23 489.55 569.22 489.57 569.2 489.6 569.18 489.62 569.17 489.63 569.16 489.65 569.15 489.67 569.14 489.68 569.15 489.68 569.16 489.7 569.18 489.76 569.3 489.77 569.31 489.82 569.41 489.83 569.42 489.83 569.43 489.87 569.5 489.95 569.65 489.95 569.66 490.01 569.75 490.01 569.76 490.02 569.77 490.12 569.96 490.17 570.05 490.18 570.08 490.2 570.1 490.23 570.17 490.25 570.2 490.25 570.21 490.26 570.22 490.26 570.23 490.28 570.26 490.34 570.36 490.41 570.5 490.5 570.65 490.54 570.73 490.66 570.95 490.67 570.96 490.67 570.98 490.73 571.09 490.78 571.17 490.8 571.21 490.89 571.37 490.96 571.5 491 571.58 491.04 571.65 491.1 571.76 491.16 571.87 491.17 571.88 491.18 571.89 491.23 572 491.24 572.01 491.27 572.07 491.44 572.38 491.44 572.39 491.45 572.4 491.49 572.49 491.6 572.71 491.7 572.92 491.71 572.93 491.72 572.95 491.72 572.96 491.8 573.09 491.8 573.11 492 573.44 492 573.44 492.01 573.45 492.01 573.46 492.07 573.55 492.1 573.6 492.3 573.93 492.39 574.1 492.4 574.11 492.41 574.13 492.42 574.14 492.5 574.28 492.54 574.35 492.57 574.41 492.59 574.44 492.59 574.44 492.6 574.46 492.65 574.55 492.69 574.61 492.69 574.62 492.71 574.65 492.76 574.74 492.84 574.89 492.84 574.9 492.86 574.94 492.88 574.98 492.9 575.02 493.12 575.49 493.13 575.5 493.14 575.52 493.19 575.62 493.2 575.64 493.23 575.7 493.25 575.74 493.31 575.86 493.31 575.87 493.37 575.97 493.4 576.03 493.48 576.17 493.5 576.21 493.51 576.24 493.52 576.25 493.54 576.29 493.55 576.3 493.66 576.52 493.67 576.54 493.74 576.66 493.74 576.66 493.99 577.12 494 577.13 494 577.14 494.05 577.23 494.06 577.26 494.07 577.26 494.17 577.45 494.22 577.55 494.27 577.63 Z"/>
</g></svg>