<svg xmlns="http://www.w3.org/2000/svg" version="1.2" baseProfile="tiny" stroke-linecap="round" stroke-linejoin="round" viewBox="449.53 547.22 57.47 31.78"><g xmlns="http://www.w3.org/2000/svg" id="Corella">
<path d="M 500.89 554.87 500.95 554.92 500.98 554.95 501.1 555.04 501.31 555.21 501.35 555.24 501.36 555.25 501.43 555.3 501.44 555.31 501.45 555.31 501.57 555.41 501.82 555.6 501.83 555.61 501.98 555.73 502.25 555.94 502.42 556.08 502.44 556.1 502.45 556.1 502.46 556.11 502.52 556.16 502.64 556.26 502.65 556.27 502.66 556.27 502.74 556.34 502.91 556.48 503.07 556.6 503.36 556.84 503.5 556.96 503.67 557.09 503.68 557.09 503.85 557.24 504.1 557.44 504.11 557.45 504.31 557.6 504.41 557.68 504.43 557.7 504.43 557.7 504.44 557.71 504.45 557.72 504.46 557.73 504.47 557.74 504.49 557.76 504.62 557.87 504.72 557.96 504.74 557.97 504.78 557.99 504.95 558.14 505.01 558.18 505.09 558.25 505.25 558.38 505.32 558.45 505.34 558.47 505.4 558.51 505.51 558.6 505.55 558.63 505.56 558.63 505.62 558.68 505.63 558.69 505.65 558.7 505.67 558.71 505.69 558.74 505.76 558.79 505.79 558.81 505.82 558.83 505.95 558.93 505.97 558.94 506.03 558.99 506.11 559.06 506.34 559.23 506.46 559.32 506.59 559.41 506.65 559.46 506.68 559.49 506.78 559.56 506.81 559.58 506.83 559.6 506.84 559.6 506.91 559.66 506.97 559.7 506.65 560.05 506.64 560.06 506.48 560.23 506.39 560.33 506.16 560.6 506.15 560.61 505.97 560.81 505.74 561.04 505.62 561.17 505.41 561.5 505.19 561.84 505.18 561.86 505.15 561.94 505.14 561.94 505.08 562.07 505.06 562.13 504.94 562.37 504.88 562.47 504.73 562.7 504.67 562.78 504.56 562.92 504.32 563.22 504.11 563.48 504.1 563.49 504 563.62 503.96 563.67 503.77 563.9 503.64 564.07 503.44 564.27 503.26 564.46 503.08 564.65 503.07 564.66 503.01 564.71 502.64 564.94 502.54 565.01 502.35 565.14 502.18 565.23 501.97 565.35 501.82 565.42 501.78 565.45 501.71 565.48 501.61 565.53 501.49 565.59 501.42 565.62 501.38 565.64 501.28 565.71 501.14 565.81 501.05 565.87 500.79 566.05 500.68 566.13 500.66 566.15 500.56 566.21 500.5 566.24 500.52 566.29 500.53 566.33 500.55 566.38 500.59 566.49 500.61 566.53 500.62 566.58 500.67 566.75 500.71 566.86 500.74 566.93 500.76 567 500.78 567.07 500.8 567.12 500.81 567.14 500.81 567.16 500.82 567.18 500.82 567.22 500.84 567.33 500.85 567.41 500.85 567.43 500.87 567.51 500.88 567.6 500.89 567.66 500.9 567.76 500.92 567.91 500.93 567.95 500.95 568.09 500.97 568.28 501 568.46 501.02 568.61 501.02 568.68 501.04 568.78 501.04 568.85 501.05 568.94 501.07 569.01 501.08 569.07 501.09 569.13 501.14 569.32 501.18 569.5 501.19 569.58 501.21 569.68 501.23 569.76 501.25 569.82 501.29 569.97 501.34 570.18 501.36 570.27 501.36 570.29 501.37 570.31 501.38 570.37 501.39 570.41 501.39 570.42 501.43 570.56 501.44 570.62 501.42 570.68 501.36 570.85 501.36 570.86 501.33 570.96 501.31 571.02 501.29 571.09 501.27 571.14 501.24 571.25 501.2 571.35 501.17 571.46 501.14 571.56 501.12 571.64 501.12 571.65 501.1 571.68 501.09 571.69 501.08 571.72 501.05 571.75 500.99 571.86 500.94 571.92 500.91 571.97 500.89 572.01 500.85 572.07 500.82 572.09 500.77 572.11 500.56 572.21 500.48 572.25 500.47 572.26 500.44 572.27 500.17 572.46 500.14 572.47 499.88 572.66 499.86 572.67 499.81 572.71 499.75 572.76 499.73 572.77 499.42 573.05 499.25 573.2 499.23 573.22 499.19 573.22 499.08 573.22 498.93 573.21 498.71 573.21 498.4 573.21 498.25 573.21 498.18 573.21 498.17 573.21 498.16 573.21 498.12 573.21 498.08 573.21 498 573.26 497.93 573.34 497.66 573.55 497.47 573.7 497.29 573.86 497.22 573.91 497.08 574.01 496.92 574.13 496.72 574.27 496.68 574.31 496.61 574.34 496.28 574.52 496.23 574.64 496.21 574.76 496.21 574.82 496.21 574.87 496.19 574.89 496.1 575.01 495.97 575.18 495.84 575.35 495.64 575.62 495.47 575.84 495.3 575.92 495.26 575.95 495.07 576.04 495.03 576.06 494.97 576.09 494.9 576.14 494.83 576.18 494.78 576.21 494.75 576.23 494.74 576.24 494.69 576.31 494.67 576.33 494.65 576.35 494.64 576.36 494.59 576.41 494.49 576.46 494.46 576.47 494.46 576.5 494.46 576.51 494.46 577.05 494.46 577.1 494.43 577.2 494.42 577.22 494.41 577.24 494.4 577.27 494.4 577.28 494.38 577.33 494.37 577.34 494.35 577.41 494.35 577.42 494.31 577.51 494.31 577.53 494.27 577.63 494.22 577.55 494.17 577.45 494.07 577.26 494.06 577.26 494.05 577.23 494 577.14 494 577.13 493.99 577.12 493.74 576.66 493.74 576.66 493.67 576.54 493.66 576.52 493.55 576.3 493.54 576.29 493.52 576.25 493.51 576.24 493.5 576.21 493.48 576.17 493.4 576.03 493.37 575.97 493.31 575.87 493.31 575.86 493.25 575.74 493.23 575.7 493.2 575.64 493.19 575.62 493.14 575.52 493.13 575.5 493.12 575.49 492.9 575.02 492.88 574.98 492.86 574.94 492.84 574.9 492.84 574.89 492.76 574.74 492.71 574.65 492.69 574.62 492.69 574.61 492.65 574.55 492.6 574.46 492.59 574.44 492.59 574.44 492.57 574.41 492.54 574.35 492.5 574.28 492.42 574.14 492.41 574.13 492.4 574.11 492.39 574.1 492.3 573.93 492.1 573.6 492.07 573.55 492.01 573.46 492.01 573.45 492 573.44 492 573.44 491.8 573.11 491.8 573.09 491.72 572.96 491.72 572.95 491.71 572.93 491.7 572.92 491.6 572.71 491.49 572.49 491.45 572.4 491.44 572.39 491.44 572.38 491.27 572.07 491.24 572.01 491.23 572 491.18 571.89 491.17 571.88 491.16 571.87 491.1 571.76 491.04 571.65 491 571.58 490.96 571.5 490.89 571.37 490.8 571.21 490.78 571.17 490.73 571.09 490.67 570.98 490.67 570.96 490.66 570.95 490.54 570.73 490.5 570.65 490.41 570.5 490.34 570.36 490.28 570.26 490.26 570.23 490.26 570.22 490.25 570.21 490.25 570.2 490.23 570.17 490.2 570.1 490.18 570.08 490.17 570.05 490.12 569.96 490.02 569.77 490.01 569.76 490.01 569.75 489.95 569.66 489.95 569.65 489.87 569.5 489.83 569.43 489.83 569.42 489.82 569.41 489.77 569.31 489.76 569.3 489.7 569.18 489.68 569.16 489.68 569.15 489.67 569.14 489.65 569.15 489.63 569.16 489.62 569.17 489.6 569.18 489.57 569.2 489.55 569.22 489.53 569.23 489.22 569.41 489.21 569.42 489.13 569.47 488.83 569.64 488.18 570.03 488.15 570.04 488.14 570.05 487.59 570.37 487.58 570.38 487.54 570.4 487.5 570.42 487.43 570.46 487.41 570.47 487.4 570.48 487.38 570.5 487.35 570.52 487.33 570.55 487.29 570.58 487.24 570.62 487.22 570.63 487.19 570.66 487.16 570.68 487.13 570.69 487.1 570.71 487.07 570.73 487.04 570.75 487.02 570.77 487 570.8 486.97 570.82 486.95 570.86 486.93 570.89 486.9 570.92 486.87 570.97 486.86 570.99 486.85 571 486.83 571.04 486.8 571.08 486.78 571.08 486.38 571.03 486.37 571.03 486.36 571.02 486.29 571.01 486.19 570.99 486.14 570.98 486.12 570.98 486.11 570.97 486.1 570.97 486.07 570.97 485.76 570.94 485.75 570.94 485.62 570.93 485.6 570.93 485.58 570.93 485.49 570.91 485.48 570.91 485.45 570.91 485.44 570.9 485.4 570.9 485.32 570.88 485.04 570.84 484.97 570.82 484.89 570.81 484.86 570.81 484.75 570.78 484.66 570.78 484.65 570.77 484.64 570.77 484.27 570.69 484.02 570.64 484 570.64 483.82 570.6 483.81 570.59 483.79 570.59 483.78 570.59 483.78 570.59 483.77 570.58 482.82 570.34 482.81 570.34 482.8 570.33 482.63 570.28 482.61 570.27 482.56 570.25 482.54 570.24 482.52 570.24 482.5 570.24 482.48 570.24 482.47 570.24 482.43 570.23 482.42 570.23 482.38 570.22 482.33 570.21 482.32 570.21 482.23 570.18 482.18 570.16 482.16 570.15 482.1 570.13 482.07 570.12 482.06 570.11 482.03 570.11 482 570.11 481.98 570.11 481.9 570.11 481.89 570.11 481.55 570.1 481.54 570.1 481.41 570.1 481.37 570.1 481.36 570.1 481.35 570.1 481.34 570.1 481.32 570.1 481.27 570.09 481.17 570.06 481.13 570.04 481.11 570.03 481.1 570 481.09 569.98 481.09 569.97 481.08 569.96 481.08 569.95 481.06 569.93 481.05 569.92 481.03 569.88 481.02 569.86 481.02 569.84 481.02 569.83 481.01 569.82 480.99 569.8 480.96 569.79 480.94 569.77 480.92 569.74 480.9 569.74 480.86 569.75 480.83 569.75 480.8 569.75 480.76 569.74 480.73 569.74 480.7 569.73 480.55 569.7 480.49 569.7 480.46 569.69 480.43 569.7 480.41 569.7 480.38 569.7 480.36 569.71 480.33 569.7 480.28 569.67 480.27 569.67 480.26 569.66 480.2 569.63 480.13 569.59 480.08 569.57 480.03 569.56 480 569.55 479.93 569.52 479.8 569.46 479.74 569.43 479.73 569.42 479.73 569.42 479.7 569.42 479.68 569.41 479.64 569.4 479.47 569.28 479.46 569.27 479.15 569.07 479.13 569.06 479.11 569.05 479.06 569.01 479.03 568.99 479.02 568.99 479 568.97 478.91 568.91 478.78 568.81 478.77 568.81 478.76 568.8 478.74 568.79 478.7 568.76 478.35 568.52 478.35 568.51 478.29 568.47 478.25 568.44 478.23 568.43 478.2 568.41 478.18 568.4 478.15 568.39 478.06 568.33 478.02 568.31 477.99 568.29 477.98 568.28 477.95 568.29 477.92 568.28 477.91 568.28 477.9 568.27 477.89 568.27 477.86 568.25 477.82 568.22 477.8 568.2 477.77 568.17 477.75 568.16 477.74 568.15 477.72 568.14 477.7 568.12 477.69 568.09 477.66 568.07 477.65 568.05 477.62 568.04 477.61 568.03 477.6 568.03 477.59 568.02 477.58 568.01 477.57 568 477.56 567.99 477.55 567.98 477.55 567.98 477.52 567.96 477.51 567.94 477.5 567.93 477.49 567.93 477.47 567.92 477.44 567.91 477.41 567.89 477.4 567.89 477.38 567.88 477.37 567.91 477.35 567.93 477.33 567.96 477.3 567.99 477.26 568.03 477.22 568.07 477.19 568.1 477.16 568.13 477.11 568.17 477.05 568.22 476.99 568.26 476.98 568.27 476.95 568.29 476.93 568.3 476.9 568.32 476.87 568.34 476.86 568.35 476.84 568.36 476.82 568.38 476.81 568.4 476.8 568.44 476.78 568.47 476.76 568.5 476.75 568.52 476.73 568.53 476.7 568.54 476.68 568.54 476.66 568.54 476.65 568.56 476.6 568.6 476.58 568.62 476.56 568.63 476.55 568.65 476.55 568.67 476.54 568.68 476.54 568.71 476.54 568.73 476.54 568.75 476.54 568.76 476.53 568.79 476.51 568.81 476.48 568.86 476.45 568.91 476.43 568.94 476.41 568.96 476.38 568.99 476.37 569.01 476.35 569.03 476.3 569.11 476.28 569.15 476.26 569.17 476.24 569.2 476.19 569.24 476.18 569.26 476.18 569.27 476.16 569.3 476.14 569.33 476.11 569.35 476.09 569.38 476.07 569.39 476.05 569.41 476.03 569.42 476 569.45 475.98 569.47 475.97 569.49 475.96 569.51 475.94 569.53 475.92 569.55 475.91 569.56 475.89 569.58 475.86 569.62 475.85 569.65 475.82 569.69 475.8 569.72 475.78 569.75 475.76 569.79 475.74 569.82 475.73 569.84 475.73 569.86 475.72 569.89 475.73 569.94 475.72 569.97 475.72 570 475.71 570.02 475.71 570.03 475.68 570.06 475.67 570.07 475.64 570.11 475.59 570.16 475.57 570.19 475.56 570.22 475.55 570.25 475.55 570.27 475.54 570.3 475.53 570.31 475.52 570.33 475.51 570.35 475.49 570.37 475.45 570.41 475.43 570.44 475.41 570.47 475.39 570.5 475.37 570.52 475.35 570.55 475.33 570.56 475.3 570.59 475.27 570.61 475.26 570.62 475.23 570.63 475.21 570.64 475.19 570.64 475.18 570.64 475.16 570.63 475.16 570.62 475.13 570.61 475.12 570.6 475.11 570.59 475.1 570.6 475.1 570.6 475.09 570.61 475.07 570.62 475.06 570.63 475.06 570.64 475.05 570.65 475.05 570.66 475.04 570.69 475.04 570.7 475.03 570.71 475.03 570.73 475.03 570.74 475.03 570.77 475.03 570.79 475.03 570.83 475.03 570.84 475.04 570.85 475.05 570.87 475.05 570.91 475.05 570.93 475.05 570.95 475.03 570.99 475.01 571.01 474.99 571.05 474.99 571.06 474.98 571.08 474.98 571.1 474.98 571.13 474.97 571.15 474.96 571.16 474.95 571.18 474.91 571.25 474.9 571.27 474.9 571.28 474.9 571.29 474.89 571.31 474.89 571.33 474.88 571.34 474.88 571.36 474.88 571.36 474.88 571.39 474.87 571.4 474.87 571.44 474.87 571.46 474.87 571.51 474.86 571.55 474.86 571.57 474.84 571.63 474.84 571.66 474.84 571.72 474.83 571.77 474.83 571.8 474.83 571.84 474.82 571.88 474.8 571.93 474.79 571.95 474.77 571.98 474.75 572 474.72 572.02 474.72 572.03 474.72 572.03 474.72 572.05 474.72 572.08 474.72 572.1 474.71 572.1 474.7 572.11 474.65 572.16 474.57 572.22 474.51 572.27 474.47 572.28 474.46 572.29 474.41 572.33 474.37 572.38 474.27 572.46 474.18 572.54 474.16 572.56 474.14 572.56 474.12 572.57 474.11 572.58 474.1 572.6 474.09 572.62 474.08 572.64 474.08 572.65 474.06 572.66 474.05 572.68 474.03 572.69 474.02 572.68 474.03 572.66 474.03 572.64 474.03 572.63 474.02 572.6 474.01 572.59 473.99 572.57 473.91 572.52 473.89 572.51 473.88 572.5 473.85 572.54 473.83 572.59 473.82 572.61 473.8 572.63 473.79 572.65 473.77 572.67 473.74 572.69 473.72 572.71 473.7 572.73 473.68 572.73 473.67 572.74 473.66 572.75 473.65 572.76 473.64 572.76 473.61 572.77 473.59 572.77 473.57 572.76 473.56 572.76 473.53 572.75 473.51 572.73 473.47 572.71 473.47 572.71 473.44 572.7 473.41 572.68 473.38 572.68 473.35 572.68 473.32 572.67 473.3 572.67 473.26 572.68 473.23 572.68 473.2 572.68 473.18 572.68 473.16 572.69 473.13 572.68 473.11 572.66 473.1 572.65 473.09 572.64 473.08 572.62 473.07 572.59 473.06 572.57 473.05 572.55 473.04 572.51 473.01 572.45 473 572.39 472.99 572.35 472.98 572.34 472.97 572.31 472.97 572.27 472.97 572.23 472.97 572.19 472.95 572.17 472.92 572.16 472.88 572.13 472.83 572.11 472.82 572.11 472.76 572.08 472.68 572.04 472.64 572.03 472.59 572.01 472.58 572.01 472.55 572.01 472.51 572 472.48 572.01 472.43 572 472.4 572.01 472.37 572.01 472.36 572.02 472.35 572.02 472.33 572.03 472.3 572.03 472.29 572.03 472.28 572.03 472.26 572.03 472.24 572.02 472.22 572.01 472.2 571.99 472.17 571.97 472.17 571.97 472.13 571.94 472.1 571.9 472.07 571.87 472.05 571.85 472.02 571.78 472 571.74 471.97 571.71 471.96 571.7 471.96 571.69 471.95 571.7 471.94 571.71 471.93 571.72 471.92 571.73 471.87 571.78 471.8 571.85 471.76 571.89 471.75 571.91 471.76 571.94 471.76 571.95 471.76 571.96 471.76 571.97 471.75 571.99 471.71 572.12 471.68 572.21 471.66 572.3 471.66 572.32 471.66 572.33 471.66 572.35 471.67 572.36 471.68 572.37 471.69 572.39 471.7 572.41 471.71 572.43 471.71 572.45 471.7 572.46 471.69 572.47 471.67 572.48 471.66 572.49 471.63 572.49 471.59 572.49 471.55 572.49 471.51 572.48 471.47 572.47 471.39 572.46 471.32 572.46 471.27 572.45 471.24 572.44 471.22 572.45 471.2 572.46 471.19 572.47 471.17 572.48 471.15 572.48 471.13 572.48 471.11 572.48 471.08 572.48 471.06 572.47 471.04 572.46 471.02 572.46 471.01 572.46 470.99 572.47 470.91 572.5 470.88 572.52 470.87 572.53 470.88 572.55 470.89 572.58 470.91 572.62 470.96 572.67 471 572.7 471.03 572.71 471.05 572.71 471.07 572.7 471.1 572.69 471.15 572.69 471.21 572.68 471.23 572.67 471.25 572.66 471.25 572.66 471.28 572.65 471.31 572.65 471.33 572.64 471.35 572.64 471.37 572.65 471.38 572.66 471.4 572.66 471.43 572.69 471.46 572.7 471.48 572.71 471.56 572.75 471.6 572.77 471.64 572.78 471.68 572.78 471.71 572.78 471.73 572.79 471.74 572.79 471.77 572.81 471.8 572.82 471.83 572.81 471.85 572.81 471.87 572.81 471.89 572.82 471.9 572.83 471.91 572.84 471.93 572.86 471.93 572.88 471.95 572.9 471.96 572.93 471.98 572.94 472 572.95 472.02 572.95 472.03 572.96 472.04 572.96 472.04 572.97 472.04 572.98 472.03 572.99 472.03 573 472.02 573.01 472 573.02 471.98 573.03 471.93 573.05 471.88 573.06 471.85 573.07 471.84 573.08 471.83 573.09 471.83 573.1 471.84 573.12 471.84 573.15 471.85 573.18 471.87 573.18 471.89 573.19 471.93 573.19 471.96 573.2 471.98 573.2 472 573.2 472.01 573.19 472.03 573.19 472.04 573.19 472.06 573.2 472.07 573.21 472.09 573.22 472.1 573.23 472.12 573.25 472.13 573.26 472.14 573.28 472.14 573.3 472.15 573.32 472.18 573.37 472.19 573.39 472.22 573.43 472.23 573.45 472.24 573.45 472.26 573.46 472.28 573.46 472.29 573.48 472.3 573.49 472.32 573.52 472.35 573.55 472.39 573.57 472.43 573.61 472.43 573.61 472.45 573.63 472.45 573.64 472.45 573.65 472.45 573.66 472.44 573.67 472.43 573.68 472.41 573.69 472.4 573.69 472.34 573.7 472.28 573.71 472.25 573.71 472.22 573.72 472.21 573.74 472.19 573.75 472.17 573.78 472.15 573.81 472.14 573.83 472.13 573.84 472.09 573.88 472.07 573.9 472.04 573.92 472.03 573.92 472.01 573.91 471.96 573.88 471.92 573.86 471.91 573.85 471.87 573.82 471.85 573.79 471.84 573.78 471.82 573.77 471.8 573.73 471.78 573.7 471.78 573.68 471.78 573.64 471.77 573.62 471.76 573.61 471.74 573.6 471.65 573.57 471.62 573.57 471.61 573.57 471.58 573.59 471.57 573.61 471.53 573.64 471.51 573.67 471.49 573.69 471.47 573.73 471.45 573.76 471.43 573.78 471.42 573.79 471.4 573.8 471.38 573.81 471.36 573.82 471.33 573.82 471.26 573.81 471.23 573.8 471.21 573.8 471.15 573.82 471.13 573.83 471.12 573.85 471.1 573.86 471.08 573.86 471.05 573.86 471.04 573.85 471.02 573.84 470.99 573.8 470.97 573.79 470.93 573.77 470.9 573.77 470.87 573.77 470.83 573.78 470.78 573.79 470.77 573.79 470.75 573.79 470.71 573.79 470.68 573.78 470.63 573.77 470.6 573.77 470.57 573.77 470.57 573.77 470.56 573.78 470.56 573.79 470.57 573.8 470.58 573.81 470.6 573.83 470.61 573.85 470.62 573.87 470.63 573.89 470.64 573.91 470.65 573.94 470.68 573.96 470.69 573.98 470.7 574 470.72 574.02 470.74 574.04 470.8 574.1 470.83 574.12 470.84 574.13 470.86 574.15 470.89 574.18 470.91 574.22 470.93 574.25 470.94 574.27 470.95 574.29 470.95 574.3 470.95 574.32 470.95 574.33 470.95 574.35 470.95 574.38 470.95 574.4 470.96 574.44 470.96 574.44 470.97 574.45 471.01 574.47 471.02 574.47 471.04 574.48 471.07 574.49 471.1 574.5 471.11 574.5 471.14 574.53 471.19 574.56 471.26 574.59 471.33 574.61 471.37 574.62 471.39 574.62 471.41 574.61 471.43 574.6 471.47 574.58 471.51 574.57 471.52 574.55 471.55 574.53 471.57 574.51 471.59 574.5 471.6 574.49 471.63 574.49 471.66 574.47 471.7 574.46 471.72 574.45 471.74 574.44 471.75 574.44 471.76 574.44 471.77 574.43 471.79 574.43 471.8 574.44 471.81 574.44 471.82 574.44 471.84 574.45 471.86 574.46 471.88 574.46 471.94 574.47 471.96 574.47 471.98 574.48 471.99 574.48 472.02 574.49 472.05 574.51 472.09 574.54 472.1 574.55 472.12 574.58 472.13 574.59 472.14 574.6 472.15 574.62 472.15 574.64 472.14 574.67 472.15 574.76 472.15 574.81 472.15 574.84 472.15 574.87 472.15 574.88 472.14 574.9 472.13 574.92 472.12 574.94 472.11 574.97 472.08 575.02 472.06 575.06 472.03 575.09 472.02 575.11 472.02 575.13 472.02 575.14 472.02 575.16 472.04 575.17 472.05 575.19 472.1 575.23 472.1 575.24 472.11 575.25 472.12 575.26 472.13 575.27 472.13 575.29 472.13 575.3 472.13 575.32 472.13 575.33 472.11 575.34 472.1 575.35 472.08 575.36 472.06 575.36 472.03 575.37 472 575.37 471.96 575.37 471.95 575.39 471.92 575.4 471.9 575.41 471.89 575.41 471.87 575.42 471.83 575.43 471.82 575.44 471.8 575.45 471.79 575.45 471.77 575.48 471.76 575.49 471.74 575.5 471.73 575.51 471.71 575.52 471.69 575.53 471.67 575.54 471.67 575.55 471.67 575.55 471.66 575.56 471.66 575.59 471.65 575.6 471.65 575.61 471.65 575.62 471.64 575.63 471.62 575.64 471.6 575.64 471.59 575.63 471.54 575.62 471.45 575.6 471.42 575.6 471.41 575.61 471.41 575.62 471.41 575.62 471.41 575.64 471.43 575.66 471.45 575.69 471.48 575.72 471.5 575.74 471.5 575.75 471.5 575.77 471.49 575.78 471.48 575.79 471.44 575.84 471.41 575.87 471.38 575.9 471.35 575.92 471.34 575.92 471.34 575.93 471.25 576 471.2 576.04 471.18 576.06 471.16 576.08 471.12 576.12 471.1 576.14 471.08 576.14 471.07 576.15 471.04 576.14 471.03 576.14 471.01 576.14 470.98 576.13 470.97 576.12 470.95 576.12 470.9 576.1 470.85 576.09 470.81 576.08 470.78 576.07 470.66 576.05 470.62 576.04 470.59 576.02 470.56 576.01 470.53 575.99 470.52 575.99 470.49 575.97 470.48 575.96 470.45 575.96 470.43 575.95 470.42 575.96 470.4 575.96 470.36 575.99 470.35 576.01 470.34 576.02 470.34 576.04 470.35 576.05 470.35 576.06 470.35 576.08 470.36 576.09 470.38 576.12 470.4 576.15 470.42 576.19 470.42 576.19 470.43 576.21 470.44 576.24 470.46 576.26 470.47 576.28 470.48 576.29 470.51 576.32 470.53 576.33 470.58 576.37 470.59 576.39 470.61 576.4 470.61 576.41 470.61 576.43 470.6 576.44 470.59 576.45 470.58 576.46 470.54 576.49 470.44 576.55 470.39 576.59 470.35 576.61 470.33 576.63 470.33 576.65 470.33 576.66 470.33 576.67 470.34 576.68 470.35 576.7 470.37 576.72 470.42 576.75 470.44 576.77 470.49 576.81 470.51 576.84 470.52 576.85 470.52 576.87 470.51 576.88 470.51 576.89 470.51 576.91 470.49 576.93 470.49 576.94 470.48 576.96 470.46 576.98 470.45 577 470.43 577.01 470.41 577.03 470.4 577.04 470.29 577.07 470.26 577.08 470.24 577.08 470.16 577.07 470.06 577.06 470.04 577.05 470.01 577.05 469.98 577.03 469.97 577.03 469.96 577.02 469.92 576.98 469.89 576.95 469.86 576.93 469.82 576.91 469.8 576.91 469.77 576.9 469.71 576.9 469.69 576.9 469.67 576.89 469.65 576.88 469.62 576.87 469.6 576.87 469.58 576.87 469.57 576.88 469.55 576.89 469.54 576.91 469.53 576.92 469.52 576.93 469.51 576.94 469.51 576.95 469.5 576.97 469.5 577 469.49 577.03 469.47 577.06 469.46 577.11 469.45 577.13 469.44 577.16 469.43 577.18 469.42 577.19 469.4 577.21 469.39 577.22 469.37 577.23 469.35 577.24 469.33 577.25 469.31 577.26 469.29 577.27 469.26 577.27 469.23 577.28 469.21 577.28 469.2 577.28 469.02 577.29 468.98 577.29 468.96 577.3 468.94 577.3 468.92 577.31 468.9 577.33 468.82 577.37 468.81 577.39 468.8 577.4 468.79 577.41 468.79 577.43 468.79 577.45 468.79 577.46 468.8 577.47 468.81 577.48 468.84 577.5 468.91 577.56 468.91 577.58 468.93 577.59 468.94 577.7 468.94 577.72 468.94 577.74 468.89 577.86 468.88 577.9 468.87 577.93 468.87 577.95 468.88 577.96 468.9 577.98 468.92 577.99 468.99 578.03 469.04 578.04 469.07 578.04 469.09 578.04 469.1 578.04 469.12 578.03 469.13 578.02 469.14 578.01 469.16 578 469.2 577.96 469.22 577.94 469.25 577.93 469.27 577.93 469.29 577.93 469.3 577.93 469.32 577.93 469.34 577.94 469.36 577.95 469.39 577.96 469.4 577.97 469.45 577.99 469.47 578.01 469.49 578.03 469.5 578.04 469.51 578.06 469.52 578.08 469.53 578.1 469.55 578.11 469.56 578.12 469.58 578.12 469.59 578.12 469.6 578.11 469.62 578.11 469.64 578.11 469.66 578.12 469.71 578.14 469.73 578.14 469.78 578.15 469.81 578.16 469.83 578.17 469.87 578.2 469.9 578.22 469.93 578.23 469.95 578.24 469.97 578.24 469.99 578.23 470 578.23 470.01 578.22 470.02 578.22 470.04 578.2 470.05 578.19 470.06 578.18 470.08 578.16 470.09 578.13 470.12 578.11 470.14 578.09 470.16 578.08 470.18 578.07 470.21 578.06 470.22 578.05 470.25 578.05 470.28 578.04 470.29 578.03 470.3 578.02 470.3 578 470.31 577.98 470.32 577.96 470.32 577.93 470.33 577.9 470.35 577.89 470.36 577.87 470.37 577.86 470.39 577.83 470.42 577.78 470.45 577.75 470.48 577.68 470.49 577.67 470.5 577.66 470.53 577.64 470.55 577.63 470.57 577.62 470.58 577.63 470.59 577.63 470.61 577.64 470.61 577.65 470.62 577.66 470.62 577.67 470.62 577.68 470.61 577.7 470.6 577.73 470.6 577.76 470.6 577.77 470.6 577.79 470.6 577.8 470.61 577.82 470.63 577.87 470.65 577.9 470.66 577.95 470.66 577.97 470.66 578 470.66 578.01 470.65 578.03 470.63 578.09 470.61 578.16 470.6 578.19 470.6 578.22 470.61 578.23 470.61 578.28 470.61 578.31 470.61 578.34 470.62 578.39 470.62 578.41 470.62 578.46 470.62 578.47 470.61 578.49 470.61 578.5 470.59 578.52 470.59 578.53 470.58 578.54 470.56 578.57 470.54 578.59 470.53 578.61 470.51 578.62 470.5 578.62 470.49 578.63 470.48 578.63 470.46 578.64 470.44 578.65 470.4 578.65 470.37 578.67 470.36 578.67 470.35 578.68 470.35 578.68 470.33 578.71 470.31 578.73 470.29 578.75 470.26 578.76 470.25 578.77 470.25 578.78 470.25 578.8 470.24 578.82 470.23 578.83 470.21 578.86 470.2 578.88 470.2 578.9 470.19 578.93 470.19 578.96 470.19 578.99 470.18 578.99 470.03 578.95 470.01 578.94 469.98 578.94 469.95 578.93 469.88 578.91 469.81 578.89 469.75 578.87 469.65 578.85 469.55 578.82 469.51 578.81 469.41 578.79 469.37 578.78 469.34 578.77 469.17 578.73 469.1 578.71 469.09 578.71 469.08 578.71 468.96 578.69 468.85 578.68 468.67 578.66 468.61 578.65 468.47 578.63 468.32 578.61 468.31 578.61 468.13 578.57 468.1 578.55 468.06 578.55 468.03 578.54 467.93 578.51 467.84 578.49 467.78 578.47 467.7 578.45 467.68 578.44 467.61 578.43 467.57 578.42 467.56 578.41 467.54 578.41 467.53 578.41 467.43 578.38 467.4 578.38 467.38 578.37 467.34 578.36 467.29 578.35 467.16 578.33 467.14 578.33 467.1 578.32 467.08 578.32 466.98 578.29 466.83 578.26 466.81 578.26 466.76 578.25 466.75 578.25 466.74 578.25 466.47 578.2 466.18 578.14 466.13 578.13 466.11 578.13 466.1 578.13 466.09 578.12 465.97 578.1 465.93 578.09 465.92 578.09 465.9 578.09 465.81 578.07 465.72 578.05 465.63 578.03 465.62 578.03 465.53 578.01 465.47 577.99 465.41 577.98 465.36 577.97 465.29 577.96 465.21 577.94 465.19 577.93 465.08 577.91 464.97 577.88 464.89 577.87 464.85 577.86 464.83 577.86 464.68 577.83 464.58 577.82 464.56 577.81 464.55 577.81 464.47 577.8 464.38 577.79 464.19 577.75 464.17 577.74 464.15 577.74 464.03 577.71 463.96 577.69 463.82 577.67 463.71 577.65 463.62 577.63 463.45 577.6 463.31 577.56 463.3 577.55 463.18 577.52 463.17 577.52 463.04 577.49 462.8 577.43 462.74 577.42 462.71 577.41 462.7 577.41 462.68 577.41 462.61 577.4 462.57 577.4 462.56 577.4 462.39 577.38 462.38 577.38 462.15 577.36 462.09 577.35 462.08 577.35 461.85 577.32 461.84 577.32 461.71 577.31 461.61 577.3 461.55 577.29 461.53 577.29 461.44 577.28 461.36 577.27 461.33 577.26 461.23 577.25 461.12 577.23 461.05 577.23 461.04 577.22 461.03 577.22 461.02 577.22 460.88 577.2 460.76 577.18 460.7 577.18 460.68 577.18 460.64 577.17 460.57 577.16 460.48 577.14 460.29 577.11 460.26 577.11 460.14 577.09 460.07 577.07 459.97 577.06 459.95 577.06 459.83 577.05 459.76 577.04 459.75 577.04 459.73 577.03 459.65 577.03 459.57 577.02 459.53 577.01 459.36 577 459.18 576.98 459.02 576.96 458.91 576.94 458.83 576.94 458.78 576.93 458.77 576.93 458.74 576.93 458.68 576.92 458.56 576.9 458.43 576.88 458.37 576.88 458.23 576.86 458.08 576.84 457.95 576.82 457.94 576.82 457.89 576.81 457.76 576.8 457.71 576.79 457.62 576.78 457.5 576.76 457.42 576.75 457.33 576.74 457.31 576.74 457.29 576.74 457.24 576.73 457.23 576.73 457.12 576.71 457.01 576.7 456.88 576.68 456.84 576.67 456.82 576.67 456.78 576.66 456.73 576.65 456.67 576.66 456.65 576.66 456.58 576.66 456.45 576.66 456.36 576.66 456.29 576.66 456.22 576.67 456.19 576.67 456.1 576.67 456.06 576.67 455.95 576.67 455.89 576.67 455.79 576.67 455.69 576.67 455.61 576.67 455.52 576.68 455.52 576.68 455.44 576.68 455.16 576.68 455.1 576.68 455.07 576.68 455.02 576.68 454.67 576.69 454.64 576.69 454.56 576.7 454.45 576.7 454.42 576.7 454.34 576.7 454.31 576.7 454.23 576.7 454.21 576.7 454.08 576.71 454.06 576.71 454.01 576.71 453.98 576.71 453.96 576.71 453.89 576.71 453.77 576.72 453.62 576.72 453.49 576.72 453.3 576.73 453.13 576.73 453.04 576.73 453 576.74 452.99 576.74 452.92 576.73 452.83 576.72 452.74 576.71 452.67 576.7 452.64 576.7 452.55 576.7 452.33 576.68 452.24 576.67 452.19 576.67 452.18 576.67 452.09 576.66 451.97 576.65 451.94 576.65 451.83 576.64 451.66 576.63 451.58 576.63 451.55 576.62 451.53 576.62 451.46 576.62 451.38 576.61 451.35 576.61 451.33 576.61 451.3 576.61 451.24 576.6 451.14 576.59 451.12 576.59 451.02 576.58 450.81 576.56 450.78 576.56 450.76 576.56 450.65 576.55 450.52 576.54 450.37 576.53 450.32 576.52 450.23 576.51 450.13 576.51 450.07 576.5 450.04 576.5 450.02 576.5 449.93 576.49 449.62 576.46 449.59 576.45 449.56 576.45 449.6 576.38 449.64 576.31 449.69 576.23 449.76 576.14 449.84 576.04 449.9 575.96 449.91 575.95 449.98 575.86 450.02 575.8 450.04 575.78 450.06 575.74 450.08 575.71 450.12 575.69 450.13 575.67 450.15 575.64 450.2 575.58 450.24 575.53 450.26 575.5 450.3 575.44 450.34 575.4 450.35 575.38 450.39 575.33 450.41 575.29 450.43 575.26 450.47 575.22 450.51 575.17 450.57 575.13 450.58 575.09 450.57 575.02 450.6 574.94 450.62 574.87 450.64 574.78 450.66 574.71 450.67 574.67 450.67 574.66 450.67 574.63 450.67 574.52 450.67 574.48 450.68 574.47 450.68 574.46 450.74 574.36 450.74 574.35 450.76 574.3 450.78 574.26 450.79 574.24 450.82 574.19 450.88 574.1 450.92 574.04 450.92 574.03 450.93 574 450.96 573.97 450.98 573.95 451 573.93 451.02 573.91 451.03 573.9 451.08 573.87 451.1 573.86 451.15 573.82 451.19 573.79 451.22 573.76 451.25 573.73 451.28 573.69 451.31 573.65 451.35 573.59 451.38 573.54 451.42 573.5 451.44 573.47 451.47 573.44 451.52 573.41 451.56 573.37 451.6 573.33 451.66 573.28 451.7 573.24 451.73 573.21 451.77 573.18 451.82 573.14 451.89 573.07 451.92 573.04 451.95 573.02 451.99 572.99 452.02 572.96 452.04 572.94 452.08 572.88 452.11 572.84 452.15 572.79 452.18 572.75 452.23 572.7 452.27 572.66 452.31 572.61 452.35 572.57 452.38 572.56 452.42 572.54 452.45 572.51 452.49 572.48 452.52 572.44 452.56 572.4 452.59 572.36 452.62 572.33 452.66 572.3 452.7 572.27 452.74 572.23 452.76 572.21 452.79 572.18 452.82 572.14 452.85 572.09 452.88 572.04 452.94 571.96 452.99 571.88 453.04 571.82 453.08 571.74 453.12 571.69 453.17 571.64 453.22 571.58 453.28 571.51 453.31 571.46 453.35 571.41 453.39 571.37 453.43 571.33 453.49 571.29 453.54 571.25 453.55 571.24 453.57 571.23 453.6 571.21 453.61 571.19 453.63 571.15 453.65 571.13 453.66 571.12 453.67 571.11 453.7 571.1 453.72 571.09 453.73 571.06 453.74 571.01 453.75 570.99 453.78 570.96 453.86 570.89 453.88 570.88 453.91 570.86 453.93 570.85 453.97 570.82 453.99 570.8 454.01 570.78 454.01 570.77 454.01 570.74 454.03 570.72 454.07 570.69 454.09 570.67 454.1 570.66 454.14 570.62 454.17 570.58 454.18 570.56 454.2 570.54 454.23 570.5 454.24 570.5 454.26 570.46 454.28 570.43 454.3 570.37 454.31 570.34 454.33 570.3 454.34 570.27 454.38 570.22 454.42 570.16 454.46 570.08 454.48 570.06 454.51 570 454.52 570 454.57 569.98 454.62 569.96 454.63 569.96 454.65 569.93 454.69 569.89 454.73 569.83 454.79 569.77 454.84 569.71 454.89 569.67 454.94 569.6 454.99 569.55 455.03 569.51 455.08 569.47 455.14 569.43 455.19 569.38 455.25 569.33 455.32 569.28 455.36 569.26 455.4 569.24 455.44 569.21 455.46 569.2 455.54 569.16 455.61 569.12 455.68 569.08 455.72 569.05 455.78 569.01 455.83 568.96 455.9 568.9 455.95 568.85 456 568.8 456.06 568.74 456.1 568.69 456.15 568.63 456.2 568.56 456.25 568.49 456.32 568.39 456.37 568.32 456.41 568.26 456.46 568.18 456.5 568.12 456.56 568.04 456.6 567.97 456.64 567.92 456.64 567.91 456.77 567.72 456.77 567.71 456.8 567.64 456.88 567.43 456.93 567.28 456.94 567.26 457.02 567.03 457.03 567.02 457.21 566.87 457.26 566.83 457.36 566.75 457.38 566.73 457.41 566.72 457.43 566.7 457.44 566.65 457.45 566.62 457.49 566.6 457.54 566.57 457.58 566.54 457.58 566.53 457.59 566.52 457.56 566.47 457.54 566.43 457.54 566.4 457.54 566.37 457.54 566.34 457.55 566.33 457.56 566.31 457.58 566.3 457.63 566.27 457.66 566.24 457.69 566.21 457.7 566.21 457.75 566.2 457.79 566.2 457.81 566.2 457.84 566.18 457.9 566.15 457.92 566.12 457.92 566.11 457.94 566.08 457.97 566.04 457.99 566 457.99 565.98 457.98 565.95 457.97 565.92 457.96 565.9 457.97 565.88 457.98 565.85 458.01 565.82 458.05 565.78 458.09 565.76 458.12 565.75 458.15 565.74 458.17 565.73 458.21 565.73 458.29 565.73 458.31 565.72 458.34 565.72 458.39 565.7 458.44 565.68 458.51 565.65 458.53 565.64 458.59 565.63 458.62 565.63 458.75 565.6 458.79 565.59 458.84 565.58 458.88 565.57 458.92 565.56 458.95 565.55 459.01 565.55 459.1 565.54 459.17 565.53 459.19 565.52 459.2 565.52 459.22 565.49 459.22 565.47 459.22 565.44 459.23 565.41 459.24 565.39 459.26 565.37 459.28 565.36 459.3 565.36 459.35 565.27 459.36 565.25 459.39 565.2 459.42 565.13 459.45 565.05 459.49 564.98 459.52 564.92 459.56 564.83 459.57 564.8 459.59 564.76 459.63 564.66 459.67 564.56 459.71 564.47 459.72 564.46 459.76 564.36 459.8 564.25 459.85 564.12 459.86 564.09 459.89 564.02 459.92 563.93 459.95 563.87 459.96 563.85 460 563.77 460.05 563.67 460.07 563.62 460.1 563.57 460.13 563.53 460.17 563.46 460.17 563.45 460.17 563.43 460.16 563.38 460.16 563.35 460.16 563.33 460.16 563.27 460.16 563.22 460.16 563.16 460.17 563.13 460.18 563.1 460.19 563.07 460.21 563.03 460.22 563.01 460.23 562.98 460.24 562.95 460.27 562.85 460.3 562.69 460.32 562.63 460.33 562.57 460.34 562.55 460.35 562.53 460.37 562.51 460.39 562.49 460.44 562.46 460.54 562.38 460.61 562.33 460.65 562.3 460.68 562.29 460.74 562.26 460.81 562.23 460.82 562.22 460.85 562.2 460.89 562.18 460.99 562.13 461.07 562.08 461.17 562.02 461.28 561.96 461.31 561.93 461.36 561.88 461.43 561.81 461.44 561.8 461.52 561.73 461.59 561.65 461.65 561.59 461.68 561.55 461.71 561.52 461.75 561.46 461.82 561.37 461.91 561.26 461.92 561.23 461.93 561.21 461.97 561.17 462.03 561.09 462.07 561.04 462.11 561.01 462.12 561 462.17 560.94 462.27 560.83 462.33 560.76 462.39 560.7 462.45 560.64 462.5 560.59 462.53 560.56 462.62 560.48 462.68 560.43 462.69 560.42 462.71 560.4 462.75 560.35 462.8 560.3 462.85 560.23 462.89 560.19 462.95 560.12 463.05 560 463.09 559.96 463.13 559.92 463.15 559.89 463.19 559.84 463.21 559.8 463.25 559.75 463.27 559.7 463.29 559.67 463.3 559.65 463.33 559.61 463.39 559.56 463.46 559.51 463.5 559.47 463.55 559.42 463.59 559.39 463.61 559.35 463.63 559.32 463.67 559.27 463.69 559.24 463.71 559.21 463.73 559.18 463.75 559.15 463.78 559.12 463.81 559.08 463.84 559.05 463.87 559.04 463.92 559.01 463.97 558.99 463.99 558.98 464.03 558.94 464.07 558.89 464.11 558.85 464.14 558.82 464.21 558.77 464.26 558.73 464.33 558.68 464.39 558.63 464.49 558.54 464.56 558.5 464.6 558.45 464.66 558.39 464.72 558.32 464.75 558.29 464.82 558.22 464.88 558.17 464.92 558.13 464.95 558.1 465.02 558.03 465.1 557.93 465.2 557.83 465.31 557.73 465.4 557.64 465.49 557.55 465.6 557.47 465.69 557.39 465.81 557.3 465.9 557.24 466 557.14 466.12 557.05 466.19 556.97 466.26 556.91 466.31 556.86 466.37 556.77 466.39 556.74 466.43 556.66 466.45 556.61 466.49 556.54 466.53 556.46 466.57 556.37 466.62 556.25 466.68 556.09 466.71 555.98 466.72 555.94 466.72 555.9 466.71 555.74 466.71 555.63 466.72 555.53 466.72 555.43 466.73 555.36 466.72 555.3 466.72 555.25 466.72 555.16 466.74 555.06 466.76 554.96 466.79 554.85 466.79 554.82 466.78 554.79 466.77 554.77 466.74 554.75 466.7 554.71 466.67 554.66 466.64 554.61 466.63 554.59 466.61 554.6 466.58 554.6 466.57 554.6 466.56 554.59 466.55 554.58 466.54 554.57 466.54 554.54 466.54 554.53 466.55 554.49 466.55 554.44 466.55 554.41 466.57 554.38 466.59 554.34 466.6 554.31 466.61 554.24 466.61 554.21 466.62 554.18 466.65 554.11 466.66 554.04 466.68 553.92 466.7 553.81 466.72 553.69 466.72 553.66 466.71 553.62 466.71 553.59 466.71 553.5 466.7 553.4 466.68 553.27 466.66 553.15 466.63 553 466.61 552.9 466.59 552.81 466.58 552.73 466.57 552.65 466.55 552.55 466.53 552.46 466.52 552.37 466.52 552.28 466.51 552.27 466.5 552.26 466.49 552.24 466.51 552.16 466.51 552.14 466.51 552.1 466.48 551.99 466.48 551.94 466.48 551.85 466.49 551.83 466.5 551.81 466.51 551.8 466.53 551.76 466.59 551.69 466.65 551.62 466.72 551.52 466.78 551.44 466.84 551.34 466.88 551.28 466.94 551.17 466.97 551.11 466.99 551.07 467.04 550.99 467.06 550.95 467.08 550.93 467.13 550.87 467.25 550.75 467.36 550.61 467.43 550.52 467.47 550.45 467.52 550.36 467.56 550.28 467.58 550.23 467.61 550.17 467.64 550.12 467.68 550.04 467.73 549.95 467.76 549.89 467.78 549.84 467.82 549.77 467.89 549.7 467.96 549.61 467.97 549.59 468 549.54 468.08 549.43 468.13 549.36 468.17 549.31 468.2 549.28 468.21 549.27 468.22 549.27 468.25 549.25 468.33 549.21 468.41 549.15 468.5 549.11 468.55 549.07 468.59 549.04 468.64 548.99 468.7 548.93 468.73 548.91 468.79 548.87 468.85 548.84 468.91 548.79 468.95 548.76 468.97 548.74 469 548.72 469.06 548.68 469.11 548.68 469.12 548.68 469.16 548.67 469.19 548.66 469.24 548.63 469.3 548.59 469.34 548.57 469.38 548.54 469.42 548.51 469.46 548.46 469.51 548.38 469.57 548.31 469.69 548.17 469.75 548.11 469.78 548.05 469.81 548.01 469.83 547.98 469.84 547.97 469.85 547.96 469.87 547.94 469.98 547.86 470.06 547.81 470.13 547.77 470.13 547.76 470.2 547.7 470.22 547.69 470.28 547.65 470.33 547.62 470.38 547.59 470.41 547.58 470.46 547.57 470.49 547.56 470.54 547.54 470.55 547.54 470.6 547.52 470.61 547.52 470.69 547.5 470.71 547.49 470.74 547.48 470.8 547.45 470.83 547.43 470.89 547.39 470.96 547.35 470.99 547.33 471.05 547.3 471.1 547.28 471.17 547.24 471.2 547.23 471.24 547.25 471.37 547.31 471.43 547.34 471.44 547.34 471.53 547.38 471.59 547.41 471.68 547.45 471.69 547.46 471.88 547.54 472.05 547.62 472.13 547.65 472.43 547.78 472.59 547.86 472.64 547.88 472.71 547.91 472.74 547.92 472.9 547.99 472.99 548.04 473.17 548.11 473.21 548.13 473.22 548.14 473.58 548.29 473.59 548.3 473.61 548.31 473.65 548.33 473.72 548.35 473.75 548.36 473.77 548.37 473.78 548.37 473.87 548.39 473.93 548.41 474 548.43 474.07 548.45 474.27 548.51 474.31 548.54 474.34 548.56 474.36 548.57 474.37 548.58 474.41 548.62 474.44 548.65 474.45 548.66 474.52 548.71 474.69 548.85 474.7 548.85 474.72 548.87 474.78 548.92 474.82 548.94 475.02 549.07 475.04 549.07 475.09 549.1 475.13 549.12 475.16 549.15 475.16 549.16 475.17 549.17 475.17 549.19 475.21 549.18 475.25 549.17 475.41 549.2 475.52 549.22 475.54 549.24 475.55 549.26 475.71 549.28 476.14 549.49 476.19 549.51 476.27 549.56 476.33 549.59 476.46 549.65 476.57 549.71 476.67 549.77 476.75 549.82 476.85 549.89 476.94 549.95 477.01 550.01 477.1 550.08 477.12 550.15 477.12 550.16 477.15 550.21 477.19 550.26 477.2 550.27 477.25 550.31 477.33 550.37 477.4 550.43 477.42 550.45 477.45 550.48 477.48 550.52 477.51 550.57 477.54 550.64 477.56 550.69 477.57 550.75 477.62 551.33 477.62 551.39 477.63 551.41 477.82 551.93 477.83 551.96 477.94 552.02 478.02 552.07 478.11 552.13 478.13 552.14 478.18 552.16 478.29 552.19 478.45 552.23 478.53 552.24 478.55 552.25 478.69 552.29 478.77 552.31 478.84 552.33 478.89 552.34 478.95 552.36 479.02 552.37 479.08 552.39 479.23 552.41 479.34 552.43 479.42 552.45 479.46 552.46 479.55 552.47 479.68 552.49 479.79 552.52 479.83 552.53 479.85 552.54 479.89 552.55 480.11 552.59 480.15 552.59 480.17 552.59 480.24 552.58 480.3 552.57 480.32 552.56 480.34 552.56 480.37 552.56 480.38 552.56 480.45 552.58 480.52 552.6 480.58 552.61 480.62 552.63 480.72 552.67 480.91 552.75 481.21 552.88 481.5 553 481.7 553.08 481.75 553.09 481.8 553.11 482.12 553.21 482.15 553.22 482.2 553.24 482.24 553.25 482.33 553.28 482.56 553.35 482.66 553.39 482.73 553.41 482.78 553.42 482.83 553.42 482.86 553.43 482.88 553.43 482.9 553.42 482.94 553.41 482.99 553.38 483.03 553.35 483.06 553.33 483.09 553.31 483.11 553.3 483.15 553.29 483.19 553.27 483.23 553.26 483.27 553.25 483.32 553.23 483.37 553.22 483.43 553.21 483.45 553.2 483.47 553.2 483.49 553.19 483.51 553.19 483.54 553.2 483.56 553.21 483.62 553.24 483.65 553.26 483.7 553.29 483.76 553.35 483.78 553.36 483.81 553.38 483.81 553.37 483.8 553.35 483.79 553.3 483.77 553.24 483.75 553.17 483.73 553.14 483.72 553.12 483.72 553.09 483.72 553.08 483.71 553.05 483.71 553.01 483.7 552.98 483.7 552.96 483.7 552.95 483.69 552.91 483.69 552.86 483.69 552.81 483.69 552.8 483.69 552.79 483.68 552.73 483.68 552.71 483.66 552.68 483.64 552.65 483.62 552.63 483.59 552.59 483.58 552.58 483.59 552.56 483.59 552.54 483.57 552.52 483.54 552.49 483.51 552.46 483.49 552.44 483.48 552.43 483.46 552.43 483.42 552.43 483.39 552.42 483.37 552.42 483.34 552.38 483.31 552.35 483.19 552.21 483.19 552.2 483.19 552.19 483.19 552.18 483.2 552.13 483.21 552.11 483.21 552.09 483.23 552.05 483.24 552.02 483.26 552 483.28 551.96 483.3 551.93 483.32 551.91 483.34 551.88 483.35 551.85 483.36 551.84 483.37 551.81 483.44 551.79 483.5 551.78 483.55 551.77 483.56 551.77 483.59 551.76 483.66 551.73 483.78 551.69 483.87 551.66 484.04 551.6 484.08 551.59 484.11 551.58 484.14 551.57 484.15 551.55 484.16 551.55 484.18 551.53 484.22 551.51 484.25 551.49 484.27 551.48 484.29 551.47 484.31 551.45 484.33 551.44 484.36 551.42 484.41 551.4 484.43 551.39 484.44 551.38 484.45 551.37 484.49 551.35 484.52 551.32 484.56 551.29 484.59 551.26 484.64 551.22 484.68 551.18 484.7 551.16 484.71 551.15 484.72 551.14 484.75 551.12 484.77 551.11 484.79 551.09 484.8 551.08 484.83 551.07 484.97 551.01 485.07 550.96 485.22 550.89 485.33 550.84 485.35 550.84 485.37 550.83 485.39 550.82 485.42 550.8 485.49 550.77 485.53 550.75 485.59 550.72 485.61 550.7 485.62 550.7 485.63 550.69 485.76 550.64 485.8 550.62 485.88 550.59 485.89 550.58 485.91 550.58 485.92 550.57 485.94 550.57 485.95 550.56 485.97 550.56 486 550.55 486.05 550.53 486.1 550.52 486.13 550.5 486.24 550.42 486.35 550.34 486.49 550.24 486.51 550.22 486.54 550.18 486.62 550.1 486.65 550.08 486.67 550.04 486.69 550.02 486.7 550.01 486.71 549.99 486.73 549.98 486.76 549.95 486.81 549.91 486.82 549.9 486.83 549.87 486.89 549.81 486.92 549.76 486.96 549.73 487.02 549.65 487.08 549.59 487.16 549.51 487.2 549.46 487.24 549.41 487.3 549.34 487.34 549.28 487.38 549.24 487.41 549.18 487.45 549.13 487.49 549.09 487.51 549.04 487.57 548.93 487.61 548.87 487.64 548.81 487.65 548.77 487.67 548.72 487.68 548.69 487.69 548.66 487.7 548.61 487.72 548.53 487.73 548.51 487.75 548.46 487.76 548.43 487.78 548.46 487.79 548.47 487.81 548.48 487.83 548.48 487.87 548.48 487.98 548.47 488.14 548.45 488.28 548.45 488.42 548.44 488.57 548.42 488.69 548.41 488.81 548.41 488.95 548.41 489.07 548.4 489.17 548.39 489.22 548.38 489.28 548.38 489.45 548.36 489.67 548.35 489.83 548.35 489.98 548.36 490.15 548.36 490.32 548.35 490.5 548.35 490.7 548.35 490.85 548.35 491.01 548.35 491.14 548.35 491.22 548.35 491.3 548.33 491.38 548.31 491.45 548.3 491.51 548.28 491.57 548.27 491.61 548.28 491.62 548.28 491.66 548.28 491.68 548.28 491.73 548.27 491.78 548.27 491.87 548.26 491.88 548.25 491.91 548.25 492.06 548.22 492.15 548.2 492.21 548.2 492.26 548.2 492.35 548.21 492.38 548.22 492.48 548.24 492.6 548.27 492.7 548.29 492.82 548.3 492.86 548.29 492.94 548.28 493.01 548.28 493.03 548.28 493.07 548.28 493.17 548.28 493.25 548.28 493.36 548.27 493.5 548.27 493.59 548.27 493.64 548.27 493.67 548.27 493.68 548.27 493.7 548.26 493.75 548.26 493.85 548.26 493.9 548.25 494 548.24 494.08 548.23 494.1 548.22 494.16 548.22 494.21 548.22 494.32 548.23 494.32 548.23 494.45 548.25 494.59 548.27 494.72 548.29 494.72 548.29 494.81 548.31 494.83 548.33 494.87 548.34 494.95 548.38 494.97 548.38 495.09 548.43 495.22 548.47 495.32 548.51 495.39 548.55 495.4 548.55 495.46 548.59 495.54 548.63 495.61 548.68 495.67 548.73 495.72 548.77 495.81 548.84 495.98 548.95 496.12 549.03 496.2 549.07 496.27 549.14 496.37 549.23 496.44 549.29 496.48 549.31 496.51 549.34 496.54 549.37 496.6 549.44 496.61 549.44 496.7 549.55 496.74 549.6 496.8 549.67 496.88 549.75 496.94 549.81 497.01 549.85 497.07 549.9 497.11 549.99 497.2 550.06 497.28 550.14 497.31 550.16 497.45 550.28 497.49 550.33 497.54 550.38 497.66 550.48 497.75 550.54 497.76 550.55 497.88 550.65 498.07 550.72 498.15 550.75 498.22 550.79 498.32 550.85 498.33 550.86 498.4 550.91 498.48 550.95 498.49 550.96 498.54 551 498.6 551.06 498.65 551.13 498.69 551.19 498.75 551.26 498.82 551.32 498.88 551.38 498.94 551.44 498.99 551.48 499.05 551.53 499.11 551.59 499.17 551.64 499.23 551.7 499.29 551.77 499.3 551.79 499.35 551.86 499.38 551.91 499.4 551.93 499.41 551.94 499.44 552.02 499.49 552.11 499.54 552.22 499.56 552.29 499.59 552.36 499.62 552.44 499.63 552.49 499.64 552.5 499.65 552.53 499.68 552.6 499.72 552.71 499.84 552.92 499.86 552.97 499.97 553.22 500.03 553.38 500.04 553.39 500.13 553.57 500.15 553.64 500.16 553.65 500.28 553.85 500.36 553.98 500.39 554.06 500.41 554.08 500.44 554.14 500.51 554.25 500.53 554.3 500.65 554.49 500.74 554.64 500.83 554.79 500.89 554.87 Z"/>
</g></svg>