<svg xmlns="http://www.w3.org/2000/svg" version="1.2" baseProfile="tiny" stroke-linecap="round" stroke-linejoin="round" viewBox="560.75 619.52 40.15 20.27"><g xmlns="http://www.w3.org/2000/svg" id="Cortes">
<path d="M 599.06 621.83 599.04 621.86 599.02 621.92 598.97 622.02 598.91 622.12 598.88 622.18 598.93 622.2 599.02 622.24 599.14 622.29 599.25 622.34 599.36 622.39 599.46 622.43 599.5 622.45 599.53 622.47 599.57 622.5 599.6 622.53 599.64 622.55 599.69 622.61 599.74 622.67 599.79 622.73 599.85 622.79 599.89 622.84 599.92 622.88 599.94 622.92 599.97 622.98 600 623.03 600.04 623.08 600.08 623.13 600.12 623.19 600.15 623.25 600.18 623.31 600.24 623.4 600.29 623.49 600.32 623.53 600.34 623.57 600.36 623.63 600.39 623.68 600.45 623.77 600.5 623.86 600.57 623.94 600.64 624.07 600.7 624.17 600.71 624.18 600.73 624.21 600.76 624.29 600.8 624.42 600.82 624.49 600.82 624.5 600.81 624.52 600.65 624.8 600.56 624.96 600.49 625.1 600.48 625.11 600.55 625.15 600.7 625.23 600.8 625.29 600.86 625.32 600.88 625.35 600.86 625.42 600.82 625.54 600.8 625.57 600.77 625.68 600.69 625.89 600.66 626 600.64 626.06 600.63 626.07 600.61 626.13 600.58 626.22 600.56 626.29 600.56 626.3 600.54 626.34 600.53 626.38 600.47 626.55 600.41 626.72 600.33 626.96 600.31 627.02 600.26 627.18 600.21 627.31 600.19 627.38 600.15 627.39 600.13 627.4 600.08 627.42 599.96 627.48 599.82 627.54 599.68 627.6 599.58 627.64 599.44 627.71 599.29 627.77 599.13 627.84 599.01 627.89 598.98 627.91 598.87 627.95 598.76 628.01 598.65 628.05 598.54 628.1 598.43 628.15 598.31 628.2 598.19 628.25 598.1 628.29 598.07 628.31 597.95 628.36 597.84 628.41 597.74 628.45 597.73 628.46 597.69 628.47 597.67 628.48 597.62 628.5 597.51 628.55 597.32 628.63 597.13 628.72 597.01 628.77 596.98 628.78 596.96 628.79 596.93 628.8 596.8 628.86 596.61 628.94 596.57 628.96 596.55 628.97 596.45 629.01 596.4 629.04 596.38 629.04 596.37 629.05 596.36 629.05 596.33 629.07 596.3 629.09 596.28 629.1 596.24 629.15 596.21 629.17 596.19 629.15 596.17 629.12 596.14 629.09 596.1 629.06 596.06 629.03 596.02 629 596 628.99 595.99 628.99 595.97 629.01 595.95 629.03 595.94 629.05 595.9 629.08 595.88 629.09 595.87 629.11 595.85 629.13 595.83 629.16 595.81 629.22 595.78 629.27 595.77 629.31 595.75 629.34 595.74 629.35 595.73 629.36 595.72 629.37 595.7 629.38 595.67 629.39 595.65 629.41 595.63 629.46 595.6 629.5 595.57 629.51 595.56 629.52 595.53 629.52 595.5 629.52 595.48 629.52 595.47 629.51 595.45 629.51 595.43 629.5 595.42 629.5 595.4 629.5 595.38 629.51 595.37 629.51 595.32 629.54 595.31 629.55 595.28 629.57 595.21 629.62 595.19 629.64 595.11 629.69 595.01 629.76 594.93 629.81 594.83 629.87 594.76 629.92 594.72 629.94 594.7 629.96 594.67 629.98 594.64 629.99 594.63 630 594.57 630.04 594.5 630.09 594.48 630.11 594.44 630.16 594.4 630.2 594.38 630.21 594.34 630.24 594.28 630.29 594.25 630.31 594.24 630.32 594.19 630.35 594.16 630.37 594.11 630.41 594.04 630.46 594.02 630.47 594.01 630.49 593.99 630.52 593.97 630.54 594 630.57 594.05 630.6 594.08 630.63 594.1 630.66 594.11 630.67 594.14 630.71 594.18 630.78 594.2 630.79 594.21 630.81 594.23 630.84 594.26 630.87 594.27 630.9 594.29 630.91 594.31 630.93 594.35 630.96 594.35 630.98 594.36 631 594.36 631.02 594.35 631.05 594.32 631.08 594.29 631.11 594.25 631.15 594.21 631.2 594.18 631.23 594.16 631.26 594.13 631.28 594.1 631.3 594.07 631.33 593.99 631.43 593.95 631.47 593.91 631.53 593.86 631.59 593.83 631.65 593.79 631.7 593.78 631.72 593.77 631.74 593.77 631.75 593.78 631.76 593.78 631.77 593.78 631.78 593.79 631.81 593.79 631.84 593.79 631.88 593.76 631.94 593.71 632.03 593.66 632.13 593.61 632.21 593.57 632.28 593.55 632.32 593.54 632.34 593.5 632.35 593.45 632.37 593.44 632.39 593.42 632.41 593.39 632.46 593.16 632.77 593.09 632.87 593.05 632.85 593.01 632.81 592.96 632.78 592.9 632.76 592.89 632.82 592.9 632.87 592.91 632.95 592.92 633.01 592.92 633.15 592.92 633.25 592.92 633.31 592.92 633.37 592.93 633.46 592.95 633.57 592.96 633.66 592.98 633.76 592.98 633.83 592.97 633.86 592.93 633.92 592.86 634.08 592.8 634.23 592.74 634.36 592.72 634.44 592.69 634.52 592.67 634.63 592.66 634.69 592.65 634.72 592.66 634.75 592.65 634.8 592.63 634.84 592.63 634.86 592.63 634.87 592.67 634.89 592.72 634.91 592.77 634.95 592.81 634.96 592.83 634.99 592.83 635.04 592.81 635.09 592.78 635.15 592.76 635.22 592.76 635.24 592.76 635.26 592.74 635.28 592.73 635.31 592.7 635.36 592.68 635.42 592.65 635.47 592.62 635.52 592.59 635.56 592.58 635.59 592.57 635.63 592.55 635.65 592.53 635.68 592.51 635.71 592.51 635.73 592.51 635.78 592.5 635.81 592.48 635.85 592.46 635.9 592.44 635.95 592.41 635.98 592.4 636 592.39 636.03 592.37 636.07 592.36 636.1 592.33 636.14 592.31 636.18 592.29 636.22 592.27 636.27 592.25 636.31 592.24 636.33 592.23 636.36 592.2 636.38 592.19 636.4 592.18 636.43 592.16 636.47 592.15 636.5 592.13 636.51 592.1 636.53 592.08 636.55 592.06 636.57 592.03 636.61 592.01 636.64 591.98 636.66 591.96 636.67 591.96 636.7 591.96 636.72 591.94 636.74 591.94 636.76 591.93 636.79 591.93 636.83 591.93 636.89 591.94 636.95 591.95 636.99 591.96 637.02 591.97 637.04 591.96 637.08 591.95 637.12 591.94 637.16 591.94 637.19 591.93 637.22 591.87 637.22 591.79 637.22 591.7 637.21 591.64 637.21 591.54 637.21 591.5 637.2 591.47 637.2 591.44 637.21 591.38 637.24 591.32 637.27 591.24 637.31 591.15 637.36 591.1 637.38 591.08 637.39 591.05 637.42 591.02 637.44 591 637.45 590.97 637.49 590.94 637.53 590.91 637.56 590.87 637.6 590.85 637.62 590.85 637.63 590.82 637.66 590.76 637.68 590.71 637.7 590.69 637.71 590.68 637.72 590.67 637.73 590.63 637.77 590.56 637.82 590.51 637.87 590.46 637.91 590.43 637.94 590.41 637.98 590.38 638.02 590.36 638.07 590.35 638.1 590.35 638.13 590.33 638.18 590.33 638.24 590.31 638.3 590.3 638.37 590.28 638.45 590.27 638.52 590.26 638.57 590.25 638.6 590.25 638.61 590.23 638.65 590.2 638.68 590.17 638.74 590.13 638.79 590.11 638.84 590.09 638.87 590.06 638.89 590.05 638.9 590.01 638.95 590 638.96 589.99 638.96 589.94 638.97 589.9 638.99 589.8 639.02 589.72 639.04 589.7 639.05 589.65 639.06 589.55 639.09 589.49 639.11 589.4 639.14 589.36 639.15 589.35 639.16 589.33 639.16 589.3 639.17 589.26 639.19 589.17 639.21 589.09 639.24 589.03 639.25 588.99 639.27 588.92 639.29 588.88 639.34 588.84 639.39 588.79 639.45 588.73 639.53 588.67 639.61 588.6 639.69 588.54 639.77 588.52 639.75 588.47 639.73 588.41 639.7 588.34 639.66 588.28 639.62 588.26 639.61 588.22 639.6 588.19 639.6 588.13 639.59 588.09 639.58 588.06 639.57 587.99 639.56 587.92 639.54 587.87 639.53 587.86 639.52 587.82 639.49 587.77 639.45 587.73 639.42 587.69 639.39 587.65 639.37 587.6 639.35 587.54 639.32 587.52 639.31 587.49 639.32 587.45 639.35 587.4 639.38 587.37 639.41 587.35 639.41 587.28 639.42 587.21 639.42 587.18 639.42 587.17 639.42 587.13 639.42 587.05 639.4 587 639.39 586.97 639.38 586.92 639.36 586.88 639.36 586.87 639.35 586.83 639.35 586.77 639.35 586.7 639.34 586.6 639.34 586.5 639.33 586.4 639.32 586.31 639.32 586.24 639.31 586.19 639.31 586.11 639.31 586.02 639.31 586.01 639.29 585.98 639.24 585.96 639.19 585.94 639.17 585.87 639.13 585.79 639.08 585.71 639.03 585.66 639 585.6 638.96 585.54 638.92 585.48 638.89 585.45 638.87 585.43 638.86 585.38 638.82 585.34 638.8 585.26 638.8 585.14 638.79 585 638.79 584.88 638.79 584.77 638.79 584.74 638.79 584.67 638.79 584.61 638.79 584.54 638.79 584.5 638.79 584.49 638.79 584.45 638.75 584.4 638.7 584.35 638.64 584.33 638.62 584.29 638.58 584.24 638.53 584.18 638.46 584.11 638.4 584.06 638.34 584.03 638.31 583.98 638.26 583.9 638.25 583.78 638.22 583.64 638.18 583.53 638.14 583.41 638.11 583.34 638.09 583.29 638.08 583.26 638.09 583.22 638.1 583.17 638.12 583.14 638.14 583.08 638.18 583.02 638.22 582.94 638.27 582.87 638.31 582.83 638.34 582.74 638.37 582.64 638.4 582.54 638.42 582.45 638.43 582.35 638.44 582.28 638.43 582.19 638.41 582.12 638.39 581.99 638.36 581.95 638.35 581.92 638.36 581.84 638.37 581.74 638.38 581.63 638.4 581.56 638.41 581.49 638.41 581.36 638.42 581.24 638.42 581.11 638.41 581.02 638.4 580.94 638.39 580.85 638.38 580.8 638.36 580.77 638.35 580.71 638.33 580.62 638.31 580.56 638.3 580.43 638.3 580.34 638.3 580.31 638.3 580.27 638.32 580.23 638.34 580.17 638.37 580.08 638.42 580.02 638.45 579.96 638.46 579.89 638.47 579.82 638.46 579.74 638.45 579.67 638.42 579.64 638.41 579.62 638.39 579.59 638.37 579.57 638.36 579.55 638.35 579.52 638.35 579.49 638.35 579.46 638.34 579.37 638.29 579.26 638.24 579.17 638.2 579.06 638.15 578.98 638.12 578.93 638.09 578.84 638.03 578.76 638 578.67 637.95 578.62 637.94 578.59 637.94 578.46 637.95 578.37 637.88 578.18 637.72 578.01 637.58 577.84 637.45 577.65 637.29 577.49 637.17 577.37 637.08 577.19 636.93 577.04 636.82 576.86 636.68 576.77 636.6 576.68 636.53 576.59 636.47 576.53 636.42 576.44 636.35 576.36 636.28 576.27 636.21 576.19 636.14 576.09 636.06 576 635.99 575.97 635.97 575.91 635.94 575.81 635.91 575.74 635.88 575.68 635.85 575.55 635.78 575.46 635.74 575.36 635.68 575.26 635.64 575.19 635.61 575.13 635.58 575.09 635.57 575.01 635.56 574.95 635.55 574.87 635.54 574.77 635.52 574.68 635.49 574.56 635.44 574.49 635.41 574.38 635.36 574.25 635.3 574.12 635.24 573.98 635.18 573.86 635.12 573.75 635.07 573.66 635.03 573.58 634.99 573.47 634.97 573.37 634.95 573.29 634.94 573.23 634.93 573.18 634.93 573.13 634.94 573.08 634.95 573.02 634.95 572.91 634.96 572.84 634.95 572.7 634.95 572.62 634.94 572.55 634.93 572.44 634.93 572.32 634.94 572.13 634.97 572.05 634.98 571.84 635.01 571.66 635.04 571.48 635.06 571.29 635.09 571.16 635.11 571.11 635.13 571.06 635.15 570.95 635.16 570.84 635.18 570.73 635.19 570.63 635.21 570.52 635.22 570.42 635.24 570.33 635.25 570.22 635.27 570.13 635.29 570.06 635.31 570 635.33 569.96 635.34 569.88 635.36 569.84 635.37 569.72 635.41 569.63 635.44 569.56 635.43 569.43 635.42 569.29 635.41 569.04 635.39 568.85 635.37 568.6 635.35 568.31 635.32 568.04 635.3 567.81 635.28 567.67 635.26 567.56 635.25 567.42 635.24 567.31 635.23 567.14 635.21 567.01 635.23 566.86 635.25 566.7 635.26 566.5 635.27 566.32 635.28 566.13 635.29 565.89 635.31 565.7 635.32 565.65 635.33 565.6 635.3 565.58 635.28 565.57 635.19 565.61 635.07 565.64 635.01 565.69 634.92 565.72 634.85 565.75 634.77 565.76 634.74 565.8 634.65 565.84 634.57 565.92 634.39 565.96 634.29 566.02 634.16 566.06 634.06 566.11 633.97 566.14 633.92 566.16 633.87 566.19 633.76 566.25 633.55 566.27 633.41 566.29 633.33 566.31 633.25 566.31 633.18 566.32 633.11 566.31 633.01 566.32 632.9 566.32 632.84 566.31 632.76 566.3 632.7 566.29 632.63 566.28 632.54 566.28 632.46 566.26 632.4 566.24 632.35 566.21 632.29 566.17 632.2 566.13 632.12 566.08 632.04 566.03 631.96 565.98 631.89 565.94 631.83 565.86 631.74 565.79 631.65 565.71 631.58 565.58 631.45 565.52 631.4 565.42 631.32 565.33 631.24 565.24 631.17 565.14 631.1 565.09 631.06 565 631 564.83 630.9 564.76 630.86 564.65 630.8 564.52 630.72 564.44 630.67 564.34 630.62 564.23 630.57 564.1 630.53 563.96 630.48 563.85 630.44 563.7 630.38 563.61 630.36 563.53 630.33 563.52 630.33 563.5 630.28 563.47 630.23 563.44 630.16 563.41 630.12 563.39 630.09 563.36 630.05 563.35 630.03 563.32 629.99 563.27 629.94 563.23 629.9 563.2 629.86 563.18 629.85 563.16 629.83 563.12 629.8 563.1 629.79 563.06 629.77 563.01 629.76 562.92 629.73 562.9 629.72 562.85 629.7 562.81 629.68 562.74 629.64 562.62 629.56 562.54 629.5 562.48 629.46 562.46 629.45 562.43 629.44 562.4 629.43 562.33 629.41 562.27 629.4 562.24 629.39 562.22 629.39 562.14 629.38 562.06 629.36 562 629.34 561.95 629.32 561.93 629.31 561.89 629.29 561.81 629.25 561.72 629.2 561.6 629.13 561.36 629 561.26 628.94 561.14 628.87 561.04 628.81 561.02 628.79 560.97 628.77 560.95 628.75 560.94 628.74 560.88 628.7 560.83 628.68 560.77 628.61 560.75 628.59 560.76 628.56 560.8 628.48 560.85 628.38 560.91 628.27 560.97 628.15 561.05 628.01 561.1 627.94 561.17 627.82 561.21 627.74 561.24 627.66 561.26 627.57 561.28 627.52 561.29 627.49 561.29 627.45 561.29 627.4 561.29 627.37 561.3 627.32 561.32 627.22 561.37 627.07 561.4 626.91 561.44 626.78 561.5 626.63 561.56 626.49 561.61 626.35 561.68 626.16 561.69 626.12 561.71 626.08 561.72 626.05 561.73 626.03 561.74 626.02 561.76 626.01 561.81 626 561.86 625.99 561.89 625.98 561.91 625.97 561.92 625.96 561.92 625.95 562 625.95 562.05 625.95 562.06 625.95 562.3 625.95 562.33 625.95 562.35 625.95 562.61 625.95 562.66 625.94 562.67 625.94 562.68 625.94 562.9 625.93 562.92 625.93 562.94 625.93 563.07 625.93 563.09 625.93 563.2 625.92 563.33 625.92 563.37 625.91 563.41 625.91 563.45 625.91 563.59 625.89 563.71 625.86 563.75 625.85 563.91 625.84 564.11 625.8 564.15 625.79 564.36 625.76 564.38 625.75 564.47 625.73 564.61 625.71 564.75 625.66 564.79 625.65 564.87 625.62 564.97 625.6 565.01 625.59 565.05 625.58 565.1 625.58 565.12 625.58 565.13 625.58 565.14 625.58 565.26 625.57 565.27 625.57 565.42 625.55 565.57 625.53 565.77 625.51 565.84 625.49 565.89 625.48 565.93 625.47 565.95 625.47 565.96 625.46 566.05 625.45 566.09 625.44 566.39 625.39 566.42 625.39 566.5 625.37 566.52 625.37 566.58 625.36 566.61 625.35 566.82 625.31 566.96 625.29 566.99 625.28 567.04 625.27 567.22 625.25 567.3 625.24 567.39 625.24 567.49 625.22 567.61 625.21 567.62 625.22 567.68 625.27 567.71 625.25 567.8 625.23 567.89 625.22 568 625.19 568.14 625.16 568.21 625.15 568.32 625.12 568.45 625.09 568.6 625.05 568.71 625.01 568.81 624.98 568.91 624.96 568.95 624.94 568.98 624.93 569.02 624.92 569.13 624.88 569.14 624.87 569.23 624.83 569.34 624.78 569.48 624.71 569.5 624.7 569.65 624.63 569.79 624.58 569.84 624.56 570.01 624.49 570.09 624.46 570.2 624.41 570.26 624.37 570.32 624.33 570.38 624.3 570.52 624.23 570.59 624.2 570.63 624.18 570.65 624.17 570.67 624.16 570.91 624.06 570.96 624.04 571.12 623.97 571.18 623.94 571.33 623.89 571.47 623.82 571.58 623.77 571.68 623.74 571.72 623.72 571.74 623.71 571.79 623.7 571.85 623.68 571.87 623.67 571.92 623.66 572.02 623.64 572.12 623.61 572.16 623.59 572.21 623.58 572.22 623.58 572.28 623.58 572.43 623.57 572.58 623.56 572.59 623.56 572.73 623.54 572.87 623.54 572.96 623.54 573.02 623.54 573.03 623.54 573.17 623.53 573.39 623.53 573.42 623.53 573.52 623.53 573.63 623.53 573.65 623.53 573.78 623.54 573.92 623.55 574.08 623.56 574.11 623.56 574.2 623.58 574.24 623.59 574.39 623.6 574.53 623.6 574.6 623.61 574.81 623.63 574.96 623.63 575.03 623.64 575.11 623.66 575.17 623.68 575.23 623.69 575.26 623.7 575.3 623.68 575.32 623.67 575.34 623.65 575.34 623.64 575.35 623.63 575.37 623.62 575.39 623.61 575.43 623.61 575.58 623.66 575.82 623.74 575.85 623.75 575.89 623.76 575.97 623.75 577.55 623.58 578.82 623.44 578.85 623.44 578.87 623.43 578.9 623.43 579.01 623.44 579.58 623.49 579.94 623.53 579.96 623.54 579.98 623.54 580.02 623.56 580.21 623.62 580.23 623.62 580.52 623.71 580.55 623.72 580.77 623.8 580.8 623.8 581.01 623.87 581.42 624 581.43 624 581.51 624.03 581.53 624.03 581.6 624.05 581.66 624.07 581.76 624.1 581.84 624.13 582.46 624.32 582.47 624.32 582.48 624.33 582.52 624.34 582.55 624.35 582.6 624.38 582.64 624.39 582.68 624.41 582.79 624.47 582.84 624.5 582.87 624.52 582.88 624.53 582.9 624.54 582.99 624.52 583.05 624.51 583.1 624.49 583.11 624.49 583.13 624.48 583.2 624.46 583.76 624.28 584.07 624.17 584.39 624.07 584.64 623.99 584.85 623.93 585.07 623.87 585.32 623.8 585.48 623.76 585.57 623.73 585.71 623.69 585.91 623.63 586.19 623.54 586.49 623.44 586.79 623.35 587.11 623.24 587.36 623.17 587.61 623.1 587.82 623.04 587.87 623.01 587.89 622.96 587.88 622.87 587.81 622.65 587.76 622.5 587.76 622.47 587.73 622.42 587.73 622.4 587.72 622.38 587.78 622.32 587.89 622.2 588.04 622.04 588.06 622.01 588.08 621.98 588.1 621.96 588.14 621.94 588.2 621.88 588.28 621.81 588.35 621.76 588.46 621.67 588.53 621.62 588.58 621.57 588.68 621.51 588.71 621.49 588.75 621.46 588.77 621.45 588.78 621.44 588.82 621.42 588.85 621.41 588.91 621.39 588.99 621.38 589.15 621.33 589.23 621.3 589.32 621.29 589.49 621.24 589.69 621.19 589.78 621.18 589.87 621.14 590.01 621.1 590.11 621.07 590.25 621.02 590.38 620.98 590.48 620.95 590.64 620.9 590.74 620.88 590.89 620.83 590.92 620.81 590.96 620.78 591.09 620.68 591.27 620.52 591.36 620.44 591.4 620.4 591.42 620.39 591.42 620.38 591.43 620.37 591.44 620.36 591.45 620.34 592.51 620.17 593.13 620.06 593.46 620.01 593.81 619.95 593.92 619.93 594 619.92 594.04 619.91 594.38 619.86 594.53 619.83 594.56 619.83 594.68 619.81 594.78 619.79 594.77 619.75 594.75 619.57 594.78 619.56 594.81 619.55 594.84 619.59 594.93 619.66 595.01 619.71 595.05 619.73 595.15 619.77 595.26 619.8 595.34 619.85 595.41 619.89 595.47 619.93 595.61 620.03 595.8 620.17 595.97 620.3 596.08 620.37 596.13 620.41 596.17 620.43 596.19 620.44 596.21 620.44 596.25 620.45 596.3 620.45 596.3 620.45 596.32 620.45 596.33 620.45 596.37 620.5 596.41 620.53 596.47 620.6 596.54 620.66 596.56 620.67 596.57 620.67 596.58 620.67 596.66 620.67 596.76 620.67 596.77 620.67 596.8 620.67 596.82 620.67 596.83 620.67 596.84 620.68 596.89 620.69 596.98 620.74 597.1 620.81 597.23 620.89 597.34 620.96 597.44 621.02 597.55 621.08 597.65 621.14 597.75 621.19 597.92 621.27 597.94 621.29 597.95 621.3 597.98 621.31 597.99 621.32 598 621.32 598.02 621.33 598.04 621.36 598.05 621.36 598.11 621.4 598.17 621.43 598.24 621.45 598.25 621.45 598.28 621.46 598.3 621.46 598.32 621.47 598.4 621.49 598.44 621.5 598.45 621.5 598.49 621.51 598.57 621.53 598.64 621.56 598.65 621.57 598.68 621.59 598.73 621.62 598.81 621.67 598.82 621.68 598.83 621.68 598.87 621.71 598.94 621.75 599.01 621.8 599.04 621.81 599.05 621.82 599.06 621.83 Z"/>
</g></svg>