<svg xmlns="http://www.w3.org/2000/svg" version="1.2" baseProfile="tiny" stroke-linecap="round" stroke-linejoin="round" viewBox="409.37 432.92 29.43 29"><g xmlns="http://www.w3.org/2000/svg" id="Cárcar">
<path d="M 415.22 432.94 415.96 433.27 416.14 433.33 416.39 433.42 416.61 433.5 416.7 433.54 417.18 433.95 417.53 434.26 417.56 434.28 417.6 434.32 417.64 434.35 417.68 434.4 417.79 434.58 417.81 434.61 417.84 434.64 417.83 434.77 418.05 434.89 418.08 434.99 418.09 435.02 418.1 435.06 418.11 435.09 418.12 435.25 418.13 435.31 418.47 435.47 418.79 435.62 418.87 435.66 418.95 435.7 419.05 435.76 419.18 435.83 419.24 435.87 419.25 435.89 419.26 435.9 419.27 435.91 419.28 435.92 419.33 435.95 419.39 435.99 419.56 436.08 419.72 436.15 419.79 436.19 419.86 436.21 419.97 436.24 420.03 436.26 420.08 436.26 420.11 436.27 420.13 436.27 420.14 436.28 420.18 436.3 420.2 436.31 420.22 436.31 420.29 436.31 420.39 436.32 420.5 436.33 420.5 436.33 420.53 436.34 420.56 436.35 420.59 436.37 420.62 436.39 420.64 436.42 420.65 436.47 420.66 436.51 420.67 436.54 420.69 436.58 420.74 436.64 420.8 436.69 420.84 436.72 420.9 436.74 420.99 436.76 421.05 436.78 421.07 436.8 421.09 436.81 421.1 436.83 421.11 436.87 421.12 436.91 421.12 436.91 421.13 436.93 421.14 436.93 421.16 436.93 421.27 436.95 421.39 436.96 421.48 436.97 421.53 436.97 421.55 436.97 421.55 436.94 421.52 436.81 421.5 436.72 421.49 436.68 421.55 436.67 421.58 436.67 421.6 436.67 421.8 436.63 421.91 436.61 421.95 436.61 422.05 436.62 422.17 436.63 422.24 436.63 422.26 436.63 422.27 436.63 422.28 436.63 422.34 436.63 422.37 436.62 422.38 436.62 422.4 436.61 422.5 436.6 422.69 436.57 422.77 436.55 422.81 436.55 422.9 436.54 422.97 436.54 423 436.53 423.03 436.53 423.07 436.52 423.09 436.51 423.11 436.5 423.12 436.5 423.15 436.5 423.16 436.5 423.18 436.5 423.21 436.49 423.35 436.52 423.47 436.55 423.49 436.55 423.57 436.56 423.73 436.6 423.79 436.62 423.82 436.62 423.84 436.62 423.86 436.62 423.88 436.62 423.89 436.62 423.91 436.62 423.96 436.62 423.99 436.62 424.06 436.64 424.11 436.65 424.17 436.65 424.22 436.67 424.28 436.67 424.32 436.67 424.34 436.68 424.36 436.68 424.44 436.71 424.56 436.73 424.64 436.74 424.68 436.76 424.7 436.76 424.73 436.77 424.87 436.78 424.96 436.8 425.06 436.82 425.13 436.83 425.21 436.84 425.29 436.86 425.34 436.87 425.38 436.87 425.42 436.87 425.49 436.9 425.55 436.91 425.68 436.95 425.83 436.99 425.93 437.01 426.03 437.05 426.11 437.08 426.13 437.08 426.15 437.08 426.15 437.09 426.27 437.13 426.37 437.18 426.51 437.23 426.53 437.23 426.61 437.24 426.67 437.26 426.81 437.29 426.96 437.32 427.11 437.36 427.39 437.45 427.46 437.48 427.51 437.49 427.55 437.5 427.63 437.53 427.76 437.56 427.86 437.59 427.92 437.6 427.97 437.61 428.04 437.63 428.09 437.64 428.14 437.64 428.23 437.65 428.32 437.65 428.38 437.65 428.45 437.65 428.57 437.65 428.65 437.64 428.75 437.64 428.83 437.64 428.86 437.64 428.92 437.64 429.11 437.66 429.31 437.68 429.46 437.69 429.53 437.7 429.57 437.7 429.65 437.69 429.73 437.69 429.81 437.7 429.84 437.69 429.86 437.7 429.94 437.71 430.46 437.81 430.68 437.86 430.76 437.88 430.8 437.9 430.85 437.91 430.98 437.95 431.07 437.97 431.13 437.99 431.17 438 431.23 438.01 431.3 438.03 431.36 438.03 431.38 438.03 431.39 438.03 431.44 438.03 431.51 438.04 431.55 438.05 431.59 438.05 431.63 438.05 431.65 438.04 431.66 438.04 431.72 438.04 431.74 438.04 431.79 438.05 431.88 438.06 431.92 438.07 432.01 438.07 432.08 438.08 432.1 438.08 432.15 438.07 432.2 438.06 432.27 438.05 432.35 438.02 432.4 438.02 432.46 438.01 432.53 438 432.71 437.98 432.85 437.97 433.01 437.96 433.05 437.96 433.09 437.95 433.13 437.94 433.16 437.94 433.19 437.94 433.25 437.95 433.34 437.95 433.44 437.96 433.55 437.97 433.6 437.97 433.64 437.97 433.71 437.96 433.83 437.95 433.95 437.94 433.96 437.94 433.97 437.94 433.99 437.94 434.01 437.94 434.05 437.94 434.09 437.94 434.14 437.94 434.19 437.95 434.25 437.95 434.29 437.95 434.36 437.96 434.43 437.96 434.44 437.96 434.49 437.96 434.55 437.96 434.61 437.95 434.69 437.93 434.81 437.9 434.94 437.86 435.03 437.83 435.11 437.81 435.21 437.79 435.28 437.76 435.35 437.73 435.46 437.68 435.58 437.63 435.62 437.62 435.66 437.59 435.69 437.56 435.76 437.49 435.78 437.46 435.8 437.45 435.82 437.43 435.86 437.41 435.9 437.4 435.94 437.39 435.98 437.37 436.03 437.36 436.08 437.35 436.11 437.34 436.14 437.34 436.2 437.33 436.23 437.29 436.25 437.27 436.31 437.2 436.35 437.16 436.4 437.12 436.41 437.11 436.43 437.1 436.44 437.1 436.45 437.1 436.47 437.12 436.5 437.16 436.53 437.22 436.57 437.27 436.58 437.3 436.62 437.36 436.66 437.42 436.73 437.53 436.8 437.65 436.83 437.72 436.92 437.89 436.98 437.98 437.02 438.07 437.07 438.15 437.08 438.18 437.11 438.22 437.13 438.24 437.14 438.27 437.19 438.32 437.22 438.35 437.29 438.41 437.33 438.46 437.35 438.49 437.38 438.51 437.4 438.55 437.42 438.57 437.44 438.6 437.46 438.62 437.48 438.66 437.51 438.73 437.55 438.79 437.59 438.86 437.61 438.9 437.63 438.92 437.65 438.95 437.67 438.97 437.69 438.99 437.72 439.01 437.76 439.03 437.83 439.07 437.88 439.1 437.91 439.13 437.93 439.15 437.96 439.17 437.99 439.21 438.01 439.24 438.04 439.28 438.06 439.31 438.08 439.36 438.12 439.43 438.16 439.5 438.19 439.55 438.21 439.59 438.23 439.61 438.24 439.63 438.27 439.67 438.33 439.72 438.36 439.75 438.44 439.84 438.48 439.89 438.54 439.97 438.57 440.02 438.62 440.09 438.69 440.2 438.73 440.27 438.76 440.31 438.78 440.36 438.79 440.38 438.79 440.4 438.79 440.43 438.79 440.46 438.77 440.5 438.79 440.49 438.73 440.6 438.62 440.81 438.52 441 438.45 441.13 438.43 441.16 438.41 441.22 438.35 441.35 438.27 441.56 438.23 441.67 438.2 441.74 438.19 441.78 438.18 441.83 438.18 441.84 438.18 441.85 438.17 441.86 438.17 441.89 438.16 441.93 438.12 442.05 438.08 442.21 438.07 442.25 438.04 442.36 438.03 442.4 438 442.56 437.97 442.72 437.94 442.87 437.9 442.97 437.89 443.02 437.89 443.04 437.86 443.14 437.83 443.25 437.82 443.29 437.81 443.34 437.79 443.44 437.75 443.6 437.71 443.72 437.69 443.79 437.67 443.88 437.64 444.01 437.63 444.08 437.61 444.19 437.61 444.21 437.59 444.32 437.58 444.36 437.57 444.39 437.6 444.61 437.55 444.69 437.54 444.71 437.53 444.72 437.52 444.75 437.47 444.83 437.32 445.08 437.29 445.14 437.26 445.21 437.26 445.23 437.22 445.29 437.14 445.4 437.09 445.48 437.02 445.59 436.99 445.66 436.96 445.69 436.94 445.72 436.92 445.75 436.89 445.81 436.85 445.86 436.83 445.91 436.78 445.96 436.73 446 436.68 446.04 436.64 446.08 436.57 446.14 436.55 446.16 436.55 446.16 436.54 446.18 436.53 446.2 436.51 446.27 436.5 446.29 436.47 446.36 436.45 446.42 436.43 446.47 436.41 446.5 436.4 446.52 436.37 446.59 436.33 446.66 436.32 446.68 436.28 446.76 436.24 446.9 436.23 446.9 436.19 447.03 436.15 447.17 436.13 447.2 436.08 447.35 436.07 447.39 436.05 447.43 436.03 447.49 436.02 447.52 436.02 447.52 436.01 447.53 435.99 447.6 435.98 447.63 435.98 447.65 435.96 447.71 435.94 447.77 435.9 447.92 435.88 448 435.83 448.15 435.83 448.19 435.8 448.28 435.78 448.33 435.72 448.5 435.67 448.62 435.64 448.7 435.6 448.81 435.58 448.85 435.57 448.86 435.56 448.91 435.55 448.94 435.53 448.96 435.51 448.98 435.43 449.08 435.4 449.11 435.24 449.28 435.23 449.29 435.14 449.39 435.01 449.53 434.96 449.58 434.95 449.6 434.94 449.61 434.94 449.62 434.93 449.64 434.9 449.69 434.87 449.72 434.83 449.76 434.81 449.79 434.77 449.81 434.76 449.82 434.71 449.85 434.69 449.86 434.67 449.88 434.67 449.89 434.66 449.89 434.62 449.93 434.6 449.95 434.58 449.97 434.56 449.98 434.53 450.01 434.5 450.04 434.49 450.05 434.46 450.08 434.44 450.1 434.42 450.13 434.4 450.16 434.39 450.18 434.37 450.2 434.36 450.21 434.33 450.24 434.32 450.24 434.29 450.25 434.27 450.26 434.25 450.27 434.23 450.28 434.22 450.3 434.22 450.32 434.21 450.34 434.2 450.34 434.18 450.36 434.14 450.4 434.07 450.44 434 450.48 433.93 450.52 433.93 450.52 433.9 450.54 433.77 450.64 433.68 450.71 433.67 450.72 433.28 451.03 433.27 451.04 433.21 451.08 433.19 451.11 433.17 451.11 433.16 451.13 433.03 451.28 433 451.32 432.99 451.34 432.97 451.38 432.92 451.45 432.88 451.5 432.82 451.57 432.78 451.61 432.66 451.75 432.65 451.76 432.61 451.81 432.56 451.86 432.49 451.94 432.43 452 432.4 452.03 432.34 452.13 432.27 452.23 432.22 452.3 432.16 452.38 432.13 452.42 432.12 452.44 432.1 452.46 432.07 452.5 432.05 452.53 432.02 452.56 432 452.61 431.98 452.65 431.95 452.7 431.93 452.75 431.91 452.77 431.9 452.8 431.87 452.84 431.84 452.88 431.81 452.91 431.77 452.96 431.73 453.04 431.67 453.11 431.64 453.17 431.58 453.26 431.52 453.35 431.4 453.54 431.39 453.54 431.38 453.57 431.25 453.78 431.16 453.92 431.14 453.95 431.13 453.96 431.13 453.97 431.12 453.98 431.1 454.02 431.06 454.05 431.03 454.08 431.01 454.09 430.99 454.11 430.98 454.13 430.91 454.21 430.87 454.26 430.86 454.28 430.86 454.28 430.8 454.36 430.79 454.38 430.78 454.39 430.67 454.53 430.64 454.56 430.64 454.57 430.63 454.57 430.43 454.78 430.4 454.81 430.37 454.84 430.36 454.86 430.35 454.86 430.34 454.87 430.32 454.88 430.3 454.9 430.29 454.9 430.24 454.93 430.24 454.94 430.09 455.02 430.05 455.04 430.03 455.05 429.99 455.07 429.94 455.11 430.14 455.4 430.21 455.52 430.28 455.71 430.39 456.01 430.54 456.28 430.61 456.44 430.63 456.49 430.63 456.53 430.61 456.58 430.55 456.76 430.51 456.84 430.45 456.95 430.4 457.04 430.37 457.04 430.33 457.06 430.31 457.09 430.3 457.1 430.29 457.11 430.23 457.19 430.19 457.24 430.18 457.26 430.16 457.28 430.13 457.32 430.12 457.32 430.11 457.33 429.97 457.42 429.65 457.61 429.65 457.61 429.53 457.69 429.52 457.69 429.51 457.7 429.49 457.71 429.3 457.73 428.89 457.76 428.72 457.78 428.63 457.79 428.59 457.79 428.5 457.8 428.48 457.82 428.47 457.82 428.05 458.09 428.02 458.11 427.98 458.14 427.91 458.18 427.91 458.19 427.89 458.2 427.88 458.2 427.82 458.25 427.65 458.36 427.61 458.4 427.59 458.41 427.55 458.44 427.47 458.5 427.33 458.59 427.31 458.6 427.25 458.62 427.14 458.64 427.09 458.65 427.07 458.66 426.95 458.69 426.92 458.71 426.9 458.72 426.86 458.74 426.83 458.75 426.82 458.76 426.8 458.77 426.7 458.83 426.69 458.83 426.66 458.85 426.65 458.85 426.63 458.86 426.6 458.88 426.58 458.89 426.57 458.91 426.55 458.93 426.54 458.95 426.52 458.98 426.48 459.03 426.45 459.08 426.32 459.27 426.23 459.4 426.21 459.44 426.2 459.45 426.18 459.47 425.79 459.94 425.78 459.96 425.67 460.09 425.51 460.28 425.47 460.33 425.42 460.39 425.41 460.4 425.4 460.4 425.37 460.44 425.27 460.56 424.94 460.91 424.81 461.05 424.8 461.06 424.55 461.31 424.51 461.37 424.48 461.42 424.48 461.42 424.4 461.55 424.22 461.76 424.2 461.77 424.01 461.9 423.99 461.91 423.9 461.83 423.82 461.76 423.81 461.75 423.79 461.74 423.71 461.7 423.69 461.69 423.54 461.62 423.43 461.57 423.24 461.44 423.18 461.41 423.06 461.33 422.98 461.29 422.84 461.2 422.77 461.14 422.72 461.1 422.66 461.07 422.61 461.03 422.54 460.98 422.51 460.97 422.46 460.94 422.39 460.9 422.35 460.88 422.28 460.84 422.26 460.83 422.21 460.79 422.02 460.63 421.79 460.45 421.7 460.37 421.67 460.33 421.55 460.21 421.53 460.19 421.47 460.14 421.45 460.13 421.44 460.12 421.44 460.11 421.42 460.09 421.37 460.03 421.34 459.99 421.3 459.96 421.25 459.91 421.2 459.87 421.16 459.84 421.11 459.8 421.09 459.79 421.08 459.78 421.06 459.77 421.04 459.76 421.02 459.75 420.99 459.73 420.97 459.7 420.9 459.64 420.82 459.57 420.75 459.52 420.64 459.43 420.62 459.41 420.52 459.32 420.4 459.22 420.3 459.14 420.24 459.09 420.21 459.06 420.14 459.01 420 458.91 419.92 458.86 419.89 458.84 419.88 458.83 419.86 458.81 419.85 458.81 419.83 458.79 419.81 458.78 419.79 458.78 419.73 458.74 419.65 458.69 419.64 458.68 419.52 458.61 419.45 458.57 419.43 458.56 419.41 458.54 419.28 458.47 419.2 458.42 419.15 458.4 419.08 458.36 418.95 458.3 418.86 458.25 418.77 458.21 418.74 458.19 418.72 458.17 418.68 458.15 418.65 458.12 418.63 458.1 418.59 458.07 418.58 458.06 418.51 458 418.47 457.96 418.42 457.91 418.37 457.87 418.25 457.78 418.14 457.7 418.08 457.64 418.03 457.59 417.99 457.57 417.91 457.52 417.83 457.46 417.79 457.44 417.76 457.41 417.73 457.39 417.7 457.37 417.67 457.34 417.59 457.28 417.57 457.26 417.56 457.25 417.53 457.24 417.53 457.23 417.48 457.18 417.39 457.1 417.35 457.05 417.31 457.01 417.24 456.94 417.12 456.83 417.05 456.76 417 456.71 416.95 456.66 416.88 456.6 416.86 456.58 416.8 456.52 416.73 456.46 416.67 456.4 416.62 456.35 416.6 456.33 416.56 456.29 416.51 456.25 416.48 456.21 416.45 456.18 416.43 456.15 416.41 456.11 416.38 456.04 416.37 456.03 416.33 455.94 416.33 455.93 416.31 455.87 416.27 455.79 416.26 455.76 416.25 455.74 416.16 455.72 416.13 455.71 416.07 455.7 416.04 455.7 415.95 455.68 415.97 455.66 416.01 455.63 416.04 455.59 416.07 455.55 416.08 455.53 416.08 455.53 416.08 455.52 416.08 455.5 416.08 455.49 416.07 455.48 416.05 455.44 416.02 455.37 415.98 455.28 415.93 455.2 415.89 455.11 415.84 455.02 415.81 454.96 415.8 454.95 415.76 454.9 415.74 454.87 415.72 454.83 415.7 454.82 415.7 454.81 415.68 454.78 415.64 454.72 415.56 454.6 415.54 454.56 415.52 454.54 415.47 454.46 415.39 454.34 415.34 454.27 415.33 454.25 415.33 454.24 415.29 454.17 415.27 454.15 415.27 454.14 415.25 454.1 415.21 454.04 415.15 453.91 415.08 453.78 414.95 453.54 414.91 453.43 414.83 453.24 414.82 453.23 414.71 452.98 414.71 452.96 414.67 452.88 414.66 452.87 414.59 452.8 414.47 452.69 414.4 452.62 414.23 452.45 414.02 452.25 414 452.23 413.9 452.12 413.85 452.08 413.82 452.05 413.74 451.97 413.69 451.93 413.6 451.84 413.4 451.63 413.37 451.6 413.16 451.4 413.15 451.39 413.26 451.32 413.31 451.28 413.36 451.24 413.41 451.2 413.45 451.16 413.5 451.12 413.57 451.06 413.6 451.03 413.63 451 413.65 450.98 413.66 450.97 413.65 450.95 413.57 450.9 413.25 450.7 413.08 450.59 412.93 450.47 412.75 450.35 412.64 450.27 412.51 450.17 412.4 450.1 412.34 450.05 412.35 450.04 412.39 450.01 412.44 449.98 412.47 449.94 412.5 449.91 412.54 449.87 412.57 449.81 412.62 449.72 412.66 449.64 412.71 449.55 412.75 449.46 412.78 449.38 412.81 449.31 412.84 449.22 412.86 449.17 412.87 449.14 412.88 449.13 412.88 449.12 412.9 449.07 412.89 449.06 412.82 449.02 412.71 448.95 412.59 448.87 412.3 448.68 412.25 448.66 412.08 448.58 411.89 448.51 411.71 448.43 411.54 448.38 411.37 448.33 411.25 448.3 411.15 448.28 411.11 448.28 410.99 448.26 410.83 448.23 410.68 448.21 410.53 448.19 410.44 448.18 410.4 448.18 410.32 448.14 410.1 448.03 409.93 447.94 409.85 447.9 409.78 447.87 409.74 447.85 409.7 447.83 409.67 447.8 409.64 447.78 409.58 447.74 409.5 447.7 409.41 447.66 409.37 447.64 409.38 447.63 409.41 447.56 409.8 446.81 409.81 446.8 409.81 446.79 409.82 446.77 409.83 446.76 409.83 446.74 409.92 446.41 410.05 445.93 410.11 445.78 410.11 445.78 410.12 445.76 410.15 445.66 410.16 445.64 410.16 445.62 410.17 445.6 410.21 445.42 410.23 445.31 410.27 445.09 410.28 445.05 410.29 445 410.37 445.04 410.47 445.08 410.5 445.1 410.53 445.12 410.79 445.26 410.84 445.18 410.88 445.12 410.94 445.02 411.08 444.82 411.21 444.62 411.23 444.6 411.24 444.59 411.26 444.55 411.33 444.45 411.36 444.4 411.43 444.28 411.44 444.26 411.47 444.22 411.5 444.16 411.53 444.08 411.53 444.07 411.54 444.05 411.56 444 411.57 443.95 411.6 443.85 411.65 443.69 411.65 443.68 411.67 443.63 411.68 443.59 411.71 443.48 411.73 443.42 411.75 443.35 411.76 443.32 411.77 443.29 411.78 443.25 411.79 443.22 411.79 443.21 411.8 443.18 411.81 443.14 411.81 443.13 411.83 443.08 411.83 443.07 411.83 443.04 411.83 443.03 411.83 443.01 411.82 442.85 411.8 442.68 411.8 442.59 411.8 442.5 411.8 442.42 411.8 442.41 411.8 442.4 411.82 442.15 411.84 441.89 411.86 441.65 411.86 441.4 411.87 441.08 411.88 440.71 411.88 440.5 411.89 440.43 411.89 440.42 411.89 440.39 411.89 440.38 411.94 440.2 411.98 440.04 411.94 439.79 411.91 439.57 411.91 439.35 411.91 439.11 411.91 439.01 411.82 438.9 411.68 438.75 411.65 438.71 411.63 438.7 411.58 438.64 411.54 438.59 411.54 438.56 411.55 438.53 411.55 438.51 411.55 438.46 411.55 438.41 411.58 438.35 411.59 438.32 411.59 438.27 411.57 438.21 411.56 438.15 411.55 438.09 411.56 438.03 411.58 437.99 411.58 437.92 411.57 437.83 411.57 437.82 411.58 437.72 411.58 437.69 411.6 437.55 411.64 437.45 411.7 437.33 411.81 437.12 411.82 437.1 411.96 436.87 412.02 436.78 412.03 436.77 412.03 436.76 412.04 436.75 412.06 436.73 412.06 436.73 412.14 436.61 412.18 436.55 412.25 436.45 412.32 436.34 412.4 436.21 412.44 436.14 412.46 436.11 412.5 436.06 412.52 436.03 412.53 436.02 412.6 435.94 412.63 435.89 412.64 435.88 412.7 435.81 412.75 435.74 412.78 435.7 412.83 435.64 412.83 435.64 412.89 435.56 412.97 435.47 413.05 435.37 413.09 435.32 413.13 435.27 413.14 435.25 413.24 435.14 413.25 435.13 413.27 435.1 413.29 435.08 413.33 435.02 413.38 434.96 413.42 434.91 413.43 434.9 413.47 434.86 413.51 434.81 413.56 434.74 413.58 434.71 413.59 434.69 413.6 434.68 413.6 434.67 413.62 434.65 413.69 434.55 413.71 434.51 413.72 434.5 413.78 434.4 413.79 434.38 413.83 434.31 413.9 434.19 413.97 434.08 414.01 434.02 414.06 433.94 414.12 433.88 414.18 433.83 414.24 433.77 414.28 433.74 414.31 433.72 414.35 433.68 414.37 433.67 414.42 433.62 414.47 433.58 414.54 433.51 414.55 433.51 414.62 433.45 414.64 433.43 414.77 433.32 414.83 433.27 414.84 433.26 414.89 433.22 414.91 433.21 415.09 433.05 415.13 433.02 415.22 432.94 Z"/>
</g></svg>