<svg xmlns="http://www.w3.org/2000/svg" version="1.2" baseProfile="tiny" stroke-linecap="round" stroke-linejoin="round" viewBox="307.37 100.58 30.88 34.98"><g xmlns="http://www.w3.org/2000/svg" id="Deba">
<path d="M 333.27 103.82 333.28 103.83 333.54 104.4 334.23 104.48 334.92 104.57 335.2 104.68 335.51 104.86 336.82 105.28 337.17 105.32 337.95 105.61 338.08 105.91 338.14 106.17 338.22 106.36 338.22 106.7 338.2 107 338.07 107.33 338.17 107.7 338.18 107.72 338.17 107.73 338.14 107.76 338.13 107.78 338.1 107.81 338.08 107.82 338.06 107.84 338.04 107.86 338.01 107.87 338 107.88 337.97 107.89 337.95 107.91 337.94 107.91 337.92 107.93 337.91 107.94 337.91 107.95 337.9 107.95 337.89 107.95 337.87 107.95 337.85 107.94 337.84 107.92 337.83 107.91 337.82 107.9 337.81 107.89 337.8 107.89 337.78 107.9 337.76 107.9 337.74 107.9 337.73 107.9 337.7 107.9 337.69 107.9 337.68 107.9 337.67 107.9 337.66 107.91 337.63 107.94 337.61 107.96 337.59 107.99 337.57 108.02 337.56 108.04 337.55 108.05 337.55 108.06 337.52 108.11 337.52 108.12 337.51 108.13 337.5 108.13 337.48 108.15 337.46 108.17 337.44 108.17 337.42 108.19 337.4 108.2 337.36 108.23 337.33 108.25 337.29 108.28 337.26 108.31 337.24 108.33 337.22 108.35 337.21 108.38 337.19 108.4 337.17 108.42 337.15 108.44 337.13 108.45 337.12 108.48 337.11 108.5 337.1 108.52 337.09 108.53 337.07 108.54 337.06 108.56 337.03 108.57 336.99 108.59 336.95 108.61 336.92 108.62 336.89 108.63 336.88 108.64 336.84 108.67 336.81 108.68 336.8 108.7 336.78 108.73 336.75 108.77 336.72 108.79 336.69 108.82 336.66 108.84 336.65 108.85 336.63 108.86 336.6 108.88 336.58 108.89 336.57 108.9 336.54 108.91 336.52 108.9 336.5 108.9 336.48 108.9 336.45 108.91 336.44 108.92 336.43 108.93 336.4 108.93 336.37 108.93 336.35 108.92 336.32 108.9 336.26 108.87 336.16 108.84 336.08 108.82 336.07 108.81 335.97 108.93 336.04 109.06 335.95 109.74 335.8 109.98 335.75 110.04 335.7 110.08 335.66 110.15 335.61 110.21 335.56 110.29 335.51 110.35 335.45 110.41 335.41 110.49 335.38 110.58 335.35 110.62 335.34 110.65 335.33 110.72 335.33 110.73 335.35 110.83 335.37 110.87 335.35 110.96 335.28 110.96 335.21 110.95 335.17 110.94 335.1 110.9 335.05 110.87 334.98 110.83 334.96 110.81 334.91 110.81 334.85 110.8 334.78 110.8 334.73 110.8 334.7 110.8 334.66 110.81 334.64 110.83 334.62 110.83 334.57 110.82 334.53 110.82 334.47 110.82 334.44 110.82 334.43 110.82 334.46 111.04 334.48 111.21 334.44 111.44 334.24 111.67 334.22 111.69 332.73 113.52 332.26 114.37 331.9 115.02 331.7 115.38 331.34 116.05 330.95 116.7 330.8 117 330.49 117.47 330.25 117.73 329.88 117.95 330.4 120.49 330.35 122.3 330.24 123.74 330.41 123.83 330.45 123.81 330.48 123.8 330.51 123.79 330.55 123.78 330.62 123.78 330.68 123.77 330.76 123.77 330.84 123.76 330.88 123.76 330.93 123.75 331.02 123.74 331.11 123.74 331.18 123.73 331.25 123.72 331.34 123.72 331.41 123.71 331.53 123.7 331.57 123.7 331.6 123.7 331.67 123.7 331.73 123.69 331.8 123.68 331.87 123.68 331.93 123.68 331.99 123.67 332.03 123.67 332.07 123.67 332.11 123.65 332.16 123.64 332.19 123.62 332.21 123.61 332.24 123.6 332.26 123.6 332.29 123.6 332.37 123.61 332.38 123.62 332.5 123.63 332.54 123.63 332.64 123.65 332.69 123.65 332.73 123.66 332.77 123.67 332.82 123.68 332.87 123.69 332.91 123.71 332.98 123.73 333.03 123.75 333.09 123.77 333.15 123.79 333.22 123.8 333.28 123.81 333.33 123.82 333.38 123.83 333.43 123.83 333.5 123.83 333.57 123.84 333.65 123.84 333.72 123.79 333.79 123.76 333.83 123.75 333.85 123.74 333.86 123.74 333.89 123.74 333.92 123.74 334.14 123.78 334.2 123.8 334.22 123.81 334.36 123.87 334.43 123.9 334.49 123.92 334.6 123.95 334.64 123.95 334.66 123.95 334.74 123.99 334.84 124.03 334.91 124.06 335 124.11 335.17 124.22 335.28 124.3 335.35 124.38 335.37 124.39 335.39 124.39 335.42 124.39 335.45 124.39 335.54 124.38 335.58 124.37 335.62 124.37 335.66 124.38 335.68 124.38 335.72 124.4 335.74 124.4 335.78 124.42 335.81 124.45 335.91 124.53 335.96 124.58 335.97 124.59 335.99 124.6 336 124.62 335.96 124.7 335.91 125.08 335.82 125.22 335.61 125.71 335.54 125.96 335.48 126.03 335.34 126.28 335.39 126.32 335.46 126.36 335.59 126.37 335.73 126.39 335.75 126.41 335.77 126.41 335.78 126.41 335.8 126.42 335.82 126.43 335.84 126.45 335.86 126.47 335.87 126.48 335.89 126.5 335.9 126.51 335.92 126.53 335.92 126.54 335.95 126.57 335.99 126.6 336.03 126.64 336.05 126.65 336.11 126.69 336.14 126.71 336.16 126.72 336.18 126.73 336.16 126.75 336.12 126.78 336.1 126.79 336.07 126.82 336.02 126.85 335.98 126.89 335.95 126.93 335.92 126.97 335.88 127.03 335.86 127.07 335.85 127.1 335.83 127.12 335.81 127.15 335.78 127.21 335.74 127.27 335.7 127.33 335.67 127.38 335.63 127.43 335.62 127.44 335.61 127.46 335.6 127.46 335.6 127.47 335.59 127.49 335.58 127.52 335.56 127.54 335.53 127.57 335.51 127.6 335.47 127.63 335.45 127.67 335.43 127.69 335.41 127.72 335.4 127.76 335.39 127.8 335.37 127.85 335.36 127.89 335.35 127.93 335.33 127.98 335.3 128.02 335.28 128.05 335.25 128.06 335.22 128.1 335.18 128.15 335.16 128.18 335.14 128.21 335.09 128.24 335.05 128.25 335.02 128.27 334.98 128.31 334.94 128.33 334.91 128.35 334.86 128.39 334.81 128.44 334.76 128.47 334.7 128.52 334.66 128.56 334.61 128.61 334.57 128.67 334.54 128.71 334.52 128.75 334.5 128.78 334.48 128.82 334.46 128.86 334.44 128.9 334.42 128.96 334.41 128.99 334.4 129.02 334.39 129.05 334.38 129.07 334.36 129.09 334.34 129.11 334.31 129.13 334.27 129.14 334.23 129.15 334.2 129.16 334.16 129.19 334.13 129.21 334.1 129.23 334.07 129.26 334.05 129.28 334.03 129.3 334.02 129.33 334.01 129.37 334 129.43 334 129.47 334 129.51 334.01 129.56 334.01 129.57 334.01 129.58 333.99 129.59 333.97 129.6 333.95 129.62 333.93 129.64 333.92 129.67 333.9 129.68 333.89 129.69 333.86 129.71 333.83 129.72 333.8 129.72 333.77 129.73 333.74 129.73 333.71 129.75 333.69 129.76 333.67 129.77 333.63 129.8 333.61 129.83 333.57 129.86 333.53 129.88 333.5 129.9 333.48 129.92 333.45 129.94 333.43 129.96 333.4 130.01 333.36 130.07 333.34 130.12 333.32 130.15 333.31 130.18 333.27 130.21 333.26 130.22 333.24 130.24 333.23 130.27 333.21 130.31 333.2 130.34 333.2 130.35 333.19 130.37 333.19 130.39 333.18 130.42 333.17 130.45 333.17 130.48 333.16 130.5 333.15 130.52 333.14 130.55 333.12 130.57 333.1 130.6 333.07 130.62 333.05 130.64 333.03 130.66 333.01 130.68 332.99 130.7 332.97 130.72 332.96 130.76 332.95 130.78 332.94 130.82 332.94 130.85 332.94 130.91 332.94 130.95 332.95 131 332.95 131.04 332.95 131.08 332.95 131.1 332.94 131.12 332.92 131.14 332.88 131.17 332.85 131.18 332.82 131.2 332.79 131.21 332.76 131.23 332.73 131.25 332.69 131.27 332.67 131.28 332.64 131.29 332.62 131.31 332.6 131.33 332.59 131.34 332.58 131.35 332.56 131.37 332.54 131.4 332.53 131.42 332.52 131.44 332.5 131.45 332.47 131.46 332.44 131.48 332.42 131.49 332.41 131.51 332.38 131.54 332.37 131.56 332.35 131.59 332.34 131.62 332.33 131.64 332.32 131.66 332.3 131.72 332.29 131.75 332.28 131.78 332.27 131.82 332.28 131.84 332.27 131.88 332.26 131.92 332.25 131.95 332.23 131.98 332.21 132 332.17 132.02 332.11 132.05 332.06 132.07 332.04 132.09 332.02 132.09 331.99 132.09 331.96 132.09 331.95 132.1 331.92 132.1 331.9 132.12 331.88 132.15 331.86 132.18 331.86 132.21 331.86 132.27 331.86 132.29 331.85 132.32 331.84 132.34 331.83 132.35 330.43 134.4 330.41 134.43 330.36 134.48 330.34 134.5 330.31 134.54 330.26 134.58 330.23 134.62 330.21 134.64 330.19 134.66 330.15 134.69 330.12 134.72 330.09 134.74 330.06 134.77 330.04 134.79 330.01 134.81 329.98 134.84 329.94 134.88 329.89 134.92 329.86 134.94 329.82 134.97 329.78 135 329.73 135.02 329.69 135.04 329.65 135.06 329.63 135.08 329.62 135.1 329.59 135.15 329.58 135.19 329.56 135.22 329.52 135.25 329.46 135.27 329.38 135.31 329.28 135.35 329.23 135.38 329.18 135.4 329.15 135.42 329.1 135.46 329.09 135.47 329.05 135.49 328.99 135.52 328.98 135.53 328.95 135.55 328.57 135.36 328.56 135.36 328.54 135.33 328.51 135.31 328.47 135.28 328.42 135.26 328.38 135.25 328.36 135.24 328.34 135.23 328.31 135.23 328.27 135.23 328.26 135.23 328.25 135.23 328.23 135.23 328.21 135.22 328.18 135.21 328.16 135.2 328.12 135.19 328.09 135.18 328.07 135.17 328.05 135.16 328.04 135.15 328.02 135.15 328 135.14 327.98 135.14 327.96 135.12 327.93 135.11 327.91 135.1 327.87 135.09 327.85 135.08 327.83 135.06 327.81 135.05 327.79 135.03 327.76 135.01 327.74 134.98 327.73 134.97 327.73 134.97 327.72 134.96 327.7 134.95 327.66 134.95 327.64 134.95 327.61 134.94 327.59 134.94 327.56 134.93 327.54 134.93 327.53 134.92 327.51 134.91 327.5 134.89 327.48 134.88 327.45 134.87 327.43 134.86 327.41 134.85 327.38 134.83 327.36 134.82 327.33 134.8 327.31 134.78 327.29 134.76 327.27 134.74 327.24 134.72 327.22 134.7 327.19 134.68 327.18 134.67 327.16 134.65 327.14 134.62 327.12 134.6 327.11 134.59 327.09 134.58 327.08 134.57 327.06 134.56 327.04 134.54 327.01 134.53 326.99 134.52 326.96 134.51 326.94 134.5 326.92 134.49 326.89 134.48 326.86 134.47 326.83 134.47 326.8 134.47 326.77 134.47 326.73 134.46 325.94 133.84 324.56 133.11 323.41 132.5 319.75 129.17 318.54 127.19 316.18 126.22 315.81 125.77 315.27 124.96 315.28 124.94 315.33 124.86 315.36 124.81 315.38 124.72 315.38 124.68 315.37 124.63 315.37 124.6 315.37 124.59 315.38 124.56 315.4 124.54 315.44 124.51 315.45 124.49 315.45 124.47 315.44 124.44 315.42 124.42 314.62 123.89 314.76 123.75 314.94 123.66 314.95 123.51 314.96 123.19 314.99 122.94 314.98 122.48 314.77 122.09 314.16 121.24 312.46 119.44 312.22 118.9 311.27 117.17 310.88 116.51 310.85 116.46 310.83 116.43 310.76 116.4 310.75 116.4 310.71 116.36 310.7 116.34 310.6 116.3 310.52 116.26 310.46 116.24 310.41 116.22 310.39 116.21 309.63 115.18 309.52 115 309.51 115 309.51 114.99 309.5 114.98 309.5 114.96 309.49 114.95 309.48 114.94 309.48 114.93 309.47 114.92 309.46 114.91 309.46 114.9 309.45 114.89 309.44 114.88 309.43 114.87 309.42 114.86 309.42 114.85 309.41 114.84 309.4 114.83 309.39 114.83 309.38 114.82 309.37 114.81 309.36 114.8 309.35 114.79 309.34 114.78 309.33 114.77 309.32 114.77 309.31 114.76 309.3 114.75 309.29 114.74 309.28 114.73 309.27 114.72 309.26 114.72 309.25 114.71 309.24 114.7 309.23 114.7 309.22 114.69 309.2 114.68 309.19 114.68 309.18 114.67 309.17 114.66 309.16 114.66 308.08 114.4 308.07 114.36 308.06 114.31 308.06 114.28 308.07 114.23 308.08 114.19 308.08 114.14 308.09 114.07 308.1 114.04 308.11 113.97 308.15 113.85 308.16 113.8 308.18 113.76 308.19 113.72 308.21 113.68 308.23 113.62 308.24 113.58 308.26 113.53 308.28 113.45 308.31 113.38 308.33 113.29 308.36 113.21 308.38 113.17 308.42 113.06 308.43 113.02 308.44 112.98 308.45 112.91 308.44 112.85 308.43 112.78 308.41 112.73 308.4 112.69 308.38 112.65 308.36 112.61 308.34 112.56 308.31 112.5 308.3 112.47 308.27 112.43 308.23 112.39 308.21 112.36 308.18 112.31 308.17 112.29 308.14 112.22 308.12 112.15 308.1 112.12 308.08 112.04 308.06 111.99 308.05 111.95 308.01 111.91 307.97 111.88 307.93 111.86 307.89 111.84 307.84 111.83 307.79 111.83 307.74 111.83 307.72 111.82 307.68 111.82 307.64 111.82 307.59 111.81 307.55 111.79 307.51 111.77 307.47 111.73 307.44 111.68 307.43 111.66 307.41 111.62 307.39 111.57 307.38 111.53 307.38 111.48 307.38 111.43 307.39 111.38 307.4 111.34 307.42 111.31 307.43 111.29 307.47 111.25 307.5 111.22 307.53 111.19 307.54 111.17 307.59 111.1 307.61 111.05 307.63 110.97 307.65 110.9 307.66 110.81 307.67 110.72 307.67 110.65 307.67 110.58 307.67 110.49 307.68 110.41 307.68 110.36 307.7 110.31 307.72 110.27 307.75 110.23 307.8 110.19 307.84 110.16 307.88 110.14 307.92 110.12 307.94 110.11 307.98 110.09 308.01 110.09 308.05 110.08 308.1 110.07 308.14 110.06 308.18 110.05 308.21 110.04 308.25 110.02 308.27 110 308.33 109.96 308.36 109.95 308.38 109.93 308.4 109.93 308.42 109.92 308.48 109.92 308.54 109.92 308.59 109.93 308.63 109.94 308.69 109.97 308.73 109.99 308.76 110.02 308.79 110.06 308.82 110.1 308.84 110.14 308.85 110.17 308.86 110.23 308.87 110.27 308.88 110.32 308.89 110.33 308.92 110.37 308.96 110.42 309.01 110.46 309.04 110.49 309.09 110.53 309.16 110.56 309.24 110.61 309.32 110.65 309.39 110.68 309.43 110.7 309.49 110.72 309.55 110.74 309.61 110.75 309.65 110.75 309.68 110.74 309.73 110.72 309.8 110.69 309.87 110.65 309.91 110.62 309.96 110.57 310.01 110.51 310.07 110.45 310.12 110.37 310.16 110.3 310.2 110.23 310.24 110.13 310.26 110.06 310.27 110 310.29 109.92 310.29 109.8 310.28 109.75 310.27 109.69 310.25 109.64 310.23 109.59 310.21 109.56 310.18 109.54 310.15 109.52 310.11 109.5 310.07 109.49 310.03 109.47 309.96 109.45 309.89 109.42 309.8 109.4 309.71 109.38 309.63 109.37 309.54 109.36 309.49 109.34 309.46 109.33 309.43 109.32 309.4 109.29 309.37 109.26 309.34 109.2 309.34 109.18 309.33 109.15 309.33 109.13 309.33 109.09 309.33 109.06 309.34 109.03 309.35 109 309.37 108.98 309.39 108.96 309.44 108.92 309.48 108.89 309.53 108.85 309.58 108.81 309.59 108.79 309.63 108.74 309.65 108.69 309.67 108.63 309.69 108.56 309.71 108.49 309.72 108.41 309.72 108.34 309.72 108.25 309.71 108.17 309.7 108.12 309.7 108.07 309.68 108 309.68 107.97 309.67 107.95 309.65 107.9 309.62 107.85 309.59 107.79 309.55 107.73 309.51 107.67 309.45 107.59 309.43 107.57 309.41 107.54 309.4 107.51 309.4 107.48 309.4 107.43 309.39 107.39 309.38 107.35 309.37 107.32 309.37 107.29 309.36 107.27 309.36 107.25 309.36 107.21 309.36 107.19 309.36 107.15 309.37 107.12 309.4 107.1 309.36 106.89 309.34 106.76 309.29 106.59 309.26 106.36 309.25 106.21 309.25 106.06 309.26 105.95 309.27 105.84 309.29 105.75 309.32 105.59 309.38 105.37 309.41 105.26 309.48 105.15 309.52 105.07 309.59 104.96 309.66 104.87 309.72 104.81 309.75 104.78 309.82 104.73 309.87 104.69 309.94 104.65 310 104.63 310.08 104.6 310.14 104.59 310.19 104.59 310.23 104.58 310.29 104.58 310.35 104.59 310.38 104.59 310.44 104.6 310.47 104.61 310.54 104.63 310.61 104.67 310.7 104.72 310.78 104.77 310.86 104.83 310.92 104.87 310.99 104.92 311.05 104.97 311.1 105.02 311.13 105.07 311.16 105.1 311.19 105.15 311.21 105.19 311.23 105.24 311.25 105.3 311.26 105.37 311.26 105.4 311.26 105.47 311.26 105.54 311.26 105.61 311.26 105.67 311.26 105.75 311.27 105.81 311.29 105.86 311.3 105.9 311.31 105.95 311.33 106 311.36 106.05 311.39 106.11 311.42 106.16 311.45 106.21 311.47 106.23 311.47 106.24 311.52 106.29 311.57 106.34 311.62 106.37 311.71 106.4 311.76 106.4 311.82 106.4 311.88 106.4 311.93 106.38 311.96 106.37 311.99 106.35 312.03 106.32 312.09 106.28 312.12 106.25 312.16 106.21 312.19 106.17 312.22 106.13 312.25 106.08 312.27 106.03 312.29 105.95 312.3 105.9 312.3 105.84 312.3 105.78 312.31 105.74 312.31 105.67 312.31 105.59 312.33 105.51 312.35 105.44 312.39 105.34 312.42 105.23 312.44 105.17 312.46 105.11 312.5 105 312.56 104.83 312.57 104.81 312.39 104.73 312.4 104.72 312.41 104.72 312.61 104.81 312.64 104.71 312.68 104.58 312.72 104.47 312.72 104.43 312.73 104.43 312.74 104.43 312.74 104.44 312.74 104.44 312.73 104.47 312.71 104.53 312.67 104.65 312.63 104.8 312.71 104.84 312.75 104.79 312.77 104.74 312.79 104.66 312.8 104.6 312.81 104.52 312.81 104.4 312.76 104.38 312.75 104.39 312.74 104.38 312.74 104.38 312.74 104.37 312.75 104.35 312.77 104.29 312.81 104.18 312.81 104.17 312.82 104.16 312.83 104.16 312.83 104.14 312.84 104.08 312.86 104.08 312.86 104.07 312.84 104.05 312.85 104.04 312.85 104.02 312.87 103.81 312.89 103.69 312.89 103.68 312.93 103.34 312.93 103.32 312.94 103.22 312.94 103.21 312.94 103.21 312.94 103.2 312.94 103.19 312.95 103.15 312.95 103.11 312.96 103.07 312.96 103.03 312.97 102.98 312.97 102.94 312.98 102.89 312.98 102.86 312.99 102.81 313 102.68 312.99 102.67 312.99 102.65 312.98 102.63 312.98 102.61 312.99 102.57 313.03 102.38 313.03 102.32 313.04 102.24 313.04 102.22 313.05 102.19 313.07 102.04 313.08 101.96 313.08 101.92 313.1 101.85 313.12 101.77 313.13 101.71 313.16 101.63 313.18 101.56 313.2 101.49 313.23 101.43 313.25 101.38 313.26 101.35 313.28 101.33 313.3 101.33 313.31 101.33 313.33 101.35 313.33 101.39 313.29 101.49 313.25 101.6 313.21 101.68 313.19 101.73 313.17 101.81 313.15 101.9 313.15 101.94 313.14 101.99 313.12 102.18 313.1 102.4 313.09 102.44 313.08 102.46 313.07 102.5 313.07 102.54 313.06 102.56 313.06 102.6 313.06 102.61 313.08 102.62 313.1 102.63 313.13 102.65 313.17 102.67 313.23 102.69 313.32 102.72 313.41 102.74 313.51 102.76 313.55 102.77 313.6 102.78 313.64 102.79 313.7 102.79 313.73 102.79 313.75 102.79 313.77 102.8 313.88 102.8 313.94 102.79 313.97 102.79 314.02 102.79 314.05 102.79 314.08 102.78 314.13 102.77 314.16 102.76 314.2 102.74 314.24 102.72 314.25 102.71 314.25 102.7 314.24 102.68 314.23 102.66 314.2 102.55 314.18 102.52 314.18 102.49 314.16 102.48 314.11 102.45 314.11 102.44 314.11 102.43 314.12 102.43 314.16 102.45 314.18 102.45 314.2 102.46 314.21 102.46 314.23 102.47 314.24 102.47 314.26 102.47 314.28 102.45 314.29 102.43 314.3 102.42 314.31 102.41 314.33 102.4 314.35 102.4 314.38 102.4 314.41 102.4 314.43 102.4 314.46 102.41 314.48 102.43 314.5 102.44 314.52 102.45 314.53 102.45 314.53 102.45 314.54 102.44 314.56 102.44 314.57 102.44 314.58 102.45 314.59 102.46 314.61 102.46 314.63 102.45 314.65 102.45 314.68 102.43 314.69 102.42 314.73 102.4 314.77 102.38 314.82 102.37 314.86 102.35 314.89 102.35 314.91 102.33 314.92 102.31 314.93 102.29 314.95 102.29 314.97 102.3 315.01 102.3 315.05 102.3 315.06 102.29 315.09 102.28 315.11 102.27 315.13 102.26 315.14 102.27 315.16 102.28 315.17 102.29 315.18 102.28 315.18 102.27 315.18 102.26 315.17 102.24 315.17 102.23 315.18 102.22 315.2 102.21 315.22 102.2 315.25 102.2 315.28 102.19 315.32 102.17 315.35 102.16 315.39 102.15 315.41 102.14 315.43 102.12 315.45 102.1 315.45 102.09 315.47 102.06 315.5 102.03 315.51 102.02 315.52 102.01 315.54 102 315.56 101.99 315.59 101.97 315.62 101.94 315.63 101.93 315.64 101.92 315.67 101.9 315.7 101.87 315.7 101.85 315.7 101.84 315.71 101.82 315.71 101.8 315.71 101.77 315.7 101.75 315.7 101.73 315.7 101.69 315.71 101.67 315.72 101.64 315.72 101.62 315.73 101.59 315.73 101.56 315.74 101.53 315.73 101.5 315.73 101.46 315.72 101.42 315.71 101.39 315.71 101.36 315.71 101.34 315.71 101.31 315.71 101.29 315.71 101.27 315.71 101.24 315.72 101.21 315.73 101.18 315.74 101.16 315.75 101.14 315.77 101.11 315.79 101.08 315.81 101.06 315.83 101.04 315.85 101.02 315.86 101 315.87 100.99 315.86 100.97 315.84 100.96 315.84 100.94 315.84 100.94 315.85 100.93 315.87 100.94 315.88 100.94 315.88 100.93 315.87 100.91 315.86 100.9 315.88 100.9 315.89 100.89 315.9 100.87 315.9 100.85 315.9 100.84 315.9 100.82 315.9 100.81 315.9 100.79 315.9 100.79 315.91 100.78 315.93 100.76 315.92 100.75 315.91 100.75 315.91 100.74 315.94 100.73 315.96 100.73 315.99 100.74 316.01 100.75 316.02 100.76 316.03 100.78 316.04 100.79 316.04 100.78 316.03 100.77 316.03 100.76 316.06 100.77 316.07 100.78 316.08 100.79 316.08 100.81 316.09 100.82 316.1 100.81 316.11 100.79 316.12 100.78 316.13 100.75 316.15 100.73 316.16 100.74 316.19 100.75 316.2 100.76 316.21 100.77 316.21 100.79 316.2 100.79 316.19 100.79 316.2 100.81 316.22 100.82 316.24 100.83 316.25 100.83 316.26 100.83 316.26 100.81 316.27 100.79 316.28 100.79 316.3 100.8 316.31 100.8 316.33 100.82 316.35 100.83 316.36 100.84 316.38 100.84 316.38 100.82 316.38 100.81 316.36 100.8 316.35 100.79 316.35 100.78 316.36 100.78 316.37 100.78 316.37 100.77 316.37 100.77 316.39 100.77 316.39 100.75 316.37 100.72 316.36 100.69 316.38 100.69 316.4 100.7 316.42 100.72 316.44 100.73 316.46 100.74 316.49 100.74 316.5 100.74 316.51 100.73 316.5 100.72 316.49 100.71 316.47 100.7 316.47 100.69 316.48 100.68 316.47 100.67 316.47 100.65 316.45 100.64 316.44 100.63 316.42 100.61 316.43 100.59 316.44 100.59 316.45 100.59 316.47 100.6 316.49 100.62 316.5 100.63 316.51 100.65 316.51 100.65 316.51 100.67 316.52 100.67 316.54 100.7 316.54 100.72 316.54 100.76 316.55 100.78 316.56 100.8 316.57 100.82 316.59 100.83 316.62 100.84 316.64 100.86 316.65 100.88 316.66 100.92 316.68 100.94 316.7 100.97 316.74 101 316.78 101.02 316.8 101.04 316.84 101.07 316.86 101.09 316.88 101.1 316.91 101.12 316.94 101.13 316.96 101.13 316.98 101.13 317.01 101.13 317.03 101.11 317.04 101.11 317.05 101.1 317.07 101.09 317.09 101.09 317.12 101.09 317.14 101.09 317.17 101.1 317.18 101.1 317.19 101.1 317.19 101.09 317.2 101.07 317.21 101.06 317.22 101.04 317.23 101.04 317.25 101.05 317.27 101.07 317.29 101.08 317.32 101.09 317.34 101.1 317.36 101.1 317.39 101.11 317.4 101.12 317.4 101.13 317.4 101.14 317.4 101.15 317.4 101.18 317.41 101.19 317.42 101.2 317.43 101.24 317.44 101.28 317.45 101.32 317.46 101.34 317.47 101.36 317.49 101.37 317.51 101.37 317.53 101.4 317.54 101.41 317.57 101.42 317.58 101.44 317.6 101.46 317.62 101.49 317.65 101.52 317.69 101.54 317.71 101.55 317.73 101.55 317.74 101.54 317.76 101.53 317.81 101.53 317.85 101.53 317.89 101.53 317.94 101.53 317.97 101.54 317.99 101.55 318 101.55 318.02 101.55 318.03 101.54 318.04 101.52 318.05 101.51 318.05 101.5 318.08 101.5 318.1 101.5 318.13 101.51 318.17 101.51 318.19 101.51 318.24 101.53 318.28 101.54 318.31 101.56 318.32 101.57 318.35 101.59 318.39 101.6 318.42 101.62 318.46 101.63 318.48 101.64 318.5 101.65 318.55 101.65 318.57 101.64 318.58 101.62 318.6 101.6 318.61 101.59 318.62 101.59 318.64 101.59 318.66 101.6 318.66 101.6 318.66 101.62 318.66 101.63 318.66 101.63 318.65 101.64 318.65 101.66 318.65 101.68 318.68 101.72 318.7 101.74 318.73 101.76 318.76 101.78 318.78 101.8 318.82 101.83 318.85 101.84 318.89 101.85 318.94 101.87 318.98 101.88 319.02 101.9 319.05 101.9 319.07 101.9 319.09 101.91 319.11 101.92 319.13 101.92 319.13 101.91 319.12 101.9 319.13 101.9 319.14 101.9 319.17 101.91 319.18 101.92 319.2 101.93 319.23 101.94 319.25 101.94 319.25 101.93 319.27 101.94 319.3 101.95 319.33 101.97 319.36 101.99 319.4 102.01 319.43 102.03 319.47 102.06 319.51 102.08 319.54 102.1 319.59 102.13 319.64 102.15 319.67 102.17 319.7 102.18 319.73 102.2 319.76 102.21 319.78 102.22 319.8 102.24 319.82 102.25 319.85 102.26 319.87 102.27 319.89 102.27 319.91 102.27 319.94 102.29 319.95 102.31 319.97 102.33 320 102.35 320.03 102.36 320.06 102.37 320.09 102.39 320.13 102.41 320.17 102.43 320.2 102.45 320.23 102.47 320.25 102.49 320.26 102.51 320.27 102.54 320.28 102.55 320.29 102.54 320.29 102.53 320.3 102.53 320.31 102.54 320.33 102.56 320.35 102.58 320.36 102.6 320.38 102.61 320.41 102.63 320.44 102.66 320.46 102.69 320.48 102.7 320.51 102.72 320.54 102.74 320.57 102.76 320.6 102.79 320.65 102.82 320.68 102.84 320.72 102.85 320.74 102.88 320.77 102.9 320.8 102.92 320.82 102.93 320.86 102.95 320.91 102.97 320.94 102.99 320.99 103.01 321.02 103.02 321.06 103.02 321.09 103.04 321.12 103.04 321.14 103.04 321.16 103.04 321.18 103.06 321.2 103.06 321.24 103.07 321.26 103.07 321.29 103.08 321.32 103.08 321.34 103.09 321.37 103.11 321.4 103.11 321.43 103.11 321.45 103.12 321.49 103.14 321.51 103.15 321.54 103.15 321.57 103.16 321.6 103.17 321.64 103.19 321.68 103.2 321.7 103.21 321.75 103.22 321.78 103.23 321.81 103.24 321.85 103.25 321.88 103.25 321.92 103.25 321.95 103.27 321.98 103.28 322 103.27 322.03 103.27 322.05 103.26 322.07 103.25 322.09 103.25 322.1 103.25 322.13 103.24 322.16 103.24 322.19 103.23 322.22 103.22 322.25 103.22 322.28 103.21 322.3 103.2 322.32 103.19 322.35 103.18 322.37 103.18 322.46 103.18 322.48 103.18 322.49 103.17 322.5 103.16 322.51 103.15 322.52 103.15 322.54 103.15 322.55 103.15 322.57 103.14 322.59 103.13 322.61 103.12 322.62 103.12 322.64 103.12 322.67 103.11 322.7 103.09 322.73 103.07 322.75 103.07 322.79 103.06 322.8 103.04 322.8 103.01 322.79 102.97 322.8 102.94 322.82 102.91 322.83 102.9 322.85 102.89 322.86 102.89 322.87 102.88 322.88 102.86 322.89 102.85 322.9 102.84 322.91 102.83 322.91 102.82 322.91 102.8 322.9 102.78 322.89 102.76 322.89 102.75 322.89 102.74 322.9 102.72 322.91 102.72 322.91 102.71 322.92 102.69 322.92 102.68 322.92 102.67 322.93 102.65 322.94 102.65 322.97 102.65 322.99 102.65 323 102.64 323 102.63 322.99 102.62 322.97 102.61 322.96 102.6 322.93 102.59 322.93 102.57 322.93 102.56 322.95 102.56 322.97 102.56 323 102.57 323.02 102.58 323.06 102.59 323.11 102.6 323.14 102.62 323.15 102.62 323.17 102.65 323.18 102.67 323.2 102.69 323.22 102.71 323.22 102.72 323.21 102.72 323.2 102.72 323.19 102.72 323.18 102.73 323.18 102.74 323.19 102.75 323.2 102.75 323.22 102.76 323.25 102.76 323.26 102.78 323.28 102.79 323.27 102.8 323.27 102.8 323.26 102.81 323.25 102.82 323.25 102.84 323.27 102.86 323.29 102.87 323.3 102.89 323.3 102.92 323.3 102.95 323.3 102.98 323.32 103 323.33 103.01 323.35 103.03 323.37 103.06 323.38 103.08 323.4 103.11 323.41 103.14 323.42 103.16 323.44 103.17 323.47 103.18 323.49 103.18 323.51 103.17 323.53 103.17 323.56 103.17 323.59 103.18 323.63 103.2 323.67 103.22 323.71 103.24 323.74 103.25 323.76 103.26 323.82 103.26 323.86 103.25 323.91 103.23 323.94 103.21 323.97 103.2 323.98 103.18 323.98 103.16 323.98 103.13 323.98 103.1 323.97 103.06 323.96 103.02 323.96 102.99 323.97 102.97 323.98 102.96 324.01 102.94 324.02 102.93 324.04 102.92 324.06 102.92 324.08 102.91 324.08 102.9 324.09 102.89 324.09 102.87 324.1 102.85 324.11 102.85 324.12 102.86 324.13 102.86 324.14 102.85 324.14 102.84 324.16 102.83 324.17 102.84 324.19 102.85 324.21 102.86 324.23 102.86 324.24 102.86 324.25 102.85 324.24 102.83 324.25 102.82 324.26 102.82 324.28 102.83 324.29 102.85 324.3 102.86 324.32 102.88 324.33 102.9 324.35 102.94 324.37 102.97 324.39 102.99 324.39 103.01 324.42 103.01 324.44 103.02 324.45 103.02 324.47 103.03 324.51 103.03 324.54 103.04 324.56 103.04 324.58 103.05 324.59 103.07 324.62 103.09 324.64 103.11 324.65 103.12 324.67 103.14 324.69 103.14 324.71 103.14 324.73 103.14 324.75 103.14 324.77 103.14 324.8 103.13 324.81 103.12 324.83 103.12 324.85 103.11 324.88 103.11 324.9 103.1 324.92 103.08 324.94 103.08 324.95 103.08 324.97 103.08 324.99 103.09 325.01 103.1 325.03 103.11 325.05 103.11 325.07 103.12 325.08 103.13 325.09 103.13 325.14 103.13 325.18 103.13 325.21 103.13 325.23 103.12 325.25 103.11 325.27 103.09 325.28 103.08 325.29 103.07 325.3 103.07 325.32 103.06 325.34 103.06 325.36 103.04 325.4 103.02 325.44 103.01 325.47 102.99 325.51 102.98 325.53 102.96 325.55 102.94 325.59 102.92 325.63 102.89 325.64 102.88 325.66 102.86 325.68 102.83 325.69 102.8 325.7 102.77 325.7 102.74 325.71 102.71 325.71 102.69 325.72 102.69 325.73 102.67 325.73 102.65 325.72 102.62 325.71 102.59 325.7 102.57 325.68 102.53 325.67 102.51 325.67 102.48 325.67 102.45 325.69 102.44 325.7 102.45 325.72 102.46 325.74 102.48 325.75 102.5 325.77 102.52 325.8 102.55 325.82 102.56 325.84 102.58 325.85 102.58 325.87 102.59 325.89 102.6 325.91 102.62 325.92 102.62 325.94 102.65 325.96 102.66 325.96 102.68 325.97 102.7 325.99 102.73 326 102.76 326.01 102.78 326.02 102.79 326.03 102.79 326.04 102.78 326.03 102.76 326.03 102.75 326.02 102.74 326.02 102.73 326.03 102.72 326.04 102.72 326.05 102.73 326.07 102.74 326.09 102.75 326.11 102.75 326.12 102.75 326.12 102.74 326.13 102.74 326.14 102.75 326.16 102.75 326.19 102.76 326.22 102.76 326.26 102.76 326.28 102.76 326.3 102.76 326.32 102.76 326.35 102.76 326.36 102.75 326.37 102.75 326.38 102.75 326.4 102.75 326.42 102.75 326.46 102.74 326.5 102.74 326.53 102.73 326.55 102.72 326.57 102.7 326.59 102.68 326.61 102.66 326.62 102.65 326.64 102.64 326.65 102.64 326.67 102.64 326.69 102.65 326.7 102.66 326.71 102.67 326.73 102.68 326.76 102.68 326.77 102.68 326.78 102.69 326.8 102.69 326.81 102.69 326.82 102.68 326.83 102.69 326.85 102.7 326.86 102.72 326.88 102.73 326.9 102.74 326.93 102.76 326.95 102.78 326.97 102.79 326.98 102.81 327 102.82 327 102.83 327.01 102.84 327.02 102.85 327.03 102.86 327.03 102.88 327.04 102.89 327.06 102.91 327.07 102.92 327.09 102.92 327.11 102.94 327.12 102.95 327.13 102.96 327.14 102.97 327.16 102.98 327.18 102.98 327.2 102.98 327.21 102.99 327.22 103 327.23 103.02 327.25 103.04 327.26 103.06 327.28 103.07 327.3 103.08 327.31 103.1 327.33 103.12 327.35 103.13 327.38 103.14 327.4 103.14 327.42 103.15 327.43 103.15 327.45 103.17 327.46 103.19 327.49 103.2 327.51 103.21 327.54 103.22 327.56 103.22 327.58 103.22 327.59 103.21 327.61 103.2 327.64 103.19 327.67 103.18 327.69 103.18 327.76 103.18 327.8 103.17 327.83 103.16 327.86 103.15 327.87 103.15 327.88 103.15 327.91 103.15 327.92 103.17 327.93 103.18 327.94 103.19 327.97 103.19 328 103.2 328.03 103.21 328.07 103.23 328.09 103.24 328.12 103.26 328.15 103.27 328.18 103.28 328.21 103.3 328.23 103.3 328.3 103.3 328.32 103.31 328.34 103.31 328.36 103.33 328.38 103.34 328.4 103.35 328.41 103.35 328.43 103.36 328.45 103.37 328.47 103.38 328.48 103.37 328.49 103.38 328.5 103.39 328.52 103.39 328.54 103.39 328.55 103.4 328.57 103.41 328.6 103.41 328.61 103.4 328.63 103.4 328.64 103.4 328.66 103.41 328.67 103.42 328.68 103.43 328.69 103.44 328.71 103.43 328.73 103.43 328.75 103.44 328.76 103.45 328.78 103.45 328.8 103.47 328.83 103.47 328.85 103.48 328.86 103.48 328.88 103.49 328.9 103.5 328.91 103.5 328.93 103.5 328.95 103.5 328.96 103.51 328.98 103.51 328.99 103.51 329.01 103.5 329.02 103.51 329.03 103.51 329.04 103.5 329.06 103.51 329.08 103.52 329.1 103.52 329.12 103.53 329.14 103.53 329.15 103.52 329.16 103.51 329.17 103.51 329.2 103.51 329.21 103.51 329.22 103.51 329.23 103.51 329.24 103.5 329.27 103.5 329.29 103.5 329.3 103.51 329.31 103.51 329.32 103.51 329.34 103.51 329.35 103.51 329.37 103.5 329.38 103.5 329.4 103.51 329.41 103.51 329.43 103.51 329.44 103.51 329.45 103.51 329.47 103.51 329.48 103.52 329.5 103.52 329.51 103.52 329.52 103.52 329.53 103.52 329.55 103.53 329.56 103.53 329.57 103.53 329.59 103.53 329.62 103.53 329.65 103.52 329.68 103.52 329.73 103.53 329.77 103.54 329.81 103.56 329.83 103.58 329.87 103.6 329.91 103.63 329.92 103.64 329.94 103.66 329.97 103.69 330.01 103.71 330.05 103.73 330.08 103.74 330.11 103.74 330.14 103.74 330.16 103.73 330.2 103.72 330.22 103.72 330.24 103.73 330.27 103.73 330.33 103.73 330.38 103.73 330.43 103.73 330.47 103.71 330.5 103.71 330.54 103.72 330.57 103.72 330.6 103.73 330.63 103.74 330.67 103.77 330.72 103.8 330.77 103.83 330.8 103.83 330.82 103.83 330.84 103.81 330.89 103.81 330.93 103.81 330.97 103.81 331.02 103.79 331.06 103.79 331.13 103.77 331.17 103.76 331.2 103.76 331.24 103.76 331.28 103.76 331.34 103.76 331.4 103.77 331.46 103.77 331.51 103.78 331.56 103.8 331.6 103.81 331.64 103.82 331.69 103.82 331.75 103.81 331.81 103.81 331.84 103.8 331.92 103.8 332 103.8 332.03 103.8 332.1 103.8 332.19 103.81 332.25 103.83 332.3 103.84 332.37 103.84 332.41 103.85 332.44 103.87 332.49 103.91 332.54 103.94 332.57 103.94 332.62 103.93 332.65 103.91 332.68 103.91 332.73 103.91 332.76 103.91 332.79 103.92 332.82 103.92 332.86 103.9 332.92 103.87 332.99 103.85 333.06 103.83 333.12 103.82 333.15 103.81 333.2 103.82 333.23 103.82 333.27 103.82 Z"/>
</g></svg>