<svg xmlns="http://www.w3.org/2000/svg" version="1.2" baseProfile="tiny" stroke-linecap="round" stroke-linejoin="round" viewBox="398.95 285.1 38.62 68.32"><g xmlns="http://www.w3.org/2000/svg" id="Deierri">
<path d="M 426.17 306.3 426.15 306.33 426.09 306.44 426.08 306.47 426.08 306.49 426.08 306.55 426.11 306.65 426.14 306.73 426.17 306.78 426.21 306.83 426.24 306.86 426.25 306.89 426.25 306.91 426.25 306.96 426.24 307 426.23 307.02 426.23 307.04 426.25 307.06 426.27 307.08 426.31 307.11 426.34 307.14 426.38 307.22 426.39 307.24 426.39 307.28 426.39 307.31 426.38 307.36 426.38 307.4 426.38 307.42 426.4 307.46 426.43 307.54 426.44 307.58 426.44 307.64 426.44 307.69 426.41 307.74 426.38 307.78 426.33 307.82 426.31 307.85 426.29 307.88 426.29 307.89 426.3 307.93 426.32 307.95 426.36 307.95 426.42 307.95 426.49 307.94 426.6 307.94 426.66 307.93 426.73 307.91 426.76 307.92 426.79 307.93 426.83 307.97 426.88 308.02 426.96 308.06 426.97 308.07 427.03 308.13 427.06 308.17 427.07 308.19 427.07 308.21 427.08 308.25 427.08 308.3 427.08 308.35 427.1 308.41 427.13 308.47 427.17 308.53 427.19 308.54 427.28 308.65 427.36 308.72 427.39 308.75 427.44 308.77 427.47 308.77 427.51 308.78 427.54 308.77 427.59 308.76 427.64 308.74 427.68 308.73 427.71 308.73 427.75 308.73 427.78 308.74 427.82 308.75 427.86 308.76 427.95 308.8 428.04 308.84 428.11 308.88 428.16 308.89 428.2 308.89 428.24 308.89 428.28 308.88 428.36 308.85 428.41 308.83 428.47 308.79 428.52 308.77 428.55 308.76 428.6 308.74 428.68 308.72 428.74 308.7 428.77 308.69 428.85 308.66 428.9 308.64 428.96 308.61 429.02 308.59 429.05 308.59 429.08 308.59 429.13 308.6 429.18 308.61 429.24 308.64 429.27 308.65 429.28 308.66 429.3 308.66 429.33 308.68 429.34 308.68 429.35 308.68 429.37 308.69 429.41 308.69 429.45 308.69 429.52 308.69 429.59 308.7 429.69 308.71 429.77 308.71 429.92 308.73 430.05 308.73 430.09 308.72 430.1 308.72 430.17 308.71 430.23 308.71 430.26 308.7 430.3 308.7 430.32 308.69 430.37 308.68 430.38 308.68 430.42 308.67 430.48 308.66 430.62 308.63 430.63 308.63 430.69 308.62 430.8 308.61 430.82 308.6 431.07 308.57 431.19 308.54 431.26 308.51 431.33 308.46 431.36 308.44 431.38 308.43 431.41 308.41 431.56 308.31 431.69 308.37 431.71 308.37 431.75 308.39 431.77 308.4 431.86 308.44 431.88 308.44 431.93 308.46 431.97 308.48 431.98 308.48 432.02 308.5 432.05 308.55 432.07 308.58 432.13 308.68 432.19 308.79 432.2 308.8 432.21 308.83 432.25 308.92 432.32 309.01 432.34 309.03 432.35 309.04 432.36 309.05 432.38 309.09 432.41 309.14 432.44 309.18 432.45 309.34 432.47 309.49 432.49 309.58 432.5 309.73 432.51 309.74 432.52 309.84 432.52 309.85 432.54 310.04 432.56 310.17 432.58 310.27 432.63 310.25 432.74 310.22 432.87 310.19 432.93 310.17 433.02 310.15 433.08 310.14 433.19 310.13 433.33 310.12 433.37 310.12 433.38 310.12 433.4 310.13 433.42 310.13 433.45 310.14 433.47 310.15 433.49 310.15 433.52 310.15 433.55 310.15 433.64 310.17 433.71 310.18 433.76 310.18 433.77 310.18 433.78 310.18 433.8 310.2 433.83 310.23 433.84 310.24 433.89 310.3 433.9 310.32 433.92 310.34 433.94 310.36 433.96 310.38 433.98 310.4 434.02 310.43 434.07 310.47 434.13 310.51 434.15 310.53 434.14 310.54 434.13 310.55 434.09 310.58 434.07 310.6 434.06 310.61 434.05 310.63 434.05 310.63 434.01 310.64 433.98 310.66 433.95 310.68 433.9 310.74 433.87 310.77 433.82 310.82 433.79 310.85 433.76 310.89 433.74 310.91 433.71 310.95 433.71 310.97 433.7 310.98 433.67 311 433.65 311.03 433.64 311.05 433.62 311.07 433.61 311.11 433.6 311.16 433.59 311.19 433.58 311.19 433.56 311.2 433.47 311.22 433.4 311.24 433.28 311.27 433.18 311.3 433.05 311.33 432.88 311.38 432.87 311.39 432.84 311.51 432.81 311.66 432.78 311.8 432.77 311.86 432.76 311.9 432.76 312.02 432.75 312.12 432.74 312.15 432.72 312.28 432.7 312.43 432.69 312.51 432.67 312.56 432.67 312.58 432.67 312.6 432.68 312.63 432.7 312.68 432.71 312.71 432.74 312.78 432.78 312.85 432.8 312.87 432.84 312.94 432.85 312.96 432.85 312.99 432.85 313.08 432.84 313.14 432.84 313.23 432.85 313.25 432.85 313.27 432.85 313.29 432.88 313.33 432.93 313.41 432.97 313.48 432.98 313.5 432.98 313.51 432.95 313.56 432.88 313.66 432.84 313.73 432.84 313.73 432.81 313.8 432.78 313.86 432.77 313.89 432.74 313.95 432.73 313.96 432.72 313.97 432.71 313.99 432.67 314.03 432.61 314.13 432.6 314.16 432.59 314.18 432.59 314.2 432.59 314.2 432.6 314.41 432.61 314.53 432.62 314.57 432.62 314.65 432.63 314.71 432.63 314.74 432.64 314.88 432.64 314.99 432.64 315.04 432.63 315.05 432.63 315.06 432.63 315.09 432.61 315.15 432.59 315.22 432.6 315.25 432.6 315.25 432.6 315.27 432.6 315.28 432.6 315.32 432.59 315.41 432.58 315.44 432.58 315.46 432.59 315.48 432.6 315.5 432.62 315.52 432.65 315.56 432.68 315.61 432.69 315.62 432.7 315.63 432.78 315.73 432.88 315.87 432.91 315.88 432.94 315.91 433.02 315.97 433.15 316.07 433.18 316.08 433.19 316.09 433.31 316.13 433.38 316.16 433.4 316.17 433.42 316.19 433.44 316.22 433.44 316.23 433.46 316.26 433.47 316.28 433.5 316.36 433.5 316.36 433.55 316.48 433.56 316.5 433.58 316.54 433.61 316.6 433.76 316.59 433.93 316.58 433.96 316.58 434.01 316.6 434.03 316.61 434.12 316.67 434.17 316.7 434.18 316.71 434.22 316.74 434.21 316.76 434.21 316.77 434.19 316.8 434.17 316.83 434.15 316.88 434.15 316.89 434.21 316.93 434.3 317 434.33 317.02 434.35 317.03 434.36 317.07 434.36 317.09 434.37 317.11 434.37 317.13 434.39 317.19 434.4 317.23 434.41 317.26 434.42 317.29 434.43 317.32 434.45 317.35 434.46 317.37 434.48 317.39 434.5 317.4 434.53 317.41 434.56 317.42 434.57 317.42 434.59 317.43 434.62 317.45 434.64 317.46 434.68 317.49 434.71 317.51 434.76 317.54 434.79 317.56 434.81 317.57 434.89 317.62 434.93 317.68 434.96 317.75 434.97 317.84 434.95 317.92 434.93 317.96 434.92 317.98 434.91 317.99 434.87 318.02 434.81 318.07 434.73 318.14 434.69 318.19 434.66 318.25 434.65 318.38 434.65 318.5 434.67 318.58 434.71 318.68 434.74 318.73 434.88 318.94 435.03 319.13 435.17 319.29 435.31 319.43 435.44 319.54 435.58 319.65 435.67 319.68 435.8 319.68 436 319.68 436.17 319.68 436.22 319.69 436.28 319.73 436.33 319.77 436.36 319.82 436.37 319.86 436.37 320.25 436.37 320.58 436.38 321.08 436.37 321.18 436.35 321.22 436.3 321.28 436.21 321.36 436.1 321.44 436.02 321.49 435.97 321.51 435.85 321.53 435.68 321.57 435.42 321.6 435.27 321.63 435.19 321.65 435.13 321.68 435.11 321.71 435.09 321.76 435.07 321.82 435.04 321.88 435.03 321.91 435.01 321.96 434.96 322.01 434.9 322.05 434.82 322.1 434.78 322.16 434.75 322.23 434.76 322.3 434.77 322.36 434.8 322.41 434.85 322.46 434.9 322.51 434.94 322.55 434.95 322.61 434.95 322.64 434.94 322.68 434.9 322.82 434.74 323.31 434.69 323.45 434.65 323.59 434.63 323.71 434.64 323.8 434.69 323.93 434.74 324.05 434.79 324.12 434.89 324.29 435.08 324.6 435.23 324.84 435.29 324.94 435.32 324.99 435.33 325.01 435.36 325.06 435.37 325.12 435.38 325.16 435.38 325.19 435.36 325.22 435.34 325.24 435.28 325.25 435.2 325.24 435.01 325.22 434.79 325.19 434.57 325.17 434.45 325.2 434.05 325.31 432.89 325.66 432.62 325.75 432.57 325.77 432.53 325.8 432.48 325.84 432.41 325.9 432.37 325.93 432.33 325.94 432.28 325.94 432.13 325.86 431.78 325.64 431.65 325.57 431.63 325.56 431.6 325.56 431.58 325.57 431.52 325.68 431.46 325.81 431.44 325.84 431.43 325.85 431.4 325.85 431.2 325.65 431.18 325.62 431.15 325.59 431.08 325.52 431.05 325.5 431.02 325.47 430.98 325.44 430.77 325.27 430.74 325.25 430.6 325.37 430.59 325.38 430.58 325.4 430.51 325.5 430.44 325.62 430.36 325.74 430.29 325.85 430.27 325.88 430.26 325.9 430.22 325.95 430.14 326.08 430.07 326.19 430.04 326.24 430.01 326.3 430 326.31 429.98 326.33 429.95 326.38 429.95 326.39 429.25 327.5 429.19 327.57 429.1 327.7 429.03 327.81 429.02 327.81 428.9 327.98 428.87 328.02 428.84 328.07 428.84 328.1 428.83 328.12 428.83 328.14 428.83 328.15 428.84 328.17 428.87 328.2 428.89 328.22 428.92 328.24 428.96 328.28 429.06 328.37 429.18 328.47 429.23 328.52 429.3 328.59 429.38 328.67 429.5 328.79 429.62 328.9 429.64 328.94 429.65 328.94 429.66 328.95 429.69 329.03 429.69 329.04 429.73 329.16 429.74 329.18 429.75 329.21 428.71 329.81 428.7 329.83 428.7 329.84 428.67 329.89 428.59 330.03 428.49 330.2 428.49 330.21 428.47 330.23 428.35 330.31 428.3 330.34 428.28 330.36 428.27 330.36 428.23 330.39 428.16 330.43 428.11 330.46 428.04 330.5 428 330.51 427.97 330.53 427.93 330.56 427.87 330.61 427.84 330.64 427.8 330.68 427.77 330.71 427.66 330.82 427.6 330.89 427.56 330.93 427.54 330.96 427.52 330.98 427.52 330.99 427.5 331.01 427.45 331.08 427.42 331.11 427.31 331.23 427.23 331.31 427.2 331.33 427.17 331.36 427.13 331.39 427.1 331.41 427.06 331.44 427.03 331.47 427.06 331.47 427.29 331.49 427.49 331.49 427.54 331.49 427.75 331.49 428.04 331.5 428.11 331.5 428.12 331.51 428.13 331.51 428.63 331.53 428.64 331.53 428.76 331.53 428.78 331.53 428.8 331.55 428.81 331.56 428.95 331.66 428.98 331.68 429.21 331.84 429.24 331.86 429.28 331.88 429.33 331.91 429.5 332 429.51 332 429.52 332.01 429.52 332.01 429.59 332.04 429.69 332.09 429.71 332.1 429.81 332.14 429.86 332.17 429.87 332.17 429.88 332.18 429.89 332.18 429.9 332.19 430.15 332.31 430.16 332.32 430.31 332.38 430.36 332.41 430.44 332.44 430.55 332.49 430.58 332.5 430.68 332.52 430.69 332.52 430.72 332.53 430.81 332.55 430.82 332.55 430.84 332.55 430.89 332.56 430.96 332.55 430.97 332.54 430.98 332.55 431.01 332.56 431.04 332.57 431.09 332.59 431.18 332.6 431.26 332.62 431.34 332.64 431.43 332.66 431.44 332.66 431.62 332.69 431.72 332.71 431.78 332.71 431.84 332.72 431.91 332.73 431.93 332.73 432.03 332.74 432.17 332.75 432.29 332.75 432.41 332.75 432.49 332.74 432.61 332.72 432.72 332.7 432.83 332.68 432.96 332.65 433.12 332.61 433.13 332.59 433.14 332.58 433.13 332.56 433.13 332.55 433.14 332.53 433.15 332.51 433.17 332.5 433.19 332.5 433.21 332.51 433.23 332.54 433.41 332.41 433.42 332.4 433.42 332.39 433.43 332.31 433.44 332.28 433.45 332.26 433.47 332.23 433.49 332.25 433.57 332.33 433.58 332.34 433.63 332.4 433.65 332.42 433.73 332.48 433.8 332.54 433.85 332.6 433.87 332.62 433.89 332.66 433.9 332.68 433.9 332.72 433.9 332.75 433.89 332.83 433.89 332.85 433.88 332.87 433.88 332.9 433.87 333.02 433.83 333.18 433.79 333.36 433.77 333.43 433.75 333.46 433.73 333.48 433.72 333.49 433.71 333.49 433.67 333.5 433.63 333.51 433.55 333.5 433.47 333.5 433.38 333.49 433.37 333.49 433.31 333.5 433.25 333.51 433.18 333.53 433.15 333.54 433.12 333.56 433.07 333.58 433.05 333.6 433.04 333.63 433.02 333.67 433.01 333.74 433 333.81 432.99 333.93 432.98 333.98 432.97 334.02 432.95 334.04 432.93 334.05 432.91 334.07 432.88 334.08 432.85 334.09 432.82 334.1 432.75 334.11 432.69 334.12 432.65 334.13 432.64 334.13 432.62 334.15 432.62 334.16 432.61 334.21 432.88 334.3 432.94 334.32 432.99 334.33 433.22 334.39 433.26 334.41 433.3 334.42 433.52 334.47 433.58 334.49 433.63 334.5 433.76 334.55 433.78 334.55 433.86 334.58 433.92 334.6 433.96 334.61 433.98 334.62 434.07 334.68 434.1 334.69 434.14 334.7 434.18 334.72 434.26 334.74 434.34 334.76 434.37 334.77 434.52 334.81 434.63 334.83 434.64 334.83 434.78 334.86 434.94 334.89 435.02 334.91 435.04 334.92 435.08 334.94 435.14 334.98 435.3 335.05 435.39 335.09 435.46 335.12 435.64 335.2 435.66 335.21 435.8 335.27 435.85 335.3 435.9 335.32 435.95 335.34 435.98 335.34 436.11 335.38 436.37 335.44 436.64 335.5 436.88 335.56 436.98 335.59 436.9 335.64 436.73 335.76 436.4 335.98 436.12 336.16 435.89 336.3 435.86 336.32 435.81 336.35 435.79 336.36 435.61 336.45 435.45 336.53 435.4 336.55 435.39 336.56 435.37 336.69 435.33 336.89 435.3 337.07 435.29 337.13 435.23 337.29 435.22 337.33 435.21 337.37 435.15 337.54 435.12 337.59 435.07 337.69 435.04 337.74 435.01 337.79 434.97 337.87 434.93 337.94 434.93 337.95 434.92 337.97 434.91 338 434.9 338.04 434.88 338.08 434.86 338.11 434.86 338.12 434.84 338.16 434.81 338.2 434.77 338.27 434.72 338.35 434.7 338.38 434.68 338.4 434.67 338.43 434.66 338.46 434.65 338.47 434.63 338.53 434.62 338.55 434.57 338.66 434.58 338.69 434.64 338.76 434.66 338.78 434.73 338.87 434.74 338.87 434.75 338.89 434.76 338.89 434.85 339.01 434.88 339.04 434.9 339.06 434.9 339.07 434.89 339.09 434.88 339.13 434.81 339.4 434.81 339.4 434.8 339.41 434.8 339.42 434.79 339.44 434.76 339.59 434.76 339.6 434.73 339.7 434.72 339.74 434.8 339.74 434.84 339.74 434.94 339.75 435.01 339.76 435.04 339.77 435.07 339.77 435.16 339.8 435.24 339.82 435.27 339.83 435.32 339.83 435.35 339.84 435.34 339.85 435.3 339.88 435.25 339.93 435.23 339.94 435.21 339.96 435.2 339.97 435.17 340 435.12 340.06 435.09 340.08 435.08 340.1 435.08 340.11 435.08 340.14 435.07 340.16 435.06 340.18 435.01 340.25 434.96 340.3 434.94 340.33 434.91 340.38 434.87 340.43 434.84 340.49 434.82 340.51 434.82 340.53 434.82 340.56 434.81 340.59 434.8 340.65 434.79 340.73 434.77 340.85 434.77 340.86 434.76 340.92 434.77 341 434.78 341.06 434.78 341.07 434.8 341.21 434.8 341.22 434.81 341.25 434.82 341.31 434.83 341.32 434.83 341.34 434.83 341.35 434.83 341.38 434.83 341.4 434.84 341.42 434.84 341.43 434.84 341.44 434.84 341.45 434.84 341.46 434.87 341.61 434.87 341.65 434.9 341.8 434.9 341.81 434.9 341.82 434.91 341.85 434.91 341.86 434.93 341.95 434.94 342.02 434.9 342.18 434.89 342.26 434.87 342.34 434.87 342.35 434.86 342.37 434.86 342.38 434.86 342.41 434.85 342.45 434.84 342.51 434.82 342.63 434.79 342.73 434.79 342.77 434.78 342.78 434.77 342.87 434.76 342.89 434.76 342.9 434.75 342.95 434.75 342.97 434.74 343.01 434.74 343.01 434.74 343.06 434.74 343.08 434.73 343.11 434.73 343.12 434.71 343.19 434.69 343.23 434.68 343.25 434.68 343.27 434.69 343.29 434.7 343.3 434.71 343.31 434.72 343.33 434.72 343.34 434.75 343.38 434.77 343.41 434.78 343.42 434.79 343.44 434.8 343.45 434.81 343.47 434.84 343.53 434.87 343.57 434.89 343.62 434.9 343.64 434.9 343.65 434.91 343.66 434.96 343.76 434.96 343.77 435.01 343.87 435.05 343.93 435.06 343.97 435.08 344.01 435.09 344.04 435.1 344.05 435.12 344.07 435.15 344.09 435.2 344.12 435.24 344.15 435.31 344.19 435.32 344.2 435.34 344.24 435.34 344.25 435.35 344.27 435.37 344.3 435.37 344.32 435.38 344.37 435.4 344.47 435.4 344.49 435.42 344.57 435.45 344.6 435.45 344.61 435.46 344.62 435.47 344.63 435.5 344.68 435.52 344.72 435.53 344.73 435.55 344.76 435.61 344.87 435.62 344.9 435.63 344.91 435.63 344.91 435.66 344.96 435.68 344.99 435.69 345.02 435.69 345.03 435.69 345.04 435.67 345.08 435.65 345.14 435.63 345.17 435.63 345.18 435.61 345.22 435.58 345.27 435.58 345.29 435.58 345.31 435.6 345.33 435.63 345.38 435.66 345.42 435.68 345.45 435.69 345.46 435.72 345.52 435.74 345.53 435.75 345.54 435.78 345.56 435.8 345.57 435.88 345.63 435.91 345.65 435.96 345.68 436.01 345.72 436.08 345.78 436.12 345.82 436.17 345.87 436.26 345.94 436.28 345.96 436.3 345.98 436.35 346.02 436.36 346.06 436.37 346.1 436.38 346.14 436.38 346.14 436.41 346.25 436.43 346.34 436.44 346.35 436.44 346.36 436.45 346.38 436.45 346.41 436.46 346.44 436.47 346.48 436.49 346.5 436.52 346.54 436.53 346.56 436.54 346.57 436.55 346.58 436.57 346.61 436.58 346.62 436.58 346.63 436.62 346.68 436.67 346.75 436.69 346.78 436.73 346.84 436.74 346.84 436.74 346.85 436.76 346.87 436.8 346.91 436.86 346.99 436.89 347.03 436.91 347.05 436.94 347.07 437.03 347.14 437.05 347.16 437.17 347.26 437.32 347.38 437.36 347.41 437.42 347.45 437.44 347.46 437.44 347.52 437.43 347.55 437.43 347.56 437.43 347.58 437.44 347.61 437.44 347.61 437.44 347.68 437.44 347.74 437.45 347.78 437.47 347.86 437.48 347.89 437.49 347.94 437.5 348.03 437.51 348.08 437.54 348.19 437.55 348.22 437.53 348.28 437.48 348.39 437.47 348.42 437.47 348.44 437.42 348.54 437.42 348.55 437.42 348.56 437.4 348.59 437.35 348.69 437.34 348.72 437.34 348.74 437.32 348.86 437.3 348.92 437.29 348.95 437.28 349.02 437.25 349.17 437.21 349.43 437.18 349.62 437.17 349.65 437.15 349.76 437.15 349.77 437.15 349.78 437.15 349.84 437.19 350.07 437.19 350.09 437.2 350.14 437.21 350.23 437.23 350.33 437.23 350.34 437.26 350.54 437.28 350.67 437.28 350.68 437.3 350.72 437.48 350.87 437.43 350.93 437.37 351.02 437.36 351.04 437.35 351.05 437.36 351.06 437.37 351.07 437.39 351.09 437.42 351.11 437.42 351.14 437.42 351.18 437.43 351.21 437.43 351.31 437.41 351.37 437.41 351.43 437.4 351.47 437.41 351.49 437.41 351.5 437.4 351.54 437.4 351.59 437.4 351.65 437.41 351.68 437.43 351.71 437.43 351.76 437.43 351.83 437.43 351.85 437.35 351.89 437.24 351.95 437.23 351.95 437.09 352.02 437.08 352.03 437.07 352.03 436.93 352.11 436.92 352.12 436.79 352.19 436.78 352.2 436.71 352.23 436.62 352.32 436.61 352.32 436.55 352.39 436.54 352.4 436.52 352.41 436.44 352.53 436.43 352.55 436.4 352.61 436.33 352.77 436.32 352.79 436.26 352.83 436.19 352.86 436.17 352.87 436.09 352.91 436.05 352.93 436.03 352.94 436.02 352.95 435.99 352.97 435.95 353 435.9 353.04 435.87 353.06 435.84 353.09 435.79 353.13 435.74 353.17 435.71 353.18 435.69 353.19 435.67 353.2 435.65 353.21 435.62 353.23 435.58 353.27 435.53 353.31 435.5 353.34 435.46 353.37 435.44 353.38 435.36 353.38 435.35 353.38 435.34 353.38 435.32 353.38 435.31 353.38 435.28 353.38 435.22 353.38 435.14 353.39 435.06 353.39 435.03 353.39 435 353.39 434.96 353.39 434.91 353.39 434.84 353.39 434.74 353.38 434.7 353.38 434.66 353.38 434.58 353.37 434.46 353.36 434.34 353.35 434.29 353.35 434.2 353.35 434.15 353.34 434.11 353.34 434 353.33 433.86 353.32 433.74 353.31 433.71 353.31 433.56 353.3 433.46 353.28 433.38 353.28 433.29 353.27 433.19 353.27 433.05 353.27 432.84 353.27 432.68 353.27 432.49 353.27 432.36 353.27 432.25 353.19 432.23 353.18 432.18 353.14 432.12 353.1 432.04 353.04 431.98 353 431.97 352.99 431.79 352.88 431.77 352.87 431.6 352.75 431.43 352.65 431.4 352.63 431.22 352.52 431.1 352.44 431.06 352.41 431.02 352.37 430.96 352.29 430.95 352.29 430.86 352.17 430.84 352.14 430.79 352.08 430.73 352.01 430.69 351.95 430.59 351.84 430.54 351.91 430.52 351.93 430.42 352.07 430.27 352.27 430.17 352.42 430.11 352.5 430.09 352.53 430.07 352.55 430.06 352.55 430.05 352.56 430.03 352.57 430.02 352.57 430 352.57 429.97 352.56 429.92 352.56 429.82 352.54 429.69 352.52 429.58 352.51 429.51 352.5 429.49 352.49 429.41 352.46 429.31 352.42 429.25 352.41 429.1 352.35 429.06 352.33 429.02 352.32 428.98 352.3 428.92 352.27 428.81 352.21 428.71 352.15 428.59 352.08 428.46 352.01 428.35 351.95 428.24 351.89 428.22 351.87 428.21 351.87 428.12 351.82 428.06 351.79 428.01 351.76 428 351.74 427.97 351.67 427.94 351.63 427.89 351.59 427.79 351.52 427.76 351.49 427.75 351.48 427.64 351.4 427.59 351.36 427.58 351.36 427.42 351.23 427.31 351.15 427.27 351.12 427.25 351.09 427.2 351.04 427.19 351.03 427.13 350.97 427.12 350.95 427.11 350.95 427.09 350.93 426.8 350.73 426.78 350.72 426.77 350.71 426.76 350.71 426.73 350.7 426.69 350.68 426.64 350.66 426.61 350.65 426.57 350.64 426.53 350.63 426.5 350.62 426.47 350.62 426.43 350.62 426.39 350.6 426.36 350.59 426.31 350.57 426.24 350.53 426.18 350.49 426.14 350.47 426.07 350.43 426.03 350.41 426.02 350.41 425.97 350.39 425.93 350.36 425.88 350.33 425.82 350.3 425.78 350.28 425.68 350.22 425.59 350.18 425.49 350.12 425.34 350.04 425.25 349.99 425.22 349.97 425.2 349.95 425.14 349.93 425.04 349.89 424.91 349.83 424.77 349.76 424.61 349.68 424.54 349.65 424.53 349.64 424.47 349.62 424.37 349.56 424.32 349.53 424.3 349.51 424.27 349.49 424.25 349.47 424.23 349.45 424.22 349.43 424.19 349.41 424.17 349.39 424.14 349.38 424.1 349.36 424.08 349.35 424.06 349.33 424.03 349.31 424.01 349.29 423.98 349.26 423.96 349.26 423.95 349.26 423.92 349.25 423.9 349.24 423.89 349.24 423.83 349.22 423.78 349.21 423.72 349.19 423.67 349.18 423.62 349.16 423.61 349.16 423.58 349.14 423.55 349.11 423.52 349.09 423.5 349.08 423.49 349.07 423.44 349.05 423.39 349.04 423.33 349.02 423.23 348.99 423.19 348.99 423.1 348.97 423.08 348.97 423.06 348.97 423.01 348.96 422.97 348.95 422.91 348.93 422.89 348.93 422.85 348.92 422.79 348.9 422.74 348.88 422.7 348.86 422.65 348.84 422.64 348.83 422.59 348.81 422.57 348.81 422.53 348.79 422.51 348.78 422.48 348.76 422.44 348.75 422.4 348.73 422.36 348.71 422.3 348.67 422.27 348.65 422.24 348.65 422.18 348.62 422.15 348.61 422.12 348.6 422.05 348.57 422.03 348.56 421.96 348.53 421.67 348.59 421.54 348.56 421.53 348.56 421.49 348.55 421.44 348.54 421.4 348.54 421.34 348.54 421.32 348.53 421.24 348.53 421.22 348.53 421.21 348.53 421.18 348.52 421.12 348.52 421.06 348.51 421.01 348.51 420.97 348.51 420.94 348.51 420.88 348.51 420.8 348.51 420.75 348.51 420.67 348.51 420.61 348.5 420.56 348.5 420.53 348.5 420.49 348.51 420.47 348.51 420.42 348.51 420.37 348.51 420.21 348.53 420.17 348.52 420.12 348.54 420.05 348.54 419.99 348.54 419.95 348.55 419.91 348.55 419.89 348.55 419.8 348.56 419.79 348.56 419.77 348.57 419.75 348.57 419.74 348.57 419.72 348.57 419.69 348.57 419.6 348.56 419.54 348.55 419.49 348.54 419.44 348.53 419.4 348.46 419.36 348.38 419.33 348.3 419.32 348.26 419.31 348.22 419.29 348.17 419.28 348.15 419.26 348.11 419.26 348.09 419.22 348.05 419.2 348.02 419.18 347.99 419.15 347.96 419.12 347.93 419.09 347.89 419.08 347.87 419.06 347.85 419.02 347.81 419 347.78 418.98 347.77 418.98 347.76 418.97 347.75 418.95 347.72 418.93 347.69 418.91 347.68 418.9 347.67 418.87 347.61 418.87 347.6 418.85 347.58 418.83 347.54 418.81 347.51 418.8 347.49 418.79 347.48 418.79 347.47 418.76 347.43 418.74 347.4 418.71 347.35 418.68 347.31 418.64 347.27 418.62 347.25 418.6 347.23 418.59 347.22 418.58 347.22 418.53 347.24 418.51 347.24 418.49 347.25 418.47 347.25 418.38 347.28 418.36 347.28 418.36 347.28 418.03 347.39 418.01 347.4 417.87 347.44 417.86 347.44 417.79 347.46 417.76 347.44 417.61 347.32 417.37 347.14 417.35 347.14 417.31 347.15 417.3 347.15 417.24 347.16 417.17 347.17 417.07 347.19 417.02 347.19 416.97 347.2 416.9 347.2 416.85 347.2 416.84 347.2 416.83 347.19 416.81 347.19 416.79 347.2 416.77 347.2 416.74 347.21 416.7 347.22 416.39 347.3 416.28 347.33 416.25 347.32 416.2 347.32 416.17 347.31 416.1 347.28 416.06 347.25 416.01 347.22 415.95 347.19 415.91 347.17 415.86 347.13 415.84 347.11 415.79 347.09 415.74 347.06 415.71 347.04 415.68 347.03 415.65 347.02 415.63 347.01 415.62 347 415.58 346.95 415.51 346.86 415.38 346.67 415.32 346.58 415.21 346.43 415.15 346.34 415.14 346.33 415.1 346.27 415.08 346.25 415.07 346.23 415.05 346.21 415.03 346.18 414.99 346.12 414.96 346.07 414.93 346.03 414.89 345.98 414.87 345.93 414.79 345.75 414.75 345.66 414.73 345.62 414.73 345.6 414.72 345.58 414.69 345.54 414.64 345.45 414.58 345.37 414.54 345.3 414.52 345.27 414.49 345.17 414.49 345.16 414.46 345.05 414.43 344.97 414.37 344.78 414.36 344.77 414.36 344.76 414.35 344.74 414.34 344.72 414.3 344.65 414.26 344.58 414.23 344.52 414.23 344.51 414.22 344.5 414.2 344.47 414.14 344.36 414.11 344.3 414.06 344.23 413.93 344.06 413.91 344.03 413.82 343.92 413.82 343.91 413.82 343.79 413.81 343.61 413.81 343.59 413.81 343.54 413.8 343.25 413.8 343.24 413.8 343.04 413.79 342.92 413.79 342.91 413.79 342.81 413.79 342.64 413.78 342.49 413.78 342.45 413.78 342.43 413.78 342.32 413.78 342.25 413.78 342.25 413.78 342.24 413.78 342.22 413.77 342.17 413.77 342.11 413.77 342.04 413.77 342.03 413.76 341.93 413.76 341.91 413.74 341.78 413.73 341.67 413.72 341.57 413.72 341.55 413.72 341.47 413.71 341.38 413.7 341.11 413.69 341.1 413.6 340.99 413.6 340.99 413.58 340.96 413.55 340.93 413.51 340.88 413.45 340.81 413.43 340.78 413.35 340.68 413.33 340.66 413.27 340.59 413.21 340.52 413.19 340.49 413.12 340.41 413.08 340.36 413.07 340.35 413.06 340.34 412.96 340.1 412.88 339.89 412.75 339.82 412.71 339.8 412.69 339.79 412.44 339.65 412.22 339.53 412.16 339.49 411.87 339.84 411.83 339.89 411.82 339.91 411.78 339.95 411.75 339.98 411.49 340.26 411.41 340.33 411.38 340.37 411.33 340.44 411.32 340.46 411.3 340.48 411.28 340.51 411.26 340.53 411.26 340.54 411.25 340.55 411.23 340.58 411.19 340.62 411.16 340.67 411.12 340.72 411.09 340.76 411.07 340.79 411.06 340.81 411.02 340.87 410.98 340.92 410.78 341.2 410.71 341.28 410.4 340.98 410.29 340.94 410.28 340.94 410.24 340.92 410.22 340.91 409.97 340.82 409.94 340.81 409.76 340.74 409.69 340.72 409.58 340.68 409.23 340.6 409.22 340.59 409.11 340.57 409.06 340.56 408.86 340.51 408.83 340.51 408.82 340.5 408.81 340.5 408.74 340.46 408.72 340.45 408.7 340.44 408.68 340.43 408.64 340.41 408.63 340.35 408.62 340.33 408.61 340.3 408.6 340.25 408.57 340.14 408.43 340.11 408.31 340.08 408.2 340.05 408.13 340.03 408.07 340.02 407.97 339.99 407.96 339.99 407.79 339.94 407.78 339.94 407.74 339.93 407.62 339.88 407.57 339.86 407.56 339.85 407.41 339.77 407.4 339.76 407.13 339.6 407.01 339.42 407 339.41 406.73 339.36 406.71 339.36 406.19 339.66 406.1 339.72 406.09 339.72 405.9 339.85 405.85 339.9 405.82 339.93 405.74 340.02 405.69 340.08 405.62 340.17 405.61 340.19 405.59 340.2 405.52 340.28 405.51 340.3 405.49 340.33 405.33 340.36 405.21 340.36 405.15 340.37 404.94 340.37 404.93 340.37 404.78 340.38 404.77 340.38 404.7 340.36 404.69 340.36 404.51 340.31 404.41 340.28 404.39 340.28 404.2 340.23 404.18 340.21 404.17 340.2 404.11 340.15 404.09 340.13 404.05 340.09 403.99 340.04 403.98 340.03 403.97 340.02 403.9 339.96 403.88 339.95 403.86 339.93 403.79 339.88 403.76 339.86 403.74 339.84 403.72 339.83 403.67 339.79 403.6 339.74 403.57 339.72 403.53 339.7 403.52 339.69 403.51 339.68 403.51 339.72 403.5 339.75 403.5 339.78 403.48 339.77 403.44 339.76 403.41 339.74 403.39 339.73 403.41 339.67 403.42 339.54 403.43 339.49 403.44 339.45 403.46 339.39 403.47 339.35 403.48 339.31 403.49 339.26 403.51 339.21 403.52 339.16 403.52 339.11 403.52 339.06 403.52 339.01 403.51 338.97 403.51 338.94 403.49 338.91 403.47 338.88 403.45 338.85 403.42 338.82 403.39 338.79 403.36 338.76 403.31 338.72 403.27 338.68 403.23 338.65 403.2 338.62 403.16 338.58 403.12 338.53 403.09 338.48 403.07 338.44 403.05 338.4 403.04 338.36 403.03 338.32 403.02 338.27 403.02 338.23 403.01 338.19 403 338.15 402.99 338.12 402.97 338.08 402.96 338.04 402.94 338 402.92 337.97 402.9 337.93 402.89 337.9 402.88 337.87 402.88 337.83 402.88 337.81 402.89 337.77 402.91 337.73 402.93 337.69 402.95 337.65 402.97 337.62 402.98 337.59 403.01 337.5 403.01 337.39 403 337.34 402.98 337.29 402.95 337.23 402.9 337.13 402.86 337.07 402.82 337.01 402.77 336.95 402.7 336.87 402.64 336.82 402.61 336.79 402.51 336.74 402.46 336.71 402.44 336.67 402.37 336.54 402.32 336.46 402.28 336.44 402.25 336.43 402.23 336.44 402.18 336.46 402.12 336.5 402.08 336.53 402.03 336.57 401.98 336.6 401.89 336.63 401.81 336.64 401.69 336.64 401.48 336.63 401.3 336.62 401.2 336.61 401.13 336.58 401.01 336.51 400.93 336.47 400.87 336.43 400.81 336.4 400.75 336.36 400.69 336.32 400.64 336.27 400.61 336.23 400.58 336.17 400.55 336.1 400.54 336.02 400.5 335.91 400.49 335.85 400.48 335.8 400.47 335.67 400.46 335.54 400.47 335.5 400.48 335.48 400.52 335.43 400.56 335.35 400.59 335.3 400.59 335.25 400.59 335.18 400.57 335.11 400.55 335.04 400.51 334.95 400.46 334.84 400.47 334.83 400.49 334.8 400.5 334.77 400.52 334.74 400.6 334.57 400.65 334.46 400.69 334.39 400.69 334.37 400.69 334.36 400.69 334.35 400.68 334.34 400.65 334.33 400.6 334.31 400.56 334.28 400.54 334.25 400.49 334.18 400.44 334.12 400.38 334.06 400.32 334.02 400.24 333.95 400.17 333.85 400.12 333.75 400.08 333.64 400.04 333.5 400.04 333.39 400.04 333.37 400.07 333.34 400.1 333.31 400.19 333.25 400.23 333.23 400.25 333.2 400.26 333.15 400.25 333.1 400.24 333.02 400.23 332.96 400.19 332.91 400.17 332.9 399.48 332.02 399.5 331.85 399.5 331.75 399.51 331.64 399.52 331.48 399.52 331.4 399.52 331.38 399.53 331.33 399.53 331.15 399.52 331.13 399.51 331.12 399.44 331.1 399.37 331.07 399.31 331.03 399.21 330.92 399.13 330.84 399.12 330.82 399.08 330.71 399.03 330.57 399.01 330.5 398.97 330.41 398.98 330.39 398.99 330.36 399 330.27 398.97 330.17 398.96 330.12 398.96 330.11 398.98 330.04 399.05 329.85 399.12 329.68 399.15 329.6 399.17 329.58 399.19 329.57 399.32 329.46 399.5 329.35 399.58 329.3 399.62 329.3 399.69 329.3 399.81 329.27 399.83 329.26 399.85 329.24 399.89 329.17 399.9 329.14 399.89 329.13 399.88 329.07 399.83 328.91 399.84 328.9 399.89 328.84 399.92 328.81 400.01 328.73 400.07 328.66 400.12 328.59 400.19 328.49 400.26 328.39 400.29 328.3 400.32 328.2 400.34 328.1 400.36 328.01 400.39 327.9 400.39 327.88 400.39 327.85 400.39 327.65 400.42 327.43 400.45 327.34 400.46 327.3 400.5 327.15 400.56 326.98 400.59 326.88 400.61 326.82 400.69 326.63 400.8 326.27 400.82 326.17 400.84 326.1 400.87 326.04 400.91 325.95 400.95 325.88 401 325.8 401 325.79 401 325.76 401.01 325.72 401.02 325.57 401.04 325.45 401.04 325.28 401.05 325.12 401.05 325.06 401.06 325.04 401.08 325.01 401.11 324.94 401.16 324.84 401.2 324.75 401.24 324.67 401.25 324.5 401.3 324.5 401.42 324.48 401.53 324.46 401.57 324.43 401.61 324.41 401.63 324.39 401.66 324.36 401.67 324.34 401.67 324.3 401.67 324.24 401.66 324.15 401.66 323.86 401.66 323.7 401.67 323.58 401.67 323.44 401.69 323.38 401.7 323.33 401.77 323.15 401.84 322.96 401.89 322.78 401.93 322.68 401.96 322.59 402.02 322.49 402.14 322.26 402.18 322.17 402.2 322.07 402.24 321.97 402.28 321.84 402.3 321.76 402.31 321.65 402.32 321.55 402.32 321.52 402.34 321.45 402.43 321.28 402.52 321.1 402.65 320.85 402.71 320.73 402.77 320.59 402.83 320.49 402.93 320.3 402.99 320.16 403.02 320.03 403.05 319.9 403.05 319.88 403.07 319.77 403.11 319.84 403.11 319.85 403.12 319.86 403.14 319.9 403.18 319.98 403.22 320.05 403.28 320.18 403.4 320.45 403.46 320.59 403.49 320.66 403.5 320.67 403.5 320.69 403.56 320.78 403.61 320.83 403.68 320.88 403.75 320.92 403.82 320.97 403.88 321.01 403.89 321.03 403.9 321.05 403.92 321.08 403.93 321.13 403.95 321.2 403.96 321.24 403.97 321.26 403.98 321.27 403.99 321.3 404.01 321.33 404.07 321.42 404.15 321.51 404.21 321.56 404.28 321.61 404.32 321.65 404.36 321.69 404.4 321.73 404.41 321.75 404.45 321.82 404.47 321.9 404.5 321.94 404.54 322.01 404.56 322.05 404.59 322.09 404.61 322.12 404.62 322.16 404.64 322.19 404.64 322.2 404.65 322.23 404.67 322.32 404.7 322.37 404.74 322.44 404.8 322.54 404.92 322.7 404.95 322.75 404.98 322.82 405 322.91 405 322.94 405 322.96 404.99 322.98 404.92 323.08 404.84 323.17 404.74 323.24 404.67 323.3 404.59 323.35 404.52 323.39 404.49 323.4 404.38 323.4 404.24 323.68 404.19 323.77 404.28 323.91 404.29 323.93 405.81 326.39 406.23 326.31 406.3 326.52 406.32 326.57 406.34 326.63 406.38 326.67 406.4 326.68 406.44 326.69 406.56 326.7 406.83 326.72 407.17 326.77 407.32 326.8 407.34 326.81 407.49 326.96 407.51 326.98 407.52 326.98 407.6 326.96 407.67 326.94 407.75 326.92 407.83 326.89 407.84 326.89 407.82 326.96 407.75 327.12 407.68 327.3 407.61 327.5 407.57 327.61 407.53 327.68 407.43 327.84 407.38 327.9 407.35 327.92 407.28 328.01 407.27 328.03 407.17 328.2 407.17 328.21 407.14 328.24 407.07 328.37 406.97 328.5 406.9 328.59 406.88 328.6 406.88 328.61 406.9 328.63 407 328.67 407.08 328.69 407.16 328.72 407.26 328.77 407.37 328.82 407.48 328.87 407.59 328.93 407.66 328.97 407.7 328.99 407.79 329.03 407.85 329.05 407.91 329.07 407.97 329.11 408.02 329.16 408.06 329.19 408.09 329.23 408.12 329.25 408.18 329.28 408.23 329.3 408.31 329.33 408.43 329.37 408.5 329.4 408.56 329.43 408.56 329.44 408.6 329.47 408.64 329.5 408.68 329.52 408.73 329.55 408.78 329.56 408.84 329.6 408.9 329.64 408.95 329.69 408.99 329.73 409.01 329.76 409.03 329.82 409.06 329.9 409.07 329.92 409.08 329.94 409.12 330.02 409.17 330.1 409.2 330.15 409.22 330.2 409.24 330.19 409.4 330.22 409.53 330.24 409.58 330.25 409.72 330.26 409.93 330.28 410.06 330.3 410.15 330.31 410.18 330.31 410.24 330.32 410.29 330.32 410.38 330.32 410.42 330.32 410.46 330.33 410.54 330.35 410.8 330.38 410.81 330.38 410.91 330.38 411.06 330.39 411.11 330.39 411.24 330.42 411.25 330.47 411.26 330.47 411.3 330.48 411.32 330.49 411.37 330.54 411.48 330.65 411.54 330.69 411.56 330.7 411.58 330.71 411.58 330.72 411.59 330.73 411.65 330.81 411.68 330.84 411.69 330.82 411.71 330.81 411.79 330.73 411.88 330.65 411.91 330.64 411.92 330.64 412 330.63 412.06 330.7 412.09 330.74 412.08 330.75 412.08 330.82 412.07 330.87 412.09 330.89 412.11 330.91 412.13 330.93 412.27 331.07 412.32 331.12 412.43 331.16 412.47 331.18 412.5 331.2 412.53 331.11 412.54 331.07 412.77 330.88 412.81 330.83 412.82 330.82 412.89 330.73 412.98 330.65 413.03 330.61 413.2 330.65 413.25 330.66 413.27 330.66 413.42 330.76 413.57 330.85 413.71 330.94 413.8 331 413.81 330.98 413.82 330.96 413.86 330.91 414.08 330.6 414.18 330.47 414.32 330.28 414.4 330.13 414.41 330.12 414.45 330.06 414.46 330.05 414.51 329.96 414.61 329.77 414.68 329.66 414.79 329.42 414.9 329.17 414.97 329.05 414.97 329.04 415.38 328.74 415.41 328.72 415.43 328.7 415.49 328.58 415.54 328.47 415.59 328.37 415.62 328.28 415.63 328.21 415.64 328.19 415.67 328.08 415.69 327.96 415.69 327.77 415.69 327.52 415.68 327.13 415.64 327 415.64 326.99 415.35 326.17 415.33 326.13 414.99 325.35 414.95 325.26 414.92 325.21 414.92 325.2 414.92 325.18 414.91 325.17 414.88 325.12 414.92 324.96 414.92 324.94 414.92 324.91 414.92 324.9 414.92 324.87 414.93 324.8 414.93 324.69 414.91 324.5 414.91 324.49 414.91 324.44 414.91 324.35 414.91 324.34 414.91 324.3 414.91 324.27 414.91 324.26 414.93 324.18 414.96 324.07 414.97 324.04 414.98 324 414.99 323.94 415.01 323.85 415.01 323.84 415.02 323.83 415.02 323.81 415.08 323.55 415.11 323.43 415.14 323.24 415.14 323.23 415.1 323.17 414.95 322.87 414.9 322.9 414.83 322.93 414.78 322.95 414.71 322.97 414.7 322.98 414.66 322.99 414.66 322.98 414.65 322.97 414.62 322.94 414.55 322.87 414.52 322.84 414.5 322.82 414.49 322.79 414.47 322.75 414.45 322.69 414.44 322.7 414.39 322.73 414.35 322.76 414.3 322.79 414.25 322.72 414.21 322.69 414.17 322.65 414.15 322.64 414.13 322.62 414.11 322.6 414.09 322.58 414.06 322.54 414.04 322.5 414.02 322.46 414.01 322.43 414 322.41 413.97 322.35 413.96 322.33 413.94 322.27 413.93 322.25 413.9 322.19 413.84 322.13 413.81 322.09 413.78 322.07 413.76 322.06 413.73 322.04 413.7 322.01 413.67 321.98 413.65 321.95 413.62 321.92 413.56 321.87 413.54 321.86 413.53 321.84 413.51 321.83 413.48 321.82 413.46 321.81 413.45 321.8 413.41 321.79 413.34 321.76 413.31 321.74 413.25 321.7 413.21 321.67 413.19 321.65 413.16 321.63 413.09 321.59 413.06 321.57 412.99 321.55 412.95 321.54 412.94 321.54 412.91 321.52 412.91 321.51 412.9 321.5 412.88 321.48 412.83 321.43 412.82 321.4 412.8 321.37 412.76 321.3 412.74 321.27 412.72 321.23 412.71 321.21 412.69 321.17 412.65 321.1 412.63 321.05 412.59 321 412.58 320.97 412.55 320.93 412.55 320.92 412.54 320.9 412.53 320.87 412.52 320.83 412.51 320.77 412.51 320.73 412.49 320.67 412.47 320.63 412.43 320.56 412.4 320.51 412.38 320.48 412.36 320.45 412.34 320.42 412.33 320.42 412.32 320.41 412.31 320.39 412.3 320.38 412.28 320.36 412.24 320.32 412.23 320.3 412.21 320.28 412.17 320.24 412.15 320.21 412.12 320.16 412.08 320.09 412.06 320.05 412.05 320.04 412.03 320.02 412.02 320.01 412.01 319.99 412 319.98 412 319.97 411.99 319.96 411.98 319.96 411.96 319.94 411.93 319.92 411.9 319.88 411.9 319.87 411.85 319.81 411.81 319.76 411.75 319.7 411.71 319.67 411.69 319.65 411.65 319.6 411.62 319.56 411.52 319.44 411.42 319.69 411.42 319.71 411.41 319.72 411.38 319.78 411.25 320.06 411.24 320.08 411.17 320.19 411.1 320.28 411.08 320.3 411.06 320.31 411 320.31 410.97 320.31 410.93 320.31 410.87 320.3 410.78 320.27 410.75 320.26 410.71 320.25 410.68 320.25 410.51 320.22 410.4 320.19 410.37 320.19 410.33 320.18 410.29 320.17 410.24 320.16 410.21 320.15 410.09 320.09 410.04 320.06 409.98 320.02 409.96 320.01 409.94 319.98 409.95 319.96 409.97 319.8 409.94 319.77 409.89 319.66 409.86 319.6 409.79 319.45 409.74 319.32 409.72 319.29 409.69 319.21 409.68 319.19 409.67 319.18 409.66 319.15 409.59 319.01 409.59 318.99 409.58 318.97 409.57 318.96 409.57 318.95 409.51 318.8 409.47 318.71 409.4 318.56 409.29 318.33 409.29 318.32 409.26 318.25 409.26 318.23 409.21 318.14 409.14 317.98 409.1 317.91 409.05 317.84 409.01 317.8 408.97 317.78 408.93 317.76 408.84 317.72 408.79 317.69 408.71 317.59 408.6 317.42 408.51 317.21 408.3 316.74 408.26 316.65 408.24 316.63 408.19 316.57 408.13 316.5 408.1 316.45 408.08 316.42 408.05 316.39 408.03 316.37 408.01 316.34 407.98 316.23 407.97 316.16 407.95 316.09 407.93 315.98 407.92 315.89 407.91 315.81 407.84 315.52 407.81 315.39 407.7 314.93 407.65 314.76 407.63 314.69 407.63 314.65 407.62 314.58 407.63 314.54 407.64 314.46 407.64 314.34 407.63 314.05 407.62 313.93 407.63 313.72 407.63 313.53 407.63 313.45 407.64 313.41 407.63 313.34 407.62 313.27 407.58 313.13 407.54 312.98 407.52 312.86 407.5 312.77 407.49 312.6 407.47 312.45 407.47 312.31 407.47 312.19 407.49 311.98 407.5 311.85 407.51 311.76 407.52 311.71 406.9 311.15 406.41 310.79 406.32 310.72 406.29 310.69 406.26 310.65 406.22 310.63 406.16 310.59 406.03 310.47 405.96 310.37 405.89 310.28 405.8 310.16 405.73 310.07 405.59 309.89 405.47 309.72 405.38 309.58 405.29 309.48 405.25 309.42 405.2 309.31 405.17 309.26 405.1 309.14 405.08 309.08 405.05 308.98 405.02 308.88 405.01 308.79 405 308.63 404.99 308.49 404.97 308.18 404.98 308.07 404.98 308.01 404.97 307.91 404.95 307.8 404.93 307.7 404.93 307.62 404.94 307.55 404.96 307.44 404.97 307.4 404.98 307.39 404.98 307.38 404.99 307.36 404.99 307.35 404.96 307.27 404.93 307.13 404.91 306.93 404.89 306.73 404.88 306.52 404.9 306.35 404.92 306.21 404.94 306.08 404.95 306.01 404.98 305.9 405.02 305.78 405.03 305.66 405.04 305.53 405.04 305.38 405.03 305.31 405.01 305.22 404.98 305.16 404.98 305.14 404.92 305.04 404.9 304.95 404.89 304.89 404.9 304.83 404.93 304.75 404.97 304.67 404.98 304.59 405 304.38 405.03 304.1 405.05 304 405.05 303.91 405.04 303.87 405.03 303.84 404.98 303.77 404.9 303.63 404.76 303.36 404.68 303.19 404.59 302.98 404.52 302.85 404.48 302.76 404.46 302.69 404.46 302.65 404.46 302.57 404.48 302.47 404.49 302.41 404.5 302.37 404.54 302.28 404.58 302.22 404.69 302.05 404.79 301.9 404.92 301.74 404.98 301.67 405.06 301.55 405.09 301.48 405.11 301.42 405.12 301.35 405.13 301.25 405.14 301.14 405.13 300.97 405.13 300.79 405.13 300.64 405.15 300.5 405.58 300.48 405.6 300.48 405.63 300.52 405.65 300.59 405.67 300.67 405.68 300.73 405.68 300.8 405.67 300.89 405.68 300.95 405.7 301.06 405.73 301.21 405.75 301.33 405.78 301.44 405.81 301.55 405.84 301.73 405.86 301.86 405.85 301.94 405.84 301.99 405.79 302.13 405.74 302.27 405.69 302.4 405.66 302.48 405.64 302.56 405.63 302.64 405.64 302.71 405.66 302.75 405.7 302.8 405.78 302.88 405.93 303.01 406.05 303.11 406.19 303.2 406.29 303.27 406.4 303.33 406.48 303.37 406.55 303.4 406.6 303.44 406.66 303.48 406.7 303.52 406.77 303.59 406.85 303.66 406.94 303.71 407.02 303.75 407.09 303.77 407.15 303.78 407.16 303.78 407.18 303.78 407.21 303.78 407.26 303.78 407.37 303.77 407.48 303.76 407.69 303.73 408.01 303.7 408.11 303.68 408.31 303.63 408.31 303.6 408.51 303.57 408.55 303.63 408.56 303.64 408.7 303.88 408.7 303.91 408.69 304.11 408.69 304.3 408.69 304.43 408.69 304.56 408.69 304.71 408.68 304.86 408.68 304.98 408.66 305.14 408.64 305.25 408.6 305.35 408.56 305.43 408.54 305.48 408.54 305.49 408.53 305.54 408.54 305.61 408.56 305.67 408.66 305.85 408.69 305.84 408.76 305.79 408.79 305.78 408.81 305.77 408.87 305.74 408.94 305.71 409.03 305.68 409.09 305.66 409.17 305.62 409.32 305.55 409.42 305.51 409.55 305.44 409.67 305.38 409.75 305.35 409.84 305.32 409.9 305.29 409.94 305.28 410.02 305.26 410.08 305.26 410.18 305.24 410.29 305.22 410.37 305.2 410.51 305.17 410.64 305.14 410.76 305.1 410.85 305.07 411.02 305.01 411.18 304.96 411.37 304.92 411.47 304.89 411.62 304.84 411.75 304.81 411.78 304.8 411.91 304.76 411.93 304.75 412.08 304.72 412.19 304.69 412.28 304.65 412.38 304.62 412.45 304.66 412.47 304.67 412.58 304.71 412.64 304.72 412.82 304.8 412.84 304.88 412.87 305.02 412.9 305.12 412.93 305.23 412.95 305.33 412.97 305.4 412.98 305.44 413 305.49 413.03 305.56 413.06 305.59 413.09 305.67 413.13 305.74 413.15 305.79 413.18 305.86 413.19 305.9 413.2 305.92 413.2 305.97 413.21 306.03 413.21 306.11 413.22 306.15 413.23 306.18 413.26 306.28 413.28 306.35 413.3 306.37 413.33 306.39 413.37 306.4 413.56 306.47 413.79 306.55 414.02 306.63 414.24 306.7 414.42 306.75 414.59 306.81 414.65 306.82 414.67 306.83 414.68 306.83 414.76 306.86 414.84 306.89 414.92 306.92 414.95 306.93 415.01 306.93 415.06 306.93 415.15 306.94 415.25 306.95 415.36 306.95 415.43 306.95 415.47 306.97 415.56 306.99 415.67 307 415.76 307.01 415.87 307.02 415.96 307.03 415.98 307.04 415.99 307.09 416 307.15 416.01 307.24 416.01 307.29 416 307.36 416.01 307.38 416.03 307.44 416.05 307.48 416.08 307.57 416.1 307.66 416.13 307.79 416.16 307.91 416.18 308 416.21 308.08 416.24 308.19 416.27 308.27 416.32 308.39 416.36 308.5 416.4 308.58 416.43 308.68 416.45 308.74 416.46 308.75 416.47 308.77 416.49 308.79 416.52 308.83 416.54 308.87 416.55 308.92 416.58 308.97 416.61 309.04 416.64 309.09 416.68 309.13 416.72 309.17 416.75 309.21 416.79 309.28 416.79 309.29 416.83 309.38 416.88 309.47 416.92 309.58 416.93 309.6 416.95 309.65 416.97 309.7 416.99 309.75 417.01 309.81 417.01 309.83 417.01 309.85 417 309.86 417 309.89 416.99 309.91 416.99 309.93 417 310 417.01 310.1 417.02 310.18 417.03 310.28 417.04 310.34 417.09 310.34 417.11 310.34 417.12 310.36 417.16 310.38 417.15 310.42 417.14 310.46 417.12 310.53 417.12 310.54 417.11 310.58 417.11 310.6 417.1 310.63 417.09 310.68 417.08 310.8 417.08 310.85 417.11 310.85 417.15 310.85 417.19 310.85 417.24 310.85 417.31 310.83 417.32 310.83 417.33 310.83 417.35 310.83 417.37 310.83 417.38 310.83 417.45 310.85 417.54 310.86 417.64 310.89 417.66 310.9 417.75 310.93 417.81 310.94 417.84 310.96 417.88 311.01 417.95 311.11 418.01 311.2 418.06 311.27 418.12 311.34 418.18 311.39 418.23 311.44 418.27 311.47 418.35 311.53 418.4 311.55 418.47 311.58 418.56 311.62 418.61 311.64 418.68 311.67 418.73 311.69 418.79 311.72 418.86 311.73 418.93 311.76 418.97 311.79 419.02 311.82 419.05 311.84 419.07 311.86 419.13 311.91 419.19 311.97 419.23 312.01 419.28 312.03 419.29 312.04 419.31 312.04 419.35 312.05 419.39 312.06 419.45 312.06 419.52 312.08 419.54 312.08 419.57 312.08 419.63 312.09 419.71 312.1 419.71 311.84 419.71 311.73 419.75 311.67 419.77 311.66 419.81 311.61 419.82 311.59 419.83 311.57 419.79 311.53 419.75 311.48 419.73 311.39 419.73 311.34 419.74 311.27 419.78 311.11 419.78 311.09 419.8 311.06 419.83 311 419.84 310.98 419.86 310.95 419.87 310.94 419.91 310.88 419.93 310.85 419.94 310.81 419.93 310.77 419.93 310.77 419.91 310.73 419.89 310.7 419.86 310.68 419.84 310.66 419.82 310.64 419.8 310.63 419.79 310.61 419.78 310.57 419.76 310.56 419.74 310.53 419.72 310.48 419.7 310.45 419.7 310.44 419.68 310.4 419.68 310.37 419.67 310.33 419.66 310.32 419.64 310.3 419.65 310.27 419.67 310.21 419.71 310.12 419.72 310.11 419.72 310.1 419.77 309.96 419.81 309.83 419.84 309.75 419.87 309.65 419.89 309.59 419.89 309.53 419.89 309.45 419.88 309.36 419.87 309.28 419.85 309.18 419.84 309.12 419.82 309.07 419.8 308.94 419.79 308.84 419.77 308.74 419.76 308.65 419.75 308.58 419.73 308.48 419.72 308.43 419.72 308.38 419.72 308.37 419.7 308.35 419.71 308.34 419.76 308.3 419.69 308.17 419.6 308.03 419.53 307.89 419.51 307.76 419.51 307.66 419.56 307.42 419.57 307.27 419.64 306.93 419.79 306.45 419.9 306.15 419.94 305.73 419.94 305.45 420.09 305.18 420.18 305.05 420.23 305.03 420.51 304.98 420.61 304.63 420.64 304.63 420.68 304.66 420.92 304.62 421.25 304.65 421.41 304.73 421.6 304.89 423.23 304.51 423.25 304.51 423.26 304.5 423.67 304.41 423.71 304.4 423.98 304.34 424.19 304.5 424.22 304.53 424.34 304.65 424.49 304.78 424.6 304.85 424.74 304.95 424.87 305.03 425.04 305.15 425.13 305.2 425.29 305.27 425.48 305.38 425.68 305.5 425.82 305.62 425.96 305.73 426.03 305.81 426.04 305.83 426.05 305.87 426.09 305.91 426.16 306.01 426.18 306.09 426.21 306.16 426.21 306.19 426.2 306.21 426.19 306.25 426.17 306.3 Z M 408.32 286.24 408.32 286.28 408.32 286.37 408.33 286.46 408.33 286.48 408.32 286.6 408.32 286.82 408.32 286.95 408.32 287.01 408.32 287.05 408.31 287.23 408.31 287.32 408.31 287.41 408.31 287.51 408.31 287.59 408.32 287.67 408.33 287.74 408.35 287.81 408.37 287.84 408.39 287.88 408.4 287.9 408.41 287.91 408.43 287.93 408.45 287.97 408.49 288 408.52 288.04 408.58 288.09 408.64 288.14 408.72 288.22 408.8 288.3 408.88 288.37 408.95 288.44 408.96 288.46 408.97 288.47 409.03 288.53 409.09 288.59 409.14 288.65 409.18 288.72 409.22 288.8 409.26 288.9 409.3 288.97 409.33 289.06 409.38 289.17 409.45 289.32 409.49 289.41 409.52 289.5 409.55 289.6 409.6 289.79 409.64 289.99 409.66 290.05 409.67 290.14 409.68 290.25 409.68 290.36 409.69 290.51 409.7 290.65 409.71 290.77 409.72 290.89 409.73 291.02 409.74 291.12 409.77 291.46 409.78 291.56 409.8 291.73 409.81 291.97 409.81 292.14 409.81 292.33 409.8 292.43 409.67 292.44 409.49 292.44 409.33 292.44 409.16 292.45 408.83 292.47 408.63 292.5 408.42 292.52 408.31 292.54 408.16 292.62 408.01 292.71 407.88 292.8 407.76 292.87 407.69 292.91 407.65 292.94 407.59 292.97 407.52 293.01 407.45 293.05 407.39 293.11 407.36 293.15 407.34 293.17 407.29 293.2 407.25 293.23 407.21 293.25 407.16 293.28 407.13 293.29 407 293.33 406.99 293.34 406.86 293.4 406.78 293.42 406.65 293.45 406.57 293.47 406.51 293.48 406.45 293.53 406.38 293.57 406.32 293.6 406.2 293.62 406.13 293.64 406.05 293.66 405.99 293.67 405.93 293.68 405.92 293.68 405.81 293.72 405.74 293.74 405.68 293.76 405.61 293.77 405.53 293.77 405.45 293.75 405.37 293.72 405.33 293.7 405.31 293.69 405.28 293.67 405.2 293.64 405.05 293.58 404.97 293.54 404.91 293.51 404.84 293.46 404.76 293.4 404.71 293.36 404.69 293.35 404.62 293.3 404.55 293.26 404.49 293.23 404.56 293.13 404.63 293.04 404.71 292.95 404.79 292.85 404.86 292.75 404.91 292.69 404.93 292.66 404.92 292.61 404.91 292.58 404.91 292.56 404.89 292.51 404.89 292.46 404.89 292.42 404.91 292.37 404.95 292.31 404.98 292.26 405.03 292.19 405.09 292.12 405.14 292.04 405.18 291.99 405.19 291.91 405.23 291.79 405.26 291.69 405.3 291.57 405.33 291.5 405.37 291.43 405.39 291.36 405.42 291.27 405.44 291.17 405.48 291.06 405.5 291.01 405.5 291 405.52 290.93 405.55 290.83 405.56 290.79 405.59 290.7 405.6 290.61 405.61 290.49 405.62 290.38 405.64 290.28 405.66 290.15 405.68 290.06 405.68 290.04 405.69 289.91 405.7 289.82 405.7 289.81 405.71 289.68 405.73 289.55 405.73 289.41 405.72 289.29 405.71 289.15 405.7 289.07 405.69 288.98 405.69 288.93 405.71 288.86 405.72 288.79 405.72 288.68 405.73 288.55 405.73 288.44 405.73 288.39 405.73 288.38 405.73 288.38 405.73 288.32 405.72 288.18 405.71 288.05 405.7 287.9 405.68 287.76 405.66 287.65 405.65 287.58 405.63 287.5 405.6 287.42 405.57 287.33 405.54 287.25 405.5 287.24 405.45 287.21 405.41 287.19 405.38 287.16 405.36 287.13 405.38 287.05 405.41 286.93 405.44 286.81 405.46 286.7 405.47 286.58 405.49 286.47 405.5 286.37 405.51 286.24 405.53 286.11 405.55 285.97 405.57 285.86 405.59 285.68 405.6 285.54 405.61 285.42 405.62 285.38 405.69 285.37 405.83 285.35 406.01 285.34 406.17 285.33 406.36 285.3 406.56 285.28 406.73 285.26 406.81 285.25 406.95 285.25 407.04 285.25 407.12 285.25 407.27 285.22 407.4 285.19 407.54 285.16 407.69 285.14 407.81 285.12 407.89 285.11 407.91 285.11 408.01 285.11 408.15 285.11 408.18 285.23 408.2 285.34 408.23 285.48 408.24 285.54 408.27 285.69 408.27 285.72 408.28 285.78 408.29 285.82 408.3 285.88 408.3 285.97 408.3 286.06 408.31 286.17 408.32 286.24 Z"/>
</g></svg>