<svg xmlns="http://www.w3.org/2000/svg" version="1.2" baseProfile="tiny" stroke-linecap="round" stroke-linejoin="round" viewBox="392.97 362.47 33.1 49.73"><g xmlns="http://www.w3.org/2000/svg" id="Deikaztelu">
<path d="M 404.02 362.47 404.07 362.5 404.13 362.54 404.16 362.56 404.19 362.58 404.21 362.6 404.23 362.61 404.25 362.65 404.27 362.7 404.3 362.76 404.34 362.82 404.38 362.89 404.43 362.96 404.47 363.02 404.51 363.09 404.56 363.17 404.62 363.23 404.68 363.28 404.8 363.41 404.85 363.46 404.88 363.5 404.88 363.51 404.91 363.54 405.01 363.7 405.05 363.77 405.08 363.8 405.14 363.87 405.2 363.95 405.25 364.01 405.31 364.07 405.32 364.08 405.35 364.12 405.44 364.21 405.51 364.3 405.52 364.35 405.54 364.42 405.57 364.47 405.61 364.53 405.7 364.65 405.79 364.76 405.88 364.89 406.01 365.05 406.12 365.2 406.18 365.26 406.21 365.29 406.24 365.32 406.3 365.41 406.35 365.45 406.4 365.45 406.49 365.43 406.57 365.41 406.65 365.41 406.77 365.42 406.9 365.42 407.03 365.43 407.19 365.46 407.33 365.49 407.35 365.49 407.36 365.49 407.4 365.51 407.47 365.55 407.57 365.59 407.62 365.63 407.71 365.69 407.8 365.76 407.86 365.81 407.96 365.85 408 365.89 408.1 365.94 408.18 365.99 408.27 366.04 408.37 366.08 408.41 366.1 408.45 366.14 408.54 366.23 408.65 366.35 408.75 366.47 408.86 366.59 408.92 366.64 409 366.73 409.09 366.81 409.15 366.88 409.21 366.94 409.28 367 409.32 367.05 409.4 367.09 409.46 367.13 409.54 367.16 409.61 367.18 409.69 367.21 409.74 367.24 409.78 367.27 409.84 367.32 409.91 367.4 409.94 367.44 409.97 367.47 410 367.53 410.03 367.59 410.04 367.62 410.08 367.69 410.15 367.82 410.17 367.88 410.21 367.96 410.24 368.05 410.26 368.1 410.31 368.19 410.35 368.31 410.39 368.42 410.4 368.45 410.47 368.6 410.5 368.67 410.55 368.77 410.6 368.86 410.64 368.94 410.72 369.08 410.65 369.09 410.6 369.1 410.57 369.11 410.5 369.12 410.36 369.14 410.37 369.18 410.39 369.25 410.4 369.32 410.38 369.4 410.35 369.5 410.35 369.55 410.37 369.61 410.4 369.65 410.41 369.69 410.42 369.72 410.43 369.75 410.44 369.77 410.45 369.8 410.46 369.84 410.45 369.85 410.45 369.9 410.44 369.95 410.45 370 410.45 370.02 410.46 370.05 410.46 370.06 410.46 370.09 410.45 370.17 410.44 370.31 410.44 370.39 410.46 370.43 410.48 370.47 410.5 370.48 410.53 370.51 410.58 370.54 410.63 370.6 410.69 370.67 410.76 370.74 410.79 370.77 410.82 370.81 410.87 370.86 410.9 370.92 410.94 370.98 410.95 371.01 410.99 371.06 411.04 371.13 411.06 371.18 411.11 371.22 411.13 371.25 411.17 371.28 411.18 371.29 411.24 371.34 411.27 371.36 411.32 371.38 411.36 371.39 411.42 371.48 411.43 371.49 411.44 371.5 411.46 371.54 411.47 371.56 411.51 371.64 411.59 371.76 411.6 371.78 411.61 371.8 411.61 371.84 411.61 371.91 411.61 371.97 411.62 372 411.63 372.03 411.66 372.06 411.68 372.08 411.71 372.13 411.74 372.17 411.74 372.18 411.77 372.21 411.83 372.28 411.85 372.32 411.9 372.37 411.96 372.43 412 372.48 412.02 372.51 412.03 372.56 412.02 372.59 412.01 372.62 412.02 372.68 412.03 372.72 412.04 372.73 412.52 372.61 412.53 372.61 412.56 372.64 412.72 372.84 412.73 372.86 412.79 372.93 412.81 372.95 412.84 372.99 412.9 373.07 412.91 373.08 412.93 373.1 413.04 373.24 413.11 373.33 413.14 373.37 413.18 373.41 413.19 373.42 413.22 373.47 413.23 373.48 413.26 373.52 413.33 373.6 413.34 373.61 413.38 373.65 413.39 373.67 413.39 373.68 413.54 373.87 413.6 373.96 413.66 374.03 413.7 374.08 413.77 374.13 413.84 374.19 413.89 374.22 413.93 374.26 413.99 374.3 414.16 374.43 414.23 374.48 414.24 374.5 414.26 374.53 414.3 374.57 414.36 374.64 414.4 374.71 414.45 374.83 414.48 374.87 414.52 374.93 414.53 374.96 414.56 374.99 414.6 375.05 414.62 375.06 414.63 375.07 414.68 375.11 414.79 375.19 414.91 375.29 414.92 375.31 414.93 375.33 414.95 375.33 414.97 375.33 414.97 375.33 415.02 375.35 415.12 375.36 415.18 375.41 415.21 375.43 415.25 375.46 415.26 375.47 415.3 375.51 415.35 375.57 415.37 375.58 415.38 375.59 415.4 375.61 415.61 375.87 415.66 375.92 415.69 375.96 415.71 375.98 415.74 376.01 415.75 376.02 415.81 376.07 415.91 376.14 416 376.21 416.05 376.25 416.09 376.26 416.12 376.24 416.14 376.24 416.28 376.41 416.37 376.53 416.47 376.68 416.48 376.7 416.49 376.71 416.5 376.72 416.55 376.8 416.62 376.89 416.62 376.89 416.63 376.91 416.66 376.94 416.67 376.95 416.88 377.2 416.9 377.22 417.05 377.39 417.43 377.8 417.43 377.81 417.45 377.82 417.53 377.92 417.54 377.92 417.57 377.95 417.61 378.01 417.65 378.05 417.69 378.12 417.7 378.13 417.73 378.17 417.73 378.18 417.78 378.24 417.81 378.27 417.81 378.28 417.82 378.29 417.83 378.32 417.87 378.36 417.9 378.4 417.9 378.41 417.91 378.42 418.02 378.58 418.12 378.73 418.15 378.76 418.17 378.79 418.2 378.84 418.27 378.94 418.28 378.95 418.6 378.97 418.53 379.14 418.53 379.15 418.55 379.19 418.57 379.23 418.59 379.27 418.62 379.3 418.65 379.33 418.68 379.35 418.72 379.38 418.77 379.4 418.84 379.43 418.88 379.44 418.91 379.46 418.93 379.49 418.96 379.52 418.99 379.56 418.99 379.57 419 379.58 419.01 379.61 419.11 379.67 419.15 379.69 419.16 379.7 419.32 379.88 419.33 379.88 419.34 379.89 419.34 379.9 419.38 379.95 419.42 380.01 419.44 380.02 419.44 380.03 419.58 380.11 419.83 380.27 419.9 380.31 419.94 380.34 419.95 380.35 419.99 380.38 420.26 380.51 420.69 380.63 420.74 380.65 420.75 380.65 420.83 380.67 421.03 380.72 421.04 380.72 421.16 380.77 421.17 380.77 421.21 380.77 421.5 381.12 421.51 381.13 421.53 381.15 421.54 381.17 421.67 381.32 421.7 381.36 421.7 381.37 421.71 381.38 421.72 381.4 421.73 381.4 421.99 381.76 421.99 381.76 422.08 381.88 422.09 381.9 422.09 381.9 422.19 382.02 422.2 382.04 422.23 382.07 422.25 382.08 422.46 382.34 422.48 382.36 422.63 382.53 422.64 382.54 422.73 382.63 422.74 382.65 422.78 382.69 422.8 382.72 422.82 382.73 422.83 382.74 422.91 382.8 422.98 382.85 422.99 382.87 423.04 382.9 423.15 382.99 423.27 383.11 423.33 383.16 423.41 383.21 423.49 383.27 423.51 383.28 423.54 383.34 423.56 383.35 423.57 383.37 423.59 383.38 423.6 383.38 423.63 383.41 423.69 383.46 423.75 383.49 423.83 383.53 423.85 383.54 423.92 383.58 423.92 383.6 423.89 383.65 423.84 383.7 423.78 383.76 423.76 383.81 423.76 383.87 423.77 383.94 423.8 384 423.86 384.04 423.9 384.09 423.93 384.17 423.99 384.31 424.04 384.4 424.07 384.49 424.07 384.56 424.06 384.63 424.01 384.7 423.99 384.76 423.99 384.84 424.06 384.99 424.11 385.08 424.15 385.12 424.22 385.16 424.3 385.24 424.39 385.31 424.46 385.35 424.5 385.38 424.53 385.41 424.57 385.52 424.66 385.72 424.75 385.94 424.82 386.08 424.91 386.18 424.97 386.22 425.01 386.22 425.07 386.23 425.12 386.27 425.2 386.33 425.27 386.38 425.36 386.43 425.47 386.51 425.56 386.59 425.67 386.67 425.75 386.72 425.83 386.78 425.9 386.85 425.97 386.9 426 386.95 426.02 387 426.03 387.06 426.04 387.12 426.02 387.18 425.96 387.28 425.93 387.33 425.88 387.36 425.8 387.4 425.73 387.43 425.68 387.46 425.63 387.51 425.6 387.56 425.59 387.58 425.55 387.67 425.5 387.75 425.47 387.8 425.43 387.85 425.36 387.91 425.28 387.96 425.22 387.99 425.14 388.01 425.07 388.02 425.06 387.96 425.02 387.88 425.02 387.86 425.01 387.84 425 387.8 424.97 387.72 424.96 387.71 424.95 387.68 424.93 387.63 424.92 387.59 424.89 387.52 424.86 387.5 424.83 387.49 424.8 387.48 424.76 387.47 424.45 387.4 424.3 387.26 424.29 387.25 424.21 387.17 424.14 387.1 424.05 387.02 424.04 387.01 423.99 386.96 423.97 386.94 423.96 386.93 423.92 386.89 423.85 386.82 423.8 386.78 423.78 386.76 423.77 386.75 423.76 386.73 423.74 386.72 423.59 386.48 423.55 386.45 423.52 386.41 423.51 386.39 423.37 386.31 423.35 386.3 423.24 386.25 423.16 386.21 423.14 386.2 423.06 386.12 422.91 385.97 422.81 385.88 422.79 385.86 422.74 385.81 422.71 385.79 422.68 385.76 422.62 385.71 422.59 385.68 422.54 385.64 422.5 385.6 422.49 385.59 422.45 385.57 422.41 385.54 422.34 385.49 422.32 385.46 422.04 385.24 422.03 385.23 421.98 385.19 421.9 385.14 421.89 385.12 421.88 385.11 421.87 385.1 421.85 385.08 421.8 385.05 421.78 385.04 421.75 385 421.73 384.97 421.71 384.96 421.68 384.95 421.62 384.92 421.55 384.89 421.53 384.88 421.51 384.87 421.49 384.84 421.45 384.8 421.43 384.79 421.41 384.77 421.34 384.71 421 384.33 420.98 384.3 420.95 384.23 420.91 384.14 420.89 384.1 420.84 383.99 420.8 383.92 420.7 383.74 420.68 383.7 420.67 383.68 420.62 383.6 420.61 383.57 420.57 383.5 420.55 383.46 420.54 383.45 420.48 383.44 420.43 383.43 420.38 383.41 420.27 383.37 420.23 383.36 420.18 383.34 420.14 383.32 420.1 383.31 420.06 383.28 420.01 383.27 419.97 383.26 419.95 383.25 419.94 383.25 419.91 383.25 419.87 383.25 419.85 383.25 419.79 383.25 419.76 383.25 419.72 383.25 419.68 383.25 419.66 383.25 419.59 383.25 419.56 383.25 419.53 383.25 419.5 383.24 419.48 383.22 419.46 383.22 419.43 383.2 419.37 383.15 419.33 383.13 419.28 383.1 419.27 383.08 419.23 383.07 419.18 383.05 419.09 383.01 419.01 382.95 418.99 382.94 418.96 382.92 418.88 382.84 418.86 382.81 418.84 382.79 418.82 382.77 418.79 382.76 418.77 382.75 418.69 382.71 418.67 382.7 418.61 382.66 418.59 382.65 418.57 382.64 418.5 382.63 418.48 382.6 418.41 382.53 418.39 382.51 418.38 382.5 418.37 382.49 418.33 382.44 418.29 382.4 418.28 382.37 418.26 382.34 418.24 382.33 418.23 382.31 418.22 382.3 418.18 382.25 418.13 382.21 418.13 382.2 418.05 382.1 417.95 381.97 417.89 381.91 417.82 381.84 417.77 381.8 417.73 381.78 417.71 381.77 417.62 381.73 417.6 381.72 417.53 381.68 417.51 381.67 417.5 381.66 417.49 381.65 417.47 381.63 417.42 381.55 417.38 381.48 417.35 381.43 417.32 381.38 417.3 381.35 417.28 381.31 417.27 381.3 417.25 381.25 417.23 381.23 417.23 381.22 417.21 381.21 417.17 381.19 417.14 381.18 417.12 381.17 417.1 381.17 417.09 381.17 417.08 381.16 417.05 381.13 417.01 381.1 416.97 381.1 416.96 381.1 416.95 381.09 416.92 381.08 416.89 381.06 416.84 381.02 416.81 381 416.78 380.97 416.74 380.96 416.71 380.96 416.67 380.95 416.63 380.94 416.62 380.94 416.58 380.92 416.57 380.91 416.53 380.9 416.47 380.88 416.46 380.88 416.44 380.89 416.37 380.92 416.14 381 416.13 381 416.1 381.01 415.87 381.07 415.83 381.08 415.8 381.09 415.79 381.09 415.78 381.1 415.76 381.1 415.74 381.1 415.7 381.11 415.67 381.12 415.53 381.15 415.46 381.16 415.45 381.16 415.31 381.2 415.23 381.21 415.22 381.22 415.12 381.24 415.11 381.25 415 381.28 414.99 381.28 414.81 381.33 414.78 381.35 414.77 381.35 414.73 381.4 414.69 381.44 414.62 381.52 414.6 381.54 414.37 381.8 414.32 381.85 414.32 381.86 414.26 381.92 414.25 381.93 414.24 381.95 414.13 382 414.04 382.04 414.02 382.06 413.91 382.1 413.91 382.11 413.9 382.11 413.87 382.11 413.86 382.11 413.68 382.1 413.64 382.1 413.45 382.09 413.44 382.09 413.41 382.09 413.37 382.12 413.29 382.17 413.17 382.24 413.16 382.24 413.15 382.26 413.12 382.26 413.06 382.29 413 382.31 412.92 382.34 412.88 382.35 412.68 382.41 412.51 382.46 412.49 382.47 412.48 382.47 412.29 382.52 412.27 382.52 411.99 382.59 411.95 382.6 411.89 382.61 411.88 382.61 411.8 382.63 411.78 382.63 411.74 382.64 411.73 382.65 411.68 382.66 411.51 382.72 411.47 382.72 411.44 382.74 411.43 382.75 411.42 382.75 411.4 382.77 411.36 382.82 411.35 382.83 411.34 382.84 411.32 382.86 411.3 382.88 411.29 382.89 411.29 382.9 411.26 382.93 411.24 382.96 411.17 383.04 411.06 383.19 411.05 383.2 410.99 383.29 410.89 383.41 410.87 383.43 410.85 383.45 410.79 383.54 410.71 383.64 410.7 383.66 410.68 383.68 410.68 383.69 410.65 383.74 410.63 383.76 410.63 383.77 410.62 383.78 410.56 383.87 410.5 383.94 410.46 384 410.44 384.02 410.42 384.06 410.41 384.07 410.39 384.09 410.37 384.13 410.33 384.17 410.28 384.23 410.25 384.26 410.22 384.29 410.15 384.37 410.07 384.46 410.05 384.47 410.05 384.49 409.98 384.56 409.88 384.71 409.79 384.82 409.77 384.85 409.77 384.86 409.71 384.89 409.69 384.9 409.68 384.9 409.66 384.91 409.6 384.94 409.58 384.96 409.58 384.97 409.57 384.98 409.56 385 409.5 385.12 409.39 385.33 409.38 385.35 409.38 385.36 409.37 385.37 409.37 385.39 409.36 385.4 409.35 385.42 409.32 385.49 409.28 385.57 409.24 385.65 409.2 385.73 409.18 385.77 409.18 385.78 409.17 385.8 409.15 385.82 409.13 385.88 409.09 385.94 409.05 386.01 408.99 386.12 408.96 386.18 408.92 386.24 408.87 386.33 408.83 386.4 408.82 386.43 408.8 386.46 408.76 386.53 408.71 386.59 408.68 386.63 408.67 386.65 408.62 386.71 408.59 386.75 408.57 386.78 408.52 386.85 408.47 386.91 408.45 386.94 408.41 386.99 408.38 387.03 408.36 387.06 408.33 387.1 408.3 387.14 408.28 387.19 408.28 387.2 408.27 387.21 408.25 387.27 408.22 387.38 408.18 387.49 408.16 387.56 408.14 387.63 408.11 387.69 408.09 387.73 408.06 387.79 408.04 387.83 408.03 387.84 408.01 387.88 407.99 387.93 407.96 387.98 407.93 388.05 407.9 388.1 407.88 388.14 407.86 388.18 407.84 388.24 407.81 388.29 407.79 388.35 407.78 388.36 407.77 388.39 407.76 388.41 407.75 388.43 407.74 388.45 407.74 388.47 407.73 388.48 407.72 388.52 407.72 388.57 407.71 388.62 407.71 388.64 407.7 388.66 407.71 388.73 407.7 388.79 407.69 388.85 407.69 388.87 407.68 388.93 407.64 389.14 407.62 389.21 407.6 389.27 407.51 389.44 407.47 389.54 407.44 389.63 407.36 389.85 407.35 389.9 407.34 389.93 407.32 389.96 407.32 389.98 407.32 389.99 407.3 390.04 407.27 390.08 407.25 390.12 407.24 390.14 407.18 390.27 407.16 390.35 407.14 390.41 407.12 390.48 407.12 390.51 407.11 390.55 407.04 390.77 407.03 390.79 406.96 391.01 406.96 391.02 406.95 391.06 406.89 391.22 406.85 391.31 406.8 391.42 406.71 391.6 406.7 391.63 406.68 391.67 406.67 391.68 406.66 391.72 406.65 391.74 406.6 391.83 406.52 392 406.51 392.01 406.5 392.02 406.5 392.05 406.49 392.2 406.49 392.22 406.48 392.34 406.48 392.39 406.47 392.41 406.46 392.56 406.46 392.59 406.44 392.81 406.43 392.91 406.42 392.99 406.41 393.1 406.4 393.22 406.4 393.23 406.39 393.25 406.39 393.26 406.39 393.29 406.38 393.37 406.37 393.39 406.37 393.39 406.35 393.54 406.34 393.61 406.32 393.69 406.32 393.72 406.3 393.85 406.26 394.1 406.25 394.15 406.24 394.2 406.24 394.25 406.24 394.26 406.24 394.31 406.22 394.44 406.2 394.67 406.2 394.69 406.19 394.75 406.17 394.96 406.17 394.97 406.17 394.98 406.16 395.04 406.15 395.07 406.14 395.12 406.13 395.23 406.11 395.32 406.07 395.5 406.04 395.62 406.03 395.65 405.99 395.86 405.97 395.93 405.95 396.02 405.93 396.08 405.93 396.09 405.92 396.12 405.9 396.19 405.89 396.28 405.89 396.34 405.88 396.44 405.87 396.55 405.87 396.62 405.86 396.68 405.86 396.77 405.86 396.83 405.85 396.93 405.84 397.01 405.82 397.34 405.82 397.34 405.81 397.41 405.81 397.42 405.8 397.56 405.79 397.64 405.77 397.73 405.73 397.94 405.73 397.97 405.7 398.15 405.64 398.45 405.64 398.46 405.63 398.51 405.63 398.53 405.62 398.55 405.6 398.69 405.58 398.77 405.55 398.97 405.54 399 405.53 399.07 405.5 399.23 405.49 399.3 405.49 399.31 405.45 399.51 405.43 399.63 405.41 399.76 405.37 399.94 405.37 399.95 405.33 400.22 405.28 400.51 405.26 400.59 405.26 400.61 405.26 400.62 405.26 400.63 405.24 400.76 405.23 400.83 405.23 400.84 405.2 400.98 405.2 401 405.2 401 405.17 401.2 405.14 401.41 405.1 401.69 405.1 401.74 405.09 401.77 405.06 402.02 405.05 402.04 405.02 402.11 404.95 402.34 404.93 402.39 404.88 402.52 404.84 402.64 404.81 402.73 404.81 402.76 404.81 402.8 404.81 402.83 404.82 402.89 404.83 402.98 404.83 403.05 404.83 403.06 404.85 403.21 404.85 403.29 404.86 403.38 404.87 403.53 404.88 403.63 404.9 403.78 404.9 403.88 404.91 403.96 404.91 403.97 404.93 404.05 404.96 404.21 404.99 404.37 405 404.48 405.02 404.61 405.02 404.7 405.03 404.74 405.03 404.75 405.05 404.92 405.06 404.99 405.06 405.01 405.07 405.09 405.08 405.11 405.1 405.24 405.1 405.25 405.13 405.36 405.15 405.46 405.16 405.47 405.16 405.49 405.18 405.56 405.19 405.58 405.19 405.61 405.21 405.65 405.23 405.71 405.27 405.8 405.28 405.85 405.3 405.91 405.3 405.95 405.33 406.06 405.33 406.11 405.41 406.52 405.41 406.55 405.41 406.56 405.41 406.59 405.42 406.65 405.42 406.74 405.43 406.88 405.43 406.89 405.43 406.93 405.43 406.95 405.43 407.04 405.43 407.12 405.43 407.22 405.43 407.38 405.43 407.39 405.43 407.45 405.43 407.57 405.43 407.59 405.42 407.78 405.42 407.84 405.4 408.05 405.39 408.11 405.37 408.31 405.35 408.45 405.34 408.57 405.31 408.72 405.29 408.85 405.29 408.89 405.25 409.11 405.22 409.3 405.21 409.34 405.21 409.35 405.18 409.56 405.17 409.61 405.15 409.66 405.13 409.71 405.1 409.84 405.09 409.86 405.05 410 405.04 410.05 405.03 410.08 405.02 410.13 405.02 410.16 405 410.25 404.99 410.3 404.99 410.3 404.95 410.55 404.93 410.66 404.91 410.77 404.9 410.81 404.86 410.98 404.85 411.05 404.84 411.15 404.83 411.22 404.83 411.28 404.82 411.34 404.81 411.54 404.79 411.61 404.78 411.64 404.77 411.67 404.75 411.72 404.71 411.78 404.69 411.83 404.65 411.89 404.6 411.96 404.57 412.01 404.54 412.06 404.53 412.07 404.52 412.09 404.45 412.18 404.42 412.18 404.41 412.17 404.37 412.16 404.31 412.14 404.27 412.13 404.15 412.1 404.09 412.08 404.01 412.05 403.95 412.03 403.89 412.01 403.88 412.01 403.82 411.99 403.76 411.96 403.71 411.93 403.64 411.89 403.6 411.87 403.54 411.83 403.5 411.8 403.45 411.77 403.42 411.77 403.37 411.75 403.32 411.73 403.28 411.71 403.24 411.69 403.22 411.67 403.21 411.65 403.2 411.64 403.18 411.63 403.14 411.62 403.09 411.61 403.07 411.61 403.02 411.61 402.96 411.62 402.91 411.62 402.86 411.61 402.84 411.6 402.83 411.6 402.81 411.59 402.77 411.55 402.74 411.53 402.72 411.51 402.69 411.5 402.67 411.5 402.6 411.51 402.49 411.51 402.45 411.5 402.42 411.49 402.32 411.48 402.24 411.46 402.17 411.44 402.12 411.41 402.09 411.39 402.07 411.37 402.05 411.35 402.04 411.34 402.01 411.32 401.98 411.3 401.95 411.28 401.92 411.27 401.88 411.25 401.83 411.25 401.78 411.26 401.73 411.26 401.69 411.26 401.66 411.26 401.64 411.25 401.6 411.23 401.56 411.21 401.54 411.19 401.52 411.18 401.48 411.15 401.46 411.13 401.45 411.12 401.44 411.12 401.41 411.1 401.38 411.07 401.34 411.03 401.3 410.99 401.28 410.96 401.24 410.91 401.2 410.85 401.19 410.82 401.23 410.81 401.26 410.8 401.31 410.8 401.36 410.79 401.38 410.79 401.39 410.77 401.4 410.75 401.4 410.73 401.4 410.72 401.39 410.7 401.38 410.68 401.36 410.64 401.34 410.59 401.3 410.52 401.28 410.49 401.25 410.4 401.23 410.36 401.23 410.33 401.23 410.31 401.22 410.29 401.22 410.25 401.21 410.19 401.21 410.1 401.2 410.04 401.2 409.99 401.19 409.98 401.17 409.96 401.14 409.92 401.13 409.91 401.09 409.87 401.08 409.86 401.06 409.83 401.05 409.77 401.03 409.75 400.99 409.69 400.95 409.63 400.93 409.58 400.9 409.56 400.88 409.54 400.84 409.52 400.78 409.5 400.75 409.5 400.73 409.49 400.68 409.5 400.69 409.45 400.7 409.37 400.71 409.34 400.69 409.32 400.67 409.3 400.64 409.29 400.62 409.27 400.59 409.26 400.5 409.22 400.46 409.2 400.46 409.19 400.44 409.17 400.42 409.16 400.38 409.14 400.33 409.13 400.28 409.11 400.22 409.1 400.18 409.1 400.13 409.1 400.07 409.1 400.02 409.08 399.99 409.07 399.97 409.05 399.94 409.02 399.92 409 399.88 408.95 399.85 408.9 399.78 408.81 399.73 408.81 399.65 408.78 399.54 408.75 399.47 408.72 399.36 408.68 399.26 408.64 399.19 408.62 399.17 408.62 399.15 408.61 399.14 408.6 399.02 408.55 398.85 408.48 398.74 408.44 398.61 408.4 398.47 408.36 398.37 408.34 398.3 408.33 398.23 408.33 398.21 408.33 398.17 408.34 398.13 408.35 398.09 408.37 398.04 408.43 397.98 408.51 397.93 408.6 397.93 408.61 397.85 408.77 397.81 408.86 397.79 408.88 397.75 408.91 397.7 408.94 397.67 408.98 397.63 409.02 397.62 409.06 397.62 409.13 397.62 409.23 397.63 409.3 397.63 409.35 397.6 409.35 397.55 409.37 397.51 409.4 397.46 409.47 397.42 409.57 397.41 409.59 397.39 409.65 397.37 409.68 397.36 409.65 397.33 409.59 397.3 409.52 397.25 409.44 397.19 409.37 397.18 409.36 397.15 409.37 397.07 409.4 397.01 409.43 396.97 409.47 396.97 409.47 396.95 409.49 396.93 409.5 396.93 409.51 396.91 409.54 396.87 409.61 396.84 409.68 396.84 409.71 396.84 409.77 396.85 409.82 396.89 409.89 396.93 410 396.95 410.08 396.95 410.15 396.95 410.23 396.95 410.31 396.91 410.41 396.87 410.51 396.86 410.53 396.81 410.62 396.76 410.69 396.72 410.73 396.67 410.78 396.65 410.82 396.6 410.92 396.55 410.99 396.51 411.05 396.5 411.05 396.45 411.08 396.37 411.11 396.28 411.14 396.17 411.16 396.06 411.17 396.02 411.16 396.03 411.13 396.08 411.09 396.11 411.05 396.13 411.02 396.13 410.99 396.11 410.95 396.07 410.9 395.99 410.83 395.9 410.76 395.8 410.71 395.76 410.7 395.72 410.69 395.69 410.69 395.65 410.68 395.63 410.66 395.61 410.62 395.43 410.68 395.34 410.71 395.31 410.72 395.3 410.72 395.29 410.73 395.28 410.73 395.26 410.75 395.25 410.78 395.25 410.84 395.27 410.94 395.29 411.02 395.32 411.1 395.33 411.14 395.32 411.2 395.3 411.29 395.3 411.32 395.29 411.34 395.3 411.37 395.33 411.46 395.39 411.69 395.46 411.94 395.46 411.98 395.46 412.01 395.44 412.04 395.43 412.06 395.4 412.08 395.37 412.08 395.3 412.04 395.14 411.97 394.99 411.91 394.97 411.9 394.91 411.9 394.87 411.91 394.81 411.91 394.74 411.91 394.7 411.9 394.66 411.88 394.62 411.85 394.62 411.87 394.62 411.9 394.61 411.93 394.58 411.97 394.54 412.03 394.5 412.1 394.46 412.15 394.45 412.11 394.44 412.03 394.41 411.93 394.41 411.9 394.39 411.83 394.39 411.81 394.37 411.77 394.34 411.66 394.32 411.61 394.29 411.53 394.26 411.42 394.22 411.26 394.2 411.18 394.18 411.09 394.18 411.05 394.17 410.98 394.17 410.95 394.17 410.88 394.17 410.81 394.18 410.75 394.18 410.73 394.18 410.71 394.18 410.68 394.16 410.55 394.13 410.4 394.11 410.21 394.09 410.09 394.09 410.06 394.08 409.99 394.07 409.84 394.06 409.8 394.05 409.67 394.04 409.62 394.03 409.5 394.03 409.46 393.99 409.34 393.98 409.32 393.94 409.17 393.9 409.04 393.87 408.95 393.86 408.84 393.85 408.8 393.82 408.69 393.76 408.51 393.68 408.29 393.61 408.11 393.6 408.06 393.56 407.91 393.52 407.78 393.49 407.62 393.46 407.47 393.41 407.3 393.4 407.18 393.38 407.04 393.37 406.97 393.34 406.82 393.31 406.71 393.3 406.68 393.29 406.65 393.27 406.61 393.27 406.59 393.24 406.52 393.24 406.51 393.23 406.48 393.23 406.43 393.23 406.4 393.24 406.3 393.23 406.27 393.22 406.18 393.2 406.07 393.19 405.98 393.18 405.88 393.18 405.86 393.18 405.84 393.18 405.81 393.15 405.71 393.1 405.54 393.1 405.52 393.05 405.38 393 405.22 392.98 405.14 392.98 405.1 392.99 405.07 392.99 405.05 393 405 393.03 404.9 393.03 404.88 393.05 404.78 393.07 404.71 393.11 404.65 393.17 404.56 393.17 404.55 393.25 404.46 393.25 404.45 393.38 404.31 393.4 404.29 393.41 404.26 393.45 404.23 393.69 404.23 394 404.2 394.14 404.2 394.26 404.19 394.41 404.19 394.48 404.18 394.51 404.18 394.52 404.18 394.54 404.18 394.78 404.17 394.79 404.16 394.81 404.16 394.82 404.16 394.99 404.15 394.99 404.15 395.01 404.15 395.13 404.15 395.24 404.15 395.31 404.14 395.36 404.13 395.38 404.12 395.4 404.12 395.42 404.12 395.43 404.12 395.62 404.07 395.65 403.95 395.69 403.78 395.72 403.72 395.78 403.56 395.8 403.49 395.83 403.35 395.86 403.25 395.87 403.18 395.89 403.1 395.91 403.06 395.91 403.02 395.92 403.01 395.93 402.96 395.94 402.93 395.94 402.93 395.95 402.91 395.97 402.86 395.97 402.84 395.98 402.81 396.02 402.71 396.07 402.53 396.08 402.5 396.09 402.47 396.13 402.34 396.16 402.27 396.21 402.15 396.24 402.07 396.24 402.06 396.25 402.05 396.25 402.04 396.26 402.02 396.27 401.97 396.31 401.87 396.35 401.8 396.41 401.68 396.5 401.48 396.58 401.31 396.66 401.17 396.68 401.13 396.69 401.1 396.71 401.07 396.78 400.95 396.81 400.9 396.82 400.88 396.86 400.83 396.93 400.72 396.93 400.71 396.96 400.66 396.98 400.62 396.99 400.59 396.99 400.57 397 400.53 397.01 400.52 397.01 400.5 397.06 400.41 397.11 400.28 397.12 400.27 397.14 400.22 397.16 400.18 397.18 400.13 397.21 400.05 397.22 400.03 397.25 399.96 397.29 399.79 397.32 399.69 397.33 399.62 397.36 399.41 397.37 399.37 397.38 399.27 397.4 399.17 397.41 399.1 397.41 399.07 397.48 398.96 397.52 398.88 397.58 398.78 397.63 398.7 397.73 398.52 397.8 398.4 397.81 398.35 397.89 398.17 397.99 397.94 398.02 397.89 398.02 397.88 398.14 397.6 398.23 397.39 398.27 397.29 398.29 397.23 398.3 397.2 398.34 396.99 398.35 396.93 398.35 396.89 398.36 396.86 398.38 396.79 398.38 396.76 398.42 396.44 398.42 396.43 398.43 396.34 398.44 396.3 398.45 396.28 398.45 396.27 398.46 396.18 398.49 396.08 398.5 395.98 398.51 395.92 398.52 395.9 398.54 395.84 398.48 395.72 398.42 395.62 398.38 395.54 398.32 395.41 398.31 395.4 398.3 395.38 398.3 395.37 398.31 395.36 398.32 395.35 398.37 395.29 398.47 395.15 398.56 395.01 398.67 394.88 398.74 394.77 398.77 394.74 398.82 394.68 398.87 394.62 398.88 394.6 398.89 394.59 398.94 394.51 399.04 394.42 399.16 394.33 399.24 394.25 399.28 394.22 399.35 394.16 399.38 394.12 399.35 394.06 399.33 394.03 399.32 394.01 399.3 393.95 399.3 393.88 399.31 393.8 399.32 393.74 399.33 393.71 399.32 393.67 399.32 393.65 399.32 393.63 399.31 393.56 399.31 393.51 399.31 393.49 399.31 393.48 399.31 393.44 399.32 393.4 399.33 393.35 399.35 393.29 399.4 393.07 399.41 393.05 399.44 392.91 399.49 392.75 399.52 392.68 399.55 392.59 399.6 392.5 399.64 392.43 399.67 392.35 399.76 392.13 399.81 392.02 399.82 391.99 399.82 391.98 399.82 391.91 399.82 391.89 399.82 391.84 399.82 391.82 399.82 391.77 399.82 391.65 399.82 391.64 399.82 391.58 399.82 391.57 399.82 391.29 399.82 391.17 399.83 391.12 399.9 390.82 399.93 390.7 399.96 390.49 399.98 390.32 400.02 390 400.03 389.97 400.16 389.56 400.3 389.17 400.32 389.13 400.33 389.11 400.42 388.93 400.47 388.85 400.48 388.84 400.56 388.69 400.56 388.68 400.57 388.67 400.66 388.52 400.69 388.46 400.7 388.45 400.78 388.32 400.79 388.29 400.8 388.27 400.84 388.2 401.01 387.97 401.1 387.83 401.13 387.78 401.13 387.77 401.14 387.76 401.15 387.75 401.2 387.68 401.25 387.59 401.44 387.31 401.46 387.29 401.56 387.1 401.66 386.9 401.67 386.86 401.7 386.81 401.71 386.8 401.94 386.7 401.94 386.68 401.95 386.67 402.01 386.59 402.02 386.58 402.16 386.41 402.22 386.32 402.26 386.27 402.32 386.2 402.34 386.18 402.36 386.15 402.37 386.14 402.43 386.09 402.53 386 402.64 385.9 402.69 385.84 402.72 385.79 402.8 385.65 402.81 385.64 402.9 385.48 402.9 385.48 402.93 385.43 402.93 385.42 402.94 385.41 402.94 385.4 402.95 385.39 402.99 385.31 403.1 385.12 403.11 385.11 403.14 385.07 403.17 385.01 403.22 384.92 403.26 384.83 403.31 384.71 403.42 384.51 403.57 384.2 403.58 384.19 403.62 384.09 403.67 383.96 403.68 383.92 403.69 383.88 403.69 383.87 403.7 383.84 403.72 383.72 403.73 383.58 403.74 383.39 403.75 383.22 403.75 383.21 403.75 383.2 403.76 383.16 403.77 383.09 403.77 383.06 403.77 383.04 403.77 383.02 403.81 382.89 403.88 382.62 403.94 382.4 403.95 382.36 403.96 382.33 403.95 382.15 403.94 382.04 403.93 381.95 403.92 381.91 403.91 381.89 403.9 381.84 403.85 381.68 403.81 381.54 403.8 381.45 403.77 381.31 403.75 381.19 403.75 381.17 403.67 381.02 403.66 380.99 403.64 380.96 403.63 380.95 403.6 380.88 403.53 380.74 403.49 380.65 403.48 380.64 403.44 380.56 403.43 380.53 403.41 380.49 403.4 380.46 403.39 380.42 403.4 380.36 403.4 380.23 403.41 380.06 403.41 379.98 403.42 379.93 403.42 379.87 403.41 379.84 403.4 379.72 403.38 379.55 403.38 379.46 403.38 379.45 403.37 379.43 403.36 379.42 403.33 379.28 403.28 379.12 403.27 379.06 403.26 378.97 403.26 378.94 403.27 378.93 403.29 378.8 403.31 378.7 403.33 378.64 403.34 378.62 403.36 378.52 403.37 378.47 403.39 378.39 403.41 378.25 403.41 378.21 403.41 378.18 403.4 378.16 403.37 378.12 403.33 378.06 403.28 378.02 403.2 377.98 403.15 377.95 403.07 377.92 403.11 377.75 403.12 377.72 403.12 377.7 403.13 377.67 403.17 377.46 403.17 377.45 403.19 377.4 403.2 377.39 403.25 377.23 403.28 377.15 403.29 377.1 403.31 377.04 403.34 376.98 403.38 376.9 403.43 376.81 403.47 376.77 403.58 376.7 403.65 376.66 403.77 376.59 403.87 376.56 403.96 376.54 404.01 376.52 404.04 376.51 404.06 376.49 404.07 376.47 404.22 376.25 404.31 376.11 404.46 375.89 404.52 375.81 404.53 375.8 404.55 375.78 404.57 375.77 404.62 375.74 404.63 375.74 404.64 375.73 404.73 375.69 404.74 375.68 404.82 375.65 404.83 375.64 404.84 375.64 404.85 375.64 405 375.55 405.02 375.55 405.08 375.51 405.13 375.49 405.37 375.42 405.39 375.41 405.4 375.37 405.42 375.32 405.45 375.25 405.46 375.23 405.51 375.11 405.59 375.06 405.62 375.05 405.83 374.92 405.86 374.9 406.01 374.91 406.04 374.91 406.06 374.91 406.08 374.91 406.11 374.92 406.21 374.92 406.31 374.92 406.34 374.92 406.46 374.94 406.52 374.95 406.55 374.95 406.59 374.95 406.63 374.94 406.68 374.91 406.75 374.86 406.77 374.85 406.89 374.77 406.96 374.73 406.97 374.71 407.05 374.64 407.08 374.61 407.09 374.6 407.1 374.59 407.17 374.52 407.2 374.5 407.22 374.48 407.23 374.47 407.23 374.46 407.34 374.36 407.47 374.24 407.48 374.23 407.5 374.22 407.59 374.13 407.61 374.11 407.56 373.94 407.55 373.92 407.54 373.91 407.53 373.87 407.51 373.76 407.49 373.68 407.46 373.54 407.44 373.44 407.41 373.31 407.39 373.21 407.37 373.1 407.37 373.08 407.37 373.07 407.36 373.03 407.36 373.01 407.35 372.93 407.34 372.8 407.33 372.74 407.32 372.64 407.31 372.63 407.31 372.62 407.31 372.61 407.31 372.6 407.35 372.56 407.36 372.56 407.43 372.49 407.44 372.47 407.45 372.47 407.46 372.46 407.49 372.42 407.52 372.39 407.53 372.38 407.6 372.31 407.6 372.31 407.65 372.26 407.66 372.25 407.67 372.24 407.75 372.16 407.76 372.15 407.83 372.08 407.86 372.05 407.97 371.94 407.99 371.92 408.01 371.9 408.04 371.87 408.09 371.83 407.98 371.7 407.83 371.55 407.8 371.51 407.75 371.44 407.7 371.35 407.64 371.23 407.59 371.1 407.58 371 407.6 370.9 407.6 370.84 407.58 370.71 407.56 370.67 407.54 370.61 407.48 370.52 407.46 370.5 407.43 370.44 407.4 370.41 407.37 370.35 407.36 370.32 407.35 370.27 407.35 370.25 407.34 370.22 407.31 370.1 407.26 369.91 407.25 369.81 407.24 369.67 407.23 369.59 407.22 369.53 407.22 369.46 407.21 369.38 407.2 369.32 407.16 369.18 407.12 369.08 407.12 369.06 407.09 368.99 407.06 368.93 407.05 368.88 407.04 368.84 407.02 368.74 407.01 368.69 407.01 368.53 407 368.31 406.99 368.11 406.98 368.04 406.97 367.9 406.96 367.76 406.96 367.74 406.96 367.73 406.95 367.6 406.89 367.52 406.72 367.24 406.7 367.21 406.67 367.17 406.56 367.06 406.5 366.99 406.47 366.93 406.44 366.86 406.41 366.79 406.4 366.77 406.35 366.72 406.29 366.65 406.19 366.55 406.17 366.52 406.15 366.49 406.08 366.45 406.02 366.42 406 366.42 405.99 366.42 405.95 366.41 405.91 366.42 405.9 366.43 405.88 366.43 405.87 366.43 405.86 366.44 405.83 366.45 405.8 366.47 405.74 366.5 405.7 366.51 405.67 366.51 405.62 366.52 405.57 366.52 405.49 366.51 405.39 366.5 405.24 366.47 405.18 366.46 405.12 366.44 405.05 366.41 404.99 366.38 404.93 366.36 404.88 366.34 404.83 366.3 404.73 366.25 404.69 366.23 404.55 366.16 404.41 366.09 404.28 366.02 404.14 365.95 404.01 365.88 403.85 365.78 403.66 365.76 403.5 365.75 403.42 365.75 403.34 365.74 403.18 365.71 402.99 365.68 402.85 365.66 402.8 365.65 402.68 365.67 402.62 365.69 402.5 365.77 402.41 365.82 402.23 365.93 402.07 365.95 401.99 365.94 401.7 365.95 401.38 365.97 401.17 365.97 400.92 365.96 400.75 365.96 400.73 365.96 400.46 365.94 400.14 365.93 399.95 365.92 399.73 365.92 399.46 365.91 399.43 365.87 399.37 365.77 399.3 365.65 399.28 365.59 399.23 365.49 399.19 365.42 399.15 365.33 399.12 365.27 399.07 365.18 399.01 365.05 398.98 365 398.95 364.92 398.93 364.89 398.92 364.87 398.9 364.83 398.94 364.73 398.98 364.6 399.01 364.5 399.02 364.43 399.04 364.36 399.08 364.3 399.15 364.21 399.21 364.15 399.29 364.1 399.3 364.1 399.36 364.07 399.44 364.03 399.51 363.99 399.58 363.96 399.63 363.93 399.68 363.89 399.73 363.86 399.8 363.81 399.84 363.78 399.88 363.76 399.93 363.73 399.99 363.7 400.06 363.67 400.12 363.65 400.17 363.64 400.22 363.62 400.27 363.61 400.32 363.6 400.35 363.59 400.36 363.58 400.39 363.56 400.44 363.54 400.49 363.51 400.53 363.49 400.55 363.49 400.58 363.48 400.61 363.47 400.62 363.47 400.67 363.45 400.7 363.44 400.73 363.42 400.77 363.38 400.84 363.32 400.91 363.28 400.97 363.23 401.02 363.19 401.07 363.15 401.12 363.11 401.17 363.07 401.24 363.03 401.29 362.99 401.33 362.97 401.37 362.95 401.41 362.93 401.49 362.92 401.55 362.9 401.61 362.88 401.64 362.87 401.7 362.84 401.75 362.81 401.79 362.79 401.84 362.76 401.86 362.75 401.89 362.75 401.91 362.75 401.94 362.75 401.98 362.77 402 362.78 402.02 362.79 402.11 362.83 402.21 362.86 402.32 362.88 402.41 362.88 402.51 362.9 402.61 362.92 402.69 362.95 402.7 362.96 402.75 362.98 402.79 363.01 402.85 363.03 402.91 363.05 402.95 363.06 403.03 363.1 403.05 363.1 403.1 363.1 403.15 363.11 403.25 363.12 403.35 363.11 403.42 363.08 403.49 363.06 403.58 363.04 403.64 363.04 403.67 363.02 403.68 362.98 403.69 362.95 403.7 362.9 403.71 362.88 403.74 362.82 403.76 362.76 403.78 362.7 403.82 362.66 403.82 362.58 403.83 362.53 403.86 362.5 403.87 362.49 403.94 362.48 404.02 362.47 Z"/>
</g></svg>