<svg xmlns="http://www.w3.org/2000/svg" version="1.2" baseProfile="tiny" stroke-linecap="round" stroke-linejoin="round" viewBox="332.47 368.85 17.28 18.65"><g xmlns="http://www.w3.org/2000/svg" id="Desojo">
<path d="M 335.48 370.26 335.45 370.14 335.44 370.09 335.41 369.98 335.4 369.96 335.4 369.95 335.39 369.9 335.34 369.71 335.32 369.66 335.31 369.63 335.31 369.62 335.28 369.54 335.26 369.49 335.26 369.47 335.24 369.4 335.22 369.32 335.22 369.2 335.22 369.19 335.23 369.16 335.24 369.09 335.24 369.07 335.25 369.04 335.25 369.01 335.27 368.95 335.29 368.86 335.33 368.86 335.44 368.86 335.54 368.85 335.59 368.85 335.68 368.85 335.74 368.85 335.78 368.85 335.86 368.85 335.91 368.85 336.03 368.85 336.06 368.85 336.13 368.85 336.31 368.85 336.32 368.85 336.41 368.86 336.51 368.86 336.56 368.87 336.63 368.88 336.71 368.91 336.76 368.93 336.78 368.94 336.83 368.96 336.89 368.99 336.98 369.03 336.99 369.04 337.06 369.06 337.07 369.04 337.17 369.06 337.26 369.07 337.33 369.07 337.38 369.08 337.43 369.08 337.5 369.08 337.56 369.09 337.58 369.11 337.67 369.14 337.75 369.17 337.83 369.22 337.92 369.26 337.93 369.27 338 369.3 338.05 369.32 338.02 369.37 338 369.39 337.96 369.43 337.93 369.47 337.88 369.53 337.85 369.59 337.83 369.62 337.8 369.68 337.79 369.72 337.78 369.81 337.77 369.85 337.76 369.9 337.76 369.91 337.75 369.94 337.75 370 337.75 370.06 337.75 370.08 337.75 370.14 337.76 370.19 337.77 370.21 337.79 370.27 337.81 370.34 337.82 370.38 337.86 370.5 337.98 370.53 338.04 370.5 338.08 370.49 338.14 370.48 338.21 370.48 338.22 370.48 338.28 370.49 338.34 370.5 338.38 370.52 338.4 370.53 338.46 370.57 338.52 370.61 338.58 370.65 338.61 370.67 338.69 370.72 338.76 370.77 338.84 370.83 338.84 370.87 338.85 370.9 338.85 370.91 338.86 370.92 338.88 370.95 338.91 370.98 338.95 371.02 338.99 371.04 339 371.05 338.99 371.06 338.98 371.11 338.97 371.16 338.97 371.25 338.96 371.28 338.96 371.32 338.96 371.33 338.96 371.34 338.95 371.38 338.95 371.39 338.95 371.41 338.94 371.46 338.94 371.49 338.94 371.58 338.94 371.7 338.93 371.77 338.93 371.78 338.94 371.82 338.94 371.85 338.94 371.87 338.95 371.93 338.95 371.95 338.95 371.98 338.96 372.07 338.97 372.16 338.97 372.22 338.98 372.33 338.99 372.43 339 372.45 339 372.48 339.08 372.56 339.12 372.61 339.19 372.68 339.22 372.71 339.26 372.76 339.28 372.77 339.34 372.84 339.39 372.91 339.44 372.93 339.49 372.97 339.57 373.03 339.62 373.07 339.68 373.12 339.77 373.19 339.82 373.23 339.83 373.24 339.84 373.24 339.89 373.28 339.9 373.29 339.91 373.3 339.93 373.32 339.95 373.33 339.97 373.35 340.03 373.4 340.06 373.42 340.08 373.44 340.09 373.45 340.13 373.48 340.19 373.51 340.22 373.54 340.23 373.54 340.31 373.57 340.37 373.59 340.38 373.59 340.47 373.57 340.48 373.57 340.63 373.54 340.65 373.53 340.66 373.53 340.7 373.52 340.77 373.5 340.82 373.49 340.83 373.49 340.84 373.48 340.94 373.45 341.1 373.42 341.14 373.4 341.21 373.39 341.31 373.36 341.37 373.34 341.38 373.28 341.4 373.17 341.43 373.18 341.45 373.11 341.46 373.05 341.48 373.03 341.48 373.01 341.5 372.99 341.51 372.94 341.52 372.88 341.52 372.86 341.53 372.83 341.53 372.82 341.54 372.79 341.55 372.75 341.55 372.73 341.56 372.72 341.57 372.66 341.58 372.61 341.61 372.56 341.63 372.49 341.65 372.45 341.69 372.38 341.7 372.35 341.73 372.27 341.77 372.22 341.79 372.19 341.8 372.17 341.82 372.16 341.85 372.15 341.87 372.15 341.89 372.15 341.92 372.15 341.95 372.15 341.99 372.17 342.04 372.19 342.08 372.2 342.09 372.21 342.12 372.22 342.15 372.24 342.2 372.26 342.23 372.28 342.25 372.29 342.27 372.33 342.3 372.38 342.32 372.42 342.34 372.44 342.35 372.45 342.39 372.48 342.41 372.51 342.44 372.53 342.45 372.55 342.47 372.59 342.5 372.64 342.5 372.65 342.52 372.69 342.54 372.72 342.55 372.74 342.58 372.79 342.59 372.81 342.59 372.82 342.62 372.88 342.64 372.93 342.67 372.98 342.69 373.05 342.7 373.07 342.72 373.11 342.72 373.13 342.74 373.18 342.75 373.19 342.76 373.25 342.74 373.24 342.66 373.24 342.67 373.31 342.66 373.38 342.66 373.42 342.66 373.45 342.65 373.49 342.65 373.53 342.65 373.62 342.65 373.64 342.64 373.69 342.76 373.71 342.79 373.72 342.92 373.74 342.93 373.75 342.95 373.75 343 373.75 343.02 373.75 343.1 373.76 343.22 373.77 343.24 373.77 343.25 373.81 343.27 373.9 343.27 373.95 343.29 373.98 343.3 373.99 343.34 374.07 343.35 374.08 343.37 374.11 343.45 374.26 343.46 374.29 343.51 374.37 343.52 374.39 343.53 374.41 343.58 374.5 343.61 374.54 343.62 374.56 343.63 374.58 343.65 374.62 343.69 374.7 343.69 374.7 343.7 374.71 343.74 374.79 343.76 374.82 343.77 374.84 343.77 374.85 343.78 374.86 343.81 374.92 343.82 374.94 343.83 374.94 343.87 375.01 343.88 375.04 343.89 375.06 343.91 375.09 343.92 375.1 343.95 375.17 343.96 375.29 344.03 375.4 344.1 375.5 344.11 375.52 344.11 375.52 344.12 375.53 344.16 375.6 344.17 375.62 344.18 375.63 344.2 375.66 344.26 375.77 344.29 375.8 344.3 375.82 344.32 375.81 344.37 375.79 344.45 375.76 344.47 375.75 344.5 375.74 344.57 375.71 344.59 375.69 344.65 375.59 344.85 375.57 344.91 375.56 344.97 375.58 345.05 375.6 345.14 375.62 345.19 375.64 345.18 375.68 345.15 375.78 345.12 375.86 345.11 375.88 345.1 375.9 345.1 375.91 345.14 375.93 345.26 375.99 345.39 376.04 345.48 376.08 345.5 376.09 345.51 376.1 345.56 376.13 345.61 376.16 345.64 376.19 345.71 376.23 345.76 376.27 345.78 376.28 345.81 376.31 345.85 376.37 345.89 376.43 345.92 376.46 345.94 376.49 345.95 376.5 345.95 376.51 345.96 376.52 345.97 376.53 345.98 376.54 346.03 376.61 346.07 376.67 346.1 376.71 346.12 376.72 346.15 376.77 346.19 376.83 346.28 376.94 346.35 377.03 346.41 377.11 346.41 377.12 346.4 377.14 346.39 377.2 346.38 377.28 346.36 377.36 346.36 377.39 346.36 377.41 346.36 377.43 346.35 377.47 346.34 377.53 346.34 377.55 346.34 377.56 346.33 377.57 346.33 377.58 346.32 377.62 346.32 377.63 346.32 377.66 346.31 377.68 346.31 377.76 346.3 377.82 346.3 377.87 346.3 377.9 346.29 377.92 346.28 377.96 346.27 377.97 346.26 378.02 346.24 378.09 346.21 378.15 346.2 378.2 346.19 378.24 346.18 378.26 346.19 378.28 346.2 378.29 346.22 378.31 346.23 378.32 346.25 378.35 346.27 378.37 346.28 378.38 346.34 378.46 346.36 378.49 346.37 378.49 346.38 378.5 346.42 378.56 346.46 378.61 346.51 378.67 346.53 378.72 346.54 378.73 346.6 378.84 346.64 378.91 346.64 378.92 346.65 378.94 346.66 378.94 346.68 378.98 346.71 379.03 346.73 379.08 346.76 379.13 346.79 379.18 346.81 379.22 346.82 379.24 346.83 379.26 346.84 379.27 346.88 379.34 346.9 379.37 346.92 379.41 346.94 379.44 346.97 379.5 346.98 379.5 347.01 379.52 347.02 379.53 347.03 379.54 347.08 379.57 347.14 379.62 347.18 379.64 347.2 379.66 347.26 379.69 347.31 379.73 347.37 379.77 347.44 379.83 347.45 379.84 347.47 379.85 347.53 379.9 347.6 379.94 347.62 379.97 347.63 379.97 347.65 379.98 347.66 379.99 347.72 380.03 347.81 380.1 347.87 380.15 347.92 380.2 347.97 380.24 347.98 380.25 348.01 380.28 348.07 380.33 348.11 380.37 348.13 380.38 348.12 380.41 348.12 380.43 348.11 380.45 348.09 380.51 348.08 380.54 348.08 380.56 348.07 380.57 348.07 380.59 348.06 380.61 348.04 380.65 348.02 380.7 348.01 380.72 348 380.76 347.99 380.79 347.97 380.83 347.94 380.89 347.92 380.93 347.9 380.95 347.89 380.96 347.87 380.99 347.85 381.05 347.82 381.09 347.81 381.11 347.74 381.2 347.76 381.24 347.76 381.28 347.77 381.31 347.8 381.4 347.82 381.45 347.83 381.47 347.85 381.54 347.87 381.57 347.87 381.58 347.93 381.77 347.98 381.9 348.01 381.96 348.01 382 348.02 382.04 348.05 382.07 348.05 382.11 348.06 382.14 348.08 382.21 348.09 382.23 348.11 382.29 348.12 382.33 348.15 382.37 348.16 382.41 348.23 382.5 348.25 382.53 348.26 382.59 348.26 382.6 348.26 382.61 348.27 382.63 348.32 382.85 348.32 382.86 348.33 382.93 348.35 383.05 348.36 383.16 348.36 383.17 348.37 383.25 348.38 383.26 348.38 383.32 348.38 383.33 348.39 383.41 348.39 383.43 348.4 383.46 348.4 383.48 348.4 383.49 348.41 383.63 348.42 383.73 348.43 383.84 348.44 383.85 348.46 384.03 348.48 384.12 348.5 384.21 348.54 384.36 348.6 384.57 348.62 384.68 348.63 384.7 348.67 384.88 348.68 384.9 348.68 384.91 348.69 384.96 348.76 385.17 348.77 385.23 348.79 385.31 348.8 385.34 348.81 385.39 348.82 385.42 348.84 385.52 348.93 385.75 348.94 385.8 348.97 385.87 348.98 385.89 348.99 385.92 349.03 385.99 349.05 386.04 349.08 386.11 349.11 386.16 349.13 386.21 349.21 386.3 349.29 386.37 349.31 386.4 349.41 386.49 349.44 386.51 349.48 386.55 349.49 386.61 349.53 386.69 349.58 386.79 349.61 386.87 349.62 386.9 349.64 386.95 349.65 386.99 349.65 387 349.71 387.24 349.71 387.27 349.71 387.29 349.72 387.36 349.73 387.37 349.74 387.47 349.7 387.46 349.66 387.44 349.62 387.42 349.51 387.38 349.45 387.36 349.36 387.32 349.26 387.28 349.25 387.28 349.21 387.25 349.16 387.24 349.12 387.22 349.07 387.2 348.99 387.18 348.94 387.17 348.86 387.14 348.83 387.13 348.72 387.1 348.65 387.08 348.56 387.05 348.47 387.03 348.41 387.02 348.35 387 348.28 386.99 348.25 386.99 348.19 386.98 348.13 386.97 348.12 386.96 348.1 386.96 348.05 386.94 347.99 386.93 347.96 386.92 347.93 386.92 347.85 386.9 347.79 386.88 347.73 386.86 347.67 386.85 347.63 386.84 347.59 386.83 347.53 386.82 347.45 386.8 347.44 386.8 347.41 386.79 347.33 386.77 347.29 386.75 347.22 386.74 347.21 386.74 347.13 386.71 347.12 386.71 347.05 386.68 347 386.65 346.93 386.63 346.9 386.62 346.82 386.6 346.76 386.58 346.72 386.57 346.66 386.55 346.59 386.54 346.48 386.5 346.44 386.48 346.39 386.46 346.37 386.45 346.3 386.43 346.23 386.41 346.18 386.39 346.16 386.39 346.13 386.39 346.1 386.4 346.09 386.4 346.04 386.4 345.97 386.41 345.96 386.41 345.92 386.42 345.85 386.42 345.8 386.43 345.72 386.44 345.68 386.44 345.67 386.44 345.6 386.44 345.56 386.44 345.56 386.44 345.52 386.45 345.36 386.45 345.33 386.45 345.31 386.45 345.26 386.45 345.14 386.46 345.12 386.46 345.02 386.47 344.92 386.48 344.79 386.49 344.66 386.5 344.54 386.51 344.44 386.51 344.4 386.52 344.31 386.52 344.29 386.53 344.23 386.54 344.22 386.54 344.18 386.54 344.15 386.55 344.13 386.55 344.08 386.55 344.04 386.56 343.95 386.57 343.86 386.58 343.84 386.58 343.8 386.58 343.71 386.59 343.65 386.6 343.63 386.6 343.58 386.61 343.53 386.62 343.5 386.62 343.45 386.61 343.44 386.61 343.42 386.61 343.3 386.61 343.22 386.61 343.15 386.61 343.11 386.61 343.09 386.61 343.06 386.61 342.98 386.61 342.91 386.61 342.89 386.61 342.83 386.61 342.71 386.61 342.68 386.61 342.62 386.62 342.57 386.62 342.52 386.64 342.48 386.64 342.47 386.64 342.42 386.65 342.33 386.66 342.24 386.68 342.23 386.68 342.21 386.68 342.19 386.68 342.13 386.69 342.12 386.69 342.1 386.7 342.01 386.71 342 386.71 341.99 386.72 341.86 386.74 341.79 386.75 341.7 386.77 341.63 386.78 341.6 386.78 341.57 386.79 341.55 386.79 341.53 386.8 341.52 386.8 341.47 386.81 341.45 386.81 341.43 386.81 341.42 386.8 341.36 386.79 341.33 386.79 341.26 386.78 341.15 386.78 341.14 386.78 341.12 386.77 341.1 386.77 341.09 386.77 341.08 386.76 341.05 386.76 340.98 386.74 340.89 386.73 340.82 386.71 340.79 386.71 340.76 386.7 340.69 386.69 340.68 386.68 340.66 386.68 340.63 386.67 340.59 386.65 340.51 386.62 340.45 386.6 340.42 386.59 340.37 386.56 340.31 386.54 340.28 386.53 340.22 386.51 340.2 386.51 340.16 386.49 340.1 386.48 340.05 386.46 340 386.46 339.91 386.45 339.84 386.45 339.79 386.44 339.78 386.44 339.75 386.44 339.69 386.43 339.64 386.44 339.62 386.44 339.6 386.44 339.57 386.44 339.49 386.44 339.44 386.44 339.38 386.44 339.32 386.44 339.26 386.4 339.2 386.35 339.14 386.31 339.1 386.28 339.04 386.25 339.01 386.2 338.97 386.16 338.93 386.1 338.9 386.07 338.89 386.06 338.87 386.03 338.85 386.01 338.84 385.99 338.83 385.96 338.78 385.9 338.74 385.85 338.74 385.84 338.69 385.78 338.68 385.77 338.65 385.74 338.6 385.69 338.55 385.63 338.53 385.6 338.5 385.58 338.45 385.53 338.41 385.49 338.39 385.47 338.36 385.44 338.36 385.43 338.31 385.39 338.28 385.36 338.25 385.33 338.2 385.27 338.13 385.18 338.07 385.1 338.03 385.04 337.99 385 337.98 384.98 337.94 384.93 337.9 384.87 337.88 384.82 337.85 384.76 337.84 384.74 337.79 384.64 337.78 384.59 337.77 384.58 337.75 384.52 337.73 384.47 337.73 384.46 337.73 384.43 337.7 384.41 337.64 384.37 337.57 384.33 337.52 384.3 337.51 384.29 337.47 384.27 337.46 384.26 337.39 384.22 337.31 384.15 337.23 384.09 337.15 384.04 337.11 384.01 337.02 383.97 336.98 383.94 336.97 383.93 336.97 383.92 336.9 383.88 336.83 383.84 336.76 383.8 336.7 383.76 336.62 383.72 336.53 383.67 336.39 383.6 336.35 383.58 336.31 383.56 336.25 383.53 336.24 383.52 336.23 383.52 336.21 383.51 336.17 383.5 336.14 383.49 336.14 383.49 336.1 383.48 336.09 383.47 336.05 383.45 335.99 383.41 335.91 383.37 335.87 383.35 335.84 383.33 335.79 383.31 335.74 383.29 335.72 383.27 335.66 383.24 335.6 383.22 335.55 383.19 335.54 383.19 335.51 383.17 335.48 383.16 335.42 383.14 335.38 383.13 335.35 383.12 335.33 383.12 335.32 383.12 335.3 383.11 335.24 383.1 335.19 383.1 335.18 383.1 335.17 383.09 335.12 383.09 335.07 383.07 335.05 383.07 335.01 383.06 334.94 383.05 334.91 383.04 334.9 383.04 334.86 383.03 334.83 383.01 334.8 382.99 334.79 382.99 334.76 382.97 334.72 382.96 334.67 382.95 334.64 382.95 334.61 382.94 334.56 382.93 334.53 382.93 334.52 382.92 334.51 382.92 334.5 382.91 334.49 382.9 334.41 382.85 334.36 382.83 334.34 382.82 334.29 382.79 334.28 382.78 334.21 382.75 334.16 382.73 334.1 382.71 334.03 382.7 333.98 382.69 333.96 382.69 333.89 382.69 333.85 382.69 333.8 382.69 333.75 382.69 333.72 382.69 333.65 382.69 333.55 382.68 333.54 382.68 333.52 382.68 333.47 382.68 333.33 382.69 333.3 382.69 333.23 382.7 333.14 382.71 333.13 382.71 333.09 382.72 333.06 382.73 333 382.73 332.94 382.75 332.88 382.77 332.83 382.79 332.79 382.8 332.76 382.81 332.73 382.83 332.67 382.86 332.62 382.89 332.6 382.9 332.53 382.94 332.52 382.9 332.51 382.8 332.5 382.72 332.5 382.63 332.49 382.57 332.49 382.55 332.48 382.5 332.48 382.49 332.48 382.46 332.48 382.38 332.48 382.3 332.49 382.25 332.55 382.14 332.55 382.13 332.59 382.04 332.61 381.98 332.62 381.95 332.62 381.93 332.63 381.9 332.64 381.88 332.68 381.79 332.69 381.73 332.69 381.72 332.69 381.63 332.68 381.44 332.67 381.17 332.66 381.12 332.7 381.04 332.74 380.95 332.78 380.88 332.82 380.8 332.87 380.7 332.89 380.65 332.91 380.61 332.94 380.54 333 380.43 333.09 380.23 333.09 380.18 333.1 380.13 333.1 380.04 333.1 379.98 333.11 379.91 333.11 379.9 333.11 379.68 333.12 379.67 333.14 379.61 333.15 379.59 333.23 379.45 333.27 379.39 333.29 379.36 333.33 379.28 333.36 379.23 333.37 379.21 333.38 379.18 333.4 378.97 333.4 378.94 333.41 378.84 333.41 378.81 333.42 378.78 333.42 378.7 333.43 378.6 333.43 378.57 333.42 378.45 333.42 378.35 333.43 378.18 333.45 377.97 333.45 377.96 333.45 377.93 333.43 377.76 333.43 377.69 333.43 377.66 333.43 377.65 333.44 377.6 333.44 377.59 333.44 377.48 333.44 377.41 333.47 377.33 333.5 377.25 333.51 377.22 333.55 377.13 333.58 377.04 333.65 376.89 333.68 376.8 333.76 376.61 333.78 376.54 333.8 376.49 333.88 376.29 333.89 376.28 333.9 376.25 334.07 376.37 334.23 376.46 334.25 376.46 334.27 376.47 334.29 376.47 334.33 376.47 334.42 376.49 334.53 376.51 334.55 376.51 334.66 376.54 334.8 376.59 334.94 376.63 334.97 376.65 334.98 376.65 335.05 376.68 335.15 376.73 335.16 376.72 335.16 376.63 335.18 376.56 335.18 376.48 335.18 376.4 335.17 376.27 335.14 376.13 335.1 375.94 335.1 375.93 335.07 375.83 335.04 375.72 335.04 375.71 335.04 375.7 335.03 375.67 335.03 375.62 335.03 375.54 335.04 375.49 335.05 375.46 335.05 375.45 335.06 375.43 335.1 375.38 335.16 375.29 335.22 375.2 335.23 375.15 335.23 375.04 335.22 374.9 335.22 374.89 335.22 374.85 335.22 374.84 335.2 374.76 335.19 374.6 335.19 374.6 335.18 374.52 335.18 374.51 335.17 374.49 335.17 374.35 335.17 374.34 335.17 374.32 335.17 374.28 335.17 374.28 335.17 374.15 335.17 374.1 335.17 374.08 335.18 373.91 335.18 373.91 335.18 373.89 335.18 373.81 335.24 373.68 335.25 373.66 335.28 373.57 335.28 373.52 335.29 373.48 335.29 373.46 335.29 373.27 335.3 373.14 335.31 373.1 335.32 373.08 335.37 372.89 335.39 372.85 335.4 372.79 335.48 372.51 335.49 372.48 335.53 372.34 335.55 372.26 335.56 372.24 335.58 372.22 335.62 372.19 335.89 371.99 335.89 371.96 335.94 371.81 335.96 371.76 335.98 371.68 336.05 371.42 336.05 371.41 336.06 371.34 336.06 371.29 336.06 371.25 336.06 371.24 336.05 371.21 336.03 371.06 336.03 371.04 336.02 370.95 336.01 370.87 336 370.8 335.95 370.72 335.92 370.68 335.9 370.66 335.87 370.63 335.8 370.54 335.79 370.53 335.72 370.46 335.68 370.42 335.66 370.39 335.64 370.38 335.58 370.33 335.48 370.26 Z"/>
</g></svg>