<svg xmlns="http://www.w3.org/2000/svg" version="1.2" baseProfile="tiny" stroke-linecap="round" stroke-linejoin="round" viewBox="192.5 147.37 33.28 59.08"><g xmlns="http://www.w3.org/2000/svg" id="Dima">
<path d="M 204.46 148.54 205.19 149.05 205.66 149.38 206.14 149.78 206.43 149.92 207.23 150.48 207.16 150.82 207.53 150.66 207.69 150.67 207.78 150.76 207.8 150.87 208.16 151.55 208.19 151.72 208.19 151.75 208.21 151.79 208.25 151.85 208.29 151.89 208.32 151.93 208.36 151.97 208.44 152.02 209.02 152.22 209.49 152.45 209.7 152.4 209.86 152.42 210.22 152.4 210.7 152.52 210.87 152.66 210.9 152.71 210.94 152.77 211.01 152.94 211.52 153.39 211.77 153.68 212.06 154.07 212.72 155.04 212.98 155.16 213.08 155.32 213.15 155.44 213.25 155.59 213.36 155.74 213.52 155.93 214.09 156.49 214.59 157.05 214.83 157.4 214.99 157.58 215.28 157.85 215.56 158.14 215.73 158.22 215.82 158.28 216.01 158.54 216.08 158.86 216.1 158.94 216.16 159.14 216.17 159.2 216.26 159.42 216.37 159.73 216.39 159.78 216.46 160.09 216.52 160.4 216.6 160.77 216.64 160.92 216.78 161.42 217 161.67 216.91 161.84 216.63 162.34 216.72 162.54 216.81 162.61 216.82 162.67 216.83 162.76 216.85 162.9 216.86 162.99 216.84 163.21 216.83 163.41 216.8 163.71 216.76 164.05 216.7 164.7 216.63 165.35 216.59 165.61 216.59 165.69 216.6 165.79 216.65 165.97 216.69 166.13 216.7 166.22 216.71 166.36 216.71 166.52 216.73 166.66 216.75 166.85 216.77 167.02 216.84 167.26 216.93 167.46 217.02 167.66 217.08 167.78 217.15 167.9 217.21 168 217.27 168.05 217.38 168.17 217.46 168.28 217.54 168.39 217.64 168.45 217.73 168.53 217.87 168.65 218.04 168.79 218.26 168.96 218.39 169.05 218.46 169.1 218.52 169.15 218.6 169.23 218.65 169.27 218.66 169.28 218.78 169.37 218.85 169.41 219.03 169.49 219.05 169.51 219.25 169.61 219.47 169.72 219.64 169.79 219.74 169.84 219.84 169.9 219.91 169.95 219.99 170.01 220 170.18 220 170.2 220 170.4 220 170.41 220 170.58 220 170.6 220.01 170.72 220.05 170.85 220.13 170.86 220.16 170.99 220.21 171.13 220.24 171.23 220.26 171.37 220.23 171.52 220.26 171.63 220.28 171.74 220.35 171.84 220.44 171.98 220.55 172.17 220.65 172.37 220.73 172.59 220.83 172.84 220.76 173.1 220.64 173.42 220.56 173.71 220.45 173.96 220.36 174.18 220.25 174.45 220.13 174.74 220 175.1 219.91 175.38 219.87 175.53 219.85 175.85 219.81 176.18 219.97 176.61 220.1 176.95 220.19 177.18 220.31 177.53 220.45 177.97 220.53 178.26 220.53 178.27 220.61 178.55 220.7 178.77 220.73 178.84 220.78 179.07 221.07 179.69 222.39 180.64 223.11 182.33 223.4 182.88 223.51 183.5 223.68 184.11 223.69 184.15 223.72 184.55 223.63 185.64 223.7 186.3 223.45 186.71 223.53 186.95 223.61 187.15 223.64 187.25 223.71 187.37 223.77 187.51 223.82 187.65 223.85 187.77 223.9 187.89 223.96 188.02 224.02 188.14 224.09 188.27 224.21 188.52 224.28 188.67 224.38 188.83 224.44 188.95 224.52 189.11 224.62 189.24 224.71 189.36 224.78 189.49 224.86 189.61 224.92 189.7 224.98 189.81 225.05 189.9 225.1 190 225.14 190.09 225.18 190.21 225.19 190.3 225.22 190.37 225.25 190.5 225.27 190.62 225.32 190.73 225.37 190.84 225.41 190.99 225.44 191.11 225.48 191.24 225.53 191.37 225.58 191.48 225.63 191.62 225.68 191.72 225.7 191.83 225.72 191.95 225.73 192.04 225.76 192.15 225.77 192.22 225.77 192.3 225.78 192.33 225.76 192.38 225.72 192.47 225.69 192.51 225.66 192.58 225.24 192.79 225.09 192.86 224.88 192.96 224.67 193.07 224.56 193.11 224.45 193.17 224.38 193.21 224.26 193.3 224.15 193.39 224.03 193.47 223.91 193.55 223.79 193.62 223.79 194.12 223.76 195.08 223.76 195.23 223.64 198.96 221.94 200.89 221.77 201.03 221.75 201.04 221.57 201.05 221.54 201.09 221.53 201.1 221.53 201.12 221.59 201.22 221.61 201.23 221.65 201.23 221.68 201.19 221.72 201.19 221.73 201.19 221.74 201.17 221.75 201.16 221.76 201.13 221.76 201.12 221.77 201.11 221.79 201.12 221.8 201.12 221.81 201.13 221.81 201.14 221.82 201.16 221.79 201.27 221.79 201.28 221.8 201.28 221.81 201.28 221.82 201.28 221.83 201.27 221.85 201.26 221.86 201.26 221.86 201.25 221.88 201.26 221.95 201.32 221.94 201.35 221.93 201.36 221.92 201.37 221.92 201.38 221.88 201.39 221.85 201.4 221.83 201.41 221.81 201.42 221.81 201.43 221.77 201.53 221.77 201.54 221.77 201.56 221.77 201.57 221.81 201.58 221.83 201.58 221.84 201.59 221.86 201.59 221.89 201.6 222.08 201.71 222.08 201.72 222.09 201.74 222.11 201.75 222.13 201.76 222.3 201.85 222.31 201.85 222.32 201.87 222.33 201.89 222.36 201.92 222.37 201.92 222.39 201.92 222.42 201.93 222.66 202.01 222.7 202.03 222.84 202.14 222.86 202.15 222.88 202.18 222.88 202.2 222.88 202.22 222.87 202.24 222.86 202.26 222.81 202.3 222.79 202.33 222.78 202.35 222.76 202.37 222.74 202.39 222.74 202.41 222.73 202.43 222.75 202.46 222.76 202.47 222.81 202.5 222.83 202.51 222.84 202.52 222.86 202.55 222.86 202.56 222.85 202.57 222.75 202.62 222.73 202.64 222.73 202.65 222.72 202.66 222.74 202.71 222.81 202.84 222.8 202.85 222.78 202.86 222.76 202.87 222.75 202.88 222.64 202.89 222.62 202.89 222.61 202.9 222.6 202.9 222.63 202.94 222.63 202.96 222.63 202.97 222.59 202.98 222.58 202.98 222.57 202.97 222.56 202.97 222.54 202.97 222.53 202.96 222.52 202.97 222.52 202.99 222.52 203.03 222.56 203.07 222.58 203.08 222.6 203.1 222.62 203.11 222.65 203.15 222.66 203.15 222.67 203.18 222.69 203.2 222.7 203.24 222.75 203.29 222.77 203.33 222.77 203.34 222.76 203.38 222.76 203.41 222.77 203.43 222.8 203.44 222.83 203.46 222.84 203.47 222.84 203.49 222.79 203.54 222.77 203.58 222.77 203.61 222.79 203.64 222.82 203.67 222.85 203.68 222.91 203.68 222.94 203.68 222.98 203.68 222.97 203.73 222.96 203.78 222.94 203.8 222.91 203.83 222.88 203.84 222.84 203.86 222.8 203.86 222.76 203.86 222.72 203.85 222.69 203.85 222.61 203.83 222.58 203.83 222.57 203.83 222.55 203.83 222.53 203.83 222.52 203.85 222.5 203.87 222.49 203.89 222.5 203.91 222.5 203.96 222.51 203.98 222.52 203.99 222.54 204 222.55 204.01 222.57 204.02 222.6 204.03 222.63 204.05 222.65 204.05 222.67 204.07 222.68 204.08 222.69 204.12 222.69 204.17 222.68 204.22 222.68 204.25 222.68 204.29 222.67 204.31 222.66 204.33 222.64 204.36 222.62 204.37 222.58 204.41 222.53 204.45 222.49 204.47 222.46 204.49 222.43 204.51 222.39 204.53 222.35 204.55 222.33 204.56 222.32 204.57 222.31 204.58 222.31 204.61 222.31 204.64 222.3 204.68 222.3 204.7 222.29 204.73 222.27 204.85 222.27 204.88 222.27 204.91 222.29 204.94 222.31 204.98 222.33 205.02 222.34 205.04 222.35 205.06 222.35 205.08 222.33 205.11 222.32 205.13 222.3 205.16 222.29 205.18 222.28 205.2 222.28 205.22 222.29 205.24 222.3 205.28 222.31 205.31 222.32 205.33 222.32 205.37 222.32 205.39 222.31 205.42 222.3 205.45 222.3 205.48 222.3 205.53 222.3 205.57 222.31 205.61 222.3 205.63 220.7 206.43 220.61 205.89 220.56 205.73 220.55 205.7 220.53 205.67 220.5 205.64 220.39 205.57 220.35 205.53 220.14 205.14 220.09 205.12 220 205.07 219.97 205.05 219.94 205.03 219.91 204.99 219.89 204.97 219.87 204.93 219.84 204.88 219.81 204.83 219.76 204.71 219.74 204.67 219.73 204.63 219.72 204.52 219.71 204.49 219.72 204.42 219.77 204.27 219.76 204.21 219.75 204.17 219.73 204.12 219.72 204.08 219.7 204.02 219.65 203.91 219.62 203.86 219.59 203.81 219.55 203.76 219.53 203.73 219.5 203.69 219.49 203.66 219.48 203.63 219.48 203.6 219.49 203.57 219.5 203.54 219.51 203.5 219.52 203.47 219.53 203.43 219.53 203.39 219.54 203.34 219.54 203.26 219.54 203.22 219.52 203.12 219.39 202.88 219.34 202.77 219.31 202.72 219.03 201.77 218.72 201.31 218.47 200.91 218.63 200.63 218.52 200.3 218.71 200.06 218.92 199.84 218.98 199.62 218.71 199.26 217.47 197.69 216.76 196.28 216.76 196.06 216.44 195.1 216.43 195.1 215.98 193.98 215.63 193.79 215.14 193.21 214.83 193.04 214.68 192.66 214.81 191.92 214.75 191.41 214.81 190.89 215 190.62 215.17 190.26 214.76 189.62 214.36 189.02 214.28 188.89 214.18 188.57 214.39 187.9 214.39 187.85 214.37 187.78 214.3 187.57 214.32 187.4 214.51 186.99 214.61 186.83 214.59 186.82 214.56 186.77 214.51 186.72 214.39 186.56 214.31 186.5 214.21 186.48 214.08 186.45 213.93 186.41 213.81 186.35 213.7 186.28 213.56 186.18 213.43 186.1 213.3 186.01 213.19 185.94 213.07 185.86 212.96 185.8 212.79 185.71 212.65 185.63 212.5 185.57 212.38 185.57 212.23 185.57 212.02 185.56 211.9 185.54 211.83 185.48 211.73 185.33 211.63 185.22 211.52 185.06 211.47 184.97 211.41 184.9 211.36 184.83 211.31 184.77 211.26 184.7 211.22 184.63 211.18 184.57 211.12 184.38 211.08 184.12 211.05 184.03 211.03 183.92 211.01 183.81 211 183.73 210.99 183.63 210.97 183.61 210.88 183.54 210.79 183.5 210.72 183.45 210.64 183.38 210.55 183.32 210.46 183.26 210.38 183.2 210.35 183.2 210.29 183.13 210.25 183.05 210.24 183.03 210.1 182.85 209.99 182.7 209.89 182.57 209.81 182.45 209.78 182.35 209.75 182.2 209.71 182.07 209.68 181.94 209.64 181.76 209.62 181.6 209.63 181.55 209.54 181.47 209.45 181.4 209.32 181.3 209.18 181.19 209.1 181.12 208.97 181.05 208.87 181 208.77 180.95 208.65 180.89 208.58 180.82 208.47 180.69 208.36 180.57 208.27 180.46 208.21 180.35 208.16 180.25 208.1 180.16 208.05 180.09 207.98 179.98 207.92 179.9 207.78 179.68 207.5 179.58 207.44 179.61 207.41 179.52 207.39 179.44 207.34 179.32 207.31 179.3 207.28 179.28 207.25 179.25 207.25 179.23 207.21 179.21 207.16 179.18 207.14 179.15 207.11 179.12 207.09 179.07 207.04 178.98 207 178.89 206.73 178.17 206.72 178.15 206.71 178.12 206.68 178.06 206.64 177.99 206.6 177.88 206.44 177.79 206.27 177.71 206.14 177.63 206.04 177.57 205.87 177.43 205.69 177.28 205.58 177.19 205.44 177.06 205.28 176.83 205.26 176.72 205.24 176.53 205.24 176.34 205.19 176.27 205.13 176.18 204.99 176.11 204.9 176 204.84 175.87 204.8 175.79 204.71 175.72 204.51 175.65 204.31 175.58 204.08 175.53 203.95 175.52 203.88 175.55 203.71 175.65 203.44 175.39 203.18 175.13 202.98 175.01 202.96 174.99 202.84 174.89 202.79 174.85 202.67 174.76 202.4 174.51 202.28 174.41 202.17 174.27 202.04 174.11 201.93 173.9 201.82 173.69 201.73 173.47 201.65 173.25 201.5 173.04 201.35 172.83 201.3 172.59 201.28 172.45 201.19 172.35 201.12 172.23 201.04 172.11 200.94 172.06 200.82 172.02 200.66 172.04 200.47 171.87 200.31 171.72 200.16 171.58 200.02 171.45 199.94 171.35 199.85 171.23 199.77 171.27 199.57 171.32 199.45 171.38 199.19 171.58 198.32 172.21 198.08 172.39 198.06 172.39 197.98 172.41 197.91 172.41 197.82 172.43 197.78 172.49 197.78 172.53 197.81 172.58 197.83 172.6 197.86 172.66 197.88 172.7 197.92 172.73 197.94 172.75 197.94 172.79 197.95 172.81 197.77 172.98 197.71 173.03 197.51 173.05 197.34 173.05 197.25 172.7 197.3 172.38 197.12 171.36 196.66 171.2 195.94 170.91 195.79 170.8 195.55 170.68 195.48 170.63 195.4 170.56 195.29 170.48 195.23 170.4 195.18 170.31 195.13 170.22 195.07 170.1 194.98 169.92 194.89 169.72 194.82 169.41 194.8 169.41 194.49 169.44 194.5 169.42 194.56 169.3 194.62 169.19 194.66 169.08 194.69 168.99 194.7 168.93 194.72 168.82 194.72 168.71 194.73 168.59 194.74 168.49 194.75 168.38 194.74 168.31 194.73 168.19 194.68 168.09 194.61 168 194.53 167.9 194.44 167.8 194.37 167.72 194.32 167.69 194.22 167.66 194.07 167.61 193.91 167.57 193.74 167.52 193.62 167.51 193.56 167.49 193.52 167.44 193.47 167.4 193.36 167.31 193.26 167.21 193.17 167.13 193.1 167.01 193.01 166.86 192.92 166.73 193.03 166.62 193.26 166.38 193.22 166.32 193.15 166.24 193.08 166.16 193.03 166.06 192.96 165.94 192.91 165.84 192.86 165.73 192.82 165.63 192.79 165.55 192.68 165.35 192.64 165.21 192.62 165.08 192.59 164.9 192.55 164.73 192.56 164.55 192.55 164.37 192.56 164.25 192.57 164.04 192.54 163.85 192.53 163.73 192.53 163.61 192.57 163.52 192.59 163.42 192.61 163.3 192.63 163.14 192.64 163.03 192.64 162.91 192.63 162.81 192.63 162.74 192.63 162.7 192.64 162.68 192.64 162.64 192.64 162.49 192.69 162.29 192.82 161.66 192.83 161.5 192.85 161.05 192.71 160.84 192.69 160.54 192.64 159.75 192.56 159.54 192.54 159.46 193.72 159.22 194.37 159 195.35 158.97 195.85 159.04 196.23 159.18 196.46 159.33 196.75 159.52 197.02 159.22 197.35 159.2 197.68 159.4 198.56 158.66 199.19 158.41 199.42 157.24 199.49 156.59 199.73 155.91 200.46 154.94 200.67 154.74 200.77 154.54 200.82 154.26 200.86 153.98 200.94 153.51 201.15 152.98 201.17 151.89 201.12 150.57 201.13 149.66 201.18 148.54 201.03 147.99 201.76 147.38 202.33 147.61 202.38 147.58 203.92 148.19 204.46 148.54 Z"/>
</g></svg>