<svg xmlns="http://www.w3.org/2000/svg" version="1.2" baseProfile="tiny" stroke-linecap="round" stroke-linejoin="round" viewBox="633.1 137.3 15.5 19.35"><g xmlns="http://www.w3.org/2000/svg" id="Donazaharre">
<path d="M 642.67 141.63 642.34 142 642.16 141.97 642.24 141.83 642.39 141.63 642.32 141.53 642.06 141.47 641.9 141.55 641.86 141.68 641.84 141.89 641.83 141.98 641.83 142.02 641.96 142.1 642.07 142.19 642.2 142.25 642.25 142.23 642.3 142.18 642.37 142.19 642.59 142.37 642.59 142.42 642.15 142.54 642.19 142.68 642.38 142.96 642.42 143.01 642.42 143.03 642.12 143.05 642 143.11 642.02 143.13 642.22 143.24 642.54 143.46 642.49 143.63 642.62 144.14 642.74 144.38 642.91 144.4 642.93 144.47 642.95 144.57 642.96 144.62 642.97 144.64 642.99 144.66 642.98 144.84 642.95 145.23 642.98 145.41 643.02 145.46 643.25 145.42 643.39 145.62 643.46 145.54 643.48 145.5 643.58 145.44 643.74 145.38 643.87 145.33 644.06 145.26 644.11 145.26 644.16 145.26 644.21 145.25 644.3 145.22 644.46 145.2 644.62 145.16 644.73 145.06 644.91 145.03 644.97 145.14 644.65 145.54 644.68 145.6 644.71 145.63 644.73 145.69 644.76 145.73 644.82 145.79 644.88 145.88 644.91 145.93 644.92 145.96 644.93 146 644.93 146.03 644.92 146.06 644.93 146.11 644.93 146.14 644.93 146.16 644.93 146.17 644.95 146.19 644.96 146.21 644.98 146.25 644.99 146.28 645.01 146.32 645.02 146.34 645.01 146.39 645 146.41 645 146.43 645.03 146.46 645.04 146.47 645.06 146.49 645.07 146.52 645.09 146.54 645.09 146.57 645.1 146.63 645.12 146.65 645.13 146.68 645.15 146.72 645.17 146.76 645.18 146.8 645.19 146.82 645.18 146.84 645.17 146.86 645.16 146.87 645.15 146.89 645.16 146.92 645.18 146.95 645.19 146.96 645.23 146.98 645.26 146.99 645.29 146.98 645.3 147.02 645.32 147.05 645.36 147.08 645.39 147.12 644.81 147.45 644.92 148.42 645.17 148.78 644.94 149.26 645.08 149.33 645.21 149.15 645.3 148.99 645.35 148.9 645.45 148.84 645.61 148.77 645.69 148.73 645.75 148.72 645.88 148.69 645.84 148.61 645.59 148.16 645.61 147.69 645.89 147.5 645.9 147.51 645.95 147.49 646.09 147.39 646.13 147.37 646.17 147.35 646.22 147.31 646.26 147.3 646.31 147.25 646.33 147.23 646.34 147.21 646.36 147.19 646.38 147.18 646.41 147.15 646.45 147.14 646.47 147.14 646.5 147.13 646.52 147.13 646.55 147.13 646.95 147 647.05 146.88 647.11 146.67 647.14 146.65 647.58 146.62 647.71 146.66 647.81 146.87 647.85 147.03 647.98 147.14 648.31 147.24 648.34 147.27 648.44 147.46 648.5 147.74 648.59 148.07 648.39 148.28 648.33 148.65 648.38 148.87 648.35 149.07 648.26 149.22 648.18 149.36 648.35 149.53 647.9 150.03 648.01 150.3 647.89 150.35 647.19 150.66 646.87 150.84 646.74 151.06 646.64 151.34 646.64 151.52 646.73 151.67 646.8 151.7 646.99 151.58 647.07 151.54 647.17 151.7 647.19 151.84 646.91 152.03 646.86 152.12 646.9 152.4 647.13 152.42 647.45 152.49 647.44 152.59 647.22 152.78 647.15 152.94 647.52 153.33 647.89 153.72 648.26 154.11 648.28 154.19 648.2 154.15 647.99 154.11 647.75 154.05 647.63 154.02 647.5 153.98 647.42 153.96 647.37 153.94 647.33 153.92 647.29 153.89 647.27 153.94 646.88 154.49 646.86 154.5 646.84 154.52 646.83 154.54 646.83 154.56 646.84 154.58 646.84 154.61 646.76 154.62 646.69 154.64 646.64 154.64 646.61 154.64 646.58 154.64 646.55 154.63 646.53 154.61 646.51 154.59 646.5 154.56 646.49 154.54 646.5 154.52 646.5 154.5 646.52 154.47 646.53 154.43 646.53 154.41 646.54 154.37 646.53 154.34 646.51 154.31 646.48 154.29 646.44 154.26 646.3 154.16 646.29 154.15 646.13 154.2 646.13 154.21 646.12 154.27 646.12 154.34 646.11 154.4 646.11 154.47 646.11 154.53 646.12 154.61 646.12 154.71 646.13 154.77 646.14 154.82 646.15 154.89 646.16 154.94 646.17 155 646.18 155.04 646.18 155.09 646.19 155.15 646.16 155.16 646.14 155.17 646.11 155.2 646.09 155.22 646.07 155.25 646.05 155.3 646.02 155.35 645.99 155.41 645.96 155.45 645.93 155.49 645.88 155.54 645.82 155.59 645.78 155.63 645.75 155.65 645.69 155.69 645.6 155.74 645.53 155.79 645.3 155.47 644.91 154.88 644.91 154.64 644.67 154.62 644.65 154.95 644.63 155.17 644.53 155.23 644.42 155.41 644.24 155.44 644.19 155.48 644.15 155.57 644.04 155.73 643.63 155.81 643.64 155.88 643.7 156.07 643.59 156.17 643.41 156.18 643.37 156.07 642.83 156.09 642.17 155.9 642.21 156.64 641.68 156.57 641.36 156.34 641.32 156.26 641.43 156.22 641.64 155.99 641.61 155.94 641.59 155.87 641.59 155.82 641.59 155.78 641.58 155.75 641.58 155.73 641.58 155.7 641.58 155.68 641.57 155.66 641.43 155.69 641.19 155.78 641.03 156.09 640.93 156.2 640.88 156.2 640.82 156.05 640.64 155.72 640.41 155.75 640.23 155.43 640.24 155.4 640.25 155.38 640.25 155.35 640.25 155.26 640.25 155.17 640.24 155.09 640.22 155.02 640.21 154.98 640.18 154.91 640.15 154.85 640.13 154.81 640.09 154.7 640.08 154.65 639.63 154.8 639.42 154.75 639.45 154.56 639.45 154.53 639.44 154.5 639.44 154.46 639.43 154.45 639.43 154.43 639.42 154.41 639.42 154.39 639.41 154.37 639.4 154.36 639.4 154.34 639.4 154.33 639.4 154.32 639.41 154.31 639.41 154.29 639.4 154.27 639.39 154.25 639.38 154.22 639.38 154.21 639.38 154.19 639.37 154.17 639.37 154.16 639.37 154.15 639.36 154.13 639.35 154.06 639.34 154.03 639.33 153.98 639.32 153.94 639.31 153.91 639.3 153.87 639.3 153.83 639.29 153.8 639.29 153.78 639.29 153.74 639.29 153.7 639.29 153.66 639.29 153.63 639.28 153.59 639.28 153.56 639.27 153.52 639.25 153.49 639.23 153.46 639.21 153.43 639.2 153.4 639.2 153.36 639.18 153.33 639.16 153.29 639.13 153.17 639.15 153.09 639.2 153.04 638.93 152.93 638.93 152.83 638.94 152.74 638.94 152.67 638.32 152.23 637.69 151.8 637.52 151.56 637.45 151.55 637.08 151.76 637.01 151.78 637 151.69 636.97 151.6 636.93 151.47 636.91 151.43 636.85 151.36 636.82 151.32 636.8 151.31 636.78 151.29 636.75 151.26 636.75 151.25 636.74 151.22 636.7 151.14 636.68 151.1 636.67 151.07 636.66 151.04 636.66 151.01 636.65 150.97 636.64 150.92 636.62 150.86 636.59 150.8 636.66 150.69 636.64 150.69 636.6 150.69 636.57 150.69 636.54 150.69 636.52 150.68 636.5 150.65 636.5 150.63 636.49 150.62 636.47 150.6 636.43 150.6 636.36 150.63 636.29 150.65 636.25 150.65 636.21 150.65 636.17 150.66 636.13 150.68 636.12 150.68 636.07 150.64 636.06 150.61 636.03 150.6 636.01 150.6 635.93 150.58 635.86 150.57 635.79 150.55 635.69 150.53 635.68 150.51 635.67 150.49 635.64 150.46 635.61 150.46 635.59 150.46 635.52 150.46 635.51 150.46 635.5 150.44 635.28 150.42 635.07 150.35 635.02 150.4 634.98 150.42 634.93 150.41 634.84 150.39 634.77 150.34 634.72 150.3 634.69 150.25 634.67 150.18 634.64 150.11 634.61 150.04 634.6 149.99 634.61 149.94 635.04 149.89 635.15 149.78 635.3 149.35 635.4 148.97 635.49 148.97 636.08 148.98 636.11 148.96 636.24 148.9 636.39 148.83 636.57 148.75 636.7 148.68 636.88 148.59 637 148.53 637.11 148.46 637.19 148.41 637.25 148.34 637.32 148.28 637.42 148.19 637.51 148.1 637.57 148.04 637.61 148 637.65 147.95 637.59 147.94 637.58 147.93 637.56 147.92 637.54 147.9 637.52 147.86 637.5 147.79 637.48 147.72 637.48 147.68 637.48 147.64 637.48 147.6 637.47 147.57 637.46 147.53 637.46 147.5 637.43 147.42 637.39 147.3 637.35 147.17 637.34 147.15 637.32 147.13 637.31 147.15 637.29 147.02 637.25 146.79 637.23 146.68 637.23 146.67 637.22 146.66 637.21 146.65 637.2 146.64 637.22 146.6 637.23 146.55 637.25 146.51 637.27 146.47 637.29 146.45 637.34 146.42 637.4 146.38 637.43 146.36 637.44 146.34 637.46 146.32 637.22 145.83 636.92 145.8 636.79 145.7 636.75 145.58 636.77 145.4 636.73 145.32 636.67 145.3 636.66 145.04 636.67 144.88 636.67 144.39 636.6 144.18 636.41 143.86 636.14 143.33 635.76 142.83 635.49 142.44 635.36 142.27 635.39 142.2 635.72 141.88 635.61 141.82 635.52 141.79 635.4 141.82 635.28 141.95 635.25 141.93 635.07 141.68 634.81 141.48 634.36 141.3 634.32 141.23 634.45 141.12 634.63 140.86 634.44 140.48 634.39 140.17 633.77 140.24 633.16 140.51 633.13 140.37 633.21 140.14 633.58 139.68 633.67 139.6 633.7 139.53 633.51 139.33 633.49 139.3 633.51 139.24 633.71 139.07 634 139 634.21 138.79 634.62 138.66 634.64 138.66 634.68 138.66 634.79 138.63 634.87 138.62 634.97 138.6 635.01 138.58 635.06 138.55 635.11 138.53 635.17 138.51 635.22 138.51 635.44 138.5 635.57 138.49 635.73 138.48 635.82 138.47 635.89 138.47 635.94 138.46 636 138.45 636.03 138.42 635.98 138.68 636.14 138.67 636.4 138.48 636.65 138.41 636.76 138.4 636.84 138.61 637.02 138.65 637.11 138.47 637.19 138.23 637.21 138.02 637.26 137.98 637.42 137.97 637.46 137.88 637.49 137.76 637.95 137.5 638.23 137.48 638.38 137.33 638.58 137.32 638.69 137.44 638.81 137.56 638.87 137.6 638.92 137.62 638.98 138.2 639.13 138.6 639.21 139.04 639.31 139.29 639.45 139.49 639.84 139.47 640.15 139.5 640.39 139.65 640.46 139.62 640.56 139.51 640.67 139.52 640.74 139.59 640.73 139.69 640.7 139.78 640.7 139.82 640.9 139.88 641.07 140 641.28 139.99 641.45 139.89 641.5 139.89 641.68 139.95 641.69 139.97 641.71 140 641.75 140.03 641.79 140.06 641.81 140.11 641.83 140.2 641.85 140.29 641.84 140.32 641.84 140.34 641.83 140.35 641.81 140.39 641.74 140.48 641.66 140.56 641.59 140.63 641.54 140.74 641.49 140.84 641.45 140.89 641.4 140.95 641.7 141.07 641.82 141.15 641.95 141.07 642.01 141.02 642.08 141.05 642.01 141.21 642.29 141.25 642.35 141.28 642.35 141.42 642.65 141.47 642.67 141.63 Z"/>
</g></svg>