<svg xmlns="http://www.w3.org/2000/svg" version="1.2" baseProfile="tiny" stroke-linecap="round" stroke-linejoin="round" viewBox="680.4 82.8 13.3 13.85"><g xmlns="http://www.w3.org/2000/svg" id="Donapaleu">
<path d="M 689.26 82.8 689.65 83.04 689.78 83.1 690.04 83.29 690.23 82.93 690.5 83.09 690.42 83.22 690.27 83.66 690.23 83.82 690.21 84.01 690.19 84.1 690.17 84.23 690.1 84.48 689.98 84.92 689.89 85.27 689.81 85.49 689.73 85.71 689.7 85.8 689.62 85.95 689.59 85.99 689.53 86.08 689.47 86.16 689.46 86.17 689.32 86.29 689.19 86.37 689.12 86.43 689.1 86.47 689.09 86.5 689.09 86.55 689.1 86.61 689.18 86.69 689.41 86.86 689.59 86.94 689.64 86.94 689.68 86.94 690.16 86.7 690.49 86.56 690.67 86.5 690.78 86.47 691.03 86.45 691.08 86.46 691.3 86.51 691.4 86.56 691.42 86.57 691.45 86.61 691.48 86.68 691.5 86.94 691.5 87.05 691.5 87.07 691.51 87.16 691.51 87.19 691.51 87.22 691.52 87.25 691.52 87.28 691.53 87.31 691.54 87.35 691.54 87.38 691.54 87.4 691.54 87.43 691.54 87.46 691.54 87.49 691.54 87.5 691.55 87.52 691.55 87.54 691.57 87.56 691.59 87.57 691.61 87.57 691.64 87.58 691.67 87.58 691.71 87.57 691.74 87.57 691.77 87.56 691.81 87.56 691.84 87.55 691.86 87.54 691.89 87.52 691.92 87.51 691.97 87.5 692 87.49 692.03 87.48 692.07 87.46 692.11 87.46 692.15 87.45 692.18 87.44 692.22 87.43 692.26 87.43 692.29 87.43 692.32 87.42 692.34 87.42 692.37 87.42 692.4 87.42 692.43 87.42 692.45 87.43 692.48 87.43 692.51 87.45 692.54 87.46 692.57 87.48 692.59 87.49 692.6 87.5 692.61 87.52 692.63 87.52 692.64 87.53 692.66 87.53 692.68 87.55 692.69 87.56 692.72 87.59 692.74 87.6 692.78 87.63 692.8 87.65 692.83 87.67 692.85 87.69 692.87 87.71 692.88 87.72 692.91 87.73 692.93 87.75 692.96 87.76 692.99 87.76 693.02 87.77 693.04 87.78 693.07 87.79 693.09 87.8 693.12 87.81 693.15 87.82 693.18 87.83 693.2 87.83 693.24 87.84 693.27 87.84 693.3 87.85 693.32 87.85 693.35 87.85 693.38 87.86 693.4 87.87 693.44 87.88 693.47 87.89 693.5 87.91 693.53 87.92 693.55 87.95 693.58 87.97 693.6 88 693.62 88.03 693.63 88.05 693.65 88.11 693.66 88.14 693.66 88.18 693.67 88.25 693.65 88.31 693.64 88.34 693.61 88.4 693.58 88.47 693.57 88.5 693.56 88.54 693.55 88.57 693.54 88.63 693.54 88.67 693.53 88.71 693.52 88.8 693.52 88.82 693.52 88.85 693.51 88.88 693.51 88.92 693.51 88.95 693.51 88.98 693.52 89.01 693.53 89.04 693.53 89.07 693.52 89.1 693.51 89.11 693.49 89.13 693.47 89.16 693.44 89.2 693.42 89.24 693.41 89.27 693.39 89.31 693.37 89.34 693.35 89.38 693.34 89.42 693.33 89.45 693.32 89.49 693.32 89.51 693.31 89.54 693.3 89.57 693.3 89.59 693.3 89.63 693.3 89.65 693.31 89.69 693.32 89.7 693.33 89.72 693.34 89.76 693.36 89.77 693.38 89.8 693.41 89.82 693.43 89.84 693.45 89.86 693.48 89.87 693.5 89.88 693.52 89.88 693.51 89.91 693.49 89.93 693.46 89.96 693.43 89.97 693.41 89.99 693.37 90.03 693.34 90.05 693.3 90.1 693.27 90.13 693.23 90.17 693.2 90.2 693.18 90.22 693.22 90.29 693.19 90.36 693.34 90.68 693.35 90.75 693.35 90.81 693.35 90.86 693.35 90.91 693.36 90.97 693.37 91.04 693.37 91.1 693.37 91.16 693.37 91.21 693.39 91.27 693.4 91.33 693.4 91.4 693.39 91.48 693.37 91.55 693.33 91.63 693.3 91.7 693.28 91.74 693.25 91.8 693.22 91.84 693.19 91.89 693.17 91.94 693.15 91.99 693.13 92.04 693.11 92.09 692.74 91.88 692.68 91.99 692.58 92.17 692.48 92.34 692.42 92.45 692.38 92.55 692.34 92.66 692.29 92.82 692.24 92.91 692.19 92.99 691.73 93.71 692.09 93.91 692.04 94.09 691.88 94.4 691.83 94.42 691.7 94.36 691.61 94.36 691.55 94.51 691.63 94.57 691.72 94.67 691.69 94.75 691.56 94.95 691.05 95.44 691.04 95.48 690.95 95.48 690.48 95.28 690.28 95.28 690.2 95.34 689.69 95.86 689.57 95.96 689.29 96.26 689.17 96.35 689.11 96.45 688.96 96.53 688.65 96.63 688.62 96.61 688.57 96.57 688.47 96.5 688.38 96.43 688.31 96.39 688.27 96.35 688.24 96.3 688.2 96.27 688.17 96.27 688.18 96.24 688.18 96.18 688.17 96.13 688.16 96.08 688.15 96.03 688.14 95.98 688.12 95.95 688.08 95.89 688.02 95.81 687.95 95.72 687.92 95.66 687.88 95.57 687.85 95.49 687.84 95.44 687.83 95.42 687.81 95.4 687.79 95.38 687.75 95.34 687.71 95.32 687.67 95.27 687.66 95.26 687.65 95.23 687.63 95.2 687.61 95.17 687.59 95.14 687.57 95.12 687.53 95.11 687.5 95.09 687.41 94.99 687.28 94.85 687.18 94.74 687.11 94.68 687.06 94.65 687.01 94.61 686.93 94.56 686.8 94.5 686.61 94.41 686.51 94.35 686.42 94.28 686.33 94.22 686.22 94.17 686.16 94.13 686.13 94.13 686.11 94.14 686.08 94.15 686.01 94.19 685.93 94.23 685.84 94.28 685.75 94.36 685.67 94.42 685.63 94.45 685.6 94.46 685.56 94.47 685.44 94.49 685.34 94.51 685.3 94.53 685.28 94.53 685.27 94.54 685.25 94.54 685.23 94.57 684.64 94.76 684.77 95.81 684.73 95.81 684.68 95.8 684.64 95.8 684.59 95.79 684.53 95.77 684.46 95.74 684.4 95.71 684.35 95.67 684.32 95.64 684.31 95.61 684.3 95.58 684.31 95.54 684.34 95.51 684.35 95.48 684.36 95.43 684.36 95.4 684.36 95.36 684.35 95.33 684.33 95.27 684.24 95.08 684.22 95.03 684.18 94.92 684.17 94.89 684.16 94.85 684.15 94.83 684.16 94.79 684.17 94.75 684.17 94.72 684.17 94.68 684.16 94.64 684.13 94.6 684.09 94.55 684.07 94.51 684.05 94.48 684.01 94.42 683.95 94.32 683.88 94.2 683.78 94.07 683.75 94.04 683.22 94.03 683.18 94 683.19 93.91 683.08 93.86 682.98 93.83 682.72 94.17 682.46 94.22 682.39 94.63 682.3 94.74 682.28 94.72 682.35 94.23 682.21 94.13 681.8 93.96 681.66 93.95 681.64 94.18 681.61 94.27 681.07 94.12 680.67 93.47 680.41 92.95 680.59 92.85 680.68 92.81 680.79 92.75 680.89 92.7 680.95 92.65 681.04 92.55 681.11 92.47 681.18 92.39 681.24 92.33 681.29 92.31 681.37 92.27 681.48 92.19 681.54 92.13 681.58 92.06 681.62 91.97 681.64 91.87 681.68 91.73 681.7 91.65 681.71 91.59 681.7 91.5 681.68 91.42 681.65 91.31 681.65 91.28 681.62 91.16 681.6 91 681.58 90.92 681.57 90.82 681.58 90.76 681.61 90.68 681.63 90.62 681.64 90.6 681.7 90.54 681.74 90.48 681.81 90.39 681.86 90.28 681.93 90.16 681.94 90.15 681.94 90.13 681.97 90.03 681.99 89.94 682.03 89.84 682.08 89.73 682.12 89.67 682.16 89.6 682.21 89.56 682.26 89.54 682.33 89.52 682.4 89.53 682.5 89.55 682.63 89.57 682.65 89.58 682.73 89.58 682.83 89.59 682.89 89.6 683.02 89.62 683.09 89.65 683.15 89.68 683.2 89.72 683.25 89.76 683.3 89.83 683.35 89.88 683.4 89.94 683.45 90.01 683.49 90.06 683.53 90.12 683.55 90.18 683.57 90.23 683.59 90.28 683.61 90.33 683.67 90.42 683.71 90.46 683.75 90.5 683.76 90.5 683.79 90.53 683.82 90.56 683.87 90.58 683.94 90.6 684.01 90.6 684.07 90.59 684.17 90.57 684.27 90.52 684.35 90.46 684.44 90.38 684.53 90.26 684.62 90.12 684.74 89.92 684.78 89.83 684.82 89.77 684.88 89.71 684.92 89.66 684.93 89.6 684.95 89.53 684.96 89.46 684.95 89.36 684.93 89.28 684.91 89.23 684.9 89.16 684.86 89.1 684.82 89.05 684.79 89.01 684.77 88.97 684.74 88.91 684.71 88.85 684.7 88.82 684.69 88.77 684.67 88.71 684.64 88.64 684.61 88.56 684.55 88.46 684.5 88.36 684.48 88.33 684.43 88.23 684.4 88.16 684.39 88.12 684.38 88.09 684.38 88.04 684.39 87.98 684.42 87.92 684.48 87.89 684.53 87.86 684.59 87.84 684.6 87.84 684.67 87.84 684.72 87.84 684.78 87.82 684.83 87.78 684.9 87.69 684.93 87.63 684.96 87.61 685.01 87.57 685.05 87.51 685.12 87.47 685.19 87.42 685.26 87.4 685.35 87.37 685.42 87.37 685.5 87.36 685.57 87.37 685.64 87.4 685.71 87.43 685.77 87.47 685.82 87.48 685.87 87.51 685.91 87.54 685.95 87.6 685.99 87.66 686.02 87.7 686.04 87.75 686.06 87.8 686.1 87.83 686.12 87.83 686.15 87.83 686.19 87.83 686.24 87.81 686.28 87.78 686.32 87.71 686.36 87.63 686.37 87.55 686.39 87.44 686.4 87.41 686.4 87.38 686.4 87.36 686.4 87.33 686.4 87.31 686.4 87.28 686.4 87.26 686.41 87.23 686.41 87.22 686.41 87.21 686.42 87.2 686.42 87.17 686.43 87.14 686.44 87.1 686.44 87.08 686.45 87.05 686.46 87.01 686.47 86.99 686.48 86.95 686.49 86.92 686.5 86.88 686.51 86.85 686.52 86.81 686.53 86.77 686.56 86.74 686.58 86.72 686.6 86.7 686.63 86.67 686.65 86.65 686.68 86.62 686.71 86.58 686.73 86.55 686.74 86.52 686.76 86.47 686.77 86.43 686.77 86.41 686.76 86.36 686.76 86.32 686.76 86.31 686.75 86.3 686.72 86.23 686.72 86.22 686.72 86.2 686.72 86.19 686.73 86.18 686.74 86.18 686.91 86.14 687.14 86.12 687.34 86.1 687.38 86.09 687.4 86.09 687.41 86.08 687.42 86.06 687.44 86.04 687.44 86.02 687.45 86 687.45 85.98 687.46 85.96 687.47 85.94 687.48 85.91 687.49 85.88 687.5 85.87 687.51 85.85 687.52 85.83 687.52 85.81 687.53 85.79 687.54 85.78 687.55 85.75 687.55 85.73 687.56 85.72 687.56 85.7 687.57 85.69 687.58 85.67 687.59 85.65 687.6 85.63 687.68 85.54 687.75 85.46 687.81 85.39 687.89 85.3 687.95 85.23 687.99 85.2 688.04 85.15 688.13 85.07 688.14 85.06 688.14 85.05 688.14 85.04 688.13 85.03 688.12 85.02 688.11 85.01 688.1 84.99 688.1 84.97 688.1 84.96 688.11 84.95 688.14 84.91 688.18 84.84 688.21 84.79 688.21 84.76 688.22 84.69 688.22 84.67 688.22 84.64 688.23 84.62 688.23 84.6 688.24 84.55 688.25 84.52 688.28 84.44 688.33 84.34 688.35 84.31 688.37 84.28 688.39 84.26 688.48 84.14 688.51 84.06 688.55 83.96 688.58 83.92 688.67 83.79 688.74 83.71 688.87 83.53 688.93 83.45 688.96 83.41 688.97 83.4 689.02 83.36 689.04 83.33 689.08 83.2 689.16 83.02 689.23 82.89 689.26 82.8 Z"/>
</g></svg>