<svg xmlns="http://www.w3.org/2000/svg" version="1.2" baseProfile="tiny" stroke-linecap="round" stroke-linejoin="round" viewBox="275.27 234.75 55.78 68.1"><g xmlns="http://www.w3.org/2000/svg" id="Donemiliaga">
<path d="M 315.05 241.05 315.56 241.6 316.35 242.21 317.41 242.82 317.88 243.05 318.23 243.58 318.68 244.1 318.7 244.11 318.71 244.12 318.71 244.16 318.69 244.73 318.6 245.39 318.32 246.2 317.97 246.78 317.35 247.5 316.85 248.18 316.3 248.9 315.89 249.52 315.62 250.08 315.5 250.62 315.44 251.29 315.32 252.29 315.26 253.27 315.23 254.31 315.22 255.18 315.15 255.79 314.84 256.67 314.38 257.75 313.99 258.85 313.63 260.04 313.35 260.79 312.76 261.62 312.3 262.04 311.81 262.39 311.39 262.66 310.94 263.1 310.53 263.71 310.2 264.19 310.16 264.63 311.73 265.57 313.05 266.31 313.26 266.44 313.12 266.61 312.64 266.79 312.14 267.15 313.34 267.23 313.38 267.73 313.34 268.21 313.28 268.63 314.12 268.78 314.25 268.17 314.32 268.04 314.92 268.02 315.79 268.09 316.44 268.24 316.89 268.55 317 268.88 316.99 269.11 317.47 269.3 317.77 269.19 318.08 268.94 318.24 268.78 318.43 268.78 318.67 268.94 318.93 269.12 319.13 269.14 319.39 268.94 319.4 268.95 319.77 269.19 320.67 269.32 321.32 270.04 322.46 270.62 322.94 271.02 323.34 271.13 323.53 270.85 323.97 270.01 324.42 269.17 324.75 268.71 325.09 268.55 325.97 268.58 326.61 268.72 328.34 269.77 328.81 270.23 328.97 270.5 329.05 271.04 329.4 271.31 329.64 271.71 329.63 272.06 329.73 272.47 329.97 272.82 330.26 273.21 330.22 273.54 330.13 273.84 330.21 274.02 330.41 274.32 330.48 274.81 330.59 275.97 330.87 276.51 331.04 277.1 331.04 277.72 330.27 277.85 329.77 278.09 329.48 278.45 329.24 278.86 329 278.92 328.72 278.9 327.76 278.99 327.76 279.41 328.05 280.11 328.68 280.98 329.39 281.53 330.1 282.17 330.41 282.36 330.56 282.94 330.75 283.37 330.78 283.6 330.66 283.74 329.86 284.03 329.46 284.32 328.83 284.7 327.99 285.11 327.19 285.47 326.39 285.86 325.88 285.96 325.15 285.89 324.35 285.89 323.89 285.95 323.68 286.18 323.43 286.66 323.07 287.12 322.62 287.26 322.52 287.58 322.42 288.43 322.01 289.18 321.68 289.75 321.28 290.13 320.74 289.7 319.85 289.08 318.92 288.52 317.95 287.8 316.76 286.94 315.92 286.32 314.84 285.58 313.6 284.84 312.71 284.18 311.93 283.89 311.57 283.46 311.07 282.99 310.57 282.33 310.18 281.73 309.57 280.95 309.5 280.27 309.47 279.51 309.57 278.86 309.76 278.71 310.24 278.6 310.52 278.67 310.89 278.65 310.94 278.5 310.85 278 310.87 277.65 310.8 276.84 310.62 276.45 310.27 276.15 310.05 276 310.09 275.79 310.55 275.36 311.12 274.76 311.44 274.71 312.18 274.94 312.76 275.09 313.58 275.33 313.21 274.84 312.66 274.21 312.17 273.65 311.66 272.76 310.97 271.57 310.38 270.94 309.77 270.66 308.9 270.59 307.98 270.47 307.36 270.21 306.63 269.7 306.1 269.05 305.38 268.1 305.15 267.48 304.93 266.77 304.4 266.39 303.81 266.1 303.19 265.96 302.69 266.19 302.44 266.54 302.46 267 302.58 267.92 302.49 268.78 302.22 269.44 301.8 270.03 301.46 270.71 301.02 271.23 299.96 272 298.73 272.72 298.53 272.7 298.01 272.07 297.61 271.43 297.23 271.13 296.62 271.07 295.83 271 296.01 270.38 296.26 269.55 296.13 268.11 295.96 266.88 295.9 265.92 295.58 265.05 295.24 263.57 295.23 263.53 295.25 263.53 295.96 263.5 296.41 263.6 296.77 263.88 296.99 264.14 297.37 264.48 297.76 264.61 298.17 264.79 298.18 264.79 298.54 264.87 298.98 264.78 299.47 264.59 299.59 264.24 299.72 263.98 300.04 263.8 300.31 263.87 300.6 264.08 300.88 264.21 300.89 263.9 300.59 263.08 300.26 262.06 299.91 261.04 299.7 260.45 299.7 260.44 299.71 260.44 300.12 260.53 300.45 260.61 300.95 260.68 301.51 260.82 302.07 260.85 302.68 261 303.2 261.02 303.63 261.15 304.01 261.25 304.47 261.45 304.96 261.65 305.49 261.74 306.01 261.51 306.46 261.37 306.79 261.4 307.2 261.53 308.17 261.88 308 260.82 308.2 260.38 308.37 260.03 308.58 259.53 308.75 259.1 308.91 258.65 309.01 258.24 309.18 257.78 309.34 257.24 309.52 256.61 309.64 256.19 309.85 255.56 310.02 254.99 310.21 254.39 310.41 253.82 310.58 253.18 310.69 252.7 310.84 252.04 310.99 251.51 311.13 251.1 311.31 250.63 311.45 250.17 311.54 249.64 311.66 249.17 311.81 248.62 311.94 248.11 312.08 247.63 312.24 247.07 312.4 246.54 312.59 246.1 312.9 245.56 313.2 244.95 313.46 244.53 313.6 244.13 313.88 243.64 314.28 243.12 314.59 242.55 314.93 241.92 315.04 241.07 315.05 241.06 315.05 241.05 Z M 288.67 235.15 289.42 235.14 291.07 235.26 292.49 235.64 293.89 236.04 294.09 236.32 294.53 236.36 295.35 235.93 295.98 235.38 296.72 235.05 297.57 234.83 298.35 234.76 299.07 234.9 299.63 235.23 299.93 235.6 300.48 235.79 300.99 235.95 301.41 236.4 301.96 237.24 302.4 237.6 303.08 237.65 303.91 237.51 304.69 237.69 305.58 238.1 305.41 238.27 305.22 238.45 304.94 238.82 304.65 239.32 304.31 239.94 303.76 240.42 303.44 240.77 303.31 241.4 302.86 242.53 302.51 243.12 302.09 243.79 301.57 244.42 300.9 245.42 300.76 246.15 300.49 247.45 300.12 248.63 299.93 249.43 299.69 250.54 299.71 251.6 299.77 253.02 300.03 254.02 300.53 255.42 301 256.67 301.25 257.52 301.14 258.05 300.6 258.83 299.69 259.77 299.66 259.9 299.42 260.04 299.19 260.12 298.9 260.13 298.49 260.07 298.11 260.21 298.02 260.44 298.13 260.67 298.27 260.93 298.1 260.94 297.68 260.8 297.36 260.86 297 260.7 296.61 260.46 296.22 260.24 295.84 260.04 295.48 260 295.13 260.14 294.8 260.34 294.47 260.63 294.42 260.68 294.41 260.68 294.4 260.65 294.03 260.35 293.45 260.05 292.69 259.67 292.53 259.21 292.47 258.71 292.03 258.18 291.61 257.71 291.55 257.57 291.36 257.13 291.2 256.49 291.04 256.04 290.82 255.76 290.49 255.75 289.47 256.1 289.13 256.31 288.1 256.53 287.32 256.68 286.47 256.64 285.87 256.68 285.45 256.68 285.29 256.57 285.25 256.18 285.47 255.58 285.89 254.93 286.15 254.41 286.42 253.73 286.49 253.28 286.5 252.09 286.5 251.1 286.46 250.29 286.39 249.24 286.25 248.32 286.12 247.57 286.01 246.49 286.03 245.67 285.95 244.16 286.06 243.64 286.44 242.73 287.13 241.76 287.47 241.14 287.53 240.18 287.56 239.44 287.85 238.66 288.26 238.08 288.61 237.32 288.73 236.74 288.66 236.06 288.64 235.49 288.67 235.15 Z M 279.6 281.81 279.6 281.63 279.62 281.33 279.9 280.55 280.38 279.72 280.99 278.68 282.02 279.13 282.83 279.9 283.33 280.39 283.83 280.99 284.1 281.35 284.36 281.67 284.98 282.02 286.04 282.5 287 282.88 287.75 283.21 288.33 283.42 288.85 283.68 289.09 283.91 289.29 284.08 289.03 284.77 288.74 285.44 288.5 286.14 288.25 286.78 288.08 287.08 287.89 287.09 287.62 286.99 286.98 288.07 286.78 288.44 286.81 289.29 287.09 291.26 287.22 292.07 287.44 292.91 287.53 293.72 287.6 294.99 287.66 295.92 288.21 296.97 288.59 297.43 288.9 297.98 288.86 298.57 288.81 299.12 288.82 299.31 288.28 299.77 287.51 300.41 287.14 300.3 286.69 300.59 286.12 301.13 285.48 301.68 284.91 301.91 284.25 301.71 283.86 301.48 283.35 301.44 282.53 301.48 282.37 300.99 282.47 300.64 282.69 300.15 282.96 299.5 282.95 299.1 283.03 298.33 283.26 297.67 283.16 297.15 283.11 296.48 283.21 296.09 283.5 295.92 283.73 295.59 283.84 294.88 283.92 293.77 284.22 293.03 283.41 292.49 283.27 291.95 283.07 291.39 282.87 290.67 282.69 290.11 282.32 289.64 281.75 289.4 281.37 289.9 281.03 290.34 280.63 290.76 280.32 290.95 280.3 291.18 280.49 291.71 280.87 292.44 281.21 293.06 281.46 293.74 281.36 294.06 280.74 294.25 280.59 294.49 280.51 294.95 280.52 295.66 280.34 296.23 280.07 296.8 279.7 297.57 279.45 298.72 279.4 299.52 279.37 300.32 279.45 301.16 279.48 301.92 279.58 302.73 279.5 302.75 279.16 302.83 278.45 302.67 277.39 302.05 276.68 301.63 276.54 301.37 276.19 300.79 275.89 300.34 275.59 300.11 275.29 300.11 275.5 299.42 275.71 299.28 275.96 299.41 276.25 299.26 276.41 299.08 276.7 298.89 276.77 298.57 277.05 298.35 277.27 298.08 277.2 297.75 277.06 297.27 277.09 297.09 277.29 296.75 277.5 296.16 277.4 295.67 277.24 295.1 277.32 294.55 277.49 294.04 277.49 293.61 277.4 293.25 277.22 292.63 277.22 292.1 277.34 291.42 277.53 290.57 277.63 289.87 277.61 289.12 277.48 288.44 277.32 288.03 277.09 287.83 277.04 287.69 277.13 287.56 277.21 287.36 277.16 287.14 277.06 286.96 277.08 286.75 277.36 286.47 277.65 285.98 277.94 285.72 278.59 285.71 279.28 285.96 279.74 286.28 280.02 286.45 280.41 286.5 280.81 286.41 281.15 286.23 281.02 285.69 281.17 285.33 281.51 285.14 281.89 285.08 282.15 284.87 282.4 284.6 282.4 284.59 282.46 284.36 282.27 284.11 281.91 284.01 281.54 283.89 281.34 283.73 281.19 283.38 281.06 282.86 280.86 282.5 279.6 281.81 Z"/>
</g></svg>