<svg xmlns="http://www.w3.org/2000/svg" version="1.2" baseProfile="tiny" stroke-linecap="round" stroke-linejoin="round" viewBox="501.48 154.32 13.62 16.93"><g xmlns="http://www.w3.org/2000/svg" id="Doneztebe">
<path d="M 506.84 157.07 506.85 157.11 506.85 157.12 506.9 157.26 507.07 157.81 507.09 157.87 507.12 157.95 507.13 157.99 507.15 158 507.31 158.03 507.33 158.03 507.47 158.06 507.56 158.08 507.65 158.13 507.7 158.17 507.81 158.24 507.93 158.31 507.94 158.32 507.97 158.34 508.03 158.36 508.09 158.38 508.14 158.4 508.18 158.42 508.26 158.45 508.28 158.46 508.31 158.47 508.47 158.53 508.72 158.63 508.72 158.62 508.74 158.62 508.96 158.6 508.99 158.6 509.08 158.59 509.15 158.58 509.16 158.58 509.29 158.57 509.31 158.56 509.36 158.56 509.42 158.55 509.41 158.49 509.4 158.42 509.4 158.36 509.41 158.32 509.42 158.29 509.43 158.25 509.46 158.17 509.5 158.09 509.51 158.06 509.51 158.05 509.51 158.01 509.5 157.93 509.48 157.8 509.45 157.65 509.43 157.56 509.41 157.47 509.39 157.37 509.36 157.29 509.32 157.2 509.26 157.06 509.21 156.94 509.15 156.79 509.09 156.66 509.04 156.54 508.99 156.43 508.95 156.33 508.92 156.24 508.88 156.15 508.83 156.04 508.79 155.96 508.76 155.88 508.74 155.83 508.73 155.8 508.72 155.76 508.7 155.64 508.68 155.52 508.66 155.38 508.63 155.18 508.61 155.03 508.6 154.88 508.59 154.75 508.59 154.64 508.59 154.51 508.59 154.41 508.59 154.34 508.65 154.37 508.75 154.44 508.79 154.46 508.88 154.52 509.14 154.67 509.17 154.69 509.18 154.69 509.21 154.71 509.22 154.72 509.28 154.75 509.59 154.94 509.76 155.04 509.76 155.19 509.76 155.23 509.77 155.43 509.78 155.46 509.78 155.49 509.79 155.6 509.81 155.74 509.82 155.8 509.83 155.86 509.84 155.91 509.86 156.07 509.87 156.14 509.87 156.16 509.9 156.32 509.91 156.4 509.92 156.42 509.92 156.43 509.94 156.5 509.98 156.63 510.02 156.77 510.04 156.8 510.09 156.87 510.14 156.93 510.14 156.96 510.17 157.05 510.29 157.08 510.55 157.14 510.66 157.15 510.68 157.15 510.72 157.14 510.83 157.13 510.85 157.14 511.06 157.21 511.2 157.32 511.24 157.35 511.28 157.37 511.36 157.42 511.51 157.51 511.69 157.61 511.91 157.46 511.95 157.66 511.99 157.81 512.2 157.87 512.48 157.69 513.01 158.39 513.08 158.55 513.12 158.62 513.15 158.7 512.82 158.95 512.52 159.18 512.41 159.27 512.42 159.49 512.54 159.52 512.56 159.52 512.74 159.57 512.76 159.57 513.02 159.64 513.03 159.64 513.23 159.69 513.47 159.73 513.56 159.69 514.02 159.42 514.12 159.36 514.21 159.3 514.3 159.25 514.35 159.21 514.44 159.15 514.49 159.11 514.56 159.05 514.6 159.02 514.65 159.2 514.74 159.52 514.78 159.67 514.89 160.06 515.04 160.58 515.08 160.73 515.07 160.75 515.07 160.76 515.06 160.78 515.02 160.88 515 160.95 514.98 161 514.96 161.06 514.95 161.07 514.95 161.09 514.94 161.12 514.94 161.15 514.93 161.18 514.93 161.21 514.91 161.28 514.85 161.46 514.84 161.5 514.83 161.51 514.76 161.69 514.77 161.73 514.78 161.77 514.78 161.8 514.8 162 514.82 162.21 514.83 162.26 514.88 162.35 514.9 162.4 514.95 162.48 514.96 162.5 514.97 162.53 515.03 162.61 515.05 162.65 515.06 162.67 515.06 162.69 515.06 162.73 515.06 162.77 515.03 162.82 514.98 162.88 514.91 162.96 514.88 163 514.84 163.06 514.82 163.1 514.81 163.11 514.81 163.13 514.8 163.16 514.79 163.2 514.78 163.24 514.78 163.3 514.79 163.41 514.8 163.57 514.81 163.65 514.81 163.7 514.79 163.78 514.79 163.83 514.79 163.86 514.8 163.9 514.8 163.98 514.81 164.02 514.81 164.05 514.82 164.07 514.84 164.11 514.88 164.15 514.91 164.19 514.93 164.22 514.95 164.28 514.97 164.32 514.98 164.36 514.99 164.39 514.99 164.42 514.98 164.49 514.96 164.56 514.95 164.59 514.95 164.6 514.96 164.63 514.99 164.68 515.02 164.73 515.05 164.78 515.06 164.82 515.08 164.89 515.08 164.97 515.09 165.04 515.1 165.11 515.1 165.19 515.1 165.22 515.1 165.29 515.1 165.34 515.07 165.33 515 165.34 514.92 165.34 514.81 165.35 514.73 165.36 514.67 165.36 514.62 165.37 514.51 165.43 514.41 165.48 514.31 165.53 514.24 165.57 514.18 165.61 514.05 165.68 514 165.71 513.94 165.74 513.84 165.79 513.72 165.84 513.62 165.88 513.5 165.94 513.37 166 513.26 166.04 513.12 166.11 512.98 166.17 512.87 166.22 512.76 166.26 512.69 166.3 512.64 166.32 512.56 166.35 512.51 166.37 512.43 166.4 512.35 166.43 512.26 166.45 512.17 166.46 512.03 166.46 511.98 166.45 511.93 166.43 511.87 166.41 511.81 166.37 511.75 166.32 511.69 166.26 511.63 166.2 511.58 166.14 511.54 166.09 511.52 166.07 511.5 166.17 511.5 166.24 511.53 166.29 511.59 166.36 511.65 166.43 511.7 166.5 511.75 166.57 511.78 166.61 511.8 166.63 511.82 166.66 511.88 166.74 511.94 166.82 511.96 166.85 511.97 166.86 512.02 166.91 512.06 166.97 512.12 167.2 512.11 167.27 512.1 167.32 512.1 167.4 512.11 167.42 512.13 167.76 512.08 167.85 512.06 167.88 512.02 167.94 512.01 167.96 511.98 168.01 511.89 168.2 511.81 168.26 511.71 168.33 511.69 168.34 511.6 168.41 511.47 168.5 511.39 168.56 511.35 168.58 511.3 168.61 511.27 168.62 511.26 168.63 511.24 168.64 511.15 168.68 511.06 168.72 510.94 168.78 510.89 168.8 510.85 168.82 510.79 168.85 510.73 168.88 510.7 168.9 510.63 168.94 510.54 169 510.47 169.04 510.41 169.08 510.29 169.14 510.28 169.15 510.2 169.2 510.19 169.2 510.14 169.23 510.12 169.24 510.07 169.27 510 169.31 509.92 169.36 509.91 169.36 509.9 169.37 509.85 169.4 509.84 169.41 509.73 169.47 509.63 169.53 509.61 169.54 509.53 169.59 509.44 169.64 509.39 169.67 509.38 169.68 509.37 169.68 509.36 169.69 509.34 169.71 509.33 169.72 509.29 169.76 509.21 169.84 509.19 169.86 509.18 169.88 509.13 169.93 509.09 169.97 509 170.06 508.99 170.07 508.98 170.08 508.97 170.08 508.96 170.09 508.94 170.11 508.9 170.14 508.89 170.18 508.85 170.25 508.84 170.27 508.8 170.35 508.77 170.4 508.74 170.46 508.73 170.49 508.67 170.61 508.63 170.68 508.61 170.72 508.58 170.74 508.55 170.76 508.52 170.79 508.48 170.83 508.44 170.88 508.4 170.93 508.37 170.97 508.34 171 508.31 171.02 508.28 171.02 508.24 171.04 508.2 171.05 508.14 171.05 508.08 171.05 508.04 171.05 507.97 171.02 507.9 170.99 507.88 170.99 507.86 171 507.83 171.01 507.8 171.04 507.76 171.08 507.7 171.15 507.68 171.16 507.61 171.24 507.57 171.23 507.51 171.22 507.43 171.2 507.35 171.18 507.27 171.17 507.26 171.17 507.24 171.16 507.21 171.15 507.2 171.15 507.19 171.11 507.18 171.01 507.16 170.92 507.16 170.87 507.15 170.8 507.13 170.72 507.12 170.62 507.1 170.5 507.09 170.41 507.08 170.35 507.05 170.31 507.04 170.3 507.03 170.29 506.99 170.27 506.95 170.27 506.91 170.28 506.87 170.3 506.83 170.32 506.76 170.35 506.67 170.38 506.56 170.41 506.45 170.41 506.36 170.43 506.28 170.45 506.15 170.49 506.1 170.51 505.98 170.54 505.88 170.56 505.78 170.56 505.72 170.57 505.67 170.58 505.58 170.59 505.49 170.58 505.46 170.56 505.42 170.54 505.38 170.52 505.33 170.5 505.28 170.46 505.24 170.42 505.2 170.39 505.12 170.31 505.08 170.28 505.06 170.26 505.05 170.26 505.02 170.25 504.99 170.27 504.92 170.3 504.84 170.35 504.76 170.39 504.7 170.42 504.69 170.42 504.64 170.44 504.53 170.48 504.43 170.49 504.35 170.49 504.27 170.49 504.25 170.48 504.21 170.46 504.18 170.43 504.13 170.39 504.07 170.38 504.03 170.37 503.98 170.37 503.93 170.35 503.89 170.33 503.85 170.31 503.82 170.31 503.78 170.32 503.75 170.32 503.71 170.31 503.68 170.28 503.63 170.28 503.6 170.29 503.55 170.28 503.46 170.26 503.39 170.24 503.34 170.23 503.29 170.22 503.25 170.2 503.22 170.18 503.16 170.14 503.12 170.09 503.08 170.05 503.06 170.03 503.05 170.03 503.04 170.03 503.02 170.06 502.99 170.13 502.96 170.19 502.93 170.23 502.73 170.41 502.58 170.53 502.31 170.76 502.25 170.79 502.2 170.82 502.18 170.84 501.95 170.99 501.93 171 501.83 171.07 501.74 171.13 501.71 171.16 501.67 171.1 501.58 170.99 501.49 170.89 501.49 170.88 501.53 170.75 501.57 170.64 501.63 170.48 501.69 170.32 501.69 170.3 501.7 170.27 501.76 170.09 501.78 170.05 501.83 169.92 501.89 169.74 501.9 169.71 501.94 169.59 501.95 169.58 501.95 169.58 501.95 169.56 502.01 169.41 502.03 169.36 502.25 169.17 502.34 169.09 502.35 169.08 502.41 169.04 502.5 168.95 502.52 168.94 502.53 168.92 502.64 168.84 502.65 168.8 502.67 168.75 502.69 168.68 502.73 168.6 502.78 168.54 502.84 168.46 502.9 168.38 502.95 168.33 503 168.28 503.06 168.23 503.09 168.21 503.1 168.2 503.14 168.18 503.21 168.14 503.24 168.13 503.25 168.12 503.32 168.09 503.39 168.06 503.44 168.04 503.51 168.09 503.57 168.13 503.63 168.17 503.68 168.18 503.7 168.18 503.79 168.2 503.89 168.22 503.98 168.23 504 168.23 504.04 168.23 504.05 168.23 504.08 168.24 504.07 168.16 504.06 168.06 504.05 167.96 504.04 167.89 504.07 167.8 504.11 167.69 504.13 167.63 504.15 167.6 504.14 167.57 504.12 167.53 504.1 167.48 504.1 167.44 504.09 167.43 504.09 167.42 504.08 167.39 504.08 167.37 504.04 167.2 504.04 167.18 504.03 167.13 504.01 167.07 504 167 504 166.99 503.99 166.96 503.98 166.93 503.96 166.84 503.95 166.77 503.94 166.71 503.94 166.67 503.94 166.65 503.94 166.61 503.94 166.58 503.94 166.55 503.98 166.48 503.99 166.46 504.05 166.37 504.1 166.29 504.15 166.21 504.19 166.18 504.2 166.18 504.29 166.11 504.49 165.97 504.54 165.94 504.62 165.89 504.7 165.85 504.84 165.77 504.94 165.72 504.98 165.69 505.13 165.62 505.16 165.61 505.23 165.57 505.27 165.56 505.41 165.5 505.45 165.39 505.46 165.37 505.51 165.24 505.55 165.15 505.59 165.05 505.6 165.03 505.61 165.01 505.62 165 505.66 164.96 505.74 164.87 505.75 164.85 505.78 164.82 505.83 164.76 505.84 164.75 505.92 164.66 505.86 164.63 505.76 164.54 505.68 164.47 505.62 164.41 505.59 164.4 505.63 164.35 505.69 164.29 505.73 164.26 505.75 164.23 505.8 164.18 505.83 164.16 505.9 164.1 505.91 164.09 505.91 164.07 505.91 164.05 505.92 164.03 505.93 163.89 505.94 163.82 505.94 163.78 505.94 163.77 505.94 163.76 505.95 163.67 505.95 163.66 505.95 163.64 505.95 163.63 505.96 163.56 505.96 163.55 505.97 163.48 505.97 163.41 505.97 163.4 505.98 163.38 505.98 163.37 506.07 163.23 506.11 163.12 506.14 163.06 506.15 163.03 506.16 163.01 506.18 162.98 506.18 162.98 506.23 162.9 506.24 162.86 506.29 162.77 506.32 162.72 506.34 162.67 506.38 162.57 506.39 162.55 506.39 162.54 506.4 162.45 506.41 162.35 506.41 162.33 506.43 162.17 506.44 162.02 506.46 161.9 506.47 161.85 506.47 161.84 506.5 161.77 506.5 161.76 506.51 161.74 506.52 161.71 506.55 161.64 506.59 161.53 506.64 161.43 506.66 161.37 506.68 161.33 506.68 161.32 506.68 161.31 506.69 161.24 506.7 161.23 506.71 161.1 506.72 160.99 506.72 160.91 506.73 160.81 506.73 160.75 506.73 160.72 506.73 160.65 506.72 160.55 506.71 160.45 506.7 160.38 506.7 160.28 506.69 160.27 506.69 160.25 506.69 160.23 506.68 160.14 506.66 160.03 506.65 159.92 506.64 159.88 506.64 159.86 506.64 159.83 506.64 159.8 506.62 159.69 506.62 159.64 506.62 159.61 506.62 159.6 506.62 159.46 506.62 159.38 506.63 159.32 506.65 159.04 506.68 158.77 506.68 158.72 506.69 158.67 506.7 158.52 506.72 158.3 506.75 158 506.77 157.85 506.78 157.71 506.79 157.58 506.81 157.44 506.82 157.31 506.82 157.27 506.84 157.07 Z"/>
</g></svg>