<svg xmlns="http://www.w3.org/2000/svg" version="1.2" baseProfile="tiny" stroke-linecap="round" stroke-linejoin="round" viewBox="629.7 148.12 7.33 10.78"><g xmlns="http://www.w3.org/2000/svg" id="Donibane-Garazi">
<path d="M 629.89 148.37 629.97 148.38 629.98 148.38 630.04 148.38 630.07 148.38 630.12 148.37 630.15 148.37 630.18 148.36 630.2 148.35 630.25 148.34 630.29 148.33 630.35 148.32 630.41 148.31 630.44 148.31 630.49 148.31 630.6 148.31 630.71 148.31 630.8 148.32 630.81 148.32 630.87 148.32 630.92 148.32 630.97 148.32 631.02 148.31 631.09 148.29 631.15 148.26 631.24 148.22 631.31 148.19 631.42 148.16 631.51 148.14 631.55 148.14 631.59 148.16 631.66 148.19 631.69 148.23 631.71 148.27 631.75 148.33 631.78 148.4 631.81 148.45 631.91 148.61 631.96 148.67 632.01 148.73 632.05 148.76 632.13 148.81 632.22 148.87 632.3 148.9 632.38 148.93 632.44 148.94 632.49 148.95 632.58 148.96 632.84 148.99 633 149 633.08 149.01 633.17 149.04 633.25 149.06 633.34 149.08 633.45 149.09 633.5 149.09 633.55 149.09 633.62 149.08 633.63 149.08 633.67 149.09 633.73 149.13 633.79 149.17 633.82 149.19 633.85 149.19 633.89 149.19 634 149.17 634.13 149.16 634.25 149.15 634.39 149.15 634.5 149.16 634.58 149.17 634.65 149.21 634.7 149.26 634.72 149.33 634.73 149.43 634.74 149.54 634.73 149.62 634.72 149.64 634.71 149.69 634.67 149.78 634.63 149.85 634.61 149.92 634.61 149.94 634.6 149.99 634.61 150.04 634.64 150.11 634.67 150.18 634.69 150.25 634.72 150.3 634.77 150.34 634.84 150.39 634.93 150.41 634.98 150.42 635.02 150.4 635.07 150.35 635.28 150.42 635.5 150.44 635.51 150.46 635.52 150.46 635.59 150.46 635.61 150.46 635.64 150.46 635.67 150.49 635.68 150.51 635.69 150.53 635.79 150.55 635.86 150.57 635.93 150.58 636.01 150.6 636.03 150.6 636.06 150.61 636.07 150.64 636.12 150.68 636.13 150.68 636.17 150.66 636.21 150.65 636.25 150.65 636.29 150.65 636.36 150.63 636.43 150.6 636.47 150.6 636.49 150.62 636.5 150.63 636.5 150.65 636.52 150.68 636.54 150.69 636.57 150.69 636.6 150.69 636.64 150.69 636.66 150.69 636.59 150.8 636.62 150.86 636.64 150.92 636.65 150.97 636.66 151.01 636.66 151.04 636.67 151.07 636.68 151.1 636.7 151.14 636.74 151.22 636.75 151.25 636.75 151.26 636.78 151.29 636.8 151.31 636.82 151.32 636.85 151.36 636.91 151.43 636.93 151.47 636.97 151.6 637 151.69 637.01 151.78 637.02 151.82 637.02 151.96 637.02 152.01 637.02 152.04 637.01 152.09 637 152.14 636.98 152.18 636.95 152.22 636.92 152.26 636.88 152.3 636.85 152.32 636.81 152.36 636.78 152.38 636.73 152.46 636.7 152.5 636.67 152.52 636.22 152.12 636.17 152.12 636.02 152.34 635.98 152.49 636.08 152.69 636.09 152.81 635.92 153.09 635.9 153.1 635.86 153.13 635.83 153.16 635.8 153.18 635.77 153.22 635.73 153.32 635.69 153.41 635.5 153.49 635.22 153.5 635.13 153.42 635.07 153.41 634.83 153.57 634.7 153.66 634.5 153.75 634.51 153.77 634.53 153.84 634.56 153.91 634.59 153.95 634.63 154.02 634.66 154.19 634.67 154.19 634.72 154.23 634.83 154.13 635.01 154.27 635.24 154.36 635.29 154.66 635.02 154.71 635.16 155.11 634.79 154.9 634.79 154.96 634.77 154.99 634.72 155.01 634.64 155.01 634.54 154.99 634.44 154.92 634.38 154.87 634.36 154.83 634.33 154.78 634.31 154.77 634.29 154.76 634.28 154.73 634.28 154.71 634.27 154.7 634.26 154.69 634.25 154.68 634.23 154.68 634.22 154.69 634.2 154.7 634.18 154.71 634.16 154.72 634.14 154.73 634.12 154.74 634.11 154.75 634.09 154.76 634.08 154.77 634.07 154.79 634.06 154.8 634.04 154.82 634.03 154.84 634.02 154.85 634.01 154.87 633.99 154.87 633.98 154.88 633.96 154.89 633.95 154.91 633.93 154.92 633.91 154.94 633.75 154.87 633.42 154.82 633.35 154.74 633.21 154.88 633.48 155.1 633.46 155.12 633.45 155.13 633.43 155.13 633.42 155.14 633.4 155.15 633.38 155.17 633.36 155.18 633.33 155.19 633.3 155.21 633.28 155.23 633.26 155.25 633.24 155.28 633.22 155.29 633.2 155.31 633.18 155.33 633.12 155.36 633.09 155.37 633.07 155.37 633.05 155.37 633.02 155.37 633 155.37 632.97 155.37 632.94 155.36 632.91 155.36 632.88 155.37 632.86 155.38 632.83 155.4 632.8 155.41 632.77 155.43 632.75 155.44 632.71 155.46 632.47 155.69 632.42 155.71 632.39 155.41 632.25 155.46 631.68 155.62 631.65 155.67 631.9 155.97 632.05 156.26 632.1 156.52 632.1 156.77 632.09 156.82 631.79 156.84 631.64 156.88 631.66 157.2 632.41 157.15 632.51 157.27 632.62 157.45 632.69 157.7 632.71 157.75 633.07 157.85 633.31 157.96 633.31 158.06 633.23 158.42 633.18 158.49 633.17 158.6 633.1 158.65 632.73 158.65 632.75 158.81 632.76 158.9 632.05 158.72 632 158.62 631.95 158.45 631.86 158.42 631.8 158.4 631.66 158.24 631.64 158.2 631.59 158.12 631.52 158.03 631.44 157.93 631.37 157.84 631.28 157.75 631.19 157.65 631.13 157.59 631.09 157.49 631.05 157.4 631.03 157.32 631.02 157.24 631.01 157.15 631.01 157.08 631.02 157.02 631.04 156.95 631.03 156.87 631.02 156.74 631 156.62 631.01 156.54 631.01 156.47 631 156.39 630.98 156.3 630.94 156.17 630.92 156.1 630.92 155.96 630.93 155.91 630.93 155.85 630.96 155.76 631 155.65 631.04 155.55 631.07 155.45 631.09 155.36 631.12 155.22 631.14 155.12 631.16 155.02 631.19 154.89 631.2 154.8 631.21 154.73 631.24 154.64 631.25 154.61 631.28 154.52 631.32 154.4 631.37 154.26 631.39 154.17 631.39 154.15 631.38 154.1 631.36 154 631.34 153.89 631.32 153.78 631.3 153.65 631.29 153.5 631.28 153.47 631.27 153.37 631.25 153.22 631.23 153.11 631.21 153.05 631.16 152.96 631.11 152.86 631.07 152.79 631.04 152.73 631 152.64 630.97 152.56 630.93 152.5 630.89 152.44 630.86 152.4 630.82 152.35 630.8 152.32 630.8 152.3 630.77 151.86 630.75 151.3 630.79 151.27 630.81 151.26 630.82 151.25 630.86 151.2 630.91 151.14 630.95 151.09 631.02 151.03 631.07 151 631.2 150.99 631.23 150.98 631.26 150.97 631.3 150.93 631.36 150.82 631.34 150.8 631.27 150.72 631.12 150.53 631 150.38 630.94 150.29 630.92 150.25 630.9 150.18 630.84 150.11 630.77 150.04 630.67 149.98 630.58 149.93 630.51 149.89 630.45 149.85 630.4 149.8 630.36 149.74 630.32 149.67 630.29 149.6 630.26 149.53 630.24 149.45 630.23 149.39 630.23 149.34 630.24 149.27 630.25 149.22 630.28 149.16 630.31 149.09 630.37 149.02 630.49 148.89 630.53 148.83 630.54 148.78 630.53 148.74 630.51 148.7 630.47 148.67 630.37 148.62 630.33 148.62 630.28 148.63 630.22 148.64 630.15 148.65 630.04 148.66 629.88 148.66 629.78 148.66 629.75 148.65 629.72 148.63 629.7 148.6 629.7 148.57 629.71 148.54 629.74 148.51 629.78 148.48 629.84 148.46 629.86 148.44 629.89 148.41 629.89 148.39 629.89 148.37 Z"/>
</g></svg>