<svg xmlns="http://www.w3.org/2000/svg" version="1.2" baseProfile="tiny" stroke-linecap="round" stroke-linejoin="round" viewBox="507.32 52.4 20.8 21.98"><g xmlns="http://www.w3.org/2000/svg" id="Donibane Lohizune">
<path d="M 521.26 52.44 521.3 52.45 521.35 52.46 521.37 52.47 521.38 52.49 521.39 52.5 521.39 52.51 521.39 52.53 521.39 52.55 521.4 52.57 521.42 52.58 521.43 52.59 521.43 52.6 521.44 52.62 521.44 52.63 521.45 52.65 521.44 52.66 521.44 52.69 521.44 52.7 521.45 52.72 521.47 52.74 521.48 52.76 521.49 52.77 521.51 52.79 521.51 52.81 521.52 52.82 521.53 52.85 521.54 52.87 521.55 52.89 521.56 52.92 521.57 52.96 521.57 52.98 521.57 53 521.57 53.01 521.57 53.03 521.57 53.05 521.57 53.06 521.58 53.07 521.58 53.08 521.58 53.1 521.58 53.11 521.58 53.12 521.58 53.14 521.58 53.15 521.57 53.18 521.56 53.2 521.56 53.23 521.56 53.26 521.55 53.29 521.55 53.3 521.61 53.32 521.67 53.35 521.81 53.4 521.83 53.4 521.85 53.4 521.87 53.4 521.91 53.41 521.93 53.41 521.95 53.41 521.99 53.42 522.11 53.45 522.12 53.45 522.13 53.45 522.13 53.46 522.15 53.49 522.15 53.51 522.15 53.52 522.17 53.54 522.17 53.55 522.18 53.57 522.19 53.61 522.19 53.63 522.2 53.64 522.21 53.66 522.23 53.67 522.32 53.75 522.4 53.84 522.47 53.9 522.51 53.93 522.52 53.94 522.55 53.96 522.59 53.97 522.6 53.98 522.62 53.99 522.64 53.99 522.66 53.99 522.69 53.99 522.7 53.98 522.71 53.99 522.73 54 522.75 54.01 522.78 54.01 522.81 54.02 522.83 54.02 522.85 54.03 522.86 54.03 522.89 54.04 522.93 54.04 522.97 54.05 523.03 54.05 523.07 54.04 523.15 54.06 523.17 54.06 523.19 54.07 523.21 54.08 523.22 54.09 523.23 54.09 523.25 54.09 523.27 54.09 523.29 54.09 523.31 54.08 523.33 54.08 523.35 54.09 523.37 54.09 523.42 54.09 523.44 54.08 523.45 54.08 523.47 54.06 523.48 54.05 523.5 54.04 523.53 54.05 523.59 54.06 523.62 54.07 523.64 54.08 523.68 54.1 523.74 54.12 523.79 54.15 523.81 54.17 523.83 54.18 523.86 54.19 523.87 54.2 523.89 54.22 523.91 54.25 523.94 54.32 523.95 54.34 523.96 54.37 523.97 54.43 523.99 54.47 524.01 54.5 524.03 54.52 524.06 54.5 524.08 54.48 524.11 54.45 524.24 54.47 524.28 54.48 524.32 54.49 524.49 54.52 524.51 54.53 524.55 54.53 524.6 54.55 524.62 54.55 524.68 54.56 524.76 54.58 524.86 54.6 524.95 54.63 525 54.64 525.04 54.65 525.56 54.76 525.61 54.77 525.69 54.79 525.69 54.75 525.92 54.78 525.91 54.83 525.92 54.84 526.13 54.86 526.15 54.86 526.15 54.86 526.18 54.85 526.19 54.84 526.2 54.84 526.22 54.82 526.31 54.84 526.43 54.86 526.5 54.87 526.55 54.87 526.56 54.87 526.58 54.86 526.62 54.87 526.65 54.87 526.7 54.87 526.77 54.86 526.81 54.85 526.88 54.82 526.92 54.82 526.95 54.82 526.97 54.82 526.98 54.82 527.02 54.84 527.07 54.86 527.23 55.02 527.27 55.05 527.28 55.05 527.3 55.08 527.31 55.09 527.25 55.85 527.24 55.88 527.22 55.99 527.13 56.31 527.06 56.57 527.09 56.73 527.1 56.78 527.11 56.81 527.11 56.85 527.14 56.98 527.25 57.59 527.27 57.67 527.33 58 527.42 58.51 527.46 58.73 527.47 58.79 527.6 59.49 527.63 59.63 527.66 59.81 527.67 59.88 527.69 59.99 527.73 60.16 527.76 60.34 527.83 60.37 527.91 60.4 527.94 60.41 527.98 60.42 528 60.43 528.09 60.45 528.08 60.47 528.06 60.5 527.76 61 527.75 61.02 527.74 61.05 527.71 61.09 527.69 61.13 527.67 61.15 527.65 61.19 527.63 61.22 527.54 61.37 527.28 61.76 527.27 61.78 527.2 61.91 527.12 62.04 527.04 62.16 526.96 62.29 526.87 62.42 526.77 62.56 526.68 62.68 526.62 62.75 526.52 62.89 526.38 63.05 526.36 63.08 526.34 63.14 526.07 63.56 525.81 63.79 525.31 64.26 524.93 64.6 524.67 64.85 524.35 65.16 524.09 65.41 523.92 65.56 523.77 65.66 523.57 65.78 523.52 65.81 523.5 65.82 523.42 65.87 523.36 65.9 523.31 65.93 523.27 65.95 523.09 66.04 523.02 66.07 522.97 66.1 522.66 66.24 522.4 66.37 522.16 66.48 522.09 66.51 521.98 66.56 522 66.65 522.13 67.2 522.13 67.24 522.14 67.28 522.15 67.31 522.17 67.35 522.18 67.38 522.19 67.39 522.28 67.85 522.31 67.99 522.36 68.19 522.45 68.49 522.47 68.59 522.48 68.64 522.51 68.8 522.51 68.81 522.56 69.1 522.57 69.12 522.65 69.6 522.72 70.08 522.8 70.57 522.8 70.58 522.8 70.6 522.81 70.63 522.86 71.74 522.87 71.93 522.89 72.18 522.89 72.28 522.9 72.37 522.9 72.41 522.8 72.73 522.66 73.23 522.54 73.65 522.53 73.71 522.41 73.8 522.41 73.83 522.39 73.83 522.37 73.84 522.35 73.87 522.33 73.88 522.31 73.89 522.3 73.91 522.3 73.93 522.29 73.94 522.28 73.97 522.25 73.98 522.22 73.97 522.19 73.97 522.16 73.97 522.13 74 522.09 74.03 522.06 74.06 522.04 74.09 522.02 74.13 522 74.14 521.98 74.14 521.95 74.16 521.92 74.19 521.91 74.21 521.89 74.2 521.89 74.19 521.88 74.17 521.86 74.16 521.85 74.17 521.84 74.18 521.84 74.19 521.83 74.19 521.82 74.19 521.81 74.19 521.8 74.18 521.78 74.18 521.77 74.19 521.75 74.2 521.75 74.21 521.75 74.22 521.75 74.23 521.75 74.25 521.73 74.26 521.71 74.26 521.7 74.27 521.7 74.29 521.72 74.3 521.74 74.33 521.73 74.34 521.71 74.36 521.69 74.36 521.65 74.34 521.62 74.34 521.59 74.33 521.55 74.32 521.51 74.32 521.49 74.33 521.47 74.33 521.45 74.34 521.43 74.35 521.4 74.35 521.34 74.32 521.25 74.28 521.21 74.27 521.18 74.25 521.15 74.24 521.13 74.25 521.11 74.24 521.09 74.23 521.08 74.22 521.05 74.21 520.99 74.19 520.92 74.17 520.88 74.16 520.86 74.13 520.84 74.13 520.82 74.12 520.8 74.12 520.78 74.11 520.76 74.12 520.75 74.09 520.72 74.09 520.69 74.08 520.67 74.07 520.65 74.06 520.62 74.04 520.59 74.03 520.56 74.02 520.53 74.01 520.5 74 520.47 74 520.45 73.99 520.4 73.97 520.36 73.95 520.32 73.94 520.29 73.93 520.25 73.91 520.22 73.9 520.21 73.9 520.19 73.88 520.18 73.88 520.15 73.87 520.13 73.86 520.07 73.84 520.05 73.83 520.03 73.83 520.02 73.82 520 73.81 519.98 73.81 519.96 73.8 519.92 73.79 519.8 73.76 519.69 73.71 519.66 73.7 519.64 73.69 519.63 73.69 519.59 73.68 519.53 73.67 519.4 73.65 519.35 73.64 519.34 73.64 519.31 73.63 519.3 73.63 519.29 73.63 519.28 73.63 519.27 73.61 519.26 73.6 519.25 73.6 519.24 73.6 519.22 73.59 519.22 73.58 519.21 73.57 519.2 73.58 519.18 73.58 519.17 73.57 519.15 73.56 519.14 73.57 519.12 73.58 519.1 73.6 519.08 73.63 519.07 73.62 519.06 73.63 519.03 73.64 519.01 73.64 518.99 73.64 518.98 73.66 518.96 73.66 518.94 73.67 518.92 73.67 518.89 73.65 518.86 73.63 518.86 73.62 518.87 73.61 518.88 73.6 518.88 73.6 518.88 73.59 518.88 73.57 518.88 73.56 518.86 73.55 518.85 73.55 518.84 73.54 518.82 73.54 518.79 73.54 518.78 73.55 518.77 73.56 518.73 73.6 518.71 73.62 518.68 73.63 518.66 73.63 518.62 73.62 518.6 73.62 518.57 73.63 518.56 73.64 518.53 73.65 518.5 73.65 518.49 73.64 518.47 73.63 518.45 73.62 518.41 73.6 518.39 73.6 518.37 73.62 518.34 73.62 518.32 73.61 518.3 73.6 518.28 73.62 518.26 73.63 518.23 73.64 518.22 73.63 518.2 73.62 518.18 73.6 518.16 73.59 518.15 73.57 518.14 73.56 518.12 73.56 518.1 73.57 518.08 73.59 518.05 73.62 518.03 73.64 518.02 73.67 518 73.68 517.98 73.71 517.97 73.73 517.95 73.75 517.93 73.76 517.91 73.74 517.9 73.73 517.89 73.7 517.88 73.69 517.87 73.69 517.85 73.71 517.83 73.72 517.81 73.73 517.79 73.74 517.77 73.73 517.76 73.71 517.74 73.71 517.72 73.73 517.69 73.77 517.67 73.78 517.65 73.78 517.63 73.81 517.62 73.82 517.61 73.86 517.6 73.88 517.59 73.9 517.57 73.91 517.55 73.91 517.52 73.9 517.5 73.89 517.48 73.88 517.46 73.88 517.43 73.89 517.4 73.9 517.35 73.9 517.3 73.92 517.26 73.94 517.22 73.96 517.19 73.98 517.17 73.99 517.16 74 517.15 74.01 517.12 74.01 517.11 74.02 517.09 74.04 517.07 74.04 517.06 74.05 517.04 74.06 517.02 74.06 516.98 74.06 516.96 74.06 516.94 74.06 516.9 74.05 516.87 74.05 516.83 74.04 516.78 74.03 516.76 74.01 516.74 74 516.71 73.98 516.69 73.94 516.65 73.89 516.63 73.87 516.6 73.86 516.53 73.85 516.47 73.83 516.46 73.82 516.43 73.79 516.41 73.76 516.39 73.73 516.37 73.7 516.35 73.69 516.34 73.68 516.33 73.68 516.3 73.66 516.27 73.65 516.24 73.64 516.23 73.64 516.2 73.67 516.17 73.69 516.14 73.72 516.13 73.74 516.12 73.75 516.1 73.75 516.07 73.74 516.06 73.73 516.04 73.71 516.03 73.69 516.03 73.67 516.04 73.66 516.04 73.64 516.04 73.63 516.03 73.62 516.02 73.61 516 73.61 515.97 73.6 515.93 73.58 515.91 73.57 515.89 73.56 515.88 73.56 515.84 73.57 515.8 73.46 515.73 73.17 515.71 73 515.7 72.81 515.69 72.65 515.71 72.55 515.76 72.32 515.83 72.07 515.91 71.74 515.96 71.58 516.1 71.13 516.11 71 516.09 70.87 516.07 70.77 516.03 70.68 515.98 70.6 515.88 70.52 515.78 70.44 515.65 70.31 515.56 70.2 515.42 70.04 515.37 69.97 515.32 69.86 515.26 69.73 515.09 69.36 515.02 69.23 514.93 69 514.9 68.88 514.89 68.82 514.89 68.77 514.9 68.71 514.9 68.67 514.91 68.63 514.93 68.58 515 68.47 515.06 68.36 515.11 68.26 515.13 68.17 515.14 68.07 515.11 67.97 515.08 67.89 515.02 67.83 514.94 67.79 514.85 67.77 514.83 67.77 514.72 67.77 514.52 67.81 514.22 67.9 513.93 68.01 513.39 68.16 513.09 68.28 512.77 68.37 512.51 68.42 512.24 68.43 511.95 68.38 511.73 68.33 511.44 68.23 511.22 68.15 510.91 68.06 510.52 67.96 510.48 67.94 510.18 67.84 509.85 67.58 509.68 67.43 509.5 67.09 509.28 66.92 509.26 66.86 509.25 66.83 509.24 66.79 509.16 66.53 508.8 66.02 508.69 66.08 508.28 66.27 508.03 66.16 507.81 66.03 507.71 65.88 507.62 65.87 507.61 65.87 507.48 65.84 507.38 65.82 507.35 65.83 507.35 65.8 507.33 65.78 507.33 65.76 507.32 65.74 507.35 65.73 507.38 65.72 507.4 65.72 507.43 65.7 507.46 65.68 507.48 65.67 507.42 65.58 507.4 65.56 507.39 65.56 507.39 65.55 507.38 65.54 507.39 65.53 507.39 65.53 507.41 65.52 507.42 65.53 507.61 65.6 507.63 65.6 507.7 65.72 507.73 65.72 507.77 65.77 507.82 65.81 507.84 65.81 507.85 65.81 507.87 65.81 507.88 65.8 507.88 65.79 507.88 65.77 507.89 65.77 507.94 65.77 508 65.76 508.08 65.75 508.16 65.73 508.24 65.7 508.35 65.65 508.46 65.59 508.54 65.53 508.62 65.46 508.68 65.4 508.79 65.3 508.88 65.21 508.95 65.15 509.07 65.05 509.17 64.96 509.21 64.92 509.35 64.81 509.51 64.68 509.6 64.6 509.68 64.53 509.75 64.45 509.8 64.39 509.83 64.33 509.86 64.27 509.91 64.2 509.97 64.13 510.03 64.06 510.08 64 510.11 63.91 510.13 63.86 510.15 63.75 510.17 63.65 510.17 63.56 510.17 63.45 510.15 63.36 510.14 63.3 510.15 63.27 510.16 63.26 510.18 63.25 510.18 63.23 510.2 63.19 510.21 63.15 510.21 63.07 510.2 63.03 510.19 62.96 510.19 62.92 510.19 62.89 510.21 62.82 510.2 62.72 510.17 62.53 510.16 62.43 510.14 62.33 510.11 62.2 510.05 62.01 510.03 61.94 510.01 61.92 509.98 61.85 509.91 61.75 509.85 61.66 509.72 61.51 509.71 61.51 509.61 61.39 509.33 61.38 509.29 61.38 509.15 61.42 509.11 61.44 509.05 61.44 509.03 61.45 509.01 61.46 508.99 61.46 508.97 61.47 508.95 61.47 508.94 61.46 508.93 61.43 508.93 61.4 508.93 61.38 508.91 61.36 508.91 61.34 508.9 61.31 508.89 61.3 508.88 61.3 508.86 61.3 508.85 61.28 508.86 61.27 508.89 61.26 508.89 61.24 508.89 61.23 508.8 61.24 508.79 61.23 508.76 61.21 508.74 61.2 508.75 61.19 508.8 61.18 508.86 61.17 508.88 61.15 508.9 61.13 508.91 61.11 508.91 61.08 508.92 61.07 508.93 61.06 508.95 61.04 508.97 61.02 508.99 61 508.99 60.98 509 60.96 509.02 60.95 509.04 60.94 509.06 60.93 509.07 60.94 509.1 60.95 509.12 60.95 509.15 60.94 509.17 60.92 509.2 60.9 509.24 60.88 509.26 60.85 509.27 60.83 509.29 60.81 509.31 60.8 509.34 60.78 509.36 60.76 509.37 60.74 509.38 60.71 509.4 60.67 509.41 60.63 509.42 60.61 509.44 60.59 509.45 60.6 509.47 60.61 509.49 60.59 509.52 60.55 509.54 60.51 509.56 60.48 509.56 60.47 509.57 60.45 509.58 60.42 509.59 60.4 509.6 60.39 509.63 60.37 509.65 60.36 509.67 60.35 509.7 60.34 509.73 60.33 509.76 60.32 509.79 60.29 509.81 60.26 509.84 60.23 509.86 60.2 509.87 60.16 509.87 60.15 509.88 60.12 509.89 60.09 509.9 60.08 509.9 60.06 509.89 60.04 509.88 60.03 509.88 60 509.89 59.97 509.89 59.95 509.88 59.94 509.89 59.92 509.9 59.9 509.89 59.89 509.88 59.88 509.85 59.88 509.84 59.86 509.83 59.84 509.83 59.83 509.82 59.82 509.84 59.8 509.85 59.79 509.86 59.77 509.88 59.75 509.9 59.73 509.91 59.71 509.93 59.7 509.96 59.69 509.99 59.68 510.02 59.69 510.05 59.69 510.07 59.69 510.08 59.7 510.11 59.71 510.12 59.71 510.13 59.73 510.15 59.73 510.18 59.73 510.2 59.73 510.22 59.74 510.25 59.75 510.27 59.76 510.29 59.77 510.31 59.77 510.33 59.75 510.35 59.75 510.36 59.75 510.39 59.77 510.41 59.78 510.42 59.8 510.42 59.81 510.44 59.81 510.47 59.8 510.48 59.79 510.5 59.79 510.53 59.79 510.56 59.79 510.59 59.79 510.61 59.78 510.62 59.76 510.65 59.75 510.67 59.75 510.69 59.74 510.71 59.71 510.72 59.69 510.73 59.66 510.74 59.63 510.74 59.6 510.75 59.57 510.77 59.53 510.79 59.5 510.81 59.47 510.82 59.45 510.83 59.42 510.85 59.4 510.86 59.38 510.88 59.36 510.9 59.34 510.92 59.33 510.94 59.32 510.97 59.32 511 59.32 511.04 59.33 511.06 59.34 511.09 59.35 511.12 59.36 511.14 59.37 511.17 59.4 511.2 59.41 511.22 59.42 511.25 59.4 511.26 59.39 511.25 59.37 511.26 59.36 511.25 59.34 511.25 59.36 511.23 59.36 511.22 59.35 511.22 59.32 511.22 59.29 511.24 59.25 511.25 59.21 511.27 59.18 511.29 59.17 511.32 59.17 511.36 59.17 511.37 59.18 511.38 59.19 511.37 59.21 511.37 59.23 511.38 59.24 511.37 59.26 511.38 59.27 511.39 59.28 511.4 59.29 511.41 59.3 511.44 59.32 511.48 59.32 511.52 59.32 511.57 59.31 511.6 59.3 511.61 59.27 511.63 59.24 511.66 59.21 511.68 59.18 511.7 59.15 511.72 59.13 511.73 59.11 511.74 59.08 511.74 59.06 511.75 59.04 511.76 59.03 511.78 59.03 511.79 59.05 511.81 59.04 511.83 59.04 511.88 59.03 511.9 59.02 511.93 59.01 511.94 58.98 511.96 58.95 511.97 58.94 511.98 58.92 512.01 58.9 512.04 58.89 512.06 58.87 512.08 58.87 512.1 58.88 512.12 58.89 512.13 58.89 512.18 58.88 512.21 58.87 512.23 58.87 512.28 58.87 512.32 58.85 512.36 58.83 512.4 58.82 512.45 58.82 512.48 58.81 512.51 58.81 512.55 58.8 512.58 58.78 512.61 58.77 512.62 58.78 512.64 58.78 512.67 58.78 512.7 58.77 512.73 58.74 512.74 58.73 512.76 58.74 512.78 58.75 512.82 58.76 512.86 58.76 512.89 58.74 512.92 58.73 512.95 58.71 512.97 58.71 512.98 58.72 512.99 58.73 513.01 58.75 513.04 58.77 513.06 58.79 513.09 58.8 513.12 58.79 513.15 58.76 513.16 58.77 513.16 58.78 513.16 58.81 513.16 58.84 513.17 58.87 513.19 58.9 513.22 58.92 513.26 58.94 513.3 58.95 513.33 58.95 513.35 58.95 513.37 58.96 513.4 58.95 513.43 58.93 513.45 58.93 513.47 58.93 513.5 58.94 513.52 58.96 513.56 58.97 513.59 58.98 513.6 58.99 513.63 58.99 513.65 58.97 513.66 58.98 513.66 59 513.68 59.01 513.71 59.02 513.73 59.02 513.75 59.03 513.78 59.04 513.8 59.04 513.84 59.05 513.87 59.05 513.91 59.04 513.94 59.03 513.98 59.01 514.01 59.01 514.04 59.01 514.08 59.01 514.12 59.02 514.17 59.02 514.21 59.02 514.22 59.02 514.24 59.02 514.29 58.99 514.53 58.84 514.62 58.76 514.85 58.61 514.96 58.53 515.03 58.47 515.04 58.44 515.05 58.42 515.07 58.4 515.09 58.37 515.14 58.32 515.21 58.27 515.27 58.22 515.33 58.18 515.38 58.14 515.44 58.09 515.5 58.05 515.55 58.02 515.62 57.98 515.67 57.96 515.72 57.93 515.79 57.91 515.85 57.88 515.94 57.82 515.99 57.78 516.03 57.76 516.12 57.69 516.11 57.67 516.12 57.65 516.14 57.67 516.15 57.69 516.17 57.73 516.2 57.76 516.23 57.81 516.25 57.84 516.28 57.85 516.31 57.86 516.34 57.88 516.36 57.9 516.38 57.91 516.39 57.9 516.32 57.84 516.31 57.82 516.29 57.82 516.27 57.8 516.25 57.75 516.23 57.71 516.2 57.66 516.19 57.64 516.2 57.62 516.23 57.59 516.3 57.5 516.36 57.43 516.42 57.37 516.48 57.32 516.54 57.25 516.58 57.21 516.59 57.19 516.6 57.16 516.62 57.12 516.62 57.1 516.62 57.08 516.62 57.05 516.61 57.03 516.61 57.02 516.61 57 516.6 56.98 516.59 56.95 516.58 56.93 516.57 56.89 516.57 56.85 516.56 56.83 516.56 56.8 516.56 56.76 516.56 56.73 516.56 56.71 516.56 56.69 516.55 56.67 516.55 56.65 516.55 56.63 516.55 56.6 516.56 56.57 516.56 56.55 516.56 56.52 516.56 56.51 516.56 56.49 516.55 56.47 516.55 56.45 516.55 56.44 516.55 56.42 516.55 56.4 516.55 56.37 516.56 56.35 516.57 56.32 516.59 56.29 516.6 56.27 516.61 56.25 516.64 56.22 516.66 56.2 516.68 56.18 516.69 56.15 516.7 56.14 516.71 56.12 516.71 56.1 516.71 56.09 516.72 56.07 516.74 56.05 516.77 56.03 516.78 56.03 516.79 56.03 516.79 56.05 516.79 56.06 516.8 56.05 516.82 56.04 516.84 56.04 516.86 56.03 516.87 56.03 516.9 56.03 516.92 56.03 516.94 56.03 516.96 56.03 516.97 56.03 516.98 56.02 517 56.01 517.03 56 517.04 55.99 517.06 55.97 517.07 55.96 517.08 55.94 517.1 55.94 517.12 55.94 517.15 55.93 517.19 55.92 517.2 55.91 517.22 55.9 517.24 55.9 517.26 55.9 517.27 55.89 517.28 55.87 517.3 55.86 517.32 55.86 517.35 55.86 517.36 55.86 517.37 55.87 517.37 55.87 517.37 55.89 517.37 55.9 517.37 55.91 517.39 55.91 517.41 55.91 517.42 55.92 517.43 55.93 517.44 55.94 517.46 55.95 517.5 55.96 517.52 55.96 517.56 55.96 517.59 55.96 517.62 55.95 517.66 55.94 517.67 55.94 517.68 55.94 517.7 55.95 517.72 55.96 517.75 55.98 517.81 55.99 517.85 56 517.91 56.01 517.98 56.01 518 56.01 518.06 56.01 518.08 56 518.1 56 518.13 56 518.16 56 518.2 55.99 518.24 55.98 518.28 55.97 518.32 55.95 518.37 55.94 518.42 55.93 518.45 55.91 518.49 55.89 518.53 55.87 518.57 55.84 518.62 55.82 518.67 55.79 518.72 55.77 518.75 55.76 518.82 55.72 518.87 55.69 518.92 55.65 518.97 55.61 519.02 55.56 519.05 55.51 519.09 55.46 519.14 55.38 519.17 55.34 519.2 55.29 519.21 55.25 519.22 55.21 519.22 55.18 519.23 55.13 519.23 55.1 519.23 55.07 519.23 55.06 519.23 55.04 519.23 55.01 519.23 54.98 519.23 54.96 519.23 54.95 519.23 54.85 519.23 54.83 519.23 54.8 519.23 54.78 519.22 54.77 519.21 54.76 519.18 54.74 519.16 54.71 519.12 54.68 519.1 54.65 519.09 54.62 519.08 54.61 519.07 54.58 519.07 54.57 519.07 54.54 519.07 54.52 519.07 54.49 519.06 54.46 519.07 54.44 519.07 54.4 519.07 54.37 519.06 54.35 519.05 54.32 519.05 54.28 519.04 54.25 519.04 54.22 519.04 54.19 519.04 54.16 519.03 54.15 519.02 54.15 519 54.15 519.01 54.14 519.02 54.13 519.02 54.11 519.03 54.09 519.03 54.07 519.03 54.07 519.03 54.06 519.02 54.05 519.01 54.03 519.01 54.01 519.01 54 519.02 53.99 519.04 53.97 519.05 53.97 519.07 53.98 519.08 53.99 519.1 53.98 519.11 53.98 519.11 53.99 519.09 54 519.08 54.01 519.09 54.02 519.1 54.01 519.12 54 519.14 54 519.15 54 519.16 53.99 519.18 53.99 519.19 53.99 519.2 53.99 519.21 53.99 519.2 54.01 519.2 54.01 519.21 54.02 519.22 54.03 519.23 54.04 519.26 54.05 519.27 54.06 519.29 54.06 519.31 54.06 519.31 54.07 519.32 54.08 519.31 54.09 519.31 54.1 519.32 54.1 519.34 54.11 519.37 54.13 519.38 54.14 519.4 54.14 519.42 54.14 519.44 54.14 519.44 54.12 519.44 54.11 519.45 54.12 519.45 54.13 519.47 54.13 519.49 54.13 519.52 54.13 519.54 54.13 519.56 54.12 519.6 54.11 519.63 54.08 519.67 54.04 519.73 53.98 519.81 53.91 519.89 53.83 519.95 53.76 520.02 53.69 520.11 53.59 520.15 53.54 520.18 53.5 520.2 53.45 520.23 53.39 520.26 53.32 520.29 53.26 520.32 53.2 520.34 53.17 520.35 53.15 520.36 53.1 520.37 53.07 520.38 53.06 520.4 53.01 520.4 52.98 520.41 52.97 520.41 52.94 520.41 52.92 520.42 52.9 520.44 52.87 520.45 52.85 520.47 52.82 520.49 52.79 520.54 52.72 520.58 52.67 520.61 52.62 520.64 52.56 520.66 52.51 520.67 52.49 520.67 52.47 520.66 52.46 520.67 52.46 520.68 52.45 520.68 52.44 520.68 52.43 520.68 52.43 520.7 52.42 520.72 52.41 520.72 52.41 520.73 52.43 520.74 52.43 520.75 52.44 520.76 52.44 520.77 52.44 520.79 52.44 520.8 52.44 520.82 52.44 520.83 52.44 520.84 52.44 520.85 52.44 520.86 52.44 520.87 52.45 520.88 52.45 520.88 52.46 520.88 52.47 520.88 52.48 520.88 52.49 520.89 52.51 520.89 52.52 520.9 52.53 520.92 52.54 520.93 52.54 520.95 52.55 520.97 52.55 520.99 52.55 521.02 52.54 521.06 52.53 521.09 52.52 521.13 52.51 521.16 52.49 521.2 52.47 521.25 52.45 521.26 52.44 Z"/>
</g></svg>