<svg xmlns="http://www.w3.org/2000/svg" version="1.2" baseProfile="tiny" stroke-linecap="round" stroke-linejoin="round" viewBox="629.2 76.8 14.05 22.12"><g xmlns="http://www.w3.org/2000/svg" id="Donostiri">
<path d="M 632.04 78.16 632.33 78 632.85 77.8 632.92 77.72 632.96 77.64 632.97 77.61 633.06 77.49 633.18 77.36 633.31 77.24 633.38 77.14 633.44 77.07 633.48 76.98 633.66 77.05 633.8 77.13 634.18 77.3 634.71 77.58 634.76 77.58 634.75 77.3 634.81 76.87 634.86 76.85 635.4 76.84 635.61 76.82 635.72 76.83 635.94 76.92 636.1 76.97 636.35 77.14 636.55 77.2 636.7 77.35 637.09 77.03 637.19 76.97 637.3 76.84 637.47 76.85 637.47 76.87 637.47 76.89 637.48 76.92 637.51 76.96 637.54 77.01 637.56 77.08 637.56 77.1 637.57 77.11 637.58 77.12 637.6 77.12 637.93 77.36 638.25 77.64 638.45 77.76 638.58 77.78 638.7 77.8 638.56 77.96 638.65 78.12 638.7 78.47 638.7 78.52 638.71 78.63 638.72 78.87 638.73 78.96 638.72 79.03 638.73 79.07 638.73 79.1 638.75 79.14 638.76 79.17 638.77 79.19 638.77 79.25 638.77 79.27 638.78 79.3 638.81 79.37 638.86 79.47 638.87 79.5 638.88 79.51 638.91 79.53 638.97 79.56 639.02 79.59 639.08 79.64 639.14 79.7 639.22 79.78 639.28 79.86 639.33 79.93 639.4 80.02 639.48 80.12 639.52 80.19 639.54 80.23 639.55 80.27 639.55 80.32 639.63 80.56 639.66 80.59 639.68 80.59 639.7 80.59 639.72 80.6 639.74 80.6 639.77 80.62 639.85 80.67 639.94 80.74 640.05 80.81 640.13 80.86 640.2 80.91 640.24 80.94 640.25 80.96 640.26 80.98 640.29 81.04 640.32 81.14 640.33 81.17 640.33 81.2 640.34 81.24 640.35 81.26 640.35 81.28 640.36 81.32 640.37 81.36 640.37 81.38 640.37 81.4 640.37 81.42 640.37 81.44 640.37 81.46 640.37 81.47 640.38 81.49 640.4 81.52 640.51 81.6 640.59 81.66 640.69 81.74 640.79 81.82 640.86 81.89 640.91 81.92 640.93 81.94 640.96 81.95 640.97 81.95 640.98 81.95 640.98 81.97 640.99 81.98 641.02 82.03 641.08 82.1 641.14 82.16 641.17 82.16 641.19 82.19 641.27 82.31 641.31 82.36 641.32 82.38 641.31 82.49 641.3 82.56 641.3 82.6 641.52 82.81 641.61 82.93 641.6 82.94 641.59 82.95 641.58 82.97 641.57 82.98 641.56 83.01 641.56 83.02 641.56 83.04 641.57 83.06 641.57 83.09 641.57 83.11 641.58 83.14 641.59 83.16 641.59 83.18 641.59 83.21 641.59 83.23 641.58 83.25 641.57 83.26 641.56 83.29 641.53 83.32 641.51 83.33 641.47 83.35 641.44 83.36 641.41 83.37 641.38 83.38 641.34 83.4 641.31 83.41 641.28 83.41 641.24 83.42 641.19 83.42 641.13 83.42 641.12 83.42 641.08 83.44 641.07 83.45 641.05 83.46 641.05 83.47 641.04 83.49 641.04 83.51 641.04 83.52 641.05 83.53 641.05 83.54 641.05 83.56 641.05 83.58 641.05 83.6 641.05 83.61 641.05 83.63 641.04 83.64 641.04 83.68 641.04 83.71 641.06 83.76 641.11 83.81 641.13 83.83 641.2 83.96 641.24 84.08 641.27 84.17 641.3 84.28 641.31 84.32 641.78 84.57 642.09 84.76 642.13 84.89 642.03 85.22 641.94 85.38 641.97 85.42 641.97 85.44 642.05 85.57 642.05 85.69 641.87 86.06 641.76 86.16 641.78 86.19 641.66 86.33 641.66 86.34 641.67 86.39 641.68 86.44 641.68 86.49 641.67 86.54 641.8 86.8 641.8 86.86 641.81 86.93 641.82 87.03 641.82 87.08 641.84 87.19 641.85 87.24 641.86 87.27 641.86 87.32 641.85 87.39 641.83 87.48 641.83 87.56 641.83 87.67 641.83 87.7 641.83 87.73 641.82 87.79 641.81 87.86 641.78 87.95 641.72 88.03 641.71 88.07 641.7 88.1 641.69 88.14 641.67 88.16 641.62 88.23 641.52 88.37 641.44 88.47 641.65 88.8 641.68 88.79 641.83 88.65 641.85 88.61 641.91 88.55 642.11 88.35 642.15 88.36 642.25 88.67 642.42 89.06 642.46 89.53 642.49 90 642.53 90.46 642.7 91.53 643.05 92.07 643.08 92.08 643.12 92.09 643.18 92.1 643.21 92.11 643.23 92.13 643.25 92.15 643.24 92.19 643.23 92.19 643.2 92.21 643.15 92.23 643.13 92.25 643.11 92.27 643.09 92.3 643.07 92.32 643.03 92.34 643 92.37 642.72 92.91 642.71 93.36 642.7 93.81 642.69 94.25 642.62 94.42 642.65 94.44 642.69 94.46 642.72 94.48 642.74 94.5 642.78 94.53 642.79 94.54 642.8 94.57 642.8 94.6 642.8 94.63 642.8 94.66 642.8 94.7 642.79 94.76 642.78 94.88 642.78 94.91 642.78 94.96 642.77 95 642.77 95.08 642.79 95.13 642.8 95.14 642.6 95.44 642.63 95.8 642.61 95.83 642.58 95.87 642.55 95.97 642.53 96.02 642.52 96.06 642.5 96.11 642.47 96.15 642.44 96.19 642.4 96.25 642.36 96.29 642.31 96.33 642.26 96.36 642.24 96.38 642.23 96.41 642.22 96.44 642.21 96.48 642.19 96.54 642.16 96.62 642.12 96.69 642.08 96.75 642.04 96.81 642.02 96.85 642.01 96.92 641.94 96.93 641.88 96.95 641.84 96.97 641.8 97 641.76 97.06 641.71 97.11 641.67 97.18 641.59 97.29 641.51 97.38 641.4 97.47 641.27 97.59 641.15 97.68 641.03 97.8 640.88 97.93 640.83 97.98 640.57 98.33 640.34 98.84 640.28 98.9 640.18 98.76 640.02 98.68 639.88 98.69 639.56 98.76 639.56 98.75 639.62 98.53 639.97 98.28 639.97 97.95 640 97.89 640.04 97.68 640.02 97.42 639.98 97.4 639.75 97.54 639.61 97.6 639.57 97.2 639.65 97.01 639.58 96.96 639.48 96.87 639.38 96.78 639.32 96.72 639.27 96.69 639.23 96.67 639.17 96.64 639.09 96.61 639.02 96.58 638.99 96.57 638.95 96.56 638.92 96.56 638.9 96.56 638.86 96.56 638.81 96.56 638.63 96.62 638.61 96.61 638.59 96.59 638.57 96.56 638.55 96.54 638.5 96.48 638.47 96.46 638.44 96.44 638.42 96.42 638.35 96.36 638.33 96.34 638.34 96.3 638.35 96.27 638.35 96.23 638.35 96.22 638.35 96.19 638.35 96.18 638.35 96.15 638.35 96.13 638.35 96.1 638.34 96.08 638.32 96.04 638.3 96.02 638.3 96 638.3 95.98 638.3 95.95 638.3 95.93 638.3 95.9 638.31 95.88 637.84 95.5 637.45 94.9 637.06 94.29 636.67 93.69 636.2 93.25 635.98 93.12 635.63 92.84 635.11 92.51 634.83 92.3 634.82 92.17 634.81 92.03 634.81 91.89 634.81 91.79 634.8 91.68 634.87 91.38 634.81 91.11 634.49 90.42 634.44 90.21 634.71 90.09 634.94 89.76 634.89 89.55 634.73 89.23 634.61 89.15 634.43 88.94 634.4 88.92 634.39 88.91 634.38 88.9 634.37 88.89 634.37 88.89 634.35 88.88 634.33 88.88 634.31 88.89 634.3 88.89 634.29 88.91 634.24 88.98 634.23 89 634.21 89.02 634.2 89.02 634.17 89.03 634.16 89.03 634.14 89.03 634.11 89.02 634.09 89.02 634.08 89.01 634.07 89 634.06 88.99 634.06 88.97 634.06 88.96 634.06 88.95 634.05 88.92 634.05 88.92 634.04 88.91 634.02 88.91 634.01 88.91 633.85 88.69 633.67 88.47 633.43 88.01 633.41 87.86 633.33 87.86 633.31 87.86 633.28 87.85 633.25 87.84 633.21 87.8 633.19 87.8 633.12 87.8 632.96 87.8 632.85 87.79 632.8 87.78 632.78 87.79 632.77 87.79 632.75 87.8 632.73 87.79 632.71 87.78 632.7 87.77 632.69 87.75 632.67 87.74 632.59 87.68 632.5 87.64 632.48 87.4 632.25 87.15 631.89 86.84 631.88 86.84 631.87 86.83 631.85 86.82 631.84 86.79 631.82 86.77 631.78 86.74 631.75 86.73 631.73 86.71 631.71 86.7 631.68 86.7 631.65 86.7 631.6 86.7 631.56 86.7 631.52 86.7 631.48 86.7 631.44 86.7 631.4 86.7 631.35 86.68 631.31 86.67 631.28 86.65 631.26 86.64 631.23 86.62 631.2 86.6 631.14 86.55 631.05 86.47 630.98 86.42 630.92 86.37 630.85 86.31 630.81 86.27 630.79 86.22 630.78 86.2 630.77 86.18 630.76 86.15 630.76 86.1 630.76 86.02 630.77 85.97 630.78 85.91 630.78 85.86 630.78 85.81 630.78 85.77 630.79 85.73 630.79 85.71 630.79 85.68 630.8 85.65 630.81 85.57 630.83 85.51 630.83 85.47 630.83 85.06 630.76 84.7 630.54 84.51 630.53 84.48 630.52 84.45 630.51 84.43 630.48 84.39 630.44 84.34 630.4 84.28 630.35 84.22 630.33 84.19 630.3 84.15 630.26 84.09 630.22 84.04 630.18 83.99 630.15 83.96 630.12 83.92 630.08 83.88 630.06 83.86 630.03 83.84 630 83.83 629.97 83.82 629.94 83.8 629.9 83.78 629.86 83.75 629.83 83.72 629.8 83.68 629.78 83.64 629.76 83.61 629.76 83.57 629.75 83.53 629.75 83.49 629.73 83.42 629.73 83.36 629.72 83.32 629.72 83.3 629.7 83.28 629.68 83.26 629.66 83.24 629.65 83.23 629.63 83.22 629.62 83.22 629.61 83.21 629.6 83.2 629.58 83.19 629.56 83.17 629.54 83.15 629.53 83.14 629.5 83.12 629.48 83.1 629.46 83.09 629.44 83.07 629.43 83.05 629.41 83.04 629.4 83.03 629.39 83.02 629.38 83 629.37 82.98 629.35 82.97 629.34 82.96 629.34 82.95 629.33 82.93 629.31 82.9 629.3 82.88 629.29 82.86 629.27 82.85 629.26 82.84 629.26 82.81 629.25 82.78 629.25 82.76 629.24 82.74 629.24 82.72 629.23 82.69 629.23 82.67 629.23 82.67 629.24 82.65 629.24 82.63 629.24 82.61 629.23 82.6 629.22 82.58 629.21 82.57 629.21 82.56 629.2 82.55 629.33 81.84 629.35 81.83 629.36 81.8 629.36 81.75 629.36 81.68 629.36 81.66 629.36 81.62 629.36 81.53 629.36 81.45 629.37 81.32 629.38 81.17 629.38 81.1 629.38 81.06 629.38 80.98 629.39 80.87 629.39 80.84 629.41 80.77 629.42 80.71 629.43 80.66 629.43 80.65 629.45 80.62 629.46 80.6 629.46 80.59 629.47 80.58 629.47 80.55 629.48 80.53 629.48 80.52 629.49 80.51 629.49 80.49 629.49 80.48 629.49 80.46 629.5 80.44 629.5 80.43 629.51 80.42 629.51 80.4 629.52 80.38 629.53 80.35 629.54 80.33 629.55 80.31 629.56 80.3 629.57 80.27 629.57 80.25 629.57 80.22 629.57 80.2 629.56 80.17 629.56 80.15 629.56 80.11 629.56 80.1 629.56 80.08 629.57 80.06 629.57 80.04 629.58 80.01 629.59 79.99 629.6 79.98 629.61 79.96 629.62 79.95 629.63 79.93 629.64 79.89 629.66 79.85 629.67 79.84 629.68 79.82 629.7 79.8 629.71 79.79 629.72 79.77 629.73 79.74 629.74 79.7 629.75 79.68 629.77 79.66 629.77 79.64 629.78 79.62 629.79 79.6 629.81 79.57 629.83 79.56 629.88 79.54 629.91 79.52 629.94 79.48 629.97 79.44 629.98 79.39 630 79.34 630.01 79.31 630 79.27 630.01 79.22 630.03 79.2 630.06 79.18 630.09 79.14 630.11 79.11 630.12 79.09 630.09 79.01 630.13 79.02 630.16 79.03 630.2 79.03 630.24 79.03 630.28 79.03 630.32 79.03 630.36 79.02 630.4 79.01 630.44 79 630.47 78.99 630.48 79 630.5 79 630.51 79.02 630.53 79.04 630.55 79.07 630.57 79.09 630.58 79.11 630.61 79.12 630.64 79.12 630.68 79.12 630.71 79.12 630.74 79.12 630.77 79.12 630.81 79.12 630.85 79.12 630.89 79.13 630.92 79.14 630.97 79.15 631.12 79.08 631.35 78.84 631.72 78.39 632.04 78.16 Z"/>
</g></svg>