<svg xmlns="http://www.w3.org/2000/svg" version="1.2" baseProfile="tiny" stroke-linecap="round" stroke-linejoin="round" viewBox="258.7 273.4 22.3 29.57"><g xmlns="http://www.w3.org/2000/svg" id="Dulantzi">
<path d="M 274.58 275.12 275.24 275.1 275.84 275 276.13 275.12 277.13 275.86 277.68 276.28 278.18 276.85 278.63 277.38 279.03 277.68 279.55 277.82 279.96 277.96 280.43 278.32 280.98 278.68 280.99 278.68 280.38 279.72 279.9 280.55 279.62 281.33 279.6 281.63 279.6 281.81 279.28 281.94 278.95 281.97 278.58 281.95 278.09 282.14 277.54 282.47 277.32 282.77 277.45 283.05 277.77 283.21 277.93 283.41 277.69 283.59 277.48 283.78 277.46 284.04 277.52 284.17 277.63 284.56 278.02 285.12 278.34 285.51 278.59 285.71 277.94 285.72 277.65 285.98 277.36 286.47 277.08 286.75 277.06 286.96 276.83 286.97 276.47 286.76 275.91 286.23 275.2 285.74 274.53 285.44 273.67 285.8 272.86 286.22 271.83 286.76 271.79 287.08 271.85 287.49 272.02 288.05 272.07 288.59 271.89 289.13 271.74 289.98 271.87 290.37 272.34 291.07 272.84 291.88 272.23 292.14 272.45 292.73 272.55 293.35 272.61 293.97 272.73 294.41 272.98 294.52 273.31 294.54 273.38 295.78 273.44 297.32 273.56 298.81 273.85 300.06 273.61 300.1 273.28 300.41 272.97 300.83 272.6 301.1 272.16 301.21 271.51 301.09 271.15 300.91 270.74 300.87 270.66 300.9 270.38 300.31 269.92 299.41 269.63 298.44 269.67 297.45 270.04 296.48 270.1 295.82 269.93 295.44 269.94 294.83 269.94 294.29 269.66 293.84 269.38 293.33 269.43 292.57 269.59 291.89 269.52 291.03 269.42 290.05 269.51 289.13 269.25 288.35 268.9 287.67 268.43 286.83 268.23 286.46 268.04 285.91 267.98 285.43 267.92 285.1 267.75 284.76 267.51 284.7 267.11 284.62 266.85 284.62 266.3 284.62 265.95 284.63 265.55 284.74 265.24 284.83 265.34 284.54 265.4 284.2 265.37 283.43 265.35 282.78 265.38 282.18 265.46 281.55 265.48 280.91 265.32 280.24 265.12 279.54 264.96 278.93 264.85 278.23 264.73 277.47 264.81 277.06 265.24 277.02 265.78 277.09 266.12 277.1 266.31 276.97 266.42 276.54 266.49 276.1 266.51 275.43 266.62 274.75 266.67 274.37 266.77 274.18 267.2 273.69 267.66 273.55 268.2 273.42 268.72 273.44 269.32 273.53 269.88 273.61 270.85 273.56 271.51 273.76 271.97 274.18 272.35 274.54 272.79 274.82 273.29 274.93 273.8 275.05 274.37 275.13 274.58 275.12 Z M 263.12 301.88 263.12 301.89 262.41 302.27 261.67 302.65 260.88 302.89 260.37 302.93 259.86 302.95 259.04 300.51 258.71 298.14 258.77 297.11 259.28 295.78 259.38 295.76 259.51 295.69 260.14 295.27 260.26 295.06 260.36 294.9 260.27 294.61 260.24 294.11 260.28 293.53 260.31 293.19 260.32 292.79 261.41 291.09 261.54 290.37 261.64 289.64 261.71 288.61 262.9 288.36 262.91 288.35 262.93 288.53 263.14 288.75 263.33 289.07 263.44 289.47 263.76 289.74 263.86 289.97 263.88 290.29 263.97 290.57 264.27 291.39 264.43 292.1 264.25 292.88 264.14 293.51 263.8 293.97 263.43 294.44 263.25 294.81 263.26 295.29 263.41 296.07 263.51 296.64 263.46 297.4 263.43 298.24 263.34 299.29 263.3 300.22 263.22 300.72 263.03 301.07 263.01 301.43 263.12 301.88 Z"/>
</g></svg>