<svg xmlns="http://www.w3.org/2000/svg" version="1.2" baseProfile="tiny" stroke-linecap="round" stroke-linejoin="round" viewBox="216 151.12 23.07 11.02"><g xmlns="http://www.w3.org/2000/svg" id="Durango">
<path d="M 237.09 152.12 237.19 152.19 237.2 152.37 237.21 152.83 237.05 153.44 237.1 153.51 237.43 153.72 237.64 153.73 237.72 153.87 237.92 154.39 237.93 154.4 237.98 154.56 237.95 154.61 238.18 154.75 238.27 154.91 238.44 155.21 238.61 155.47 238.53 155.57 238.82 155.91 238.91 156.07 239 156.18 238.94 156.26 239.04 156.44 238.92 156.54 238.87 156.56 238.49 156.61 238.29 156.56 238.27 156.61 238.27 156.66 238.28 156.72 238.31 156.83 238.4 156.99 238.44 157.09 238.5 157.44 238.84 157.96 238.91 158.08 238.67 159.03 238.67 159.1 238.63 159.32 238.65 159.43 238.63 159.53 238.61 159.62 238.59 159.8 238.6 159.96 237.97 160 237.81 160.04 237.59 160.14 236.99 160.51 236.93 160.56 236.89 160.6 236.8 160.7 236.72 160.77 236.67 160.8 236.57 160.85 236.5 160.85 236.46 160.85 236.39 160.86 235.99 160.95 235.94 160.98 235.85 161.24 235.75 161.38 235.76 161.48 235.78 161.56 235.1 162.12 234.34 161.56 232.52 160.21 232.66 160.16 232.75 160.1 232.77 160.07 232.81 160 232.84 159.89 232.91 159.64 232.93 159.59 232.94 159.57 232.96 159.54 232.99 159.5 233.03 159.45 233.73 158.92 233.52 158.71 232.94 158.54 232.58 158.48 232.39 158.38 232.24 158.3 232.2 158.27 232.17 158.23 232.16 158.17 232.15 158.06 232.29 157.77 231.78 157.13 231.93 156.65 231.85 155.7 230.93 155.91 230.69 156.03 230.64 156.05 230.45 156.25 230.24 156.47 229.93 157.04 229.39 157.37 228.88 157.91 228.53 158.5 228.25 160.3 227.1 160.41 226.43 160.38 226.11 160.35 225.25 160.35 223.97 160.71 222.11 160.32 220.64 160.02 218.75 159.63 218.48 159.77 218.45 159.78 218.32 159.88 218.23 159.96 218.09 160.1 217.86 160.34 217.75 160.51 217.61 160.73 217.41 161.04 217.21 161.35 217 161.67 216.78 161.42 216.64 160.92 216.6 160.77 216.52 160.4 216.46 160.09 216.39 159.78 216.37 159.73 216.26 159.42 216.17 159.2 216.16 159.14 216.1 158.94 216.08 158.86 216.01 158.54 216.51 158.71 216.56 158.43 216.6 158.19 216.64 157.92 216.66 157.8 216.8 157.25 216.7 157 216.73 156.65 216.75 156.43 217 155.85 217.09 155.64 217.09 155.53 217.08 155.47 217.09 155.43 217.11 155.41 217.22 155.32 217.35 155.2 217.52 155.05 217.6 154.97 217.65 154.92 217.69 154.88 217.75 154.8 217.89 154.62 218.11 154.48 218.32 154.34 218.54 154.19 218.87 153.98 219.55 153.25 220.45 152.94 220.6 153.1 220.78 153.18 220.96 153.2 221.03 153.19 221.42 153.16 222.35 153.05 222.41 154.15 222.51 154.46 222.62 155.06 223.12 155.25 223.5 155.3 224.12 155.44 224.24 155.41 225.22 155.1 225.63 155.11 225.89 155.28 226.05 155.29 226.14 155.31 226.24 155.34 226.31 155.4 226.52 155.94 226.81 155.96 227.27 155.79 227.73 155.52 228.17 155.27 228.51 155.47 228.53 155.74 228.68 155.87 228.55 156.12 228.78 156.31 229.47 155.41 229.87 155.03 230.02 154.43 230.22 153.77 230.34 153.37 230.4 153.16 230.72 153.16 230.96 151.69 231.01 151.78 231.08 151.88 231.09 151.9 231.2 151.95 231.36 152 231.42 152.04 231.54 152.04 231.6 152.04 231.98 151.98 232.22 151.94 232.52 151.85 232.74 151.86 232.79 151.86 232.83 151.85 232.93 151.8 233.04 151.72 233.14 151.64 233.41 151.38 233.45 151.34 233.5 151.3 233.61 151.23 233.66 151.21 233.75 151.18 233.95 151.13 234 151.13 234.03 151.15 234.06 151.17 234.21 151.44 234.32 151.49 234.42 151.5 234.47 151.49 234.51 151.47 234.67 151.36 234.72 151.34 234.77 151.32 234.83 151.3 234.97 151.29 235.14 151.32 235.26 151.32 235.31 151.33 235.37 151.36 235.41 151.39 235.51 151.46 235.78 151.71 236.07 151.9 236.38 152.07 236.44 152.08 236.5 152.09 236.77 152.11 237.07 152.11 237.09 152.12 Z"/>
</g></svg>