<svg xmlns="http://www.w3.org/2000/svg" version="1.2" baseProfile="tiny" stroke-linecap="round" stroke-linejoin="round" viewBox="646.63 142.48 23.37 11.72"><g xmlns="http://www.w3.org/2000/svg" id="Duzunaritze-Sarrasketa">
<path d="M 650.3 144.7 650.67 144.84 650.67 144.88 650.68 145 650.72 145.22 650.72 145.27 650.73 145.32 650.73 145.34 650.82 145.26 650.98 145.1 651.05 145.01 651.07 144.99 651.13 144.93 651.29 144.77 651.52 144.57 651.7 144.41 651.73 144.39 651.88 144.32 651.99 144.28 652.01 144.28 652.26 144.42 652.63 144.69 652.65 144.87 653.3 145.04 653.65 144.9 653.74 144.88 653.89 144.83 654.16 144.73 654.36 144.65 654.41 144.64 654.62 144.56 654.64 144.56 655.65 144.15 655.99 144.01 656.34 144.18 656.36 144.17 656.38 144.17 656.44 144.19 656.52 144.21 656.58 144.23 656.66 144.26 656.7 144.27 656.73 144.28 656.82 144.32 656.87 144.35 656.89 144.37 656.92 144.38 656.94 144.38 656.98 144.4 657.05 144.42 657.07 144.43 657.09 144.44 657.11 144.45 657.14 144.45 657.16 144.45 657.19 144.45 657.23 144.46 657.28 144.47 657.3 144.48 657.32 144.49 657.34 144.5 657.37 144.53 657.43 144.57 657.51 144.62 657.55 144.63 657.58 144.64 657.61 144.65 657.62 144.66 657.68 144.68 657.78 144.7 657.8 144.71 657.81 144.71 657.84 144.71 657.85 144.72 657.93 144.76 657.95 144.77 657.98 144.78 658.08 144.79 658.18 144.79 658.28 144.79 658.4 144.79 658.52 144.8 658.6 144.8 658.64 144.8 658.66 144.8 658.67 144.8 658.69 144.79 658.71 144.78 658.73 144.77 658.76 144.77 658.76 144.8 658.77 144.81 658.81 144.83 659.56 144.33 659.57 144.29 659.57 144.27 659.58 144.26 659.61 144.24 659.74 144.15 659.8 144.11 659.89 144.07 660.01 144.02 660.14 143.97 660.27 143.92 660.33 143.89 660.36 143.87 660.39 143.84 660.43 143.81 660.49 143.75 660.54 143.71 660.57 143.68 660.62 143.65 660.68 143.62 660.75 143.58 660.8 143.54 660.87 143.49 660.96 143.42 661.05 143.36 661.14 143.32 661.22 143.29 661.3 143.28 661.47 143.28 661.26 143.05 661.27 143.04 661.33 142.97 661.49 142.81 661.53 142.77 661.55 142.73 661.57 142.66 661.6 142.59 661.61 142.57 661.63 142.56 661.65 142.55 661.74 142.56 661.89 142.59 661.95 142.61 661.99 142.62 662.02 142.64 662.06 142.68 662.13 142.73 662.19 142.77 662.23 142.8 662.29 142.82 662.34 142.83 662.43 142.85 662.5 142.86 662.55 142.86 662.59 142.85 662.63 142.84 662.66 142.83 662.69 142.82 662.73 142.8 662.81 142.74 662.91 142.68 663 142.62 663.09 142.56 663.14 142.51 663.16 142.5 663.17 142.49 663.25 142.69 663.89 142.63 664.17 142.56 664.31 142.57 664.42 142.88 664.52 143.38 665.22 143.6 665.67 143.73 666.11 143.81 666.53 144.31 666.36 145.2 666.33 145.57 666.42 146.13 666.48 146.23 666.7 146.34 667.15 146.55 667.43 146.73 667.95 146.59 668.01 146.54 668.13 146.14 668.2 145.91 668.22 145.71 668.26 145.74 668.38 146.02 668.38 146.26 668.27 146.47 668.16 146.59 668.24 146.71 668.34 146.92 668.63 147.59 668.83 147.86 668.82 147.88 668.8 147.96 668.78 148.03 668.78 148.09 668.78 148.11 668.78 148.13 668.81 148.16 668.85 148.2 668.91 148.24 668.98 148.28 669.01 148.29 669.17 148.74 669.34 149.18 669.5 149.62 669.69 150.12 669.87 150.48 669.98 150.88 669.96 150.87 669.91 150.84 669.84 150.79 669.76 150.74 669.73 150.72 669.71 150.72 669.7 150.68 669.69 150.66 669.67 150.64 669.64 150.62 669.54 150.6 669.49 150.59 669.42 150.58 669.31 150.58 669.21 150.59 669.11 150.61 669.07 150.61 669.04 150.62 668.95 150.64 668.9 150.64 668.83 150.64 668.79 150.65 668.74 150.66 668.67 150.7 668.65 150.71 668.62 150.73 668.6 150.74 668.59 150.76 668.56 150.8 668.53 150.85 668.5 150.9 668.46 150.94 668.41 150.96 668.39 150.97 668.35 151.01 668.31 151.04 668.26 151.1 668.23 151.13 668.2 151.18 668.18 151.2 668.14 151.26 668.12 151.29 668.1 151.32 668.1 151.35 668.11 151.47 668.12 151.49 668.11 151.53 668.1 151.55 668.06 151.59 668.01 151.62 667.98 151.65 667.97 151.66 667.95 151.72 667.94 151.79 667.93 151.87 667.92 151.93 667.9 151.98 667.88 152.05 667.87 152.07 667.86 152.07 667.93 152.29 667.84 152.35 667.38 152.48 667.28 152.31 667.05 152.1 666.86 152.03 666.56 152.04 666.3 152.13 666 152.17 665.93 152.16 665.75 152.04 665.6 151.9 665.58 151.69 665.71 151.43 665.69 151.35 665.45 151.18 665.38 151.19 665.17 151.48 665.01 151.79 664.98 151.81 664.86 151.64 664.71 151.3 664.58 151.08 664.43 151.02 664.06 151.01 663.99 150.98 663.43 150.42 663.02 150.14 662.51 149.91 661.63 149.6 661.42 149.6 661.43 149.68 661.57 149.99 661.66 150.32 661.84 150.87 661.75 150.88 660.6 150.72 660.11 150.46 659.84 150.4 659.63 150.27 659.51 150.3 659.25 150.33 659.13 150.29 658.93 150.22 658.75 149.93 658.7 149.93 658.27 150.47 658.24 150.49 658.18 150.52 658.15 150.53 658.12 150.54 658.08 150.54 658.01 150.56 657.92 150.57 657.84 150.59 657.75 150.61 657.69 150.64 657.61 150.68 657.52 150.72 657.44 150.77 657.36 150.8 657.29 150.83 657.16 150.89 657.09 150.93 657.04 150.96 656.98 150.98 656.92 150.99 656.88 151 656.81 151 656.75 151 656.7 151.01 656.63 151.02 656.55 151.04 656.46 151.08 656.44 151.09 656.4 151.11 656.36 151.15 656.33 151.18 656.31 151.22 656.28 151.25 656.25 151.28 656.19 151.34 656.16 151.37 656.14 151.4 656.08 151.44 656.03 151.5 655.98 151.54 655.93 151.61 655.89 151.68 655.87 151.75 655.86 151.77 655.55 151.82 655.3 151.86 655.16 151.81 655.12 151.71 655.06 151.69 654.97 151.63 655.02 151.52 655.02 151.47 654.5 151.35 654.36 151.36 654.29 151.41 653.99 151.46 653.97 151.43 653.96 151.41 653.95 151.4 653.92 151.4 653.9 151.4 653.89 151.4 653.87 151.41 653.85 151.41 653.83 151.39 653.81 151.37 653.69 151.46 653.67 151.45 653.64 151.43 653.58 151.41 653.52 151.41 653.46 151.41 653.39 151.44 653.36 151.45 653.32 151.46 653.29 151.46 653.26 151.46 653.22 151.45 653.01 151.65 652.87 151.51 652.53 151.58 652.74 151.89 653.16 152.05 652.87 152.51 651.95 152.07 651.56 152.16 651.7 152.24 651.71 152.24 651.74 152.24 651.86 152.18 651.89 152.18 651.91 152.17 651.94 152.18 652.24 152.3 652.18 152.46 652.1 152.68 651.87 152.68 651.83 152.5 651.74 152.51 651.32 152.59 651.04 152.61 651.06 152.36 650.96 152.31 650.88 152.28 650.84 152.27 650.81 152.27 650.78 152.27 650.76 152.27 650.73 152.27 650.71 152.28 650.68 152.29 650.65 152.3 650.64 152.3 650.56 152.33 650.51 152.34 650.48 152.35 650.46 152.35 650.43 152.36 650.41 152.37 650.27 152.45 650.24 152.47 650.03 152.5 649.91 152.58 649.92 152.64 649.99 153.2 649.98 153.33 649.35 153.68 648.82 153.78 648.43 153.93 648.34 153.99 648.28 154.19 648.26 154.11 647.89 153.72 647.52 153.33 647.15 152.94 647.22 152.78 647.44 152.59 647.45 152.49 647.13 152.42 646.9 152.4 646.86 152.12 646.91 152.03 647.19 151.84 647.17 151.7 647.07 151.54 646.99 151.58 646.8 151.7 646.73 151.67 646.64 151.52 646.64 151.34 646.74 151.06 646.87 150.84 647.19 150.66 647.89 150.35 648.01 150.3 647.9 150.03 648.35 149.53 648.18 149.36 648.26 149.22 648.35 149.07 648.38 148.87 648.33 148.65 648.39 148.28 648.59 148.07 648.5 147.74 648.44 147.46 648.34 147.27 648.75 146.81 648.86 146.57 648.88 146.27 648.87 145.96 649.03 145.61 648.99 145.4 649.14 145.43 649.29 145.33 649.32 145.33 649.45 145.69 649.47 145.71 649.73 145.69 649.92 145.88 650.02 145.73 650.13 145.66 650.03 145.04 650.12 145.05 650.27 144.78 650.3 144.7 Z"/>
</g></svg>