<svg xmlns="http://www.w3.org/2000/svg" version="1.2" baseProfile="tiny" stroke-linecap="round" stroke-linejoin="round" viewBox="235.37 65.52 21.78 13.15"><g xmlns="http://www.w3.org/2000/svg" id="Ea">
<path d="M 257.14 73.37 257.11 73.67 257.01 73.65 256.56 74.03 255.57 74.76 255.06 75.06 254.77 75.27 254.38 75.51 254.07 76.13 253.81 76.08 253.45 76.01 253.43 75.99 253.39 75.97 253.35 75.94 253.29 75.91 253.22 75.86 253.15 75.82 253.1 75.78 253.05 75.74 252.82 75.66 252.75 75.67 252.67 75.68 252.59 75.69 252.52 75.7 252.47 75.7 252.36 75.69 252.23 75.67 252.12 75.66 251.99 75.63 251.87 75.6 251.73 75.57 251.62 75.55 251.48 75.53 251.22 75.49 251.08 75.47 250.87 75.44 250.69 75.42 250.42 75.38 250.09 75.34 249.47 75.25 249.35 75.2 248.92 75 248.72 74.94 248.51 74.88 248.34 74.84 248.34 74.87 248.33 74.9 248.32 74.93 248.31 74.96 248.3 74.98 248.27 75.01 248.25 75.03 248.22 75.05 248.2 75.08 248.18 75.11 248.16 75.14 248.16 75.16 248.16 75.2 248.15 75.23 248.14 75.27 248.14 75.3 248.14 75.33 248.14 75.37 248.13 75.4 248.12 75.44 248.11 75.49 248.11 75.53 248.1 75.56 248.1 75.61 248.1 75.67 248.09 75.71 248.09 75.73 248.1 75.75 248.11 75.78 248.12 75.82 248.14 75.87 248.15 75.92 248.16 75.96 248.17 76 248.18 76.03 248.18 76.06 248.17 76.09 248.16 76.13 248.14 76.15 248.12 76.17 248.1 76.19 248.06 76.21 248.02 76.24 248 76.26 247.97 76.9 248.24 77.23 248.06 77.36 247.89 77.48 247.79 77.54 247.56 77.7 247.25 77.93 246.76 78.27 246.23 78.64 245.81 78.36 245.65 78.39 245.28 78.45 244.85 78.53 244.86 77.87 244.62 77.45 244.35 77.54 244.09 77.4 243.81 77.38 243.64 77.34 243.31 77.27 243.11 77.08 242.73 77.07 242.51 76.98 242.47 76.94 242.42 76.9 242.36 76.84 242.31 76.79 242.25 76.73 242.09 76.66 242 76.62 241.96 76.61 241.92 76.6 241.88 76.59 241.82 76.59 241.77 76.59 241.76 76.59 241.71 76.59 241.65 76.58 241.57 76.59 241.56 76.59 241.55 76.59 241.51 76.6 241.46 76.61 241.41 76.62 241.37 76.63 241.33 76.64 241.28 76.64 241.24 76.64 241.2 76.64 241.16 76.63 241.12 76.62 241.07 76.61 241.03 76.59 240.98 76.56 240.92 76.53 240.87 76.5 240.81 76.47 240.76 76.44 240.72 76.42 240.68 76.41 240.63 76.41 240.58 76.4 240.53 76.4 240.48 76.39 240.43 76.37 240.38 76.36 240.32 76.35 240.26 76.36 240.21 76.36 240.16 76.37 240.1 76.39 240.05 76.4 240 76.41 239.98 76.42 239.95 76.43 239.94 76.43 239.9 76.46 239.87 76.49 239.83 76.51 239.81 76.53 239.79 76.55 239.77 76.58 239.74 76.6 239.71 76.63 239.66 76.66 239.63 76.67 239.59 76.7 239.56 76.73 239.52 76.75 239.48 76.78 239.44 76.8 239.4 76.81 239.36 76.83 239.32 76.85 239.29 76.86 239.25 76.87 239.2 76.89 239.15 76.91 239.09 76.92 239.04 76.93 238.99 76.94 238.93 76.94 238.88 76.95 238.81 76.95 238.75 76.95 238.7 76.95 238.64 76.96 238.58 76.98 238.56 76.92 238.54 76.87 238.52 76.83 238.5 76.79 238.48 76.75 238.46 76.72 238.44 76.7 238.42 76.67 238.39 76.66 238.36 76.65 238.32 76.64 238.27 76.63 238.23 76.62 238.19 76.62 238.15 76.62 238.08 76.62 238.02 76.62 237.97 76.63 237.93 76.64 237.89 76.65 237.85 76.67 237.81 76.67 237.77 76.67 237.74 76.67 237.69 76.65 237.65 76.64 237.61 76.61 237.55 76.58 237.48 76.53 237.45 76.5 237.42 76.48 237.36 76.47 237.27 76.44 237.39 75.53 237.21 75.43 236.76 75.19 236.33 74.85 236.31 74.8 236.11 74.2 236.09 74.07 236.04 73.7 235.83 73.17 235.4 72.08 235.41 71.72 235.57 71.39 235.74 71.39 235.85 71.4 235.97 71.43 236.29 71.52 236.58 71.71 236.87 70.67 237.12 70.71 237 70.12 237.98 70.19 239.77 66.49 239.8 66.48 239.81 66.48 239.83 66.48 239.86 66.48 239.88 66.48 239.9 66.48 239.92 66.49 239.95 66.49 239.97 66.5 240.01 66.51 240.03 66.51 240.05 66.51 240.1 66.52 240.12 66.52 240.16 66.52 240.23 66.52 240.3 66.52 240.32 66.52 240.34 66.52 240.38 66.5 240.4 66.49 240.42 66.49 240.44 66.49 240.46 66.49 240.48 66.49 240.5 66.49 240.52 66.49 240.54 66.49 240.57 66.47 240.59 66.45 240.6 66.43 240.61 66.41 240.62 66.38 240.61 66.35 240.61 66.33 240.61 66.32 240.64 66.31 240.66 66.31 240.69 66.31 240.82 66.31 240.86 66.31 240.88 66.31 240.91 66.3 240.93 66.3 240.96 66.3 240.98 66.29 241.01 66.29 241.03 66.28 241.05 66.27 241.07 66.26 241.09 66.26 241.11 66.25 241.16 66.25 241.25 66.24 241.27 66.23 241.3 66.22 241.33 66.22 241.36 66.21 241.38 66.2 241.4 66.2 241.43 66.19 241.45 66.19 241.47 66.19 241.5 66.19 241.52 66.19 241.53 66.17 241.52 66.16 241.49 66.14 241.48 66.13 241.45 66.1 241.45 66.09 241.45 66.08 241.46 66.06 241.49 66.05 241.51 66.04 241.53 66.03 241.57 66.02 241.58 66.02 241.62 66.01 241.64 66 241.66 66 241.68 65.99 241.7 65.99 241.72 65.99 241.74 65.99 241.78 65.99 241.8 65.98 241.82 65.98 241.84 65.97 241.86 65.95 241.87 65.92 241.89 65.89 241.91 65.87 241.92 65.86 241.93 65.84 241.96 65.82 241.98 65.79 242 65.77 242.01 65.75 242.03 65.72 242.04 65.69 242.05 65.67 242.06 65.66 242.08 65.65 242.1 65.63 242.12 65.63 242.14 65.65 242.16 65.67 242.17 65.67 242.18 65.66 242.2 65.64 242.23 65.63 242.25 65.62 242.26 65.61 242.28 65.59 242.3 65.59 242.33 65.59 242.36 65.59 242.39 65.6 242.41 65.6 242.43 65.6 242.45 65.6 242.47 65.6 242.49 65.6 242.53 65.6 242.56 65.59 242.58 65.58 242.59 65.57 242.63 65.55 242.64 65.54 242.67 65.54 242.69 65.54 242.71 65.57 242.72 65.6 242.74 65.64 242.75 65.66 242.76 65.69 242.76 65.71 242.75 65.73 242.73 65.78 242.72 65.8 242.71 65.82 242.7 65.85 242.7 65.87 242.69 65.9 242.69 65.92 242.7 65.94 242.7 65.97 242.71 66.01 242.72 66.04 242.73 66.06 242.75 66.12 242.76 66.15 242.77 66.17 242.78 66.19 242.8 66.22 242.82 66.24 242.83 66.26 242.85 66.28 242.87 66.31 242.89 66.33 242.92 66.35 242.94 66.36 242.96 66.38 242.99 66.4 243.01 66.41 243.04 66.42 243.07 66.44 243.1 66.45 243.12 66.46 243.15 66.47 243.25 66.51 243.28 66.52 243.3 66.53 243.33 66.54 243.36 66.55 243.39 66.56 243.41 66.58 243.44 66.59 243.46 66.61 243.47 66.63 243.49 66.65 243.51 66.68 243.52 66.7 243.53 66.72 243.56 66.77 243.58 66.8 243.59 66.82 243.61 66.88 243.63 66.93 243.64 66.95 243.65 66.98 243.66 67 243.67 67.02 243.69 67.04 243.7 67.06 243.73 67.09 243.75 67.11 243.76 67.13 243.78 67.14 243.8 67.15 243.82 67.16 243.84 67.17 243.86 67.18 243.88 67.18 243.9 67.19 243.92 67.19 243.95 67.19 243.97 67.2 244 67.2 244.02 67.2 244.04 67.2 244.06 67.19 244.1 67.18 244.12 67.17 244.14 67.16 244.16 67.15 244.17 67.14 244.19 67.11 244.2 67.09 244.21 67.06 244.24 67.04 244.25 67.03 244.27 67.02 244.29 67.02 244.31 67.01 244.33 66.98 244.36 66.96 244.37 66.96 244.38 66.96 244.4 66.99 244.42 67.03 244.44 67.06 244.45 67.07 244.48 67.08 244.51 67.08 244.53 67.07 244.55 67.07 244.57 67.07 244.59 67.06 244.63 67.05 244.65 67.04 244.68 67.03 244.7 67.02 244.72 67.01 244.75 67 244.77 66.99 244.83 66.97 244.86 66.96 244.88 66.95 244.91 66.94 244.93 66.94 244.95 66.93 244.97 66.94 244.99 66.94 245.01 66.95 245.03 66.96 245.05 66.97 245.07 66.99 245.08 67.01 245.1 67.02 245.12 67.04 245.13 67.06 245.15 67.08 245.16 67.1 245.18 67.13 245.21 67.17 245.22 67.2 245.23 67.22 245.24 67.24 245.26 67.29 245.27 67.31 245.28 67.34 245.3 67.36 245.31 67.37 245.33 67.39 245.34 67.4 245.36 67.42 245.37 67.43 245.38 67.45 245.39 67.47 245.42 67.51 245.44 67.53 245.45 67.55 245.46 67.57 245.47 67.59 245.48 67.62 245.49 67.64 245.5 67.67 245.5 67.69 245.52 67.75 245.53 67.8 245.54 67.83 245.55 67.88 245.55 67.91 245.56 67.93 245.57 67.96 245.57 67.98 245.59 68 245.6 68.02 245.63 68.06 245.64 68.08 245.66 68.09 245.67 68.11 245.69 68.13 245.72 68.16 245.74 68.18 245.76 68.2 245.77 68.22 245.8 68.24 245.82 68.25 245.84 68.27 245.86 68.28 245.89 68.29 245.94 68.3 245.97 68.31 246.01 68.33 246.03 68.34 246.06 68.35 246.08 68.36 246.14 68.38 246.19 68.39 246.22 68.4 246.24 68.41 246.27 68.41 246.29 68.42 246.32 68.42 246.35 68.42 246.37 68.42 246.4 68.42 246.42 68.41 246.45 68.4 246.47 68.39 246.49 68.38 246.52 68.36 246.54 68.35 246.56 68.33 246.59 68.32 246.61 68.31 246.63 68.29 246.65 68.28 246.67 68.26 246.69 68.25 246.74 68.22 246.78 68.2 246.82 68.17 246.84 68.16 246.86 68.15 246.89 68.14 246.91 68.13 246.93 68.12 246.95 68.12 246.97 68.12 246.99 68.11 247.01 68.1 247.02 68.09 247.03 68.08 247.05 68.06 247.07 68.03 247.09 68.02 247.1 68 247.11 67.98 247.12 67.96 247.13 67.95 247.14 67.93 247.15 67.89 247.15 67.87 247.14 67.86 247.14 67.82 247.14 67.81 247.15 67.78 247.17 67.76 247.2 67.75 247.23 67.74 247.25 67.72 247.26 67.7 247.28 67.69 247.3 67.68 247.33 67.68 247.36 67.68 247.37 67.69 247.38 67.71 247.39 67.73 247.4 67.75 247.42 67.76 247.43 67.78 247.45 67.81 247.47 67.84 247.49 67.86 247.51 67.88 247.52 67.88 247.53 67.88 247.54 67.86 247.55 67.83 247.56 67.82 247.59 67.81 247.6 67.82 247.61 67.84 247.62 67.87 247.62 67.9 247.63 67.91 247.65 67.92 247.68 67.92 247.71 67.93 247.73 67.94 247.75 67.94 247.76 67.94 247.79 67.96 247.8 67.98 247.81 68.01 247.81 68.02 247.82 68.03 247.84 68.04 247.85 68.06 247.86 68.09 247.87 68.1 247.88 68.11 247.89 68.11 247.89 68.09 247.9 68.07 247.91 68.06 247.93 68.08 247.94 68.1 247.94 68.1 247.95 68.09 247.96 68.07 247.96 68.07 247.97 68.07 247.98 68.08 248 68.09 248.03 68.1 248.04 68.12 248.05 68.13 248.05 68.16 248.05 68.24 248.05 68.26 248.05 68.28 248.03 68.32 248.03 68.34 248.03 68.37 248.01 68.4 247.99 68.42 247.97 68.43 247.96 68.44 247.94 68.45 247.91 68.47 247.89 68.5 247.88 68.51 247.87 68.53 247.86 68.54 247.86 68.56 247.85 68.59 247.85 68.61 247.85 68.63 247.85 68.65 247.85 68.7 247.86 68.72 247.86 68.74 247.88 68.77 247.89 68.8 247.91 68.82 247.93 68.85 247.94 68.86 247.93 68.91 247.93 68.93 247.93 68.97 247.92 69 247.9 69 247.88 69.01 247.85 69.03 247.82 69.03 247.8 69.03 247.78 69.04 247.76 69.05 247.75 69.06 247.74 69.08 247.74 69.1 247.74 69.14 247.73 69.16 247.72 69.2 247.72 69.22 247.72 69.24 247.72 69.28 247.73 69.31 247.73 69.32 247.72 69.33 247.7 69.34 247.67 69.34 247.65 69.34 247.64 69.33 247.63 69.35 247.62 69.38 247.61 69.42 247.61 69.44 247.61 69.46 247.61 69.48 247.6 69.51 247.6 69.56 247.59 69.61 247.58 69.67 247.58 69.7 247.58 69.72 247.58 69.8 247.58 69.83 247.58 69.85 247.58 69.87 247.59 69.88 247.6 69.91 247.62 69.93 247.65 69.94 247.68 69.96 247.74 69.97 247.76 69.97 247.77 69.97 247.78 69.95 247.79 69.92 247.79 69.89 247.79 69.87 247.8 69.84 247.81 69.81 247.82 69.77 247.83 69.74 247.84 69.71 247.84 69.69 247.83 69.66 247.82 69.63 247.81 69.6 247.81 69.57 247.82 69.55 247.82 69.54 247.84 69.51 247.84 69.51 247.85 69.5 247.86 69.51 247.86 69.52 247.86 69.58 247.86 69.61 247.87 69.64 247.88 69.65 247.89 69.63 247.89 69.61 247.9 69.59 247.91 69.57 247.92 69.55 247.93 69.53 247.94 69.5 247.94 69.48 247.94 69.41 247.94 69.4 247.92 69.41 247.9 69.42 247.89 69.43 247.88 69.44 247.86 69.46 247.84 69.5 247.83 69.51 247.82 69.51 247.81 69.5 247.81 69.49 247.82 69.45 247.84 69.42 247.85 69.41 247.86 69.4 247.87 69.38 247.89 69.36 247.9 69.34 247.92 69.33 247.94 69.32 247.96 69.31 247.98 69.29 248 69.28 248.02 69.26 248.03 69.24 248.05 69.22 248.06 69.21 248.07 69.19 248.08 69.17 248.1 69.15 248.11 69.13 248.13 69.12 248.14 69.1 248.16 69.09 248.18 69.09 248.19 69.08 248.2 69.06 248.22 69.02 248.22 69 248.21 68.97 248.21 68.95 248.21 68.93 248.22 68.91 248.23 68.9 248.25 68.89 248.27 68.87 248.27 68.85 248.28 68.84 248.3 68.82 248.32 68.81 248.34 68.79 248.36 68.78 248.38 68.76 248.41 68.74 248.45 68.72 248.46 68.71 248.48 68.7 248.5 68.69 248.51 68.68 248.53 68.67 248.55 68.66 248.59 68.65 248.61 68.64 248.63 68.63 248.65 68.62 248.67 68.62 248.72 68.61 248.74 68.61 248.79 68.6 248.81 68.59 248.83 68.59 248.9 68.58 248.92 68.58 248.94 68.57 248.96 68.57 248.98 68.56 249 68.56 249.05 68.55 249.07 68.55 249.09 68.55 249.12 68.55 249.21 68.55 249.22 68.55 249.24 68.55 249.26 68.55 249.28 68.56 249.31 68.56 249.34 68.55 249.36 68.55 249.38 68.53 249.39 68.51 249.4 68.48 249.41 68.45 249.43 68.43 249.45 68.4 249.47 68.38 249.49 68.36 249.5 68.33 249.52 68.3 249.54 68.28 249.56 68.26 249.58 68.25 249.6 68.23 249.62 68.2 249.63 68.19 249.65 68.18 249.66 68.17 249.68 68.16 249.71 68.14 249.73 68.13 249.76 68.11 249.79 68.09 249.81 68.07 249.82 68.04 249.83 68.01 249.84 67.98 249.86 67.95 249.87 67.94 249.88 67.93 249.9 67.92 249.92 67.91 249.94 67.89 249.97 67.87 249.98 67.85 249.99 67.84 250.01 67.83 250.02 67.81 250.04 67.8 250.06 67.79 250.1 67.77 250.11 67.76 250.13 67.75 250.15 67.74 250.17 67.73 250.19 67.72 250.21 67.72 250.22 67.71 250.26 67.7 250.29 67.69 250.32 67.68 250.34 67.67 250.36 67.66 250.38 67.65 250.41 67.63 250.41 67.62 250.42 67.6 250.42 67.58 250.43 67.56 250.44 67.55 250.46 67.56 250.47 67.57 250.48 67.58 250.49 67.58 250.51 67.57 250.54 67.55 250.56 67.54 250.58 67.54 250.64 67.54 250.66 67.54 250.69 67.53 250.73 67.53 250.76 67.52 250.78 67.51 250.81 67.51 250.84 67.5 250.87 67.48 250.89 67.46 250.91 67.44 250.93 67.41 250.95 67.39 250.96 67.36 250.99 67.34 251.01 67.32 251.03 67.3 251.05 67.27 251.08 67.25 251.1 67.23 251.13 67.22 251.17 67.22 251.18 67.22 251.2 67.23 251.24 67.23 251.26 67.23 251.28 67.23 251.34 67.24 251.35 67.24 251.39 67.23 251.41 67.23 251.42 67.22 251.44 67.22 251.47 67.22 251.49 67.22 251.5 67.23 251.52 67.23 251.54 67.25 251.55 67.29 251.56 67.3 251.57 67.31 251.59 67.31 251.62 67.29 251.64 67.27 251.66 67.24 251.69 67.22 251.71 67.2 251.72 67.2 251.75 67.2 251.76 67.21 251.76 67.23 251.75 67.26 251.73 67.27 251.72 67.29 251.72 67.3 251.75 67.31 251.77 67.33 251.8 67.33 251.82 67.32 251.84 67.31 251.85 67.31 251.86 67.33 251.86 67.35 251.87 67.36 251.88 67.37 251.89 67.36 251.91 67.34 251.91 67.34 251.93 67.35 251.94 67.36 251.96 67.35 251.98 67.34 251.99 67.32 252 67.29 252.02 67.27 252.06 67.24 252.08 67.21 252.11 67.19 252.12 67.19 252.11 67.22 252.07 67.27 252.06 67.29 252.05 67.3 252.07 67.32 252.08 67.32 252.09 67.31 252.1 67.29 252.12 67.27 252.14 67.26 252.17 67.26 252.25 67.28 252.28 67.29 252.31 67.3 252.33 67.3 252.36 67.3 252.39 67.29 252.41 67.28 252.44 67.27 252.46 67.26 252.48 67.26 252.5 67.26 252.52 67.25 252.53 67.23 252.55 67.21 252.56 67.19 252.57 67.18 252.59 67.16 252.6 67.15 252.62 67.15 252.63 67.14 252.64 67.12 252.62 67.09 252.61 67.06 252.61 67.04 252.61 67.03 252.63 67.01 252.66 67 252.68 67.01 252.7 67.02 252.71 67.04 252.73 67.05 252.75 67.07 252.78 67.08 252.81 67.1 252.84 67.1 252.86 67.1 252.89 67.1 252.92 67.08 252.95 67.07 252.98 67.07 253 67.07 253.04 67.07 253.05 67.07 253.09 67.08 253.11 67.1 253.14 67.1 253.17 67.11 253.2 67.11 253.23 67.11 253.26 67.11 253.28 67.11 253.3 67.11 253.32 67.1 253.34 67.1 253.36 67.09 253.39 67.09 253.41 67.09 253.44 67.08 253.47 67.08 253.49 67.08 253.51 67.09 253.52 67.09 253.54 67.07 253.54 67.05 253.53 67.04 253.52 67.03 253.51 67.01 253.51 66.99 253.5 66.95 253.51 66.93 253.53 66.92 253.54 66.91 253.56 66.9 253.58 66.89 253.6 66.89 253.63 66.88 253.65 66.88 253.67 66.88 253.69 66.88 253.71 66.89 253.72 66.9 253.73 66.93 253.74 66.95 253.74 66.98 253.74 67.03 253.74 67.04 253.74 67.06 253.76 67.07 253.78 67.08 253.8 67.09 253.81 67.1 253.84 67.11 253.86 67.12 253.89 67.12 253.91 67.12 253.94 67.12 253.95 67.11 253.97 67.1 253.98 67.1 253.98 67.11 253.96 67.15 253.92 67.17 253.94 67.19 253.95 67.21 253.96 67.24 253.97 67.26 253.98 67.28 253.99 67.3 254 67.31 254.02 67.33 254.03 67.34 254.05 67.35 254.07 67.36 254.09 67.37 254.1 67.38 254.12 67.4 254.14 67.42 254.16 67.45 254.18 67.47 254.2 67.49 254.22 67.51 254.24 67.53 254.27 67.55 254.29 67.57 254.31 67.59 254.33 67.6 254.35 67.61 254.37 67.62 254.39 67.63 254.43 67.65 254.47 67.67 254.5 67.69 254.52 67.7 254.54 67.72 254.56 67.75 254.58 67.77 254.6 67.79 254.63 67.84 254.65 67.86 254.67 67.89 254.68 67.9 254.69 67.92 254.72 67.94 254.74 67.96 254.76 67.97 254.78 67.98 254.8 67.99 254.82 68 254.83 68.01 254.85 68.02 254.88 68.03 254.9 68.04 254.91 68.05 254.92 68.07 254.92 68.09 254.91 68.11 254.9 68.13 254.89 68.16 254.89 68.19 254.88 68.48 254.88 68.51 254.89 68.6 254.89 68.67 254.9 69.13 254.9 69.2 254.91 69.28 254.93 69.34 254.96 69.4 255 69.44 255.05 69.53 255.08 69.56 255.1 69.58 255.14 69.61 255.2 69.66 255.24 69.68 255.3 69.76 255.39 69.87 255.45 69.94 255.47 69.96 255.57 70.03 255.71 70.11 256.05 70.28 256.2 70.35 256.29 70.39 256.32 70.41 256.33 70.42 256.35 70.47 256.36 70.49 256.36 70.5 256.36 70.52 256.32 70.6 256.31 70.61 256.31 70.62 256.31 70.65 256.33 70.73 256.36 70.82 256.37 70.85 256.38 70.86 256.4 70.87 256.41 70.88 256.42 70.88 256.46 70.89 256.47 70.89 256.47 70.9 256.47 70.91 256.44 70.98 256.39 71.11 256.32 71.15 256.29 71.17 256.27 71.19 256.26 71.21 256.26 71.22 256.26 71.29 256.25 71.3 256.22 71.36 256.22 71.37 256.22 71.41 256.23 71.45 256.27 71.53 256.29 71.58 256.31 71.61 256.35 71.65 256.4 71.68 256.46 71.75 256.49 71.76 256.58 71.79 256.69 71.83 256.73 71.84 256.81 71.84 256.82 71.84 256.84 71.85 256.85 71.86 256.85 71.87 256.86 71.88 256.86 71.89 256.85 71.9 256.83 71.93 256.8 71.97 256.74 72.02 256.73 72.03 256.69 72.06 256.67 72.07 256.67 72.08 256.67 72.1 256.67 72.12 256.68 72.14 256.71 72.19 256.72 72.21 256.76 72.24 256.77 72.26 256.78 72.27 256.78 72.28 256.76 72.32 256.68 72.39 256.65 72.43 256.63 72.46 256.61 72.48 256.6 72.51 256.59 72.54 256.59 72.59 256.57 72.67 256.56 72.69 256.58 72.73 256.63 72.81 256.67 72.9 256.71 72.98 256.77 73.07 256.81 73.12 256.86 73.17 256.92 73.22 257.04 73.31 257.07 73.32 257.11 73.34 257.14 73.37 Z"/>
</g></svg>