<svg xmlns="http://www.w3.org/2000/svg" version="1.2" baseProfile="tiny" stroke-linecap="round" stroke-linejoin="round" viewBox="528.4 267.07 33.68 35"><g xmlns="http://www.w3.org/2000/svg" id="Egues">
<path d="M 538.59 280.5 538.59 280.41 538.59 280.33 538.59 280.26 538.58 280.18 538.58 280.12 538.58 280.09 538.58 280.08 538.58 279.99 538.57 279.9 538.57 279.88 538.57 279.82 538.57 279.71 538.57 279.68 538.57 279.63 538.56 279.53 538.55 279.43 538.54 279.35 538.54 279.3 538.53 279.18 538.52 279.1 538.52 279.02 538.52 279 538.52 278.98 538.52 278.96 538.53 278.91 538.54 278.87 538.55 278.81 538.57 278.74 538.6 278.64 538.6 278.62 538.61 278.58 538.63 278.53 538.65 278.41 538.68 278.28 538.7 278.2 538.71 278.15 538.74 278.02 538.76 277.92 538.77 277.87 538.8 277.78 538.83 277.63 538.87 277.44 538.91 277.29 538.95 277.13 538.97 277.02 538.99 276.9 539 276.84 539 276.79 539.02 276.64 539.02 276.57 539.02 276.52 539.02 276.5 539.01 276.47 539 276.44 539 276.41 539 276.38 539 276.32 539.02 276.24 539.03 276.16 539.05 276.07 539.06 275.99 539.07 275.95 539.08 275.92 539.1 275.83 539.21 275.87 539.29 275.9 539.39 275.93 539.44 275.94 539.46 275.95 539.55 275.97 539.57 275.98 539.6 275.99 539.64 276 539.69 276.01 539.76 276.01 539.79 276.01 539.81 276 539.89 276 539.95 275.99 540.06 275.98 540.2 275.95 540.23 275.95 540.3 275.93 540.43 275.9 540.56 275.87 540.64 275.85 540.68 275.85 540.72 275.85 540.74 275.85 540.78 275.84 540.81 275.82 540.82 275.82 540.88 275.79 540.9 275.78 540.94 275.76 540.98 275.74 541.04 275.7 541.07 275.69 541.11 275.67 541.14 275.65 541.18 275.63 541.2 275.62 541.24 275.6 541.3 275.56 541.37 275.53 541.41 275.5 541.46 275.48 541.56 275.43 541.6 275.4 541.66 275.36 541.7 275.34 541.78 275.29 541.81 275.27 541.84 275.26 541.87 275.25 541.91 275.24 541.96 275.23 542.04 275.21 542.12 275.19 542.21 275.18 542.26 275.17 542.31 275.15 542.34 275.13 542.37 275.12 542.41 275.09 542.46 275.06 542.58 274.97 542.59 274.96 542.65 274.92 542.7 274.87 542.77 274.81 542.8 274.79 542.81 274.77 542.85 274.73 542.88 274.7 542.92 274.64 542.96 274.58 543.02 274.52 543.07 274.46 543.17 274.36 543.23 274.3 543.28 274.26 543.37 274.18 543.42 274.14 543.46 274.12 543.48 274.11 543.51 274.1 543.58 274.09 543.63 274.09 543.68 274.08 543.72 274.08 543.71 274.01 543.71 273.91 543.71 273.82 543.71 273.78 543.72 273.73 543.72 273.69 543.73 273.67 543.74 273.61 543.74 273.59 543.74 273.58 543.74 273.54 543.74 273.53 543.76 273.44 543.76 273.4 543.78 273.36 543.8 273.32 543.82 273.3 543.82 273.29 543.84 273.25 543.85 273.24 543.86 273.22 543.87 273.2 543.88 273.19 543.91 273.17 543.93 273.16 543.97 273.14 544.03 273.12 544.1 273.11 544.14 273.11 544.19 273.11 544.24 273.12 544.29 273.13 544.34 273.14 544.51 273.17 544.65 273.2 544.71 273.21 544.73 273.22 544.83 273.24 544.89 273.26 544.93 273.19 544.97 273.11 545.03 273.01 545.07 272.93 545.15 272.77 545.24 272.6 545.28 272.53 545.32 272.46 545.36 272.38 545.39 272.31 545.4 272.29 545.41 272.22 545.42 272.04 545.44 271.85 545.45 271.68 545.47 271.49 545.47 271.38 545.48 271.33 545.48 271.32 545.48 271.29 545.49 271.25 545.5 271 545.53 270.73 545.55 270.45 545.56 270.27 545.68 270.28 545.84 270.29 546.01 270.29 546.06 270.29 546.08 270.29 546.15 270.28 546.32 270.28 546.44 270.27 546.49 270.27 546.59 270.26 546.71 270.26 546.8 270.27 546.92 270.28 547.02 270.29 547.13 270.31 547.26 270.33 547.34 270.34 547.39 270.35 547.43 270.36 547.44 270.52 547.44 270.66 547.54 270.68 547.67 270.7 547.76 270.72 547.86 270.62 547.98 270.51 548.12 270.39 548.24 270.27 548.33 270.19 548.42 270.09 548.44 270.06 548.46 270.04 548.47 270.01 548.56 269.8 548.61 269.67 548.61 269.66 548.64 269.64 548.67 269.62 548.71 269.59 548.76 269.55 548.82 269.48 548.83 269.46 548.89 269.4 548.96 269.29 548.98 269.29 549.07 269.31 549.14 269.32 549.21 269.34 549.31 269.35 549.43 269.37 549.54 269.39 549.66 269.42 549.73 269.43 549.76 269.44 549.93 269.38 550.05 269.34 550.11 269.32 550.13 269.31 550.23 269.29 550.35 269.26 550.47 269.24 550.62 269.2 550.76 269.17 550.95 269.14 551.05 269.11 551.19 269.08 551.25 269.07 551.33 269.08 551.41 269.1 551.51 269.12 551.57 269.13 551.67 269.11 551.79 269.09 551.9 269.07 552.01 269.05 552.13 269.03 552.25 269.01 552.37 268.99 552.41 268.98 552.5 268.92 552.52 268.91 552.53 268.91 552.62 268.85 552.75 268.77 552.87 268.7 553.01 268.61 553.09 268.56 553.1 268.56 553.14 268.54 553.24 268.47 553.3 268.44 553.34 268.41 553.37 268.39 553.39 268.38 553.43 268.38 553.52 268.39 553.56 268.39 553.62 268.4 553.76 268.41 553.91 268.42 554.13 268.45 554.33 268.47 554.44 268.48 554.44 268.49 554.47 268.47 554.6 268.39 554.69 268.32 554.79 268.25 554.85 268.21 554.91 268.17 555.01 268.1 555.1 268.04 555.17 268 555.26 267.93 555.35 267.92 555.43 267.91 555.53 267.89 555.59 267.88 555.71 267.8 555.85 267.71 555.9 267.69 555.99 267.63 556.07 267.57 556.12 267.54 556.2 267.5 556.26 267.47 556.33 267.45 556.4 267.42 556.57 267.37 556.71 267.32 556.78 267.3 556.88 267.27 556.96 267.25 557.01 267.23 557.15 267.19 557.19 267.18 557.24 267.17 557.29 267.17 557.37 267.15 557.44 267.14 557.47 267.13 557.54 267.12 557.61 267.1 557.67 267.09 557.72 267.08 557.77 267.07 557.82 267.07 557.86 267.07 557.91 267.08 557.97 267.09 558.03 267.1 558.09 267.1 558.15 267.1 558.22 267.11 558.36 267.13 558.44 267.14 558.51 267.14 558.52 267.15 558.53 267.15 558.62 267.16 558.65 267.18 558.67 267.2 558.7 267.22 558.76 267.27 558.83 267.34 558.88 267.39 558.94 267.46 559.01 267.54 559.07 267.61 559.11 267.67 559.19 267.77 559.23 267.83 559.27 267.89 559.31 267.95 559.34 268 559.36 268.04 559.39 268.08 559.4 268.12 559.42 268.16 559.44 268.22 559.46 268.29 559.48 268.33 559.5 268.4 559.52 268.48 559.54 268.55 559.56 268.61 559.58 268.66 559.59 268.71 559.6 268.76 559.61 268.79 559.62 268.84 559.62 268.89 559.63 268.94 559.63 269 559.64 269.07 559.65 269.15 559.65 269.22 559.66 269.35 559.66 269.44 559.66 269.5 559.66 269.53 559.67 269.57 559.68 269.6 559.69 269.63 559.7 269.68 559.71 269.72 559.71 269.75 559.72 269.79 559.72 269.84 559.72 269.91 559.71 270 559.71 270.07 559.71 270.14 559.7 270.21 559.7 270.28 559.7 270.31 559.7 270.33 559.69 270.4 559.68 270.45 559.68 270.49 559.66 270.55 559.64 270.65 559.64 270.66 559.62 270.71 559.62 270.74 559.59 270.79 559.54 270.89 559.58 271 559.62 271.11 559.66 271.22 559.69 271.31 559.71 271.36 559.72 271.43 559.74 271.5 559.76 271.57 559.77 271.63 559.79 271.72 559.79 271.73 559.81 271.82 559.81 271.86 559.82 271.91 559.84 271.99 559.86 272.07 559.88 272.13 559.9 272.19 559.92 272.25 559.93 272.29 559.96 272.36 560 272.48 560.02 272.56 560.06 272.66 560.06 272.75 560.05 272.84 560.05 272.95 560.05 273.02 560.05 273.05 560.03 273.11 560 273.19 559.99 273.24 559.98 273.26 559.97 273.36 559.97 273.46 559.96 273.54 559.98 273.64 560 273.73 560.02 273.84 560.04 273.89 560.06 273.97 560.06 273.99 560.07 274.02 560.07 274.05 560.08 274.14 560.08 274.23 560.08 274.32 560.08 274.38 560.08 274.43 560.1 274.46 560.11 274.47 560.12 274.48 560.13 274.51 560.14 274.54 560.15 274.59 560.17 274.64 560.18 274.67 560.18 274.7 560.18 274.74 560.19 274.77 560.2 274.81 560.22 274.85 560.23 274.88 560.23 274.89 560.23 274.92 560.22 274.99 560.26 275.04 560.29 275.09 560.3 275.11 560.31 275.13 560.32 275.15 560.33 275.17 560.33 275.19 560.33 275.21 560.32 275.24 560.3 275.3 560.29 275.33 560.28 275.35 560.25 275.44 560.29 275.49 560.35 275.56 560.4 275.6 560.47 275.61 560.48 275.61 560.52 275.62 560.54 275.62 560.63 275.63 560.68 275.63 560.72 275.63 560.73 275.63 560.77 275.62 560.85 275.61 560.88 275.61 560.9 275.61 560.91 275.63 560.93 275.65 560.94 275.68 560.98 275.74 561.01 275.82 561.03 275.86 561.05 275.92 561.07 275.97 561.09 276 561.11 276.02 561.13 276.03 561.15 276.03 561.15 276.03 561.17 276.01 561.2 275.95 561.26 275.86 561.3 275.81 561.31 275.79 561.33 275.77 561.36 275.74 561.4 275.7 561.43 275.67 561.46 275.65 561.48 275.62 561.5 275.61 561.51 275.6 561.52 275.6 561.57 275.6 561.61 275.6 561.64 275.59 561.67 275.59 561.7 275.58 561.72 275.56 561.74 275.55 561.76 275.53 561.77 275.5 561.78 275.46 561.79 275.43 561.8 275.42 561.83 275.39 561.85 275.36 561.88 275.34 561.94 275.27 561.97 275.25 561.98 275.33 561.99 275.35 562.01 275.49 562.03 275.65 562.05 275.81 562.06 275.83 562.06 275.86 562.02 275.98 561.98 276.07 561.97 276.13 561.95 276.2 561.92 276.3 561.91 276.35 561.91 276.41 561.9 276.51 561.9 276.6 561.9 276.66 561.9 276.76 561.89 276.82 561.92 276.93 561.94 277.08 561.97 277.16 561.97 277.23 561.98 277.3 561.99 277.42 562 277.52 562.01 277.64 562.02 277.76 562.03 277.9 562.04 277.94 562.04 277.98 562.03 278.01 561.96 278.1 561.9 278.19 561.79 278.34 561.73 278.42 561.7 278.47 561.67 278.5 561.65 278.53 561.64 278.54 561.56 278.64 561.5 278.72 561.48 278.75 561.42 278.79 561.35 278.86 561.19 279.01 561.08 279.12 560.99 279.22 560.9 279.31 560.84 279.38 560.8 279.43 560.77 279.46 560.76 279.47 560.85 279.62 560.89 279.69 560.92 279.74 560.95 279.79 561.01 279.88 561.06 279.96 561.09 280.02 561.12 280.07 561.14 280.16 561.15 280.18 561.16 280.2 561.17 280.22 561.18 280.25 561.11 280.31 561.08 280.33 561.06 280.34 560.98 280.41 560.91 280.46 560.88 280.48 560.82 280.54 560.78 280.56 560.76 280.58 560.77 280.66 560.7 280.75 560.68 280.77 560.67 280.78 560.45 281.05 560.39 281.12 560.26 281.28 560.11 281.44 560.01 281.53 559.9 281.61 559.83 281.68 559.8 281.71 559.79 281.75 559.75 281.83 559.72 281.93 559.69 281.99 559.68 282.03 559.67 282.05 559.64 282.15 559.6 282.27 559.58 282.32 559.57 282.36 559.54 282.44 559.53 282.5 559.51 282.6 559.48 282.77 559.45 282.9 559.45 282.9 559.41 283.05 559.38 283.19 559.38 283.21 559.34 283.33 559.33 283.36 559.29 283.46 559.26 283.55 559.23 283.63 559.2 283.73 559.16 283.84 559.15 283.85 559.09 284.01 559.06 284.08 559.03 284.14 559 284.19 559 284.21 559 284.23 559 284.24 559 284.25 559 284.3 559.01 284.37 559.03 284.49 559.05 284.58 559.06 284.65 559.07 284.7 559.03 284.78 559.02 284.81 558.99 284.85 558.98 284.89 558.96 284.96 558.92 285.09 558.9 285.15 558.89 285.2 558.88 285.24 558.86 285.31 558.85 285.36 558.8 285.51 558.73 285.63 558.72 285.65 558.65 285.82 558.64 285.85 558.54 286.06 558.45 286.26 558.43 286.32 558.41 286.39 558.37 286.51 558.31 286.69 558.26 286.84 558.25 286.91 558.22 286.98 558.2 287.05 558.2 287.09 557.97 287.18 557.82 287.25 557.64 287.32 557.44 287.41 557.4 287.42 557.35 287.42 557.1 287.35 556.95 287.31 556.89 287.29 557.14 287.55 557.24 287.64 557.19 287.71 557.13 287.78 557.07 287.82 557.01 287.86 556.97 287.9 556.91 287.96 556.9 287.98 556.85 288.02 556.8 288.08 556.77 288.13 556.76 288.14 556.74 288.18 556.72 288.28 556.7 288.32 556.67 288.42 556.66 288.44 556.65 288.46 556.62 288.57 556.6 288.62 556.54 288.77 556.52 288.82 556.51 288.86 556.51 288.91 556.52 288.98 556.53 289.1 556.53 289.18 556.53 289.23 556.9 289.23 556.96 289.23 557.11 289.28 557.34 289.36 557.46 289.4 557.5 289.41 557.53 289.41 557.4 290.15 557.41 290.16 557.69 290.32 557.77 290.36 557.74 290.63 557.74 290.65 557.72 290.82 557.68 291.27 557.58 291.25 557.39 291.21 557.27 291.19 557.24 291.18 557.13 291.15 556.96 291.12 556.83 291.1 556.58 291.26 556.33 291.44 556.22 291.52 556.04 291.61 555.82 291.72 555.65 291.8 555.56 291.89 555.39 292.06 555.19 292.27 555.12 292.35 555.1 292.37 555.04 292.44 554.93 292.58 554.84 292.7 554.69 292.87 554.59 293 554.49 293.13 554.44 293.19 554.43 293.2 554.38 293.25 554.24 293.44 554.18 293.51 554.06 293.65 554.01 293.72 553.99 293.75 553.96 293.78 553.92 293.83 553.88 293.88 553.84 293.92 553.83 293.94 553.81 293.96 553.79 293.97 553.77 293.99 553.75 294 553.72 294.02 553.64 294.07 553.6 294.12 553.56 294.18 553.53 294.24 553.51 294.27 553.48 294.31 553.4 294.44 553.35 294.53 553.07 294.99 553.09 295.01 553.2 295.1 553.32 295.2 553.49 295.35 553.75 295.57 553.72 295.59 553.69 295.61 553.55 295.74 553.52 295.78 553.5 295.81 553.48 295.83 553.47 295.84 553.42 295.88 553.37 295.91 553.3 295.95 553.28 295.95 553.21 295.98 553.12 296.02 553.04 296.05 553 296.08 552.92 296.13 552.83 296.19 552.76 296.22 552.7 296.25 552.65 296.27 552.59 296.26 552.56 296.25 552.5 296.24 552.42 296.21 552.37 296.2 552.26 296.18 552.12 296.14 552.01 296.11 551.91 296.1 551.81 296.08 551.65 296.05 551.59 296.05 551.47 296.02 551.41 295.93 551.4 295.9 551.36 295.84 551.34 295.81 551.31 295.78 551.3 295.75 551.28 295.67 551.28 295.67 551.26 295.61 551.26 295.58 551.25 295.53 551.22 295.45 551.19 295.43 551.15 295.39 551.11 295.37 551.08 295.36 551.06 295.35 551 295.34 550.97 295.33 550.92 295.31 550.85 295.27 550.74 295.19 550.68 295.14 550.64 295.11 550.63 295.1 550.58 295.04 550.51 294.97 550.48 294.94 550.47 294.93 550.44 294.9 550.41 294.86 550.4 294.85 550.38 294.84 550.35 294.8 550.32 294.77 550.27 294.72 550.26 294.7 550.24 294.69 550.22 294.66 550.2 294.63 550.19 294.6 550.18 294.58 550.17 294.55 550.16 294.52 550.15 294.51 550.13 294.45 550.12 294.42 550.09 294.34 550.06 294.28 550.03 294.23 549.96 294.15 549.93 294.12 549.89 294.08 549.81 293.98 549.69 293.84 549.59 293.73 549.51 293.62 549.44 293.54 549.37 293.43 549.32 293.35 549.25 293.25 549.2 293.18 549.16 293.11 549.13 293.15 549.11 293.17 549.02 293.25 548.96 293.31 548.92 293.35 548.84 293.44 548.76 293.54 548.69 293.6 548.67 293.62 548.63 293.66 548.56 293.72 548.49 293.78 548.46 293.81 548.44 293.83 548.43 293.84 548.37 293.9 548.28 293.97 548.21 294.03 548.13 294.09 548.07 294.13 548.01 294.2 547.95 294.26 547.92 294.3 547.86 294.35 547.76 294.47 547.72 294.51 547.7 294.52 547.69 294.54 547.65 294.56 547.6 294.61 547.54 294.67 547.47 294.72 547.4 294.75 547.36 294.77 547.34 294.78 547.27 294.84 547.26 294.84 547.18 294.89 547.16 294.9 547.11 294.94 547.02 295 547 295.02 546.95 295.07 546.91 295.12 546.87 295.16 546.8 295.21 546.79 295.21 546.69 295.27 546.61 295.31 546.59 295.32 546.51 295.37 546.43 295.41 546.36 295.44 546.29 295.47 546.25 295.49 546.16 295.51 546.1 295.52 546.07 295.54 546.05 295.57 545.99 295.66 545.99 295.67 545.95 295.74 545.95 295.75 545.93 295.78 545.9 295.84 545.89 295.85 545.87 295.89 545.83 295.93 545.82 295.94 545.78 295.97 545.77 295.98 545.72 296.02 545.68 296.04 545.62 296.06 545.55 296.08 545.51 296.09 545.46 296.1 545.41 296.11 545.28 296.14 545.16 296.17 545.07 296.19 544.93 296.22 544.83 296.26 544.64 296.29 544.51 296.32 544.36 296.34 544.23 296.35 544.15 296.35 544.14 296.34 544.09 296.36 543.98 296.38 543.88 296.39 543.85 296.4 543.79 296.41 543.63 296.43 543.48 296.46 543.47 296.47 543.46 296.47 543.44 296.5 543.38 296.56 543.3 296.64 543.28 296.66 543.25 296.69 543.22 296.72 543.15 296.79 543.07 296.88 542.99 296.97 542.96 297.01 542.95 297.01 542.92 297.08 542.82 297.34 542.8 297.37 542.8 297.38 542.79 297.4 542.79 297.45 542.79 297.69 542.78 297.78 542.78 297.9 542.78 298.02 542.77 298.11 542.76 298.34 542.76 298.4 542.76 298.47 542.76 298.49 542.76 298.5 542.75 298.54 542.74 298.55 542.73 298.57 542.72 298.59 542.71 298.62 542.69 298.65 542.67 298.68 542.66 298.71 542.64 298.74 542.63 298.77 542.61 298.79 542.6 298.82 542.58 298.85 542.57 298.86 542.56 298.89 542.54 298.92 542.52 298.95 542.47 299.03 542.46 299.05 542.4 299.16 542.33 299.26 542.31 299.25 542.19 299.22 542.09 299.19 542.06 299.19 542 299.17 541.92 299.15 541.91 299.15 541.82 299.14 541.68 299.1 541.5 299.06 541.33 299.03 541.15 298.99 541.01 298.96 540.94 298.95 540.82 298.92 540.72 299.26 540.7 299.33 540.67 299.45 540.64 299.56 540.63 299.58 540.62 299.65 540.62 299.66 540.62 299.68 540.62 299.69 540.61 299.82 540.6 299.94 540.59 300.03 540.55 300.48 540.54 300.67 540.52 300.86 540.51 301 540.49 301.18 540.49 301.22 540.49 301.36 540.38 301.39 540.35 301.39 540.28 301.41 540.27 301.41 540.23 301.42 540.14 301.45 540.12 301.46 540.08 301.51 540.04 301.56 539.98 301.66 539.94 301.72 539.89 301.75 539.77 301.85 539.65 301.95 539.64 301.96 539.53 302.05 539.52 302.04 539.5 302.04 539.4 302.01 539.27 301.97 539.1 301.92 538.97 301.88 538.85 301.85 538.75 301.81 538.62 301.78 538.48 301.74 538.31 301.69 538.21 301.66 538.03 301.61 537.86 301.54 537.7 301.49 537.58 301.44 537.47 301.41 537.39 301.37 537.28 301.34 537.16 301.31 537.05 301.26 536.93 301.21 536.82 301.17 536.74 301.15 536.58 301.1 536.54 301.09 536.41 301.07 536.35 301.06 536.31 301.05 536.25 301.05 536.21 301.05 536.12 301.05 535.97 301.03 535.89 301.02 535.85 301.02 535.71 301 535.63 300.99 535.51 300.98 535.4 300.98 535.31 300.96 535.27 300.95 535.17 300.94 535.06 300.92 535.01 300.91 534.99 300.91 534.97 300.9 534.91 300.89 534.83 300.86 534.77 300.84 534.7 300.81 534.61 300.78 534.55 300.76 534.46 300.75 534.38 300.75 534.35 300.75 534.28 300.76 534.24 300.76 534.21 300.76 534.14 300.75 534.12 300.75 534.08 300.75 534.07 300.75 534.04 300.75 533.96 300.74 533.84 300.73 533.74 300.73 533.66 300.72 533.64 300.72 533.62 300.71 533.61 300.71 533.58 300.7 533.55 300.69 533.41 300.63 533.29 300.6 533.24 300.57 533.18 300.55 533.15 300.55 533.05 300.51 533 300.49 532.97 300.48 532.9 300.46 532.85 300.46 532.84 300.46 532.79 300.47 532.75 300.48 532.7 300.5 532.63 300.54 532.62 300.55 532.54 300.58 532.49 300.62 532.44 300.65 532.39 300.7 532.36 300.73 532.36 300.74 532.32 300.78 532.28 300.82 532.24 300.87 532.18 300.83 532.16 300.83 532.08 300.77 532.01 300.75 531.96 300.73 531.84 300.67 531.75 300.62 531.62 300.56 531.58 300.53 531.53 300.5 531.52 300.5 531.49 300.48 531.37 300.44 531.25 300.39 531.14 300.33 531.05 300.29 531 300.25 531 300.25 530.97 300.22 530.93 300.16 530.9 300.11 530.87 300.07 530.84 300 530.81 299.96 530.78 299.9 530.74 299.83 530.71 299.79 530.67 299.75 530.61 299.69 530.58 299.65 530.57 299.63 530.56 299.53 530.55 299.47 530.55 299.45 530.56 299.43 530.59 299.4 530.62 299.37 530.64 299.33 530.65 299.3 530.68 299.27 530.7 299.21 530.71 299.16 530.72 299.1 530.72 299.05 530.71 298.96 530.69 298.81 530.69 298.76 530.67 298.68 530.66 298.66 530.63 298.64 530.59 298.63 530.47 298.6 530.3 298.56 530.21 298.53 530.21 298.51 530.21 298.45 530.2 298.43 530.2 298.42 530.2 298.4 530.2 298.38 530.21 298.35 530.23 298.26 530.24 298.22 530.24 298.18 530.25 298.13 530.25 298.11 530.26 298.03 530.28 297.97 530.28 297.95 530.29 297.94 530.3 297.93 530.31 297.91 530.31 297.89 530.31 297.86 530.3 297.82 530.29 297.76 530.27 297.69 530.24 297.57 530.24 297.56 530.24 297.55 530.23 297.53 530.21 297.51 530.19 297.49 530.17 297.47 530.16 297.47 530.08 297.42 530.04 297.4 530.01 297.38 529.96 297.36 529.88 297.33 529.86 297.32 529.85 297.32 529.85 297.31 529.84 297.31 529.83 297.3 529.82 297.3 529.81 297.29 529.75 297.24 529.7 297.2 529.61 297.12 529.57 297.09 529.53 297.06 529.47 297.01 529.42 296.98 529.36 296.95 529.27 296.9 529.25 296.89 529.21 296.87 529.15 296.85 529.09 296.83 529.04 296.82 528.99 296.73 528.98 296.7 528.91 296.57 528.77 296.3 528.71 296.19 528.71 296.17 528.65 296.06 528.58 295.91 528.52 295.81 528.48 295.74 528.45 295.68 528.43 295.66 528.42 295.65 528.41 295.63 528.4 295.61 528.4 295.57 528.43 295.45 528.43 295.44 528.43 295.43 528.46 295.27 528.46 295.25 528.47 295.24 528.5 295.13 528.55 295 528.6 294.87 528.6 294.85 528.61 294.83 528.64 294.75 528.67 294.68 528.69 294.6 528.7 294.54 528.7 294.53 528.7 294.5 528.69 294.43 528.68 294.37 528.68 294.33 528.65 294.21 528.65 294.16 528.64 294.14 528.63 294.09 528.61 294.03 528.61 294.02 528.6 293.99 528.57 293.91 528.55 293.84 528.52 293.75 528.51 293.74 528.47 293.63 528.43 293.55 528.42 293.52 528.42 293.45 528.41 293.36 528.41 293.3 528.41 293.25 528.41 293.22 528.48 293.19 528.59 293.11 528.67 293.05 528.68 293.04 528.69 293.03 528.83 292.94 528.96 292.85 529.09 292.77 529.28 292.61 529.51 292.43 529.53 292.4 529.56 292.38 529.59 292.36 529.66 292.3 529.8 292.18 529.83 292.16 529.84 292.15 529.8 292.09 529.68 291.93 529.57 291.77 529.49 291.66 529.39 291.54 529.32 291.44 529.27 291.38 529.22 291.31 529.16 291.21 529.14 291.17 529.08 291.09 529.05 291.05 529.02 291 529.01 290.98 529.01 290.95 528.99 290.84 528.98 290.78 528.99 290.75 529 290.74 529.05 290.64 529.1 290.55 529.01 290.26 528.97 290.14 528.94 290.05 528.93 290.02 528.92 290.01 528.88 289.91 528.87 289.88 528.87 289.87 528.94 289.79 529.02 289.71 529.1 289.64 529.21 289.56 529.24 289.54 529.28 289.51 529.33 289.47 529.39 289.43 529.64 289.27 529.75 289.21 529.87 289.13 529.91 289.1 529.95 289.06 529.97 289 529.97 288.95 529.96 288.9 529.94 288.87 529.92 288.84 529.89 288.82 529.86 288.8 529.79 288.79 529.73 288.78 529.7 288.78 529.65 288.78 529.59 288.78 529.51 288.78 529.4 288.79 529.32 288.78 529.22 288.78 529.12 288.78 529.01 288.77 528.81 288.76 528.81 288.74 528.82 288.71 528.82 288.69 528.82 288.69 528.83 288.68 528.84 288.64 528.84 288.6 528.84 288.58 528.85 288.56 528.85 288.54 528.85 288.52 528.85 288.48 528.86 288.44 528.86 288.39 528.86 288.37 528.86 288.35 528.86 288.32 528.86 288.28 528.86 288.25 528.87 288.21 528.88 288.18 528.89 288.17 528.89 288.14 528.9 288.12 528.91 288.09 528.92 288.06 528.92 288.05 528.93 288.03 528.93 288.02 528.98 288.04 529.06 288.07 529.15 288.09 529.22 288.11 529.27 288.13 529.29 288.14 529.33 288.15 529.4 288.17 529.46 288.19 529.5 288.15 529.56 288.06 529.62 287.98 529.64 287.95 529.65 287.94 529.67 287.91 529.72 287.83 529.77 287.77 529.8 287.74 529.83 287.7 529.88 287.66 529.91 287.63 529.95 287.61 529.97 287.6 530.02 287.54 530.07 287.5 530.12 287.44 530.14 287.43 530.18 287.38 530.23 287.34 530.27 287.29 530.35 287.21 530.44 287.11 530.48 287.07 530.51 287.02 530.54 286.98 530.58 286.92 530.64 286.84 530.67 286.78 530.71 286.73 530.75 286.67 530.77 286.64 530.82 286.57 530.86 286.51 530.87 286.48 530.92 286.42 530.92 286.41 530.93 286.4 530.95 286.36 531.08 286.39 531.28 286.44 531.48 286.49 531.59 286.51 531.68 286.54 531.77 286.55 531.81 286.56 531.87 286.57 531.94 286.57 531.99 286.58 532.05 286.58 532.08 286.58 532.11 286.57 532.14 286.57 532.15 286.56 532.17 286.55 532.2 286.53 532.25 286.49 532.31 286.45 532.33 286.44 532.41 286.39 532.53 286.32 532.57 286.29 532.58 286.28 532.59 286.26 532.6 286.26 532.62 286.22 532.63 286.19 532.67 286.13 532.71 286.06 532.79 285.93 532.8 285.9 532.83 285.83 532.85 285.8 532.85 285.78 532.9 285.68 532.95 285.54 532.98 285.49 533 285.45 533.03 285.4 533.04 285.39 533.08 285.33 533.12 285.27 533.15 285.24 533.15 285.23 533.16 285.21 533.18 285.19 533.19 285.17 533.2 285.15 533.25 285.08 533.29 285.02 533.33 284.97 533.35 284.94 533.38 284.9 533.45 284.84 533.51 284.77 533.55 284.73 533.56 284.71 533.58 284.69 533.73 284.71 533.77 284.71 533.84 284.72 533.95 284.74 534.03 284.75 534.07 284.75 534.08 284.75 534.1 284.76 534.21 284.77 534.23 284.77 534.32 284.78 534.33 284.79 534.37 284.79 534.39 284.79 534.41 284.79 534.54 284.81 534.68 284.83 534.8 284.84 534.88 284.86 535 284.87 535.07 284.89 535.14 284.9 535.22 284.91 535.24 284.91 535.32 284.92 535.38 284.93 535.4 284.93 535.43 284.94 535.46 284.94 535.53 284.97 535.54 284.98 535.62 285.01 535.64 285.02 535.69 285.04 535.71 285.05 535.73 285.05 535.74 285.03 535.75 285.01 535.77 284.94 535.78 284.94 535.79 284.91 535.8 284.87 535.84 284.79 535.87 284.72 535.91 284.64 535.95 284.56 536 284.46 536.01 284.45 536.02 284.42 536.04 284.4 536.06 284.37 536.1 284.31 536.14 284.25 536.2 284.18 536.25 284.12 536.31 284.04 536.34 283.99 536.38 283.94 536.41 283.92 536.44 283.9 536.52 283.86 536.53 283.86 536.57 283.84 536.67 283.78 536.77 283.73 536.8 283.71 536.87 283.68 536.88 283.68 536.96 283.71 537.05 283.75 537.08 283.77 537.13 283.79 537.18 283.81 537.21 283.83 537.29 283.86 537.31 283.87 537.33 283.88 537.39 283.91 537.47 283.84 537.59 283.75 537.67 283.69 537.75 283.63 537.79 283.6 537.82 283.58 537.82 283.56 537.82 283.56 537.82 283.49 537.83 283.4 537.84 283.38 537.84 283.29 537.85 283.2 537.85 283.16 537.86 283.07 537.86 283.03 537.86 283.02 537.87 282.98 537.88 282.93 537.89 282.9 537.9 282.87 537.9 282.86 537.91 282.82 537.92 282.81 537.96 282.76 537.98 282.73 538.01 282.7 538.05 282.67 538.13 282.63 538.21 282.57 538.26 282.53 538.32 282.49 538.39 282.44 538.47 282.39 538.56 282.34 538.61 282.31 538.65 282.28 538.65 282.27 538.67 282.26 538.67 282.24 538.7 282.2 538.72 282.15 538.74 282.11 538.75 282.1 538.77 282.06 538.8 281.98 538.84 281.9 538.87 281.84 538.88 281.83 538.88 281.82 538.89 281.81 538.89 281.8 538.92 281.74 538.9 281.73 538.88 281.71 538.86 281.69 538.79 281.64 538.72 281.58 538.66 281.52 538.56 281.44 538.49 281.38 538.46 281.35 538.46 281.34 538.49 281.32 538.54 281.27 538.61 281.21 538.64 281.18 538.68 281.15 538.73 281.1 538.75 281.08 538.71 280.98 538.7 280.93 538.69 280.92 538.67 280.86 538.64 280.76 538.62 280.66 538.6 280.61 538.6 280.59 538.6 280.56 538.59 280.5 Z"/>
</g></svg>