<svg xmlns="http://www.w3.org/2000/svg" version="1.2" baseProfile="tiny" stroke-linecap="round" stroke-linejoin="round" viewBox="272.08 131.07 19.18 24.13"><g xmlns="http://www.w3.org/2000/svg" id="Eibar">
<path d="M 282.62 132.22 282.93 132.77 283.19 132.95 283.22 132.96 283.24 132.98 283.25 132.99 283.26 133 283.26 133.01 283.25 133.03 283.25 133.04 283.26 133.05 283.26 133.05 283.27 133.06 283.29 133.06 283.31 133.07 283.32 133.08 283.34 133.09 283.35 133.1 283.36 133.12 283.36 133.13 283.37 133.14 283.38 133.19 283.4 133.21 283.4 133.22 283.41 133.23 283.44 133.24 283.49 133.26 283.52 133.27 283.54 133.28 283.57 133.3 283.6 133.33 283.63 133.34 283.66 133.36 283.68 133.37 283.69 133.38 283.71 133.4 283.73 133.44 283.75 133.46 283.76 133.47 283.76 133.48 283.77 133.49 283.77 133.51 283.77 133.53 283.78 133.55 283.78 133.58 283.78 133.61 283.8 133.64 283.81 133.67 283.83 133.68 283.83 133.69 283.86 133.71 283.88 133.72 283.89 133.72 283.91 133.74 283.93 133.76 283.95 133.74 283.97 133.74 283.99 133.72 284.03 133.7 284.07 133.68 284.11 133.66 284.13 133.66 284.14 133.65 284.15 133.65 284.17 133.66 284.2 133.66 284.24 133.66 284.3 133.66 284.32 133.67 284.33 133.67 284.36 133.69 284.4 133.7 284.43 133.71 284.45 133.72 284.47 133.74 284.49 133.75 284.51 133.76 284.52 133.77 284.55 133.79 284.59 133.81 284.6 133.81 284.61 133.81 284.63 133.81 284.65 133.81 284.67 133.8 284.69 133.8 284.7 133.81 284.71 133.81 284.73 133.81 284.76 133.81 284.77 133.81 284.8 133.81 284.82 133.81 284.83 133.81 284.85 133.82 284.86 133.82 284.87 133.83 284.88 133.84 284.89 133.84 284.91 133.85 284.94 133.87 284.96 133.89 284.98 133.9 284.99 133.91 285.01 133.92 285.03 133.94 285.04 133.94 285.06 133.95 285.09 133.97 285.12 133.98 285.14 133.99 285.18 134.01 285.21 134.02 285.24 134.03 285.26 134.04 285.27 134.04 285.29 134.06 285.32 134.08 285.34 134.08 285.36 134.09 285.38 134.1 285.41 134.11 285.43 134.12 285.47 134.13 285.49 134.14 285.5 134.14 285.54 134.14 285.59 134.14 285.61 134.14 285.65 134.15 285.68 134.15 285.7 134.15 285.73 134.14 285.75 134.13 285.78 134.15 285.81 134.16 285.83 134.17 285.85 134.17 285.87 134.17 285.89 134.18 285.92 134.2 285.94 134.21 285.95 134.22 285.96 134.24 285.97 134.26 285.98 134.28 285.99 134.3 286 134.33 286 134.34 286.01 134.38 286.02 134.41 286.04 134.44 286.05 134.47 286.07 134.5 286.08 134.52 286.1 134.54 286.12 134.56 286.13 134.59 286.14 134.61 286.18 134.65 286.2 134.68 286.22 134.71 286.24 134.74 286.25 134.76 286.27 134.79 286.29 134.83 286.31 134.85 286.33 134.86 286.34 134.88 286.38 134.91 286.4 134.93 286.41 134.95 286.43 134.98 286.43 134.99 286.44 135 286.45 135.01 286.48 135.03 286.52 135.05 286.55 135.07 286.57 135.07 286.64 135.09 286.66 135.09 286.69 135.09 286.72 135.08 286.75 135.08 286.76 135.08 286.79 135.09 286.83 135.09 286.85 135.1 286.88 135.1 286.93 135.1 286.96 135.11 286.99 135.12 287.02 135.13 287.03 135.15 287.06 135.18 287.07 135.2 287.08 135.22 287.08 135.25 287.08 135.27 287.08 135.29 287.08 135.31 287.09 135.33 287.09 135.35 287.1 135.38 287.11 135.4 287.13 135.41 287.14 135.43 287.17 135.45 287.19 135.47 287.21 135.48 287.28 135.53 287.28 135.53 287.3 135.53 287.34 135.53 287.38 135.53 287.41 135.53 287.44 135.53 287.48 135.56 287.52 135.59 287.54 135.6 287.58 135.62 287.61 135.64 287.64 135.66 287.67 135.68 287.68 135.7 287.69 135.72 287.7 135.75 287.72 135.78 287.74 135.8 287.75 135.82 287.77 135.83 287.79 135.85 287.81 135.86 287.83 135.88 287.86 135.9 287.91 135.94 287.95 135.97 287.97 135.99 288 136.02 288.02 136.05 288.03 136.07 288.05 136.08 288.08 136.11 288.11 136.13 288.15 136.16 288.18 136.19 288.22 136.24 288.24 136.25 288.27 136.27 288.28 136.29 288.3 136.32 288.32 136.36 288.34 136.4 288.36 136.42 288.37 136.45 288.39 136.48 288.41 136.49 288.42 136.51 288.43 136.54 288.43 136.56 288.43 136.58 288.43 136.61 288.43 136.67 288.44 136.7 288.44 136.73 288.46 136.77 288.47 136.78 288.5 136.81 288.56 136.87 288.62 136.92 288.65 136.94 288.68 136.96 288.7 136.97 288.72 136.99 288.74 137.01 288.76 137.02 288.79 137.03 288.81 137.05 288.82 137.06 288.82 137.07 288.83 137.1 288.84 137.12 288.85 137.16 288.87 137.2 288.88 137.23 288.89 137.27 288.91 137.31 288.93 137.34 288.97 137.4 289 137.46 289.05 137.52 289.07 137.55 289.09 137.59 289.09 137.61 289.1 137.63 289.11 137.65 289.12 137.7 289.13 137.73 289.13 137.74 289.15 137.76 289.19 137.78 289.21 137.79 289.22 137.8 289.24 137.82 289.25 137.85 289.28 137.89 289.31 137.93 289.32 137.95 289.34 137.99 289.36 138.02 289.38 138.04 289.4 138.05 289.43 138.07 289.44 138.08 289.46 138.11 289.48 138.12 289.5 138.14 289.51 138.16 289.53 138.18 289.54 138.19 289.54 138.21 289.55 138.22 289.55 138.24 289.56 138.25 289.57 138.27 289.58 138.29 289.6 138.31 289.63 138.34 289.64 138.36 289.66 138.39 289.68 138.42 289.69 138.42 289.7 138.43 289.73 138.44 289.76 138.44 289.8 138.46 289.82 138.46 289.83 138.47 289.84 138.48 289.85 138.5 289.87 138.52 289.89 138.55 289.9 138.59 289.91 138.62 289.93 138.67 289.94 138.71 289.95 138.71 289.96 138.72 289.97 138.73 289.98 138.75 289.98 138.76 289.98 138.77 289.98 138.79 289.98 138.8 289.97 138.82 289.97 138.83 289.98 138.84 289.99 138.85 290 138.87 290 138.88 290.01 138.9 290 138.92 290 138.94 290 138.95 290.01 138.97 290.01 138.98 290.02 139 290.04 139.02 290.04 139.03 290.05 139.06 290.06 139.08 290.07 139.1 290.09 139.12 290.11 139.13 290.12 139.14 290.15 139.16 290.16 139.17 290.17 139.19 290.18 139.2 290.19 139.23 290.19 139.24 290.19 139.29 290.19 139.31 290.19 139.33 290.2 139.35 290.2 139.36 290.2 139.37 290.2 139.37 290.21 139.38 290.21 139.39 290.21 139.4 290.22 139.41 290.22 139.41 290.22 139.42 290.22 139.43 290.23 139.44 290.23 139.44 290.24 139.45 290.24 139.46 290.24 139.47 290.25 139.48 290.25 139.48 290.25 139.49 290.25 139.5 290.26 139.51 290.26 139.52 290.25 139.52 290.25 139.55 290.26 139.56 290.26 139.57 290.28 139.58 290.31 139.6 290.34 139.63 290.36 139.64 290.38 139.66 290.41 139.68 290.42 139.7 290.43 139.71 290.44 139.72 290.44 139.74 290.45 139.76 290.45 139.8 290.46 139.83 290.46 139.86 290.46 139.87 290.47 139.89 290.46 139.9 290.46 139.91 290.46 139.92 290.46 139.93 290.47 139.96 290.47 139.98 290.47 139.99 290.47 140 290.46 140.02 290.46 140.03 290.46 140.04 290.46 140.05 290.47 140.06 290.47 140.08 290.47 140.09 290.48 140.1 290.48 140.11 290.49 140.12 290.49 140.13 290.49 140.14 290.49 140.15 290.5 140.16 290.5 140.17 290.52 140.19 290.52 140.2 290.52 140.21 290.53 140.22 290.53 140.22 290.54 140.23 290.55 140.24 290.55 140.25 290.56 140.25 290.56 140.26 290.57 140.26 290.57 140.27 290.58 140.28 290.59 140.28 290.59 140.29 290.6 140.3 290.61 140.3 290.61 140.31 290.62 140.31 290.63 140.32 290.64 140.32 290.64 140.33 290.65 140.34 290.66 140.34 290.67 140.35 290.67 140.35 290.68 140.36 290.68 140.37 290.69 140.38 290.69 140.38 290.69 140.39 290.7 140.4 290.71 140.4 290.71 140.4 290.72 140.41 290.73 140.41 290.74 140.41 290.75 140.41 290.75 140.42 290.76 140.42 290.77 140.42 290.78 140.43 290.79 140.43 290.8 140.43 290.8 140.44 290.81 140.44 290.82 140.45 290.83 140.45 290.83 140.45 290.84 140.46 290.84 140.46 290.85 140.47 290.86 140.47 290.86 140.48 290.87 140.48 290.88 140.48 290.89 140.5 290.92 140.53 290.96 140.56 290.98 140.58 291 140.6 291.01 140.61 291.03 140.63 291.04 140.66 291.07 140.7 291.08 140.72 291.09 140.74 291.09 140.76 291.1 140.77 291.1 140.77 291.11 140.78 291.11 140.79 291.12 140.79 291.12 140.81 291.12 140.82 291.13 140.82 291.13 140.84 291.13 140.84 291.14 140.85 291.14 140.86 291.15 140.86 291.15 140.87 291.16 140.88 291.17 140.89 291.17 140.89 291.26 140.97 291.25 140.98 291.24 141 291.23 141.02 291.22 141.03 291.21 141.04 291.2 141.05 291.19 141.07 291.17 141.08 291.16 141.09 291.15 141.1 291.13 141.11 291.12 141.12 291.1 141.13 291.09 141.14 291.08 141.15 291.07 141.16 291.05 141.17 291.04 141.17 291.03 141.18 291.01 141.19 291 141.19 290.99 141.2 290.98 141.2 290.97 141.21 290.95 141.21 290.94 141.21 290.93 141.22 290.92 141.22 290.91 141.23 290.9 141.24 290.89 141.25 290.88 141.27 290.87 141.28 290.86 141.29 290.85 141.3 290.85 141.32 290.84 141.33 290.83 141.35 290.83 141.36 290.82 141.37 290.82 141.38 290.81 141.39 290.81 141.41 290.79 141.53 290.82 141.69 290.87 141.83 290.89 141.86 290.93 141.97 290.93 141.98 290.95 142.06 290.96 142.08 290.97 142.1 290.97 142.12 290.97 142.14 290.97 142.16 290.97 142.18 290.97 142.2 290.97 142.22 290.96 142.24 290.96 142.26 290.95 142.29 290.94 142.32 290.93 142.34 290.92 142.36 290.91 142.39 290.91 142.4 290.9 142.42 290.9 142.43 290.89 142.45 290.88 142.46 290.87 142.48 290.85 142.5 290.84 142.51 290.82 142.53 290.81 142.54 290.78 142.56 290.76 142.57 290.74 142.59 290.72 142.6 290.69 142.62 290.67 142.63 290.64 142.65 290.62 142.66 290.59 142.67 290.57 142.68 290.53 142.71 290.51 142.72 290.38 142.82 290.3 142.92 290.27 142.96 290.23 143.01 290.17 143.11 290.11 143.24 290.07 143.36 290.04 143.42 289.98 143.47 289.94 143.51 289.93 143.53 289.91 143.55 289.89 143.58 289.89 143.59 289.89 143.6 289.88 143.61 289.88 143.62 289.88 143.63 289.88 143.65 289.88 143.66 289.88 143.67 289.88 143.68 289.89 143.71 289.91 143.75 289.94 143.78 289.96 143.8 289.98 143.81 289.99 143.82 290 143.83 290.01 143.83 290.03 143.84 290.05 143.85 290.06 143.85 290.07 143.86 290.08 143.88 290.09 143.91 290.1 143.92 290.12 143.94 290.15 144.96 290.2 145.42 290.08 145.69 289.26 146.47 289.05 146.82 288.98 147.17 288.9 147.53 288.95 147.61 289.03 147.74 289.05 147.86 289.1 147.98 289.16 148.08 289.22 148.18 289.28 148.36 289.3 148.57 289.32 148.64 289.33 148.74 289.3 148.87 289.29 148.96 289.25 149.08 289.21 149.24 289.21 149.43 289.24 149.62 289.25 149.76 289.26 149.94 289.24 150.06 289.22 150.25 289.2 150.36 289.15 150.54 289.08 150.67 288.97 150.81 288.87 150.94 288.82 150.99 288.7 151.11 288.57 151.28 288.51 151.44 288.44 151.65 288.4 151.92 288.38 152.18 288.33 152.37 288.26 152.59 288.16 152.86 288.16 152.87 287.96 153.13 286 152.67 285.41 153.37 284.57 154.22 284.14 154.63 283.85 154.88 283.53 155.18 281.11 154.33 279.46 153.17 279.44 153.07 279.44 153 279.42 152.82 279.4 152.66 279.38 152.46 279.38 152.32 279.35 152.2 279.32 152.17 279.26 152.1 279.02 151.82 278.9 151.69 278.79 151.56 278.64 151.38 278.63 151.36 278.62 151.34 278.61 151.33 278.48 151.26 278.25 151.17 278.16 151.17 277.99 151.14 277.77 151.05 277.54 150.96 277.41 150.9 277.23 150.83 276.74 151.56 276.36 152.27 276.35 152.26 276.35 152.24 276.34 152.23 276.34 152.22 276.33 152.21 276.33 152.2 276.33 152.19 276.32 152.18 276.32 152.17 276.32 152.16 276.31 152.14 276.31 152.13 276.3 152.12 276.3 152.11 276.29 152.1 276.29 152.1 276.24 152.04 276.13 151.84 275.88 151.35 275.78 151.23 275.73 151.07 275.7 151 275.67 150.95 275.58 150.8 275.51 150.69 275.48 150.65 275.31 150.4 275.21 150.26 275.18 150.23 275.12 150.21 275.07 150.19 275.03 150.17 275.02 150.17 275.01 150.16 275 150.16 275 150.15 274.99 150.14 274.98 150.13 274.98 150.13 274.97 150.12 274.97 150.11 274.97 150.1 274.96 150.08 274.96 150.07 274.96 150.06 274.96 150.05 274.96 150.04 274.96 150.03 274.97 150.02 274.97 150.01 274.97 150 274.97 150 274.97 149.99 274.97 149.97 274.97 149.96 274.97 149.95 274.97 149.94 274.97 149.93 274.97 149.92 274.96 149.91 274.96 149.9 274.95 149.88 274.95 149.87 274.94 149.86 274.9 149.78 274.87 149.76 274.86 149.75 274.85 149.74 274.85 149.73 274.84 149.71 274.84 149.69 274.83 149.67 274.83 149.65 274.83 149.64 274.84 149.63 274.84 149.61 274.85 149.6 274.87 149.57 274.87 149.56 274.88 149.55 274.88 149.54 274.89 149.52 274.89 149.51 274.9 149.5 274.9 149.48 274.9 149.47 274.9 149.46 274.9 149.45 274.89 149.44 274.89 149.43 274.89 149.42 274.88 149.41 274.87 149.4 274.87 149.39 274.83 149.35 274.79 149.3 274.83 149.16 274.44 148.93 274.18 148.69 274.68 147.68 274.68 147.57 274.69 147.52 274.7 147.49 274.7 147.46 274.71 147.44 274.71 147.44 274.71 147.43 274.72 147.42 274.72 147.41 274.73 147.4 274.74 147.39 274.74 147.37 274.75 147.37 274.75 147.36 274.75 147.35 274.76 147.35 274.76 147.34 274.77 147.33 274.77 147.33 274.78 147.32 274.78 147.31 274.79 147.3 274.8 147.29 274.8 147.29 274.81 147.28 274.81 147.28 274.82 147.27 274.83 147.27 274.83 147.26 274.84 147.26 274.85 147.25 274.86 147.24 274.86 147.24 274.87 147.23 274.88 147.22 274.88 147.21 274.88 147.2 274.89 147.2 274.89 147.19 274.9 147.18 274.9 147.17 274.9 147.16 274.91 147.15 274.91 147.14 274.91 147.13 274.91 147.13 274.91 147.12 274.92 147.11 274.92 147.1 274.92 147.08 274.93 147.08 274.95 147 274.97 146.96 274.98 146.94 275 146.89 275.01 146.83 275.01 146.77 275.01 146.76 275.01 146.75 275.01 146.74 275.01 146.73 275.01 146.72 275.01 146.71 275.01 146.53 275.03 146.48 275.12 146.31 275.14 146.26 275.15 146.2 275.16 146.12 275.16 146.11 275.16 146.1 275.16 146.09 275.15 146.07 275.16 146.01 275.18 145.87 275.32 145.57 275.53 145.23 275.15 143.66 275.43 143.08 275.9 142.62 275.4 141.8 275.4 141.72 275.43 141.59 275.48 141.47 275.63 141.31 275.76 140.68 275.15 140.67 274.8 140.54 274.11 139.93 273.65 139.54 273.55 139.41 273.38 139.15 273.3 138.94 273.24 138.62 273.17 138.54 273.07 138.28 273 138.21 272.72 137.96 272.12 137.47 272.32 136.56 272.32 136.55 272.09 135.89 272.49 134.66 272.8 133.21 273.2 132.02 273.54 131.31 273.7 131.09 274.66 131.75 275.87 131.59 276.13 131.5 276.18 131.5 276.23 131.52 276.41 131.65 276.55 131.73 276.78 131.85 276.84 131.8 277.06 131.84 277.87 132.15 279.37 132.7 282.62 132.22 Z"/>
</g></svg>