<svg xmlns="http://www.w3.org/2000/svg" version="1.2" baseProfile="tiny" stroke-linecap="round" stroke-linejoin="round" viewBox="276.25 379.37 14 27.12"><g xmlns="http://www.w3.org/2000/svg" id="Ekora">
<path d="M 276.34 380.71 276.35 380.7 276.38 380.67 276.42 380.63 276.43 380.62 276.46 380.58 276.51 380.53 276.52 380.5 276.54 380.46 276.56 380.41 276.58 380.38 276.6 380.35 276.62 380.29 276.64 380.23 276.67 380.15 276.68 380.1 276.68 380.07 276.69 380.05 276.71 380.03 276.73 380.01 276.75 380 276.77 379.99 276.81 379.97 276.82 379.96 276.89 379.94 276.95 379.91 277.02 379.89 277.06 379.87 277.14 379.84 277.21 379.82 277.26 379.8 277.34 379.77 277.41 379.74 277.43 379.74 277.46 379.72 277.47 379.72 277.54 379.69 277.6 379.67 277.67 379.64 277.73 379.62 277.79 379.6 277.8 379.6 277.87 379.57 277.9 379.55 277.96 379.51 277.99 379.49 277.99 379.49 278.01 379.49 278.02 379.49 278.08 379.49 278.16 379.49 278.18 379.49 278.21 379.49 278.3 379.49 278.35 379.49 278.38 379.49 278.41 379.49 278.43 379.5 278.46 379.51 278.49 379.52 278.52 379.53 278.53 379.53 278.63 379.53 278.76 379.52 278.89 379.52 278.93 379.51 278.96 379.5 278.99 379.5 279.07 379.48 279.13 379.47 279.19 379.46 279.25 379.45 279.32 379.44 279.34 379.43 279.37 379.43 279.38 379.43 279.39 379.43 279.46 379.43 279.58 379.43 279.7 379.43 279.82 379.43 279.94 379.43 280.03 379.43 280.06 379.43 280.12 379.44 280.19 379.43 280.27 379.43 280.28 379.43 280.31 379.43 280.43 379.42 280.58 379.42 280.72 379.41 280.73 379.41 280.77 379.41 280.78 379.41 280.79 379.41 280.83 379.41 280.85 379.41 280.87 379.41 280.91 379.41 280.93 379.41 280.99 379.4 281.05 379.4 281.13 379.39 281.2 379.39 281.28 379.39 281.32 379.38 281.34 379.38 281.36 379.38 281.4 379.38 281.42 379.39 281.49 379.4 281.55 379.41 281.6 379.41 281.62 379.42 281.68 379.43 282.01 379.49 282.06 379.51 282.12 379.52 282.18 379.54 282.24 379.56 282.28 379.58 282.31 379.59 282.32 379.6 282.35 379.63 282.38 379.64 282.43 379.66 282.49 379.68 282.5 379.68 282.56 379.71 282.58 379.71 282.62 379.73 282.67 379.74 282.71 379.75 282.74 379.76 282.8 379.76 282.84 379.76 282.88 379.76 282.93 379.77 283 379.77 283.06 379.78 283.11 379.79 283.15 379.8 283.16 379.8 283.18 379.81 283.21 379.83 283.23 379.84 283.26 379.85 283.28 379.85 283.3 379.86 283.36 379.87 283.42 379.89 283.54 379.91 283.62 379.93 283.66 379.94 283.8 379.98 283.91 380 283.94 380.01 283.96 380.02 284.02 380.03 284.14 380.06 284.25 380.08 284.3 380.09 284.34 380.16 284.34 380.19 284.35 380.26 284.37 380.38 284.37 380.43 284.39 380.51 284.39 380.57 284.4 380.63 284.42 380.69 284.43 380.75 284.45 380.8 284.48 380.87 284.5 380.92 284.51 380.96 284.52 381 284.53 381.07 284.54 381.14 284.55 381.17 284.56 381.18 284.57 381.2 284.6 381.24 284.64 381.3 284.66 381.32 284.68 381.34 284.69 381.36 284.71 381.4 284.72 381.43 284.74 381.44 284.77 381.46 284.8 381.49 284.81 381.54 284.84 381.59 284.85 381.61 284.88 381.65 284.93 381.67 284.97 381.7 285.01 381.73 285.03 381.76 285.03 381.8 285.02 381.84 285.02 381.89 285.01 381.95 285.01 382 285 382.04 284.99 382.07 284.99 382.1 285 382.13 285.01 382.16 285.04 382.19 285.07 382.22 285.08 382.25 285.09 382.28 285.09 382.31 285.08 382.35 285.08 382.37 285.08 382.39 285.1 382.42 285.12 382.47 285.12 382.5 285.12 382.55 285.12 382.62 285.11 382.68 285.1 382.72 285.09 382.76 285.09 382.77 285.07 382.82 285.05 382.85 285.04 382.9 285.03 382.93 285.03 382.98 285.04 383.02 285.05 383.05 285.05 383.09 285.06 383.15 285.05 383.18 285.05 383.21 285.04 383.24 285.02 383.29 285 383.33 284.98 383.37 284.98 383.42 284.98 383.45 284.98 383.48 284.98 383.49 284.99 383.52 285.02 383.57 285.03 383.61 285.05 383.65 285.06 383.7 285.07 383.74 285.08 383.81 285.08 383.86 285.07 383.92 285.06 383.98 285.04 384.06 285.02 384.11 285.01 384.15 285.04 384.16 285.12 384.19 285.14 384.2 285.24 384.24 285.27 384.26 285.38 384.29 285.44 384.32 285.45 384.33 285.47 384.34 285.49 384.36 285.54 384.42 285.58 384.46 285.63 384.53 285.67 384.57 285.72 384.62 285.75 384.66 285.79 384.71 285.81 384.73 285.84 384.76 285.91 384.83 285.91 384.84 285.91 384.88 285.91 384.95 285.91 385.01 285.91 385.03 285.91 385.11 285.91 385.17 285.91 385.23 285.91 385.32 285.91 385.38 285.91 385.45 285.91 385.48 285.9 385.49 285.89 385.5 285.87 385.54 285.86 385.55 285.83 385.57 285.87 385.64 285.9 385.72 285.96 385.84 286 385.9 286.02 385.94 286.03 385.97 286.04 385.99 286.06 386.02 286.1 386.08 286.15 386.14 286.17 386.16 286.19 386.19 286.22 386.23 286.27 386.3 286.3 386.33 286.32 386.35 286.34 386.37 286.37 386.41 286.42 386.47 286.46 386.51 286.5 386.56 286.54 386.6 286.55 386.62 286.6 386.68 286.64 386.72 286.65 386.73 286.66 386.75 286.67 386.78 286.67 386.82 286.68 386.84 286.69 386.89 286.7 386.96 286.7 387.03 286.71 387.11 286.71 387.15 286.71 387.19 286.71 387.26 286.71 387.33 286.71 387.4 286.72 387.43 286.73 387.47 286.76 387.55 286.77 387.58 286.78 387.61 286.81 387.68 286.83 387.73 286.83 387.75 286.84 387.77 286.85 387.79 286.85 387.81 286.85 387.82 286.87 387.89 286.89 387.94 286.91 388 286.92 388.05 286.93 388.07 286.94 388.12 286.95 388.17 286.97 388.24 286.99 388.29 287 388.35 287.02 388.41 287.04 388.47 287.05 388.41 287.06 388.33 287.07 388.26 287.09 388.2 287.09 388.18 287.1 388.16 287.11 388.14 287.13 388.1 287.14 388.09 287.23 388.55 287.42 389.37 287.51 389.89 287.6 390.43 287.5 390.6 287.13 390.88 286.82 391.1 286.57 391.3 286.56 391.45 286.78 391.99 286.94 392.6 287.06 393.07 287.24 393.48 287.51 393.82 287.67 394.08 287.9 394.56 288.08 394.84 288.17 395.2 288.35 395.49 288.57 395.8 288.79 396.02 289.01 396.22 289.07 396.36 289.11 396.75 289.15 397.13 289.27 397.51 289.53 397.92 289.85 398.26 290.05 398.58 290.18 398.92 290.23 399.19 290.14 399.6 290.08 399.98 289.94 400.21 289.71 400.34 289.12 400.47 288.49 400.71 288 401.01 287.48 401.34 287.27 401.51 287.11 401.63 286.75 401.71 286.32 401.75 286.08 402.09 285.69 402.88 285.5 403.24 285.22 403.56 284.95 403.76 284.58 403.87 283.82 404.07 283.34 404.27 282.88 404.56 282.18 405 281.59 405.38 281.07 405.78 280.51 406.27 279.62 406.06 278.48 406.46 278.48 406.44 278.47 406.41 278.46 406.34 278.43 406.13 278.42 405.72 278.37 405.12 278.44 404.76 278.62 404.44 278.83 404.07 279.08 403.74 279.32 403.36 279.47 402.94 279.46 402.49 279.45 402.05 279.35 401.48 279.19 400.9 278.97 400.32 278.82 399.76 278.72 399.27 278.56 398.76 278.34 398.28 278.19 397.92 278.09 397.52 278.06 396.98 277.98 396.49 277.88 395.99 277.82 395.54 277.79 395.17 277.8 394.73 277.83 394.26 277.88 393.86 277.92 393.4 277.97 393.02 278.1 392.54 278.21 392.08 278.45 391.59 278.62 391.19 278.78 390.71 278.82 390.15 278.7 389.66 278.56 389.24 278.4 388.62 278.25 388.07 278.23 387.66 278.16 387.25 278.16 386.88 278.21 386.56 278.29 386.19 278.11 385.88 277.84 385.62 277.57 385.4 277.17 385.14 276.79 384.99 276.71 384.51 276.61 384.06 276.54 383.47 276.43 382.75 276.4 382.32 276.36 381.9 276.4 381.54 276.38 381.08 276.29 380.82 276.28 380.8 276.33 380.73 276.34 380.71 Z"/>
</g></svg>