<svg xmlns="http://www.w3.org/2000/svg" version="1.2" baseProfile="tiny" stroke-linecap="round" stroke-linejoin="round" viewBox="227.43 57.15 6.82 7.27"><g xmlns="http://www.w3.org/2000/svg" id="Elantxobe">
<path d="M 234.23 64.03 234.01 64.24 233.51 64.39 233.01 64.35 232.57 64.18 232.21 63.96 231.59 63.43 231.02 63.08 230.98 63.1 230.93 63.14 230.89 63.19 230.84 63.22 230.8 63.25 230.75 63.26 230.7 63.26 230.66 63.24 230.62 63.21 230.58 63.18 230.55 63.15 230.48 63.08 230.39 63 230.33 62.96 230.19 62.81 230.15 62.78 230.1 62.74 230.07 62.7 230.02 62.68 230 62.64 229.92 62.55 229.89 62.5 229.75 62.31 229.67 62.17 229.63 62.14 229.23 61.88 229.09 61.7 228.7 61.33 228.37 60.76 227.87 59.53 227.45 58.49 227.46 58.48 227.48 58.47 227.5 58.46 227.51 58.46 227.53 58.47 227.57 58.55 227.59 58.59 227.61 58.63 227.63 58.68 227.66 58.72 227.69 58.78 227.72 58.81 227.74 58.82 227.85 58.95 227.87 58.99 227.89 59.03 227.92 59.08 227.93 59.1 227.92 59.15 227.9 59.19 227.88 59.2 227.84 59.24 227.84 59.25 227.86 59.24 227.94 59.21 227.98 59.21 228 59.21 228.01 59.2 228.02 59.18 228.02 59.16 228.03 59.15 228.05 59.13 228.07 59.13 228.09 59.13 228.1 59.13 228.12 59.14 228.12 59.16 228.15 59.21 228.16 59.22 228.17 59.22 228.21 59.19 228.22 59.17 228.24 59.12 228.25 59.13 228.27 59.13 228.29 59.13 228.3 59.11 228.32 59.11 228.36 59.11 228.38 59.1 228.42 59.05 228.49 59.02 228.49 59 228.48 58.99 228.47 58.97 228.47 58.93 228.5 58.89 228.51 58.87 228.51 58.85 228.52 58.84 228.52 58.83 228.52 58.81 228.51 58.79 228.49 58.74 228.48 58.72 228.48 58.7 228.5 58.7 228.53 58.73 228.55 58.74 228.56 58.73 228.58 58.73 228.59 58.74 228.61 58.75 228.63 58.75 228.67 58.73 228.68 58.71 228.69 58.69 228.69 58.68 228.66 58.65 228.67 58.64 228.68 58.62 228.69 58.6 228.73 58.57 228.76 58.54 228.77 58.52 228.78 58.49 228.8 58.47 228.81 58.44 228.84 58.41 228.83 58.39 228.82 58.38 228.81 58.36 228.82 58.35 228.83 58.34 228.85 58.35 228.86 58.35 228.86 58.34 228.86 58.32 228.85 58.3 228.83 58.27 228.83 58.26 228.83 58.25 228.86 58.24 228.9 58.24 228.91 58.23 228.91 58.22 228.9 58.19 228.9 58.18 228.93 58.18 228.93 58.17 228.91 58.16 228.9 58.15 228.89 58.13 228.89 58.11 228.86 58.08 228.86 58.06 228.87 58.04 228.93 58.01 228.94 58 228.95 57.98 228.95 57.94 228.96 57.87 228.97 57.8 229.01 57.67 229.05 57.59 229.06 57.6 229.06 57.62 229.06 57.65 229.07 57.64 229.1 57.58 229.21 57.44 229.27 57.39 229.32 57.34 229.35 57.32 229.37 57.31 229.4 57.29 229.43 57.28 229.46 57.27 229.49 57.25 229.52 57.24 229.54 57.22 229.57 57.21 229.6 57.19 229.63 57.17 229.66 57.17 229.68 57.16 229.74 57.16 229.78 57.17 229.8 57.17 229.85 57.18 229.88 57.18 229.9 57.18 229.92 57.19 229.95 57.2 229.97 57.2 229.99 57.21 230.01 57.21 230.03 57.22 230.06 57.23 230.11 57.25 230.13 57.26 230.15 57.26 230.2 57.28 230.22 57.29 230.26 57.32 230.29 57.33 230.33 57.35 230.35 57.36 230.37 57.37 230.42 57.39 230.44 57.4 230.46 57.41 230.48 57.42 230.5 57.43 230.52 57.43 230.54 57.44 230.56 57.44 230.58 57.45 230.6 57.45 230.61 57.45 230.65 57.45 230.67 57.46 230.73 57.48 230.75 57.49 230.77 57.5 230.79 57.51 230.83 57.53 230.85 57.55 230.88 57.56 230.9 57.58 230.95 57.61 230.97 57.62 231 57.65 231.02 57.66 231.07 57.69 231.11 57.72 231.14 57.73 231.16 57.75 231.19 57.76 231.24 57.79 231.27 57.8 231.29 57.82 231.31 57.83 231.33 57.85 231.35 57.86 231.39 57.88 231.42 57.89 231.46 57.92 231.5 57.93 231.51 57.94 231.54 57.95 231.56 57.97 231.57 57.99 231.6 58.04 231.63 58.06 231.64 58.07 231.68 58.09 231.7 58.11 231.71 58.12 231.73 58.13 231.74 58.15 231.76 58.16 231.77 58.17 231.79 58.18 231.82 58.2 231.84 58.2 231.86 58.21 231.88 58.22 231.9 58.22 231.92 58.23 231.94 58.23 231.96 58.24 231.98 58.25 232.03 58.25 232.05 58.26 232.07 58.26 232.1 58.27 232.12 58.28 232.16 58.29 232.21 58.31 232.25 58.33 232.27 58.33 232.29 58.34 232.32 58.35 232.34 58.36 232.35 58.36 232.37 58.38 232.38 58.39 232.41 58.42 232.42 58.44 232.44 58.45 232.45 58.47 232.46 58.49 232.48 58.51 232.49 58.53 232.51 58.55 232.53 58.57 232.54 58.59 232.55 58.61 232.57 58.63 232.6 58.66 232.61 58.68 232.63 58.69 232.64 58.71 232.66 58.74 232.67 58.75 232.68 58.78 232.69 58.79 232.71 58.83 232.72 58.85 232.73 58.87 232.74 58.9 232.75 58.94 232.76 58.99 232.76 59.01 232.77 59.03 232.78 59.05 232.79 59.07 232.79 59.1 232.8 59.12 232.81 59.14 232.81 59.16 232.82 59.19 232.82 59.21 232.82 59.23 232.81 59.25 232.81 59.28 232.8 59.32 232.8 59.34 232.8 59.36 232.8 59.38 232.79 59.4 232.79 59.42 232.77 59.44 232.77 59.47 232.77 59.5 232.77 59.54 232.76 59.57 232.76 59.6 232.76 59.63 232.77 59.65 232.78 59.67 232.77 59.69 232.76 59.71 232.74 59.72 232.72 59.73 232.71 59.76 232.71 59.78 232.71 59.8 232.69 59.83 232.67 59.85 232.66 59.87 232.66 59.9 232.66 59.94 232.65 59.96 232.64 59.98 232.64 60.01 232.65 60.03 232.65 60.06 232.64 60.07 232.62 60.1 232.61 60.13 232.59 60.18 232.59 60.2 232.58 60.23 232.57 60.26 232.57 60.28 232.58 60.29 232.61 60.3 232.62 60.31 232.62 60.33 232.62 60.35 232.6 60.36 232.6 60.38 232.6 60.39 232.62 60.4 232.63 60.42 232.63 60.44 232.64 60.47 232.65 60.48 232.67 60.5 232.68 60.53 232.7 60.56 232.71 60.59 232.71 60.61 232.72 60.64 232.72 60.66 232.72 60.69 232.73 60.72 232.74 60.74 232.75 60.78 232.74 60.81 232.74 60.84 232.74 60.87 232.75 60.9 232.75 60.93 232.74 60.96 232.72 60.99 232.7 61.02 232.67 61.04 232.66 61.07 232.65 61.08 232.64 61.1 232.63 61.12 232.62 61.14 232.61 61.16 232.59 61.19 232.58 61.23 232.57 61.26 232.55 61.29 232.54 61.31 232.52 61.33 232.5 61.35 232.49 61.37 232.47 61.39 232.45 61.4 232.43 61.41 232.42 61.43 232.38 61.46 232.36 61.47 232.34 61.49 232.33 61.5 232.31 61.51 232.29 61.55 232.34 61.59 232.54 61.75 232.55 61.74 232.66 61.82 232.66 61.83 232.69 61.84 232.67 61.87 232.57 61.79 232.32 61.61 232.31 61.63 232.28 61.61 232.26 61.62 232.27 61.63 232.26 61.64 232.38 61.76 232.42 61.88 232.41 61.89 232.39 61.88 232.36 61.8 232.24 61.66 232.23 61.74 232.21 61.82 232.18 61.88 232.17 61.9 232.17 61.91 232.16 61.93 232.15 61.95 232.15 61.97 232.15 61.98 232.16 61.98 232.17 62.02 232.19 62.08 232.24 62.07 232.31 61.9 232.33 61.92 232.3 61.97 232.26 62.07 232.26 62.09 232.23 62.14 232.24 62.18 232.21 62.19 232.24 62.3 232.28 62.39 232.34 62.43 232.41 62.51 232.42 62.51 232.44 62.51 232.48 62.45 232.49 62.27 232.5 62.09 232.51 61.91 232.53 61.98 232.51 62.39 232.5 62.46 232.46 62.54 232.51 62.57 232.57 62.57 232.61 62.57 232.63 62.56 232.65 62.56 232.67 62.55 232.68 62.54 232.71 62.54 232.74 62.54 232.77 62.54 232.8 62.55 232.83 62.56 232.85 62.57 232.87 62.57 232.9 62.59 232.92 62.6 232.93 62.61 232.95 62.62 232.97 62.65 232.98 62.66 233.02 62.7 233.03 62.72 233.04 62.73 233.05 62.75 233.06 62.77 233.07 62.79 233.08 62.81 233.09 62.83 233.1 62.85 233.11 62.87 233.14 62.92 233.17 62.96 233.18 62.97 233.19 62.99 233.2 63 233.23 63.02 233.24 63.03 233.28 63.06 233.33 63.1 233.35 63.11 233.36 63.13 233.38 63.14 233.41 63.17 233.43 63.19 233.45 63.2 233.47 63.22 233.49 63.23 233.51 63.24 233.55 63.28 233.56 63.29 233.58 63.3 233.6 63.32 233.62 63.33 233.64 63.35 233.67 63.38 233.71 63.41 233.73 63.42 233.74 63.43 233.76 63.44 233.77 63.45 233.82 63.5 233.84 63.52 233.85 63.53 233.87 63.55 233.88 63.56 233.9 63.58 233.91 63.6 233.93 63.61 233.94 63.63 233.96 63.64 233.97 63.66 233.99 63.67 234 63.69 234.02 63.72 234.03 63.74 234.03 63.76 234.04 63.78 234.05 63.79 234.06 63.81 234.09 63.84 234.11 63.85 234.12 63.87 234.13 63.89 234.15 63.91 234.16 63.92 234.18 63.94 234.2 63.96 234.21 63.98 234.22 64 234.23 64.02 234.23 64.03 Z"/>
</g></svg>