<svg xmlns="http://www.w3.org/2000/svg" version="1.2" baseProfile="tiny" stroke-linecap="round" stroke-linejoin="round" viewBox="409.67 141.67 29.2 30.43"><g xmlns="http://www.w3.org/2000/svg" id="Elduain">
<path d="M 424.1 141.68 424.15 141.74 424.24 141.84 424.3 141.92 424.38 142 424.44 142.06 424.46 142.09 424.56 142.23 424.67 142.36 424.7 142.4 424.79 142.51 424.87 142.65 424.9 142.71 424.94 142.76 425.02 142.85 425.12 142.94 425.17 142.98 425.24 143.06 425.32 143.13 425.37 143.15 425.41 143.19 425.46 143.21 425.52 143.26 425.57 143.29 425.64 143.36 425.71 143.41 425.78 143.47 425.82 143.48 425.88 143.52 425.91 143.53 425.97 143.57 426 143.62 426.02 143.66 426.06 143.71 426.12 143.76 426.14 143.79 426.19 143.82 426.21 143.84 426.26 143.88 426.33 143.94 426.38 143.97 426.44 144 426.52 144.01 426.55 144.01 426.56 144.02 426.59 144.03 426.65 144.03 426.71 144.03 426.75 144.03 426.78 144.03 426.8 144.06 426.83 144.1 426.85 144.12 426.88 144.12 426.95 144.14 427.03 144.15 427.12 144.19 427.16 144.22 427.18 144.27 427.3 144.47 427.36 144.58 427.41 144.7 427.44 144.78 427.55 144.95 427.65 145.17 427.71 145.27 427.87 145.41 428.08 145.57 428.27 145.65 428.4 145.72 428.47 145.78 428.52 145.9 428.74 146.09 428.83 146.15 428.95 146.28 429.11 146.37 429.19 146.43 429.29 146.53 429.43 146.65 429.61 146.75 429.74 146.85 429.92 146.94 430.03 147 430.16 147.05 430.36 147.07 430.56 147.17 430.66 147.25 430.73 147.28 430.77 147.29 430.81 147.3 430.9 147.31 430.96 147.31 431.01 147.3 431.05 147.29 431.07 147.29 431.11 147.3 431.14 147.32 431.17 147.34 431.2 147.34 431.27 147.35 431.33 147.36 431.48 147.39 431.56 147.42 431.64 147.43 431.68 147.43 431.7 147.43 431.71 147.43 431.72 147.43 431.74 147.43 431.75 147.44 431.79 147.45 431.81 147.45 431.82 147.45 431.88 147.44 431.94 147.43 431.97 147.41 431.98 147.41 432 147.4 432.04 147.39 432.1 147.38 432.14 147.38 432.18 147.38 432.25 147.4 432.31 147.41 432.36 147.42 432.4 147.43 432.43 147.44 432.44 147.45 432.46 147.47 432.48 147.52 432.49 147.55 432.51 147.59 432.52 147.61 432.53 147.63 432.54 147.66 432.56 147.68 432.62 147.72 432.66 147.74 432.71 147.76 432.78 147.8 432.85 147.83 432.93 147.86 432.99 147.89 433.01 147.9 433.04 147.93 433.05 147.94 433.09 147.97 433.12 148.01 433.16 148.06 433.2 148.11 433.21 148.14 433.24 148.2 433.26 148.25 433.28 148.3 433.31 148.34 433.34 148.39 433.37 148.43 433.41 148.48 433.43 148.5 433.49 148.55 433.54 148.6 433.6 148.64 433.61 148.64 433.65 148.67 433.7 148.71 433.76 148.76 433.8 148.79 433.84 148.83 433.88 148.86 433.92 148.89 433.97 148.92 434.01 148.93 434.06 148.95 434.09 148.98 434.12 149.03 434.14 149.08 434.19 149.16 434.22 149.22 434.25 149.3 434.27 149.37 434.29 149.41 434.31 149.43 434.36 149.48 434.41 149.5 434.46 149.52 434.51 149.54 434.56 149.57 434.63 149.6 434.67 149.64 434.73 149.68 434.78 149.71 434.83 149.74 434.88 149.78 434.95 149.81 435.01 149.84 435.08 149.86 435.12 149.88 435.23 149.9 435.26 149.91 435.32 149.94 435.37 149.97 435.42 150 435.45 150.03 435.48 150.04 435.51 150.05 435.55 150.06 435.65 150.07 435.76 150.1 435.84 150.12 435.91 150.14 435.97 150.16 436.01 150.17 436.12 150.2 436.2 150.22 436.28 150.23 436.3 150.23 437.32 150.37 437.33 150.38 437.34 150.39 437.35 150.4 437.38 150.42 437.39 150.43 437.41 150.45 437.52 150.56 437.58 150.64 437.65 150.72 437.7 150.78 437.76 150.84 437.78 150.86 437.85 150.94 437.91 151.01 437.94 151.04 438.03 151.15 438.12 151.25 438.16 151.29 438.19 151.33 438.26 151.4 438.33 151.47 438.33 151.48 438.41 151.56 438.46 151.62 438.48 151.67 438.49 151.72 438.51 151.77 438.52 151.82 438.53 151.88 438.54 151.94 438.56 151.99 438.57 152.06 438.58 152.12 438.59 152.17 438.6 152.22 438.62 152.29 438.65 152.35 438.69 152.44 438.71 152.5 438.73 152.57 438.76 152.65 438.77 152.68 438.77 152.7 438.78 152.78 438.78 152.81 438.78 152.85 438.78 152.89 438.78 152.93 438.77 152.98 438.77 153.03 438.77 153.06 438.77 153.09 438.78 153.1 438.79 153.12 438.8 153.14 438.82 153.18 438.83 153.23 438.83 153.3 438.84 153.36 438.84 153.46 438.84 153.54 438.85 153.61 438.85 153.67 438.84 153.72 438.82 153.76 438.8 153.8 438.79 153.83 438.75 153.89 438.72 153.95 438.69 154 438.64 154.07 438.64 154.08 438.63 154.09 438.62 154.11 438.61 154.14 438.6 154.16 438.58 154.22 438.54 154.31 438.52 154.39 438.5 154.44 438.47 154.51 438.47 154.55 438.45 154.62 438.44 154.7 438.42 154.77 438.4 154.86 438.39 154.93 438.37 155 438.34 155.07 438.3 155.14 438.27 155.2 438.23 155.27 438.2 155.32 438.16 155.37 438.12 155.42 438.09 155.45 438.06 155.48 438.02 155.5 437.94 155.58 437.89 155.62 437.86 155.66 437.83 155.71 437.8 155.76 437.77 155.8 437.71 155.86 437.66 155.92 437.11 155.82 436.81 155.85 436.81 155.8 436.79 155.8 436.76 155.79 436.73 155.77 436.71 155.76 436.68 155.74 436.65 155.72 436.63 155.7 436.61 155.7 436.58 155.69 436.56 155.68 436.54 155.68 436.52 155.68 436.51 155.69 436.49 155.69 436.47 155.69 436.45 155.68 436.43 155.67 436.41 155.66 436.39 155.66 436.37 155.64 436.35 155.62 436.32 155.59 436.3 155.56 436.26 155.52 436.23 155.49 436.22 155.48 436.2 155.45 436.19 155.43 436.17 155.4 436.16 155.37 436.15 155.34 436.13 155.31 436.11 155.27 436.1 155.24 436.08 155.21 436.06 155.18 436.04 155.16 436.02 155.13 435.99 155.09 435.98 155.06 435.96 155.03 435.94 155 435.93 154.98 435.91 154.95 435.88 154.94 435.86 154.92 435.84 154.91 435.82 154.9 435.81 154.88 435.8 154.88 435.77 154.86 435.74 154.84 435.71 154.82 435.67 154.77 435.65 154.73 435.62 154.68 435.59 154.64 435.56 154.61 435.55 154.58 435.52 154.55 435.5 154.52 435.48 154.5 435.47 154.47 435.46 154.44 435.45 154.41 435.44 154.38 435.41 154.34 435.4 154.31 435.39 154.28 435.38 154.26 435.36 154.24 435.35 154.22 435.34 154.2 435.32 154.17 435.31 154.15 435.31 154.11 435.31 154.09 435.31 154.06 435.31 154.03 435.31 153.99 435.32 153.96 435.33 153.93 435.32 153.89 435.32 153.86 435.3 153.82 435.27 153.79 435.26 153.76 435.24 153.72 435.21 153.69 435.19 153.68 435.16 153.68 435.14 153.69 435.09 153.7 435.06 153.71 435.03 153.71 435 153.71 434.97 153.71 434.94 153.71 434.91 153.71 434.88 153.72 434.86 153.72 434.84 153.72 434.82 153.72 434.8 153.72 434.76 153.71 434.74 153.7 434.73 153.69 434.7 153.68 434.68 153.67 434.66 153.66 434.64 153.66 434.61 153.65 434.58 153.64 434.57 153.62 434.55 153.61 434.52 153.6 434.49 153.59 434.47 153.6 434.44 153.6 434.42 153.61 434.4 153.63 434.39 153.64 434.38 153.64 434.36 153.64 434.34 153.63 434.32 153.62 434.3 153.61 434.27 153.59 434.25 153.58 434.24 153.58 434.22 153.58 434.2 153.58 434.17 153.58 434.14 153.6 434.12 153.61 434.09 153.64 434.07 153.66 434.04 153.69 434.02 153.71 433.99 153.72 433.97 153.73 433.94 153.73 433.92 153.73 433.9 153.73 433.88 153.71 433.87 153.7 433.85 153.68 433.84 153.67 433.82 153.65 433.8 153.63 433.78 153.62 433.76 153.61 433.74 153.61 433.71 153.6 433.68 153.6 433.65 153.6 433.62 153.6 433.59 153.62 433.57 153.63 433.55 153.65 433.52 153.67 433.5 153.69 433.48 153.71 433.46 153.73 433.46 153.74 433.43 153.76 433.4 153.77 433.36 153.77 433.33 153.77 433.3 153.78 433.28 153.79 433.26 153.81 433.25 153.83 433.23 153.85 433.2 153.87 433.18 153.89 433.17 153.91 433.16 153.92 433.14 153.94 433.13 153.95 433.11 153.96 433.09 153.96 433.08 153.96 433.05 153.96 433.02 153.96 433 153.96 432.97 153.98 432.95 153.99 432.93 154.01 432.91 154.03 432.9 154.05 432.88 154.08 432.86 154.09 432.84 154.11 432.82 154.11 432.8 154.11 432.79 154.11 432.77 154.1 432.76 154.09 432.74 154.07 432.71 154.04 432.69 154.03 432.66 154.02 432.63 154.01 432.61 154.02 432.6 154.02 432.59 154.04 432.58 154.05 432.56 154.08 432.55 154.09 432.53 154.09 432.5 154.08 432.48 154.06 432.46 154.04 432.43 154.02 432.39 154 432.36 153.98 432.34 153.95 432.33 153.94 432.32 153.91 432.29 153.89 432.27 153.88 432.25 153.88 432.23 153.89 432.22 153.9 432.21 153.91 432.19 153.93 432.17 153.96 432.16 153.98 432.16 154.01 432.17 154.02 432.18 154.05 432.19 154.06 432.21 154.08 432.23 154.12 432.23 154.14 432.23 154.16 432.22 154.19 432.21 154.21 432.2 154.24 432.19 154.26 432.17 154.27 432.15 154.28 432.13 154.29 432.12 154.29 432.11 154.28 432.09 154.27 432.08 154.27 432.05 154.25 432.02 154.25 432 154.24 431.97 154.24 431.93 154.22 431.9 154.2 431.88 154.18 431.86 154.16 431.84 154.15 431.81 154.14 431.78 154.11 431.75 154.09 431.73 154.08 431.7 154.06 431.66 154.05 431.64 154.04 431.62 154.05 431.61 154.06 431.6 154.08 431.58 154.09 431.56 154.12 431.53 154.14 431.5 154.15 431.46 154.16 431.43 154.15 431.39 154.14 431.35 154.14 431.33 154.13 431.31 154.14 431.29 154.14 431.25 154.16 431.21 154.17 431.18 154.17 431.14 154.16 431.11 154.14 431.09 154.1 431.07 154.06 431.07 154.03 431.06 153.98 431.06 153.96 431.06 153.94 431.06 153.92 431.06 153.88 431.07 153.86 431.07 153.83 431.08 153.8 431.1 153.78 431.12 153.75 431.14 153.72 431.16 153.69 431.17 153.65 431.17 153.62 431.16 153.61 431.15 153.6 431.14 153.59 431.12 153.58 431.09 153.58 431.06 153.58 431.03 153.6 431.01 153.61 430.98 153.64 430.94 153.66 430.92 153.68 430.9 153.69 430.88 153.69 430.87 153.68 430.86 153.67 430.85 153.65 430.86 153.62 430.86 153.6 430.87 153.58 430.89 153.55 430.91 153.52 430.92 153.49 430.92 153.47 430.91 153.44 430.89 153.42 430.87 153.4 430.84 153.38 430.82 153.36 430.8 153.36 430.78 153.35 430.76 153.34 430.72 153.33 430.69 153.34 430.67 153.36 430.66 153.38 430.65 153.41 430.64 153.45 430.62 153.48 430.61 153.5 430.57 153.51 430.54 153.51 430.52 153.51 430.49 153.5 430.46 153.49 430.44 153.47 430.42 153.45 430.41 153.42 430.39 153.39 430.38 153.38 430.36 153.37 430.35 153.37 430.33 153.37 430.32 153.38 430.31 153.39 430.31 153.42 430.3 153.44 430.29 153.47 430.28 153.49 430.27 153.51 430.25 153.52 430.24 153.52 430.22 153.51 430.21 153.51 430.19 153.5 430.17 153.48 430.15 153.46 430.13 153.44 430.11 153.42 430.09 153.39 430.07 153.37 430.04 153.36 430.03 153.34 430.01 153.34 429.98 153.34 429.95 153.34 429.93 153.34 429.91 153.35 429.88 153.36 429.86 153.38 429.84 153.41 429.82 153.43 429.81 153.46 429.8 153.5 429.8 153.58 429.8 153.6 429.79 153.62 429.78 153.63 429.76 153.65 429.73 153.65 429.7 153.63 429.66 153.6 429.63 153.57 429.6 153.53 429.58 153.48 429.57 153.45 429.57 153.41 429.57 153.38 429.56 153.34 429.56 153.32 429.54 153.3 429.53 153.28 429.51 153.26 429.49 153.25 429.45 153.24 429.4 153.23 429.35 153.23 429.32 153.22 429.29 153.22 429.27 153.23 429.25 153.24 429.23 153.25 429.22 153.27 429.21 153.29 429.2 153.32 429.2 153.34 429.21 153.39 429.22 153.42 429.24 153.44 429.26 153.46 429.27 153.48 429.29 153.5 429.3 153.53 429.31 153.55 429.31 153.57 429.31 153.59 429.31 153.6 429.3 153.62 429.29 153.64 429.27 153.65 429.25 153.67 429.23 153.68 429.21 153.71 429.19 153.73 429.19 153.74 429.18 153.76 429.17 153.78 429.15 153.81 429.14 153.83 429.12 153.84 429.1 153.86 429.07 153.87 429.03 153.87 429 153.86 428.98 153.85 428.95 153.83 428.93 153.83 428.9 153.82 428.88 153.82 428.85 153.82 428.82 153.82 428.8 153.84 428.78 153.85 428.75 153.87 428.72 153.89 428.69 153.9 428.65 153.91 428.61 153.91 428.59 153.9 428.57 153.88 428.56 153.86 428.56 153.85 428.56 153.82 428.56 153.79 428.57 153.75 428.58 153.72 428.59 153.69 428.6 153.65 428.61 153.61 428.61 153.56 428.61 153.52 428.6 153.49 428.58 153.46 428.57 153.45 428.55 153.43 428.53 153.42 428.51 153.39 428.5 153.36 428.5 153.34 428.5 153.31 428.5 153.29 428.51 153.28 428.53 153.26 428.53 153.24 428.53 153.22 428.52 153.2 428.51 153.19 428.49 153.18 428.48 153.17 428.45 153.18 428.44 153.18 428.41 153.19 428.38 153.21 428.35 153.23 428.32 153.25 428.3 153.27 428.27 153.29 428.26 153.31 428.24 153.33 428.22 153.35 428.19 153.37 428.17 153.39 428.14 153.41 428.11 153.42 428.1 153.43 428.09 153.43 428.08 153.45 428.08 153.46 428.09 153.47 428.09 153.49 428.11 153.51 428.13 153.53 428.15 153.56 428.19 153.6 428.22 153.63 428.23 153.66 428.24 153.68 428.24 153.7 428.23 153.72 428.22 153.74 428.21 153.74 428.19 153.75 428.16 153.75 428.12 153.75 428.09 153.74 428.07 153.73 428.03 153.72 428.01 153.71 427.98 153.7 427.94 153.7 427.9 153.7 427.85 153.7 427.8 153.71 427.76 153.71 427.72 153.72 427.69 153.72 427.67 153.7 427.67 153.69 427.67 153.65 427.66 153.62 427.66 153.58 427.65 153.56 427.64 153.54 427.62 153.52 427.59 153.5 427.57 153.48 427.54 153.47 427.5 153.45 427.46 153.44 427.44 153.43 427.42 153.43 427.38 153.42 427.34 153.42 427.31 153.42 427.24 153.41 427.2 153.41 427.17 153.4 427.16 153.39 427.15 153.36 427.14 153.35 427.14 153.33 427.14 153.3 427.13 153.28 427.12 153.26 427.11 153.24 427.1 153.22 427.07 153.21 427.06 153.2 427.04 153.19 427.01 153.19 426.99 153.2 426.97 153.21 426.95 153.22 426.92 153.24 426.9 153.26 426.88 153.28 426.87 153.32 426.85 153.34 426.83 153.39 426.81 153.42 426.79 153.46 426.76 153.49 426.74 153.51 426.69 153.53 426.65 153.54 426.59 153.54 426.55 153.54 426.52 153.53 426.48 153.52 426.46 153.51 426.45 153.56 426.44 153.61 426.42 153.65 426.39 153.7 426.35 153.73 426.33 153.75 426.3 153.77 426.27 153.79 426.24 153.79 426.22 153.8 426.18 153.8 426.14 153.8 426.11 153.79 426.07 153.78 426.03 153.77 425.99 153.75 425.96 153.73 425.93 153.71 425.91 153.68 425.89 153.65 425.88 153.61 425.88 153.53 425.89 153.49 425.9 153.46 425.91 153.43 425.93 153.41 425.94 153.39 425.97 153.37 425.99 153.35 426 153.32 426.01 153.29 426.02 153.27 426.02 153.24 426.02 153.22 426.02 153.21 426.01 153.19 425.99 153.17 425.94 153.14 425.91 153.12 425.89 153.1 425.88 153.09 425.87 153.07 425.86 153.06 425.84 153.03 425.82 153.03 425.8 153 425.75 152.97 425.72 152.94 425.68 152.93 425.66 152.92 425.61 152.92 425.57 152.91 425.53 152.91 425.49 152.9 425.43 152.9 425.36 152.91 425.31 152.92 425.28 152.94 425.25 152.97 425.24 152.98 425.22 153 425.2 153.02 425.2 153.05 425.19 153.07 425.19 153.11 425.2 153.14 425.21 153.17 425.21 153.18 425.23 153.22 425.24 153.26 425.25 153.29 425.25 153.3 425.26 153.32 425.26 153.36 425.26 153.4 425.27 153.44 425.27 153.48 425.26 153.5 425.24 153.54 425.22 153.56 425.19 153.58 425.15 153.6 425.09 153.61 425.04 153.62 424.96 153.63 424.9 153.62 424.83 153.62 424.77 153.62 424.71 153.62 424.67 153.62 424.61 153.62 424.55 153.62 424.46 153.62 424.39 153.63 424.3 153.64 424.22 153.65 424.13 153.66 424.06 153.67 424.01 153.68 423.97 153.69 423.92 153.7 423.88 153.72 423.82 153.72 423.76 153.73 423.73 153.74 423.7 153.76 423.65 153.78 423.62 153.8 423.59 153.83 423.56 153.86 423.54 153.9 423.52 153.94 423.51 153.97 423.49 154.03 423.49 154.08 423.5 154.13 423.5 154.15 423.52 154.18 423.57 154.22 423.61 154.26 423.68 154.29 423.74 154.3 423.79 154.31 423.85 154.32 423.92 154.33 423.98 154.33 424.02 154.32 424.07 154.31 424.1 154.31 424.14 154.31 424.17 154.32 424.2 154.32 424.24 154.34 424.27 154.36 424.3 154.4 424.33 154.45 424.34 154.49 424.35 154.54 424.35 154.58 424.36 154.61 424.35 154.66 424.35 154.67 424.35 154.7 424.34 154.75 424.34 154.77 424.34 154.8 424.34 154.84 424.34 154.89 424.35 154.92 424.37 154.95 424.39 154.98 424.43 155 424.47 155.01 424.51 155.03 424.54 155.04 424.57 155.04 424.61 155.05 424.65 155.05 424.67 155.06 424.72 155.06 424.75 155.08 424.79 155.1 424.82 155.12 424.83 155.14 424.84 155.17 424.84 155.22 424.84 155.28 424.82 155.35 424.79 155.44 424.76 155.49 424.73 155.51 424.7 155.53 424.66 155.55 424.6 155.57 424.58 155.58 424.54 155.6 424.51 155.63 424.49 155.67 424.47 155.7 424.46 155.76 424.47 155.81 424.47 155.83 424.47 155.84 424.49 155.86 424.51 155.88 424.55 155.9 424.57 155.93 424.59 155.96 424.61 156 424.63 156.03 424.64 156.07 424.66 156.1 424.67 156.12 424.67 156.14 424.69 156.17 424.7 156.22 424.7 156.23 424.71 156.25 424.72 156.29 424.73 156.33 424.73 156.36 424.72 156.39 424.72 156.42 424.7 156.45 424.68 156.47 424.66 156.48 424.63 156.49 424.61 156.49 424.58 156.48 424.55 156.45 424.52 156.42 424.49 156.39 424.46 156.37 424.44 156.35 424.42 156.33 424.41 156.33 424.36 156.29 424.31 156.25 424.27 156.22 424.22 156.19 424.17 156.18 424.11 156.16 424.03 156.15 423.97 156.16 423.93 156.16 423.91 156.16 423.88 156.16 423.86 156.17 423.83 156.18 423.81 156.2 423.79 156.22 423.77 156.24 423.76 156.25 423.75 156.28 423.74 156.32 423.74 156.37 423.74 156.42 423.75 156.48 423.78 156.57 423.81 156.63 423.85 156.7 423.86 156.72 423.88 156.75 423.91 156.8 423.94 156.83 423.97 156.87 423.99 156.9 424.01 156.92 424.03 156.95 424.05 156.97 424.07 156.99 424.1 157.01 424.13 157.02 424.16 157.02 424.21 157.02 424.24 157.02 424.28 157 424.3 156.97 424.33 156.95 424.37 156.91 424.4 156.88 424.43 156.84 424.46 156.79 424.48 156.76 424.5 156.72 424.51 156.71 424.52 156.7 424.54 156.69 424.58 156.67 424.63 156.67 424.67 156.69 424.68 156.7 424.7 156.72 424.71 156.74 424.72 156.77 424.73 156.81 424.73 156.83 424.73 156.86 424.72 156.89 424.72 156.91 424.71 156.94 424.71 156.96 424.71 156.99 424.71 157.02 424.72 157.05 424.74 157.08 424.78 157.11 424.81 157.14 424.86 157.17 424.9 157.19 424.95 157.21 424.99 157.23 425.02 157.24 425.07 157.27 425.11 157.27 425.15 157.28 425.2 157.28 425.24 157.28 425.27 157.28 425.3 157.27 425.31 157.28 425.33 157.28 425.37 157.3 425.4 157.31 425.42 157.33 425.44 157.36 425.46 157.41 425.47 157.46 425.47 157.51 425.46 157.54 425.46 157.55 425.45 157.58 425.4 157.64 425.33 157.68 425.26 157.72 425.2 157.74 425.19 157.74 425.16 157.75 425.14 157.76 425.12 157.75 425.1 157.75 425.08 157.74 425.06 157.73 425.04 157.71 425.02 157.69 424.99 157.68 424.96 157.68 424.92 157.68 424.89 157.69 424.87 157.71 424.87 157.74 424.86 157.74 424.86 157.78 424.87 157.81 424.88 157.85 424.89 157.88 424.9 157.9 424.91 157.93 424.91 157.95 424.92 157.98 424.93 158.02 424.94 158.05 424.95 158.08 424.96 158.12 424.96 158.15 424.97 158.18 424.97 158.22 424.97 158.25 424.98 158.27 424.98 158.3 424.99 158.35 424.99 158.39 425 158.42 425 158.47 425.01 158.52 425.01 158.57 425.01 158.62 425 158.65 425 158.7 425.01 158.75 425.01 158.81 425.01 158.88 425.01 158.94 424.99 159 424.98 159.05 424.96 159.09 424.95 159.13 424.94 159.19 424.92 159.24 424.91 159.3 424.92 159.34 424.93 159.41 424.95 159.45 424.99 159.49 425.04 159.53 425.09 159.56 425.13 159.58 425.17 159.6 425.16 159.63 425.15 159.67 425.14 159.7 425.11 159.74 425.08 159.77 425.05 159.79 425.01 159.8 424.97 159.81 424.94 159.81 424.92 159.8 424.89 159.8 424.85 159.79 424.82 159.78 424.76 159.78 424.72 159.78 424.68 159.8 424.63 159.81 424.61 159.83 424.59 159.85 424.57 159.88 424.58 159.92 424.58 159.97 424.59 160.02 424.6 160.05 424.6 160.1 424.59 160.13 424.57 160.15 424.55 160.18 424.51 160.21 424.48 160.25 424.45 160.28 424.4 160.32 424.37 160.33 424.34 160.33 424.3 160.33 424.26 160.31 424.21 160.3 424.18 160.3 424.16 160.31 424.14 160.32 424.12 160.34 424.11 160.36 424.1 160.4 424.09 160.45 424.08 160.49 424.08 160.52 424.07 160.57 424.06 160.61 424.04 160.64 424.01 160.67 423.98 160.69 423.92 160.7 423.89 160.71 423.85 160.71 423.82 160.73 423.8 160.74 423.78 160.76 423.76 160.77 423.76 160.8 423.75 160.84 423.75 160.88 423.76 160.92 423.76 160.95 423.76 160.97 423.76 160.99 423.77 161.02 423.77 161.06 423.78 161.1 423.79 161.14 423.8 161.23 423.8 161.26 423.79 161.29 423.78 161.32 423.77 161.35 423.75 161.39 423.75 161.42 423.75 161.45 423.76 161.48 423.76 161.51 423.74 161.56 423.72 161.59 423.71 161.62 423.7 161.65 423.69 161.68 423.68 161.71 423.67 161.73 423.67 161.74 423.66 161.74 423.63 161.74 423.61 161.74 423.58 161.74 423.55 161.74 423.52 161.74 423.49 161.73 423.46 161.73 423.45 161.71 423.43 161.69 423.42 161.67 423.41 161.65 423.39 161.63 423.37 161.61 423.36 161.6 423.34 161.59 423.32 161.59 423.29 161.6 423.26 161.61 423.24 161.62 423.22 161.62 423.2 161.62 423.17 161.61 423.15 161.6 423.13 161.59 423.11 161.58 423.09 161.57 423.07 161.56 423.05 161.55 423.03 161.54 423.02 161.53 422.98 161.5 422.96 161.48 422.94 161.47 422.92 161.45 422.9 161.43 422.88 161.42 422.86 161.4 422.84 161.38 422.83 161.36 422.81 161.34 422.79 161.33 422.77 161.3 422.75 161.28 422.72 161.26 422.71 161.25 422.69 161.22 422.66 161.2 422.64 161.18 422.62 161.16 422.6 161.14 422.58 161.13 422.56 161.12 422.54 161.1 422.52 161.09 422.5 161.07 422.47 161.05 422.44 161.04 422.41 161.03 422.36 161 422.33 160.98 422.3 160.96 422.28 160.94 422.25 160.92 422.21 160.89 422.19 160.87 422.15 160.85 422.12 160.83 422.09 160.81 422.06 160.79 422.05 160.77 422.02 160.75 421.99 160.73 421.96 160.71 421.93 160.7 421.9 160.68 421.86 160.67 421.83 160.66 421.8 160.66 421.75 160.65 421.7 160.64 421.67 160.64 421.63 160.64 421.59 160.64 421.56 160.64 421.52 160.63 421.48 160.63 421.44 160.63 421.41 160.64 421.38 160.65 421.34 160.66 421.3 160.66 421.28 160.66 421.23 160.67 421.2 160.67 421.16 160.67 421.14 160.67 421.1 160.68 421.07 160.69 421.04 160.71 421.01 160.72 420.98 160.74 420.96 160.74 420.93 160.75 420.91 160.76 420.88 160.76 420.86 160.77 420.84 160.78 420.82 160.79 420.8 160.8 420.78 160.83 420.76 160.85 420.72 160.87 420.7 160.89 420.67 160.91 420.65 160.92 420.62 160.94 420.6 160.95 420.58 160.97 420.55 160.99 420.52 161.01 420.48 161.04 420.45 161.05 420.43 161.07 420.39 161.08 420.36 161.09 420.32 161.1 420.28 161.1 420.23 161.11 420.12 161.11 420.08 161.11 420.06 161.11 420.03 161.11 419.85 161.33 418.32 163.3 416.34 164.76 416.22 165.4 416.15 165.74 416.05 166.2 415.41 167.56 414.65 168.97 414.3 169.25 414.01 169.98 413.5 171.38 413.43 172.08 413.34 171.91 413.07 171.71 412.85 171.46 412.64 171.22 412.31 170.85 411.56 170.02 410.07 168.82 409.69 168.51 410 167.99 410.12 167.76 410.12 166.54 409.86 165.63 411.24 164.88 411.63 163.57 411.57 162.66 411.57 162.66 411.59 162.65 411.61 162.62 411.62 162.59 411.65 162.54 411.68 162.46 411.69 162.44 411.72 162.4 411.75 162.36 411.78 162.32 411.82 162.28 411.84 162.26 411.85 162.25 411.87 162.24 411.89 162.23 411.91 162.22 411.9 162.17 411.89 162.14 411.89 162.12 411.88 162.08 411.88 162.06 411.87 162.02 411.85 162 411.84 161.98 411.81 161.96 411.79 161.95 411.77 161.93 411.74 161.9 411.72 161.85 411.7 161.81 411.7 161.8 411.69 161.75 411.69 161.71 411.69 161.66 411.71 161.6 411.71 161.55 411.71 161.49 411.69 161.45 411.67 161.39 411.64 161.34 411.62 161.31 411.61 161.27 411.61 161.23 411.6 161.19 411.6 161.16 411.6 161.15 411.58 161.11 411.56 161.07 411.54 161.03 411.52 160.99 411.5 160.93 411.47 160.9 411.44 160.85 411.41 160.83 411.38 160.81 411.33 160.8 411.3 160.79 411.27 160.77 411.24 160.75 411.22 160.72 411.21 160.66 411.19 160.6 411.18 160.56 411.17 160.51 411.17 160.48 411.18 160.46 411.19 160.45 411.21 160.43 411.23 160.4 411.24 160.36 411.26 160.3 411.27 160.26 411.29 160.23 411.3 160.2 411.31 160.14 411.33 160.09 411.35 160.05 411.38 160.02 411.41 159.98 411.44 159.96 411.47 159.93 411.52 159.88 411.55 159.84 411.59 159.81 411.63 159.76 411.66 159.74 411.67 159.71 411.69 159.67 411.73 159.61 411.76 159.57 411.8 159.54 411.85 159.51 411.9 159.47 411.94 159.45 412 159.4 412.03 159.37 412.05 159.35 412.09 159.32 412.12 159.29 412.17 159.25 412.21 159.21 412.23 159.2 412.29 159.17 412.33 159.16 412.36 159.15 412.4 159.13 412.43 159.12 412.46 159.08 412.49 159.05 412.52 159.02 412.54 159 412.56 158.99 412.6 158.96 412.62 158.95 412.66 158.93 412.69 158.93 412.74 158.93 412.78 158.93 412.84 158.92 412.87 158.91 412.91 158.89 412.93 158.88 412.94 158.87 412.95 158.85 412.95 158.82 412.96 158.81 412.96 158.77 412.96 158.74 412.96 158.71 412.95 158.7 412.95 158.67 412.95 158.65 412.94 158.6 412.94 158.58 412.95 158.54 412.96 158.53 412.96 158.52 412.97 158.5 412.97 158.49 412.96 158.48 412.96 158.47 412.97 158.46 412.98 158.43 413 158.41 413.01 158.4 413.03 158.38 413.04 158.36 413.05 158.36 413.07 158.33 413.12 158.34 413.15 158.35 413.17 158.36 413.23 158.38 413.28 158.4 413.33 158.42 413.65 158.29 413.8 158.11 413.8 158.04 413.8 158.01 413.79 157.99 413.79 157.98 413.78 157.96 413.77 157.95 413.76 157.94 413.76 157.93 413.75 157.93 413.75 157.91 413.75 157.89 413.76 157.88 413.79 157.87 413.8 157.86 413.82 157.86 413.83 157.84 413.84 157.84 413.89 157.04 413.94 156.08 414.33 155.1 415.3 153.42 415.93 151.76 416.07 150.4 417.37 148.87 418.21 146.83 419.35 144.26 419.38 143.86 419.47 143.44 419.68 143.2 420.1 142.8 420.79 142.27 421.43 142.21 422.74 142.15 423.54 142.02 424.1 141.68 Z"/>
</g></svg>