<svg xmlns="http://www.w3.org/2000/svg" version="1.2" baseProfile="tiny" stroke-linecap="round" stroke-linejoin="round" viewBox="540.1 318.85 28.2 23.15"><g xmlns="http://www.w3.org/2000/svg" id="Elo">
<path d="M 550.13 318.86 550.16 318.9 550.2 318.96 550.47 319.09 550.49 319.1 550.7 319.19 550.97 319.31 551.14 319.39 551.24 319.6 551.31 319.72 551.33 319.74 551.34 319.76 551.4 319.83 551.63 320.09 551.74 320.23 551.82 320.29 552.06 320.46 552.14 320.53 552.32 320.67 552.46 320.78 552.59 320.85 552.73 320.93 552.8 320.97 552.85 321 552.93 321.05 553.39 321.36 553.42 321.37 553.58 321.53 553.63 321.58 553.67 321.63 553.72 321.7 553.77 321.83 553.82 321.93 553.84 321.98 553.87 322.04 553.9 322.1 553.9 322.12 553.9 322.21 553.87 322.23 553.81 322.25 553.7 322.29 553.72 322.39 553.72 322.41 553.67 322.54 553.66 322.56 553.61 322.67 553.58 322.75 553.64 322.92 553.73 323.12 553.83 323.25 553.9 323.35 553.98 323.45 554.04 323.51 554.17 323.61 554.29 323.69 554.35 323.72 554.48 323.8 554.49 323.8 554.57 323.85 554.64 323.9 554.72 323.94 554.78 323.97 554.83 324 554.91 324.03 555.03 324.06 555.1 324.08 555.16 324.1 555.2 324.13 555.23 324.15 555.31 324.23 555.36 324.28 555.41 324.32 555.43 324.35 555.43 324.36 555.44 324.38 555.47 324.44 555.49 324.48 555.51 324.52 555.54 324.56 555.59 324.6 555.77 324.73 555.86 324.79 555.94 324.84 556.03 324.9 556.11 324.97 556.17 325.02 556.19 325.04 556.23 325.08 556.31 325.15 556.42 325.23 556.49 325.27 556.59 325.33 556.67 325.39 556.73 325.43 556.82 325.46 556.96 325.5 557.04 325.53 557.1 325.55 557.16 325.58 557.29 325.66 557.35 325.69 557.41 325.7 557.5 325.71 557.61 325.73 557.66 325.73 557.67 325.73 557.71 325.73 557.78 325.73 557.85 325.74 557.92 325.76 558.08 325.82 558.16 325.87 558.22 325.9 558.26 325.91 558.33 325.95 558.4 325.98 558.42 326 558.46 326.02 558.63 325.78 558.64 325.77 558.69 325.68 559.2 324.96 559.24 324.9 559.38 324.95 559.52 325.02 559.6 325.06 559.7 325.12 559.84 325.19 559.93 325.24 560.01 325.3 560.08 325.36 560.19 325.42 560.41 325.56 560.54 325.66 560.73 325.79 560.84 325.87 560.9 325.92 560.96 325.96 560.99 325.98 561.11 326.07 561.16 326.11 561.23 326.16 561.27 326.19 561.32 326.22 561.4 326.27 561.41 326.27 561.51 326.34 561.53 326.36 561.61 326.41 561.65 326.44 561.71 326.49 561.78 326.54 561.81 326.56 561.85 326.6 561.9 326.64 561.95 326.69 562.18 326.91 562.22 326.95 562.33 327.05 562.34 327.06 562.45 327.17 562.57 327.3 562.68 327.42 562.73 327.48 562.79 327.53 562.96 327.66 563.1 327.77 563.36 328 563.46 328.1 563.68 328.3 563.78 328.39 563.86 328.46 563.92 328.54 563.98 328.63 564.24 329.06 564.43 329.36 564.43 329.46 564.44 329.97 564.44 330.02 564.42 330.11 564.42 330.14 564.43 330.17 564.45 330.18 564.54 330.21 564.61 330.24 564.62 330.25 564.69 330.28 564.75 330.3 564.76 330.3 564.83 330.34 564.91 330.37 565 330.43 565.04 330.45 565.14 330.5 565.24 330.55 565.37 330.6 565.46 330.63 565.54 330.66 565.62 330.69 565.63 330.69 565.66 330.71 565.68 330.71 565.69 330.72 565.71 330.73 565.76 330.76 565.91 330.88 565.96 330.91 566 330.94 566.04 330.99 566.06 331.03 566.08 331.08 566.13 331.08 566.2 331.09 566.28 331.1 566.35 331.11 566.44 331.13 566.52 331.15 566.6 331.17 566.66 331.18 566.7 331.19 566.76 331.2 566.8 331.21 566.84 331.21 566.9 331.21 566.96 331.21 567.03 331.21 567.09 331.22 567.17 331.21 567.24 331.2 567.3 331.19 567.31 331.19 567.36 331.18 567.38 331.18 567.46 331.14 567.53 331.11 567.6 331.08 567.66 331.05 567.69 331.04 567.72 331.04 567.77 331.03 567.81 331.03 567.85 331.04 567.9 331.06 567.97 331.12 568.02 331.16 568.06 331.23 568.1 331.28 568.16 331.38 568.22 331.47 568.29 331.56 568.26 331.6 568.13 331.81 567.97 332.06 567.96 332.08 567.85 332.24 567.83 332.27 567.81 332.3 567.77 332.37 567.72 332.45 567.64 332.6 567.58 332.69 567.54 332.76 567.43 332.9 567.4 332.95 567.38 332.98 567.3 333.08 567.26 333.1 567.11 333.15 566.74 333.27 566.7 333.28 566.68 333.29 566.54 333.33 566.52 333.33 566.34 333.38 566.21 333.42 566.11 333.45 565.94 333.49 565.89 333.51 565.85 333.52 565.58 333.59 565.57 333.59 564.84 333.82 564.82 333.82 564.81 333.85 564.8 333.88 564.78 333.9 564.73 333.92 564.66 333.93 564.66 333.94 564.56 334.06 564.54 334.08 564.51 334.11 564.47 334.16 564.42 334.18 564.39 334.19 564.36 334.19 564.12 334.25 564.04 334.27 564.01 334.28 564 334.29 563.9 334.32 563.82 334.35 563.73 334.38 563.67 334.38 563.59 334.37 563.45 334.33 563.4 334.31 562.65 334.06 562.62 334.08 562.56 334.14 562.55 334.14 562.53 334.17 562.47 334.22 562.44 334.24 562.23 334.45 562.22 334.46 562.21 334.47 561.94 334.73 561.93 334.74 561.91 334.77 561.63 335.25 561.11 335.64 560.84 335.68 560.84 335.69 560.84 335.74 560.85 335.96 560.85 335.98 560.78 336.22 560.73 336.38 560.67 336.44 560.66 336.45 560.62 336.49 560.6 336.51 560.58 336.53 560.56 336.55 560.54 336.57 560.48 336.63 560.38 336.68 560.37 336.68 560.3 336.69 560.29 336.7 560.24 336.7 560.18 336.71 560.11 336.71 560.07 336.71 559.91 336.7 559.89 336.69 559.82 336.68 559.77 336.67 559.63 336.64 559.54 336.62 559.53 336.65 559.51 336.68 559.49 336.73 559.45 336.78 559.44 336.82 559.43 336.82 559.41 336.85 559.38 336.89 559.32 336.96 559.31 336.99 559.3 337 559.28 337.04 559.24 337.11 559.19 337.21 559.15 337.27 559.14 337.33 559.09 337.28 558.94 337.1 558.91 337.08 558.85 337.03 558.84 337.01 558.83 336.98 558.82 336.92 558.83 336.88 558.83 336.85 558.83 336.83 558.84 336.78 558.88 336.7 558.88 336.69 558.9 336.64 558.94 336.57 558.96 336.5 558.98 336.45 558.83 336.39 558.73 336.34 558.62 336.3 558.39 336.15 558.29 336.07 558.21 336.01 558.19 336 558.18 336 558.15 335.98 558.12 335.97 558.05 335.94 557.94 335.89 557.72 335.78 557.52 335.66 557.4 335.59 557.23 335.55 556.77 335.44 556.75 335.43 556.62 335.49 556.58 335.51 556.56 335.52 556.53 335.53 556.41 335.58 556.28 335.6 556.17 335.65 556.08 335.7 555.93 335.81 555.8 335.91 555.79 335.92 555.78 335.94 555.73 335.98 555.67 336.04 555.66 336.09 555.65 336.18 555.64 336.27 555.61 336.37 555.58 336.4 555.53 336.46 555.41 336.54 555.29 336.6 555.14 336.65 555.13 336.66 554.9 336.72 554.68 336.76 554.45 336.81 554.21 336.87 554.12 336.9 554.05 336.93 554 336.97 553.96 337.02 553.92 337.04 553.83 337.06 553.75 337.05 553.65 337.03 553.55 337 553.48 336.97 553.44 336.95 553.35 336.95 553.21 336.95 553.08 336.96 552.94 336.97 552.79 336.97 552.66 336.97 552.61 336.97 552.55 336.98 552.5 337.01 552.48 337.01 552.3 337.07 552.14 337.12 552.04 337.15 551.93 337.2 551.8 337.25 551.66 337.31 551.48 337.39 551.33 337.45 551.19 337.52 551.13 337.54 551.09 337.56 550.93 337.62 550.63 337.75 550.47 337.84 550.31 338.19 550.34 338.31 550.38 338.43 550.44 338.61 550.45 338.76 550.45 338.94 550.44 339.13 550.44 339.2 550.25 339.44 550.09 339.63 550.03 339.72 549.92 339.85 549.78 340.03 549.7 340.12 549.64 340.18 549.53 340.32 549.4 340.5 549.16 340.85 549.15 340.91 549.12 341.05 549.08 341.32 549.08 341.33 549.07 341.39 549.04 341.43 548.94 341.56 548.81 341.75 548.69 341.92 548.66 341.97 548.62 341.96 548.56 341.96 548.53 341.95 548.5 341.95 548.17 341.93 548.02 341.9 547.91 341.89 547.87 341.88 547.83 341.88 547.82 341.88 547.81 341.88 547.78 341.87 547.68 341.85 547.59 341.82 547.48 341.79 547.36 341.74 547.15 341.65 547 341.6 546.88 341.55 546.69 341.47 546.61 341.45 546.54 341.42 546.47 341.41 546.39 341.39 546.28 341.39 546.27 341.39 546.21 341.39 546.14 341.38 546.13 341.38 546.04 341.37 545.95 341.35 545.87 341.31 545.78 341.27 545.68 341.22 545.57 341.17 545.47 341.14 545.39 341.11 545.32 341.1 545.24 341.1 545.17 341.12 545.09 341.13 544.99 341.16 544.88 341.16 544.76 341.19 544.66 341.2 544.57 341.2 544.5 341.18 544.41 341.16 544.31 341.14 544.19 341.11 544.1 341.1 544.07 341.09 543.96 341.09 543.87 341.08 543.79 341.06 543.74 341.07 543.7 341.07 543.6 341.06 543.58 341.06 543.55 341.05 543.51 341.04 543.49 341.03 543.48 341.03 543.46 341.02 543.43 341.01 543.36 340.98 543.3 340.97 543.23 340.96 543.22 340.95 543.21 340.95 543.2 340.95 543.15 340.95 543.03 340.93 543.01 340.93 542.9 340.91 542.82 340.9 542.72 340.87 542.51 340.78 542.48 340.77 542.42 340.75 542.35 340.74 542.25 340.72 542.24 340.72 542.23 340.72 542.22 340.71 542.12 340.7 542.12 340.7 542.02 340.68 541.94 340.67 541.72 340.64 541.61 340.63 541.35 340.59 541.3 340.58 541.19 340.55 540.99 340.5 540.78 340.43 540.7 340.41 540.63 340.4 540.48 340.35 540.33 340.29 540.12 340.23 540.14 340.16 540.19 340.01 540.21 339.94 540.23 339.87 540.25 339.8 540.28 339.73 540.3 339.66 540.33 339.58 540.35 339.52 540.37 339.44 540.4 339.38 540.42 339.3 540.43 339.28 540.44 339.25 540.44 339.18 540.45 339.11 540.46 338.99 540.47 338.89 540.47 338.83 540.48 338.8 540.5 338.74 540.53 338.68 540.55 338.62 540.58 338.56 540.61 338.48 540.63 338.42 540.66 338.35 540.69 338.28 540.71 338.21 540.74 338.15 540.76 338.08 540.8 337.99 540.85 337.89 540.91 337.8 540.94 337.76 540.99 337.67 541.02 337.61 541.09 337.49 541.17 337.36 541.25 337.23 541.33 337.09 541.39 336.98 541.41 336.95 541.48 336.8 541.54 336.67 541.61 336.52 541.68 336.38 541.82 336.09 541.89 335.95 541.95 335.81 542 335.71 542.02 335.66 542.04 335.62 542.11 335.6 542.13 335.59 542.19 335.56 542.37 335.49 542.5 335.44 542.64 335.37 542.72 335.34 542.73 335.39 542.76 335.48 542.78 335.54 542.81 335.63 542.88 335.71 542.96 335.8 543.04 335.82 543.11 335.83 543.19 335.84 543.26 335.85 543.4 335.85 543.51 335.85 543.6 335.85 543.69 335.87 543.74 335.88 543.83 335.9 543.94 335.9 543.97 335.9 544.04 335.9 544.11 335.89 544.25 335.87 544.31 335.87 544.38 335.86 544.45 335.85 544.54 335.84 544.62 335.83 544.71 335.82 544.83 335.83 544.86 335.84 544.93 335.85 544.98 335.84 545.05 335.83 545.12 335.82 545.18 335.8 545.22 335.78 545.25 335.76 545.3 335.73 545.32 335.72 545.36 335.69 545.42 335.65 545.47 335.6 545.53 335.56 545.58 335.51 545.66 335.46 545.69 335.43 545.72 335.4 545.75 335.38 545.78 335.34 545.82 335.31 545.85 335.27 545.88 335.24 545.88 335.24 545.92 335.2 545.95 335.17 545.98 335.12 545.99 335.1 546.04 335.01 546.06 334.97 546.07 334.91 546.1 334.84 546.13 334.82 546.21 334.77 546.23 334.76 546.29 334.72 546.34 334.69 546.41 334.64 546.46 334.61 546.5 334.58 546.59 334.54 546.66 334.51 546.71 334.49 546.73 334.48 546.75 334.41 546.76 334.35 546.78 334.28 546.79 334.22 546.8 334.17 546.82 334.11 546.84 334.04 546.85 333.97 546.87 333.89 546.89 333.82 546.91 333.74 546.92 333.67 546.94 333.6 546.95 333.52 546.96 333.44 546.98 333.37 546.99 333.29 547 333.22 547.01 333.14 547.03 333.07 547.05 333 547.07 332.93 547.09 332.83 547.1 332.76 547.12 332.71 547.15 332.55 547.17 332.49 547.19 332.41 547.22 332.26 547.24 332.13 547.24 332.08 547.27 331.94 547.28 331.9 547.29 331.8 547.3 331.75 547.32 331.64 547.33 331.58 547.34 331.47 547.4 331.16 547.41 331.08 547.43 330.99 547.45 330.86 547.46 330.8 547.48 330.68 547.49 330.63 547.51 330.51 547.52 330.44 547.54 330.35 547.56 330.24 547.58 330.13 547.61 329.98 547.63 329.85 547.65 329.76 547.72 329.56 547.79 329.4 547.88 329.2 547.91 329.13 547.97 329 547.99 328.95 548 328.92 548.01 328.91 548.03 328.87 548.03 328.86 548.08 328.74 548.12 328.65 548.15 328.6 548.23 328.48 548.25 328.45 548.26 328.37 548.26 328.3 548.26 328.25 548.24 328.18 548.2 328.03 548.2 328.01 548.2 328 548.18 327.96 548.18 327.93 548.18 327.92 548.17 327.87 548.14 327.73 548.14 327.7 548.13 327.66 548.13 327.63 548.14 327.57 548.17 327.43 548.18 327.42 548.2 327.34 548.2 327.32 548.2 327.31 548.2 327.28 548.21 327.21 548.21 327.15 548.22 327.07 548.22 327.02 548.22 327 548.24 326.85 548.25 326.81 548.25 326.8 548.26 326.71 548.29 326.56 548.29 326.51 548.3 326.39 548.3 326.32 548.31 326.24 548.31 326.14 548.32 326.08 548.34 325.95 548.34 325.92 548.39 325.7 548.39 325.69 548.39 325.68 548.38 325.67 548.36 325.52 548.32 325.22 548.29 325.08 548.27 324.99 548.27 324.98 548.26 324.97 548.23 324.95 548.12 324.85 548.01 324.76 547.91 324.66 547.8 324.56 547.7 324.47 547.68 324.46 547.67 324.44 547.55 324.41 547.52 324.4 547.44 324.33 547.34 324.25 547.24 324.16 547.13 324.07 547.07 324.03 547.01 323.99 546.95 323.96 546.88 323.98 546.77 324 546.74 324 546.61 324.03 546.48 324.05 546.47 324.05 546.38 324.06 546.34 324.07 546.33 324.08 546.26 324.1 546.2 324.11 546.17 324.11 546.12 324.11 546.06 324.1 545.95 324.11 545.75 324.11 545.64 324.11 545.6 324.11 545.47 324.1 545.34 324.08 545.29 324.08 545.2 324.13 545.1 324.19 545.1 324.22 545.1 324.29 545.03 324.3 544.9 324.33 544.78 324.35 544.68 324.37 544.65 324.38 544.59 324.39 544.49 324.37 544.39 324.35 544.31 324.33 544.3 324.33 544.17 324.3 544.03 324.27 543.89 324.24 543.75 324.21 543.61 324.17 543.47 324.12 543.45 324.12 543.44 324.12 543.33 324.1 543.28 324.1 543.27 324.1 543.19 324.07 543.06 324.05 543.08 324.04 543.12 324.01 543.13 324.01 543.23 323.92 543.25 323.9 543.34 323.82 543.45 323.72 543.56 323.62 543.63 323.56 543.67 323.53 543.77 323.44 543.87 323.35 543.92 323.29 543.96 323.25 543.97 323.22 544.05 323.14 544.07 323.11 544.18 322.99 544.28 322.88 544.39 322.76 544.48 322.65 544.49 322.64 544.56 322.54 544.65 322.42 544.73 322.3 544.76 322.26 544.78 322.22 544.82 322.15 544.87 322.06 544.88 322.04 544.88 322.03 544.89 322.02 544.89 322.01 544.96 321.92 544.98 321.89 545 321.82 545.03 321.77 545.06 321.72 545.07 321.66 545.1 321.61 545.16 321.47 545.22 321.34 545.25 321.28 545.29 321.32 545.35 321.37 545.4 321.43 545.44 321.47 545.48 321.5 545.5 321.51 545.52 321.52 545.53 321.51 545.54 321.5 545.55 321.49 545.6 321.43 545.67 321.34 545.68 321.33 545.76 321.25 545.77 321.27 545.79 321.29 545.83 321.33 545.89 321.34 545.91 321.35 545.96 321.33 546.04 321.3 546.11 321.28 546.16 321.24 546.24 321.18 546.27 321.17 546.4 321.12 546.48 321.1 546.49 321.1 546.54 321.09 546.67 321.05 546.73 321.03 546.8 321 546.87 320.97 546.92 320.94 546.93 320.93 547.06 320.88 547.12 320.87 547.19 320.84 547.25 320.81 547.32 320.78 547.38 320.74 547.44 320.7 547.49 320.68 547.56 320.64 547.64 320.6 547.69 320.57 547.75 320.53 547.81 320.5 547.92 320.45 547.94 320.44 547.99 320.41 548.06 320.37 548.13 320.33 548.14 320.32 548.19 320.3 548.2 320.29 548.33 320.22 548.46 320.15 548.57 320.09 548.59 320.08 548.69 320.02 548.72 320.01 548.78 319.97 548.81 319.96 548.85 319.95 548.99 319.89 549.12 319.84 549.26 319.78 549.39 319.72 549.41 319.71 549.45 319.7 549.52 319.67 549.65 319.63 549.7 319.61 549.78 319.59 549.84 319.57 549.89 319.44 549.92 319.38 549.92 319.37 549.93 319.35 549.95 319.3 549.96 319.27 550.04 319.07 550.05 319.06 550.09 318.95 550.13 318.86 Z"/>
</g></svg>