<svg xmlns="http://www.w3.org/2000/svg" version="1.2" baseProfile="tiny" stroke-linecap="round" stroke-linejoin="round" viewBox="231.93 74.62 16.82 15.83"><g xmlns="http://www.w3.org/2000/svg" id="Ereño">
<path d="M 236.31 74.8 236.33 74.85 236.76 75.19 237.21 75.43 237.39 75.53 237.27 76.44 237.36 76.47 237.42 76.48 237.45 76.5 237.48 76.53 237.55 76.58 237.61 76.61 237.65 76.64 237.69 76.65 237.74 76.67 237.77 76.67 237.81 76.67 237.85 76.67 237.89 76.65 237.93 76.64 237.97 76.63 238.02 76.62 238.08 76.62 238.15 76.62 238.19 76.62 238.23 76.62 238.27 76.63 238.32 76.64 238.36 76.65 238.39 76.66 238.42 76.67 238.44 76.7 238.46 76.72 238.48 76.75 238.5 76.79 238.52 76.83 238.54 76.87 238.56 76.92 238.58 76.98 238.64 76.96 238.7 76.95 238.75 76.95 238.81 76.95 238.88 76.95 238.93 76.94 238.99 76.94 239.04 76.93 239.09 76.92 239.15 76.91 239.2 76.89 239.25 76.87 239.29 76.86 239.32 76.85 239.36 76.83 239.4 76.81 239.44 76.8 239.48 76.78 239.52 76.75 239.56 76.73 239.59 76.7 239.63 76.67 239.66 76.66 239.71 76.63 239.74 76.6 239.77 76.58 239.79 76.55 239.81 76.53 239.83 76.51 239.87 76.49 239.9 76.46 239.94 76.43 239.95 76.43 239.98 76.42 240 76.41 240.05 76.4 240.1 76.39 240.16 76.37 240.21 76.36 240.26 76.36 240.32 76.35 240.38 76.36 240.43 76.37 240.48 76.39 240.53 76.4 240.58 76.4 240.63 76.41 240.68 76.41 240.72 76.42 240.76 76.44 240.81 76.47 240.87 76.5 240.92 76.53 240.98 76.56 241.03 76.59 241.07 76.61 241.12 76.62 241.16 76.63 241.2 76.64 241.24 76.64 241.28 76.64 241.33 76.64 241.37 76.63 241.41 76.62 241.46 76.61 241.51 76.6 241.55 76.59 241.56 76.59 241.57 76.59 241.65 76.58 241.71 76.59 241.76 76.59 241.77 76.59 241.82 76.59 241.88 76.59 241.92 76.6 241.96 76.61 242 76.62 242.09 76.66 242.25 76.73 242.31 76.79 242.36 76.84 242.42 76.9 242.47 76.94 242.51 76.98 242.73 77.07 243.11 77.08 243.31 77.27 243.64 77.34 243.81 77.38 244.09 77.4 244.35 77.54 244.62 77.45 244.86 77.87 244.85 78.53 244.84 78.54 244.54 78.97 244.28 79.35 243.93 79.85 243.74 79.84 243.47 79.82 243.35 79.81 242.94 79.78 242.72 79.77 242.87 80.15 243.01 80.53 243.19 81 243.58 81.26 243.91 81.48 244.05 81.58 244.11 81.63 244.25 81.77 244.38 81.89 244.46 81.96 244.56 82.04 244.92 82.32 244.79 82.7 245.3 83.03 245.62 83.35 245.89 83.63 246.14 83.87 246.36 84.2 246.9 84.7 247.38 84.93 247.55 85.02 248 85.27 248.44 85.56 248.72 85.74 248.45 86.07 248.24 86.33 248.08 86.53 247.91 86.74 247.62 87.1 247.45 87.32 247.26 87.52 247.02 87.78 246.83 87.99 246.67 88.17 245.83 88.29 244.95 88.16 244.66 88.32 244.32 88.33 243.89 88.43 243.62 88.42 243.48 88.47 243.15 88.79 243.03 89.16 242.86 89.19 242.65 89.39 242.36 89.66 242.02 89.82 241.94 89.87 241.64 90.17 241.44 90.29 240.85 90.4 240.6 90.45 240.55 90.27 240.5 90.05 240.43 89.78 240.33 89.4 240.28 89.2 240.17 89.03 239.9 88.62 239.82 88.45 239.72 88.25 239.65 88.12 239.56 87.94 239.34 87.49 239.12 87.23 238.85 86.92 238.48 86.49 238.22 86.3 237.84 86.1 237.61 85.98 237.21 85.77 236.72 85.51 236.55 85.43 236.11 85.23 235.42 84.92 235.11 84.7 235.02 84.63 234.74 84.43 234.54 84.3 234.39 84.18 234.13 84.02 233.89 83.87 233.51 83.62 233.25 83.49 232.58 83.16 232.34 83.07 231.94 82.93 232.11 82.61 232.22 82.41 232.31 82.24 232.41 82.05 232.54 81.75 232.69 81.43 232.77 81.31 232.88 81.13 233.43 80.61 233.73 80.04 233.91 79.7 234.11 79.32 234.26 79.12 234.45 78.84 234.65 78.55 234.79 78.35 234.97 78.08 235.13 77.86 235.1 77.74 235.08 77.61 235.05 77.49 235.03 77.37 234.96 77.01 234.89 76.7 234.8 76.27 234.88 75.82 235.08 75.46 235.22 75.21 235.29 75.1 235.55 74.64 236.31 74.8 Z"/>
</g></svg>