<svg xmlns="http://www.w3.org/2000/svg" version="1.2" baseProfile="tiny" stroke-linecap="round" stroke-linejoin="round" viewBox="264.75 138.18 11.15 12.88"><g xmlns="http://www.w3.org/2000/svg" id="Ermua">
<path d="M 274.18 148.69 274.07 148.91 273.91 149.08 273.86 149.12 273.82 149.15 273.71 149.22 273.56 149.32 273.4 149.29 273.37 149.28 273.36 149.28 273.34 149.28 273.31 149.28 273.28 149.29 273.24 149.3 273.21 149.31 273.18 149.32 273.17 149.34 273.15 149.35 273.15 149.36 273.11 149.47 273.08 149.56 273.06 149.7 273.05 149.74 273.05 149.76 273.01 149.79 272.99 149.8 272.88 149.81 272.86 149.81 272.77 149.94 272.61 150.02 272.54 150.05 272.45 150.09 272.36 150.12 272.27 150.14 272.23 150.16 272.2 150.17 272.18 150.17 272.17 150.17 272.12 150.18 272.09 150.18 272.05 150.18 272.04 150.18 271.99 150.17 271.97 150.17 271.96 150.16 271.93 150.15 271.91 150.13 271.9 150.11 271.9 150.09 271.9 150.05 271.89 150.03 271.85 149.99 271.84 149.98 271.82 149.98 271.78 149.98 271.74 149.99 271.68 150.03 271.51 150.14 271.23 150.27 270.95 150.37 270.87 150.35 270.74 150.31 270.7 150.3 270.69 150.31 270.67 150.32 270.64 150.33 270.6 150.36 270.54 150.36 270.48 150.4 270.23 150.62 270.12 150.69 270.07 150.72 270.04 150.76 270.03 150.83 269.98 150.84 269.95 150.84 269.9 150.85 269.87 150.87 269.84 150.89 269.83 150.95 269.8 150.96 269.63 151.03 269.56 151.04 269.46 151.01 269.42 151.01 269.39 151.01 269.32 150.99 269.25 150.98 269.23 150.98 269.08 150.94 269.03 150.93 268.96 150.93 268.9 150.91 268.87 150.9 268.85 150.88 268.81 150.84 268.79 150.82 268.76 150.81 268.72 150.8 268.7 150.79 268.68 150.76 268.54 150.67 268.49 150.64 268.47 150.64 268.43 150.63 268.4 150.66 268.38 150.67 268.36 150.68 268.33 150.67 268.2 150.6 268.16 150.6 268.1 150.63 268.07 150.65 268 150.67 267.98 150.69 267.96 150.69 267.93 150.69 267.91 150.71 267.88 150.73 267.85 150.77 267.84 150.78 267.7 150.75 267.61 150.74 267.43 150.72 267.37 150.73 267.28 150.73 267.21 150.72 267.16 150.72 267.01 150.64 266.97 150.62 266.85 150.57 266.83 150.55 266.81 150.53 266.78 150.5 266.75 150.49 266.71 150.48 266.7 150.47 266.67 150.47 266.65 150.46 266.63 150.45 266.62 150.45 266.57 150.43 266.52 150.43 266.44 150.44 266.41 150.4 266.4 150.39 266.36 150.37 266.31 150.34 266.25 150.32 266.19 150.3 266.09 150.27 265.83 150.24 265.72 150.18 265.64 150.14 265.58 150.12 265.53 150.1 265.36 150.04 265.18 149.97 265.12 149.96 264.77 149.85 265.91 146.64 266.07 146.5 266.36 146.27 266.47 146.12 269.34 142.83 270.99 140.61 272.2 139.13 273 138.21 273.07 138.28 273.17 138.54 273.24 138.62 273.3 138.94 273.38 139.15 273.55 139.41 273.65 139.54 274.11 139.93 274.8 140.54 275.15 140.67 275.76 140.68 275.63 141.31 275.48 141.47 275.43 141.59 275.4 141.72 275.4 141.8 275.9 142.62 275.43 143.08 275.15 143.66 275.53 145.23 275.32 145.57 275.18 145.87 275.16 146.01 275.15 146.07 275.16 146.09 275.16 146.1 275.16 146.11 275.16 146.12 275.15 146.2 275.14 146.26 275.12 146.31 275.03 146.48 275.01 146.53 275.01 146.71 275.01 146.72 275.01 146.73 275.01 146.74 275.01 146.75 275.01 146.76 275.01 146.77 275.01 146.83 275 146.89 274.98 146.94 274.97 146.96 274.95 147 274.93 147.08 274.92 147.08 274.92 147.1 274.92 147.11 274.91 147.12 274.91 147.13 274.91 147.13 274.91 147.14 274.91 147.15 274.9 147.16 274.9 147.17 274.9 147.18 274.89 147.19 274.89 147.2 274.88 147.2 274.88 147.21 274.88 147.22 274.87 147.23 274.86 147.24 274.86 147.24 274.85 147.25 274.84 147.26 274.83 147.26 274.83 147.27 274.82 147.27 274.81 147.28 274.81 147.28 274.8 147.29 274.8 147.29 274.79 147.3 274.78 147.31 274.78 147.32 274.77 147.33 274.77 147.33 274.76 147.34 274.76 147.35 274.75 147.35 274.75 147.36 274.75 147.37 274.74 147.37 274.74 147.39 274.73 147.4 274.72 147.41 274.72 147.42 274.71 147.43 274.71 147.44 274.71 147.44 274.7 147.46 274.7 147.49 274.69 147.52 274.68 147.57 274.68 147.68 274.18 148.69 Z"/>
</g></svg>