<svg xmlns="http://www.w3.org/2000/svg" version="1.2" baseProfile="tiny" stroke-linecap="round" stroke-linejoin="round" viewBox="348.75 137.2 23.9 42.9"><g xmlns="http://www.w3.org/2000/svg" id="Errezil">
<path d="M 349.59 141.69 351.75 141.1 353.25 140.37 353.7 140.65 354.37 140.55 354.86 140.53 355.35 140.54 355.97 140.48 356.59 140.58 357.31 140.73 357.93 140.83 358.48 141.09 359.19 141.44 359.27 141.14 359.79 140.57 360.25 140.54 360.9 140.13 361.38 139.84 362.04 139.18 362.05 139.16 362.06 139.14 362.07 139.1 362.09 139.06 362.11 139.03 362.12 139.01 362.14 138.99 362.16 138.97 362.18 138.95 362.21 138.92 362.24 138.87 362.27 138.82 362.29 138.8 362.31 138.77 362.35 138.73 362.38 138.69 362.39 138.66 362.4 138.64 362.41 138.62 362.43 138.58 362.44 138.52 362.46 138.49 362.48 138.45 362.52 138.38 362.53 138.35 362.55 138.34 362.56 138.34 362.58 138.32 362.61 138.3 362.65 138.27 362.66 138.25 362.68 138.23 362.69 138.18 362.7 138.16 362.71 138.14 362.74 138.11 362.74 138.08 362.75 138.06 362.75 138.02 362.77 137.98 362.77 137.97 362.79 137.94 362.81 137.9 362.83 137.85 362.84 137.82 362.86 137.79 362.87 137.76 362.87 137.75 362.87 137.71 362.88 137.69 362.88 137.67 362.88 137.66 362.88 137.65 362.89 137.64 362.89 137.62 362.89 137.61 362.92 137.61 362.93 137.61 362.96 137.61 362.99 137.61 363.02 137.61 363.05 137.62 363.08 137.63 363.11 137.64 363.13 137.66 363.16 137.68 363.2 137.72 363.22 137.75 363.27 137.81 363.29 137.84 363.33 137.88 363.38 137.94 363.42 137.97 363.46 138.01 363.51 138.04 363.57 138.07 363.6 138.09 363.64 138.11 363.67 138.12 363.71 138.13 363.75 138.13 363.78 138.14 363.82 138.14 363.85 138.15 363.87 138.15 365.35 137.23 366.23 138.13 367.07 138.57 367.35 138.72 367.97 139.62 367.98 139.61 368 139.63 368.02 139.66 368.04 139.7 368.11 139.84 368.14 139.89 368.18 139.99 368.21 140.07 368.26 140.15 368.29 140.2 368.3 140.24 368.29 140.27 368.28 140.35 368.25 140.42 368.24 140.48 368.22 140.58 368.21 140.64 368.21 140.71 368.21 140.74 368.19 140.77 368.16 140.8 368.16 140.83 368.16 140.86 368.16 140.9 368.16 140.94 368.15 140.97 368.15 140.99 368.15 141.03 368.17 141.07 368.18 141.08 368.19 141.09 368.23 141.11 368.36 141.15 368.43 141.17 368.49 141.18 368.57 141.19 368.58 141.19 368.62 141.2 368.63 141.21 368.64 141.23 368.66 141.32 368.67 141.37 368.67 141.39 368.68 141.4 368.7 141.43 368.72 141.47 368.78 141.53 368.8 141.54 368.85 141.57 368.86 141.58 368.88 141.59 368.92 141.62 368.95 141.64 368.98 141.66 369.02 141.68 369.04 141.69 369.06 141.72 369.1 141.75 369.14 141.79 369.17 141.83 369.21 141.88 369.24 141.93 369.26 141.96 369.27 142 369.27 142.03 369.27 142.04 369.28 142.06 369.3 142.07 369.31 142.08 369.32 142.09 369.33 142.11 369.33 142.14 369.34 142.17 369.34 142.2 369.34 142.23 369.35 142.26 369.36 142.29 369.36 142.3 369.36 142.32 369.37 142.34 369.39 142.35 369.4 142.36 369.41 142.36 369.44 142.36 369.46 142.36 369.48 142.36 369.51 142.36 369.53 142.37 369.59 142.4 369.61 142.42 369.64 142.43 369.67 142.46 369.69 142.47 369.72 142.49 369.74 142.5 369.76 142.51 369.77 142.5 369.81 142.5 369.83 142.49 369.86 142.48 369.88 142.47 369.9 142.46 369.92 142.45 369.94 142.44 369.97 142.43 370 142.42 370.02 142.43 370.05 142.44 370.09 142.44 370.12 142.45 370.16 142.46 370.2 142.48 370.23 142.49 370.26 142.5 370.29 142.51 370.33 142.52 370.35 142.53 370.36 142.54 370.38 142.55 370.4 142.56 370.41 142.57 370.42 142.57 370.44 142.58 370.48 142.6 370.51 142.62 370.54 142.63 370.56 142.64 370.6 142.67 370.65 142.69 370.75 142.74 370.78 142.75 370.82 142.77 370.86 142.79 370.89 142.81 370.93 142.83 370.96 142.85 370.99 142.87 371.03 142.89 371.06 142.91 371.08 142.92 371.1 142.94 371.12 142.96 371.15 142.99 371.18 143.01 371.19 143.02 371.22 143.04 371.24 143.05 371.26 143.06 371.31 143.07 371.33 143.08 371.37 143.08 371.39 143.08 371.43 143.07 371.53 143.03 371.55 143.01 371.6 142.98 371.64 142.98 371.7 142.98 371.71 142.98 371.74 142.97 371.77 142.96 371.8 142.94 371.83 142.93 371.85 142.92 371.88 142.91 371.92 142.89 371.97 142.87 372.03 142.85 372.07 142.82 372.11 142.81 372.15 142.8 372.18 142.79 372.19 142.79 372.21 142.78 372.23 142.78 372.24 142.77 372.25 142.77 372.27 142.76 372.3 142.74 372.31 142.74 372.34 142.74 372.35 142.77 372.28 142.97 372.28 142.99 371.96 143.81 371.76 144.32 371.56 144.84 371.37 145.3 371.38 145.32 371.41 145.36 371.46 145.43 371.51 145.5 371.57 145.58 371.62 145.64 371.67 145.71 371.72 145.78 371.77 145.85 371.82 145.93 371.88 146.01 371.92 146.07 371.97 146.17 372.39 146.96 370.92 148.68 371.29 149.33 371.9 149.63 372.64 150.76 371.1 152.01 371.09 152.02 371.11 152.03 371.12 152.05 371.14 152.05 371.17 152.04 371.19 152.04 371.23 152.04 371.25 152.05 371.27 152.05 371.27 152.05 371.31 152.08 371.33 152.11 371.33 152.11 371.35 152.12 371.37 152.13 371.39 152.13 371.4 152.14 371.43 152.14 371.45 152.14 371.46 152.15 371.48 152.16 371.49 152.16 371.5 152.17 371.5 152.18 371.51 152.19 371.51 152.2 371.52 152.21 371.52 152.23 371.52 152.24 371.53 152.24 371.54 152.26 371.55 152.28 371.56 152.29 371.57 152.31 371.59 152.32 371.6 152.33 371.62 152.34 371.64 152.34 371.67 152.35 371.68 152.35 371.69 152.37 371.69 152.39 371.69 152.41 371.7 152.42 371.72 152.43 371.73 152.44 371.75 152.47 371.76 152.49 371.77 152.51 371.79 152.53 371.82 152.55 371.84 152.57 371.86 152.59 371.87 152.61 371.9 152.62 371.92 152.62 371.94 152.63 371.96 152.63 371.97 152.64 371.99 152.65 372.01 152.66 372.03 152.67 372.07 152.68 372.09 152.68 372.11 152.69 372.14 152.7 372.16 152.7 372.19 152.72 372.19 152.72 372.21 152.73 372.22 152.73 372.24 152.74 372.25 152.74 372.26 152.74 372.27 152.75 372.28 152.76 372.29 152.77 372.3 152.78 372.32 152.79 372.34 152.81 372.36 152.82 372.37 152.83 372.39 152.84 372.44 152.87 372.5 152.91 372.52 152.93 372.52 152.94 372.54 152.95 372.55 152.96 372.57 152.98 372.03 153.43 371.51 154.12 372.21 156.06 371.44 157.94 370.8 158.71 369.82 159.2 367.92 159.49 366.99 160.92 366.64 160.88 366.28 160.83 365.95 160.79 364.89 161.13 363.91 161.41 363.14 160.99 361.29 159.95 360.3 160.81 359.71 161.1 358.76 159.57 358.28 159.49 357.02 159.67 356.94 159.68 356.91 159.68 356.89 159.68 356.84 159.68 356.8 159.66 356.75 159.67 356.7 159.69 356.67 159.7 356.62 159.71 356.58 159.72 356.51 159.72 356.44 159.71 356.38 159.71 356.34 159.7 356.29 159.69 356.25 159.68 356.22 159.69 356.19 159.7 356.15 159.71 356.11 159.73 356.06 159.73 356.02 159.74 355.98 159.74 355.94 159.74 355.89 159.74 355.85 159.74 355.82 159.72 355.79 159.72 355.76 159.71 355.73 159.72 355.71 159.72 355.68 159.74 355.66 159.76 355.65 159.77 355.63 159.79 355.61 159.81 355.58 159.84 355.54 159.86 355.53 159.87 355.5 159.87 355.44 159.88 355.37 159.88 355.34 159.87 355.29 159.87 355.25 159.88 355.21 159.89 355.38 159.58 355.77 159.24 356.36 158.11 355.52 157.42 355.12 157.03 354.61 156.34 354.21 155.98 353.78 155.54 353.55 155.15 353.38 154.97 352.37 154.46 351.38 153.77 350.85 152.96 350.52 152.36 350.3 152.15 350.21 151.92 350.25 151.89 350.28 151.86 350.32 151.83 350.34 151.81 350.35 151.79 350.38 151.76 350.42 151.72 350.46 151.69 350.49 151.65 350.54 151.61 350.63 151.57 350.7 151.55 350.74 151.54 350.81 151.53 350.89 151.54 350.96 151.53 350.99 151.51 351.03 151.47 351.05 151.44 351.11 151.38 351.16 151.31 351.21 151.26 351.25 151.22 351.26 151.2 351.29 151.13 351.32 151.04 351.34 151 351.39 150.94 351.4 150.92 351.41 150.86 351.42 150.84 351.43 150.74 351.43 150.71 351.44 150.69 351.44 150.66 351.45 150.65 351.43 150.64 351.39 150.61 351.36 150.59 351.33 150.57 351.3 150.55 351.28 150.54 351.25 150.52 351.18 150.48 351.17 150.47 351.16 150.46 351.16 150.45 351.15 150.44 351.15 150.42 351.16 150.41 351.16 150.39 351.17 150.38 351.18 150.37 351.2 150.34 351.21 150.32 351.22 150.31 351.22 150.29 351.22 150.27 351.23 150.26 351.23 150.23 351.23 150.14 351.23 150.09 351.22 150.04 351.22 150 351.23 149.94 351.23 149.88 351.22 149.84 351.21 149.83 351.19 149.82 351.17 149.8 351.15 149.8 351.12 149.8 351.08 149.8 351.05 149.8 351.03 149.8 351 149.81 350.97 149.82 350.94 149.82 350.89 149.82 350.84 149.81 350.79 149.8 350.77 149.79 350.75 149.77 350.73 149.75 350.73 149.73 350.73 149.68 350.74 149.65 350.76 149.6 350.78 149.56 350.79 149.53 350.82 149.49 350.83 149.46 350.83 149.45 350.84 149.42 350.85 149.39 350.85 149.36 350.84 149.33 350.83 149.32 350.82 149.3 350.8 149.28 350.78 149.25 350.74 149.22 350.7 149.19 350.66 149.17 350.63 149.16 350.6 149.14 350.56 149.13 350.5 149.12 350.44 149.09 350.35 149.05 350.28 149.02 350.23 148.99 350.2 148.97 350.16 148.93 350.14 148.9 350.14 148.88 350.14 148.85 350.15 148.83 350.16 148.8 350.17 148.78 350.19 148.75 350.21 148.73 350.23 148.7 350.24 148.68 350.27 148.65 350.3 148.61 350.33 148.57 350.35 148.54 350.37 148.49 350.39 148.45 350.4 148.41 350.41 148.38 350.44 148.37 350.46 148.37 350.49 148.35 350.52 148.33 350.54 148.32 350.54 148.31 350.57 148.29 350.61 148.27 350.64 148.24 350.67 148.22 350.72 148.19 350.75 148.17 350.78 148.15 350.8 148.13 350.86 148.09 350.87 148.08 350.89 148.06 350.91 148.03 350.93 148.01 350.95 147.99 350.96 147.98 350.99 147.96 351.02 147.94 351.04 147.93 351.05 147.92 351.07 147.87 351.09 147.85 351.1 147.82 351.11 147.78 351.13 147.74 351.14 147.69 351.14 147.67 351.15 147.65 351.17 147.62 351.19 147.6 351.2 147.58 351.23 147.56 351.24 147.54 351.24 147.52 351.24 147.48 351.24 147.42 351.24 147.4 351.24 147.39 351.22 147.34 351.22 147.33 351.22 147.31 351.22 147.29 351.24 147.26 351.26 147.23 351.27 147.2 351.28 147.18 351.29 147.14 351.29 147.11 351.29 147.07 351.28 147.05 351.28 147.02 351.27 146.98 351.27 146.93 351.28 146.89 351.29 146.86 351.31 146.83 351.34 146.8 351.37 146.79 351.4 146.77 351.44 146.74 351.46 146.72 351.46 146.69 351.47 146.65 351.47 146.61 351.47 146.58 351.48 146.55 351.49 146.54 351.51 146.53 351.53 146.52 351.57 146.5 351.6 146.49 351.61 146.49 351.64 146.47 351.67 146.44 351.69 146.42 351.7 146.4 351.7 146.37 351.71 146.35 351.72 146.32 351.74 146.29 351.78 146.26 351.85 146.2 351.89 146.15 351.94 146.08 351.98 146.04 352.02 145.98 352.04 145.95 352.05 145.94 352.07 145.92 352.08 145.91 352.11 145.9 352.13 145.89 352.19 145.87 352.27 145.83 352.31 145.8 352.33 145.78 352.35 145.77 352.37 145.76 352.39 145.76 352.38 145.72 352.37 145.7 352.37 145.69 352.35 145.64 352.34 145.61 352.33 145.58 352.31 145.54 352.29 145.49 352.27 145.45 352.26 145.43 352.25 145.39 352.24 145.35 352.22 145.3 352.21 145.25 352.19 145.22 352.17 145.18 352.16 145.16 352.15 145.13 352.14 145.08 352.14 145.06 352.13 145.05 352.1 145.01 352.03 144.95 351.98 144.91 351.94 144.88 351.91 144.85 351.89 144.83 351.83 144.79 351.8 144.76 351.77 144.74 351.71 144.68 351.66 144.64 351.63 144.62 351.62 144.6 351.61 144.59 351.59 144.57 351.58 144.54 351.54 144.47 351.51 144.41 351.5 144.38 351.5 144.36 351.48 144.33 351.46 144.29 351.43 144.26 351.42 144.24 351.41 144.23 351.39 144.2 351.37 144.16 351.33 144.1 351.29 144.05 351.28 144.03 351.24 143.98 351.22 143.96 351.19 143.93 351.16 143.9 351.15 143.88 351.1 143.83 351.08 143.81 351.06 143.78 351.01 143.74 350.96 143.69 350.91 143.64 350.85 143.59 350.81 143.55 350.8 143.54 350.77 143.52 350.75 143.51 350.72 143.49 350.7 143.47 350.67 143.45 350.64 143.43 350.61 143.4 350.57 143.38 350.54 143.35 350.51 143.32 350.47 143.29 350.45 143.26 350.42 143.23 350.4 143.2 350.38 143.17 350.36 143.16 350.35 143.14 350.34 143.13 350.33 143.13 350.31 143.11 350.3 143.11 350.26 143.09 350.23 143.08 350.2 143.07 350.17 143.04 350.15 143.01 350.11 142.97 350.08 142.94 350.05 142.91 350.03 142.89 350.01 142.86 349.99 142.84 349.96 142.8 349.93 142.78 349.91 142.75 349.89 142.72 349.88 142.69 349.87 142.68 349.84 142.66 349.83 142.64 349.81 142.63 349.79 142.63 349.77 142.63 349.72 142.62 349.68 142.6 349.65 142.59 349.63 142.59 349.61 142.58 349.58 142.57 349.56 142.56 349.54 142.55 349.53 142.55 349.52 142.55 348.77 142.52 349.59 141.69 Z M 362.9 177.84 362.9 177.82 362.91 177.78 362.94 177.72 362.96 177.69 362.96 177.65 362.97 177.59 362.98 177.55 362.98 177.48 362.97 177.42 362.97 177.38 362.97 177.35 362.99 177.32 363 177.29 363 177.24 362.99 177.2 362.99 177.16 362.98 177.1 362.96 177.04 362.95 177 362.93 176.94 362.91 176.89 362.9 176.87 362.88 176.82 362.87 176.8 363.51 177.18 363.98 177.43 364.91 177.96 365.22 178.18 365.86 178.61 365.83 178.94 365.83 179.5 365.84 180.09 364.99 179.75 364.46 179.53 363.48 179.13 363.48 179.1 363.47 179.05 363.45 178.99 363.43 178.96 363.38 178.9 363.35 178.86 363.34 178.81 363.32 178.78 363.33 178.74 363.34 178.69 363.36 178.65 363.36 178.62 363.36 178.6 363.34 178.53 363.29 178.48 363.27 178.45 363.27 178.44 363.27 178.4 363.26 178.37 363.23 178.33 363.2 178.31 363.16 178.29 363.13 178.27 363.11 178.24 363.09 178.21 363.08 178.19 363.04 178.14 363.01 178.11 362.99 178.07 362.97 178.03 362.95 177.98 362.94 177.94 362.9 177.84 Z"/>
</g></svg>