<svg xmlns="http://www.w3.org/2000/svg" version="1.2" baseProfile="tiny" stroke-linecap="round" stroke-linejoin="round" viewBox="144.18 314.17 25.02 25.22"><g xmlns="http://www.w3.org/2000/svg" id="Erriberabeitia">
<path d="M 169.2 318.82 169.1 318.87 168.79 319.09 168.51 319.31 168 319.81 167.64 320.26 167.22 320.63 166.87 320.98 166.56 321.18 166.26 321.4 165.94 321.74 165.72 322.1 165.59 322.58 165.62 323 165.62 323.54 165.67 323.94 165.61 324.3 165.61 324.58 165.61 325.07 165.42 325.35 165.21 325.65 164.71 325.78 164.18 325.73 163.59 325.7 162.94 325.59 162.35 325.42 161.98 325.17 161.6 324.97 161.29 324.73 160.99 324.59 160.84 325.01 161.07 325.35 161.36 325.78 161.54 326.12 161.54 326.34 161.18 326.47 160.77 326.7 160.41 326.99 160.16 327.12 160.09 327.46 160.13 327.85 160.17 328.23 160.21 328.64 160.32 329.12 160.41 329.6 160.5 330.03 160.61 330.32 160.59 330.73 160.51 331.17 160.47 331.52 160.46 331.94 160.43 332.41 160.43 332.92 161 332.99 161.65 332.99 162.23 333.06 162.66 333.07 163.1 333.11 163.52 333.19 164.02 333.26 164.51 333.27 164.96 333.31 165.2 333.33 165.3 333.76 165.34 334.15 165.29 334.63 165.25 334.99 164.87 335.31 164.49 335.58 164.18 335.88 163.97 336.23 163.77 336.65 163.56 336.93 163.42 337.27 163.29 337.67 163.21 337.99 163.07 338.43 162.92 338.87 162.85 339.13 162.69 339.37 162.27 339.36 161.87 339.16 161.49 338.84 161.13 338.54 160.85 338.37 160.48 338.23 160.13 338.17 159.76 338.1 159.22 338.1 158.76 338.06 158.3 337.93 157.78 337.86 157.4 337.73 157.12 337.64 156.8 337.6 156.55 337.98 156.48 338.14 156.38 338.42 155.89 338.38 155.16 338.22 154.57 338 153.9 337.77 153.05 337.65 152.72 337.25 152.28 336.77 152.09 336.36 151.84 336.02 149.56 336.59 149.46 336.35 149.62 336.02 149.87 335.41 150.11 334.79 149.78 334.27 149 333.6 148.7 333.52 147.79 333.52 146.85 333.41 145.92 333.19 144.57 332.93 144.23 332.85 144.41 332.26 144.48 331.87 144.5 331.45 144.43 331.04 144.42 330.63 144.35 330.14 144.29 329.67 144.23 329.24 144.21 328.94 144.19 328.8 144.82 329.35 145.37 329.81 145.88 329.9 146.31 329.62 146.69 329.34 147.23 329.26 148.23 329.35 148.87 329.24 149.25 328.89 149.71 328.22 150.33 327.4 150.49 326.9 150.37 325.94 150.38 324.99 150.37 323.89 150.51 323.03 150.67 322.49 150.92 322.15 151.4 321.89 152.29 321.44 152.59 321.26 152.8 320.86 152.73 320.22 152.76 319.75 153.05 319.51 153.62 319.44 154.13 319.38 154.78 319.03 155.4 318.44 155.69 317.91 155.8 317.51 155.56 316.75 155.3 316.04 155.15 315.41 155.06 315.08 155.09 314.84 155.52 314.89 156.16 314.88 156.97 314.76 157.48 314.53 157.91 314.33 158.21 314.19 158.39 314.66 158.67 315.4 158.95 315.78 159.45 315.88 159.83 315.72 160.44 315.82 161.01 315.53 161.53 315.23 161.92 315.23 162.51 315.66 163.13 316.05 164.02 316.17 164.61 316.09 165 315.77 165.2 315.35 165.33 314.95 165.52 314.82 165.88 314.83 166.15 315.12 166.36 315.58 166.69 316.17 167 316.31 167.38 316.4 167.64 316.81 167.64 317.04 167.67 317.21 167.86 317.4 168.21 317.65 168.64 318.05 169.07 318.55 169.2 318.82 Z"/>
</g></svg>