<svg xmlns="http://www.w3.org/2000/svg" version="1.2" baseProfile="tiny" stroke-linecap="round" stroke-linejoin="round" viewBox="493.47 407.75 33.97 50.48"><g xmlns="http://www.w3.org/2000/svg" id="Erriberri">
<path d="M 526.14 407.87 526.18 407.87 526.37 407.85 526.44 407.84 526.54 407.83 526.65 407.81 527.01 407.75 527.08 407.86 527.11 407.9 527.13 407.92 527.13 407.95 527.13 407.98 527.16 408.17 527.16 408.19 527.17 408.3 527.18 408.38 527.18 408.4 527.18 408.42 527.19 408.47 527.21 408.68 527.22 408.71 527.22 408.73 527.23 408.78 527.24 408.9 527.24 408.91 527.25 409 527.25 409.1 527.27 409.24 527.27 409.25 527.27 409.32 527.28 409.4 527.28 409.48 527.29 409.52 527.32 409.93 527.31 410 527.31 410.02 527.31 410.17 527.31 410.19 527.31 410.31 527.29 410.66 527.29 410.82 527.29 411.03 527.28 411.28 527.28 411.35 527.29 411.58 527.29 411.61 527.28 411.68 527.29 411.72 527.29 411.76 527.29 411.78 527.29 411.9 527.29 412.37 527.29 412.65 527.29 412.7 527.3 412.97 527.32 413.31 527.33 413.46 527.33 413.48 527.34 413.65 527.35 413.79 527.38 414.16 527.39 414.31 527.4 414.51 527.41 414.8 527.41 414.82 527.4 415.03 527.4 415.07 527.4 415.07 527.4 415.09 527.4 415.49 527.4 415.5 527.4 415.6 527.4 415.62 527.4 415.64 527.4 416.2 527.4 416.22 527.4 416.44 527.4 416.47 527.39 416.54 527.34 416.93 527.34 416.96 527.3 417.27 527.3 417.29 527.28 417.43 527.27 417.44 527.27 417.46 527.26 417.64 527.26 417.67 527.26 417.68 527.25 417.74 527.24 418.07 527.24 418.09 527.24 418.21 527.22 418.55 527.22 418.56 527.14 418.79 527.14 418.8 527.14 418.82 527.13 418.82 527.12 418.86 527.03 419.13 526.98 419.36 526.96 419.45 526.95 419.48 526.94 419.53 526.94 419.55 526.93 419.59 526.89 419.78 526.75 420.29 526.74 420.32 526.73 420.33 526.73 420.35 526.68 420.5 526.65 420.6 526.59 420.78 526.43 421.27 526.41 421.34 526.39 421.39 526.39 421.39 526.27 421.77 526.25 421.82 526.14 422.15 526.11 422.27 526.09 422.37 526.09 422.41 526.07 422.5 526.06 422.53 526.02 422.79 526.02 422.8 526.01 422.85 526.01 422.86 526 422.87 525.99 422.91 525.95 423.11 525.94 423.14 525.93 423.16 525.89 423.34 525.87 423.44 525.84 423.54 525.83 423.58 525.82 423.6 525.77 423.81 525.73 423.99 525.62 424.44 525.62 424.46 525.55 424.72 525.55 424.73 525.54 424.74 525.49 424.94 525.48 424.97 525.42 425.16 525.42 425.18 525.4 425.25 525.39 425.27 525.36 425.37 525.36 425.38 525.35 425.4 525.35 425.42 525.34 425.44 525.29 425.6 525.17 425.99 525.08 426.28 525.07 426.29 525.05 426.36 525.05 426.37 525.05 426.39 524.97 426.65 524.95 426.73 524.93 426.79 524.89 426.93 524.84 427.09 524.82 427.16 524.82 427.18 524.82 427.2 524.81 427.22 524.81 427.23 524.8 427.3 524.76 427.52 524.76 427.54 524.76 427.56 524.77 427.64 524.84 427.84 524.87 427.91 524.9 428.02 524.9 428.05 524.83 428.62 524.82 428.7 524.78 429.08 524.77 429.1 524.76 429.19 524.75 429.32 524.7 429.74 524.7 429.75 524.7 429.75 524.7 429.77 524.71 429.83 524.71 429.84 524.75 430.11 524.74 430.13 524.74 430.24 524.73 430.29 524.73 430.32 524.72 430.36 524.72 430.43 524.72 430.48 524.71 430.53 524.7 430.6 524.7 430.66 524.7 430.74 524.69 430.82 524.69 430.88 524.69 430.97 524.69 431.06 524.69 431.13 524.68 431.18 524.68 431.25 524.68 431.4 524.68 431.45 524.68 431.47 524.69 431.73 524.69 431.8 524.69 431.87 524.69 431.88 524.69 431.89 524.7 432.22 524.7 432.29 524.7 432.32 524.7 432.38 524.7 432.51 524.7 432.65 524.7 432.67 524.7 432.78 524.7 432.98 524.7 433.06 524.71 433.13 524.71 433.21 524.71 433.29 524.72 433.39 524.72 433.4 524.73 433.47 524.74 433.65 524.75 433.8 524.76 433.87 524.76 433.94 524.77 434.01 524.78 434.14 524.79 434.26 524.8 434.36 524.8 434.43 524.81 434.48 524.81 434.51 524.81 434.52 524.82 434.55 524.83 434.58 524.84 434.62 524.84 434.64 524.85 434.66 524.85 434.7 524.86 434.76 524.87 434.8 524.88 434.85 524.89 434.91 524.9 434.95 524.9 435 524.9 435.01 524.91 435.04 524.92 435.08 524.93 435.12 524.94 435.18 524.95 435.25 524.97 435.34 524.98 435.4 524.99 435.46 525 435.49 525 435.51 525 435.53 525 435.55 525 435.57 525.01 435.76 525.02 435.87 525.04 436.19 525.04 436.2 525.06 436.41 525 436.46 524.98 436.47 524.94 436.49 524.9 436.53 524.87 436.56 524.77 436.63 524.43 436.92 524.4 436.94 524.36 436.97 524.26 437.04 523.85 437.45 523.44 437.87 523.41 437.91 523.25 438.07 523.23 438.09 523.22 438.1 523.2 438.11 523.05 438.25 522.99 438.31 522.88 438.4 522.85 438.43 522.8 438.48 522.76 438.51 522.66 438.6 522.64 438.62 522.63 438.63 522.6 438.64 522.55 438.7 522.19 439.16 522.16 439.2 522.07 439.31 521.84 439.59 521.7 439.69 521.66 439.72 521.64 439.73 521.63 439.74 521.61 439.75 521.57 439.78 521.53 439.82 521.47 439.85 521.43 439.89 521.36 439.94 521.33 439.96 521.31 439.97 521.28 439.98 521.27 439.99 521.27 440 521.25 440.02 521.23 440.06 521.2 440.09 521.17 440.13 521.15 440.17 521.12 440.2 521.08 440.24 521.05 440.28 521.01 440.32 521.01 440.33 520.99 440.35 520.97 440.37 520.76 440.59 520.55 440.8 520.52 440.84 520.5 440.85 520.42 440.95 520.3 441.1 520.25 441.16 520.13 441.32 520.1 441.35 520.1 441.4 520.1 441.42 520.09 441.46 520.09 441.57 520.08 441.65 520.08 441.75 520.07 441.85 520.07 441.97 520.06 442.08 520.05 442.12 520.04 442.28 520.04 442.29 520.04 442.3 520.04 442.31 520.04 442.33 520.04 442.34 520.03 442.53 520.02 442.62 520.02 442.64 520.05 442.78 520.06 442.86 520.11 443.06 520.16 443.32 520.16 443.34 520.17 443.35 520.19 443.46 520.2 443.52 520.21 443.57 520.21 443.61 520.22 443.64 520.24 443.69 520.27 443.76 520.29 443.82 520.31 443.87 520.33 443.92 520.34 443.95 520.4 444.13 520.42 444.19 520.42 444.21 520.43 444.24 520.48 444.4 520.49 444.43 520.57 444.66 520.57 444.66 520.63 444.9 520.63 444.91 520.75 445.33 520.76 445.38 520.88 445.74 520.89 445.76 520.89 445.78 520.88 445.92 520.87 446.06 520.85 446.2 520.84 446.29 520.84 446.33 520.84 446.38 520.84 446.42 520.83 446.46 520.83 446.46 520.83 446.47 520.82 446.49 520.8 446.69 520.8 446.73 520.8 446.77 520.8 446.81 520.8 446.85 520.8 446.88 520.8 446.9 520.8 447.11 520.8 447.37 520.8 447.39 520.8 447.42 520.8 447.47 520.8 447.48 520.8 447.52 520.8 447.57 520.8 447.64 520.8 447.68 520.8 447.71 520.8 447.73 520.8 447.74 520.8 447.76 520.84 448.02 520.84 448.04 520.85 448.11 520.86 448.13 520.86 448.16 520.87 448.19 520.88 448.24 520.89 448.29 520.89 448.33 520.9 448.37 520.9 448.38 520.9 448.41 520.9 448.43 520.91 448.46 520.91 448.5 520.92 448.55 520.92 448.59 520.93 448.76 520.94 448.92 520.95 448.99 520.95 449.05 520.96 449.07 520.96 449.1 520.97 449.17 520.98 449.22 520.99 449.29 520.99 449.33 521 449.36 521 449.39 521.01 449.43 521.01 449.46 521.01 449.48 521 449.5 521 449.52 520.99 449.55 520.99 449.55 520.98 449.56 520.98 449.59 520.98 449.61 520.98 449.62 520.98 449.64 520.99 449.67 520.99 449.68 520.99 449.73 520.99 449.77 520.99 449.82 521 449.88 521.01 449.93 521.02 449.98 521.03 450.04 521.04 450.11 521.05 450.16 521.06 450.2 521.07 450.24 521.07 450.27 521.07 450.28 521.07 450.29 521.07 450.32 521.07 450.37 521.08 450.44 521.08 450.49 521.08 450.53 521.08 450.59 521.08 450.64 521.09 450.69 521.09 450.73 521.09 450.73 521.09 450.76 521.1 450.81 521.13 450.91 521.15 450.97 521.16 451.03 521.18 451.07 521.18 451.08 521.19 451.11 521.21 451.16 521.24 451.22 521.26 451.26 521.28 451.32 521.29 451.33 521.31 451.36 521.33 451.39 521.35 451.44 521.38 451.49 521.39 451.52 521.4 451.56 521.41 451.58 521.42 451.6 521.43 451.61 521.44 451.62 521.47 451.68 521.5 451.73 521.53 451.77 521.55 451.81 521.57 451.86 521.59 451.89 521.61 451.93 521.63 451.96 521.65 451.98 521.65 451.99 521.66 452 521.66 452.02 521.66 452.06 521.67 452.13 521.66 452.23 521.65 452.3 521.62 452.39 521.6 452.43 521.58 452.47 521.56 452.52 521.52 452.59 521.51 452.62 521.5 452.63 521.49 452.65 521.49 452.66 521.48 452.68 521.47 452.71 521.45 452.75 521.45 452.76 521.43 452.78 521.1 452.73 521.09 452.73 521.07 452.73 521.06 452.73 521.02 452.72 521 452.72 521 452.72 520.98 452.72 520.96 452.71 520.94 452.71 520.92 452.71 520.91 452.71 520.89 452.72 520.88 452.72 520.86 452.72 520.84 452.72 520.83 452.72 520.81 452.72 520.69 452.73 520.67 452.74 520.65 452.74 520.64 452.75 520.63 452.75 520.61 452.76 520.57 452.77 520.56 452.77 520.54 452.78 520.52 452.78 520.51 452.78 520.49 452.78 520.47 452.78 520.45 452.78 520.43 452.78 520.42 452.78 520.4 452.78 520.39 452.78 520.37 452.78 520.36 452.78 520.33 452.77 520.32 452.77 520.3 452.76 520.28 452.76 520.25 452.73 520.17 452.87 520.03 453.1 519.97 453.19 519.94 453.23 519.92 453.25 519.87 453.33 519.7 453.56 519.7 453.57 519.69 453.59 519.67 453.6 519.66 453.62 519.65 453.63 519.64 453.64 519.64 453.65 519.62 453.66 519.61 453.67 519.6 453.68 519.59 453.69 519.57 453.7 519.56 453.71 519.55 453.72 519.53 453.73 519.52 453.73 519.51 453.74 519.49 453.74 519.48 453.75 519.46 453.75 519.45 453.76 519.43 453.77 519.41 453.78 519.4 453.78 519.38 453.78 519.37 453.79 519.35 453.79 519.34 453.79 519.33 453.8 519.3 453.8 519.29 453.81 519.09 453.86 519.07 453.87 519.06 453.89 519.05 453.89 519.04 453.91 519.02 453.92 519.02 453.93 519.01 453.94 518.99 453.96 518.98 453.97 518.97 453.98 518.95 453.99 518.92 454.01 518.9 454.02 518.89 454.02 518.87 454.03 518.86 454.04 518.85 454.05 518.83 454.06 518.82 454.06 518.81 454.07 518.79 454.08 518.78 454.09 518.76 454.1 518.75 454.11 518.74 454.12 518.72 454.14 518.71 454.15 518.7 454.16 518.69 454.17 518.67 454.19 518.66 454.2 518.65 454.22 518.62 454.25 518.61 454.26 518.6 454.28 518.59 454.29 518.56 454.33 518.44 454.49 518.42 454.52 518.38 454.58 518.34 454.63 518.32 454.66 518.28 454.69 518.22 454.75 518.18 454.8 518.16 454.83 518.11 454.91 518.08 454.96 518.03 455.05 517.97 455.15 517.93 455.24 517.87 455.32 517.84 455.37 517.81 455.41 517.76 455.45 517.74 455.47 517.73 455.48 517.72 455.5 517.71 455.51 517.66 455.54 517.59 455.59 517.55 455.62 517.21 455.83 517.21 455.84 517.21 455.86 517.2 455.87 517.19 455.89 517.18 455.9 517.17 455.92 517.17 455.93 517.16 455.94 517.15 455.96 517.13 455.97 517.12 455.99 517.11 456 517.09 456.01 517.08 456.03 517.06 456.04 517.05 456.05 517.02 456.07 516.9 456.17 516.85 456.21 516.84 456.22 516.83 456.23 516.8 456.24 516.78 456.28 516.78 456.3 516.77 456.31 516.76 456.34 516.73 456.35 516.65 456.34 516.55 456.31 516.37 456.28 516.28 456.26 516.16 456.25 516.08 456.22 515.99 456.19 515.89 456.17 515.88 456.17 515.8 456.14 515.68 456.13 515.56 456.12 515.46 456.11 515.41 456.1 515.32 456.1 515.28 456.11 515.03 456.18 515.02 456.18 514.95 456.21 514.93 456.22 514.83 456.25 514.78 456.26 514.64 456.26 514.48 456.26 514.45 456.26 514.41 456.26 514.18 456.22 514.13 456.22 514.08 456.21 514.07 456.2 514.03 456.18 514.03 456.17 513.76 456.1 513.62 456.04 513.52 456.01 513.5 456.01 513.33 455.96 513.17 455.92 513.06 455.9 512.85 455.93 512.75 455.97 512.71 455.99 512.61 456.03 512.6 456.03 512.45 456.1 512.36 456.16 512.2 456.28 512.1 456.34 512.05 456.38 511.98 456.4 511.91 456.43 511.9 456.43 511.84 456.45 511.75 456.47 511.68 456.5 511.63 456.49 511.59 456.49 511.58 456.49 511.5 456.52 511.46 456.53 511.42 456.55 511.33 456.58 511.29 456.6 511.28 456.6 511.23 456.6 511.2 456.61 511.18 456.61 511.16 456.61 511.04 456.62 510.99 456.62 510.82 456.62 510.79 456.65 510.77 456.68 510.74 456.72 510.7 456.75 510.67 456.78 510.63 456.8 510.58 456.82 510.53 456.84 510.48 456.85 510.46 456.85 510.41 456.88 510.37 456.89 510.32 456.92 510.23 456.98 510.18 457 510.17 457.01 510.15 457.02 510.12 457.05 510.12 457.06 510.08 457.1 510.02 457.15 509.98 457.19 509.97 457.2 509.95 457.21 509.88 457.23 509.87 457.23 509.85 457.24 509.81 457.25 509.77 457.25 509.73 457.25 509.68 457.25 509.62 457.25 509.57 457.24 509.49 457.22 509.45 457.21 509.41 457.19 509.4 457.19 509.38 457.19 509.36 457.18 509.14 457.1 509 457.05 508.96 457.04 508.91 457.04 508.9 457.03 508.85 457.03 508.75 456.99 508.72 456.98 508.71 456.97 508.68 456.96 508.67 456.96 508.66 456.95 508.58 456.92 508.45 457.16 508.41 457.22 508.07 457.51 507.89 457.61 507.87 457.62 507.81 457.68 507.78 457.7 507.71 457.74 507.38 457.87 507.34 457.88 507.33 457.89 506.69 458.18 506.51 458.17 506.16 458.16 506.05 458.16 506.02 458.16 505.82 458.18 505.81 458.18 505.74 458.19 505.61 458.2 505.58 457.92 505.55 457.7 505.52 457.5 505.5 457.29 505.47 457.06 505.45 456.85 505.44 456.78 505.38 456.64 505.3 456.44 505.21 456.23 505.2 456.2 505.12 456.02 505.09 455.94 505.04 455.82 504.96 455.62 504.77 455.15 504.71 454.56 504.69 454.37 504.67 454.18 504.6 453.98 504.59 453.95 504.59 453.94 504.53 453.75 504.47 453.54 504.4 453.34 504.34 453.15 504.28 452.97 504.26 452.94 504.15 452.76 504.03 452.58 503.92 452.41 503.88 452.33 503.87 452.31 503.85 452.28 503.82 452.23 503.79 452.17 503.76 452.13 503.73 452.09 503.69 452.04 503.66 452 503.62 451.95 503.59 451.92 503.57 451.9 503.53 451.87 503.49 451.84 503.45 451.8 503.39 451.75 503.33 451.71 503.28 451.67 503.24 451.63 503.18 451.59 503.13 451.56 503.12 451.55 503.1 451.52 503.09 451.5 503.07 451.47 503.05 451.45 503.02 451.41 503 451.36 502.98 451.3 502.96 451.25 502.94 451.2 502.92 451.15 502.9 451.09 502.88 451.04 502.85 450.99 502.85 450.98 502.84 450.95 502.82 450.91 502.78 450.86 502.77 450.84 502.76 450.83 502.73 450.81 502.72 450.8 502.7 450.79 502.69 450.77 502.66 450.74 502.6 450.67 502.56 450.61 502.52 450.56 502.47 450.49 502.44 450.42 502.39 450.34 502.36 450.29 502.32 450.24 502.31 450.22 502.29 450.2 502.21 450.1 502.11 449.98 502.03 449.88 501.94 449.77 501.88 449.68 501.81 449.6 501.75 449.53 501.71 449.46 501.69 449.44 501.67 449.41 501.65 449.38 501.6 449.32 501.54 449.25 501.52 449.21 501.51 449.2 501.3 448.92 501.29 448.91 501.28 448.9 501.28 448.89 501.25 448.85 501.23 448.82 501.21 448.79 501.19 448.76 501.16 448.71 501.11 448.65 501.08 448.6 501.04 448.55 501 448.5 500.99 448.47 500.97 448.43 500.96 448.4 500.94 448.38 500.9 448.33 500.83 448.24 500.79 448.19 500.76 448.14 500.74 448.1 500.71 448.05 500.69 448.03 500.66 447.98 500.61 447.92 500.57 447.86 500.53 447.79 500.48 447.73 500.44 447.66 500.41 447.59 500.39 447.56 500.37 447.52 500.34 447.45 500.3 447.38 500.27 447.3 500.23 447.23 500.23 447.21 500.22 447.18 500.21 447.16 500.19 447.1 500.17 447.06 500.16 447.04 500.15 446.99 500.14 446.95 500.14 446.92 500.13 446.89 500.13 446.87 500.13 446.84 500.13 446.8 500.14 446.74 500.14 446.69 500.14 446.66 500.14 446.63 500.14 446.6 500.15 446.54 500.16 446.5 500.18 446.45 500.2 446.4 500.21 446.36 500.23 446.33 500.23 446.32 500.25 446.28 500.26 446.24 500.27 446.19 500.29 446.14 500.29 446.11 500.29 446.09 500.29 446.07 500.29 446.04 500.29 446.01 500.28 445.97 500.27 445.92 500.26 445.88 500.26 445.84 500.25 445.8 500.24 445.76 500.24 445.72 500.24 445.7 500.24 445.67 500.24 445.65 500.25 445.61 500.26 445.57 500.26 445.52 500.27 445.48 500.27 445.43 500.27 445.41 500.27 445.4 500.28 445.35 500.28 445.34 500.28 445.32 500.29 445.29 500.3 445.27 500.31 445.24 500.32 445.22 500.34 445.19 500.36 445.16 500.38 445.12 500.4 445.09 500.41 445.06 500.42 445.04 500.42 445.01 500.42 444.99 500.43 444.96 500.42 444.93 500.41 444.9 500.4 444.86 500.4 444.83 500.38 444.79 500.36 444.75 500.34 444.72 500.32 444.7 500.31 444.69 500.28 444.65 500.27 444.63 500.26 444.6 500.24 444.56 500.24 444.52 500.24 444.49 500.25 444.46 500.26 444.44 500.28 444.42 500.3 444.4 500.31 444.39 500.32 444.38 500.34 444.37 500.35 444.34 500.36 444.32 500.37 444.29 500.37 444.26 500.38 444.23 500.39 444.19 500.4 444.13 500.41 444.07 500.42 444.03 500.42 444.01 500.43 444 500.56 443.54 500.58 443.46 500.58 443.44 500.61 443.31 500.61 443.27 500.61 443.25 500.62 443.23 500.62 443.22 500.62 443.21 500.59 443.03 500.59 443.01 500.63 442.63 500.68 442.22 500.69 442.18 500.68 442.16 500.57 441.95 500.29 441.79 500.19 441.73 500.03 441.65 499.96 441.62 499.88 441.58 499.86 441.58 499.85 441.57 499.76 441.55 499.75 441.54 499.61 441.5 499.54 441.48 499.43 441.42 499.27 441.33 499.26 441.32 499.25 441.32 499.19 441.28 499.05 441.2 499.02 441.18 499.01 441.17 498.96 441.11 498.91 441.05 498.9 441.04 498.86 441.01 498.84 440.99 498.82 440.97 498.81 440.94 498.74 440.81 498.68 440.69 498.65 440.64 498.64 440.62 498.62 440.59 498.6 440.53 498.57 440.45 498.5 440.25 498.44 440.07 498.4 439.96 498.39 439.95 498.37 439.9 498.36 439.87 498.34 439.84 498.33 439.82 498.28 439.76 498.28 439.76 498.24 439.73 498.19 439.68 497.98 439.61 498 439.56 498.01 439.51 497.98 439.45 497.97 439.43 497.96 439.4 497.96 439.35 497.96 439.31 497.96 439.27 497.95 439.19 497.95 439.15 497.94 438.97 498.06 438.74 498.09 438.67 498.19 438.47 498.16 438.42 498.15 438.4 498.13 438.39 498.11 438.39 498.07 438.38 498.02 438.37 497.98 438.35 497.91 438.32 497.83 438.26 497.77 438.21 497.72 438.16 497.66 438.11 497.61 438.05 497.56 438.01 497.54 437.99 497.47 437.95 497.39 437.92 497.23 437.83 497.13 437.78 497.06 437.75 497.03 437.73 496.96 437.74 496.74 437.77 496.73 437.76 496.59 437.67 496.48 437.52 496.38 437.44 496.35 437.41 496.32 437.39 496.31 437.37 496.3 437.36 496.29 437.35 496.28 437.34 496.26 437.32 496.23 437.29 496.19 437.26 496.16 437.24 496.13 437.21 496.11 437.19 496.1 437.16 496.08 437.13 496.06 437.09 496.05 437.06 496.04 437.04 496.03 437.01 496.02 436.99 496.01 436.96 495.99 436.93 495.98 436.91 495.96 436.89 495.93 436.87 495.91 436.84 495.9 436.81 495.88 436.78 495.87 436.75 495.86 436.71 495.85 436.67 495.85 436.65 495.85 436.61 495.85 436.58 495.84 436.55 495.82 436.49 495.81 436.47 495.79 436.45 495.78 436.43 495.75 436.41 495.74 436.39 495.73 436.38 495.72 436.36 495.71 436.31 495.69 436.27 495.69 436.25 495.68 436.24 495.68 436.21 495.56 436.15 495.48 436.11 495.44 436.09 495.4 436.08 495.36 436.08 495.33 436.08 495.29 436.09 495.27 436.11 495.23 436.13 495.2 436.16 495.18 436.18 495.14 436.2 495.11 436.21 495.08 436.22 495.05 436.22 495.03 436.21 494.95 436.21 494.93 436.19 494.89 436.14 494.83 436.09 494.82 436.07 494.7 436.06 494.38 436.24 494.37 436.25 494.27 436.15 494.18 436.06 494.15 436.02 494.12 435.95 494.11 435.94 494.07 435.88 494.03 435.83 493.97 435.77 493.93 435.71 493.91 435.69 493.83 435.65 493.66 435.58 493.63 435.56 493.62 435.53 493.56 435.17 493.5 434.97 493.49 434.94 493.49 434.93 493.48 434.88 493.5 434.76 493.51 434.72 493.56 434.54 493.58 434.42 493.62 434.09 493.63 434.02 493.62 433.93 493.59 433.82 493.61 433.73 493.63 433.6 493.71 433.18 493.73 433.1 493.75 433.04 493.76 433 493.77 432.99 493.79 432.91 493.81 432.87 493.84 432.83 493.85 432.81 493.87 432.8 493.89 432.77 493.91 432.75 493.92 432.67 493.94 432.58 493.95 432.5 493.95 432.48 493.95 432.46 493.96 432.45 493.96 432.43 493.97 432.41 493.97 432.39 493.98 432.38 493.98 432.37 493.99 432.36 494 432.34 494.01 432.33 494.02 432.32 494.03 432.31 494.05 432.29 494.06 432.28 494.07 432.27 494.09 432.26 494.1 432.25 494.11 432.24 494.13 432.23 494.15 432.22 494.16 432.21 494.24 432.15 494.25 432.14 494.27 432.13 494.28 432.12 494.29 432.11 494.31 432.1 494.32 432.09 494.33 432.08 494.35 432.06 494.36 432.05 494.39 432.02 494.41 432.01 494.42 432 494.43 431.99 494.45 431.98 494.45 431.97 494.47 431.96 494.48 431.95 494.5 431.92 494.51 431.91 494.52 431.9 494.54 431.87 494.57 431.85 494.58 431.84 494.59 431.83 494.6 431.82 494.61 431.8 494.62 431.79 494.63 431.78 494.65 431.76 494.65 431.75 494.67 431.73 494.67 431.72 494.78 431.56 494.79 431.55 494.8 431.53 494.81 431.52 494.82 431.5 494.83 431.49 494.84 431.47 494.85 431.46 494.86 431.44 494.87 431.43 494.89 431.4 494.9 431.38 494.91 431.37 494.93 431.36 494.94 431.34 494.95 431.33 494.96 431.32 494.97 431.3 494.98 431.29 494.99 431.28 495 431.26 495.02 431.25 495.03 431.24 495.05 431.21 495.08 431.19 495.09 431.18 495.1 431.16 495.14 431.13 495.17 431.08 495.23 430.97 495.33 430.81 495.36 430.69 495.39 430.6 495.44 430.46 495.54 430.14 495.52 429.85 495.52 429.83 495.52 429.81 495.53 429.79 495.52 429.77 495.52 429.76 495.52 429.74 495.53 429.73 495.53 429.71 495.53 429.69 495.53 429.67 495.54 429.66 495.54 429.64 495.55 429.63 495.56 429.61 495.57 429.6 495.58 429.58 495.59 429.56 495.6 429.55 495.7 429.42 495.71 429.41 495.72 429.39 495.73 429.38 495.74 429.37 495.75 429.35 495.76 429.34 495.77 429.33 495.78 429.31 495.79 429.29 495.81 429.27 495.82 429.26 495.84 429.25 495.85 429.23 495.86 429.22 495.87 429.21 495.88 429.2 495.9 429.19 495.91 429.18 496.16 428.99 496.17 428.96 496.19 428.84 496.24 428.74 496.36 428.65 496.37 428.65 496.45 428.57 496.53 428.49 496.59 428.44 496.65 428.38 496.67 428.35 496.69 428.29 496.72 428.26 496.84 428.11 496.86 428.08 496.86 428.07 496.89 428.04 496.9 428.03 496.91 428.01 496.92 428 496.93 427.98 496.94 427.97 496.95 427.95 496.96 427.94 496.97 427.93 496.99 427.92 497 427.91 497.02 427.9 497.03 427.88 497.04 427.87 497.06 427.84 497.07 427.83 497.08 427.81 497.09 427.8 497.09 427.79 497.1 427.77 497.11 427.75 497.12 427.72 497.13 427.7 497.13 427.68 497.14 427.67 497.14 427.65 497.14 427.64 497.15 427.62 497.15 427.61 497.16 427.59 497.16 427.58 497.18 427.55 497.19 427.52 497.2 427.49 497.2 427.48 497.22 427.45 497.23 427.43 497.23 427.42 497.23 427.41 497.25 427.36 497.26 427.34 497.27 427.32 497.27 427.31 497.28 427.29 497.29 427.28 497.3 427.26 497.3 427.24 497.31 427.22 497.31 427.21 497.32 427.19 497.32 427.18 497.32 427.16 497.33 427.14 497.33 427.12 497.33 427.11 497.34 427.08 497.35 427.05 497.35 427.04 497.35 427.01 497.35 427 497.36 426.98 497.36 426.96 497.36 426.95 497.37 426.93 497.37 426.92 497.38 426.9 497.38 426.88 497.39 426.87 497.39 426.86 497.4 426.84 497.41 426.83 497.42 426.81 497.43 426.8 497.43 426.78 497.44 426.76 497.45 426.75 497.46 426.73 497.47 426.72 497.48 426.7 497.49 426.69 497.5 426.68 497.52 426.66 497.52 426.65 497.53 426.63 497.54 426.62 497.54 426.6 497.56 426.56 497.57 426.54 497.57 426.53 497.58 426.51 497.59 426.49 497.6 426.46 497.61 426.44 497.62 426.4 497.63 426.36 497.64 426.35 497.64 426.34 497.65 426.33 497.66 426.31 497.67 426.29 497.67 426.28 497.68 426.27 497.69 426.24 497.7 426.23 497.71 426.21 497.72 426.2 497.72 426.18 497.76 426.12 497.77 426.1 497.78 426.09 497.78 426.07 497.79 426.06 497.82 426.02 497.85 425.97 497.86 425.96 497.88 425.93 497.89 425.91 497.89 425.91 497.9 425.89 497.91 425.88 497.92 425.86 497.93 425.85 497.94 425.84 497.95 425.82 497.97 425.81 497.98 425.79 498 425.77 498.01 425.76 498.02 425.76 498.03 425.74 498.04 425.74 498.05 425.72 498.05 425.71 498.1 425.65 498.11 425.64 498.13 425.62 498.15 425.59 498.16 425.56 498.18 425.53 498.21 425.49 498.25 425.41 498.26 425.4 498.28 425.37 498.29 425.35 498.3 425.34 498.3 425.33 498.31 425.32 498.32 425.3 498.33 425.27 498.34 425.25 498.34 425.24 498.34 425.23 498.35 425.22 498.37 425.21 498.38 425.2 498.4 425.18 498.41 425.18 498.42 425.17 498.43 425.15 498.44 425.13 498.45 425.12 498.46 425.1 498.47 425.07 498.48 425.06 498.49 425.04 498.5 425.01 498.51 424.99 498.51 424.98 498.52 424.97 498.53 424.95 498.59 424.82 498.6 424.81 498.62 424.78 498.62 424.76 498.63 424.75 498.64 424.73 498.64 424.72 498.64 424.71 498.65 424.7 498.66 424.68 498.66 424.66 498.67 424.65 498.67 424.64 498.68 424.62 498.69 424.61 498.7 424.59 498.72 424.56 498.72 424.55 498.74 424.52 498.75 424.51 498.76 424.49 498.77 424.45 498.78 424.44 498.79 424.42 498.79 424.4 498.8 424.39 498.8 424.37 498.81 424.35 498.81 424.33 498.82 424.32 498.82 424.28 498.83 424.26 498.83 424.26 498.84 424.24 498.84 424.21 498.85 424.19 498.85 424.17 498.86 424.15 498.86 424.13 498.86 424.12 498.87 424.1 498.87 424.09 498.88 424.07 498.9 424.03 498.92 423.99 498.93 423.97 498.93 423.95 498.94 423.94 498.94 423.92 498.97 423.86 498.98 423.83 498.99 423.8 499 423.79 499 423.77 499.01 423.75 499.03 423.72 499.03 423.71 499.04 423.69 499.06 423.64 499.07 423.63 499.08 423.59 499.09 423.56 499.11 423.53 499.11 423.51 499.13 423.48 499.14 423.46 499.14 423.45 499.15 423.44 499.15 423.42 499.16 423.41 499.16 423.39 499.18 423.36 499.18 423.33 499.19 423.32 499.2 423.3 499.21 423.27 499.21 423.25 499.22 423.23 499.23 423.21 499.23 423.2 499.24 423.16 499.24 423.15 499.25 423.14 499.25 423.12 499.27 423.09 499.27 423.07 499.27 423.07 499.28 423.05 499.28 423.03 499.28 423.02 499.29 423 499.29 422.98 499.29 422.97 499.3 422.95 499.31 422.93 499.32 422.91 499.33 422.9 499.33 422.88 499.33 422.87 499.34 422.86 499.35 422.85 499.35 422.84 499.37 422.83 499.38 422.81 499.39 422.8 499.4 422.78 499.41 422.77 499.42 422.76 499.44 422.73 499.45 422.72 499.47 422.7 499.47 422.69 499.48 422.67 499.49 422.66 499.5 422.65 499.51 422.63 499.52 422.62 499.53 422.6 499.55 422.59 499.61 422.49 499.62 422.48 499.64 422.45 499.65 422.42 499.66 422.41 499.67 422.39 499.69 422.36 499.7 422.35 499.71 422.33 499.72 422.32 499.73 422.3 499.74 422.29 499.74 422.27 499.76 422.24 499.77 422.21 499.78 422.2 499.81 422.15 499.81 422.13 499.82 422.12 499.83 422.11 499.84 422.09 499.85 422.08 499.86 422.06 499.86 422.05 499.88 422.02 499.9 421.99 499.91 421.96 499.96 421.89 499.97 421.88 499.98 421.85 499.99 421.83 500 421.82 500.01 421.8 500.02 421.79 500.03 421.77 500.04 421.75 500.05 421.73 500.06 421.72 500.07 421.7 500.08 421.68 500.09 421.67 500.1 421.66 500.12 421.63 500.14 421.61 500.15 421.6 500.16 421.58 500.17 421.57 500.18 421.56 500.19 421.54 500.2 421.53 500.21 421.51 500.22 421.5 500.23 421.48 500.24 421.47 500.25 421.45 500.25 421.45 500.26 421.43 500.27 421.42 500.27 421.4 500.28 421.38 500.29 421.37 500.29 421.36 500.3 421.34 500.31 421.32 500.31 421.3 500.32 421.29 500.36 421.23 500.37 421.21 500.39 421.19 500.41 421.16 500.43 421.13 500.45 421.11 500.46 421.09 500.48 421.07 500.5 421.05 500.52 421.02 500.54 421 500.57 420.96 500.6 420.92 500.65 420.86 500.68 420.81 500.73 420.76 500.74 420.74 500.75 420.73 500.76 420.72 500.77 420.71 500.82 420.64 500.83 420.62 500.84 420.61 500.87 420.57 500.89 420.54 500.91 420.51 500.96 420.46 500.97 420.45 501 420.41 501.02 420.38 501.05 420.34 501.09 420.29 501.12 420.25 501.14 420.22 501.16 420.21 501.17 420.2 501.17 420.19 501.19 420.16 501.21 420.14 501.22 420.13 501.23 420.12 501.24 420.1 501.25 420.09 501.26 420.07 501.27 420.05 501.28 420.04 501.28 420.03 501.29 420.02 501.3 420 501.3 419.99 501.31 419.97 501.32 419.96 501.34 419.94 501.35 419.93 501.37 419.92 501.38 419.9 501.42 419.87 501.62 419.6 501.65 419.53 501.67 419.5 501.74 419.37 501.94 418.99 501.98 418.91 502.14 418.83 502.17 418.82 502.49 418.66 502.65 418.58 502.78 418.52 502.79 418.51 502.95 418.43 503.06 418.38 503.22 418.35 503.25 418.34 503.53 418.28 504.1 418.06 504.31 418.01 504.54 417.92 504.55 417.92 504.64 417.88 504.66 417.87 504.87 417.8 504.98 417.75 505.08 417.71 505.29 417.64 505.4 417.6 505.48 417.57 505.67 417.48 506.06 417.34 506.25 417.27 506.43 417.21 506.6 417.14 506.74 417.09 506.99 416.99 507.01 416.98 507.02 416.98 507.17 416.92 507.18 416.92 507.22 416.9 507.25 416.89 507.26 416.88 507.28 416.87 507.33 416.85 507.35 416.85 507.38 416.83 507.53 416.77 507.54 416.76 507.56 416.75 507.61 416.73 507.62 416.72 507.67 416.7 507.81 416.64 507.86 416.62 507.9 416.6 507.91 416.59 508.08 416.5 508.21 416.44 508.35 416.37 508.56 416.27 508.64 416.22 508.66 416.22 508.8 416.16 508.9 416.11 508.91 416.1 508.93 416.1 508.94 416.09 508.96 416.08 508.98 416.07 508.99 416.07 509.02 416.06 509.03 416.05 509.05 416.04 509.07 416.04 509.08 416.03 509.11 416.02 509.13 416.01 509.15 416.01 509.16 416 509.18 415.99 509.2 415.99 509.22 415.98 509.27 415.96 509.31 415.95 509.32 415.94 509.47 415.88 509.59 415.83 509.6 415.82 509.62 415.8 509.65 415.79 509.68 415.77 509.7 415.76 509.72 415.75 509.73 415.74 509.76 415.73 509.78 415.72 509.79 415.71 509.81 415.7 509.82 415.69 509.84 415.68 509.85 415.67 509.87 415.66 509.88 415.65 509.9 415.64 509.96 415.6 509.97 415.6 509.99 415.59 510.01 415.58 510.02 415.58 510.04 415.57 510.07 415.56 510.09 415.56 510.12 415.54 510.14 415.54 510.17 415.53 510.19 415.52 510.29 415.48 510.3 415.47 510.32 415.46 510.33 415.45 510.35 415.44 510.37 415.43 510.38 415.42 510.4 415.41 510.41 415.4 510.42 415.4 510.44 415.39 510.46 415.38 510.47 415.38 510.5 415.37 510.51 415.36 510.53 415.35 510.56 415.34 510.58 415.33 510.59 415.33 510.62 415.31 510.64 415.31 510.66 415.3 510.67 415.29 510.68 415.28 510.74 415.25 510.78 415.22 510.81 415.23 510.84 415.21 510.93 415.16 510.97 415.14 511.02 415.12 511.1 415.07 511.14 415.05 511.37 414.91 511.42 414.89 511.52 414.87 511.83 414.77 512.01 414.7 512.14 414.66 512.16 414.66 512.18 414.65 512.2 414.65 512.22 414.65 512.24 414.64 512.25 414.64 512.25 414.65 512.5 414.59 512.71 414.56 512.89 414.5 513.08 414.44 513.28 414.38 513.36 414.35 513.37 414.34 513.54 414.25 513.94 414.01 513.96 414 514.06 413.94 514.08 413.92 514.09 413.92 514.22 413.82 514.24 413.8 514.55 413.65 514.56 413.64 514.71 413.57 515.01 413.41 515.02 413.4 515.04 413.39 515.05 413.39 515.08 413.37 515.1 413.36 515.12 413.35 515.14 413.34 515.15 413.33 515.16 413.33 515.18 413.32 515.2 413.31 515.22 413.3 515.23 413.29 515.25 413.29 515.27 413.28 515.29 413.27 515.3 413.26 515.32 413.26 515.33 413.25 515.35 413.24 515.37 413.23 515.38 413.22 515.4 413.21 515.44 413.2 515.45 413.19 515.46 413.18 515.47 413.17 515.63 413.07 515.71 413.02 515.76 413 515.83 412.96 515.86 412.89 515.91 412.79 515.95 412.7 515.99 412.68 516.02 412.67 516.03 412.66 516.32 412.51 516.35 412.49 516.36 412.48 516.38 412.47 516.4 412.46 516.45 412.44 516.47 412.43 518.03 411.88 518.06 411.87 518.07 411.86 518.07 411.86 518.53 411.65 518.94 411.51 518.95 411.51 518.96 411.5 519.01 411.48 519.05 411.46 519.11 411.43 519.13 411.42 519.14 411.41 519.15 411.4 519.16 411.39 519.18 411.38 519.19 411.37 519.2 411.36 519.22 411.35 519.23 411.34 519.24 411.33 519.26 411.32 519.27 411.31 519.29 411.3 519.3 411.29 519.31 411.28 519.33 411.27 519.33 411.26 519.35 411.25 519.36 411.24 519.37 411.23 519.39 411.22 519.4 411.21 519.42 411.2 519.43 411.2 519.45 411.19 519.47 411.18 519.48 411.17 519.5 411.17 519.51 411.17 519.53 411.16 519.55 411.16 519.7 411.12 519.74 411.1 520.04 411.02 520.09 411.01 520.15 411 520.49 410.79 520.53 410.77 520.55 410.76 520.56 410.75 520.58 410.74 520.59 410.73 520.61 410.73 520.62 410.72 520.64 410.71 520.66 410.7 520.67 410.7 520.68 410.69 520.7 410.68 520.71 410.67 520.75 410.66 520.78 410.64 520.79 410.64 520.81 410.63 520.82 410.62 520.84 410.61 520.86 410.61 520.87 410.6 520.9 410.58 520.92 410.57 520.93 410.57 520.95 410.56 520.96 410.55 520.98 410.54 520.99 410.53 521.01 410.52 521.02 410.51 521.08 410.47 521.1 410.46 521.27 410.35 521.3 410.33 521.33 410.31 521.34 410.31 521.59 410.15 521.6 410.14 521.74 410.04 521.75 410.03 521.76 410.02 521.85 409.97 521.87 409.96 521.88 409.95 521.9 409.94 521.91 409.93 521.92 409.92 521.94 409.91 521.95 409.9 521.97 409.88 521.98 409.88 522 409.87 522.01 409.85 522.04 409.84 522.13 409.77 522.28 409.66 522.34 409.63 522.35 409.63 522.38 409.61 522.41 409.6 522.43 409.59 522.45 409.58 522.49 409.56 522.53 409.54 522.54 409.54 522.56 409.53 522.57 409.52 522.59 409.51 522.61 409.5 522.62 409.49 522.63 409.49 522.65 409.48 522.66 409.47 522.68 409.46 522.69 409.46 522.71 409.45 522.72 409.45 522.73 409.44 522.75 409.43 522.77 409.42 522.79 409.41 522.8 409.41 522.83 409.4 522.84 409.4 522.86 409.39 522.88 409.38 522.9 409.38 522.91 409.37 522.93 409.37 522.95 409.36 522.96 409.36 522.98 409.35 523 409.34 523.07 409.32 523.12 409.3 523.16 409.29 523.17 409.28 523.19 409.28 523.21 409.27 523.23 409.26 523.24 409.26 523.26 409.25 523.27 409.25 523.28 409.24 523.3 409.23 523.31 409.22 523.37 409.19 523.39 409.18 523.4 409.17 523.42 409.16 523.44 409.15 523.45 409.14 523.47 409.13 523.48 409.13 523.5 409.12 523.54 409.1 523.56 409.08 523.58 409.08 523.59 409.06 523.61 409.05 523.62 409.04 523.64 409.03 523.65 409.02 523.67 409.01 523.68 409 523.73 408.97 523.77 408.94 523.79 408.93 523.8 408.92 523.81 408.91 523.83 408.9 523.84 408.89 523.85 408.89 523.86 408.88 523.88 408.86 523.89 408.86 523.92 408.83 523.94 408.82 523.96 408.81 523.97 408.8 524.01 408.78 524.04 408.76 524.05 408.75 524.06 408.74 524.22 408.61 524.65 408.25 524.67 408.25 524.69 408.24 524.71 408.24 524.72 408.24 524.74 408.24 524.76 408.24 524.78 408.24 524.8 408.23 524.82 408.23 524.83 408.23 524.85 408.23 524.9 408.21 524.94 408.21 524.95 408.21 524.97 408.2 525 408.2 525.02 408.2 525.04 408.19 525.09 408.18 525.13 408.18 525.14 408.18 525.16 408.17 525.18 408.17 525.19 408.17 525.21 408.17 525.28 408.16 525.31 408.15 525.33 408.15 525.35 408.15 525.37 408.14 525.41 408.14 525.42 408.14 525.44 408.13 525.46 408.13 525.48 408.13 525.5 408.13 525.51 408.12 525.53 408.12 525.57 408.12 525.6 408.11 525.64 408.11 525.66 408.11 525.67 408.1 525.7 408.1 525.71 408.1 525.73 408.09 525.75 408.09 525.76 408.09 525.77 408.08 525.79 408.08 525.81 408.07 525.82 408.07 525.84 408.06 525.86 408.05 525.88 408.04 525.93 408.03 525.96 408.01 525.97 408.01 525.99 407.99 526.01 407.98 526.04 407.96 526.06 407.94 526.09 407.93 526.11 407.92 526.12 407.9 526.13 407.89 526.14 407.87 Z"/>
</g></svg>