<svg xmlns="http://www.w3.org/2000/svg" version="1.2" baseProfile="tiny" stroke-linecap="round" stroke-linejoin="round" viewBox="556.27 194.85 49.12 69.6"><g xmlns="http://www.w3.org/2000/svg" id="Erro">
<path d="M 596.49 203.04 596.79 203.12 596.94 203.16 596.97 203.17 597.15 203.21 597.36 203.26 597.53 203.3 597.8 203.37 598.13 203.45 598.52 203.54 598.51 203.68 598.5 203.78 598.5 203.92 598.49 204.09 598.48 204.26 598.47 204.45 598.46 204.64 598.45 204.89 598.45 204.95 598.44 205.04 598.44 205.05 598.43 205.23 598.43 205.32 598.42 205.44 598.42 205.58 598.37 205.72 598.29 205.9 598.27 205.95 598.17 206.17 598.09 206.37 598.05 206.46 598 206.6 597.96 206.7 597.93 206.77 597.86 206.95 597.55 207.16 597.01 207.53 596.82 207.49 596.64 207.45 596.44 207.41 596.37 207.66 596.28 208 596.11 208.02 595.95 208.05 595.82 208.07 595.66 208.06 595.41 208.05 595.11 208.03 594.86 208.01 594.58 208.12 594.25 208.24 594.04 208.32 594 208.57 593.97 208.72 594.04 208.94 594.13 209.27 594.2 209.52 594.28 209.78 594.34 210 594.39 210.18 594.39 210.47 594.38 210.75 594.38 211.06 594.58 211.05 594.73 211.05 594.83 211.06 595.01 211.19 595.18 211.33 595.34 211.45 595.37 211.47 595.49 211.5 595.65 211.54 595.84 211.58 596.02 211.61 596.03 211.61 596.04 211.62 596.11 211.63 596.23 211.65 596.35 211.67 596.44 211.69 596.51 211.7 596.68 211.59 596.88 211.46 596.97 211.4 597.04 211.44 597.14 211.51 597.25 211.58 597.3 211.62 597.36 211.66 597.44 211.72 597.49 211.75 597.57 211.81 597.64 211.85 597.68 211.87 597.69 211.88 597.72 211.88 597.77 211.87 597.88 211.84 598.04 211.82 598.15 211.79 598.31 211.76 598.45 211.74 598.58 211.72 598.63 211.71 598.66 211.72 598.69 211.73 598.75 211.75 598.79 211.77 598.86 211.8 598.96 211.84 599.03 211.86 599.11 211.89 599.19 211.92 599.24 211.95 599.29 211.98 599.32 211.99 599.35 212.01 599.38 212.03 599.41 212.05 599.46 212.09 599.53 212.14 599.57 212.18 599.64 212.23 599.7 212.29 599.77 212.35 599.86 212.43 599.92 212.49 600.01 212.56 600.09 212.62 600.16 212.68 600.22 212.72 600.26 212.76 600.26 212.81 600.25 212.83 600.25 212.88 600.24 212.91 600.23 212.96 600.19 213.11 600.16 213.25 600.11 213.41 600.07 213.55 600.04 213.68 600.02 213.79 600 213.88 599.99 213.97 599.96 214.04 599.93 214.15 599.9 214.29 599.86 214.43 599.81 214.61 599.79 214.7 599.76 214.85 599.75 214.92 599.74 215 599.73 215.04 599.71 215.21 599.68 215.39 599.67 215.56 599.64 215.73 599.62 215.87 599.59 216.02 599.58 216.13 599.57 216.23 599.55 216.31 599.53 216.43 599.52 216.49 599.52 216.5 599.52 216.54 599.52 216.59 599.51 216.7 599.51 216.81 599.51 216.93 599.5 216.99 599.49 217.08 599.49 217.15 599.49 217.22 599.48 217.23 599.48 217.27 599.48 217.31 599.49 217.34 599.51 217.38 599.53 217.4 599.54 217.43 599.56 217.45 599.57 217.5 599.58 217.53 599.59 217.55 599.6 217.58 599.62 217.6 599.65 217.64 599.67 217.66 599.69 217.69 599.71 217.71 599.71 217.74 599.72 217.77 599.74 217.8 599.76 217.82 599.78 217.84 599.79 217.86 599.8 217.88 599.8 217.9 599.8 217.94 599.81 217.97 599.82 218 599.83 218.02 599.86 218.05 599.88 218.08 599.89 218.11 599.91 218.14 599.93 218.15 599.95 218.16 599.97 218.15 599.99 218.14 600.01 218.14 600.02 218.15 600.02 218.18 600.01 218.2 600 218.24 599.98 218.27 599.97 218.3 599.96 218.31 599.96 218.33 599.97 218.35 599.99 218.37 600 218.4 600 218.43 600.01 218.46 600.01 218.52 600.02 218.56 600.03 218.58 600.04 218.62 600.05 218.66 600.06 218.71 600.07 218.77 600.08 218.83 600.1 218.88 600.12 218.91 600.13 218.96 600.15 219 600.16 219.07 600.18 219.13 600.19 219.17 600.21 219.21 600.23 219.2 600.25 219.22 600.28 219.25 600.31 219.27 600.34 219.3 600.39 219.33 600.41 219.36 600.44 219.39 600.48 219.43 600.55 219.47 600.59 219.49 600.62 219.51 600.65 219.52 600.68 219.53 600.7 219.54 600.72 219.54 600.76 219.55 600.81 219.55 600.85 219.55 600.88 219.55 600.9 219.56 600.92 219.58 600.92 219.6 600.93 219.63 600.95 219.65 600.97 219.67 601 219.68 601.05 219.7 601.11 219.71 601.17 219.73 601.22 219.74 601.27 219.76 601.31 219.78 601.35 219.79 601.38 219.81 601.4 219.82 601.4 219.85 601.41 219.88 601.42 219.9 601.42 219.92 601.44 219.92 601.46 219.92 601.49 219.91 601.52 219.91 601.55 219.93 601.57 219.96 601.58 219.97 601.61 219.97 601.63 219.96 601.66 219.95 601.69 219.94 601.72 219.95 601.74 219.96 601.77 219.97 601.8 220 601.83 220.02 601.85 220.05 601.87 220.08 601.88 220.11 601.91 220.17 601.91 220.22 601.92 220.28 601.92 220.32 601.91 220.37 601.91 220.42 601.91 220.45 601.91 220.48 601.91 220.5 601.93 220.55 601.94 220.59 601.96 220.62 601.98 220.67 601.99 220.7 602.01 220.74 602.03 220.76 602.05 220.78 602.08 220.81 602.11 220.83 602.14 220.86 602.16 220.87 602.19 220.89 602.23 220.9 602.26 220.9 602.3 220.91 602.34 220.91 602.37 220.91 602.42 220.92 602.45 220.94 602.49 220.97 602.52 220.99 602.54 221.01 602.57 221.04 602.59 221.05 602.62 221.07 602.66 221.09 602.69 221.1 602.74 221.12 602.77 221.13 602.8 221.14 602.82 221.15 602.83 221.17 602.84 221.19 602.84 221.21 602.83 221.24 602.82 221.26 602.81 221.28 602.83 221.28 602.89 221.29 602.89 221.29 603.01 221.3 603.2 221.32 603.4 221.34 603.46 221.35 603.48 221.35 603.52 221.36 603.55 221.36 603.64 221.37 603.65 221.37 603.83 221.39 604.01 221.41 604.13 221.42 604.16 221.43 604.16 221.43 604.18 221.43 604.2 221.44 604.24 221.46 604.27 221.47 604.33 221.49 604.44 221.53 604.57 221.57 604.62 221.58 604.68 221.59 604.74 221.61 604.77 221.65 604.79 221.68 604.82 221.73 604.86 221.76 604.92 221.79 605 221.82 605.03 221.83 605.07 221.84 605.1 221.84 605.15 221.85 605.18 221.86 605.2 221.87 605.22 221.9 605.26 221.93 605.31 221.95 605.35 221.97 605.38 221.97 605.35 222.08 605.32 222.2 605.3 222.24 605.28 222.27 605.28 222.28 605.27 222.29 605.26 222.31 605.23 222.42 605.2 222.51 605.17 222.62 605.15 222.69 605.14 222.73 605.13 222.78 605.12 222.83 605.08 222.95 605.07 223.01 605.06 223.06 605.03 223.12 605 223.18 604.97 223.27 604.93 223.37 604.92 223.41 604.9 223.43 604.88 223.46 604.86 223.5 604.83 223.57 604.81 223.64 604.79 223.7 604.77 223.77 604.75 223.84 604.73 223.91 604.71 223.96 604.69 224.05 604.67 224.12 604.66 224.2 604.65 224.3 604.65 224.36 604.64 224.42 604.64 224.52 604.64 224.59 604.65 224.65 604.65 224.67 604.6 224.7 604.57 224.73 604.53 224.77 604.5 224.81 604.47 224.85 604.42 224.92 604.4 224.95 604.36 225.01 604.33 225.08 604.3 225.15 604.29 225.18 604.27 225.24 604.25 225.28 604.25 225.29 604.24 225.31 604.23 225.33 604.21 225.38 604.17 225.45 604.13 225.51 604.09 225.58 604.06 225.62 604.03 225.66 604 225.71 603.95 225.75 603.91 225.79 603.89 225.82 603.87 225.86 603.84 225.93 603.8 225.99 603.76 226.06 603.73 226.11 603.71 226.11 603.65 226.1 603.6 226.08 603.53 226.07 603.46 226.05 603.38 226.04 603.29 226.04 603.21 226.02 603.11 225.99 603.11 225.99 603 225.96 602.91 225.94 602.81 225.93 602.71 225.92 602.62 225.92 602.58 225.92 602.51 225.92 602.43 225.92 602.4 225.92 602.35 225.92 602.24 225.93 602.13 225.95 602.09 225.97 602.04 225.99 601.99 226 601.96 226.02 601.89 226.04 601.85 226.05 601.84 226.06 601.82 226.09 601.8 226.13 601.8 226.18 601.79 226.21 601.78 226.23 601.77 226.24 601.72 226.21 601.66 226.16 601.62 226.13 601.55 226.1 601.48 226.07 601.43 226.06 601.39 226.05 601.35 226.06 601.3 226.07 601.27 226.09 601.26 226.11 601.26 226.15 601.28 226.19 601.27 226.2 601.2 226.23 601.12 226.27 601.05 226.31 600.97 226.36 600.89 226.42 600.82 226.47 600.79 226.5 600.75 226.53 600.71 226.59 600.67 226.66 600.64 226.72 600.62 226.77 600.61 226.82 600.6 226.87 600.59 226.91 600.59 226.98 600.59 227.05 600.59 227.12 600.59 227.17 600.6 227.22 600.6 227.27 600.61 227.33 600.62 227.39 600.62 227.46 600.63 227.52 600.63 227.58 600.63 227.63 600.63 227.67 600.62 227.72 600.61 227.76 600.58 227.82 600.55 227.86 600.53 227.88 600.49 227.9 600.47 227.91 600.44 227.91 600.41 227.91 600.4 227.92 600.39 227.96 600.31 228.03 600.24 228.09 600.18 228.16 600.14 228.2 600.11 228.27 599.99 228.26 599.97 228.26 599.95 228.42 599.94 228.47 599.93 228.51 599.93 228.54 599.92 228.56 599.91 228.58 599.91 228.6 599.9 228.63 599.88 228.67 599.82 228.82 599.81 228.85 599.8 228.88 599.77 228.93 599.75 228.98 599.71 229.11 599.69 229.16 599.67 229.19 599.67 229.21 599.67 229.23 599.66 229.26 599.65 229.29 599.62 229.4 599.55 229.62 599.53 229.69 599.52 229.72 599.51 229.73 599.51 229.77 599.51 229.79 599.5 229.81 599.5 229.81 599.47 229.92 599.44 230.03 599.43 230.05 599.42 230.06 599.41 230.09 599.4 230.11 599.39 230.12 599.38 230.13 599.37 230.14 599.36 230.15 599.35 230.16 599.34 230.16 599.32 230.17 599.23 230.21 599.19 230.24 599.06 230.3 598.96 230.34 598.9 230.36 598.88 230.37 598.87 230.37 598.81 230.37 598.8 230.37 598.78 230.37 598.77 230.37 598.75 230.37 598.69 230.34 598.58 230.28 598.46 230.22 598.38 230.19 598.31 230.15 598.28 230.14 598.25 230.13 598.24 230.12 598.17 230.07 598.15 230.06 598.14 230.06 598.14 230.05 598.13 230.05 598.12 230.05 598.11 230.05 598.1 230.06 598.09 230.07 598.09 230.07 598.08 230.09 598.08 230.1 598.07 230.12 598.07 230.14 598.07 230.17 598.06 230.19 598.06 230.21 598.06 230.22 598.06 230.24 598.05 230.28 598.04 230.3 598.04 230.32 598.03 230.34 598.02 230.35 598.02 230.36 598.01 230.38 597.99 230.41 597.98 230.43 597.97 230.45 597.96 230.46 597.96 230.48 597.94 230.51 597.92 230.55 597.85 230.65 597.85 230.66 597.84 230.67 597.83 230.69 597.82 230.7 597.82 230.71 597.8 230.78 597.79 230.86 597.78 230.88 597.77 230.92 597.76 230.97 597.74 231.01 597.74 231.03 597.73 231.05 597.68 231.19 597.65 231.26 597.65 231.28 597.64 231.29 597.64 231.3 597.64 231.33 597.63 231.4 597.63 231.46 597.64 231.51 597.64 231.55 597.65 231.58 597.66 231.6 597.67 231.62 597.7 231.64 597.71 231.65 597.75 231.66 597.77 231.67 597.8 231.67 597.85 231.68 597.9 231.69 597.94 231.7 597.96 231.71 597.97 231.72 597.99 231.73 598 231.74 598.02 231.76 598.03 231.78 598.04 231.82 598.04 231.85 598.04 231.87 598.04 231.89 598.03 231.91 598.02 231.95 598 231.98 597.98 232 597.94 232.03 597.89 232.06 597.86 232.07 597.83 232.09 597.81 232.09 597.79 232.09 597.76 232.09 597.69 232.07 597.6 232.07 597.58 232.06 597.56 232.05 597.54 232.04 597.52 232.02 597.48 231.99 597.4 231.92 597.39 231.9 597.37 231.89 597.35 231.88 597.33 231.88 597.31 231.88 597.27 231.89 597.24 231.89 597.22 231.9 597.21 231.9 597.19 231.89 597.18 231.89 597.16 231.89 597.14 231.89 597.12 231.89 597.09 231.89 597.06 231.89 596.99 231.89 596.96 231.89 596.95 231.89 596.92 231.89 596.9 231.89 596.88 231.9 596.86 231.92 596.83 231.93 596.8 231.97 596.76 232 596.74 232.02 596.71 232.05 596.68 232.09 596.65 232.13 596.61 232.2 596.57 232.28 596.55 232.32 596.51 232.39 596.48 232.49 596.45 232.55 596.4 232.64 596.37 232.68 596.34 232.74 596.32 232.77 596.31 232.79 596.29 232.81 596.27 232.84 596.25 232.86 596.23 232.88 596.2 232.91 596.15 232.95 596.12 232.98 596.07 233.03 596.04 233.05 596.01 233.07 595.98 233.09 595.96 233.11 595.93 233.14 595.91 233.16 595.87 233.2 595.85 233.25 595.81 233.29 595.79 233.32 595.76 233.35 595.74 233.38 595.73 233.39 595.72 233.4 595.7 233.41 595.69 233.41 595.67 233.42 595.65 233.42 595.63 233.42 595.61 233.41 594.95 232.84 594.93 232.82 594.8 232.71 594.43 232.72 594.26 232.72 594.24 232.73 594.21 232.73 594.19 232.73 594.17 232.73 594.14 232.73 594.13 232.73 594.11 232.74 594.09 232.75 594.05 232.76 593.93 232.82 593.86 232.85 593.68 232.94 593.5 233.02 593.47 233.03 593.45 233.04 593.42 233.05 593.39 233.06 593.37 233.07 593.34 233.08 593.33 233.08 593.28 233.1 593.26 233.1 593.19 233.12 593.1 233.15 593.03 233.18 592.98 233.19 592.91 233.21 592.85 233.24 592.81 233.26 592.77 233.28 592.76 233.29 592.73 233.3 592.7 233.32 591.67 233.82 591.63 233.84 591.59 233.87 591.54 233.89 591.49 233.92 591.46 233.93 591.43 233.95 591.39 233.96 591.36 233.97 591.33 233.97 591.29 233.98 591.24 233.98 591.19 233.99 591.03 234 590.48 235.13 590.47 235.15 590.46 235.18 590.44 235.22 590.42 235.24 590.4 235.27 590.11 235.7 589.72 236.27 589.67 236.34 589.63 236.4 589.61 236.44 589.57 236.5 589.55 236.52 589.54 236.54 589.49 236.6 588.89 237.28 588.81 237.39 588.74 237.51 588.69 237.59 588.64 237.69 588.57 237.81 588.56 237.84 588.52 237.91 588.5 237.95 588.47 238 588.45 238.06 588.44 238.07 588.36 238.24 588.34 238.3 588.3 238.37 588.3 238.38 588.29 238.41 588.28 238.44 588.26 238.46 588.25 238.5 588.24 238.51 588.22 238.54 588.2 238.57 588.18 238.59 588.14 238.64 588.11 238.68 588.06 238.76 587.93 238.95 587.92 238.98 587.83 239.09 587.73 239.24 587.69 239.31 587.68 239.33 587.63 239.4 587.62 239.42 587.6 239.46 587.59 239.48 587.57 239.5 587.46 239.67 587.43 239.72 587.36 239.81 587.33 239.86 587.32 239.88 587.31 239.9 587.28 239.98 587.26 240.01 587.26 240.02 587.25 240.04 587.24 240.05 587.23 240.07 587.23 240.08 587.21 240.1 587.18 240.14 587.14 240.2 587.04 240.31 587.03 240.32 587.02 240.33 587 240.35 586.98 240.38 586.95 240.42 586.88 240.48 586.83 240.53 586.75 240.6 586.72 240.63 586.66 240.69 586.62 240.74 586.61 240.75 586.6 240.76 586.5 240.88 586.5 240.9 586.49 240.94 586.48 240.98 586.43 241.14 586.41 241.2 586.41 241.22 586.4 241.24 586.39 241.29 586.37 241.41 586.36 241.47 586.36 241.5 586.34 241.64 586.16 241.6 586.16 241.74 586.16 241.82 586.16 241.86 586.16 241.88 586.16 241.9 586.16 241.92 586.16 241.95 586.14 242.05 586.12 242.13 586.25 242.13 586.42 242.13 586.53 242.14 586.63 242.15 586.7 242.15 586.73 242.16 586.74 242.16 586.77 242.17 586.81 242.19 586.83 242.2 586.86 242.21 586.87 242.22 586.98 242.28 587.05 242.32 587.13 242.38 587.15 242.39 587.16 242.4 587.25 242.51 587.29 242.56 587.3 242.57 587.27 242.78 587.26 242.82 587.24 242.97 587.21 243.2 587.09 243.37 586.58 243.47 586.1 243.65 585.7 244.03 585.51 244.5 585.51 244.52 585.51 244.54 585.5 244.56 585.84 244.66 585.88 244.67 586.05 244.72 586.28 244.8 586.32 244.81 586.4 244.85 586.51 244.91 586.85 245.05 586.88 245.16 586.9 245.23 586.92 245.29 586.93 245.32 586.94 245.36 587.05 245.63 587.06 245.67 587.06 245.69 587.06 245.7 587.07 245.71 587.07 245.76 587.07 245.83 587.07 245.88 587.07 246.01 587.06 246.13 587.05 246.4 587.04 246.63 587.03 246.72 587.02 246.8 587.02 246.84 587.02 246.87 587.01 246.9 587 246.93 586.98 246.97 586.95 247.08 586.94 247.1 586.86 247.37 586.89 247.37 586.98 247.39 587.02 247.39 587.08 247.4 587.22 247.42 587.45 247.44 587.59 247.45 587.62 247.46 587.64 247.46 587.66 247.47 587.69 247.48 587.72 247.49 587.9 247.56 588.03 247.62 588.13 247.66 588.25 247.71 588.29 247.75 588.34 247.82 588.58 248.17 588.8 248.55 589.01 248.94 589.03 249.2 588.94 249.32 588.85 249.44 588.81 249.5 588.62 249.76 589.13 250.61 589.24 250.66 589.24 251.26 589.21 251.3 589.16 251.36 589.09 251.45 589.05 251.5 588.99 251.5 588.9 251.5 588.83 251.5 588.72 251.5 588.63 251.5 588.57 251.5 588.41 251.5 588.33 251.5 588.23 251.5 588.13 251.49 588.07 251.5 587.98 251.5 587.93 251.52 587.89 251.54 587.8 251.56 587.73 251.59 587.72 251.59 587.67 251.6 587.59 251.63 587.52 251.65 587.43 251.67 587.33 251.7 587.26 251.72 587.18 251.77 587.13 251.81 587.07 251.85 587 251.9 586.94 251.94 586.9 251.98 586.86 252 586.81 252.04 586.75 252.08 586.72 252.1 586.66 252.15 586.59 252.2 586.51 252.25 586.41 252.31 586.33 252.35 586.25 252.4 586.15 252.46 586.02 252.53 585.9 252.59 585.81 252.63 585.65 252.71 585.49 252.78 585.35 252.85 585.28 252.88 585.18 252.85 584.99 252.8 584.95 252.78 584.72 252.72 584.4 252.63 584.05 252.53 583.6 252.4 583.34 252.47 583.21 252.49 582.94 252.52 582.75 252.53 582.56 252.55 582.42 252.56 582.23 252.57 582.14 252.57 582.1 252.58 581.9 252.59 581.72 252.61 581.6 252.62 581.48 252.62 581.36 252.63 581.28 252.64 581.17 252.66 581.08 252.67 581.03 252.68 580.99 252.68 580.94 252.68 580.87 252.67 580.86 252.71 580.85 252.82 580.83 252.94 580.83 253.05 580.82 253.17 580.8 253.31 580.79 253.42 580.78 253.55 580.78 253.65 580.77 253.84 580.76 253.92 580.74 254.04 580.73 254.12 580.71 254.24 580.69 254.37 580.66 254.51 580.65 254.61 580.64 254.67 580.62 254.74 580.61 254.78 580.6 254.83 580.59 254.89 580.56 255.02 580.53 255.14 580.51 255.27 580.49 255.35 580.48 255.42 580.48 255.44 580.47 255.45 580.45 255.49 580.44 255.51 580.42 255.55 580.4 255.59 580.38 255.62 580.35 255.68 580.32 255.73 580.3 255.78 580.28 255.8 580.25 255.85 580.22 255.93 580.18 255.99 580.16 256.04 580.09 256.19 580.04 256.31 579.97 256.44 579.93 256.5 579.89 256.56 579.85 256.63 579.82 256.68 579.8 256.7 579.79 256.71 579.71 256.8 579.66 256.85 579.61 256.91 579.58 256.93 579.53 256.97 579.48 257.02 579.42 257.07 579.37 257.12 579.31 257.19 579.25 257.25 579.22 257.28 579.2 257.3 579.15 257.36 579.12 257.39 579.1 257.42 579.08 257.43 579.07 257.44 579.06 257.46 579.02 257.5 578.97 257.56 578.95 257.59 578.92 257.63 578.9 257.65 578.88 257.69 578.87 257.71 578.86 257.75 578.85 257.76 578.78 257.83 578.7 257.9 578.61 257.98 578.53 258.04 578.55 258.28 578.58 258.52 578.6 258.73 578.62 258.91 578.62 258.95 578.64 259.04 578.65 259.19 578.66 259.27 578.67 259.33 578.68 259.49 578.69 259.67 578.69 259.89 578.69 260.03 578.68 260.19 578.68 260.32 578.68 260.4 578.68 260.52 578.68 260.55 578.68 260.61 578.67 260.74 578.66 260.84 578.66 260.86 578.64 261.01 578.62 261.2 578.61 261.35 578.6 261.39 578.59 261.48 578.59 261.54 578.58 261.57 578.58 261.62 578.57 261.69 578.56 261.77 578.54 261.89 578.53 261.96 578.51 262.01 578.47 262.13 578.44 262.22 578.42 262.29 578.41 262.32 578.41 262.33 578.39 262.38 578.37 262.46 578.35 262.55 578.32 262.64 578.3 262.68 578.28 262.73 578.27 262.77 578.26 262.8 578.25 262.85 578.22 262.94 578.21 262.98 578.2 263.01 578.2 263.04 578.19 263.07 578.19 263.09 578.19 263.24 578.19 263.31 578.06 263.3 577.93 263.29 577.76 263.28 577.66 263.28 577.54 263.28 577.43 263.28 577.36 263.28 577.25 263.27 577.22 263.34 577.16 263.44 577.1 263.53 577.03 263.64 576.95 263.76 576.87 263.89 576.8 264 576.71 264.13 576.65 264.23 576.61 264.28 576.56 264.35 576.51 264.43 576.42 264.37 576.3 264.31 576.17 264.24 576.02 264.22 575.94 264.21 575.81 264.19 575.69 264.17 575.61 264.16 575.52 264.15 575.42 264.14 575.29 264.12 575.19 264.11 575.1 264.1 575.01 264.09 574.93 264.08 574.79 264.07 574.65 264.06 574.51 264.04 574.4 264.03 574.34 264.02 574.18 264.01 574.1 264 573.98 263.98 573.89 263.97 573.83 263.96 573.81 263.96 573.78 263.96 573.72 263.95 573.64 263.94 573.59 263.94 573.47 263.92 573.36 263.9 573.25 263.88 573.15 263.87 573.11 263.84 573.05 263.79 572.98 263.74 572.92 263.71 572.82 263.65 572.71 263.6 572.63 263.55 572.55 263.53 572.47 263.5 572.35 263.47 572.34 263.47 572.25 263.44 572.15 263.42 572.08 263.38 571.99 263.32 571.91 263.28 571.81 263.22 571.69 263.15 571.62 263.1 571.57 263.08 571.5 263.04 571.43 262.98 571.36 262.89 571.32 262.86 571.28 262.84 571.2 262.81 571.14 262.78 571.04 262.71 570.96 262.65 570.91 262.61 570.88 262.6 570.82 262.58 570.71 262.55 570.61 262.53 570.54 262.51 570.38 262.5 570.23 262.49 570.1 262.53 569.97 262.57 569.76 262.64 569.59 262.69 569.44 262.73 569.43 262.74 569.35 262.76 569.26 262.79 569.1 262.84 568.94 262.89 568.92 262.9 568.91 262.9 568.87 262.92 568.75 262.96 568.58 263.03 568.57 263.04 568.52 263.05 568.5 263.06 568.46 263.08 568.45 263.07 568.45 263.01 568.44 262.94 568.43 262.91 568.43 262.88 568.42 262.84 568.42 262.76 568.41 262.74 568.4 262.63 568.4 262.62 568.38 262.46 568.37 262.36 568.34 262.17 568.34 262.11 568.31 261.93 568.29 261.69 568.27 261.55 568.25 261.45 568.25 261.38 568.25 261.22 568.25 261.16 568.24 260.92 568.24 260.84 568.25 260.79 568.03 260.06 567.87 260.03 567.72 260.01 567.58 259.99 567.53 259.97 567.49 259.97 567.38 259.92 567.2 259.83 567.06 259.76 566.92 259.68 566.9 259.67 566.75 259.56 566.66 259.42 566.6 259.31 566.55 259.24 566.51 259.16 566.28 258.86 566.19 258.51 565.77 258.54 565.64 258.08 565.65 257.99 565.65 257.98 565.65 257.97 565.67 257.91 565.69 257.81 565.71 257.71 565.71 257.69 565.71 257.68 565.73 257.59 565.76 257.5 565.83 257.3 565.88 257.16 565.93 257.05 565.97 256.94 565.99 256.86 565.99 256.77 565.98 256.68 565.97 256.56 565.97 256.53 565.97 256.5 565.96 256.43 565.95 256.37 565.94 256.29 565.94 256.25 565.93 256.2 565.91 256.13 565.89 256.07 565.83 255.99 565.73 255.82 565.67 255.74 565.63 255.68 565.62 255.67 565.63 255.66 565.7 255.6 565.77 255.54 565.85 255.48 565.91 255.4 565.99 255.31 566.09 255.16 566.11 255.05 566.15 254.9 566.18 254.8 566.2 254.74 566.23 254.67 566.29 254.51 566.34 254.4 566.37 254.28 566.39 254.19 566.2 254.18 566.02 254.15 565.87 254.12 565.76 253.96 565.73 253.95 565.69 253.93 565.67 253.91 565.61 253.85 565.56 253.77 565.53 253.72 565.47 253.64 565.42 253.55 565.38 253.45 565.35 253.36 565.3 253.24 565.27 253.18 565.25 253.14 565.23 253.08 565.2 253 565.18 252.88 565.16 252.73 565.14 252.63 565.06 252.58 564.97 252.51 564.87 252.44 564.75 252.36 564.63 252.27 564.55 252.22 564.52 252.25 564.47 252.29 564.4 252.37 564.34 252.44 564.26 252.52 564.2 252.58 564.19 252.59 564.07 252.56 564.01 252.55 563.88 252.49 563.79 252.46 563.73 252.48 563.69 252.5 563.62 252.52 563.61 252.53 563.56 252.55 563.52 252.57 563.49 252.58 563.42 252.6 563.35 252.63 563.32 252.65 563.27 252.67 563.25 252.68 563.19 252.7 563.18 252.7 563.12 252.71 563.05 252.72 562.97 252.74 562.92 252.75 562.84 252.76 562.78 252.77 562.73 252.57 562.58 252.47 562.4 252.34 562.3 252.28 562.25 252.25 562.21 252.23 562.2 252.23 562.21 252.12 562.24 252.07 562.27 252.03 562.31 251.99 562.35 251.95 562.37 251.93 562.4 251.91 562.42 251.89 562.42 251.88 562.5 251.76 562.57 251.66 562.61 251.6 562.64 251.54 562.71 251.41 562.75 251.27 562.78 251.18 562.8 251.08 562.83 250.98 562.83 250.92 562.83 250.9 562.83 250.88 562.84 250.75 562.84 250.72 562.85 250.57 562.86 250.36 562.85 250.31 562.84 250.18 562.81 249.97 562.78 249.82 562.78 249.8 562.76 249.68 562.74 249.56 562.73 249.49 562.73 249.45 562.71 249.39 562.83 249.33 562.92 249.24 562.98 249.18 563.01 249.16 563.1 249.04 563.18 248.89 563.25 248.78 563.29 248.71 563.35 248.64 563.39 248.58 563.4 248.57 563.42 248.53 563.44 248.5 563.47 248.45 563.48 248.43 563.49 248.38 563.51 248.33 563.53 248.28 563.54 248.24 563.54 248.21 563.54 248.18 563.54 248.15 563.55 248.11 563.57 248.06 563.59 248.01 563.61 247.96 563.65 247.9 563.68 247.85 563.71 247.82 563.75 247.78 563.8 247.74 563.86 247.7 563.95 247.65 563.97 247.63 564 247.59 564.02 247.58 564.04 247.56 564.07 247.53 564.13 247.5 564.23 247.46 564.33 247.42 564.39 247.4 564.46 247.36 564.52 247.32 564.58 247.28 564.64 247.25 564.68 247.24 564.73 247.21 564.81 247.16 564.93 247.07 565.08 246.96 565.09 246.95 565.09 246.93 565.1 246.87 565.12 246.8 565.14 246.74 565.15 246.63 565.14 246.55 565.12 246.38 565.11 246.25 565.11 246.11 565.11 246.07 565.12 246.01 565.12 245.99 565.12 245.96 565.12 245.94 565.13 245.91 565.13 245.89 565.14 245.87 565.15 245.85 565.16 245.84 565.16 245.83 565.16 245.82 565.23 245.35 565.52 244.86 565.8 244.38 565.74 243.87 566.06 243.25 565.96 242.85 566.1 242.49 566.1 242.48 566.13 242.42 566.18 242.31 566.19 242.28 566.19 242.26 566.19 242.23 566.17 242.19 566.16 242.14 566.15 242.1 566.14 242.06 566.14 242.03 566.15 241.99 566.16 241.96 566.17 241.93 566.18 241.91 566.19 241.87 566.22 241.82 566.23 241.78 566.23 241.75 566.24 241.71 566.24 241.68 566.24 241.66 566.24 241.63 566.22 241.54 566.21 241.51 566.2 241.48 566.19 241.46 566.17 241.44 566.16 241.41 566.14 241.39 566.12 241.37 566.11 241.34 566.1 241.31 566.1 241.3 566.09 241.28 566.09 241.26 566.1 241.24 566.1 241.22 566.1 241.2 566.11 241.16 566.12 241.13 566.14 241.11 566.16 241.08 566.17 241.05 566.19 241.02 566.21 241 566.25 240.96 566.27 240.94 566.29 240.92 566.3 240.9 566.31 240.89 566.32 240.87 566.32 240.85 566.33 240.82 566.35 240.8 566.36 240.77 566.39 240.74 566.41 240.7 566.43 240.67 566.42 240.65 566.42 240.64 566.41 240.61 566.39 240.56 566.39 240.54 566.38 240.49 566.4 240.43 566.44 240.36 566.46 240.33 566.46 240.32 566.48 240.29 566.52 240.21 566.57 240.14 566.62 240.06 566.65 239.99 566.67 239.93 566.74 239.78 566.79 239.68 566.84 239.61 566.86 239.57 566.88 239.54 566.96 239.44 567.04 239.34 567.08 239.29 567.08 239.12 567.08 238.94 567.08 238.88 567.08 238.8 567.08 238.78 567.08 238.68 567.09 238.67 567.1 238.64 567.17 238.49 567.27 238.25 567.34 238.13 567.34 238.11 567.4 238.04 567.41 238.03 567.42 237.94 567.43 237.88 567.45 237.8 567.48 237.74 567.49 237.71 567.5 237.64 567.51 237.55 567.52 237.42 567.54 237.31 567.55 237.29 567.56 237.22 567.6 237.13 567.64 237.06 567.66 237.02 567.67 236.99 567.69 236.97 567.7 236.94 567.71 236.9 567.71 236.85 567.71 236.79 567.71 236.75 567.7 236.72 567.71 236.67 567.71 236.63 567.72 236.58 567.76 236.46 567.79 236.4 567.82 236.33 567.85 236.28 567.87 236.23 567.89 236.18 567.89 236.16 567.89 236.12 567.88 236.07 567.87 236.05 567.86 236.04 567.85 236.03 567.83 236 567.79 235.96 567.74 235.93 567.68 235.9 567.61 235.87 567.54 235.85 567.48 235.82 567.4 235.81 567.32 235.79 567.26 235.76 567.21 235.72 567.17 235.68 567.14 235.6 567.11 235.52 567.11 235.51 567.12 235.49 567.12 235.46 567.13 235.44 567.13 235.41 567.13 235.34 567.13 235.25 567.13 235.16 567.13 235.08 567.11 234.99 567.08 234.93 567.05 234.87 567.02 234.83 566.99 234.81 566.99 234.8 566.98 234.78 566.97 234.77 566.97 234.75 566.96 234.5 566.96 234.37 566.96 234.3 566.94 234.25 566.93 234.2 566.9 234.15 566.87 234.11 566.79 233.96 566.73 233.87 566.69 233.8 566.65 233.72 566.62 233.66 566.59 233.6 566.56 233.55 566.52 233.5 566.48 233.44 566.44 233.41 566.4 233.37 566.33 233.31 566.35 233.22 566.37 233.14 566.38 233.1 566.39 233.08 566.42 232.95 566.47 232.74 566.51 232.59 566.52 232.57 566.52 232.55 566.53 232.51 566.57 232.32 566.59 232.17 566.62 232.04 566.64 231.95 566.66 231.91 566.68 231.8 566.71 231.72 566.72 231.64 566.74 231.51 566.76 231.42 566.77 231.32 566.82 231.03 566.82 231 566.82 230.97 566.82 230.95 566.81 230.91 566.82 230.88 566.83 230.85 566.85 230.82 566.86 230.79 566.96 230.64 566.94 230.61 566.91 230.5 566.85 230.37 566.78 230.2 566.77 230.18 566.72 230.07 566.65 229.96 566.58 229.82 566.51 229.67 566.42 229.54 566.35 229.44 566.3 229.38 566.28 229.37 566.25 229.36 566.2 229.35 566.09 229.33 565.98 229.31 565.86 229.3 565.74 229.3 565.66 229.29 565.64 229.25 565.63 229.23 565.62 229.2 565.6 229.13 565.58 229.08 565.57 228.98 565.55 228.9 565.52 228.8 565.5 228.76 565.47 228.71 565.46 228.69 565.43 228.66 565.39 228.63 565.36 228.61 565.33 228.57 565.3 228.54 565.24 228.46 565.23 228.45 565.22 228.43 565.15 228.33 565.13 228.32 565.07 228.22 564.99 228.13 564.92 228.02 564.83 227.91 564.77 227.83 564.71 227.75 564.65 227.67 564.56 227.54 564.48 227.44 564.41 227.33 564.38 227.29 564.36 227.28 564.32 227.26 564.22 227.21 564.08 227.13 563.94 227.06 563.81 226.99 563.69 226.94 563.58 226.88 563.58 226.84 563.58 226.8 563.59 226.76 563.61 226.7 563.63 226.63 563.66 226.56 563.7 226.47 563.75 226.34 563.77 226.3 563.8 226.18 563.83 226.1 563.83 226.09 563.86 226.01 563.89 225.94 563.97 225.7 563.99 225.65 563.99 225.63 564 225.59 564 225.56 564 225.54 564 225.51 563.99 225.44 563.99 225.34 564 225.24 564 225.17 564 225.09 564 225.02 563.99 224.84 563.99 224.79 563.99 224.67 564 224.63 564 224.62 564 224.62 563.96 224.56 563.93 224.54 563.9 224.51 563.88 224.49 563.85 224.46 563.84 224.45 563.83 224.44 563.77 224.38 563.57 224.21 563.35 224.03 563.14 223.85 563.04 223.77 562.73 223.5 562.74 223.48 562.78 223.43 562.84 223.37 562.86 223.32 562.88 223.26 562.88 223.21 562.92 223.15 563.03 222.93 563.14 222.73 563.18 222.62 563.24 222.49 563.35 222.38 563.37 222.33 563.45 222.12 563.49 222.03 563.52 221.86 563.53 221.81 563.64 221.68 563.77 221.5 563.91 221.3 564.04 221.15 564.08 221.11 564.14 221 564.16 220.97 564.17 220.94 564.18 220.92 564.2 220.85 564.26 220.65 564.29 220.58 564.26 220.43 564.24 220.25 564.22 220.05 564.21 219.97 564.19 219.82 564.18 219.72 564.2 219.66 564.24 219.5 564.26 219.43 564.28 219.38 564.31 219.33 564.36 219.24 564.43 219.13 564.45 219.1 564.46 219.02 564.49 218.88 564.52 218.72 564.56 218.47 564.58 218.35 564.56 218.28 564.54 218.2 564.48 218.09 564.41 217.98 564.38 217.92 564.38 217.89 564.37 217.83 564.37 217.73 564.36 217.67 564.36 217.62 564.36 217.54 564.35 217.47 564.32 217.34 564.31 217.28 564.31 217.24 564.32 217.18 564.32 217.12 564.34 217.04 564.36 216.94 564.4 216.77 564.41 216.7 564.41 216.54 564.4 216.34 564.39 216.24 564.4 216.15 564.43 216.08 564.46 216.01 564.47 215.96 564.48 215.88 564.48 215.8 564.46 215.71 564.47 215.66 564.45 215.55 564.42 215.46 564.39 215.47 564.36 215.47 564.33 215.46 564.28 215.44 564.24 215.4 564.19 215.34 564.13 215.28 564.07 215.23 563.96 215.15 563.89 215.06 563.83 214.99 563.75 214.9 563.73 214.89 563.71 214.88 563.65 214.82 563.6 214.79 563.48 214.72 563.34 214.65 563.22 214.58 563.07 214.5 562.83 214.39 562.64 214.32 562.49 214.27 562.4 214.23 562.36 214.24 562.09 214.08 561.98 214.02 561.96 213.88 561.9 213.64 561.98 213.55 562.03 213.46 562.06 213.39 562.07 213.35 562.06 213.29 562.05 213.16 562.04 213.03 562.04 212.95 562.03 212.91 562.03 212.82 562.04 212.72 562.05 212.59 562.05 212.5 562.06 212.41 562.08 212.27 562.09 212.17 562.1 212.13 562.12 212.08 562.13 212.04 562.17 211.98 562.2 211.94 562.27 211.87 562.32 211.83 562.38 211.77 562.45 211.69 562.5 211.61 562.54 211.56 562.59 211.49 562.66 211.42 562.78 211.29 562.85 211.21 562.95 211.08 563.05 210.97 563.12 210.89 563.21 210.78 563.29 210.7 563.33 210.61 563.36 210.56 563.38 210.53 563.45 210.48 563.59 210.37 563.73 210.25 563.86 210.23 563.87 210.21 563.94 210.1 563.98 210.05 564 210.01 564.05 209.94 564.06 209.92 564.06 209.91 564.08 209.79 563.99 209.69 563.99 209.68 563.98 209.67 563.95 209.65 563.94 209.59 563.93 209.57 563.84 209.29 563.41 208.59 562.33 208.14 562.13 207.88 562.02 207.65 561.99 207.56 561.96 207.5 561.93 207.43 561.91 207.34 561.89 207.26 561.74 206.9 561.63 206.59 561.62 206.56 561.61 206.54 561.05 205.36 561.14 204.91 561.11 204.88 561.1 204.83 561.05 204.62 560.79 204.16 560.75 204.15 560.64 204.09 560.51 204.02 560.39 203.96 559.72 203.56 559.32 203.35 558.71 203.4 558.35 203.59 558.23 203.62 558.19 203.63 557.91 203.69 557.64 203.73 556.29 203.85 556.42 203.77 556.54 203.69 556.68 203.6 556.82 203.5 556.95 203.41 557.14 203.29 557.29 203.19 557.43 203.1 557.65 202.96 557.87 202.81 558.11 202.65 558.28 202.54 558.34 202.5 558.56 202.36 558.75 202.23 558.77 202.22 558.93 202.11 559.12 201.98 559.31 201.86 559.51 201.73 559.68 201.62 559.88 201.49 560.04 201.38 560.05 201.37 560.06 201.37 560.32 201.2 560.35 201.18 560.39 201.15 560.45 201.11 560.6 201.01 560.73 201.02 560.9 201.02 561.13 201.03 561.39 201.04 561.61 201.04 561.65 201.04 561.71 201.05 561.83 201.14 562.05 201.33 562.07 201.34 562.31 201.56 562.57 201.78 562.67 201.87 562.87 201.92 563.06 201.97 563.24 202.02 563.26 202.02 563.3 202.03 563.36 202.04 563.46 202.01 563.59 201.97 563.76 201.84 563.8 201.82 563.94 201.72 564.12 201.57 564.23 201.47 564.35 201.36 564.47 201.31 564.57 201.27 564.67 201.23 564.72 201.25 564.76 201.26 564.84 201.29 565.1 201.38 565.29 201.45 565.36 201.42 565.43 201.39 565.59 201.33 565.78 201.46 565.94 201.58 566.09 201.67 566.29 201.66 566.5 201.65 566.74 201.64 566.85 201.63 566.87 201.63 566.9 201.63 566.9 201.6 566.91 201.47 566.92 201.24 566.93 201.07 566.93 200.99 566.93 200.91 566.92 200.82 566.9 200.75 566.89 200.7 566.88 200.64 566.83 200.54 566.8 200.47 566.78 200.39 566.77 200.33 566.76 200.22 566.75 200.13 566.74 200.11 566.72 200.04 566.68 199.98 566.63 199.91 566.61 199.85 566.59 199.77 566.59 199.72 566.59 199.64 566.57 199.57 566.55 199.5 566.53 199.45 566.51 199.41 566.45 199.26 566.42 199.19 566.37 199.07 566.38 199.05 566.4 199.03 566.43 199.01 566.45 199 566.48 198.98 566.53 198.97 566.58 198.95 566.63 198.92 566.69 198.9 566.73 198.87 566.77 198.85 566.79 198.84 566.81 198.82 566.83 198.8 566.86 198.77 566.88 198.75 566.9 198.73 566.94 198.71 567.04 198.63 567.07 198.6 567.08 198.59 567.09 198.57 567.1 198.55 567.1 198.53 567.1 198.52 567.1 198.5 567.1 198.48 567.09 198.46 567.08 198.44 567.07 198.42 567.06 198.39 567.05 198.37 567.03 198.3 567.02 198.29 567.09 198.25 567.13 198.22 567.18 198.2 567.22 198.17 567.26 198.15 567.3 198.14 567.33 198.13 567.35 198.13 567.39 198.13 567.41 198.14 567.42 198.14 567.44 198.15 567.46 198.17 567.48 198.19 567.5 198.22 567.52 198.26 567.56 198.34 567.58 198.36 567.59 198.37 567.6 198.38 567.63 198.39 567.65 198.4 567.66 198.4 567.68 198.4 567.7 198.4 567.71 198.4 567.73 198.38 567.76 198.37 567.82 198.33 567.86 198.28 567.91 198.22 567.94 198.17 567.96 198.09 567.99 198.05 568 198.04 568.02 198.05 568.05 198.05 568.07 198.07 568.11 198.12 568.2 198.15 568.26 198.15 568.36 198.13 568.42 198.13 568.43 198.13 568.47 198.14 568.51 198.15 568.54 198.16 568.58 198.18 568.62 198.2 568.66 198.24 568.68 198.28 568.75 198.45 568.78 198.53 568.82 198.61 568.88 198.68 568.95 198.73 569 198.75 569.06 198.76 569.11 198.76 569.21 198.74 569.27 198.72 569.3 198.7 569.32 198.68 569.34 198.65 569.35 198.59 569.37 198.52 569.38 198.5 569.41 198.5 569.44 198.49 569.5 198.5 569.68 198.5 569.8 198.49 569.86 198.45 569.89 198.42 569.92 198.37 569.95 198.31 569.98 198.26 570 198.23 570.03 198.21 570.06 198.2 570.08 198.2 570.11 198.21 570.13 198.22 570.15 198.24 570.21 198.31 570.3 198.39 570.37 198.46 570.41 198.49 570.45 198.51 570.49 198.52 570.54 198.51 570.57 198.5 570.61 198.48 570.64 198.46 570.66 198.44 570.66 198.41 570.67 198.36 570.68 198.31 570.71 198.27 570.73 198.25 570.76 198.23 570.79 198.22 570.82 198.21 570.85 198.21 570.92 198.22 570.96 198.21 571.04 198.19 571.11 198.18 571.16 198.15 571.19 198.13 571.23 198.11 571.29 198.06 571.33 198.05 571.36 198.04 571.38 198.02 571.4 198.01 571.43 198 571.47 197.99 571.55 197.98 571.6 197.97 571.61 197.96 571.62 197.94 571.63 197.91 571.65 197.88 571.7 197.8 571.72 197.77 571.73 197.76 571.74 197.75 571.75 197.73 571.76 197.71 571.78 197.67 571.81 197.63 571.81 197.62 571.85 197.58 571.89 197.52 571.93 197.48 571.95 197.45 571.98 197.43 571.99 197.42 572 197.41 572.01 197.41 572.02 197.4 572.03 197.39 572.05 197.38 572.06 197.35 572.09 197.31 572.11 197.28 572.13 197.23 572.14 197.18 572.19 197 572.2 196.94 572.25 196.85 572.29 196.78 572.32 196.7 572.34 196.64 572.38 196.47 572.41 196.32 572.42 196.23 572.45 196.08 572.49 195.99 572.52 195.93 572.56 195.89 572.6 195.82 572.64 195.76 572.65 195.73 572.66 195.71 572.66 195.7 572.67 195.65 572.68 195.58 572.7 195.45 572.73 195.4 572.74 195.38 572.76 195.37 572.79 195.35 572.8 195.34 572.82 195.31 572.82 195.29 572.82 195.24 572.82 195.17 572.83 195.14 572.84 195.11 572.87 195.09 572.89 195.08 572.91 195.08 572.94 195.08 572.97 195.09 572.99 195.11 573.02 195.13 573.07 195.14 573.1 195.13 573.13 195.12 573.15 195.1 573.2 194.99 573.26 194.9 573.28 194.89 573.34 194.88 573.41 194.86 573.45 194.87 573.48 194.87 573.49 194.86 573.5 194.86 573.52 194.86 573.85 195.35 573.92 195.46 573.99 195.56 574.05 195.65 574.13 195.77 574.19 195.86 574.28 195.99 574.44 196.23 574.52 196.34 574.69 196.6 574.79 196.75 574.89 196.89 574.91 196.92 575 197.06 575.1 197.2 575.26 197.44 575.49 197.51 575.71 197.58 575.93 197.64 576.08 197.68 576.21 197.72 576.31 197.75 576.42 197.78 576.48 197.8 576.59 197.83 576.67 197.85 576.73 197.87 576.82 197.9 576.88 197.92 576.9 197.92 576.91 197.92 577.01 197.94 577.16 197.97 577.2 197.97 577.37 198 577.55 198.03 577.73 198.06 577.91 198.09 578.08 198.12 578.22 198.14 578.31 198.15 578.47 198.21 578.72 198.28 579.03 198.38 579.28 198.46 579.48 198.52 579.57 198.55 579.74 198.6 579.96 198.67 580.19 198.74 580.43 198.81 580.6 198.86 580.81 198.91 581.04 198.97 581.35 199.04 581.56 199.1 581.7 199.13 581.89 199.19 582.09 199.26 582.24 199.3 582.36 199.33 582.46 199.36 582.66 199.4 582.83 199.45 583.02 199.49 583.22 199.54 583.43 199.59 583.65 199.64 583.93 199.71 584.09 199.74 584.27 199.79 584.4 199.82 584.54 199.86 584.73 199.91 584.93 199.97 585.13 200.03 585.34 200.09 585.56 200.16 585.76 200.22 585.87 200.25 585.97 200.27 586.18 200.32 586.36 200.35 586.53 200.39 586.66 200.42 586.85 200.48 586.94 200.51 587.1 200.55 587.24 200.6 587.44 200.65 587.61 200.7 587.78 200.75 587.94 200.8 588.1 200.84 588.19 200.87 588.33 200.91 588.48 200.95 588.65 201 588.82 201.05 588.98 201.1 589.02 201.11 589.04 201.11 589.09 201.13 589.28 201.18 589.36 201.2 589.42 201.22 589.63 201.3 589.83 201.39 590 201.46 590.14 201.52 590.35 201.6 590.54 201.68 590.79 201.78 590.92 201.83 591.06 201.89 591.25 201.91 591.35 201.93 591.53 201.96 591.62 201.97 591.68 201.98 591.84 202.01 591.99 202.03 592.12 202.06 592.21 202.08 592.3 202.09 592.39 202.09 592.51 202.11 592.65 202.13 592.81 202.16 592.93 202.18 593.07 202.2 593.23 202.22 593.41 202.26 593.57 202.28 593.68 202.3 593.82 202.34 593.95 202.37 594.09 202.41 594.24 202.45 594.38 202.48 594.54 202.53 594.71 202.57 594.84 202.61 595 202.65 595.13 202.69 595.31 202.73 595.52 202.79 595.73 202.84 595.87 202.88 596 202.92 596.14 202.95 596.36 203.01 596.45 203.03 596.49 203.04 Z"/>
</g></svg>