<svg version="1.2" stroke-linecap="round" stroke-linejoin="round" id="svg14" sodipodi:docname="Erronkari.svg" inkscape:version="1.1.2 (b8e25be833, 2022-02-05)" xmlns:inkscape="http://www.inkscape.org/namespaces/inkscape" xmlns:sodipodi="http://sodipodi.sourceforge.net/DTD/sodipodi-0.dtd" xmlns="http://www.w3.org/2000/svg" xmlns:svg="http://www.w3.org/2000/svg" viewBox="176.03 12.95 528.38 595.68">
  <defs id="defs18"/>
  <sodipodi:namedview id="namedview16" pagecolor="#ffffff" bordercolor="#666666" borderopacity="1.0" inkscape:pageshadow="2" inkscape:pageopacity="0.0" inkscape:pagecheckerboard="0" showgrid="false" inkscape:zoom="1.3146417" inkscape:cx="399.72867" inkscape:cy="279.54384" inkscape:window-width="1848" inkscape:window-height="1016" inkscape:window-x="72" inkscape:window-y="1107" inkscape:window-maximized="1" inkscape:current-layer="svg14"/>
  <g id="Erronkari" transform="matrix(14.319137,0,0,14.319137,-9928.7368,-3775.8923)">
    <path d="m 742.17,280.59 -0.04,0.14 -0.04,0.15 -0.04,0.05 -0.08,0.15 -0.14,0.21 -0.07,0.13 -0.22,0.03 -0.2,0.04 -0.12,0.01 -0.43,0.08 -0.35,0.05 -0.12,0.02 -0.24,0.03 -0.03,0.01 -0.23,0.04 -0.17,0.03 -0.08,-0.01 0.08,-0.04 0.09,-0.05 0.05,-0.02 0.03,-0.03 0.03,-0.03 0.02,-0.01 0.03,0.01 0.05,-0.03 0.04,-0.03 0.1,-0.11 0.05,-0.06 0.02,-0.07 v -0.06 l -0.03,-0.1 v -0.08 l 0.02,-0.08 0.03,-0.08 0.03,-0.07 0.01,-0.09 v -0.09 l 0.02,-0.07 0.02,-0.03 0.03,-0.06 0.03,-0.05 0.03,-0.04 0.04,-0.03 0.05,-0.04 0.02,-0.08 0.02,-0.06 0.01,-0.05 0.02,-0.08 -0.01,-0.11 0.01,-0.08 0.01,-0.05 0.03,-0.04 0.05,-0.08 0.04,-0.06 0.03,-0.03 0.01,-0.01 0.03,-0.03 0.04,-0.02 0.04,-0.02 0.05,-0.02 0.05,-0.04 0.05,-0.02 0.04,-0.04 0.03,-0.03 0.01,-0.02 -0.02,-0.02 -0.04,-0.02 -0.04,-0.03 -0.04,-0.02 -0.01,-0.05 -0.02,-0.03 -0.02,-0.08 -0.03,-0.09 -0.05,-0.11 -0.05,-0.14 -0.03,-0.1 -0.04,-0.1 -0.04,-0.1 -0.03,-0.1 -0.03,-0.08 -0.04,-0.11 -0.04,-0.1 -0.02,-0.06 -0.1,-0.03 -0.09,-0.04 -0.08,-0.03 -0.1,-0.04 -0.03,-0.01 -0.08,-0.03 -0.11,-0.04 -0.1,-0.04 -0.09,-0.03 -0.08,-0.03 0.22,0.03 0.25,0.04 0.04,0.01 0.19,0.03 0.08,0.01 0.27,0.04 0.31,0.05 0.53,0.08 0.27,0.04 0.09,0.02 0.12,0.02 0.26,0.03 0.05,0.01 0.09,0.18 v 0.02 l 0.13,0.28 0.11,0.23 -0.06,0.22 -0.06,0.26 -0.04,0.2 -0.02,0.08 -0.07,0.31 -0.06,0.26 -0.02,0.08 -0.01,0.05 z m -32.18,-15.98 0.1,0.04 0.14,0.04 0.14,0.04 0.12,0.03 0.12,0.04 0.18,0.05 0.15,0.01 h 0.15 0.16 l 0.16,0.01 h 0.02 l 0.15,0.01 h 0.18 0.09 l 0.11,-0.02 0.16,-0.02 0.14,-0.03 0.17,-0.02 -0.04,0.08 -0.05,0.11 -0.05,0.1 -0.02,0.06 -0.02,0.04 -0.01,0.02 -0.04,0.09 -0.03,0.08 -0.03,0.07 0.04,0.08 0.01,0.01 v 0.01 l 0.07,0.16 0.07,0.15 0.08,0.17 0.06,0.14 0.06,0.13 0.04,0.09 -0.06,0.11 -0.06,0.09 -0.05,0.08 -0.06,0.09 -0.02,0.05 -0.05,0.1 -0.06,0.14 -0.05,0.12 -0.05,0.12 -0.07,0.16 -0.07,0.2 -0.06,0.16 -0.05,0.17 -0.06,0.18 -0.06,0.19 -0.03,0.08 -0.05,0.11 -0.05,0.13 -0.13,0.31 -0.06,0.13 -0.05,0.12 -0.05,0.12 -0.09,0.1 -0.02,0.05 -0.04,0.08 -0.04,0.07 -0.03,0.08 -0.04,0.08 -0.04,0.07 -0.03,0.08 -0.04,0.09 -0.03,0.09 -0.09,0.23 -0.03,0.12 -0.06,0.23 0.01,0.11 v 0.04 0.01 0.02 0.05 l 0.01,0.15 0.01,0.15 0.01,0.14 0.01,0.16 v 0.13 l 0.01,0.12 0.01,0.12 v 0.1 l -0.01,0.11 -0.05,0.26 -0.03,0.17 -0.01,0.1 -0.01,0.02 v 0.02 l -0.02,0.14 -0.07,0.34 v 0.02 0.05 l -0.01,0.11 -0.01,0.09 -0.01,0.03 v 0.06 l -0.01,0.08 0.01,0.08 0.03,0.16 v 0.03 l 0.02,0.13 0.06,0.23 0.08,0.29 -0.03,0.33 v 0.03 l -0.02,0.22 v 0.12 l -0.02,0.23 0.2,0.55 0.06,0.17 -0.02,0.05 -0.03,0.06 -0.13,0.29 -0.07,0.15 -0.06,0.12 -0.03,0.08 -0.05,0.09 -0.11,0.27 0.02,0.01 0.34,0.09 0.3,0.08 0.05,0.01 h 0.05 l 0.03,0.01 0.11,0.02 0.2,0.01 0.07,0.01 0.07,0.01 0.07,0.03 0.04,0.02 0.01,0.01 0.13,0.18 0.01,0.01 0.03,0.04 0.06,0.03 0.05,0.01 h 0.02 0.02 0.02 l 0.14,0.01 h 0.05 l 0.18,0.01 0.21,0.01 0.06,0.01 h 0.05 l 0.24,0.16 0.09,0.05 0.12,0.02 0.03,0.01 0.22,0.02 0.27,0.05 0.25,0.03 0.02,0.12 0.03,0.12 0.03,0.09 0.05,0.14 0.04,0.07 0.06,0.05 0.06,0.04 0.09,0.04 0.11,0.04 0.11,0.04 0.06,0.02 0.11,0.05 0.31,0.11 0.09,0.04 -0.19,0.27 -0.15,0.23 0.08,0.07 0.19,0.16 0.01,0.01 0.06,0.05 0.28,0.24 0.15,0.15 0.16,0.14 0.07,0.07 0.12,0.11 0.18,0.1 0.04,0.02 0.09,0.05 0.22,0.13 0.07,0.06 0.23,0.24 0.17,0.3 0.14,0.06 0.17,0.08 0.23,0.1 0.26,0.15 0.01,0.01 0.02,0.01 h 0.02 0.03 0.03 l 0.04,0.01 h 0.04 l 0.09,0.01 -0.02,0.06 -0.03,0.16 -0.01,0.11 0.02,0.06 0.06,0.09 0.03,0.07 0.01,0.07 -0.03,0.15 -0.06,0.21 -0.01,0.03 -0.06,0.21 -0.06,0.15 -0.04,0.08 -0.01,0.02 -0.08,0.11 -0.07,0.13 -0.08,0.12 -0.09,0.1 0.01,0.05 v 0.01 l 0.02,0.05 0.04,0.03 0.15,0.04 0.06,-0.01 0.01,-0.01 0.05,-0.05 0.15,-0.14 0.04,-0.03 0.18,-0.18 0.12,-0.11 0.1,-0.09 0.03,-0.04 0.12,-0.11 0.01,-0.01 0.09,-0.09 0.1,-0.08 0.06,-0.06 0.11,-0.11 0.11,-0.05 0.01,-0.01 0.16,-0.08 0.16,-0.09 0.03,-0.02 0.08,-0.04 0.17,-0.03 0.03,-0.01 0.12,-0.02 0.1,-0.02 0.05,-0.01 0.25,-0.05 0.19,-0.04 0.18,-0.03 0.13,-0.01 0.16,-0.04 0.17,-0.03 0.03,-0.01 0.02,-0.01 0.19,-0.03 0.11,-0.03 0.15,-0.13 0.22,-0.19 0.13,-0.05 0.04,-0.02 0.15,-0.05 0.15,-0.05 0.09,-0.03 0.03,-0.01 0.33,-0.11 0.06,-0.02 0.09,-0.03 0.1,-0.04 0.29,-0.02 h 0.02 l 0.06,-0.01 0.25,-0.02 0.17,-0.01 0.36,0.2 0.05,0.03 h 0.01 l 0.25,0.15 0.34,0.2 0.02,-0.08 0.36,0.08 0.29,0.06 0.03,-0.02 0.05,-0.04 0.03,-0.04 0.02,-0.02 0.06,-0.07 0.01,-0.01 0.09,-0.1 0.07,-0.07 0.08,-0.09 0.06,-0.07 0.02,-0.03 0.05,-0.06 0.1,-0.01 0.18,-0.01 0.14,0.04 0.21,0.05 0.2,0.06 0.01,0.06 v 0.02 0.04 l 0.02,0.15 0.02,0.11 0.01,0.09 0.05,0.05 0.02,0.02 0.14,0.18 0.03,0.03 0.1,0.03 0.02,0.01 0.18,0.05 0.46,0.14 h 0.02 l 0.18,0.06 0.04,0.01 0.08,0.02 0.11,-0.01 0.01,-0.01 0.35,-0.04 h 0.03 l 0.2,-0.02 v -0.18 l -0.01,-0.15 0.02,-0.1 0.01,-0.03 0.01,-0.03 0.04,-0.23 0.04,-0.16 0.04,-0.09 0.07,-0.12 0.01,-0.01 0.02,-0.04 0.06,-0.11 0.37,-0.05 0.24,-0.02 0.19,0.03 0.25,0.03 h 0.14 0.17 l 0.17,-0.01 0.02,-0.01 0.23,-0.02 0.38,-0.05 h 0.05 l 0.35,-0.04 0.1,-0.01 0.25,-0.04 h 0.03 l 0.24,-0.03 0.47,-0.05 0.06,-0.01 0.19,-0.02 h 0.15 0.01 0.01 l 0.03,0.03 0.04,0.03 0.04,0.02 0.05,0.02 0.05,0.03 0.06,0.03 0.07,0.01 0.07,0.02 0.08,0.01 0.05,0.01 0.06,0.01 0.09,0.05 h 0.06 l 0.07,-0.01 0.07,-0.01 0.06,0.02 0.06,0.02 0.06,0.03 0.05,0.03 0.02,0.03 0.03,0.04 0.02,0.05 0.03,0.03 0.03,0.03 0.05,0.03 0.07,0.04 0.09,0.06 0.07,0.06 0.04,0.04 0.04,0.05 0.04,0.04 0.04,0.04 0.06,0.04 0.05,0.02 0.03,0.01 h 0.06 l 0.08,-0.01 0.05,-0.01 0.05,0.01 0.08,0.01 0.1,0.03 0.09,0.03 0.09,0.03 0.06,0.01 h 0.07 l 0.1,-0.01 0.07,-0.01 0.06,0.01 0.05,0.02 0.02,0.03 0.02,0.03 v 0.07 0.06 l 0.01,0.05 0.03,0.07 0.03,0.05 0.03,0.05 0.03,0.03 0.05,0.01 0.14,0.01 h 0.09 l 0.12,0.01 0.07,-0.01 0.05,0.01 0.06,0.04 0.04,0.03 0.07,0.09 0.08,0.12 0.09,0.12 -0.01,0.01 -0.01,0.01 -0.03,0.06 -0.02,0.04 v 0.01 l -0.01,0.01 -0.01,0.02 -0.05,0.02 -0.05,0.04 -0.06,0.04 -0.04,0.03 -0.04,0.02 -0.06,0.04 -0.06,0.04 -0.06,0.05 -0.14,0.08 -0.08,0.05 -0.06,0.04 -0.03,0.03 -0.04,0.02 -0.07,0.05 -0.05,0.03 -0.06,0.04 -0.1,0.07 -0.04,0.09 -0.04,0.09 -0.04,0.1 -0.04,0.11 -0.02,0.04 -0.01,0.04 -0.05,0.12 -0.03,0.08 -0.02,0.05 -0.01,0.01 v 0.01 0.01 l -0.01,0.02 -0.01,0.05 -0.01,0.09 -0.01,0.04 v 0.03 l -0.07,0.05 -0.04,0.04 -0.15,0.11 -0.1,0.07 -0.12,0.1 -0.1,0.08 -0.12,0.09 -0.16,0.13 -0.13,0.1 -0.15,0.11 -0.15,0.13 -0.07,0.05 -0.06,0.05 -0.11,0.09 -0.11,0.09 -0.03,0.02 -0.01,0.02 -0.02,0.01 -0.04,0.02 -0.06,0.04 -0.06,0.04 -0.08,0.05 -0.06,0.04 -0.05,0.03 -0.04,0.01 -0.05,0.02 -0.05,0.03 -0.05,0.02 -0.05,0.02 -0.04,0.01 -0.01,0.01 h -0.01 -0.02 l -0.04,0.05 -0.09,0.11 -0.07,0.07 -0.12,0.01 -0.05,0.01 h -0.03 l -0.03,0.01 -0.08,0.01 h -0.05 l -0.12,0.02 h -0.03 l -0.1,0.01 -0.14,0.02 -0.12,0.02 -0.09,0.01 h -0.08 l -0.1,-0.01 -0.09,-0.02 h -0.1 l -0.13,-0.01 h -0.09 l -0.07,-0.01 -0.04,-0.01 -0.08,0.02 -0.08,0.01 -0.12,0.02 -0.1,0.01 -0.08,0.02 -0.14,0.01 h -0.04 l -0.03,0.01 -0.02,0.01 -0.04,0.04 -0.05,0.06 -0.05,0.04 -0.03,0.03 -0.06,0.06 -0.05,0.06 -0.06,0.05 -0.04,0.04 -0.06,0.06 -0.05,0.05 -0.04,0.05 -0.02,0.02 -0.03,0.01 -0.03,0.01 -0.05,0.02 h -0.04 -0.04 -0.05 -0.05 -0.06 l -0.06,-0.01 -0.05,-0.01 -0.06,-0.02 -0.05,-0.02 -0.04,-0.01 -0.08,0.02 -0.03,0.02 -0.01,0.01 -0.01,0.02 -0.02,0.03 -0.02,0.03 v 0.01 l -0.02,0.03 -0.04,0.08 -0.04,0.07 -0.04,0.07 -0.01,0.02 v 0.02 0.04 0.05 l 0.01,0.05 0.01,0.08 v 0.06 0.04 l -0.02,0.02 -0.06,0.02 -0.07,0.04 -0.05,0.03 -0.05,0.02 -0.03,0.02 -0.05,0.02 -0.05,0.02 -0.06,0.04 -0.05,0.03 -0.03,0.02 -0.03,0.02 -0.02,0.02 -0.01,0.01 -0.04,0.04 -0.04,0.04 -0.04,0.04 -0.05,0.06 -0.05,0.06 -0.05,0.06 -0.05,0.05 -0.01,0.01 -0.08,0.08 -0.04,0.04 -0.02,0.02 -0.03,0.02 -0.02,0.02 -0.01,0.03 -0.02,0.02 v 0.01 0.01 l -0.01,0.01 v 0.03 l 0.01,0.04 v 0.03 l -0.02,0.06 -0.02,0.06 -0.01,0.02 -0.01,0.04 -0.02,0.06 -0.02,0.04 -0.01,0.04 -0.03,-0.01 -0.06,-0.01 -0.07,-0.01 -0.07,-0.01 h -0.05 l -0.02,0.01 -0.03,0.01 -0.04,0.02 -0.05,0.02 -0.04,0.01 -0.05,0.02 -0.06,0.03 -0.05,0.01 -0.06,0.03 -0.04,0.01 -0.05,0.02 -0.03,0.01 -0.04,0.03 -0.02,0.01 -0.01,0.01 -0.03,0.03 -0.04,0.03 -0.03,0.02 -0.06,0.04 -0.04,0.05 -0.05,0.03 -0.04,0.04 -0.03,0.03 -0.05,0.04 -0.04,0.04 -0.03,0.02 -0.04,0.04 -0.07,0.05 -0.05,0.03 -0.04,0.04 -0.05,0.04 -0.05,0.03 -0.04,0.03 -0.05,0.04 -0.02,0.01 -0.02,0.01 -0.01,0.01 -0.03,0.01 -0.03,0.02 -0.04,0.01 -0.05,0.02 -0.05,0.01 -0.04,0.01 -0.05,0.02 -0.06,0.01 -0.06,0.01 h -0.01 l -0.04,0.01 -0.06,0.02 -0.04,0.02 -0.06,0.01 -0.05,0.02 -0.04,0.01 -0.06,0.02 -0.04,0.02 -0.04,0.02 -0.04,0.02 -0.03,0.02 -0.03,0.01 -0.03,0.03 -0.02,0.02 -0.02,0.02 -0.01,0.01 -0.05,0.05 -0.04,0.05 -0.03,0.03 -0.03,0.04 -0.02,0.03 -0.02,0.03 -0.03,0.05 -0.03,0.04 -0.01,0.02 -0.02,0.03 -0.02,0.04 -0.02,0.05 -0.02,0.04 -0.01,0.02 -0.01,0.01 -0.01,0.04 -0.01,0.03 -0.02,0.06 -0.02,0.03 -0.01,0.04 -0.01,0.03 v 0 l -0.01,0.06 -0.02,0.04 v 0.04 l -0.02,0.08 -0.01,0.06 v 0.05 l -0.01,0.02 v 0.02 l -0.01,0.03 -0.02,-0.01 -0.02,-0.02 -0.03,-0.04 -0.05,-0.04 -0.05,-0.06 -0.06,-0.06 -0.06,-0.06 -0.03,-0.04 -0.04,-0.03 -0.03,-0.03 -0.03,-0.02 -0.02,-0.02 h -0.02 l -0.02,0.01 -0.01,0.01 -0.01,0.01 -0.01,0.01 v 0.02 0.02 l 0.01,0.03 v 0.03 l -0.01,0.02 -0.02,0.04 -0.02,0.03 -0.03,0.05 -0.03,0.06 -0.02,0.05 -0.02,0.04 -0.01,0.04 -0.01,0.04 -0.01,0.04 -0.01,0.03 -0.01,0.03 -0.01,0.02 -0.02,0.03 -0.02,0.03 -0.03,0.03 -0.03,0.01 -0.01,-0.01 -0.04,-0.02 -0.04,-0.01 -0.07,-0.02 -0.01,-0.01 h -0.02 -0.01 l -0.03,-0.01 h -0.02 l -0.08,-0.03 h -0.01 l -0.02,-0.01 -0.04,-0.02 -0.02,-0.01 -0.05,-0.03 -0.07,-0.03 -0.08,-0.03 -0.06,-0.02 -0.04,-0.02 -0.07,-0.02 -0.05,-0.01 -0.09,-0.03 -0.09,-0.03 -0.03,-0.01 h -0.02 l -0.03,-0.02 -0.1,-0.03 -0.1,-0.05 -0.09,-0.04 -0.08,-0.02 -0.06,-0.03 -0.06,-0.02 -0.04,-0.02 -0.04,-0.01 -0.07,-0.02 -0.07,-0.02 -0.08,-0.02 -0.03,-0.01 -0.02,-0.01 -0.06,-0.02 -0.05,-0.02 -0.05,-0.03 -0.05,-0.04 -0.04,-0.05 -0.07,-0.05 -0.06,-0.03 -0.06,-0.03 v 0.04 l -0.01,0.04 -0.02,0.08 -0.01,0.05 -0.01,0.03 -0.01,0.05 -0.02,0.07 -0.01,0.07 -0.03,0.08 -0.01,0.06 -0.02,0.08 -0.02,0.09 v 0.06 l -0.01,0.06 -0.02,0.07 v 0.04 0.01 l -0.02,0.04 -0.01,0.05 -0.03,0.07 -0.01,0.05 -0.01,0.03 -0.03,0.09 -0.03,0.11 -0.03,0.09 -0.04,0.11 -0.03,0.09 -0.02,0.04 -0.01,0.02 -0.01,0.02 -0.04,-0.03 -0.07,-0.03 -0.07,-0.03 -0.07,-0.03 -0.06,-0.02 -0.07,-0.01 -0.05,-0.01 -0.07,-0.02 -0.07,-0.01 -0.07,-0.01 h -0.06 -0.03 l -0.04,0.01 h -0.05 l -0.05,0.01 h -0.03 l -0.05,-0.01 -0.05,-0.01 -0.07,-0.01 -0.08,-0.01 v 0.01 l -0.02,0.03 -0.01,0.03 -0.02,0.05 v 0 l -0.02,0.06 -0.01,0.02 -0.03,0.06 -0.05,0.11 -0.03,0.08 -0.01,0.02 -0.04,0.09 -0.02,0.06 0.01,0.03 v 0.05 0.01 0.04 0.05 0.11 l 0.01,0.07 v 0.01 0.03 0.1 0.04 0.01 l -0.01,0.07 v 0.07 0.02 l -0.01,0.02 v 0.04 l -0.01,0.06 -0.02,0.08 -0.01,0.07 -0.01,0.07 v 0.01 l -0.01,0.03 -0.01,0.03 -0.01,0.06 -0.02,0.06 -0.02,0.05 -0.02,0.05 -0.03,0.06 v 0.01 l -0.02,0.03 -0.02,0.03 0.01,0.02 0.03,0.07 0.03,0.06 0.03,0.05 0.02,0.06 0.02,0.04 0.01,0.02 0.01,0.04 0.04,0.07 0.03,0.07 0.04,0.07 0.04,0.07 0.03,0.05 0.03,0.06 0.04,0.07 0.02,0.04 0.03,0.07 0.03,0.05 0.02,0.03 0.01,0.03 -0.02,0.06 -0.02,0.06 -0.03,0.08 -0.02,0.08 -0.01,0.08 v 0.01 0.02 0.03 l -0.01,0.07 -0.01,0.07 v 0.01 l -0.01,0.04 -0.01,0.06 -0.01,0.04 -0.01,0.08 v 0.05 l -0.01,0.04 0.01,0.04 0.01,0.01 0.01,0.04 0.03,0.09 0.03,0.07 0.02,0.08 0.02,0.05 v 0.01 l 0.03,0.06 v 0.01 l 0.01,0.02 0.02,0.04 0.01,0.03 0.02,0.05 0.03,0.08 0.04,0.08 0.03,0.07 0.02,0.05 0.02,0.07 0.02,0.07 -0.03,0.04 -0.01,0.01 -0.03,0.03 -0.04,0.04 -0.05,0.06 -0.06,0.06 -0.03,0.04 -0.04,0.05 -0.02,0.04 -0.02,0.03 -0.01,0.02 v 0.02 0 l 0.02,0.04 0.02,0.04 0.02,0.04 0.03,0.06 0.04,0.05 0.05,0.06 0.08,0.07 0.07,0.07 0.06,0.06 0.08,0.06 0.03,0.02 v 0 l 0.01,0.01 0.06,0.03 0.07,0.05 0.04,0.03 -0.03,0.04 -0.04,0.07 -0.04,0.05 -0.03,0.05 -0.03,0.06 -0.02,0.05 -0.02,0.05 -0.02,0.05 v 0.02 l -0.01,0.05 -0.03,0.06 -0.02,0.06 v 0.01 l -0.02,0.06 -0.02,0.07 -0.05,0.12 -0.02,0.05 v 0.02 l -0.03,0.06 -0.01,0.04 -0.03,0.05 -0.02,0.06 -0.03,0.06 -0.02,0.06 -0.03,0.05 v 0.01 l -0.02,0.06 -0.02,0.07 -0.02,0.06 -0.01,0.05 v 0.03 l -0.01,0.04 v 0.06 l -0.02,0.07 -0.01,0.08 v 0.05 l -0.01,0.05 0.01,0.09 v 0.01 0.07 0.05 0.03 0.08 l -0.01,0.03 v 0.02 0.05 l -0.02,0.05 -0.02,0.07 -0.01,0.04 -0.01,0.04 -0.02,0.07 -0.01,0.09 -0.01,0.06 v 0.02 0.02 0.04 l -0.01,0.06 -0.01,0.08 v 0.06 l -0.01,0.06 v 0.03 0.04 l -0.01,0.09 v 0.06 l -0.01,0.07 v 0.09 l 0.01,0.07 0.01,0.04 0.01,0.05 0.02,0.09 0.03,0.08 0.02,0.08 0.02,0.07 0.01,0.02 0.01,0.05 0.02,0.09 0.01,0.02 v 0.03 l 0.02,0.08 0.01,0.09 0.01,0.08 0.01,0.08 v 0.01 l 0.01,0.05 0.01,0.07 0.01,0.07 0.02,0.07 v 0.06 l 0.01,0.06 0.01,0.06 0.01,0.05 0.01,0.05 v 0.01 l 0.01,0.06 v 0.05 l 0.02,0.06 0.01,0.06 0.02,0.06 0.02,0.06 0.02,0.08 0.01,0.1 0.01,0.05 v 0.02 0.03 0.03 0.04 0.06 0.02 0.03 l -0.01,0.05 -0.01,0.06 -0.01,0.08 -0.01,0.07 -0.01,0.08 -0.02,0.09 -0.02,0.13 -0.03,0.11 -0.01,0.05 -0.02,0.12 -0.03,0.1 -0.02,0.08 -0.01,0.06 -0.01,-0.02 -0.06,-0.05 -0.02,-0.02 -0.02,-0.02 -0.54,-0.57 -0.06,-0.01 -0.49,-0.05 -0.4,-0.21 -0.12,-0.07 -0.32,-0.17 -0.22,-0.12 -0.06,-0.01 -0.11,-0.02 -0.05,-0.01 -0.07,-0.02 -0.08,-0.02 -0.21,-0.04 -0.1,-0.01 -0.04,-0.01 -0.05,-0.01 -0.07,-0.01 -0.05,-0.01 -0.01,-0.01 h -0.05 l -0.33,-0.03 -0.42,0.14 -0.09,0.03 -0.77,-0.15 h -0.48 -0.15 l -0.22,-0.01 h -0.39 -0.02 v -0.04 -0.01 -0.02 -0.02 -0.01 l 0.01,-0.01 v -0.01 l 0.01,-0.02 h -0.02 l -0.07,-0.03 h -0.02 -0.04 l -0.06,0.01 h -0.03 -0.02 -0.02 l -0.01,-0.01 h -0.01 v -0.01 l -0.01,-0.01 -0.03,-0.06 -0.02,-0.04 -0.01,-0.03 -0.02,-0.03 -0.01,-0.02 -0.01,-0.02 -0.01,-0.01 v -0.01 l -0.01,-0.01 -0.01,-0.01 -0.01,-0.01 -0.02,-0.01 -0.02,-0.01 -0.01,-0.01 h -0.01 l -0.01,-0.01 v -0.01 l -0.02,-0.04 -0.03,-0.08 -0.01,-0.03 -0.01,-0.03 -0.02,-0.05 -0.01,-0.04 -0.02,-0.05 -0.01,-0.02 -0.01,-0.02 -0.01,-0.02 -0.01,-0.01 -0.02,-0.02 -0.01,-0.01 -0.02,-0.02 -0.02,-0.01 -0.04,-0.03 -0.03,-0.02 -0.03,-0.01 -0.03,-0.02 -0.04,-0.01 -0.03,-0.01 h -0.02 -0.01 -0.01 -0.01 -0.02 l -0.04,0.02 h -0.03 l -0.01,0.01 h -0.02 -0.01 -0.01 -0.02 -0.02 l -0.02,-0.02 h -0.02 l -0.01,-0.01 h -0.01 l -0.02,-0.01 h -0.01 -0.01 -0.03 l -0.03,0.01 h -0.02 -0.02 -0.05 -0.02 -0.02 -0.02 -0.03 l -0.02,0.01 h -0.02 -0.01 -0.02 -0.01 -0.02 -0.01 l -0.02,-0.01 -0.02,-0.01 -0.02,-0.02 -0.02,-0.01 -0.02,-0.01 h -0.01 l -0.01,-0.01 h -0.02 -0.01 l -0.01,-0.01 h -0.01 v -0.01 l -0.02,-0.03 -0.01,-0.01 -0.01,-0.01 h -0.01 l -0.01,-0.01 h -0.01 -0.02 -0.01 -0.02 -0.01 l -0.02,0.01 -0.04,0.01 -0.03,0.01 -0.04,0.01 h -0.01 -0.02 -0.01 l -0.01,-0.01 h -0.02 l -0.02,-0.01 -0.01,-0.01 h -0.02 l -0.03,-0.02 -0.02,-0.01 -0.02,-0.01 -0.03,-0.03 -0.03,-0.01 -0.03,-0.02 -0.03,-0.02 -0.02,-0.01 -0.03,-0.02 v 0 h -0.02 -0.01 -0.02 -0.01 -0.02 -0.02 l -0.02,0.01 h -0.01 -0.06 -0.03 l -0.02,0.01 h -0.03 l -0.05,0.01 -0.02,0.01 h -0.02 l -0.03,0.01 -0.04,0.01 -0.01,0.01 h -0.02 -0.01 -0.01 L 711,303.43 h -0.01 -0.02 -0.01 l -0.01,-0.01 -0.02,-0.01 h -0.01 l -0.01,-0.01 -0.02,-0.01 -0.02,-0.01 -0.02,-0.01 h -0.04 l -0.04,-0.02 h -0.02 l -0.03,-0.01 -0.02,-0.01 h -0.03 l -0.03,-0.02 -0.02,-0.01 h -0.02 l -0.01,-0.01 -0.02,-0.01 -0.01,-0.01 h -0.02 l -0.02,-0.01 -0.02,-0.01 h -0.01 l -0.02,-0.01 h -0.02 l -0.01,-0.01 h -0.02 -0.01 -0.02 -0.02 -0.03 -0.03 -0.02 -0.02 -0.04 -0.03 l -0.02,0.01 h -0.03 -0.02 -0.01 l -0.01,-0.01 h -0.01 -0.02 l -0.03,-0.01 h -0.02 -0.03 -0.02 -0.02 l -0.04,0.01 h -0.01 -0.01 l -0.03,-0.01 -0.04,-0.01 h -0.05 l -0.04,-0.01 -0.02,-0.01 h -0.02 -0.02 l -0.02,-0.01 h -0.02 l -0.02,-0.01 h -0.03 -0.03 l -0.04,-0.01 h -0.03 l -0.03,-0.01 -0.03,-0.01 -0.04,-0.01 -0.06,-0.01 h -0.02 l -0.03,-0.01 h -0.02 l -0.05,-0.01 h -0.03 -0.03 l -0.03,-0.01 h -0.01 -0.02 -0.02 -0.02 l -0.03,0.01 H 709 l -0.03,0.01 -0.04,0.01 -0.02,0.01 h -0.01 -0.01 -0.01 -0.02 -0.02 -0.02 l -0.02,-0.01 -0.04,-0.01 -0.02,-0.01 h -0.02 -0.02 l -0.02,-0.01 h -0.02 -0.02 -0.03 l -0.02,-0.01 h -0.04 l -0.05,0.01 -0.05,-0.01 h -0.04 l -0.03,0.01 h -0.04 -0.02 -0.02 v 0 h -0.01 l -0.02,-0.01 h -0.01 v -0.01 l -0.01,-0.01 -0.01,-0.01 -0.02,-0.02 -0.01,-0.02 -0.02,-0.02 -0.02,-0.02 -0.01,-0.03 -0.02,-0.02 -0.02,-0.03 -0.02,-0.02 -0.01,-0.02 -0.01,-0.02 -0.01,-0.03 -0.03,-0.05 -0.01,-0.04 -0.01,-0.02 -0.01,-0.03 -0.01,-0.02 v -0.04 l -0.01,-0.01 v -0.02 l -0.01,-0.01 -0.01,-0.01 v -0.02 l -0.01,-0.01 -0.02,-0.01 v -0.02 l -0.01,-0.01 -0.01,-0.02 -0.02,-0.08 -0.01,-0.03 -0.02,-0.05 -0.02,-0.05 -0.01,-0.05 -0.01,-0.07 -0.02,-0.06 -0.01,-0.07 -0.03,-0.09 -0.02,-0.09 -0.15,-0.09 -0.05,-0.04 -0.12,-0.07 -0.13,-0.07 -0.03,-0.02 -0.27,-0.17 -0.27,0.06 -0.36,0.08 0.05,-0.06 0.01,-0.01 0.03,-0.04 0.02,-0.03 0.09,-0.15 0.1,-0.17 0.06,-0.1 v -0.01 l 0.01,-0.01 0.06,-0.1 0.06,-0.1 0.08,-0.11 0.06,-0.1 0.03,-0.05 0.06,-0.07 0.1,-0.1 0.01,-0.01 0.12,-0.14 0.12,-0.12 0.09,-0.1 0.03,-0.03 0.09,-0.11 0.1,-0.11 0.1,-0.11 0.09,-0.1 v -0.07 l 0.01,-0.14 v -0.15 l 0.01,-0.14 v -0.01 -0.03 -0.1 -0.16 -0.06 l 0.01,-0.12 v -0.04 -0.11 l 0.01,-0.07 0.01,-0.04 0.02,-0.08 0.04,-0.18 0.02,-0.12 0.02,-0.08 0.01,-0.1 0.04,-0.14 0.03,-0.16 0.03,-0.15 0.02,-0.13 v -0.07 -0.02 l 0.01,-0.08 v -0.13 -0.13 -0.03 -0.1 -0.02 -0.12 -0.18 -0.13 l -0.01,-0.09 -0.01,-0.06 -0.01,-0.16 -0.01,-0.14 -0.01,-0.13 -0.01,-0.06 -0.01,-0.09 -0.01,-0.1 v -0.03 -0.11 l -0.01,-0.01 v -0.11 l 0.06,-0.13 0.05,-0.11 0.03,-0.07 0.01,-0.02 0.05,-0.1 0.04,-0.08 0.05,-0.1 0.02,-0.05 0.03,-0.06 0.06,-0.13 0.06,-0.12 0.04,-0.09 0.01,-0.04 0.03,-0.11 0.01,-0.06 0.04,-0.13 0.09,-0.38 0.05,-0.16 0.04,-0.15 0.04,-0.18 0.05,-0.16 0.04,-0.18 0.01,-0.01 0.01,-0.06 0.01,-0.02 0.01,-0.01 0.02,-0.09 0.05,-0.16 0.05,-0.16 0.05,-0.13 0.02,-0.09 0.01,-0.02 0.02,-0.05 v -0.02 l 0.04,-0.1 0.02,-0.08 0.01,-0.04 v -0.06 l -0.01,-0.07 v -0.06 -0.04 l -0.01,-0.08 v -0.09 -0.02 -0.05 l -0.01,-0.05 v -0.02 -0.04 l -0.07,-0.09 -0.07,-0.09 -0.04,-0.06 -0.05,-0.04 -0.05,-0.04 -0.03,-0.03 v -0.04 l 0.01,-0.09 v -0.05 l -0.01,-0.03 -0.03,-0.03 -0.05,-0.02 -0.04,-0.03 -0.01,-0.06 -0.01,-0.08 v -0.06 l -0.01,-0.05 -0.04,-0.05 -0.06,-0.07 -0.07,-0.08 -0.04,-0.06 -0.03,-0.07 -0.01,-0.08 -0.02,-0.04 -0.05,-0.04 -0.13,-0.1 -0.06,-0.06 -0.03,-0.05 -0.01,-0.06 0.01,-0.1 0.02,-0.08 v -0.09 l -0.05,-0.13 -0.05,-0.12 -0.03,-0.11 v -0.07 -0.08 l -0.05,-0.08 -0.08,-0.08 -0.08,-0.12 -0.12,-0.19 -0.06,-0.12 -0.04,-0.09 -0.02,-0.08 -0.01,-0.12 v -0.19 l 0.01,-0.14 V 287 286.93 l -0.02,-0.12 -0.03,-0.12 -0.05,-0.13 -0.05,-0.15 -0.06,-0.12 -0.04,-0.1 -0.02,-0.09 v -0.17 -0.1 -0.02 l -0.02,-0.09 v -0.05 l 0.01,-0.06 0.01,-0.05 -0.01,-0.03 -0.01,-0.03 -0.05,-0.08 -0.03,-0.06 -0.01,-0.06 0.03,-0.06 -0.03,-0.13 -0.03,-0.07 -0.03,-0.07 -0.03,-0.05 -0.03,-0.06 -0.06,-0.08 -0.06,-0.08 -0.04,-0.07 -0.03,-0.04 -0.06,-0.04 -0.06,-0.05 -0.06,-0.05 -0.04,-0.04 v 0 l -0.08,-0.23 -0.07,-0.21 -0.05,-0.15 -0.04,-0.14 -0.1,-0.34 -0.03,-0.09 -0.01,-0.03 -0.11,-0.39 -0.02,-0.09 -0.03,-0.11 -0.05,-0.2 -0.04,-0.13 v -0.02 l -0.02,-0.07 -0.06,-0.27 -0.05,-0.15 -0.01,-0.03 -0.03,-0.06 v -0.01 -0.01 l -0.05,-0.1 -0.08,-0.24 -0.07,-0.16 -0.04,-0.13 -0.1,-0.28 -0.02,-0.05 -0.01,-0.02 v -0.09 l 0.02,-0.11 0.02,-0.13 0.06,-0.26 0.02,-0.11 0.11,-0.42 0.01,-0.04 0.03,-0.14 0.01,-0.06 v -0.14 l -0.02,-0.16 -0.05,-0.24 -0.05,-0.15 h -0.01 l -0.01,-0.04 -0.06,-0.19 -0.05,-0.17 -0.02,-0.12 v -0.04 -0.08 l 0.01,-0.25 0.01,-0.01 v -0.01 -0.02 -0.04 l 0.01,-0.04 0.01,-0.1 0.03,-0.21 0.01,-0.07 0.32,-0.26 0.16,-0.14 0.02,-0.01 0.1,-0.08 0.07,-0.07 0.12,-0.11 0.18,-0.24 0.05,-0.06 0.25,-0.18 0.42,-0.32 0.02,-0.06 0.05,-0.31 0.02,-0.12 v -0.07 l -0.03,-0.2 -0.06,-0.35 -0.01,-0.05 -0.07,-0.46 0.2,-0.12 0.25,-0.18 0.16,-0.11 -0.01,-0.02 -0.13,-0.22 -0.28,-0.47 -0.49,-0.8 -0.06,-0.08 0.02,-0.07 v -0.02 l 0.05,-0.2 0.02,-0.04 0.07,-0.3 0.01,-0.04 0.01,-0.04 0.03,-0.15 -0.06,-0.09 -0.02,-0.02 -0.14,-0.2 -0.35,-0.53 -0.01,-0.02 0.06,-0.3 v -0.02 -0.02 l 0.01,-0.04 0.01,-0.07 0.02,-0.04 0.03,-0.09 0.04,-0.1 0.04,-0.12 0.02,-0.06 0.04,-0.15 0.05,-0.14 0.08,-0.24 0.01,-0.04 0.02,-0.04 0.03,-0.08 v -0.02 l 0.06,-0.16 0.04,-0.1 0.07,-0.09 0.01,-0.01 0.06,-0.06 0.09,-0.09 0.18,-0.19 0.05,-0.06 0.08,-0.08 0.05,-0.07 0.05,-0.1 0.07,-0.15 0.07,-0.14 0.08,-0.17 0.06,-0.14 0.12,-0.11 0.1,-0.09 0.14,-0.12 0.1,-0.09 0.11,-0.1 0.11,-0.1 0.1,-0.09 0.09,-0.08 0.02,-0.02 0.05,-0.04 0.01,-0.01 0.06,-0.06 0.05,-0.03 0.09,-0.09 0.06,-0.05 0.02,-0.01 0.03,-0.04 0.02,-0.02 0.06,-0.05 0.05,-0.09 0.09,-0.15 0.08,-0.14 0.11,-0.19 0.05,-0.08 0.04,-0.06 0.08,-0.14 0.03,-0.05 -0.01,-0.13 -0.01,-0.12 v -0.01 l -0.01,-0.13 v -0.11 z" id="path11"/>
  </g>
</svg>