<svg xmlns="http://www.w3.org/2000/svg" version="1.2" baseProfile="tiny" stroke-linecap="round" stroke-linejoin="round" viewBox="635.07 351.22 25.68 17.48"><g xmlns="http://www.w3.org/2000/svg" id="Esa">
<path d="M 660.4 351.46 660.49 351.91 660.55 352.33 660.36 352.63 660.51 353.22 660.51 353.24 660.52 353.25 660.52 353.27 660.52 353.29 660.53 353.31 660.53 353.34 660.54 353.36 660.54 353.37 660.54 353.39 660.54 353.41 660.54 353.43 660.55 353.44 660.55 353.45 660.55 353.47 660.55 353.49 660.55 353.51 660.55 353.51 660.55 353.53 660.55 353.55 660.54 353.57 660.54 353.59 660.54 353.6 660.54 353.62 660.53 353.66 660.53 353.67 660.53 353.69 660.52 353.74 660.51 353.76 660.51 353.78 660.51 353.79 660.5 353.81 660.5 353.84 660.5 353.86 660.5 353.87 660.49 353.89 660.49 353.9 660.48 353.94 660.48 353.95 660.47 353.96 660.47 353.98 660.47 354 660.47 354.02 660.46 354.05 660.46 354.08 660.45 354.13 660.45 354.14 660.45 354.17 660.44 354.19 660.44 354.21 660.44 354.22 660.44 354.24 660.44 354.26 660.44 354.28 660.44 354.3 660.44 354.31 660.44 354.33 660.44 354.34 660.44 354.36 660.44 354.37 660.43 354.39 660.43 354.41 660.43 354.43 660.43 354.44 660.43 354.46 660.43 354.48 660.43 354.51 660.43 354.53 660.43 354.55 660.43 354.56 660.43 354.58 660.43 354.59 660.43 354.63 660.43 354.65 660.43 354.67 660.43 354.69 660.43 354.71 660.43 354.72 660.43 354.74 660.43 354.75 660.44 354.82 660.44 354.83 660.44 354.85 660.44 354.87 660.44 354.89 660.44 354.9 660.45 354.92 660.45 354.93 660.46 354.97 660.46 354.98 660.46 354.99 660.46 355.01 660.46 355.03 660.47 355.05 660.47 355.06 660.47 355.09 660.47 355.11 660.47 355.13 660.47 355.15 660.47 355.17 660.47 355.19 660.47 355.21 660.47 355.23 660.47 355.25 660.46 355.27 660.46 355.28 660.46 355.29 660.46 355.31 660.46 355.33 660.46 355.35 660.46 355.37 660.46 355.39 660.45 355.41 660.45 355.42 660.46 355.46 660.46 355.48 660.46 355.5 660.45 355.52 660.45 355.54 660.45 355.56 660.45 355.58 660.45 355.6 660.45 355.61 660.45 355.63 660.45 355.65 660.45 355.66 660.45 355.68 660.7 355.91 660.74 355.96 660.68 357.13 660.67 357.14 660.67 357.16 660.67 357.18 660.67 357.2 660.67 357.22 660.67 357.24 660.66 357.26 660.66 357.32 660.65 357.35 660.65 357.37 660.65 357.39 660.64 357.41 660.63 357.43 660.63 357.44 660.62 357.46 660.6 357.5 660.59 357.53 660.56 357.59 660.56 357.61 660.54 357.65 660.52 357.68 660.52 357.69 660.51 357.71 660.5 357.73 660.5 357.74 660.49 357.75 660.48 357.78 660.47 357.8 660.46 357.82 660.45 357.83 660.45 357.85 660.44 357.87 660.42 357.92 660.4 358 660.39 358.01 660.39 358.03 660.38 358.05 660.38 358.06 660.38 358.09 660.37 358.11 660.37 358.12 660.37 358.16 660.36 358.21 660.35 358.31 660.35 358.33 660.35 358.35 660.35 358.36 660.34 358.38 660.34 358.42 660.34 358.44 660.33 358.47 660.32 358.51 660.32 358.53 660.31 358.57 660.31 358.58 660.3 358.6 660.3 358.61 660.3 358.63 660.3 358.65 660.29 358.66 660.29 358.68 660.29 358.7 660.29 358.71 660.29 358.72 660.29 358.74 660.29 358.76 660.29 358.78 660.29 358.79 660.28 358.8 660.28 358.82 660.28 358.84 660.28 358.85 660.28 358.87 660.28 358.9 660.28 358.92 660.28 358.94 660.28 358.96 660.28 358.97 660.27 358.99 660.27 359.01 660.27 359.02 660.26 359.04 660.26 359.06 660.25 359.13 660.24 359.17 660.24 359.19 660.23 359.22 660.23 359.24 660.22 359.25 660.22 359.27 660.21 359.3 660.21 359.32 660.2 359.34 660.2 359.36 660.2 359.39 660.19 359.42 660.19 359.44 660.19 359.46 660.18 359.47 660.18 359.48 660.18 359.52 660.18 359.54 660.18 359.56 660.18 359.58 660.17 359.59 660.17 359.61 660.17 359.62 660.17 359.63 660.17 359.65 660.17 359.67 660.16 359.69 660.16 359.71 660.16 359.72 660.16 359.74 660.15 359.76 660.15 359.78 660.15 359.81 660.14 359.83 660.14 359.86 660.13 359.88 660.13 359.9 660.13 359.91 660.13 359.94 660.13 359.95 660.12 359.97 660.12 359.99 660.12 360.01 660.12 360.02 660.12 360.04 660.12 360.05 660.12 360.06 660.12 360.08 660.12 360.1 660.12 360.12 660.12 360.14 660.12 360.14 660.12 360.16 660.11 360.2 660.11 360.21 660.11 360.22 660.11 360.24 660.11 360.26 660.11 360.27 660.11 360.29 660.11 360.31 660.1 360.32 660 360.84 660.01 361.21 660.01 361.25 660.01 361.26 660.01 361.28 660 361.3 660 361.32 660 361.34 660 361.36 660 361.37 659.99 361.39 659.99 361.41 659.99 361.42 659.99 361.44 659.99 361.51 660 361.54 660 361.58 660 361.6 660 361.62 660 361.64 660 361.66 660 361.67 660 361.71 660.01 361.75 660.01 361.78 660.01 361.82 660.01 361.83 660.01 361.85 660.01 361.86 660.02 361.88 660.02 361.9 660.02 361.92 660.02 361.96 660.02 361.98 660.02 362.05 660.02 362.06 660.02 362.1 660.02 362.12 660.02 362.13 660.02 362.14 660.02 362.16 660.02 362.18 660.01 362.2 660.01 362.22 660.01 362.24 660.01 362.25 660.01 362.26 660.01 362.28 660.01 362.3 660.01 362.32 660.01 362.33 660.01 362.35 660.01 362.37 660.01 362.41 660.01 362.42 660.01 362.44 660.01 362.45 660.02 362.47 660.02 362.48 660.03 362.51 660.03 362.53 660.04 362.54 660.05 362.58 660.06 362.59 660.06 362.61 660.07 362.62 660.07 362.64 660.07 362.66 660.07 362.68 660.07 362.69 660.08 362.9 660.08 362.95 660.08 362.99 660.08 363 660.08 363.05 660.08 363.07 660.08 363.09 660.08 363.1 660.09 363.11 660.1 363.14 660.1 363.15 660.11 363.17 660.12 363.19 660.12 363.21 660.13 363.22 660.14 363.24 660.14 363.25 660.15 363.27 660.16 363.29 660.17 363.3 660.17 363.33 660.17 363.35 660.17 363.37 660.26 365.37 660.26 365.44 660.26 365.46 660.26 365.48 660.25 365.49 660.25 365.5 660.25 365.52 660.25 365.53 660.24 365.55 660.24 365.56 660.24 365.58 660.23 365.59 660.22 365.61 660.2 365.62 660.19 365.64 660.17 365.64 660.17 365.65 660.15 365.65 660.13 365.66 660.12 365.66 660.1 365.66 660.09 365.66 660.08 365.66 660.06 365.66 660.04 365.65 660.02 365.65 660.01 365.64 659.99 365.63 659.98 365.62 659.97 365.61 659.95 365.6 659.94 365.59 659.93 365.57 659.92 365.55 659.91 365.54 659.91 365.53 659.9 365.51 659.88 365.48 659.87 365.46 659.86 365.45 659.84 365.42 659.83 365.4 659.82 365.39 659.82 365.37 659.81 365.36 659.8 365.35 659.79 365.33 659.78 365.32 659.76 365.3 659.75 365.29 659.74 365.28 659.73 365.26 659.71 365.25 659.69 365.22 659.67 365.21 659.66 365.19 659.66 365.19 659.64 365.18 659.63 365.16 659.62 365.15 659.6 365.14 659.59 365.13 659.58 365.12 659.56 365.11 659.55 365.1 659.53 365.09 659.52 365.08 659.51 365.06 659.49 365.05 659.48 365.05 659.47 365.04 659.45 365.03 659.44 365.02 659.42 365.01 659.41 365 659.38 364.98 659.35 364.97 659.34 364.96 659.32 364.95 659.31 364.94 659.29 364.93 659.28 364.92 659.26 364.91 659.24 364.9 659.23 364.89 659.21 364.89 659.2 364.88 659.18 364.87 659.15 364.85 659.12 364.84 659.11 364.83 659.07 364.82 659.04 364.8 658.98 364.77 658.95 364.76 658.91 364.74 658.88 364.73 658.85 364.71 656.53 363.69 656.46 363.66 656.44 363.65 656.43 363.65 656.41 363.64 656.39 363.64 656.38 363.63 656.36 363.63 656.35 363.62 656.33 363.62 656.31 363.61 656.29 363.61 656.27 363.61 656.25 363.6 656.24 363.6 656.22 363.6 656.2 363.6 656.18 363.6 656.16 363.6 656.15 363.6 656.13 363.59 656.11 363.59 656.09 363.59 656.08 363.6 656.06 363.6 656.04 363.6 656.02 363.6 656.01 363.6 655.99 363.6 655.97 363.6 655.95 363.61 655.93 363.61 655.91 363.62 655.9 363.62 655.88 363.63 655.86 363.63 655.85 363.63 655.84 363.64 655.82 363.65 655.8 363.65 655.79 363.66 655.77 363.67 655.76 363.67 655.74 363.68 655.73 363.68 655.71 363.69 655.7 363.7 655.68 363.71 655.67 363.72 655.65 363.73 655.64 363.73 655.62 363.74 655.6 363.75 655.59 363.76 655.58 363.77 655.56 363.78 655.53 363.8 655.52 363.81 655.51 363.82 655.49 363.83 655.48 363.84 655.46 363.85 655.45 363.86 655.43 363.87 655.42 363.88 655.4 363.89 655.39 363.9 655.37 363.91 655.36 363.92 655.35 363.93 655.33 363.94 655.32 363.96 655.31 363.97 655.3 363.98 655.28 363.99 655.27 364 655.26 364.01 655.23 364.04 655.19 364.07 655.18 364.09 655.17 364.1 655.14 364.12 655.13 364.14 655.12 364.15 655.1 364.16 655.09 364.17 655.08 364.18 655.07 364.19 655.05 364.2 655.04 364.21 655.02 364.22 655.01 364.23 654.99 364.24 654.98 364.25 654.96 364.26 654.94 364.27 654.93 364.28 654.91 364.29 654.9 364.3 654.88 364.31 654.87 364.32 654.85 364.32 654.83 364.33 654.83 364.33 654.81 364.34 654.79 364.35 654.78 364.35 654.76 364.36 654.74 364.36 654.73 364.36 654.71 364.37 654.69 364.37 654.67 364.37 654.66 364.38 654.64 364.38 654.62 364.38 654.6 364.38 654.59 364.38 654.57 364.38 654.55 364.38 654.54 364.38 654.52 364.38 654.5 364.38 654.48 364.37 654.46 364.37 654.44 364.36 654.43 364.36 654.41 364.35 654.39 364.34 654.39 364.34 653.89 364.1 653.67 364.72 653.66 364.74 653.65 364.79 653.64 364.81 653.63 364.89 653.62 364.94 653.61 364.99 653.61 365.01 653.6 365.03 653.6 365.06 653.6 365.08 653.59 365.1 653.59 365.11 653.59 365.12 653.58 365.14 653.58 365.16 653.57 365.17 653.57 365.19 653.57 365.21 653.56 365.25 653.55 365.26 653.55 365.27 653.55 365.29 653.54 365.32 653.53 365.34 653.53 365.35 653.53 365.37 653.52 365.39 653.52 365.41 653.52 365.42 653.52 365.44 653.52 365.46 653.51 365.47 653.51 365.49 653.51 365.51 653.51 365.52 653.51 365.54 653.51 365.55 653.51 365.57 653.51 365.61 653.51 365.62 653.51 365.69 653.51 365.73 653.51 365.76 653.51 365.8 653.51 365.82 653.51 365.84 653.51 365.86 653.51 365.9 653.51 365.95 653.51 366 653.51 366.06 653.51 366.1 653.51 366.11 653.5 366.15 653.5 366.2 653.5 366.24 653.49 366.3 653.49 366.31 653.49 366.33 653.49 366.35 653.49 366.37 653.5 366.39 653.5 366.4 653.5 366.42 653.5 366.44 653.51 366.46 653.52 366.55 653.52 366.56 653.52 366.58 653.53 366.61 653.53 366.63 653.53 366.65 653.54 366.67 653.54 366.68 653.54 366.7 653.54 366.72 653.54 366.73 653.54 366.77 653.54 366.78 653.53 366.8 653.53 366.83 653.53 366.89 653.52 366.94 653.58 366.96 653.69 367.01 653.91 367.11 654.06 367.18 654.15 367.22 654.23 367.26 654.4 367.37 654.56 367.46 654.83 367.62 654.94 367.66 654.93 367.78 654.9 368.27 654.9 368.3 654.9 368.32 654.9 368.34 654.9 368.36 654.9 368.38 654.91 368.4 654.9 368.42 654.9 368.43 654.89 368.45 654.89 368.46 654.88 368.48 654.88 368.5 654.88 368.51 654.9 368.54 654.87 368.55 654.85 368.55 654.83 368.56 654.82 368.57 654.8 368.57 654.78 368.58 654.75 368.58 654.73 368.59 654.72 368.6 654.7 368.6 654.68 368.61 654.67 368.61 654.65 368.61 654.64 368.62 654.63 368.62 654.61 368.62 654.6 368.63 654.58 368.64 654.56 368.65 654.56 368.65 654.54 368.66 654.53 368.67 654.51 368.67 654.5 368.67 654.49 368.67 654.48 368.67 654.46 368.66 654.44 368.65 654.43 368.64 654.42 368.63 654.4 368.61 654.39 368.61 654.37 368.6 654.36 368.6 654.34 368.59 654.32 368.59 654.3 368.59 654.3 368.59 654.28 368.59 654.27 368.59 654.26 368.58 654.25 368.58 654.23 368.58 654.21 368.57 654.19 368.56 654.17 368.56 654.16 368.56 654.15 368.55 654.13 368.55 654.12 368.54 654.09 368.54 654.08 368.53 654.08 368.53 654.07 368.51 654.07 368.49 654.06 368.48 654.06 368.47 654.06 368.45 654.06 368.45 654.06 368.43 654.05 368.41 654.05 368.39 654.05 368.38 654.04 368.35 654.03 368.34 654.03 368.33 654.02 368.31 654 368.3 653.98 368.29 653.97 368.28 653.96 368.28 653.94 368.27 653.93 368.26 653.93 368.26 653.91 368.25 653.9 368.23 653.88 368.23 653.87 368.22 653.86 368.22 653.85 368.21 653.83 368.21 653.79 368.21 653.77 368.21 653.76 368.21 653.74 368.21 653.72 368.21 653.7 368.21 653.69 368.21 653.67 368.2 653.65 368.2 653.64 368.2 653.61 368.19 653.59 368.19 653.57 368.19 653.56 368.18 653.55 368.18 653.52 368.17 653.51 368.17 653.49 368.16 653.48 368.15 653.46 368.15 653.46 368.15 653.44 368.14 653.43 368.14 653.42 368.14 653.4 368.14 653.39 368.13 653.37 368.13 653.36 368.12 653.34 368.12 653.32 368.11 653.3 368.1 653.29 368.1 653.27 368.09 653.25 368.08 653.24 368.08 653.23 368.08 653.21 368.08 653.19 368.08 653.16 368.07 653.15 368.06 653.13 368.06 653.12 368.05 653.1 368.05 653.08 368.04 653.07 368.04 653.05 368.03 653.03 368.02 653.02 368.02 653 368.02 652.98 368.02 652.97 368.02 652.96 368.01 652.94 368 652.92 368 652.91 367.99 652.9 367.99 652.89 367.99 652.89 367.99 652.87 367.98 652.86 367.97 652.84 367.97 652.83 367.96 652.82 367.96 652.81 367.95 652.79 367.95 652.78 367.94 652.77 367.94 652.76 367.93 652.75 367.93 652.72 367.91 652.7 367.9 652.68 367.9 652.66 367.89 652.65 367.88 652.63 367.87 652.62 367.87 652.6 367.86 652.58 367.85 652.58 367.85 652.56 367.84 652.55 367.84 652.53 367.84 652.51 367.83 652.49 367.82 652.48 367.82 652.46 367.81 652.45 367.8 652.43 367.79 652.42 367.79 652.4 367.79 652.38 367.78 652.36 367.78 652.35 367.78 652.33 367.77 652.3 367.76 652.28 367.75 652.26 367.75 652.23 367.74 652.21 367.73 652.2 367.73 652.18 367.72 652.17 367.72 652.15 367.71 652.14 367.7 652.12 367.69 652.11 367.68 652.09 367.68 652.08 367.67 652.07 367.66 652.05 367.66 652.04 367.65 652.02 367.64 652.01 367.63 651.99 367.63 651.98 367.63 651.96 367.63 651.94 367.63 651.91 367.63 651.89 367.63 651.88 367.63 651.86 367.63 651.84 367.63 651.83 367.63 651.81 367.63 651.79 367.63 651.77 367.63 651.76 367.62 651.73 367.62 651.71 367.62 651.7 367.62 651.68 367.62 651.64 367.63 651.6 367.63 651.59 367.63 651.57 367.63 651.56 367.63 651.54 367.64 651.53 367.64 651.51 367.65 651.5 367.66 651.49 367.67 651.48 367.68 651.47 367.69 651.45 367.7 651.44 367.71 651.41 367.71 651.4 367.71 651.38 367.71 651.37 367.71 651.34 367.71 651.32 367.71 651.31 367.71 651.28 367.71 651.27 367.71 651.25 367.7 651.23 367.7 651.22 367.69 651.2 367.68 651.19 367.67 651.17 367.66 651.16 367.66 651.15 367.65 651.13 367.65 651.11 367.65 651.09 367.64 651.08 367.65 651.06 367.65 651.03 367.66 651.01 367.66 650.99 367.67 650.98 367.67 650.96 367.67 650.94 367.67 650.92 367.67 650.91 367.67 650.89 367.66 650.88 367.66 650.86 367.65 650.84 367.65 650.83 367.64 650.81 367.63 650.79 367.62 650.78 367.61 650.77 367.6 650.75 367.59 650.74 367.58 650.72 367.57 650.71 367.56 650.69 367.55 650.68 367.55 650.66 367.54 650.65 367.53 650.63 367.52 650.61 367.52 650.59 367.52 650.57 367.51 650.56 367.51 650.54 367.51 650.52 367.51 650.51 367.51 650.5 367.5 650.48 367.5 650.46 367.5 650.44 367.49 650.43 367.49 650.41 367.49 650.39 367.49 650.38 367.49 650.36 367.49 650.34 367.49 650.32 367.49 650.31 367.49 650.3 367.48 650.28 367.48 650.26 367.47 650.25 367.47 650.23 367.47 650.21 367.46 650.19 367.46 650.18 367.46 650.16 367.46 650.14 367.46 650.12 367.45 650.1 367.45 650.09 367.45 650.07 367.44 650.04 367.43 650.02 367.43 650 367.43 649.98 367.42 649.96 367.42 649.94 367.42 649.93 367.41 649.86 367.41 649.84 367.4 649.8 367.4 649.78 367.39 649.77 367.39 649.74 367.39 649.72 367.39 649.7 367.38 649.68 367.38 649.67 367.38 649.65 367.37 649.63 367.37 649.61 367.36 649.59 367.36 649.58 367.35 649.56 367.35 649.54 367.34 649.53 367.33 649.51 367.33 649.49 367.32 649.48 367.32 649.47 367.32 649.46 367.31 649.45 367.31 649.43 367.3 649.41 367.3 649.39 367.29 649.38 367.29 649.36 367.28 649.35 367.28 649.33 367.28 649.31 367.27 649.29 367.27 649.26 367.27 649.25 367.27 649.23 367.26 649.22 367.26 649.2 367.26 649.18 367.26 649.13 367.25 649.11 367.25 649.1 367.25 649.07 367.25 649.04 367.25 649.01 367.24 648.99 367.24 648.97 367.24 648.96 367.24 648.94 367.24 648.93 367.23 648.91 367.23 648.89 367.23 648.87 367.23 648.86 367.22 648.84 367.22 648.82 367.22 648.78 367.21 648.76 367.21 648.75 367.21 648.73 367.2 648.71 367.2 648.68 367.19 648.66 367.19 648.64 367.19 648.63 367.19 648.61 367.18 648.6 367.18 648.56 367.18 648.53 367.17 648.51 367.17 648.49 367.16 648.47 367.16 648.46 367.16 648.44 367.16 648.42 367.16 648.41 367.16 648.39 367.15 648.37 367.15 648.35 367.15 648.34 367.15 648.31 367.15 648.3 367.15 648.28 367.15 648.26 367.15 648.24 367.15 648.23 367.15 648.21 367.15 648.19 367.15 648.17 367.15 648.15 367.14 648.14 367.14 648.12 367.13 648.1 367.12 648.01 367.1 648.01 367.08 648.01 367.07 648.02 367.05 648.03 367.03 648.03 367.01 648.02 366.99 648.01 366.98 648 366.96 647.99 366.95 647.98 366.93 647.97 366.92 647.96 366.91 647.95 366.89 647.93 366.89 647.92 366.88 647.9 366.87 647.88 366.86 647.87 366.86 647.85 366.86 647.81 366.85 647.81 366.85 647.79 366.85 647.77 366.85 647.75 366.84 647.74 366.84 647.72 366.84 647.54 366.83 647.53 366.82 647.51 366.81 647.5 366.79 647.49 366.78 647.48 366.77 647.47 366.76 647.46 366.75 647.44 366.74 647.43 366.73 647.41 366.72 647.4 366.71 647.39 366.7 647.37 366.69 647.35 366.69 647.34 366.68 647.32 366.68 647.31 366.68 647.29 366.68 647.27 366.68 647.22 366.69 647.2 366.69 647.18 366.69 647.17 366.69 647.15 366.69 647.13 366.69 647.11 366.69 647.09 366.69 647.07 366.69 647.06 366.68 647.02 366.68 647 366.68 646.99 366.68 646.97 366.68 646.96 366.68 646.94 366.68 646.89 366.68 646.87 366.68 646.85 366.68 646.83 366.68 646.81 366.68 646.8 366.68 646.78 366.68 646.76 366.67 646.75 366.67 646.73 366.67 646.67 366.66 646.66 366.64 646.62 366.63 646.6 366.63 646.59 366.62 646.57 366.62 646.55 366.61 646.54 366.61 646.52 366.6 646.5 366.6 646.45 366.59 646.43 366.59 646.41 366.58 646.4 366.58 646.33 366.57 646.31 366.57 646.29 366.56 646.28 366.56 646.26 366.56 646.23 366.55 646.21 366.55 646.18 366.54 646.15 366.53 646.13 366.53 646.11 366.52 646.09 366.52 646.08 366.51 646.06 366.51 646.04 366.51 646.03 366.5 646.01 366.5 645.99 366.49 645.97 366.49 645.96 366.48 645.94 366.48 645.92 366.48 645.9 366.47 645.88 366.47 645.87 366.47 645.85 366.46 645.83 366.46 645.81 366.46 645.8 366.46 645.78 366.45 645.76 366.45 645.74 366.45 645.62 366.42 645.61 366.42 645.59 366.42 645.58 366.41 645.56 366.4 645.54 366.4 645.52 366.39 645.51 366.38 645.49 366.37 645.48 366.37 645.46 366.36 645.45 366.35 645.43 366.34 645.41 366.32 645.39 366.31 645.39 366.3 645.37 366.29 645.36 366.28 645.34 366.27 645.33 366.27 645.31 366.26 645.29 366.26 645.28 366.26 645.26 366.26 645.24 366.25 645.22 366.24 645.21 366.23 645.2 366.22 645.19 366.21 645.18 366.21 645.16 366.21 645.14 366.21 645.12 366.21 645.1 366.21 645.07 366.22 645.05 366.22 645.02 366.22 645 366.22 644.98 366.22 644.96 366.23 644.95 366.23 644.94 366.23 644.92 366.23 644.88 366.23 644.85 366.23 644.81 366.23 644.78 366.23 644.76 366.23 644.74 366.23 644.67 366.25 644.66 366.26 644.65 366.26 644.63 366.26 644.61 366.26 644.6 366.27 644.58 366.27 644.56 366.27 644.54 366.28 644.52 366.28 644.51 366.28 644.49 366.28 644.48 366.28 644.46 366.28 644.44 366.28 644.42 366.27 644.41 366.27 644.38 366.27 644.37 366.26 644.35 366.26 644.33 366.25 644.32 366.24 644.3 366.24 644.29 366.23 644.27 366.22 644.25 366.21 644.23 366.21 644.21 366.2 644.2 366.19 644.18 366.18 644.17 366.18 644.15 366.17 644.14 366.16 644.12 366.15 644.1 366.14 644.09 366.14 644.07 366.13 644.06 366.12 644.03 366.11 644.01 366.1 644 366.1 643.98 366.09 643.96 366.08 643.95 366.07 643.93 366.07 643.92 366.06 643.9 366.05 643.88 366.05 643.87 366.04 643.85 366.03 643.83 366.03 643.82 366.02 643.8 366.02 643.78 366.01 643.77 366 643.75 366 643.73 365.99 643.72 365.99 643.72 365.99 643.68 365.98 643.66 365.97 643.63 365.96 643.59 365.95 643.58 365.94 643.54 365.93 643.53 365.93 643.51 365.92 643.49 365.91 643.41 365.9 643.37 365.9 643.28 365.9 643.21 365.91 643.17 365.91 643.14 365.91 643.03 365.9 642.99 365.89 642.99 365.89 642.93 365.89 642.73 365.88 642.71 365.88 642.7 365.88 642.59 365.87 642.49 365.87 642.34 365.87 642.34 365.82 642.34 365.78 642.34 365.71 642.34 365.7 642.34 365.66 642.34 365.64 642.34 365.63 642.33 365.61 642.33 365.6 642.33 365.58 642.33 365.57 642.33 365.55 642.32 365.52 642.32 365.51 642.32 365.47 642.32 365.45 642.31 365.43 642.31 365.41 642.31 365.4 642.31 365.38 642.3 365.36 642.3 365.35 642.29 365.33 642.28 365.29 642.28 365.27 642.27 365.25 642.27 365.24 642.26 365.22 642.26 365.2 642.25 365.17 642.24 365.15 642.23 365.14 642.23 365.12 642.1 365.15 642.09 365.15 642.08 365.15 642.06 365.16 642.04 365.16 642.02 365.16 642 365.17 641.99 365.17 641.97 365.18 641.95 365.18 641.94 365.19 641.91 365.19 641.89 365.2 641.88 365.2 641.86 365.21 641.84 365.21 641.83 365.22 641.81 365.22 641.8 365.23 641.78 365.24 641.76 365.24 641.75 365.25 641.73 365.25 641.71 365.26 641.7 365.27 641.68 365.27 641.65 365.28 641.61 365.3 641.58 365.31 641.43 365.34 641.43 365.32 641.42 365.31 641.41 365.3 641.4 365.28 641.39 365.26 641.38 365.25 641.37 365.23 641.36 365.22 641.36 365.21 641.35 365.19 641.34 365.18 641.33 365.16 641.31 365.15 641.3 365.13 641.29 365.12 641.28 365.1 641.27 365.09 641.26 365.07 641.24 365.06 641.23 365.05 641.22 365.03 641.21 365.02 641.2 365.01 641.19 364.99 641.18 364.98 641.17 364.96 641.17 364.95 641.16 364.94 641.15 364.92 641.14 364.91 641.14 364.89 641.13 364.88 641.12 364.86 641.11 364.85 641.09 364.83 641.08 364.82 641.08 364.82 641.06 364.81 641.05 364.8 641.03 364.79 641.02 364.78 641.01 364.76 640.98 364.75 640.97 364.74 640.94 364.72 640.93 364.7 640.91 364.69 640.9 364.68 640.85 364.65 640.84 364.64 640.83 364.63 640.81 364.62 640.8 364.61 640.78 364.6 640.77 364.59 640.76 364.58 640.74 364.57 640.73 364.56 640.72 364.55 640.71 364.53 640.7 364.52 640.68 364.5 640.66 364.47 640.65 364.46 640.64 364.45 640.62 364.44 640.61 364.42 640.61 364.42 640.59 364.4 640.58 364.39 640.57 364.38 640.56 364.37 640.54 364.35 640.53 364.34 640.52 364.33 640.5 364.32 640.49 364.3 640.48 364.29 640.41 364.23 640.35 364.17 640.35 364.17 640.34 364.16 640.32 364.14 640.3 364.13 640.29 364.12 640.27 364.11 640.26 364.1 640.24 364.09 640.23 364.08 640.22 364.07 640.2 364.06 640.18 364.04 640.16 364.03 640.16 364.02 640.14 364.01 640.13 364 640.11 363.99 640.1 363.98 640.09 363.97 640.07 363.96 640.06 363.95 640.04 363.94 640.03 363.93 640.01 363.92 639.99 363.91 639.97 363.9 639.96 363.89 639.94 363.88 639.92 363.87 639.91 363.86 639.89 363.86 639.88 363.85 639.86 363.84 639.77 363.8 639.77 363.8 639.75 363.79 639.73 363.78 639.73 363.77 639.71 363.77 639.7 363.76 639.68 363.74 639.67 363.73 639.66 363.72 639.65 363.7 639.64 363.69 639.63 363.68 639.61 363.67 639.6 363.65 639.59 363.64 639.58 363.62 639.57 363.61 639.56 363.6 639.55 363.58 639.53 363.57 639.52 363.55 639.51 363.54 639.48 363.52 639.46 363.5 639.42 363.47 639.41 363.45 639.4 363.44 639.37 363.42 639.36 363.41 639.35 363.4 639.32 363.37 639.31 363.36 639.3 363.35 639.18 363.26 639.16 363.25 639.15 363.24 639.13 363.23 639.12 363.22 639.1 363.2 639.09 363.19 639.08 363.18 639.07 363.16 639.06 363.15 639.05 363.14 639.04 363.12 639.03 363.11 639.01 363.08 638.99 363.06 638.97 363.04 638.96 363.03 638.95 363.01 638.94 363 638.93 362.99 638.92 362.97 638.91 362.96 638.9 362.95 638.88 362.93 638.87 362.92 638.86 362.91 638.85 362.89 638.84 362.88 638.83 362.87 638.82 362.86 638.8 362.84 638.79 362.83 638.78 362.82 638.77 362.8 638.76 362.79 638.75 362.78 638.73 362.76 638.72 362.75 638.71 362.74 638.69 362.73 638.68 362.71 638.67 362.7 638.65 362.69 638.64 362.68 638.63 362.67 638.62 362.66 638.61 362.66 638.6 362.65 638.59 362.63 638.58 362.62 638.56 362.61 638.54 362.59 638.52 362.58 638.51 362.57 638.49 362.56 638.48 362.55 638.47 362.54 638.45 362.53 638.43 362.52 638.42 362.52 638.4 362.51 638.38 362.5 638.29 362.47 638.27 362.47 638.25 362.46 638.23 362.46 638.22 362.45 638.2 362.45 638.19 362.45 638.17 362.44 638.15 362.44 638.13 362.44 638.11 362.44 638.09 362.43 638.07 362.43 638.05 362.43 638.04 362.43 638.02 362.43 638 362.43 637.92 362.39 637.91 362.39 637.89 362.38 637.88 362.37 637.86 362.36 637.84 362.36 637.83 362.35 637.81 362.35 637.79 362.34 637.77 362.33 637.76 362.33 637.74 362.32 637.72 362.32 637.71 362.31 637.69 362.31 637.67 362.3 637.65 362.3 637.63 362.3 637.62 362.29 637.6 362.29 637.58 362.29 637.57 362.29 637.55 362.29 637.53 362.29 637.52 362.29 637.5 362.28 637.48 362.28 637.47 362.28 637.45 362.29 637.44 362.29 637.42 362.29 637.4 362.29 637.37 362.29 637.35 362.29 637.33 362.3 637.32 362.3 637.3 362.3 637.28 362.3 637.26 362.3 637.24 362.3 637.22 362.3 637.21 362.3 637.19 362.3 637.17 362.29 637.16 362.29 637.14 362.28 637.12 362.28 637.11 362.26 637.1 362.25 637.09 362.25 637.08 362.24 637.06 362.22 637.05 362.21 637.04 362.2 637.02 362.19 637.01 362.18 636.99 362.17 636.97 362.16 636.95 362.16 636.94 362.16 636.92 362.15 636.91 362.15 636.89 362.15 636.88 362.15 636.86 362.16 636.84 362.16 636.83 362.17 636.83 362.18 636.82 362.19 636.81 362.21 636.78 362.23 636.77 362.24 636.75 362.25 636.74 362.25 636.73 362.26 636.71 362.26 636.69 362.26 636.68 362.26 636.67 362.26 636.65 362.26 636.64 362.26 636.62 362.26 636.6 362.26 636.59 362.26 636.57 362.26 636.54 362.27 636.53 362.27 636.51 362.28 636.49 362.28 636.47 362.29 636.45 362.29 636.44 362.3 636.42 362.3 636.41 362.31 636.41 362.31 636.39 362.32 636.37 362.32 636.36 362.33 636.34 362.33 636.32 362.34 636.3 362.34 636.3 362.34 636.28 362.35 636.27 362.36 636.25 362.37 636.24 362.38 636.22 362.39 636.19 362.41 636.18 362.42 636.16 362.43 636.15 362.43 636.14 362.44 636.12 362.45 636.1 362.46 636.09 362.46 636.08 362.47 636.02 362.5 635.95 362.29 635.95 362.28 635.87 362.05 635.86 362.03 635.86 362.03 635.86 362.01 635.87 361.93 635.88 361.92 635.88 361.9 635.88 361.88 635.88 361.86 635.89 361.85 635.89 361.83 635.89 361.82 635.89 361.8 635.89 361.78 635.89 361.76 635.88 361.74 635.88 361.72 635.88 361.71 635.87 361.69 635.87 361.67 635.86 361.66 635.86 361.64 635.86 361.63 635.85 361.61 635.85 361.59 635.85 361.57 635.85 361.55 635.85 361.52 635.84 361.51 635.84 361.49 635.84 361.47 635.83 361.46 635.83 361.44 635.82 361.41 635.81 361.4 635.8 361.38 635.8 361.36 635.79 361.35 635.79 361.33 635.79 361.31 635.78 361.29 635.78 361.28 635.78 361.26 635.77 361.25 635.76 361.23 635.75 361.22 635.74 361.2 635.73 361.18 635.72 361.17 635.72 361.15 635.71 361.14 635.7 361.13 635.69 361.11 635.68 361.09 635.67 361.08 635.67 361.07 635.66 361.05 635.65 361.04 635.63 361.01 635.62 361.01 635.6 360.98 635.58 360.95 635.53 360.86 635.51 360.83 635.46 360.75 635.45 360.73 635.44 360.71 635.41 360.66 635.4 360.64 635.39 360.63 635.36 360.58 635.19 360.4 635.1 360.15 635.15 360.06 635.16 360.04 635.18 360.03 635.19 360.01 635.19 360.01 635.21 359.99 635.22 359.97 635.23 359.96 635.24 359.94 635.28 359.94 635.3 359.93 635.32 359.93 635.34 359.92 635.34 359.91 635.36 359.9 635.37 359.89 635.39 359.87 635.4 359.86 635.42 359.84 635.58 359.73 635.59 359.72 635.61 359.72 635.61 359.71 635.63 359.7 635.65 359.7 635.67 359.69 635.68 359.69 635.7 359.69 635.72 359.69 635.74 359.7 635.76 359.69 635.78 359.69 635.79 359.68 635.82 359.66 635.84 359.65 635.85 359.64 635.86 359.64 635.88 359.63 635.89 359.62 635.9 359.61 635.92 359.6 635.93 359.6 635.95 359.59 635.95 359.59 635.97 359.58 635.99 359.57 636 359.57 636.01 359.56 636.02 359.56 636.04 359.55 636.06 359.54 636.07 359.54 636.08 359.53 636.1 359.52 636.12 359.51 636.13 359.5 636.14 359.49 636.15 359.48 636.16 359.46 636.17 359.45 636.18 359.44 636.19 359.43 636.2 359.42 636.22 359.4 636.23 359.4 636.25 359.4 636.27 359.39 636.28 359.39 636.3 359.39 636.32 359.4 636.34 359.4 636.35 359.4 636.36 359.4 636.38 359.39 636.39 359.37 636.4 359.36 636.42 359.34 636.44 359.33 636.45 359.32 636.49 359.31 636.51 359.31 636.53 359.31 636.55 359.3 636.56 359.3 636.58 359.29 636.6 359.28 636.61 359.28 636.63 359.27 636.66 359.26 636.68 359.25 636.68 359.24 636.7 359.24 636.72 359.23 636.75 359.23 636.77 359.22 636.78 359.22 636.8 359.22 636.82 359.21 636.83 359.21 636.85 359.2 636.86 359.2 636.88 359.19 636.9 359.19 636.9 359.19 636.92 359.19 636.94 359.19 636.96 359.18 636.98 359.18 636.99 359.18 637.02 359.18 637.04 359.18 637.07 359.18 637.1 359.17 637.11 359.17 637.13 359.17 637.14 359.17 637.16 359.17 637.18 359.17 637.19 359.18 637.21 359.18 637.23 359.18 637.24 359.19 637.26 359.19 637.28 359.18 637.29 359.17 637.3 359.17 637.31 359.16 637.32 359.15 637.34 359.12 637.35 359.1 637.36 359.09 637.37 359.07 637.38 359.05 637.39 359.04 637.39 359.02 637.4 359.01 637.4 359 637.41 358.99 637.41 358.98 637.42 358.96 637.43 358.94 637.44 358.93 637.45 358.91 637.46 358.88 637.47 358.87 637.47 358.86 637.48 358.84 637.49 358.82 637.51 358.79 637.52 358.78 637.53 358.76 637.54 358.75 637.56 358.74 637.58 358.74 637.6 358.74 637.61 358.74 637.63 358.73 637.65 358.73 637.66 358.73 637.68 358.73 637.7 358.72 637.72 358.72 637.73 358.72 637.74 358.72 637.76 358.72 637.78 358.72 637.8 358.73 637.82 358.73 637.84 358.73 637.86 358.74 637.87 358.74 637.89 358.75 637.9 358.76 637.92 358.77 637.95 358.79 637.96 358.79 637.98 358.8 637.99 358.81 637.99 358.79 637.93 358.47 637.7 357.03 637.9 357.08 638.11 357.13 638.32 357.16 638.54 357.19 638.76 357.21 638.89 357.22 639.05 357.22 639.17 357.22 639.29 357.22 639.31 357.22 639.35 357.22 639.4 357.22 639.42 357.21 639.46 357.21 639.48 357.21 639.5 357.21 639.52 357.21 639.55 357.21 639.59 357.21 639.6 357.21 639.62 357.21 639.66 357.2 639.71 357.2 639.73 357.2 639.75 357.2 639.78 357.2 639.82 357.2 639.83 357.2 639.85 357.2 639.87 357.2 639.88 357.2 639.9 357.19 639.92 357.19 639.93 357.19 639.95 357.19 639.97 357.19 639.99 357.19 640.01 357.18 640.02 357.18 640.04 357.18 640.06 357.18 640.08 357.18 640.09 357.17 640.11 357.17 640.13 357.16 640.15 357.16 640.16 357.15 640.18 357.15 640.2 357.14 640.22 357.14 640.24 357.13 640.25 357.13 640.27 357.12 640.28 357.11 640.31 357.1 640.33 357.09 640.37 357.08 640.38 357.07 640.43 357.05 640.45 357.05 640.48 357.03 640.5 357.02 640.51 357.02 640.53 357.02 640.54 357.01 640.56 357 640.58 357 640.59 356.99 640.6 356.99 640.62 356.98 640.65 356.97 640.67 356.97 640.7 356.96 640.71 356.95 640.73 356.95 640.75 356.94 640.8 356.92 640.82 356.92 640.85 356.91 640.89 356.9 640.91 356.89 640.98 356.88 641.02 356.86 641.06 356.85 641.07 356.85 641.09 356.85 641.12 356.84 641.14 356.83 641.15 356.83 641.17 356.83 641.19 356.82 641.2 356.82 641.22 356.82 641.24 356.81 641.26 356.81 641.27 356.81 641.29 356.8 641.3 356.8 641.32 356.8 641.34 356.79 641.36 356.79 641.37 356.79 641.39 356.78 641.41 356.78 641.42 356.78 641.43 356.77 641.47 356.77 641.49 356.77 641.51 356.76 641.52 356.76 641.54 356.76 641.56 356.76 641.57 356.75 641.59 356.75 641.61 356.75 641.63 356.74 641.64 356.74 641.66 356.73 641.68 356.73 641.69 356.72 641.71 356.72 641.73 356.72 641.75 356.71 641.77 356.71 641.78 356.71 641.8 356.7 641.82 356.7 641.83 356.7 641.87 356.69 641.89 356.69 641.94 356.68 641.95 356.68 641.99 356.67 642.03 356.66 642.11 356.65 642.15 356.64 642.18 356.63 642.26 356.62 642.29 356.61 642.31 356.61 642.33 356.61 642.34 356.6 642.36 356.6 642.41 356.59 642.46 356.58 642.48 356.58 642.51 356.57 642.51 356.56 642.52 356.45 642.52 356.4 642.52 356.4 642.52 356.37 642.52 356.36 642.52 356.35 642.52 356.33 642.52 356.31 642.52 356.3 642.52 356.28 642.52 356.25 642.52 356.23 642.52 356.21 642.52 356.2 642.52 356.18 642.52 356.16 642.52 356.13 642.52 356.11 642.53 356.09 642.53 356.08 642.53 356.05 642.53 356.03 642.53 356.01 642.53 355.99 642.53 355.98 642.53 355.95 642.53 355.92 642.53 355.9 642.54 355.88 642.54 355.87 642.54 355.85 642.54 355.83 642.54 355.81 642.55 355.8 642.55 355.79 642.55 355.77 642.55 355.75 642.56 355.74 642.56 355.73 642.56 355.71 642.57 355.69 642.58 355.68 642.58 355.66 642.59 355.65 642.61 355.63 642.62 355.62 642.63 355.61 642.64 355.6 642.66 355.58 642.68 355.57 642.69 355.55 642.7 355.54 642.72 355.51 642.73 355.5 642.75 355.49 642.76 355.47 642.76 355.46 642.77 355.45 642.78 355.44 642.79 355.42 642.8 355.41 642.8 355.4 642.81 355.38 642.81 355.37 642.81 355.2 642.81 354.91 643.94 354.44 644.13 354.36 644.78 354.03 646.04 353.9 647.46 353.45 648.88 353.12 649.41 352.84 649.76 352.78 650.14 352.6 650.48 352.61 650.87 352.49 651.06 352.51 652.1 352.62 652.89 352.67 653.07 352.69 653.08 352.69 653.09 352.69 653.13 352.68 653.15 352.68 653.2 352.68 653.23 352.68 653.25 352.68 653.27 352.68 653.28 352.68 653.3 352.68 653.32 352.68 653.35 352.68 653.4 352.68 653.44 352.68 653.45 352.68 653.47 352.68 653.49 352.68 653.51 352.68 653.54 352.69 653.56 352.69 653.58 352.69 653.59 352.69 653.61 352.69 653.63 352.69 653.65 352.69 653.66 352.69 653.68 352.69 653.69 352.7 653.71 352.7 653.73 352.7 653.75 352.7 653.76 352.71 653.77 352.71 653.79 352.71 653.81 352.71 653.83 352.71 653.84 352.72 653.86 352.72 653.88 352.72 653.89 352.72 653.91 352.73 653.93 352.73 653.95 352.74 653.96 352.74 653.98 352.74 653.99 352.75 654.01 352.75 654.03 352.76 654.04 352.76 654.05 352.77 654.07 352.77 654.08 352.78 654.1 352.78 654.12 352.79 654.14 352.79 654.16 352.8 654.17 352.81 654.19 352.81 654.21 352.82 654.22 352.82 654.23 352.83 654.25 352.84 654.26 352.85 654.28 352.85 654.29 352.86 654.31 352.87 654.32 352.88 654.85 352.66 655.23 352.32 656.01 352.05 656.1 352.02 657.7 351.98 658.42 352.06 658.48 351.96 658.69 351.6 658.71 351.58 659.29 351.23 659.48 351.28 659.86 351.37 659.88 351.38 660.03 351.42 660.4 351.46 Z"/>
</g></svg>