<svg xmlns="http://www.w3.org/2000/svg" version="1.2" baseProfile="tiny" stroke-linecap="round" stroke-linejoin="round" viewBox="243.57 201.67 33.68 33.13"><g xmlns="http://www.w3.org/2000/svg" id="Eskoriatza">
<path d="M 264.94 201.8 265.57 202.6 265.76 203.03 266.18 203.79 266.38 204.13 266.8 205.05 267.52 205.99 268.18 206.77 268.04 207.28 267.9 207.87 269.05 208.95 269.2 209.1 269.41 209.26 269.53 209.71 269.57 210.64 269.59 211.44 269.5 211.82 269.23 212.21 270.02 212.74 271.96 211.51 272.08 210.23 272.46 210.49 272.84 211.09 272.89 212.18 272.47 212.86 273.08 214.52 272.38 214.54 272.91 215.84 271.9 216.67 272.27 217.46 272.77 218.29 273.73 219.2 273.7 220.64 274.19 221.34 274.06 221.98 274.99 224.76 275.15 225.9 275.25 226.55 275.32 227.01 275.41 227.47 276 229.07 276.34 230.35 276.96 232.37 277.23 232.86 276.8 232.9 275.92 233.07 275.07 233.45 273.76 234.46 272.99 234.76 271.66 234.78 270.03 234.08 268.22 232.78 266.56 232.12 266.1 231.87 265.77 231.62 265.41 231.34 264.93 231.04 264.48 230.73 264.1 230.43 263.73 230.16 263.24 229.89 262.56 229.55 262.38 228.32 261.54 226.64 260.58 225.72 259.91 225.29 259.24 224.86 258.14 224.44 257.34 223.81 256.92 223.6 256.62 223.33 255.02 221.93 254.46 221.94 254.17 221.94 253.72 221.96 253.03 222.01 252.95 222.01 252.48 222.04 252.01 221.78 251.99 221.85 251.98 221.89 251.93 221.91 251.9 221.94 251.88 221.95 251.87 221.96 251.85 221.98 251.83 221.99 251.78 222.01 251.76 222.02 251.7 222.02 251.68 222.01 251.65 222.02 251.61 222.03 251.58 222.04 251.55 222.05 251.52 222.05 251.49 222.07 251.45 222.09 251.41 222.11 251.39 222.13 251.35 222.14 251.32 222.16 251.27 222.17 251.24 222.18 251.18 222.2 251.13 222.21 251.06 222.24 251.02 222.25 250.97 222.26 250.91 222.27 250.89 222.28 250.87 222.29 250.85 222.29 250.81 222.29 250.78 222.3 250.75 222.31 250.72 222.31 250.69 222.33 250.65 222.33 250.62 222.34 250.58 222.36 250.55 222.38 250.53 222.39 250.48 222.4 250.42 222.42 250.39 222.44 250.33 222.47 249.6 222.83 249.4 223.17 249.26 223.31 248.99 223.48 248.21 223.73 247.47 224.24 246.87 224.67 246.33 224.84 246.07 225.01 246.02 224.69 245.84 224.23 245.81 224 245.73 223.82 245.56 223.61 245.37 223.42 245.17 223.06 244.98 222.78 244.81 222.47 244.67 222.17 244.54 221.78 244.4 221.46 244.24 221.09 244.09 220.46 243.85 220.01 243.65 219.64 243.59 219.33 243.67 218.81 243.75 218.52 243.93 218.09 244.04 217.68 244.24 217.26 244.42 216.62 244.66 216.04 245.51 216.12 246.03 216.22 246.5 216.55 247.08 216.42 247.5 216.12 247.92 216.05 248.39 216.14 248.75 216.27 249.15 216.04 249.57 215.73 249.99 215.34 250.54 214.82 251.13 214.29 251.77 213.76 252.37 213.26 252.97 212.81 253.59 212.37 254.24 212.1 254.84 211.91 255.45 211.74 255.99 211.47 256.57 211.26 256.99 211.25 257.61 211.39 258.09 211.53 258.5 211.5 258.9 211.21 259.4 210.84 259.92 210.27 260.39 209.66 260.55 209.16 260.53 208.56 260.52 207.71 260.55 206.82 260.72 206.5 261.13 206.08 261.6 205.59 261.86 205.17 262.19 204.52 262.5 204.01 262.86 203.54 263.11 203.17 263.37 202.68 263.63 202.16 264.07 201.68 264.48 201.69 264.94 201.8 Z"/>
</g></svg>