<svg xmlns="http://www.w3.org/2000/svg" version="1.2" baseProfile="tiny" stroke-linecap="round" stroke-linejoin="round" viewBox="559.72 372.58 20.85 26.02"><g xmlns="http://www.w3.org/2000/svg" id="Eslaba">
<path d="M 559.73 372.84 559.79 372.78 559.82 372.74 559.86 372.68 559.89 372.64 559.93 372.61 559.94 372.6 559.96 372.59 559.97 372.59 560 372.6 560.01 372.6 560.05 372.62 560.1 372.65 560.16 372.69 560.21 372.72 560.24 372.74 560.29 372.77 560.34 372.8 560.39 372.83 560.43 372.85 560.51 372.89 560.58 372.92 560.62 372.93 560.64 372.94 560.65 372.95 560.66 372.96 560.68 372.98 560.7 373.01 560.73 373.07 560.75 373.12 560.79 373.17 560.84 373.21 560.89 373.25 560.94 373.28 561.02 373.32 561.1 373.35 561.18 373.36 561.25 373.36 561.33 373.37 561.4 373.37 561.53 373.37 561.61 373.35 561.7 373.32 561.77 373.3 561.87 373.28 562.04 373.26 562.07 373.26 562.14 373.44 562.18 373.43 562.22 373.43 562.27 373.42 562.33 373.41 562.4 373.4 562.48 373.39 562.53 373.38 562.56 373.37 562.6 373.37 562.67 373.36 562.77 373.36 562.82 373.35 562.88 373.34 562.95 373.33 563.01 373.33 563.07 373.32 563.16 373.31 563.21 373.3 563.25 373.31 563.28 373.32 563.3 373.33 563.31 373.33 563.32 373.32 563.34 373.31 563.38 373.29 563.42 373.29 563.49 373.28 563.54 373.27 563.58 373.27 563.63 373.28 563.66 373.28 563.71 373.29 563.74 373.3 563.78 373.31 563.86 373.33 563.9 373.33 563.99 373.34 564.05 373.34 564.12 373.34 564.19 373.34 564.28 373.35 564.34 373.36 564.38 373.36 564.46 373.35 564.48 373.35 564.5 373.35 564.72 373.33 565.06 373.31 565.25 373.3 565.29 373.3 565.3 373.3 565.33 373.3 565.36 373.29 565.38 373.29 565.4 373.3 565.43 373.31 565.45 373.32 565.5 373.35 565.56 373.37 565.63 373.4 565.67 373.42 565.73 373.46 565.79 373.48 565.89 373.52 565.94 373.54 566 373.56 566.06 373.58 566.14 373.61 566.17 373.62 566.2 373.65 566.25 373.68 566.32 373.73 566.4 373.78 566.48 373.83 566.55 373.87 566.61 373.9 566.69 373.95 566.73 373.98 566.75 373.99 566.82 374.01 566.89 374.04 566.94 374.04 566.99 374.06 567.04 374.07 567.1 374.08 567.16 374.09 567.21 374.09 567.25 374.1 567.29 374.1 567.32 374.11 567.34 374.13 567.37 374.14 567.4 374.17 567.43 374.19 567.46 374.22 567.48 374.23 567.5 374.24 567.56 374.28 567.65 374.32 567.72 374.34 567.81 374.37 567.87 374.4 567.95 374.43 568.01 374.44 568.06 374.45 568.12 374.47 568.2 374.47 568.25 374.47 568.32 374.48 568.4 374.49 568.48 374.49 568.54 374.5 568.6 374.51 568.68 374.53 568.75 374.54 568.81 374.55 568.89 374.54 568.92 374.54 568.97 374.54 569.07 374.53 569.15 374.53 569.25 374.53 569.35 374.53 569.38 374.53 569.41 374.52 569.48 374.52 569.54 374.51 569.61 374.51 569.68 374.5 569.75 374.5 569.81 374.5 569.88 374.5 569.92 374.5 569.97 374.49 570.02 374.48 570.03 374.48 570.08 374.47 570.1 374.45 570.12 374.44 570.14 374.42 570.17 374.47 570.2 374.5 570.23 374.53 570.28 374.56 570.34 374.6 570.39 374.63 570.44 374.66 570.47 374.68 570.48 374.69 570.5 374.71 570.58 374.77 570.64 374.81 570.7 374.86 570.73 374.88 570.75 374.91 570.78 374.95 570.82 375.02 570.83 375.03 570.85 375.06 570.86 375.08 570.94 375.16 571.03 375.23 571.11 375.29 571.19 375.36 571.23 375.38 571.24 375.44 571.24 375.5 571.25 375.55 571.25 375.6 571.27 375.65 571.29 375.69 571.31 375.73 571.33 375.76 571.34 375.78 571.36 375.81 571.37 375.83 571.39 375.85 571.4 375.87 571.43 375.91 571.45 375.93 571.47 375.96 571.49 376 571.49 376.01 571.51 376.04 571.53 376.06 571.57 376.08 571.62 376.1 571.68 376.11 571.75 376.12 571.78 376.13 571.83 376.14 571.91 376.15 571.97 376.16 572.04 376.17 572.05 376.2 572.09 376.25 572.13 376.29 572.22 376.39 572.24 376.4 572.26 376.41 572.29 376.43 572.32 376.47 572.38 376.53 572.43 376.59 572.49 376.65 572.51 376.63 572.56 376.58 572.72 376.41 572.74 376.39 572.76 376.37 572.8 376.29 572.84 376.23 572.89 376.15 572.94 376.07 572.99 375.99 573.81 376.38 574.04 376.42 574.18 376.45 574.46 376.77 574.54 376.86 574.88 377.15 574.94 377.2 574.93 377.22 574.77 377.61 574.89 377.76 575.04 377.86 575.13 377.86 575.26 377.86 575.36 377.88 575.47 377.91 575.54 378.01 575.56 378.06 575.63 378.15 575.71 378.22 575.86 378.31 575.96 378.36 576.09 378.39 576.21 378.41 576.32 378.41 576.44 378.4 576.56 378.38 576.63 378.35 576.7 378.33 576.72 378.33 576.75 378.33 576.78 378.35 576.94 378.43 576.96 378.43 576.97 378.44 577 378.46 577.05 378.48 577.1 378.5 577.16 378.52 577.22 378.53 577.29 378.56 577.35 378.58 577.41 378.6 577.47 378.6 577.53 378.61 577.58 378.62 577.64 378.65 577.68 378.67 577.71 378.69 577.77 378.71 577.81 378.73 577.85 378.73 577.89 378.73 577.93 378.73 577.99 378.71 578.31 378.61 578.33 378.61 578.37 378.6 578.39 378.61 578.42 378.62 578.46 378.65 578.49 378.67 578.54 378.7 578.61 378.74 578.62 378.74 578.68 378.76 578.74 378.78 578.8 378.79 578.84 378.79 578.91 378.8 578.95 378.81 578.97 378.81 579.01 378.83 579.06 378.85 579.12 378.87 579.16 378.89 579.21 378.89 579.28 378.9 579.31 378.91 579.34 378.92 579.36 378.93 579.39 378.95 579.43 378.98 579.46 378.99 579.5 379.01 579.51 379.01 579.54 379.02 579.58 379.04 579.68 379.07 579.8 379.11 579.98 379.19 579.81 379.69 579.85 379.78 579.86 379.82 579.86 379.86 579.86 379.88 579.89 379.98 579.91 380.05 579.92 380.08 579.93 380.16 579.94 380.19 579.94 380.2 579.96 380.3 579.96 380.4 579.98 380.46 579.99 380.5 579.99 380.57 579.99 380.65 579.99 380.66 579.99 380.67 579.98 380.71 579.98 380.74 579.99 380.77 579.99 380.82 580.01 380.88 580.03 380.96 580.06 381.01 580.06 381.06 580.06 381.1 580.06 381.13 580.08 381.19 580.1 381.3 580.14 381.39 580.14 381.4 580.15 381.44 580.15 381.49 580.15 381.51 580.15 381.55 580.15 381.65 580.16 381.7 580.15 381.78 580.15 381.79 580.16 381.88 580.16 381.9 580.17 381.92 580.17 381.96 580.18 382.01 580.19 382.17 580.18 382.25 580.17 382.32 580.16 382.39 580.15 382.42 580.15 382.44 580.14 382.54 580.13 382.58 580.13 382.59 580.13 382.62 580.14 382.7 580.1 382.85 580.1 382.85 580.09 382.87 580.08 382.93 580.07 382.99 580.06 383.03 580.05 383.06 580.03 383.11 580.03 383.17 580.03 383.24 580.03 383.27 580.02 383.33 580.02 383.39 580 383.52 579.99 383.54 579.99 383.61 580.01 383.79 580.01 383.81 580.01 383.97 580.02 384.06 580.04 384.15 580.06 384.26 580.06 384.3 580.06 384.36 580.06 384.38 580.05 384.4 580.04 384.44 580.03 384.48 580.03 384.5 580.03 384.52 580.02 384.55 580.01 384.57 579.99 384.6 579.98 384.64 579.98 384.66 579.98 384.68 579.98 384.72 579.98 384.75 580 384.95 580.02 385.09 580.07 385.43 580.07 385.44 580.07 385.45 580.08 385.46 580.09 385.54 580.11 385.69 580.14 385.87 580.18 386.15 580.19 386.17 580.2 386.23 580.21 386.29 580.22 386.33 580.23 386.36 580.23 386.38 580.23 386.4 580.24 386.47 580.24 386.53 580.24 386.6 580.23 386.71 580.24 386.73 580.25 386.74 580.27 386.78 580.27 386.79 580.28 386.81 580.28 386.82 580.28 386.84 580.28 386.87 580.27 386.91 580.25 386.94 580.23 386.97 580.22 386.97 580.22 386.98 580.24 387.02 580.25 387.04 580.26 387.05 580.26 387.06 580.27 387.07 580.27 387.08 580.28 387.09 580.29 387.1 580.3 387.12 580.31 387.14 580.31 387.16 580.32 387.21 580.32 387.27 580.33 387.33 580.34 387.39 580.34 387.44 580.34 387.49 580.35 387.54 580.35 387.57 580.35 387.61 580.35 387.63 580.35 387.65 580.36 387.68 580.36 387.72 580.36 387.75 580.36 387.78 580.36 387.81 580.35 387.84 580.35 387.87 580.35 387.9 580.35 387.98 580.35 388.03 580.36 388.09 580.36 388.15 580.36 388.19 580.37 388.24 580.37 388.27 580.38 388.32 580.38 388.36 580.39 388.39 580.39 388.43 580.4 388.45 580.4 388.48 580.4 388.5 580.4 388.53 580.41 388.56 580.42 388.61 580.43 388.63 580.43 388.66 580.44 388.69 580.44 388.71 580.45 388.74 580.46 388.77 580.47 388.84 580.48 388.87 580.49 388.91 580.5 388.99 580.54 389.19 580.54 389.21 580.54 389.22 580.54 389.23 580.54 389.27 580.55 389.32 580.56 389.37 580.56 389.38 580.55 389.41 580.53 389.42 580.5 389.45 580.48 389.46 580.46 389.47 580.45 389.5 580.44 389.52 580.42 389.56 580.42 389.58 580.39 389.66 580.34 389.79 580.33 389.83 580.32 389.87 580.29 389.94 580.28 389.97 580.26 390.04 580.26 390.06 580.22 390.17 580.2 390.24 580.19 390.28 580.19 390.32 580.17 390.35 580.14 390.38 580.13 390.4 580.08 390.46 580.02 390.5 579.96 390.54 579.91 390.57 579.89 390.58 579.88 390.61 579.87 390.62 579.87 390.63 579.86 390.65 579.85 390.67 579.83 390.69 579.8 390.74 579.77 390.78 579.74 390.81 579.73 390.83 579.7 390.89 579.63 391.02 579.6 391.07 579.57 391.07 579.55 391.08 579.52 391.1 579.47 391.14 579.46 391.15 579.42 391.18 579.39 391.2 579.37 391.22 579.37 391.24 579.37 391.28 579.38 391.32 579.39 391.37 579.4 391.42 579.4 391.46 579.4 391.52 579.41 391.61 579.41 391.7 579.4 391.71 579.18 391.7 579.15 391.75 579.11 391.81 579.1 391.83 579.1 391.83 579.08 391.86 579.06 391.9 579.04 391.94 579.02 391.98 579 392.04 579 392.05 578.98 392.08 578.98 392.1 578.96 392.13 578.93 392.16 578.9 392.21 578.9 392.21 578.88 392.23 578.85 392.27 578.81 392.34 578.77 392.41 578.75 392.44 578.71 392.52 578.66 392.6 578.63 392.66 578.69 392.66 578.67 392.71 578.57 392.88 578.55 392.91 578.54 392.92 578.53 393 578.52 393.06 578.52 393.08 578.51 393.12 578.5 393.16 578.5 393.2 578.48 393.28 578.45 393.35 578.44 393.37 578.43 393.41 578.42 393.43 578.41 393.46 578.39 393.49 578.38 393.52 578.37 393.54 578.37 393.56 578.35 393.61 578.32 393.67 578.27 393.75 578.25 393.79 578.24 393.81 578.23 393.84 578.22 393.88 578.22 393.91 578.24 393.94 578.24 393.95 578.25 393.98 578.27 394.02 578.27 394.05 578.27 394.07 578.26 394.13 578.24 394.18 578.23 394.2 578.22 394.25 578.2 394.31 578.19 394.34 578.18 394.38 578.16 394.5 578.13 394.61 578.11 394.7 578.09 394.74 578.04 394.93 578.03 395 578.04 395.03 578.05 395.06 578.05 395.07 578.06 395.09 578.07 395.13 578.08 395.16 578.08 395.19 578.08 395.23 578.08 395.28 578.07 395.33 578.05 395.38 578.02 395.5 578.01 395.53 577.98 395.62 577.95 395.72 577.94 395.8 577.92 395.85 577.91 395.89 577.9 395.97 577.89 396 577.88 396.05 577.88 396.08 577.87 396.14 577.86 396.23 577.86 396.31 577.85 396.36 577.85 396.44 577.85 396.54 577.85 396.57 577.86 396.6 577.87 396.67 577.88 396.73 577.89 396.81 577.89 396.83 577.88 396.87 577.87 396.91 577.84 397 577.77 397.12 577.74 397.18 577.72 397.21 577.71 397.26 577.71 397.3 577.71 397.39 577.7 397.49 577.71 397.61 577.7 397.65 577.7 397.7 577.71 397.75 577.72 397.81 577.73 397.85 577.74 397.9 577.74 397.95 577.75 398 577.76 398.02 577.76 398.06 577.77 398.13 577.77 398.19 577.78 398.26 577.8 398.34 577.81 398.4 577.82 398.48 577.86 398.58 577.81 398.58 577.77 398.58 577.7 398.57 577.64 398.57 577.59 398.57 577.53 398.56 577.47 398.55 577.4 398.54 577.34 398.53 577.26 398.52 577.18 398.5 577.12 398.47 577.07 398.44 577.04 398.43 576.98 398.42 576.92 398.41 576.85 398.39 576.77 398.38 576.72 398.36 576.67 398.36 576.63 398.36 576.6 398.36 576.54 398.36 576.49 398.34 576.41 398.33 576.34 398.32 576.25 398.3 576.17 398.28 576.1 398.27 576.04 398.26 576.01 398.25 575.97 398.24 575.9 398.22 575.85 398.2 575.78 398.18 575.72 398.15 575.65 398.11 575.59 398.08 575.5 398.03 575.45 398 575.39 397.97 575.33 397.95 575.27 397.92 575.22 397.89 575.17 397.85 575.12 397.82 575.08 397.8 575.05 397.8 574.99 397.8 574.94 397.79 574.87 397.77 574.8 397.75 574.71 397.73 574.62 397.69 574.55 397.67 574.46 397.65 574.39 397.63 574.31 397.62 574.26 397.61 574.21 397.59 574.15 397.57 574.1 397.56 574.06 397.55 574 397.54 573.94 397.53 573.89 397.51 573.83 397.5 573.75 397.48 573.7 397.46 573.64 397.45 573.58 397.44 573.54 397.44 573.49 397.44 573.45 397.45 573.41 397.45 573.36 397.44 573.31 397.43 573.26 397.41 573.21 397.4 573.18 397.39 573.14 397.38 573.1 397.39 573.06 397.39 573.02 397.38 572.98 397.37 572.94 397.36 572.89 397.35 572.84 397.34 572.78 397.33 572.71 397.32 572.67 397.31 572.6 397.29 572.55 397.28 572.5 397.26 572.45 397.25 572.4 397.24 572.34 397.23 572.29 397.22 572.24 397.2 572.2 397.18 572.16 397.16 572.1 397.16 572.04 397.13 572.06 397.07 572.07 397.02 572.08 396.97 572.09 396.91 572.09 396.86 572.09 396.8 572.1 396.75 572.11 396.7 572.12 396.61 572.12 396.6 572.12 396.59 572.12 396.54 572.12 396.49 572.12 396.41 572.12 396.35 572.12 396.26 572.13 396.17 572.13 396.1 572.14 396.06 572.14 396.01 572.15 395.97 572.15 395.94 572.16 395.92 572.18 395.86 572.18 395.84 572.18 395.82 572.19 395.81 572.2 395.76 572.21 395.71 572.22 395.65 572.23 395.6 572.23 395.57 572.25 395.49 572.26 395.41 572.27 395.33 572.27 395.31 572.27 395.27 572.28 395.22 572.28 395.17 572.28 395.1 572.29 395.03 572.29 394.98 572.3 394.93 572.31 394.88 572.31 394.85 572.32 394.8 572.32 394.75 572.33 394.71 572.34 394.64 572.34 394.62 572.35 394.59 572.35 394.58 572.35 394.51 572.35 394.44 572.35 394.38 572.35 394.36 572.35 394.31 572.35 394.28 572.35 394.25 572.36 394.2 572.36 394.18 572.36 394.15 572.37 394.12 572.37 394.06 572.38 393.97 572.39 393.88 572.4 393.86 572.42 393.68 572.42 393.66 572.43 393.63 572.45 393.56 572.47 393.5 572.48 393.44 572.51 393.35 572.52 393.29 572.53 393.27 572.53 393.24 572.54 393.19 572.54 393.15 572.55 393.13 572.55 393.11 572.56 393.09 572.58 393.02 572.58 392.97 572.59 392.96 572.6 392.91 572.6 392.9 572.6 392.89 572.6 392.8 572.59 392.74 572.58 392.6 572.58 392.51 572.58 392.45 572.59 392.39 572.59 392.35 572.59 392.32 572.59 392.25 572.58 392.13 572.57 392.05 572.56 391.98 572.55 391.92 572.53 391.83 572.5 391.77 572.49 391.73 572.46 391.68 572.42 391.63 572.37 391.58 572.32 391.54 572.28 391.51 572.24 391.5 572.2 391.48 572.16 391.46 572.1 391.44 572.06 391.43 572.04 391.42 571.98 391.42 571.92 391.42 571.89 391.42 571.79 391.42 571.77 391.35 571.76 391.28 571.75 391.27 571.75 391.23 571.71 391.22 571.65 391.2 571.59 391.18 571.53 391.15 571.48 391.14 571.43 391.12 571.38 391.09 571.3 391.05 571.21 390.99 571.14 390.94 571.09 390.91 571.01 390.86 570.92 390.81 570.82 390.77 570.83 390.69 570.83 390.65 570.84 390.63 570.78 390.59 570.75 390.56 570.73 390.51 570.69 390.48 570.65 390.48 570.57 390.5 570.52 390.51 570.5 390.49 570.49 390.49 570.47 390.45 570.44 390.41 570.39 390.35 570.34 390.28 570.32 390.26 570.3 390.23 570.28 390.22 570.27 390.21 570.24 390.18 570.18 390.14 570.13 390.12 570.09 390.1 570.03 390.06 569.97 390.02 569.9 389.97 569.86 389.94 569.79 389.9 569.74 389.86 569.73 389.86 569.72 389.85 569.61 389.79 569.51 389.74 569.49 389.72 569.47 389.71 569.38 389.67 569.37 389.67 569.35 389.66 569.18 389.58 569.12 389.55 569.06 389.53 569.05 389.53 569.01 389.5 568.99 389.48 569 389.44 569.01 389.41 569.02 389.36 569.02 389.31 569.02 389.27 569.02 389.22 569.02 389.16 569.02 389.1 569.02 389.05 569.02 389 569.02 388.95 569.03 388.94 569.04 388.91 569.07 388.87 569.07 388.85 569.07 388.81 569.07 388.77 569.06 388.75 569.04 388.71 569.02 388.68 569 388.65 568.98 388.61 568.97 388.56 568.96 388.51 568.94 388.47 568.92 388.43 568.89 388.4 568.86 388.38 568.83 388.36 568.83 388.35 568.83 388.3 568.83 388.23 568.82 388.2 568.82 388.15 568.82 388.09 568.81 388.02 568.87 388.01 568.91 387.99 568.94 387.97 568.95 387.97 568.95 387.96 568.91 387.9 568.89 387.84 568.88 387.78 568.87 387.73 568.87 387.68 568.87 387.62 568.87 387.6 568.87 387.58 568.88 387.54 568.89 387.52 568.9 387.5 568.91 387.48 568.91 387.44 568.93 387.4 568.94 387.37 568.97 387.31 569.01 387.25 569.02 387.23 569.03 387.22 569.03 387.19 569.03 387.16 569.03 387.12 569.01 387.03 569.01 386.98 568.99 386.94 568.99 386.92 568.98 386.9 568.97 386.87 568.97 386.83 568.97 386.78 568.97 386.74 568.95 386.71 568.92 386.68 568.89 386.64 568.88 386.57 568.87 386.51 568.86 386.48 568.84 386.39 568.83 386.33 568.83 386.29 568.79 386.22 568.79 386.18 568.74 386.1 568.73 386.05 568.72 386.02 568.72 386 568.72 385.97 568.72 385.93 568.72 385.87 568.72 385.84 568.72 385.82 568.73 385.79 568.74 385.77 568.76 385.72 568.79 385.65 568.82 385.58 568.84 385.51 568.86 385.46 568.88 385.4 568.89 385.39 568.9 385.35 568.92 385.3 568.94 385.26 568.95 385.23 568.97 385.22 569 385.2 569.02 385.17 569.06 385.07 569.07 385.04 569.08 385 569.08 384.95 569.08 384.91 569.08 384.9 569.08 384.89 569.08 384.87 569.07 384.86 569.06 384.83 569.04 384.78 569.03 384.73 569.02 384.7 569.02 384.68 569.02 384.65 569.01 384.58 569 384.57 569 384.55 569 384.53 569 384.52 568.99 384.49 568.99 384.45 568.98 384.41 568.98 384.41 568.98 384.39 568.98 384.37 568.98 384.35 568.98 384.34 568.97 384.33 568.97 384.31 568.96 384.26 568.96 384.2 568.96 384.14 568.95 384.09 568.95 384.04 568.95 384.02 568.95 384.01 568.94 383.96 568.94 383.91 568.93 383.88 568.92 383.85 568.92 383.81 568.92 383.76 568.92 383.72 568.92 383.66 568.91 383.61 568.9 383.56 568.89 383.52 568.88 383.48 568.86 383.42 568.85 383.36 568.84 383.32 568.84 383.29 568.83 383.24 568.83 383.21 568.82 383.12 568.81 383.02 568.8 383 568.8 382.93 568.79 382.9 568.78 382.86 568.78 382.82 568.77 382.77 568.76 382.74 568.75 382.68 568.75 382.66 568.74 382.6 568.74 382.56 568.73 382.47 568.72 382.42 568.7 382.33 568.68 382.26 568.66 382.2 568.65 382.16 568.65 382.14 568.64 382.13 568.63 382.08 568.61 382.04 568.6 382.01 568.58 381.98 568.58 381.95 568.55 381.83 568.53 381.76 568.46 381.56 568.46 381.55 568.41 381.54 568.35 381.53 568.3 381.53 568.28 381.53 568.23 381.54 568.18 381.55 568.12 381.57 568.07 381.59 568.03 381.6 568.02 381.61 567.97 381.64 567.91 381.67 567.89 381.69 567.86 381.69 567.82 381.7 567.79 381.7 567.77 381.7 567.74 381.69 567.71 381.68 567.68 381.67 567.64 381.65 567.63 381.64 567.6 381.62 567.56 381.6 567.53 381.59 567.5 381.57 567.46 381.54 567.41 381.51 567.34 381.46 567.26 381.42 567.2 381.4 567.2 381.35 567.19 381.31 567.18 381.27 567.16 381.24 567.14 381.19 567.13 381.17 567.09 381.12 567.04 381.04 566.99 380.98 566.94 380.91 566.9 380.87 566.86 380.82 566.81 380.77 566.75 380.72 566.69 380.65 566.63 380.59 566.62 380.58 566.58 380.55 566.57 380.54 566.48 380.45 566.46 380.43 566.44 380.4 566.4 380.37 566.37 380.33 566.31 380.27 566.27 380.21 566.24 380.16 566.21 380.12 566.16 380.08 566.11 380.01 566.07 379.96 566.02 379.9 565.97 379.86 565.97 379.84 565.89 379.77 565.83 379.71 565.76 379.63 565.71 379.57 565.67 379.53 565.6 379.43 565.55 379.36 565.52 379.32 565.48 379.29 565.45 379.25 565.42 379.22 565.39 379.2 565.37 379.2 565.33 379.19 565.3 379.19 565.29 379.18 565.25 379.18 565.21 379.18 565.16 379.18 565.09 379.18 564.97 378.99 564.88 378.88 564.87 378.86 564.82 378.8 564.75 378.72 564.71 378.66 564.65 378.57 564.58 378.48 564.52 378.41 564.48 378.35 564.36 378.21 564.35 378.2 564.33 378.17 564.32 378.15 564.26 378.11 564.18 378.04 564.15 378.02 564 377.88 563.99 377.87 563.86 377.76 563.84 377.74 563.76 377.67 563.69 377.61 563.62 377.56 563.55 377.51 563.45 377.44 563.4 377.41 563.33 377.35 563.28 377.28 563.26 377.25 563.22 377.2 563.2 377.17 563.15 377.13 563.08 377.09 563.07 377.08 563.02 377.04 562.99 376.98 562.95 376.88 562.91 376.8 562.85 376.63 562.84 376.59 562.81 376.52 562.8 376.49 562.78 376.45 562.76 376.42 562.73 376.38 562.7 376.34 562.66 376.28 562.6 376.21 562.53 376.15 562.45 376.06 562.38 376 562.33 375.93 562.3 375.88 562.28 375.83 562.24 375.75 562.21 375.7 562.21 375.68 562.22 375.59 562.26 375.49 562.28 375.42 562.28 375.37 562.27 375.34 562.24 375.31 562.17 375.29 562.04 375.23 561.91 375.18 561.89 375.17 561.85 375.15 561.75 375.07 561.65 375 561.53 374.9 561.45 374.83 561.37 374.78 561.35 374.76 561.32 374.73 561.24 374.64 561.12 374.54 561.08 374.51 561.02 374.45 560.96 374.38 560.89 374.3 560.84 374.23 560.82 374.21 560.78 374.16 560.73 374.1 560.69 374.05 560.6 373.99 560.57 373.97 560.48 373.88 560.46 373.85 560.41 373.79 560.36 373.75 560.32 373.71 560.28 373.7 560.27 373.69 560.21 373.63 560.15 373.57 560.13 373.55 560.12 373.48 560.13 373.39 560.14 373.32 560.11 373.25 560.08 373.18 560.04 373.11 559.99 373.05 559.94 372.99 559.89 372.96 559.87 372.94 559.81 372.89 559.77 372.86 559.73 372.84 Z"/>
</g></svg>