<svg xmlns="http://www.w3.org/2000/svg" version="1.2" baseProfile="tiny" stroke-linecap="round" stroke-linejoin="round" viewBox="531.68 194.75 36.8 85.83"><g xmlns="http://www.w3.org/2000/svg" id="Esteribar">
<path d="M 556.29 203.85 557.64 203.73 557.91 203.69 558.19 203.63 558.23 203.62 558.35 203.59 558.71 203.4 559.32 203.35 559.72 203.56 560.39 203.96 560.51 204.02 560.64 204.09 560.75 204.15 560.79 204.16 561.05 204.62 561.1 204.83 561.11 204.88 561.14 204.91 561.05 205.36 561.61 206.54 561.62 206.56 561.63 206.59 561.74 206.9 561.89 207.26 561.91 207.34 561.93 207.43 561.96 207.5 561.99 207.56 562.02 207.65 562.13 207.88 562.33 208.14 563.41 208.59 563.84 209.29 563.93 209.57 563.94 209.59 563.95 209.65 563.98 209.67 563.99 209.68 563.99 209.69 564.08 209.79 564.06 209.91 564.06 209.92 564.05 209.94 564 210.01 563.98 210.05 563.94 210.1 563.87 210.21 563.86 210.23 563.73 210.25 563.59 210.37 563.45 210.48 563.38 210.53 563.36 210.56 563.33 210.61 563.29 210.7 563.21 210.78 563.12 210.89 563.05 210.97 562.95 211.08 562.85 211.21 562.78 211.29 562.66 211.42 562.59 211.49 562.54 211.56 562.5 211.61 562.45 211.69 562.38 211.77 562.32 211.83 562.27 211.87 562.2 211.94 562.17 211.98 562.13 212.04 562.12 212.08 562.1 212.13 562.09 212.17 562.08 212.27 562.06 212.41 562.05 212.5 562.05 212.59 562.04 212.72 562.03 212.82 562.03 212.91 562.04 212.95 562.04 213.03 562.05 213.16 562.06 213.29 562.07 213.35 562.06 213.39 562.03 213.46 561.98 213.55 561.9 213.64 561.96 213.88 561.98 214.02 562.09 214.08 562.36 214.24 562.4 214.23 562.49 214.27 562.64 214.32 562.83 214.39 563.07 214.5 563.22 214.58 563.34 214.65 563.48 214.72 563.6 214.79 563.65 214.82 563.71 214.88 563.73 214.89 563.75 214.9 563.83 214.99 563.89 215.06 563.96 215.15 564.07 215.23 564.13 215.28 564.19 215.34 564.24 215.4 564.28 215.44 564.33 215.46 564.36 215.47 564.39 215.47 564.42 215.46 564.45 215.55 564.47 215.66 564.46 215.71 564.48 215.8 564.48 215.88 564.47 215.96 564.46 216.01 564.43 216.08 564.4 216.15 564.39 216.24 564.4 216.34 564.41 216.54 564.41 216.7 564.4 216.77 564.36 216.94 564.34 217.04 564.32 217.12 564.32 217.18 564.31 217.24 564.31 217.28 564.32 217.34 564.35 217.47 564.36 217.54 564.36 217.62 564.36 217.67 564.37 217.73 564.37 217.83 564.38 217.89 564.38 217.92 564.41 217.98 564.48 218.09 564.54 218.2 564.56 218.28 564.58 218.35 564.56 218.47 564.52 218.72 564.49 218.88 564.46 219.02 564.45 219.1 564.43 219.13 564.36 219.24 564.31 219.33 564.28 219.38 564.26 219.43 564.24 219.5 564.2 219.66 564.18 219.72 564.19 219.82 564.21 219.97 564.22 220.05 564.24 220.25 564.26 220.43 564.29 220.58 564.26 220.65 564.2 220.85 564.18 220.92 564.17 220.94 564.16 220.97 564.14 221 564.08 221.11 564.04 221.15 563.91 221.3 563.77 221.5 563.64 221.68 563.53 221.81 563.52 221.86 563.49 222.03 563.45 222.12 563.37 222.33 563.35 222.38 563.24 222.49 563.18 222.62 563.14 222.73 563.03 222.93 562.92 223.15 562.88 223.21 562.88 223.26 562.86 223.32 562.84 223.37 562.78 223.43 562.74 223.48 562.73 223.5 563.04 223.77 563.14 223.85 563.35 224.03 563.57 224.21 563.77 224.38 563.83 224.44 563.84 224.45 563.85 224.46 563.88 224.49 563.9 224.51 563.93 224.54 563.96 224.56 564 224.62 564 224.62 564 224.63 563.99 224.67 563.99 224.79 563.99 224.84 564 225.02 564 225.09 564 225.17 564 225.24 563.99 225.34 563.99 225.44 564 225.51 564 225.54 564 225.56 564 225.59 563.99 225.63 563.99 225.65 563.97 225.7 563.89 225.94 563.86 226.01 563.83 226.09 563.83 226.1 563.8 226.18 563.77 226.3 563.75 226.34 563.7 226.47 563.66 226.56 563.63 226.63 563.61 226.7 563.59 226.76 563.58 226.8 563.58 226.84 563.58 226.88 563.69 226.94 563.81 226.99 563.94 227.06 564.08 227.13 564.22 227.21 564.32 227.26 564.36 227.28 564.38 227.29 564.41 227.33 564.48 227.44 564.56 227.54 564.65 227.67 564.71 227.75 564.77 227.83 564.83 227.91 564.92 228.02 564.99 228.13 565.07 228.22 565.13 228.32 565.15 228.33 565.22 228.43 565.23 228.45 565.24 228.46 565.3 228.54 565.33 228.57 565.36 228.61 565.39 228.63 565.43 228.66 565.46 228.69 565.47 228.71 565.5 228.76 565.52 228.8 565.55 228.9 565.57 228.98 565.58 229.08 565.6 229.13 565.62 229.2 565.63 229.23 565.64 229.25 565.66 229.29 565.74 229.3 565.86 229.3 565.98 229.31 566.09 229.33 566.2 229.35 566.25 229.36 566.28 229.37 566.3 229.38 566.35 229.44 566.42 229.54 566.51 229.67 566.58 229.82 566.65 229.96 566.72 230.07 566.77 230.18 566.78 230.2 566.85 230.37 566.91 230.5 566.94 230.61 566.96 230.64 566.86 230.79 566.85 230.82 566.83 230.85 566.82 230.88 566.81 230.91 566.82 230.95 566.82 230.97 566.82 231 566.82 231.03 566.77 231.32 566.76 231.42 566.74 231.51 566.72 231.64 566.71 231.72 566.68 231.8 566.66 231.91 566.64 231.95 566.62 232.04 566.59 232.17 566.57 232.32 566.53 232.51 566.52 232.55 566.52 232.57 566.51 232.59 566.47 232.74 566.42 232.95 566.39 233.08 566.38 233.1 566.37 233.14 566.35 233.22 566.33 233.31 566.4 233.37 566.44 233.41 566.48 233.44 566.52 233.5 566.56 233.55 566.59 233.6 566.62 233.66 566.65 233.72 566.69 233.8 566.73 233.87 566.79 233.96 566.87 234.11 566.9 234.15 566.93 234.2 566.94 234.25 566.96 234.3 566.96 234.37 566.96 234.5 566.97 234.75 566.97 234.77 566.98 234.78 566.99 234.8 566.99 234.81 567.02 234.83 567.05 234.87 567.08 234.93 567.11 234.99 567.13 235.08 567.13 235.16 567.13 235.25 567.13 235.34 567.13 235.41 567.13 235.44 567.12 235.46 567.12 235.49 567.11 235.51 567.11 235.52 567.14 235.6 567.17 235.68 567.21 235.72 567.26 235.76 567.32 235.79 567.4 235.81 567.48 235.82 567.54 235.85 567.61 235.87 567.68 235.9 567.74 235.93 567.79 235.96 567.83 236 567.85 236.03 567.86 236.04 567.87 236.05 567.88 236.07 567.89 236.12 567.89 236.16 567.89 236.18 567.87 236.23 567.85 236.28 567.82 236.33 567.79 236.4 567.76 236.46 567.72 236.58 567.71 236.63 567.71 236.67 567.7 236.72 567.71 236.75 567.71 236.79 567.71 236.85 567.71 236.9 567.7 236.94 567.69 236.97 567.67 236.99 567.66 237.02 567.64 237.06 567.6 237.13 567.56 237.22 567.55 237.29 567.54 237.31 567.52 237.42 567.51 237.55 567.5 237.64 567.49 237.71 567.48 237.74 567.45 237.8 567.43 237.88 567.42 237.94 567.41 238.03 567.4 238.04 567.34 238.11 567.34 238.13 567.27 238.25 567.17 238.49 567.1 238.64 567.09 238.67 567.08 238.68 567.08 238.78 567.08 238.8 567.08 238.88 567.08 238.94 567.08 239.12 567.08 239.29 567.04 239.34 566.96 239.44 566.88 239.54 566.86 239.57 566.84 239.61 566.79 239.68 566.74 239.78 566.67 239.93 566.65 239.99 566.62 240.06 566.57 240.14 566.52 240.21 566.48 240.29 566.46 240.32 566.46 240.33 566.44 240.36 566.4 240.43 566.38 240.49 566.39 240.54 566.39 240.56 566.41 240.61 566.42 240.64 566.42 240.65 566.43 240.67 566.41 240.7 566.39 240.74 566.36 240.77 566.35 240.8 566.33 240.82 566.32 240.85 566.32 240.87 566.31 240.89 566.3 240.9 566.29 240.92 566.27 240.94 566.25 240.96 566.21 241 566.19 241.02 566.17 241.05 566.16 241.08 566.14 241.11 566.12 241.13 566.11 241.16 566.1 241.2 566.1 241.22 566.1 241.24 566.09 241.26 566.09 241.28 566.1 241.3 566.1 241.31 566.11 241.34 566.12 241.37 566.14 241.39 566.16 241.41 566.17 241.44 566.19 241.46 566.2 241.48 566.21 241.51 566.22 241.54 566.24 241.63 566.24 241.66 566.24 241.68 566.24 241.71 566.23 241.75 566.23 241.78 566.22 241.82 566.19 241.87 566.18 241.91 566.17 241.93 566.16 241.96 566.15 241.99 566.14 242.03 566.14 242.06 566.15 242.1 566.16 242.14 566.17 242.19 566.19 242.23 566.19 242.26 566.19 242.28 566.18 242.31 566.13 242.42 566.1 242.48 566.1 242.49 565.96 242.85 566.06 243.25 565.74 243.87 565.8 244.38 565.52 244.86 565.23 245.35 565.16 245.82 565.16 245.83 565.16 245.84 565.15 245.85 565.14 245.87 565.13 245.89 565.13 245.91 565.12 245.94 565.12 245.96 565.12 245.99 565.12 246.01 565.11 246.07 565.11 246.11 565.11 246.25 565.12 246.38 565.14 246.55 565.15 246.63 565.14 246.74 565.12 246.8 565.1 246.87 565.09 246.93 565.09 246.95 565.08 246.96 564.93 247.07 564.81 247.16 564.73 247.21 564.68 247.24 564.64 247.25 564.58 247.28 564.52 247.32 564.46 247.36 564.39 247.4 564.33 247.42 564.23 247.46 564.13 247.5 564.07 247.53 564.04 247.56 564.02 247.58 564 247.59 563.97 247.63 563.95 247.65 563.86 247.7 563.8 247.74 563.75 247.78 563.71 247.82 563.68 247.85 563.65 247.9 563.61 247.96 563.59 248.01 563.57 248.06 563.55 248.11 563.54 248.15 563.54 248.18 563.54 248.21 563.54 248.24 563.53 248.28 563.51 248.33 563.49 248.38 563.48 248.43 563.47 248.45 563.44 248.5 563.42 248.53 563.4 248.57 563.39 248.58 563.35 248.64 563.29 248.71 563.25 248.78 563.18 248.89 563.1 249.04 563.01 249.16 562.98 249.18 562.92 249.24 562.83 249.33 562.71 249.39 562.73 249.45 562.73 249.49 562.74 249.56 562.76 249.68 562.78 249.8 562.78 249.82 562.81 249.97 562.84 250.18 562.85 250.31 562.86 250.36 562.85 250.57 562.84 250.72 562.84 250.75 562.83 250.88 562.83 250.9 562.83 250.92 562.83 250.98 562.8 251.08 562.78 251.18 562.75 251.27 562.71 251.41 562.64 251.54 562.61 251.6 562.57 251.66 562.5 251.76 562.42 251.88 562.42 251.89 562.4 251.91 562.37 251.93 562.35 251.95 562.31 251.99 562.27 252.03 562.24 252.07 562.21 252.12 562.2 252.23 562.21 252.23 562.25 252.25 562.3 252.28 562.4 252.34 562.58 252.47 562.73 252.57 562.78 252.77 562.84 252.76 562.92 252.75 562.97 252.74 563.05 252.72 563.12 252.71 563.18 252.7 563.19 252.7 563.25 252.68 563.27 252.67 563.32 252.65 563.35 252.63 563.42 252.6 563.49 252.58 563.52 252.57 563.56 252.55 563.61 252.53 563.62 252.52 563.69 252.5 563.73 252.48 563.79 252.46 563.88 252.49 564.01 252.55 564.07 252.56 564.19 252.59 564.2 252.58 564.26 252.52 564.34 252.44 564.4 252.37 564.47 252.29 564.52 252.25 564.55 252.22 564.63 252.27 564.75 252.36 564.87 252.44 564.97 252.51 565.06 252.58 565.14 252.63 565.16 252.73 565.18 252.88 565.2 253 565.23 253.08 565.25 253.14 565.27 253.18 565.3 253.24 565.35 253.36 565.38 253.45 565.42 253.55 565.47 253.64 565.53 253.72 565.56 253.77 565.61 253.85 565.67 253.91 565.69 253.93 565.73 253.95 565.76 253.96 565.87 254.12 566.02 254.15 566.2 254.18 566.39 254.19 566.37 254.28 566.34 254.4 566.29 254.51 566.23 254.67 566.2 254.74 566.18 254.8 566.15 254.9 566.11 255.05 566.09 255.16 565.99 255.31 565.91 255.4 565.85 255.48 565.77 255.54 565.7 255.6 565.63 255.66 565.62 255.67 565.63 255.68 565.67 255.74 565.73 255.82 565.83 255.99 565.89 256.07 565.91 256.13 565.93 256.2 565.94 256.25 565.94 256.29 565.95 256.37 565.96 256.43 565.97 256.5 565.97 256.53 565.97 256.56 565.98 256.68 565.99 256.77 565.99 256.86 565.97 256.94 565.93 257.05 565.88 257.16 565.83 257.3 565.76 257.5 565.73 257.59 565.71 257.68 565.71 257.69 565.71 257.71 565.69 257.81 565.67 257.91 565.65 257.97 565.65 257.98 565.65 257.99 565.64 258.08 565.77 258.54 566.19 258.51 566.28 258.86 566.51 259.16 566.55 259.24 566.6 259.31 566.66 259.42 566.75 259.56 566.9 259.67 566.92 259.68 567.06 259.76 567.2 259.83 567.38 259.92 567.49 259.97 567.53 259.97 567.58 259.99 567.72 260.01 567.87 260.03 568.03 260.06 568.25 260.79 568.24 260.84 568.24 260.92 568.25 261.16 568.25 261.22 568.25 261.38 568.25 261.45 568.27 261.55 568.29 261.69 568.31 261.93 568.34 262.11 568.34 262.17 568.37 262.36 568.38 262.46 568.4 262.62 568.4 262.63 568.41 262.74 568.42 262.76 568.42 262.84 568.43 262.88 568.43 262.91 568.44 262.94 568.45 263.01 568.45 263.07 568.46 263.08 568.4 263.1 568.35 263.11 568.34 263.11 568.33 263.11 568.32 263.11 568.25 263.13 568.23 263.13 568.22 263.14 568.19 263.14 568.08 263.16 567.98 263.19 567.87 263.22 567.83 263.23 567.76 263.25 567.69 263.27 567.48 263.34 567.33 263.39 567.25 263.42 567.07 263.48 566.92 263.53 566.7 263.61 566.57 263.66 566.5 263.68 566.4 263.72 566.29 263.76 566.14 263.82 566.08 263.84 565.97 263.89 565.94 263.85 565.92 263.84 565.85 263.74 565.7 263.54 565.61 263.42 565.49 263.23 565.42 263.14 565.27 262.95 565.17 262.82 565.05 262.65 565.04 262.63 565.01 262.6 564.91 262.47 564.83 262.35 564.75 262.25 564.67 262.13 564.56 261.99 564.44 261.83 564.38 261.75 564.31 261.68 564.27 261.63 564.14 261.53 564.05 261.45 563.95 261.38 563.86 261.31 563.78 261.33 563.69 261.35 563.59 261.37 563.52 261.38 563.47 261.39 563.39 261.4 563.34 261.42 563.3 261.42 563.23 261.42 563.15 261.41 563.11 261.41 563.08 261.4 563.05 261.38 562.96 261.33 562.79 261.24 562.65 261.17 562.53 261.1 562.41 261.03 562.42 261.12 562.43 261.27 562.35 261.27 562.21 261.28 562.06 261.28 561.96 261.29 561.81 261.3 561.75 261.33 561.68 261.37 561.59 261.42 561.45 261.41 561.34 261.39 561.24 261.39 561.1 261.47 560.97 261.55 560.9 261.68 560.84 261.81 560.78 261.91 560.71 262.05 560.67 262.13 560.66 262.16 560.65 262.24 560.64 262.31 560.62 262.41 560.61 262.47 560.6 262.52 560.61 262.57 560.62 262.66 560.63 262.73 560.65 262.87 560.67 262.97 560.67 263.01 560.62 263.07 560.57 263.16 560.51 263.25 560.45 263.34 560.38 263.45 560.3 263.56 560.24 263.65 560.2 263.69 560.15 263.74 560.08 263.82 560.03 263.87 559.96 263.96 559.91 264.02 559.87 264.06 559.83 264.11 559.82 264.12 559.8 264.14 559.78 264.16 559.73 264.21 559.66 264.3 559.54 264.42 559.44 264.54 559.37 264.64 559.29 264.74 559.28 264.75 559.24 264.8 559.23 264.81 559.21 264.84 559.12 264.95 559 265.1 558.91 265.22 558.8 265.36 558.7 265.49 558.6 265.63 558.54 265.71 558.6 265.81 558.62 265.85 558.68 265.96 558.72 266.03 558.75 266.09 558.79 266.17 558.83 266.24 558.89 266.34 558.93 266.43 558.97 266.5 559.02 266.59 559.06 266.67 559.08 266.71 559.09 266.73 559.11 266.76 559.04 266.82 559.03 266.83 558.96 266.89 558.88 266.96 558.82 267.02 558.74 267.1 558.65 267.18 558.62 267.16 558.53 267.15 558.52 267.15 558.51 267.14 558.44 267.14 558.36 267.13 558.22 267.11 558.15 267.1 558.09 267.1 558.03 267.1 557.97 267.09 557.91 267.08 557.86 267.07 557.82 267.07 557.77 267.07 557.72 267.08 557.67 267.09 557.61 267.1 557.54 267.12 557.47 267.13 557.44 267.14 557.37 267.15 557.29 267.17 557.24 267.17 557.19 267.18 557.15 267.19 557.01 267.23 556.96 267.25 556.88 267.27 556.78 267.3 556.71 267.32 556.57 267.37 556.4 267.42 556.33 267.45 556.26 267.47 556.2 267.5 556.12 267.54 556.07 267.57 555.99 267.63 555.9 267.69 555.85 267.71 555.71 267.8 555.59 267.88 555.53 267.89 555.43 267.91 555.35 267.92 555.26 267.93 555.17 268 555.1 268.04 555.01 268.1 554.91 268.17 554.85 268.21 554.79 268.25 554.69 268.32 554.6 268.39 554.47 268.47 554.44 268.49 554.44 268.48 554.33 268.47 554.13 268.45 553.91 268.42 553.76 268.41 553.62 268.4 553.56 268.39 553.52 268.39 553.43 268.38 553.39 268.38 553.37 268.39 553.34 268.41 553.3 268.44 553.24 268.47 553.14 268.54 553.1 268.56 553.09 268.56 553.01 268.61 552.87 268.7 552.75 268.77 552.62 268.85 552.53 268.91 552.52 268.91 552.5 268.92 552.41 268.98 552.37 268.99 552.25 269.01 552.13 269.03 552.01 269.05 551.9 269.07 551.79 269.09 551.67 269.11 551.57 269.13 551.51 269.12 551.41 269.1 551.33 269.08 551.25 269.07 551.19 269.08 551.05 269.11 550.95 269.14 550.76 269.17 550.62 269.2 550.47 269.24 550.35 269.26 550.23 269.29 550.13 269.31 550.11 269.32 550.05 269.34 549.93 269.38 549.76 269.44 549.73 269.43 549.66 269.42 549.54 269.39 549.43 269.37 549.31 269.35 549.21 269.34 549.14 269.32 549.07 269.31 548.98 269.29 548.96 269.29 548.89 269.4 548.83 269.46 548.82 269.48 548.76 269.55 548.71 269.59 548.67 269.62 548.64 269.64 548.61 269.66 548.61 269.67 548.56 269.8 548.47 270.01 548.46 270.04 548.44 270.06 548.42 270.09 548.33 270.19 548.24 270.27 548.12 270.39 547.98 270.51 547.86 270.62 547.76 270.72 547.67 270.7 547.54 270.68 547.44 270.66 547.44 270.52 547.43 270.36 547.39 270.35 547.34 270.34 547.26 270.33 547.13 270.31 547.02 270.29 546.92 270.28 546.8 270.27 546.71 270.26 546.59 270.26 546.49 270.27 546.44 270.27 546.32 270.28 546.15 270.28 546.08 270.29 546.06 270.29 546.01 270.29 545.84 270.29 545.68 270.28 545.56 270.27 545.55 270.45 545.53 270.73 545.5 271 545.49 271.25 545.48 271.29 545.48 271.32 545.48 271.33 545.47 271.38 545.47 271.49 545.45 271.68 545.44 271.85 545.42 272.04 545.41 272.22 545.4 272.29 545.39 272.31 545.36 272.38 545.32 272.46 545.28 272.53 545.24 272.6 545.15 272.77 545.07 272.93 545.03 273.01 544.97 273.11 544.93 273.19 544.89 273.26 544.83 273.24 544.73 273.22 544.71 273.21 544.65 273.2 544.51 273.17 544.34 273.14 544.29 273.13 544.24 273.12 544.19 273.11 544.14 273.11 544.1 273.11 544.03 273.12 543.97 273.14 543.93 273.16 543.91 273.17 543.88 273.19 543.87 273.2 543.86 273.22 543.85 273.24 543.84 273.25 543.82 273.29 543.82 273.3 543.8 273.32 543.78 273.36 543.76 273.4 543.76 273.44 543.74 273.53 543.74 273.54 543.74 273.58 543.74 273.59 543.74 273.61 543.73 273.67 543.72 273.69 543.72 273.73 543.71 273.78 543.71 273.82 543.71 273.91 543.71 274.01 543.72 274.08 543.68 274.08 543.63 274.09 543.58 274.09 543.51 274.1 543.48 274.11 543.46 274.12 543.42 274.14 543.37 274.18 543.28 274.26 543.23 274.3 543.17 274.36 543.07 274.46 543.02 274.52 542.96 274.58 542.92 274.64 542.88 274.7 542.85 274.73 542.81 274.77 542.8 274.79 542.77 274.81 542.7 274.87 542.65 274.92 542.59 274.96 542.58 274.97 542.46 275.06 542.41 275.09 542.37 275.12 542.34 275.13 542.31 275.15 542.26 275.17 542.21 275.18 542.12 275.19 542.04 275.21 541.96 275.23 541.91 275.24 541.87 275.25 541.84 275.26 541.81 275.27 541.78 275.29 541.7 275.34 541.66 275.36 541.6 275.4 541.56 275.43 541.46 275.48 541.41 275.5 541.37 275.53 541.3 275.56 541.24 275.6 541.2 275.62 541.18 275.63 541.14 275.65 541.11 275.67 541.07 275.69 541.04 275.7 540.98 275.74 540.94 275.76 540.9 275.78 540.88 275.79 540.82 275.82 540.81 275.82 540.78 275.84 540.74 275.85 540.72 275.85 540.68 275.85 540.64 275.85 540.56 275.87 540.43 275.9 540.3 275.93 540.23 275.95 540.2 275.95 540.06 275.98 539.95 275.99 539.89 276 539.81 276 539.79 276.01 539.76 276.01 539.69 276.01 539.64 276 539.6 275.99 539.57 275.98 539.55 275.97 539.46 275.95 539.44 275.94 539.39 275.93 539.29 275.9 539.21 275.87 539.1 275.83 539.08 275.92 539.07 275.95 539.06 275.99 539.05 276.07 539.03 276.16 539.02 276.24 539 276.32 539 276.38 539 276.41 539 276.44 539.01 276.47 539.02 276.5 539.02 276.52 539.02 276.57 539.02 276.64 539 276.79 539 276.84 538.99 276.9 538.97 277.02 538.95 277.13 538.91 277.29 538.87 277.44 538.83 277.63 538.8 277.78 538.77 277.87 538.76 277.92 538.74 278.02 538.71 278.15 538.7 278.2 538.68 278.28 538.65 278.41 538.63 278.53 538.61 278.58 538.6 278.62 538.6 278.64 538.57 278.74 538.55 278.81 538.54 278.87 538.53 278.91 538.52 278.96 538.52 278.98 538.52 279 538.52 279.02 538.52 279.1 538.53 279.18 538.54 279.3 538.54 279.35 538.55 279.43 538.56 279.53 538.57 279.63 538.57 279.68 538.57 279.71 538.57 279.82 538.57 279.88 538.57 279.9 538.58 279.99 538.58 280.08 538.58 280.09 538.58 280.12 538.58 280.18 538.59 280.26 538.59 280.33 538.59 280.41 538.59 280.5 538.48 280.46 538.39 280.43 538.37 280.43 538.35 280.42 538.32 280.42 538.26 280.42 538.14 280.43 538.01 280.45 537.92 280.46 537.83 280.48 537.74 280.49 537.67 280.5 537.48 280.53 537.3 280.55 537.2 280.56 537.16 280.57 537.15 280.57 537.12 280.57 536.99 280.54 536.87 280.52 536.7 280.49 536.66 280.48 536.63 280.47 536.53 280.46 536.46 280.45 536.32 280.42 536.3 280.42 536.23 280.41 536.21 280.41 536.07 280.41 536.04 280.41 535.92 280.41 535.9 280.41 535.79 280.41 535.76 280.41 535.7 280.42 535.65 280.42 535.64 280.42 535.63 280.42 535.6 280.42 535.51 280.42 535.49 280.42 535.43 280.43 535.33 280.44 535.32 280.44 535.17 280.39 535.14 280.38 535 280.34 534.95 280.33 534.8 280.27 534.68 280.23 534.58 280.19 534.48 280.18 534.47 280.17 534.42 280.17 534.34 280.16 534.24 280.14 534.15 280.13 534.04 280.14 534.03 280.14 533.96 280.15 533.9 280.15 533.85 280.16 533.76 280.17 533.7 280.17 533.63 280.18 533.55 280.2 533.52 280.19 533.5 280.15 533.45 280.1 533.39 280.04 533.34 280 533.31 279.97 533.29 279.97 533.19 279.89 533.11 279.83 533.04 279.78 532.97 279.73 532.9 279.67 532.84 279.61 532.82 279.6 532.79 279.57 532.74 279.53 532.69 279.5 532.68 279.49 532.63 279.45 532.6 279.41 532.6 279.41 532.56 279.36 532.52 279.34 532.46 279.31 532.46 279.31 532.43 279.3 532.38 279.26 532.37 279.25 532.36 279.24 532.32 279.19 532.32 279.17 532.27 279.09 532.25 279.07 532.25 279.05 532.24 279.04 532.24 279.03 532.22 278.97 532.2 278.87 532.2 278.86 532.19 278.82 532.19 278.79 532.19 278.75 532.19 278.73 532.19 278.61 532.19 278.57 532.19 278.51 532.19 278.47 532.17 278.4 532.14 278.26 532.13 278.25 532.13 278.23 532.11 278.17 532.09 278.13 532.08 278.12 532.06 278.1 532.05 278.09 532.04 278 532.04 277.9 532.04 277.82 532.04 277.79 532.04 277.78 532.04 277.76 532.05 277.69 532.06 277.65 532.07 277.62 532.07 277.58 532.08 277.55 532.1 277.4 532.11 277.38 532.12 277.29 532.14 277.17 532.14 277.16 532.15 277.11 532.15 277.1 532.15 277.05 532.15 277.04 532.15 277.01 532.15 276.96 532.17 276.83 532.2 276.56 532.2 276.53 532.21 276.4 532.22 276.28 532.23 276.27 532.24 276.1 532.24 276.08 532.25 276.02 532.25 275.99 532.26 275.95 532.26 275.89 532.27 275.83 532.28 275.77 532.28 275.72 532.28 275.7 532.29 275.63 532.3 275.57 532.27 275.55 532.24 275.51 532.22 275.49 532.22 275.48 532.19 275.44 532.16 275.39 532.15 275.37 532.14 275.34 532.11 275.29 532.09 275.26 532.08 275.23 532.05 275.19 532.03 275.14 532.02 275.13 532 275.09 531.97 275.04 531.96 275.02 531.94 274.99 531.94 274.98 531.91 274.92 531.9 274.89 531.9 274.88 531.87 274.8 531.86 274.76 531.86 274.74 531.85 274.66 531.83 274.52 531.82 274.44 531.82 274.41 531.81 274.39 531.8 274.26 531.79 274.18 531.78 274.11 531.75 273.94 531.73 273.79 531.73 273.74 531.73 273.73 531.74 273.67 531.75 273.61 531.73 273.5 531.72 273.39 531.72 273.37 531.71 273.22 531.7 273.15 531.69 272.99 531.75 272.91 531.88 272.72 532.12 272.38 532.3 272.11 532.42 271.93 532.45 271.81 532.5 271.63 532.54 271.55 532.64 271.42 532.67 271.39 532.72 271.35 532.87 271.27 532.9 271.25 532.92 271.24 532.97 271.21 533 271.19 533.19 271.08 533.47 270.89 533.53 270.74 533.63 270.63 533.65 270.59 533.8 270.37 533.81 270.35 533.84 270.31 534 269.99 534.05 269.9 534.05 269.88 534.12 269.74 534.21 269.55 534.25 269.48 534.3 269.4 534.35 269.29 534.46 268.99 534.59 268.74 534.6 268.72 534.7 268.52 534.72 268.47 534.75 268.32 534.8 268.12 534.82 268 534.84 267.84 534.84 267.82 534.87 267.62 535.17 266.96 534.81 266.56 534.54 266.26 534.58 266.19 534.66 266.05 534.74 265.91 534.78 265.84 534.85 265.72 534.91 265.62 534.97 265.51 535.01 265.43 535.06 265.35 535.1 265.28 535.15 265.18 535.21 265.07 535.25 265.01 535.27 264.97 535.27 264.95 535.28 264.92 535.26 264.84 535.23 264.74 535.2 264.62 535.17 264.46 535.13 264.33 535.1 264.19 535.08 264 535.05 263.81 535.04 263.75 534.99 263.6 534.94 263.46 534.89 263.28 534.87 263.15 534.87 263.13 534.84 262.95 534.8 262.73 534.8 262.66 534.82 262.45 534.85 262.24 534.95 262.12 535.01 262.04 535.02 262.03 535.03 262.01 535.05 261.99 535.08 261.94 535.21 261.65 535.33 261.33 535.36 261.24 535.37 261.23 535.41 261.12 535.53 260.79 535.56 260.71 535.57 260.7 535.59 260.63 535.61 260.6 535.74 260.45 535.79 260.39 535.82 260.32 535.92 260.14 535.93 260.11 535.88 260 535.78 259.8 535.65 259.57 535.58 259.45 535.62 259.36 535.74 259 535.8 258.84 535.86 258.66 535.98 258.32 536.08 258.04 536.18 257.71 536.28 257.41 536.4 257 536.46 256.82 536.48 256.73 536.52 256.63 536.53 256.58 536.53 256.55 536.52 256.47 536.5 256.37 536.49 256.28 536.48 256.22 536.46 256.1 536.45 256.01 536.44 255.94 536.44 255.91 536.43 255.82 536.4 255.68 536.32 255.49 536.15 255.13 536.09 254.98 536.02 254.85 536 254.8 535.99 254.75 535.98 254.67 535.98 254.57 535.99 254.5 536 254.46 536 254.43 536 254.39 536 254.38 536 254.36 536 254.35 536.01 254.15 536.02 253.89 536.02 253.61 536.03 253.44 536.04 253.3 536.04 253.25 536.04 253.17 536.05 253.08 536.06 252.9 536.07 252.81 536.07 252.7 536.08 252.63 536.08 252.54 536.08 252.46 536.08 252.4 536.08 252.32 536.08 252.24 536.08 252.1 536.08 252.04 536.08 251.96 536.09 251.88 536.09 251.81 536.08 251.74 536.08 251.68 536.08 251.61 536.08 251.56 536.07 251.51 536.07 251.45 536.07 251.39 536.06 251.32 536.07 251.27 536.06 251.2 536.07 251.14 536.07 251.09 536.07 251.04 536.07 250.97 536.07 250.91 536.07 250.86 536.07 250.82 536.11 250.81 536.2 250.78 536.25 250.75 536.32 250.73 536.4 250.7 536.47 250.66 536.55 250.64 536.63 250.61 536.67 250.59 536.7 250.58 536.77 250.56 536.83 250.53 536.88 250.5 536.97 250.42 537.05 250.35 537.12 250.28 537.18 250.23 537.22 250.19 537.25 250.16 537.26 250.12 537.29 250.07 537.31 250.04 537.33 250.02 537.38 249.96 537.43 249.9 537.47 249.86 537.49 249.83 537.5 249.81 537.53 249.76 537.56 249.69 537.6 249.62 537.64 249.56 537.68 249.5 537.72 249.47 537.74 249.44 537.77 249.42 537.8 249.4 537.9 249.31 537.98 249.25 538.06 249.17 538.14 249.11 538.2 249.05 538.26 249 538.3 248.97 538.32 248.95 538.35 248.93 538.39 248.91 538.47 248.88 538.51 248.86 538.54 248.83 538.63 248.77 538.7 248.72 538.79 248.65 538.8 248.64 538.84 248.62 538.88 248.62 538.93 248.61 538.98 248.61 539.03 248.61 539.08 248.62 539.13 248.63 539.17 248.64 539.22 248.66 539.25 248.67 539.27 248.67 539.3 248.67 539.32 248.66 539.33 248.66 539.34 248.67 539.37 248.7 539.43 248.77 539.5 248.86 539.64 249.03 539.65 249.04 539.71 249.12 539.74 249.17 539.75 249.19 539.79 249.24 539.89 249.27 540.03 249.32 540.17 249.36 540.31 249.4 540.38 249.43 540.47 249.46 540.51 249.48 540.52 249.48 540.54 249.49 540.59 249.54 540.65 249.6 540.73 249.68 540.82 249.76 540.9 249.83 541.03 249.94 541.05 249.96 541.06 249.97 541.07 249.98 541.08 249.99 541.1 250 541.15 250.03 541.24 250.07 541.34 250.11 541.4 250.13 541.48 250.16 541.48 250.16 541.65 250.22 541.66 250.22 541.7 250.24 541.75 250.25 541.79 250.27 541.83 250.28 541.87 250.3 541.92 250.31 541.94 250.32 542.03 250.34 542.15 250.36 542.16 250.37 542.17 250.37 542.36 250.41 542.46 250.43 542.5 250.45 542.63 250.48 542.66 250.49 542.84 250.54 542.86 250.55 543.09 250.61 543.15 250.64 543.21 250.67 543.3 250.73 543.31 250.74 543.48 250.84 543.51 250.86 543.7 250.97 543.75 250.99 543.74 250.92 543.69 250.75 543.64 250.6 543.62 250.55 543.61 250.53 543.59 250.49 543.58 250.43 543.57 250.41 543.56 250.38 543.53 250.24 543.5 250.09 543.46 249.93 543.42 249.77 543.4 249.68 543.39 249.55 543.39 249.36 543.39 249.14 543.38 249.13 543.37 249.12 543.27 248.97 543.2 248.86 543.15 248.75 543.1 248.64 543.08 248.58 543.04 248.47 542.99 248.38 542.94 248.28 542.88 248.19 542.83 248.11 542.78 248.03 542.76 248.01 542.7 247.94 542.64 247.88 542.58 247.83 542.54 247.78 542.48 247.74 542.44 247.7 542.37 247.64 542.32 247.6 542.28 247.57 542.25 247.54 542.23 247.52 542.18 247.48 542.13 247.44 542.07 247.39 542.02 247.35 541.98 247.31 541.95 247.28 541.93 247.25 541.92 247.22 541.89 247.14 541.86 247.07 541.84 247.01 541.81 246.94 541.81 246.91 541.82 246.73 541.83 246.63 541.83 246.54 541.83 246.49 541.83 246.46 541.83 246.39 541.84 246.34 541.86 246.29 541.87 246.25 541.89 246.23 541.91 246.2 541.92 246.17 541.94 246.14 541.96 246.09 542 246 542.04 245.92 542.07 245.84 542.11 245.78 542.14 245.73 542.15 245.71 542.17 245.68 542.24 245.6 542.33 245.49 542.38 245.43 542.48 245.33 542.53 245.28 542.64 245.06 542.69 244.96 542.73 244.89 542.79 244.79 542.84 244.72 542.88 244.67 542.91 244.64 542.95 244.6 543.05 244.51 543.16 244.41 543.25 244.33 543.37 244.15 543.39 244.13 543.46 244.04 543.46 244.03 543.62 243.81 543.72 243.67 543.81 243.54 543.87 243.47 543.89 243.44 543.89 243.42 543.9 243.4 543.93 243.3 543.94 243.26 543.94 243.21 543.95 243.18 543.96 243.12 543.99 243.03 544.01 242.96 544.02 242.89 544.04 242.85 544.06 242.81 544.06 242.8 544.08 242.75 544.09 242.7 544.13 242.62 544.17 242.53 544.21 242.46 544.22 242.42 544.24 242.34 544.27 242.2 544.3 242.1 544.3 242.07 544.29 242.02 544.2 241.89 544.14 241.79 544.08 241.68 544.04 241.61 544.02 241.57 543.99 241.53 543.97 241.5 543.96 241.49 543.88 241.38 543.8 241.27 543.73 241.18 543.67 241.09 543.61 241.01 543.57 240.95 543.5 240.86 543.42 240.74 543.33 240.62 543.26 240.53 543.21 240.45 543.14 240.34 543.09 240.27 543.04 240.19 542.97 240.08 542.91 239.98 542.83 239.86 542.76 239.76 542.7 239.66 542.76 239.6 542.86 239.52 542.94 239.45 543.06 239.37 543.15 239.3 543.2 239.25 543.18 239.18 543.13 239.09 543.1 239.01 543.08 238.96 543.05 238.91 543.03 238.86 543.01 238.84 542.99 238.81 542.98 238.78 542.97 238.76 542.97 238.72 542.97 238.67 542.97 238.63 542.97 238.62 542.97 238.6 542.98 238.57 542.99 238.56 543.02 238.46 543.04 238.39 543.05 238.33 543.05 238.3 543.05 238.27 543.03 238.22 543 238.13 542.97 238.04 542.96 237.99 542.95 237.97 542.95 237.95 542.95 237.85 542.95 237.82 542.95 237.79 542.94 237.76 542.92 237.72 542.89 237.7 542.88 237.69 542.85 237.67 542.83 237.66 542.81 237.64 542.8 237.61 542.78 237.6 542.77 237.58 542.75 237.56 542.73 237.54 542.71 237.53 542.69 237.52 542.67 237.51 542.64 237.51 542.63 237.5 542.62 237.49 542.6 237.48 542.56 237.46 542.52 237.43 542.51 237.42 542.5 237.42 542.48 237.4 542.45 237.36 542.42 237.34 542.41 237.32 542.39 237.31 542.37 237.29 542.34 237.28 542.28 237.23 542.23 237.2 542.18 237.16 542.17 237.15 542.16 237.14 542.14 237.1 542.07 237 542.01 236.9 541.95 236.8 541.87 236.69 541.8 236.57 541.76 236.48 541.69 236.38 541.64 236.31 541.6 236.24 541.58 236.21 541.57 236.2 541.56 236.19 541.52 236.17 541.47 236.14 541.41 236.11 541.34 236.07 541.29 236.04 541.22 235.99 541.16 235.94 541.11 235.88 541.06 235.84 540.99 235.78 540.93 235.73 540.88 235.7 540.85 235.69 540.83 235.68 540.75 235.66 540.67 235.64 540.58 235.62 540.53 235.62 540.49 235.62 540.42 235.62 540.34 235.62 540.25 235.63 540.24 235.63 540.19 235.63 540.15 235.64 540.12 235.65 540.13 235.62 540.21 235.43 540.23 235.35 540.28 235.25 540.29 235.21 540.31 235.17 540.33 235.11 540.36 235.03 540.39 234.97 540.45 234.87 540.5 234.78 540.55 234.7 540.6 234.61 540.63 234.54 540.71 234.39 540.74 234.33 540.78 234.27 540.82 234.18 540.84 234.15 540.86 234.14 540.87 234.13 540.96 234.06 541.06 233.98 541.13 233.93 541.25 233.83 541.42 233.69 541.45 233.67 541.58 233.55 541.56 233.47 541.52 233.39 541.45 233.27 541.4 233.18 541.31 233.03 541.2 232.84 541.17 232.8 541.16 232.79 541.14 232.76 541.09 232.7 541.04 232.63 541.02 232.59 541.01 232.57 540.98 232.47 540.95 232.37 540.95 232.37 540.94 232.33 540.94 232.28 540.92 232.21 540.9 232.13 540.89 232.11 540.86 231.98 540.81 231.79 540.77 231.58 540.74 231.44 540.71 231.32 540.69 231.25 540.69 231.22 540.7 231.18 540.71 231.05 540.72 230.96 540.72 230.78 540.71 230.62 540.71 230.48 540.7 230.39 540.7 230.36 540.7 230.35 540.69 230.33 540.65 230.25 540.62 230.18 540.6 230.12 540.57 230.02 540.56 229.98 540.54 229.94 540.51 229.88 540.48 229.82 540.47 229.79 540.44 229.74 540.38 229.67 540.31 229.56 540.25 229.47 540.21 229.4 540.17 229.34 540.14 229.28 540.11 229.25 540.1 229.22 540.1 229.2 540.1 229.17 540.11 229.13 540.13 229.06 540.16 228.98 540.19 228.9 540.28 228.73 540.35 228.61 540.43 228.46 540.47 228.3 540.51 228.17 540.58 228.03 540.59 227.98 540.61 227.87 540.62 227.81 540.62 227.73 540.62 227.63 540.64 227.53 540.66 227.46 540.68 227.37 540.69 227.34 540.7 227.33 540.71 227.32 540.8 227.16 540.84 227.07 540.84 227.05 540.83 227.03 540.82 227.01 540.75 226.83 540.65 226.59 540.6 226.48 540.6 226.48 540.55 226.45 540.41 226.38 540.28 226.31 540.02 226.18 539.79 226.07 539.78 226.06 539.75 226.03 539.74 226 539.72 225.95 539.7 225.85 539.69 225.75 539.68 225.65 539.68 225.56 539.67 225.46 539.66 225.3 539.66 225.19 539.66 225.1 539.66 224.99 539.66 224.92 539.66 224.88 539.66 224.85 539.65 224.83 539.6 224.77 539.57 224.7 539.55 224.65 539.55 224.63 539.55 224.61 539.55 224.6 539.56 224.58 539.56 224.57 539.58 224.51 539.6 224.46 539.65 224.35 539.72 224.26 539.76 224.22 539.8 224.17 539.83 224.15 539.85 224.12 539.86 224.08 539.87 224.06 539.89 223.96 539.89 223.89 539.89 223.84 539.89 223.75 539.87 223.67 539.85 223.61 539.84 223.57 539.84 223.54 539.84 223.51 539.84 223.46 539.86 223.4 539.87 223.35 539.89 223.3 539.9 223.24 539.9 223.19 539.9 223.12 539.91 223.07 539.92 223.05 539.93 223.03 539.94 223.02 539.95 223 539.97 222.99 539.98 222.99 540 222.98 540 222.97 540.01 222.95 540.02 222.93 540.03 222.89 540.06 222.83 540.09 222.79 540.1 222.77 540.14 222.74 540.18 222.69 540.22 222.66 540.26 222.62 540.27 222.59 540.28 222.57 540.28 222.54 540.28 222.51 540.28 222.47 540.28 222.43 540.3 222.36 540.31 222.28 540.31 222.25 540.32 222.17 540.33 222.11 540.34 222.08 540.36 222.03 540.38 221.98 540.39 221.95 540.39 221.92 540.39 221.86 540.39 221.8 540.37 221.73 540.36 221.63 540.35 221.55 540.34 221.49 540.32 221.4 540.3 221.34 540.27 221.23 540.25 221.17 540.22 221.1 540.18 221.01 540.14 220.88 540.08 220.74 540.06 220.68 540.06 220.67 540.06 220.64 540.07 220.52 540.08 220.38 540.1 220.24 540.12 220.1 540.14 219.91 540.16 219.75 540.16 219.71 540.19 219.51 540.21 219.32 540.23 219.13 540.25 218.98 540.25 218.96 540.27 218.79 540.29 218.57 540.32 218.41 540.33 218.39 540.34 218.37 540.35 218.35 540.37 218.34 540.41 218.32 540.49 218.27 540.56 218.22 540.62 218.17 540.69 218.11 540.75 218.05 540.79 218.02 541.02 217.84 541.2 217.72 541.38 217.59 541.6 217.44 541.75 217.32 541.92 217.2 542.06 217.1 542.19 216.99 542.26 216.95 542.27 216.94 542.29 216.93 542.46 216.81 542.65 216.67 542.88 216.5 543.01 216.41 543.27 216.38 543.59 216.35 543.85 216.32 543.91 216.2 544.01 216.05 544.04 215.99 544.05 215.93 544.05 215.91 544.05 215.88 544.05 215.86 544.02 215.82 543.97 215.74 543.91 215.63 543.85 215.52 543.79 215.41 543.71 215.29 543.64 215.16 543.58 215.04 543.53 214.94 543.5 214.89 543.49 214.87 543.44 214.84 543.36 214.77 543.23 214.69 543.13 214.61 543.03 214.54 542.95 214.48 542.87 214.41 542.79 214.35 542.76 214.33 542.74 214.3 542.72 214.29 542.64 214.23 542.62 214.21 542.57 214.16 542.48 214.08 542.42 214.02 542.39 213.99 542.31 213.92 542.25 213.86 542.21 213.82 542.18 213.8 542.17 213.77 542.16 213.74 542.13 213.68 542.1 213.58 542.07 213.48 542.05 213.41 542.04 213.39 542.04 213.39 542.02 213.39 541.98 213.38 541.93 213.36 541.84 213.32 541.83 213.31 541.74 213.26 541.67 213.23 541.61 213.19 541.63 213.14 541.68 213 541.7 212.95 541.7 212.93 541.71 212.91 541.75 212.8 541.79 212.72 541.79 212.7 541.84 212.59 541.87 212.51 541.88 212.49 541.91 212.41 541.93 212.36 541.95 212.33 541.98 212.3 542.02 212.25 542.08 212.18 542.1 212.16 542.13 212.12 542.18 212.06 542.27 211.95 542.33 211.88 542.36 211.83 542.41 211.77 542.47 211.67 542.5 211.59 542.56 211.47 542.62 211.37 542.66 211.28 542.71 211.18 542.76 211.1 542.78 211.05 542.79 211.01 542.79 211 542.79 210.99 542.79 210.96 542.77 210.83 542.76 210.74 542.76 210.57 542.76 210.49 542.75 210.39 542.74 210.31 542.74 210.25 542.73 210.21 542.73 210.16 542.73 210.08 542.76 209.93 542.79 209.81 542.8 209.66 542.81 209.52 542.83 209.39 542.85 209.26 542.85 209.23 542.85 209.21 542.85 209.2 542.86 209.15 542.88 209.12 542.89 209.1 542.92 209.07 542.97 208.9 543.03 208.72 543.06 208.62 543.06 208.6 543.07 208.57 543.12 208.44 543.13 208.39 543.13 208.37 543.13 208.35 543.12 208.33 543.12 208.3 543.07 208.17 543.06 208.12 543.05 208.08 543.03 208.03 543 207.95 542.95 207.76 542.91 207.64 542.89 207.56 542.85 207.45 542.83 207.37 542.81 207.33 542.81 207.18 542.78 207.01 542.77 206.87 542.74 206.72 542.7 206.58 542.65 206.41 542.77 206.38 542.88 206.34 542.96 206.31 543.1 206.26 543.2 206.23 543.31 206.19 543.41 206.16 543.47 206.13 543.52 206.11 543.56 206.08 543.6 206.05 543.63 206.01 543.66 205.97 543.7 205.92 543.72 205.88 543.74 205.84 543.75 205.79 543.77 205.68 543.79 205.56 543.84 205.42 543.87 205.3 543.88 205.26 543.9 205.16 543.94 204.98 543.94 204.96 543.97 204.79 543.98 204.62 544.01 204.48 544.03 204.32 544.04 204.26 544.04 204.18 544.04 204.14 544.03 204.11 544.02 204.02 544 203.97 543.98 203.93 543.95 203.86 543.93 203.82 543.9 203.77 543.88 203.73 543.88 203.72 543.85 203.64 543.81 203.54 543.78 203.45 543.74 203.35 543.7 203.25 543.65 203.13 543.6 203.01 543.56 202.89 543.52 202.79 543.46 202.63 543.38 202.45 543.32 202.3 543.25 202.15 543.2 202.02 543.13 201.86 543.06 201.7 543.01 201.57 542.96 201.41 542.91 201.25 542.83 201.05 542.78 200.91 542.73 200.81 542.69 200.75 542.67 200.72 542.71 200.71 542.74 200.7 542.77 200.68 542.85 200.66 542.97 200.61 543.11 200.56 543.22 200.51 543.34 200.45 543.38 200.42 543.39 200.42 543.41 200.41 543.42 200.4 543.5 200.36 543.59 200.3 543.66 200.27 543.72 200.25 543.8 200.25 543.85 200.22 543.91 200.19 543.97 200.15 544.01 200.1 544.06 200.04 544.1 199.99 544.16 199.96 544.23 199.91 544.29 199.86 544.34 199.8 544.39 199.75 544.44 199.69 544.5 199.63 544.56 199.59 544.62 199.56 544.69 199.52 544.74 199.49 544.78 199.45 544.81 199.42 544.85 199.4 544.88 199.39 544.93 199.39 544.98 199.39 545.03 199.39 545.11 199.38 545.19 199.36 545.24 199.35 545.3 199.35 545.36 199.34 545.43 199.3 545.48 199.27 545.52 199.23 545.58 199.18 545.63 199.13 545.67 199.08 545.72 199.02 545.76 198.98 545.81 198.91 545.83 198.87 545.87 198.83 545.91 198.79 545.94 198.76 545.99 198.73 546.03 198.71 546.09 198.68 546.14 198.67 546.19 198.67 546.25 198.66 546.3 198.66 546.35 198.65 546.39 198.65 546.41 198.66 546.43 198.67 546.44 198.69 546.44 198.72 546.45 198.75 546.45 198.77 546.46 198.8 546.48 198.84 546.49 198.87 546.51 198.93 546.52 198.98 546.53 199.03 546.54 199.08 546.55 199.11 546.56 199.14 546.58 199.17 546.61 199.2 546.64 199.24 546.68 199.28 546.71 199.31 546.73 199.34 546.74 199.36 546.75 199.39 546.76 199.42 546.76 199.47 546.76 199.52 546.76 199.57 546.76 199.6 546.77 199.64 546.78 199.69 546.79 199.73 546.8 199.76 546.82 199.79 546.84 199.82 546.87 199.86 546.88 199.88 546.91 199.92 546.93 199.93 546.96 199.96 546.98 199.98 547.01 200.02 547.06 200.07 547.09 200.09 547.11 200.11 547.13 200.13 547.17 200.16 547.2 200.18 547.24 200.2 547.26 200.21 547.28 200.22 547.32 200.24 547.35 200.26 547.39 200.27 547.41 200.29 547.45 200.31 547.48 200.33 547.52 200.36 547.54 200.38 547.56 200.4 547.58 200.41 547.59 200.42 547.6 200.43 547.64 200.47 547.67 200.49 547.71 200.53 547.74 200.55 547.77 200.6 547.79 200.63 547.81 200.65 547.82 200.66 547.85 200.71 547.87 200.74 547.88 200.75 547.9 200.78 547.91 200.79 547.91 200.8 547.92 200.81 547.93 200.83 547.95 200.87 547.98 200.9 548 200.93 548.02 200.94 548.04 200.95 548.08 200.97 548.12 200.99 548.14 201 548.18 201.02 548.21 201.03 548.26 201.06 548.29 201.07 548.33 201.08 548.36 201.09 548.39 201.09 548.42 201.1 548.47 201.1 548.49 201.1 548.53 201.1 548.57 201.09 548.61 201.08 548.64 201.06 548.66 201.05 548.68 201.04 548.71 201.03 548.73 201.02 548.75 201.01 548.8 200.99 548.83 200.98 548.86 200.98 548.89 200.98 548.92 200.98 548.95 200.98 548.99 200.97 549.02 200.97 549.04 200.97 549.08 200.98 549.11 200.98 549.13 200.99 549.16 201 549.19 201 549.22 201.02 549.24 201.03 549.28 201.07 549.31 201.09 549.34 201.12 549.35 201.15 549.37 201.18 549.38 201.2 549.39 201.22 549.4 201.24 549.42 201.26 549.43 201.28 549.44 201.3 549.46 201.32 549.48 201.34 549.51 201.37 549.55 201.39 549.58 201.41 549.59 201.41 549.62 201.41 549.64 201.41 549.66 201.41 549.69 201.4 549.72 201.39 549.75 201.38 549.78 201.37 549.8 201.37 549.83 201.36 549.86 201.36 549.89 201.36 549.92 201.35 549.94 201.36 549.97 201.37 549.99 201.39 550.01 201.41 550.03 201.44 550.06 201.48 550.08 201.51 550.1 201.54 550.13 201.57 550.16 201.6 550.19 201.62 550.22 201.64 550.24 201.64 550.26 201.65 550.29 201.65 550.32 201.65 550.34 201.64 550.35 201.64 550.39 201.61 550.42 201.59 550.44 201.56 550.46 201.53 550.48 201.51 550.51 201.47 550.53 201.45 550.57 201.44 550.61 201.43 550.66 201.41 550.7 201.4 550.74 201.39 550.78 201.36 550.82 201.34 550.86 201.31 550.89 201.28 550.92 201.26 550.93 201.25 550.96 201.23 550.98 201.21 551 201.2 551.04 201.17 551.09 201.14 551.13 201.09 551.18 201.04 551.21 201.01 551.24 200.99 551.27 200.96 551.29 200.93 551.31 200.9 551.34 200.87 551.36 200.84 551.38 200.81 551.42 200.77 551.43 200.74 551.47 200.71 551.49 200.67 551.52 200.64 551.54 200.62 551.56 200.59 551.59 200.56 551.61 200.54 551.64 200.51 551.66 200.47 551.68 200.44 551.7 200.4 551.72 200.36 551.73 200.33 551.74 200.3 551.75 200.26 551.75 200.24 551.76 200.2 551.77 200.18 551.78 200.14 551.79 200.12 551.81 200.08 551.83 200.07 551.85 200.04 551.87 200.02 551.89 199.99 551.91 199.98 551.93 199.95 551.99 199.91 552.01 199.89 552.04 199.87 552.05 199.86 552.08 199.83 552.1 199.81 552.13 199.78 552.14 199.76 552.17 199.72 552.18 199.69 552.2 199.66 552.23 199.63 552.27 199.58 552.29 199.54 552.32 199.49 552.34 199.45 552.37 199.42 552.4 199.38 552.41 199.36 552.43 199.35 552.46 199.33 552.47 199.31 552.48 199.28 552.49 199.25 552.49 199.22 552.5 199.19 552.5 199.16 552.5 199.13 552.51 199.11 552.5 199.07 552.49 199.05 552.48 199.02 552.47 199 552.44 198.97 552.41 198.95 552.39 198.91 552.37 198.9 552.36 198.88 552.35 198.85 552.34 198.83 552.33 198.78 552.33 198.76 552.33 198.73 552.35 198.69 552.37 198.68 552.38 198.66 552.44 198.62 552.46 198.61 552.48 198.6 552.5 198.59 552.53 198.57 552.56 198.56 552.58 198.55 552.61 198.55 552.64 198.53 552.67 198.52 552.7 198.51 552.74 198.5 552.78 198.5 552.81 198.48 552.85 198.47 552.88 198.45 552.9 198.41 552.92 198.38 552.95 198.34 552.96 198.31 552.97 198.27 552.99 198.24 553 198.21 553.02 198.18 553.03 198.14 553.03 198.07 553.03 198.01 553.03 197.95 553.02 197.89 553.01 197.82 553 197.76 552.98 197.72 552.97 197.66 552.96 197.64 552.96 197.6 552.95 197.57 552.94 197.5 552.93 197.47 552.93 197.44 552.94 197.41 552.95 197.38 552.96 197.36 552.97 197.32 552.96 197.3 552.96 197.27 552.95 197.25 552.93 197.22 552.92 197.2 552.9 197.18 552.89 197.16 552.86 197.14 552.85 197.12 552.83 197.1 552.81 197.07 552.8 197.04 552.79 197.02 552.79 197 552.78 196.98 552.78 196.96 552.78 196.93 552.79 196.89 552.8 196.86 552.81 196.83 552.82 196.81 552.82 196.78 552.83 196.76 552.83 196.74 552.84 196.71 552.84 196.7 552.84 196.68 552.83 196.66 552.82 196.63 552.81 196.6 552.8 196.57 552.79 196.55 552.79 196.53 552.79 196.5 552.78 196.44 552.78 196.41 552.78 196.38 552.77 196.34 552.78 196.31 552.79 196.27 552.79 196.24 552.78 196.21 552.79 196.17 552.79 196.14 552.79 196.1 552.78 196.06 552.78 196.02 552.78 195.99 552.77 195.95 552.76 195.91 552.76 195.89 552.76 195.86 552.74 195.82 552.74 195.79 552.73 195.75 552.72 195.72 552.71 195.69 552.7 195.67 552.73 195.67 552.77 195.68 552.82 195.68 552.87 195.69 552.93 195.69 552.98 195.68 553.01 195.67 553.05 195.63 553.08 195.61 553.12 195.58 553.14 195.56 553.17 195.52 553.18 195.49 553.2 195.46 553.22 195.44 553.25 195.41 553.27 195.39 553.3 195.37 553.33 195.36 553.37 195.35 553.4 195.35 553.45 195.36 553.49 195.36 553.54 195.36 553.56 195.36 553.6 195.35 553.63 195.33 553.67 195.31 553.72 195.29 553.76 195.27 553.81 195.23 553.86 195.21 553.9 195.18 553.93 195.16 553.96 195.14 553.98 195.12 554.01 195.11 554.04 195.09 554.06 195.07 554.08 195.05 554.09 195.03 554.1 195.01 554.1 195 554.11 194.98 554.12 194.94 554.14 194.88 554.18 194.84 554.21 194.81 554.25 194.77 554.27 194.77 554.29 194.78 554.31 194.8 554.33 194.83 554.35 194.84 554.43 194.87 554.55 194.92 554.69 194.99 554.81 195.05 554.84 195.06 555 195.13 555.15 195.2 555.3 195.26 555.46 195.34 555.57 195.39 555.72 195.45 555.81 195.48 555.99 195.54 556.13 195.58 556.32 195.64 556.52 195.71 556.71 195.87 556.91 195.86 557.11 195.84 557.29 195.81 557.5 195.77 557.65 195.75 557.83 195.75 557.99 195.76 558.11 195.76 558.21 195.77 558.37 195.85 558.48 195.9 558.57 195.94 558.68 196.01 558.82 196.1 558.98 196.2 559.08 196.26 559.28 196.36 559.38 196.55 559.4 196.65 559.43 196.77 559.47 196.9 559.51 197.03 559.55 197.14 559.58 197.26 559.63 197.38 559.66 197.49 559.69 197.59 559.7 197.61 559.73 197.72 559.78 197.88 559.83 198.05 559.86 198.14 559.87 198.21 559.89 198.3 559.9 198.38 559.9 198.49 559.92 198.6 559.93 198.75 559.94 198.87 559.83 199.06 559.68 199.32 559.55 199.53 559.47 199.67 559.45 199.7 559.33 199.92 559.26 200.03 559.18 200.1 559.04 200.24 558.92 200.35 558.83 200.44 558.78 200.49 558.62 200.7 558.49 200.88 558.45 200.93 558.3 201.13 558.16 201.31 558.02 201.5 557.81 201.77 557.73 201.87 557.66 201.97 557.56 202.1 557.54 202.14 557.48 202.23 557.41 202.35 557.33 202.49 557.26 202.61 557.19 202.75 557.15 202.81 557.12 202.86 557.08 202.92 557.04 202.99 557 203.07 556.88 203.19 556.78 203.31 556.66 203.44 556.44 203.68 556.33 203.81 556.29 203.85 Z"/>
</g></svg>