<svg xmlns="http://www.w3.org/2000/svg" version="1.2" baseProfile="tiny" stroke-linecap="round" stroke-linejoin="round" viewBox="359.15 361.6 17.68 17.53"><g xmlns="http://www.w3.org/2000/svg" id="Etaio">
<path d="M 366.1 362.62 366.17 362.59 366.19 362.58 366.21 362.56 366.24 362.54 366.27 362.51 366.31 362.46 366.35 362.42 366.38 362.4 366.43 362.37 366.47 362.35 366.5 362.34 366.55 362.34 366.61 362.33 366.71 362.33 366.75 362.33 366.79 362.31 366.85 362.3 366.93 362.26 367.01 362.23 367.07 362.2 367.12 362.17 367.13 362.17 367.13 362.18 367.15 362.39 366.75 362.48 366.88 362.75 367.15 362.69 367.17 362.84 367.39 363.44 367.76 363.36 367.84 363.22 367.85 363.23 367.99 363.44 367.99 363.45 368.12 363.64 368.15 363.64 368.2 363.68 368.26 363.72 368.31 363.77 368.33 363.79 368.37 363.82 368.41 363.85 368.45 363.89 368.5 363.93 368.52 363.95 368.53 363.97 368.54 364 368.99 363.97 369 363.97 369.01 363.97 369.12 363.97 369.17 364.12 369.27 364.08 369.3 364.07 369.34 364.05 369.37 364.02 369.42 364.01 369.46 364.01 369.51 364.01 369.55 364 369.61 363.98 369.65 363.97 369.69 363.94 369.72 363.93 369.75 363.93 369.8 363.93 369.86 363.93 369.87 363.93 369.89 363.94 369.89 363.96 369.9 363.98 369.92 363.98 369.96 363.97 369.98 363.93 370 363.88 370.02 363.82 370.06 363.74 370.1 363.67 370.13 363.62 370.14 363.6 370.15 363.59 370.18 363.56 370.19 363.55 370.18 363.24 370.34 363.15 370.45 363.1 370.53 363.05 370.56 363.04 370.58 363.03 370.6 363.03 370.63 363.03 370.66 363.03 370.69 363.02 370.72 363 370.76 362.98 370.8 362.95 370.83 362.93 370.85 362.9 370.89 362.99 370.92 362.96 370.98 362.93 371.02 362.9 371.05 362.89 371.08 362.85 371.12 362.82 371.15 362.78 371.18 362.72 371.2 362.68 371.21 362.65 371.23 362.6 371.36 362.54 371.48 362.48 371.51 362.51 371.55 362.58 371.71 362.51 371.82 362.47 371.89 362.43 371.9 362.4 371.9 362.35 371.89 362.32 371.87 362.28 371.86 362.25 371.84 362.2 371.81 362.08 371.74 361.8 371.71 361.66 371.71 361.62 371.71 361.61 371.74 361.61 371.81 361.62 371.83 361.63 371.86 361.65 371.91 361.69 371.96 361.75 372.44 362.28 372.45 362.28 372.55 362.25 372.58 362.24 372.73 362.2 372.76 362.2 372.81 362.2 372.84 362.21 372.96 362 372.97 361.98 372.98 361.96 372.99 361.94 373 361.9 373.01 361.88 373.03 361.83 373.04 361.77 373.08 361.66 373.09 361.62 373.31 361.75 373.51 361.88 373.68 362 373.8 362.08 373.82 362.1 373.81 362.12 373.8 362.15 373.79 362.17 373.79 362.19 373.79 362.22 373.78 362.24 373.78 362.27 373.78 362.29 373.78 362.32 373.79 362.37 373.79 362.4 373.8 362.44 373.8 362.46 373.8 362.5 373.8 362.54 373.8 362.57 373.8 362.6 373.8 362.63 373.8 362.67 373.8 362.69 373.79 362.73 373.79 362.75 373.79 362.79 373.78 362.82 373.78 362.85 373.78 362.92 373.77 362.96 373.77 362.99 373.76 363.01 373.75 363.03 373.73 363.05 373.7 363.08 373.67 363.1 373.64 363.13 373.62 363.14 373.61 363.15 373.59 363.18 373.56 363.22 373.54 363.25 373.53 363.28 373.52 363.31 373.51 363.35 373.5 363.38 373.5 363.4 373.5 363.41 373.5 363.42 373.49 363.43 373.47 363.46 373.47 363.47 373.47 363.49 373.46 363.52 373.46 363.55 373.46 363.58 373.45 363.6 373.44 363.63 373.44 363.66 373.43 363.68 373.42 363.7 373.41 363.74 373.41 363.76 373.4 363.78 373.4 363.82 373.39 363.84 373.38 363.87 373.38 363.9 373.38 363.93 373.38 363.96 373.37 363.99 373.36 364.02 373.35 364.06 373.34 364.1 373.33 364.14 373.32 364.17 373.3 364.2 373.28 364.23 373.27 364.25 373.26 364.27 373.26 364.28 373.26 364.3 373.26 364.31 373.28 364.34 373.29 364.38 373.31 364.41 373.32 364.43 373.33 364.46 373.34 364.47 373.35 364.48 373.32 364.51 373.31 364.52 373.3 364.54 373.31 364.56 373.32 364.58 373.33 364.61 373.35 364.64 373.37 364.67 373.4 364.7 373.43 364.74 373.46 364.77 373.47 364.79 373.48 364.82 373.49 364.84 373.5 364.87 373.53 364.9 373.56 364.93 373.56 364.93 373.6 364.96 373.63 364.98 373.66 365 373.69 365.03 373.72 365.06 373.75 365.08 373.79 365.13 373.84 365.18 373.89 365.25 373.96 365.33 374.02 365.42 374.07 365.48 374.12 365.53 374.15 365.57 374.18 365.62 374.21 365.66 374.25 365.7 374.29 365.74 374.31 365.78 374.33 365.82 374.34 365.86 374.36 365.91 374.38 365.96 374.38 365.97 374.38 365.99 374.39 366.02 374.41 366.05 374.44 366.08 374.45 366.11 374.47 366.13 374.48 366.18 374.5 366.24 374.53 366.3 374.55 366.34 374.57 366.38 374.59 366.4 374.61 366.42 374.62 366.45 374.65 366.49 374.66 366.5 374.66 366.51 374.67 366.52 374.7 366.49 374.72 366.47 374.73 366.48 374.74 366.51 374.76 366.56 374.79 366.63 374.81 366.68 374.82 366.71 374.83 366.73 374.83 366.75 374.84 366.78 374.84 366.8 374.85 366.81 374.86 366.82 374.88 366.85 374.93 366.89 374.97 366.94 375.01 366.97 375.04 367 375.06 367.02 375.09 367.04 375.12 367.06 375.13 367.08 375.14 367.1 375.16 367.13 375.18 367.16 375.19 367.19 375.2 367.21 375.21 367.28 375.22 367.31 375.34 367.86 375.35 367.91 375.37 367.95 375.39 367.97 375.42 367.99 375.48 368 375.52 368.01 375.55 368.02 375.57 368.02 375.56 368.09 375.56 368.12 375.56 368.12 375.56 368.18 375.56 368.21 375.56 368.24 375.56 368.29 375.56 368.35 375.56 368.41 375.59 368.44 375.6 368.48 375.62 368.53 375.63 368.58 375.65 368.63 375.65 368.65 375.66 368.68 375.66 368.73 375.66 368.81 375.66 368.86 375.66 368.88 375.67 368.91 375.69 368.93 375.71 368.95 375.74 368.98 375.79 369.03 375.8 369.05 375.82 369.07 375.84 369.1 375.86 369.13 375.88 369.16 375.89 369.19 375.92 369.24 375.93 369.28 375.94 369.32 375.96 369.38 375.97 369.44 375.99 369.48 376.02 369.51 376.07 369.54 376.09 369.57 376.14 369.61 376.2 369.65 376.26 369.69 376.33 369.74 376.4 369.79 376.45 369.83 376.5 369.86 376.57 369.91 376.62 369.95 376.66 369.99 376.68 370.02 376.71 370.05 376.72 370.08 376.73 370.11 376.73 370.15 376.73 370.18 376.73 370.19 376.74 370.25 376.75 370.28 376.76 370.31 376.78 370.33 376.78 370.34 376.8 370.37 376.81 370.42 376.82 370.45 376.82 370.46 376.82 370.47 376.81 370.5 376.8 370.52 376.78 370.54 376.74 370.62 376.74 370.65 376.74 370.67 376.75 370.71 376.76 370.81 376.77 370.87 376.8 371.17 376.78 371.28 376.78 371.3 376.77 371.31 376.77 371.34 376.75 371.42 376.74 371.51 376.74 371.52 376.71 371.63 376.68 371.78 376.68 371.81 376.68 371.85 376.65 371.98 376.61 372.07 376.57 372.19 376.51 372.31 376.47 372.41 376.47 372.41 376.45 372.47 376.43 372.54 376.41 372.57 376.41 372.57 376.4 372.59 376.38 372.61 376.36 372.63 376.3 372.68 376.26 372.73 376.2 372.79 376.14 372.84 376.06 372.82 375.91 372.79 375.9 372.79 375.81 372.76 375.73 372.73 375.64 372.7 375.55 372.66 375.48 372.65 375.4 372.63 375.37 372.62 375.34 372.62 375.3 372.61 375.26 372.6 375.23 372.6 375.18 372.59 375.16 372.59 375.1 372.59 375.05 372.59 374.97 372.58 374.88 372.57 374.81 372.57 374.75 372.57 374.72 372.57 374.68 372.57 374.62 372.6 374.59 372.61 374.56 372.63 374.53 372.65 374.5 372.67 374.49 372.7 374.48 372.72 374.46 372.74 374.43 372.85 374.42 372.89 374.41 372.91 374.37 372.96 374.33 373 374.29 373.04 374.24 373.09 374.2 373.12 374.18 373.13 374.15 373.16 374.13 373.18 374.09 373.22 374.03 373.26 373.99 373.29 373.97 373.31 373.94 373.33 373.89 373.38 373.85 373.43 373.8 373.47 373.77 373.49 373.75 373.5 373.72 373.52 373.69 373.55 373.64 373.57 373.63 373.58 373.58 373.61 373.5 373.63 373.45 373.65 373.41 373.66 373.4 373.66 373.36 373.68 373.29 373.71 373.22 373.72 373.17 373.74 373.1 373.77 373.05 373.79 373.02 373.8 372.99 373.8 372.93 373.8 372.85 373.8 372.77 373.8 372.68 373.8 372.63 373.81 372.6 373.82 372.52 373.84 372.42 373.88 372.4 373.89 372.33 373.89 372.28 373.88 372.25 373.89 372.15 373.88 372.14 373.88 372.12 373.86 372.11 373.86 372.1 373.86 372.05 373.85 372.04 373.85 371.99 373.84 371.98 373.84 371.96 373.83 371.92 373.81 371.9 373.81 371.87 373.8 371.83 373.8 371.81 373.8 371.78 373.8 371.74 373.8 371.73 373.8 371.72 373.8 371.7 373.8 371.67 373.8 371.63 373.8 371.63 373.8 371.58 373.8 371.54 373.8 371.51 373.8 371.49 373.8 371.44 373.8 371.42 373.8 371.41 373.8 371.4 373.8 371.35 373.8 371.33 373.8 371.3 373.8 371.29 373.8 371.26 373.8 371.23 373.79 371.11 373.78 371.08 373.78 371.01 373.78 370.91 373.78 370.89 373.78 370.88 373.78 370.72 373.77 370.64 373.76 370.5 373.75 370.4 373.74 370.37 373.74 370.34 373.74 370.21 373.73 370.18 373.73 370.13 373.73 369.92 373.73 369.79 373.72 369.78 373.72 369.71 373.72 369.64 373.72 369.62 373.72 369.59 373.72 369.54 373.72 369.5 373.72 369.47 373.72 369.46 373.72 369.45 373.72 369.39 373.71 369.32 373.71 369.31 373.71 369.21 373.7 369.12 373.69 369.05 373.67 369.01 373.67 368.93 373.68 368.88 373.69 368.79 373.71 368.77 373.71 368.72 373.72 368.68 373.73 368.58 373.77 368.55 373.78 368.46 373.81 368.32 373.85 368.29 373.86 368.29 373.84 368.29 373.83 368.26 373.74 368.26 373.71 368.25 373.7 368.24 373.65 368.23 373.61 368.21 373.53 368.18 373.42 368.12 373.2 368.1 373.11 368.09 373.1 368.09 373.08 368.08 373.06 368.08 373.05 368.07 372.98 368.06 372.91 368.06 372.87 368.05 372.8 368.06 372.76 368.07 372.69 368.07 372.63 368.08 372.6 368.06 372.59 367.98 372.58 367.91 372.57 367.85 372.57 367.78 372.58 367.72 372.59 367.62 372.62 367.55 372.65 367.49 372.69 367.41 372.73 367.34 372.79 367.32 372.81 367.23 372.9 367.19 372.91 367.11 372.92 367.01 372.94 366.93 372.96 366.87 372.97 366.69 373.02 366.56 373.06 366.45 373.09 366.34 373.13 366.27 373.16 366.16 373.21 366.06 373.26 365.96 373.32 365.84 373.38 365.76 373.43 365.68 373.48 365.65 373.5 365.61 373.53 365.51 373.61 365.5 373.61 365.49 373.62 365.47 373.64 365.43 373.68 365.36 373.74 365.29 373.82 365.18 373.9 365.07 373.99 364.99 374.08 364.92 374.15 364.86 374.23 364.8 374.32 364.75 374.4 364.71 374.45 364.7 374.48 364.68 374.5 364.68 374.56 364.67 374.64 364.66 374.67 364.66 374.69 364.64 374.77 364.62 374.85 364.59 374.94 364.55 375.03 364.52 375.1 364.5 375.12 364.48 375.13 364.47 375.13 364.43 375.14 364.42 375.17 364.41 375.21 364.4 375.22 364.37 375.24 364.33 375.29 364.28 375.35 364.24 375.39 364.21 375.44 364.19 375.47 364.16 375.49 364.12 375.51 364.07 375.53 364.03 375.57 364.01 375.58 363.99 375.61 363.96 375.64 363.92 375.68 363.89 375.7 363.87 375.75 363.83 375.81 363.81 375.83 363.78 375.86 363.74 375.9 363.7 375.96 363.65 376.03 363.58 376.12 363.51 376.23 363.47 376.31 363.45 376.36 363.45 376.39 363.44 376.46 363.44 376.52 363.44 376.53 363.43 376.56 363.43 376.57 363.42 376.6 363.41 376.61 363.23 377.25 363.22 377.26 363.04 377.44 363.03 377.45 363.02 377.46 362.98 377.5 362.91 377.58 362.9 377.6 362.9 377.63 362.89 377.65 362.87 377.69 362.85 377.71 362.82 377.73 362.79 377.81 362.76 377.88 362.74 377.95 362.72 378 362.71 378.02 362.68 378.09 362.68 378.11 362.67 378.12 362.67 378.14 362.66 378.18 362.66 378.21 362.65 378.23 362.65 378.26 362.66 378.31 362.66 378.38 362.67 378.42 362.66 378.49 362.65 378.6 362.64 378.67 362.63 378.76 362.63 378.92 362.62 379.06 362.61 379.06 362.54 379.06 362.47 379.07 362.34 379.08 362.21 379.09 362.08 379.1 361.95 379.11 361.77 379.12 361.65 379.13 361.59 379.13 361.5 379.12 361.42 379.11 361.34 379.11 361.25 379.1 361.17 379.09 361.1 379.09 361.05 379.08 361.04 379.03 361.04 378.98 361.03 378.94 361.02 378.89 361.01 378.85 360.93 378.78 360.85 378.71 360.8 378.67 360.74 378.63 360.73 378.62 360.7 378.59 360.69 378.58 360.65 378.56 360.57 378.58 360.48 378.6 360.37 378.62 360.29 378.64 360.2 378.66 360.13 378.68 360.04 378.7 359.96 378.71 359.87 378.73 359.79 378.74 359.71 378.76 359.65 378.77 359.57 378.78 359.5 378.79 359.49 378.74 359.31 378.2 359.3 378.18 359.3 378.15 359.29 378.13 359.25 378 359.24 377.98 359.23 377.96 359.18 377.7 359.18 377.68 359.3 377.28 359.44 377.1 359.49 377.04 359.53 376.97 359.56 376.9 359.63 376.79 359.67 376.72 359.7 376.69 359.77 376.55 359.81 376.48 359.83 376.41 359.85 376.36 359.86 376.33 359.89 376.25 359.93 376.16 359.97 376.03 360 375.96 360.02 375.9 360.03 375.87 360.08 375.76 360.1 375.71 360.1 375.7 360.14 375.64 360.2 375.5 360.21 375.48 360.22 375.44 360.27 375.32 360.28 375.27 360.29 375.24 360.3 375.19 360.37 375.02 360.4 374.93 360.42 374.9 360.42 374.87 360.43 374.85 360.46 374.78 360.48 374.73 360.5 374.66 360.52 374.59 360.54 374.55 360.56 374.52 360.57 374.5 360.6 374.45 360.62 374.42 360.62 374.41 360.64 374.37 360.7 374.3 360.72 374.27 360.73 374.25 360.73 374.23 360.72 374.22 360.67 374.15 360.62 374.04 360.55 373.87 360.54 373.85 360.53 373.79 360.52 373.71 360.52 373.69 360.51 373.66 360.5 373.65 360.46 373.59 360.42 373.49 360.39 373.41 360.38 373.4 360.35 373.35 360.35 373.34 360.34 373.32 360.32 373.28 360.32 373.27 360.31 373.24 360.31 373.23 360.31 373.21 360.28 373.12 360.21 372.98 360.19 372.93 360.17 372.87 360.14 372.78 360.11 372.69 360.09 372.62 360.07 372.56 360.06 372.51 360.05 372.47 360.04 372.41 360.03 372.38 360.03 372.29 360.04 372.21 360.03 372.17 360.04 372.07 360.04 372.01 360.04 371.92 360.05 371.87 360.06 371.77 360.07 371.68 360.08 371.62 360.08 371.54 360.09 371.43 360.09 371.36 360.1 371.27 360.11 371.17 360.11 371.08 360.12 370.99 360.13 370.89 360.13 370.8 360.14 370.72 360.14 370.64 360.15 370.57 360.22 370.37 360.28 370.24 360.34 370.11 360.37 370.04 360.41 369.94 360.48 369.79 360.53 369.69 360.58 369.58 360.67 369.39 360.7 369.33 360.71 369.31 360.71 369.3 360.73 369.29 360.79 369.29 360.86 369.3 360.96 369.31 361.09 369.34 361.19 369.33 361.26 369.34 361.33 369.34 361.42 369.35 361.54 369.35 361.7 369.35 361.98 369.34 361.98 369.29 361.97 369.17 361.97 369.15 361.96 369.13 361.91 368.99 361.88 368.92 361.85 368.85 361.81 368.77 361.79 368.74 361.76 368.68 361.73 368.64 361.73 368.63 361.73 368.52 361.61 368.28 361.53 368.12 361.51 368.11 361.49 368.11 361.48 368.1 361.48 368.09 361.45 367.99 361.44 367.93 361.43 367.88 361.44 367.84 361.45 367.79 361.47 367.74 361.51 367.65 361.59 367.34 361.75 367.27 361.74 367.11 362.02 367.04 362.04 366.79 362.17 366.42 362.46 366.4 362.54 366.1 362.34 365.57 362.34 365.54 362.33 365.49 362.34 365.44 362.33 365.38 362.33 365.33 362.32 365.29 362.32 365.24 362.33 365.21 362.36 365.13 362.39 365.07 362.54 365.1 362.56 365.1 362.56 364.9 362.81 364.94 362.79 364.83 362.99 364.74 363.22 364.63 363.19 364.52 363.15 364.34 363.14 364.33 363.29 364.29 363.46 364.25 363.58 364.23 363.74 364.21 363.94 364.19 364.05 364.19 364.1 364.19 364.14 364.19 364.23 364.17 364.33 364.15 364.44 364.12 364.57 364.05 364.73 363.93 364.86 363.8 364.99 363.65 365.05 363.58 365.1 363.54 365.32 363.33 365.34 363.3 365.36 363.28 365.42 363.21 365.5 363.14 365.72 362.92 365.96 362.73 366.1 362.62 Z"/>
</g></svg>