<svg xmlns="http://www.w3.org/2000/svg" version="1.2" baseProfile="tiny" stroke-linecap="round" stroke-linejoin="round" viewBox="714.93 76.25 8.98 16.1"><g xmlns="http://www.w3.org/2000/svg" id="Etxarri (Zuberoa)">
<path d="M 717.71 76.26 717.99 76.37 718.18 76.42 718.64 76.55 718.78 76.65 718.84 76.68 718.88 76.71 718.9 76.73 718.93 76.75 718.99 76.77 719.04 76.78 719.08 76.8 719.14 76.84 719.22 76.91 719.24 76.93 719.3 76.96 719.4 77.01 719.5 77.07 719.59 77.11 719.69 77.14 719.72 77.14 719.75 77.15 719.78 77.16 719.8 77.17 719.82 77.17 719.84 77.17 719.87 77.17 719.9 77.17 719.92 77.18 720 77.18 720.04 77.18 720.1 77.18 720.13 77.18 720.18 77.18 720.2 77.17 720.22 77.17 720.25 77.16 720.28 77.15 720.32 77.13 720.33 77.12 720.35 77.11 720.37 77.1 720.39 77.09 720.41 77.07 720.42 77.07 720.43 77.06 720.44 77.05 720.46 77.04 720.49 77.03 720.5 77.03 720.53 77.02 720.56 77.02 720.59 77.02 720.67 77.03 720.72 77.05 720.78 77.1 720.83 77.14 720.85 77.17 720.89 77.2 720.95 77.27 720.98 77.29 721 77.29 721.01 77.3 721.04 77.3 721.06 77.3 721.07 77.3 721.12 77.31 721.14 77.3 721.17 77.3 721.18 77.31 721.2 77.31 721.22 77.32 721.26 77.33 721.52 76.97 721.8 76.9 721.86 76.81 721.91 76.77 722.05 76.82 722.05 76.83 722.05 76.85 722.06 76.86 722.07 76.87 722.09 76.88 722.11 76.89 722.13 76.9 722.16 76.92 722.21 76.95 722.27 76.99 722.29 77 722.31 77.02 722.32 77.03 722.36 77.06 722.37 77.08 722.38 77.09 722.4 77.12 722.41 77.14 722.41 77.16 722.42 77.21 722.43 77.23 722.44 77.25 722.45 77.26 722.46 77.28 722.47 77.3 722.49 77.31 722.52 77.33 722.54 77.34 722.57 77.35 722.6 77.36 722.63 77.39 722.45 77.58 722.41 77.83 722.57 77.78 722.61 77.96 722.99 78.29 723.14 77.95 723.34 78.05 723.3 78.28 723.38 78.41 723.4 78.47 723.41 78.48 723.41 78.49 723.42 78.51 723.42 78.54 723.42 78.55 723.42 78.57 723.43 78.58 723.43 78.6 723.43 78.61 723.44 78.63 723.44 78.64 723.45 78.66 723.47 78.69 723.48 78.7 723.48 78.71 723.48 78.72 723.48 78.75 723.47 78.79 723.47 78.81 723.47 78.83 723.46 78.85 723.45 78.87 723.45 78.89 723.43 78.91 723.39 78.96 723.38 78.97 723.37 78.98 723.35 78.99 723.34 79 723.34 79.01 723.33 79.01 723.31 79.02 723.3 79.03 723.29 79.03 723.28 79.04 723.27 79.05 723.25 79.06 723.24 79.08 723.23 79.09 723.22 79.11 723.21 79.13 723.2 79.15 723.2 79.16 723.19 79.17 723.18 79.19 723.18 79.2 723.16 79.22 723.16 79.22 723.15 79.23 723.13 79.24 723.12 79.25 723.11 79.27 723.06 79.35 723.05 79.37 723.03 79.38 723.02 79.39 723.01 79.4 723 79.4 722.99 79.42 722.98 79.43 722.96 79.44 722.95 79.45 722.93 79.47 722.92 79.49 722.92 79.5 722.91 79.52 722.89 79.54 722.87 79.56 722.85 79.57 722.84 79.59 722.83 79.6 722.82 79.61 722.82 79.62 722.81 79.64 722.81 79.66 722.8 79.68 722.8 79.7 722.8 79.71 722.8 79.72 722.81 79.75 722.82 79.76 722.83 79.78 722.85 79.81 722.86 79.83 722.98 79.99 722.99 80.01 723 80.02 723.01 80.03 723.01 80.05 723.02 80.06 723.03 80.08 723.04 80.1 723.05 80.11 723.06 80.13 723.07 80.14 723.09 80.15 723.1 80.17 723.12 80.18 723.13 80.19 723.14 80.2 723.17 80.21 723.18 80.21 723.2 80.21 723.22 80.22 723.24 80.23 723.26 80.24 723.28 80.25 723.3 80.27 723.31 80.28 723.32 80.29 723.33 80.31 723.35 80.33 723.36 80.34 723.37 80.36 723.38 80.38 723.39 80.41 723.4 80.45 723.4 80.47 723.4 80.49 723.4 80.51 723.4 80.53 723.4 80.55 723.41 80.58 723.42 80.59 723.42 80.61 723.43 80.63 723.44 80.65 723.45 80.67 723.48 80.72 723.48 80.72 723.5 80.74 723.51 80.78 723.52 80.79 723.53 80.81 723.54 80.84 723.54 80.85 723.55 80.86 723.55 80.88 723.55 80.91 723.55 80.93 723.54 80.95 723.54 80.96 723.53 80.98 723.52 81 723.51 81.01 723.5 81.02 723.49 81.03 723.47 81.04 723.46 81.05 723.45 81.05 723.44 81.07 723.44 81.08 723.43 81.1 723.42 81.11 723.41 81.13 723.41 81.14 723.41 81.15 723.32 81.2 723.08 81.47 722.9 81.6 722.82 81.67 723.2 82.26 723.72 81.98 723.69 82.51 723.78 82.59 723.58 82.8 723.62 82.85 723.66 82.88 723.7 82.94 723.71 82.95 723.72 83 723.76 83.1 723.78 83.15 723.8 83.18 723.81 83.2 723.83 83.21 723.85 83.22 723.86 83.23 723.88 83.25 723.88 83.28 723.89 83.33 723.79 83.4 723.8 83.42 723.82 83.46 723.84 83.52 723.85 83.56 723.85 83.6 723.87 83.65 723.87 83.68 723.88 83.7 723.89 83.75 723.89 83.77 723.89 83.79 723.89 83.81 723.89 83.83 723.89 83.85 723.89 83.87 723.89 83.89 723.89 83.91 723.88 83.97 723.88 84 723.87 84.05 723.86 84.09 723.86 84.12 723.85 84.15 723.84 84.17 723.83 84.21 723.81 84.24 723.81 84.26 723.8 84.27 723.78 84.27 723.77 84.27 723.75 84.27 723.73 84.27 723.69 84.26 723.67 84.25 723.65 84.24 723.62 84.23 723.59 84.23 723.58 84.23 723.51 84 723.12 84.05 722.46 84.23 722.47 84.24 722.59 84.59 722.63 84.62 722.66 84.8 722.59 84.84 722.6 84.87 722.79 85.16 722.82 85.33 722.81 85.51 722.7 85.64 722.63 85.64 722.3 85.38 722.35 85.12 722.3 84.87 722.08 84.53 722.03 84.52 721.76 84.7 721.78 84.8 721.67 84.98 721.68 85.03 721.82 85.08 721.91 85.16 721.78 85.36 721.6 85.5 721.61 85.86 721.59 85.97 721.58 86.12 721.57 86.19 721.57 86.24 721.58 86.33 721.58 86.36 721.59 86.38 721.61 86.44 721.61 86.46 721.49 86.5 721.44 86.53 721.37 86.56 721.31 86.6 721.27 86.63 721.23 86.66 721.19 86.67 721.11 86.7 721.08 86.71 721.04 86.74 721 86.77 720.9 86.86 720.81 86.95 720.79 86.97 721.08 87.71 720.96 87.75 720.98 87.85 721.01 87.97 721.02 88.02 721.01 88.04 721 88.07 720.98 88.1 720.94 88.17 720.91 88.21 720.93 88.45 720.52 88.44 720.4 88.25 720.37 88.23 720.16 88.34 720.05 88.49 720.12 88.54 720.1 88.75 720.33 88.91 720.43 88.98 720.52 89.04 720.62 89.19 720.79 89.32 720.95 90.15 720.93 90.15 720.87 90.14 720.81 90.15 720.76 90.15 720.71 90.15 720.66 90.17 720.62 90.17 720.58 90.18 720.5 90.19 720.47 90.19 720.45 90.19 720.41 90.2 720.36 90.21 720.3 90.22 720.23 90.22 720.19 90.22 720.15 90.23 720.09 90.23 720.05 90.23 719.99 90.23 719.93 90.24 719.9 90.24 719.86 90.25 719.81 90.26 719.75 90.27 719.74 90.28 719.72 90.28 719.69 90.29 719.63 90.32 719.59 90.34 719.51 90.38 719.49 90.4 719.46 90.43 719.43 90.45 719.4 90.48 719.36 90.51 719.33 90.52 719.28 90.53 719.25 90.54 719.2 90.56 719.15 90.59 719.13 90.6 719.11 90.61 719.08 90.62 719.04 90.62 719.01 90.62 719 90.62 718.98 90.63 718.93 90.65 718.9 90.67 718.86 90.7 718.82 90.75 718.79 90.79 718.74 90.85 718.72 90.88 718.7 90.91 718.67 90.95 718.65 90.98 718.63 90.99 718.61 91.02 718.59 91.05 718.57 91.08 718.56 91.1 718.7 91.33 718.63 91.58 718.45 91.61 718.29 92.32 718.27 92.33 718.26 92.33 718.24 92.33 718.23 92.32 718.19 92.27 718.15 92.22 718.11 92.16 718.1 92.15 718.07 92.14 717.99 92.1 717.89 92.04 717.83 92.01 717.72 91.97 717.66 91.94 717.63 91.92 717.61 91.9 717.55 91.84 717.52 91.73 717.08 91.29 717.08 91.27 717.08 91.26 717.08 91.24 717.07 91.22 717.06 91.2 717.04 91.15 717.02 91.13 717.02 91.11 717 91.08 717 91.07 716.98 91.04 716.97 91.01 716.96 91 716.94 90.98 716.92 90.96 716.9 90.93 716.89 90.92 716.86 90.9 716.85 90.88 716.83 90.85 716.82 90.83 716.8 90.81 716.79 90.79 716.78 90.77 716.78 90.75 716.76 90.73 716.75 90.68 716.75 90.66 716.74 90.64 716.73 90.62 716.71 90.61 716.69 90.59 716.67 90.58 716.65 90.57 716.61 90.56 716.58 90.56 716.54 90.56 716.5 90.56 716.47 90.57 716.43 90.57 716.39 90.57 716.38 90.57 716.35 90.57 716.31 90.56 716.26 90.56 716.23 90.55 716.21 90.54 716.17 90.52 716.14 90.51 716.12 90.5 716.1 90.49 716.05 90.48 716.01 90.47 715.98 90.46 715.92 90.45 715.89 90.44 715.86 90.42 715.83 90.41 715.82 90.4 715.8 90.39 715.78 90.38 715.76 90.38 715.74 90.37 715.72 90.35 715.72 90.34 715.71 90.32 715.7 90.3 715.69 90.25 715.68 90.23 715.67 90.22 715.66 90.2 715.63 90.13 715.57 90.05 715.49 89.98 715.45 89.92 715.4 89.89 715.36 89.85 715.33 89.81 715.29 89.78 715.26 89.73 715.23 89.68 715.21 89.63 715.19 89.59 715.18 89.54 715.17 89.49 715.15 89.41 715.14 89.32 715.15 89.26 715.14 89.21 715.13 89.17 715.12 89.13 715.11 89.1 715.11 89.08 715.1 89.05 715.1 89.02 715.1 88.99 715.09 88.96 715.09 88.93 715.09 88.89 715.1 88.86 715.11 88.84 715.12 88.83 715.14 88.8 715.19 88.78 715.21 88.77 715.25 88.76 715.28 88.74 715.28 88.73 715.27 88.66 715.27 88.63 715.27 88.61 715.27 88.58 715.27 88.56 715.28 88.51 715.3 88.44 715.32 88.37 715.34 88.32 715.36 88.25 715.37 88.23 715.41 88.17 715.43 88.14 715.45 88.12 715.46 88.09 715.49 88.06 715.5 88.03 715.53 87.98 715.56 87.92 715.57 87.91 715.58 87.85 715.58 87.84 715.59 87.82 715.61 87.76 715.62 87.74 715.63 87.71 715.65 87.67 715.67 87.63 715.69 87.56 715.73 87.5 715.74 87.48 715.76 87.42 715.77 87.38 715.78 87.35 715.78 87.33 715.78 87.32 715.78 87.31 715.78 87.29 715.77 87.26 715.77 87.24 715.75 87.21 715.74 87.19 715.72 87.16 715.67 87.09 715.61 86.97 715.6 86.92 715.59 86.89 715.58 86.86 715.57 86.82 715.54 86.78 715.53 86.76 715.51 86.72 715.39 86.55 715.35 86.48 715.33 86.44 715.32 86.41 715.32 86.34 715.34 86.27 715.34 86.21 715.35 86.17 715.34 86.14 715.32 86.06 715.29 85.99 715.28 85.91 715.28 85.85 715.27 85.79 715.26 85.74 715.25 85.69 715.25 85.65 715.26 85.6 715.28 85.51 715.3 85.43 715.31 85.35 715.31 85.29 715.29 85.24 715.27 85.19 715.26 85.14 715.25 85.08 715.25 85.01 715.26 84.93 715.27 84.87 715.27 84.8 715.29 84.73 715.3 84.67 715.3 84.6 715.5 84.32 715.51 84.13 715.43 83.93 715.45 83.7 715.51 83.53 715.49 83.48 715.43 83.34 715.54 83.03 715.72 82.94 715.85 82.87 715.8 82.82 715.73 82.72 715.69 82.67 715.66 82.62 715.64 82.6 715.62 82.58 715.56 82.25 715.59 82.03 715.57 82.02 715.57 82.02 715.56 82 715.56 81.99 715.56 81.97 715.56 81.95 715.57 81.91 715.58 81.87 715.59 81.83 715.6 81.8 715.61 81.78 715.62 81.76 715.64 81.74 715.66 81.73 715.66 81.73 715.68 81.71 715.7 81.7 715.71 81.68 715.7 81.67 715.69 81.65 715.67 81.64 715.66 81.62 715.64 81.61 715.59 81.54 715.53 81.47 715.48 81.4 715.46 81.35 715.45 81.33 715.42 81.22 715.41 81.16 715.41 81.13 715.41 81.11 715.41 81.08 715.43 81.01 715.44 80.99 715.45 80.95 715.45 80.93 715.46 80.89 715.46 80.87 715.45 80.83 715.44 80.8 715.42 80.77 715.4 80.76 715.39 80.75 715.38 80.74 715.37 80.74 715.36 80.73 715.35 80.71 715.33 80.68 715.3 80.61 715.27 80.58 715.23 80.51 715.17 80.43 715.13 80.37 715.1 80.33 715.09 80.31 715.08 80.29 715.07 80.25 715.06 80.21 715.05 80.18 715.04 80.11 715.03 80.06 715.03 80.05 715.01 80.02 714.98 79.98 714.94 79.76 714.94 79.68 714.96 79.65 714.99 79.6 715.01 79.53 715.01 79.5 715.03 79.5 715.04 79.49 715.06 79.46 715.13 79.35 715.2 79.25 715.24 79.23 715.26 79.22 715.3 79.21 715.34 79.2 715.37 79.19 715.4 79.19 715.43 79.19 715.46 79.2 715.54 79.24 715.62 79.29 715.66 79.3 715.66 79.41 715.69 79.42 715.73 79.43 715.75 79.44 715.77 79.44 715.82 79.45 715.86 79.45 715.89 79.46 715.91 79.46 715.94 79.47 715.99 79.47 716.06 79.48 716.08 79.49 716.11 79.5 716.13 79.51 716.18 79.53 716.2 79.54 716.27 79.56 716.4 79.57 716.46 79.57 716.49 79.57 716.53 79.58 716.59 79.35 716.81 79.14 717.07 78.56 717.13 78.18 716.98 77.85 716.99 77.8 716.98 77.72 716.99 77.67 717.11 77.48 716.99 77.32 716.77 77.45 716.72 77.48 716.61 77.46 716.43 77.32 716.46 77.25 716.65 76.99 716.68 76.54 716.71 76.39 716.73 76.4 716.76 76.4 716.81 76.41 716.84 76.42 716.87 76.43 716.92 76.45 716.96 76.47 717.01 76.48 717.07 76.5 717.13 76.5 717.19 76.5 717.24 76.49 717.28 76.48 717.32 76.47 717.37 76.44 717.4 76.43 717.41 76.43 717.42 76.43 717.44 76.44 717.46 76.44 717.46 76.44 717.47 76.44 717.49 76.43 717.52 76.4 717.71 76.26 Z"/>
</g></svg>