<svg xmlns="http://www.w3.org/2000/svg" version="1.2" baseProfile="tiny" stroke-linecap="round" stroke-linejoin="round" viewBox="461.25 299.63 9.05 6.9"><g xmlns="http://www.w3.org/2000/svg" id="Etxarri Etxauribar">
<path d="M 468.51 300.95 468.54 300.98 468.58 301.02 468.64 301.07 468.71 301.13 468.77 301.19 468.81 301.23 468.84 301.26 468.86 301.28 468.89 301.31 468.91 301.33 468.92 301.35 468.95 301.38 468.97 301.41 469 301.44 469.02 301.47 469.04 301.51 469.05 301.54 469.08 301.61 469.11 301.66 469.12 301.7 469.13 301.73 469.13 301.76 469.14 301.77 469.14 301.79 469.15 301.82 469.15 301.88 469.15 301.91 469.16 301.96 469.17 301.99 469.19 302.04 469.22 302.12 469.25 302.19 469.28 302.26 469.31 302.34 469.34 302.42 469.38 302.5 469.41 302.57 469.44 302.64 469.47 302.71 469.5 302.78 469.53 302.86 469.58 302.96 469.62 303.04 469.67 303.15 469.73 303.26 469.78 303.35 469.83 303.44 469.9 303.53 469.96 303.62 470.01 303.7 470.06 303.79 470.11 303.87 470.17 303.96 470.22 304.05 470.24 304.1 470.26 304.15 470.27 304.21 470.29 304.27 470.29 304.32 470.29 304.36 470.29 304.38 470.21 304.5 470.16 304.59 470.1 304.66 470.05 304.73 469.98 304.82 469.94 304.87 469.89 304.92 469.85 304.97 469.79 305.02 469.72 305.08 469.65 305.14 469.58 305.2 469.5 305.28 469.43 305.35 469.37 305.41 469.32 305.46 469.24 305.55 469.18 305.62 469.13 305.67 469.04 305.76 468.97 305.83 468.92 305.86 468.87 305.9 468.81 305.94 468.74 305.99 468.67 306.02 468.58 306.06 468.49 306.1 468.41 306.13 468.29 306.18 468.15 306.23 468.04 306.27 467.91 306.32 467.79 306.35 467.67 306.4 467.53 306.44 467.44 306.47 467.26 306.52 467.26 306.5 467.25 306.48 467.24 306.45 467.24 306.43 467.23 306.42 467.23 306.4 467.2 306.32 467.19 306.28 467.19 306.26 467.18 306.24 467.16 306.18 467.14 306.13 467.14 306.12 467.12 306.05 467.09 305.96 467.06 305.88 467.03 305.8 467.02 305.78 467.02 305.76 466.99 305.69 466.98 305.65 466.97 305.63 466.97 305.62 466.96 305.6 466.95 305.57 466.92 305.5 466.89 305.44 466.86 305.36 466.82 305.28 466.79 305.22 466.77 305.17 466.74 305.11 466.73 305.1 466.71 305.04 466.67 304.97 466.63 304.87 466.62 304.86 466.62 304.86 466.59 304.8 466.55 304.74 466.52 304.68 466.52 304.66 466.48 304.61 466.43 304.54 466.41 304.51 466.4 304.5 466.35 304.43 466.31 304.38 466.28 304.36 466.27 304.34 466.22 304.28 466.19 304.25 466.18 304.22 466.16 304.21 466.12 304.15 466.09 304.12 466.08 304.1 466.06 304.08 465.96 303.98 465.86 303.87 465.78 303.78 465.72 303.71 465.65 303.63 465.64 303.62 465.63 303.61 465.6 303.59 465.58 303.57 465.53 303.54 465.5 303.53 465.48 303.52 465.46 303.52 465.44 303.52 465.41 303.52 465.4 303.52 465.35 303.52 465.32 303.51 465.29 303.49 465.24 303.47 465.19 303.44 465.15 303.42 465.14 303.42 465.08 303.38 465.05 303.36 465.02 303.34 464.98 303.31 464.93 303.26 464.9 303.24 464.86 303.21 464.83 303.18 464.79 303.15 464.76 303.12 464.72 303.08 464.7 303.05 464.68 303.03 464.65 303 464.63 302.98 464.61 302.94 464.58 302.91 464.57 302.88 464.54 302.84 464.53 302.81 464.52 302.76 464.52 302.74 464.49 302.62 464.46 302.54 464.44 302.45 464.42 302.38 464.42 302.37 464.41 302.35 464.41 302.34 464.4 302.32 464.35 302.32 464.28 302.34 464.19 302.36 464.17 302.36 464.15 302.37 464.07 302.38 463.98 302.41 463.95 302.41 463.89 302.42 463.82 302.44 463.81 302.45 463.73 302.49 463.72 302.49 463.65 302.53 463.6 302.56 463.51 302.6 463.49 302.61 463.47 302.62 463.43 302.65 463.39 302.69 463.36 302.73 463.34 302.75 463.31 302.78 463.29 302.81 463.23 302.87 463.19 302.91 463.18 302.92 463.14 302.97 463.08 303.03 463.05 303.07 462.98 303.15 462.91 303.22 462.85 303.29 462.83 303.31 462.75 303.39 462.68 303.47 462.62 303.47 462.59 303.47 462.56 303.47 462.54 303.46 462.51 303.46 462.47 303.44 462.42 303.43 462.38 303.41 462.33 303.4 462.28 303.37 462.23 303.34 462.17 303.27 462.09 303.19 461.98 303.09 461.91 303 461.84 302.94 461.72 302.83 461.66 302.75 461.61 302.71 461.54 302.64 461.47 302.57 461.44 302.47 461.41 302.38 461.37 302.25 461.34 302.18 461.35 302.15 461.37 302.09 461.39 302.03 461.41 301.96 461.43 301.9 461.44 301.86 461.45 301.82 461.47 301.78 461.47 301.74 461.48 301.7 461.47 301.62 461.47 301.53 461.47 301.43 461.47 301.24 461.47 301.14 461.47 301.04 461.47 300.93 461.47 300.88 461.47 300.85 461.46 300.78 461.43 300.64 461.41 300.46 461.39 300.35 461.37 300.24 461.34 300.08 461.32 299.93 461.3 299.81 461.28 299.66 461.42 299.68 461.51 299.7 461.66 299.71 461.69 299.72 461.84 299.73 461.91 299.74 462.05 299.77 462.17 299.8 462.25 299.82 462.41 299.86 462.53 299.89 462.66 299.92 462.79 299.94 462.8 299.95 462.9 299.97 463.02 300 463.11 300.02 463.17 300.04 463.19 300.04 463.2 300.05 463.24 300.07 463.29 300.11 463.42 300.18 463.46 300.21 463.48 300.22 463.5 300.23 463.63 300.35 463.64 300.35 463.66 300.37 463.71 300.41 463.77 300.46 463.81 300.49 463.85 300.53 463.92 300.59 463.97 300.65 464.02 300.69 464.06 300.75 464.08 300.77 464.12 300.83 464.19 300.88 464.23 300.92 464.28 300.96 464.32 301.02 464.37 301.06 464.42 301.11 464.47 301.14 464.54 301.19 464.59 301.22 464.64 301.25 464.68 301.27 464.73 301.29 464.79 301.31 464.85 301.33 464.99 301.36 465.03 301.37 465.08 301.38 465.12 301.39 465.18 301.43 465.22 301.46 465.26 301.48 465.3 301.5 465.33 301.53 465.37 301.57 465.4 301.59 465.46 301.63 465.55 301.67 465.62 301.72 465.73 301.77 465.81 301.81 465.82 301.81 465.85 301.79 465.94 301.72 466.05 301.65 466.16 301.57 466.26 301.51 466.28 301.5 466.31 301.5 466.36 301.5 466.45 301.49 466.51 301.49 466.56 301.48 466.65 301.48 466.76 301.46 466.88 301.45 466.95 301.45 466.98 301.44 466.99 301.44 467.01 301.44 467.1 301.45 467.29 301.46 467.39 301.46 467.43 301.46 467.53 301.41 467.68 301.35 467.7 301.34 467.79 301.3 467.89 301.26 467.9 301.25 468.02 301.2 468.03 301.2 468.07 301.18 468.08 301.17 468.12 301.16 468.21 301.14 468.27 301.13 468.32 301.12 468.35 301.1 468.36 301.1 468.38 301.07 468.45 301.01 468.51 300.95 Z"/>
</g></svg>