<svg xmlns="http://www.w3.org/2000/svg" version="1.2" baseProfile="tiny" stroke-linecap="round" stroke-linejoin="round" viewBox="382.15 227.45 22.48 40.8"><g xmlns="http://www.w3.org/2000/svg" id="Etxarri Aranatz">
<path d="M 400.53 227.51 400.55 227.58 400.56 227.63 400.57 227.69 400.58 227.74 400.59 227.8 400.58 227.84 400.56 227.89 400.53 227.97 400.49 228.06 400.4 228.25 400.35 228.36 400.3 228.47 400.3 228.53 400.29 228.58 400.29 228.63 400.29 228.7 400.28 228.76 400.28 228.8 400.23 228.81 400.19 228.81 400.18 228.82 400.16 228.82 400.14 228.82 400.12 228.82 400.1 228.83 400.08 228.83 400.06 228.83 400.03 228.84 400.01 228.84 400 228.84 399.96 228.84 399.93 228.85 399.91 228.85 399.88 228.86 399.81 228.86 399.78 228.87 399.74 228.87 399.71 228.87 399.65 228.88 399.63 228.88 399.61 228.89 399.6 228.89 399.58 228.89 399.56 228.89 399.55 228.9 399.53 228.9 399.51 228.9 399.5 228.9 399.46 228.95 399.45 228.97 399.45 228.99 399.44 229 399.43 229.01 399.43 229.02 399.42 229.04 399.4 229.07 399.39 229.08 399.38 229.1 399.37 229.13 399.36 229.14 399.35 229.16 399.34 229.17 399.33 229.19 399.32 229.2 399.32 229.22 399.31 229.23 399.3 229.25 399.29 229.27 399.29 229.28 399.28 229.3 399.26 229.32 399.25 229.33 399.25 229.35 399.22 229.38 399.2 229.39 399.19 229.41 399.16 229.43 399.15 229.44 399.12 229.47 399.09 229.51 399.08 229.52 399.03 229.57 399.01 229.58 399 229.59 398.99 229.61 398.96 229.63 398.94 229.66 398.92 229.68 398.89 229.71 398.87 229.73 398.84 229.76 398.81 229.79 398.8 229.81 398.78 229.83 398.77 229.85 398.76 229.86 398.75 229.87 398.73 229.88 398.72 229.88 398.71 229.89 398.7 229.9 398.68 229.91 398.66 229.91 398.64 229.92 398.63 229.92 398.6 229.92 398.59 229.93 398.57 229.93 398.56 229.93 398.54 229.94 398.53 229.94 398.51 229.94 398.5 229.95 398.48 229.96 398.47 229.96 398.45 229.97 398.44 229.98 398.42 229.99 398.41 230 398.4 230.01 398.39 230.02 398.37 230.03 398.36 230.04 398.34 230.05 398.33 230.06 398.31 230.07 398.3 230.08 398.29 230.09 398.28 230.09 398.26 230.1 398.25 230.11 398.23 230.12 398.22 230.13 398.18 230.15 398.16 230.16 398.14 230.17 398.13 230.17 398.11 230.18 398.1 230.19 398.08 230.2 398.06 230.2 398.04 230.21 398.02 230.22 398 230.23 397.98 230.24 397.97 230.25 397.95 230.25 397.93 230.26 397.92 230.27 397.9 230.28 397.88 230.28 397.86 230.28 397.85 230.29 397.83 230.29 397.82 230.3 397.8 230.31 397.78 230.32 397.78 230.33 397.76 230.34 397.75 230.35 397.74 230.36 397.73 230.37 397.71 230.37 397.69 230.39 397.68 230.39 397.66 230.4 397.62 230.42 397.59 230.44 397.54 230.45 397.48 230.46 397.42 230.48 397.36 230.5 397.3 230.53 397.23 230.57 397.15 230.61 397.07 230.66 397 230.71 396.91 230.76 396.83 230.81 396.72 230.88 396.59 230.98 396.47 231.07 396.34 231.17 396.22 231.28 396.12 231.26 396.02 231.24 395.9 231.21 395.78 231.2 395.65 231.18 395.5 231.16 395.34 231.13 395.25 231.11 395.19 231.11 395.15 231.11 395.11 231.11 395.04 231.13 394.97 231.15 394.89 231.19 394.82 231.22 394.74 231.26 394.67 231.29 394.61 231.31 394.56 231.33 394.49 231.34 394.42 231.35 394.35 231.35 394.28 231.35 394.2 231.34 394.12 231.33 394.06 231.32 394 231.33 393.95 231.33 393.9 231.34 393.85 231.35 393.81 231.37 393.76 231.39 393.7 231.43 393.63 231.48 393.57 231.53 393.52 231.57 393.45 231.63 393.36 231.71 393.28 231.77 393.18 231.83 393.14 231.85 393.09 231.87 393.02 231.91 392.97 231.93 392.91 231.94 392.85 231.96 392.79 231.96 392.67 231.97 392.56 231.96 392.47 231.94 392.43 231.93 392.41 231.94 392.4 231.95 392.39 231.98 392.39 232 392.4 232.01 392.43 232.06 392.5 232.14 392.58 232.24 392.64 232.31 392.72 232.39 392.78 232.45 392.83 232.52 392.87 232.57 392.9 232.6 392.91 232.62 392.92 232.63 392.93 232.65 392.96 232.71 393.02 232.79 393.07 232.87 393.1 232.93 393.11 232.97 393.11 232.98 393.12 233.01 393.12 233.02 393.13 233.05 393.13 233.07 393.12 233.08 393.11 233.09 393.09 233.11 393.06 233.12 393 233.14 392.95 233.15 392.9 233.17 392.86 233.18 392.8 233.2 392.75 233.2 392.69 233.21 392.61 233.2 392.55 233.2 392.48 233.2 392.41 233.2 392.32 233.2 392.27 233.2 392.2 233.2 392.16 233.2 392.13 233.2 392.09 233.21 392.04 233.22 391.98 233.24 391.92 233.25 391.88 233.25 391.85 233.25 391.82 233.25 391.74 233.26 391.65 233.28 391.56 233.3 391.44 233.33 391.37 233.35 391.27 233.39 391.2 233.43 391.13 233.46 391.06 233.5 391.01 233.53 390.96 233.57 390.91 233.61 390.86 233.65 390.83 233.68 390.81 233.7 390.8 233.72 390.79 233.74 390.78 233.76 390.76 233.78 390.72 233.81 390.69 233.85 390.68 233.86 390.66 233.89 390.64 233.91 390.62 233.95 390.6 233.97 390.55 234.02 390.5 234.08 390.47 234.12 390.43 234.17 390.41 234.18 390.4 234.19 390.36 234.23 390.32 234.26 390.29 234.29 390.26 234.32 390.24 234.34 390.22 234.38 390.22 234.41 390.22 234.44 390.22 234.46 390.22 234.5 390.22 234.52 390.22 234.55 390.23 234.57 390.25 234.59 390.28 234.64 390.32 234.69 390.34 234.74 390.38 234.78 390.41 234.83 390.45 234.87 390.46 234.88 390.48 234.89 390.5 234.89 390.51 234.89 390.53 234.88 390.58 234.85 390.61 234.81 390.63 234.8 390.64 234.79 390.65 234.78 390.67 234.78 390.68 234.78 390.69 234.78 390.69 234.79 390.7 234.81 390.7 234.86 390.7 234.89 390.7 234.9 390.71 234.92 390.72 234.92 390.73 234.93 390.75 234.93 390.77 234.92 390.79 234.91 390.8 234.9 390.82 234.89 390.83 234.88 390.85 234.87 390.86 234.87 390.88 234.86 390.89 234.86 390.91 234.86 390.93 234.86 390.94 234.86 390.94 234.87 390.95 234.89 390.95 234.91 390.94 234.93 390.89 235.01 390.84 235.09 390.83 235.14 390.82 235.19 390.82 235.25 390.83 235.34 390.85 235.41 390.88 235.44 390.92 235.46 391.02 235.49 391.05 235.51 391.09 235.54 391.15 235.6 391.19 235.62 391.22 235.63 391.26 235.64 391.29 235.65 391.33 235.67 391.35 235.69 391.37 235.72 391.4 235.8 391.42 235.87 391.46 236 391.49 236.13 391.5 236.19 391.52 236.23 391.56 236.33 391.58 236.37 391.63 236.42 391.7 236.5 391.84 236.67 391.85 236.69 391.86 236.72 391.93 236.85 391.98 236.98 392 237 392.04 237.05 392.08 237.1 392.1 237.15 392.11 237.18 392.12 237.22 392.12 237.27 392.13 237.38 392.13 237.45 392.14 237.5 392.16 237.55 392.18 237.58 392.21 237.61 392.22 237.64 392.23 237.68 392.25 237.74 392.26 237.78 392.27 237.8 392.28 237.82 392.31 237.84 392.35 237.87 392.4 237.91 392.43 237.97 392.47 238.01 392.5 238.04 392.53 238.07 392.57 238.15 392.61 238.19 392.65 238.23 392.71 238.27 392.74 238.3 392.77 238.33 392.78 238.37 392.8 238.4 392.82 238.42 392.85 238.44 392.9 238.48 392.95 238.52 392.99 238.56 393.04 238.64 393.08 238.71 393.11 238.78 393.15 238.88 393.17 238.96 393.18 239.03 393.19 239.09 393.19 239.16 393.18 239.21 393.17 239.24 393.16 239.26 393.16 239.29 393.16 239.43 393.16 239.45 393.16 239.47 393.16 239.52 393.16 239.55 393.16 239.57 393.16 239.59 393.16 239.61 393.15 239.62 393.15 239.64 393.15 239.66 393.15 239.67 393.15 239.69 393.14 239.7 393.14 239.72 393.13 239.74 393.13 239.75 393.13 239.77 393.12 239.79 393.12 239.81 393.11 239.81 393.11 239.85 393.1 239.86 393.1 239.87 393.09 239.89 393.09 239.9 393.08 239.92 393.07 239.95 393.06 239.97 393.05 239.98 393.05 239.99 393.04 240.01 393.01 240.04 393 240.05 392.99 240.08 392.98 240.1 392.98 240.13 392.99 240.16 393.01 240.21 393.08 240.39 393.16 240.52 393.2 240.62 393.23 240.7 393.23 240.71 393.24 240.72 393.24 240.72 393.26 240.73 393.27 240.74 393.29 240.76 393.3 240.77 393.31 240.78 393.32 240.8 393.33 240.81 393.33 240.83 393.33 240.84 393.34 240.88 393.35 240.91 393.35 240.92 393.37 240.95 393.37 240.97 393.38 240.99 393.38 241 393.39 241.02 393.39 241.04 393.4 241.05 393.4 241.07 393.41 241.1 393.41 241.12 393.42 241.14 393.42 241.15 393.42 241.17 393.43 241.19 393.43 241.2 393.43 241.22 393.43 241.23 393.44 241.25 393.44 241.27 393.44 241.28 393.44 241.29 393.44 241.31 393.44 241.35 393.44 241.36 393.44 241.38 393.44 241.4 393.44 241.41 393.44 241.43 393.44 241.44 393.44 241.46 393.44 241.47 393.44 241.49 393.44 241.51 393.44 241.52 393.44 241.54 393.44 241.56 393.44 241.57 393.45 241.59 393.45 241.61 393.48 241.7 393.53 241.8 393.58 241.88 393.62 241.93 393.68 241.97 393.76 242.02 393.88 242.06 394.17 242.14 394.26 242.16 394.32 242.18 394.36 242.2 394.53 242.32 394.65 242.38 394.78 242.44 394.84 242.45 394.84 242.46 394.86 243.3 394.92 245.48 394.87 245.61 394.81 245.75 394.78 245.84 394.75 245.92 394.69 246.02 394.66 246.11 394.61 246.24 394.57 246.35 394.54 246.42 394.49 246.51 394.43 246.62 394.36 246.75 394.28 246.91 394.22 247.04 394.17 247.19 394.12 247.3 394.09 247.39 394.07 247.47 394.05 247.54 394.04 247.61 394.04 247.67 394.03 247.76 394.04 247.82 394.04 247.87 394.05 247.92 394.06 247.96 394.08 248 394.1 248.07 394.12 248.13 394.15 248.23 394.18 248.31 394.21 248.41 394.23 248.46 394.23 248.5 394.24 248.57 394.25 248.66 394.26 248.76 394.26 248.83 394.27 248.9 394.26 248.98 394.25 249.08 394.24 249.16 394.22 249.27 394.22 249.37 394.21 249.61 394.2 249.71 394.2 249.87 394.2 249.89 394.2 249.9 394.25 249.95 394.36 250.06 394.49 250.17 394.54 250.22 394.59 250.29 394.74 250.51 394.93 250.78 395.16 251.12 395.49 251.58 395.49 251.58 395.52 251.62 395.55 251.68 395.57 251.72 395.64 251.82 395.71 251.93 395.74 251.97 395.74 251.99 395.74 252.01 395.75 252.02 395.76 252.04 395.81 252.03 395.83 252.03 395.85 252.03 395.86 252.02 395.88 252.02 395.99 252 395.99 251.99 396 251.97 396.01 251.93 396.01 251.91 396.02 251.9 396.02 251.89 396.03 251.87 396.03 251.86 396.04 251.86 396.04 251.84 396.07 251.79 396.07 251.78 396.08 251.77 396.08 251.76 396.09 251.74 396.1 251.73 396.11 251.71 396.12 251.7 396.12 251.69 396.13 251.67 396.15 251.64 396.17 251.62 396.18 251.6 396.19 251.57 396.2 251.56 396.21 251.54 396.23 251.53 396.24 251.51 396.25 251.5 396.26 251.48 396.27 251.47 396.28 251.46 396.31 251.41 396.33 251.4 396.34 251.39 396.35 251.37 396.36 251.36 396.38 251.35 396.39 251.34 396.41 251.33 396.42 251.32 396.44 251.31 396.5 251.27 396.52 251.26 396.53 251.24 396.54 251.23 396.56 251.22 396.57 251.22 396.59 251.21 396.6 251.2 396.62 251.19 396.65 251.17 396.71 251.13 396.71 251.12 396.74 251.12 396.79 251.12 396.85 251.11 396.87 251.11 396.96 251.08 396.98 251.07 397.01 251.06 397.05 251.04 397.14 251 397.12 250.97 397.05 250.88 397.04 250.85 397.03 250.84 397.02 250.83 397 250.81 396.99 250.8 396.97 250.8 396.96 250.79 396.94 250.78 396.93 250.77 396.91 250.77 396.9 250.76 396.88 250.75 396.87 250.74 396.86 250.72 396.85 250.71 396.84 250.7 396.83 250.69 396.82 250.68 396.8 250.66 396.79 250.65 396.77 250.63 396.76 250.62 396.74 250.59 396.73 250.58 396.69 250.55 396.68 250.53 396.67 250.52 396.65 250.51 396.64 250.5 396.63 250.48 396.63 250.47 396.62 250.46 396.61 250.44 396.6 250.43 396.57 250.39 396.57 250.39 396.56 250.37 396.55 250.36 396.54 250.35 396.53 250.33 396.53 250.32 396.52 250.31 396.52 250.29 396.53 250.27 396.55 250.26 396.56 250.25 396.57 250.24 396.59 250.23 396.6 250.22 396.62 250.21 396.63 250.2 396.65 250.19 396.66 250.17 396.66 250.16 396.67 250.15 396.67 250.13 396.67 250.11 396.68 250.1 396.68 250.08 396.68 250.06 396.69 250.04 396.69 250.03 396.7 250.02 396.71 250 396.72 249.99 396.74 249.98 396.76 249.96 396.76 249.94 396.75 249.85 396.75 249.77 396.73 249.78 396.73 249.68 396.73 249.63 396.73 249.55 396.73 249.51 396.74 249.51 396.76 249.5 396.76 249.49 396.78 249.3 396.79 249.28 396.81 249.27 396.94 249.19 397.1 249.1 397.14 249.07 397.19 249.04 397.21 249.03 397.29 248.97 397.32 248.94 397.33 248.93 397.34 248.92 397.36 248.93 397.53 248.97 397.67 248.99 397.81 249.02 397.87 249.04 397.93 249.04 397.99 249.02 398.03 248.99 398.08 248.97 398.22 248.91 398.3 248.88 398.35 248.86 398.43 248.82 398.52 248.78 398.61 248.74 398.79 248.63 398.87 248.58 398.89 248.57 398.9 248.56 398.92 248.55 398.93 248.54 398.95 248.54 398.96 248.54 398.98 248.54 398.99 248.54 399.01 248.54 399.03 248.55 399.05 248.56 399.07 248.56 399.08 248.57 399.09 248.57 399.1 248.57 399.12 248.58 399.14 248.58 399.15 248.58 399.16 248.58 399.18 248.59 399.19 248.59 399.21 248.59 399.23 248.59 399.24 248.59 399.28 248.59 399.31 248.6 399.34 248.6 399.37 248.6 399.41 248.6 399.43 248.6 399.44 248.6 399.46 248.61 399.48 248.61 399.5 248.61 399.52 248.61 399.54 248.61 399.55 248.61 399.57 248.61 399.59 248.61 399.6 248.61 399.62 248.61 399.64 248.61 399.65 248.61 399.66 248.62 399.64 248.69 399.64 248.73 399.64 248.75 399.65 248.75 399.76 248.66 399.79 248.64 399.82 248.62 399.84 248.61 399.86 248.6 399.89 248.58 399.93 248.57 400.07 248.52 400.15 248.49 400.21 248.47 400.22 248.47 400.23 248.46 400.25 248.45 400.26 248.45 400.28 248.45 400.29 248.44 400.31 248.44 400.33 248.43 400.34 248.43 400.38 248.42 400.41 248.41 400.44 248.4 400.51 248.39 400.53 248.39 400.49 248.17 400.45 248.02 400.41 247.91 400.36 247.81 400.34 247.75 400.34 247.71 400.34 247.61 400.33 247.53 400.31 247.48 400.22 247.29 400.19 247.17 400.16 247.09 400.14 247.03 400.09 246.94 400.07 246.89 399.97 246.55 399.97 246.52 399.96 246.51 399.96 246.5 399.95 246.47 399.94 246.43 399.94 246.42 399.93 246.38 399.93 246.37 399.92 246.35 399.92 246.34 399.91 246.32 399.91 246.29 399.9 246.28 399.9 246.27 399.9 246.25 399.89 246.23 399.88 246.2 399.88 246.18 399.88 246.16 399.87 246.14 399.87 246.13 399.87 246.11 399.86 246.08 399.86 246.05 399.85 246.03 399.85 246.01 399.84 245.98 399.83 245.93 399.83 245.91 399.82 245.88 399.81 245.83 399.8 245.82 399.8 245.8 399.79 245.78 399.79 245.76 399.78 245.74 399.78 245.71 399.77 245.69 399.77 245.67 399.76 245.65 399.76 245.64 399.76 245.64 399.75 245.6 399.75 245.59 399.75 245.57 399.74 245.55 399.74 245.53 399.73 245.5 399.73 245.48 399.78 245.45 399.79 245.43 399.79 245.41 399.8 245.39 399.81 245.37 399.81 245.33 399.82 245.3 399.83 245.27 399.83 245.25 399.84 245.23 399.84 245.21 399.85 245.18 399.86 245.16 399.86 245.15 399.86 245.14 399.86 245.12 399.85 245.1 399.85 245.07 399.84 245.05 399.83 245.01 399.82 245 399.82 244.97 399.81 244.95 399.81 244.92 399.8 244.9 399.8 244.88 399.79 244.87 399.79 244.85 399.78 244.83 399.78 244.82 399.78 244.8 399.77 244.78 399.77 244.75 399.76 244.73 399.76 244.72 399.76 244.71 399.76 244.7 399.76 244.68 399.76 244.66 399.76 244.64 399.76 244.62 399.75 244.59 399.75 244.57 399.74 244.55 399.74 244.52 399.74 244.5 399.73 244.47 399.73 244.45 399.73 244.42 399.72 244.39 399.72 244.36 399.72 244.34 399.73 244.32 399.74 244.3 399.75 244.27 399.76 244.26 399.77 244.24 399.78 244.23 399.8 244.21 399.81 244.19 399.84 244.17 399.87 244.16 399.9 244.14 399.91 244.14 399.94 244.13 399.96 244.13 400.13 244.15 400.3 244.17 400.46 244.2 400.6 244.2 400.79 244.22 400.94 244.23 401.06 244.24 401.18 244.25 401.21 244.25 401.22 244.25 401.24 244.25 401.26 244.25 401.27 244.25 401.31 244.25 401.32 244.25 401.34 244.25 401.36 244.25 401.37 244.25 401.38 244.25 401.4 244.25 401.42 244.25 401.44 244.25 401.46 244.25 401.48 244.26 401.5 244.26 401.53 244.26 401.55 244.26 401.57 244.26 401.59 244.26 401.61 244.26 401.64 244.27 401.66 244.27 401.67 244.27 401.69 244.27 401.71 244.27 401.73 244.27 401.74 244.27 401.75 244.27 401.77 244.27 401.81 244.27 401.82 244.27 401.85 244.27 401.87 244.27 401.88 244.27 401.9 244.27 401.92 244.27 401.94 244.27 401.96 244.27 401.98 244.28 401.99 244.28 402.01 244.28 402.02 244.28 402.04 244.28 402.06 244.28 402.08 244.29 402.09 244.29 402.11 244.29 402.13 244.29 402.15 244.29 402.16 244.29 402.18 244.29 402.2 244.29 402.22 244.29 402.24 244.29 402.25 244.29 402.29 244.29 402.29 244.3 402.29 244.32 402.29 244.33 402.29 244.35 402.29 244.38 402.3 244.39 402.3 244.41 402.3 244.43 402.3 244.47 402.3 244.5 402.3 244.52 402.3 244.55 402.3 244.56 402.31 244.58 402.31 244.59 402.31 244.6 402.31 244.64 402.31 244.66 402.31 244.68 402.31 244.7 402.31 244.71 402.32 244.73 402.32 244.75 402.31 244.77 402.31 244.79 402.31 244.8 402.31 244.82 402.31 244.83 402.31 244.85 402.31 244.87 402.31 244.89 402.31 244.9 402.31 244.92 402.31 244.94 402.31 244.96 402.31 244.97 402.31 244.99 402.31 245.01 402.31 245.03 402.31 245.04 402.32 245.06 402.32 245.07 402.32 245.1 402.32 245.12 402.32 245.14 402.33 245.15 402.33 245.17 402.33 245.18 402.33 245.2 402.33 245.22 402.33 245.24 402.33 245.26 402.32 245.29 402.32 245.3 402.32 245.31 402.32 245.33 402.32 245.34 402.32 245.36 402.32 245.38 402.32 245.39 402.32 245.41 402.32 245.42 402.31 245.44 402.31 245.46 402.31 245.48 402.31 245.52 402.31 245.52 402.32 245.54 402.33 245.56 402.33 245.57 402.34 245.59 402.35 245.6 402.36 245.62 402.36 245.64 402.38 245.67 402.39 245.69 402.39 245.71 402.4 245.72 402.41 245.73 402.41 245.75 402.42 245.76 402.43 245.78 402.43 245.8 402.44 245.81 402.45 245.83 402.45 245.84 402.46 245.86 402.47 245.87 402.47 245.9 402.48 245.91 402.48 245.93 402.48 245.94 402.49 245.96 402.49 245.97 402.49 245.99 402.49 246.01 402.5 246.03 402.51 246.04 402.52 246.05 402.53 246.07 402.53 246.08 402.56 246.13 402.57 246.15 402.58 246.17 402.59 246.18 402.6 246.2 402.61 246.22 402.62 246.24 402.63 246.25 402.64 246.26 402.65 246.28 402.66 246.29 402.66 246.31 402.67 246.33 402.67 246.35 402.67 246.37 402.67 246.39 402.67 246.4 402.67 246.41 402.67 246.43 402.67 246.45 402.67 246.46 402.67 246.48 402.67 246.5 402.68 246.52 402.68 246.53 402.68 246.55 402.68 246.57 402.69 246.59 402.69 246.6 402.69 246.61 402.7 246.63 402.7 246.64 402.71 246.66 402.72 246.68 402.72 246.69 402.73 246.71 402.74 246.72 402.74 246.73 402.75 246.75 402.76 246.76 402.78 246.77 402.79 246.79 402.79 246.8 402.8 246.82 402.8 246.82 402.81 246.84 402.82 246.85 402.82 246.87 402.83 246.88 402.84 246.9 402.85 246.93 402.87 246.96 402.89 246.99 402.89 247.01 402.91 247.03 402.92 247.06 402.95 247.11 402.96 247.14 402.98 247.17 402.99 247.19 403 247.21 403.01 247.22 403.02 247.24 403.03 247.25 403.04 247.27 403.05 247.3 403.07 247.33 403.08 247.34 403.09 247.36 403.1 247.37 403.11 247.39 403.12 247.4 403.13 247.42 403.14 247.43 403.15 247.45 403.15 247.45 403.16 247.47 403.17 247.48 403.18 247.5 403.19 247.51 403.2 247.53 403.21 247.55 403.22 247.56 403.23 247.58 403.23 247.59 403.24 247.61 403.25 247.63 403.26 247.64 403.27 247.66 403.28 247.67 403.29 247.69 403.29 247.7 403.3 247.71 403.3 247.72 403.31 247.71 403.33 247.7 403.34 247.69 403.36 247.68 403.38 247.68 403.39 247.68 403.4 247.67 403.41 247.67 403.43 247.66 403.44 247.66 403.46 247.66 403.47 247.66 403.49 247.66 403.5 247.67 403.51 247.67 403.53 247.67 403.57 247.67 403.6 247.67 403.62 247.67 403.64 247.67 403.66 247.67 403.68 247.66 403.7 247.66 403.71 247.66 403.73 247.66 403.75 247.66 403.76 247.66 403.77 247.66 403.79 247.65 403.81 247.65 403.83 247.65 403.85 247.64 403.86 247.64 403.88 247.64 403.9 247.63 403.92 247.63 403.93 247.62 403.95 247.61 403.97 247.61 403.98 247.6 404 247.59 404.02 247.58 404.04 247.58 404.05 247.57 404.07 247.56 404.08 247.55 404.1 247.54 404.12 247.52 404.13 247.52 404.14 247.51 404.16 247.5 404.17 247.49 404.19 247.48 404.2 247.48 404.21 247.47 404.23 247.46 404.25 247.46 404.26 247.46 404.28 247.45 404.3 247.45 404.32 247.45 404.34 247.45 404.35 247.45 404.37 247.45 404.39 247.45 404.4 247.46 404.42 247.46 404.45 247.47 404.46 247.48 404.48 247.49 404.5 247.51 404.5 247.51 404.51 247.52 404.53 247.54 404.54 247.56 404.57 247.59 404.6 247.66 404.53 247.68 404.44 247.71 404.4 247.74 404.35 247.77 404.27 247.84 404.19 247.89 404.1 247.93 403.99 247.95 403.85 247.97 403.65 247.98 403.45 248.03 403.23 248.09 403.09 248.17 402.95 248.28 402.84 248.42 402.76 248.56 402.7 248.74 402.7 248.79 402.7 248.85 402.7 248.92 402.72 248.98 402.74 249.03 402.74 249.08 402.74 249.1 402.74 249.16 402.73 249.22 402.72 249.26 402.71 249.29 402.67 249.33 402.64 249.36 402.57 249.42 402.5 249.5 402.42 249.59 402.37 249.64 402.33 249.69 402.28 249.75 402.26 249.79 402.24 249.83 402.23 249.87 402.23 249.93 402.24 249.96 402.25 250 402.26 250.04 402.27 250.07 402.27 250.11 402.26 250.15 402.25 250.2 402.24 250.24 402.22 250.29 402.2 250.34 402.2 250.37 402.19 250.4 402.2 250.44 402.21 250.47 402.22 250.5 402.25 250.51 402.27 250.52 402.31 250.52 402.36 250.51 402.41 250.51 402.47 250.52 402.52 250.55 402.55 250.57 402.61 250.63 402.64 250.65 402.68 250.67 402.77 250.7 402.79 250.71 402.8 250.73 402.81 250.76 402.82 250.8 402.82 250.88 402.81 250.93 402.79 250.96 402.77 250.98 402.76 251 402.73 251.03 402.72 251.04 402.7 251.06 402.69 251.07 402.68 251.08 402.66 251.09 402.65 251.1 402.64 251.1 402.62 251.11 402.61 251.12 402.59 251.13 402.57 251.15 402.53 251.17 402.51 251.17 402.5 251.18 402.49 251.18 402.47 251.18 402.45 251.19 402.43 251.19 402.39 251.19 402.38 251.19 402.36 251.19 402.33 251.2 402.29 251.2 402.27 251.2 402.26 251.21 402.24 251.21 402.23 251.21 402.19 251.22 402.17 251.22 402.15 251.22 402.12 251.23 402.05 251.24 402.02 251.24 402 251.24 401.98 251.25 401.96 251.25 401.94 251.25 401.93 251.26 401.91 251.26 401.89 251.27 401.88 251.27 401.87 251.28 401.84 251.31 401.83 251.32 401.82 251.34 401.81 251.35 401.81 251.36 401.8 251.38 401.79 251.4 401.78 251.42 401.77 251.43 401.76 251.45 401.75 251.47 401.74 251.49 401.71 251.54 401.68 251.58 401.68 251.59 401.67 251.61 401.66 251.62 401.65 251.64 401.64 251.65 401.64 251.66 401.63 251.68 401.62 251.7 401.62 251.72 401.61 251.73 401.61 251.75 401.6 251.77 401.6 251.77 401.59 251.79 401.58 251.82 401.57 251.85 401.57 251.85 401.57 251.87 401.57 251.88 401.57 251.9 401.56 251.93 401.56 251.95 401.56 251.95 401.56 251.97 401.56 251.99 401.56 252.05 401.57 252.07 401.6 252.12 401.65 252.18 401.67 252.19 401.69 252.2 401.7 252.2 401.72 252.2 401.73 252.21 401.74 252.22 401.76 252.26 401.81 252.41 401.83 252.49 401.87 252.56 401.88 252.57 401.89 252.57 401.91 252.57 401.93 252.56 401.95 252.56 401.96 252.56 401.98 252.56 401.99 252.55 402.01 252.55 402.02 252.55 402.03 252.57 402.03 252.59 402.03 252.6 402.04 252.61 402.05 252.62 402.06 252.64 402.08 252.65 402.09 252.66 402.1 252.68 402.11 252.69 402.1 252.69 402.08 252.7 402.06 252.71 402.04 252.71 402.02 252.71 402 252.71 401.98 252.71 401.96 252.71 401.95 252.72 401.94 252.72 401.96 252.79 401.96 252.82 401.97 252.85 401.76 252.94 401.58 253.01 401.59 253.04 401.59 253.06 401.6 253.08 401.6 253.09 401.61 253.1 401.62 253.12 401.63 253.13 401.63 253.15 401.64 253.17 401.65 253.2 401.65 253.22 401.66 253.24 401.68 253.27 401.68 253.28 401.69 253.3 401.69 253.31 401.71 253.36 401.72 253.39 401.73 253.42 401.74 253.45 401.75 253.48 401.77 253.53 401.77 253.54 401.79 253.58 401.8 253.61 401.8 253.63 401.81 253.65 401.82 253.67 401.82 253.68 401.83 253.72 401.85 253.76 401.87 253.8 401.88 253.85 401.9 253.9 401.92 253.94 401.95 254.03 401.97 254.08 402 254.16 402.01 254.2 402.03 254.25 402.05 254.31 402.07 254.36 402.09 254.41 402.12 254.49 402.14 254.55 402.14 254.57 402.19 254.69 402.22 254.79 402.24 254.84 402.26 254.89 402.3 255.01 402.31 255.02 402.32 255.05 402.32 255.06 402.32 255.07 402.34 255.11 402.34 255.13 402.37 255.19 402.37 255.21 402.41 255.31 402.43 255.36 402.46 255.46 402.48 255.51 402.49 255.52 402.49 255.54 402.5 255.56 402.5 255.57 402.51 255.59 402.52 255.61 402.53 255.64 402.54 255.68 402.55 255.73 402.57 255.79 402.6 255.87 402.62 255.92 402.62 255.94 402.63 255.95 402.65 256.01 402.67 256.06 402.69 256.12 402.7 256.16 402.71 256.17 402.71 256.19 402.72 256.2 402.72 256.22 402.72 256.23 402.73 256.25 402.73 256.27 402.74 256.29 402.74 256.31 402.74 256.32 402.74 256.33 402.74 256.35 402.74 256.36 402.75 256.38 402.75 256.4 402.75 256.41 402.75 256.43 402.76 256.44 402.76 256.45 402.76 256.49 402.77 256.51 402.77 256.52 402.77 256.54 402.78 256.56 402.78 256.57 402.78 256.58 402.79 256.6 402.79 256.63 402.79 256.65 402.79 256.67 402.79 256.69 402.8 256.7 402.8 256.72 402.81 256.73 402.82 256.75 402.83 256.76 402.84 256.78 402.85 256.8 402.86 256.81 402.87 256.82 402.88 256.84 402.89 256.85 402.9 256.86 402.91 256.88 402.91 256.89 402.91 256.91 402.91 256.93 402.91 256.95 402.9 256.96 402.89 256.97 402.88 256.99 402.87 257.01 402.87 257.02 402.87 257.03 402.87 257.05 402.87 257.07 402.88 257.09 402.88 257.1 402.88 257.12 402.88 257.14 402.88 257.16 402.87 257.17 402.87 257.18 402.87 257.2 402.87 257.22 402.87 257.23 402.87 257.25 402.87 257.26 402.87 257.28 402.87 257.3 402.87 257.31 402.87 257.32 402.87 257.34 402.88 257.35 402.88 257.37 402.88 257.38 402.89 257.39 402.89 257.41 402.9 257.43 402.91 257.45 402.92 257.46 402.93 257.47 402.94 257.49 402.95 257.5 402.95 257.51 402.96 257.53 402.97 257.54 402.98 257.56 402.99 257.58 403 257.59 403.02 257.62 403.02 257.62 403.03 257.64 403.04 257.65 403.04 257.66 403.05 257.68 403.06 257.69 403.07 257.71 403.08 257.72 403.08 257.74 403.09 257.75 403.09 257.77 403.1 257.78 403.1 257.8 403.1 257.82 403.1 257.83 403.11 257.85 403.11 257.87 403.11 257.89 403.12 257.9 403.12 257.92 403.13 257.94 403.13 257.96 403.13 257.97 403.14 257.99 403.15 258 403.15 258.02 403.16 258.04 403.16 258.05 403.17 258.07 403.17 258.08 403.18 258.1 403.19 258.12 403.19 258.13 403.2 258.14 403.2 258.16 403.21 258.17 403.22 258.19 403.23 258.21 403.23 258.22 403.24 258.23 403.25 258.25 403.25 258.27 403.26 258.28 403.26 258.29 403.26 258.31 403.26 258.34 403.26 258.35 403.26 258.37 403.25 258.39 403.25 258.4 403.25 258.42 403.25 258.44 403.25 258.45 403.25 258.48 403.25 258.49 403.26 258.52 403.27 258.52 403.28 258.52 403.27 258.57 403.27 258.59 403.25 258.63 403.23 258.64 403.2 258.65 403.18 258.65 403.17 258.66 403.16 258.68 403.15 258.7 403.15 258.73 403.19 258.79 403.33 258.94 403.37 258.98 403.41 259 403.46 259.02 403.54 259.03 403.76 259.09 403.82 259.11 403.86 259.14 403.89 259.18 403.91 259.23 403.93 259.38 403.92 259.41 403.92 259.43 403.91 259.45 403.85 259.48 403.81 259.52 403.75 259.55 403.71 259.59 403.67 259.63 403.63 259.66 403.58 259.69 403.56 259.7 403.46 259.77 403.38 259.84 403.35 259.86 403.29 259.9 403.2 259.96 403.14 260 403.1 260.04 403.09 260.05 403.01 260.1 402.97 260.13 402.95 260.15 402.86 260.21 402.79 260.26 402.73 260.29 402.72 260.3 402.63 260.36 402.54 260.41 402.48 260.45 402.4 260.51 402.35 260.54 402.34 260.55 402.32 260.57 402.28 260.62 402.21 260.7 402.13 260.79 402.05 260.89 401.96 260.99 401.95 261 401.83 261.15 401.82 261.16 401.8 261.11 401.78 261.05 401.75 261 401.72 260.95 401.7 260.93 401.68 260.92 401.66 260.92 401.65 260.92 401.63 260.93 401.61 260.96 401.6 260.98 401.59 261.01 401.61 261.09 401.6 261.11 401.6 261.13 401.61 261.15 401.62 261.16 401.67 261.19 401.68 261.19 401.69 261.2 401.68 261.23 401.68 261.25 401.68 261.27 401.68 261.29 401.69 261.31 401.7 261.33 401.71 261.35 401.71 261.37 401.72 261.39 401.73 261.4 401.75 261.41 401.76 261.44 401.77 261.48 401.78 261.52 401.78 261.54 401.78 261.56 401.79 261.57 401.81 261.59 401.83 261.61 401.84 261.63 401.84 261.63 401.84 261.64 401.83 261.65 401.81 261.66 401.79 261.67 401.78 261.68 401.77 261.71 401.75 261.73 401.75 261.75 401.75 261.78 401.76 261.81 401.75 261.83 401.74 261.86 401.75 261.9 401.77 261.94 401.8 261.98 401.83 262.01 401.84 262.02 401.87 262.02 401.9 262.02 401.93 262.03 401.99 262.08 402.03 262.11 402.06 262.14 402.08 262.18 402.1 262.24 402.08 262.25 401.94 262.36 401.93 262.38 401.91 262.38 401.9 262.38 401.88 262.37 401.84 262.35 401.8 262.31 401.75 262.29 401.7 262.35 401.65 262.41 401.62 262.46 401.59 262.51 401.54 262.57 401.52 262.61 401.51 262.65 401.49 262.67 401.48 262.69 401.46 262.74 401.42 262.81 401.4 262.86 401.35 262.86 401.3 262.86 401.25 262.86 401.21 262.87 401.17 262.87 401.13 262.89 401.09 262.91 401.01 262.94 400.9 262.99 400.75 263.06 400.37 263.2 400.26 263.24 400.22 263.26 400.19 263.27 399.91 263.38 399.55 263.53 399.02 263.74 399 263.74 398.97 263.87 398.96 263.81 398.95 263.78 398.94 263.76 398.92 263.71 398.88 263.68 398.86 263.66 398.83 263.65 398.81 263.64 398.73 263.71 398.68 263.75 398.63 263.79 398.59 263.82 398.55 263.86 398.51 263.89 398.47 263.93 398.43 263.96 398.39 263.99 398.32 264.04 398.28 264.08 398.23 264.12 398.18 264.17 398.16 264.19 398.14 264.21 398.11 264.23 398.07 264.27 398 264.32 397.93 264.37 397.9 264.4 397.88 264.42 397.84 264.47 397.8 264.51 397.77 264.55 397.74 264.56 397.73 264.58 397.69 264.62 397.64 264.64 397.61 264.67 397.57 264.69 397.54 264.71 397.49 264.75 397.46 264.78 397.42 264.81 397.32 264.9 397.27 264.93 397.26 264.94 397.24 264.95 397.22 264.95 397.19 264.95 397.11 264.97 397.02 264.98 396.95 264.98 396.9 264.98 396.86 264.99 396.83 265 396.8 265 396.79 265 396.77 264.99 396.72 264.95 396.68 264.9 396.66 264.86 396.63 264.82 396.61 264.77 396.59 264.73 396.57 264.68 396.56 264.64 396.55 264.63 396.55 264.61 396.55 264.57 396.54 264.52 396.52 264.48 396.49 264.43 396.46 264.39 396.42 264.36 396.37 264.32 396.32 264.3 396.28 264.28 396.23 264.26 396.17 264.24 396.14 264.23 396.09 264.21 396.02 264.19 395.96 264.17 395.92 264.16 395.85 264.13 395.85 264.19 395.84 264.24 395.84 264.29 395.83 264.35 395.83 264.4 395.81 264.47 395.81 264.49 395.81 264.54 395.81 264.6 395.81 264.65 395.82 264.72 395.82 264.81 395.82 264.88 395.83 264.95 395.83 265.02 395.83 265.07 395.83 265.13 395.83 265.21 395.83 265.32 395.83 265.4 395.83 265.46 395.83 265.51 395.83 265.6 395.83 265.68 395.83 265.75 395.83 265.81 395.84 265.85 395.86 265.91 395.89 266.02 395.89 266.06 395.91 266.1 395.93 266.18 395.93 266.26 395.93 266.35 395.91 266.45 395.91 266.48 395.91 266.51 395.9 266.57 395.89 266.65 395.88 266.73 395.88 266.8 395.87 266.91 395.85 267 395.82 267.11 395.8 267.22 395.78 267.32 395.76 267.38 395.74 267.43 395.72 267.47 395.72 267.5 395.71 267.52 395.71 267.53 395.69 267.6 395.66 267.68 395.62 267.76 395.59 267.85 395.56 267.94 395.53 268 395.51 268.05 395.49 268.1 395.47 268.16 395.46 268.19 395.46 268.23 395.35 268.21 395.21 268.19 395.13 268.18 395.06 268.17 394.88 268.16 394.73 268.15 394.65 268.14 394.53 268.09 394.51 268.09 394.1 267.92 393.68 267.74 393.46 267.66 393.08 267.52 392.76 267.41 392.71 267.4 392.65 267.38 392.63 267.37 392.31 267.25 392.21 267.21 392.13 267.2 392.07 267.2 391.98 267.21 391.88 267.21 391.8 267.2 391.71 267.17 391.62 267.14 391.52 267.09 391.42 267.03 391.32 266.96 391.22 266.92 391.06 266.84 391.08 266.78 391.08 266.77 391.08 266.75 391.07 266.74 391.07 266.71 391.07 266.7 391.07 266.66 391.08 266.65 391.08 266.63 391.07 266.62 391.07 266.58 391.07 266.56 391.07 266.53 391.07 266.49 391.07 266.42 391.07 266.38 391.07 266.36 391.07 266.34 391.07 266.33 391.07 266.31 391.06 266.29 391.06 266.27 391.06 266.26 391.06 266.24 391.06 266.2 391.06 266.19 391.06 266.17 391.06 266.16 391.05 266.14 391.05 266.12 391.05 266.1 391.05 266.09 391.05 266.07 391.05 266.05 391.05 266.03 391.05 266.01 391.05 266 391.05 265.98 391.05 265.96 391.05 265.94 391.05 265.92 391.04 265.89 391.04 265.87 391.04 265.85 391.04 265.84 391.04 265.82 391.03 265.8 391.03 265.78 391.03 265.75 391.03 265.74 391.03 265.72 391.03 265.7 391.03 265.67 391.03 265.66 391.03 265.64 391.03 265.62 391.03 265.6 391.03 265.59 391.03 265.57 391.02 265.55 391.02 265.54 391.02 265.52 391.02 265.5 391.02 265.49 391.01 265.47 391.01 265.45 391.01 265.44 391.01 265.42 391.01 265.4 391.01 265.38 391.01 265.37 391.01 265.36 391.01 265.32 391.01 265.3 391.01 265.29 391.01 265.27 391.01 265.25 391.01 265.24 391.01 265.22 391.01 265.2 391 265.18 391 265.16 391 265.13 391 265.1 390.99 265.08 390.99 265.05 390.99 265.03 390.99 265.01 390.99 265 390.99 264.98 390.99 264.96 390.99 264.94 390.99 264.92 390.99 264.9 390.99 264.89 390.99 264.87 390.98 264.85 390.98 264.83 390.98 264.81 390.98 264.79 390.98 264.77 390.98 264.76 390.98 264.74 390.98 264.72 390.98 264.71 390.98 264.7 390.97 264.68 390.97 264.68 390.96 264.66 390.96 264.64 390.95 264.62 390.94 264.61 390.93 264.58 390.92 264.56 390.92 264.55 390.91 264.53 390.9 264.52 390.9 264.5 390.88 264.45 390.87 264.44 390.87 264.42 390.85 264.39 390.85 264.37 390.84 264.36 390.84 264.35 390.83 264.33 390.82 264.32 390.82 264.3 390.81 264.28 390.81 264.27 390.8 264.26 390.79 264.24 390.79 264.22 390.78 264.19 390.77 264.17 390.76 264.14 390.75 264.13 390.74 264.09 390.73 264.07 390.72 264.05 390.72 264.03 390.71 264.02 390.7 264 390.7 263.98 390.69 263.97 390.67 263.93 390.67 263.92 390.66 263.9 390.65 263.87 390.64 263.84 390.63 263.83 390.63 263.82 390.62 263.8 390.61 263.78 390.6 263.77 390.6 263.75 390.59 263.74 390.59 263.73 390.58 263.71 390.57 263.7 390.57 263.68 390.56 263.67 390.55 263.65 390.55 263.63 390.55 263.62 390.54 263.6 390.54 263.59 390.54 263.57 390.54 263.55 390.54 263.54 390.54 263.52 390.54 263.5 390.55 263.48 390.55 263.47 390.55 263.45 390.56 263.44 390.57 263.43 390.58 263.39 390.58 263.38 390.59 263.37 390.6 263.35 390.6 263.34 390.61 263.33 390.61 263.31 390.62 263.3 390.63 263.28 390.64 263.24 390.65 263.23 390.66 263.21 390.66 263.2 390.67 263.18 390.67 263.17 390.68 263.15 390.68 263.14 390.69 263.12 390.69 263.11 390.7 263.09 390.7 263.08 390.7 263.06 390.71 263.03 390.71 263.02 390.72 263 390.72 262.98 390.72 262.96 390.72 262.94 390.72 262.93 390.72 262.91 390.72 262.9 390.72 262.89 390.72 262.87 390.72 262.85 390.73 262.82 390.73 262.81 390.74 262.79 390.74 262.77 390.75 262.76 390.76 262.72 390.77 262.69 390.77 262.67 390.78 262.65 390.79 262.63 390.79 262.61 390.79 262.6 390.8 262.59 390.8 262.56 390.81 262.55 390.81 262.53 390.81 262.51 390.81 262.49 390.81 262.48 390.81 262.46 390.81 262.44 390.81 262.42 390.81 262.4 390.8 262.38 390.8 262.36 390.8 262.35 390.8 262.33 390.8 262.28 390.8 262.27 390.8 262.26 390.8 262.24 390.81 262.23 390.81 262.21 390.81 262.2 390.83 262.17 390.85 262.13 390.85 262.12 390.86 262.1 390.87 262.09 390.87 262.07 390.89 262.04 390.92 261.99 390.93 261.96 390.94 261.95 390.95 261.93 390.96 261.91 390.97 261.88 390.98 261.87 390.99 261.85 391 261.83 391 261.82 391.01 261.8 391.02 261.78 391.02 261.77 391.02 261.76 391.03 261.74 391.04 261.73 391.06 261.69 391.06 261.67 391.07 261.66 391.07 261.64 391.07 261.63 391.08 261.61 391.07 261.59 391.07 261.58 391.07 261.56 391.07 261.54 391.07 261.53 391.07 261.51 391.06 261.49 391.06 261.48 391.06 261.47 391.05 261.45 391.04 261.44 391.03 261.41 391.02 261.37 391.01 261.36 391 261.34 391 261.32 391 261.31 390.99 261.29 390.99 261.27 390.98 261.25 390.97 261.23 390.97 261.22 390.97 261.2 390.96 261.19 390.96 261.17 390.95 261.16 390.95 261.14 390.94 261.11 390.93 261.09 390.93 261.07 390.92 261.06 390.92 261.02 390.91 261 390.91 260.98 390.91 260.97 390.9 260.95 390.9 260.93 390.9 260.91 390.89 260.9 390.88 260.84 390.88 260.82 390.87 260.81 390.87 260.79 390.87 260.77 390.86 260.75 390.86 260.74 390.86 260.72 390.85 260.71 390.85 260.69 390.84 260.66 390.83 260.64 390.82 260.62 390.81 260.59 390.81 260.58 390.8 260.56 390.8 260.54 390.79 260.52 390.78 260.51 390.78 260.49 390.78 260.48 390.77 260.47 390.76 260.45 390.76 260.44 390.75 260.42 390.73 260.37 390.72 260.36 390.72 260.34 390.71 260.33 390.71 260.31 390.7 260.3 390.69 260.28 390.69 260.26 390.68 260.25 390.68 260.24 390.67 260.22 390.66 260.21 390.66 260.19 390.65 260.18 390.64 260.16 390.63 260.13 390.62 260.1 390.61 260.08 390.61 260.07 390.6 260.06 390.6 260.04 390.57 259.98 390.56 259.93 390.55 259.91 390.52 259.85 390.51 259.83 390.51 259.82 390.5 259.8 390.5 259.79 390.49 259.78 390.49 259.76 390.48 259.75 390.47 259.73 390.47 259.72 390.38 259.56 390.37 259.55 390.36 259.53 390.32 259.44 390.27 259.26 390.22 259.01 390.22 259 390.17 258.75 390.17 258.72 390.16 258.7 390.15 258.63 390.14 258.62 390.05 258.32 390.01 258.2 389.97 258.07 389.96 258.04 389.95 258.03 389.94 258.01 389.94 257.99 389.93 257.98 389.92 257.96 389.91 257.94 389.91 257.93 389.9 257.91 389.89 257.9 389.88 257.88 389.87 257.86 389.86 257.85 389.85 257.83 389.84 257.82 389.82 257.81 389.82 257.8 389.8 257.78 389.8 257.78 389.78 257.76 389.77 257.75 389.76 257.74 389.75 257.73 389.74 257.71 389.72 257.7 389.7 257.69 389.69 257.68 389.68 257.67 389.67 257.66 389.65 257.65 389.64 257.63 389.63 257.63 389.61 257.61 389.57 257.56 389.55 257.55 389.54 257.55 389.52 257.53 389.5 257.53 389.49 257.52 389.47 257.52 389.46 257.52 389.44 257.51 389.43 257.5 389.42 257.49 389.42 257.48 389.41 257.46 389.32 257.31 389.24 257.21 389.06 256.88 389.03 256.84 389.03 256.83 389.02 256.81 389.02 256.8 389.01 256.78 389 256.76 388.99 256.74 388.98 256.74 388.98 256.72 388.97 256.7 388.96 256.69 388.96 256.68 388.93 256.64 388.92 256.6 388.91 256.59 388.9 256.57 388.89 256.54 388.88 256.53 388.87 256.5 388.87 256.49 388.86 256.47 388.86 256.46 388.85 256.45 388.84 256.43 388.84 256.41 388.83 256.39 388.83 256.38 388.83 256.37 388.83 256.35 388.82 256.33 388.82 256.31 388.81 256.3 388.81 256.27 388.8 256.26 388.8 256.24 388.78 256.2 388.78 256.2 388.77 256.18 388.76 256.15 388.75 256.13 388.75 256.11 388.74 256.1 388.73 256.09 388.72 256.07 388.71 256.06 388.71 256.04 388.7 256.02 388.69 256.01 388.69 256 388.68 255.98 388.68 255.96 388.67 255.95 388.66 255.9 388.65 255.89 388.65 255.87 388.65 255.86 388.65 255.84 388.64 255.82 388.64 255.8 388.63 255.79 388.62 255.77 388.61 255.72 388.6 255.71 388.6 255.7 388.59 255.68 388.59 255.67 388.58 255.65 388.58 255.64 388.57 255.62 388.57 255.61 388.56 255.6 388.54 255.58 388.54 255.56 388.53 255.55 388.52 255.53 388.51 255.52 388.5 255.5 388.49 255.49 388.48 255.48 388.46 255.46 388.46 255.45 388.45 255.44 388.44 255.42 388.43 255.41 388.42 255.39 388.42 255.38 388.41 255.37 388.4 255.35 388.39 255.34 388.38 255.32 388.38 255.3 388.37 255.29 388.37 255.27 388.36 255.25 388.35 255.23 388.35 255.22 388.34 255.19 388.33 255.18 388.33 255.16 388.33 255.14 388.32 255.13 388.32 255.12 388.32 255.1 388.31 255.08 388.31 255.06 388.31 255.04 388.3 255.02 388.3 255.01 388.3 254.99 388.3 254.98 388.3 254.96 388.3 254.94 388.3 254.92 388.31 254.9 388.31 254.89 388.31 254.87 388.31 254.85 388.32 254.82 388.32 254.8 388.32 254.79 388.33 254.77 388.33 254.75 388.33 254.73 388.33 254.71 388.33 254.7 388.33 254.68 388.33 254.67 388.33 254.64 388.33 254.61 388.33 254.59 388.33 254.57 388.33 254.56 388.33 254.54 388.33 254.52 388.33 254.51 388.33 254.49 388.32 254.48 388.32 254.46 388.32 254.43 388.32 254.41 388.31 254.4 388.31 254.38 388.31 254.36 388.3 254.36 388.3 254.34 388.3 254.33 388.29 254.31 388.29 254.29 388.29 254.28 388.29 254.26 388.29 254.24 388.29 254.19 388.29 254.17 388.29 254.15 388.29 254.13 388.29 254.12 388.29 254.1 388.29 254.08 388.29 254.07 388.29 254.03 388.29 254.01 388.29 254 388.29 253.98 388.29 253.96 388.29 253.95 388.3 253.93 388.3 253.91 388.3 253.89 388.3 253.87 388.3 253.86 388.31 253.84 388.31 253.83 388.31 253.81 388.31 253.8 388.31 253.78 388.31 253.76 388.32 253.74 388.32 253.72 388.33 253.71 388.33 253.69 388.33 253.67 388.34 253.66 388.34 253.64 388.35 253.62 388.35 253.61 388.36 253.6 388.36 253.58 388.37 253.56 388.37 253.54 388.39 253.51 388.39 253.5 388.4 253.47 388.41 253.46 388.42 253.43 388.43 253.41 388.44 253.4 388.45 253.37 388.46 253.35 388.46 253.34 388.47 253.32 388.49 253.28 388.5 253.26 388.51 253.24 388.52 253.22 388.52 253.21 388.54 253.19 388.54 253.17 388.55 253.16 388.56 253.14 388.57 253.13 388.58 253.11 388.59 253.1 388.6 253.08 388.61 253.07 388.62 253.05 388.59 253 388.58 252.99 388.57 252.97 388.56 252.96 388.56 252.95 388.55 252.93 388.53 252.92 388.52 252.9 388.51 252.89 388.5 252.88 388.49 252.86 388.48 252.85 388.47 252.83 388.46 252.82 388.44 252.81 388.43 252.79 388.41 252.78 388.4 252.77 388.39 252.75 388.38 252.73 388.37 252.73 388.26 252.75 388.24 252.75 388.22 252.76 388.2 252.76 388.19 252.76 388.18 252.77 388.16 252.77 388.14 252.78 388.13 252.78 388.11 252.78 388.07 252.79 388.05 252.79 388.04 252.8 388.02 252.8 388.01 252.81 387.97 252.82 387.97 252.82 387.95 252.82 387.93 252.82 387.92 252.83 387.9 252.83 387.89 252.84 387.87 252.84 387.86 252.85 387.85 252.85 387.83 252.86 387.82 252.86 387.81 252.87 387.79 252.88 387.77 252.89 387.74 252.8 387.74 252.78 387.73 252.77 387.73 252.75 387.73 252.73 387.72 252.71 387.72 252.68 387.71 252.66 387.71 252.63 387.7 252.61 387.7 252.59 387.69 252.57 387.69 252.56 387.68 252.54 387.68 252.52 387.67 252.5 387.67 252.49 387.66 252.45 387.65 252.44 387.65 252.42 387.65 252.4 387.64 252.39 387.64 252.38 387.64 252.36 387.63 252.34 387.63 252.33 387.63 252.31 387.62 252.29 387.62 252.27 387.61 252.26 387.6 252.24 387.6 252.22 387.6 252.21 387.59 252.2 387.58 252.18 387.58 252.16 387.57 252.15 387.57 252.14 387.56 252.12 387.56 252.11 387.55 252.09 387.53 252.06 387.53 252.05 387.52 252.03 387.51 252.01 387.5 251.99 387.49 251.97 387.48 251.96 387.48 251.95 387.47 251.94 387.46 251.92 387.46 251.9 387.45 251.88 387.44 251.87 387.44 251.84 387.43 251.83 387.43 251.81 387.42 251.79 387.42 251.79 387.42 251.77 387.41 251.75 387.41 251.73 387.41 251.73 387.41 251.71 387.41 251.69 387.41 251.67 387.41 251.66 387.41 251.64 387.41 251.62 387.41 251.6 387.41 251.59 387.41 251.57 387.41 251.56 387.41 251.54 387.42 251.5 387.42 251.49 387.42 251.48 387.42 251.46 387.43 251.44 387.43 251.42 387.43 251.4 387.43 251.38 387.44 251.36 387.44 251.34 387.45 251.31 387.45 251.29 387.45 251.29 387.45 251.27 387.44 251.26 387.43 251.24 387.42 251.23 387.4 251.22 387.39 251.21 387.38 251.2 387.36 251.2 387.35 251.19 387.36 251.16 387.36 251.14 387.37 251.12 387.37 251.1 387.37 251.09 387.38 251.07 387.38 251.05 387.38 251.03 387.38 251.01 387.38 251 387.39 250.98 387.38 250.96 387.37 250.94 387.35 250.93 387.34 250.93 387.32 250.94 387.3 250.95 387.3 250.95 387.28 250.96 387.27 250.96 387.26 250.96 387.26 250.95 387.25 250.94 387.26 250.92 387.26 250.9 387.26 250.88 387.25 250.86 387.25 250.84 387.25 250.83 387.24 250.82 387.23 250.81 387.22 250.8 387.21 250.8 387.19 250.8 387.17 250.8 387.16 250.81 387.14 250.81 387.12 250.81 387.1 250.81 387.09 250.81 387.07 250.81 387.05 250.81 387.03 250.81 387.02 250.81 387 250.8 386.98 250.8 386.98 250.8 386.96 250.79 386.94 250.79 386.92 250.78 386.9 250.77 386.89 250.76 386.87 250.75 386.86 250.75 386.85 250.74 386.83 250.73 386.82 250.72 386.8 250.71 386.79 250.7 386.78 250.69 386.76 250.67 386.74 250.66 386.73 250.65 386.72 250.64 386.71 250.62 386.7 250.61 386.68 250.6 386.67 250.59 386.66 250.59 386.64 250.59 386.62 250.58 386.6 250.59 386.59 250.59 386.57 250.6 386.56 250.62 386.55 250.63 386.53 250.64 386.52 250.65 386.5 250.65 386.48 250.66 386.46 250.66 386.45 250.65 386.44 250.64 386.43 250.63 386.43 250.61 386.44 250.59 386.46 250.57 386.47 250.56 386.47 250.55 386.47 250.54 386.47 250.53 386.46 250.53 386.43 250.52 386.41 250.52 386.39 250.52 386.37 250.52 386.35 250.52 386.34 250.52 386.33 250.53 386.31 250.54 386.28 250.55 386.24 250.57 386.21 250.58 386.17 250.59 386.13 250.59 386.1 250.58 386.05 250.55 386.02 250.52 385.99 250.46 385.98 250.42 385.98 250.38 385.98 250.33 385.98 250.27 385.97 250.25 385.95 250.21 385.93 250.18 385.9 250.16 385.87 250.13 385.8 250.1 385.75 250.08 385.65 250.06 385.58 250.05 385.5 250.05 385.42 250.06 385.35 250.07 385.29 250.08 385.26 250.08 385.24 250.08 385.23 250.07 385.21 250.06 385.17 250.05 385.14 250.03 385.12 250.03 385.09 250.03 385.07 250.03 385.05 250.03 385.03 250.04 385.03 250.04 385.01 250.04 384.99 250.05 384.96 250.06 384.92 250.07 384.9 250.07 384.88 250.08 384.83 250.09 384.81 250.09 384.8 250.1 384.78 250.1 384.76 250.1 384.74 250.09 384.72 250.08 384.71 250.06 384.7 250.06 384.69 250.04 384.69 250.03 384.69 250.02 384.69 250 384.69 249.99 384.69 249.97 384.69 249.95 384.69 249.93 384.69 249.92 384.69 249.91 384.69 249.89 384.69 249.87 384.69 249.85 384.69 249.84 384.71 249.65 384.72 249.63 384.72 249.62 384.72 249.6 384.71 249.58 384.7 249.57 384.69 249.56 384.68 249.55 384.66 249.55 384.65 249.55 384.63 249.55 384.61 249.54 384.61 249.52 384.6 249.51 384.61 249.49 384.61 249.47 384.61 249.45 384.62 249.43 384.62 249.41 384.61 249.4 384.61 249.38 384.6 249.37 384.59 249.36 384.58 249.34 384.56 249.34 384.54 249.34 384.53 249.34 384.51 249.34 384.5 249.34 384.48 249.34 384.46 249.34 384.45 249.33 384.44 249.32 384.43 249.3 384.43 249.28 384.43 249.27 384.43 249.25 384.43 249.23 384.43 249.21 384.43 249.21 384.44 249.19 384.45 249.17 384.45 249.16 384.45 249.14 384.46 249.12 384.45 249.1 384.44 249.09 384.43 249.07 384.42 249.06 384.41 249.05 384.39 249.04 384.38 249.03 384.37 249.02 384.36 249 384.35 248.99 384.34 248.98 384.33 248.96 384.32 248.94 384.31 248.91 384.3 248.9 384.29 248.89 384.29 248.87 384.28 248.86 384.27 248.84 384.26 248.83 384.25 248.81 384.24 248.8 384.22 248.79 384.21 248.78 384.2 248.76 384.19 248.75 384.18 248.74 384.17 248.73 384.15 248.71 384.14 248.7 384.13 248.69 384.12 248.67 384.11 248.66 384.1 248.64 384.09 248.63 384.08 248.61 384.08 248.6 384.07 248.58 384.06 248.57 384.05 248.55 384.03 248.54 384.02 248.53 384.01 248.52 384 248.51 383.99 248.5 383.98 248.48 383.97 248.47 383.96 248.45 383.95 248.44 383.95 248.43 383.94 248.41 383.94 248.39 383.93 248.37 383.93 248.36 383.92 248.33 383.92 248.31 383.92 248.29 383.92 248.27 383.92 248.26 383.93 248.24 383.93 248.22 383.94 248.21 383.95 248.19 383.96 248.17 383.96 248.15 383.97 248.13 383.97 248.12 383.97 248.11 383.97 248.08 383.97 248.06 383.97 248.03 383.97 248.01 383.97 248 383.97 247.98 383.98 247.97 383.98 247.95 383.98 247.93 383.99 247.92 383.99 247.9 384 247.88 384 247.86 384.01 247.85 384.01 247.83 384.02 247.82 384.03 247.8 384.04 247.79 384.05 247.77 384.06 247.76 384.06 247.74 384.07 247.73 384.07 247.71 384.07 247.69 384.08 247.68 384.08 247.66 384.08 247.65 384.09 247.63 384.09 247.62 384.1 247.6 384.1 247.59 384.1 247.57 384.1 247.55 384.1 247.53 384.09 247.51 384.09 247.49 384.09 247.48 384.09 247.46 384.09 247.45 384.09 247.43 384.11 247.39 384.12 247.35 384.12 247.34 384.12 247.32 384.13 247.3 384.13 247.3 384.14 247.28 384.15 247.25 384.16 247.23 384.16 247.22 384.17 247.2 384.17 247.19 384.17 247.17 384.17 247.15 384.17 247.14 384.17 247.12 384.18 247.11 384.18 247.09 384.19 247.06 384.19 247.04 384.2 247.01 384.2 247 384.2 246.96 384.21 246.95 384.21 246.93 384.21 246.91 384.22 246.89 384.22 246.87 384.22 246.86 384.22 246.84 384.22 246.82 384.22 246.8 384.22 246.79 384.22 246.77 384.22 246.75 384.22 246.73 384.22 246.72 384.22 246.7 384.22 246.68 384.22 246.67 384.22 246.65 384.22 246.63 384.21 246.61 384.21 246.6 384.21 246.58 384.21 246.56 384.21 246.55 384.21 246.53 384.21 246.52 384.2 246.5 384.2 246.49 384.2 246.47 384.2 246.45 384.2 246.43 384.2 246.42 384.21 246.4 384.21 246.38 384.21 246.36 384.22 246.33 384.23 246.31 384.23 246.29 384.24 246.27 384.24 246.26 384.24 246.24 384.24 246.22 384.24 246.2 384.25 246.18 384.25 246.16 384.25 246.15 384.24 246.13 384.24 246.11 384.24 246.1 384.24 246.08 384.24 246.06 384.24 246.04 384.24 246.03 384.24 246.01 384.24 245.99 384.24 245.97 384.24 245.95 384.25 245.92 384.25 245.9 384.25 245.88 384.25 245.86 384.25 245.85 384.25 245.83 384.25 245.79 384.25 245.78 384.25 245.76 384.25 245.74 384.25 245.72 384.26 245.71 384.26 245.69 384.26 245.67 384.27 245.66 384.27 245.64 384.27 245.62 384.28 245.6 384.28 245.58 384.28 245.57 384.28 245.55 384.28 245.53 384.28 245.51 384.28 245.5 384.28 245.48 384.28 245.46 384.28 245.45 384.28 245.43 384.28 245.41 384.28 245.39 384.28 245.38 384.28 245.36 384.28 245.34 384.27 245.33 384.27 245.31 384.27 245.29 384.27 245.28 384.26 245.26 384.25 245.24 384.25 245.22 384.24 245.21 384.23 245.19 384.23 245.18 384.23 245.17 384.23 245.15 384.23 245.13 384.24 245.1 384.24 245.08 384.24 245.07 384.24 245.05 384.24 245.03 384.24 245.02 384.24 245 384.24 244.98 384.24 244.96 384.24 244.94 384.24 244.92 384.24 244.89 384.24 244.87 384.24 244.85 384.24 244.84 384.24 244.82 384.24 244.81 384.24 244.79 384.24 244.78 384.24 244.76 384.23 244.72 384.23 244.71 384.23 244.68 384.22 244.65 384.22 244.63 384.22 244.61 384.22 244.6 384.21 244.58 384.21 244.56 384.21 244.54 384.21 244.52 384.21 244.5 384.21 244.47 384.21 244.45 384.2 244.43 384.2 244.43 384.2 244.41 384.2 244.39 384.2 244.36 384.2 244.34 384.19 244.32 384.19 244.3 384.19 244.29 384.19 244.27 384.2 244.26 384.2 244.24 384.2 244.22 384.2 244.2 384.21 244.19 384.21 244.17 384.21 244.15 384.21 244.13 384.21 244.12 384.21 244.1 384.21 244.08 384.2 244.07 384.2 244.06 384.2 244.04 384.19 244.01 384.19 243.99 384.19 243.97 384.19 243.95 384.19 243.93 384.2 243.91 384.2 243.9 384.2 243.88 384.2 243.86 384.2 243.84 384.19 243.83 384.19 243.81 384.19 243.79 384.19 243.77 384.18 243.76 384.18 243.74 384.17 243.73 384.16 243.71 384.16 243.7 384.15 243.68 384.14 243.66 384.14 243.65 384.13 243.64 384.12 243.62 384.11 243.6 384.09 243.56 384.08 243.54 384.07 243.53 384.06 243.51 384.05 243.5 384.04 243.48 384.04 243.47 384.03 243.45 384.02 243.44 384.02 243.42 384.01 243.4 384.01 243.38 384 243.35 383.98 243.31 383.98 243.3 383.97 243.28 383.97 243.26 383.96 243.25 383.96 243.23 383.96 243.22 383.96 243.2 383.95 243.18 383.95 243.17 383.95 243.15 383.94 243.13 383.94 243.11 383.93 243.09 383.92 243.08 383.92 243.06 383.91 243.05 383.9 243.03 383.89 243.02 383.88 243 383.88 242.99 383.87 242.98 383.86 242.96 383.85 242.95 383.84 242.92 383.83 242.9 383.82 242.88 383.81 242.87 383.81 242.85 383.8 242.84 383.79 242.82 383.78 242.81 383.77 242.79 383.76 242.77 383.75 242.76 383.74 242.74 383.73 242.72 383.73 242.71 383.71 242.69 383.7 242.68 383.69 242.66 383.68 242.65 383.67 242.64 383.65 242.62 383.64 242.61 383.63 242.6 383.61 242.58 383.6 242.57 383.59 242.56 383.58 242.54 383.57 242.53 383.56 242.51 383.56 242.5 383.55 242.48 383.54 242.46 383.53 242.45 383.52 242.43 383.51 242.42 383.5 242.4 383.49 242.39 383.48 242.37 383.47 242.36 383.46 242.35 383.45 242.33 383.44 242.32 383.44 242.31 383.43 242.29 383.42 242.28 383.41 242.26 383.4 242.25 383.38 242.22 383.37 242.2 383.36 242.19 383.35 242.18 383.34 242.16 383.33 242.15 383.32 242.14 383.29 242.11 383.28 242.1 383.27 242.08 383.26 242.07 383.25 242.06 383.23 242.04 383.2 242.01 383.18 241.98 383.16 241.96 383.14 241.94 383.01 241.81 383 241.8 382.99 241.78 382.96 241.76 382.95 241.74 382.91 241.71 382.9 241.7 382.88 241.67 382.87 241.66 382.85 241.65 382.84 241.64 382.83 241.63 382.82 241.62 382.8 241.61 382.79 241.6 382.78 241.59 382.76 241.57 382.75 241.57 382.73 241.56 382.72 241.54 382.71 241.54 382.7 241.53 382.68 241.51 382.68 241.51 382.67 241.49 382.66 241.48 382.66 241.46 382.65 241.44 382.65 241.43 382.64 241.41 382.64 241.39 382.63 241.38 382.63 241.37 382.62 241.35 382.61 241.34 382.61 241.32 382.6 241.3 382.59 241.29 382.58 241.27 382.57 241.26 382.57 241.24 382.56 241.23 382.54 241.18 382.53 241.17 382.52 241.15 382.52 241.14 382.51 241.12 382.5 241.1 382.49 241.09 382.49 241.07 382.48 241.06 382.48 241.05 382.47 241.03 382.46 241.02 382.45 241 382.45 240.98 382.43 240.95 382.43 240.94 382.41 240.91 382.41 240.89 382.39 240.86 382.38 240.83 382.34 240.75 382.33 240.73 382.33 240.71 382.32 240.7 382.32 240.69 382.31 240.67 382.3 240.65 382.29 240.62 382.28 240.59 382.26 240.56 382.24 240.51 382.23 240.48 382.23 240.47 382.21 240.43 382.21 240.42 382.19 240.38 382.19 240.37 382.18 240.35 382.18 240.34 382.17 240.33 382.21 240.31 382.31 240.25 382.57 240.09 382.74 239.98 382.78 239.96 382.8 239.95 382.81 239.95 382.82 239.95 382.82 239.94 382.89 239.93 382.9 239.93 382.97 239.91 383.03 239.9 383.09 239.88 383.15 239.87 383.22 239.84 383.31 239.8 383.39 239.78 383.49 239.74 383.56 239.69 383.64 239.65 383.73 239.6 383.81 239.56 383.93 239.48 383.94 239.47 384 239.44 384.01 239.44 384.02 239.43 384.04 239.41 384.06 239.4 384.11 239.37 384.11 239.36 384.16 239.33 384.23 239.3 384.3 239.26 384.36 239.23 384.43 239.19 384.49 239.15 384.58 239.09 384.64 239.05 384.7 239.01 384.75 238.97 384.8 238.94 384.86 238.9 384.93 238.86 384.99 238.82 385.02 238.8 385.05 238.78 385.1 238.74 385.11 238.73 385.15 238.71 385.22 238.67 385.28 238.63 385.34 238.6 385.39 238.57 385.41 238.56 385.45 238.53 385.52 238.5 385.59 238.46 385.65 238.43 385.71 238.41 385.77 238.38 385.85 238.35 385.93 238.33 386.02 238.3 386.08 238.28 386.18 238.26 386.23 238.24 386.24 238.17 386.24 238.13 386.25 238.08 386.25 238.04 386.26 237.97 386.26 237.96 386.27 237.92 386.27 237.88 386.28 237.82 386.28 237.79 386.28 237.78 386.28 237.73 386.28 237.69 386.28 237.64 386.28 237.59 386.28 237.56 386.28 237.55 386.27 237.5 386.26 237.43 386.25 237.39 386.23 237.34 386.19 237.26 386.16 237.2 386.13 237.13 386.07 237.05 386.01 236.96 385.98 236.92 385.97 236.91 385.94 236.87 385.91 236.83 385.89 236.81 385.87 236.77 385.85 236.73 385.82 236.69 385.8 236.65 385.78 236.61 385.77 236.59 385.77 236.55 385.76 236.51 385.76 236.48 385.76 236.43 385.77 236.39 385.77 236.33 385.78 236.26 385.8 236.2 385.82 236.14 385.83 236.09 385.84 236.04 385.86 235.98 385.88 235.92 385.91 235.86 385.93 235.81 385.95 235.77 385.97 235.72 386 235.68 386.03 235.62 386.06 235.56 386.09 235.51 386.11 235.46 386.13 235.42 386.16 235.37 386.18 235.34 386.21 235.32 386.24 235.3 386.28 235.28 386.31 235.26 386.33 235.25 386.4 235.21 386.49 235.16 386.59 235.1 386.6 235.09 386.64 235.07 386.7 235.04 386.73 235.02 386.77 235 386.83 234.91 386.91 234.79 386.95 234.73 386.99 234.67 387.09 234.52 387.24 234.3 387.35 234.15 387.4 234.08 387.4 234.07 387.41 234.06 387.42 234.04 387.43 234.03 387.44 234.02 387.44 234 387.45 233.99 387.47 233.95 387.48 233.93 387.49 233.91 387.5 233.87 387.51 233.85 387.51 233.84 387.52 233.83 387.53 233.8 387.56 233.75 387.62 233.64 387.68 233.53 387.69 233.53 387.7 233.46 387.76 233.35 387.77 233.34 387.79 233.28 387.91 232.91 387.97 232.71 387.98 232.67 388.01 232.53 388.03 232.31 388.05 232.16 388.06 232.12 388.08 231.87 388.09 231.67 388.1 231.59 388.12 231.43 388.14 231.22 388.15 231.18 388.16 230.85 388.17 230.72 388.18 230.53 388.18 230.34 388.19 230.19 388.2 230.01 388.2 229.84 388.19 229.64 388.19 229.57 388.2 229.56 388.2 229.33 388.2 229.1 388.25 229.1 388.4 229.08 388.4 229.07 388.48 229.06 388.62 229.06 388.71 229.04 388.73 229.04 388.87 229.03 388.88 229.03 388.89 229.04 388.9 229.04 388.92 229.04 388.93 229.04 388.94 229.04 388.95 229.04 388.97 229.04 388.98 229.03 388.99 229.04 389 229.04 389.01 229.04 389.01 229.04 389.03 229.04 389.04 229.04 389.04 229.04 389.05 229.04 389.06 229.04 389.07 229.04 389.08 229.04 389.1 229.04 389.11 229.04 389.12 229.04 389.13 229.04 389.14 229.04 389.15 229.04 389.21 229.05 389.24 229.05 389.26 229.04 389.28 229.03 389.29 229.02 389.31 229.01 389.33 228.99 389.36 228.97 389.39 228.95 389.4 228.94 389.43 228.92 389.45 228.91 389.51 228.87 389.55 228.85 389.75 228.75 389.8 228.68 389.92 228.59 389.94 228.58 390 228.54 390.09 228.48 390.25 228.28 390.35 228.21 390.37 228.2 390.38 228.19 390.45 228.14 390.54 228.16 390.6 228.17 390.67 228.18 390.73 228.18 390.77 228.18 390.81 228.17 390.86 228.17 390.87 228.17 390.91 228.17 390.95 228.16 390.96 228.16 391.03 228.15 391.12 228.14 391.13 228.13 391.22 228.12 391.23 228.11 391.3 228.1 391.33 228.09 391.34 228.09 391.36 228.08 391.48 228.06 391.49 228.05 391.58 228.03 391.64 228.01 391.67 228 391.74 227.98 391.75 227.98 391.82 227.95 391.85 227.94 391.95 227.91 391.97 227.9 392.07 227.87 392.21 227.81 392.25 227.8 392.31 227.77 392.43 227.72 392.44 227.72 392.54 227.68 392.59 227.67 392.65 227.65 392.66 227.65 392.75 227.61 392.84 227.58 392.85 227.58 392.95 227.55 393.04 227.53 393.08 227.52 393.11 227.52 393.16 227.51 393.17 227.51 393.22 227.5 393.24 227.5 393.3 227.5 393.34 227.5 393.4 227.5 393.48 227.5 393.5 227.49 393.53 227.49 393.55 227.49 393.62 227.49 393.74 227.49 393.87 227.49 393.97 227.49 394.08 227.48 394.15 227.48 394.17 227.48 394.21 227.48 394.24 227.48 394.27 227.48 394.32 227.47 394.37 227.48 394.52 227.47 394.62 227.47 394.64 227.47 394.75 227.48 394.83 227.48 394.91 227.49 394.95 227.49 394.99 227.5 395.03 227.5 395.06 227.51 395.15 227.52 395.23 227.53 395.29 227.54 395.29 227.54 395.39 227.55 395.46 227.55 395.51 227.55 395.56 227.56 395.65 227.56 395.75 227.56 395.76 227.56 395.81 227.56 395.88 227.56 395.9 227.57 395.96 227.57 395.97 227.57 396.01 227.57 396.05 227.57 396.09 227.58 396.1 227.58 396.13 227.58 396.19 227.58 396.25 227.58 396.41 227.59 396.43 227.59 396.51 227.6 396.55 227.6 396.58 227.6 396.62 227.6 396.67 227.6 396.68 227.6 396.8 227.59 396.82 227.59 396.88 227.6 396.89 227.6 397.01 227.59 397.02 227.59 397.07 227.58 397.09 227.58 397.11 227.58 397.13 227.58 397.2 227.58 397.21 227.58 397.25 227.58 397.33 227.58 397.38 227.57 397.39 227.57 397.41 227.58 397.43 227.58 397.49 227.58 397.5 227.58 397.59 227.57 397.61 227.57 397.95 227.55 398.02 227.55 398.11 227.54 398.19 227.54 398.29 227.53 398.38 227.52 398.47 227.52 398.52 227.52 398.76 227.5 398.83 227.5 398.86 227.5 398.9 227.5 398.95 227.5 399.01 227.5 399.07 227.5 399.12 227.51 399.14 227.51 399.26 227.55 399.28 227.55 399.32 227.55 399.38 227.55 399.44 227.55 399.52 227.55 399.59 227.55 399.63 227.55 399.67 227.55 399.73 227.55 399.78 227.55 399.82 227.55 399.84 227.55 399.87 227.56 399.89 227.55 399.95 227.55 400.03 227.55 400.05 227.55 400.1 227.55 400.19 227.54 400.27 227.53 400.35 227.53 400.53 227.51 Z"/>
</g></svg>