<svg xmlns="http://www.w3.org/2000/svg" version="1.2" baseProfile="tiny" stroke-linecap="round" stroke-linejoin="round" viewBox="458.57 286.97 26.67 16.42"><g xmlns="http://www.w3.org/2000/svg" id="Etxauri">
<path d="M 459.1 292.86 459.07 292.81 459.01 292.67 458.96 292.61 458.89 292.5 458.83 292.39 458.74 292.26 458.69 292.15 458.58 292.01 458.62 292 458.75 291.93 458.89 291.87 458.96 291.83 459.03 291.8 459.09 291.74 459.23 291.62 459.36 291.51 459.5 291.39 459.73 291.21 459.94 291.04 460.13 290.89 460.33 290.74 460.52 290.58 460.63 290.48 460.7 290.43 460.8 290.34 460.91 290.25 460.99 290.18 461.04 290.13 461.11 290.06 461.19 289.98 461.25 289.91 461.3 289.86 461.36 289.82 461.43 289.77 461.49 289.72 461.54 289.68 461.6 289.63 461.64 289.61 461.69 289.56 461.75 289.51 461.83 289.43 461.92 289.38 462.01 289.33 462.08 289.29 462.16 289.23 462.23 289.19 462.27 289.18 462.3 289 462.31 288.95 462.31 288.93 462.32 288.91 462.32 288.84 462.34 288.76 462.37 288.62 462.4 288.48 462.41 288.44 462.45 288.3 462.47 288.19 462.5 288.07 462.48 288.04 462.44 288 462.4 287.95 462.39 287.89 462.37 287.79 462.36 287.64 462.34 287.47 462.33 287.36 462.34 287.27 462.35 287.17 462.35 287.15 462.36 287.06 462.48 287.08 462.61 287.08 462.65 287.08 462.73 287.06 462.8 287.05 462.87 287.04 462.94 287.03 463.01 287.03 463.1 287.02 463.16 287.02 463.23 287.02 463.3 287.02 463.38 287.02 463.46 287.03 463.56 287.04 463.65 287.05 463.71 287.06 463.75 287.06 463.8 287.07 463.87 287.07 463.94 287.08 464.02 287.08 464.09 287.09 464.15 287.08 464.21 287.08 464.28 287.06 464.36 287.05 464.41 287.04 464.49 287.04 464.5 287.04 464.57 287.02 464.65 287.01 464.69 287 464.73 286.99 464.77 286.98 464.83 286.98 464.87 286.98 464.93 286.98 464.99 286.99 465.05 287 465.12 287.01 465.2 287.01 465.21 287.03 465.25 287.12 465.27 287.19 465.3 287.27 465.34 287.35 465.37 287.42 465.4 287.51 465.44 287.58 465.46 287.67 465.5 287.75 465.54 287.85 465.57 287.94 465.61 288.02 465.63 288.1 465.65 288.17 465.67 288.23 465.69 288.32 465.71 288.4 465.72 288.43 465.73 288.48 465.75 288.6 465.76 288.69 465.77 288.77 465.77 288.85 465.78 288.91 465.84 288.88 465.92 288.84 466 288.8 466.06 288.77 466.14 288.75 466.21 288.72 466.26 288.69 466.32 288.65 466.4 288.62 466.47 288.59 466.56 288.55 466.63 288.51 466.72 288.47 466.81 288.43 466.87 288.4 466.96 288.36 467.12 288.28 467.23 288.23 467.31 288.19 467.39 288.16 467.48 288.13 467.56 288.1 467.68 288.06 467.82 288.01 468.08 287.92 468.26 287.86 468.38 287.82 468.51 287.77 468.73 287.69 468.82 287.77 468.84 287.78 468.92 287.86 468.98 287.92 469.05 287.98 469.11 288.04 469.17 288.09 469.23 288.14 469.29 288.19 469.35 288.24 469.4 288.27 469.44 288.3 469.52 288.36 469.61 288.4 469.65 288.43 469.72 288.48 469.78 288.57 469.87 288.67 469.95 288.76 470 288.83 470.02 288.85 470.08 288.92 470.13 288.99 470.18 289.05 470.22 289.1 470.23 289.11 470.25 289.13 470.28 289.17 470.31 289.21 470.34 289.27 470.37 289.33 470.4 289.39 470.43 289.46 470.45 289.51 470.46 289.53 470.5 289.59 470.52 289.62 470.55 289.66 470.58 289.72 470.61 289.77 470.7 289.9 470.75 289.98 470.8 290.05 470.84 290.11 470.87 290.17 470.9 290.22 470.94 290.28 470.96 290.34 471.07 290.55 471.17 290.74 471.26 290.91 471.32 291.04 471.4 291.22 471.45 291.35 471.56 291.57 471.63 291.72 471.66 291.79 471.68 291.84 471.69 291.85 471.75 291.99 471.77 292.04 471.82 292.19 471.87 292.21 471.97 292.26 472.06 292.29 472.26 292.37 472.45 292.46 472.79 292.58 473.09 292.68 473.33 292.75 473.5 292.8 473.68 292.82 473.86 292.84 473.95 292.84 473.97 292.85 474.02 292.85 474.28 292.88 474.52 292.9 474.83 292.94 475.01 292.95 475.18 292.96 475.33 292.97 475.44 293 475.68 293.03 475.83 293.04 475.97 293.05 476.23 293.05 476.58 293.05 476.75 293.06 476.94 293.06 477.11 293.06 477.3 293.06 477.41 293.06 477.61 293.06 477.7 293.06 477.81 293.06 477.98 293.05 478.07 293.05 478.17 293.03 478.27 293.02 478.38 293.01 478.45 293 478.56 293 478.69 292.98 478.81 292.97 479 292.95 479.1 292.94 479.22 292.93 479.36 292.91 479.44 292.91 479.54 292.9 479.63 292.89 479.74 292.88 479.75 292.88 479.78 292.87 479.84 292.86 479.94 292.84 480.04 292.81 480.14 292.79 480.24 292.76 480.29 292.75 480.32 292.75 480.36 292.76 480.4 292.79 480.42 292.82 480.44 292.87 480.28 292.96 480.27 292.96 480.06 293.07 479.86 293.19 479.79 293.22 479.78 293.27 479.79 293.34 479.81 293.42 479.85 293.56 479.86 293.6 479.88 293.67 479.91 293.78 479.93 293.88 479.96 294 479.99 294.05 480.01 294.1 480.02 294.12 480.03 294.15 480.02 294.17 480.02 294.19 480.02 294.2 480.02 294.21 480.01 294.27 480.01 294.32 480 294.35 480 294.39 480 294.4 479.99 294.44 479.99 294.46 479.97 294.54 479.96 294.62 479.94 294.69 479.91 294.82 479.89 294.9 479.85 294.99 479.8 295.13 479.78 295.17 479.76 295.23 479.74 295.28 479.71 295.38 479.68 295.44 479.65 295.54 479.59 295.61 479.56 295.65 479.51 295.72 479.46 295.78 479.47 295.78 479.48 295.79 479.62 295.88 479.73 295.94 479.8 295.99 479.89 296.04 479.92 296.06 479.98 296.1 480.14 296.19 480.18 296.21 480.19 296.22 480.19 296.22 480.42 296.36 480.68 296.45 480.71 296.46 480.77 296.48 480.85 296.5 481.1 296.59 481.24 296.63 481.32 296.66 481.41 296.69 481.64 296.77 481.69 296.79 482.03 296.9 482.3 296.99 482.38 297.02 482.66 297.12 483.16 297.28 483.33 297.33 483.59 297.4 483.66 297.42 483.75 297.43 484.01 297.47 484.15 297.5 484.19 297.5 484.22 297.49 484.23 297.49 484.29 297.47 484.38 297.45 484.41 297.45 484.45 297.44 484.51 297.43 484.56 297.42 484.7 297.58 484.76 297.65 484.81 297.7 484.86 297.73 484.96 297.79 484.99 297.85 485.02 297.9 485.03 297.94 485.05 298 485.07 298.04 485.08 298.11 485.1 298.17 485.11 298.22 485.11 298.25 485.12 298.34 485.13 298.43 485.13 298.52 485.13 298.59 485.13 298.63 485.14 298.69 485.17 298.77 485.19 298.85 485.2 298.92 485.2 299.01 485.21 299.11 485.21 299.16 485.21 299.23 485.21 299.31 485.2 299.4 485.18 299.49 485.16 299.56 485.15 299.61 485.14 299.68 485.11 299.74 485.09 299.78 485.05 299.84 485.02 299.88 484.97 299.94 484.93 299.98 484.86 300.02 484.78 300.03 484.7 300.05 484.62 300.06 484.6 300.06 484.53 300.06 484.43 300.06 484.34 300.06 484.26 300.05 484.19 300.05 484.14 300.04 484.06 300.02 483.99 300 483.89 299.97 483.83 299.94 483.72 299.89 483.66 299.86 483.56 299.8 483.52 299.78 483.45 299.73 483.38 299.69 483.31 299.64 483.27 299.6 483.2 299.54 483.16 299.5 483.08 299.42 483 299.35 482.98 299.32 482.92 299.28 482.89 299.25 482.83 299.22 482.78 299.19 482.73 299.16 482.69 299.14 482.63 299.12 482.58 299.1 482.54 299.09 482.47 299.08 482.45 299.08 482.37 299.08 482.34 299.09 482.27 299.08 482.18 299.09 482.1 299.11 482.04 299.12 481.97 299.13 481.87 299.14 481.78 299.15 481.68 299.15 481.58 299.15 481.5 299.13 481.41 299.12 481.36 299.11 481.28 299.08 481.21 299.05 481.13 299.02 481.08 298.98 481.03 298.96 480.98 298.91 480.93 298.86 480.89 298.82 480.85 298.78 480.81 298.75 480.75 298.71 480.67 298.66 480.58 298.59 480.48 298.54 480.39 298.49 480.29 298.43 480.2 298.38 480.11 298.33 480.08 298.32 480.01 298.29 479.91 298.26 479.85 298.25 479.84 298.31 479.84 298.33 479.84 298.33 479.85 298.39 479.87 298.44 479.93 298.54 479.97 298.62 480.03 298.7 480.05 298.76 480.05 298.76 480.04 298.79 480.03 298.82 480.03 298.83 480.03 298.84 479.93 299.15 479.81 299.54 479.77 299.67 479.76 299.71 479.75 299.73 479.66 300.02 479.63 300.11 479.63 300.13 479.6 300.2 479.6 300.21 479.59 300.25 479.58 300.27 479.58 300.28 479.58 300.29 479.57 300.3 479.54 300.41 479.57 300.42 479.58 300.43 479.6 300.44 479.64 300.45 479.65 300.46 479.69 300.49 479.71 300.51 479.73 300.54 479.77 300.57 479.8 300.59 479.85 300.6 479.85 300.61 479.87 300.62 479.87 300.62 479.9 300.64 479.91 300.66 479.95 300.69 479.99 300.71 480.04 300.72 480.11 300.72 480.15 300.73 480.18 300.74 480.2 300.76 480.22 300.78 480.23 300.79 480.26 300.82 480.41 300.9 480.54 300.97 480.67 301.05 480.7 301.06 481.02 301.25 481.04 301.26 481.24 301.37 481.42 301.48 481.48 301.51 481.51 301.53 481.52 301.53 481.54 301.55 481.64 301.6 481.7 301.64 481.7 301.66 481.72 301.68 481.75 301.7 481.79 301.71 481.84 301.73 481.85 301.73 481.84 301.75 481.76 301.9 481.75 301.92 481.72 302.01 481.7 302.1 481.69 302.17 481.68 302.24 481.52 302.22 481.33 302.19 481.17 302.16 481 302.15 480.84 302.15 480.82 302.15 480.78 302.16 480.75 302.17 480.66 302.23 480.53 302.3 480.39 302.39 480.24 302.49 480.23 302.49 480.21 302.5 480.21 302.51 480.03 302.61 479.86 302.71 479.76 302.77 479.68 302.82 479.65 302.84 479.63 302.85 479.58 302.86 479.5 302.88 479.42 302.9 479.3 302.93 479.23 302.95 479.2 302.96 479.14 302.98 479.06 303.02 478.98 303.05 478.72 303.06 478.69 303.06 478.67 303.06 478.61 303.06 478.57 303.07 478.53 303.07 478.51 303.07 478.46 303.07 478.39 303.09 478.34 303.09 478.32 303.09 478.29 303.1 478.25 303.09 478.19 303.08 478.15 303.06 478.09 303.05 478.06 303.04 478.04 303.04 478.02 303.06 478 303.09 477.99 303.09 477.98 303.1 477.94 303.1 477.91 303.14 477.87 303.17 477.84 303.21 477.81 303.25 477.78 303.28 477.76 303.3 477.72 303.32 477.71 303.33 477.69 303.34 477.66 303.36 477.63 303.36 477.59 303.36 477.5 303.34 477.46 303.33 477.38 303.33 477.32 303.33 477.29 303.33 477.23 303.33 477.15 303.34 477.08 303.34 477.03 303.36 477.01 303.37 476.95 303.33 476.91 303.31 476.89 303.3 476.82 303.26 476.78 303.24 476.77 303.23 476.72 303.19 476.68 303.16 476.64 303.13 476.6 303.11 476.59 303.1 476.58 303.1 476.56 303.1 476.53 303.09 476.5 303.08 476.48 303.07 476.46 303.05 476.44 303.04 476.39 303.04 476.35 303.04 476.3 303.04 476.2 303.05 476.18 303.05 476.17 303.01 476.16 302.99 476.15 302.97 476.14 302.94 476.14 302.91 476.15 302.89 476.15 302.86 476.16 302.81 476.15 302.79 476.12 302.75 476.08 302.68 476.05 302.64 476.03 302.61 476.01 302.58 475.99 302.55 475.97 302.53 475.95 302.51 475.93 302.48 475.92 302.46 475.9 302.45 475.88 302.42 475.86 302.41 475.84 302.38 475.82 302.36 475.8 302.34 475.77 302.3 475.75 302.28 475.73 302.25 475.69 302.2 475.66 302.18 475.65 302.16 475.62 302.15 475.55 302.13 475.47 302.09 475.43 302.06 475.39 302.04 475.38 302.02 475.37 302.01 475.36 301.99 475.36 301.97 475.36 301.95 475.36 301.94 475.36 301.91 475.37 301.88 475.38 301.85 475.28 301.73 475.23 301.68 475.14 301.63 475.09 301.61 475.03 301.61 474.98 301.62 474.93 301.62 474.88 301.63 474.82 301.65 474.75 301.67 474.68 301.7 474.6 301.73 474.53 301.77 474.45 301.81 474.37 301.83 474.29 301.86 474.22 301.89 474.1 301.93 474.01 301.96 473.95 301.97 473.86 301.97 473.78 301.97 473.68 301.96 473.6 301.95 473.51 301.95 473.44 301.94 473.37 301.93 473.28 301.92 473.28 301.85 473.27 301.72 473.27 301.71 473.27 301.65 473.26 301.51 473.26 301.33 473.26 301.28 473.25 301.14 473.25 301.08 473.25 301.06 473.23 300.92 473.21 300.76 473.18 300.58 473.18 300.47 473.17 300.34 473.17 300.32 473.16 300.26 473.14 300.14 473.12 300.02 473.1 299.88 473.07 299.76 473.04 299.59 473.02 299.5 473.01 299.39 472.98 299.24 472.97 299.18 472.95 299.03 472.93 298.89 472.93 298.87 472.93 298.87 472.91 298.75 472.87 298.42 472.85 298.29 472.8 298.01 472.77 297.83 472.77 297.8 472.76 297.77 472.76 297.75 472.76 297.74 472.76 297.72 472.75 297.71 472.75 297.65 472.74 297.62 472.74 297.6 472.73 297.57 472.72 297.53 472.71 297.51 472.69 297.46 472.64 297.38 472.59 297.28 472.58 297.28 472.53 297.17 472.52 297.16 472.51 297.15 472.48 297.1 472.42 296.99 472.42 296.98 472.41 296.97 472.41 296.95 472.31 296.94 472.21 296.92 472.15 296.91 472.1 296.91 472.01 296.91 471.97 296.9 471.96 296.88 471.95 296.81 471.92 296.7 471.9 296.57 471.87 296.44 471.87 296.42 471.86 296.38 471.85 296.26 471.83 296.12 471.81 295.91 471.79 295.77 471.78 295.61 471.76 295.5 471.76 295.43 471.53 295.41 471.52 295.18 471.51 295.04 471.51 294.96 471.5 294.82 471.48 294.66 471.36 294.76 471.23 294.87 471.13 294.95 471.04 295.06 470.95 295.15 470.91 295.19 470.83 295.18 470.77 295.17 470.71 295.17 470.61 295.19 470.54 295.2 470.48 295.2 470.39 295.18 470.34 295.17 470.31 295.17 470.28 295.17 470.22 295.17 470.16 295.15 470.09 295.14 470 295.13 469.9 295.11 469.83 295.1 469.75 295.1 469.67 295.1 469.6 295.1 469.55 295.09 469.54 295.15 469.54 295.19 469.54 295.25 469.47 295.29 469.4 295.32 469.35 295.34 469.33 295.36 469.31 295.38 469.27 295.43 469.24 295.48 469.2 295.54 469.16 295.6 469.1 295.61 469.02 295.63 468.95 295.65 468.91 295.67 468.88 295.69 468.85 295.71 468.81 295.75 468.77 295.8 468.71 295.81 468.66 295.83 468.58 295.83 468.51 295.84 468.43 295.85 468.35 295.86 468.29 295.86 468.24 295.85 468.19 295.83 468.12 295.81 468.06 295.78 467.98 295.75 467.92 295.71 467.88 295.69 467.8 295.64 467.75 295.63 467.69 295.61 467.61 295.6 467.52 295.58 467.42 295.57 467.36 295.58 467.27 295.58 467.17 295.59 467.08 295.59 467.01 295.59 466.94 295.59 466.85 295.58 466.76 295.58 466.69 295.57 466.59 295.57 466.5 295.57 466.4 295.57 466.35 295.57 466.28 295.57 466.21 295.58 466.14 295.6 466.07 295.61 466 295.6 465.92 295.59 465.82 295.55 465.73 295.52 465.65 295.5 465.57 295.49 465.47 295.47 465.37 295.43 465.31 295.42 465.2 295.4 465.11 295.38 465.01 295.35 464.89 295.33 464.8 295.31 464.69 295.29 464.61 295.27 464.52 295.27 464.46 295.27 464.39 295.26 464.32 295.25 464.26 295.25 464.2 295.26 464.12 295.27 464.04 295.28 463.96 295.3 463.88 295.33 463.79 295.36 463.7 295.4 463.62 295.42 463.52 295.46 463.48 295.48 463.42 295.52 463.37 295.57 463.33 295.59 463.26 295.63 463.2 295.64 463.14 295.66 463.06 295.66 462.88 295.66 462.8 295.67 462.74 295.67 462.67 295.68 462.59 295.7 462.51 295.71 462.43 295.73 462.35 295.75 462.27 295.76 462.22 295.78 462.13 295.8 462.05 295.82 461.98 295.84 461.9 295.86 461.86 295.87 461.81 295.88 461.76 295.88 461.67 295.87 461.62 295.86 461.57 295.86 461.51 295.86 461.45 295.85 461.38 295.84 461.32 295.83 461.18 295.82 461.15 295.77 461.11 295.74 461.07 295.7 461.04 295.67 461 295.62 460.97 295.57 460.93 295.52 460.9 295.46 460.86 295.4 460.83 295.35 460.8 295.32 460.78 295.26 460.75 295.21 460.73 295.15 460.71 295.11 460.69 295.05 460.68 295.02 460.66 294.97 460.65 294.91 460.63 294.84 460.62 294.79 460.6 294.72 460.59 294.68 460.58 294.61 460.57 294.56 460.55 294.54 460.53 294.52 460.49 294.5 460.45 294.46 460.42 294.42 460.39 294.39 460.39 294.36 460.38 294.34 460.38 294.31 460.39 294.28 460.4 294.24 460.41 294.19 460.32 294.13 460.25 294.08 460.2 294.04 460.13 293.98 460.05 293.9 459.97 293.82 459.89 293.74 459.82 293.66 459.76 293.6 459.68 293.52 459.61 293.46 459.52 293.36 459.44 293.28 459.36 293.2 459.31 293.14 459.29 293.12 459.25 293.08 459.2 293.01 459.15 292.95 459.1 292.86 Z"/>
</g></svg>