<svg xmlns="http://www.w3.org/2000/svg" version="1.2" baseProfile="tiny" stroke-linecap="round" stroke-linejoin="round" viewBox="663.78 244.5 39.55 18.88"><g xmlns="http://www.w3.org/2000/svg" id="Ezkaroze">
<path d="M 684.47 249.88 684.71 250.09 684.83 250.19 684.88 250.23 684.91 250.25 684.95 250.28 684.98 250.3 685 250.31 685.03 250.33 685.05 250.34 685.11 250.38 685.16 250.41 685.23 250.45 685.32 250.5 685.38 250.55 685.44 250.59 685.47 250.61 685.49 250.62 685.52 250.64 685.54 250.66 685.58 250.68 685.61 250.69 685.63 250.7 685.67 250.72 685.72 250.74 685.75 250.74 685.77 250.74 685.79 250.74 685.8 250.75 685.81 250.75 685.82 250.75 685.83 250.75 685.84 250.75 685.85 250.76 685.86 250.76 685.88 250.77 685.89 250.78 685.91 250.81 686.05 251.03 686.09 251.08 686.1 251.09 686.11 251.11 686.12 251.13 686.13 251.14 686.14 251.15 686.15 251.16 686.15 251.16 686.17 251.18 686.18 251.19 686.19 251.2 686.19 251.21 686.2 251.21 686.21 251.23 686.22 251.24 686.23 251.26 686.25 251.28 686.26 251.31 686.28 251.36 686.31 251.41 686.34 251.49 686.38 251.59 686.41 251.67 686.44 251.76 686.49 251.89 686.5 251.88 686.55 251.88 686.59 251.88 686.68 251.9 686.7 251.9 686.94 251.94 686.95 251.95 686.96 251.95 686.97 251.95 686.98 251.96 686.98 251.97 687 251.98 687 251.98 687.01 251.99 687.02 252.01 687.1 252.1 687.27 252.36 687.36 252.32 687.39 252.31 687.42 252.29 687.45 252.28 687.51 252.24 687.57 252.21 687.71 252.12 687.74 252.1 687.77 252.09 687.8 252.07 687.84 252.05 687.86 252.04 687.91 252.01 687.95 251.99 687.98 251.97 688.02 251.96 688.05 251.94 688.08 251.93 688.11 251.91 688.14 251.89 688.16 251.88 688.17 251.87 688.19 251.86 688.21 251.85 688.22 251.83 688.24 251.82 688.26 251.8 688.29 251.77 688.3 251.75 688.32 251.74 688.33 251.72 688.34 251.71 688.34 251.7 688.36 251.68 688.37 251.66 688.37 251.64 688.38 251.61 688.39 251.59 688.39 251.58 688.4 251.55 688.4 251.54 688.41 251.49 688.42 251.47 688.42 251.46 688.43 251.45 688.43 251.43 688.44 251.42 688.45 251.39 688.46 251.37 688.48 251.33 688.5 251.3 688.54 251.23 688.6 251.14 688.61 251.13 688.61 251.11 688.62 251.1 688.62 251.08 688.63 251.06 688.63 251.05 688.63 251.03 688.64 251 688.65 250.9 688.67 250.82 688.68 250.78 688.69 250.75 688.7 250.73 688.71 250.71 688.72 250.7 688.73 250.68 688.75 250.64 688.76 250.62 688.78 250.6 688.79 250.58 688.8 250.56 688.82 250.54 688.83 250.52 688.84 250.5 688.86 250.49 688.87 250.47 688.89 250.46 688.91 250.43 688.94 250.41 688.96 250.39 688.99 250.38 689 250.37 689.02 250.35 689.07 250.31 689.09 250.3 689.14 250.26 689.18 250.22 689.21 250.2 689.24 250.17 689.25 250.15 689.29 250.11 689.3 250.09 689.34 250.04 689.37 250 689.39 249.97 689.41 249.94 689.44 249.89 689.44 249.89 689.44 249.88 689.46 249.79 689.48 249.59 689.67 249.47 689.67 249.45 689.69 249.07 689.7 248.75 689.7 248.71 689.87 248.67 689.88 248.66 689.96 248.65 690.15 248.62 690.71 248.54 690.75 248.54 690.77 248.53 690.78 248.53 690.79 248.53 690.8 248.52 690.82 248.52 690.83 248.51 690.84 248.5 690.86 248.49 690.88 248.48 690.9 248.47 690.91 248.46 690.92 248.45 690.94 248.43 690.98 248.39 691.03 248.36 691.05 248.34 691.11 248.27 691.15 248.23 691.17 248.2 691.21 248.14 691.31 248.01 691.43 247.86 691.49 247.77 691.55 247.68 691.61 247.59 692.02 247.71 692.16 247.75 692.25 247.78 692.55 247.85 692.61 247.87 692.77 247.94 692.94 248.01 692.96 248.02 693.02 248.04 693.04 248.05 693.07 248.04 693.09 248.04 693.11 248.04 693.14 248.03 693.16 248.03 693.17 248.03 693.21 248.02 693.23 248.02 693.29 248.02 693.33 248.01 693.37 248.01 693.39 248.01 693.44 248 693.52 247.98 693.59 247.96 693.66 247.95 693.7 247.94 693.71 247.94 693.73 247.93 693.76 247.92 693.78 247.91 693.82 247.9 693.86 247.88 693.9 247.86 693.96 247.83 694.02 247.81 694.08 247.77 694.15 247.74 694.36 247.64 694.44 247.71 694.5 247.76 694.57 247.82 694.63 247.87 694.67 247.9 694.71 247.93 694.75 247.96 694.8 248 694.85 248.04 694.89 248.07 694.94 248.11 695 248.15 695.09 248.22 695.15 248.27 695.16 248.28 695.22 248.34 695.25 248.37 695.27 248.39 695.29 248.41 695.3 248.44 695.31 248.46 695.33 248.5 695.35 248.54 695.37 248.58 695.39 248.61 695.4 248.63 695.43 248.67 695.45 248.72 695.47 248.75 695.48 248.77 695.49 248.78 695.51 248.8 695.52 248.8 695.68 248.84 695.9 248.52 695.97 248.5 696.02 248.49 696.05 248.49 696.08 248.48 696.12 248.45 696.17 248.43 696.27 248.38 696.31 248.44 696.33 248.48 696.35 248.52 696.35 248.55 696.36 248.57 696.39 248.69 696.41 248.72 696.42 248.73 696.43 248.75 696.45 248.76 696.52 248.78 696.56 248.8 696.58 248.81 696.61 248.82 696.65 248.83 696.72 248.85 696.91 248.89 697.09 248.91 697.11 248.91 697.13 248.92 697.14 248.92 697.15 248.92 697.17 248.93 697.66 249.11 698.29 249.31 698.55 248.52 698.77 248.61 698.85 248.65 699.3 248.83 699.32 248.85 699.38 248.92 699.43 248.97 699.47 249.02 699.5 249.08 699.54 249.14 699.57 249.2 699.61 249.27 699.74 249.47 699.77 249.48 699.8 249.5 699.83 249.51 699.86 249.51 699.92 249.52 699.98 249.53 700.07 249.53 700.14 249.53 700.24 249.54 700.36 249.54 700.4 249.55 700.43 249.55 700.49 249.57 700.55 249.58 700.6 249.6 700.65 249.62 700.72 249.65 700.82 249.68 700.91 249.71 701.03 249.74 701.14 249.78 701.36 249.85 701.5 249.88 701.51 249.89 701.52 249.89 701.53 249.88 701.55 249.88 701.56 249.87 701.57 249.86 701.6 249.85 701.63 249.82 701.69 249.76 701.75 249.72 701.76 249.71 701.78 249.7 701.84 249.69 702.03 249.69 702.04 249.76 702.05 249.78 702.06 249.8 702.07 249.82 702.07 249.85 702.07 249.87 702.06 249.91 702.06 249.93 702.06 249.97 702.07 250 702.08 250.03 702.09 250.05 702.1 250.08 702.1 250.11 702.11 250.14 702.11 250.17 702.1 250.2 702.1 250.23 702.1 250.26 702.11 250.3 702.13 250.35 702.15 250.38 702.16 250.42 702.17 250.46 702.18 250.5 702.2 250.54 702.2 250.57 702.22 250.62 702.24 250.66 702.26 250.71 702.28 250.77 702.3 250.82 702.33 250.87 702.34 250.89 702.35 250.92 702.36 250.95 702.36 250.98 702.37 251.05 702.38 251.09 702.39 251.14 702.4 251.18 702.4 251.2 702.4 251.24 702.41 251.28 702.41 251.32 702.42 251.36 702.43 251.39 702.44 251.42 702.46 251.46 702.46 251.49 702.47 251.51 702.49 251.56 702.51 251.61 702.53 251.64 702.54 251.68 702.55 251.7 702.56 251.72 702.59 251.81 702.6 251.83 702.61 251.86 702.63 251.9 702.63 251.92 702.64 251.97 702.65 252.01 702.65 252.05 702.66 252.08 702.66 252.12 702.67 252.15 702.68 252.19 702.69 252.23 702.7 252.27 702.71 252.29 702.72 252.31 702.72 252.37 702.74 252.4 702.75 252.44 702.76 252.46 702.76 252.47 702.76 252.5 702.75 252.52 702.74 252.58 702.72 252.61 702.71 252.64 702.68 252.67 702.66 252.69 702.64 252.71 702.65 252.74 702.68 252.81 702.74 252.92 702.79 253.01 702.83 253.09 702.88 253.17 702.92 253.21 702.96 253.25 703.04 253.29 703.09 253.31 703.14 253.33 703.19 253.35 703.21 253.37 703.23 253.39 703.24 253.42 703.26 253.48 703.27 253.56 703.28 253.64 703.28 253.68 703.29 253.7 703.29 253.74 703.28 253.77 703.26 253.8 703.26 253.83 703.26 253.87 703.26 253.91 703.27 253.94 703.29 253.96 703.3 253.98 703.32 254 703.32 254.03 703.31 254.05 703.3 254.1 703.3 254.13 703.29 254.15 703.26 254.19 703.23 254.25 703.22 254.28 703.2 254.36 703.18 254.44 703.17 254.48 703.16 254.51 703.15 254.57 703.15 254.65 703.14 254.7 703.13 254.74 703.11 254.77 703.07 254.81 703.04 254.84 703.03 254.86 703.02 254.92 702.99 254.98 702.97 255.01 702.97 255.01 702.95 255.03 702.91 255.07 702.85 255.13 702.83 255.15 702.81 255.18 702.79 255.21 702.79 255.25 702.78 255.34 702.76 255.41 702.75 255.47 702.73 255.5 702.71 255.54 702.66 255.59 702.63 255.63 702.61 255.67 702.6 255.69 702.59 255.72 702.58 255.75 702.58 255.79 702.59 255.86 702.58 255.94 702.58 255.98 702.56 256 702.54 256.03 702.52 256.06 702.5 256.1 702.48 256.14 702.45 256.22 702.43 256.28 702.41 256.32 702.37 256.39 702.33 256.46 702.3 256.53 702.27 256.62 702.27 256.64 702.24 256.7 702.21 256.81 702.17 256.93 702.15 257 702.13 257.06 702.13 257.09 702.12 257.16 702.12 257.24 702.11 257.33 702.11 257.41 702.11 257.46 702.11 257.47 702.11 257.49 702.1 257.54 702.09 257.59 702.08 257.6 702.08 257.61 702.07 257.64 702.06 257.65 702.05 257.69 702.03 257.73 702.02 257.75 702.01 257.79 701.97 257.87 701.96 257.89 701.95 257.9 701.92 257.96 701.88 258.03 701.84 258.09 701.78 258.22 701.75 258.28 701.72 258.34 701.68 258.4 701.63 258.5 701.6 258.56 701.58 258.6 701.56 258.62 701.54 258.67 701.51 258.71 701.47 258.77 701.44 258.82 701.4 258.87 701.37 258.91 701.34 258.97 701.29 259.03 701.26 259.08 701.24 259.11 701.23 259.13 701.21 259.15 701.18 259.21 701.14 259.28 701.11 259.34 701.07 259.41 701.04 259.49 701 259.56 700.97 259.63 700.88 259.8 700.84 259.85 700.83 259.87 700.81 259.9 700.8 259.93 700.77 259.99 700.75 260.03 700.75 260.04 700.74 260.07 700.73 260.08 700.72 260.11 700.7 260.17 700.66 260.26 700.63 260.33 700.6 260.39 700.57 260.45 700.54 260.52 700.53 260.54 700.52 260.57 700.51 260.59 700.47 260.68 700.43 260.77 700.39 260.85 700.35 260.94 700.32 261 700.29 261.09 700.26 261.15 700.23 261.23 700.2 261.31 700.18 261.36 700.17 261.38 700.16 261.44 700.13 261.51 700.11 261.55 700.09 261.62 700.08 261.64 700.04 261.67 700 261.69 699.93 261.75 699.86 261.8 699.78 261.88 699.71 261.96 699.69 261.98 699.6 262.09 699.59 262.1 699.59 262.11 699.48 262.23 699.44 262.26 699.24 262.47 699.04 262.67 698.85 262.87 698.65 263.06 698.47 263.25 698.35 263.37 698.27 263.15 698.12 262.76 697.98 262.37 697.87 262.09 697.86 262.06 697.81 261.91 697.63 262.03 697.54 261.93 697.5 261.89 697.45 261.81 697.36 261.69 697.31 261.64 697.19 261.46 697.1 261.31 697.03 261.21 697 261.16 696.96 261.1 696.92 261.05 696.87 260.99 696.75 260.86 696.62 260.72 696.5 260.6 696.49 260.59 696.44 260.57 696.3 260.52 696.12 260.46 695.96 260.4 695.94 260.39 695.93 260.39 695.92 260.38 695.85 260.32 695.78 260.27 695.69 260.2 695.63 260.14 695.57 260.1 695.56 260.08 695.55 260.07 695.55 260.06 695.55 260.04 695.55 260 695.55 259.97 695.39 259.95 695.25 259.93 695.18 259.92 695.14 259.91 695.04 259.9 695 259.89 694.99 259.89 694.95 259.88 694.93 259.88 694.9 259.88 694.87 259.88 694.83 259.89 694.82 259.89 694.77 259.9 694.68 259.91 694.66 259.91 694.64 259.91 694.62 259.91 694.6 259.9 694.58 259.89 694.54 259.88 694.52 259.87 694.44 259.83 694.3 259.78 694.24 259.75 694.22 259.74 694.18 259.73 694.04 259.67 693.92 259.62 693.91 259.62 693.86 259.6 693.85 259.59 693.83 259.58 693.82 259.57 693.78 259.54 693.69 259.45 693.63 259.39 693.58 259.35 693.51 259.28 693.45 259.21 693.44 259.2 693.43 259.19 693.42 259.19 693.41 259.18 693.39 259.18 693.34 259.19 693.32 259.19 693.3 259.18 693.17 259.15 693.13 259.15 693.08 259.14 693.07 259.14 693.05 259.14 692.95 259.12 692.83 259.11 692.78 259.1 692.75 259.09 692.72 259.09 692.68 259.08 692.63 259.05 692.53 259 692.45 258.96 692.41 258.93 692.36 258.91 692.32 258.88 692.26 258.82 692.23 258.79 692.2 258.78 692.07 258.7 692.02 258.66 691.93 258.61 691.89 258.59 691.81 258.54 691.81 258.53 691.77 258.51 691.73 258.49 691.7 258.47 691.67 258.46 691.63 258.45 691.59 258.43 691.54 258.42 691.51 258.41 691.48 258.41 691.43 258.41 691.42 258.39 691.32 258.3 691.18 258.16 691.05 258.03 690.9 257.89 690.83 257.82 690.81 257.8 690.75 257.74 690.7 257.69 690.67 257.67 690.64 257.65 690.62 257.64 690.57 257.6 690.54 257.58 690.5 257.56 690.46 257.54 690.41 257.5 690.29 257.41 690.24 257.37 690.2 257.33 690.17 257.3 690.14 257.26 690.1 257.22 689.98 257.09 689.91 257.01 689.87 256.97 689.84 256.95 689.82 256.93 689.8 256.92 689.78 256.91 689.76 256.89 689.73 256.88 689.7 256.86 689.67 256.85 689.65 256.83 689.63 256.81 689.6 256.78 689.56 256.74 689.49 256.67 689.47 256.64 689.45 256.62 689.42 256.6 689.38 256.57 689.33 256.54 689.3 256.52 689.25 256.49 689.18 256.45 689.14 256.43 689.1 256.41 689.08 256.41 689.06 256.4 689.03 256.4 689 256.39 688.97 256.39 688.96 256.39 688.94 256.38 688.92 256.38 688.9 256.38 688.86 256.37 688.79 256.37 688.75 256.37 688.7 256.37 688.65 256.38 688.6 256.38 688.52 256.39 688.4 256.41 688.33 256.41 688.28 256.41 688.21 256.41 688.18 256.41 688.15 256.4 688.12 256.39 688.08 256.38 688.03 256.36 687.93 256.32 687.88 256.3 687.84 256.29 687.78 256.27 687.76 256.27 687.73 256.26 687.7 256.26 687.67 256.27 687.64 256.27 687.59 256.28 687.56 256.29 687.53 256.3 687.49 256.32 687.48 256.33 687.45 256.34 687.42 256.36 687.39 256.39 687.32 256.44 687.26 256.5 687.04 256.68 687.02 256.69 686.76 256.68 686.71 256.68 686.63 256.74 686.58 256.73 686.57 256.74 686.56 256.74 686.53 256.74 686.51 256.75 686.48 256.76 686.45 256.78 686.43 256.79 686.41 256.8 686.4 256.81 686.38 256.82 686.36 256.84 686.35 256.85 686.29 256.92 686.24 256.97 686.21 256.99 686.2 257 686.18 257.01 686.17 257.02 686.16 257.02 686.14 257.03 686.12 257.04 686.09 257.04 686.03 257.04 685.99 257.05 685.98 257.05 685.97 257.05 685.96 257.06 685.94 257.07 685.9 257.09 685.82 257.14 685.7 257.23 685.66 257.26 685.59 257.31 685.56 257.33 685.46 257.4 685.23 257.49 685.04 257.55 684.93 257.59 684.89 257.6 684.76 257.65 684.64 257.7 684.52 257.75 684.42 257.79 684.39 257.81 684.36 257.82 684.25 257.89 684.14 257.94 684.06 257.99 684 258.02 683.94 258.06 683.89 258.09 683.83 258.13 683.73 258.19 683.64 258.25 683.63 258.27 683.6 258.33 683.49 258.57 683.48 258.58 683.46 258.63 683.39 258.77 683.34 258.88 683.26 259.04 683.22 259.12 683.21 259.14 683.2 259.17 683.02 259.21 682.9 259.24 682.61 259.31 682.4 259.29 682 259.27 681.97 259.27 681.96 259.26 681.94 259.26 681.79 259.25 681.56 259.49 681.4 259.51 681.32 259.66 681.31 259.67 681.3 259.68 681.3 259.69 681.29 259.69 681.29 259.7 681.28 259.7 681.27 259.7 681.19 259.7 681.17 259.7 681.14 259.7 681.12 259.7 681.09 259.7 681.09 259.7 681.08 259.7 681.06 259.7 681.04 259.71 681.03 259.71 681.02 259.71 681 259.72 680.99 259.72 680.98 259.73 680.96 259.74 680.93 259.76 680.87 259.79 680.85 259.8 680.61 260.26 680.5 260.32 680.37 260.39 680.28 260.31 680.23 260.28 680.1 260.37 680.02 260.43 679.99 260.45 679.92 260.5 679.88 260.53 679.87 260.54 679.86 260.55 679.83 260.57 679.82 260.58 679.81 260.59 679.78 260.61 679.77 260.62 679.76 260.62 679.75 260.63 679.74 260.63 679.73 260.63 679.71 260.64 679.69 260.63 679.69 260.63 679.67 260.62 679.65 260.62 679.63 260.61 679.59 260.59 679.56 260.58 679.44 260.52 679.38 260.49 679.32 260.46 679.3 260.45 679.29 260.45 679.28 260.45 679.27 260.45 679.26 260.45 679.24 260.45 679.23 260.45 679.22 260.45 679.21 260.46 679.2 260.46 679.18 260.47 679.17 260.47 679.15 260.48 679.14 260.49 679.12 260.5 679.09 260.52 679.04 260.56 678.9 260.77 678.57 260.69 678.51 260.77 678.41 260.89 678.3 260.99 678.06 261.2 677.87 261.2 677.68 261.21 677.5 261.21 677.34 261.22 677.16 261.22 677.1 261.2 677.03 261.18 677.01 261.17 676.99 261.16 676.91 261.14 676.86 261.12 676.76 261.08 676.62 261.04 676.51 261 676.5 260.99 676.37 260.95 676.32 260.93 676.19 260.89 676 260.75 675.75 260.67 675.59 260.64 675.44 260.61 675.41 260.6 675.24 260.57 675.13 260.55 674.98 260.52 674.87 260.5 674.67 260.46 674.53 260.43 674.47 260.42 674.41 260.41 674.34 260.39 674.33 260.39 674.31 260.39 674.29 260.39 674.22 260.39 674.16 260.39 674.15 260.39 674.05 260.39 673.97 260.39 673.92 260.39 673.88 260.39 673.85 260.39 673.82 260.38 673.77 260.37 673.72 260.35 673.65 260.34 673.61 260.33 673.56 260.31 673.51 260.3 673.44 260.27 673.39 260.25 673.33 260.22 673.28 260.2 673.26 260.19 673.17 260.16 673.1 260.14 673.09 260.13 672.99 260.11 672.95 260.1 672.95 260.1 672.9 260.08 672.9 260.08 672.89 260.08 672.85 260.07 672.8 260.06 672.75 260.05 672.71 260.04 672.69 260.04 672.67 260.03 672.64 260.03 672.62 260.03 672.6 260.03 672.56 260.04 672.51 260.04 672.45 260.05 672.4 260.06 672.33 260.07 672.26 260.08 672.19 260.1 672.12 260.11 672.06 260.13 671.96 260.16 671.82 260.2 671.74 260.22 671.69 260.23 671.67 260.23 671.64 260.24 671.63 260.24 671.6 260.24 671.58 260.24 671.56 260.23 671.53 260.23 671.53 260.23 671.51 260.23 671.48 260.21 671.45 260.21 671.44 260.2 671.42 260.2 671.4 260.2 671.39 260.2 671.37 260.2 671.35 260.2 671.33 260.21 671.24 260.23 671.16 260.24 671.14 260.25 671.11 260.25 671.02 260.27 670.96 260.28 670.93 260.28 670.9 260.29 670.81 260.3 670.76 260.31 670.74 260.32 670.72 260.32 670.68 260.34 670.65 260.35 670.58 260.38 670.52 260.4 670.47 260.43 670.4 260.47 670.38 260.49 670.32 260.52 670.25 260.57 670.14 260.64 670.02 260.73 669.92 260.8 669.89 260.82 669.87 260.83 669.85 260.84 669.82 260.85 669.79 260.86 669.75 260.88 669.68 260.92 669.56 260.98 669.51 261.01 669.45 261.05 669.39 261.09 669.36 261.1 669.27 261.16 669.19 261.2 669.14 261.22 669.08 261.25 669.01 261.28 668.98 261.3 668.97 261.3 668.96 261.3 668.94 261.31 668.87 261.32 668.78 261.34 668.7 261.36 668.65 261.37 668.63 261.37 668.61 261.38 668.58 261.38 668.56 261.38 668.52 261.37 668.42 261.36 668.43 261.29 668.46 261.19 668.52 261.05 668.59 260.92 668.63 260.81 668.66 260.71 668.68 260.6 668.69 260.54 668.71 260.41 668.71 260.39 668.71 260.38 668.72 260.35 668.74 260.23 668.75 260.17 668.77 260.06 668.81 259.92 668.84 259.82 668.86 259.73 668.87 259.66 668.88 259.49 668.88 259.42 668.88 259.3 668.88 259.19 668.87 259.1 668.87 259.06 668.88 259.04 668.9 258.97 668.93 258.88 668.95 258.8 668.97 258.74 669.02 258.63 669.05 258.5 669.07 258.43 669.11 258.32 669.14 258.18 669.14 258.16 669.17 258.14 669.25 258.11 669.37 258.03 669.5 257.94 669.57 257.87 669.59 257.83 669.58 257.8 669.56 257.75 669.52 257.69 669.46 257.64 669.39 257.6 669.34 257.56 669.28 257.48 669.22 257.44 669.19 257.4 669.2 257.38 669.23 257.32 669.25 257.3 669.28 257.3 669.31 257.32 669.3 257.29 669.29 257.22 669.25 257.06 669.22 256.97 669.14 256.91 669.06 256.85 669.02 256.82 668.93 256.75 668.85 256.69 668.8 256.64 668.72 256.53 668.66 256.46 668.55 256.38 668.47 256.3 668.32 256.19 668.2 256.09 668.18 256.06 668.18 256.02 668.19 255.92 668.17 255.89 668.04 255.81 667.93 255.76 667.84 255.71 667.77 255.65 667.76 255.62 667.72 255.53 667.71 255.49 667.68 255.43 667.66 255.37 667.62 255.25 667.55 255.11 667.48 254.99 667.39 254.84 667.31 254.73 667.28 254.69 667.22 254.53 667.14 254.32 667.12 254.26 667.09 254.2 666.99 254.05 666.86 253.85 666.81 253.8 666.73 253.71 666.7 253.68 666.68 253.65 666.67 253.61 666.6 253.37 666.54 253.14 666.51 253.05 666.47 252.91 666.45 252.86 666.43 252.83 666.35 252.63 666.32 252.57 666.22 252.36 666.19 252.29 666.18 252.28 666.18 252.27 666.03 251.91 665.96 251.74 665.95 251.72 665.79 251.33 665.77 251.3 665.72 251.17 665.59 251.07 665.55 251.06 665.47 251.02 665.16 250.73 664.77 250.37 664.66 250.27 664.58 250.19 664.54 250.13 664.42 249.93 664.38 249.87 664.3 249.72 664.2 249.55 664.17 249.48 663.92 249.03 663.89 248.98 663.81 248.84 664 248.6 664.09 248.55 664.23 248.49 664.28 248.46 664.4 248.4 664.52 248.36 664.6 248.33 664.7 248.3 664.68 248.25 664.66 248.17 664.67 248.17 664.66 248.13 664.65 248.09 664.65 248.04 664.63 247.98 664.63 247.89 664.62 247.86 664.62 247.83 664.61 247.8 664.6 247.74 664.58 247.68 664.56 247.61 664.54 247.56 664.52 247.5 664.5 247.46 664.49 247.42 664.49 247.38 664.48 247.35 664.47 247.34 664.47 247.32 664.45 247.29 664.44 247.26 664.42 247.17 664.4 247.1 664.38 247.01 664.38 246.94 664.37 246.88 664.37 246.8 664.36 246.7 664.32 246.61 664.34 246.57 664.34 246.52 664.34 246.5 664.36 246.39 664.4 246.2 664.41 246.16 664.41 246.11 664.38 246.03 664.38 246.02 664.37 245.96 664.37 245.94 664.38 245.8 664.38 245.76 664.39 245.69 664.41 245.59 664.45 245.47 664.47 245.38 664.5 245.3 664.55 245.22 664.56 245.19 664.61 245.11 664.67 245.02 664.76 244.94 664.8 244.9 664.89 244.83 665.01 244.69 665.16 244.52 665.24 244.53 665.39 244.55 665.51 244.57 665.75 244.61 666.03 244.65 666.04 244.65 666.24 244.68 666.74 244.65 667.18 244.62 667.61 244.59 668.02 244.56 668.07 244.56 668.12 244.57 668.15 244.58 668.19 244.58 668.22 244.59 668.25 244.59 668.28 244.61 668.31 244.61 668.44 244.65 668.63 244.7 668.67 244.72 668.7 244.73 668.72 244.74 668.75 244.74 668.77 244.74 668.79 244.75 668.8 244.75 668.84 244.75 669.04 244.79 669.23 244.82 669.44 244.85 669.65 244.87 669.87 244.88 670.28 244.92 670.37 244.93 670.7 244.95 671.14 245.02 671.19 245.02 671.26 245.03 671.35 245.05 671.44 245.08 671.52 245.1 671.6 245.12 671.61 245.12 671.62 245.16 671.63 245.2 671.64 245.23 671.64 245.24 671.65 245.26 671.65 245.27 671.65 245.3 671.64 245.33 671.64 245.36 671.61 245.44 671.58 245.52 671.56 245.57 671.5 245.75 671.49 245.79 671.44 245.95 671.42 246.02 671.42 246.03 671.4 246.08 671.4 246.09 671.41 246.11 671.41 246.12 671.42 246.13 671.42 246.14 671.44 246.15 671.45 246.17 671.5 246.22 671.54 246.25 671.56 246.27 671.57 246.28 671.59 246.29 671.6 246.3 671.61 246.31 671.62 246.32 671.63 246.32 671.64 246.34 671.65 246.35 671.66 246.36 671.69 246.4 671.72 246.44 671.78 246.51 671.83 246.57 671.87 246.61 671.9 246.65 671.94 246.7 672.01 246.79 672.06 246.84 672.1 246.9 672.12 246.92 672.13 246.94 672.14 246.95 672.19 247.03 672.25 247.1 672.27 247.13 672.28 247.14 672.28 247.15 672.28 247.16 672.29 247.17 672.29 247.19 672.3 247.2 672.3 247.22 672.3 247.23 672.31 247.24 672.31 247.25 672.32 247.29 672.33 247.34 672.34 247.36 672.34 247.37 672.34 247.38 672.34 247.39 672.34 247.41 672.33 247.45 672.33 247.47 672.33 247.49 672.34 247.51 672.34 247.53 672.34 247.54 672.35 247.58 672.35 247.6 672.36 247.66 672.36 247.68 672.36 247.69 672.35 247.72 672.36 247.74 672.36 247.76 672.36 247.77 672.36 247.8 672.36 247.83 672.37 247.85 672.38 247.87 672.38 247.89 672.38 247.91 672.39 247.92 672.39 247.94 672.4 247.95 672.41 247.98 672.42 248 672.43 248.01 672.44 248.02 672.44 248.03 672.45 248.04 672.48 248.06 672.51 248.08 672.53 248.09 672.55 248.1 672.57 248.12 672.58 248.13 672.59 248.14 672.6 248.16 672.61 248.18 672.62 248.19 672.63 248.21 672.64 248.23 672.65 248.26 672.66 248.29 672.67 248.33 672.68 248.35 672.68 248.37 672.69 248.39 672.7 248.42 672.71 248.45 672.72 248.47 672.74 248.49 672.74 248.51 672.75 248.55 672.76 248.57 672.77 248.6 672.77 248.64 672.78 248.68 672.79 248.71 672.79 248.74 672.79 248.77 672.78 248.82 672.78 248.88 672.77 248.95 672.76 248.99 672.76 249.03 672.76 249.06 672.76 249.1 672.76 249.16 672.74 249.25 672.72 249.35 672.72 249.38 672.71 249.4 672.71 249.42 672.71 249.43 672.71 249.46 672.71 249.47 672.72 249.48 672.72 249.5 672.72 249.51 672.72 249.52 672.73 249.53 672.75 249.58 672.75 249.6 672.76 249.62 672.77 249.65 672.78 249.69 672.79 249.77 672.79 249.78 672.8 249.84 672.81 249.9 672.81 249.91 672.81 249.94 672.81 250.02 672.81 250.05 672.81 250.08 672.81 250.13 672.81 250.16 672.81 250.17 672.82 250.22 672.81 250.26 672.81 250.26 672.81 250.28 672.81 250.29 672.81 250.3 672.81 250.31 672.8 250.33 672.8 250.37 672.8 250.42 672.8 250.44 672.8 250.47 672.79 250.52 672.78 250.56 672.77 250.6 672.75 250.64 672.74 250.67 672.73 250.69 672.73 250.71 672.72 250.73 672.72 250.75 672.72 250.76 672.72 250.78 672.72 250.79 672.72 250.81 672.72 250.82 672.73 250.83 672.73 250.85 672.74 250.87 672.75 250.89 672.76 250.91 672.78 250.93 672.78 250.95 672.79 250.95 672.8 250.99 672.85 251.12 672.88 251.17 672.92 251.28 673 251.48 673.03 251.47 673.04 251.47 673.11 251.43 673.28 251.65 673.31 251.68 673.33 251.71 673.4 251.75 673.41 251.75 673.41 251.76 673.42 251.82 673.42 251.84 673.42 251.85 673.43 251.85 673.43 251.86 673.44 251.88 673.44 251.89 673.45 251.89 673.46 251.9 673.47 251.91 673.48 251.92 673.51 251.94 673.53 251.95 673.78 252.07 673.79 252.07 673.86 252.04 673.87 252.05 673.88 252.05 673.9 252.06 674.02 252.13 674.04 252.14 674.05 252.14 674.12 252.17 674.33 252.23 674.34 252.24 674.35 252.24 674.39 252.29 674.44 252.33 674.45 252.34 674.54 252.44 674.65 252.56 674.66 252.57 674.86 252.77 674.92 252.82 675.11 253.02 675.24 253.14 675.26 253.17 675.28 253.18 675.29 253.19 675.3 253.2 675.33 253.21 675.35 253.23 675.38 253.24 675.44 253.27 675.52 253.29 675.57 253.32 675.61 253.34 675.62 253.34 675.63 253.35 675.72 253.39 675.8 253.44 675.87 253.47 675.88 253.47 675.91 253.49 675.98 253.21 676.01 253.21 676.65 253.22 677.04 253.23 677.17 253.23 677.34 253.23 677.39 253.23 677.4 253.24 677.41 253.24 677.41 253.24 677.42 253.25 677.43 253.26 677.44 253.26 677.51 253.33 677.52 253.34 677.52 253.35 677.53 253.36 677.54 253.4 677.54 253.4 677.59 253.46 677.63 253.47 677.64 253.47 677.65 253.47 677.66 253.47 677.67 253.48 677.68 253.48 677.68 253.49 677.7 253.5 677.76 253.56 677.81 253.6 677.9 253.69 677.91 253.71 677.92 253.72 677.92 253.73 677.92 253.75 677.89 253.85 677.88 253.87 677.88 253.94 677.95 254.01 678 254.05 678.05 254.09 678.08 254.12 678.1 254.14 678.11 254.15 678.12 254.16 678.13 254.16 678.14 254.17 678.15 254.18 678.16 254.18 678.17 254.19 678.18 254.19 678.19 254.2 678.2 254.2 678.21 254.2 678.22 254.2 678.22 254.21 678.23 254.21 678.24 254.21 678.25 254.2 678.26 254.2 678.27 254.2 678.29 254.19 678.3 254.18 678.39 254.14 678.41 254.13 678.43 254.12 678.44 254.11 678.45 254.11 678.45 254.1 678.46 254.09 678.47 254.08 678.48 254.08 678.51 254.04 678.54 254.02 678.56 254 678.68 253.87 678.69 253.87 678.73 253.87 678.77 253.86 678.82 253.95 678.87 253.94 679.34 253.77 679.36 253.76 679.37 253.74 679.71 253.38 679.82 253.27 679.92 253.16 679.94 253.14 680.04 253.03 680.07 253 680.07 253 680.08 252.99 680.1 252.99 680.11 252.98 680.14 252.98 680.17 252.97 680.27 252.94 680.3 252.92 680.32 252.92 680.33 252.91 680.34 252.9 680.35 252.9 680.37 252.88 680.53 252.77 680.66 252.68 680.73 252.63 680.77 252.6 680.81 252.58 680.82 252.57 680.84 252.55 680.85 252.54 680.88 252.52 680.97 252.44 681.15 252.29 681.17 252.27 681.2 252.25 681.31 252.16 681.4 252.08 681.46 252.02 681.64 251.87 681.84 251.69 681.97 251.58 681.98 251.56 682 251.56 682.01 251.56 682.03 251.55 682.04 251.54 682.06 251.53 682.21 251.43 682.26 251.4 682.32 251.36 682.34 251.35 682.36 251.33 682.37 251.33 682.38 251.32 682.39 251.32 682.44 251.3 682.49 251.27 682.56 251.24 682.64 251.18 682.68 251.15 682.72 251.12 682.74 251.12 682.75 251.11 682.76 251.1 682.77 251.09 682.83 251.05 682.92 250.99 682.93 250.99 682.96 250.97 682.98 250.96 683.01 250.94 683.04 250.93 683.06 250.92 683.11 250.89 683.13 250.88 683.16 250.86 683.24 250.79 683.27 250.77 683.27 250.76 683.28 250.76 683.29 250.75 683.3 250.74 683.32 250.71 683.38 250.61 683.39 250.6 683.4 250.59 683.41 250.58 683.47 250.52 683.68 250.38 683.83 250.27 683.84 250.26 683.85 250.25 683.86 250.23 683.88 250.22 683.89 250.21 683.92 250.19 684.06 250.08 684.15 250.01 684.15 250.01 684.18 249.99 684.21 249.97 684.23 249.97 684.25 249.95 684.33 249.92 684.35 249.9 684.38 249.88 684.39 249.88 684.4 249.87 684.41 249.87 684.44 249.87 684.45 249.87 684.47 249.88 Z"/>
</g></svg>