<svg xmlns="http://www.w3.org/2000/svg" version="1.2" baseProfile="tiny" stroke-linecap="round" stroke-linejoin="round" viewBox="453.35 161.53 16.25 30.82"><g xmlns="http://www.w3.org/2000/svg" id="Ezkurra">
<path d="M 458.63 162.32 458.64 162.3 458.65 162.28 458.67 162.26 458.68 162.24 458.69 162.21 458.69 162.19 458.69 162.16 458.7 162.13 458.7 162.09 458.7 162.07 458.68 162.03 458.67 162 458.66 161.97 458.64 161.93 458.62 161.88 458.6 161.83 458.58 161.79 458.56 161.76 458.55 161.73 458.55 161.71 458.55 161.69 458.55 161.67 458.56 161.65 458.57 161.63 458.59 161.62 458.61 161.61 458.64 161.61 458.66 161.6 458.69 161.6 458.71 161.61 458.74 161.62 458.77 161.65 458.8 161.69 458.82 161.71 458.83 161.72 458.85 161.74 458.87 161.75 458.89 161.76 458.92 161.77 458.96 161.78 459.01 161.78 459.04 161.77 459.07 161.76 459.11 161.75 459.16 161.72 459.21 161.69 459.25 161.66 459.3 161.64 459.34 161.61 459.38 161.58 459.41 161.56 459.42 161.55 459.44 161.54 459.46 161.54 459.48 161.54 459.51 161.55 459.57 161.57 459.59 161.58 459.63 161.6 459.67 161.62 459.69 161.64 459.72 161.66 459.75 161.67 459.79 161.69 459.86 161.71 459.93 161.74 460.1 161.8 460.12 161.82 460.16 161.85 460.2 161.88 460.25 161.92 460.27 161.96 460.3 162 460.33 162.05 460.36 162.11 460.38 162.14 460.4 162.15 460.42 162.16 460.44 162.16 460.48 162.14 460.53 162.11 460.57 162.08 460.61 162.05 460.66 162.01 460.69 161.96 460.73 161.93 460.76 161.9 460.78 161.88 460.8 161.87 460.81 161.87 460.83 161.86 460.84 161.86 460.86 161.86 460.88 161.86 460.91 161.89 460.95 161.91 460.99 161.94 461.04 161.98 461.06 162 461.09 162.01 461.14 162.02 461.16 162.02 461.19 162.02 461.21 162.01 461.22 162 461.24 161.97 461.24 161.95 461.24 161.91 461.24 161.83 461.25 161.77 461.26 161.74 461.27 161.71 461.29 161.7 461.31 161.69 461.34 161.68 461.37 161.67 461.41 161.67 461.45 161.67 461.46 161.67 461.47 161.67 461.49 161.67 461.5 161.67 461.51 161.67 461.52 161.67 461.53 161.67 461.54 161.67 461.54 161.68 461.55 161.68 461.56 161.68 461.57 161.69 461.6 161.71 461.65 161.74 461.69 161.76 461.7 161.77 461.71 161.78 461.72 161.78 461.72 161.79 461.73 161.8 461.74 161.81 461.75 161.81 461.75 161.82 461.76 161.83 461.77 161.84 461.77 161.85 461.76 161.93 461.76 161.95 461.76 161.96 461.76 161.97 461.76 161.98 461.76 161.98 461.76 161.99 461.76 162 461.75 162.01 461.75 162.01 461.75 162.03 461.74 162.04 461.74 162.05 461.74 162.06 461.73 162.07 461.73 162.08 461.73 162.09 461.72 162.1 461.72 162.11 461.72 162.11 461.72 162.13 461.72 162.15 461.72 162.16 461.73 162.17 461.74 162.19 461.75 162.2 461.76 162.22 461.77 162.22 461.78 162.24 461.81 162.27 461.9 162.38 461.91 162.39 461.92 162.4 461.92 162.4 461.93 162.41 461.93 162.41 461.95 162.41 461.95 162.41 461.96 162.41 461.97 162.41 461.98 162.41 462 162.4 462.04 162.38 462.09 162.36 462.1 162.35 462.11 162.34 462.12 162.34 462.13 162.33 462.13 162.32 462.13 162.3 462.13 162.3 462.13 162.28 462.13 162.28 462.13 162.27 462.13 162.25 462.13 162.24 462.12 162.2 462.12 162.19 462.12 162.18 462.11 162.15 462.1 162.13 462.1 162.12 462.1 162.1 462.1 162.09 462.1 162.08 462.11 162.07 462.12 162.07 462.13 162.06 462.14 162.06 462.15 162.06 462.16 162.06 462.17 162.07 462.18 162.07 462.19 162.08 462.2 162.09 462.21 162.11 462.25 162.14 462.31 162.22 462.4 162.3 462.41 162.32 462.42 162.33 462.43 162.33 462.43 162.33 462.44 162.33 462.45 162.34 462.46 162.34 462.47 162.34 462.5 162.34 462.56 162.33 462.62 162.32 462.63 162.32 462.64 162.32 462.73 162.32 462.78 162.31 462.8 162.31 462.81 162.31 462.86 162.29 462.9 162.27 462.91 162.27 462.94 162.25 462.96 162.25 463.01 162.23 463.07 162.19 463.12 162.17 463.13 162.17 463.14 162.16 463.16 162.15 463.2 162.14 463.22 162.13 463.26 162.11 463.31 162.09 463.35 162.07 463.43 162.03 463.44 162.02 463.44 162.02 463.45 162.02 463.46 162.02 463.47 162.02 463.48 162.02 463.49 162.02 463.5 162.02 463.5 162.02 463.52 162.03 463.53 162.03 463.54 162.04 463.55 162.05 463.56 162.05 463.57 162.06 463.58 162.08 463.6 162.1 463.62 162.12 463.62 162.13 463.63 162.15 463.64 162.16 463.65 162.17 463.67 162.23 463.69 162.3 463.69 162.3 463.7 162.32 463.7 162.33 463.7 162.34 463.71 162.35 463.72 162.35 463.72 162.36 463.77 162.42 463.79 162.44 463.81 162.46 463.82 162.48 463.84 162.51 463.85 162.53 463.86 162.56 463.85 162.56 463.38 162.74 463.31 162.98 463.2 163.38 463.2 163.4 463.19 163.41 463.16 163.54 463.36 163.73 463.38 163.74 463.51 163.87 463.53 163.88 463.54 163.89 463.54 163.89 463.55 163.9 464.33 164.4 464.27 164.96 464.45 165.3 464.62 165.6 464.64 165.68 464.67 165.82 464.7 166 464.71 166.18 464.83 167.5 464.83 167.51 464.83 167.58 464.82 167.6 464.82 167.63 464.82 167.69 464.79 168.1 464.79 168.11 464.79 168.12 464.78 168.19 464.78 168.21 464.78 168.23 464.78 168.25 464.74 168.55 464.68 168.73 464.68 168.74 464.68 168.76 464.67 168.77 464.67 168.79 464.62 169.05 464.62 169.18 464.62 169.68 464.62 169.69 464.62 169.76 464.33 170.33 464.34 170.41 464.35 170.43 464.35 170.44 464.37 170.61 464.38 170.63 464.42 170.89 464.58 172.01 464.58 172.04 464.58 172.07 464.57 172.08 464.53 172.4 464.48 172.77 464.42 173.24 464.42 173.29 464.39 173.52 464.82 174.46 464.82 174.59 464.82 174.6 464.81 174.62 464.8 174.63 464.8 174.65 464.79 174.67 464.79 174.69 464.79 174.7 464.79 174.72 464.79 174.74 464.8 174.75 464.8 174.76 464.8 174.77 464.81 174.78 464.81 174.79 464.81 174.8 464.81 174.81 464.81 174.82 464.81 174.84 464.81 174.85 464.81 174.86 464.81 174.87 464.81 174.88 464.82 174.89 464.82 174.9 464.82 174.91 464.83 174.92 464.83 174.94 464.84 174.95 464.86 174.97 464.87 174.98 464.87 174.98 464.88 174.99 464.89 175 464.9 175.01 464.91 175.01 464.92 175.02 464.92 175.03 464.93 175.04 464.98 175.18 464.98 175.2 464.98 175.2 464.99 175.21 464.99 175.22 465 175.23 465 175.24 465.01 175.26 465.02 175.27 465.03 175.28 465.04 175.29 465.05 175.3 465.06 175.31 465.12 175.37 465.13 175.39 465.14 175.41 465.15 175.42 465.16 175.43 465.16 175.44 465.17 175.45 465.17 175.46 465.18 175.47 465.18 175.49 465.19 175.5 465.19 175.51 465.2 175.52 465.2 175.54 465.2 175.56 465.2 175.57 465.2 175.57 465.19 175.58 465.18 175.59 465.15 175.59 465.13 175.58 465.12 175.57 465.1 175.57 465.1 175.56 465.08 175.56 465.07 175.56 465.06 175.57 465.05 175.58 465.05 175.59 465.05 175.59 465.05 175.61 465.05 175.62 465.05 175.64 465.05 175.65 465.04 175.66 465.04 175.67 465.04 175.68 465.03 175.7 465.02 175.71 465.01 175.72 464.99 175.75 464.97 175.76 464.93 175.8 464.91 175.82 464.86 175.85 464.83 175.87 464.81 175.89 464.8 175.9 464.79 175.92 464.77 175.93 464.77 175.94 464.76 175.95 464.75 175.96 464.75 175.97 464.74 175.98 464.74 176 464.74 176.02 464.74 176.03 464.74 176.04 464.75 176.05 464.75 176.06 464.75 176.07 464.77 176.08 464.78 176.09 464.8 176.11 464.82 176.11 464.86 176.13 464.94 176.15 464.96 176.15 464.98 176.16 464.99 176.16 465 176.17 465.02 176.17 465.03 176.18 465.04 176.18 465.05 176.19 465.06 176.2 465.07 176.21 465.07 176.22 465.09 176.24 465.1 176.26 465.1 176.27 465.1 176.28 465.11 176.3 465.11 176.31 465.11 176.33 465.11 176.34 465.1 176.36 465.1 176.37 465.09 176.38 465.08 176.39 465.07 176.41 465.06 176.42 465.05 176.43 465.03 176.44 465.02 176.45 465.01 176.46 464.99 176.47 464.99 176.48 464.98 176.49 464.97 176.5 464.96 176.51 464.96 176.52 464.95 176.54 464.95 176.54 464.95 176.56 464.95 176.58 464.95 176.59 464.95 176.62 464.95 176.63 464.96 176.67 464.96 176.68 464.96 176.69 464.96 176.75 464.96 176.78 464.96 176.8 464.97 176.83 464.97 176.85 464.98 176.88 464.99 176.9 465 176.91 465.01 176.93 465.03 176.98 465.05 177.01 465.07 177.02 465.08 177.04 465.1 177.07 465.11 177.08 465.12 177.09 465.12 177.1 465.13 177.11 465.13 177.13 465.13 177.14 465.13 177.18 465.12 177.24 465.12 177.28 465.12 177.29 465.13 177.31 465.13 177.32 465.14 177.33 465.15 177.33 465.17 177.34 465.18 177.35 465.19 177.36 465.2 177.37 465.22 177.41 465.25 177.47 465.27 177.49 465.28 177.51 465.28 177.51 465.29 177.52 465.31 177.53 465.38 177.57 465.41 177.58 465.42 177.59 465.43 177.6 465.44 177.61 465.45 177.63 465.46 177.64 465.47 177.65 465.47 177.67 465.47 177.68 465.48 177.7 465.48 177.72 465.48 177.74 465.47 177.75 465.45 177.8 465.44 177.82 465.44 177.84 465.43 177.85 465.43 177.86 465.43 177.88 465.43 177.89 465.43 177.9 465.43 177.91 465.44 177.93 465.46 177.97 465.46 177.99 465.47 178 465.48 178 465.51 178.03 465.53 178.06 465.54 178.07 465.54 178.08 465.55 178.09 465.55 178.1 465.56 178.11 465.57 178.14 465.58 178.16 465.6 178.23 465.61 178.25 465.61 178.26 465.62 178.28 465.63 178.29 465.64 178.31 465.67 178.34 465.7 178.36 465.77 178.43 465.86 178.48 465.9 178.51 465.91 178.52 465.93 178.53 465.95 178.55 465.97 178.57 465.98 178.59 466 178.61 466.02 178.64 466.04 178.68 466.06 178.71 466.08 178.73 466.09 178.74 466.1 178.75 466.11 178.76 466.13 178.77 466.15 178.78 466.16 178.79 466.18 178.81 466.2 178.82 466.22 178.83 466.24 178.84 466.27 178.85 466.33 178.86 466.38 178.87 466.42 178.88 466.47 178.92 466.51 178.96 466.54 178.98 466.67 179.1 466.68 179.11 466.9 179.3 467.17 179.51 467.26 179.57 467.39 179.63 467.49 179.73 467.81 180.06 468.21 180.47 468.47 180.73 468.54 180.83 468.55 180.85 468.59 180.9 468.6 180.91 468.6 180.92 468.6 180.93 468.6 180.94 468.6 180.96 468.6 180.97 468.57 181.04 468.57 181.05 468.56 181.07 468.56 181.08 468.57 181.1 468.57 181.11 468.57 181.12 468.58 181.13 468.58 181.14 468.59 181.15 468.6 181.16 468.6 181.16 468.61 181.16 468.62 181.17 468.63 181.18 468.64 181.19 468.64 181.2 468.64 181.21 468.65 181.23 468.65 181.24 468.65 181.25 468.65 181.26 468.64 181.3 468.63 181.31 468.63 181.33 468.62 181.34 468.62 181.35 468.62 181.36 468.63 181.4 468.64 181.47 468.64 181.47 468.67 181.56 468.68 181.59 468.7 181.62 468.7 181.63 468.7 181.64 468.7 181.65 468.7 181.69 468.7 181.71 468.7 181.73 468.7 181.74 468.7 181.75 468.7 181.77 468.7 181.78 468.7 181.79 468.7 181.82 468.7 181.84 468.7 181.87 468.7 181.88 468.7 181.9 468.7 181.91 468.7 181.92 468.7 181.93 468.7 181.94 468.71 181.96 468.71 181.97 468.74 182.01 468.76 182.05 468.78 182.11 468.8 182.15 468.83 182.21 468.84 182.24 468.85 182.26 468.86 182.27 468.87 182.29 468.88 182.3 468.88 182.31 468.89 182.32 468.93 182.34 468.98 182.37 468.99 182.37 469.01 182.38 469.01 182.38 469.03 182.39 469.03 182.39 469.04 182.4 469.05 182.4 469.06 182.41 469.07 182.41 469.07 182.42 469.08 182.42 469.09 182.43 469.09 182.44 469.09 182.45 469.09 182.46 469.1 182.48 469.1 182.5 469.09 182.52 469.09 182.54 469.09 182.56 469.08 182.6 469.08 182.61 469.08 182.62 469.08 182.63 469.08 182.64 469.09 182.66 469.09 182.67 469.09 182.69 469.1 182.71 469.11 182.72 469.12 182.74 469.14 182.77 469.15 182.79 469.16 182.8 469.17 182.82 469.18 182.84 469.19 182.86 469.19 182.87 469.19 182.88 469.2 182.9 469.2 182.92 469.2 182.94 469.2 182.95 469.2 182.97 469.19 182.98 469.19 182.99 469.19 183 469.19 183.01 469.2 183.02 469.2 183.03 469.21 183.04 469.21 183.05 469.22 183.06 469.23 183.07 469.24 183.08 469.32 183.15 469.35 183.17 469.48 183.27 469.53 183.32 469.51 183.38 469.49 183.46 469.45 183.58 469.46 183.62 469.46 183.65 469.46 183.67 469.46 183.69 469.46 183.75 469.49 183.93 469.5 183.96 469.5 183.98 469.52 184.1 469.54 184.23 469.54 184.25 469.56 184.45 469.56 184.48 469.56 184.55 469.56 184.56 469.57 184.6 469.58 184.73 469.58 184.82 469.58 184.83 469.58 184.83 469.58 184.84 469.49 184.87 469.44 184.88 469.37 184.89 469.31 184.89 469.28 184.9 469.23 184.9 469.19 184.89 469.15 184.89 469.1 184.88 469.07 184.88 469.01 184.86 468.99 184.85 468.98 184.85 468.96 184.85 468.94 184.85 468.93 184.85 468.92 184.86 468.9 184.86 468.89 184.87 468.87 184.87 468.84 184.89 468.81 184.91 468.78 184.93 468.76 184.96 468.75 184.97 468.74 184.97 468.74 184.98 468.72 184.99 468.72 185 468.71 185 468.71 185.01 468.7 185.02 468.7 185.03 468.7 185.04 468.69 185.05 468.69 185.06 468.7 185.06 468.7 185.07 468.7 185.08 468.71 185.09 468.71 185.1 468.72 185.12 468.76 185.16 468.77 185.18 468.8 185.2 468.83 185.21 468.86 185.22 468.91 185.24 468.93 185.24 468.96 185.26 469.01 185.28 469.03 185.3 469.05 185.32 469.06 185.33 469.08 185.38 469.09 185.4 469.09 185.42 469.1 185.44 469.1 185.46 469.1 185.48 469.1 185.5 469.09 185.53 469.09 185.57 469.08 185.59 469.07 185.61 469.06 185.63 469.05 185.66 469.04 185.68 469.02 185.71 469.01 185.75 469 185.76 468.99 185.78 468.98 185.82 468.97 185.85 468.96 185.88 468.95 185.91 468.94 185.93 468.93 185.95 468.92 185.97 468.92 186 468.91 186.02 468.91 186.03 468.91 186.05 468.9 186.07 468.9 186.08 468.9 186.09 468.9 186.1 468.89 186.11 468.89 186.12 468.9 186.13 468.9 186.13 468.91 186.17 468.92 186.2 468.93 186.24 468.99 186.4 469 186.44 469.01 186.45 469.01 186.46 469.02 186.48 469.03 186.54 469.04 186.56 469.05 186.59 469.05 186.6 469.05 186.61 469.05 186.62 469.08 186.68 469.08 186.7 469.09 186.72 469.09 186.73 469.1 186.74 469.1 186.75 469.1 186.76 469.1 186.78 469.1 186.79 469.1 186.8 469.1 186.81 469.1 186.84 469.09 186.85 469.09 186.88 469.07 186.95 469.06 186.98 469.05 187.01 469.05 187.03 469.05 187.05 469.04 187.07 469.04 187.08 469.04 187.1 469.04 187.12 469.04 187.13 469.04 187.24 469.04 187.26 469.04 187.27 469.03 187.29 469.03 187.31 469.03 187.37 469.02 187.42 468.96 187.96 468.95 187.98 468.95 188.02 468.95 188.06 468.95 188.08 468.95 188.09 468.95 188.1 468.95 188.11 468.95 188.12 468.95 188.13 468.95 188.15 468.96 188.16 468.96 188.17 468.96 188.17 468.97 188.18 468.98 188.19 468.99 188.2 469 188.21 469.01 188.22 469.03 188.22 469.05 188.23 469.06 188.23 469.08 188.24 469.11 188.3 469.13 188.35 469.14 188.37 469.16 188.4 469.17 188.41 469.17 188.42 469.18 188.43 469.19 188.45 469.19 188.46 469.2 188.47 469.21 188.48 469.21 188.49 469.21 188.5 469.22 188.51 469.22 188.52 469.22 188.53 469.22 188.54 469.22 188.55 469.21 188.56 469.21 188.57 469.2 188.58 469.2 188.59 469.19 188.61 469.16 188.63 469.13 188.68 469.11 188.7 469.1 188.71 469.09 188.73 469.07 188.76 469.07 188.77 469.06 188.78 469.05 188.8 469.04 188.82 469.04 188.83 469.03 188.85 469.02 188.87 469.02 188.89 469.02 188.91 469.01 188.92 469.01 188.94 469 188.97 469 188.99 469 189.01 469 189.03 468.99 189.05 468.99 189.07 468.99 189.09 468.98 189.11 468.98 189.12 468.97 189.14 468.97 189.15 468.96 189.16 468.95 189.17 468.94 189.18 468.93 189.2 468.91 189.21 468.87 189.23 468.82 189.27 468.71 189.34 468.69 189.35 468.68 189.36 468.66 189.37 468.66 189.38 468.66 189.39 468.65 189.4 468.65 189.42 468.64 189.43 468.63 189.44 468.63 189.46 468.62 189.48 468.61 189.49 468.61 189.52 468.6 189.54 468.6 189.56 468.59 189.61 468.59 189.64 468.59 189.68 468.58 189.74 468.58 189.79 468.57 189.81 468.57 189.84 468.56 189.87 468.56 189.89 468.56 189.95 468.54 189.97 468.52 190 468.5 190.03 468.46 190.04 468.41 190.05 468.35 190.06 468.26 190.06 468.18 190.06 468.1 190.07 468.01 190.08 467.94 190.09 467.87 190.11 467.82 190.12 467.77 190.14 467.69 190.18 467.6 190.23 467.52 190.27 467.43 190.32 467.33 190.36 467.28 190.39 467.25 190.41 467.23 190.43 467.22 190.46 467.21 190.5 467.19 190.58 467.18 190.62 467.16 190.65 467.13 190.67 467.1 190.67 467.06 190.66 467 190.64 466.95 190.63 466.91 190.63 466.88 190.64 466.83 190.65 466.76 190.67 466.66 190.71 466.59 190.74 466.5 190.76 466.44 190.78 466.38 190.79 466.33 190.79 466.31 190.79 466.29 190.81 466.28 190.83 466.27 190.86 466.25 190.91 466.23 191 466.21 191.07 466.19 191.15 466.17 191.21 466.16 191.25 466.14 191.28 466.12 191.31 466.1 191.34 466.1 191.37 466.1 191.41 466.09 191.48 466.09 191.51 466.07 191.54 466.05 191.56 466.03 191.56 466 191.55 465.98 191.54 465.96 191.51 465.93 191.46 465.91 191.4 465.88 191.35 465.86 191.31 465.84 191.29 465.81 191.28 465.79 191.27 465.76 191.28 465.73 191.28 465.71 191.3 465.69 191.33 465.66 191.37 465.61 191.43 465.57 191.48 465.52 191.52 465.47 191.56 465.45 191.59 465.43 191.62 465.42 191.66 465.41 191.71 465.39 191.76 465.38 191.8 465.36 191.84 465.34 191.87 465.32 191.89 465.28 191.91 465.25 191.93 465.21 191.94 465.17 191.94 465.09 191.94 465.03 191.94 464.98 191.94 464.93 191.94 464.89 191.95 464.85 191.98 464.82 192 464.79 192.03 464.76 192.05 464.73 192.09 464.71 192.13 464.69 192.16 464.66 192.22 464.63 192.27 464.6 192.3 464.58 192.32 464.55 192.33 464.52 192.33 464.49 192.33 464.46 192.31 464.43 192.28 464.4 192.24 464.35 192.19 464.3 192.14 464.25 192.1 464.19 192.05 464.13 192.01 464.09 191.98 464.03 191.96 463.98 191.94 463.92 191.93 463.87 191.92 463.83 191.93 463.77 191.94 463.73 191.94 463.66 191.96 463.58 191.98 463.5 192.01 463.42 192.04 463.35 192.07 463.27 192.11 463.2 192.13 463.2 191.8 463.19 191.49 463.19 191.37 463.18 191.23 463.18 191.09 463.18 190.94 463.17 190.65 463.17 190.49 463.16 190.34 463.11 190.14 462.99 190.16 462.85 190.17 462.77 190.16 462.62 190.13 462.46 190.1 462.29 190.06 462.14 190.03 461.97 190 461.79 189.97 461.56 189.92 461.4 189.81 461.28 189.74 461.18 189.67 461.08 189.6 461.02 189.57 460.9 189.53 460.76 189.47 460.6 189.41 460.45 189.35 460.32 189.29 460.21 189.25 460.12 189.21 460.08 189.18 459.99 189.12 459.9 189.05 459.8 188.99 459.75 188.94 459.7 188.91 459.69 188.91 459.6 188.85 459.49 188.77 459.4 188.71 459.32 188.65 459.23 188.59 459.21 188.57 459.17 188.54 459.16 188.53 459.08 188.52 458.98 188.5 458.87 188.48 458.73 188.46 458.58 188.43 458.44 188.41 458.3 188.38 458.13 188.35 457.99 188.33 457.86 188.3 457.79 188.3 457.64 188.29 457.51 188.27 457.36 188.26 457.24 188.25 457.13 188.25 457.02 188.24 456.89 188.22 456.83 188.21 456.78 188.18 456.67 188.12 456.55 188.05 456.44 187.99 456.33 187.93 456.18 187.85 456.07 187.78 455.95 187.71 455.85 187.67 455.76 187.61 455.64 187.54 455.52 187.47 455.44 187.43 455.33 187.36 455.22 187.3 455.1 187.22 454.98 187.16 454.79 187.02 454.7 186.96 454.62 186.91 454.52 186.84 454.45 186.79 454.35 186.73 454.25 186.66 454.12 186.58 454.02 186.51 453.93 186.45 453.77 186.34 453.66 186.26 453.63 186.24 453.54 186.19 453.48 186.14 453.48 186.12 453.49 185.78 453.5 185.71 453.5 185.66 453.52 185.35 453.52 185.33 453.52 185.32 453.52 185.24 453.52 185.21 453.53 185.01 453.54 184.95 453.6 184.28 453.6 184.27 453.6 184.25 453.59 184.07 453.57 183.79 453.55 183.42 453.55 183.41 453.51 183.18 453.36 182.32 453.39 182.1 453.39 182.08 453.4 182.05 453.4 182.03 453.4 182.01 453.41 181.98 453.43 181.93 453.46 181.84 453.48 181.81 453.49 181.78 453.49 181.75 453.5 181.73 453.5 181.72 453.5 181.69 453.49 181.67 453.47 181.54 453.47 181.53 453.47 181.52 453.46 181.5 453.46 181.49 453.46 181.33 453.45 181.21 453.45 181.18 453.44 181.15 453.43 181.12 453.43 181.09 453.42 181.08 453.42 181.07 453.42 181.05 453.42 181.05 453.42 181.03 453.43 181.02 453.43 181 453.44 180.99 453.47 180.93 453.49 180.9 453.5 180.87 453.51 180.86 453.52 180.85 453.53 180.83 453.55 180.81 453.58 180.77 453.59 180.77 453.59 180.76 453.6 180.75 453.6 180.74 453.6 180.72 453.61 180.7 453.61 180.68 453.61 180.66 453.6 180.59 453.6 180.53 453.6 180.51 453.6 180.48 453.6 180.46 453.6 180.44 453.62 180.33 453.63 180.3 453.63 180.29 453.64 180.27 453.64 180.26 453.65 180.25 453.66 180.24 453.68 180.21 453.69 180.2 453.72 180.18 453.74 180.16 453.79 180.11 453.81 180.08 453.82 180.05 453.83 180.04 453.84 180.03 453.84 180.01 453.85 179.99 453.85 179.97 453.85 179.94 453.85 179.9 453.84 179.81 453.84 179.78 453.84 179.76 453.84 179.74 453.83 179.72 453.84 179.7 453.84 179.68 453.85 179.64 453.86 179.62 453.87 179.6 453.89 179.57 453.9 179.55 453.9 179.52 453.9 179.5 453.9 179.44 453.89 179.41 453.88 179.39 453.88 179.37 453.87 179.34 453.85 179.32 453.84 179.31 453.82 179.28 453.8 179.25 453.79 179.23 453.78 179.21 453.78 179.19 453.78 179.16 453.79 179.13 453.79 179.11 453.8 179.09 453.81 179.08 453.83 179.04 453.85 179.02 453.87 178.98 453.92 178.92 453.95 178.88 453.96 178.86 453.96 178.84 453.97 178.83 453.98 178.8 453.99 178.78 453.99 178.75 453.99 178.73 453.99 178.71 453.99 178.68 453.99 178.68 453.98 178.66 453.97 178.64 453.92 178.59 453.89 178.55 453.89 178.55 453.89 178.54 453.88 178.53 453.88 178.52 453.88 178.51 453.88 178.49 453.89 178.45 453.89 178.39 453.9 178.33 453.9 178.31 453.89 178.3 453.89 178.27 453.89 178.25 453.88 178.21 453.87 178.19 453.87 178.15 453.86 178.12 453.85 178.08 453.85 178.05 453.84 178.02 453.84 177.99 453.83 177.97 453.83 177.93 453.83 177.89 453.83 177.85 453.83 177.82 453.84 177.8 453.84 177.78 453.85 177.77 453.86 177.75 453.87 177.73 453.88 177.72 453.89 177.7 453.9 177.68 453.91 177.67 453.93 177.66 453.96 177.65 453.98 177.64 454.03 177.61 454.05 177.59 454.06 177.58 454.07 177.57 454.08 177.56 454.09 177.55 454.09 177.53 454.1 177.52 454.11 177.48 454.12 177.46 454.13 177.44 454.13 177.43 454.14 177.42 454.15 177.4 454.16 177.39 454.17 177.37 454.19 177.34 454.24 177.28 454.29 177.21 454.32 177.18 454.33 177.17 454.34 177.16 454.35 177.15 454.38 177.12 454.41 177.09 454.46 177.05 454.48 177.02 454.51 176.98 454.54 176.93 454.57 176.89 454.59 176.85 454.61 176.81 454.62 176.77 454.63 176.75 454.64 176.72 454.65 176.67 454.66 176.61 454.68 176.54 454.68 176.51 454.69 176.49 454.7 176.44 454.71 176.42 454.73 176.4 454.74 176.38 454.75 176.35 454.76 176.33 454.77 176.32 454.78 176.3 454.8 176.29 454.82 176.27 454.85 176.24 454.86 176.23 454.87 176.22 454.88 176.21 454.88 176.2 454.89 176.2 454.9 176.19 454.92 176.18 454.93 176.18 455.01 176.15 455.05 176.14 455.07 176.13 455.09 176.13 455.11 176.12 455.12 176.11 455.13 176.1 455.15 176.09 455.17 176.08 455.19 176.06 455.2 176.05 455.22 176.03 455.24 176.02 455.25 176 455.28 175.98 455.29 175.97 455.3 175.95 455.32 175.92 455.33 175.9 455.34 175.87 455.36 175.84 455.37 175.81 455.39 175.73 455.4 175.7 455.41 175.69 455.45 175.59 455.47 175.53 455.49 175.46 455.51 175.4 455.52 175.35 455.53 175.33 455.53 175.29 455.54 175.26 455.54 175.24 455.55 175.22 455.56 175.2 455.58 175.17 455.59 175.15 455.6 175.13 455.61 175.11 455.61 175.1 455.63 175.08 455.65 175.05 455.69 175.01 455.74 174.95 455.78 174.9 455.84 174.83 455.88 174.78 455.94 174.72 455.99 174.65 456.03 174.6 456.06 174.57 456.08 174.53 456.1 174.49 456.11 174.48 456.14 174.43 456.16 174.38 456.18 174.34 456.2 174.31 456.22 174.28 456.23 174.26 456.24 174.24 456.26 174.21 456.27 174.2 456.28 174.19 456.29 174.18 456.3 174.16 456.33 174.15 456.34 174.14 456.35 174.14 456.36 174.13 456.38 174.12 456.4 174.12 456.43 174.11 456.51 174.11 456.54 174.11 456.55 174.1 456.56 174.09 456.58 174.08 456.58 174.07 456.59 174.06 456.6 174.04 456.61 174.02 456.62 173.99 456.62 173.98 456.63 173.95 456.63 173.93 456.64 173.91 456.64 173.88 456.64 173.85 456.64 173.82 456.64 173.78 456.64 173.76 456.63 173.73 456.62 173.7 456.6 173.63 456.59 173.57 456.59 173.54 456.59 173.52 456.59 173.5 456.59 173.49 456.6 173.47 456.61 173.46 456.62 173.45 456.63 173.43 456.69 173.38 456.7 173.37 456.71 173.37 456.71 173.37 456.72 173.36 456.74 173.36 456.75 173.35 456.76 173.35 456.77 173.34 456.78 173.33 456.8 173.31 456.8 173.3 456.81 173.29 456.81 173.28 456.81 173.27 456.81 173.26 456.81 173.25 456.81 173.24 456.81 173.22 456.8 173.13 456.76 172.95 456.74 172.9 456.74 172.87 456.73 172.85 456.73 172.84 456.73 172.82 456.73 172.81 456.73 172.8 456.73 172.79 456.74 172.78 456.74 172.77 456.74 172.76 456.74 172.74 456.75 172.73 456.75 172.73 456.76 172.7 456.77 172.69 456.77 172.68 456.78 172.67 456.78 172.66 456.78 172.65 456.79 172.64 456.79 172.63 456.79 172.63 456.79 172.61 456.79 172.6 456.79 172.59 456.79 172.58 456.79 172.57 456.79 172.55 456.78 172.49 456.76 172.37 456.75 172.35 456.75 172.34 456.75 172.33 456.75 172.31 456.75 172.3 456.75 172.29 456.75 172.28 456.75 172.27 456.75 172.25 456.75 172.24 456.76 172.23 456.76 172.22 456.76 172.2 456.77 172.18 456.77 172.17 456.77 172.16 456.77 172.15 456.77 172.14 456.78 172.14 456.78 172.13 456.79 172.11 456.8 172.1 456.81 172.08 456.82 172.07 456.82 172.06 456.83 172.05 456.83 172.04 456.84 172.02 456.85 172 456.85 171.99 456.85 171.97 456.86 171.94 456.86 171.92 456.86 171.89 456.86 171.88 456.87 171.87 456.88 171.86 456.89 171.85 456.9 171.84 456.93 171.82 456.95 171.8 456.99 171.76 457.01 171.74 457.02 171.74 457.03 171.73 457.04 171.72 457.05 171.7 457.06 171.69 457.06 171.68 457.07 171.66 457.07 171.65 457.07 171.64 457.07 171.64 457.07 171.62 457.08 171.61 457.08 171.6 457.08 171.58 457.09 171.57 457.09 171.56 457.1 171.54 457.11 171.51 457.12 171.47 457.13 171.44 457.14 171.42 457.14 171.41 457.15 171.37 457.15 171.34 457.15 171.33 457.15 171.31 457.15 171.3 457.15 171.28 457.15 171.27 457.14 171.26 457.14 171.25 457.13 171.24 457.13 171.23 457.12 171.22 457.12 171.21 457.11 171.21 457.1 171.2 457.08 171.19 457.07 171.19 457.06 171.17 457.05 171.16 457.04 171.15 457.04 171.14 457.04 171.13 457.03 171.12 457.03 171.09 457.02 171.06 457.02 171.03 457.01 171.02 457.01 170.98 457.01 170.97 457 170.95 457 170.93 457 170.91 457 170.9 457 170.88 457.01 170.87 457.01 170.85 457.01 170.84 457.01 170.82 457.02 170.8 457.02 170.78 457.03 170.76 457.07 170.67 457.1 170.61 457.1 170.59 457.11 170.57 457.11 170.56 457.11 170.56 457.11 170.55 457.11 170.54 457.1 170.51 457.1 170.49 457.09 170.48 457.09 170.47 457.08 170.46 457.07 170.44 457.05 170.42 457.04 170.41 457.03 170.4 457.02 170.39 457.02 170.38 457.01 170.36 457 170.33 456.99 170.27 456.97 170.22 456.95 170.12 456.92 170.02 456.92 169.99 456.91 169.98 456.9 169.96 456.9 169.94 456.87 169.87 456.83 169.77 456.8 169.69 456.78 169.61 456.76 169.52 456.75 169.5 456.75 169.47 456.74 169.45 456.74 169.44 456.74 169.42 456.74 169.41 456.74 169.39 456.74 169.38 456.74 169.35 456.74 169.33 456.74 169.31 456.74 169.3 456.74 169.29 456.74 169.27 456.74 169.26 456.75 169.25 456.75 169.23 456.75 169.22 456.76 169.2 456.77 169.17 456.77 169.14 456.79 169.08 456.79 169.06 456.8 169.03 456.81 168.97 456.82 168.95 456.83 168.94 456.83 168.93 456.84 168.92 456.85 168.91 456.86 168.89 456.87 168.88 456.89 168.87 456.91 168.85 456.93 168.84 456.96 168.82 456.97 168.82 456.99 168.81 457 168.8 457.02 168.79 457.03 168.79 457.04 168.79 457.06 168.79 457.07 168.79 457.09 168.79 457.1 168.79 457.12 168.8 457.14 168.81 457.16 168.81 457.19 168.83 457.23 168.85 457.29 168.88 457.32 168.91 457.36 168.93 457.42 168.98 457.43 168.99 457.45 169.01 457.46 169.02 457.47 169.02 457.49 169.03 457.5 169.04 457.51 169.04 457.53 169.04 457.54 169.03 457.54 169.03 457.55 169.03 457.56 169.02 457.57 169.02 457.58 169.01 457.58 169.01 457.59 168.99 457.59 168.99 457.59 168.97 457.59 168.96 457.59 168.95 457.59 168.94 457.59 168.93 457.59 168.91 457.59 168.9 457.58 168.89 457.58 168.88 457.57 168.87 457.57 168.86 457.56 168.85 457.55 168.83 457.53 168.8 457.5 168.75 457.49 168.73 457.48 168.72 457.48 168.7 457.47 168.69 457.45 168.65 457.45 168.64 457.44 168.62 457.43 168.6 457.43 168.58 457.43 168.57 457.43 168.55 457.43 168.54 457.43 168.53 457.43 168.52 457.43 168.5 457.43 168.49 457.45 168.41 457.45 168.39 457.45 168.38 457.46 168.37 457.46 168.35 457.47 168.33 457.48 168.31 457.5 168.29 457.51 168.28 457.55 168.22 457.59 168.17 457.62 168.15 457.63 168.13 457.64 168.12 457.65 168.11 457.65 168.1 457.66 168.09 457.66 168.08 457.67 168.07 457.67 168.05 457.7 167.97 457.7 167.95 457.7 167.94 457.7 167.93 457.7 167.92 457.7 167.91 457.7 167.9 457.7 167.89 457.69 167.87 457.68 167.87 457.63 167.77 457.54 167.64 457.5 167.59 457.5 167.58 457.49 167.57 457.48 167.56 457.48 167.54 457.48 167.53 457.48 167.52 457.48 167.48 457.48 167.45 457.47 167.44 457.47 167.42 457.47 167.41 457.47 167.38 457.46 167.37 457.46 167.36 457.46 167.35 457.46 167.34 457.46 167.32 457.46 167.29 457.46 167.28 457.47 167.27 457.47 167.27 457.47 167.25 457.48 167.25 457.48 167.24 457.49 167.22 457.5 167.21 457.51 167.2 457.53 167.19 457.62 167.13 457.64 167.11 457.65 167.1 457.66 167.1 457.67 167.09 457.69 167.08 457.7 167.07 457.7 167.06 457.71 167.05 457.72 167.05 457.72 167.03 457.73 167.02 457.74 167.01 457.74 167.01 457.75 167 457.75 166.99 457.76 166.97 457.76 166.96 457.77 166.95 457.77 166.94 457.77 166.93 457.78 166.91 457.78 166.91 457.78 166.9 457.78 166.89 457.78 166.88 457.79 166.87 457.78 166.85 457.78 166.84 457.78 166.82 457.78 166.81 457.77 166.8 457.76 166.75 457.73 166.68 457.72 166.65 457.71 166.63 457.71 166.62 457.7 166.61 457.7 166.6 457.68 166.59 457.67 166.58 457.67 166.57 457.65 166.56 457.62 166.54 457.58 166.51 457.56 166.5 457.55 166.49 457.54 166.48 457.53 166.47 457.52 166.46 457.52 166.45 457.51 166.44 457.5 166.44 457.49 166.44 457.48 166.44 457.47 166.45 457.47 166.44 457.46 166.43 457.46 166.42 457.46 166.41 457.46 166.4 457.46 166.39 457.46 166.38 457.47 166.36 457.48 166.35 457.48 166.33 457.5 166.32 457.51 166.3 457.52 166.29 457.53 166.28 457.54 166.26 457.55 166.25 457.56 166.24 457.57 166.23 457.58 166.22 457.6 166.22 457.62 166.2 457.64 166.19 457.66 166.17 457.67 166.16 457.68 166.15 457.79 166.05 457.82 166.03 457.83 166.02 457.85 166.01 457.87 166 457.89 165.99 457.9 165.99 457.92 165.99 457.93 165.98 457.94 165.98 457.95 165.99 457.96 166 457.98 166 457.99 166.01 458 166.02 458.01 166.03 458.03 166.03 458.03 166.04 458.07 166.05 458.08 166.05 458.09 166.06 458.12 166.06 458.18 166.07 458.21 166.07 458.24 166.06 458.25 166.06 458.26 166.05 458.27 166.04 458.28 166.03 458.29 166.03 458.3 166.02 458.31 166 458.31 165.99 458.32 165.98 458.33 165.95 458.34 165.91 458.36 165.88 458.37 165.85 458.39 165.81 458.41 165.76 458.41 165.74 458.42 165.73 458.42 165.72 458.42 165.7 458.43 165.69 458.43 165.68 458.43 165.66 458.43 165.65 458.43 165.64 458.43 165.63 458.42 165.62 458.42 165.61 458.42 165.6 458.42 165.59 458.41 165.58 458.41 165.57 458.4 165.56 458.4 165.55 458.39 165.54 458.38 165.53 458.38 165.52 458.37 165.51 458.36 165.5 458.34 165.49 458.32 165.46 458.29 165.43 458.18 165.35 458.09 165.28 458.06 165.26 458.05 165.25 458.04 165.24 458.03 165.23 458.02 165.22 458.01 165.21 458 165.2 458 165.19 457.99 165.17 457.99 165.16 457.98 165.15 457.98 165.13 457.98 165.12 457.97 165.11 457.97 165.1 457.96 164.96 457.95 164.94 457.95 164.93 457.95 164.92 457.94 164.91 457.93 164.89 457.87 164.79 457.84 164.73 457.83 164.72 457.83 164.71 457.82 164.7 457.82 164.69 457.82 164.68 457.82 164.67 457.82 164.65 457.82 164.64 457.83 164.63 457.83 164.62 457.83 164.61 457.83 164.6 457.84 164.59 457.84 164.58 457.85 164.57 457.86 164.56 457.87 164.55 457.88 164.55 457.89 164.54 457.9 164.53 457.91 164.52 457.92 164.51 457.92 164.49 457.93 164.47 457.94 164.44 457.94 164.42 457.95 164.41 457.95 164.4 457.95 164.39 457.95 164.38 457.95 164.35 457.94 164.34 457.94 164.32 457.94 164.31 457.94 164.3 457.93 164.29 457.93 164.28 457.92 164.27 457.91 164.27 457.9 164.25 457.89 164.24 457.84 164.21 457.73 164.14 457.71 164.12 457.7 164.11 457.7 164.11 457.69 164.1 457.68 164.09 457.68 164.08 457.68 164.07 457.67 164.06 457.67 164.05 457.67 164.04 457.68 164.03 457.68 164.02 457.68 164.01 457.68 163.98 457.69 163.97 457.69 163.96 457.69 163.95 457.7 163.94 457.71 163.93 457.72 163.92 457.73 163.91 457.74 163.9 457.76 163.89 457.78 163.89 458.08 163.82 458.21 163.8 458.23 163.79 458.24 163.79 458.25 163.77 458.26 163.77 458.27 163.76 458.27 163.75 458.27 163.74 458.28 163.73 458.28 163.73 458.28 163.72 458.28 163.71 458.28 163.7 458.28 163.68 458.27 163.67 458.27 163.66 458.27 163.65 458.26 163.63 458.25 163.61 458.24 163.6 458.23 163.58 458.22 163.56 458.21 163.56 458.2 163.55 458.2 163.54 458.2 163.53 458.19 163.52 458.19 163.51 458.2 163.5 458.2 163.49 458.2 163.48 458.21 163.47 458.22 163.45 458.23 163.43 458.24 163.42 458.25 163.41 458.26 163.39 458.27 163.38 458.28 163.36 458.3 163.34 458.31 163.32 458.33 163.29 458.34 163.27 458.37 163.24 458.47 163.07 458.48 163.05 458.5 163.03 458.52 162.99 458.54 162.97 458.55 162.96 458.56 162.95 458.58 162.93 458.59 162.93 458.6 162.92 458.61 162.9 458.62 162.9 458.63 162.89 458.65 162.87 458.66 162.86 458.68 162.86 458.69 162.85 458.7 162.85 458.71 162.84 458.72 162.84 458.74 162.83 458.75 162.83 458.77 162.82 458.79 162.81 458.83 162.81 458.89 162.81 458.92 162.8 458.93 162.8 458.95 162.8 458.96 162.8 458.98 162.8 459 162.79 459.01 162.79 459.03 162.79 459.04 162.78 459.05 162.77 459.06 162.77 459.06 162.76 459.07 162.75 459.08 162.74 459.08 162.74 459.09 162.73 459.09 162.72 459.09 162.71 459.1 162.7 459.1 162.68 459.1 162.65 459.1 162.61 459.09 162.58 459.09 162.56 459.08 162.55 459.08 162.54 459.07 162.5 459.06 162.48 459.04 162.45 459.03 162.43 459.01 162.41 459 162.39 459 162.38 458.99 162.38 458.98 162.37 458.95 162.34 458.91 162.32 458.89 162.31 458.88 162.31 458.87 162.31 458.85 162.31 458.84 162.31 458.82 162.31 458.79 162.31 458.72 162.32 458.63 162.32 Z"/>
</g></svg>