<svg xmlns="http://www.w3.org/2000/svg" version="1.2" baseProfile="tiny" stroke-linecap="round" stroke-linejoin="round" viewBox="721.25 99.65 16.63 11.05"><g xmlns="http://www.w3.org/2000/svg" id="Ezpeize-Ündüreine">
<path d="M 734.28 99.78 734.31 99.82 734.35 99.88 734.42 99.95 734.48 100.04 734.54 100.11 734.59 100.18 734.62 100.21 734.64 100.22 734.69 100.28 734.74 100.33 734.79 100.39 734.83 100.45 734.84 100.47 734.94 100.58 734.96 100.6 735.04 100.66 735.08 100.68 735.12 100.71 735.15 100.74 735.19 100.78 735.23 100.82 735.27 100.87 735.3 100.92 735.32 100.97 735.35 101.02 735.37 101.07 735.38 101.11 735.82 100.94 736.1 100.63 736.12 100.59 736.56 100.33 737.11 100.14 737.51 100.02 737.54 99.7 737.63 99.68 737.83 100.14 737.87 100.23 737.71 100.45 737.79 100.91 737.72 100.96 737.67 100.98 737.63 101 737.57 101.02 737.53 101.04 737.5 101.06 737.47 101.08 737.39 101.11 737.35 101.12 737.32 101.12 737.26 101.13 737.19 101.14 737.14 101.16 737.1 101.16 737.04 101.17 737 101.17 736.95 101.17 736.91 101.17 736.89 101.16 736.89 101.43 736.94 101.57 736.83 101.61 736.82 101.88 736.84 102.16 736.83 102.32 736.97 102.52 737.11 102.76 737.09 102.79 737.05 102.82 737 102.85 736.97 102.88 736.94 102.91 736.89 102.94 736.83 102.98 736.79 103.02 736.74 103.05 736.69 103.09 736.65 103.11 736.61 103.15 736.4 103.74 736.46 103.73 736.47 103.89 736.45 104 736.45 104.1 736.38 104.14 736.4 104.39 736.23 104.54 736.33 104.75 736.41 104.86 736.35 104.99 736.25 105.12 736.26 105.32 736.4 105.33 736.59 105.32 736.81 105.3 736.89 105.28 736.91 105.44 736.8 105.49 736.3 105.52 736.26 105.72 736.3 105.82 736.43 105.9 736.61 105.94 736.61 106.27 736.65 106.63 736.68 106.66 736.98 106.64 736.98 106.83 736.59 106.82 736.44 106.89 736.45 107.09 736.57 107.1 736.44 107.27 736.47 107.32 736.63 107.42 736.73 107.6 737.06 107.62 737.18 107.7 737.11 108.23 737.2 108.35 737.4 108.41 737.46 108.54 737.55 108.59 737.47 108.7 737.3 108.88 737.18 108.86 737.11 108.81 737.04 108.83 737.07 109.04 736.89 109.04 736.68 108.98 736.31 108.95 736.29 108.93 736.24 108.95 736.21 109.08 736.09 109.09 736.22 110.01 736.26 110.03 736.28 110.04 737.08 110.32 736.96 110.67 736.79 110.57 736.52 110.42 736.25 110.31 736.13 110.3 736.11 110.34 736.08 110.37 735.95 110.43 735.92 110.39 735.89 110.34 735.85 110.28 735.8 110.24 735.76 110.22 735.73 110.2 735.68 110.16 735.61 110.15 735.56 110.15 735.51 110.15 735.44 110.15 735.4 110.15 735.35 110.15 735.31 110.15 735.28 110.16 735.22 110.18 735.18 110.18 735.14 110.16 735.09 110.14 735.05 110.13 735 110.13 734.91 110.13 734.85 110.13 734.31 110.17 733.4 110.05 733.38 110.19 733.22 110.2 733 110.31 732.69 110.5 732.65 110.65 732.59 110.64 732.56 110.64 732.55 110.63 732.54 110.62 732.54 110.6 732.53 110.58 732.36 110.45 732.31 110.42 732.29 110.42 731.96 110.37 732.03 109.97 731.85 109.98 731.85 109.9 731.87 109.38 731.53 109.43 731.37 109.67 731.29 109.68 730.73 109.45 730.28 109.34 729.88 109.36 729.71 109.41 729.69 109.46 729.6 109.66 729.46 109.67 729.37 109.99 728.37 109.92 728.33 109.91 728.17 109.88 728.06 109.84 728 109.83 727.94 109.82 727.9 109.82 727.85 109.83 727.81 109.84 727.77 109.85 727.71 109.87 727.65 109.89 727.59 109.9 727.54 109.9 727.5 109.9 727.46 109.9 727.42 109.91 727.39 109.92 727.34 109.93 727.3 109.95 727.26 109.96 727.2 109.96 727.14 109.97 727.09 109.98 727 109.99 726.89 110.02 726.81 110.04 726.72 110.05 726.67 110.05 726.64 110.05 726.64 110.06 726.63 110.09 726.62 110.11 726.61 110.13 726.58 110.16 726.57 110.19 726.55 110.22 726.53 110.25 726.51 110.27 726.44 110.33 726.37 110.41 726.3 110.49 726.29 110.51 726.28 110.53 726.27 110.55 725.81 110.44 725.82 110.35 725.83 110.08 725.72 110.03 725.59 109.97 725.4 109.87 725.26 109.78 725.2 109.75 725.17 109.74 725.11 109.72 725.06 109.71 725 109.63 724.82 109.93 724.8 109.97 724.76 110.01 724.72 110.04 724.7 110.05 724.31 110.21 724.33 110.04 724.25 109.87 724.19 109.85 724.14 109.91 723.87 110.07 723.59 110.11 723.45 110.1 723.37 109.81 723.68 109.54 723.61 109.31 724.03 109.48 724.26 108.96 724.29 108.52 724.26 108.3 724.06 108.26 724.09 108.06 724.53 108 724.5 107.9 724.02 107.72 723.62 107.48 723.59 107.31 723.8 107.08 723.87 107.06 724.01 106.99 724.08 107.05 724.18 107.16 724.26 107.24 724.3 107.28 724.34 107.31 724.39 107.35 724.45 107.38 724.51 107.41 724.93 107.07 724.8 107.04 724.76 107.03 724.74 107.02 724.72 107.01 724.65 106.93 724.55 106.82 724.48 106.73 724.42 106.67 724.39 106.62 724.37 106.58 724.33 106.47 724.29 106.36 724.27 106.33 724.25 106.3 724.23 106.28 724.17 106.24 723.96 106.11 723.93 105.81 723.83 105.69 723.43 105.74 723.31 105.71 723.08 105.71 722.89 105.79 722.78 105.79 722.6 105.27 722.37 104.81 722.29 104.84 722.23 104.89 722.22 104.89 722.16 104.95 722.15 104.95 722.09 104.99 721.78 104.96 721.7 104.96 721.65 104.98 721.58 105 721.51 105.03 721.37 104.83 721.27 104.69 721.32 104.64 721.33 104.6 721.59 104.43 721.81 104.36 722.11 104.34 722.12 104.33 722.14 104.3 722.16 104.28 722.18 104.24 722.19 104.2 722.2 104.15 722.2 104.1 722.22 104.05 722.24 103.97 722.28 103.85 722.26 103.82 722.25 103.8 722.25 103.77 722.25 103.76 722.26 103.73 722.28 103.7 722.3 103.64 722.31 103.59 722.32 103.52 722.33 103.49 722.36 103.45 722.37 103.41 722.38 103.39 722.38 103.37 722.39 103.35 722.36 103.12 722.44 102.73 722.8 102.83 722.83 102.8 723.55 102.09 723.75 101.95 723.82 101.94 723.98 101.74 724.49 101.58 724.57 101.53 724.69 101.48 724.84 101.41 724.96 101.33 725.1 101.27 725.26 101.1 725.33 101.06 725.45 101.05 725.58 101.09 726.47 101.33 726.76 101.35 727.6 101.33 727.61 101.47 728.07 101.58 728.29 101.69 728.36 101.69 728.56 101.5 728.61 101.53 728.64 101.53 728.68 101.55 728.72 101.56 728.76 101.58 728.81 101.6 728.85 101.62 728.88 101.64 728.9 101.66 728.92 101.68 728.97 101.72 729.03 101.78 729.05 101.79 729.08 101.8 729.17 101.8 729.25 101.8 729.3 101.81 729.38 101.82 729.41 101.82 729.44 101.82 729.49 101.81 729.57 101.78 729.61 101.77 729.64 101.76 729.68 101.75 729.71 101.75 729.75 101.76 729.77 101.76 729.79 101.75 729.84 101.73 729.86 101.71 729.88 101.69 729.91 101.64 729.93 101.63 729.92 101.61 729.92 101.59 729.91 101.56 729.91 101.54 729.93 101.5 729.96 101.48 730 101.48 730.04 101.47 730.07 101.47 730.1 101.48 730.19 101.48 730.26 101.47 730.31 101.47 730.35 101.46 730.38 101.44 730.4 101.42 730.43 101.4 730.47 101.38 730.51 101.36 730.54 101.35 730.57 101.33 730.6 101.31 730.63 101.3 730.67 101.28 730.84 101.32 730.96 101.38 731.05 101.36 731.16 101.21 731.25 100.99 731.43 100.78 731.74 100.62 732.12 100.53 732.3 100.5 732.5 100.4 732.89 100.38 733.27 100.4 733.3 100.29 733.44 100.29 733.48 100.04 733.6 100.03 733.76 100.05 733.88 99.76 733.97 99.78 734.06 99.82 734.28 99.78 Z"/>
</g></svg>