<svg xmlns="http://www.w3.org/2000/svg" version="1.2" baseProfile="tiny" stroke-linecap="round" stroke-linejoin="round" viewBox="559.77 350.47 30.82 39.35"><g xmlns="http://www.w3.org/2000/svg" id="Ezporogi">
<path d="M 565.28 350.97 565.29 350.97 565.32 350.98 565.33 350.98 565.35 350.98 565.37 350.99 565.44 351 565.48 351.01 565.49 351.01 565.51 351.01 565.54 351.02 565.56 351.03 565.84 350.75 565.85 350.73 565.87 350.72 565.88 350.71 565.89 350.69 565.9 350.68 565.91 350.67 565.92 350.65 565.93 350.64 565.95 350.62 565.96 350.61 565.97 350.6 565.97 350.58 566 350.56 566.01 350.55 566.03 350.54 566.03 350.54 566.05 350.53 566.06 350.53 566.08 350.52 566.1 350.52 566.12 350.51 566.13 350.51 566.15 350.5 566.16 350.5 566.18 350.5 566.2 350.49 566.22 350.49 566.23 350.49 566.24 350.49 566.28 350.48 566.3 350.48 566.31 350.48 566.33 350.48 566.35 350.48 566.37 350.48 566.39 350.48 566.4 350.48 566.44 350.49 566.46 350.49 566.48 350.5 566.49 350.51 566.51 350.52 566.52 350.52 566.54 350.53 566.56 350.54 566.57 350.54 566.58 350.55 566.62 350.57 566.65 350.58 566.66 350.59 566.68 350.6 566.69 350.6 566.71 350.61 566.73 350.62 566.74 350.63 566.75 350.63 566.76 350.64 566.82 350.67 566.89 350.7 567.07 350.84 567.15 350.9 567.25 350.96 567.36 351.02 567.47 351.07 567.58 351.13 567.7 351.19 567.8 351.25 567.92 351.32 568 351.37 568.1 351.43 568.15 351.45 568.21 351.48 568.28 351.5 568.37 351.54 568.48 351.6 568.57 351.64 568.67 351.69 568.76 351.74 568.89 351.8 569.01 351.86 569.12 351.91 569.18 351.94 569.25 351.96 569.35 351.98 569.45 352.01 569.55 352.02 569.67 352.03 569.74 352.04 569.83 352.03 569.94 352.03 570.01 352.03 570.08 352.04 570.14 352.06 570.16 352.07 570.18 352.08 570.18 352.08 570.2 352.08 570.23 352.08 570.28 352.08 570.35 352.08 570.45 352.09 570.54 352.09 570.62 352.1 570.71 352.1 570.79 352.1 570.87 352.11 570.95 352.12 571.04 352.13 571.13 352.13 571.26 352.13 571.33 352.13 571.39 352.13 571.47 352.14 571.56 352.16 571.6 352.17 571.62 352.17 571.63 352.17 571.65 352.17 571.66 352.17 571.67 352.16 571.71 352.19 571.76 352.24 571.86 352.31 571.88 352.33 571.89 352.34 571.91 352.35 571.93 352.37 571.96 352.39 571.98 352.4 571.99 352.42 572.03 352.44 572.21 352.58 572.22 352.58 572.23 352.59 572.24 352.6 572.26 352.62 572.3 352.64 572.31 352.65 572.34 352.68 572.37 352.7 572.38 352.71 572.6 352.87 572.72 352.97 572.78 353.01 572.82 353.05 572.85 353.07 572.89 353.1 572.92 353.13 572.98 353.17 573.05 353.24 573.12 353.31 573.2 353.37 573.28 353.44 573.37 353.51 573.46 353.59 573.51 353.63 573.53 353.65 573.55 353.67 573.63 353.77 573.73 353.88 573.77 353.91 574.05 354.18 574.24 354.47 574.39 354.69 574.54 354.87 574.71 355.03 574.7 354.74 574.71 354.52 574.61 354.36 575.29 354.06 575.9 353.89 576 353.62 576.01 353.58 576.02 353.53 576.03 353.47 576.05 353.41 576.06 353.36 576.07 353.32 576.09 353.28 576.12 353.23 576.13 353.22 576.14 353.2 576.14 353.18 576.16 353.15 576.21 353.18 576.23 353.18 576.25 353.19 576.27 353.2 576.36 353.22 576.43 353.25 576.5 353.28 576.58 353.32 576.66 353.36 576.71 353.38 576.73 353.39 576.75 353.4 576.76 353.41 576.78 353.43 576.83 353.48 576.89 353.54 576.95 353.6 577.12 353.76 577.22 353.85 577.43 353.95 577.57 354.01 577.68 354.06 577.8 354.09 577.88 354.12 577.9 354.13 577.97 354.16 577.99 354.17 578.06 354.22 578.09 354.24 578.11 354.25 578.13 354.26 578.15 354.27 578.25 354.32 578.71 354.56 578.87 354.63 578.96 354.66 579.12 354.7 579.54 354.83 579.69 354.86 579.84 354.89 579.89 354.9 579.94 354.92 580.06 355.01 580.16 355.07 580.29 355.13 580.43 355.19 580.53 355.22 580.67 355.25 580.8 355.28 580.97 355.3 581.15 355.34 581.29 355.37 581.42 355.41 581.58 355.47 581.68 355.5 581.81 355.55 581.82 355.55 581.79 355.73 581.77 355.88 581.76 355.89 581.76 355.9 581.75 355.92 581.75 355.93 581.75 355.95 581.75 355.96 581.75 355.98 581.74 355.99 581.74 356.01 581.74 356.03 581.74 356.05 581.74 356.05 581.74 356.07 581.73 356.09 581.73 356.11 581.73 356.12 581.73 356.13 581.72 356.15 581.72 356.17 581.72 356.18 581.72 356.2 581.72 356.22 581.72 356.26 581.72 356.28 581.72 356.31 581.72 356.31 581.72 356.33 581.72 356.37 581.72 356.38 581.72 356.4 581.72 356.41 581.72 356.42 581.72 356.44 581.71 356.46 581.71 356.48 581.71 356.51 581.7 356.53 581.7 356.54 581.7 356.58 581.69 356.6 581.69 356.61 581.69 356.63 581.69 356.65 581.69 356.67 581.69 356.68 581.69 356.7 581.7 356.73 581.7 356.75 581.7 356.77 581.7 356.79 581.7 356.8 581.7 356.81 581.7 356.83 581.7 356.85 581.7 356.88 581.69 356.9 581.69 356.92 581.69 356.94 581.68 356.95 581.67 356.97 581.67 356.99 581.67 357.01 581.67 357.04 581.68 357.06 581.68 357.08 581.68 357.1 581.68 357.11 581.68 357.13 581.68 357.17 581.68 357.2 581.68 357.29 581.68 357.31 581.68 357.33 581.68 357.35 581.68 357.35 581.68 357.37 581.68 357.39 581.69 357.42 581.69 357.44 581.69 357.46 581.69 357.47 581.69 357.48 581.69 357.5 581.69 357.55 581.69 357.57 581.69 357.59 581.69 357.62 581.69 357.63 581.69 357.65 581.7 357.67 581.7 357.69 581.7 357.71 581.7 357.72 581.71 357.78 581.71 357.79 581.72 357.82 581.72 357.85 581.73 357.89 581.72 357.92 581.72 357.94 581.72 357.96 581.72 357.98 581.72 358 581.72 358.01 581.72 358.05 581.72 358.07 581.72 358.08 581.73 358.16 581.73 358.17 581.73 358.21 581.73 358.23 581.73 358.24 581.73 358.26 581.73 358.28 581.73 358.29 581.72 358.33 581.72 358.35 581.72 358.35 581.72 358.37 581.72 358.39 581.72 358.41 581.72 358.42 581.72 358.44 581.72 358.46 581.72 358.48 581.72 358.5 581.72 358.52 581.71 358.52 581.71 358.54 581.71 358.56 581.71 358.58 581.7 358.59 581.7 358.61 581.69 358.63 581.69 358.64 581.68 358.66 581.68 358.68 581.68 358.7 581.67 358.72 581.67 358.73 581.67 358.76 581.66 358.78 581.66 358.8 581.66 358.81 581.65 358.83 581.65 358.85 581.65 358.86 581.64 358.89 581.63 358.92 581.63 358.94 581.62 358.96 581.61 358.98 581.61 358.99 581.61 359.01 581.6 359.02 581.6 359.04 581.59 359.07 581.59 359.1 581.59 359.11 581.58 359.13 581.58 359.15 581.57 359.16 581.57 359.18 581.56 359.2 581.56 359.21 581.56 359.23 581.55 359.25 581.55 359.27 581.55 359.28 581.54 359.31 581.54 359.32 581.53 359.34 581.53 359.36 581.52 359.38 581.52 359.39 581.52 359.41 581.52 359.42 581.52 359.44 581.52 359.45 581.52 359.46 581.52 359.48 581.52 359.5 581.53 359.52 581.53 359.53 581.52 359.55 581.51 359.58 581.51 359.6 581.51 359.62 581.5 359.63 581.5 359.64 581.49 359.66 581.49 359.68 581.49 359.69 581.48 359.71 581.48 359.73 581.48 359.74 581.49 359.76 581.49 359.78 581.49 359.79 581.49 359.82 581.49 359.86 581.49 359.87 581.49 359.9 581.49 359.93 581.49 359.94 581.49 359.96 581.49 359.98 581.49 360 581.49 360.02 581.48 360.03 581.48 360.07 581.47 360.09 581.47 360.12 581.46 360.15 581.45 360.2 581.45 360.2 581.45 360.22 581.44 360.24 581.44 360.25 581.44 360.27 581.44 360.29 581.44 360.3 581.44 360.32 581.44 360.38 581.45 360.43 581.45 360.47 581.45 360.48 581.45 360.5 581.45 360.54 581.45 360.55 581.45 360.57 581.45 360.59 581.45 360.61 581.45 360.63 581.45 360.64 581.45 360.65 581.44 360.67 581.44 360.7 581.44 360.7 581.43 360.73 581.43 360.75 581.42 360.77 581.42 360.78 581.41 360.8 581.4 360.83 581.4 360.85 581.39 360.87 581.39 360.88 581.38 360.9 581.37 360.92 581.36 360.93 581.34 360.96 581.34 360.97 581.33 360.99 581.32 361.01 581.32 361.02 581.31 361.03 581.3 361.05 581.28 361.07 581.27 361.08 581.27 361.09 581.26 361.1 581.24 361.14 581.24 361.16 581.23 361.17 581.23 361.18 581.22 361.2 581.21 361.23 581.2 361.26 581.19 361.27 581.18 361.29 581.17 361.31 581.16 361.32 581.14 361.37 581.12 361.4 581.11 361.41 581.1 361.42 581.1 361.44 581.09 361.45 581.08 361.47 581.07 361.49 581.06 361.51 581.05 361.52 581.04 361.54 581.03 361.55 581.02 361.57 581.01 361.58 581.01 361.59 581 361.61 580.99 361.62 580.97 361.66 580.96 361.68 580.95 361.7 580.94 361.71 580.93 361.74 580.91 361.78 580.91 361.79 580.9 361.81 580.89 361.83 580.89 361.84 580.88 361.86 580.88 361.88 580.88 361.9 580.87 361.92 580.87 361.94 580.87 361.96 580.86 361.98 580.86 361.99 580.85 362.02 580.85 362.04 580.84 362.04 580.84 362.06 580.83 362.08 580.82 362.09 580.82 362.11 580.81 362.13 580.8 362.14 580.79 362.16 580.78 362.17 580.78 362.18 580.77 362.19 580.77 362.21 580.76 362.23 580.75 362.25 580.73 362.28 580.72 362.31 580.71 362.33 580.7 362.34 580.7 362.36 580.69 362.37 580.69 362.39 580.68 362.41 580.67 362.43 580.67 362.45 580.66 362.46 580.66 362.47 580.65 362.49 580.64 362.51 580.62 362.54 580.61 362.55 580.61 362.57 580.6 362.58 580.59 362.6 580.58 362.61 580.56 362.63 580.55 362.64 580.54 362.65 580.54 362.66 580.53 362.67 580.52 362.69 580.51 362.7 580.5 362.72 580.5 362.73 580.49 362.75 580.48 362.77 580.47 362.78 580.47 362.8 580.47 362.81 580.47 362.83 580.47 362.85 580.47 362.86 580.47 362.88 580.46 362.89 580.46 362.9 580.46 362.92 580.46 362.94 580.46 362.95 580.47 362.97 580.47 362.99 580.47 363.01 580.47 363.02 580.48 363.04 580.48 363.06 580.48 363.08 580.48 363.09 580.48 363.11 580.49 363.13 580.48 363.15 580.48 363.19 580.48 363.25 580.47 363.27 580.47 363.29 580.47 363.31 580.47 363.33 580.47 363.34 580.47 363.35 580.46 363.37 580.46 363.39 580.45 363.4 580.45 363.42 580.44 363.43 580.44 363.45 580.42 363.48 580.42 363.49 580.41 363.52 580.4 363.53 580.4 363.55 580.38 363.59 580.38 363.61 580.38 363.63 580.37 363.65 580.37 363.66 580.37 363.68 580.37 363.69 580.37 363.71 580.38 363.75 580.38 363.77 580.38 363.79 580.38 363.8 580.38 363.82 580.39 363.87 580.39 363.89 580.39 363.93 580.39 363.94 580.39 363.96 580.39 363.98 580.4 364 580.4 364.01 580.4 364.03 580.4 364.06 580.4 364.1 580.4 364.2 580.4 364.23 580.4 364.26 580.4 364.28 580.4 364.3 580.4 364.32 580.4 364.34 580.4 364.35 580.4 364.37 580.4 364.38 580.4 364.4 580.39 364.41 580.39 364.43 580.38 364.47 580.38 364.49 580.37 364.51 580.37 364.54 580.36 364.56 580.36 364.57 580.35 364.59 580.35 364.6 580.34 364.62 580.33 364.63 580.33 364.65 580.32 364.67 580.32 364.69 580.32 364.7 580.31 364.71 580.31 364.75 580.3 364.81 580.3 364.83 580.3 364.84 580.29 364.86 580.28 364.93 580.28 364.95 580.27 365.01 580.26 365.02 580.26 365.04 580.26 365.06 580.25 365.07 580.25 365.11 580.23 365.17 580.22 365.24 580.19 365.37 580.18 365.42 580.17 365.44 580.17 365.46 580.16 365.48 580.16 365.52 580.16 365.53 580.15 365.57 580.14 365.62 580.13 365.66 580.13 365.68 580.13 365.69 580.12 365.71 580.12 365.72 580.12 365.74 580.11 365.76 580.1 365.77 580.1 365.78 580.1 365.8 580.09 365.81 580.08 365.83 580.07 365.85 580.06 365.87 580.06 365.88 580.05 365.9 580.04 365.91 580.03 365.93 580.02 365.94 580.02 365.96 580.01 365.97 580 365.98 579.99 366 579.98 366.01 579.97 366.03 579.97 366.04 579.96 366.05 579.95 366.07 579.93 366.1 579.92 366.11 579.91 366.13 579.9 366.14 579.89 366.16 579.88 366.17 579.87 366.18 579.86 366.18 579.85 366.2 579.84 366.21 579.83 366.23 579.83 366.25 579.82 366.27 579.82 366.28 579.82 366.3 579.81 366.31 579.81 366.32 579.81 366.34 579.81 366.36 579.8 366.38 579.8 366.4 579.79 366.42 579.79 366.44 579.79 366.45 579.79 366.47 579.79 366.48 579.8 366.54 579.8 366.57 579.8 366.59 579.8 366.61 579.8 366.63 579.81 366.68 579.81 366.7 579.81 366.72 579.81 366.73 579.81 366.74 579.8 366.76 579.8 366.78 579.8 366.8 579.8 366.81 579.8 366.83 579.8 366.85 579.8 366.87 579.8 366.88 579.81 366.89 579.81 366.91 579.82 366.93 579.82 366.95 579.83 366.97 579.83 367 579.83 367.01 579.84 367.03 579.84 367.05 579.84 367.07 579.84 367.08 579.83 367.1 579.83 367.11 579.83 367.13 579.82 367.15 579.81 367.16 579.81 367.18 579.79 367.24 579.78 367.27 579.77 367.29 579.76 367.31 579.76 367.32 579.75 367.34 579.74 367.37 579.73 367.39 579.72 367.44 579.7 367.46 579.69 367.5 579.69 367.51 579.68 367.53 579.67 367.56 579.66 367.57 579.66 367.59 579.65 367.6 579.64 367.62 579.64 367.63 579.63 367.65 579.62 367.66 579.6 367.71 579.59 367.72 579.58 367.74 579.58 367.75 579.57 367.76 579.56 367.77 579.55 367.79 579.54 367.81 579.52 367.84 579.51 367.86 579.51 367.86 579.5 367.88 579.49 367.9 579.49 367.92 579.48 367.93 579.47 367.95 579.47 367.97 579.47 367.98 579.46 368 579.46 368.01 579.45 368.03 579.45 368.05 579.43 368.12 579.43 368.14 579.42 368.15 579.42 368.18 579.42 368.22 579.42 368.23 579.42 368.25 579.41 368.27 579.41 368.28 579.4 368.3 579.39 368.36 579.39 368.38 579.39 368.4 579.38 368.44 579.38 368.45 579.38 368.46 579.38 368.48 579.38 368.51 579.38 368.53 579.38 368.55 579.38 368.59 579.39 368.63 579.39 368.7 579.39 368.71 579.39 368.73 579.39 368.75 579.4 368.77 579.4 368.78 579.4 368.79 579.4 368.81 579.41 368.83 579.41 368.84 579.43 368.87 579.43 368.89 579.44 368.91 579.44 368.92 579.45 368.94 579.45 368.95 579.46 368.97 579.46 368.98 579.47 368.99 579.48 369.01 579.48 369.03 579.48 369.04 579.49 369.05 579.49 369.07 579.5 369.09 579.5 369.1 579.51 369.11 579.51 369.13 579.52 369.14 579.53 369.16 579.53 369.17 579.54 369.19 579.55 369.2 579.56 369.22 579.56 369.23 579.57 369.24 579.57 369.26 579.57 369.26 579.57 369.28 579.57 369.29 579.57 369.31 579.56 369.33 579.55 369.34 579.55 369.35 579.56 369.37 579.56 369.38 579.57 369.39 579.56 369.4 579.56 369.42 579.55 369.44 579.55 369.45 579.54 369.46 579.53 369.48 579.52 369.5 579.52 369.51 579.5 369.54 579.5 369.56 579.48 369.59 579.47 369.61 579.46 369.64 579.45 369.65 579.44 369.67 579.43 369.69 579.42 369.71 579.41 369.73 579.4 369.73 579.36 369.82 579.33 369.86 579.31 369.91 579.29 369.94 579.28 369.95 579.27 369.97 579.26 369.98 579.28 369.99 579.35 370.03 579.41 370.09 579.43 370.1 579.44 370.11 579.46 370.12 579.47 370.13 579.49 370.14 579.5 370.16 579.52 370.17 579.53 370.18 579.54 370.19 579.56 370.2 579.57 370.21 579.58 370.22 579.6 370.23 579.6 370.24 579.62 370.26 579.63 370.27 579.64 370.28 579.66 370.29 579.68 370.3 579.7 370.32 579.75 370.35 579.76 370.36 579.78 370.37 579.79 370.37 579.81 370.38 579.83 370.39 579.83 370.39 579.85 370.4 579.86 370.41 579.88 370.42 579.9 370.42 579.91 370.43 579.93 370.44 579.94 370.45 579.96 370.45 579.98 370.46 579.99 370.46 580 370.47 580.05 370.48 580.07 370.49 580.09 370.49 580.1 370.5 580.12 370.51 580.13 370.51 580.15 370.52 580.17 370.53 580.18 370.53 580.24 370.56 580.25 370.56 580.27 370.57 580.29 370.58 580.31 370.58 580.34 370.59 580.35 370.6 580.37 370.6 580.39 370.61 580.41 370.61 580.42 370.62 580.43 370.64 580.44 370.66 580.46 370.67 580.47 370.68 580.47 370.69 580.48 370.7 580.5 370.71 580.51 370.73 580.52 370.74 580.53 370.75 580.55 370.76 580.56 370.77 580.59 370.79 580.6 370.8 580.62 370.82 580.64 370.83 580.65 370.84 580.66 370.85 580.67 370.86 580.68 370.87 580.7 370.88 580.71 370.89 580.72 370.9 580.73 370.91 580.75 370.92 580.76 370.94 580.78 370.95 580.79 370.96 580.8 370.98 580.82 370.99 580.84 371.01 580.85 371.02 580.86 371.03 580.87 371.03 580.89 371.05 580.92 371.07 580.97 371.1 580.97 371.14 580.97 371.15 580.98 371.17 580.98 371.21 580.98 371.22 580.98 371.24 580.98 371.26 580.98 371.28 580.98 371.29 580.98 371.31 580.99 371.32 580.99 371.34 580.99 371.35 581.03 371.36 581.05 371.36 581.06 371.36 581.08 371.36 581.1 371.37 581.12 371.37 581.14 371.37 581.15 371.38 581.17 371.38 581.18 371.39 581.2 371.39 581.22 371.4 581.24 371.4 581.25 371.4 581.27 371.41 581.29 371.41 581.31 371.42 581.33 371.42 581.35 371.42 581.37 371.43 581.38 371.43 581.4 371.44 581.42 371.44 581.44 371.44 581.48 371.45 581.5 371.46 581.51 371.46 581.53 371.47 581.55 371.47 581.56 371.47 581.58 371.48 581.6 371.48 581.61 371.48 581.62 371.49 581.64 371.49 581.65 371.49 581.68 371.5 581.71 371.5 581.72 371.51 581.74 371.51 581.76 371.52 581.77 371.52 581.79 371.52 581.81 371.52 581.82 371.51 581.84 371.51 581.86 371.52 581.87 371.52 581.89 371.52 581.91 371.53 581.94 371.54 581.96 371.55 581.97 371.56 581.99 371.57 582 371.57 582.01 371.58 582.02 371.59 582.04 371.6 582.05 371.6 582.06 371.6 582.07 371.6 582.09 371.6 582.1 371.6 582.12 371.6 582.15 371.6 582.17 371.6 582.18 371.6 582.2 371.6 582.22 371.6 582.23 371.6 582.25 371.61 582.27 371.61 582.28 371.61 582.29 371.62 582.31 371.62 582.32 371.63 582.34 371.64 582.35 371.64 582.36 371.65 582.38 371.66 582.4 371.66 582.4 371.67 582.44 371.68 582.46 371.69 582.47 371.7 582.5 371.71 582.53 371.71 582.58 371.73 582.6 371.73 582.62 371.73 582.64 371.74 582.65 371.74 582.66 371.74 582.68 371.74 582.7 371.75 582.72 371.75 582.73 371.75 582.75 371.75 582.77 371.75 582.79 371.75 582.8 371.75 582.82 371.75 582.84 371.76 582.86 371.77 582.87 371.77 582.89 371.78 582.91 371.78 582.93 371.79 582.94 371.8 582.96 371.81 582.98 371.81 582.99 371.82 583.01 371.83 583.01 371.83 583.02 371.84 583.03 371.84 583.08 371.87 583.1 371.88 583.11 371.89 583.13 371.89 583.14 371.9 583.16 371.91 583.18 371.92 583.19 371.93 583.2 371.94 583.22 371.95 583.24 371.96 583.26 371.97 583.27 371.97 583.29 371.98 583.3 371.98 583.32 371.98 583.35 371.99 583.38 371.99 583.4 371.99 583.42 371.99 583.43 371.99 583.47 371.99 583.49 371.99 583.5 371.99 583.52 371.99 583.53 371.99 583.55 371.99 583.57 371.99 583.59 371.99 583.61 371.99 583.61 371.99 583.63 371.99 583.65 371.99 583.66 371.99 583.68 371.99 583.7 372 583.71 372 583.73 372 583.74 372.01 583.76 372.02 583.78 372.02 583.8 372.02 583.81 372.02 583.84 372.03 583.86 372.03 583.87 372.04 583.9 372.04 583.92 372.05 583.92 372.06 583.96 372.07 583.97 372.07 583.99 372.08 584 372.08 584.03 372.09 584.04 372.1 584.06 372.11 584.08 372.11 584.08 372.11 584.1 372.11 584.12 372.11 584.14 372.11 584.16 372.11 584.18 372.11 584.2 372.11 584.21 372.12 584.23 372.12 584.24 372.13 584.25 372.14 584.25 372.14 584.26 372.15 584.28 372.16 584.29 372.17 584.31 372.17 584.32 372.18 584.33 372.19 584.34 372.19 584.35 372.2 584.37 372.21 584.38 372.22 584.39 372.23 584.41 372.24 584.42 372.25 584.43 372.26 584.45 372.27 584.46 372.29 584.47 372.3 584.48 372.31 584.49 372.32 584.5 372.33 584.51 372.35 584.52 372.36 584.53 372.39 584.54 372.4 584.55 372.42 584.56 372.43 584.58 372.44 584.59 372.45 584.61 372.46 584.62 372.47 584.64 372.48 584.65 372.49 584.66 372.5 584.67 372.51 584.68 372.52 584.69 372.53 584.7 372.54 584.71 372.55 584.72 372.57 584.73 372.58 584.74 372.6 584.75 372.62 584.75 372.63 584.76 372.65 584.77 372.66 584.78 372.67 584.8 372.69 584.81 372.7 584.83 372.7 584.84 372.71 584.86 372.72 584.87 372.73 584.88 372.74 584.9 372.75 584.91 372.76 584.92 372.76 584.94 372.77 584.95 372.78 584.97 372.78 584.99 372.79 585 372.8 585.02 372.8 585.04 372.8 585.05 372.8 585.06 372.81 585.08 372.82 585.09 372.82 585.1 372.83 585.12 372.84 585.13 372.84 585.14 372.85 585.16 372.86 585.17 372.87 585.19 372.88 585.2 372.9 585.21 372.91 585.22 372.92 585.23 372.94 585.24 372.95 585.24 372.97 585.25 372.97 585.25 372.99 585.26 373 585.25 373.04 585.25 373.06 585.25 373.1 585.25 373.12 585.25 373.16 585.25 373.2 585.25 373.24 585.25 373.27 585.25 373.31 585.26 373.34 585.26 373.36 585.26 373.39 585.26 373.42 585.26 373.44 585.26 373.47 585.27 373.49 585.28 373.52 585.28 373.55 585.29 373.59 585.29 373.63 585.29 373.65 585.28 373.67 585.29 373.69 585.29 373.72 585.29 373.76 585.29 373.79 585.29 373.82 585.28 373.86 585.28 373.88 585.28 373.91 585.27 373.92 585.27 373.94 585.26 373.96 585.25 373.98 585.24 374 585.24 374 585.24 374.01 585.24 374.03 585.24 374.04 585.24 374.05 585.25 374.07 585.25 374.08 585.25 374.12 585.26 374.15 585.27 374.17 585.28 374.2 585.29 374.22 585.32 374.26 585.36 374.31 585.39 374.33 585.41 374.35 585.44 374.37 585.47 374.4 585.52 374.43 585.55 374.44 585.6 374.46 585.65 374.47 585.7 374.5 585.76 374.51 585.78 374.51 585.83 374.52 585.91 374.55 585.96 374.56 586.02 374.58 586.03 374.6 586.05 374.62 586.06 374.65 586.09 374.67 586.14 374.73 586.17 374.75 586.21 374.77 586.26 374.79 586.29 374.8 586.31 374.79 586.34 374.79 586.36 374.78 586.38 374.76 586.4 374.76 586.43 374.75 586.47 374.75 586.5 374.76 586.56 374.77 586.62 374.81 586.66 374.83 586.71 374.87 586.75 374.9 586.79 374.93 586.84 374.99 586.88 375.04 586.93 375.11 586.97 375.18 587 375.24 587.02 375.26 587.04 375.3 587.07 375.34 587.1 375.38 587.14 375.43 587.15 375.46 587.19 375.53 587.21 375.55 587.23 375.58 587.25 375.62 587.28 375.67 587.32 375.72 587.36 375.77 587.39 375.82 587.43 375.87 587.47 375.92 587.49 375.94 587.49 375.95 587.5 375.96 587.5 375.97 587.5 376.01 587.5 376.02 587.5 376.04 587.49 376.04 587.49 376.05 587.48 376.08 587.47 376.09 587.46 376.1 587.45 376.12 587.44 376.16 587.42 376.2 587.4 376.23 587.38 376.27 587.35 376.29 587.34 376.3 587.33 376.31 587.32 376.32 587.32 376.33 587.31 376.35 587.31 376.37 587.31 376.4 587.31 376.44 587.31 376.51 587.31 376.55 587.32 376.61 587.32 376.64 587.32 376.7 587.31 376.72 587.31 376.74 587.32 376.77 587.32 376.79 587.32 376.8 587.32 376.86 587.33 376.9 587.33 376.91 587.33 376.93 587.34 376.96 587.34 377 587.34 377.01 587.34 377.03 587.34 377.05 587.34 377.08 587.34 377.1 587.34 377.13 587.33 377.16 587.33 377.17 587.33 377.18 587.32 377.24 587.31 377.27 587.3 377.29 587.3 377.31 587.29 377.34 587.28 377.38 587.26 377.42 587.25 377.45 587.23 377.49 587.22 377.53 587.2 377.57 587.18 377.61 587.16 377.65 587.14 377.68 587.14 377.69 587.13 377.71 587.12 377.75 587.11 377.77 587.11 377.79 587.09 377.85 587 378.1 587.04 378.11 587.04 378.13 587.03 378.16 586.94 378.34 586.91 378.4 586.82 378.61 586.82 378.61 586.77 378.71 586.77 378.72 586.77 378.73 586.74 378.73 586.66 378.74 586.58 378.76 586.51 378.79 586.42 378.83 586.35 378.86 586.21 378.91 586.2 378.91 586.16 379.01 586.11 379.13 586.05 379.3 586.04 379.31 585.82 379.78 585.7 380.12 585.68 380.17 585.67 380.22 585.65 380.26 585.58 380.5 585.58 380.52 585.57 380.54 585.56 380.59 585.55 380.66 585.55 380.71 585.56 380.73 585.56 380.79 585.58 380.93 585.58 381.06 585.58 381.19 585.67 381.19 585.78 381.19 585.92 381.17 586.03 381.14 586.13 381.11 586.19 381.09 586.23 381.08 586.43 381.2 586.63 381.31 586.72 381.37 586.75 381.38 586.84 381.42 586.93 381.46 587.26 381.64 587.27 381.69 587.28 381.71 587.36 382.06 587.41 382.25 587.41 382.27 587.46 382.38 587.65 382.95 587.66 382.97 587.68 383.02 587.76 383.14 587.77 383.17 587.8 383.19 587.84 383.21 587.88 383.24 587.91 383.28 587.92 383.31 587.93 383.34 587.94 383.39 587.95 383.43 587.96 383.47 587.96 383.48 587.97 383.56 587.98 383.61 587.99 383.66 587.99 383.72 587.98 383.76 587.97 383.82 587.96 383.84 588.02 384.06 588.04 384.16 588.11 384.27 588.18 384.38 588.25 384.47 588.32 384.54 588.39 384.62 588.42 384.69 588.44 384.76 588.45 384.82 588.46 384.88 588.47 384.94 588.49 384.98 588.55 385.06 588.58 385.09 588.61 385.11 588.69 385.2 588.79 385.28 588.92 385.42 588.93 385.43 588.97 385.48 589 385.5 589.02 385.53 589.05 385.6 589.09 385.66 589.14 385.71 589.18 385.77 589.21 385.83 589.23 385.88 589.26 385.94 589.28 385.99 589.3 386.02 589.37 386.08 589.37 386.1 589.37 386.12 589.36 386.17 589.36 386.19 589.37 386.21 589.4 386.26 589.42 386.28 589.45 386.32 589.49 386.39 589.52 386.46 589.59 386.58 589.64 386.65 589.68 386.71 589.72 386.77 589.76 386.83 589.8 386.89 589.82 386.94 589.84 387.01 589.87 387.07 589.9 387.14 589.91 387.18 589.93 387.24 589.95 387.32 589.97 387.39 590 387.47 590.02 387.55 590.05 387.62 590.07 387.69 590.09 387.75 590.11 387.83 590.13 387.89 590.15 387.96 590.17 388.02 590.19 388.08 590.22 388.15 590.25 388.24 590.28 388.31 590.32 388.4 590.35 388.47 590.39 388.55 590.43 388.64 590.49 388.74 590.52 388.82 590.54 388.87 590.56 388.91 590.57 388.93 590.57 388.96 590.55 388.95 590.54 388.96 590.44 389.06 590.31 389.18 590.17 389.32 590.15 389.34 590.13 389.35 590.01 389.43 589.93 389.48 589.92 389.49 589.86 389.53 589.82 389.56 589.79 389.57 589.68 389.62 589.61 389.66 589.53 389.69 589.52 389.7 589.45 389.72 589.41 389.73 589.15 389.76 588.94 389.77 588.91 389.78 588.89 389.79 588.87 389.79 588.86 389.79 588.85 389.79 588.83 389.8 588.8 389.8 588.78 389.8 588.68 389.79 588.55 389.78 588.53 389.77 588.39 389.76 588.34 389.76 588.32 389.76 588.3 389.77 588.23 389.78 588.13 389.79 588.02 389.8 587.93 389.79 587.58 389.79 587.55 389.79 587.47 389.79 587.44 389.79 587.41 389.79 587.4 389.79 587.38 389.79 586.87 389.77 586.85 389.78 586.84 389.78 586.83 389.78 586.81 389.78 586.78 389.79 586.76 389.79 586.72 389.78 586.43 389.75 586.34 389.74 586.32 389.73 586.28 389.73 586.24 389.73 586.2 389.73 586.16 389.74 586.11 389.75 586.05 389.75 586.01 389.75 585.98 389.75 585.96 389.75 585.95 389.75 585.93 389.75 585.84 389.75 585.79 389.75 585.72 389.74 585.69 389.73 585.67 389.73 585.65 389.73 585.6 389.71 585.53 389.69 585.48 389.67 585.46 389.66 585.44 389.65 585.42 389.63 585.39 389.61 585.37 389.6 585.36 389.6 585.34 389.6 585.32 389.6 585.31 389.6 585.29 389.6 585.05 389.68 584.87 389.66 584.8 389.65 584.41 389.6 584.32 389.59 584.3 389.58 584.13 389.56 584.11 389.56 584.1 389.56 583.34 389.46 583.32 389.46 583.22 389.44 583.13 389.44 582.98 389.43 582.86 389.42 582.78 389.42 582.74 389.42 582.74 389.42 582.69 389.42 582.66 389.42 582.62 389.42 582.58 389.41 582.56 389.41 582.47 389.4 582.41 389.39 582.38 389.39 582.35 389.39 582.3 389.39 581.67 389.41 581.52 389.42 581.5 389.42 581.48 389.42 581.47 389.41 581.44 389.41 581.29 389.38 581.22 389.38 581.18 389.38 581.04 389.38 580.93 389.38 580.76 389.38 580.61 389.38 580.56 389.38 580.56 389.37 580.55 389.32 580.54 389.27 580.54 389.23 580.54 389.22 580.54 389.21 580.54 389.19 580.5 388.99 580.49 388.91 580.48 388.87 580.47 388.84 580.46 388.77 580.45 388.74 580.44 388.71 580.44 388.69 580.43 388.66 580.43 388.63 580.42 388.61 580.41 388.56 580.4 388.53 580.4 388.5 580.4 388.48 580.4 388.45 580.39 388.43 580.39 388.39 580.38 388.36 580.38 388.32 580.37 388.27 580.37 388.24 580.36 388.19 580.36 388.15 580.36 388.09 580.35 388.03 580.35 387.98 580.35 387.9 580.35 387.87 580.35 387.84 580.36 387.81 580.36 387.78 580.36 387.75 580.36 387.72 580.36 387.68 580.35 387.65 580.35 387.63 580.35 387.61 580.35 387.57 580.35 387.54 580.34 387.49 580.34 387.44 580.34 387.39 580.33 387.33 580.32 387.27 580.32 387.21 580.31 387.16 580.31 387.14 580.3 387.12 580.29 387.1 580.28 387.09 580.27 387.08 580.27 387.07 580.26 387.06 580.26 387.05 580.25 387.04 580.24 387.02 580.22 386.98 580.22 386.97 580.23 386.97 580.25 386.94 580.27 386.91 580.28 386.87 580.28 386.84 580.28 386.82 580.28 386.81 580.27 386.79 580.27 386.78 580.25 386.74 580.24 386.73 580.23 386.71 580.24 386.6 580.24 386.53 580.24 386.47 580.23 386.4 580.23 386.38 580.23 386.36 580.22 386.33 580.21 386.29 580.2 386.23 580.19 386.17 580.18 386.15 580.14 385.87 580.11 385.69 580.09 385.54 580.08 385.46 580.07 385.45 580.07 385.44 580.07 385.43 580.02 385.09 580 384.95 579.98 384.75 579.98 384.72 579.98 384.68 579.98 384.66 579.98 384.64 579.99 384.6 580.01 384.57 580.02 384.55 580.03 384.52 580.03 384.5 580.03 384.48 580.04 384.44 580.05 384.4 580.06 384.38 580.06 384.36 580.06 384.3 580.06 384.26 580.04 384.15 580.02 384.06 580.01 383.97 580.01 383.81 580.01 383.79 579.99 383.61 579.99 383.54 580 383.52 580.02 383.39 580.02 383.33 580.03 383.27 580.03 383.24 580.03 383.17 580.03 383.11 580.05 383.06 580.06 383.03 580.07 382.99 580.08 382.93 580.09 382.87 580.1 382.85 580.1 382.85 580.14 382.7 580.13 382.62 580.13 382.59 580.13 382.58 580.14 382.54 580.15 382.44 580.15 382.42 580.16 382.39 580.17 382.32 580.18 382.25 580.19 382.17 580.18 382.01 580.17 381.96 580.17 381.92 580.16 381.9 580.16 381.88 580.15 381.79 580.15 381.78 580.16 381.7 580.15 381.65 580.15 381.55 580.15 381.51 580.15 381.49 580.15 381.44 580.14 381.4 580.14 381.39 580.1 381.3 580.08 381.19 580.06 381.13 580.06 381.1 580.06 381.06 580.06 381.01 580.03 380.96 580.01 380.88 579.99 380.82 579.99 380.77 579.98 380.74 579.98 380.71 579.99 380.67 579.99 380.66 579.99 380.65 579.99 380.57 579.99 380.5 579.98 380.46 579.96 380.4 579.96 380.3 579.94 380.2 579.94 380.19 579.93 380.16 579.92 380.08 579.91 380.05 579.89 379.98 579.86 379.88 579.86 379.86 579.86 379.82 579.85 379.78 579.81 379.69 579.98 379.19 579.8 379.11 579.68 379.07 579.58 379.04 579.54 379.02 579.51 379.01 579.5 379.01 579.46 378.99 579.43 378.98 579.39 378.95 579.36 378.93 579.34 378.92 579.31 378.91 579.28 378.9 579.21 378.89 579.16 378.89 579.12 378.87 579.06 378.85 579.01 378.83 578.97 378.81 578.95 378.81 578.91 378.8 578.84 378.79 578.8 378.79 578.74 378.78 578.68 378.76 578.62 378.74 578.61 378.74 578.54 378.7 578.49 378.67 578.46 378.65 578.42 378.62 578.39 378.61 578.37 378.6 578.33 378.61 578.31 378.61 577.99 378.71 577.93 378.73 577.89 378.73 577.85 378.73 577.81 378.73 577.77 378.71 577.71 378.69 577.68 378.67 577.64 378.65 577.58 378.62 577.53 378.61 577.47 378.6 577.41 378.6 577.35 378.58 577.29 378.56 577.22 378.53 577.16 378.52 577.1 378.5 577.05 378.48 577 378.46 576.97 378.44 576.96 378.43 576.94 378.43 576.78 378.35 576.75 378.33 576.72 378.33 576.7 378.33 576.63 378.35 576.56 378.38 576.44 378.4 576.32 378.41 576.21 378.41 576.09 378.39 575.96 378.36 575.86 378.31 575.71 378.22 575.63 378.15 575.56 378.06 575.54 378.01 575.47 377.91 575.36 377.88 575.26 377.86 575.13 377.86 575.04 377.86 574.89 377.76 574.77 377.61 574.93 377.22 574.94 377.2 574.88 377.15 574.54 376.86 574.46 376.77 574.18 376.45 574.04 376.42 573.81 376.38 572.99 375.99 572.53 376.07 572.28 376.13 572.28 376.13 572.27 376.13 572.25 376.13 572.04 376.17 571.97 376.16 571.91 376.15 571.83 376.14 571.78 376.13 571.75 376.12 571.68 376.11 571.62 376.1 571.57 376.08 571.53 376.06 571.51 376.04 571.49 376.01 571.49 376 571.47 375.96 571.45 375.93 571.43 375.91 571.4 375.87 571.39 375.85 571.37 375.83 571.36 375.81 571.34 375.78 571.33 375.76 571.31 375.73 571.29 375.69 571.27 375.65 571.25 375.6 571.25 375.55 571.24 375.5 571.24 375.44 571.23 375.38 571.19 375.36 571.11 375.29 571.03 375.23 570.94 375.16 570.86 375.08 570.85 375.06 570.83 375.03 570.82 375.02 570.78 374.95 570.75 374.91 570.73 374.88 570.7 374.86 570.64 374.81 570.58 374.77 570.5 374.71 570.48 374.69 570.47 374.68 570.44 374.66 570.39 374.63 570.34 374.6 570.28 374.56 570.23 374.53 570.2 374.5 570.17 374.47 570.14 374.42 570.12 374.44 570.1 374.45 570.08 374.47 570.03 374.48 570.02 374.48 569.97 374.49 569.92 374.5 569.88 374.5 569.81 374.5 569.75 374.5 569.68 374.5 569.61 374.51 569.54 374.51 569.48 374.52 569.41 374.52 569.38 374.53 569.35 374.53 569.25 374.53 569.15 374.53 569.07 374.53 568.97 374.54 568.92 374.54 568.89 374.54 568.81 374.55 568.75 374.54 568.68 374.53 568.6 374.51 568.54 374.5 568.48 374.49 568.4 374.49 568.32 374.48 568.25 374.47 568.2 374.47 568.12 374.47 568.06 374.45 568.01 374.44 567.95 374.43 567.87 374.4 567.81 374.37 567.72 374.34 567.65 374.32 567.56 374.28 567.5 374.24 567.48 374.23 567.46 374.22 567.43 374.19 567.4 374.17 567.37 374.14 567.34 374.13 567.32 374.11 567.29 374.1 567.25 374.1 567.21 374.09 567.16 374.09 567.1 374.08 567.04 374.07 566.99 374.06 566.94 374.04 566.89 374.04 566.82 374.01 566.75 373.99 566.73 373.98 566.69 373.95 566.61 373.9 566.55 373.87 566.48 373.83 566.4 373.78 566.32 373.73 566.25 373.68 566.2 373.65 566.17 373.62 566.14 373.61 566.06 373.58 566 373.56 565.94 373.54 565.89 373.52 565.79 373.48 565.73 373.46 565.67 373.42 565.63 373.4 565.56 373.37 565.5 373.35 565.45 373.32 565.43 373.31 565.4 373.3 565.38 373.29 565.36 373.29 565.33 373.3 565.3 373.3 565.29 373.3 565.25 373.3 565.06 373.31 564.72 373.33 564.5 373.35 564.48 373.35 564.46 373.35 564.38 373.36 564.34 373.36 564.28 373.35 564.19 373.34 564.12 373.34 564.05 373.34 563.99 373.34 563.9 373.33 563.86 373.33 563.78 373.31 563.74 373.3 563.71 373.29 563.66 373.28 563.63 373.28 563.58 373.27 563.54 373.27 563.49 373.28 563.42 373.29 563.38 373.29 563.34 373.31 563.32 373.32 563.31 373.33 563.3 373.33 563.28 373.32 563.25 373.31 563.21 373.3 563.16 373.31 563.07 373.32 563.01 373.33 562.95 373.33 562.88 373.34 562.82 373.35 562.77 373.36 562.67 373.36 562.6 373.37 562.56 373.37 562.53 373.38 562.48 373.39 562.4 373.4 562.33 373.41 562.27 373.42 562.22 373.43 562.18 373.43 562.14 373.44 562.07 373.26 562.04 373.26 561.87 373.28 561.77 373.3 561.7 373.32 561.61 373.35 561.53 373.37 561.4 373.37 561.33 373.37 561.25 373.36 561.18 373.36 561.1 373.35 561.02 373.32 560.94 373.28 560.89 373.25 560.84 373.21 560.79 373.17 560.75 373.12 560.73 373.07 560.7 373.01 560.68 372.98 560.66 372.96 560.65 372.95 560.64 372.94 560.62 372.93 560.58 372.92 560.51 372.89 560.43 372.85 560.39 372.83 560.34 372.8 560.29 372.77 560.24 372.74 560.21 372.72 560.16 372.69 560.1 372.65 560.05 372.62 560.01 372.6 560 372.6 560 372.58 559.99 372.56 559.99 372.53 559.99 372.49 559.98 372.46 559.99 372.43 559.99 372.39 560 372.35 560 372.32 560.01 372.29 560.01 372.26 560.01 372.22 560.01 372.17 560.01 372.11 560 372.03 559.99 371.96 559.98 371.91 559.97 371.85 559.95 371.81 559.93 371.77 559.88 371.65 559.88 371.64 559.86 371.58 559.84 371.51 559.83 371.47 559.81 371.42 559.81 371.41 559.81 371.38 559.81 371.33 559.81 371.32 559.8 371.29 559.81 371.26 559.81 371.24 559.83 371.18 559.85 371.13 559.87 371.09 559.9 371.01 559.93 370.95 559.96 370.9 559.99 370.86 560.03 370.8 560.06 370.77 560.08 370.74 560.1 370.72 560.12 370.68 560.15 370.64 560.17 370.6 560.19 370.56 560.21 370.53 560.21 370.52 560.23 370.48 560.24 370.45 560.25 370.42 560.27 370.4 560.29 370.37 560.3 370.34 560.31 370.32 560.32 370.28 560.33 370.25 560.33 370.24 560.34 370.22 560.34 370.18 560.35 370.15 560.35 370.12 560.35 370.09 560.35 370.05 560.34 370.02 560.34 369.98 560.33 369.95 560.33 369.91 560.33 369.87 560.33 369.83 560.34 369.81 560.34 369.78 560.34 369.76 560.35 369.76 560.35 369.75 560.36 369.74 560.38 369.74 560.39 369.73 560.4 369.73 560.4 369.71 560.4 369.7 560.39 369.65 560.37 369.62 560.35 369.59 560.34 369.54 560.33 369.52 560.32 369.47 560.32 369.42 560.3 369.36 560.3 369.31 560.3 369.26 560.3 369.22 560.3 369.21 560.3 369.16 560.3 369.14 560.3 369.11 560.31 369.08 560.31 369.06 560.32 369.04 560.33 369.02 560.35 369.01 560.36 368.99 560.36 368.98 560.37 368.95 560.37 368.92 560.38 368.88 560.39 368.86 560.4 368.84 560.4 368.83 560.41 368.82 560.43 368.79 560.45 368.75 560.47 368.71 560.48 368.68 560.49 368.66 560.5 368.65 560.51 368.65 560.52 368.64 560.52 368.64 560.53 368.63 560.53 368.62 560.54 368.6 560.54 368.58 560.54 368.54 560.55 368.51 560.56 368.45 560.56 368.42 560.56 368.38 560.56 368.35 560.56 368.32 560.55 368.28 560.55 368.26 560.55 368.24 560.55 368.22 560.55 368.19 560.55 368.15 560.56 368.12 560.56 368.1 560.56 368.08 560.56 368.05 560.56 368.02 560.57 367.97 560.57 367.92 560.57 367.88 560.57 367.83 560.58 367.78 560.58 367.73 560.58 367.66 560.58 367.62 560.58 367.56 560.59 367.52 560.59 367.49 560.58 367.44 560.58 367.4 560.58 367.34 560.58 367.3 560.58 367.27 560.58 367.24 560.58 367.21 560.59 367.18 560.59 367.15 560.59 367.14 560.61 367.08 560.64 366.97 560.69 366.8 560.77 366.71 560.79 366.69 560.85 366.51 560.93 366.24 561 366.05 561.01 366.01 561.01 365.97 561.01 365.91 561.01 365.84 561.01 365.79 561 365.69 560.99 365.54 560.98 365.38 560.97 365.32 560.97 365.28 560.97 365.27 560.97 365.26 560.98 365.23 561 365.2 561.01 365.17 561.02 365.13 561.03 365.09 561.04 365.05 561.05 365.02 561.05 364.99 561.06 364.97 561.06 364.95 561.07 364.92 561.07 364.9 561.07 364.86 561.06 364.82 561.06 364.79 561.05 364.76 561.04 364.71 561.04 364.66 561.04 364.64 561.04 364.59 561.04 364.54 561.04 364.5 561.05 364.47 561.06 364.44 561.07 364.42 561.08 364.4 561.08 364.37 561.08 364.35 561.09 364.33 561.09 364.3 561.09 364.26 561.1 364.21 561.11 364.16 561.11 364.11 561.12 364.07 561.12 364.01 561.12 363.99 561.12 363.93 561.11 363.89 561.12 363.84 561.12 363.8 561.12 363.76 561.13 363.71 561.13 363.66 561.14 363.62 561.14 363.55 561.15 363.44 561.16 363.3 561.17 363.2 561.18 363.11 561.19 363.02 561.2 362.92 561.22 362.83 561.23 362.77 561.24 362.74 561.24 362.71 561.25 362.69 561.25 362.68 561.27 362.62 561.3 362.56 561.34 362.48 561.36 362.44 561.39 362.37 561.43 362.31 561.47 362.23 561.52 362.16 561.56 362.08 561.6 362.01 561.67 361.88 561.76 361.72 561.86 361.53 561.88 361.49 561.9 361.43 561.96 361.27 561.99 361.16 562.01 361.07 562.02 361 562.03 360.93 562.03 360.85 562.03 360.78 562.02 360.69 561.99 360.53 561.95 360.46 561.93 360.41 561.91 360.38 561.91 360.34 561.91 360.32 561.9 360.28 561.89 360.25 561.88 360.14 561.86 360.03 561.83 359.94 561.8 359.86 561.76 359.79 561.74 359.76 561.72 359.7 561.7 359.6 561.66 359.24 561.59 359.04 561.52 358.86 561.5 358.82 561.44 358.71 561.4 358.63 561.31 358.5 561.25 358.41 561.15 358.29 560.97 358.07 560.96 358.05 560.96 358.02 560.96 357.97 560.96 357.94 560.95 357.87 560.95 357.84 560.94 357.79 560.94 357.68 560.94 357.65 560.92 357.62 560.91 357.6 560.87 357.55 560.89 357.53 560.95 357.48 561.07 357.32 561.08 357.31 561.09 357.3 561.1 357.28 561.11 357.26 561.12 357.25 561.13 357.23 561.15 357.22 561.16 357.21 561.17 357.2 561.18 357.19 561.2 357.19 561.22 357.18 561.24 357.18 561.25 357.17 561.27 357.17 561.28 357.16 561.3 357.15 561.31 357.14 561.32 357.13 561.33 357.12 561.35 357.11 561.36 357.1 561.37 357.08 561.38 357.07 561.39 357.05 561.41 357.04 561.42 357.03 561.43 357.01 561.43 357.01 561.45 356.99 561.46 356.97 561.47 356.96 561.48 356.95 561.5 356.92 561.51 356.91 561.52 356.9 561.54 356.88 561.55 356.87 561.56 356.85 561.56 356.84 561.58 356.83 561.59 356.81 561.6 356.8 561.62 356.79 561.63 356.78 561.64 356.77 561.66 356.76 561.67 356.75 561.68 356.74 561.7 356.73 561.72 356.72 561.73 356.71 561.75 356.7 561.76 356.69 561.76 356.68 561.78 356.67 561.79 356.66 561.8 356.66 561.81 356.65 561.81 356.65 561.82 356.63 561.83 356.62 561.85 356.59 561.85 356.57 561.86 356.56 561.87 356.54 561.88 356.53 561.89 356.52 561.92 356.49 561.93 356.47 561.96 356.43 561.97 356.41 561.98 356.39 562 356.37 562.01 356.35 562.02 356.34 562.03 356.32 562.04 356.31 562.05 356.29 562.06 356.28 562.07 356.26 562.08 356.25 562.09 356.23 562.09 356.21 562.1 356.2 562.1 356.19 562.11 356.17 562.12 356.15 562.12 356.14 562.12 356.12 562.13 356.1 562.13 356.08 562.13 356.06 562.13 356.05 562.13 356.03 562.13 356.03 562.13 356.01 562.13 355.99 562.12 355.98 562.12 355.96 562.12 355.94 562.12 355.92 562.11 355.91 562.11 355.89 562.11 355.88 562.11 355.86 562.11 355.84 562.1 355.82 562.1 355.81 562.1 355.79 562.1 355.77 562.1 355.75 562.1 355.73 562.1 355.72 562.1 355.7 562.1 355.68 562.1 355.67 562.1 355.58 562.1 355.56 562.1 355.55 562.1 355.51 562.1 355.49 562.1 355.43 562.1 355.41 562.1 355.4 562.1 355.38 562.09 355.36 562.1 355.34 562.1 355.33 562.1 355.31 562.11 355.29 562.12 355.27 562.12 355.25 562.13 355.24 562.13 355.22 562.14 355.2 562.14 355.18 562.14 355.17 562.14 355.15 562.14 355.13 562.14 355.11 562.14 355.1 562.14 355.1 562.14 355.09 562.14 355.07 562.14 355.05 562.14 355.04 562.14 355.03 562.14 355.02 562.15 355.01 562.15 354.99 562.16 354.97 562.16 354.96 562.16 354.94 562.17 354.93 562.17 354.91 562.18 354.87 562.18 354.86 562.18 354.84 562.18 354.83 562.19 354.81 562.19 354.79 562.2 354.77 562.2 354.76 562.2 354.75 562.2 354.73 562.2 354.71 562.2 354.68 562.2 354.66 562.2 354.65 562.2 354.64 562.21 354.62 562.21 354.6 562.21 354.58 562.22 354.56 562.22 354.54 562.22 354.51 562.23 354.5 562.23 354.47 562.24 354.46 562.24 354.45 562.25 354.43 562.25 354.42 562.26 354.4 562.26 354.38 562.27 354.37 562.28 354.35 562.28 354.34 562.29 354.32 562.29 354.31 562.3 354.28 562.3 354.27 562.31 354.26 562.31 354.25 562.31 354.24 562.32 354.23 562.32 354.21 562.33 354.18 562.34 354.16 562.34 354.14 562.35 354.13 562.36 354.09 562.36 354.08 562.37 354.07 562.37 354.05 562.38 354.03 562.38 354.02 562.39 354 562.4 353.98 562.4 353.97 562.41 353.95 562.42 353.94 562.43 353.92 562.45 353.88 562.47 353.83 562.49 353.78 562.5 353.74 562.51 353.74 562.51 353.72 562.52 353.7 562.53 353.67 562.56 353.6 562.56 353.59 562.57 353.55 562.59 353.52 562.6 353.5 562.6 353.48 562.62 353.45 562.62 353.43 562.63 353.41 562.64 353.4 562.66 353.35 562.66 353.33 562.67 353.32 562.68 353.28 562.69 353.26 562.7 353.24 562.7 353.23 562.71 353.21 562.72 353.19 562.73 353.16 562.73 353.15 562.75 353.11 562.75 353.1 562.76 353.08 562.76 353.07 562.77 353.05 562.78 353.03 562.79 353.02 562.79 353.01 562.79 352.99 562.79 352.97 562.79 352.94 562.79 352.92 562.79 352.9 562.79 352.88 562.79 352.86 562.79 352.84 562.8 352.83 562.81 352.81 562.81 352.79 562.82 352.79 562.83 352.77 562.83 352.75 562.84 352.74 562.85 352.73 562.88 352.69 562.89 352.68 562.9 352.66 562.91 352.65 562.92 352.63 562.92 352.63 562.93 352.61 562.93 352.59 562.93 352.58 562.93 352.56 562.94 352.54 562.95 352.52 562.96 352.5 562.97 352.49 562.98 352.48 562.99 352.46 563 352.45 563.01 352.43 563.02 352.42 563.04 352.4 563.05 352.39 563.06 352.38 563.07 352.37 563.08 352.36 563.09 352.34 563.11 352.33 563.13 352.31 563.15 352.3 563.16 352.29 563.17 352.28 563.18 352.27 563.19 352.25 563.2 352.24 563.21 352.23 563.25 352.19 563.26 352.17 563.27 352.16 563.28 352.15 563.29 352.13 563.31 352.12 563.32 352.11 563.33 352.1 563.36 352.07 563.37 352.06 563.39 352.05 563.4 352.04 563.41 352.02 563.42 352.01 563.43 352 563.45 351.99 563.46 351.98 563.49 351.97 563.5 351.97 563.52 351.96 563.53 351.95 563.54 351.95 563.55 351.93 563.56 351.92 563.57 351.9 563.58 351.89 563.6 351.88 563.61 351.87 563.62 351.86 563.63 351.85 563.66 351.82 563.69 351.8 563.7 351.79 563.74 351.76 563.75 351.75 563.77 351.74 563.78 351.73 563.8 351.71 563.81 351.7 563.84 351.68 563.85 351.67 563.87 351.66 563.88 351.65 563.89 351.64 563.9 351.62 563.92 351.61 563.93 351.59 563.93 351.57 563.94 351.56 563.94 351.54 563.95 351.52 563.95 351.51 563.96 351.5 563.96 351.49 563.97 351.47 563.98 351.46 563.99 351.44 564 351.43 564.01 351.42 564.02 351.41 564.04 351.4 564.07 351.38 564.08 351.37 564.09 351.37 564.1 351.35 564.12 351.34 564.13 351.33 564.14 351.32 564.15 351.3 564.16 351.29 564.17 351.28 564.18 351.27 564.2 351.26 564.21 351.25 564.22 351.24 564.23 351.23 564.24 351.22 564.26 351.2 564.28 351.19 564.29 351.18 564.3 351.17 564.31 351.16 564.33 351.15 564.34 351.13 564.35 351.12 564.36 351.11 564.37 351.11 564.39 351.1 564.4 351.09 564.42 351.08 564.44 351.07 564.47 351.06 564.48 351.05 564.49 351.05 564.51 351.04 564.52 351.04 564.53 351.03 564.64 350.99 564.66 350.98 564.68 350.98 564.7 350.98 564.71 350.97 564.73 350.97 564.75 350.96 564.76 350.96 564.78 350.96 564.8 350.95 564.82 350.95 564.84 350.95 564.86 350.95 564.87 350.95 564.89 350.95 564.91 350.94 564.93 350.94 564.94 350.94 564.96 350.94 564.98 350.94 565 350.94 565.01 350.94 565.03 350.94 565.04 350.94 565.06 350.95 565.08 350.95 565.1 350.95 565.11 350.95 565.13 350.95 565.15 350.95 565.17 350.95 565.18 350.96 565.2 350.96 565.21 350.96 565.23 350.96 565.25 350.96 565.26 350.97 565.28 350.97 Z"/>
</g></svg>