<svg xmlns="http://www.w3.org/2000/svg" version="1.2" baseProfile="tiny" stroke-linecap="round" stroke-linejoin="round" viewBox="637.38 166.98 26.22 34.33"><g xmlns="http://www.w3.org/2000/svg" id="Ezterenzubi">
<path d="M 649.62 167.88 650.02 167.77 650.16 167.76 650.26 167.85 650.25 167.87 650.25 167.88 650.24 167.89 650.25 167.91 650.26 167.91 650.28 167.91 650.33 167.89 650.41 167.85 650.51 167.81 650.57 167.79 650.62 167.77 650.63 167.77 650.68 167.78 650.72 167.8 650.78 167.82 650.86 167.85 650.91 167.87 650.96 167.9 651 167.93 651.03 167.95 651.09 167.97 651.17 167.98 651.2 167.98 651.25 167.99 651.31 168.01 651.36 168.03 651.42 168.05 651.45 168.06 651.49 168.08 651.83 168.68 651.84 168.69 651.88 168.71 651.92 168.73 651.96 168.76 651.98 168.77 652.01 168.78 652.08 168.79 652.13 168.79 652.16 168.8 652.19 168.8 652.23 168.79 652.25 168.79 652.27 168.78 652.31 168.76 652.33 168.76 652.35 168.76 652.37 168.75 652.4 168.75 652.44 168.74 652.48 168.71 652.85 168.34 653.05 168.19 653.55 168.19 653.82 168.2 653.87 168.22 653.93 168.26 653.98 168.29 654.04 168.32 654.1 168.35 654.16 168.38 654.2 168.4 654.26 168.43 654.26 168.44 654.3 168.46 654.38 168.52 654.45 168.56 654.51 168.59 654.64 168.68 654.68 168.69 654.72 168.72 654.75 168.74 654.78 168.76 654.82 168.81 654.84 168.84 654.89 168.87 654.94 168.92 654.99 168.96 655.03 168.98 655.08 169.01 655.15 169.08 655.21 169.13 655.28 169.19 655.35 169.25 655.4 169.3 655.44 169.32 655.48 169.35 655.52 169.39 655.54 169.44 655.57 169.48 655.61 169.52 655.65 169.57 655.69 169.61 655.71 169.64 655.75 169.68 655.79 169.7 655.82 169.73 655.85 169.76 655.88 169.81 655.92 169.87 655.96 169.92 656 169.97 656.03 170.02 656.06 170.06 656.08 170.11 656.12 170.16 656.15 170.19 656.2 170.27 656.26 170.34 656.31 170.4 656.37 170.48 656.43 170.57 656.5 170.65 656.53 170.69 656.64 170.82 656.66 170.85 656.68 170.88 656.72 170.92 656.74 170.94 656.76 170.96 656.78 170.96 656.84 171.35 657.14 171.9 657.51 172.47 657.76 172.93 657.85 173.35 658.02 174.22 657.97 174.27 657.94 174.31 657.93 174.32 657.93 174.33 657.94 174.34 657.94 174.34 657.96 174.35 657.99 174.35 658.03 174.34 658.07 174.31 658.09 174.31 658.11 174.31 658.18 174.32 658.22 174.32 658.26 174.32 658.29 174.32 658.31 174.32 658.33 174.32 658.35 174.31 658.39 174.31 658.4 174.31 658.41 174.32 658.4 174.33 658.39 174.35 658.38 174.35 658.41 174.39 658.44 174.43 658.48 174.48 658.52 174.51 658.55 174.53 658.61 174.55 658.67 174.56 658.73 174.56 658.77 174.55 658.83 174.54 658.99 174.5 659.05 174.48 659.09 174.49 659.14 174.5 659.21 174.51 659.3 174.54 659.33 174.55 659.34 174.55 659.36 174.54 659.53 174.51 659.64 174.46 659.72 174.44 659.78 174.42 659.83 174.39 659.83 174.37 659.87 174.31 659.9 174.12 659.89 173.99 659.93 173.63 660.21 173.97 660.46 174.25 661.06 174.41 661.29 174.81 660.97 175.29 660.98 175.3 661.03 175.36 661.09 175.4 661.14 175.43 661.16 175.49 661.16 175.57 661.14 175.65 661.14 175.73 661.17 175.81 661.25 175.89 661.29 175.97 661.37 176.05 661.53 176.19 661.66 176.28 661.76 176.36 661.8 176.42 661.83 176.47 661.85 176.52 661.88 176.56 661.92 176.58 661.96 176.59 662.01 176.59 662.06 176.59 662.1 176.6 662.14 176.62 662.18 176.65 662.21 176.69 662.24 176.73 662.3 176.75 662.34 176.77 662.43 176.79 662.51 176.84 662.56 176.88 662.58 176.93 662.59 176.97 662.6 177.04 662.61 177.1 662.62 177.13 662.66 177.17 662.71 177.21 662.73 177.22 662.75 177.28 662.75 177.34 662.75 177.41 662.75 177.47 662.74 177.52 662.71 177.57 662.69 177.61 662.63 177.65 662.59 177.71 662.57 177.76 662.57 177.81 662.58 177.86 662.61 177.9 662.65 177.94 662.69 178 662.73 178.05 662.76 178.13 662.77 178.19 662.77 178.25 662.74 178.34 662.72 178.39 662.68 178.52 662.65 178.66 662.62 178.77 662.61 178.86 662.61 178.92 662.62 179 662.65 179.08 662.74 179.16 662.8 179.22 662.86 179.29 662.9 179.35 662.95 179.4 663.01 179.44 663.06 179.45 663.13 179.5 663.23 179.58 663.3 179.63 663.32 179.68 663.32 179.72 663.3 179.76 663.27 179.84 663.26 179.91 663.26 179.96 663.28 180.02 663.34 180.08 663.4 180.14 663.43 180.18 663.43 180.24 663.42 180.31 663.4 180.36 663.33 180.41 663.29 180.47 663.27 180.53 663.27 180.58 663.3 180.66 663.35 180.73 663.41 180.78 663.46 180.82 663.52 180.88 663.56 180.96 663.57 181.03 663.57 181.1 663.56 181.14 663.52 181.19 663.46 181.24 663.39 181.29 663.31 181.35 663.24 181.42 663.21 181.44 663.19 181.44 663.14 181.44 663.08 181.45 663 181.46 662.93 181.48 662.88 181.53 662.81 181.59 662.77 181.63 662.73 181.68 662.69 181.7 662.65 181.74 662.59 181.77 662.52 181.79 662.47 181.79 662.42 181.79 662.39 181.78 662.36 181.77 662.31 181.76 662.27 181.75 662.22 181.75 662.15 181.75 662.04 181.75 661.97 181.75 661.89 181.77 661.8 181.81 661.75 181.84 661.71 181.87 661.66 181.89 661.6 181.88 661.55 181.86 661.52 181.83 661.47 181.77 661.41 181.7 661.31 181.63 661.27 181.59 661.23 181.56 661.17 181.54 661.12 181.52 661.01 181.47 660.97 181.47 660.91 181.5 660.83 181.58 660.74 181.64 660.69 181.71 660.68 181.76 660.68 181.81 660.65 181.88 660.59 181.94 660.52 181.98 660.46 182.02 660.45 182.07 660.43 182.15 660.31 182.27 660.21 182.34 660.11 182.38 660.04 182.4 659.97 182.4 659.89 182.4 659.84 182.4 659.77 182.38 659.73 182.38 659.7 182.38 659.67 182.37 659.63 182.36 659.6 182.35 659.55 182.34 659.49 182.36 659.45 182.39 659.42 182.44 659.4 182.48 659.39 182.51 659.38 182.55 659.38 182.59 659.37 182.63 659.37 182.67 659.37 182.74 659.37 182.78 659.36 182.83 659.35 182.87 659.34 182.92 659.31 182.97 659.28 183 659.25 183.02 659.22 183.04 659.19 183.06 659.16 183.08 659.12 183.1 659.08 183.1 659.05 183.1 659.01 183.09 658.97 183.07 658.92 183.06 658.89 183.05 658.86 183.03 658.82 183.02 658.77 183.02 658.72 183.02 658.66 183.04 658.63 183.06 658.6 183.09 658.6 183.17 658.61 183.22 658.61 183.25 658.62 183.32 658.62 183.35 658.61 183.4 658.59 183.44 658.57 183.48 658.55 183.51 658.52 183.54 658.49 183.56 658.45 183.59 658.41 183.62 658.39 183.63 658.32 183.66 658.27 183.69 658.2 183.73 658.16 183.79 658.15 183.82 658.15 183.86 658.15 183.89 658.17 183.91 658.17 183.95 658.18 183.99 658.16 184.07 658.12 184.11 658.09 184.15 658.05 184.18 658.01 184.24 658 184.33 658.01 184.4 658.01 184.43 658.02 184.49 658.06 184.55 658.09 184.58 658.12 184.59 658.16 184.6 658.21 184.63 658.24 184.65 658.26 184.68 658.26 184.73 658.26 184.78 658.25 184.81 658.24 184.85 658.22 184.87 658.19 184.9 658.16 184.93 658.13 184.94 658.08 184.95 658.05 184.96 658.01 184.97 657.96 184.97 657.93 184.98 657.89 184.99 657.86 185 657.84 185.01 657.82 185.04 657.8 185.07 657.77 185.08 657.73 185.09 657.71 185.11 657.68 185.12 657.65 185.11 657.62 185.11 657.6 185.11 657.57 185.13 657.54 185.15 657.52 185.17 657.5 185.21 657.5 185.25 657.52 185.27 657.54 185.29 657.57 185.3 657.58 185.31 657.61 185.32 657.64 185.34 657.66 185.37 657.66 185.4 657.64 185.43 657.62 185.43 657.6 185.44 657.57 185.44 657.53 185.44 657.5 185.45 657.48 185.47 657.45 185.49 657.43 185.51 657.43 185.56 657.43 185.61 657.44 185.64 657.43 185.69 657.42 185.73 657.4 185.77 657.38 185.81 657.38 186.06 656.71 186 656.05 185.93 655.39 185.85 655.56 186.36 655.58 186.38 655.58 186.41 655.6 186.46 655.63 186.5 655.64 186.54 655.65 186.56 655.66 186.64 655.66 186.77 655.67 186.81 655.69 186.88 655.74 186.95 655.81 187.01 655.86 187.04 655.9 187.08 655.93 187.12 655.95 187.17 655.95 187.21 655.94 187.27 655.89 187.41 655.86 187.5 655.86 187.52 655.85 187.58 655.85 187.64 655.86 187.72 655.87 187.81 655.87 187.9 655.88 187.96 655.87 188.03 655.85 188.11 655.82 188.18 655.78 188.28 655.76 188.35 655.75 188.44 655.74 188.53 655.73 188.65 655.73 188.76 655.74 188.84 655.74 188.87 655.74 188.92 655.73 189.03 655.71 189.11 655.84 189.45 655.87 190.2 655.71 190.51 655.72 190.52 655.74 190.54 655.75 190.6 655.75 190.68 655.74 190.77 655.71 190.86 655.66 190.91 655.58 191.23 655.34 191.39 655.48 191.56 655.54 191.89 655.59 191.99 655.62 192.06 655.67 192.17 655.69 192.26 655.7 192.28 655.71 192.32 655.71 192.37 655.7 192.4 655.69 192.45 655.86 192.78 655.67 193.17 655.67 193.22 655.67 193.26 655.65 193.32 655.65 193.37 655.64 193.4 655.65 193.44 655.66 193.49 655.67 193.54 655.67 193.57 655.66 193.61 655.63 193.73 655.6 193.82 655.58 193.87 655.57 193.91 655.57 193.99 655.54 194.13 655.53 194.24 655.51 194.3 655.48 194.36 655.46 194.4 655.76 195.41 655.82 195.5 655.2 196.14 655.13 196.27 654.79 196.64 654.49 197.15 653.9 196.92 653.42 197.12 653.01 197.1 652.59 197.08 652.18 197.06 652.01 197.74 651.84 198.41 651.67 199.09 651.63 199.62 651.66 199.64 651.65 199.82 651.63 200.05 651.62 200.3 651.61 200.49 651.61 200.5 651.51 200.55 651.42 200.59 651.36 200.62 651.22 200.69 651.05 200.76 650.91 200.83 650.82 200.87 650.69 200.93 650.53 201.01 650.33 201.1 650.16 201.18 650.06 201.22 650.01 201.24 649.91 201.26 649.84 201.28 649.69 201.3 649.68 201.3 649.63 201.26 649.44 201.12 649.24 200.97 649.02 200.82 648.84 200.68 648.68 200.56 648.54 200.47 648.35 200.32 648.18 200.2 647.94 200.02 647.78 199.91 647.67 199.82 647.5 199.69 647.34 199.57 647.23 199.49 647.05 199.36 646.7 199.09 646.56 198.99 646.4 198.86 646.22 198.73 646.01 198.58 645.92 198.51 645.82 198.43 645.62 198.28 645.4 198.12 645.3 198.04 645.15 197.93 645.05 197.85 644.95 197.76 644.82 197.64 644.7 197.53 644.5 197.35 644.37 197.23 644.23 197.1 644.16 197.06 644 196.96 643.83 196.86 643.66 196.77 643.47 196.66 643.33 196.58 643.16 196.48 643 196.39 642.82 196.29 642.66 196.19 642.51 196.1 642.34 195.98 642.15 195.84 641.99 195.74 641.9 195.68 641.77 195.58 641.69 195.52 641.64 195.49 641.53 195.42 641.41 195.33 641.3 195.25 641.21 195.19 641.07 195.09 640.95 195.01 640.84 194.94 640.8 194.91 640.79 194.9 640.76 194.88 640.74 194.86 640.64 194.49 640.54 194.09 640.43 194.07 640.36 193.89 640.33 193.81 640.31 193.79 640.24 193.7 640.19 193.09 640.16 192.35 640.12 191.62 640.11 190.76 640.05 189.89 639.99 189.02 639.91 188.15 639.83 187.28 639.75 186.41 639.71 185.79 639.66 185.21 639.61 184.63 639.55 184.08 639.49 183.54 639.41 183.57 639.11 183.81 638.36 184.28 638.28 184.28 637.93 184.02 637.74 183.81 637.61 183.53 637.39 183.45 637.4 183.43 637.42 183.31 637.43 183.27 637.44 183.23 637.44 183.09 637.44 182.88 637.43 182.68 637.42 182.56 637.43 182.52 637.46 182.35 637.56 182.11 637.61 181.97 637.64 181.87 637.65 181.81 637.66 181.75 637.66 181.69 637.66 181.66 637.65 181.62 637.64 181.55 637.63 181.52 637.62 181.45 637.59 181.21 637.56 181.01 637.55 180.95 637.54 180.92 637.51 180.88 637.49 180.85 637.48 180.83 637.49 180.81 637.48 180.41 637.47 180.38 637.46 180.34 637.46 180.31 637.47 180.3 637.48 180.29 637.47 180.28 637.46 180.27 637.46 180.25 637.46 180.18 637.46 180.1 637.46 180.07 637.45 180.04 637.44 179.95 637.44 179.9 637.44 179.88 637.45 179.86 637.46 179.84 637.47 179.84 637.49 179.82 637.5 179.81 637.53 179.76 637.58 179.69 637.58 179.67 637.6 179.64 637.61 179.61 637.64 179.57 637.67 179.54 637.82 178.88 637.87 178.82 637.91 178.74 637.95 178.64 637.96 178.62 638.18 178.71 638.3 178.69 638.96 177.73 638.96 177.17 639.06 176.6 639.15 176.52 639.23 176.5 639.35 176.28 639.61 175.56 639.79 175.27 639.69 175.06 639.35 174.44 639.25 174.02 639.03 173.66 638.72 173.23 638.72 173.1 638.92 172.7 639.03 172.55 639.12 172.29 639.14 172.04 639.06 171.67 638.91 171.24 638.8 170.6 638.93 169.8 638.97 169.19 638.86 168.55 638.93 168.63 639 168.7 639.05 168.72 639.08 168.75 639.1 168.78 639.15 168.82 639.18 168.83 639.25 168.88 639.3 168.94 639.35 168.97 639.41 168.99 639.46 169.03 639.51 169.11 639.55 169.26 639.57 169.45 639.61 169.53 640.25 168.53 640.31 168.49 640.53 168.24 640.7 168.09 640.97 167.94 641.45 167.77 641.69 167.67 641.94 167.48 642.09 167.33 642.62 167.1 642.95 166.99 643.35 167 643.89 167.05 644.4 167.19 644.5 167.24 644.91 167.39 645.3 167.29 645.32 167.34 645.32 167.37 645.33 167.4 645.33 167.42 645.33 167.44 645.34 167.46 645.36 167.47 645.38 167.48 645.41 167.48 645.45 167.48 645.53 167.48 645.56 167.48 645.6 167.47 645.63 167.47 645.67 167.46 645.69 167.44 645.73 167.41 645.77 167.39 645.8 167.35 645.83 167.37 645.85 167.38 645.89 167.4 645.91 167.41 645.94 167.42 645.95 167.44 645.97 167.47 645.98 167.51 646.01 167.56 646.03 167.59 646.05 167.62 646.08 167.66 646.13 167.71 646.19 167.78 646.25 167.84 646.28 167.86 646.31 167.88 646.33 167.89 646.35 167.89 646.37 167.9 646.38 167.89 646.45 167.87 646.49 167.85 646.56 167.83 646.61 167.81 646.65 167.8 646.69 167.79 646.73 167.79 646.76 167.79 646.8 167.79 646.83 167.8 646.88 167.83 646.93 167.87 646.96 167.89 646.99 167.91 647.02 167.93 647.05 167.93 647.1 167.94 647.14 167.94 647.17 167.94 647.2 167.95 647.24 167.96 647.29 167.99 647.36 168.01 647.44 168.04 647.51 168.06 647.55 168.07 647.59 168.07 647.63 168.07 647.66 168.07 647.68 168.07 647.69 168.08 647.69 168.09 647.69 168.1 647.68 168.13 647.66 168.17 647.65 168.2 647.61 168.25 647.57 168.29 647.53 168.34 647.48 168.39 647.44 168.43 647.4 168.46 647.39 168.48 647.38 168.51 647.37 168.55 647.37 168.59 647.37 168.62 647.37 168.66 647.39 168.71 647.4 168.74 647.41 168.77 647.42 168.8 647.44 168.82 647.46 168.84 647.49 168.85 647.51 168.87 647.52 168.89 647.54 168.92 647.56 168.96 647.59 169.01 647.64 169.1 647.67 169.17 647.7 169.21 648.53 168.9 648.94 168.77 649.05 168.67 649.22 168.47 649.49 168.03 649.62 167.88 Z"/>
</g></svg>