<svg xmlns="http://www.w3.org/2000/svg" version="1.2" baseProfile="tiny" stroke-linecap="round" stroke-linejoin="round" viewBox="444.47 425.53 58.42 36.72"><g xmlns="http://www.w3.org/2000/svg" id="Faltzes">
<path d="M 487.25 427.32 487.32 427.46 487.38 427.52 487.82 427.6 487.84 427.61 488.11 427.86 488.13 427.88 488.14 427.89 488.16 427.91 488.17 427.92 488.19 427.92 488.25 427.95 488.37 427.98 488.43 428.01 488.67 428.13 488.77 428.18 488.87 428.23 488.9 428.25 489.03 428.33 489.16 428.41 489.35 428.67 489.41 428.74 489.58 428.98 489.68 429.2 489.78 429.31 489.83 429.38 490.14 429.67 490.58 429.92 490.66 430.05 490.9 430.44 490.94 430.49 490.95 430.52 491.06 430.75 491.1 430.92 491.47 430.9 491.69 430.89 491.71 430.91 491.73 430.92 492.02 431.17 492.11 431.24 492.46 431.62 492.51 431.67 492.55 431.7 492.66 431.78 492.82 431.89 492.85 431.92 492.87 431.94 492.88 431.95 492.89 431.97 492.9 431.98 492.92 431.99 492.93 432 492.95 432.02 492.97 432.03 492.98 432.04 493 432.05 493.01 432.06 493.02 432.06 493.04 432.08 493.05 432.09 493.08 432.11 493.09 432.12 493.11 432.13 493.16 432.16 493.17 432.17 493.19 432.18 493.21 432.2 493.23 432.21 493.24 432.22 493.26 432.23 493.27 432.24 493.29 432.26 493.31 432.27 493.32 432.28 493.34 432.29 493.38 432.32 493.39 432.33 493.41 432.34 493.44 432.36 493.45 432.37 493.48 432.39 493.49 432.39 493.49 432.4 493.67 432.5 493.7 432.51 493.71 432.52 493.72 432.53 493.92 432.67 493.91 432.75 493.89 432.77 493.87 432.8 493.85 432.81 493.84 432.83 493.81 432.87 493.79 432.91 493.77 432.99 493.76 433 493.75 433.04 493.73 433.1 493.71 433.18 493.63 433.6 493.61 433.73 493.59 433.82 493.62 433.93 493.63 434.02 493.62 434.09 493.58 434.42 493.56 434.54 493.51 434.72 493.5 434.76 493.48 434.88 493.49 434.93 493.49 434.94 493.5 434.97 493.56 435.17 493.62 435.53 493.63 435.56 493.66 435.58 493.83 435.65 493.91 435.69 493.93 435.71 493.97 435.77 494.03 435.83 494.07 435.88 494.11 435.94 494.12 435.95 494.15 436.02 494.18 436.06 494.27 436.15 494.37 436.25 494.38 436.24 494.7 436.06 494.82 436.07 494.83 436.09 494.89 436.14 494.93 436.19 494.95 436.21 495.03 436.21 495.05 436.22 495.08 436.22 495.11 436.21 495.14 436.2 495.18 436.18 495.2 436.16 495.23 436.13 495.27 436.11 495.29 436.09 495.33 436.08 495.36 436.08 495.4 436.08 495.44 436.09 495.48 436.11 495.56 436.15 495.68 436.21 495.68 436.24 495.69 436.25 495.69 436.27 495.71 436.31 495.72 436.36 495.73 436.38 495.74 436.39 495.75 436.41 495.78 436.43 495.79 436.45 495.81 436.47 495.82 436.49 495.84 436.55 495.85 436.58 495.85 436.61 495.85 436.65 495.85 436.67 495.86 436.71 495.87 436.75 495.88 436.78 495.9 436.81 495.91 436.84 495.93 436.87 495.96 436.89 495.98 436.91 495.99 436.93 496.01 436.96 496.02 436.99 496.03 437.01 496.04 437.04 496.05 437.06 496.06 437.09 496.08 437.13 496.1 437.16 496.11 437.19 496.13 437.21 496.16 437.24 496.19 437.26 496.23 437.29 496.26 437.32 496.28 437.34 496.29 437.35 496.3 437.36 496.31 437.37 496.32 437.39 496.35 437.41 496.38 437.44 496.48 437.52 496.59 437.67 496.73 437.76 496.74 437.77 496.96 437.74 497.03 437.73 497.06 437.75 497.13 437.78 497.23 437.83 497.39 437.92 497.47 437.95 497.54 437.99 497.56 438.01 497.61 438.05 497.66 438.11 497.72 438.16 497.77 438.21 497.83 438.26 497.91 438.32 497.98 438.35 498.02 438.37 498.07 438.38 498.11 438.39 498.13 438.39 498.15 438.4 498.16 438.42 498.19 438.47 498.09 438.67 498.06 438.74 497.94 438.97 497.95 439.15 497.95 439.19 497.96 439.27 497.96 439.31 497.96 439.35 497.96 439.4 497.97 439.43 497.98 439.45 498.01 439.51 498 439.56 497.98 439.61 498.19 439.68 498.24 439.73 498.28 439.76 498.28 439.76 498.33 439.82 498.34 439.84 498.36 439.87 498.37 439.9 498.39 439.95 498.4 439.96 498.44 440.07 498.5 440.25 498.57 440.45 498.6 440.53 498.62 440.59 498.64 440.62 498.65 440.64 498.68 440.69 498.74 440.81 498.81 440.94 498.82 440.97 498.84 440.99 498.86 441.01 498.9 441.04 498.91 441.05 498.96 441.11 499.01 441.17 499.02 441.18 499.05 441.2 499.19 441.28 499.25 441.32 499.26 441.32 499.27 441.33 499.43 441.42 499.54 441.48 499.61 441.5 499.75 441.54 499.76 441.55 499.85 441.57 499.86 441.58 499.88 441.58 499.96 441.62 500.03 441.65 500.19 441.73 500.29 441.79 500.57 441.95 500.68 442.16 500.69 442.18 500.68 442.22 500.63 442.63 500.59 443.01 500.59 443.03 500.62 443.21 500.62 443.22 500.62 443.23 500.61 443.25 500.61 443.27 500.61 443.31 500.58 443.44 500.58 443.46 500.56 443.54 500.43 444 500.42 444.01 500.42 444.03 500.41 444.07 500.4 444.13 500.39 444.19 500.38 444.23 500.37 444.26 500.37 444.29 500.36 444.32 500.35 444.34 500.34 444.37 500.32 444.38 500.31 444.39 500.3 444.4 500.28 444.42 500.26 444.44 500.25 444.46 500.24 444.49 500.24 444.52 500.24 444.56 500.26 444.6 500.27 444.63 500.28 444.65 500.31 444.69 500.32 444.7 500.34 444.72 500.36 444.75 500.38 444.79 500.4 444.83 500.4 444.86 500.41 444.9 500.42 444.93 500.43 444.96 500.42 444.99 500.42 445.01 500.42 445.04 500.41 445.06 500.4 445.09 500.38 445.12 500.36 445.16 500.34 445.19 500.32 445.22 500.31 445.24 500.3 445.27 500.29 445.29 500.28 445.32 500.28 445.34 500.28 445.35 500.27 445.4 500.27 445.41 500.27 445.43 500.27 445.48 500.26 445.52 500.26 445.57 500.25 445.61 500.24 445.65 500.24 445.67 500.24 445.7 500.24 445.72 500.24 445.76 500.25 445.8 500.26 445.84 500.26 445.88 500.27 445.92 500.28 445.97 500.29 446.01 500.29 446.04 500.29 446.07 500.29 446.09 500.29 446.11 500.29 446.14 500.27 446.19 500.26 446.24 500.25 446.28 500.23 446.32 500.23 446.33 500.21 446.36 500.2 446.4 500.18 446.45 500.16 446.5 500.15 446.54 500.14 446.6 500.14 446.63 500.14 446.66 500.14 446.69 500.14 446.74 500.13 446.8 500.13 446.84 500.13 446.87 500.13 446.89 500.14 446.92 500.14 446.95 500.15 446.99 500.16 447.04 500.17 447.06 500.19 447.1 500.21 447.16 500.22 447.18 500.23 447.21 500.23 447.23 500.27 447.3 500.3 447.38 500.34 447.45 500.37 447.52 500.39 447.56 500.41 447.59 500.44 447.66 500.48 447.73 500.53 447.79 500.57 447.86 500.61 447.92 500.66 447.98 500.69 448.03 500.71 448.05 500.74 448.1 500.76 448.14 500.79 448.19 500.83 448.24 500.9 448.33 500.94 448.38 500.96 448.4 500.97 448.43 500.99 448.47 501 448.5 501.04 448.55 501.08 448.6 501.11 448.65 501.16 448.71 501.19 448.76 501.21 448.79 501.23 448.82 501.25 448.85 501.28 448.89 501.28 448.9 501.29 448.91 501.3 448.92 501.51 449.2 501.52 449.21 501.54 449.25 501.6 449.32 501.65 449.38 501.67 449.41 501.69 449.44 501.71 449.46 501.75 449.53 501.81 449.6 501.88 449.68 501.94 449.77 502.03 449.88 502.11 449.98 502.21 450.1 502.29 450.2 502.31 450.22 502.32 450.24 502.36 450.29 502.39 450.34 502.44 450.42 502.47 450.49 502.52 450.56 502.56 450.61 502.6 450.67 502.66 450.74 502.69 450.77 502.7 450.79 502.72 450.8 502.73 450.81 502.76 450.83 502.77 450.84 502.78 450.86 502.82 450.91 502.84 450.95 502.85 450.98 502.79 450.99 502.73 451.01 502.7 451.02 502.48 451.1 502.25 451.18 502.03 451.26 501.96 451.28 501.91 451.3 501.81 451.34 501.75 451.33 501.71 451.32 501.6 451.32 501.5 451.31 501.48 451.3 501.46 451.3 501.42 451.3 501.38 451.29 501.31 451.28 501.3 451.28 501.26 451.28 501.23 451.28 501.18 451.28 501.16 451.28 501.14 451.29 500.99 451.3 500.83 451.31 500.75 451.31 500.69 451.32 500.68 451.32 500.63 451.32 500.53 451.33 500.41 451.34 500.33 451.34 500.32 451.34 500.27 451.34 500.25 451.35 500.21 451.36 500.15 451.38 500.13 451.39 500.03 451.43 499.99 451.45 499.93 451.46 499.88 451.47 499.85 451.48 499.82 451.49 499.78 451.5 499.74 451.53 499.67 451.55 499.65 451.55 499.61 451.57 499.58 451.58 499.53 451.59 499.5 451.6 499.49 451.62 499.47 451.63 499.44 451.66 499.41 451.68 499.38 451.71 499.36 451.73 499.33 451.75 499.32 451.76 499.29 451.79 499.28 451.8 499.25 451.83 499.23 451.85 499.21 451.86 499.18 451.88 499.16 451.89 499.12 451.91 499.1 451.93 499.07 451.94 499.05 451.96 499.03 451.98 499.02 451.99 499.01 452.01 498.98 452.05 498.96 452.07 498.94 452.08 498.93 452.1 498.91 452.11 498.9 452.12 498.89 452.13 498.88 452.14 498.85 452.15 498.84 452.16 498.83 452.18 498.82 452.19 498.77 452.21 498.76 452.22 498.75 452.23 498.74 452.24 498.72 452.25 498.71 452.26 498.7 452.27 498.68 452.28 498.67 452.29 498.66 452.3 498.64 452.32 498.62 452.35 498.59 452.35 498.57 452.36 498.47 452.38 498.43 452.39 498.42 452.4 498.39 452.42 498.38 452.43 498.36 452.43 498.34 452.44 498.33 452.44 498.31 452.45 498.3 452.45 498.26 452.46 498.24 452.47 498.22 452.48 498.2 452.48 498.2 452.48 498.18 452.49 498.17 452.5 498.1 452.5 498.08 452.5 498.06 452.51 497.97 452.51 497.95 452.51 497.93 452.51 497.91 452.52 497.9 452.52 497.88 452.52 497.86 452.52 497.84 452.52 497.82 452.52 497.8 452.53 497.79 452.53 497.77 452.53 497.75 452.53 497.73 452.53 497.72 452.53 497.71 452.53 497.69 452.53 497.67 452.53 497.66 452.52 497.64 452.52 497.62 452.52 497.61 452.52 497.59 452.52 497.57 452.51 497.55 452.51 497.52 452.5 497.5 452.5 497.48 452.49 497.41 452.48 497.39 452.48 497.37 452.47 497.33 452.46 497.31 452.46 497.3 452.45 497.28 452.45 497.26 452.45 497.25 452.44 497.23 452.44 497.14 452.41 497.13 452.4 497.11 452.4 497.1 452.39 497.08 452.39 497.06 452.39 497.05 452.38 497.03 452.38 497.01 452.38 496.99 452.38 496.97 452.38 496.94 452.38 496.93 452.38 496.91 452.38 496.89 452.38 496.87 452.38 496.86 452.38 496.84 452.38 496.82 452.38 496.8 452.39 496.79 452.39 496.59 452.41 496.55 452.41 496.49 452.41 496.42 452.41 496.34 452.42 496.3 452.42 496.27 452.42 496.24 452.42 496.22 452.42 496.2 452.42 496.19 452.42 496.17 452.42 496.15 452.43 496.13 452.44 496.11 452.45 496.09 452.45 496.08 452.46 496.07 452.46 496.05 452.47 496.04 452.48 496.02 452.5 496 452.51 495.99 452.52 495.97 452.52 495.96 452.53 495.95 452.54 495.93 452.54 495.91 452.55 495.87 452.56 495.85 452.56 495.84 452.57 495.82 452.57 495.81 452.57 495.79 452.58 495.77 452.58 495.75 452.59 495.73 452.59 495.71 452.6 495.7 452.6 495.68 452.61 495.66 452.61 495.65 452.62 495.63 452.62 495.61 452.63 495.6 452.64 495.58 452.64 495.56 452.65 495.55 452.66 495.53 452.67 495.52 452.67 495.5 452.68 495.49 452.69 495.48 452.69 495.46 452.7 495.45 452.71 495.42 452.73 495.4 452.74 495.39 452.75 495.37 452.76 495.35 452.77 495.34 452.78 495.32 452.78 495.3 452.79 495.29 452.8 495.27 452.81 495.26 452.81 495.22 452.83 495.21 452.83 495.19 452.84 495.18 452.85 495.16 452.85 495.14 452.86 495.11 452.87 495.04 452.9 495.03 452.9 495.01 452.91 494.99 452.91 494.96 452.93 494.94 452.93 494.93 452.94 494.91 452.95 494.89 452.95 494.88 452.96 494.86 452.97 494.85 452.97 494.83 452.98 494.82 452.99 494.79 453.01 494.77 453.02 494.69 453.07 494.66 453.09 494.64 453.1 494.62 453.11 494.61 453.12 494.59 453.13 494.58 453.14 494.56 453.15 494.55 453.16 494.53 453.17 494.52 453.18 494.51 453.19 494.5 453.2 494.48 453.21 494.45 453.23 494.43 453.25 494.39 453.28 494.36 453.3 494.34 453.31 494.33 453.32 494.32 453.33 494.3 453.34 494.29 453.35 494.28 453.36 494.26 453.37 494.25 453.38 494.23 453.39 494.22 453.4 494.2 453.41 494.19 453.42 494.17 453.43 494.17 453.43 494.15 453.44 494.13 453.45 494.12 453.46 494.09 453.47 494.06 453.49 494.04 453.5 494.01 453.51 493.97 453.53 493.95 453.54 493.94 453.55 493.92 453.56 493.91 453.57 493.89 453.58 493.88 453.59 493.86 453.6 493.85 453.61 493.83 453.62 493.82 453.63 493.81 453.64 493.8 453.65 493.79 453.66 493.76 453.69 493.75 453.7 493.73 453.71 493.72 453.73 493.71 453.74 493.7 453.75 493.68 453.76 493.67 453.77 493.65 453.79 493.64 453.8 493.62 453.81 493.61 453.82 493.59 453.83 493.58 453.84 493.57 453.85 493.55 453.86 493.53 453.87 493.52 453.88 493.49 453.9 493.47 453.9 493.42 453.94 493.37 453.97 493.35 453.98 493.3 454.01 493.29 454.02 493.27 454.03 493.26 454.04 493.24 454.05 493.23 454.06 493.21 454.07 493.2 454.08 493.18 454.09 493.17 454.1 493.16 454.11 493.14 454.13 493.13 454.14 493.12 454.15 493.11 454.17 493.1 454.18 493.09 454.19 493.08 454.21 493.07 454.23 493.07 454.24 493.06 454.26 493.05 454.3 493.05 454.31 493.04 454.32 493.03 454.33 493.02 454.34 493 454.35 492.98 454.35 492.96 454.36 492.95 454.37 492.93 454.38 492.91 454.39 492.9 454.39 492.88 454.4 492.85 454.42 492.83 454.43 492.8 454.44 492.78 454.45 492.77 454.46 492.75 454.46 492.7 454.48 492.69 454.49 492.67 454.5 492.65 454.5 492.64 454.51 492.62 454.51 492.6 454.52 492.58 454.52 492.56 454.52 492.55 454.53 492.53 454.53 492.52 454.53 492.5 454.53 492.49 454.53 492.45 454.52 492.43 454.52 492.4 454.52 492.39 454.52 492.37 454.52 492.35 454.52 492.34 454.52 492.32 454.52 492.3 454.52 492.28 454.53 492.27 454.53 492.25 454.53 492.23 454.54 492.22 454.54 492.2 454.55 492.18 454.55 492.16 454.56 492.15 454.57 492.13 454.58 492.12 454.58 492.11 454.59 492.1 454.6 492.08 454.61 492.06 454.63 492.05 454.64 492.03 454.65 492.02 454.66 492.01 454.67 492 454.68 491.99 454.69 491.98 454.71 491.97 454.72 491.93 454.76 491.92 454.78 491.91 454.79 491.9 454.81 491.89 454.81 491.88 454.83 491.87 454.84 491.86 454.85 491.84 454.86 491.83 454.88 491.82 454.89 491.81 454.91 491.8 454.92 491.78 454.94 491.77 454.96 491.75 454.97 491.74 454.98 491.73 454.99 491.72 454.99 491.7 455 491.69 455.01 491.67 455.02 491.66 455.02 491.64 455.03 491.63 455.04 491.61 455.04 491.59 455.05 491.55 455.06 491.53 455.07 491.52 455.07 491.5 455.08 491.49 455.08 491.47 455.08 491.45 455.09 491.43 455.09 491.41 455.1 491.39 455.1 491.37 455.1 491.36 455.1 491.34 455.1 491.32 455.1 491.31 455.1 491.29 455.09 491.27 455.09 491.26 455.09 491.24 455.09 491.2 455.09 491.18 455.09 491.16 455.08 491.15 455.08 491.13 455.08 491.11 455.09 491.1 455.09 491.08 455.09 491.07 455.09 491.04 455.1 491.02 455.11 491.01 455.11 490.99 455.11 490.97 455.11 490.95 455.11 490.92 455.12 490.91 455.12 490.89 455.12 490.87 455.12 490.85 455.13 490.84 455.13 490.83 455.14 490.81 455.14 490.8 455.15 490.77 455.16 490.72 455.16 490.66 455.16 490.64 455.17 490.63 455.17 490.62 455.18 490.61 455.19 490.59 455.2 490.58 455.22 490.57 455.23 490.55 455.24 490.54 455.25 490.53 455.26 490.51 455.27 490.5 455.28 490.49 455.29 490.47 455.3 490.46 455.31 490.44 455.32 490.43 455.33 490.42 455.34 490.4 455.35 490.4 455.36 490.38 455.37 490.36 455.39 490.35 455.41 490.34 455.41 490.33 455.42 490.31 455.43 490.3 455.44 490.29 455.45 490.27 455.47 490.26 455.48 490.25 455.48 490.24 455.49 490.22 455.5 490.21 455.51 490.2 455.52 490.18 455.53 490.17 455.55 490.16 455.56 490.15 455.57 490.14 455.59 490.11 455.61 490.1 455.62 490.09 455.64 490.08 455.65 490.07 455.65 490.06 455.67 490.05 455.68 490.03 455.69 490.02 455.7 489.99 455.72 489.97 455.74 489.94 455.76 489.93 455.78 489.92 455.79 489.9 455.8 489.89 455.81 489.88 455.82 489.86 455.84 489.85 455.85 489.84 455.86 489.81 455.9 489.79 455.91 489.78 455.91 489.76 455.92 489.75 455.93 489.73 455.93 489.72 455.94 489.7 455.95 489.69 455.97 489.67 455.98 489.66 455.99 489.65 456 489.63 456.01 489.62 456.01 489.6 456.02 489.57 456.03 489.54 456.05 489.52 456.05 489.51 456.06 489.49 456.07 489.48 456.07 489.46 456.08 489.45 456.08 489.43 456.08 489.41 456.09 489.39 456.09 489.38 456.1 489.36 456.1 489.34 456.1 489.32 456.11 489.22 456.13 489.14 456.16 489.12 456.16 489.1 456.16 489.08 456.17 489.06 456.18 489.05 456.18 489.01 456.2 489 456.2 488.95 456.22 488.93 456.23 488.92 456.24 488.9 456.24 488.88 456.25 488.87 456.26 488.86 456.26 488.85 456.27 488.83 456.28 488.81 456.29 488.8 456.29 488.78 456.3 488.77 456.31 488.76 456.32 488.74 456.33 488.73 456.34 488.69 456.37 488.67 456.39 488.66 456.4 488.63 456.42 488.62 456.43 488.6 456.44 488.59 456.45 488.57 456.46 488.55 456.47 488.54 456.48 488.52 456.49 488.51 456.5 488.49 456.51 488.45 456.54 488.44 456.55 488.43 456.56 488.42 456.56 488.41 456.57 488.35 456.6 488.33 456.61 488.3 456.63 488.27 456.64 488.24 456.66 488.2 456.68 488.19 456.69 488.16 456.7 488.16 456.7 488.14 456.71 488.12 456.72 488.11 456.73 488.09 456.74 488.08 456.75 488.06 456.76 488.05 456.77 488.03 456.78 488.02 456.79 487.99 456.8 487.97 456.81 487.97 456.82 487.93 456.84 487.91 456.86 487.88 456.87 487.84 456.9 487.69 456.99 487.63 457.03 487.57 457.06 487.55 457.06 487.53 457.07 487.52 457.08 487.5 457.09 487.49 457.09 487.47 457.1 487.46 457.11 487.44 457.12 487.43 457.13 487.41 457.14 487.4 457.15 487.39 457.16 487.33 457.2 487.16 457.31 487.1 457.35 486.81 457.51 486.77 457.53 486.76 457.54 486.74 457.55 486.73 457.56 486.71 457.57 486.7 457.58 486.69 457.59 486.67 457.6 486.66 457.61 486.65 457.62 486.63 457.63 486.62 457.64 486.61 457.66 486.58 457.68 486.57 457.69 486.56 457.7 486.53 457.73 486.52 457.74 486.51 457.75 486.49 457.76 486.47 457.78 486.46 457.79 486.44 457.8 486.43 457.81 486.42 457.82 486.4 457.83 486.37 457.85 486.36 457.86 486.35 457.87 486.33 457.88 486.32 457.88 486.27 457.91 486.25 457.93 486.24 457.94 486.22 457.95 486.21 457.96 486.19 457.97 486.18 457.97 486.16 457.98 486.14 457.99 486.13 458 486.11 458 486.1 458.01 486.08 458.02 486.07 458.02 486.06 458.02 486.04 458.03 486.02 458.04 486.01 458.06 486 458.07 485.99 458.08 485.97 458.1 485.96 458.1 485.95 458.11 485.94 458.12 485.92 458.13 485.89 458.15 485.88 458.16 485.86 458.17 485.85 458.18 485.83 458.19 485.82 458.2 485.8 458.21 485.78 458.21 485.77 458.22 485.75 458.22 485.74 458.23 485.73 458.23 485.71 458.24 485.69 458.25 485.64 458.26 485.62 458.27 485.61 458.27 485.58 458.28 485.55 458.29 485.54 458.3 485.52 458.31 485.5 458.31 485.49 458.32 485.47 458.33 485.46 458.34 485.45 458.35 485.43 458.36 485.42 458.37 485.39 458.4 485.37 458.41 485.36 458.41 485.34 458.41 485.33 458.41 485.31 458.4 485.29 458.41 485.27 458.42 485.26 458.43 485.24 458.44 485.23 458.45 485.22 458.45 485.2 458.46 485.18 458.47 485.17 458.48 485.15 458.49 485.13 458.5 485.12 458.5 485.1 458.51 485.09 458.52 485.07 458.52 485.05 458.53 485.04 458.54 485.02 458.54 485.01 458.55 484.99 458.56 484.91 458.59 484.89 458.6 484.87 458.61 484.86 458.62 484.84 458.63 484.83 458.64 484.82 458.65 484.8 458.66 484.77 458.67 484.76 458.68 484.74 458.69 484.72 458.7 484.65 458.75 484.58 458.79 484.52 458.82 484.47 458.85 484.41 458.89 484.35 458.92 484.34 458.92 484.33 458.93 484.31 458.94 484.29 458.95 484.28 458.96 484.19 459.1 484.19 459.12 484.12 459.23 484.11 459.24 484.1 459.25 484.08 459.29 484.05 459.34 484.04 459.35 483.99 459.43 483.98 459.43 483.87 459.62 483.86 459.63 483.8 459.72 483.78 459.75 483.64 459.96 483.46 460.09 483.45 460.1 483.41 460.12 483.38 460.15 483.35 460.17 483.31 460.19 483.27 460.22 483.23 460.25 483.19 460.27 483.17 460.29 483.15 460.3 483.14 460.31 483.12 460.32 483.01 460.39 482.99 460.41 482.98 460.41 482.96 460.42 482.94 460.43 482.92 460.44 482.88 460.45 482.84 460.47 482.81 460.48 482.77 460.5 482.71 460.53 482.65 460.55 482.6 460.57 482.57 460.59 482.55 460.6 482.45 460.65 482.36 460.69 482.3 460.72 482.23 460.75 482.17 460.78 482.16 460.79 482.15 460.8 482.14 460.81 482.13 460.82 482.12 460.83 481.89 461 481.64 461.15 481.63 461.16 481.61 461.17 481.59 461.18 481.58 461.19 481.56 461.2 481.54 461.21 481.5 461.23 481.47 461.24 481.44 461.26 481.43 461.27 481.37 461.3 481.35 461.31 481.34 461.33 481.33 461.34 481.32 461.36 481.29 461.37 481.27 461.38 481.19 461.45 481.18 461.46 481.16 461.47 481.15 461.49 481.13 461.5 481.12 461.51 481.11 461.52 481.09 461.53 481.07 461.56 481.06 461.57 481.04 461.58 481.03 461.59 481.01 461.6 480.9 461.65 480.81 461.68 480.8 461.68 480.78 461.69 480.77 461.69 480.75 461.7 480.73 461.71 480.72 461.72 480.7 461.73 480.67 461.74 480.66 461.75 480.64 461.76 480.63 461.76 480.61 461.77 480.57 461.79 480.55 461.8 480.55 461.81 480.53 461.82 480.52 461.83 480.5 461.84 480.49 461.85 480.47 461.86 480.45 461.87 480.45 461.87 480.43 461.88 480.41 461.89 480.4 461.89 480.38 461.9 480.37 461.9 480.35 461.9 480.33 461.9 480.31 461.91 480.3 461.91 480.28 461.91 480.23 461.92 480.2 461.93 480.19 461.93 480.18 461.94 480.16 461.95 480.14 461.95 480.12 461.96 480.11 461.96 480.09 461.97 480.07 461.97 480.06 461.98 480.04 461.98 480.03 461.99 480.01 462 479.99 462 479.98 462.01 479.96 462.02 479.93 462.03 479.91 462.04 479.9 462.05 479.88 462.05 479.86 462.06 479.85 462.07 479.83 462.07 479.82 462.08 479.81 462.08 479.79 462.09 479.77 462.1 479.76 462.1 479.74 462.11 479.72 462.11 479.71 462.12 479.69 462.12 479.68 462.13 479.65 462.15 479.63 462.16 479.61 462.17 479.59 462.18 479.58 462.18 479.56 462.19 479.55 462.19 479.53 462.2 479.51 462.2 479.46 462.22 479.45 462.22 479.41 462.22 479.4 462.22 479.39 462.23 479.37 462.23 479.35 462.23 479.33 462.23 479.32 462.23 479.3 462.23 479.24 462.23 479.23 462.23 479.21 462.22 479.19 462.22 479.16 462.22 479.15 462.22 479.13 462.22 479.11 462.22 479.1 462.21 478.96 462.2 478.8 462.19 478.77 462.19 478.26 461.76 477.83 460.99 477.82 460.97 477.81 460.96 477.8 460.94 477.79 460.93 477.78 460.92 477.77 460.9 477.76 460.89 477.74 460.87 477.73 460.86 477.72 460.85 477.71 460.84 477.67 460.79 477.66 460.77 477.65 460.76 477.64 460.74 477.63 460.73 477.62 460.72 477.6 460.71 477.59 460.7 477.57 460.68 477.56 460.68 477.54 460.67 477.53 460.66 477.51 460.65 477.5 460.64 477.47 460.63 477.45 460.62 477.44 460.62 477.42 460.61 477.4 460.6 477.39 460.6 477.37 460.59 477.35 460.59 477.34 460.58 477.32 460.58 477.31 460.58 477.29 460.57 477.27 460.57 477.26 460.57 477.22 460.57 477.2 460.57 477.19 460.57 477.17 460.57 477.15 460.57 477.13 460.57 477.11 460.56 477.09 460.56 477.07 460.56 477.05 460.55 477.04 460.55 477.02 460.54 477.01 460.54 477 460.54 476.72 460.46 476.63 460.44 476.42 460.38 476.36 460.36 476.34 460.36 476.32 460.36 476.31 460.35 476.29 460.35 476.27 460.34 476.26 460.34 476.23 460.33 476.22 460.32 476.2 460.31 476.19 460.3 476.18 460.29 476.16 460.27 476.15 460.26 476.14 460.25 476.12 460.24 476.1 460.23 476.08 460.22 476.08 460.22 476.07 460.22 476.05 460.21 476.03 460.21 476.02 460.2 476 460.2 475.54 460.02 475.04 459.76 474.99 459.73 474.97 459.72 474.78 459.62 474.76 459.61 474.74 459.61 474.73 459.6 474.71 459.6 474.69 459.59 474.67 459.59 474.66 459.58 474.64 459.57 474.62 459.57 474.61 459.56 474.59 459.55 474.58 459.54 474.57 459.54 474.13 459.33 473.73 459.13 473.51 459.01 473.12 458.82 472.96 458.74 472.74 458.61 472.61 458.52 472.51 458.45 472.4 458.38 472.37 458.36 472.36 458.35 472.34 458.35 472.32 458.34 472.3 458.34 472.28 458.34 472.27 458.34 472.25 458.35 472.24 458.35 472.14 458.36 472.13 458.36 472.11 458.36 472.09 458.36 472.07 458.36 472.06 458.36 472.04 458.36 472.02 458.36 472 458.36 471.99 458.36 471.97 458.36 471.95 458.36 471.93 458.36 471.91 458.36 471.9 458.36 471.86 458.37 471.84 458.37 471.82 458.37 471.79 458.37 471.77 458.37 471.75 458.37 471.73 458.38 471.72 458.38 471.7 458.38 471.69 458.38 471.67 458.38 471.65 458.38 471.63 458.38 471.62 458.38 471.56 458.38 471.52 458.38 471.5 458.38 471.4 458.38 471.39 458.38 471.32 458.38 471.31 458.38 471.17 458.39 471.15 458.38 471.13 458.38 471.11 458.38 471.1 458.38 471.08 458.38 471.07 458.38 471.05 458.37 471.04 458.37 471.02 458.37 471 458.36 470.99 458.36 470.97 458.35 470.95 458.35 470.92 458.34 470.9 458.34 470.89 458.34 470.88 458.33 470.86 458.32 470.84 458.32 470.83 458.31 470.81 458.31 470.79 458.3 470.78 458.3 470.76 458.29 470.74 458.29 470.73 458.28 470.71 458.28 470.7 458.28 470.68 458.27 470.67 458.27 470.65 458.27 470.63 458.26 470.62 458.26 470.6 458.26 470.58 458.25 470.56 458.25 470.54 458.25 470.51 458.24 470.49 458.24 470.46 458.23 470.42 458.22 470.39 458.22 470.36 458.21 470.32 458.21 470.27 458.2 470.26 458.2 470.24 458.19 470.22 458.19 470.2 458.19 470.19 458.19 470.17 458.18 470.15 458.18 470.13 458.18 470.11 458.18 470.1 458.17 470.08 458.17 470.06 458.17 470.03 458.17 470.01 458.17 469.99 458.17 469.97 458.16 469.9 458.15 469.88 458.15 469.87 458.15 469.85 458.15 469.83 458.15 469.81 458.14 469.8 458.14 469.78 458.14 469.77 458.14 469.75 458.13 469.73 458.13 469.72 458.12 469.7 458.12 469.66 458.11 469.63 458.1 469.62 458.1 469.6 458.09 469.59 458.09 469.57 458.09 469.55 458.08 469.54 458.08 469.52 458.07 469.5 458.07 469.49 458.07 469.48 458.07 469.46 458.06 469.44 458.06 469.42 458.06 469.39 458.06 469.37 458.05 469.35 458.05 469.33 458.05 469.31 458.05 469.3 458.04 469.28 458.04 469.26 458.04 469.24 458.03 469.23 458.03 469.21 458.02 469.19 458.02 469.17 458.02 469.15 458.02 469.14 458.02 469.12 458.02 469.1 458.02 469.08 458.02 469.04 458.02 469.02 458.02 469 458.02 468.98 458.03 468.96 458.03 468.95 458.03 468.93 458.03 468.91 458.03 468.9 458.03 468.88 458.03 468.87 458.04 468.71 458.08 468.62 458.09 468.59 458.09 468.57 458.09 468.56 458.1 468.54 458.11 468.54 458.11 468.48 458.13 468.44 458.16 468.38 458.19 468.17 458.27 468.14 458.29 468.07 458.39 468.03 458.43 468.01 458.46 467.96 458.53 467.92 458.57 467.89 458.61 467.88 458.62 467.86 458.65 467.85 458.66 467.84 458.68 467.82 458.7 467.81 458.72 467.8 458.73 467.78 458.75 467.77 458.76 467.76 458.78 467.74 458.79 467.73 458.8 467.72 458.82 467.7 458.83 467.69 458.84 467.68 458.85 467.63 458.92 467.58 458.98 467.5 459.08 467.48 459.09 467.47 459.1 467.46 459.11 467.44 459.13 467.43 459.14 467.42 459.15 467.41 459.16 467.4 459.17 467.39 459.18 467.36 459.21 467.35 459.22 467.34 459.24 467.32 459.25 467.31 459.27 467.3 459.28 467.28 459.29 467.27 459.3 467.26 459.32 467.25 459.32 467.16 459.38 467.15 459.39 467.13 459.4 467.11 459.4 467.1 459.41 467.08 459.42 467.07 459.42 467.05 459.42 467.03 459.42 467.02 459.41 467 459.4 466.99 459.38 466.98 459.37 466.97 459.36 466.96 459.34 466.95 459.33 466.94 459.31 466.93 459.3 466.92 459.29 466.91 459.28 466.89 459.27 466.88 459.27 466.86 459.27 466.84 459.26 466.83 459.26 466.81 459.26 466.79 459.26 466.77 459.25 466.76 459.25 466.74 459.25 466.73 459.25 466.71 459.25 466.69 459.24 466.68 459.24 466.66 459.24 466.64 459.24 466.63 459.25 466.61 459.25 466.6 459.26 466.58 459.27 466.57 459.28 466.55 459.29 466.54 459.3 466.53 459.32 466.51 459.33 466.5 459.34 466.49 459.36 466.48 459.37 466.47 459.38 466.46 459.4 466.45 459.41 466.44 459.43 466.42 459.45 466.42 459.46 466.41 459.47 466.4 459.49 466.39 459.5 466.38 459.52 466.38 459.54 466.37 459.55 466.36 459.57 466.35 459.58 466.33 459.62 466.33 459.63 466.32 459.65 466.31 459.67 466.3 459.68 466.3 459.7 466.29 459.71 466.28 459.73 466.28 459.75 466.26 459.78 466.26 459.79 466.25 459.81 466.24 459.83 466.24 459.84 466.23 459.88 466.21 459.91 466.21 459.93 466.2 459.94 466.2 459.96 466.19 459.98 466.18 460.01 466.16 460.04 466.16 460.06 466.15 460.08 466.14 460.09 466.14 460.11 466.13 460.12 466.12 460.14 466.11 460.16 466.1 460.17 466.09 460.19 466.08 460.2 466.07 460.22 466.06 460.23 466.05 460.25 466.04 460.26 466.03 460.28 466.02 460.29 466.01 460.3 466 460.32 465.98 460.33 465.96 460.35 465.95 460.37 465.93 460.38 465.92 460.39 465.91 460.4 465.9 460.42 465.89 460.43 465.88 460.44 465.87 460.45 465.86 460.47 465.84 460.48 465.83 460.5 465.82 460.51 465.81 460.53 465.78 460.57 465.76 460.6 465.73 460.65 465.7 460.68 465.68 460.69 465.66 460.72 465.65 460.74 465.64 460.75 465.62 460.77 465.61 460.78 465.6 460.8 465.59 460.81 465.58 460.82 465.56 460.84 465.56 460.83 465.55 460.82 465.53 460.81 465.52 460.8 465.51 460.79 465.49 460.78 465.47 460.77 465.46 460.76 465.44 460.75 465.42 460.75 465.41 460.74 465.39 460.73 465.38 460.72 465.36 460.71 465.35 460.71 465.33 460.7 465.32 460.69 465.3 460.68 465.29 460.67 465.27 460.66 465.26 460.65 465.25 460.64 465.23 460.63 465.22 460.62 465.2 460.61 465.18 460.58 465.15 460.56 465.13 460.55 465.12 460.54 465.1 460.53 465.08 460.51 465.06 460.49 465.05 460.48 465.03 460.47 465.02 460.46 465.01 460.45 464.99 460.44 464.98 460.43 464.97 460.42 464.95 460.41 464.94 460.39 464.93 460.38 464.91 460.37 464.9 460.36 464.89 460.34 464.88 460.33 464.85 460.31 464.84 460.29 464.82 460.27 464.81 460.25 464.8 460.25 464.79 460.23 464.77 460.22 464.76 460.21 464.75 460.2 464.74 460.18 464.73 460.17 464.71 460.16 464.7 460.15 464.69 460.13 464.68 460.12 464.67 460.11 464.66 460.1 464.65 460.08 464.64 460.07 464.63 460.05 464.62 460.04 464.62 460.02 464.56 459.95 464.53 459.92 464.52 459.91 464.52 459.9 464.51 459.88 464.5 459.87 464.49 459.85 464.48 459.83 464.47 459.82 464.46 459.8 464.44 459.79 464.43 459.78 464.42 459.77 464.41 459.75 464.4 459.74 464.38 459.73 464.37 459.72 464.36 459.7 464.36 459.69 464.35 459.68 464.33 459.67 464.32 459.65 464.31 459.64 464.31 459.62 464.3 459.61 464.29 459.59 464.27 459.56 464.26 459.55 464.25 459.53 464.24 459.52 464.23 459.5 464.22 459.5 464.22 459.48 464.2 459.45 464.18 459.43 464.17 459.41 464.15 459.38 464.13 459.35 464.11 459.32 464.09 459.29 464.08 459.28 464.05 459.23 464.03 459.2 464.02 459.19 464.01 459.18 464 459.16 463.99 459.15 463.98 459.13 463.97 459.11 463.95 459.08 463.93 459.06 463.92 459.04 463.9 459.01 463.89 459 463.88 458.98 463.87 458.97 463.86 458.96 463.85 458.94 463.83 458.93 463.82 458.91 463.82 458.91 463.81 458.89 463.79 458.88 463.78 458.87 463.77 458.85 463.76 458.84 463.75 458.83 463.73 458.8 463.71 458.79 463.7 458.77 463.69 458.76 463.68 458.75 463.66 458.72 463.65 458.71 463.62 458.68 463.6 458.65 463.59 458.64 463.58 458.63 463.57 458.61 463.56 458.6 463.54 458.58 463.53 458.57 463.52 458.55 463.51 458.54 463.5 458.52 463.5 458.51 463.49 458.5 463.48 458.48 463.47 458.46 463.46 458.45 463.45 458.44 463.44 458.42 463.43 458.41 463.42 458.39 463.4 458.38 463.39 458.37 463.38 458.35 463.37 458.34 463.36 458.32 463.35 458.31 463.34 458.3 463.33 458.28 463.33 458.27 463.32 458.25 463.3 458.22 463.3 458.21 463.29 458.19 463.28 458.18 463.27 458.16 463.26 458.15 463.25 458.13 463.24 458.12 463.23 458.1 463.22 458.09 463.21 458.07 463.2 458.06 463.2 458.04 463.19 458.03 463.18 458.01 463.17 458 463.16 457.98 463.16 457.97 463.15 457.96 463.14 457.94 463.13 457.93 463.13 457.91 463.12 457.89 463.11 457.88 463.1 457.86 463.1 457.85 463.09 457.83 463.08 457.82 463.07 457.8 463.06 457.78 463.05 457.76 463.04 457.75 463.03 457.73 463.02 457.72 463.01 457.7 463 457.69 462.99 457.67 462.98 457.66 462.97 457.64 462.96 457.63 462.95 457.61 462.94 457.6 462.92 457.59 462.91 457.58 462.9 457.56 462.89 457.55 462.87 457.54 462.86 457.53 462.85 457.52 462.83 457.51 462.82 457.5 462.8 457.49 462.78 457.48 462.77 457.48 462.75 457.47 462.74 457.47 462.72 457.47 462.7 457.48 462.68 457.48 462.67 457.49 462.65 457.49 462.64 457.5 462.62 457.52 462.61 457.53 462.6 457.54 462.58 457.55 462.57 457.55 462.56 457.56 462.54 457.57 462.53 457.58 462.51 457.59 462.5 457.6 462.48 457.61 462.46 457.61 462.45 457.62 462.44 457.62 462.41 457.63 462.4 457.63 462.38 457.63 462.36 457.63 462.34 457.63 462.33 457.63 462.31 457.62 462.23 457.61 462.22 457.61 462.21 457.61 462.19 457.61 462.17 457.61 462.15 457.61 462.13 457.61 462.12 457.61 462.1 457.61 462.08 457.61 462.06 457.61 462.01 457.63 461.99 457.63 461.97 457.64 461.96 457.64 461.94 457.65 461.93 457.65 461.91 457.66 461.89 457.66 461.88 457.67 461.86 457.67 461.77 457.71 461.72 457.72 461.71 457.73 461.7 457.73 461.68 457.74 461.66 457.75 461.64 457.75 461.64 457.76 461.62 457.76 461.6 457.76 461.58 457.77 461.57 457.77 461.42 457.79 461.27 457.81 461.25 457.81 461.24 457.8 461.22 457.8 461.21 457.8 461.19 457.8 461.17 457.79 461.15 457.79 461.13 457.79 461.11 457.79 461.09 457.79 461.08 457.79 461.06 457.79 461.04 457.79 461.02 457.79 460.99 457.79 460.9 457.79 460.88 457.79 460.87 457.79 460.84 457.79 460.82 457.79 460.81 457.79 460.75 457.79 460.72 457.79 460.7 457.78 460.68 457.78 460.65 457.78 460.51 457.8 460.5 457.8 460.48 457.81 460.47 457.82 460.45 457.82 460.43 457.83 460.42 457.84 460.41 457.84 460.39 457.85 460.38 457.86 460.36 457.87 460.34 457.87 460.33 457.88 460.31 457.89 460.3 457.89 460.28 457.9 460.26 457.91 460.25 457.91 460.23 457.92 460.21 457.92 460.2 457.92 460.18 457.92 460.16 457.92 460.15 457.92 460.13 457.92 460.11 457.91 460.09 457.91 460.08 457.91 460.07 457.9 460.05 457.9 460.03 457.89 460.02 457.89 460 457.88 459.98 457.87 459.97 457.87 459.96 457.86 459.91 457.85 459.88 457.83 459.86 457.83 459.84 457.82 459.81 457.81 459.78 457.8 459.76 457.79 459.74 457.78 459.72 457.77 459.71 457.77 459.66 457.75 459.62 457.73 459.61 457.73 459.59 457.72 459.57 457.71 459.55 457.71 459.52 457.7 459.5 457.69 459.49 457.68 459.47 457.68 459.44 457.67 459.43 457.66 459.41 457.66 459.39 457.65 459.38 457.65 459.36 457.64 459.32 457.63 459.3 457.63 459.27 457.62 459.24 457.61 459.2 457.6 459.19 457.59 459.17 457.59 459.15 457.58 459.14 457.58 459.11 457.57 459.1 457.57 459.08 457.56 459.06 457.56 459.05 457.55 459.02 457.55 458.99 457.54 458.97 457.53 458.96 457.52 458.94 457.52 458.93 457.51 458.92 457.5 458.9 457.5 458.89 457.49 458.87 457.48 458.86 457.46 458.85 457.45 458.83 457.44 458.83 457.43 458.81 457.42 458.8 457.41 458.79 457.39 458.78 457.38 458.77 457.37 458.76 457.36 458.74 457.34 458.73 457.33 458.72 457.31 458.71 457.3 458.7 457.29 458.69 457.27 458.66 457.24 458.65 457.22 458.64 457.21 458.63 457.19 458.62 457.18 458.61 457.17 458.6 457.15 458.59 457.14 458.58 457.12 458.57 457.11 458.55 457.1 458.54 457.08 458.44 456.97 458.41 456.94 458.4 456.93 458.39 456.92 458.38 456.91 458.37 456.9 458.35 456.89 458.34 456.88 458.32 456.87 458.25 456.81 458.23 456.8 458.22 456.79 458.2 456.78 458.19 456.77 458.18 456.76 458.16 456.75 458.15 456.74 458.13 456.73 458.12 456.73 458.1 456.72 458.09 456.71 458.07 456.7 458.06 456.69 458.04 456.68 458.02 456.67 457.99 456.66 457.98 456.65 457.96 456.64 457.95 456.63 457.93 456.62 457.92 456.61 457.9 456.61 457.89 456.6 457.86 456.58 457.83 456.56 457.81 456.55 457.78 456.53 457.77 456.53 457.75 456.51 457.74 456.51 457.73 456.5 457.72 456.5 457.69 456.48 457.66 456.46 457.65 456.45 457.63 456.44 457.62 456.43 457.6 456.42 457.59 456.41 457.57 456.4 457.56 456.4 457.54 456.39 457.53 456.38 457.51 456.38 457.5 456.37 457.48 456.37 457.46 456.36 457.45 456.36 457.43 456.36 457.42 456.35 457.4 456.35 457.38 456.35 457.37 456.36 457.35 456.36 457.33 456.36 457.31 456.35 457.3 456.35 457.29 456.35 457.27 456.35 457.25 456.34 457.23 456.34 457.21 456.34 457.2 456.34 457.19 456.34 457.15 456.34 457.14 456.34 457.12 456.34 457.11 456.34 457.09 456.35 457.07 456.35 457.05 456.35 457.04 456.36 457.02 456.36 457 456.37 456.99 456.38 456.97 456.39 456.95 456.4 456.94 456.41 456.93 456.42 456.91 456.43 456.89 456.44 456.88 456.44 456.79 456.49 456.76 456.5 456.41 456.69 456.32 456.63 456.3 456.62 456.29 456.61 456.28 456.6 456.26 456.58 456.25 456.57 456.23 456.56 456.22 456.55 456.21 456.55 456.2 456.54 456.18 456.53 456.16 456.52 456.15 456.51 456.13 456.5 456.12 456.5 456.11 456.49 456.09 456.48 456.08 456.46 456.07 456.45 456.05 456.44 456.04 456.42 456.03 456.41 456 456.37 455.95 456.32 455.94 456.3 455.92 456.27 455.91 456.26 455.9 456.25 455.89 456.23 455.88 456.22 455.87 456.21 455.86 456.2 455.84 456.19 455.83 456.17 455.82 456.16 455.81 456.15 455.78 456.13 455.77 456.12 455.75 456.1 455.74 456.09 455.73 456.08 455.72 456.07 455.7 456.05 455.69 456.04 455.68 456.03 455.67 456.01 455.66 456 455.64 455.99 455.63 455.97 455.62 455.96 455.61 455.95 455.6 455.93 455.59 455.92 455.58 455.91 455.55 455.88 455.53 455.85 455.52 455.84 455.51 455.82 455.5 455.81 455.49 455.79 455.43 455.73 455.42 455.71 455.41 455.7 455.39 455.67 455.38 455.66 455.36 455.63 455.34 455.61 455.33 455.6 455.29 455.55 455.26 455.51 455.25 455.49 455.23 455.47 455.21 455.44 455.2 455.43 455.18 455.41 454.95 455.14 454.82 454.98 454.68 454.82 454.66 454.8 454.65 454.78 454.62 454.76 454.6 454.73 454.59 454.72 454.56 454.68 454.52 454.64 454.49 454.6 454.47 454.58 454.46 454.57 454.45 454.56 454.44 454.54 454.42 454.53 454.41 454.52 454.4 454.5 454.36 454.47 454.35 454.45 454.33 454.43 454.31 454.42 454.3 454.4 454.29 454.39 454.28 454.38 454.27 454.36 454.25 454.35 454.24 454.34 454.23 454.33 454.22 454.31 454.2 454.3 454.19 454.28 454.18 454.27 454.17 454.26 454.16 454.24 454.15 454.23 454.14 454.22 454.11 454.19 454.1 454.18 454.09 454.16 454.08 454.15 454.06 454.12 454.03 454.1 454.02 454.08 454.01 454.07 454 454.06 453.99 454.05 453.96 454.01 453.95 454 453.93 453.98 453.91 453.96 453.9 453.94 453.89 453.93 453.86 453.9 453.84 453.88 453.83 453.87 453.81 453.85 453.8 453.83 453.78 453.82 453.77 453.81 453.76 453.8 453.75 453.78 453.74 453.78 453.64 453.67 453.63 453.66 453.62 453.65 453.58 453.61 453.56 453.58 453.54 453.57 453.53 453.56 453.51 453.53 453.5 453.52 453.47 453.49 453.45 453.47 453.43 453.45 453.42 453.44 453.41 453.42 453.4 453.41 453.38 453.4 453.37 453.38 453.35 453.36 453.31 453.32 453.3 453.3 453.29 453.29 453.27 453.27 453.24 453.23 453.19 453.17 453.16 453.14 453.14 453.12 453.13 453.11 453.11 453.08 453.09 453.06 453.04 452.99 452.71 452.65 452.61 452.56 452.36 452.32 452.19 452.15 452 451.96 451.83 451.78 451.82 451.76 451.64 451.59 451.49 451.44 451.38 451.33 451.21 451.18 451.07 451.07 450.92 450.94 450.87 450.9 450.81 450.84 450.79 450.83 450.77 450.81 450.76 450.8 450.75 450.79 450.74 450.79 450.64 450.69 450.6 450.66 450.57 450.64 450.47 450.55 450.46 450.54 450.4 450.48 450.34 450.43 450.32 450.41 450.28 450.38 450.21 450.32 450.13 450.25 450.11 450.23 450.03 450.15 450 450.12 449.99 450.11 449.96 450.08 449.9 450.01 449.85 449.96 449.83 449.94 449.8 449.91 449.74 449.85 449.72 449.83 449.69 449.79 449.67 449.77 449.64 449.75 449.6 449.72 449.58 449.7 449.56 449.68 449.49 449.62 449.41 449.55 449.4 449.54 449.3 449.45 449.27 449.43 449.2 449.36 449.16 449.33 449.14 449.31 449.06 449.24 449.04 449.22 449.02 449.2 449.02 449.19 448.99 449.17 448.97 449.14 448.94 449.12 448.91 449.09 448.87 449.05 448.83 449 448.79 448.96 448.73 448.9 448.7 448.87 448.62 448.78 448.61 448.77 448.6 448.77 448.59 448.75 448.53 448.71 448.48 448.67 448.46 448.65 448.45 448.64 448.41 448.61 448.39 448.59 448.29 448.51 448.25 448.48 448.2 448.44 448.17 448.42 448.07 448.34 448.02 448.3 447.94 448.23 447.91 448.2 447.9 448.19 447.88 448.18 447.85 448.14 447.81 448.11 447.79 448.1 447.74 448.05 447.73 448.05 447.7 448.02 447.65 447.98 447.6 447.94 447.55 447.89 447.46 447.81 447.42 447.78 447.39 447.75 447.35 447.73 447.32 447.71 447.31 447.7 447.22 447.65 447.09 447.56 447.09 447.56 447.04 447.53 446.86 447.4 446.75 447.32 446.66 447.27 446.6 447.22 446.56 447.2 446.51 447.17 446.46 447.14 446.39 447.09 446.28 447.03 446.27 447.02 446.21 446.98 446.15 446.95 446.11 446.92 446.06 446.89 445.96 446.83 445.94 446.82 445.82 446.74 445.82 446.74 445.8 446.73 445.69 446.67 445.63 446.63 445.6 446.61 445.58 446.6 445.56 446.58 445.42 446.5 445.38 446.45 445.35 446.4 445.34 446.38 445.34 446.37 445.33 446.36 445.31 446.34 445.26 446.26 445.21 446.19 445.2 446.15 445.2 446.08 445.18 445.98 445.16 445.87 445.15 445.78 445.15 445.75 445.14 445.69 445.14 445.65 445.14 445.64 445.14 445.62 445.14 445.58 445.14 445.56 445.14 445.49 445.15 445.46 445.16 445.42 445.16 445.41 445.16 445.37 445.17 445.32 445.18 445.23 445.19 445.22 445.19 445.2 445.2 445.15 445.2 445.13 445.21 445.07 445.21 445.05 445.21 445.03 445.21 445.02 445.22 445 445.23 444.96 445.24 444.92 445.24 444.87 445.24 444.82 445.24 444.79 445.24 444.75 445.24 444.72 445.24 444.7 445.23 444.67 445.23 444.62 445.23 444.55 445.23 444.49 445.23 444.45 445.22 444.38 445.22 444.29 445.22 444.27 445.22 444.18 445.22 444.13 445.22 444.06 445.22 444.03 445.22 444.02 445.21 443.97 445.21 443.96 445.2 443.92 445.17 443.85 445.16 443.8 445.16 443.79 445.16 443.78 445.16 443.73 445.15 443.65 445.15 443.58 445.15 443.57 445.14 443.56 445.14 443.53 445.13 443.51 445.13 443.48 445.13 443.4 445.13 443.39 445.13 443.31 445.13 443.3 445.13 443.27 445.13 443.26 445.13 443.22 445.13 443.17 445.13 443.12 445.13 443.07 445.13 443.01 445.12 442.96 445.12 442.91 445.12 442.87 445.12 442.86 445.12 442.79 445.12 442.71 445.12 442.66 445.12 442.55 445.12 442.54 445.12 442.45 445.12 442.43 445.13 442.32 445.15 442.19 445.16 442.13 445.17 442.08 445.17 442.04 445.18 441.97 445.2 441.93 445.22 441.91 445.24 441.88 445.26 441.85 445.28 441.82 445.31 441.78 445.35 441.73 445.43 441.63 445.46 441.58 445.64 441.33 445.76 441.16 445.82 441.07 445.84 441.05 445.91 440.95 445.94 440.87 445.94 440.83 445.93 440.79 445.92 440.75 445.91 440.73 445.9 440.7 445.88 440.63 445.87 440.62 445.87 440.6 445.84 440.56 445.77 440.44 445.69 440.31 445.62 440.19 445.53 440.04 445.39 439.84 445.31 439.71 445.3 439.7 445.25 439.65 445.2 439.61 445.13 439.55 445.04 439.46 444.92 439.37 444.79 439.25 444.78 439.24 444.68 439.16 444.7 439.05 444.71 438.97 444.66 438.9 444.64 438.89 444.58 438.81 444.53 438.73 444.51 438.68 444.48 438.62 444.49 438.6 444.52 438.54 444.55 438.45 444.61 438.31 444.67 438.17 444.68 438.15 444.69 438.13 444.7 438.11 444.72 438.05 444.73 437.95 444.77 437.81 444.8 437.69 444.83 437.56 444.83 437.54 444.86 437.43 444.89 437.29 444.89 437.29 444.9 437.26 444.9 437.25 444.9 437.23 444.93 437.12 444.97 436.92 445.1 436.5 445.1 436.46 445.13 436.39 445.14 436.33 445.16 436.28 445.19 436.22 445.22 436.14 445.22 436.13 445.24 436.08 445.26 436.02 445.28 435.96 445.29 435.91 445.3 435.89 445.31 435.84 445.34 435.78 445.36 435.75 445.37 435.73 445.39 435.66 445.4 435.65 445.41 435.62 445.44 435.55 445.49 435.43 445.49 435.41 445.53 435.33 445.57 435.19 445.62 435.07 445.67 434.97 445.69 434.92 445.71 434.86 445.72 434.8 445.8 434.67 445.88 434.5 445.89 434.48 445.98 434.27 446.11 433.97 446.14 433.89 446.15 433.87 446.19 433.71 446.23 433.51 446.28 433.36 446.32 433.3 446.47 432.84 446.54 432.63 446.59 432.48 446.61 432.43 446.77 431.93 446.77 431.9 446.82 431.5 446.86 431.22 446.88 431.08 447 430.91 447.01 430.9 447.02 430.89 447.1 430.76 447.11 430.75 447.16 430.7 447.43 430.44 447.5 430.38 447.63 430.25 447.67 430.22 447.77 430.2 447.82 430.19 448.11 430.14 448.15 430.13 448.17 430.13 448.28 430.11 448.4 430.09 448.53 430.06 448.61 430.1 448.73 430.16 448.85 430.24 448.99 430.33 449.15 430.45 449.41 430.63 449.57 430.75 449.62 430.75 449.64 430.75 449.77 430.77 449.93 430.79 450.06 430.81 450.22 430.83 450.29 430.84 450.31 430.8 450.36 430.7 450.41 430.59 450.44 430.53 450.46 430.48 450.47 430.47 450.53 430.32 450.56 430.28 450.59 430.26 450.66 430.2 450.68 430.19 450.75 430.13 450.77 430.12 450.81 430.08 450.91 429.99 450.94 429.96 450.94 429.95 451 429.82 451.05 429.71 451.06 429.68 451.08 429.63 451.11 429.61 451.14 429.58 451.17 429.56 451.21 429.56 451.26 429.55 451.32 429.53 451.41 429.52 451.5 429.49 451.54 429.49 451.59 429.5 451.6 429.5 451.61 429.5 451.63 429.5 451.64 429.51 451.66 429.52 451.68 429.52 451.78 429.55 451.88 429.6 451.93 429.63 452.01 429.67 452.09 429.74 452.21 429.86 452.29 429.92 452.39 429.98 452.49 430.03 452.6 430.06 452.73 430.06 452.84 430.07 452.95 430.07 453.04 430.09 453.09 430.12 453.14 430.17 453.27 430.29 453.37 430.37 453.49 430.46 453.6 430.51 453.69 430.55 453.78 430.57 453.91 430.57 453.97 430.58 454.01 430.61 454.06 430.66 454.11 430.71 454.14 430.72 454.19 430.73 454.27 430.72 454.35 430.72 454.4 430.72 454.44 430.74 454.47 430.79 454.52 430.85 454.57 430.91 454.63 430.97 454.68 431 454.74 431.02 454.8 431.05 454.89 431.11 454.99 431.17 455.08 431.22 455.16 431.25 455.24 431.26 455.31 431.28 455.32 431.28 455.38 431.32 455.44 431.38 455.48 431.42 455.53 431.49 455.56 431.51 455.63 431.52 455.73 431.48 455.85 431.44 455.88 431.43 455.91 431.43 455.94 431.44 455.98 431.5 456.02 431.55 456.05 431.59 456.09 431.63 456.15 431.67 456.22 431.7 456.32 431.73 456.44 431.77 456.55 431.79 456.64 431.81 456.75 431.83 456.82 431.84 456.88 431.86 456.93 431.88 457.02 431.94 457.1 432.01 457.23 432.09 457.32 432.15 457.4 432.19 457.47 432.22 457.55 432.24 457.63 432.26 457.72 432.27 457.79 432.28 457.83 432.3 457.86 432.32 457.91 432.38 457.97 432.44 458.03 432.5 458.06 432.52 458.11 432.54 458.18 432.56 458.25 432.59 458.29 432.62 458.35 432.69 458.39 432.75 458.44 432.78 458.48 432.81 458.53 432.8 458.61 432.79 458.69 432.77 458.76 432.77 458.81 432.78 458.87 432.81 458.92 432.86 458.97 432.91 459.04 432.98 459.12 433.04 459.24 433.11 459.38 433.18 459.48 433.24 459.56 433.29 459.62 433.33 459.66 433.33 459.75 433.31 459.87 433.3 459.97 433.3 460.03 433.31 460.07 433.33 460.11 433.37 460.16 433.45 460.23 433.5 460.28 433.55 460.37 433.62 460.42 433.65 460.52 433.7 460.6 433.73 460.67 433.75 460.74 433.77 460.81 433.79 460.88 433.8 460.95 433.8 461 433.8 461.05 433.79 461.1 433.76 461.15 433.72 461.16 433.7 461.17 433.7 461.18 433.69 461.19 433.68 461.21 433.66 461.31 433.59 461.4 433.53 461.57 433.41 461.73 433.27 461.88 433.16 461.9 433.15 461.98 433.09 462.03 433.05 462.07 433.02 462.1 433 462.19 432.92 462.22 432.91 462.22 432.9 462.28 432.86 462.37 432.79 462.49 432.72 462.5 432.71 462.53 432.7 462.58 432.67 462.67 432.63 462.69 432.62 462.71 432.61 462.74 432.6 462.76 432.59 462.79 432.57 462.83 432.55 462.9 432.52 462.97 432.47 463.03 432.42 463.04 432.41 463.09 432.36 463.18 432.28 463.23 432.24 463.26 432.22 463.32 432.17 463.36 432.14 463.46 432.08 463.5 432.05 463.57 432 463.65 431.95 463.7 431.91 463.77 431.88 463.81 431.86 463.86 431.82 463.87 431.8 463.88 431.79 463.94 431.74 464.05 431.66 464.14 431.59 464.15 431.58 464.19 431.54 464.37 431.41 464.53 431.29 464.66 431.16 464.79 431.04 464.9 430.94 464.95 430.91 464.98 430.89 464.99 430.88 465.02 430.87 465.12 430.83 465.25 430.79 465.38 430.73 465.53 430.67 465.63 430.61 465.75 430.54 465.92 430.45 466.05 430.38 466.16 430.32 466.21 430.29 466.27 430.26 466.31 430.22 466.35 430.18 466.4 430.14 466.44 430.12 466.49 430.09 466.54 430.09 466.59 430.09 466.62 430.09 466.68 430.1 466.75 430.11 466.83 430.1 466.88 430.09 466.92 430.09 467.03 430.07 467.13 430.05 467.15 430.05 467.16 430.05 467.27 430.03 467.37 430 467.46 429.98 467.47 429.98 467.49 429.97 467.6 429.95 467.68 429.92 467.76 429.88 467.77 429.88 467.78 429.87 467.8 429.86 467.82 429.85 467.87 429.83 467.91 429.79 467.98 429.74 468.06 429.67 468.07 429.67 468.1 429.64 468.12 429.63 468.13 429.62 468.17 429.6 468.22 429.58 468.29 429.53 468.36 429.49 468.41 429.46 468.47 429.43 468.48 429.42 468.54 429.37 468.59 429.35 468.64 429.32 468.68 429.29 468.69 429.28 468.75 429.24 468.77 429.22 468.79 429.21 468.81 429.2 468.84 429.18 468.94 429.11 469.03 429.04 469.13 428.98 469.27 428.92 469.34 428.88 469.43 428.85 469.51 428.81 469.58 428.79 469.64 428.78 469.72 428.76 469.79 428.74 469.84 428.74 469.89 428.73 469.9 428.73 469.92 428.72 469.95 428.7 470.04 428.67 470.13 428.64 470.21 428.63 470.29 428.62 470.36 428.61 470.43 428.59 470.5 428.57 470.57 428.53 470.65 428.49 470.72 428.44 470.79 428.42 470.85 428.41 470.86 428.41 470.89 428.4 471.01 428.37 471.09 428.36 471.19 428.34 471.3 428.33 471.4 428.31 471.51 428.3 471.65 428.28 471.73 428.27 471.76 428.26 471.88 428.23 472.02 428.21 472.06 428.2 472.08 428.2 472.18 428.17 472.24 428.16 472.34 428.13 472.45 428.1 472.47 428.1 472.55 428.08 472.6 428.06 472.62 428.06 472.67 428.04 472.74 428.02 472.82 427.99 472.83 427.99 472.89 427.97 472.93 427.95 473.02 427.92 473.11 427.88 473.19 427.85 473.36 427.78 473.39 427.78 473.41 427.78 473.66 427.73 473.74 427.72 473.84 427.69 473.93 427.66 474.05 427.63 474.22 427.58 474.3 427.55 474.42 427.52 474.44 427.51 474.46 427.51 474.47 427.5 474.6 427.46 474.63 427.46 474.64 427.46 474.72 427.46 474.86 427.46 474.95 427.46 475 427.45 475.02 427.45 475.06 427.45 475.07 427.46 475.15 427.45 475.21 427.45 475.26 427.45 475.29 427.45 475.32 427.45 475.38 427.45 475.44 427.45 475.49 427.45 475.49 427.45 475.52 427.44 475.55 427.44 475.6 427.43 475.65 427.42 475.7 427.41 475.75 427.41 475.81 427.41 475.86 427.4 475.91 427.41 475.95 427.41 475.97 427.41 476.02 427.42 476.09 427.41 476.11 427.4 476.17 427.38 476.18 427.38 476.19 427.38 476.22 427.38 476.29 427.37 476.41 427.34 476.56 427.31 476.69 427.28 476.81 427.26 476.91 427.23 477.03 427.21 477.13 427.18 477.23 427.15 477.31 427.15 477.43 427.13 477.53 427.12 477.64 427.11 477.77 427.1 477.9 427.08 477.91 427.07 477.94 427.07 477.98 427.07 478.02 427.06 478.05 427.06 478.07 427.05 478.1 427.05 478.15 427.03 478.2 427.01 478.23 427 478.25 427 478.31 426.97 478.37 426.93 478.52 426.85 478.62 426.79 478.67 426.76 478.73 426.73 478.78 426.72 478.81 426.72 478.84 426.73 478.89 426.73 478.93 426.73 478.99 426.72 479.05 426.71 479.11 426.7 479.18 426.69 479.26 426.67 479.33 426.65 479.41 426.63 479.42 426.63 479.49 426.61 479.58 426.59 479.64 426.57 479.67 426.57 479.71 426.56 479.74 426.55 479.8 426.54 479.82 426.54 479.85 426.54 479.92 426.53 479.95 426.52 480 426.51 480.01 426.51 480.09 426.5 480.18 426.49 480.27 426.47 480.28 426.47 480.31 426.46 480.35 426.46 480.36 426.45 480.39 426.44 480.49 426.43 480.54 426.41 480.62 426.39 480.65 426.39 480.7 426.38 480.77 426.36 480.84 426.34 480.9 426.32 480.92 426.31 480.95 426.3 481 426.29 481.05 426.27 481.09 426.27 481.1 426.27 481.16 426.25 481.24 426.24 481.29 426.25 481.36 426.25 481.39 426.25 481.42 426.25 481.45 426.24 481.48 426.24 481.51 426.24 481.56 426.23 481.58 426.22 481.6 426.22 481.63 426.22 481.65 426.21 481.68 426.21 481.71 426.2 481.73 426.2 481.76 426.2 481.79 426.2 481.82 426.19 481.85 426.19 481.88 426.18 481.91 426.17 481.95 426.17 481.98 426.16 482.01 426.15 482.03 426.14 482.07 426.13 482.1 426.12 482.13 426.11 482.16 426.11 482.18 426.1 482.21 426.09 482.23 426.08 482.25 426.07 482.28 426.06 482.3 426.04 482.33 426.02 482.35 425.99 482.38 425.97 482.4 425.95 482.43 425.94 482.45 425.93 482.47 425.93 482.48 425.92 482.5 425.92 482.53 425.91 482.57 425.9 482.61 425.9 482.64 425.9 482.68 425.89 482.72 425.88 482.76 425.87 482.78 425.85 482.82 425.84 482.86 425.82 482.89 425.8 482.97 425.76 483.01 425.74 483.05 425.72 483.08 425.72 483.16 425.7 483.19 425.69 483.22 425.69 483.27 425.68 483.32 425.68 483.36 425.68 483.39 425.68 483.41 425.67 483.43 425.67 483.48 425.66 483.55 425.65 483.6 425.64 483.65 425.64 483.7 425.64 483.75 425.63 483.76 425.63 483.82 425.62 483.85 425.62 483.87 425.61 483.9 425.6 483.92 425.6 483.96 425.59 484 425.59 484.04 425.58 484.07 425.58 484.11 425.58 484.12 425.58 484.13 425.58 484.15 425.58 484.17 425.58 484.19 425.57 484.26 425.58 484.28 425.58 484.29 425.58 484.34 425.58 484.39 425.58 484.44 425.57 484.5 425.57 484.55 425.56 484.64 425.59 484.8 425.64 484.95 425.71 485.04 425.74 485.1 425.77 485.13 425.81 485.16 425.87 485.17 425.88 485.18 425.91 485.18 425.92 485.18 425.98 485.19 426.01 485.2 426.04 485.21 426.09 485.24 426.15 485.27 426.19 485.29 426.21 485.39 426.3 485.54 426.42 485.68 426.57 485.78 426.67 485.78 426.67 485.82 426.72 485.86 426.75 485.91 426.77 485.97 426.78 486.03 426.78 486.09 426.79 486.15 426.79 486.21 426.78 486.24 426.77 486.29 426.77 486.33 426.78 486.38 426.8 486.46 426.84 486.54 426.9 486.62 426.95 486.71 427 486.8 427.07 486.85 427.11 486.91 427.14 486.93 427.15 486.95 427.15 487.02 427.18 487.09 427.22 487.15 427.25 487.19 427.27 487.25 427.32 Z"/>
</g></svg>