<svg xmlns="http://www.w3.org/2000/svg" version="1.2" baseProfile="tiny" stroke-linecap="round" stroke-linejoin="round" viewBox="446.37 576.45 25.85 32.6"><g xmlns="http://www.w3.org/2000/svg" id="Fitero">
<path d="M 470.19 578.99 470.17 579.03 470.16 579.05 470.14 579.08 470.12 579.13 470.12 579.16 470.09 579.18 470.08 579.18 470.06 579.18 470.02 579.19 470 579.18 469.98 579.16 469.94 579.13 469.9 579.12 469.87 579.11 469.84 579.11 469.82 579.11 469.79 579.1 469.77 579.08 469.75 579.07 469.7 579.03 469.65 579.01 469.62 579.01 469.59 579.03 469.54 579.07 469.5 579.1 469.43 579.16 469.39 579.19 469.38 579.23 469.38 579.26 469.41 579.33 469.42 579.36 469.41 579.38 469.4 579.43 469.4 579.47 469.41 579.48 469.41 579.49 469.48 579.53 469.54 579.56 469.56 579.55 469.6 579.52 469.63 579.5 469.66 579.48 469.7 579.43 469.71 579.42 469.73 579.42 469.77 579.44 469.79 579.44 469.8 579.44 469.82 579.42 469.86 579.39 469.89 579.39 469.95 579.4 469.98 579.41 469.99 579.44 469.99 579.45 469.98 579.47 469.96 579.5 469.94 579.52 469.91 579.53 469.89 579.56 469.86 579.58 469.85 579.59 469.83 579.61 469.82 579.62 469.81 579.64 469.81 579.65 469.77 579.75 469.76 579.8 469.76 579.82 469.76 579.85 469.78 579.86 469.8 579.88 469.84 579.91 469.85 579.92 469.88 579.96 469.88 579.97 469.9 579.97 469.94 579.97 469.97 579.96 470 579.97 470.04 579.96 470.06 579.97 470.09 579.99 470.11 580.01 470.13 580.04 470.14 580.06 470.17 580.06 470.2 580.07 470.21 580.09 470.23 580.1 470.23 580.12 470.23 580.15 470.24 580.16 470.27 580.17 470.28 580.19 470.29 580.21 470.28 580.21 470.26 580.23 470.18 580.25 470.12 580.27 470.07 580.27 470.04 580.3 469.98 580.34 469.92 580.36 469.85 580.4 469.78 580.44 469.73 580.46 469.66 580.5 469.62 580.53 469.58 580.53 469.49 580.53 469.46 580.55 469.41 580.58 469.36 580.62 469.32 580.65 469.26 580.66 469.17 580.69 469.13 580.7 469.06 580.7 469.04 580.72 469.04 580.73 469.05 580.76 469.06 580.79 469.04 580.82 469.02 580.86 468.99 580.88 468.95 580.89 468.91 580.87 468.87 580.86 468.81 580.92 468.77 580.98 468.78 581.01 468.8 581.08 468.79 581.12 468.77 581.13 468.72 581.16 468.68 581.18 468.64 581.18 468.62 581.19 468.61 581.21 468.61 581.23 468.63 581.25 468.65 581.27 468.68 581.28 468.69 581.29 468.7 581.31 468.7 581.34 468.66 581.43 468.63 581.51 468.58 581.56 468.54 581.58 468.53 581.58 468.51 581.62 468.47 581.66 468.46 581.68 468.46 581.71 468.46 581.75 468.42 581.79 468.4 581.81 468.41 581.85 468.41 581.92 468.39 581.96 468.37 582.01 468.37 582.04 468.37 582.08 468.37 582.12 468.35 582.18 468.3 582.25 468.26 582.32 468.2 582.39 468.14 582.46 468.08 582.52 468.01 582.56 468 582.58 467.99 582.62 467.96 582.66 467.93 582.7 467.91 582.7 467.87 582.68 467.82 582.65 467.79 582.62 467.75 582.61 467.72 582.61 467.68 582.64 467.64 582.68 467.64 582.71 467.64 582.76 467.66 582.81 467.68 582.84 467.69 582.87 467.74 582.93 467.74 582.98 467.74 582.99 467.72 583.02 467.69 583.06 467.67 583.09 467.66 583.13 467.65 583.19 467.63 583.23 467.57 583.27 467.56 583.28 467.54 583.29 467.51 583.3 467.49 583.3 467.47 583.29 467.45 583.27 467.43 583.26 467.38 583.24 467.36 583.23 467.34 583.22 467.3 583.22 467.25 583.21 467.23 583.19 467.21 583.19 467.18 583.21 467.15 583.24 467.14 583.27 467.11 583.33 467.11 583.35 467.11 583.36 467.12 583.37 467.14 583.38 467.16 583.38 467.19 583.4 467.2 583.41 467.23 583.43 467.26 583.47 467.27 583.49 467.27 583.51 467.33 583.55 467.33 583.59 467.35 583.7 467.36 583.73 467.35 583.75 467.34 583.78 467.32 583.82 467.29 583.85 467.26 583.86 467.24 583.86 467.21 583.85 467.18 583.85 467.17 583.85 467.11 583.87 467.1 583.89 467.07 583.95 467.05 583.97 467.07 583.98 467.09 583.99 467.1 584 467.12 584.03 467.14 584.05 467.15 584.05 467.18 584.05 467.21 584.05 467.22 584.05 467.22 584.08 467.21 584.12 467.2 584.15 467.2 584.16 467.22 584.2 467.26 584.23 467.35 584.3 467.36 584.31 467.53 584.45 467.71 584.59 467.88 584.72 467.9 584.71 468 584.69 468.07 584.67 468.18 584.64 468.24 584.62 468.32 584.59 468.61 584.51 468.76 584.47 468.86 584.57 468.94 584.66 468.98 584.7 469.14 584.88 469.18 584.92 469.2 584.95 469.18 584.95 469.15 584.95 469.09 584.95 469.03 584.95 468.96 584.95 468.88 584.97 468.81 584.99 468.76 585.02 468.7 585.07 468.63 585.13 468.57 585.16 468.52 585.24 468.44 585.32 468.38 585.38 468.36 585.39 468.28 585.41 468.23 585.43 468.16 585.46 468.12 585.45 468.04 585.45 468 585.45 467.98 585.45 467.96 585.46 467.94 585.49 467.91 585.53 467.89 585.54 467.87 585.54 467.85 585.54 467.82 585.54 467.79 585.53 467.74 585.52 467.7 585.53 467.67 585.54 467.66 585.55 467.64 585.59 467.65 585.63 467.65 585.65 467.65 585.66 467.66 585.67 467.67 585.72 467.69 585.83 467.7 585.87 467.71 585.93 467.73 586.05 467.74 586.13 467.75 586.22 467.76 586.24 467.76 586.28 467.77 586.35 467.78 586.47 467.79 586.48 467.79 586.5 467.8 586.56 467.8 586.59 467.8 586.62 467.81 586.74 467.82 586.85 467.84 586.98 467.86 587.1 467.87 587.17 467.88 587.18 467.89 587.2 467.9 587.22 467.95 587.34 468.02 587.49 468.06 587.58 468.11 587.69 468.15 587.8 468.21 587.92 468.26 588.03 468.32 588.16 468.37 588.27 468.42 588.39 468.48 588.53 468.53 588.62 468.55 588.68 468.56 588.71 468.58 588.74 468.63 588.85 468.68 588.96 468.72 589.04 468.73 589.07 468.77 589.18 468.82 589.27 468.87 589.39 468.92 589.48 468.98 589.62 469.04 589.73 469.08 589.82 469.1 589.86 469.11 589.89 469.12 589.93 469.17 590.04 469.21 590.14 469.24 590.21 469.25 590.23 469.26 590.24 469.28 590.3 469.31 590.37 469.37 590.5 469.44 590.64 469.46 590.68 469.46 590.69 469.47 590.7 469.5 590.75 469.53 590.81 469.54 590.82 469.55 590.84 469.56 590.86 469.57 590.87 469.59 590.94 469.62 590.95 469.62 590.98 469.63 590.99 469.75 591.25 469.76 591.27 469.82 591.41 469.84 591.47 469.9 591.6 469.98 591.79 470.04 591.92 470.08 592.02 470.09 592.03 470.09 592.04 470.16 592.19 470.25 592.4 470.3 592.49 470.3 592.5 470.36 592.64 470.37 592.65 470.38 592.67 470.42 592.77 470.43 592.8 470.46 592.84 470.48 592.9 470.49 592.92 470.52 592.98 470.64 593.16 470.76 593.36 470.77 593.37 470.83 593.45 470.86 593.51 470.87 593.52 470.94 593.64 470.95 593.65 471 593.73 471.02 593.77 471.09 593.9 471.19 594.07 471.24 594.15 471.25 594.17 471.31 594.27 471.36 594.35 471.36 594.36 471.37 594.37 471.41 594.43 471.46 594.48 471.55 594.58 471.67 594.72 471.89 594.97 471.87 595.15 471.85 595.24 471.9 595.32 471.97 595.45 472 595.5 472 595.51 472.06 595.61 472.06 595.61 472.07 595.62 472.09 595.66 472.1 595.67 472.12 595.72 472.16 595.78 472.16 595.79 472.17 595.8 472.18 595.82 472.19 595.84 472.17 595.85 472.13 595.86 471.77 596.17 471.49 596.42 471.23 596.65 470.84 596.98 470.68 597.11 470.55 597.21 470.4 597.34 470.3 597.43 470.22 597.52 470.16 597.6 470.11 597.67 470.05 597.76 470.01 597.84 469.95 597.95 469.89 598.06 469.83 598.2 469.76 598.36 469.68 598.53 469.63 598.64 469.58 598.75 469.53 598.84 469.48 598.94 469.44 599.01 469.41 599.06 469.35 599.13 469.25 599.27 469.15 599.41 469.02 599.54 469.01 599.56 469.01 599.58 468.98 599.63 468.95 599.68 468.91 599.73 468.86 599.8 468.83 599.83 468.82 599.85 468.8 599.87 468.78 599.89 468.73 599.94 468.66 600 468.62 600.03 468.52 600.09 468.44 600.13 468.38 600.15 468.32 600.16 468.29 600.17 468.27 600.17 468.23 600.18 468.21 600.18 468.04 600.22 468.01 600.22 467.89 600.24 467.76 600.26 467.71 600.27 467.65 600.28 467.61 600.29 467.58 600.3 467.53 600.34 467.44 600.41 467.38 600.49 467.33 600.57 467.31 600.64 467.29 600.69 467.21 600.94 467.16 601.11 467.12 601.25 467.12 601.27 467.14 601.27 467.18 601.26 467.22 601.27 467.23 601.27 467.27 601.28 467.31 601.3 467.34 601.33 467.38 601.36 467.39 601.38 467.43 601.44 467.45 601.48 467.47 601.52 467.49 601.57 467.5 601.6 467.51 601.65 467.51 601.67 467.52 601.71 467.52 601.75 467.55 601.76 467.56 601.76 467.68 601.78 467.71 601.78 467.72 601.79 467.77 601.8 467.83 601.81 467.84 601.81 467.84 601.82 467.87 601.89 467.89 601.93 467.9 601.95 467.9 601.97 468.01 602.21 468.04 602.29 468.08 602.4 468.13 602.51 468.2 602.67 468.26 602.82 468.32 602.94 468.41 603.15 468.5 603.34 468.51 603.36 468.53 603.37 468.53 603.38 468.54 603.4 468.54 603.42 468.54 603.44 468.54 603.46 468.56 603.49 468.63 603.56 468.65 603.58 468.65 603.6 468.64 603.65 468.64 603.67 468.72 603.78 468.78 603.87 468.79 603.89 468.8 603.98 468.81 604 468.83 604.03 468.87 604.06 468.88 604.09 468.99 604.16 469.03 604.2 469.03 604.25 469.04 604.28 469.06 604.3 469.11 604.33 469.14 604.38 469.17 604.43 469.2 604.49 469.22 604.52 469.23 604.54 469.23 604.57 469.24 604.6 469.25 604.63 469.26 604.64 469.27 604.66 469.29 604.68 469.31 604.68 469.37 604.68 469.4 604.68 469.41 604.68 469.42 604.7 469.43 604.72 469.43 604.76 469.44 604.79 469.53 604.91 469.58 604.96 469.62 604.98 469.68 604.99 469.71 605.02 469.75 605.06 469.79 605.1 469.8 605.13 469.81 605.14 469.81 605.18 469.81 605.19 469.83 605.22 469.87 605.25 469.9 605.28 469.93 605.32 469.95 605.37 469.97 605.42 469.98 605.46 470 605.51 470 605.56 470 605.62 469.99 605.69 469.99 605.75 470.01 605.81 470.03 605.88 470.05 605.94 470.06 605.96 470.06 605.99 470.06 606.02 470.06 606.12 470.07 606.18 470.07 606.19 470.09 606.27 470.1 606.32 470.12 606.41 470.14 606.51 470.16 606.6 470.18 606.66 470.19 606.7 470.22 606.73 470.23 606.77 470.24 606.84 470.25 606.89 470.26 606.94 470.31 607.08 470.32 607.11 470.35 607.19 470.4 607.25 470.43 607.32 470.45 607.35 470.44 607.41 470.44 607.46 470.43 607.49 470.44 607.54 470.46 607.59 470.48 607.65 470.49 607.7 470.49 607.74 470.5 607.77 470.51 607.82 470.52 607.85 470.55 607.9 470.59 607.95 470.62 608 470.67 608.05 470.7 608.09 470.76 608.14 470.83 608.19 470.88 608.23 470.88 608.23 470.92 608.26 470.96 608.28 471 608.35 471.05 608.44 471.09 608.5 471.14 608.58 471.19 608.65 471.18 608.68 471.16 608.71 470.94 608.78 470.82 608.82 470.8 608.82 470.61 608.87 470.38 608.9 470.27 608.97 470.13 609.01 470.02 609.04 469.92 609.04 469.9 609.04 469.76 609.02 469.62 609.02 469.58 609 469.52 608.98 469.44 608.97 469.33 608.92 469.09 608.99 468.94 609.02 468.87 609 468.79 608.99 468.55 608.97 468.46 608.96 468.45 608.94 468.44 608.9 468.41 608.88 468.34 608.86 468.22 608.78 468.13 608.68 468.06 608.55 468.03 608.46 468.02 608.36 468 608.24 467.94 608.1 467.88 607.94 467.88 607.87 467.89 607.81 467.84 607.71 467.79 607.64 467.71 607.57 467.66 607.49 467.62 607.41 467.56 607.35 467.47 607.29 467.36 607.2 467.26 607.15 467.15 607.09 467.13 607.05 467.03 606.94 466.98 606.88 466.93 606.88 466.81 606.86 466.68 606.85 466.65 606.85 466.63 606.81 466.61 606.74 466.61 606.71 466.61 606.65 466.61 606.56 466.6 606.48 466.59 606.4 466.57 606.33 466.54 606.25 466.51 606.18 466.51 606.15 466.51 606.07 466.51 606 466.51 605.92 466.5 605.82 466.49 605.73 466.47 605.66 466.45 605.58 466.44 605.51 466.43 605.47 466.43 605.43 466.27 605.41 466.15 605.4 466.05 605.4 465.99 605.4 465.95 605.39 465.9 605.36 465.8 605.3 465.71 605.25 465.63 605.22 465.55 605.2 465.47 605.18 465.37 605.16 465.31 605.14 465.26 605.1 465.21 605.05 465.18 605.01 465.14 604.91 465.07 604.75 465.02 604.63 465.05 604.52 465.08 604.36 465.07 604.35 465.02 604.31 464.97 604.28 464.87 604.38 464.87 604.37 464.84 604.35 464.84 604.34 464.82 604.32 464.75 604.25 464.73 604.23 464.71 604.22 464.65 604.25 464.6 604.28 464.58 604.26 464.54 604.2 464.49 604.13 464.47 604.14 464.46 604.15 464.37 604.19 464.32 604.22 464.27 604.25 464.25 604.29 464.22 604.33 464.19 604.38 464.17 604.42 464.13 604.47 464.09 604.53 464.07 604.58 464.06 604.63 464.05 604.69 464.04 604.77 464.04 604.83 464.04 604.9 464.04 604.99 464.04 605.06 464.01 605.14 463.98 605.24 463.94 605.29 463.9 605.33 463.86 605.35 463.8 605.37 463.73 605.39 463.69 605.41 463.65 605.44 463.6 605.49 463.51 605.56 463.47 605.61 463.42 605.66 463.37 605.74 463.33 605.78 463.31 605.8 463.2 605.86 463.1 605.93 462.96 606 462.83 606.07 462.75 606.11 462.7 606.13 462.62 606.19 462.53 606.25 462.47 606.29 462.39 606.33 462.37 606.33 462.35 606.33 462.33 606.31 462.29 606.27 462.25 606.22 462.2 606.16 462.15 606.11 462.13 606.09 462.07 606.05 462 606.02 461.93 605.96 461.87 605.88 461.86 605.89 461.84 605.9 461.75 605.83 461.67 605.75 461.58 605.69 461.44 605.6 461.39 605.53 461.36 605.46 461.34 605.41 461.29 605.36 461.22 605.31 461.04 605.18 460.97 605.11 460.87 604.96 460.79 604.82 460.71 604.67 460.66 604.54 460.63 604.45 460.63 604.32 460.64 604.15 460.66 604.01 460.71 603.91 460.74 603.82 460.75 603.76 460.74 603.7 460.72 603.65 460.69 603.61 460.65 603.57 460.57 603.52 460.34 603.44 460.25 603.39 460.23 603.35 460.22 603.3 460.22 603.25 460.24 603.2 460.28 603.15 460.34 603.08 460.41 602.99 460.44 602.94 460.44 602.91 460.42 602.85 460.36 602.78 460.32 602.72 460.26 602.65 460.18 602.61 460.08 602.56 460.01 602.51 459.92 602.41 459.82 602.3 459.74 602.18 459.69 602.09 459.66 602 459.62 601.84 459.59 601.77 459.54 601.67 459.46 601.51 459.46 601.48 459.45 601.46 459.39 601.46 459.29 601.47 459.23 601.48 459.15 601.52 459.08 601.54 459 601.55 458.93 601.57 458.88 601.61 458.85 601.66 458.82 601.72 458.81 601.75 458.73 601.82 458.68 601.88 458.66 601.95 458.62 602.05 458.58 602.14 458.53 602.22 458.46 602.29 458.4 602.31 458.31 602.34 458.23 602.38 458.14 602.43 458.12 602.44 458.1 602.47 458.06 602.52 458.01 602.56 458 602.57 457.95 602.57 457.84 602.57 457.65 602.57 457.55 602.56 457.49 602.53 457.36 602.46 457.17 602.32 457.1 602.27 457.06 602.21 457.03 602.14 456.99 602.05 456.98 602.02 456.97 601.97 456.96 601.91 456.96 601.78 456.95 601.74 456.94 601.72 456.93 601.71 456.9 601.69 456.83 601.64 456.74 601.59 456.67 601.54 456.61 601.49 456.57 601.43 456.53 601.37 456.5 601.3 456.49 601.23 456.48 601.2 456.48 601.16 456.48 601.14 456.48 601.11 456.48 601.07 456.48 601.03 456.47 600.98 456.46 600.96 456.43 600.95 456.38 600.91 456.31 600.87 456.21 600.8 456.1 600.75 456.01 600.7 455.96 600.67 455.94 600.63 455.93 600.6 455.86 600.51 455.76 600.4 455.61 600.24 455.57 600.2 455.52 600.17 455.47 600.13 455.42 600.1 455.41 600.07 455.38 600.04 455.37 599.99 455.36 599.96 455.36 599.9 455.36 599.84 455.35 599.8 455.34 599.78 455.29 599.72 455.22 599.63 455.18 599.59 455.13 599.56 455.1 599.54 455.03 599.45 454.9 599.33 454.79 599.13 454.76 599.06 454.77 599.01 454.79 598.95 454.81 598.9 454.82 598.85 454.8 598.82 454.78 598.78 454.76 598.75 454.7 598.71 454.61 598.67 454.54 598.64 454.49 598.63 454.32 598.58 454.25 598.55 454.21 598.51 454.12 598.42 454.07 598.36 454.02 598.29 453.96 598.2 453.93 598.13 453.93 598.12 453.92 598.1 453.93 598 453.99 597.85 454.07 597.63 454.1 597.59 454.16 597.53 454.2 597.49 454.18 597.4 454.15 597.29 454.1 597.18 454.07 597.09 454.05 597.04 454.03 597.02 453.94 596.95 453.78 596.84 453.58 596.84 453.48 596.81 453.3 596.79 453.14 596.78 453.1 596.72 453.01 596.72 452.82 596.74 452.75 596.76 452.51 596.8 452.43 596.81 452.35 596.84 452.24 596.87 452.19 596.89 452.07 596.95 451.95 597.02 451.87 597.05 451.74 597.08 451.62 597.1 451.5 597.11 451.34 597.13 451.24 597.16 451.16 597.16 451.01 597.17 450.85 597.19 450.78 597.21 450.65 597.21 450.48 597.19 450.37 597.16 450.31 597.13 450.05 596.99 450.03 596.79 449.99 596.75 449.88 596.62 449.77 596.47 449.71 596.41 449.7 596.38 449.57 596.22 449.47 596.18 449.43 596.06 449.24 595.91 449.13 595.93 448.98 595.96 448.81 595.99 448.81 596.01 448.77 596 448.68 596 448.62 596.01 448.57 596.03 448.51 596.04 448.45 596.06 448.43 596.06 448.41 596.06 448.37 595.94 448.37 595.91 448.34 595.84 448.31 595.72 448.27 595.62 448.25 595.53 448.24 595.42 448.22 595.34 448.19 595.31 448.17 595.28 448.17 595.25 448.17 595.15 448.17 595.09 448.15 595.01 448.14 594.91 448.13 594.84 448.13 594.8 448.13 594.72 448.12 594.63 448.11 594.57 448.1 594.55 448.09 594.49 448.08 594.4 448.06 594.29 448.02 594.18 448.01 594.1 447.99 594.02 447.97 593.93 447.96 593.93 447.94 593.83 447.93 593.72 447.91 593.63 447.9 593.52 447.9 593.42 447.93 593.41 447.94 593.39 447.94 593.38 447.94 593.36 447.94 593.32 447.95 593.29 447.99 593.25 448.02 593.22 448.02 593.2 448.02 593.19 448.02 593.15 448.02 593.09 448.02 593.01 448.13 592.99 448.17 592.97 448.17 592.95 448.18 592.89 448.19 592.82 448.19 592.76 448.18 592.68 448.16 592.61 448.16 592.57 448.17 592.5 448.15 592.48 448.11 592.45 448.07 592.42 448.02 592.39 447.98 592.35 447.96 592.34 447.95 592.31 447.95 592.28 447.95 592.07 447.95 592.02 447.95 591.98 447.94 591.93 447.92 591.87 447.9 591.81 447.88 591.75 447.86 591.7 447.85 591.66 447.83 591.62 447.81 591.59 447.79 591.56 447.75 591.46 447.74 591.42 447.74 591.38 447.75 591.32 447.79 591.22 447.78 591.21 447.78 591.18 447.78 591.13 447.78 591.09 447.77 591.03 447.75 590.96 447.74 590.94 447.73 590.92 447.72 590.89 447.71 590.88 447.68 590.86 447.64 590.82 447.63 590.8 447.62 590.76 447.61 590.72 447.61 590.66 447.61 590.58 447.64 590.52 447.66 590.42 447.67 590.33 447.68 590.28 447.68 590.24 447.65 590.14 447.63 590.09 447.58 589.99 447.56 589.91 447.5 589.76 447.48 589.66 447.47 589.5 447.46 589.4 447.46 589.36 447.46 589.33 447.5 589.28 447.53 589.23 447.54 589.18 447.54 589.13 447.54 589.08 447.53 589.01 447.52 588.97 447.49 588.91 447.47 588.87 447.43 588.82 447.39 588.76 447.37 588.71 447.34 588.63 447.32 588.55 447.31 588.47 447.3 588.39 447.3 588.35 447.3 588.25 447.3 588.15 447.32 588.15 447.39 588.15 447.42 588.14 447.49 588.1 447.52 588.07 447.53 588.03 447.55 587.93 447.58 587.82 447.58 587.8 447.57 587.72 447.56 587.64 447.56 587.62 447.56 587.6 447.56 587.57 447.57 587.52 447.58 587.52 447.59 587.47 447.62 587.4 447.65 587.33 447.66 587.3 447.7 587.2 447.73 587.11 447.78 587 447.81 586.92 447.87 586.93 447.88 586.86 447.9 586.79 447.91 586.73 447.91 586.7 447.92 586.66 447.93 586.62 447.93 586.57 447.94 586.53 447.95 586.48 447.95 586.45 447.96 586.42 447.97 586.39 447.97 586.35 447.97 586.31 447.97 586.29 447.97 586.27 447.96 586.23 447.95 586.21 447.94 586.19 447.93 586.16 447.91 586.13 447.89 586.1 447.88 586.08 447.86 586.06 447.83 586.04 447.82 586.03 447.8 586.02 447.79 586 447.77 585.99 447.73 585.97 447.71 585.96 447.69 585.95 447.65 585.94 447.6 585.92 447.52 585.91 447.45 585.9 447.39 585.9 447.26 585.91 447.16 585.91 447.14 585.88 447.11 585.85 447.07 585.8 446.98 585.72 446.9 585.64 446.82 585.57 446.73 585.47 446.72 585.45 446.71 585.44 446.63 585.27 446.6 585.13 446.52 585 446.42 584.73 446.39 584.64 446.39 584.63 446.6 584.23 446.64 584.13 446.66 584.11 446.69 584.1 446.76 584.08 446.8 584.06 446.88 584.01 446.94 583.98 447.07 583.92 447.14 583.88 447.19 583.84 447.21 583.8 447.21 583.76 447.21 583.69 447.22 583.63 447.23 583.61 447.25 583.59 447.29 583.56 447.29 583.53 447.29 583.48 447.29 583.42 447.27 583.29 447.26 583.2 447.26 583.15 447.28 583.11 447.3 583.07 447.3 583.02 447.3 582.96 447.3 582.83 447.3 582.75 447.32 582.7 447.36 582.62 447.4 582.55 447.4 582.53 447.4 582.51 447.36 582.46 447.32 582.37 447.27 582.18 447.23 582.04 447.26 582 447.28 581.94 447.28 581.85 447.28 581.78 447.24 581.64 447.22 581.55 447.22 581.45 447.25 581.26 447.27 581.08 447.31 580.88 447.35 580.84 447.41 580.75 447.46 580.65 447.48 580.6 447.51 580.53 447.53 580.47 447.56 580.44 447.65 580.33 447.68 580.28 447.7 580.26 447.76 580.2 447.83 580.12 448 579.97 448.14 579.83 448.16 579.79 448.19 579.7 448.21 579.61 448.22 579.54 448.22 579.45 448.22 579.36 448.22 579.27 448.2 579.19 448.18 579.04 448.17 578.96 448.18 578.93 448.19 578.76 448.21 578.7 448.25 578.61 448.27 578.56 448.29 578.54 448.33 578.52 448.34 578.51 448.38 578.48 448.44 578.43 448.51 578.39 448.6 578.32 448.64 578.3 448.64 578.26 448.66 578.21 448.69 578.17 448.72 578.15 448.72 578.01 448.72 577.77 448.73 577.7 448.75 577.65 448.79 577.59 448.87 577.53 448.9 577.5 448.93 577.47 448.95 577.41 448.98 577.32 449.01 577.23 449.03 577.16 449.05 577.11 449.09 577.06 449.11 577.01 449.15 576.92 449.2 576.83 449.25 576.76 449.33 576.68 449.4 576.61 449.49 576.53 449.55 576.48 449.56 576.45 449.59 576.45 449.62 576.46 449.93 576.49 450.02 576.5 450.04 576.5 450.07 576.5 450.13 576.51 450.23 576.51 450.32 576.52 450.37 576.53 450.52 576.54 450.65 576.55 450.76 576.56 450.78 576.56 450.81 576.56 451.02 576.58 451.12 576.59 451.14 576.59 451.24 576.6 451.3 576.61 451.33 576.61 451.35 576.61 451.38 576.61 451.46 576.62 451.53 576.62 451.55 576.62 451.58 576.63 451.66 576.63 451.83 576.64 451.94 576.65 451.97 576.65 452.09 576.66 452.18 576.67 452.19 576.67 452.24 576.67 452.33 576.68 452.55 576.7 452.64 576.7 452.67 576.7 452.74 576.71 452.83 576.72 452.92 576.73 452.99 576.74 453 576.74 453.04 576.73 453.13 576.73 453.3 576.73 453.49 576.72 453.62 576.72 453.77 576.72 453.89 576.71 453.96 576.71 453.98 576.71 454.01 576.71 454.06 576.71 454.08 576.71 454.21 576.7 454.23 576.7 454.31 576.7 454.34 576.7 454.42 576.7 454.45 576.7 454.56 576.7 454.64 576.69 454.67 576.69 455.02 576.68 455.07 576.68 455.1 576.68 455.16 576.68 455.44 576.68 455.52 576.68 455.52 576.68 455.61 576.67 455.69 576.67 455.79 576.67 455.89 576.67 455.95 576.67 456.06 576.67 456.1 576.67 456.19 576.67 456.22 576.67 456.29 576.66 456.36 576.66 456.45 576.66 456.58 576.66 456.65 576.66 456.67 576.66 456.73 576.65 456.78 576.66 456.82 576.67 456.84 576.67 456.88 576.68 457.01 576.7 457.12 576.71 457.23 576.73 457.24 576.73 457.29 576.74 457.31 576.74 457.33 576.74 457.42 576.75 457.5 576.76 457.62 576.78 457.71 576.79 457.76 576.8 457.89 576.81 457.94 576.82 457.95 576.82 458.08 576.84 458.23 576.86 458.37 576.88 458.43 576.88 458.56 576.9 458.68 576.92 458.74 576.93 458.77 576.93 458.78 576.93 458.83 576.94 458.91 576.94 459.02 576.96 459.18 576.98 459.36 577 459.53 577.01 459.57 577.02 459.65 577.03 459.73 577.03 459.75 577.04 459.76 577.04 459.83 577.05 459.95 577.06 459.97 577.06 460.07 577.07 460.14 577.09 460.26 577.11 460.29 577.11 460.48 577.14 460.57 577.16 460.64 577.17 460.68 577.18 460.7 577.18 460.76 577.18 460.88 577.2 461.02 577.22 461.03 577.22 461.04 577.22 461.05 577.23 461.12 577.23 461.23 577.25 461.33 577.26 461.36 577.27 461.44 577.28 461.53 577.29 461.55 577.29 461.61 577.3 461.71 577.31 461.84 577.32 461.85 577.32 462.08 577.35 462.09 577.35 462.15 577.36 462.38 577.38 462.39 577.38 462.56 577.4 462.57 577.4 462.61 577.4 462.68 577.41 462.7 577.41 462.71 577.41 462.74 577.42 462.8 577.43 463.04 577.49 463.17 577.52 463.18 577.52 463.3 577.55 463.31 577.56 463.45 577.6 463.62 577.63 463.71 577.65 463.82 577.67 463.96 577.69 464.03 577.71 464.15 577.74 464.17 577.74 464.19 577.75 464.38 577.79 464.47 577.8 464.55 577.81 464.56 577.81 464.58 577.82 464.68 577.83 464.83 577.86 464.85 577.86 464.89 577.87 464.97 577.88 465.08 577.91 465.19 577.93 465.21 577.94 465.29 577.96 465.36 577.97 465.41 577.98 465.47 577.99 465.53 578.01 465.62 578.03 465.63 578.03 465.72 578.05 465.81 578.07 465.9 578.09 465.92 578.09 465.93 578.09 465.97 578.1 466.09 578.12 466.1 578.13 466.11 578.13 466.13 578.13 466.18 578.14 466.47 578.2 466.74 578.25 466.75 578.25 466.76 578.25 466.81 578.26 466.83 578.26 466.98 578.29 467.08 578.32 467.1 578.32 467.14 578.33 467.16 578.33 467.29 578.35 467.34 578.36 467.38 578.37 467.4 578.38 467.43 578.38 467.53 578.41 467.54 578.41 467.56 578.41 467.57 578.42 467.61 578.43 467.68 578.44 467.7 578.45 467.78 578.47 467.84 578.49 467.93 578.51 468.03 578.54 468.06 578.55 468.1 578.55 468.13 578.57 468.31 578.61 468.32 578.61 468.47 578.63 468.61 578.65 468.67 578.66 468.85 578.68 468.96 578.69 469.08 578.71 469.09 578.71 469.1 578.71 469.17 578.73 469.34 578.77 469.37 578.78 469.41 578.79 469.51 578.81 469.55 578.82 469.65 578.85 469.75 578.87 469.81 578.89 469.88 578.91 469.95 578.93 469.98 578.94 470.01 578.94 470.03 578.95 470.18 578.99 470.19 578.99 Z"/>
</g></svg>