<svg xmlns="http://www.w3.org/2000/svg" version="1.2" baseProfile="tiny" stroke-linecap="round" stroke-linejoin="round" viewBox="534.25 590.85 22 21.63"><g xmlns="http://www.w3.org/2000/svg" id="Fontellas">
<path d="M 556.25 598 556 598.28 555.99 598.3 555.74 598.59 555.72 598.61 555.51 598.87 555.5 598.88 555.41 598.98 555.41 598.99 555.31 599.1 555.26 599.16 555.19 599.24 555.15 599.29 555.13 599.31 555.1 599.35 555.09 599.35 555.02 599.43 554.96 599.5 554.79 599.7 554.78 599.71 554.73 599.76 554.62 599.9 554.61 599.91 554.49 600.15 554.46 600.21 554.36 600.42 554.28 600.61 554.27 600.63 554.21 600.78 554.18 600.84 554.1 601.02 554.02 601.18 554.01 601.2 553.99 601.25 553.99 601.26 553.98 601.27 553.98 601.29 553.98 601.31 553.99 601.36 553.99 601.41 553.99 601.44 553.99 601.45 554 601.5 554 601.51 554.01 601.86 554.01 601.87 554.01 601.88 554.01 601.9 554.01 601.92 554.01 601.93 554.01 601.94 554 601.96 553.85 602.25 553.84 602.26 553.83 602.27 553.77 602.38 553.81 602.49 553.83 602.56 553.87 602.75 553.87 602.76 553.91 602.91 553.91 602.95 553.92 603.01 553.92 603.11 553.92 603.24 553.91 603.37 553.91 603.38 553.91 603.4 553.91 603.41 553.89 603.45 553.87 603.54 553.84 603.63 553.8 603.74 553.79 603.77 553.8 603.81 553.81 603.86 553.83 603.94 553.84 604.03 553.84 604.13 553.83 604.21 553.81 604.28 553.79 604.36 553.79 604.39 553.78 604.42 553.75 604.54 553.74 604.57 553.7 604.73 553.63 604.95 553.59 605.11 553.54 605.23 553.53 605.28 553.53 605.37 553.52 605.52 553.52 605.66 553.53 605.81 553.54 605.9 553.57 605.97 553.59 606.01 553.59 606.01 553.63 606.12 553.65 606.16 553.65 606.17 553.66 606.23 553.75 606.42 553.76 606.46 553.77 606.49 553.77 606.52 553.77 606.58 553.76 606.66 553.77 606.75 553.76 606.81 553.76 606.87 553.76 606.9 553.76 606.94 553.76 606.96 553.76 607.05 553.76 607.13 553.76 607.21 553.75 607.31 553.75 607.38 553.74 607.44 553.73 607.47 553.72 607.5 553.72 607.56 553.72 607.59 553.71 607.62 553.7 607.66 553.7 607.68 553.7 607.7 553.7 607.79 553.68 607.92 553.66 608.01 553.66 608.02 553.66 608.09 553.65 608.11 553.65 608.19 553.6 608.33 553.58 608.39 553.53 608.56 553.47 608.71 553.47 608.72 553.45 608.75 553.39 608.87 553.31 609.02 553.28 609.08 553.25 609.14 553.24 609.19 553.18 609.48 553.11 609.72 553.01 610.06 552.98 610.17 552.97 610.2 552.95 610.29 552.87 610.54 552.76 610.82 552.65 611.09 552.61 611.19 552.55 611.33 552.48 611.43 552.47 611.44 552.46 611.46 552.45 611.47 552.34 611.48 552.21 611.5 552.09 611.54 551.99 611.6 551.89 611.68 551.77 611.8 551.66 611.92 551.57 611.99 551.52 612.04 551.45 612.08 551.32 612.09 551.23 612.09 551.16 612.08 551.12 612.07 551.09 612.06 551.06 612.06 551.04 612.07 551.03 612.07 550.94 612.1 550.89 612.11 550.78 612.15 550.75 612.15 550.7 612.17 550.68 612.17 550.66 612.16 550.65 612.16 550.62 612.16 550.59 612.16 550.56 612.16 550.54 612.16 550.51 612.16 550.47 612.17 550.45 612.18 550.42 612.18 550.38 612.17 550.31 612.14 550.25 612.11 550.23 612.11 550.17 612.08 550.13 612.06 550.11 612.05 550.1 612.05 550.07 612.03 550.03 612.02 549.96 612.02 549.81 612.03 549.72 612.03 549.64 612.04 549.56 612.05 549.31 612.09 549.2 612.12 549.15 612.12 549.02 612.13 548.94 612.13 548.87 612.12 548.82 612.13 548.78 612.13 548.74 612.13 548.71 612.12 548.68 612.11 548.58 612.12 548.47 612.12 548.37 612.14 548.34 612.14 548.26 612.16 548.19 612.18 548.03 612.22 547.9 612.25 547.75 612.29 547.57 612.35 547.51 612.38 547.46 612.41 547.42 612.42 547.38 612.43 547.27 612.46 547.2 612.47 547.18 612.48 547.12 612.47 547.11 612.47 546.96 612.48 546.93 612.48 546.84 612.48 546.83 612.48 546.78 612.48 546.62 612.48 546.56 612.47 546.42 612.43 546.35 612.4 546.31 612.37 546.23 612.34 546.12 612.31 546.01 612.28 545.93 612.26 545.83 612.2 545.8 612.17 545.74 612.14 545.6 612.1 545.44 612.07 545.4 612.07 545.35 612.06 545.28 612.05 545.18 612.07 545.1 612.08 545.03 612.1 544.9 612.14 544.87 612.14 544.76 612.12 544.63 612.09 544.51 612.06 544.43 612.03 544.36 612 544.25 611.97 544.01 611.92 543.93 611.9 543.91 611.9 543.87 611.9 543.77 611.89 543.75 611.89 543.72 611.89 543.7 611.89 543.63 611.87 543.59 611.86 543.58 611.86 543.52 611.84 543.48 611.83 543.39 611.78 543.32 611.75 543.25 611.72 543.17 611.66 543.07 611.57 543.04 611.54 543.01 611.51 542.97 611.45 542.91 611.38 542.78 611.27 542.68 611.17 542.61 611.08 542.5 610.9 542.34 610.58 542.19 610.28 542.11 610.12 541.99 609.88 541.9 609.67 541.87 609.61 541.83 609.56 541.76 609.45 541.73 609.41 541.72 609.4 541.68 609.34 541.66 609.31 541.65 609.3 541.56 609.17 541.39 608.91 541.22 608.68 541.08 608.52 541.08 608.52 541.07 608.51 541.06 608.5 541.06 608.5 541.05 608.49 540.99 608.43 540.94 608.37 540.92 608.34 540.88 608.31 540.83 608.27 540.79 608.24 540.64 608.22 540.49 608.17 540.27 608.11 540.14 608.07 540.08 608.05 539.98 608 539.98 607.99 539.85 607.89 539.76 607.82 539.75 607.82 539.74 607.81 539.74 607.81 539.62 607.73 539.46 607.64 539.35 607.59 539.3 607.56 539.23 607.51 539.14 607.41 539.11 607.38 539.03 607.29 539 607.26 538.82 607.09 538.79 607.04 538.75 607 538.67 606.89 538.54 606.73 538.49 606.65 538.41 606.5 538.34 606.38 538.32 606.36 538.31 606.34 538.26 606.27 538.24 606.25 538.22 606.23 538.17 606.18 538.14 606.13 538.11 606.1 537.98 605.89 537.87 605.74 537.81 605.66 537.71 605.52 537.65 605.42 537.51 605.19 537.44 605.05 537.42 605.01 537.4 604.98 537.4 604.96 537.39 604.93 537.38 604.88 537.37 604.82 537.36 604.75 537.36 604.65 537.35 604.55 537.34 604.44 537.33 604.4 537.32 604.3 537.3 604.19 537.29 604.12 537.27 604.06 537.27 604.02 537.26 604 537.26 603.96 537.25 603.93 537.25 603.91 537.21 603.89 537.19 603.87 537.12 603.81 537.08 603.76 537.04 603.71 537.01 603.69 536.97 603.65 536.93 603.63 536.89 603.6 536.85 603.58 536.8 603.55 536.76 603.53 536.73 603.47 536.69 603.41 536.66 603.34 536.63 603.24 536.62 603.21 536.58 603.1 536.58 603.08 536.54 602.99 536.48 602.82 536.39 602.57 536.38 602.53 536.33 602.37 536.3 602.28 536.28 602.24 536.27 602.22 536.23 602.18 536.15 602.12 536.1 602.07 536.08 602.06 536.08 601.85 536.08 601.66 536.08 601.59 536.07 601.57 536.06 601.55 536.04 601.53 536.03 601.52 536 601.49 535.95 601.45 535.84 601.36 535.78 601.32 535.74 601.3 535.68 601.25 535.6 601.19 535.56 601.15 535.53 601.12 535.5 601.08 535.46 601.04 535.45 601.03 535.43 601.02 535.39 601 535.36 600.97 535.34 600.96 535.31 600.95 535.19 600.9 535.16 600.89 535.04 600.83 535.01 600.82 534.98 600.82 534.8 600.82 534.63 600.83 534.46 600.83 534.4 600.83 534.33 600.82 534.32 600.82 534.3 600.82 534.28 600.82 534.29 600.8 534.31 600.77 534.34 600.73 534.36 600.7 534.35 600.67 534.33 600.64 534.33 600.61 534.33 600.58 534.33 600.54 534.35 600.51 534.37 600.48 534.39 600.45 534.41 600.41 534.43 600.38 534.46 600.33 534.46 600.32 534.46 600.26 534.46 600.24 534.46 600.21 534.46 600.18 534.47 600.15 534.47 600.12 534.48 600.09 534.49 600.04 534.51 599.99 534.51 599.96 534.53 599.92 534.54 599.88 534.54 599.85 534.55 599.83 534.56 599.8 534.56 599.78 534.57 599.77 534.56 599.75 534.57 599.72 534.58 599.69 534.59 599.66 534.61 599.62 534.63 599.58 534.63 599.56 534.63 599.54 534.62 599.52 534.61 599.5 534.59 599.48 534.58 599.46 534.57 599.45 534.57 599.43 534.56 599.4 534.57 599.37 534.58 599.34 534.58 599.32 534.57 599.29 534.57 599.25 534.57 599.18 534.57 599.16 534.59 599.12 534.6 599.09 534.61 599.06 534.61 599.03 534.61 599 534.6 598.98 534.59 598.96 534.58 598.92 534.57 598.88 534.58 598.87 534.58 598.84 534.59 598.83 534.62 598.77 534.67 598.71 534.72 598.65 534.76 598.61 534.77 598.6 534.8 598.58 534.83 598.55 534.85 598.53 534.92 598.47 534.93 598.46 534.94 598.44 534.98 598.4 535.04 598.33 535.11 598.27 535.13 598.27 535.34 598.11 535.37 598.08 535.38 598.07 535.45 598.02 535.54 597.94 535.58 597.89 535.67 597.85 535.77 597.81 535.8 597.79 535.84 597.76 535.91 597.72 535.98 597.63 536.06 597.56 536.13 597.49 536.22 597.43 536.33 597.31 536.43 597.22 536.53 597.13 536.62 597.03 536.71 596.96 536.78 596.87 536.86 596.8 536.93 596.76 537.13 596.67 537.32 596.6 537.34 596.59 537.38 596.55 537.4 596.53 537.5 596.5 537.63 596.44 537.8 596.37 538.01 596.28 538.02 596.27 538.13 596.23 538.29 596.17 538.34 596.14 538.36 596.14 538.36 596.13 538.37 596.12 538.38 596.11 538.4 596.1 538.46 596.09 538.53 596.08 538.56 596.09 538.57 596.09 538.59 596.1 538.63 596.11 538.65 596.11 538.71 596.13 538.83 596.15 538.84 596.16 538.89 596.16 538.95 596.18 539.01 596.18 539.07 596.17 539.14 596.15 539.26 596.14 539.32 596.13 539.33 596.13 539.38 596.13 539.48 596.14 539.5 596.14 539.52 596.14 539.53 596.14 539.62 596.12 539.7 596.09 539.73 596.09 539.74 596.09 539.76 596.09 539.81 596.08 539.92 596.07 540 596.07 540.01 596.07 540.02 596.07 540.03 596.07 540.08 596.07 540.19 596.06 540.32 596.04 540.46 596.02 540.55 595.99 540.63 595.98 540.7 595.96 540.73 595.95 540.83 595.93 540.84 595.93 540.94 595.92 541.12 595.91 541.17 595.91 541.18 595.91 541.18 595.89 541.1 595.76 541 595.54 540.97 595.45 540.92 595.31 540.85 595.15 540.79 595.04 540.76 594.95 540.71 594.82 540.68 594.73 540.67 594.7 540.64 594.61 540.59 594.46 540.55 594.33 540.52 594.26 540.52 594.26 540.54 594.25 540.56 594.24 540.56 594.24 540.61 594.24 540.62 594.22 540.55 594.09 540.5 593.96 540.48 593.88 540.49 593.88 540.52 593.88 540.64 593.84 540.66 593.83 540.66 593.82 540.65 593.79 540.63 593.7 540.63 593.68 540.77 593.65 540.81 593.65 540.86 593.64 540.91 593.63 540.95 593.61 540.98 593.59 541.04 593.58 541.12 593.58 541.18 593.57 541.21 593.57 541.24 593.57 541.27 593.57 541.31 593.57 541.36 593.57 541.42 593.55 541.52 593.53 541.61 593.51 541.65 593.5 541.69 593.48 541.73 593.46 541.78 593.44 541.79 593.43 541.81 593.42 541.81 593.38 541.8 593.35 541.83 593.33 541.86 593.27 541.9 593.22 541.94 593.18 542 593.15 542.05 593.13 542.09 593.11 542.14 593.09 542.18 593.07 542.24 593.06 542.29 593.06 542.35 593.05 542.38 593.01 542.42 592.95 542.43 592.92 542.45 592.88 542.46 592.85 542.41 592.79 542.36 592.73 542.37 592.72 542.39 592.63 542.39 592.58 542.44 592.37 542.48 592.25 542.5 592.19 542.52 592.12 542.53 592.07 542.55 592.06 542.58 592.06 542.62 592.05 542.67 592.01 542.73 591.94 542.78 591.89 542.83 591.85 542.86 591.8 542.89 591.76 542.89 591.73 542.89 591.69 542.88 591.67 542.88 591.62 542.88 591.59 542.88 591.54 542.87 591.5 542.87 591.46 542.87 591.42 542.88 591.4 542.89 591.37 542.91 591.35 543.03 591.46 543.12 591.56 543.14 591.57 543.23 591.67 543.34 591.78 543.35 591.79 543.43 591.87 543.47 591.86 543.53 591.82 543.58 591.79 543.61 591.77 543.62 591.77 543.68 591.75 543.74 591.73 543.8 591.71 543.82 591.69 543.88 591.65 543.92 591.61 543.95 591.59 543.96 591.59 544 591.57 543.87 591.33 544.16 591.16 544.23 591.13 544.24 591.12 544.24 591.11 544.66 590.88 544.92 591.07 545.28 591.34 545.66 591.6 545.78 591.69 546.39 592.12 546.65 592.3 546.87 592.45 547.15 592.64 547.98 593.22 547.99 593.23 548 593.24 548.66 593.71 548.77 593.78 548.78 593.79 548.81 593.81 548.84 593.84 549.01 593.95 549.08 594 549.14 594.03 548.83 595 548.78 595.09 548.42 595.45 548.26 595.55 548.05 595.67 547.94 595.79 547.9 595.82 547.84 595.89 547.72 596.01 547.57 596.32 547.48 596.5 547.46 596.54 547.44 596.6 547.42 596.67 547.4 596.73 547.42 597 547.52 597.15 547.72 597.35 547.89 597.5 548.14 597.63 548.21 597.67 548.32 597.71 548.43 597.75 548.61 597.8 548.71 597.83 548.8 597.85 548.97 597.89 549.18 597.85 549.39 597.83 549.58 597.8 549.79 597.77 550 597.74 550.43 597.62 550.52 597.6 550.53 597.6 550.54 597.59 550.57 597.59 550.92 597.56 551.25 597.67 551.33 597.7 551.65 597.8 551.79 597.86 551.93 597.91 552.02 597.93 552.11 597.93 552.18 597.92 552.27 597.93 552.3 597.94 552.35 597.95 552.58 597.91 552.87 597.87 553.13 597.84 553.45 597.79 553.49 597.83 553.52 597.85 553.58 597.97 553.63 598.27 553.69 598.59 554.09 598.49 556.25 598 Z"/>
</g></svg>