<svg xmlns="http://www.w3.org/2000/svg" version="1.2" baseProfile="tiny" stroke-linecap="round" stroke-linejoin="round" viewBox="211.6 83.93 15.22 9.77"><g xmlns="http://www.w3.org/2000/svg" id="Forua">
<path d="M 213.75 85.26 214.13 84.96 215.07 84.17 215.4 84.11 215.6 84.63 216.82 84.88 218.95 84.82 220.51 84.25 221.48 84.15 221.96 84.1 223.39 83.96 224.55 84.07 224.56 84.07 224.57 84.08 224.58 84.08 224.58 84.08 224.6 84.08 224.61 84.08 224.62 84.09 224.63 84.09 224.64 84.09 224.65 84.09 224.66 84.09 224.67 84.09 224.68 84.09 224.7 84.09 224.71 84.09 224.72 84.09 224.75 84.1 224.77 84.1 224.8 84.11 224.83 84.11 224.85 84.11 224.88 84.12 224.9 84.12 224.93 84.12 224.95 84.12 224.98 84.12 225 84.12 225.03 84.12 225.05 84.11 225.07 84.11 225.09 84.11 225.1 84.11 225.12 84.1 225.14 84.1 225.16 84.09 225.17 84.09 225.18 84.08 225.2 84.07 225.21 84.07 225.22 84.06 225.24 84.06 225.25 84.05 225.27 84.05 225.28 84.04 225.3 84.04 225.31 84.03 225.32 84.03 225.34 84.02 225.35 84.02 225.36 84.01 225.37 84.01 225.39 84.01 225.4 84.01 225.41 84.01 225.42 84.02 225.43 84.02 225.44 84.03 225.45 84.04 225.46 84.04 225.46 84.05 225.47 84.06 225.47 84.07 225.48 84.09 225.48 84.1 225.48 84.11 225.48 84.12 225.48 84.14 225.48 84.15 225.46 84.24 225.43 84.3 225.41 84.35 225.38 84.41 225.33 84.49 225.32 84.51 225.31 84.53 225.3 84.54 225.29 84.56 225.27 84.58 225.26 84.6 225.25 84.61 225.24 84.63 225.23 84.64 225.22 84.66 225.21 84.67 225.19 84.68 225.18 84.7 225.12 84.76 225.04 84.83 224.98 84.89 224.92 84.95 224.89 85 224.86 85.05 224.84 85.11 224.83 85.16 224.83 85.18 224.83 85.2 224.83 85.21 224.83 85.23 224.83 85.25 224.83 85.27 224.83 85.29 224.83 85.3 224.83 85.32 224.83 85.34 224.83 85.35 224.83 85.36 224.83 85.37 224.83 85.38 224.84 85.39 224.84 85.41 224.84 85.42 224.84 85.43 224.85 85.45 224.85 85.46 224.86 85.47 224.87 85.48 224.87 85.5 224.88 85.51 224.89 85.52 224.9 85.54 224.91 85.55 224.92 85.56 224.93 85.58 224.94 85.59 224.95 85.6 224.96 85.62 224.97 85.63 224.98 85.64 225.04 85.67 225.09 85.69 225.12 85.69 225.13 85.69 225.18 85.69 225.2 85.68 225.34 85.67 225.39 85.65 225.43 85.63 225.47 85.6 225.51 85.58 225.69 85.42 225.76 85.37 225.77 85.36 225.78 85.36 225.8 85.35 225.81 85.35 225.82 85.35 225.83 85.35 225.84 85.35 225.85 85.36 225.86 85.36 225.87 85.36 225.88 85.37 225.9 85.37 225.91 85.38 225.92 85.39 225.94 85.4 225.95 85.4 225.96 85.41 225.98 85.42 225.99 85.44 226.01 85.45 226.03 85.46 226.04 85.47 226.06 85.49 226.07 85.5 226.09 85.51 226.1 85.53 226.12 85.54 226.13 85.55 226.15 85.57 226.16 85.58 226.18 85.59 226.19 85.61 226.2 85.62 226.3 85.7 226.36 85.75 226.41 85.78 226.45 85.81 226.54 85.86 226.65 85.91 226.69 85.94 226.73 85.97 226.74 85.98 226.75 86 226.76 86.01 226.77 86.02 226.78 86.03 226.79 86.04 226.79 86.05 226.79 86.09 226.8 86.17 226.81 86.27 226.73 86.34 226.69 86.37 226.64 86.39 226.59 86.41 226.54 86.42 226.48 86.41 226.38 86.38 226.33 86.37 226.26 86.36 226.21 86.36 226.15 86.37 226.1 86.39 226.06 86.43 226.02 86.46 225.98 86.5 225.93 86.52 225.87 86.51 225.82 86.5 225.76 86.48 225.72 86.44 225.68 86.4 225.64 86.36 225.6 86.32 225.56 86.29 225.51 86.3 225.46 86.33 225.45 86.34 225.43 86.36 225.39 86.41 225.37 86.46 225.37 86.51 225.37 86.55 225.38 86.6 225.38 86.61 225.41 86.71 225.43 86.78 225.44 86.82 225.44 86.85 225.44 86.87 225.43 86.93 225.42 86.95 225.41 86.98 225.37 87.03 225.3 87.1 225.12 87.3 224.98 87.46 224.84 87.57 224.56 87.6 224.48 87.65 224.42 87.79 224.41 87.84 224.26 87.87 224.4 88.15 224.56 88.34 224.61 88.53 224.6 88.58 224.4 88.59 224.08 88.44 223.93 88.25 223.92 88.24 223.92 88.23 223.91 88.23 223.9 88.22 223.89 88.21 223.88 88.2 223.88 88.19 223.87 88.18 223.86 88.17 223.86 88.16 223.86 88.15 223.85 88.15 223.85 88.14 223.85 88.13 223.84 88.12 223.84 88.11 223.83 88.1 223.82 88.09 223.82 88.09 223.81 88.08 223.8 88.07 223.8 88.07 223.79 88.06 223.78 88.05 223.77 88.05 223.76 88.04 223.74 88.04 223.73 88.03 223.72 88.03 223.71 88.03 223.69 88.02 223.68 88.02 223.67 88.02 223.65 88.01 223.64 88.01 223.63 88.01 223.61 88 223.6 88 223.59 88 223.57 88 223.56 88 223.55 87.99 223.53 87.99 222.86 88.14 222.7 88.23 222.68 88.25 222.67 88.25 222.66 88.26 222.65 88.26 222.63 88.27 222.62 88.28 222.61 88.29 222.59 88.29 222.58 88.3 222.57 88.31 222.56 88.31 222.55 88.32 222.54 88.33 222.53 88.33 222.52 88.34 222.51 88.34 222.5 88.35 222.49 88.36 222.49 88.37 222.48 88.38 222.47 88.38 222.46 88.39 222.45 88.4 222.44 88.41 222.43 88.42 222.42 88.43 222.41 88.44 222.4 88.45 222.39 88.46 222.39 88.46 222.38 88.47 222.37 88.48 222.37 88.49 222.36 88.5 222.36 88.51 222.35 88.52 222.35 88.53 222.35 88.54 222.34 88.55 222.34 88.56 222.33 88.57 222.33 88.58 222.33 88.59 222.32 88.6 222.32 88.62 222.32 88.63 222.32 88.64 222.32 88.65 222.32 88.67 222.32 88.68 222.32 88.69 222.32 88.71 222.32 88.72 222.32 88.73 222.32 88.74 222.32 88.75 222.32 88.76 222.32 88.77 222.32 88.78 222.32 88.79 222.32 88.81 222.33 88.82 222.33 88.83 222.33 88.84 222.33 88.86 222.33 88.87 222.34 88.88 222.34 88.89 222.34 88.91 222.34 88.92 222.34 88.93 222.35 88.94 222.35 88.96 222.35 88.97 222.35 88.98 222.36 88.99 222.36 89 222.36 89.01 222.37 89.02 222.37 89.04 222.37 89.04 222.38 89.07 222.41 89.1 222.43 89.11 222.45 89.12 222.48 89.12 222.49 89.12 222.51 89.12 222.55 89.11 222.59 89.08 222.64 89.04 222.67 88.96 222.71 88.89 222.73 88.84 222.77 88.8 222.81 88.76 222.86 88.73 222.91 88.72 222.96 88.72 223.02 88.71 223.15 88.7 223.31 88.7 223.34 88.73 223.39 88.77 223.42 88.8 223.44 88.81 223.46 88.84 223.47 88.86 223.5 88.91 223.51 88.93 223.52 88.98 223.53 89.02 223.53 89.08 223.53 89.14 223.5 89.25 223.44 89.27 223.43 89.27 223.36 89.3 223.29 89.32 223.24 89.34 223.19 89.37 223.16 89.39 223.12 89.41 223.07 89.46 223.06 89.48 223.04 89.51 223.01 89.55 222.99 89.58 222.96 89.63 222.94 89.7 222.93 89.75 222.91 89.79 222.88 89.84 222.84 89.88 222.79 89.91 222.75 89.93 222.7 89.94 222.66 89.93 222.62 89.92 222.54 89.87 222.49 89.85 222.47 89.86 222.46 89.87 222.45 89.9 222.44 89.93 222.43 89.98 222.42 90.16 222.42 90.19 222.42 90.22 222.41 90.24 222.39 90.27 222.36 90.3 222.32 90.33 222.21 90.4 222.15 90.43 222.14 90.44 222.12 90.47 222.12 90.5 222.11 90.53 222.12 90.55 222.12 90.58 222.13 90.6 222.14 90.62 222.16 90.65 222.19 90.68 222.24 90.73 222.25 90.75 222.24 90.77 222.24 90.79 222.22 90.83 222.21 90.85 222.19 90.88 222.18 90.9 222.18 90.93 222.19 90.96 222.21 91 222.22 91.02 222.22 91.05 222.22 91.08 222.21 91.1 222.19 91.13 222.18 91.15 222.16 91.16 222.09 91.22 222.04 91.23 222.02 91.19 221.98 91.22 221.94 91.24 221.89 91.27 221.85 91.31 221.82 91.36 221.76 91.46 221.73 91.5 221.68 91.54 221.66 91.55 221.63 91.57 221.48 91.62 221.45 91.66 221.49 91.82 221.5 91.88 221.49 91.92 221.49 91.98 221.48 92.02 221.48 92.03 221.46 92.08 221.46 92.14 221.46 92.29 221.47 92.35 221.45 92.63 221.44 92.69 221.44 92.74 221.45 92.79 221.48 92.87 221.5 92.92 221.51 92.94 221.51 92.97 221.51 92.99 221.5 93.02 221.48 93.05 221.45 93.07 221.44 93.08 221.35 93.08 221.3 93.1 221.23 93.11 221.15 93.13 221 93.18 220.85 93.15 220.76 93.13 220.73 93.12 220.69 93.13 220.62 93.14 220.51 93.14 220.38 93.16 220.2 93.29 219.93 93.33 218.31 93.6 218.1 93.64 217.83 93.69 217.77 93.7 217.57 93.65 217.32 93.6 216.75 93.4 216.55 93.34 216.28 93.26 216.11 93.2 215.97 93.15 215.92 93.14 215.7 92.98 215.36 92.49 215.25 92.4 215.2 92.33 215.16 91.86 215.11 91.86 215.06 91.86 215 91.88 214.99 91.89 214.98 91.89 214.98 91.89 214.97 91.9 214.96 91.91 214.95 91.91 214.95 91.92 214.94 91.92 214.93 91.93 214.92 91.93 214.91 91.93 214.9 91.93 214.89 91.93 214.88 91.94 214.87 91.94 214.86 91.94 214.85 91.94 214.84 91.94 214.83 91.94 214.82 91.94 214.81 91.95 214.79 91.95 214.79 91.96 214.78 91.97 214.77 91.98 214.77 91.99 214.76 92 214.76 92 214.76 92.01 214.76 92.02 214.75 92.03 214.75 92.04 214.75 92.04 214.74 92.05 214.74 92.06 214.73 92.06 214.72 92.07 214.72 92.07 214.71 92.08 214.7 92.08 214.69 92.08 214.68 92.09 214.66 92.09 214.65 92.09 214.63 92.1 214.62 92.1 214.6 92.1 214.58 92.1 214.57 92.1 214.55 92.1 214.53 92.1 214.51 92.1 214.49 92.11 214.48 92.11 214.46 92.11 214.45 92.11 214.44 92.11 214.42 92.11 214.41 92.12 214.4 92.12 214.38 92.12 214.37 92.12 214.36 92.13 214.35 92.13 214.33 92.14 214.32 92.14 214.31 92.15 214.3 92.15 214.29 92.16 214.28 92.17 214.27 92.17 214.26 92.18 214.25 92.18 214.24 92.18 214.22 92.18 214.21 92.18 214.2 92.19 214.19 92.19 214.18 92.19 214.17 92.2 214.16 92.2 214.16 92.2 214.15 92.2 214.14 92.21 214.13 92.21 214.11 92.22 214.1 92.23 214.09 92.23 214.08 92.24 214.06 92.24 214.05 92.24 214.04 92.25 214.03 92.25 214.02 92.25 214.01 92.25 213.99 92.25 213.99 92.25 213.97 92.24 213.96 92.23 213.95 92.23 213.94 92.22 213.93 92.21 213.93 92.2 213.92 92.2 213.91 92.19 213.9 92.18 213.89 92.17 213.88 92.17 213.87 92.16 213.87 92.15 213.86 92.14 213.85 92.14 213.84 92.14 213.83 92.14 213.82 92.14 213.81 92.13 213.8 92.13 213.79 92.13 213.78 92.12 213.77 92.12 213.76 92.12 213.75 92.12 213.74 92.11 213.73 92.11 213.72 92.11 213.7 92.1 213.69 92.1 213.67 92.1 213.66 92.1 213.64 92.1 213.63 92.09 213.61 92.09 213.59 92.09 213.58 92.09 213.56 92.08 213.55 92.08 213.53 92.07 213.52 92.07 213.5 92.06 213.48 92.06 213.47 92.05 213.46 92.05 213.45 92.05 213.44 92.05 213.43 92.04 213.43 92.04 213.42 92.04 213.4 92.04 213.39 92.04 213.37 92.03 213.35 92.03 213.34 92.03 213.32 92.03 213.3 92.02 213.29 92.02 213.27 92.02 213.26 92.02 213.24 92.02 213.23 92.02 213.21 92.02 213.19 92.01 213.18 92.01 213.16 92.01 213.14 92.01 213.13 92.01 213.11 92.01 213.1 92 213.08 92 213.07 92 213.05 92 213.04 91.99 213.03 91.99 213.02 91.98 213.01 91.98 213.01 91.97 212.97 91.95 212.95 91.94 212.92 91.93 212.84 91.91 212.81 91.86 212.75 91.84 212.63 91.79 212.57 91.78 212.52 91.76 212.46 91.74 212.4 91.72 212.34 91.7 212.29 91.68 212.23 91.66 212.18 91.64 212.12 91.62 212.07 91.58 212.02 91.55 211.97 91.51 211.92 91.48 211.88 91.45 211.81 91.34 211.8 91.33 211.79 91.29 211.74 91.18 211.73 91.12 211.71 91.06 211.69 90.99 211.67 90.93 211.65 90.88 211.61 90.7 211.79 90.52 212.14 90.18 212.32 90.06 212.36 89.75 212.42 89.51 212.44 89.27 212.41 89.01 212.37 88.59 212.32 87.82 212.23 87.1 212.25 87.05 212.28 87 212.62 86.52 212.79 86.36 212.88 86.28 213.1 86.14 213.24 85.98 213.45 85.79 213.75 85.26 Z"/>
</g></svg>