<svg xmlns="http://www.w3.org/2000/svg" version="1.2" baseProfile="tiny" stroke-linecap="round" stroke-linejoin="round" viewBox="459.9 478.75 33 35.1"><g xmlns="http://www.w3.org/2000/svg" id="Funes">
<path d="M 487.53 479.75 487.52 479.76 487.54 479.93 487.55 480.12 487.53 480.35 487.52 480.58 487.51 480.7 487.5 480.82 487.5 480.88 487.49 480.96 487.49 481.07 487.51 481.22 487.5 481.33 487.47 481.51 487.47 481.57 487.47 481.63 487.53 481.62 487.59 481.63 487.7 481.66 487.71 481.69 487.72 481.76 487.75 481.89 487.77 481.97 487.8 482.06 487.81 482.07 487.85 482.08 487.91 482.09 488.07 482.07 488.13 482.07 488.17 482.07 488.18 482.13 488.19 482.2 488.2 482.3 488.2 482.37 488.22 482.43 488.26 482.47 488.37 482.57 488.45 482.65 488.49 482.69 488.52 482.71 488.55 482.68 488.58 482.66 488.59 482.66 488.65 482.74 488.74 482.91 488.8 483.02 488.93 483.27 488.95 483.36 488.95 483.37 488.96 483.4 488.98 483.5 488.99 483.53 489 483.65 489.02 483.71 489.02 483.72 489.04 483.79 489.06 483.87 489.07 483.91 489.09 484.01 489.1 484.03 489.11 484.09 489.12 484.15 489.14 484.21 489.17 484.26 489.2 484.31 489.22 484.34 489.26 484.42 489.28 484.48 489.28 484.5 489.29 484.51 489.3 484.54 489.3 484.6 489.3 484.69 489.33 484.85 489.34 484.96 489.36 485.03 489.39 485.09 489.41 485.15 489.46 485.23 489.5 485.32 489.54 485.41 489.56 485.45 489.58 485.48 489.62 485.53 489.66 485.58 489.74 485.69 489.8 485.76 489.84 485.8 489.87 485.83 489.88 485.84 489.96 485.91 489.97 485.91 490.09 486 490.31 486.17 490.35 486.21 490.37 486.3 490.37 486.32 490.43 486.66 490.44 486.68 490.47 486.89 490.38 486.74 490.28 486.68 490.16 486.6 490.08 486.57 490.03 486.55 489.98 486.54 489.9 486.55 489.78 486.58 489.5 486.64 489.42 486.67 489.32 486.73 489.21 486.82 489.15 486.89 489.21 486.93 489.26 486.96 489.32 486.99 489.39 487.04 489.77 487.27 490.69 487.81 490.85 487.88 491.08 487.99 491.82 488.24 492.08 488.32 492.18 488.33 492.25 488.35 492.26 488.36 492.32 488.4 492.37 488.44 492.41 488.47 492.64 488.71 492.67 488.75 492.74 488.83 492.79 488.89 492.82 488.93 492.84 488.98 492.88 489.17 492.9 489.28 492.89 489.37 492.88 489.45 492.87 489.5 492.87 489.55 492.88 489.57 492.82 489.74 492.79 489.8 492.72 489.87 492.61 489.96 492.48 490.03 492.34 490.1 492.17 490.14 491.97 490.15 491.82 490.15 491.7 490.14 491.55 490.12 491.48 490.12 491.42 490.13 491.26 490.2 491.08 490.27 490.98 490.32 490.93 490.33 490.6 490.42 490.27 490.48 489.85 490.53 489.52 490.53 489.3 490.49 489.14 490.44 488.96 490.35 488.73 490.2 488.59 490.13 488.47 490.11 488.36 490.11 488.23 490.15 488.11 490.2 488 490.29 487.84 490.44 487.57 490.77 487.28 491.15 487.13 491.37 487.03 491.56 486.98 491.75 486.92 492.1 486.87 492.54 486.83 492.77 486.85 492.95 486.9 493.12 487 493.25 487.11 493.32 487.29 493.39 487.47 493.49 487.63 493.63 487.73 493.74 487.77 493.84 487.79 493.94 487.78 494.01 487.73 494.13 487.61 494.24 487.5 494.31 487.37 494.38 487.2 494.43 487 494.44 486.83 494.43 486.67 494.39 486.51 494.32 486.34 494.2 486.18 494.02 485.99 493.72 485.77 493.37 485.56 493.06 485.34 492.79 485.08 492.59 484.52 492.27 484.17 492.12 483.71 492 483.22 491.89 482.72 491.71 482.23 491.5 481.84 491.38 481.5 491.33 481.3 491.35 481.18 491.39 481.13 491.43 481.07 491.49 480.96 491.66 480.85 491.91 480.74 492.43 480.66 493.11 480.63 493.67 480.74 494.35 480.91 494.8 481.1 495.05 481.35 495.27 481.83 495.52 481.77 495.58 481.79 495.59 481.86 495.62 481.88 495.63 481.93 495.71 481.98 495.78 482 495.82 482.03 495.87 482.07 495.95 482.12 496.01 482.12 496.03 482.14 496.06 482.16 496.1 482.25 496.24 482.29 496.29 482.37 496.42 482.48 496.63 482.54 496.73 482.6 496.83 482.73 497.05 482.76 497.11 482.78 497.17 482.8 497.24 482.96 497.75 482.97 497.78 483.01 497.91 483.03 497.97 483.08 498.11 483.13 498.27 483.14 498.32 483.16 498.37 483.25 498.64 483.27 498.71 483.3 498.8 483.31 498.83 483.33 498.87 483.38 498.94 483.46 499.05 484.06 499.83 484.27 500.13 484.4 500.38 484.41 500.43 484.43 500.47 484.48 500.62 484.49 500.64 484.55 500.85 484.58 500.9 484.62 501.1 484.67 501.26 484.67 501.3 484.7 501.44 484.74 501.59 484.75 501.67 484.79 501.9 484.8 501.96 484.81 502.02 484.82 502.06 484.84 502.17 484.87 502.32 484.88 502.4 484.89 502.47 484.92 502.66 484.92 502.68 484.95 502.81 484.88 502.86 484.79 502.92 484.71 502.97 484.68 502.99 484.61 503.09 484.53 503.21 484.46 503.32 484.44 503.35 484.4 503.4 484.23 503.53 484.16 503.58 484.07 503.64 484.06 503.65 483.99 503.73 483.88 503.86 483.86 503.87 483.77 503.94 483.59 504.07 483.53 504.12 483.48 504.17 483.46 504.18 483.38 504.2 483.25 504.26 483.12 504.29 483.01 504.31 482.78 504.34 482.73 504.35 482.69 504.38 482.64 504.41 482.61 504.43 482.51 504.53 482.47 504.49 482.46 504.43 482.44 504.29 482.42 504.2 482.4 504.14 482.35 504.04 482.31 503.98 482.21 503.84 482.14 503.74 482.09 503.68 482.02 503.6 481.89 503.47 481.77 503.36 481.72 503.31 481.63 503.21 481.51 503.1 481.45 503.04 481.41 502.97 481.39 502.95 481.38 502.93 481.37 502.95 481.08 504.01 480.96 504.43 480.79 505.03 480.76 505.17 480.71 505.37 480.68 505.51 480.63 505.63 480.53 505.97 480.52 506.01 480.46 506.23 480.37 506.52 480.36 506.56 480.33 506.64 480.31 506.7 480.3 506.76 480.26 506.89 480.25 506.93 480.22 507.06 480.18 507.19 479.9 508.06 479.74 508.54 479.74 508.56 479.73 508.57 479.72 508.62 479.64 508.95 479.64 508.96 479.55 509.31 479.51 509.45 479.5 509.47 479.49 509.5 479.48 509.54 479.48 509.55 479.48 509.56 479.47 509.57 479.47 509.59 479.46 509.62 479.45 509.67 479.33 510.08 479.26 510.29 479.24 510.36 479.21 510.48 479.13 510.73 479.05 511.01 479.02 511.09 479.02 511.1 479.02 511.12 479 511.17 478.95 511.37 478.94 511.39 479.06 511.66 479.09 511.76 479.22 512.17 479.24 512.26 479.25 512.32 479.27 512.36 479.28 512.38 479.44 512.92 479.48 513.04 479.48 513.06 479.39 513.07 479.37 513.07 479.31 513.08 479.2 513.09 478.99 513.11 478.7 513.14 478.26 513.17 478.09 513.21 478.01 513.24 477.82 513.27 477.68 513.3 477.26 513.4 477.12 513.42 477.07 513.45 477 513.5 476.89 513.57 476.77 513.64 476.68 513.68 476.43 513.79 476.35 513.83 476.31 513.85 476.31 513.84 476.27 513.77 476.25 513.73 476.27 513.69 476.34 513.51 476.36 513.43 476.37 513.41 476.41 513.31 476.47 513.14 476.48 513.12 476.49 513.08 476.49 513.06 476.47 513.03 476.4 512.96 476.28 512.84 476.22 512.76 476.19 512.71 476.14 512.6 476.12 512.58 476.11 512.53 476.1 512.5 476.09 512.48 476.07 512.45 476.07 512.43 476.06 512.39 476.06 512.38 476.03 512.36 475.99 512.33 475.96 512.3 475.92 512.28 475.83 512.22 475.7 512.17 475.68 512.16 475.63 512.14 475.61 512.12 475.43 511.98 475.39 511.97 475.33 511.96 475.32 511.96 475.18 511.92 475.15 511.91 475.12 511.9 475.07 511.88 475.03 511.87 474.8 511.86 474.79 511.86 474.78 511.86 474.54 511.85 474.43 511.84 474.36 511.83 474.29 511.83 474.27 511.83 474.18 511.81 474.03 511.78 473.99 511.77 473.98 511.77 473.94 511.76 473.86 511.75 473.78 511.73 473.73 511.72 473.5 511.68 473.41 511.66 473.25 511.63 473.03 511.57 472.97 511.56 472.89 511.55 472.68 511.58 472.57 511.58 472.55 511.58 472.48 511.58 472.46 511.57 472.38 511.56 472.31 511.54 472.27 511.53 472.26 511.53 472.24 511.51 472.18 511.45 472.11 511.37 472.08 511.34 472.05 511.32 471.98 511.27 471.87 511.15 471.86 511.13 471.83 511.1 471.78 511.04 471.77 511.02 471.73 510.98 471.7 510.92 471.68 510.86 471.61 510.73 471.59 510.69 471.52 510.59 471.44 510.47 471.36 510.36 471.31 510.31 471.27 510.28 470.98 510.04 470.95 510.02 470.92 510 470.86 509.98 470.8 509.96 470.76 509.93 470.68 509.86 470.62 509.82 470.49 509.94 470.43 510 470.31 510.09 470.25 510.14 470.2 510.17 470.14 510.19 470.05 510.23 470.02 510.24 469.98 510.26 469.97 510.27 469.96 510.29 469.95 510.31 469.94 510.34 469.93 510.37 469.91 510.42 469.88 510.53 469.81 510.74 469.8 510.78 469.8 510.81 469.79 510.88 469.79 511.03 469.79 511.15 469.79 511.24 469.79 511.37 469.78 511.4 469.77 511.46 469.76 511.52 469.74 511.56 469.73 511.57 469.68 511.63 469.64 511.65 469.59 511.68 469.51 511.71 469.41 511.75 469.39 511.76 469.37 511.78 469.35 511.81 469.32 511.85 469.31 511.87 469.24 511.97 469.08 512.18 469.01 512.26 468.97 512.32 468.93 512.37 468.91 512.38 468.81 512.28 468.57 512.07 468.5 512 468.42 511.93 468.35 511.86 468.17 511.7 468.03 511.57 468 511.53 467.87 511.34 467.74 511.17 467.69 511.11 467.57 510.94 467.5 510.84 467.41 510.76 467.33 510.69 467 510.42 466.93 510.36 466.87 510.31 466.8 510.25 466.72 510.19 466.64 510.13 466.24 509.93 466.01 509.84 466 509.83 465.82 509.79 465.73 509.77 465.68 509.76 465.53 509.7 465.35 509.61 465.33 509.59 465.32 509.58 465.29 509.56 465.24 509.53 465.16 509.46 465.11 509.41 465.04 509.34 464.98 509.28 464.95 509.23 464.89 509.13 464.86 509.06 464.84 508.99 464.73 508.65 464.65 508.37 464.4 507.58 464.38 507.38 464.35 507.04 464.31 506.66 464.29 506.4 464.26 506.15 464.26 506.14 464.26 506.13 464.26 506.12 464.26 506.1 464.23 505.81 464.16 505.18 464.15 505.05 464.15 505.03 464.15 505.02 464.15 504.97 464.15 504.94 464.3 504.41 464.36 504.18 464.36 504.16 464.37 504.14 464.37 504.14 464.44 503.92 464.55 503.6 464.61 503.43 464.63 503.36 464.7 503.21 464.71 503.18 464.84 502.91 464.97 502.63 464.99 502.58 465.07 502.38 465.11 502.26 465.23 501.91 465.23 501.9 465.34 501.64 465.36 501.58 465.38 501.53 465.4 501.49 465.45 501.37 465.47 501.34 465.52 501.27 465.58 501.15 465.6 501.13 465.61 501.11 465.64 501.08 465.64 501.06 465.65 501.05 465.66 501.03 465.67 501.01 465.67 500.98 465.67 500.97 465.67 500.9 465.67 500.88 465.68 500.83 465.73 500.69 465.77 500.59 465.8 500.51 465.82 500.39 465.82 500.36 465.83 500.26 465.84 500.19 465.85 500.13 465.87 500.03 465.88 499.96 465.91 499.85 465.95 499.74 465.96 499.69 465.96 499.66 465.95 499.59 465.94 499.57 465.91 499.47 465.88 499.41 465.86 499.37 465.81 499.29 465.79 499.26 465.73 499.15 465.68 499.03 465.62 498.93 465.58 498.85 465.55 498.79 465.5 498.7 465.46 498.57 465.38 498.24 465.36 498.14 465.35 498.08 465.33 497.98 465.3 497.88 465.27 497.75 465.25 497.72 465.2 497.59 465.16 497.49 465.16 497.44 465.15 497.37 465.16 497.27 465.18 497.15 465.2 497.06 465.21 497.01 465.24 496.94 465.25 496.92 465.25 496.91 465.25 496.86 465.25 496.84 465.24 496.69 465.23 496.61 465.21 496.51 465.21 496.48 465.2 496.37 465.19 496.35 465.17 496.25 465.14 496.2 465.14 496.19 465.04 495.97 464.98 495.82 464.97 495.81 464.96 495.77 464.93 495.69 464.92 495.66 464.9 495.63 464.88 495.59 464.84 495.56 464.81 495.55 464.75 495.52 464.72 495.5 464.71 495.49 464.7 495.48 464.7 495.47 464.68 495.4 464.68 495.35 464.68 495.28 464.68 495.25 464.69 495.14 464.69 495.06 464.68 494.96 464.67 494.87 464.65 494.8 464.64 494.7 464.62 494.63 464.59 494.58 464.59 494.56 464.58 494.53 464.58 494.49 464.55 494.38 464.52 494.28 464.47 494.15 464.39 493.91 464.38 493.85 464.37 493.83 464.35 493.77 464.35 493.77 464.33 493.75 464.32 493.73 464.31 493.67 464.31 493.62 464.32 493.57 464.32 493.52 464.32 493.47 464.32 493.45 464.31 493.41 464.27 493.28 464.27 493.27 464.21 493.08 464.19 493.02 464.18 493.01 464.16 492.93 464.14 492.87 464.12 492.81 464.09 492.7 464.03 492.55 463.95 492.31 463.93 492.25 463.9 492.2 463.89 492.18 463.82 492.02 463.82 491.99 463.81 491.98 463.78 491.86 463.76 491.82 463.72 491.72 463.72 491.71 463.66 491.56 463.62 491.47 463.6 491.42 463.56 491.33 463.55 491.31 463.53 491.25 463.51 491.22 463.49 491.17 463.48 491.14 463.46 491.09 463.43 491.02 463.41 490.97 463.41 490.95 463.37 490.89 463.35 490.8 463.3 490.66 463.29 490.58 463.26 490.5 463.25 490.41 463.24 490.39 463.22 490.36 463.2 490.23 463.16 490.05 463.12 489.93 463.11 489.93 463.09 489.88 463.08 489.87 463.04 489.77 463.02 489.7 463.02 489.69 463.02 489.67 463.02 489.67 463.01 489.66 462.95 489.53 462.83 489.31 462.78 489.21 462.76 489.16 462.64 488.93 462.6 488.84 462.59 488.82 462.58 488.78 462.57 488.76 462.56 488.71 462.55 488.7 462.51 488.53 462.49 488.47 462.43 488.32 462.4 488.25 462.39 488.24 462.34 488.09 462.3 487.94 462.29 487.91 462.27 487.8 462.22 487.62 462.2 487.54 462.17 487.44 462.13 487.31 462.1 487.22 462.1 487.18 462.1 487.18 462.09 487.11 462.06 486.94 462.02 486.81 461.99 486.76 461.96 486.71 461.94 486.67 461.89 486.59 461.71 486.29 461.69 486.25 461.67 486.23 461.64 486.21 461.61 486.17 461.59 486.14 461.58 486.12 461.55 486.09 461.43 485.92 461.42 485.9 461.39 485.85 461.26 485.63 461.19 485.53 461.19 485.52 461.18 485.5 461.16 485.45 461.06 485.32 460.93 485.13 460.9 485.08 460.66 484.84 460.64 484.81 460.59 484.76 460.57 484.72 460.55 484.68 460.54 484.65 460.51 484.6 460.5 484.58 460.47 484.48 460.42 484.32 460.39 484.26 460.39 484.24 460.38 484.23 460.37 484.19 460.36 484.17 460.34 484.04 460.32 483.95 460.32 483.94 460.3 483.89 460.28 483.79 460.26 483.74 460.26 483.71 460.26 483.68 460.26 483.6 460.27 483.52 460.28 483.47 460.28 483.45 460.31 483.33 460.33 483.21 460.36 483.08 460.36 483.06 460.39 482.91 460.44 482.67 460.45 482.58 460.45 482.55 460.45 482.53 460.45 482.51 460.44 482.49 460.42 482.48 460.36 482.43 460.3 482.38 460.29 482.37 460.25 482.32 460.21 482.27 460.18 482.23 460.16 482.2 460.08 482.1 460.03 482.04 459.98 481.96 459.94 481.92 459.93 481.91 459.94 481.9 460.01 481.83 460.11 481.76 460.21 481.7 460.31 481.65 460.4 481.61 460.5 481.58 460.57 481.55 460.6 481.53 460.65 481.5 460.72 481.45 460.77 481.42 460.84 481.38 461.15 481.18 461.23 481.14 461.3 481.1 461.31 481.1 461.33 481.09 461.4 481.04 461.44 481.02 461.62 480.9 461.68 480.86 461.73 480.83 461.8 480.8 461.9 480.75 461.91 480.74 461.93 480.73 462.03 480.68 462.14 480.62 462.28 480.55 462.4 480.51 462.45 480.49 462.47 480.49 462.54 480.48 462.58 480.47 462.59 480.46 462.61 480.46 462.66 480.45 462.68 480.44 462.7 480.44 462.76 480.43 462.99 480.39 463.04 480.39 463.09 480.38 463.17 480.37 463.24 480.37 463.29 480.37 463.29 480.39 463.31 480.39 463.32 480.39 463.34 480.39 463.36 480.39 463.38 480.39 463.4 480.39 463.46 480.4 463.45 480.41 463.45 480.42 463.44 480.44 463.43 480.45 463.43 480.47 463.42 480.48 463.42 480.5 463.42 480.52 463.42 480.53 463.42 480.55 463.42 480.56 463.42 480.57 463.42 480.59 463.42 480.61 463.42 480.63 463.42 480.64 463.42 480.66 463.42 480.68 463.42 480.69 463.42 480.71 463.42 480.73 463.42 480.75 463.42 480.76 463.42 480.78 463.41 480.81 463.41 480.83 463.41 480.85 463.41 480.85 463.41 480.87 463.42 480.89 463.42 480.9 463.43 480.92 463.44 480.94 463.45 480.95 463.46 480.97 463.46 480.98 463.49 481.01 463.51 481.03 463.52 481.04 463.53 481.05 463.54 481.07 463.55 481.08 463.57 481.09 463.58 481.11 463.59 481.12 463.6 481.13 463.61 481.14 463.62 481.15 463.64 481.16 463.65 481.17 463.67 481.18 463.68 481.19 463.7 481.2 463.71 481.2 463.72 481.21 463.73 481.22 463.75 481.23 463.78 481.24 463.8 481.25 463.81 481.26 463.83 481.27 463.84 481.28 463.85 481.29 463.86 481.3 463.88 481.31 463.89 481.32 463.9 481.34 463.93 481.36 463.94 481.37 463.95 481.38 463.96 481.39 463.96 481.4 463.98 481.41 463.99 481.42 464 481.43 464.01 481.45 464.03 481.46 464.04 481.47 464.06 481.49 464.07 481.5 464.08 481.51 464.09 481.52 464.11 481.53 464.12 481.54 464.14 481.56 464.15 481.56 464.17 481.57 464.19 481.58 464.2 481.58 464.22 481.59 464.24 481.6 464.25 481.61 464.27 481.61 464.28 481.62 464.3 481.63 464.31 481.64 464.32 481.65 464.34 481.66 464.36 481.68 464.37 481.69 464.38 481.7 464.39 481.71 464.41 481.73 464.42 481.74 464.43 481.75 464.45 481.76 464.47 481.77 464.48 481.77 464.5 481.78 464.51 481.78 464.52 481.79 464.53 481.79 464.56 481.8 464.57 481.81 464.59 481.82 464.61 481.83 464.62 481.84 464.64 481.85 464.65 481.86 464.67 481.87 464.68 481.88 464.7 481.89 464.71 481.9 464.72 481.9 464.73 481.92 464.75 481.93 464.76 481.94 464.77 481.95 464.79 481.96 464.8 481.97 464.81 481.98 464.83 481.99 464.84 482.01 464.85 482.02 464.87 482.04 464.88 482.05 464.89 482.06 464.9 482.08 464.91 482.09 464.93 482.1 464.95 482.1 464.96 482.11 464.98 482.12 465 482.12 465.01 482.12 465.03 482.13 465.06 482.14 465.07 482.15 465.11 482.16 465.12 482.17 465.16 482.18 465.25 482.23 465.27 482.24 465.28 482.25 465.31 482.27 465.33 482.29 465.34 482.3 465.36 482.31 465.38 482.32 465.39 482.33 465.42 482.35 465.43 482.36 465.45 482.37 465.46 482.38 465.48 482.39 465.49 482.4 465.5 482.41 465.52 482.42 465.53 482.43 465.55 482.44 465.56 482.45 465.58 482.46 465.59 482.47 465.61 482.48 465.62 482.49 465.64 482.49 465.64 482.5 465.66 482.51 465.67 482.52 465.69 482.53 465.7 482.54 465.71 482.56 465.72 482.57 465.74 482.58 465.75 482.59 465.78 482.61 465.79 482.62 465.81 482.63 465.82 482.64 465.83 482.65 465.84 482.66 465.87 482.68 465.88 482.69 465.9 482.7 465.91 482.71 465.93 482.72 465.94 482.73 465.95 482.74 465.97 482.75 465.98 482.76 466 482.77 466.01 482.78 466.03 482.79 466.04 482.8 466.06 482.81 466.07 482.82 466.09 482.83 466.1 482.83 466.12 482.84 466.13 482.85 466.15 482.86 466.17 482.87 466.18 482.88 466.19 482.89 466.21 482.89 466.22 482.91 466.24 482.92 466.25 482.93 466.27 482.94 466.28 482.95 466.3 482.96 466.32 482.96 466.33 482.97 466.36 482.99 466.38 482.99 466.4 483 466.41 483.01 466.43 483.02 466.44 483.03 466.46 483.04 466.47 483.05 466.49 483.06 466.5 483.07 466.52 483.08 466.53 483.08 466.55 483.09 466.56 483.1 466.58 483.11 466.6 483.12 466.61 483.13 466.63 483.14 466.67 483.16 466.69 483.17 466.73 483.2 466.75 483.21 466.76 483.21 466.78 483.22 466.79 483.23 466.81 483.24 466.83 483.25 466.86 483.27 466.87 483.28 466.9 483.3 466.92 483.31 466.93 483.32 466.95 483.32 466.96 483.33 466.98 483.34 466.99 483.35 467.01 483.37 467.02 483.38 467.04 483.39 467.05 483.4 467.07 483.41 467.08 483.42 467.09 483.43 467.11 483.44 467.12 483.45 467.14 483.46 467.15 483.47 467.16 483.48 467.18 483.49 467.19 483.5 467.21 483.5 467.22 483.51 467.24 483.52 467.25 483.53 467.27 483.54 467.28 483.55 467.3 483.56 467.31 483.57 467.33 483.57 467.35 483.58 467.36 483.59 467.37 483.6 467.39 483.62 467.4 483.63 467.63 483.76 467.71 483.81 467.95 483.95 467.95 483.94 467.96 483.93 467.97 483.91 467.97 483.9 467.98 483.88 467.99 483.87 468 483.84 468.01 483.83 468.02 483.81 468.02 483.81 468.03 483.79 468.04 483.77 468.04 483.76 468.06 483.73 468.07 483.71 468.08 483.69 468.1 483.65 468.12 483.61 468.14 483.58 468.17 483.51 468.21 483.45 468.21 483.44 468.22 483.43 468.23 483.41 468.24 483.4 468.25 483.38 468.26 483.36 468.26 483.34 468.27 483.32 468.27 483.31 468.28 483.29 468.29 483.27 468.3 483.24 468.31 483.23 468.32 483.21 468.32 483.19 468.33 483.18 468.34 483.16 468.34 483.15 468.35 483.13 468.36 483.11 468.37 483.1 468.38 483.06 468.39 483.05 468.4 483.03 468.41 483.01 468.42 482.98 468.43 482.97 468.44 482.95 468.45 482.93 468.45 482.92 468.46 482.9 468.48 482.85 468.49 482.84 468.5 482.82 468.5 482.81 468.51 482.8 468.52 482.78 468.54 482.73 468.55 482.72 468.56 482.7 468.57 482.68 468.58 482.65 468.59 482.64 468.6 482.62 468.6 482.61 468.61 482.59 468.62 482.56 468.63 482.55 468.64 482.53 468.64 482.52 468.65 482.5 468.65 482.48 468.66 482.47 468.66 482.46 468.66 482.45 468.67 482.43 468.68 482.4 468.69 482.39 468.69 482.38 468.73 482.29 468.75 482.25 468.78 482.2 468.79 482.19 468.8 482.17 468.83 482.12 468.83 482.1 468.84 482.08 468.86 482.05 468.87 482.04 468.88 482.02 468.89 482.01 468.9 481.99 468.91 481.98 468.92 481.96 468.93 481.95 468.94 481.94 468.95 481.91 468.96 481.89 468.97 481.87 468.98 481.86 468.99 481.84 469 481.83 469.01 481.81 469.02 481.8 469.04 481.79 469.05 481.78 469.06 481.76 469.07 481.75 469.08 481.74 469.1 481.73 469.11 481.71 469.12 481.7 469.13 481.69 469.14 481.67 469.15 481.66 469.17 481.64 469.18 481.63 469.19 481.62 469.2 481.6 469.21 481.59 469.22 481.57 469.23 481.56 469.24 481.54 469.25 481.52 469.25 481.51 469.63 480.94 469.67 480.88 469.76 480.74 469.77 480.73 469.97 480.49 470.06 480.38 470.19 480.24 470.2 480.23 470.27 480.14 470.41 479.96 470.44 479.92 470.54 479.82 470.55 479.81 471.17 479.21 471.23 479.18 471.33 479.11 471.37 479.09 471.38 479.08 471.39 479.07 471.41 479.06 471.42 479.05 471.43 479.04 471.45 479.03 471.46 479.02 471.48 479.01 471.5 479 471.51 478.99 471.55 478.97 471.56 478.96 471.58 478.96 471.6 478.94 471.61 478.93 471.62 478.92 471.64 478.91 471.65 478.9 471.67 478.89 471.79 478.79 471.82 478.83 471.83 478.84 471.85 478.86 471.86 478.87 471.87 478.88 471.88 478.9 471.9 478.91 471.91 478.92 471.92 478.93 471.93 478.94 471.94 478.95 471.95 478.96 471.98 478.99 471.99 479 472.01 479.02 472.02 479.03 472.04 479.04 472.05 479.05 472.08 479.08 472.09 479.09 472.1 479.1 472.11 479.12 472.12 479.13 472.13 479.14 472.14 479.16 472.15 479.17 472.17 479.2 472.18 479.21 472.19 479.23 472.2 479.25 472.21 479.26 472.23 479.29 472.23 479.3 472.24 479.32 472.25 479.33 472.26 479.35 472.27 479.36 472.28 479.37 472.29 479.39 472.3 479.4 472.31 479.41 472.32 479.42 472.33 479.43 472.34 479.45 472.36 479.47 472.39 479.5 472.4 479.51 472.41 479.52 472.42 479.54 472.44 479.56 472.45 479.57 472.47 479.6 472.5 479.63 472.51 479.65 472.52 479.66 472.55 479.69 472.55 479.69 472.56 479.71 472.57 479.72 472.59 479.72 472.6 479.73 472.62 479.74 472.64 479.75 472.65 479.76 472.67 479.78 472.7 479.8 472.72 479.81 472.73 479.82 472.74 479.84 472.76 479.85 472.77 479.86 472.78 479.87 472.79 479.88 472.8 479.9 472.81 479.91 472.82 479.93 472.82 479.93 472.83 479.95 472.86 479.99 472.88 480.02 472.89 480.03 472.89 480.05 472.9 480.06 472.91 480.07 472.92 480.08 472.94 480.09 472.95 480.11 472.97 480.12 472.98 480.13 472.99 480.14 473.01 480.15 473.02 480.16 473.04 480.18 473.06 480.19 473.07 480.21 473.09 480.22 473.1 480.22 473.11 480.23 473.23 480.23 473.25 480.22 473.27 480.23 473.29 480.23 473.31 480.24 473.33 480.24 473.35 480.24 473.36 480.24 473.38 480.24 473.39 480.24 473.41 480.23 473.42 480.23 473.44 480.22 473.45 480.21 473.47 480.2 473.48 480.19 473.49 480.19 473.51 480.18 473.53 480.17 473.54 480.17 473.54 480.17 473.55 480.17 473.6 480.26 473.62 480.24 473.73 480.09 473.78 480.02 473.8 480.01 473.84 480.01 473.88 480.02 473.9 480.02 473.91 480.02 473.94 480.02 473.96 480.03 473.99 480.03 474.01 480.03 474.03 480.03 474.04 480.04 474.06 480.04 474.08 480.04 474.09 480.04 474.11 480.04 474.12 480.04 474.12 480.01 474.12 479.99 474.12 479.98 474.12 479.96 474.12 479.94 474.12 479.93 474.12 479.93 474.13 479.9 474.13 479.88 474.14 479.88 474.16 479.88 474.17 479.89 474.18 479.9 474.2 479.92 474.22 479.93 474.23 479.94 474.24 479.95 474.25 479.96 474.27 479.98 474.27 479.98 474.28 479.99 474.3 480 474.31 480.01 474.33 480.02 474.34 480.03 474.36 480.04 474.38 480.04 474.39 480.05 474.41 480.06 474.42 480.06 474.44 480.07 474.46 480.07 474.49 480.08 474.5 480.09 474.52 480.09 474.54 480.1 474.59 480.12 474.6 480.12 474.62 480.13 474.64 480.13 474.67 480.14 474.7 480.15 474.73 480.16 474.76 480.17 474.77 480.18 474.79 480.18 474.81 480.19 474.82 480.19 474.84 480.2 474.86 480.21 474.87 480.22 474.89 480.22 474.91 480.23 474.93 480.24 474.99 480.25 475.01 480.26 475.06 480.28 475.2 480.32 475.37 480.37 475.44 480.39 475.48 480.4 475.54 480.42 475.55 480.42 475.57 480.43 475.59 480.43 475.59 480.43 475.63 480.44 475.64 480.45 475.67 480.45 475.68 480.46 475.71 480.47 475.75 480.48 475.77 480.48 475.79 480.49 475.8 480.49 475.82 480.5 475.84 480.5 475.86 480.51 475.89 480.51 475.91 480.52 475.92 480.52 475.94 480.53 475.96 480.53 475.97 480.53 475.99 480.54 476.02 480.55 476.04 480.55 476.05 480.56 476.09 480.57 476.12 480.58 476.14 480.58 476.16 480.59 476.19 480.6 476.21 480.6 476.22 480.61 476.26 480.61 476.29 480.62 476.31 480.63 476.32 480.63 476.39 480.65 476.41 480.65 476.43 480.66 476.44 480.66 476.47 480.67 476.5 480.68 476.52 480.68 476.55 480.69 476.6 480.71 476.62 480.71 476.65 480.72 476.7 480.74 476.72 480.74 476.77 480.76 476.8 480.77 476.82 480.77 476.84 480.78 476.85 480.78 476.87 480.79 476.89 480.79 476.9 480.8 476.92 480.8 476.94 480.8 476.96 480.81 476.98 480.81 477 480.82 477.01 480.82 477.03 480.82 477.05 480.83 477.06 480.83 477.07 480.83 477.09 480.84 477.1 480.84 477.12 480.85 477.13 480.86 477.16 480.87 477.17 480.87 477.19 480.88 477.23 480.9 477.25 480.9 477.3 480.91 477.32 480.92 477.35 480.93 477.37 480.94 477.51 480.98 477.53 480.98 477.58 481 477.59 481 477.62 481.01 477.63 481.02 477.65 481.02 477.7 481.04 477.72 481.04 477.73 481.05 477.75 481.05 477.77 481.06 477.78 481.06 477.8 481.07 477.82 481.08 477.83 481.08 477.85 481.09 477.87 481.1 477.88 481.11 477.9 481.11 477.92 481.12 477.93 481.13 477.95 481.13 477.97 481.14 477.98 481.15 478.02 481.16 478.02 481.16 478.03 481.17 478.05 481.17 478.08 481.18 478.1 481.19 478.12 481.2 478.13 481.21 478.17 481.22 478.18 481.23 478.2 481.23 478.21 481.24 478.23 481.25 478.25 481.25 478.27 481.26 478.28 481.27 478.3 481.27 478.32 481.28 478.33 481.28 478.35 481.29 478.37 481.29 478.39 481.3 478.4 481.3 478.42 481.31 478.44 481.31 478.46 481.32 478.48 481.32 478.53 481.33 478.55 481.33 478.56 481.33 478.57 481.34 478.59 481.34 478.61 481.34 478.63 481.33 478.65 481.33 478.67 481.32 478.68 481.32 478.69 481.31 478.71 481.31 478.72 481.3 478.74 481.29 478.75 481.28 478.76 481.27 478.77 481.26 478.79 481.26 478.8 481.24 478.82 481.23 478.83 481.22 478.84 481.21 478.86 481.2 478.88 481.18 478.89 481.17 478.9 481.16 478.92 481.15 478.93 481.14 478.94 481.13 478.96 481.11 478.97 481.1 478.98 481.09 478.99 481.07 479 481.06 479.02 481.05 479.03 481.03 479.04 481.02 479.05 481.01 479.06 480.99 479.07 480.98 479.08 480.97 479.09 480.95 479.1 480.93 479.11 480.92 479.12 480.91 479.14 480.89 479.15 480.88 479.16 480.86 479.17 480.85 479.18 480.83 479.19 480.82 479.21 480.81 479.22 480.79 479.23 480.78 479.25 480.77 479.26 480.76 479.27 480.75 479.28 480.74 479.29 480.74 479.3 480.73 479.31 480.72 479.33 480.71 479.35 480.7 479.36 480.7 479.38 480.69 479.4 480.68 479.41 480.67 479.43 480.67 479.44 480.66 479.45 480.65 479.47 480.64 479.48 480.64 479.49 480.64 479.51 480.64 479.52 480.63 479.53 480.62 479.55 480.61 479.57 480.6 479.58 480.59 479.6 480.58 479.61 480.57 479.63 480.56 479.64 480.55 479.66 480.54 479.67 480.53 479.68 480.52 479.69 480.5 479.62 480.26 479.62 480.24 479.62 480.23 479.63 480.23 479.66 480.22 479.72 480.21 479.76 480.2 479.78 480.19 479.81 480.17 479.89 480.07 479.97 479.98 480.01 479.93 480.08 479.87 480.12 479.84 480.16 479.82 480.27 479.78 480.31 479.77 480.34 479.74 480.35 479.72 480.37 479.71 480.4 479.7 480.44 479.7 480.56 479.7 480.65 479.7 480.72 479.7 480.8 479.71 480.87 479.72 480.93 479.71 481.04 479.69 481.09 479.69 481.14 479.69 481.19 479.67 481.28 479.64 481.33 479.62 481.35 479.62 481.37 479.62 481.38 479.62 481.4 479.64 481.41 479.66 481.42 479.67 481.44 479.67 481.47 479.68 481.49 479.65 481.51 479.62 481.53 479.6 481.7 479.48 481.76 479.43 481.79 479.4 481.83 479.33 481.85 479.3 481.89 479.28 481.95 479.24 482.02 479.21 482.09 479.18 482.14 479.15 482.19 479.12 482.25 479.08 482.29 479.06 482.32 479.04 482.34 479.01 482.35 479 482.37 479 482.41 478.99 482.44 478.99 482.5 478.96 482.53 478.95 482.57 478.94 482.61 478.94 482.63 478.93 482.66 478.92 482.72 478.92 482.75 478.92 482.77 478.9 482.79 478.89 482.84 478.88 483.11 478.84 483.22 478.82 483.3 478.81 483.41 478.81 483.47 478.82 483.51 478.81 483.56 478.81 483.61 478.8 483.64 478.8 483.7 478.78 483.79 478.75 483.83 478.75 483.86 478.75 483.88 478.76 483.89 478.78 483.9 478.79 483.89 478.83 483.9 478.85 483.9 478.91 483.9 478.93 483.91 478.95 483.91 478.96 483.92 478.98 483.92 478.99 483.94 479.05 483.95 479.07 483.95 479.08 483.96 479.11 483.97 479.12 483.97 479.14 483.98 479.15 483.99 479.2 484 479.22 484.01 479.23 484.01 479.25 484.02 479.27 484.03 479.29 484.03 479.3 484.05 479.34 484.05 479.35 484.06 479.36 484.07 479.38 484.07 479.4 484.08 479.41 484.09 479.42 484.09 479.43 484.09 479.46 484.09 479.48 484.09 479.5 484.09 479.51 484.11 479.54 484.12 479.58 484.13 479.6 484.13 479.62 484.14 479.64 484.14 479.66 484.14 479.67 484.15 479.68 484.16 479.7 484.17 479.71 484.18 479.72 484.2 479.74 484.22 479.76 484.23 479.77 484.24 479.79 484.25 479.81 484.26 479.83 484.26 479.83 484.27 479.85 484.32 479.85 484.43 479.84 484.48 479.85 484.5 479.85 484.52 479.86 484.57 479.89 484.65 479.92 484.67 479.92 484.7 479.92 484.74 479.91 484.76 479.91 484.77 479.91 484.78 479.92 484.81 479.95 484.81 479.96 484.83 479.96 484.85 479.96 484.91 479.95 484.95 479.95 484.99 479.95 485.13 479.97 485.17 479.97 485.21 479.98 485.23 479.97 485.25 479.97 485.27 479.96 485.29 479.97 485.3 479.98 485.32 480 485.33 480.01 485.34 480.01 485.36 480.01 485.38 480.01 485.39 480 485.41 480.01 485.43 480.02 485.43 480.03 485.43 480.06 485.42 480.12 485.42 480.16 485.43 480.19 485.44 480.22 485.44 480.22 485.45 480.23 485.47 480.23 485.51 480.22 485.54 480.22 485.57 480.22 485.61 480.22 485.68 480.21 485.71 480.21 485.73 480.2 485.76 480.17 485.78 480.16 485.81 480.15 485.85 480.14 485.89 480.14 485.92 480.14 485.93 480.13 485.95 480.11 485.97 480.09 485.99 480.08 486.01 480.08 486.03 480.08 486.05 480.06 486.07 480.04 486.09 480.03 486.11 480.02 486.14 480 486.17 479.98 486.23 479.96 486.3 479.93 486.35 479.92 486.38 479.91 486.39 479.9 486.41 479.89 486.44 479.87 486.48 479.86 486.5 479.86 486.52 479.87 486.53 479.88 486.55 479.89 486.57 479.9 486.6 479.9 486.63 479.9 486.65 479.9 486.68 479.92 486.71 479.94 486.72 479.94 486.74 479.94 486.76 479.93 486.78 479.92 486.8 479.92 486.81 479.93 486.83 479.94 486.86 479.93 486.91 479.93 486.93 479.92 486.95 479.91 486.97 479.91 487 479.91 487.03 479.91 487.04 479.9 487.06 479.87 487.07 479.86 487.08 479.85 487.1 479.86 487.14 479.86 487.17 479.86 487.19 479.85 487.21 479.82 487.23 479.81 487.25 479.8 487.26 479.8 487.29 479.81 487.31 479.81 487.37 479.8 487.4 479.8 487.44 479.78 487.47 479.78 487.49 479.77 487.51 479.75 487.53 479.75 Z"/>
</g></svg>