<svg xmlns="http://www.w3.org/2000/svg" version="1.2" baseProfile="tiny" stroke-linecap="round" stroke-linejoin="round" viewBox="561.47 574.25 41.42 35.72"><g xmlns="http://www.w3.org/2000/svg" id="Fustiñana">
<path d="M 570.79 579.74 571.01 579.63 571.06 579.53 571.07 579.52 571.15 579.39 571.16 579.37 571.19 579.32 571.17 579.27 571.14 579.18 571.11 579.1 571.09 579.07 571.09 579.04 571.08 579.03 571.05 578.93 571.02 578.83 571 578.77 571 578.73 571 578.7 571 578.68 571 578.61 571.02 578.59 571.06 578.55 571.13 578.51 571.23 578.46 571.37 578.39 571.41 578.37 571.44 578.36 571.51 578.34 571.61 578.3 571.71 578.27 571.82 578.22 571.85 578.21 571.92 578.2 572.02 578.18 572.06 578.19 572.15 578.24 572.24 578.28 572.33 578.32 572.45 578.37 572.6 578.43 572.65 578.44 572.67 578.44 572.7 578.44 572.73 578.44 572.76 578.44 572.81 578.44 572.98 578.45 573.11 578.45 573.2 578.45 573.24 578.45 573.3 578.45 573.39 578.45 573.42 578.31 573.43 578.24 573.43 578.17 573.42 578.08 573.42 578.04 573.41 577.99 573.41 577.95 573.41 577.84 573.4 577.8 573.41 577.77 573.46 577.75 573.56 577.71 573.73 577.61 573.84 577.52 573.88 577.48 573.89 577.44 573.91 577.38 573.93 577.29 573.94 577.25 573.92 577.2 573.89 577.08 573.89 577.07 573.87 577 573.86 576.93 573.82 576.81 573.79 576.7 573.78 576.66 573.76 576.63 573.7 576.58 573.58 576.49 573.53 576.46 573.51 576.45 573.43 576.45 573.33 576.45 573.3 576.45 573.28 576.45 573.14 576.48 573.12 576.48 573.12 576.41 573.13 576.33 573.13 576.21 573.14 576.18 573.14 576.13 573.16 576.04 573.16 576.01 573.2 575.84 573.23 575.7 573.23 575.69 573.23 575.67 573.26 575.52 573.26 575.5 573.28 575.38 573.31 575.3 573.32 575.29 573.33 575.26 573.36 575.2 573.4 575.09 573.41 575.07 573.42 575.06 573.43 575.02 573.44 574.99 573.46 574.94 573.52 574.77 573.54 574.72 573.59 574.61 573.63 574.58 573.65 574.58 573.83 574.54 574.19 574.47 574.21 574.47 574.33 574.44 574.34 574.44 574.39 574.42 574.44 574.39 574.48 574.38 574.49 574.37 574.62 574.31 574.69 574.28 574.73 574.3 574.76 574.33 574.78 574.34 574.85 574.39 574.92 574.44 575.06 574.52 575.23 574.61 575.43 574.74 575.46 574.76 575.57 574.84 575.63 574.88 575.65 574.89 575.67 574.91 575.74 574.97 575.83 575.06 575.91 575.1 576.03 575.17 576.14 575.23 576.2 575.29 576.21 575.3 576.22 575.31 576.24 575.33 576.31 575.4 576.34 575.42 576.39 575.45 576.48 575.5 576.54 575.54 576.6 575.55 576.64 575.56 576.69 575.57 576.85 575.63 576.97 575.67 577.18 575.74 577.22 575.75 577.35 575.92 577.36 575.95 577.48 576.1 577.51 576.14 577.55 576.23 577.62 576.35 577.74 576.52 577.83 576.65 577.89 576.73 577.92 576.78 578.03 576.9 578.04 576.9 578.11 576.96 578.2 577.04 578.28 577.11 578.37 577.18 578.45 577.24 578.51 577.31 578.61 577.42 578.69 577.5 578.79 577.56 578.92 577.64 579.07 577.73 579.23 577.83 579.37 577.9 579.44 577.93 579.57 578.05 579.59 578.07 579.65 578.15 579.68 578.19 579.7 578.23 579.7 578.25 579.96 578.31 580.13 578.24 580.34 578.16 580.37 578.14 580.45 578.11 580.47 578.1 580.52 578.08 580.56 578.06 580.59 578.05 580.65 578.01 580.74 577.97 580.82 577.92 581.01 577.92 581.17 577.91 581.18 577.86 581.19 577.81 581.21 577.75 581.25 577.7 581.27 577.67 581.32 577.64 581.36 577.63 581.43 577.62 581.52 577.65 581.62 577.7 581.74 577.76 581.88 577.83 582 577.89 582.12 577.95 582.18 577.97 582.34 578.11 582.46 578.22 582.57 578.32 582.64 578.37 582.69 578.41 582.69 578.42 582.79 578.5 582.84 578.53 582.96 578.59 583.06 578.65 583.18 578.73 583.24 578.78 583.26 578.81 583.29 578.83 583.35 578.85 583.41 578.85 583.41 578.85 583.64 578.88 583.74 578.89 583.8 578.89 583.81 578.89 583.89 578.89 584.03 578.89 584.04 578.9 584.05 578.9 584.1 578.92 584.12 578.94 584.17 578.96 584.21 578.99 584.32 579.04 584.37 579.08 584.45 579.06 584.92 578.97 584.97 578.95 584.98 578.95 585.08 578.94 585.23 578.94 585.38 578.94 585.49 578.94 585.59 579 585.7 579.05 585.72 579.05 585.81 579 585.82 579.01 586 579.1 586.08 579.13 586.15 579.15 586.3 579.21 586.32 579.23 586.33 579.25 586.33 579.26 586.34 579.27 586.36 579.28 586.43 579.37 586.71 579.71 586.78 579.79 586.86 579.89 586.91 579.92 586.92 579.94 587.02 580.02 587.11 580.1 587.16 580.1 587.31 580.11 587.55 580.14 587.65 580.08 587.89 580.13 588.08 580.17 588.25 580.21 588.46 580.06 588.65 579.92 588.8 579.81 588.88 579.78 588.97 579.76 589.02 579.76 589.16 579.78 589.19 579.8 589.32 579.9 589.37 579.94 589.4 579.98 589.42 579.98 589.43 579.99 589.44 579.99 589.58 580.04 589.67 580.07 589.75 580.03 589.89 579.97 590.06 579.9 590.17 579.96 590.37 580.07 590.37 580.07 590.55 580.17 590.56 580.18 590.77 580.26 591.13 580.3 591.3 580.32 591.31 580.32 591.32 580.33 591.33 580.33 591.58 580.35 591.62 580.35 591.68 580.33 591.78 580.3 591.99 580.27 592.2 580.24 592.32 580.22 592.53 580.2 592.71 580.18 592.79 580.23 592.92 580.32 593.06 580.41 593.21 580.51 593.22 580.52 593.26 580.55 593.3 580.57 593.63 580.79 593.94 581 593.94 581 593.97 581.02 594.13 581.06 594.37 581.12 594.37 581.12 594.52 581.15 594.75 581.2 594.76 581.2 594.93 581.24 595.39 581.35 595.87 581.47 596.58 581.99 596.62 582.02 596.63 582.04 596.64 582.04 596.7 582.09 597.11 582.44 597.25 582.53 597.34 582.6 597.47 582.69 597.62 582.8 597.68 582.84 597.78 582.91 598.06 583.1 598.25 583.24 598.27 583.26 599.03 584.35 599.11 584.42 599.53 584.85 599.69 585.1 600.02 585.59 600.06 585.67 600.06 585.7 600.06 585.71 600.07 585.72 600.13 585.88 600.23 586.18 600.33 586.47 600.33 586.48 600.34 586.5 600.36 586.55 600.48 586.69 600.56 586.79 600.75 587.02 600.85 587.18 600.9 587.26 600.92 587.28 601 587.42 601.05 587.51 601.37 587.76 601.52 587.88 601.58 587.92 601.64 588.02 601.7 588.09 601.73 588.16 601.75 588.22 601.8 588.34 601.86 588.46 601.9 588.53 601.93 588.59 602.03 588.76 602.15 588.93 602.25 589.1 602.26 589.12 602.28 589.16 602.32 589.23 602.34 589.28 602.35 589.29 602.38 589.35 602.41 589.42 602.43 589.48 602.43 589.49 602.5 589.64 602.51 589.67 602.53 589.72 602.61 589.9 602.82 590.02 602.82 590.05 602.83 590.12 602.86 590.38 602.86 590.4 602.82 590.76 602.82 590.81 602.76 590.89 602.71 590.96 602.45 591.34 602.33 592.09 602.29 592.58 602.25 592.74 602.24 592.76 602.22 592.83 602.17 593.02 602.14 593.17 602.12 593.26 602.08 593.36 601.91 593.55 601.86 593.61 601.86 593.62 601.72 593.78 601.71 593.79 601.59 593.93 601.66 594.21 601.38 594.57 601.26 594.73 601.21 594.79 601.17 594.85 600.96 595.11 600.95 595.12 600.95 595.13 600.83 595.27 600.83 595.28 600.8 595.31 600.78 595.34 600.62 595.42 600.6 595.44 600.42 595.5 600.21 595.56 599.96 595.64 599.8 595.66 599.53 595.68 599.52 595.68 599.44 595.69 599.43 595.69 599.42 595.7 599.3 595.71 599.26 595.72 599.08 595.76 598.61 595.96 598.04 596.16 597.74 596.27 597.31 596.28 597.13 596.33 597.11 596.33 596.96 596.37 596.69 596.45 596.58 596.47 596.47 596.45 596.41 596.44 596.2 596.4 595.97 596.5 595.98 596.56 595.99 596.86 595.99 596.88 595.99 596.92 595.99 596.94 595.99 596.95 595.98 596.97 595.97 597 595.93 597.09 595.91 597.17 595.9 597.24 595.87 597.33 595.87 597.36 595.86 597.41 595.77 597.47 595.7 597.52 595.67 597.53 595.65 597.54 595.63 597.56 595.43 597.67 595.29 597.74 595.27 597.76 595.17 597.89 595.01 598.11 594.94 598.2 594.88 598.27 594.86 598.29 594.82 598.33 594.66 598.47 594.51 598.61 594.48 598.64 594.27 598.82 594.22 598.86 594.22 598.87 594.17 598.91 594.06 599.01 593.9 599.16 593.87 599.19 593.85 599.21 593.83 599.22 593.56 599.47 593.55 599.49 593.46 599.57 593.35 599.67 593.21 599.8 592.95 600.03 592.79 600.17 592.76 600.23 592.7 600.35 592.65 600.45 592.64 600.46 592.59 600.49 592.47 600.57 592.42 600.61 592.4 600.61 592.39 600.63 592.36 600.65 591.93 600.94 591.92 600.95 591.84 600.95 591.49 600.92 591.48 600.93 591.28 601.18 591.1 601.39 590.99 601.53 590.93 601.61 590.92 601.62 590.81 601.79 590.73 601.92 590.62 602.08 590.6 602.12 590.51 602.24 590.35 602.47 590.33 602.5 590.3 602.53 590.09 602.67 589.92 602.78 589.86 602.82 589.72 602.91 589.67 602.94 589.49 603 589.29 603.03 589.09 603.07 588.98 603.17 588.88 603.28 588.71 603.44 588.32 603.6 588.24 603.66 588.12 603.75 588.08 603.78 587.99 603.87 587.87 603.99 587.73 604.03 587.71 604.04 587.61 604.07 587.4 604.13 587.31 604.19 587.21 604.28 587.15 604.33 587.12 604.36 587.04 604.49 586.95 604.64 586.92 604.67 586.84 604.79 586.85 604.93 586.85 604.95 586.85 604.97 586.85 604.98 586.86 605.1 586.87 605.3 586.87 605.32 586.87 605.34 586.87 605.35 586.77 605.42 586.71 605.52 586.66 605.63 586.63 605.69 586.59 605.77 586.55 605.74 586.48 605.68 586.41 605.61 586.36 605.55 586.31 605.51 586.24 605.45 586.16 605.38 586.09 605.31 586.04 605.27 586 605.24 585.97 605.28 585.96 605.29 585.94 605.32 585.93 605.34 585.93 605.37 585.93 605.39 585.92 605.46 585.91 605.55 585.91 605.63 585.9 605.67 585.9 605.7 585.89 605.76 585.87 605.84 585.86 605.91 585.84 605.97 585.83 606.04 585.81 606.12 585.8 606.2 585.78 606.27 585.77 606.35 585.75 606.42 585.74 606.49 585.73 606.57 585.71 606.64 585.7 606.7 585.68 606.76 585.67 606.84 585.66 606.9 585.65 606.97 585.64 607.03 585.64 607.05 585.63 607.12 585.62 607.2 585.61 607.29 585.64 607.3 585.66 607.31 585.68 607.31 585.74 607.33 585.77 607.34 585.8 607.34 585.84 607.35 585.93 607.38 585.98 607.39 585.99 607.4 586 607.4 586.03 607.41 586.06 607.41 586.09 607.42 586.12 607.43 586.16 607.44 586.19 607.46 586.23 607.49 586.28 607.52 586.36 607.57 586.42 607.62 586.5 607.68 586.58 607.73 586.64 607.77 586.67 607.79 586.68 607.8 586.68 607.82 586.7 607.87 586.73 607.96 586.77 608.1 586.72 608.15 586.62 608.23 586.52 608.32 586.42 608.4 586.33 608.48 586.27 608.52 586.26 608.53 586.25 608.53 586.17 608.51 586.04 608.48 585.99 608.46 585.85 608.43 585.73 608.4 585.65 608.38 585.58 608.36 585.56 608.36 585.54 608.35 585.5 608.33 585.48 608.33 585.47 608.32 585.4 608.3 585.32 608.26 585.24 608.23 585.15 608.19 585.11 608.18 585.09 608.17 584.99 608.13 584.9 608.09 584.83 608.06 584.81 608.05 584.77 608.03 584.72 608 584.64 607.96 584.55 607.91 584.51 607.89 584.48 607.87 584.42 607.84 584.37 607.81 584.36 607.8 584.33 607.78 584.33 607.72 584.33 607.7 584.38 607.71 584.43 607.71 584.48 607.71 584.55 607.72 584.64 607.74 584.7 607.74 584.74 607.75 584.79 607.75 584.83 607.74 584.85 607.74 584.87 607.74 584.9 607.72 584.94 607.71 584.97 607.68 584.99 607.67 585.03 607.64 585.07 607.59 585.1 607.55 585.13 607.51 585.18 607.48 585.22 607.44 585.29 607.42 585.35 607.39 585.42 607.37 585.46 607.33 585.47 607.32 585.48 607.31 585.51 607.31 585.52 607.3 585.55 607.29 585.57 607.27 585.58 607.22 585.59 607.18 585.59 607.14 585.58 607.12 585.57 607.09 585.55 607.11 585.52 607.12 585.46 607.12 585.41 607.12 585.38 607.12 585.3 607.12 585.23 607.13 585.17 607.14 585.1 607.14 585.01 607.15 584.92 607.16 584.83 607.18 584.76 607.18 584.7 607.19 584.63 607.19 584.55 607.21 584.5 607.2 584.46 607.21 584.43 607.23 584.39 607.24 584.31 607.24 584.23 607.25 584.14 607.26 584.05 607.26 583.96 607.27 583.88 607.28 583.81 607.28 583.76 607.28 583.73 607.29 583.71 607.29 583.67 607.29 583.65 607.29 583.63 607.29 583.57 607.28 583.55 607.28 583.49 607.27 583.43 607.26 583.39 607.25 583.32 607.24 583.26 607.23 583.19 607.22 583.15 607.21 583.08 607.21 583.02 607.2 582.96 607.19 582.88 607.17 582.81 607.16 582.7 607.14 582.62 607.12 582.55 607.11 582.48 607.1 582.44 607.09 582.38 607.08 582.36 607.06 582.32 607.03 582.27 606.99 582.22 606.94 582.16 606.9 582.12 606.86 582.06 606.8 582.01 606.73 581.98 606.7 581.95 606.67 581.93 606.64 581.89 606.58 581.86 606.53 581.83 606.47 581.8 606.41 581.78 606.38 581.77 606.36 581.74 606.32 581.7 606.26 581.67 606.21 581.65 606.17 581.63 606.12 581.62 606.06 581.61 605.97 581.6 605.91 581.6 605.86 581.6 605.83 581.6 605.81 581.58 605.77 581.54 605.69 581.47 605.57 581.43 605.52 581.42 605.49 581.43 605.46 581.46 605.42 581.47 605.4 581.53 605.29 581.56 605.23 581.65 605.08 581.68 605.02 581.73 604.94 581.76 604.89 581.79 604.83 581.82 604.77 581.85 604.72 581.87 604.66 581.89 604.61 581.92 604.55 581.94 604.49 581.96 604.44 581.97 604.41 581.99 604.37 581.99 604.35 582 604.33 582.01 604.26 582.03 604.2 582.03 604.13 582.04 604.06 582.04 604 582.04 603.9 582.04 603.88 582.04 603.87 582.04 603.83 582.03 603.76 582.02 603.7 582.01 603.64 581.99 603.59 581.98 603.55 581.95 603.5 581.94 603.48 581.93 603.45 581.9 603.39 581.87 603.32 581.85 603.27 581.82 603.22 581.8 603.17 581.76 603.13 581.72 603.07 581.7 603.05 581.66 603.02 581.62 602.99 581.56 602.96 581.49 602.92 581.44 602.89 581.37 602.86 581.3 602.83 581.23 602.8 581.19 602.78 581.14 602.77 581.08 602.75 581.04 602.75 580.97 602.73 580.9 602.72 580.83 602.72 580.78 602.71 580.72 602.7 580.68 602.7 580.64 602.7 580.58 602.7 580.55 602.68 580.51 602.68 580.46 602.68 580.42 602.68 580.37 602.67 580.32 602.67 580.28 602.68 580.23 602.68 580.17 602.7 580.1 602.71 580.02 602.72 579.97 602.74 579.89 602.75 579.83 602.76 579.78 602.77 579.74 602.78 579.72 602.78 579.68 602.79 579.65 602.8 579.62 602.8 579.54 602.82 579.46 602.83 579.38 602.84 579.33 602.84 579.25 602.84 579.18 602.85 579.13 602.85 579.09 602.86 579.04 602.88 578.97 602.91 578.9 602.93 578.84 602.96 578.78 602.98 578.72 603.01 578.65 603.03 578.59 603.06 578.52 603.08 578.47 603.11 578.41 603.13 578.35 603.15 578.31 603.17 578.27 603.2 578.22 603.23 578.18 603.26 578.14 603.3 578.11 603.33 578.06 603.37 578.01 603.43 577.98 603.48 577.94 603.52 577.9 603.57 577.87 603.61 577.84 603.65 577.82 603.69 577.79 603.73 577.76 603.78 577.74 603.84 577.72 603.9 577.69 603.97 577.66 604.04 577.63 604.1 577.61 604.15 577.61 604.19 577.6 604.24 577.59 604.29 577.58 604.34 577.58 604.39 577.58 604.43 577.57 604.48 577.57 604.52 577.56 604.55 577.57 604.58 577.58 604.63 577.6 604.68 577.61 604.74 577.62 604.79 577.64 604.84 577.65 604.88 577.66 604.92 577.69 604.98 577.7 605.04 577.72 605.08 577.72 605.1 577.74 605.14 577.76 605.17 577.78 605.2 577.8 605.23 577.82 605.26 577.85 605.29 577.88 605.32 577.91 605.35 577.96 605.39 577.99 605.42 578.02 605.45 578.1 605.54 578.17 605.62 578.23 605.69 578.29 605.75 578.36 605.83 578.42 605.89 578.49 605.94 578.52 605.96 578.59 606.01 578.66 606.06 578.74 606.1 578.81 606.14 578.85 606.16 578.91 606.2 578.98 606.26 579.05 606.32 579.11 606.37 579.13 606.39 579.17 606.42 579.26 606.5 579.29 606.53 579.33 606.56 579.36 606.6 579.41 606.64 579.43 606.66 579.45 606.69 579.47 606.71 579.52 606.76 579.57 606.81 579.59 606.83 579.65 606.91 579.7 606.98 579.76 607.04 579.81 607.09 579.85 607.15 579.89 607.21 579.96 607.3 580 607.36 580.05 607.43 580.09 607.51 580.13 607.57 580.16 607.63 580.18 607.69 580.2 607.75 580.22 607.79 580.25 607.84 580.29 607.9 580.33 607.95 580.36 608 580.37 608.03 580.37 608.04 580.35 608.05 580.32 608.07 580.3 608.07 580.28 608.09 580.27 608.14 580.25 608.21 580.24 608.27 580.22 608.33 580.22 608.35 580.21 608.4 580.19 608.47 580.18 608.51 580.16 608.56 580.13 608.61 580.1 608.65 580.05 608.71 579.99 608.77 579.94 608.81 579.89 608.85 579.83 608.89 579.77 608.93 579.72 608.97 579.66 609 579.6 609.03 579.56 609.05 579.55 609.06 579.47 609.1 579.39 609.13 579.31 609.15 579.23 609.16 579.16 609.18 579.08 609.19 579.02 609.2 578.96 609.2 578.88 609.19 578.81 609.19 578.72 609.18 578.63 609.17 578.55 609.16 578.47 609.15 578.39 609.14 578.32 609.13 578.22 609.11 578.13 609.09 578.03 609.07 577.94 609.05 577.85 609.03 577.78 609.01 577.7 608.98 577.62 608.95 577.56 608.93 577.47 608.9 577.38 608.87 577.3 608.83 577.21 608.79 577.15 608.75 577.08 608.7 577 608.64 576.95 608.59 576.89 608.53 576.84 608.47 576.8 608.41 576.76 608.34 576.71 608.27 576.62 608.13 576.58 608.06 576.54 608 576.45 607.84 576.42 607.78 576.37 607.71 576.33 607.64 576.3 607.58 576.26 607.51 576.21 607.43 576.16 607.35 576.12 607.28 576.07 607.21 576.02 607.14 575.97 607.08 575.92 607.01 575.86 606.93 575.82 606.87 575.71 606.75 575.65 606.69 575.6 606.63 575.55 606.57 575.5 606.52 575.44 606.46 575.39 606.4 575.33 606.35 575.28 606.3 575.22 606.25 575.18 606.21 575.09 606.11 575.04 606.07 575 606.03 574.95 605.98 574.91 605.94 574.85 605.88 574.81 605.84 574.77 605.8 574.72 605.75 574.65 605.68 574.6 605.64 574.54 605.67 574.43 605.72 574.38 605.74 574.32 605.76 574.26 605.78 574.21 605.81 574.14 605.83 574.14 605.83 574.1 605.84 574.06 605.86 573.99 605.88 573.93 605.9 573.88 605.92 573.83 605.94 573.79 605.95 573.74 605.97 573.72 605.98 573.71 605.99 573.66 606.02 573.6 606.06 573.54 606.09 573.48 606.13 573.42 606.17 573.36 606.21 573.33 606.22 573.29 606.24 573.22 606.29 573.16 606.33 573.14 606.34 573.07 606.39 572.99 606.45 572.92 606.49 572.85 606.54 572.82 606.55 572.81 606.56 572.78 606.59 572.75 606.6 572.72 606.62 572.67 606.65 572.65 606.66 572.6 606.69 572.57 606.71 572.51 606.74 572.48 606.75 572.44 606.79 572.43 606.79 572.41 606.81 572.39 606.82 572.33 606.86 572.26 606.92 572.2 606.96 572.1 607.03 572.04 607.08 572 607.12 571.93 607.18 571.87 607.23 571.82 607.28 571.77 607.33 571.71 607.39 571.64 607.47 571.58 607.55 571.55 607.59 571.51 607.64 571.46 607.69 571.42 607.74 571.38 607.8 571.32 607.87 571.27 607.93 571.23 607.98 571.19 608.03 571.16 608.07 571.14 608.1 571.12 608.15 571.09 608.19 571.07 608.23 571.05 608.25 571.02 608.29 570.98 608.34 570.95 608.39 570.91 608.45 570.87 608.49 570.83 608.54 570.8 608.59 570.79 608.59 570.79 608.6 570.77 608.62 570.74 608.65 570.71 608.69 570.66 608.73 570.64 608.75 570.63 608.76 570.62 608.77 570.58 608.81 570.55 608.85 570.54 608.86 570.53 608.89 570.51 608.92 570.5 608.94 570.48 608.97 570.45 608.99 570.43 608.97 570.41 608.98 570.39 608.99 570.39 609.02 570.39 609.03 570.38 609.07 570.36 609.1 570.35 609.1 570.34 609.12 570.31 609.13 570.3 609.15 570.29 609.15 570.26 609.17 570.22 609.21 570.21 609.21 570.17 609.24 570.12 609.29 570.11 609.29 570.07 609.33 570 609.38 569.95 609.42 569.94 609.43 569.9 609.46 569.87 609.48 569.79 609.51 569.73 609.54 569.67 609.56 569.63 609.58 569.62 609.58 569.6 609.6 569.57 609.61 569.51 609.63 569.5 609.63 569.45 609.65 569.42 609.66 569.38 609.69 569.36 609.71 569.33 609.71 569.32 609.72 569.28 609.73 569.25 609.74 569.21 609.75 569.19 609.75 569.15 609.73 569.09 609.72 569.04 609.71 568.99 609.71 568.96 609.71 568.93 609.71 568.9 609.72 568.88 609.73 568.87 609.75 568.86 609.77 568.86 609.78 568.87 609.82 568.88 609.84 568.86 609.85 568.79 609.87 568.77 609.87 568.75 609.88 568.72 609.88 568.7 609.89 568.69 609.89 568.67 609.9 568.64 609.91 568.58 609.91 568.57 609.91 568.48 609.92 568.42 609.93 568.4 609.93 568.39 609.93 568.34 609.94 568.3 609.93 568.28 609.86 568.3 609.8 568.32 609.73 568.4 609.39 568.45 609.22 568.48 609.1 568.51 608.98 568.6 608.64 568.65 608.46 568.78 607.96 568.8 607.86 568.82 607.79 568.84 607.72 568.85 607.69 568.86 607.63 568.88 607.56 568.92 607.42 568.96 607.27 569 607.11 569.01 607.07 569.37 605.67 569.5 605.19 569.63 604.97 569.84 604.61 570.17 604.71 570.24 604.57 570.32 604.39 570.57 603.84 570.62 603.75 570.65 603.67 570.72 603.52 570.75 603.47 570.62 603.41 570.42 603.3 570.25 603.21 570.02 603.11 569.79 603.02 569.55 602.93 569.31 602.86 569.06 602.8 568.87 602.77 568.72 602.75 568.47 602.73 568.24 602.72 567.93 602.72 567.84 602.72 567.68 602.72 567.5 602.73 567.32 602.74 567.17 602.76 567.08 602.77 566.96 602.79 566.87 602.81 566.81 602.85 566.82 602.71 566.83 602.62 566.85 602.51 566.86 602.44 566.87 602.42 566.87 602.39 566.87 602.38 566.87 602.37 566.87 602.36 566.88 602.33 566.88 602.3 566.86 602.28 566.86 602.25 566.86 602.19 566.86 602.13 566.86 602.12 566.85 602.08 566.85 602.05 566.84 602.01 566.82 601.98 566.81 601.93 566.79 601.88 566.78 601.84 566.77 601.81 566.77 601.77 566.76 601.73 566.76 601.68 566.76 601.67 566.75 601.65 566.75 601.62 566.74 601.57 566.74 601.55 566.75 601.53 566.75 601.52 566.75 601.51 566.76 601.48 566.76 601.43 566.77 601.32 566.76 601.25 566.76 601.24 566.76 601.22 566.77 601.15 566.77 601.09 566.77 601.02 566.78 600.94 566.77 600.89 566.77 600.84 566.78 600.8 566.79 600.74 566.81 600.68 566.82 600.62 566.82 600.6 566.83 600.56 566.83 600.51 566.82 600.48 566.81 600.45 566.81 600.41 566.81 600.37 566.82 600.31 566.82 600.24 566.83 600.18 566.82 600.14 566.82 600.11 566.82 600.08 566.83 600.01 566.83 599.95 566.84 599.93 566.85 599.81 566.86 599.74 566.86 599.68 566.87 599.58 566.87 599.5 566.86 599.42 566.86 599.4 566.86 599.36 566.87 599.26 566.88 599.14 566.88 599.06 566.88 599.04 566.89 599.02 566.89 598.94 566.89 598.85 566.89 598.84 566.88 598.77 566.89 598.7 566.89 598.68 566.9 598.63 566.9 598.59 566.91 598.56 566.89 598.55 566.87 598.52 566.82 598.5 566.78 598.48 566.72 598.46 566.68 598.44 566.63 598.43 566.58 598.41 566.59 598.43 566.6 598.45 566.59 598.47 566.56 598.53 566.51 598.6 566.45 598.68 566.4 598.75 566.34 598.81 566.3 598.85 566.26 598.88 566.14 598.97 565.96 599.1 565.79 599.24 565.68 599.33 565.67 599.34 565.69 599.38 565.7 599.43 565.69 599.44 565.67 599.45 565.65 599.45 565.54 599.45 565.51 599.47 565.5 599.48 565.49 599.5 565.49 599.54 565.49 599.58 565.49 599.65 565.5 599.71 565.5 599.76 565.51 599.81 565.51 599.84 565.51 599.88 565.5 599.93 565.5 600 565.49 600.05 565.48 600.13 565.47 600.18 565.46 600.23 565.44 600.31 565.42 600.37 565.41 600.4 565.39 600.44 565.36 600.5 565.34 600.56 565.33 600.58 565.32 600.59 565.28 600.68 565.26 600.72 565.24 600.77 565.21 600.81 565.19 600.84 565.17 600.86 565.15 600.88 565.12 600.9 565.1 600.96 565.07 601.01 565.04 601.07 565 601.15 565 601.16 564.97 601.21 564.96 601.23 564.95 601.25 564.94 601.27 564.92 601.31 564.88 601.35 564.84 601.39 564.8 601.44 564.77 601.47 564.74 601.51 564.7 601.55 564.66 601.6 564.62 601.64 564.56 601.7 564.51 601.74 564.49 601.76 564.48 601.83 564.5 601.88 564.49 601.92 564.48 601.98 564.47 602.02 564.46 602.07 564.46 602.11 564.45 602.17 564.43 602.24 564.43 602.27 564.43 602.28 564.44 602.3 564.45 602.31 564.46 602.34 564.47 602.35 564.5 602.41 564.55 602.48 564.58 602.54 564.6 602.59 564.63 602.63 564.67 602.7 564.69 602.73 564.7 602.75 564.73 602.8 564.76 602.84 564.77 602.87 564.78 602.89 564.79 602.91 564.84 602.99 564.86 603.04 564.89 603.08 564.94 603.17 564.98 603.24 565.03 603.32 565.07 603.39 565.08 603.4 565.11 603.46 565.14 603.51 565.19 603.6 565.13 603.61 564.94 603.59 564.82 603.57 564.75 603.57 564.71 603.56 564.67 603.56 564.65 603.55 564.43 603.51 564.25 603.47 564.03 603.4 563.81 603.32 563.59 603.21 563.38 603.1 563.17 602.98 563.03 602.87 562.89 602.74 562.76 602.59 562.64 602.45 562.5 602.31 562.37 602.18 562.23 602.04 562.11 601.91 561.98 601.74 561.86 601.58 561.74 601.46 561.62 601.34 561.51 601.21 561.48 601.17 561.54 601.13 561.6 601.08 561.62 601.05 561.63 601.04 561.66 600.99 561.66 600.98 561.67 600.97 561.69 600.91 561.71 600.86 561.71 600.77 561.72 600.71 561.72 600.68 561.72 600.67 561.72 600.63 561.73 600.59 561.78 600.61 561.81 600.5 561.81 600.47 561.81 600.46 561.82 600.43 561.84 600.41 561.84 600.4 561.85 600.36 561.85 600.32 561.85 600.28 561.84 600.24 561.84 600.21 561.85 600.17 561.86 600.14 561.86 600.13 561.87 600.11 561.91 600.08 561.94 600.03 561.98 600 561.99 600.01 562.01 600.01 562.04 600.01 562.09 600.02 562.11 600.02 562.18 600.02 562.21 600.02 562.25 600.01 562.26 600.01 562.33 600.01 562.38 600 562.42 600 562.45 599.99 562.53 599.99 562.54 599.99 562.67 599.98 562.69 599.98 562.73 599.99 562.77 599.99 562.82 600 562.84 599.99 562.86 599.99 562.89 599.97 562.92 599.95 562.94 599.94 562.99 599.91 562.99 599.9 563.02 599.88 563.11 599.81 563.12 599.81 563.16 599.78 563.16 599.78 563.19 599.75 563.2 599.74 563.23 599.72 563.28 599.69 563.28 599.68 563.29 599.67 563.31 599.66 563.32 599.64 563.33 599.63 563.33 599.62 563.35 599.58 563.37 599.57 563.38 599.56 563.39 599.55 563.43 599.5 563.43 599.47 563.43 599.46 563.42 599.42 563.41 599.36 563.41 599.33 563.39 599.26 563.37 599.16 563.35 599.1 563.35 599.07 563.34 599.05 563.34 599.04 563.33 599.02 563.31 598.93 563.29 598.88 563.28 598.86 563.27 598.85 563.27 598.81 563.28 598.8 563.3 598.78 563.31 598.76 563.33 598.76 563.36 598.73 563.41 598.7 563.49 598.65 563.54 598.61 563.57 598.59 563.6 598.57 563.61 598.56 563.65 598.54 563.66 598.51 563.68 598.48 563.68 598.47 563.69 598.45 563.7 598.46 563.75 598.36 563.8 598.24 563.84 598.15 563.86 598.1 563.87 598.06 563.87 598.05 563.87 598.04 564.24 598.17 564.43 598.24 564.62 598.32 564.69 598.36 564.71 598.38 564.73 598.39 564.74 598.4 564.75 598.41 564.76 598.41 564.77 598.43 564.78 598.44 564.81 598.46 564.85 598.48 564.88 598.51 564.9 598.53 564.92 598.55 564.95 598.58 564.99 598.61 565.05 598.53 565.11 598.44 565.16 598.37 565.18 598.35 565.15 598.33 565.11 598.31 565.05 598.27 564.97 598.22 564.91 598.18 564.86 598.15 564.79 598.12 564.69 598.09 564.58 598.06 564.46 598.01 564.38 597.98 564.28 597.94 564.19 597.9 564.15 597.87 564.1 597.82 564.05 597.77 564.02 597.72 564.01 597.68 564 597.65 563.98 597.63 563.96 597.6 563.91 597.52 563.88 597.48 563.81 597.41 563.76 597.36 563.71 597.32 563.72 597.31 563.77 597.2 563.77 597.19 563.78 597.17 563.78 597.16 563.86 597.19 563.93 597.22 564.02 597.25 564.12 597.27 564.2 597.28 564.27 597.3 564.35 597.32 564.42 597.33 564.5 597.33 564.57 597.33 564.64 597.32 564.71 597.31 564.78 597.29 564.85 597.28 564.91 597.26 564.99 597.23 565.09 597.21 565.2 597.19 565.31 597.17 565.42 597.16 565.5 597.14 565.57 597.13 565.65 597.13 565.7 597.13 565.75 597.13 565.79 597.13 565.83 597.15 566.02 597.23 566.29 597.32 566.42 597.36 566.46 597.29 566.5 597.24 566.56 597.14 566.6 597.1 566.63 597.07 566.61 597.05 566.59 597.03 566.57 597 566.51 596.91 566.48 596.86 566.44 596.78 566.41 596.72 566.42 596.69 566.43 596.67 566.41 596.63 566.4 596.6 566.39 596.58 566.36 596.56 566.34 596.54 566.3 596.53 566.28 596.52 566.23 596.51 566.16 596.51 566.11 596.5 566.07 596.5 566.01 596.48 565.95 596.45 565.91 596.43 565.84 596.39 565.78 596.36 565.71 596.32 565.64 596.29 565.57 596.24 565.52 596.21 565.47 596.19 565.43 596.17 565.38 596.14 565.31 596.11 565.26 596.09 565.23 596.07 565.19 596.05 565.12 596.03 565.06 596.01 564.98 595.99 564.89 595.96 564.82 595.94 564.73 595.92 564.67 595.9 564.61 595.88 564.55 595.88 564.58 595.82 564.61 595.75 564.66 595.61 564.83 595.15 564.85 595.12 564.86 595.09 564.98 594.78 565 594.72 565.06 594.57 565.15 594.32 565.16 594.31 565.26 594.06 565.26 594.05 565.28 594.01 565.28 594 565.32 593.89 565.42 593.64 565.47 593.52 565.48 593.48 565.54 593.33 565.55 593.31 565.65 593.06 565.66 593.05 565.67 593 565.71 592.9 565.73 592.87 565.77 592.74 565.86 592.52 565.89 592.44 565.91 592.38 565.97 592.23 565.97 592.22 565.98 592.19 566.02 592.09 566.04 592.05 566.06 592.01 566.1 591.91 566.17 591.72 566.17 591.71 566.18 591.69 566.19 591.67 566.19 591.66 566.27 591.47 566.28 591.43 566.34 591.27 566.36 591.23 566.47 590.96 566.54 590.78 566.6 590.62 566.95 589.73 566.97 589.69 567.03 589.54 567.07 589.4 567.1 589.33 567.36 588.7 567.4 588.6 567.45 588.47 567.61 588.08 567.72 587.8 567.94 587.2 567.96 587.15 567.98 587.11 568.05 586.91 568.06 586.89 568.15 586.63 568.19 586.53 568.22 586.46 568.39 586.04 568.4 586 568.41 585.99 568.42 585.94 568.54 585.63 568.58 585.54 568.66 585.33 568.71 585.2 568.82 584.91 568.87 584.79 568.98 584.49 568.99 584.48 569.07 584.28 569.13 584.12 569.14 584.1 569.15 584.07 569.18 583.98 569.19 583.96 569.27 583.76 569.28 583.72 569.36 583.5 569.39 583.43 569.48 583.17 569.53 583.04 569.57 582.93 569.59 582.87 569.62 582.79 569.62 582.78 569.63 582.77 569.65 582.72 569.65 582.7 569.67 582.66 569.68 582.63 569.7 582.57 569.7 582.55 569.71 582.54 569.72 582.52 569.77 582.39 569.81 582.28 569.82 582.26 569.82 582.25 569.9 582.02 569.91 582 569.98 581.82 569.98 581.8 570.04 581.65 570.05 581.64 570.07 581.59 570.07 581.57 570.08 581.55 570.1 581.47 570.21 581.23 570.25 581.13 570.33 580.91 570.42 580.66 570.5 580.43 570.55 580.32 570.57 580.26 570.58 580.25 570.58 580.24 570.62 580.14 570.63 580.12 570.63 580.11 570.67 580.02 570.74 579.86 570.74 579.85 570.75 579.84 570.78 579.75 570.79 579.74 Z"/>
</g></svg>