<svg xmlns="http://www.w3.org/2000/svg" version="1.2" baseProfile="tiny" stroke-linecap="round" stroke-linejoin="round" viewBox="683.03 58.73 14.02 15.22"><g xmlns="http://www.w3.org/2000/svg" id="Gabadi">
<path d="M 695.22 62.71 695.01 62.55 694.96 62.8 694.95 62.96 695.08 63.14 695.06 63.25 694.98 63.43 694.59 63.88 694.41 64.07 694.09 64.1 694.07 64.12 694.06 64.16 694.04 64.2 694 64.24 693.9 64.35 693.88 64.37 693.85 64.4 693.82 64.41 693.77 64.45 693.71 64.51 693.62 64.61 693.58 64.65 693.52 64.68 693.47 64.71 693.41 64.8 693.34 64.92 693.33 64.96 693.32 64.98 693.18 64.95 693.16 64.95 693.15 64.95 693.12 64.95 693.03 64.95 692.82 64.93 692.6 64.92 692.58 64.91 692.56 64.9 692.55 64.88 692.53 64.86 692.52 64.85 692.5 64.84 692.46 64.83 692.41 64.82 692.36 64.81 692.31 64.8 692.28 64.78 692.25 64.77 692.24 64.77 692.2 64.79 692.1 64.86 692.06 64.91 692.02 64.93 692 64.96 691.99 64.99 691.97 65 691.94 65 691.9 64.99 691.87 64.97 691.73 64.88 691.53 64.75 691.51 64.73 691.47 64.72 691.45 64.77 691.39 65.1 691.38 65.19 691.36 65.36 691.35 65.43 691.33 65.57 691.33 65.67 691.34 65.73 691.34 65.78 691.36 65.84 691.37 65.93 691.37 66.02 691.38 66.11 691.38 66.2 691.37 66.29 691.37 66.38 691.37 66.49 691.37 66.58 691.37 66.65 691.38 66.72 691.4 66.83 691.42 66.93 691.44 66.99 691.47 67.08 691.49 67.12 691.51 67.2 691.58 67.45 691.61 67.58 691.62 67.7 691.68 68.03 691.72 68.21 691.74 68.31 691.77 68.37 691.82 68.46 691.84 68.52 691.85 68.57 691.86 68.63 691.86 68.64 691.87 68.66 691.87 68.68 691.88 68.73 691.89 68.78 691.9 68.84 691.92 68.88 691.94 68.95 691.96 69.01 691.96 69.07 691.96 69.12 691.96 69.15 691.95 69.2 691.93 69.36 691.9 69.47 691.87 69.53 691.81 69.62 691.72 69.75 691.67 69.88 691.59 70.08 691.56 70.22 691.56 70.29 691.55 70.31 691.55 70.37 691.58 70.79 691.6 71.03 691.64 71.19 691.66 71.38 691.66 71.48 691.68 71.74 691.7 71.97 691.7 72.07 691.68 72.21 691.67 72.23 691.64 72.36 691.62 72.41 691.52 72.64 691.4 72.92 691.3 73.15 691.24 73.3 691.22 73.43 691.2 73.58 691.19 73.78 691.19 73.92 691.16 73.92 691.12 73.92 691.07 73.93 690.99 73.95 690.94 73.81 690.98 73.6 690.98 73.39 690.77 73.38 690.7 73.4 690.64 73.63 690.42 73.65 690.03 73.62 689.69 73.54 689.67 73.51 689.78 73.32 689.76 73.25 689.46 72.99 689.4 72.98 689.37 73.01 689.3 73.03 689.26 72.97 688.72 72.98 688.2 73.02 688.15 73.11 688.1 73.65 688.01 73.66 687.94 73.68 687.82 73.76 687.7 73.85 687.14 73.54 687.03 73.52 686.96 73.77 686.85 73.77 686.75 73.52 686.61 73.33 686.4 73.24 685.67 73.11 685.64 73.2 685.58 73.22 685.02 72.76 684.96 72.91 684.92 72.92 684.89 72.93 684.88 72.94 684.86 72.97 684.8 73.06 684.78 73.08 684.54 73.03 684.41 72.93 684.4 72.84 684.47 72.78 684.63 72.65 684.61 72.6 684.51 72.34 684.21 72.24 683.96 72.16 683.88 72.13 683.83 72.1 683.52 71.95 683.29 71.8 683.06 71.63 683.22 71.26 683.15 71.12 683.16 71.1 683.17 71.09 683.19 71.08 683.2 71.07 683.21 71.05 683.22 71.05 683.24 71.03 683.26 71 683.26 70.99 683.27 70.97 683.27 70.95 683.28 70.94 683.28 70.94 683.29 70.92 683.29 70.91 683.31 70.89 683.32 70.88 683.32 70.86 683.33 70.84 683.34 70.83 683.35 70.82 683.36 70.8 683.38 70.78 683.39 70.76 683.41 70.74 683.43 70.72 683.46 70.67 683.5 70.63 683.53 70.6 683.55 70.59 683.56 70.58 683.57 70.57 683.57 70.56 683.58 70.55 683.58 70.54 683.58 70.53 683.58 70.51 683.58 70.5 683.58 70.48 683.57 70.46 683.56 70.45 683.55 70.43 683.52 70.41 683.48 70.4 683.46 70.4 683.45 70.39 683.38 70.38 683.35 70.37 683.34 70.36 683.33 70.36 683.31 70.35 683.3 70.34 683.29 70.33 683.29 70.32 683.28 70.31 683.28 70.3 683.27 70.29 683.27 70.28 683.26 70.26 683.25 70.26 683.24 70.25 683.24 70.25 683.22 70.24 683.22 70.23 683.21 70.22 683.2 70.19 683.25 70.1 683.3 70 683.49 69.76 683.52 69.72 683.6 69.62 683.8 69.33 683.83 69.28 683.86 69.2 683.87 69.14 683.88 69.09 683.88 69.03 683.88 68.99 683.87 68.95 683.87 68.9 683.87 68.84 683.87 68.79 683.87 68.72 683.86 68.69 683.86 68.63 683.86 68.57 683.86 68.52 683.87 68.48 683.88 68.43 683.9 68.4 683.92 68.36 683.94 68.33 683.96 68.29 683.97 68.27 684 68.24 684.03 68.21 684.06 68.2 684.09 68.18 684.12 68.16 684.15 68.13 684.18 68.1 684.2 68.07 684.23 68.03 684.25 68 684.26 67.97 684.28 67.94 684.29 67.87 684.29 67.84 684.27 67.8 684.28 67.75 684.3 67.71 684.33 67.66 684.36 67.62 684.39 67.59 684.42 67.55 684.44 67.53 684.48 67.5 684.52 67.47 684.55 67.46 684.59 67.44 684.63 67.42 684.66 67.4 684.69 67.38 684.72 67.34 684.75 67.32 684.78 67.31 684.84 67.29 684.87 67.28 684.9 67.26 684.93 67.23 684.94 67.23 684.94 67.22 684.96 67.2 684.97 67.18 684.98 67.14 684.98 67.11 684.97 67.09 684.95 67.06 684.92 67.03 684.91 67.01 684.88 67 684.86 66.99 684.81 66.98 684.79 66.97 684.76 66.96 684.73 66.93 684.71 66.91 684.7 66.87 684.7 66.84 684.72 66.78 684.72 66.74 684.73 66.69 684.72 66.65 684.71 66.61 684.7 66.58 684.69 66.54 684.68 66.51 684.65 66.47 684.64 66.44 684.63 66.41 684.62 66.38 684.61 66.35 684.62 66.31 684.63 66.27 684.64 66.23 684.64 66.18 684.64 66.14 684.62 66.1 684.61 66.06 684.58 66.02 684.56 65.99 684.54 65.96 684.51 65.93 684.49 65.9 684.45 65.86 684.43 65.83 684.41 65.79 684.39 65.71 684.39 65.66 684.38 65.61 684.36 65.51 684.35 65.46 684.34 65.35 684.33 65.32 684.33 65.28 684.33 65.27 684.32 65.21 684.31 65.19 684.31 65.13 684.31 65.08 684.3 64.99 684.31 64.96 684.32 64.92 684.34 64.89 684.36 64.86 684.38 64.84 684.39 64.82 684.4 64.8 684.4 64.78 684.39 64.76 684.37 64.75 684.35 64.74 684.33 64.74 684.31 64.74 684.28 64.73 684.26 64.72 684.23 64.7 684.19 64.66 684.37 64.61 684.74 64.57 685.02 64.56 685.16 64.56 685.2 64.56 685.25 64.57 685.33 64.59 685.44 64.62 685.56 64.64 685.66 64.68 685.77 64.69 685.9 64.71 686.03 64.71 686.19 64.71 686.31 64.7 686.36 64.69 686.43 64.68 686.51 64.65 686.63 64.6 686.8 64.51 686.95 64.45 687.05 64.41 687.15 64.32 687.17 64.24 687.16 64.12 687.13 64 687.1 63.9 687.08 63.85 687.06 63.78 687.03 63.66 687.03 63.52 687.02 63.35 687.01 63.15 687 63.01 686.98 62.85 686.93 62.67 686.92 62.61 686.91 62.5 686.91 62.46 686.77 62.43 686.75 62.19 686.82 62.04 687.01 62.02 687.02 62.01 687.14 61.93 687.28 61.87 687.47 61.84 687.61 61.82 687.77 61.84 687.92 61.86 688.05 61.85 688.19 61.81 688.3 61.76 688.41 61.68 688.57 61.54 688.74 61.39 688.88 61.24 689.04 61.09 689.17 61.03 689.29 61.01 689.41 61.04 689.58 61.08 689.71 61.13 689.76 61.21 689.77 61.25 690.39 60.76 690.44 60.72 690.49 60.7 690.56 60.68 690.59 60.67 690.63 60.65 690.66 60.64 690.69 60.65 690.74 60.66 690.8 60.68 690.82 60.69 690.84 60.68 690.85 60.67 690.85 60.66 690.85 60.65 690.84 60.64 690.81 60.62 690.78 60.59 690.77 60.58 690.76 60.56 691.06 60.43 691.68 59.69 691.82 59.67 691.85 59.11 691.89 59.11 692.27 59.26 692.37 59.27 692.46 59.21 692.57 59.03 692.79 58.96 692.78 59.09 692.72 59.2 692.72 59.23 692.9 59.31 692.95 59.32 693 59.34 693.08 59.38 693.18 59.43 693.23 59.46 693.29 59.5 693.39 59.57 693.51 59.65 693.6 59.72 693.69 59.77 693.73 59.79 693.74 59.8 693.84 59.58 693.86 59.41 693.9 59.24 694.11 59.21 694.16 59.14 694.26 58.83 694.31 58.81 694.67 58.91 694.99 58.93 695.15 58.92 695.18 58.9 695.29 58.78 695.31 58.79 695.34 58.8 695.35 58.78 695.35 58.75 695.37 58.74 695.38 58.74 695.39 58.77 695.41 58.8 695.44 58.8 695.46 58.8 695.48 58.78 695.5 58.75 695.53 58.75 695.56 58.75 695.58 58.78 695.61 58.8 695.64 58.81 695.66 58.8 695.69 58.78 695.72 58.78 695.75 58.79 695.76 58.81 695.78 58.84 695.81 58.87 695.84 58.91 695.85 58.94 695.85 58.98 695.85 59 695.85 59.04 695.86 59.07 695.88 59.11 695.9 59.15 695.92 59.18 695.96 59.22 696 59.24 696.04 59.26 696.09 59.27 696.14 59.29 696.19 59.31 696.23 59.33 696.27 59.36 696.31 59.38 696.36 59.38 696.39 59.38 696.41 59.37 696.44 59.36 696.48 59.35 696.57 59.31 696.66 59.29 696.72 59.27 696.75 59.27 696.79 59.26 696.83 59.26 696.86 59.26 696.89 59.26 696.92 59.27 696.93 59.3 696.92 59.32 696.92 59.35 696.91 59.39 696.92 59.41 696.92 59.43 696.92 59.45 696.93 59.47 696.94 59.49 696.96 59.5 696.97 59.52 696.98 59.53 697 59.54 697.01 59.57 697.01 59.58 697.03 59.63 697.04 59.65 697.05 59.66 696.85 60.08 696.8 60.17 696.78 60.21 696.75 60.26 696.73 60.29 696.69 60.36 696.64 60.43 696.55 60.53 696.48 60.61 696.4 60.7 696.37 60.77 696.35 60.84 696.33 60.91 696.32 60.97 696.3 61.06 696.3 61.27 696.27 61.58 696.26 61.69 696.25 61.77 696.25 61.89 696.25 62.04 696.24 62.1 695.86 62.02 695.85 61.9 695.58 61.88 695.31 61.93 695.32 61.97 695.34 62.03 695.35 62.1 695.37 62.17 695.39 62.26 695.41 62.34 695.42 62.39 695.43 62.41 695.43 62.43 695.42 62.46 695.4 62.5 695.4 62.52 695.22 62.71 Z"/>
</g></svg>