<svg xmlns="http://www.w3.org/2000/svg" version="1.2" baseProfile="tiny" stroke-linecap="round" stroke-linejoin="round" viewBox="321.62 190.62 19.02 15.33"><g xmlns="http://www.w3.org/2000/svg" id="Gabiria">
<path d="M 323.48 193.4 324.35 193.19 324.95 193.15 327.65 192.75 327.97 191.9 328.74 190.65 328.89 192.6 329.61 192.43 329.54 191.82 329.9 191.83 329.9 191.85 329.96 191.86 330.01 191.87 330.04 191.89 330.08 191.9 330.16 191.9 330.23 191.9 330.3 191.93 330.33 191.95 330.66 191.98 330.68 192.02 330.7 192.04 330.71 192.07 330.72 192.09 330.72 192.1 330.72 192.11 330.72 192.12 330.72 192.12 330.72 192.13 330.72 192.14 330.73 192.15 330.73 192.16 330.73 192.16 330.73 192.17 330.73 192.18 330.73 192.19 330.73 192.2 330.74 192.21 330.75 192.22 330.76 192.23 330.78 192.24 330.79 192.25 330.81 192.26 330.82 192.26 330.85 192.28 330.88 192.29 330.9 192.3 330.93 192.31 330.95 192.32 330.96 192.32 330.98 192.34 331 192.35 331.01 192.35 331.02 192.35 331.03 192.36 331.04 192.36 331.04 192.37 331.04 192.38 331.04 192.39 331.05 192.4 331.05 192.41 331.06 192.41 331.07 192.4 331.08 192.39 331.1 192.38 331.14 192.37 331.2 192.34 331.26 192.31 331.35 192.27 331.42 192.24 331.49 192.22 331.55 192.2 331.59 192.18 331.6 192.18 331.61 192.17 331.64 192.16 331.66 192.15 331.67 192.15 331.68 192.15 331.7 192.14 331.79 192.11 331.85 192.1 331.92 192.08 331.93 192.08 331.94 192.07 331.96 192.06 331.98 192.05 331.99 192.04 331.99 192.04 332 192.03 332.01 192.03 332.02 192.02 332.04 192 332.06 191.99 332.07 191.97 332.08 191.96 332.09 191.95 332.1 191.95 332.12 191.94 332.13 191.94 332.14 191.93 332.15 191.93 332.16 191.93 332.17 191.92 332.17 191.91 332.18 191.91 332.18 191.91 332.19 191.91 332.21 191.91 332.22 191.91 332.23 191.91 332.24 191.91 332.24 191.92 332.25 191.93 332.26 191.93 332.26 191.93 332.27 191.94 332.28 191.95 332.29 191.95 332.3 191.95 332.3 191.95 332.31 191.95 332.32 191.95 332.34 191.95 332.36 191.95 332.4 191.93 332.42 191.93 332.43 191.92 332.44 191.92 332.45 191.92 332.47 191.92 332.49 191.93 332.5 191.93 332.53 191.92 332.55 191.92 332.57 191.93 332.58 191.93 332.59 191.92 332.59 191.91 332.6 191.9 332.6 191.88 332.61 191.86 332.62 191.85 332.64 191.83 332.65 191.82 332.67 191.81 332.69 191.8 332.7 191.79 332.72 191.79 332.73 191.78 332.75 191.77 332.76 191.76 332.78 191.74 332.79 191.73 332.81 191.71 332.85 191.66 332.88 191.61 332.91 191.58 332.94 191.57 332.94 191.57 332.95 191.57 332.96 191.56 332.98 191.55 333.01 191.52 333.09 191.59 333.11 191.61 333.14 191.63 333.17 191.64 333.19 191.65 333.21 191.65 333.24 191.67 333.29 191.68 333.31 191.69 333.33 191.7 333.35 191.7 333.36 191.71 333.37 191.72 333.38 191.74 333.38 191.75 333.4 191.78 333.4 191.8 333.41 191.84 333.41 191.87 333.42 191.9 333.43 191.92 333.44 191.94 333.45 191.96 333.46 191.99 333.46 192.01 333.46 192.03 333.46 192.05 333.46 192.06 333.47 192.1 333.47 192.11 333.48 192.11 333.49 192.12 333.51 192.14 333.52 192.14 333.55 192.16 333.57 192.17 333.6 192.19 333.63 192.21 333.64 192.23 333.68 192.27 333.76 192.33 333.8 192.38 333.82 192.4 333.85 192.45 333.88 192.48 333.91 192.51 333.93 192.52 333.97 192.53 333.99 192.54 334.02 192.56 334.04 192.57 334.06 192.59 334.06 192.61 334.06 192.63 334.05 192.68 334.05 192.71 334.06 192.74 334.08 192.75 334.1 192.76 334.13 192.75 334.2 192.73 334.24 192.72 334.28 192.72 334.32 192.73 334.41 192.77 334.44 192.78 334.48 192.78 334.54 192.78 334.62 192.77 334.72 192.76 334.85 192.76 334.92 192.75 334.99 192.75 335.06 192.76 335.08 192.76 335.12 192.77 335.15 192.79 335.17 192.81 335.2 192.84 335.2 192.86 335.23 192.91 335.26 192.96 335.31 192.98 335.37 193.02 335.43 193.04 335.46 193.06 335.48 193.06 335.52 193.06 335.56 193.05 335.62 193.05 335.67 193.05 335.72 193.06 335.74 193.07 335.77 193.1 335.77 193.12 335.79 193.19 335.81 193.26 335.84 193.35 335.86 193.43 335.86 193.45 335.88 193.49 335.89 193.52 335.91 193.54 335.91 193.55 335.95 193.57 335.97 193.57 336.02 193.58 336.05 193.6 336.07 193.61 336.08 193.63 336.08 193.65 336.08 193.7 336.08 193.78 336.09 193.83 336.1 193.85 336.11 193.88 336.13 193.9 336.16 193.92 336.24 193.95 336.26 193.96 336.27 193.99 336.3 194.07 336.3 194.13 336.31 194.2 336.3 194.22 336.28 194.25 336.25 194.29 336.21 194.34 336.19 194.37 336.19 194.39 336.19 194.41 336.19 194.43 336.2 194.45 336.2 194.46 336.21 194.47 336.22 194.48 336.23 194.49 336.26 194.49 336.3 194.5 336.32 194.5 336.37 194.53 336.39 194.54 336.4 194.56 336.41 194.57 336.55 194.69 336.73 194.85 336.75 194.87 336.79 194.94 336.82 194.97 337.02 195.16 337.04 195.18 337.16 195.28 337.18 195.29 337.21 195.32 337.24 195.34 337.26 195.36 337.28 195.36 337.3 195.37 337.32 195.37 337.35 195.36 337.38 195.35 337.41 195.33 337.43 195.32 337.45 195.31 337.51 195.29 337.55 195.28 337.58 195.27 337.6 195.28 337.62 195.28 337.64 195.29 337.66 195.31 337.66 195.32 337.67 195.33 337.67 195.36 337.66 195.38 337.65 195.41 337.64 195.44 337.64 195.46 337.67 195.47 337.69 195.48 337.73 195.47 337.77 195.45 337.81 195.45 337.85 195.45 337.89 195.45 337.91 195.46 337.95 195.48 338.01 195.48 338.04 195.5 338.07 195.53 338.08 195.56 338.11 195.6 338.12 195.62 338.15 195.63 338.21 195.65 338.29 195.65 338.38 195.68 338.41 195.7 338.45 195.73 338.49 195.77 338.52 195.83 338.57 195.9 338.6 195.93 338.65 195.98 338.71 196.05 338.73 196.07 338.78 196.11 338.87 196.18 338.9 196.21 338.96 196.24 338.99 196.27 339.05 196.32 339.09 196.34 339.2 196.43 339.26 196.47 339.32 196.51 339.37 196.56 339.39 196.6 339.42 196.64 339.45 196.71 339.47 196.77 339.49 196.81 339.51 196.83 339.54 196.86 339.59 196.89 339.63 196.91 339.66 196.93 339.69 196.93 339.73 196.95 339.79 196.98 339.84 197 339.87 197.01 339.91 197.04 339.93 197.07 339.94 197.08 339.96 197.11 339.96 197.13 339.98 197.17 339.99 197.22 340 197.24 340.03 197.3 340.05 197.35 340.05 197.37 340.05 197.37 340.05 197.4 340.04 197.43 340.03 197.49 340.01 197.52 339.99 197.56 339.96 197.64 339.95 197.67 339.95 197.71 339.95 197.73 339.96 197.74 339.97 197.78 340 197.82 340.01 197.82 340.03 197.83 340.04 197.83 340.06 197.82 340.09 197.79 340.12 197.77 340.15 197.75 340.24 197.73 340.27 197.72 340.31 197.71 340.32 197.71 340.33 197.72 340.34 197.72 340.35 197.73 340.36 197.74 340.38 197.74 340.39 197.75 340.46 197.82 340.49 197.84 340.51 197.86 340.53 197.88 340.54 197.89 340.59 197.99 340.6 198.03 340.6 198.04 340.61 198.07 340.62 198.1 340.62 198.13 340.62 198.17 340.62 198.19 340.61 198.22 340.6 198.26 340.59 198.29 340.58 198.33 340.57 198.33 340.56 198.33 340.54 198.33 340.53 198.33 340.51 198.33 340.49 198.33 340.47 198.33 340.45 198.33 340.44 198.33 340.41 198.33 340.4 198.33 340.38 198.34 340.37 198.34 340.35 198.34 340.34 198.34 340.32 198.34 340.3 198.34 340.29 198.35 340.28 198.35 340.27 198.35 340.25 198.35 340.24 198.35 340.23 198.35 340.22 198.36 340.2 198.36 340.17 198.35 340.11 198.37 340.04 198.4 339.98 198.42 339.94 198.44 339.89 198.48 339.86 198.49 339.8 198.51 339.75 198.53 339.66 198.55 339.67 198.89 339.45 199.32 339.05 200.38 337.96 202.33 337.82 202.72 337.75 203.45 337.78 203.47 337.81 203.49 337.84 203.53 337.87 203.57 337.89 203.61 337.9 203.62 337.86 203.66 337.85 203.67 337.83 203.69 337.81 203.7 337.76 203.72 337.71 203.74 337.69 203.76 337.67 203.78 337.58 204.02 336.66 203.93 336.1 203.81 334.95 203.55 333.5 203.31 333.48 203.31 333.37 203.37 333.3 203.41 333.16 203.5 333.07 203.58 332.99 203.65 332.91 203.75 332.85 203.81 332.84 203.85 332.82 203.89 332.8 203.94 332.78 203.99 332.76 204.03 332.73 204.06 332.69 204.07 332.66 204.07 332.65 204.1 332.62 204.14 332.62 204.17 332.59 204.21 332.57 204.23 332.52 204.26 332.46 204.27 332.43 204.28 332.39 204.3 332.34 204.33 332.31 204.36 332.29 204.38 332.27 204.41 332.26 204.44 332.25 204.46 332.23 204.51 332.2 204.54 332.16 204.56 332.11 204.58 332.07 204.61 332.03 204.65 332 204.69 331.98 204.72 331.95 204.73 331.91 204.73 331.83 204.73 331.79 204.73 331.73 204.72 331.67 204.73 331.59 204.75 331.56 204.77 331.54 204.79 331.52 204.83 331.51 204.85 331.51 204.9 331.52 204.93 331.51 204.97 331.48 205 331.47 205.03 331.46 205.06 331.44 205.11 331.41 205.16 331.39 205.19 331.36 205.22 331.35 205.24 331.3 205.29 331.27 205.31 331.22 205.38 331.2 205.41 330.08 204.86 329.13 205.29 328.06 205.4 327.7 205.51 326.73 205.9 326.4 205.95 325.5 205 324.29 203.48 324.11 202.91 323.97 202.52 323.96 202.52 323.95 202.52 323.93 202.52 323.91 202.51 323.84 202.48 323.79 202.44 323.74 202.39 323.73 202.34 323.72 202.27 323.74 202.21 323.47 199.27 322.83 197.76 322.76 197.72 322.72 197.68 322.69 197.64 322.53 197.56 322.49 197.53 322.45 197.44 322.42 197.38 322.37 197.3 322.3 197.23 322.24 197.18 322.19 197.14 322.14 197.12 322.09 197.09 322.05 197.05 322.01 197.02 322 197 321.97 196.96 321.94 196.93 321.93 196.91 321.9 196.87 321.88 196.83 321.87 196.8 321.87 196.75 321.87 196.71 321.85 196.69 321.82 196.64 321.81 196.59 321.79 196.54 321.77 196.5 321.75 196.45 321.74 196.39 321.72 196.27 321.69 196.18 321.68 196.13 321.68 196.09 321.68 196.02 321.68 195.94 321.68 195.86 321.67 195.78 321.63 195.68 321.63 195.62 321.64 195.56 321.65 195.46 321.65 195.39 321.66 195.3 321.69 195.23 321.69 195.18 321.71 195.1 321.71 195.03 321.73 194.97 321.76 194.9 321.81 194.85 321.86 194.78 321.89 194.73 321.99 194.68 322.13 194.59 322.34 194.36 323.03 193.83 323.28 193.71 323.48 193.4 Z"/>
</g></svg>