<svg xmlns="http://www.w3.org/2000/svg" version="1.2" baseProfile="tiny" stroke-linecap="round" stroke-linejoin="round" viewBox="495.97 295.52 28.15 39.23"><g xmlns="http://www.w3.org/2000/svg" id="Galar">
<path d="M 513.47 297.89 513.51 297.91 513.54 297.93 513.56 297.95 513.62 298 513.63 298 513.68 298.05 513.82 298.15 513.82 298.15 513.98 298.19 514.27 298.27 514.43 298.34 514.59 298.41 514.73 298.46 514.79 298.48 514.94 298.54 515.09 298.56 515.1 298.56 515.19 298.56 515.54 298.55 515.69 298.56 515.7 298.56 515.98 298.57 516.06 298.57 516.12 298.37 516.15 298.24 516.18 298.12 516.2 297.87 516.19 297.77 516.2 297.74 516.24 297.42 516.26 297.37 516.29 297.35 516.3 297.34 516.34 297.31 516.35 297.3 516.4 297.25 516.48 297.17 516.49 297.15 516.63 297.05 516.68 297.01 516.89 296.9 516.9 296.9 516.93 296.88 516.97 296.86 517.02 296.81 517.09 296.75 517.14 296.69 517.31 296.5 517.35 296.45 517.48 296.02 517.5 295.95 517.54 295.94 517.58 295.92 517.59 295.92 517.92 295.79 517.94 295.79 518.11 295.65 518.13 295.63 518.18 295.59 518.21 295.57 518.24 295.56 518.26 295.55 518.29 295.55 518.31 295.55 518.32 295.54 518.35 295.54 518.55 295.54 518.61 295.54 518.91 295.54 519.13 295.57 519.14 295.57 519.18 295.59 519.2 295.61 519.25 295.64 519.34 295.7 519.35 295.74 519.36 295.75 519.36 295.75 519.37 295.76 519.38 295.77 519.39 295.77 519.4 295.77 519.41 295.77 519.42 295.77 519.43 295.77 519.44 295.76 519.49 295.8 519.62 295.88 519.66 295.91 519.67 295.93 519.68 295.97 519.7 295.96 519.79 295.99 519.83 296.01 519.85 296.03 519.88 296.05 519.91 296.08 519.93 296.12 519.95 296.14 519.97 296.16 519.98 296.18 520.05 296.28 520.09 296.34 520.16 296.44 520.22 296.52 520.22 296.53 520.4 296.73 520.44 296.77 520.61 296.96 520.63 296.98 520.71 297.07 520.72 297.09 520.79 297.26 520.79 297.27 520.81 297.31 520.91 297.45 520.92 297.47 521.06 297.65 521.09 297.7 521.11 297.74 521.17 297.82 521.17 297.82 521.24 297.9 521.53 298.16 521.65 298.37 521.68 298.41 521.8 298.63 521.84 298.7 521.89 298.8 522 298.82 522.12 298.83 522.18 298.83 522.22 298.82 522.53 298.81 522.6 299.04 522.63 299.16 522.71 299.42 522.7 299.47 522.69 299.51 522.69 299.52 522.68 299.58 522.71 299.61 522.72 299.62 522.78 299.66 522.83 299.83 522.84 299.86 522.89 300.01 522.94 300.16 522.99 300.29 523 300.31 523.05 300.43 523.12 300.58 523.12 300.59 523.15 300.66 523.17 300.69 523.17 300.7 523.23 300.85 523.3 301 523.31 301.02 523.37 301.17 523.42 301.29 523.45 301.36 523.51 301.51 523.52 301.54 523.55 301.61 523.6 301.68 523.63 301.71 523.66 301.75 523.75 301.84 523.8 301.9 523.81 301.91 523.86 301.96 524.03 302.2 524.09 302.27 524.03 302.27 523.96 302.26 523.89 302.26 523.79 302.28 523.65 302.33 523.63 302.33 523.42 302.41 523.29 302.45 523.3 302.52 523.18 302.59 522.91 302.76 522.87 302.77 522.82 302.8 522.75 302.84 522.65 302.87 522.64 302.87 522.48 302.92 522.42 302.94 522.19 302.99 522.14 303 522.07 303.02 522.08 303.17 522.05 303.18 521.95 303.19 521.93 303.19 521.9 303.19 521.81 303.2 521.8 303.18 521.79 303.17 521.77 303.16 521.76 303.16 521.75 303.15 521.74 303.15 521.72 303.16 521.71 303.16 521.7 303.17 521.69 303.17 521.67 303.19 521.66 303.21 521.53 303.22 521.5 303.22 521.51 303.16 521.48 303.16 521.4 303.19 521.36 303.16 521.26 303.09 521.11 303.1 521.08 303.12 521.07 303.13 521.06 303.14 520.99 303.14 520.99 303.16 520.99 303.18 520.99 303.2 520.99 303.21 520.99 303.25 521.01 303.25 521.01 303.29 521.01 303.32 520.95 303.32 520.9 303.32 520.85 303.32 520.82 303.32 520.79 303.32 520.79 303.4 520.79 303.56 520.79 303.59 520.79 303.66 520.79 303.76 520.78 303.77 520.78 303.78 520.76 303.78 520.75 303.78 520.74 303.78 520.71 303.77 520.71 303.77 520.69 303.8 520.59 303.99 520.58 304.02 520.54 304.1 520.49 304.22 520.48 304.24 520.42 304.26 520.42 304.28 520.41 304.29 520.36 304.41 520.31 304.5 520.3 304.52 520.32 304.53 520.32 304.57 520.31 304.67 520.29 304.73 520.28 304.76 520.26 304.8 520.24 304.81 520.2 304.82 520.16 304.82 520.05 304.84 519.94 304.86 519.91 304.87 519.8 304.92 519.79 304.95 519.76 305.02 519.75 305.04 519.74 305.06 519.72 305.1 519.71 305.18 519.72 305.26 519.73 305.34 519.73 305.4 519.73 305.43 519.74 305.45 519.75 305.52 519.75 305.53 519.76 305.57 519.75 305.61 519.74 305.66 519.7 305.77 519.67 305.83 519.64 305.87 519.61 305.89 519.6 305.9 519.52 306.06 519.48 306.19 519.47 306.22 519.43 306.36 519.3 306.87 519.3 306.88 519.17 307.01 519.08 307.11 518.99 307.2 518.98 307.21 518.92 307.27 518.89 307.31 518.6 307.63 518.56 307.69 518.49 307.76 518.52 307.8 518.53 307.81 518.55 307.86 518.57 307.89 518.63 307.95 518.73 308.04 518.84 308.22 518.86 308.25 519.02 308.51 519.27 308.91 519.31 308.97 519.37 309.07 519.31 309.55 519.27 309.89 519.26 309.91 519.26 309.91 519.27 309.92 519.27 309.94 519.26 310.01 519.22 310.2 519.21 310.24 519.16 310.39 519.16 310.41 519.15 310.42 519.15 310.43 519.14 310.45 519.13 310.47 519.12 310.48 519.1 310.5 519.07 310.53 518.91 310.68 518.91 310.69 518.9 310.7 518.89 310.71 518.88 310.74 518.87 310.75 518.86 310.77 518.86 310.79 518.85 310.8 518.81 310.94 518.76 311.05 518.76 311.05 518.75 311.07 518.69 311.19 518.69 311.2 518.62 311.32 518.59 311.38 518.58 311.41 518.71 311.62 518.75 311.66 518.79 311.68 518.83 311.69 518.89 311.7 518.91 311.7 518.97 311.71 518.99 311.71 519.04 311.77 519.05 311.79 519.1 311.97 519.11 312 519.12 312.02 519.13 312.04 519.18 312.1 519.29 312.16 519.33 312.19 519.36 312.2 519.38 312.22 519.4 312.25 519.43 312.3 519.44 312.33 519.43 312.38 519.41 312.43 519.37 312.54 519.36 312.57 519.36 312.59 519.36 312.62 519.37 312.65 519.4 312.68 519.43 312.71 519.45 312.72 519.46 312.76 519.47 312.8 519.48 312.9 519.51 313.09 519.52 313.14 519.52 313.16 519.62 313.75 519.77 313.96 519.81 314.02 519.87 314.12 519.94 314.24 520.06 314.42 520.14 314.54 520.2 314.64 520.27 314.75 520.32 314.84 520.36 314.91 520.45 315.05 520.49 315.12 520.5 315.14 520.63 315.19 520.87 315.58 520.97 315.73 520.99 315.74 521.04 315.82 521.28 315.96 521.25 316.03 521.14 316.15 521.12 316.19 521.09 316.22 521.03 316.24 518.4 316.76 518.26 316.8 518.25 316.81 518.09 316.85 518.01 316.87 517.82 316.93 517.8 316.93 517.78 316.94 517.61 317.09 517.57 317.14 516.99 317.68 516.45 318.19 516.21 318.42 516.11 318.51 516.09 318.53 516.06 318.55 514.5 319.72 514.48 319.74 514.46 319.77 514.45 319.79 514.3 320.05 514.21 320.2 513.67 320.56 513.67 320.57 513.68 320.6 513.78 321.08 513.78 321.11 513.79 321.13 514.55 322.18 514.7 322.39 514.72 322.4 515.01 322.46 515.51 322.55 515.53 322.55 515.54 322.55 515.54 322.58 515.54 323.17 515.54 323.18 515.54 323.22 515.54 323.24 515.58 323.23 515.68 323.22 515.75 323.2 516.13 323.13 516.17 323.15 517.2 323.62 517.24 323.64 516.85 324.38 516.85 324.39 516.84 324.44 516.8 324.62 516.67 325.33 516.66 325.34 516.65 325.42 516.62 325.59 516.63 325.66 516.66 325.98 516.66 325.99 516.68 325.99 516.85 326.01 516.92 326.02 516.93 326.02 517.07 326.03 517.09 326.05 517.4 326.32 517.43 326.35 517.72 326.59 517.87 326.72 517.88 326.72 517.89 326.72 517.9 326.71 517.93 326.7 518.28 326.52 518.29 326.53 518.3 326.53 518.33 326.54 518.34 326.55 518.35 326.55 518.37 326.57 518.35 326.59 518.4 326.66 518.49 326.8 518.51 326.83 518.69 326.93 518.8 327 518.83 327.06 518.85 327.13 518.86 327.15 518.86 327.15 518.87 327.17 518.89 327.22 518.9 327.26 518.91 327.35 518.92 327.47 518.93 327.58 518.93 327.64 518.95 327.73 518.98 327.77 519 327.79 519 327.8 519.01 327.81 519.06 327.86 519.08 327.87 519.11 327.9 519.14 327.91 519.16 327.92 519.28 327.97 519.3 327.99 519.32 328.01 519.33 328.03 519.33 328.05 519.33 328.12 519.34 328.14 519.35 328.2 519.38 328.34 519.39 328.38 519.4 328.41 519.44 328.48 519.52 328.63 519.54 328.69 519.54 328.71 519.54 328.82 519.54 328.85 519.65 329.27 519.67 329.37 519.66 330 519.8 330.2 519.83 330.27 519.57 330.52 519.52 330.56 519.51 330.57 519.45 330.6 519.26 330.67 519.23 330.71 519.15 330.8 519.14 330.81 519.13 330.82 518.96 331.05 518.86 331.34 518.85 331.36 518.85 331.38 518.86 331.43 518.87 331.46 518.86 331.48 518.84 331.52 518.77 331.64 518.55 332.2 518.55 332.21 518.37 332.26 518.3 332.28 518.28 332.31 518.26 332.33 518.23 332.44 518.2 332.47 518.14 332.52 518.08 332.56 518.05 332.58 518 332.59 517.94 332.6 517.9 332.6 517.63 332.53 517.61 332.53 517.59 332.56 517.57 332.59 517.56 332.6 517.49 332.71 517.49 332.72 517.45 332.8 517.44 332.8 517.42 332.83 517.32 332.92 517.31 332.93 517.3 332.94 517.3 332.95 517.27 332.97 517.19 333.08 517.17 333.12 517.16 333.15 517.12 333.23 517.08 333.28 517.04 333.33 517 333.37 516.85 333.52 516.79 333.58 516.77 333.59 515.87 334.34 516 334.73 515.98 334.73 515.95 334.72 515.87 334.67 515.8 334.63 515.75 334.6 515.71 334.57 515.66 334.54 515.62 334.5 515.59 334.46 515.55 334.39 515.52 334.35 515.48 334.35 515.41 334.35 515.35 334.33 515.25 334.3 515.22 334.3 515.16 334.29 515.09 334.28 515.07 334.28 515.02 334.27 514.94 334.25 514.86 334.21 514.72 334.15 514.6 334.08 514.52 334.04 514.48 334.01 514.35 333.93 514.34 333.92 514.24 333.86 514.11 333.79 514.04 333.76 513.96 333.72 513.91 333.7 513.86 333.68 513.81 333.68 513.75 333.68 513.69 333.67 513.62 333.66 513.54 333.65 513.49 333.64 513.48 333.64 513.47 333.62 513.43 333.58 513.4 333.54 513.38 333.51 513.33 333.43 513.29 333.35 513.26 333.27 513.23 333.2 513.23 333.19 513.21 333.15 513.16 333.01 513.1 332.92 513.05 332.83 513 332.75 512.97 332.68 512.94 332.64 512.93 332.63 512.89 332.59 512.85 332.56 512.81 332.51 512.78 332.47 512.73 332.41 512.69 332.39 512.66 332.38 512.59 332.35 512.44 332.28 512.31 332.23 512.2 332.17 512.16 332.15 512.11 332.12 512.03 332.08 511.93 332.02 511.91 332 511.9 331.99 511.88 331.99 511.87 331.98 511.85 331.97 511.83 331.95 511.75 331.9 511.65 331.83 511.58 331.78 511.52 331.74 511.49 331.72 511.46 331.78 511.39 331.85 511.32 331.93 511.22 332.04 511.21 332.07 511.16 332.19 511.13 332.28 511.11 332.31 511.09 332.37 511.04 332.44 511.01 332.48 510.98 332.49 510.9 332.52 510.89 332.53 510.89 332.55 510.88 332.61 510.85 332.67 510.8 332.75 510.77 332.8 510.76 332.81 510.75 332.82 510.7 332.82 510.59 332.81 510.5 332.82 510.45 332.83 510.41 332.83 510.36 332.84 510.35 332.84 510.33 332.84 510.27 332.8 510.16 332.75 510.07 332.7 509.98 332.66 509.91 332.62 509.88 332.6 509.83 332.53 509.76 332.43 509.72 332.36 509.7 332.34 509.68 332.31 509.64 332.25 509.6 332.19 509.54 332.11 509.5 332.04 509.44 331.95 509.38 331.83 509.34 331.76 509.33 331.76 509.31 331.75 509.3 331.75 509.3 331.74 509.24 331.71 509.18 331.68 509.15 331.66 509 331.56 508.86 331.49 508.73 331.41 508.63 331.34 508.51 331.25 508.49 331.23 508.47 331.22 508.44 331.17 508.41 331.15 508.4 331.14 508.35 331.11 508.31 331.09 508.3 331.09 508.19 330.97 508 330.83 507.52 330.6 507.23 330.57 506.95 330.54 506.9 330.42 506.83 330.29 506.79 330.21 506.76 330.16 506.69 330.01 506.61 329.8 506.54 329.63 506.45 329.41 506.4 329.29 506.29 329.09 506.26 329.09 506.05 329.1 506.02 329.1 506 329.11 505.98 329.12 505.56 329.3 505.52 329.32 505.45 329.36 505.36 329.42 505.31 329.45 505.29 329.47 505.24 329.5 505.22 329.51 505.19 329.53 505.08 329.56 505.05 329.57 504.84 329.64 504.75 329.74 504.64 329.85 504.59 329.87 504.53 329.89 504.48 329.91 504.44 329.93 504.42 329.94 504.32 329.93 504.31 329.93 503.78 329.85 502.92 329.85 502.74 329.61 503.44 328.66 502.94 328.45 502.92 328.44 502.23 328.2 502 328.12 501.98 328.11 501.76 328.04 501.75 328.03 501.02 327.78 501 327.77 500.85 327.72 500.83 327.71 500.79 327.7 500.42 327.58 500.4 327.57 499.3 327.21 499.14 327.16 499.13 327.16 498.9 327.09 498.87 327.08 498.86 327.08 498.52 326.98 498.43 326.86 498.42 326.84 498.17 326.46 497.38 326 496.75 325.16 496.75 325.14 496.74 325.1 496.6 324.29 495.97 323.5 496 323.47 496.63 323.52 496.78 323.55 497.38 323.65 499.25 324.01 499.36 324.02 499.39 324.02 500.2 324.09 500.23 324.09 500.44 324.11 500.52 324.11 500.55 324.12 500.67 324.12 500.8 324.14 500.94 324.15 501.18 324.17 501.57 324.2 501.78 323.72 501.12 322.38 500.71 321.65 500.69 321.62 500.57 321.41 500.56 321.39 500.53 321.35 500.46 321.23 500.41 321.08 500.26 320.7 500.16 320.48 500.14 320.43 500.12 320.37 500.1 320.3 500.05 320.11 500.02 319.97 499.93 319.65 499.84 319.41 499.81 319.33 499.81 319.32 499.71 319.08 499.7 319.04 499.61 318.8 499.57 318.72 499.47 318.45 499.43 318.35 499.43 318.34 499.38 318.22 499.35 318.13 499.34 318.13 499.23 317.82 499.3 317.8 499.55 317.74 499.7 317.7 499.8 317.67 499.85 317.65 499.9 317.63 499.9 317.59 499.89 317.43 499.89 317.39 499.88 316.81 499.88 316.76 499.88 316.65 499.88 316.64 499.89 316.61 499.9 316.56 499.93 316.47 499.95 316.39 499.97 316.34 499.98 316.3 500 316.23 500.01 316.18 500.04 316.1 500.04 316.08 500.06 316.03 500.07 316 500.09 315.91 500.12 315.84 500.13 315.8 500.15 315.74 500.15 315.73 500.16 315.67 500.18 315.57 500.19 315.51 500.21 315.43 500.24 315.21 500.24 315.2 500.25 315.14 500.26 315.1 500.26 315.05 500.26 315.03 500.27 314.93 500.27 314.91 500.27 314.87 500.27 314.81 500.28 314.79 500.29 314.77 500.3 314.7 500.33 314.57 500.36 314.43 500.37 314.39 500.39 314.31 500.4 314.27 500.55 313.83 500.67 313.57 500.68 313.54 500.75 313.39 500.83 313.23 500.84 313.21 500.9 313.12 501.24 312.71 501.31 312.63 501.34 312.59 501.35 312.57 501.36 312.56 501.36 312.53 501.35 312.42 501.3 311.6 501.31 311.59 501.55 311.13 501.58 311.06 501.66 310.95 501.75 310.79 501.74 310.32 501.74 310.31 501.74 310.26 501.74 310.25 501.74 310.24 501.79 309.92 501.49 309.69 501.48 309.65 501.36 309.3 501.25 309.21 501.23 309.2 501.22 309.19 501.21 309.17 501.21 309.15 501.21 309.13 501.25 308.92 501.26 308.9 501.25 308.86 501.25 308.81 501.25 308.7 501.25 308.55 501.25 308.35 501.25 308.34 501.26 308.24 501.27 308.06 501.29 307.89 501.29 307.84 501.31 307.76 501.32 307.69 501.5 307.35 501.42 307.3 501.45 307.04 501.52 306.49 501.51 306.46 501.34 306.14 501.29 305.96 501.26 305.88 501.19 305.69 500.97 305.31 500.96 305.29 500.88 305.2 500.74 305.04 500.71 305 500.33 304.83 499.97 304.47 499.98 304.45 500.17 304.29 500.39 304.1 500.57 303.93 500.72 303.79 500.75 303.73 500.78 303.68 500.93 303.68 500.96 303.68 501 303.68 501.06 303.69 501.18 303.7 501.25 303.71 501.3 303.72 501.38 303.7 501.43 303.69 501.48 303.68 501.64 303.65 501.82 303.6 501.9 303.57 502.06 303.48 502.17 303.43 502.21 303.41 502.51 303.75 502.86 304.13 502.88 304.1 503.08 303.81 503.29 303.89 503.47 303.97 503.51 303.99 503.66 304.04 503.83 304.11 504.08 304.24 504.41 304.4 504.43 304.41 504.46 304.41 505.01 304.37 505.02 304.37 505.26 304.3 505.29 304.29 505.3 304.29 505.31 304.29 505.43 304.25 505.45 304.25 505.56 304.21 506.1 304.05 506.16 304.04 506.17 304.03 506.36 304.05 506.42 304.06 506.55 304.14 507.02 304.16 507.04 304.16 507.11 304.16 507.62 304.18 507.62 304.19 507.65 304.19 507.66 304.19 507.68 304.22 507.69 304.23 507.71 304.28 507.75 304.56 507.75 304.57 507.84 304.68 507.93 304.75 507.98 304.78 507.99 304.79 508.04 304.91 508.05 305.08 508.06 305.28 508.15 305.58 508.32 305.62 508.74 305.72 509.22 305.87 509.23 305.88 509.24 305.89 509.25 305.9 509.35 305.98 509.39 306.01 509.43 306.03 509.49 306.1 509.6 306.29 509.68 306 509.74 305.82 509.79 305.65 510.06 304.88 510.21 303.73 510.5 303.3 510.81 303.13 511.01 303.01 511.03 303.01 511.07 302.98 511.23 302.9 512.03 302.46 512.1 302.5 512.74 302.66 512.96 302.74 512.98 302.75 513 302.76 513.01 302.75 513.01 302.74 513.37 302.19 513.75 301.46 513.79 301.42 513.81 301.4 513.98 301.2 514 301.18 514.02 301.16 514.01 301.14 514 301.09 513.99 301.02 513.98 300.89 513.96 300.79 513.94 300.69 513.91 300.61 513.89 300.56 513.85 300.5 513.84 300.49 513.82 300.49 513.66 300.47 513.54 300.45 513.43 300.42 513.35 300.39 513.3 300.36 513.25 300.29 513.21 300.22 513.18 300.16 513.14 300.12 513.08 300.06 513.04 299.98 512.97 299.86 512.91 299.75 512.84 299.63 512.81 299.51 512.81 299.46 512.86 299.36 512.91 299.25 512.92 299.2 512.91 299.14 512.89 298.98 512.9 298.88 512.95 298.78 512.96 298.76 512.96 298.75 512.97 298.73 512.98 298.71 513.02 298.63 513.04 298.59 513.04 298.56 513.04 298.53 513.01 298.48 512.99 298.41 512.97 298.36 512.93 298.32 512.9 298.3 512.89 298.27 512.89 298.23 512.91 298.19 512.95 298.13 512.98 298.07 513 298.02 513.06 297.97 513.12 297.93 513.17 297.88 513.19 297.87 513.36 297.95 513.38 297.95 513.4 297.94 513.47 297.89 Z"/>
</g></svg>