<svg xmlns="http://www.w3.org/2000/svg" version="1.2" baseProfile="tiny" stroke-linecap="round" stroke-linejoin="round" viewBox="162.18 116.15 30.57 37.6"><g xmlns="http://www.w3.org/2000/svg" id="Galdakao">
<path d="M 163.48 116.17 163.68 116.22 163.94 116.3 164.18 116.34 164.38 116.39 164.58 116.44 165.06 116.52 165.33 116.62 165.81 116.76 166.03 116.93 166.28 117 166.63 117.22 166.82 117.32 167.24 117.65 168.25 118.12 168.6 118.13 168.9 118.26 169.56 118.62 170.1 118.76 170.43 118.85 170.91 118.98 171.11 119.04 171.42 119.01 171.44 119.15 171.59 119.17 172.04 119.42 172.37 119.39 172.47 119.42 172.62 119.49 172.75 119.54 172.87 119.59 172.95 119.65 173.14 119.76 173.7 119.97 173.79 120.02 174.17 120.12 174.33 120.17 174.43 120.2 174.56 120.24 174.74 120.3 174.85 120.34 175.26 120.57 175.26 120.68 175.44 120.79 175.64 120.91 175.86 121.03 176.14 121.17 176.3 121.29 176.47 121.4 176.59 121.47 176.67 121.51 176.7 121.53 176.89 121.59 177.35 121.82 177.42 121.88 177.76 122.08 177.8 121.96 177.96 121.19 178.15 120.91 178.45 121.07 178.73 121.19 178.93 121.29 179.07 121.43 179.11 121.47 179.26 121.7 179.29 121.93 179.71 122.05 180.23 122.14 180.41 122.05 180.57 121.92 180.76 121.78 180.9 121.72 181.14 121.59 181.24 121.41 181.29 121.35 181.67 121.53 181.95 121.68 182.03 121.7 182.09 121.71 182.15 121.71 182.2 121.71 182.21 121.71 182.25 121.71 182.28 121.72 182.3 121.72 182.35 121.73 182.46 121.75 182.55 121.77 183.11 121.88 183.49 122 183.89 122.12 184.8 122.7 185.17 122.88 185.54 123.02 186.37 123.01 187.12 122.98 187.6 123.11 187.93 123.18 188.3 123.32 188.94 123.55 189.47 123.76 190.01 124.17 189.96 124.3 190.11 124.45 190.17 124.91 190.84 124.94 191.06 124.59 191.09 124.2 191.21 124.19 191.37 124.19 191.45 124.51 191.6 124.88 191.7 125.76 191.49 125.97 191.63 126.25 192.16 126.64 192.09 127.01 192.24 127.45 192.03 128.12 192.37 128.76 192.67 129.41 192.74 129.44 192.67 129.71 192.46 129.91 192.26 130.21 191.96 130.23 191.74 130.05 191.78 129.99 191.79 129.88 191.78 129.85 191.72 129.85 191.68 129.84 191.48 129.88 191.47 129.87 191.46 129.87 191.45 129.87 191.44 129.86 191.43 129.86 191.42 129.86 191.41 129.86 191.4 129.87 191.39 129.87 191.38 129.87 191.37 129.88 191.36 129.89 191.35 129.89 191.35 129.89 191.34 129.9 191.33 129.9 191.32 129.9 191.32 129.9 191.31 129.9 191.3 129.9 191.29 129.9 191.28 129.9 191.28 129.9 191.27 129.89 191.26 129.89 191.25 129.89 191.24 129.89 191.23 129.89 191.22 129.89 191.21 129.89 191.2 129.88 191.2 129.88 191.19 129.88 191.18 129.88 191.17 129.88 191.16 129.88 191.15 129.87 191.14 129.87 191.13 129.87 191.12 129.87 191.11 129.88 191.09 129.88 191.08 129.88 191.07 129.89 191.05 129.89 191.04 129.9 191.03 129.9 191.02 129.9 191.01 129.91 191 129.91 191 129.91 190.99 129.91 190.98 129.91 190.97 129.91 190.96 129.91 190.95 129.91 190.94 129.91 190.93 129.9 190.92 129.9 190.92 129.9 190.9 129.89 190.9 129.88 190.89 129.88 190.88 129.87 190.88 129.86 190.87 129.85 190.87 129.85 190.86 129.84 190.86 129.83 190.85 129.82 190.85 129.82 190.85 129.81 190.84 129.74 190.84 129.73 190.84 129.72 190.84 129.71 190.83 129.69 190.83 129.69 190.82 129.68 190.81 129.67 190.8 129.66 190.79 129.66 190.78 129.65 190.77 129.65 190.76 129.65 190.75 129.65 190.73 129.65 190.72 129.65 190.71 129.65 190.7 129.65 190.69 129.65 190.68 129.65 190.67 129.65 190.66 129.65 190.65 129.65 190.64 129.65 190.63 129.65 190.62 129.65 190.61 129.66 190.6 129.66 190.59 129.67 190.58 129.67 190.58 129.68 190.57 129.68 190.57 129.69 190.56 129.7 190.55 129.7 190.54 129.71 190.54 129.72 190.53 129.72 190.52 129.73 190.51 129.73 190.51 129.74 190.5 129.74 190.49 129.74 190.48 129.75 190.48 129.75 190.47 129.75 190.46 129.76 190.45 129.76 190.44 129.76 190.42 129.76 190.41 129.76 190.4 129.76 190.39 129.75 190.37 129.72 190.37 129.68 190.32 129.67 190.31 129.66 190.3 129.65 190.29 129.64 190.29 129.64 190.28 129.63 190.27 129.63 190.26 129.62 190.26 129.62 190.25 129.62 190.24 129.62 190.23 129.62 190.22 129.62 190.22 129.62 190.21 129.62 190.2 129.63 190.19 129.63 190.18 129.63 190.17 129.63 190.16 129.64 190.15 129.64 190.14 129.64 190.12 129.64 190.11 129.65 190.1 129.65 190.09 129.65 190.08 129.66 190.07 129.66 190.06 129.66 190.05 129.66 190.04 129.67 190.03 129.67 190.02 129.67 190.01 129.68 190 129.68 189.99 129.68 189.98 129.68 189.97 129.69 189.96 129.69 189.96 129.69 189.95 129.69 189.94 129.69 189.93 129.69 189.92 129.69 189.91 129.69 189.89 129.69 189.89 129.68 189.88 129.68 189.87 129.68 189.87 129.67 189.86 129.67 189.79 129.62 189.74 129.63 189.71 129.63 189.7 129.63 189.69 129.63 189.68 129.62 189.67 129.62 189.66 129.62 189.65 129.61 189.64 129.61 189.63 129.61 189.62 129.61 189.62 129.6 189.61 129.6 189.6 129.6 189.59 129.6 189.58 129.6 189.57 129.6 189.56 129.6 189.55 129.6 189.54 129.6 189.53 129.6 189.52 129.6 189.51 129.6 189.5 129.6 189.5 129.6 189.49 129.6 189.47 129.6 189.46 129.6 189.45 129.59 189.44 129.59 189.31 129.42 189.19 129.61 188.83 130.21 188.03 131.56 188 131.54 187.62 132.03 187.53 132.17 187.43 132.32 186.87 132.07 186.4 131.9 186.2 131.82 185.83 131.29 185.39 131.69 185.35 131.75 185.33 131.76 185.3 131.79 185.27 131.82 185.24 131.85 185.2 131.88 185.17 131.91 185.14 131.94 185.07 131.99 185.02 132.1 184.99 132.14 184.96 132.18 184.93 132.23 184.9 132.28 184.86 132.34 184.83 132.39 184.8 132.44 184.77 132.5 184.76 132.53 184.74 132.57 184.72 132.61 184.7 132.65 184.7 132.66 184.67 132.72 184.65 132.78 184.64 132.87 184.53 133.15 184.34 133.64 184.14 133.91 183.99 134.22 183.73 134.47 183.66 134.55 183.65 134.56 183.65 134.56 183.64 134.57 183.63 134.57 183.62 134.57 183.61 134.58 183.6 134.58 183.59 134.58 183.58 134.58 183.58 134.57 183.57 134.57 183.56 134.57 183.55 134.57 183.54 134.56 183.54 134.55 183.54 134.55 183.53 134.53 183.52 134.48 183.5 134.47 183.45 134.49 183.44 134.5 183.43 134.5 183.39 134.51 183.33 134.53 183.3 134.57 183.26 134.61 183.25 134.61 183.21 134.64 183.2 134.64 183.14 134.64 183.09 134.67 183.07 134.68 183.04 134.68 182.99 134.66 182.94 134.64 182.88 134.61 182.85 134.61 182.84 134.64 182.83 134.66 182.79 134.69 182.77 134.7 182.74 134.7 182.71 134.69 182.69 134.68 182.68 134.68 182.66 134.7 182.61 134.7 182.49 134.72 182.4 134.7 182.36 134.71 182.32 134.71 182.27 134.7 182.23 134.69 182.2 134.71 182.16 134.73 182.12 134.75 182.04 134.8 182.1 134.97 182.2 135.25 182.31 135.56 182.27 135.6 182.25 135.6 182.21 135.61 182.16 135.63 182.1 135.64 182.04 135.66 181.99 135.66 181.95 135.66 181.93 135.66 181.92 135.65 181.92 135.62 181.92 135.6 181.94 135.58 181.94 135.54 181.94 135.51 181.94 135.48 181.94 135.46 181.93 135.45 181.9 135.45 181.86 135.44 181.83 135.43 181.79 135.42 181.75 135.41 181.69 135.39 181.68 135.38 181.66 135.38 181.63 135.36 181.57 135.34 181.52 135.32 181.49 135.32 181.46 135.33 181.45 135.34 181.42 135.35 181.37 135.38 181.33 135.4 181.3 135.42 181.28 135.44 181.26 135.47 181.24 135.5 181.24 135.51 181.22 135.54 181.21 135.55 181.18 135.57 181.16 135.57 181.14 135.57 181.11 135.57 181.07 135.56 181.02 135.54 180.99 135.53 180.96 135.55 180.94 135.58 180.93 135.62 180.92 135.64 180.9 135.67 180.91 135.77 180.9 135.78 180.86 135.81 180.82 135.84 180.77 135.86 180.72 135.88 180.67 135.91 180.64 135.94 180.61 135.96 180.57 135.97 180.53 135.97 180.48 135.99 180.43 136 180.39 136.03 180.33 136.06 180.28 136.1 180.24 136.13 180.2 136.14 180.16 136.15 180.11 136.15 180.05 136.16 179.99 136.17 179.95 136.17 179.9 136.19 179.87 136.2 179.83 136.2 179.79 136.2 179.74 136.2 179.7 136.21 179.64 136.24 179.57 136.26 179.53 136.29 179.49 136.29 179.47 136.29 179.46 136.28 179.45 136.24 179.45 136.21 179.45 136.2 179.43 136.18 179.41 136.16 179.38 136.14 179.36 136.13 179.35 136.13 179.27 136.13 179.26 136.14 179.23 136.15 179.21 136.17 179.19 136.19 179.14 136.21 179.07 136.24 178.99 136.28 178.92 136.31 178.82 136.34 178.74 136.36 178.65 136.39 178.58 136.42 178.53 136.44 178.47 136.47 178.41 136.51 178.35 136.54 178.31 136.57 178.27 136.61 178.24 136.64 178.22 136.67 178.21 136.7 178.2 136.73 178.2 136.77 178.2 136.83 178.2 136.9 178.2 136.94 178.18 137.01 178.07 137.27 178.05 137.31 178.04 137.34 178.02 137.37 178.01 137.38 178 137.39 177.98 137.41 177.95 137.44 177.92 137.46 177.88 137.48 177.82 137.5 177.77 137.51 177.66 137.54 177.6 137.56 177.55 137.59 177.53 137.61 177.5 137.63 177.47 137.66 177.43 137.7 177.38 137.76 177.29 137.86 177.21 137.96 177.18 138.02 177.16 138.05 177.13 138.12 177.1 138.19 177.07 138.28 177.03 138.35 177.02 138.37 176.99 138.39 176.96 138.43 176.94 138.44 176.9 138.46 176.85 138.48 176.81 138.5 176.78 138.52 176.75 138.58 176.73 138.62 176.7 138.62 176.66 138.63 176.61 138.64 176.62 138.67 176.62 138.69 176.64 138.72 176.66 138.77 176.69 138.84 176.73 138.89 176.73 138.91 176.75 138.96 176.77 139.02 176.8 139.1 176.82 139.15 176.82 139.19 176.79 139.24 176.76 139.28 176.72 139.33 176.67 139.38 176.63 139.42 176.59 139.43 176.55 139.43 176.51 139.47 176.5 139.52 176.49 139.58 176.48 139.64 176.49 139.7 176.5 139.81 176.54 139.87 176.55 139.91 176.56 139.96 176.55 139.99 176.53 140.04 176.51 140.08 176.47 140.12 176.43 140.17 176.39 140.21 176.35 140.25 176.33 140.3 176.32 140.34 176.3 140.36 176.27 140.37 176.22 140.36 176.19 140.35 176.18 140.36 176.16 140.41 176.13 140.47 176.11 140.52 176.09 140.58 176.08 140.64 176.07 140.7 176.07 140.76 176.07 140.83 176.08 140.89 176.08 140.95 176.08 141 176.07 141.05 176.04 141.11 176.01 141.22 175.99 141.26 176 141.33 176 141.38 176.02 141.42 176.04 141.46 176.04 141.48 176.01 141.52 176.01 141.53 176.01 141.54 176.01 141.56 176.02 141.57 176.04 141.58 176.07 141.59 176.11 141.58 176.13 141.63 176.13 141.66 176.09 141.7 176.06 141.74 176.01 141.8 175.95 141.84 175.9 141.89 175.86 141.92 175.85 141.95 175.84 141.98 175.85 142.02 175.87 142.06 175.89 142.1 175.92 142.13 175.96 142.16 176.01 142.18 176.06 142.21 176.11 142.24 176.16 142.28 176.18 142.32 176.17 142.36 176.16 142.38 176.13 142.41 176.09 142.44 176.08 142.46 176.08 142.49 176.09 142.54 176.11 142.59 176.14 142.64 176.16 142.69 176.16 142.75 176.15 142.79 176.13 142.83 176.09 142.88 176.07 142.92 176.06 142.96 176.04 143 176.02 143.05 176 143.07 175.98 143.1 175.94 143.16 175.91 143.23 175.86 143.32 175.83 143.38 175.8 143.44 175.77 143.52 175.75 143.58 175.28 143.86 175.19 144.15 174.98 144.47 174.94 144.49 174.88 144.51 174.84 144.53 174.81 144.55 174.78 144.58 174.75 144.63 174.73 144.68 174.7 144.72 174.66 144.75 174.64 144.78 174.62 144.83 174.6 144.88 174.58 144.91 174.53 144.94 174.48 144.97 174.44 145.01 174.41 145.04 174.39 145.08 174.37 145.11 174.36 145.16 174.36 145.22 174.35 145.28 174.33 145.31 174.31 145.33 174.27 145.37 174.22 145.42 174.19 145.44 174.16 145.44 174.13 145.46 174.1 145.48 174.07 145.52 174.04 145.56 174.01 145.62 173.98 145.68 173.95 145.72 173.92 145.73 173.89 145.75 173.85 145.77 173.8 145.78 173.74 145.79 173.68 145.81 173.63 145.82 173.58 145.84 173.52 145.84 173.46 145.84 173.4 145.85 173.36 145.87 173.34 145.89 173.31 145.93 173.29 145.98 173.27 146.04 173.22 146.13 173.19 146.21 173.15 146.28 173.13 146.32 173.11 146.34 173.03 146.48 173 146.52 172.97 146.56 172.93 146.61 172.9 146.65 172.88 146.69 172.86 146.74 172.83 146.78 172.81 146.83 172.8 146.88 172.79 146.93 172.79 146.98 172.72 147.07 172.69 147.12 172.66 147.18 172.64 147.22 172.6 147.26 172.59 147.31 172.56 147.35 172.53 147.38 172.48 147.41 172.44 147.43 172.41 147.49 172.37 147.57 172.34 147.72 172.33 147.77 172.29 147.83 172.26 147.89 172.24 147.94 172.22 148 172.18 148.08 172.17 148.14 172.16 148.19 172.13 148.22 172.12 148.26 172.11 148.27 172.14 148.31 172.18 148.35 172.2 148.38 172.21 148.41 172.22 148.46 172.22 148.51 172.23 148.56 172.23 148.62 172.24 148.7 172.26 148.79 172.26 148.82 172.26 148.88 172.27 148.89 172.27 148.97 172.27 149.02 172.26 149.08 172.25 149.16 172.24 149.24 172.24 149.3 172.24 149.36 172.25 149.42 172.27 149.47 172.28 149.53 172.31 149.59 172.34 149.65 172.38 149.71 172.41 149.76 172.43 149.81 172.46 149.86 172.5 149.9 172.55 149.93 172.6 149.96 172.64 150 172.68 150.04 172.7 150.09 172.71 150.15 172.72 150.2 172.72 150.25 172.72 150.31 172.7 150.36 172.69 150.41 172.65 150.46 172.61 150.52 172.55 150.6 172.49 150.68 172.46 150.74 172.45 150.77 172.45 150.81 172.46 150.85 172.47 150.88 172.49 150.92 172.52 150.96 172.55 150.99 172.59 151.01 172.65 151.02 172.71 151.03 172.77 151.04 172.8 151.05 172.83 151.08 172.86 151.11 172.88 151.14 172.89 151.19 172.89 151.23 172.88 151.27 172.87 151.32 172.86 151.34 172.85 151.38 172.87 151.4 172.89 151.44 172.93 151.48 172.98 151.54 173.03 151.58 173.09 151.61 173.15 151.64 173.17 151.66 173.2 151.7 173.25 151.78 173.28 151.81 173.35 151.85 173.37 151.95 173.41 152.01 173.44 152.04 173.41 152.19 173.4 152.26 173.4 152.31 173.4 152.36 173.42 152.42 173.45 152.63 173.47 152.69 173.49 152.7 173.56 152.7 173.62 152.7 173.68 152.72 173.73 152.75 173.78 152.78 173.83 152.81 173.88 152.84 173.92 152.89 173.96 152.93 174.01 152.96 174.05 153 174.09 153.03 174.13 153.1 174.17 153.14 174.2 153.18 174.23 153.23 174.25 153.28 174.28 153.33 174.31 153.38 174.54 153.73 173.84 153.66 173.65 153.7 173.32 153.49 173.03 153.36 172.64 153.2 172.37 153.08 172.22 152.94 171.91 152.62 171.71 152.39 171.37 152.21 171 152.02 170.77 151.91 170.48 151.78 170.23 151.65 170.05 151.49 170.24 151.18 170.45 150.82 170.81 150.34 171.12 149.9 171.33 149.58 172.12 148.43 171.32 146.63 170.83 146.53 170.56 146.59 170.19 146.19 169.81 146.05 169.39 145.87 169.68 145.62 169.78 145.53 169.69 145.16 169.63 144.91 169.55 144.59 169.64 144.49 169.8 144.31 170.01 144.07 170.33 143.87 170.42 143.78 170.7 143.48 171.22 142.33 171.35 141.97 171.38 141.92 171.44 141.76 171.59 141.33 171.72 141.07 171.76 141 171.8 140.95 171.86 140.83 172 140.73 172.29 140.54 172.65 140.29 172.86 140.15 173.22 139.9 173.15 139.06 172.93 138.45 172.6 138.45 172.61 138.36 172.62 138.3 172.49 137.92 172.45 137.7 172.31 137.47 171.92 136.87 171.71 136.64 171.53 136.43 171.26 136.13 171.02 135.76 170.83 135.61 170.61 135.54 170.64 135.16 170.66 134.75 170.18 133.44 170.01 133 169.93 132.78 169.83 132.51 169.64 131.84 169.11 130.9 168.71 130.2 168.57 129.97 168.6 129.9 168.63 129.87 168.3 129.69 168.01 129.63 167.79 129.58 167.57 129.54 167.41 129.52 167.38 129.51 167.34 129.5 167.32 129.49 167.17 129.37 167.04 129.26 166.96 129.18 166.91 129.11 166.7 128.81 166.44 128.43 166.18 128.05 166.08 127.74 166.04 127.56 165.99 127.21 165.96 127.11 165.9 127.01 165.74 126.8 165.71 126.78 165.65 126.73 165.56 126.66 165.4 126.56 165.05 126.42 164.83 126.32 164.82 126.32 164.7 126.19 164.66 126.15 164.61 126.09 164.59 125.99 164.59 125.94 164.62 125.41 164.62 125.39 164.6 125.28 164.55 125.17 164.48 125.08 164.35 124.96 164.1 124.83 163.51 124.39 162.77 124.07 162.59 124.03 162.3 124 162.33 123.81 162.25 123.55 162.22 123.2 162.19 122.93 162.32 122.57 162.38 122.53 162.4 122.5 162.42 122.48 162.45 122.38 162.59 122.19 162.69 122.13 162.74 122.1 163.05 122.03 163.21 121.91 163.28 121.86 163.35 121.82 163.41 121.79 163.45 121.77 163.51 121.75 163.67 121.69 163.73 121.71 163.77 121.72 163.81 121.73 163.85 121.74 163.88 121.74 163.93 121.75 163.97 121.74 164 121.73 164.05 121.72 164.1 121.72 164.15 121.71 164.19 121.7 164.23 121.7 164.27 121.71 164.31 121.71 164.35 121.71 164.38 121.71 164.41 121.7 164.43 121.7 164.46 121.7 164.49 121.72 164.52 121.75 164.54 121.77 164.56 121.79 164.59 121.81 164.61 121.82 164.62 121.82 164.63 121.82 164.64 121.82 164.65 121.82 164.66 121.81 164.69 121.8 164.71 121.79 164.74 121.77 164.77 121.76 164.8 121.76 164.83 121.76 164.87 121.75 164.91 121.73 164.93 121.73 164.96 121.72 164.98 121.72 165.01 121.73 165.03 121.73 165.06 121.74 165.09 121.74 165.12 121.74 165.16 121.73 165.19 121.72 165.22 121.73 165.24 121.73 165.26 121.74 165.28 121.76 165.3 121.76 165.33 121.76 165.34 121.75 165.36 121.75 165.37 121.73 165.41 121.72 165.45 121.7 165.5 121.68 165.86 121.55 166.55 121.05 166.47 120.9 166.43 120.8 166.41 120.7 166.44 120.59 166.52 120.5 166.64 120.41 166.77 120.34 166.9 120.25 167.03 120.18 167.08 120.14 167.17 120.05 167.26 119.96 167.32 119.88 167.38 119.76 167.41 119.66 167.42 119.55 167.42 119.45 167.4 119.36 167.34 119.23 167.28 119.14 167.18 118.99 167.04 118.87 166.93 118.73 166.89 118.6 166.86 118.45 166.87 118.3 165.58 117.45 165.33 117.35 165.05 117.24 164.61 117.07 164.42 116.93 164.1 116.69 163.97 116.59 163.86 116.5 163.7 116.38 163.48 116.17 Z"/>
</g></svg>