<svg xmlns="http://www.w3.org/2000/svg" version="1.2" baseProfile="tiny" stroke-linecap="round" stroke-linejoin="round" viewBox="574.38 388.95 23.8 57.48"><g xmlns="http://www.w3.org/2000/svg" id="Galipentzu">
<path d="M 590.57 388.96 590.58 388.95 590.62 388.96 590.65 388.96 590.67 388.98 590.68 388.99 590.71 389.01 590.75 389.02 590.78 389.04 590.9 389.11 591 389.17 591.06 389.19 591.08 389.2 591.14 389.22 591.17 389.22 591.18 389.22 591.29 389.24 591.43 389.27 591.51 389.29 591.53 389.3 591.54 389.32 591.55 389.35 591.56 389.38 591.6 389.39 591.68 389.4 591.73 389.41 591.76 389.43 591.77 389.44 591.87 389.57 591.9 389.6 591.93 389.62 591.98 389.65 592.02 389.68 592.07 389.71 592.11 389.73 592.19 389.74 592.23 389.75 592.29 389.78 592.32 389.79 592.36 389.8 592.38 389.81 592.41 389.82 592.47 389.83 592.48 389.85 592.54 389.9 592.55 389.92 592.62 389.96 592.73 390.01 592.95 390.14 593.15 390.25 593.38 390.38 593.65 390.53 593.86 390.64 593.91 390.66 593.93 390.67 593.94 390.67 593.96 390.68 594.09 390.76 594.15 390.83 594.2 390.87 594.26 390.9 594.29 390.92 594.37 390.96 594.46 391.02 594.62 391.12 594.63 391.13 594.66 391.15 594.68 391.16 594.74 391.2 594.75 391.2 594.84 391.26 594.85 391.27 594.86 391.27 594.92 391.31 594.97 391.35 594.99 391.36 595 391.37 595.08 391.41 595.12 391.43 595.17 391.47 595.22 391.51 595.3 391.57 595.37 391.61 595.44 391.65 595.5 391.69 595.55 391.72 595.57 391.73 595.61 391.77 595.69 391.82 595.77 391.86 595.83 391.89 595.85 391.9 595.9 391.91 596.06 391.99 596.2 392.05 596.24 392.01 596.25 392 596.32 391.95 596.35 391.92 596.43 391.81 596.48 391.74 596.5 391.71 596.54 391.64 596.59 391.6 596.71 391.48 596.74 391.46 596.81 391.38 596.84 391.35 596.88 391.29 596.89 391.28 596.94 391.22 596.96 391.2 596.99 391.15 597 391.15 597.01 391.13 597.02 391.1 597.06 391.22 597.07 391.34 597.07 391.46 597.06 391.57 597.06 391.61 597.05 391.63 597.03 391.65 597.01 391.67 596.98 391.67 596.96 391.67 596.93 391.65 596.91 391.62 596.88 391.56 596.86 391.53 596.84 391.51 596.82 391.5 596.78 391.5 596.76 391.51 596.73 391.54 596.7 391.58 596.69 391.63 596.68 391.71 596.69 391.83 596.72 391.99 596.73 392.05 596.76 392.09 596.79 392.12 596.82 392.13 596.86 392.13 596.89 392.13 596.95 392.11 596.99 392.1 597.02 392.1 597.04 392.1 597.06 392.12 597.08 392.15 597.09 392.17 597.09 392.2 597.08 392.22 597.06 392.24 597.03 392.26 596.99 392.27 596.94 392.27 596.84 392.26 596.8 392.26 596.78 392.28 596.75 392.29 596.73 392.32 596.7 392.38 596.67 392.44 596.64 392.48 596.6 392.51 596.54 392.53 596.47 392.56 596.45 392.58 596.44 392.6 596.44 392.63 596.45 392.66 596.48 392.7 596.54 392.75 596.63 392.84 596.69 392.92 596.73 392.96 596.75 393.03 596.78 393.1 596.8 393.15 596.82 393.18 596.84 393.19 596.87 393.19 596.9 393.17 596.93 393.14 596.99 393.07 597.02 393.05 597.04 393.04 597.06 393.04 597.09 393.06 597.12 393.09 597.16 393.15 597.18 393.21 597.19 393.27 597.19 393.34 597.18 393.44 597.14 393.55 597.1 393.66 597.09 393.7 597.09 393.72 597.09 393.74 597.11 393.76 597.13 393.78 597.18 393.82 597.23 393.86 597.27 393.92 597.31 393.99 597.47 394.23 597.68 394.48 597.75 394.57 597.79 394.65 597.81 394.72 597.83 394.8 597.85 394.87 597.89 394.93 598 395.06 598.16 395.19 598.13 395.23 598.09 395.29 598.03 395.38 597.99 395.43 597.98 395.44 597.97 395.45 597.94 395.45 597.8 395.46 597.58 395.46 597.49 395.46 597.34 395.47 597.21 395.47 597.12 395.48 597.11 395.52 597.09 395.55 597.08 395.58 597.05 395.64 596.99 395.79 596.98 395.83 596.94 395.92 596.53 395.73 596.32 395.66 596.08 395.62 595.91 395.61 595.74 395.62 595.59 395.65 595.44 395.72 595.31 395.81 595.18 395.94 595.01 396.17 594.9 396.36 594.86 396.51 594.85 396.68 594.87 396.97 594.91 397.25 594.92 397.3 594.98 397.55 595.02 397.8 595.03 398.26 594.92 398.36 594.82 398.44 594.66 398.59 594.59 398.66 594.6 398.75 594.63 398.89 594.65 398.99 594.66 399.03 594.68 399.34 594.66 399.54 594.56 399.88 594.45 400.14 594.32 400.39 594.14 400.62 593.95 400.77 593.86 400.82 593.75 400.89 593.5 401.03 593.19 401.15 592.82 401.24 592.83 401.4 592.83 401.41 592.83 401.42 592.84 401.45 592.84 401.47 592.84 401.5 592.84 401.53 592.85 401.56 592.85 401.59 592.87 401.63 592.87 401.66 592.89 401.69 592.9 401.72 592.92 401.74 592.93 401.75 592.94 401.77 592.96 401.78 592.98 401.79 593 401.81 593.02 401.82 593.04 401.83 593.05 401.84 593.05 401.87 593.05 401.9 593.07 402 593.07 402.05 593.06 402.07 593.07 402.1 593.07 402.11 593.08 402.18 593.1 402.31 593.12 402.44 593.14 402.57 593.15 402.6 593.17 402.7 593.17 402.75 593.19 402.76 593.27 402.8 593.31 402.82 593.33 402.91 593.35 403.05 593.36 403.18 593.36 403.28 593.36 403.32 593.36 403.35 593.33 403.43 593.31 403.5 593.29 403.56 593.28 403.6 593.26 403.65 593.25 403.7 593.24 403.75 593.23 403.83 593.22 403.89 593.22 403.95 593.21 404.04 593.21 404.05 593.21 404.09 593.21 404.14 593.21 404.17 593.21 404.2 593.22 404.26 593.24 404.35 593.25 404.39 593.26 404.42 593.26 404.45 593.26 404.5 593.27 404.61 593.27 404.65 593.27 404.67 593.27 404.7 593.28 404.72 593.29 404.76 593.3 404.8 593.31 404.83 593.31 404.87 593.32 404.93 593.32 404.97 593.32 405.01 593.32 405.07 593.31 405.1 593.3 405.15 593.3 405.19 593.29 405.23 593.27 405.27 593.25 405.32 593.24 405.34 593.22 405.37 593.2 405.41 593.17 405.44 593.15 405.47 593.09 405.53 593.07 405.56 593.06 405.58 593.05 405.6 593.04 405.63 593.04 405.64 593.04 405.66 593.04 405.71 593.04 405.82 593.04 405.86 593.04 405.93 593.05 406 593.06 406.14 593.08 406.42 593.08 406.47 593.09 406.53 593.08 406.59 593.08 406.66 593.08 406.72 593.07 406.8 593.07 406.86 593.06 406.91 593.05 406.99 593.04 407.1 593.03 407.14 593.01 407.28 593.01 407.31 593 407.36 593 407.39 593 407.43 593 407.44 593 407.5 593 407.53 593 407.59 593 407.62 593.01 407.69 593.02 407.76 593.03 407.79 593.05 407.85 593.12 408.12 593.2 408.39 593.29 408.66 593.37 408.94 593.42 409.08 593.52 409.35 593.52 409.37 593.53 409.39 593.59 409.54 593.62 409.61 593.64 409.68 593.69 409.84 593.71 409.87 593.77 410 593.78 410.01 593.69 410.17 593.6 410.32 593.59 410.34 593.59 410.37 593.59 410.41 593.62 410.58 593.66 410.86 593.69 411 593.7 411.02 593.8 411.2 593.86 411.3 593.87 411.33 593.87 411.34 593.86 411.45 593.86 411.6 593.85 411.76 593.84 412.01 593.83 412.2 593.84 412.29 593.85 412.37 593.87 412.48 593.89 412.59 593.88 412.7 593.87 412.78 593.84 412.88 593.8 413 593.77 413.06 593.72 413.13 593.62 413.26 593.53 413.44 593.5 413.5 593.5 413.55 593.52 413.65 593.54 413.8 593.56 413.94 593.56 414.02 593.56 414.04 593.56 414.07 593.54 414.15 593.52 414.21 593.52 414.23 593.51 414.26 593.51 414.27 593.48 414.35 593.35 414.66 593.34 414.71 593.33 414.83 593.32 414.85 593.31 414.88 593.27 414.94 593.21 415.03 593.19 415.06 593.18 415.12 593.12 415.28 593.08 415.41 593.07 415.46 593.04 415.58 593.04 415.64 593.03 415.72 592.92 415.96 592.8 416.21 592.77 416.29 592.76 416.32 592.76 416.45 592.75 416.65 592.75 416.67 592.68 416.8 592.6 416.96 592.56 417.03 592.54 417.06 592.47 417.11 592.43 417.15 592.39 417.22 592.31 417.35 592.03 417.69 591.93 417.8 591.93 417.98 591.92 418.05 591.91 418.06 591.87 418.18 591.82 418.32 591.81 418.39 591.78 418.44 591.77 418.51 591.77 418.58 591.77 418.69 591.77 418.73 591.78 418.76 591.82 418.86 591.9 419.05 591.91 419.07 591.91 419.1 591.91 419.14 591.88 419.27 591.87 419.32 591.87 419.4 591.87 419.43 591.88 419.46 591.91 419.57 591.92 419.66 591.93 419.68 591.93 419.71 592 419.99 592.1 420.35 592.12 420.5 592.09 420.56 592.03 420.69 591.99 420.81 591.97 420.88 591.96 420.94 591.96 421.01 591.95 421.12 591.95 421.25 591.94 421.37 591.94 421.39 591.9 421.42 591.86 421.46 591.84 421.49 591.81 421.53 591.8 421.55 591.78 421.61 591.77 421.66 591.77 421.68 591.78 421.74 591.8 421.95 591.8 422 591.8 422.02 591.79 422.06 591.78 422.13 591.76 422.26 591.76 422.28 591.76 422.32 591.76 422.33 591.77 422.46 591.77 422.53 591.77 422.62 591.78 422.77 591.8 422.98 591.79 423.06 591.79 423.06 591.79 423.08 591.79 423.19 591.79 423.23 591.79 423.28 591.76 423.53 591.74 423.79 591.74 423.81 591.73 423.91 591.73 423.95 591.72 424.06 591.72 424.1 591.73 424.15 591.74 424.2 591.77 424.37 591.78 424.43 591.81 424.54 591.81 424.56 591.85 424.75 591.86 424.78 591.89 424.95 591.91 425.07 591.92 425.2 591.92 425.21 591.92 425.26 591.92 425.34 591.91 425.42 591.91 425.43 591.91 425.46 591.89 425.52 591.89 425.56 591.89 425.59 591.89 425.63 591.9 425.68 591.9 425.7 591.91 425.76 591.91 425.9 591.94 426.46 591.94 426.63 591.94 426.8 591.93 426.97 591.94 427.14 591.94 427.17 591.94 427.26 591.95 427.42 591.96 427.58 591.96 427.69 591.96 427.71 591.96 427.74 591.96 427.91 591.97 428.13 591.97 428.16 591.97 428.28 591.97 428.29 591.97 428.31 591.97 428.38 591.96 428.46 591.96 428.48 591.95 428.59 591.94 428.6 591.93 428.69 591.91 428.78 591.91 428.84 591.91 428.9 591.91 428.96 591.9 428.98 591.9 429.01 591.9 429.05 591.89 429.08 591.89 429.19 591.89 429.25 591.88 429.45 591.87 429.61 591.88 429.71 591.88 429.83 591.89 429.92 591.89 429.94 591.89 430.04 591.88 430.15 591.87 430.23 591.84 430.4 591.83 430.5 591.82 430.67 591.82 430.68 591.82 430.87 591.8 430.91 591.76 430.99 591.72 431.06 591.68 431.21 591.64 431.36 591.63 431.42 591.63 431.43 591.61 431.52 591.59 431.71 591.56 431.92 591.54 432.16 591.52 432.38 591.51 432.55 591.51 432.63 591.51 432.63 591.51 432.79 591.52 432.96 591.52 433.06 591.52 433.09 591.52 433.12 591.51 433.16 591.49 433.21 591.45 433.34 591.41 433.48 591.37 433.62 591.36 433.66 591.35 433.68 591.34 433.72 591.32 433.78 591.3 433.84 591.26 433.93 591.23 433.97 591.2 434.02 591.17 434.09 591.12 434.19 591.1 434.25 591.09 434.27 591.02 434.43 590.94 434.59 590.94 434.67 590.87 434.84 590.84 434.94 590.81 435 590.78 435.07 590.69 435.32 590.65 435.42 590.54 435.73 590.48 435.9 590.42 436.1 590.41 436.15 590.39 436.21 590.35 436.31 590.34 436.33 590.33 436.34 590.3 436.4 590.23 436.57 590.2 436.62 590.19 436.64 590.19 436.64 590.17 436.67 590.15 436.71 590.13 436.73 590.11 436.75 590.1 436.77 590.09 436.77 590.02 436.82 589.96 436.85 589.93 436.88 589.89 436.94 589.85 436.98 589.83 437 589.82 437.03 589.8 437.06 589.77 437.13 589.73 437.21 589.68 437.31 589.65 437.4 589.63 437.48 589.61 437.56 589.6 437.64 589.6 437.77 589.6 437.85 589.61 437.97 589.63 438.07 589.65 438.22 589.67 438.38 589.68 438.42 589.69 438.47 589.73 438.69 589.74 438.77 589.75 438.81 589.76 438.88 589.76 438.9 589.8 439.15 589.83 439.4 589.83 439.46 589.84 439.48 589.85 439.59 589.86 439.67 589.86 439.7 589.87 439.77 589.88 439.79 589.88 439.83 589.89 439.9 589.89 439.91 589.9 440 589.92 440.1 589.92 440.15 589.92 440.17 589.93 440.27 589.93 440.3 589.92 440.34 589.92 440.36 589.92 440.39 589.91 440.43 589.9 440.53 589.89 440.63 589.88 440.76 589.88 440.83 589.88 440.87 589.87 441.02 589.86 441.17 589.86 441.31 589.86 441.32 589.86 441.41 589.86 441.46 589.86 441.47 589.86 441.48 589.86 441.62 589.86 441.65 589.86 441.75 589.86 441.82 589.86 441.83 589.87 441.94 589.87 441.98 589.87 442.16 589.86 442.37 589.86 442.46 589.86 442.53 589.86 442.62 589.85 442.73 589.86 442.75 589.85 442.79 589.85 442.8 589.85 442.82 589.85 442.85 589.85 442.99 589.85 443.03 589.85 443.09 589.85 443.1 589.85 443.17 589.85 443.28 589.84 443.37 589.84 443.42 589.84 443.44 589.84 443.66 589.83 443.77 589.83 443.88 589.83 443.89 589.82 443.95 589.81 444.02 589.81 444.09 589.81 444.11 589.82 444.22 589.83 444.32 589.84 444.43 589.84 444.47 589.84 444.51 589.85 444.6 589.85 444.63 589.85 444.74 589.85 444.77 589.85 444.97 589.85 444.99 589.85 445.04 589.85 445.13 589.85 445.18 589.85 445.25 589.85 445.31 589.85 445.33 589.86 445.34 589.87 445.52 589.86 445.62 589.85 445.83 589.84 445.98 589.84 446.03 589.83 446.15 589.81 446.41 589.73 446.4 589.46 446.4 589.41 446.4 589.26 446.4 589.23 446.4 589.1 446.39 589.02 446.39 588.93 446.39 588.84 446.39 588.71 446.39 588.63 446.38 588.33 446.36 588.26 446.35 587.97 446.33 587.93 446.33 587.91 446.32 587.9 446.32 587.68 446.29 587.57 446.28 587.55 446.28 587.46 446.27 587.41 446.27 587.39 446.27 587.06 446.24 587.05 446.24 586.98 446.23 586.96 446.23 586.76 446.21 586.55 446.19 586.52 446.19 586.5 446.19 586.49 446.19 586.48 446.18 586.36 446.15 586.36 446.15 586.33 446.14 586.33 446.14 586.31 446.14 586.17 446.1 586.16 446.1 586.13 446.09 586.04 446.06 586.02 446.06 585.99 446.06 585.89 446.06 585.88 446.06 585.85 446.06 585.79 446.05 585.74 446.04 585.58 446.01 585.4 445.98 585.26 445.95 585.18 445.94 585.14 445.93 584.98 445.92 584.84 445.89 584.82 445.89 584.76 445.88 584.67 445.86 584.64 445.86 584.59 445.85 584.52 445.83 584.5 445.83 584.42 445.82 584.31 445.8 584.15 445.77 584.08 445.75 584.02 445.75 583.97 445.73 583.9 445.72 583.84 445.71 583.8 445.7 583.74 445.68 583.71 445.67 583.67 445.66 583.61 445.65 583.48 445.64 583.39 445.63 583.36 445.63 583.21 445.61 583.23 445.5 583.27 445.29 583.3 445.13 583.34 444.92 583.4 444.69 583.46 444.51 583.52 444.35 583.59 444.22 583.65 444.14 583.72 444.03 583.82 443.85 583.94 443.63 584.09 443.4 584.18 443.22 584.23 443.08 584.34 442.82 584.42 442.68 584.53 442.51 584.64 442.33 584.75 442.16 584.86 441.98 584.99 441.75 585.11 441.56 585.21 441.39 585.32 441.22 585.41 441.06 585.5 440.94 585.6 440.79 585.66 440.71 585.79 440.53 585.89 440.43 585.94 440.36 586.18 440.04 586.32 439.76 586.42 439.49 586.45 439.27 586.44 439 586.32 438.46 586.21 438.07 586.1 437.85 585.84 437.43 585.73 437.24 585.66 437.07 585.62 436.89 585.6 436.71 585.62 436.48 585.68 435.96 585.69 435.92 585.83 434.94 585.84 434.74 585.84 434.51 585.79 434.19 585.78 433.99 585.78 433.65 585.77 433.45 585.76 433.33 585.75 433.3 585.72 433.24 585.58 433.04 585.19 432.59 585.06 432.4 584.97 432.28 584.9 432.15 584.85 432.06 584.8 431.91 584.77 431.81 584.74 431.66 584.72 431.44 584.7 431.11 584.72 430.6 584.75 430.42 584.81 430.21 584.9 429.97 585.06 429.7 585.3 429.37 585.51 429.08 585.71 428.8 585.88 428.61 585.96 428.53 585.89 428.48 585.83 428.44 585.72 428.36 585.67 428.33 585.63 428.31 585.62 428.28 585.62 428.23 585.62 428.17 585.49 427.9 585.49 427.87 585.47 427.86 585.33 427.73 585.17 427.58 585.13 427.56 585.08 427.37 584.89 427.37 584.52 426.84 584.27 426.61 583.87 426.24 583.27 425.67 583.24 425.64 583.2 425.61 582.76 425.52 582.72 425.51 582.67 425.49 582.55 425.41 582.36 425.18 582.03 424.78 581.98 424.76 581.69 424.68 581.47 424.61 581.36 424.65 581.09 424.56 581.09 424.53 581.08 424.51 580.83 424.07 580.8 424.01 580.75 423.89 580.7 423.8 580.67 423.76 580.65 423.72 580.61 423.61 580.55 423.48 580.54 423.46 580.5 423.37 580.45 423.3 580.44 423.26 580.42 423.25 580.39 423.21 580.26 423.08 580.14 422.99 580.07 422.92 579.94 422.74 579.8 422.55 579.68 422.34 579.6 422.22 579.57 422.15 579.53 422.04 579.5 421.96 579.48 421.91 579.46 421.87 579.38 421.75 579.3 421.63 579.25 421.57 579.21 421.44 579.18 421.35 579.17 421.31 579.19 421.01 579.19 420.85 579.18 420.64 579.18 420.4 579.17 420.19 579.17 419.99 579.17 419.85 579.17 419.72 579.17 419.59 579.16 419.48 579.15 419.33 579.15 419.22 579.14 419.2 579.07 419.05 578.98 418.84 578.86 418.49 578.84 418.44 578.81 418.36 578.79 418.32 578.77 418.28 578.74 418.23 578.69 418.16 578.64 418.09 578.61 418.05 578.58 418 578.54 417.94 578.52 417.91 578.48 417.85 578.42 417.77 578.38 417.7 578.34 417.65 578.32 417.62 578.31 417.59 578.29 417.54 578.27 417.44 578.24 417.35 578.23 417.3 578.22 417.25 578.22 417.23 578.26 417.2 578.3 417.17 578.33 417.15 578.37 417.11 578.41 417.08 578.46 417.03 578.49 417.01 578.54 416.96 578.55 416.93 578.56 416.87 578.58 416.71 578.59 416.64 578.59 416.6 578.57 416.53 578.56 416.45 578.54 416.36 578.54 416.32 578.53 416.27 578.51 416.21 578.51 416.17 578.5 416.15 578.48 416.13 578.44 416.06 578.42 416.02 578.37 415.94 578.32 415.86 578.28 415.79 578.23 415.71 578.18 415.63 578.13 415.55 578.09 415.48 578.06 415.43 578.03 415.38 578.01 415.36 577.99 415.29 577.96 415.22 577.95 415.18 577.93 415.14 577.88 415.01 577.81 414.85 577.72 414.62 577.65 414.45 577.62 414.38 577.58 414.27 577.57 414.22 577.56 414.19 577.54 414.14 577.5 414.02 577.47 413.92 577.45 413.87 577.44 413.84 577.43 413.8 577.41 413.76 577.39 413.72 577.37 413.67 577.35 413.62 577.3 413.54 577.27 413.46 577.23 413.38 577.19 413.29 577.15 413.2 577.11 413.11 577.07 413.02 577.04 412.96 577.02 412.93 577.01 412.9 576.96 412.8 576.93 412.71 576.89 412.63 576.87 412.57 576.83 412.5 576.81 412.44 576.8 412.4 576.79 412.36 576.79 412.33 576.79 412.3 576.79 412.27 576.79 412.24 576.8 412.2 576.8 412.19 576.81 412.17 576.82 412.13 576.82 412.09 576.83 412.05 576.84 412 576.84 411.95 576.84 411.91 576.84 411.86 576.83 411.81 576.82 411.76 576.81 411.69 576.8 411.63 576.78 411.54 576.77 411.44 576.76 411.36 576.75 411.27 576.74 411.24 576.74 411.2 576.74 411.16 576.75 411.11 576.76 411.06 576.78 411 576.8 410.93 576.81 410.89 576.82 410.85 576.83 410.82 576.83 410.77 576.83 410.75 576.83 410.71 576.83 410.67 576.83 410.62 576.83 410.58 576.82 410.55 576.82 410.53 576.8 410.49 576.81 410.35 576.81 410.26 576.8 410.1 576.8 410.04 576.79 409.99 576.76 409.9 576.74 409.84 576.71 409.8 576.7 409.75 576.69 409.72 576.69 409.68 576.7 409.64 576.7 409.61 576.71 409.57 576.72 409.56 576.73 409.51 576.75 409.45 576.76 409.44 576.76 409.4 576.76 409.31 576.75 409.18 576.74 409.07 576.74 409.04 576.73 409.01 576.7 408.97 576.68 408.94 576.64 408.88 576.62 408.85 576.61 408.83 576.59 408.8 576.57 408.76 576.56 408.71 576.55 408.67 576.55 408.65 576.54 408.62 576.53 408.58 576.51 408.53 576.5 408.47 576.5 408.43 576.5 408.39 576.48 408.35 576.43 408.22 576.4 408.15 576.35 408.03 576.35 408.01 576.33 407.95 576.32 407.91 576.31 407.9 576.31 407.88 576.3 407.81 576.29 407.67 576.28 407.59 576.27 407.5 576.26 407.41 576.25 407.38 576.24 407.34 576.23 407.28 576.2 407.23 576.19 407.22 576.08 407.01 575.95 406.76 575.92 406.7 575.9 406.66 575.81 406.54 575.72 406.41 575.64 406.3 575.37 405.98 575.31 405.89 575.3 405.88 575.16 405.7 575.14 405.67 575.13 405.65 575.08 405.56 575.05 405.49 575.02 405.41 574.98 405.28 574.96 405.23 574.94 405.14 574.92 405 574.91 404.92 574.9 404.84 574.9 404.79 574.89 404.77 574.89 404.75 574.89 404.73 574.89 404.7 574.89 404.69 574.89 404.54 574.89 404.52 574.89 404.41 574.88 404.29 574.88 404.22 574.87 404.15 574.87 404.11 574.87 404.09 574.89 403.99 574.93 403.83 574.96 403.72 574.98 403.66 574.98 403.64 574.99 403.61 575 403.55 575 403.52 575.02 403.48 575.04 403.4 575.05 403.36 575.05 403.34 575.05 403.2 575.04 403.06 575.03 402.82 575.02 402.67 575.01 402.5 575.01 402.47 575.01 402.45 574.99 402.39 575 402.01 575.03 401.32 575.04 401.03 575.03 400.91 575.01 400.77 574.92 400.26 574.9 400.07 574.9 400.01 574.85 399.81 574.82 399.69 574.78 399.61 574.78 399.6 574.78 399.54 574.77 399.44 574.77 399.41 574.39 397.63 574.46 397.65 574.55 397.67 574.62 397.69 574.71 397.73 574.8 397.75 574.87 397.77 574.94 397.79 574.99 397.8 575.05 397.8 575.08 397.8 575.12 397.82 575.17 397.85 575.22 397.89 575.27 397.92 575.33 397.95 575.39 397.97 575.45 398 575.5 398.03 575.59 398.08 575.65 398.11 575.72 398.15 575.78 398.18 575.85 398.2 575.9 398.22 575.97 398.24 576.01 398.25 576.04 398.26 576.1 398.27 576.17 398.28 576.25 398.3 576.34 398.32 576.41 398.33 576.49 398.34 576.54 398.36 576.6 398.36 576.63 398.36 576.67 398.36 576.72 398.36 576.77 398.38 576.85 398.39 576.92 398.41 576.98 398.42 577.04 398.43 577.07 398.44 577.12 398.47 577.18 398.5 577.26 398.52 577.34 398.53 577.4 398.54 577.47 398.55 577.53 398.56 577.59 398.57 577.64 398.57 577.7 398.57 577.77 398.58 577.81 398.58 577.86 398.58 577.82 398.48 577.81 398.4 577.8 398.34 577.78 398.26 577.77 398.19 577.77 398.13 577.76 398.06 577.76 398.02 577.75 398 577.74 397.95 577.74 397.9 577.73 397.85 577.72 397.81 577.71 397.75 577.7 397.7 577.7 397.65 577.71 397.61 577.7 397.49 577.71 397.39 577.71 397.3 577.71 397.26 577.72 397.21 577.74 397.18 577.77 397.12 577.84 397 577.87 396.91 577.88 396.87 577.89 396.83 577.89 396.81 577.88 396.73 577.87 396.67 577.86 396.6 577.85 396.57 577.85 396.54 577.85 396.44 577.85 396.36 577.86 396.31 577.86 396.23 577.87 396.14 577.88 396.08 577.88 396.05 577.89 396 577.9 395.97 577.91 395.89 577.92 395.85 577.94 395.8 577.95 395.72 577.98 395.62 578.01 395.53 578.02 395.5 578.05 395.38 578.07 395.33 578.08 395.28 578.08 395.23 578.08 395.19 578.08 395.16 578.07 395.13 578.06 395.09 578.05 395.07 578.05 395.06 578.04 395.03 578.03 395 578.04 394.93 578.09 394.74 578.11 394.7 578.13 394.61 578.16 394.5 578.18 394.38 578.19 394.34 578.2 394.31 578.22 394.25 578.23 394.2 578.24 394.18 578.26 394.13 578.27 394.07 578.27 394.05 578.27 394.02 578.25 393.98 578.24 393.95 578.24 393.94 578.22 393.91 578.22 393.88 578.23 393.84 578.24 393.81 578.25 393.79 578.27 393.75 578.32 393.67 578.35 393.61 578.37 393.56 578.37 393.54 578.38 393.52 578.39 393.49 578.41 393.46 578.42 393.43 578.43 393.41 578.44 393.37 578.45 393.35 578.48 393.28 578.5 393.2 578.5 393.16 578.51 393.12 578.52 393.08 578.52 393.06 578.53 393 578.54 392.92 578.55 392.91 578.57 392.88 578.67 392.71 578.69 392.66 578.63 392.66 578.66 392.6 578.71 392.52 578.75 392.44 578.77 392.41 578.81 392.34 578.85 392.27 578.88 392.23 578.9 392.21 578.9 392.21 578.93 392.16 578.96 392.13 578.98 392.1 578.98 392.08 579 392.05 579 392.04 579.02 391.98 579.04 391.94 579.06 391.9 579.08 391.86 579.1 391.83 579.1 391.83 579.11 391.81 579.15 391.75 579.18 391.7 579.4 391.71 579.41 391.7 579.41 391.61 579.4 391.52 579.4 391.46 579.4 391.42 579.39 391.37 579.38 391.32 579.37 391.28 579.37 391.24 579.37 391.22 579.39 391.2 579.42 391.18 579.46 391.15 579.47 391.14 579.52 391.1 579.55 391.08 579.57 391.07 579.6 391.07 579.63 391.02 579.7 390.89 579.73 390.83 579.74 390.81 579.77 390.78 579.8 390.74 579.83 390.69 579.85 390.67 579.86 390.65 579.87 390.63 579.87 390.62 579.88 390.61 579.89 390.58 579.91 390.57 579.96 390.54 580.02 390.5 580.08 390.46 580.13 390.4 580.14 390.38 580.17 390.35 580.19 390.32 580.19 390.28 580.2 390.24 580.22 390.17 580.26 390.06 580.26 390.04 580.28 389.97 580.29 389.94 580.32 389.87 580.33 389.83 580.34 389.79 580.39 389.66 580.42 389.58 580.42 389.56 580.44 389.52 580.45 389.5 580.46 389.47 580.48 389.46 580.5 389.45 580.53 389.42 580.55 389.41 580.56 389.38 580.61 389.38 580.76 389.38 580.93 389.38 581.04 389.38 581.18 389.38 581.22 389.38 581.29 389.38 581.44 389.41 581.47 389.41 581.48 389.42 581.5 389.42 581.52 389.42 581.67 389.41 582.3 389.39 582.35 389.39 582.38 389.39 582.41 389.39 582.47 389.4 582.56 389.41 582.58 389.41 582.62 389.42 582.66 389.42 582.69 389.42 582.74 389.42 582.74 389.42 582.78 389.42 582.86 389.42 582.98 389.43 583.13 389.44 583.22 389.44 583.32 389.46 583.34 389.46 584.1 389.56 584.11 389.56 584.13 389.56 584.3 389.58 584.32 389.59 584.41 389.6 584.8 389.65 584.87 389.66 585.05 389.68 585.29 389.6 585.31 389.6 585.32 389.6 585.34 389.6 585.36 389.6 585.37 389.6 585.39 389.61 585.42 389.63 585.44 389.65 585.46 389.66 585.48 389.67 585.53 389.69 585.6 389.71 585.65 389.73 585.67 389.73 585.69 389.73 585.72 389.74 585.79 389.75 585.84 389.75 585.93 389.75 585.95 389.75 585.96 389.75 585.98 389.75 586.01 389.75 586.05 389.75 586.11 389.75 586.16 389.74 586.2 389.73 586.24 389.73 586.28 389.73 586.32 389.73 586.34 389.74 586.43 389.75 586.72 389.78 586.76 389.79 586.78 389.79 586.81 389.78 586.83 389.78 586.84 389.78 586.85 389.78 586.87 389.77 587.38 389.79 587.4 389.79 587.41 389.79 587.44 389.79 587.47 389.79 587.55 389.79 587.58 389.79 587.93 389.79 588.02 389.8 588.13 389.79 588.23 389.78 588.3 389.77 588.32 389.76 588.34 389.76 588.39 389.76 588.53 389.77 588.55 389.78 588.68 389.79 588.78 389.8 588.8 389.8 588.83 389.8 588.85 389.79 588.86 389.79 588.87 389.79 588.89 389.79 588.91 389.78 588.94 389.77 589.15 389.76 589.41 389.73 589.45 389.72 589.52 389.7 589.53 389.69 589.61 389.66 589.68 389.62 589.79 389.57 589.82 389.56 589.86 389.53 589.92 389.49 589.93 389.48 590.01 389.43 590.13 389.35 590.15 389.34 590.17 389.32 590.31 389.18 590.44 389.06 590.54 388.96 590.55 388.95 590.57 388.96 Z"/>
</g></svg>