<svg xmlns="http://www.w3.org/2000/svg" version="1.2" baseProfile="tiny" stroke-linecap="round" stroke-linejoin="round" viewBox="655.77 279.58 39.68 27.92"><g xmlns="http://www.w3.org/2000/svg" id="Galoze">
<path d="M 657.31 279.94 657.37 279.96 657.44 279.98 657.54 280 657.62 280.02 657.69 280.04 657.74 280.05 657.82 280.06 657.96 280.07 658.05 280.07 658.09 280.07 658.14 280.07 658.17 280.06 658.22 280.05 658.28 280.04 658.33 280.03 658.38 280.02 658.47 280.03 658.64 280.03 658.83 280.03 658.9 280.03 659.18 280.05 659.57 280.06 659.84 280.08 659.94 280.08 660.25 280.1 660.36 280.1 660.45 280.1 660.64 280.1 660.76 280.09 660.8 280.09 660.92 280.08 660.96 280.08 661.03 280.07 661.15 280.06 661.31 280.04 661.42 280.02 661.47 280.01 661.6 279.98 661.69 279.96 661.82 279.94 661.94 279.91 661.97 279.9 662.1 279.87 662.16 279.86 662.26 279.85 662.4 279.84 662.49 279.83 662.6 279.84 662.77 279.85 662.84 279.85 662.96 279.85 663.06 279.86 663.14 279.86 663.29 279.87 663.41 279.88 663.46 279.88 663.56 279.89 663.74 279.92 663.97 279.94 664.11 279.94 664.16 279.94 664.2 279.95 664.26 279.97 664.28 279.99 664.31 280.01 664.33 280.02 664.36 280.03 664.47 280.05 664.61 280.07 664.76 280.1 664.9 280.11 665.1 280.12 665.28 280.15 665.38 280.18 665.49 280.21 665.64 280.26 665.83 280.31 665.93 280.34 666.06 280.38 666.11 280.39 666.13 280.37 666.16 280.35 666.26 280.28 666.34 280.22 666.4 280.18 666.48 280.13 666.54 280.09 666.6 280.06 666.65 280.04 666.72 280.01 666.79 279.98 666.85 279.97 666.95 279.93 667.03 279.91 667.09 279.89 667.21 279.85 667.35 279.81 667.45 279.78 667.53 279.75 667.63 279.73 667.69 279.71 667.76 279.7 667.8 279.69 667.85 279.68 667.87 279.68 667.98 279.66 668.15 279.65 668.29 279.63 668.39 279.63 668.43 279.62 668.58 279.62 668.76 279.61 668.97 279.59 669.12 279.59 669.17 279.59 669.25 279.59 669.35 279.59 669.36 279.59 669.46 279.6 669.59 279.62 669.72 279.62 669.86 279.64 670.04 279.65 670.22 279.68 670.27 279.68 670.42 279.7 670.64 279.73 670.85 279.77 671.06 279.81 671.05 279.88 671.03 280.01 671.03 280.02 671.03 280.06 671.03 280.1 671.03 280.12 671.03 280.15 671.05 280.18 671.07 280.22 671.09 280.27 671.12 280.34 671.15 280.4 671.15 280.4 671.16 280.43 671.2 280.48 671.25 280.53 671.29 280.58 671.33 280.63 671.37 280.67 671.41 280.72 671.42 280.73 671.45 280.75 671.48 280.78 671.52 280.82 671.58 280.88 671.64 280.94 671.69 281 671.72 281.05 671.76 281.11 671.78 281.15 671.81 281.17 671.85 281.21 671.88 281.23 671.96 281.29 672 281.32 672.04 281.35 672.09 281.38 672.13 281.41 672.17 281.43 672.18 281.44 672.23 281.47 672.28 281.5 672.34 281.55 672.39 281.58 672.44 281.62 672.46 281.64 672.49 281.66 672.56 281.72 672.61 281.77 672.67 281.82 672.72 281.86 672.78 281.91 672.83 281.95 672.84 281.96 672.9 282.01 672.95 282.05 672.99 282.09 673 282.1 673.05 282.13 673.12 282.2 673.18 282.25 673.21 282.28 673.23 282.29 673.25 282.31 673.26 282.32 673.26 282.34 673.25 282.41 673.24 282.46 673.23 282.51 673.22 282.54 673.22 282.56 673.21 282.58 673.2 282.63 673.2 282.64 673.19 282.67 673.17 282.73 673.17 282.74 673.16 282.76 673.16 282.77 673.14 282.81 673.12 282.86 673.12 282.87 673.09 282.91 673.05 282.93 673 282.96 672.97 282.97 672.92 282.98 672.88 283 672.82 283.02 672.76 283.04 672.71 283.05 672.65 283.07 672.59 283.08 672.54 283.1 672.49 283.11 672.45 283.12 672.42 283.12 672.36 283.12 672.31 283.12 672.27 283.12 672.22 283.12 672.17 283.13 672.1 283.13 672.04 283.13 671.98 283.14 671.92 283.15 671.86 283.16 671.82 283.16 671.81 283.18 671.81 283.21 671.81 283.23 671.82 283.27 671.86 283.34 671.91 283.42 671.95 283.48 671.97 283.52 671.98 283.54 671.94 283.6 671.88 283.67 671.83 283.72 671.79 283.78 671.75 283.83 671.72 283.89 671.7 283.94 671.65 284.03 671.62 284.09 671.58 284.16 671.51 284.14 671.45 284.11 671.38 284.08 671.31 284.05 671.23 284.01 671.13 283.97 671.08 283.94 671.02 283.92 670.97 283.89 670.92 283.87 670.88 283.84 670.84 283.82 670.79 283.81 670.75 283.79 670.73 283.79 670.69 283.78 670.65 283.77 670.63 283.77 670.57 283.76 670.51 283.74 670.44 283.73 670.38 283.72 670.31 283.71 670.27 283.7 670.17 283.69 670.12 283.69 670.06 283.68 670 283.68 669.94 283.67 669.89 283.67 669.82 283.66 669.76 283.66 669.76 283.72 669.76 283.79 669.76 283.88 669.75 283.95 669.74 283.99 669.73 284.02 669.73 284.04 669.71 284.09 669.71 284.12 669.71 284.18 669.7 284.26 669.68 284.31 669.66 284.34 669.65 284.35 669.64 284.36 669.6 284.39 669.56 284.41 669.51 284.43 669.47 284.45 669.45 284.47 669.43 284.5 669.43 284.52 669.43 284.55 669.43 284.63 669.43 284.69 669.43 284.76 669.44 284.82 669.45 284.88 669.46 284.93 669.47 284.94 669.48 284.98 669.51 285.05 669.54 285.12 669.56 285.18 669.58 285.23 669.6 285.3 669.61 285.35 669.61 285.43 669.59 285.51 669.58 285.56 669.57 285.61 669.57 285.63 669.56 285.67 669.56 285.7 669.58 285.75 669.6 285.81 669.6 285.83 669.62 285.86 669.64 285.9 669.65 285.93 669.64 285.97 669.62 286.04 669.61 286.11 669.6 286.16 669.59 286.22 669.57 286.31 669.57 286.38 669.57 286.43 669.56 286.46 669.54 286.5 669.53 286.53 669.53 286.54 669.55 286.58 669.57 286.63 669.59 286.67 669.6 286.71 669.63 286.75 669.66 286.81 669.71 286.87 669.76 286.94 669.81 287 669.86 287.06 669.89 287.1 669.93 287.15 669.97 287.21 670.01 287.27 670.04 287.31 670.04 287.31 670.07 287.36 670.09 287.4 670.11 287.46 670.13 287.52 670.15 287.58 670.18 287.66 670.21 287.73 670.24 287.8 670.26 287.85 670.27 287.89 670.28 287.92 670.28 287.95 670.29 287.97 670.29 287.98 670.32 288.04 670.34 288.1 670.38 288.17 670.41 288.23 670.43 288.27 670.44 288.3 670.46 288.34 670.48 288.36 670.5 288.39 670.54 288.44 670.56 288.46 670.58 288.49 670.61 288.53 670.64 288.58 670.65 288.62 670.66 288.66 670.67 288.7 670.68 288.74 670.69 288.79 670.7 288.87 670.72 288.93 670.73 288.99 670.74 289.09 670.74 289.09 670.75 289.12 670.75 289.15 670.77 289.19 670.77 289.2 670.79 289.23 670.79 289.24 670.8 289.25 670.8 289.26 670.87 289.34 670.9 289.39 670.95 289.44 671.01 289.49 671.06 289.53 671.09 289.55 671.11 289.55 671.16 289.56 671.24 289.56 671.27 289.56 671.32 289.56 671.37 289.57 671.41 289.58 671.46 289.61 671.49 289.64 671.52 289.67 671.57 289.71 671.61 289.75 671.63 289.78 671.66 289.81 671.66 289.82 671.69 289.84 671.73 289.87 671.76 289.9 671.77 289.91 671.79 289.94 671.83 289.97 671.88 290.01 671.93 290.05 671.97 290.09 671.99 290.1 672.01 290.11 672.02 290.11 672.07 290.13 672.11 290.17 672.15 290.21 672.19 290.26 672.25 290.32 672.27 290.35 672.29 290.38 672.33 290.41 672.36 290.45 672.39 290.5 672.44 290.56 672.47 290.6 672.51 290.64 672.52 290.65 672.53 290.66 672.55 290.68 672.59 290.71 672.6 290.72 672.64 290.75 672.69 290.79 672.74 290.84 672.8 290.89 672.85 290.95 672.88 290.98 672.9 291 672.95 291.05 672.99 291.09 673.04 291.14 673.08 291.18 673.12 291.21 673.16 291.25 673.22 291.3 673.24 291.32 673.31 291.39 673.36 291.44 673.42 291.49 673.49 291.56 673.57 291.62 673.58 291.64 673.63 291.69 673.71 291.76 673.76 291.81 673.78 291.83 673.83 291.87 673.88 291.92 673.91 292.05 673.94 292.16 673.97 292.3 673.99 292.4 674 292.44 674 292.46 674 292.47 674.02 292.56 674.05 292.67 674.09 292.61 674.12 292.57 674.13 292.56 674.15 292.53 674.18 292.5 674.2 292.46 674.27 292.38 674.32 292.31 674.37 292.25 674.41 292.19 674.45 292.15 674.48 292.12 674.54 292.08 674.63 292.01 674.68 291.97 674.72 291.95 674.75 291.93 674.8 291.9 674.81 291.9 674.87 291.86 674.89 291.85 674.96 291.82 675.03 291.78 675.11 291.74 675.19 291.69 675.2 291.69 675.23 291.67 675.3 291.65 675.37 291.63 675.45 291.61 675.53 291.59 675.58 291.58 675.6 291.58 675.69 291.56 675.7 291.56 675.77 291.55 675.81 291.55 675.84 291.55 675.87 291.52 675.89 291.5 675.9 291.49 675.99 291.42 676.03 291.39 676.05 291.36 676.09 291.38 676.14 291.41 676.19 291.44 676.24 291.48 676.28 291.51 676.32 291.54 676.37 291.57 676.43 291.61 676.49 291.65 676.54 291.68 676.57 291.71 676.58 291.72 676.6 291.73 676.61 291.77 676.63 291.82 676.64 291.89 676.64 291.92 676.66 291.96 676.68 292.02 676.7 292.1 676.72 292.17 676.73 292.25 676.75 292.37 676.77 292.48 676.79 292.59 676.81 292.68 676.83 292.74 676.84 292.8 676.9 292.78 676.98 292.74 677.01 292.73 677.03 292.72 677.04 292.72 677.07 292.71 677.09 292.71 677.12 292.7 677.16 292.7 677.2 292.71 677.23 292.71 677.27 292.71 677.3 292.71 677.31 292.71 677.34 292.72 677.38 292.73 677.41 292.75 677.44 292.78 677.47 292.81 677.5 292.83 677.51 292.84 677.52 292.84 677.55 292.86 677.61 292.88 677.64 292.89 677.65 292.89 677.69 292.9 677.75 292.91 677.82 292.92 677.85 292.92 677.88 292.91 677.93 292.91 677.96 292.9 678.01 292.88 678.05 292.87 678.1 292.85 678.11 292.84 678.15 292.82 678.18 292.81 678.21 292.8 678.25 292.79 678.29 292.78 678.34 292.77 678.38 292.77 678.43 292.76 678.48 292.75 678.5 292.75 678.56 292.75 678.62 292.76 678.66 292.76 678.71 292.77 678.76 292.78 678.82 292.8 678.83 292.8 678.89 292.82 678.95 292.83 679 292.84 679.05 292.86 679.11 292.89 679.17 292.92 679.24 292.95 679.27 292.97 679.3 292.98 679.39 293.04 679.47 293.08 679.52 293.11 679.61 293.16 679.67 293.2 679.71 293.23 679.79 293.26 679.81 293.27 679.85 293.28 679.9 293.31 679.96 293.33 680.04 293.35 680.09 293.37 680.13 293.39 680.19 293.42 680.25 293.44 680.31 293.47 680.36 293.49 680.42 293.51 680.52 293.55 680.61 293.59 680.7 293.62 680.75 293.63 680.8 293.64 680.73 293.72 680.64 293.85 680.58 293.92 680.52 294 680.44 294.1 680.38 294.16 680.35 294.21 680.39 294.21 680.52 294.17 680.53 294.17 680.59 294.15 680.69 294.12 680.81 294.09 680.94 294.05 681.04 294.03 681.13 294 681.18 293.99 681.29 293.96 681.41 293.93 681.49 293.9 681.59 293.88 681.7 293.84 681.81 293.8 681.9 293.77 682.02 293.72 682.08 293.7 682.18 293.67 682.24 293.66 682.29 293.65 682.39 293.65 682.46 293.64 682.55 293.63 682.71 293.62 682.83 293.61 682.89 293.59 682.99 293.55 683.07 293.53 683.15 293.5 683.18 293.5 683.22 293.48 683.28 293.46 683.33 293.45 683.38 293.43 683.42 293.42 683.47 293.4 683.54 293.38 683.61 293.36 683.66 293.35 683.73 293.34 683.79 293.33 683.87 293.32 683.95 293.3 683.98 293.29 683.99 293.29 684.04 293.28 684.16 293.26 684.22 293.24 684.26 293.24 684.31 293.21 684.37 293.18 684.42 293.15 684.49 293.11 684.54 293.08 684.59 293.06 684.61 293.05 684.65 293.03 684.7 293 684.75 292.97 684.81 292.95 684.91 292.9 684.97 292.88 685.03 292.86 685.08 292.84 685.18 292.78 685.26 292.75 685.33 292.73 685.44 292.68 685.5 292.65 685.58 292.61 685.64 292.59 685.7 292.56 685.79 292.53 685.93 292.47 686.07 292.41 686.23 292.34 686.37 292.28 686.52 292.22 686.57 292.19 686.71 292.13 686.77 292.07 686.86 291.97 686.96 291.86 687.02 291.79 686.94 291.66 687.02 291.61 687.12 291.53 687.13 291.52 687.2 291.48 687.28 291.41 687.34 291.37 687.4 291.33 687.44 291.3 687.46 291.29 687.51 291.25 687.57 291.21 687.65 291.17 687.72 291.13 687.84 291.06 687.89 291.04 687.95 290.94 687.98 290.91 688.05 290.82 688.11 290.73 688.26 290.68 688.35 290.64 688.43 290.61 688.49 290.72 688.58 290.86 688.6 290.89 688.67 290.98 688.74 291.07 688.81 291.16 688.85 291.21 688.92 291.19 689 291.17 689.06 291.15 689.08 291.14 689.13 291.11 689.17 291.07 689.26 291 689.35 290.94 689.44 290.94 689.54 290.94 689.63 290.94 689.7 290.95 689.74 290.93 689.81 290.92 689.86 290.92 689.91 290.9 689.99 290.89 690.04 290.88 690.11 290.86 690.19 290.85 690.29 290.83 690.32 290.82 690.4 290.77 690.47 290.72 690.54 290.68 690.66 290.61 690.73 290.56 690.81 290.51 690.88 290.47 690.95 290.43 691 290.39 691.05 290.46 691.11 290.54 691.17 290.62 691.23 290.71 691.29 290.78 691.39 290.92 691.44 290.97 691.47 291.02 691.59 291.18 691.66 291.27 691.68 291.3 691.65 291.46 691.62 291.62 691.61 291.69 691.58 291.8 691.56 291.99 691.55 292.02 691.53 292.15 691.51 292.28 691.5 292.36 691.5 292.41 691.51 292.5 691.52 292.59 691.5 292.66 691.5 292.72 691.5 292.76 691.5 292.77 691.5 292.83 691.51 292.91 691.52 292.99 691.54 293.07 691.56 293.17 691.6 293.26 691.63 293.35 691.67 293.47 691.71 293.54 691.72 293.59 691.73 293.62 691.74 293.67 691.75 293.74 691.75 293.81 691.76 293.85 691.76 293.89 691.78 293.96 691.8 294.05 691.82 294.1 691.83 294.14 691.87 294.24 691.92 294.35 692.02 294.47 692.11 294.59 692.21 294.75 692.31 294.91 692.44 295.11 692.47 295.15 692.5 295.2 692.51 295.24 692.53 295.28 692.53 295.3 692.53 295.32 692.52 295.34 692.51 295.37 692.5 295.39 692.49 295.41 692.4 295.53 692.37 295.57 692.34 295.63 692.31 295.67 692.3 295.7 692.29 295.71 692.28 295.75 692.28 295.78 692.3 295.83 692.31 295.9 692.31 295.92 692.34 296 692.37 296.1 692.39 296.14 692.4 296.17 692.41 296.18 692.41 296.19 692.41 296.2 692.41 296.22 692.42 296.25 692.42 296.27 692.43 296.28 692.42 296.31 692.42 296.34 692.43 296.39 692.43 296.43 692.43 296.48 692.44 296.51 692.45 296.53 692.47 296.55 692.49 296.59 692.53 296.63 692.58 296.68 692.75 296.82 692.77 296.89 692.79 296.92 692.8 296.95 692.82 297.01 692.79 297.1 692.74 297.23 692.73 297.28 692.72 297.34 692.72 297.38 692.72 297.42 692.72 297.45 692.73 297.5 692.76 297.56 692.77 297.58 692.83 297.71 692.84 297.74 692.86 297.77 692.89 297.8 692.95 297.87 693.02 297.98 693.1 297.93 693.19 297.97 693.31 298.03 693.42 298.12 693.44 298.14 693.54 298.23 693.64 298.34 693.71 298.43 693.96 298.51 694.03 298.53 694.12 298.56 694.24 298.6 694.28 298.61 694.37 298.65 694.52 298.72 694.68 298.8 694.86 298.89 695.06 298.94 695.16 298.97 695.26 299 695.42 299.05 695.23 299.42 695.21 299.45 695.15 299.57 695.13 299.61 695.11 299.66 694.95 299.93 694.95 299.97 694.93 300.08 694.92 300.12 694.85 300.21 694.48 300.66 693.96 300.86 693.99 300.97 694 300.99 694 301.02 694.01 301.04 694.01 301.06 694 301.09 693.99 301.12 693.98 301.15 693.97 301.17 693.96 301.19 693.95 301.22 693.95 301.25 693.95 301.3 693.95 301.35 693.95 301.43 693.95 301.53 693.94 302.03 693.13 302.17 692.41 302.29 692.4 302.29 692.34 302.27 692.31 302.27 692.29 302.26 692.27 302.26 692.24 302.25 692.21 302.25 692.19 302.25 692.17 302.25 692.14 302.25 692.1 302.25 692.08 302.25 692.06 302.25 692.04 302.25 692.02 302.24 691.99 302.24 691.96 302.23 691.88 302.2 691.77 302.24 691.76 302.25 691.74 302.25 691.72 302.26 691.65 302.28 691.59 302.31 691.56 302.32 691.53 302.34 691.48 302.38 691.39 302.46 691.38 302.47 691.18 302.66 691.12 302.72 691.07 302.78 690.95 302.93 690.65 303.28 690.37 303.56 689.99 303.96 689.93 304.13 689.86 304.32 689.68 304.82 689.65 304.89 689.61 305 689.59 305.07 689.57 305.13 689.56 305.24 689.52 305.6 689.61 305.7 689.75 305.85 689.88 305.99 689.95 306.07 689.71 306.53 689.69 306.57 689.6 306.9 689.59 306.93 689.52 307.22 689.35 307.38 689.3 307.49 689.17 307.45 688.79 307.34 688.5 307.25 688.45 307.24 688.4 307.23 688.15 307.2 688.08 307.19 687.96 307.17 687.94 307.17 687.69 307.14 687.67 307.14 687.65 307.13 687.38 307.09 687.07 307.05 686.99 307.03 686.89 307.02 686.78 307 686.62 306.98 686.33 306.93 686.32 306.93 686.31 306.93 686.17 306.91 686.15 306.9 686.12 306.9 686.03 306.88 685.92 306.86 685.9 306.86 685.58 306.78 685.51 306.76 685.39 306.71 685.36 306.71 685.16 306.66 685.17 306.62 685.22 306.38 685.22 306.37 685.29 306.03 684.75 305.87 684.45 305.83 684.29 305.8 684.25 305.8 683.99 305.76 683.14 305.87 682.73 305.93 682.48 306.03 682.47 306.04 682.46 306.04 681.93 306.26 681.91 306.27 681.7 306.36 681.4 306.19 681.03 306.15 681.01 306.15 680.68 306.11 680.18 306.3 679.68 306.33 678.71 306.7 678.69 306.7 678.02 305.97 677.98 305.93 677.88 305.89 677.5 305.73 677 305.52 676.8 305.46 676.55 305.38 676.51 305.38 675.69 305.19 675.38 305.12 675.29 305.09 675.25 305.08 675.22 305.07 675.17 305.04 675.16 305.03 674.79 304.82 674.54 304.75 674.38 304.65 674.37 304.65 674.15 304.5 674.16 304.43 674.01 304.34 673.98 304.32 673.89 304.26 673.88 304.23 673.82 304.18 673.81 304.17 673.79 304.16 673.78 304.13 673.73 304.05 673.72 304.03 673.71 304.01 673.7 303.98 673.7 303.98 673.7 303.96 673.69 303.91 673.68 303.85 673.7 303.78 673.74 303.71 673.76 303.64 673.78 303.58 673.8 303.5 673.83 303.43 673.86 303.36 673.88 303.32 673.9 303.29 673.86 303.26 673.81 303.23 673.81 303.22 673.8 303.22 673.72 303.16 673.68 303.13 673.67 303.12 673.59 303.06 673.34 302.88 673.27 302.82 673.26 302.78 673.15 302.19 673.08 302.19 672.9 302.21 672.84 302.2 672.8 302.19 672.76 302.18 672.75 302.17 672.7 302.15 672.64 302.12 672.31 301.89 672.08 301.88 671.87 301.86 671.61 301.84 671.53 301.83 671.5 301.82 671.39 301.8 671.31 301.79 671.29 301.79 671.07 301.77 670.92 301.76 670.72 301.74 670.61 301.72 670.46 301.67 670.4 301.65 670.36 301.64 670.36 301.64 670.34 301.63 670.31 301.64 670.21 301.66 670.14 301.67 670.13 301.67 670.1 301.66 670.05 301.66 670.01 301.65 669.96 301.62 669.82 301.58 669.81 301.57 669.77 301.57 669.72 301.57 669.71 301.57 669.64 301.56 669.57 301.54 669.54 301.54 669.52 301.53 669.39 301.53 669.38 301.53 669.3 301.54 669.27 301.54 669.24 301.53 669.18 301.52 669.14 301.51 669.1 301.52 669.06 301.52 669.03 301.52 669 301.52 668.94 301.5 668.78 301.47 668.67 301.45 668.6 301.44 668.57 301.43 668.56 301.43 668.53 301.42 668.47 301.41 668.45 301.41 668.41 301.42 668.15 301.48 668.05 301.46 667.83 301.39 667.73 301.38 667.69 301.38 667.59 301.37 667.5 301.36 667.42 301.36 667.36 301.36 667.3 301.36 667.26 301.36 667.23 301.36 667.17 301.34 667.08 301.3 667.06 301.3 667.02 301.29 666.98 301.29 666.97 301.29 666.95 301.29 666.86 301.3 666.73 301.31 666.63 301.31 666.55 301.3 666.52 301.3 666.5 301.3 666.48 301.3 666.43 301.3 666.37 301.3 666.24 301.33 666.2 301.34 666.14 301.36 666.09 301.39 666 301.46 665.97 301.48 665.93 301.5 665.89 301.52 665.88 301.52 665.86 301.53 665.84 301.52 665.81 301.52 665.76 301.49 665.7 301.46 665.65 301.42 665.63 301.41 665.59 301.41 665.54 301.42 665.49 301.43 665.43 301.45 665.34 301.49 665.22 301.53 665.15 301.55 665.08 301.55 665 301.54 664.91 301.52 664.74 301.5 665.17 301.08 664.78 300.07 664.78 300.07 664.8 299.89 664.84 299.72 664.85 299.68 664.85 299.68 664.92 299.51 664.93 299.48 664.94 299.45 665.09 299.04 665.02 298.79 665 298.72 664.99 298.7 664.93 298.47 664.93 298.43 664.96 298.34 665.08 297.98 665.1 297.93 664.87 297.91 664.59 297.9 664.49 297.9 664.26 297.9 664.03 297.91 663.78 297.93 663.59 297.95 663.57 297.95 663.36 297.97 663.3 297.97 663.12 298 662.76 298.03 662.69 298.03 662.61 298.04 662.47 298.05 662.36 298.05 662.06 298.07 662 298.08 661.88 298.05 661.8 298.03 661.68 298 661.65 297.87 661.64 297.84 661.63 297.78 661.61 297.69 661.61 297.64 661.59 297.56 661.56 297.51 661.55 297.48 661.49 297.37 661.44 297.27 661.35 297.12 661.34 297.1 661.26 296.96 661.18 296.9 661.2 296.81 661.22 296.72 661.24 296.6 661.26 296.48 661.28 296.41 661.3 296.3 661.33 296.16 661.35 296 661.36 295.98 661.36 295.97 661.39 295.81 661.42 295.63 661.45 295.49 661.46 295.48 661.47 295.44 661.48 295.42 661.48 295.41 661.51 295.35 661.56 295.27 661.57 295.25 661.6 295.18 661.65 295.1 661.69 295.02 661.73 294.94 661.77 294.87 661.79 294.83 661.81 294.78 661.82 294.75 661.84 294.7 661.85 294.65 661.87 294.58 661.86 294.56 661.87 294.54 661.87 294.53 661.86 294.52 661.86 294.51 661.83 294.48 661.76 294.4 661.64 294.27 661.49 294.11 661.34 293.95 661.27 293.95 661.16 293.95 661.01 293.95 660.9 293.95 660.82 293.95 660.8 293.95 660.74 293.93 660.68 293.83 660.62 293.71 660.53 293.55 660.47 293.44 660.43 293.37 660.38 293.28 660.31 293.18 660.28 293.13 660.23 293.06 660.16 292.94 660.08 292.82 660.07 292.8 660.05 292.77 660.01 292.72 659.96 292.63 659.99 292.52 659.99 292.49 660.02 292.33 660.05 292.21 660.06 292.14 660.07 292.09 660.1 291.96 660.12 291.83 660.13 291.77 660.02 291.76 659.87 291.75 659.8 291.75 659.69 291.74 659.61 291.73 659.56 291.73 659.43 291.72 659.32 291.71 659.19 291.7 659.04 291.69 658.93 291.68 658.81 291.64 658.66 291.58 658.52 291.53 658.41 291.49 658.25 291.44 658.2 291.3 658.18 291.25 658.14 291.13 658.07 290.96 658.04 290.88 658.03 290.83 657.98 290.7 657.92 290.55 657.89 290.47 657.87 290.43 657.83 290.34 657.77 290.26 657.71 290.18 657.63 290.1 657.56 290.02 657.49 289.95 657.47 289.94 657.41 289.89 657.37 289.85 657.33 289.81 657.31 289.78 657.24 289.63 657.17 289.49 657.14 289.42 657.07 289.27 657.04 289.21 656.96 289.04 656.92 288.95 656.92 288.86 656.93 288.74 656.93 288.7 656.93 288.67 656.93 288.6 656.93 288.46 656.94 288.31 656.94 288.22 656.95 288 656.95 287.81 656.95 287.79 656.95 287.67 656.96 287.61 656.96 287.51 656.97 287.4 656.97 287.29 656.96 287.16 656.94 287.04 656.94 286.98 656.91 286.84 656.89 286.7 656.86 286.6 656.83 286.43 656.77 286.16 656.77 286.14 656.74 286.02 656.73 285.93 656.72 285.64 656.68 285.55 656.36 284.77 656.14 284.25 656.08 284.11 656.06 284.06 656.03 284.01 656 283.93 655.99 283.92 655.97 283.88 655.96 283.86 655.93 283.74 655.89 283.6 655.8 283.35 655.86 283.31 655.9 283.34 655.92 283.35 656.07 283.36 656.26 283.28 656.41 283.23 656.49 283.21 656.62 283.18 656.72 283.17 656.75 283.17 656.75 283.06 656.77 282.95 656.79 282.87 656.82 282.78 656.85 282.69 656.9 282.58 656.96 282.48 657.04 282.38 657.11 282.31 657.18 282.24 657.19 282.24 657.18 282.22 657.17 282.21 657.17 282.18 657.17 282.13 657.17 282.05 657.17 281.97 657.17 281.88 657.16 281.82 657.16 281.79 657.14 281.76 657.13 281.74 657.12 281.69 657.11 281.62 657.1 281.58 657.1 281.53 657.11 281.5 657.11 281.47 657.12 281.43 657.12 281.41 657.11 281.36 657.08 281.23 657.06 281.21 657.06 281.18 657.06 281.15 657.07 281.13 657.07 281.1 657.07 281.07 657.08 281.01 657.09 280.96 657.11 280.9 657.12 280.87 657.13 280.83 657.13 280.81 657.12 280.78 657.13 280.74 657.13 280.73 657.13 280.72 657.15 280.68 657.17 280.63 657.18 280.57 657.19 280.51 657.19 280.44 657.19 280.41 657.21 280.3 657.22 280.19 657.23 280.15 657.29 280.03 657.31 279.94 Z"/>
</g></svg>