<svg xmlns="http://www.w3.org/2000/svg" version="1.2" baseProfile="tiny" stroke-linecap="round" stroke-linejoin="round" viewBox="620.27 236.93 28.5 20.73"><g xmlns="http://www.w3.org/2000/svg" id="Garaioa">
<path d="M 631.55 237 631.61 237.08 631.7 237.21 631.75 237.27 631.79 237.31 631.83 237.35 631.87 237.37 631.94 237.4 632 237.43 632.11 237.47 632.12 237.48 632.12 237.48 632.17 237.5 632.19 237.51 632.2 237.51 632.25 237.53 632.29 237.54 632.48 237.61 632.63 237.66 632.71 237.69 632.78 237.72 632.84 237.74 632.88 237.76 632.93 237.77 632.99 237.78 633 237.78 633.03 237.79 633.07 237.79 633.18 237.79 633.24 237.8 633.29 237.8 633.31 237.8 633.32 237.8 633.43 237.81 633.47 237.82 633.5 237.82 633.57 237.84 633.68 237.89 633.82 237.96 633.9 238 634.02 238.06 634.11 238.11 634.2 238.15 634.31 238.21 634.33 238.22 634.36 238.23 634.36 238.24 634.55 238.32 634.71 238.39 634.85 238.45 634.98 238.49 635.12 238.55 635.24 238.61 635.31 238.63 635.38 238.67 635.41 238.69 636.11 239.08 636.15 239.1 636.17 239.11 636.23 239.14 636.28 239.15 636.34 239.16 636.36 239.17 636.46 239.19 636.48 239.2 636.49 239.2 636.5 239.2 636.57 239.22 636.7 239.26 636.72 239.27 636.76 239.29 636.76 239.32 636.76 239.36 636.77 239.39 636.78 239.44 636.81 239.5 636.84 239.56 636.88 239.62 636.9 239.64 636.94 239.68 636.98 239.72 637.01 239.74 637.04 239.76 637.07 239.81 637.1 239.87 637.13 239.93 637.14 239.97 637.15 239.98 637.19 240.02 637.25 240.09 637.34 240.17 637.36 240.18 637.4 240.21 637.41 240.22 637.49 240.28 637.54 240.32 637.58 240.36 637.61 240.38 637.65 240.41 637.69 240.46 637.7 240.47 637.74 240.49 637.79 240.53 637.81 240.54 637.9 240.58 638.01 240.65 638.06 240.66 638.1 240.68 638.14 240.7 638.18 240.74 638.22 240.77 638.3 240.83 638.4 240.91 638.5 240.99 638.61 241.06 638.7 241.11 638.77 241.16 638.84 241.2 638.9 241.24 638.97 241.27 639.01 241.3 639.03 241.31 639.06 241.32 639.08 241.32 639.14 241.3 639.18 241.29 639.22 241.29 639.27 241.28 639.35 241.28 639.43 241.28 639.52 241.29 639.63 241.28 639.72 241.29 639.8 241.3 639.89 241.29 640 241.3 640.11 241.29 640.25 241.3 640.4 241.31 640.54 241.33 640.64 241.33 640.77 241.33 640.89 241.35 640.98 241.36 641.04 241.36 641.12 241.37 641.22 241.39 641.33 241.41 641.44 241.44 641.59 241.47 641.71 241.5 641.78 241.52 641.87 241.56 642.01 241.62 642.16 241.69 642.33 241.77 642.48 241.82 642.51 241.82 642.56 241.83 642.64 241.83 642.73 241.82 642.84 241.8 642.88 241.8 642.92 241.8 643.01 241.79 643.11 241.8 643.23 241.81 643.37 241.81 643.47 241.82 643.49 241.82 643.52 241.82 643.55 241.83 643.6 241.85 643.71 241.88 643.81 241.91 643.87 241.93 643.89 241.94 643.98 242 644.03 242.05 644.09 242.1 644.12 242.12 644.28 242.27 644.31 242.3 644.32 242.3 644.37 242.34 644.43 242.37 644.77 242.06 644.84 242.01 644.91 241.94 644.99 241.87 645.22 241.66 645.24 241.64 645.31 241.56 645.36 241.52 645.44 241.45 645.53 241.38 645.62 241.33 645.67 241.3 645.7 241.28 645.72 241.26 645.75 241.23 645.78 241.17 645.83 241.07 645.85 241.03 645.88 241 645.89 240.98 645.95 240.9 646.01 240.78 646.06 240.7 646.07 240.67 646.09 240.64 646.14 240.54 646.16 240.5 646.28 240.27 646.34 240.16 646.36 240.13 646.48 239.89 646.51 239.85 646.6 239.67 646.62 239.64 646.65 239.59 646.66 239.53 646.66 239.47 646.66 239.45 646.66 239.41 646.67 239.35 646.66 239.25 646.66 239.19 646.66 239.18 646.69 239.19 646.77 239.22 646.85 239.25 646.93 239.28 647 239.32 647.06 239.35 647.13 239.39 647.22 239.43 647.28 239.46 647.35 239.49 647.37 239.5 647.41 239.51 647.46 239.52 647.55 239.54 647.65 239.56 647.75 239.57 647.84 239.6 647.91 239.62 647.99 239.64 648.06 239.66 648.14 239.69 648.21 239.72 648.28 239.75 648.35 239.78 648.42 239.81 648.49 239.84 648.57 239.87 648.62 239.88 648.69 239.9 648.76 239.92 648.71 239.97 648.65 240.08 648.61 240.15 648.54 240.23 648.49 240.3 648.47 240.33 648.37 240.43 648.24 240.59 648.18 240.66 648.13 240.72 648.12 240.73 648.05 240.8 647.99 240.86 647.91 240.94 647.84 241 647.76 241.08 647.71 241.13 647.68 241.16 647.64 241.19 647.59 241.25 647.51 241.33 647.41 241.44 647.35 241.5 647.28 241.56 647.22 241.62 647.2 241.63 647.17 241.66 647.13 241.69 647.07 241.74 647.06 241.75 647.02 241.78 646.95 241.83 646.9 241.87 646.87 241.89 646.89 242 646.93 242.12 646.93 242.15 646.96 242.29 646.98 242.39 646.99 242.41 647.01 242.48 647.01 242.52 647.02 242.64 647.02 242.77 646.99 242.81 646.97 242.83 646.94 242.85 646.91 242.87 646.88 242.88 646.87 242.88 646.83 242.9 646.78 242.91 646.77 242.92 646.72 242.94 646.68 242.96 646.62 242.99 646.56 243.02 646.55 243.06 646.54 243.13 646.53 243.19 646.52 243.24 646.51 243.27 646.5 243.31 646.47 243.35 646.45 243.38 646.34 243.47 646.21 243.57 646.08 243.66 645.5 243.87 644.75 244.13 644.63 244.18 644.58 244.2 644.51 244.21 644.45 244.23 644.38 244.24 644.31 244.25 644.26 244.26 644.19 244.27 644.16 244.27 644.12 244.28 644.05 244.29 643.96 244.31 643.9 244.32 643.85 244.33 643.81 244.34 643.63 244.37 643.53 244.43 643.27 244.61 643.25 244.62 643.24 244.62 643.19 244.64 643.15 244.66 643.12 244.68 643.1 244.7 643.06 244.73 643.02 244.79 642.96 244.87 642.93 244.9 642.91 244.92 642.88 244.96 642.87 244.97 642.84 245 642.82 245.04 642.79 245.07 642.77 245.1 642.76 245.14 642.74 245.19 642.71 245.25 642.7 245.27 642.68 245.32 642.67 245.34 642.63 245.42 642.61 245.48 642.54 245.63 642.5 245.71 642.48 245.75 642.47 245.77 642.45 245.81 642.44 245.81 642.4 245.87 642.36 245.93 642.34 245.97 642.28 246.01 642.22 246.04 642.16 246.06 642.09 246.07 642.02 246.09 641.95 246.11 641.91 246.13 641.9 246.15 641.85 246.16 641.8 246.17 641.76 246.18 641.73 246.18 641.7 246.17 641.65 246.15 641.6 246.12 641.58 246.1 641.56 246.09 641.51 246.07 641.39 246.09 641.06 246.18 640.83 246.1 640.84 246.06 640.85 246.02 640.87 245.97 640.88 245.96 640.93 245.84 640.93 245.81 640.93 245.79 640.93 245.77 640.93 245.73 640.93 245.7 640.93 245.69 640.92 245.64 640.92 245.61 640.91 245.59 640.9 245.56 640.88 245.54 640.86 245.51 640.83 245.47 640.78 245.44 640.71 245.38 640.67 245.34 640.61 245.3 640.6 245.29 640.56 245.26 640.44 245.23 640.34 245.21 640.02 245.11 639.83 245.04 639.45 244.97 639.39 244.95 639.32 244.95 639.06 245 638.99 245.02 638.94 245.02 638.93 245.03 638.9 245.03 638.84 245.03 638.77 245.04 638.74 245.06 638.66 245.12 638.64 245.13 638.63 245.13 638.59 245.14 638.53 245.15 638.51 245.15 638.48 245.16 638.47 245.17 638.46 245.18 638.44 245.19 638.42 245.22 638.4 245.27 638.37 245.34 638.36 245.38 638.35 245.39 638.35 245.4 638.33 245.43 638.31 245.48 638.3 245.51 638.29 245.55 638.29 245.56 638.29 245.59 638.25 245.64 638.23 245.66 638.22 245.68 638.2 245.72 638.19 245.74 638.17 245.77 638.15 245.81 638.14 245.83 638.11 245.88 638.1 245.91 638.09 245.94 638.08 245.95 638.08 245.97 638.07 246 638.06 246.06 638.05 246.1 638.04 246.13 638.01 246.2 638.01 246.21 637.97 246.3 637.93 246.39 637.93 246.4 637.93 246.4 637.92 246.43 637.9 246.47 637.87 246.55 637.87 246.56 637.84 246.63 637.83 246.64 637.8 246.68 637.79 246.7 637.77 246.74 637.76 246.76 637.71 246.85 637.7 246.88 637.69 246.9 637.69 246.91 637.67 246.94 637.66 246.96 637.65 246.99 637.65 247 637.63 247.03 637.62 247.06 637.59 247.11 637.56 247.19 637.56 247.2 637.54 247.24 637.5 247.3 637.46 247.37 637.44 247.41 637.38 247.5 637.35 247.55 637.02 248.08 636.99 248.12 636.94 248.2 636.94 248.21 636.91 248.26 636.89 248.29 636.88 248.3 636.82 248.45 636.77 248.52 636.73 248.58 636.67 248.67 636.63 248.75 636.59 248.82 636.54 248.91 636.51 248.96 636.47 249.03 636.43 249.1 636.4 249.16 636.39 249.18 636.36 249.23 636.33 249.27 636.3 249.31 636.26 249.36 636.24 249.37 636.24 249.38 636.22 249.4 636.2 249.42 636.17 249.45 636.16 249.46 636.14 249.47 636.09 249.51 636.06 249.54 636.03 249.56 636.02 249.59 636.01 249.62 636.01 249.65 636.02 249.67 635.98 249.74 636.04 249.95 636.05 250.09 636.04 250.21 635.78 250.68 635.72 250.78 635.55 251.1 635.54 251.11 635.45 251.27 635.47 251.55 634.94 252.71 634.68 252.94 634.08 254.17 634 254.33 633.81 254.72 633.69 254.98 633.61 255.12 633.61 255.13 633.6 255.14 633.47 255.37 633.07 255.85 632.99 255.95 632.96 256.04 632.89 256.26 632.78 256.89 632.77 256.95 632.74 257.12 632.72 257.2 632.7 257.26 632.67 257.35 632.65 257.42 632.63 257.51 632.61 257.58 632.59 257.66 632.06 257.56 631.5 257.06 631.23 256.82 630.94 256.56 630.92 256.55 630.65 256.51 630.64 256.5 630.42 256.46 630.32 256.44 629.87 256.26 629.45 256.08 629.41 256.07 629.14 255.95 629.09 255.94 628.08 255.95 627.17 255.96 626.71 255.96 626.69 255.91 626.57 255.64 626.54 255.57 626.45 255.4 626.36 255.19 626.33 255.14 626.28 255.03 626.2 254.87 626.05 254.64 625.86 254.35 625.67 254.05 625.45 253.73 625.24 253.41 625.1 253.18 625.04 253.1 625 253.03 624.88 252.87 624.83 252.79 624.82 252.78 624.75 252.66 624.61 252.46 624.46 252.23 624.33 252.04 624.23 251.89 624.06 251.54 623.96 251.32 623.83 251.03 623.67 250.67 623.57 250.45 623.5 250.3 623.44 250.17 623.43 250.09 623.43 249.88 623.43 249.67 623.43 249.41 623.43 249.17 623.43 248.91 623.43 248.68 623.42 248.51 623.42 248.26 623.37 248.18 623.26 248.01 623.14 247.83 623 247.62 622.85 247.39 622.66 247.09 622.65 247.06 622.62 247.02 622.56 246.88 622.46 246.69 622.36 246.48 622.26 246.28 622.16 246.06 622.05 245.84 621.96 245.65 621.94 245.64 621.77 245.49 621.6 245.35 621.45 245.22 621.27 245.08 621.13 244.96 620.95 244.81 620.82 244.7 620.72 244.62 620.55 244.48 620.46 244.4 620.45 244.39 620.43 244.37 620.32 244.29 620.29 244.26 620.34 244.24 620.39 244.2 620.43 244.18 620.46 244.14 620.5 244.06 620.53 243.94 620.56 243.77 620.57 243.62 620.57 243.5 620.55 243.37 620.53 243.23 620.49 243.11 620.43 242.97 620.37 242.81 620.33 242.7 620.32 242.64 620.32 242.51 620.33 242.36 620.37 242.16 620.42 241.95 620.45 241.84 620.49 241.85 620.62 241.88 620.75 241.92 620.92 241.96 621.05 242 621.11 242.01 621.13 242.02 621.26 242.06 621.35 242.08 621.46 242.11 621.59 242.15 621.8 242.2 622 242.25 622.21 242.32 622.4 242.36 622.45 242.32 622.45 242.32 622.46 242.31 622.53 242.25 622.62 242.18 622.72 242.1 622.85 241.99 622.94 241.92 623.03 241.85 623.04 241.84 623.08 241.78 623.13 241.71 623.18 241.65 623.23 241.59 623.29 241.52 623.33 241.47 623.37 241.42 623.41 241.37 623.47 241.31 623.53 241.25 623.58 241.2 623.64 241.14 623.69 241.1 623.75 241.05 623.79 241.01 623.83 240.99 623.85 240.98 623.87 240.97 623.92 240.96 623.98 240.96 624.05 240.94 624.12 240.93 624.17 240.92 624.22 240.91 624.26 240.89 624.3 240.88 624.34 240.87 624.38 240.88 624.42 240.88 624.47 240.9 624.54 240.92 624.6 240.94 624.66 240.97 624.71 240.99 624.76 241.02 624.79 241.04 624.81 241.06 624.83 241.07 624.87 241.1 624.91 241.15 624.94 241.18 624.97 241.21 625 241.24 625.03 241.28 625.06 241.32 625.08 241.37 625.1 241.4 625.12 241.42 625.14 241.44 625.16 241.45 625.19 241.46 625.19 241.45 625.21 241.41 625.23 241.34 625.25 241.28 625.27 241.21 625.3 241.11 625.34 241.02 625.37 240.92 625.4 240.83 625.44 240.73 625.47 240.64 625.51 240.52 625.52 240.48 625.55 240.39 625.58 240.3 625.61 240.24 625.64 240.15 625.67 240.07 625.71 239.97 625.75 239.87 625.78 239.81 625.79 239.77 625.91 239.79 626.03 239.8 626.15 239.82 626.24 239.83 626.32 239.84 626.4 239.85 626.51 239.87 626.61 239.88 626.67 239.89 626.77 239.9 626.84 239.91 626.88 239.88 626.91 239.85 626.93 239.83 626.96 239.81 626.99 239.81 627.03 239.82 627.11 239.83 627.13 239.84 627.16 239.86 627.18 239.87 627.2 239.88 627.29 239.92 627.32 239.93 627.41 239.94 627.49 239.93 627.55 239.92 627.63 239.91 627.67 239.89 627.72 239.86 627.73 239.85 627.76 239.82 627.79 239.79 627.81 239.79 627.84 239.78 627.85 239.77 627.86 239.77 627.93 239.75 628.02 239.72 628.06 239.71 628.08 239.7 628.13 239.67 628.2 239.63 628.3 239.59 628.37 239.56 628.39 239.55 628.48 239.52 628.56 239.48 628.61 239.45 628.66 239.42 628.71 239.39 628.77 239.35 628.83 239.32 628.88 239.29 628.93 239.25 628.99 239.22 629.06 239.18 629.11 239.15 629.17 239.12 629.21 239.1 629.25 239.09 629.26 239.07 629.28 239.06 629.3 239.04 629.32 239.01 629.35 238.99 629.36 238.97 629.39 238.95 629.43 238.91 629.49 238.85 629.51 238.82 629.57 238.74 629.62 238.68 629.66 238.63 629.67 238.61 629.74 238.54 629.77 238.5 629.8 238.47 629.82 238.45 629.85 238.43 629.88 238.38 629.92 238.33 629.94 238.3 630 238.23 630.01 238.22 630.02 238.21 630.05 238.17 630.08 238.14 630.09 238.13 630.12 238.09 630.15 238.05 630.16 238.04 630.2 237.97 630.21 237.96 630.23 237.93 630.26 237.9 630.28 237.86 630.33 237.81 630.35 237.78 630.36 237.78 630.42 237.71 630.46 237.66 630.49 237.64 630.5 237.63 630.51 237.62 630.54 237.59 630.56 237.56 630.58 237.54 630.61 237.5 630.7 237.39 630.74 237.35 630.76 237.33 630.86 237.21 630.94 237.12 630.99 237.05 631.05 236.99 631.08 236.94 631.22 236.96 631.33 236.97 631.43 236.98 631.48 236.99 631.55 237 Z"/>
</g></svg>