<svg xmlns="http://www.w3.org/2000/svg" version="1.2" baseProfile="tiny" stroke-linecap="round" stroke-linejoin="round" viewBox="719.5 280.58 28 31.8"><g xmlns="http://www.w3.org/2000/svg" id="Garde">
<path d="M 742.17 280.59 742.25 280.61 742.37 280.63 742.44 280.65 742.48 280.65 742.53 280.65 742.6 280.64 742.67 280.63 742.71 280.63 742.75 280.63 742.79 280.63 742.85 280.64 742.88 280.64 742.99 280.66 743.11 280.67 743.24 280.69 743.3 280.69 743.34 280.69 743.38 280.69 743.44 280.68 743.5 280.67 743.58 280.66 743.67 280.65 743.78 280.65 743.87 280.63 743.98 280.63 744.04 280.63 744.1 280.63 744.18 280.64 744.33 280.65 744.44 280.66 744.42 280.73 744.41 280.82 744.41 280.88 744.4 280.92 744.4 280.95 744.41 280.98 744.41 281.02 744.42 281.03 744.43 281.12 744.44 281.14 744.46 281.21 744.47 281.29 744.48 281.36 744.5 281.42 744.51 281.47 744.52 281.51 744.55 281.61 744.59 281.72 744.63 281.85 744.67 281.98 744.71 282.09 744.74 282.16 744.76 282.25 744.79 282.32 744.82 282.42 744.85 282.54 744.88 282.65 744.91 282.75 744.94 282.84 744.95 282.89 744.97 282.93 744.99 282.96 745.01 282.98 745.03 283.01 745.06 283.03 745.09 283.05 745.11 283.08 745.12 283.1 745.13 283.12 745.14 283.14 745.17 283.21 745.19 283.26 745.21 283.33 745.23 283.39 745.25 283.43 745.26 283.45 745.27 283.47 745.27 283.49 745.27 283.53 745.26 283.56 745.27 283.59 745.27 283.62 745.28 283.64 745.29 283.65 745.31 283.67 745.33 283.68 745.34 283.69 745.38 283.72 745.41 283.74 745.44 283.76 745.46 283.77 745.47 283.79 745.48 283.81 745.5 283.84 745.51 283.89 745.52 284 745.53 284.1 745.53 284.12 745.53 284.21 745.53 284.4 745.53 284.56 745.53 284.66 745.52 284.75 745.51 284.81 745.51 284.85 745.51 284.9 745.51 284.94 745.51 285 745.51 285.07 745.51 285.11 745.51 285.15 745.52 285.18 745.53 285.21 745.55 285.26 745.59 285.34 745.6 285.38 745.63 285.46 745.67 285.56 745.71 285.7 745.75 285.83 745.77 285.88 745.79 285.92 745.84 286.03 745.85 286.08 745.86 286.13 745.87 286.18 745.88 286.24 745.89 286.28 745.89 286.32 745.89 286.42 745.9 286.49 745.89 286.54 745.89 286.62 745.88 286.66 745.88 286.7 745.86 286.74 745.84 286.78 745.81 286.83 745.75 286.91 745.71 286.97 745.66 287.03 745.62 287.09 745.58 287.13 745.56 287.16 745.54 287.19 745.52 287.24 745.5 287.31 745.48 287.38 745.47 287.44 745.46 287.49 745.45 287.53 745.44 287.56 745.42 287.59 745.3 287.7 745.17 287.83 745.03 287.96 744.87 288.12 744.78 288.21 744.68 288.29 744.6 288.36 744.55 288.39 744.48 288.45 744.36 288.51 744.25 288.55 744.24 288.56 744.08 288.62 743.95 288.66 743.87 288.69 743.79 288.73 743.62 288.81 743.63 288.9 743.65 289.13 743.66 289.16 743.68 289.21 743.71 289.32 743.76 289.44 743.79 289.54 743.81 289.6 743.81 289.68 743.82 289.78 743.83 289.9 743.83 289.93 743.83 290.08 743.85 290.24 743.86 290.33 743.88 290.41 743.91 290.48 743.94 290.55 743.98 290.62 744.02 290.68 744.08 290.72 744.15 290.78 744.22 290.83 744.3 290.89 744.4 290.96 744.42 290.97 744.48 291 744.57 291.05 744.68 291.12 744.81 291.2 744.95 291.28 745.09 291.38 745.2 291.46 745.29 291.54 745.39 291.66 745.54 291.81 745.57 291.84 745.63 291.87 745.71 291.89 745.79 291.92 745.86 291.94 745.92 291.96 745.97 291.98 746.03 292.03 746.08 292.06 746.15 292.12 746.22 292.17 746.29 292.25 746.33 292.31 746.37 292.37 746.42 292.44 746.46 292.5 746.5 292.56 746.55 292.62 746.57 292.66 746.6 292.72 746.62 292.79 746.64 292.85 746.66 292.89 746.69 292.92 746.7 293 746.73 293.26 746.74 293.41 746.76 293.52 746.78 293.66 746.81 293.76 746.84 293.88 746.89 293.99 746.96 294.17 747 294.3 747.05 294.41 747.06 294.43 747.06 294.44 747.12 294.51 747.23 294.59 747.33 294.66 747.39 294.71 747.44 294.75 747.47 294.79 747.48 294.83 747.48 294.89 747.43 294.97 747.36 295.08 747.28 295.18 747.2 295.23 747.1 295.28 747.01 295.35 746.93 295.4 746.85 295.47 746.78 295.54 746.7 295.63 746.62 295.72 746.6 295.76 746.56 295.82 746.51 295.91 746.45 296.02 746.4 296.14 746.37 296.25 746.34 296.38 746.31 296.48 746.3 296.52 746.25 296.73 746.17 297.16 746.11 297.52 746.1 297.57 746.1 297.62 746.08 297.76 746.07 297.89 746.05 298.06 746.04 298.15 746.04 298.32 746.05 298.39 746.05 298.49 746.04 298.59 746.01 298.73 745.95 298.92 745.89 299.05 745.79 299.23 745.76 299.29 745.72 299.35 745.69 299.42 745.67 299.48 745.67 299.49 745.57 299.67 745.48 299.79 745.47 299.8 745.46 299.81 745.35 299.96 745.32 300.01 745.22 300.15 745.21 300.16 745.16 300.2 745.08 300.28 745.06 300.3 745.04 300.32 745 300.39 744.95 300.47 744.92 300.54 744.89 300.63 744.83 300.84 744.76 301.05 744.76 301.06 744.72 301.14 744.71 301.16 744.68 301.2 744.66 301.24 744.61 301.33 744.58 301.38 744.5 301.51 744.45 301.57 744.43 301.61 744.4 301.66 744.28 301.86 744.23 301.95 744.19 302.07 744.18 302.11 744.12 302.28 743.93 302.2 743.81 302.15 743.67 302.11 743.59 302.09 743.51 302.09 743.39 302.1 743.31 302.13 743.28 302.17 743.21 302.38 743.13 302.62 743.13 302.63 743.12 302.65 743.12 302.66 743.11 302.68 743.11 302.69 743.1 302.69 743.08 302.67 743.07 302.65 743.07 302.63 743.06 302.63 743.05 302.63 743.05 302.66 743.04 302.7 743.02 302.74 743.01 302.78 742.97 302.87 742.93 302.98 742.9 303.09 742.89 303.16 742.88 303.22 742.88 303.27 742.85 303.38 742.82 303.5 742.81 303.61 742.78 303.75 742.78 303.76 742.79 303.78 742.8 303.79 742.82 303.8 742.87 303.83 742.93 303.88 742.99 303.93 743.07 304 743.13 304.04 743.18 304.09 743.21 304.11 743.17 304.13 743.08 304.16 742.97 304.19 742.9 304.21 742.85 304.22 742.79 304.23 742.73 304.23 742.65 304.23 742.57 304.23 742.52 304.25 742.48 304.26 742.41 304.3 742.31 304.35 742.23 304.4 742.16 304.45 742.07 304.52 742.02 304.58 741.95 304.65 741.91 304.7 741.88 304.72 741.86 304.74 741.83 304.76 741.8 304.76 741.73 304.78 741.69 304.8 741.61 304.83 741.57 304.85 741.52 304.88 741.49 304.9 741.45 304.92 741.43 304.94 741.41 304.96 741.38 304.98 741.36 305.01 741.33 305.04 741.29 305.11 741.24 305.19 741.19 305.29 741.13 305.38 741.1 305.44 741.07 305.51 741.04 305.57 741.02 305.59 741 305.61 740.97 305.63 740.9 305.67 740.83 305.69 740.8 305.71 740.71 305.75 740.65 305.78 740.54 305.83 740.48 305.85 740.45 305.86 740.37 305.9 740.25 305.94 740.13 305.97 740 306 739.84 306.04 739.61 306.09 739.45 306.12 739.4 306.13 739.37 306.13 739.34 306.13 739.31 306.13 739.29 306.12 739.26 306.12 739.23 306.1 739.19 306.06 739.13 306.02 739.04 305.96 738.97 305.92 738.9 305.88 738.82 305.82 738.74 305.78 738.67 305.75 738.55 305.69 738.43 305.63 738.34 305.57 738.26 305.53 738.2 305.5 738.14 305.47 738.1 305.46 738.07 305.44 738.03 305.41 737.93 305.37 737.86 305.32 737.79 305.27 737.71 305.21 737.65 305.14 737.59 305.08 737.54 305.01 737.47 304.95 737.39 304.88 737.34 304.85 737.3 304.83 737.28 304.81 737.26 304.81 737.24 304.81 737.2 304.8 737.12 304.81 736.93 304.84 736.82 304.86 736.78 304.86 736.72 304.87 736.65 304.86 736.56 304.84 736.35 304.8 736.09 304.74 735.9 304.69 735.72 304.64 735.54 304.61 735.37 304.57 735.17 304.54 734.99 304.49 734.8 304.44 734.58 304.37 734.46 304.33 734.4 304.31 734.38 304.31 734.36 304.31 734.34 304.32 734.3 304.32 734.27 304.33 734.25 304.34 734.21 304.37 734.17 304.4 734.12 304.45 734.09 304.48 734.04 304.53 734.02 304.54 734 304.56 733.95 304.6 733.92 304.62 733.89 304.65 733.85 304.68 733.81 304.71 733.77 304.75 733.73 304.8 733.68 304.84 733.64 304.88 733.56 304.96 733.51 305 733.46 305.04 733.41 305.09 733.37 305.13 733.33 305.17 733.29 305.22 733.25 305.27 733.21 305.31 733.16 305.38 733.12 305.43 733.06 305.5 733.02 305.53 733.01 305.54 732.97 305.59 732.92 305.62 732.87 305.64 732.83 305.66 732.78 305.69 732.74 305.71 732.69 305.75 732.65 305.78 732.61 305.81 732.57 305.84 732.53 305.87 732.51 305.9 732.48 305.94 732.46 305.99 732.45 306.03 732.43 306.12 732.41 306.19 732.4 306.26 732.38 306.35 732.37 306.45 732.35 306.54 732.35 306.63 732.34 306.7 732.33 306.8 732.33 306.89 732.32 306.97 732.32 307.05 732.32 307.09 732.31 307.15 732.32 307.23 732.31 307.33 732.31 307.42 732.31 307.5 732.32 307.57 732.33 307.66 732.33 307.74 732.33 307.75 732.34 307.82 732.35 307.88 732.35 307.97 732.35 308.02 732.34 308.09 732.34 308.16 732.34 308.25 732.35 308.32 732.36 308.38 732.36 308.39 732.37 308.45 732.39 308.51 732.41 308.57 732.43 308.63 732.44 308.67 732.46 308.74 732.48 308.8 732.5 308.85 732.51 308.9 732.53 308.95 732.55 309.01 732.56 309.03 732.57 309.08 732.6 309.14 732.57 309.21 732.55 309.28 732.51 309.41 732.48 309.5 732.48 309.52 732.44 309.61 732.46 309.64 732.49 309.66 732.53 309.69 732.57 309.71 732.62 309.74 732.68 309.77 732.72 309.81 732.74 309.84 732.76 309.88 732.78 309.92 732.79 309.93 732.81 309.99 732.84 310.1 732.86 310.16 732.87 310.23 732.88 310.29 732.89 310.32 732.89 310.37 732.9 310.44 732.91 310.5 732.93 310.56 732.94 310.65 732.96 310.74 732.97 310.82 732.98 310.87 732.98 310.88 732.99 310.96 733 311.04 733.01 311.12 733.02 311.19 733.04 311.25 733.06 311.31 733.08 311.37 733.11 311.42 733.11 311.46 733.11 311.5 733.11 311.59 733.11 311.67 733.1 311.75 733.1 311.84 733.1 311.9 733.09 311.96 733.08 312.06 733.07 312.14 733.06 312.21 733.06 312.28 733.05 312.32 733.05 312.36 733.01 312.36 732.98 312.36 732.93 312.36 732.87 312.36 732.8 312.37 732.71 312.37 732.64 312.38 732.58 312.38 732.52 312.37 732.45 312.37 732.37 312.37 732.28 312.37 732.15 312.37 732.08 312.38 732.02 312.37 731.92 312.36 731.85 312.36 731.8 312.36 731.75 312.36 731.68 312.36 731.62 312.37 731.57 312.36 731.45 312.35 731.41 312.35 731.37 312.34 731.33 312.32 731.28 312.3 731.19 312.26 731.11 312.24 731.03 312.21 730.93 312.19 730.83 312.15 730.78 312.14 730.72 312.12 730.66 312.11 730.61 312.11 730.55 312.1 730.47 312.09 730.39 312.08 730.31 312.07 730.19 312.05 730.09 312.04 730.01 312.03 729.92 312.01 729.85 312 729.79 311.99 729.73 311.99 729.66 311.98 729.62 311.98 729.58 311.98 729.53 311.99 729.49 311.99 729.46 312 729.4 312.01 729.37 312.01 729.32 312.02 729.25 312.02 729.18 312.03 729.13 312.03 729.06 312.03 729.01 312.04 728.97 312.05 728.91 312.06 728.81 312.08 728.75 312.1 728.7 312.1 728.64 312.1 728.56 312.11 728.49 312.12 728.42 312.13 728.35 312.14 728.29 312.15 728.25 312.15 728.18 312.16 728.12 312.17 728.06 312.17 727.98 312.17 727.93 312.18 727.87 312.18 727.85 312.18 727.79 312.18 727.72 312.18 727.67 312.17 727.64 312.17 727.59 312.16 727.5 312.14 727.45 312.14 727.41 312.13 727.36 312.12 727.27 312.11 727.2 312.1 727.12 312.09 727.05 312.07 726.99 312.06 726.95 312.06 726.91 312.06 726.85 312.08 726.8 312.09 726.73 312.11 726.67 312.13 726.63 312.13 726.6 312.13 726.55 312.13 726.46 312.12 726.37 312.11 726.25 312.1 726.17 312.09 726.09 312.09 726.02 312.08 726 312.08 725.94 311.88 725.87 311.64 725.78 311.31 725.7 311.04 725.6 310.71 725.53 310.47 725.49 310.33 725.45 310.2 725.45 310.19 725.39 309.99 725.36 309.9 725.33 309.78 725.3 309.63 725.15 309.58 725.03 309.53 724.87 309.46 724.72 309.4 724.58 309.34 724.56 309.34 724.46 309.29 724.43 309.28 724.37 309.26 724.36 309.25 724.32 309.24 724.24 309.21 724.21 309.19 724.17 309.17 724.15 309.17 724.14 309.16 724.11 309.14 724.09 309.14 724.06 309.11 724.02 309.09 723.96 309.06 723.8 308.97 723.58 308.86 723.54 308.84 723.47 308.8 723.4 308.76 723.22 308.68 723.03 308.59 722.74 308.45 722.58 308.37 722.57 308.36 722.47 308.32 722.36 308.25 722.31 308.22 722.3 308.21 722.27 308.19 722.03 308.04 722.02 308.03 721.99 308.01 721.95 307.99 721.72 307.83 721.62 307.76 721.47 307.66 721.46 307.65 721.09 307.4 721.03 307.37 720.98 307.33 720.89 307.26 720.78 307.18 720.76 307.17 720.74 307.16 720.68 307.12 720.67 307.11 720.65 307.11 720.64 307.1 720.6 307.07 720.57 307.05 720.54 307.03 720.51 307 720.48 306.98 720.45 306.94 720.41 306.88 720.32 306.77 720.22 306.61 720.22 306.61 720.21 306.59 720.06 306.35 720.05 306.33 719.97 306.2 719.98 306.14 720 306.06 720.03 305.96 720.05 305.84 720.06 305.79 720.09 305.68 720.11 305.55 720.13 305.46 720.14 305.38 720.15 305.31 720.16 305.23 720.17 305.17 720.18 305.12 720.18 305.09 720.18 305.07 720.18 305.01 720.18 304.97 720.18 304.94 720.18 304.91 720.18 304.89 720.17 304.84 720.16 304.74 720.14 304.66 720.12 304.6 720.1 304.54 720.09 304.48 720.07 304.42 720.07 304.37 720.06 304.31 720.06 304.3 720.05 304.25 720.04 304.2 720.03 304.14 720.02 304.08 720.02 304.02 720 303.95 719.99 303.88 719.98 303.81 719.97 303.76 719.97 303.75 719.96 303.67 719.95 303.59 719.94 303.5 719.92 303.42 719.92 303.39 719.91 303.37 719.89 303.28 719.88 303.23 719.87 303.21 719.85 303.14 719.83 303.06 719.8 302.98 719.78 302.89 719.77 302.84 719.76 302.8 719.75 302.73 719.75 302.64 719.76 302.57 719.76 302.51 719.77 302.42 719.77 302.38 719.77 302.35 719.78 302.29 719.78 302.23 719.79 302.15 719.8 302.09 719.8 302.05 719.8 302.03 719.8 302.01 719.81 301.95 719.82 301.86 719.84 301.79 719.85 301.75 719.86 301.71 719.88 301.64 719.9 301.59 719.9 301.54 719.9 301.52 719.91 301.49 719.91 301.41 719.91 301.38 719.91 301.33 719.91 301.26 719.91 301.25 719.9 301.16 719.91 301.11 719.91 301.06 719.92 300.98 719.94 300.91 719.94 300.85 719.95 300.81 719.95 300.78 719.96 300.73 719.98 300.67 720 300.6 720.02 300.54 720.02 300.53 720.05 300.48 720.07 300.42 720.1 300.36 720.12 300.3 720.15 300.25 720.16 300.21 720.19 300.15 720.19 300.13 720.21 300.08 720.26 299.96 720.28 299.89 720.3 299.83 720.3 299.82 720.32 299.76 720.35 299.7 720.36 299.65 720.36 299.63 720.38 299.58 720.4 299.53 720.42 299.48 720.45 299.42 720.48 299.37 720.52 299.32 720.56 299.25 720.59 299.21 720.55 299.18 720.48 299.13 720.42 299.1 720.41 299.09 720.41 299.09 720.38 299.07 720.3 299.01 720.24 298.95 720.17 298.88 720.09 298.81 720.04 298.75 720 298.7 719.97 298.64 719.95 298.6 719.93 298.56 719.91 298.52 719.91 298.52 719.91 298.5 719.92 298.48 719.94 298.45 719.96 298.41 720 298.36 720.03 298.32 720.09 298.26 720.14 298.2 720.18 298.16 720.21 298.13 720.22 298.12 720.25 298.08 720.23 298.01 720.21 297.94 720.19 297.89 720.16 297.82 720.12 297.74 720.09 297.66 720.07 297.61 720.06 297.58 720.04 297.54 720.03 297.52 720.03 297.51 720 297.45 720 297.44 719.98 297.39 719.96 297.31 719.93 297.24 719.9 297.15 719.89 297.11 719.88 297.1 719.87 297.06 719.88 297.02 719.88 296.97 719.89 296.89 719.9 296.85 719.91 296.79 719.92 296.75 719.92 296.74 719.93 296.67 719.94 296.6 719.94 296.57 719.94 296.55 719.94 296.54 719.95 296.46 719.97 296.38 720 296.3 720.02 296.24 720.04 296.18 720.03 296.15 720.01 296.12 719.98 296.07 719.95 296 719.93 295.96 719.89 295.89 719.86 295.83 719.83 295.78 719.79 295.71 719.75 295.64 719.72 295.57 719.68 295.5 719.67 295.46 719.66 295.44 719.64 295.4 719.62 295.34 719.59 295.29 719.56 295.23 719.53 295.16 719.52 295.14 719.54 295.11 719.56 295.08 719.56 295.07 719.59 295.01 719.61 294.96 719.63 294.91 719.65 294.85 719.66 294.79 719.67 294.76 719.68 294.73 719.68 294.72 719.69 294.65 719.7 294.58 719.72 294.5 719.73 294.44 719.73 294.4 719.74 294.38 719.74 294.36 719.74 294.29 719.75 294.22 719.75 294.21 719.75 294.17 719.75 294.07 719.75 294.04 719.75 294.03 719.74 293.96 719.74 293.85 719.74 293.8 719.74 293.76 719.74 293.75 719.74 293.7 719.73 293.67 719.75 293.61 719.79 293.52 719.8 293.5 719.83 293.42 719.88 293.31 719.91 293.25 719.92 293.23 719.94 293.17 719.94 293.17 719.96 293.12 719.97 293.09 719.99 293.06 719.99 293.05 720.07 293.06 720.14 293.07 720.19 293.08 720.24 293.09 720.27 293.09 720.32 293.08 720.37 293.08 720.41 293.07 720.44 293.07 720.5 293.07 720.57 293.08 720.64 293.09 720.71 293.11 720.76 293.12 720.83 293.13 720.89 293.15 720.96 293.18 721.03 293.21 721.1 293.24 721.14 293.27 721.15 293.25 721.16 293.23 721.18 293.19 721.21 293.1 721.25 292.99 721.28 292.9 721.31 292.79 721.34 292.7 721.35 292.67 721.36 292.62 721.39 292.55 721.4 292.5 721.42 292.46 721.42 292.45 721.42 292.41 721.44 292.34 721.45 292.28 721.45 292.22 721.47 292.13 721.49 292.05 721.5 291.99 721.53 291.91 721.54 291.84 721.56 291.77 721.57 291.72 721.58 291.69 721.59 291.64 721.61 291.56 721.62 291.52 721.62 291.48 721.68 291.51 721.74 291.54 721.81 291.59 721.85 291.64 721.9 291.68 721.95 291.71 722 291.73 722.06 291.75 722.08 291.76 722.11 291.77 722.19 291.79 722.26 291.81 722.33 291.83 722.37 291.84 722.41 291.86 722.47 291.88 722.53 291.91 722.61 291.93 722.7 291.97 722.8 292.02 722.9 292.05 722.93 292.07 722.95 292.07 722.98 292.08 723.07 292.11 723.16 292.14 723.21 292.15 723.28 292.17 723.32 292.19 723.38 292.21 723.46 292.24 723.53 292.27 723.58 292.3 723.6 292.31 723.64 292.33 723.66 292.34 723.67 292.34 723.75 292.37 723.77 292.37 723.8 292.38 723.81 292.38 723.83 292.38 723.84 292.39 723.91 292.41 723.95 292.42 723.99 292.44 724 292.45 724.03 292.44 724.06 292.41 724.08 292.38 724.1 292.35 724.11 292.33 724.12 292.3 724.13 292.27 724.14 292.23 724.15 292.19 724.16 292.15 724.18 292.11 724.2 292.06 724.23 292 724.26 291.95 724.28 291.92 724.3 291.88 724.31 291.86 724.31 291.83 724.3 291.8 724.3 291.78 724.3 291.76 724.31 291.75 724.32 291.74 724.33 291.73 724.35 291.72 724.37 291.72 724.39 291.74 724.42 291.76 724.45 291.79 724.49 291.82 724.52 291.86 724.58 291.92 724.64 291.98 724.69 292.04 724.74 292.08 724.77 292.12 724.79 292.14 724.81 292.15 724.82 292.12 724.82 292.1 724.83 292.08 724.83 292.03 724.84 291.97 724.86 291.89 724.86 291.85 724.88 291.81 724.89 291.75 724.89 291.75 724.9 291.72 724.91 291.68 724.93 291.65 724.95 291.59 724.96 291.56 724.97 291.52 724.98 291.51 724.99 291.49 725.01 291.45 725.03 291.4 725.05 291.36 725.07 291.33 725.08 291.31 725.11 291.27 725.14 291.22 725.16 291.19 725.18 291.16 725.21 291.12 725.24 291.09 725.28 291.04 725.33 290.99 725.34 290.98 725.36 290.96 725.38 290.94 725.41 290.91 725.44 290.9 725.47 290.88 725.51 290.86 725.55 290.84 725.59 290.82 725.65 290.8 725.69 290.79 725.74 290.77 725.8 290.76 725.84 290.74 725.9 290.72 725.94 290.71 725.95 290.71 726.01 290.7 726.07 290.69 726.12 290.67 726.16 290.66 726.21 290.65 726.26 290.63 726.3 290.62 726.33 290.6 726.36 290.59 726.37 290.58 726.39 290.57 726.41 290.56 726.46 290.52 726.5 290.49 726.55 290.46 726.6 290.42 726.64 290.38 726.69 290.35 726.76 290.3 726.8 290.26 726.83 290.24 726.87 290.2 726.92 290.16 726.95 290.13 726.99 290.09 727.04 290.06 727.08 290.01 727.14 289.97 727.17 289.95 727.21 289.92 727.24 289.89 727.25 289.88 727.27 289.87 727.31 289.84 727.34 289.83 727.39 289.81 727.43 289.8 727.49 289.77 727.54 289.76 727.6 289.73 727.65 289.71 727.69 289.7 727.74 289.68 727.78 289.66 727.81 289.65 727.83 289.64 727.88 289.64 727.95 289.65 728.02 289.66 728.08 289.67 728.11 289.68 728.12 289.64 728.14 289.6 728.16 289.54 728.17 289.5 728.18 289.48 728.2 289.42 728.22 289.36 728.22 289.33 728.21 289.29 728.21 289.26 728.22 289.25 728.22 289.24 728.22 289.23 728.24 289.21 728.25 289.18 728.27 289.16 728.3 289.14 728.32 289.12 728.36 289.08 728.44 289 728.45 288.99 728.5 288.94 728.55 288.88 728.6 288.82 728.65 288.76 728.69 288.72 728.73 288.68 728.77 288.64 728.78 288.63 728.8 288.61 728.83 288.59 728.86 288.57 728.91 288.54 728.97 288.5 729.02 288.48 729.07 288.46 729.1 288.44 729.15 288.42 729.2 288.39 729.27 288.35 729.33 288.33 729.35 288.31 729.35 288.27 729.35 288.21 729.34 288.13 729.33 288.08 729.33 288.03 729.33 287.99 729.33 287.97 729.34 287.95 729.38 287.88 729.42 287.81 729.46 287.73 729.48 287.7 729.48 287.69 729.5 287.66 729.52 287.63 729.53 287.61 729.54 287.6 729.57 287.58 729.65 287.56 729.69 287.57 729.74 287.59 729.8 287.61 729.85 287.62 729.91 287.63 729.97 287.63 730.02 287.63 730.07 287.63 730.11 287.63 730.15 287.63 730.2 287.61 730.23 287.6 730.26 287.59 730.28 287.57 730.32 287.52 730.37 287.47 730.43 287.41 730.47 287.37 730.53 287.32 730.58 287.26 730.64 287.2 730.67 287.17 730.72 287.13 730.77 287.07 730.81 287.03 730.83 287.02 730.86 287.01 730.9 287.01 731.04 287 731.12 286.98 731.22 286.97 731.34 286.95 731.42 286.94 731.5 286.92 731.54 286.93 731.61 286.94 731.7 286.94 731.83 286.95 731.93 286.95 732.02 286.97 732.12 286.98 732.2 286.98 732.29 286.97 732.41 286.95 732.55 286.93 732.65 286.92 732.68 286.92 732.8 286.9 732.85 286.9 732.93 286.89 732.96 286.88 732.99 286.88 733.04 286.87 733.16 286.86 733.23 286.79 733.32 286.68 733.36 286.63 733.38 286.63 733.39 286.63 733.4 286.62 733.44 286.61 733.49 286.59 733.54 286.57 733.59 286.54 733.64 286.52 733.68 286.51 733.73 286.48 733.79 286.44 733.87 286.39 733.93 286.35 733.99 286.31 734.03 286.29 734.05 286.28 734.06 286.26 734.09 286.24 734.2 286.15 734.31 286.06 734.37 286.01 734.44 285.96 734.59 285.83 734.74 285.72 734.87 285.62 735.03 285.49 735.15 285.4 735.25 285.32 735.37 285.22 735.47 285.15 735.62 285.04 735.66 285 735.73 284.95 735.73 284.92 735.74 284.88 735.75 284.79 735.76 284.74 735.77 284.72 735.77 284.71 735.77 284.7 735.78 284.69 735.8 284.64 735.83 284.56 735.88 284.44 735.89 284.4 735.91 284.36 735.95 284.25 735.99 284.15 736.03 284.06 736.07 283.97 736.17 283.9 736.23 283.86 736.28 283.83 736.35 283.78 736.39 283.76 736.42 283.73 736.48 283.69 736.56 283.64 736.7 283.56 736.76 283.51 736.82 283.47 736.88 283.43 736.92 283.41 736.96 283.38 737.02 283.34 737.07 283.3 737.12 283.28 737.13 283.26 737.14 283.25 737.14 283.24 737.16 283.2 737.19 283.14 737.2 283.13 737.21 283.12 737.26 283.18 737.32 283.24 737.39 283.32 737.39 283.31 737.45 283.24 737.49 283.16 737.52 283.11 737.56 283.06 737.62 283.02 737.67 282.97 737.71 282.92 737.74 282.85 737.76 282.8 737.78 282.78 737.82 282.76 737.91 282.75 737.97 282.74 738.01 282.72 738.07 282.69 738.13 282.66 738.23 282.59 738.39 282.48 738.54 282.39 738.67 282.31 738.77 282.27 738.82 282.24 738.87 282.21 738.92 282.17 738.97 282.1 739.04 281.98 739.09 281.89 739.13 281.84 739.17 281.79 739.23 281.75 739.29 281.7 739.31 281.69 739.41 281.72 739.43 281.72 739.48 281.73 739.56 281.74 739.57 281.75 739.65 281.76 739.82 281.73 740.05 281.69 740.08 281.68 740.32 281.65 740.44 281.63 740.79 281.58 741.22 281.5 741.34 281.49 741.54 281.45 741.76 281.42 741.83 281.29 741.97 281.08 742.05 280.93 742.09 280.88 742.13 280.73 742.17 280.59 Z"/>
</g></svg>