<svg xmlns="http://www.w3.org/2000/svg" version="1.2" baseProfile="tiny" stroke-linecap="round" stroke-linejoin="round" viewBox="460.23 316.32 18.8 42.28"><g xmlns="http://www.w3.org/2000/svg" id="Gares">
<path d="M 473.57 317.09 473.59 317.08 473.6 317.08 473.65 317.05 473.75 316.97 473.79 316.95 473.8 316.94 473.84 316.91 473.86 316.9 473.9 316.87 473.95 316.83 473.99 316.81 474 316.79 474.03 316.78 474.08 316.75 474.14 316.72 474.18 316.7 474.22 316.68 474.32 316.64 474.36 316.62 474.41 316.61 474.44 316.59 474.48 316.58 474.53 316.56 474.59 316.54 474.71 316.5 474.76 316.48 474.79 316.47 474.81 316.46 474.91 316.43 474.98 316.42 475.16 316.39 475.23 316.38 475.32 316.36 475.57 316.35 475.62 316.35 475.71 316.34 475.73 316.33 475.75 316.33 475.76 316.33 475.82 316.33 475.83 316.33 475.87 316.32 475.97 316.32 476.05 316.32 476.12 316.32 476.25 316.32 476.33 316.33 476.33 316.33 476.44 316.43 476.46 316.45 476.54 316.53 476.65 316.63 476.67 316.66 476.71 316.7 476.84 316.81 476.85 316.82 476.86 316.83 476.89 316.85 476.98 316.92 477.01 316.95 477.09 317.06 477.1 317.08 477.13 317.12 477.13 317.13 477.15 317.15 477.16 317.18 477.24 317.28 477.27 317.32 477.29 317.37 477.31 317.44 477.32 317.5 477.33 317.55 477.33 317.58 477.33 317.59 477.34 317.66 477.34 317.74 477.35 317.75 477.36 317.86 477.37 317.94 477.37 317.97 477.41 317.96 477.56 317.93 477.68 317.9 477.7 317.9 477.74 317.89 477.77 317.91 477.85 317.96 477.96 318.04 478.04 318.11 478.13 318.19 478.14 318.2 478.15 318.21 478.16 318.22 478.23 318.29 478.27 318.34 478.35 318.44 478.35 318.5 478.35 318.55 478.35 318.66 478.34 318.71 478.35 318.76 478.36 318.87 478.39 318.99 478.42 319.11 478.44 319.21 478.45 319.28 478.47 319.32 478.49 319.35 478.51 319.38 478.59 319.46 478.6 319.48 478.6 319.53 478.61 319.58 478.62 319.63 478.61 319.68 478.61 319.74 478.61 319.75 478.61 319.78 478.61 319.81 478.61 319.86 478.61 319.91 478.62 319.98 478.62 320 478.62 320.01 478.63 320.03 478.64 320.1 478.67 320.24 478.69 320.43 478.69 320.48 478.69 320.49 478.69 320.52 478.69 320.54 478.7 320.57 478.71 320.61 478.83 320.92 478.85 320.96 478.89 321.07 479.02 321.33 479.01 321.36 478.97 321.43 478.82 321.67 478.81 321.69 478.74 321.81 478.71 321.86 478.66 321.95 478.63 322 478.44 322.28 478.36 322.44 478.29 322.56 478.29 322.56 478.28 322.57 478.22 322.6 478.16 322.67 478.1 322.7 478.04 322.73 477.93 322.88 477.82 323.06 477.76 323.22 477.74 323.26 477.73 323.29 477.71 323.32 477.69 323.35 477.68 323.37 477.64 323.4 477.63 323.42 477.61 323.43 477.59 323.45 477.54 323.47 477.51 323.5 477.5 323.51 477.48 323.53 477.47 323.55 477.45 323.58 477.44 323.63 477.38 323.74 477.34 323.85 477.53 323.97 477.55 324.07 477.55 324.08 477.55 324.1 477.56 324.11 477.58 324.25 477.67 324.48 477.69 324.52 477.71 324.56 477.72 324.6 477.72 324.63 477.73 324.67 477.73 324.72 477.74 324.78 477.73 324.83 477.73 324.86 477.72 324.9 477.71 324.93 477.71 324.97 477.7 325 477.7 325.05 477.71 325.09 477.71 325.13 477.71 325.16 477.71 325.19 477.71 325.23 477.71 325.27 477.72 325.31 477.73 325.34 477.74 325.36 477.74 325.38 477.74 325.41 477.74 325.43 477.72 325.45 477.71 325.48 477.7 325.5 477.69 325.53 477.69 325.56 477.69 325.58 477.69 325.61 477.69 325.65 477.73 325.72 477.72 325.77 477.72 325.82 477.72 325.86 477.73 325.89 477.73 325.92 477.72 325.99 477.72 326.03 477.73 326.08 477.76 326.18 477.76 326.23 477.77 326.28 477.78 326.35 477.78 326.4 477.8 326.46 477.8 326.5 477.8 326.51 477.81 326.55 477.81 326.59 477.82 326.62 477.83 326.66 477.85 326.72 477.87 326.79 477.89 326.84 477.92 326.9 478.03 327.13 478.12 327.27 478.15 327.33 478.19 327.39 478.08 327.6 478.04 327.69 477.99 327.78 477.98 327.83 477.96 327.87 477.95 327.89 477.94 327.92 477.91 327.97 477.9 327.97 477.87 328.04 477.76 328.21 477.72 328.26 477.7 328.29 477.7 328.3 477.68 328.32 477.63 328.39 477.54 328.54 477.41 328.73 477.33 328.84 477.29 328.9 477.26 328.95 477.24 328.97 477.22 329 477.05 329.33 477 329.42 476.95 329.5 476.89 329.6 476.77 329.81 476.76 329.84 476.61 330.19 476.61 330.21 476.61 330.29 476.64 330.57 476.64 330.59 476.64 330.62 476.69 330.75 476.71 330.79 476.71 330.8 476.74 330.87 476.84 331.07 476.9 331.17 476.92 331.2 477.01 331.4 477.06 331.54 477.08 331.61 477.1 331.65 477.11 331.7 477.12 331.73 477.12 331.74 477.14 331.86 477.15 331.99 477.15 332.01 477.15 332.05 477.15 332.17 477.16 332.3 477.16 332.35 477.16 332.36 477.15 332.37 477.14 332.44 477.11 332.52 477.08 332.61 477.07 332.64 477.02 332.74 476.99 332.84 476.94 332.93 476.87 333.07 476.83 333.16 476.76 333.31 476.75 333.33 476.7 333.44 476.7 333.45 476.67 333.51 476.65 333.56 476.62 333.62 476.61 333.64 476.61 333.65 476.57 333.66 476.55 333.68 476.51 333.71 476.45 333.75 476.43 333.77 476.38 333.8 476.34 333.84 476.27 333.9 476.2 333.96 476.14 334.01 476.05 334.09 476 334.11 475.94 334.15 475.91 334.16 475.87 334.18 475.77 334.23 475.66 334.29 475.6 334.32 475.53 334.35 475.51 334.36 475.49 334.38 475.48 334.4 475.46 334.41 475.45 334.42 475.42 334.47 475.37 334.54 475.33 334.59 475.27 334.66 475.27 334.66 475.23 334.72 475.16 334.8 475.11 334.87 475.06 334.92 475 334.99 474.97 335.02 474.94 335.05 474.9 335.1 474.89 335.11 474.88 335.12 474.85 335.16 474.81 335.2 474.76 335.23 474.75 335.24 474.74 335.24 474.7 335.25 474.69 335.25 474.63 335.25 474.57 335.27 474.52 335.28 474.45 335.31 474.42 335.33 474.41 335.33 474.38 335.34 474.31 335.38 474.24 335.41 474.2 335.42 474.19 335.42 474.16 335.43 474.08 335.47 474.05 335.48 474.04 335.48 474.02 335.48 473.99 335.5 473.97 335.52 473.96 335.56 473.95 335.6 473.93 335.65 473.93 335.66 473.92 335.68 473.89 335.76 473.86 335.82 473.84 335.9 473.81 335.97 473.8 336 473.79 336.04 473.78 336.06 473.77 336.1 473.75 336.16 473.73 336.24 473.72 336.25 473.7 336.34 473.69 336.39 473.68 336.45 473.67 336.47 473.66 336.55 473.65 336.63 473.64 336.64 473.63 336.68 473.63 336.71 473.62 336.79 473.61 336.85 473.59 336.92 473.59 336.94 473.57 337.02 473.56 337.11 473.54 337.18 473.52 337.27 473.51 337.36 473.49 337.43 473.47 337.51 473.45 337.59 473.43 337.66 473.41 337.73 473.39 337.81 473.38 337.85 473.37 337.91 473.32 338.04 473.27 338.21 473.27 338.25 473.26 338.26 473.26 338.27 473.26 338.28 473.26 338.29 473.24 338.34 473.21 338.41 473.19 338.46 473.17 338.56 473.16 338.66 473.14 338.74 473.13 338.79 473.13 338.81 473.12 338.86 473.1 338.94 473.1 338.96 473.09 339.03 473.08 339.05 473.06 339.1 473.05 339.13 473.01 339.23 472.98 339.32 472.95 339.4 472.95 339.41 472.95 339.42 472.92 339.53 472.9 339.58 472.87 339.66 472.84 339.74 472.8 339.85 472.8 339.87 472.79 339.88 472.77 339.96 472.74 340.09 472.72 340.16 472.71 340.17 472.71 340.19 472.68 340.3 472.67 340.33 472.67 340.34 472.65 340.38 472.67 340.41 472.73 340.53 472.76 340.59 472.84 340.71 472.87 340.77 472.94 340.89 472.98 340.95 473.05 341.08 473.09 341.16 473.16 341.26 473.2 341.35 473.26 341.45 473.3 341.53 473.36 341.63 473.39 341.68 473.4 341.71 473.48 341.84 473.53 341.92 473.54 341.94 473.55 341.95 473.56 341.96 473.57 341.98 473.59 342 473.59 342.02 473.6 342.03 473.63 342.07 473.66 342.13 473.66 342.14 473.67 342.15 473.69 342.17 473.69 342.18 473.7 342.2 473.71 342.21 473.73 342.26 473.74 342.27 473.75 342.29 473.76 342.3 473.78 342.32 473.81 342.34 473.82 342.36 473.83 342.36 473.84 342.41 473.85 342.43 473.86 342.48 473.86 342.49 473.87 342.5 473.88 342.53 473.9 342.56 473.93 342.61 473.93 342.63 473.94 342.65 473.98 342.74 474 342.81 474.02 342.85 474.03 342.87 474.04 342.9 474.05 342.98 474.05 342.99 474.05 343.01 474.05 343.04 474.06 343.07 474.06 343.09 474.07 343.11 474.07 343.12 474.07 343.13 474.07 343.14 474.09 343.21 474.11 343.3 474.11 343.32 474.11 343.34 474.12 343.35 474.12 343.38 474.12 343.41 474.14 343.49 474.14 343.52 474.15 343.53 474.16 343.59 474.16 343.62 474.18 343.74 474.19 343.78 474.19 343.8 474.2 343.82 474.21 343.94 474.22 344.04 474.22 344.12 474.22 344.15 474.24 344.24 474.26 344.35 474.27 344.42 474.27 344.44 474.28 344.45 474.29 344.5 474.31 344.57 474.31 344.59 474.33 344.76 474.34 344.78 474.37 344.99 474.39 345.18 474.39 345.19 474.41 345.27 474.44 345.41 474.45 345.45 474.5 345.58 474.54 345.65 474.6 345.81 474.61 345.83 474.71 346.08 474.79 346.28 474.83 346.39 474.83 346.4 474.84 346.43 474.84 346.45 474.87 346.53 474.87 346.58 474.88 346.6 474.88 346.6 474.9 346.66 474.9 346.7 474.9 346.73 474.89 346.77 474.89 346.79 474.88 346.81 474.86 346.99 474.85 347.03 474.84 347.09 474.82 347.14 474.8 347.19 474.76 347.26 474.74 347.29 474.74 347.3 474.68 347.42 474.67 347.44 474.66 347.53 474.65 347.66 474.64 347.68 474.63 347.82 474.63 347.84 474.66 347.95 474.76 348.26 474.82 348.47 474.83 348.48 474.84 348.54 474.84 348.58 474.85 348.59 474.85 348.6 474.87 348.7 474.89 348.86 474.93 349.09 474.96 349.25 475.05 349.48 475.11 349.64 475.11 349.65 475.13 349.68 475.18 349.86 475.22 349.99 475.23 350.01 475.26 350.03 475.5 350.1 475.65 350.14 475.71 350.16 475.7 350.24 475.69 350.36 475.69 350.37 475.68 350.53 475.66 350.73 475.65 350.81 475.58 351.04 475.53 351.2 475.52 351.23 475.49 351.32 475.46 351.39 475.41 351.57 475.36 351.78 475.31 351.96 475.27 352.12 475.22 352.28 475.19 352.41 475.14 352.53 475.12 352.58 475.09 352.66 475.02 352.81 475 352.86 474.99 352.87 474.97 352.99 474.95 353.06 474.94 353.1 474.94 353.12 474.93 353.14 474.9 353.28 474.82 353.61 474.82 353.82 474.82 353.85 474.81 353.92 474.79 354.08 474.79 354.14 474.78 354.16 474.75 354.37 474.75 354.38 474.74 354.39 474.73 354.53 474.72 354.69 474.72 354.71 474.71 354.8 474.7 354.87 474.7 354.88 474.69 354.99 474.67 355.03 474.49 355.27 474.3 355.55 474.3 355.56 474.18 355.59 473.95 355.66 473.74 355.72 473.64 355.75 473.54 355.85 473.36 355.93 473.28 355.97 473.2 356.07 473.12 356.16 473.11 356.17 473.11 356.22 473.1 356.34 473.09 356.4 473.08 356.43 473.05 356.51 472.99 356.65 472.92 356.79 472.89 356.86 472.88 356.88 472.88 356.89 472.84 356.95 472.83 356.98 472.81 357.04 472.81 357.05 472.79 357.09 472.75 357.21 472.71 357.31 472.66 357.42 472.63 357.5 472.63 357.51 472.62 357.53 472.57 357.64 472.57 357.67 472.55 357.72 472.54 357.73 472.51 357.82 472.51 357.85 472.47 357.94 472.47 357.96 472.47 357.97 472.44 358.05 472.42 358.15 472.4 358.25 472.38 358.35 472.37 358.36 472.37 358.38 472.35 358.46 472.34 358.55 472.25 358.56 472.12 358.57 471.77 358.56 471.61 358.56 471.43 358.57 471.29 358.57 471.21 358.56 471.18 358.55 471.1 358.53 471.06 358.51 470.96 358.46 470.72 358.34 470.49 358.28 470.22 358.21 470.06 358.16 469.81 358.09 469.57 357.99 469.54 357.98 469.53 357.98 469.51 357.97 469.45 357.95 469.32 357.91 469.16 357.96 468.96 358.03 468.7 358.11 468.5 358.18 468.37 358.22 468.35 358.23 468.27 358.26 468.16 358.31 467.93 358.29 467.78 358.3 467.72 358.3 467.63 358.3 467.62 358.3 467.61 358.3 467.39 358.24 467.15 358.16 466.89 358.08 466.68 358.01 466.66 358 466.54 357.99 466.37 357.97 466.35 357.86 466.35 357.85 466.35 357.81 466.35 357.78 466.34 357.77 466.33 357.69 466.35 357.64 466.37 357.57 466.25 357.59 466.21 357.59 466.19 357.6 466.17 357.6 466.14 357.61 466.07 357.62 466.06 357.62 466 357.63 465.98 357.64 465.91 357.65 465.85 357.65 465.78 357.65 465.54 357.63 465.38 357.61 465.23 357.6 465.2 357.6 465.1 357.59 465.09 357.56 465.06 357.5 465.04 357.44 465.02 357.37 464.99 357.29 464.97 357.23 464.94 357.15 464.91 357.09 464.88 357.02 464.85 356.96 464.77 356.83 464.73 356.77 464.65 356.69 464.58 356.63 464.47 356.54 464.37 356.45 464.27 356.38 464.17 356.29 464.08 356.2 464.01 356.15 463.96 356.11 463.9 356.06 463.86 356.03 463.81 356 463.75 355.97 463.68 355.94 463.63 355.92 463.55 355.89 463.48 355.87 463.42 355.85 463.37 355.81 463.32 355.76 463.28 355.71 463.24 355.64 463.2 355.56 463.17 355.51 463.14 355.43 463.12 355.27 463.08 355.16 463.03 355.03 462.97 354.89 462.93 354.76 462.88 354.63 462.84 354.5 462.81 354.38 462.79 354.23 462.78 354.12 462.76 354.02 462.75 353.92 462.73 353.8 462.72 353.7 462.7 353.59 462.69 353.45 462.67 353.33 462.66 353.17 462.64 353.04 462.62 352.97 462.6 352.89 462.55 352.81 462.52 352.78 462.47 352.72 462.42 352.68 462.38 352.64 462.31 352.58 462.23 352.5 462.17 352.45 462.11 352.4 462.06 352.36 462.02 352.31 461.93 352.19 461.88 352.15 461.84 352.09 461.78 352.05 461.69 351.98 461.61 351.92 461.55 351.87 461.46 351.79 461.39 351.72 461.34 351.67 461.31 351.63 461.25 351.57 461.2 351.52 461.17 351.49 461.12 351.46 461.08 351.43 461.03 351.41 460.98 351.4 460.94 351.39 460.87 351.36 460.81 351.33 460.75 351.31 460.69 351.27 460.64 351.23 460.6 351.18 460.54 351.13 460.49 351.09 460.44 351.05 460.38 350.99 460.34 350.94 460.31 350.91 460.29 350.88 460.27 350.82 460.25 350.73 460.24 350.67 460.25 350.6 460.26 350.54 460.26 350.51 460.29 350.46 460.35 350.41 460.4 350.37 460.45 350.34 460.49 350.3 460.56 350.25 460.6 350.21 460.65 350.15 460.7 350.1 460.72 350.06 460.77 350.01 460.83 349.95 460.88 349.9 460.94 349.86 461.01 349.84 461.04 349.84 461.13 349.88 461.24 349.92 461.32 349.96 461.41 350.02 461.53 350.07 461.58 350.09 461.67 350.14 461.76 350.19 461.86 350.24 461.94 350.28 462.03 350.31 462.15 350.37 462.26 350.42 462.37 350.47 462.48 350.48 462.62 350.5 462.73 350.5 462.81 350.49 462.89 350.49 462.96 350.46 463.05 350.43 463.15 350.38 463.23 350.34 463.28 350.3 463.32 350.27 463.4 350.21 463.45 350.15 463.51 350.09 463.55 350.04 463.58 349.98 463.64 349.9 463.62 349.87 463.61 349.85 463.57 349.78 463.57 349.77 463.54 349.74 463.51 349.72 463.46 349.68 463.42 349.64 463.38 349.61 463.36 349.57 463.33 349.52 463.32 349.47 463.29 349.43 463.25 349.38 463.21 349.32 463.18 349.26 463.16 349.23 463.13 349.17 463.12 349.16 463.11 349.13 463.07 349.08 463.04 349.04 463.02 349 463.02 348.97 463.01 348.94 463 348.89 462.99 348.87 462.98 348.85 462.95 348.81 462.95 348.8 462.94 348.79 462.93 348.77 462.91 348.71 462.9 348.65 462.89 348.59 462.88 348.51 462.88 348.5 462.87 348.46 462.87 348.44 462.86 348.43 462.86 348.42 462.85 348.38 462.82 348.34 462.8 348.29 462.8 348.28 462.77 348.22 462.76 348.18 462.75 348.13 462.72 348.07 462.7 347.99 462.69 347.95 462.68 347.92 462.66 347.85 462.64 347.78 462.61 347.73 462.61 347.71 462.57 347.65 462.55 347.6 462.51 347.54 462.47 347.49 462.47 347.48 462.46 347.47 462.46 347.46 462.43 347.39 462.42 347.36 462.42 347.34 462.41 347.31 462.37 347.24 462.33 347.2 462.29 347.15 462.19 347.03 462.19 347.01 462.19 347 462.21 346.96 462.21 346.96 462.22 346.93 462.23 346.9 462.25 346.88 462.26 346.85 462.29 346.8 462.31 346.76 462.35 346.72 462.37 346.66 462.41 346.55 462.41 346.53 462.41 346.52 462.44 346.44 462.46 346.36 462.47 346.36 462.47 346.35 462.5 346.25 462.5 346.24 462.51 346.22 462.53 346.17 462.55 346.09 462.59 345.97 462.63 345.82 462.63 345.82 462.63 345.8 462.63 345.79 462.6 345.68 462.57 345.58 462.57 345.57 462.56 345.55 462.54 345.5 462.51 345.42 462.47 345.33 462.47 345.3 462.5 345.25 462.52 345.22 462.56 345.17 462.57 345.16 462.58 345.15 462.59 345.14 462.6 345.12 462.68 345.04 462.75 344.94 462.76 344.93 462.84 344.84 462.95 344.71 462.98 344.66 463.04 344.59 463.05 344.58 463.09 344.53 463.18 344.42 463.25 344.35 463.3 344.3 463.31 344.29 463.38 344.21 463.44 344.15 463.45 344.13 463.47 344.11 463.49 344.08 463.56 344 463.64 343.93 463.68 343.89 463.7 343.88 463.7 343.87 463.72 343.85 463.73 343.84 463.74 343.83 463.77 343.81 463.83 343.75 463.87 343.72 463.88 343.71 463.91 343.69 463.92 343.68 463.97 343.64 464 343.6 464.05 343.56 464.09 343.54 464.11 343.52 464.14 343.49 464.18 343.46 464.24 343.41 464.26 343.39 464.28 343.38 464.32 343.34 464.35 343.31 464.38 343.29 464.42 343.26 464.46 343.23 464.51 343.2 464.56 343.17 464.6 343.14 464.66 343.1 464.67 343.09 464.71 343.07 464.72 343.06 464.73 343.05 464.78 343.04 464.83 343.04 464.87 343.04 464.92 343.04 464.93 343 464.94 342.97 464.97 342.89 465 342.81 465.03 342.75 465.08 342.65 465.08 342.64 465.09 342.62 465.11 342.59 465.13 342.55 465.16 342.48 465.21 342.39 465.28 342.25 465.29 342.23 465.29 342.21 465.31 342.18 465.33 342.14 465.33 342.13 465.34 342.11 465.37 342.07 465.41 342.02 465.44 341.98 465.47 341.93 465.51 341.87 465.52 341.86 465.52 341.85 465.53 341.83 465.56 341.8 465.6 341.73 465.61 341.71 465.62 341.69 465.68 341.62 465.69 341.61 465.69 341.6 465.71 341.58 465.77 341.49 465.78 341.48 465.79 341.47 465.81 341.45 465.86 341.43 465.9 341.41 465.92 341.41 465.97 341.4 466.08 341.37 466.04 341.34 465.97 341.27 465.92 341.24 465.83 341.2 465.72 341.16 465.61 341.13 465.51 341.09 465.45 341.07 465.39 341.04 465.35 340.98 465.32 340.89 465.3 340.84 465.29 340.79 465.28 340.72 465.28 340.66 465.27 340.55 465.28 340.45 465.3 340.37 465.31 340.3 465.32 340.26 465.34 340.2 465.35 340.15 465.39 340.05 465.42 339.98 465.47 339.92 465.49 339.88 465.52 339.84 465.54 339.8 465.57 339.77 465.6 339.74 465.65 339.69 465.7 339.65 465.74 339.61 465.78 339.58 465.82 339.54 465.87 339.5 465.9 339.47 465.94 339.44 465.98 339.4 466.04 339.37 466.09 339.34 466.15 339.31 466.23 339.28 466.32 339.25 466.39 339.22 466.46 339.19 466.54 339.15 466.62 339.13 466.69 339.09 466.76 339.05 466.84 339.01 466.95 338.97 467.07 338.94 467.16 338.92 467.25 338.91 467.36 338.89 467.43 338.87 467.51 338.86 467.61 338.83 467.7 338.8 467.86 338.73 467.95 338.66 468.02 338.62 468.1 338.57 468.17 338.52 468.26 338.47 468.32 338.44 468.36 338.41 468.4 338.34 468.43 338.26 468.43 338.18 468.44 338.09 468.43 337.97 468.42 337.88 468.43 337.82 468.45 337.75 468.47 337.7 468.48 337.64 468.49 337.54 468.48 337.43 468.47 337.31 468.45 337.22 468.43 337.13 468.41 337.05 468.38 336.98 468.36 336.88 468.32 336.8 468.3 336.73 468.27 336.66 468.23 336.57 468.21 336.5 468.19 336.43 468.16 336.36 468.13 336.3 468.1 336.24 468.07 336.17 468.04 336.11 468.02 336.06 468.01 336.01 468 335.95 468.01 335.9 468.01 335.86 468.02 335.82 468.02 335.75 468.02 335.7 468.02 335.67 468.01 335.62 467.98 335.54 467.95 335.47 467.91 335.36 467.82 335.21 467.77 335.13 467.7 335.05 467.63 334.98 467.55 334.92 467.46 334.85 467.39 334.79 467.31 334.74 467.22 334.68 467.15 334.63 467.09 334.61 467.04 334.57 466.93 334.51 466.85 334.46 466.77 334.44 466.7 334.42 466.64 334.41 466.55 334.4 466.49 334.41 466.42 334.41 466.39 334.41 466.36 334.41 466.29 334.4 466.21 334.39 466.14 334.38 466.08 334.36 466.03 334.36 465.97 334.37 465.91 334.38 465.84 334.39 465.78 334.41 465.72 334.43 465.67 334.44 465.61 334.46 465.56 334.47 465.5 334.48 465.4 334.51 465.32 334.52 465.24 334.54 465.15 334.54 465.07 334.54 464.95 334.55 464.86 334.55 464.77 334.53 464.69 334.54 464.62 334.54 464.57 334.57 464.51 334.61 464.48 334.66 464.45 334.72 464.42 334.78 464.37 334.85 464.33 334.86 464.27 334.9 464.21 334.93 464.12 334.96 464.05 334.97 463.98 334.98 463.9 334.98 463.83 334.96 463.75 334.92 463.56 334.86 463.49 334.84 463.43 334.83 463.39 334.82 463.35 334.81 463.29 334.8 463.22 334.79 463.15 334.77 463.07 334.74 463.01 334.72 462.93 334.69 462.86 334.67 462.79 334.64 462.71 334.59 462.64 334.54 462.57 334.49 462.51 334.44 462.46 334.39 462.41 334.34 462.37 334.29 462.32 334.25 462.3 334.2 462.26 334.15 462.23 334.11 462.2 334.06 462.17 334.02 462.15 333.98 462.13 333.93 462.11 333.89 462.09 333.83 462.08 333.78 462.08 333.69 462.09 333.59 462.09 333.5 462.11 333.41 462.12 333.31 462.16 333.24 462.2 333.17 462.26 333.1 462.31 333.04 462.38 332.97 462.47 332.9 462.52 332.85 462.59 332.79 462.66 332.73 462.73 332.68 462.82 332.62 462.9 332.57 462.97 332.52 463.05 332.48 463.1 332.45 463.17 332.41 463.25 332.36 463.3 332.34 463.34 332.32 463.4 332.29 463.48 332.26 463.54 332.23 463.6 332.2 463.65 332.17 463.7 332.12 463.75 332.07 463.82 332.01 463.87 331.94 463.93 331.87 463.98 331.79 464.04 331.7 464.1 331.63 464.16 331.57 464.19 331.51 464.22 331.43 464.25 331.34 464.27 331.25 464.28 331.19 464.29 331.13 464.29 331.09 464.28 331.05 464.28 330.97 464.28 330.93 464.27 330.86 464.26 330.76 464.25 330.67 464.22 330.59 464.19 330.51 464.17 330.45 464.13 330.38 464.08 330.32 464.02 330.26 463.96 330.21 463.9 330.16 463.83 330.12 463.73 330.07 463.64 330.02 463.57 330 463.5 329.98 463.42 329.96 463.37 329.94 463.31 329.91 463.25 329.88 463.2 329.86 463.16 329.84 463.09 329.81 463.02 329.79 462.95 329.78 462.92 329.79 462.87 329.81 462.84 329.82 462.8 329.84 462.75 329.86 462.71 329.86 462.66 329.85 462.62 329.85 462.59 329.83 462.57 329.8 462.55 329.79 462.53 329.76 462.51 329.73 462.49 329.7 462.47 329.67 462.45 329.64 462.44 329.59 462.42 329.55 462.39 329.47 462.36 329.41 462.34 329.36 462.33 329.32 462.31 329.25 462.29 329.2 462.28 329.13 462.27 329.08 462.26 329.02 462.25 328.98 462.24 328.92 462.24 328.87 462.23 328.81 462.23 328.76 462.23 328.71 462.23 328.66 462.24 328.62 462.25 328.57 462.26 328.54 462.27 328.5 462.27 328.46 462.29 328.42 462.3 328.39 462.31 328.36 462.33 328.34 462.35 328.3 462.38 328.27 462.4 328.23 462.42 328.2 462.45 328.17 462.47 328.13 462.5 328.09 462.53 328.07 462.56 328.04 462.59 328 462.61 327.97 462.64 327.93 462.66 327.89 462.69 327.83 462.72 327.75 462.74 327.68 462.77 327.61 462.78 327.58 462.81 327.49 462.83 327.39 462.86 327.33 462.88 327.25 462.9 327.2 462.92 327.13 462.96 327.04 462.99 326.95 463 326.9 463.01 326.85 463.03 326.79 463.03 326.77 463.03 326.73 463.03 326.69 463.02 326.64 463.01 326.62 463.01 326.6 462.99 326.58 462.97 326.53 462.94 326.48 462.91 326.45 462.87 326.41 462.87 326.4 462.84 326.36 462.8 326.32 462.76 326.27 462.72 326.23 462.68 326.18 462.64 326.15 462.59 326.11 462.54 326.08 462.49 326.04 462.44 326.02 462.38 325.97 462.32 325.93 462.28 325.88 462.22 325.83 462.16 325.78 462.11 325.74 462.06 325.69 462.01 325.65 461.94 325.58 461.9 325.53 461.86 325.5 461.84 325.47 461.79 325.4 461.77 325.37 461.75 325.35 461.71 325.3 461.66 325.24 461.61 325.17 461.57 325.11 461.54 325.05 461.5 324.98 461.45 324.91 461.42 324.84 461.4 324.78 461.34 324.68 461.32 324.62 461.3 324.59 461.28 324.53 461.26 324.49 461.25 324.45 461.23 324.4 461.21 324.32 461.2 324.28 461.19 324.22 461.18 324.19 461.19 324.13 461.19 324.06 461.2 324 461.21 323.95 461.24 323.88 461.29 323.8 461.3 323.78 461.35 323.73 461.4 323.64 461.44 323.59 461.5 323.5 461.56 323.39 461.6 323.35 461.65 323.29 461.71 323.23 461.77 323.17 461.82 323.11 461.85 323.06 461.87 323.04 461.9 323 461.93 322.95 461.95 322.89 461.96 322.85 461.98 322.78 462.01 322.7 462.02 322.65 462.04 322.59 462.08 322.46 462.09 322.41 462.11 322.35 462.11 322.32 462.12 322.27 462.12 322.22 462.11 322.17 462.1 322.12 462.08 322.05 462.06 321.99 462.03 321.93 462.01 321.87 461.98 321.81 461.95 321.75 461.92 321.68 461.91 321.62 461.89 321.55 461.87 321.46 461.85 321.41 461.84 321.37 461.81 321.33 461.79 321.29 461.75 321.25 461.7 321.2 461.66 321.15 461.62 321.11 461.59 321.06 461.57 321.04 461.54 321 461.51 320.95 461.5 320.92 461.49 320.87 461.47 320.79 461.46 320.72 461.45 320.66 461.45 320.58 461.45 320.52 461.45 320.46 461.45 320.41 461.44 320.35 461.44 320.3 461.44 320.24 461.44 320.2 461.45 320.15 461.45 320.1 461.46 320.05 461.46 320.03 461.47 320 461.48 319.97 461.5 319.94 461.52 319.89 461.54 319.86 461.57 319.82 461.59 319.77 461.62 319.71 461.64 319.65 461.65 319.63 461.67 319.56 461.69 319.52 461.69 319.48 461.69 319.45 461.68 319.4 461.67 319.35 461.65 319.31 461.64 319.27 461.63 319.23 461.62 319.18 461.63 319.14 461.64 319.1 461.65 319.07 461.67 319.05 461.68 319.03 461.72 318.98 461.8 318.92 461.86 318.86 462.02 318.74 462.13 318.66 462.16 318.64 462.18 318.63 462.29 318.55 462.37 318.51 462.45 318.47 462.58 318.41 462.74 318.34 462.85 318.3 462.99 318.25 463.05 318.22 463.16 318.18 463.17 318.17 463.22 318.14 463.26 318.12 463.31 318.09 463.35 318.06 463.37 318.04 463.4 318.01 463.42 317.98 463.44 317.94 463.45 317.9 463.48 317.86 463.49 317.82 463.49 317.81 463.5 317.77 463.58 317.77 463.62 317.77 463.66 317.77 463.72 317.77 463.75 317.76 463.78 317.76 463.85 317.75 463.94 317.74 463.99 317.74 464.02 317.74 464.02 317.74 464.08 317.75 464.18 317.75 464.24 317.76 464.29 317.77 464.36 317.82 464.45 317.9 464.53 317.97 464.6 318.03 464.66 318.09 464.75 318.17 464.76 318.18 464.85 318.25 464.93 318.32 465.03 318.41 465.08 318.44 465.09 318.55 465.12 318.69 465.15 318.84 465.16 318.94 465.17 318.98 465.17 319.01 465.17 319.02 465.17 319.03 465.17 319.04 465.15 319.12 465.14 319.22 465.12 319.36 465.1 319.44 465.19 319.43 465.23 319.43 465.28 319.42 465.34 319.42 465.38 319.41 465.43 319.41 465.45 319.41 465.52 319.45 465.58 319.48 465.64 319.5 465.71 319.53 465.79 319.57 465.83 319.58 465.87 319.59 465.93 319.58 466.01 319.56 466.1 319.56 466.13 319.56 466.17 319.55 466.22 319.53 466.27 319.51 466.31 319.48 466.34 319.47 466.39 319.43 466.44 319.39 466.5 319.33 466.55 319.29 466.61 319.22 466.68 319.16 466.73 319.11 466.8 319.05 466.84 319.02 466.89 319 466.94 318.97 467.02 318.93 467.06 318.9 467.11 318.87 467.14 318.8 467.16 318.78 467.18 318.75 467.21 318.7 467.27 318.66 467.3 318.64 467.4 318.57 467.46 318.53 467.5 318.5 467.55 318.46 467.57 318.44 467.61 318.39 467.66 318.34 467.71 318.28 467.75 318.23 467.77 318.22 467.82 318.18 467.91 318.11 467.96 318.08 468.01 318.06 468.08 318.02 468.18 317.96 468.28 317.9 468.37 317.86 468.5 317.77 468.61 317.72 468.73 317.64 468.86 317.55 468.91 317.51 469.04 317.43 469.1 317.39 469.23 317.3 469.27 317.26 469.32 317.24 469.47 317.28 469.56 317.31 469.67 317.32 469.81 317.35 469.87 317.36 470.01 317.41 470.06 317.42 470.17 317.46 470.25 317.48 470.34 317.5 470.43 317.51 470.48 317.52 470.57 317.55 470.64 317.57 470.68 317.59 470.74 317.62 470.78 317.65 470.83 317.67 470.87 317.69 470.93 317.7 470.98 317.72 471.04 317.72 471.05 317.73 471.11 317.73 471.16 317.74 471.17 317.74 471.2 317.74 471.26 317.75 471.32 317.76 471.38 317.77 471.42 317.77 471.44 317.78 471.5 317.79 471.57 317.79 471.64 317.8 471.67 317.8 471.69 317.8 471.72 317.8 471.78 317.81 471.85 317.81 471.91 317.82 471.94 317.81 471.98 317.81 472.01 317.8 472.06 317.8 472.11 317.78 472.13 317.78 472.16 317.77 472.19 317.75 472.22 317.74 472.26 317.72 472.29 317.69 472.35 317.67 472.41 317.64 472.43 317.62 472.47 317.6 472.56 317.55 472.6 317.52 472.65 317.48 472.67 317.47 472.69 317.47 472.72 317.45 472.78 317.42 472.86 317.38 472.9 317.36 472.95 317.34 472.99 317.32 473.09 317.27 473.15 317.24 473.19 317.23 473.28 317.2 473.35 317.17 473.37 317.17 473.39 317.16 473.48 317.13 473.57 317.09 Z"/>
</g></svg>