<svg xmlns="http://www.w3.org/2000/svg" version="1.2" baseProfile="tiny" stroke-linecap="round" stroke-linejoin="round" viewBox="502.1 369.82 25.95 10.43"><g xmlns="http://www.w3.org/2000/svg" id="Garinoain">
<path d="M 523.27 369.82 523.28 369.83 523.29 369.84 523.3 369.85 523.32 369.86 523.32 369.86 523.34 369.87 523.35 369.88 523.39 369.9 523.4 369.91 523.41 369.91 523.42 369.92 523.44 369.93 523.45 369.94 523.46 369.94 523.47 369.95 523.49 369.96 523.51 369.97 523.52 369.98 523.54 369.99 523.55 370 523.57 370.01 523.58 370.02 523.59 370.03 523.61 370.04 523.62 370.04 523.63 370.05 523.64 370.06 523.65 370.07 523.66 370.08 523.67 370.09 523.69 370.1 523.7 370.11 523.7 370.12 523.73 370.15 523.74 370.16 523.75 370.17 523.76 370.18 523.77 370.19 523.78 370.2 523.8 370.22 523.81 370.23 523.82 370.24 523.83 370.25 523.84 370.26 523.86 370.27 523.87 370.28 523.88 370.3 523.89 370.31 523.9 370.32 523.91 370.34 523.93 370.35 523.94 370.36 523.95 370.37 523.96 370.39 523.97 370.4 523.98 370.41 523.99 370.41 524 370.43 524.01 370.44 524.06 370.5 524.07 370.51 524.08 370.52 524.1 370.54 524.11 370.55 524.12 370.56 524.13 370.57 524.16 370.6 524.17 370.61 524.18 370.62 524.2 370.64 524.21 370.65 524.22 370.66 524.23 370.67 524.24 370.69 524.25 370.69 524.34 370.76 524.34 370.77 524.35 370.78 524.37 370.8 524.38 370.81 524.38 370.83 524.4 370.84 524.41 370.86 524.42 370.87 524.43 370.87 524.44 370.89 524.45 370.9 524.46 370.92 524.46 370.92 524.47 370.94 524.49 370.95 524.5 370.97 524.51 370.99 524.52 371 524.54 371.02 524.55 371.04 524.57 371.07 524.58 371.08 524.59 371.09 524.6 371.11 524.61 371.12 524.62 371.13 524.64 371.15 524.65 371.16 524.67 371.18 524.68 371.19 524.69 371.2 524.7 371.2 524.73 371.22 524.74 371.23 524.76 371.25 524.78 371.26 524.8 371.27 524.81 371.28 524.82 371.28 524.83 371.29 524.85 371.3 524.87 371.31 524.88 371.32 524.89 371.33 524.91 371.34 524.92 371.35 524.94 371.35 524.95 371.36 524.97 371.38 524.98 371.39 525 371.39 525.03 371.4 525.04 371.41 525.06 371.42 525.08 371.43 525.09 371.44 525.11 371.45 525.13 371.46 525.15 371.46 525.16 371.48 525.18 371.49 525.2 371.5 525.23 371.51 525.24 371.52 525.25 371.53 525.27 371.53 525.29 371.54 525.31 371.55 525.32 371.56 525.34 371.56 525.36 371.57 525.38 371.57 525.4 371.58 525.42 371.59 525.44 371.59 525.46 371.6 525.47 371.6 525.5 371.61 525.51 371.61 525.53 371.62 525.55 371.62 525.57 371.63 525.58 371.63 525.6 371.64 525.6 371.64 525.61 371.64 525.63 371.64 525.65 371.65 525.66 371.65 525.67 371.66 525.69 371.66 525.71 371.67 525.72 371.67 525.74 371.68 525.75 371.68 525.77 371.69 525.79 371.69 525.8 371.7 525.83 371.71 525.85 371.71 525.86 371.72 525.88 371.72 525.89 371.73 525.91 371.74 525.92 371.74 525.93 371.75 525.95 371.75 525.97 371.76 525.99 371.76 526.02 371.78 526.06 371.79 526.08 371.8 526.1 371.8 526.11 371.81 526.13 371.82 526.15 371.82 526.16 371.83 526.18 371.85 526.2 371.85 526.22 371.86 526.23 371.87 526.25 371.88 526.27 371.89 526.29 371.9 526.3 371.91 526.32 371.92 526.33 371.93 526.35 371.93 526.37 371.94 526.38 371.94 526.4 371.94 526.41 371.95 526.42 371.95 526.43 371.96 526.45 371.97 526.46 371.97 526.48 371.98 526.49 371.98 526.49 371.99 526.5 371.99 526.53 372.01 526.54 372.02 526.57 372.05 526.58 372.06 526.6 372.08 526.61 372.08 526.62 372.1 526.63 372.1 526.64 372.11 526.65 372.13 526.66 372.14 526.67 372.15 526.68 372.16 526.69 372.18 526.7 372.19 526.72 372.2 526.73 372.22 526.73 372.22 526.74 372.24 526.75 372.25 526.77 372.27 526.78 372.28 526.78 372.29 526.79 372.3 526.8 372.31 526.82 372.33 526.83 372.34 526.83 372.35 526.84 372.36 526.85 372.38 526.86 372.39 526.88 372.41 526.89 372.42 526.9 372.44 526.91 372.45 526.93 372.47 526.94 372.48 526.95 372.5 526.96 372.51 526.97 372.52 526.97 372.53 526.98 372.54 526.99 372.56 527 372.58 527.01 372.59 527.02 372.6 527.03 372.61 527.03 372.62 527.04 372.63 527.04 372.64 527.05 372.65 527.06 372.67 527.07 372.68 527.08 372.69 527.09 372.7 527.1 372.72 527.11 372.73 527.12 372.75 527.13 372.76 527.14 372.78 527.15 372.79 527.16 372.8 527.17 372.82 527.18 372.83 527.2 372.85 527.21 372.86 527.22 372.88 527.23 372.89 527.23 372.9 527.25 372.91 527.25 372.92 527.26 372.93 527.27 372.94 527.27 372.95 527.28 372.96 527.29 372.97 527.29 372.99 527.29 373 527.3 373.01 527.3 373.02 527.3 373.04 527.3 373.06 527.3 373.09 527.3 373.1 527.3 373.12 527.3 373.13 527.3 373.15 527.3 373.16 527.29 373.17 527.29 373.19 527.29 373.2 527.29 373.21 527.29 373.22 527.28 373.23 527.28 373.25 527.28 373.26 527.28 373.27 527.28 373.28 527.27 373.3 527.27 373.31 527.27 373.32 527.27 373.34 527.26 373.36 527.25 373.37 527.25 373.38 527.25 373.4 527.26 373.41 527.26 373.42 527.26 373.44 527.27 373.46 527.27 373.48 527.28 373.49 527.28 373.5 527.29 373.52 527.29 373.53 527.3 373.56 527.3 373.58 527.31 373.6 527.31 373.61 527.32 373.62 527.32 373.64 527.33 373.66 527.33 373.67 527.34 373.68 527.34 373.7 527.35 373.72 527.36 373.73 527.36 373.74 527.37 373.76 527.38 373.77 527.39 373.78 527.4 373.8 527.41 373.82 527.42 373.83 527.42 373.85 527.44 373.86 527.45 373.88 527.45 373.89 527.46 373.9 527.47 373.92 527.48 373.93 527.49 373.95 527.5 373.98 527.52 373.99 527.52 374 527.54 374.02 527.54 374.03 527.55 374.04 527.56 374.06 527.57 374.08 527.58 374.1 527.59 374.12 527.6 374.14 527.61 374.15 527.61 374.16 527.62 374.17 527.63 374.19 527.63 374.2 527.64 374.22 527.65 374.23 527.66 374.25 527.66 374.27 527.67 374.28 527.67 374.3 527.67 374.31 527.68 374.32 527.68 374.34 527.69 374.35 527.7 374.37 527.7 374.38 527.7 374.4 527.71 374.42 527.71 374.43 527.72 374.45 527.72 374.46 527.73 374.48 527.73 374.51 527.74 374.54 527.75 374.55 527.75 374.56 527.75 374.57 527.75 374.58 527.76 374.6 527.76 374.62 527.77 374.63 527.77 374.65 527.78 374.67 527.78 374.69 527.79 374.71 527.79 374.72 527.8 374.74 527.81 374.76 527.81 374.78 527.82 374.79 527.82 374.81 527.83 374.85 527.84 374.87 527.9 375.11 527.95 375.28 528.03 375.56 528.04 375.57 528.02 375.58 528 375.59 527.98 375.6 527.97 375.61 527.96 375.62 527.94 375.63 527.89 375.66 527.87 375.67 527.85 375.69 527.83 375.7 527.83 375.7 527.81 375.72 527.8 375.72 527.79 375.73 527.77 375.74 527.76 375.75 527.75 375.75 527.72 375.77 527.7 375.79 527.69 375.8 527.68 375.81 527.66 375.82 527.65 375.83 527.63 375.84 527.6 375.85 527.58 375.87 527.57 375.87 527.55 375.88 527.53 375.89 527.52 375.89 527.51 375.9 527.49 375.91 527.48 375.91 527.46 375.92 527.45 375.93 527.44 375.94 527.43 375.95 527.42 375.96 527.41 375.97 527.39 375.96 527.37 375.95 527.35 375.95 527.33 375.94 527.32 375.94 527.31 375.94 527.28 375.93 527.26 375.93 527.25 375.93 527.24 375.92 527.22 375.92 527.21 375.91 527.2 375.9 527.19 375.9 527.18 375.9 527.17 375.9 527.16 375.9 527.15 375.91 527.14 375.92 527.14 375.93 527.12 375.97 527.11 375.98 527.1 376 527.09 376.02 527.09 376.02 527.08 376.04 527.06 376.05 527.06 376.06 527.05 376.07 527.04 376.09 527.02 376.11 527.01 376.13 527 376.14 526.99 376.15 526.98 376.17 526.97 376.18 526.97 376.19 526.96 376.2 526.95 376.21 526.93 376.23 526.93 376.24 526.91 376.26 526.9 376.28 526.89 376.29 526.88 376.3 526.87 376.32 526.86 376.33 526.85 376.35 526.83 376.36 526.82 376.35 526.8 376.34 526.79 376.33 526.77 376.32 526.76 376.31 526.73 376.29 526.68 376.26 526.65 376.24 526.62 376.22 526.6 376.22 526.6 376.21 526.58 376.2 526.57 376.19 526.55 376.18 526.52 376.16 526.51 376.15 526.5 376.15 526.49 376.14 526.47 376.13 526.46 376.12 526.44 376.11 526.42 376.09 526.4 376.09 526.39 376.08 526.37 376.07 526.36 376.06 526.35 376.05 526.33 376.04 526.31 376.03 526.29 376.02 526.28 376.01 526.26 376 526.23 375.97 526.2 375.96 526.18 375.94 526.17 375.93 526.15 375.92 526.13 375.92 526.13 375.91 526.1 375.9 526.09 375.89 526.07 375.89 526.05 375.88 526.03 375.87 526.02 375.86 526.01 375.86 525.99 375.85 525.98 375.84 525.96 375.83 525.95 375.83 525.93 375.82 525.92 375.81 525.89 375.8 525.87 375.79 525.85 375.78 525.84 375.77 525.83 375.77 525.81 375.76 525.8 375.75 525.78 375.74 525.76 375.74 525.75 375.73 525.73 375.73 525.72 375.73 525.7 375.72 525.66 375.71 525.64 375.7 525.63 375.7 525.62 375.7 525.6 375.69 525.58 375.68 525.56 375.68 525.55 375.67 525.53 375.67 525.51 375.66 525.49 375.66 525.48 375.65 525.45 375.65 525.41 375.64 525.38 375.63 525.36 375.62 525.34 375.61 525.33 375.61 525.31 375.6 525.29 375.6 525.28 375.6 525.27 375.59 525.25 375.59 525.24 375.59 525.22 375.58 525.19 375.57 525.17 375.57 525.16 375.56 525.14 375.56 525.12 375.55 525.1 375.55 525.08 375.54 525.06 375.54 525.04 375.54 525.02 375.53 525 375.53 524.99 375.52 524.97 375.51 524.96 375.51 524.94 375.51 524.92 375.51 524.89 375.5 524.88 375.5 524.87 375.49 524.85 375.49 524.84 375.49 524.82 375.48 524.81 375.48 524.79 375.47 524.78 375.47 524.76 375.47 524.74 375.47 524.73 375.47 524.71 375.46 524.7 375.46 524.68 375.46 524.66 375.46 524.64 375.46 524.63 375.45 524.61 375.45 524.58 375.44 524.57 375.43 524.56 375.43 524.54 375.42 524.52 375.41 524.51 375.4 524.49 375.39 524.48 375.39 524.47 375.38 524.45 375.37 524.42 375.35 524.41 375.34 524.39 375.33 524.38 375.33 524.37 375.32 524.35 375.31 524.34 375.3 524.32 375.29 524.31 375.28 524.29 375.27 524.28 375.26 524.26 375.26 524.25 375.24 524.24 375.23 524.22 375.23 524.21 375.22 524.2 375.21 524.18 375.2 524.17 375.19 524.15 375.18 524.14 375.17 524.12 375.17 524.11 375.16 524.09 375.16 524.08 375.15 524.06 375.14 524.03 375.12 524.01 375.11 524 375.1 523.98 375.1 523.97 375.09 523.95 375.09 523.93 375.08 523.91 375.08 523.89 375.08 523.87 375.09 523.86 375.09 523.85 375.09 523.83 375.09 523.82 375.09 523.81 375.09 523.79 375.09 523.78 375.08 523.77 375.08 523.75 375.07 523.74 375.06 523.72 375.05 523.71 375.05 523.69 375.04 523.67 375.04 523.66 375.04 523.64 375.04 523.64 375.03 523.62 375.03 523.61 375.02 523.59 375.02 523.57 375.01 523.56 375.01 523.55 375.01 523.53 375 523.51 375 523.49 374.99 523.48 374.99 523.46 374.99 523.45 374.98 523.43 374.98 523.41 374.98 523.39 374.97 523.38 374.97 523.36 374.96 523.35 374.96 523.31 374.95 523.29 374.94 523.28 374.94 523.26 374.93 523.23 374.93 523.22 374.92 523.2 374.91 523.18 374.91 523.18 374.91 523.16 374.91 523.14 374.91 523.13 374.91 523.11 374.9 523.1 374.9 523.09 374.9 523.07 374.89 523.05 374.88 523.04 374.87 523.02 374.87 523 374.86 522.99 374.85 522.98 374.85 522.96 374.84 522.95 374.83 522.93 374.83 522.92 374.82 522.91 374.82 522.89 374.82 522.87 374.82 522.85 374.82 522.84 374.82 522.82 374.81 522.81 374.8 522.79 374.8 522.77 374.8 522.76 374.79 522.74 374.79 522.72 374.78 522.71 374.78 522.68 374.77 522.67 374.77 522.65 374.77 522.64 374.77 522.63 374.75 522.62 374.75 522.61 374.74 522.6 374.74 522.59 374.74 522.58 374.73 522.56 374.73 522.53 374.72 522.51 374.72 522.5 374.72 522.49 374.73 522.47 374.73 522.45 374.74 522.44 374.74 522.43 374.74 522.41 374.74 522.39 374.74 522.37 374.74 522.35 374.74 522.33 374.74 522.32 374.74 522.3 374.74 522.29 374.74 522.27 374.74 522.26 374.74 522.25 374.74 522.21 374.73 522.17 374.72 522.15 374.72 522.13 374.72 522.12 374.71 522.1 374.71 522.08 374.71 522.06 374.7 522.05 374.7 522.03 374.7 522.02 374.7 522.01 374.7 521.99 374.69 521.97 374.69 521.95 374.69 521.93 374.68 521.92 374.68 521.9 374.68 521.88 374.68 521.86 374.69 521.84 374.69 521.82 374.69 521.81 374.69 521.8 374.69 521.79 374.68 521.77 374.68 521.75 374.68 521.74 374.67 521.72 374.66 521.71 374.66 521.7 374.65 521.68 374.64 521.66 374.64 521.64 374.63 521.63 374.63 521.62 374.63 521.61 374.63 521.59 374.63 521.57 374.62 521.56 374.62 521.53 374.62 521.51 374.61 521.5 374.61 521.49 374.61 521.47 374.6 521.46 374.6 521.44 374.59 521.43 374.59 521.41 374.59 521.39 374.58 521.38 374.58 521.37 374.58 521.35 374.59 521.34 374.59 521.32 374.59 521.3 374.59 521.28 374.6 521.26 374.6 521.25 374.6 521.23 374.61 521.22 374.61 521.2 374.62 521.19 374.63 521.18 374.63 521.17 374.65 521.16 374.68 521.15 374.69 521.13 374.7 521.12 374.7 521.11 374.7 521.09 374.71 521.08 374.71 521.06 374.72 521.04 374.72 521.02 374.73 521.01 374.73 520.99 374.74 520.97 374.74 520.96 374.75 520.94 374.75 520.92 374.76 520.9 374.76 520.89 374.77 520.87 374.77 520.86 374.78 520.84 374.78 520.81 374.8 520.8 374.8 520.76 374.81 520.7 374.84 520.69 374.84 520.68 374.85 520.65 374.85 520.6 374.88 520.54 374.9 520.49 374.92 520.42 374.94 520.41 374.95 520.38 374.96 520.35 374.97 520.35 374.97 520.33 374.98 520.31 374.98 520.29 374.98 520.26 374.99 520.24 374.99 520.23 375 520.21 375 520.19 375 520.17 375 520.14 375.01 520.12 375.01 520.11 375.01 520.07 375.02 520.05 375.02 520 375.03 519.98 375.03 519.96 375.03 519.94 375.03 519.92 375.04 519.89 375.04 519.87 375.04 519.85 375.05 519.84 375.05 519.83 375.05 519.8 375.05 519.79 375.06 519.78 375.07 519.77 375.08 519.76 375.08 519.74 375.09 519.72 375.1 519.71 375.1 519.7 375.11 519.7 375.12 519.69 375.14 519.68 375.17 519.67 375.18 519.66 375.22 519.66 375.24 519.65 375.27 519.65 375.28 519.65 375.3 519.65 375.32 519.65 375.34 519.65 375.35 519.65 375.36 519.65 375.4 519.65 375.41 519.66 375.43 519.67 375.45 519.68 375.46 519.69 375.48 519.71 375.49 519.71 375.5 519.72 375.51 519.73 375.53 519.74 375.54 519.74 375.56 519.75 375.57 519.75 375.58 519.75 375.6 519.75 375.61 519.74 375.63 519.73 375.64 519.7 375.67 519.7 375.68 519.68 375.69 519.67 375.7 519.66 375.72 519.64 375.73 519.63 375.74 519.61 375.75 519.59 375.76 519.58 375.77 519.57 375.78 519.57 375.78 519.57 375.8 519.57 375.82 519.57 375.84 519.57 375.86 519.58 375.87 519.58 375.89 519.57 375.9 519.57 375.91 519.57 375.93 519.56 375.95 519.55 375.97 519.54 375.99 519.52 376 519.52 376.01 519.51 376.03 519.5 376.04 519.49 376.06 519.48 376.07 519.46 376.08 519.45 376.09 519.43 376.1 519.41 376.11 519.39 376.11 519.38 376.12 519.36 376.12 519.34 376.12 519.33 376.12 519.31 376.12 519.28 376.12 519.26 376.12 519.24 376.12 519.23 376.12 519.21 376.11 519.19 376.11 519.17 376.12 519.16 376.12 519.15 376.12 519.13 376.13 519.1 376.15 519.08 376.16 519.07 376.17 519.04 376.18 519.03 376.19 518.98 376.22 518.97 376.23 518.88 376.26 518.86 376.27 518.85 376.28 518.72 376.32 518.7 376.33 518.68 376.33 518.59 376.33 518.58 376.34 518.54 376.35 518.52 376.36 518.5 376.37 518.2 376.44 518.01 376.49 517.98 376.49 517.97 376.49 517.92 376.5 517.92 376.5 517.83 376.51 517.82 376.51 517.81 376.52 517.8 376.52 517.77 376.52 517.72 376.53 517.71 376.53 517.59 376.55 517.58 376.56 517.57 376.56 517.5 376.57 517.48 376.58 517.15 376.63 517.1 376.64 517.07 376.65 517.02 376.65 517 376.65 516.97 376.65 516.95 376.65 516.93 376.65 516.91 376.66 516.87 376.66 516.85 376.66 516.83 376.67 516.82 376.67 516.8 376.67 516.79 376.67 516.77 376.68 516.75 376.68 516.74 376.68 516.72 376.68 516.7 376.68 516.68 376.69 516.66 376.69 516.65 376.69 516.64 376.69 516.62 376.69 516.6 376.69 516.58 376.7 516.54 376.7 516.51 376.71 516.48 376.71 516.46 376.71 516.43 376.71 516.41 376.72 516.39 376.72 516.37 376.72 516.35 376.72 516.33 376.73 516.31 376.73 516.3 376.73 516.28 376.74 516.26 376.74 516.25 376.74 516.24 376.74 516.22 376.75 516.2 376.75 516.19 376.75 516.16 376.76 516.13 376.76 516.12 376.76 516.1 376.77 516.08 376.77 516.07 376.77 516.05 376.78 516.03 376.78 516.02 376.78 516 376.79 515.98 376.79 515.97 376.79 515.95 376.8 515.93 376.8 515.92 376.81 515.9 376.81 515.88 376.81 515.86 376.81 515.84 376.82 515.83 376.82 515.81 376.83 515.79 376.83 515.77 376.83 515.75 376.84 515.74 376.84 515.72 376.84 515.7 376.85 515.68 376.85 515.66 376.85 515.64 376.86 515.63 376.86 515.6 376.86 515.59 376.87 515.55 376.87 515.52 376.88 515.5 376.88 515.47 376.89 515.45 376.89 515.43 376.89 515.42 376.89 515.4 376.89 515.38 376.9 515.37 376.9 515.35 376.9 515.33 376.9 515.31 376.9 515.29 376.9 515.28 376.9 515.26 376.9 515.24 376.9 515.23 376.9 515.2 376.9 515.18 376.9 515.17 376.9 515.16 376.9 515.14 376.9 515.13 376.9 515.11 376.9 515.09 376.9 515.07 376.9 515.05 376.9 515.02 376.9 515 376.9 514.98 376.9 514.96 376.9 514.94 376.9 514.92 376.9 514.91 376.9 514.9 376.9 514.88 376.9 514.86 376.91 514.82 376.92 514.8 376.92 514.79 376.93 514.77 376.93 514.75 376.94 514.72 376.95 514.68 376.96 514.67 376.96 514.65 376.96 514.63 376.97 514.61 376.98 514.6 376.98 514.59 376.98 514.57 376.99 514.55 376.99 514.52 377 514.5 377 514.48 377.01 514.46 377.01 514.45 377.01 514.43 377.02 514.41 377.02 514.4 377.02 514.36 377.03 514.34 377.03 514.32 377.04 514.3 377.04 514.29 377.04 514.27 377.05 514.25 377.05 514.24 377.05 514.23 377.05 514.22 377.06 514.21 377.06 514.19 377.06 514.18 377.06 514.17 377.06 514.15 377.06 514.14 377.06 514.12 377.06 514.1 377.06 514.08 377.06 514.08 377.07 513.82 377.11 513.64 377.13 513.41 377.1 513.37 377.1 513.09 377.07 512.8 377.04 512.78 377.04 512.72 377.03 512.71 377.03 512.67 377.02 512.41 377.01 512.02 376.98 512.01 376.97 512 376.96 511.98 376.96 511.96 376.95 511.95 376.95 511.93 376.94 511.91 376.94 511.9 376.94 511.89 376.94 511.87 376.94 511.85 376.94 511.84 376.95 511.82 376.95 511.75 376.96 511.74 376.96 511.65 376.99 511.06 377.19 511.02 377.2 510.78 377.28 510.69 377.31 510.65 377.32 510.64 377.32 510.56 377.33 510.51 377.35 510.46 377.36 510.44 377.37 510.44 377.38 510.34 377.45 510.33 377.46 510 377.71 510 377.72 509.96 377.74 509.92 377.77 509.91 377.78 509.87 377.8 509.85 377.81 509.79 377.84 509.78 377.84 509.77 377.85 509.24 378.1 509.23 378.1 509.21 378.11 509.2 378.12 509.18 378.13 509.01 378.21 508.93 378.27 508.71 378.41 508.66 378.45 508.61 378.47 508.59 378.49 508.58 378.5 508.56 378.51 508.55 378.52 508.54 378.53 508.52 378.54 508.5 378.55 508.48 378.56 508.47 378.57 508.44 378.59 508.43 378.6 508.41 378.61 508.34 378.66 508.27 378.72 508.21 378.77 508.13 378.82 508.07 378.86 508.06 378.87 508.03 378.89 508 378.91 507.98 378.92 507.97 378.93 507.96 378.94 507.95 378.95 507.92 378.97 507.9 378.97 507.86 378.99 507.74 379.05 507.74 379.06 507.73 379.06 507.71 379.07 507.7 379.08 507.69 379.09 507.68 379.1 507.66 379.12 507.63 379.14 507.61 379.16 507.56 379.22 507.52 379.26 507.51 379.27 507.49 379.28 507.48 379.29 507.46 379.29 507.42 379.32 507.41 379.32 507.38 379.34 507.36 379.35 507.34 379.36 507.33 379.37 507.32 379.38 507.31 379.39 507.27 379.41 507.26 379.42 507.24 379.43 507.23 379.44 507.22 379.45 507.18 379.48 507.17 379.49 507.15 379.5 507.14 379.51 507.13 379.52 507.1 379.54 507.08 379.56 507.07 379.57 507.05 379.58 507.05 379.59 507.03 379.6 507.02 379.61 507 379.63 506.99 379.65 506.98 379.66 506.97 379.67 506.95 379.69 506.94 379.7 506.93 379.72 506.91 379.73 506.9 379.74 506.88 379.76 506.86 379.78 506.85 379.79 506.84 379.8 506.82 379.81 506.81 379.82 506.8 379.83 506.78 379.84 506.77 379.85 506.75 379.86 506.74 379.87 506.73 379.89 506.72 379.9 506.71 379.91 506.7 379.92 506.67 379.96 506.65 379.96 506.63 379.96 506.62 379.97 506.6 379.97 506.58 379.97 506.57 379.97 506.56 379.97 506.54 379.97 506.53 379.97 506.52 379.97 506.5 379.98 506.48 379.98 506.47 379.98 506.45 379.98 506.43 379.98 506.41 379.98 506.4 379.98 506.38 379.98 506.35 379.99 506.33 379.99 506.31 379.99 506.28 379.99 506.26 380 506.25 380 506.23 380 506.21 380 506.2 380 506.18 380 506.15 380.01 506.13 380.01 506.12 380.01 506.1 380.01 506.06 380.01 506.04 380.01 506.01 380.02 505.99 380.02 505.96 380.02 505.92 380.02 505.9 380.03 505.88 380.03 505.86 380.03 505.84 380.03 505.8 380.03 505.79 380.03 505.77 380.04 505.75 380.04 505.74 380.04 505.72 380.04 505.7 380.04 505.68 380.05 505.67 380.05 505.65 380.06 505.63 380.06 505.61 380.07 505.6 380.07 505.58 380.07 505.56 380.08 505.55 380.08 505.53 380.09 505.51 380.09 505.5 380.09 505.49 380.1 505.45 380.1 505.43 380.11 505.39 380.12 505.38 380.12 505.36 380.13 505.33 380.14 505.28 380.15 505.27 380.15 505.23 380.16 505.21 380.16 505.19 380.17 505.17 380.17 505.16 380.17 505.14 380.18 505.12 380.19 505.11 380.19 505.08 380.2 505.07 380.2 505.06 380.2 505.04 380.21 505.03 380.21 505.01 380.21 504.99 380.21 504.98 380.21 504.97 380.21 504.96 380.22 504.94 380.22 504.93 380.22 504.9 380.22 504.89 380.22 504.87 380.22 504.85 380.21 504.85 380.21 504.83 380.2 504.81 380.19 504.79 380.18 504.78 380.17 504.76 380.17 504.75 380.16 504.73 380.16 504.71 380.15 504.69 380.15 504.67 380.15 504.65 380.14 504.63 380.14 504.61 380.14 504.6 380.13 504.58 380.13 504.56 380.12 504.55 380.12 504.54 380.11 504.52 380.11 504.51 380.1 504.49 380.1 504.48 380.1 504.46 380.09 504.44 380.09 504.44 380.08 504.42 380.08 504.41 380.07 504.39 380.07 504.38 380.06 504.36 380.05 504.34 380.05 504.33 380.05 504.3 380.04 504.28 380.04 504.27 380.03 504.24 380.03 504.23 380.03 504.21 380.02 504.19 380.02 504.15 380.01 504.12 380.01 504.11 380.01 504.09 380 504.07 380 504.05 380 504.04 380 504.02 379.99 504 379.99 504.01 379.97 504.02 379.96 504.02 379.95 504.03 379.94 504.03 379.93 504.04 379.91 504.04 379.91 504.05 379.89 504.06 379.88 504.06 379.86 504.06 379.85 504.06 379.84 504.06 379.83 504.06 379.82 504.06 379.81 504.05 379.81 504.04 379.8 504.04 379.79 504.02 379.79 504.01 379.78 503.99 379.77 503.98 379.77 503.97 379.76 503.95 379.75 503.94 379.75 503.93 379.74 503.91 379.73 503.89 379.72 503.88 379.71 503.86 379.7 503.85 379.69 503.85 379.68 503.84 379.68 503.83 379.66 503.82 379.65 503.81 379.64 503.8 379.63 503.79 379.61 503.78 379.6 503.76 379.58 503.75 379.57 503.73 379.54 503.72 379.53 503.71 379.51 503.71 379.5 503.7 379.5 503.69 379.49 503.68 379.48 503.68 379.47 503.67 379.47 503.65 379.46 503.63 379.45 503.61 379.45 503.6 379.44 503.59 379.43 503.58 379.43 503.56 379.42 503.54 379.41 503.53 379.4 503.51 379.38 503.49 379.37 503.48 379.35 503.47 379.34 503.47 379.32 503.47 379.31 503.46 379.29 503.45 379.28 503.44 379.26 503.43 379.25 503.43 379.24 503.43 379.22 503.43 379.21 503.43 379.19 503.43 379.18 503.43 379.16 503.43 379.14 503.44 379.12 503.44 379.1 503.44 379.08 503.45 379.08 503.45 379.06 503.45 379.05 503.45 379.02 503.45 379 503.45 378.99 503.46 378.97 503.46 378.96 503.46 378.94 503.46 378.92 503.46 378.91 503.46 378.89 503.46 378.87 503.46 378.86 503.46 378.85 503.46 378.84 503.46 378.82 503.46 378.8 503.46 378.77 503.46 378.75 503.46 378.73 503.46 378.73 503.45 378.71 503.45 378.7 503.45 378.68 503.44 378.67 503.44 378.65 503.44 378.64 503.43 378.62 503.42 378.6 503.41 378.59 503.41 378.58 503.4 378.56 503.39 378.55 503.39 378.54 503.37 378.52 503.03 378.18 503 378.14 502.97 378.12 502.95 378.09 502.94 378.07 502.86 377.97 502.86 377.96 502.82 377.89 502.81 377.87 502.78 377.81 502.78 377.79 502.7 377.64 502.69 377.62 502.69 377.6 502.68 377.59 502.67 377.57 502.67 377.56 502.66 377.54 502.65 377.53 502.64 377.5 502.63 377.48 502.62 377.47 502.62 377.46 502.61 377.44 502.61 377.43 502.6 377.41 502.59 377.39 502.59 377.38 502.58 377.36 502.57 377.35 502.57 377.34 502.56 377.32 502.55 377.31 502.54 377.29 502.53 377.27 502.53 377.26 502.52 377.25 502.51 377.21 502.51 377.2 502.5 377.18 502.5 377.17 502.49 377.15 502.49 377.13 502.48 377.12 502.47 377.1 502.47 377.08 502.46 377.07 502.45 377.05 502.44 377.04 502.43 377.02 502.42 377 502.41 376.99 502.4 376.98 502.39 376.96 502.38 376.95 502.36 376.93 502.33 376.89 502.32 376.88 502.31 376.86 502.3 376.85 502.29 376.83 502.28 376.82 502.27 376.8 502.27 376.79 502.26 376.78 502.25 376.76 502.24 376.75 502.23 376.73 502.23 376.72 502.22 376.7 502.21 376.68 502.21 376.68 502.2 376.66 502.2 376.64 502.2 376.63 502.19 376.61 502.19 376.59 502.19 376.58 502.2 376.56 502.2 376.54 502.2 376.52 502.2 376.5 502.21 376.49 502.21 376.47 502.21 376.45 502.22 376.43 502.22 376.41 502.23 376.4 502.23 376.38 502.24 376.36 502.24 376.35 502.25 376.33 502.25 376.31 502.27 376.25 502.27 376.23 502.27 376.22 502.27 376.2 502.28 376.18 502.28 376.16 502.28 376.15 502.28 376.13 502.28 376.11 502.28 376.08 502.29 376.05 502.29 375.98 502.29 375.97 502.28 375.96 502.28 375.94 502.27 375.92 502.26 375.91 502.26 375.88 502.25 375.86 502.24 375.85 502.24 375.83 502.23 375.81 502.23 375.8 502.22 375.78 502.22 375.76 502.21 375.75 502.21 375.74 502.21 375.72 502.2 375.7 502.2 375.69 502.2 375.67 502.19 375.63 502.19 375.62 502.19 375.6 502.19 375.58 502.18 375.57 502.18 375.55 502.18 375.53 502.18 375.51 502.18 375.5 502.18 375.48 502.18 375.47 502.18 375.45 502.18 375.43 502.19 375.41 502.19 375.4 502.19 375.38 502.19 375.35 502.19 375.33 502.2 375.31 502.2 375.29 502.2 375.28 502.2 375.26 502.21 375.17 502.21 375.15 502.2 375.13 502.16 374.95 502.16 374.92 502.16 374.91 502.14 374.77 502.12 374.54 502.11 374.5 502.11 374.49 502.1 374.42 502.16 374.41 502.42 374.36 502.44 374.37 502.66 374.39 502.67 374.39 502.71 374.39 502.88 374.34 502.92 374.33 503.03 374.31 503.04 374.31 503.06 374.31 503.47 374.22 503.84 374.01 503.9 373.98 504.09 373.89 504.47 373.75 504.82 373.6 505.05 373.52 505.07 373.51 505.33 373.42 505.35 373.41 505.36 373.4 505.37 373.4 505.39 373.4 505.4 373.4 505.42 373.4 505.44 373.4 505.46 373.4 505.47 373.4 505.49 373.4 505.54 373.41 505.56 373.41 505.58 373.41 505.6 373.41 505.62 373.41 505.64 373.41 505.66 373.41 505.68 373.41 505.7 373.41 505.74 373.41 505.75 373.41 505.77 373.41 505.79 373.41 505.81 373.41 505.82 373.4 505.84 373.39 505.86 373.38 505.87 373.37 505.89 373.37 505.9 373.36 505.92 373.35 505.93 373.34 505.95 373.33 505.97 373.32 505.98 373.31 506 373.31 506.01 373.3 506.03 373.3 506.05 373.3 506.06 373.29 506.09 373.29 506.13 373.28 506.14 373.27 506.16 373.27 506.18 373.27 506.2 373.26 506.21 373.26 506.23 373.26 506.25 373.25 506.27 373.25 506.28 373.25 506.31 373.24 506.32 373.24 506.34 373.24 506.36 373.24 506.38 373.24 506.39 373.24 506.41 373.24 506.43 373.24 506.44 373.24 506.46 373.24 506.48 373.24 506.5 373.25 506.52 373.25 506.53 373.26 506.57 373.27 506.6 373.28 506.62 373.28 506.65 373.29 506.67 373.3 506.68 373.3 506.7 373.31 506.71 373.31 506.73 373.31 506.75 373.32 506.76 373.32 506.78 373.32 506.8 373.32 506.82 373.32 506.83 373.32 506.85 373.31 506.87 373.31 506.9 373.31 506.91 373.3 506.93 373.3 506.95 373.3 506.97 373.29 506.99 373.29 507.02 373.28 507.04 373.27 507.06 373.27 507.08 373.26 507.11 373.25 507.16 373.24 507.18 373.24 507.21 373.23 507.25 373.22 507.3 373.2 507.31 373.2 507.43 373.13 507.47 373.13 507.49 373.12 507.5 373.12 507.52 373.11 507.54 373.1 507.55 373.09 507.58 373.08 507.59 373.07 507.61 373.07 507.62 373.06 507.65 373.04 507.71 373.01 507.74 372.99 507.8 372.96 507.88 372.91 507.92 372.89 507.98 372.86 508.03 372.83 508.07 372.81 508.11 372.79 508.16 372.76 508.2 372.74 508.25 372.72 508.3 372.69 508.36 372.66 508.39 372.65 508.4 372.64 508.44 372.62 508.45 372.62 508.47 372.61 508.48 372.6 508.5 372.59 508.53 372.57 508.54 372.57 508.56 372.56 508.57 372.55 508.59 372.54 508.6 372.53 508.62 372.52 508.63 372.51 508.64 372.5 508.66 372.48 508.67 372.47 508.69 372.46 508.7 372.45 508.78 372.4 508.8 372.39 508.81 372.38 508.83 372.37 508.84 372.36 508.87 372.34 508.9 372.32 508.91 372.31 508.93 372.3 508.94 372.3 508.96 372.29 508.97 372.28 508.99 372.27 509.01 372.26 509.02 372.26 509.04 372.25 509.06 372.25 509.07 372.24 509.09 372.24 509.1 372.24 509.12 372.24 509.16 372.24 509.17 372.24 509.19 372.24 509.21 372.24 509.24 372.24 509.26 372.24 509.28 372.24 509.3 372.24 509.32 372.24 509.33 372.23 509.35 372.23 509.37 372.23 509.39 372.22 509.4 372.22 509.42 372.22 509.44 372.21 509.45 372.21 509.47 372.2 509.49 372.19 509.5 372.19 509.52 372.18 509.54 372.17 509.55 372.16 509.56 372.16 509.6 372.15 509.61 372.14 509.63 372.14 509.65 372.13 509.66 372.12 509.68 372.12 509.7 372.12 509.71 372.11 509.73 372.11 509.75 372.11 509.76 372.11 509.82 372.1 509.83 372.1 509.85 372.09 509.87 372.09 509.89 372.09 509.91 372.09 509.93 372.09 509.94 372.09 509.96 372.09 509.98 372.09 510 372.09 510.01 372.09 510.08 372.09 510.1 372.09 510.12 372.09 510.15 372.09 510.17 372.09 510.19 372.09 510.21 372.09 510.22 372.09 510.24 372.08 510.26 372.08 510.28 372.08 510.3 372.07 510.32 372.07 510.34 372.07 510.39 372.05 510.46 372.04 510.48 372.04 510.49 372.03 510.51 372.03 510.53 372.02 510.54 372.02 510.56 372.02 510.58 372.02 510.6 372.02 510.62 372.02 510.63 372.02 510.69 372.01 510.72 372.01 510.75 372.01 510.84 372.01 510.95 372.01 510.99 372.01 511.03 372.01 511.05 372.01 511.06 372.01 511.08 372.01 511.09 372.01 511.11 372 511.13 372 511.15 372 511.16 371.99 511.18 371.99 511.2 371.99 511.22 371.98 511.24 371.98 511.25 371.98 511.27 371.97 511.29 371.97 511.3 371.96 511.32 371.96 511.34 371.95 511.36 371.95 511.37 371.94 511.39 371.93 511.4 371.92 511.42 371.92 511.48 371.89 511.49 371.88 511.51 371.87 511.52 371.86 511.54 371.85 511.56 371.85 511.58 371.84 511.59 371.84 511.61 371.83 511.63 371.83 511.64 371.82 511.66 371.82 511.67 371.82 511.69 371.81 511.71 371.81 511.72 371.81 511.74 371.8 511.76 371.8 511.78 371.8 511.79 371.8 511.82 371.79 511.83 371.79 511.85 371.79 511.87 371.79 511.89 371.79 511.9 371.79 511.94 371.79 512.01 371.78 512.05 371.78 512.09 371.78 512.12 371.78 512.14 371.78 512.16 371.78 512.17 371.77 512.18 371.77 512.2 371.77 512.22 371.77 512.23 371.76 512.27 371.76 512.29 371.76 512.3 371.75 512.32 371.75 512.34 371.75 512.35 371.75 512.37 371.75 512.41 371.74 512.43 371.74 512.45 371.74 512.47 371.74 512.49 371.73 512.5 371.73 512.52 371.73 512.54 371.73 512.56 371.74 512.57 371.74 512.59 371.74 512.6 371.74 512.62 371.74 512.65 371.75 512.67 371.75 512.69 371.76 512.7 371.76 512.72 371.76 512.74 371.76 512.75 371.76 512.77 371.76 512.79 371.76 512.81 371.77 512.82 371.76 512.84 371.76 512.86 371.76 512.87 371.76 512.91 371.75 512.92 371.75 513.03 371.73 513.06 371.72 513.08 371.72 513.11 371.72 513.16 371.71 513.18 371.7 513.21 371.7 513.22 371.69 513.24 371.69 513.27 371.69 513.33 371.68 513.42 371.66 513.45 371.66 513.48 371.65 513.49 371.65 513.53 371.65 513.55 371.64 513.56 371.64 513.58 371.63 513.6 371.63 513.61 371.62 513.62 371.61 513.64 371.6 513.65 371.59 513.67 371.58 513.69 371.58 513.7 371.57 513.71 371.57 513.73 371.56 513.75 371.56 513.76 371.56 513.78 371.56 513.82 371.56 513.83 371.56 513.84 371.56 513.88 371.55 513.89 371.55 513.92 371.55 513.93 371.55 513.95 371.55 513.97 371.55 514.02 371.55 514.04 371.55 514.05 371.55 514.09 371.55 514.14 371.55 514.16 371.55 514.18 371.55 514.2 371.55 514.21 371.55 514.25 371.55 514.27 371.55 514.28 371.55 514.3 371.55 514.31 371.55 514.33 371.54 514.35 371.54 514.37 371.54 514.38 371.53 514.4 371.53 514.43 371.52 514.44 371.52 514.46 371.52 514.48 371.51 514.49 371.51 514.52 371.49 514.54 371.49 514.59 371.47 514.61 371.47 514.62 371.46 514.64 371.46 514.65 371.46 514.67 371.45 514.69 371.45 514.71 371.45 514.73 371.44 514.75 371.44 514.76 371.43 514.78 371.43 514.8 371.43 514.82 371.43 514.83 371.43 514.86 371.42 514.88 371.42 514.89 371.42 514.91 371.42 514.95 371.42 515 371.41 515.02 371.41 515.03 371.41 515.05 371.41 515.09 371.41 515.1 371.4 515.12 371.4 515.14 371.4 515.15 371.4 515.17 371.4 515.19 371.4 515.21 371.41 515.22 371.41 515.24 371.41 515.29 371.42 515.32 371.43 515.33 371.43 515.37 371.44 515.39 371.44 515.4 371.44 515.42 371.45 515.44 371.45 515.46 371.45 515.48 371.45 515.49 371.45 515.57 371.46 515.6 371.46 515.62 371.46 515.64 371.46 515.66 371.47 515.68 371.47 515.69 371.47 515.71 371.47 515.73 371.47 515.74 371.47 515.76 371.47 515.78 371.48 515.79 371.48 515.81 371.49 515.82 371.49 515.84 371.5 515.87 371.51 515.89 371.52 515.91 371.53 515.92 371.53 515.94 371.54 515.96 371.54 515.98 371.55 516 371.55 516.03 371.56 516.05 371.56 516.07 371.56 516.11 371.57 516.12 371.57 516.14 371.58 516.16 371.58 516.18 371.58 516.18 371.58 516.2 371.59 516.22 371.59 516.23 371.6 516.25 371.6 516.27 371.61 516.28 371.61 516.3 371.62 516.32 371.63 516.34 371.63 516.36 371.64 516.37 371.65 516.39 371.66 516.4 371.66 516.41 371.67 516.43 371.68 516.44 371.69 516.46 371.69 516.48 371.71 516.49 371.72 516.51 371.73 516.52 371.74 516.54 371.75 516.55 371.76 516.58 371.79 516.6 371.8 516.61 371.81 516.62 371.83 516.64 371.84 516.65 371.85 516.66 371.86 516.68 371.87 516.69 371.88 516.71 371.89 516.73 371.89 516.76 371.91 516.77 371.92 516.79 371.93 516.8 371.94 516.82 371.95 516.83 371.96 516.84 371.97 516.85 371.98 516.88 372 516.9 372.01 516.91 372.02 516.93 372.03 516.94 372.04 516.96 372.05 516.97 372.06 516.99 372.06 517.01 372.07 517.02 372.07 517.06 372.08 517.08 372.08 517.09 372.09 517.13 372.1 517.14 372.1 517.16 372.11 517.18 372.11 517.19 372.12 517.23 372.13 517.24 372.14 517.26 372.15 517.29 372.16 517.31 372.16 517.32 372.17 517.34 372.18 517.36 372.18 517.37 372.19 517.39 372.2 517.41 372.21 517.42 372.22 517.46 372.23 517.47 372.24 517.49 372.24 517.51 372.25 517.51 372.25 517.53 372.26 517.54 372.27 517.57 372.29 517.59 372.3 517.62 372.31 517.65 372.33 517.69 372.34 517.7 372.35 517.73 372.37 517.75 372.38 517.76 372.38 517.78 372.39 517.8 372.4 517.82 372.41 517.83 372.41 517.89 372.42 517.96 372.42 517.97 372.42 517.98 372.42 518 372.41 518.02 372.41 518.03 372.41 518.05 372.4 518.09 372.4 518.13 372.39 518.15 372.39 518.17 372.39 518.19 372.38 518.22 372.38 518.24 372.37 518.25 372.37 518.27 372.36 518.28 372.35 518.29 372.34 518.31 372.33 518.32 372.32 518.33 372.31 518.35 372.31 518.36 372.3 518.38 372.29 518.39 372.28 518.41 372.28 518.42 372.27 518.44 372.27 518.46 372.26 518.47 372.25 518.6 372.21 518.61 372.2 518.66 372.18 518.73 372.15 518.84 372.1 518.87 372.09 518.91 372.07 518.96 372.04 519.08 371.98 519.1 371.96 519.12 371.95 519.15 371.94 519.23 371.9 519.41 371.81 519.44 371.78 519.46 371.77 519.48 371.75 519.5 371.74 519.52 371.72 519.53 371.7 519.55 371.68 519.55 371.68 519.57 371.67 519.58 371.67 519.6 371.67 519.62 371.66 519.64 371.65 519.65 371.63 519.66 371.62 519.66 371.61 519.67 371.59 519.69 371.56 519.71 371.55 519.72 371.53 519.73 371.52 519.75 371.52 520.05 371.28 520.21 371.25 520.29 371.24 520.49 371.2 520.51 371.18 520.54 371.14 520.76 370.96 520.9 370.85 521.05 370.72 521.05 370.7 521.24 370.7 521.27 370.68 521.36 370.64 521.41 370.62 521.47 370.59 521.51 370.57 521.64 370.51 521.67 370.5 521.69 370.49 521.73 370.47 521.79 370.44 521.8 370.44 521.83 370.43 521.85 370.42 521.89 370.38 521.97 370.34 522.02 370.31 522.18 370.25 522.29 370.2 522.41 370.15 522.54 370.11 522.7 370.06 522.85 370.02 522.86 370.02 522.87 370.01 522.89 370.01 522.9 370 522.92 370 522.94 369.99 522.96 369.98 522.96 369.98 522.98 369.96 523.01 369.95 523.02 369.94 523.03 369.93 523.05 369.93 523.06 369.92 523.08 369.91 523.09 369.9 523.12 369.89 523.14 369.88 523.17 369.87 523.19 369.85 523.21 369.85 523.23 369.84 523.23 369.84 523.25 369.83 523.27 369.82 Z"/>
</g></svg>