<svg xmlns="http://www.w3.org/2000/svg" version="1.2" baseProfile="tiny" stroke-linecap="round" stroke-linejoin="round" viewBox="606.03 216.8 17.63 27.47"><g xmlns="http://www.w3.org/2000/svg" id="Garralda">
<path d="M 614.83 217.12 615.08 217.07 615.18 217.04 615.44 216.98 615.68 216.92 615.9 216.86 616.03 216.83 616.06 216.82 616.07 216.82 616.12 216.83 616.14 216.85 616.18 216.86 616.25 216.9 616.33 216.92 616.42 216.95 616.53 216.99 616.59 217.01 616.64 217.03 616.72 217.08 616.8 217.13 616.86 217.17 616.9 217.19 616.94 217.22 616.98 217.26 617.03 217.3 617.07 217.34 617.1 217.38 617.13 217.42 617.18 217.47 617.23 217.53 617.26 217.57 617.34 217.65 617.39 217.7 617.46 217.77 617.55 217.86 617.63 217.93 617.69 217.99 617.74 218.05 617.8 218.11 617.84 218.17 617.9 218.24 617.97 218.3 618.02 218.34 618.04 218.35 618.06 218.36 618.16 218.42 618.27 218.49 618.37 218.56 618.37 218.59 618.35 218.65 618.33 218.75 618.32 218.82 618.31 218.84 618.35 218.87 618.39 218.9 618.43 218.93 618.49 218.97 618.56 219.02 618.61 219.06 618.69 219.12 618.75 219.18 618.82 219.24 618.91 219.31 618.97 219.36 619.03 219.39 619.08 219.43 619.15 219.47 619.18 219.48 619.22 219.51 619.3 219.55 619.36 219.57 619.43 219.61 619.51 219.64 619.55 219.66 619.57 219.69 619.61 219.73 619.65 219.8 619.69 219.86 619.74 219.94 619.78 220.01 619.82 220.08 619.82 220.12 619.82 220.18 619.82 220.22 619.82 220.27 619.82 220.31 619.81 220.32 619.78 220.35 619.73 220.39 619.67 220.45 619.61 220.51 619.54 220.59 619.5 220.64 619.47 220.66 619.41 220.7 619.28 220.79 619.2 220.84 619.2 220.88 619.2 220.96 619.2 220.99 619.2 221.05 619.19 221.09 619.19 221.12 619.19 221.18 619.18 221.24 619.18 221.31 619.17 221.39 619.16 221.45 619.14 221.49 619.13 221.54 619.07 221.56 619.02 221.58 618.94 221.6 618.86 221.62 618.78 221.63 618.73 221.64 618.73 221.68 618.72 221.75 618.71 221.8 618.71 221.85 618.78 221.88 618.84 221.91 618.97 221.96 619.03 221.99 619.1 222.02 619.15 222.04 619.24 222.08 619.36 222.13 619.43 222.16 619.48 222.23 619.53 222.29 619.58 222.34 619.61 222.39 619.61 222.44 619.62 222.51 619.62 222.63 619.63 222.76 619.63 222.77 619.64 222.88 619.65 222.98 619.65 223.07 619.65 223.14 619.66 223.17 619.64 223.23 619.6 223.3 619.58 223.37 619.56 223.43 619.52 223.51 619.49 223.58 619.49 223.62 619.5 223.65 619.49 223.7 619.49 223.71 619.49 223.72 619.49 223.81 619.49 223.89 619.5 223.97 619.5 224.05 619.5 224.08 619.48 224.19 619.47 224.29 619.45 224.38 619.44 224.43 619.44 224.46 619.46 224.53 619.48 224.59 619.49 224.63 619.5 224.67 619.53 224.76 619.56 224.85 619.6 224.96 619.61 225 619.62 225.03 619.62 225.05 619.63 225.08 619.64 225.12 619.6 225.18 619.55 225.23 619.5 225.3 619.47 225.33 619.44 225.38 619.4 225.43 619.37 225.47 619.32 225.51 619.25 225.55 619.16 225.6 619.1 225.64 619.01 225.7 618.93 225.75 618.85 225.81 618.77 225.87 618.71 225.91 618.66 225.96 618.6 225.99 618.58 226.01 618.55 226.07 618.52 226.14 618.5 226.19 618.48 226.23 618.46 226.29 618.45 226.34 618.43 226.39 618.41 226.45 618.4 226.5 618.38 226.53 618.36 226.56 618.35 226.6 618.33 226.63 618.3 226.66 618.28 226.68 618.25 226.7 618.22 226.72 618.19 226.74 618.16 226.76 618.14 226.78 618.12 226.8 618.1 226.83 618.09 226.86 618.07 226.91 618.06 226.95 618.05 226.99 618.05 227.03 618.05 227.12 618.04 227.2 618.04 227.25 618.04 227.27 618.04 227.3 618.05 227.33 618.05 227.36 618.07 227.41 618.08 227.43 618.09 227.45 618.1 227.48 618.11 227.52 618.12 227.55 618.12 227.58 618.12 227.6 618.12 227.64 618.11 227.69 618.1 227.74 618.1 227.81 618.09 227.86 618.08 227.91 618.08 228 618.07 228.06 618.07 228.11 618.08 228.12 618.13 228.18 618.16 228.23 618.18 228.26 618.21 228.31 618.23 228.36 618.24 228.4 618.26 228.43 618.27 228.47 618.28 228.51 618.31 228.6 618.32 228.66 618.34 228.75 618.35 228.83 618.37 228.91 618.37 228.96 618.38 229.01 618.39 229.07 618.39 229.13 618.41 229.23 618.41 229.26 618.41 229.3 618.41 229.31 618.42 229.33 618.42 229.35 618.42 229.39 618.43 229.42 618.44 229.45 618.45 229.47 618.47 229.49 618.51 229.52 618.56 229.55 618.6 229.57 618.64 229.59 618.69 229.61 618.73 229.62 618.77 229.62 618.83 229.63 618.86 229.65 618.89 229.66 618.92 229.68 618.98 229.72 619.02 229.75 619.08 229.8 619.13 229.84 619.16 229.86 619.18 229.88 619.22 229.9 619.27 229.94 619.29 229.95 619.3 229.96 619.34 229.97 619.36 229.97 619.39 229.99 619.46 230.01 619.5 230.01 619.51 230.02 619.55 230.03 619.6 230.06 619.66 230.08 619.71 230.1 619.77 230.13 619.83 230.15 619.88 230.17 619.93 230.19 619.96 230.2 619.98 230.21 620.01 230.23 620.07 230.27 620.11 230.29 620.15 230.3 620.21 230.32 620.26 230.34 620.3 230.36 620.35 230.38 620.4 230.4 620.44 230.42 620.51 230.44 620.54 230.46 620.57 230.47 620.58 230.47 620.64 230.5 620.69 230.53 620.73 230.54 620.76 230.56 620.81 230.58 620.85 230.6 620.89 230.61 620.96 230.64 621.02 230.66 621.06 230.68 621.11 230.69 621.15 230.71 621.21 230.73 621.26 230.75 621.31 230.78 621.38 230.81 621.43 230.83 621.5 230.86 621.61 230.89 621.64 230.91 621.71 230.93 621.78 230.96 621.86 230.99 621.93 231.02 621.98 231.05 622.01 231.07 622.07 231.1 622.08 231.11 622.12 231.13 622.15 231.15 622.19 231.19 622.23 231.22 622.26 231.25 622.31 231.3 622.37 231.37 622.42 231.43 622.46 231.46 622.49 231.48 622.52 231.5 622.55 231.51 622.6 231.51 622.65 231.51 622.72 231.52 622.72 231.52 622.77 231.52 622.82 231.53 622.85 231.53 622.83 231.62 622.83 231.65 622.82 231.73 622.81 231.78 622.8 231.83 622.8 231.85 622.79 231.89 622.77 232.02 622.77 232.05 622.79 232.18 622.81 232.26 622.79 232.33 622.79 232.35 622.77 232.44 622.74 232.58 622.72 232.71 622.69 232.84 622.69 232.85 622.67 232.93 622.67 232.96 622.63 233.15 622.61 233.27 622.59 233.4 622.58 233.44 622.57 233.47 622.57 233.47 622.55 233.59 622.55 233.69 622.54 233.81 622.54 233.83 622.53 233.93 622.53 233.96 622.53 234.03 622.52 234.07 622.52 234.1 622.52 234.19 622.51 234.36 622.5 234.52 622.5 234.58 622.51 234.69 622.53 234.83 622.54 234.92 622.55 234.99 622.55 235.07 622.65 235.1 622.77 235.13 622.92 235.17 623.08 235.22 623.27 235.26 623.38 235.28 623.49 235.3 623.62 235.33 623.64 235.4 623.66 235.45 623.58 235.5 623.55 235.53 623.51 235.55 623.47 235.58 623.41 235.61 623.39 235.64 623.38 235.64 623.34 235.67 623.31 235.69 623.27 235.72 623.24 235.74 623.19 235.78 623.12 235.83 623.09 235.85 623.07 235.86 623.03 235.89 622.99 235.93 622.95 235.96 622.93 235.98 622.92 236 622.91 236.01 622.9 236.02 622.88 236.05 622.87 236.08 622.86 236.09 622.85 236.13 622.87 236.2 622.91 236.25 622.96 236.3 623.01 236.34 623.07 236.39 623.15 236.42 623.22 236.46 623.29 236.52 623.35 236.56 623.39 236.63 623.43 236.69 623.41 236.78 623.39 236.85 623.38 236.95 623.39 237.01 623.4 237.07 623.41 237.13 623.41 237.18 623.38 237.2 623.33 237.23 623.33 237.24 623.32 237.24 623.31 237.24 623.3 237.25 623.26 237.28 623.18 237.32 623.09 237.39 622.99 237.46 622.91 237.52 622.81 237.58 622.73 237.64 622.73 237.73 622.74 237.84 622.75 237.93 622.76 238.02 622.76 238.13 622.77 238.25 622.78 238.35 622.78 238.45 622.78 238.55 622.78 238.65 622.78 238.7 622.72 238.76 622.67 238.8 622.62 238.83 622.59 238.86 622.54 238.92 622.51 238.96 622.48 238.98 622.44 239.01 622.41 239.03 622.37 239.05 622.32 239.07 622.26 239.09 622.19 239.11 622.12 239.13 622.03 239.15 621.96 239.18 621.88 239.2 621.8 239.22 621.72 239.24 621.65 239.26 621.55 239.29 621.49 239.3 621.41 239.32 621.35 239.33 621.28 239.34 621.21 239.35 621.14 239.35 621.07 239.35 620.95 239.35 620.9 239.35 620.83 239.35 620.75 239.33 620.69 239.31 620.64 239.3 620.6 239.3 620.56 239.3 620.52 239.3 620.47 239.3 620.45 239.31 620.43 239.32 620.4 239.34 620.38 239.36 620.37 239.38 620.36 239.4 620.36 239.43 620.35 239.47 620.35 239.52 620.35 239.6 620.36 239.68 620.38 239.8 620.38 239.86 620.39 239.9 620.4 239.94 620.42 239.98 620.44 240.01 620.48 240.04 620.51 240.07 620.55 240.1 620.59 240.12 620.68 240.15 620.76 240.18 620.86 240.22 620.94 240.25 621 240.28 621.04 240.31 621.08 240.33 621.12 240.36 621.16 240.4 621.19 240.42 621.21 240.45 621.22 240.48 621.23 240.51 621.24 240.57 621.24 240.61 621.23 240.65 621.22 240.69 621.2 240.73 621.17 240.76 621.13 240.8 621.07 240.84 621.02 240.87 620.96 240.9 620.92 240.93 620.87 240.97 620.83 241 620.79 241.04 620.75 241.07 620.72 241.1 620.68 241.15 620.64 241.2 620.62 241.25 620.6 241.29 620.58 241.34 620.56 241.38 620.53 241.46 620.51 241.53 620.5 241.57 620.49 241.61 620.48 241.67 620.47 241.74 620.46 241.8 620.45 241.84 620.42 241.95 620.37 242.16 620.33 242.36 620.32 242.51 620.32 242.64 620.33 242.7 620.37 242.81 620.43 242.97 620.49 243.11 620.53 243.23 620.55 243.37 620.57 243.5 620.57 243.62 620.56 243.77 620.53 243.94 620.5 244.06 620.46 244.14 620.43 244.18 620.39 244.2 620.34 244.24 620.29 244.26 620.27 244.25 620.25 244.23 620.1 244.11 620.08 244.09 620.03 244.05 620.02 244.04 620 244.03 619.9 243.94 619.69 243.79 619.47 243.61 619.13 243.34 619.07 243.3 618.93 243.19 618.75 243.1 618.47 242.95 618.12 242.78 617.74 242.58 617.38 242.4 616.94 242.2 616.52 241.99 616.13 241.81 615.82 241.67 615.59 241.56 615.34 241.44 615.15 241.36 614.96 241.23 614.8 241.1 614.61 240.96 614.4 240.8 614.23 240.68 613.8 240.68 613.49 240.68 613.23 240.69 613.17 240.7 612.93 240.72 612.92 240.73 612.84 240.73 612.69 240.78 612.67 240.78 612.66 240.79 612.35 240.88 612.1 240.96 611.97 241.04 611.9 241.08 611.59 241.27 611.42 241.38 611.33 241.45 611.22 241.43 610.99 241.4 610.51 241.34 610.02 241.05 609.97 241.01 609.58 240.7 609.47 240.62 609.45 240.55 609.42 240.48 609.41 240.45 609.4 240.4 609.38 240.34 609.35 240.29 609.34 240.28 609.34 240.27 609.33 240.26 609.33 240.25 609.33 240.24 609.34 240.13 609.35 240.06 609.35 240.04 609.35 240.02 609.36 239.99 609.37 239.97 609.37 239.91 609.37 239.87 609.37 239.83 609.29 239.78 609.1 239.65 608.92 239.52 608.85 239.47 608.78 239.42 608.76 239.4 608.75 239.4 608.74 239.4 608.7 239.39 608.58 239.37 608.5 239.36 608.34 239.32 608.32 239.31 608.3 239.3 608.29 239.3 608.28 239.3 608.15 239.3 608.06 239.28 608.04 239.28 608.03 239.28 608.02 239.28 608.01 239.27 608 239.26 607.98 239.25 607.89 239.19 607.73 239.09 607.69 239.06 607.67 239.06 607.59 238.99 607.53 238.94 607.47 238.89 607.42 238.85 607.37 238.82 607.31 238.78 607.27 238.74 607.24 238.71 607.2 238.66 607.17 238.61 607.13 238.54 607.1 238.48 607.07 238.39 607.04 238.29 607.02 238.23 607.01 238.17 607 238.13 607 238.09 607 238.04 607.01 237.98 607.02 237.91 607.03 237.79 607.04 237.72 607.05 237.52 607.06 237.44 607.06 237.38 607.06 237.28 607.06 237.16 607.06 237.1 607.06 237.05 607.05 237.01 607.05 236.98 607.03 236.92 606.98 236.71 606.9 236.41 606.88 236.33 606.84 236.18 606.82 236.11 606.8 236.02 606.76 235.92 606.71 235.8 606.63 235.61 606.39 235.37 606.14 235.14 606.09 235.1 606.06 235.06 606.11 234.91 606.15 234.76 606.19 234.66 606.23 234.54 606.27 234.46 606.33 234.33 606.4 234.18 606.46 234.04 606.52 233.9 606.61 233.71 606.68 233.57 606.79 233.38 606.88 233.24 606.97 233.09 607.06 232.95 607.14 232.82 607.21 232.68 607.27 232.55 607.34 232.39 607.38 232.29 607.38 232.28 607.42 232.13 607.45 232.02 607.48 231.91 607.52 231.75 607.56 231.61 607.59 231.5 607.6 231.46 607.61 231.42 607.62 231.36 607.63 231.31 607.64 231.28 607.66 231.27 607.66 231.24 607.67 231.21 607.68 231.19 607.71 231.16 607.74 231.13 607.76 231.09 607.78 231.05 607.81 231 607.82 230.96 607.83 230.92 607.88 230.81 607.91 230.75 607.94 230.69 607.97 230.64 608.01 230.56 608.05 230.48 608.08 230.42 608.12 230.36 608.17 230.28 608.2 230.23 608.22 230.19 608.23 230.15 608.24 230.11 608.24 230.04 608.24 229.93 608.24 229.89 608.23 229.8 608.23 229.78 608.23 229.76 608.23 229.61 608.23 229.45 608.23 229.37 608.23 229.22 608.23 229.07 608.22 228.94 608.21 228.87 608.21 228.85 608.2 228.78 608.19 228.7 608.18 228.63 608.17 228.59 608.16 228.54 608.14 228.47 608.13 228.43 608.12 228.38 608.1 228.34 608.08 228.29 608.05 228.21 608.02 228.12 607.97 228 607.93 227.91 607.9 227.84 607.89 227.8 607.92 227.78 607.91 227.78 607.93 227.77 607.98 227.73 608.1 227.67 608.13 227.65 608.18 227.62 608.22 227.59 608.26 227.55 608.33 227.47 608.36 227.44 608.39 227.4 608.42 227.36 608.46 227.32 608.48 227.29 608.49 227.27 608.52 227.24 608.56 227.19 608.58 227.16 608.6 227.14 608.62 227.09 608.64 227.03 608.64 227 608.64 226.94 608.65 226.89 608.66 226.86 608.68 226.82 608.71 226.79 608.77 226.74 608.81 226.7 608.83 226.67 608.85 226.6 608.87 226.54 608.9 226.47 608.95 226.39 608.99 226.31 609.04 226.24 609.08 226.19 609.12 226.14 609.16 226.1 609.21 226.06 609.27 226.01 609.33 225.99 609.38 225.96 609.42 225.94 609.47 225.89 609.56 225.82 609.66 225.75 609.71 225.71 609.79 225.64 609.96 225.5 610.08 225.41 610.14 225.36 610.18 225.32 610.24 225.28 610.3 225.22 610.34 225.17 610.37 225.14 610.39 225.12 610.4 225.13 610.41 225.14 610.43 225.1 610.44 225.16 610.47 225.22 610.53 225.27 610.59 225.33 610.61 225.37 610.62 225.44 610.61 225.52 610.56 225.63 610.56 225.7 610.55 225.88 610.56 225.96 610.56 225.98 610.59 226.01 610.62 226.04 610.64 226.07 610.66 226.09 610.67 226.12 610.69 226.14 610.7 226.16 610.71 226.18 610.73 226.17 610.82 226.11 610.84 226.1 610.86 226.09 610.93 226.05 611.07 225.96 611.13 225.93 611.18 225.9 611.26 225.86 611.33 225.82 611.4 225.84 611.55 225.91 611.66 225.88 611.81 225.84 611.9 225.67 611.95 225.58 611.98 225.54 612.03 225.45 612.1 225.32 612.1 225.31 612.17 225.2 612.18 225.19 612.19 225.17 612.21 225.12 612.24 225.02 612.26 224.91 612.27 224.86 612.3 224.75 612.33 224.61 612.36 224.5 612.36 224.49 612.37 224.38 612.38 224.32 612.38 224.31 612.38 224.3 612.39 224.24 612.39 224.22 612.39 224.19 612.39 224.1 612.4 224.1 612.4 224.09 612.41 223.87 612.42 223.6 612.44 223.37 612.44 223.23 612.45 223.18 612.46 223.04 612.46 223.02 612.48 222.97 612.5 222.91 612.54 222.85 612.57 222.8 612.6 222.75 612.62 222.71 612.69 222.69 612.76 222.66 612.84 222.63 612.91 222.61 613 222.58 613.06 222.55 613.13 222.53 613.21 222.5 613.29 222.47 613.36 222.45 613.42 222.43 613.48 222.41 613.49 222.37 613.51 222.33 613.52 222.28 613.54 222.23 613.55 222.17 613.58 222.16 613.62 222.12 613.66 222.1 613.71 222.07 613.75 222.03 613.8 221.99 613.85 221.96 613.89 221.92 613.93 221.88 613.96 221.83 614 221.79 614.03 221.76 614.06 221.72 614.1 221.67 614.14 221.64 614.17 221.61 614.2 221.57 614.24 221.55 614.29 221.5 614.33 221.46 614.37 221.43 614.4 221.4 614.44 221.37 614.48 221.34 614.52 221.31 614.58 221.26 614.59 221.21 614.62 221.15 614.63 221.11 614.65 221.06 614.66 221.01 614.67 220.97 614.67 220.93 614.67 220.89 614.66 220.84 614.65 220.76 614.64 220.68 614.63 220.6 614.62 220.54 614.61 220.47 614.61 220.42 614.6 220.36 614.59 220.3 614.58 220.25 614.58 220.2 614.58 220.16 614.59 220.1 614.61 220.02 614.63 219.94 614.65 219.87 614.68 219.78 614.69 219.71 614.7 219.68 614.71 219.67 614.71 219.66 614.73 219.58 614.69 219.52 614.61 219.4 614.5 219.25 614.41 219.13 614.31 218.99 614.23 218.87 614.15 218.74 614.16 218.7 614.17 218.64 614.18 218.58 614.19 218.51 614.2 218.42 614.21 218.27 614.21 218.11 614.21 217.98 614.23 217.96 614.24 217.94 614.29 217.85 614.34 217.74 614.4 217.64 614.46 217.53 614.52 217.43 614.6 217.29 614.66 217.18 614.74 217.15 614.83 217.12 Z"/>
</g></svg>