<svg xmlns="http://www.w3.org/2000/svg" version="1.2" baseProfile="tiny" stroke-linecap="round" stroke-linejoin="round" viewBox="171.12 244.1 88.68 66.9"><g xmlns="http://www.w3.org/2000/svg" id="Gasteiz">
<path d="M 190.71 248.62 190.98 249.04 191.45 249.45 191.91 249.85 192.47 250.25 193.21 250.75 193.8 251.01 194.5 251.31 195.13 251.66 195.67 251.95 196.2 252.34 196.66 252.57 196.9 252.45 196.89 252.17 196.7 251.85 196.74 251.47 197.02 251.17 197.36 251.45 197.6 251.7 197.96 252.05 198.29 252.16 198.76 252 198.94 252.1 199.3 252.16 199.79 252.31 200.39 252.4 201.03 252.54 201.73 252.79 202.14 252.97 202.52 253.28 202.76 253.78 203.17 254.28 203.57 254.42 203.93 254.48 204.24 254.57 204.53 254.87 204.82 255.21 205.14 255.45 205.65 255.57 206.12 255.65 206.51 255.83 207.07 256 207.62 256.05 208.18 256.06 208.82 256.07 209.39 256 209.99 255.97 210.5 255.93 210.8 256.01 211.2 256.15 211.58 256.24 212.17 256.54 212.52 256.5 212.83 256.75 212.99 257.11 213.21 257.46 213.45 257.33 213.5 257.12 213.46 256.81 213.38 256.57 213.59 256.52 213.87 256.57 214.14 256.43 214.39 256.08 214.66 255.65 214.98 255.61 215.13 255.12 215.43 254.75 215.56 254.64 215.88 254.65 216.34 254.63 216.85 254.63 217.41 254.61 217.93 254.6 218.47 254.51 218.98 254.38 219.42 254.17 219.8 253.88 220.13 253.54 220.41 253.17 220.75 252.65 221.31 251.86 221.6 251.79 221.74 251.62 221.6 251.24 221.49 250.92 221.52 250.67 221.87 250.28 222.14 249.93 222.31 249.58 222.47 249.29 222.8 248.97 223.06 248.81 223.38 248.54 223.76 248.03 224 247.71 224.19 247.4 224.36 247.07 224.54 246.82 224.86 246.76 225.22 246.88 225.48 247.08 225.71 247.42 225.81 247.63 226.01 247.64 226.11 247.35 226.14 246.79 226.46 246.57 226.81 246.36 227.16 246.17 227.44 246.05 227.71 246.04 227.82 246.16 227.9 246.5 227.89 246.8 227.88 247.05 227.88 247.28 227.92 247.49 228.08 247.71 228.38 247.89 228.68 248.08 229.06 248.31 229.4 248.41 229.72 248.5 229.93 248.66 230.09 248.84 230.35 249.13 230.6 249.22 231.3 249.3 231.8 249.36 232.36 249.41 232.85 249.51 233.29 249.58 233.63 249.62 233.98 249.63 234.3 249.58 234.42 249.32 234.46 248.94 234.5 248.47 234.67 248.19 234.92 247.89 235.08 247.52 235.11 246.88 235.13 246.28 235.3 245.71 235.58 245.26 235.9 244.71 236.23 244.37 236.64 244.12 236.87 244.1 236.91 244.44 236.9 244.8 236.88 245.25 236.98 245.63 237.03 246.01 236.96 246.65 236.98 247.04 236.95 247.42 236.97 247.67 237.03 248.04 237.14 248.43 237.31 248.74 237.57 248.97 237.97 249.18 238.32 249.38 238.48 249.56 238.55 249.79 238.51 250.15 238.37 250.52 238.18 250.95 237.98 251.42 237.79 251.82 237.59 252.2 237.39 252.66 237.26 252.98 237.1 253.35 236.94 253.74 236.83 253.98 236.64 254.17 236.35 254.23 236.15 254.41 235.71 254.63 235.37 254.67 234.93 254.74 234.62 254.92 234.32 255.24 234.08 255.54 233.9 255.86 233.68 256.22 233.52 256.52 233.41 256.85 233.23 257.25 233.12 257.55 233.06 257.85 233.07 258.18 233.17 258.5 233.3 258.83 233.26 259.1 233.16 259.49 233 259.8 232.77 259.6 232.64 259.51 232.41 259.62 232.04 260.02 231.64 260.46 231.06 260.8 230.92 261.17 230.73 261.62 230.72 261.63 230.8 261.82 231.1 261.98 231.36 262.06 231.58 262.21 231.71 262.37 231.72 262.65 231.66 263.06 231.58 263.46 231.47 263.92 231.41 264.27 231.37 264.67 231.36 265.14 231.42 265.54 231.45 266.02 231.42 266.48 231.4 266.76 231.28 267.15 231.54 267.3 231.71 267.72 231.88 268.08 232.07 268.49 232.18 268.75 232.37 269.11 232.59 269.5 232.76 269.95 232.97 270.41 233.07 270.76 233.2 271.14 233.28 271.51 233.26 271.94 233.21 272.27 233.15 272.6 233.1 272.97 233.05 273.19 232.93 273.54 233.2 273.62 233.65 273.54 234.1 273.28 234.52 273.2 234.91 273.28 235.37 273.39 235.96 273.39 236.43 273.41 236.92 273.45 237.39 273.68 237.76 273.85 238.09 273.97 238.36 273.97 238.65 273.74 239.05 273.56 239.43 273.44 239.82 273.37 240.26 273.25 240.76 272.98 241.13 272.55 241.44 272.1 241.79 271.63 241.99 271.26 242.15 271.01 242.14 270.81 241.79 270.9 241.43 270.94 241.25 270.76 241.43 270.32 241.71 269.91 242 269.53 242.2 269.14 242.33 268.85 242.43 268.33 242.63 267.8 242.7 267.28 242.88 266.77 243.04 266.42 243.12 266.16 242.37 265.28 241.87 264.63 241.49 264.11 241.23 263.69 241.14 263.28 241.28 262.94 241.45 262.58 241.43 262.07 241.24 261.35 241.1 260.72 240.95 260.15 240.84 259.73 240.81 259.33 241.15 258.98 241.66 258.57 242.05 258.13 242.41 257.81 242.66 257.54 242.74 257.08 242.8 256.65 242.9 256.19 243.06 255.76 243.23 255.31 243.45 254.88 243.56 254.69 243.72 254.45 244.02 254.38 244.35 254.36 244.74 254.12 245.17 253.83 245.42 253.62 245.69 253.38 246.02 253.39 246.42 253.61 246.73 253.81 247.06 254 247.45 254.19 247.76 254.36 248.22 254.55 248.6 254.79 248.93 254.98 249.21 255.17 249.39 255.32 249.59 255.59 249.75 255.99 249.82 256.38 249.81 256.83 249.77 257.22 249.67 257.55 249.67 257.83 249.9 257.98 250.31 258.18 250.75 258.41 251.07 258.47 251.51 258.63 251.89 258.81 252.25 259.09 252.63 259.3 253.12 259.47 253.39 259.54 253.58 259.59 253.81 259.69 254.23 259.9 254.64 260.24 254.72 260.3 254.99 260.5 255.12 260.81 255.16 261.22 255.13 261.68 255.12 262.15 255.04 262.49 254.93 262.86 254.75 263.15 254.49 263.42 254.15 263.65 253.95 263.74 253.78 263.92 253.58 264.28 253.33 264.66 253.06 264.94 252.83 265.25 252.56 265.54 252.24 265.93 251.99 266.31 251.8 266.69 251.6 267.11 251.46 267.47 251.34 267.83 251.23 268.27 250.73 268.37 250.39 268.48 250.21 268.56 250.04 268.56 249.68 268.59 249.33 268.57 248.77 268.4 248.5 268.28 248.47 268.33 248.52 268.57 248.67 268.83 248.81 269 248.82 269.22 248.75 269.64 248.75 270.08 248.83 270.51 249.02 270.86 249.35 271.2 249.49 271.28 250.02 270.92 250.54 270.66 250.75 270.49 251.1 270.78 251.47 270.92 251.8 271.07 252.13 271.31 252.49 271.56 253 271.81 253.45 271.97 253.78 272.07 254.23 271.94 254.65 271.68 255.05 271.45 255.3 271.17 255.47 270.96 255.72 270.83 256 270.92 256.23 271.16 256.49 271.43 256.76 271.68 257.07 271.92 257.46 272.27 257.85 272.67 258.13 272.97 258.46 273.32 258.88 273.78 259.15 274.13 259.45 274.51 259.69 274.93 259.8 275.36 259.79 275.81 259.74 276.22 259.58 276.65 259.44 276.94 259.06 277.09 258.62 277.1 258.15 277.11 257.68 277.07 257.36 277.1 256.96 277.8 256.55 278.38 256.16 278.89 255.83 279.26 255.52 279.69 255.24 280.03 255.05 280.45 254.95 280.92 254.96 281.38 255.06 281.79 255.21 282.3 255.31 282.71 255.39 283.14 255.46 283.6 255.54 283.94 255.53 284.29 255.47 284.65 255.13 285.47 254.83 286.08 254.44 286.85 254.08 287.66 253.87 288.42 253.9 289.2 254.07 289.89 253.97 290.34 253.78 290.71 253.53 290.96 253.23 290.77 252.85 290.42 252.47 290.2 252.28 290.17 252.28 290.45 252.27 290.92 252.19 291.28 252.32 291.56 252.59 291.89 252.68 292.28 252.57 292.76 252.31 293.44 252.09 294.06 251.84 294.85 251.57 295.53 251.62 296.09 251.76 296.68 251.7 296.95 252.29 298.09 252.89 299.33 253.51 300.47 253.94 301.36 253.8 301.68 253.71 301.93 253.87 302.54 254.25 303.31 254.44 303.78 254.38 303.81 254.02 303.98 253.61 303.97 253.25 303.64 252.97 303.49 252.53 303.63 252.08 303.93 251.65 304.01 251.2 303.81 250.69 303.6 249.88 303.43 249.25 303.37 248.82 303.43 248.38 303.66 247.95 304.08 247.67 304.63 247.43 305.21 247.07 305.36 246.49 305.25 245.81 305.35 245.37 305.65 245.19 306.01 244.87 306.32 244.5 306.76 244.42 307.28 244.27 307.65 243.86 307.79 243.64 307.99 242.66 308.99 241.95 308.8 241.44 308.79 241.14 308.93 240.64 309.34 239.94 309.6 239.48 309.39 239.15 309.04 239.04 308.7 238.78 308.88 238.24 309.24 237.84 309.19 237.42 308.89 236.76 309.15 236.16 309.58 235.54 310.24 234.77 310.68 234.24 310.98 233.61 311 232.79 310.81 232.31 310.63 231.9 310.88 231.51 310.96 231.13 310.52 230.75 310.39 230.07 310.44 229.49 310.16 229.11 309.66 228.91 308.91 228.83 308.49 228.6 308.3 227.46 307.9 226.25 307.53 225.62 307.38 225.11 307.34 224.74 307.59 224.41 307.94 224.14 307.83 223.58 307.41 222.7 306.77 222.46 306.15 222.3 305.66 221.84 305.4 221.32 305.3 220.85 305.46 220.35 305.58 219.31 305.61 218.34 305.67 217.77 305.64 217.42 305.45 217.05 304.65 216.71 304.43 216.01 304.23 215.54 304.06 214.94 303.75 214.11 303.71 213.36 304.05 212.87 304.06 212.46 303.81 212.04 303.45 211.34 303.01 210.88 302.59 210.33 302.17 209.47 301.64 208.84 301.41 208.28 301.29 207.52 300.94 206.87 300.34 206.29 299.85 205.68 299.9 204.85 300.21 204.07 300.39 203.25 300.44 202.48 300.41 201.31 300.37 200.26 300.22 199.64 299.95 198.18 300.14 197.23 300.26 196.37 300.53 195.72 300.46 195.07 300.18 194.54 300.06 193.93 300.12 193.36 300.26 192.71 300.39 192.72 299.97 192.69 298.71 192.6 297.77 191.94 296.92 190.56 295.32 189.47 293.97 189.55 293.38 189.64 292.54 189.94 291.36 190.59 290.27 191.39 289.91 192.24 289.87 193.18 290.16 194.56 290.6 195.74 290.73 197.08 290.67 197.48 290.52 197.49 290.11 197.2 289.46 196.76 288.26 196.8 287.79 196.13 286.02 196.34 285.38 196.6 284.45 196.69 284.07 196.74 283.77 196.81 283.34 196.91 282.92 196.96 282.54 196.93 282.1 196.84 281.76 196.84 281.29 196.85 280.94 196.86 280.57 196.85 280.23 196.78 279.81 196.71 279.42 196.34 279.58 196.23 279.38 196.08 279.19 195.98 278.95 195.88 278.66 195.79 278.27 195.55 278.15 195.14 277.99 194.63 277.8 194.24 277.66 193.82 277.51 193.43 277.32 193.04 277.12 192.71 276.89 192.39 276.64 192.12 276.3 191.73 276.11 191.34 275.95 190.87 275.77 190.42 275.59 190.02 275.48 189.66 275.29 189.24 275.21 188.85 275.16 188.33 275.04 187.87 274.95 187.45 274.93 186.95 274.91 186.44 274.92 185.92 274.92 185.49 274.92 185.09 274.99 184.69 275.11 184.24 275.21 183.86 275.34 183.4 275.47 182.94 275.53 182.66 275.5 182.29 275.35 182 275.22 181.67 275.01 181.24 274.82 180.88 274.57 180.44 274.32 180.02 274.11 179.64 273.89 179.27 273.71 178.89 273.47 178.46 273.26 178.07 273.07 177.67 272.98 177.31 272.79 176.97 272.57 176.64 272.38 176.31 272.26 175.9 272.25 175.55 272.39 175.18 272.64 174.88 272.94 174.53 273.23 174.1 273.31 173.65 273.29 173.26 273.26 173.02 273.14 173.03 272.82 173.06 272.42 172.99 272.12 172.82 271.75 172.59 271.43 172.35 271.25 172.1 271.11 171.89 270.87 171.71 270.69 171.49 270.42 171.27 270.14 171.12 269.82 171.19 269.52 171.35 269.34 171.55 269.12 171.73 268.82 171.73 268.54 171.64 268.27 171.52 267.97 171.39 267.71 171.24 267.3 171.24 266.95 171.23 266.58 171.26 266.15 171.35 265.8 171.39 265.36 171.46 264.93 171.56 264.53 171.7 264.08 171.79 263.7 171.9 263.41 171.99 263.1 172.11 262.74 172.21 262.44 172.39 262.08 172.6 261.72 172.81 261.4 173.08 261.18 173.38 260.94 173.68 260.71 174 260.46 174.27 260.13 174.55 259.84 174.8 259.57 175.01 259.19 175.26 258.79 175.49 258.44 175.7 258.26 175.97 257.95 176.33 257.55 176.63 257.24 176.98 256.78 176.95 256.61 176.81 256.2 176.75 255.94 176.84 255.67 177.03 255.42 177.18 255.14 177.43 254.81 177.74 254.39 178.02 254 178.4 253.64 178.72 253.6 179.11 253.59 179.48 253.58 179.99 253.63 180.42 253.65 180.86 253.63 181.37 253.75 181.77 253.86 182.2 253.91 182.66 253.93 183.11 253.93 183.53 253.84 183.94 254 184.3 254.05 184.37 253.57 184.42 253.27 184.45 253.03 184.56 252.79 184.83 252.73 185.15 252.71 185.6 252.69 185.96 252.68 186.37 252.63 186.82 252.6 187.19 252.62 187.58 252.54 187.9 252.22 188.04 251.98 188.25 251.66 188.47 251.26 188.66 250.98 188.98 250.63 189.4 250.23 190.24 249.51 190.45 249.06 190.64 248.73 190.71 248.62 Z"/>
</g></svg>