<svg xmlns="http://www.w3.org/2000/svg" version="1.2" baseProfile="tiny" stroke-linecap="round" stroke-linejoin="round" viewBox="148.75 67.83 21.4 22.23"><g xmlns="http://www.w3.org/2000/svg" id="Gatika">
<path d="M 152.06 67.91 152.31 68 152.61 68.18 153.05 68.4 153.22 68.48 153.37 68.91 153.66 68.92 153.64 69.1 153.71 69.24 153.99 69.21 154.05 69.14 154.09 69.12 154.15 69.09 154.19 69.04 154.26 68.95 154.35 68.88 154.39 68.83 154.52 68.7 154.67 68.53 154.93 68.41 155.13 68.45 155.22 68.53 155.26 68.59 155.32 68.66 155.36 68.76 155.42 68.82 157.03 68.73 157.21 68.73 157.44 69.35 158.36 69.75 158.91 69.97 160.07 70.47 160.65 70.77 162.47 72.01 162.94 72.32 163.63 72.66 164.36 73.26 164.62 73.36 164.64 73.2 164.7 73.14 164.78 73.16 164.82 73.19 164.94 73.36 165.24 73.49 165.41 73.62 165.5 73.6 165.54 73.5 165.56 73.33 165.59 73.22 165.64 73.17 165.7 73.15 165.86 73.15 166.02 73.09 166.15 72.96 166.21 72.9 166.29 72.93 166.35 73.02 166.48 73.05 166.59 73.13 166.59 73.23 166.55 73.29 166.59 73.4 166.69 73.45 166.86 73.42 166.99 73.43 167.12 73.51 167.21 73.48 167.3 73.42 167.37 73.43 167.37 73.48 167.45 73.61 167.47 73.76 167.25 74.33 167.24 74.48 167.3 74.55 167.51 74.67 167.56 74.77 167.55 74.86 167.51 74.92 167.36 74.98 167.32 75.03 167.22 75.22 167.17 75.33 167.11 75.66 167.08 75.86 167.11 75.94 167.16 75.99 167.26 76.12 167.42 76.52 167.61 76.7 167.85 77.13 167.96 77.23 168.1 77.29 168.26 77.32 168.46 77.33 168.64 77.28 168.71 77.22 168.77 77.07 168.89 76.98 169 76.93 169.15 76.91 169.35 76.88 169.56 78.16 170.15 78.84 169.11 79.78 167.67 80.2 166.36 80.63 165.76 81.8 165.47 82.42 165.5 82.66 165.54 82.9 165.62 83.19 165.65 83.33 165.6 83.55 165.89 83.77 166.01 83.91 166.14 84.17 166.21 84.51 166.47 85.02 166.53 85.21 166.73 85.6 166.7 85.64 166.63 85.67 166.5 85.85 166.25 85.95 166.04 85.96 165.87 85.86 165.7 85.82 165.55 85.8 165.48 85.83 165.3 85.99 165.24 86.06 165.11 86.29 165.05 86.49 165.04 86.6 164.93 86.79 164.89 86.83 164.08 86.6 164 86.67 163.58 86.52 163.63 86.8 163.76 86.97 163.79 87.06 163.76 87.17 163.75 87.33 163.5 87.35 163.32 87.44 163.18 87.53 163.13 87.54 162.77 87.54 162.54 87.5 162.15 87.49 161.96 87.69 161.93 88.34 161.77 88.41 161.62 88.45 161.49 88.54 161.42 88.63 161.38 88.7 161.32 88.94 161.21 89.13 161.01 89.34 160.7 89.62 160.35 90.06 159.8 89.64 159.76 89.61 159.41 89.37 159 89.01 158.77 88.88 158.61 88.77 159.17 87.3 159.2 86.95 159.38 85.79 159.44 85.27 159.32 84.43 159.39 84.28 159.46 84.26 159.5 84.25 159.56 84.24 159.57 84.24 159.69 84.18 159.8 84.17 159.85 84.14 159.88 84.13 159.9 84.12 159.95 84.12 160.15 84.1 160.23 84.01 160.26 83.99 160.27 83.99 160.32 83.97 160.36 83.96 160.38 83.93 160.33 83.77 160.33 83.71 160.23 83.55 160.2 83.44 160.15 83.35 160.14 83.34 160.13 83.34 160.12 83.34 160.12 83.34 160.11 83.33 160.1 83.33 160.09 83.32 160.08 83.32 160.08 83.32 160.07 83.31 160.06 83.31 160.05 83.31 160.05 83.3 160.04 83.3 160.03 83.29 160.03 83.29 160.02 83.29 160.01 83.28 160.01 83.27 160 83.27 159.99 83.27 159.98 83.26 159.97 83.25 159.97 83.25 159.96 83.24 159.95 83.23 159.95 83.23 159.94 83.22 159.94 83.22 159.93 83.21 159.92 83.2 159.92 83.2 159.91 83.19 159.91 83.18 159.9 83.18 159.9 83.17 159.89 83.16 159.88 83.16 159.87 83.15 159.86 83.15 159.85 83.14 159.8 83.09 159.77 83.06 159.74 83.01 159.7 82.92 159.7 82.91 159.69 82.91 159.68 82.9 159.68 82.9 159.67 82.89 159.66 82.88 159.66 82.88 159.65 82.87 159.64 82.87 159.63 82.86 159.62 82.85 159.62 82.85 159.61 82.85 159.61 82.84 159.6 82.83 159.59 82.83 159.58 82.82 159.58 82.81 159.57 82.8 159.57 82.79 159.57 82.78 159.56 82.77 159.56 82.76 159.55 82.75 159.55 82.74 159.55 82.73 159.54 82.72 159.54 82.71 159.54 82.7 159.53 82.7 159.53 82.69 159.52 82.68 159.52 82.67 159.51 82.66 159.5 82.65 159.5 82.64 159.49 82.63 159.48 82.62 159.47 82.61 159.47 82.6 159.46 82.59 159.45 82.58 159.44 82.57 159.43 82.56 159.43 82.55 159.42 82.54 159.41 82.52 159.4 82.51 159.39 82.5 159.39 82.49 159.38 82.48 159.38 82.48 159.37 82.47 159.37 82.46 159.36 82.45 159.36 82.44 159.36 82.44 159.35 82.43 159.35 82.42 159.35 82.41 159.35 82.4 159.34 82.39 159.34 82.38 159.33 82.38 159.32 82.38 159.31 82.37 159.3 82.36 159.29 82.35 159.28 82.34 159.27 82.34 159.26 82.33 159.25 82.32 159.24 82.31 159.23 82.3 159.21 82.29 159.2 82.28 159.19 82.27 159.18 82.26 159.17 82.25 159.16 82.24 159.15 82.24 159.14 82.23 159.13 82.22 159.12 82.21 159.12 82.2 159.11 82.19 159.1 82.18 159.09 82.17 159.09 82.16 159.08 82.15 159.07 82.14 159.06 82.13 159.06 82.12 159.05 82.11 159.05 82.1 159.04 82.09 159.04 82.08 159.04 82.07 159.03 82.06 159.03 82.05 159.02 82.04 159.02 82.03 159.02 82.03 159.01 81.99 159 81.95 158.99 81.87 158.99 81.86 158.99 81.85 158.99 81.83 158.98 81.82 158.98 81.81 158.98 81.8 158.98 81.79 158.98 81.78 158.97 81.77 158.97 81.76 158.97 81.76 158.97 81.75 158.97 81.74 158.96 81.73 158.96 81.72 158.96 81.72 158.96 81.71 158.95 81.7 158.95 81.7 158.95 81.69 158.95 81.68 158.94 81.68 158.94 81.67 158.94 81.66 158.93 81.65 158.92 81.64 158.92 81.63 158.91 81.63 158.89 81.59 158.82 81.62 158.81 81.62 158.8 81.62 158.79 81.61 158.78 81.61 158.77 81.6 158.76 81.6 158.76 81.59 158.75 81.58 158.75 81.57 158.74 81.56 158.74 81.55 158.73 81.54 158.73 81.53 158.73 81.53 158.72 81.52 158.69 81.45 158.69 81.44 158.68 81.43 158.68 81.42 158.67 81.41 158.67 81.41 158.66 81.4 158.66 81.39 158.65 81.38 158.65 81.37 158.64 81.37 158.64 81.36 158.63 81.36 158.63 81.35 158.62 81.34 158.62 81.33 158.61 81.32 158.61 81.3 158.6 81.3 158.6 81.29 158.59 81.28 158.59 81.27 158.59 81.26 158.59 81.25 158.58 81.24 158.58 81.22 158.58 81.21 158.58 81.2 158.58 81.18 158.57 81.17 158.57 81.15 158.57 81.14 158.57 81.13 158.57 81.11 158.57 81.1 158.57 81.09 158.57 81.07 158.57 81.06 158.57 81.04 158.58 81.03 158.58 81.02 158.58 81.01 158.58 80.99 158.58 80.97 158.59 80.95 158.59 80.93 158.6 80.91 158.6 80.89 158.6 80.88 158.61 80.86 158.61 80.84 158.61 80.83 158.61 80.81 158.62 80.8 158.62 80.79 158.62 80.77 158.63 80.76 158.63 80.75 158.63 80.74 158.64 80.73 158.64 80.71 158.65 80.7 158.65 80.68 158.65 80.67 158.66 80.66 158.67 80.64 158.67 80.63 158.68 80.62 158.68 80.61 158.69 80.6 158.69 80.59 158.69 80.58 158.7 80.57 158.7 80.57 158.71 80.56 158.72 80.55 158.72 80.54 158.73 80.54 158.73 80.53 158.74 80.53 158.75 80.52 158.75 80.51 158.76 80.51 158.77 80.5 158.77 80.5 158.78 80.49 158.79 80.48 158.8 80.48 158.81 80.47 158.81 80.47 158.82 80.46 158.83 80.45 158.84 80.45 158.84 80.44 158.85 80.43 158.86 80.42 158.86 80.42 158.87 80.41 158.88 80.4 158.88 80.4 158.89 80.39 158.9 80.38 158.9 80.38 158.91 80.37 158.92 80.37 158.93 80.36 158.94 80.35 158.94 80.34 158.95 80.34 158.99 80.28 159.02 80.24 159.04 80.19 159.06 80.12 159.06 80.06 159.06 79.83 159.04 79.78 159.01 79.72 159.01 79.69 158.99 79.7 158.81 79.69 158.7 79.69 158.65 79.68 158.59 79.65 158.54 79.66 158.5 79.77 158.46 79.77 158.4 79.77 158.31 79.74 158.25 79.77 158.08 79.75 157.92 79.72 157.75 79.71 157.72 79.71 157.5 79.67 157.43 79.66 157.36 79.65 157.26 79.66 157.21 79.69 157.16 79.74 157.14 79.74 157.11 79.75 157.05 79.75 156.94 79.7 156.92 79.69 156.88 79.7 156.59 79.8 156.44 79.88 156.4 79.91 156.34 79.93 156.22 79.95 156.18 79.98 156.07 80.11 156.05 80.15 156.03 80.21 156.03 80.24 156.04 80.32 155.91 80.32 155.74 80.31 155.68 80.31 155.56 80.33 155.5 80.34 155.44 80.34 155.37 80.34 155.33 80.35 155.32 80.35 155.26 80.36 155.22 80.37 155.19 80.38 155.16 80.39 155.15 80.4 155.11 80.43 155.1 80.44 155 80.51 154.32 80.21 154.05 80.14 153.83 80.01 153.64 79.73 153.55 79.56 153.3 79.33 153.05 78.86 152.57 77.81 152.24 77.31 152.21 77.23 152.22 77.17 152.27 77.11 152.32 77.03 152.35 76.97 152.4 76.83 152.45 76.7 152.47 76.67 152.48 76.64 152.48 76.62 152.49 76.58 152.49 76.55 152.49 76.52 152.48 76.49 152.47 76.45 152.42 76.37 152.34 76.25 152.25 76.09 152.24 76.04 152.24 76.02 152.28 75.87 152.3 75.76 152.32 75.72 151.9 75.52 151.72 75.52 151.66 75.51 151.61 75.5 151.53 75.49 151.44 75.45 151.35 75.41 151.05 75.24 151.04 75.24 150.96 75.21 150.89 75.27 150.83 75.28 150.78 75.29 150.68 75.28 150.66 75.28 150.63 75.27 150.42 75.21 150.26 75.12 150.15 75.01 149.97 74.84 149.96 74.83 149.78 74.58 149.87 74.45 149.96 74.36 149.46 73.9 148.78 73.25 149.11 72.06 149.46 71.29 149.62 71.53 150.74 70.74 150.61 70.57 150.59 70.45 150.59 70.44 150.6 70.43 150.6 70.42 150.6 70.41 150.6 70.39 150.6 70.37 150.6 70.36 150.61 70.34 150.61 70.33 150.61 70.31 150.62 70.3 150.62 70.28 150.63 70.27 150.63 70.25 150.64 70.24 150.65 70.22 150.65 70.21 150.66 70.2 150.67 70.18 150.68 70.17 150.68 70.16 150.69 70.15 150.7 70.14 150.71 70.13 150.72 70.12 150.73 70.12 150.74 70.11 150.75 70.1 150.77 70.09 150.79 70.08 150.8 70.08 151.12 69.94 151.13 69.94 151.14 69.93 151.15 69.93 151.16 69.92 151.17 69.92 151.18 69.91 151.19 69.91 151.2 69.9 151.21 69.9 151.22 69.89 151.24 69.88 151.25 69.87 151.26 69.87 151.27 69.86 151.27 69.86 151.28 69.85 151.29 69.85 151.29 69.84 151.3 69.84 151.3 69.83 151.31 69.82 151.32 69.82 151.32 69.81 151.33 69.8 151.33 69.79 151.34 69.79 151.35 69.78 151.35 69.77 151.36 69.76 151.36 69.76 151.37 69.75 151.37 69.74 151.38 69.73 151.38 69.72 151.38 69.71 151.39 69.7 151.39 69.69 151.4 69.68 151.4 69.67 151.4 69.66 151.41 69.65 151.41 69.65 151.41 69.64 151.42 69.62 151.42 69.61 151.43 69.6 151.43 69.59 151.43 69.57 151.44 69.56 151.44 69.53 151.45 69.51 151.46 69.48 151.46 69.45 151.47 69.43 151.48 69.4 151.49 69.37 151.49 69.34 151.5 69.31 151.51 69.28 151.51 69.24 151.52 69.21 151.53 69.17 151.53 69.13 151.54 69.1 151.55 69.06 151.55 69.02 151.56 68.98 151.57 68.93 151.58 68.89 151.58 68.84 151.59 68.8 151.6 68.75 151.61 68.7 151.61 68.68 151.61 68.65 151.62 68.62 151.62 68.6 151.63 68.57 151.63 68.54 151.64 68.53 151.64 68.51 151.64 68.5 151.65 68.49 151.65 68.47 151.65 68.46 151.66 68.45 151.66 68.43 151.66 68.42 151.67 68.41 151.67 68.4 151.67 68.39 151.68 68.38 151.68 68.36 151.69 68.35 151.69 68.34 151.7 68.33 151.7 68.31 151.71 68.3 151.71 68.29 151.71 68.28 151.72 68.26 151.73 68.24 151.74 68.23 151.74 68.21 151.75 68.19 151.76 68.17 151.77 68.16 151.78 68.13 151.79 68.11 151.8 68.09 151.82 68.07 151.83 68.05 151.84 68.04 151.85 68.02 151.85 68.01 151.86 67.99 151.87 67.98 151.88 67.97 151.89 67.95 151.91 67.94 151.92 67.92 151.93 67.9 151.94 67.89 151.95 67.87 151.97 67.85 151.99 67.89 152.06 67.91 Z"/>
</g></svg>