<svg xmlns="http://www.w3.org/2000/svg" version="1.2" baseProfile="tiny" stroke-linecap="round" stroke-linejoin="round" viewBox="674.7 332.87 20.55 20.57"><g xmlns="http://www.w3.org/2000/svg" id="Gazteluberri">
<path d="M 675.86 335.8 676.1 335.79 676.4 335.79 676.66 335.68 676.75 335.65 676.78 335.63 676.83 335.61 676.89 335.6 677 335.58 677.17 335.54 677.38 335.51 677.51 335.49 677.52 335.49 677.69 335.46 677.97 335.42 678.17 335.4 678.3 335.38 678.46 335.37 678.59 335.37 678.8 335.36 678.95 335.35 679.07 335.35 679.17 335.35 679.21 335.35 679.32 335.36 679.43 335.37 679.47 335.37 679.5 335.39 679.59 335.44 679.74 335.53 679.9 335.62 680.03 335.7 680.09 335.74 680.14 335.76 680.23 335.81 680.27 335.83 680.31 335.84 680.38 335.84 680.53 335.84 680.68 335.84 680.74 335.84 680.79 335.84 680.86 335.83 681.01 335.81 681.99 335.67 682.1 335.66 682.15 335.65 682.18 335.65 682.28 335.65 682.47 335.65 682.63 335.67 683.48 335.75 683.49 335.75 683.56 335.76 683.64 335.76 683.75 335.75 683.91 335.75 683.97 335.74 684 335.75 684.06 335.76 684.17 335.77 684.26 335.79 684.29 335.79 684.32 335.79 684.42 335.76 684.51 335.73 684.56 335.71 684.64 335.66 684.73 335.62 684.87 335.56 685 335.5 685.06 335.47 685.1 335.45 685.19 335.4 685.25 335.36 685.3 335.33 685.44 335.24 685.6 335.1 685.79 334.95 685.99 334.78 686.08 334.71 686.15 334.63 686.19 334.57 686.23 334.51 686.25 334.46 686.28 334.39 686.3 334.3 686.33 334.21 686.37 334.1 686.44 333.98 686.51 333.87 686.54 333.82 686.55 333.82 686.57 333.79 686.6 333.77 686.62 333.76 686.64 333.75 686.65 333.75 686.67 333.75 686.7 333.76 686.77 333.8 686.88 333.85 686.94 333.88 687.01 333.93 687.09 333.99 687.17 334.03 687.23 334.04 687.3 334.05 687.42 334.07 687.5 334.08 687.62 334.09 687.76 334.12 687.91 334.13 687.95 334.14 688.12 334.17 688.34 334.2 688.51 334.23 688.72 334.26 688.98 334.28 689.19 334.29 689.44 334.24 689.67 334.19 689.87 334.11 689.94 334.08 690.06 334.05 690.16 334.02 690.29 333.98 690.47 333.92 690.64 333.87 690.81 333.81 690.97 333.76 691.18 333.69 691.35 333.65 691.54 333.59 691.94 333.39 692.25 333.23 692.93 333.09 693.63 332.89 693.66 333.4 693.69 333.79 693.7 333.87 693.71 333.96 693.71 334.2 693.7 334.41 693.69 334.52 693.68 334.66 693.66 334.92 693.66 335.03 693.68 335.18 693.71 335.38 693.73 335.51 693.74 335.57 693.77 335.73 693.8 335.91 693.82 336.04 693.86 336.22 693.86 336.23 693.89 336.31 693.97 336.58 694.09 336.96 694.17 337.25 694.21 337.39 694.25 337.5 694.28 337.59 694.44 337.85 694.65 338.23 694.73 338.37 694.82 338.53 694.83 338.55 694.83 338.56 694.93 338.73 694.98 338.83 694.99 338.86 695.06 339 695.08 339.05 695.1 339.13 695.11 339.19 695.13 339.29 695.13 339.38 695.14 339.43 695.17 339.56 695.18 339.61 695.19 339.72 695.21 339.79 695.22 339.81 695.23 339.87 695.24 340.04 695.25 340.17 695.23 340.3 695.21 340.42 695.17 340.53 695.13 340.62 695.12 340.64 695.04 340.83 694.94 341.08 694.85 341.34 694.81 341.43 694.79 341.49 694.76 341.55 694.76 341.56 694.73 341.63 694.68 341.72 694.63 341.81 694.54 341.94 694.52 341.97 694.39 342.18 694.3 342.34 694.23 342.46 694.15 342.63 694.07 342.85 694.04 342.94 693.99 343.04 693.69 343.87 693.64 344 693.63 344.07 693.67 344.77 693.68 344.9 693.68 344.92 693.67 345.06 693.67 345.09 693.67 345.14 693.65 345.4 693.64 345.78 693.64 346 693.65 346.26 693.65 346.35 693.85 346.87 693.88 346.93 693.89 347.01 693.96 347.33 694.03 347.63 694.07 347.83 694.11 348.02 694.17 348.28 694.23 348.51 694.28 348.69 694.29 348.74 694.62 348.75 694.68 348.93 694.63 349.18 694.5 349.75 694.43 350.1 693.95 350.35 693.32 350.68 693.26 350.71 692.84 350.93 692.78 350.97 692.5 351.11 692.48 351.12 692.11 351.21 692.01 351.24 692 351.25 691.75 351.62 691.74 351.63 691.74 351.64 691.69 351.7 691.65 351.75 691.56 351.84 691.42 351.97 691.31 352.08 691.08 352.32 690.76 352.61 690.45 352.87 690.37 352.94 690.25 353.06 690.2 353.09 690.18 353.1 690.16 353.1 690.14 353.1 690.09 353.1 689.91 353.08 689.51 353.06 689.29 353.03 689.02 353.22 688.79 353.12 688.26 353.1 688.02 352.98 687.7 353.01 687.37 353.06 687.07 352.94 686.97 352.9 686.88 352.87 686.82 352.84 686.79 352.84 686.76 352.84 686.72 352.85 686.62 352.88 686.48 352.93 686.37 352.99 686.28 353.04 686.18 353.08 686.11 353.11 686.04 353.13 686 353.13 685.93 353.12 685.86 353.11 685.8 353.1 685.74 353.1 685.68 353.1 685.61 353.11 685.55 353.12 685.52 353.12 685.47 353.1 685.4 353.06 685.34 353.04 685.33 353.04 685.28 353.03 685.19 353.03 685.1 353.05 685.07 353.06 685.05 353.08 685.03 353.1 684.98 353.15 684.9 353.23 684.85 353.28 684.78 353.37 684.77 353.37 684.73 353.42 684.71 353.42 684.69 353.41 684.66 353.39 684.63 353.37 684.57 353.34 684.45 353.28 684.29 353.21 684.26 353.19 684.19 353.15 684.12 353.12 684 353.06 683.86 353.01 683.77 352.98 683.72 352.96 683.58 352.92 683.42 352.87 683.32 352.85 683.2 352.82 683.06 352.77 682.93 352.74 682.83 352.69 682.75 352.65 682.68 352.6 682.62 352.55 682.56 352.5 682.52 352.45 682.49 352.43 682.47 352.42 682.43 352.41 682.32 352.4 682.24 352.39 682.22 352.38 682.19 352.35 682.08 352.26 682 352.2 681.97 352.18 681.95 352.17 681.88 352.13 681.76 352.08 681.63 352.04 681.52 351.99 681.44 351.95 681.32 351.86 680.9 351.58 680.81 351.52 680.76 351.5 680.7 351.46 680.69 351.46 680.68 351.46 680.66 351.45 680.62 351.44 680.55 351.44 680.48 351.43 680.45 351.43 680.4 351.44 680.33 351.44 680.26 351.44 680.14 351.45 680.01 351.46 679.89 351.46 679.75 351.47 679.72 351.47 679.61 351.47 679.51 351.48 679.42 351.49 679.34 351.51 678.23 351.69 676.48 351.64 676.41 351.56 676.37 351.53 676.32 351.49 676.26 351.46 676.22 351.44 676.2 351.44 676.18 351.44 676.11 351.45 676.03 351.47 675.96 351.48 675.84 351.5 675.83 351.5 675.74 351.51 675.71 351.52 675.57 351.53 675.41 351.55 675.31 351.56 675.3 351.46 675.27 351.26 675.23 351.01 675.2 350.76 675.16 350.56 675.13 350.3 675.09 349.97 675.07 349.7 675.06 349.55 675.06 349.53 675.06 349.51 675.05 349.4 675.05 349.24 675.04 349.05 675.03 348.91 675.04 348.68 675.04 348.44 675.05 348.15 675.06 347.94 675.07 347.87 675.06 347.77 675.06 347.7 675.06 347.64 675.07 347.61 675.07 347.52 675.07 347.46 675.06 347.34 675.04 347.19 675.04 347.08 675.05 346.83 675.05 346.59 675.05 346.51 675.04 346.39 675.03 346.17 675.02 345.8 675 345.65 674.97 345.43 674.96 345.29 674.95 345.25 674.94 345.24 674.94 345.23 674.94 345.22 674.93 345.19 674.92 345.16 674.91 345.12 674.88 345.03 674.87 344.98 674.87 344.92 674.87 344.87 674.86 344.81 674.85 344.75 674.81 344.64 674.79 344.56 674.77 344.52 674.76 344.47 674.75 344.43 674.73 344.33 674.72 344.25 674.72 344.24 674.71 344.2 674.71 344.15 674.7 344.09 674.7 344.08 674.7 344.03 674.7 343.98 674.71 343.92 674.71 343.84 674.72 343.77 674.73 343.7 674.74 343.59 674.75 343.49 674.78 343.38 674.79 343.22 674.82 343.06 674.83 342.97 674.85 342.85 674.89 342.71 674.92 342.58 674.94 342.5 674.97 342.4 674.98 342.33 675 342.27 675.02 342.14 675.04 342.07 675.05 341.99 675.06 341.94 675.07 341.89 675.08 341.84 675.08 341.84 675.11 341.73 675.14 341.6 675.18 341.47 675.23 341.29 675.26 341.11 675.29 341.01 675.31 340.87 675.32 340.81 675.33 340.75 675.35 340.62 675.35 340.59 675.37 340.43 675.39 340.32 675.4 340.21 675.41 340.17 675.41 340.15 675.42 340.11 675.44 340.05 675.46 339.96 675.48 339.88 675.5 339.83 675.51 339.78 675.56 339.61 675.6 339.47 675.6 339.46 675.65 339.32 675.65 339.29 675.66 339.28 675.66 339.27 675.66 339.23 675.67 339.2 675.69 339.13 675.69 339.1 675.7 339.02 675.7 339 675.7 338.89 675.71 338.67 675.73 338.4 675.74 338.33 675.75 338.2 675.77 337.84 675.77 337.76 675.79 337.48 675.8 337.27 675.83 336.74 675.83 336.67 675.84 336.42 675.85 336.35 675.86 335.8 Z"/>
</g></svg>