<svg xmlns="http://www.w3.org/2000/svg" version="1.2" baseProfile="tiny" stroke-linecap="round" stroke-linejoin="round" viewBox="419.23 287.65 42.27 51.95"><g xmlns="http://www.w3.org/2000/svg" id="Gesalatz">
<path d="M 459.1 292.86 459.15 292.95 459.2 293.01 459.25 293.08 459.29 293.12 459.31 293.14 459.36 293.2 459.44 293.28 459.52 293.36 459.61 293.46 459.68 293.52 459.76 293.6 459.82 293.66 459.89 293.74 459.97 293.82 460.05 293.9 460.13 293.98 460.2 294.04 460.25 294.08 460.32 294.13 460.41 294.19 460.4 294.24 460.39 294.28 460.38 294.31 460.38 294.34 460.39 294.36 460.39 294.39 460.42 294.42 460.45 294.46 460.49 294.5 460.53 294.52 460.55 294.54 460.57 294.56 460.58 294.61 460.59 294.68 460.6 294.72 460.62 294.79 460.63 294.84 460.65 294.91 460.66 294.97 460.68 295.02 460.69 295.05 460.71 295.11 460.73 295.15 460.75 295.21 460.78 295.26 460.8 295.32 460.83 295.35 460.86 295.4 460.9 295.46 460.93 295.52 460.97 295.57 461 295.62 461.04 295.67 461.07 295.7 461.11 295.74 461.15 295.77 461.18 295.82 461.04 295.92 460.93 296.01 460.85 296.07 460.76 296.14 460.71 296.18 460.66 296.22 460.63 296.24 460.6 296.27 460.57 296.31 460.5 296.41 460.42 296.49 460.35 296.58 460.29 296.67 460.23 296.75 460.17 296.82 460.12 296.89 460.09 296.92 460.08 296.93 460.09 296.97 460.1 296.99 460.11 297 460.15 297.08 460.19 297.17 460.23 297.26 460.28 297.39 460.32 297.48 460.36 297.6 460.4 297.72 460.45 297.85 460.49 297.95 460.53 298.06 460.58 298.21 460.64 298.33 460.68 298.43 460.72 298.52 460.76 298.6 460.83 298.75 460.89 298.86 460.92 298.95 460.97 299.06 461.02 299.15 461.28 299.66 461.3 299.81 461.32 299.93 461.34 300.08 461.37 300.24 461.39 300.35 461.41 300.46 461.43 300.64 461.46 300.78 461.47 300.85 461.47 300.88 461.47 300.93 461.47 301.04 461.47 301.14 461.47 301.24 461.47 301.43 461.47 301.53 461.47 301.62 461.48 301.7 461.47 301.74 461.47 301.78 461.45 301.82 461.44 301.86 461.43 301.9 461.41 301.96 461.39 302.03 461.37 302.09 461.35 302.15 461.29 302.16 461.22 302.18 461.16 302.2 461.09 302.22 461.03 302.24 460.98 302.27 460.92 302.29 460.86 302.32 460.8 302.35 460.76 302.37 460.69 302.42 460.64 302.45 460.6 302.47 460.57 302.49 460.54 302.51 460.51 302.52 460.49 302.54 460.47 302.56 460.45 302.58 460.42 302.62 460.4 302.66 460.37 302.71 460.34 302.75 460.32 302.79 460.3 302.84 460.27 302.88 460.25 302.91 460.2 303.02 460.17 303.08 460.14 303.14 460.11 303.22 460.09 303.27 460.06 303.34 460.05 303.38 460.04 303.41 460.02 303.47 459.98 303.54 459.96 303.6 459.93 303.66 459.91 303.71 459.9 303.75 459.88 303.79 459.87 303.83 459.87 303.87 459.86 303.93 459.85 303.97 459.85 304.01 459.84 304.06 459.84 304.09 459.84 304.13 459.83 304.18 459.83 304.22 459.84 304.28 459.84 304.29 459.84 304.35 459.85 304.42 459.86 304.49 459.86 304.58 459.87 304.66 459.87 304.72 459.87 304.78 459.87 304.85 459.87 304.92 459.87 305.01 459.87 305.08 459.87 305.14 459.87 305.19 459.87 305.25 459.88 305.32 459.88 305.38 459.9 305.43 459.9 305.46 459.91 305.48 459.91 305.5 459.9 305.53 459.89 305.58 459.88 305.64 459.86 305.71 459.84 305.77 459.81 305.84 459.78 305.92 459.75 306 459.72 306.09 459.67 306.21 459.63 306.3 459.57 306.41 459.53 306.5 459.49 306.59 459.48 306.63 459.46 306.68 459.44 306.73 459.4 306.72 459.22 306.71 459.01 306.69 458.81 306.67 458.5 306.65 458.32 306.63 458.01 306.6 457.86 306.59 457.81 306.58 457.7 306.58 457.51 306.62 457.35 306.65 457.3 306.66 457.27 306.67 457.24 306.69 457.21 306.72 457.05 306.86 456.88 306.77 456.51 306.51 456.19 306.3 455.99 306.17 455.94 306.14 455.8 306.08 455.67 306.02 455.57 305.99 455.28 305.95 455.26 305.95 455.17 305.94 455.03 305.91 455.02 305.9 455 305.89 454.96 305.87 454.82 305.77 454.72 305.7 454.59 305.61 454.59 305.6 454.45 305.46 454.27 305.27 454.23 305.23 454.14 305.21 454.1 305.03 454.07 304.94 454.03 304.8 454.01 304.75 453.99 304.7 453.98 304.68 453.96 304.62 453.93 304.54 453.89 304.47 453.82 304.36 453.75 304.23 453.69 304.12 453.63 304 453.62 303.98 453.57 303.89 453.56 303.88 453.56 303.87 453.5 303.75 453.47 303.69 453.46 303.61 453.43 303.46 453.42 303.33 453.38 303.03 453.37 302.88 453.36 302.77 453.36 302.73 453.36 302.71 453.36 302.7 453.36 302.68 453.36 302.65 453.35 302.57 453.35 302.55 453.35 302.54 453.35 302.48 453.35 302.47 453.35 302.46 453.35 302.45 453.35 302.41 453.35 302.3 453.36 302.29 453.36 302.27 453.36 302.26 453.37 302.23 453.37 302.21 453.38 302.18 453.39 302.12 453.42 302 453.44 301.9 453.46 301.78 453.49 301.65 453.51 301.54 453.53 301.42 453.55 301.37 453.56 301.32 453.58 301.21 453.6 301.1 453.62 301 453.63 300.99 453.67 300.87 453.69 300.83 453.69 300.81 453.7 300.81 453.7 300.8 453.69 300.78 453.68 300.76 453.66 300.71 453.66 300.68 453.65 300.63 453.65 300.61 453.65 300.6 453.66 300.58 453.66 300.56 453.76 300.44 453.79 300.4 453.94 300.2 454.05 300.05 454.02 299.93 453.96 299.68 453.95 299.63 453.94 299.59 453.94 299.58 453.94 299.57 453.93 299.55 453.91 299.47 453.91 299.45 453.9 299.42 453.83 299.14 453.82 299.13 453.82 299.1 453.81 299.08 453.8 299.04 453.8 299.03 453.75 298.87 453.75 298.86 453.72 298.76 453.71 298.69 453.69 298.66 453.68 298.62 453.66 298.49 453.65 298.48 453.63 298.37 453.63 298.3 453.64 298.25 453.65 298.2 453.65 298.07 453.65 298.06 453.65 297.9 453.65 297.89 453.65 297.87 453.67 297.8 453.69 297.6 453.71 297.47 453.72 297.41 453.72 297.4 453.73 297.35 453.73 297.32 453.73 297.28 453.73 297.24 453.73 297.23 453.72 297.13 453.72 297.11 453.72 297.11 453.71 297.04 453.7 296.9 453.7 296.88 453.7 296.85 453.69 296.78 453.68 296.66 453.67 296.65 453.67 296.64 453.65 296.48 453.63 296.36 453.63 296.34 453.61 296.24 453.6 296.16 453.58 296.07 453.57 296.06 453.56 296.06 453.56 296.05 453.52 296.02 453.52 295.94 453.53 295.76 453.55 295.54 453.57 295.21 453.52 295.1 453.51 295.08 453.51 295.07 453.38 294.78 453.35 294.7 453.3 294.57 453.17 294.24 453.16 294.22 453.07 294 453.08 293.97 453.08 293.85 453.1 293.59 453.12 293.39 452.92 292.92 452.81 292.67 452.89 292.53 453.01 292.36 453.12 292.21 453.22 292.1 453.3 292.01 453.35 291.89 453.41 291.75 453.47 291.57 453.5 291.45 453.51 291.45 454.12 291.6 454.14 291.6 454.16 291.61 454.2 291.7 454.26 291.85 454.32 291.98 454.38 292.12 454.44 292.22 454.5 292.34 454.57 292.47 454.63 292.57 454.69 292.67 454.75 292.72 454.79 292.76 454.84 292.8 454.89 292.81 454.94 292.83 455 292.83 455.05 292.83 455.1 292.83 455.15 292.83 455.2 292.81 455.25 292.79 455.31 292.76 455.38 292.72 455.45 292.69 455.51 292.67 455.57 292.67 455.63 292.68 455.68 292.71 455.74 292.71 455.79 292.71 455.86 292.69 455.93 292.67 456.01 292.63 456.13 292.56 456.1 292.48 456.17 292.44 456.25 292.4 456.31 292.39 456.37 292.38 456.43 292.37 456.48 292.37 456.5 292.38 456.6 292.39 456.68 292.4 456.78 292.42 456.86 292.43 456.97 292.47 457.06 292.51 457.13 292.54 457.18 292.57 457.24 292.61 457.27 292.62 457.3 292.63 457.33 292.63 457.36 292.66 457.4 292.7 457.42 292.73 457.44 292.74 457.49 292.75 457.54 292.76 457.58 292.77 457.62 292.78 457.7 292.8 457.76 292.82 457.84 292.83 457.9 292.84 458.02 292.84 458.06 292.85 458.13 292.87 458.19 292.89 458.26 292.9 458.31 292.9 458.35 292.9 458.53 292.87 458.73 292.85 458.87 292.85 459.02 292.86 459.1 292.86 Z M 419.24 291.49 420.08 290.95 420.44 290.84 420.57 290.79 420.68 290.76 420.82 290.71 420.98 290.63 421.13 290.57 421.28 290.47 421.39 290.39 421.41 290.38 421.42 290.37 421.48 290.31 421.65 290.14 421.75 290.04 421.84 289.95 421.92 289.87 422.02 289.78 422.11 289.68 422.19 289.61 422.32 289.51 422.51 289.36 422.66 289.24 422.75 289.17 422.78 289.14 422.93 289.02 423.04 288.93 423.13 288.81 423.2 288.71 423.34 288.56 423.77 288.09 424.36 288.1 425.01 288.44 425.08 288.48 425.09 288.48 425.1 288.49 425.17 288.52 425.57 288.83 425.91 289.08 426.04 289.18 426.21 289.32 426.94 290 427.34 290.12 427.49 290.3 427.71 290.54 427.72 290.54 427.77 290.54 427.86 290.56 427.97 290.6 428.13 290.65 428.24 290.69 428.34 290.73 428.47 290.76 428.59 290.78 428.7 290.79 428.85 290.79 428.97 290.78 429.06 290.76 429.18 290.72 429.31 290.68 429.37 290.66 429.4 290.63 429.45 290.55 429.49 290.5 429.55 290.38 429.59 290.27 429.64 290.1 429.67 289.98 429.69 289.89 429.76 289.59 429.79 289.43 429.88 289.13 429.96 288.87 429.97 288.83 430.07 288.51 430.09 288.46 430.11 288.42 430.17 288.33 430.23 288.24 430.27 288.2 430.36 288.13 430.47 288.05 430.75 287.84 430.79 287.81 431.01 287.67 431.15 287.89 431.39 288.27 431.45 288.36 431.59 288.56 431.72 288.76 431.79 288.88 431.85 288.98 432 289.3 432.17 289.69 432.48 290.36 432.56 290.54 432.59 290.6 432.68 290.69 432.83 290.85 432.94 290.97 433 291.02 433.03 291.05 433.06 291.02 433.16 290.84 433.23 290.73 433.37 290.51 433.5 290.28 433.77 289.7 434.34 289.66 434.59 289.64 434.7 289.63 434.88 289.62 434.91 289.6 434.97 289.55 435.03 289.5 435.11 289.37 435.16 289.29 435.25 289.12 435.27 289.08 435.36 289.15 435.46 289.22 435.56 289.27 435.64 289.3 435.68 289.32 435.78 289.33 435.98 289.36 436.09 289.38 436.18 289.41 436.41 289.51 436.55 289.58 436.76 289.68 436.95 289.77 437.14 289.89 437.36 290.03 437.58 290.17 437.68 290.24 437.7 290.26 437.84 290.44 437.95 290.58 438.02 290.68 438.03 290.68 438.03 290.7 438.17 290.91 438.33 291.12 438.45 291.26 438.62 291.39 438.59 292.8 439.04 292.83 439.28 292.84 439.44 292.77 439.58 292.89 439.68 293 439.7 293.07 439.68 293.12 439.61 293.15 439.57 293.19 439.56 293.24 439.58 293.29 439.65 293.35 439.67 293.39 439.65 293.46 439.6 293.58 439.55 293.69 439.55 293.76 439.62 293.84 439.62 293.92 439.65 293.97 439.7 294.01 439.7 294.06 439.66 294.11 439.63 294.15 439.65 294.22 439.73 294.35 439.73 294.39 439.7 294.44 439.68 294.47 439.68 294.56 439.62 294.65 439.56 294.73 439.54 294.79 439.58 294.84 439.68 294.97 439.66 295.04 439.64 295.09 439.75 295.24 439.8 295.35 439.83 295.48 439.83 295.57 439.79 295.65 439.73 295.71 439.81 295.76 439.86 295.81 439.87 295.87 439.85 295.93 439.82 295.97 440.01 296.06 440.11 296.13 440.17 296.18 440.22 296.22 440.25 296.24 440.47 296.23 440.77 296.19 441 296.16 441.26 296.08 441.57 295.99 441.83 295.86 442.05 295.73 442.34 295.66 442.67 295.59 442.68 295.59 443.05 295.55 443.31 295.52 443.49 295.48 443.64 295.42 443.74 295.37 443.76 295.35 443.81 295.32 443.99 295.23 444.01 295.22 444.12 295.18 444.34 295.2 444.42 295.2 444.43 295.2 444.46 295.2 444.54 295.2 444.69 295.19 444.89 295.17 445.04 295.16 445.05 295.16 445.09 295.16 445.18 295.16 445.27 295.16 445.35 295.15 445.39 295.16 445.44 295.17 445.46 295.18 445.5 295.18 445.55 295.2 445.58 295.22 445.66 295.27 445.74 295.34 445.8 295.41 445.9 295.44 446.09 295.49 446.29 295.59 446.38 295.63 446.46 295.66 446.45 295.79 446.44 295.92 446.42 296.03 446.4 296.14 446.34 296.27 446.3 296.39 446.28 296.42 446.23 296.54 446.2 296.65 446.17 296.73 446.13 296.85 446.11 296.92 446.08 297 446.05 297.11 446 297.21 445.96 297.29 445.91 297.4 445.89 297.45 445.84 297.54 445.81 297.62 445.84 297.88 445.84 297.98 445.86 298.21 445.87 298.35 445.88 298.46 445.89 298.53 445.89 298.56 445.9 298.69 445.9 298.72 445.91 298.76 445.93 298.79 445.99 298.85 446 298.86 446.01 298.89 446.03 298.93 446.05 299 446.08 299.07 446.09 299.12 446.11 299.16 446.13 299.22 446.15 299.29 446.18 299.37 446.2 299.43 446.23 299.49 446.25 299.55 446.28 299.62 446.3 299.67 446.33 299.72 446.37 299.77 446.4 299.8 446.43 299.84 446.44 299.85 446.46 299.86 446.47 299.88 446.49 299.9 446.49 299.94 446.51 300.01 446.51 300.1 446.52 300.22 446.52 300.3 446.51 300.4 446.5 300.47 446.5 300.54 446.5 300.61 446.5 300.72 446.49 300.81 446.49 300.83 446.49 300.86 446.49 300.88 446.48 300.89 446.48 300.93 446.48 300.95 446.46 301 446.41 301.14 446.36 301.27 446.31 301.39 446.25 301.55 446.17 301.75 446.12 301.91 446.09 301.99 446.08 302.01 446.14 302.1 446.24 302.25 446.27 302.3 446.24 302.36 446.14 302.54 446.06 302.71 445.97 302.89 445.89 303.05 445.84 303.18 445.79 303.3 445.72 303.47 445.66 303.64 445.61 303.76 445.59 303.81 445.59 303.82 445.54 303.94 445.54 303.95 445.53 303.96 445.5 304.03 445.47 304.1 445.46 304.11 445.45 304.13 445.42 304.19 445.42 304.2 445.41 304.21 445.38 304.29 445.35 304.36 445.31 304.44 445.27 304.53 445.23 304.6 445.23 304.61 445.21 304.64 445.2 304.66 445.19 304.68 445.16 304.72 445.07 304.83 445.04 304.86 444.97 304.94 444.95 304.96 444.91 305 444.89 305.03 444.85 305.07 444.83 305.09 444.81 305.15 444.79 305.18 444.77 305.21 444.74 305.22 444.71 305.24 444.69 305.25 444.69 305.27 444.68 305.37 444.68 305.39 444.67 305.4 444.64 305.45 444.6 305.53 444.57 305.57 444.53 305.61 444.57 305.71 444.59 305.74 444.6 305.77 444.61 305.78 444.61 305.79 444.64 305.85 444.69 305.9 444.7 305.92 444.77 306.01 444.83 306.08 444.87 306.13 444.91 306.18 444.99 306.28 445.06 306.37 445.13 306.46 445.2 306.56 445.25 306.61 445.3 306.67 445.34 306.72 445.37 306.77 445.38 306.79 445.4 306.83 445.4 306.85 445.41 306.9 445.4 306.93 445.38 306.96 445.38 306.99 445.37 306.99 445.37 307.02 445.36 307.03 445.35 307.1 445.33 307.19 445.33 307.22 445.32 307.28 445.3 307.35 445.29 307.4 445.28 307.45 445.27 307.49 445.27 307.55 445.26 307.55 445.25 307.63 445.24 307.69 445.23 307.74 445.21 307.78 445.21 307.8 445.17 307.86 445.13 307.91 445.12 307.92 445.11 307.94 445.08 307.98 445.06 308 445.05 308.02 445.01 308.07 445 308.08 444.97 308.1 444.96 308.12 444.94 308.15 444.93 308.18 444.92 308.19 444.9 308.22 444.89 308.26 444.88 308.28 444.88 308.3 444.88 308.31 444.88 308.33 444.89 308.39 444.89 308.42 444.89 308.47 444.89 308.49 444.88 308.51 444.85 308.52 444.83 308.53 444.81 308.54 444.79 308.56 444.78 308.59 444.76 308.62 444.74 308.66 444.72 308.7 444.71 308.74 444.71 308.77 444.69 308.79 444.66 308.81 444.6 308.86 444.58 308.88 444.55 308.9 444.53 308.91 444.53 308.92 444.53 308.93 444.53 308.95 444.48 308.98 444.38 309.01 444.33 309.02 444.34 309.03 444.36 309.05 444.37 309.07 444.43 309.15 444.44 309.16 444.46 309.2 444.52 309.3 444.53 309.32 444.64 309.44 444.72 309.54 444.72 309.55 444.75 309.59 444.76 309.61 444.77 309.61 444.78 309.62 444.79 309.63 444.81 309.63 444.89 309.67 445.02 309.74 445.05 309.76 445.08 309.78 445.13 309.81 445.16 309.84 445.21 309.88 445.27 309.93 445.33 309.97 445.33 309.98 445.41 310.01 445.5 310.04 445.51 310.05 445.53 310.06 445.64 310.1 445.66 310.11 445.74 310.13 445.87 310.16 445.98 310.19 446.1 310.22 446.11 310.22 446.16 310.23 446.18 310.23 446.22 310.23 446.32 310.22 446.35 310.22 446.46 310.25 446.58 310.29 446.61 310.3 446.63 310.31 446.9 310.4 446.98 310.43 446.99 310.44 447 310.44 447.21 310.51 447.23 310.55 447.25 310.6 447.3 310.76 447.35 310.92 447.38 311.11 447.4 311.33 447.4 311.34 447.41 311.47 447.41 311.48 447.41 311.49 447.41 311.55 447.41 311.63 447.45 311.71 447.51 311.8 447.6 311.89 447.68 311.97 447.8 312 447.83 312 447.96 312.01 447.98 312.01 448.04 312.02 448.14 312.07 448.24 312.12 448.46 312.28 448.72 312.31 448.89 312.33 448.92 312.45 448.95 312.56 448.97 312.62 449.06 312.98 449.08 312.98 449.15 312.94 449.23 312.88 449.3 312.82 449.41 312.74 449.51 312.69 449.53 312.69 449.59 312.67 449.69 312.67 449.71 312.67 449.8 312.68 449.92 312.7 449.94 312.7 450.08 312.71 450.14 312.71 450.21 312.7 450.22 312.7 450.32 312.7 450.35 312.7 450.42 312.7 450.51 312.71 450.66 312.74 450.75 312.78 450.81 312.81 450.96 312.91 451.15 312.97 451.29 313.02 451.31 313.03 451.53 313.14 451.54 313.15 451.55 313.16 451.72 313.32 451.74 313.3 451.8 313.26 451.89 313.23 452.01 313.22 452.13 313.2 452.2 313.19 452.28 313.15 452.44 313.06 452.51 313.05 452.68 313.02 452.79 312.99 452.89 312.97 453.06 312.91 453.18 312.85 453.43 313.07 453.47 313.11 453.68 313.29 453.76 313.35 453.75 313.37 453.74 313.46 453.73 313.54 453.71 313.65 453.7 313.75 453.68 313.87 453.66 313.95 453.65 314.03 453.62 314.14 453.6 314.27 453.58 314.35 453.56 314.45 453.53 314.55 453.51 314.63 453.49 314.75 453.47 314.82 453.44 314.92 453.44 314.94 453.43 314.98 453.41 315.07 453.38 315.18 453.35 315.3 453.33 315.38 453.31 315.46 453.28 315.57 453.26 315.67 453.22 315.81 453.19 315.88 453.14 315.95 453.1 316.02 453.04 316.12 452.98 316.21 452.93 316.29 452.88 316.36 452.83 316.44 452.77 316.54 452.73 316.61 452.68 316.69 452.61 316.78 452.57 316.86 452.52 316.93 452.51 316.96 452.47 317.05 452.43 317.15 452.43 317.16 452.39 317.24 452.34 317.35 452.3 317.44 452.26 317.52 452.23 317.58 452.19 317.68 452.16 317.76 452.12 317.84 452.09 317.9 452.13 317.98 452.16 318.05 452.14 318.11 452.11 318.17 452.07 318.25 452.02 318.34 452.01 318.36 451.99 318.4 451.94 318.49 451.93 318.51 451.92 318.54 451.89 318.58 451.88 318.61 451.86 318.65 451.84 318.68 451.83 318.69 451.81 318.73 451.76 318.8 451.73 318.87 451.69 318.96 451.69 318.97 451.67 319.05 451.65 319.15 451.63 319.24 451.61 319.3 451.6 319.34 451.58 319.42 451.56 319.49 451.54 319.53 451.52 319.55 451.5 319.56 451.43 319.59 451.37 319.62 451.29 319.66 451.23 319.7 451.17 319.73 451.15 319.74 451.13 319.81 451.11 319.88 451.1 319.93 451.09 320 451.07 320.07 451.04 320.14 451.02 320.21 451 320.27 450.98 320.32 450.96 320.38 450.94 320.46 450.91 320.52 450.89 320.6 450.87 320.6 450.85 320.61 450.78 320.55 450.73 320.5 450.69 320.47 450.64 320.42 450.59 320.38 450.54 320.32 450.49 320.28 450.45 320.25 450.4 320.2 450.36 320.16 450.32 320.12 450.29 320.1 450.26 320.07 450.22 320.03 450.21 320.01 450.2 320 450.18 319.98 450.15 319.94 450.12 319.91 450.11 319.89 450.1 319.88 450.08 319.86 450.07 319.84 450.05 319.88 450.05 319.89 450.03 319.93 450.01 319.97 450 319.99 449.97 320.02 449.93 320.05 449.91 320.08 449.88 320.11 449.86 320.14 449.85 320.16 449.83 320.2 449.79 320.26 449.77 320.3 449.76 320.33 449.75 320.34 449.74 320.38 449.72 320.43 449.71 320.48 449.7 320.54 449.69 320.56 449.67 320.6 449.66 320.63 449.64 320.65 449.62 320.67 449.59 320.68 449.58 320.71 449.56 320.75 449.53 320.8 449.5 320.86 449.48 320.93 449.46 320.97 449.43 321.02 449.42 321.05 449.4 321.08 449.39 321.11 449.38 321.16 449.37 321.19 449.37 321.21 449.38 321.27 449.39 321.33 449.39 321.37 449.39 321.39 449.37 321.4 449.35 321.4 449.32 321.39 449.28 321.37 449.27 321.36 449.25 321.35 449.22 321.32 449.18 321.29 449.13 321.25 449.07 321.21 449.02 321.17 448.96 321.14 448.91 321.09 448.85 321.05 448.8 321.01 448.75 320.97 448.71 320.93 448.69 320.91 448.67 320.9 448.66 320.9 448.65 320.89 448.64 320.87 448.61 320.88 448.56 320.92 448.52 320.93 448.49 320.95 448.45 320.98 448.44 320.98 448.4 321.01 448.36 321.03 448.34 321.04 448.29 321.06 448.27 321.07 448.21 321.1 448.19 321.11 448.15 321.13 448.06 321.17 448.01 321.2 447.97 321.22 447.94 321.23 447.93 321.24 447.9 321.26 447.87 321.27 447.84 321.31 447.82 321.34 447.8 321.37 447.79 321.39 447.78 321.41 447.74 321.45 447.71 321.49 447.7 321.5 447.68 321.52 447.66 321.53 447.63 321.57 447.59 321.62 447.56 321.64 447.55 321.65 447.54 321.66 447.51 321.69 447.49 321.72 447.48 321.72 447.45 321.77 447.4 321.82 447.36 321.86 447.31 321.92 447.27 321.96 447.25 322 447.24 322 447.23 322.02 447.22 322.03 447.2 322.06 447.17 322.11 447.17 322.11 447.15 322.16 447.13 322.19 447.12 322.22 447.12 322.22 447.12 322.23 447.1 322.28 447.1 322.31 447.1 322.33 447.09 322.38 447.08 322.42 447.08 322.46 447.08 322.49 447.09 322.53 447.11 322.56 447.14 322.61 447.16 322.64 447.2 322.68 447.24 322.73 447.26 322.77 447.28 322.82 447.29 322.85 447.29 322.89 447.29 322.91 447.29 322.95 447.3 323 447.31 323.03 447.32 323.07 447.34 323.11 447.34 323.13 447.35 323.15 447.37 323.18 447.38 323.2 447.4 323.24 447.43 323.29 447.47 323.34 447.47 323.35 447.51 323.39 447.52 323.4 447.53 323.42 447.54 323.45 447.55 323.48 447.57 323.53 447.59 323.58 447.62 323.64 447.66 323.73 447.69 323.8 447.71 323.84 447.73 323.87 447.77 323.92 447.78 323.94 447.79 323.95 447.8 323.98 447.81 324.01 447.81 324.04 447.8 324.08 447.79 324.14 447.77 324.2 447.77 324.26 447.75 324.31 447.75 324.32 447.74 324.35 447.74 324.4 447.72 324.48 447.72 324.53 447.71 324.56 447.7 324.63 447.68 324.7 447.68 324.76 447.66 324.81 447.66 324.88 447.65 324.94 447.65 324.98 447.66 325.03 447.68 325.08 447.69 325.12 447.71 325.17 447.73 325.19 447.74 325.21 447.75 325.25 447.78 325.31 447.79 325.35 447.8 325.41 447.81 325.45 447.81 325.49 447.81 325.53 447.81 325.58 447.81 325.59 447.83 325.62 447.84 325.64 447.83 325.67 447.81 325.7 447.79 325.74 447.76 325.77 447.75 325.8 447.75 325.81 447.72 325.84 447.69 325.88 447.67 325.91 447.64 325.95 447.63 325.98 447.64 325.99 447.65 326 447.67 326.02 447.7 326.05 447.74 326.08 447.79 326.11 447.85 326.15 447.89 326.19 447.93 326.24 447.96 326.28 447.99 326.31 448.05 326.38 448.11 326.44 448.17 326.5 448.22 326.55 448.24 326.59 448.24 326.6 448.24 326.63 448.24 326.7 448.24 326.75 448.24 326.82 448.24 326.83 448.23 326.89 448.24 326.96 448.24 326.99 448.23 327.05 448.23 327.12 448.24 327.18 448.25 327.22 448.26 327.24 448.28 327.29 448.3 327.35 448.33 327.42 448.35 327.48 448.35 327.52 448.35 327.55 448.35 327.61 448.34 327.68 448.33 327.75 448.32 327.8 448.3 327.84 448.28 327.88 448.28 327.92 448.3 327.95 448.32 328.01 448.34 328.06 448.34 328.08 448.36 328.15 448.38 328.25 448.37 328.33 448.37 328.34 448.37 328.41 448.37 328.48 448.36 328.53 448.35 328.56 448.35 328.58 448.34 328.62 448.33 328.68 448.31 328.73 448.31 328.76 448.3 328.8 448.29 328.87 448.29 328.89 448.29 328.91 448.3 328.96 448.3 329.02 448.3 329.08 448.3 329.14 448.31 329.21 448.31 329.27 448.31 329.3 448.32 329.36 448.32 329.44 448.33 329.48 448.33 329.53 448.34 329.55 448.34 329.59 448.34 329.61 448.35 329.65 448.35 329.71 448.35 329.72 448.36 329.73 448.36 329.77 448.37 329.82 448.37 329.86 448.37 329.89 448.38 329.94 448.38 329.98 448.38 330.02 448.39 330.06 448.4 330.08 448.4 330.11 448.4 330.15 448.4 330.16 448.4 330.17 448.4 330.2 448.41 330.23 448.41 330.24 448.42 330.28 448.41 330.34 448.41 330.37 448.4 330.4 448.4 330.41 448.4 330.43 448.39 330.45 448.38 330.5 448.38 330.54 448.37 330.56 448.37 330.6 448.36 330.63 448.29 330.8 448.28 330.82 448.22 330.94 448.2 330.98 448.13 331.13 448.11 331.17 448.1 331.2 448.08 331.25 448.07 331.28 447.99 331.47 447.95 331.56 447.9 331.69 447.76 331.67 447.73 331.66 447.67 331.66 447.61 331.66 447.25 331.7 447.08 331.71 447.05 331.71 447.05 331.72 446.95 331.91 446.86 332.1 446.83 332.15 446.8 332.18 446.71 332.31 446.68 332.34 446.67 332.35 446.61 332.42 446.51 332.55 446.5 332.57 446.49 332.59 446.43 332.66 446.38 332.73 446.34 332.81 446.29 332.89 446.24 332.99 446.19 333.12 446.19 333.13 446.15 333.24 446.12 333.36 446.09 333.46 446.07 333.57 446.07 333.62 446.14 333.68 446.17 333.71 446.26 333.8 446.3 333.84 446.31 333.84 446.41 333.95 446.47 333.99 446.5 334.04 446.54 334.11 446.56 334.16 446.58 334.21 446.6 334.32 446.62 334.41 446.62 334.52 446.62 334.56 446.61 334.62 446.61 334.63 446.6 334.67 446.58 334.73 446.58 334.75 446.55 334.85 446.54 334.89 446.52 334.94 446.46 335.15 446.44 335.2 446.43 335.24 446.43 335.38 446.42 335.55 446.41 335.61 446.37 335.77 446.31 335.98 446.26 336.04 446.12 336.13 446.11 336.14 445.88 336.25 445.76 336.3 445.63 336.36 445.36 336.46 445.07 336.54 444.87 336.6 444.75 336.63 444.73 336.64 444.61 336.67 444.28 336.73 444.11 336.76 443.94 336.79 443.76 336.79 443.61 336.79 443.59 336.79 443.49 336.79 443.46 336.78 443.44 336.78 443.32 336.75 442.78 336.57 442.65 336.52 442.63 336.51 442.19 336.34 441.64 336.16 441.52 336.11 441.46 336.17 441.45 336.18 441.44 336.19 441.33 336.28 441.22 336.42 441.19 336.47 441.16 336.54 440.83 336.66 440.7 336.7 440.67 336.71 440.57 336.75 440.56 336.75 440.13 336.9 439.87 336.93 439.81 336.94 439.67 336.96 439.58 337.03 439.53 337.07 439.43 337.16 439.36 337.22 439.27 337.29 439.2 337.35 439.14 337.4 439.14 337.41 439.08 337.45 439.07 337.46 439.02 337.51 438.98 337.53 438.93 337.57 438.9 337.6 438.84 337.65 438.83 337.66 438.74 337.72 438.71 337.74 438.71 337.75 438.65 337.81 438.64 337.82 438.59 337.86 438.49 337.94 438.4 338.02 438.35 338.06 438.32 338.08 438.26 338.13 438.19 338.19 438.18 338.2 438.15 338.22 438.01 338.33 437.86 338.45 437.81 338.49 437.74 338.56 437.65 338.63 437.61 338.67 437.55 338.72 437.53 338.74 437.51 338.77 437.46 338.84 437.35 338.97 437.34 338.98 437.29 339.04 437.28 339.04 437.27 339.06 437.26 339.08 437.24 339.11 437.18 339.19 437.14 339.27 437.11 339.32 437.09 339.37 437 339.53 436.99 339.56 436.97 339.59 436.87 339.53 436.85 339.52 436.83 339.5 436.8 339.49 436.7 339.4 436.6 339.32 436.58 339.32 436.47 339.31 436.42 339.3 436.38 339.29 436.24 339.25 436.21 339.24 436.2 339.24 436.18 339.23 436.17 339.23 436.17 339.23 436.09 339.2 436.01 339.17 436.07 339.12 436.11 339.09 436.14 339.06 436.22 338.99 436.23 338.98 436.34 338.86 436.35 338.77 436.35 338.76 436.35 338.74 436.36 338.6 436.36 338.47 436.37 338.4 436.37 338.38 436.37 338.32 436.38 338.15 436.38 338.1 436.38 338.08 436.36 337.86 436.34 337.66 436.34 337.65 436.34 337.58 436.33 337.53 436.31 337.31 436.31 337.28 436.3 337.18 436.29 337.14 436.29 337.12 436.26 336.96 436.26 336.91 436.26 336.83 436.26 336.77 436.26 336.76 436.26 336.75 436.23 336.71 436.12 336.59 436.1 336.57 435.84 336.38 435.81 336.35 435.86 336.32 435.89 336.3 436.12 336.16 436.4 335.98 436.73 335.76 436.9 335.64 436.98 335.59 436.88 335.56 436.64 335.5 436.37 335.44 436.11 335.38 435.98 335.34 435.95 335.34 435.9 335.32 435.85 335.3 435.8 335.27 435.66 335.21 435.64 335.2 435.46 335.12 435.39 335.09 435.3 335.05 435.14 334.98 435.08 334.94 435.04 334.92 435.02 334.91 434.94 334.89 434.78 334.86 434.64 334.83 434.63 334.83 434.52 334.81 434.37 334.77 434.34 334.76 434.26 334.74 434.18 334.72 434.14 334.7 434.1 334.69 434.07 334.68 433.98 334.62 433.96 334.61 433.92 334.6 433.86 334.58 433.78 334.55 433.76 334.55 433.63 334.5 433.58 334.49 433.52 334.47 433.3 334.42 433.26 334.41 433.22 334.39 432.99 334.33 432.94 334.32 432.88 334.3 432.61 334.21 432.62 334.16 432.62 334.15 432.64 334.13 432.65 334.13 432.69 334.12 432.75 334.11 432.82 334.1 432.85 334.09 432.88 334.08 432.91 334.07 432.93 334.05 432.95 334.04 432.97 334.02 432.98 333.98 432.99 333.93 433 333.81 433.01 333.74 433.02 333.67 433.04 333.63 433.05 333.6 433.07 333.58 433.12 333.56 433.15 333.54 433.18 333.53 433.25 333.51 433.31 333.5 433.37 333.49 433.38 333.49 433.47 333.5 433.55 333.5 433.63 333.51 433.67 333.5 433.71 333.49 433.72 333.49 433.73 333.48 433.75 333.46 433.77 333.43 433.79 333.36 433.83 333.18 433.87 333.02 433.88 332.9 433.88 332.87 433.89 332.85 433.89 332.83 433.9 332.75 433.9 332.72 433.9 332.68 433.89 332.66 433.87 332.62 433.85 332.6 433.8 332.54 433.73 332.48 433.65 332.42 433.63 332.4 433.58 332.34 433.57 332.33 433.49 332.25 433.47 332.23 432.53 331.46 431.74 330.82 429.77 329.23 429.75 329.21 429.74 329.18 429.73 329.16 429.69 329.04 429.69 329.03 429.66 328.95 429.65 328.94 429.64 328.94 429.62 328.9 429.5 328.79 429.38 328.67 429.3 328.59 429.23 328.52 429.18 328.47 429.06 328.37 428.96 328.28 428.92 328.24 428.89 328.22 428.87 328.2 428.84 328.17 428.83 328.15 428.83 328.14 428.83 328.12 428.84 328.1 428.84 328.07 428.87 328.02 428.9 327.98 429.02 327.81 429.03 327.81 429.1 327.7 429.19 327.57 429.25 327.5 429.95 326.39 429.95 326.38 429.98 326.33 430 326.31 430.01 326.3 430.04 326.24 430.07 326.19 430.14 326.08 430.22 325.95 430.26 325.9 430.27 325.88 430.29 325.85 430.36 325.74 430.44 325.62 430.51 325.5 430.58 325.4 430.59 325.38 430.6 325.37 430.74 325.25 430.77 325.27 430.98 325.44 431.02 325.47 431.05 325.5 431.08 325.52 431.15 325.59 431.18 325.62 431.2 325.65 431.4 325.85 431.43 325.85 431.44 325.84 431.46 325.81 431.52 325.68 431.58 325.57 431.6 325.56 431.63 325.56 431.65 325.57 431.78 325.64 432.13 325.86 432.28 325.94 432.33 325.94 432.37 325.93 432.41 325.9 432.48 325.84 432.53 325.8 432.57 325.77 432.62 325.75 432.89 325.66 434.05 325.31 434.45 325.2 434.57 325.17 434.79 325.19 435.01 325.22 435.2 325.24 435.28 325.25 435.34 325.24 435.36 325.22 435.38 325.19 435.38 325.16 435.37 325.12 435.36 325.06 435.33 325.01 435.32 324.99 435.29 324.94 435.23 324.84 435.08 324.6 434.89 324.29 434.79 324.12 434.74 324.05 434.69 323.93 434.64 323.8 434.63 323.71 434.65 323.59 434.69 323.45 434.74 323.31 434.9 322.82 434.94 322.68 434.95 322.64 434.95 322.61 434.94 322.55 434.9 322.51 434.85 322.46 434.8 322.41 434.77 322.36 434.76 322.3 434.75 322.23 434.78 322.16 434.82 322.1 434.9 322.05 434.96 322.01 435.01 321.96 435.03 321.91 435.04 321.88 435.07 321.82 435.09 321.76 435.11 321.71 435.13 321.68 435.19 321.65 435.27 321.63 435.42 321.6 435.68 321.57 435.85 321.53 435.97 321.51 436.02 321.49 436.1 321.44 436.21 321.36 436.3 321.28 436.35 321.22 436.37 321.18 436.38 321.08 436.37 320.58 436.37 320.25 436.37 319.86 436.36 319.82 436.33 319.77 436.28 319.73 436.22 319.69 436.17 319.68 436 319.68 435.8 319.68 435.67 319.68 435.58 319.65 435.44 319.54 435.31 319.43 435.17 319.29 435.03 319.13 434.88 318.94 434.74 318.73 434.71 318.68 434.67 318.58 434.65 318.5 434.65 318.38 434.66 318.25 434.69 318.19 434.73 318.14 434.81 318.07 434.87 318.02 434.91 317.99 434.92 317.98 434.93 317.96 434.95 317.92 434.97 317.84 434.96 317.75 434.93 317.68 434.89 317.62 434.81 317.57 434.79 317.56 434.76 317.54 434.71 317.51 434.68 317.49 434.64 317.46 434.62 317.45 434.59 317.43 434.57 317.42 434.56 317.42 434.53 317.41 434.5 317.4 434.48 317.39 434.46 317.37 434.45 317.35 434.43 317.32 434.42 317.29 434.41 317.26 434.4 317.23 434.39 317.19 434.37 317.13 434.37 317.11 434.36 317.09 434.36 317.07 434.35 317.03 434.33 317.02 434.3 317 434.21 316.93 434.15 316.89 434.15 316.88 434.17 316.83 434.19 316.8 434.21 316.77 434.21 316.76 434.22 316.74 434.18 316.71 434.17 316.7 434.12 316.67 434.03 316.61 434.01 316.6 433.96 316.58 433.93 316.58 433.76 316.59 433.61 316.6 433.58 316.54 433.56 316.5 433.55 316.48 433.5 316.36 433.5 316.36 433.47 316.28 433.46 316.26 433.44 316.23 433.44 316.22 433.42 316.19 433.4 316.17 433.38 316.16 433.31 316.13 433.19 316.09 433.18 316.08 433.15 316.07 433.02 315.97 432.94 315.91 432.91 315.88 432.88 315.87 432.78 315.73 432.7 315.63 432.69 315.62 432.68 315.61 432.65 315.56 432.62 315.52 432.6 315.5 432.59 315.48 432.58 315.46 432.58 315.44 432.59 315.41 432.6 315.32 432.6 315.28 432.6 315.27 432.6 315.25 432.6 315.25 432.59 315.22 432.61 315.15 432.63 315.09 432.63 315.06 432.63 315.05 432.64 315.04 432.64 314.99 432.64 314.88 432.63 314.74 432.63 314.71 432.62 314.65 432.62 314.57 432.61 314.53 432.6 314.41 432.59 314.2 432.59 314.2 432.59 314.18 432.6 314.16 432.61 314.13 432.67 314.03 432.71 313.99 432.72 313.97 432.73 313.96 432.74 313.95 432.77 313.89 432.78 313.86 432.81 313.8 432.84 313.73 432.84 313.73 432.88 313.66 432.95 313.56 432.98 313.51 432.98 313.5 432.97 313.48 432.93 313.41 432.88 313.33 432.85 313.29 432.85 313.27 432.85 313.25 432.84 313.23 432.84 313.14 432.85 313.08 432.85 312.99 432.85 312.96 432.84 312.94 432.8 312.87 432.78 312.85 432.74 312.78 432.71 312.71 432.7 312.68 432.68 312.63 432.67 312.6 432.67 312.58 432.67 312.56 432.69 312.51 432.7 312.43 432.72 312.28 432.74 312.15 432.75 312.12 432.76 312.02 432.76 311.9 432.77 311.86 432.78 311.8 432.81 311.66 432.84 311.51 432.87 311.39 432.88 311.38 433.05 311.33 433.18 311.3 433.28 311.27 433.4 311.24 433.47 311.22 433.56 311.2 433.58 311.19 433.59 311.19 433.6 311.16 433.61 311.11 433.62 311.07 433.64 311.05 433.65 311.03 433.67 311 433.7 310.98 433.71 310.97 433.71 310.95 433.74 310.91 433.76 310.89 433.79 310.85 433.82 310.82 433.87 310.77 433.9 310.74 433.95 310.68 433.98 310.66 434.01 310.64 434.05 310.63 434.05 310.63 434.06 310.61 434.07 310.6 434.09 310.58 434.13 310.55 434.14 310.54 434.15 310.53 434.13 310.51 434.07 310.47 434.02 310.43 433.98 310.4 433.96 310.38 433.94 310.36 433.92 310.34 433.9 310.32 433.89 310.3 433.84 310.24 433.83 310.23 433.8 310.2 433.78 310.18 433.77 310.18 433.76 310.18 433.71 310.18 433.64 310.17 433.55 310.15 433.52 310.15 433.49 310.15 433.47 310.15 433.45 310.14 433.42 310.13 433.4 310.13 433.38 310.12 433.37 310.12 433.33 310.12 433.19 310.13 433.08 310.14 433.02 310.15 432.93 310.17 432.87 310.19 432.74 310.22 432.63 310.25 432.58 310.27 432.56 310.17 432.54 310.04 432.52 309.85 432.52 309.84 432.51 309.74 432.5 309.73 432.49 309.58 432.47 309.49 432.45 309.34 432.44 309.18 432.41 309.14 432.38 309.09 432.36 309.05 432.35 309.04 432.34 309.03 432.32 309.01 432.25 308.92 432.21 308.83 432.2 308.8 432.19 308.79 432.13 308.68 432.07 308.58 432.05 308.55 432.02 308.5 431.98 308.48 431.97 308.48 431.93 308.46 431.88 308.44 431.86 308.44 431.77 308.4 431.75 308.39 431.71 308.37 431.69 308.37 431.56 308.31 431.41 308.41 431.38 308.43 431.36 308.44 431.33 308.46 431.26 308.51 431.19 308.54 431.07 308.57 430.82 308.6 430.8 308.61 430.69 308.62 430.63 308.63 430.62 308.63 430.48 308.66 430.42 308.67 430.38 308.68 430.37 308.68 430.32 308.69 430.3 308.7 430.26 308.7 430.23 308.71 430.17 308.71 430.1 308.72 430.09 308.72 430.05 308.73 429.92 308.73 429.77 308.71 429.69 308.71 429.59 308.7 429.52 308.69 429.45 308.69 429.41 308.69 429.37 308.69 429.35 308.68 429.34 308.68 429.33 308.68 429.3 308.66 429.28 308.66 429.27 308.65 429.24 308.64 429.18 308.61 429.13 308.6 429.08 308.59 429.05 308.59 429.02 308.59 428.96 308.61 428.94 308.5 428.94 308.47 428.93 308.44 428.93 308.42 428.93 308.4 428.76 308.37 428.68 308.31 428.66 308.29 428.62 308.27 428.52 308.25 428.45 308.18 428.38 308.09 428.3 308.1 428.28 308.1 428.19 308.02 428.18 308.01 428.17 308 428.11 307.97 428.1 307.97 428.07 307.95 428.03 307.91 428 307.85 427.99 307.83 427.98 307.8 427.95 307.73 427.92 307.69 427.89 307.64 427.84 307.59 427.79 307.55 427.74 307.51 427.55 307.41 427.5 307.38 427.47 307.37 427.35 307.36 427.32 307.34 427.17 307.26 427.11 307.21 427.07 307.16 426.9 306.85 426.8 306.78 426.58 306.77 426.46 306.65 426.4 306.63 426.19 306.44 426.17 306.3 426.19 306.25 426.2 306.21 426.21 306.19 426.21 306.16 426.18 306.09 426.16 306.01 426.09 305.91 426.05 305.87 426.04 305.83 426.03 305.81 425.96 305.73 425.82 305.62 425.68 305.5 425.48 305.38 425.29 305.27 425.13 305.2 425.04 305.15 424.87 305.03 424.74 304.95 424.6 304.85 424.49 304.78 424.34 304.65 424.22 304.53 424.19 304.5 423.98 304.34 423.94 304.31 423.93 304.3 423.93 304.3 423.92 304.29 423.91 304.29 423.5 303.95 423.28 303.78 423.09 303.47 422.97 303.27 422.89 303.1 422.83 303.01 422.76 302.89 422.73 302.86 422.69 302.82 422.65 302.81 422.55 302.8 422.2 302.86 421.51 302.45 421.17 302.39 420.71 302.31 420.58 302.21 420.6 301.97 420.6 301.86 420.61 301.73 420.62 301.6 420.61 301.45 420.56 301.27 420.51 301.11 420.47 300.97 420.45 300.87 420.44 300.76 420.44 300.6 420.43 300.35 420.43 300.19 420.42 300.07 420.43 300.01 420.43 299.95 420.45 299.82 420.48 299.68 420.51 299.52 420.55 299.39 420.59 299.25 420.63 299.12 420.56 298.85 420.56 298.64 420.69 298.3 420.75 298.02 420.74 297.56 420.7 297.29 420.12 296.52 420.12 295.83 420.12 295.49 420.03 295.07 420.03 295.03 419.93 294.35 419.85 293.93 419.79 293.66 419.8 293.47 419.8 293.4 419.76 292.91 419.76 292.85 419.75 292.76 419.75 292.74 419.73 292.55 419.24 291.49 Z"/>
</g></svg>