<svg xmlns="http://www.w3.org/2000/svg" version="1.2" baseProfile="tiny" stroke-linecap="round" stroke-linejoin="round" viewBox="521.25 50.08 5.83 4.8"><g xmlns="http://www.w3.org/2000/svg" id="Getaria (Lapurdi)">
<path d="M 521.26 52.44 521.28 52.43 521.31 52.42 521.34 52.41 521.36 52.39 521.39 52.37 521.41 52.34 521.44 52.3 521.46 52.27 521.47 52.25 521.48 52.23 521.51 52.19 521.54 52.15 521.57 52.09 521.6 52.05 521.63 51.99 521.65 51.95 521.67 51.92 521.69 51.89 521.7 51.86 521.72 51.83 521.75 51.78 521.76 51.77 521.77 51.75 521.79 51.72 521.81 51.69 521.85 51.64 521.88 51.6 521.89 51.56 521.9 51.5 521.9 51.48 521.9 51.46 521.9 51.44 521.9 51.41 521.9 51.38 521.9 51.35 521.91 51.33 521.92 51.31 521.93 51.29 521.96 51.28 521.97 51.27 522 51.26 522.04 51.25 522.09 51.24 522.11 51.23 522.15 51.22 522.18 51.22 522.21 51.21 522.25 51.21 522.27 51.2 522.29 51.2 522.33 51.18 522.37 51.17 522.39 51.16 522.42 51.15 522.46 51.13 522.49 51.11 522.51 51.1 522.53 51.08 522.55 51.07 522.57 51.05 522.6 51.04 522.63 51.03 522.67 51.02 522.72 51.01 522.77 51 522.81 50.99 522.86 50.98 522.89 50.97 522.93 50.96 522.97 50.95 523 50.94 523.04 50.93 523.07 50.91 523.13 50.88 523.19 50.85 523.19 50.84 523.22 50.83 523.23 50.81 523.24 50.79 523.25 50.77 523.27 50.71 523.28 50.7 523.29 50.69 523.3 50.68 523.31 50.68 523.32 50.67 523.33 50.66 523.34 50.64 523.34 50.64 523.34 50.62 523.33 50.62 523.35 50.6 523.35 50.59 523.35 50.57 523.34 50.55 523.33 50.54 523.32 50.52 523.35 50.52 523.36 50.52 523.38 50.53 523.41 50.53 523.44 50.53 523.47 50.54 523.49 50.54 523.52 50.54 523.55 50.54 523.59 50.54 523.62 50.54 523.66 50.53 523.69 50.52 523.71 50.52 523.72 50.53 523.75 50.53 523.79 50.53 523.82 50.52 523.85 50.52 523.87 50.52 523.9 50.51 523.92 50.49 523.93 50.47 523.95 50.46 523.98 50.45 524.03 50.45 524.07 50.44 524.08 50.43 524.1 50.42 524.12 50.42 524.15 50.41 524.16 50.4 524.19 50.4 524.19 50.41 524.19 50.42 524.19 50.44 524.17 50.45 524.14 50.46 524.12 50.47 524.08 50.48 524.05 50.49 524.01 50.5 523.99 50.5 523.98 50.52 523.99 50.54 524.01 50.56 524.03 50.57 524.1 50.58 524.16 50.58 524.2 50.58 524.23 50.57 524.25 50.56 524.28 50.54 524.3 50.51 524.32 50.51 524.39 50.46 524.47 50.41 524.52 50.37 524.55 50.32 524.58 50.27 524.62 50.23 524.63 50.2 524.62 50.18 524.63 50.14 524.69 50.11 524.72 50.2 524.79 50.41 524.8 50.42 524.82 50.48 524.84 50.55 524.88 50.64 524.92 50.63 524.94 50.63 525.15 50.59 525.25 50.57 525.26 50.57 525.28 50.62 525.52 50.66 525.54 50.65 525.55 50.64 525.63 50.68 525.72 50.74 525.78 50.79 525.83 50.81 525.9 50.83 525.93 50.84 525.95 50.78 525.97 50.7 526.05 50.73 526.05 50.75 526.04 50.79 526.01 50.89 525.98 50.97 526 50.98 526.01 50.99 526.04 51.02 526.08 51.07 526.13 51.14 526.19 51.25 526.25 51.34 526.31 51.44 526.38 51.55 526.44 51.63 526.5 51.71 526.54 51.78 526.55 51.8 526.62 51.87 526.69 51.96 526.76 52.02 526.77 52.04 526.78 52.05 526.79 52.08 526.8 52.23 526.82 52.36 526.82 52.4 526.84 52.67 526.85 52.81 526.86 52.93 526.87 53.02 526.88 53.1 526.89 53.18 526.89 53.23 526.9 53.3 526.92 53.54 526.95 53.89 526.96 54.01 526.97 54.09 527 54.4 527.02 54.65 527.02 54.8 527.07 54.86 527.02 54.84 526.98 54.82 526.97 54.82 526.95 54.82 526.92 54.82 526.88 54.82 526.81 54.85 526.77 54.86 526.7 54.87 526.65 54.87 526.62 54.87 526.58 54.86 526.56 54.87 526.55 54.87 526.5 54.87 526.43 54.86 526.31 54.84 526.22 54.82 526.2 54.84 526.19 54.84 526.18 54.85 526.15 54.86 526.15 54.86 526.13 54.86 525.92 54.84 525.91 54.83 525.92 54.78 525.69 54.75 525.69 54.79 525.61 54.77 525.56 54.76 525.04 54.65 525 54.64 524.95 54.63 524.86 54.6 524.76 54.58 524.68 54.56 524.62 54.55 524.6 54.55 524.55 54.53 524.51 54.53 524.49 54.52 524.32 54.49 524.28 54.48 524.24 54.47 524.11 54.45 524.08 54.48 524.06 54.5 524.03 54.52 524.01 54.5 523.99 54.47 523.97 54.43 523.96 54.37 523.95 54.34 523.94 54.32 523.91 54.25 523.89 54.22 523.87 54.2 523.86 54.19 523.83 54.18 523.81 54.17 523.79 54.15 523.74 54.12 523.68 54.1 523.64 54.08 523.62 54.07 523.59 54.06 523.53 54.05 523.5 54.04 523.48 54.05 523.47 54.06 523.45 54.08 523.44 54.08 523.42 54.09 523.37 54.09 523.35 54.09 523.33 54.08 523.31 54.08 523.29 54.09 523.27 54.09 523.25 54.09 523.23 54.09 523.22 54.09 523.21 54.08 523.19 54.07 523.17 54.06 523.15 54.06 523.07 54.04 523.03 54.05 522.97 54.05 522.93 54.04 522.89 54.04 522.86 54.03 522.85 54.03 522.83 54.02 522.81 54.02 522.78 54.01 522.75 54.01 522.73 54 522.71 53.99 522.7 53.98 522.69 53.99 522.66 53.99 522.64 53.99 522.62 53.99 522.6 53.98 522.59 53.97 522.55 53.96 522.52 53.94 522.51 53.93 522.47 53.9 522.4 53.84 522.32 53.75 522.23 53.67 522.21 53.66 522.2 53.64 522.19 53.63 522.19 53.61 522.18 53.57 522.17 53.55 522.17 53.54 522.15 53.52 522.15 53.51 522.15 53.49 522.13 53.46 522.13 53.45 522.12 53.45 522.11 53.45 521.99 53.42 521.95 53.41 521.93 53.41 521.91 53.41 521.87 53.4 521.85 53.4 521.83 53.4 521.81 53.4 521.67 53.35 521.61 53.32 521.55 53.3 521.55 53.29 521.56 53.26 521.56 53.23 521.56 53.2 521.57 53.18 521.58 53.15 521.58 53.14 521.58 53.12 521.58 53.11 521.58 53.1 521.58 53.08 521.58 53.07 521.57 53.06 521.57 53.05 521.57 53.03 521.57 53.01 521.57 53 521.57 52.98 521.57 52.96 521.56 52.92 521.55 52.89 521.54 52.87 521.53 52.85 521.52 52.82 521.51 52.81 521.51 52.79 521.49 52.77 521.48 52.76 521.47 52.74 521.45 52.72 521.44 52.7 521.44 52.69 521.44 52.66 521.45 52.65 521.44 52.63 521.44 52.62 521.43 52.6 521.43 52.59 521.42 52.58 521.4 52.57 521.39 52.55 521.39 52.53 521.39 52.51 521.39 52.5 521.38 52.49 521.37 52.47 521.35 52.46 521.3 52.45 521.26 52.44 Z"/>
</g></svg>