<svg xmlns="http://www.w3.org/2000/svg" version="1.2" baseProfile="tiny" stroke-linecap="round" stroke-linejoin="round" viewBox="118.08 70.05 20.67 24.88"><g xmlns="http://www.w3.org/2000/svg" id="Getxo">
<path d="M 127.76 70.05 128.25 70.8 128.66 71.47 129.09 72.18 128.62 72.49 128.17 72.75 127.71 73.19 127.56 73.39 127.55 73.41 127.5 73.54 127.26 73.97 127.06 74.35 126.82 75.44 127.92 76.4 128.2 76.25 129.06 77.09 129.25 77.43 129.75 78.27 129.48 78.76 129.57 79.78 129.49 79.88 129.6 80.06 129.6 80.15 129.59 80.21 129.54 80.35 129.55 80.44 129.57 80.52 129.63 80.61 129.63 80.65 129.65 80.97 129.69 81.49 129.71 81.53 129.8 81.74 129.81 81.85 129.82 81.93 129.92 82.07 129.94 82.18 129.91 82.34 129.91 82.47 129.88 82.55 130.18 82.86 130.5 83.48 130.86 84.02 131.24 84.52 131.34 84.73 132.34 84.49 135.18 85.03 135.25 85.04 135.27 85.05 135.34 85.08 135.39 85.11 135.44 85.13 135.46 85.15 135.48 85.16 135.53 85.17 135.62 85.17 135.66 85.15 135.68 85.15 135.72 85.13 135.76 85.12 135.79 85.13 135.84 85.18 135.91 85.25 135.96 85.28 136.15 85.37 136.19 85.37 136.23 85.39 136.4 85.4 136.76 85.33 136.81 85.3 136.99 85.15 137.05 85.05 137.05 85.02 137.06 84.99 137.13 84.95 137.14 84.95 137.19 84.92 137.25 84.89 137.42 84.76 137.61 84.57 137.66 84.55 137.88 84.46 137.97 84.36 138.01 84.32 138.03 84.28 138.03 84.29 138.74 85.26 138.7 85.51 138.67 86.74 138.55 87.37 138.15 87.36 137.09 87.24 136.06 86.96 135.28 86.74 134.63 86.56 133.09 86.07 132 85.72 131.74 85.69 130.91 85.9 129.99 86.06 130.08 86.45 129.85 87.02 129.87 87.79 129.28 88.9 128.81 89.66 128.49 90.16 127.6 91.85 127.55 91.98 127.29 92.9 126.59 93.99 126.3 94.62 126.28 94.66 126.13 94.91 125.05 94.43 123.62 92.39 123.33 92.02 123.62 91.76 123.44 91.48 123.44 91.46 123.44 91.44 123.44 91.43 123.45 91.41 123.47 91.41 123.49 91.4 123.51 91.41 123.52 91.42 123.53 91.44 123.54 91.45 123.53 91.47 123.98 92.16 123.99 92.17 124 92.18 124 92.19 124 92.2 124 92.21 124.04 92.22 124.1 92.22 124.2 92.2 124.25 92.19 124.39 92.13 124.5 92.08 124.53 92.06 124.59 92.03 124.69 91.93 124.74 91.87 124.74 91.87 124.73 91.82 124.14 91.48 124.52 90.83 124.74 90.84 124.74 90.85 124.68 90.85 124.68 90.88 124.62 90.88 124.62 90.85 124.54 90.85 124.53 90.87 124.17 91.47 124.67 91.76 124.74 91.64 124.82 91.68 124.86 91.62 124.76 91.57 124.91 91.35 124.99 91.4 125.02 91.36 124.98 91.34 125 91.3 125.06 91.33 125.13 91.21 125.06 91.17 125.05 91.19 124.84 91.05 124.98 90.82 125.02 90.84 124.91 91.04 125.17 91.2 125.2 91.16 125.15 91.14 125.16 91.11 125.25 91.15 125.3 91.05 125.27 91.04 125.31 90.96 125.33 90.97 125.83 89.92 125.96 89.66 126.32 88.9 126.37 88.79 126.4 88.7 126.43 88.59 126.46 88.5 126.47 88.41 126.49 88.34 126.46 88.33 126.5 88.04 126.07 87.64 125.62 87.25 125.53 87.17 125.45 87.26 125.39 87.2 125.4 87.19 125.33 87.13 125.37 87.09 125.18 86.92 125 86.89 124.98 86.98 125.36 87.3 125.35 87.33 125.32 87.31 125.2 87.45 125.23 87.48 125.12 87.61 125.12 87.62 125.11 87.62 125.09 87.63 125.08 87.62 125.07 87.62 124.17 86.84 124.04 86.99 123.42 86.97 123.3 86.96 123.27 86.96 123.25 86.96 123.26 87 123.31 87.09 123.24 87.16 123.29 87.26 123.35 87.36 123.41 87.46 123.42 87.48 123.5 87.58 123.6 87.68 123.71 87.78 123.79 87.85 123.89 87.92 124 87.99 124.12 88.04 124.22 88.08 124.35 88.13 124.49 88.16 124.5 88.17 124.51 88.18 124.52 88.19 124.52 88.2 124.52 88.21 124.51 88.23 124.5 88.23 124.49 88.24 124.48 88.24 124.47 88.24 124.46 88.24 124.44 88.23 124.42 88.22 124.4 88.19 124.4 88.19 124.39 88.18 124.28 88.15 124.2 88.12 124.09 88.08 124.01 88.05 123.92 88 123.82 87.94 123.72 87.86 123.64 87.79 123.56 87.72 123.48 87.64 123.42 87.56 123.37 87.5 123.35 87.47 123.33 87.44 123.32 87.43 123.3 87.39 123.28 87.36 123.27 87.35 123.25 87.31 123.23 87.29 123.22 87.26 123.2 87.22 123.18 87.19 123.16 87.15 123.14 87.1 123.12 87.06 123.07 86.94 123.03 86.81 123 86.68 122.97 86.55 121.49 86.33 121.48 86.34 121.47 86.34 121.46 86.34 121.45 86.33 121.44 86.32 121.44 86.31 121.45 86.3 121.46 86.3 121.47 86.29 121.48 86.3 121.49 86.3 123.42 86.57 125.03 86.81 125.04 86.74 125.08 86.66 125.1 86.59 125.13 86.49 125.16 86.44 125.25 86.28 125.31 86.11 125.42 85.9 125.5 85.73 125.55 85.6 125.57 85.55 125.59 85.52 125.7 85.37 125.72 85.32 125.74 85.29 125.74 85.25 125.76 85.12 125.78 84.98 125.8 84.87 125.8 84.76 125.82 84.58 125.82 84.45 125.84 84.33 125.85 84.24 125.87 84.18 125.81 84.1 125.77 84.04 125.74 84 125.68 83.95 125.58 83.92 125.51 83.9 125.41 83.86 125.36 83.84 125.29 83.79 125.21 83.71 125.19 83.66 125.17 83.65 125.16 83.64 125.13 83.61 125.13 83.62 125.1 83.62 125.11 83.58 125.09 83.55 125.07 83.56 125.06 83.57 125.03 83.58 125.01 83.6 125.01 83.61 125.01 83.62 125.03 83.63 125.05 83.64 125.12 83.65 125.13 83.67 125.13 83.69 125.11 83.75 125.11 83.78 125.11 83.8 125.1 83.8 125.08 83.81 125.07 83.81 125.06 83.8 125.05 83.78 125.05 83.76 125.04 83.73 125.05 83.71 125.04 83.69 125 83.68 124.96 83.65 124.93 83.63 124.22 82.98 124.16 82.88 124.15 82.86 124.12 82.84 123.99 82.78 123.92 82.76 123.88 82.76 123.86 82.75 123.82 82.72 123.71 82.66 123.7 82.65 123.69 82.63 123.68 82.6 123.68 82.58 123.69 82.57 123.7 82.56 123.74 82.56 123.77 82.57 123.83 82.61 123.85 82.61 123.86 82.61 123.87 82.6 123.88 82.58 123.88 82.56 123.89 82.44 123.88 82.4 123.87 82.37 123.86 82.36 123.84 82.35 123.79 82.33 123.77 82.32 123.68 82.31 123.67 82.31 123.65 82.3 123.63 82.27 123.57 82.2 123.56 82.18 123.55 82.13 123.54 82.09 123.49 82.02 123.45 81.96 123.44 81.95 123.42 81.93 123.38 81.91 123.35 81.89 123.31 81.85 123.25 81.78 123.19 81.73 123.08 81.64 122.97 81.57 122.78 81.45 122.81 81.4 122.91 81.45 123 81.51 123.09 81.57 123.17 81.62 123.2 81.62 123.27 81.59 123.37 81.53 123.4 81.51 123.42 81.49 123.48 81.43 123.55 81.35 123.59 81.29 123.66 81.15 123.71 81.03 123.78 80.8 123.8 80.7 123.83 80.61 123.85 80.46 123.87 80.32 123.87 80.19 123.87 80.12 123.86 79.99 123.86 79.91 123.85 79.9 123.84 79.89 123.8 79.88 123.75 79.86 123.7 79.83 123.67 79.81 123.61 79.77 123.51 79.68 123.48 79.66 123.42 79.67 123.4 79.6 123.11 79.4 122.94 79.27 122.74 79.08 122.64 78.9 122.38 78.63 121.78 78.21 121.57 77.99 121.24 77.72 121.07 77.52 120.97 77.47 120.78 77.28 120.52 77.06 120.41 76.93 120.21 76.83 120.15 76.79 120.06 76.66 119.88 76.48 119.8 76.34 119.7 76.2 119.65 76.09 119.44 75.83 119.25 75.49 119.21 75.46 119.07 75.37 119.01 75.26 118.75 75 118.74 74.86 118.8 74.75 118.81 74.61 118.77 74.47 118.69 74.38 118.53 74.28 118.26 74.23 118.15 74.25 118.09 74.14 118.1 74.06 118.13 74.03 118.18 74.03 118.69 74.15 118.73 74.13 118.71 74.02 118.81 73.99 118.85 73.91 118.86 73.83 118.89 73.81 118.93 73.81 118.93 73.77 118.97 73.76 119.1 73.78 119.14 73.77 119.1 73.69 119.11 73.66 119.22 73.63 119.22 73.59 119.17 73.52 119.16 73.48 119.18 73.45 119.16 73.41 119.16 73.4 119.15 73.38 119.15 73.35 119.16 73.34 119.16 73.34 119.19 73.36 119.2 73.36 119.2 73.37 119.21 73.37 119.22 73.38 119.22 73.38 119.23 73.39 119.24 73.4 119.25 73.4 119.26 73.4 119.27 73.41 119.28 73.41 119.29 73.4 119.29 73.39 119.29 73.38 119.3 73.37 119.31 73.36 119.31 73.36 119.32 73.36 119.35 73.37 119.36 73.38 119.38 73.39 119.39 73.4 119.4 73.4 119.41 73.41 119.43 73.41 119.43 73.4 119.43 73.39 119.43 73.38 119.42 73.37 119.41 73.36 119.39 73.35 119.38 73.34 119.37 73.33 119.37 73.32 119.37 73.31 119.38 73.31 119.39 73.32 119.41 73.34 119.42 73.35 119.43 73.36 119.44 73.37 119.45 73.38 119.46 73.37 119.46 73.36 119.45 73.35 119.44 73.34 119.43 73.34 119.42 73.32 119.41 73.31 119.4 73.3 119.39 73.29 119.38 73.27 119.37 73.26 119.37 73.25 119.38 73.24 119.38 73.24 119.39 73.25 119.4 73.25 119.41 73.26 119.42 73.27 119.44 73.28 119.47 73.3 119.49 73.32 119.5 73.33 119.52 73.34 119.53 73.34 119.54 73.35 119.55 73.35 119.57 73.35 119.58 73.36 119.59 73.36 119.6 73.37 119.61 73.38 119.63 73.4 119.64 73.41 119.66 73.41 119.67 73.41 119.68 73.41 119.68 73.4 119.68 73.39 119.67 73.38 119.66 73.37 119.65 73.36 119.64 73.35 119.63 73.35 119.62 73.34 119.62 73.33 119.62 73.32 119.61 73.29 119.61 73.28 119.6 73.27 119.58 73.25 119.57 73.24 119.56 73.23 119.54 73.21 119.52 73.2 119.51 73.18 119.51 73.18 119.5 73.17 119.5 73.15 119.5 73.15 119.5 73.14 119.51 73.14 119.52 73.15 119.53 73.16 119.57 73.19 119.58 73.2 119.6 73.2 119.61 73.21 119.63 73.24 119.64 73.25 119.67 73.27 119.68 73.28 119.69 73.29 119.71 73.31 119.72 73.32 119.73 73.33 119.74 73.34 119.75 73.35 119.76 73.35 119.77 73.35 119.77 73.34 119.74 73.32 119.73 73.31 119.71 73.29 119.7 73.28 119.69 73.26 119.66 73.23 119.63 73.2 119.62 73.18 119.61 73.17 119.61 73.16 119.62 73.15 119.64 73.16 119.65 73.16 119.66 73.17 119.68 73.18 119.69 73.2 119.7 73.21 119.73 73.23 119.75 73.25 119.76 73.26 119.78 73.28 119.79 73.28 119.8 73.28 119.81 73.28 119.82 73.27 119.84 73.26 119.85 73.26 119.86 73.25 119.87 73.25 119.88 73.24 119.89 73.23 119.89 73.22 119.88 73.21 119.88 73.21 119.88 73.2 119.87 73.19 119.87 73.18 119.87 73.16 119.86 73.15 119.85 73.11 119.85 73.09 119.85 73.07 119.85 73.01 119.85 73 119.85 72.99 119.86 72.98 119.87 72.97 119.88 72.96 119.89 72.95 119.9 72.94 119.91 72.93 119.92 72.92 119.92 72.91 119.92 72.9 119.92 72.89 119.92 72.88 119.92 72.86 119.91 72.85 119.89 72.81 119.89 72.79 119.88 72.78 119.88 72.77 119.88 72.75 119.89 72.74 119.9 72.72 119.91 72.71 119.92 72.71 119.94 72.71 119.96 72.71 119.97 72.72 119.99 72.73 120 72.75 120.02 72.76 120.03 72.77 120.08 72.8 120.1 72.82 120.11 72.83 120.12 72.84 120.13 72.85 120.13 72.85 120.15 72.85 120.15 72.84 120.16 72.83 120.17 72.8 120.17 72.79 120.18 72.77 120.19 72.74 120.19 72.73 120.19 72.71 120.2 72.69 120.2 72.68 120.21 72.67 120.21 72.65 120.22 72.64 120.22 72.63 120.23 72.62 120.23 72.6 120.22 72.59 120.21 72.58 120.2 72.56 120.17 72.54 120.16 72.52 120.14 72.51 120.13 72.5 120.12 72.48 120.1 72.47 120.09 72.45 120.08 72.44 120.07 72.42 120.06 72.41 120.03 72.38 120.03 72.36 120.02 72.35 120.02 72.34 120.03 72.33 120.05 72.34 120.06 72.35 120.08 72.35 120.09 72.36 120.12 72.38 120.13 72.39 120.16 72.41 120.17 72.42 120.18 72.42 120.19 72.43 120.2 72.43 120.21 72.43 120.21 72.43 120.2 72.42 120.19 72.4 120.18 72.39 120.17 72.38 120.17 72.37 120.16 72.36 120.16 72.35 120.17 72.35 120.17 72.34 120.16 72.33 120.16 72.32 120.16 72.31 120.16 72.3 120.16 72.29 120.17 72.29 120.18 72.29 120.19 72.29 120.2 72.29 120.21 72.3 120.22 72.3 120.23 72.3 120.24 72.31 120.25 72.32 120.26 72.32 120.27 72.34 120.29 72.37 120.3 72.38 120.31 72.39 120.32 72.4 120.33 72.4 120.34 72.41 120.35 72.41 120.36 72.42 120.37 72.42 120.38 72.43 120.39 72.43 120.4 72.43 120.41 72.43 120.42 72.43 120.44 72.43 120.47 72.43 120.48 72.43 120.49 72.42 120.5 72.42 120.51 72.41 120.51 72.4 120.52 72.39 120.53 72.37 120.54 72.35 120.54 72.34 120.54 72.32 120.54 72.29 120.54 72.28 120.54 72.26 120.55 72.25 120.55 72.23 120.57 72.19 120.57 72.18 120.58 72.16 120.59 72.15 120.59 72.14 120.61 72.12 120.62 72.11 120.62 72.1 120.61 72.09 120.61 72.08 120.58 72.04 120.57 72.03 120.56 72.01 120.55 72 120.54 71.99 120.53 71.98 120.52 71.97 120.52 71.96 120.51 71.95 120.51 71.94 120.5 71.93 120.5 71.92 120.5 71.88 120.5 71.86 120.5 71.85 120.51 71.85 120.52 71.85 120.53 71.86 120.54 71.87 120.56 71.87 120.59 71.9 120.6 71.9 120.63 71.93 120.66 71.95 120.67 71.96 120.69 71.97 120.75 72 120.76 72.01 120.79 72.03 120.81 72.04 120.82 72.05 120.83 72.06 120.84 72.07 120.86 72.09 120.87 72.1 120.88 72.11 120.89 72.11 120.9 72.11 120.92 72.1 120.96 72.1 120.99 72.1 121 72.1 121.02 72.1 121.04 72.1 121.05 72.1 121.07 72.1 121.08 72.09 121.1 72.09 121.12 72.09 121.13 72.09 121.15 72.09 121.16 72.1 121.18 72.1 121.2 72.1 121.25 72.12 121.27 72.12 121.29 72.12 121.3 72.12 121.35 72.12 121.36 72.12 121.38 72.12 121.39 72.11 121.41 72.11 121.42 72.1 121.44 72.1 121.46 72.09 121.47 72.08 121.49 72.07 121.5 72.06 121.52 72.04 121.54 72.03 121.55 72.02 121.57 72.01 121.58 72.01 121.6 72 121.62 71.99 121.64 71.99 121.65 71.99 121.66 71.99 121.68 72 121.71 72.02 121.73 72.02 121.74 72.03 121.76 72.03 121.77 72.02 121.79 72.02 121.81 72.01 121.82 72 121.84 72 121.86 71.99 121.88 72 121.92 72 121.95 72 121.97 72 121.99 72 122.02 72 122.04 72 122.06 72.01 122.08 72.02 122.11 72.02 122.13 72.02 122.2 72.02 122.23 72.02 122.25 72.02 122.27 72.02 122.3 72.02 122.32 72.02 122.34 72.01 122.37 72.01 122.39 72.01 122.41 72.01 122.51 72.04 122.53 72.05 122.56 72.06 122.58 72.06 122.63 72.07 122.65 72.07 122.69 72.08 122.74 72.09 122.78 72.09 122.8 72.1 122.84 72.11 122.86 72.11 122.87 72.12 122.89 72.13 122.93 72.14 122.94 72.15 122.97 72.16 122.98 72.17 123 72.17 123.01 72.17 123.04 72.17 123.06 72.16 123.09 72.15 123.11 72.14 123.12 72.13 123.13 72.12 123.15 72.11 123.19 72.07 123.2 72.06 123.21 72.05 123.23 72.03 123.23 72.03 123.24 72.02 123.25 72 123.26 71.98 123.26 71.97 123.26 71.96 123.26 71.95 123.26 71.93 123.27 71.92 123.27 71.91 123.28 71.89 123.28 71.88 123.29 71.87 123.3 71.86 123.32 71.85 123.34 71.84 123.36 71.83 123.38 71.83 123.4 71.82 123.42 71.82 123.57 71.81 123.68 71.78 123.77 71.75 123.87 71.72 124.13 71.64 124.18 71.62 124.32 71.53 124.54 71.44 124.66 71.39 124.69 71.38 124.89 71.25 124.96 71.2 125.06 71.12 125.19 71 125.23 70.96 125.25 70.93 125.29 70.87 125.31 70.78 125.31 70.77 125.31 70.73 125.29 70.69 125.28 70.68 125.26 70.67 125.23 70.65 125.22 70.64 125.22 70.63 125.23 70.62 125.24 70.61 125.27 70.6 125.29 70.58 125.31 70.56 125.33 70.55 125.39 70.52 125.44 70.49 125.48 70.46 125.5 70.46 125.53 70.46 125.6 70.46 125.62 70.46 125.71 70.49 125.81 70.52 125.91 70.56 125.97 70.57 126.02 70.58 126.11 70.6 126.25 70.63 126.41 70.67 126.51 70.68 126.62 70.71 126.66 70.71 126.78 70.71 126.83 70.7 126.85 70.69 127.03 70.6 127.16 70.54 127.22 70.5 127.31 70.43 127.44 70.33 127.51 70.28 127.65 70.16 127.74 70.07 127.76 70.05 Z"/>
</g></svg>