<svg xmlns="http://www.w3.org/2000/svg" version="1.2" baseProfile="tiny" stroke-linecap="round" stroke-linejoin="round" viewBox="447.07 310.87 17.25 29.77"><g xmlns="http://www.w3.org/2000/svg" id="Girgillao">
<path d="M 455.51 310.87 455.56 310.92 455.62 310.98 455.68 311.04 455.74 311.1 455.81 311.19 455.87 311.24 455.96 311.31 456.01 311.35 456.07 311.4 456.1 311.43 456.17 311.48 456.25 311.54 456.31 311.6 456.4 311.67 456.47 311.72 456.54 311.78 456.63 311.85 456.7 311.9 456.77 311.96 456.86 312.03 456.96 312.11 457.01 312.15 457.1 312.21 457.17 312.24 457.28 312.29 457.35 312.33 457.46 312.38 457.51 312.41 457.59 312.45 457.69 312.5 457.78 312.55 457.86 312.59 457.94 312.63 458.03 312.67 458.13 312.73 458.2 312.76 458.29 312.81 458.3 312.81 458.32 312.82 458.36 312.84 458.43 312.88 458.54 312.93 458.59 312.96 458.66 313.01 458.71 313.05 458.79 313.12 458.86 313.18 458.94 313.24 459 313.29 459.08 313.36 459.13 313.4 459.2 313.46 459.27 313.51 459.36 313.59 459.41 313.63 459.51 313.71 459.64 313.82 459.73 313.89 459.8 313.95 459.85 313.99 459.91 314.04 459.98 314.1 460.06 314.16 460.12 314.2 460.18 314.26 460.19 314.29 460.19 314.3 460.19 314.34 460.21 314.44 460.22 314.51 460.23 314.58 460.25 314.67 460.27 314.77 460.27 314.83 460.28 314.85 460.28 314.92 460.29 314.99 460.3 315.1 460.32 315.19 460.33 315.29 460.34 315.36 460.35 315.47 460.36 315.55 460.38 315.66 460.38 315.72 460.4 315.83 460.41 315.87 460.42 315.88 460.42 315.88 460.45 315.91 460.46 315.93 460.51 315.99 460.57 316.06 460.62 316.13 460.66 316.18 460.73 316.26 460.78 316.32 460.84 316.4 460.89 316.47 460.95 316.54 461.01 316.61 461.07 316.69 461.12 316.75 461.18 316.82 461.22 316.88 461.29 316.96 461.34 317.02 461.41 317.1 461.44 317.15 461.49 317.21 461.52 317.22 461.59 317.25 461.68 317.28 461.67 317.31 461.66 317.39 461.64 317.49 461.64 317.5 461.63 317.51 461.62 317.57 461.6 317.69 461.59 317.75 461.58 317.76 461.56 317.88 461.54 317.96 461.52 318.07 461.5 318.16 461.48 318.27 461.46 318.35 461.43 318.48 461.41 318.56 461.38 318.68 461.37 318.76 461.34 318.86 461.33 318.94 461.3 319.05 461.29 319.12 461.26 319.23 461.25 319.28 461.23 319.4 461.25 319.4 461.29 319.41 461.32 319.42 461.36 319.43 461.44 319.44 461.49 319.45 461.53 319.46 461.61 319.47 461.66 319.47 461.69 319.48 461.69 319.52 461.67 319.56 461.65 319.63 461.64 319.65 461.62 319.71 461.59 319.77 461.57 319.82 461.54 319.86 461.52 319.89 461.5 319.94 461.48 319.97 461.47 320 461.46 320.03 461.46 320.05 461.45 320.1 461.45 320.15 461.44 320.2 461.44 320.24 461.44 320.3 461.44 320.35 461.45 320.41 461.45 320.46 461.45 320.52 461.45 320.58 461.45 320.66 461.46 320.72 461.47 320.79 461.49 320.87 461.5 320.92 461.51 320.95 461.54 321 461.57 321.04 461.59 321.06 461.62 321.11 461.66 321.15 461.7 321.2 461.75 321.25 461.79 321.29 461.81 321.33 461.84 321.37 461.85 321.41 461.87 321.46 461.89 321.55 461.91 321.62 461.92 321.68 461.95 321.75 461.98 321.81 462.01 321.87 462.03 321.93 462.06 321.99 462.08 322.05 462.1 322.12 462.11 322.17 462.12 322.22 462.12 322.27 462.11 322.32 462.11 322.35 462.09 322.41 462.08 322.46 462.04 322.59 462.02 322.65 462.01 322.7 461.98 322.78 461.96 322.85 461.95 322.89 461.93 322.95 461.9 323 461.87 323.04 461.85 323.06 461.82 323.11 461.77 323.17 461.71 323.23 461.65 323.29 461.6 323.35 461.56 323.39 461.5 323.5 461.44 323.59 461.4 323.64 461.35 323.73 461.3 323.78 461.29 323.8 461.24 323.88 461.21 323.95 461.2 324 461.19 324.06 461.19 324.13 461.18 324.19 461.19 324.22 461.2 324.28 461.21 324.32 461.23 324.4 461.25 324.45 461.26 324.49 461.28 324.53 461.3 324.59 461.32 324.62 461.34 324.68 461.4 324.78 461.42 324.84 461.45 324.91 461.5 324.98 461.54 325.05 461.57 325.11 461.61 325.17 461.66 325.24 461.71 325.3 461.75 325.35 461.77 325.37 461.79 325.4 461.84 325.47 461.86 325.5 461.9 325.53 461.94 325.58 462.01 325.65 462.06 325.69 462.11 325.74 462.16 325.78 462.22 325.83 462.28 325.88 462.32 325.93 462.38 325.97 462.44 326.02 462.49 326.04 462.54 326.08 462.59 326.11 462.64 326.15 462.68 326.18 462.72 326.23 462.76 326.27 462.8 326.32 462.84 326.36 462.87 326.4 462.87 326.41 462.91 326.45 462.94 326.48 462.97 326.53 462.99 326.58 463.01 326.6 463.01 326.62 463.02 326.64 463.03 326.69 463.03 326.73 463.03 326.77 463.03 326.79 463.01 326.85 463 326.9 462.99 326.95 462.96 327.04 462.92 327.13 462.9 327.2 462.88 327.25 462.86 327.33 462.83 327.39 462.81 327.49 462.78 327.58 462.77 327.61 462.74 327.68 462.72 327.75 462.69 327.83 462.66 327.89 462.64 327.93 462.61 327.97 462.59 328 462.56 328.04 462.53 328.07 462.5 328.09 462.47 328.13 462.45 328.17 462.42 328.2 462.4 328.23 462.38 328.27 462.35 328.3 462.33 328.34 462.31 328.36 462.3 328.39 462.29 328.42 462.27 328.46 462.27 328.5 462.26 328.54 462.25 328.57 462.24 328.62 462.23 328.66 462.23 328.71 462.23 328.76 462.23 328.81 462.24 328.87 462.24 328.92 462.25 328.98 462.26 329.02 462.27 329.08 462.28 329.13 462.29 329.2 462.31 329.25 462.33 329.32 462.34 329.36 462.36 329.41 462.39 329.47 462.42 329.55 462.44 329.59 462.45 329.64 462.47 329.67 462.49 329.7 462.51 329.73 462.53 329.76 462.55 329.79 462.57 329.8 462.59 329.83 462.62 329.85 462.66 329.85 462.71 329.86 462.75 329.86 462.8 329.84 462.84 329.82 462.87 329.81 462.92 329.79 462.95 329.78 463.02 329.79 463.09 329.81 463.16 329.84 463.2 329.86 463.25 329.88 463.31 329.91 463.37 329.94 463.42 329.96 463.5 329.98 463.57 330 463.64 330.02 463.73 330.07 463.83 330.12 463.9 330.16 463.96 330.21 464.02 330.26 464.08 330.32 464.13 330.38 464.17 330.45 464.19 330.51 464.22 330.59 464.25 330.67 464.26 330.76 464.27 330.86 464.28 330.93 464.28 330.97 464.28 331.05 464.29 331.09 464.29 331.13 464.28 331.19 464.27 331.25 464.25 331.34 464.22 331.43 464.19 331.51 464.16 331.57 464.1 331.63 464.04 331.7 463.98 331.79 463.93 331.87 463.87 331.94 463.82 332.01 463.75 332.07 463.7 332.12 463.65 332.17 463.6 332.2 463.54 332.23 463.48 332.26 463.4 332.29 463.34 332.32 463.3 332.34 463.25 332.36 463.17 332.41 463.1 332.45 463.05 332.48 462.97 332.52 462.9 332.57 462.82 332.62 462.73 332.68 462.66 332.73 462.59 332.79 462.52 332.85 462.47 332.9 462.38 332.97 462.31 333.04 462.26 333.1 462.2 333.17 462.16 333.24 462.12 333.31 462.11 333.41 462.09 333.5 462.09 333.59 462.08 333.69 462.08 333.78 462.09 333.83 462.11 333.89 462.13 333.93 462.15 333.98 462.17 334.02 462.2 334.06 462.23 334.11 462.26 334.15 462.3 334.2 462.32 334.25 462.37 334.29 462.41 334.34 462.46 334.39 462.51 334.44 462.57 334.49 462.64 334.54 462.71 334.59 462.79 334.64 462.86 334.67 462.93 334.69 463.01 334.72 463.07 334.74 463.15 334.77 463.22 334.79 463.29 334.8 463.35 334.81 463.39 334.82 463.38 334.86 463.37 334.9 463.36 334.95 463.34 334.99 463.34 335 463.33 335.02 463.32 335.06 463.31 335.09 463.29 335.16 463.26 335.25 463.25 335.26 463.21 335.4 463.19 335.48 463.17 335.48 463.13 335.48 463.09 335.49 463.04 335.49 462.98 335.5 462.93 335.5 462.92 335.5 462.9 335.51 462.86 335.51 462.82 335.52 462.76 335.52 462.73 335.51 462.68 335.51 462.61 335.52 462.54 335.55 462.52 335.55 462.5 335.56 462.47 335.56 462.42 335.55 462.38 335.54 462.37 335.54 462.32 335.54 462.26 335.54 462.2 335.53 462.19 335.53 462.16 335.53 462.11 335.52 462.06 335.52 462.02 335.53 461.98 335.54 461.95 335.56 461.92 335.59 461.9 335.59 461.88 335.59 461.83 335.6 461.79 335.6 461.74 335.63 461.71 335.64 461.65 335.64 461.62 335.63 461.57 335.63 461.53 335.64 461.5 335.66 461.48 335.67 461.43 335.7 461.39 335.71 461.35 335.73 461.31 335.75 461.25 335.78 461.22 335.79 461.2 335.8 461.19 335.81 461.11 335.86 461.03 335.9 460.95 335.93 460.9 335.96 460.84 335.99 460.81 336 460.79 336.02 460.76 336.03 460.68 336.07 460.64 336.08 460.61 336.1 460.56 336.13 460.52 336.15 460.48 336.16 460.45 336.17 460.42 336.19 460.37 336.21 460.33 336.23 460.28 336.26 460.23 336.28 460.18 336.3 460.14 336.32 460.09 336.33 460.05 336.34 460.01 336.35 459.98 336.36 459.96 336.37 459.92 336.39 459.89 336.42 459.85 336.46 459.81 336.52 459.79 336.55 459.76 336.57 459.73 336.61 459.69 336.64 459.66 336.66 459.64 336.67 459.58 336.71 459.52 336.76 459.48 336.8 459.43 336.85 459.36 336.91 459.31 336.96 459.28 336.98 459.23 337.05 459.21 337.13 459.2 337.16 459.19 337.19 459.18 337.22 459.16 337.29 459.13 337.36 459.1 337.41 459.06 337.46 459.02 337.5 458.99 337.56 458.95 337.62 458.93 337.65 458.9 337.7 458.86 337.77 458.83 337.86 458.82 337.91 458.76 338.03 458.75 338.09 458.71 338.2 458.7 338.22 458.69 338.23 458.65 338.28 458.62 338.33 458.61 338.34 458.6 338.36 458.58 338.39 458.57 338.48 458.58 338.58 458.58 338.67 458.59 338.72 458.61 338.8 458.64 338.91 458.66 338.98 458.69 339.07 458.72 339.15 458.73 339.22 458.73 339.25 458.76 339.28 458.77 339.3 458.78 339.34 458.77 339.39 458.75 339.46 458.73 339.54 458.71 339.61 458.64 339.7 458.6 339.78 458.54 339.86 458.49 339.91 458.47 339.93 458.43 339.97 458.37 340.03 458.28 340.11 458.24 340.15 458.19 340.19 458.14 340.21 458.1 340.25 458.06 340.3 458.01 340.34 457.94 340.39 457.92 340.4 457.87 340.43 457.83 340.45 457.77 340.49 457.72 340.52 457.66 340.55 457.62 340.57 457.6 340.58 457.56 340.58 457.49 340.59 457.44 340.59 457.4 340.6 457.39 340.6 457.35 340.6 457.3 340.6 457.24 340.6 457.19 340.61 457.13 340.61 457.09 340.61 457.04 340.61 456.99 340.61 456.91 340.62 456.85 340.61 456.81 340.61 456.76 340.61 456.73 340.6 456.71 340.6 456.71 340.6 456.68 340.6 456.64 340.59 456.61 340.58 456.56 340.56 456.51 340.54 456.47 340.51 456.43 340.49 456.4 340.47 456.35 340.44 456.3 340.41 456.27 340.38 456.27 340.38 456.19 340.33 456.15 340.29 456.1 340.25 456.09 340.24 456.06 340.22 456.04 340.21 456.03 340.19 456 340.17 455.96 340.14 455.91 340.11 455.85 340.08 455.83 340.07 455.81 340.05 455.76 340.03 455.72 340 455.71 340 455.69 339.99 455.67 339.97 455.62 339.93 455.58 339.9 455.57 339.89 455.53 339.86 455.49 339.82 455.44 339.78 455.4 339.75 455.35 339.72 455.32 339.69 455.27 339.66 455.22 339.61 455.19 339.59 455.19 339.58 455.16 339.55 455.14 339.52 455.09 339.49 455.08 339.47 455.05 339.44 455.04 339.43 455.03 339.42 455.01 339.4 455 339.39 454.98 339.37 454.94 339.34 454.9 339.3 454.84 339.25 454.79 339.2 454.73 339.16 454.7 339.14 454.63 339.09 454.6 339.05 454.54 339 454.53 338.99 454.5 338.96 454.47 338.93 454.43 338.89 454.4 338.86 454.37 338.83 454.35 338.82 454.33 338.8 454.31 338.78 454.23 338.72 454.19 338.69 454.15 338.66 454.12 338.64 454.09 338.61 454.06 338.59 454.01 338.56 453.97 338.52 453.94 338.5 453.92 338.49 453.9 338.49 453.86 338.48 453.82 338.46 453.78 338.45 453.74 338.44 453.7 338.41 453.65 338.39 453.62 338.37 453.6 338.35 453.58 338.33 453.56 338.32 453.5 338.27 453.46 338.25 453.36 338.22 453.28 338.2 453.21 338.18 453.14 338.15 453.1 338.11 453.09 338.11 453.08 338.1 453.07 338.09 453.04 338.08 453.01 338.07 452.99 338.07 452.93 338.06 452.9 338.06 452.82 338.04 452.83 337.99 452.85 337.91 452.86 337.89 452.86 337.83 452.89 337.68 452.89 337.68 452.9 337.63 452.85 337.54 452.81 337.44 452.7 337.23 452.68 337.16 452.67 337.11 452.63 337.09 452.6 337.07 452.59 337.07 452.54 337.05 452.46 337.01 452.37 336.96 452.26 336.9 452.15 336.86 452.05 336.83 451.95 336.81 451.87 336.77 451.84 336.74 451.81 336.72 451.79 336.71 451.7 336.65 451.63 336.6 451.58 336.55 451.5 336.49 451.47 336.47 451.43 336.44 451.37 336.38 451.34 336.33 451.31 336.3 451.22 336.2 451.17 336.14 451.14 336.1 451.05 336 450.97 335.88 450.9 335.81 450.83 335.73 450.75 335.64 450.68 335.54 450.61 335.45 450.56 335.37 450.51 335.32 450.45 335.25 450.42 335.2 450.4 335.13 450.4 335.04 450.4 334.98 450.4 334.94 450.37 334.89 450.35 334.84 450.34 334.76 450.35 334.7 450.37 334.62 450.37 334.54 450.36 334.45 450.27 334.16 450.23 334.04 450.2 333.9 450.16 333.75 450.15 333.66 450.13 333.56 450.12 333.49 450.1 333.42 450.05 333.29 450 333.17 449.96 333.07 449.93 332.96 449.9 332.87 449.88 332.74 449.87 332.64 449.86 332.54 449.85 332.41 449.85 332.31 449.84 332.3 449.84 332.23 449.83 332.16 449.81 332.11 449.76 332.05 449.73 331.98 449.69 331.91 449.65 331.83 449.62 331.77 449.58 331.7 449.58 331.69 449.56 331.6 449.55 331.54 449.54 331.48 449.51 331.37 449.48 331.25 449.45 331.19 449.45 331.12 449.45 331.02 449.44 330.93 449.44 330.91 449.44 330.85 449.42 330.85 449.13 330.81 448.92 330.78 448.79 330.76 448.64 330.71 448.54 330.69 448.36 330.63 448.37 330.6 448.37 330.56 448.38 330.54 448.38 330.5 448.39 330.45 448.4 330.43 448.4 330.41 448.4 330.4 448.41 330.37 448.41 330.34 448.42 330.28 448.41 330.24 448.41 330.23 448.4 330.2 448.4 330.17 448.4 330.16 448.4 330.15 448.4 330.11 448.4 330.08 448.39 330.06 448.38 330.02 448.38 329.98 448.38 329.94 448.37 329.89 448.37 329.86 448.37 329.82 448.36 329.77 448.36 329.73 448.35 329.72 448.35 329.71 448.35 329.65 448.34 329.61 448.34 329.59 448.34 329.55 448.33 329.53 448.33 329.48 448.32 329.44 448.32 329.36 448.31 329.3 448.31 329.27 448.31 329.21 448.3 329.14 448.3 329.08 448.3 329.02 448.3 328.96 448.29 328.91 448.29 328.89 448.29 328.87 448.3 328.8 448.31 328.76 448.31 328.73 448.33 328.68 448.34 328.62 448.35 328.58 448.35 328.56 448.36 328.53 448.37 328.48 448.37 328.41 448.37 328.34 448.37 328.33 448.38 328.25 448.36 328.15 448.34 328.08 448.34 328.06 448.32 328.01 448.3 327.95 448.28 327.92 448.28 327.88 448.3 327.84 448.32 327.8 448.33 327.75 448.34 327.68 448.35 327.61 448.35 327.55 448.35 327.52 448.35 327.48 448.33 327.42 448.3 327.35 448.28 327.29 448.26 327.24 448.25 327.22 448.24 327.18 448.23 327.12 448.23 327.05 448.24 326.99 448.24 326.96 448.23 326.89 448.24 326.83 448.24 326.82 448.24 326.75 448.24 326.7 448.24 326.63 448.24 326.6 448.24 326.59 448.22 326.55 448.17 326.5 448.11 326.44 448.05 326.38 447.99 326.31 447.96 326.28 447.93 326.24 447.89 326.19 447.85 326.15 447.79 326.11 447.74 326.08 447.7 326.05 447.67 326.02 447.65 326 447.64 325.99 447.63 325.98 447.64 325.95 447.67 325.91 447.69 325.88 447.72 325.84 447.75 325.81 447.75 325.8 447.76 325.77 447.79 325.74 447.81 325.7 447.83 325.67 447.84 325.64 447.83 325.62 447.81 325.59 447.81 325.58 447.81 325.53 447.81 325.49 447.81 325.45 447.8 325.41 447.79 325.35 447.78 325.31 447.75 325.25 447.74 325.21 447.73 325.19 447.71 325.17 447.69 325.12 447.68 325.08 447.66 325.03 447.65 324.98 447.65 324.94 447.66 324.88 447.66 324.81 447.68 324.76 447.68 324.7 447.7 324.63 447.71 324.56 447.72 324.53 447.72 324.48 447.74 324.4 447.74 324.35 447.75 324.32 447.75 324.31 447.77 324.26 447.77 324.2 447.79 324.14 447.8 324.08 447.81 324.04 447.81 324.01 447.8 323.98 447.79 323.95 447.78 323.94 447.77 323.92 447.73 323.87 447.71 323.84 447.69 323.8 447.66 323.73 447.62 323.64 447.59 323.58 447.57 323.53 447.55 323.48 447.54 323.45 447.53 323.42 447.52 323.4 447.51 323.39 447.47 323.35 447.47 323.34 447.43 323.29 447.4 323.24 447.38 323.2 447.37 323.18 447.35 323.15 447.34 323.13 447.34 323.11 447.32 323.07 447.31 323.03 447.3 323 447.29 322.95 447.29 322.91 447.29 322.89 447.29 322.85 447.28 322.82 447.26 322.77 447.24 322.73 447.2 322.68 447.16 322.64 447.14 322.61 447.11 322.56 447.09 322.53 447.08 322.49 447.08 322.46 447.08 322.42 447.09 322.38 447.1 322.33 447.1 322.31 447.1 322.28 447.12 322.23 447.12 322.22 447.12 322.22 447.13 322.19 447.15 322.16 447.17 322.11 447.17 322.11 447.2 322.06 447.22 322.03 447.23 322.02 447.24 322 447.25 322 447.27 321.96 447.31 321.92 447.36 321.86 447.4 321.82 447.45 321.77 447.48 321.72 447.49 321.72 447.51 321.69 447.54 321.66 447.55 321.65 447.56 321.64 447.59 321.62 447.63 321.57 447.66 321.53 447.68 321.52 447.7 321.5 447.71 321.49 447.74 321.45 447.78 321.41 447.79 321.39 447.8 321.37 447.82 321.34 447.84 321.31 447.87 321.27 447.9 321.26 447.93 321.24 447.94 321.23 447.97 321.22 448.01 321.2 448.06 321.17 448.15 321.13 448.19 321.11 448.21 321.1 448.27 321.07 448.29 321.06 448.34 321.04 448.36 321.03 448.4 321.01 448.44 320.98 448.45 320.98 448.49 320.95 448.52 320.93 448.56 320.92 448.61 320.88 448.64 320.87 448.65 320.89 448.66 320.9 448.67 320.9 448.69 320.91 448.71 320.93 448.75 320.97 448.8 321.01 448.85 321.05 448.91 321.09 448.96 321.14 449.02 321.17 449.07 321.21 449.13 321.25 449.18 321.29 449.22 321.32 449.25 321.35 449.27 321.36 449.28 321.37 449.32 321.39 449.35 321.4 449.37 321.4 449.39 321.39 449.39 321.37 449.39 321.33 449.38 321.27 449.37 321.21 449.37 321.19 449.38 321.16 449.39 321.11 449.4 321.08 449.42 321.05 449.43 321.02 449.46 320.97 449.48 320.93 449.5 320.86 449.53 320.8 449.56 320.75 449.58 320.71 449.59 320.68 449.62 320.67 449.64 320.65 449.66 320.63 449.67 320.6 449.69 320.56 449.7 320.54 449.71 320.48 449.72 320.43 449.74 320.38 449.75 320.34 449.76 320.33 449.77 320.3 449.79 320.26 449.83 320.2 449.85 320.16 449.86 320.14 449.88 320.11 449.91 320.08 449.93 320.05 449.97 320.02 450 319.99 450.01 319.97 450.03 319.93 450.05 319.89 450.05 319.88 450.07 319.84 450.08 319.86 450.1 319.88 450.11 319.89 450.12 319.91 450.15 319.94 450.18 319.98 450.2 320 450.21 320.01 450.22 320.03 450.26 320.07 450.29 320.1 450.32 320.12 450.36 320.16 450.4 320.2 450.45 320.25 450.49 320.28 450.54 320.32 450.59 320.38 450.64 320.42 450.69 320.47 450.73 320.5 450.78 320.55 450.85 320.61 450.87 320.6 450.89 320.6 450.91 320.52 450.94 320.46 450.96 320.38 450.98 320.32 451 320.27 451.02 320.21 451.04 320.14 451.07 320.07 451.09 320 451.1 319.93 451.11 319.88 451.13 319.81 451.15 319.74 451.17 319.73 451.23 319.7 451.29 319.66 451.37 319.62 451.43 319.59 451.5 319.56 451.52 319.55 451.54 319.53 451.56 319.49 451.58 319.42 451.6 319.34 451.61 319.3 451.63 319.24 451.65 319.15 451.67 319.05 451.69 318.97 451.69 318.96 451.73 318.87 451.76 318.8 451.81 318.73 451.83 318.69 451.84 318.68 451.86 318.65 451.88 318.61 451.89 318.58 451.92 318.54 451.93 318.51 451.94 318.49 451.99 318.4 452.01 318.36 452.02 318.34 452.07 318.25 452.11 318.17 452.14 318.11 452.16 318.05 452.13 317.98 452.09 317.9 452.12 317.84 452.16 317.76 452.19 317.68 452.23 317.58 452.26 317.52 452.3 317.44 452.34 317.35 452.39 317.24 452.43 317.16 452.43 317.15 452.47 317.05 452.51 316.96 452.52 316.93 452.57 316.86 452.61 316.78 452.68 316.69 452.73 316.61 452.77 316.54 452.83 316.44 452.88 316.36 452.93 316.29 452.98 316.21 453.04 316.12 453.1 316.02 453.14 315.95 453.19 315.88 453.22 315.81 453.26 315.67 453.28 315.57 453.31 315.46 453.33 315.38 453.35 315.3 453.38 315.18 453.41 315.07 453.43 314.98 453.44 314.94 453.44 314.92 453.47 314.82 453.49 314.75 453.51 314.63 453.53 314.55 453.56 314.45 453.58 314.35 453.6 314.27 453.62 314.14 453.65 314.03 453.66 313.95 453.68 313.87 453.7 313.75 453.71 313.65 453.73 313.54 453.74 313.46 453.75 313.37 453.76 313.35 453.82 313.34 453.88 313.31 454.01 313.26 454.16 313.18 454.25 313.11 454.29 313.09 454.38 312.98 454.43 312.91 454.44 312.9 454.47 312.85 454.49 312.82 454.53 312.76 454.61 312.67 454.7 312.56 454.78 312.46 454.83 312.34 454.9 312.21 454.98 312.07 455.05 311.95 455.09 311.84 455.07 311.82 455 311.77 454.97 311.72 454.95 311.67 454.92 311.56 454.9 311.44 454.89 311.33 454.89 311.26 454.9 311.18 454.92 311.07 454.94 311 455.09 310.97 455.1 310.96 455.11 310.96 455.17 310.94 455.23 310.93 455.27 310.92 455.29 310.92 455.34 310.91 455.42 310.89 455.51 310.87 Z"/>
</g></svg>