<svg xmlns="http://www.w3.org/2000/svg" version="1.2" baseProfile="tiny" stroke-linecap="round" stroke-linejoin="round" viewBox="623 3.92 27.48 21.38"><g xmlns="http://www.w3.org/2000/svg" id="Gixune">
<path d="M 623.01 14.77 623.4 14.57 624.49 14 625.13 13.65 625.76 13.3 626.6 12.8 627.62 12.42 627.72 12.38 628.38 12.08 629.14 11.58 629.91 11.07 630.56 10.66 631.09 10.34 631.46 10.11 631.9 9.83 632.36 9.44 632.87 9.03 633.46 8.6 634 8.25 634.57 7.85 635.53 7.27 635.96 6.74 636.4 6.21 637.2 5.45 637.99 4.69 638.79 3.92 639.08 4.15 639.1 4.18 639.36 4.41 639.38 4.43 639.41 4.46 639.51 4.55 639.58 4.62 639.6 4.64 639.62 4.66 639.63 4.68 639.64 4.71 639.64 4.74 639.66 4.77 639.73 4.87 639.81 4.99 639.86 5.09 639.87 5.11 639.87 5.13 639.88 5.19 639.88 5.33 639.88 5.44 639.87 5.57 639.87 5.61 639.87 5.65 640.23 5.41 640.25 5.45 640.27 5.49 640.28 5.5 640.32 5.54 640.75 6.04 640.76 6.05 640.81 6.1 640.86 6.17 640.98 6.3 641.01 6.34 641.11 6.45 641.19 6.54 641.23 6.59 641.27 6.64 641.38 6.75 641.41 6.8 641.52 6.92 641.59 7 641.64 7.05 641.66 7.08 641.78 7.22 641.86 7.31 641.91 7.37 641.95 7.41 641.97 7.42 641.99 7.44 642 7.44 642.02 7.46 642.02 7.47 642.02 7.47 642.03 7.5 642.03 7.52 642.04 7.54 642.04 7.56 642.04 7.58 642.05 7.61 642.06 7.62 642.07 7.63 642.09 7.64 642.12 7.66 642.13 7.66 642.24 7.72 642.35 7.78 642.48 7.84 642.51 7.86 642.5 8.06 642.49 8.11 642.49 8.13 642.49 8.17 642.49 8.18 642.51 8.23 642.53 8.28 642.53 8.28 642.59 8.54 642.59 8.57 642.58 8.57 642.55 8.58 642.51 8.58 642.48 8.58 642.44 8.57 642.4 8.57 642.36 8.58 642.31 8.59 642.26 8.62 642.23 8.64 642.23 8.66 642.25 8.75 642.27 8.81 642.28 8.84 642.3 8.86 642.38 8.89 642.49 8.93 642.54 8.94 642.58 8.94 642.6 8.94 642.61 8.94 642.61 8.99 642.61 9.02 642.61 9.05 642.61 9.06 642.57 9.08 642.53 9.1 642.44 9.1 642.39 9.08 642.37 9.07 642.36 9.07 642.3 9.08 642.27 9.09 642.25 9.12 642.24 9.15 642.24 9.19 642.22 9.23 642.22 9.27 642.21 9.38 642.37 9.33 642.51 9.3 643.22 9.21 643.67 9.16 644.09 9.21 644.4 9.38 644.59 9.58 644.81 10.03 645.03 10.64 645.09 10.79 645.19 11.01 645.29 11.16 645.39 11.29 645.47 11.38 645.56 11.46 645.68 11.56 645.86 11.67 646 11.74 646.16 11.83 646.33 11.9 646.52 11.98 646.68 12.04 646.81 12.1 646.94 12.16 647.11 12.24 647.23 12.31 647.36 12.4 647.46 12.48 647.61 12.61 647.76 12.75 647.86 12.85 648 13 648.12 13.13 648.25 13.24 648.42 13.36 648.57 13.45 648.7 13.52 648.87 13.6 649.03 13.67 649.3 13.77 649.54 13.88 649.61 13.91 649.72 13.97 649.94 14.09 650.09 14.2 650.21 14.29 650.31 14.4 650.36 14.47 650.4 14.54 650.41 14.59 650.43 14.65 650.44 14.75 650.45 14.85 650.44 14.95 650.42 15.07 650.4 15.24 650.36 15.41 650.31 15.55 650.27 15.67 650.22 15.78 650.18 15.87 650.11 15.99 650.05 16.08 649.96 16.19 649.83 16.32 649.73 16.41 649.63 16.48 649.47 16.56 649.28 16.64 649.05 16.74 648.86 16.8 648.7 16.85 648.64 16.87 648.61 16.89 648.47 16.95 648.36 17 648.29 17.07 648.24 17.13 648.19 17.2 648.16 17.3 648.15 17.43 648.16 17.52 648.2 17.6 648.27 17.75 648.36 17.86 648.48 18.01 648.64 18.17 648.65 18.19 648.73 18.28 648.81 18.35 648.91 18.46 648.99 18.54 649.05 18.63 649.1 18.7 649.13 18.77 649.16 18.85 649.17 18.92 649.18 19 649.19 19.1 649.17 19.17 649.13 19.34 649.06 19.58 648.96 19.91 648.87 20.17 648.8 20.36 648.76 20.48 648.74 20.56 648.73 20.58 648.67 20.57 648.64 20.56 648.4 20.48 648.37 20.25 648.35 20.22 648.29 20.18 648.25 20.17 648.19 20.18 648.06 20.23 648.01 20.25 647.9 20.3 647.83 20.33 647.77 20.35 647.69 20.37 647.68 20.37 647.59 20.41 647.54 20.43 647.48 20.47 647.39 20.54 647.3 20.6 647.19 20.67 647.16 20.69 647.14 20.72 647.09 20.77 647.06 20.8 647.03 20.83 647 20.86 646.85 20.97 646.69 21.1 646.55 21.21 646.43 21.3 646.4 21.33 646.38 21.34 646.35 21.4 646.26 21.55 646.18 21.67 646.1 21.81 646.07 21.85 646.05 21.92 646.03 21.94 646.02 21.95 646.01 21.97 645.95 22.06 645.88 22.15 645.81 22.3 645.79 22.34 645.78 22.35 645.76 22.37 645.73 22.38 645.72 22.39 645.7 22.42 645.72 22.44 645.75 22.46 645.8 22.5 645.82 22.53 645.82 22.55 645.81 22.56 645.8 22.56 645.77 22.56 645.76 22.55 645.75 22.55 645.74 22.56 645.67 22.58 645.58 22.63 645.45 22.67 645.25 22.75 645.21 22.75 645.17 22.75 645.15 22.75 645.08 22.74 645.02 22.73 644.95 22.69 644.89 22.6 644.88 22.55 644.87 22.53 644.71 22.45 644.68 22.44 644.66 22.45 644.63 22.47 644.59 22.55 644.58 22.59 644.54 22.58 644.5 22.57 644.46 22.57 644.41 22.58 644.35 22.6 644.34 22.59 644.32 22.59 644.3 22.57 644.27 22.56 644.21 22.52 644.18 22.5 644.16 22.5 644.14 22.5 644.13 22.51 644.11 22.53 644.08 22.55 644.06 22.56 644.04 22.56 644.02 22.55 644 22.54 643.98 22.54 643.94 22.55 643.92 22.57 643.89 22.6 643.87 22.61 643.85 22.61 643.83 22.61 643.78 22.6 643.74 22.59 643.7 22.57 643.67 22.57 643.63 22.57 643.6 22.57 643.56 22.59 643.53 22.62 643.52 22.64 643.51 22.66 643.49 22.67 643.47 22.68 643.46 22.68 643.43 22.67 643.4 22.67 643.36 22.68 643.31 22.69 643.24 22.73 643.18 22.75 643.12 22.77 643.08 22.79 643.04 22.8 643.01 22.82 642.99 22.84 642.98 22.87 642.94 22.95 642.89 23.08 642.82 23.22 642.8 23.25 642.79 23.26 642.75 23.27 642.66 23.29 642.54 23.32 642.49 23.33 642.45 23.36 642.42 23.39 642.41 23.43 642.4 23.47 642.4 23.54 642.39 23.62 642.38 23.66 642.36 23.68 642.34 23.7 642.28 23.75 642.21 23.81 642.19 23.82 642.15 23.84 642.1 23.91 642.08 23.93 642.07 23.95 642.06 24.03 642.05 24.05 642.03 24.11 642.01 24.2 641.98 24.27 641.93 24.34 641.81 24.41 641.74 24.46 641.65 24.54 641.59 24.56 641.5 24.63 641.46 24.69 641.42 24.7 641.32 24.71 641.31 24.71 641.3 24.73 641.32 24.77 641.31 24.79 641.29 24.8 641.26 24.84 641.25 24.86 641.23 24.86 641.21 24.85 641.19 24.87 641.16 24.93 641.15 24.97 641.15 25.02 641.14 25.04 641.09 25.09 641.01 25.13 640.95 25.16 640.93 25.17 640.84 25.23 640.77 25.26 640.75 25.27 640.68 25.29 640.62 25.29 640.58 25.29 640.56 25.29 640.51 25.28 640.46 25.26 640.41 25.24 640.31 25.2 640.19 25.16 640.1 25.12 640.02 25.09 639.96 25.06 639.93 25.05 639.88 25.04 639.83 25.02 639.76 25.02 639.71 24.97 639.67 24.93 639.65 24.89 639.61 24.82 639.56 24.75 639.51 24.69 639.46 24.62 639.42 24.57 639.42 24.53 639.19 24.43 639.17 24.42 639 24.35 638.98 24.35 638.98 24.35 638.93 24.37 638.92 24.34 638.89 24.35 638.83 24.34 638.8 24.34 638.68 24.33 638.63 24.33 638.54 24.32 638.45 24.31 638.34 24.3 638.23 24.3 638.16 24.29 638.13 24.29 638.04 24.24 637.92 24.17 637.82 24.1 637.77 24.05 637.66 24.09 637.58 24.11 637.55 24.12 637.51 24.13 637.48 24.12 637.43 24.11 637.39 24.09 637.37 24.07 637.32 24.06 637.22 24.06 637.13 24.07 637.06 24.07 636.98 24.07 636.91 24.07 636.87 24.07 636.86 24.06 636.82 24.06 636.71 24.03 636.6 24.01 636.52 23.99 636.48 23.99 636.43 24 636.39 24 636.31 24 636.17 24 636.11 24 636.02 23.98 635.98 23.97 635.96 23.96 635.91 23.94 635.88 23.93 635.8 23.9 635.77 23.89 635.72 23.88 635.6 23.85 635.53 23.83 635.49 23.82 635.46 23.82 635.41 23.82 635.37 23.81 635.33 23.81 635.25 23.81 635.23 23.81 635.22 23.81 635.15 23.85 635.12 23.86 635.07 23.88 634.99 23.86 634.93 23.85 634.91 23.86 634.91 23.88 634.91 23.97 634.9 24.02 634.88 24.06 634.84 24.13 634.8 24.19 634.78 24.2 634.75 24.21 634.73 24.21 634.71 24.23 634.73 24.25 634.73 24.28 634.71 24.28 634.71 24.3 634.69 24.31 634.67 24.32 634.63 24.34 634.63 24.35 634.57 24.38 634.51 24.38 634.48 24.37 634.46 24.35 634.42 24.34 634.4 24.35 634.35 24.37 634.29 24.4 634.24 24.39 634.2 24.37 634.18 24.36 634.18 24.35 634.13 24.31 634.11 24.28 634.09 24.28 634.07 24.34 634.05 24.38 634.03 24.4 633.99 24.4 633.9 24.39 633.87 24.4 633.84 24.45 633.81 24.5 633.76 24.51 633.73 24.5 633.71 24.51 633.7 24.52 633.69 24.53 633.67 24.52 633.68 24.5 633.69 24.46 633.68 24.44 633.64 24.45 633.6 24.46 633.54 24.48 633.49 24.5 633.45 24.54 633.4 24.59 633.35 24.62 633.3 24.64 633.26 24.64 633.22 24.64 633.17 24.63 633.16 24.62 633.14 24.62 633.12 24.6 633.06 24.53 633 24.46 632.98 24.44 632.97 24.43 632.96 24.4 632.93 24.39 632.9 24.37 632.82 24.35 632.75 24.33 632.72 24.31 632.71 24.3 632.68 24.28 632.65 24.27 632.57 24.24 632.55 24.23 632.54 24.22 632.51 24.2 632.46 24.17 632.4 24.12 632.39 24.11 632.36 24.11 632.35 24.1 632.33 24.09 632.32 24.07 632.31 24.04 632.31 24.02 632.3 24.01 632.28 23.99 632.15 23.9 632.14 23.89 632.09 23.85 632.06 23.8 632.04 23.79 632.03 23.75 632.02 23.68 632.01 23.64 632 23.62 631.95 23.57 631.91 23.51 631.89 23.5 631.89 23.48 631.84 23.43 631.82 23.41 631.8 23.39 631.78 23.33 631.76 23.27 631.76 23.24 631.76 23.21 631.77 23.13 631.76 23.1 631.76 23.02 631.75 22.98 631.75 22.95 631.75 22.88 631.74 22.84 631.72 22.81 631.67 22.74 631.64 22.7 631.61 22.67 631.55 22.6 631.53 22.57 631.49 22.54 631.43 22.49 631.39 22.47 631.37 22.46 631.35 22.46 631.33 22.44 631.25 22.37 631.19 22.29 631.16 22.24 631.11 22.19 631.07 22.15 631.02 22.1 631 22.08 630.91 21.98 630.89 21.94 630.85 21.86 630.79 21.75 630.68 21.77 630.6 21.78 630.52 21.79 630.45 21.78 630.4 21.75 630.34 21.65 630.32 21.62 630.26 21.54 630.08 21.24 629.92 21.01 629.83 20.9 629.8 20.87 629.81 20.78 629.84 20.72 629.89 20.69 629.93 20.68 629.98 20.67 629.99 20.63 630 20.58 629.99 20.49 629.93 20.44 629.9 20.4 629.89 20.36 629.9 20.3 629.91 20.18 629.93 20.09 629.96 20.01 629.96 19.99 630 19.97 630.06 19.91 630.09 19.85 630.09 19.84 630.1 19.82 630.09 19.78 630.11 19.73 630.14 19.66 630.17 19.64 630.2 19.62 630.25 19.52 630.24 19.48 630.23 19.44 630.21 19.34 630.2 19.33 630.19 19.3 630.17 19.27 630.12 19.23 630.02 19.11 629.91 18.98 629.78 18.82 629.7 18.73 629.65 18.67 629.59 18.6 629.57 18.58 629.45 18.44 629.44 18.43 629.39 18.37 629.32 18.3 629.3 18.27 629.28 18.24 629.27 18.2 629.24 18.13 629.2 18.01 629.17 17.95 629.15 17.89 629.13 17.84 629.11 17.79 629.1 17.77 629.09 17.75 629.06 17.72 629.01 17.7 628.91 17.63 628.84 17.6 628.82 17.6 628.61 17.6 628.56 17.47 628.54 17.44 628.47 17.46 628.52 17.41 628.52 17.38 628.48 17.31 628.42 17.2 628.39 17.22 628.36 17.23 628.33 17.24 628.3 17.25 628.28 17.27 628.26 17.29 628.23 17.31 628.21 17.34 628.19 17.36 628.16 17.37 628.13 17.39 628.05 17.41 628.01 17.43 627.93 17.46 627.87 17.48 627.81 17.5 627.77 17.53 627.63 17.59 627.46 17.27 627.31 16.98 627.27 16.9 627.12 16.64 627.1 16.61 627.07 16.6 627.01 16.58 626.97 16.56 626.96 16.56 626.94 16.56 626.91 16.57 626.88 16.59 626.85 16.61 626.82 16.65 626.78 16.71 626.76 16.73 626.73 16.71 626.71 16.7 626.71 16.68 626.7 16.67 626.69 16.66 626.61 16.61 626.53 16.57 626.52 16.58 626.44 16.51 626.29 16.28 625.65 15.37 625.63 15.34 625.54 15.4 625.39 15.48 625.4 15.5 625.42 15.52 625.26 15.59 625.1 15.65 625 15.69 624.95 15.7 624.81 15.73 624.6 15.77 624.26 15.94 623.83 16.16 623.81 16.13 623.76 16.01 623.73 15.93 623.67 15.83 623.65 15.8 623.64 15.77 623.55 15.66 623.5 15.57 623.41 15.42 623.36 15.34 623.3 15.2 623.28 15.17 623.01 14.77 Z"/>
</g></svg>