<svg xmlns="http://www.w3.org/2000/svg" version="1.2" baseProfile="tiny" stroke-linecap="round" stroke-linejoin="round" viewBox="252.68 85.8 14.23 12.87"><g xmlns="http://www.w3.org/2000/svg" id="Gizaburuaga">
<path d="M 266.91 86.02 266.8 86.3 266.05 87.34 265.96 87.5 265.94 87.95 265.73 87.93 265.62 87.92 264.44 88.27 264.41 88.65 264.41 88.65 263.99 89.26 263.97 89.28 263.78 89.56 264.03 90.2 264.14 90.67 263.99 91.49 264 91.98 263.77 92.3 263.4 92.5 263.36 93.02 263.09 93.49 262.94 94.17 262.94 95.58 262.7 96.76 262.21 96.84 261.7 96.72 261.5 96.81 261.48 97.03 261.55 97.26 261.55 97.41 261.55 97.43 261.55 97.44 261.55 97.45 261.55 97.46 261.55 97.47 261.55 97.49 261.55 97.5 261.55 97.52 261.53 97.64 261.48 97.74 261.33 97.9 261.24 97.98 261.2 98.06 261.19 98.07 261.19 98.08 261.19 98.09 261.19 98.1 261.18 98.11 261.18 98.12 260.09 98.66 260.08 98.65 260.08 98.64 260.08 98.63 260.08 98.62 260.07 98.61 260.07 98.6 260.07 98.59 260.07 98.58 260.07 98.57 260.07 98.56 260.07 98.55 260.07 98.54 260.07 98.54 260.08 98.53 260.08 98.52 260.08 98.51 260.08 98.5 260.09 98.49 260.09 98.48 260.09 98.47 260.09 98.46 260.1 98.45 260.1 98.45 260.1 98.44 260.1 98.42 260.11 98.41 260.11 98.4 260.11 98.39 260.12 98.38 260.12 98.36 260.12 98.36 260.12 98.35 260.13 98.34 260.13 98.33 260.13 98.32 260.15 98.28 260.15 98.27 260.15 98.26 260.16 98.25 260.16 98.24 260.16 98.23 260.17 98.23 260.17 98.22 260.17 98.21 260.18 98.2 260.18 98.19 260.19 98.18 260.19 98.18 260.19 98.16 260.2 98.16 260.2 98.15 260.21 98.13 260.21 98.12 260.21 98.11 260.22 98.1 260.22 98.09 260.23 98.08 260.23 98.07 260.24 98.06 260.25 98.04 260.25 98.03 260.26 98.01 260.27 98 260.27 97.99 260.28 97.98 260.28 97.97 260.29 97.96 260.29 97.94 260.3 97.93 260.31 97.92 260.31 97.91 260.32 97.9 260.32 97.89 260.33 97.88 260.33 97.87 260.33 97.87 260.34 97.86 260.34 97.85 260.34 97.84 260.35 97.84 260.35 97.83 260.35 97.82 260.35 97.81 260.36 97.8 260.36 97.8 260.36 97.79 260.36 97.78 260.36 97.77 260.36 97.76 260.36 97.75 260.36 97.74 260.36 97.73 260.36 97.73 260.35 97.72 260.35 97.71 260.35 97.7 260.35 97.69 260.35 97.68 260.35 97.67 260.33 97.64 260.33 97.63 260.33 97.63 260.32 97.62 260.32 97.61 260.31 97.61 260.31 97.6 260.3 97.59 260.3 97.58 260.29 97.57 260.29 97.56 260.28 97.55 260.28 97.54 260.28 97.53 260.27 97.52 260.27 97.51 260.26 97.5 260.26 97.49 260.26 97.48 260.26 97.47 260.25 97.46 260.25 97.45 260.25 97.44 260.25 97.42 260.25 97.36 260.26 97.2 260.27 96.98 260.2 96.49 260.18 96.44 260.17 96.39 260.17 96.32 260.17 96.3 260.17 96.28 260.18 96.25 260.18 96.22 260.18 96.2 260.18 96.19 260.18 96.19 260.19 95.88 260.2 95.54 260.21 95.42 260.23 95.31 260.24 95.28 260.24 95.26 260.24 95.24 260.25 95.23 260.26 95.21 260.27 95.2 260.27 95.19 260.29 95.18 260.3 95.17 260.32 95.16 260.39 95.13 260.43 95.1 260.47 95.07 260.5 95.03 260.52 94.97 260.52 94.91 260.52 94.85 260.51 94.8 260.51 94.79 260.51 94.75 260.51 94.68 260.52 94.62 260.52 94.56 260.52 94.55 260.51 94.5 260.48 94.47 260.47 94.47 260.44 94.47 260.41 94.46 260.38 94.46 260.36 94.46 260.33 94.45 260.31 94.45 260.27 94.44 260.26 94.44 260.24 94.43 260.21 94.42 260.16 94.4 260.12 94.37 260.07 94.33 260.04 94.29 260.03 94.27 260.02 94.24 260.01 94.21 260 94.18 260 94.07 260 94.02 260 94.01 259.99 93.99 259.99 93.96 259.98 93.94 259.97 93.92 259.96 93.91 259.89 93.82 259.87 93.77 259.88 93.72 259.92 93.67 259.97 93.66 259.98 93.66 260.07 93.66 260.15 93.63 260.19 93.61 260.24 93.59 260.3 93.54 260.32 93.52 260.32 93.42 260.28 93.3 260.25 93.25 260.21 93.21 260.16 93.18 260.1 93.16 260.04 93.14 259.86 93.1 259.82 93.09 259.78 93.05 259.76 93 259.74 92.93 259.72 92.8 259.72 92.78 259.72 92.61 259.72 92.43 259.71 92.31 258.35 92.57 255.88 91.64 254.96 91.14 253.89 90.66 253.57 90.52 253.2 90.35 252.69 90.12 252.75 89.71 252.8 89.34 252.86 88.93 252.89 88.71 252.91 88.59 252.95 88.35 253.01 87.9 253.57 87.83 253.73 87.82 253.87 87.82 256.1 87.87 257.96 87.7 259.64 87.63 259.77 87.53 259.89 87.42 261.2 85.83 261.6 86.18 261.82 86.18 262.44 86.1 262.49 86.09 262.61 86.1 263.37 86.01 263.63 86.09 265.15 86.09 265.72 86.07 266.91 86.02 Z"/>
</g></svg>