<svg xmlns="http://www.w3.org/2000/svg" version="1.2" baseProfile="tiny" stroke-linecap="round" stroke-linejoin="round" viewBox="47.03 239.12 84.25 74.02"><g xmlns="http://www.w3.org/2000/svg" id="Gobiaran">
<path d="M 131.28 267.16 131.24 267.54 131.22 268.08 131.27 268.57 131.25 268.94 131.23 269.4 131.19 269.75 131.16 270.13 131.05 270.43 130.92 270.82 130.78 271.33 130.64 271.73 130.44 272.17 130.24 272.62 130.07 273.05 129.96 273.45 129.88 273.84 129.76 274.21 129.65 274.62 129.55 275.1 129.47 275.55 129.34 276.18 129.14 276.74 129 277.26 128.85 277.82 128.76 278.33 128.64 278.83 128.3 279.25 127.99 279.58 127.67 280.06 127.22 280.68 126.97 281.06 126.82 281.34 126.59 281.71 126.24 281.8 125.81 281.84 125.45 281.81 125.1 281.78 125.06 282.1 125.15 282.39 125.19 282.68 125.1 283.01 124.92 283.37 124.7 283.71 124.43 284.03 124.27 284.24 124.21 284.63 124.16 285.31 124.25 286.23 124.32 287.1 124.4 288.13 124.44 288.94 124.36 289.55 124.09 290.2 123.77 290.74 123.64 291.17 124.03 291.75 124.86 292.13 125.4 292.17 125.89 292.31 126.18 292.66 126.27 292.95 126.55 293.15 126.76 293.31 126.79 293.57 126.5 293.87 126.03 294.41 125.57 294.89 125.06 295.42 124.74 295.94 124.49 296.57 124.72 297.36 124.82 298.03 124.92 299.03 124.97 299.93 124.94 300.68 124.84 301 124.6 301.27 124.2 301.47 123.88 301.64 123.61 301.74 122.89 301.79 122.29 301.81 121.67 301.71 121.17 301.62 120.69 301.47 120.12 301.39 119.5 301.32 118.94 301.24 118.5 301.16 118.22 301.06 117.93 301.18 117.74 301.41 117.57 301.63 117.31 301.71 116.86 301.66 115.83 302.39 115.28 302.79 114.57 303.25 114.04 303.58 113.44 303.83 113.02 304.03 112.69 304.28 112.5 304.41 112.4 304.62 112.4 304.95 112.41 305.2 112.19 305.42 111.85 305.4 111.59 305.24 111.31 305.17 111.06 305.12 110.83 305.41 110.76 305.71 110.9 306.13 111.1 306.58 111.33 307 111.51 307.28 111.7 307.63 111.88 307.96 112.07 308.46 112.29 308.9 112.38 309.25 112.15 309.74 111.94 310.09 111.89 310.37 112.23 310.65 112.48 310.79 112.65 311.12 112.75 311.54 113.04 312.06 112.69 312.21 112.15 312.52 111.71 312.69 111.25 313.03 110.77 313.13 110.31 313.04 109.8 312.88 109.37 312.67 109.08 312.36 108.61 312 108.27 311.87 107.92 311.73 107.57 311.42 107.37 311.1 107.12 310.73 106.26 310.56 106.27 310.28 106.13 309.91 106 309.58 105.77 309.22 105.36 308.88 104.96 308.64 104.59 308.43 104.25 308.22 103.97 308 103.69 307.66 103.51 307.36 103.22 307.07 102.89 306.74 102.68 306.31 102.59 305.81 102.58 305.46 102.58 304.93 102.55 304.28 102.43 303.78 102.15 303.44 101.85 303.15 101.43 302.85 101.03 302.64 100.64 302.41 100.25 302.18 99.85 301.96 99.29 301.68 98.79 301.45 98.42 301.27 98.11 301.15 97.84 301.14 97.55 301.17 97.14 301.28 96.66 301.38 96.23 301.41 95.71 301.43 95.01 301.47 94.55 301.49 93.9 301.72 93.32 301.85 92.82 301.92 92.26 301.85 91.64 301.58 90.93 301.16 90.1 300.42 89.46 299.74 88.64 299.19 87.99 298.85 87.26 298.3 86.64 297.81 85.98 297.46 85.06 297.06 84.27 296.41 83.73 295.95 83.98 295.65 84.62 294.87 85.15 294.24 85.78 293.62 86.41 293.07 86.75 292.47 86.93 291.79 86.89 291.15 86.79 290.14 86.9 289.66 87.11 289.29 87.3 288.83 87.49 288.1 87.71 287.62 87.95 287.14 88.08 286.61 88.41 285.99 88.84 285.35 88.89 284.93 88.73 284.19 88.75 284.14 88.83 283.92 89.02 283.65 89.3 283.47 89.67 283.22 90.06 283.01 90.49 282.89 90.82 282.78 91.25 282.64 91.68 282.4 92.03 282.11 92.28 281.8 92.54 281.42 92.61 281.15 92.54 281.01 92.33 280.63 91.96 279.99 92.37 279.2 92.67 278.74 93.09 278.33 93.56 278.48 94.07 278.71 94.34 278.15 94.74 276.14 95.84 275.43 96.03 275.16 96.24 274.8 96.51 274.18 96.86 273.56 96.86 273.2 96.86 272.77 96.99 272.26 97.17 271.63 97.45 271.17 97.77 270.65 98.05 270.19 98.3 269.73 98.52 269.22 99.18 266.64 97.31 265.33 97.38 263.09 97.13 262.85 96.89 262.7 96.62 262.5 96.33 262.28 96.02 262.07 95.77 261.86 95.45 261.51 95.12 261.33 94.84 261.38 93.8 261.53 93.55 261.99 93.21 262.54 92.91 262.91 92.6 263.28 92.39 263.55 92.14 263.97 91.92 264.34 91.69 264.75 91.41 265.12 91.18 265.53 90.96 266.01 90.75 266.42 90.55 266.77 90.34 267.11 90.08 267.45 89.74 268.03 89.89 268.99 89.88 269.32 89.69 269.64 89.5 269.76 89.22 269.98 88.94 270.26 88.65 270.54 88.36 270.8 88.11 271.06 87.83 271.39 87.63 271.65 87.39 272.07 87.21 272.38 87 272.8 86.81 273.24 86.64 273.61 86.32 274.15 85.12 274.14 85 274.39 84.82 274.73 84.64 274.91 84.48 275.11 84.12 275.3 82.87 275.13 82.54 275.12 82.27 275.12 81.87 275.13 81.4 275.09 81.04 275.09 80.65 275.09 80.35 275.04 80.06 275.07 79.83 274.96 79.66 274.8 79.45 274.59 79.26 274.34 79.03 274.08 78.85 273.87 78.58 273.53 78.35 273.37 78.11 273.15 77.84 272.9 77.55 272.67 77.28 272.41 77.07 272.19 76.8 271.92 76.5 271.59 76.22 271.3 75.89 271 75.62 270.74 75.15 270.64 74.49 270.32 71.79 275.82 69.81 277.41 69.16 280.21 65.71 282.29 67.71 284.47 68.07 284.72 68.53 285.19 68.98 285.64 69.49 286.03 70.13 286.44 70.45 286.83 70.05 286.97 69.4 287.01 68.64 287.14 67.73 287.22 66.97 287.17 66.15 286.88 65.44 286.42 64.98 285.98 64.32 285.45 63.73 284.45 62.46 283.53 61.79 282.93 60.98 282.08 60.43 281.36 59.86 280.73 59.18 279.93 58.57 279.29 58.02 278.69 57.38 278 56.79 277.5 56.26 277.01 55.85 276.55 54.44 274.64 53.53 273.79 52.52 272.82 51.72 271.99 50.56 270.8 49.43 269.47 48.55 268.37 47.91 267.29 47.06 264.39 49.92 263.68 49.7 258.05 53.31 256.04 58.09 253.7 57.96 253.22 57.91 252.94 57.89 252.5 57.98 251.88 58.07 251.39 58.23 250.82 58.38 250.31 58.52 249.79 58.75 249.34 58.99 248.82 59.2 248.37 59.48 247.8 59.74 247.26 60 246.8 60.35 246.33 60.72 245.96 61.23 245.63 61.61 245.45 61.91 245.26 61.79 243.43 61.8 242.93 61.75 242.38 61.77 241.87 61.81 241.33 61.99 241.14 62.45 240.79 63.07 240.28 63.4 240.06 63.7 239.83 63.93 239.6 64.31 239.32 64.65 239.14 64.97 239.15 65.3 239.31 65.58 239.48 65.73 239.34 65.92 239.26 66.27 239.19 66.63 239.27 66.94 239.5 67.16 239.81 67.28 240.28 67.43 240.65 67.65 240.81 68.07 240.73 68.27 240.88 68.4 241.21 69 241.08 69.23 240.46 69.48 240.41 69.86 240.34 70.19 240.34 70.47 240.46 70.72 240.69 71.01 240.97 71.45 241.12 71.63 240.86 71.79 240.63 72.07 240.55 72.71 240.54 73.12 240.58 73.48 240.78 73.82 240.96 74.24 241.02 74.56 240.99 75.08 240.96 75.69 241.12 75.96 241.11 76.36 241.17 77.12 241.38 77.63 241.5 78.16 241.68 78.82 241.91 79.38 242.11 79.9 242.28 80.47 242.6 80.86 242.95 81.1 243.19 81.45 243.41 81.99 243.56 82.6 243.68 83.25 243.85 84.07 244.06 84.77 244.25 85.51 244.4 86.14 244.63 86.68 244.8 87.08 244.98 87.35 245.14 87.39 245.45 87.32 245.92 87.22 246.53 87.15 247.06 87.11 247.54 87.07 247.95 87.01 248.22 86.99 248.55 86.93 248.97 86.82 249.83 86.69 250.68 86.53 251.3 87.09 251.71 87.53 252.05 87.89 252.3 88.21 252.48 88.72 252.79 89.11 253.03 89.61 253.21 90.13 253.24 90.56 253.26 91.05 253.23 91.42 253.15 91.75 253.29 91.69 253.77 91.83 254.16 92.11 254.57 92.19 255.01 92.38 255.44 92.57 255.8 92.86 256.29 93.07 256.61 93.25 256.77 93.55 256.88 93.87 256.86 94.16 256.68 94.52 256.53 94.88 256.46 95.42 256.37 96.19 256.21 96.75 256.08 97.21 256.13 97.57 256.13 97.94 256.07 98.32 255.91 98.65 255.67 99.04 255.18 99.35 254.89 99.63 254.53 99.75 254.56 100.09 254.93 100.32 255.28 100.49 255.56 100.72 255.87 100.99 256.33 101.34 256.77 101.69 257.23 101.99 257.68 102.27 258.17 102.44 258.45 102.57 258.65 103.08 258.75 103.76 258.65 104.33 258.53 104.82 258.35 105.25 258.27 105.81 258.11 106.5 257.97 107.12 257.91 107.66 257.8 108.13 257.71 108.68 257.46 109.03 257.13 109.27 256.75 109.52 256.83 109.94 256.92 110.37 257.04 110.73 257.18 111.08 257.3 111.43 257.47 111.73 257.6 112.17 257.58 112.62 257.46 113.09 257.33 113.6 257.2 114.11 257.12 114.68 257.11 115.35 256.94 115.92 256.84 116.43 256.73 116.94 256.6 117.48 256.47 117.94 256.35 118.39 256.23 118.92 256.17 119.51 256.07 120.12 255.95 120.82 255.75 121.35 255.52 121.59 255.36 122.07 255.32 122.45 255.38 123.02 255.26 123.44 255.15 123.82 254.92 124.25 254.64 124.51 254.2 124.85 254.4 125.1 254.64 125.29 254.84 125.5 255.04 125.62 255.26 125.53 255.59 125.45 255.96 125.36 256.25 125.27 256.59 125.18 257.01 125.13 257.34 125.14 257.65 125.15 257.97 125.22 258.27 125.36 258.54 125.57 258.88 125.81 259.19 126.08 259.42 126.54 259.58 126.83 259.71 127.09 259.93 127.37 260.38 127.46 260.66 127.66 261.1 127.74 261.52 127.91 261.88 128.07 262.28 128.18 262.71 128.33 263.07 128.53 263.46 128.69 263.85 128.85 264.21 129.03 264.51 129.23 264.9 129.45 265.27 129.69 265.61 129.98 265.94 130.43 266.37 130.71 266.7 130.94 266.95 131.27 267.15 131.28 267.16 Z"/>
</g></svg>