<svg xmlns="http://www.w3.org/2000/svg" version="1.2" baseProfile="tiny" stroke-linecap="round" stroke-linejoin="round" viewBox="437.25 120.87 45.67 41.95"><g xmlns="http://www.w3.org/2000/svg" id="Goizueta">
<path d="M 472.93 120.96 472.94 120.95 472.96 120.95 473.02 120.94 473.12 120.94 473.15 120.94 473.27 121 473.34 121.03 473.42 121.04 473.56 121.04 473.68 121.05 473.69 121.04 473.71 121.04 473.75 121.03 473.83 121 473.96 120.93 474.03 120.91 474.08 120.89 474.19 120.92 474.28 120.95 474.48 120.99 474.53 121 474.55 121.01 474.59 121.03 474.7 121.1 474.76 121.13 474.79 121.15 474.82 121.19 474.86 121.26 474.94 121.38 475.02 121.55 475.06 121.64 475.11 121.75 475.19 121.92 475.32 122.17 475.35 122.3 475.39 122.49 475.42 122.59 475.43 122.63 475.46 122.66 475.53 122.74 475.67 122.92 475.78 123.08 475.82 123.14 475.84 123.16 475.88 123.18 475.95 123.22 476 123.25 476.11 123.32 476.34 123.47 476.37 123.49 476.38 123.5 476.38 123.5 476.49 123.6 476.65 123.75 476.83 123.92 476.97 124.04 477.1 124.08 477.37 124.15 477.5 124.19 477.69 124.34 477.9 124.39 478.08 124.43 478.1 124.43 478.15 124.42 478.19 124.4 478.23 124.37 478.24 124.36 478.33 124.34 478.38 124.33 478.41 124.32 478.46 124.31 478.67 124.22 478.77 124.18 478.81 124.17 478.81 124.17 478.83 124.18 478.83 124.19 478.94 124.31 479 124.39 479.05 124.46 479.16 124.59 479.26 124.69 479.33 124.76 479.41 124.83 479.5 124.91 479.58 124.99 479.7 125.09 479.71 125.1 479.74 125.12 479.78 125.18 479.8 125.2 479.84 125.25 479.87 125.28 479.89 125.3 479.9 125.32 479.92 125.36 479.95 125.41 479.98 125.47 480 125.51 480.03 125.56 480.04 125.6 480.07 125.65 480.07 125.66 480.08 125.67 480.1 125.72 480.13 125.78 480.16 125.85 480.2 125.92 480.23 125.95 480.25 125.98 480.29 126.03 480.34 126.08 480.36 126.1 480.38 126.13 480.43 126.19 480.46 126.22 480.48 126.25 480.49 126.28 480.5 126.31 480.52 126.37 480.53 126.43 480.55 126.48 480.57 126.55 480.59 126.6 480.6 126.65 480.61 126.68 480.62 126.71 480.64 126.73 480.65 126.74 480.67 126.75 480.69 126.77 480.73 126.78 480.76 126.79 480.79 126.8 480.82 126.81 480.88 126.84 480.93 126.86 480.99 126.89 481.04 126.91 481.09 126.93 481.14 126.96 481.14 126.96 481.18 126.98 481.22 127.01 481.26 127.03 481.32 127.07 481.38 127.12 481.46 127.17 481.53 127.22 481.61 127.28 481.68 127.33 481.75 127.38 481.8 127.41 481.85 127.45 481.91 127.51 481.96 127.56 482.02 127.61 482.05 127.66 482.09 127.73 482.13 127.77 482.14 127.79 482.15 127.8 482.14 127.82 482.14 127.83 482.11 127.89 482.08 127.96 482.06 128.02 482.03 128.09 481.99 128.18 481.96 128.26 481.93 128.32 481.9 128.39 481.87 128.46 481.84 128.53 481.82 128.6 481.8 128.67 481.76 128.81 481.74 128.88 481.72 128.97 481.71 129.03 481.7 129.1 481.69 129.17 481.68 129.26 481.67 129.32 481.66 129.39 481.66 129.47 481.64 129.54 481.64 129.6 481.63 129.66 481.63 129.69 481.62 129.74 481.63 129.77 481.63 129.81 481.63 129.85 481.63 129.92 481.64 129.98 481.64 129.99 481.64 130.05 481.65 130.12 481.66 130.16 481.66 130.21 481.66 130.25 481.67 130.29 481.68 130.35 481.71 130.41 481.72 130.45 481.73 130.49 481.74 130.52 481.76 130.54 481.77 130.56 481.8 130.59 481.83 130.63 481.86 130.65 481.9 130.71 481.93 130.77 481.96 130.81 481.98 130.85 482.01 130.89 482.05 130.95 482.09 131 482.12 131.06 482.14 131.1 482.16 131.12 482.18 131.14 482.2 131.15 482.21 131.16 482.27 131.2 482.34 131.25 482.41 131.29 482.49 131.35 482.5 131.36 482.56 131.4 482.64 131.45 482.68 131.49 482.72 131.51 482.77 131.53 482.81 131.57 482.85 131.59 482.87 131.61 482.91 131.62 482.87 131.7 482.84 131.75 482.82 131.8 482.79 131.84 482.77 131.88 482.74 131.93 482.72 131.97 482.69 132.02 482.67 132.06 482.65 132.09 482.63 132.14 482.62 132.17 482.6 132.2 482.59 132.24 482.58 132.26 482.57 132.29 482.55 132.33 482.55 132.37 482.54 132.39 482.55 132.4 482.55 132.42 482.55 132.43 482.55 132.44 482.55 132.48 482.55 132.54 482.55 132.62 482.56 132.7 482.56 132.76 482.56 132.81 482.56 132.83 482.56 132.86 482.56 132.87 482.55 132.89 482.53 132.95 482.51 132.99 482.49 133.05 482.47 133.12 482.46 133.13 482.44 133.18 482.39 133.27 482.35 133.32 482.32 133.37 482.3 133.42 482.27 133.46 482.26 133.51 482.23 133.55 482.21 133.58 482.19 133.62 482.17 133.65 482.16 133.68 482.15 133.69 482.14 133.71 482.14 133.72 482.14 133.74 482.14 133.77 482.14 133.81 482.13 133.88 482.13 133.96 482.12 134.02 482.11 134.08 482.11 134.14 482.1 134.18 482.1 134.22 482.09 134.23 482.08 134.25 482.06 134.28 482.02 134.32 481.99 134.36 481.96 134.39 481.95 134.4 481.94 134.41 481.94 134.42 481.94 134.43 481.93 134.48 481.93 134.57 481.92 134.64 481.92 134.74 481.91 134.83 481.91 134.87 481.91 134.88 481.92 134.91 481.96 135 482 135.09 482.04 135.18 482.08 135.29 482.14 135.4 482.17 135.49 482.18 135.52 482.19 135.53 482.19 135.55 482.17 135.63 482.15 135.7 482.12 135.79 482.12 135.82 482.11 135.84 482.11 135.86 482.11 135.87 482.12 135.89 482.13 135.96 482.14 136.02 482.15 136.09 482.17 136.14 482.18 136.2 482.18 136.22 482.18 136.25 482.18 136.26 482.17 136.29 482.16 136.31 482.14 136.35 482.12 136.41 482.09 136.46 482.06 136.52 482.05 136.55 482.03 136.57 482 136.6 481.97 136.63 481.94 136.67 481.9 136.69 481.87 136.72 481.81 136.75 481.77 136.78 481.72 136.81 481.68 136.84 481.65 136.87 481.6 136.89 481.59 136.9 481.58 136.91 481.57 136.92 481.57 136.94 481.55 136.98 481.53 137.04 481.52 137.12 481.5 137.19 481.48 137.32 481.47 137.34 481.47 137.36 481.46 137.38 481.47 137.42 481.48 137.5 481.5 137.58 481.52 137.68 481.54 137.79 481.56 137.89 481.57 137.98 481.58 138 481.58 138.01 481.6 138.08 481.62 138.21 481.62 138.25 481.63 138.27 481.63 138.29 481.62 138.32 481.6 138.43 481.57 138.57 481.54 138.72 481.5 138.91 481.46 139.08 481.43 139.19 481.41 139.23 481.4 139.26 481.39 139.29 481.38 139.31 481.36 139.35 481.35 139.37 481.34 139.38 481.34 139.39 481.3 139.45 481.3 139.48 481.33 139.84 481.39 140.15 481.48 140.4 481.5 140.45 481.51 140.48 481.53 140.54 481.57 140.66 481.59 140.73 481.61 140.82 481.63 140.88 481.64 140.95 481.66 141.02 481.67 141.09 481.68 141.13 481.77 141.19 481.87 141.27 481.94 141.32 481.98 141.35 482.02 141.39 482.07 141.45 482.12 141.49 482.16 141.54 482.19 141.58 482.23 141.64 482.26 141.71 482.28 141.76 482.29 141.82 482.29 141.87 482.28 141.93 482.28 141.98 482.28 142.02 482.27 142.09 482.27 142.17 482.27 142.25 482.27 142.34 482.26 142.42 482.26 142.52 482.24 142.62 482.22 142.66 482.22 142.7 482.22 142.78 482.22 142.84 482.21 142.91 482.21 142.99 482.21 143.04 482.22 143.09 482.22 143.14 482.23 143.23 482.23 143.3 482.23 143.35 482.09 143.51 482.08 143.53 482.07 143.54 482.03 143.59 481.84 143.79 481.83 143.8 481.82 143.82 481.71 143.93 481.64 144 481.52 144.11 481.23 144.23 481.08 144.44 481.07 144.45 480.54 145.17 480.41 145.35 480.4 145.36 480.09 145.78 479.55 146.41 479.59 146.47 479.66 146.56 479.73 146.62 479.83 146.71 479.89 146.73 479.97 146.83 480.01 146.89 480.12 147 480.21 147.06 480.33 147.14 480.46 147.22 480.58 147.28 480.76 147.37 480.83 147.41 480.87 147.44 480.9 147.47 480.93 147.52 480.97 147.6 481.01 147.69 481.04 147.74 481.08 147.76 481.11 147.77 481.12 147.8 481.15 147.86 481.16 147.9 481.18 148.04 481.2 148.08 481.23 148.15 481.25 148.24 481.27 148.35 481.28 148.44 481.28 148.54 481.29 148.57 481.32 148.62 481.33 148.67 481.35 148.72 481.37 148.75 481.39 148.79 481.4 148.84 481.43 148.89 481.45 148.94 481.49 149.03 481.49 149.08 481.5 149.14 481.54 149.24 481.55 149.28 481.55 149.42 481.56 149.52 481.57 149.6 481.58 149.6 481.58 149.61 481.58 149.62 481.59 149.69 481.6 149.77 481.62 149.87 481.64 150.04 481.66 150.2 481.67 150.31 481.69 150.42 481.71 150.52 481.74 150.59 481.76 150.62 481.72 150.65 481.68 150.69 481.64 150.75 481.61 150.8 481.6 150.89 481.61 151.02 481.63 151.06 481.66 151.15 481.67 151.18 481.66 151.2 481.64 151.24 481.64 151.29 481.66 151.42 481.69 151.61 481.71 151.68 481.73 151.71 481.74 151.76 481.75 151.82 481.76 151.96 481.75 152.04 481.75 152.09 481.75 152.1 481.76 152.14 481.76 152.15 481.78 152.18 481.78 152.19 481.82 152.28 481.81 152.33 481.79 152.42 481.78 152.54 481.77 152.66 481.76 152.77 481.76 152.92 481.76 152.94 481.76 153.04 481.77 153.15 481.78 153.18 481.78 153.23 481.8 153.33 481.81 153.38 481.8 153.46 481.78 153.52 481.78 153.53 481.77 153.65 481.75 153.77 481.73 153.81 481.72 153.85 481.69 153.88 481.63 153.93 481.58 153.98 481.54 154.01 481.5 154.03 481.44 154.04 481.4 154.06 481.35 154.08 481.3 154.11 481.25 154.13 481.21 154.14 481.16 154.15 481.09 154.17 481.02 154.2 480.95 154.24 480.89 154.28 480.83 154.32 480.77 154.34 480.72 154.35 480.64 154.35 480.61 154.36 480.57 154.38 480.53 154.39 480.49 154.39 480.45 154.4 480.41 154.42 480.36 154.45 480.31 154.48 480.27 154.51 480.22 154.52 480.18 154.54 480.13 154.56 480 154.64 479.95 154.67 479.91 154.72 479.86 154.77 479.84 154.79 479.72 154.83 479.67 154.84 479.58 154.89 479.54 154.91 479.5 154.94 479.42 155.04 479.37 155.08 479.32 155.12 479.24 155.16 479.14 155.19 479.08 155.21 479.05 155.22 478.98 155.27 478.96 155.3 478.93 155.35 478.92 155.41 478.84 155.46 478.73 155.51 478.64 155.56 478.57 155.64 478.52 155.71 478.48 155.74 478.35 155.82 478.32 155.91 478.3 155.93 478.25 155.96 478.16 155.97 478.09 156.02 478.03 156.06 477.91 156.11 477.87 156.11 477.84 156.11 477.81 156.06 477.69 156.02 477.6 155.97 477.57 155.96 477.53 155.96 477.52 155.97 477.48 155.97 477.42 155.97 477.35 155.98 477.29 155.99 477.23 156.01 477.17 156.02 477.12 156.04 477.06 156.06 477.01 156.08 476.96 156.1 476.92 156.11 476.87 156.11 476.82 156.1 476.77 156.09 476.71 156.1 476.65 156.1 476.59 156.1 476.55 156.08 476.5 156.06 476.45 156.02 476.4 155.98 476.36 155.96 476.33 155.95 476.29 155.95 476.24 155.95 476.17 155.94 476.11 155.93 475.93 156.02 475.45 155.87 475.41 155.86 475.28 155.82 475.18 155.79 475.12 155.77 475.06 155.75 474.99 155.75 474.93 155.74 474.87 155.75 474.8 155.74 474.72 155.73 474.68 155.72 474.62 155.71 474.52 155.68 474.44 155.65 474.38 155.62 474.31 155.59 474.23 155.54 474.18 155.52 474.14 155.49 474.08 155.48 474.04 155.48 473.99 155.49 473.92 155.5 473.91 155.5 473.83 155.53 473.75 155.55 473.67 155.57 473.55 155.56 473.48 155.57 473.42 155.57 473.37 155.56 473.33 155.54 473.3 155.48 473.29 155.48 473.27 155.45 473.25 155.42 473.22 155.4 473.19 155.4 473.14 155.4 473.08 155.42 473.03 155.44 472.96 155.47 472.87 155.5 472.76 155.54 472.69 155.58 472.63 155.6 472.59 155.63 472.54 155.66 472.49 155.71 472.47 155.73 472.45 155.76 472.42 155.79 472.39 155.83 472.35 155.85 472.31 155.86 472.28 155.87 472.24 155.87 472.19 155.86 472.12 155.86 472.03 155.87 471.99 155.89 471.96 155.91 471.92 155.94 471.87 155.98 471.84 156 471.77 156.02 471.74 156.06 471.69 156.1 471.63 156.15 471.58 156.18 471.54 156.2 471.43 156.24 471.39 156.26 471.34 156.3 471.31 156.34 471.3 156.35 471.29 156.37 471.26 156.42 471.23 156.46 471.21 156.5 471.18 156.55 471.15 156.61 471.12 156.66 471.1 156.7 471.04 156.75 471 156.79 470.95 156.84 470.89 156.88 470.84 156.92 470.76 156.97 470.66 157.04 470.62 157.08 470.56 157.12 470.52 157.16 470.47 157.22 470.42 157.27 470.38 157.32 470.34 157.37 470.32 157.43 470.29 157.48 470.27 157.53 470.23 157.58 470.2 157.63 470.17 157.68 470.12 157.74 470.08 157.78 470.04 157.81 469.99 157.84 469.96 157.86 469.94 157.89 469.94 157.91 469.95 157.95 469.96 157.99 469.99 158.06 469.94 158.07 469.9 158.07 469.86 158.09 469.82 158.11 469.79 158.14 469.74 158.18 469.68 158.21 469.64 158.23 469.61 158.25 469.54 158.3 469.5 158.33 469.49 158.33 469.46 158.34 469.41 158.36 469.36 158.39 469.28 158.42 469.24 158.43 469.18 158.43 469.13 158.4 469.08 158.37 469.03 158.36 468.98 158.36 468.95 158.38 468.91 158.41 468.85 158.47 468.81 158.51 468.78 158.53 468.75 158.54 468.72 158.54 468.64 158.54 468.61 158.55 468.57 158.57 468.53 158.6 468.49 158.6 468.45 158.6 468.42 158.59 468.37 158.56 468.33 158.53 468.3 158.51 468.26 158.49 468.22 158.47 468.18 158.46 468.14 158.47 468.1 158.47 468.06 158.46 468.01 158.45 467.96 158.42 467.93 158.41 467.89 158.4 467.86 158.41 467.83 158.4 467.8 158.39 467.76 158.36 467.72 158.34 467.68 158.33 467.64 158.34 467.62 158.35 467.59 158.37 467.57 158.4 467.55 158.43 467.53 158.46 467.5 158.56 467.48 158.6 467.45 158.63 467.43 158.64 467.39 158.66 467.34 158.68 467.29 158.69 467.24 158.72 467.22 158.73 467.2 158.75 467.17 158.78 467.14 158.82 467.13 158.83 467.12 158.84 467.1 158.86 467.07 158.89 467.04 158.94 467.01 158.98 466.98 159 466.96 159.02 466.95 159.03 466.91 159.05 466.9 159.05 466.87 159.05 466.84 159.05 466.82 159.05 466.8 159.05 466.77 159.06 466.74 159.06 466.72 159.07 466.68 159.09 466.65 159.11 466.63 159.13 466.61 159.14 466.59 159.15 466.57 159.16 466.54 159.17 466.53 159.17 466.51 159.18 466.48 159.19 466.46 159.21 466.44 159.22 466.42 159.23 466.4 159.24 466.37 159.25 466.36 159.26 466.34 159.26 466.32 159.26 466.31 159.25 466.3 159.25 466.29 159.25 466.27 159.25 466.26 159.26 466.21 159.26 466.18 159.27 466.15 159.27 466.13 159.29 466.11 159.29 466.1 159.3 466.08 159.3 466.07 159.3 466.05 159.3 466.03 159.3 466.02 159.31 466 159.31 465.99 159.31 465.98 159.31 465.97 159.3 465.96 159.3 465.95 159.3 465.93 159.3 465.91 159.31 465.9 159.32 465.88 159.34 465.87 159.34 465.86 159.35 465.81 159.35 465.77 159.35 465.75 159.35 465.74 159.35 465.73 159.34 465.71 159.34 465.69 159.33 465.67 159.33 465.66 159.34 465.64 159.34 465.63 159.35 465.61 159.37 465.6 159.38 465.57 159.39 465.55 159.39 465.5 159.39 465.47 159.39 465.45 159.39 465.43 159.4 465.41 159.4 465.39 159.4 465.35 159.41 465.32 159.41 465.29 159.42 465.23 159.44 465.19 159.45 465.18 159.45 465.16 159.47 465.14 159.49 465.11 159.52 465.05 159.54 465.03 159.55 465 159.57 464.98 159.59 464.94 159.61 464.91 159.63 464.88 159.64 464.85 159.66 464.81 159.69 464.73 159.74 464.67 159.78 464.64 159.8 464.61 159.81 464.58 159.83 464.56 159.84 464.52 159.84 464.49 159.85 464.47 159.85 464.44 159.85 464.42 159.85 464.36 159.85 464.31 159.84 464.24 159.81 464.19 159.79 464.15 159.76 464.11 159.73 464.09 159.7 464.05 159.67 464.02 159.63 463.98 159.59 463.96 159.57 463.94 159.56 463.92 159.54 463.9 159.53 463.87 159.52 463.84 159.51 463.81 159.49 463.8 159.49 463.78 159.5 463.75 159.53 463.74 159.55 463.73 159.58 463.73 159.62 463.74 159.65 463.75 159.67 463.75 159.68 463.76 159.7 463.79 159.74 463.79 159.77 463.8 159.78 463.8 159.8 463.8 159.82 463.8 159.84 463.79 159.86 463.77 159.9 463.74 159.94 463.71 159.99 463.66 160.04 463.62 160.08 463.59 160.12 463.56 160.17 463.53 160.23 463.53 160.23 463.53 160.24 463.54 160.28 463.55 160.31 463.56 160.34 463.58 160.37 463.6 160.39 463.61 160.41 463.62 160.44 463.65 160.48 463.68 160.52 463.72 160.55 463.76 160.59 463.81 160.64 463.86 160.68 463.9 160.72 463.92 160.74 463.92 160.76 463.93 160.77 463.93 160.78 463.92 160.8 463.92 160.81 463.9 160.83 463.89 160.85 463.88 160.86 463.86 160.87 463.83 160.89 463.79 160.9 463.74 160.9 463.72 160.9 463.68 160.9 463.62 160.89 463.57 160.86 463.52 160.85 463.48 160.82 463.42 160.78 463.34 160.74 463.29 160.7 463.26 160.69 463.25 160.68 463.22 160.68 463.2 160.68 463.19 160.7 463.18 160.72 463.18 160.75 463.18 160.78 463.19 160.83 463.21 160.87 463.23 160.9 463.25 160.94 463.29 160.99 463.31 161.02 463.32 161.03 463.33 161.06 463.34 161.09 463.36 161.13 463.38 161.17 463.41 161.2 463.44 161.24 463.46 161.28 463.47 161.3 463.47 161.32 463.48 161.34 463.48 161.36 463.47 161.38 463.47 161.39 463.46 161.41 463.45 161.42 463.43 161.43 463.4 161.44 463.36 161.46 463.3 161.48 463.24 161.5 463.2 161.52 463.16 161.54 463.1 161.56 463.06 161.58 463.01 161.59 462.96 161.61 462.9 161.61 462.85 161.63 462.83 161.63 462.81 161.63 462.79 161.63 462.78 161.62 462.75 161.57 462.74 161.5 462.73 161.45 462.73 161.44 462.72 161.43 462.7 161.42 462.68 161.41 462.66 161.42 462.63 161.43 462.61 161.44 462.59 161.43 462.56 161.42 462.53 161.4 462.51 161.38 462.48 161.34 462.46 161.29 462.45 161.28 462.44 161.27 462.42 161.26 462.4 161.26 462.39 161.27 462.36 161.28 462.32 161.33 462.28 161.37 462.25 161.39 462.23 161.4 462.21 161.41 462.19 161.41 462.16 161.41 462.13 161.41 462.09 161.41 462.06 161.39 462 161.35 461.98 161.33 461.96 161.32 461.94 161.31 461.92 161.28 461.9 161.26 461.88 161.22 461.87 161.19 461.84 161.15 461.83 161.13 461.81 161.1 461.78 161.08 461.76 161.06 461.75 161.03 461.75 161.02 461.75 161 461.76 160.99 461.76 160.99 461.79 160.97 461.85 160.96 461.91 160.95 461.95 160.94 461.97 160.94 461.99 160.92 462 160.91 462.01 160.89 462 160.86 461.99 160.85 461.98 160.82 461.96 160.8 461.93 160.79 461.91 160.78 461.87 160.78 461.84 160.79 461.82 160.8 461.78 160.82 461.75 160.84 461.72 160.88 461.69 160.91 461.66 160.95 461.63 160.99 461.61 161.03 461.58 161.08 461.57 161.11 461.56 161.15 461.54 161.2 461.54 161.23 461.52 161.28 461.52 161.32 461.52 161.34 461.51 161.36 461.5 161.38 461.48 161.4 461.46 161.41 461.44 161.43 461.43 161.44 461.43 161.44 461.4 161.48 461.39 161.51 461.38 161.57 461.37 161.62 461.37 161.65 461.37 161.67 461.34 161.68 461.31 161.69 461.29 161.7 461.27 161.71 461.26 161.74 461.25 161.77 461.24 161.83 461.24 161.91 461.24 161.95 461.24 161.97 461.22 162 461.21 162.01 461.19 162.02 461.16 162.02 461.14 162.02 461.09 162.01 461.06 162 461.04 161.98 460.99 161.94 460.95 161.91 460.91 161.89 460.88 161.86 460.86 161.86 460.84 161.86 460.83 161.86 460.81 161.87 460.8 161.87 460.78 161.88 460.76 161.9 460.73 161.93 460.69 161.96 460.66 162.01 460.61 162.05 460.57 162.08 460.53 162.11 460.48 162.14 460.44 162.16 460.42 162.16 460.4 162.15 460.38 162.14 460.36 162.11 460.33 162.05 460.3 162 460.27 161.96 460.25 161.92 460.2 161.88 460.16 161.85 460.12 161.82 460.1 161.8 459.93 161.74 459.86 161.71 459.79 161.69 459.75 161.67 459.72 161.66 459.69 161.64 459.67 161.62 459.63 161.6 459.59 161.58 459.57 161.57 459.51 161.55 459.48 161.54 459.46 161.54 459.44 161.54 459.42 161.55 459.41 161.56 459.38 161.58 459.34 161.61 459.3 161.64 459.25 161.66 459.21 161.69 459.16 161.72 459.11 161.75 459.07 161.76 459.04 161.77 459.01 161.78 458.96 161.78 458.92 161.77 458.89 161.76 458.87 161.75 458.85 161.74 458.83 161.72 458.82 161.71 458.8 161.69 458.77 161.65 458.74 161.62 458.71 161.61 458.69 161.6 458.66 161.6 458.64 161.61 458.61 161.61 458.59 161.62 458.57 161.63 458.56 161.65 458.55 161.67 458.55 161.69 458.55 161.71 458.55 161.73 458.56 161.76 458.58 161.79 458.6 161.83 458.62 161.88 458.64 161.93 458.66 161.97 458.67 162 458.68 162.03 458.7 162.07 458.7 162.09 458.7 162.13 458.69 162.16 458.69 162.19 458.69 162.21 458.68 162.24 458.67 162.26 458.65 162.28 458.64 162.3 458.63 162.32 458.61 162.32 458.58 162.33 458.55 162.33 458.51 162.33 458.47 162.32 458.42 162.3 458.36 162.28 458.26 162.24 458.21 162.22 458.18 162.2 458.17 162.17 458.15 162.14 458.15 162.11 458.15 162.09 458.15 162.07 458.17 162.03 458.18 162.01 458.2 161.98 458.21 161.94 458.21 161.91 458.2 161.86 458.17 161.82 458.15 161.76 458.13 161.72 458.11 161.7 458.08 161.67 458.05 161.65 458 161.6 457.95 161.57 457.92 161.53 457.88 161.5 457.84 161.46 457.79 161.42 457.74 161.37 457.71 161.34 457.67 161.3 457.63 161.26 457.58 161.23 457.53 161.18 457.5 161.14 457.48 161.11 457.47 161.09 457.45 161.06 457.44 161.03 457.43 161 457.43 160.98 457.42 160.95 457.42 160.91 457.42 160.86 457.43 160.81 457.43 160.74 457.44 160.69 457.44 160.65 457.45 160.62 457.45 160.59 457.45 160.57 457.45 160.55 457.45 160.53 457.43 160.5 457.41 160.47 457.37 160.44 457.34 160.42 457.3 160.4 457.27 160.38 457.24 160.37 457.22 160.36 457.18 160.35 457.16 160.35 457.13 160.34 457.02 160.34 456.97 160.34 456.94 160.35 456.9 160.35 456.86 160.34 456.83 160.34 456.78 160.33 456.73 160.32 456.69 160.32 456.64 160.32 456.61 160.31 456.57 160.31 456.54 160.3 456.5 160.29 456.44 160.26 456.4 160.23 456.37 160.21 456.36 160.2 456.35 160.18 456.34 160.17 456.33 160.15 456.33 160.13 456.32 160.11 456.32 160.1 456.32 160.09 456.33 160.07 456.33 160.06 456.33 160.04 456.34 160.02 456.35 160 456.36 159.99 456.38 159.98 456.39 159.96 456.4 159.95 456.41 159.94 456.42 159.93 456.44 159.91 456.46 159.9 456.47 159.87 456.49 159.84 456.52 159.83 456.54 159.81 456.57 159.78 456.63 159.77 456.71 159.74 456.79 159.71 456.86 159.68 456.91 159.65 456.94 159.63 456.95 159.61 456.97 159.6 456.98 159.58 456.98 159.56 456.99 159.54 456.99 159.49 457 159.43 457 159.38 457.01 159.35 457.02 159.31 457.03 159.25 457.04 159.18 457.04 159.13 457.04 159.06 457.03 159 457.02 158.96 457.01 158.94 457 158.93 456.99 158.91 456.96 158.88 456.9 158.81 456.85 158.75 456.83 158.74 456.82 158.71 456.81 158.69 456.81 158.66 456.82 158.66 456.83 158.64 456.84 158.63 456.85 158.62 456.88 158.61 456.91 158.6 456.99 158.58 457.08 158.56 457.14 158.54 457.2 158.51 457.25 158.49 457.28 158.48 457.29 158.46 457.34 158.42 457.36 158.4 457.4 158.35 457.41 158.32 457.42 158.29 457.43 158.26 457.42 158.23 457.41 158.2 457.4 158.17 457.39 158.14 457.37 158.11 457.31 158.05 457.27 158 457.24 157.98 457.23 157.95 457.23 157.93 457.23 157.92 457.23 157.9 457.24 157.88 457.25 157.87 457.26 157.85 457.29 157.84 457.33 157.82 457.38 157.8 457.41 157.79 457.49 157.77 457.55 157.75 457.61 157.74 457.7 157.72 457.74 157.71 457.77 157.69 457.81 157.67 457.85 157.66 457.87 157.64 457.92 157.61 457.94 157.6 457.95 157.58 457.97 157.56 458 157.53 458.02 157.5 458.05 157.47 458.08 157.45 458.09 157.44 458.12 157.43 458.15 157.41 458.21 157.39 458.24 157.38 458.26 157.36 458.28 157.35 458.3 157.33 458.32 157.31 458.33 157.28 458.34 157.25 458.34 157.23 458.33 157.19 458.31 157.17 458.3 157.14 458.29 157.13 458.26 157.12 458.21 157.1 458.16 157.08 458.11 157.07 458.05 157.05 458.01 157.04 457.96 157.03 457.88 157.02 457.79 157 457.71 156.98 457.65 156.96 457.6 156.95 457.54 156.93 457.51 156.92 457.43 156.9 457.4 156.89 457.36 156.89 457.33 156.88 457.28 156.87 457.23 156.87 457.19 156.87 457.13 156.87 457.05 156.87 457 156.86 456.96 156.85 456.94 156.84 456.92 156.82 456.89 156.78 456.89 156.77 456.89 156.74 456.9 156.72 456.9 156.71 456.91 156.69 456.93 156.67 456.94 156.66 456.95 156.66 456.99 156.65 457.06 156.63 457.17 156.6 457.27 156.57 457.34 156.55 457.38 156.54 457.39 156.52 457.41 156.5 457.42 156.48 457.42 156.46 457.43 156.45 457.43 156.43 457.44 156.37 457.45 156.27 457.46 156.17 457.46 156.11 457.47 156.07 457.48 156.02 457.48 155.99 457.49 155.97 457.51 155.93 457.52 155.92 457.53 155.9 457.54 155.89 457.55 155.87 457.56 155.86 457.58 155.84 457.59 155.83 457.6 155.82 457.61 155.8 457.65 155.76 457.68 155.73 457.71 155.7 457.72 155.68 457.73 155.66 457.74 155.65 457.74 155.63 457.74 155.61 457.73 155.6 457.72 155.57 457.7 155.53 457.69 155.5 457.65 155.43 457.62 155.38 457.59 155.33 457.56 155.29 457.52 155.25 457.5 155.21 457.48 155.18 457.47 155.16 457.46 155.14 457.46 155.12 457.46 155.1 457.46 155.07 457.45 155.03 457.45 154.99 457.46 154.93 457.46 154.91 457.45 154.89 457.45 154.88 457.44 154.86 457.43 154.84 457.41 154.83 457.39 154.8 457.36 154.79 457.35 154.77 457.32 154.74 457.29 154.71 457.26 154.66 457.25 154.64 457.24 154.63 457.23 154.61 457.22 154.59 457.21 154.55 457.19 154.5 457.18 154.45 457.17 154.41 457.15 154.37 457.14 154.33 457.12 154.29 457.11 154.25 457.09 154.21 457.08 154.17 457.07 154.14 457.05 154.11 457.04 154.07 457.03 154.04 456.99 153.98 456.93 153.89 456.84 153.76 456.78 153.69 456.74 153.65 456.65 153.59 456.57 153.53 456.51 153.49 456.45 153.45 456.41 153.42 456.36 153.39 456.26 153.32 456.11 153.21 456.02 153.14 455.93 153.06 455.84 152.97 455.77 152.89 455.68 152.79 455.63 152.74 455.59 152.72 455.56 152.72 455.53 152.73 455.47 152.77 455.4 152.84 455.36 152.87 455.31 152.9 455.26 152.91 455.21 152.92 455.15 152.91 455.08 152.87 455.02 152.81 454.98 152.78 454.97 152.75 454.95 152.75 454.92 152.75 454.9 152.75 454.88 152.76 454.87 152.76 454.85 152.76 454.83 152.77 454.81 152.78 454.79 152.79 454.76 152.81 454.73 152.81 454.7 152.83 454.68 152.83 454.65 152.85 454.64 152.86 454.63 152.87 454.62 152.88 454.61 152.9 454.6 152.91 454.58 152.93 454.57 152.94 454.55 152.95 454.54 152.96 454.51 152.97 454.5 152.98 454.49 152.98 454.44 153 454.39 153.02 454.36 153.04 454.35 153.06 454.34 153.06 454.33 153.08 454.32 153.09 454.31 153.11 454.3 153.13 454.28 153.16 454.26 153.19 454.25 153.21 454.25 153.23 454.25 153.24 454.25 153.26 454.26 153.27 454.26 153.28 454.29 153.3 454.31 153.35 454.33 153.38 454.34 153.41 454.34 153.42 454.33 153.43 454.32 153.44 454.31 153.45 454.3 153.46 454.28 153.47 454.25 153.48 454.23 153.48 454.2 153.49 454.19 153.49 454.16 153.5 454.14 153.51 454.12 153.52 454.09 153.54 454.08 153.56 454.06 153.57 454.05 153.59 454.04 153.61 454.04 153.62 454.04 153.63 454.04 153.64 454.05 153.66 454.07 153.67 454.1 153.69 454.13 153.72 454.15 153.74 454.16 153.76 454.17 153.77 454.17 153.78 454.17 153.79 454.15 153.81 454.14 153.82 454.12 153.83 454.09 153.84 454.08 153.84 454.07 153.85 454.05 153.85 454.03 153.86 454.01 153.86 453.99 153.88 453.98 153.89 453.95 153.93 453.94 153.95 453.93 153.99 453.92 154.03 453.91 154.06 453.9 154.1 453.9 154.13 453.91 154.15 453.91 154.16 453.94 154.19 453.96 154.21 453.97 154.22 453.98 154.24 453.99 154.26 453.99 154.28 453.99 154.29 453.99 154.31 453.99 154.33 453.99 154.34 453.96 154.37 453.93 154.39 453.9 154.42 453.86 154.44 453.84 154.46 453.82 154.47 453.8 154.49 453.79 154.51 453.79 154.52 453.78 154.53 453.78 154.55 453.78 154.56 453.79 154.57 453.8 154.57 453.81 154.57 453.83 154.57 453.87 154.56 453.88 154.56 453.89 154.57 453.91 154.61 453.94 154.68 453.96 154.73 453.97 154.77 453.98 154.79 454 154.85 454 154.9 454.01 154.92 454.01 154.94 454 154.95 454 154.97 453.99 154.98 453.98 154.99 453.98 155.02 453.97 155.04 453.95 155.06 453.92 155.13 453.9 155.17 453.88 155.23 453.88 155.26 453.87 155.29 453.87 155.32 453.87 155.37 453.87 155.39 453.86 155.4 453.86 155.43 453.85 155.44 453.84 155.47 453.82 155.51 453.8 155.57 453.77 155.62 453.76 155.67 453.75 155.7 453.75 155.73 453.75 155.74 453.75 155.76 453.75 155.77 453.74 155.79 453.73 155.81 453.72 155.83 453.71 155.85 453.71 155.85 453.69 155.87 453.66 155.89 453.63 155.92 453.6 155.94 453.57 155.96 453.55 155.97 453.53 155.98 453.51 155.98 453.49 155.99 453.48 156 453.47 156.01 453.46 156.03 453.46 156.05 453.45 156.06 453.45 156.08 453.46 156.1 453.46 156.12 453.48 156.14 453.51 156.17 453.59 156.23 453.64 156.26 453.68 156.28 453.7 156.3 453.71 156.31 453.71 156.32 453.71 156.33 453.71 156.34 453.71 156.35 453.7 156.36 453.68 156.36 453.66 156.36 453.64 156.35 453.62 156.34 453.61 156.33 453.59 156.33 453.58 156.33 453.57 156.33 453.55 156.33 453.54 156.34 453.52 156.35 453.5 156.35 453.48 156.34 453.46 156.34 453.44 156.33 453.42 156.32 453.38 156.31 453.35 156.3 453.33 156.3 453.31 156.31 453.29 156.31 453.27 156.32 453.25 156.34 453.22 156.35 453.18 156.36 453.14 156.39 453.09 156.4 453.06 156.41 452.99 156.42 452.96 156.43 452.92 156.43 452.9 156.44 452.87 156.43 452.85 156.43 452.82 156.42 452.8 156.42 452.79 156.41 452.77 156.4 452.75 156.39 452.73 156.38 452.71 156.36 452.69 156.35 452.66 156.33 452.64 156.32 452.63 156.32 452.62 156.32 452.61 156.32 452.59 156.33 452.58 156.34 452.57 156.35 452.56 156.36 452.55 156.38 452.54 156.4 452.53 156.42 452.53 156.45 452.53 156.5 452.53 156.57 452.54 156.62 452.54 156.66 452.53 156.68 452.53 156.69 452.53 156.7 452.52 156.7 452.5 156.7 452.49 156.71 452.47 156.71 452.45 156.72 452.43 156.73 452.42 156.75 452.41 156.76 452.4 156.8 452.39 156.82 452.38 156.85 452.37 156.87 452.35 156.89 452.33 156.91 452.31 156.91 452.3 156.92 452.29 156.92 452.27 156.92 452.26 156.92 452.25 156.91 452.24 156.9 452.22 156.89 452.2 156.87 452.18 156.86 452.16 156.85 452.14 156.85 452.12 156.85 452.11 156.86 452.1 156.86 452.09 156.87 452.07 156.88 452.06 156.9 452.06 156.91 452.04 156.93 452.03 156.95 452.02 156.98 452.01 157.01 452 157.03 451.99 157.06 451.98 157.09 451.98 157.12 451.97 157.16 451.97 157.17 451.97 157.18 451.96 157.22 451.94 157.27 451.94 157.28 451.92 157.3 451.91 157.31 451.9 157.31 451.88 157.32 451.87 157.32 451.85 157.31 451.84 157.31 451.83 157.3 451.83 157.3 451.82 157.29 451.8 157.28 451.79 157.26 451.77 157.25 451.75 157.24 451.73 157.23 451.7 157.22 451.68 157.22 451.66 157.22 451.63 157.22 451.61 157.22 451.59 157.23 451.56 157.24 451.55 157.24 451.53 157.25 451.51 157.27 451.49 157.27 451.48 157.27 451.47 157.26 451.46 157.25 451.44 157.23 451.43 157.2 451.42 157.19 451.41 157.17 451.41 157.16 451.4 157.14 451.39 157.12 451.39 157.08 451.38 157.05 451.37 157.02 451.36 156.98 451.35 156.96 451.34 156.95 451.32 156.93 451.3 156.91 451.28 156.9 451.27 156.89 451.26 156.89 451.25 156.89 451.24 156.9 451.22 156.91 451.2 156.92 451.17 156.93 451.15 156.94 451.11 156.96 451.08 156.98 451.05 156.99 451.03 156.99 451.02 157 451.01 157 451 157.01 451 157.03 450.98 157.04 450.97 157.06 450.95 157.07 450.93 157.09 450.92 157.1 450.9 157.11 450.88 157.12 450.86 157.12 450.84 157.13 450.82 157.14 450.81 157.14 450.79 157.16 450.76 157.18 450.71 157.21 450.68 157.25 450.63 157.27 450.62 157.28 450.6 157.3 450.57 157.31 450.52 157.34 450.46 157.36 450.43 157.38 450.4 157.4 450.37 157.42 450.33 157.44 450.29 157.47 450.25 157.49 450.22 157.52 450.21 157.53 450.21 157.53 450.2 157.54 450.2 157.56 450.19 157.57 450.18 157.58 450.16 157.6 450.14 157.62 450.12 157.64 450.1 157.66 450.08 157.67 450.07 157.68 450.05 157.68 450.03 157.69 450.02 157.69 450.01 157.7 449.99 157.71 449.96 157.73 449.93 157.76 449.9 157.79 449.88 157.82 449.85 157.84 449.83 157.87 449.81 157.9 449.79 157.93 449.78 157.94 449.78 157.95 449.78 157.97 449.78 157.97 449.78 157.99 449.79 158 449.79 158.02 449.79 158.04 449.79 158.07 449.79 158.08 449.78 158.1 449.78 158.12 449.77 158.13 449.76 158.15 449.75 158.17 449.73 158.2 449.71 158.23 449.7 158.26 449.68 158.29 449.67 158.32 449.67 158.33 449.67 158.35 449.66 158.37 449.66 158.39 449.66 158.43 449.64 158.46 449.63 158.5 449.6 158.54 449.58 158.56 449.56 158.58 449.54 158.6 449.52 158.61 449.49 158.63 449.46 158.65 449.44 158.66 449.43 158.66 449.4 158.67 449.37 158.68 449.34 158.69 449.31 158.69 449.27 158.7 449.23 158.72 449.2 158.72 449.16 158.74 449.13 158.75 449.11 158.76 449.09 158.77 449.07 158.78 449.04 158.8 449.01 158.83 448.95 158.88 448.9 158.92 448.85 158.95 448.82 158.97 448.81 158.97 448.79 158.98 448.77 158.98 448.76 158.98 448.73 158.98 448.71 158.98 448.69 158.98 448.67 158.98 448.65 158.99 448.64 158.99 448.62 159 448.6 159.01 448.6 159.01 448.58 159.02 448.55 159.03 448.52 159.04 448.48 159.05 448.45 159.06 448.43 159.06 448.41 159.07 448.39 159.08 448.38 159.09 448.36 159.11 448.35 159.12 448.34 159.12 448.32 159.14 448.3 159.16 448.28 159.19 448.25 159.21 448.23 159.24 448.21 159.26 448.19 159.28 448.17 159.31 448.15 159.33 448.13 159.35 448.12 159.37 448.1 159.4 448.09 159.43 448.08 159.46 448.05 159.53 448.03 159.55 448.01 159.57 448 159.58 447.98 159.58 447.96 159.59 447.95 159.59 447.95 159.59 447.94 159.59 447.93 159.59 447.9 159.59 447.86 159.59 447.81 159.57 447.79 159.56 447.76 159.55 447.73 159.56 447.7 159.56 447.67 159.58 447.63 159.6 447.6 159.62 447.57 159.63 447.54 159.64 447.5 159.65 447.48 159.65 447.43 159.66 447.4 159.67 447.36 159.68 447.34 159.69 447.31 159.71 447.28 159.72 447.26 159.73 447.25 159.74 447.23 159.74 447.22 159.72 447.2 159.7 447.18 159.68 447.15 159.66 447.11 159.64 447.08 159.62 447.06 159.6 447.04 159.58 447.01 159.56 446.98 159.56 446.94 159.57 446.9 159.57 446.85 159.58 446.77 159.6 446.71 159.61 446.7 159.61 446.67 159.62 446.62 159.62 446.59 159.63 446.57 159.64 446.54 159.67 446.49 159.71 446.46 159.74 446.41 159.79 446.39 159.81 446.34 159.84 446.32 159.84 446.27 159.87 446.23 159.89 446.19 159.91 446.16 159.94 446.14 159.95 446.11 159.99 446.09 160.01 446.08 160.05 446.06 160.1 446.05 160.14 446.04 160.18 446.02 160.23 445.99 160.26 445.96 160.31 445.92 160.35 445.9 160.39 445.87 160.44 445.84 160.48 445.82 160.51 445.79 160.54 445.76 160.58 445.74 160.59 445.72 160.61 445.69 160.62 445.66 160.62 445.64 160.64 445.62 160.65 445.59 160.67 445.57 160.68 445.55 160.7 445.52 160.71 445.49 160.73 445.46 160.75 445.45 160.77 445.43 160.79 445.4 160.82 445.37 160.86 445.33 160.91 445.3 160.96 445.27 161.01 445.25 161.04 445.23 161.07 445.22 161.1 445.2 161.14 445.18 161.17 445.16 161.19 445.13 161.23 445.1 161.26 445.06 161.31 445.04 161.33 445.03 161.35 445.01 161.37 444.99 161.39 444.96 161.41 444.94 161.42 444.91 161.43 444.88 161.43 444.85 161.43 444.83 161.44 444.81 161.45 444.78 161.47 444.76 161.49 444.75 161.5 444.73 161.51 444.71 161.52 444.69 161.52 444.67 161.54 444.66 161.55 444.65 161.56 444.64 161.58 444.63 161.59 444.61 161.61 444.6 161.64 444.6 161.65 444.59 161.67 444.59 161.69 444.58 161.71 444.57 161.74 444.55 161.76 444.53 161.8 444.52 161.82 444.51 161.84 444.5 161.86 444.49 161.88 444.48 161.9 444.47 161.91 444.46 161.93 444.44 161.94 444.43 161.96 444.41 161.97 444.4 161.98 444.38 161.99 444.36 162 444.35 162.01 444.32 162.03 444.31 162.05 444.3 162.06 444.29 162.07 444.29 162.08 444.29 162.1 444.29 162.11 444.3 162.13 444.31 162.14 444.31 162.16 444.31 162.17 444.31 162.18 444.31 162.2 444.3 162.21 444.28 162.22 444.27 162.24 444.26 162.26 444.25 162.27 444.23 162.29 444.22 162.31 444.21 162.33 444.19 162.34 444.18 162.35 444.16 162.38 444.14 162.39 444.13 162.41 444.11 162.42 444.1 162.44 444.08 162.45 444.07 162.46 444.05 162.47 444.04 162.48 444.02 162.5 444 162.51 443.98 162.52 443.95 162.53 443.94 162.53 443.91 162.54 443.9 162.54 443.88 162.55 443.86 162.55 443.84 162.56 443.82 162.56 443.79 162.56 443.77 162.57 443.74 162.57 443.72 162.57 443.71 162.58 443.68 162.58 443.65 162.59 443.62 162.6 443.6 162.6 443.56 162.6 443.54 162.6 443.52 162.61 443.49 162.61 443.47 162.61 443.45 162.62 443.42 162.62 443.39 162.62 443.37 162.63 443.35 162.63 443.33 162.63 443.31 162.63 443.29 162.63 443.27 162.63 443.24 162.63 443.22 162.63 443.19 162.63 443.18 162.63 443.16 162.64 443.14 162.64 443.12 162.64 443.1 162.65 443.07 162.66 443.04 162.68 443.02 162.69 443.01 162.7 443 162.71 442.96 162.73 442.95 162.74 442.94 162.75 442.92 162.76 442.9 162.77 442.88 162.77 442.85 162.77 442.83 162.78 442.8 162.78 442.78 162.79 442.75 162.79 442.69 162.64 442.68 162.6 442.66 162.54 442.64 162.5 442.5 162.11 442.37 161.89 442.35 161.84 442.32 161.8 442.3 161.76 442.27 161.72 442.24 161.66 442.21 161.61 442.18 161.56 442.16 161.52 442.08 161.43 441.99 161.33 441.96 161.29 441.92 161.25 441.87 161.19 441.83 161.15 441.77 161.1 441.75 161.09 441.58 160.98 441.48 160.92 441.47 160.92 441.3 160.8 441.26 160.78 441.24 160.77 441.23 160.76 441.22 160.76 441.18 160.73 441.06 160.67 441 160.68 440.95 160.68 440.91 160.68 440.79 160.68 440.73 160.69 440.28 160.69 440.21 160.69 440.13 160.69 439.46 160.34 439.17 160.19 438.65 159.92 438.63 159.91 438.56 159.87 438.51 159.85 438.44 159.81 438.39 159.79 438.34 159.76 438.14 159.66 437.82 159.5 437.29 159.23 437.26 159.22 437.27 158.99 437.28 158.9 437.29 158.81 437.3 158.72 437.31 158.66 437.32 158.57 437.34 158.44 437.36 158.33 437.37 158.23 437.39 158.1 437.41 157.96 437.41 157.83 437.42 157.73 437.44 157.61 437.45 157.52 437.46 157.42 437.47 157.32 437.48 157.21 437.49 157.01 437.51 156.89 437.53 156.72 437.59 156.12 437.61 156 437.65 155.93 437.66 155.92 437.71 155.86 437.77 155.8 437.8 155.76 437.83 155.71 437.86 155.66 437.89 155.62 437.94 155.58 438.02 155.5 438.06 155.48 438.09 155.45 438.12 155.42 438.16 155.37 438.2 155.32 438.23 155.27 438.27 155.2 438.3 155.14 438.34 155.07 438.37 155 438.39 154.93 438.4 154.86 438.42 154.77 438.44 154.7 438.45 154.62 438.47 154.55 438.47 154.51 438.5 154.44 438.52 154.39 438.54 154.31 438.58 154.22 438.6 154.16 438.61 154.14 438.62 154.11 438.63 154.09 438.64 154.08 438.64 154.07 438.69 154 438.72 153.95 438.75 153.89 438.79 153.83 438.8 153.8 438.82 153.76 438.84 153.72 438.85 153.67 438.85 153.61 438.84 153.54 438.84 153.46 438.84 153.36 438.83 153.3 438.83 153.23 438.82 153.18 438.8 153.14 438.79 153.12 438.78 153.1 438.77 153.09 438.77 153.06 438.77 153.03 438.77 152.98 438.78 152.93 438.78 152.89 438.78 152.85 438.78 152.81 438.78 152.78 438.77 152.7 438.77 152.68 438.76 152.65 438.73 152.57 438.71 152.5 438.69 152.44 438.65 152.35 438.62 152.29 438.6 152.22 438.59 152.17 438.58 152.12 438.57 152.06 438.56 151.99 438.54 151.94 438.53 151.88 438.52 151.82 438.51 151.77 438.49 151.72 438.48 151.67 438.46 151.62 438.49 151.6 438.54 151.58 438.59 151.54 438.65 151.51 438.71 151.49 438.75 151.46 438.8 151.45 438.86 151.42 438.9 151.39 438.94 151.35 438.98 151.3 439.02 151.27 439.05 151.25 439.11 151.22 439.17 151.18 439.22 151.15 439.31 151.09 439.39 151.07 439.4 151.07 440.63 150.76 440.65 150.76 440.67 150.76 441.12 150.65 443.41 147.71 444.03 147.77 444.36 147.8 444.44 147.81 444.48 147.81 444.53 147.74 444.62 147.63 444.73 147.51 444.81 147.42 444.85 147.37 444.86 147.36 444.98 147.22 445.08 147.1 445.12 147.05 445.15 147.01 445.18 146.98 445.25 146.89 445.27 146.87 445.32 146.88 445.33 146.88 445.4 146.89 445.47 146.88 445.52 146.85 445.6 146.81 445.7 146.76 445.75 146.71 445.82 146.66 445.9 146.6 445.91 146.59 445.98 146.53 446.03 146.5 446.08 146.45 446.11 146.42 446.11 146.42 446.14 146.37 446.16 146.33 446.18 146.28 446.18 146.27 446.19 146.24 446.14 146.19 446.11 146.15 446.09 146.09 446.09 146.03 446.1 145.99 446.11 145.95 446.13 145.9 446.14 145.87 446.15 145.85 446.18 145.77 446.2 145.72 446.21 145.7 446.24 145.64 446.27 145.58 446.28 145.53 446.31 145.44 446.32 145.37 446.32 145.3 446.32 145.24 446.3 145.18 446.28 145.12 446.25 145.07 446.23 145.03 446.21 145 446.19 144.97 446.15 144.95 446.11 144.93 446.06 144.92 446.02 144.89 445.99 144.86 445.98 144.82 445.99 144.76 446.01 144.74 446.01 144.73 446.03 144.71 446.07 144.7 446.12 144.69 446.16 144.68 446.18 144.67 446.21 144.64 446.22 144.6 446.24 144.54 446.27 144.47 446.29 144.44 446.31 144.42 446.35 144.39 446.41 144.36 446.52 144.24 446.57 144.16 446.6 144.1 446.65 144.07 446.72 144.03 446.84 143.91 446.92 143.79 447 143.71 447.04 143.67 447.1 143.57 447.16 143.49 447.23 143.41 447.35 143.3 447.36 143.29 447.45 143.2 447.53 143.11 447.59 143.06 447.64 143.02 447.7 143.01 447.76 143 447.78 142.99 447.78 142.98 447.79 142.98 447.82 142.96 447.87 142.91 447.93 142.84 447.94 142.75 447.94 142.74 447.97 142.68 448.01 142.61 448.09 142.51 448.14 142.43 448.18 142.35 448.24 142.29 448.28 142.23 448.33 142.11 448.33 142.08 448.32 142.04 448.31 142 448.33 141.95 448.38 141.9 448.39 141.87 448.44 141.82 448.5 141.78 448.56 141.76 448.63 141.75 448.69 141.72 448.74 141.68 448.77 141.65 448.78 141.63 448.81 141.56 448.85 141.46 448.9 141.4 448.97 141.34 449.04 141.28 449.05 141.28 449.08 141.24 449.1 141.2 449.13 141.12 449.15 141.06 449.19 141.03 449.24 141.01 449.3 141 449.36 140.98 449.39 140.96 449.44 140.93 449.49 140.9 449.62 140.83 449.64 140.82 449.74 140.77 449.77 140.76 449.78 140.74 449.8 140.69 449.8 140.63 449.81 140.59 449.81 140.57 449.82 140.55 449.84 140.52 449.89 140.49 449.95 140.47 449.97 140.46 450.01 140.43 450.05 140.37 450.1 140.26 450.19 140.03 450.27 139.82 450.28 139.8 450.29 139.79 450.31 139.75 450.35 139.71 450.37 139.64 450.41 139.56 450.42 139.52 450.41 139.49 450.45 139.46 450.48 139.45 450.51 139.45 450.57 139.48 450.61 139.51 450.67 139.53 450.75 139.53 450.82 139.52 450.91 139.52 450.97 139.51 450.99 139.51 451.03 139.51 451.11 139.53 451.25 139.57 451.32 139.58 451.38 139.58 451.42 139.57 451.47 139.56 451.5 139.56 451.54 139.58 451.61 139.63 451.67 139.67 451.69 139.68 451.74 139.7 451.78 139.71 451.83 139.71 451.87 139.71 451.89 139.71 451.96 139.69 452.03 139.66 452.08 139.63 452.13 139.58 452.18 139.56 452.22 139.55 452.25 139.57 452.27 139.57 452.39 139.63 452.48 139.66 452.57 139.67 452.66 139.68 452.71 139.67 452.76 139.65 452.83 139.61 452.91 139.56 452.95 139.54 453 139.54 453.07 139.55 453.18 139.58 453.23 139.59 453.27 139.58 453.36 139.52 453.41 139.51 453.48 139.5 453.53 139.5 453.56 139.48 453.62 139.44 453.68 139.4 453.72 139.38 453.78 139.37 453.85 139.37 453.93 139.37 454.03 139.38 454.12 139.38 454.17 139.39 454.21 139.43 454.24 139.44 454.26 139.45 454.29 139.44 454.33 139.4 454.37 139.31 454.4 139.21 454.41 139.12 454.43 139.07 454.43 139.06 454.43 139.04 454.38 139.04 454.29 139.04 454.22 139.01 454.18 138.96 454.15 138.9 454.15 138.86 454.18 138.8 454.22 138.75 454.28 138.66 454.34 138.58 454.38 138.5 454.4 138.44 454.39 138.4 454.38 138.35 454.34 138.28 454.32 138.2 454.31 138.13 454.32 138.07 454.35 138.01 454.38 137.96 454.45 137.88 454.48 137.83 454.53 137.8 454.57 137.77 454.61 137.75 454.66 137.75 454.71 137.75 454.78 137.76 454.88 137.79 454.96 137.81 455 137.8 455.02 137.79 455.05 137.76 455.1 137.7 455.17 137.6 455.23 137.49 455.26 137.41 455.29 137.35 455.31 137.27 455.31 137.23 455.3 137.19 455.26 137.15 455.2 137.11 455.07 137.04 454.95 136.96 454.88 136.89 454.81 136.82 454.69 136.68 454.63 136.59 454.58 136.52 454.54 136.46 454.51 136.39 454.51 136.34 454.5 136.29 454.5 136.25 454.52 136.2 454.54 136.16 454.57 136.12 454.59 136.09 454.65 136.06 454.74 136.02 454.84 135.99 454.94 135.95 455.04 135.91 455.11 135.87 455.18 135.81 455.21 135.75 455.22 135.69 455.22 135.63 455.21 135.55 455.17 135.49 455.1 135.42 454.99 135.32 454.94 135.3 454.91 135.3 454.85 135.32 454.77 135.34 454.69 135.36 454.61 135.39 454.52 135.43 454.41 135.48 454.31 135.54 454.21 135.6 454.09 135.66 454 135.72 453.96 135.78 453.93 135.86 453.92 135.95 453.9 136.02 453.86 136.1 453.81 136.14 453.75 136.17 453.69 136.21 453.64 136.23 453.6 136.24 453.55 136.25 453.5 136.24 453.44 136.23 453.41 136.21 453.36 136.18 453.26 136.1 453.2 136.03 453.17 136.03 453.12 136.06 453.07 136.09 452.97 136.16 452.88 136.22 452.85 136.26 452.82 136.3 452.82 136.4 452.81 136.46 452.78 136.5 452.73 136.55 452.69 136.57 452.64 136.58 452.57 136.58 452.47 136.56 452.39 136.54 452.32 136.5 452.24 136.46 452.19 136.42 452.14 136.35 452.09 136.28 452.06 136.23 452.03 136.16 451.99 136.08 451.94 135.96 451.89 135.85 451.84 135.76 451.78 135.66 451.72 135.56 451.67 135.46 451.61 135.41 451.56 135.38 451.51 135.37 451.44 135.37 451.39 135.38 451.34 135.4 451.26 135.45 451.19 135.52 451.12 135.57 451.07 135.63 450.99 135.74 450.93 135.8 450.88 135.82 450.83 135.84 450.74 135.85 450.66 135.86 450.56 135.9 450.47 135.92 450.4 135.94 450.35 135.97 450.25 136.04 450.15 136.1 450.09 136.12 449.97 136.13 449.85 136.12 449.68 136.07 449.48 135.99 449.3 135.94 449.16 135.89 449.05 135.84 448.93 135.78 448.83 135.7 448.78 135.65 448.76 135.61 448.75 135.55 448.75 135.48 448.76 135.43 448.77 135.38 448.8 135.31 448.84 135.23 448.87 135.14 448.88 135.09 448.89 135.03 448.89 134.94 448.92 134.96 448.92 134.97 448.97 135 448.99 135.01 449.04 135.04 449.12 135.08 449.16 135.11 449.22 135.15 449.31 135.22 449.34 135.24 449.37 135.27 449.41 135.29 449.51 135.35 449.63 135.4 449.75 135.45 449.87 135.49 449.93 135.5 450 135.49 450.06 135.48 450.1 135.46 450.14 135.43 450.17 135.38 450.17 135.37 450.18 135.36 450.18 135.34 450.18 135.32 450.18 135.29 450.18 135.25 450.17 135.2 450.15 135.17 450.14 135.14 450.14 135.13 450.14 134.99 450.14 134.84 450.15 134.74 450.15 134.72 450.14 134.61 450.11 134.48 450.09 134.45 450.06 134.41 450.02 134.36 449.98 134.33 449.93 134.29 449.89 134.27 449.8 134.22 449.75 134.18 449.72 134.14 449.69 134.11 449.66 134.02 449.64 133.93 449.66 133.86 449.66 133.85 449.67 133.81 449.68 133.79 449.72 133.69 449.76 133.61 449.8 133.54 449.84 133.46 449.87 133.4 449.95 133.29 449.96 133.28 449.97 133.26 449.99 133.23 450.04 133.16 450.07 133.11 450.09 133.06 450.08 133.01 450.06 132.98 450.04 132.97 450.02 132.94 449.96 132.91 449.89 132.89 449.89 132.89 449.85 132.89 449.82 132.9 449.78 132.92 449.75 132.95 449.67 133.07 449.57 133.21 449.49 133.31 449.4 133.42 449.33 133.46 449.26 133.48 449.23 133.49 449.12 133.5 449.06 133.48 449.02 133.45 449.02 133.44 448.99 133.4 448.96 133.35 448.96 133.3 448.94 133.16 448.94 133.13 448.92 133 448.9 132.89 448.88 132.82 448.84 132.73 448.83 132.68 448.82 132.63 448.82 132.59 448.81 132.51 448.82 132.41 448.82 132.38 448.83 132.36 448.85 132.33 448.89 132.3 448.94 132.27 449 132.24 449.06 132.23 449.14 132.21 449.23 132.21 449.25 132.21 449.27 132.21 449.31 132.21 449.37 132.21 449.38 132.21 449.41 132.21 449.44 132.21 449.47 132.21 449.5 132.22 449.53 132.22 449.56 132.22 449.59 132.23 449.6 132.23 449.62 132.23 449.67 132.23 449.73 132.24 449.86 132.25 449.95 132.25 450.02 132.25 450.1 132.24 450.17 132.21 450.2 132.18 450.24 132.14 450.26 132.12 450.27 132.09 450.3 132.01 450.31 131.91 450.32 131.85 450.33 131.78 450.32 131.73 450.3 131.65 450.27 131.56 450.24 131.53 450.21 131.51 450.17 131.5 450.16 131.49 450.12 131.49 450.11 131.49 450.1 131.49 450.07 131.49 450.03 131.5 450.01 131.5 449.99 131.5 449.94 131.51 449.9 131.52 449.86 131.53 449.81 131.53 449.79 131.54 449.78 131.54 449.7 131.54 449.68 131.54 449.66 131.54 449.61 131.54 449.6 131.54 449.57 131.54 449.45 131.54 449.41 131.53 449.36 131.53 449.28 131.53 449.24 131.53 449.22 131.53 449.03 131.53 448.84 131.53 448.81 131.53 448.68 131.52 448.66 131.51 448.63 131.48 448.61 131.43 448.61 131.38 448.61 131.33 448.62 131.28 448.63 131.22 448.65 131.18 448.67 131.15 448.67 131.13 448.71 131.08 448.74 131.03 448.78 130.99 448.82 130.95 448.82 130.94 448.87 130.9 448.89 130.87 448.91 130.86 448.93 130.83 448.96 130.8 449.03 130.75 449.07 130.72 449.15 130.66 449.19 130.63 449.22 130.59 449.25 130.53 449.27 130.48 449.27 130.44 449.27 130.41 449.27 130.37 449.25 130.34 449.2 130.27 449.16 130.23 449.14 130.2 449.08 130.12 449.02 130.04 449 130.01 448.96 129.97 448.93 129.92 448.9 129.87 448.87 129.84 448.85 129.8 448.79 129.71 448.78 129.65 448.77 129.6 448.77 129.56 448.79 129.51 448.81 129.49 448.83 129.46 448.9 129.37 448.98 129.27 449.02 129.21 449.05 129.17 449.07 129.14 449.1 129.09 449.11 129.07 449.13 129.03 449.15 129.01 449.17 128.95 449.18 128.89 449.17 128.86 449.15 128.82 449.12 128.79 449.11 128.78 449.09 128.77 449.08 128.76 449.03 128.75 448.95 128.72 448.91 128.71 448.86 128.68 448.73 128.63 448.61 128.57 448.56 128.54 448.55 128.53 448.54 128.52 448.53 128.5 448.52 128.49 448.49 128.46 448.48 128.41 448.47 128.36 448.48 128.26 448.48 128.26 448.49 128.23 448.53 128.15 448.54 128.13 448.55 128.12 448.58 128.1 448.61 128.06 448.63 128.03 448.68 127.98 448.69 127.97 448.77 127.89 448.83 127.84 448.9 127.78 448.96 127.72 449.03 127.67 449.13 127.59 449.23 127.51 449.29 127.45 449.34 127.39 449.37 127.35 449.4 127.31 449.44 127.26 449.47 127.24 449.5 127.22 449.55 127.19 449.59 127.16 449.64 127.15 449.69 127.15 449.73 127.19 449.74 127.2 449.77 127.22 449.81 127.28 449.85 127.34 449.88 127.37 449.9 127.38 449.91 127.39 449.91 127.39 449.94 127.41 449.98 127.45 450.06 127.5 450.08 127.51 450.11 127.53 450.13 127.54 450.14 127.54 450.21 127.57 450.24 127.59 450.29 127.61 450.3 127.61 450.35 127.65 450.36 127.66 450.38 127.69 450.39 127.7 450.4 127.71 450.41 127.73 450.44 127.77 450.49 127.87 450.54 127.99 450.57 128.07 450.59 128.11 450.58 128.17 450.57 128.22 450.56 128.28 450.55 128.36 450.54 128.43 450.52 128.52 450.52 128.62 450.52 128.69 450.53 128.82 450.54 128.94 450.56 129.01 450.58 129.09 450.63 129.13 450.71 129.16 450.79 129.18 450.87 129.17 450.92 129.14 450.97 129.11 450.99 129.07 450.99 129.06 451 129.01 451.02 128.96 451.02 128.96 451.03 128.92 451.07 128.84 451.1 128.76 451.14 128.71 451.16 128.68 451.19 128.65 451.2 128.64 451.24 128.59 451.26 128.55 451.32 128.5 451.39 128.42 451.46 128.37 451.52 128.3 451.53 128.29 451.58 128.22 451.62 128.13 451.62 128.11 451.63 128.08 451.67 128.03 451.72 127.95 451.77 127.89 451.78 127.88 451.81 127.84 451.83 127.82 451.84 127.8 451.87 127.77 451.92 127.72 451.97 127.69 452.03 127.67 452.06 127.66 452.08 127.66 452.08 127.65 452.15 127.65 452.23 127.67 452.28 127.72 452.3 127.78 452.31 127.86 452.31 127.98 452.31 127.99 452.31 128.06 452.31 128.07 452.35 128.16 452.4 128.26 452.45 128.35 452.47 128.41 452.49 128.46 452.49 128.5 452.49 128.56 452.48 128.67 452.46 128.76 452.45 128.79 452.43 128.86 452.42 128.88 452.4 128.94 452.39 128.99 452.39 129 452.38 129.06 452.37 129.08 452.37 129.15 452.37 129.21 452.37 129.22 452.38 129.27 452.42 129.35 452.45 129.41 452.5 129.49 452.56 129.56 452.64 129.63 452.71 129.7 452.78 129.74 452.79 129.75 452.84 129.77 452.87 129.79 452.89 129.81 452.92 129.82 452.96 129.86 453 129.91 453.02 129.96 453 130.01 452.96 130.03 452.91 130.03 452.86 130.01 452.82 130 452.79 129.98 452.77 129.98 452.73 130 452.7 130.02 452.68 130.04 452.67 130.07 452.67 130.1 452.66 130.11 452.67 130.16 452.7 130.25 452.75 130.34 452.77 130.37 452.79 130.42 452.82 130.46 452.83 130.49 452.84 130.52 452.85 130.59 452.87 130.65 452.89 130.69 452.91 130.69 452.99 130.74 453 130.75 453.02 130.76 453.06 130.78 453.08 130.79 453.1 130.83 453.12 130.87 453.12 130.91 453.1 130.98 453.03 131.09 453.01 131.11 452.96 131.2 452.95 131.2 452.9 131.28 452.89 131.29 452.88 131.32 452.83 131.39 452.79 131.47 452.77 131.5 452.74 131.57 452.74 131.57 452.7 131.66 452.66 131.77 452.65 131.79 452.62 131.88 452.6 131.97 452.59 132.01 452.59 132.02 452.57 132.11 452.57 132.12 452.56 132.22 452.56 132.25 452.56 132.33 452.56 132.35 452.56 132.43 452.58 132.5 452.62 132.56 452.63 132.58 452.67 132.62 452.77 132.69 452.81 132.7 452.86 132.72 452.93 132.74 452.96 132.76 452.99 132.77 453.03 132.79 453.11 132.82 453.15 132.85 453.17 132.86 453.18 132.87 453.26 132.93 453.3 132.97 453.35 133.01 453.37 133.03 453.43 133.09 453.48 133.15 453.51 133.22 453.52 133.29 453.53 133.32 453.53 133.35 453.53 133.36 453.54 133.39 453.54 133.43 453.54 133.46 453.55 133.47 453.56 133.54 453.58 133.66 453.6 133.73 453.61 133.75 453.63 133.78 453.63 133.79 453.64 133.82 453.66 133.85 453.67 133.87 453.68 133.89 453.68 133.9 453.69 133.92 453.69 133.95 453.65 134.02 453.56 134.14 453.45 134.26 453.39 134.32 453.38 134.33 453.36 134.37 453.35 134.4 453.36 134.44 453.38 134.48 453.42 134.54 453.54 134.65 453.65 134.71 453.75 134.75 453.88 134.77 453.99 134.78 454.11 134.77 454.18 134.76 454.19 134.76 454.26 134.7 454.33 134.63 454.35 134.6 454.38 134.56 454.43 134.45 454.43 134.38 454.42 134.34 454.41 134.29 454.4 134.27 454.38 134.2 454.37 134.19 454.35 134.12 454.33 134.06 454.33 134.05 454.31 134 454.29 133.95 454.27 133.89 454.26 133.89 454.26 133.88 454.26 133.86 454.25 133.79 454.26 133.67 454.28 133.57 454.3 133.46 454.31 133.43 454.31 133.4 454.31 133.37 454.31 133.36 454.32 133.29 454.32 133.21 454.32 133.14 454.3 133.06 454.3 133.05 454.3 133.03 454.28 132.98 454.26 132.9 454.24 132.84 454.22 132.77 454.22 132.76 454.22 132.74 454.22 132.73 454.22 132.72 454.22 132.7 454.22 132.69 454.23 132.64 454.26 132.59 454.3 132.56 454.37 132.53 454.39 132.52 454.4 132.52 454.41 132.52 454.47 132.52 454.59 132.57 454.62 132.58 454.65 132.59 454.68 132.6 454.76 132.6 454.81 132.59 454.83 132.58 454.89 132.56 454.91 132.54 454.97 132.51 455 132.5 455.05 132.48 455.1 132.48 455.13 132.48 455.16 132.49 455.17 132.5 455.17 132.51 455.17 132.53 455.15 132.55 455.12 132.58 455.07 132.61 455.02 132.64 454.96 132.66 454.91 132.69 454.89 132.7 454.86 132.73 454.84 132.74 454.79 132.78 454.75 132.81 454.72 132.83 454.7 132.85 454.69 132.85 454.66 132.88 454.64 132.93 454.69 132.96 454.76 132.98 454.85 133.02 454.88 133.03 454.96 133.03 455.09 133.02 455.14 133.02 455.19 133.01 455.23 133.01 455.27 133.02 455.31 133.05 455.34 133.08 455.36 133.09 455.4 133.16 455.46 133.26 455.49 133.3 455.49 133.31 455.5 133.32 455.53 133.35 455.62 133.38 455.75 133.4 455.85 133.39 455.86 133.39 455.88 133.39 455.91 133.37 455.95 133.36 455.96 133.35 456.03 133.29 456.09 133.22 456.12 133.16 456.14 133.11 456.15 133.05 456.15 133 456.15 132.96 456.15 132.92 456.15 132.9 456.16 132.87 456.16 132.83 456.16 132.81 456.15 132.78 456.13 132.75 456.13 132.74 456.11 132.71 456.08 132.67 456.07 132.66 456.06 132.65 456.05 132.63 456.02 132.59 456 132.58 455.96 132.56 455.92 132.52 455.86 132.49 455.81 132.46 455.79 132.44 455.78 132.44 455.74 132.42 455.72 132.4 455.71 132.4 455.66 132.37 455.63 132.36 455.63 132.35 455.57 132.33 455.52 132.3 455.5 132.29 455.42 132.26 455.39 132.25 455.33 132.24 455.26 132.22 455.23 132.21 455.19 132.21 455.17 132.19 455.17 132.18 455.16 132.17 455.17 132.15 455.24 132.12 455.3 132.08 455.32 132.06 455.36 132.04 455.38 132.02 455.39 132.01 455.41 131.99 455.48 131.94 455.53 131.89 455.56 131.86 455.59 131.83 455.62 131.81 455.64 131.81 455.7 131.82 455.78 131.86 455.81 131.88 455.85 131.91 455.88 131.95 455.91 131.98 455.95 132.03 455.96 132.04 456 132.1 456.03 132.16 456.04 132.18 456.06 132.22 456.09 132.27 456.11 132.3 456.13 132.3 456.16 132.29 456.17 132.28 456.23 132.25 456.28 132.21 456.33 132.16 456.37 132.11 456.41 132.05 456.46 131.95 456.48 131.91 456.49 131.87 456.48 131.8 456.47 131.72 456.45 131.66 456.43 131.59 456.4 131.52 456.36 131.43 456.33 131.37 456.32 131.32 456.32 131.29 456.32 131.27 456.33 131.26 456.33 131.25 456.33 131.24 456.36 131.19 456.41 131.13 456.49 131.08 456.5 131.07 456.52 131.05 456.63 130.99 456.68 130.95 456.71 130.93 456.77 130.89 456.89 130.79 456.98 130.71 457.04 130.64 457.08 130.57 457.11 130.51 457.13 130.44 457.13 130.36 457.12 130.3 457.1 130.23 457.08 130.17 457.05 130.13 457.01 130.09 456.96 130.04 456.88 130.01 456.79 129.96 456.69 129.9 456.63 129.85 456.58 129.8 456.54 129.76 456.51 129.71 456.49 129.65 456.47 129.58 456.46 129.49 456.46 129.41 456.46 129.32 456.48 129.24 456.49 129.18 456.53 129.1 456.57 129.03 456.63 128.96 456.71 128.89 456.79 128.82 456.9 128.73 456.99 128.67 457.07 128.61 457.17 128.54 457.21 128.48 457.23 128.45 457.28 128.38 457.3 128.34 457.31 128.32 457.33 128.29 457.35 128.27 457.39 128.28 457.4 128.3 457.42 128.32 457.46 128.35 457.48 128.38 457.51 128.41 457.54 128.44 457.58 128.48 457.6 128.52 457.61 128.53 457.62 128.57 457.63 128.59 457.64 128.63 457.64 128.68 457.62 128.72 457.57 128.77 457.56 128.78 457.52 128.81 457.5 128.84 457.41 128.93 457.38 128.97 457.34 129.01 457.3 129.07 457.28 129.11 457.28 129.12 457.27 129.16 457.26 129.22 457.27 129.25 457.27 129.32 457.28 129.36 457.28 129.42 457.28 129.51 457.29 129.59 457.32 129.66 457.33 129.68 457.35 129.7 457.41 129.76 457.49 129.83 457.57 129.88 457.69 129.94 457.83 130 457.93 130.05 458 130.1 458.02 130.12 458.04 130.13 458.07 130.16 458.11 130.18 458.15 130.18 458.25 130.11 458.28 130.09 458.3 130.06 458.32 130.04 458.35 130 458.38 129.95 458.39 129.93 458.42 129.9 458.44 129.87 458.45 129.84 458.46 129.83 458.47 129.81 458.48 129.8 458.51 129.76 458.54 129.71 458.54 129.7 458.55 129.68 458.57 129.65 458.59 129.6 458.6 129.6 458.62 129.55 458.65 129.52 458.69 129.5 458.73 129.5 458.79 129.51 458.9 129.55 459.02 129.61 459.08 129.65 459.12 129.67 459.14 129.68 459.23 129.74 459.29 129.76 459.35 129.76 459.45 129.76 459.54 129.75 459.57 129.76 459.6 129.77 459.62 129.79 459.63 129.81 459.65 129.85 459.68 129.9 459.7 129.93 459.74 129.95 459.76 129.96 459.79 129.97 459.84 129.98 459.96 129.95 460.05 129.9 460.19 129.84 460.36 129.73 460.54 129.62 460.76 129.49 460.94 129.39 461.03 129.32 461.11 129.27 461.17 129.24 461.19 129.24 461.24 129.21 461.28 129.21 461.3 129.23 461.32 129.26 461.36 129.31 461.36 129.37 461.37 129.46 461.38 129.53 461.4 129.62 461.43 129.68 461.44 129.7 461.48 129.75 461.53 129.79 461.58 129.81 461.66 129.8 461.76 129.78 461.81 129.74 461.85 129.7 461.86 129.65 461.87 129.6 461.85 129.54 461.81 129.45 461.74 129.33 461.68 129.25 461.68 129.24 461.66 129.22 461.64 129.19 461.63 129.18 461.62 129.16 461.61 129.14 461.6 129.12 461.59 129.1 461.57 129.04 461.56 129.01 461.56 128.95 461.58 128.88 461.63 128.78 461.64 128.74 461.65 128.69 461.63 128.63 461.56 128.5 461.49 128.34 461.48 128.29 461.49 128.26 461.5 128.23 461.51 128.22 461.52 128.2 461.53 128.18 461.56 128.14 461.59 128.12 461.62 128.1 461.65 128.09 461.71 128.08 461.77 128.09 461.84 128.12 461.9 128.18 461.96 128.25 462.01 128.32 462.06 128.41 462.06 128.43 462.07 128.46 462.09 128.49 462.1 128.52 462.11 128.55 462.12 128.57 462.14 128.59 462.15 128.61 462.2 128.64 462.25 128.65 462.28 128.64 462.31 128.63 462.36 128.6 462.45 128.5 462.61 128.3 462.72 128.17 462.75 128.13 462.76 128.08 462.78 128.03 462.81 128 462.83 127.98 462.87 127.97 462.89 127.98 462.9 127.98 462.96 128.03 463.09 128.12 463.12 128.15 463.22 128.21 463.38 128.29 463.43 128.31 463.48 128.33 463.56 128.35 463.67 128.38 463.82 128.37 463.9 128.35 464.01 128.31 464.03 128.3 464.09 128.29 464.16 128.28 464.18 128.28 464.19 128.27 464.21 128.22 464.23 128.16 464.25 128.12 464.28 128.06 464.32 128.01 464.36 127.95 464.38 127.93 464.39 127.92 464.4 127.91 464.42 127.89 464.45 127.87 464.48 127.85 464.5 127.83 464.52 127.8 464.53 127.79 464.56 127.77 464.58 127.76 464.61 127.73 464.63 127.68 464.66 127.61 464.7 127.53 464.74 127.47 464.83 127.38 464.87 127.35 464.91 127.33 464.94 127.31 464.96 127.28 464.99 127.25 465.01 127.21 465.03 127.16 465.04 127.09 465.04 127.04 465.04 126.95 465.03 126.94 465.03 126.93 465.03 126.91 465.02 126.85 465 126.81 465 126.79 464.99 126.77 464.98 126.73 464.97 126.7 464.97 126.69 464.96 126.66 464.93 126.54 464.94 126.51 464.95 126.49 464.96 126.48 464.99 126.46 465.05 126.44 465.11 126.42 465.15 126.39 465.18 126.37 465.2 126.33 465.24 126.21 465.25 126.14 465.24 126.06 465.23 126 465.22 125.95 465.2 125.93 465.19 125.92 465.18 125.92 465.17 125.91 465.16 125.89 465.13 125.87 465.09 125.82 465.07 125.79 465.06 125.76 465.05 125.73 465.05 125.7 465.04 125.61 465.04 125.49 465.04 125.4 465.05 125.37 465.07 125.33 465.08 125.31 465.09 125.3 465.09 125.29 465.12 125.26 465.15 125.22 465.22 125.17 465.29 125.12 465.35 125.05 465.38 125.02 465.38 125.02 465.39 125.01 465.4 125 465.41 124.96 465.42 124.92 465.43 124.91 465.45 124.83 465.47 124.79 465.5 124.75 465.53 124.74 465.57 124.74 465.64 124.74 465.72 124.72 465.78 124.7 465.81 124.68 465.83 124.66 465.86 124.6 465.9 124.52 465.92 124.42 465.97 124.28 466.01 124.18 466.07 124.1 466.08 124.08 466.09 124.07 466.12 124.05 466.14 124.05 466.18 124.04 466.24 124.04 466.29 124.05 466.35 124.08 466.4 124.12 466.44 124.17 466.48 124.19 466.5 124.22 466.53 124.27 466.57 124.31 466.61 124.33 466.65 124.33 466.69 124.32 466.72 124.31 466.74 124.29 466.76 124.26 466.77 124.25 466.77 124.24 466.78 124.22 466.79 124.19 466.8 124.17 466.81 124.15 466.83 124.12 466.85 124.09 466.87 124.07 466.89 124.07 466.92 124.06 466.96 124.06 467.01 124.07 467.05 124.08 467.14 124.12 467.2 124.14 467.25 124.15 467.32 124.14 467.36 124.14 467.41 124.12 467.48 124.1 467.52 124.08 467.56 124.07 467.61 124.05 467.66 124.04 467.69 124.03 467.74 124.01 467.77 123.99 467.79 123.98 467.81 123.98 467.83 123.97 467.89 123.97 467.91 123.97 467.96 123.98 467.97 123.98 468.02 123.99 468.07 124 468.11 124 468.15 124 468.2 123.99 468.27 123.98 468.31 123.97 468.4 123.95 468.46 123.95 468.48 123.95 468.49 123.95 468.56 123.94 468.62 123.94 468.66 123.94 468.71 123.93 468.76 123.93 468.83 123.94 468.84 123.94 468.85 123.94 468.89 123.94 468.92 123.94 469 123.94 469.08 123.95 469.09 123.95 469.13 123.96 469.17 123.97 469.21 123.99 469.26 124.02 469.28 124.04 469.31 124.05 469.34 124.06 469.35 124.06 469.38 124.05 469.42 124.03 469.47 123.97 469.52 123.91 469.57 123.81 469.59 123.79 469.6 123.78 469.62 123.77 469.64 123.76 469.69 123.74 469.77 123.72 469.82 123.7 469.85 123.68 469.86 123.66 469.87 123.61 469.87 123.54 469.89 123.47 469.9 123.44 469.91 123.42 469.91 123.41 469.96 123.35 469.96 123.34 470 123.29 470 123.27 470.03 123.19 470.04 123.16 470.07 123.11 470.09 123.06 470.1 123.03 470.11 122.99 470.12 122.9 470.14 122.85 470.14 122.83 470.15 122.82 470.16 122.79 470.17 122.78 470.18 122.74 470.18 122.71 470.18 122.7 470.18 122.7 470.18 122.69 470.18 122.68 470.17 122.65 470.15 122.59 470.14 122.54 470.14 122.52 470.14 122.49 470.15 122.47 470.15 122.46 470.16 122.44 470.17 122.43 470.18 122.39 470.19 122.36 470.21 122.28 470.21 122.27 470.22 122.2 470.24 122.08 470.26 122 470.28 121.95 470.28 121.93 470.29 121.91 470.3 121.9 470.31 121.88 470.32 121.87 470.34 121.86 470.37 121.84 470.57 121.79 470.99 121.67 471.12 121.73 471.23 121.78 471.3 121.77 471.36 121.76 471.43 121.74 471.49 121.74 471.59 121.72 471.59 121.72 471.61 121.72 471.65 121.71 471.69 121.7 471.76 121.67 471.78 121.67 471.81 121.66 471.83 121.65 471.89 121.64 471.91 121.64 471.93 121.63 472.04 121.61 472.14 121.57 472.18 121.55 472.23 121.51 472.24 121.5 472.31 121.43 472.37 121.37 472.39 121.36 472.5 121.32 472.55 121.3 472.6 121.3 472.62 121.29 472.66 121.27 472.73 121.21 472.8 121.14 472.84 121.09 472.88 121.05 472.91 120.99 472.93 120.96 Z"/>
</g></svg>