<svg xmlns="http://www.w3.org/2000/svg" version="1.2" baseProfile="tiny" stroke-linecap="round" stroke-linejoin="round" viewBox="87.02 139.67 37.58 24.22"><g xmlns="http://www.w3.org/2000/svg" id="Gordexola">
<path d="M 121.26 139.67 123.41 140.3 124.6 140.65 123.41 141.59 123.13 141.81 123.41 142.38 123.71 143.01 124.43 143.96 123.4 144.33 123.31 144.36 123.33 145.27 123.4 145.53 123.42 145.58 123.66 146.52 123.86 147.31 124.06 148.61 123.65 149.41 123.4 149.95 122.9 151.07 122.22 151.6 121.33 153.59 121.48 154.64 121.57 155.28 121.75 156.84 121.71 156.84 121.72 156.94 120.55 156.98 119.35 157.13 118.08 157.71 116.42 157.84 114.42 158.34 111.76 158.76 111.51 158.81 110.48 159.01 110.39 159.14 109.8 159.85 109.73 160.03 109.55 160.39 109.21 161.12 108.99 161.37 108.52 161.72 108.35 161.9 108.4 162.07 108.05 162.56 108.04 162.58 106.09 162.15 105.36 161.73 104.33 160.99 104.21 160.91 102.97 160.87 102.6 160.78 101.38 161.28 101.05 161.55 99.61 162.51 99.26 162.74 98.37 163.33 98.32 163.6 98.3 163.76 98.26 163.76 98.22 163.77 98.19 163.77 98.11 163.76 98.06 163.77 97.9 163.85 97.82 163.87 97.76 163.88 97.72 163.88 97.67 163.87 97.63 163.86 97.56 163.83 97.51 163.81 97.46 163.8 97.38 163.73 97.32 163.69 97.28 163.66 97.22 163.62 97.18 163.59 97.15 163.56 97.1 163.51 97.05 163.45 96.97 163.39 96.81 163.25 96.76 163.22 96.73 163.2 96.68 163.2 96.65 163.18 96.58 163.14 96.56 163.12 96.52 163.08 96.48 163.06 96.44 163.03 96.41 162.99 96.38 162.96 96.34 162.94 96.31 162.92 96.28 162.89 96.26 162.85 96.1 162.74 96 162.69 95.98 162.68 95.96 162.67 95.94 162.66 95.92 162.64 95.9 162.63 95.89 162.61 95.87 162.59 95.86 162.57 95.84 162.56 95.83 162.54 95.81 162.53 95.8 162.5 95.79 162.49 95.78 162.47 95.77 162.45 95.75 162.43 95.74 162.41 95.73 162.37 95.71 162.34 95.71 162.32 95.69 162.31 95.69 162.28 95.68 162.26 95.67 162.24 95.66 162.23 95.65 162.21 95.64 162.19 95.63 162.17 95.62 162.15 95.6 162.13 95.59 162.11 95.58 162.1 95.57 162.08 95.55 162.04 95.54 162.03 95.53 162.01 95.52 162 95.5 161.98 95.49 161.96 95.47 161.94 95.45 161.92 95.44 161.9 95.42 161.88 95.4 161.85 95.39 161.83 95.38 161.82 95.37 161.81 95.36 161.79 95.34 161.78 95.32 161.76 95.3 161.74 95.29 161.72 95.28 161.71 95.26 161.69 95.26 161.68 95.25 161.66 95.24 161.64 95.22 161.63 95.2 161.61 95.19 161.6 95.17 161.58 95.15 161.57 95.13 161.55 95.12 161.53 95.1 161.52 95.09 161.5 95.07 161.49 95.05 161.47 95.04 161.45 95.02 161.44 95.01 161.42 94.99 161.4 94.98 161.39 94.97 161.37 94.96 161.35 94.95 161.33 94.94 161.31 94.93 161.29 94.92 161.27 94.91 161.25 94.9 161.22 94.9 161.2 94.9 161.18 94.89 161.16 94.9 161.13 94.89 161.1 94.89 161.06 94.89 161.05 94.88 161 94.88 160.97 94.87 160.94 94.87 160.91 94.86 160.9 94.84 160.85 94.83 160.8 94.81 160.75 94.79 160.72 94.77 160.67 94.75 160.61 94.73 160.58 94.72 160.55 94.7 160.52 94.68 160.49 94.67 160.47 94.65 160.44 94.63 160.41 94.62 160.37 94.6 160.33 94.59 160.31 94.57 160.3 94.56 160.27 94.53 160.24 94.5 160.2 94.47 160.16 94.44 160.12 94.4 160.05 94.38 159.99 94.36 159.94 94.34 159.89 94.33 159.85 94.31 159.78 94.29 159.73 94.27 159.67 94.25 159.58 94.23 159.55 94.21 159.53 94.19 159.48 94.17 159.46 94.15 159.44 93.9 159.36 93.8 159.3 93.77 159.27 93.73 159.25 93.7 159.23 93.66 159.21 93.63 159.19 93.6 159.17 93.56 159.17 93.52 159.16 93.48 159.15 93.44 159.14 93.4 159.14 93.37 159.13 93.31 159.12 93.26 159.12 93.22 159.1 93.18 159.09 93.13 159.08 93.08 159.07 93.05 159.06 93 159.05 92.99 159.04 92.97 159.03 92.94 159.03 92.92 159.03 92.9 159.03 92.88 159.02 92.86 159.02 92.81 159.02 92.8 159.02 92.77 159.02 92.75 159.01 92.73 159.01 92.71 159 92.69 159 92.67 158.99 92.66 158.99 92.63 158.99 92.61 158.99 92.59 158.99 92.57 158.99 92.54 158.97 92.51 158.97 92.49 158.95 92.47 158.95 92.43 158.93 92.41 158.93 92.39 158.92 92.37 158.91 92.36 158.9 92.32 158.89 92.3 158.89 92.28 158.89 92.25 158.87 92.23 158.86 92.2 158.85 92.18 158.85 92.15 158.84 92.13 158.83 92.11 158.82 92.09 158.82 92.01 158.79 91.95 158.78 91.92 158.78 91.9 158.78 91.88 158.77 91.86 158.77 91.83 158.77 91.81 158.77 91.78 158.77 91.76 158.77 91.74 158.77 91.72 158.78 91.7 158.78 91.67 158.79 91.65 158.8 91.63 158.81 91.61 158.81 91.58 158.82 91.56 158.83 91.54 158.83 91.51 158.84 91.49 158.84 91.47 158.84 91.44 158.83 91.42 158.82 91.4 158.82 91.38 158.81 91.36 158.8 91.34 158.79 91.32 158.78 91.3 158.77 91.29 158.75 91.27 158.73 91.26 158.71 91.26 158.69 91.25 158.67 91.24 158.64 91.23 158.62 91.22 158.6 91.21 158.58 91.2 158.56 91.18 158.54 91.17 158.52 91.16 158.51 91.14 158.49 91.12 158.47 91.11 158.46 91.09 158.44 91.07 158.43 91.05 158.42 91.03 158.41 91.01 158.4 90.99 158.39 90.96 158.39 90.94 158.38 90.92 158.37 90.9 158.36 90.88 158.35 90.86 158.33 90.85 158.31 90.84 158.3 90.83 158.28 90.82 158.26 90.81 158.24 90.8 158.22 90.78 158.21 90.77 158.19 90.76 158.17 90.74 158.15 90.73 158.13 90.71 158.12 90.7 158.1 90.68 158.08 90.67 158.07 90.65 158.05 90.64 158.03 90.62 158.01 90.61 158 90.6 157.98 90.58 157.96 90.57 157.94 90.56 157.92 90.55 157.9 90.54 157.88 90.53 157.86 90.52 157.83 90.52 157.81 90.51 157.79 90.5 157.77 90.5 157.75 90.5 157.72 90.49 157.7 90.48 157.67 90.47 157.65 90.47 157.62 90.47 157.6 90.46 157.58 90.46 157.55 90.46 157.53 90.46 157.51 90.46 157.49 90.45 157.47 90.45 157.45 90.45 157.43 90.44 157.41 90.44 157.39 90.43 157.36 90.42 157.34 90.42 157.32 90.41 157.3 90.4 157.28 90.39 157.26 90.38 157.24 90.37 157.22 90.36 157.2 90.35 157.18 90.34 157.16 90.32 157.14 90.31 157.12 90.3 157.1 90.29 157.08 90.28 157.06 90.27 157.04 90.25 157.02 90.24 157 90.23 156.98 90.23 156.96 90.22 156.94 90.22 156.91 90.22 156.89 90.21 156.87 90.2 156.85 90.2 156.83 90.2 156.79 90.18 156.76 90.17 156.74 90.16 156.72 90.15 156.7 90.15 156.68 90.15 156.65 90.14 156.63 90.13 156.61 90.12 156.59 90.11 156.57 90.1 156.55 90.09 156.53 90.09 156.51 90.08 156.48 90.07 156.46 90.06 156.44 90.06 156.42 90.05 156.39 90.05 156.37 90.05 156.35 90.04 156.33 90.03 156.3 90.04 156.29 90.01 156.22 89.98 156.18 89.96 156.18 89.89 156.23 89.7 156.37 89.52 156.5 89.4 156.58 89.39 156.59 89.38 156.59 89.36 156.6 89.34 156.61 89.33 156.61 89.31 156.63 89.3 156.63 89.28 156.64 89.25 156.65 89.21 156.68 89.18 156.7 89.12 156.73 89.04 156.77 88.92 156.8 88.86 156.82 88.85 156.78 88.87 156.63 89.12 154.64 87.72 152.75 87.04 151.83 87.75 151.25 88.06 150.99 89.54 149.58 89.56 149.57 89.86 149.05 90.19 148.8 92.31 149.34 93.07 148.7 93.5 148.24 93.69 148.09 94.1 148.06 94.22 147.83 94.21 147.75 94.18 147.56 94.19 147.36 94.24 147.1 94.64 147.07 95.36 146.54 95.54 146.67 96.26 146.76 96.43 146.69 96.67 146.67 96.71 146.61 96.88 146.5 97.54 146.08 99.15 145.13 99.63 144.9 100.49 144.48 101.95 144.73 104.03 143.81 106.17 144.45 107.75 143.81 108.92 145.45 111.11 145.54 111.52 145.39 112.64 144.95 113.91 143.97 114.16 143.81 114.25 143.91 114.4 143.98 114.55 144.11 114.77 144.23 114.97 144.3 115.21 144.35 115.42 144.34 115.77 144.27 116.03 144.31 116.59 143.99 117.09 143.66 117.17 143.52 117.22 143.1 117.54 143.15 117.76 143.28 117.85 143.36 118.08 143.42 118.41 143.43 118.68 143.4 119.9 143.66 119.84 142.88 119.94 142.63 120.73 142 120.94 140.48 121.26 139.67 Z"/>
</g></svg>