<svg xmlns="http://www.w3.org/2000/svg" version="1.2" baseProfile="tiny" stroke-linecap="round" stroke-linejoin="round" viewBox="669.42 266.72 30.23 27.52"><g xmlns="http://www.w3.org/2000/svg" id="Gorza">
<path d="M 671.06 279.81 671.21 279.84 671.4 279.87 671.62 279.91 671.87 279.95 672.02 279.99 672.21 280.02 672.39 280.05 672.58 280.09 672.82 280.14 673.05 280.18 673.12 280.19 673.13 280.19 673.28 280.21 673.44 280.24 673.49 280.27 673.53 280.3 673.56 280.31 673.61 280.33 673.69 280.37 673.8 280.42 673.89 280.45 674.02 280.48 674.11 280.5 674.22 280.53 674.35 280.55 674.5 280.58 674.65 280.61 674.78 280.63 674.92 280.67 675.05 280.69 675.17 280.72 675.34 280.77 675.55 280.84 675.72 280.87 675.91 280.9 676.09 280.94 676.12 280.96 676.26 281.01 676.38 281.06 676.51 281.1 676.61 281.12 676.72 281.14 676.75 281.1 676.79 281.07 676.84 281.04 676.9 281 676.92 280.99 676.95 280.97 676.96 280.96 677 280.94 677.04 280.9 677.07 280.85 677.08 280.83 677.1 280.8 677.14 280.76 677.22 280.69 677.28 280.65 677.39 280.61 677.46 280.59 677.54 280.58 677.59 280.59 677.63 280.6 677.68 280.62 677.74 280.63 677.76 280.64 677.81 280.63 677.88 280.62 677.93 280.61 677.98 280.59 678.08 280.53 678.21 280.46 678.27 280.42 678.54 280.27 678.59 280.24 678.86 280.09 678.94 280.04 679.2 280.13 679.26 280.15 679.28 280.15 679.42 280.2 679.58 280.26 679.74 280.31 679.83 280.34 680.02 280.4 680.2 280.46 680.22 280.47 680.49 280.55 680.69 280.61 680.73 280.63 681.19 280.78 681.23 280.79 681.26 280.8 681.35 280.83 681.43 280.85 681.7 280.83 681.74 280.9 681.8 280.97 681.84 281 681.93 281.06 682 281.1 682.03 281.11 682.05 281.11 682.07 281.11 682.28 281.08 682.56 281.04 682.69 281.01 682.77 281 682.84 280.98 682.86 280.97 682.87 280.97 683.07 280.92 683.08 280.92 683.1 280.91 683.27 280.85 683.35 280.83 683.47 280.79 683.56 280.76 683.59 280.75 683.69 280.71 683.76 280.69 683.81 280.67 683.82 280.67 683.88 280.65 683.93 280.63 683.95 280.62 684.02 280.6 684.07 280.58 684.09 280.37 684.12 280.07 684.13 280 684.14 279.9 684.35 279.78 684.48 279.72 684.64 279.64 684.96 279.48 684.98 279.46 685.18 279.47 685.37 279.47 685.39 279.47 685.42 279.47 685.43 279.47 685.46 279.46 685.52 279.46 685.53 279.46 686.09 279.44 686.14 279.43 686.36 279.42 686.64 279.41 687.2 279.38 687.24 279.38 687.39 279.38 687.63 279.37 687.65 279.28 687.68 279.12 687.7 279.03 687.71 278.95 687.73 278.87 687.75 278.8 687.77 278.66 687.79 278.57 687.81 278.51 687.82 278.49 687.83 278.48 687.84 278.46 687.87 278.44 687.87 278.43 687.91 278.4 687.97 278.33 688.04 278.27 688.08 278.23 688.11 278.2 688.13 278.18 688.13 278.16 688.15 278.1 688.17 278.03 688.18 278.02 688.18 278.01 688.2 277.99 688.25 277.93 688.36 277.8 688.54 277.77 688.72 277.74 688.89 277.86 689.17 278.06 689.19 277.99 689.25 277.8 689.36 277.46 689.37 277.44 689.4 277.42 689.5 277.34 689.52 277.31 689.7 277.16 689.84 277.05 689.91 276.99 690.15 276.79 690.33 276.8 690.47 276.68 690.65 276.69 690.85 276.69 690.98 276.56 691.24 276.32 691.31 276.26 691.23 276.22 691.1 276.13 691.03 276.02 690.92 275.84 690.78 275.63 690.78 275.62 690.78 275.54 690.77 275.4 690.77 275.39 690.77 275.36 690.77 275.27 690.77 275.2 690.63 275.22 690.58 275.1 690.53 274.99 690.5 274.91 690.53 274.85 690.53 274.84 690.57 274.75 690.62 274.64 690.6 274.62 690.54 274.52 690.48 274.41 690.46 274.37 690.44 274.33 690.4 274.23 690.37 274.17 690.35 274.11 690.32 274.01 690.3 273.93 690.3 273.9 690.29 273.83 690.29 273.7 690.29 273.67 690.29 273.65 690.3 273.62 690.32 273.6 690.36 273.55 690.38 273.53 690.4 273.51 690.41 273.51 690.49 273.54 690.68 273.6 690.8 273.58 690.87 273.64 690.9 273.67 690.99 273.74 691.22 273.52 691.25 273.48 691.32 273.45 691.37 273.4 691.43 273.35 691.49 273.31 691.51 273.29 691.53 273.28 691.56 273.26 691.61 273.3 691.72 273.38 691.78 273.44 691.82 273.52 691.88 273.65 691.9 273.69 691.93 273.73 691.97 273.77 692 273.8 692.01 273.81 692.06 273.85 692.1 273.88 692.17 273.92 692.25 273.96 692.31 273.99 692.33 274 692.44 274.04 692.57 274.09 692.69 274.13 692.7 274.13 692.8 274.17 692.89 274.21 692.92 274.19 692.98 274.16 693.12 274.06 693.28 273.97 693.33 273.93 693.39 273.89 693.47 273.84 693.52 273.81 693.57 273.77 693.62 273.73 693.7 273.66 693.8 273.57 693.9 273.48 694 273.38 694.05 273.33 694.06 273.32 694.08 273.28 694.12 273.22 694.16 273.15 694.2 273.08 694.24 273.03 694.32 272.89 694.35 272.83 694.39 272.76 694.54 272.48 694.56 272.44 694.58 272.42 694.58 272.41 694.61 272.37 694.63 272.34 694.65 272.31 694.68 272.27 694.69 272.26 694.72 272.21 694.74 272.19 694.75 272.18 694.76 272.17 694.78 272.15 694.83 272.11 694.87 272.08 694.97 271.99 695.05 271.94 695.12 271.89 695.2 271.81 695.25 271.78 695.28 271.76 695.37 271.74 695.47 271.72 695.58 271.7 695.69 271.67 695.71 271.66 695.72 271.66 695.73 271.65 695.75 271.63 695.77 271.6 695.79 271.58 695.85 271.59 695.96 271.61 696.1 271.63 696.16 271.54 696.17 271.53 696.24 271.41 696.28 271.36 696.31 271.31 696.36 271.24 696.4 271.16 696.44 271.11 696.46 271.08 696.47 271.04 696.48 271.01 696.5 270.96 696.53 270.83 696.54 270.76 696.55 270.66 696.55 270.59 696.55 270.54 696.56 270.37 696.56 270.35 696.56 270.19 696.54 269.84 696.54 269.79 696.53 269.75 696.48 269.51 696.44 269.31 696.38 269.03 696.33 268.84 696.32 268.8 696.31 268.73 696.28 268.61 696.25 268.45 696.24 268.41 696.21 268.2 696.18 268.02 696.19 268.01 696.24 268 696.26 268 696.51 267.97 696.57 267.96 696.6 267.95 696.66 267.95 696.68 267.87 696.7 267.76 696.72 267.68 696.73 267.63 696.74 267.6 696.75 267.58 696.77 267.57 696.79 267.54 696.82 267.51 696.84 267.49 696.87 267.48 696.89 267.46 696.92 267.45 696.95 267.43 696.99 267.41 697.08 267.37 697.19 267.31 697.2 267.3 697.27 267.26 697.29 267.25 697.35 267.21 697.52 267.12 697.68 267.02 697.84 266.93 697.99 266.85 698.17 266.74 698.19 266.73 698.26 266.84 698.35 266.94 698.45 267.08 698.53 267.19 698.6 267.28 698.69 267.4 698.79 267.52 698.89 267.65 699 267.8 699.07 267.89 699.15 267.99 699.25 268.12 699.37 268.27 699.37 268.44 699.37 268.62 699.38 268.84 699.37 268.93 699.37 268.98 699.35 269.13 699.34 269.23 699.34 269.29 699.37 269.46 699.37 269.48 699.4 269.63 699.42 269.77 699.44 269.88 699.45 269.9 699.48 270.06 699.5 270.19 699.51 270.22 699.53 270.35 699.54 270.37 699.57 270.52 699.59 270.64 699.6 270.67 699.61 270.77 699.63 270.86 699.59 271.01 699.55 271.15 699.5 271.36 699.43 271.5 699.42 271.51 699.42 271.52 699.41 271.54 699.33 271.7 699.27 271.83 699.12 272.14 699 272.24 698.88 272.34 698.73 272.47 698.59 272.58 698.45 272.7 698.31 272.81 698.16 272.93 697.95 273.1 697.8 273.23 697.65 273.36 697.49 273.49 697.35 273.6 697.25 273.68 697.22 273.72 697.12 273.83 697.03 273.92 696.89 274.06 696.83 274.11 696.78 274.17 696.68 274.26 696.58 274.35 696.48 274.46 696.47 274.47 696.46 274.47 696.37 274.56 696.38 274.69 696.39 274.85 696.4 274.95 696.43 275.06 696.45 275.18 696.48 275.3 696.49 275.36 696.53 275.46 696.58 275.57 696.59 275.59 696.6 275.62 696.47 275.79 696.34 275.96 696.24 276.08 696.13 276.23 696.09 276.28 696.03 276.35 696.01 276.39 695.93 276.49 695.96 276.57 695.97 276.61 696 276.71 696 276.73 696.01 276.75 696.05 276.88 696.1 277.04 696.12 277.1 696.15 277.22 696.17 277.27 696.12 277.36 696.09 277.42 696.06 277.49 696.02 277.58 695.95 277.73 695.92 277.79 695.92 277.81 695.89 277.86 695.84 277.98 695.82 278.02 695.81 278.05 695.75 278.17 695.74 278.19 695.71 278.25 695.64 278.37 695.57 278.49 695.49 278.62 695.41 278.75 695.4 278.85 695.39 278.93 695.37 279.03 695.36 279.07 695.36 279.14 695.35 279.18 695.34 279.31 695.33 279.44 695.32 279.58 695.31 279.73 695.3 279.84 695.29 279.96 695.28 280.06 695.28 280.07 695.28 280.07 695.28 280.16 695.26 280.28 695.25 280.4 695.24 280.51 695.24 280.53 695.23 280.68 695.21 280.82 695.2 280.99 695.18 281.14 695.17 281.27 695.16 281.44 695.14 281.6 695.13 281.76 695.12 281.85 695.11 281.93 695.1 282.07 695.1 282.12 695.13 282.22 695.16 282.31 695.18 282.37 695.2 282.43 695.21 282.47 695.26 282.6 695.2 282.74 695.17 282.82 695.16 282.85 695.14 282.89 695.11 282.96 695.1 282.99 695.06 283.04 695.02 283.09 694.98 283.14 694.94 283.2 694.93 283.21 694.91 283.24 694.89 283.29 694.86 283.34 694.82 283.4 694.79 283.46 694.76 283.5 694.75 283.54 694.72 283.6 694.7 283.65 694.69 283.7 694.67 283.75 694.66 283.78 694.64 283.89 694.63 283.95 694.62 283.99 694.62 284.02 694.61 284.04 694.61 284.1 694.61 284.14 694.61 284.17 694.61 284.2 694.64 284.3 694.65 284.34 694.66 284.36 694.7 284.43 694.7 284.44 694.74 284.51 694.76 284.55 694.7 284.71 694.67 284.8 694.59 284.98 694.52 285.14 694.47 285.26 694.47 285.27 694.39 285.46 694.37 285.59 694.3 285.74 694.22 285.88 694.2 285.92 694.17 285.97 694.13 286.04 694.06 286.13 694.06 286.14 694.04 286.15 694.03 286.18 694.02 286.23 694.02 286.25 694.01 286.38 694.01 286.45 694.01 286.48 693.89 286.53 693.7 286.61 693.66 286.63 693.47 286.72 693.43 286.74 693.41 286.75 693.35 286.78 693.24 286.83 693.21 286.85 693.09 286.91 692.96 286.97 692.8 287.04 692.65 287.1 692.49 287.16 692.47 287.17 692.45 287.17 692.43 287.18 692.41 287.19 692.31 287.22 692.25 287.24 692.14 287.28 692.13 287.28 692.06 287.37 692.01 287.42 692.01 287.43 692.02 287.57 692 287.86 692 287.87 692 287.89 691.99 288.06 691.99 288.11 691.98 288.17 691.99 288.23 691.99 288.26 692 288.3 692.02 288.47 692.04 288.66 692.06 288.81 692.08 288.94 692.1 289.08 692.1 289.12 692.11 289.21 692.13 289.32 692.14 289.41 692.14 289.45 692.14 289.47 692.14 289.51 692.14 289.61 692.14 289.63 692.14 289.64 692.13 289.8 692.13 289.95 692.12 290.12 692.12 290.15 692.11 290.18 692.08 290.24 692.07 290.26 692.01 290.36 691.98 290.43 691.95 290.5 691.94 290.51 691.86 290.67 691.8 290.78 691.75 290.87 691.63 291.1 691.59 291.18 691.47 291.02 691.44 290.97 691.39 290.92 691.29 290.78 691.23 290.71 691.17 290.62 691.11 290.54 691.05 290.46 691 290.39 690.95 290.43 690.88 290.47 690.81 290.51 690.73 290.56 690.66 290.61 690.54 290.68 690.47 290.72 690.4 290.77 690.32 290.82 690.29 290.83 690.19 290.85 690.11 290.86 690.04 290.88 689.99 290.89 689.91 290.9 689.86 290.92 689.81 290.92 689.74 290.93 689.7 290.95 689.63 290.94 689.54 290.94 689.44 290.94 689.35 290.94 689.26 291 689.17 291.07 689.13 291.11 689.08 291.14 689.06 291.15 689 291.17 688.92 291.19 688.85 291.21 688.81 291.16 688.74 291.07 688.67 290.98 688.6 290.89 688.58 290.86 688.49 290.72 688.43 290.61 688.35 290.64 688.26 290.68 688.11 290.73 688.05 290.82 687.98 290.91 687.95 290.94 687.89 291.04 687.84 291.06 687.72 291.13 687.65 291.17 687.57 291.21 687.51 291.25 687.46 291.29 687.44 291.3 687.4 291.33 687.34 291.37 687.28 291.41 687.2 291.48 687.13 291.52 687.12 291.53 687.02 291.61 686.94 291.66 687.02 291.79 686.96 291.86 686.86 291.97 686.77 292.07 686.71 292.13 686.57 292.19 686.52 292.22 686.37 292.28 686.23 292.34 686.07 292.41 685.93 292.47 685.79 292.53 685.7 292.56 685.64 292.59 685.58 292.61 685.5 292.65 685.44 292.68 685.33 292.73 685.26 292.75 685.18 292.78 685.08 292.84 685.03 292.86 684.97 292.88 684.91 292.9 684.81 292.95 684.75 292.97 684.7 293 684.65 293.03 684.61 293.05 684.59 293.06 684.54 293.08 684.49 293.11 684.42 293.15 684.37 293.18 684.31 293.21 684.26 293.24 684.22 293.24 684.16 293.26 684.04 293.28 683.99 293.29 683.98 293.29 683.95 293.3 683.87 293.32 683.79 293.33 683.73 293.34 683.66 293.35 683.61 293.36 683.54 293.38 683.47 293.4 683.42 293.42 683.38 293.43 683.33 293.45 683.28 293.46 683.22 293.48 683.18 293.5 683.15 293.5 683.07 293.53 682.99 293.55 682.89 293.59 682.83 293.61 682.71 293.62 682.55 293.63 682.46 293.64 682.39 293.65 682.29 293.65 682.24 293.66 682.18 293.67 682.08 293.7 682.02 293.72 681.9 293.77 681.81 293.8 681.7 293.84 681.59 293.88 681.49 293.9 681.41 293.93 681.29 293.96 681.18 293.99 681.13 294 681.04 294.03 680.94 294.05 680.81 294.09 680.69 294.12 680.59 294.15 680.53 294.17 680.52 294.17 680.39 294.21 680.35 294.21 680.38 294.16 680.44 294.1 680.52 294 680.58 293.92 680.64 293.85 680.73 293.72 680.8 293.64 680.75 293.63 680.7 293.62 680.61 293.59 680.52 293.55 680.42 293.51 680.36 293.49 680.31 293.47 680.25 293.44 680.19 293.42 680.13 293.39 680.09 293.37 680.04 293.35 679.96 293.33 679.9 293.31 679.85 293.28 679.81 293.27 679.79 293.26 679.71 293.23 679.67 293.2 679.61 293.16 679.52 293.11 679.47 293.08 679.39 293.04 679.3 292.98 679.27 292.97 679.24 292.95 679.17 292.92 679.11 292.89 679.05 292.86 679 292.84 678.95 292.83 678.89 292.82 678.83 292.8 678.82 292.8 678.76 292.78 678.71 292.77 678.66 292.76 678.62 292.76 678.56 292.75 678.5 292.75 678.48 292.75 678.43 292.76 678.38 292.77 678.34 292.77 678.29 292.78 678.25 292.79 678.21 292.8 678.18 292.81 678.15 292.82 678.11 292.84 678.1 292.85 678.05 292.87 678.01 292.88 677.96 292.9 677.93 292.91 677.88 292.91 677.85 292.92 677.82 292.92 677.75 292.91 677.69 292.9 677.65 292.89 677.64 292.89 677.61 292.88 677.55 292.86 677.52 292.84 677.51 292.84 677.5 292.83 677.47 292.81 677.44 292.78 677.41 292.75 677.38 292.73 677.34 292.72 677.31 292.71 677.3 292.71 677.27 292.71 677.23 292.71 677.2 292.71 677.16 292.7 677.12 292.7 677.09 292.71 677.07 292.71 677.04 292.72 677.03 292.72 677.01 292.73 676.98 292.74 676.9 292.78 676.84 292.8 676.83 292.74 676.81 292.68 676.79 292.59 676.77 292.48 676.75 292.37 676.73 292.25 676.72 292.17 676.7 292.1 676.68 292.02 676.66 291.96 676.64 291.92 676.64 291.89 676.63 291.82 676.61 291.77 676.6 291.73 676.58 291.72 676.57 291.71 676.54 291.68 676.49 291.65 676.43 291.61 676.37 291.57 676.32 291.54 676.28 291.51 676.24 291.48 676.19 291.44 676.14 291.41 676.09 291.38 676.05 291.36 676.03 291.39 675.99 291.42 675.9 291.49 675.89 291.5 675.87 291.52 675.84 291.55 675.81 291.55 675.77 291.55 675.7 291.56 675.69 291.56 675.6 291.58 675.58 291.58 675.53 291.59 675.45 291.61 675.37 291.63 675.3 291.65 675.23 291.67 675.2 291.69 675.19 291.69 675.11 291.74 675.03 291.78 674.96 291.82 674.89 291.85 674.87 291.86 674.81 291.9 674.8 291.9 674.75 291.93 674.72 291.95 674.68 291.97 674.63 292.01 674.54 292.08 674.48 292.12 674.45 292.15 674.41 292.19 674.37 292.25 674.32 292.31 674.27 292.38 674.2 292.46 674.18 292.5 674.15 292.53 674.13 292.56 674.12 292.57 674.09 292.61 674.05 292.67 674.02 292.56 674 292.47 674 292.46 674 292.44 673.99 292.4 673.97 292.3 673.94 292.16 673.91 292.05 673.88 291.92 673.83 291.87 673.78 291.83 673.76 291.81 673.71 291.76 673.63 291.69 673.58 291.64 673.57 291.62 673.49 291.56 673.42 291.49 673.36 291.44 673.31 291.39 673.24 291.32 673.22 291.3 673.16 291.25 673.12 291.21 673.08 291.18 673.04 291.14 672.99 291.09 672.95 291.05 672.9 291 672.88 290.98 672.85 290.95 672.8 290.89 672.74 290.84 672.69 290.79 672.64 290.75 672.6 290.72 672.59 290.71 672.55 290.68 672.53 290.66 672.52 290.65 672.51 290.64 672.47 290.6 672.44 290.56 672.39 290.5 672.36 290.45 672.33 290.41 672.29 290.38 672.27 290.35 672.25 290.32 672.19 290.26 672.15 290.21 672.11 290.17 672.07 290.13 672.02 290.11 672.01 290.11 671.99 290.1 671.97 290.09 671.93 290.05 671.88 290.01 671.83 289.97 671.79 289.94 671.77 289.91 671.76 289.9 671.73 289.87 671.69 289.84 671.66 289.82 671.66 289.81 671.63 289.78 671.61 289.75 671.57 289.71 671.52 289.67 671.49 289.64 671.46 289.61 671.41 289.58 671.37 289.57 671.32 289.56 671.27 289.56 671.24 289.56 671.16 289.56 671.11 289.55 671.09 289.55 671.06 289.53 671.01 289.49 670.95 289.44 670.9 289.39 670.87 289.34 670.8 289.26 670.8 289.25 670.79 289.24 670.79 289.23 670.77 289.2 670.77 289.19 670.75 289.15 670.75 289.12 670.74 289.09 670.74 289.09 670.73 288.99 670.72 288.93 670.7 288.87 670.69 288.79 670.68 288.74 670.67 288.7 670.66 288.66 670.65 288.62 670.64 288.58 670.61 288.53 670.58 288.49 670.56 288.46 670.54 288.44 670.5 288.39 670.48 288.36 670.46 288.34 670.44 288.3 670.43 288.27 670.41 288.23 670.38 288.17 670.34 288.1 670.32 288.04 670.29 287.98 670.29 287.97 670.28 287.95 670.28 287.92 670.27 287.89 670.26 287.85 670.24 287.8 670.21 287.73 670.18 287.66 670.15 287.58 670.13 287.52 670.11 287.46 670.09 287.4 670.07 287.36 670.04 287.31 670.04 287.31 670.01 287.27 669.97 287.21 669.93 287.15 669.89 287.1 669.86 287.06 669.81 287 669.76 286.94 669.71 286.87 669.66 286.81 669.63 286.75 669.6 286.71 669.59 286.67 669.57 286.63 669.55 286.58 669.53 286.54 669.53 286.53 669.54 286.5 669.56 286.46 669.57 286.43 669.57 286.38 669.57 286.31 669.59 286.22 669.6 286.16 669.61 286.11 669.62 286.04 669.64 285.97 669.65 285.93 669.64 285.9 669.62 285.86 669.6 285.83 669.6 285.81 669.58 285.75 669.56 285.7 669.56 285.67 669.57 285.63 669.57 285.61 669.58 285.56 669.59 285.51 669.61 285.43 669.61 285.35 669.6 285.3 669.58 285.23 669.56 285.18 669.54 285.12 669.51 285.05 669.48 284.98 669.47 284.94 669.46 284.93 669.45 284.88 669.44 284.82 669.43 284.76 669.43 284.69 669.43 284.63 669.43 284.55 669.43 284.52 669.43 284.5 669.45 284.47 669.47 284.45 669.51 284.43 669.56 284.41 669.6 284.39 669.64 284.36 669.65 284.35 669.66 284.34 669.68 284.31 669.7 284.26 669.71 284.18 669.71 284.12 669.71 284.09 669.73 284.04 669.73 284.02 669.74 283.99 669.75 283.95 669.76 283.88 669.76 283.79 669.76 283.72 669.76 283.66 669.82 283.66 669.89 283.67 669.94 283.67 670 283.68 670.06 283.68 670.12 283.69 670.17 283.69 670.27 283.7 670.31 283.71 670.38 283.72 670.44 283.73 670.51 283.74 670.57 283.76 670.63 283.77 670.65 283.77 670.69 283.78 670.73 283.79 670.75 283.79 670.79 283.81 670.84 283.82 670.88 283.84 670.92 283.87 670.97 283.89 671.02 283.92 671.08 283.94 671.13 283.97 671.23 284.01 671.31 284.05 671.38 284.08 671.45 284.11 671.51 284.14 671.58 284.16 671.62 284.09 671.65 284.03 671.7 283.94 671.72 283.89 671.75 283.83 671.79 283.78 671.83 283.72 671.88 283.67 671.94 283.6 671.98 283.54 671.97 283.52 671.95 283.48 671.91 283.42 671.86 283.34 671.82 283.27 671.81 283.23 671.81 283.21 671.81 283.18 671.82 283.16 671.86 283.16 671.92 283.15 671.98 283.14 672.04 283.13 672.1 283.13 672.17 283.13 672.22 283.12 672.27 283.12 672.31 283.12 672.36 283.12 672.42 283.12 672.45 283.12 672.49 283.11 672.54 283.1 672.59 283.08 672.65 283.07 672.71 283.05 672.76 283.04 672.82 283.02 672.88 283 672.92 282.98 672.97 282.97 673 282.96 673.05 282.93 673.09 282.91 673.12 282.87 673.12 282.86 673.14 282.81 673.16 282.77 673.16 282.76 673.17 282.74 673.17 282.73 673.19 282.67 673.2 282.64 673.2 282.63 673.21 282.58 673.22 282.56 673.22 282.54 673.23 282.51 673.24 282.46 673.25 282.41 673.26 282.34 673.26 282.32 673.25 282.31 673.23 282.29 673.21 282.28 673.18 282.25 673.12 282.2 673.05 282.13 673 282.1 672.99 282.09 672.95 282.05 672.9 282.01 672.84 281.96 672.83 281.95 672.78 281.91 672.72 281.86 672.67 281.82 672.61 281.77 672.56 281.72 672.49 281.66 672.46 281.64 672.44 281.62 672.39 281.58 672.34 281.55 672.28 281.5 672.23 281.47 672.18 281.44 672.17 281.43 672.13 281.41 672.09 281.38 672.04 281.35 672 281.32 671.96 281.29 671.88 281.23 671.85 281.21 671.81 281.17 671.78 281.15 671.76 281.11 671.72 281.05 671.69 281 671.64 280.94 671.58 280.88 671.52 280.82 671.48 280.78 671.45 280.75 671.42 280.73 671.41 280.72 671.37 280.67 671.33 280.63 671.29 280.58 671.25 280.53 671.2 280.48 671.16 280.43 671.15 280.4 671.15 280.4 671.12 280.34 671.09 280.27 671.07 280.22 671.05 280.18 671.03 280.15 671.03 280.12 671.03 280.1 671.03 280.06 671.03 280.02 671.03 280.01 671.05 279.88 671.06 279.81 Z"/>
</g></svg>