<svg xmlns="http://www.w3.org/2000/svg" version="1.2" baseProfile="tiny" stroke-linecap="round" stroke-linejoin="round" viewBox="724.13 130.25 17.12 15.83"><g xmlns="http://www.w3.org/2000/svg" id="Gotaine-Irabarne">
<path d="M 724.86 134.23 725.29 134.17 725.32 134.15 725.38 134.12 725.44 134.1 725.58 134.05 725.73 134.01 726.02 133.94 726.04 133.93 726.06 133.93 726.09 133.91 726.16 133.86 726.22 133.81 726.33 133.69 726.41 133.59 726.49 133.47 726.57 133.34 726.62 133.24 726.65 133.18 726.71 133.06 726.76 132.99 726.83 132.92 726.9 132.83 727 132.74 727.15 132.61 727.3 132.49 727.43 132.38 727.52 132.31 727.63 132.24 727.69 132.19 727.79 132.14 727.83 132.12 727.87 132.11 727.89 132.09 727.94 132.04 728.02 132 728.06 131.99 728.11 131.99 728.16 131.97 728.21 131.92 728.29 131.85 728.34 131.82 728.43 131.77 728.51 131.71 728.55 131.69 728.57 131.65 728.59 131.57 728.62 131.51 728.66 131.46 728.71 131.41 728.78 131.33 728.85 131.26 728.88 131.22 728.96 131.14 728.99 131.12 729.04 131.03 729.05 130.99 729.05 130.97 729.06 130.94 729.1 130.87 729.15 130.78 729.2 130.7 729.22 130.63 729.23 130.59 729.27 130.53 729.33 130.48 729.38 130.45 729.42 130.38 729.46 130.32 729.48 130.25 730.23 130.44 730.32 130.46 730.38 130.47 730.43 130.48 730.51 130.48 730.57 130.49 730.61 130.52 730.65 130.55 730.7 130.58 730.75 130.62 730.8 130.65 730.84 130.66 730.89 130.67 730.94 130.66 730.97 130.65 731.02 130.66 731.09 130.68 731.14 130.69 731.19 130.7 731.23 130.72 731.27 130.75 731.35 130.78 731.41 130.8 731.45 130.83 731.48 130.87 731.51 130.89 731.55 130.91 731.61 130.93 731.67 130.95 731.71 130.98 731.76 131 731.8 131.03 731.86 131.07 731.9 131.11 731.95 131.15 732 131.19 732.06 131.24 732.03 131.3 732.06 131.3 732.12 131.28 732.21 131.25 732.33 131.21 732.51 131.15 732.87 131.21 733.16 131.11 733.34 131.1 733.27 131.4 733.45 131.47 733.42 131.6 733.75 131.63 733.75 131.67 733.76 131.71 733.76 131.74 733.75 131.77 733.76 131.82 733.77 131.89 733.78 131.98 733.79 132.01 733.81 132.04 733.86 132.07 733.92 132.1 733.95 132.14 733.98 132.19 733.99 132.25 734.01 132.31 734.03 132.39 734.04 132.44 734.05 132.54 734.05 132.58 734.05 132.63 734.06 132.74 734.06 132.82 734.05 132.89 734.04 133.01 734.03 133.15 734.03 133.23 734.31 133.62 734.38 133.63 734.43 133.58 734.48 133.59 734.68 133.89 734.77 133.96 735 134.03 735.19 133.97 735.3 133.96 735.51 134.02 735.71 134.33 735.74 134.39 735.87 134.53 735.92 134.49 736.02 134.41 736.16 134.33 736.17 134.32 736.27 134.25 736.37 134.18 736.47 134.12 736.7 134.17 736.89 134.04 737.06 133.97 737.36 133.97 737.54 134.04 737.75 134.28 737.84 134.35 737.88 134.5 737.98 134.58 738.83 135.03 739.62 135.46 739.87 135.55 740.18 135.68 740.24 135.7 740.31 135.74 740.39 135.78 740.47 135.81 740.52 135.82 740.6 135.84 740.67 135.85 740.77 136.11 741.11 136.57 741.1 136.6 741.09 136.65 741.07 136.72 741.06 136.76 741.04 136.77 741.21 136.94 741.25 137.1 740.51 137.14 739.77 137.19 739.11 137.38 738.96 137.49 738.87 137.56 738.54 138.1 738.34 138.27 738.69 139.16 738.79 139.54 738.53 139.52 738.35 139.52 738.35 139.53 738.34 139.58 738.33 139.62 738.33 139.65 738.32 139.69 738.31 139.74 738.3 139.79 738.29 139.84 738.28 139.86 738.27 139.9 738.25 139.94 738.22 139.96 738.1 140.14 738.25 140.19 738.31 140.51 738.13 140.55 737.68 140.81 737.44 140.98 737.08 141.22 736.73 141.47 735.69 142.04 735.11 142.45 734.54 142.86 733.99 143.21 733.95 143.22 733.9 143.24 733.86 143.26 733.82 143.27 733.77 143.28 733.72 143.28 733.67 143.28 733.61 143.28 733.56 143.28 733.5 143.28 733.45 143.28 733.4 143.29 733.35 143.3 733.29 143.32 733.24 143.33 733.19 143.34 733.13 143.34 733.08 143.32 733.02 143.31 732.98 143.3 732.91 143.3 732.87 143.29 732.81 143.28 732.76 143.28 732.68 143.27 732.63 143.27 732.59 143.29 732.53 143.3 732.5 143.31 732.46 143.31 732.41 143.32 732.36 143.34 732.28 143.37 732.22 143.38 732.18 143.39 732.13 143.39 732.09 143.4 731.99 143.43 731.95 143.44 731.9 143.44 731.88 143.46 731.86 143.48 731.82 143.49 731.79 143.5 731.76 143.5 731.73 143.5 731.68 143.5 731.65 143.5 731.62 143.5 731.59 143.51 731.57 143.53 731.54 143.56 731.5 143.6 731.47 143.61 731.44 143.63 731.41 143.65 731.38 143.67 731.34 143.69 731.3 143.7 731.27 143.7 731.23 143.69 731.19 143.7 731.16 143.7 731.13 143.72 731.1 143.74 731.07 143.77 731.05 143.8 731.04 143.83 731.02 143.9 731.02 143.92 731.01 143.95 731 143.99 731 144.01 730.98 144.03 730.96 144.07 730.95 144.09 730.95 144.12 730.95 144.14 730.95 144.18 730.94 144.19 730.92 144.2 730.91 144.19 730.9 144.19 730.87 144.19 730.85 144.19 730.83 144.2 730.81 144.21 730.78 144.23 730.76 144.25 730.73 144.29 730.7 144.36 730.69 144.4 730.68 144.44 730.68 144.47 730.68 144.5 730.67 144.55 730.66 144.63 730.66 144.66 730.65 144.69 730.64 144.7 730.6 144.71 730.57 144.71 730.54 144.72 730.51 144.71 730.47 144.7 730.44 144.69 730.4 144.69 730.37 144.69 730.34 144.69 730.32 144.7 730.3 144.72 730.29 144.74 730.28 144.77 730.28 144.8 730.28 144.83 730.26 144.86 730.25 144.89 730.24 144.92 730.24 144.96 730.24 144.99 730.25 145.03 730.26 145.07 730.27 145.1 730.28 145.14 730.28 145.18 730.27 145.21 730.25 145.24 730.24 145.25 730.21 145.26 730.19 145.28 730.17 145.3 730.15 145.33 730.13 145.36 730.12 145.39 730.1 145.43 730.09 145.46 730.08 145.49 730.05 145.55 730.03 145.58 730 145.59 729.97 145.63 729.91 145.69 729.89 145.71 729.86 145.75 729.85 145.78 729.85 145.8 729.86 145.87 729.86 145.88 729.85 145.92 729.83 145.94 729.81 145.96 729.77 145.97 729.73 145.97 729.67 145.97 729.64 145.97 729.62 145.98 729.61 146 729.58 146.05 729.57 146.06 729.55 146.07 729.53 146.06 729.52 146.03 729.51 146.02 729.5 145.96 729.47 145.93 729.46 145.93 729.42 145.91 729.36 145.89 729.34 145.89 729.32 145.9 729.28 145.93 729.1 145.76 729.05 145.72 729.03 145.7 728.99 145.67 728.97 145.64 728.96 145.6 728.95 145.56 728.94 145.52 728.93 145.48 728.93 145.44 728.93 145.39 728.93 145.35 728.93 145.33 728.93 145.3 728.92 145.25 728.91 145.21 728.9 145.17 728.89 145.13 728.85 145.11 728.82 145.1 728.78 145.07 728.75 145.04 728.64 145 728.52 144.96 728.48 144.95 728.44 144.95 728.4 144.94 728.34 144.94 728.31 144.94 728.27 144.95 728.24 144.96 728.2 144.98 728.16 144.99 728.11 144.99 728.02 144.99 727.95 144.99 727.87 144.98 727.81 144.97 727.74 144.96 727.69 144.95 727.64 144.93 727.57 144.91 727.53 144.89 727.49 144.85 727.45 144.81 727.42 144.76 727.39 144.7 727.37 144.64 727.35 144.59 727.34 144.54 727.32 144.45 727.31 144.37 727.29 144.31 727.29 144.22 727.31 144.12 727.32 144.02 727.32 143.97 727.32 143.9 727.31 143.85 727.31 143.81 727.32 143.77 727.33 143.68 727.34 143.64 727.08 143.04 727.24 142.46 727.21 142.22 727.01 141.87 726.98 141.66 726.63 141.34 726.44 141.16 726.09 140.94 725.35 140.3 725.28 140.28 725.25 140.27 725.22 140.26 725.18 140.25 725.14 140.25 725.1 140.24 725.07 140.23 725.06 140.22 725 140.19 724.96 140.16 724.92 140.13 724.87 140.09 724.84 140.06 724.98 138.96 724.68 138.55 724.37 138.4 724.36 138.35 724.35 138.3 724.34 138.26 724.32 138.2 724.31 138.15 724.3 138.1 724.29 138.06 724.26 138.02 724.24 137.96 724.22 137.92 724.19 137.85 724.31 137.29 724.33 137.12 724.34 137.08 724.35 137 724.4 136.74 724.44 136.62 724.47 136.56 724.35 136.56 724.44 136.09 724.3 135.83 724.14 135.54 724.14 135.49 724.14 135.44 724.14 135.41 724.14 135.36 724.15 135.32 724.15 135.28 724.16 135.23 724.18 135.19 724.2 135.14 724.24 135.09 724.27 135.04 724.36 134.92 724.42 134.84 724.49 134.75 724.54 134.68 724.59 134.61 724.64 134.54 724.76 134.4 724.86 134.23 Z"/>
</g></svg>