<svg xmlns="http://www.w3.org/2000/svg" version="1.2" baseProfile="tiny" stroke-linecap="round" stroke-linejoin="round" viewBox="429.95 269.7 37.18 26.55"><g xmlns="http://www.w3.org/2000/svg" id="Goñi">
<path d="M 439.51 269.78 439.57 269.8 439.73 269.84 439.92 269.86 440.09 269.87 440.25 269.88 440.51 269.9 440.71 269.89 440.89 269.89 441.08 269.89 441.12 269.9 441.26 269.91 441.28 269.91 441.42 269.93 441.56 269.95 441.75 269.98 441.88 269.98 441.98 269.98 442.07 269.98 442.19 269.97 442.35 269.97 442.43 269.98 442.55 269.99 442.65 270 442.69 270 442.77 270.02 442.86 270.04 443 270.05 443.13 270.06 443.18 270.06 443.25 270.05 443.35 270.05 443.45 270.04 443.54 270.03 443.63 270.01 443.76 269.99 443.87 269.99 443.94 269.98 444.04 269.98 444.17 269.99 444.29 270 444.47 270.01 444.59 270.01 444.63 270 444.68 269.99 444.76 269.96 444.86 269.93 444.97 269.89 445.13 269.85 445.3 269.78 445.42 269.73 445.49 269.72 445.57 269.71 445.61 269.72 445.72 269.75 445.85 269.82 446.1 269.99 446.26 270.1 446.32 270.11 446.38 270.15 446.52 270.27 446.69 270.42 446.82 270.55 446.93 270.66 447.05 270.76 447.17 270.85 447.42 271.02 447.57 271.14 447.62 271.19 447.68 271.27 447.79 271.44 447.87 271.57 447.96 271.69 448.05 271.78 448.18 271.87 448.33 271.98 448.49 272.09 448.65 272.21 448.8 272.32 448.93 272.45 448.99 272.52 449.03 272.59 449.06 272.66 449.07 272.75 449.07 272.88 449.07 273.01 449.07 273.21 449.09 273.34 449.11 273.41 449.16 273.51 449.21 273.6 449.27 273.73 449.37 273.92 449.46 274.09 449.53 274.23 449.55 274.27 449.56 274.3 449.61 274.41 449.63 274.5 449.67 274.63 449.72 274.79 449.78 274.96 449.8 275.05 449.81 275.08 449.84 275.17 449.88 275.28 449.91 275.38 449.94 275.48 449.97 275.58 450.02 275.67 450.06 275.74 450.14 275.85 450.19 275.92 450.22 275.96 450.26 275.97 450.34 276.02 450.45 276.1 450.54 276.19 450.56 276.21 450.59 276.24 450.59 276.25 450.61 276.26 450.63 276.29 450.73 276.37 450.82 276.45 450.88 276.52 450.96 276.62 451.07 276.75 451.14 276.85 451.15 276.88 451.17 276.92 451.18 276.97 451.22 277.15 451.24 277.22 451.28 277.3 451.37 277.39 451.48 277.54 451.55 277.63 451.66 277.78 451.82 278 451.96 278.21 452.13 278.49 452.15 278.61 452.16 278.65 452.2 278.82 452.23 279.01 452.24 279.15 452.25 279.33 452.24 279.55 452.26 279.74 452.27 279.93 452.27 279.95 452.34 279.99 452.63 280.17 453 280.38 453.04 280.41 453.1 280.45 453.19 280.5 453.32 280.56 453.45 280.62 453.55 280.67 453.66 280.71 453.81 280.75 453.92 280.78 454.03 280.82 454.13 280.88 454.23 280.94 454.31 281 454.37 281.06 454.44 281.15 454.52 281.29 454.59 281.44 454.66 281.59 454.73 281.75 454.74 281.8 454.74 281.81 454.62 281.87 454.65 281.99 454.68 282.09 454.69 282.15 454.75 282.22 454.83 282.33 454.88 282.39 454.92 282.43 454.97 282.47 454.99 282.42 455 282.37 455.01 282.33 455.02 282.25 455.04 282.15 455.06 282.06 455.08 282 455.1 281.97 455.13 281.93 455.15 281.91 455.18 281.87 455.2 281.84 455.24 281.8 455.25 281.78 455.29 281.72 455.29 281.72 455.3 281.71 455.31 281.7 455.32 281.68 455.34 281.66 455.35 281.65 455.39 281.63 455.42 281.61 455.49 281.58 455.55 281.54 455.58 281.54 455.6 281.53 455.69 281.53 455.85 281.55 456 281.57 456.05 281.58 456.11 281.6 456.21 281.66 456.32 281.72 456.42 281.76 456.55 281.82 456.65 281.87 456.76 281.92 456.89 281.98 456.99 282.02 457.11 282.08 457.23 282.12 457.32 282.16 457.39 282.17 457.47 282.19 457.56 282.22 457.62 282.23 457.66 282.22 457.72 282.22 457.79 282.21 457.85 282.21 457.9 282.21 457.96 282.22 458.02 282.22 458.07 282.22 458.12 282.21 458.15 282.2 458.22 282.19 458.62 282.17 458.71 282.07 458.84 281.9 458.94 281.78 459.04 281.66 459.14 281.55 459.2 281.47 459.21 281.46 459.33 281.45 459.6 281.4 459.87 281.35 460.15 281.28 460.27 281.25 460.32 281.23 460.42 281.19 460.45 281.17 460.55 281.12 460.65 281.07 460.73 281.02 460.76 281.15 460.92 281.72 461.03 282.13 461.08 282.36 461.13 282.53 461.19 282.71 461.25 282.9 461.32 283.1 461.36 283.24 461.49 283.17 461.66 283.06 461.88 282.96 462.05 282.89 462.22 282.82 462.42 282.71 462.69 282.56 462.91 282.44 463.1 282.33 463.24 282.24 463.41 282.14 463.51 282.09 463.55 282.14 463.64 282.25 463.69 282.32 463.76 282.4 463.89 282.58 464 282.74 464.09 282.84 464.19 282.96 464.3 283.08 464.43 283.2 464.56 283.33 464.68 283.44 464.8 283.54 464.92 283.61 465.07 283.68 465.17 283.73 465.36 283.81 465.56 283.89 465.76 283.95 465.93 283.98 466.05 283.99 466.19 283.98 466.32 283.95 466.49 283.91 466.67 283.84 466.75 283.81 466.81 283.95 466.89 284.12 466.97 284.27 467.06 284.42 467.1 284.49 467.06 284.51 466.9 284.61 466.73 284.7 466.55 284.8 466.39 284.89 466.23 284.98 466.12 285.03 465.97 285.1 465.85 285.17 465.7 285.26 465.59 285.31 465.42 285.39 465.33 285.44 465.15 285.52 465.02 285.59 464.87 285.66 464.75 285.71 464.63 285.75 464.48 285.8 464.27 285.88 464.08 285.95 463.97 286 463.85 286.04 463.73 286.07 463.58 286.11 463.46 286.18 463.33 286.25 463.18 286.33 463.12 286.36 462.98 286.44 462.77 286.57 462.52 286.73 462.36 286.82 462.36 286.9 462.36 287.06 462.35 287.15 462.35 287.17 462.34 287.27 462.33 287.36 462.34 287.47 462.36 287.64 462.37 287.79 462.39 287.89 462.4 287.95 462.44 288 462.48 288.04 462.5 288.07 462.47 288.19 462.45 288.3 462.41 288.44 462.4 288.48 462.37 288.62 462.34 288.76 462.32 288.84 462.32 288.91 462.31 288.93 462.31 288.95 462.3 289 462.27 289.18 462.23 289.19 462.16 289.23 462.08 289.29 462.01 289.33 461.92 289.38 461.83 289.43 461.75 289.51 461.69 289.56 461.64 289.61 461.6 289.63 461.54 289.68 461.49 289.72 461.43 289.77 461.36 289.82 461.3 289.86 461.25 289.91 461.19 289.98 461.11 290.06 461.04 290.13 460.99 290.18 460.91 290.25 460.8 290.34 460.7 290.43 460.63 290.48 460.52 290.58 460.33 290.74 460.13 290.89 459.94 291.04 459.73 291.21 459.5 291.39 459.36 291.51 459.23 291.62 459.09 291.74 459.03 291.8 458.96 291.83 458.89 291.87 458.75 291.93 458.62 292 458.58 292.01 458.69 292.15 458.74 292.26 458.83 292.39 458.89 292.5 458.96 292.61 459.01 292.67 459.07 292.81 459.1 292.86 459.02 292.86 458.87 292.85 458.73 292.85 458.53 292.87 458.35 292.9 458.31 292.9 458.26 292.9 458.19 292.89 458.13 292.87 458.06 292.85 458.02 292.84 457.9 292.84 457.84 292.83 457.76 292.82 457.7 292.8 457.62 292.78 457.58 292.77 457.54 292.76 457.49 292.75 457.44 292.74 457.42 292.73 457.4 292.7 457.36 292.66 457.33 292.63 457.3 292.63 457.27 292.62 457.24 292.61 457.18 292.57 457.13 292.54 457.06 292.51 456.97 292.47 456.86 292.43 456.78 292.42 456.68 292.4 456.6 292.39 456.5 292.38 456.48 292.37 456.43 292.37 456.37 292.38 456.31 292.39 456.25 292.4 456.17 292.44 456.1 292.48 456.13 292.56 456.01 292.63 455.93 292.67 455.86 292.69 455.79 292.71 455.74 292.71 455.68 292.71 455.63 292.68 455.57 292.67 455.51 292.67 455.45 292.69 455.38 292.72 455.31 292.76 455.25 292.79 455.2 292.81 455.15 292.83 455.1 292.83 455.05 292.83 455 292.83 454.94 292.83 454.89 292.81 454.84 292.8 454.79 292.76 454.75 292.72 454.69 292.67 454.63 292.57 454.57 292.47 454.5 292.34 454.44 292.22 454.38 292.12 454.32 291.98 454.26 291.85 454.2 291.7 454.16 291.61 454.14 291.6 454.12 291.6 453.51 291.45 453.5 291.45 453.47 291.57 453.41 291.75 453.35 291.89 453.3 292.01 453.22 292.1 453.12 292.21 453.01 292.36 452.89 292.53 452.81 292.67 452.61 292.67 452.24 292.68 452.14 292.69 451.92 292.69 451.62 292.68 451.32 292.67 451.04 292.66 450.84 292.65 450.55 292.6 450.22 292.53 450.04 292.5 450 292.49 449.98 292.49 449.94 292.48 449.75 292.45 449.71 292.47 449.67 292.48 449.53 292.55 449.52 292.55 449.08 292.71 448.83 292.8 448.62 292.88 448.58 292.93 448.5 293.02 448.29 293.13 447.93 293.31 447.77 293.41 447.6 293.49 447.48 293.58 447.38 293.7 447.29 293.83 447.16 293.95 447.02 294.11 446.93 294.23 446.89 294.34 446.82 294.61 446.82 294.62 446.82 294.63 446.7 294.99 446.52 295.42 446.46 295.66 446.38 295.63 446.29 295.59 446.09 295.49 445.9 295.44 445.8 295.41 445.74 295.34 445.66 295.27 445.58 295.22 445.55 295.2 445.5 295.18 445.46 295.18 445.44 295.17 445.39 295.16 445.35 295.15 445.27 295.16 445.18 295.16 445.09 295.16 445.05 295.16 445.04 295.16 444.89 295.17 444.69 295.19 444.54 295.2 444.46 295.2 444.43 295.2 444.42 295.2 444.34 295.2 444.12 295.18 444.01 295.22 443.99 295.23 443.81 295.32 443.76 295.35 443.74 295.37 443.64 295.42 443.49 295.48 443.31 295.52 443.05 295.55 442.68 295.59 442.67 295.59 442.34 295.66 442.05 295.73 441.83 295.86 441.57 295.99 441.26 296.08 441 296.16 440.77 296.19 440.47 296.23 440.25 296.24 440.22 296.22 440.17 296.18 440.11 296.13 440.01 296.06 439.82 295.97 439.85 295.93 439.87 295.87 439.86 295.81 439.81 295.76 439.73 295.71 439.79 295.65 439.83 295.57 439.83 295.48 439.8 295.35 439.75 295.24 439.64 295.09 439.66 295.04 439.68 294.97 439.58 294.84 439.54 294.79 439.56 294.73 439.62 294.65 439.68 294.56 439.68 294.47 439.7 294.44 439.73 294.39 439.73 294.35 439.65 294.22 439.63 294.15 439.66 294.11 439.7 294.06 439.7 294.01 439.65 293.97 439.62 293.92 439.62 293.84 439.55 293.76 439.55 293.69 439.6 293.58 439.65 293.46 439.67 293.39 439.65 293.35 439.58 293.29 439.56 293.24 439.57 293.19 439.61 293.15 439.68 293.12 439.7 293.07 439.68 293 439.58 292.89 439.44 292.77 439.28 292.84 439.04 292.83 438.59 292.8 438.62 291.39 438.45 291.26 438.33 291.12 438.17 290.91 438.03 290.7 438.03 290.68 438.02 290.68 437.95 290.58 437.84 290.44 437.7 290.26 437.68 290.24 437.58 290.17 437.36 290.03 437.14 289.89 436.95 289.77 436.76 289.68 436.55 289.58 436.41 289.51 436.18 289.41 436.09 289.38 435.98 289.36 435.78 289.33 435.68 289.32 435.64 289.3 435.56 289.27 435.46 289.22 435.36 289.15 435.27 289.08 435.21 289.02 435.14 288.99 435.08 288.96 434.98 288.89 434.88 288.8 434.83 288.7 434.82 288.62 434.84 288.52 434.85 288.43 434.83 288.35 434.74 288.25 434.56 288.1 434.34 287.9 434.12 287.44 433.95 287.24 433.89 287.16 433.67 287.12 433.4 287.13 433.1 287.11 432.83 287.08 432.6 287.06 432.39 287.05 432.22 287.07 432.05 287.09 431.86 287.04 431.7 286.96 431.6 286.87 431.43 286.69 431.31 286.57 431.06 286.33 430.63 285.9 430.32 285.64 430.31 285.55 430.29 285.29 430.28 285.02 430.28 285 430.2 284.6 430.09 284.24 429.96 283.97 429.99 283.85 430.05 283.74 430.13 283.6 430.31 283.3 430.46 283.04 430.49 282.85 430.5 282.83 430.53 282.72 430.62 282.58 430.7 282.47 430.84 282.23 430.94 281.99 431.04 281.77 431.13 281.52 431.19 281.41 431.29 281.29 431.41 281.18 431.53 281.09 431.81 280.93 432.01 280.77 432.05 280.73 432.18 280.62 432.26 280.51 432.33 280.4 432.41 280.3 432.49 280.21 432.6 280.1 432.72 280.01 432.75 279.99 433.27 279.52 433.46 279.38 433.65 279.25 433.69 279.23 433.81 279.16 434 279.09 434.2 279.02 434.44 278.93 434.7 278.81 434.89 278.73 434.96 278.71 435.06 278.58 435.18 278.46 435.15 278.44 435.11 278.37 435.08 278.27 435.03 278.08 434.92 277.82 434.7 277.33 434.54 276.88 434.42 276.56 434.32 276.33 434.26 276.2 434.09 276.02 433.87 275.77 433.82 275.7 433.76 275.41 433.65 274.92 433.57 274.55 433.56 274.52 433.57 274.45 433.6 274.32 433.63 274.22 433.7 274.03 433.82 273.77 433.98 273.4 434.03 273.29 434.2 273.14 434.35 272.99 434.57 273.01 434.78 273 434.95 272.99 435.16 272.97 435.3 272.94 435.42 272.91 435.54 272.87 435.69 272.85 435.88 272.83 436.04 272.82 436.23 272.79 436.38 272.77 436.57 272.73 436.65 272.71 436.72 272.66 436.8 272.64 437.01 272.57 437.17 272.51 437.3 272.48 437.42 272.46 437.47 272.46 437.48 272.46 437.51 272.46 437.59 272.45 437.64 272.42 437.72 272.36 437.85 272.26 438.09 272.03 438.33 271.82 438.45 271.65 438.61 271.46 438.75 271.29 438.9 271.13 439.07 270.94 439.19 270.81 439.2 270.78 439.26 270.6 439.32 270.4 439.39 270.2 439.45 270 439.51 269.78 Z"/>
</g></svg>