<svg xmlns="http://www.w3.org/2000/svg" version="1.2" baseProfile="tiny" stroke-linecap="round" stroke-linejoin="round" viewBox="574.47 59.78 14.58 12.13"><g xmlns="http://www.w3.org/2000/svg" id="Haltsu">
<path d="M 587.22 59.81 587.25 59.86 587.28 59.9 587.3 59.92 587.31 59.92 587.32 59.92 587.34 59.89 587.35 59.86 587.37 59.82 587.4 59.82 587.43 59.82 587.45 59.85 587.46 59.87 587.47 59.88 587.48 59.92 587.48 59.98 587.49 60.01 587.51 60.05 587.53 60.09 587.55 60.1 587.58 60.1 587.61 60.1 587.64 60.1 587.69 60.1 587.73 60.1 587.76 60.12 587.79 60.13 587.79 60.15 587.79 60.19 587.79 60.22 587.79 60.26 587.79 60.29 587.82 60.3 587.85 60.3 587.87 60.31 587.89 60.37 587.9 60.41 587.91 60.45 587.91 60.45 587.95 60.49 587.97 60.51 588 60.53 588.03 60.53 588.07 60.53 588.11 60.54 588.14 60.54 588.17 60.55 588.21 60.56 588.24 60.55 588.28 60.54 588.32 60.51 588.33 60.48 588.31 60.47 588.28 60.46 588.24 60.43 588.24 60.39 588.25 60.39 588.27 60.37 588.3 60.35 588.32 60.36 588.36 60.37 588.39 60.38 588.42 60.4 588.43 60.41 588.46 60.42 588.49 60.44 588.52 60.46 588.56 60.48 588.59 60.47 588.62 60.47 588.62 60.49 588.61 60.49 588.59 60.5 588.58 60.52 588.61 60.56 588.63 60.59 588.66 60.61 588.66 60.64 588.64 60.68 588.66 60.7 588.7 60.71 588.73 60.73 588.76 60.74 588.77 60.76 588.77 60.78 588.76 60.8 588.74 60.81 588.72 60.84 588.69 60.87 588.67 60.89 588.66 60.92 588.66 60.95 588.66 60.97 588.67 61.02 588.69 61.05 588.71 61.08 588.74 61.12 588.77 61.14 588.81 61.16 588.84 61.18 588.85 61.21 588.84 61.22 588.83 61.22 588.8 61.22 588.77 61.22 588.74 61.24 588.72 61.26 588.71 61.29 588.7 61.32 588.68 61.35 588.67 61.38 588.69 61.42 588.67 61.44 588.66 61.47 588.65 61.5 588.63 61.52 588.62 61.56 588.62 61.6 588.6 61.64 588.58 61.67 588.56 61.69 588.53 61.68 588.51 61.64 588.48 61.61 588.47 61.63 588.47 61.66 588.48 61.69 588.49 61.72 588.5 61.76 588.5 61.79 588.5 61.84 588.5 61.87 588.48 61.9 588.47 61.94 588.47 61.97 588.49 62 588.52 62.01 588.56 62.04 588.59 62.05 588.62 62.05 588.65 62.05 588.68 62.07 588.71 62.09 588.75 62.11 588.79 62.11 588.83 62.12 588.85 62.14 588.85 62.14 588.86 62.18 588.88 62.2 588.93 62.19 588.96 62.2 588.97 62.23 588.98 62.26 588.97 62.29 588.96 62.32 588.97 62.36 588.97 62.39 588.98 62.41 589 62.43 589.03 62.44 589.03 62.48 589.04 62.5 589.04 62.52 589.02 62.52 589 62.52 588.98 62.51 588.96 62.48 588.94 62.47 588.93 62.48 588.91 62.48 588.89 62.49 588.85 62.5 588.82 62.51 588.8 62.51 588.77 62.52 588.75 62.52 588.72 62.52 588.71 62.49 588.7 62.47 588.67 62.47 588.65 62.48 588.62 62.47 588.6 62.46 588.57 62.44 588.54 62.41 588.51 62.4 588.49 62.37 588.46 62.36 588.42 62.38 588.4 62.38 588.37 62.37 588.33 62.37 588.28 62.38 588.27 62.39 588.26 62.39 588.22 62.43 588.19 62.42 588.16 62.4 588.14 62.38 588.11 62.39 588.08 62.41 588.05 62.41 588.03 62.41 588 62.41 588 62.44 587.99 62.47 587.96 62.49 587.92 62.51 587.9 62.51 587.87 62.53 587.84 62.54 587.8 62.55 587.75 62.56 587.72 62.58 587.68 62.61 587.67 62.61 587.65 62.63 587.62 62.65 587.59 62.67 587.56 62.68 587.53 62.72 587.52 62.75 587.49 62.76 587.47 62.76 587.45 62.78 587.44 62.8 587.42 62.84 587.4 62.86 587.38 62.87 587.36 62.9 587.35 62.94 587.34 62.97 587.32 63.02 587.3 63.04 587.3 63.07 587.29 63.1 587.26 63.11 587.24 63.14 587.22 63.18 587.2 63.21 587.18 63.25 587.17 63.27 587.14 63.3 587.12 63.33 587.09 63.34 587.07 63.36 587.07 63.39 587.03 63.42 587.01 63.44 587 63.47 587 63.5 586.99 63.52 586.96 63.54 586.94 63.56 586.93 63.56 586.9 63.54 586.86 63.53 586.83 63.53 586.8 63.53 586.77 63.52 586.73 63.51 586.7 63.5 586.67 63.49 586.64 63.5 586.61 63.5 586.58 63.49 586.55 63.48 586.51 63.47 586.48 63.46 586.45 63.45 586.42 63.45 586.39 63.45 586.36 63.44 586.34 63.43 586.3 63.44 586.26 63.43 586.22 63.44 586.21 63.45 586.18 63.45 586.15 63.46 586.13 63.45 586.1 63.44 586.07 63.44 586.04 63.44 586.01 63.44 585.98 63.45 585.96 63.46 585.74 63.53 585.57 63.63 584.98 63.92 584.82 64.04 584.69 64.08 584.73 64.19 584.74 64.21 584.7 64.23 584.65 64.28 584.57 64.33 584.49 64.39 584.46 64.41 584.44 64.42 584.34 64.51 584.25 64.59 584.09 64.72 583.9 64.88 583.88 64.89 583.83 64.93 583.75 65 583.72 65.02 583.62 65.11 583.47 65.23 583.18 65.45 583.14 65.48 583.08 65.53 583.02 65.6 583.01 65.61 582.95 65.7 582.86 65.81 582.77 65.91 582.72 65.96 582.71 65.99 582.7 66 582.67 66.05 582.67 66.06 582.66 66.07 582.65 66.09 582.64 66.11 582.63 66.12 582.62 66.13 582.61 66.15 582.6 66.17 582.57 66.2 582.56 66.22 582.55 66.23 582.53 66.25 582.52 66.27 582.51 66.28 582.51 66.29 582.37 66.47 582.12 66.76 582.13 66.95 582.1 66.99 582.08 67.02 582.06 67.06 582.04 67.11 581.99 67.24 581.94 67.37 581.9 67.48 581.88 67.53 581.67 67.93 581.66 67.97 581.63 68.04 581.62 68.07 581.61 68.1 581.6 68.14 581.6 68.18 581.59 68.23 581.58 68.26 581.55 68.3 581.51 68.36 581.46 68.42 581.43 68.44 581.58 68.63 581.61 69.35 581.57 69.39 581.54 69.44 581.51 69.48 581.49 69.51 581.47 69.55 581.45 69.58 581.42 69.6 581.4 69.64 581.37 69.68 581.36 69.71 581.35 69.75 581.33 69.79 581.33 69.83 581.32 69.86 581.32 69.95 581.32 70.03 581.31 70.06 581.29 70.14 581.22 70.11 581.04 70.1 580.79 70.15 580.21 70.32 580.12 70.34 580.1 70.41 580.08 70.52 580.09 70.58 580.12 70.71 580.11 70.77 580.08 70.88 580.03 70.97 579.95 71 579.82 71.04 579.65 71.12 579.62 71.13 579.5 71.19 579.35 71.29 579.06 71.44 578.83 71.55 578.8 71.57 578.72 71.58 578.61 71.59 578.57 71.6 578.56 71.6 578.45 71.67 578.38 71.71 578.32 71.76 578.24 71.84 578.18 71.88 578.06 71.89 577.97 71.89 577.88 71.88 577.82 71.85 577.78 71.81 577.7 71.77 577.57 71.67 577.5 71.56 577.44 71.46 577.42 71.41 577.38 71.34 577.33 71.23 577.27 71.12 577.17 70.95 577.13 70.8 577.11 70.7 577.02 70.57 576.98 70.38 576.85 70.19 576.73 70.09 576.58 69.97 576.45 69.87 576.31 69.77 576.24 69.7 576.19 69.65 575.99 69.4 575.84 69.2 575.58 68.85 575.38 68.63 575.12 68.36 574.89 68.13 574.73 67.98 574.62 67.88 574.52 67.76 574.49 67.67 574.47 67.62 574.47 67.47 574.47 67.43 574.47 67.16 574.57 66.73 574.58 66.72 574.63 66.53 574.65 66.47 574.72 66.24 574.66 66.17 574.58 66.07 574.62 66.03 574.65 65.99 574.66 65.98 574.68 65.97 574.7 65.96 574.8 65.98 574.8 65.97 574.83 65.94 574.86 65.95 574.88 65.96 574.91 65.97 574.95 65.99 574.98 66.02 575.04 66.07 575.06 66.09 575.07 66.12 575.08 66.16 575.09 66.28 575.1 66.32 575.11 66.35 575.12 66.37 575.13 66.39 575.15 66.41 575.18 66.43 575.21 66.45 575.26 66.47 575.31 66.49 575.35 66.49 575.37 66.5 575.42 66.5 575.47 66.51 575.51 66.52 575.54 66.54 575.57 66.55 575.59 66.56 575.62 66.59 575.7 66.66 575.74 66.71 575.76 66.74 575.78 66.76 575.81 66.79 575.83 66.83 575.86 66.85 575.92 66.89 576 66.93 576.06 66.96 576.13 66.98 576.15 66.98 576.17 66.98 576.19 66.97 576.21 66.96 576.22 66.96 576.24 66.95 576.26 66.92 576.27 66.89 576.28 66.86 576.29 66.85 576.3 66.83 576.32 66.79 576.33 66.78 576.34 66.76 576.37 66.72 576.38 66.71 576.39 66.69 576.4 66.67 576.43 66.65 576.44 66.64 576.45 66.63 576.46 66.62 576.48 66.61 576.49 66.6 576.5 66.59 576.5 66.58 576.51 66.56 576.52 66.52 576.53 66.5 576.55 66.46 576.56 66.44 576.56 66.42 576.57 66.4 576.59 66.38 576.6 66.37 576.61 66.35 576.62 66.33 576.63 66.32 576.65 66.31 576.66 66.29 576.67 66.28 576.68 66.27 576.69 66.26 576.7 66.25 576.71 66.24 576.72 66.23 576.73 66.22 576.75 66.19 576.77 66.17 576.84 66.08 576.84 66.06 576.89 65.99 576.93 65.93 576.94 65.9 577.1 65.74 577.47 65.41 577.6 65.31 577.66 65.25 577.8 65.1 577.92 64.98 578.23 64.69 578.31 64.59 578.5 64.38 578.53 64.34 578.54 64.33 578.58 64.3 578.59 64.29 578.62 64.24 578.63 64.22 578.65 64.19 578.67 64.14 578.68 64.08 578.68 64.05 578.68 64.04 578.68 63.99 578.69 63.92 578.69 63.88 578.7 63.87 578.7 63.85 578.7 63.84 578.71 63.77 578.72 63.72 578.74 63.64 578.75 63.59 578.79 63.49 578.8 63.44 578.83 63.36 578.85 63.33 578.85 63.31 578.89 63.27 578.92 63.22 578.97 63.15 579.02 63.08 579.06 63.04 579.11 62.98 579.15 62.94 579.18 62.91 579.21 62.88 579.25 62.87 579.24 62.89 579.27 62.93 579.28 62.95 579.3 62.98 579.32 63 579.35 63.02 579.37 63.03 579.42 63.04 579.45 63.04 579.48 63.05 579.52 63.05 579.54 63.03 579.55 63 579.57 62.98 579.59 62.97 579.61 62.95 579.63 62.93 579.66 62.91 579.68 62.89 579.7 62.87 579.73 62.85 579.76 62.85 579.79 62.85 579.82 62.85 579.85 62.85 579.89 62.85 579.91 62.84 579.91 62.82 579.92 62.8 579.92 62.78 579.94 62.73 579.96 62.71 579.98 62.68 580 62.65 580.01 62.63 580.03 62.6 580.04 62.56 580.03 62.53 580.02 62.5 580.01 62.47 580 62.43 579.99 62.4 579.96 62.37 579.95 62.34 579.95 62.31 579.97 62.31 579.99 62.29 579.99 62.26 579.99 62.24 579.98 62.21 579.99 62.2 580 62.19 580.02 62.19 580.04 62.19 580.07 62.19 580.09 62.19 580.1 62.15 580.12 62.14 580.12 62.11 580.13 62.08 580.14 62.06 580.16 62.05 580.19 62.05 580.22 62.04 580.25 62.04 580.28 62.03 580.3 62.01 580.31 61.99 580.31 61.96 580.32 61.94 580.34 61.92 580.36 61.9 580.39 61.88 580.42 61.87 580.44 61.87 580.47 61.87 580.49 61.88 580.51 61.87 580.52 61.86 580.55 61.84 580.56 61.84 580.58 61.82 580.61 61.81 580.63 61.81 580.66 61.81 580.68 61.81 580.71 61.82 580.74 61.82 580.76 61.82 580.79 61.83 580.82 61.84 580.84 61.85 580.88 61.87 580.91 61.87 580.94 61.86 580.97 61.84 580.99 61.83 581.02 61.81 581.05 61.78 581.07 61.77 581.09 61.78 581.1 61.78 581.12 61.8 581.14 61.8 581.16 61.77 581.19 61.75 581.21 61.74 581.24 61.73 581.26 61.73 581.27 61.73 581.29 61.75 581.31 61.78 581.32 61.8 581.35 61.8 581.37 61.79 581.4 61.79 581.42 61.79 581.45 61.78 581.48 61.78 581.51 61.78 581.54 61.79 581.56 61.8 581.58 61.81 581.6 61.83 581.61 61.87 581.62 61.89 581.63 61.91 581.66 61.92 581.67 61.92 581.68 61.92 581.7 61.92 581.71 61.91 581.72 61.91 581.73 61.91 581.75 61.9 581.76 61.9 581.76 61.89 581.77 61.89 581.77 61.88 581.78 61.88 581.79 61.87 581.8 61.86 581.8 61.86 581.81 61.85 581.82 61.84 581.83 61.83 581.83 61.83 581.84 61.83 581.85 61.83 581.86 61.83 581.87 61.83 581.87 61.82 581.88 61.82 581.89 61.82 581.9 61.82 581.91 61.82 581.92 61.82 581.94 61.83 581.95 61.83 581.96 61.83 581.96 61.83 581.97 61.83 581.98 61.83 581.99 61.83 582 61.83 582.01 61.83 582.02 61.83 582.03 61.83 582.04 61.83 582.05 61.83 582.06 61.83 582.07 61.82 582.08 61.82 582.09 61.82 582.1 61.82 582.11 61.81 582.12 61.81 582.13 61.81 582.14 61.81 582.15 61.81 582.15 61.79 582.15 61.78 582.15 61.77 582.15 61.76 582.15 61.75 582.15 61.74 582.16 61.73 582.16 61.73 582.16 61.72 582.17 61.71 582.17 61.7 582.17 61.69 582.18 61.68 582.18 61.68 582.19 61.67 582.19 61.66 582.2 61.65 582.2 61.63 582.21 61.62 582.22 61.61 582.22 61.6 582.23 61.59 582.24 61.58 582.24 61.56 582.25 61.55 582.25 61.54 582.26 61.53 582.27 61.52 582.28 61.51 582.28 61.5 582.29 61.48 582.3 61.47 582.31 61.46 582.32 61.45 582.33 61.43 582.34 61.42 582.35 61.4 582.36 61.39 582.37 61.38 582.38 61.37 582.39 61.36 582.41 61.35 582.42 61.35 582.43 61.35 582.45 61.34 582.46 61.34 582.48 61.33 582.49 61.33 582.51 61.33 582.52 61.32 582.54 61.32 582.55 61.31 582.56 61.31 582.57 61.3 582.58 61.3 582.6 61.29 582.61 61.28 582.62 61.28 582.64 61.27 582.66 61.26 582.67 61.25 582.68 61.24 582.69 61.23 582.71 61.22 582.72 61.22 582.73 61.21 582.74 61.2 582.76 61.19 582.77 61.19 582.78 61.18 582.8 61.18 582.82 61.17 582.83 61.17 582.84 61.17 582.85 61.16 582.87 61.15 582.88 61.15 582.89 61.15 582.9 61.15 582.92 61.15 582.93 61.15 582.94 61.16 582.96 61.16 582.97 61.16 582.98 61.16 583 61.17 583.01 61.17 583.02 61.17 583.04 61.18 583.05 61.18 583.06 61.18 583.07 61.19 583.09 61.19 583.1 61.19 583.12 61.2 583.13 61.2 583.14 61.21 583.16 61.22 583.17 61.22 583.18 61.23 583.2 61.23 583.21 61.24 583.21 61.24 583.22 61.25 583.24 61.25 583.25 61.25 583.26 61.26 583.27 61.26 583.29 61.27 583.3 61.27 583.31 61.27 583.33 61.27 583.34 61.27 583.35 61.27 583.36 61.27 583.38 61.27 583.39 61.26 583.4 61.26 583.42 61.26 583.43 61.25 583.45 61.25 583.47 61.24 583.48 61.24 583.49 61.23 583.51 61.23 583.52 61.22 583.53 61.22 583.54 61.21 583.56 61.21 583.57 61.2 583.58 61.2 583.6 61.19 583.62 61.18 583.63 61.18 583.65 61.17 583.66 61.17 583.67 61.16 583.69 61.16 583.7 61.15 583.72 61.15 583.73 61.14 583.75 61.14 583.76 61.13 583.78 61.13 583.79 61.12 583.81 61.12 583.82 61.11 583.84 61.11 583.85 61.1 583.87 61.09 583.88 61.08 583.9 61.08 583.91 61.07 583.93 61.06 583.95 61.05 583.96 61.04 583.98 61.04 583.99 61.03 584.01 61.03 584.03 61.03 584.04 61.02 584.06 61.02 584.07 61.02 584.09 61.01 584.1 61.01 584.12 61.01 584.14 61.01 584.15 61.01 584.17 61.01 584.18 61.01 584.2 61.01 584.21 61.01 584.23 61.02 584.24 61.02 584.26 61.02 584.27 61.02 584.29 61.02 584.31 61.02 584.32 61.02 584.34 61.01 584.36 61.01 584.37 61.01 584.39 61 584.4 61 584.42 61 584.43 60.99 584.44 60.98 584.46 60.97 584.47 60.97 584.5 60.96 584.51 60.96 584.52 60.95 584.54 60.94 584.55 60.94 584.56 60.93 584.57 60.93 584.59 60.93 584.6 60.93 584.61 60.93 584.62 60.93 584.64 60.93 584.66 60.94 584.67 60.94 584.69 60.94 584.7 60.94 584.72 60.95 584.73 60.95 584.75 60.95 584.76 60.95 584.78 60.95 584.79 60.95 584.81 60.95 584.83 60.94 584.84 60.94 584.85 60.94 584.86 60.93 584.87 60.93 584.9 60.93 585.24 60.87 585.47 60.77 585.71 60.66 585.86 60.59 585.91 60.55 585.95 60.53 585.99 60.5 586.03 60.47 586.08 60.44 586.12 60.4 586.17 60.36 586.32 60.24 586.37 60.21 586.42 60.18 586.46 60.15 586.49 60.12 586.53 60.1 586.57 60.07 586.61 60.05 586.64 60.04 586.69 60.02 586.74 60.02 586.77 60.03 586.8 60.04 586.83 60.05 586.86 60.04 586.87 60.04 586.9 60.02 586.97 60.01 587 59.99 587.03 59.97 587.07 59.96 587.1 59.94 587.12 59.9 587.15 59.87 587.18 59.84 587.22 59.81 Z"/>
</g></svg>