<svg xmlns="http://www.w3.org/2000/svg" version="1.2" baseProfile="tiny" stroke-linecap="round" stroke-linejoin="round" viewBox="307.22 298 32.53 31.48"><g xmlns="http://www.w3.org/2000/svg" id="Harana">
<path d="M 335.76 302.66 335.96 302.89 336.05 302.99 336.13 303.11 336.22 303.24 336.29 303.37 336.35 303.48 336.4 303.56 336.47 303.66 336.53 303.78 336.59 303.87 336.66 303.97 336.73 304.07 336.8 304.2 336.86 304.31 336.9 304.43 336.9 304.44 336.91 304.47 336.92 304.48 336.95 304.52 337.01 304.59 337.08 304.68 337.14 304.77 337.2 304.86 337.26 304.92 337.31 305.01 337.34 305.04 337.36 305.1 337.36 305.16 337.36 305.32 337.35 305.43 337.36 305.51 337.37 305.61 337.39 305.72 337.4 305.77 337.4 305.79 337.4 305.8 337.42 305.88 337.43 305.93 337.45 305.99 337.46 306.05 337.49 306.15 337.52 306.26 337.56 306.35 337.59 306.42 337.61 306.48 337.62 306.54 337.64 306.6 337.67 306.68 337.72 306.77 337.74 306.83 337.76 306.89 337.78 306.96 337.81 307.05 337.84 307.16 337.87 307.27 337.88 307.36 337.9 307.46 337.91 307.54 337.91 307.68 337.92 307.76 337.93 307.83 337.94 307.9 337.95 307.97 337.95 307.99 337.96 308.03 337.97 308.1 337.97 308.14 337.99 308.16 338.04 308.18 338.11 308.2 338.17 308.24 338.22 308.27 338.26 308.3 338.3 308.32 338.31 308.33 338.32 308.33 338.34 308.36 338.36 308.39 338.34 308.49 338.26 308.99 338.19 309.37 338.08 309.86 337.96 310.28 337.92 310.39 337.89 310.47 337.85 310.55 337.81 310.61 337.76 310.67 337.72 310.69 337.65 310.72 337.57 310.76 337.49 310.83 337.44 310.88 337.39 310.95 337.36 311.01 337.34 311.06 337.33 311.12 337.32 311.18 337.33 311.24 337.38 311.41 337.41 311.52 337.43 311.62 337.45 311.73 337.46 311.82 337.46 311.88 337.46 311.93 337.42 311.99 337.38 312.06 337.34 312.13 337.31 312.18 337.31 312.2 337.31 312.22 337.33 312.24 337.36 312.26 337.46 312.33 337.72 312.5 337.87 312.61 337.95 312.85 338.03 313.03 338.1 313.22 338.23 313.59 338.31 313.8 338.39 314.05 338.43 314.22 338.48 314.39 338.58 314.72 338.62 314.84 338.67 314.97 338.71 315.07 338.8 315.26 338.88 315.45 338.96 315.65 339.04 315.87 339.1 316.04 339.12 316.11 339.13 316.18 339.13 316.22 339.15 316.39 339.17 316.58 339.19 316.71 339.2 316.84 339.21 316.93 339.21 316.99 339.21 317.04 339.27 317.12 339.4 317.27 339.52 317.4 339.66 317.56 339.73 317.65 339.74 317.66 339.66 317.72 339.54 317.82 339.48 317.87 339.28 318.04 339.2 318.1 339.07 318.21 338.9 318.34 338.7 318.51 338.46 318.71 338.36 318.79 338.2 318.77 337.98 318.76 337.68 318.74 337.45 318.73 337.16 318.78 336.81 318.84 336.47 318.89 336.1 318.92 335.69 318.95 335.34 318.96 335.11 318.97 334.93 319.1 334.92 319.11 334.78 319.21 334.62 319.33 334.43 319.51 334.18 319.73 333.96 319.94 333.91 319.99 333.83 320.05 333.75 320.09 333.65 320.13 333.53 320.17 333.39 320.21 333.2 320.26 333.01 320.32 332.82 320.37 332.74 320.4 332.65 320.43 332.56 320.47 332.45 320.52 332.35 320.57 332.12 320.68 331.97 320.74 331.83 320.79 331.71 320.83 331.59 320.88 331.46 320.92 331.33 320.95 331.2 320.97 331.06 321 330.94 321.03 330.86 321.05 330.76 321.08 330.56 321.14 330.45 321.18 330.34 321.2 330.21 321.22 330.03 321.22 329.85 321.23 329.73 321.23 329.63 321.23 329.55 321.24 329.48 321.24 329.43 321.25 329.4 321.26 329.38 321.27 329.35 321.29 329.24 321.37 329.15 321.45 329.08 321.49 328.74 321.57 328.37 321.66 328.17 321.57 328.08 321.53 328 321.51 327.84 321.49 327.65 321.47 327.35 321.58 327.04 321.73 326.96 321.63 326.92 321.57 326.62 321.51 326.57 321.5 326.52 321.51 326.42 321.6 326.22 321.76 326.1 321.88 326.08 321.89 325.66 320.48 325.32 320.51 324.83 320.74 324.21 321.02 323.35 321.14 322.4 321.22 322.1 320.9 321.79 320.69 321.36 320.74 320.87 320.98 320.27 321.37 319.53 321.84 318.96 322.48 318.54 323.07 318.14 323.7 317.7 324.15 317.65 324.49 317.73 324.84 318.15 325.12 318.47 325.09 318.87 325.12 319.04 325.38 318.95 325.87 318.8 326.46 318.66 327.04 318.43 327.91 318.14 328.52 317.8 329.04 317.45 329.45 317.21 329.36 317.02 328.89 316.81 328.09 316.64 327.33 316.27 326.78 316.01 326.58 315.59 326.43 315.28 326.18 315.13 326.22 314.81 326.2 314.66 325.75 314.49 324.62 314.38 324.44 313.89 324.29 313.41 324.04 313.35 323.58 313.33 323.13 313.22 322.7 313.1 322.4 312.98 322.49 312.86 322.76 312.69 323.2 312.28 323.11 311.95 322.69 311.75 322.16 311.46 321.77 311.14 321.31 310.83 320.84 310.64 320.54 310.35 320.49 310.03 320.56 309.62 320.74 309.38 321.02 309.14 321.63 308.95 322.16 308.74 322.72 308.52 323.16 308.19 323.42 307.82 323.44 308.02 323.21 308.32 322.57 308.41 322.12 308.46 321.54 308.71 321.29 309.15 320.97 309.35 320.52 309.12 319.68 308.87 318.93 308.72 318.39 308.61 317.79 308.42 317.57 308.21 317.62 307.89 317.84 307.55 317.82 307.23 317.51 307.26 317.11 307.54 316.63 308.03 316.05 308.31 315.57 308.38 315.23 308.33 314.69 308.69 314.63 308.98 314.57 309.2 314.29 309.23 314.01 309.18 313.75 309.12 313.61 309.26 313.58 309.59 313.57 310.04 312.98 310.27 312.93 310.8 313.03 311.23 312.98 311.46 312.72 311.7 312.44 312.06 312.27 312.4 311.96 312.69 311.58 312.95 311.24 313.3 310.85 313.46 310.31 313.96 310.58 314.61 310.77 314.97 310.62 315.51 310.4 316.04 310.3 316.58 310.21 317.1 310.03 318.12 309.56 318.38 309.25 318.53 308.88 318.77 308.74 319.31 308.93 319.93 308.88 320.25 308.72 320.57 308.32 320.75 307.91 321.01 307.56 321.4 307.36 321.69 307.17 321.95 306.34 322.13 305.68 322.58 305.29 323.12 305.13 323.6 305.23 324.15 305.47 324.79 305.57 325.66 305.86 326.71 306.26 327.12 306.22 327.61 306.2 328.31 306.36 328.78 306.31 328.89 306 328.74 305.59 328.53 305.04 328.37 304.33 328.16 303.49 327.4 302.51 326.86 301.92 326.14 301.07 325.66 300.5 325.25 299.86 325.15 299.41 325.05 299.09 324.81 298.84 324.65 298.52 324.75 298.28 325.08 298.2 325.57 298.38 325.96 298.31 326.41 298.22 326.95 298.45 327.36 298.71 327.67 298.84 327.87 298.74 327.81 298.45 327.77 298.14 328.01 298.01 328.33 298.27 328.71 298.61 329.17 298.75 329.75 298.85 330.23 298.96 330.78 299.21 331.38 299.7 332.07 300.1 332.56 300.46 333.23 301.09 333.65 301.64 334.3 302.39 334.87 302.72 335.47 302.72 335.75 302.67 335.76 302.66 Z"/>
</g></svg>