<svg xmlns="http://www.w3.org/2000/svg" version="1.2" baseProfile="tiny" stroke-linecap="round" stroke-linejoin="round" viewBox="586.5 40.92 40.75 40.37"><g xmlns="http://www.w3.org/2000/svg" id="Hazparne">
<path d="M 626.12 43.06 626.13 43.08 626.16 43.1 626.17 43.11 626.18 43.12 626.19 43.14 626.21 43.16 626.23 43.18 626.24 43.2 626.26 43.2 626.27 43.21 626.29 43.2 626.3 43.2 626.31 43.19 626.33 43.18 626.35 43.18 626.37 43.17 626.38 43.17 626.4 43.17 626.43 43.18 626.45 43.18 626.48 43.18 626.51 43.17 626.53 43.17 626.55 43.17 626.57 43.17 626.59 43.16 626.6 43.17 626.62 43.17 626.64 43.18 626.66 43.19 626.68 43.19 626.7 43.2 626.72 43.21 626.74 43.22 626.75 43.23 626.76 43.25 626.77 43.26 626.77 43.28 626.77 43.32 626.77 43.35 626.77 43.37 626.77 43.4 626.77 43.43 626.76 43.46 626.76 43.48 626.77 43.51 626.77 43.53 626.77 43.55 626.78 43.56 626.8 43.57 626.81 43.59 626.83 43.6 626.85 43.61 626.86 43.62 626.9 43.64 626.92 43.65 626.95 43.65 626.97 43.65 626.99 43.65 627.01 43.66 627.03 43.66 627.05 43.66 627.06 43.66 627.08 43.68 627.09 43.69 627.1 43.7 627.11 43.72 627.11 43.74 627.11 43.76 627.11 43.78 627.11 43.8 627.11 43.81 627.11 43.83 627.11 43.84 627.12 43.85 627.13 43.86 627.14 43.87 627.15 43.88 627.16 43.89 627.18 43.9 627.19 43.91 627.21 43.92 627.22 43.94 627.24 43.96 627.25 43.97 627.25 43.98 627.25 44 627.25 44.02 627.24 44.05 627.23 44.06 627.22 44.07 627.21 44.09 627.19 44.1 627.18 44.11 627.17 44.12 627.15 44.12 627.13 44.12 627.12 44.13 627.09 44.13 627.07 44.14 627.05 44.14 627.04 44.14 627.01 44.14 626.98 44.14 626.96 44.15 626.94 44.15 626.93 44.16 626.92 44.17 626.89 44.2 626.88 44.22 626.87 44.23 626.86 44.24 626.84 44.27 626.82 44.29 626.79 44.34 626.78 44.35 626.76 44.37 626.76 44.38 626.75 44.39 626.74 44.41 626.72 44.42 626.71 44.44 626.7 44.46 626.7 44.47 626.7 44.49 626.7 44.5 626.7 44.53 626.7 44.53 626.71 44.54 626.71 44.55 626.73 44.56 626.74 44.57 626.76 44.57 626.79 44.56 626.81 44.56 626.82 44.56 626.84 44.56 626.86 44.56 626.88 44.56 626.89 44.57 626.91 44.58 626.92 44.58 626.94 44.61 626.95 44.62 626.97 44.64 626.97 44.66 626.97 44.67 626.96 44.69 626.94 44.7 626.93 44.7 626.92 44.7 626.9 44.7 626.88 44.7 626.86 44.69 626.84 44.69 626.83 44.7 626.81 44.7 626.78 44.72 626.77 44.73 626.76 44.74 626.75 44.76 626.75 44.77 626.75 44.8 626.76 44.81 626.76 44.82 626.77 44.83 626.78 44.84 626.79 44.84 626.8 44.84 626.83 44.84 626.85 44.85 626.86 44.86 626.87 44.87 626.87 44.88 626.87 44.9 626.87 44.91 626.86 44.93 626.85 44.95 626.84 44.97 626.84 44.98 626.84 45 626.83 45.03 626.82 45.06 626.82 45.07 626.81 45.09 626.79 45.11 626.78 45.12 626.76 45.14 626.75 45.16 626.74 45.17 626.72 45.18 626.7 45.18 626.68 45.19 626.65 45.2 626.63 45.21 626.6 45.22 626.57 45.24 626.55 45.25 626.54 45.25 626.53 45.24 626.52 45.24 626.52 45.23 626.51 45.22 626.5 45.2 626.49 45.19 626.47 45.2 626.46 45.2 626.45 45.22 626.44 45.23 626.43 45.24 626.41 45.25 626.4 45.26 626.38 45.27 626.36 45.26 626.34 45.26 626.32 45.27 626.3 45.27 626.29 45.27 626.28 45.21 626.24 45.14 626.2 45.1 626.18 45.08 626.16 45.06 626.15 45.06 626.14 45.05 626.18 44.97 626.08 44.87 626.04 44.85 625.99 44.82 625.95 44.78 625.93 44.76 625.88 44.73 625.84 44.71 625.81 44.69 625.79 44.67 625.74 44.64 625.71 44.61 625.68 44.6 625.64 44.58 625.61 44.57 625.57 44.56 625.53 44.55 625.51 44.55 625.49 44.54 625.48 44.54 625.45 44.54 625.43 44.53 625.42 44.53 625.4 44.52 625.38 44.51 625.36 44.51 625.35 44.51 625.33 44.51 625.3 44.51 625.25 44.52 625.2 44.53 625.14 44.52 625.13 44.52 625.09 44.54 625.05 44.56 625.01 44.59 624.96 44.61 624.91 44.63 624.88 44.65 624.87 44.66 624.82 44.67 624.77 44.69 624.73 44.71 624.69 44.72 624.64 44.73 624.6 44.76 624.58 44.77 624.43 44.78 624.21 44.85 624.07 44.97 624.07 45 624.03 44.99 624.03 45.02 623.9 45.14 623.91 45.16 623.87 45.19 623.75 45.29 623.5 45.54 623.49 45.56 623.49 45.57 623.49 45.58 623.48 45.59 623.48 45.6 623.48 45.61 623.49 45.63 623.48 45.63 623.45 45.67 623.44 45.7 623.43 45.71 623.42 45.72 623.4 45.74 623.39 45.76 623.36 45.8 623.34 45.83 623.31 45.87 623.29 45.9 623.26 45.93 623.23 45.96 623.2 45.98 623.19 45.99 623.16 46.02 623.13 46.04 623.11 46.05 623.08 46.07 623.04 46.09 623 46.11 622.98 46.13 622.95 46.16 622.92 46.19 622.89 46.22 622.87 46.24 622.83 46.28 622.81 46.3 622.77 46.34 622.75 46.37 622.72 46.4 622.71 46.41 622.69 46.44 622.67 46.47 622.64 46.51 622.62 46.54 622.6 46.58 622.58 46.61 622.56 46.65 622.55 46.68 622.53 46.71 622.51 46.74 622.49 46.77 622.48 46.78 622.45 46.82 622.43 46.85 622.4 46.88 622.38 46.93 622.36 46.96 622.35 46.98 622.34 47.02 622.33 47.03 622.33 47.06 622.32 47.11 622.31 47.17 622.3 47.21 622.29 47.23 622.28 47.27 622.27 47.3 622.26 47.33 622.24 47.36 622.21 47.41 622.18 47.42 622.15 47.44 622.12 47.46 622.09 47.47 622.05 47.49 622.02 47.51 621.99 47.54 621.96 47.56 621.94 47.6 621.92 47.63 621.9 47.66 621.88 47.69 621.86 47.71 621.83 47.74 621.8 47.77 621.77 47.79 621.75 47.82 621.73 47.85 621.71 47.87 621.69 47.92 621.67 47.94 621.66 47.95 621.64 47.99 621.61 48.01 621.59 48.03 621.55 48.06 621.53 48.07 621.52 48.09 621.48 48.1 621.44 48.12 621.4 48.13 621.36 48.16 621.32 48.17 621.3 48.18 621.28 48.18 621.23 48.2 621.18 48.21 621.13 48.24 621.1 48.27 621.07 48.3 621.05 48.32 621.04 48.33 621.01 48.35 620.96 48.37 620.9 48.39 620.85 48.41 620.8 48.42 620.74 48.42 620.68 48.43 620.66 48.44 620.63 48.45 620.6 48.46 620.58 48.47 620.57 48.47 620.54 48.49 620.51 48.51 620.49 48.54 620.46 48.57 620.42 48.61 620.39 48.65 620.36 48.69 620.34 48.74 620.28 48.85 620.24 48.93 620.21 48.98 620.2 49.01 620.18 49.04 620.17 49.06 620.16 49.1 620.15 49.13 620.15 49.16 620.15 49.18 620.14 49.21 620.14 49.24 620.14 49.27 620.13 49.3 620.12 49.32 620.1 49.35 620.08 49.39 620.05 49.42 620.02 49.46 619.99 49.51 619.99 49.51 619.97 49.55 619.93 49.62 619.9 49.66 619.88 49.71 619.86 49.77 619.85 49.82 619.84 49.86 619.83 49.89 619.8 49.92 619.77 49.96 619.72 50.03 619.67 50.09 619.64 50.13 619.61 50.18 619.59 50.23 619.58 50.28 619.57 50.34 619.56 50.37 619.55 50.41 619.55 50.45 619.54 50.49 619.54 50.57 619.54 50.62 619.55 50.65 619.55 50.67 619.58 50.72 619.6 50.76 619.61 50.77 619.62 50.79 619.63 50.82 619.64 50.92 619.64 51.05 619.64 51.17 619.63 51.37 619.62 51.43 619.61 51.48 619.58 51.53 619.56 51.6 619.55 51.63 619.54 51.69 619.52 51.74 619.51 51.77 619.5 51.81 619.49 51.82 619.49 51.84 619.46 51.88 619.44 51.93 619.42 51.98 619.42 52 619.41 52.05 619.4 52.12 619.41 52.18 619.42 52.24 619.45 52.32 619.45 52.33 619.46 52.35 619.47 52.4 619.48 52.45 619.49 52.51 619.51 52.6 619.53 52.66 619.54 52.67 619.55 52.7 619.56 52.74 619.58 52.8 619.58 52.84 619.58 52.89 619.57 52.91 619.56 52.94 619.54 52.97 619.51 53.04 619.5 53.06 619.48 53.11 619.43 53.25 619.41 53.33 619.4 53.34 619.38 53.39 619.35 53.43 619.31 53.48 619.27 53.52 619.22 53.56 619.17 53.6 619.15 53.62 619.14 53.63 619.11 53.67 619.08 53.72 619.04 53.76 619.01 53.81 618.98 53.83 618.95 53.9 618.93 53.94 618.92 54 618.9 54.07 618.89 54.14 618.88 54.21 618.88 54.26 618.89 54.33 618.9 54.42 618.9 54.44 618.9 54.51 618.91 54.59 618.91 54.66 618.91 54.71 618.91 54.73 618.91 54.78 618.9 54.84 618.87 54.91 618.82 55.03 618.76 55.18 618.65 55.42 618.58 55.59 618.54 55.68 618.53 55.71 618.51 55.74 618.48 55.79 618.43 55.83 618.42 55.83 618.41 55.85 618.36 55.9 618.31 55.93 618.3 55.95 618.24 56 618.19 56.03 618.15 56.06 618.11 56.08 618.08 56.09 618.04 56.11 618 56.14 617.96 56.16 617.93 56.19 617.91 56.22 617.88 56.26 617.84 56.31 617.81 56.36 617.77 56.41 617.74 56.45 617.71 56.49 617.68 56.54 617.65 56.59 617.63 56.63 617.6 56.68 617.57 56.72 617.55 56.78 617.52 56.83 617.47 56.91 617.45 56.95 617.42 56.99 617.39 57.02 617.37 57.05 617.33 57.13 617.32 57.15 617.32 57.15 617.3 57.19 617.27 57.22 617.25 57.26 617.24 57.29 617.23 57.33 617.24 57.38 617.24 57.42 617.24 57.46 617.23 57.5 617.22 57.54 617.2 57.59 617.18 57.64 617.16 57.69 617.12 57.8 617.09 57.87 617.08 57.88 617.05 57.95 617.01 58 616.98 58.04 616.97 58.05 616.96 58.07 616.93 58.11 616.88 58.22 616.8 58.36 616.8 58.37 616.76 58.46 616.74 58.48 616.7 58.55 616.66 58.62 616.63 58.67 616.61 58.7 616.54 58.78 616.48 58.86 616.43 58.93 616.37 59.01 616.34 59.03 616.32 59.06 616.3 59.12 616.26 59.2 616.22 59.28 616.11 59.73 616.02 60.08 616.01 60.26 616 60.41 615.99 60.59 615.85 60.9 615.87 60.91 615.95 60.93 616 60.96 616.04 60.98 616.06 61 616.07 61.03 616.08 61.07 616.08 61.1 616.07 61.11 616.06 61.13 616.05 61.16 616.05 61.19 616.04 61.23 616.05 61.25 616.05 61.26 616.08 61.29 616.11 61.31 616.14 61.34 616.16 61.35 616.18 61.38 616.21 61.39 616.24 61.4 616.27 61.41 616.3 61.41 616.33 61.42 616.35 61.43 616.38 61.44 616.41 61.46 616.44 61.46 616.48 61.47 616.49 61.47 616.53 61.48 616.56 61.48 616.59 61.49 616.61 61.49 616.63 61.5 616.65 61.49 616.69 61.48 616.73 61.48 616.75 61.47 616.78 61.48 616.8 61.5 616.83 61.51 616.86 61.54 616.89 61.55 616.91 61.57 616.94 61.57 616.99 61.56 617 61.56 617.1 61.54 617.11 61.54 617.16 61.53 617.21 61.52 617.26 61.52 617.3 61.51 617.36 61.5 617.4 61.5 617.4 61.5 617.45 61.5 617.48 61.51 617.52 61.51 617.56 61.51 617.6 61.51 617.62 61.52 617.66 61.51 617.72 61.5 617.79 61.49 617.85 61.47 617.89 61.46 617.94 61.46 617.98 61.46 618.03 61.45 618.08 61.44 618.11 61.43 618.14 61.42 618.16 61.41 618.18 61.4 618.21 61.38 618.26 61.38 618.31 61.36 618.37 61.35 618.43 61.33 618.5 61.31 618.55 61.3 618.58 61.29 618.6 61.28 618.68 61.26 618.74 61.25 618.81 61.23 618.86 61.22 618.93 61.21 618.98 61.2 619.03 61.2 619.08 61.2 619.13 61.22 619.18 61.25 619.23 61.27 619.25 61.28 619.31 61.31 619.36 61.33 619.41 61.35 619.45 61.37 619.52 61.4 619.57 61.42 619.64 61.5 619.81 61.52 619.85 61.56 620 61.71 620.06 61.91 620.04 62.01 620.03 62.08 620.01 62.13 620 62.18 619.99 62.22 619.98 62.26 619.97 62.29 619.96 62.32 619.96 62.35 619.96 62.38 619.96 62.41 619.98 62.44 619.99 62.47 620 62.49 620.01 62.52 620.03 62.54 620.03 62.55 620.04 62.57 620.05 62.59 620.07 62.61 620.07 62.62 620.14 62.77 620.12 62.78 620.11 62.79 620.1 62.8 620.08 62.81 620.07 62.82 620.05 62.84 620.04 62.85 620.03 62.86 620.03 62.88 620.03 62.89 620.03 62.91 620.03 62.92 620.03 62.94 620.04 62.95 620.05 62.96 620.07 62.97 620.08 62.98 620.1 63 620.11 63.01 620.13 63.02 620.14 63.03 620.15 63.04 620.16 63.05 620.17 63.07 620.18 63.08 620.18 63.1 620.18 63.11 620.18 63.13 620.17 63.15 620.17 63.17 620.16 63.18 620.15 63.2 620.15 63.21 620.15 63.23 620.15 63.25 620.15 63.26 620.15 63.28 620.16 63.3 620.16 63.31 620.17 63.33 620.18 63.35 620.19 63.36 620.21 63.38 620.22 63.39 620.23 63.41 620.24 63.42 620.25 63.43 620.26 63.45 620.27 63.46 620.29 63.48 620.3 63.49 620.31 63.5 620.33 63.51 620.34 63.52 620.35 63.53 620.36 63.54 620.37 63.55 620.38 63.55 620.39 63.56 620.41 63.57 620.42 63.58 620.44 63.59 620.45 63.6 620.47 63.61 620.48 63.62 620.5 63.64 620.51 63.65 620.52 63.66 620.53 63.68 620.54 63.69 620.55 63.7 620.55 63.72 620.55 63.73 620.54 63.75 620.54 63.77 620.53 63.79 620.52 63.8 620.51 63.82 620.5 63.84 620.48 63.86 620.47 63.88 620.46 63.89 620.45 63.9 620.44 63.92 620.44 63.93 620.43 63.94 620.42 63.95 620.42 63.97 620.41 63.98 620.41 64 620.41 64.02 620.4 64.04 620.4 64.05 620.39 64.07 620.38 64.09 620.36 64.1 620.35 64.12 620.33 64.14 620.32 64.15 620.3 64.17 620.29 64.19 620.27 64.2 620.25 64.22 620.23 64.23 620.22 64.25 620.2 64.26 620.18 64.28 620.16 64.3 620.14 64.31 620.12 64.32 620.11 64.33 620.1 64.35 620.09 64.36 620.08 64.38 620.08 64.39 620.08 64.41 620.09 64.42 620.09 64.44 620.1 64.46 620.11 64.48 620.13 64.5 620.14 64.51 620.16 64.52 620.18 64.53 620.2 64.53 620.22 64.54 620.24 64.54 620.26 64.55 620.28 64.55 620.3 64.55 620.32 64.55 620.34 64.55 620.37 64.55 620.39 64.55 620.41 64.55 620.42 64.55 620.44 64.55 620.46 64.55 620.48 64.55 620.49 64.56 620.51 64.57 620.52 64.58 620.53 64.6 620.54 64.62 620.55 64.65 620.56 64.66 620.56 64.68 620.56 64.7 620.57 64.72 620.57 64.74 620.58 64.76 620.58 64.78 620.58 64.8 620.59 64.82 620.59 64.84 620.6 64.86 620.61 64.88 620.62 64.9 620.63 64.91 620.64 64.93 620.65 64.94 620.67 64.95 620.68 64.97 620.68 64.98 620.69 65 620.7 65.02 620.7 65.04 620.71 65.06 620.72 65.08 620.73 65.1 620.74 65.12 620.76 65.13 620.77 65.15 620.78 65.16 620.78 65.16 620.79 65.18 620.8 65.19 620.82 65.21 620.83 65.22 620.84 65.23 620.86 65.25 620.87 65.26 620.89 65.28 620.9 65.29 620.92 65.3 620.93 65.31 620.95 65.32 620.96 65.34 620.98 65.35 620.99 65.36 621.01 65.37 621.02 65.39 621.04 65.4 621.05 65.42 621.06 65.43 621.07 65.44 621.08 65.46 621.08 65.48 621.09 65.5 621.09 65.51 621.09 65.53 621.09 65.55 621.09 65.57 621.08 65.59 621.08 65.61 621.07 65.62 621.07 65.63 621.07 65.65 621.06 65.66 621.04 65.66 621.03 65.66 621.01 65.66 620.99 65.66 620.97 65.65 620.96 65.64 620.94 65.63 620.93 65.62 620.91 65.6 620.89 65.58 620.88 65.56 620.87 65.55 620.85 65.54 620.84 65.52 620.83 65.51 620.81 65.51 620.8 65.51 620.78 65.51 620.76 65.52 620.75 65.53 620.72 65.55 620.7 65.56 620.69 65.58 620.67 65.59 620.66 65.6 620.64 65.62 620.62 65.63 620.6 65.64 620.59 65.65 620.57 65.66 620.55 65.66 620.53 65.67 620.51 65.68 620.48 65.69 620.47 65.7 620.45 65.71 620.43 65.73 620.42 65.74 620.4 65.75 620.39 65.77 620.37 65.78 620.36 65.8 620.35 65.82 620.34 65.83 620.33 65.86 620.32 65.88 620.32 65.9 620.31 65.92 620.3 65.94 620.29 65.96 620.28 65.98 620.27 65.99 620.26 66.01 620.25 66.03 620.24 66.05 620.23 66.07 620.22 66.1 620.22 66.12 620.21 66.13 620.21 66.15 620.21 66.17 620.21 66.18 620.21 66.19 620.21 66.2 620.22 66.22 620.22 66.24 620.22 66.25 620.22 66.27 620.23 66.29 620.23 66.32 620.23 66.34 620.24 66.36 620.24 66.38 620.24 66.39 620.24 66.41 620.25 66.42 620.25 66.44 620.25 66.45 620.25 66.45 620.25 66.47 620.25 66.49 620.25 66.5 620.25 66.52 620.25 66.54 620.25 66.56 620.25 66.57 620.26 66.59 620.26 66.61 620.27 66.63 620.27 66.65 620.27 66.66 620.28 66.68 620.28 66.69 620.28 66.71 620.28 66.73 620.28 66.75 620.27 66.77 620.27 66.81 620.26 66.84 620.21 66.94 620.2 66.98 620.15 67.08 620.13 67.11 620.11 67.14 620.1 67.16 620.09 67.18 620.08 67.19 620.07 67.21 620.06 67.24 620.05 67.27 620.04 67.29 620.03 67.31 620.01 67.35 620 67.38 619.99 67.41 619.98 67.44 619.98 67.47 619.98 67.5 619.98 67.51 619.98 67.54 619.99 67.57 620 67.6 620.02 67.64 620.04 67.67 620.06 67.69 620.07 67.7 620.1 67.72 620.13 67.74 620.16 67.75 620.19 67.78 620.23 67.8 620.25 67.82 620.29 67.83 620.32 67.84 620.34 67.84 620.38 67.83 620.41 67.81 620.44 67.79 620.47 67.76 620.5 67.72 620.54 67.69 620.67 67.54 620.69 67.51 620.71 67.49 620.73 67.47 620.76 67.44 620.78 67.42 620.8 67.4 620.81 67.38 620.82 67.37 620.83 67.35 620.85 67.32 620.86 67.29 620.87 67.26 620.87 67.24 620.87 67.2 620.88 67.17 620.89 67.15 620.91 67.13 620.93 67.12 620.96 67.11 620.97 67.1 620.99 67.09 621 67.07 621.02 67.05 621.04 67.03 621.06 67.02 621.08 67 621.1 67 621.11 67 621.13 67.01 621.15 67.02 621.16 67.03 621.17 67.04 621.18 67.06 621.19 67.08 621.2 67.1 621.21 67.12 621.22 67.14 621.24 67.17 621.25 67.19 621.28 67.22 621.31 67.24 621.34 67.26 621.37 67.28 621.42 67.32 621.45 67.34 621.46 67.36 621.48 67.37 621.5 67.38 621.52 67.41 621.53 67.43 621.54 67.45 621.55 67.47 621.55 67.49 621.56 67.51 621.56 67.53 621.56 67.55 621.56 67.56 621.55 67.58 621.55 67.61 621.55 67.63 621.55 67.65 621.55 67.67 621.55 67.69 621.55 67.72 621.55 67.74 621.56 67.76 621.57 67.78 621.58 67.79 621.59 67.81 621.61 67.83 621.63 67.85 621.66 67.86 621.69 67.87 621.73 67.89 621.74 67.89 621.77 67.9 621.79 67.91 621.82 67.93 621.85 67.94 621.89 67.95 621.93 67.96 621.96 67.97 621.98 67.98 622 68 622.02 68.01 622.04 68.05 622.05 68.07 622.06 68.11 622.07 68.12 622.09 68.15 622.11 68.17 622.13 68.19 622.14 68.2 622.16 68.22 622.18 68.25 622.2 68.27 622.23 68.29 622.25 68.31 622.27 68.34 622.28 68.36 622.29 68.39 622.3 68.42 622.31 68.43 622.32 68.45 622.33 68.47 622.35 68.49 622.37 68.52 622.39 68.53 622.41 68.55 622.44 68.58 622.47 68.6 622.5 68.62 622.53 68.63 622.55 68.65 622.57 68.66 622.6 68.68 622.63 68.71 622.65 68.72 622.67 68.74 622.68 68.76 622.7 68.77 622.72 68.78 622.75 68.79 622.77 68.8 622.79 68.8 622.82 68.8 622.87 68.8 622.9 68.82 622.91 68.83 622.92 68.84 622.92 68.86 622.92 68.88 622.92 68.89 622.92 68.92 622.91 68.96 622.9 68.99 622.89 69 622.88 69.02 622.87 69.04 622.86 69.06 622.84 69.1 622.83 69.14 622.82 69.16 622.81 69.18 622.8 69.2 622.78 69.24 622.76 69.28 622.74 69.32 622.73 69.34 622.72 69.36 622.7 69.37 622.69 69.4 622.67 69.43 622.65 69.47 622.3 69.5 622.25 69.26 622.16 69.26 622.01 69.18 621.84 69.16 621.78 69.32 621.62 69.3 621.51 69.47 621.44 69.52 621.35 69.84 621.1 70.46 621 70.85 620.98 70.85 620.82 70.79 620.73 70.76 620.58 70.74 620.47 70.95 620.28 70.85 620.26 70.82 620.25 70.79 620.24 70.76 620.23 70.73 620.22 70.72 620.2 70.66 620.19 70.63 620.18 70.62 620.16 70.6 620.13 70.6 620.11 70.6 620.08 70.61 620.06 70.62 620.05 70.64 620.03 70.66 620.02 70.68 620 70.71 619.98 70.73 619.96 70.76 619.94 70.78 619.91 70.8 619.89 70.81 619.86 70.82 619.83 70.84 619.8 70.86 619.76 70.9 619.75 70.91 619.74 70.92 619.73 70.95 619.72 70.97 619.71 70.99 619.7 71.02 619.69 71.04 619.68 71.08 619.68 71.1 619.68 71.12 619.69 71.14 619.7 71.16 619.72 71.18 619.74 71.21 619.76 71.24 619.78 71.26 619.78 71.29 619.78 71.32 619.78 71.33 619.78 71.35 619.77 71.36 619.77 71.38 619.77 71.39 619.76 71.41 619.74 71.44 619.73 71.45 619.72 71.47 619.71 71.49 619.7 71.5 619.68 71.52 619.66 71.54 619.64 71.55 619.63 71.57 619.61 71.58 619.59 71.61 619.56 71.66 619.55 71.68 619.44 71.69 619.38 71.69 619.29 71.69 619.25 71.69 619.18 71.66 619.1 71.65 619.05 71.65 618.98 71.66 618.83 71.65 618.73 71.63 618.56 71.57 618.4 71.52 618.22 71.46 618.08 71.41 617.96 71.38 617.89 71.37 617.86 71.37 617.83 71.38 617.8 71.39 617.76 71.4 617.71 71.41 617.67 71.41 617.63 71.42 617.59 71.42 617.54 71.42 617.47 71.41 617.44 71.42 617.4 71.44 617.38 71.45 617.36 71.46 617.3 71.48 617.25 71.5 617.2 71.52 617.14 71.54 617.07 71.58 617.01 71.6 616.96 71.62 616.86 71.66 616.79 71.68 616.74 71.7 616.7 71.72 616.66 71.74 616.63 71.75 616.62 71.75 616.54 71.78 616.51 71.79 616.48 71.81 616.47 71.82 616.45 71.84 616.43 71.87 616.41 71.92 616.39 71.95 616.36 71.98 616.34 72.01 616.3 72.04 616.27 72.04 616.25 72.03 616.23 72.01 616.21 71.99 616.18 71.98 616.15 71.96 616.13 71.95 616.11 71.92 616.1 71.89 616.09 71.87 616.07 71.84 616.05 71.82 616.03 71.81 615.99 71.81 615.95 71.81 615.91 71.83 615.87 71.84 615.83 71.85 615.79 71.86 615.71 71.89 615.59 71.95 615.55 71.97 615.5 72 615.48 72.01 615.46 72.02 615.41 72.05 615.37 72.07 615.36 72.09 615.32 72.12 615.3 72.14 615.27 72.16 615.25 72.18 615.24 72.21 615.23 72.24 615.22 72.27 615.22 72.29 615.22 72.33 615.21 72.36 615.2 72.39 615.2 72.4 615.2 72.44 615.2 72.47 615.2 72.5 615.2 72.53 615.2 72.57 615.2 72.59 615.2 72.61 615.2 72.64 615.2 72.68 615.19 72.73 615.18 72.76 615.18 72.8 615.17 72.83 615.17 72.86 615.16 72.91 615.15 72.93 615.15 72.96 615.14 73 615.13 73.02 615.13 73.04 615.12 73.06 615.11 73.09 615.11 73.12 615.1 73.15 615.09 73.19 615.08 73.22 615.07 73.23 615.06 73.25 615.04 73.26 615.03 73.27 615.02 73.29 615.01 73.31 615.01 73.32 615 73.35 615 73.39 615 73.41 615 73.45 615.01 73.48 615.01 73.51 615.03 73.55 615.04 73.58 615.06 73.62 615.08 73.65 615.1 73.67 615.12 73.69 615.15 73.7 615.17 73.71 615.19 73.72 615.21 73.72 615.22 73.73 615.24 73.73 615.26 73.74 615.28 73.76 615.3 73.78 615.3 73.79 615.31 73.8 615.32 73.82 615.33 73.84 615.34 73.86 615.35 73.89 615.36 73.93 615.36 73.96 615.36 73.97 615.36 73.99 615.36 74.01 615.35 74.04 615.35 74.06 615.34 74.09 615.33 74.1 615.31 74.12 615.29 74.13 615.28 74.14 615.26 74.14 615.24 74.13 615.22 74.12 615.2 74.12 615.18 74.12 615.17 74.14 615.16 74.15 615.14 74.17 615.14 74.18 615.13 74.19 615.11 74.21 615.08 74.22 615.07 74.23 615.04 74.24 615.01 74.26 614.98 74.27 614.96 74.28 614.95 74.29 614.93 74.3 614.91 74.31 614.88 74.34 614.86 74.36 614.84 74.38 614.82 74.4 614.79 74.41 614.76 74.42 614.75 74.43 614.73 74.43 614.71 74.43 614.7 74.42 614.7 74.41 614.69 74.39 614.68 74.38 614.67 74.38 614.66 74.38 614.64 74.38 614.62 74.4 614.61 74.42 614.6 74.44 614.6 74.46 614.6 74.48 614.59 74.5 614.59 74.53 614.6 74.56 614.59 74.58 614.59 74.59 614.58 74.61 614.57 74.63 614.56 74.64 614.56 74.65 614.57 74.67 614.58 74.68 614.58 74.7 614.58 74.72 614.58 74.75 614.58 74.78 614.58 74.8 614.57 74.84 614.55 74.88 614.54 74.91 614.52 74.94 614.51 74.95 614.5 74.98 614.48 75.01 614.47 75.03 614.47 75.06 614.46 75.08 614.45 75.1 614.44 75.12 614.43 75.14 614.39 75.17 614.38 75.18 614.35 75.2 614.34 75.21 614.32 75.22 614.31 75.24 614.31 75.26 614.31 75.27 614.31 75.28 614.31 75.3 614.35 75.36 614.37 75.38 614.39 75.4 614.41 75.43 614.44 75.46 614.47 75.48 614.5 75.5 614.52 75.52 614.55 75.54 614.56 75.55 614.25 75.83 613.61 76.06 613.53 76.21 613.38 76.36 613.08 76.59 612.83 76.74 612.8 76.7 612.78 76.69 612.77 76.68 612.75 76.68 612.73 76.68 612.69 76.7 612.58 76.75 612.45 76.8 612.35 76.83 612.32 76.83 612.28 76.84 612.21 76.85 612.13 76.86 611.59 77.14 611.23 77.43 610.64 77.59 610.06 77.75 609.92 77.88 609.93 77.89 609.75 77.95 609.75 77.99 609.75 78.02 609.74 78.06 609.72 78.08 609.7 78.11 609.69 78.12 609.69 78.24 609.66 78.24 609.61 78.24 609.56 78.25 608.95 78.19 608.92 78.23 608.9 78.24 607.92 78.17 607.49 78.09 606.68 78.26 606.61 78.25 606.56 78.25 606.21 78.39 605.62 79.29 605.16 80 605 80.01 604.57 80.13 604.31 80.16 604.11 80.16 604.08 80.12 604.06 80.09 604.02 80.05 603.98 80.02 603.94 80 603.9 79.97 603.86 79.95 603.82 79.94 603.78 79.93 603.74 79.92 603.7 79.9 603.68 79.89 603.67 79.88 603.65 79.85 603.63 79.81 603.61 79.78 603.6 79.75 602.5 80.27 601.8 80.33 601.03 80.36 600.39 80.37 599.61 80.41 598.99 80.85 598.37 81.28 598.37 81.27 598.36 81.25 598.34 81.22 598.29 81.14 598.27 81.12 598.26 81.11 598.24 81.09 598.22 81.08 598.19 81.08 598.17 81.08 598.16 81.08 598.14 81.08 598.12 81.07 598.11 81.06 598.01 81.02 597.96 81 597.95 80.99 597.93 80.97 597.92 80.96 597.91 80.94 597.9 80.92 597.9 80.91 597.89 80.86 597.89 80.83 597.89 80.8 597.88 80.78 597.86 80.75 597.85 80.72 597.83 80.7 597.82 80.67 597.8 80.66 597.79 80.64 597.77 80.61 597.76 80.58 597.75 80.56 597.74 80.54 597.74 80.5 597.73 80.47 597.73 80.44 597.73 80.42 597.73 80.39 597.72 80.36 597.71 80.34 597.69 80.3 597.65 80.24 597.62 80.19 597.6 80.17 597.59 80.16 597.57 80.13 597.55 80.11 597.54 80.1 597.53 80.09 597.52 80.07 597.5 80.05 597.5 80.03 597.5 80.01 597.49 79.99 597.48 79.97 597.48 79.95 597.47 79.91 597.46 79.89 597.46 79.87 597.45 79.86 597.45 79.83 597.45 79.81 597.45 79.8 597.45 79.77 597.45 79.75 597.45 79.73 597.45 79.71 597.41 79.09 597.3 78.47 597.2 77.85 597.15 77.85 597 77.28 596.97 77.19 596.63 77 596.55 76.93 596.54 76.78 596.34 76.6 596.26 76.46 596.12 75.98 596.11 75.49 596.05 75.16 596.07 75.15 596.07 75.14 596.08 75.14 596.09 75.12 596.09 75.1 596.09 75.08 596.11 75.06 596.12 75.01 596.16 74.94 596.14 74.04 595.86 73.55 595.74 73.13 595.74 72.78 595.73 72.78 595.72 72.77 595.72 72.76 595.71 72.74 595.71 72.73 595.71 72.71 595.7 72.7 595.7 72.69 595.69 72.68 595.67 72.67 595.66 72.67 595.64 72.67 595.62 72.68 595.6 72.68 595.58 72.68 595.57 72.68 595.55 72.68 595.53 72.68 595.51 72.68 595.5 72.68 595.48 72.68 595.45 72.68 595.43 72.69 595.41 72.69 595.39 72.7 595.38 72.7 595.36 72.71 595.32 72.72 595.31 72.72 595.3 72.72 595.3 72.71 595.29 72.7 595.3 72.69 595.31 72.67 595.31 72.67 595.31 72.66 595.31 72.65 595.31 72.64 595.3 72.64 595.29 72.63 595.28 72.63 595.19 72.63 595.17 72.63 595.15 72.62 595.13 72.61 595.12 72.61 595.09 72.6 595.07 72.59 595.05 72.59 595.03 72.58 595.02 72.58 595 72.57 594.96 72.55 594.95 72.55 594.93 72.55 594.91 72.54 594.89 72.54 594.85 72.53 594.83 72.53 594.82 72.52 594.8 72.51 594.78 72.5 594.76 72.48 594.74 72.47 594.75 72.44 594.78 72.4 594.79 72.38 594.8 72.37 594.81 72.35 594.84 72.31 594.86 72.28 594.88 72.25 594.9 72.22 594.92 72.2 594.94 72.19 594.95 72.17 594.97 72.15 594.98 72.14 594.99 72.12 594.99 72.11 595 72.07 595.01 72.04 595.01 72.02 595.01 71.99 595.01 71.97 595.01 71.95 595.01 71.93 595.01 71.92 595.01 71.9 595.02 71.88 595.02 71.85 595.02 71.83 595.02 71.82 595.02 71.8 595.02 71.79 595.03 71.72 595.03 71.69 595.04 71.66 595.05 71.62 595.05 71.59 595.07 71.56 595.22 71.37 595.22 71.33 595.2 71.3 595.18 71.27 595.15 71.24 595.12 71.22 595.1 71.2 595.08 71.16 595.06 71.13 595.03 71.12 595 71.1 594.98 71.09 594.95 71.06 594.93 71.04 594.9 71 594.88 70.98 594.86 70.95 594.84 70.93 594.82 70.9 594.82 70.88 594.81 70.84 594.81 70.82 594.8 70.79 594.79 70.76 594.78 70.74 594.76 70.71 594.74 70.68 594.73 70.66 594.72 70.63 594.71 70.6 594.72 70.57 594.75 70.53 594.76 70.5 594.78 70.47 594.79 70.44 594.8 70.41 594.81 70.37 594.82 70.35 594.83 70.33 594.86 70.3 594.87 70.28 594.87 70.25 594.88 70.21 594.89 70.17 594.9 70.14 594.91 70.1 594.93 70.06 594.94 70.03 594.96 70 594.97 69.98 594.98 69.96 595 69.93 595.02 69.91 595.04 69.87 595.07 69.82 595.07 69.8 595.08 69.76 595.09 69.73 595.11 69.7 595.12 69.67 595.16 69.62 595.08 69.44 595.06 69.43 595.02 69.41 594.92 69.32 594.88 69.28 594.86 69.25 594.81 69.16 594.78 69.07 594.66 68.87 594.62 68.88 594.59 68.89 594.56 68.9 594.54 68.9 594.52 68.89 594.48 68.88 594.46 68.87 594.44 68.86 594.42 68.85 594.39 68.82 594.37 68.8 594.35 68.78 594.33 68.76 594.32 68.73 594.31 68.72 594.29 68.69 594.27 68.67 594.25 68.65 594.23 68.62 594.21 68.6 594.19 68.58 594.17 68.56 594.15 68.54 594.14 68.52 594.12 68.49 594.11 68.47 594.09 68.45 594.07 68.43 594.05 68.4 594.03 68.38 594.01 68.37 593.98 68.34 593.97 68.32 593.95 68.3 593.93 68.29 593.92 68.26 593.9 68.24 593.89 68.23 593.87 68.21 593.84 68.2 593.81 68.2 593.78 68.19 593.75 68.19 593.73 68.19 593.7 68.18 593.68 68.18 593.66 68.17 593.56 68.17 593.53 68.17 593.51 68.16 593.48 68.15 593.45 68.14 593.42 68.12 593.4 68.11 593.36 68.1 593.34 68.09 593.31 68.08 593.28 68.06 593.27 68.06 593.25 68.05 593.22 68.05 593.2 68.04 593.16 68.03 593.13 68.01 593.11 67.99 593.1 67.98 593.08 67.96 593.06 67.96 593.04 67.95 593.02 67.96 592.99 67.96 592.96 67.95 592.94 67.95 592.91 67.94 592.89 67.93 592.87 67.91 592.85 67.9 592.82 67.84 592.8 67.83 592.78 67.83 592.75 67.83 592.73 67.83 592.7 67.81 592.68 67.8 592.65 67.78 592.63 67.77 592.61 67.76 592.58 67.75 592.55 67.75 592.53 67.74 592.51 67.72 592.49 67.7 592.47 67.67 592.46 67.64 592.44 67.62 592.42 67.6 592.41 67.57 592.39 67.54 592.38 67.53 592.36 67.5 592.34 67.48 592.33 67.47 592.28 67.43 592.26 67.41 592.25 67.37 592.21 67.33 592.2 67.32 592.19 67.31 592.18 67.3 592.17 67.29 592.16 67.28 592.15 67.28 592.15 67.27 592.14 67.25 592.14 67.24 592.14 67.23 592.14 67.21 592.14 67.2 592.13 67.19 592.13 67.18 592.13 67.17 592.13 67.16 592.12 67.15 592.12 67.14 592.12 67.12 592.12 67.12 592.13 67.11 592.13 67.1 592.13 67.09 592.14 67.08 592.14 67.07 592.14 67.05 592.15 67.04 592.15 67.03 592.16 67.02 592.17 67 592.18 66.99 592.17 66.96 592.16 66.95 592.16 66.94 592.17 66.93 592.18 66.92 592.19 66.91 592.19 66.89 592.18 66.89 592.17 66.88 592.16 66.87 592.14 66.86 592.13 66.85 592.13 66.84 592.13 66.83 592.14 66.81 592.14 66.8 592.13 66.78 592.13 66.76 592.12 66.75 592.11 66.73 592.1 66.72 592.09 66.71 592.08 66.68 592.09 66.67 592.09 66.67 592.1 66.66 592.12 66.66 592.13 66.65 592.13 66.64 592.14 66.62 592.11 66.59 592.1 66.58 592.08 66.55 592.07 66.52 592.05 66.51 592.03 66.51 592.01 66.52 591.99 66.52 591.96 66.52 591.94 66.51 591.92 66.51 591.89 66.51 591.87 66.51 591.84 66.51 591.81 66.51 591.8 66.49 591.8 66.45 591.8 66.43 591.8 66.42 591.8 66.39 591.81 66.36 591.81 66.34 591.82 66.32 591.81 66.3 591.78 66.29 591.76 66.27 591.71 66.27 591.68 66.26 591.66 66.25 591.64 66.22 591.63 66.2 591.63 66.17 591.62 66.15 591.61 66.15 591.6 66.14 591.57 66.12 591.57 66.09 591.57 66.05 591.56 66.03 591.55 66 591.53 65.99 591.5 66 591.47 66.01 591.46 65.99 591.45 65.96 591.44 65.93 591.43 65.9 591.43 65.88 591.41 65.86 591.38 65.86 591.36 65.87 591.32 65.88 591.29 65.88 591.26 65.88 591.23 65.87 591.21 65.86 591.21 65.83 591.21 65.8 591.21 65.79 591.21 65.77 591.2 65.74 591.18 65.73 591.16 65.72 591.13 65.7 591.11 65.69 591.09 65.66 591.07 65.64 591.04 65.62 591.02 65.61 590.99 65.59 590.97 65.56 590.95 65.54 590.95 65.5 590.94 65.47 590.93 65.43 590.91 65.4 590.89 65.36 590.88 65.34 590.86 65.3 590.84 65.27 590.82 65.24 590.8 65.2 590.79 65.18 590.76 65.17 590.73 65.17 590.69 65.16 590.65 65.15 590.64 65.15 590.62 65.14 590.6 65.14 590.59 65.12 590.6 65.09 590.6 65.06 590.6 65.03 590.59 64.99 590.58 64.96 590.57 64.93 590.57 64.9 590.57 64.89 590.58 64.86 590.58 64.82 590.57 64.8 590.58 64.77 590.58 64.74 590.56 64.72 590.54 64.71 590.52 64.73 590.5 64.71 590.5 64.68 590.5 64.65 590.48 64.64 590.45 64.65 590.41 64.67 590.37 64.66 590.34 64.65 590.3 64.65 590.28 64.65 590.26 64.63 590.28 64.6 590.29 64.58 590.3 64.54 590.29 64.51 590.27 64.5 590.24 64.5 590.21 64.52 590.2 64.52 590.19 64.5 590.2 64.46 590.22 64.44 590.23 64.4 590.23 64.37 590.22 64.35 590.2 64.32 590.18 64.32 590.16 64.34 590.12 64.31 590.11 64.27 590.11 64.24 590.09 64.23 590.06 64.22 590.04 64.21 590.02 64.22 589.99 64.21 589.97 64.2 589.95 64.18 589.96 64.16 589.97 64.13 589.97 64.11 589.96 64.09 589.94 64.1 589.91 64.12 589.88 64.14 589.85 64.14 589.81 64.13 589.78 64.11 589.76 64.09 589.76 64.06 589.75 64.03 589.75 64 589.74 63.98 589.73 63.96 589.7 63.96 589.68 63.98 589.66 63.99 589.63 64 589.61 63.97 589.62 63.94 589.63 63.9 589.64 63.86 589.65 63.83 589.66 63.81 589.67 63.79 589.7 63.78 589.73 63.78 589.76 63.78 589.79 63.78 589.81 63.77 589.81 63.75 589.78 63.71 589.76 63.7 589.72 63.68 589.69 63.66 589.66 63.65 589.64 63.64 589.62 63.63 589.6 63.61 589.59 63.57 589.57 63.56 589.55 63.54 589.54 63.54 589.52 63.51 589.5 63.49 589.48 63.48 589.47 63.47 589.48 63.45 589.49 63.43 589.49 63.42 589.48 63.4 589.48 63.38 589.47 63.36 589.48 63.33 589.49 63.32 589.5 63.32 589.51 63.3 589.5 63.28 589.47 63.26 589.44 63.25 589.4 63.24 589.36 63.22 589.34 63.21 589.32 63.19 589.31 63.17 589.31 63.14 589.32 63.12 589.33 63.1 589.33 63.08 589.3 63.07 589.27 63.06 589.25 63.05 589.23 63.03 589.25 63.02 589.28 63.01 589.29 62.99 589.29 62.96 589.3 62.93 589.3 62.9 589.33 62.89 589.35 62.89 589.37 62.91 589.39 62.9 589.41 62.87 589.42 62.83 589.43 62.8 589.44 62.77 589.45 62.74 589.46 62.71 589.46 62.69 589.47 62.66 589.44 62.65 589.43 62.65 589.4 62.65 589.37 62.63 589.34 62.63 589.31 62.63 589.27 62.63 589.24 62.62 589.21 62.6 589.2 62.57 589.18 62.54 589.16 62.51 589.15 62.49 589.12 62.47 589.1 62.45 589.06 62.44 589.03 62.44 589 62.43 588.98 62.41 588.97 62.39 588.97 62.36 588.96 62.32 588.97 62.29 588.98 62.26 588.97 62.23 588.96 62.2 588.93 62.19 588.88 62.2 588.86 62.18 588.85 62.14 588.85 62.14 588.83 62.12 588.79 62.11 588.75 62.11 588.71 62.09 588.68 62.07 588.65 62.05 588.62 62.05 588.59 62.05 588.56 62.04 588.52 62.01 588.49 62 588.47 61.97 588.47 61.94 588.48 61.9 588.5 61.87 588.5 61.84 588.5 61.79 588.5 61.76 588.49 61.72 588.48 61.69 588.47 61.66 588.47 61.63 588.48 61.61 588.51 61.64 588.53 61.68 588.56 61.69 588.58 61.67 588.6 61.64 588.62 61.6 588.62 61.56 588.63 61.52 588.65 61.5 588.66 61.47 588.67 61.44 588.69 61.42 588.67 61.38 588.68 61.35 588.7 61.32 588.71 61.29 588.72 61.26 588.74 61.24 588.77 61.22 588.8 61.22 588.83 61.22 588.84 61.22 588.85 61.21 588.84 61.18 588.81 61.16 588.77 61.14 588.74 61.12 588.71 61.08 588.69 61.05 588.67 61.02 588.66 60.97 588.66 60.95 588.66 60.92 588.67 60.89 588.69 60.87 588.72 60.84 588.74 60.81 588.76 60.8 588.77 60.78 588.77 60.76 588.76 60.74 588.73 60.73 588.7 60.71 588.66 60.7 588.64 60.68 588.66 60.64 588.66 60.61 588.63 60.59 588.61 60.56 588.58 60.52 588.59 60.5 588.61 60.49 588.62 60.49 588.62 60.47 588.59 60.47 588.56 60.48 588.52 60.46 588.49 60.44 588.46 60.42 588.43 60.41 588.42 60.4 588.39 60.38 588.36 60.37 588.32 60.36 588.3 60.35 588.27 60.37 588.25 60.39 588.24 60.39 588.24 60.43 588.28 60.46 588.31 60.47 588.33 60.48 588.32 60.51 588.28 60.54 588.24 60.55 588.21 60.56 588.17 60.55 588.14 60.54 588.11 60.54 588.07 60.53 588.03 60.53 588 60.53 587.97 60.51 587.95 60.49 587.91 60.45 587.91 60.45 587.9 60.41 587.89 60.37 587.87 60.31 587.85 60.3 587.82 60.3 587.79 60.29 587.79 60.26 587.79 60.22 587.79 60.19 587.79 60.15 587.79 60.13 587.76 60.12 587.73 60.1 587.69 60.1 587.64 60.1 587.61 60.1 587.58 60.1 587.55 60.1 587.53 60.09 587.51 60.05 587.49 60.01 587.48 59.98 587.48 59.92 587.47 59.88 587.46 59.87 587.45 59.85 587.43 59.82 587.4 59.82 587.37 59.82 587.35 59.86 587.34 59.89 587.32 59.92 587.31 59.92 587.3 59.92 587.28 59.9 587.25 59.86 587.22 59.81 587.2 59.77 587.18 59.74 587.16 59.72 587.15 59.68 587.14 59.65 587.1 59.63 587.07 59.62 587.02 59.59 586.98 59.57 586.94 59.54 586.91 59.53 586.88 59.51 586.86 59.48 586.83 59.46 586.81 59.44 586.81 59.42 586.83 59.4 586.85 59.35 586.86 59.32 586.88 59.29 586.91 59.26 586.94 59.24 586.96 59.21 586.97 59.17 586.99 59.14 587 59.11 587.01 59.08 586.99 59.05 586.95 59.04 586.92 59.04 586.88 59.03 586.85 59 586.83 58.98 586.79 58.93 586.78 58.9 586.76 58.87 586.76 58.85 586.75 58.84 586.74 58.83 586.72 58.81 586.68 58.8 586.63 58.8 586.59 58.81 586.56 58.8 586.53 58.78 586.52 58.76 586.51 58.75 586.52 58.7 586.53 58.67 586.53 58.66 586.54 58.64 586.57 58.61 586.6 58.57 586.64 58.54 586.66 58.51 586.67 58.47 586.68 58.45 586.66 58.42 586.63 58.38 586.62 58.35 586.63 58.32 586.66 58.28 586.7 58.26 586.72 58.23 586.73 58.19 586.74 58.15 586.74 58.11 586.72 58.07 586.71 58.04 586.69 57.98 586.68 57.93 586.67 57.89 586.66 57.84 586.65 57.81 586.63 57.77 586.63 57.73 586.63 57.68 586.63 57.64 586.63 57.6 586.63 57.56 586.64 57.53 586.67 57.5 586.71 57.47 586.75 57.44 586.77 57.42 586.81 57.39 586.83 57.37 586.85 57.34 586.88 57.32 586.89 57.29 586.89 57.25 586.89 57.22 586.89 57.18 586.88 57.13 586.87 57.09 586.86 57.04 586.85 57.01 586.85 56.99 586.84 56.97 586.84 56.95 586.83 56.92 586.81 56.9 586.8 56.87 586.8 56.83 586.82 56.79 586.86 56.77 586.89 56.76 586.93 56.76 586.95 56.76 586.98 56.77 587 56.76 587.01 56.73 587 56.7 587.02 56.68 587.05 56.67 587.09 56.67 587.13 56.66 587.14 56.64 587.15 56.6 587.15 56.56 587.12 56.52 587.1 56.49 587.07 56.46 587.05 56.44 587.07 56.39 587.08 56.36 587.09 56.33 587.1 56.3 587.1 56.27 587.11 56.25 587.13 56.24 587.14 56.24 587.18 56.27 587.22 56.28 587.28 56.29 587.32 56.29 587.36 56.26 587.38 56.24 587.4 56.22 587.42 56.18 587.44 56.16 587.5 56.18 587.53 56.19 587.57 56.22 587.6 56.25 587.63 56.27 587.68 56.26 587.7 56.25 587.78 56.22 587.83 56.19 587.87 56.17 587.91 56.15 587.95 56.14 587.99 56.14 588.03 56.12 588.07 56.09 588.11 56.09 588.15 56.12 588.18 56.13 588.22 56.13 588.26 56.11 588.3 56.08 588.33 56.05 588.37 56.02 588.4 56 588.43 55.98 588.44 55.97 588.48 55.95 588.51 55.94 588.51 55.94 588.56 55.96 588.6 55.97 588.65 55.98 588.69 55.99 588.72 56 588.76 56.01 588.82 56.02 588.83 56.04 588.83 56.01 588.8 55.97 588.78 55.94 588.76 55.91 588.76 55.88 588.77 55.85 588.79 55.82 588.81 55.79 588.84 55.76 588.88 55.75 588.91 55.75 588.95 55.74 588.97 55.72 588.99 55.69 589.02 55.68 589.05 55.66 589.07 55.63 589.08 55.59 589.08 55.58 589.07 55.56 589.05 55.53 589.02 55.5 589 55.48 588.99 55.44 588.98 55.42 588.99 55.4 589.02 55.38 589.06 55.37 589.12 55.35 589.16 55.35 589.2 55.35 589.24 55.34 589.27 55.32 589.29 55.3 589.32 55.27 589.34 55.24 589.37 55.2 589.38 55.16 589.39 55.13 589.41 55.09 589.43 55.05 589.45 55.01 589.45 54.96 589.46 54.89 589.47 54.83 589.5 54.8 589.52 54.78 589.53 54.74 589.53 54.7 589.53 54.67 589.53 54.64 589.52 54.61 589.5 54.58 589.49 54.55 589.51 54.52 589.57 54.49 589.63 54.46 589.68 54.45 589.72 54.42 589.74 54.39 589.76 54.36 589.79 54.31 589.82 54.29 589.85 54.25 589.87 54.22 589.88 54.17 589.91 54.12 589.92 54.11 589.94 54.08 589.98 54.05 590.01 54.03 590.06 54.02 590.09 54 590.13 53.98 590.17 53.95 590.21 53.92 590.24 53.89 590.26 53.87 590.28 53.83 590.3 53.79 590.32 53.77 590.36 53.76 590.41 53.75 590.45 53.73 590.51 53.71 590.56 53.68 590.59 53.65 590.61 53.63 590.64 53.6 590.65 53.59 590.67 53.57 590.68 53.55 590.68 53.54 590.66 53.49 590.63 53.45 590.63 53.44 590.57 53.38 590.51 53.33 590.45 53.29 590.39 53.26 590.34 53.24 590.29 53.23 590.24 53.22 590.2 53.22 590.15 53.22 590.1 53.23 590.06 53.23 590.01 53.22 589.96 53.22 589.91 53.22 589.9 53.24 589.86 53.26 589.83 53.29 589.82 53.34 589.8 53.38 589.79 53.39 589.77 53.42 589.74 53.45 589.7 53.47 589.66 53.47 589.62 53.46 589.57 53.44 589.51 53.42 589.45 53.4 589.39 53.37 589.34 53.35 589.28 53.32 589.22 53.29 589.2 53.26 589.17 53.22 589.15 53.18 589.12 53.14 589.1 53.1 589.08 53.08 589.05 53.02 589.01 52.95 588.99 52.9 588.98 52.87 588.97 52.84 588.95 52.78 588.94 52.72 588.92 52.64 588.9 52.6 588.87 52.56 588.85 52.51 588.83 52.47 588.82 52.43 588.8 52.4 588.78 52.35 588.76 52.31 588.74 52.27 588.71 52.22 588.69 52.17 588.67 52.14 588.64 52.09 588.61 52.05 588.57 52.03 588.54 52.01 588.5 52 588.45 52 588.41 51.99 588.37 51.98 588.35 51.95 588.32 51.91 588.29 51.88 588.27 51.85 588.24 51.81 588.21 51.78 588.21 51.77 588.21 51.74 588.21 51.7 588.23 51.68 588.25 51.68 588.26 51.66 588.25 51.63 588.25 51.6 588.31 51.61 588.35 51.64 588.38 51.66 588.4 51.67 588.43 51.68 588.46 51.68 588.5 51.68 588.52 51.66 588.54 51.65 588.55 51.63 588.57 51.61 588.57 51.58 588.57 51.56 588.56 51.51 588.56 51.48 588.55 51.46 588.54 51.43 588.53 51.42 588.52 51.4 588.5 51.39 588.49 51.38 588.47 51.37 588.44 51.35 588.43 51.34 588.43 51.33 588.42 51.32 588.43 51.31 588.44 51.3 588.44 51.29 588.46 51.28 588.48 51.27 588.51 51.26 588.53 51.27 588.54 51.28 588.54 51.29 588.55 51.31 588.56 51.34 588.57 51.36 588.61 51.39 588.65 51.38 588.68 51.33 588.68 51.33 588.69 51.29 588.71 51.25 588.72 51.22 588.72 51.19 588.72 51.15 588.72 51.12 588.7 51.07 588.7 51.03 588.7 50.99 588.69 50.96 588.69 50.95 588.68 50.92 588.68 50.88 588.71 50.85 588.74 50.82 588.75 50.79 588.76 50.77 588.75 50.75 588.73 50.72 588.69 50.69 588.65 50.66 588.59 50.63 588.53 50.6 588.47 50.56 588.42 50.55 588.37 50.53 588.32 50.51 588.27 50.5 588.22 50.48 588.17 50.47 588.12 50.47 588.06 50.48 588.01 50.49 587.95 50.5 587.9 50.53 587.84 50.55 587.8 50.57 587.75 50.56 587.75 50.54 587.75 50.53 587.74 50.51 587.74 50.49 587.72 50.47 587.71 50.45 587.69 50.43 587.67 50.42 587.65 50.4 587.63 50.39 587.62 50.39 587.61 50.39 587.58 50.4 587.56 50.4 587.53 50.4 587.51 50.4 587.49 50.38 587.47 50.36 587.46 50.34 587.45 50.33 587.45 50.31 587.45 50.28 587.45 50.26 587.45 50.24 587.44 50.22 587.43 50.2 587.42 50.18 587.4 50.17 587.39 50.15 587.38 50.15 587.36 50.15 587.35 50.17 587.32 50.17 587.3 50.18 587.28 50.19 587.25 50.18 587.23 50.17 587.21 50.15 587.2 50.13 587.18 50.1 587.17 50.07 587.15 50.04 587.13 50 587.13 49.98 587.13 49.95 587.14 49.93 587.16 49.91 587.17 49.89 587.18 49.87 587.18 49.85 587.18 49.83 587.17 49.81 587.16 49.8 587.14 49.8 587.12 49.8 587.1 49.79 587.1 49.78 587.09 49.76 587.09 49.74 587.1 49.73 587.11 49.72 587.12 49.7 587.12 49.69 587.12 49.67 587.12 49.66 587.14 49.64 587.15 49.62 587.17 49.58 587.18 49.54 587.19 49.52 587.21 49.48 587.23 49.45 587.25 49.43 587.29 49.41 588.08 49.26 588.13 49.21 588.35 48.99 588.36 48.98 588.38 48.98 588.4 48.97 588.42 48.96 588.44 48.95 588.46 48.95 588.48 48.94 588.49 48.93 588.51 48.92 588.53 48.9 588.57 48.88 588.59 48.86 588.62 48.85 588.64 48.84 588.66 48.83 588.71 48.8 588.74 48.79 588.76 48.78 588.78 48.77 588.8 48.76 588.82 48.75 588.85 48.74 588.87 48.72 588.89 48.71 588.92 48.7 588.94 48.69 588.97 48.68 588.99 48.67 589.01 48.65 589.04 48.64 589.1 48.61 589.26 48.53 589.35 48.49 589.64 48.11 589.76 47.97 589.77 47.93 589.74 47.86 589.73 47.85 589.72 47.84 589.72 47.83 589.71 47.82 589.7 47.81 589.69 47.79 589.68 47.78 589.67 47.77 589.66 47.75 589.66 47.74 589.65 47.72 589.64 47.7 589.63 47.68 589.63 47.66 589.62 47.65 589.62 47.63 589.61 47.61 589.61 47.59 589.61 47.58 589.6 47.56 589.6 47.54 589.6 47.52 589.6 47.5 589.6 47.47 589.59 47.45 589.59 47.43 589.59 47.41 589.59 47.4 589.59 47.38 589.59 47.36 589.6 47.34 589.59 47.32 589.59 47.3 589.59 47.28 589.59 47.26 589.59 47.24 589.59 47.22 589.59 47.2 589.59 47.18 589.59 47.16 589.59 47.14 589.59 47.12 589.59 47.1 589.59 47.08 589.59 47.06 589.59 47.04 589.59 47.01 589.59 46.98 589.59 46.96 589.59 46.94 589.59 46.92 589.6 46.9 589.6 46.88 589.61 46.87 589.61 46.85 589.61 46.83 589.62 46.81 589.62 46.79 589.63 46.77 589.64 46.75 589.65 46.73 589.66 46.72 589.67 46.71 589.69 46.69 589.7 46.68 589.71 46.67 589.72 46.66 589.74 46.65 589.75 46.63 589.76 46.62 589.77 46.61 589.79 46.6 589.8 46.59 589.82 46.58 589.83 46.57 589.84 46.56 589.86 46.55 589.87 46.54 589.88 46.54 589.9 46.53 589.91 46.52 589.92 46.51 589.93 46.51 589.94 46.5 589.95 46.49 589.96 46.47 589.97 46.46 589.98 46.45 589.99 46.44 590.03 46.39 590.05 46.38 590.06 46.37 590.08 46.36 590.09 46.35 590.1 46.35 590.12 46.34 590.13 46.33 590.15 46.33 590.16 46.32 590.23 46.27 590.25 46.26 590.27 46.25 590.28 46.25 590.3 46.24 590.32 46.23 590.33 46.23 590.34 46.23 590.36 46.22 590.37 46.22 590.39 46.22 590.4 46.21 590.42 46.21 590.44 46.21 590.45 46.2 590.47 46.2 590.48 46.2 590.5 46.21 590.51 46.21 590.52 46.22 590.53 46.22 590.55 46.22 590.57 46.22 590.58 46.21 590.6 46.21 590.61 46.19 590.64 46.18 590.64 46.17 590.66 46.16 590.67 46.16 590.69 46.15 590.7 46.15 590.72 46.15 590.73 46.15 590.74 46.14 590.76 46.13 590.77 46.11 590.78 46.1 590.79 46.08 590.8 46.06 590.81 46.05 590.81 46.04 590.82 46.02 590.84 46.01 590.85 46 590.86 45.99 590.87 45.98 590.89 45.97 590.9 45.97 590.92 45.97 590.94 45.96 590.95 45.96 590.97 45.96 590.98 45.95 591 45.95 591.01 45.95 591.02 45.94 591.03 45.93 591.04 45.93 591.06 45.92 591.07 45.92 591.08 45.91 591.1 45.9 591.11 45.89 591.12 45.89 591.13 45.88 591.15 45.87 591.16 45.86 591.17 45.84 591.18 45.84 591.19 45.83 591.2 45.82 591.22 45.81 591.23 45.81 591.25 45.81 591.26 45.8 591.28 45.8 591.29 45.79 591.3 45.78 591.32 45.78 591.33 45.77 591.34 45.76 591.36 45.75 591.37 45.75 591.39 45.74 591.41 45.73 591.42 45.73 591.44 45.73 591.45 45.73 591.47 45.73 591.49 45.73 591.5 45.73 591.52 45.73 591.54 45.73 591.55 45.73 591.57 45.73 591.59 45.73 591.61 45.73 591.63 45.73 591.65 45.73 591.66 45.73 591.68 45.72 591.69 45.72 591.71 45.71 591.72 45.71 591.74 45.7 591.78 45.67 591.79 45.67 591.8 45.66 591.86 45.62 591.86 45.61 591.86 45.6 591.87 45.6 591.87 45.59 591.88 45.58 591.89 45.58 591.9 45.57 591.91 45.56 591.92 45.55 591.93 45.55 591.94 45.54 591.95 45.52 591.95 45.51 591.95 45.5 591.96 45.48 591.96 45.47 591.96 45.46 591.96 45.44 591.96 45.43 591.96 45.41 591.95 45.4 591.95 45.39 591.95 45.37 591.96 45.37 591.97 45.36 591.98 45.36 591.99 45.35 592 45.35 592.02 45.35 592.03 45.35 592.04 45.34 592.05 45.34 592.06 45.33 592.07 45.32 592.09 45.31 592.1 45.31 592.11 45.3 592.13 45.29 592.13 45.27 592.14 45.26 592.15 45.24 592.16 45.23 592.17 45.22 592.18 45.21 592.19 45.2 592.2 45.19 592.21 45.19 592.22 45.18 592.23 45.18 592.24 45.17 592.25 45.17 592.26 45.16 592.27 45.15 592.28 45.14 592.29 45.13 592.3 45.12 592.3 45.1 592.3 45.09 592.31 45.08 592.31 45.07 592.32 45.06 592.33 45.06 592.35 45.06 592.37 45.05 592.38 45.05 592.39 45.05 592.4 45.04 592.41 45.03 592.42 45.02 592.43 45 592.43 45 592.43 44.98 592.44 44.97 592.44 44.96 592.44 44.95 592.44 44.93 592.44 44.92 592.44 44.91 592.45 44.9 592.45 44.88 592.46 44.87 592.46 44.86 592.46 44.85 592.47 44.83 592.47 44.82 592.47 44.8 592.45 44.8 592.43 44.82 592.41 44.82 592.38 44.82 592.36 44.81 592.36 44.78 592.37 44.76 592.4 44.74 592.43 44.74 592.46 44.73 592.48 44.72 592.49 44.7 592.49 44.69 592.47 44.68 592.45 44.67 592.44 44.65 592.43 44.64 592.44 44.63 592.47 44.63 592.49 44.63 592.5 44.62 592.54 44.58 592.56 44.55 592.56 44.54 592.55 44.53 592.55 44.52 592.55 44.51 592.55 44.5 592.55 44.49 592.55 44.47 592.56 44.46 592.56 44.44 592.57 44.43 592.57 44.41 592.57 44.4 592.57 44.39 592.57 44.37 592.57 44.36 592.57 44.34 592.57 44.33 592.57 44.32 592.58 44.31 592.58 44.29 592.58 44.27 592.57 44.26 592.57 44.25 592.56 44.25 592.55 44.24 592.55 44.22 592.55 44.21 592.55 44.2 592.55 44.19 592.55 44.17 592.56 44.16 592.56 44.15 592.56 44.14 592.56 44.13 592.56 44.12 592.56 44.11 592.56 44.1 592.56 44.09 592.56 44.08 592.55 44.07 592.55 44.06 592.54 44.05 592.53 44.04 592.53 44.03 592.53 44.02 592.53 44.01 592.53 44 592.54 43.99 592.55 43.98 592.55 43.98 592.57 43.98 592.58 43.97 592.59 43.97 592.6 43.97 592.61 43.97 592.63 43.97 592.64 43.97 592.65 43.97 592.67 43.97 592.69 43.97 592.7 43.96 592.7 43.95 592.71 43.94 592.71 43.93 592.72 43.92 592.72 43.92 592.72 43.91 592.72 43.89 592.73 43.88 592.73 43.87 592.74 43.86 592.74 43.85 592.75 43.83 592.75 43.81 592.75 43.8 592.75 43.79 592.74 43.79 592.73 43.78 592.72 43.78 592.71 43.77 592.7 43.76 592.71 43.75 592.71 43.74 592.72 43.73 592.73 43.72 592.74 43.71 592.75 43.71 592.75 43.7 592.76 43.7 592.77 43.69 592.78 43.69 592.79 43.68 592.8 43.69 593.14 43.76 593.48 43.82 593.52 43.83 593.75 43.88 594.03 43.94 594.08 43.95 594.16 43.96 594.24 43.98 594.53 44.13 594.56 44.15 594.62 44.19 594.66 44.21 594.76 44.28 594.94 44.39 594.97 44.4 594.99 44.42 595.03 44.44 595.05 44.45 595.17 44.53 595.46 44.7 595.54 44.74 595.58 44.77 595.57 44.83 595.82 44.86 595.91 44.87 595.94 44.91 595.98 44.88 596.04 44.89 596.21 44.91 597.03 45.01 597.56 45.07 597.65 45.08 597.66 45.08 597.87 45.1 597.92 45.11 598.07 45.13 598.22 45.14 598.8 45.21 599.01 45.23 599.11 45.25 599.44 45.28 600.03 45.35 600.16 45.37 600.17 45.37 600.19 45.37 600.21 45.37 600.24 45.38 600.33 45.4 600.57 45.45 600.78 45.5 600.81 45.5 601.02 45.55 601.2 45.59 601.24 45.6 601.28 45.61 601.34 45.62 601.39 45.63 601.44 45.64 601.51 45.66 601.6 45.68 601.68 45.69 601.75 45.71 601.85 45.73 602.04 45.77 602.09 45.78 602.09 45.79 602.1 45.81 602.1 45.82 602.11 45.83 602.11 45.85 602.12 45.87 602.13 45.88 602.13 45.9 602.13 45.9 602.15 45.92 602.17 46.02 602.19 46.05 602.2 46.04 602.22 46.03 602.25 46.03 602.26 46.03 602.28 46.04 602.31 46.05 602.34 46.05 602.38 46.04 602.41 46.02 602.42 46 602.44 45.97 602.44 45.96 602.46 45.94 602.46 45.9 602.47 45.87 602.48 45.83 602.5 45.8 602.53 45.77 602.57 45.77 602.59 45.74 602.62 45.73 602.65 45.74 602.68 45.74 602.71 45.75 602.76 45.78 602.8 45.79 602.83 45.77 602.84 45.74 602.86 45.7 602.88 45.7 602.89 45.71 602.89 45.68 602.9 45.66 602.9 45.65 602.9 45.63 602.91 45.62 602.91 45.61 602.91 45.6 602.91 45.58 602.92 45.57 602.92 45.56 602.93 45.55 602.93 45.54 602.94 45.52 602.94 45.51 602.95 45.51 602.96 45.5 602.97 45.5 602.98 45.5 602.99 45.5 603 45.5 603.01 45.5 603.02 45.5 603.03 45.5 603.04 45.5 603.06 45.51 603.07 45.51 603.08 45.51 603.09 45.5 603.1 45.5 603.1 45.51 603.11 45.52 603.11 45.53 603.11 45.54 603.11 45.56 603.11 45.57 603.11 45.59 603.11 45.6 603.11 45.61 603.11 45.62 603.11 45.63 603.12 45.63 603.12 45.64 603.13 45.65 603.14 45.65 603.15 45.66 603.16 45.67 603.16 45.67 603.17 45.68 603.18 45.7 603.2 45.7 603.22 45.68 603.24 45.66 603.28 45.63 603.3 45.61 603.35 45.6 603.38 45.61 603.42 45.62 603.45 45.63 603.49 45.64 603.54 45.66 603.58 45.67 603.61 45.69 603.64 45.71 603.67 45.73 603.7 45.73 603.74 45.74 603.78 45.74 603.82 45.72 603.84 45.72 603.87 45.73 603.89 45.72 603.92 45.7 603.97 45.7 604 45.7 604.03 45.7 604.06 45.72 604.09 45.73 604.13 45.73 604.16 45.72 604.2 45.7 604.23 45.7 604.26 45.71 604.29 45.74 604.3 45.75 604.34 45.78 604.37 45.78 604.39 45.77 604.4 45.77 604.42 45.75 604.42 45.72 604.44 45.7 604.45 45.68 604.48 45.64 604.49 45.61 604.51 45.57 604.53 45.53 604.54 45.46 604.56 45.42 604.58 45.4 604.61 45.39 604.65 45.38 604.68 45.38 604.71 45.38 604.74 45.38 604.78 45.39 604.81 45.39 604.84 45.38 604.88 45.37 604.92 45.36 604.96 45.36 604.99 45.35 605.03 45.34 605.07 45.34 605.1 45.35 605.12 45.36 605.14 45.38 605.17 45.39 605.19 45.39 605.22 45.39 605.24 45.39 605.27 45.39 605.29 45.38 605.32 45.37 605.35 45.38 605.39 45.38 605.41 45.39 605.43 45.4 605.47 45.42 605.5 45.44 605.52 45.45 605.53 45.43 605.55 45.4 605.57 45.39 605.58 45.38 605.6 45.37 605.6 45.39 605.6 45.4 605.61 45.43 605.62 45.47 605.64 45.53 605.64 45.55 605.64 45.59 605.69 45.59 605.85 45.55 605.88 45.55 605.91 45.56 606.05 45.66 606.17 45.65 606.17 45.68 606.18 45.71 606.18 45.74 606.2 45.78 606.2 45.79 606.22 45.79 606.26 45.84 606.3 45.85 606.33 45.85 606.37 45.83 606.44 45.79 606.54 45.75 606.63 45.72 606.68 45.71 606.75 45.69 606.76 45.71 606.8 45.79 606.83 45.86 606.86 45.95 606.89 46.02 606.93 46.1 606.98 46.17 606.98 46.2 607.01 46.21 607.14 46.09 607.16 46.07 607.2 46.05 607.31 45.95 607.42 45.94 607.67 45.81 607.72 45.78 608 45.75 608.26 45.63 608.27 45.62 608.31 45.61 608.31 45.59 608.32 45.59 608.36 45.58 608.45 45.53 608.46 45.53 608.58 45.47 608.67 45.43 608.74 45.39 608.75 45.39 608.83 45.35 608.91 45.32 608.98 45.29 609.03 45.27 609.05 45.26 609.07 45.25 609.1 45.24 609.14 45.24 609.2 45.23 609.25 45.23 609.3 45.23 609.42 45.24 609.47 45.24 609.52 45.24 609.56 45.24 609.59 45.23 609.62 45.22 609.65 45.21 609.76 45.16 609.89 45.1 609.98 45.06 610.03 45.04 610.08 45.01 610.12 45 610.16 44.99 610.17 44.98 610.19 44.98 610.25 44.97 610.28 44.96 610.33 44.96 610.46 44.94 610.62 44.93 610.79 44.92 610.91 44.91 610.93 44.91 610.97 44.9 611 44.9 611.03 44.9 611.07 44.89 611.09 44.88 611.13 44.87 611.16 44.86 611.19 44.84 611.23 44.83 611.27 44.81 611.31 44.79 611.36 44.78 611.41 44.76 611.53 44.74 611.63 44.71 611.64 44.71 611.8 44.68 611.85 44.66 611.92 44.64 611.98 44.62 612.04 44.6 612.08 44.58 612.1 44.57 612.14 44.56 612.16 44.55 612.22 44.52 612.26 44.51 612.3 44.49 612.34 44.47 612.37 44.46 612.4 44.45 612.44 44.45 612.55 44.43 612.78 44.39 612.83 44.39 612.84 44.38 612.87 44.38 613.09 44.34 613.19 44.33 613.44 44.29 613.49 44.28 613.54 44.28 613.59 44.28 613.62 44.28 613.64 44.28 613.69 44.29 613.75 44.3 613.81 44.32 613.85 44.34 613.88 44.35 613.91 44.37 613.93 44.38 613.93 44.38 613.96 44.41 613.99 44.43 614.06 44.48 614.4 44.62 614.61 44.71 614.87 44.72 614.97 44.61 615.09 44.48 615.44 44.07 615.63 43.84 615.89 43.54 616.09 43.3 616.17 43.21 616.22 43.16 616.28 43.1 616.32 43.06 616.39 42.99 616.5 42.87 616.52 42.86 616.7 42.67 616.79 42.57 616.82 42.54 616.94 42.42 616.96 42.4 617.08 42.26 617.24 42.07 617.27 42.03 617.29 42.01 617.31 41.99 617.33 41.97 617.36 41.96 617.42 41.94 617.49 41.91 617.61 41.85 617.69 41.82 617.77 41.78 617.86 41.73 617.91 41.71 617.95 41.69 617.98 41.68 618.03 41.68 618.08 41.68 618.16 41.68 618.25 41.67 618.31 41.67 618.39 41.64 618.51 41.59 618.62 41.55 618.7 41.53 618.72 41.52 618.81 41.5 618.83 41.49 618.92 41.47 618.99 41.44 619.04 41.41 619.09 41.36 619.13 41.31 619.14 41.3 619.18 41.25 619.23 41.17 619.31 41.03 619.36 40.93 619.63 41.11 619.64 41.11 619.65 41.13 619.66 41.14 619.67 41.16 619.68 41.17 619.69 41.19 619.7 41.21 619.71 41.23 619.72 41.25 619.72 41.27 619.72 41.28 619.73 41.29 619.74 41.31 619.74 41.33 619.75 41.35 619.76 41.37 619.77 41.38 619.78 41.4 619.8 41.42 619.81 41.43 619.82 41.45 619.83 41.46 619.85 41.48 619.86 41.49 619.87 41.51 619.88 41.53 619.9 41.54 619.91 41.56 619.92 41.58 619.92 41.6 619.93 41.62 619.93 41.64 619.94 41.65 619.94 41.67 619.95 41.69 619.96 41.7 619.97 41.72 619.98 41.73 619.99 41.74 620.01 41.75 620.03 41.77 620.04 41.77 620.06 41.78 620.08 41.8 620.1 41.8 620.12 41.81 620.14 41.82 620.15 41.83 620.17 41.84 620.19 41.85 620.21 41.86 620.23 41.87 620.24 41.87 620.26 41.88 620.28 41.9 620.3 41.9 620.32 41.91 620.34 41.92 620.36 41.92 620.38 41.92 620.4 41.93 620.43 41.93 620.45 41.93 620.46 41.93 620.49 41.93 620.51 41.93 620.53 41.93 620.55 41.94 620.57 41.94 620.59 41.95 620.61 41.95 620.63 41.96 620.65 41.96 620.66 41.96 620.68 41.96 620.7 41.96 620.72 41.96 620.74 41.95 620.76 41.95 620.77 41.94 620.79 41.94 620.81 41.94 620.82 41.94 620.84 41.94 620.86 41.94 620.88 41.95 620.9 41.95 620.92 41.95 620.94 41.96 620.96 41.96 620.98 41.96 620.99 41.97 621.01 41.97 621.04 41.97 621.11 41.98 621.14 42.07 621.24 41.98 621.25 41.97 621.29 41.94 621.31 41.93 621.33 41.91 621.34 41.91 621.37 41.88 621.38 41.87 621.39 41.85 621.39 41.83 621.4 41.83 621.42 41.84 621.43 41.85 621.45 41.87 621.46 41.87 621.48 41.88 621.5 41.88 621.51 41.88 621.53 41.88 621.55 41.89 621.56 41.9 621.58 41.91 621.59 41.93 621.6 41.95 621.61 41.97 621.63 41.98 621.64 42 621.66 42.01 621.67 42.02 621.69 42.03 621.7 42.04 621.7 42.05 621.7 42.06 621.7 42.07 621.69 42.08 621.68 42.1 621.68 42.11 621.67 42.13 621.67 42.15 621.66 42.17 621.65 42.19 621.65 42.21 621.64 42.23 621.64 42.25 621.65 42.26 621.66 42.28 621.67 42.29 621.68 42.31 621.7 42.36 621.69 42.37 621.69 42.38 621.69 42.4 621.68 42.43 621.68 42.44 621.67 42.45 621.67 42.46 621.66 42.47 621.66 42.48 621.67 42.5 621.67 42.51 621.67 42.53 621.67 42.54 621.68 42.56 621.68 42.58 621.68 42.59 621.68 42.61 621.69 42.62 621.71 42.63 621.72 42.64 621.73 42.65 621.75 42.66 621.77 42.67 621.79 42.67 621.8 42.68 621.84 42.7 621.85 42.72 621.86 42.73 621.87 42.75 621.87 42.76 621.87 42.78 621.88 42.8 621.88 42.82 621.89 42.84 621.89 42.85 621.89 42.87 621.9 42.88 621.9 42.9 621.91 42.94 621.91 42.97 621.91 42.99 622.15 42.99 622.26 42.99 622.52 42.99 622.84 42.99 623.1 42.99 623.12 42.99 623.13 42.99 623.13 43 623.15 43 623.15 42.98 623.19 42.98 623.19 42.99 623.19 43 623.28 43.01 623.3 43.03 623.33 43.08 623.35 43.11 623.41 43.19 623.45 43.25 623.46 43.26 623.49 43.3 623.54 43.34 623.58 43.39 623.63 43.42 623.65 43.45 623.68 43.46 623.72 43.48 623.76 43.5 623.8 43.51 623.84 43.53 623.87 43.54 623.88 43.55 623.92 43.57 623.95 43.59 623.99 43.61 624.02 43.62 624.04 43.64 624.07 43.66 624.1 43.69 624.16 43.69 624.42 43.71 624.45 43.71 624.52 43.73 624.64 43.75 624.77 43.75 624.8 43.74 624.83 43.72 624.87 43.71 624.89 43.7 624.92 43.68 624.95 43.68 624.98 43.66 625.01 43.65 625.02 43.65 625.06 43.63 625.09 43.61 625.12 43.59 625.14 43.56 625.16 43.53 625.19 43.5 625.21 43.47 625.23 43.44 625.25 43.41 625.26 43.39 625.29 43.36 625.31 43.32 625.34 43.29 625.37 43.26 625.39 43.24 625.42 43.23 625.44 43.22 625.46 43.21 625.48 43.19 625.5 43.18 625.51 43.17 625.54 43.17 625.56 43.16 625.59 43.16 625.62 43.16 625.65 43.16 625.72 43.16 625.75 43.16 625.78 43.17 625.82 43.16 625.85 43.16 625.88 43.16 625.91 43.16 625.94 43.16 625.97 43.16 625.99 43.15 626.03 43.14 626.06 43.12 626.07 43.09 626.08 43.08 626.1 43.07 626.12 43.06 Z"/>
</g></svg>