<svg xmlns="http://www.w3.org/2000/svg" version="1.2" baseProfile="tiny" stroke-linecap="round" stroke-linejoin="round" viewBox="473.48 67.3 16.15 16.37"><g xmlns="http://www.w3.org/2000/svg" id="Hendaia">
<path d="M 489.56 69.05 489.57 69.11 489.58 69.22 489.52 69.36 489.51 69.38 489.49 69.39 489.47 69.41 489.41 69.48 489.39 69.51 489.37 69.53 489.38 69.55 489.41 69.61 489.45 69.7 489.5 69.77 489.51 69.79 489.57 69.87 489.59 69.91 489.6 69.95 489.62 69.99 489.62 70.02 489.63 70.05 489.63 70.09 489.63 70.16 489.63 70.26 489.63 70.28 489.63 70.29 489.63 70.31 489.62 70.33 489.61 70.35 489.6 70.36 489.58 70.38 489.56 70.4 489.54 70.42 489.49 70.48 489.48 70.49 489.43 70.54 489.38 70.6 489.34 70.64 489.32 70.66 489.28 70.71 489.24 70.76 489.21 70.8 489.19 70.84 489.17 70.86 489.13 70.92 489.09 70.98 489.07 71 489.04 71.03 488.99 71.1 488.93 71.2 488.91 71.23 488.88 71.26 488.85 71.29 488.81 71.33 488.76 71.37 488.73 71.4 488.69 71.43 488.65 71.46 488.61 71.5 488.57 71.54 488.56 71.56 488.55 71.58 488.55 71.58 488.53 71.6 488.52 71.61 488.5 71.61 488.49 71.62 488.44 71.63 488.42 71.64 488.39 71.65 488.37 71.66 488.35 71.67 488.34 71.67 488.34 71.68 488.32 71.69 488.31 71.71 488.3 71.74 488.28 71.77 488.26 71.79 488.22 71.84 488.16 71.91 488.14 71.93 488.11 71.95 488.09 71.96 488.06 71.98 488.03 72 488.01 72.01 488 72.03 487.97 72.07 487.94 72.09 487.89 72.12 487.84 72.14 487.79 72.15 487.76 72.16 487.73 72.17 487.68 72.2 487.62 72.24 487.57 72.28 487.52 72.31 487.51 72.32 487.49 72.33 487.39 72.39 487.35 72.42 487.32 72.44 487.29 72.45 487.26 72.46 487.23 72.46 487.17 72.48 487.14 72.49 487.1 72.49 487.06 72.5 487.01 72.52 486.98 72.53 486.95 72.53 486.95 72.53 486.92 72.53 486.9 72.53 486.86 72.52 486.78 72.49 486.71 72.46 486.67 72.45 486.63 72.44 486.61 72.44 486.6 72.44 486.59 72.43 486.52 72.43 486.47 72.42 486.42 72.42 486.37 72.41 486.34 72.4 486.28 72.39 486.27 72.38 486.26 72.38 486.23 72.38 486.23 72.39 486.24 72.4 486.24 72.42 486.24 72.44 486.23 72.46 486.23 72.48 486.21 72.52 486.2 72.54 486.05 72.55 486.05 72.55 485.95 72.59 485.96 72.77 485.96 72.89 485.97 72.92 485.98 72.92 485.99 72.93 485.99 72.95 485.98 72.98 485.98 73.01 485.98 73.05 485.98 73.09 485.98 73.1 485.98 73.12 485.99 73.13 485.99 73.16 486 73.18 486.01 73.22 486.03 73.28 486.04 73.33 486.05 73.38 486.05 73.42 486.04 73.45 486.04 73.49 486.02 73.54 486 73.59 485.98 73.63 485.97 73.65 485.94 73.71 485.91 73.75 485.89 73.78 485.88 73.81 485.87 73.85 485.87 73.87 485.87 73.91 485.87 73.94 485.88 73.99 485.89 74.04 485.89 74.06 485.91 74.19 485.92 74.24 485.94 74.28 485.95 74.32 485.98 74.38 485.99 74.4 485.97 74.44 485.96 74.45 485.96 74.46 485.95 74.46 485.93 74.46 485.92 74.46 485.88 74.45 485.83 74.43 485.77 74.42 485.71 74.41 485.67 74.41 485.61 74.41 485.57 74.41 485.52 74.43 485.48 74.44 485.46 74.47 485.44 74.5 485.42 74.55 485.42 74.6 485.41 74.63 485.39 74.66 485.37 74.67 485.34 74.68 485.3 74.67 485.23 74.67 485.2 74.67 485.17 74.67 485.12 74.67 485.07 74.68 485.05 74.68 484.99 74.68 484.85 74.57 484.8 74.53 484.75 74.52 484.68 74.5 484.66 74.39 484.66 74.38 484.66 74.36 484.66 74.35 484.63 74.35 484.6 74.36 484.56 74.36 484.51 74.36 484.46 74.36 484.42 74.37 484.41 74.37 484.38 74.39 484.34 74.4 484.32 74.42 484.3 74.43 484.28 74.45 484.25 74.47 484.22 74.5 484.21 74.52 484.2 74.54 484.21 74.59 484.21 74.63 484.22 74.66 484.23 74.69 484.23 74.72 484.24 74.75 484.26 74.79 484.27 74.8 484.28 74.81 484.29 74.83 484.31 74.87 484.32 74.93 484.34 74.98 484.36 75.01 484.36 75.02 484.38 75.06 484.4 75.09 484.41 75.13 484.42 75.16 484.44 75.22 484.45 75.25 484.47 75.29 484.48 75.31 484.49 75.34 484.51 75.37 484.52 75.41 484.53 75.44 484.52 75.47 484.51 75.51 484.49 75.53 484.48 75.55 484.46 75.57 484.43 75.61 484.42 75.64 484.41 75.67 484.41 75.69 484.42 75.71 484.42 75.73 484.42 75.74 484.41 75.75 484.4 75.78 484.4 75.8 484.4 75.82 484.4 75.84 484.41 75.87 484.42 75.88 484.43 75.89 484.44 75.91 484.45 75.92 484.44 75.94 484.43 75.96 484.42 75.97 484.42 75.98 484.41 76.01 484.4 76.08 484.38 76.15 484.37 76.19 484.36 76.21 484.35 76.22 484.35 76.23 484.34 76.25 484.34 76.27 484.34 76.28 484.34 76.32 484.34 76.37 484.34 76.43 484.34 76.49 484.35 76.58 484.35 76.63 484.34 76.64 484.33 76.66 484.31 76.68 484.26 76.72 484.22 76.75 484.19 76.78 484.15 76.81 484.11 76.83 484.06 76.87 484.01 76.9 483.96 76.94 483.93 76.97 483.89 77.01 483.88 77.03 483.9 77.04 483.92 77.06 483.95 77.11 483.93 77.16 483.92 77.19 483.91 77.23 483.89 77.26 483.87 77.29 483.85 77.3 483.82 77.31 483.8 77.33 483.77 77.37 483.72 77.42 483.69 77.45 483.67 77.48 483.64 77.52 483.62 77.57 483.58 77.62 483.55 77.66 483.53 77.7 483.53 77.74 483.53 77.76 483.52 77.79 483.5 77.86 483.48 77.94 483.48 77.96 483.47 77.99 483.44 78.04 483.39 78.09 483.33 78.14 483.31 78.15 483.24 78.21 483.15 78.29 483.1 78.33 483.07 78.36 482.97 78.44 482.93 78.47 482.89 78.49 482.82 78.51 482.66 78.54 482.61 78.55 482.51 78.58 482.44 78.59 482.39 78.6 482.32 78.62 482.26 78.65 482.2 78.69 482.18 78.73 482.16 78.78 482.14 78.83 482.11 78.88 482.08 78.93 482.05 78.98 482.03 79.03 482.03 79.04 482.02 79.09 482.02 79.15 482.02 79.17 482.01 79.24 482 79.3 482 79.31 481.97 79.48 481.96 79.57 481.94 79.64 481.94 79.71 481.93 79.78 481.93 79.83 481.94 79.88 481.94 79.9 481.95 79.93 481.96 79.97 481.99 80 482 80.04 482.01 80.05 482.03 80.1 482.04 80.15 482.04 80.2 482.04 80.26 482.03 80.33 482.02 80.39 482 80.45 481.97 80.51 481.93 80.57 481.89 80.62 481.88 80.63 481.83 80.68 481.75 80.77 481.68 80.85 481.64 80.88 481.61 80.92 481.6 80.93 481.58 80.95 481.19 80.92 481.06 80.9 480.86 81.01 480.75 80.91 480.89 80.76 480.93 80.7 480.77 80.49 480.75 80.47 480.71 80.4 480.62 80.45 480.51 80.5 480.5 80.5 480.45 80.51 480.37 80.53 480.34 80.54 480.31 80.55 480.25 80.58 480.22 80.58 480.2 80.58 480.14 80.57 480.12 80.56 480.12 80.58 480.12 80.6 480.1 80.67 480.07 80.77 480.05 80.81 480.05 80.82 480.05 80.89 480.05 80.96 480.05 81.01 480.02 81.14 480.01 81.21 480 81.27 479.99 81.31 479.96 81.38 479.95 81.41 479.95 81.41 479.93 81.48 479.92 81.52 479.97 81.55 480.04 81.61 480.06 81.63 480.12 81.69 480.17 81.75 480.22 81.83 480.26 81.93 480.26 81.94 480.11 82.04 480.03 82.09 480.02 82.16 480.02 82.18 480.01 82.24 479.99 82.28 479.96 82.31 479.94 82.32 479.92 82.34 479.87 82.37 479.84 82.4 479.84 82.43 479.82 82.48 479.81 82.56 479.81 82.63 479.81 82.69 479.81 82.7 479.82 82.73 479.84 82.76 479.87 82.77 479.93 82.78 479.97 82.78 480.08 82.74 480.15 82.73 480.23 82.75 480.28 82.76 480.33 82.76 480.39 82.78 480.47 82.79 480.53 82.79 480.62 82.77 480.65 82.77 480.76 82.78 480.89 82.79 481.04 82.8 481.17 82.8 481.28 82.86 481.32 82.9 481.38 82.97 481.32 83.01 481.2 83.09 481.14 83.12 481.06 83.15 480.95 83.16 480.89 83.17 480.85 83.18 480.8 83.18 480.73 83.21 480.52 83.29 480.42 83.34 480.32 83.39 480.29 83.41 480.24 83.44 480.14 83.5 480.04 83.55 480.02 83.56 479.93 83.59 479.82 83.62 479.69 83.62 479.58 83.63 479.43 83.64 479.23 83.64 479.17 83.62 479.09 83.6 478.96 83.57 478.88 83.55 478.81 83.53 478.77 83.52 478.73 83.5 478.7 83.46 478.69 83.45 478.67 83.41 478.63 83.36 478.59 83.32 478.55 83.29 478.48 83.25 478.42 83.22 478.37 83.19 478.32 83.18 478.26 83.17 478.16 83.14 478.07 83.11 478.01 83.09 477.95 83.08 477.86 83.04 477.82 83.02 477.81 83.02 477.71 82.97 477.65 82.93 477.6 82.89 477.58 82.85 477.56 82.83 477.54 82.8 477.5 82.74 477.46 82.63 477.43 82.53 477.42 82.39 477.39 82.26 477.37 82.15 477.37 82.08 477.36 81.96 477.36 81.93 477.35 81.82 477.35 81.78 477.33 81.64 477.31 81.57 477.3 81.55 477.27 81.5 477.26 81.48 477.23 81.43 477.19 81.4 477.15 81.37 477.1 81.37 477.06 81.36 477.04 81.36 477 81.35 476.97 81.35 476.81 81.35 476.72 81.35 476.65 81.35 476.54 81.34 476.41 81.34 476.18 81.34 476.1 81.34 476.09 81.34 476.01 81.34 475.96 81.34 475.88 81.33 475.75 81.29 475.59 81.25 475.48 81.21 475.4 81.17 475.31 81.1 475.26 81.06 475.21 80.95 475.2 80.94 475.19 80.92 475.17 80.9 475.16 80.89 475 80.71 474.98 80.68 474.95 80.66 474.95 80.65 474.94 80.65 474.78 80.51 474.77 80.5 474.77 80.49 474.72 80.43 474.69 80.4 474.67 80.37 474.62 80.33 474.37 80.17 474.34 80.15 474.13 80 474.08 79.96 474.05 79.93 473.98 79.86 473.97 79.85 473.96 79.83 473.92 79.75 473.89 79.7 473.87 79.4 473.91 79.29 473.91 79.27 474.1 78.94 474.12 78.9 474.6 78.18 474.69 78.05 475.12 77.49 475.22 77.38 475.7 76.87 475.96 76.59 476.13 76.42 476.38 76.02 476.65 75.62 476.69 75.23 476.65 75.06 476.25 74.84 475.86 74.71 475.22 74.51 475.17 74.49 474.43 74.32 474.14 74.15 474.12 74.14 473.88 73.75 473.72 73.49 473.7 73.46 473.67 73.41 473.66 73.4 473.5 73.03 473.49 73.01 473.58 73 473.61 73 473.93 73 473.98 73 473.99 73 473.96 72.88 473.94 72.84 473.93 72.8 473.92 72.76 473.9 72.76 473.89 72.76 473.87 72.76 473.87 72.74 473.88 72.71 473.87 72.68 473.86 72.64 473.85 72.6 473.83 72.53 473.81 72.47 473.78 72.38 473.75 72.31 473.72 72.2 473.7 72.15 473.69 72.11 473.68 72.06 473.68 72.03 473.68 71.99 473.68 71.94 473.68 71.9 473.68 71.86 473.68 71.83 473.69 71.8 473.7 71.74 473.72 71.65 473.75 71.54 473.79 71.37 473.84 71.2 473.93 70.84 473.98 70.66 473.98 70.65 474.01 70.55 474 70.53 474 70.5 474.01 70.48 474.02 70.45 474.04 70.41 474.06 70.36 474.08 70.32 474.12 70.27 474.15 70.22 474.17 70.17 474.2 70.12 474.22 70.1 474.25 70.08 474.28 70.07 474.31 70.09 474.32 70.11 474.32 70.13 474.31 70.15 474.31 70.17 474.29 70.19 474.26 70.22 474.22 70.26 474.13 70.42 474.1 70.47 474.1 70.49 474.1 70.51 474.09 70.53 474.08 70.54 474.06 70.57 474.05 70.59 474.04 70.62 473.99 70.8 473.93 71.02 473.85 71.3 473.78 71.53 473.78 71.59 473.8 71.61 473.85 71.63 473.9 71.64 473.95 71.66 474 71.67 474.05 71.7 474.12 71.73 474.19 71.76 474.24 71.78 474.35 71.81 474.41 71.81 474.49 71.82 474.55 71.83 474.61 71.83 474.67 71.84 474.77 71.85 474.83 71.86 474.9 71.87 474.95 71.88 475.01 71.88 475.07 71.88 475.13 71.9 475.2 71.91 475.25 71.92 475.3 71.94 475.36 71.96 475.42 71.97 475.48 71.97 475.56 71.99 475.62 72 475.7 72 475.75 72 475.81 72 475.91 72 476 71.99 476.12 71.99 476.18 71.99 476.25 72 476.34 72.01 476.42 72.01 476.5 72.03 476.58 72.04 476.66 72.04 476.71 72.04 476.76 72.03 476.82 72.02 476.88 72.01 476.95 72.01 477.02 72 477.11 72 477.16 72.01 477.25 72.01 477.26 72.02 477.28 72.03 477.42 72 477.61 71.96 477.61 71.95 477.61 71.94 477.62 71.92 477.63 71.91 477.65 71.91 477.68 71.91 477.71 71.9 477.72 71.88 477.73 71.86 477.73 71.84 477.74 71.83 477.75 71.82 477.78 71.81 477.81 71.8 477.82 71.79 477.84 71.79 477.86 71.78 477.88 71.77 477.91 71.76 477.93 71.76 477.95 71.76 477.96 71.77 477.99 71.76 478.03 71.75 478.06 71.75 478.07 71.75 478.1 71.77 478.14 71.8 478.16 71.8 478.17 71.8 478.19 71.79 478.26 71.78 478.32 71.76 478.38 71.75 478.46 71.73 478.52 71.71 478.58 71.7 478.63 71.68 478.7 71.66 478.74 71.65 478.78 71.64 478.86 71.61 478.95 71.58 479.03 71.55 479.08 71.54 479.11 71.54 479.13 71.52 479.2 71.5 479.27 71.48 479.36 71.45 479.45 71.42 479.56 71.39 479.66 71.36 479.74 71.34 479.81 71.31 479.89 71.29 479.95 71.27 480.01 71.25 480.07 71.22 480.13 71.2 480.25 71.16 480.39 71.11 480.5 71.08 480.6 71.05 480.62 71.05 480.63 71.06 480.64 71.05 480.68 71.03 480.77 70.99 480.89 70.95 480.97 70.92 480.99 70.92 481.01 70.9 481.05 70.88 481.09 70.85 481.12 70.83 481.17 70.81 481.22 70.78 481.26 70.76 481.29 70.76 481.34 70.72 481.38 70.69 481.48 70.63 481.65 70.54 481.7 70.51 481.75 70.48 481.8 70.43 481.85 70.38 481.91 70.34 481.96 70.31 482.01 70.29 482.05 70.27 482.08 70.26 482.1 70.26 482.12 70.27 482.14 70.29 482.17 70.31 482.19 70.32 482.21 70.33 482.22 70.29 482.22 70.26 482.2 70.24 482.18 70.23 482.18 70.2 482.18 70.17 482.19 70.15 482.22 70.15 482.25 70.14 482.29 70.12 482.34 70.09 482.43 70.04 482.48 70.01 482.53 69.98 482.57 69.96 482.61 69.93 482.67 69.89 482.71 69.86 482.75 69.84 482.8 69.81 482.83 69.79 482.86 69.78 482.89 69.75 482.96 69.72 482.99 69.69 483.01 69.67 483.03 69.64 483.06 69.62 483.08 69.6 483.1 69.57 483.13 69.55 483.14 69.53 483.16 69.51 483.17 69.49 483.18 69.47 483.17 69.44 483.17 69.41 483.17 69.39 483.17 69.37 483.17 69.34 483.16 69.31 483.15 69.3 483.14 69.27 483.13 69.27 483.1 69.26 483.08 69.25 483.04 69.25 483.02 69.24 483 69.24 482.98 69.23 482.97 69.21 482.96 69.19 482.96 69.17 482.96 69.15 482.96 69.13 482.95 69.11 482.95 69.1 482.95 69.04 482.96 69.03 482.98 69.01 483 69 482.99 68.98 483.01 68.95 483.03 68.95 483.05 68.95 483.07 68.95 483.1 68.94 483.11 68.93 483.12 68.92 483.13 68.91 483.15 68.89 483.17 68.87 483.18 68.85 483.19 68.83 483.18 68.82 483.18 68.79 483.16 68.79 483.13 68.78 483.11 68.77 483.11 68.76 483.12 68.75 483.12 68.73 483.11 68.73 483.09 68.72 483.08 68.7 483.07 68.67 483.05 68.65 483.03 68.64 483.05 68.63 483.06 68.62 483.08 68.62 483.09 68.62 483.1 68.62 483.12 68.62 483.14 68.64 483.15 68.65 483.17 68.67 483.19 68.69 483.21 68.73 483.23 68.74 483.25 68.76 483.27 68.78 483.3 68.79 483.32 68.8 483.35 68.81 483.37 68.8 483.41 68.79 483.42 68.78 483.44 68.78 483.45 68.78 483.46 68.8 483.48 68.81 483.49 68.82 483.49 68.84 483.49 68.85 483.49 68.87 483.51 68.88 483.52 68.88 483.53 68.88 483.57 68.86 483.59 68.85 483.62 68.83 483.65 68.81 483.67 68.79 483.68 68.78 483.68 68.76 483.68 68.73 483.67 68.7 483.67 68.68 483.67 68.66 483.64 68.65 483.64 68.64 483.64 68.61 483.64 68.59 483.63 68.59 483.6 68.57 483.56 68.55 483.53 68.52 483.52 68.49 483.51 68.46 483.48 68.43 483.47 68.4 483.47 68.37 483.46 68.35 483.44 68.31 483.41 68.28 483.4 68.26 483.41 68.25 483.42 68.23 483.43 68.23 483.45 68.21 483.46 68.18 483.46 68.16 483.44 68.13 483.45 68.11 483.46 68.09 483.47 68.07 483.48 68.05 483.49 68.05 483.49 68.04 483.51 68.03 483.52 68.02 483.54 68.02 483.55 68.03 483.55 68.04 483.57 68.04 483.59 68.03 483.59 68.01 483.61 67.97 483.6 67.95 483.59 67.94 483.58 67.93 483.58 67.92 483.58 67.91 483.56 67.91 483.54 67.9 483.53 67.88 483.53 67.86 483.52 67.84 483.53 67.81 483.54 67.79 483.55 67.79 483.57 67.8 483.59 67.8 483.62 67.78 483.64 67.78 483.67 67.79 483.69 67.8 483.72 67.78 483.73 67.79 483.75 67.79 483.78 67.79 483.81 67.79 483.83 67.78 483.85 67.76 483.87 67.74 483.89 67.73 483.9 67.72 483.92 67.7 483.94 67.69 483.96 67.68 483.98 67.66 483.98 67.65 483.97 67.62 483.97 67.6 483.97 67.58 483.98 67.56 483.99 67.57 484 67.58 484.01 67.6 484.03 67.63 484.04 67.63 484.07 67.63 484.08 67.63 484.1 67.62 484.11 67.61 484.13 67.62 484.14 67.6 484.16 67.59 484.17 67.58 484.18 67.58 484.18 67.57 484.17 67.51 484.16 67.48 484.15 67.45 484.15 67.43 484.16 67.42 484.17 67.41 484.17 67.38 484.16 67.37 484.15 67.36 484.13 67.35 484.12 67.34 484.14 67.32 484.16 67.3 484.19 67.3 484.21 67.3 484.22 67.3 484.23 67.31 484.25 67.31 484.26 67.31 484.27 67.3 484.28 67.31 484.27 67.33 484.28 67.33 484.29 67.34 484.3 67.34 484.32 67.34 484.33 67.35 484.34 67.37 484.35 67.38 484.36 67.41 484.36 67.43 484.38 67.42 484.39 67.4 484.4 67.38 484.41 67.37 484.43 67.36 484.44 67.34 484.46 67.33 484.48 67.33 484.5 67.34 484.51 67.35 484.51 67.36 484.5 67.37 484.5 67.37 484.49 67.39 484.48 67.4 484.47 67.42 484.45 67.44 484.44 67.46 484.45 67.46 484.46 67.47 484.48 67.49 484.48 67.49 484.5 67.48 484.51 67.47 484.51 67.46 484.52 67.46 484.54 67.46 484.54 67.47 484.54 67.48 484.53 67.49 484.51 67.5 484.49 67.51 484.5 67.52 484.51 67.53 484.54 67.55 484.55 67.55 484.57 67.56 484.58 67.55 484.6 67.54 484.61 67.53 484.63 67.53 484.65 67.52 484.66 67.52 484.68 67.51 484.69 67.52 484.7 67.54 484.71 67.55 484.73 67.57 484.73 67.59 484.74 67.63 484.74 67.64 484.74 67.65 484.77 67.65 484.8 67.65 484.83 67.66 484.85 67.66 484.86 67.65 484.88 67.65 484.89 67.63 484.91 67.62 484.92 67.61 484.93 67.6 484.94 67.6 484.95 67.6 484.96 67.61 484.96 67.63 484.97 67.64 484.97 67.66 484.97 67.68 484.96 67.69 484.93 67.7 484.9 67.71 484.88 67.72 484.87 67.74 484.86 67.75 484.86 67.78 484.88 67.8 484.89 67.81 484.9 67.82 484.9 67.85 484.89 67.87 484.88 67.89 484.87 67.92 484.87 67.94 484.87 67.96 484.86 67.98 484.85 68 484.84 68.02 484.83 68.04 484.83 68.07 484.83 68.1 484.83 68.14 484.83 68.16 484.84 68.19 484.82 68.21 484.8 68.24 484.78 68.27 484.78 68.29 484.79 68.32 484.79 68.33 484.8 68.35 484.78 68.38 484.77 68.41 484.77 68.44 484.78 68.48 484.79 68.51 484.8 68.54 484.81 68.57 484.82 68.58 484.84 68.58 484.86 68.6 484.87 68.62 484.89 68.65 484.91 68.67 484.93 68.68 484.96 68.69 484.98 68.7 485.01 68.7 485.02 68.71 485.03 68.71 485.05 68.73 485.08 68.74 485.1 68.75 485.13 68.75 485.15 68.75 485.17 68.75 485.22 68.78 485.25 68.78 485.28 68.79 485.31 68.8 485.34 68.8 485.36 68.81 485.38 68.81 485.41 68.81 485.43 68.81 485.45 68.81 485.47 68.81 485.48 68.81 485.51 68.81 485.55 68.81 485.58 68.82 485.61 68.82 485.64 68.82 485.68 68.81 485.7 68.81 485.73 68.81 485.76 68.79 485.79 68.78 485.81 68.76 485.82 68.74 485.84 68.74 485.87 68.73 485.9 68.72 485.93 68.71 485.94 68.7 485.94 68.69 485.96 68.68 485.97 68.67 485.98 68.67 485.99 68.68 486 68.69 486.02 68.7 486.01 68.71 486.02 68.72 486.04 68.74 486.07 68.76 486.1 68.78 486.12 68.79 486.14 68.8 486.15 68.81 486.17 68.8 486.18 68.8 486.2 68.79 486.2 68.81 486.2 68.82 486.2 68.83 486.19 68.83 486.18 68.85 486.18 68.87 486.19 68.9 486.2 68.92 486.21 68.94 486.22 68.96 486.23 68.98 486.24 68.99 486.26 69 486.28 69.02 486.31 69.03 486.34 69.05 486.35 69.05 486.36 69.06 486.38 69.06 486.4 69.07 486.42 69.07 486.44 69.08 486.45 69.09 486.46 69.1 486.47 69.1 486.49 69.11 486.5 69.1 486.51 69.1 486.53 69.1 486.56 69.09 486.58 69.09 486.6 69.08 486.61 69.07 486.62 69.07 486.63 69.07 486.63 69.08 486.63 69.09 486.64 69.1 486.64 69.12 486.65 69.13 486.66 69.14 486.66 69.16 486.67 69.18 486.68 69.21 486.69 69.23 486.71 69.25 486.72 69.27 486.73 69.28 486.75 69.29 486.76 69.29 486.77 69.3 486.78 69.3 486.79 69.31 486.79 69.32 486.8 69.33 486.82 69.34 486.85 69.37 486.87 69.38 486.88 69.38 486.9 69.38 486.92 69.38 486.95 69.38 486.97 69.37 486.99 69.37 487.01 69.36 487.03 69.34 487.04 69.33 487.05 69.31 487.07 69.3 487.09 69.29 487.09 69.28 487.12 69.27 487.13 69.27 487.15 69.27 487.17 69.28 487.18 69.28 487.19 69.29 487.21 69.28 487.22 69.28 487.23 69.29 487.25 69.3 487.27 69.31 487.28 69.31 487.3 69.31 487.32 69.31 487.34 69.31 487.37 69.32 487.42 69.33 487.44 69.33 487.46 69.33 487.48 69.33 487.51 69.33 487.53 69.32 487.54 69.32 487.56 69.32 487.57 69.31 487.6 69.31 487.61 69.31 487.62 69.31 487.64 69.31 487.66 69.3 487.67 69.29 487.68 69.29 487.69 69.28 487.7 69.27 487.71 69.26 487.71 69.25 487.72 69.24 487.72 69.23 487.73 69.22 487.74 69.21 487.75 69.21 487.76 69.2 487.76 69.19 487.77 69.18 487.78 69.17 487.8 69.17 487.81 69.17 487.82 69.18 487.84 69.18 487.86 69.17 487.87 69.17 487.9 69.17 487.91 69.17 487.93 69.16 487.94 69.15 487.95 69.15 487.96 69.15 487.97 69.16 487.97 69.15 487.98 69.14 487.98 69.13 487.98 69.12 487.98 69.11 487.97 69.11 487.98 69.09 487.99 69.08 488.01 69.06 488.02 69.06 488.03 69.06 488.05 69.05 488.09 69.02 488.12 68.99 488.16 68.97 488.17 68.96 488.18 68.94 488.19 68.92 488.21 68.9 488.23 68.88 488.25 68.87 488.26 68.87 488.26 68.88 488.27 68.88 488.28 68.88 488.31 68.88 488.33 68.86 488.35 68.85 488.38 68.83 488.38 68.82 488.38 68.81 488.38 68.8 488.39 68.79 488.4 68.78 488.41 68.77 488.41 68.76 488.42 68.75 488.43 68.74 488.44 68.73 488.44 68.72 488.44 68.72 488.43 68.71 488.43 68.71 488.42 68.7 488.4 68.71 488.38 68.7 488.4 68.69 488.43 68.69 488.46 68.68 488.47 68.68 488.49 68.67 488.49 68.68 488.5 68.7 488.5 68.71 488.5 68.72 488.5 68.73 488.51 68.74 488.51 68.74 488.53 68.74 488.55 68.74 488.56 68.74 488.55 68.75 488.55 68.75 488.56 68.76 488.57 68.76 488.6 68.76 488.62 68.76 488.64 68.76 488.65 68.76 488.67 68.76 488.69 68.77 488.71 68.76 488.73 68.75 488.73 68.73 488.74 68.73 488.76 68.72 488.79 68.71 488.81 68.71 488.82 68.71 488.83 68.7 488.84 68.7 488.85 68.71 488.85 68.72 488.84 68.73 488.84 68.75 488.85 68.77 488.86 68.78 488.88 68.78 488.9 68.77 488.91 68.77 488.93 68.76 488.94 68.77 488.96 68.77 488.97 68.76 488.98 68.76 488.98 68.77 488.99 68.78 489 68.78 489.02 68.78 489.03 68.78 489.05 68.79 489.06 68.8 489.08 68.81 489.09 68.82 489.1 68.82 489.11 68.81 489.12 68.82 489.13 68.83 489.15 68.83 489.16 68.83 489.17 68.84 489.17 68.85 489.19 68.87 489.22 68.86 489.25 68.86 489.38 68.8 489.4 68.8 489.4 68.82 489.43 68.93 489.43 68.94 489.42 68.95 489.41 68.96 489.39 68.97 489.38 68.98 489.37 69 489.37 69.01 489.38 69.02 489.39 69.01 489.44 69.01 489.49 69.03 489.52 69.04 489.56 69.05 Z"/>
</g></svg>