<svg xmlns="http://www.w3.org/2000/svg" version="1.2" baseProfile="tiny" stroke-linecap="round" stroke-linejoin="round" viewBox="412.25 107.4 32.9 42.98"><g xmlns="http://www.w3.org/2000/svg" id="Hernani">
<path d="M 412.61 109.69 412.97 109.82 413.25 109.86 413.52 109.8 413.94 109.39 413.97 109.37 413.93 109.29 413.86 109.13 413.79 108.96 413.78 108.82 413.8 108.82 414.06 108.82 414.32 108.82 414.98 108.33 415.05 108.33 415.25 108.32 415.61 108.29 415.93 108.3 416.12 108.31 415.93 108.65 415.79 108.96 415.75 109.33 415.82 109.33 415.86 109.34 415.88 109.35 415.9 109.35 415.93 109.36 415.94 109.36 415.95 109.36 415.98 109.38 416 109.38 416.01 109.38 416.02 109.39 416.03 109.39 416.05 109.39 416.06 109.39 416.15 109.39 416.18 109.39 416.24 109.39 416.27 109.39 416.28 109.39 416.33 109.38 416.35 109.39 416.39 109.39 416.4 109.39 416.41 109.4 416.42 109.41 416.43 109.41 416.44 109.42 416.45 109.43 416.46 109.44 416.47 109.46 416.48 109.46 416.49 109.47 416.5 109.48 416.51 109.49 416.52 109.5 416.53 109.51 416.55 109.52 416.57 109.52 416.61 109.54 416.65 109.55 416.67 109.55 416.7 109.55 416.73 109.56 416.76 109.55 416.79 109.55 416.81 109.54 416.82 109.54 416.85 109.53 416.87 109.52 416.89 109.5 416.92 109.48 416.93 109.46 416.96 109.4 416.97 109.38 416.98 109.35 416.99 109.34 417 109.33 417.01 109.32 417.04 109.28 417.04 109.27 417.05 109.26 417.06 109.24 417.11 109.17 417.13 109.15 417.13 109.14 417.14 109.13 417.15 109.11 417.16 109.09 417.17 109.07 417.18 109.07 417.19 109.06 417.21 109.06 417.27 109.05 417.29 109.04 417.29 109.04 417.31 109.02 417.26 108.64 417.63 108.19 417.94 107.79 417.98 107.73 418.79 107.42 419.38 107.5 419.66 107.55 420.1 107.82 420.33 107.82 420.46 107.86 421.19 108.13 421.43 108.24 421.58 108.36 421.78 108.63 422.29 109.16 422.64 109.49 423.19 109.69 423.7 109.84 423.48 110.27 424.13 110.37 424.42 110.59 425.5 110.65 425.7 110.58 425.78 110.47 425.9 110.26 425.95 110.18 425.98 110.08 426.35 109.78 425.99 110.85 425.72 111.13 425.76 111.24 426.24 111.58 426.5 111.82 427.25 112.49 427.32 112.53 427.37 112.69 427.43 112.67 427.45 112.67 427.46 112.69 427.46 112.71 427.44 112.73 427.46 112.73 427.47 112.73 427.47 112.74 427.48 112.74 427.49 112.75 427.5 112.75 427.51 112.76 427.52 112.77 427.54 112.78 427.56 112.8 427.58 112.81 427.6 112.82 427.6 112.82 427.61 112.83 427.62 112.84 427.64 112.84 427.64 112.85 427.65 112.85 427.67 112.86 427.68 112.87 427.68 112.87 427.7 112.88 427.72 112.89 427.73 112.89 427.75 112.89 427.77 112.89 427.79 112.89 427.82 112.89 427.83 112.9 427.85 112.9 427.85 112.91 427.87 112.92 427.89 112.93 427.9 112.94 427.92 112.96 427.92 112.96 427.93 112.97 427.96 112.99 427.97 113.01 427.98 113.01 427.99 113.03 428 113.04 428.01 113.04 428.01 113.06 428.02 113.07 428.03 113.08 428.05 113.11 428.05 113.12 428.05 113.12 428.07 113.14 428.07 113.14 428.08 113.15 428.09 113.16 428.11 113.17 428.12 113.18 428.13 113.18 428.15 113.19 428.18 113.2 428.19 113.2 428.2 113.2 428.21 113.21 428.22 113.21 428.23 113.22 428.24 113.22 428.25 113.23 428.26 113.23 428.27 113.25 428.27 113.25 428.28 113.26 428.29 113.27 428.29 113.27 428.3 113.28 428.32 113.29 428.33 113.3 428.34 113.31 428.35 113.32 428.35 113.33 428.36 113.34 428.36 113.35 428.36 113.35 428.36 113.36 428.36 113.37 428.37 113.38 428.37 113.39 428.38 113.4 428.38 113.41 428.39 113.44 428.4 113.45 428.41 113.46 428.42 113.47 428.43 113.48 428.44 113.49 428.45 113.49 428.46 113.5 428.47 113.51 428.47 113.52 428.48 113.53 428.49 113.55 428.52 113.57 428.53 113.57 428.54 113.58 428.55 113.58 428.56 113.59 428.57 113.59 428.58 113.6 428.6 113.6 428.61 113.61 428.62 113.62 428.64 113.63 428.64 113.63 428.69 113.66 428.7 113.66 428.71 113.67 428.72 113.67 428.73 113.67 428.75 113.67 428.76 113.67 428.78 113.66 428.79 113.65 428.79 113.64 428.81 113.63 428.81 113.62 428.83 113.61 428.84 113.6 428.85 113.59 428.86 113.58 428.86 113.58 428.87 113.57 428.88 113.56 428.89 113.55 428.9 113.53 428.91 113.52 428.91 113.52 428.92 113.51 428.93 113.5 428.94 113.5 428.95 113.49 428.96 113.49 428.97 113.49 428.98 113.48 428.98 113.48 429 113.48 429.01 113.47 429.02 113.47 429.03 113.46 429.04 113.46 429.05 113.45 429.06 113.45 429.07 113.44 429.09 113.43 429.1 113.43 429.11 113.42 429.12 113.42 429.14 113.41 429.15 113.4 429.16 113.4 429.18 113.39 429.18 113.39 429.2 113.37 429.2 113.36 429.2 113.35 429.21 113.34 429.21 113.33 429.22 113.32 429.23 113.32 429.24 113.31 429.25 113.3 429.26 113.3 429.26 113.3 429.27 113.29 429.28 113.29 429.29 113.29 429.3 113.29 429.31 113.28 429.32 113.28 429.33 113.28 429.34 113.27 429.35 113.27 429.35 113.27 429.36 113.26 429.37 113.26 429.38 113.26 429.39 113.26 429.41 113.26 429.42 113.26 429.42 113.26 429.44 113.27 429.45 113.27 429.45 113.27 429.46 113.28 429.47 113.29 429.49 113.3 429.5 113.31 429.52 113.31 429.53 113.3 429.53 113.3 429.55 113.3 429.56 113.29 429.58 113.28 429.59 113.28 429.6 113.27 429.61 113.27 429.62 113.27 429.63 113.26 429.64 113.25 429.65 113.25 429.66 113.24 429.68 113.24 429.7 113.23 429.71 113.23 429.72 113.23 429.73 113.23 429.74 113.23 429.75 113.23 429.76 113.23 429.78 113.23 429.78 113.23 429.79 113.23 429.81 113.23 429.82 113.23 429.83 113.24 429.84 113.24 429.85 113.24 429.87 113.24 429.88 113.24 429.89 113.25 429.91 113.25 429.92 113.25 429.93 113.25 429.94 113.26 429.95 113.26 429.97 113.26 429.98 113.26 430 113.26 430.01 113.26 430.02 113.27 430.04 113.27 430.05 113.27 430.07 113.27 430.09 113.28 430.1 113.28 430.12 113.29 430.13 113.29 430.14 113.3 430.16 113.3 430.17 113.31 430.19 113.32 430.2 113.32 430.22 113.33 430.23 113.33 430.25 113.33 430.27 113.33 430.28 113.33 430.3 113.33 430.31 113.33 430.33 113.33 430.38 113.32 430.39 113.33 430.42 113.36 430.45 113.39 430.48 113.42 430.5 113.45 430.52 113.47 430.53 113.48 430.55 113.5 430.57 113.52 430.6 113.55 430.62 113.58 430.64 113.6 430.67 113.63 430.7 113.66 430.73 113.69 430.76 113.73 430.78 113.76 430.8 113.8 430.84 113.84 430.86 113.87 430.9 113.91 430.95 113.98 430.96 113.99 431 114.03 431.03 114.07 431.04 114.08 431.07 114.11 431.07 114.11 431.12 114.15 431.14 114.25 431.14 114.6 431.14 114.89 431.28 115.17 431.56 115.41 431.78 115.36 431.79 115.37 431.79 115.39 431.79 115.41 431.78 115.44 431.78 115.47 431.78 115.52 431.77 115.56 431.77 115.6 431.78 115.66 431.78 115.69 431.77 115.71 431.76 115.72 431.75 115.76 431.73 115.8 431.72 115.84 431.71 115.87 431.69 115.92 431.69 115.95 431.68 115.97 431.66 115.99 431.65 116.02 431.63 116.05 431.61 116.08 431.58 116.1 431.56 116.13 431.51 116.19 431.49 116.22 431.47 116.25 431.45 116.27 431.43 116.28 431.38 116.29 431.38 116.3 431.39 116.33 431.4 116.36 431.41 116.4 431.43 116.45 431.44 116.46 431.46 116.49 431.48 116.51 431.5 116.52 431.54 116.53 431.56 116.55 431.58 116.55 431.6 116.57 431.62 116.58 431.64 116.61 431.66 116.63 431.68 116.65 431.71 116.69 431.74 116.72 431.75 116.74 431.78 116.77 431.79 116.78 431.79 116.81 431.78 116.83 431.78 116.85 431.76 116.92 431.78 116.95 431.79 116.96 431.79 117.01 431.79 117.04 431.78 117.08 431.75 117.11 431.73 117.14 431.7 117.16 431.68 117.18 431.66 117.19 431.64 117.2 431.63 117.2 431.63 117.21 431.63 117.22 431.64 117.24 431.64 117.25 431.66 117.33 431.66 117.35 431.66 117.37 431.67 117.42 431.69 117.45 431.71 117.48 431.75 117.52 431.77 117.56 431.79 117.6 431.81 117.64 431.83 117.67 431.84 117.72 431.85 117.77 431.85 117.81 431.85 117.85 431.85 117.89 431.85 117.91 431.85 117.92 431.86 117.95 431.86 117.99 431.88 118.09 431.89 118.12 431.89 118.19 431.9 118.27 431.9 118.3 431.92 118.35 431.93 118.41 431.93 118.45 431.93 118.5 431.93 118.54 431.93 118.56 431.93 118.61 431.94 118.72 431.94 118.8 431.95 118.85 431.95 118.9 431.95 118.95 431.95 119.03 431.95 119.07 431.92 119.07 431.8 119.17 431.81 119.27 431.82 119.27 431.89 119.25 431.93 119.24 431.96 119.23 432 119.19 432.05 119.16 432.09 119.15 432.14 119.15 432.2 119.16 432.23 119.15 432.26 119.14 432.31 119.13 432.38 119.14 432.44 119.15 432.47 119.15 432.47 119.15 432.53 119.12 432.6 119.08 432.63 119.06 432.68 119.02 432.69 119.01 432.76 118.96 432.83 118.92 432.86 118.91 432.87 118.91 432.91 118.91 432.92 118.91 432.94 118.91 432.96 118.91 432.99 118.92 433 118.92 433.03 118.94 433.06 118.95 433.11 118.97 433.18 119 433.21 119.01 433.23 119.01 433.26 119.01 433.32 118.98 433.35 118.94 433.41 118.85 433.45 118.8 433.48 118.74 433.51 118.68 433.54 118.59 433.56 118.52 433.57 118.5 433.56 118.48 433.56 118.45 433.55 118.41 433.55 118.36 433.55 118.32 433.56 118.28 433.61 118.21 433.65 118.16 433.72 118.13 433.75 118.11 433.79 118.07 433.85 118.02 433.89 117.99 433.94 117.97 433.98 117.94 434.02 117.93 434.03 117.92 434.06 117.91 434.08 117.91 434.1 117.91 434.11 117.9 434.13 117.9 434.15 117.89 434.16 117.89 434.18 117.88 434.2 117.87 434.22 117.86 434.23 117.85 434.25 117.84 434.26 117.83 434.28 117.82 434.29 117.8 434.3 117.79 434.31 117.78 434.32 117.77 434.34 117.75 434.35 117.73 434.36 117.72 434.37 117.7 434.39 117.7 434.4 117.69 434.42 117.69 434.44 117.69 434.46 117.69 434.48 117.69 434.51 117.69 434.54 117.7 434.57 117.71 434.59 117.71 434.62 117.72 434.65 117.73 434.67 117.74 434.7 117.74 434.73 117.75 434.75 117.75 434.76 117.74 434.78 117.73 434.79 117.72 434.8 117.7 434.81 117.68 434.82 117.66 434.83 117.64 434.84 117.63 434.85 117.61 434.86 117.59 434.88 117.58 434.89 117.57 434.91 117.56 434.93 117.56 434.95 117.56 434.96 117.56 434.98 117.56 435 117.56 435.02 117.56 435.04 117.56 435.06 117.57 435.09 117.58 435.11 117.58 435.12 117.59 435.16 117.6 435.17 117.6 435.18 117.59 435.21 117.56 435.22 117.53 435.23 117.5 435.25 117.46 435.25 117.44 435.26 117.41 435.26 117.39 435.27 117.36 435.27 117.33 435.28 117.29 435.29 117.25 435.3 117.2 435.31 117.17 435.31 117.15 435.32 117.13 435.33 117.1 435.34 117.08 435.35 117.06 435.36 117.04 435.38 117.02 435.39 117.01 435.41 116.99 435.43 116.97 435.43 116.97 435.44 116.96 435.46 116.94 435.49 116.93 435.54 116.9 435.55 116.9 435.57 116.89 435.61 116.87 435.65 116.86 435.68 116.85 435.7 116.84 435.72 116.82 435.73 116.81 435.73 116.78 435.74 116.75 435.73 116.73 435.73 116.72 435.73 116.71 435.72 116.68 435.71 116.66 435.7 116.64 435.71 116.63 435.72 116.62 435.74 116.61 435.78 116.6 435.83 116.62 435.89 116.65 435.95 116.68 435.98 116.7 436.01 116.72 436.05 116.73 436.07 116.74 436.12 116.77 436.18 116.77 436.21 116.78 436.22 116.78 436.23 116.78 436.25 116.78 436.27 116.78 436.29 116.78 436.31 116.78 436.33 116.78 436.35 116.78 436.37 116.78 436.39 116.78 436.41 116.79 436.43 116.8 436.45 116.81 436.48 116.81 436.5 116.82 436.52 116.82 436.55 116.82 436.58 116.82 436.61 116.82 436.65 116.82 436.68 116.82 436.71 116.82 436.72 116.82 436.72 116.81 436.75 116.81 436.77 116.81 436.79 116.81 436.82 116.8 436.84 116.79 436.86 116.78 436.89 116.76 436.91 116.75 436.94 116.73 436.97 116.71 437 116.69 437.01 116.67 437.03 116.65 437.04 116.64 437.06 116.63 437.08 116.6 437.1 116.58 437.14 116.55 437.18 116.53 437.22 116.57 437.5 117.04 438.12 118.07 438.52 118.78 438.56 118.85 438.56 118.84 438.62 118.81 438.69 118.77 438.71 118.76 438.76 118.73 438.79 118.72 438.81 118.71 438.95 118.66 439.02 118.63 439.05 118.62 439.19 118.57 439.25 118.53 439.43 118.46 439.53 118.38 439.7 118.32 439.79 118.32 439.89 118.28 439.97 118.22 440 118.19 440.04 118.15 440.07 118.12 440.1 118.11 440.14 118.11 440.2 118.09 440.31 118.06 440.33 118.06 440.41 118.06 440.43 118.06 440.48 118.04 440.55 118.02 440.58 118 440.62 117.97 440.67 117.93 440.7 117.91 440.74 117.89 440.78 117.85 440.85 117.8 440.9 117.77 440.94 117.75 440.96 117.74 440.99 117.72 441.05 117.71 441.08 117.69 441.11 117.67 441.16 117.64 441.22 117.61 441.3 117.57 441.31 117.55 441.59 118.18 441.75 119.41 441.78 119.57 441.73 119.66 442.08 119.75 442.28 120.09 442.38 120.19 442.73 119.94 442.64 119.41 442.9 119.41 442.92 119.44 442.99 119.49 443 119.5 443.05 119.51 443.08 119.51 443.11 119.52 443.23 119.56 443.27 119.59 443.31 119.62 443.41 119.67 443.46 119.67 443.58 119.7 443.65 119.75 443.82 119.77 443.95 119.78 444.06 119.8 444.23 119.83 444.9 119.96 444.82 120.38 444.81 120.41 444.82 120.47 444.84 120.52 444.86 120.58 444.87 120.65 444.89 120.73 444.92 120.79 444.96 120.82 445.01 120.86 445.05 120.91 445.09 120.98 445.11 121.04 445.11 121.05 445.13 121.16 445.1 121.31 445.1 121.4 445.11 121.49 445.03 121.55 445 121.6 444.98 121.73 445 121.85 445.01 121.93 445.06 122.03 445.08 122.16 445.15 122.26 443.92 122.85 443.24 123.29 443.1 123.29 443.27 123.75 443.25 124.07 443.24 124.16 442.84 124.91 442.78 125.05 442.77 125.06 442.74 125.1 442.71 125.14 442.68 125.17 442.65 125.19 442.55 125.24 442.51 125.26 442.5 125.27 442.46 125.27 442.4 125.29 442.35 125.31 442.28 125.34 442.23 125.36 442.2 125.36 442.17 125.36 442.1 125.35 442.02 125.34 441.92 125.33 441.85 125.32 441.76 125.31 441.7 125.31 441.63 125.32 441.56 125.34 441.45 125.37 441.36 125.38 441.27 125.41 441.19 125.43 441.08 125.47 440.99 125.52 440.91 125.56 440.83 125.59 440.71 125.61 440.6 125.63 440.54 125.64 440.46 125.66 440.39 125.67 440.31 125.71 440.27 125.73 440.22 125.76 440.15 125.79 440.17 125.85 440.21 125.92 440.24 125.98 440.27 126.03 440.31 126.11 440.33 126.16 440.36 126.22 440.38 126.25 440.4 126.29 440.45 126.4 440.47 126.42 440.48 126.45 440.51 126.49 440.52 126.52 440.55 126.57 440.56 126.61 440.57 126.66 440.58 126.71 440.58 126.75 440.58 126.81 440.58 126.85 440.57 126.89 440.56 126.94 440.55 127 440.55 127.04 440.55 127.08 440.54 127.12 440.54 127.15 440.55 127.19 440.54 127.24 440.51 127.27 440.49 127.29 440.46 127.31 440.45 127.33 440.42 127.34 440.4 127.36 440.37 127.38 440.33 127.41 440.28 127.44 440.25 127.47 440.2 127.51 440.17 127.54 440.14 127.57 440.12 127.59 440.1 127.62 440.08 127.63 440.05 127.66 440.02 127.68 440 127.72 439.99 127.74 439.99 127.77 439.99 127.79 439.98 127.82 439.97 127.86 439.97 127.88 439.95 127.91 439.93 127.93 439.88 127.97 439.85 127.99 439.81 128 439.78 128.03 439.74 128.05 439.72 128.07 439.69 128.1 439.67 128.13 439.65 128.17 439.64 128.21 439.63 128.26 439.6 128.31 439.6 128.34 439.61 128.38 439.63 128.45 439.65 128.49 439.67 128.53 439.7 128.56 439.73 128.58 439.75 128.6 439.77 128.62 439.79 128.67 439.81 128.72 439.82 128.76 439.85 128.8 439.87 128.84 439.89 128.86 439.9 128.9 439.87 128.99 439.82 129 439.78 129.02 439.73 129.06 439.69 129.09 439.67 129.13 439.62 129.19 439.61 129.21 439.58 129.26 439.54 129.34 439.51 129.41 439.48 129.46 439.47 129.49 439.44 129.54 439.42 129.57 439.41 129.58 439.37 129.62 439.34 129.65 439.32 129.65 439.3 129.67 439.28 129.67 439.25 129.68 439.24 129.69 439.21 129.71 439.15 129.73 439.1 129.76 439.09 129.77 439.04 129.8 439 129.82 438.96 129.85 438.93 129.88 438.91 129.91 438.89 129.94 438.88 129.95 438.87 129.98 438.86 130.01 438.84 130.04 438.84 130.07 438.83 130.1 438.82 130.14 438.81 130.21 438.81 130.25 438.8 130.29 438.79 130.39 438.78 130.42 438.76 130.45 438.74 130.47 438.73 130.48 438.71 130.49 438.68 130.5 438.64 130.51 438.63 130.51 438.6 130.52 438.58 130.53 438.55 130.55 438.54 130.56 438.51 130.59 438.5 130.62 438.49 130.64 438.48 130.65 438.47 130.69 438.47 130.69 438.46 130.72 438.46 130.76 438.47 130.78 438.48 130.81 438.52 130.85 438.53 130.86 438.55 130.87 438.56 130.89 438.58 130.9 438.62 130.93 438.67 130.95 438.74 130.98 438.81 131 438.88 131.03 438.96 131.06 439.03 131.09 439.11 131.12 439.17 131.14 439.21 131.16 439.24 131.18 439.27 131.21 439.29 131.23 439.3 131.25 439.31 131.28 439.32 131.32 439.32 131.35 439.31 131.38 439.3 131.42 439.28 131.44 439.26 131.47 439.23 131.49 439.18 131.5 439.13 131.51 439.13 131.54 439.14 131.65 439.14 131.71 439.14 131.74 439.15 131.79 439.15 131.8 439.16 131.87 439.17 131.93 439.18 131.98 439.2 132.05 439.21 132.1 439.21 132.14 439.22 132.16 439.22 132.18 439.22 132.2 439.22 132.22 439.23 132.22 439.24 132.29 439.24 132.31 439.27 132.47 439.27 132.48 439.28 132.57 439.28 132.6 439.31 132.66 439.32 132.71 439.35 132.8 439.38 132.86 439.42 132.96 439.46 133.04 439.47 133.05 439.49 133.12 439.51 133.19 439.51 133.21 439.53 133.33 439.54 133.34 439.54 133.36 439.54 133.38 439.55 133.46 439.56 133.49 439.56 133.52 439.6 133.64 439.58 133.79 439.58 133.83 439.57 133.92 439.57 133.95 439.57 134.03 439.56 134.12 439.56 134.13 439.54 134.3 439.51 134.42 439.49 134.5 439.49 134.51 439.47 134.62 439.46 134.64 439.44 134.74 439.41 134.85 439.39 134.97 439.37 135.05 439.36 135.11 439.36 135.18 439.35 135.2 439.35 135.22 439.35 135.24 439.35 135.3 439.34 135.36 439.34 135.43 439.33 135.51 439.35 135.61 439.36 135.63 439.37 135.67 439.39 135.74 439.41 135.83 439.41 135.84 439.43 135.92 439.44 135.93 439.44 135.94 439.45 135.97 439.46 136 439.46 136.03 439.49 136.07 439.5 136.09 439.54 136.13 439.59 136.2 439.61 136.26 439.61 136.27 439.63 136.33 439.64 136.35 439.65 136.39 439.69 136.56 439.73 136.71 439.75 136.79 439.76 136.81 439.77 136.85 439.77 136.87 439.79 136.93 439.8 136.98 439.81 137 439.81 137.03 439.82 137.06 439.84 137.12 439.85 137.18 439.85 137.19 439.88 137.3 439.89 137.34 439.9 137.39 439.91 137.44 439.92 137.5 439.93 137.51 439.94 137.58 439.95 137.67 439.96 137.71 439.96 137.75 439.97 137.83 439.98 137.85 439.99 137.92 439.99 137.93 439.99 137.95 440 138.05 440.01 138.11 440.01 138.11 440.03 138.25 440.04 138.37 440.06 138.47 440.06 138.51 440.05 138.56 439.99 138.7 439.98 138.73 439.96 138.79 439.91 138.91 439.88 138.99 439.86 139.04 439.82 139.13 439.78 139.24 439.77 139.27 439.72 139.39 439.68 139.48 439.67 139.51 439.65 139.56 439.62 139.62 439.58 139.74 439.57 139.75 439.53 139.87 439.5 139.92 439.5 139.93 439.48 139.98 439.45 140.07 439.42 140.14 439.4 140.19 439.37 140.26 439.33 140.37 439.32 140.38 439.29 140.47 439.28 140.48 439.23 140.6 439.23 140.62 439.19 140.73 439.18 140.74 439.16 140.78 439.11 140.92 439.08 140.99 439.07 141.05 439.07 141.06 439.06 141.15 439.06 141.16 439.05 141.25 439.05 141.34 439.05 141.38 439.05 141.41 439.05 141.42 439.06 141.44 439.06 141.55 439.07 141.62 439.07 141.66 439.06 141.7 439.02 141.79 438.98 141.88 438.97 141.9 438.97 141.93 438.96 141.97 438.95 142.02 438.95 142.04 438.93 142.15 438.92 142.2 438.88 142.27 438.85 142.33 438.85 142.33 438.84 142.34 438.83 142.36 438.81 142.41 438.78 142.48 438.76 142.51 438.72 142.59 438.66 142.67 438.63 142.71 438.56 142.81 438.53 142.86 438.5 142.89 438.49 142.91 438.41 143.01 438.33 143.14 438.31 143.17 438.3 143.18 438.28 143.22 438.25 143.27 438.24 143.29 438.21 143.32 438.19 143.36 438.17 143.39 438.03 143.6 437.67 143.6 437.66 143.64 437.65 143.68 437.64 143.73 437.61 143.82 437.56 143.93 437.48 144.05 437.47 144.06 437.41 144.14 437.39 144.17 437.32 144.27 437.25 144.38 437.12 144.51 437.08 144.55 437.07 144.56 437.03 144.6 436.98 144.65 436.95 144.68 436.94 144.72 436.91 144.87 436.88 145.01 436.87 145.09 436.88 145.21 436.89 145.43 436.9 145.66 436.93 145.89 436.97 146.21 436.97 146.27 436.98 146.31 436.98 146.34 436.98 146.4 436.98 146.41 436.95 146.59 436.87 146.97 436.85 147.03 436.83 147.12 436.81 147.24 436.76 147.45 436.71 147.66 436.72 147.82 436.74 147.97 436.76 148.06 436.79 148.16 436.8 148.26 436.82 148.4 436.83 148.46 436.83 148.46 436.83 148.47 436.87 148.73 436.95 148.83 437.11 149.03 437.26 149.21 437.27 149.22 437.29 149.3 437.34 149.6 437.35 149.62 437.35 149.65 437.36 149.71 437.4 149.88 437.37 150.03 437.35 150.09 437.33 150.18 437.32 150.21 437.32 150.26 437.31 150.35 437.32 150.37 436.3 150.23 436.28 150.23 436.2 150.22 436.12 150.2 436.01 150.17 435.97 150.16 435.91 150.14 435.84 150.12 435.76 150.1 435.65 150.07 435.55 150.06 435.51 150.05 435.48 150.04 435.45 150.03 435.42 150 435.37 149.97 435.32 149.94 435.26 149.91 435.23 149.9 435.12 149.88 435.08 149.86 435.01 149.84 434.95 149.81 434.88 149.78 434.83 149.74 434.78 149.71 434.73 149.68 434.67 149.64 434.63 149.6 434.56 149.57 434.51 149.54 434.46 149.52 434.41 149.5 434.36 149.48 434.31 149.43 434.29 149.41 434.27 149.37 434.25 149.3 434.22 149.22 434.19 149.16 434.14 149.08 434.12 149.03 434.09 148.98 434.06 148.95 434.01 148.93 433.97 148.92 433.92 148.89 433.88 148.86 433.84 148.83 433.8 148.79 433.76 148.76 433.7 148.71 433.65 148.67 433.61 148.64 433.6 148.64 433.54 148.6 433.49 148.55 433.43 148.5 433.41 148.48 433.37 148.43 433.34 148.39 433.31 148.34 433.28 148.3 433.26 148.25 433.24 148.2 433.21 148.14 433.2 148.11 433.16 148.06 433.12 148.01 433.09 147.97 433.05 147.94 433.04 147.93 433.01 147.9 432.99 147.89 432.93 147.86 432.85 147.83 432.78 147.8 432.71 147.76 432.66 147.74 432.62 147.72 432.56 147.68 432.54 147.66 432.53 147.63 432.52 147.61 432.51 147.59 432.49 147.55 432.48 147.52 432.46 147.47 432.44 147.45 432.43 147.44 432.4 147.43 432.36 147.42 432.31 147.41 432.25 147.4 432.18 147.38 432.14 147.38 432.1 147.38 432.04 147.39 432 147.4 431.98 147.41 431.97 147.41 431.94 147.43 431.88 147.44 431.82 147.45 431.81 147.45 431.79 147.45 431.75 147.44 431.74 147.43 431.72 147.43 431.71 147.43 431.7 147.43 431.68 147.43 431.64 147.43 431.56 147.42 431.48 147.39 431.33 147.36 431.27 147.35 431.2 147.34 431.17 147.34 431.14 147.32 431.11 147.3 431.07 147.29 431.05 147.29 431.01 147.3 430.96 147.31 430.9 147.31 430.81 147.3 430.77 147.29 430.73 147.28 430.66 147.25 430.56 147.17 430.36 147.07 430.16 147.05 430.03 147 429.92 146.94 429.74 146.85 429.61 146.75 429.43 146.65 429.29 146.53 429.19 146.43 429.11 146.37 428.95 146.28 428.83 146.15 428.74 146.09 428.52 145.9 428.47 145.78 428.4 145.72 428.27 145.65 428.08 145.57 427.87 145.41 427.71 145.27 427.65 145.17 427.55 144.95 427.44 144.78 427.41 144.7 427.36 144.58 427.3 144.47 427.18 144.27 427.16 144.22 427.12 144.19 427.03 144.15 426.95 144.14 426.88 144.12 426.85 144.12 426.83 144.1 426.8 144.06 426.78 144.03 426.75 144.03 426.71 144.03 426.65 144.03 426.59 144.03 426.56 144.02 426.55 144.01 430.02 142.46 430.03 142.47 430.04 142.47 430.05 142.46 430.06 142.45 430.07 142.44 430.08 142.43 430.09 142.42 430.11 142.41 430.11 142.41 430.12 142.4 430.13 142.4 430.14 142.39 430.15 142.39 430.15 142.38 430.16 142.37 430.16 142.35 430.16 142.34 430.17 142.33 430.18 142.32 430.19 142.31 430.2 142.3 430.22 142.28 430.23 142.27 430.24 142.26 430.26 142.24 430.27 142.23 430.29 142.21 430.3 142.2 430.31 142.17 430.33 142.14 430.34 142.12 430.36 142.09 430.37 142.06 430.38 142.04 430.4 142.03 430.41 142.01 430.43 142 430.44 141.98 430.45 141.97 430.46 141.95 430.47 141.93 430.48 141.91 430.49 141.89 430.5 141.87 430.51 141.85 430.51 141.83 430.52 141.8 430.52 141.78 430.52 141.76 430.52 141.73 430.52 141.71 430.51 141.68 430.51 141.66 430.51 141.63 430.51 141.61 430.51 141.59 430.51 141.56 430.51 141.54 430.51 141.51 430.51 141.49 430.51 141.46 430.51 141.43 430.51 141.41 430.51 141.38 430.52 141.36 430.52 141.33 430.52 141.3 430.52 141.28 430.53 141.26 430.53 141.24 430.54 141.22 430.54 141.2 430.55 141.18 430.55 141.16 430.55 141.13 430.55 141.11 430.55 141.08 430.55 141.06 430.56 141.04 430.56 141.02 430.57 141 430.58 140.98 430.58 140.96 430.59 140.94 430.59 140.92 430.6 140.91 430.61 140.89 430.61 140.87 430.61 140.85 430.61 140.83 430.61 140.81 430.61 140.79 430.61 140.77 430.61 140.76 430.61 140.74 430.61 140.72 430.61 140.71 430.61 140.69 430.63 140.5 430.66 140.41 430.72 140.31 430.81 140.08 430.82 140.07 430.84 140.05 430.85 140.04 430.86 140.03 430.88 140.01 430.88 140 430.89 140 430.89 139.99 430.89 139.97 430.89 139.97 430.89 139.96 430.88 139.91 430.86 139.84 430.85 139.78 430.83 139.7 430.82 139.57 430.76 139.41 430.69 139.3 430.65 139.18 430.64 139.1 430.65 139.05 430.7 139.01 430.76 138.95 430.8 138.89 430.83 138.86 430.86 138.81 430.91 138.75 430.92 138.73 430.93 138.71 430.91 138.69 430.89 138.66 430.89 138.65 430.9 138.63 430.9 138.61 430.9 138.56 430.9 138.53 430.9 138.49 430.91 138.47 430.92 138.44 430.93 138.43 430.95 138.41 430.97 138.4 431 138.38 431.03 138.37 431.05 138.37 431.07 138.36 431.11 138.36 431.14 138.35 431.16 138.35 431.18 138.34 431.2 138.32 431.22 138.3 431.25 138.28 431.26 138.26 431.28 138.25 431.3 138.23 431.35 138.18 431.38 138.14 431.42 138.09 431.47 138.04 431.51 137.99 431.53 137.95 431.54 137.93 431.53 137.92 431.53 137.9 431.51 137.88 431.49 137.83 431.47 137.78 431.44 137.71 431.43 137.68 431.43 137.66 431.43 137.64 431.43 137.62 431.43 137.6 431.43 137.56 431.43 137.49 431.43 137.45 431.42 137.44 431.41 137.41 431.39 137.38 431.38 137.35 431.36 137.33 431.34 137.31 431.32 137.29 431.29 137.26 431.27 137.23 431.25 137.2 431.24 137.18 431.24 137.16 431.25 137.14 431.26 137.12 431.27 137.11 431.3 137.08 431.31 137.05 431.32 137.03 431.32 137.01 431.31 136.99 431.31 136.97 431.3 136.94 431.29 136.92 431.28 136.89 431.27 136.83 431.27 136.79 431.26 136.76 431.26 136.72 431.26 136.67 431.26 136.63 431.25 136.59 431.25 136.58 431.25 136.53 431.26 136.5 431.26 136.48 431.28 136.45 431.29 136.43 431.29 136.41 431.3 136.39 431.3 136.36 431.29 136.35 431.28 136.33 431.27 136.32 431.26 136.32 431.24 136.32 431.21 136.31 431.19 136.3 431.17 136.29 431.16 136.27 431.15 136.25 431.15 136.23 431.15 136.2 431.15 136.17 431.15 136.14 431.15 136.11 431.14 136.07 431.13 136.01 431.13 135.97 431.12 135.94 431.12 135.92 431.12 135.9 431.12 135.9 431.11 135.88 431.08 135.83 431.02 135.78 430.94 135.7 430.88 135.66 430.75 135.63 430.61 135.59 430.51 135.56 430.44 135.51 430.29 135.45 430.18 135.39 430.05 135.31 429.89 135.25 429.75 135.24 429.63 135.22 429.52 135.22 428.08 134.43 427.83 134.41 428.45 133.93 428.51 133.74 428.7 133.45 428.87 133.14 429.17 132.87 430.32 132.7 430.94 132.5 431.26 132.43 432.19 132.04 432.18 132.03 432.23 131.96 432.25 131.94 432.28 131.91 432.32 131.87 432.33 131.86 432.35 131.82 432.37 131.79 432.39 131.75 432.44 131.7 432.49 131.65 432.53 131.61 432.56 131.6 432.58 131.59 432.6 131.58 432.63 131.58 432.67 131.57 432.72 131.56 432.76 131.55 432.79 131.53 432.81 131.5 432.85 131.47 432.9 131.41 433.01 131.31 433.07 131.24 433.19 131.1 433.2 131.05 433.21 130.99 433.26 130.92 433.33 130.82 433.35 130.76 433.41 130.65 433.53 130.56 433.61 130.43 433.64 130.42 433.68 130.42 433.75 130.43 433.82 130.43 433.85 130.45 433.9 130.47 433.94 130.48 433.99 130.49 434.06 130.51 434.11 130.53 434.16 130.55 434.2 130.58 434.24 130.62 434.26 130.67 434.25 130.72 434.24 130.74 434.22 130.77 434.22 130.82 434.2 130.9 434.19 131.21 434.42 131.04 434.8 130.83 435.61 130.64 435.57 130.55 435.55 130.56 435.52 130.57 435.49 130.57 435.45 130.57 435.41 130.57 435.37 130.57 435.33 130.57 435.29 130.57 435.24 130.57 435.18 130.57 435.14 130.56 435.11 130.54 435.07 130.54 435.04 130.54 434.97 130.55 434.89 130.56 434.8 130.55 434.75 130.55 434.7 130.53 434.64 130.5 434.55 130.47 434.52 130.44 434.45 130.41 434.38 130.37 434.35 130.36 434.34 130.34 434.31 130.31 434.29 130.27 434.26 130.21 434.2 130.13 434.18 130.1 434.18 130.07 434.17 130.04 434.16 129.99 434.12 129.94 434.08 129.87 434.04 129.83 434 129.8 433.95 129.75 433.89 129.7 433.87 129.69 433.83 129.65 433.79 129.6 433.7 129.49 433.66 129.44 433.65 129.39 433.63 129.34 433.62 129.32 433.6 129.29 433.57 129.24 433.52 129.17 433.42 129.25 431.13 128.43 430.88 128.67 429.75 128.73 428.36 127.04 426.03 125.02 424.86 124.07 424.87 124.04 424.89 124.01 424.91 123.97 424.92 123.94 424.94 123.91 424.96 123.86 424.98 123.83 425.01 123.79 425.02 123.77 425.05 123.74 425.08 123.7 425.13 123.63 425.16 123.57 425.18 123.54 425.19 123.51 425.21 123.48 425.21 123.44 425.22 123.4 425.22 123.36 425.23 123.31 425.23 123.28 425.22 123.25 425.21 123.22 425.19 123.2 425.17 123.15 425.17 123.11 425.18 123.05 425.17 123.04 425.16 123 425.15 122.99 425.12 122.97 425.07 122.94 425.03 122.92 425 122.91 424.97 122.92 424.94 122.93 424.9 122.94 424.85 122.97 424.75 123 424.7 123.01 424.68 123.01 424.66 123.01 424.65 123.02 424.62 123.01 424.55 122.99 424.47 122.96 424.39 122.91 424.34 122.89 424.28 122.85 424.25 122.82 424.23 122.78 424.21 122.74 424.19 122.69 424.17 122.65 424.13 122.57 424.1 122.5 424.08 122.47 424.07 122.42 424.06 122.38 424.04 122.34 424.02 122.3 424 122.26 423.97 122.22 423.95 122.18 423.94 122.14 423.93 122.12 423.93 122.09 423.93 122.06 423.92 122.03 423.91 121.99 423.9 121.97 423.88 121.94 423.87 121.92 423.86 121.91 423.85 121.91 423.82 121.9 423.79 121.89 423.76 121.89 423.74 121.89 423.72 121.9 423.7 121.91 423.68 121.93 423.65 121.96 423.64 121.99 423.63 122.02 423.62 122.05 423.62 122.08 423.62 122.1 423.61 122.12 423.59 122.15 423.56 122.17 423.54 122.18 423.52 122.18 423.48 122.18 423.45 122.17 423.41 122.17 423.37 122.17 423.35 122.17 423.3 122.17 423.25 122.17 423.21 122.18 423.16 122.18 423.12 122.19 423.09 122.19 423.05 122.18 423.03 122.17 423 122.15 422.96 122.14 422.91 122.13 422.87 122.12 422.81 122.09 422.8 122.11 422.79 122.12 422.77 122.13 422.66 122.13 422.62 122.13 422.6 122.14 422.58 122.14 422.56 122.15 422.54 122.15 422.49 122.15 422.42 122.14 422.34 122.13 422.31 122.12 422.29 122.12 422.24 122.12 422.18 122.14 422.14 122.16 422.09 122.17 422.07 122.17 422.04 122.17 421.98 122.16 421.92 122.15 421.88 122.14 421.86 122.14 421.84 122.13 421.81 122.13 421.79 122.14 421.77 122.11 421.73 122.06 421.71 122.04 421.68 122 421.65 121.96 421.63 121.92 421.61 121.89 421.6 121.87 421.6 121.85 421.58 121.82 421.54 121.75 421.5 121.68 421.47 121.64 421.45 121.61 421.42 121.56 421.38 121.5 421.35 121.47 421.33 121.44 421.29 121.39 421.28 121.37 421.27 121.35 421.26 121.33 421.26 121.3 421.26 121.28 421.26 121.2 421.26 121.17 421.26 121.14 421.25 121.11 421.25 121.06 421.25 121.03 421.24 120.99 421.24 120.96 421.24 120.94 421.24 120.91 421.24 120.86 421.26 120.57 421.25 120.57 421.22 120.59 421.17 120.61 421.13 120.63 421.1 120.65 421.08 120.47 421.01 120.38 420.99 120.31 420.98 120.29 420.96 120.25 420.94 120.2 420.94 120.18 420.93 120.16 420.92 120.12 420.92 120.1 420.91 120.08 420.9 120.04 420.89 120.02 420.89 119.98 420.88 119.97 420.88 119.96 420.88 119.93 420.88 119.91 420.88 119.9 420.87 119.82 420.87 119.78 420.87 119.74 420.87 119.73 420.87 119.71 420.86 119.67 420.86 119.66 420.86 119.64 420.86 119.61 420.86 119.6 420.86 119.57 420.86 119.53 420.85 119.47 420.85 119.45 420.84 119.43 420.84 119.41 420.85 119.33 420.85 119.22 420.85 119.18 420.85 119.12 420.86 119.06 420.86 119.04 420.87 119.01 420.87 118.99 420.88 118.95 420.88 118.92 420.89 118.89 420.89 118.88 420.89 118.87 420.89 118.83 420.89 118.82 420.89 118.8 420.89 118.78 420.89 118.75 420.88 118.7 420.88 118.68 420.87 118.66 420.87 118.63 420.86 118.6 420.84 118.58 420.83 118.56 420.82 118.55 420.81 118.54 420.8 118.52 420.77 118.5 420.75 118.48 420.73 118.46 420.72 118.45 420.69 118.4 420.67 118.39 420.66 118.37 420.65 118.34 420.64 118.32 420.64 118.29 420.63 118.27 420.63 118.26 420.63 118.25 420.63 118.23 420.63 118.23 420.63 118.22 420.63 118.21 420.63 118.2 420.63 118.18 420.63 118.16 420.63 118.13 420.63 118.12 420.63 118.11 420.64 118.1 420.64 118.08 420.64 118.06 420.65 118.05 420.66 118.03 420.67 118.01 420.67 117.99 420.67 117.97 420.67 117.94 420.67 117.93 420.67 117.91 420.65 117.89 420.65 117.87 420.63 117.85 420.62 117.83 420.61 117.82 420.6 117.8 420.59 117.78 420.58 117.75 420.57 117.72 420.56 117.68 420.56 117.66 420.56 117.64 420.57 117.63 420.57 117.62 420.57 117.6 420.58 117.58 420.59 117.56 420.59 117.54 420.6 117.52 420.6 117.51 420.61 117.49 420.61 117.48 420.61 117.47 420.61 117.46 420.61 117.45 420.6 117.44 420.61 117.42 420.61 117.41 420.62 117.39 420.63 117.38 420.64 117.36 420.65 117.35 420.66 117.33 420.67 117.32 420.69 117.29 420.7 117.28 420.71 117.26 420.72 117.25 420.72 117.24 420.73 117.22 420.73 117.21 420.73 117.2 420.68 117.07 420.68 117.05 420.66 117.05 420.64 117.04 420.63 117.03 420.61 117.02 420.61 117.01 420.6 117 420.6 116.99 420.59 116.98 420.58 116.98 420.54 116.97 420.53 116.97 420.52 116.97 420.5 116.98 420.49 116.99 420.48 117 420.46 117.02 420.45 117.03 420.44 117.04 420.43 117.05 420.42 117.05 420.4 117.05 420.37 117.05 420.35 117.05 420.34 117.05 420.33 117.04 420.32 117.04 420.3 117.05 420.29 117.05 420.27 117.05 420.25 117.05 420.2 117.02 420.16 117 420.14 116.98 420.13 116.97 420.12 116.95 420.11 116.94 420.1 116.93 420.09 116.91 420.08 116.91 420.06 116.9 420.05 116.89 420.04 116.88 420.03 116.88 420.02 116.88 420 116.88 419.98 116.89 419.96 116.89 419.95 116.9 419.94 116.9 419.93 116.91 419.92 116.9 419.89 116.89 419.88 116.88 419.87 116.88 419.87 116.88 419.85 116.89 419.84 116.9 419.83 116.91 419.8 116.92 419.76 116.94 419.75 116.94 419.73 116.95 419.71 116.95 419.68 116.96 419.68 116.98 419.67 116.98 419.67 116.99 419.65 116.98 419.64 116.98 419.61 116.99 419.6 116.99 419.54 117.01 419.52 117.02 419.46 117.04 419.41 117.06 419.4 117.07 419.37 117.08 419.35 117.09 419.33 117.1 419.32 117.1 419.29 117.1 419.26 117.11 419.26 117.11 419.25 117.11 419.24 117.11 419.23 117.12 419.22 117.12 419.21 117.13 419.2 117.14 419.19 117.15 419.18 117.16 419.18 117.17 419.17 117.18 419.16 117.18 419.15 117.19 419.14 117.21 419.14 117.22 419.13 117.23 419.12 117.25 419.11 117.26 419.11 117.26 419.1 117.27 419.07 117.28 419.05 117.28 419.04 117.29 419.03 117.3 419.02 117.31 419 117.31 418.95 117.34 418.94 117.34 418.92 117.36 418.9 117.36 418.89 117.37 418.88 117.38 418.86 117.39 418.83 117.39 418.8 117.39 418.79 117.39 418.78 117.39 418.77 117.38 418.75 117.37 418.75 117.37 418.73 117.36 418.72 117.35 418.71 117.34 418.7 117.34 418.67 117.33 418.66 117.32 418.65 117.32 418.64 117.31 418.6 117.3 418.58 117.29 418.55 117.28 418.54 117.27 418.51 117.26 418.47 117.25 418.45 117.24 418.43 117.23 418.42 117.23 418.4 117.22 418.35 117.21 418.32 117.19 418.28 117.17 418.25 117.17 417.71 116.92 417.35 116.64 417.14 116.45 416.02 116.39 415.62 116.21 415.48 116.18 414.94 116.18 414.34 116.17 414.34 116.12 414.33 116.06 414.33 116.02 414.31 115.98 414.3 115.93 414.3 115.91 414.31 115.89 414.32 115.86 414.34 115.83 414.35 115.8 414.34 115.77 414.34 115.74 414.34 115.7 414.34 115.64 414.35 115.57 414.35 115.53 414.35 115.47 414.35 115.4 414.36 115.33 414.36 115.26 414.36 115.2 414.36 115.14 414.36 115.09 414.35 115.05 414.34 115.01 414.34 114.91 414.34 114.85 414.33 114.81 414.32 114.76 414.31 114.73 414.3 114.69 414.27 114.63 414.26 114.59 414.24 114.57 414.23 114.54 414.22 114.49 414.21 114.47 414.23 114.46 414.78 114.48 414.8 113.87 414.28 113.84 414.28 113.82 414.27 113.79 414.24 113.76 414.22 113.73 414.2 113.72 414.18 113.71 414.13 113.69 414.09 113.69 414.05 113.68 414.03 113.66 413.99 113.65 413.96 113.62 413.94 113.6 413.92 113.58 413.89 113.56 413.86 113.55 413.83 113.53 413.8 113.51 413.77 113.5 413.74 113.49 413.71 113.48 413.68 113.47 413.66 113.45 413.64 113.43 413.63 113.41 413.61 113.39 413.6 113.36 413.59 113.34 413.58 113.31 413.58 113.29 413.57 113.27 413.57 113.25 413.56 113.23 413.47 113.14 413.45 113.14 413.43 113.13 413.4 113.11 413.39 113.11 413.37 113.09 413.36 113.07 413.35 113.05 413.34 113.03 413.33 113 413.33 113 413.33 112.97 413.33 112.96 413.32 112.95 413.3 112.94 413.29 112.94 413.26 112.93 413.2 112.9 413.14 112.86 413.07 112.82 413.04 112.79 413.01 112.77 413 112.76 412.99 112.74 412.97 112.73 413 112.64 413.01 112.63 413.01 112.62 413.01 112.61 413.02 112.58 413.02 112.57 413.02 112.55 413.03 112.54 413.03 112.53 413.02 112.52 413.02 112.51 413.02 112.5 413.01 112.49 413.01 112.48 413.01 112.47 413.01 112.46 413.01 112.45 413.01 112.44 413.01 112.43 413.01 112.42 413.01 112.4 413.01 112.4 413.01 112.39 413.02 112.37 413.02 112.36 413.03 112.35 413.03 112.34 413.05 112.3 413.06 112.28 413.06 112.27 413.06 112.26 413.07 112.25 413.07 112.24 413.07 112.22 413.07 112.21 413.07 112.2 413.07 112.19 413.07 112.18 413.07 112.18 413.07 112.17 413.08 112.16 413.09 112.15 413.12 112.13 413.13 112.12 413.13 112.11 413.14 112.1 413.15 112.09 413.16 112.08 413.16 112.07 413.17 112.05 413.18 112.04 413.18 112.03 413.19 112.01 413.19 112 413.2 111.99 413.2 111.98 413.21 111.97 413.22 111.96 413.22 111.95 413.21 111.93 413.21 111.92 413.2 111.91 413.19 111.9 413.19 111.89 413.18 111.87 413.18 111.86 413.18 111.85 413.17 111.85 413.16 111.83 413.14 111.81 413.13 111.8 413.11 111.78 413.1 111.77 413.09 111.76 413.07 111.75 413.06 111.74 413.04 111.73 413.02 111.72 413.01 111.71 413 111.7 412.99 111.68 412.98 111.64 412.96 111.62 412.96 111.61 412.96 111.59 412.95 111.58 412.95 111.57 412.95 111.56 412.92 111.54 412.9 111.52 412.88 111.51 412.84 111.48 412.82 111.47 412.79 111.46 412.76 111.44 412.63 111.36 412.51 111.13 412.41 111.15 412.4 111.05 412.4 111.04 412.4 111.03 412.4 111.02 412.4 111 412.4 110.99 412.4 110.98 412.4 110.97 412.4 110.96 412.4 110.95 412.4 110.94 412.39 110.93 412.39 110.92 412.38 110.91 412.38 110.9 412.38 110.89 412.38 110.89 412.38 110.87 412.38 110.86 412.38 110.85 412.38 110.84 412.38 110.83 412.39 110.83 412.39 110.81 412.39 110.79 412.38 110.79 412.38 110.78 412.38 110.77 412.38 110.76 412.37 110.74 412.37 110.73 412.37 110.72 412.37 110.71 412.37 110.7 412.37 110.69 412.37 110.69 412.37 110.68 412.37 110.67 412.37 110.65 412.37 110.64 412.37 110.63 412.37 110.62 412.37 110.6 412.36 110.59 412.36 110.58 412.36 110.57 412.35 110.56 412.34 110.55 412.33 110.54 412.32 110.53 412.32 110.53 412.31 110.52 412.31 110.51 412.3 110.47 412.27 110.42 412.28 110.38 412.28 110.36 412.27 110.34 412.27 110.31 412.27 110.29 412.27 110.27 412.27 110.24 412.27 110.22 412.28 110.18 412.28 110.14 412.27 110.1 412.26 110.06 412.26 110.01 412.3 109.99 412.3 109.86 412.25 109.86 412.61 109.69 Z"/>
</g></svg>