<svg xmlns="http://www.w3.org/2000/svg" version="1.2" baseProfile="tiny" stroke-linecap="round" stroke-linejoin="round" viewBox="564.3 27.9 13.42 14.88"><g xmlns="http://www.w3.org/2000/svg" id="Hiriburu">
<path d="M 570.81 28.03 571.15 27.98 571.18 27.98 571.22 27.97 571.26 27.97 571.42 27.94 571.48 27.93 571.5 27.93 571.46 28.04 571.44 28.13 571.44 28.14 571.44 28.14 571.46 28.16 571.53 28.21 571.58 28.25 571.61 28.27 571.64 28.29 571.68 28.31 571.7 28.29 571.73 28.25 571.79 28.14 571.81 28.17 571.83 28.19 571.84 28.21 571.86 28.23 571.89 28.24 571.94 28.26 571.97 28.27 571.98 28.29 571.98 28.31 571.97 28.33 571.95 28.36 571.93 28.37 571.92 28.4 571.92 28.42 571.94 28.45 571.96 28.48 571.98 28.52 571.99 28.55 572 28.58 572 28.62 572 28.66 572 28.7 572 28.74 572 28.75 572 28.76 572.01 28.78 572.01 28.84 572 28.88 572 28.92 572 28.93 572 28.96 572 28.99 572 29.02 571.98 29.05 571.97 29.09 571.96 29.13 571.96 29.16 571.95 29.2 571.94 29.23 571.94 29.25 571.94 29.28 571.94 29.32 571.94 29.34 571.94 29.37 571.95 29.4 571.96 29.43 571.99 29.45 572 29.47 572.01 29.48 572.03 29.52 572.04 29.55 572.06 29.59 572.09 29.61 572.12 29.64 572.16 29.66 572.19 29.68 572.23 29.7 572.26 29.72 572.29 29.74 572.32 29.77 572.35 29.79 572.38 29.82 572.41 29.84 572.44 29.87 572.46 29.89 572.49 29.91 572.52 29.94 572.54 29.97 572.57 30 572.59 30.03 572.61 30.07 572.63 30.11 572.64 30.12 572.66 30.15 572.67 30.17 572.69 30.19 572.71 30.23 572.74 30.28 572.77 30.33 572.79 30.38 572.82 30.43 572.83 30.44 572.85 30.48 572.88 30.54 572.88 30.55 572.91 30.61 572.95 30.68 573.01 30.81 573.05 30.9 573.06 30.93 573.08 30.96 573.09 30.99 573.11 31.02 573.13 31.07 573.15 31.11 573.18 31.16 573.2 31.2 573.22 31.25 573.24 31.29 573.27 31.34 573.29 31.38 573.3 31.42 573.31 31.43 573.32 31.46 573.35 31.51 573.39 31.58 573.41 31.63 573.43 31.67 573.44 31.71 573.45 31.75 573.47 31.78 573.49 31.82 573.49 31.84 573.52 31.9 573.53 31.93 573.59 32.08 573.62 32.14 573.65 32.19 573.66 32.24 573.68 32.28 573.68 32.31 573.7 32.33 573.71 32.36 573.71 32.38 573.7 32.4 573.7 32.4 573.67 32.47 573.66 32.5 573.65 32.53 573.66 32.59 573.67 32.64 573.67 32.68 573.69 32.86 573.72 33.15 573.73 33.23 573.78 33.28 574.04 33.52 574.32 33.78 574.56 33.99 574.61 34.05 574.67 34.1 574.73 34.15 574.78 34.19 574.81 34.23 574.84 34.26 574.87 34.28 574.89 34.3 574.94 34.35 574.95 34.36 574.97 34.37 574.99 34.39 575.01 34.4 575.02 34.42 575.06 34.46 575.09 34.48 575.1 34.5 575.12 34.51 575.14 34.51 575.19 34.55 575.21 34.56 575.31 34.62 575.32 34.63 575.36 34.65 575.38 34.66 575.42 34.71 575.43 34.74 575.49 34.8 575.6 34.85 575.62 34.86 575.64 34.88 575.65 34.88 575.66 34.89 575.79 35.01 575.98 35.06 576.46 35.12 576.75 35.18 577.07 35.24 577.09 35.24 577.2 35.26 577.29 35.28 577.31 35.3 577.33 35.32 577.34 35.34 577.36 35.37 577.37 35.38 577.39 35.44 577.4 35.48 577.41 35.53 577.4 35.58 577.39 35.63 577.39 35.65 577.38 35.66 577.37 35.68 577.35 35.7 577.32 35.73 577.26 35.77 577.23 35.78 577.22 35.78 577.19 35.78 577.17 35.79 577.15 35.8 577.15 35.8 577.13 35.83 577.12 35.86 577.1 35.9 577.09 35.93 577.06 35.94 577.02 35.95 577 35.94 576.98 35.95 576.95 35.95 576.93 35.96 576.91 35.97 576.88 35.99 576.86 36 576.84 36.01 576.81 36.05 576.8 36.07 576.79 36.11 576.68 36.21 576.64 36.3 576.6 36.41 576.57 36.51 576.55 36.6 576.55 36.67 576.55 36.75 576.54 36.82 576.56 36.92 576.62 37 576.67 37.08 576.73 37.18 576.78 37.22 576.83 37.24 576.92 37.26 577.04 37.28 577.11 37.53 577.2 37.87 577.21 37.94 577.23 38.05 577.27 38.24 577.31 38.47 577.33 38.51 577.33 38.52 577.37 38.6 577.49 38.84 577.48 38.99 577.49 39.03 577.57 39.56 577.62 39.87 577.65 40.02 577.67 40.07 577.67 40.13 577.66 40.35 577.66 40.52 577.65 40.86 577.65 41.05 577.65 41.06 577.65 41.15 577.65 41.19 577.66 41.22 577.66 41.27 577.68 41.41 577.69 41.49 577.69 41.5 577.68 41.51 577.68 41.53 577.66 41.6 577.61 41.76 577.58 41.85 577.56 41.88 577.51 42.08 577.44 42.28 577.44 42.29 577.39 42.4 577.37 42.45 577.32 42.6 577.31 42.63 577.27 42.74 577.25 42.77 577.04 42.71 576.56 42.59 576.12 42.48 575.8 42.42 575.75 42.41 575.52 42.4 575.28 42.38 575.28 42.37 575.23 42.36 575.19 42.36 575.14 42.35 575.12 42.35 575.12 42.35 574.74 42.27 574.74 42.26 574.73 42.26 574.71 42.26 574.7 42.26 574.69 42.26 574.68 42.26 574.68 42.27 574.6 42.23 574.38 42.15 574.23 42.1 574.21 42.09 574.06 42.05 573.51 41.91 573.47 41.89 573.19 41.85 573.17 41.84 573.02 41.83 572.84 41.82 572.78 41.82 572.58 41.82 572.26 41.81 572.23 41.77 572.18 41.71 572.13 41.66 572.03 41.51 572 41.46 571.96 41.41 571.89 41.33 571.88 41.32 571.85 41.31 571.83 41.29 571.79 41.22 571.74 41.14 571.72 41.12 571.71 41.1 571.69 41.09 571.67 41.07 571.62 41 571.59 40.95 571.58 40.94 571.55 40.91 571.52 40.88 571.5 40.86 571.45 40.81 571.42 40.78 571.38 40.72 571.34 40.68 571.29 40.6 571.27 40.57 571.26 40.56 570.9 40.11 570.64 39.77 570.62 39.74 570.5 39.6 570.45 39.57 570.06 39.33 569.97 39.28 569.91 39.24 569.65 39.09 569.52 39 568.87 38.61 568.39 38.34 568.33 38.31 568.27 38.14 568.09 38 568 37.94 567.82 37.59 567.74 37.46 567.72 37.42 567.74 37.26 567.71 37.16 567.7 37.13 567.69 37.11 567.66 37.02 567.64 36.96 567.65 36.95 567.66 36.95 567.69 36.93 567.83 36.85 567.83 36.83 567.83 36.82 567.84 36.8 567.85 36.79 567.86 36.77 567.86 36.76 567.87 36.75 567.87 36.74 567.9 36.69 567.91 36.67 567.92 36.65 567.93 36.62 567.96 36.58 567.97 36.56 567.97 36.55 567.98 36.54 568 36.51 568.02 36.5 568.03 36.48 568.04 36.47 568.06 36.45 568.06 36.43 568.07 36.42 568.09 36.4 568.12 36.36 568.13 36.35 568.14 36.33 568.14 36.32 568.15 36.32 568.16 36.31 568.17 36.29 568.19 36.27 568.2 36.26 568.21 36.25 568.28 36.14 568.29 36.12 568.31 36.09 568.37 35.99 568.46 35.87 568.47 35.83 568.49 35.79 568.53 35.73 568.58 35.65 568.61 35.58 568.63 35.52 568.67 35.45 568.69 35.41 568.72 35.35 568.75 35.29 568.8 35.2 568.84 35.14 568.89 35.05 568.91 35.02 568.93 34.97 568.94 34.93 568.93 34.89 568.92 34.85 568.91 34.81 568.9 34.78 568.9 34.75 568.89 34.71 568.88 34.7 568.87 34.67 568.84 34.61 568.82 34.57 568.81 34.56 568.79 34.53 568.74 34.49 568.67 34.42 568.62 34.38 568.58 34.34 568.55 34.29 568.53 34.25 568.51 34.23 568.5 34.2 568.48 34.17 568.46 34.11 568.43 34.05 568.4 33.99 568.37 33.92 568.34 33.85 568.32 33.79 568.29 33.74 568.25 33.71 568.22 33.67 568.16 33.63 568.12 33.59 568.12 33.58 568.06 33.52 567.98 33.44 567.92 33.38 567.76 33.41 567.75 33.4 567.43 32.98 567.23 33 567.17 32.96 567.13 32.93 567.04 32.68 567.03 32.68 566.99 32.63 566.97 32.61 566.97 32.62 566.96 32.65 566.94 32.64 566.86 32.62 566.62 32.57 566.44 32.54 566.43 32.53 566.36 32.52 566.24 32.49 566.23 32.49 566.04 32.43 565.5 32.25 565.48 32.24 565.46 32.23 565.37 32.27 565.33 32.29 565.28 32.3 565.1 32.34 565.07 32.35 564.72 32.09 564.65 32.09 564.68 31.96 564.66 31.96 564.61 31.95 564.59 31.95 564.58 31.94 564.56 31.94 564.55 31.92 564.53 31.9 564.5 31.87 564.47 31.84 564.47 31.83 564.46 31.81 564.45 31.8 564.44 31.75 564.43 31.74 564.43 31.72 564.43 31.7 564.44 31.69 564.44 31.67 564.45 31.66 564.46 31.63 564.48 31.59 564.52 31.53 564.53 31.52 564.53 31.51 564.54 31.5 564.56 31.49 564.63 31.45 564.65 31.44 564.67 31.43 564.67 31.42 564.68 31.4 564.69 31.39 564.7 31.38 564.7 31.37 564.71 31.34 564.71 31.31 564.71 31.29 564.71 31.27 564.71 31.24 564.69 31.16 564.66 31.07 564.65 31 564.63 30.96 564.63 30.94 564.62 30.92 564.63 30.92 564.65 30.91 564.66 30.9 564.67 30.89 564.82 30.76 564.8 30.74 564.77 30.7 564.74 30.67 564.71 30.64 564.63 30.59 564.59 30.56 564.54 30.52 564.48 30.46 564.45 30.43 564.44 30.42 564.4 30.38 564.37 30.35 564.33 30.33 564.34 30.31 564.36 30.29 564.41 30.25 564.42 30.24 564.43 30.23 564.44 30.22 564.44 30.21 564.45 30.21 564.46 30.2 564.49 30.2 564.5 30.21 564.51 30.2 564.51 30.19 564.54 30.2 564.64 30.24 564.72 30.28 564.73 30.28 564.75 30.29 564.75 30.28 564.77 30.26 564.81 30.21 564.82 30.19 564.83 30.18 564.84 30.16 564.85 30.14 564.86 30.13 564.87 30.12 564.88 30.11 564.9 30.1 564.91 30.1 564.94 30.1 564.95 30.1 564.96 30.11 564.98 30.1 565 30.08 565.01 30.07 565.02 30.06 565.04 30.05 565.05 30.04 565.07 30.03 565.08 30.02 565.09 30 565.1 29.99 565.11 29.98 565.13 29.97 565.14 29.96 565.15 29.96 565.16 29.94 565.17 29.93 565.18 29.92 565.2 29.92 565.21 29.91 565.22 29.9 565.24 29.88 565.25 29.87 565.27 29.86 565.28 29.86 565.3 29.85 565.31 29.84 565.33 29.83 565.34 29.81 565.34 29.8 565.35 29.79 565.37 29.78 565.38 29.78 565.4 29.77 565.41 29.75 565.42 29.74 565.43 29.73 565.45 29.72 565.46 29.71 565.47 29.7 565.49 29.68 565.66 29.49 565.67 29.47 565.68 29.46 565.7 29.45 565.71 29.44 565.73 29.43 565.75 29.42 565.77 29.41 565.79 29.4 565.79 29.38 565.81 29.33 565.82 29.31 565.83 29.29 565.84 29.28 565.84 29.27 565.85 29.26 565.86 29.25 565.87 29.24 565.88 29.23 565.9 29.21 565.91 29.19 565.95 29.15 565.96 29.14 565.97 29.13 565.98 29.12 565.98 29.11 566 29.11 566.01 29.11 566.02 29.11 566.03 29.1 566.04 29.09 566.04 29.08 566.06 29.07 566.07 29.06 566.08 29.07 566.1 29.07 566.12 29.07 566.15 29.05 566.16 29.05 566.17 29.04 566.18 29.04 566.18 29.03 566.19 29.02 566.2 29.01 566.2 29 566.2 28.99 566.21 28.97 566.23 28.95 566.23 28.94 566.23 28.94 566.24 28.93 566.25 28.92 566.27 28.92 566.27 28.91 566.28 28.91 566.29 28.9 566.3 28.9 566.31 28.9 566.32 28.9 566.33 28.9 566.34 28.9 566.36 28.9 566.37 28.9 566.38 28.91 566.42 28.92 566.45 28.85 566.4 28.82 566.46 28.74 566.48 28.72 566.51 28.71 566.52 28.7 566.51 28.67 566.52 28.66 566.55 28.65 566.57 28.66 566.58 28.67 566.62 28.71 566.68 28.77 566.71 28.78 566.78 28.82 566.79 28.85 566.9 28.92 566.97 28.97 566.99 28.98 566.98 28.99 566.96 29.01 566.91 29.05 566.83 29.12 566.86 29.16 566.89 29.19 566.91 29.24 566.95 29.28 566.99 29.35 567.02 29.4 567.06 29.48 567.11 29.55 567.13 29.59 567.15 29.62 567.2 29.59 567.23 29.58 567.41 29.5 567.53 29.44 567.57 29.42 567.59 29.41 567.61 29.44 567.69 29.54 567.78 29.65 567.81 29.69 567.83 29.72 567.86 29.78 567.88 29.81 567.91 29.86 567.96 29.98 568 30.04 568.04 30.1 568.1 30.17 568.19 30.28 568.2 30.3 568.2 30.33 568.19 30.56 568.19 30.6 568.19 30.61 568.18 30.65 568.21 30.69 568.24 30.73 568.28 30.78 568.29 30.8 568.32 30.78 568.34 30.77 568.4 30.74 568.42 30.73 568.5 30.71 568.56 30.7 568.79 30.65 568.82 30.64 569.07 30.57 569.1 30.56 569.14 30.61 569.17 30.59 569.19 30.59 569.35 30.5 569.36 30.48 569.34 30.46 569.5 30.36 569.61 30.28 569.7 30.22 569.77 30.15 569.87 30.05 569.9 30.01 569.92 29.99 570.06 29.84 570.08 29.81 570.13 29.77 570.19 29.71 570.24 29.67 570.29 29.61 570.34 29.54 570.4 29.46 570.41 29.45 570.45 29.38 570.46 29.35 570.45 29.31 570.48 29.3 570.5 29.28 570.56 29.26 570.62 29.24 570.63 29.23 570.66 29.23 570.7 29.22 570.72 29.21 570.75 29.19 570.75 29.18 570.72 29.05 570.61 29.1 570.6 29.08 570.58 29.05 570.57 29.03 570.57 28.98 570.57 28.95 570.57 28.93 570.58 28.91 570.58 28.89 570.59 28.88 570.62 28.88 570.64 28.88 570.65 28.88 570.66 28.86 570.66 28.85 570.66 28.83 570.67 28.82 570.69 28.81 570.7 28.8 570.73 28.78 570.75 28.76 570.76 28.75 570.77 28.72 570.77 28.7 570.76 28.68 570.72 28.67 570.69 28.65 570.66 28.61 570.65 28.59 570.62 28.55 570.6 28.51 570.59 28.48 570.58 28.43 570.57 28.37 570.56 28.28 570.55 28.23 570.55 28.22 570.73 28.23 570.79 28.23 570.81 28.23 570.82 28.21 570.83 28.2 570.83 28.18 570.84 28.16 570.84 28.14 570.83 28.1 570.82 28.08 570.81 28.06 570.81 28.03 Z"/>
</g></svg>