<svg xmlns="http://www.w3.org/2000/svg" version="1.2" baseProfile="tiny" stroke-linecap="round" stroke-linejoin="round" viewBox="628.88 222 25.58 20.38"><g xmlns="http://www.w3.org/2000/svg" id="Hiriberri Atetz">
<path d="M 637.94 229.01 638.39 228.08 638.52 227.83 638.74 227.4 638.87 227.03 638.9 226.88 638.93 226.64 639 226.11 639.03 226.08 639.07 226.04 639.12 225.99 639.2 225.9 639.3 225.81 639.43 225.67 639.49 225.6 639.55 225.54 639.62 225.47 639.7 225.38 639.86 225.24 639.98 225.14 640.13 225.02 640.24 224.95 640.38 224.86 640.44 224.82 640.45 224.82 640.46 224.81 640.52 224.77 640.64 224.69 640.78 224.61 640.85 224.57 640.86 224.56 640.87 224.55 640.97 224.5 641.13 224.41 641.15 224.4 641.38 224.25 641.47 224.18 641.53 224.13 641.8 223.89 641.96 223.75 642.21 223.55 642.51 223.31 642.68 223.17 643.08 222.85 643.57 222.46 643.78 222.26 644.09 222.01 644.02 222.26 643.94 222.59 643.87 222.93 643.87 222.94 643.86 222.95 643.8 223.23 643.78 223.31 643.75 223.54 643.73 223.69 643.73 223.72 643.72 223.85 643.72 224.05 643.77 224.06 643.91 224.09 644.09 224.13 644.26 224.19 644.4 224.24 644.45 224.26 644.51 224.28 644.54 224.29 644.55 224.3 644.59 224.31 644.81 224.41 644.93 224.47 645.03 224.52 645.14 224.57 645.25 224.64 645.38 224.71 645.54 224.79 645.71 224.9 645.79 224.94 645.88 224.99 645.89 225.12 645.89 225.14 645.89 225.3 645.89 225.4 645.88 225.48 645.88 225.58 645.86 225.79 645.86 225.85 645.86 225.87 645.86 225.89 645.86 225.9 645.88 226 645.9 226.14 645.92 226.24 645.92 226.26 645.93 226.28 645.94 226.35 645.94 226.39 645.93 226.42 645.91 226.55 645.88 226.65 645.86 226.77 645.82 226.9 645.78 227.05 645.76 227.1 645.75 227.13 645.75 227.15 645.76 227.17 645.77 227.2 645.78 227.22 645.82 227.25 645.92 227.32 645.94 227.33 646.02 227.37 646.35 227.54 646.58 227.65 647.32 227.98 647.8 228.2 648.09 228.36 648.41 228.54 648.6 228.65 648.63 228.72 648.67 228.8 648.72 228.91 648.78 229.03 648.84 229.12 648.93 229.25 649.01 229.35 649.03 229.37 649.05 229.41 649.06 229.43 649.07 229.43 649.07 229.44 649.13 229.52 649.25 229.66 649.41 229.83 649.54 230 649.57 230.05 649.59 230.1 649.59 230.17 649.6 230.26 649.63 230.48 649.64 230.56 649.68 230.77 649.7 230.9 649.72 230.98 649.74 231.05 649.75 231.09 649.75 231.1 649.78 231.17 649.78 231.2 649.8 231.24 649.8 231.28 649.81 231.35 649.82 231.44 649.82 231.53 649.82 231.63 649.81 231.72 649.76 231.92 649.71 232.17 649.7 232.24 649.67 232.38 649.93 232.31 650.81 232.42 651.32 232.58 651.56 232.62 651.67 232.62 651.73 232.63 651.79 232.62 651.85 232.61 651.88 232.61 651.9 232.6 651.93 232.6 651.97 232.61 652.06 232.64 652.19 232.72 652.31 232.78 652.36 232.8 652.39 232.81 652.44 232.82 652.52 232.81 652.64 232.79 652.99 232.92 653.89 233.26 654.02 233.3 654.09 233.33 654.44 233.46 654.37 233.66 654.29 233.86 654.18 234.15 654.17 234.17 654.17 234.24 654.11 235.12 654.1 235.28 654.1 235.37 654.1 235.38 654.1 235.4 654.09 235.41 654.09 235.45 654.09 235.46 654.1 235.5 654.11 235.59 654.12 235.64 654.11 235.82 654.08 236 654.05 236.15 654.03 236.27 654.02 236.38 654 236.47 653.99 236.55 653.98 236.63 653.97 236.78 653.95 236.9 653.93 237.05 653.92 237.24 653.9 237.42 653.88 237.64 653.87 237.72 653.86 237.81 653.84 237.97 653.82 238.07 653.81 238.1 653.81 238.12 653.79 238.16 653.75 238.19 653.7 238.23 653.68 238.25 653.67 238.26 653.59 238.3 653.55 238.32 653.5 238.33 653.47 238.33 653.46 238.34 653.43 238.33 653.39 238.31 653.36 238.3 653.31 238.27 653.26 238.26 653.22 238.26 653.17 238.25 653.13 238.26 653.11 238.27 653.09 238.28 653.08 238.29 653.05 238.32 653.02 238.36 652.98 238.4 652.91 238.49 652.86 238.56 652.78 238.64 652.71 238.7 652.67 238.76 652.61 238.81 652.55 238.86 652.47 238.91 652.43 238.92 652.39 238.92 652.36 238.92 652.32 238.91 652.31 238.91 652.29 238.9 652.27 238.9 652.22 238.89 652.2 238.89 652.19 238.89 652 238.89 651.98 238.89 651.82 238.89 651.8 238.91 651.77 238.93 651.58 239.08 651.41 239.23 651.37 239.25 651.3 239.31 651.28 239.33 651.24 239.35 651.21 239.39 651.03 239.61 651 239.63 650.98 239.64 650.94 239.64 650.85 239.65 650.73 239.67 650.7 239.67 650.68 239.69 650.61 239.72 650.5 239.77 650.46 239.79 650.42 239.81 650.26 239.91 650.21 239.95 650.14 239.98 650.07 240 649.98 240.02 649.95 240.03 649.82 240.05 649.68 240.06 649.58 240.07 649.56 240.07 649.47 240.07 649.39 240.06 649.3 240.05 649.21 240.03 649.13 240.02 649.05 240.01 648.97 239.99 648.9 239.97 648.81 239.93 648.76 239.92 648.69 239.9 648.62 239.88 648.57 239.87 648.49 239.84 648.42 239.81 648.35 239.78 648.28 239.75 648.21 239.72 648.14 239.69 648.06 239.66 647.99 239.64 647.91 239.62 647.84 239.6 647.75 239.57 647.65 239.56 647.55 239.54 647.46 239.52 647.41 239.51 647.37 239.5 647.35 239.49 647.28 239.46 647.22 239.43 647.13 239.39 647.06 239.35 647 239.32 646.93 239.28 646.85 239.25 646.77 239.22 646.69 239.19 646.66 239.18 646.66 239.19 646.66 239.25 646.67 239.35 646.66 239.41 646.66 239.45 646.66 239.47 646.66 239.53 646.65 239.59 646.62 239.64 646.6 239.67 646.51 239.85 646.48 239.89 646.36 240.13 646.34 240.16 646.28 240.27 646.16 240.5 646.14 240.54 646.09 240.64 646.07 240.67 646.06 240.7 646.01 240.78 645.95 240.9 645.89 240.98 645.88 241 645.85 241.03 645.83 241.07 645.78 241.17 645.75 241.23 645.72 241.26 645.7 241.28 645.67 241.3 645.62 241.33 645.53 241.38 645.44 241.45 645.36 241.52 645.31 241.56 645.24 241.64 645.22 241.66 644.99 241.87 644.91 241.94 644.84 242.01 644.77 242.06 644.43 242.37 644.37 242.34 644.32 242.3 644.31 242.3 644.28 242.27 644.12 242.12 644.09 242.1 644.03 242.05 643.98 242 643.89 241.94 643.87 241.93 643.81 241.91 643.71 241.88 643.6 241.85 643.55 241.83 643.52 241.82 643.49 241.82 643.47 241.82 643.37 241.81 643.23 241.81 643.11 241.8 643.01 241.79 642.92 241.8 642.88 241.8 642.84 241.8 642.73 241.82 642.64 241.83 642.56 241.83 642.51 241.82 642.48 241.82 642.33 241.77 642.16 241.69 642.01 241.62 641.87 241.56 641.78 241.52 641.71 241.5 641.59 241.47 641.44 241.44 641.33 241.41 641.22 241.39 641.12 241.37 641.04 241.36 640.98 241.36 640.89 241.35 640.77 241.33 640.64 241.33 640.54 241.33 640.4 241.31 640.25 241.3 640.11 241.29 640 241.3 639.89 241.29 639.8 241.3 639.72 241.29 639.63 241.28 639.52 241.29 639.43 241.28 639.35 241.28 639.27 241.28 639.22 241.29 639.18 241.29 639.14 241.3 639.08 241.32 639.06 241.32 639.03 241.31 639.01 241.3 638.97 241.27 638.9 241.24 638.84 241.2 638.77 241.16 638.7 241.11 638.61 241.06 638.5 240.99 638.4 240.91 638.3 240.83 638.22 240.77 638.18 240.74 638.14 240.7 638.1 240.68 638.06 240.66 638.01 240.65 637.9 240.58 637.81 240.54 637.79 240.53 637.74 240.49 637.7 240.47 637.69 240.46 637.65 240.41 637.61 240.38 637.58 240.36 637.54 240.32 637.49 240.28 637.41 240.22 637.4 240.21 637.36 240.18 637.34 240.17 637.25 240.09 637.19 240.02 637.15 239.98 637.14 239.97 637.13 239.93 637.1 239.87 637.07 239.81 637.04 239.76 637.01 239.74 636.98 239.72 636.94 239.68 636.9 239.64 636.88 239.62 636.84 239.56 636.81 239.5 636.78 239.44 636.77 239.39 636.76 239.36 636.76 239.32 636.76 239.29 636.72 239.27 636.7 239.26 636.57 239.22 636.5 239.2 636.49 239.2 636.48 239.2 636.46 239.19 636.36 239.17 636.34 239.16 636.28 239.15 636.23 239.14 636.17 239.11 636.15 239.1 636.11 239.08 635.41 238.69 635.38 238.67 635.31 238.63 635.24 238.61 635.12 238.55 634.98 238.49 634.85 238.45 634.71 238.39 634.55 238.32 634.36 238.24 634.36 238.23 634.33 238.22 634.31 238.21 634.2 238.15 634.11 238.11 634.02 238.06 633.9 238 633.82 237.96 633.68 237.89 633.57 237.84 633.5 237.82 633.47 237.82 633.43 237.81 633.32 237.8 633.31 237.8 633.29 237.8 633.24 237.8 633.18 237.79 633.07 237.79 633.03 237.79 633 237.78 632.99 237.78 632.93 237.77 632.88 237.76 632.84 237.74 632.78 237.72 632.71 237.69 632.63 237.66 632.48 237.61 632.29 237.54 632.25 237.53 632.2 237.51 632.19 237.51 632.17 237.5 632.12 237.48 632.12 237.48 632.11 237.47 632 237.43 631.94 237.4 631.87 237.37 631.83 237.35 631.79 237.31 631.75 237.27 631.7 237.21 631.61 237.08 631.55 237 631.58 236.99 631.6 236.98 631.64 236.97 631.66 236.94 631.68 236.89 631.72 236.78 631.75 236.7 631.78 236.63 631.79 236.62 631.79 236.61 631.81 236.58 631.85 236.53 631.87 236.49 631.9 236.46 631.92 236.43 631.95 236.39 631.95 236.38 631.98 236.3 631.99 236.25 632.01 236.2 632.08 236.06 632.08 236.04 632.32 235.57 631.34 234.86 631.32 234.81 631.23 234.61 630.32 234.46 630.1 234.43 629.94 234.41 629.82 234.39 629.8 234.38 629.78 234.38 629.79 234.07 629.81 233.91 629.86 233.65 629.9 233.37 629.94 233.13 629.97 232.95 629.99 232.85 629.98 232.78 629.98 232.73 629.97 232.66 629.97 232.58 629.97 232.56 629.98 232.52 629.99 232.49 630.01 232.45 630.02 232.41 630.09 232.31 630.19 232.16 630.28 231.99 630.32 231.85 630.34 231.78 630.34 231.73 630.33 231.69 630.31 231.63 630.3 231.61 630.27 231.56 630.24 231.51 630.2 231.45 630.16 231.4 630.13 231.36 630.09 231.34 630.06 231.33 630.04 231.32 630.01 231.31 629.97 231.31 629.89 231.31 629.82 231.31 629.78 231.31 629.71 231.32 629.62 231.32 629.54 231.32 629.5 231.32 629.46 231.32 629.43 231.31 629.4 231.29 629.32 231.26 629.27 231.24 629.19 231.23 629.13 231.23 629.08 231.21 629.03 231.19 629.01 231.17 628.99 231.14 628.96 231.1 628.92 231.04 628.89 230.98 628.92 230.99 628.94 231 629.02 231.07 629.09 231.12 629.15 231.08 629.2 231.05 629.27 231.01 629.35 230.99 629.44 230.96 629.56 230.94 629.64 230.92 629.73 230.91 629.83 230.91 629.9 230.92 629.99 230.93 630.09 230.94 630.16 230.96 630.22 230.98 630.29 231 630.37 231.04 630.43 231.07 630.47 231.1 630.49 231.12 630.51 231.12 630.52 231.13 630.57 231.11 630.71 231.07 630.74 231.06 630.76 231.06 630.9 231.02 630.91 231.02 630.97 231 631.27 230.92 631.3 230.91 631.34 230.9 631.58 230.91 631.98 230.93 632.04 230.93 632.2 230.94 632.26 230.94 632.53 230.88 632.58 230.86 632.63 230.85 632.68 230.83 632.72 230.82 632.76 230.81 632.81 230.81 632.87 230.82 632.88 230.82 633.01 230.84 633.11 230.87 633.2 230.9 633.22 230.91 633.33 230.96 633.43 231.02 633.49 231.06 633.55 231.09 633.6 231.11 633.65 231.12 633.67 231.09 633.7 231.05 633.73 231.02 633.79 230.98 633.87 230.92 633.9 230.9 634.03 230.64 634.04 230.61 634.09 230.59 634.16 230.57 634.23 230.55 634.47 230.48 634.61 230.44 634.68 230.41 634.71 230.4 634.85 230.33 634.88 230.31 634.91 230.3 634.95 230.29 634.98 230.28 634.99 230.28 635 230.28 635.08 230.27 635.11 230.27 635.21 230.26 635.29 230.26 635.36 230.27 635.38 230.27 635.39 230.27 635.41 230.26 635.43 230.25 635.44 230.23 635.47 230.22 635.52 230.21 635.55 230.21 635.63 230.2 635.64 230.2 635.71 230.19 635.8 230.19 635.9 230.19 636 230.18 636.04 230.18 636.08 230.15 636.15 230.1 636.25 229.99 636.32 229.92 636.33 229.91 636.34 229.9 636.48 229.77 636.49 229.75 636.77 229.44 636.8 229.41 636.81 229.4 636.82 229.39 636.86 229.37 637.01 229.32 637.21 229.26 637.55 229.15 637.74 229.08 637.8 229.06 637.94 229.01 Z"/>
</g></svg>