<svg xmlns="http://www.w3.org/2000/svg" version="1.2" baseProfile="tiny" stroke-linecap="round" stroke-linejoin="round" viewBox="450.5 62.77 26.2 25.97"><g xmlns="http://www.w3.org/2000/svg" id="Hondarribia">
<path d="M 473.49 73.01 473.5 73.03 473.66 73.4 473.67 73.41 473.7 73.46 473.72 73.49 473.88 73.75 474.12 74.14 474.14 74.15 474.43 74.32 475.17 74.49 475.22 74.51 475.86 74.71 476.25 74.84 476.65 75.06 476.69 75.23 476.65 75.62 476.38 76.02 476.13 76.42 475.96 76.59 475.7 76.87 475.22 77.38 475.12 77.49 474.69 78.05 474.6 78.18 474.12 78.9 474.1 78.94 473.91 79.27 473.91 79.29 473.87 79.4 473.89 79.7 473.82 79.75 473.75 79.82 473.59 79.96 473.44 80.07 473.39 80.12 473.31 80.19 473.14 80.33 473.05 80.4 472.99 80.45 472.87 80.51 472.82 80.54 472.75 80.58 472.71 80.6 472.62 80.64 472.5 80.68 472.42 80.71 472.31 80.75 472.25 80.76 472.14 80.79 472.07 80.8 472 80.81 471.98 80.81 471.97 80.82 471.94 80.82 471.84 80.82 471.77 80.82 471.74 80.83 471.71 80.88 471.7 80.91 471.69 80.93 471.67 80.97 471.63 81 471.57 81 471.54 81.01 471.52 81.02 471.5 81.03 471.49 81.04 471.47 81.05 471.46 81.05 471.45 81.06 471.43 81.08 471.42 81.09 471.4 81.1 471.37 81.14 471.36 81.17 471.34 81.19 471.33 81.22 471.3 81.28 471.28 81.3 471.27 81.34 471.25 81.37 471.24 81.38 471.24 81.39 471.23 81.4 471.23 81.42 471.22 81.43 471.21 81.43 471.2 81.44 471.15 81.52 471.13 81.55 471.11 81.59 471.06 81.68 471.03 81.73 471.03 81.74 471 81.78 470.97 81.83 470.95 81.87 470.91 81.96 470.88 82.02 470.85 82.08 470.84 82.1 470.82 82.12 470.81 82.14 470.8 82.15 470.77 82.18 470.74 82.21 470.72 82.24 470.69 82.28 470.69 82.29 470.68 82.3 470.67 82.32 470.49 82.53 470.41 82.51 470.33 82.57 469.31 83.16 468.93 83.44 468.79 83.47 468.42 83.55 467.94 83.7 466.49 84.2 464.91 84.75 463.27 86.11 462.5 86.63 460.7 87.86 460.33 88.12 458.73 88.4 458.26 88.4 457.92 88.49 457.87 88.6 457.17 88.71 456.89 88.63 456.56 87.96 456.21 87.13 455.57 85.81 455.15 84.83 454.62 83.53 454.49 83.2 454.28 82.76 453.71 81.44 453.38 80.58 453.21 80.16 452.61 78.62 452.41 78.12 452.2 77.61 451.62 76.14 451.18 75.19 450.53 73.99 450.54 73.99 450.55 73.99 450.56 73.98 450.57 73.98 450.58 73.99 450.59 73.99 450.6 73.98 450.6 73.98 450.61 73.98 450.63 73.99 450.64 73.98 450.65 73.98 450.67 73.95 450.67 73.92 450.68 73.9 450.68 73.89 450.68 73.87 450.67 73.85 450.66 73.83 450.65 73.82 450.64 73.82 450.63 73.81 450.62 73.8 450.62 73.79 450.61 73.79 450.6 73.78 450.59 73.77 450.59 73.76 450.58 73.75 450.58 73.74 450.58 73.73 450.58 73.72 450.58 73.71 450.58 73.7 450.58 73.68 450.58 73.67 450.58 73.65 450.58 73.64 450.58 73.63 450.58 73.62 450.58 73.61 450.59 73.58 450.6 73.58 450.61 73.57 450.63 73.58 450.64 73.58 450.65 73.58 450.66 73.59 450.67 73.59 450.68 73.59 450.7 73.6 450.71 73.61 450.72 73.61 450.72 73.61 450.73 73.61 450.77 73.61 450.79 73.61 450.8 73.61 450.81 73.61 450.82 73.62 450.83 73.62 450.83 73.63 450.84 73.63 450.86 73.63 450.87 73.63 450.88 73.63 450.89 73.63 450.9 73.63 450.91 73.63 450.92 73.63 450.94 73.63 450.95 73.63 450.98 73.63 451 73.63 451.02 73.63 451.03 73.64 451.04 73.64 451.05 73.64 451.05 73.64 451.06 73.64 451.08 73.64 451.08 73.63 451.09 73.62 451.1 73.62 451.11 73.61 451.12 73.61 451.13 73.61 451.14 73.61 451.15 73.61 451.16 73.61 451.17 73.6 451.18 73.59 451.19 73.59 451.2 73.58 451.21 73.58 451.21 73.58 451.22 73.57 451.22 73.56 451.23 73.56 451.24 73.54 451.24 73.53 451.25 73.52 451.25 73.51 451.26 73.5 451.27 73.48 451.28 73.48 451.29 73.47 451.3 73.46 451.31 73.46 451.32 73.46 451.34 73.45 451.35 73.44 451.36 73.44 451.38 73.43 451.39 73.42 451.4 73.42 451.4 73.41 451.42 73.4 451.43 73.39 451.44 73.38 451.44 73.38 451.45 73.36 451.46 73.34 451.46 73.33 451.47 73.3 451.47 73.29 451.46 73.28 451.45 73.27 451.46 73.26 451.47 73.25 451.47 73.24 451.48 73.23 451.48 73.21 451.48 73.2 451.48 73.19 451.48 73.18 451.47 73.17 451.47 73.16 451.47 73.15 451.46 73.14 451.47 73.13 451.47 73.11 451.48 73.11 451.49 73.12 451.5 73.11 451.51 73.12 451.52 73.13 451.53 73.13 451.55 73.13 451.55 73.12 451.55 73.11 451.56 73.1 451.57 73.11 451.58 73.11 451.58 73.1 451.58 73.09 451.59 73.08 451.59 73.08 451.6 73.07 451.61 73.06 451.62 73.06 451.63 73.06 451.64 73.05 451.65 73.04 451.65 73.04 451.67 73.04 451.67 73.03 451.68 73.03 451.69 73.03 451.71 73.03 451.72 73.02 451.73 73.02 451.74 73.02 451.75 73.02 451.76 73.01 451.77 73 451.78 73 451.8 72.99 451.8 72.99 451.81 72.98 451.82 72.98 451.84 72.97 451.85 72.96 451.85 72.96 451.87 72.95 451.87 72.95 451.88 72.94 451.88 72.93 451.89 72.91 451.89 72.91 451.9 72.89 451.9 72.89 451.9 72.87 451.9 72.87 451.9 72.85 451.9 72.84 451.9 72.83 451.9 72.82 451.9 72.8 451.9 72.79 451.89 72.78 451.88 72.78 451.87 72.78 451.86 72.78 451.86 72.77 451.85 72.76 451.85 72.75 451.86 72.75 451.86 72.74 451.86 72.73 451.86 72.72 451.86 72.71 451.87 72.7 451.87 72.69 451.87 72.68 451.87 72.67 451.88 72.65 451.89 72.64 451.89 72.64 451.89 72.63 451.91 72.63 451.92 72.63 451.94 72.63 451.95 72.63 451.95 72.63 451.98 72.64 452 72.64 452.02 72.64 452.03 72.64 452.04 72.63 452.04 72.63 452.05 72.62 452.06 72.61 452.08 72.6 452.09 72.59 452.1 72.59 452.1 72.59 452.11 72.6 452.12 72.61 452.12 72.61 452.14 72.62 452.15 72.61 452.16 72.61 452.16 72.6 452.17 72.59 452.17 72.58 452.17 72.57 452.17 72.56 452.17 72.55 452.17 72.54 452.18 72.53 452.18 72.52 452.18 72.51 452.18 72.5 452.19 72.48 452.19 72.47 452.19 72.46 452.19 72.44 452.2 72.43 452.2 72.42 452.2 72.41 452.2 72.4 452.2 72.4 452.21 72.39 452.21 72.38 452.22 72.37 452.22 72.37 452.23 72.36 452.24 72.36 452.25 72.36 452.27 72.35 452.27 72.36 452.28 72.37 452.27 72.38 452.27 72.38 452.27 72.39 452.27 72.41 452.27 72.42 452.28 72.43 452.28 72.44 452.28 72.45 452.29 72.46 452.29 72.46 452.29 72.47 452.3 72.48 452.3 72.49 452.31 72.49 452.32 72.49 452.33 72.48 452.33 72.48 452.34 72.47 452.35 72.47 452.36 72.47 452.37 72.47 452.37 72.48 452.38 72.49 452.39 72.49 452.41 72.49 452.42 72.5 452.42 72.5 452.43 72.51 452.46 72.51 452.47 72.5 452.47 72.49 452.47 72.48 452.47 72.47 452.47 72.46 452.47 72.45 452.47 72.44 452.48 72.43 452.48 72.42 452.49 72.41 452.5 72.4 452.51 72.39 452.52 72.37 452.52 72.37 452.53 72.35 452.53 72.34 452.54 72.33 452.56 72.29 452.57 72.28 452.57 72.27 452.58 72.26 452.59 72.26 452.6 72.26 452.6 72.27 452.6 72.28 452.6 72.29 452.6 72.3 452.6 72.31 452.59 72.31 452.59 72.32 452.59 72.33 452.59 72.35 452.59 72.36 452.59 72.37 452.59 72.38 452.6 72.39 452.6 72.4 452.61 72.4 452.62 72.4 452.63 72.4 452.63 72.4 452.64 72.4 452.65 72.4 452.66 72.4 452.66 72.39 452.66 72.38 452.67 72.35 452.68 72.34 452.68 72.33 452.69 72.34 452.69 72.34 452.69 72.36 452.69 72.37 452.69 72.38 452.68 72.39 452.68 72.4 452.68 72.41 452.68 72.43 452.68 72.44 452.67 72.45 452.67 72.46 452.67 72.47 452.67 72.49 452.67 72.5 452.67 72.51 452.68 72.52 452.69 72.53 452.69 72.53 452.7 72.54 452.71 72.54 452.72 72.55 452.73 72.55 452.74 72.54 452.75 72.53 452.76 72.53 452.77 72.52 452.78 72.53 452.78 72.54 452.78 72.54 452.78 72.55 452.78 72.56 452.78 72.57 452.79 72.58 452.79 72.59 452.8 72.59 452.81 72.6 452.82 72.6 452.83 72.6 452.86 72.6 452.87 72.62 452.87 72.62 452.87 72.64 452.87 72.65 452.88 72.66 452.89 72.66 452.89 72.67 452.89 72.69 452.89 72.7 452.9 72.7 452.9 72.71 452.91 72.71 452.92 72.72 452.93 72.73 452.94 72.74 452.95 72.74 452.95 72.75 452.96 72.75 452.97 72.76 452.98 72.77 452.98 72.78 452.98 72.79 452.98 72.79 452.99 72.8 453 72.8 453.01 72.79 453.02 72.79 453.02 72.8 453.03 72.81 453.03 72.82 453.02 72.82 453.03 72.83 453.03 72.85 453.04 72.85 453.05 72.87 453.05 72.87 453.05 72.88 453.06 72.89 453.05 72.9 453.04 72.91 453.04 72.92 453.04 72.93 453.05 72.94 453.05 72.96 453.05 72.97 453.05 72.98 453.05 72.99 453.06 73 453.06 73.01 453.06 73.02 453.06 73.02 453.07 73.03 453.07 73.04 453.07 73.05 453.08 73.06 453.08 73.07 453.08 73.08 453.09 73.09 453.09 73.1 453.1 73.11 453.11 73.13 453.11 73.13 453.12 73.14 453.12 73.15 453.12 73.17 453.13 73.18 453.13 73.19 453.13 73.2 453.13 73.21 453.13 73.22 453.14 73.23 453.14 73.24 453.14 73.25 453.15 73.26 453.15 73.27 453.15 73.27 453.15 73.29 453.16 73.29 453.18 73.29 453.19 73.29 453.2 73.28 453.2 73.28 453.21 73.27 453.21 73.26 453.22 73.25 453.23 73.25 453.23 73.24 453.24 73.23 453.25 73.23 453.26 73.22 453.26 73.22 453.28 73.2 453.28 73.2 453.29 73.19 453.29 73.17 453.29 73.16 453.29 73.15 453.3 73.12 453.31 73.11 453.32 73.1 453.32 73.1 453.33 73.09 453.33 73.09 453.34 73.06 453.35 73.05 453.35 73.04 453.36 73.03 453.37 73.01 453.38 73 453.38 72.99 453.38 72.98 453.38 72.97 453.38 72.96 453.39 72.95 453.39 72.94 453.39 72.93 453.39 72.91 453.39 72.9 453.4 72.89 453.4 72.88 453.41 72.86 453.41 72.85 453.42 72.84 453.42 72.83 453.42 72.82 453.42 72.81 453.42 72.8 453.42 72.79 453.43 72.78 453.43 72.77 453.44 72.76 453.45 72.76 453.46 72.76 453.47 72.75 453.47 72.74 453.47 72.73 453.47 72.72 453.47 72.71 453.47 72.7 453.46 72.7 453.45 72.69 453.45 72.69 453.44 72.67 453.44 72.66 453.45 72.65 453.45 72.64 453.45 72.63 453.45 72.62 453.46 72.62 453.46 72.61 453.46 72.6 453.47 72.59 453.47 72.57 453.47 72.56 453.47 72.55 453.47 72.53 453.48 72.52 453.48 72.51 453.48 72.5 453.49 72.48 453.5 72.47 453.5 72.46 453.5 72.45 453.51 72.43 453.52 72.43 453.52 72.44 453.53 72.45 453.53 72.46 453.53 72.47 453.54 72.47 453.55 72.48 453.55 72.49 453.56 72.5 453.57 72.5 453.58 72.5 453.59 72.5 453.6 72.49 453.6 72.48 453.6 72.48 453.6 72.47 453.6 72.46 453.59 72.45 453.59 72.44 453.59 72.43 453.59 72.42 453.58 72.42 453.57 72.41 453.56 72.41 453.56 72.4 453.55 72.39 453.55 72.38 453.55 72.37 453.55 72.36 453.56 72.35 453.56 72.34 453.56 72.33 453.57 72.32 453.58 72.31 453.58 72.3 453.59 72.29 453.59 72.27 453.59 72.26 453.59 72.26 453.59 72.24 453.6 72.22 453.61 72.21 453.62 72.21 453.63 72.21 453.64 72.21 453.64 72.21 453.64 72.2 453.64 72.19 453.64 72.18 453.64 72.17 453.64 72.16 453.64 72.13 453.64 72.12 453.64 72.1 453.65 72.09 453.65 72.08 453.65 72.08 453.65 72.07 453.66 72.06 453.67 72.05 453.67 72.04 453.67 71.98 453.67 71.98 453.66 71.97 453.66 71.96 453.66 71.95 453.65 71.94 453.64 71.94 453.64 71.94 453.63 71.93 453.63 71.91 453.63 71.91 453.63 71.89 453.63 71.88 453.63 71.86 453.63 71.85 453.63 71.84 453.63 71.83 453.63 71.82 453.64 71.82 453.64 71.81 453.64 71.8 453.64 71.79 453.65 71.78 453.65 71.77 453.65 71.76 453.65 71.75 453.65 71.74 453.65 71.73 453.65 71.72 453.66 71.71 453.66 71.7 453.66 71.7 453.66 71.69 453.67 71.68 453.68 71.67 453.69 71.67 453.7 71.67 453.71 71.68 453.72 71.68 453.72 71.69 453.73 71.7 453.74 71.71 453.74 71.71 453.75 71.72 453.76 71.73 453.77 71.74 453.78 71.73 453.78 71.72 453.79 71.71 453.8 71.7 453.8 71.7 453.81 71.68 453.8 71.68 453.8 71.67 453.81 71.66 453.81 71.64 453.82 71.64 453.83 71.64 453.84 71.63 453.86 71.63 453.86 71.62 453.86 71.61 453.86 71.6 453.86 71.59 453.85 71.58 453.85 71.57 453.84 71.56 453.84 71.55 453.84 71.54 453.84 71.53 453.84 71.51 453.84 71.5 453.84 71.49 453.85 71.48 453.85 71.47 453.86 71.47 453.87 71.47 453.88 71.47 453.89 71.48 453.9 71.49 453.9 71.5 453.9 71.5 453.9 71.51 453.9 71.52 453.89 71.54 453.89 71.54 453.89 71.55 453.89 71.56 453.9 71.56 453.91 71.57 453.92 71.57 453.93 71.57 453.94 71.58 453.95 71.57 453.95 71.56 453.95 71.54 453.96 71.54 453.97 71.54 453.98 71.55 453.99 71.55 454 71.55 454 71.54 454.01 71.55 454.02 71.56 454.02 71.57 454.03 71.57 454.05 71.57 454.05 71.56 454.05 71.55 454.06 71.54 454.06 71.53 454.06 71.49 454.06 71.48 454.06 71.48 454.07 71.46 454.07 71.45 454.07 71.44 454.07 71.42 454.08 71.4 454.08 71.38 454.08 71.37 454.08 71.36 454.08 71.35 454.08 71.33 454.08 71.32 454.08 71.28 454.09 71.27 454.09 71.26 454.1 71.25 454.11 71.24 454.12 71.24 454.13 71.23 454.14 71.23 454.15 71.24 454.16 71.25 454.17 71.24 454.18 71.24 454.19 71.24 454.2 71.25 454.2 71.26 454.21 71.27 454.21 71.27 454.22 71.28 454.22 71.29 454.23 71.3 454.23 71.3 454.24 71.31 454.24 71.32 454.24 71.32 454.24 71.31 454.24 71.29 454.24 71.28 454.24 71.27 454.24 71.26 454.25 71.25 454.26 71.26 454.26 71.26 454.26 71.27 454.27 71.28 454.28 71.27 454.28 71.26 454.28 71.25 454.28 71.23 454.28 71.22 454.29 71.2 454.3 71.19 454.31 71.18 454.32 71.17 454.33 71.17 454.34 71.16 454.35 71.16 454.35 71.17 454.35 71.18 454.36 71.18 454.38 71.18 454.38 71.17 454.39 71.16 454.39 71.15 454.39 71.14 454.4 71.13 454.4 71.12 454.42 71.11 454.42 71.12 454.42 71.13 454.42 71.14 454.42 71.15 454.42 71.16 454.42 71.16 454.43 71.18 454.43 71.19 454.43 71.2 454.43 71.21 454.43 71.22 454.43 71.24 454.44 71.25 454.45 71.26 454.45 71.27 454.45 71.28 454.47 71.27 454.47 71.27 454.47 71.26 454.47 71.24 454.48 71.22 454.48 71.21 454.48 71.21 454.48 71.2 454.49 71.19 454.49 71.17 454.5 71.16 454.5 71.15 454.51 71.14 454.52 71.14 454.53 71.13 454.54 71.14 454.55 71.15 454.56 71.16 454.56 71.16 454.56 71.18 454.57 71.18 454.57 71.19 454.58 71.2 454.59 71.21 454.59 71.22 454.61 71.23 454.61 71.24 454.62 71.25 454.63 71.26 454.64 71.26 454.65 71.27 454.66 71.27 454.67 71.26 454.67 71.25 454.67 71.25 454.68 71.25 454.69 71.25 454.7 71.27 454.7 71.28 454.71 71.28 454.71 71.29 454.72 71.3 454.73 71.31 454.74 71.32 454.74 71.32 454.76 71.34 454.76 71.35 454.77 71.35 454.78 71.35 454.79 71.35 454.79 71.36 454.8 71.37 454.81 71.37 454.82 71.37 454.82 71.37 454.83 71.36 454.84 71.35 454.85 71.35 454.85 71.34 454.86 71.34 454.87 71.34 454.88 71.34 454.89 71.33 454.89 71.32 454.89 71.32 454.89 71.3 454.88 71.29 454.88 71.28 454.88 71.27 454.88 71.26 454.88 71.25 454.89 71.25 454.9 71.25 454.91 71.25 454.92 71.25 454.93 71.25 454.94 71.25 454.96 71.25 454.97 71.25 454.98 71.26 455 71.27 455.01 71.28 455.02 71.29 455.02 71.3 455.03 71.31 455.04 71.32 455.04 71.34 455.05 71.34 455.05 71.35 455.06 71.36 455.06 71.37 455.06 71.38 455.07 71.39 455.07 71.4 455.08 71.41 455.08 71.41 455.08 71.42 455.09 71.43 455.09 71.44 455.09 71.45 455.1 71.46 455.1 71.47 455.11 71.47 455.11 71.48 455.12 71.49 455.14 71.5 455.14 71.5 455.15 71.5 455.17 71.5 455.18 71.5 455.19 71.49 455.19 71.48 455.19 71.47 455.2 71.47 455.21 71.47 455.21 71.46 455.21 71.45 455.22 71.45 455.22 71.44 455.21 71.43 455.21 71.43 455.21 71.42 455.21 71.41 455.21 71.4 455.21 71.4 455.22 71.38 455.22 71.38 455.23 71.36 455.25 71.36 455.26 71.36 455.26 71.35 455.27 71.35 455.29 71.35 455.29 71.35 455.31 71.35 455.31 71.34 455.31 71.33 455.31 71.32 455.32 71.32 455.32 71.32 455.33 71.31 455.33 71.3 455.33 71.29 455.33 71.28 455.34 71.27 455.35 71.27 455.36 71.27 455.36 71.26 455.37 71.26 455.38 71.26 455.39 71.25 455.39 71.24 455.39 71.23 455.39 71.21 455.39 71.2 455.39 71.18 455.39 71.17 455.4 71.15 455.41 71.15 455.42 71.14 455.43 71.14 455.44 71.15 455.44 71.15 455.45 71.16 455.46 71.15 455.46 71.15 455.48 71.16 455.48 71.16 455.49 71.16 455.5 71.15 455.5 71.14 455.5 71.14 455.52 71.13 455.52 71.12 455.52 71.12 455.52 71.1 455.52 71.09 455.52 71.08 455.53 71.07 455.53 71.06 455.53 71.05 455.54 71.03 455.55 71.02 455.55 71.01 455.55 71 455.55 70.99 455.55 70.97 455.56 70.96 455.56 70.95 455.56 70.94 455.57 70.93 455.57 70.92 455.58 70.91 455.58 70.9 455.59 70.9 455.6 70.89 455.6 70.9 455.61 70.91 455.62 70.91 455.63 70.92 455.64 70.93 455.65 70.93 455.65 70.92 455.65 70.91 455.66 70.89 455.67 70.9 455.67 70.9 455.67 70.91 455.68 70.91 455.68 70.9 455.69 70.89 455.7 70.9 455.71 70.9 455.71 70.88 455.7 70.87 455.7 70.86 455.7 70.85 455.7 70.84 455.7 70.83 455.7 70.82 455.7 70.81 455.71 70.8 455.69 70.8 455.69 70.79 455.69 70.78 455.7 70.77 455.7 70.76 455.71 70.75 455.71 70.75 455.73 70.74 455.73 70.72 455.74 70.72 455.75 70.72 455.76 70.71 455.76 70.71 455.76 70.7 455.76 70.69 455.76 70.66 455.77 70.65 455.78 70.65 455.79 70.65 455.8 70.65 455.81 70.64 455.82 70.64 455.82 70.63 455.83 70.62 455.83 70.61 455.82 70.61 455.81 70.6 455.81 70.59 455.81 70.58 455.81 70.57 455.81 70.56 455.82 70.55 455.83 70.55 455.84 70.54 455.85 70.55 455.86 70.54 455.88 70.53 455.9 70.49 455.9 70.49 455.9 70.47 455.91 70.46 455.91 70.43 455.91 70.42 455.91 70.41 455.91 70.4 455.92 70.39 455.93 70.38 455.94 70.37 455.96 70.37 455.97 70.36 455.98 70.35 455.99 70.35 456.01 70.35 456.02 70.34 456.03 70.33 456.06 70.32 456.07 70.31 456.08 70.3 456.09 70.3 456.09 70.29 456.1 70.28 456.11 70.27 456.13 70.26 456.13 70.25 456.14 70.23 456.15 70.22 456.16 70.21 456.18 70.2 456.18 70.18 456.18 70.17 456.18 70.16 456.19 70.14 456.2 70.14 456.21 70.14 456.22 70.14 456.23 70.15 456.24 70.15 456.25 70.16 456.25 70.16 456.26 70.16 456.3 70.16 456.3 70.15 456.31 70.14 456.32 70.12 456.32 70.11 456.32 70.1 456.33 70.1 456.33 70.09 456.33 70.08 456.32 70.07 456.32 70.06 456.32 70.06 456.35 69.99 456.36 69.99 456.38 69.99 456.38 69.98 456.39 69.97 456.41 69.93 456.41 69.91 456.41 69.9 456.41 69.89 456.42 69.89 456.43 69.88 456.44 69.88 456.44 69.87 456.45 69.86 456.45 69.85 456.45 69.84 456.45 69.83 456.45 69.82 456.46 69.81 456.47 69.81 456.47 69.81 456.48 69.82 456.49 69.83 456.5 69.82 456.51 69.81 456.52 69.79 456.55 69.75 456.57 69.74 456.58 69.74 456.58 69.73 456.59 69.73 456.6 69.72 456.61 69.71 456.62 69.7 456.63 69.69 456.63 69.67 456.64 69.65 456.65 69.64 456.66 69.63 456.68 69.61 456.68 69.6 456.69 69.59 456.69 69.57 456.7 69.54 456.71 69.51 456.73 69.48 456.74 69.46 456.75 69.45 456.75 69.45 456.75 69.44 456.76 69.43 456.76 69.42 456.76 69.4 456.77 69.38 456.78 69.36 456.79 69.35 456.8 69.33 456.81 69.33 456.82 69.32 456.83 69.33 456.83 69.34 456.83 69.35 456.83 69.37 456.83 69.4 456.82 69.42 456.82 69.44 456.81 69.45 456.79 69.5 456.79 69.52 456.78 69.54 456.77 69.59 456.76 69.61 456.76 69.62 456.76 69.64 456.75 69.65 456.75 69.67 456.74 69.69 456.74 69.7 456.74 69.71 456.74 69.76 456.74 69.78 456.73 69.79 456.73 69.81 456.73 69.83 456.74 69.87 456.74 69.88 456.75 69.9 456.75 69.91 456.75 69.95 456.75 69.97 456.76 69.98 456.76 70 456.78 70.03 456.79 70.03 456.8 70.04 456.81 70.04 456.82 70.05 456.83 70.05 456.83 70.06 456.84 70.07 456.83 70.09 456.83 70.1 456.83 70.11 456.84 70.12 456.85 70.13 456.86 70.14 456.87 70.14 456.89 70.15 456.9 70.15 456.91 70.15 456.93 70.14 456.94 70.14 456.95 70.13 456.96 70.12 456.97 70.11 456.99 70.09 456.99 70.08 457 70.07 457.01 70.07 457.02 70.08 457.02 70.09 457.02 70.1 457.04 70.1 457.05 70.09 457.08 70.08 457.09 70.07 457.1 70.06 457.13 70.05 457.13 70.04 457.14 70.03 457.15 70.02 457.16 70.03 457.17 70.04 457.17 70.04 457.18 70.05 457.19 70.06 457.21 70.07 457.22 70.08 457.23 70.08 457.24 70.08 457.25 70.08 457.26 70.08 457.27 70.08 457.28 70.07 457.29 70.05 457.3 70.03 457.31 70.03 457.32 70.04 457.33 70.05 457.33 70.07 457.34 70.08 457.34 70.09 457.35 70.1 457.35 70.11 457.34 70.12 457.32 70.15 457.32 70.16 457.31 70.17 457.31 70.18 457.32 70.19 457.33 70.2 457.34 70.2 457.35 70.21 457.36 70.21 457.39 70.2 457.4 70.2 457.42 70.2 457.44 70.21 457.45 70.22 457.45 70.22 457.46 70.22 457.47 70.22 457.48 70.21 457.5 70.2 457.51 70.22 457.51 70.23 457.51 70.24 457.52 70.25 457.52 70.26 457.52 70.27 457.52 70.28 457.53 70.29 457.54 70.29 457.56 70.3 457.57 70.31 457.57 70.32 457.57 70.33 457.57 70.33 457.57 70.35 457.57 70.37 457.56 70.38 457.56 70.38 457.55 70.37 457.55 70.37 457.54 70.37 457.54 70.38 457.54 70.39 457.54 70.42 457.53 70.43 457.53 70.45 457.53 70.47 457.54 70.49 457.55 70.53 457.55 70.55 457.56 70.57 457.56 70.58 457.57 70.59 457.58 70.61 457.6 70.61 457.62 70.61 457.62 70.62 457.62 70.64 457.62 70.66 457.63 70.68 457.63 70.69 457.64 70.71 457.65 70.72 457.68 70.74 457.69 70.75 457.7 70.76 457.72 70.76 457.73 70.76 457.74 70.76 457.76 70.77 457.78 70.78 457.79 70.78 457.8 70.77 457.81 70.77 457.82 70.76 457.82 70.75 457.83 70.75 457.83 70.73 457.82 70.72 457.8 70.7 457.79 70.69 457.8 70.68 457.8 70.66 457.8 70.65 457.81 70.64 457.81 70.62 457.81 70.61 457.81 70.6 457.81 70.59 457.82 70.57 457.83 70.57 457.84 70.56 457.85 70.56 457.85 70.55 457.85 70.54 457.86 70.52 457.86 70.51 457.86 70.49 457.86 70.47 457.86 70.46 457.85 70.46 457.84 70.46 457.83 70.46 457.83 70.46 457.83 70.45 457.83 70.44 457.84 70.43 457.85 70.41 457.85 70.4 457.86 70.39 457.87 70.38 457.88 70.38 457.89 70.38 457.9 70.39 457.91 70.4 457.93 70.41 457.94 70.41 457.95 70.41 457.96 70.4 457.97 70.39 457.98 70.38 457.99 70.36 458 70.37 458 70.38 458.01 70.39 458.02 70.4 458.02 70.41 458.03 70.42 458.04 70.41 458.04 70.41 458.05 70.4 458.06 70.39 458.06 70.38 458.06 70.37 458.06 70.35 458.06 70.34 458.06 70.32 458.06 70.27 458.07 70.27 458.09 70.26 458.09 70.25 458.1 70.24 458.12 70.22 458.13 70.21 458.14 70.2 458.15 70.2 458.16 70.21 458.18 70.22 458.19 70.23 458.21 70.24 458.24 70.25 458.26 70.25 458.27 70.25 458.29 70.25 458.3 70.25 458.33 70.25 458.34 70.25 458.37 70.25 458.39 70.25 458.4 70.25 458.42 70.24 458.44 70.23 458.46 70.22 458.47 70.21 458.48 70.2 458.48 70.19 458.48 70.17 458.49 70.15 458.49 70.15 458.5 70.15 458.52 70.14 458.52 70.13 458.53 70.12 458.53 70.11 458.53 70.09 458.54 70.08 458.55 70.07 458.56 70.05 458.57 70.04 458.58 70.02 458.59 70.01 458.59 70 458.62 69.98 458.62 69.97 458.63 69.97 458.65 69.96 458.66 69.97 458.67 69.97 458.68 69.97 458.69 69.97 458.7 69.97 458.71 69.96 458.72 69.96 458.73 69.97 458.74 69.98 458.75 69.99 458.77 69.98 458.78 69.98 458.8 69.97 458.81 69.96 458.84 69.94 458.86 69.93 458.87 69.92 458.91 69.88 458.92 69.87 458.93 69.86 458.95 69.84 458.97 69.82 458.98 69.81 459 69.8 459.01 69.8 459.02 69.79 459.03 69.79 459.04 69.79 459.04 69.78 459.05 69.77 459.05 69.76 459.04 69.73 459.04 69.72 459.03 69.72 459.02 69.72 459.01 69.71 459.01 69.7 459.01 69.69 459.01 69.68 459.02 69.66 459.03 69.63 459.04 69.61 459.04 69.6 459.03 69.59 459.02 69.59 459.01 69.59 459 69.58 459 69.57 459 69.56 459 69.53 458.99 69.52 458.98 69.52 458.97 69.52 458.97 69.52 458.95 69.53 458.94 69.54 458.92 69.56 458.91 69.57 458.9 69.57 458.9 69.56 458.9 69.55 458.91 69.53 458.92 69.52 458.94 69.5 458.95 69.49 458.97 69.49 458.99 69.48 459.01 69.46 459.02 69.46 459.03 69.45 459.04 69.44 459.05 69.43 459.05 69.41 459.06 69.4 459.06 69.39 459.07 69.37 459.07 69.35 459.08 69.33 459.09 69.31 459.1 69.3 459.14 69.24 459.15 69.23 459.16 69.22 459.18 69.21 459.19 69.2 459.2 69.2 459.21 69.19 459.22 69.18 459.24 69.17 459.24 69.15 459.26 69.12 459.27 69.1 459.27 69.09 459.27 69.07 459.28 69.06 459.28 69.05 459.28 69.04 459.29 69.03 459.31 68.99 459.31 68.97 459.3 68.97 459.29 68.98 459.29 68.98 459.28 68.99 459.28 69 459.28 69.01 459.26 69.05 459.25 69.06 459.24 69.08 459.23 69.1 459.21 69.11 459.16 69.15 459.15 69.15 459.13 69.15 459.12 69.15 459.11 69.14 459.1 69.13 459.1 69.12 459.1 69.11 459.1 69.1 459.11 69.09 459.11 69.07 459.12 69.05 459.12 69.04 459.13 69.02 459.15 68.98 459.18 68.93 459.19 68.9 459.21 68.88 459.22 68.87 459.23 68.87 459.24 68.86 459.27 68.86 459.27 68.85 459.28 68.83 459.28 68.82 459.29 68.81 459.3 68.8 459.3 68.8 459.31 68.81 459.31 68.82 459.3 68.83 459.3 68.84 459.3 68.85 459.3 68.86 459.3 68.88 459.3 68.89 459.29 68.9 459.28 68.93 459.3 68.93 459.31 68.92 459.33 68.9 459.34 68.89 459.35 68.88 459.36 68.88 459.36 68.89 459.37 68.9 459.37 68.91 459.37 68.92 459.37 68.92 459.38 68.93 459.39 68.92 459.4 68.91 459.41 68.88 459.42 68.87 459.44 68.86 459.45 68.86 459.46 68.86 459.5 68.86 459.51 68.86 459.52 68.85 459.53 68.84 459.53 68.82 459.54 68.81 459.55 68.78 459.57 68.77 459.58 68.75 459.61 68.73 459.63 68.71 459.64 68.71 459.66 68.71 459.67 68.71 459.69 68.71 459.7 68.71 459.71 68.71 459.72 68.69 459.73 68.68 459.74 68.66 459.76 68.64 459.77 68.64 459.78 68.64 459.78 68.63 459.79 68.62 459.79 68.61 459.79 68.59 459.79 68.58 459.79 68.55 459.8 68.54 459.81 68.53 459.82 68.53 459.83 68.53 459.83 68.53 459.84 68.53 459.86 68.54 459.87 68.54 459.87 68.54 459.89 68.53 459.9 68.53 459.9 68.52 459.91 68.51 459.92 68.49 459.93 68.48 459.95 68.44 459.96 68.43 459.97 68.43 459.98 68.43 459.99 68.44 460 68.45 460.01 68.44 460.01 68.44 460.02 68.43 460.03 68.41 460.03 68.41 460.03 68.4 460.03 68.39 460.02 68.38 460.01 68.38 460.01 68.37 460.01 68.36 460.02 68.35 460.03 68.34 460.03 68.33 460.05 68.34 460.06 68.35 460.07 68.35 460.07 68.36 460.07 68.37 460.07 68.38 460.05 68.44 460.03 68.47 460.02 68.51 460.01 68.54 460 68.55 460 68.56 460 68.58 460 68.59 460.01 68.61 460.02 68.62 460.03 68.62 460.04 68.62 460.05 68.62 460.06 68.62 460.07 68.61 460.08 68.6 460.09 68.59 460.1 68.58 460.11 68.56 460.12 68.54 460.13 68.53 460.14 68.52 460.15 68.53 460.17 68.53 460.19 68.54 460.2 68.54 460.21 68.54 460.22 68.53 460.23 68.52 460.24 68.51 460.25 68.5 460.26 68.48 460.28 68.46 460.29 68.46 460.3 68.47 460.31 68.48 460.31 68.49 460.32 68.5 460.32 68.51 460.33 68.5 460.34 68.49 460.36 68.48 460.37 68.46 460.39 68.44 460.4 68.43 460.42 68.4 460.46 68.36 460.46 68.35 460.5 68.29 460.51 68.27 460.52 68.25 460.53 68.23 460.55 68.2 460.56 68.19 460.56 68.18 460.56 68.17 460.57 68.16 460.57 68.16 460.57 68.15 460.58 68.14 460.59 68.13 460.6 68.12 460.6 68.11 460.61 68.1 460.61 68.09 460.62 68.09 460.63 68.09 460.64 68.09 460.65 68.1 460.65 68.11 460.66 68.12 460.66 68.13 460.67 68.13 460.68 68.14 460.71 68.14 460.72 68.14 460.73 68.14 460.74 68.14 460.75 68.13 460.76 68.11 460.77 68.1 460.78 68.09 460.78 68.1 460.78 68.12 460.78 68.13 460.78 68.15 460.79 68.15 460.79 68.15 460.8 68.14 460.82 68.13 460.83 68.12 460.84 68.11 460.85 68.1 460.86 68.1 460.87 68.09 460.88 68.08 460.89 68.08 460.89 68.07 460.9 68.07 460.91 68.06 460.93 68.05 460.94 68.04 460.94 68.03 460.95 68.03 460.96 68.01 460.97 68.01 460.97 68 460.98 68 460.99 68 461 68.01 461.01 68 461.01 68 461.01 67.99 461.02 67.98 461.04 67.97 461.05 67.96 461.06 67.94 461.06 67.93 461.06 67.93 461.05 67.92 461.06 67.91 461.06 67.9 461.07 67.9 461.07 67.89 461.08 67.89 461.09 67.89 461.1 67.89 461.11 67.88 461.1 67.88 461.1 67.87 461.09 67.86 461.09 67.85 461.09 67.84 461.09 67.83 461.09 67.83 461.1 67.82 461.11 67.82 461.11 67.81 461.12 67.82 461.13 67.81 461.14 67.81 461.15 67.8 461.16 67.8 461.17 67.79 461.18 67.79 461.19 67.79 461.2 67.79 461.21 67.79 461.21 67.77 461.22 67.76 461.22 67.76 461.23 67.74 461.25 67.73 461.25 67.74 461.24 67.75 461.24 67.76 461.24 67.76 461.23 67.79 461.23 67.79 461.23 67.8 461.23 67.81 461.23 67.82 461.24 67.82 461.24 67.82 461.25 67.82 461.26 67.81 461.27 67.8 461.28 67.79 461.29 67.79 461.3 67.79 461.31 67.78 461.31 67.77 461.32 67.76 461.33 67.76 461.34 67.77 461.35 67.78 461.36 67.79 461.37 67.79 461.38 67.78 461.4 67.77 461.4 67.77 461.41 67.75 461.43 67.74 461.46 67.71 461.46 67.7 461.47 67.69 461.47 67.68 461.48 67.68 461.49 67.67 461.49 67.66 461.5 67.66 461.5 67.64 461.51 67.63 461.52 67.63 461.53 67.62 461.54 67.6 461.55 67.6 461.56 67.59 461.57 67.58 461.58 67.58 461.59 67.58 461.6 67.58 461.6 67.6 461.6 67.6 461.6 67.61 461.59 67.62 461.59 67.63 461.6 67.64 461.61 67.65 461.63 67.67 461.63 67.68 461.64 67.69 461.65 67.7 461.66 67.71 461.67 67.72 461.68 67.73 461.69 67.74 461.7 67.75 461.7 67.76 461.71 67.76 461.72 67.77 461.73 67.77 461.74 67.78 461.74 67.78 461.75 67.78 461.76 67.79 461.77 67.79 461.78 67.79 461.81 67.8 461.82 67.8 461.84 67.8 461.85 67.8 461.86 67.8 461.86 67.79 461.87 67.79 461.88 67.78 461.89 67.77 461.91 67.75 461.92 67.74 461.93 67.72 461.94 67.71 461.95 67.71 461.96 67.7 461.96 67.69 461.98 67.67 462 67.66 462.01 67.65 462.04 67.62 462.05 67.61 462.06 67.6 462.06 67.59 462.08 67.57 462.09 67.57 462.1 67.57 462.11 67.57 462.12 67.58 462.13 67.59 462.13 67.6 462.14 67.6 462.15 67.62 462.15 67.63 462.16 67.63 462.17 67.64 462.18 67.64 462.19 67.64 462.2 67.63 462.2 67.63 462.21 67.62 462.23 67.6 462.24 67.58 462.25 67.57 462.25 67.58 462.26 67.57 462.27 67.57 462.27 67.56 462.28 67.56 462.29 67.56 462.29 67.57 462.28 67.58 462.29 67.59 462.29 67.6 462.3 67.6 462.31 67.61 462.32 67.61 462.34 67.61 462.35 67.6 462.36 67.6 462.36 67.59 462.38 67.59 462.39 67.59 462.4 67.58 462.4 67.58 462.41 67.58 462.42 67.58 462.45 67.58 462.46 67.58 462.47 67.59 462.48 67.59 462.49 67.59 462.49 67.59 462.5 67.6 462.51 67.6 462.52 67.6 462.54 67.6 462.54 67.61 462.54 67.62 462.55 67.63 462.56 67.63 462.56 67.62 462.57 67.62 462.58 67.61 462.59 67.61 462.61 67.61 462.62 67.6 462.63 67.6 462.64 67.6 462.65 67.59 462.65 67.58 462.66 67.57 462.68 67.56 462.69 67.55 462.7 67.54 462.7 67.54 462.72 67.53 462.73 67.52 462.74 67.51 462.76 67.49 462.77 67.49 462.78 67.48 462.8 67.47 462.81 67.45 462.82 67.44 462.84 67.42 462.85 67.41 462.85 67.4 462.86 67.39 462.87 67.38 462.87 67.38 462.88 67.37 462.89 67.36 462.89 67.35 462.88 67.34 462.88 67.34 462.88 67.33 462.88 67.32 462.88 67.31 462.88 67.3 462.88 67.29 462.88 67.29 462.89 67.28 462.9 67.27 462.91 67.27 462.92 67.26 462.93 67.27 462.93 67.28 462.93 67.29 462.93 67.3 462.93 67.31 462.93 67.32 462.93 67.32 462.94 67.33 462.95 67.32 462.95 67.31 462.95 67.31 462.96 67.3 462.97 67.29 462.98 67.3 462.99 67.29 463.01 67.29 463.02 67.29 463.03 67.29 463.05 67.28 463.05 67.28 463.06 67.27 463.07 67.26 463.08 67.26 463.09 67.25 463.1 67.26 463.11 67.27 463.13 67.28 463.13 67.28 463.13 67.29 463.13 67.3 463.15 67.31 463.16 67.3 463.17 67.31 463.17 67.32 463.18 67.33 463.18 67.33 463.19 67.33 463.2 67.34 463.21 67.34 463.21 67.35 463.2 67.36 463.21 67.41 463.21 67.42 463.23 67.43 463.23 67.42 463.25 67.42 463.26 67.41 463.27 67.41 463.28 67.41 463.28 67.41 463.29 67.42 463.29 67.43 463.29 67.44 463.3 67.44 463.31 67.45 463.32 67.45 463.33 67.45 463.34 67.45 463.35 67.46 463.36 67.47 463.37 67.47 463.39 67.47 463.4 67.47 463.41 67.47 463.43 67.48 463.44 67.49 463.45 67.49 463.48 67.5 463.49 67.51 463.49 67.51 463.51 67.51 463.52 67.51 463.53 67.51 463.54 67.5 463.57 67.49 463.58 67.48 463.6 67.48 463.61 67.48 463.62 67.47 463.63 67.46 463.63 67.45 463.63 67.44 463.64 67.43 463.64 67.42 463.63 67.39 463.63 67.37 463.63 67.36 463.63 67.35 463.64 67.34 463.64 67.33 463.65 67.32 463.65 67.31 463.66 67.3 463.67 67.29 463.67 67.29 463.68 67.3 463.69 67.3 463.7 67.29 463.7 67.29 463.71 67.28 463.72 67.27 463.73 67.26 463.73 67.25 463.73 67.24 463.72 67.23 463.71 67.22 463.71 67.21 463.71 67.2 463.73 67.18 463.74 67.17 463.75 67.16 463.75 67.16 463.74 67.14 463.74 67.13 463.73 67.13 463.72 67.12 463.71 67.11 463.73 67.09 463.73 67.09 463.75 67.08 463.76 67.07 463.77 67.07 463.81 67.04 463.83 67.02 463.85 67.01 463.86 67 463.87 67 463.88 67 463.88 67.01 463.87 67.03 463.86 67.04 463.86 67.05 463.85 67.06 463.85 67.06 463.84 67.07 463.85 67.08 463.86 67.08 463.86 67.1 463.85 67.1 463.86 67.11 463.87 67.12 463.88 67.13 463.88 67.13 463.88 67.14 463.88 67.15 463.9 67.15 463.92 67.14 463.93 67.13 463.94 67.13 463.94 67.13 463.95 67.13 463.97 67.12 463.98 67.12 463.99 67.11 464 67.12 464 67.13 463.99 67.14 463.99 67.14 464 67.15 464.01 67.15 464.01 67.16 464.01 67.17 464 67.18 464 67.19 464 67.2 463.99 67.21 463.98 67.22 463.98 67.23 463.98 67.24 463.99 67.24 464 67.25 464.01 67.24 464.02 67.25 464.03 67.25 464.04 67.25 464.05 67.25 464.06 67.25 464.08 67.24 464.09 67.23 464.1 67.23 464.13 67.22 464.14 67.22 464.15 67.21 464.16 67.2 464.17 67.19 464.19 67.17 464.2 67.16 464.2 67.16 464.22 67.14 464.23 67.14 464.24 67.13 464.25 67.13 464.26 67.13 464.26 67.14 464.24 67.17 464.23 67.18 464.23 67.19 464.23 67.2 464.24 67.21 464.24 67.21 464.24 67.23 464.24 67.23 464.23 67.24 464.23 67.25 464.24 67.26 464.24 67.27 464.25 67.27 464.25 67.28 464.26 67.28 464.27 67.27 464.29 67.26 464.29 67.26 464.3 67.26 464.31 67.25 464.33 67.24 464.34 67.23 464.35 67.22 464.36 67.21 464.37 67.21 464.39 67.21 464.4 67.2 464.41 67.2 464.42 67.2 464.43 67.2 464.43 67.21 464.42 67.22 464.43 67.23 464.44 67.23 464.44 67.24 464.42 67.27 464.41 67.28 464.41 67.29 464.4 67.3 464.4 67.3 464.4 67.31 464.4 67.32 464.41 67.33 464.43 67.33 464.43 67.34 464.44 67.35 464.45 67.35 464.46 67.35 464.47 67.36 464.47 67.37 464.48 67.37 464.49 67.37 464.5 67.38 464.5 67.39 464.5 67.4 464.5 67.41 464.5 67.41 464.51 67.41 464.52 67.42 464.53 67.42 464.54 67.43 464.55 67.44 464.55 67.45 464.53 67.48 464.52 67.49 464.51 67.51 464.48 67.54 464.46 67.56 464.45 67.58 464.45 67.59 464.45 67.61 464.44 67.62 464.44 67.63 464.43 67.65 464.43 67.66 464.42 67.67 464.42 67.68 464.42 67.69 464.42 67.7 464.43 67.71 464.43 67.72 464.43 67.73 464.43 67.75 464.43 67.76 464.43 67.77 464.43 67.78 464.42 67.79 464.41 67.8 464.41 67.8 464.4 67.82 464.38 67.83 464.37 67.85 464.36 67.87 464.34 67.89 464.34 67.9 464.33 67.91 464.33 67.92 464.32 67.93 464.32 67.94 464.32 67.95 464.33 67.95 464.33 67.95 464.34 67.95 464.35 67.94 464.35 67.93 464.36 67.92 464.37 67.9 464.38 67.89 464.39 67.88 464.39 67.88 464.4 67.87 464.4 67.86 464.41 67.86 464.42 67.85 464.43 67.85 464.44 67.85 464.44 67.84 464.45 67.83 464.45 67.82 464.46 67.81 464.47 67.8 464.48 67.8 464.49 67.8 464.5 67.81 464.51 67.81 464.53 67.81 464.54 67.8 464.54 67.8 464.54 67.79 464.54 67.78 464.53 67.77 464.53 67.75 464.53 67.74 464.53 67.73 464.53 67.71 464.53 67.7 464.54 67.69 464.54 67.68 464.55 67.67 464.56 67.67 464.57 67.67 464.58 67.66 464.58 67.66 464.58 67.65 464.58 67.64 464.59 67.63 464.6 67.63 464.6 67.62 464.6 67.61 464.6 67.61 464.61 67.6 464.62 67.59 464.63 67.58 464.63 67.58 464.64 67.58 464.66 67.57 464.67 67.56 464.68 67.55 464.69 67.55 464.7 67.54 464.71 67.53 464.71 67.52 464.72 67.52 464.72 67.51 464.72 67.5 464.72 67.49 464.73 67.48 464.73 67.47 464.73 67.45 464.72 67.45 464.72 67.44 464.72 67.42 464.72 67.41 464.73 67.39 464.73 67.38 464.73 67.37 464.73 67.36 464.74 67.35 464.76 67.34 464.77 67.34 464.78 67.34 464.8 67.33 464.81 67.32 464.82 67.32 464.82 67.31 464.83 67.3 464.83 67.29 464.83 67.29 464.84 67.27 464.85 67.26 464.85 67.25 464.85 67.24 464.85 67.23 464.84 67.23 464.83 67.23 464.82 67.23 464.81 67.23 464.81 67.23 464.81 67.22 464.81 67.21 464.82 67.2 464.83 67.2 464.84 67.19 464.84 67.18 464.84 67.17 464.84 67.16 464.84 67.16 464.84 67.15 464.83 67.15 464.82 67.15 464.81 67.14 464.81 67.13 464.82 67.13 464.84 67.11 464.85 67.11 464.88 67.09 464.88 67.09 464.91 67.07 464.94 67.05 464.96 67.04 464.97 67.03 464.98 67.03 464.99 67.02 465 67.02 465.01 67.01 465.03 66.99 465.04 66.99 465.05 66.98 465.06 66.97 465.06 66.97 465.07 66.96 465.08 66.96 465.09 66.95 465.1 66.94 465.11 66.95 465.11 66.96 465.11 66.97 465.12 66.97 465.14 66.96 465.15 66.96 465.16 66.96 465.17 66.96 465.19 66.96 465.19 66.96 465.2 66.95 465.22 66.94 465.23 66.94 465.25 66.93 465.25 66.92 465.27 66.91 465.3 66.89 465.31 66.88 465.31 66.88 465.33 66.87 465.34 66.86 465.36 66.85 465.37 66.84 465.38 66.82 465.39 66.82 465.4 66.81 465.41 66.8 465.41 66.77 465.42 66.77 465.43 66.76 465.44 66.76 465.44 66.76 465.45 66.76 465.47 66.75 465.49 66.73 465.5 66.73 465.5 66.72 465.51 66.71 465.53 66.7 465.55 66.69 465.56 66.68 465.57 66.67 465.58 66.67 465.6 66.66 465.61 66.66 465.65 66.63 465.65 66.63 465.67 66.62 465.68 66.62 465.7 66.61 465.72 66.6 465.73 66.59 465.74 66.58 465.75 66.58 465.75 66.61 465.74 66.62 465.75 66.62 465.75 66.63 465.75 66.64 465.76 66.65 465.77 66.65 465.77 66.66 465.77 66.67 465.76 66.68 465.77 66.68 465.78 66.69 465.78 66.7 465.77 66.71 465.76 66.74 465.75 66.75 465.76 66.75 465.77 66.76 465.77 66.77 465.78 66.77 465.79 66.76 465.8 66.76 465.81 66.75 465.82 66.74 465.83 66.73 465.84 66.73 465.84 66.72 465.85 66.71 465.86 66.7 465.88 66.69 465.89 66.68 465.93 66.65 465.95 66.64 465.96 66.62 466 66.6 466.01 66.59 466.02 66.58 466.03 66.58 466.03 66.57 466.04 66.58 466.04 66.59 466.04 66.59 466.03 66.6 466.03 66.61 466.02 66.62 466.02 66.63 466.02 66.64 466.04 66.64 466.06 66.64 466.06 66.64 466.07 66.63 466.07 66.64 466.07 66.65 466.08 66.66 466.09 66.67 466.1 66.67 466.11 66.66 466.12 66.66 466.14 66.67 466.15 66.66 466.15 66.66 466.16 66.65 466.17 66.64 466.18 66.64 466.19 66.63 466.2 66.63 466.21 66.64 466.22 66.64 466.22 66.65 466.23 66.65 466.23 66.66 466.24 66.67 466.25 66.67 466.26 66.67 466.27 66.67 466.28 66.67 466.29 66.67 466.3 66.67 466.31 66.67 466.31 66.65 466.31 66.64 466.32 66.63 466.33 66.63 466.33 66.62 466.34 66.61 466.35 66.6 466.37 66.59 466.38 66.59 466.38 66.58 466.39 66.58 466.41 66.59 466.41 66.6 466.42 66.6 466.43 66.61 466.44 66.61 466.46 66.62 466.47 66.62 466.48 66.62 466.48 66.62 466.49 66.62 466.5 66.61 466.5 66.61 466.51 66.6 466.5 66.6 466.5 66.59 466.48 66.58 466.48 66.58 466.47 66.58 466.46 66.57 466.46 66.56 466.46 66.55 466.46 66.54 466.46 66.53 466.47 66.52 466.47 66.51 466.47 66.51 466.46 66.5 466.46 66.5 466.46 66.49 466.46 66.48 466.46 66.47 466.45 66.46 466.44 66.45 466.44 66.45 466.45 66.42 466.45 66.4 466.46 66.4 466.47 66.39 466.48 66.39 466.49 66.38 466.5 66.38 466.51 66.38 466.51 66.36 466.51 66.35 466.51 66.34 466.5 66.33 466.49 66.33 466.48 66.33 466.46 66.33 466.45 66.32 466.45 66.31 466.45 66.3 466.45 66.29 466.46 66.28 466.46 66.27 466.48 66.26 466.5 66.26 466.51 66.26 466.51 66.26 466.52 66.25 466.52 66.24 466.54 66.21 466.54 66.21 466.54 66.2 466.53 66.17 466.53 66.16 466.53 66.14 466.53 66.14 466.54 66.13 466.55 66.13 466.56 66.13 466.57 66.13 466.58 66.12 466.59 66.11 466.6 66.1 466.6 66.09 466.61 66.08 466.61 66.07 466.61 66.06 466.62 66.05 466.63 66.05 466.63 66.04 466.64 66.03 466.65 66.03 466.65 66.03 466.66 66.03 466.67 66.03 466.68 66.03 466.69 66.03 466.69 66.04 466.69 66.05 466.68 66.07 466.68 66.07 466.69 66.08 466.71 66.08 466.71 66.08 466.72 66.08 466.74 66.09 466.75 66.09 466.76 66.1 466.77 66.1 466.78 66.09 466.79 66.09 466.8 66.08 466.81 66.08 466.82 66.08 466.83 66.08 466.85 66.08 466.86 66.08 466.87 66.08 466.88 66.07 466.88 66.07 466.9 66.07 466.9 66.09 466.9 66.1 466.91 66.11 466.92 66.11 466.93 66.11 466.94 66.1 466.95 66.1 466.96 66.09 466.97 66.09 466.97 66.08 466.98 66.08 466.99 66.08 467 66.07 467.01 66.06 467.02 66.06 467.03 66.06 467.03 66.07 467.04 66.08 467.05 66.08 467.06 66.08 467.07 66.07 467.07 66.06 467.08 66.05 467.09 66.05 467.1 66.04 467.11 66.04 467.11 66.03 467.12 66.02 467.13 66.01 467.13 66.01 467.14 66 467.15 66 467.16 65.99 467.16 65.99 467.17 65.98 467.18 65.97 467.19 65.95 467.2 65.94 467.21 65.94 467.21 65.93 467.22 65.93 467.23 65.94 467.23 65.94 467.23 65.96 467.24 65.97 467.25 65.98 467.27 65.98 467.29 65.98 467.29 65.98 467.3 65.98 467.31 65.98 467.32 65.99 467.33 66 467.33 66.01 467.33 66.02 467.34 66.01 467.35 66.01 467.36 66.01 467.36 66.01 467.38 66.01 467.38 66.01 467.39 66 467.4 65.99 467.41 65.99 467.41 65.99 467.42 65.98 467.43 65.98 467.43 65.97 467.41 65.97 467.41 65.96 467.41 65.95 467.41 65.95 467.42 65.94 467.43 65.93 467.44 65.93 467.45 65.92 467.46 65.92 467.47 65.91 467.48 65.91 467.48 65.92 467.48 65.93 467.49 65.93 467.5 65.92 467.5 65.91 467.51 65.91 467.52 65.9 467.54 65.91 467.54 65.9 467.55 65.9 467.56 65.89 467.56 65.89 467.56 65.88 467.54 65.87 467.53 65.86 467.53 65.85 467.54 65.84 467.55 65.83 467.55 65.82 467.56 65.81 467.56 65.81 467.57 65.81 467.58 65.82 467.58 65.83 467.58 65.83 467.58 65.85 467.59 65.85 467.59 65.85 467.6 65.85 467.61 65.85 467.62 65.84 467.63 65.84 467.64 65.84 467.65 65.84 467.65 65.84 467.66 65.83 467.68 65.82 467.69 65.82 467.7 65.82 467.71 65.83 467.71 65.84 467.7 65.84 467.71 65.85 467.72 65.85 467.73 65.86 467.74 65.85 467.75 65.85 467.76 65.85 467.77 65.84 467.78 65.84 467.79 65.84 467.79 65.85 467.79 65.86 467.81 65.86 467.82 65.85 467.82 65.84 467.83 65.83 467.84 65.83 467.85 65.84 467.85 65.84 467.86 65.85 467.88 65.84 467.89 65.83 467.9 65.82 467.91 65.81 467.91 65.81 467.91 65.8 467.91 65.79 467.92 65.78 467.93 65.77 467.93 65.76 467.93 65.74 467.93 65.73 467.94 65.72 467.95 65.71 467.96 65.72 467.97 65.72 467.97 65.72 467.99 65.73 468 65.75 468 65.75 468.02 65.76 468.02 65.76 468.03 65.76 468.04 65.76 468.04 65.77 468.03 65.78 468.02 65.79 468.02 65.79 468.01 65.79 468 65.79 467.99 65.79 467.99 65.8 467.99 65.81 468 65.81 468.01 65.81 468.03 65.8 468.04 65.81 468.04 65.81 468.04 65.82 468.04 65.83 468.05 65.83 468.06 65.83 468.07 65.83 468.08 65.84 468.09 65.84 468.09 65.84 468.1 65.84 468.12 65.85 468.13 65.85 468.14 65.85 468.14 65.85 468.15 65.84 468.16 65.83 468.18 65.84 468.18 65.85 468.18 65.87 468.19 65.87 468.19 65.88 468.2 65.88 468.2 65.89 468.2 65.9 468.21 65.9 468.22 65.89 468.23 65.89 468.23 65.88 468.24 65.88 468.25 65.88 468.26 65.88 468.27 65.88 468.28 65.88 468.29 65.87 468.3 65.87 468.31 65.86 468.33 65.84 468.33 65.83 468.33 65.82 468.34 65.82 468.35 65.81 468.35 65.8 468.37 65.79 468.38 65.78 468.39 65.78 468.4 65.78 468.4 65.79 468.4 65.8 468.39 65.82 468.39 65.83 468.39 65.83 468.39 65.85 468.39 65.86 468.41 65.86 468.41 65.85 468.42 65.84 468.42 65.83 468.43 65.83 468.45 65.83 468.46 65.82 468.47 65.81 468.5 65.79 468.51 65.79 468.52 65.78 468.52 65.77 468.52 65.76 468.52 65.75 468.52 65.75 468.53 65.74 468.53 65.73 468.54 65.72 468.55 65.72 468.59 65.69 468.59 65.68 468.6 65.68 468.61 65.67 468.62 65.67 468.62 65.67 468.65 65.66 468.65 65.65 468.65 65.65 468.65 65.64 468.66 65.63 468.66 65.62 468.67 65.61 468.68 65.61 468.71 65.59 468.73 65.58 468.74 65.57 468.75 65.57 468.77 65.56 468.8 65.54 468.81 65.53 468.82 65.52 468.83 65.52 468.84 65.51 468.85 65.51 468.87 65.51 468.87 65.5 468.88 65.5 468.89 65.49 468.9 65.48 468.91 65.48 468.92 65.47 468.94 65.46 468.95 65.45 468.96 65.45 468.96 65.44 469 65.42 469.01 65.42 469.02 65.41 469.05 65.39 469.05 65.39 469.06 65.39 469.06 65.4 469.06 65.41 469.05 65.42 469.04 65.43 469.04 65.43 469.03 65.44 469.01 65.45 468.98 65.47 468.97 65.48 468.97 65.48 468.95 65.48 468.95 65.49 468.95 65.49 468.95 65.5 468.95 65.51 468.94 65.52 468.95 65.53 468.95 65.53 468.96 65.55 468.96 65.55 468.97 65.56 468.97 65.56 468.97 65.57 468.97 65.58 468.97 65.6 468.96 65.61 468.96 65.61 468.95 65.62 468.95 65.63 468.95 65.64 468.96 65.66 468.95 65.66 468.95 65.69 468.95 65.7 468.95 65.73 468.96 65.74 468.96 65.75 468.96 65.78 468.96 65.79 468.96 65.79 468.97 65.81 468.97 65.82 468.98 65.82 468.99 65.83 468.99 65.84 469 65.84 469.01 65.85 469.02 65.86 469.03 65.88 469.03 65.88 469.03 65.89 469.04 65.91 469.05 65.92 469.06 65.92 469.07 65.92 469.09 65.93 469.09 65.94 469.09 65.96 469.09 65.97 469.1 65.98 469.11 65.98 469.12 65.97 469.13 65.96 469.14 65.96 469.13 65.95 469.14 65.92 469.15 65.92 469.16 65.91 469.17 65.91 469.17 65.9 469.18 65.89 469.18 65.87 469.19 65.86 469.2 65.86 469.2 65.85 469.21 65.85 469.22 65.84 469.22 65.83 469.24 65.82 469.25 65.81 469.24 65.8 469.23 65.79 469.23 65.78 469.23 65.77 469.24 65.76 469.24 65.75 469.24 65.74 469.24 65.72 469.24 65.71 469.25 65.7 469.25 65.69 469.25 65.69 469.26 65.68 469.27 65.68 469.3 65.66 469.32 65.65 469.34 65.64 469.36 65.63 469.37 65.63 469.38 65.62 469.39 65.62 469.39 65.61 469.4 65.61 469.41 65.6 469.41 65.59 469.42 65.58 469.43 65.58 469.44 65.58 469.45 65.58 469.46 65.58 469.47 65.59 469.48 65.59 469.48 65.6 469.48 65.61 469.48 65.62 469.48 65.63 469.48 65.64 469.46 65.65 469.45 65.66 469.44 65.66 469.43 65.67 469.42 65.68 469.41 65.69 469.41 65.7 469.4 65.71 469.4 65.72 469.4 65.73 469.39 65.74 469.38 65.75 469.37 65.76 469.37 65.77 469.38 65.78 469.38 65.78 469.39 65.79 469.39 65.78 469.41 65.78 469.41 65.77 469.43 65.77 469.44 65.76 469.44 65.77 469.43 65.79 469.44 65.79 469.45 65.79 469.46 65.79 469.47 65.79 469.47 65.8 469.47 65.81 469.48 65.81 469.5 65.81 469.54 65.81 469.54 65.82 469.52 65.83 469.51 65.84 469.5 65.85 469.49 65.86 469.48 65.86 469.48 65.87 469.49 65.88 469.5 65.89 469.51 65.89 469.52 65.88 469.53 65.88 469.53 65.87 469.55 65.86 469.56 65.86 469.57 65.87 469.58 65.87 469.59 65.88 469.59 65.89 469.6 65.89 469.63 65.89 469.64 65.88 469.65 65.88 469.65 65.87 469.67 65.87 469.68 65.86 469.71 65.86 469.72 65.85 469.72 65.84 469.73 65.83 469.73 65.82 469.73 65.81 469.74 65.8 469.77 65.8 469.77 65.79 469.78 65.78 469.78 65.77 469.78 65.76 469.78 65.75 469.78 65.74 469.79 65.74 469.79 65.73 469.79 65.72 469.79 65.71 469.79 65.71 469.79 65.69 469.79 65.68 469.78 65.68 469.78 65.67 469.79 65.65 469.8 65.64 469.79 65.63 469.79 65.62 469.79 65.61 469.79 65.6 469.79 65.59 469.79 65.58 469.8 65.57 469.8 65.56 469.8 65.53 469.8 65.53 469.81 65.51 469.81 65.5 469.82 65.49 469.83 65.49 469.84 65.48 469.86 65.48 469.88 65.47 469.9 65.46 469.91 65.46 469.92 65.46 469.93 65.45 469.94 65.45 469.94 65.44 469.95 65.44 469.96 65.43 469.98 65.43 470 65.42 470.01 65.41 470.01 65.4 470.02 65.4 470.03 65.4 470.04 65.39 470.05 65.39 470.05 65.38 470.03 65.38 470.02 65.37 470.03 65.36 470.04 65.36 470.05 65.36 470.06 65.35 470.08 65.35 470.06 65.34 470.06 65.33 470.07 65.32 470.08 65.31 470.07 65.31 470.07 65.31 470.06 65.31 470.04 65.31 470.03 65.31 470.03 65.29 470.03 65.29 470.03 65.28 470.04 65.27 470.05 65.27 470.06 65.27 470.06 65.27 470.07 65.27 470.08 65.27 470.09 65.27 470.11 65.27 470.11 65.27 470.13 65.26 470.13 65.25 470.13 65.24 470.13 65.23 470.12 65.23 470.11 65.23 470.1 65.23 470.09 65.22 470.1 65.22 470.11 65.21 470.13 65.21 470.14 65.2 470.15 65.2 470.15 65.19 470.17 65.18 470.19 65.17 470.19 65.17 470.2 65.16 470.21 65.16 470.22 65.15 470.22 65.15 470.22 65.14 470.21 65.13 470.21 65.13 470.21 65.12 470.2 65.1 470.19 65.1 470.18 65.09 470.16 65.09 470.16 65.09 470.14 65.08 470.13 65.07 470.12 65.06 470.11 65.06 470.1 65.05 470.11 65.04 470.11 65.03 470.12 65.02 470.13 65.02 470.14 65.01 470.14 65 470.14 64.99 470.14 64.99 470.14 64.98 470.15 64.97 470.16 64.96 470.16 64.95 470.17 64.95 470.18 64.94 470.19 64.95 470.2 64.94 470.21 64.94 470.22 64.94 470.24 64.93 470.24 64.92 470.24 64.91 470.24 64.9 470.25 64.89 470.26 64.88 470.28 64.88 470.29 64.87 470.3 64.87 470.3 64.88 470.3 64.89 470.32 64.89 470.33 64.88 470.34 64.87 470.34 64.86 470.36 64.86 470.37 64.86 470.38 64.86 470.39 64.85 470.4 64.85 470.4 64.84 470.41 64.84 470.43 64.84 470.43 64.83 470.43 64.82 470.44 64.82 470.44 64.81 470.45 64.81 470.47 64.8 470.49 64.79 470.49 64.79 470.5 64.78 470.5 64.77 470.5 64.77 470.5 64.76 470.49 64.74 470.49 64.74 470.49 64.72 470.5 64.71 470.51 64.7 470.52 64.7 470.52 64.7 470.53 64.7 470.54 64.69 470.55 64.68 470.56 64.68 470.57 64.68 470.58 64.68 470.59 64.68 470.59 64.67 470.59 64.66 470.6 64.64 470.61 64.63 470.61 64.63 470.62 64.62 470.63 64.62 470.65 64.62 470.66 64.61 470.67 64.61 470.68 64.61 470.69 64.6 470.7 64.6 470.7 64.59 470.72 64.58 470.73 64.57 470.73 64.56 470.74 64.56 470.76 64.56 470.76 64.56 470.77 64.55 470.79 64.55 470.8 64.55 470.81 64.54 470.84 64.52 470.84 64.51 470.83 64.5 470.83 64.48 470.84 64.48 470.86 64.48 470.86 64.48 470.87 64.49 470.88 64.48 470.89 64.46 470.9 64.46 470.91 64.46 470.91 64.45 470.92 64.44 470.92 64.44 470.93 64.43 470.93 64.43 470.93 64.41 470.93 64.41 470.93 64.4 470.93 64.39 470.94 64.39 470.95 64.38 470.96 64.38 470.97 64.38 470.98 64.37 470.98 64.36 471.01 64.35 471.01 64.36 471.02 64.37 471.03 64.36 471.04 64.37 471.05 64.36 471.06 64.36 471.07 64.34 471.07 64.33 471.07 64.32 471.1 64.3 471.11 64.31 471.12 64.31 471.12 64.31 471.13 64.31 471.13 64.31 471.12 64.3 471.14 64.29 471.15 64.29 471.16 64.28 471.16 64.27 471.15 64.27 471.15 64.26 471.14 64.26 471.12 64.25 471.16 64.24 471.2 64.23 471.21 64.22 471.22 64.21 471.21 64.21 471.2 64.2 471.2 64.2 471.21 64.19 471.23 64.18 471.24 64.18 471.27 64.16 471.27 64.16 471.28 64.16 471.3 64.15 471.31 64.14 471.32 64.14 471.33 64.13 471.34 64.13 471.38 64.11 471.4 64.1 471.41 64.1 471.41 64.12 471.4 64.13 471.39 64.14 471.39 64.14 471.4 64.15 471.4 64.15 471.4 64.16 471.41 64.17 471.42 64.17 471.44 64.17 471.45 64.17 471.46 64.16 471.5 64.13 471.51 64.13 471.51 64.12 471.52 64.11 471.53 64.11 471.54 64.1 471.54 64.09 471.53 64.09 471.53 64.08 471.52 64.07 471.53 64.06 471.54 64.06 471.54 64.05 471.55 64.04 471.55 64.04 471.55 64.03 471.55 64.02 471.55 64.01 471.55 64 471.56 63.98 471.56 63.98 471.56 63.96 471.56 63.95 471.57 63.95 471.6 63.94 471.62 63.93 471.62 63.92 471.63 63.92 471.64 63.92 471.64 63.92 471.66 63.92 471.66 63.93 471.66 63.94 471.66 63.95 471.67 63.96 471.68 63.96 471.69 63.96 471.7 63.96 471.71 63.95 471.72 63.94 471.72 63.93 471.71 63.93 471.7 63.92 471.69 63.91 471.7 63.9 471.71 63.9 471.72 63.9 471.74 63.9 471.76 63.89 471.77 63.89 471.78 63.88 471.79 63.87 471.8 63.86 471.81 63.86 471.83 63.85 471.83 63.85 471.84 63.85 471.86 63.84 471.87 63.84 471.91 63.82 471.93 63.82 471.93 63.83 471.94 63.84 471.95 63.84 471.96 63.84 471.98 63.84 472 63.82 472.03 63.81 472.06 63.79 472.09 63.78 472.1 63.78 472.13 63.76 472.2 63.74 472.22 63.73 472.22 63.73 472.21 63.72 472.21 63.72 472.17 63.72 472.17 63.71 472.18 63.7 472.17 63.69 472.17 63.68 472.16 63.69 472.16 63.68 472.16 63.67 472.18 63.67 472.2 63.65 472.22 63.63 472.23 63.62 472.25 63.61 472.26 63.61 472.27 63.61 472.28 63.6 472.29 63.59 472.3 63.59 472.4 63.54 472.4 63.54 472.4 63.55 472.38 63.56 472.37 63.57 472.36 63.57 472.36 63.58 472.35 63.58 472.35 63.59 472.36 63.6 472.37 63.6 472.38 63.59 472.39 63.59 472.41 63.58 472.42 63.57 472.43 63.57 472.44 63.57 472.44 63.58 472.44 63.59 472.43 63.59 472.41 63.6 472.4 63.6 472.4 63.61 472.39 63.61 472.39 63.62 472.39 63.63 472.41 63.63 472.43 63.62 472.44 63.62 472.52 63.58 472.54 63.57 472.55 63.57 472.56 63.58 472.55 63.59 472.54 63.59 472.52 63.6 472.5 63.61 472.49 63.61 472.49 63.62 472.48 63.63 472.47 63.64 472.47 63.65 472.45 63.65 472.44 63.65 472.44 63.66 472.44 63.67 472.5 63.66 472.52 63.66 472.59 63.65 472.62 63.65 472.64 63.64 472.66 63.64 472.68 63.63 472.69 63.62 472.71 63.63 472.71 63.64 472.7 63.64 472.69 63.66 472.68 63.68 472.66 63.69 472.66 63.7 472.65 63.71 472.68 63.73 472.69 63.74 472.69 63.75 472.7 63.76 472.71 63.76 472.71 63.75 472.71 63.74 472.72 63.73 472.73 63.73 472.74 63.73 472.76 63.72 472.77 63.72 472.78 63.72 472.81 63.71 472.83 63.71 472.86 63.7 472.86 63.7 472.86 63.71 472.85 63.72 472.83 63.74 472.83 63.75 472.83 63.76 472.85 63.76 472.91 63.74 472.92 63.74 472.93 63.74 472.95 63.72 472.96 63.73 472.96 63.74 472.96 63.75 472.97 63.75 472.98 63.75 472.99 63.75 473 63.74 473.02 63.73 473.02 63.73 473.03 63.74 473.04 63.74 473.05 63.74 473.06 63.74 473.08 63.74 473.09 63.74 473.14 63.71 473.16 63.7 473.16 63.71 473.15 63.72 473.14 63.74 473.13 63.74 473.12 63.75 473.12 63.76 473.11 63.77 473.1 63.77 473.08 63.77 473.07 63.78 473.05 63.79 473.04 63.8 473.03 63.81 473.03 63.82 473.03 63.83 473.05 63.83 473.07 63.82 473.09 63.81 473.11 63.8 473.14 63.8 473.17 63.79 473.17 63.79 473.18 63.8 473.19 63.81 473.2 63.82 473.2 63.85 473.19 63.85 473.19 63.84 473.18 63.85 473.17 63.86 473.16 63.87 473.15 63.88 473.15 63.89 473.15 63.9 473.13 63.92 473.12 63.93 473.12 63.94 473.14 63.93 473.15 63.92 473.16 63.93 473.15 63.94 473.15 63.95 473.13 63.96 473.12 63.97 473.11 63.98 473.11 63.99 473.12 64 473.11 64 473.1 64.01 473.1 64.02 473.1 64.03 473.11 64.03 473.11 64.04 473.14 64.04 473.14 64.03 473.14 64.02 473.15 64.01 473.15 64.01 473.16 64.01 473.17 64.02 473.18 64.02 473.21 64.01 473.24 64 473.25 64 473.26 64 473.27 64 473.28 64 473.29 64.01 473.29 64.02 473.29 64.03 473.3 64.03 473.32 64.03 473.32 64.03 473.33 64.03 473.34 64.02 473.34 64.02 473.35 64.03 473.36 64.03 473.36 64.02 473.37 64 473.37 64 473.39 64.01 473.4 64 473.41 64 473.41 64 473.42 64 473.43 64 473.44 64 473.44 63.99 473.45 64 473.46 63.99 473.47 63.99 473.47 63.98 473.51 63.97 473.52 63.96 473.55 63.94 473.56 63.93 473.57 63.94 473.58 63.94 473.61 63.93 473.59 63.92 473.6 63.91 473.61 63.91 473.62 63.9 473.65 63.91 473.66 63.9 473.65 63.9 473.64 63.9 473.64 63.89 473.66 63.88 473.72 63.85 473.73 63.85 473.74 63.85 473.74 63.86 473.73 63.87 473.73 63.87 473.72 63.88 473.7 63.89 473.71 63.89 473.72 63.9 473.72 63.91 473.71 63.91 473.7 63.91 473.68 63.92 473.69 63.93 473.69 63.94 473.68 63.95 473.65 63.98 473.64 63.99 473.7 63.96 473.73 63.95 473.77 63.93 473.78 63.93 473.79 63.93 473.79 63.94 473.78 63.95 473.76 63.96 473.75 63.98 473.74 63.98 473.74 63.98 473.74 63.99 473.74 64 473.72 64 473.71 64 473.7 64 473.69 64 473.68 64 473.67 64 473.66 64.01 473.65 64.02 473.63 64.03 473.63 64.04 473.63 64.05 473.63 64.05 473.62 64.06 473.61 64.07 473.6 64.07 473.59 64.07 473.59 64.08 473.58 64.08 473.6 64.09 473.61 64.1 473.61 64.1 473.61 64.11 473.6 64.11 473.59 64.12 473.58 64.13 473.57 64.13 473.56 64.13 473.55 64.12 473.55 64.13 473.53 64.14 473.52 64.13 473.51 64.13 473.5 64.14 473.49 64.14 473.47 64.14 473.46 64.13 473.45 64.14 473.43 64.15 473.42 64.14 473.41 64.14 473.4 64.14 473.39 64.14 473.38 64.14 473.37 64.14 473.37 64.15 473.37 64.16 473.36 64.17 473.35 64.17 473.34 64.17 473.32 64.17 473.31 64.17 473.3 64.18 473.29 64.19 473.29 64.2 473.3 64.19 473.31 64.18 473.32 64.2 473.32 64.2 473.32 64.21 473.31 64.22 473.31 64.23 473.32 64.24 473.32 64.25 473.32 64.25 473.31 64.26 473.3 64.25 473.3 64.24 473.3 64.24 473.3 64.23 473.28 64.24 473.27 64.24 473.25 64.25 473.25 64.26 473.24 64.28 473.24 64.29 473.24 64.29 473.23 64.32 473.23 64.33 473.22 64.33 473.21 64.33 473.21 64.33 473.2 64.33 473.19 64.33 473.19 64.34 473.19 64.35 473.19 64.36 473.18 64.36 473.18 64.37 473.19 64.38 473.19 64.39 473.18 64.4 473.19 64.4 473.18 64.41 473.18 64.42 473.16 64.42 473.16 64.43 473.16 64.44 473.17 64.46 473.18 64.46 473.19 64.47 473.19 64.48 473.19 64.49 473.2 64.5 473.21 64.5 473.2 64.5 473.2 64.52 473.19 64.53 473.2 64.53 473.21 64.52 473.23 64.52 473.23 64.51 473.24 64.52 473.25 64.52 473.25 64.53 473.25 64.53 473.24 64.53 473.23 64.55 473.22 64.56 473.22 64.56 473.22 64.58 473.22 64.59 473.21 64.6 473.21 64.61 473.2 64.61 473.2 64.62 473.2 64.63 473.19 64.64 473.19 64.65 473.19 64.66 473.19 64.67 473.19 64.67 473.2 64.68 473.2 64.69 473.21 64.7 473.21 64.71 473.21 64.72 473.22 64.73 473.22 64.74 473.23 64.74 473.27 64.77 473.28 64.77 473.28 64.78 473.29 64.78 473.3 64.79 473.31 64.79 473.32 64.79 473.33 64.79 473.34 64.78 473.34 64.78 473.35 64.77 473.35 64.78 473.37 64.78 473.38 64.78 473.39 64.77 473.38 64.77 473.37 64.76 473.37 64.75 473.36 64.75 473.37 64.73 473.38 64.72 473.38 64.71 473.39 64.71 473.4 64.71 473.41 64.72 473.41 64.73 473.41 64.74 473.42 64.75 473.43 64.75 473.43 64.76 473.44 64.77 473.45 64.77 473.49 64.74 473.52 64.73 473.52 64.73 473.53 64.73 473.54 64.72 473.56 64.72 473.57 64.71 473.58 64.71 473.59 64.71 473.59 64.72 473.58 64.72 473.57 64.72 473.57 64.73 473.55 64.74 473.57 64.74 473.58 64.73 473.59 64.73 473.6 64.73 473.59 64.74 473.59 64.75 473.6 64.75 473.6 64.76 473.59 64.77 473.59 64.78 473.59 64.79 473.59 64.79 473.59 64.8 473.59 64.81 473.59 64.82 473.6 64.82 473.61 64.83 473.62 64.84 473.62 64.83 473.64 64.83 473.64 64.82 473.66 64.8 473.66 64.81 473.67 64.8 473.68 64.8 473.69 64.8 473.69 64.79 473.7 64.79 473.72 64.78 473.72 64.78 473.73 64.77 473.74 64.77 473.75 64.76 473.75 64.77 473.73 64.79 473.72 64.8 473.71 64.81 473.71 64.82 473.73 64.83 473.74 64.82 473.75 64.82 473.77 64.82 473.79 64.8 473.8 64.8 473.81 64.79 473.83 64.79 473.84 64.78 473.85 64.78 473.86 64.79 473.85 64.8 473.83 64.82 473.82 64.83 473.81 64.84 473.81 64.84 473.82 64.85 473.81 64.86 473.79 64.87 473.77 64.93 473.76 64.94 473.75 64.95 473.75 65.01 473.77 65.01 473.78 65.01 473.79 65.01 473.8 65.02 473.79 65.02 473.78 65.03 473.77 65.05 473.75 65.05 473.74 65.09 473.75 65.1 473.76 65.1 473.78 65.09 473.79 65.12 473.79 65.13 473.8 65.14 473.81 65.14 473.81 65.15 473.81 65.16 473.8 65.17 473.79 65.18 473.78 65.19 473.77 65.2 473.75 65.22 473.72 65.24 473.72 65.25 473.72 65.27 473.72 65.28 473.71 65.28 473.7 65.28 473.7 65.28 473.69 65.3 473.68 65.31 473.67 65.32 473.65 65.32 473.65 65.32 473.63 65.33 473.62 65.34 473.62 65.34 473.61 65.36 473.6 65.38 473.6 65.39 473.59 65.4 473.58 65.42 473.57 65.45 473.57 65.46 473.56 65.47 473.55 65.48 473.55 65.49 473.55 65.52 473.55 65.54 473.56 65.55 473.57 65.56 473.57 65.57 473.57 65.58 473.58 65.59 473.58 65.6 473.59 65.6 473.59 65.62 473.59 65.63 473.59 65.63 473.6 65.64 473.6 65.65 473.61 65.66 473.62 65.67 473.62 65.68 473.63 65.69 473.64 65.7 473.64 65.71 473.64 65.72 473.64 65.73 473.64 65.74 473.64 65.74 473.65 65.75 473.66 65.76 473.66 65.77 473.65 65.78 473.66 65.79 473.66 65.8 473.66 65.81 473.66 65.82 473.66 65.83 473.66 65.84 473.67 65.85 473.66 65.86 473.66 65.86 473.67 65.87 473.67 65.88 473.66 65.88 473.66 65.89 473.66 65.9 473.66 65.91 473.66 65.92 473.66 65.92 473.66 65.93 473.65 65.94 473.65 65.96 473.65 65.97 473.65 65.98 473.65 65.99 473.64 66 473.64 66.01 473.64 66.02 473.65 66.03 473.65 66.04 473.67 66.05 473.68 66.07 473.69 66.07 473.69 66.08 473.7 66.1 473.72 66.11 473.73 66.11 473.73 66.13 473.74 66.13 473.74 66.14 473.76 66.16 473.78 66.18 473.79 66.2 473.81 66.21 473.81 66.22 473.82 66.24 473.84 66.26 473.85 66.27 473.86 66.28 473.87 66.28 473.87 66.29 473.89 66.31 473.89 66.31 473.91 66.32 473.92 66.33 473.93 66.35 473.94 66.36 473.95 66.37 473.96 66.37 473.97 66.38 473.98 66.4 474 66.41 474.02 66.43 474.02 66.44 474.04 66.46 474.05 66.48 474.06 66.49 474.06 66.5 474.07 66.51 474.07 66.52 474.08 66.54 474.08 66.55 474.08 66.55 474.07 66.56 474.07 66.57 474.06 66.58 474.04 66.59 474.03 66.59 474.02 66.59 474.01 66.59 474.01 66.58 474 66.58 473.99 66.57 473.97 66.58 473.96 66.6 473.96 66.61 473.95 66.61 473.92 66.64 473.91 66.65 473.88 66.67 473.86 66.71 473.83 66.74 473.82 66.76 473.79 66.79 473.78 66.81 473.78 66.82 473.77 66.82 473.76 66.83 473.75 66.84 473.74 66.84 473.73 66.85 473.72 66.85 473.72 66.85 473.71 66.85 473.7 66.85 473.68 66.84 473.67 66.83 473.66 66.82 473.65 66.81 473.65 66.8 473.65 66.79 473.65 66.78 473.65 66.77 473.66 66.76 473.67 66.76 473.67 66.75 473.68 66.74 473.69 66.73 473.7 66.72 473.72 66.71 473.73 66.7 473.75 66.69 473.76 66.69 473.78 66.69 473.78 66.68 473.8 66.66 473.81 66.65 473.81 66.64 473.84 66.62 473.85 66.61 473.88 66.58 473.9 66.55 473.91 66.54 473.91 66.53 473.91 66.52 473.91 66.5 473.91 66.49 473.91 66.48 473.91 66.47 473.91 66.46 473.89 66.45 473.89 66.44 473.88 66.43 473.88 66.42 473.87 66.41 473.86 66.4 473.85 66.39 473.83 66.37 473.82 66.37 473.81 66.36 473.81 66.35 473.79 66.34 473.78 66.33 473.77 66.32 473.76 66.31 473.75 66.29 473.74 66.29 473.74 66.28 473.73 66.27 473.69 66.24 473.69 66.23 473.68 66.22 473.67 66.21 473.66 66.2 473.66 66.2 473.65 66.19 473.65 66.18 473.64 66.18 473.63 66.17 473.62 66.17 473.61 66.16 473.6 66.17 473.58 66.17 473.58 66.17 473.56 66.17 473.55 66.16 473.54 66.15 473.53 66.15 473.52 66.14 473.51 66.13 473.51 66.13 473.51 66.11 473.51 66.1 473.5 66.09 473.49 66.09 473.49 66.08 473.48 66.07 473.48 66.06 473.49 66.05 473.5 66.05 473.51 66.05 473.53 66.05 473.54 66.05 473.56 66.05 473.57 66.05 473.58 66.04 473.58 66.03 473.58 66.02 473.58 66 473.58 65.99 473.59 65.84 473.59 65.81 473.59 65.8 473.52 65.64 473.49 65.59 473.49 65.59 473.48 65.59 473.46 65.59 473.45 65.6 473.43 65.61 473.43 65.61 473.42 65.62 473.41 65.63 473.4 65.63 473.39 65.65 473.38 65.66 473.38 65.67 473.29 65.83 473.28 65.84 473.27 65.86 473.25 65.87 473.25 65.87 473.24 65.89 473.25 65.92 473.25 65.95 473.25 65.95 473.27 65.96 473.32 65.97 473.35 65.98 473.37 65.99 473.37 65.98 473.38 65.98 473.39 65.98 473.4 65.97 473.4 65.98 473.41 65.98 473.42 65.98 473.43 65.99 473.43 66 473.43 66.01 473.42 66.03 473.41 66.04 473.4 66.04 473.39 66.04 473.36 66.04 473.34 66.03 473.33 66.03 473.32 66.03 473.31 66.04 473.3 66.05 473.28 66.06 473.26 66.09 473.25 66.1 473.24 66.11 473.22 66.13 473.22 66.14 473.2 66.15 473.19 66.17 473.18 66.18 473.17 66.19 473.16 66.21 473.13 66.23 473.13 66.24 473.12 66.26 473.1 66.28 473.09 66.3 473.07 66.31 473.06 66.32 473.05 66.33 473.04 66.35 473.03 66.36 473.02 66.37 473.01 66.38 473 66.39 472.99 66.41 472.98 66.42 472.96 66.44 472.96 66.45 472.95 66.45 472.94 66.46 472.93 66.48 472.92 66.48 472.91 66.51 472.9 66.52 472.88 66.53 472.85 66.57 472.84 66.58 472.83 66.58 472.83 66.6 472.82 66.61 472.81 66.62 472.8 66.63 472.79 66.64 472.78 66.66 472.77 66.67 473.23 67.07 473.26 67.04 473.27 67.04 473.33 66.98 473.33 66.97 473.33 66.96 473.33 66.95 473.33 66.95 473.33 66.94 473.33 66.93 473.33 66.92 473.34 66.92 473.38 66.85 473.39 66.85 473.4 66.84 473.4 66.84 473.41 66.83 473.42 66.83 473.43 66.82 473.44 66.82 473.45 66.82 473.46 66.82 473.46 66.82 473.47 66.82 473.48 66.82 473.49 66.82 473.5 66.82 473.5 66.83 473.51 66.83 473.52 66.83 473.52 66.84 473.53 66.84 473.53 66.85 473.54 66.86 473.54 66.86 473.54 66.87 473.55 66.88 473.55 66.88 473.55 66.89 473.55 66.9 473.55 66.9 473.55 66.91 473.55 66.92 473.55 66.93 473.55 66.93 473.55 66.94 473.55 66.95 473.54 66.96 473.54 66.96 473.26 67.29 473.25 67.29 473.24 67.3 473.24 67.3 473.23 67.3 473.22 67.3 473.21 67.3 473.2 67.3 473.19 67.3 473.19 67.3 473.18 67.29 473.17 67.29 473.17 67.28 473.16 67.28 472.66 66.85 472.65 66.86 472.64 66.87 472.64 66.87 472.62 66.88 472.58 66.84 472.6 66.82 472.55 66.78 472.51 66.83 472.5 66.83 472.45 66.79 472.39 66.87 472.34 66.94 472.29 67 471.53 68.05 471.5 68.09 471.45 68.16 471.42 68.22 471.38 68.27 471.36 68.3 471.35 68.33 471.33 68.36 471.32 68.39 471.3 68.43 471.29 68.47 471.27 68.5 471.26 68.53 471.25 68.56 471.24 68.61 471.23 68.64 471.25 68.64 471.25 68.64 471.26 68.64 471.27 68.65 471.28 68.66 471.28 68.67 471.29 68.69 471.29 68.7 471.29 68.71 471.3 68.71 471.32 68.71 471.33 68.71 471.36 68.7 471.37 68.7 471.38 68.69 471.39 68.7 471.4 68.7 471.41 68.71 471.43 68.72 471.43 68.72 471.45 68.72 471.49 68.75 471.5 68.76 471.51 68.76 471.51 68.77 471.52 68.78 471.54 68.8 471.54 68.82 471.56 68.83 471.57 68.84 471.59 68.85 471.61 68.87 471.63 68.89 471.64 68.89 471.65 68.91 471.65 68.92 471.72 68.99 471.72 69 471.73 69.01 471.76 69.03 471.76 69.04 471.78 69.06 471.78 69.07 471.8 69.08 471.83 69.11 471.86 69.14 471.88 69.15 471.9 69.17 471.91 69.17 471.93 69.19 471.95 69.2 472 69.24 472.04 69.27 472.07 69.3 472.09 69.31 472.15 69.36 472.17 69.38 472.2 69.4 472.26 69.43 472.32 69.47 472.71 69.73 472.73 69.74 472.74 69.75 472.76 69.76 472.78 69.77 472.79 69.77 472.81 69.78 472.84 69.79 472.86 69.8 472.94 69.82 472.98 69.83 473.02 69.84 473.04 69.84 473.05 69.85 473.07 69.85 473.08 69.85 473.09 69.85 473.1 69.84 473.12 69.84 473.12 69.84 473.13 69.84 473.15 69.84 473.16 69.84 473.17 69.84 473.17 69.84 473.18 69.83 473.19 69.82 473.19 69.81 473.2 69.8 473.2 69.78 473.22 69.75 473.23 69.74 473.24 69.71 473.25 69.69 473.25 69.67 473.26 69.66 473.28 69.63 473.28 69.63 473.29 69.6 473.29 69.59 473.3 69.58 473.31 69.56 473.32 69.54 473.34 69.51 473.35 69.5 473.35 69.49 473.36 69.47 473.37 69.46 473.37 69.45 473.38 69.44 473.39 69.42 473.39 69.41 473.4 69.4 473.4 69.39 473.42 69.36 473.43 69.35 473.44 69.34 473.44 69.33 473.46 69.3 473.47 69.28 473.49 69.25 473.5 69.23 473.51 69.22 473.53 69.18 473.54 69.17 473.54 69.16 473.55 69.15 473.56 69.12 473.58 69.09 473.59 69.08 473.6 69.07 473.61 69.06 473.62 69.03 473.62 69.01 473.63 69 473.64 68.98 473.64 68.97 473.64 68.97 473.65 68.95 473.66 68.95 473.67 68.94 473.69 68.9 473.7 68.89 473.7 68.88 473.71 68.87 473.72 68.86 473.74 68.84 473.75 68.82 473.75 68.81 473.77 68.79 473.78 68.77 473.78 68.77 473.79 68.76 473.8 68.75 473.8 68.75 473.82 68.75 473.83 68.75 473.84 68.76 473.84 68.77 473.85 68.78 473.85 68.78 473.85 68.83 473.84 68.84 473.83 68.85 473.83 68.85 473.81 68.86 473.81 68.87 473.81 68.87 473.8 68.88 473.79 68.88 473.78 68.89 473.76 68.92 473.76 68.93 473.75 68.94 473.74 68.95 473.74 68.96 473.73 68.97 473.72 68.99 474.14 69.26 473.88 69.7 473.63 70.2 473.49 70.54 473.4 70.76 473.34 70.94 473.23 71.25 473.21 71.55 473.26 72.24 473.36 72.57 473.49 73.01 Z M 473.02 62.8 473.01 62.81 473 62.82 472.99 62.84 472.99 62.85 472.99 62.86 473.04 62.85 473.05 62.85 473.06 62.85 473.07 62.85 473.06 62.86 473.05 62.86 473.03 62.87 473.02 62.88 473.01 62.89 473.01 62.89 473.01 62.9 473.03 62.9 473.04 62.9 473.03 62.91 473.02 62.92 473 62.93 472.99 62.94 472.99 62.95 472.99 62.96 472.99 62.97 473 62.98 473.01 62.98 473.02 62.98 473.04 62.98 473.05 62.97 473.06 62.96 473.07 62.96 473.08 62.96 473.09 62.96 473.1 62.96 473.11 62.96 473.13 62.97 473.14 62.97 473.15 62.97 473.18 62.96 473.18 62.96 473.2 62.96 473.2 62.96 473.21 62.97 473.2 62.97 473.18 62.98 473.17 62.99 473.16 62.99 473.17 63 473.17 63.01 473.16 63.02 473.16 63.03 473.16 63.03 473.18 63.05 473.19 63.05 473.21 63.05 473.21 63.05 473.23 63.05 473.26 63.03 473.27 63.03 473.28 63.03 473.29 63.04 473.29 63.04 473.28 63.05 473.27 63.05 473.26 63.05 473.25 63.06 473.24 63.06 473.22 63.06 473.21 63.06 473.2 63.06 473.19 63.06 473.16 63.09 473.15 63.09 473.14 63.11 473.14 63.11 473.11 63.12 473.11 63.13 473.1 63.14 473.09 63.15 473.09 63.16 473.08 63.18 473.07 63.18 473.04 63.19 473.04 63.2 473.03 63.21 473.03 63.22 473.02 63.22 473.01 63.22 473.01 63.23 472.99 63.24 472.96 63.25 472.94 63.25 472.93 63.25 472.91 63.26 472.89 63.26 472.89 63.27 472.88 63.3 472.88 63.31 472.87 63.35 472.86 63.36 472.86 63.38 472.86 63.38 472.85 63.4 472.84 63.41 472.84 63.43 472.83 63.46 472.82 63.47 472.82 63.47 472.81 63.48 472.79 63.48 472.75 63.48 472.74 63.48 472.73 63.48 472.72 63.49 472.72 63.49 472.71 63.49 472.7 63.49 472.69 63.49 472.68 63.5 472.67 63.51 472.67 63.51 472.66 63.52 472.65 63.52 472.63 63.52 472.63 63.52 472.62 63.5 472.62 63.49 472.61 63.49 472.6 63.48 472.59 63.46 472.58 63.47 472.55 63.49 472.54 63.48 472.54 63.48 472.54 63.47 472.54 63.46 472.53 63.45 472.52 63.43 472.5 63.43 472.48 63.43 472.47 63.42 472.47 63.41 472.46 63.41 472.46 63.4 472.48 63.4 472.48 63.39 472.48 63.38 472.48 63.37 472.49 63.36 472.5 63.36 472.51 63.35 472.55 63.34 472.56 63.34 472.56 63.32 472.57 63.32 472.57 63.31 472.57 63.3 472.56 63.29 472.55 63.29 472.54 63.29 472.53 63.28 472.53 63.27 472.54 63.27 472.55 63.26 472.56 63.25 472.57 63.25 472.57 63.24 472.55 63.24 472.55 63.24 472.55 63.22 472.57 63.22 472.57 63.21 472.58 63.2 472.59 63.2 472.58 63.18 472.57 63.17 472.54 63.18 472.52 63.18 472.51 63.18 472.5 63.18 472.49 63.18 472.49 63.17 472.49 63.17 472.51 63.16 472.55 63.16 472.56 63.16 472.58 63.16 472.58 63.15 472.59 63.16 472.6 63.18 472.61 63.17 472.62 63.17 472.63 63.16 472.63 63.16 472.63 63.15 472.63 63.13 472.63 63.12 472.64 63.12 472.65 63.11 472.65 63.11 472.64 63.1 472.63 63.1 472.63 63.09 472.62 63.09 472.62 63.08 472.62 63.07 472.65 63.04 472.66 63.03 472.67 63.03 472.68 63.03 472.69 63.03 472.72 63.03 472.74 63.03 472.75 63.03 472.75 63.02 472.76 63.02 472.76 63.01 472.76 62.99 472.76 62.98 472.77 62.97 472.78 62.96 472.79 62.96 472.8 62.96 472.81 62.95 472.8 62.93 472.8 62.92 472.8 62.91 472.81 62.9 472.82 62.9 472.83 62.9 472.84 62.89 472.87 62.89 472.88 62.89 472.9 62.89 472.9 62.89 472.92 62.89 472.94 62.89 472.95 62.89 472.96 62.87 472.97 62.85 472.97 62.84 472.98 62.83 472.99 62.82 472.99 62.81 473 62.8 473.02 62.8 Z"/>
</g></svg>