<svg xmlns="http://www.w3.org/2000/svg" version="1.2" baseProfile="tiny" stroke-linecap="round" stroke-linejoin="round" viewBox="668.23 146.68 19.6 21.9"><g xmlns="http://www.w3.org/2000/svg" id="Hozta">
<path d="M 668.24 146.71 668.4 146.74 668.76 146.85 668.99 146.89 669.45 147.06 669.94 147.2 670.28 147.34 670.76 147.43 671.06 147.22 671.15 147.24 671.26 147.27 671.31 147.28 671.35 147.29 671.4 147.3 671.5 147.35 671.59 147.37 671.63 147.38 671.7 147.38 671.74 147.38 671.79 147.38 671.85 147.39 671.94 147.42 671.97 147.42 672.01 147.42 672.04 147.42 672.07 147.41 672.09 147.4 672.12 147.38 672.19 147.35 672.23 147.33 672.28 147.32 672.3 147.31 672.33 147.29 672.37 147.26 672.4 147.23 672.43 147.2 672.46 147.18 672.48 147.17 672.5 147.16 672.7 147.13 672.99 146.99 673.24 147.04 673.37 147.11 673.44 147.16 673.48 147.19 673.55 147.21 673.62 147.23 673.66 147.24 673.73 147.25 673.78 147.26 673.82 147.27 673.85 147.28 673.9 147.29 673.93 147.29 673.97 147.28 674.01 147.26 674.03 147.24 674.05 147.24 674.08 147.25 674.1 147.26 674.14 147.29 674.18 147.31 675 147.51 675.82 147.7 675.87 147.72 675.94 147.75 675.96 147.75 675.99 147.76 676.01 147.76 676.03 147.77 676.05 147.78 676.07 147.8 676.08 147.82 676.09 147.83 676.1 147.82 676.12 147.81 676.13 147.81 676.14 147.8 676.16 147.8 676.18 147.81 676.19 147.81 676.21 147.8 676.71 147.98 677.28 148.15 677.99 148.33 678.74 148.49 679.48 148.65 680.26 148.78 681.41 149.04 681.43 149.04 681.46 149.05 681.49 149.06 681.52 149.07 681.55 149.08 681.57 149.09 681.6 149.1 681.61 149.11 681.63 149.13 681.65 149.15 682.53 149.35 683.19 149.49 683.21 149.51 683.24 149.54 683.27 149.59 683.29 149.62 683.3 149.64 683.31 149.66 683.32 149.69 683.33 149.71 683.34 149.73 683.35 149.75 683.36 149.76 683.37 149.79 683.39 149.81 683.42 149.84 683.44 149.86 683.64 150.29 683.7 150.3 683.72 150.31 683.74 150.32 683.75 150.34 683.75 150.35 683.77 150.38 683.77 150.4 683.78 150.42 683.78 150.44 683.78 150.45 684.24 151.25 684.69 152.05 685.14 152.85 685.59 153.65 686.04 154.44 686.2 154.71 686.28 154.85 686.3 154.86 686.31 154.88 686.32 155.82 686.34 156.76 686.35 157.71 686.37 158.65 686.39 159.59 686.4 160.54 686.42 161.48 686.43 162.42 686.44 163.07 686.45 163.71 686.45 164.36 686.49 164.61 686.75 165.4 687.02 166.19 687.29 166.99 687.55 167.79 687.82 168.58 687.76 168.58 686.89 167.8 686.83 167.73 686.31 167.27 685.78 166.8 685.26 166.34 684.12 165.3 683.27 164.8 682.42 164.3 681.57 163.8 680.72 163.3 679.86 162.8 679.63 162.65 678.94 162.25 678.26 161.85 677.58 161.45 676.66 160.89 676.53 160.85 676.51 160.85 676.48 160.83 675.68 160.33 674.87 159.82 674.06 159.32 673.26 158.81 672.45 158.31 671.64 157.8 671.55 157.7 671.47 157.37 671.35 157.08 671.34 156.92 671.32 156.88 671.31 156.83 671.29 156.79 671.27 156.74 671.24 156.68 671.23 156.65 671.22 156.6 671.2 156.55 671.18 156.52 671.16 156.5 671.13 156.45 671.13 156.41 671.13 156.37 671.15 156.34 671.17 156.3 671.17 156.25 671.18 156.21 671.19 156.17 670.96 155.32 670.77 154.47 670.57 153.61 670.42 152.85 670.28 152.09 670.12 151.47 669.98 150.88 669.87 150.48 669.69 150.12 669.5 149.62 669.34 149.18 669.17 148.74 669.01 148.29 668.98 148.28 668.91 148.24 668.85 148.2 668.81 148.16 668.78 148.13 668.78 148.11 668.78 148.09 668.78 148.03 668.8 147.96 668.82 147.88 668.83 147.86 668.63 147.59 668.34 146.92 668.24 146.71 Z"/>
</g></svg>