<svg xmlns="http://www.w3.org/2000/svg" version="1.2" baseProfile="tiny" stroke-linecap="round" stroke-linejoin="round" viewBox="216.68 58.48 23.1 16.75"><g xmlns="http://www.w3.org/2000/svg" id="Ibarrangelu">
<path d="M 227.45 58.49 227.87 59.53 228.37 60.76 228.7 61.33 229.09 61.7 229.23 61.88 229.63 62.14 229.67 62.17 229.75 62.31 229.89 62.5 229.92 62.55 230 62.64 230.02 62.68 230.07 62.7 230.1 62.74 230.15 62.78 230.19 62.81 230.33 62.96 230.39 63 230.48 63.08 230.55 63.15 230.58 63.18 230.62 63.21 230.66 63.24 230.7 63.26 230.75 63.26 230.8 63.25 230.84 63.22 230.89 63.19 230.93 63.14 230.98 63.1 231.02 63.08 231.59 63.43 232.21 63.96 232.57 64.18 233.01 64.35 233.51 64.39 234.01 64.24 234.23 64.03 234.24 64.06 234.26 64.1 234.27 64.13 234.27 64.15 234.29 64.19 234.3 64.21 234.31 64.24 234.32 64.26 234.34 64.3 234.35 64.32 234.37 64.34 234.38 64.36 234.39 64.38 234.4 64.4 234.42 64.42 234.43 64.44 234.44 64.45 234.45 64.47 234.46 64.49 234.49 64.53 234.51 64.55 234.53 64.57 234.54 64.58 234.58 64.65 234.59 64.67 234.6 64.68 234.62 64.7 234.64 64.72 234.65 64.74 234.67 64.76 234.69 64.78 234.74 64.82 234.75 64.84 234.77 64.86 234.78 64.88 234.79 64.9 234.82 64.94 234.84 64.97 234.87 65 234.88 65.02 234.9 65.04 234.91 65.06 234.94 65.11 234.95 65.13 234.96 65.15 235.02 65.23 235.03 65.25 235.04 65.27 235.06 65.29 235.09 65.32 235.11 65.34 235.14 65.37 235.19 65.42 235.25 65.47 235.27 65.49 235.32 65.51 235.34 65.52 235.36 65.53 235.38 65.54 235.4 65.55 235.42 65.56 235.46 65.57 235.49 65.58 235.51 65.59 235.56 65.61 235.58 65.62 235.63 65.64 235.68 65.65 235.7 65.66 235.72 65.66 235.75 65.67 235.78 65.67 235.8 65.67 235.88 65.67 235.91 65.67 235.93 65.66 235.96 65.66 236.04 65.65 236.09 65.64 236.11 65.64 236.16 65.63 236.19 65.63 236.22 65.63 236.24 65.63 236.27 65.63 236.3 65.64 236.32 65.64 236.34 65.64 236.37 65.63 236.42 65.63 236.44 65.63 236.46 65.63 236.48 65.63 236.49 65.65 236.51 65.66 236.53 65.68 236.55 65.7 236.56 65.72 236.57 65.74 236.59 65.75 236.6 65.77 236.62 65.78 236.64 65.78 236.66 65.78 236.68 65.78 236.69 65.77 236.71 65.76 236.73 65.75 236.75 65.75 236.77 65.74 236.79 65.73 236.81 65.73 236.84 65.72 236.86 65.72 236.88 65.73 236.9 65.74 236.92 65.75 236.93 65.77 236.97 65.82 237 65.86 237.01 65.88 237.02 65.9 237.03 65.92 237.04 65.94 237.04 65.96 237.05 65.98 237.07 66 237.08 66.02 237.1 66.03 237.11 66.05 237.13 66.07 237.15 66.08 237.17 66.09 237.19 66.11 237.23 66.12 237.26 66.13 237.28 66.14 237.3 66.15 237.32 66.16 237.34 66.17 237.35 66.19 237.36 66.2 237.37 66.22 237.38 66.24 237.38 66.27 237.39 66.29 237.4 66.31 237.41 66.33 237.43 66.35 237.44 66.37 237.48 66.44 237.5 66.46 237.51 66.47 237.53 66.49 237.55 66.5 237.57 66.51 237.61 66.53 237.64 66.54 237.66 66.55 237.67 66.57 237.71 66.61 237.73 66.63 237.74 66.64 237.76 66.66 237.78 66.67 237.8 66.68 237.82 66.69 237.84 66.69 237.85 66.69 237.86 66.66 237.87 66.65 237.89 66.63 237.91 66.63 237.93 66.64 237.95 66.65 237.96 66.67 237.97 66.68 237.99 66.7 238 66.71 238.01 66.72 238.03 66.72 238.05 66.72 238.07 66.72 238.09 66.73 238.11 66.74 238.12 66.75 238.14 66.79 238.15 66.82 238.17 66.83 238.19 66.83 238.21 66.82 238.22 66.79 238.22 66.77 238.23 66.74 238.25 66.72 238.26 66.71 238.28 66.7 238.29 66.68 238.31 66.67 238.33 66.67 238.34 66.66 238.36 66.66 238.39 66.65 238.42 66.65 238.46 66.65 238.48 66.67 238.5 66.69 238.52 66.71 238.53 66.74 238.54 66.77 238.55 66.79 238.56 66.8 238.58 66.82 238.6 66.83 238.61 66.84 238.63 66.84 238.65 66.85 238.68 66.85 238.7 66.85 238.73 66.85 238.75 66.85 238.77 66.84 238.82 66.83 238.84 66.82 238.85 66.81 238.86 66.79 238.87 66.76 238.85 66.73 238.85 66.7 238.85 66.68 238.86 66.66 238.89 66.66 238.89 66.65 238.89 66.63 238.88 66.62 238.88 66.6 238.88 66.57 238.88 66.56 238.89 66.55 238.92 66.55 238.95 66.56 238.96 66.57 238.98 66.57 239 66.56 239.02 66.55 239.04 66.54 239.06 66.54 239.09 66.54 239.11 66.55 239.13 66.56 239.16 66.57 239.18 66.57 239.2 66.58 239.36 66.58 239.38 66.58 239.39 66.57 239.4 66.54 239.4 66.51 239.39 66.49 239.38 66.48 239.36 66.45 239.36 66.43 239.35 66.41 239.36 66.39 239.36 66.37 239.37 66.36 239.39 66.34 239.4 66.33 239.42 66.33 239.45 66.33 239.47 66.33 239.49 66.34 239.51 66.35 239.53 66.36 239.55 66.37 239.56 66.38 239.58 66.4 239.6 66.42 239.63 66.43 239.65 66.45 239.67 66.46 239.7 66.49 239.72 66.5 239.74 66.51 239.77 66.49 237.98 70.19 237 70.12 237.12 70.71 236.87 70.67 236.58 71.71 236.29 71.52 235.97 71.43 235.85 71.4 235.74 71.39 235.57 71.39 235.41 71.72 235.4 72.08 235.83 73.17 236.04 73.7 236.09 74.07 236.11 74.2 236.31 74.8 235.55 74.64 235.29 75.1 235.22 75.21 235.19 75.19 235.16 75.18 235.14 75.17 235.11 75.17 235.08 75.16 235.03 75.15 234.98 75.14 234.92 75.13 234.87 75.13 234.84 75.12 234.79 75.12 234.75 75.11 234.7 75.1 234.69 75.08 234.69 75.05 234.68 75.02 234.67 74.98 234.65 74.94 234.62 74.89 234.59 74.84 234.57 74.79 234.54 74.72 234.51 74.68 234.49 74.63 234.45 74.58 234.44 74.55 234.42 74.51 234.41 74.48 234.4 74.44 234.39 74.4 234.38 74.37 234.38 74.32 234.38 74.28 234.38 74.24 234.38 74.21 234.39 74.17 234.4 74.12 234.41 74.08 234.42 74.05 234.43 74.03 234.44 73.99 234.47 73.94 234.48 73.92 234.5 73.89 234.52 73.87 234.54 73.86 234.56 73.85 234.61 73.84 234.66 73.82 234.66 73.81 234.64 73.78 234.63 73.75 234.62 73.73 234.61 73.71 234.58 73.69 234.53 73.66 234.48 73.63 234.45 73.61 234.43 73.58 234.4 73.55 234.37 73.52 234.34 73.5 234.31 73.48 234.28 73.45 234.25 73.44 234.22 73.43 234.2 73.43 234.18 73.43 234.17 73.44 234.13 73.44 234.1 73.44 234.03 73.45 233.96 73.46 233.88 73.48 233.8 73.48 233.76 73.49 233.71 73.49 233.63 73.5 233.53 73.5 233.45 73.5 233.38 73.5 233.32 73.5 233.27 73.5 233.23 73.5 233.21 73.51 233.19 73.52 233.17 73.53 233.15 73.54 233.12 73.55 233.06 73.57 233.02 73.58 233 73.58 232.98 73.56 232.97 73.55 232.94 73.52 232.91 73.5 232.88 73.49 232.85 73.49 232.84 73.48 232.81 73.46 232.79 73.47 232.77 73.48 232.56 73.61 231.85 74.06 231.35 74.37 231.36 73.82 231.36 73.19 231.36 73.01 231.21 72.94 231.15 72.9 231.01 72.85 230.89 72.76 230.89 72.53 230.5 72.52 230.29 72.33 230.09 72.03 230.02 71.94 229.48 72.16 229.41 72.18 229.84 73.2 229.85 73.22 230.09 73.93 230.09 73.95 230.14 74.06 230.18 74.17 230.22 74.3 230.1 74.37 230.01 74.41 228.98 74.96 228.79 74.56 228.6 73.94 228.59 73.21 228.59 73.15 228.7 72.47 226.98 72.47 226.56 71.86 226.25 71.31 226.03 70.75 224.87 69 224.73 67.92 223.95 67.49 223.17 66.97 221.29 65.57 220.15 65.62 220.16 65.6 220.17 65.59 220.17 65.58 220.17 65.55 220.17 65.51 220.16 65.48 220.16 65.37 220.17 65.36 220.17 65.34 220.17 65.28 220.17 65.27 220.15 65.24 220.14 65.22 220.13 65.2 220.12 65.2 220.11 65.19 220.09 65.19 220.06 65.19 219.96 65.17 219.94 65.17 219.94 65.14 219.92 65.14 219.86 65.12 219.82 65.11 219.78 65.1 219.77 65.09 219.72 65.08 219.71 65.07 219.66 65.06 219.62 65.04 219.59 65.03 219.57 65.02 219.54 65 219.51 64.97 219.5 64.96 219.46 64.95 219.45 64.94 219.42 64.92 219.4 64.9 219.35 64.87 219.34 64.86 219.31 64.83 219.28 64.81 219.25 64.77 219.23 64.76 219.22 64.75 219.2 64.72 219.18 64.69 219.17 64.67 219.16 64.67 219.15 64.64 219.13 64.6 219.12 64.57 219.12 64.54 219.1 64.52 219.1 64.49 219.09 64.47 219.08 64.44 219.07 64.42 219.07 64.41 219.07 64.39 219.07 64.37 219.05 64.36 219.02 64.34 218.96 64.34 218.91 64.35 218.9 64.36 218.88 64.38 218.87 64.39 218.85 64.46 218.85 64.52 218.83 64.66 218.8 64.74 218.78 64.79 218.76 64.84 218.72 64.9 218.7 64.93 218.68 64.95 218.58 65.03 218.57 65.04 218.51 65.07 218.45 65.09 218.42 65.09 218.37 65.1 218.28 65.1 218.21 65.08 218.15 65.07 218.03 65.06 217.93 65.04 217.91 65.03 217.91 65.02 217.91 64.99 217.92 64.97 217.93 64.94 217.92 64.93 217.91 64.92 217.9 64.92 217.88 64.94 217.87 64.97 217.85 64.99 217.84 65 217.82 65 217.76 65 217.74 65 217.7 64.98 217.65 64.97 217.58 64.95 217.46 64.9 217.44 64.89 217.38 64.85 217.3 64.81 217.14 64.71 217.05 64.65 216.91 64.58 216.88 64.56 216.82 64.46 216.77 64.39 216.74 64.32 216.72 64.25 216.72 64.23 216.72 64.14 216.71 64.1 216.72 64.06 216.73 64.04 216.76 64.01 216.8 63.95 216.82 63.93 216.84 63.91 216.9 63.86 216.93 63.83 216.97 63.78 217.03 63.71 217.07 63.65 217.09 63.62 217.16 63.53 217.2 63.5 217.37 63.45 217.4 63.44 217.43 63.42 217.46 63.4 217.53 63.31 217.55 63.3 217.57 63.29 217.63 63.27 217.72 63.27 217.79 63.26 217.91 63.23 217.96 63.22 218.08 63.19 218.16 63.17 218.18 63.16 218.2 63.14 218.27 63.1 218.4 63.03 218.51 62.98 218.67 62.91 218.86 62.82 218.94 62.76 218.96 62.73 218.97 62.72 218.97 62.6 218.96 62.54 218.96 62.28 218.96 62.25 218.95 62.19 218.95 62.16 218.95 62.13 218.97 61.98 218.98 61.91 218.98 61.88 218.98 61.82 219.01 61.72 219.03 61.69 219.04 61.68 219.08 61.64 219.13 61.6 219.19 61.52 219.24 61.47 219.27 61.42 219.28 61.35 219.3 61.29 219.3 61.24 219.3 61.21 219.32 61.19 219.34 61.16 219.36 61.14 219.42 61.1 219.44 61.08 219.48 61.04 219.5 61.01 219.52 60.99 219.54 60.96 219.56 60.92 219.57 60.91 219.64 60.87 219.68 60.84 219.73 60.8 219.75 60.78 219.81 60.71 219.82 60.68 219.84 60.66 219.88 60.62 219.89 60.6 219.89 60.59 219.88 60.57 219.87 60.55 219.88 60.53 219.9 60.51 219.95 60.51 219.95 60.5 219.96 60.45 219.96 60.43 219.98 60.38 220 60.35 220.02 60.33 220.09 60.27 220.1 60.24 220.13 60.18 220.14 60.15 220.27 60 220.28 59.98 220.28 59.95 220.3 59.92 220.33 59.84 220.33 59.83 220.29 59.79 220.29 59.77 220.31 59.74 220.33 59.72 220.38 59.69 220.4 59.68 220.42 59.67 220.44 59.67 220.46 59.67 220.49 59.64 220.5 59.63 220.55 59.55 220.55 59.53 220.51 59.5 220.5 59.48 220.5 59.47 220.51 59.46 220.54 59.46 220.56 59.47 220.57 59.48 220.58 59.48 220.6 59.44 220.6 59.4 220.61 59.38 220.64 59.35 220.63 59.32 220.61 59.31 220.6 59.3 220.6 59.28 220.63 59.24 220.64 59.22 220.63 59.17 220.63 59.13 220.64 59.08 220.66 59.05 220.66 59.03 220.63 58.99 220.62 58.95 220.62 58.92 220.64 58.91 220.66 58.89 220.69 58.87 220.71 58.86 220.77 58.85 220.8 58.84 220.82 58.84 220.88 58.83 220.9 58.82 220.91 58.81 220.9 58.75 220.91 58.74 220.95 58.74 221.01 58.75 221.07 58.75 221.1 58.74 221.13 58.72 221.15 58.72 221.18 58.72 221.28 58.76 221.34 58.79 221.38 58.79 221.41 58.8 221.44 58.81 221.46 58.8 221.48 58.79 221.5 58.77 221.53 58.73 221.53 58.7 221.53 58.67 221.54 58.64 221.56 58.62 221.58 58.61 221.61 58.61 221.64 58.61 221.66 58.62 221.7 58.64 221.72 58.66 221.74 58.68 221.77 58.69 221.79 58.69 221.84 58.69 221.91 58.7 222 58.72 222.03 58.72 222.06 58.71 222.08 58.69 222.09 58.68 222.09 58.66 222.09 58.64 222.08 58.62 222.05 58.58 222.05 58.55 222.06 58.53 222.08 58.52 222.1 58.53 222.13 58.54 222.16 58.57 222.21 58.65 222.23 58.66 222.26 58.66 222.27 58.66 222.28 58.65 222.28 58.62 222.28 58.57 222.28 58.55 222.29 58.53 222.31 58.52 222.34 58.52 222.37 58.53 222.39 58.55 222.39 58.57 222.39 58.6 222.39 58.67 222.4 58.69 222.42 58.7 222.47 58.7 222.49 58.71 222.51 58.71 222.54 58.74 222.57 58.74 222.68 58.74 222.75 58.73 222.83 58.73 222.85 58.72 222.88 58.71 222.9 58.69 222.93 58.69 222.96 58.68 223 58.65 223.05 58.63 223.08 58.63 223.11 58.64 223.13 58.65 223.15 58.65 223.16 58.65 223.18 58.61 223.21 58.61 223.28 58.68 223.32 58.71 223.35 58.72 223.43 58.72 223.45 58.72 223.46 58.71 223.48 58.69 223.5 58.69 223.53 58.7 223.57 58.73 223.58 58.75 223.6 58.76 223.63 58.76 223.65 58.75 223.66 58.73 223.66 58.71 223.65 58.67 223.65 58.65 223.63 58.62 223.62 58.61 223.63 58.59 223.65 58.58 223.67 58.57 223.71 58.58 223.74 58.58 223.76 58.58 223.85 58.62 223.88 58.63 223.9 58.66 223.93 58.71 223.97 58.74 224 58.77 224.01 58.78 224.03 58.78 224.07 58.79 224.1 58.81 224.14 58.85 224.16 58.88 224.17 58.9 224.17 58.92 224.18 58.94 224.19 58.96 224.22 58.97 224.24 58.98 224.27 58.97 224.3 58.96 224.32 58.95 224.35 58.91 224.35 58.88 224.37 58.87 224.41 58.87 224.46 58.89 224.49 58.92 224.51 58.94 224.54 59 224.56 59.03 224.59 59.08 224.61 59.1 224.67 59.17 224.68 59.19 224.71 59.21 224.72 59.21 224.73 59.2 224.73 59.18 224.72 59.15 224.7 59.11 224.69 59.08 224.7 59.07 224.72 59.07 224.74 59.08 224.75 59.09 224.78 59.14 224.79 59.15 224.79 59.18 224.8 59.2 224.82 59.23 224.83 59.25 224.84 59.27 224.84 59.29 224.83 59.3 224.84 59.31 224.89 59.37 224.92 59.41 224.93 59.43 224.94 59.47 224.96 59.48 224.98 59.49 225 59.5 225.07 59.63 225.08 59.65 225.11 59.65 225.12 59.66 225.14 59.69 225.19 59.71 225.21 59.72 225.26 59.76 225.35 59.79 225.41 59.82 225.43 59.82 225.45 59.82 225.48 59.8 225.51 59.8 225.54 59.8 225.56 59.81 225.62 59.84 225.66 59.88 225.68 59.89 225.72 59.88 225.74 59.9 225.77 59.92 225.77 59.93 225.8 59.93 225.85 59.92 225.93 59.92 226.05 59.91 226.22 59.89 226.32 59.88 226.5 59.86 226.68 59.82 226.76 59.81 226.9 59.78 226.95 59.77 227.11 59.72 227.18 59.7 227.21 59.68 227.29 59.61 227.34 59.57 227.35 59.55 227.37 59.48 227.38 59.37 227.38 59.33 227.36 59.29 227.31 59.21 227.31 59.2 227.3 59.15 227.28 59.12 227.27 59.11 227.27 59.12 227.26 59.14 227.25 59.14 227.21 59.13 227.2 59.12 227.18 59.11 227.18 59.09 227.18 59.07 227.18 59.05 227.2 59.04 227.2 59.03 227.2 58.99 227.21 58.96 227.22 58.94 227.24 58.95 227.25 58.96 227.29 59.02 227.31 59.07 227.32 59.08 227.33 59.09 227.35 59.11 227.35 59.13 227.37 59.15 227.37 59.17 227.39 59.21 227.41 59.24 227.44 59.34 227.46 59.35 227.47 59.35 227.48 59.34 227.49 59.32 227.49 59.29 227.49 59.24 227.48 59.22 227.44 59.15 227.41 59.08 227.41 59.07 227.42 59.06 227.43 59.06 227.45 59.07 227.46 59.09 227.49 59.18 227.5 59.19 227.51 59.19 227.53 59.16 227.55 59.12 227.56 59.1 227.56 59.08 227.53 58.99 227.51 58.92 227.51 58.9 227.52 58.88 227.55 58.86 227.56 58.85 227.55 58.82 227.53 58.8 227.51 58.78 227.5 58.76 227.51 58.72 227.51 58.7 227.5 58.68 227.48 58.63 227.45 58.53 227.45 58.51 227.45 58.49 Z"/>
</g></svg>