<svg xmlns="http://www.w3.org/2000/svg" version="1.2" baseProfile="tiny" stroke-linecap="round" stroke-linejoin="round" viewBox="714.28 136.87 14.67 16.17"><g xmlns="http://www.w3.org/2000/svg" id="Idauze-Mendi">
<path d="M 724.31 137.29 724.19 137.85 724.22 137.92 724.24 137.96 724.26 138.02 724.29 138.06 724.3 138.1 724.31 138.15 724.32 138.2 724.34 138.26 724.35 138.3 724.36 138.35 724.37 138.4 724.68 138.55 724.98 138.96 724.84 140.06 724.87 140.09 724.92 140.13 724.96 140.16 725 140.19 725.06 140.22 725.07 140.23 725.1 140.24 725.14 140.25 725.18 140.25 725.22 140.26 725.25 140.27 725.28 140.28 725.35 140.3 726.09 140.94 726.44 141.16 726.63 141.34 726.98 141.66 727.01 141.87 727.21 142.22 727.24 142.46 727.08 143.04 727.34 143.64 727.33 143.68 727.32 143.77 727.31 143.81 727.31 143.85 727.32 143.9 727.32 143.97 727.32 144.02 727.31 144.12 727.29 144.22 727.29 144.31 727.31 144.37 727.32 144.45 727.34 144.54 727.35 144.59 727.37 144.64 727.39 144.7 727.42 144.76 727.45 144.81 727.49 144.85 727.53 144.89 727.57 144.91 727.64 144.93 727.69 144.95 727.74 144.96 727.81 144.97 727.87 144.98 727.95 144.99 728.02 144.99 728.11 144.99 728.16 144.99 728.2 144.98 728.24 144.96 728.27 144.95 728.31 144.94 728.34 144.94 728.4 144.94 728.44 144.95 728.48 144.95 728.52 144.96 728.64 145 728.75 145.04 728.78 145.07 728.82 145.1 728.85 145.11 728.89 145.13 728.9 145.17 728.91 145.21 728.92 145.25 728.93 145.3 728.81 145.46 728.65 145.49 728.67 145.77 728.66 145.84 728.45 145.94 728.45 145.98 728.52 146.1 728.6 146.3 728.57 146.36 728.34 146.45 728.35 146.48 728.4 146.68 728.43 146.83 728.45 146.87 728.48 146.95 728.26 147.02 728.25 147.09 727.85 147.2 727.87 147.31 726.97 147.59 727.04 147.78 726.52 147.96 726 148.14 725.48 148.32 725.5 148.67 725.4 148.81 725.34 148.96 725.41 149.02 725.44 149.07 725.37 149.17 725.28 149.43 725.33 149.56 725.21 149.83 725.29 150.01 725.14 150.11 725.25 150.32 725.35 150.45 725.53 150.59 725.53 150.63 725.52 150.66 725.52 150.7 725.52 150.74 725.51 150.78 725.51 150.81 725.5 150.84 725.5 150.87 725.51 150.92 725.52 150.96 725.53 151 725.54 151.03 725.54 151.07 725.55 151.11 725.56 151.19 725.47 151.78 725.62 151.83 725.62 151.84 725.43 152.57 725.22 152.61 724.13 152.89 723.61 153.02 723.56 152.94 723.53 152.9 723.5 152.87 723.48 152.85 723.46 152.83 723.43 152.81 723.4 152.8 723.38 152.79 723.3 152.76 723.24 152.75 723.22 152.74 723.19 152.74 723.16 152.74 723.13 152.74 723.06 152.71 723.07 152.69 723.08 152.65 723.09 152.62 723.1 152.57 723.1 152.54 723.11 152.51 723.13 152.48 723.14 152.46 723.16 152.44 723.18 152.41 723.19 152.39 723.19 152.36 723.19 152.32 723.18 152.29 723.16 152.26 723.14 152.23 723.12 152.19 723.11 152.16 723.09 152.13 723.08 152.1 723.07 152.07 723.07 152.04 723.06 152 723.05 151.97 723.04 151.94 723.03 151.91 723.03 151.88 723.02 151.85 723.01 151.82 722.99 151.8 722.98 151.77 722.96 151.74 722.94 151.7 722.93 151.67 722.92 151.64 722.92 151.59 722.93 151.55 722.94 151.51 722.96 151.47 722.97 151.45 722.99 151.42 723 151.38 723.01 151.35 723.02 151.31 723.03 151.26 723.04 151.23 723.07 151.21 723.09 151.18 723.1 151.15 723.12 151.12 723.13 151.08 723.13 151.06 723.12 151.03 723.11 151.01 723.09 150.97 723.07 150.95 723.07 150.91 723.08 150.88 723.09 150.84 723.1 150.8 723.11 150.76 723.11 150.73 723.11 150.69 723.12 150.65 723.13 150.61 723.14 150.59 723.15 150.56 723.14 150.53 723.13 150.5 723.08 150.45 723.06 150.42 723.04 150.39 723.03 150.37 723.02 150.33 723.02 150.3 723.03 150.27 723.03 150.24 722.98 150.22 722.94 150.21 722.89 150.21 722.86 150.21 722.82 150.21 722.79 150.22 722.76 150.23 722.73 150.24 722.72 150.26 722.71 150.28 722.71 150.31 722.7 150.34 722.69 150.36 722.67 150.38 722.64 150.39 722.61 150.41 722.6 150.42 722.59 150.44 722.58 150.46 722.58 150.47 722.56 150.49 722.54 150.49 722.51 150.5 722.48 150.51 722.45 150.52 722.41 150.52 722.36 150.53 722.32 150.53 722.28 150.55 722.23 150.55 722.19 150.55 722.16 150.54 722.11 150.51 722.09 150.5 722.08 150.49 722.04 150.47 722 150.45 721.97 150.43 721.93 150.41 721.89 150.38 721.85 150.36 721.83 150.35 721.73 150.36 721.69 150.36 721.65 150.35 721.61 150.35 721.55 150.34 721.5 150.33 721.44 150.33 721.38 150.34 721.33 150.35 721.28 150.36 721.23 150.37 721.19 150.39 721.15 150.42 721.14 150.42 721.1 150.45 721.04 150.48 721 150.51 720.96 150.53 720.92 150.56 720.86 150.58 720.83 150.6 720.77 150.62 720.73 150.64 720.7 150.66 720.66 150.68 720.62 150.71 720.56 150.72 720.51 150.74 720.46 150.77 720.41 150.8 720.36 150.84 720.31 150.87 720.26 150.9 720.22 150.91 720.18 150.93 720.14 150.93 720.1 150.93 720.06 150.92 720 150.9 719.96 150.89 719.9 150.88 719.85 150.88 719.8 150.87 719.76 150.84 719.73 150.81 719.71 150.78 719.68 150.73 719.66 150.71 719.64 150.69 719.62 150.66 719.59 150.62 719.55 150.58 719.52 150.53 719.49 150.49 719.46 150.46 719.43 150.41 719.4 150.37 719.36 150.32 719.33 150.28 719.3 150.24 719.28 150.2 719.25 150.15 719.23 150.1 719.2 150.05 719.17 150.02 719.15 149.98 719.11 149.95 719.08 149.93 719.03 149.91 718.99 149.9 718.95 149.9 718.93 149.9 718.89 149.91 718.86 149.93 718.84 149.94 718.81 149.97 718.79 149.98 718.56 149.92 718.55 149.22 718.5 149.13 718.48 149.11 718.48 149.09 718.47 149.06 718.46 149.04 718.45 149.02 718.44 148.99 718.43 148.97 718.42 148.94 718.41 148.91 718.4 148.88 718.38 148.85 718.37 148.83 718.37 148.8 718.37 148.77 718.37 148.74 718.38 148.71 718.39 148.68 718.4 148.65 718.41 148.62 718.41 148.59 718.41 148.56 718.41 148.53 718.42 148.5 718.43 148.47 718.44 148.43 718.46 148.38 718.5 148.34 718.58 148 718.57 147.99 718.56 147.98 718.56 147.96 718.55 147.95 718.55 147.94 718.55 147.93 718.54 147.91 718.54 147.9 718.54 147.89 718.53 147.88 718.53 147.87 718.52 147.85 718.52 147.84 718.51 147.82 718.51 147.81 718.5 147.8 718.49 147.79 718.49 147.77 718.48 147.76 718.47 147.75 718.46 147.74 718.45 147.73 718.44 147.72 718.43 147.71 718.42 147.7 718.42 147.69 718.41 147.68 718.36 147.67 718.35 147.67 718.34 147.67 718.32 147.67 718.31 147.67 718.29 147.67 718.28 147.67 718.27 147.67 718.26 147.67 718.25 147.67 718.23 147.67 718.22 147.66 718.21 147.66 718.2 147.66 718.19 147.66 718.17 147.65 718.16 147.65 718.15 147.65 718.13 147.65 718.12 147.65 718.1 147.64 718.09 147.64 718.08 147.64 718.06 147.63 718.05 147.63 718.03 147.63 718.02 147.62 718 147.62 717.99 147.61 717.98 147.61 717.96 147.61 717.95 147.61 717.93 147.61 717.92 147.61 717.9 147.6 717.89 147.6 717.88 147.59 717.86 147.59 717.85 147.59 717.84 147.58 717.82 147.58 717.81 147.57 717.8 147.57 717.79 147.56 717.77 147.55 717.76 147.54 717.75 147.53 717.74 147.52 717.73 147.52 717.72 147.51 717.71 147.5 717.7 147.49 717.69 147.49 717.68 147.48 717.67 147.47 717.66 147.46 717.65 147.45 717.64 147.44 717.62 147.43 717.61 147.42 717.6 147.4 717.59 147.39 717.58 147.38 717.57 147.37 717.56 147.35 717.55 147.34 717.54 147.33 717.53 147.31 717.52 147.3 717.51 147.29 717.51 147.27 717.5 147.26 717.49 147.24 717.48 147.23 717.48 147.22 717.47 147.2 717.47 147.19 717.46 147.17 717.46 147.15 717.46 147.14 717.45 147.13 717.45 147.11 717.45 147.1 717.44 147.08 717.44 147.07 717.44 147.05 717.44 147.04 717.43 147.03 717.43 147.01 717.43 147 717.43 146.98 717.43 146.97 717.43 146.95 717.29 146.68 717.28 146.68 717.26 146.68 717.25 146.69 717.23 146.69 717.21 146.69 717.2 146.69 717.19 146.69 717.17 146.69 717.16 146.7 717.14 146.7 717.13 146.7 717.11 146.7 717.09 146.7 717.08 146.7 717.06 146.7 717.05 146.7 717.03 146.7 717.02 146.7 717 146.7 716.99 146.69 716.97 146.69 716.96 146.69 716.94 146.68 716.93 146.68 716.91 146.67 716.9 146.67 716.89 146.67 716.87 146.66 716.86 146.66 716.85 146.65 716.84 146.65 716.82 146.64 716.81 146.63 716.8 146.63 716.79 146.62 716.77 146.62 716.76 146.61 716.75 146.6 716.74 146.6 716.72 146.6 716.71 146.59 716.7 146.59 716.69 146.59 716.68 146.58 716.67 146.58 716.66 146.57 716.64 146.57 716.63 146.56 716.62 146.55 716.6 146.54 716.59 146.54 716.58 146.53 716.57 146.52 716.56 146.52 716.55 146.51 716.54 146.5 716.52 146.5 716.51 146.49 716.5 146.49 716.49 146.48 716.48 146.48 716.47 146.47 716.46 146.47 716.45 146.47 716.44 146.47 716.43 146.46 716.41 146.46 716.36 146.42 716.35 146.41 716.34 146.41 716.33 146.4 716.32 146.4 716.3 146.39 716.29 146.38 716.28 146.38 716.27 146.37 716.27 146.37 716.26 146.36 716.25 146.35 716.24 146.35 716.23 146.34 716.22 146.34 716.21 146.34 716.2 146.33 716.18 146.32 716.17 146.31 716.16 146.3 716.16 146.29 716.15 146.28 716.14 146.27 716.13 146.27 716.12 146.25 716.12 146.25 716.11 146.24 716.1 146.23 716.09 146.21 716.08 146.2 716.07 146.19 716.07 146.18 716.06 146.18 716.05 146.17 716.03 146.17 716.02 146.17 716 146.16 715.99 146.16 715.98 146.16 715.97 146.15 715.96 146.15 715.95 146.15 715.94 146.15 715.93 146.15 715.92 146.14 715.91 146.14 715.89 146.14 715.88 146.14 715.87 146.14 715.85 146.14 715.84 146.14 715.82 146.14 715.81 146.14 715.79 146.14 715.78 146.14 715.7 146.13 715.68 146.13 715.63 146.12 715.61 146.11 715.58 146.1 715.55 146.08 715.53 146.07 715.51 146.05 715.47 146.03 715.44 146.01 715.4 145.98 715.38 145.96 715.36 145.93 715.33 145.9 715.31 145.86 715.29 145.83 715.27 145.8 715.25 145.76 715.23 145.74 715.2 145.69 715.18 145.67 715.17 145.65 715.15 145.63 715.14 145.61 715.12 145.59 715.1 145.59 715.07 145.58 715.06 145.57 715.05 145.55 715.03 145.53 715.01 145.51 714.99 145.5 714.96 145.48 714.94 145.46 714.93 145.45 714.91 145.44 714.87 145.43 714.85 145.43 714.81 145.44 714.76 145.43 714.71 145.42 714.64 145.39 714.61 145.38 714.58 145.38 714.55 145.38 714.52 145.37 714.5 145.36 714.44 145.35 714.4 145.33 714.34 145.32 714.31 145.32 714.31 145.29 714.32 145.28 714.32 145.27 714.32 145.26 714.32 145.25 714.32 145.25 714.33 145.24 714.33 145.23 714.33 145.22 714.33 145.21 714.33 145.2 714.34 145.19 714.34 145.18 714.34 145.17 714.35 145.16 714.35 145.15 714.36 145.14 714.36 145.13 714.36 145.12 714.36 145.11 714.37 145.1 714.37 145.1 714.38 145.09 714.39 145.08 714.39 145.07 714.4 145.06 714.41 145.06 714.42 145.05 714.43 145.05 714.44 145.04 714.45 145.04 714.46 145.03 714.47 145.03 714.48 145.03 714.49 145.03 714.5 145.02 714.51 145.01 714.51 145 714.52 145 714.52 144.99 714.52 144.97 714.52 144.96 714.52 144.95 714.52 144.94 714.52 144.93 714.51 144.92 714.51 144.91 714.5 144.9 714.5 144.89 714.49 144.88 714.48 144.87 714.48 144.86 714.47 144.84 714.47 144.83 714.46 144.82 714.46 144.81 714.45 144.8 714.45 144.79 714.44 144.78 714.44 144.77 714.44 144.76 714.44 144.75 714.43 144.74 714.43 144.73 714.43 144.72 714.43 144.72 714.43 144.71 714.43 144.7 714.44 144.69 714.44 144.67 714.44 144.66 714.45 144.65 714.45 144.64 714.45 144.63 714.46 144.62 714.46 144.61 714.47 144.61 714.47 144.6 714.48 144.59 714.49 144.58 714.5 144.57 714.5 144.56 714.51 144.56 714.52 144.55 714.53 144.54 714.54 144.54 714.55 144.53 714.56 144.53 714.56 144.52 714.57 144.51 714.57 144.5 714.58 144.49 714.58 144.48 714.59 144.47 714.59 144.46 714.59 144.46 714.59 144.45 714.59 144.44 714.59 144.43 714.59 144.41 714.59 144.4 714.59 144.39 714.59 144.39 714.59 144.38 714.58 144.37 714.58 144.36 714.58 144.35 714.58 144.35 714.57 144.34 714.57 144.33 714.57 144.32 714.56 144.31 714.56 144.3 714.55 144.28 714.55 144.28 714.55 144.27 714.54 144.26 714.53 144.25 714.52 144.24 714.52 144.23 714.51 144.22 714.5 144.21 714.49 144.2 714.49 144.19 714.48 144.18 714.48 144.17 714.47 144.17 714.46 144.16 714.46 144.14 714.45 144.13 714.44 144.12 714.43 144.11 714.42 144.1 714.42 144.09 714.41 144.08 714.41 144.07 714.4 144.06 714.39 144.05 714.39 144.04 714.39 144.03 714.38 144.02 714.38 144.01 714.38 144 714.38 144 714.38 143.99 714.38 143.98 714.38 143.97 714.38 143.96 714.39 143.95 714.39 143.95 714.4 143.94 714.4 143.93 714.41 143.92 714.41 143.92 714.41 143.91 714.43 143.88 714.46 143.85 714.47 143.84 714.47 143.84 714.47 143.83 714.48 143.82 714.48 143.81 714.48 143.81 714.49 143.8 714.49 143.79 714.49 143.78 714.48 143.77 714.48 143.76 714.48 143.75 714.48 143.74 714.47 143.72 714.47 143.71 714.47 143.7 714.47 143.69 714.47 143.68 714.47 143.67 714.47 143.67 714.47 143.66 714.47 143.65 714.47 143.64 714.47 143.63 714.47 143.62 714.47 143.61 714.47 143.6 714.47 143.59 714.47 143.58 714.47 143.57 714.47 143.57 714.47 143.55 714.47 143.55 714.49 143.55 714.49 143.55 714.5 143.55 714.51 143.55 714.52 143.55 714.53 143.56 714.55 143.56 714.56 143.56 714.57 143.57 714.58 143.57 714.59 143.57 714.6 143.57 714.61 143.57 714.61 143.58 714.62 143.58 714.63 143.58 714.64 143.58 714.66 143.58 714.67 143.57 714.67 143.57 714.68 143.56 714.68 143.55 714.68 143.54 714.68 143.54 714.68 143.53 714.69 143.52 714.69 143.51 714.69 143.5 714.69 143.49 714.69 143.48 714.69 143.47 714.69 143.46 714.69 143.45 714.7 143.45 714.7 143.44 714.7 143.43 714.7 143.42 714.7 143.41 714.7 143.41 714.7 143.4 714.71 143.39 714.71 143.38 714.71 143.37 714.72 143.36 714.72 143.35 714.72 143.34 714.72 143.34 714.72 143.33 714.72 143.32 714.72 143.31 714.72 143.3 714.73 143.25 714.74 143.21 714.77 143.17 714.81 143.14 714.84 143.18 714.87 143.24 714.89 143.26 714.9 143.27 714.9 143.27 714.91 143.28 714.92 143.28 714.93 143.28 714.94 143.28 714.95 143.28 714.96 143.28 714.97 143.28 714.98 143.28 714.99 143.28 715 143.29 715.01 143.28 715.02 143.29 715.03 143.29 715.04 143.29 715.05 143.29 715.06 143.29 715.07 143.3 715.08 143.3 715.08 143.3 715.09 143.31 715.1 143.31 715.11 143.31 715.11 143.31 715.12 143.32 715.13 143.32 715.13 143.32 715.14 143.32 715.15 143.33 715.16 143.33 715.17 143.33 715.17 143.33 715.18 143.34 715.19 143.34 715.2 143.34 715.21 143.34 715.21 143.34 715.22 143.34 715.23 143.35 715.24 143.35 715.25 143.35 715.26 143.35 715.27 143.35 715.28 143.36 715.28 143.36 715.29 143.36 715.3 143.36 715.31 143.37 715.32 143.37 715.33 143.37 715.34 143.37 715.34 143.38 715.35 143.38 715.36 143.38 715.37 143.39 715.38 143.39 715.39 143.4 715.39 143.4 715.4 143.41 715.41 143.41 715.41 143.42 715.42 143.42 715.43 143.42 715.43 143.43 715.44 143.43 715.45 143.44 715.46 143.44 715.47 143.44 715.47 143.45 715.48 143.45 715.49 143.46 715.49 143.47 715.5 143.47 715.51 143.48 715.51 143.48 715.52 143.49 715.52 143.49 715.53 143.5 715.54 143.51 715.54 143.51 715.55 143.51 715.56 143.52 715.56 143.52 715.57 143.53 715.58 143.54 715.59 143.54 715.59 143.55 715.6 143.55 715.61 143.56 715.61 143.56 715.62 143.57 715.63 143.58 715.63 143.58 715.64 143.59 715.65 143.6 715.66 143.61 715.66 143.61 715.67 143.62 715.67 143.63 715.68 143.64 715.68 143.64 715.68 143.65 715.68 143.66 715.69 143.67 715.69 143.68 715.69 143.68 715.7 143.69 715.7 143.7 715.71 143.71 715.71 143.72 715.72 143.73 715.72 143.74 715.73 143.74 715.74 143.75 715.74 143.76 715.77 143.82 715.77 143.83 715.78 143.84 715.79 143.85 715.8 143.85 715.81 143.86 715.82 143.86 715.83 143.87 715.84 143.87 715.85 143.88 715.86 143.88 715.87 143.89 715.88 143.9 715.89 143.9 715.9 143.91 715.91 143.92 715.92 143.93 715.93 143.94 715.93 143.95 715.94 143.97 715.94 143.98 715.94 143.99 715.94 144 715.94 144.01 715.95 144.02 715.95 144.04 715.95 144.05 715.96 144.06 715.96 144.08 715.97 144.09 715.98 144.1 715.98 144.11 715.99 144.12 716 144.12 716.01 144.13 716.02 144.14 716.03 144.14 716.05 144.15 716.06 144.15 716.07 144.15 716.08 144.15 716.09 144.15 716.11 144.15 716.12 144.15 716.13 144.15 716.14 144.15 716.16 144.15 716.17 144.15 716.18 144.15 716.19 144.15 716.21 144.15 716.22 144.15 716.23 144.15 716.24 144.14 716.25 144.14 716.26 144.14 716.27 144.13 716.29 144.13 716.3 144.13 716.31 144.13 716.32 144.13 716.34 144.13 716.35 144.13 716.37 144.13 716.38 144.13 716.4 144.13 716.41 144.13 716.48 144.14 716.49 144.13 716.5 144.12 716.51 144.11 716.51 144.1 716.52 144.1 716.53 144.08 716.53 144.07 716.54 144.06 716.55 144.05 716.56 144.05 716.57 144.05 716.58 144.05 716.6 144.05 716.61 144.05 716.62 144.05 716.63 144.04 716.65 144.04 716.66 144.04 716.67 144.04 716.69 144.04 716.7 144.04 716.72 144.04 716.73 144.03 716.75 144.03 716.76 144.03 716.78 144.03 716.79 144.03 716.8 144.02 716.82 144.02 716.83 144.02 716.84 144.02 716.86 144.01 716.87 144.01 716.89 144.01 716.9 144 716.91 144 716.93 144 716.94 143.99 716.96 143.98 716.97 143.98 716.98 143.97 717 143.96 717.01 143.95 717.02 143.94 717.03 143.93 717.05 143.93 717.06 143.91 717.08 143.91 717.09 143.9 717.1 143.89 717.11 143.88 717.12 143.87 717.13 143.86 717.14 143.85 717.15 143.84 717.16 143.83 717.17 143.82 717.18 143.82 717.19 143.81 717.19 143.8 717.2 143.79 717.21 143.78 717.22 143.77 717.22 143.76 717.23 143.75 717.24 143.74 717.25 143.72 717.26 143.71 717.26 143.7 717.27 143.69 717.28 143.68 717.28 143.67 717.29 143.65 717.29 143.64 717.3 143.63 717.3 143.61 717.3 143.6 717.3 143.59 717.3 143.58 717.3 143.57 717.3 143.55 717.3 143.54 717.3 143.53 717.3 143.51 717.42 143.43 717.44 143.39 717.65 143.38 717.8 143.17 717.82 143.15 717.83 143.12 717.84 143.09 717.86 143.03 717.83 142.14 717.86 141.35 717.9 140.55 718.22 140.16 718.22 140.15 718.23 140.13 718.26 140.06 718.31 139.99 718.36 139.9 718.37 139.89 718.51 139.68 718.6 139.56 718.65 139.49 718.66 139.48 718.67 139.5 719.34 138.98 720.01 138.46 720.59 137.77 721.53 137.79 721.65 137.52 721.7 137.52 721.75 137.52 721.79 137.52 721.84 137.53 721.91 137.54 721.94 137.54 721.98 137.54 722.04 137.55 722.07 137.55 722.11 137.56 722.16 137.56 722.25 137.56 722.28 137.54 722.31 137.51 722.33 137.49 722.33 137.46 722.32 137.45 722.29 137.41 722.27 137.39 722.25 137.38 722.21 137.37 722.18 137.35 722.16 137.32 722.13 137.27 722.12 137.24 722.09 137.2 722.06 137.14 722.11 137.04 722.14 137.01 722.16 136.99 722.19 136.96 722.22 136.93 722.23 136.91 722.26 136.9 722.27 136.9 722.29 136.9 722.3 136.91 722.31 136.93 722.3 136.95 722.3 136.97 722.3 137 722.31 137.01 722.32 137.03 722.34 137.04 722.36 137.05 722.37 137.06 722.4 137.07 722.41 137.07 722.43 137.07 722.6 137.06 722.67 137.25 722.5 137.25 722.34 137.57 722.48 137.89 722.18 138.41 722.2 138.41 722.26 138.41 722.31 138.41 722.35 138.4 722.39 138.4 722.43 138.4 722.46 138.4 722.48 138.41 722.53 138.47 722.56 138.53 722.6 138.52 722.63 138.52 722.66 138.52 722.7 138.52 722.73 138.52 722.74 138.52 722.77 138.5 722.78 138.49 722.79 138.49 722.81 138.49 722.82 138.49 722.84 138.49 722.85 138.49 722.87 138.48 722.88 138.48 722.9 138.48 722.91 138.48 722.92 138.48 722.94 138.48 722.95 138.48 722.96 138.47 722.98 138.47 722.99 138.47 723 138.46 723.02 138.46 723.03 138.46 723.05 138.46 723.1 138.26 723.41 137.86 723.57 137.57 723.65 137.19 723.94 137.06 724.21 137.23 724.31 137.29 Z"/>
</g></svg>