<svg xmlns="http://www.w3.org/2000/svg" version="1.2" baseProfile="tiny" stroke-linecap="round" stroke-linejoin="round" viewBox="340.52 204.62 17.23 35.08"><g xmlns="http://www.w3.org/2000/svg" id="Idiazabal">
<path d="M 349.4 204.66 350.21 204.62 350.26 204.63 350.31 204.64 350.36 204.64 350.42 204.65 350.47 204.68 350.49 204.71 350.52 204.77 350.56 204.86 350.58 204.9 350.6 204.92 350.61 204.93 350.65 204.96 350.7 204.97 350.77 204.98 350.79 204.98 350.87 204.99 350.9 204.99 350.95 204.99 351.1 205 351.23 205.01 351.3 205.02 351.36 205.03 351.46 205.04 351.52 205.03 351.64 205.04 351.72 205.03 351.79 205.02 351.89 205 351.93 204.98 352.01 204.99 352.12 205.01 352.26 205 352.4 204.98 352.54 204.91 352.54 204.95 352.55 205.12 352.56 205.27 352.57 205.37 352.58 205.49 352.57 205.56 352.57 205.65 352.57 205.66 352.57 205.69 352.56 205.91 352.56 206.11 352.55 206.22 352.52 206.36 352.51 206.41 352.47 206.51 352.46 206.56 352.46 206.62 352.46 206.68 352.47 206.73 352.46 206.76 352.45 206.83 352.43 206.91 352.4 206.98 352.39 207.01 352.35 207.04 352.34 207.06 352.33 207.07 352.32 207.14 352.3 207.19 352.29 207.23 352.27 207.32 352.26 207.35 352.24 207.39 352.21 207.44 352.17 207.59 352.16 207.64 352.15 207.7 352.13 207.88 352.13 207.91 352.13 207.91 352.12 207.93 352.12 207.94 352.11 207.98 352.1 208.05 352.09 208.11 352.08 208.14 352.07 208.18 352.06 208.22 352.05 208.29 352.04 208.34 352.06 208.34 352.15 208.37 352.35 208.46 352.45 208.52 352.46 208.55 352.5 208.65 352.54 208.71 352.56 208.74 352.63 208.81 352.66 208.85 352.7 208.89 352.73 208.92 352.79 208.98 352.84 209 352.91 209.04 353.17 209.16 353.45 209.86 353.87 211.71 353.9 211.97 353.94 212.99 353.89 213.25 353.81 213.47 353.82 213.7 353.8 213.95 353.81 214.16 353.85 214.52 353.9 214.95 353.97 215.22 354.42 215.96 354.65 216.12 354.82 216.37 355.09 216.52 355.49 216.75 356.38 217.43 356.66 218.14 356.67 218.19 356.69 218.26 356.69 218.37 356.71 218.44 356.72 218.46 356.73 218.47 356.74 218.48 357.63 218.9 357.68 219.79 357.66 219.99 357.67 220.19 357.69 220.33 357.7 220.49 357.74 220.63 357.74 220.7 357.74 220.75 357.65 220.81 357.56 220.86 357.5 220.89 357.46 220.95 357.47 221.14 357.47 221.2 357.43 221.25 357.35 221.3 356.93 221.41 356.82 221.52 356.79 221.58 356.78 221.76 356.75 221.87 356.67 221.95 356.59 222 356.54 222.11 356.45 222.32 356.38 222.45 356.34 222.54 356.26 222.66 356.21 222.71 356.14 222.72 355.91 222.78 355.67 222.85 355.54 222.96 355.26 223.11 355.05 223.2 354.82 223.28 354.76 223.31 354.56 223.45 354.52 223.5 354.53 223.57 354.56 223.75 354.58 223.88 354.61 224.01 354.64 224.14 354.66 224.19 354.71 224.23 354.75 224.3 354.77 224.36 354.81 224.58 354.87 224.67 354.93 224.77 354.94 224.85 354.99 224.97 355 225.15 355.04 225.26 355.09 225.36 355.13 225.45 355.18 225.51 355.28 225.62 355.31 225.67 355.38 225.75 355.45 225.81 355.48 225.85 355.49 225.89 355.48 225.9 355.46 225.92 355.38 225.96 355.27 226 355.17 226.05 355.08 226.14 355.05 226.22 355 226.27 354.94 226.33 354.89 226.36 354.82 226.42 354.81 226.47 354.77 226.52 354.71 226.51 354.62 226.51 354.49 226.51 354.37 226.57 354.3 226.6 354.27 226.62 354.24 226.66 354.2 226.71 354.15 226.71 354.1 226.74 354.04 226.81 353.96 226.9 353.86 226.96 353.69 227.03 353.58 227.1 353.5 227.14 353.4 227.21 353.33 227.26 353.28 227.32 353.26 227.41 353.24 227.52 353.24 227.64 353.27 227.8 353.31 227.97 353.34 228.1 353.4 228.17 353.46 228.39 353.49 228.5 353.52 228.59 353.59 228.89 353.61 229.15 353.53 229.3 353.5 229.36 353.52 229.54 353.52 229.72 353.46 229.88 353.45 229.93 353.33 230.17 353.31 230.24 353.3 230.41 353.27 230.51 353.22 230.64 353.13 230.78 353.11 230.89 353.08 231.06 353.05 231.22 353.04 231.33 353.02 231.43 352.99 231.51 352.96 231.58 352.92 231.64 352.91 231.68 352.92 231.74 352.92 231.79 352.91 231.87 352.89 231.92 352.88 231.98 352.88 232.06 352.91 232.12 352.95 232.17 352.98 232.22 353.04 232.31 353.14 232.44 353.18 232.49 353.31 232.6 353.44 232.72 353.55 232.83 353.73 233 353.79 233.08 353.84 233.23 353.89 233.41 353.91 233.56 353.93 233.63 353.94 233.64 353.94 233.65 353.95 233.66 353.95 233.67 353.96 233.69 353.96 233.7 353.96 233.71 353.97 233.72 353.97 233.73 353.97 233.74 353.98 233.75 353.98 233.77 353.98 233.78 353.98 233.79 353.99 233.8 353.99 233.81 353.99 233.83 353.99 233.84 354 233.85 354 233.86 354 233.87 354 233.88 354 233.89 354 233.91 354 233.92 354 233.93 354.01 233.94 354 233.95 354 233.97 354 233.98 354 233.99 354 234 354 234.01 354 234.02 354 234.03 353.99 234.05 353.99 234.06 353.99 234.07 353.99 234.08 353.98 234.09 353.98 234.09 353.98 234.1 353.98 234.11 353.98 234.12 353.98 234.13 353.98 234.14 353.98 234.15 353.98 234.16 353.98 234.16 353.98 234.17 353.98 234.18 353.99 234.19 353.99 234.2 353.99 234.22 353.99 234.25 353.99 234.28 353.99 234.3 354 234.33 354 234.36 354 234.38 354 234.41 354.01 234.43 354.01 234.46 354.01 234.49 354.02 234.51 354.02 234.53 354.03 234.54 354.03 234.55 354.03 234.56 354.04 234.58 354.04 234.59 354.04 234.6 354.05 234.62 354.05 234.63 354.05 234.64 354.05 234.65 354.05 234.67 354.05 234.68 354.05 234.69 354.05 234.71 354.05 234.72 354.05 234.73 354.05 234.74 354.05 234.75 354.05 234.76 354.05 234.78 354.05 234.78 354.05 234.8 354.05 234.81 354.06 234.82 354.06 234.83 354.07 234.84 354.07 234.85 354.08 234.86 354.09 234.87 354.1 234.87 354.12 234.92 354.17 235.03 354.24 235.16 354.27 235.22 354.34 235.28 354.4 235.4 354.45 235.48 354.52 235.61 354.57 235.68 354.58 235.69 354.59 235.7 354.6 235.71 354.6 235.72 354.61 235.74 354.62 235.75 354.63 235.76 354.63 235.78 354.64 235.79 354.65 235.8 354.65 235.81 354.66 235.83 354.67 235.84 354.67 235.85 354.68 235.87 354.68 235.88 354.69 235.9 354.69 235.91 354.7 235.92 354.7 235.94 354.7 235.95 354.71 235.97 354.71 235.98 354.71 236 354.71 236.01 354.72 236.02 354.72 236.04 354.72 236.05 354.72 236.07 354.72 236.08 354.72 236.09 354.72 236.1 354.72 236.11 354.72 236.12 354.72 236.13 354.72 236.14 354.72 236.15 354.71 236.16 354.71 236.17 354.71 236.18 354.71 236.19 354.7 236.2 354.7 236.21 354.69 236.22 354.69 236.23 354.69 236.24 354.68 236.25 354.68 236.26 354.67 236.27 354.67 236.27 354.66 236.28 354.66 236.31 354.65 236.33 354.64 236.36 354.64 236.38 354.63 236.41 354.63 236.43 354.62 236.46 354.62 236.48 354.61 236.51 354.61 236.53 354.61 236.56 354.6 236.58 354.6 236.61 354.6 236.63 354.59 236.66 354.59 236.68 354.59 236.7 354.58 236.71 354.58 236.72 354.58 236.73 354.57 236.74 354.57 236.75 354.57 236.76 354.57 236.77 354.57 236.78 354.57 236.79 354.56 236.8 354.56 236.81 354.56 236.83 354.56 236.84 354.56 236.85 354.56 236.86 354.56 236.87 354.57 236.88 354.57 236.89 354.57 236.9 354.57 236.91 354.57 236.93 354.58 236.94 354.58 236.94 354.58 236.95 354.58 236.96 354.58 236.97 354.59 236.97 354.59 236.98 354.59 236.99 354.6 237 354.6 237 354.61 237.01 354.61 237.02 354.62 237.03 354.62 237.03 354.63 237.04 354.63 237.04 354.64 237.05 354.65 237.06 354.66 237.07 354.67 237.08 354.68 237.09 354.69 237.09 354.7 237.1 354.7 237.1 354.71 237.11 354.72 237.12 354.73 237.12 354.73 237.13 354.74 237.13 354.75 237.14 354.75 237.15 354.76 237.16 354.77 237.16 354.77 237.17 354.78 237.18 354.78 237.19 354.79 237.19 354.79 237.2 354.8 237.21 354.8 237.22 354.81 237.23 354.82 237.24 354.83 237.25 354.84 237.27 354.85 237.28 354.86 237.3 354.87 237.31 354.88 237.32 354.89 237.34 354.9 237.35 354.91 237.36 354.92 237.37 354.92 237.38 354.93 237.39 354.93 237.39 354.94 237.4 352.87 238.21 352 238.52 350.96 238.99 349.46 239.36 347.89 239.7 346.73 239.69 345.92 239.42 345.44 239.32 343.9 238.75 342.64 239.02 341.79 239.55 341.38 238.78 341 238.44 341.04 237.69 341.14 236.87 341.22 236.07 341.26 235.77 341.45 234.57 341.17 233.71 340.81 232.5 340.56 231.62 340.55 230.97 341.5 229.95 341.5 229.94 341.51 229.93 341.52 229.92 341.54 229.89 341.56 229.85 341.61 229.8 341.66 229.75 341.77 229.69 341.87 229.67 342.01 229.62 342.12 229.59 342.28 229.56 342.33 229.56 342.38 229.54 342.41 229.53 342.46 229.46 342.5 229.32 342.57 229.14 342.62 229 342.64 228.91 342.68 228.84 342.76 228.78 342.79 228.74 342.85 228.68 342.86 228.62 342.89 228.57 342.9 228.51 342.95 228.45 342.99 228.4 343.03 228.36 343.12 228.25 343.1 227.7 343.18 227.13 343.24 226.81 343.35 226.56 343.36 226.56 343.36 226.54 343.36 226.51 343.36 226.47 343.36 226.44 343.36 226.39 343.35 226.36 343.35 226.33 343.35 226.29 343.36 226.23 343.37 226.18 343.37 226.12 343.38 226.07 343.38 226.04 343.39 225.99 343.39 225.97 343.4 225.96 343.55 225.77 343.52 225.25 343.66 224.62 345.78 222.8 345.66 221.79 345.55 220.58 345.55 220.57 345.53 220.55 345.39 220.55 345.32 220.55 345.28 220.54 345.25 220.52 345.24 220.51 345.23 220.5 345.23 220.49 345.23 220.47 345.23 220.46 345.24 220.44 345.25 220.43 345.26 220.41 345.29 220.39 345.32 220.36 345.35 220.33 345.37 220.31 345.39 220.28 345.42 220.25 345.44 220.22 345.49 220.18 345.54 220.15 345.54 220.14 345.55 220.12 345.56 220.1 345.55 220.07 345.54 220.04 345.53 220.04 345.5 220.02 345.43 219.98 345.3 219.86 345.29 219.85 345.27 219.85 345.24 219.84 345.22 219.81 345.2 219.79 345.19 219.76 345.18 219.74 345.16 219.72 345.15 219.7 345.13 219.68 345.12 219.66 345.1 219.63 345.08 219.59 345.07 219.54 345.06 219.49 345.05 219.39 345.03 219.3 345.02 219.31 345 219.32 344.98 219.33 344.95 219.34 344.94 219.32 344.94 219.27 344.94 219.22 344.94 219.16 344.93 219.12 344.92 219.08 344.91 219.05 344.9 219.02 344.88 218.97 344.86 218.91 344.86 218.9 344.84 218.87 344.81 218.84 344.8 218.81 344.79 218.79 344.79 218.72 344.8 218.68 344.81 218.66 344.82 218.62 344.83 218.59 344.84 218.56 344.85 218.51 344.87 218.49 344.88 218.44 344.89 218.41 344.91 218.36 344.94 218.31 344.96 218.26 344.97 218.22 344.98 218.15 344.98 218.09 344.98 218.03 344.98 217.94 344.98 217.89 344.98 217.85 344.98 217.81 344.98 217.79 344.98 217.77 345 217.75 345.01 217.72 345.04 217.67 345.06 217.64 345.09 217.6 345.1 217.58 345.1 217.56 345.1 217.55 345.09 217.52 345.09 217.48 345.08 217.45 345.08 217.43 345.09 217.41 345.11 217.37 345.13 217.32 345.15 217.27 345.17 217.21 345.19 217.15 345.2 217.12 345.22 217.04 345.23 217 345.23 216.94 345.24 216.91 345.25 216.85 345.27 216.8 345.29 216.73 345.3 216.68 345.33 216.6 345.36 216.5 345.38 216.46 345.39 216.41 345.42 216.36 345.44 216.29 345.47 216.22 345.51 216.14 345.53 216.1 345.55 216.07 345.56 216.04 345.57 216.01 345.58 215.98 345.57 215.95 345.57 215.91 345.57 215.86 345.56 215.82 345.56 215.8 345.55 215.74 345.55 215.68 345.54 215.64 345.54 215.59 345.54 215.55 345.54 215.5 345.52 215.44 345.51 215.37 345.49 215.32 345.49 215.26 345.49 215.22 345.49 215.15 345.49 215.06 345.49 215.02 345.48 214.96 345.47 214.91 345.47 214.88 345.45 214.81 345.43 214.76 345.42 214.73 345.42 214.68 345.43 214.62 345.43 214.56 345.43 214.51 345.42 214.47 345.42 214.43 345.41 214.39 345.4 214.35 345.39 214.31 345.39 214.27 345.39 214.24 345.41 214.21 345.43 214.19 345.46 214.17 345.47 214.16 345.49 214.15 345.5 214.14 345.5 214.13 345.49 214.13 345.48 214.14 345.46 214.11 345.42 214.08 345.39 214.06 345.34 214.04 345.29 214 345.27 213.97 345.26 213.93 345.25 213.87 345.25 213.82 345.24 213.73 345.24 213.66 345.23 213.62 345.23 213.61 345.22 213.57 345.2 213.54 345.18 213.5 345.16 213.48 345.15 213.48 345.14 213.47 345.13 213.47 345.11 213.47 345.09 213.47 345.06 213.47 345.03 213.48 344.99 213.49 344.96 213.5 344.94 213.5 344.93 213.48 344.93 213.47 344.93 213.36 344.92 213.22 344.91 213.07 344.91 212.98 344.89 212.94 344.89 212.92 344.89 212.9 344.87 212.88 344.84 212.86 344.79 212.83 344.67 212.77 344.59 212.73 344.53 212.7 344.5 212.67 344.43 212.61 344.39 212.57 344.36 212.52 344.33 212.48 344.28 212.42 344.23 212.38 344.2 212.35 344.19 212.27 344.19 212.24 344.17 212.21 344.17 212.2 344.25 211.72 344.27 211.71 344.27 211.69 344.28 211.66 344.27 211.63 344.27 211.58 344.27 211.53 344.28 211.48 344.29 211.44 344.33 211.4 344.37 211.34 344.4 211.31 344.42 211.26 344.45 211.21 344.47 211.14 344.49 211.08 344.51 211.02 344.52 210.97 344.54 210.92 344.56 210.87 344.57 210.82 344.58 210.77 344.59 210.74 344.59 210.71 344.59 210.66 344.59 210.62 344.58 210.56 344.58 210.52 344.58 210.49 344.59 210.45 344.58 210.43 344.57 210.41 344.57 210.38 344.58 210.35 344.59 210.32 344.59 210.31 344.55 208.76 344.56 208.58 344.58 208.46 344.62 208.27 344.63 208.18 344.65 208.09 344.78 207.69 345.04 207.22 345.05 207.19 345.09 207.14 345.1 207.12 345.11 207.04 345.11 206.99 345.11 206.94 345.1 206.91 345.1 206.82 345.09 206.76 345.1 206.67 345.13 206.6 345.19 206.52 345.24 206.43 345.28 206.37 345.32 206.31 345.36 206.25 345.38 206.19 345.39 206.09 345.38 206.03 346 205.88 346.54 205.76 346.85 206.09 347.06 205.71 347.56 205.67 348.03 205.05 348.79 204.69 349.4 204.66 Z"/>
</g></svg>