<svg xmlns="http://www.w3.org/2000/svg" version="1.2" baseProfile="tiny" stroke-linecap="round" stroke-linejoin="round" viewBox="491.27 123.18 23.55 18.67"><g xmlns="http://www.w3.org/2000/svg" id="Igantzi">
<path d="M 507.67 123.22 507.67 123.24 507.67 123.25 507.67 123.3 507.67 123.36 507.67 123.39 507.67 123.42 507.65 123.47 507.63 123.52 507.62 123.57 507.61 123.59 507.6 123.61 507.58 123.63 507.55 123.68 507.52 123.73 507.49 123.78 507.45 123.84 507.44 123.87 507.42 123.89 507.39 123.94 507.37 123.96 507.32 124.01 507.24 124.11 507.17 124.2 507.14 124.24 507.1 124.29 507.07 124.33 507.03 124.37 506.99 124.42 506.97 124.44 506.95 124.46 506.91 124.5 506.9 124.53 506.92 124.54 506.94 124.56 506.95 124.57 506.96 124.58 506.97 124.59 507.01 124.62 507.05 124.66 507.1 124.7 507.16 124.75 507.18 124.77 507.19 124.79 507.21 124.8 507.27 124.85 507.33 124.91 507.39 124.96 507.44 125.01 507.5 125.07 507.54 125.1 507.57 125.12 507.58 125.12 507.6 125.14 507.62 125.16 507.67 125.19 507.71 125.22 507.75 125.25 507.8 125.28 507.86 125.32 507.89 125.34 507.91 125.37 507.93 125.41 507.95 125.45 507.98 125.5 508.02 125.57 508.05 125.62 508.07 125.65 508.08 125.67 508.11 125.69 508.17 125.76 508.21 125.81 508.26 125.86 508.3 125.91 508.35 125.96 508.43 126.05 508.44 126.07 508.45 126.07 508.48 126.09 508.52 126.12 508.58 126.15 508.63 126.19 508.7 126.23 508.77 126.27 508.87 126.33 508.9 126.36 508.92 126.37 508.93 126.38 508.94 126.39 508.95 126.41 508.95 126.44 508.93 126.49 508.91 126.55 508.88 126.64 508.87 126.69 508.84 126.76 508.82 126.81 508.81 126.85 508.8 126.9 508.78 126.97 508.77 127.04 508.76 127.1 508.75 127.16 508.73 127.24 508.73 127.28 508.72 127.31 508.71 127.35 508.7 127.38 508.69 127.42 508.67 127.46 508.66 127.52 508.65 127.57 508.64 127.63 508.64 127.68 508.63 127.7 508.63 127.74 508.63 127.79 508.63 127.82 508.64 127.86 508.65 127.9 508.66 127.94 508.67 127.98 508.68 128.02 508.7 128.05 508.72 128.09 508.73 128.12 508.76 128.16 508.78 128.21 508.81 128.25 508.83 128.29 508.84 128.3 508.88 128.35 508.91 128.39 508.92 128.4 508.97 128.47 509.01 128.51 509.05 128.55 509.08 128.59 509.11 128.62 509.15 128.65 509.18 128.67 509.21 128.7 509.23 128.72 509.24 128.73 509.24 128.75 509.24 128.76 509.23 128.78 509.23 128.82 509.24 128.87 509.24 128.91 509.24 128.96 509.25 128.99 509.25 129.04 509.25 129.1 509.25 129.14 509.26 129.19 509.27 129.23 509.28 129.25 509.29 129.27 509.29 129.31 509.3 129.36 509.3 129.39 509.31 129.41 509.33 129.44 509.34 129.47 509.35 129.49 509.35 129.53 509.35 129.57 509.36 129.59 509.37 129.63 509.38 129.66 509.39 129.7 509.41 129.75 509.42 129.8 509.43 129.83 509.43 129.85 509.43 129.85 509.42 129.9 509.42 129.96 509.41 130.01 509.4 130.07 509.4 130.14 509.39 130.19 509.39 130.22 509.4 130.23 509.43 130.25 509.48 130.27 509.52 130.3 509.59 130.34 509.63 130.36 509.67 130.39 509.73 130.42 509.76 130.44 509.81 130.47 509.84 130.49 509.87 130.51 509.9 130.53 509.91 130.55 509.92 130.55 509.94 130.56 509.99 130.6 510.03 130.63 510.08 130.67 510.13 130.7 510.14 130.71 510.18 130.74 510.26 130.8 510.31 130.83 510.35 130.86 510.4 130.9 510.44 130.93 510.52 130.99 510.57 131.02 510.61 131.04 510.65 131.07 510.7 131.1 510.74 131.12 510.8 131.16 510.84 131.19 510.89 131.22 510.95 131.25 510.99 131.28 511.05 131.32 511.1 131.35 511.12 131.36 511.14 131.38 511.18 131.41 511.22 131.45 511.27 131.49 511.31 131.52 511.38 131.58 511.43 131.62 511.48 131.66 511.52 131.7 511.56 131.73 511.6 131.77 511.62 131.79 511.64 131.8 511.68 131.82 511.72 131.84 511.77 131.87 511.87 131.93 511.95 131.97 512.03 132.02 512.04 132.02 512.05 132.03 512.09 132.04 512.13 132.07 512.21 132.12 512.3 132.17 512.36 132.2 512.41 132.23 512.46 132.26 512.51 132.29 512.55 132.3 512.57 132.31 512.63 132.32 512.67 132.33 512.74 132.35 512.85 132.38 512.92 132.4 513.01 132.43 513.04 132.44 513.15 132.47 513.27 132.5 513.38 132.53 513.43 132.54 513.45 132.55 513.56 132.6 513.66 132.64 513.77 132.69 513.9 132.75 514.01 132.8 514.13 132.85 514.22 132.89 514.31 132.93 514.39 132.97 514.43 132.98 514.48 133.02 514.54 133.07 514.59 133.11 514.67 133.16 514.71 133.2 514.75 133.24 514.79 133.27 514.81 133.29 514.8 133.31 514.78 133.33 514.75 133.37 514.71 133.41 514.66 133.47 514.61 133.52 514.53 133.59 514.44 133.67 514.36 133.74 514.32 133.77 514.25 133.82 514.23 133.84 514.21 133.86 514.19 133.87 514.09 133.95 514.02 134.02 513.93 134.09 513.91 134.12 513.89 134.13 513.85 134.14 513.74 134.17 513.6 134.21 513.42 134.26 513.25 134.32 513.14 134.35 513.08 134.37 513.02 134.39 512.98 134.41 512.95 134.42 512.91 134.45 512.89 134.46 512.88 134.47 512.86 134.5 512.83 134.53 512.79 134.57 512.75 134.62 512.72 134.64 512.7 134.66 512.67 134.69 512.66 134.7 512.63 134.74 512.61 134.76 512.59 134.79 512.57 134.81 512.56 134.84 512.55 134.86 512.54 134.9 512.53 134.93 512.52 134.98 512.5 135.05 512.49 135.09 512.48 135.12 512.46 135.14 512.45 135.16 512.43 135.18 512.41 135.2 512.39 135.22 512.37 135.23 512.36 135.24 512.33 135.24 512.3 135.24 512.28 135.24 512.26 135.23 512.24 135.21 512.22 135.19 512.18 135.15 512.15 135.12 512.11 135.09 512.09 135.08 512.07 135.05 512.04 135.04 512.03 135.02 512 135.01 511.98 135 511.96 135 511.93 135 511.9 135 511.88 135 511.84 135 511.8 135.01 511.75 135.02 511.71 135.02 511.68 135.02 511.64 135.02 511.58 135.02 511.52 135.02 511.49 135.03 511.44 135.05 511.39 135.06 511.34 135.07 511.29 135.07 511.24 135.07 511.19 135.07 511.16 135.08 511.14 135.09 511.12 135.1 511.11 135.12 511.08 135.15 511.06 135.19 511.04 135.22 511 135.28 510.96 135.31 510.93 135.33 510.9 135.36 510.88 135.38 510.86 135.39 510.87 135.4 510.89 135.44 510.91 135.47 510.93 135.52 510.94 135.55 510.96 135.59 510.97 135.61 510.98 135.64 510.99 135.68 511.01 135.75 511.03 135.82 511.05 135.91 511.06 135.96 511.09 136.05 511.1 136.09 511.08 136.08 511.05 136.08 511.03 136.08 510.97 136.08 510.94 136.08 510.89 136.08 510.85 136.07 510.78 136.07 510.68 136.07 510.61 136.07 510.48 136.06 510.38 136.06 510.26 136.05 510.15 136.04 510.06 136.04 509.94 136.03 509.83 136.03 509.78 136.02 509.72 136.02 509.62 136.03 509.58 136.03 509.57 136.03 509.32 136.04 509.07 136.02 509.01 136.02 508.96 136.02 508.88 136.04 508.67 136.1 508.49 136.15 508.27 136.19 508.09 136.2 507.98 136.22 507.87 136.25 507.72 136.29 507.66 136.31 507.63 136.31 507.59 136.32 507.47 136.35 507.36 136.38 507.29 136.39 507.23 136.39 507.21 136.39 507.03 136.39 506.92 136.38 506.79 136.34 506.67 136.31 506.56 136.29 506.45 136.3 506.36 136.3 506.26 136.29 506.15 136.29 506.03 136.29 505.98 136.34 505.94 136.38 505.77 136.49 505.66 136.55 505.54 136.58 505.43 136.6 505.3 136.59 505.21 136.6 505.15 136.62 505.01 136.67 504.91 136.69 504.88 136.7 504.69 136.73 504.61 136.74 504.6 136.75 504.45 136.93 504.42 136.99 504.37 137.09 504.16 137.85 504.09 138.13 504.03 138.39 503.98 138.55 503.94 138.7 503.94 138.77 503.94 138.89 503.97 139.05 503.92 139.17 503.76 139.39 503.61 139.62 503.59 139.64 503.54 139.67 503.34 139.82 502.93 140.18 502.68 140.85 501.76 141.77 501.75 141.78 501.69 141.84 501.58 141.73 501.55 141.71 501.44 141.6 501.43 141.59 501.3 141.47 501.29 141.47 501.21 141.39 501.18 141.36 501.17 141.34 501.09 141.27 501.06 141.25 500.85 141.05 500.83 141.03 500.74 140.95 500.58 140.81 500.56 140.79 500.49 140.72 500.46 140.69 500.46 140.67 500.42 140.6 500.39 140.55 500.3 140.38 500.27 140.31 500.2 140.17 500.18 140.09 500.14 139.88 500.12 139.82 500.09 139.78 500.08 139.77 499.99 139.66 499.93 139.58 499.89 139.54 499.67 139.28 499.59 139.2 499.58 139.19 499.54 139.12 499.49 138.98 499.45 138.88 499.41 138.77 499.4 138.74 499.39 138.71 499.36 138.67 499.34 138.62 499.29 138.52 499.24 138.38 499.22 138.31 499.21 138.26 499.19 138.2 499.17 138.13 499.13 138.06 499.12 138.04 499.09 137.96 499.07 137.93 499.05 137.89 499.03 137.85 499.01 137.84 498.99 137.82 498.97 137.8 498.95 137.78 498.95 137.76 498.94 137.73 498.93 137.68 498.91 137.65 498.88 137.62 498.86 137.56 498.85 137.5 498.84 137.43 498.84 137.39 498.83 137.36 498.81 137.27 498.79 137.2 498.78 137.12 498.77 137.03 498.78 136.96 498.79 136.89 498.8 136.87 498.81 136.85 498.83 136.79 498.86 136.75 498.91 136.67 498.95 136.61 498.99 136.54 499.01 136.5 499.01 136.42 499 136.36 498.99 136.32 498.97 136.27 498.94 136.22 498.91 136.2 498.84 136.15 498.78 136.1 498.73 136.04 498.66 135.97 498.61 135.91 498.58 135.86 498.53 135.81 498.49 135.78 498.41 135.72 498.22 135.54 498.19 135.51 498.13 135.46 498.06 135.41 498.01 135.37 497.94 135.33 497.87 135.27 497.84 135.25 497.84 135.25 497.83 135.24 497.81 135.22 497.79 135.21 497.78 135.2 497.77 135.19 497.83 134.96 497.81 134.95 497.72 134.92 497.71 134.92 497.68 134.91 497.56 134.87 497.3 134.79 497.29 134.79 497.05 134.71 496.97 134.68 496.74 134.61 496.54 134.54 496.51 134.53 496.46 134.28 496.45 134.27 496.42 134.15 496.42 134.12 496.35 133.8 496.33 133.75 496.33 133.74 496.3 133.68 496.3 133.66 496.26 133.6 496.23 133.57 496.14 133.43 496.13 133.41 496.09 133.36 496.08 133.34 495.88 133.1 495.77 132.98 495.73 132.96 495.67 132.94 495.47 132.87 495.39 132.84 495.15 132.76 495.02 132.71 494.95 132.7 494.74 132.67 494.49 132.63 494.48 132.61 494.47 132.6 494.36 132.45 494.35 132.43 494.28 132.35 494.21 132.24 494.17 132.18 494.1 132.08 494.07 132.03 493.91 131.78 493.9 131.76 493.76 131.54 493.75 131.53 493.73 131.49 493.61 131.3 493.55 131.2 493.45 131.04 493.36 130.89 493.34 130.86 493.26 130.74 493.23 130.69 493.22 130.67 493.17 130.6 493.05 130.41 492.9 130.18 492.77 130.01 492.74 130.01 492.65 130.02 492.51 130.03 492.49 130.03 492.47 130.03 492.46 130.03 492.45 130.03 492.39 130.04 492.26 130.05 491.99 130.07 491.96 130.06 491.75 130.04 491.32 129.97 491.3 129.89 491.3 129.88 491.31 129.86 491.37 129.8 491.42 129.75 491.74 129.43 491.76 129.41 491.79 129.37 491.82 129.33 491.86 129.3 491.89 129.26 491.93 129.21 491.97 129.15 492 129.11 492.01 129.08 492.03 129.06 492.04 129.03 492.06 128.99 492.11 128.88 492.15 128.82 492.16 128.8 492.24 128.7 492.37 128.54 492.44 128.45 492.47 128.43 492.54 128.33 492.58 128.29 492.59 128.27 492.61 128.25 492.7 128.16 492.8 128.08 492.86 128.01 492.91 127.95 492.99 127.86 493.04 127.81 493.08 127.77 493.13 127.72 493.18 127.65 493.22 127.58 493.28 127.47 493.3 127.44 493.32 127.42 493.34 127.39 493.36 127.36 493.4 127.3 493.42 127.28 493.44 127.25 493.47 127.22 493.51 127.2 493.55 127.17 493.58 127.15 493.6 127.12 493.62 127.1 493.64 127.08 493.66 127.06 493.67 127.03 493.7 127 493.72 126.98 493.75 126.95 493.77 126.93 493.8 126.9 493.82 126.88 493.85 126.86 493.87 126.84 493.89 126.83 493.92 126.82 493.94 126.81 493.97 126.81 494.01 126.8 494.05 126.8 494.11 126.8 494.15 126.81 494.19 126.81 494.22 126.81 494.25 126.8 494.27 126.8 494.31 126.78 494.34 126.77 494.37 126.75 494.4 126.73 494.43 126.71 494.45 126.68 494.48 126.65 494.5 126.63 494.5 126.61 494.51 126.58 494.51 126.56 494.5 126.53 494.5 126.51 494.5 126.49 494.52 126.46 494.55 126.43 494.59 126.4 494.62 126.37 494.65 126.35 494.68 126.35 494.7 126.34 494.72 126.35 494.74 126.35 494.76 126.37 494.77 126.38 494.78 126.4 494.79 126.41 494.8 126.42 494.82 126.42 494.83 126.42 494.85 126.43 494.87 126.42 494.89 126.42 494.92 126.4 494.96 126.37 495 126.33 495.03 126.3 495.05 126.27 495.06 126.25 495.07 126.22 495.09 126.19 495.1 126.14 495.11 126.11 495.12 126.08 495.14 126.04 495.15 126.02 495.16 126.01 495.18 125.99 495.19 125.97 495.22 125.96 495.27 125.94 495.31 125.92 495.34 125.91 495.37 125.9 495.38 125.89 495.4 125.87 495.41 125.86 495.43 125.84 495.45 125.82 495.46 125.81 495.48 125.8 495.5 125.79 495.52 125.78 495.54 125.78 495.57 125.78 495.59 125.79 495.63 125.8 495.69 125.82 495.7 125.85 495.71 125.87 495.73 125.89 495.75 125.9 495.77 125.92 495.79 125.93 495.8 125.94 495.82 125.97 495.85 125.99 495.86 126 495.87 126 495.89 126.01 495.91 126.01 495.94 126.01 495.98 126 496 125.99 496.04 125.98 496.08 125.96 496.1 125.95 496.12 125.94 496.14 125.93 496.16 125.93 496.18 125.93 496.22 125.94 496.25 125.94 496.29 125.95 496.33 125.95 496.35 125.95 496.38 125.94 496.4 125.94 496.42 125.94 496.44 125.94 496.46 125.94 496.49 125.95 496.53 125.96 496.57 125.97 496.59 125.98 496.6 125.99 496.62 126.02 496.64 126.04 496.65 126.05 496.67 126.06 496.68 126.07 496.7 126.07 496.74 126.06 496.77 126.05 496.79 126.04 496.82 126.04 496.85 126.04 496.88 126.05 496.91 126.06 496.93 126.08 496.96 126.1 496.98 126.13 496.99 126.15 497 126.16 497.02 126.17 497.04 126.18 497.06 126.19 497.09 126.2 497.12 126.21 497.16 126.22 497.19 126.23 497.21 126.23 497.23 126.23 497.25 126.22 497.29 126.21 497.32 126.2 497.34 126.18 497.37 126.15 497.4 126.14 497.42 126.13 497.44 126.13 497.45 126.12 497.48 126.12 497.51 126.12 497.54 126.11 497.56 126.11 497.59 126.1 497.62 126.08 497.65 126.06 497.67 126.04 497.68 126.03 497.7 126.02 497.72 126.01 497.74 125.99 497.76 125.97 497.78 125.95 497.8 125.93 497.81 125.91 497.82 125.88 497.82 125.86 497.82 125.84 497.82 125.81 497.8 125.78 497.78 125.76 497.75 125.71 497.73 125.67 497.72 125.65 497.71 125.63 497.69 125.61 497.67 125.59 497.67 125.57 497.67 125.55 497.67 125.53 497.68 125.49 497.69 125.42 497.7 125.38 497.71 125.36 497.72 125.35 497.73 125.33 497.75 125.32 497.78 125.28 497.8 125.25 497.82 125.22 497.84 125.19 497.86 125.16 497.89 125.12 497.92 125.08 497.95 125.05 497.98 125.02 498.01 124.97 498.04 124.93 498.05 124.91 498.07 124.89 498.09 124.87 498.11 124.86 498.12 124.85 498.13 124.85 498.14 124.85 498.17 124.85 498.2 124.86 498.23 124.87 498.25 124.87 498.27 124.88 498.28 124.87 498.31 124.87 498.32 124.86 498.33 124.86 498.34 124.85 498.35 124.84 498.36 124.82 498.38 124.77 498.39 124.74 498.4 124.72 498.42 124.69 498.42 124.67 498.42 124.65 498.42 124.63 498.41 124.62 498.41 124.6 498.41 124.57 498.4 124.56 498.4 124.53 498.41 124.51 498.42 124.49 498.42 124.47 498.42 124.44 498.41 124.4 498.4 124.37 498.4 124.34 498.4 124.31 498.41 124.29 498.43 124.26 498.45 124.22 498.47 124.18 498.48 124.15 498.49 124.11 498.5 124.1 498.52 124.08 498.53 124.07 498.54 124.05 498.56 124.04 498.58 124.04 498.61 124.04 498.64 124.04 498.67 124.03 498.7 124.03 498.72 124.01 498.74 124 498.76 123.99 498.78 123.98 498.79 123.98 498.81 123.97 498.83 123.97 498.86 123.97 498.9 123.96 498.95 123.95 498.98 123.94 498.98 123.96 498.98 123.98 498.97 124 498.96 124.04 498.95 124.07 498.93 124.11 498.91 124.15 498.91 124.17 498.91 124.19 498.91 124.21 498.93 124.24 498.96 124.32 498.98 124.4 498.99 124.43 498.99 124.47 498.98 124.51 498.98 124.56 498.98 124.58 498.99 124.59 499 124.62 499.02 124.65 499.04 124.69 499.05 124.73 499.06 124.77 499.07 124.81 499.08 124.84 499.08 124.87 499.09 124.89 499.1 124.92 499.11 124.92 499.15 124.93 499.16 124.93 499.22 124.94 499.23 124.94 499.28 124.95 499.3 124.95 499.36 124.96 499.4 124.97 499.44 124.98 499.46 124.98 499.47 124.98 499.48 124.99 499.6 125 499.83 125.02 499.84 125.02 499.85 125.03 500.05 125.04 500.06 125.04 500.12 125.05 500.14 125.05 500.15 125.05 500.26 125.06 500.49 124.97 500.86 124.84 501.01 124.78 501.23 124.7 501.46 124.61 501.48 124.6 501.76 124.49 501.76 124.49 501.84 124.45 501.93 124.4 501.94 124.39 501.99 124.37 502.2 124.26 502.21 124.25 502.24 124.24 502.28 124.21 502.3 124.2 502.61 124.07 502.65 124.05 502.71 124.03 502.73 124.02 502.75 124.01 502.84 124.03 503.24 124.12 503.26 124.13 503.55 124.19 503.59 124.2 503.63 124.2 503.64 124.21 503.66 124.21 503.68 124.21 503.69 124.22 503.75 124.22 503.8 124.23 503.86 124.24 503.93 124.25 503.98 124.26 504.05 124.27 504.1 124.28 504.14 124.28 504.17 124.28 504.21 124.29 504.28 124.28 504.34 124.28 504.39 124.28 504.4 124.28 504.43 124.28 504.47 124.26 504.49 124.25 504.51 124.24 504.54 124.23 504.61 124.21 504.65 124.19 504.69 124.17 504.74 124.15 504.8 124.13 504.81 124.12 504.86 124.1 504.93 124.07 504.98 124.04 504.99 124.03 505.05 124 505.1 123.97 505.15 123.95 505.19 123.92 505.22 123.9 505.25 123.9 505.27 123.91 505.29 123.91 505.35 123.92 505.4 123.94 505.44 123.95 505.5 123.96 505.58 123.97 505.65 123.98 505.68 123.99 505.72 123.99 505.78 123.99 505.85 123.99 505.93 124 505.96 124 505.99 124 506.03 123.99 506.04 123.98 506.06 123.98 506.08 123.98 506.11 123.97 506.13 123.96 506.14 123.95 506.17 123.95 506.24 123.93 506.31 123.91 506.4 123.89 506.45 123.88 506.51 123.86 506.58 123.84 506.68 123.81 506.74 123.8 506.79 123.78 506.81 123.77 506.83 123.76 506.86 123.75 506.9 123.72 506.95 123.7 506.98 123.68 507.02 123.66 507.05 123.64 507.09 123.61 507.13 123.57 507.16 123.55 507.18 123.53 507.23 123.49 507.24 123.49 507.28 123.45 507.32 123.42 507.38 123.37 507.42 123.34 507.45 123.31 507.49 123.28 507.53 123.24 507.56 123.21 507.58 123.21 507.61 123.22 507.64 123.22 507.67 123.22 Z"/>
</g></svg>