<svg xmlns="http://www.w3.org/2000/svg" version="1.2" baseProfile="tiny" stroke-linecap="round" stroke-linejoin="round" viewBox="180.55 144.68 23.92 14.87"><g xmlns="http://www.w3.org/2000/svg" id="Igorre">
<path d="M 186.43 144.7 186.67 144.81 186.96 144.98 187.23 145.13 187.32 145.2 187.42 145.32 187.5 145.56 187.62 145.69 187.78 145.77 188.27 145.9 188.39 145.85 189.02 146.23 189.61 146.45 189.92 146.56 190.43 146.72 190.57 146.44 190.61 146.31 190.59 146.17 190.57 146.11 190.59 146.1 190.66 146.07 190.71 146.07 190.73 146.07 190.77 146.11 190.93 146.2 191.01 146.24 191.07 146.27 191.11 146.28 191.16 146.26 191.18 146.25 191.27 146.24 191.34 146.21 191.37 146.2 191.42 146.2 191.52 146.21 191.63 146.22 191.7 146.22 191.76 146.21 191.82 146.19 191.87 146.19 191.94 146.2 192 146.21 192.05 146.22 192.1 146.23 192.16 146.25 192.22 146.26 192.29 146.27 192.35 146.28 192.43 146.29 192.48 146.3 192.53 146.31 192.56 146.32 192.61 146.35 192.66 146.38 192.71 146.42 192.75 146.44 192.8 146.47 192.85 146.51 192.89 146.54 192.93 146.56 192.99 146.58 193.05 146.59 193.1 146.58 193.16 146.58 193.22 146.57 193.28 146.57 193.3 146.55 193.33 146.54 193.36 146.51 193.39 146.48 193.42 146.44 193.46 146.39 193.43 146.35 193.41 146.3 193.39 146.26 193.37 146.22 193.36 146.19 193.37 146.16 193.39 146.12 193.42 146.08 193.44 146.05 193.48 146.04 193.51 146.02 193.51 145.99 193.5 145.95 193.48 145.89 193.48 145.87 193.49 145.85 193.53 145.82 193.58 145.77 193.75 145.89 193.79 145.98 193.81 146.04 193.83 146.1 193.84 146.16 193.85 146.22 193.85 146.28 193.84 146.33 193.84 146.36 193.83 146.4 194.02 146.37 194.27 146.27 194.73 146.2 195.39 146.1 196.02 146.02 196.31 145.93 197.05 145.72 197.17 145.68 197.42 145.75 197.8 145.89 198.25 146.16 198.32 146.24 198.48 146.34 198.61 146.4 198.75 146.42 198.85 146.49 198.93 146.58 199.05 146.74 199.27 146.98 199.29 147 199.41 147.09 199.99 146.92 200.54 146.8 201.19 146.41 201.27 146.36 201.39 146.17 201.76 145.97 201.93 146.33 202.26 146.41 202.86 146.55 203.09 146.84 203.43 147.38 203.49 147.54 203.95 147.45 204.11 147.47 204.24 147.92 204.46 148.54 203.92 148.19 202.38 147.58 202.33 147.61 201.76 147.38 201.03 147.99 201.18 148.54 201.13 149.66 201.12 150.57 201.17 151.89 201.15 152.98 200.94 153.51 200.86 153.98 200.82 154.26 200.77 154.54 200.67 154.74 200.46 154.94 199.73 155.91 199.49 156.59 199.42 157.24 199.19 158.41 198.56 158.66 197.68 159.4 197.35 159.2 197.02 159.22 196.75 159.52 196.46 159.33 196.23 159.18 195.85 159.04 195.35 158.97 194.37 159 193.72 159.22 192.54 159.46 192.4 159.12 191.91 158.7 191.45 158.42 190.73 157.91 190.49 157.78 190.48 157.72 190.45 157.74 190.42 157.74 190.37 157.74 190.35 157.74 190.31 157.74 190.28 157.73 190.25 157.72 190.19 157.71 190.1 157.68 190.06 157.67 190 157.64 189.96 157.63 189.92 157.65 189.88 157.67 189.83 157.71 189.8 157.75 189.75 157.84 189.47 157.91 189.19 157.82 189.08 157.83 188.58 157.85 188.39 157.78 188.29 157.75 188.17 157.76 188.02 157.82 187.97 157.83 187.97 157.84 187.81 157.81 187.74 157.79 187.63 157.79 187.58 157.77 187.47 157.7 187.29 157.63 187.2 157.48 187.15 157.44 186.97 157.22 186.92 157.18 186.88 157.16 186.83 157.14 186.79 157.11 186.62 157.06 186.31 156.86 186.07 156.45 186.02 156.36 185.93 156.34 185.93 156.28 185.91 156.27 185.89 156.22 185.86 156.15 185.83 156.02 185.83 155.81 185.83 155.72 185.22 154.93 184.59 154.1 184.4 153.97 184.24 153.8 184.13 153.67 183.94 153.46 182.93 152.62 182.63 152.31 182.58 152.22 181.7 151.93 181.16 151.77 180.7 151.67 180.57 151.65 180.76 150.97 180.81 150.71 180.76 150.61 180.83 150.45 180.82 150.28 181.09 150.2 181.13 150.15 181.42 150.09 181.73 149.91 181.89 149.79 182.11 149.65 182.41 149.35 182.58 149.28 182.62 148.83 182.85 148.72 183.04 148.62 183.19 148.61 183.26 148.52 183.41 148.26 183.53 148.05 183.75 147.98 183.86 147.96 184.08 147.77 184.1 147.57 184.16 147.33 184.12 147.21 184.34 146.82 184.38 146.51 184.42 146.53 184.73 146.64 185.69 145.46 185.94 145.18 186.43 144.7 Z"/>
</g></svg>