<svg xmlns="http://www.w3.org/2000/svg" version="1.2" baseProfile="tiny" stroke-linecap="round" stroke-linejoin="round" viewBox="379.6 349 22.4 24.4"><g xmlns="http://www.w3.org/2000/svg" id="Iguzkitza">
<path d="M 396.82 351.7 396.96 351.8 397.09 351.89 397.19 351.96 397.27 352.01 397.31 352.04 397.32 352.05 397.34 352.07 397.35 352.08 397.37 352.09 397.4 352.12 397.45 352.16 397.53 352.2 397.61 352.24 397.72 352.29 397.77 352.32 397.79 352.33 397.84 352.37 397.88 352.39 397.91 352.42 397.93 352.43 397.96 352.46 397.96 352.47 397.97 352.47 397.98 352.51 398 352.55 398.01 352.59 398.03 352.64 398.05 352.71 398.07 352.76 398.07 352.79 398.08 352.82 398.08 352.84 398.1 352.89 398.11 352.95 398.12 353.01 398.13 353.07 398.14 353.14 398.15 353.18 398.16 353.21 398.18 353.24 398.18 353.27 398.18 353.32 398.19 353.36 398.19 353.4 398.23 353.49 398.25 353.54 398.26 353.57 398.28 353.62 398.29 353.67 398.3 353.71 398.31 353.76 398.32 353.8 398.34 353.85 398.35 353.88 398.36 353.9 398.37 353.96 398.38 354.01 398.4 354.05 398.42 354.08 398.44 354.13 398.46 354.17 398.5 354.24 398.51 354.26 398.54 354.29 398.57 354.34 398.63 354.45 398.69 354.56 398.71 354.61 398.73 354.66 398.75 354.71 398.76 354.73 398.79 354.82 398.82 354.9 398.84 354.96 398.84 354.99 398.88 355.1 398.88 355.12 398.93 355.25 398.93 355.26 398.98 355.39 398.99 355.42 399.01 355.49 399.03 355.56 399.05 355.61 399.06 355.65 399.07 355.67 399.08 355.68 399.09 355.7 399.11 355.75 399.12 355.78 399.14 355.82 399.15 355.85 399.15 355.87 399.16 355.94 399.18 355.98 399.19 356.02 399.22 356.06 399.24 356.09 399.27 356.12 399.27 356.13 399.3 356.18 399.32 356.2 399.32 356.21 399.33 356.23 399.36 356.25 399.41 356.32 399.42 356.32 399.43 356.34 399.44 356.36 399.47 356.4 399.48 356.42 399.5 356.44 399.51 356.45 399.53 356.48 399.54 356.49 399.55 356.51 399.55 356.52 399.58 356.59 399.63 356.72 399.63 356.73 399.64 356.74 399.65 356.76 399.65 356.78 399.69 356.86 399.7 356.88 399.7 356.89 399.71 356.9 399.71 356.92 399.72 356.94 399.73 356.96 399.74 356.99 399.77 357.09 399.78 357.13 399.79 357.15 399.8 357.17 399.81 357.22 399.81 357.23 399.82 357.26 399.84 357.3 399.85 357.35 399.87 357.39 399.88 357.43 399.89 357.45 399.9 357.48 399.91 357.52 399.93 357.55 399.94 357.6 399.96 357.62 399.96 357.64 399.98 357.68 399.98 357.7 399.99 357.72 400.01 357.77 400.01 357.79 400.02 357.81 400.04 357.85 400.05 357.87 400.05 357.88 400.06 357.89 400.06 357.91 400.08 357.96 400.09 357.99 400.13 358.07 400.16 358.13 400.2 358.24 400.22 358.27 400.26 358.36 400.26 358.38 400.33 358.51 400.33 358.52 400.34 358.54 400.35 358.56 400.35 358.57 400.47 358.87 400.47 358.87 400.5 358.96 400.53 359.03 400.57 359.16 400.58 359.17 400.59 359.23 400.63 359.32 400.63 359.33 400.65 359.37 400.68 359.47 400.71 359.53 400.75 359.61 400.78 359.69 400.79 359.7 400.8 359.76 400.81 359.77 400.81 359.78 400.86 359.95 400.87 359.98 400.91 360.1 400.95 360.21 400.98 360.31 401.01 360.39 401.03 360.48 401.07 360.57 401.09 360.64 401.12 360.69 401.15 360.78 401.19 360.85 401.23 360.92 401.23 360.93 401.24 360.95 401.29 361.03 401.33 361.13 401.4 361.25 401.41 361.26 401.42 361.28 401.49 361.39 401.5 361.41 401.5 361.41 401.52 361.45 401.55 361.49 401.57 361.54 401.59 361.63 401.61 361.68 401.62 361.74 401.63 361.75 401.63 361.76 401.64 361.8 401.65 361.81 401.65 361.82 401.65 361.83 401.67 361.89 401.69 361.95 401.7 362.01 401.72 362.07 401.73 362.1 401.74 362.11 401.75 362.12 401.82 362.23 401.85 362.28 401.87 362.31 401.87 362.34 401.88 362.41 401.91 362.5 401.94 362.61 401.96 362.7 401.98 362.77 401.94 362.75 401.91 362.75 401.89 362.75 401.86 362.75 401.84 362.76 401.79 362.79 401.75 362.81 401.7 362.84 401.64 362.87 401.61 362.88 401.55 362.9 401.49 362.92 401.41 362.93 401.37 362.95 401.33 362.97 401.29 362.99 401.24 363.03 401.17 363.07 401.12 363.11 401.07 363.15 401.02 363.19 400.97 363.23 400.91 363.28 400.84 363.32 400.77 363.38 400.73 363.42 400.7 363.44 400.67 363.45 400.62 363.47 400.61 363.47 400.58 363.48 400.55 363.49 400.53 363.49 400.49 363.51 400.44 363.54 400.39 363.56 400.36 363.58 400.32 363.54 400.27 363.48 400.23 363.42 400.19 363.37 400.14 363.3 400.08 363.24 400.05 363.19 400.02 363.16 399.98 363.11 399.93 363.05 399.88 363 399.85 362.97 399.82 362.95 399.8 362.94 399.78 362.92 399.74 362.89 399.73 362.88 399.72 362.87 399.71 362.86 399.68 362.84 399.62 362.8 399.59 362.77 399.58 362.76 399.56 362.75 399.53 362.72 399.49 362.69 399.46 362.66 399.41 362.61 399.38 362.57 399.35 362.52 399.32 362.46 399.28 362.4 399.26 362.36 399.21 362.25 399.14 362.1 399.08 361.92 399.04 361.73 399.01 361.59 399 361.52 398.98 361.4 398.94 361.26 398.92 361.25 398.9 361.24 398.81 361.24 398.64 361.17 398.63 361.17 398.58 361.15 398.57 361.15 398.55 361.14 398.49 361.12 398.46 361.12 398.44 361.11 398.42 361.1 398.38 361.1 398.36 361.1 398.32 361.1 398.31 361.1 398.23 361.11 397.99 361.15 397.84 361.17 397.79 361.19 397.77 361.2 397.74 361.22 397.68 361.28 397.63 361.31 397.54 361.35 397.43 361.4 397.27 361.45 397.17 361.49 397.11 361.51 397.03 361.54 396.94 361.6 396.77 361.76 396.67 361.85 396.57 361.97 396.49 362.07 396.41 362.17 396.4 362.18 396.32 362.25 396.25 362.34 396.19 362.42 396.13 362.48 396.08 362.54 396.03 362.59 396.02 362.6 395.95 362.66 395.83 362.78 395.74 362.87 395.65 362.93 395.54 363.03 395.42 363.13 395.37 363.17 395.36 363.18 395.34 363.19 395.33 363.2 395.31 363.22 395.25 363.25 395.28 363.32 395.32 363.39 395.34 363.45 395.35 363.49 395.35 363.53 395.35 363.57 395.36 363.61 395.38 363.65 395.39 363.7 395.38 363.74 395.38 363.77 395.37 363.8 395.37 363.89 395.37 363.94 395.25 364.04 395.17 364.1 395.1 364.16 395.08 364.18 395.08 364.21 395.05 364.22 394.97 364.28 394.89 364.32 394.88 364.33 394.85 364.35 394.82 364.38 394.8 364.4 394.77 364.42 394.76 364.43 394.75 364.44 394.69 364.5 394.59 364.57 394.56 364.6 394.42 364.66 394.31 364.71 394.26 364.73 394.24 364.74 394.22 364.77 394.2 364.83 394.17 364.87 394.14 364.93 394.09 364.99 394.08 365.01 394.06 365.03 394.06 365.04 394.04 365.09 394.02 365.15 394 365.2 393.98 365.22 393.94 365.26 393.89 365.29 393.83 365.31 393.79 365.32 393.75 365.35 393.7 365.38 393.64 365.41 393.63 365.42 393.62 365.43 393.61 365.44 393.56 365.48 393.52 365.5 393.47 365.52 393.41 365.53 393.3 365.56 393.17 365.58 393.15 365.58 393.13 365.61 393.12 365.63 393.11 365.65 393.09 365.67 393.09 365.7 393.06 365.78 393.02 365.84 392.97 365.88 392.93 365.91 392.89 365.94 392.85 365.93 392.51 365.8 392.49 365.8 392.46 365.79 392.42 365.78 392.37 365.78 392.35 365.77 392.32 365.77 392.29 365.75 392.23 365.73 392.19 365.72 392.16 365.7 392.12 365.68 392.09 365.65 392.07 365.64 392.03 365.61 391.98 365.56 391.94 365.53 391.89 365.47 391.8 365.38 391.74 365.27 391.7 365.21 391.68 365.18 391.64 365.11 391.56 364.99 391.54 364.95 391.5 364.9 391.47 364.83 391.4 364.7 391.35 364.61 391.34 364.59 391.33 364.57 391.31 364.49 391.3 364.47 391.29 364.44 391.27 364.41 391.22 364.36 391.16 364.3 391.14 364.28 391.11 364.22 391.05 364.21 390.98 364.19 390.97 364.19 390.9 364.17 390.79 364.15 390.7 364.14 390.59 364.13 390.43 364.11 390.34 364.11 390.2 364.1 390.03 364.09 389.91 364.08 389.87 364.07 389.85 364.06 389.74 364.02 389.67 363.97 389.66 363.97 389.65 363.95 389.63 363.94 389.6 363.9 389.58 363.88 389.59 363.86 389.61 363.65 389.63 363.45 389.65 363.37 389.76 363.15 389.87 362.92 389.88 362.86 389.89 362.84 389.89 362.82 389.9 362.8 389.91 362.76 389.93 362.68 389.94 362.52 389.95 362.48 389.95 362.46 389.98 362.2 390 362.03 390 361.96 389.99 361.79 389.99 361.78 389.99 361.77 389.99 361.76 389.97 361.67 389.97 361.65 389.96 361.54 389.94 361.45 389.91 361.32 389.91 361.29 389.89 361.21 389.89 361.19 389.87 361.08 389.86 360.99 389.86 360.97 389.86 360.96 389.85 360.91 389.85 360.88 389.86 360.83 389.87 360.75 389.87 360.73 389.88 360.66 389.89 360.56 389.9 360.44 389.91 360.29 389.91 360.27 389.9 360.21 389.88 360.06 389.85 359.86 389.82 359.64 389.83 359.62 389.84 359.55 389.86 359.42 389.87 359.33 389.84 359.33 389.81 359.31 389.74 359.3 389.68 359.27 389.62 359.28 389.56 359.27 389.51 359.26 389.49 359.25 389.47 359.25 389.28 359.15 389.24 359.13 389.22 359.12 389.16 359.09 389.15 359.09 389.04 359.03 388.98 359.01 388.95 358.94 388.94 358.91 388.93 358.9 388.92 358.88 388.89 358.84 388.86 358.8 388.82 358.75 388.78 358.71 388.75 358.67 388.72 358.62 388.69 358.57 388.67 358.54 388.66 358.54 388.65 358.53 388.63 358.51 388.61 358.5 388.58 358.48 388.55 358.46 388.53 358.44 388.5 358.4 388.5 358.38 388.46 358.34 388.46 358.33 388.42 358.27 388.38 358.21 388.35 358.15 388.32 358.1 388.27 358.07 388.23 358.04 388.16 358 388.11 357.97 388.07 357.94 388.03 357.92 388 357.89 387.95 357.85 387.9 357.83 387.85 357.8 387.8 357.78 387.73 357.74 387.66 357.71 387.6 357.68 387.54 357.66 387.48 357.63 387.42 357.6 387.4 357.59 387.38 357.58 387.36 357.57 387.31 357.56 387.26 357.55 387.22 357.55 387.18 357.53 387.15 357.52 387.07 357.5 387.02 357.49 386.96 357.47 386.89 357.45 386.83 357.43 386.78 357.41 386.77 357.41 386.74 357.4 386.73 357.4 386.7 357.4 386.65 357.39 386.58 357.39 386.51 357.38 386.45 357.37 386.4 357.37 386.33 357.36 386.27 357.36 386.19 357.35 386.12 357.34 386.05 357.33 385.98 357.33 385.9 357.33 385.84 357.33 385.78 357.33 385.76 357.33 385.74 357.32 385.71 357.32 385.7 357.32 385.69 357.32 385.66 357.32 385.59 357.32 385.55 357.32 385.48 357.32 385.4 357.31 385.31 357.31 385.24 357.31 385.12 357.31 385.03 357.32 384.97 357.32 384.93 357.31 384.87 357.3 384.83 357.3 384.79 357.29 384.76 357.28 384.71 357.26 384.67 357.24 384.61 357.22 384.55 357.17 384.46 357.1 384.39 357.05 384.32 357 384.25 356.94 384.09 356.77 384.04 356.73 383.99 356.69 383.96 356.67 383.94 356.65 383.9 356.64 383.86 356.62 383.82 356.6 383.79 356.6 383.76 356.6 383.71 356.61 383.67 356.61 383.6 356.63 383.52 356.64 383.43 356.66 383.33 356.68 383.21 356.7 383.08 356.72 382.94 356.74 382.84 356.76 382.74 356.77 382.65 356.79 382.56 356.8 382.47 356.8 382.36 356.8 382.31 356.81 382.28 356.81 382.26 356.82 382.24 356.83 382.22 356.84 382.2 356.86 382.17 356.88 382.16 356.9 382.14 356.92 382.13 356.95 382.12 356.96 382.12 356.98 382.12 357 382.12 357.02 382.13 357.06 382.13 357.1 382.12 357.1 382.11 357.1 382.09 357.09 382.07 357.08 382.03 357.06 382.01 357.04 381.97 357.01 381.94 356.98 381.93 356.97 381.9 356.94 381.85 356.88 381.81 356.84 381.8 356.82 381.79 356.8 381.78 356.79 381.78 356.77 381.77 356.76 381.75 356.73 381.72 356.71 381.7 356.67 381.67 356.65 381.66 356.64 381.65 356.61 381.64 356.6 381.63 356.58 381.61 356.55 381.59 356.51 381.57 356.47 381.55 356.42 381.54 356.41 381.53 356.4 381.48 356.34 381.42 356.26 381.37 356.21 381.35 356.19 381.33 356.17 381.31 356.17 381.3 356.16 381.27 356.16 381.21 356.16 381.17 356.15 381.16 356.15 381.12 356.15 381.08 356.15 381.05 356.15 381.01 356.15 380.95 356.14 380.87 356.11 380.8 356.09 380.75 356.07 380.7 356.06 380.68 356.06 380.66 356.05 380.64 356.05 380.61 356.03 380.53 355.99 380.48 355.97 380.42 355.93 380.37 355.89 380.32 355.84 380.27 355.8 380.22 355.76 380.19 355.73 380.17 355.71 380.12 355.64 380.07 355.55 380.01 355.48 379.97 355.42 379.9 355.35 379.82 355.25 379.74 355.16 379.69 355.09 379.64 355.02 379.61 354.98 379.64 354.97 379.66 354.96 379.74 354.93 379.79 354.91 379.93 354.85 379.92 354.84 379.91 354.82 379.84 354.62 379.64 354.42 379.71 354.34 379.74 354.3 379.75 354.29 379.75 354.27 379.76 354.26 379.76 354.22 379.76 354.18 379.76 354.15 379.77 354.11 379.79 354.06 379.83 353.98 379.86 353.94 379.88 353.89 379.91 353.84 379.92 353.79 380.32 353.64 380.34 353.64 380.33 353.6 380.31 353.55 380.29 353.5 380.27 353.45 380.24 353.41 380.19 353.36 380.16 353.34 380.15 353.33 380.14 353.31 380.09 353.26 380.06 353.21 380.04 353.17 380.03 353.13 380.02 353.07 380.01 353.03 380 352.98 380.02 352.95 380.02 352.92 380.02 352.89 380.02 352.85 380.02 352.83 380.01 352.82 380 352.76 380 352.73 380.03 352.72 380.06 352.7 380.11 352.68 380.13 352.66 380.14 352.64 380.15 352.61 380.15 352.6 380.15 352.58 380.14 352.56 380.13 352.54 380.12 352.51 380.12 352.49 380.12 352.47 380.12 352.45 380.14 352.43 380.16 352.41 380.18 352.39 380.19 352.38 380.2 352.37 380.21 352.37 380.22 352.37 380.25 352.39 380.27 352.4 380.3 352.43 380.34 352.47 380.37 352.5 380.38 352.48 380.39 352.44 380.39 352.42 380.4 352.4 380.4 352.39 380.43 352.25 380.44 352.23 380.47 352.22 380.48 352.21 380.56 352.17 380.64 352.13 380.72 352.09 380.77 352.06 380.8 352.05 380.87 352.03 380.92 352.01 380.92 352.01 380.96 352 380.98 351.99 381 351.97 381.1 351.9 381.14 351.87 381.27 351.77 381.33 351.71 381.4 351.65 381.43 351.61 381.44 351.6 381.5 351.51 381.64 351.44 381.98 351.27 382.06 351.27 382.07 351.27 382.25 351.26 382.4 351.25 382.51 351.24 382.57 351.24 382.61 351.24 382.65 351.23 382.73 351.22 382.81 351.2 382.86 351.18 382.94 351.15 383.05 351.11 383.13 351.07 383.23 351.03 383.33 350.97 383.44 350.91 383.57 350.84 383.59 350.84 383.61 350.85 383.64 350.87 383.68 350.89 383.75 350.93 383.79 350.95 383.8 350.95 383.82 350.96 383.84 350.97 383.86 350.97 383.9 350.98 383.95 350.99 383.97 351 384.02 350.98 384.08 350.96 384.14 350.94 384.2 350.93 384.27 350.92 384.29 350.92 384.32 350.92 384.38 350.92 384.49 350.92 384.56 350.92 384.72 350.99 384.72 350.97 384.71 350.95 384.69 350.93 384.68 350.91 384.66 350.89 384.65 350.88 384.63 350.87 384.58 350.83 384.53 350.79 384.51 350.77 384.5 350.76 384.48 350.71 384.46 350.65 384.45 350.61 384.5 350.61 384.54 350.6 384.57 350.6 384.58 350.59 384.6 350.59 384.62 350.58 384.65 350.58 384.69 350.58 384.74 350.57 384.77 350.57 384.8 350.57 384.82 350.57 384.88 350.57 384.96 350.56 385.03 350.56 385.07 350.56 385.1 350.56 385.12 350.57 385.14 350.57 385.17 350.58 385.2 350.59 385.22 350.59 385.24 350.6 385.27 350.62 385.28 350.62 385.3 350.64 385.37 350.68 385.41 350.72 385.44 350.75 385.48 350.77 385.51 350.79 385.54 350.81 385.57 350.83 385.6 350.84 385.63 350.85 385.67 350.87 385.68 350.87 385.69 350.88 385.72 350.89 385.76 350.91 385.77 350.91 385.79 350.92 385.81 350.93 385.82 350.94 385.83 350.95 385.83 350.96 385.86 351.01 385.92 351.1 385.93 351.12 385.94 351.13 385.95 351.14 385.97 351.15 386 351.17 386.03 351.18 386.05 351.19 386.08 351.2 386.11 351.21 386.15 351.22 386.22 351.24 386.27 351.27 386.34 351.31 386.4 351.34 386.47 351.38 386.53 351.43 386.59 351.48 386.66 351.54 386.73 351.61 386.77 351.67 386.81 351.71 386.81 351.7 386.81 351.69 386.84 351.61 386.85 351.6 386.96 351.69 387 351.72 387.03 351.74 387.17 351.75 387.24 351.77 387.3 351.79 387.36 351.8 387.41 351.8 387.46 351.81 387.5 351.81 387.51 351.81 387.83 351.69 388 351.68 388.02 351.67 388.15 351.62 388.33 351.54 388.44 351.49 388.53 351.45 388.66 351.39 388.78 351.34 388.82 351.3 388.85 351.29 388.9 351.26 388.97 351.22 389.01 351.2 389.06 351.18 389.07 351.18 389.14 351.14 389.3 351.03 389.34 351.01 389.41 350.98 389.46 350.96 389.5 350.94 389.54 350.92 389.63 350.87 389.67 350.86 389.7 350.84 389.73 350.82 389.78 350.82 389.86 350.8 389.88 350.8 389.94 350.78 389.96 350.78 390.02 350.76 390.09 350.74 390.11 350.73 390.15 350.72 390.19 350.71 390.24 350.71 390.31 350.7 390.35 350.7 390.37 350.7 390.46 350.69 390.56 350.68 390.63 350.68 390.7 350.66 390.75 350.66 390.78 350.66 390.82 350.64 390.91 350.62 390.98 350.6 391.05 350.58 391.13 350.57 391.2 350.55 391.28 350.53 391.35 350.51 391.42 350.49 391.49 350.47 391.56 350.44 391.67 350.41 391.76 350.36 391.77 350.36 391.86 350.33 391.89 350.32 392.08 350.25 392.16 350.21 392.21 350.19 392.24 350.19 392.33 350.15 392.34 350.15 392.47 350.1 392.5 350.08 392.53 350.06 392.55 350.03 392.58 349.98 392.59 349.94 392.6 349.9 392.6 349.87 392.61 349.83 392.64 349.8 392.67 349.78 392.71 349.77 392.75 349.77 392.78 349.77 392.82 349.75 392.85 349.73 392.88 349.7 392.89 349.67 392.89 349.64 392.9 349.61 392.91 349.56 392.94 349.51 392.96 349.45 392.98 349.41 392.99 349.38 392.99 349.35 392.99 349.33 392.99 349.3 393.01 349.26 393.04 349.21 393.06 349.18 393.09 349.16 393.1 349.15 393.13 349.13 393.17 349.1 393.22 349.08 393.26 349.06 393.32 349.05 393.37 349.03 393.44 349.03 393.5 349.03 393.56 349.02 393.73 349.02 393.79 349.02 393.86 349.01 393.96 349.01 394.03 349.01 394.09 349.01 394.15 349.03 394.19 349.04 394.24 349.06 394.28 349.07 394.33 349.07 394.37 349.07 394.4 349.06 394.4 349.07 394.39 349.12 394.39 349.13 394.39 349.14 394.39 349.17 394.38 349.19 394.38 349.2 394.37 349.24 394.36 349.28 394.36 349.32 394.35 349.36 394.34 349.4 394.33 349.41 394.32 349.5 394.31 349.56 394.3 349.64 394.3 349.67 394.29 349.71 394.38 349.77 394.47 349.84 394.55 349.9 394.59 349.93 394.6 349.94 394.6 349.94 394.61 349.95 394.66 350 394.71 350.05 394.77 350.1 394.81 350.15 394.86 350.2 394.89 350.24 394.92 350.28 394.95 350.31 394.99 350.37 395.05 350.43 395.1 350.5 395.17 350.58 395.22 350.63 395.25 350.68 395.3 350.75 395.38 350.86 395.45 350.95 395.54 351.06 395.61 351.13 395.69 351.21 395.74 351.27 395.79 351.32 395.88 351.39 395.93 351.44 396 351.5 396.01 351.5 396.03 351.52 396.13 351.6 396.32 351.62 396.34 351.62 396.37 351.62 396.42 351.63 396.47 351.65 396.52 351.67 396.58 351.69 396.62 351.7 396.67 351.7 396.73 351.7 396.79 351.7 396.82 351.7 Z M 392.39 366.09 392.45 366.14 392.46 366.15 392.53 366.21 392.46 366.22 392.42 366.22 392.37 366.23 392.36 366.23 392.29 366.24 392.12 366.32 392.1 366.34 391.78 366.61 391.77 366.62 391.4 366.93 391.37 366.95 391.33 366.97 391.17 367.05 391.14 367.07 391.12 367.08 390.82 367.23 390.8 367.24 390.74 367.29 390.71 367.31 390.63 367.38 390.47 367.5 390.45 367.53 390.26 367.68 390.12 367.79 390.06 367.81 389.76 367.97 389.58 368.07 389.55 368.09 389.46 368.14 389.4 368.17 389.24 368.27 389.14 368.28 388.98 368.31 388.59 368.56 388.49 368.62 388.44 368.65 388.43 368.67 388.41 368.68 388.4 368.68 388.39 368.69 388.17 368.86 388.16 368.88 387.96 369.15 387.88 369.22 387.88 369.23 387.72 369.37 387.63 369.43 387.51 369.5 387.38 369.57 387.35 369.59 387.24 369.66 386.94 369.83 386.79 369.99 386.42 370.37 386.33 370.44 385.87 370.96 385.85 370.98 385.75 371.08 385.71 371.12 385.66 371.17 385.64 371.18 385.61 371.21 385.58 371.24 385.55 371.25 385.51 371.29 385.45 371.34 385.43 371.35 385.38 371.4 385.34 371.44 385.33 371.45 385.29 371.49 385.27 371.5 385.25 371.52 385.25 371.52 385.17 371.6 385.16 371.61 385.14 371.63 385.07 371.69 384.99 371.78 384.92 371.85 384.89 371.88 384.87 371.89 384.84 371.91 384.77 371.95 384.7 371.99 384.63 372.03 384.61 372.04 384.59 372.05 384.52 372.05 384.48 372.06 384.47 372.06 384.45 372.08 384.41 372.1 384.39 372.14 384.37 372.16 384.35 372.17 384.32 372.18 384.26 372.19 384.17 372.2 384.1 372.22 384.07 372.23 384.06 372.24 384.02 372.26 383.98 372.31 383.94 372.34 383.88 372.37 383.8 372.39 383.7 372.4 383.65 372.41 383.5 372.43 383.4 372.49 383.38 372.5 383.1 372.64 383.05 372.66 382.73 372.75 382.42 372.84 382.33 372.84 382.25 372.85 382.15 372.86 382.04 372.86 381.97 372.87 381.96 372.88 381.93 372.91 381.89 372.95 381.84 373 381.8 373.03 381.77 373.07 381.72 373.11 381.69 373.13 381.66 373.16 381.63 373.18 381.58 373.23 381.52 373.28 381.49 373.29 381.48 373.29 381.4 373.31 381.36 373.32 381.31 373.33 381.21 373.35 381.13 373.36 381.04 373.38 380.94 373.39 380.85 373.4 380.78 373.4 380.64 373.4 380.6 373.4 380.6 373.36 380.62 373.21 380.65 372.94 380.65 372.85 380.65 372.79 380.64 372.72 380.64 372.67 380.58 372.42 380.55 372.29 380.55 372.28 380.53 372.19 380.44 371.97 380.4 371.85 380.39 371.84 380.39 371.83 380.37 371.77 380.28 371.56 380.31 371.48 380.33 371.45 380.36 371.35 380.37 371.34 380.38 371.32 380.43 371.21 380.43 371.19 380.44 371.18 380.52 371 380.52 370.98 380.53 370.97 380.54 370.95 380.55 370.94 380.67 370.78 380.67 370.71 380.67 370.63 380.68 370.42 380.69 370.38 380.69 370.24 380.7 370.22 380.7 370.21 380.7 370.2 380.7 370.11 380.7 370.07 380.7 370.06 380.71 369.85 380.83 369.76 381.09 369.54 381.31 369.36 381.47 369.21 381.64 368.95 381.71 368.85 381.76 368.79 381.82 368.74 381.9 368.69 382.14 368.51 382.42 368.31 382.44 368.29 382.48 368.26 382.68 368.12 382.79 368.04 382.82 368.03 382.85 368.01 383.05 367.9 383.2 367.81 383.21 367.8 383.3 367.75 383.4 367.7 383.42 367.68 383.46 367.66 383.48 367.65 383.51 367.63 383.52 367.62 383.52 367.62 383.53 367.61 383.55 367.6 383.62 367.62 383.64 367.63 383.68 367.63 383.73 367.64 383.8 367.63 383.86 367.63 383.92 367.62 383.96 367.61 384.01 367.61 384.05 367.62 384.14 367.63 384.18 367.64 384.21 367.64 384.24 367.65 384.28 367.66 384.34 367.67 384.36 367.66 384.39 367.66 384.46 367.65 384.51 367.64 384.52 367.64 384.55 367.65 384.58 367.68 384.59 367.71 384.6 367.74 384.61 367.78 384.61 367.82 384.62 367.83 384.62 367.85 384.63 367.86 384.66 367.88 384.68 367.89 384.72 367.9 384.76 367.9 384.8 367.89 384.85 367.86 384.9 367.83 384.95 367.8 384.99 367.77 385.03 367.76 385.1 367.73 385.15 367.7 385.17 367.7 385.18 367.69 385.19 367.68 385.21 367.68 385.23 367.68 385.27 367.67 385.32 367.68 385.34 367.68 385.42 367.69 385.49 367.68 385.53 367.67 385.59 367.66 385.62 367.66 385.66 367.67 385.7 367.68 385.74 367.68 385.76 367.69 385.78 367.66 385.79 367.65 385.81 367.63 385.85 367.6 385.88 367.58 385.92 367.57 385.98 367.55 386.02 367.53 386.07 367.5 386.11 367.48 386.14 367.45 386.16 367.43 386.18 367.41 386.19 367.4 386.21 367.39 386.22 367.37 386.23 367.35 386.24 367.32 386.25 367.28 386.26 367.27 386.29 367.26 386.33 367.24 386.38 367.2 386.42 367.16 386.46 367.12 386.49 367.09 386.5 367.07 386.53 367.06 386.58 367.04 386.64 367.01 386.66 366.99 386.75 366.96 386.83 366.92 386.89 366.9 386.91 366.89 386.95 366.88 387.08 366.84 387.25 366.78 387.32 366.75 387.33 366.74 387.34 366.74 387.38 366.7 387.45 366.66 387.5 366.63 387.54 366.61 387.57 366.6 387.59 366.55 387.62 366.52 387.66 366.48 387.69 366.45 387.73 366.43 387.77 366.4 387.8 366.34 387.82 366.31 387.86 366.28 387.87 366.28 387.92 366.24 387.98 366.18 388.05 366.17 388.12 366.17 388.16 366.17 388.21 366.18 388.27 366.17 388.35 366.15 388.43 366.13 388.49 366.12 388.53 366.12 388.62 366.12 388.64 366.12 388.66 366.12 388.68 366.12 388.73 366.1 388.75 366.09 388.78 366.07 388.83 366.03 388.87 365.99 388.95 365.92 389 365.87 389.06 365.82 389.12 365.75 389.18 365.69 389.25 365.8 389.3 365.9 389.32 365.97 389.35 366.04 389.36 366.08 389.36 366.09 389.35 366.12 389.31 366.24 389.31 366.24 389.3 366.27 389.27 366.33 389.25 366.39 389.26 366.44 389.28 366.47 389.33 366.5 389.45 366.57 389.51 366.48 389.69 366.43 389.72 366.41 389.77 366.37 389.79 366.35 389.81 366.33 389.83 366.32 389.88 366.3 389.94 366.28 390 366.25 390.06 366.22 390.1 366.21 390.14 366.19 390.18 366.18 390.22 366.18 390.3 366.17 390.35 366.16 390.4 366.16 390.44 366.17 390.48 366.18 390.58 366.09 390.62 366.06 390.65 366.1 390.67 366.09 390.69 366.07 390.71 366.06 390.74 366.05 390.76 366.05 390.78 366.07 390.81 366.09 390.84 366.1 390.87 366.09 390.91 366.07 390.95 366.05 390.96 366.05 391.01 366.04 391.06 366.04 391.12 366.03 391.19 366.03 391.2 366.03 391.21 366.04 391.2 366.06 391.16 366.09 391.15 366.12 391.15 366.16 391.19 366.16 391.23 366.17 391.26 366.17 391.28 366.17 391.31 366.16 391.32 366.16 391.33 366.16 391.36 366.15 391.38 366.14 391.43 366.13 391.46 366.11 391.47 366.11 391.55 366.07 391.59 366.05 391.63 366.03 391.69 366.01 391.74 365.99 391.79 365.97 391.81 365.94 391.82 365.91 391.83 365.86 391.85 365.84 391.86 365.84 391.89 365.83 391.92 365.83 391.94 365.82 391.97 365.82 392 365.82 392.03 365.84 392.05 365.86 392.08 365.87 392.1 365.89 392.12 365.9 392.27 366.01 392.37 366.07 392.39 366.09 Z"/>
</g></svg>