<svg xmlns="http://www.w3.org/2000/svg" version="1.2" baseProfile="tiny" stroke-linecap="round" stroke-linejoin="round" viewBox="637.45 98.65 23.05 17.63"><g xmlns="http://www.w3.org/2000/svg" id="Iholdi">
<path d="M 640.11 98.99 640.15 99.12 640.28 99.19 640.49 99.13 640.52 99.07 640.59 98.98 640.64 98.91 640.72 98.79 640.76 98.75 640.8 98.71 640.84 98.69 640.86 98.68 640.87 98.68 640.93 98.71 641 98.73 641.02 98.74 641.06 98.76 641.09 98.77 641.12 98.79 641.16 98.81 641.17 98.82 641.18 98.82 641.19 98.82 641.2 98.81 641.35 99.18 641.47 99.08 641.6 98.86 641.61 98.87 641.69 98.91 641.75 98.95 641.8 99 641.85 99.05 641.91 99.1 641.96 99.13 642.08 99.19 642.2 99.26 642.23 99.28 642.25 99.31 642.27 99.35 642.3 99.43 642.31 99.43 642.68 99.42 643.42 99.61 643.88 99.7 644.06 99.74 644.45 100.56 644.68 100.67 644.71 100.81 644.96 101 644.99 100.98 645.02 100.95 645.05 100.93 645.06 100.9 645.09 100.81 645.11 100.76 645.13 100.71 645.15 100.65 645.17 100.61 645.19 100.56 645.23 100.5 645.26 100.46 645.3 100.42 645.34 100.39 645.37 100.37 645.44 100.35 645.49 100.34 645.53 100.33 645.57 100.33 645.61 100.32 645.64 100.31 645.69 100.28 646.12 100.8 646.15 100.8 646.18 100.4 646.38 100.44 646.68 100.56 646.43 100.78 646.45 100.83 647.04 100.89 647.07 100.91 647.15 100.95 647.22 100.99 647.27 101.01 647.37 101.03 647.46 101.05 647.52 101.06 647.54 101.07 647.54 101.08 647.56 101.09 647.58 101.09 647.62 101.08 647.66 101.08 647.7 101.08 647.73 101.09 647.77 101.1 647.8 101.11 647.86 101.13 647.9 101.15 647.97 101.19 648 101.21 648.06 101.24 648.12 101.26 648.15 101.25 648.18 101.25 648.22 101.23 648.29 101.23 648.35 101.23 648.38 101.23 648.89 101.01 649.46 100.57 649.51 100.55 649.74 100.8 650.22 100.86 650.16 101.35 650.57 101.47 650.6 101.83 650.65 101.83 650.91 101.5 650.82 100.79 650.93 100.79 651.1 101.09 651.18 101.13 651.29 101.65 651.38 101.92 651.43 101.93 651.5 101.94 651.6 101.93 651.67 101.92 651.73 101.89 651.78 101.86 651.83 101.83 651.88 101.8 651.9 101.79 651.92 101.8 651.95 101.81 651.99 101.84 652.03 101.86 652.08 101.88 652.14 101.9 652.21 101.93 652.25 101.94 652.3 101.94 652.37 101.94 652.17 101.64 652.22 101.51 652.24 101.52 652.28 101.53 652.33 101.54 652.36 101.56 652.39 101.57 652.44 101.57 652.46 101.57 652.51 101.54 652.55 101.52 652.58 101.51 652.61 101.49 652.65 101.49 652.68 101.48 652.71 101.48 652.73 101.47 652.77 101.47 652.79 101.47 652.81 101.46 652.82 101.45 652.84 101.45 652.85 101.45 652.87 101.45 652.93 101.46 653.04 101.48 653.16 101.49 653.3 101.5 653.4 101.5 653.49 101.49 653.55 101.48 653.57 101.48 653.58 101.47 653.77 101.39 653.78 101.41 653.78 101.42 653.82 101.45 653.89 101.51 653.97 101.59 654.07 101.65 654.11 101.69 654.17 101.75 654.28 101.63 654.63 101.57 654.65 101.58 654.67 101.6 654.69 101.61 654.73 101.65 654.75 101.65 654.77 101.65 654.8 101.65 654.82 101.65 654.84 101.65 654.85 101.67 654.85 101.69 654.85 101.7 654.87 101.71 654.88 101.73 654.89 101.75 654.9 101.77 654.9 101.78 654.92 101.81 654.93 101.83 654.95 101.85 654.97 101.87 654.99 101.88 655 101.9 655.02 101.93 655.04 101.94 655.06 101.96 655.08 101.97 655.1 101.99 655.13 102 655.16 102.02 655.2 102.04 655.23 102.06 655.26 102.07 655.28 102.08 655.31 102.09 655.41 102.14 655.43 102.15 655.46 102.16 655.48 102.16 655.52 102.17 655.54 102.17 655.57 102.17 655.59 102.17 655.61 102.18 655.63 102.2 655.65 102.22 655.67 102.23 655.69 102.25 655.77 102.33 655.79 102.35 655.81 102.37 655.82 102.39 655.85 102.42 655.87 102.44 655.89 102.46 655.91 102.47 655.93 102.49 655.96 102.5 655.97 102.51 656 102.53 656.02 102.54 656.04 102.55 656.08 102.59 656.12 102.65 656.13 102.67 656.15 102.7 656.17 102.73 656.18 102.74 656.19 102.76 656.2 102.79 656.22 102.82 656.24 102.84 656.26 102.85 656.28 102.87 656.29 102.89 656.3 102.9 656.33 102.91 656.34 102.92 656.36 102.95 656.38 102.97 656.39 102.99 656.4 103.01 656.41 103.02 656.42 103.05 656.43 103.08 656.44 103.11 656.44 103.14 656.45 103.15 656.45 103.19 656.45 103.22 656.46 103.24 656.46 103.25 656.46 103.28 656.46 103.29 656.46 103.31 656.47 103.33 656.47 103.34 656.47 103.36 656.47 103.38 656.47 103.41 656.48 103.44 656.49 103.47 656.5 103.5 656.51 103.53 656.52 103.55 656.53 103.57 656.55 103.61 656.55 103.64 656.56 103.67 656.56 103.69 656.57 103.71 656.57 103.75 656.57 103.76 656.57 103.78 656.57 103.8 656.57 103.83 656.57 103.87 656.57 103.89 656.57 103.91 656.57 103.94 656.57 103.97 656.57 104 656.58 104.07 656.59 104.1 656.61 104.14 656.62 104.17 656.63 104.2 656.65 104.23 656.67 104.26 656.69 104.28 656.71 104.32 656.73 104.34 656.75 104.37 656.77 104.39 656.8 104.4 656.83 104.41 656.85 104.42 656.89 104.43 656.92 104.44 656.94 104.46 656.96 104.48 656.99 104.51 657.07 104.61 657.18 104.74 657.2 104.77 657.22 104.78 657.23 104.79 657.25 104.79 657.38 104.78 657.57 104.77 657.64 104.77 657.66 104.77 657.7 104.76 657.71 104.75 657.73 104.74 657.74 104.74 657.76 104.74 657.79 104.74 657.82 104.74 657.84 104.75 657.86 104.75 657.88 104.76 657.91 104.76 657.94 104.76 657.94 104.75 657.96 104.74 657.97 104.73 657.98 104.71 657.99 104.69 657.99 104.67 658.01 104.66 658.03 104.64 658.04 104.63 658.06 104.63 658.09 104.63 658.14 104.63 658.18 104.65 658.23 104.67 658.28 104.69 658.32 104.71 658.35 104.73 658.37 104.73 658.4 104.72 658.52 105 658.76 105.07 658.81 105.08 658.88 105.09 658.97 105.11 659.07 105.13 659.14 105.14 659.18 105.16 659.25 105.18 659.33 105.23 659.36 105.25 659.37 105.27 659.36 105.31 659.37 105.33 659.4 105.4 659.41 105.44 659.42 105.48 659.45 105.49 659.48 105.5 659.51 105.54 659.52 105.56 659.53 105.59 659.54 105.63 659.55 105.67 659.55 105.7 659.56 105.72 659.56 105.75 659.56 105.79 659.56 105.84 659.56 105.89 659.55 105.93 659.55 105.98 659.55 106.03 659.56 106.07 659.56 106.12 659.57 106.17 659.59 106.21 659.6 106.24 659.62 106.27 659.63 106.3 659.64 106.32 659.65 106.35 659.67 106.37 659.69 106.39 659.69 106.41 659.69 106.44 659.69 106.46 659.69 106.49 659.69 106.52 659.68 106.53 659.68 106.56 659.67 106.59 659.67 106.61 659.68 106.62 659.7 106.64 659.7 106.67 659.7 106.68 659.7 106.71 659.71 106.74 659.71 106.77 659.71 106.8 659.71 106.81 659.72 106.83 659.72 106.85 659.72 106.88 659.72 106.91 659.72 106.93 659.71 106.94 659.69 106.96 659.68 106.98 659.67 107 659.67 107.02 659.68 107.04 659.68 107.06 659.68 107.08 659.68 107.1 659.67 107.13 659.66 107.15 659.65 107.16 659.63 107.18 659.6 107.19 659.57 107.21 659.57 107.24 659.57 107.26 659.59 107.27 659.6 107.29 659.6 107.3 659.6 107.32 659.61 107.34 659.61 107.36 659.61 107.37 659.61 107.39 659.61 107.41 659.62 107.43 659.62 107.44 659.63 107.46 659.64 107.49 659.64 107.51 659.65 107.54 659.65 107.57 659.66 107.59 659.67 107.61 659.87 107.83 660.14 108.18 660.5 108.56 660.32 108.82 660.06 109.16 659.68 109.74 659.39 110.15 659.46 110.55 659.84 110.91 659.49 111.54 659.4 112.59 659.18 112.93 658.95 113.15 657.96 113.48 657.5 113.56 657.23 113.56 656.51 113.34 655.87 113.21 655.71 113.22 655.51 113.3 655.06 114.02 654.05 114.52 653.33 114.84 652.61 115.24 651.9 115.63 651.03 115.23 650.58 115 650.13 114.76 649.67 114.52 649.62 114.54 649.29 115.08 649.08 115.37 648.02 115.42 647.45 115.95 646.85 116.26 646.73 116.28 646.26 116.08 645.59 115.78 645.58 115.76 645.56 115.74 645.55 115.71 645.53 115.69 645.49 115.66 645.44 115.63 645.37 115.59 645.26 115.66 644.68 115.01 644.65 114.99 644.62 114.96 644.59 114.94 644.56 114.91 644.53 114.89 644.5 114.86 644.49 114.83 644.47 114.81 644.45 114.79 644.41 114.77 644.38 114.74 644.35 114.71 644.33 114.7 644.32 114.68 644.3 114.65 644.25 114.61 644.21 114.56 644.18 114.53 644.16 114.5 644.14 114.48 643.72 114.66 643.28 115.17 643.02 115.43 642.51 115.55 642.24 115.44 642.08 115.38 642.06 115.33 641.58 115.07 641.32 114.99 641.27 114.94 641.24 114.88 641.22 114.83 641.21 114.78 641.19 114.74 641.17 114.7 641.12 114.64 641.05 114.57 641.01 114.5 640.97 114.41 640.94 114.32 640.9 114.18 640.86 114.02 640.82 113.91 640.81 113.84 640.8 113.78 640.79 113.71 640.77 113.65 640.76 113.61 640.74 113.57 640.74 113.54 640.74 113.49 640.74 113.44 640.75 113.38 640.73 113.21 640.72 113.12 640.71 113.05 640.68 112.98 640.66 112.94 640.65 112.88 640.63 112.81 640.62 112.74 640.6 112.65 640.59 112.61 640.58 112.56 640.58 112.53 640.5 112.51 640.47 112.49 640.45 112.48 640.42 112.46 640.38 112.43 640.35 112.4 640.23 112.33 640.15 112.27 640.04 112.2 639.98 112.16 639.94 112.14 639.89 112.09 639.85 112.06 639.81 112.02 639.76 112 639.71 111.97 639.65 111.96 639.61 111.96 639.56 111.95 639.52 111.93 639.49 111.91 639.46 111.91 639.43 111.9 639.41 111.88 639.4 111.83 639.38 111.8 639.37 111.78 639.34 111.76 639.31 111.74 639.28 111.73 639.32 111.71 639.39 111.66 639.42 111.63 639.44 111.58 639.44 111.54 639.46 111.52 639.49 111.52 639.51 111.5 639.54 111.49 639.56 111.49 639.57 111.47 639.59 111.43 639.6 111.4 639.61 111.36 639.64 111.32 639.69 111.2 639.73 111.07 639.75 111.03 639.76 110.98 639.76 110.94 639.75 110.9 639.75 110.88 639.74 110.87 639.73 110.81 639.71 110.72 639.7 110.67 639.69 110.56 639.65 110.46 639.61 110.37 639.57 110.32 639.56 110.29 639.55 110.25 639.55 110.21 639.56 110.17 639.57 110.11 639.58 110.05 639.59 110 639.61 109.96 639.63 109.92 639.64 109.89 639.65 109.84 639.66 109.8 639.69 109.77 639.72 109.76 639.75 109.75 639.77 109.74 639.8 109.71 639.86 109.68 639.88 109.66 639.9 109.63 639.92 109.58 639.94 109.55 639.96 109.51 639.97 109.47 640.07 109.36 640.02 109.1 639.74 108.53 639.51 108.21 639.53 107.98 639.63 107.6 639.66 107.58 639.67 107.56 639.67 107.53 639.67 107.49 639.67 107.45 639.68 107.41 639.68 107.35 639.67 107.31 639.68 107.28 639.68 107.26 639.7 107.23 639.71 107.17 639.65 106.61 639.78 106.16 639.76 105.68 639.9 105.49 639.6 105.53 639.5 105.49 639.4 105.51 638.82 105.49 638.83 105.48 638.84 105.43 638.84 105.38 638.83 105.35 638.82 105.32 638.8 105.29 638.77 105.23 638.74 105.18 638.67 105.07 638.63 105.03 638.43 104.76 638.27 104.56 638.05 104.24 637.95 104.09 637.94 104.05 637.92 103.99 637.91 103.95 637.88 103.88 637.86 103.83 637.85 103.77 637.84 103.71 637.82 103.64 637.78 103.56 637.76 103.53 637.71 103.46 637.65 103.36 637.58 103.27 637.45 102.74 637.47 102.65 638.34 102.13 638.49 102 638.67 101.53 638.97 101.2 639.29 100.31 639.79 99.35 640.04 99.01 640.11 98.99 Z"/>
</g></svg>