<svg xmlns="http://www.w3.org/2000/svg" version="1.2" baseProfile="tiny" stroke-linecap="round" stroke-linejoin="round" viewBox="455.83 222.2 36.15 23.78"><g xmlns="http://www.w3.org/2000/svg" id="Imotz">
<path d="M 485.31 225.09 485.44 225.05 485.55 225.02 485.59 225.01 485.61 225.01 485.7 224.98 485.84 224.95 485.97 224.92 486.04 224.9 486.2 224.87 486.32 224.84 486.41 224.82 486.52 224.79 486.64 224.81 486.75 224.82 486.86 224.83 486.83 225.03 486.86 225.52 486.84 225.85 486.85 225.86 487.66 226.15 487.64 226.53 487.63 226.87 487.6 227.01 487.59 227.04 487.58 227.11 487.56 227.23 487.56 227.5 487.58 227.72 487.58 227.75 487.67 228.15 487.68 228.55 487.69 228.71 487.7 228.82 487.7 228.83 487.7 228.84 487.7 228.85 487.69 229.08 487.59 229.56 487.59 229.57 487.57 229.89 487.56 229.96 487.53 230.34 487.51 230.65 487.57 231.01 487.66 231.3 487.82 231.74 487.99 232.23 488.19 232.9 488.32 233.34 488.35 233.44 488.53 233.99 488.56 233.99 488.7 233.97 488.75 233.97 488.77 233.97 489 233.98 489.39 234.29 489.4 234.31 489.72 234.77 489.74 234.87 489.79 235.09 489.84 235.3 489.85 235.34 489.86 235.47 489.86 235.51 489.86 235.59 490.02 235.82 490.06 235.87 490.19 236.01 490.22 236.06 490.28 236.11 490.4 236.24 490.58 236.45 490.63 236.51 490.65 236.53 490.66 236.59 490.71 236.82 490.73 236.97 490.82 237.48 490.82 237.51 490.84 237.66 490.85 237.76 490.89 238.01 490.94 238.29 490.96 238.37 491 238.47 491.04 238.6 491.09 238.73 491.12 238.8 491.16 238.94 491.19 239 491.24 239.12 491.27 239.2 491.31 239.32 491.34 239.4 491.41 239.59 491.43 239.64 491.44 239.68 491.44 239.68 491.45 239.69 491.46 239.76 491.52 240.01 491.66 240.69 491.78 241.25 491.79 241.28 491.81 241.48 491.82 241.62 491.83 241.74 491.83 241.81 491.84 241.9 491.84 242.01 491.86 242.18 491.87 242.29 491.87 242.33 491.87 242.34 491.88 242.44 491.88 242.48 491.89 242.53 491.89 242.57 491.89 242.8 491.9 242.97 491.9 243.03 491.9 243.2 491.91 243.29 491.92 243.54 491.92 243.7 491.92 243.77 491.93 243.94 491.93 244.01 491.93 244.17 491.94 244.25 491.94 244.47 491.95 244.51 491.92 244.51 491.88 244.52 491.82 244.52 491.77 244.52 491.74 244.53 491.7 244.54 491.64 244.56 491.59 244.58 491.55 244.58 491.5 244.6 491.47 244.61 491.43 244.63 491.38 244.65 491.34 244.66 491.29 244.68 491.24 244.7 491.18 244.73 491.13 244.75 491.09 244.76 491.06 244.78 491.01 244.81 490.96 244.83 490.92 244.85 490.86 244.88 490.81 244.91 490.76 244.93 490.72 244.96 490.67 244.98 490.64 245 490.59 245.02 490.55 245.04 490.51 245.06 490.44 245.1 490.39 245.13 490.35 245.14 490.3 245.17 490.26 245.19 490.22 245.21 490.19 245.23 490.16 245.25 490.12 245.27 490.06 245.31 490.01 245.34 489.97 245.37 489.95 245.38 489.86 245.45 489.76 245.51 489.72 245.53 489.71 245.54 489.67 245.57 489.58 245.63 489.51 245.68 489.47 245.7 489.41 245.67 489.35 245.65 489.29 245.63 489.24 245.61 489.19 245.59 489.13 245.57 489.04 245.54 488.98 245.52 488.93 245.5 488.87 245.49 488.81 245.47 488.76 245.46 488.69 245.45 488.63 245.43 488.59 245.42 488.55 245.41 488.5 245.4 488.45 245.39 488.42 245.38 488.4 245.37 488.34 245.38 488.28 245.37 488.23 245.37 488.18 245.37 488.13 245.37 488.07 245.38 488.01 245.39 487.94 245.4 487.89 245.41 487.82 245.42 487.77 245.43 487.73 245.43 487.69 245.44 487.66 245.45 487.64 245.46 487.6 245.5 487.57 245.52 487.54 245.54 487.51 245.58 487.48 245.6 487.44 245.64 487.41 245.67 487.37 245.7 487.34 245.73 487.3 245.76 487.26 245.8 487.21 245.85 487.16 245.89 487.13 245.92 487.11 245.92 487.08 245.93 487.04 245.93 486.99 245.93 486.94 245.93 486.91 245.91 486.86 245.89 486.8 245.86 486.74 245.84 486.68 245.81 486.62 245.79 486.55 245.77 486.42 245.74 486.34 245.73 486.28 245.73 486.21 245.72 486.16 245.72 486.12 245.72 486.06 245.73 486 245.73 485.95 245.74 485.91 245.75 485.85 245.76 485.81 245.78 485.74 245.8 485.69 245.81 485.62 245.83 485.42 245.89 485.34 245.91 485.26 245.94 485.16 245.97 485.16 245.93 485.17 245.8 485.17 245.75 485.17 245.68 485.16 245.6 485.15 245.38 485.12 244.94 485.1 244.51 485.1 244.46 485.11 244.35 485.11 244.31 485.13 244.22 485.15 244.07 485.16 243.96 485.16 243.91 485.16 243.86 485.13 243.66 485.12 243.59 485.1 243.46 485.09 243.4 485.08 243.31 485.07 243.3 485.07 243.3 485.07 243.26 485.07 243.26 485.05 243.18 485.04 243.13 485.03 243.09 485.02 243.05 485 243 484.98 242.94 484.94 242.82 484.92 242.74 484.89 242.66 484.85 242.54 484.82 242.46 484.79 242.37 484.74 242.27 484.71 242.17 484.67 242.09 484.63 242 484.6 241.93 484.52 241.77 484.41 241.55 484.32 241.38 484.25 241.24 484.22 241.19 484.15 241.09 484.04 240.96 483.93 240.8 483.82 240.65 483.73 240.53 483.69 240.48 483.6 240.36 483.57 240.31 483.53 240.24 483.47 240.16 483.44 240.12 483.41 240.07 483.39 240.03 483.37 240 483.36 239.97 483.51 239.73 483.63 239.53 483.53 239.49 483.37 239.43 483.35 239.43 483.24 239.39 483.22 239.38 483.18 239.36 483.09 239.33 483.05 239.31 483.02 239.29 482.92 239.27 482.81 239.22 482.69 239.17 482.59 239.13 482.52 239.11 482.51 239.1 482.45 239.08 482.38 239.05 482.35 239.04 482.3 239.02 482.21 238.98 482.15 238.96 482.1 238.95 482.06 238.92 482.01 238.9 481.99 238.89 481.97 238.88 481.93 238.87 481.85 238.84 481.78 238.81 481.76 238.81 481.74 238.8 481.73 238.79 481.68 238.89 481.64 238.97 481.6 239.05 481.56 239.13 481.51 239.21 481.47 239.28 481.43 239.35 481.39 239.42 481.36 239.48 481.32 239.55 481.3 239.58 481.29 239.6 481.28 239.61 481.25 239.65 481.2 239.7 481.15 239.77 481.1 239.82 481.05 239.89 481 239.94 480.98 239.97 480.97 239.98 480.93 240.01 480.89 240.04 480.82 240.09 480.78 240.11 480.75 240.13 480.7 240.16 480.65 240.2 480.6 240.23 480.55 240.26 480.49 240.3 480.42 240.34 480.36 240.38 480.29 240.42 480.23 240.46 480.22 240.47 480.17 240.51 480.1 240.56 479.96 240.67 479.9 240.72 479.84 240.77 479.79 240.81 479.73 240.86 479.66 240.91 479.6 240.97 479.54 241.02 479.49 241.06 479.43 241.1 479.37 241.15 479.31 241.2 479.24 241.25 479.22 241.27 479.21 241.28 479.19 241.3 479.19 241.3 479.18 241.31 479.18 241.32 479.16 241.34 479.15 241.36 479.15 241.39 479.13 241.43 479.12 241.46 479.1 241.49 479.09 241.52 479.06 241.56 479.04 241.61 479.02 241.64 479 241.67 478.99 241.68 478.97 241.71 478.94 241.74 478.88 241.82 478.87 241.84 478.85 241.86 478.82 241.91 478.78 241.95 478.75 241.98 478.71 242.03 478.67 242.08 478.62 242.15 478.58 242.19 478.55 242.22 478.51 242.26 478.46 242.32 478.41 242.36 478.37 242.4 478.3 242.48 478.24 242.53 478.2 242.58 478.14 242.64 478.1 242.69 478.05 242.74 477.98 242.82 477.94 242.86 477.92 242.88 477.87 242.94 477.84 242.98 477.8 243.04 477.8 243.05 477.76 243.11 477.7 243.2 477.63 243.29 477.58 243.36 477.54 243.42 477.48 243.41 477.42 243.41 477.36 243.41 477.28 243.41 477.21 243.42 477.16 243.43 477.1 243.43 477.06 243.43 477 243.44 476.95 243.45 476.87 243.46 476.73 243.48 476.65 243.49 476.57 243.5 476.5 243.51 476.42 243.52 475.18 243.77 474.74 243.52 474.51 243.39 474.02 243.32 473.87 243.35 473.38 242.82 473.27 242.69 473.12 242.53 473.02 242.41 472.93 242.31 472.87 242.22 472.84 242.17 472.83 242.17 472.81 242.16 472.8 242.16 472.78 242.17 472.75 242.17 472.65 242.2 472.48 242.23 472.45 242.23 472.33 242.26 472.29 242.27 472.21 242.28 472.17 242.29 472.16 242.29 472.14 242.29 472.13 242.28 471.96 242.24 471.81 242.19 471.68 242.16 471.55 242.12 471.48 242.1 471.4 242.09 471.33 242.07 471.21 242.04 471.12 242.02 471.02 242 470.94 241.99 470.87 241.98 470.8 241.96 470.74 241.95 470.69 241.95 470.64 241.94 470.55 241.94 470.48 241.95 470.37 241.95 470.3 241.96 470.25 241.96 470.22 241.96 470.2 241.96 470.19 241.96 470.19 241.97 470.18 241.98 470.17 241.99 470.13 242.04 470.1 242.08 470.06 242.13 469.98 242.23 469.89 242.33 469.82 242.41 469.77 242.48 469.69 242.58 469.58 242.71 469.51 242.79 469.38 242.95 469.19 243.17 469.04 243.35 468.91 243.51 468.75 243.71 468.67 243.8 468.59 243.9 468.57 243.93 468.55 243.95 468.54 243.95 468.53 243.96 468.51 243.96 468.5 243.96 468.47 243.95 468.36 243.91 468.31 243.89 468.14 243.82 467.98 243.76 467.91 243.72 467.81 243.69 467.71 243.65 467.64 243.62 467.54 243.56 467.36 243.45 467.26 243.39 467.12 243.31 466.96 243.22 466.87 243.16 466.79 243.12 466.7 243.07 466.67 243.05 466.67 243.04 466.67 243.03 466.67 242.89 466.67 242.65 466.67 242.49 466.67 242.37 466.67 242.26 466.66 242.23 466.66 242.21 466.65 242.19 466.63 242.16 466.57 242.07 466.53 242.01 466.5 241.97 466.48 241.95 466.44 241.88 466.39 241.81 466.33 241.73 466.27 241.64 466.19 241.51 466.12 241.38 466.06 241.28 465.96 241.12 465.9 241.02 465.82 240.89 465.79 240.84 465.77 240.81 465.76 240.8 465.74 240.82 465.73 240.83 465.67 240.87 465.62 240.91 465.6 240.93 465.59 240.94 465.54 240.97 465.53 240.98 465.46 241.05 465.41 241.09 465.4 241.1 465.38 241.11 465.31 241.17 465.23 241.23 465.13 241.3 465.05 241.37 464.97 241.44 464.88 241.51 464.83 241.55 464.79 241.59 464.71 241.57 464.54 241.53 464.33 241.47 464.15 241.42 463.98 241.38 463.87 241.35 463.76 241.32 463.65 241.3 463.56 241.27 463.45 241.24 463.36 241.22 463.26 241.19 463.16 241.17 463.07 241.14 463.02 241.13 462.96 241.11 462.94 241.11 462.88 241.1 462.84 241.09 462.78 241.08 462.69 241.07 462.68 241.06 462.57 241.05 462.46 241.04 462.32 241.02 462.25 241.01 462.18 241 462.07 240.99 461.93 240.97 461.84 240.95 461.73 240.94 461.64 240.94 461.62 240.93 461.6 240.93 461.58 240.92 461.52 240.89 461.41 240.85 461.31 240.81 461.14 240.74 461.07 240.71 461.02 240.69 460.96 240.67 460.9 240.64 460.83 240.61 460.75 240.58 460.64 240.53 460.53 240.49 460.47 240.46 460.4 240.43 460.34 240.41 460.27 240.38 460.21 240.36 460.18 240.35 460.15 240.33 460.14 240.33 460.13 240.32 460.12 240.31 460.09 240.27 460.05 240.22 459.99 240.15 459.92 240.08 459.89 240.04 459.86 240 459.8 239.93 459.73 239.84 459.66 239.76 459.65 239.75 459.6 239.69 459.54 239.6 459.47 239.52 459.4 239.43 459.34 239.36 459.33 239.35 459.32 239.33 459.28 239.29 459.26 239.25 459.23 239.22 459.21 239.2 459.19 239.16 459.18 239.15 459.11 239.08 459.06 239.03 459 238.97 458.95 238.93 458.9 238.89 458.89 238.89 458.85 238.86 458.82 238.83 458.8 238.81 458.74 238.77 458.68 238.73 458.65 238.71 458.63 238.69 458.59 238.66 458.54 238.62 458.5 238.59 458.46 238.56 458.42 238.53 458.4 238.52 458.39 238.51 458.37 238.48 458.33 238.42 458.28 238.35 458.22 238.25 458.13 238.12 458.06 238.02 457.98 237.9 457.9 237.79 457.85 237.71 457.78 237.6 457.7 237.48 457.62 237.37 457.56 237.28 457.52 237.21 457.49 237.16 457.46 237.13 457.43 237.1 457.4 237.06 457.38 237.03 457.34 236.98 457.32 236.96 457.3 236.94 457.28 236.93 457.26 236.91 457.22 236.89 457.19 236.86 457.17 236.85 457.13 236.82 457.1 236.79 457.06 236.76 457.02 236.74 456.99 236.7 456.96 236.68 456.95 236.67 456.94 236.66 456.91 236.63 456.88 236.6 456.86 236.57 456.82 236.52 456.82 236.52 456.81 236.51 456.79 236.49 456.76 236.45 456.73 236.41 456.69 236.37 456.66 236.33 456.63 236.29 456.59 236.24 456.55 236.19 456.51 236.15 456.49 236.12 456.45 236.07 456.43 236.04 456.41 236.02 456.39 236 456.38 235.99 456.37 235.97 456.37 235.95 456.37 235.94 456.36 235.92 456.35 235.83 456.34 235.81 456.34 235.77 456.32 235.7 456.3 235.61 456.28 235.52 456.27 235.44 456.25 235.35 456.23 235.28 456.22 235.21 456.2 235.15 456.19 235.06 456.18 235 456.16 234.92 456.14 234.86 456.13 234.81 456.13 234.77 456.12 234.71 456.12 234.62 456.11 234.56 456.1 234.49 456.09 234.43 456.09 234.36 456.08 234.34 456.08 234.29 456.07 234.22 456.07 234.18 456.06 234.12 456.06 234.07 456.05 234.01 456.05 233.95 456.04 233.89 456.03 233.86 456.03 233.81 456.01 233.75 455.99 233.66 455.96 233.54 455.94 233.45 455.92 233.31 455.9 233.21 455.88 233.14 455.87 233.04 455.87 232.99 455.86 232.93 455.86 232.85 455.86 232.8 455.86 232.74 455.85 232.67 455.85 232.6 455.84 232.53 455.84 232.42 455.84 232.37 455.84 232.31 455.84 232.24 455.84 232.17 455.84 232.09 455.84 232.05 455.84 232.03 455.85 231.99 455.85 231.97 455.86 231.94 455.87 231.88 455.88 231.84 455.89 231.78 455.9 231.73 455.92 231.67 455.93 231.61 455.94 231.56 455.96 231.48 455.96 231.45 455.97 231.41 456 231.34 456.01 231.27 456.04 231.19 456.06 231.11 456.09 231.02 456.11 230.93 456.14 230.85 456.17 230.75 456.2 230.64 456.22 230.57 456.22 230.56 456.22 230.54 456.22 230.52 456.21 230.46 456.21 230.39 456.2 230.34 456.2 230.29 456.2 230.23 456.19 230.17 456.19 230.11 456.18 230.06 456.17 229.9 456.17 229.83 456.17 229.77 456.17 229.73 456.18 229.7 456.19 229.65 456.19 229.61 456.2 229.56 456.21 229.51 456.22 229.48 456.22 229.44 456.22 229.4 456.22 229.32 456.22 229.21 456.28 229.22 456.37 229.27 456.48 229.32 456.58 229.37 456.72 229.44 456.87 229.51 456.97 229.57 457.08 229.62 457.17 229.67 457.27 229.71 457.32 229.74 457.34 229.75 457.37 229.76 457.41 229.78 457.46 229.81 457.57 229.84 457.66 229.88 457.75 229.92 457.82 229.96 457.9 229.99 457.98 229.93 458.04 229.88 458.16 229.78 458.3 229.65 458.47 229.5 458.62 229.37 458.69 229.32 458.79 229.23 458.84 229.18 458.96 229.09 459 229.05 459.07 228.98 459.16 228.91 459.26 228.83 459.4 228.7 459.46 228.65 459.47 228.64 459.53 228.59 459.55 228.57 459.58 228.56 459.61 228.56 459.61 228.56 459.63 228.55 459.64 228.52 459.65 228.49 459.66 228.45 459.67 228.43 459.69 228.42 459.73 228.4 459.78 228.38 459.82 228.37 459.87 228.37 459.9 228.37 459.94 228.36 460 228.33 460.04 228.31 460.07 228.28 460.07 228.27 460.07 228.26 460.07 228.23 460.06 228.2 460.05 228.15 460.05 228.14 460.05 228.11 460.06 228.1 460.1 228.1 460.13 228.11 460.15 228.12 460.17 228.13 460.21 228.14 460.24 228.14 460.27 228.12 460.3 228.11 460.33 228.1 460.37 228.09 460.39 228.09 460.39 228.08 460.43 228.08 460.47 228.08 460.51 228.07 460.55 228.07 460.59 228.05 460.61 228.04 460.64 228.02 460.64 228 460.65 227.97 460.64 227.95 460.64 227.93 460.63 227.91 460.62 227.88 460.61 227.85 460.6 227.8 460.59 227.76 460.58 227.73 460.57 227.7 460.57 227.67 460.57 227.64 460.57 227.61 460.58 227.58 460.59 227.55 460.59 227.54 460.58 227.53 460.57 227.5 460.56 227.46 460.53 227.43 460.51 227.38 460.48 227.32 460.46 227.29 460.45 227.27 460.44 227.24 460.44 227.21 460.45 227.19 460.45 227.15 460.45 227.1 460.46 227.08 460.47 227.06 460.48 227.03 460.49 227.01 460.5 226.98 460.51 226.97 460.51 226.95 460.51 226.92 460.5 226.89 460.48 226.86 460.47 226.84 460.46 226.82 460.45 226.79 460.45 226.76 460.45 226.73 460.45 226.7 460.46 226.67 460.44 226.68 460.42 226.68 460.4 226.66 460.39 226.64 460.38 226.62 460.39 226.6 460.39 226.57 460.39 226.54 460.38 226.52 460.38 226.49 460.39 226.46 460.42 226.45 460.44 226.43 460.46 226.42 460.49 226.41 460.53 226.4 460.55 226.41 460.58 226.43 460.62 226.41 460.66 226.38 460.7 226.36 460.74 226.34 460.76 226.31 460.77 226.29 460.78 226.27 460.78 226.24 460.79 226.21 460.79 226.17 460.79 226.14 460.79 226.11 460.79 226.08 460.79 226.06 460.77 226 460.76 225.96 460.75 225.91 460.74 225.88 460.73 225.86 460.71 225.83 460.69 225.82 460.65 225.8 460.61 225.78 460.55 225.75 460.48 225.72 460.44 225.7 460.42 225.68 460.4 225.65 460.4 225.62 460.38 225.58 460.38 225.55 460.38 225.52 460.39 225.48 460.39 225.4 460.39 225.32 460.39 225.24 460.39 225.19 460.32 225.11 460.2 224.98 460.16 224.94 460.14 224.92 460.11 224.9 460.07 224.89 460.03 224.88 459.99 224.88 459.94 224.87 459.9 224.85 459.85 224.84 459.81 224.82 459.77 224.8 459.75 224.78 459.73 224.76 459.71 224.74 459.7 224.71 459.69 224.69 459.7 224.67 459.71 224.64 459.72 224.62 459.75 224.6 459.78 224.58 459.81 224.55 459.85 224.53 459.89 224.52 459.92 224.5 459.96 224.47 459.99 224.45 460.01 224.41 460.04 224.38 460.05 224.35 460.06 224.32 460.05 224.29 460.03 224.26 460.01 224.22 459.98 224.2 459.95 224.18 459.92 224.17 459.88 224.16 459.84 224.16 459.8 224.16 459.73 224.19 459.69 224.2 459.66 224.21 459.62 224.22 459.58 224.22 459.55 224.22 459.51 224.21 459.47 224.19 459.44 224.17 459.41 224.14 459.39 224.11 459.37 224.07 459.36 224.04 459.36 224.01 459.37 223.99 459.39 223.96 459.42 223.9 459.43 223.87 459.45 223.83 459.46 223.79 459.46 223.78 459.47 223.76 459.47 223.75 459.48 223.73 459.49 223.69 459.49 223.62 459.51 223.57 459.51 223.51 459.51 223.47 459.51 223.43 459.51 223.38 459.51 223.35 459.51 223.32 459.52 223.29 459.53 223.25 459.55 223.2 459.57 223.17 459.59 223.14 459.62 223.1 459.66 223.05 459.68 223.02 459.7 223.01 459.73 222.99 459.78 222.97 459.81 222.96 459.83 222.98 459.89 223.03 460.02 223.16 460.06 223.19 460.07 223.22 460.11 223.27 460.19 223.38 460.29 223.52 460.34 223.58 460.39 223.64 460.46 223.73 460.5 223.79 460.6 223.91 460.62 223.93 460.76 224.12 460.9 224.31 461.03 224.49 461.17 224.7 461.32 224.91 461.4 225.01 461.41 225.03 461.41 225.05 461.47 225.14 461.63 225.37 461.7 225.46 461.73 225.5 462.04 225.9 462.15 226.05 462.4 226.39 462.67 226.74 462.79 226.89 462.83 226.93 462.84 226.94 462.91 227.04 462.97 227.11 463 227.15 463.22 227.44 463.24 227.45 463.27 227.49 463.44 227.69 463.51 227.79 463.57 227.85 463.62 227.9 463.63 227.91 463.63 227.92 463.69 227.97 463.71 227.99 463.73 228.01 463.81 228.09 463.93 228.21 463.99 228.27 464.12 228.4 464.12 228.4 464.16 228.44 464.31 228.59 464.36 228.64 464.53 228.82 464.68 228.99 464.78 229.12 464.82 229.17 464.87 229.22 464.93 229.3 464.98 229.36 465.05 229.44 465.06 229.46 465.08 229.48 465.12 229.54 465.23 229.67 465.3 229.75 465.37 229.83 465.42 229.9 465.47 229.96 465.48 229.97 465.49 229.98 465.53 230.03 465.54 230.04 465.56 230.05 465.6 230.1 465.66 230.16 465.72 230.21 465.78 230.28 465.84 230.32 465.9 230.38 465.97 230.45 465.99 230.47 466.01 230.49 466.08 230.53 466.16 230.58 466.24 230.63 466.31 230.68 466.37 230.72 466.45 230.77 466.53 230.82 466.6 230.87 466.68 230.92 466.78 230.98 466.82 231.01 466.84 231.02 466.89 231.03 466.96 231.04 467.07 231.06 467.15 231.07 467.19 231.07 467.2 231.08 467.24 231.08 467.33 231.1 467.37 231.1 467.43 231.11 467.61 231.14 467.67 231.15 467.7 231.15 467.78 231.17 467.86 231.17 467.89 231.18 467.95 231.19 467.97 231.2 468.05 231.22 468.09 231.22 468.11 231.23 468.12 231.23 468.13 231.23 468.14 231.23 468.2 231.23 468.29 231.23 468.39 231.23 468.43 231.24 468.47 231.24 468.55 231.25 468.6 231.25 468.64 231.25 468.65 231.25 468.66 231.25 468.69 231.23 468.76 231.19 468.83 231.15 468.91 231.11 469 231.06 469.08 231.02 469.16 230.97 469.25 230.93 469.33 230.88 469.4 230.84 469.45 230.8 469.5 230.77 469.5 230.7 469.48 230.63 469.47 230.55 469.45 230.48 469.44 230.4 469.42 230.31 469.41 230.24 469.4 230.18 469.36 229.84 469.33 229.69 469.31 229.58 469.28 229.45 469.27 229.37 469.27 229.35 469.26 229.33 469.24 229.19 469.22 229.09 469.2 228.94 469.17 228.76 469.14 228.61 469.11 228.46 469.08 228.29 469.06 228.12 469.03 227.96 469 227.84 468.99 227.76 468.98 227.7 468.98 227.63 468.97 227.56 468.96 227.48 468.95 227.4 468.93 227.29 468.92 227.21 468.91 227.12 468.89 227.02 468.88 226.93 468.87 226.87 468.87 226.83 468.86 226.81 468.86 226.8 468.87 226.79 468.88 226.76 468.91 226.71 468.96 226.64 469.02 226.55 469.06 226.49 469.11 226.42 469.16 226.35 469.22 226.26 469.25 226.22 469.26 226.2 469.28 226.17 469.32 226.19 469.34 226.21 469.39 226.23 469.47 226.26 469.56 226.29 469.64 226.32 469.73 226.35 469.8 226.38 469.86 226.4 469.86 226.4 469.9 226.41 469.93 226.42 469.99 226.44 470.04 226.46 470.09 226.47 470.14 226.5 470.19 226.53 470.24 226.57 470.28 226.59 470.29 226.59 470.31 226.6 470.32 226.6 470.37 226.59 470.44 226.58 470.47 226.58 470.48 226.58 470.5 226.58 470.55 226.57 470.56 226.57 470.59 226.57 470.64 226.57 470.71 226.56 470.77 226.56 470.82 226.55 470.88 226.54 470.96 226.53 470.98 226.53 471.02 226.52 471.09 226.51 471.18 226.5 471.24 226.49 471.25 226.49 471.33 226.48 471.35 226.47 471.52 226.44 471.54 226.44 471.55 226.43 471.71 226.35 471.86 226.28 471.9 226.26 471.96 226.22 472.05 226.18 472.2 226.1 472.32 226.04 472.48 225.93 472.53 225.91 472.68 225.82 472.93 225.68 472.98 225.65 473.25 225.5 473.38 225.42 473.43 225.39 473.48 225.36 473.53 225.32 473.56 225.3 473.61 225.3 473.72 225.3 473.79 225.26 474.01 225.16 474.24 225.06 474.47 224.96 474.56 224.92 474.59 224.9 474.6 224.89 474.61 224.89 474.62 224.88 474.69 224.81 474.71 224.8 474.79 224.78 474.89 224.75 475.03 224.72 475.25 224.67 475.34 224.56 475.44 224.43 475.56 224.28 475.67 224.13 475.71 224.09 475.81 224 475.89 223.83 475.95 223.68 476.06 223.58 476.14 223.5 476.2 223.45 476.31 223.4 476.36 223.37 476.42 223.31 476.49 223.23 476.63 223.06 476.75 222.9 476.78 222.86 476.92 222.72 477.03 222.64 477.19 222.51 477.39 222.35 477.51 222.24 477.53 222.22 477.65 222.24 477.81 222.26 478.06 222.3 478.32 222.33 478.48 222.36 478.64 222.44 478.78 222.5 478.96 222.56 479.14 222.61 479.18 222.63 479.2 222.63 479.29 222.66 479.41 222.69 479.52 222.71 479.54 222.72 479.62 222.74 479.7 222.76 479.71 222.77 479.79 222.79 480.05 222.87 480.14 222.9 480.15 222.9 480.28 222.94 480.53 223.01 480.54 223.02 480.56 223.02 480.79 223.09 480.97 223.15 481.16 223.2 481.23 223.23 481.47 223.3 481.5 223.31 481.52 223.31 481.7 223.36 481.74 223.38 481.77 223.57 481.82 223.89 481.82 224.01 481.82 224.22 481.82 224.41 481.84 224.64 481.86 224.87 481.86 225.04 481.94 225.18 482 225.33 482.03 225.42 482.06 225.48 482.07 225.5 482.09 225.57 482.21 225.59 482.44 225.62 482.6 225.65 482.83 225.67 483.03 225.68 483.19 225.68 483.31 225.68 483.33 225.68 483.5 225.68 483.64 225.67 484 225.59 484.12 225.56 484.4 225.5 484.59 225.43 484.76 225.36 484.84 225.32 484.99 225.27 485.24 225.17 485.29 225.12 485.31 225.09 Z"/>
</g></svg>