<svg xmlns="http://www.w3.org/2000/svg" version="1.2" baseProfile="tiny" stroke-linecap="round" stroke-linejoin="round" viewBox="429.97 241.78 9.92 20.58"><g xmlns="http://www.w3.org/2000/svg" id="Irantzu">
<path d="M 430.14 242.56 430.25 242.51 430.26 242.51 430.28 242.5 430.29 242.49 430.31 242.48 430.32 242.47 430.34 242.46 430.35 242.45 430.37 242.44 430.38 242.43 430.39 242.42 430.41 242.41 430.42 242.39 430.43 242.38 430.44 242.37 430.46 242.36 430.47 242.35 430.48 242.34 430.5 242.33 430.51 242.32 430.53 242.31 430.54 242.3 430.56 242.29 430.58 242.28 430.59 242.27 430.61 242.26 430.62 242.26 430.64 242.25 430.65 242.25 430.67 242.25 430.69 242.24 430.7 242.24 430.72 242.24 430.74 242.24 430.75 242.24 430.77 242.24 430.79 242.24 430.8 242.24 430.82 242.24 430.84 242.24 430.88 242.25 430.9 242.25 430.91 242.25 430.93 242.25 430.95 242.25 430.97 242.25 430.98 242.26 431 242.26 431.01 242.26 431.03 242.26 431.05 242.26 431.07 242.26 431.08 242.26 431.1 242.26 431.12 242.26 431.14 242.26 431.16 242.26 431.17 242.26 431.19 242.26 431.21 242.25 431.23 242.25 431.25 242.25 431.26 242.25 431.28 242.25 431.3 242.24 431.31 242.24 431.33 242.24 431.35 242.24 431.37 242.24 431.39 242.24 431.41 242.24 431.43 242.24 431.44 242.24 431.46 242.24 431.48 242.24 431.49 242.24 431.51 242.24 431.53 242.24 431.55 242.24 431.58 242.25 431.6 242.25 431.62 242.25 431.63 242.25 431.65 242.25 431.66 242.25 431.68 242.25 431.72 242.25 431.73 242.25 431.75 242.25 431.77 242.25 431.79 242.25 431.81 242.25 431.85 242.25 431.9 242.26 431.92 242.26 431.97 242.26 431.98 242.26 432 242.26 432.04 242.26 432.06 242.26 432.07 242.26 432.09 242.26 432.11 242.26 432.13 242.26 432.14 242.26 432.15 242.26 432.17 242.26 432.19 242.27 432.21 242.27 432.23 242.27 432.24 242.27 432.26 242.27 432.28 242.27 432.3 242.27 432.31 242.27 432.33 242.26 432.34 242.26 432.36 242.26 432.37 242.26 432.39 242.26 432.41 242.25 432.43 242.25 432.44 242.25 432.48 242.25 432.5 242.24 432.51 242.24 432.56 242.23 432.63 242.22 432.65 242.22 432.67 242.21 432.68 242.21 432.7 242.21 432.72 242.21 432.74 242.2 432.75 242.2 432.77 242.2 432.78 242.2 432.8 242.2 432.82 242.2 432.84 242.2 432.85 242.2 432.89 242.2 432.91 242.2 432.92 242.2 432.95 242.2 433 242.2 433.04 242.2 433.07 242.2 433.19 242.16 433.21 242.16 433.22 242.16 433.24 242.16 433.25 242.16 433.27 242.16 433.29 242.16 433.31 242.16 433.32 242.16 433.34 242.16 433.36 242.16 433.38 242.16 433.4 242.16 433.41 242.15 433.43 242.15 433.46 242.15 433.48 242.15 433.5 242.15 433.52 242.14 433.55 242.14 433.57 242.14 433.59 242.14 433.6 242.13 433.61 242.13 433.65 242.13 433.66 242.12 433.68 242.12 433.72 242.12 433.74 242.12 433.76 242.11 433.78 242.11 433.79 242.11 433.8 242.11 433.82 242.11 433.84 242.11 433.86 242.1 433.87 242.1 433.89 242.1 433.9 242.09 433.92 242.09 433.93 242.09 434.24 242.04 434.27 242.04 434.31 242.03 434.34 242.03 434.38 242.02 434.39 242.02 434.41 242.02 434.45 242.01 434.46 242.01 434.48 242.01 434.52 242.01 434.54 242 434.56 242 434.58 242 434.6 242 434.61 242 434.65 241.99 434.7 241.99 434.72 241.99 434.74 241.99 434.76 241.99 434.77 241.98 434.79 241.98 434.83 241.98 434.84 241.98 434.86 241.98 434.88 241.98 434.9 241.98 434.91 241.98 434.92 241.97 434.94 241.97 434.96 241.97 434.97 241.96 434.99 241.96 435.01 241.95 435.04 241.94 435.06 241.94 435.08 241.93 435.1 241.92 435.12 241.92 435.14 241.92 435.17 241.91 435.19 241.9 435.21 241.9 435.22 241.89 435.24 241.89 435.25 241.89 435.27 241.88 435.28 241.88 435.3 241.88 435.32 241.87 435.34 241.87 435.35 241.87 435.37 241.87 435.39 241.86 435.42 241.86 435.45 241.86 435.47 241.86 435.48 241.85 435.5 241.85 435.54 241.85 435.57 241.85 435.59 241.85 435.62 241.85 435.66 241.84 435.69 241.84 435.74 241.84 435.8 241.83 435.81 241.83 435.85 241.83 435.88 241.83 435.9 241.83 435.92 241.82 435.94 241.82 435.95 241.82 435.99 241.82 436.02 241.82 436.04 241.82 436.08 241.82 436.11 241.82 436.16 241.82 436.23 241.81 436.25 241.81 436.29 241.81 436.3 241.81 436.34 241.81 436.36 241.81 436.37 241.81 436.41 241.81 436.42 241.81 436.44 241.81 436.46 241.81 436.48 241.81 436.49 241.81 436.53 241.81 436.55 241.81 436.56 241.82 436.58 241.82 436.6 241.82 436.62 241.82 436.63 241.82 436.65 241.82 436.67 241.82 436.7 241.81 436.74 241.81 436.75 241.81 436.77 241.81 436.82 241.81 436.86 241.81 436.88 241.81 436.91 241.81 436.94 241.8 436.96 241.8 436.97 241.8 437.04 241.8 437.08 241.8 437.1 241.8 437.13 241.79 437.15 241.79 437.17 241.79 437.2 241.79 437.22 241.79 437.24 241.79 437.26 241.79 437.29 241.79 437.33 241.79 437.34 241.79 437.36 241.79 437.38 241.79 437.4 241.79 437.41 241.79 437.43 241.79 437.44 241.79 437.46 241.79 437.48 241.8 437.5 241.8 437.51 241.8 437.53 241.81 437.55 241.81 437.56 241.81 437.58 241.81 437.6 241.82 437.62 241.82 437.64 241.82 437.66 241.82 437.67 241.82 437.69 241.82 437.73 241.82 437.74 241.82 437.76 241.82 437.78 241.82 437.8 241.82 437.81 241.82 437.83 241.82 437.85 241.83 437.87 241.83 437.88 241.83 437.9 241.83 437.92 241.83 437.97 241.84 437.99 241.84 438.06 241.85 438.07 241.86 438.09 241.86 438.11 241.86 438.13 241.86 438.15 241.86 438.17 241.86 438.18 241.86 438.2 241.87 438.22 241.87 438.24 241.87 438.25 241.87 438.27 241.87 438.29 241.87 438.31 241.87 438.32 241.87 438.34 241.87 438.37 241.87 438.41 241.87 438.44 241.87 438.46 241.88 438.48 241.88 438.5 241.88 438.51 241.88 438.53 241.88 438.55 241.88 438.57 241.88 438.58 241.88 438.6 241.88 438.62 241.88 438.64 241.88 438.69 241.88 438.71 241.88 438.72 241.88 438.74 241.88 438.76 241.88 438.78 241.88 438.8 241.88 438.82 241.88 438.83 241.88 438.85 241.88 438.86 241.88 438.91 241.88 438.92 241.88 438.94 241.88 438.96 241.88 438.97 241.88 438.99 241.89 439.01 241.89 439.03 241.89 439.04 241.89 439.06 241.89 439.07 241.9 439.09 241.9 439.11 241.91 439.13 241.91 439.14 241.91 439.16 241.91 439.18 241.91 439.2 241.91 439.21 241.91 439.22 241.91 439.24 241.91 439.26 241.91 439.28 241.91 439.29 241.91 439.31 241.91 439.33 241.92 439.45 241.92 439.46 241.92 439.49 241.92 439.51 241.92 439.53 241.92 439.55 241.92 439.58 241.92 439.6 241.92 439.61 241.92 439.63 241.92 439.65 241.92 439.67 241.92 439.68 241.92 439.71 241.92 439.72 241.93 439.74 241.93 439.76 241.93 439.78 241.93 439.79 241.93 439.86 241.94 439.86 241.95 439.86 241.97 439.85 241.99 439.85 242 439.85 242.02 439.85 242.04 439.85 242.06 439.84 242.13 439.83 242.15 439.83 242.18 439.83 242.2 439.82 242.22 439.82 242.23 439.82 242.25 439.81 242.28 439.81 242.29 439.81 242.31 439.81 242.33 439.8 242.35 439.8 242.37 439.79 242.38 439.79 242.39 439.79 242.41 439.78 242.42 439.77 242.44 439.77 242.46 439.76 242.47 439.75 242.49 439.75 242.51 439.74 242.52 439.73 242.54 439.72 242.56 439.71 242.57 439.71 242.59 439.7 242.6 439.7 242.61 439.69 242.63 439.69 242.64 439.68 242.66 439.68 242.68 439.65 242.74 439.65 242.75 439.64 242.77 439.64 242.78 439.63 242.8 439.62 242.82 439.61 242.84 439.61 242.85 439.6 242.86 439.59 242.87 439.5 242.89 439.45 242.9 439.43 242.9 439.4 242.9 439.35 242.9 439.33 242.9 439.3 242.91 439.28 242.91 439.26 242.91 439.24 242.91 439.23 242.91 439.21 242.91 439.19 242.91 439.17 242.91 439.15 242.91 439.14 242.91 439.12 242.91 439.1 242.91 439.08 242.91 439.07 242.9 439.03 242.9 438.98 242.9 438.95 242.9 438.93 242.89 438.91 242.89 438.9 242.89 438.88 242.89 438.86 242.89 438.83 242.88 438.81 242.88 438.77 242.88 438.76 242.88 438.74 242.87 438.73 242.87 438.71 242.87 438.7 242.87 438.68 242.87 438.66 242.87 438.64 242.87 438.62 242.87 438.6 242.87 438.58 242.87 438.57 242.87 438.56 242.87 438.54 242.87 438.52 242.86 438.5 242.86 438.47 242.85 438.45 242.85 438.44 242.85 438.42 242.84 438.4 242.84 438.38 242.84 438.36 242.84 438.35 242.84 438.33 242.84 438.31 242.84 438.29 242.84 438.28 242.84 438.26 242.84 438.25 242.84 438.23 242.84 438.21 242.84 438.17 242.84 438.14 242.84 438.12 242.84 438.11 242.84 438.09 242.84 438.07 242.84 438.06 242.84 438.04 242.84 438 242.84 437.99 242.84 437.98 242.83 437.96 242.83 437.94 242.83 437.91 242.83 437.89 242.83 437.87 242.83 437.85 242.83 437.83 242.83 437.81 242.83 437.78 242.83 437.76 242.83 437.74 242.83 437.72 242.83 437.71 242.83 437.67 242.83 437.65 242.83 437.63 242.83 437.61 242.89 437.6 242.91 437.6 242.94 437.59 242.96 437.59 242.99 437.58 243 437.58 243.04 437.57 243.08 437.56 243.12 437.55 243.16 437.55 243.18 437.54 243.19 437.54 243.21 437.53 243.23 437.53 243.24 437.52 243.26 437.52 243.28 437.52 243.29 437.51 243.29 437.5 243.34 437.5 243.35 437.49 243.37 437.48 243.41 437.48 243.43 437.47 243.46 437.46 243.48 437.46 243.5 437.46 243.51 437.45 243.53 437.45 243.55 437.45 243.56 437.45 243.58 437.45 243.59 437.44 243.6 437.44 243.62 437.43 243.64 437.43 243.65 437.42 243.67 437.41 243.69 437.41 243.71 437.38 243.77 437.38 243.79 437.37 243.8 437.36 243.82 437.35 243.84 437.35 243.85 437.34 243.87 437.33 243.89 437.32 243.9 437.31 243.92 437.31 243.94 437.3 243.95 437.29 243.97 437.28 243.99 437.27 244 437.24 244.05 437.23 244.06 437.23 244.08 437.22 244.09 437.21 244.11 437.19 244.14 437.19 244.15 437.18 244.17 437.17 244.19 437.16 244.2 437.15 244.22 437.13 244.25 437.12 244.26 437.11 244.28 437.1 244.29 437.09 244.31 437.09 244.32 437.08 244.34 437.07 244.35 437.06 244.37 437.06 244.38 437.05 244.39 437.05 244.41 437.04 244.42 437.03 244.46 437.02 244.47 437.01 244.49 437.01 244.51 437 244.52 436.99 244.55 436.98 244.57 436.97 244.59 436.96 244.61 436.96 244.62 436.95 244.64 436.95 244.66 436.94 244.68 436.94 244.69 436.93 244.71 436.92 244.72 436.92 244.74 436.91 244.76 436.91 244.77 436.91 244.79 436.9 244.81 436.9 244.83 436.9 244.85 436.9 244.86 436.9 244.88 436.83 244.84 436.81 244.82 436.79 244.81 436.78 244.8 436.77 244.79 436.75 244.78 436.74 244.76 436.72 244.75 436.71 244.74 436.69 244.72 436.68 244.71 436.67 244.7 436.66 244.69 436.6 244.63 436.59 244.61 436.57 244.58 436.56 244.57 436.55 244.55 436.54 244.54 436.53 244.53 436.52 244.52 436.51 244.51 436.5 244.49 436.49 244.48 436.48 244.46 436.47 244.45 436.46 244.43 436.45 244.42 436.44 244.41 436.41 244.38 436.4 244.37 436.4 244.36 436.37 244.38 436.33 244.4 436.27 244.46 436.26 244.47 436.24 244.48 436.23 244.49 436.22 244.51 436.2 244.52 436.19 244.53 436.18 244.54 436.17 244.55 436.16 244.56 436.15 244.58 436.14 244.59 436.13 244.6 436.11 244.62 436.1 244.63 436.1 244.64 436.09 244.65 436.08 244.67 436.06 244.68 436.05 244.69 436.04 244.71 436.03 244.72 436.02 244.74 436 244.77 435.96 244.82 435.95 244.83 435.94 244.85 435.93 244.86 435.92 244.87 435.91 244.89 435.9 244.9 435.89 244.91 435.88 244.93 435.86 244.95 435.85 244.96 435.84 244.99 435.83 245.01 435.82 245.02 435.81 245.03 435.8 245.05 435.79 245.06 435.78 245.08 435.77 245.09 435.77 245.1 435.76 245.11 435.75 245.13 435.73 245.14 435.72 245.15 435.71 245.17 435.7 245.18 435.69 245.19 435.67 245.2 435.66 245.21 435.64 245.24 435.62 245.25 435.61 245.26 435.6 245.27 435.59 245.28 435.57 245.29 435.56 245.3 435.54 245.31 435.51 245.33 435.5 245.33 435.48 245.34 435.46 245.35 435.43 245.37 435.42 245.38 435.4 245.39 435.39 245.4 435.37 245.41 435.36 245.42 435.3 245.45 435.28 245.46 435.23 245.49 435.22 245.5 435.2 245.51 435.19 245.52 435.18 245.52 435.15 245.54 435.14 245.55 435.12 245.56 435.11 245.57 435.1 245.59 435.1 245.6 435.1 245.61 435.09 245.62 435.1 245.64 435.1 245.65 435.1 245.67 435.11 245.68 435.11 245.69 435.11 245.71 435.11 245.73 435.12 245.74 435.11 245.75 435.1 245.76 435.09 245.78 435.08 245.79 435.08 245.81 435.07 245.83 435.07 245.85 435.07 245.86 435.08 245.87 435.09 245.89 435.1 245.89 435.11 245.91 435.12 245.92 435.13 245.94 435.13 245.95 435.13 245.96 435.11 245.97 435.1 245.97 435.08 245.98 435.06 245.98 435.04 245.99 435.02 245.99 435 245.99 434.98 245.99 434.96 245.99 434.95 245.99 434.93 245.99 434.9 245.99 434.88 245.99 434.86 245.98 434.84 245.98 434.82 245.97 434.82 246 434.82 246.01 434.81 246.27 434.81 246.82 434.81 246.84 434.81 246.85 434.81 246.85 434.81 246.86 434.8 246.88 434.79 246.89 434.77 246.93 434.76 246.95 434.6 247.32 434.53 247.49 434.52 247.51 434.51 247.52 434.5 247.53 434.49 247.54 434.47 247.54 434.45 247.54 434.44 247.54 434.42 247.54 434.4 247.55 434.31 247.77 434.28 247.86 434.27 247.88 434.27 247.9 434.26 247.91 434.26 247.93 434.26 247.95 434.25 247.96 434.25 247.97 434.24 247.99 434.24 248.01 434.24 248.03 434.23 248.04 434.23 248.06 434.23 248.08 434.23 248.1 434.23 248.11 434.23 248.13 434.23 248.15 434.23 248.16 434.23 248.18 434.23 248.2 434.23 248.21 434.23 248.23 434.22 248.25 434.22 248.27 434.21 248.28 434.21 248.29 434.17 248.51 433.95 248.45 433.87 248.85 434.05 248.87 434.01 249.11 433.84 249.14 433.53 249.21 433.47 249.45 433.47 249.47 433.47 249.49 433.46 249.51 433.42 249.66 433.4 249.89 433.4 249.92 433.4 249.94 433.4 249.94 433.4 249.95 433.4 250.01 433.4 250.05 433.39 250.19 433.39 250.2 433.4 250.21 433.44 250.21 433.51 250.23 433.52 250.24 433.56 250.24 433.58 250.25 433.59 250.25 433.62 250.25 433.64 250.26 433.66 250.26 433.67 250.26 433.71 250.27 433.75 250.28 433.77 250.28 433.78 250.28 433.8 250.28 433.82 250.28 433.84 250.27 433.85 250.27 433.87 250.26 433.89 250.26 433.89 250.25 433.91 250.24 433.92 250.24 433.93 250.25 433.95 250.32 433.96 250.34 433.96 250.35 433.96 250.38 433.96 250.4 433.96 250.41 433.96 250.43 433.96 250.44 433.94 250.84 433.95 250.85 434 250.86 434.02 250.86 434.04 250.86 434.06 250.87 434.07 250.87 434.09 250.87 434.1 250.88 434.12 250.88 434.14 250.89 434.16 250.89 434.18 250.89 434.2 250.89 434.21 250.89 434.25 250.97 434.26 250.99 434.27 251 434.27 251.01 434.28 251.03 434.29 251.05 434.3 251.07 434.3 251.09 434.3 251.1 434.31 251.11 434.42 251.13 434.53 251.14 434.55 251.15 434.57 251.15 434.58 251.15 434.6 251.15 434.62 251.15 434.64 251.15 434.65 251.15 434.66 251.15 434.68 251.15 434.7 251.14 434.72 251.14 434.73 251.14 434.75 251.13 434.77 251.13 434.78 251.12 434.8 251.12 434.82 251.11 434.83 251.1 434.85 251.09 434.86 251.08 434.87 251.07 434.89 251.06 434.9 251.04 434.91 251.03 434.92 251.03 434.93 251.02 434.94 251.01 434.95 251 434.97 250.99 434.98 250.97 435.01 250.95 435.02 250.93 435.04 250.92 435.05 250.91 435.06 250.9 435.08 250.9 435.1 250.89 435.13 250.89 435.14 250.89 435.16 250.89 435.18 250.89 435.21 250.89 435.28 250.89 435.32 250.89 435.34 250.89 435.35 250.89 435.37 250.89 435.39 250.89 435.42 250.89 435.44 250.89 435.46 250.89 435.47 250.89 435.49 250.89 435.51 250.9 435.53 250.9 435.54 250.9 435.63 250.91 435.65 250.91 435.66 250.91 435.68 250.91 435.7 250.91 435.71 250.91 435.73 250.91 435.74 250.92 435.76 250.92 435.78 250.92 435.8 250.93 435.81 250.93 435.83 250.93 435.86 250.93 435.88 250.93 435.89 250.93 435.91 250.94 435.93 250.94 435.94 250.94 435.93 251.01 435.93 251.03 435.93 251.05 435.92 251.07 435.92 251.08 435.92 251.1 435.92 251.11 435.91 251.13 435.91 251.14 435.9 251.16 435.9 251.19 435.89 251.21 435.89 251.22 435.88 251.25 435.87 251.27 435.87 251.28 435.87 251.3 435.86 251.31 435.88 251.37 435.88 251.38 435.89 251.4 435.89 251.42 435.89 251.43 435.9 251.45 435.9 251.47 435.9 251.49 435.9 251.5 435.9 251.52 435.9 251.54 435.89 251.58 435.89 251.59 435.89 251.61 435.89 251.63 435.88 251.65 435.88 251.67 435.88 251.68 435.88 251.7 435.88 251.71 435.89 251.72 435.91 251.74 435.92 251.74 435.99 251.76 436.01 251.77 436.03 251.77 436.04 251.77 436.06 251.77 436.07 251.76 436.09 251.75 436.1 251.74 436.11 251.73 436.12 251.72 436.13 251.71 436.16 251.69 436.19 251.66 436.23 251.63 436.26 251.6 436.29 251.58 436.3 251.57 436.31 251.55 436.33 251.54 436.34 251.54 436.35 251.52 436.37 251.51 436.38 251.5 436.39 251.49 436.41 251.48 436.44 251.49 436.47 251.45 436.48 251.44 436.49 251.42 436.5 251.41 436.51 251.4 436.52 251.39 436.54 251.38 436.55 251.37 436.57 251.36 436.59 251.35 436.61 251.34 436.62 251.32 436.63 251.31 436.65 251.3 436.66 251.29 436.89 251.15 436.94 251.11 437.01 251.04 437.02 251.03 437.03 251.02 437.04 251.01 437.06 251 437.07 250.99 437.08 250.97 437.1 250.96 437.1 250.96 437.11 250.94 437.12 250.93 437.13 250.91 437.14 250.9 437.15 250.88 437.16 250.87 437.17 250.85 437.17 250.83 437.18 250.82 437.18 250.8 437.19 250.79 437.19 250.77 437.2 250.75 437.2 250.73 437.21 250.7 437.21 250.68 437.22 250.66 437.22 250.65 437.23 250.63 437.23 250.61 437.23 250.59 437.23 250.58 437.24 250.56 437.24 250.54 437.25 250.53 437.25 250.51 437.25 250.5 437.26 250.48 437.27 250.46 437.27 250.45 437.28 250.43 437.29 250.41 437.3 250.4 437.3 250.37 437.3 250.35 437.31 250.34 437.31 250.33 437.31 250.31 437.32 250.29 437.32 250.28 437.32 250.28 437.33 250.23 437.48 250.26 437.94 250.33 438.06 250.35 438.24 250.38 438.31 250.39 438.34 250.4 438.34 250.43 438.31 250.57 438.3 250.62 438.3 250.66 438.3 250.68 438.28 250.78 438.28 250.81 438.25 250.98 438.24 251.02 438.21 251.23 438.2 251.24 438.2 251.25 438.2 251.26 438.2 251.27 438.2 251.29 438.19 251.31 438.19 251.33 438.18 251.35 438.18 251.37 438.18 251.38 438.17 251.4 438.16 251.43 438.15 251.47 438.15 251.49 438.14 251.51 438.11 251.63 438.1 251.69 438.09 251.72 438.08 251.75 438.08 251.75 438.07 251.79 438.06 251.82 438.06 251.84 438.05 251.87 438.03 251.95 438.03 251.96 438.01 252.01 438.01 252.03 438 252.08 437.96 252.29 437.93 252.41 437.93 252.43 437.93 252.44 437.92 252.46 437.92 252.47 437.92 252.49 437.92 252.51 437.91 252.52 437.91 252.54 437.9 252.59 437.89 252.61 437.89 252.63 437.89 252.64 437.88 252.66 437.88 252.68 437.88 252.69 437.87 252.73 437.86 252.76 437.86 252.78 437.86 252.79 437.85 252.81 437.85 252.83 437.84 252.85 437.84 252.87 437.84 252.88 437.83 252.9 437.81 252.97 437.8 253 437.8 253.02 437.79 253.04 437.78 253.09 437.78 253.1 437.77 253.13 437.77 253.15 437.77 253.16 437.76 253.18 437.76 253.2 437.75 253.22 437.75 253.24 437.75 253.25 437.74 253.28 437.74 253.29 437.73 253.33 437.73 253.35 437.73 253.36 437.72 253.38 437.72 253.39 437.71 253.41 437.71 253.43 437.7 253.44 437.7 253.46 437.69 253.48 437.68 253.49 437.67 253.53 437.66 253.55 437.66 253.57 437.65 253.58 437.64 253.6 437.63 253.62 437.63 253.63 437.62 253.65 437.61 253.66 437.6 253.68 437.59 253.7 437.58 253.72 437.57 253.73 437.57 253.75 437.56 253.76 437.56 253.78 437.55 253.79 437.55 253.81 437.54 253.83 437.54 253.84 437.53 253.88 437.53 253.89 437.52 253.91 437.52 253.93 437.51 253.95 437.51 253.96 437.5 254 437.49 254.01 437.49 254.03 437.48 254.05 437.48 254.06 437.47 254.08 437.46 254.1 437.46 254.11 437.45 254.13 437.44 254.15 437.44 254.16 437.43 254.18 437.41 254.21 437.41 254.22 437.4 254.24 437.39 254.26 437.39 254.27 437.38 254.29 437.38 254.3 437.37 254.32 437.36 254.33 437.36 254.35 437.35 254.37 437.34 254.4 437.33 254.42 437.33 254.43 437.31 254.48 437.31 254.5 437.3 254.52 437.3 254.53 437.29 254.55 437.29 254.57 437.28 254.61 437.27 254.62 437.27 254.64 437.27 254.66 437.26 254.68 437.26 254.69 437.26 254.71 437.27 254.73 437.27 254.75 437.28 254.78 437.28 254.8 437.28 254.81 437.29 254.83 437.29 254.85 437.3 254.86 437.3 254.87 437.3 254.89 437.31 254.91 437.31 254.92 437.32 254.94 437.32 254.96 437.32 254.98 437.33 254.99 437.33 255.01 437.33 255.03 437.33 255.05 437.34 255.07 437.34 255.08 437.34 255.1 437.34 255.12 437.34 255.15 437.34 255.17 437.34 255.19 437.34 255.21 437.34 255.22 437.34 255.24 437.34 255.26 437.34 255.28 437.34 255.28 437.34 255.3 437.34 255.32 437.34 255.34 437.34 255.35 437.34 255.37 437.34 255.39 437.34 255.41 437.33 255.43 437.33 255.45 437.33 255.46 437.32 255.48 437.32 255.5 437.32 255.51 437.31 255.53 437.31 255.55 437.31 255.57 437.3 255.62 437.29 255.64 437.29 255.67 437.28 255.7 437.28 255.72 437.26 255.83 437.25 255.84 437.25 255.86 437.25 255.88 437.25 255.89 437.24 255.91 437.24 255.93 437.24 255.94 437.24 256.02 437.2 256.34 437.2 256.35 437.2 256.37 437.2 256.39 437.2 256.4 437.2 256.42 437.2 256.43 437.2 256.45 437.2 256.48 437.2 256.5 437.2 256.52 437.2 256.54 437.2 256.55 437.2 256.57 437.2 256.58 437.2 256.6 437.2 256.64 437.2 256.65 437.2 256.66 437.2 256.68 437.19 256.7 437.19 256.76 437.19 256.78 437.19 256.8 437.19 256.85 437.19 256.87 437.19 256.9 437.19 256.92 437.19 256.93 437.19 256.95 437.19 256.97 437.19 256.99 437.19 257.01 437.19 257.02 437.19 257.04 437.19 257.09 437.19 257.11 437.19 257.13 437.2 257.15 437.2 257.18 437.2 257.2 437.2 257.22 437.2 257.24 437.2 257.25 437.2 257.27 437.2 257.28 437.19 257.3 437.19 257.32 437.19 257.33 437.19 257.35 437.19 257.37 437.18 257.39 437.18 257.41 437.18 257.42 437.18 257.44 437.18 257.46 437.18 257.48 437.18 257.49 437.18 257.51 437.18 257.52 437.18 257.54 437.18 257.56 437.18 257.57 437.18 257.59 437.18 257.61 437.18 257.63 437.18 257.64 437.18 257.66 437.18 257.68 437.18 257.7 437.18 257.71 437.18 257.73 437.18 257.76 437.18 257.78 437.18 257.81 437.18 257.83 437.18 257.85 437.18 257.87 437.18 257.89 437.18 257.9 437.18 257.92 437.18 257.96 437.18 257.97 437.18 257.99 437.18 258.03 437.18 258.04 437.19 258.08 437.19 258.1 437.19 258.13 437.19 258.16 437.19 258.18 437.19 258.24 437.19 258.27 437.19 258.3 437.19 258.31 437.2 258.36 437.2 258.39 437.2 258.41 437.2 258.45 437.2 258.59 437.2 258.65 437.2 258.67 437.2 258.7 437.2 258.72 437.2 258.74 437.2 258.76 437.2 258.83 437.2 258.84 437.2 258.88 437.2 258.91 437.2 258.97 437.2 259 437.2 259.04 437.2 259.06 437.2 259.09 437.2 259.13 437.2 259.16 437.2 259.18 437.2 259.2 437.2 259.21 437.2 259.23 437.2 259.26 437.2 259.28 437.2 259.3 437.2 259.31 437.19 259.33 437.19 259.35 437.19 259.38 437.19 259.44 437.18 259.5 437.18 259.54 437.18 259.55 437.18 259.57 437.18 259.61 437.18 259.62 437.17 259.66 437.17 259.71 437.1 261.59 437.09 261.61 437.09 261.83 437.08 261.82 437.06 261.82 437.04 261.83 437.03 261.83 437.02 261.84 437 261.85 436.99 261.86 436.98 261.86 436.96 261.86 436.95 261.85 436.93 261.85 436.92 261.84 436.9 261.84 436.89 261.83 436.87 261.83 436.86 261.83 436.84 261.84 436.82 261.85 436.81 261.84 436.79 261.84 436.78 261.82 436.76 261.82 436.75 261.83 436.74 261.85 436.73 261.86 436.72 261.87 436.7 261.88 436.63 261.9 436.61 261.9 436.59 261.89 436.59 261.88 436.58 261.87 436.57 261.86 436.56 261.84 436.55 261.83 436.53 261.82 436.51 261.82 436.49 261.81 436.47 261.8 436.46 261.8 436.44 261.79 436.43 261.78 436.41 261.77 436.4 261.76 436.38 261.76 436.36 261.75 436.34 261.75 436.33 261.75 436.31 261.75 436.3 261.75 436.28 261.74 436.27 261.73 436.26 261.72 436.24 261.7 436.22 261.7 436.21 261.7 436.19 261.69 436.17 261.69 436.15 261.69 436.13 261.69 436.12 261.69 436.1 261.69 436.08 261.7 436.07 261.7 436.05 261.7 436.04 261.71 436.02 261.71 436.01 261.71 435.99 261.7 435.97 261.7 435.96 261.69 435.95 261.69 435.93 261.68 435.91 261.68 435.89 261.68 435.88 261.68 435.86 261.67 435.85 261.66 435.83 261.66 435.82 261.66 435.8 261.66 435.78 261.67 435.77 261.67 435.75 261.67 435.73 261.67 435.71 261.67 435.69 261.67 435.68 261.67 435.67 261.67 435.65 261.68 435.63 261.68 435.62 261.68 435.6 261.67 435.58 261.66 435.56 261.66 435.55 261.66 435.53 261.67 435.52 261.68 435.5 261.68 435.49 261.69 435.48 261.7 435.46 261.71 435.44 261.7 435.43 261.69 435.42 261.68 435.4 261.67 435.39 261.66 435.37 261.66 435.35 261.67 435.34 261.68 435.33 261.69 435.32 261.7 435.3 261.71 435.29 261.71 435.27 261.72 435.25 261.72 435.24 261.73 435.23 261.74 435.21 261.75 435.2 261.76 435.18 261.76 435.16 261.76 435.14 261.75 435.12 261.74 435.11 261.74 435.1 261.73 435.03 261.77 435.02 261.78 435 261.79 434.99 261.8 434.98 261.8 434.96 261.81 434.95 261.81 434.93 261.81 434.91 261.81 434.89 261.81 434.87 261.8 434.86 261.79 434.83 261.83 434.81 261.84 434.8 261.84 434.77 261.84 434.76 261.84 434.74 261.83 434.73 261.83 434.71 261.83 434.69 261.84 434.68 261.84 434.67 261.85 434.65 261.85 434.63 261.85 434.62 261.85 434.6 261.85 434.58 261.85 434.56 261.85 434.55 261.85 434.53 261.85 434.51 261.86 434.5 261.86 434.49 261.86 434.47 261.85 434.45 261.85 434.44 261.84 434.42 261.83 434.41 261.82 434.39 261.82 434.38 261.81 434.36 261.81 434.35 261.82 434.34 261.82 434.32 261.83 434.25 261.78 434.24 261.82 434.23 261.84 434.22 261.85 434.21 261.86 434.19 261.87 434.18 261.88 434.16 261.88 434.15 261.84 434.15 261.82 434.14 261.8 434.12 261.79 434.1 261.79 434.08 261.79 434.07 261.8 434.05 261.81 434.04 261.83 434.03 261.84 434.02 261.86 434.01 261.87 434 261.88 433.99 261.89 433.98 261.9 433.97 261.92 433.96 261.93 433.95 261.95 433.94 261.96 433.92 261.94 433.92 261.93 433.9 261.92 433.89 261.91 433.87 261.9 433.86 261.9 433.84 261.9 433.82 261.9 433.8 261.9 433.78 261.9 433.78 261.9 433.76 261.92 433.75 261.93 433.74 261.93 433.73 261.94 433.71 261.94 433.7 261.94 433.68 261.95 433.66 261.95 433.65 261.95 433.63 261.96 433.63 261.97 433.64 261.98 433.65 261.99 433.66 262 433.65 262.02 433.63 262.03 433.62 262.04 433.6 262.05 433.59 262.06 433.57 262.06 433.55 262.07 433.54 262.08 433.52 262.08 433.51 262.08 433.49 262.07 433.48 262.05 433.47 262.04 433.46 262.02 433.46 262 433.45 261.98 433.45 261.97 433.45 261.96 433.45 261.94 433.44 261.92 433.42 261.91 433.4 261.91 433.38 261.91 433.37 261.91 433.36 261.92 433.35 261.93 433.33 261.94 433.32 261.96 433.31 261.96 433.29 261.97 433.27 261.98 433.25 261.98 433.24 261.98 433.22 261.98 433.2 261.98 433.19 261.98 433.17 261.97 433.15 261.97 433.14 261.96 433.13 261.96 433.11 261.96 433.09 261.96 433.07 261.96 433.06 261.96 433.04 261.96 433.02 261.97 433 261.98 432.99 261.99 432.97 262 432.95 262.01 432.94 261.99 432.93 261.98 432.92 261.97 432.91 261.95 432.9 261.94 432.89 261.93 432.88 261.92 432.86 261.92 432.85 261.93 432.83 261.94 432.82 261.96 432.81 261.97 432.81 261.98 432.79 261.99 432.78 262 432.76 262 432.73 262.01 432.72 262.02 432.7 262.03 432.68 262.03 432.68 262.04 432.66 262.05 432.65 262.06 432.63 262.07 432.62 262.08 432.6 262.09 432.59 262.09 432.58 262.09 432.56 262.1 432.54 262.1 432.53 262.1 432.51 262.11 432.49 262.11 432.48 262.11 432.46 262.11 432.45 262.1 432.43 262.1 432.41 262.1 432.39 262.09 432.38 262.09 432.36 262.09 432.34 262.08 432.33 262.08 432.31 262.08 432.3 262.09 432.28 262.1 432.26 262.11 432.25 262.12 432.23 262.13 432.21 262.14 432.2 262.14 432.18 262.15 432.17 262.15 432.15 262.15 432.13 262.15 432.11 262.15 432.1 262.16 432.09 262.17 432.09 262.19 432.08 262.21 432.07 262.22 432.06 262.24 432.06 262.25 432.04 262.26 432.03 262.26 432.01 262.26 431.99 262.25 431.98 262.25 431.96 262.25 431.94 262.25 431.93 262.25 431.91 262.25 431.89 262.25 431.87 262.26 431.86 262.26 431.84 262.26 431.82 262.26 431.81 262.26 431.79 262.27 431.78 262.28 431.76 262.28 431.74 262.29 431.73 262.29 431.72 262.29 431.7 262.29 431.68 262.29 431.67 262.29 431.65 262.29 431.63 262.29 431.62 262.29 431.61 262.29 431.59 262.29 431.57 262.3 431.55 262.3 431.54 262.31 431.52 262.31 431.5 262.31 431.49 262.31 431.48 262.31 431.46 262.32 431.44 262.33 431.43 262.34 431.42 262.28 431.41 262.26 431.4 262.25 431.4 262.23 431.39 262.21 431.39 262.2 431.39 262.18 431.38 262.17 431.38 262.15 431.38 262.13 431.37 262.12 431.37 262.1 431.37 262.08 431.36 262.07 431.36 262.05 431.36 262.03 431.35 262.01 431.35 262 431.35 261.98 431.35 261.96 431.34 261.94 431.34 261.93 431.34 261.91 431.34 261.89 431.34 261.88 431.34 261.86 431.33 261.84 431.33 261.82 431.33 261.8 431.33 261.79 431.33 261.77 431.33 261.75 431.33 261.74 431.33 261.72 431.32 261.7 431.32 261.69 431.33 261.67 431.33 261.65 431.33 261.64 431.33 261.62 431.33 261.6 431.34 261.58 431.34 261.56 431.35 261.55 431.35 261.53 431.36 261.5 431.38 261.42 431.39 261.38 431.4 261.33 431.42 261.28 431.42 261.26 431.43 261.24 431.44 261.23 431.46 261.14 431.47 261.11 431.48 261.09 431.48 261.07 431.49 261.06 431.5 261.02 431.5 261.01 431.51 260.97 431.52 260.94 431.52 260.92 431.53 260.89 431.54 260.85 431.55 260.82 431.56 260.78 431.57 260.77 431.58 260.73 431.58 260.72 431.58 260.7 431.59 260.68 431.6 260.67 431.61 260.62 431.62 260.6 431.62 260.58 431.63 260.57 431.63 260.55 431.64 260.53 431.64 260.52 431.64 260.51 431.64 260.49 431.65 260.47 431.65 260.46 431.65 260.44 431.66 260.42 431.66 260.41 431.66 260.39 431.67 260.35 431.67 260.34 431.67 260.32 431.68 260.29 431.68 260.26 431.68 260.24 431.69 260.19 431.7 260.17 431.7 260.15 431.71 260.1 431.71 260.08 431.71 260.06 431.72 260.04 431.72 260.03 431.72 260.01 431.74 259.96 431.74 259.94 431.74 259.92 431.74 259.91 431.75 259.89 431.75 259.87 431.75 259.86 431.75 259.85 431.76 259.83 431.76 259.81 431.76 259.79 431.76 259.78 431.76 259.76 431.76 259.74 431.77 259.72 431.77 259.71 431.77 259.69 431.77 259.67 431.77 259.65 431.77 259.64 431.77 259.62 431.77 259.6 431.77 259.59 431.77 259.58 431.77 259.56 431.77 259.54 431.77 259.52 431.76 259.51 431.76 259.49 431.76 259.47 431.76 259.46 431.76 259.44 431.75 259.42 431.75 259.4 431.75 259.39 431.75 259.37 431.74 259.36 431.74 259.34 431.74 259.32 431.73 259.31 431.73 259.29 431.73 259.27 431.72 259.26 431.71 259.21 431.71 259.2 431.71 259.19 431.7 259.17 431.7 259.15 431.69 259.14 431.69 259.12 431.69 259.1 431.68 259.08 431.68 259.06 431.68 259.05 431.67 259.03 431.67 259.01 431.67 258.99 431.67 258.97 431.67 258.96 431.66 258.94 431.66 258.92 431.66 258.91 431.66 258.89 431.66 258.87 431.66 258.85 431.66 258.83 431.66 258.82 431.65 258.8 431.65 258.78 431.65 258.76 431.65 258.75 431.65 258.73 431.65 258.71 431.65 258.69 431.65 258.68 431.65 258.66 431.65 258.64 431.66 258.62 431.66 258.6 431.66 258.59 431.66 258.57 431.66 258.55 431.66 258.53 431.66 258.52 431.66 258.5 431.67 258.46 431.67 258.43 431.68 258.39 431.68 258.35 431.69 258.32 431.69 258.3 431.69 258.28 431.69 258.27 431.7 258.25 431.7 258.23 431.7 258.21 431.71 258.19 431.71 258.17 431.72 258.15 431.72 258.13 431.72 258.12 431.73 258.1 431.73 258.07 431.74 258.03 431.75 258 431.76 257.97 431.76 257.95 431.77 257.94 431.77 257.92 431.78 257.89 431.79 257.85 431.8 257.84 431.8 257.82 431.81 257.8 431.81 257.78 431.81 257.77 431.82 257.74 431.82 257.73 431.82 257.71 431.83 257.69 431.83 257.67 431.83 257.66 431.83 257.6 431.84 257.58 431.85 257.51 431.85 257.49 431.85 257.46 431.85 257.42 431.86 257.4 431.86 257.39 431.86 257.37 431.86 257.33 431.86 257.32 431.86 257.3 431.86 257.29 431.87 257.27 431.87 257.25 431.87 257.24 431.87 257.2 431.87 257.18 431.88 257.18 431.89 257.09 431.89 257.08 431.9 257.06 431.9 257.05 431.91 257.03 431.91 257.01 431.92 257 431.92 256.98 431.93 256.96 431.93 256.95 431.94 256.93 431.94 256.91 431.95 256.9 431.95 256.89 431.96 256.87 431.97 256.85 431.98 256.83 431.99 256.82 431.99 256.81 432.02 256.77 432.03 256.75 432.04 256.73 432.05 256.72 432.05 256.7 432.07 256.67 432.08 256.65 432.09 256.64 432.09 256.62 432.1 256.61 432.11 256.59 432.11 256.58 432.12 256.56 432.13 256.55 432.13 256.53 432.14 256.51 432.14 256.5 432.15 256.48 432.15 256.46 432.16 256.45 432.16 256.43 432.16 256.41 432.17 256.36 432.17 256.35 432.18 256.31 432.18 256.3 432.19 256.28 432.19 256.26 432.19 256.24 432.2 256.23 432.2 256.21 432.2 256.2 432.2 256.18 432.2 256.16 432.2 256.14 432.2 256.09 432.2 256.05 432.2 256.03 432.2 256.01 432.2 256 432.2 255.98 432.2 255.96 432.2 255.94 432.2 255.92 432.2 255.91 432.2 255.89 432.2 255.87 432.19 255.86 432.19 255.85 432.19 255.83 432.19 255.81 432.18 255.8 432.18 255.78 432.17 255.75 432.16 255.72 432.16 255.71 432.15 255.67 432.14 255.66 432.14 255.64 432.14 255.62 432.13 255.61 432.13 255.59 432.13 255.57 432.14 255.55 432.14 255.54 432.14 255.52 432.14 255.5 432.14 255.48 432.14 255.47 432.14 255.45 432.14 255.43 432.14 255.41 432.14 255.4 432.15 255.38 432.15 255.37 432.15 255.35 432.16 255.33 432.16 255.31 432.17 255.3 432.17 255.28 432.17 255.27 432.18 255.25 432.18 255.24 432.18 255.22 432.19 255.19 432.19 255.17 432.2 255.15 432.2 255.13 432.2 255.11 432.2 255.09 432.2 255.08 432.2 255.06 432.2 255.04 432.2 255.02 432.21 254.77 432.23 254.42 432.23 254.41 432.23 254.39 432.26 253.83 432.29 253.28 432.34 252.21 432.35 252.16 432.35 252.02 432.35 252 432.36 251.96 432.36 251.92 432.42 251.54 432.48 251.23 432.48 251.2 432.53 250.97 432.53 250.94 432.53 250.89 432.54 250.88 432.54 250.86 432.55 250.84 432.55 250.83 432.55 250.81 432.55 250.8 432.56 250.78 432.56 250.77 432.56 250.76 432.57 250.7 432.58 250.68 432.58 250.67 432.58 250.65 432.59 250.63 432.59 250.6 432.6 250.58 432.6 250.55 432.61 250.53 432.61 250.52 432.61 250.5 432.62 250.48 432.62 250.46 432.62 250.44 432.63 250.42 432.63 250.39 432.63 250.37 432.63 250.35 432.63 250.34 432.62 250.31 432.6 250.31 432.58 250.31 432.55 250.3 432.53 250.3 432.52 250.3 432.51 250.31 432.49 250.31 432.47 250.31 432.46 250.32 432.45 250.32 432.43 250.32 432.41 250.32 432.39 250.32 432.37 250.32 432.35 250.31 432.34 250.31 432.31 250.31 432.3 250.31 432.28 250.31 432.27 250.31 432.25 250.31 432.23 250.31 432.21 250.31 432.2 250.3 432.18 250.3 432.15 250.3 432.13 250.3 432.09 250.3 432.05 250.29 432.05 250.31 432.04 250.31 432.02 250.31 432 250.3 431.98 250.3 431.96 250.3 431.93 250.29 431.8 250.28 431.71 250.27 431.72 250.19 431.72 250.13 431.72 250.03 431.65 250.01 431.64 250.01 431.63 250.01 431.6 250 431.57 250 431.56 249.99 431.55 249.99 431.5 249.98 431.44 249.97 431.43 249.97 431.39 249.96 431.37 249.96 431.34 249.95 431.29 249.94 431.25 249.94 431.22 249.93 431.18 249.92 431.17 249.92 431.15 249.92 431.07 249.9 431.06 249.9 431.04 249.89 430.71 249.82 430.69 249.81 430.66 249.77 430.65 249.76 430.64 249.75 430.56 249.66 430.52 249.61 430.48 249.57 430.58 248.96 430.58 248.94 430.58 248.92 430.58 248.9 430.64 248.54 430.64 248.52 430.64 248.51 430.64 248.49 430.64 248.48 430.65 248.46 430.65 248.44 430.65 248.43 430.65 248.41 430.65 248.4 430.65 248.36 430.65 248.36 430.66 248.33 430.66 248.3 430.66 248.28 430.56 248.21 430.43 248.11 430.48 247.5 430.48 247.48 430.41 246.91 430.41 246.88 430.4 246.82 430.4 246.79 430.37 246.52 430.5 246.45 430.49 246.39 430.49 246.37 430.48 246.32 430.48 246.31 430.47 246.27 430.46 246.22 430.46 246.2 430.46 246.19 430.46 246.17 430.45 246.14 430.45 246.12 430.45 246.1 430.44 246.08 430.44 246.07 430.44 246.05 430.43 246.03 430.43 246.02 430.42 245.97 430.41 245.95 430.41 245.92 430.4 245.9 430.4 245.89 430.39 245.87 430.39 245.85 430.39 245.84 430.39 245.83 430.38 245.81 430.38 245.79 430.38 245.77 430.37 245.75 430.37 245.74 430.37 245.73 430.36 245.69 430.35 245.67 430.34 245.64 430.33 245.6 430.33 245.58 430.32 245.56 430.32 245.55 430.31 245.51 430.31 245.5 430.3 245.46 430.29 245.45 430.29 245.42 430.28 245.39 430.27 245.36 430.27 245.34 430.26 245.32 430.26 245.31 430.25 245.29 430.25 245.28 430.24 245.26 430.23 245.24 430.23 245.22 430.22 245.21 430.22 245.2 430.22 245.18 430.2 245.15 430.2 245.13 430.19 245.11 430.19 245.1 430.18 245.08 430.18 245.06 430.17 245.05 430.17 245.03 430.16 245.02 430.16 245 430.15 244.97 430.15 244.95 430.14 244.93 430.14 244.92 430.13 244.91 430.13 244.89 430.12 244.88 430.12 244.86 430.11 244.84 430.1 244.82 430.1 244.82 430.09 244.8 430.09 244.78 430.08 244.77 430.07 244.75 430.06 244.74 430.06 244.72 430.05 244.7 430.05 244.69 430.04 244.67 430.04 244.65 430.03 244.64 430.03 244.61 430.02 244.59 430.01 244.56 430.01 244.54 430.01 244.53 430 244.51 430 244.49 430 244.48 429.99 244.46 429.99 244.43 429.99 244.41 429.99 244.4 429.99 244.38 429.98 244.36 429.98 244.34 429.98 244.32 429.98 244.3 429.98 244.29 429.99 244.27 429.99 244.26 429.99 244.24 429.99 244.22 429.99 244.21 430 244.19 430 244.17 430.01 244.16 430.01 244.15 430.01 244.13 430.02 244.12 430.03 244.1 430.03 244.08 430.04 244.07 430.05 244.05 430.06 244.04 430.07 244.02 430.07 244.01 430.08 243.99 430.09 243.98 430.1 243.96 430.11 243.95 430.14 243.91 430.15 243.9 430.16 243.89 430.17 243.88 430.18 243.86 430.19 243.85 430.22 243.81 430.25 243.77 430.27 243.75 430.28 243.73 430.29 243.72 430.3 243.71 430.32 243.69 430.33 243.67 430.34 243.66 430.35 243.64 430.36 243.63 430.36 243.61 430.37 243.6 430.38 243.58 430.4 243.56 430.41 243.54 430.42 243.53 430.42 243.51 430.42 243.49 430.42 243.48 430.42 243.46 430.42 243.44 430.42 243.44 430.42 243.42 430.42 243.4 430.42 243.38 430.42 243.37 430.42 243.35 430.41 243.33 430.41 243.31 430.4 243.3 430.4 243.28 430.39 243.26 430.39 243.24 430.38 243.23 430.38 243.21 430.37 243.19 430.37 243.18 430.36 243.17 430.36 243.15 430.35 243.13 430.35 243.12 430.34 243.1 430.34 243.08 430.33 243.07 430.32 243.05 430.32 243.04 430.31 243.02 430.3 243.01 430.29 242.97 430.28 242.96 430.27 242.94 430.27 242.93 430.26 242.91 430.25 242.9 430.25 242.88 430.24 242.87 430.23 242.85 430.23 242.83 430.21 242.79 430.21 242.77 430.2 242.75 430.19 242.74 430.19 242.72 430.18 242.7 430.18 242.69 430.17 242.67 430.17 242.66 430.17 242.64 430.16 242.62 430.15 242.6 430.15 242.58 430.14 242.57 430.14 242.56 Z"/>
</g></svg>