<svg xmlns="http://www.w3.org/2000/svg" version="1.2" baseProfile="tiny" stroke-linecap="round" stroke-linejoin="round" viewBox="616.6 100.15 25.48 29.8"><g xmlns="http://www.w3.org/2000/svg" id="Irisarri">
<path d="M 616.63 100.23 617 100.15 617.3 100.2 617.48 100.24 618.61 100.37 618.63 100.39 618.65 100.41 618.67 100.42 618.7 100.45 618.73 100.47 618.74 100.47 618.76 100.47 618.77 100.47 618.79 100.49 618.8 100.5 618.84 100.51 618.87 100.51 618.9 100.52 618.93 100.52 618.95 100.53 618.97 100.55 619 100.57 619.03 100.58 619.05 100.59 619.11 100.63 619.15 100.64 619.18 100.66 619.2 100.67 619.23 100.69 619.25 100.72 619.28 100.74 619.3 100.76 619.32 100.77 619.34 100.78 619.35 100.8 619.37 100.82 619.38 100.83 619.42 100.85 619.45 100.86 619.48 100.87 619.51 100.88 619.53 100.9 619.56 100.92 619.59 100.94 619.61 100.96 619.64 100.98 619.67 101.01 619.7 101.04 619.75 101.08 619.79 101.11 619.82 101.14 620.56 101.13 621.3 101.13 621.35 101.13 621.39 101.12 621.43 101.12 621.46 101.11 621.5 101.11 621.52 101.11 621.56 101.12 621.59 101.12 621.62 101.12 621.66 101.1 621.68 101.1 621.68 101.11 621.7 101.13 622.35 101.14 623 101.14 623.64 101.14 623.68 101.15 623.72 101.16 623.78 101.15 623.82 101.16 624.53 101.03 624.7 101.18 624.75 101.19 624.77 101.19 624.81 101.21 624.85 101.23 624.88 101.25 624.92 101.25 624.95 101.25 624.97 101.26 625 101.28 625.03 101.32 625.08 101.35 625.11 101.38 625.18 101.42 625.25 101.46 625.28 101.47 625.32 101.48 625.35 101.49 625.38 101.49 625.39 101.48 625.68 101.4 625.92 101.43 625.98 101.48 626.06 101.53 626.08 101.58 626.1 101.59 626.12 101.59 626.15 101.6 626.18 101.62 626.19 101.63 626.21 101.66 626.25 101.68 626.31 101.71 626.37 101.73 626.45 101.74 626.51 101.73 626.59 101.72 626.63 101.71 626.64 101.71 626.67 101.71 626.7 101.72 626.72 101.73 626.74 101.75 626.78 101.78 626.82 101.83 626.84 101.86 626.89 101.9 626.92 101.94 626.95 101.97 627.01 102 627.04 102.02 627.1 102.04 627.15 102.07 627.19 102.09 627.24 102.1 627.28 102.11 627.33 102.11 627.38 102.12 627.43 102.13 627.49 102.14 627.57 102.14 627.63 102.16 627.68 102.17 627.7 102.2 627.73 102.24 627.78 102.33 627.82 102.39 627.87 102.45 627.89 102.48 627.92 102.57 627.94 102.61 627.94 102.64 627.96 102.68 627.97 102.74 627.99 102.79 628.01 102.83 628.03 102.86 628.1 102.76 628.13 102.8 628.16 102.83 628.19 102.88 628.21 102.9 628.23 102.92 628.27 102.93 628.34 102.96 628.42 102.99 628.44 103 628.46 103.01 628.49 103.05 628.57 103.16 628.62 103.24 628.64 103.26 628.67 103.32 628.7 103.38 628.73 103.42 628.75 103.44 628.75 103.47 628.77 103.53 628.78 103.58 628.82 103.66 628.84 103.72 628.87 103.79 628.91 103.87 628.94 103.92 628.99 103.98 629.04 104.05 629.12 104.16 629.19 104.24 629.29 104.33 629.4 104.42 629.44 104.44 629.48 104.48 629.53 104.53 629.6 104.6 629.68 104.68 629.76 104.76 629.81 104.82 629.84 104.83 629.85 104.85 629.86 104.88 629.88 104.92 629.9 104.93 629.92 104.94 629.94 104.94 629.99 104.92 630.04 104.91 630.08 104.91 630.13 104.91 630.21 104.92 630.27 104.92 630.31 104.93 630.33 104.92 630.35 104.91 630.37 104.9 630.43 104.88 630.57 104.85 630.68 104.81 630.71 104.81 630.73 104.81 630.75 104.81 630.76 104.82 630.77 104.83 630.78 104.85 631.29 104.72 631.47 104.67 631.61 104.68 631.95 104.85 632.08 104.93 632.46 105.03 632.52 104.99 632.57 104.95 632.6 104.94 632.62 104.94 632.74 104.94 632.8 104.94 632.88 104.95 633.04 104.99 633.12 105.01 633.27 105.04 633.33 105.05 633.34 105.05 633.41 105.09 633.44 105.1 633.56 105.12 633.72 105.15 633.8 105.16 634.19 104.97 634.92 104.55 634.98 104.51 635.07 104.45 635.16 104.41 635.21 104.39 635.29 104.37 635.46 104.33 635.59 104.3 635.85 104.24 635.88 104.23 635.9 104.23 636.36 104.13 636.46 104.07 636.57 103.83 636.71 103.66 637.14 103.36 637.41 102.74 637.45 102.74 637.58 103.27 637.65 103.36 637.71 103.46 637.76 103.53 637.78 103.56 637.82 103.64 637.84 103.71 637.85 103.77 637.86 103.83 637.88 103.88 637.91 103.95 637.92 103.99 637.94 104.05 637.95 104.09 638.05 104.24 638.27 104.56 638.43 104.76 638.63 105.03 638.67 105.07 638.74 105.18 638.77 105.23 638.8 105.29 638.82 105.32 638.83 105.35 638.84 105.38 638.84 105.43 638.83 105.48 638.82 105.49 639.4 105.51 639.5 105.49 639.6 105.53 639.9 105.49 639.76 105.68 639.78 106.16 639.65 106.61 639.71 107.17 639.7 107.23 639.68 107.26 639.68 107.28 639.67 107.31 639.68 107.35 639.68 107.41 639.67 107.45 639.67 107.49 639.67 107.53 639.67 107.56 639.66 107.58 639.63 107.6 639.53 107.98 639.51 108.21 639.74 108.53 640.02 109.1 640.07 109.36 639.97 109.47 639.96 109.51 639.94 109.55 639.92 109.58 639.9 109.63 639.88 109.66 639.86 109.68 639.8 109.71 639.77 109.74 639.75 109.75 639.72 109.76 639.69 109.77 639.66 109.8 639.65 109.84 639.64 109.89 639.63 109.92 639.61 109.96 639.59 110 639.58 110.05 639.57 110.11 639.56 110.17 639.55 110.21 639.55 110.25 639.56 110.29 639.57 110.32 639.61 110.37 639.65 110.46 639.69 110.56 639.7 110.67 639.71 110.72 639.73 110.81 639.74 110.87 639.75 110.88 639.75 110.9 639.76 110.94 639.76 110.98 639.75 111.03 639.73 111.07 639.69 111.2 639.64 111.32 639.61 111.36 639.6 111.4 639.59 111.43 639.57 111.47 639.56 111.49 639.54 111.49 639.51 111.5 639.49 111.52 639.46 111.52 639.44 111.54 639.44 111.58 639.42 111.63 639.39 111.66 639.32 111.71 639.28 111.73 639.31 111.74 639.34 111.76 639.37 111.78 639.38 111.8 639.4 111.83 639.41 111.88 639.43 111.9 639.46 111.91 639.49 111.91 639.52 111.93 639.56 111.95 639.61 111.96 639.65 111.96 639.71 111.97 639.76 112 639.81 112.02 639.85 112.06 639.89 112.09 639.94 112.14 639.98 112.16 640.04 112.2 640.15 112.27 640.23 112.33 640.35 112.4 640.38 112.43 640.42 112.46 640.45 112.48 640.47 112.49 640.5 112.51 640.58 112.53 640.58 112.56 640.59 112.61 640.6 112.65 640.62 112.74 640.63 112.81 640.65 112.88 640.66 112.94 640.68 112.98 640.71 113.05 640.72 113.12 640.73 113.21 640.75 113.38 640.74 113.44 640.74 113.49 640.74 113.54 640.74 113.57 640.76 113.61 640.77 113.65 640.79 113.71 640.8 113.78 640.81 113.84 640.82 113.91 640.86 114.02 640.9 114.18 640.94 114.32 640.97 114.41 641.01 114.5 641.05 114.57 641.12 114.64 641.17 114.7 641.19 114.74 641.21 114.78 641.22 114.83 641.24 114.88 641.27 114.94 641.32 114.99 641.58 115.07 642.06 115.33 642.08 115.38 642.02 115.51 641.74 116.14 641.43 116.52 641.18 116.96 640.69 117.97 640.69 118.05 640.69 118.1 640.69 118.13 640.65 118.19 640.6 118.26 640.57 118.31 640.54 118.35 640.51 118.43 640.49 118.5 640.47 118.56 640.44 118.6 640.43 118.62 640.33 118.72 639.43 119.51 638.76 120.03 638.57 120.17 637.9 120.7 637.64 120.88 637.67 120.89 637.68 120.91 637.69 120.93 637.7 120.96 637.71 120.98 637.73 121.01 637.74 121.03 637.74 121.07 637.74 121.1 637.74 121.13 637.73 121.16 637.73 121.19 637.72 121.21 637.72 121.24 637.73 121.28 637.74 121.31 637.76 121.34 637.78 121.37 637.8 121.4 637.82 121.42 637.84 121.45 637.86 121.47 637.88 121.49 637.92 121.52 637.94 121.53 637.97 121.54 638.01 121.54 638.06 121.56 638.08 121.56 638.11 121.58 638.14 121.59 638.16 121.61 638.18 121.65 638.21 121.68 638.23 121.71 638.25 121.74 638.26 121.76 638.27 121.78 638.3 121.79 638.32 121.8 638.33 121.8 638.39 121.89 638.41 121.92 638.43 121.94 638.44 121.96 638.45 121.98 638.46 122.01 638.48 122.04 638.49 122.07 638.5 122.09 638.51 122.12 638.52 122.15 638.53 122.17 638.55 122.2 638.56 122.23 638.58 122.26 638.59 122.28 638.61 122.3 638.63 122.31 638.65 122.32 638.68 122.33 638.71 122.33 638.74 122.33 638.76 122.33 638.79 122.33 638.81 122.32 638.84 122.32 638.86 122.32 638.88 122.32 638.9 122.33 638.93 122.34 638.94 122.35 638.96 122.36 638.97 122.38 638.99 122.4 639.01 122.42 639.03 122.45 639.05 122.47 639.07 122.49 639.09 122.51 639.1 122.53 639.11 122.55 639.12 122.57 639.12 122.59 639.11 122.61 639.1 122.63 639.09 122.65 639.08 122.67 639.07 122.7 639.07 122.71 639.06 122.74 639.06 122.76 639.06 122.79 639.06 122.81 639.06 122.83 639.05 122.86 639.04 122.89 639.03 122.91 639.02 122.93 639.01 122.95 639 122.98 639 123 639 123.03 639.03 123.06 639.05 123.07 639.08 123.09 639.09 123.1 639.11 123.12 639.11 123.14 639.11 123.16 639.1 123.17 639.09 123.2 639.08 123.22 639.07 123.24 639.07 123.25 639.08 123.27 639.11 123.27 639.13 123.28 639.16 123.29 639.19 123.3 639.2 123.31 639.21 123.32 639.22 123.33 639.21 123.34 639.19 123.36 639.17 123.36 639.15 123.37 639.12 123.37 639.1 123.37 639.09 123.38 639.08 123.39 639.08 123.41 639.08 123.43 639.1 123.45 639.12 123.47 639.15 123.48 639.18 123.48 639.21 123.48 639.23 123.49 639.24 123.49 639.25 123.51 639.25 123.53 639.25 123.54 639.25 123.56 639.23 123.57 639.22 123.58 639.19 123.58 639.17 123.59 639.14 123.59 639.1 123.59 639.08 123.6 639.07 123.62 639.05 123.64 639.05 123.66 639.05 123.68 639.06 123.7 639.08 123.72 639.1 123.73 639.13 123.73 639.16 123.73 639.18 123.75 639.2 123.76 639.22 123.78 639.23 123.8 639.23 123.82 639.23 123.83 639.23 123.85 639.23 123.88 639.22 123.92 639.23 123.93 639.23 123.94 639.23 123.95 639.26 123.97 639.28 123.98 639.29 123.99 639.3 124 639.31 124.02 639.32 124.03 639.31 124.05 639.3 124.07 639.29 124.08 639.27 124.1 639.25 124.12 639.24 124.13 639.23 124.16 639.22 124.18 639.22 124.19 639.22 124.22 639.22 124.23 639.23 124.25 639.25 124.28 639.25 124.29 639.25 124.31 639.25 124.34 639.24 124.39 639.23 124.42 639.22 124.44 639.22 124.46 639.21 124.48 639.2 124.5 639.18 124.52 639.17 124.53 639.16 124.55 639.14 124.57 639.13 124.59 639.12 124.61 639.11 124.63 639.11 124.65 639.11 124.67 639.11 124.69 639.11 124.71 639.11 124.74 639.12 124.77 639.12 124.79 639.12 124.83 639.12 124.85 639.12 124.88 639.13 124.91 639.13 124.93 639.13 124.96 639.13 124.98 639.13 125 639.13 125.03 639.13 125.06 639.13 125.08 639.12 125.11 639.12 125.13 639.12 125.15 639.12 125.2 639.11 125.24 639.1 125.26 639.09 125.29 639.08 125.3 639.06 125.33 639.06 125.34 639.04 125.37 639.04 125.39 639.04 125.41 639.04 125.44 639.05 125.47 639.05 125.5 639.05 125.52 639.04 125.55 639.03 125.58 639.02 125.6 639 125.62 638.99 125.63 638.97 125.65 638.95 125.66 638.94 125.68 638.93 125.68 638.92 125.7 638.9 125.71 638.89 125.72 638.87 125.73 638.85 125.74 638.84 125.76 638.83 125.77 638.82 125.78 638.8 125.81 638.79 125.82 638.78 125.84 638.77 125.86 638.76 125.89 638.75 125.92 638.74 125.95 638.74 125.97 638.74 125.99 638.74 126 638.74 126.02 638.74 126.06 638.74 126.08 638.73 126.1 638.73 126.12 638.71 126.15 638.7 126.18 638.69 126.19 638.68 126.2 638.66 126.21 638.64 126.22 638.63 126.24 638.61 126.25 638.58 126.28 638.57 126.3 638.54 126.33 638.53 126.36 638.52 126.38 638.51 126.42 638.5 126.44 638.49 126.47 638.49 126.5 638.48 126.53 638.48 126.56 638.48 126.58 638.49 126.61 638.49 126.63 638.5 126.65 638.5 126.67 638.49 126.69 638.49 126.71 638.5 126.74 638.51 126.75 638.51 126.77 638.51 126.78 638.51 126.8 638.51 126.82 638.51 126.86 638.5 126.88 638.5 126.92 638.49 126.94 638.49 126.95 638.49 126.97 638.47 126.99 638.45 127 638.44 127.02 638.43 127.04 638.42 127.05 638.41 127.1 638.37 127.1 638.31 127.11 638.28 127.12 638.26 127.16 638.25 127.22 638.26 127.26 638.25 127.3 638.2 127.37 638.18 127.44 638.14 127.51 638.12 127.59 638.07 127.61 638.03 127.61 638 127.62 637.96 127.64 637.92 127.67 637.87 127.78 637.84 127.82 637.82 127.84 637.76 127.86 637.71 127.89 637.7 127.9 637.69 127.93 637.68 127.98 637.68 127.99 637.67 128 637.63 128.01 637.63 128.03 637.61 128.06 637.59 128.1 637.55 128.2 637.53 128.32 637.51 128.42 637.5 128.59 637.49 128.67 637.45 128.83 637.43 128.97 637.12 129.06 636.29 129.32 636.09 129.41 635.82 129.65 635.72 129.67 635.54 129.93 635.16 129.93 635.06 129.95 634.07 129.93 634.04 129.92 633.92 129.91 633.91 129.91 633.71 129.89 633.58 129.88 633.55 129.87 633.53 129.86 633.48 129.82 633.44 129.79 633.46 129.56 633.37 129.22 633.38 128.93 633.44 128.68 633.51 128.53 633.34 128 633.6 127.68 633.31 126.86 633.07 126.08 632.82 125.3 632.64 124.57 632.47 123.93 632.3 123.28 632.12 122.73 631.73 122.34 631.34 121.95 630.95 121.55 630.86 121.44 630.24 120.85 629.62 120.26 629.01 119.67 628.39 119.08 627.96 118.65 627.68 117.99 627.59 117.85 627.4 117.39 627.12 116.91 627.08 116.78 626.8 116.23 626.67 115.9 626.32 115.15 626.29 114.59 626.24 114.37 625.89 114.37 625.89 113.97 625.79 113.79 625.86 113.68 625.88 113.6 625.9 113.57 625.92 113.54 625.96 113.52 626.05 113.41 626.19 113.28 626.24 113.23 626.31 113.12 626.36 113.21 626.36 113.16 626.36 113.11 626.37 113.05 626.39 112.99 626.45 112.9 626.48 112.86 626.48 112.84 626.48 112.82 626.47 112.8 626.44 112.75 626.41 112.72 626.36 112.7 626.3 112.67 626.18 112.63 626.06 112.61 625.97 112.59 625.91 112.58 625.88 112.59 625.82 112.59 625.8 112.6 625.77 112.62 625.75 112.65 625.71 112.71 625.68 112.76 625.62 112.8 625.59 112.82 625.54 112.84 625.45 112.86 625.32 112.88 625.17 112.89 625.1 112.89 625.01 112.89 624.92 112.88 624.84 112.86 624.75 112.83 624.63 112.78 624.51 112.72 624.47 112.71 624.37 112.69 624.3 112.69 624.2 112.69 624.1 112.68 624.04 112.67 623.93 112.64 623.89 112.63 623.64 112.44 623.7 112.43 623.83 112.41 623.97 112.39 624.04 112.36 624.08 112.32 624.11 112.28 624.14 112.22 624.18 112.18 624.23 112.14 624.28 112.09 624.4 111.99 624.48 111.9 624.59 111.83 624.62 111.78 624.64 111.74 624.66 111.7 624.66 111.65 624.66 111.62 624.66 111.57 624.65 111.52 624.65 111.47 624.64 111.42 624.65 111.39 624.67 111.36 624.7 111.34 624.72 111.32 624.77 111.28 624.8 111.25 624.82 111.2 624.85 111.15 624.87 111.11 624.9 111.07 624.94 111.05 624.98 111.04 625.03 111.03 625.07 111.03 625.12 111.03 625.16 111.04 625.18 111.04 625.19 111.04 625.23 111.01 625.26 110.98 625.32 110.95 625.33 110.94 625.36 110.93 625.4 110.9 625.43 110.88 625.45 110.85 625.47 110.82 625.48 110.78 625.48 110.73 625.5 110.7 625.53 110.69 625.55 110.68 625.59 110.66 625.62 110.64 625.66 110.61 625.67 110.6 625.71 110.59 625.75 110.6 625.77 110.59 625.81 110.57 625.84 110.54 625.85 110.48 625.86 110.43 625.87 110.37 625.89 110.34 625.92 110.3 625.95 110.28 625.98 110.25 625.99 110.23 626 110.19 625.99 110.15 625.99 110.1 625.99 110.06 626 110.03 626.02 110 626.03 109.97 626.03 109.93 626.02 109.89 626.01 109.85 626 109.81 625.98 109.77 625.95 109.74 625.92 109.7 625.89 109.67 625.87 109.64 625.86 109.61 625.83 109.57 625.8 109.53 625.78 109.51 625.75 109.51 625.7 109.5 625.63 109.48 625.56 109.46 625.48 109.44 625.42 109.42 625.35 109.4 625.31 109.38 625.27 109.34 625.2 109.3 625.17 109.28 625.15 109.26 625.12 109.22 625.06 109.16 625.02 109.1 624.98 109.07 624.94 109.05 624.9 109.05 624.87 109.06 624.84 109.09 624.82 109.12 624.8 109.16 624.78 109.19 624.76 109.21 624.73 109.21 624.7 109.2 624.63 109.17 624.58 109.15 624.53 109.13 624.47 109.11 624.44 109.08 624.4 109.05 624.36 108.97 624.32 108.93 624.27 108.88 624.23 108.85 624.18 108.81 624.14 108.74 624.1 108.69 624.04 108.64 624 108.6 623.95 108.58 623.92 108.57 623.9 108.54 623.87 108.52 623.86 108.48 623.84 108.46 623.81 108.45 623.76 108.44 623.72 108.44 623.67 108.44 623.62 108.42 623.6 108.39 623.58 108.35 623.58 108.33 623.57 108.3 623.57 108.24 623.57 108.19 623.58 108.14 623.59 108.08 623.6 108.04 623.61 107.99 623.62 107.92 623.64 107.85 623.65 107.8 623.65 107.76 623.65 107.72 623.65 107.68 623.64 107.64 623.63 107.6 623.61 107.55 623.6 107.51 623.58 107.49 623.57 107.45 623.57 107.44 623.56 107.35 623.55 107.29 623.57 107.21 623.53 107.13 623.5 107.1 623.47 107.08 623.43 107.07 623.37 107.06 623.32 107.06 623.29 107.06 623.26 107.08 623.23 107.08 623.2 107.08 623.19 107.07 623.18 107.04 623.16 107.01 623.13 107 623.07 106.99 623.02 106.98 622.96 106.98 622.91 106.98 622.87 107 622.81 107.02 622.75 107.03 622.68 107.04 622.62 107.04 622.57 107.02 622.51 107.01 622.45 106.98 622.4 106.96 622.33 106.94 622.27 106.93 622.22 106.94 622.18 106.95 622.14 106.97 622.09 106.99 622.06 106.97 622.04 106.95 622.01 106.9 621.97 106.88 621.93 106.86 621.89 106.86 621.86 106.87 621.82 106.88 621.77 106.87 621.75 106.87 621.72 106.86 621.7 106.83 621.68 106.8 621.65 106.74 621.62 106.69 621.6 106.66 621.56 106.63 621.52 106.59 621.48 106.56 621.44 106.54 621.41 106.54 621.39 106.55 621.37 106.56 621.32 106.61 621.28 106.63 621.25 106.65 621.22 106.65 621.2 106.63 621.19 106.62 621.19 106.59 621.18 106.56 621.17 106.52 621.16 106.48 621.15 106.43 621.13 106.4 621.1 106.38 621.07 106.39 621.03 106.39 621 106.39 620.98 106.38 620.97 106.35 620.94 106.32 620.92 106.29 620.88 106.26 620.85 106.25 620.8 106.24 620.77 106.25 620.74 106.27 620.71 106.29 620.68 106.31 620.65 106.32 620.61 106.33 620.57 106.33 620.54 106.32 620.51 106.31 620.48 106.29 620.45 106.25 620.43 106.22 620.41 106.2 620.38 106.18 620.35 106.17 620.32 106.17 620.3 106.18 620.26 106.19 620.23 106.2 620.21 106.19 620.19 106.19 620.16 106.19 620.14 106.17 620.12 106.15 620.11 106.14 620.1 106.12 620.1 106.1 620.08 106.07 620.07 106.06 620.04 106.05 620.02 106.04 620 106.03 619.98 106.03 619.96 106.02 619.95 106.01 619.93 106.01 619.92 106 619.92 105.99 619.91 105.97 619.91 105.96 619.9 105.92 619.9 105.9 619.91 105.87 619.92 105.86 619.94 105.83 619.95 105.82 619.95 105.79 619.95 105.77 619.94 105.76 619.92 105.75 619.9 105.74 619.87 105.74 619.84 105.73 619.83 105.73 619.81 105.73 619.78 105.73 619.76 105.73 619.74 105.73 619.72 105.72 619.7 105.72 619.68 105.7 619.67 105.69 619.66 105.68 619.65 105.66 619.64 105.64 619.63 105.62 619.63 105.59 619.62 105.57 619.62 105.55 619.6 105.53 619.59 105.52 619.58 105.5 619.56 105.49 619.54 105.49 619.53 105.5 619.52 105.51 619.51 105.53 619.49 105.54 619.48 105.55 619.46 105.55 619.44 105.54 619.43 105.53 619.42 105.52 619.41 105.5 619.41 105.49 619.41 105.46 619.4 105.45 619.39 105.44 619.39 105.43 619.38 105.41 619.37 105.39 619.37 105.36 619.37 105.34 619.37 105.33 619.38 105.31 619.39 105.29 619.41 105.28 619.42 105.27 619.43 105.27 619.44 105.25 619.46 105.24 619.47 105.22 619.48 105.2 619.49 105.18 619.49 105.16 619.49 105.14 619.48 105.12 619.48 105.09 619.47 105.06 619.47 105.05 619.46 105.03 619.45 105.01 619.43 104.98 619.42 104.96 619.41 104.94 619.39 104.93 619.37 104.91 619.35 104.89 619.33 104.86 619.32 104.84 619.31 104.82 619.3 104.8 619.28 104.78 619.27 104.75 619.27 104.75 619.26 104.72 619.25 104.7 619.24 104.68 619.23 104.66 619.23 104.64 619.22 104.62 619.21 104.59 619.2 104.57 619.18 104.55 619.17 104.54 619.14 104.52 619.13 104.5 619.11 104.49 619.1 104.47 619.08 104.45 619.06 104.44 619.04 104.43 619.02 104.42 619.01 104.41 618.99 104.4 618.97 104.39 618.95 104.26 618.95 104.25 618.93 104.22 618.93 104.18 618.92 104.16 618.92 104.14 618.93 104.11 618.95 104.08 618.96 104.04 618.97 104.01 618.96 103.98 618.95 103.96 618.93 103.95 618.91 103.94 618.88 103.92 618.85 103.91 618.81 103.9 618.77 103.89 618.76 103.86 618.74 103.83 618.73 103.82 618.7 103.8 618.7 103.78 618.7 103.76 618.7 103.71 618.69 103.68 618.67 103.65 618.65 103.62 618.64 103.58 618.62 103.55 618.63 103.52 618.63 103.48 618.63 103.45 618.61 103.39 618.59 103.36 618.57 103.34 618.55 103.31 618.53 103.3 618.51 103.29 618.5 103.27 618.49 103.24 618.46 103.22 618.45 103.2 618.43 103.16 618.41 103.12 618.41 103.1 618.4 103.08 618.39 103.06 618.38 103.02 618.36 102.96 618.36 102.92 618.35 102.86 618.35 102.83 618.36 102.8 618.37 102.77 618.36 102.74 618.35 102.73 618.34 102.69 618.34 102.66 618.33 102.61 618.33 102.57 618.34 102.53 618.35 102.48 618.37 102.42 618.4 102.36 618.42 102.32 618.44 102.29 618.45 102.26 618.45 102.23 618.43 102.21 618.41 102.19 618.38 102.17 618.35 102.15 618.33 102.14 618.29 102.1 618.27 102.09 618.25 102.06 618.24 102.02 618.22 101.99 618.19 101.98 618.16 101.97 618.13 101.96 618.08 101.94 618.03 101.91 618.01 101.88 618 101.85 617.99 101.81 617.97 101.79 617.94 101.79 617.92 101.78 617.91 101.74 617.89 101.71 617.88 101.69 617.86 101.66 617.86 101.62 617.85 101.59 617.83 101.55 617.8 101.53 617.78 101.51 617.76 101.5 617.76 101.48 617.75 101.45 617.72 101.4 617.7 101.38 617.66 101.36 617.61 101.33 617.58 101.32 617.57 101.32 617.55 101.32 617.52 101.33 617.44 101.32 617.37 101.3 617.32 101.29 617.28 101.29 617.23 101.28 617.19 101.25 617.15 101.22 617.11 101.19 617.08 101.16 617.04 101.13 616.67 100.86 616.63 100.23 Z"/>
</g></svg>