<svg xmlns="http://www.w3.org/2000/svg" version="1.2" baseProfile="tiny" stroke-linecap="round" stroke-linejoin="round" viewBox="584.5 336.28 71.6 29.5"><g xmlns="http://www.w3.org/2000/svg" id="Irunberri">
<path d="M 613.15 343.44 613.14 343.43 613.05 343.39 612.91 343.34 612.71 343.27 612.61 343.23 612.53 343.21 612.37 343.18 612.21 343.15 612.07 343.12 611.97 343.09 611.89 343.05 611.83 343.02 611.82 343.01 611.8 343.01 611.78 343.01 611.76 342.96 611.76 342.95 611.73 342.89 611.69 342.82 611.59 342.63 611.57 342.58 611.57 342.58 611.56 342.57 611.53 342.49 611.46 342.35 611.38 342.2 611.39 342.17 611.39 342.16 611.42 342.04 611.43 341.97 611.44 341.96 611.44 341.95 611.65 341.31 611.73 341.05 611.78 340.92 611.79 340.89 611.8 340.86 611.85 340.71 611.91 340.52 611.98 340.28 612.01 340.16 612.03 340.09 612.03 340.08 612.06 339.97 612.07 339.88 612.08 339.86 612.09 339.78 612.12 339.62 612.13 339.57 612.14 339.57 612.14 339.56 612.14 339.55 612.14 339.54 612.15 339.45 612.16 339.35 612.17 339.34 612.18 339.25 612.19 339.2 612.21 339.07 612.29 338.53 612.32 338.41 612.36 338.22 612.36 338.19 612.37 338.17 612.38 338.13 612.39 338.09 612.41 338.02 612.44 337.94 612.44 337.92 612.45 337.91 612.45 337.9 612.46 337.88 612.47 337.86 612.51 337.79 612.59 337.62 612.68 337.43 612.69 337.4 612.71 337.37 612.94 336.94 612.95 336.94 612.95 336.93 612.96 336.9 612.97 336.89 612.97 336.88 612.98 336.87 612.99 336.86 612.99 336.84 613 336.83 613.06 336.76 613.08 336.72 613.1 336.69 613.1 336.66 613.09 336.64 613.08 336.61 613.04 336.57 613.02 336.54 613.01 336.51 613 336.49 613.01 336.46 613.02 336.44 613.05 336.4 613.06 336.39 613.15 336.33 613.41 336.54 613.58 336.64 613.7 336.69 613.89 336.7 613.97 336.69 614.15 336.63 614.36 336.52 614.57 336.38 614.66 336.33 614.73 336.31 614.79 336.31 614.86 336.33 614.94 336.36 615.03 336.41 615.15 336.54 615.3 336.7 615.41 336.82 615.46 336.86 615.6 336.94 615.71 336.98 615.79 337.03 615.84 337.08 615.87 337.15 615.9 337.22 615.91 337.3 615.92 337.38 615.9 337.49 615.87 337.58 615.83 337.64 615.76 337.72 615.66 337.83 615.53 337.91 615.36 338 615.19 338.08 615.13 338.11 615.09 338.15 615.06 338.22 615.04 338.33 615.04 338.51 615.07 338.75 615.1 338.96 615.12 339.05 615.13 339.09 615.17 339.13 615.27 339.22 615.37 339.33 615.42 339.4 615.47 339.49 615.51 339.6 615.53 339.7 615.54 339.77 615.57 339.76 615.7 339.73 615.72 339.73 615.86 339.87 615.93 339.93 615.93 339.93 615.97 339.96 615.99 339.98 616.04 340.01 616.07 340.03 616.1 340.05 616.12 340.06 616.15 340.08 616.16 340.08 616.18 340.09 616.24 340.11 616.27 340.11 616.26 340.12 616.26 340.13 616.25 340.13 616.25 340.14 616.25 340.15 616.25 340.16 616.25 340.17 616.25 340.19 616.25 340.2 616.25 340.22 616.32 340.68 616.55 340.65 616.54 340.59 616.54 340.58 616.56 340.58 616.6 340.57 616.78 340.55 616.8 340.59 616.8 340.62 616.81 340.64 616.82 340.66 616.82 340.67 616.83 340.68 616.83 340.69 616.84 340.69 616.85 340.7 616.86 340.7 616.87 340.7 616.96 340.7 617.13 340.68 617.14 340.68 617.15 340.68 617.19 340.68 617.27 340.68 617.28 340.68 617.29 340.68 617.3 340.69 617.31 340.69 617.32 340.69 617.39 340.71 617.47 340.72 617.5 340.73 617.51 340.73 617.52 340.74 617.53 340.74 617.71 340.81 617.77 340.82 617.78 340.83 617.79 340.83 617.79 340.83 617.8 340.83 617.84 340.83 617.85 340.84 617.86 340.84 617.87 340.84 617.89 340.85 618 340.88 618.08 340.91 618.11 340.92 618.12 340.92 618.13 340.92 618.14 340.92 618.16 340.92 618.17 340.92 618.18 340.93 618.2 340.93 618.21 340.93 618.22 340.93 618.23 340.92 618.24 340.92 618.25 340.92 618.28 340.9 618.31 340.89 618.35 340.86 618.37 340.85 618.38 340.85 618.39 340.85 618.42 340.85 618.56 340.83 618.62 340.82 618.62 340.82 618.64 340.82 618.64 340.82 618.65 340.82 618.66 340.82 618.67 340.83 618.68 340.83 618.78 340.86 618.8 340.87 618.81 340.87 618.82 340.87 618.83 340.87 618.84 340.87 618.85 340.87 618.86 340.87 618.87 340.87 618.88 340.87 618.89 340.87 618.96 340.84 619.05 340.81 619.24 340.73 619.36 340.68 619.37 340.67 619.39 340.67 619.4 340.66 619.42 340.65 620.38 340.22 620.41 340.2 620.42 340.19 620.43 340.19 620.44 340.18 620.48 340.16 620.52 340.13 620.58 340.1 620.63 340.07 620.7 340.03 620.72 340.02 620.73 340.02 620.73 340.01 620.75 340.01 620.82 339.99 620.9 339.98 620.98 339.96 621.02 339.95 621.25 339.91 621.56 339.86 622.19 339.74 622.21 339.73 622.23 339.73 623.05 339.57 623.18 339.55 623.2 339.54 623.22 339.54 623.24 339.54 623.25 339.53 623.32 339.51 623.49 339.46 623.55 339.44 623.56 339.44 623.57 339.44 623.58 339.44 623.59 339.44 623.6 339.44 623.61 339.44 623.62 339.44 623.64 339.44 623.72 339.44 623.74 339.43 623.75 339.42 623.78 339.42 623.82 339.4 623.85 339.39 623.86 339.38 623.85 339.46 623.86 339.57 623.87 339.65 623.88 339.73 623.88 339.8 623.9 339.93 623.92 340.01 623.93 340.07 623.93 340.09 623.94 340.12 623.94 340.14 623.94 340.15 623.94 340.17 623.93 340.19 623.92 340.2 623.91 340.21 623.88 340.24 623.81 340.3 623.78 340.32 623.75 340.35 623.71 340.38 623.69 340.41 623.64 340.46 623.62 340.48 623.6 340.5 623.55 340.56 623.54 340.58 623.5 340.62 623.45 340.68 623.43 340.72 623.42 340.74 623.39 340.78 623.37 340.82 623.33 340.89 623.3 340.94 623.3 340.95 623.28 341 623.27 341.03 623.26 341.05 623.24 341.08 623.23 341.12 623.22 341.13 623.22 341.15 623.21 341.19 623.2 341.22 623.19 341.29 623.18 341.34 623.18 341.37 623.18 341.4 623.18 341.43 623.17 341.46 623.16 341.48 623.15 341.52 623.14 341.54 623.14 341.57 623.14 341.59 623.14 341.61 623.13 341.64 623.12 341.7 623.11 341.74 623.1 341.8 623.1 341.84 623.1 341.87 623.09 341.9 623.08 341.93 623.06 341.99 623.06 342.03 623.05 342.06 623.04 342.08 623.04 342.12 623.03 342.14 623.03 342.15 623.03 342.18 623.03 342.18 623.03 342.21 623.03 342.23 623.04 342.26 623.07 342.32 623.09 342.35 623.1 342.38 623.11 342.41 623.11 342.43 623.12 342.45 623.13 342.48 623.13 342.5 623.14 342.52 623.15 342.54 623.16 342.55 623.18 342.56 623.2 342.57 623.29 342.61 623.36 342.65 623.4 342.67 623.45 342.69 623.46 342.7 623.48 342.71 623.49 342.72 623.55 342.75 623.67 342.81 623.71 342.84 623.75 342.86 623.82 342.9 623.85 342.91 623.89 342.94 623.98 342.99 624.22 343.12 624.29 343.15 624.33 343.17 624.39 343.19 624.43 343.2 624.52 343.23 624.64 343.27 624.79 343.34 624.93 343.39 625.06 343.43 625.15 343.48 625.18 343.49 625.21 343.5 625.26 343.52 625.35 343.56 625.38 343.57 625.4 343.58 625.42 343.59 625.44 343.61 625.52 343.67 625.58 343.71 625.59 343.72 625.62 343.75 625.72 343.83 625.82 343.9 625.91 343.97 626.02 344.05 626.04 344.07 626.08 344.1 626.12 344.1 626.13 344.1 626.16 344.1 626.19 344.1 626.36 344.11 626.4 344.11 626.43 344.11 626.46 344.11 626.49 344.1 626.51 344.09 626.53 344.08 626.6 344.04 626.63 344.02 626.64 344.02 626.66 344.01 626.68 344 626.71 343.99 626.72 343.99 626.77 343.97 626.82 343.96 626.91 343.94 627.06 343.88 627.09 343.87 627.12 343.86 627.14 343.86 627.21 343.84 627.31 343.82 627.41 344.06 627.44 344.1 627.45 344.13 627.45 344.14 627.46 344.15 627.47 344.17 627.52 344.26 627.57 344.35 627.61 344.43 627.63 344.47 627.64 344.5 627.69 344.61 627.77 344.76 627.85 344.93 627.86 344.94 627.87 344.95 627.88 344.96 627.89 344.97 627.89 344.98 627.9 344.99 627.91 345.01 627.93 345.05 627.94 345.08 627.95 345.11 627.96 345.13 627.97 345.15 627.98 345.17 627.99 345.19 627.99 345.21 628.01 345.24 628.05 345.32 628.17 345.57 628.18 345.6 628.19 345.62 628.21 345.67 628.23 345.7 628.24 345.72 628.24 345.73 628.25 345.75 628.25 345.75 628.26 345.76 628.27 345.77 628.27 345.78 628.28 345.8 628.29 345.81 628.3 345.82 628.3 345.83 628.31 345.84 628.32 345.85 628.32 345.86 628.33 345.87 628.33 345.88 628.34 345.89 628.34 345.9 628.35 345.91 628.36 345.93 628.38 345.95 628.58 346.21 628.78 346.46 628.82 346.51 628.83 346.52 628.83 346.53 628.84 346.54 628.84 346.56 628.85 346.59 628.86 346.73 628.86 346.78 628.86 346.79 628.86 346.8 628.86 346.82 628.86 346.83 628.85 346.84 628.85 346.86 628.84 346.88 628.81 346.95 628.77 347.02 628.77 347.03 628.76 347.04 628.75 347.06 628.75 347.07 628.74 347.08 628.74 347.1 628.74 347.11 628.73 347.12 628.73 347.14 628.73 347.15 628.72 347.16 628.72 347.17 628.72 347.19 628.71 347.21 628.71 347.23 628.71 347.24 628.71 347.26 628.7 347.27 628.7 347.29 628.7 347.3 628.69 347.31 628.69 347.32 628.69 347.33 628.68 347.34 628.67 347.36 628.67 347.37 628.66 347.39 628.65 347.4 628.64 347.42 628.62 347.44 628.61 347.46 628.6 347.47 628.6 347.48 628.59 347.49 628.59 347.5 628.59 347.51 628.59 347.53 628.59 347.54 628.59 347.55 628.59 347.56 628.59 347.57 628.6 347.58 628.6 347.59 628.6 347.6 628.61 347.61 628.61 347.62 628.61 347.63 628.61 347.64 628.61 347.65 628.6 347.66 628.6 347.67 628.59 347.68 628.59 347.69 628.58 347.7 628.57 347.72 628.55 347.73 628.54 347.75 628.49 347.79 628.45 347.84 628.4 347.88 628.39 347.9 628.37 347.92 628.36 347.93 628.35 347.94 628.35 347.95 628.35 347.96 628.34 347.97 628.34 347.97 628.33 347.99 628.33 348 628.33 348.02 628.33 348.04 628.32 348.05 628.32 348.06 628.32 348.09 628.33 348.14 628.33 348.15 628.32 348.16 628.32 348.17 628.31 348.19 628.31 348.2 628.31 348.21 628.3 348.22 628.3 348.23 628.3 348.24 628.3 348.25 628.3 348.27 628.29 348.28 628.29 348.29 628.3 348.3 628.3 348.32 628.3 348.33 628.3 348.34 628.31 348.36 628.38 348.53 628.42 348.61 628.45 348.7 628.45 348.72 628.34 349.09 628.34 349.1 628.33 349.11 628.3 349.15 628.28 349.18 628.24 349.22 628.21 349.26 628.2 349.27 628.2 349.32 628.2 349.33 628.19 349.34 628.19 349.35 628.19 349.36 628.19 349.36 628.18 349.37 628.26 349.54 628.27 349.56 628.28 349.57 628.28 349.57 628.28 349.58 628.29 349.59 628.3 349.61 628.31 349.61 628.31 349.62 628.32 349.62 628.33 349.63 628.35 349.65 628.36 349.66 628.37 349.67 628.39 349.68 628.4 349.69 628.41 349.7 628.42 349.71 628.45 349.74 628.47 349.75 628.48 349.76 628.51 349.78 628.53 349.79 628.56 349.81 628.58 349.82 628.6 349.82 628.61 349.83 628.63 349.84 628.65 349.85 628.68 349.86 628.74 349.89 628.8 349.91 628.84 349.93 628.86 349.93 628.9 349.94 628.89 349.96 628.88 349.98 628.86 350.03 628.93 350.05 629.06 350.06 629.08 350.07 629.15 350.08 629.18 350.08 629.21 350.09 629.28 350.1 629.35 350.11 629.37 350.11 629.45 350.11 629.53 350.12 629.65 350.14 629.79 350.15 629.87 350.16 629.88 350.17 629.9 350.17 629.91 350.17 630.09 350.18 630.2 350.19 630.33 350.19 630.49 350.2 630.62 350.2 630.79 350.21 630.96 350.21 630.97 350.21 630.98 350.2 631.04 350.14 631.2 350.03 631.44 349.85 631.49 349.81 631.52 349.79 631.54 349.77 631.55 349.75 631.58 349.73 631.59 349.72 631.63 349.7 631.65 349.68 631.72 349.63 631.76 349.6 631.8 349.57 631.82 349.56 631.83 349.55 631.83 349.55 631.84 349.54 631.86 349.53 631.9 349.51 631.96 349.49 631.98 349.48 632 349.47 632.01 349.47 632.06 349.45 632.1 349.44 632.12 349.44 632.14 349.44 632.18 349.43 632.24 349.42 632.26 349.42 632.28 349.42 632.33 349.41 632.53 349.37 632.56 349.37 632.69 349.34 632.91 349.3 632.97 349.28 633.05 349.26 633.1 349.24 633.12 349.23 633.14 349.23 633.15 349.23 633.22 349.22 633.37 349.19 633.4 349.18 633.41 349.18 633.42 349.18 633.44 349.17 633.47 349.17 633.48 349.16 633.51 349.15 633.53 349.14 633.64 349.1 633.73 349.07 633.85 349.02 633.97 348.97 634.17 348.9 634.38 348.81 634.51 348.77 634.55 348.76 634.61 348.74 634.77 348.7 634.81 348.68 634.84 348.67 634.86 348.67 634.9 348.65 634.92 348.64 634.94 348.63 634.97 348.62 635.19 348.56 635.22 348.56 635.25 348.54 635.27 348.53 635.29 348.5 635.32 348.48 635.34 348.45 635.38 348.43 635.42 348.4 635.48 348.37 635.55 348.35 635.61 348.33 635.69 348.3 635.76 348.28 635.83 348.26 635.92 348.23 635.98 348.21 636.05 348.19 636.12 348.16 636.17 348.13 636.22 348.1 636.26 348.08 636.31 348.06 636.34 348.05 636.37 348.04 636.4 348.03 636.45 348.02 636.48 348.01 636.54 348.01 636.61 348.02 636.68 348.02 636.76 348.02 636.83 348.04 636.91 348.04 636.99 348.06 637.05 348.07 637.1 348.08 637.14 348.1 637.17 348.11 637.18 348.12 637.21 348.15 637.23 348.18 637.18 348.29 637.13 348.42 637.09 348.53 637.09 348.57 637.14 348.68 637.24 348.86 637.43 348.97 637.69 348.99 637.8 349 637.85 349 638.04 349 638.21 349 638.37 349 638.64 348.99 638.89 349 639.01 348.98 639.16 348.9 639.5 348.72 639.91 348.52 640.11 348.33 640.13 348.32 640.17 348.28 640.25 348.21 640.32 348.15 640.41 348.06 640.45 348.03 640.5 347.99 640.54 347.97 640.58 347.94 640.65 347.89 640.69 347.87 640.73 347.84 640.83 347.83 641.05 347.82 641.18 347.81 641.3 347.8 641.39 347.79 641.44 347.78 641.48 347.78 641.71 347.73 641.92 347.68 642 347.65 642.05 347.64 642.09 347.63 642.17 347.62 642.34 347.58 642.42 347.56 642.5 347.54 642.53 347.53 642.57 347.51 642.8 347.39 642.88 347.36 642.93 347.33 643 347.3 643.05 347.27 643.12 347.24 643.14 347.23 643.15 347.22 643.2 347.2 643.29 347.16 643.36 347.12 643.46 347.06 643.51 347.03 643.56 346.99 643.92 346.77 644.13 346.63 644.16 346.61 644.31 346.5 644.37 346.46 644.58 346.42 644.61 346.42 644.62 346.41 644.64 346.4 644.65 346.38 644.67 346.36 644.72 346.31 644.77 346.26 644.79 346.24 644.81 346.22 644.83 346.21 644.84 346.2 644.85 346.19 644.87 346.19 644.88 346.18 644.89 346.17 644.96 346.15 645.13 346.09 645.2 346.06 645.23 346.05 645.33 346.02 645.48 345.98 645.67 345.92 645.82 345.88 645.88 345.87 645.93 345.86 646.04 345.84 646.05 345.84 646.06 345.84 646.07 345.83 646.09 345.82 646.11 345.81 646.16 345.8 646.18 345.79 646.2 345.79 646.21 345.79 646.25 345.78 646.32 345.77 646.37 345.76 646.38 345.75 646.4 345.74 646.44 345.72 646.51 345.68 646.53 345.68 646.54 345.67 646.55 345.67 646.56 345.67 646.58 345.67 646.6 345.66 646.62 345.66 646.63 345.66 646.65 345.66 646.67 345.66 646.71 345.66 646.74 345.66 646.75 345.66 646.77 345.66 646.79 345.66 646.82 345.67 646.88 345.68 646.92 345.69 646.95 345.7 647 345.71 647.1 345.75 647.18 345.78 647.26 345.81 647.37 345.86 647.42 345.88 647.46 345.89 647.47 345.89 647.49 345.89 647.51 345.89 647.52 345.89 647.54 345.89 647.56 345.89 647.58 345.89 647.6 345.88 647.62 345.87 647.63 345.87 647.66 345.85 647.68 345.85 647.7 345.84 647.71 345.83 647.73 345.81 647.81 345.76 647.83 345.75 647.85 345.74 647.89 345.72 647.91 345.71 647.93 345.7 647.99 345.65 648.03 345.61 648.11 345.54 648.18 345.49 648.21 345.47 648.22 345.47 648.24 345.46 648.25 345.45 648.26 345.44 648.28 345.44 648.28 345.44 648.32 345.43 648.36 345.42 648.4 345.42 648.44 345.42 648.55 345.41 648.69 345.4 648.73 345.39 648.81 345.38 648.9 345.36 648.95 345.34 648.98 345.33 649 345.32 649.02 345.31 649.08 345.28 649.21 345.22 649.25 345.2 649.3 345.18 649.31 345.17 649.34 345.16 649.42 345.14 649.54 345.1 649.6 345.08 649.62 345.08 649.63 345.07 649.66 345.07 649.67 345.06 649.72 345.06 649.8 345.06 649.84 345.06 649.87 345.05 649.9 345.04 649.96 345.02 649.99 345.01 650.04 344.99 650.08 344.98 650.11 344.96 650.13 344.99 650.4 345.49 650.4 345.5 650.41 345.51 650.42 345.52 650.48 345.56 650.63 345.63 650.64 345.64 650.79 345.73 650.81 345.73 650.84 345.75 650.9 345.8 650.93 345.83 651.07 345.95 651.2 346.07 651.23 346.1 651.28 346.14 651.32 346.17 651.38 346.21 651.43 346.24 651.52 346.29 651.64 346.34 651.79 346.43 651.86 346.46 651.91 346.47 651.95 346.49 651.99 346.49 652.03 346.5 652.08 346.51 652.17 346.52 652.26 346.53 652.32 346.53 652.37 346.55 652.48 346.56 652.52 346.57 652.54 346.58 652.57 346.59 652.59 346.6 652.61 346.6 652.64 346.62 652.66 346.63 652.68 346.65 652.72 346.68 652.81 346.74 652.9 346.8 652.96 346.86 653.01 346.89 653.12 346.97 653.23 347.05 653.33 347.1 653.38 347.14 653.47 347.19 653.54 347.22 653.6 347.25 653.66 347.28 653.68 347.29 653.69 347.29 653.7 347.29 653.71 347.29 653.73 347.29 653.76 347.28 653.83 347.25 653.9 347.22 653.89 347.29 653.88 347.35 653.88 347.39 653.87 347.45 653.86 347.48 653.85 347.56 653.84 347.59 653.84 347.61 653.82 347.68 653.81 347.73 653.8 347.78 653.79 347.83 653.77 347.87 653.76 347.92 653.75 347.96 653.75 348 653.75 348.03 653.75 348.05 653.75 348.06 653.74 348.07 653.74 348.08 653.74 348.09 653.73 348.1 653.7 348.14 653.65 348.18 653.63 348.21 653.59 348.25 653.56 348.28 653.52 348.34 653.48 348.38 653.42 348.44 653.38 348.48 653.34 348.52 653.31 348.55 653.22 348.63 653.19 348.66 653.16 348.69 653.13 348.72 653.11 348.74 653.09 348.75 653.06 348.76 652.96 348.8 652.93 348.81 652.86 348.83 652.78 348.86 652.76 348.87 652.74 348.88 652.73 348.89 652.71 348.92 652.68 348.93 652.66 348.95 652.58 349.03 652.48 349.11 652.45 349.14 652.42 349.16 652.41 349.18 652.4 349.19 652.39 349.2 652.39 349.22 652.38 349.24 652.38 349.27 652.38 349.29 652.38 349.33 652.39 349.39 652.39 349.43 652.4 349.46 652.41 349.48 652.42 349.5 652.44 349.52 652.45 349.54 652.47 349.55 652.52 349.57 652.57 349.58 652.63 349.59 652.71 349.6 652.83 349.62 652.91 349.63 653.02 349.63 653.05 349.63 653.17 349.63 653.18 349.63 653.29 349.63 653.41 349.63 653.51 349.62 653.62 349.62 653.73 349.61 653.79 349.6 653.9 349.58 654.02 349.56 654.05 349.55 654.07 349.55 654.11 349.54 654.18 349.5 654.24 349.46 654.27 349.43 654.31 349.39 654.34 349.37 654.38 349.34 654.43 349.3 654.46 349.28 654.51 349.25 654.56 349.21 654.61 349.18 654.65 349.15 654.69 349.12 654.73 349.1 654.8 349.04 654.83 349.24 654.84 349.29 654.85 349.33 654.86 349.39 654.87 349.45 654.88 349.5 654.9 349.54 654.91 349.57 654.92 349.61 654.94 349.66 654.96 349.71 654.98 349.76 655.02 349.84 655.05 349.9 655.08 349.98 655.14 350.11 655.16 350.19 655.19 350.26 655.2 350.3 655.23 350.36 655.25 350.41 655.26 350.45 655.28 350.5 655.29 350.53 655.3 350.55 655.32 350.59 655.35 350.66 655.41 350.8 655.43 350.83 655.44 350.86 655.45 350.9 655.46 350.93 655.5 351.03 655.55 351.14 655.83 351.47 656.1 352.02 656.01 352.05 655.23 352.32 654.85 352.66 654.32 352.88 654.31 352.87 654.29 352.86 654.28 352.85 654.26 352.85 654.25 352.84 654.23 352.83 654.22 352.82 654.21 352.82 654.19 352.81 654.17 352.81 654.16 352.8 654.14 352.79 654.12 352.79 654.1 352.78 654.08 352.78 654.07 352.77 654.05 352.77 654.04 352.76 654.03 352.76 654.01 352.75 653.99 352.75 653.98 352.74 653.96 352.74 653.95 352.74 653.93 352.73 653.91 352.73 653.89 352.72 653.88 352.72 653.86 352.72 653.84 352.72 653.83 352.71 653.81 352.71 653.79 352.71 653.77 352.71 653.76 352.71 653.75 352.7 653.73 352.7 653.71 352.7 653.69 352.7 653.68 352.69 653.66 352.69 653.65 352.69 653.63 352.69 653.61 352.69 653.59 352.69 653.58 352.69 653.56 352.69 653.54 352.69 653.51 352.68 653.49 352.68 653.47 352.68 653.45 352.68 653.44 352.68 653.4 352.68 653.35 352.68 653.32 352.68 653.3 352.68 653.28 352.68 653.27 352.68 653.25 352.68 653.23 352.68 653.2 352.68 653.15 352.68 653.13 352.68 653.09 352.69 653.08 352.69 653.07 352.69 652.89 352.67 652.1 352.62 651.06 352.51 650.87 352.49 650.48 352.61 650.14 352.6 649.76 352.78 649.41 352.84 648.88 353.12 647.46 353.45 646.04 353.9 644.78 354.03 644.13 354.36 643.94 354.44 642.81 354.91 642.81 355.2 642.81 355.37 642.81 355.38 642.8 355.4 642.8 355.41 642.79 355.42 642.78 355.44 642.77 355.45 642.76 355.46 642.76 355.47 642.75 355.49 642.73 355.5 642.72 355.51 642.7 355.54 642.69 355.55 642.68 355.57 642.66 355.58 642.64 355.6 642.63 355.61 642.62 355.62 642.61 355.63 642.59 355.65 642.58 355.66 642.58 355.68 642.57 355.69 642.56 355.71 642.56 355.73 642.56 355.74 642.55 355.75 642.55 355.77 642.55 355.79 642.55 355.8 642.54 355.81 642.54 355.83 642.54 355.85 642.54 355.87 642.54 355.88 642.53 355.9 642.53 355.92 642.53 355.95 642.53 355.98 642.53 355.99 642.53 356.01 642.53 356.03 642.53 356.05 642.53 356.08 642.53 356.09 642.52 356.11 642.52 356.13 642.52 356.16 642.52 356.18 642.52 356.2 642.52 356.21 642.52 356.23 642.52 356.25 642.52 356.28 642.52 356.3 642.52 356.31 642.52 356.33 642.52 356.35 642.52 356.36 642.52 356.37 642.52 356.4 642.52 356.4 642.52 356.45 642.51 356.56 642.51 356.57 642.48 356.58 642.46 356.58 642.41 356.59 642.36 356.6 642.34 356.6 642.33 356.61 642.31 356.61 642.29 356.61 642.26 356.62 642.18 356.63 642.15 356.64 642.11 356.65 642.03 356.66 641.99 356.67 641.95 356.68 641.94 356.68 641.89 356.69 641.87 356.69 641.83 356.7 641.82 356.7 641.8 356.7 641.78 356.71 641.77 356.71 641.75 356.71 641.73 356.72 641.71 356.72 641.69 356.72 641.68 356.73 641.66 356.73 641.64 356.74 641.63 356.74 641.61 356.75 641.59 356.75 641.57 356.75 641.56 356.76 641.54 356.76 641.52 356.76 641.51 356.76 641.49 356.77 641.47 356.77 641.43 356.77 641.42 356.78 641.41 356.78 641.39 356.78 641.37 356.79 641.36 356.79 641.34 356.79 641.32 356.8 641.3 356.8 641.29 356.8 641.27 356.81 641.26 356.81 641.24 356.81 641.22 356.82 641.2 356.82 641.19 356.82 641.17 356.83 641.15 356.83 641.14 356.83 641.12 356.84 641.09 356.85 641.07 356.85 641.06 356.85 641.02 356.86 640.98 356.88 640.91 356.89 640.89 356.9 640.85 356.91 640.82 356.92 640.8 356.92 640.75 356.94 640.73 356.95 640.71 356.95 640.7 356.96 640.67 356.97 640.65 356.97 640.62 356.98 640.6 356.99 640.59 356.99 640.58 357 640.56 357 640.54 357.01 640.53 357.02 640.51 357.02 640.5 357.02 640.48 357.03 640.45 357.05 640.43 357.05 640.38 357.07 640.37 357.08 640.33 357.09 640.31 357.1 640.28 357.11 640.27 357.12 640.25 357.13 640.24 357.13 640.22 357.14 640.2 357.14 640.18 357.15 640.16 357.15 640.15 357.16 640.13 357.16 640.11 357.17 640.09 357.17 640.08 357.18 640.06 357.18 640.04 357.18 640.02 357.18 640.01 357.18 639.99 357.19 639.97 357.19 639.95 357.19 639.93 357.19 639.92 357.19 639.9 357.19 639.88 357.2 639.87 357.2 639.85 357.2 639.83 357.2 639.82 357.2 639.78 357.2 639.75 357.2 639.73 357.2 639.71 357.2 639.66 357.2 639.62 357.21 639.6 357.21 639.59 357.21 639.55 357.21 639.52 357.21 639.5 357.21 639.48 357.21 639.46 357.21 639.42 357.21 639.4 357.22 639.35 357.22 639.31 357.22 639.29 357.22 639.17 357.22 639.05 357.22 638.89 357.22 638.76 357.21 638.54 357.19 638.32 357.16 638.11 357.13 637.9 357.08 637.7 357.03 637.4 356.93 637.31 356.82 636.64 356.78 634.81 358.15 633.17 357.79 632.79 358.04 632.65 358.01 632.45 357.97 632.2 357.94 629.72 357.6 628.97 357.74 628.68 357.78 627.82 357.9 627.2 358.03 625.48 358.39 624.84 358.76 624.81 358.76 624.63 358.76 624.6 358.77 624.38 358.77 624.33 358.77 624.26 358.77 622.75 359 622.24 359.3 622.22 359.3 622.21 359.31 622.2 359.32 622.19 359.33 622.12 359.4 622.1 359.41 621.99 359.53 621.95 359.56 621.94 359.56 621.02 360.22 620.06 360.58 619.93 360.7 619.85 360.76 619.74 360.85 619.68 360.9 619.66 360.9 619.64 360.9 619.63 360.91 619.61 360.91 619.59 360.91 619.57 360.91 619.55 360.91 619.52 360.91 619.5 360.91 619.48 360.92 619.46 360.92 619.43 360.92 619.4 360.92 619.37 360.92 619.31 360.92 619.3 360.92 619.28 360.92 619.26 360.92 619.24 360.92 619.22 360.92 619.18 360.92 619.17 360.92 619.15 360.92 619.14 360.92 619.13 360.92 619.05 360.93 618.99 360.93 618.98 360.93 618.96 360.92 618.94 360.92 618.92 360.92 618.9 360.93 618.88 360.93 618.86 360.93 618.81 360.93 618.8 360.93 618.78 360.93 618.74 360.93 618.73 360.93 618.71 360.93 618.69 360.93 618.67 360.92 618.66 360.92 618.38 360.9 618.36 360.9 618.26 360.9 618.09 360.9 618.07 360.9 617.97 360.9 617.93 360.91 617.89 360.91 617.85 360.94 617.76 360.99 617.7 361.02 617.66 361.1 617.56 361.27 617.53 361.35 617.48 361.41 617.47 361.42 617.46 361.43 617.45 361.44 617.44 361.45 617.43 361.46 617.4 361.49 617.37 361.51 617.36 361.53 617.35 361.54 617.33 361.55 617.33 361.56 617.31 361.57 617.3 361.58 617.29 361.59 617.27 361.6 617.26 361.61 617.25 361.62 617.24 361.63 617.22 361.65 617.21 361.66 617.2 361.67 617.18 361.68 617.17 361.69 617.17 361.7 617.16 361.7 617.14 361.72 617.13 361.73 617.11 361.74 617.1 361.74 617.07 361.76 617.05 361.77 617.04 361.78 617.01 361.8 617 361.81 616.98 361.81 616.96 361.82 616.95 361.83 616.94 361.83 616.92 361.83 616.9 361.83 616.89 361.83 616.87 361.84 616.85 361.84 616.83 361.84 616.81 361.85 616.78 361.85 616.75 361.86 616.73 361.86 616.72 361.87 616.7 361.87 616.67 361.87 616.61 361.88 616.56 361.89 616.52 361.9 616.51 361.9 616.49 361.9 616.47 361.9 616.45 361.91 616.44 361.91 616.42 361.91 616.41 361.91 616.39 361.92 616.38 361.92 616.36 361.93 616.34 361.93 616.33 361.93 616.32 361.94 616.28 361.95 616.27 361.95 616.25 361.96 616.24 361.96 616.22 361.97 616.2 361.97 616.19 361.98 616.17 361.98 616.16 361.99 616.14 361.99 616.13 362 616.11 362.01 616.08 362.02 616.06 362.03 616.03 362.05 616 362.06 615.98 362.07 615.97 362.07 615.95 362.08 615.93 362.09 615.91 362.1 615.9 362.11 615.89 362.11 615.88 362.12 615.86 362.14 615.85 362.15 615.84 362.17 615.83 362.18 615.83 362.2 615.82 362.21 615.8 362.25 615.79 362.27 615.78 362.29 615.78 362.3 615.77 362.32 615.77 362.33 615.76 362.35 615.76 362.37 615.75 362.37 615.75 362.39 615.74 362.41 615.74 362.42 615.73 362.44 615.72 362.48 615.72 362.5 615.71 362.52 615.71 362.54 615.71 362.56 615.71 362.57 615.71 362.59 615.71 362.6 615.71 362.62 615.71 362.63 615.7 362.65 615.7 362.66 615.7 362.68 615.7 362.7 615.7 362.71 615.69 362.73 615.69 362.75 615.69 362.76 615.69 362.78 615.69 362.79 615.69 362.81 615.69 362.83 615.69 362.85 615.69 362.87 615.69 362.89 615.7 362.9 615.7 362.92 615.7 362.94 615.71 362.96 615.71 362.98 615.72 362.99 615.72 363.01 615.72 363.03 615.72 363.05 615.72 363.06 615.72 363.07 615.73 363.09 615.73 363.1 615.74 363.12 615.74 363.14 615.74 363.15 615.75 363.16 615.75 363.18 615.76 363.2 615.77 363.21 615.78 363.24 615.78 363.25 615.79 363.27 615.8 363.28 615.81 363.29 615.81 363.31 615.82 363.32 615.83 363.35 615.83 363.36 615.84 363.38 615.84 363.39 615.85 363.41 615.86 363.42 615.87 363.44 615.88 363.45 615.89 363.47 615.9 363.48 615.91 363.5 615.91 363.5 615.92 363.52 615.93 363.54 615.94 363.55 615.95 363.56 615.89 363.58 615.81 363.58 615.76 363.59 615.7 363.6 615.65 363.6 615.61 363.59 615.59 363.59 615.58 363.59 615.54 363.6 615.49 363.6 615.45 363.59 615.4 363.57 615.36 363.55 615.31 363.55 615.22 363.56 615.15 363.54 615.14 363.57 615.1 363.62 615.05 363.68 615 363.75 614.97 363.79 614.94 363.82 614.93 363.83 614.89 363.9 614.87 363.92 614.84 363.97 614.79 364.02 614.77 364.05 614.75 364.09 614.72 364.14 614.69 364.19 614.67 364.23 614.61 364.36 614.57 364.45 614.52 364.54 614.49 364.6 614.48 364.62 614.47 364.63 614.44 364.69 614.44 364.7 614.43 364.71 614.42 364.73 614.41 364.74 614.39 364.77 614.29 364.93 614.22 365.03 614.19 365.07 614.17 365.09 614.14 365.15 614.1 365.2 614.06 365.27 614.04 365.3 614.03 365.32 613.98 365.39 613.92 365.45 613.86 365.51 613.8 365.56 613.75 365.61 613.72 365.63 613.67 365.68 613.65 365.71 613.64 365.73 613.62 365.75 613.61 365.76 613.6 365.77 613.55 365.77 613.5 365.77 613.47 365.76 613.44 365.76 613.39 365.76 613.33 365.74 613.31 365.74 613.29 365.73 613.24 365.7 613.17 365.66 613.16 365.65 613.12 365.62 613.04 365.58 612.98 365.55 612.94 365.51 612.91 365.5 612.84 365.52 612.8 365.54 612.73 365.56 612.68 365.58 612.64 365.61 612.61 365.64 612.6 365.65 612.55 365.66 612.5 365.66 612.45 365.65 612.41 365.64 612.34 365.62 612.28 365.6 612.26 365.57 612.24 365.54 612.22 365.52 612.19 365.5 612.16 365.48 612.14 365.45 612.11 365.44 612.09 365.42 612.06 365.38 612.02 365.35 611.99 365.31 611.96 365.27 611.91 365.21 611.86 365.15 611.83 365.09 611.81 365.06 611.78 365.03 611.74 364.99 611.69 364.94 611.63 364.89 611.59 364.86 611.56 364.85 611.53 364.83 611.5 364.82 611.46 364.79 611.41 364.76 611.35 364.72 611.29 364.68 611.22 364.62 611.15 364.55 611.08 364.49 611.03 364.44 610.96 364.37 610.9 364.31 610.84 364.26 610.78 364.2 610.72 364.15 610.69 364.11 610.69 364.11 610.66 364.07 610.64 364.03 610.62 363.99 610.61 363.95 610.61 363.91 610.6 363.87 610.61 363.83 610.61 363.81 610.61 363.74 610.62 363.68 610.63 363.65 610.63 363.59 610.62 363.52 610.62 363.46 610.61 363.4 610.61 363.35 610.6 363.33 610.59 363.3 610.57 363.28 610.55 363.26 610.53 363.24 610.5 363.22 610.46 363.19 610.39 363.15 610.31 363.11 610.23 363.07 610.17 363.04 610.12 363.01 610.1 363 610.07 362.99 610.05 362.98 610.03 362.98 610 362.97 609.98 362.98 609.96 362.97 609.94 362.97 609.91 362.96 609.86 362.94 609.85 362.92 609.83 362.91 609.81 362.91 609.78 362.89 609.76 362.89 609.72 362.88 609.7 362.88 609.68 362.87 609.66 362.86 609.63 362.85 609.61 362.84 609.58 362.83 609.56 362.82 609.54 362.8 609.51 362.78 609.48 362.76 609.46 362.74 609.44 362.73 609.42 362.72 609.4 362.72 609.37 362.7 609.37 362.7 609.35 362.69 609.31 362.67 609.25 362.65 609.2 362.63 609.14 362.61 609.07 362.58 608.99 362.54 608.91 362.51 608.87 362.49 608.84 362.48 608.81 362.47 608.78 362.46 608.77 362.45 608.75 362.45 608.74 362.45 608.71 362.46 608.66 362.47 608.61 362.49 608.57 362.5 608.52 362.52 608.48 362.53 608.47 362.53 608.45 362.54 608.43 362.54 608.39 362.55 608.35 362.54 608.34 362.54 608.28 362.52 608.24 362.52 608.19 362.53 608.13 362.56 608.07 362.58 608.03 362.6 608 362.61 607.97 362.62 607.95 362.62 607.93 362.62 607.88 362.61 607.85 362.6 607.83 362.6 607.78 362.61 607.73 362.63 607.68 362.66 607.64 362.68 607.61 362.69 607.57 362.71 607.54 362.71 607.53 362.7 607.5 362.64 607.47 362.59 607.44 362.54 607.41 362.51 607.38 362.47 607.34 362.44 607.29 362.4 607.25 362.37 607.22 362.35 607.18 362.32 607.14 362.29 607.1 362.26 607.05 362.22 607 362.2 606.93 362.17 606.88 362.16 606.82 362.15 606.75 362.15 606.7 362.14 606.63 362.13 606.58 362.11 606.53 362.1 606.48 362.08 606.44 362.05 606.4 362.03 606.38 362.01 606.36 361.99 606.35 361.97 606.33 361.96 606.29 361.93 606.25 361.91 606.19 361.89 606.16 361.88 606.12 361.87 606.08 361.87 606.02 361.86 605.98 361.86 605.94 361.85 605.88 361.84 605.82 361.83 605.78 361.82 605.74 361.81 605.71 361.79 605.68 361.77 605.66 361.75 605.65 361.73 605.63 361.7 605.6 361.64 605.58 361.61 605.57 361.59 605.53 361.55 605.5 361.52 605.48 361.51 605.44 361.5 605.42 361.49 605.37 361.45 605.32 361.41 605.28 361.38 605.23 361.35 605.2 361.33 605.16 361.31 605.09 361.29 605.06 361.27 605 361.25 604.95 361.22 604.9 361.2 604.79 361.18 604.74 361.17 604.7 361.17 604.67 361.17 604.65 361.16 604.63 361.16 604.62 361.15 604.6 361.14 604.57 361.11 604.55 361.08 604.54 361.07 604.53 361.04 604.52 361.01 604.52 360.99 604.51 360.96 604.51 360.93 604.51 360.9 604.52 360.85 604.51 360.81 604.51 360.77 604.51 360.72 604.5 360.67 604.49 360.63 604.47 360.59 604.45 360.56 604.43 360.52 604.4 360.49 604.37 360.44 604.32 360.37 604.27 360.31 604.24 360.26 604.21 360.22 604.19 360.2 604.18 360.16 604.17 360.12 604.17 360.1 604.16 360.07 604.16 360.04 604.16 360.02 604.16 360 604.16 359.99 604.15 359.97 604.13 359.96 604.1 359.94 604.07 359.94 604.05 359.93 604.02 359.91 603.98 359.88 603.96 359.87 603.92 359.87 603.87 359.86 603.85 359.85 603.82 359.85 603.79 359.83 603.75 359.81 603.74 359.79 603.7 359.77 603.66 359.73 603.62 359.69 603.61 359.69 603.58 359.66 603.58 359.66 603.55 359.65 603.52 359.62 603.51 359.62 603.49 359.61 603.47 359.6 603.44 359.57 603.41 359.56 603.39 359.56 603.37 359.56 603.36 359.55 603.32 359.55 603.31 359.55 603.28 359.55 603.25 359.54 603.25 359.54 603.22 359.53 603.19 359.52 603.18 359.52 603.13 359.52 603.11 359.51 603.01 359.47 602.93 359.44 602.89 359.41 602.81 359.34 602.77 359.3 602.73 359.24 602.7 359.18 602.66 359.08 602.64 359.01 602.62 358.98 602.58 358.91 602.56 358.89 602.55 358.89 602.45 358.83 602.39 358.78 602.48 358.58 602.5 358.53 602.52 358.47 602.53 358.44 602.55 358.4 602.56 358.37 602.58 358.33 602.63 358.25 602.68 358.17 602.69 358.14 602.74 358.08 602.76 358.05 602.78 358.02 602.8 358 602.83 357.96 602.87 357.92 602.91 357.88 602.92 357.87 602.95 357.85 602.99 357.82 603.02 357.8 603.03 357.79 603.04 357.79 603.05 357.78 603.07 357.77 603.08 357.76 603.12 357.72 603.16 357.69 603.19 357.65 603.24 357.6 603.28 357.57 603.31 357.54 603.34 357.52 603.36 357.5 603.43 357.45 603.52 357.38 603.55 357.34 603.6 357.3 603.64 357.24 603.73 357.13 603.77 357.07 603.78 357.06 603.79 357.04 603.8 357.03 603.8 357.02 603.81 357.01 603.81 357 603.82 356.98 603.83 356.97 603.83 356.96 603.85 356.93 603.87 356.88 603.88 356.86 603.89 356.84 603.9 356.84 603.91 356.82 603.94 356.79 603.95 356.77 603.99 356.73 604.01 356.71 604.04 356.68 604.05 356.67 604.06 356.66 604.06 356.65 604.09 356.63 604.1 356.6 604.13 356.57 604.14 356.56 604.15 356.54 604.16 356.53 604.16 356.52 604.17 356.5 604.17 356.49 604.17 356.47 604.17 356.44 604.17 356.41 604.16 356.39 604.15 356.35 604.14 356.33 604.13 356.31 604.12 356.27 604.08 356.18 604.08 356.18 604.02 355.99 604.02 355.98 603.95 355.74 603.93 355.69 603.92 355.66 603.9 355.63 603.84 355.52 603.8 355.46 603.77 355.4 603.74 355.35 603.72 355.3 603.68 355.23 603.66 355.19 603.61 355.09 603.54 354.94 603.52 354.92 603.51 354.9 603.5 354.89 603.49 354.87 603.47 354.85 603.44 354.83 603.39 354.79 603.36 354.77 603.33 354.75 603.32 354.74 603.3 354.73 603.29 354.72 603.25 354.7 603.24 354.69 603.22 354.68 603.21 354.67 603.19 354.67 603.18 354.66 603.15 354.66 603.12 354.64 603.05 354.61 603.13 354.41 603.16 354.33 603.21 354.23 603.24 354.17 603.29 354.02 603.35 353.86 603.36 353.84 603.37 353.83 603.37 353.82 603.4 353.73 603.41 353.68 603.46 353.53 603.5 353.42 603.54 353.32 603.55 353.3 603.55 353.28 603.56 353.25 603.57 353.21 603.57 353.19 603.58 353.16 603.58 353.14 603.58 353.11 603.6 353.04 603.61 353 603.62 352.98 603.62 352.97 603.62 352.96 603.62 352.94 603.62 352.91 603.62 352.85 603.6 352.59 603.59 352.55 603.59 352.48 603.58 352.38 603.58 352.36 603.58 352.32 603.58 352.3 603.58 352.28 603.58 352.21 603.58 352.16 603.59 352.13 603.59 352.1 603.59 352.07 603.6 352.02 603.61 351.98 603.61 351.97 603.62 351.96 603.67 351.87 603.82 351.66 603.85 351.61 603.91 351.52 603.96 351.45 604.01 351.37 604.06 351.34 604.12 351.31 604.2 351.27 604.35 351.18 604.41 351.15 604.48 351.12 604.51 351.1 604.56 351.08 604.61 351.05 604.69 351 604.9 350.88 605.03 350.81 605.04 350.8 605.05 350.79 605.07 350.78 605.08 350.77 605.1 350.75 605.12 350.72 605.18 350.65 605.18 350.64 605.2 350.63 605.22 350.62 605.3 350.56 605.44 350.45 605.46 350.43 605.57 350.35 605.58 350.3 605.7 349.87 605.73 349.74 605.79 349.73 605.81 349.73 605.83 349.73 605.84 349.72 605.86 349.72 605.88 349.71 605.9 349.71 605.92 349.7 605.94 349.69 605.97 349.68 605.99 349.68 606.01 349.67 606.02 349.67 606.05 349.66 606.07 349.66 606.09 349.66 606.12 349.66 606.15 349.66 606.17 349.66 606.21 349.66 606.23 349.67 606.26 349.67 606.29 349.67 606.32 349.67 606.35 349.67 606.37 349.67 606.39 349.68 606.41 349.68 606.43 349.68 606.46 349.67 606.48 349.67 606.5 349.67 606.52 349.67 606.53 349.67 606.54 349.66 606.56 349.66 606.57 349.66 606.58 349.65 606.6 349.64 606.61 349.64 606.65 349.62 606.66 349.61 606.67 349.6 606.68 349.59 606.71 349.57 606.74 349.52 606.75 349.51 606.77 349.49 606.77 349.48 606.78 349.47 606.78 349.47 606.79 349.46 606.8 349.46 606.8 349.45 606.81 349.45 606.82 349.44 606.83 349.44 606.84 349.44 606.85 349.44 606.87 349.44 606.92 349.43 606.98 349.43 607 349.43 607.02 349.43 607.04 349.43 607.06 349.43 607.1 349.44 607.12 349.44 607.14 349.44 607.16 349.45 607.18 349.45 607.22 349.46 607.23 349.46 607.25 349.46 607.26 349.46 607.29 349.46 607.31 349.46 607.32 349.46 607.33 349.45 607.36 349.44 607.38 349.44 607.4 349.43 607.42 349.43 607.55 349.38 607.57 349.37 607.58 349.37 607.6 349.36 607.62 349.36 607.63 349.35 607.64 349.35 607.66 349.35 607.68 349.35 607.7 349.34 607.72 349.34 607.73 349.34 607.75 349.34 607.77 349.34 607.78 349.34 607.8 349.34 607.82 349.34 607.83 349.35 607.85 349.35 607.87 349.35 607.89 349.36 607.9 349.36 607.92 349.37 607.93 349.37 607.95 349.38 607.99 349.41 608.02 349.43 608.05 349.44 608.08 349.46 608.11 349.47 608.12 349.48 608.14 349.49 608.15 349.5 608.16 349.51 608.17 349.52 608.2 349.54 608.22 349.56 608.23 349.56 608.25 349.58 608.27 349.59 608.28 349.6 608.29 349.61 608.31 349.62 608.32 349.63 608.33 349.63 608.35 349.64 608.37 349.64 608.38 349.65 608.41 349.66 608.44 349.66 608.46 349.67 608.47 349.68 608.48 349.68 608.51 349.69 608.53 349.7 608.55 349.71 608.56 349.71 608.58 349.72 608.6 349.73 608.61 349.74 608.63 349.75 608.64 349.76 608.66 349.78 608.68 349.79 608.69 349.8 608.7 349.81 608.71 349.82 608.73 349.85 608.75 349.86 608.76 349.87 608.77 349.88 608.78 349.89 608.79 349.89 608.8 349.9 608.82 349.9 608.84 349.91 608.86 349.92 608.88 349.92 608.9 349.92 608.92 349.93 608.94 349.93 608.97 349.94 609.01 349.95 609.03 349.96 609.05 349.97 609.06 349.98 609.08 349.98 609.09 349.98 609.1 349.99 609.11 349.99 609.13 349.99 609.14 349.98 609.16 349.97 609.21 349.94 609.27 349.9 609.29 349.89 609.3 349.88 609.31 349.87 609.32 349.87 609.32 349.86 609.33 349.85 609.35 349.85 609.36 349.85 609.37 349.85 609.42 349.85 609.48 349.84 609.52 349.84 609.55 349.84 609.59 349.83 609.62 349.82 609.65 349.82 609.67 349.82 609.74 349.81 609.76 349.81 609.77 349.8 609.78 349.81 609.79 349.81 609.81 349.81 609.82 349.81 609.83 349.82 609.85 349.82 609.86 349.83 609.87 349.84 609.89 349.85 609.9 349.86 609.91 349.87 609.91 349.87 609.92 349.88 609.93 349.89 609.94 349.89 609.96 349.89 610 349.89 610.02 349.9 610.04 349.9 610.07 349.9 610.1 349.9 610.12 349.9 610.14 349.89 610.18 349.89 610.2 349.88 610.21 349.88 610.23 349.87 610.25 349.87 610.27 349.86 610.29 349.85 610.31 349.83 610.33 349.82 610.34 349.81 610.39 349.77 610.43 349.75 610.46 349.73 610.48 349.71 610.5 349.69 610.52 349.68 610.53 349.68 610.54 349.67 610.55 349.65 610.56 349.64 610.57 349.62 610.58 349.61 610.59 349.59 610.6 349.58 610.61 349.57 610.62 349.55 610.63 349.54 610.64 349.53 610.65 349.52 610.66 349.51 610.68 349.49 610.69 349.48 610.7 349.47 610.7 349.46 610.71 349.45 610.71 349.44 610.71 349.43 610.71 349.41 610.71 349.36 610.7 349.31 610.7 349.29 610.7 349.28 610.7 349.27 610.69 349.25 610.68 349.24 610.67 349.22 610.66 349.2 610.65 349.19 610.64 349.17 610.64 349.15 610.63 349.13 610.62 349.1 610.61 349.08 610.6 349.07 610.6 349.05 610.6 349.04 610.6 349.03 610.6 349.01 610.59 349 610.59 348.99 610.6 348.98 610.6 348.96 610.6 348.95 610.6 348.93 610.6 348.92 610.6 348.9 610.6 348.88 610.6 348.88 610.6 348.86 610.6 348.85 610.6 348.84 610.6 348.83 610.61 348.82 610.62 348.81 610.63 348.79 610.64 348.78 610.65 348.78 610.66 348.77 610.67 348.76 610.69 348.75 610.74 348.74 610.79 348.72 610.8 348.72 610.83 348.71 610.86 348.7 611.11 348.64 611.13 348.66 611.14 348.67 611.16 348.69 611.17 348.71 611.19 348.72 611.21 348.73 611.23 348.74 611.25 348.75 611.27 348.76 611.28 348.77 611.29 348.78 611.31 348.78 611.32 348.79 611.32 348.79 611.33 348.8 611.34 348.8 611.36 348.8 611.38 348.8 611.39 348.8 611.41 348.8 611.43 348.8 611.47 348.79 611.49 348.79 611.51 348.79 611.53 348.78 611.54 348.78 611.61 348.78 611.64 348.78 611.66 348.78 611.68 348.79 611.69 348.79 611.71 348.79 611.73 348.78 611.74 348.78 611.75 348.78 611.76 348.78 611.77 348.78 611.79 348.77 611.85 348.76 611.9 348.75 611.93 348.75 611.96 348.75 611.98 348.74 612.01 348.74 612.04 348.73 612.05 348.7 612.06 348.69 612.08 348.65 612.09 348.61 612.1 348.58 612.12 348.53 612.14 348.48 612.16 348.44 612.16 348.42 612.18 348.36 612.2 348.32 612.21 348.29 612.21 348.27 612.22 348.25 612.23 348.22 612.23 348.19 612.24 348.17 612.24 348.15 612.24 348.13 612.24 348.12 612.25 348.09 612.25 348.07 612.25 348.05 612.25 348.04 612.25 348.02 612.25 348.01 612.24 348 612.24 347.99 612.23 347.98 612.22 347.96 612.2 347.93 612.17 347.89 612.16 347.87 612.13 347.83 612.11 347.79 612.08 347.76 612.06 347.74 612.04 347.71 612.01 347.67 611.99 347.63 611.97 347.6 611.96 347.59 611.95 347.58 611.92 347.52 611.9 347.49 611.89 347.47 611.86 347.42 611.84 347.37 611.83 347.35 611.82 347.34 611.82 347.33 611.82 347.31 611.81 347.27 611.81 347.26 611.81 347.25 611.75 347.16 611.74 347.15 611.73 347.13 611.73 347.12 611.72 347.09 611.71 347.07 611.71 347.05 611.71 347.04 611.7 347.02 611.7 347 611.7 346.99 611.7 346.94 611.7 346.92 611.7 346.9 611.69 346.88 611.69 346.87 611.69 346.85 611.69 346.84 611.69 346.83 611.68 346.81 611.68 346.8 611.67 346.79 611.66 346.77 611.65 346.75 611.63 346.73 611.63 346.72 611.63 346.71 611.62 346.58 611.62 346.56 611.61 346.52 611.57 346.35 611.55 346.3 611.52 346.19 611.51 346.15 611.51 346.12 611.5 346.1 611.5 346.09 611.5 346.07 611.5 346.06 611.5 346.04 611.5 346.01 611.49 345.97 611.49 345.95 611.48 345.93 611.48 345.91 611.47 345.9 611.47 345.87 611.46 345.84 611.46 345.8 611.45 345.76 611.44 345.73 611.43 345.65 611.42 345.62 611.41 345.57 611.4 345.53 611.4 345.51 611.41 345.5 611.43 345.48 611.45 345.46 611.46 345.45 611.48 345.43 611.5 345.42 611.52 345.41 611.54 345.4 611.56 345.39 611.58 345.38 611.61 345.38 611.66 345.37 611.72 345.36 611.76 345.36 611.83 345.35 611.86 345.35 611.96 345.34 612.01 345.33 612.03 345.33 612.05 345.33 612.1 345.33 612.16 345.32 612.2 345.32 612.22 345.31 612.3 345.31 612.34 345.31 612.37 345.31 612.4 345.31 612.42 345.31 612.46 345.32 612.48 345.32 612.55 345.31 612.56 345.31 612.57 345.31 612.58 345.31 612.64 345.3 612.78 345.29 612.83 345.28 612.85 345.21 612.89 345.12 612.91 345.05 612.94 344.98 612.98 344.9 613.02 344.83 613.05 344.79 613.11 344.7 613.14 344.64 613.21 344.54 613.28 344.43 613.34 344.34 613.42 344.25 613.47 344.17 613.53 344.09 613.61 343.98 613.7 343.87 613.77 343.77 613.69 343.7 613.68 343.69 613.64 343.66 613.56 343.63 613.55 343.62 613.39 343.55 613.25 343.48 613.21 343.47 613.16 343.44 613.15 343.44 Z M 591.04 347.47 591.07 347.55 591.11 347.64 591.14 347.72 591.17 347.8 591.17 347.83 591.18 347.85 591.19 347.88 591.2 347.92 591.2 347.95 591.21 347.96 591.22 347.99 591.22 348.01 591.22 348.02 591.22 348.03 591.23 348.05 591.23 348.07 591.23 348.09 591.24 348.11 591.24 348.13 591.24 348.18 591.24 348.2 591.24 348.21 591.24 348.23 591.25 348.24 591.25 348.26 591.25 348.28 591.26 348.29 591.26 348.31 591.27 348.33 591.28 348.36 591.29 348.41 591.35 348.54 591.38 348.63 591.39 348.65 591.39 348.66 591.4 348.68 591.41 348.69 591.43 348.73 591.43 348.74 591.5 348.84 591.52 348.88 591.58 348.97 591.66 349.09 591.77 349.21 591.92 349.39 592.02 349.51 592.05 349.55 592.06 349.57 592.09 349.59 592.15 349.64 592.16 349.64 592.38 349.78 592.41 349.85 592.46 349.94 592.47 349.96 592.47 349.97 592.48 349.98 592.49 349.99 592.51 350.02 592.53 350.03 592.56 350.06 592.59 350.09 592.61 350.11 592.75 350.22 592.83 350.29 592.9 350.35 592.95 350.39 593.02 350.44 593.06 350.47 593.08 350.48 593.1 350.49 593.11 350.5 593.12 350.51 593.2 350.56 593.21 350.56 593.25 350.59 593.26 350.6 593.27 350.6 593.29 350.61 593.3 350.63 593.32 350.65 593.35 350.67 593.38 350.7 593.44 350.78 593.45 350.78 593.45 350.79 593.47 350.8 593.47 350.81 593.48 350.81 593.49 350.81 593.5 350.82 593.52 350.82 593.53 350.83 593.55 350.83 593.56 350.84 593.57 350.84 593.58 350.84 593.59 350.84 593.6 350.84 593.62 350.84 593.76 350.82 593.87 350.8 593.92 350.8 593.93 350.8 593.95 350.8 593.96 350.8 593.99 350.8 594.03 350.81 594.08 350.82 594.11 350.83 594.14 350.84 594.15 350.84 594.17 350.85 594.19 350.85 594.2 350.85 594.22 350.85 594.23 350.85 594.25 350.85 594.26 350.85 594.27 350.85 594.28 350.85 594.31 350.86 594.34 350.86 594.36 350.86 594.43 350.86 594.43 350.96 594.43 350.97 594.44 350.98 594.44 350.99 594.43 351.01 594.44 351.03 594.44 351.04 594.44 351.05 594.44 351.06 594.44 351.07 594.45 351.08 594.47 351.19 594.5 351.33 594.52 351.4 594.53 351.46 594.56 351.63 594.58 351.69 594.6 351.74 594.62 351.82 594.62 351.83 594.62 351.84 594.62 351.84 594.63 351.87 594.66 351.95 594.66 351.96 594.67 351.97 594.67 351.98 594.67 351.99 594.7 352.09 594.71 352.17 594.72 352.18 594.72 352.19 594.72 352.19 594.72 352.2 594.72 352.22 594.73 352.24 594.73 352.27 594.74 352.33 594.75 352.4 594.78 352.51 594.79 352.61 594.79 352.63 594.79 352.64 594.79 352.66 594.79 352.68 594.79 352.73 594.8 352.8 594.8 352.81 594.8 352.82 594.8 352.84 594.8 352.85 594.79 352.86 594.79 352.87 594.79 352.88 594.78 352.89 594.77 352.91 594.77 352.93 594.76 352.94 594.75 352.95 594.74 352.97 594.73 352.98 594.73 352.99 594.72 353.01 594.7 353.02 594.69 353.04 594.67 353.06 594.65 353.09 594.55 353.19 594.52 353.22 594.51 353.23 594.49 353.25 594.46 353.28 594.45 353.29 594.43 353.32 594.39 353.38 594.35 353.45 594.34 353.48 594.32 353.52 594.31 353.55 594.3 353.57 594.3 353.59 594.29 353.61 594.28 353.64 594.28 353.67 594.27 353.69 594.24 353.81 594.23 353.85 594.19 354.04 594.14 354.25 594.09 354.52 594.07 354.63 594.07 354.65 594.07 354.67 594.07 354.69 594.07 354.7 594.08 354.73 594.07 354.74 594.05 354.74 594.04 354.75 594.03 354.75 594.02 354.76 593.99 354.77 593.96 354.78 593.92 354.79 593.85 354.8 593.79 354.81 593.75 354.82 593.71 354.83 593.64 354.84 593.59 354.86 593.56 354.87 593.54 354.87 593.53 354.88 593.51 354.89 593.5 354.9 593.48 354.91 593.47 354.92 593.46 354.92 593.45 354.94 593.43 354.95 593.43 354.98 593.4 354.98 593.36 354.98 593.19 354.98 593.1 354.97 593 354.96 592.88 354.95 592.78 354.94 592.7 354.93 592.61 354.93 592.54 354.93 592.5 354.94 592.47 354.94 592.43 354.94 592.41 354.95 592.31 354.96 592.21 354.97 592.2 354.98 592.17 354.98 592.13 354.98 592.02 355 591.95 355.01 591.81 355.01 591.68 355.02 591.5 355.02 591.4 355.01 591.31 355.01 591.28 355.01 591.22 355.03 591.18 355.03 591.11 355.05 591.08 355.05 591.03 355.05 590.99 355.06 590.94 355.07 590.89 355.08 590.81 355.1 590.76 355.11 590.75 355.11 590.73 355.12 590.7 355.12 590.69 355.13 590.66 355.13 590.62 355.12 590.56 355.13 590.49 355.13 590.4 355.12 590.3 355.11 590.22 355.1 590.2 355.09 590.15 355.09 590.09 355.09 590.05 355.09 590.03 355.08 590.02 355.08 590.01 355.08 589.98 355.08 589.93 355.07 589.89 355.07 589.88 355.07 589.82 355.06 589.8 355.06 589.76 355.05 589.73 355.05 589.67 355.04 589.63 355.04 589.58 355.05 589.55 355.05 589.54 355.05 589.52 355.06 589.49 355.06 589.42 355.07 589.37 355.08 589.31 355.1 589.26 355.11 589.23 355.11 589.22 355.11 589.19 355.11 589.16 355.11 589.12 355.11 589.07 355.12 589.05 355.12 589.04 355.12 588.99 355.13 588.93 355.15 588.89 355.16 588.85 355.18 588.8 355.2 588.73 355.21 588.71 355.21 588.7 355.22 588.64 355.22 588.59 355.22 588.54 355.23 588.5 355.24 588.43 355.25 588.37 355.26 588.31 355.26 588.27 355.26 588.22 355.26 588.2 355.26 588.17 355.26 588.11 355.26 588.07 355.26 588.03 355.25 588.02 355.25 587.99 355.25 587.95 355.25 587.88 355.26 587.81 355.26 587.74 355.26 587.65 355.27 587.59 355.27 587.5 355.27 587.45 355.28 587.42 355.27 587.4 355.27 587.39 355.27 587.35 355.27 587.34 355.27 587.32 355.27 587.31 355.28 587.28 355.28 587.26 355.28 587.26 355.27 587.23 355.27 587.2 355.27 587.19 355.26 587.16 355.26 587.13 355.25 587.1 355.25 587.05 355.25 586.99 355.25 586.9 355.24 586.84 355.25 586.79 355.25 586.72 355.25 586.67 355.24 586.6 355.24 586.54 355.23 586.46 355.23 586.41 355.23 586.36 355.22 586.31 355.22 586.26 355.21 586.22 355.21 586.16 355.21 586.09 355.21 586.03 355.21 585.96 355.21 585.91 355.21 585.86 355.21 585.81 355.21 585.76 355.21 585.72 355.21 585.66 355.2 585.62 355.2 585.59 355.2 585.55 355.2 585.48 355.19 585.41 355.2 585.35 355.2 585.25 355.2 585.21 355.21 585.19 355.21 585.09 355.22 585 355.23 584.92 355.23 584.88 355.23 584.84 355.23 584.82 355.23 584.78 355.23 584.74 355.23 584.7 355.23 584.62 355.23 584.57 355.22 584.56 355.22 584.52 355.21 584.52 355.11 584.52 355.06 584.51 354.9 584.51 354.42 584.51 354.09 584.5 353.93 584.51 353.78 584.5 353.67 584.52 353.56 584.54 353.47 584.63 353.27 584.71 353.09 584.95 352.59 585.23 351.96 585.29 351.8 585.3 351.79 585.35 351.64 585.42 351.46 585.44 351.47 585.5 351.48 585.79 351.55 585.98 351.6 586.17 351.65 586.26 351.67 586.34 351.68 586.38 351.67 586.39 351.66 586.58 351.3 586.58 351.28 586.59 351.28 586.62 351.22 586.64 351.17 586.65 351.16 586.58 350.93 586.56 350.82 586.55 350.78 586.54 350.67 586.53 350.63 586.51 350.46 586.5 350.3 586.5 350.25 586.5 350.24 586.5 350.14 586.5 350.13 586.58 349.67 586.61 349.51 586.62 349.39 586.63 349.29 586.63 349.27 586.64 349.24 586.64 349.19 586.64 349.19 586.67 349.09 586.68 349.06 586.68 349.05 586.77 348.71 586.78 348.64 586.79 348.63 586.8 348.58 586.81 348.52 586.82 348.51 586.88 348.25 586.88 348.24 586.93 348.07 586.93 348.05 586.94 348.03 586.94 348.02 587.01 347.96 587.18 347.77 587.25 347.69 587.28 347.69 587.3 347.68 587.33 347.67 587.38 347.67 587.4 347.67 587.46 347.67 587.51 347.67 587.53 347.67 587.56 347.67 587.68 347.7 587.73 347.71 587.78 347.71 587.85 347.71 587.95 347.71 588.1 347.72 588.21 347.72 588.3 347.73 588.36 347.74 588.44 347.73 588.47 347.73 588.54 347.73 588.61 347.74 588.65 347.75 588.74 347.73 588.77 347.73 588.85 347.74 588.95 347.75 589.02 347.76 589.05 347.75 589.09 347.76 589.14 347.77 589.19 347.78 589.23 347.79 589.24 347.8 589.29 347.8 589.36 347.81 589.42 347.8 589.46 347.8 589.47 347.8 589.49 347.8 589.5 347.8 589.53 347.82 589.56 347.82 589.61 347.82 589.66 347.82 589.71 347.82 589.73 347.82 589.75 347.82 589.79 347.83 589.87 347.83 589.93 347.83 589.99 347.82 590.06 347.8 590.11 347.78 590.14 347.75 590.15 347.74 590.18 347.72 590.22 347.68 590.25 347.67 590.29 347.66 590.32 347.65 590.35 347.65 590.39 347.65 590.41 347.64 590.46 347.61 590.49 347.59 590.52 347.58 590.59 347.56 590.65 347.55 590.66 347.54 590.7 347.52 590.72 347.5 590.75 347.49 590.78 347.48 590.83 347.49 590.87 347.48 590.94 347.49 590.98 347.49 591 347.48 591.04 347.47 Z"/>
</g></svg>