<svg xmlns="http://www.w3.org/2000/svg" version="1.2" baseProfile="tiny" stroke-linecap="round" stroke-linejoin="round" viewBox="456.12 79.68 35.18 25.95"><g xmlns="http://www.w3.org/2000/svg" id="Irun">
<path d="M 481.38 82.97 481.54 82.89 481.59 82.87 481.62 82.86 481.69 82.85 481.81 82.85 481.9 82.84 481.91 82.84 481.97 82.84 481.98 82.84 482.11 82.83 482.24 82.81 482.25 82.81 482.31 82.81 482.4 82.81 482.42 82.82 482.45 82.82 482.57 82.83 482.6 82.83 482.61 82.83 482.67 82.84 482.72 82.86 482.78 82.88 482.84 82.9 482.89 82.91 483 82.97 483.08 83.01 483.08 83.01 483.16 83.06 483.2 83.09 483.28 83.16 483.53 83.36 483.63 83.44 483.71 83.49 483.86 83.62 483.93 83.68 484.05 83.78 484.09 83.82 484.12 83.86 484.16 83.9 484.24 84.02 484.27 84.09 484.29 84.12 484.31 84.19 484.32 84.24 484.33 84.26 484.34 84.34 484.34 84.38 484.36 84.45 484.37 84.49 484.38 84.53 484.41 84.64 484.43 84.71 484.44 84.75 484.46 84.83 484.46 84.86 484.47 84.93 484.47 84.98 484.48 85.1 484.49 85.14 484.55 85.28 484.57 85.35 484.6 85.42 484.61 85.47 484.64 85.6 484.66 85.71 484.67 85.8 484.69 85.84 484.7 85.89 484.71 85.92 484.72 85.94 484.71 85.97 484.7 85.99 484.66 86.03 484.64 86.09 484.59 86.16 484.58 86.17 484.57 86.17 484.55 86.19 484.52 86.21 484.48 86.23 484.44 86.25 484.42 86.26 484.4 86.28 484.39 86.29 484.37 86.33 484.36 86.35 484.35 86.38 484.33 86.42 484.33 86.5 484.33 86.61 484.32 86.7 484.33 86.8 484.35 86.88 484.37 86.97 484.4 87.05 484.45 87.13 484.47 87.15 484.53 87.21 484.69 87.36 484.71 87.38 484.78 87.45 484.84 87.5 484.88 87.54 484.97 87.6 485.1 87.67 485.18 87.73 485.31 87.82 485.37 87.87 485.4 87.89 485.42 87.9 485.47 87.92 485.59 87.94 485.6 87.94 485.66 87.95 485.8 87.94 485.84 87.94 485.88 87.92 485.92 87.91 485.94 87.89 486.07 87.85 486.21 87.81 486.33 87.78 486.4 87.77 486.41 87.77 486.61 87.74 486.65 87.73 486.78 87.7 486.8 87.7 486.83 87.69 486.94 87.67 487.02 87.66 487.13 87.64 487.27 87.63 487.36 87.62 487.42 87.63 487.52 87.64 487.61 87.64 487.69 87.65 487.8 87.69 487.87 87.72 487.93 87.76 488 87.79 488.04 87.8 488.08 87.81 488.1 87.82 488.15 87.85 488.21 87.87 488.36 87.92 488.48 87.99 488.58 88.04 488.65 88.09 488.72 88.14 488.77 88.18 488.8 88.22 488.8 88.26 488.8 88.31 488.8 88.37 488.79 88.44 488.77 88.54 488.75 88.6 488.72 88.67 488.67 88.78 488.64 88.83 488.64 88.84 488.62 88.87 488.61 88.89 488.59 88.94 488.58 88.97 488.57 88.99 488.56 89.01 488.55 89.05 488.52 89.17 488.5 89.28 488.49 89.43 488.49 89.52 488.48 89.59 488.46 89.7 488.45 89.76 488.44 89.82 488.43 89.89 488.43 89.95 488.44 90 488.47 90.06 488.49 90.1 488.53 90.14 488.57 90.17 488.6 90.22 488.64 90.26 488.67 90.3 488.71 90.35 488.73 90.39 488.75 90.45 488.8 90.51 488.83 90.57 488.85 90.61 488.86 90.68 488.86 90.75 488.86 90.81 488.84 90.92 488.81 91.06 488.78 91.13 488.77 91.2 488.75 91.28 488.72 91.4 488.71 91.48 488.69 91.57 488.67 91.63 488.67 91.63 488.65 91.7 488.61 91.82 488.6 91.84 488.59 91.86 488.57 91.89 488.55 91.93 488.51 91.97 488.46 92.02 488.43 92.06 488.43 92.07 488.41 92.1 488.39 92.13 488.37 92.17 488.33 92.23 488.3 92.28 488.28 92.3 488.27 92.32 488.14 92.52 488.06 92.6 488.02 92.68 488 92.7 487.98 92.74 487.88 92.88 487.85 92.92 487.83 92.95 487.82 92.96 487.78 92.99 487.77 93.01 487.75 93.03 487.72 93.07 487.71 93.08 487.69 93.1 487.67 93.13 487.66 93.17 487.66 93.18 487.65 93.2 487.64 93.22 487.64 93.32 487.64 93.35 487.63 93.4 487.63 93.44 487.64 93.49 487.65 93.51 487.66 93.56 487.69 93.61 487.75 93.68 487.79 93.72 487.84 93.76 487.91 93.81 488.01 93.88 488.1 93.94 488.15 93.98 488.19 94.01 488.23 94.04 488.32 94.1 488.4 94.16 488.44 94.21 488.48 94.26 488.51 94.3 488.58 94.35 488.63 94.4 488.68 94.47 488.73 94.54 488.75 94.59 488.76 94.61 488.77 94.63 488.77 94.66 488.78 94.69 488.77 94.72 488.76 94.75 488.75 94.77 488.74 94.78 488.72 94.8 488.71 94.81 488.69 94.81 488.67 94.82 488.64 94.82 488.63 94.83 488.59 94.84 488.54 94.86 488.52 94.87 488.51 94.88 488.5 94.89 488.48 94.9 488.47 94.91 488.44 94.94 488.44 94.94 488.43 94.95 488.41 94.96 488.41 94.96 488.4 94.97 488.38 94.98 488.36 94.99 488.36 94.99 488.33 95 488.28 95.02 488.26 95.03 488.24 95.03 488.21 95.04 488.2 95.05 488.19 95.05 488.17 95.07 488.14 95.1 488.13 95.11 488.12 95.12 488.11 95.14 488.11 95.16 488.09 95.19 488.09 95.2 488.07 95.23 488.06 95.25 488.06 95.27 488.06 95.28 488.05 95.31 488.05 95.34 488.04 95.36 488.04 95.37 488.03 95.39 488.03 95.4 488.03 95.41 488.02 95.42 488.02 95.44 488.01 95.45 488.01 95.48 488.01 95.5 488.03 95.55 488.06 95.59 488.1 95.64 488.12 95.67 488.2 95.7 488.29 95.74 488.37 95.76 488.41 95.77 488.52 95.77 488.57 95.75 488.62 95.74 488.63 95.74 488.66 95.74 488.7 95.75 488.74 95.76 488.77 95.76 488.8 95.75 488.83 95.75 488.84 95.74 488.88 95.74 488.89 95.74 488.95 95.74 489 95.74 489.05 95.75 489.11 95.76 489.18 95.79 489.24 95.82 489.3 95.88 489.35 95.92 489.37 95.96 489.4 96.01 489.41 96.05 489.44 96.13 489.47 96.23 489.5 96.35 489.53 96.41 489.56 96.51 489.59 96.58 489.62 96.67 489.65 96.74 489.68 96.79 489.69 96.81 489.71 96.85 489.72 96.87 489.73 96.89 489.73 96.91 489.76 96.97 489.77 97 489.77 97.04 489.79 97.16 489.8 97.22 489.8 97.24 489.82 97.34 489.83 97.41 489.84 97.45 489.85 97.5 489.86 97.54 489.86 97.69 489.85 97.73 489.85 97.75 489.85 97.77 489.86 97.81 489.86 97.89 489.86 97.95 489.87 98.02 489.87 98.07 489.88 98.1 489.89 98.14 489.9 98.2 489.91 98.25 489.91 98.28 489.93 98.41 489.93 98.42 489.94 98.48 489.94 98.55 489.95 98.58 489.95 98.61 489.96 98.67 489.97 98.72 489.99 98.76 490.02 98.86 490.05 99.02 490.06 99.06 490.06 99.09 490.07 99.11 490.09 99.19 490.11 99.25 490.14 99.32 490.16 99.37 490.17 99.43 490.18 99.46 490.19 99.48 490.2 99.51 490.21 99.54 490.23 99.59 490.24 99.62 490.26 99.66 490.28 99.68 490.31 99.72 490.34 99.75 490.38 99.8 490.44 99.86 490.47 99.9 490.49 99.93 490.52 99.96 490.53 99.99 490.54 100.02 490.55 100.06 490.56 100.09 490.57 100.13 490.58 100.16 490.59 100.19 490.6 100.2 490.61 100.23 490.64 100.31 490.66 100.36 490.67 100.4 490.67 100.46 490.68 100.51 490.68 100.55 490.69 100.63 490.7 100.67 490.7 100.69 490.69 100.72 490.7 100.75 490.71 100.78 490.73 100.82 490.74 100.84 490.74 100.86 490.75 100.88 490.75 100.9 490.76 100.92 490.78 100.94 490.79 100.96 490.8 100.98 490.81 101.01 490.82 101.06 490.83 101.11 490.85 101.15 490.87 101.19 490.88 101.22 490.9 101.24 490.9 101.26 490.9 101.27 490.9 101.28 490.9 101.3 490.91 101.35 490.92 101.38 490.93 101.42 490.95 101.47 490.97 101.51 490.98 101.53 490.99 101.56 491.01 101.59 491.03 101.58 491.04 101.59 491.06 101.61 491.08 101.63 491.09 101.65 491.1 101.66 491.11 101.68 491.12 101.7 491.14 101.72 491.15 101.73 491.17 101.76 491.18 101.78 491.2 101.8 491.21 101.81 491.21 101.82 491.22 101.83 491.22 101.84 491.23 101.84 491.23 101.86 491.24 101.86 491.24 101.87 491.25 101.88 491.25 101.9 491.26 101.9 491.26 101.91 491.27 101.93 491.27 101.93 491.27 101.94 491.28 101.96 491.28 101.96 491.28 101.97 491.29 101.99 491.29 102 491.29 102.01 491.29 102.02 491.29 102.03 491.29 102.04 491.29 102.05 491.29 102.06 491.29 102.07 491.29 102.08 491.29 102.09 491.29 102.1 491.29 102.14 491.29 102.15 491.29 102.16 491.29 102.17 491.29 102.19 491.29 102.19 491.29 102.21 491.29 102.22 491.28 102.25 491.28 102.26 491.28 102.28 491.28 102.29 491.28 102.31 491.27 102.35 491.27 102.38 491.27 102.4 491.26 102.39 491.25 102.39 491.25 102.38 491.23 102.38 491.2 102.38 491.18 102.38 491.16 102.37 491.15 102.37 491.13 102.36 491.12 102.36 491.09 102.34 491.09 102.34 491.07 102.33 491.05 102.31 491.04 102.31 491.03 102.3 491.01 102.29 491 102.28 490.99 102.27 490.97 102.26 490.96 102.25 490.95 102.24 490.93 102.23 490.91 102.22 490.9 102.21 490.89 102.2 490.87 102.2 490.86 102.19 490.85 102.19 490.84 102.19 490.8 102.18 490.79 102.18 490.77 102.18 490.76 102.17 490.74 102.17 490.72 102.17 490.7 102.17 490.69 102.16 490.68 102.16 490.65 102.16 490.64 102.16 490.63 102.16 490.62 102.15 490.62 102.15 490.57 102.14 490.54 102.13 490.52 102.13 490.51 102.13 490.5 102.12 490.48 102.12 490.46 102.11 490.44 102.1 490.42 102.1 490.41 102.09 490.39 102.09 490.38 102.08 490.36 102.07 490.35 102.07 490.35 102.06 490.34 102.06 490.33 102.05 490.32 102.05 490.31 102.04 490.3 102.03 490.28 102.02 490.28 102.01 490.27 102 490.26 101.99 490.25 101.97 490.24 101.96 490.23 101.94 490.22 101.93 490.19 101.89 490.18 101.88 490.17 101.87 490.16 101.86 490.16 101.85 490.14 101.84 490.14 101.83 490.12 101.82 490.11 101.81 490.1 101.8 490.09 101.8 490.08 101.78 490.07 101.78 490.05 101.77 490.04 101.76 490.03 101.76 490.02 101.75 490 101.74 489.99 101.74 489.97 101.74 489.96 101.74 489.94 101.74 489.93 101.74 489.91 101.74 489.9 101.74 489.87 101.74 489.86 101.74 489.85 101.74 489.83 101.75 489.82 101.75 489.8 101.76 489.78 101.76 489.77 101.76 489.76 101.77 489.73 101.77 489.69 101.79 489.68 101.79 489.67 101.8 489.65 101.8 489.64 101.81 489.63 101.82 489.62 101.83 489.61 101.83 489.6 101.84 489.59 101.85 489.58 101.86 489.57 101.86 489.56 101.87 489.55 101.87 489.54 101.88 489.52 101.89 489.51 101.9 489.49 101.91 489.49 101.91 489.47 101.93 489.46 101.94 489.45 101.96 489.43 101.97 489.41 101.99 489.4 102 489.4 102.01 489.39 102.01 489.38 102.02 489.37 102.02 489.35 102.02 489.34 102.03 489.33 102.02 489.32 102.02 489.3 102.01 489.29 102 489.28 101.99 489.26 101.97 489.23 101.94 489.22 101.93 489.21 101.92 489.19 101.9 489.18 101.89 489.17 101.88 489.16 101.88 489.15 101.86 489.14 101.86 489.13 101.84 489.12 101.83 489.12 101.83 489.11 101.82 489.1 101.8 489.09 101.8 489.05 101.77 489.05 101.76 489.03 101.75 489.02 101.74 489.02 101.74 489.01 101.73 489.01 101.72 489 101.72 488.99 101.71 488.99 101.7 488.98 101.68 488.97 101.67 488.96 101.65 488.96 101.65 488.96 101.64 488.94 101.61 488.94 101.59 488.93 101.57 488.92 101.56 488.92 101.53 488.91 101.51 488.9 101.5 488.88 101.49 488.87 101.47 488.85 101.47 488.84 101.47 488.82 101.48 488.81 101.48 488.79 101.48 488.79 101.49 488.77 101.5 488.75 101.51 488.74 101.51 488.72 101.52 488.7 101.53 488.69 101.53 488.68 101.54 488.65 101.54 488.65 101.55 488.63 101.55 488.62 101.55 488.61 101.55 488.6 101.56 488.58 101.56 488.55 101.57 488.54 101.57 488.53 101.57 488.51 101.57 488.5 101.58 488.48 101.58 488.47 101.59 488.45 101.6 488.45 101.61 488.44 101.61 488.44 101.62 488.43 101.63 488.42 101.64 488.41 101.67 488.41 101.68 488.4 101.71 488.39 101.72 488.39 101.73 488.39 101.74 488.37 101.78 488.37 101.79 488.36 101.81 488.35 101.83 488.35 101.83 488.34 101.85 488.33 101.88 488.33 101.89 488.32 101.9 488.31 101.92 488.3 101.94 488.29 101.96 488.28 101.97 488.27 101.99 488.26 102 488.25 102.02 488.24 102.03 488.23 102.04 488.23 102.05 488.21 102.07 488.21 102.07 488.19 102.1 488.17 102.11 488.17 102.13 488.16 102.14 488.15 102.15 488.14 102.16 488.13 102.17 488.13 102.18 488.12 102.19 488.11 102.21 488.11 102.23 488.1 102.24 488.1 102.26 488.09 102.28 488.09 102.29 488.07 102.33 488.05 102.36 488.05 102.38 488.04 102.39 488.03 102.4 488.02 102.42 488.01 102.44 488 102.45 487.99 102.46 487.98 102.46 487.97 102.47 487.96 102.47 487.95 102.47 487.94 102.47 487.93 102.47 487.91 102.46 487.9 102.45 487.89 102.45 487.88 102.44 487.88 102.43 487.86 102.42 487.85 102.39 487.83 102.36 487.82 102.35 487.81 102.34 487.8 102.33 487.78 102.31 487.76 102.28 487.75 102.28 487.74 102.27 487.74 102.26 487.73 102.26 487.7 102.24 487.68 102.22 487.68 102.21 487.65 102.19 487.63 102.17 487.61 102.16 487.6 102.14 487.58 102.12 487.57 102.1 487.55 102.09 487.54 102.09 487.53 102.08 487.51 102.07 487.49 102.07 487.48 102.06 487.45 102.07 487.44 102.07 487.42 102.07 487.4 102.07 487.37 102.08 487.35 102.09 487.34 102.1 487.33 102.1 487.32 102.11 487.31 102.11 487.29 102.13 487.28 102.13 487.26 102.14 487.24 102.16 487.23 102.17 487.23 102.18 487.22 102.18 487.2 102.2 487.19 102.21 487.19 102.22 487.17 102.24 487.15 102.26 487.15 102.27 487.13 102.3 487.11 102.32 487.09 102.36 487.08 102.37 487.07 102.41 487.06 102.42 487.05 102.43 487.04 102.45 487.02 102.48 487 102.5 486.99 102.52 486.98 102.53 486.95 102.56 486.93 102.57 486.9 102.59 486.86 102.61 486.84 102.62 486.8 102.64 486.78 102.65 486.76 102.66 486.74 102.66 486.73 102.66 486.71 102.66 486.69 102.66 486.66 102.64 486.64 102.63 486.62 102.62 486.6 102.61 486.58 102.6 486.55 102.58 486.53 102.57 486.5 102.55 486.48 102.55 486.46 102.54 486.42 102.54 486.4 102.55 486.37 102.56 486.34 102.57 486.3 102.59 486.28 102.59 486.25 102.61 486.22 102.62 486.19 102.63 486.17 102.63 486.14 102.63 486.1 102.63 486.07 102.63 486.03 102.64 486.01 102.65 485.97 102.65 485.93 102.66 485.9 102.66 485.88 102.67 485.85 102.66 485.82 102.66 485.8 102.66 485.78 102.66 485.75 102.67 485.73 102.67 485.71 102.66 485.69 102.66 485.68 102.67 485.65 102.69 485.62 102.7 485.59 102.72 485.54 102.75 485.51 102.77 485.49 102.78 485.46 102.8 485.44 102.81 485.42 102.82 485.4 102.84 485.39 102.86 485.38 102.88 485.37 102.89 485.36 102.93 485.35 102.96 485.33 102.99 485.32 103.02 485.31 103.05 485.3 103.08 485.29 103.08 485.29 103.1 485.28 103.12 485.27 103.13 485.26 103.15 485.25 103.18 485.24 103.19 485.23 103.21 485.21 103.23 485.19 103.25 485.18 103.26 485.16 103.27 485.16 103.28 485.15 103.28 485.13 103.29 485.1 103.29 485.08 103.3 485.06 103.31 485.05 103.32 485.05 103.32 485.04 103.33 485.04 103.34 485.03 103.35 485.03 103.36 485.03 103.37 485.03 103.38 485.02 103.4 485.02 103.42 485.02 103.43 485.02 103.44 485.02 103.45 485.03 103.48 485.03 103.5 485.03 103.51 485.03 103.52 485.04 103.53 485.04 103.55 485.04 103.55 485.04 103.57 485.05 103.6 485.05 103.62 485.05 103.65 485.04 103.67 485.03 103.69 485.02 103.7 485.01 103.71 484.99 103.72 484.96 103.75 484.94 103.76 484.89 103.8 484.87 103.82 484.81 103.86 484.76 103.9 484.73 103.93 484.71 103.95 484.64 104.01 484.59 104.04 484.54 104.08 484.53 104.1 484.51 104.11 484.5 104.11 484.48 104.13 484.47 104.14 484.45 104.15 484.44 104.16 484.43 104.17 484.42 104.18 484.41 104.18 484.4 104.19 484.39 104.2 484.35 104.22 484.34 104.23 484.32 104.24 484.31 104.25 484.31 104.25 484.3 104.26 484.28 104.27 484.26 104.26 484.23 104.23 484.2 104.21 484.17 104.18 484.13 104.13 484.09 104.09 484.06 104.06 484.03 104.03 484 103.99 483.99 103.98 483.98 103.96 483.98 103.95 483.98 103.94 483.98 103.92 483.97 103.91 483.97 103.89 483.96 103.87 483.95 103.85 483.93 103.83 483.91 103.81 483.9 103.8 483.89 103.79 483.87 103.78 483.86 103.78 483.84 103.78 483.82 103.77 483.8 103.76 483.79 103.75 483.77 103.75 483.76 103.74 483.72 103.73 483.71 103.73 483.69 103.73 483.67 103.73 483.65 103.74 483.63 103.74 483.61 103.74 483.59 103.74 483.57 103.74 483.55 103.75 483.53 103.75 483.5 103.76 483.49 103.77 483.46 103.77 483.44 103.78 483.42 103.79 483.4 103.79 483.38 103.79 483.36 103.8 483.34 103.8 483.32 103.8 483.31 103.8 483.28 103.79 483.26 103.79 483.24 103.8 483.22 103.8 483.19 103.81 483.17 103.81 483.15 103.83 483.11 103.84 483.08 103.85 483.07 103.86 483.04 103.87 483.03 103.88 483.02 103.88 483.01 103.89 483 103.9 483 103.91 482.99 103.91 482.98 103.92 482.96 103.94 482.95 103.95 482.93 103.97 482.92 103.98 482.9 104 482.87 104.02 482.84 104.04 482.81 104.06 482.77 104.08 482.76 104.09 482.73 104.11 482.69 104.12 482.64 104.13 482.63 104.13 482.6 104.13 482.58 104.13 482.55 104.12 482.52 104.12 482.47 104.13 482.45 104.13 482.43 104.14 482.4 104.16 482.39 104.16 482.36 104.17 482.35 104.18 482.33 104.19 482.31 104.2 482.31 104.2 482.29 104.21 482.28 104.23 482.28 104.23 482.27 104.25 482.27 104.27 482.27 104.29 482.27 104.31 482.28 104.33 482.28 104.36 482.29 104.36 482.29 104.39 482.3 104.41 482.3 104.43 482.31 104.45 482.31 104.47 482.32 104.48 482.32 104.49 482.32 104.51 482.32 104.52 482.32 104.54 482.32 104.56 482.31 104.57 482.3 104.6 482.29 104.61 482.29 104.63 482.28 104.65 482.26 104.67 482.25 104.69 482.24 104.71 482.22 104.73 482.2 104.76 482.18 104.78 482.17 104.8 482.15 104.82 482.13 104.84 482.12 104.86 482.09 104.87 482.07 104.88 482.03 104.88 482.01 104.88 481.99 104.87 481.98 104.87 481.97 104.86 481.95 104.85 481.94 104.85 481.92 104.84 481.9 104.83 481.88 104.83 481.86 104.83 481.85 104.83 481.83 104.83 481.82 104.83 481.8 104.84 481.79 104.85 481.78 104.86 481.77 104.87 481.77 104.87 481.76 104.88 481.76 104.89 481.75 104.89 481.74 104.9 481.73 104.91 481.72 104.92 481.71 104.92 481.69 104.93 481.67 104.94 481.65 104.94 481.63 104.95 481.61 104.95 481.59 104.97 481.56 104.99 481.55 105 481.52 105.02 481.48 105.06 481.47 105.08 481.46 105.09 481.44 105.12 481.44 105.14 481.43 105.16 481.43 105.18 481.43 105.22 481.44 105.25 481.44 105.27 481.44 105.29 481.44 105.3 481.44 105.31 481.44 105.32 481.44 105.34 481.45 105.35 481.44 105.37 481.44 105.39 481.43 105.4 481.42 105.41 481.41 105.42 481.4 105.44 481.39 105.45 481.37 105.48 481.32 105.5 481.29 105.52 481.27 105.54 481.24 105.56 481.22 105.58 481.21 105.59 481.18 105.62 481.17 105.62 481.11 105.6 481.01 105.58 480.89 105.54 480.81 105.51 480.78 105.5 480.74 105.49 480.68 105.47 480.59 105.43 480.56 105.36 480.53 105.25 480.51 105.16 480.5 105.13 480.49 105.09 480.49 105.07 480.48 105.05 480.47 105.05 480.46 105.04 480.45 105.04 480.44 105.04 480.42 105.03 480.34 105.01 480.31 105 480.25 104.98 480.2 104.96 480.13 104.94 480.07 104.92 480.03 104.91 480.01 104.91 479.96 104.9 479.94 104.89 479.9 104.88 479.83 104.86 479.73 104.84 479.64 104.82 479.56 104.81 479.49 104.79 479.36 104.71 479.34 104.7 479.27 104.66 479.12 104.57 478.98 104.59 478.88 104.6 478.87 104.61 478.67 104.64 478.61 104.65 478.52 104.66 478.38 104.69 478.23 104.71 478.17 104.72 478.1 104.73 477.91 104.76 477.9 104.76 477.78 104.77 477.58 104.79 477.51 104.8 477.43 104.8 477.31 104.82 477.18 104.88 477.08 104.92 477.07 104.93 477.03 104.97 476.92 105.11 476.9 105.14 476.8 105.27 476.78 105.31 476.67 105.45 476.64 105.5 475.19 104.26 474.37 103.06 474.12 102.89 473.69 102.7 473.56 102.57 473.34 102.13 473.08 101.99 472.76 101.81 472.47 101.65 471.71 101.8 471.52 101.76 471.32 101.72 470.72 101.15 470.43 101 469.97 100.71 469.71 100.56 469.66 100.6 469.63 100.59 469.61 100.58 469.59 100.55 469.55 100.49 469.5 100.44 469.46 100.39 469.44 100.37 469.42 100.36 469.4 100.35 469.38 100.34 469.35 100.34 469.3 100.32 469.28 100.31 469.27 100.3 469.26 100.28 469.25 100.27 469.23 100.25 469.2 100.23 469.13 100.19 469.06 100.17 468.99 100.15 468.94 100.15 468.89 100.13 468.83 100.1 468.77 100.07 468.71 100.01 468.68 99.97 468.67 99.91 468.63 99.86 468.59 99.81 468.53 99.74 468.49 99.7 468.46 99.67 468.45 99.66 468.4 99.64 468.4 99.62 468.4 99.6 468.39 99.59 468.39 99.58 468.38 99.57 468.36 99.55 468.34 99.53 468.32 99.51 468.32 99.48 468.31 99.47 468.3 99.47 468.28 99.46 468.24 99.46 468.23 99.46 468.22 99.45 468.2 99.44 468.19 99.43 468.18 99.42 468.17 99.42 468.15 99.42 468.12 99.41 468.11 99.4 468.09 99.39 468.08 99.37 468.07 99.32 468.03 99.24 467.98 99.2 467.91 99.12 467.83 99.05 467.77 99.01 467.71 98.97 467.7 98.97 467.66 98.96 467.61 98.94 467.57 98.91 467.5 98.89 467.47 98.86 467.17 98.38 467.02 98.04 466.68 97.89 466.58 97.87 466.63 97.8 466.34 97.81 466.2 97.76 466.1 97.73 465.92 97.66 465.43 97.46 465.32 97.41 465.03 97.08 464.24 96.52 463.8 96.19 463.15 95.81 462.94 95.68 462 95.39 461.89 95.38 461.83 95.69 461.25 95.07 461.22 95.04 460.52 94.38 460.09 93.95 459.93 93.82 459.57 93.25 459.57 93.25 459.56 93.26 459.53 93.27 459.52 93.27 459.51 93.27 459.5 93.27 459.49 93.27 459.48 93.27 459.47 93.26 459.45 93.26 459.45 93.26 459.44 93.25 459.43 93.25 459.42 93.24 459.38 93.22 459.34 93.21 459.32 93.2 459.3 93.19 459.27 93.19 459.25 93.18 459.22 93.17 459.2 93.16 459.18 93.15 459.12 93.13 459.09 93.11 459.08 93.11 459.07 93.1 459.06 93.1 459.04 93.09 459.01 93.07 458.96 93.03 458.93 92.99 458.92 92.97 458.9 92.96 458.85 92.89 458.81 92.85 458.78 92.83 458.76 92.82 458.74 92.8 458.72 92.77 458.69 92.75 458.67 92.74 458.65 92.73 458.63 92.72 458.62 92.71 458.59 92.68 458.56 92.63 458.49 92.56 458.45 92.52 458.4 92.47 458.39 92.47 458.2 92.24 457.94 91.87 457.61 91.37 457.37 91.14 457.07 90.93 456.94 90.77 456.81 90.63 456.15 90.54 456.45 89.77 456.66 89.22 456.89 88.63 457.17 88.71 457.87 88.6 457.92 88.49 458.26 88.4 458.73 88.4 460.33 88.12 460.7 87.86 462.5 86.63 463.27 86.11 464.91 84.75 466.49 84.2 467.94 83.7 468.42 83.55 468.79 83.47 468.93 83.44 469.31 83.16 470.33 82.57 470.41 82.51 470.49 82.53 470.67 82.32 470.68 82.3 470.69 82.29 470.69 82.28 470.72 82.24 470.74 82.21 470.77 82.18 470.8 82.15 470.81 82.14 470.82 82.12 470.84 82.1 470.85 82.08 470.88 82.02 470.91 81.96 470.95 81.87 470.97 81.83 471 81.78 471.03 81.74 471.03 81.73 471.06 81.68 471.11 81.59 471.13 81.55 471.15 81.52 471.2 81.44 471.21 81.43 471.22 81.43 471.23 81.42 471.23 81.4 471.24 81.39 471.24 81.38 471.25 81.37 471.27 81.34 471.28 81.3 471.3 81.28 471.33 81.22 471.34 81.19 471.36 81.17 471.37 81.14 471.4 81.1 471.42 81.09 471.43 81.08 471.45 81.06 471.46 81.05 471.47 81.05 471.49 81.04 471.5 81.03 471.52 81.02 471.54 81.01 471.57 81 471.63 81 471.67 80.97 471.69 80.93 471.7 80.91 471.71 80.88 471.74 80.83 471.77 80.82 471.84 80.82 471.94 80.82 471.97 80.82 471.98 80.81 472 80.81 472.07 80.8 472.14 80.79 472.25 80.76 472.31 80.75 472.42 80.71 472.5 80.68 472.62 80.64 472.71 80.6 472.75 80.58 472.82 80.54 472.87 80.51 472.99 80.45 473.05 80.4 473.14 80.33 473.31 80.19 473.39 80.12 473.44 80.07 473.59 79.96 473.75 79.82 473.82 79.75 473.89 79.7 473.92 79.75 473.96 79.83 473.97 79.85 473.98 79.86 474.05 79.93 474.08 79.96 474.13 80 474.34 80.15 474.37 80.17 474.62 80.33 474.67 80.37 474.69 80.4 474.72 80.43 474.77 80.49 474.77 80.5 474.78 80.51 474.94 80.65 474.95 80.65 474.95 80.66 474.98 80.68 475 80.71 475.16 80.89 475.17 80.9 475.19 80.92 475.2 80.94 475.21 80.95 475.26 81.06 475.31 81.1 475.4 81.17 475.48 81.21 475.59 81.25 475.75 81.29 475.88 81.33 475.96 81.34 476.01 81.34 476.09 81.34 476.1 81.34 476.18 81.34 476.41 81.34 476.54 81.34 476.65 81.35 476.72 81.35 476.81 81.35 476.97 81.35 477 81.35 477.04 81.36 477.06 81.36 477.1 81.37 477.15 81.37 477.19 81.4 477.23 81.43 477.26 81.48 477.27 81.5 477.3 81.55 477.31 81.57 477.33 81.64 477.35 81.78 477.35 81.82 477.36 81.93 477.36 81.96 477.37 82.08 477.37 82.15 477.39 82.26 477.42 82.39 477.43 82.53 477.46 82.63 477.5 82.74 477.54 82.8 477.56 82.83 477.58 82.85 477.6 82.89 477.65 82.93 477.71 82.97 477.81 83.02 477.82 83.02 477.86 83.04 477.95 83.08 478.01 83.09 478.07 83.11 478.16 83.14 478.26 83.17 478.32 83.18 478.37 83.19 478.42 83.22 478.48 83.25 478.55 83.29 478.59 83.32 478.63 83.36 478.67 83.41 478.69 83.45 478.7 83.46 478.73 83.5 478.77 83.52 478.81 83.53 478.88 83.55 478.96 83.57 479.09 83.6 479.17 83.62 479.23 83.64 479.43 83.64 479.58 83.63 479.69 83.62 479.82 83.62 479.93 83.59 480.02 83.56 480.04 83.55 480.14 83.5 480.24 83.44 480.29 83.41 480.32 83.39 480.42 83.34 480.52 83.29 480.73 83.21 480.8 83.18 480.85 83.18 480.89 83.17 480.95 83.16 481.06 83.15 481.14 83.12 481.2 83.09 481.32 83.01 481.38 82.97 Z"/>
</g></svg>