<svg xmlns="http://www.w3.org/2000/svg" version="1.2" baseProfile="tiny" stroke-linecap="round" stroke-linejoin="round" viewBox="733.42 150.78 11.47 13.52"><g xmlns="http://www.w3.org/2000/svg" id="Iruri">
<path d="M 744.86 154.56 744.56 154.91 744.45 155.08 744.05 155.56 743.99 156.13 743.88 156.61 743.7 156.94 743.15 157.59 742.88 158.14 742.45 158.16 742.31 158.37 742.16 158.23 742.07 158.21 742.07 158.45 742.13 158.74 742.1 158.75 742.07 158.77 742.02 158.78 741.99 158.8 741.96 158.81 741.95 158.81 741.93 158.81 741.91 158.79 741.87 158.76 741.83 158.73 741.79 158.71 741.78 158.7 741.74 158.65 741.72 158.63 741.69 158.62 741.67 158.6 741.64 158.57 741.59 158.49 741.56 158.44 741.54 158.42 741.52 158.38 741.5 158.34 741.46 158.25 741.43 158.19 741.41 158.18 741.39 158.16 741.37 158.15 741.36 158.15 741.34 158.15 741.33 158.16 741.33 158.17 741.33 158.19 741.33 158.23 741.34 158.26 741.34 158.3 741.34 158.34 741.35 158.41 741.35 158.48 741.31 158.48 741.29 158.46 741.26 158.44 741.24 158.42 741.22 158.41 741.2 158.42 741.16 158.42 741.12 158.44 741.09 158.44 741.07 158.45 741.05 158.44 740.98 158.43 741.01 158.02 740.94 158.02 740.74 158.01 740.54 158.01 740.49 158.01 740.45 158.02 740.4 158.04 740.37 158.08 740.34 158.12 740.33 158.14 740.31 158.17 740.29 158.23 740.26 158.29 740.24 158.33 740.29 158.37 740.28 158.44 740.26 158.51 740.24 158.61 740.24 158.63 740.21 158.66 740.19 158.68 740.14 158.71 740.12 158.72 740.11 158.74 740.11 158.77 740.12 158.81 740.13 158.83 740.15 158.86 740.16 158.89 740.17 158.93 740.17 158.97 740.18 159.02 740.18 159.04 740.18 159.07 740.16 159.12 740.12 159.18 740.11 159.25 740.1 159.29 740.1 159.33 740.11 159.37 740.11 159.42 740.12 159.46 740.13 159.48 740.13 159.5 740.14 159.54 740.29 159.56 740.28 159.89 740.14 160.16 740.07 160.46 740.13 160.6 740.18 160.77 740.14 160.79 739.85 161.16 739.53 161.36 739.4 161.6 739.02 162.64 738.82 162.66 738.77 162.91 738.55 163.48 738.51 163.84 738.41 164 738.21 164.12 737.73 164.24 737.32 164.27 737.16 164.22 736.64 164.13 736.29 164.14 736.14 164.1 736.12 164.11 736.09 164.13 736.07 164.14 736.05 164.14 736.02 164.14 735.96 164.11 735.83 164.24 735.7 164.15 735.66 164.1 735.45 164.24 735.1 164.23 734.72 164.16 734.72 164.15 734.69 164.04 734.69 164 734.68 163.97 734.67 163.95 734.66 163.93 734.64 163.9 734.62 163.88 734.59 163.85 734.57 163.83 734.54 163.8 734.53 163.77 734.52 163.74 734.5 163.71 734.48 163.67 734.48 163.64 734.46 163.6 734.45 163.56 734.44 163.53 734.42 163.49 734.41 163.45 734.41 163.43 734.4 163.41 734.4 163.34 734.41 163.3 734.41 163.27 734.41 163.24 734.41 163.21 734.41 163.18 734.39 163.15 734.38 163.12 734.36 163.09 734.34 163.06 734.32 163.03 734.27 162.44 734.23 162.06 734.33 162.02 734.16 161.43 734.14 161.4 734.13 161.37 734.12 161.35 734.11 161.33 734.1 161.31 734.1 161.29 734.11 161.26 734.11 161.23 734.12 161.2 734.13 161.17 734.12 161.13 734.11 161.11 734.1 161.08 734.09 161.05 734.09 161.02 734.36 160.27 734.52 159.75 734.61 159.3 734.59 158.93 734.39 158.65 734.45 158.48 734.45 158.47 734.41 158.44 734.35 158.4 734.29 158.36 734.22 158.31 734.02 158.06 733.86 157.83 733.8 157.63 733.69 157.39 733.56 156.89 733.46 156.76 733.49 156.65 733.46 156.53 733.43 156.48 734.07 155.8 734.14 155.75 734.53 155.79 734.75 156.02 734.93 156.1 735.28 156.09 735.52 156.17 735.93 155.83 735.94 155.79 735.96 155.76 735.98 155.73 736.06 155.65 736.17 155.55 736.21 155.51 736.31 155.38 736.4 155.29 736.58 155.13 736.52 155.11 736.48 154.99 736.48 154.97 736.48 154.93 736.49 154.9 736.51 154.88 736.53 154.85 736.55 154.83 736.56 154.8 736.61 154.76 736.64 154.74 736.67 154.72 736.69 154.7 736.71 154.69 736.73 154.64 736.73 154.61 736.72 154.59 736.7 154.57 736.67 154.56 736.67 154.54 736.68 154.51 736.69 154.49 736.71 154.46 736.71 154.43 736.73 154.41 736.75 154.39 736.77 154.37 736.8 154.36 736.81 154.34 736.81 154.31 736.81 154.28 736.81 154.24 736.81 154.2 736.81 154.17 736.82 154.13 736.84 154.1 736.85 154.08 736.87 154.07 736.89 154.06 736.9 154.04 736.91 154.02 736.93 154 736.95 153.98 736.98 153.96 737.01 153.96 737.03 153.96 737.05 153.95 737.06 153.94 737.08 153.93 737.09 153.9 737.1 153.88 737.12 153.86 737.15 153.83 737.17 153.8 737.19 153.77 737.2 153.75 737.2 153.73 737.22 153.71 737.26 153.68 737.28 153.66 737.3 153.64 737.32 153.6 737.34 153.57 737.36 153.54 737.37 153.51 737.38 153.48 737.39 153.46 737.4 153.44 737.42 153.41 737.43 153.39 737.43 153.36 737.45 153.34 737.46 153.31 737.48 153.29 737.49 153.26 737.51 153.24 737.53 153.23 737.55 153.21 737.59 153.18 737.6 153.17 737.62 153.15 737.64 153.13 737.65 153.1 737.65 153.08 737.66 153.05 737.67 153.04 737.69 153.02 737.71 153.01 737.73 153.01 737.75 152.99 737.76 152.96 737.77 152.94 737.79 152.92 737.82 152.9 737.86 152.89 737.88 152.89 737.91 152.87 737.94 152.86 737.97 152.85 738.01 152.83 738.05 152.83 738.13 152.82 738.16 152.81 738.2 152.81 738.22 152.82 738.25 152.82 738.29 152.82 738.32 152.82 738.35 152.81 738.38 152.79 738.44 152.79 738.5 152.79 738.53 152.79 738.57 152.79 738.6 152.8 738.62 152.8 738.64 152.8 738.66 152.79 738.68 152.78 738.7 152.78 738.72 152.8 738.75 152.81 738.77 152.8 738.8 152.79 738.82 152.76 738.84 152.73 738.86 152.72 738.89 152.71 738.92 152.71 738.96 152.69 738.98 152.68 739.01 152.67 739.04 152.65 739.07 152.65 739.11 152.64 739.14 152.62 739.16 152.6 739.2 152.59 739.23 152.59 739.27 152.59 739.3 152.59 739.35 152.58 739.39 152.57 739.43 152.56 739.47 152.54 739.5 152.52 739.55 152.51 739.6 152.5 739.64 152.49 739.69 152.48 739.74 152.47 739.79 152.45 739.85 152.43 739.89 152.42 739.93 152.4 739.97 152.38 740.07 152.36 740.11 152.34 740.15 152.33 740.19 152.32 740.23 152.3 740.27 152.29 740.33 152.28 740.37 152.28 740.43 152.27 740.48 152.27 740.53 152.28 740.58 152.28 740.62 152.29 740.66 152.3 740.7 152.31 740.74 152.33 740.79 152.34 740.84 152.35 740.89 152.37 740.94 152.38 740.99 152.4 741.04 152.42 741.09 152.45 741.13 152.47 741.19 152.49 741.24 152.5 741.28 152.5 741.32 152.51 741.37 152.52 741.41 152.54 741.45 152.55 741.49 152.55 741.54 152.55 741.58 152.56 741.62 152.57 741.68 152.59 741.72 152.6 741.76 152.6 741.81 152.59 741.85 152.58 741.89 152.58 741.93 152.59 741.96 152.6 742.01 152.62 742.04 152.64 742.08 152.65 742.11 152.66 742.15 152.66 742.18 152.68 742.22 152.71 742.25 152.73 742.3 152.76 742.34 152.78 742.38 152.81 742.41 152.83 742.44 152.85 742.48 152.86 742.53 152.86 742.57 152.86 742.62 152.86 742.66 152.86 742.71 152.86 742.75 152.86 742.8 152.87 742.85 152.87 742.88 152.88 742.92 152.9 742.96 152.92 743 152.94 743.03 152.96 743.05 152.99 743.08 153.01 743.12 153.07 743.15 153.09 743.46 152.38 743.76 151.66 744.04 151 744.06 150.94 744.11 150.79 744.21 151.53 744.32 152.22 744.43 152.91 744.55 153.54 744.62 154.12 744.73 154.41 744.86 154.56 Z"/>
</g></svg>