<svg xmlns="http://www.w3.org/2000/svg" version="1.2" baseProfile="tiny" stroke-linecap="round" stroke-linejoin="round" viewBox="394.35 149.3 9.02 7.63"><g xmlns="http://www.w3.org/2000/svg" id="Irura">
<path d="M 398.24 149.31 398.76 149.47 398.77 149.48 398.79 149.48 398.8 149.49 398.8 149.49 398.82 149.5 398.84 149.51 398.87 149.51 398.89 149.51 398.91 149.51 398.92 149.51 398.94 149.51 398.95 149.51 398.96 149.52 398.98 149.53 399.01 149.55 399.02 149.56 399.04 149.57 399.05 149.59 399.07 149.61 399.09 149.66 399.11 149.7 399.12 149.74 399.14 149.78 399.15 149.83 399.16 149.86 399.17 149.88 399.2 149.89 399.22 149.91 399.22 149.93 399.22 149.95 399.22 149.98 399.21 149.98 399.26 150.2 401.72 153.29 402.46 154.36 403.34 155.9 402 155.64 401.07 156.1 400.76 155.98 400.35 155.97 400 156.02 399.69 156.07 399.39 156.16 399.01 156.31 398.61 156.48 398.06 156.09 396.99 156.18 396.12 156.91 395.75 156.8 395.8 156.72 395.84 156.64 395.88 156.51 395.9 156.43 395.92 156.34 395.92 156.23 395.92 156.1 395.92 156.04 395.89 155.93 395.85 155.8 395.77 155.66 395.66 155.5 395.6 155.39 395.58 155.31 395.56 155.25 395.55 155.22 395.49 154.92 395.46 154.81 395.41 154.68 395.36 154.57 395.35 154.56 395.32 154.53 395.28 154.5 395.23 154.47 395.19 154.45 395.1 154.42 395.04 154.41 395 154.39 394.96 154.38 394.92 154.36 394.88 154.34 394.79 154.31 394.73 154.28 394.63 154.21 394.58 154.15 394.54 154.11 394.49 154.02 394.48 153.96 394.46 153.93 394.44 153.87 394.43 153.82 394.41 153.79 394.41 153.77 394.39 153.72 394.37 153.67 394.36 153.63 394.36 153.58 394.36 153.51 394.37 153.43 394.39 153.35 394.4 153.23 394.44 153.04 394.45 153.02 394.47 152.91 394.49 152.87 394.57 152.69 394.61 152.6 394.7 152.39 394.73 152.33 394.75 152.3 394.78 152.26 394.82 152.21 394.86 152.17 394.91 152.13 394.95 152.11 395 152.08 395.07 152.05 395.09 152.04 395.11 152.03 395.18 152 395.26 151.98 395.33 151.96 395.35 151.97 395.38 151.97 395.5 151.98 395.53 151.98 395.56 151.98 395.62 151.98 395.64 151.97 395.68 151.95 395.78 151.88 395.82 151.85 395.92 151.75 396 151.65 396.05 151.59 396.08 151.56 396.12 151.52 396.17 151.49 396.25 151.47 396.28 151.45 396.38 151.42 396.4 151.4 396.5 151.34 396.63 151.26 396.65 151.25 396.7 151.23 396.74 151.2 396.85 151.12 396.9 151.08 396.96 151.01 397.01 150.92 397.05 150.88 397.07 150.86 397.16 150.79 397.22 150.73 397.41 150.51 397.64 150.27 397.69 150.21 397.73 150.14 397.82 150.03 397.85 149.98 397.93 149.82 398.01 149.68 398.08 149.58 398.16 149.47 398.18 149.43 398.22 149.35 398.24 149.31 Z"/>
</g></svg>