<svg xmlns="http://www.w3.org/2000/svg" version="1.2" baseProfile="tiny" stroke-linecap="round" stroke-linejoin="round" viewBox="251.55 270.2 47.83 33.6"><g xmlns="http://www.w3.org/2000/svg" id="Iruraitz-Gauna">
<path d="M 293.34 274.91 293.43 275.52 293.83 276.06 294.14 276.42 294.16 276.68 293.82 277.11 293.76 277.52 294.1 277.93 294.49 278.18 294.84 278.32 295 278.52 295.12 279.04 295.13 279.46 294.93 280.15 294.81 280.78 294.9 281.68 295.09 282.36 295.36 282.86 295.52 283.45 295.67 284.03 296.25 284.47 296.48 284.82 296.61 285.13 296.38 285.53 295.95 286.28 296.43 286.31 297.26 286.22 297.87 286.15 298.09 286.25 298.24 286.42 298.55 286.39 299.06 286.14 299.2 286.16 299.33 286.39 299.35 286.67 299.21 287.22 298.99 287.72 298.67 288.41 298.39 289.06 298.31 289.6 298.34 290.36 298.48 291.36 298.67 292.32 298.7 292.64 298.7 293.13 298.6 293.75 298.56 294.25 298.61 294.74 298.23 294.98 297.91 295.2 297.37 295.27 296.79 295.28 296.3 295.34 295.88 295.58 295.37 295.7 294.83 295.65 294.65 295.9 294.53 296.28 294.45 297.01 294.2 297.58 293.75 298.02 293.21 298.27 292.68 298.58 292.34 298.99 291.88 299.47 291.38 299.78 290.95 300 290.51 300.3 290.07 300.29 289.33 300.02 288.83 299.48 288.82 299.31 288.81 299.12 288.86 298.57 288.9 297.98 288.59 297.43 288.21 296.97 287.66 295.92 287.6 294.99 287.53 293.72 287.44 292.91 287.22 292.07 287.09 291.26 286.81 289.29 286.78 288.44 286.98 288.07 287.62 286.99 287.89 287.09 288.08 287.08 288.25 286.78 288.5 286.14 288.74 285.44 289.03 284.77 289.29 284.08 289.09 283.91 288.85 283.68 288.33 283.42 287.75 283.21 287 282.88 286.04 282.5 284.98 282.02 284.36 281.67 284.1 281.35 283.83 280.99 283.33 280.39 282.83 279.9 282.02 279.13 280.99 278.68 280.98 278.68 280.43 278.32 279.96 277.96 279.55 277.82 279.03 277.68 278.63 277.38 278.18 276.85 277.68 276.28 277.13 275.86 276.13 275.12 275.84 275 275.24 275.1 274.58 275.12 275.78 273.62 276.85 272.59 277.76 271.4 278.23 270.82 278.64 270.47 279.11 270.2 279.97 270.62 281 271.33 281.67 271.76 282.41 271.92 282.99 272.12 283.65 272.38 284.39 272.4 285.27 272.47 285.89 272.52 286.57 272.84 287.31 273.26 287.83 273.43 288.51 273.45 289.48 273.36 290.23 273.73 291.14 274 292.01 274.34 293.34 274.91 Z M 282.53 301.48 282.29 301.46 281.92 301.53 281.68 301.7 281.61 302.05 281.4 302.32 280.99 302.43 280.66 302.41 280.32 302.44 279.93 302.58 279.58 302.73 279.48 301.92 279.45 301.16 279.37 300.32 279.4 299.52 279.45 298.72 279.7 297.57 280.07 296.8 280.34 296.23 280.52 295.66 280.51 294.95 280.59 294.49 280.74 294.25 281.36 294.06 281.46 293.74 281.21 293.06 280.87 292.44 280.49 291.71 280.3 291.18 280.32 290.95 280.63 290.76 281.03 290.34 281.37 289.9 281.75 289.4 282.32 289.64 282.69 290.11 282.87 290.67 283.07 291.39 283.27 291.95 283.41 292.49 284.22 293.03 283.92 293.77 283.84 294.88 283.73 295.59 283.5 295.92 283.21 296.09 283.11 296.48 283.16 297.15 283.26 297.67 283.03 298.33 282.95 299.1 282.96 299.5 282.69 300.15 282.47 300.64 282.37 300.99 282.53 301.48 Z M 278.59 285.71 278.34 285.51 278.02 285.12 277.63 284.56 277.52 284.17 277.46 284.04 277.48 283.78 277.69 283.59 277.93 283.41 277.77 283.21 277.45 283.05 277.32 282.77 277.54 282.47 278.09 282.14 278.58 281.95 278.95 281.97 279.28 281.94 279.6 281.81 280.86 282.5 281.06 282.86 281.19 283.38 281.34 283.73 281.54 283.89 281.91 284.01 282.27 284.11 282.46 284.36 282.4 284.59 282.4 284.6 282.15 284.87 281.89 285.08 281.51 285.14 281.17 285.33 281.02 285.69 281.15 286.23 280.81 286.41 280.41 286.5 280.02 286.45 279.74 286.28 279.28 285.96 278.59 285.71 Z M 273.85 300.06 273.56 298.81 273.44 297.32 273.38 295.78 273.31 294.54 272.98 294.52 272.73 294.41 272.61 293.97 272.55 293.35 272.45 292.73 272.23 292.14 272.84 291.88 272.34 291.07 271.87 290.37 271.74 289.98 271.89 289.13 272.07 288.59 272.02 288.05 271.85 287.49 271.79 287.08 271.83 286.76 272.86 286.22 273.67 285.8 274.53 285.44 275.2 285.74 275.91 286.23 276.47 286.76 276.83 286.97 277.06 286.96 277.16 287.14 277.21 287.36 277.13 287.56 277.04 287.69 277.09 287.83 277.32 288.03 277.48 288.44 277.61 289.12 277.63 289.87 277.53 290.57 277.34 291.42 277.22 292.1 277.22 292.63 277.4 293.25 277.49 293.61 277.49 294.04 277.32 294.55 277.24 295.1 277.4 295.67 277.5 296.16 277.29 296.75 277.09 297.09 277.06 297.27 277.2 297.75 277.27 298.08 277.05 298.35 276.77 298.57 276.7 298.89 276.41 299.08 276.25 299.26 275.96 299.41 275.71 299.28 275.5 299.42 275.29 300.11 275.03 300.26 274.74 300.39 274.38 300.22 273.85 300.06 Z M 262.91 288.35 263.12 288.11 264.51 286.79 265.21 286.12 265.3 285.89 265.24 285.5 265.21 285.19 265.24 284.83 265.55 284.74 265.95 284.63 266.3 284.62 266.85 284.62 267.11 284.62 267.51 284.7 267.75 284.76 267.92 285.1 267.98 285.43 268.04 285.91 268.23 286.46 268.43 286.83 268.9 287.67 269.25 288.35 269.51 289.13 269.42 290.05 269.52 291.03 269.59 291.89 269.43 292.57 269.38 293.33 269.66 293.84 269.94 294.29 269.94 294.83 269.93 295.44 270.1 295.82 270.04 296.48 269.67 297.45 269.63 298.44 269.92 299.41 270.38 300.31 270.66 300.9 270.35 301.03 270.07 301.43 269.68 301.51 269.25 301.34 268.68 301.26 268.04 301.28 267.58 301.41 267.11 301.6 266.91 301.72 266.65 301.86 266.17 301.93 265.75 301.89 265.39 301.77 264.93 301.81 264.84 301.83 264.48 301.9 264.08 301.95 263.61 301.88 263.12 301.88 263.01 301.43 263.03 301.07 263.22 300.72 263.3 300.22 263.34 299.29 263.43 298.24 263.46 297.4 263.51 296.64 263.41 296.07 263.26 295.29 263.25 294.81 263.43 294.44 263.8 293.97 264.14 293.51 264.25 292.88 264.43 292.1 264.27 291.39 263.97 290.57 263.88 290.29 263.86 289.97 263.76 289.74 263.44 289.47 263.33 289.07 263.14 288.75 262.93 288.53 262.91 288.35 Z M 255.53 284.29 256.07 284.53 256.67 284.86 257.67 285.84 257.77 286.38 257.93 286.84 258.05 287.46 258.23 288.13 258.27 288.38 258.05 288.48 257.32 288.71 257.12 288.86 257.01 289.17 256.93 290.5 256.87 292.29 255.94 293.33 255.19 294.18 255.13 294.41 255.26 294.75 255.45 295 255.45 295.24 255.3 295.81 254.86 297.09 254.9 297.52 255.08 297.71 255.44 297.71 255.64 297.77 255.72 298.05 255.78 299.35 255.73 299.57 255.64 300.05 255.67 300.82 255.77 301.87 255.8 302.87 255.85 303.37 255.41 303.46 254.95 303.59 254.44 303.78 254.25 303.31 253.87 302.54 253.71 301.93 253.8 301.68 253.94 301.36 253.51 300.47 252.89 299.33 252.29 298.09 251.7 296.95 251.76 296.68 251.62 296.09 251.57 295.53 251.84 294.85 252.09 294.06 252.31 293.44 252.57 292.76 252.68 292.28 252.59 291.89 252.32 291.56 252.19 291.28 252.27 290.92 252.28 290.45 252.28 290.17 252.47 290.2 252.85 290.42 253.23 290.77 253.53 290.96 253.78 290.71 253.97 290.34 254.07 289.89 253.9 289.2 253.87 288.42 254.08 287.66 254.44 286.85 254.83 286.08 255.13 285.47 255.47 284.65 255.53 284.29 Z"/>
</g></svg>