<svg xmlns="http://www.w3.org/2000/svg" version="1.2" baseProfile="tiny" stroke-linecap="round" stroke-linejoin="round" viewBox="462.62 240.8 7.55 11.7"><g xmlns="http://www.w3.org/2000/svg" id="Irurtzun">
<path d="M 468.75 243.71 469.26 244.29 469.32 244.37 469.42 244.65 469.43 244.69 469.5 244.82 469.61 244.98 469.71 245.13 469.76 245.22 469.83 245.31 469.87 245.36 469.93 245.42 470.01 245.49 470.09 245.56 470.16 245.62 470.16 245.63 470.09 245.76 470.08 245.77 469.96 245.98 469.94 246.01 469.82 246.21 469.74 246.37 469.73 246.39 469.71 246.42 469.64 246.54 469.62 246.58 469.6 246.6 469.57 246.65 469.54 246.69 469.51 246.75 469.47 246.81 469.44 246.88 469.43 246.89 469.39 246.98 469.35 247.06 469.31 247.14 469.25 247.22 469.21 247.3 469.16 247.4 469.07 247.54 469.02 247.64 468.96 247.73 468.9 247.82 468.85 247.91 468.85 247.92 468.81 247.97 468.8 247.99 468.74 248.07 468.69 248.17 468.65 248.22 468.62 248.26 468.6 248.28 468.58 248.3 468.56 248.33 468.5 248.4 468.45 248.46 468.41 248.55 468.36 248.63 468.31 248.72 468.25 248.8 468.24 248.82 468.24 248.83 468.17 248.94 468.11 249.05 468.08 249.1 468.04 249.17 468 249.26 467.96 249.35 467.95 249.36 467.95 249.37 467.89 249.48 467.85 249.57 467.83 249.6 467.75 249.76 467.73 249.82 467.71 249.87 467.7 249.91 467.7 249.93 467.69 249.96 467.69 249.96 467.69 249.99 467.69 250.01 467.69 250.06 467.69 250.08 467.69 250.13 467.7 250.25 467.7 250.36 467.71 250.49 467.72 250.55 467.72 250.56 467.72 250.62 467.73 250.69 467.73 250.71 467.74 250.79 467.75 250.86 467.74 250.88 467.74 250.93 467.74 251.02 467.73 251.12 467.72 251.23 467.71 251.34 467.71 251.35 467.71 251.37 467.71 251.38 467.71 251.53 467.7 251.72 467.7 251.76 467.69 251.92 467.69 252.08 467.69 252.09 467.67 252.27 467.67 252.33 467.68 252.41 467.68 252.5 467.57 252.42 467.45 252.36 467.37 252.31 467.29 252.27 467.2 252.21 467.12 252.16 467 252.11 466.82 252.03 466.69 251.97 466.61 251.94 466.53 251.92 466.45 251.89 466.37 251.87 466.3 251.86 466.23 251.86 466.17 251.85 466.12 251.84 466.07 251.81 466.02 251.78 465.97 251.75 465.93 251.7 465.91 251.68 465.9 251.67 465.83 251.62 465.74 251.55 465.62 251.45 465.53 251.39 465.47 251.36 465.46 251.35 465.44 251.34 465.37 251.29 465.3 251.25 465.22 251.2 465.16 251.17 465.15 251.16 465.11 251.13 465.1 251.13 465.03 251.1 464.98 251.09 464.95 251.08 464.93 251.08 464.89 251.08 464.88 251.07 464.79 251.06 464.78 251.05 464.76 251.05 464.74 251.05 464.72 251.05 464.69 251.05 464.66 251.06 464.59 251.06 464.41 251.08 464.39 251.08 464.38 251.08 464.38 251.09 464.33 251.09 464.24 251.1 464.15 251.11 463.29 251.2 463.26 251.2 463.18 251.23 463.17 251.23 463.16 251.23 463.07 251.27 463.06 251.27 463.04 251.27 462.99 251.21 462.95 251.17 462.94 251.15 462.91 251.1 462.88 251.04 462.87 251 462.86 250.97 462.86 250.95 462.84 250.89 462.83 250.81 462.81 250.76 462.8 250.69 462.79 250.63 462.79 250.55 462.78 250.47 462.78 250.44 462.78 250.38 462.78 250.33 462.78 250.3 462.79 250.27 462.79 250.25 462.79 250.23 462.8 250.21 462.8 250.19 462.81 250.16 462.81 250.1 462.81 250.03 462.81 249.92 462.8 249.83 462.79 249.74 462.77 249.67 462.76 249.62 462.76 249.57 462.75 249.5 462.74 249.42 462.73 249.36 462.73 249.29 462.73 249.23 462.73 249.15 462.73 249.14 462.72 249.1 462.72 249.09 462.7 249.01 462.68 248.93 462.65 248.86 462.64 248.76 462.63 248.68 462.63 248.63 462.63 248.55 462.62 248.5 462.63 248.46 462.64 248.41 462.67 248.36 462.7 248.31 462.75 248.26 462.79 248.22 462.84 248.18 462.91 248.14 462.98 248.09 463.03 248.04 463.11 247.96 463.17 247.9 463.22 247.83 463.25 247.77 463.29 247.7 463.32 247.65 463.36 247.61 463.44 247.53 463.5 247.47 463.57 247.4 463.64 247.35 463.69 247.31 463.73 247.26 463.79 247.21 463.83 247.17 463.86 247.14 463.9 247.09 463.93 247.05 463.98 246.97 464.03 246.88 464.08 246.8 464.13 246.73 464.16 246.68 464.24 246.6 464.27 246.58 464.31 246.54 464.34 246.52 464.38 246.5 464.4 246.48 464.47 246.45 464.49 246.48 464.52 246.52 464.53 246.53 464.54 246.55 464.56 246.57 464.6 246.53 464.63 246.5 464.66 246.47 464.68 246.44 464.7 246.39 464.72 246.35 464.74 246.31 464.76 246.26 464.79 246.19 464.82 246.11 464.87 246.01 464.88 245.99 464.89 245.96 464.9 245.94 464.92 245.89 464.94 245.82 464.97 245.74 464.99 245.69 465 245.64 465.02 245.59 465.05 245.54 465.08 245.48 465.14 245.4 465.17 245.36 465.22 245.29 465.24 245.26 465.25 245.23 465.26 245.18 465.26 245.14 465.3 244.91 465.31 244.87 465.32 244.83 465.32 244.79 465.31 244.76 465.3 244.72 465.29 244.68 465.25 244.56 465.23 244.47 465.2 244.38 465.19 244.33 465.15 244.23 465.13 244.18 465.07 244.07 465.04 243.99 465.02 243.93 465 243.88 464.98 243.82 464.96 243.76 464.94 243.7 464.93 243.65 464.9 243.47 464.89 243.44 464.89 243.4 464.89 243.37 464.88 243.33 464.88 243.21 464.88 243.16 464.87 243.12 464.87 243.08 464.87 243.03 464.86 243.01 464.86 242.99 464.85 242.95 464.84 242.94 464.84 242.9 464.82 242.85 464.79 242.74 464.78 242.7 464.76 242.66 464.75 242.63 464.72 242.58 464.67 242.49 464.66 242.46 464.65 242.43 464.65 242.4 464.64 242.37 464.64 242.33 464.64 242.31 464.64 242.28 464.64 242.26 464.64 242.22 464.65 242.19 464.66 242.15 464.67 242.12 464.69 242.09 464.71 242.07 464.73 242.05 464.8 242 464.99 241.88 465.05 241.84 465.11 241.81 465.17 241.79 465.22 241.77 465.26 241.74 465.3 241.72 465.33 241.7 465.35 241.68 465.38 241.67 465.42 241.63 465.45 241.6 465.48 241.57 465.5 241.53 465.52 241.5 465.53 241.47 465.54 241.43 465.56 241.38 465.61 241.24 465.66 241.11 465.69 241 465.73 240.91 465.76 240.8 465.77 240.81 465.79 240.84 465.82 240.89 465.9 241.02 465.96 241.12 466.06 241.28 466.12 241.38 466.19 241.51 466.27 241.64 466.33 241.73 466.39 241.81 466.44 241.88 466.48 241.95 466.5 241.97 466.53 242.01 466.57 242.07 466.63 242.16 466.65 242.19 466.66 242.21 466.66 242.23 466.67 242.26 466.67 242.37 466.67 242.49 466.67 242.65 466.67 242.89 466.67 243.03 466.67 243.04 466.67 243.05 466.7 243.07 466.79 243.12 466.87 243.16 466.96 243.22 467.12 243.31 467.26 243.39 467.36 243.45 467.54 243.56 467.64 243.62 467.71 243.65 467.81 243.69 467.91 243.72 467.98 243.76 468.14 243.82 468.31 243.89 468.36 243.91 468.47 243.95 468.5 243.96 468.51 243.96 468.53 243.96 468.54 243.95 468.55 243.95 468.57 243.93 468.59 243.9 468.67 243.8 468.75 243.71 Z"/>
</g></svg>