<svg xmlns="http://www.w3.org/2000/svg" version="1.2" baseProfile="tiny" stroke-linecap="round" stroke-linejoin="round" viewBox="242.7 72.15 28.78 15.77"><g xmlns="http://www.w3.org/2000/svg" id="Ispaster">
<path d="M 267.85 72.29 267.82 72.77 267.92 73 268.03 73.24 268.04 73.69 268.13 74.42 268.01 74.53 267.83 74.84 267.79 74.97 267.79 75.33 267.72 75.48 267.65 75.55 267.55 75.61 267.46 75.63 267.45 75.7 267.38 75.8 267.34 75.92 267.27 76.01 267.13 76.31 267.12 76.37 267.09 76.44 267.09 76.5 267.06 76.55 267.02 76.6 266.99 76.69 267.06 77.18 267.07 77.19 267.08 77.23 267.13 77.28 267.16 77.25 267.25 77.21 267.31 77.38 267.38 77.45 267.47 77.5 267.72 77.71 267.73 77.87 267.92 78.01 268.21 78.21 268.26 78.26 268.34 78.42 268.63 78.58 268.87 78.72 268.9 78.77 268.96 78.99 268.99 79.04 269.09 79.07 269.39 79.56 269.56 79.65 269.65 79.72 269.66 79.73 269.75 79.8 269.8 79.73 269.92 79.75 270.02 79.44 270.05 79.45 270.06 79.03 270.03 78.87 271.17 78.63 271.4 78.75 271.46 79.34 271.1 79.33 270.99 79.56 270.92 79.7 270.81 79.88 270.79 79.92 270.76 79.95 270.73 79.97 270.71 79.99 270.66 79.99 270.27 79.98 269.99 80.02 269.88 79.98 269.76 80.43 270.09 80.86 270.23 80.98 270.34 81.09 270.39 81.12 270.64 81.32 270.34 81.84 270.22 81.89 270.06 81.99 270.02 82.02 269.98 82.06 269.94 82.11 269.92 82.15 269.89 82.21 269.88 82.26 269.87 82.31 269.87 82.37 269.89 82.5 269.89 82.51 269.9 82.55 269.9 82.56 269.91 82.58 269.92 82.61 269.92 82.62 269.93 82.64 269.95 82.67 269.96 82.68 269.96 82.69 269.97 82.7 269.98 82.72 269.99 82.73 270 82.77 270.03 82.83 270.05 82.91 269.54 83.1 269.34 83.12 268.89 83.22 268.54 83.32 268.57 83.64 268.41 84.01 268.2 84.36 267.67 84.74 267.18 85.26 267.02 85.55 266.98 85.82 266.91 86.02 265.72 86.07 265.15 86.09 263.63 86.09 263.37 86.01 262.61 86.1 262.49 86.09 262.44 86.1 261.82 86.18 261.6 86.18 261.2 85.83 259.89 87.42 259.77 87.53 259.64 87.63 257.96 87.7 256.1 87.87 253.87 87.82 253.73 87.82 253.57 87.83 253.01 87.9 252.45 87.63 251.95 87.38 251.47 87.2 251.05 86.97 250.41 86.62 250.18 86.54 249.41 86.27 249.08 86.02 248.72 85.74 248.44 85.56 248 85.27 247.55 85.02 247.38 84.93 246.9 84.7 246.36 84.2 246.14 83.87 245.89 83.63 245.62 83.35 245.3 83.03 244.79 82.7 244.92 82.32 244.56 82.04 244.46 81.96 244.38 81.89 244.25 81.77 244.11 81.63 244.05 81.58 243.91 81.48 243.58 81.26 243.19 81 243.01 80.53 242.87 80.15 242.72 79.77 242.94 79.78 243.35 79.81 243.47 79.82 243.74 79.84 243.93 79.85 244.28 79.35 244.54 78.97 244.84 78.54 244.85 78.53 245.28 78.45 245.65 78.39 245.81 78.36 246.23 78.64 246.76 78.27 247.25 77.93 247.56 77.7 247.79 77.54 247.89 77.48 248.06 77.36 248.24 77.23 247.97 76.9 248 76.26 248.02 76.24 248.06 76.21 248.1 76.19 248.12 76.17 248.14 76.15 248.16 76.13 248.17 76.09 248.18 76.06 248.18 76.03 248.17 76 248.16 75.96 248.15 75.92 248.14 75.87 248.12 75.82 248.11 75.78 248.1 75.75 248.09 75.73 248.09 75.71 248.1 75.67 248.1 75.61 248.1 75.56 248.11 75.53 248.11 75.49 248.12 75.44 248.13 75.4 248.14 75.37 248.14 75.33 248.14 75.3 248.14 75.27 248.15 75.23 248.16 75.2 248.16 75.16 248.16 75.14 248.18 75.11 248.2 75.08 248.22 75.05 248.25 75.03 248.27 75.01 248.3 74.98 248.31 74.96 248.32 74.93 248.33 74.9 248.34 74.87 248.34 74.84 248.51 74.88 248.72 74.94 248.92 75 249.35 75.2 249.47 75.25 250.09 75.34 250.42 75.38 250.69 75.42 250.87 75.44 251.08 75.47 251.22 75.49 251.48 75.53 251.62 75.55 251.73 75.57 251.87 75.6 251.99 75.63 252.12 75.66 252.23 75.67 252.36 75.69 252.47 75.7 252.52 75.7 252.59 75.69 252.67 75.68 252.75 75.67 252.82 75.66 253.05 75.74 253.1 75.78 253.15 75.82 253.22 75.86 253.29 75.91 253.35 75.94 253.39 75.97 253.43 75.99 253.45 76.01 253.81 76.08 254.07 76.13 254.38 75.51 254.77 75.27 255.06 75.06 255.57 74.76 256.56 74.03 257.01 73.65 257.11 73.67 257.14 73.37 257.24 73.44 257.28 73.46 257.45 73.51 257.63 73.58 257.66 73.58 257.71 73.55 257.74 73.55 257.75 73.55 257.77 73.55 257.78 73.56 257.79 73.58 257.8 73.59 257.82 73.59 257.95 73.63 258.03 73.65 258.05 73.65 258.09 73.65 258.17 73.64 258.19 73.65 258.35 73.69 258.38 73.7 258.41 73.72 258.44 73.74 258.49 73.79 258.5 73.8 258.53 73.82 258.6 73.85 258.66 73.87 258.74 73.9 258.8 73.92 259.04 73.97 259.25 73.98 259.27 73.98 259.29 73.98 259.4 73.94 259.47 73.92 259.49 73.91 259.52 73.89 259.58 73.84 259.6 73.83 259.76 73.75 259.85 73.7 259.91 73.65 259.96 73.61 260.06 73.5 260.18 73.32 260.27 73.22 260.31 73.19 260.36 73.15 260.47 73.1 260.51 73.09 260.61 73.08 260.65 73.07 260.69 73.07 260.76 73.09 260.79 73.1 260.8 73.09 260.84 73.08 260.88 73.07 260.89 73.07 260.9 73.06 260.91 73.05 260.91 73.05 260.91 73.02 260.91 73.01 260.92 73 260.93 72.99 260.94 72.99 260.95 72.99 260.96 72.99 260.97 72.99 261 73.02 261.03 73.04 261.05 73.06 261.11 73.08 261.13 73.08 261.14 73.08 261.18 73.06 261.2 73.04 261.22 73.02 261.25 73.01 261.3 72.99 261.34 72.97 261.41 72.95 261.46 72.92 261.5 72.9 261.53 72.87 261.56 72.85 261.57 72.84 261.58 72.8 261.6 72.78 261.66 72.75 261.68 72.72 261.75 72.66 261.76 72.65 261.78 72.59 261.8 72.55 261.8 72.54 261.81 72.53 261.81 72.49 261.79 72.46 261.79 72.45 261.79 72.39 261.79 72.38 261.8 72.37 261.84 72.32 261.87 72.31 261.88 72.31 261.89 72.31 262 72.31 262.01 72.3 262.02 72.3 262.03 72.29 262.04 72.28 262.06 72.26 262.06 72.26 262.06 72.25 262.04 72.2 262.04 72.18 262.04 72.17 262.05 72.17 262.08 72.17 262.09 72.17 262.1 72.18 262.11 72.19 262.13 72.21 262.13 72.22 262.13 72.24 262.13 72.25 262.12 72.27 262.07 72.32 262.05 72.35 262.05 72.36 262.07 72.39 262.08 72.4 262.08 72.41 262.07 72.42 262.03 72.45 262.02 72.45 261.97 72.45 261.95 72.45 261.94 72.45 261.93 72.46 261.93 72.47 261.97 72.52 262.02 72.6 262.04 72.64 262.05 72.71 262.05 72.74 262.06 72.75 262.07 72.76 262.08 72.76 262.09 72.77 262.11 72.77 262.17 72.76 262.21 72.76 262.25 72.78 262.33 72.81 262.35 72.81 262.4 72.81 262.43 72.8 262.45 72.79 262.46 72.79 262.51 72.74 262.53 72.72 262.54 72.68 262.55 72.66 262.56 72.65 262.57 72.64 262.61 72.62 262.62 72.59 262.64 72.55 262.64 72.53 262.65 72.52 262.68 72.51 262.69 72.51 262.7 72.51 262.73 72.52 262.77 72.52 262.81 72.53 262.9 72.56 262.97 72.59 263.03 72.61 263.05 72.62 263.05 72.63 263.09 72.69 263.12 72.75 263.13 72.81 263.18 72.91 263.19 72.96 263.2 72.97 263.21 72.98 263.22 72.98 263.29 72.99 263.32 73.01 263.35 73.02 263.35 73.03 263.39 73.07 263.42 73.1 263.44 73.11 263.46 73.12 263.47 73.12 263.5 73.12 263.52 73.11 263.55 73.1 263.57 73.08 263.58 73.07 263.59 73.05 263.6 73.03 263.6 73.02 263.61 72.97 263.61 72.96 263.62 72.95 263.65 72.92 263.72 72.88 263.75 72.85 263.77 72.83 263.83 72.76 263.89 72.66 263.92 72.63 263.93 72.63 263.97 72.61 264 72.6 264.02 72.59 264.06 72.59 264.11 72.6 264.16 72.61 264.18 72.61 264.26 72.58 264.3 72.58 264.34 72.58 264.37 72.58 264.42 72.59 264.49 72.62 264.52 72.63 264.53 72.64 264.54 72.65 264.54 72.66 264.54 72.82 264.54 72.84 264.53 72.87 264.53 72.89 264.54 72.9 264.55 72.9 264.57 72.9 264.59 72.9 264.66 72.86 264.71 72.81 264.73 72.79 264.77 72.78 264.8 72.76 264.82 72.75 264.83 72.75 264.86 72.76 264.9 72.79 264.92 72.81 264.93 72.87 264.95 72.89 264.96 72.9 264.98 72.9 265.01 72.9 265.06 72.89 265.1 72.9 265.12 72.9 265.15 72.89 265.18 72.88 265.22 72.89 265.28 72.89 265.35 72.89 265.5 72.91 265.53 72.92 265.56 72.93 265.61 72.97 265.64 72.98 265.65 72.98 265.67 72.98 265.7 73.01 265.71 73.02 265.72 73.03 265.77 73.04 265.82 73.04 265.85 73.04 265.89 73.02 265.9 73.02 265.96 72.98 266.01 72.96 266.17 72.94 266.27 72.91 266.4 72.89 266.48 72.86 266.65 72.82 266.74 72.81 266.86 72.78 266.9 72.78 267 72.77 267.03 72.76 267.05 72.75 267.09 72.71 267.12 72.7 267.13 72.7 267.16 72.7 267.18 72.7 267.23 72.71 267.24 72.7 267.26 72.68 267.28 72.67 267.29 72.67 267.33 72.67 267.4 72.65 267.43 72.64 267.45 72.62 267.49 72.54 267.56 72.46 267.56 72.45 267.56 72.43 267.56 72.33 267.56 72.3 267.57 72.3 267.58 72.3 267.59 72.35 267.6 72.36 267.61 72.35 267.61 72.33 267.62 72.33 267.62 72.32 267.65 72.3 267.68 72.26 267.69 72.26 267.7 72.26 267.73 72.26 267.74 72.26 267.75 72.26 267.77 72.29 267.79 72.31 267.83 72.3 267.85 72.29 Z"/>
</g></svg>