<svg xmlns="http://www.w3.org/2000/svg" version="1.2" baseProfile="tiny" stroke-linecap="round" stroke-linejoin="round" viewBox="355.83 178.67 14.62 16.32"><g xmlns="http://www.w3.org/2000/svg" id="Itsasondo">
<path d="M 358.16 178.67 360.66 179.99 360.7 179.98 360.74 180 360.77 180.02 360.82 180.04 360.86 180.05 360.89 180.06 360.92 180.08 360.96 180.1 360.98 180.12 361.01 180.12 361.06 180.14 361.09 180.16 361.11 180.18 361.12 180.19 361.14 180.2 361.16 180.2 361.2 180.21 361.26 180.21 361.35 180.22 361.42 180.23 361.48 180.23 361.56 180.24 361.62 180.24 361.67 180.25 361.71 180.25 361.77 180.25 361.85 180.26 361.89 180.27 361.93 180.28 361.97 180.28 362 180.28 362.02 180.29 362.07 180.31 362.17 180.37 362.21 180.39 362.26 180.4 362.32 180.41 362.42 180.41 362.51 180.41 362.57 180.4 362.66 180.39 362.74 180.38 362.79 180.38 362.86 180.37 362.94 180.37 363 180.37 363.06 180.38 363.16 180.38 363.26 180.41 363.33 180.44 363.42 180.45 363.5 180.46 363.57 180.47 363.6 180.48 363.63 180.48 363.66 180.54 363.71 180.58 363.74 180.61 363.79 180.66 363.83 180.7 363.86 180.73 363.89 180.79 363.93 180.85 363.96 180.9 364 180.95 364.03 180.99 364.06 181.02 364.08 181.05 364.1 181.07 364.11 181.08 364.15 181.1 364.2 181.13 364.23 181.14 364.26 181.16 364.29 181.18 364.31 181.19 364.33 181.2 364.35 181.2 364.37 181.21 364.39 181.22 364.4 181.23 364.45 181.26 364.49 181.29 364.51 181.3 364.54 181.32 364.54 181.33 364.55 181.33 364.59 181.37 364.6 181.39 364.64 181.45 364.67 181.5 364.68 181.53 364.71 181.58 364.74 181.63 364.78 181.66 364.81 181.68 364.84 181.71 364.87 181.73 364.9 181.75 364.93 181.77 364.96 181.78 364.99 181.79 365.02 181.81 365.06 181.83 365.08 181.85 365.09 181.87 365.09 181.9 365.09 181.92 365.1 181.96 365.1 181.97 365.11 181.99 365.12 182.01 365.15 182.02 365.17 182.03 365.2 182.04 365.24 182.05 365.27 182.06 365.3 182.06 365.32 182.08 365.35 182.1 365.37 182.12 365.39 182.14 365.4 182.15 365.43 182.15 365.45 182.15 365.47 182.12 365.47 182.12 365.49 182.12 365.51 182.12 365.54 182.13 365.58 182.16 365.61 182.18 365.63 182.21 365.66 182.24 365.69 182.26 365.72 182.28 365.74 182.31 365.78 182.35 365.8 182.37 365.82 182.4 365.85 182.42 365.89 182.43 365.92 182.44 365.95 182.45 365.97 182.44 366.08 182.44 366.1 182.44 366.12 182.44 366.15 182.44 366.2 182.45 366.23 182.47 366.24 182.48 366.28 182.5 366.32 182.55 366.34 182.58 366.36 182.6 366.36 182.62 366.36 182.64 366.36 182.66 366.37 182.68 366.39 182.71 366.4 182.72 366.42 182.73 366.44 182.75 366.45 182.76 366.47 182.79 366.49 182.84 366.49 182.87 366.51 182.92 366.52 182.96 366.52 182.98 366.52 183.1 366.54 183.12 366.57 183.14 366.6 183.14 366.63 183.14 366.66 183.13 366.71 183.11 366.73 183.11 366.76 183.11 366.81 183.12 366.83 183.14 366.85 183.15 366.88 183.18 366.9 183.21 366.92 183.25 366.95 183.28 367 183.34 367.04 183.39 367.07 183.43 367.09 183.47 367.11 183.51 367.13 183.54 367.14 183.59 367.16 183.62 367.17 183.66 367.19 183.71 367.2 183.76 367.21 183.78 367.21 183.81 367.21 183.85 367.2 183.87 367.19 183.89 367.17 183.91 367.16 183.93 367.14 183.93 367.12 183.94 367.11 183.94 367.08 183.94 367.05 183.94 367.01 183.93 366.98 183.93 366.95 183.93 366.94 183.94 366.92 183.96 366.91 183.97 366.91 183.98 366.91 184 366.92 184.02 366.94 184.07 366.96 184.1 366.99 184.15 367 184.21 367 184.24 367 184.27 367 184.31 366.99 184.35 366.99 184.39 366.98 184.42 366.96 184.45 366.94 184.47 366.93 184.5 366.91 184.52 366.91 184.54 366.91 184.57 366.91 184.6 366.92 184.62 366.94 184.63 366.95 184.65 366.98 184.67 367.01 184.68 367.04 184.68 367.08 184.69 367.12 184.69 367.19 184.69 367.23 184.69 367.26 184.7 367.29 184.7 367.32 184.71 367.34 184.73 367.35 184.76 367.35 184.78 367.35 184.79 367.35 184.8 367.32 184.84 367.3 184.88 367.28 184.9 367.27 184.95 367.26 185 367.26 185.02 367.25 185.03 367.23 185.09 367.21 185.14 367.19 185.18 367.17 185.22 367.17 185.28 367.18 185.32 367.19 185.37 367.22 185.48 367.22 185.49 367.23 185.53 367.23 185.58 367.22 185.65 367.22 185.71 367.21 185.73 367.2 185.81 367.21 185.87 367.23 185.91 367.26 185.95 367.35 186 367.42 186.04 367.44 186.08 367.46 186.13 367.47 186.2 367.48 186.28 367.47 186.37 367.45 186.51 367.44 186.53 367.43 186.56 367.4 186.62 367.4 186.67 367.4 186.7 367.39 186.74 367.39 186.78 367.39 186.81 367.41 186.82 367.42 186.83 367.45 186.83 367.49 186.84 367.56 186.85 367.58 186.86 367.62 186.87 367.63 186.87 367.65 186.88 367.67 186.88 367.73 186.9 367.77 186.92 367.81 186.95 367.83 186.98 367.85 187.02 367.85 187.05 367.85 187.09 367.85 187.11 367.85 187.15 367.85 187.19 367.85 187.22 367.85 187.26 367.85 187.3 367.86 187.34 367.87 187.38 367.91 187.48 367.92 187.5 367.95 187.54 367.97 187.61 367.98 187.65 367.99 187.7 368 187.8 368.02 187.85 368.04 187.89 368.07 187.92 368.11 187.93 368.15 187.93 368.19 187.94 368.23 187.96 368.27 187.99 368.29 188.02 368.3 188.06 368.31 188.11 368.32 188.14 368.34 188.19 368.35 188.23 368.38 188.31 368.4 188.38 368.42 188.42 368.45 188.47 368.47 188.48 368.5 188.5 368.54 188.5 368.56 188.5 368.6 188.48 368.65 188.46 368.71 188.43 368.75 188.39 368.79 188.37 368.82 188.36 368.84 188.35 368.87 188.34 368.89 188.34 368.92 188.33 368.94 188.33 368.96 188.34 368.98 188.35 369 188.36 369.04 188.37 369.18 188.47 369.2 188.48 369.21 188.48 369.23 188.48 369.25 188.49 369.27 188.48 369.3 188.48 369.33 188.47 369.35 188.45 369.39 188.43 369.43 188.4 369.44 188.39 369.46 188.39 369.47 188.38 369.49 188.36 369.5 188.35 369.52 188.34 369.53 188.33 369.56 188.32 369.6 188.29 369.62 188.26 369.65 188.23 369.68 188.2 369.79 188.18 370.14 188.54 370.33 188.77 370.42 189.37 370.17 189.88 370.21 190.31 370.25 190.77 370.29 191.15 370.28 191.45 370.27 191.47 370.24 191.5 370.19 191.53 370.13 191.58 370.09 191.62 370.04 191.67 370 191.74 369.99 191.8 370 191.88 370.04 191.97 370.08 192.03 369.83 192.19 369 193.07 368.15 192.63 368.09 192.59 368.08 192.6 368.02 192.73 367.97 192.81 367.96 192.85 367.93 192.88 367.92 192.93 367.91 192.94 367.9 192.97 367.88 193 367.87 193.02 367.83 193.07 367.76 193.14 367.64 193.24 367.59 193.29 367.52 193.33 367.49 193.35 367.37 193.39 367.3 193.41 367.25 193.44 367.21 193.46 367.17 193.47 367.12 193.48 367.06 193.5 367 193.5 366.94 193.5 366.87 193.5 366.8 193.5 366.74 193.51 366.64 193.5 366.61 193.5 366.51 193.5 366.45 193.5 366.43 193.51 366.41 193.52 366.38 193.52 366.31 193.51 366.25 193.51 366.17 193.52 366.08 193.55 366.01 193.58 366 193.6 365.96 193.62 365.95 193.64 365.92 193.66 365.88 193.7 365.86 193.72 365.83 193.74 365.81 193.78 365.8 193.82 365.8 193.86 365.8 193.9 365.81 193.93 365.84 194 365.86 194.02 365.89 194.07 365.91 194.1 365.94 194.15 365.89 194.19 365.88 194.2 365.84 194.24 365.82 194.27 365.79 194.31 365.78 194.33 365.77 194.35 365.78 194.37 365.78 194.39 365.79 194.46 365.8 194.48 365.8 194.5 365.8 194.51 365.75 194.53 365.73 194.55 365.71 194.57 365.69 194.59 365.67 194.61 365.65 194.63 365.63 194.65 365.61 194.66 365.59 194.67 365.56 194.7 365.52 194.73 365.5 194.75 365.47 194.77 365.43 194.81 365.41 194.84 365.39 194.86 365.38 194.87 365.37 194.87 365.35 194.87 365.3 194.87 365.26 194.87 365.22 194.87 365.2 194.87 365.17 194.87 365.16 194.88 365.15 194.88 365.14 194.89 365.12 194.9 365.11 194.92 365.09 194.93 365.07 194.94 365.06 194.95 365.04 194.95 365.02 194.96 365 194.96 364.98 194.95 364.96 194.95 364.93 194.94 364.9 194.93 364.88 194.92 364.84 194.92 364.79 194.92 364.76 194.92 364.73 194.92 364.67 194.91 364.64 194.9 364.62 194.89 364.6 194.88 364.58 194.87 364.57 194.86 364.54 194.85 364.52 194.85 364.49 194.85 364.47 194.85 364.46 194.84 364.44 194.82 364.43 194.81 364.41 194.78 364.4 194.77 364.36 194.74 364.33 194.73 364.32 194.72 364.31 194.7 364.29 194.67 364.27 194.65 364.24 194.61 364.22 194.58 364.2 194.55 364.19 194.52 364.18 194.48 364.15 194.44 364.12 194.41 364.11 194.38 364.09 194.37 364.08 194.33 364.06 194.3 364.04 194.26 364.02 194.24 364 194.21 363.97 194.17 363.96 194.13 363.95 194.1 363.97 194.05 363.97 194.01 363.97 193.95 363.97 193.91 363.97 193.87 363.96 193.82 363.96 193.78 363.97 193.72 363.97 193.66 363.97 193.61 363.97 193.59 363.96 193.57 363.95 193.54 363.94 193.49 363.92 193.44 363.9 193.38 363.89 193.33 363.87 193.29 363.86 193.25 363.84 193.21 363.83 193.16 363.82 193.12 363.8 193.09 363.78 193.05 363.76 193.02 363.73 192.98 363.71 192.95 363.7 192.92 363.68 192.89 363.67 192.86 363.65 192.83 363.64 192.79 363.64 192.78 363.15 192.03 363.26 191.24 363.23 190.55 363.02 190.06 362.71 189.66 362.57 189.5 362.38 189.29 362.14 189.06 361.84 188.71 361.49 187.88 361.23 187.58 360.91 187.22 360.47 186.93 359.4 186.79 359.04 186.65 358.76 186.53 358.54 186.4 357.93 186.11 357.64 186.07 357.23 186 356.9 185.93 356.21 185.49 355.84 184.52 356.07 184.15 356.33 183.79 356.78 183.43 357.25 183.15 357.23 182.92 357.7 180.74 357.85 179.38 357.81 179.24 357.81 179.22 358 178.91 358.04 178.86 358.08 178.81 358.16 178.67 Z"/>
</g></svg>