<svg xmlns="http://www.w3.org/2000/svg" version="1.2" baseProfile="tiny" stroke-linecap="round" stroke-linejoin="round" viewBox="572.15 78.27 23.25 33.23"><g xmlns="http://www.w3.org/2000/svg" id="Itsasu">
<path d="M 577.49 79.42 577.53 79.38 577.57 79.34 577.6 79.33 577.64 79.31 577.66 79.27 577.68 79.26 577.77 79.24 577.84 79.23 577.88 79.22 577.89 79.22 577.91 79.2 577.93 79.19 577.97 79.2 578 79.21 578.02 79.21 578.05 79.21 578.08 79.2 578.1 79.18 578.12 79.16 578.15 79.14 578.19 79.12 578.24 79.12 578.29 79.11 578.33 79.09 578.36 79.07 578.4 79.05 578.43 79.06 578.45 79.06 578.47 79.06 578.5 79.06 578.53 79.04 578.65 79 578.71 78.98 578.76 78.97 578.79 78.96 578.81 78.94 578.85 78.91 578.9 78.87 578.95 78.83 579 78.79 579.06 78.73 579.1 78.7 579.15 78.64 579.17 78.62 579.19 78.61 579.21 78.6 579.21 78.58 579.21 78.56 579.2 78.54 579.19 78.52 579.2 78.49 579.21 78.46 579.22 78.43 579.22 78.39 579.22 78.35 579.23 78.31 579.25 78.27 579.28 78.28 579.39 78.41 579.64 78.6 580.39 79.13 580.41 79.14 580.48 79.17 580.54 79.2 580.6 79.23 580.69 79.28 580.79 79.34 580.81 79.35 580.84 79.37 580.88 79.39 580.93 79.4 580.95 79.41 580.96 79.43 581 79.47 581.02 79.48 581.1 79.52 581.2 79.59 581.3 79.66 581.35 79.68 581.38 79.68 581.4 79.68 581.44 79.68 581.6 79.75 581.64 79.76 581.72 79.78 581.84 79.83 581.91 79.85 581.96 79.85 582.02 79.84 582.14 79.83 582.26 79.84 582.95 79.97 583.11 80.11 583.2 80.24 583.73 80.21 584.51 80.4 585.64 80.49 586.54 80.48 586.56 80.5 586.58 80.55 586.59 80.59 586.61 80.61 586.62 80.64 586.64 80.67 586.65 80.7 586.66 80.71 586.68 80.74 586.7 80.76 586.72 80.76 586.75 80.76 586.78 80.76 586.8 80.76 586.83 80.77 586.89 80.77 586.93 80.78 586.96 80.79 587.01 80.81 587.05 80.82 587.13 80.85 587.22 80.88 587.3 80.91 587.38 80.93 587.45 80.97 587.48 80.98 587.51 81 587.57 81.03 587.62 81.06 587.67 81.09 587.68 81.1 587.7 81.12 587.71 81.14 587.73 81.17 587.76 81.19 587.81 81.22 587.79 81.24 587.76 81.27 587.74 81.31 587.72 81.35 587.7 81.41 587.69 81.47 587.67 81.55 587.67 81.6 587.67 81.67 587.67 81.75 587.67 81.79 587.67 81.85 587.68 81.91 587.67 81.96 587.67 82.01 587.67 82.05 587.67 82.08 587.68 82.11 587.7 82.2 587.71 82.23 587.71 82.25 587.71 82.29 587.72 82.39 587.71 82.46 587.69 82.64 587.68 82.68 587.65 82.84 587.63 82.91 587.61 83.16 587.6 83.2 587.6 83.27 587.6 83.3 587.59 83.37 587.56 83.53 587.53 83.64 587.52 83.7 587.55 83.73 587.59 83.75 587.66 83.76 587.71 83.76 587.79 83.76 587.85 83.76 587.91 83.77 587.98 83.78 588.03 83.79 588.09 83.8 588.17 83.8 588.23 83.8 588.26 83.8 588.31 83.8 588.35 83.82 588.39 83.82 588.44 83.83 588.5 83.83 588.53 83.83 588.57 83.83 588.61 83.85 588.64 83.87 588.68 83.87 588.71 83.88 588.74 83.88 588.77 83.88 588.83 83.88 588.87 83.89 588.91 83.89 588.94 83.89 588.98 83.88 589.02 83.87 589.05 83.86 589.12 83.85 589.17 83.85 589.22 83.84 589.27 83.84 589.34 83.84 589.38 83.84 589.43 83.83 589.49 83.83 589.7 83.87 590.32 84.27 590.74 84.61 590.76 84.61 590.78 84.62 590.79 84.64 590.81 84.65 590.83 84.67 590.87 84.69 590.93 84.72 591 84.75 591.09 84.81 591.16 84.85 591.22 84.88 591.29 84.92 591.37 84.96 591.44 85 591.48 85.03 591.53 85.07 591.55 85.1 591.57 85.14 591.58 85.16 592.06 85.27 592.08 85.28 592.1 85.29 592.12 85.29 592.15 85.3 592.17 85.3 592.19 85.31 592.21 85.33 592.23 85.36 592.24 85.37 592.26 85.38 592.28 85.4 592.3 85.42 592.32 85.44 592.33 85.46 592.36 85.47 592.38 85.48 592.4 85.49 592.43 85.5 592.46 85.5 592.49 85.5 592.52 85.5 592.54 85.5 592.57 85.49 592.59 85.49 592.61 85.5 592.63 85.52 592.66 85.52 592.71 85.52 592.73 85.52 592.74 85.51 592.77 85.51 592.78 85.52 592.8 85.54 592.81 85.56 592.84 85.57 592.86 85.58 592.9 85.58 592.92 85.59 592.94 85.6 592.97 85.62 593 85.64 593.03 85.65 593.06 85.64 593.08 85.63 593.11 85.61 593.13 85.6 593.17 85.59 593.33 85.64 593.69 86.2 593.72 86.27 593.71 86.29 593.7 86.32 593.69 86.34 593.68 86.38 593.67 86.43 593.67 86.48 593.66 86.53 593.65 86.59 593.64 86.66 593.64 86.68 593.63 86.71 593.63 86.76 593.63 86.82 593.62 86.86 593.61 86.9 593.6 86.97 593.6 87.02 593.6 87.07 593.61 87.12 593.61 87.16 593.62 87.19 593.62 87.22 593.62 87.24 593.62 87.26 593.62 87.28 593.63 87.3 593.65 87.33 593.68 87.36 593.7 87.39 593.71 87.41 593.69 87.42 593.74 87.65 593.79 87.77 593.7 88.11 593.67 88.17 593.64 88.22 593.63 88.29 593.62 88.35 593.61 88.39 593.61 88.44 593.61 88.51 593.61 88.55 593.61 88.57 593.62 88.61 593.63 88.65 593.64 88.69 593.66 88.74 593.68 88.77 593.71 88.82 593.74 88.86 593.75 88.9 593.78 88.97 593.81 89 593.83 89.02 593.87 89.04 593.9 89.05 593.91 89.06 593.93 89.09 594.03 89.23 594.08 89.3 594.21 89.45 594.21 89.51 594.23 89.58 594.25 89.64 594.26 89.68 594.27 89.7 594.28 89.73 594.3 89.74 594.27 89.76 594.24 89.78 594.23 89.8 594.26 89.87 594.28 89.92 594.34 90.11 594.42 90.33 594.66 90.97 594.63 91.31 594.63 92.06 594.5 92.86 594.49 92.9 594.37 93.05 594.38 93.06 594.39 93.1 594.41 93.14 594.41 93.15 594.42 93.21 594.43 93.25 594.44 93.28 594.45 93.31 594.46 93.36 594.48 93.41 594.49 93.48 594.49 93.56 594.5 93.64 594.52 93.69 594.53 93.75 594.53 93.81 594.52 93.89 594.51 93.94 594.51 93.98 594.51 93.99 594.52 94.03 594.54 94.06 594.55 94.09 594.55 94.12 594.57 94.16 594.59 94.18 594.61 94.21 594.63 94.26 594.63 94.29 594.65 94.35 594.66 94.39 594.67 94.42 594.68 94.46 594.69 94.62 594.68 94.7 594.55 94.98 594.62 95.08 594.67 95.17 594.7 95.26 594.71 95.37 594.71 95.5 594.71 95.63 594.7 95.75 594.69 95.8 594.68 95.85 594.65 95.98 594.63 96.15 594.64 96.34 594.67 96.55 594.69 96.71 594.72 96.87 594.77 97.02 594.83 97.21 594.92 97.38 595.01 97.62 595.02 97.63 595.04 97.7 595.07 97.78 595.12 97.84 595.17 97.89 595.22 97.95 595.28 98 595.31 98.06 595.36 98.1 595.38 98.12 595.33 98.19 595.31 98.21 595.28 98.24 595.26 98.27 595.24 98.29 595.22 98.31 595.21 98.33 595.2 98.35 595.19 98.37 595.16 98.39 595.14 98.42 595.12 98.44 595.08 98.46 595.06 98.48 595.04 98.49 595.02 98.52 595.02 98.55 595.02 98.57 595.04 98.63 595.06 98.65 595.08 98.68 595.09 98.69 595.1 98.7 595.11 98.72 595.12 98.75 595.12 98.78 595.12 98.8 595.11 98.82 595.09 98.85 595.08 98.87 595.05 98.9 595.03 98.92 595.01 98.93 594.99 98.94 594.97 98.95 594.94 98.97 594.92 98.98 594.9 99 594.87 99.03 594.85 99.05 594.83 99.08 594.82 99.11 594.81 99.14 594.8 99.18 594.79 99.23 594.79 99.26 594.79 99.3 594.78 99.33 594.78 99.37 594.77 99.4 594.76 99.45 594.74 99.5 594.68 99.59 594.66 99.63 594.64 99.68 594.62 99.72 594.61 99.75 594.59 99.79 594.58 99.82 594.56 99.85 594.54 99.88 594.51 99.92 594.49 99.96 594.47 99.98 594.44 100.03 594.42 100.07 594.4 100.09 594.38 100.13 594.37 100.15 594.36 100.17 594.34 100.19 594.32 100.22 594.31 100.24 594.28 100.26 594.25 100.28 594.23 100.29 594.22 100.31 594.18 100.34 594.16 100.38 594.11 100.44 594.05 100.5 594.03 100.53 594 100.57 593.99 100.6 593.97 100.63 593.95 100.65 593.93 100.66 593.89 100.67 593.85 100.66 593.81 100.66 593.78 100.66 593.74 100.66 593.71 100.66 593.67 100.67 593.63 100.67 593.61 100.67 593.58 100.68 593.54 100.69 593.48 100.7 593.45 100.72 593.42 100.74 593.4 100.76 593.38 100.79 593.37 100.81 593.36 100.84 593.35 100.89 593.35 100.92 593.36 100.96 593.36 100.99 593.34 101.01 593.31 101.03 593.26 101.04 593.19 101.04 593.15 101.04 593.11 101.05 593.08 101.06 593.05 101.06 593.03 101.06 592.98 101.06 592.91 101.04 592.87 101.03 592.79 101.01 592.75 101.01 592.72 101.02 592.69 101.02 592.66 101.02 592.64 101.02 592.6 101.02 592.58 101.02 592.55 101.02 592.53 101.03 592.5 101.03 592.43 101.04 591.73 101.12 591.72 101.13 591.09 101.23 590.8 101.42 589.69 101.92 589 102.18 588.3 102.45 588.25 102.56 587.99 103.31 587.96 103.35 587.94 103.4 587.88 103.55 587.8 103.94 587.82 104.25 587.96 104.53 587.96 104.66 587.87 104.79 587.69 104.97 587.36 105.07 587.26 105.19 587.04 105.36 586.76 105.41 586.33 105.51 586.03 105.65 585.44 106.03 584.85 106.33 584.21 106.77 583.76 107.14 583.56 107.5 583.03 107.75 582.45 108.08 582.32 108.28 582.05 108.62 582.04 108.77 582 108.78 581.92 108.8 581.85 108.82 581.79 108.83 581.61 108.67 580.93 108.91 580.9 108.92 580.6 109.02 580.44 109.22 580.43 109.23 580 109.77 579.52 110.37 577.6 111.29 577.56 111.29 576.85 111.33 576.82 111.33 576.48 111.35 576.45 111.35 575.8 111.39 575.63 111.4 575.18 111.43 575.1 111.43 574.6 111.46 574.18 111.49 574.15 111.48 574.09 111.46 574.07 111.45 574.02 111.42 574.01 111.41 574 111.41 573.71 111.25 573.57 111.18 572.15 110.57 572.15 110.53 572.16 110.43 572.17 110.32 572.18 110.22 572.19 110.15 572.2 110.04 572.2 109.98 572.21 109.6 572.34 109.42 572.38 109.36 572.4 109.33 572.43 109.28 572.47 109.23 572.5 109.18 572.54 109.13 572.55 109.1 572.56 109.08 572.57 109.06 572.58 109.02 572.58 109.02 572.59 108.97 572.61 108.93 572.63 108.89 572.64 108.86 572.65 108.83 572.67 108.8 572.69 108.75 572.69 108.74 572.75 108.66 572.96 108.13 573 107.13 573.31 106.55 573.66 105.96 573.69 105.41 573.93 104.94 573.97 104.76 573.74 104.21 573.69 103.78 573.77 103.54 574.06 103.01 574.94 102.09 574.95 102.05 574.96 101.98 574.98 101.93 575 101.83 575.02 101.75 575.02 101.7 575.02 101.66 575.02 101.65 575.22 101.52 575.38 100.92 575.6 100.61 575.71 100.41 575.97 100.06 575.78 99.47 575.79 99.45 575.79 99.42 575.79 99.4 575.79 99.38 575.8 99.35 575.8 99.32 575.81 99.27 575.82 99.23 575.82 99.2 575.82 99.17 575.83 99.15 575.84 99.13 575.84 99.11 575.85 99.07 575.86 99.05 575.87 99.03 575.87 99 575.87 98.99 575.87 98.97 575.83 98.7 575.71 97.96 575.71 96.83 575.72 96.82 575.73 96.79 575.74 96.77 575.74 96.75 575.75 96.74 575.76 96.72 575.76 96.7 575.76 96.67 575.77 96.64 575.77 96.61 575.77 96.59 575.77 96.55 575.77 96.53 575.77 96.5 575.76 96.48 575.75 96.45 575.75 96.43 575.75 96.4 575.76 96.37 575.76 96.33 575.76 96.31 575.76 96.27 575.77 96.23 575.78 96.2 575.79 96.14 575.78 96.09 575.78 96.05 575.78 96.04 575.78 96.01 575.78 95.99 575.78 95.97 575.78 95.95 575.78 95.93 575.78 95.92 575.78 95.9 575.79 95.89 575.79 95.87 575.79 95.84 575.79 95.82 575.79 95.8 575.79 95.78 575.78 95.77 575.77 95.75 575.77 95.74 575.77 95.73 575.78 95.72 575.78 95.7 575.77 95.69 575.76 95.67 575.75 95.66 575.74 95.65 575.73 95.64 575.73 95.63 575.73 95.62 575.72 95.59 575.72 95.58 575.71 95.56 575.7 95.54 575.69 95.53 575.69 95.51 575.7 95.46 575.7 95.4 575.71 95.38 575.71 95.36 575.71 95.35 575.71 95.33 575.71 95.31 575.71 95.3 575.71 95.29 575.71 95.26 575.72 95.24 575.73 95.22 575.73 95.2 575.76 95.18 575.85 94.54 575.93 93.87 576 93.34 576.01 93.27 576 92.72 576 92.61 575.99 92.46 575.97 91.9 575.95 91.23 575.6 90.83 575.37 90.53 575.39 90.44 574.99 90.12 574.83 90.14 574.58 89.55 574.65 89.41 574.16 88.69 574.17 88.66 574.18 88.61 574.19 88.56 574.2 88.49 574.21 88.43 574.22 88.4 574.22 88.36 574.23 88.31 574.24 88.27 574.23 88.25 574.23 88.23 574.22 88.21 574.21 88.18 574.18 88.13 574.15 88.07 574.13 88.02 574.09 87.97 574.1 87.94 574.1 87.92 574.08 87.89 574.06 87.87 574.01 87.82 573.97 87.77 573.95 87.73 573.95 87.68 573.95 87.65 573.97 87.63 573.99 87.62 574.01 87.62 574.03 87.63 574.05 87.63 574.08 87.62 574.1 87.61 574.16 87.56 574.21 87.52 574.25 87.48 574.27 87.45 574.29 87.42 574.3 87.38 574.31 87.31 574.33 87.25 574.37 87.17 574.39 87.12 574.4 87.1 574.41 87.08 574.41 87.06 574.4 87.01 574.39 86.99 574.39 86.97 574.4 86.95 574.41 86.93 574.44 86.91 574.51 86.88 574.57 86.86 574.62 86.83 574.64 86.82 574.64 86.81 574.64 86.8 574.62 86.76 574.6 86.7 574.57 86.64 574.54 86.58 574.56 86.56 574.62 86.51 574.67 86.48 574.73 86.44 574.8 86.4 574.82 86.39 574.84 86.37 575.02 86.26 575.05 86.23 575.09 86.2 575.15 86.16 575.19 86.12 575.21 86.11 575.22 86.12 575.23 86.12 575.49 85.83 575.61 85.67 575.6 85.62 575.59 85.53 575.57 85.49 575.53 85.45 575.52 85.41 575.52 85.36 575.52 85.29 575.52 85.16 575.53 85.1 575.56 85.03 575.6 84.92 575.67 84.79 575.71 84.72 575.73 84.66 575.77 84.55 575.78 84.51 575.78 84.48 575.76 84.44 575.75 84.41 575.73 84.36 575.68 84.29 575.63 84.24 575.56 84.13 575.5 84.05 575.45 83.98 575.39 83.89 575.4 83.81 575.4 83.71 575.41 83.65 575.44 83.56 575.46 83.5 575.49 83.4 575.51 83.34 575.53 83.29 575.54 83.26 575.54 83.25 575.54 83.21 575.54 83.17 575.53 83.1 575.52 83.06 575.53 83.01 575.54 82.96 575.59 82.89 575.65 82.82 575.7 82.76 575.77 82.66 575.81 82.59 575.84 82.54 575.91 82.46 575.99 82.35 576.1 82.26 576.15 82.24 576.18 82.23 576.21 82.22 576.25 82.21 576.27 82.2 576.3 82.18 576.32 82.15 576.35 82.11 576.4 82.04 576.46 81.97 576.52 81.87 576.58 81.79 576.6 81.75 576.62 81.71 576.63 81.67 576.64 81.63 576.64 81.59 576.64 81.54 576.65 81.5 576.66 81.46 576.7 81.42 576.75 81.39 576.79 81.35 576.83 81.32 576.85 81.28 576.85 81.24 576.87 81.23 576.89 81.21 576.9 81.18 576.92 81.14 576.95 81.1 576.96 81.08 576.97 81.05 577 81.02 577.03 80.98 577.06 80.95 577.07 80.91 577.07 80.88 577.08 80.84 577.06 80.79 577.05 80.72 577.04 80.69 577.04 80.66 577.06 80.63 577.09 80.6 577.14 80.57 577.19 80.55 577.24 80.55 577.28 80.54 577.31 80.53 577.34 80.51 577.37 80.49 577.39 80.47 577.4 80.46 577.43 80.43 577.47 80.43 577.5 80.42 577.55 80.41 577.58 80.4 577.59 80.37 577.6 80.34 577.6 80.26 577.61 80.15 577.62 80.11 577.62 80.06 577.62 80.01 577.61 79.97 577.59 79.93 577.57 79.89 577.56 79.85 577.54 79.8 577.53 79.74 577.52 79.69 577.52 79.62 577.51 79.54 577.49 79.42 Z"/>
</g></svg>