<svg xmlns="http://www.w3.org/2000/svg" version="1.2" baseProfile="tiny" stroke-linecap="round" stroke-linejoin="round" viewBox="372.67 240.85 13.62 28.02"><g xmlns="http://www.w3.org/2000/svg" id="Iturmendi">
<path d="M 378.01 241.94 378.02 241.96 378.02 241.97 378.03 241.99 378.03 242.01 378.03 242.03 378.04 242.06 378.04 242.08 378.05 242.1 378.05 242.13 378.05 242.14 378.05 242.15 378.06 242.18 378.06 242.2 378.07 242.24 378.08 242.27 378.08 242.31 378.09 242.34 378.1 242.41 378.1 242.42 378.11 242.45 378.11 242.46 378.12 242.5 378.12 242.53 378.13 242.55 378.13 242.57 378.13 242.58 378.14 242.61 378.14 242.63 378.14 242.65 378.15 242.66 378.15 242.68 378.15 242.69 378.16 242.72 378.16 242.75 378.17 242.77 378.17 242.79 378.18 242.82 378.18 242.86 378.18 242.88 378.19 242.89 378.19 242.91 378.2 242.95 378.2 242.96 378.21 243 378.22 243.08 378.24 243.22 378.25 243.27 378.27 243.38 378.28 243.42 378.29 243.47 378.29 243.5 378.3 243.54 378.3 243.55 378.31 243.59 378.32 243.64 378.32 243.66 378.33 243.71 378.34 243.75 378.35 243.82 378.35 243.84 378.36 243.85 378.36 243.89 378.37 243.92 378.37 243.93 378.38 243.96 378.38 244 378.39 244.03 378.39 244.06 378.4 244.08 378.4 244.1 378.4 244.12 378.41 244.15 378.41 244.17 378.41 244.18 378.42 244.2 378.42 244.22 378.43 244.25 378.43 244.27 378.44 244.28 378.44 244.3 378.44 244.32 378.44 244.33 378.45 244.35 378.45 244.37 378.45 244.39 378.45 244.4 378.46 244.42 378.46 244.44 378.47 244.47 378.47 244.49 378.47 244.51 378.47 244.53 378.48 244.54 378.48 244.56 378.48 244.58 378.49 244.59 378.49 244.63 378.5 244.65 378.5 244.68 378.51 244.7 378.51 244.73 378.52 244.78 378.53 244.82 378.53 244.83 378.54 244.87 378.54 244.89 378.54 244.91 378.55 244.95 378.55 244.96 378.56 245 378.56 245.03 378.56 245.05 378.57 245.07 378.57 245.08 378.58 245.12 378.58 245.13 378.59 245.17 378.6 245.24 378.6 245.26 378.61 245.28 378.61 245.3 378.61 245.32 378.62 245.37 378.62 245.38 378.63 245.4 378.63 245.44 378.64 245.47 378.64 245.48 378.64 245.5 378.65 245.54 378.65 245.55 378.66 245.61 378.67 245.62 378.67 245.64 378.67 245.66 378.68 245.69 378.68 245.7 378.69 245.76 378.69 245.77 378.7 245.79 378.7 245.82 378.71 245.85 378.71 245.87 378.72 245.91 378.72 245.92 378.72 245.94 378.73 245.96 378.73 245.98 378.73 245.99 378.73 246 378.74 246.04 378.74 246.06 378.74 246.07 378.74 246.09 378.75 246.11 378.75 246.13 378.76 246.15 378.76 246.16 378.77 246.18 378.77 246.2 378.78 246.21 378.79 246.23 378.79 246.25 378.8 246.26 378.8 246.28 378.81 246.3 378.81 246.31 378.82 246.32 378.82 246.34 378.83 246.36 378.84 246.37 378.84 246.39 378.85 246.4 378.86 246.44 378.86 246.44 378.87 246.47 378.88 246.49 378.89 246.5 378.89 246.52 378.9 246.53 378.9 246.55 378.91 246.56 378.91 246.58 378.92 246.6 378.92 246.61 378.93 246.63 378.93 246.65 378.94 246.66 378.95 246.68 378.95 246.7 378.96 246.71 378.96 246.72 378.97 246.75 378.98 246.77 378.98 246.79 378.99 246.82 379 246.84 379 246.85 379.01 246.88 379.02 246.91 379.03 246.93 379.04 246.94 379.04 246.96 379.05 246.97 379.05 246.99 379.06 247.01 379.06 247.02 379.07 247.04 379.07 247.06 379.08 247.07 379.08 247.08 379.09 247.1 379.11 247.13 379.12 247.15 379.12 247.16 379.13 247.18 379.14 247.19 379.16 247.19 379.17 247.2 379.19 247.22 379.2 247.24 379.22 247.26 379.23 247.28 379.25 247.3 379.26 247.31 379.27 247.32 379.28 247.33 379.29 247.35 379.31 247.36 379.33 247.39 379.34 247.4 379.36 247.41 379.37 247.43 379.38 247.44 379.39 247.45 379.4 247.47 379.41 247.48 379.42 247.49 379.44 247.52 379.47 247.55 379.48 247.56 379.49 247.58 379.5 247.59 379.51 247.6 379.52 247.62 379.54 247.63 379.55 247.65 379.56 247.66 379.57 247.68 379.58 247.69 379.59 247.71 379.6 247.72 379.61 247.73 379.63 247.74 379.64 247.76 379.65 247.77 379.66 247.78 379.67 247.8 379.68 247.81 379.7 247.83 379.71 247.84 379.72 247.86 379.72 247.87 379.73 247.89 379.74 247.9 379.75 247.91 379.76 247.92 379.77 247.94 379.78 247.95 379.79 247.97 379.8 247.98 379.81 247.99 379.82 248.01 379.83 248.02 379.84 248.03 379.86 248.06 379.87 248.08 379.88 248.09 379.9 248.12 379.92 248.15 379.94 248.17 379.95 248.19 379.96 248.2 379.99 248.25 380.02 248.29 380.04 248.32 380.05 248.34 380.07 248.37 380.08 248.38 380.09 248.4 380.1 248.41 380.11 248.42 380.12 248.44 380.13 248.47 380.14 248.49 380.15 248.5 380.16 248.52 380.18 248.55 380.19 248.56 380.2 248.58 380.21 248.6 380.22 248.62 380.24 248.65 380.26 248.68 380.28 248.71 380.29 248.72 380.3 248.74 380.31 248.75 380.32 248.77 380.34 248.8 380.37 248.85 380.38 248.86 380.4 248.89 380.41 248.92 380.43 248.95 380.44 248.96 380.45 248.98 380.47 249.01 380.49 249.04 380.5 249.06 380.51 249.07 380.53 249.1 380.54 249.12 380.55 249.13 380.56 249.15 380.57 249.16 380.58 249.18 380.6 249.2 380.61 249.22 380.62 249.24 380.63 249.25 380.64 249.27 380.65 249.28 380.66 249.3 380.68 249.32 380.69 249.34 380.7 249.35 380.71 249.37 380.72 249.38 380.73 249.39 380.74 249.4 380.75 249.42 380.76 249.43 380.77 249.45 380.77 249.47 380.77 249.49 380.77 249.51 380.76 249.65 380.76 249.66 380.76 249.68 380.76 249.7 380.77 249.72 380.77 249.73 380.77 249.76 380.77 249.78 380.77 249.79 380.77 249.81 380.78 249.87 380.79 249.91 380.79 249.92 380.8 249.94 380.8 249.98 380.8 250 380.81 250.01 380.81 250.03 380.81 250.05 380.81 250.06 380.82 250.08 380.82 250.1 380.82 250.11 380.83 250.12 380.83 250.14 380.83 250.16 380.84 250.17 380.84 250.19 380.84 250.21 380.85 250.24 380.86 250.26 380.86 250.27 380.87 250.29 380.87 250.31 380.88 250.32 380.88 250.34 380.89 250.35 380.89 250.37 380.9 250.39 380.91 250.4 380.92 250.42 380.93 250.43 380.93 250.44 380.94 250.47 380.96 250.49 380.96 250.51 380.97 250.52 380.98 250.54 380.99 250.55 381 250.57 381 250.59 381.01 250.6 381.02 250.62 381.03 250.63 381.03 250.65 381.04 250.67 381.05 250.69 381.06 250.72 381.07 250.74 381.09 250.79 381.1 250.81 381.1 250.83 381.11 250.84 381.12 250.86 381.13 250.88 381.13 250.9 381.14 250.91 381.15 250.92 381.16 250.94 381.17 250.97 381.18 250.99 381.18 251.01 381.2 251.04 381.2 251.06 381.22 251.1 381.22 251.11 381.23 251.13 381.24 251.14 381.25 251.16 381.25 251.17 381.26 251.19 381.27 251.2 381.3 251.28 381.31 251.3 381.31 251.32 381.32 251.34 381.33 251.35 381.34 251.37 381.34 251.38 381.35 251.4 381.35 251.41 381.36 251.42 381.36 251.44 381.38 251.47 381.38 251.49 381.39 251.5 381.39 251.52 381.4 251.54 381.41 251.56 381.42 251.57 381.42 251.59 381.45 251.63 381.45 251.65 381.46 251.67 381.47 251.68 381.47 251.7 381.48 251.71 381.49 251.73 381.49 251.74 381.5 251.76 381.51 251.79 381.51 251.81 381.52 251.83 381.53 251.84 381.54 251.88 381.54 251.89 381.55 251.91 381.56 251.93 381.56 251.95 381.57 251.96 381.57 251.98 381.58 252 381.59 252.01 381.59 252.03 381.6 252.05 381.62 252.08 381.63 252.11 381.64 252.13 381.65 252.14 381.67 252.19 381.7 252.24 381.72 252.29 381.73 252.31 381.74 252.32 381.75 252.34 381.75 252.35 381.76 252.37 381.77 252.39 381.78 252.4 381.78 252.42 381.79 252.43 381.8 252.45 381.81 252.47 381.82 252.49 381.83 252.51 381.84 252.53 381.84 252.54 381.85 252.56 381.86 252.58 381.87 252.59 381.88 252.62 381.89 252.64 381.91 252.69 381.92 252.7 381.93 252.72 381.96 252.78 381.97 252.79 381.97 252.8 381.98 252.82 382 252.85 382.02 252.89 382.02 252.89 382.04 252.94 382.09 253.04 382.11 253.08 382.12 253.1 382.13 253.11 382.14 253.13 382.15 253.16 382.18 253.21 382.2 253.26 382.21 253.27 382.22 253.29 382.22 253.3 382.23 253.32 382.25 253.35 382.26 253.37 382.3 253.44 382.3 253.46 382.31 253.47 382.32 253.49 382.33 253.51 382.35 253.54 382.36 253.57 382.37 253.59 382.38 253.62 382.4 253.64 382.41 253.67 382.42 253.7 382.44 253.73 382.48 253.81 382.49 253.84 382.5 253.85 382.55 253.95 383.06 254.77 383.35 255.22 383.38 255.28 383.38 255.29 383.37 255.33 383.36 255.35 383.36 255.37 383.36 255.38 383.35 255.4 383.35 255.41 383.35 255.43 383.34 255.45 383.34 255.46 383.33 255.48 383.33 255.5 383.32 255.51 383.32 255.53 383.32 255.55 383.32 255.56 383.31 255.6 383.31 255.62 383.3 255.65 383.3 255.67 383.3 255.68 383.3 255.7 383.3 255.72 383.29 255.74 383.29 255.75 383.29 255.76 383.29 255.78 383.29 255.8 383.29 255.83 383.29 255.85 383.29 255.87 383.28 255.89 383.28 255.91 383.28 255.92 383.28 255.94 383.28 255.96 383.28 255.97 383.28 256 383.27 256.02 383.27 256.03 383.27 256.05 383.27 256.06 383.27 256.08 383.27 256.13 383.27 256.22 383.28 256.27 383.28 256.28 383.28 256.3 383.29 256.32 383.29 256.34 383.29 256.36 383.29 256.38 383.29 256.4 383.3 256.41 383.3 256.43 383.3 256.45 383.3 256.48 383.3 256.49 383.3 256.51 383.3 256.52 383.3 256.54 383.3 256.56 383.3 256.58 383.3 256.6 383.3 256.61 383.3 256.65 383.31 256.66 383.31 256.7 383.33 256.86 383.37 257.03 383.42 257.32 383.44 257.4 383.44 257.42 383.45 257.46 383.47 257.56 383.51 257.82 383.53 257.91 383.53 257.92 383.55 258.01 383.56 258.12 383.56 258.16 383.56 258.21 383.56 258.22 383.57 258.3 383.57 258.35 383.57 258.37 383.57 258.4 383.57 258.41 383.57 258.42 383.57 258.45 383.57 258.46 383.57 258.48 383.57 258.5 383.57 258.52 383.58 258.59 383.58 258.61 383.58 258.78 383.58 258.82 383.59 258.84 383.61 258.86 383.61 258.87 383.62 258.88 383.63 258.9 383.63 258.92 383.64 258.94 383.64 258.96 383.65 258.97 383.65 258.99 383.65 259.01 383.65 259.02 383.65 259.04 383.65 259.08 383.65 259.08 383.64 259.1 383.64 259.14 383.64 259.15 383.63 259.19 383.63 259.2 383.63 259.26 383.63 259.28 383.63 259.3 383.63 259.32 383.63 259.33 383.63 259.35 383.63 259.37 383.64 259.39 383.64 259.4 383.65 259.42 383.65 259.44 383.66 259.46 383.67 259.47 383.67 259.49 383.68 259.51 383.68 259.52 383.69 259.54 383.69 259.56 383.7 259.57 383.71 259.59 383.72 259.6 383.73 259.62 383.74 259.63 383.75 259.65 383.76 259.66 383.77 259.67 383.79 259.69 383.8 259.7 383.82 259.71 383.84 259.72 383.85 259.72 383.87 259.73 383.88 259.73 383.9 259.74 383.91 259.74 383.93 259.74 383.95 259.74 383.97 259.74 383.98 259.74 384 259.74 384.01 259.73 384.03 259.73 384.04 259.72 384.06 259.72 384.08 259.71 384.09 259.7 384.11 259.7 384.11 259.69 384.13 259.68 384.14 259.67 384.16 259.66 384.17 259.66 384.19 259.65 384.2 259.63 384.22 259.62 384.23 259.61 384.24 259.61 384.25 259.6 384.26 259.59 384.28 259.57 384.29 259.56 384.31 259.55 384.32 259.54 384.33 259.53 384.35 259.52 384.36 259.51 384.38 259.5 384.39 259.49 384.41 259.48 384.42 259.48 384.44 259.48 384.45 259.48 384.47 259.48 384.49 259.48 384.51 259.48 384.52 259.49 384.54 259.49 384.56 259.49 384.58 259.49 384.6 259.49 384.61 259.5 384.61 259.54 384.57 259.56 384.56 259.57 384.54 259.58 384.52 259.58 384.51 259.59 384.5 259.6 384.47 259.61 384.45 259.62 384.44 259.63 384.43 259.65 384.42 259.67 384.42 259.69 384.41 259.71 384.42 259.72 384.42 259.76 384.43 259.91 384.43 259.92 384.42 259.93 384.4 259.94 384.38 259.94 384.37 259.95 384.35 259.95 384.32 259.97 384.32 259.97 384.31 259.98 384.3 260.01 384.3 260.02 384.3 260.04 384.29 260.06 384.28 260.08 384.28 260.09 384.27 260.11 384.27 260.12 384.26 260.14 384.26 260.15 384.25 260.2 384.25 260.24 384.23 260.24 384.19 260.21 384.12 260.18 384.11 260.14 384.11 260.12 384.1 260.09 384.1 260.07 384.1 260.06 384.07 260.07 384.07 260.09 384.07 260.12 384.07 260.15 384.08 260.19 384.08 260.23 384.08 260.26 384.08 260.29 384.08 260.34 384.08 260.46 384 260.47 384.04 260.72 384.06 260.72 384.07 260.78 384.07 260.8 384.08 260.82 384.09 260.84 384.21 260.94 384.22 260.94 384.29 261.28 384.22 261.29 384.26 261.45 384.21 261.46 384.18 261.46 384.02 261.41 384.02 261.43 384.01 261.65 384.01 261.67 384.03 261.68 384.04 261.7 384.04 261.7 384.04 261.72 384.03 261.76 383.91 261.73 383.9 261.72 383.89 261.83 383.89 261.85 383.89 261.86 383.89 261.87 383.92 261.9 383.94 261.99 383.95 262.1 383.95 262.16 384.03 262.15 384.05 262.23 384.05 262.25 384.01 262.25 383.98 262.26 383.99 262.33 384.02 262.5 384.06 262.49 384.11 262.48 384.14 262.62 384.19 262.61 384.2 262.67 384.23 262.66 384.24 262.67 384.28 262.84 384.37 262.83 384.4 262.83 384.49 262.82 384.51 262.82 384.53 263.07 384.53 263.08 384.55 263.14 384.61 263.29 384.73 263.58 384.78 263.7 384.83 263.81 385.25 264.69 385.34 264.84 385.45 265.09 385.55 265.33 385.61 265.47 385.61 265.49 385.62 265.5 385.62 265.52 385.63 265.54 385.63 265.56 385.64 265.58 385.64 265.58 385.65 265.6 385.65 265.62 385.66 265.65 385.67 265.69 385.68 265.72 385.69 265.74 385.74 265.91 385.79 266.02 385.81 266.03 385.82 266.04 385.84 266.07 385.86 266.08 385.87 266.09 385.88 266.1 385.89 266.11 385.9 266.12 385.91 266.14 385.92 266.15 385.94 266.16 385.95 266.18 385.96 266.19 385.97 266.2 385.99 266.21 386.01 266.22 386.02 266.23 386.04 266.24 386.05 266.25 386.06 266.26 386.07 266.26 386.06 266.32 386.05 266.37 386.04 266.38 386.04 266.4 386.04 266.42 386.04 266.44 386.04 266.46 386.04 266.49 386.04 266.51 386.03 266.53 386.03 266.54 386.03 266.56 386.03 266.58 386.03 266.6 386.02 266.62 386.02 266.63 386.02 266.65 386.01 266.67 386.02 266.69 386.02 266.74 386.12 266.99 386.13 267.04 386.14 267.11 386.2 267.28 386.22 267.39 386.23 267.44 386.24 267.49 386.24 267.51 386.25 267.52 386.25 267.54 386.25 267.54 386.25 267.56 386.25 267.57 386.26 267.59 386.26 267.6 386.26 267.62 386.27 267.64 386.27 267.64 386.27 267.65 386.26 267.66 386.25 267.67 386.24 267.67 386.23 267.68 386.21 267.69 386.19 267.7 386.17 267.71 386.15 267.72 386.14 267.72 386.13 267.73 386.11 267.74 386.1 267.75 386.08 267.75 386.07 267.75 386.05 267.75 386.04 267.75 386.02 267.76 386.01 267.76 386 267.76 385.98 267.76 385.97 267.76 385.95 267.77 385.93 267.77 385.91 267.78 385.9 267.79 385.87 267.79 385.83 267.81 385.81 267.81 385.8 267.81 385.79 267.82 385.77 267.82 385.74 267.84 385.72 267.84 385.71 267.85 385.69 267.85 385.67 267.86 385.65 267.86 385.65 267.87 385.63 267.87 385.62 267.87 385.6 267.88 385.59 267.88 385.57 267.89 385.55 267.89 385.54 267.89 385.53 267.9 385.52 267.9 385.5 267.9 385.48 267.9 385.46 267.9 385.44 267.9 385.42 267.9 385.41 267.9 385.39 267.9 385.38 267.9 385.36 267.9 385.34 267.91 385.33 267.91 385.31 267.91 385.28 267.92 385.25 267.93 385.23 267.94 385.22 267.94 385.2 267.95 385.19 267.96 385.18 267.96 385.16 267.97 385.14 267.97 385.12 267.98 385.11 267.98 385.09 267.99 385.07 267.99 385.05 268 385.04 268 385.02 268.01 385 268.01 384.98 268.02 384.96 268.03 384.95 268.03 384.94 268.03 384.93 268.04 384.91 268.04 384.89 268.04 384.87 268.08 384.87 268.09 384.87 268.11 384.86 268.13 384.86 268.14 384.85 268.16 384.84 268.18 384.83 268.21 384.82 268.23 384.81 268.24 384.81 268.26 384.8 268.28 384.79 268.3 384.78 268.33 384.78 268.34 384.77 268.36 384.75 268.41 384.75 268.42 384.74 268.44 384.73 268.47 384.71 268.51 384.7 268.52 384.7 268.54 384.69 268.55 384.68 268.57 384.67 268.58 384.66 268.59 384.65 268.6 384.65 268.61 384.64 268.61 384.62 268.62 384.59 268.64 384.58 268.65 384.56 268.66 384.55 268.67 384.52 268.69 384.52 268.7 384.51 268.7 384.49 268.71 384.48 268.72 384.47 268.73 384.45 268.74 384.42 268.76 384.4 268.76 384.39 268.77 384.37 268.78 384.36 268.79 384.34 268.79 384.32 268.8 384.3 268.8 384.29 268.8 384.27 268.81 384.25 268.81 384.24 268.81 384.22 268.81 384.2 268.81 384.18 268.81 384.17 268.81 384.15 268.81 384.12 268.81 384.1 268.81 384.09 268.81 384.06 268.81 384.03 268.82 384.02 268.82 384 268.82 383.99 268.82 383.97 268.82 383.96 268.82 383.94 268.82 383.93 268.83 383.91 268.83 383.89 268.83 383.88 268.83 383.86 268.83 383.83 268.83 383.82 268.83 383.8 268.83 383.78 268.84 383.77 268.84 383.75 268.84 383.72 268.84 383.7 268.84 383.69 268.84 383.67 268.84 383.65 268.84 383.64 268.84 383.62 268.84 383.59 268.84 383.57 268.84 383.56 268.84 383.55 268.84 383.53 268.84 383.52 268.84 383.5 268.83 383.49 268.83 383.48 268.82 383.46 268.81 383.45 268.81 383.43 268.8 383.42 268.79 383.4 268.78 383.38 268.78 383.37 268.77 383.36 268.76 383.34 268.75 383.33 268.74 383.31 268.72 383.3 268.71 383.29 268.7 383.28 268.69 383.27 268.68 383.26 268.67 383.25 268.65 383.24 268.63 383.24 268.61 383.23 268.6 383.22 268.58 383.22 268.55 383.22 268.54 383.19 268.53 383.18 268.53 383.16 268.53 383.15 268.52 383.14 268.52 383.12 268.52 383.09 268.51 383.08 268.51 383.05 268.5 383.03 268.49 383.01 268.49 382.98 268.48 382.96 268.47 382.94 268.47 382.92 268.46 382.91 268.46 382.89 268.46 382.87 268.45 382.85 268.45 382.84 268.45 382.8 268.44 382.79 268.44 382.77 268.44 382.75 268.43 382.73 268.43 382.72 268.43 382.7 268.42 382.68 268.42 382.67 268.42 382.66 268.42 382.64 268.42 382.62 268.41 382.6 268.41 382.59 268.41 382.57 268.41 382.56 268.4 382.54 268.4 382.53 268.4 382.51 268.38 382.5 268.38 382.48 268.37 382.47 268.36 382.45 268.35 382.44 268.34 382.42 268.33 382.41 268.33 382.39 268.32 382.37 268.32 382.36 268.31 382.34 268.31 382.32 268.31 382.31 268.31 382.29 268.31 382.27 268.32 382.25 268.33 382.24 268.34 382.23 268.35 382.22 268.36 382.21 268.37 382.19 268.38 382.18 268.39 382.16 268.39 382.14 268.39 382.13 268.39 382.11 268.4 382.09 268.4 382.08 268.4 382.06 268.41 382.05 268.42 382.04 268.43 382.03 268.44 382.01 268.46 382 268.47 381.99 268.48 381.97 268.5 381.96 268.51 381.95 268.52 381.93 268.53 381.91 268.53 381.9 268.54 381.88 268.54 381.86 268.55 381.84 268.55 381.82 268.56 381.81 268.56 381.79 268.56 381.78 268.57 381.77 268.57 381.75 268.58 381.73 268.58 381.71 268.58 381.69 268.58 381.68 268.59 381.66 268.6 381.65 268.6 381.63 268.6 381.61 268.61 381.59 268.61 381.58 268.61 381.56 268.62 381.54 268.62 381.52 268.62 381.51 268.62 381.5 268.62 381.47 268.61 381.45 268.61 381.44 268.61 381.43 268.61 381.41 268.61 381.42 268.47 381.41 268.41 381.4 268.35 381.37 268.24 381.33 267.99 381.31 267.82 381.29 267.68 381.26 267.51 381.23 267.35 381.2 267.23 381.19 267.19 381.14 267.02 381.08 266.88 381.03 266.76 380.98 266.66 380.92 266.57 380.71 266.11 380.7 266.07 380.68 265.87 380.68 265.87 380.67 265.86 380.67 265.84 380.67 265.83 380.66 265.82 380.66 265.8 380.66 265.78 380.65 265.76 380.65 265.74 380.64 265.73 380.64 265.71 380.64 265.69 380.63 265.68 380.63 265.66 380.63 265.64 380.63 265.63 380.63 265.61 380.63 265.59 380.62 265.58 380.62 265.56 380.62 265.54 380.62 265.52 380.61 265.5 380.61 265.5 380.61 265.48 380.61 265.46 380.61 265.44 380.6 265.42 380.6 265.41 380.6 265.39 380.6 265.36 380.59 265.35 380.59 265.33 380.59 265.31 380.59 265.3 380.58 265.28 380.58 265.26 380.58 265.24 380.58 265.22 380.58 265.21 380.57 265.18 380.57 265.16 380.57 265.15 380.57 265.13 380.56 265.11 380.56 265.1 380.56 265.08 380.56 265.07 380.55 265.05 380.55 265.03 380.55 265.01 380.55 265.01 380.54 264.99 380.53 264.95 380.52 264.94 380.52 264.92 380.51 264.9 380.5 264.89 380.49 264.86 380.49 264.85 380.48 264.83 380.47 264.81 380.46 264.8 380.46 264.79 380.45 264.77 380.44 264.76 380.44 264.75 380.44 264.72 380.44 264.7 380.44 264.68 380.44 264.66 380.44 264.65 380.44 264.63 380.44 264.61 380.44 264.59 380.44 264.58 380.43 264.57 380.43 264.55 380.43 264.53 380.42 264.52 380.41 264.51 380.41 264.5 380.4 264.48 380.4 264.46 380.4 264.44 380.4 264.42 380.4 264.4 380.4 264.39 380.4 264.38 380.4 264.36 380.4 264.35 380.38 264.33 380.37 264.32 380.35 264.32 380.34 264.31 380.33 264.3 380.32 264.29 380.31 264.28 380.29 264.27 380.28 264.25 380.27 264.24 380.26 264.23 380.24 264.21 380.23 264.2 380.22 264.18 380.22 264.17 380.21 264.16 380.21 264.14 380.2 264.13 380.2 264.11 380.19 264.08 380.18 264.06 380.18 264.04 380.18 264.03 380.18 264.03 380.17 264.01 380.17 263.99 380.17 263.98 380.16 263.97 380.15 263.96 380.14 263.94 380.14 263.93 380.13 263.92 380.12 263.9 380.11 263.89 380.09 263.87 380.08 263.85 380.08 263.83 380.07 263.82 380.06 263.8 380.05 263.79 380.05 263.78 380.04 263.76 380.03 263.75 380.02 263.74 380.02 263.72 380.01 263.71 380 263.69 380 263.67 379.98 263.64 379.98 263.62 379.98 263.61 379.98 263.59 379.98 263.57 379.98 263.55 379.98 263.55 379.98 263.52 379.99 263.51 379.99 263.5 379.99 263.48 379.99 263.47 379.99 263.45 380 263.44 380 263.42 380.01 263.41 380.02 263.4 380.02 263.38 380.03 263.36 380.04 263.35 380.05 263.34 380.06 263.32 380.07 263.31 380.08 263.3 380.09 263.28 380.1 263.27 380.11 263.25 380.12 263.25 380.13 263.23 380.15 263.22 380.16 263.2 380.16 263.19 380.17 263.18 380.17 263.16 380.17 263.14 380.17 263.12 380.17 263.1 380.17 263.08 380.17 263.08 380.17 263.05 380.18 263.03 380.18 263.01 380.18 262.99 380.19 262.97 380.19 262.96 380.19 262.94 380.19 262.94 380.19 262.92 380.19 262.9 380.19 262.89 380.19 262.87 380.19 262.85 380.19 262.85 380.19 262.83 380.19 262.81 380.19 262.8 380.18 262.78 380.18 262.76 380.18 262.74 380.18 262.73 380.18 262.71 380.18 262.68 380.18 262.67 380.18 262.66 380.18 262.65 380.19 262.63 380.2 262.61 380.22 262.6 380.21 262.59 380.17 262.57 380.16 262.56 380.14 262.55 380.13 262.53 380.12 262.53 380.11 262.51 380.1 262.51 380.09 262.49 380.08 262.48 380.07 262.46 380.06 262.45 380.05 262.43 380.04 262.42 380.03 262.41 380.02 262.39 380 262.37 379.99 262.35 379.99 262.33 379.98 262.32 379.98 262.31 379.98 262.29 379.97 262.28 379.97 262.26 379.97 262.25 379.97 262.23 379.97 262.22 379.97 262.2 379.97 262.18 379.97 262.17 379.97 262.15 379.97 262.14 379.97 262.12 379.97 262.1 379.97 262.08 379.97 262.06 379.97 262.04 379.98 262.02 379.98 262.01 379.99 261.99 379.99 261.98 379.99 261.96 379.99 261.94 379.99 261.93 379.99 261.92 379.98 261.9 379.97 261.88 379.97 261.87 379.96 261.86 379.94 261.84 379.93 261.83 379.93 261.81 379.93 261.79 379.92 261.77 379.92 261.75 379.92 261.73 379.91 261.73 379.91 261.71 379.9 261.7 379.9 261.69 379.88 261.69 379.87 261.68 379.85 261.68 379.83 261.68 379.82 261.68 379.81 261.68 379.79 261.68 379.77 261.68 379.77 261.67 379.76 261.66 379.76 261.64 379.76 261.62 379.75 261.61 379.75 261.59 379.75 261.58 379.75 261.56 379.75 261.54 379.76 261.51 379.76 261.49 379.76 261.47 379.76 261.45 379.76 261.44 379.76 261.43 379.76 261.41 379.75 261.39 379.75 261.38 379.75 261.37 379.75 261.35 379.75 261.33 379.75 261.32 379.75 261.3 379.75 261.28 379.76 261.27 379.76 261.25 379.76 261.23 379.76 261.22 379.75 261.21 379.74 261.19 379.72 261.17 379.71 261.15 379.7 261.13 379.7 261 379.71 260.91 379.73 260.87 379.76 260.8 379.76 260.79 379.73 260.77 379.67 260.74 379.66 260.73 379.65 260.71 379.65 260.69 379.66 260.68 379.67 260.67 379.69 260.64 379.7 260.63 379.69 260.62 379.67 260.6 379.66 260.59 379.64 260.56 379.63 260.54 379.62 260.53 379.62 260.52 379.61 260.5 379.6 260.48 379.6 260.47 379.59 260.46 379.59 260.44 379.59 260.42 379.58 260.41 379.58 260.39 379.58 260.38 379.58 260.36 379.58 260.34 379.58 260.32 379.58 260.31 379.58 260.29 379.58 260.28 379.58 260.26 379.58 260.24 379.58 260.23 379.58 260.21 379.58 260.18 379.58 260.16 379.58 260.15 379.58 260.13 379.58 260.11 379.58 260.09 379.58 260.08 379.58 260.07 379.58 260.05 379.58 260.03 379.58 260.03 379.57 260.01 379.56 260 379.55 259.98 379.55 259.98 379.54 259.96 379.54 259.94 379.53 259.93 379.52 259.89 379.51 259.88 379.5 259.86 379.49 259.84 379.48 259.83 379.47 259.81 379.47 259.79 379.46 259.78 379.47 259.77 379.47 259.76 379.47 259.74 379.47 259.73 379.47 259.71 379.48 259.69 379.48 259.67 379.48 259.66 379.47 259.64 379.44 259.57 379.48 259.54 379.5 259.52 379.51 259.51 379.52 259.5 379.53 259.49 379.54 259.47 379.55 259.46 379.55 259.44 379.56 259.43 379.57 259.42 379.58 259.4 379.58 259.39 379.59 259.37 379.6 259.35 379.6 259.34 379.61 259.32 379.61 259.3 379.64 259.22 379.64 259.2 379.65 259.19 379.65 259.17 379.66 259.15 379.66 259.14 379.66 259.13 379.66 259.11 379.67 259.09 379.67 259.08 379.67 259.06 379.67 259.04 379.66 259.03 379.66 259.01 379.65 258.99 379.65 258.97 379.64 258.96 379.64 258.94 379.63 258.93 379.62 258.91 379.61 258.89 379.59 258.86 379.58 258.85 379.57 258.83 379.56 258.8 379.55 258.78 379.54 258.77 379.54 258.75 379.53 258.74 379.52 258.71 379.52 258.69 379.52 258.68 379.53 258.66 379.53 258.64 379.54 258.62 379.51 258.61 379.45 258.61 379.43 258.6 379.41 258.6 379.39 258.6 379.38 258.6 379.36 258.6 379.35 258.6 379.31 258.6 379.29 258.6 379.26 258.6 379.24 258.6 379.23 258.6 379.21 258.6 379.19 258.6 379.18 258.6 379.16 258.6 379.15 258.6 379.14 258.58 379.13 258.57 379.12 258.55 379.11 258.53 379.09 258.52 379.08 258.51 379.07 258.49 379.06 258.48 379.04 258.47 379.03 258.46 379.02 258.44 379.01 258.43 379 258.41 379 258.39 379.01 258.38 379.01 258.36 379.01 258.35 379.01 258.34 379.01 258.32 379 258.31 378.99 258.29 378.98 258.28 378.97 258.27 378.96 258.26 378.95 258.25 378.93 258.24 378.92 258.24 378.91 258.23 378.9 258.22 378.88 258.21 378.86 258.21 378.85 258.19 378.84 258.19 378.83 258.18 378.82 258.17 378.81 258.16 378.8 258.15 378.79 258.14 378.77 258.12 378.74 258.09 378.72 258.07 378.71 258.06 378.7 258.05 378.69 258.04 378.69 258.03 378.68 258.01 378.67 258 378.67 257.98 378.66 257.96 378.66 257.95 378.65 257.92 378.65 257.9 378.64 257.88 378.63 257.86 378.63 257.84 378.63 257.82 378.63 257.8 378.63 257.78 378.63 257.77 378.64 257.72 378.64 257.69 378.62 257.64 378.6 257.6 378.58 257.55 378.55 257.49 378.53 257.45 378.5 257.41 378.46 257.35 378.5 257.33 378.49 257.32 378.45 257.23 378.42 257.17 378.41 257.15 378.41 257.13 378.4 257.12 378.39 257.1 378.38 257.09 378.37 257.07 378.36 257.06 378.36 257.05 378.35 257.03 378.34 257.01 378.33 256.99 378.32 256.98 378.3 256.94 378.3 256.92 378.29 256.91 378.28 256.89 378.27 256.88 378.26 256.86 378.26 256.84 378.24 256.8 378.23 256.77 378.22 256.76 378.21 256.74 378.2 256.73 378.19 256.71 378.19 256.69 378.18 256.67 378.18 256.66 378.17 256.64 378.17 256.63 378.16 256.61 378.16 256.59 378.15 256.58 378.15 256.56 378.14 256.54 378.14 256.54 378.13 256.52 378.13 256.5 378.12 256.49 378.11 256.47 378.11 256.46 378.1 256.44 378.1 256.42 378.09 256.41 378.08 256.38 378.06 256.33 378.04 256.28 378.03 256.24 378.01 256.21 378 256.17 377.99 256.16 377.98 256.13 377.97 256.11 377.95 256.04 377.93 256 377.92 255.97 377.91 255.95 377.89 255.88 377.88 255.87 377.88 255.85 377.86 255.8 377.85 255.78 377.82 255.7 377.81 255.68 377.81 255.67 377.79 255.62 377.78 255.6 377.78 255.58 377.77 255.57 377.76 255.55 377.76 255.53 377.74 255.5 377.74 255.48 377.73 255.47 377.72 255.44 377.72 255.42 377.71 255.41 377.7 255.37 377.68 255.34 377.67 255.31 377.67 255.3 377.66 255.27 377.64 255.22 377.63 255.19 377.61 255.15 377.6 255.13 377.6 255.11 377.59 255.08 377.58 255.06 377.57 255.04 377.56 255.01 377.55 254.98 377.54 254.94 377.51 254.88 377.5 254.86 377.48 254.79 377.47 254.77 377.46 254.73 377.45 254.72 377.45 254.7 377.44 254.69 377.43 254.67 377.43 254.66 377.42 254.64 377.42 254.63 377.4 254.58 377.4 254.56 377.39 254.54 377.39 254.44 377.39 254.4 377.39 254.35 377.39 254.28 377.39 254.24 377.39 254.23 377.39 254.19 377.39 254.17 377.39 254.13 377.39 254.1 377.39 254.08 377.39 254.06 377.38 254.05 377.38 254.03 377.38 254 377.38 253.97 377.38 253.95 377.38 253.93 377.38 253.92 377.38 253.9 377.38 253.88 377.38 253.85 377.38 253.84 377.38 253.82 377.38 253.76 377.38 253.73 377.38 253.71 377.38 253.7 377.38 253.69 377.38 253.67 377.38 253.65 377.38 253.61 377.38 253.6 377.38 253.56 377.38 253.54 377.38 253.49 377.38 253.46 377.38 253.44 377.38 253.32 377.38 253.3 377.37 253.27 377.37 253.23 377.37 253.2 377.37 253.15 377.37 253.13 377.37 253.08 377.37 253.07 377.37 253.05 377.37 253.02 377.37 252.96 377.37 252.94 377.37 252.92 377.36 252.87 377.36 252.83 377.36 252.75 377.36 252.7 377.36 252.63 377.36 252.61 377.36 252.61 377.36 252.57 377.36 252.53 377.36 252.52 377.36 252.5 377.36 252.48 377.36 252.46 377.36 252.44 377.36 252.41 377.36 252.39 377.36 252.36 377.36 252.3 377.36 252.29 377.36 252.22 377.36 252.19 377.36 252.17 377.35 252.09 377.35 252.05 377.35 252.02 377.35 252 377.35 251.97 377.35 251.95 377.35 251.93 377.35 251.92 377.35 251.9 377.35 251.88 377.35 251.87 377.35 251.85 377.35 251.84 377.36 251.83 377.38 251.82 377.39 251.81 377.41 251.8 377.41 251.79 377.43 251.78 377.44 251.77 377.45 251.77 377.47 251.76 377.48 251.75 377.5 251.74 377.51 251.73 377.53 251.73 377.55 251.72 377.59 251.7 377.61 251.69 377.62 251.68 377.64 251.68 377.65 251.67 377.67 251.67 377.69 251.66 377.7 251.66 377.72 251.65 377.73 251.65 377.75 251.65 377.78 251.65 377.79 251.64 377.81 251.64 377.83 251.64 377.84 251.64 377.86 251.64 377.88 251.64 377.9 251.63 377.91 251.63 377.92 251.62 377.95 251.62 377.97 251.61 377.99 251.61 378.01 251.6 378.03 251.6 378.04 251.6 378.05 251.6 378.07 251.6 378.09 251.6 378.12 251.59 378.13 251.59 378.14 251.59 378.15 251.59 378.17 251.59 378.18 251.58 378.19 251.58 378.21 251.58 378.21 251.57 378.21 251.55 378.21 251.53 378.21 251.52 378.2 251.5 378.2 251.48 378.2 251.47 378.2 251.46 378.19 251.44 378.19 251.42 378.18 251.39 378.18 251.37 378.18 251.35 378.17 251.34 378.17 251.33 378.17 251.31 378.17 251.3 378.16 251.28 378.15 251.27 378.14 251.23 378.13 251.21 378.12 251.19 378.12 251.18 378.12 251.17 378.11 251.15 378.1 251.14 378.09 251.13 378.09 251.11 378.08 251.1 378.07 251.09 378.05 251.07 378.05 251.05 378.04 251.03 378.03 251.02 378.02 251 378.01 250.98 378 250.97 377.99 250.96 377.98 250.94 377.97 250.93 377.96 250.92 377.95 250.91 377.94 250.89 377.93 250.87 377.92 250.85 377.91 250.84 377.89 250.83 377.88 250.81 377.87 250.8 377.86 250.78 377.85 250.77 377.83 250.76 377.82 250.74 377.79 250.72 377.78 250.71 377.77 250.7 377.76 250.68 377.75 250.67 377.74 250.67 377.72 250.65 377.71 250.64 377.69 250.62 377.68 250.61 377.66 250.6 377.63 250.58 377.62 250.56 377.61 250.55 377.59 250.54 377.58 250.53 377.56 250.52 377.56 250.52 377.54 250.51 377.53 250.5 377.52 250.49 377.5 250.48 377.49 250.47 377.52 250.45 377.52 250.43 377.53 250.41 377.53 250.4 377.54 250.38 377.55 250.37 377.55 250.35 377.56 250.33 377.56 250.31 377.57 250.29 377.57 250.27 377.58 250.23 377.58 250.22 377.59 250.21 377.59 250.19 377.6 250.18 377.61 250.16 377.61 250.15 377.62 250.13 377.63 250.12 377.65 250.1 377.66 250.09 377.68 250.08 377.7 250.07 377.71 250.07 377.7 250.06 377.68 250.06 377.64 250.03 377.62 250.03 377.6 250.02 377.59 250.01 377.56 250 377.54 249.99 377.52 249.98 377.51 249.98 377.49 249.98 377.47 249.97 377.45 249.96 377.43 249.96 377.41 249.95 377.4 249.94 377.39 249.9 377.38 249.88 377.38 249.86 377.38 249.85 377.37 249.82 377.36 249.81 377.35 249.79 377.34 249.78 377.34 249.76 377.33 249.75 377.32 249.73 377.31 249.71 377.3 249.7 377.3 249.69 377.29 249.67 377.28 249.66 377.27 249.64 377.23 249.66 377.21 249.66 377.2 249.67 377.18 249.67 377.16 249.68 377.14 249.69 377.13 249.69 377.09 249.7 377.07 249.71 377.05 249.72 376.96 249.63 376.99 249.61 376.95 249.58 376.93 249.57 376.92 249.56 376.91 249.56 376.89 249.55 376.88 249.53 376.86 249.53 376.87 249.49 376.84 249.48 376.83 249.48 376.81 249.47 376.79 249.46 376.78 249.45 376.77 249.44 376.76 249.43 376.74 249.42 376.73 249.41 376.71 249.39 376.7 249.38 376.7 249.37 376.69 249.36 376.7 249.34 376.7 249.33 376.67 249.3 376.66 249.29 376.65 249.27 376.64 249.26 376.63 249.25 376.61 249.23 376.6 249.22 376.59 249.21 376.58 249.2 376.56 249.18 376.55 249.17 376.54 249.16 376.52 249.15 376.51 249.14 376.5 249.13 376.49 249.12 376.47 249.1 376.46 249.09 376.45 249.08 376.43 249.07 376.42 249.06 376.4 249.05 376.4 249.04 376.38 249.03 376.37 249.02 376.35 249.01 376.34 249 376.32 248.99 376.31 248.98 376.3 248.97 376.28 248.96 376.26 248.95 376.25 248.94 376.23 248.93 376.22 248.92 376.2 248.91 376.17 248.89 376.16 248.88 376.13 248.87 376.11 248.86 376.1 248.85 376.08 248.84 376.07 248.83 376.05 248.82 376.02 248.8 376.01 248.79 375.99 248.78 375.98 248.77 375.94 248.74 375.92 248.74 375.91 248.73 375.89 248.72 375.87 248.71 375.86 248.7 375.84 248.69 375.82 248.68 375.79 248.67 375.78 248.66 375.76 248.65 375.75 248.65 375.74 248.64 375.72 248.64 375.69 248.62 375.67 248.61 375.65 248.6 375.62 248.59 375.61 248.58 375.58 248.57 375.57 248.57 375.55 248.57 375.53 248.57 375.51 248.57 375.5 248.57 375.48 248.57 375.46 248.56 375.44 248.55 375.43 248.54 375.41 248.54 375.38 248.52 375.36 248.52 375.34 248.51 375.33 248.51 375.31 248.5 375.29 248.5 375.28 248.49 375.26 248.49 375.25 248.48 375.23 248.48 375.22 248.47 375.2 248.46 375.19 248.45 375.18 248.44 375.16 248.43 375.14 248.43 375.13 248.42 375.11 248.41 375.1 248.41 375.08 248.4 375.06 248.39 375.04 248.38 375.03 248.38 375.02 248.37 375.03 248.32 375.04 248.31 375.04 248.29 375.05 248.26 375.07 248.21 375.07 248.19 375.08 248.17 375.09 248.15 375.09 248.13 375.1 248.12 375.11 248.08 375.11 248.07 375.12 248.05 375.13 248.03 375.13 248.02 375.14 248 375.14 247.98 375.14 247.96 375.15 247.95 375.15 247.93 375.15 247.91 375.16 247.89 375.16 247.88 375.16 247.86 375.16 247.84 375.16 247.82 375.17 247.81 375.17 247.79 375.17 247.77 375.17 247.74 375.17 247.72 375.17 247.71 375.17 247.69 375.17 247.67 375.18 247.65 375.18 247.64 375.18 247.62 375.18 247.58 375.18 247.56 375.18 247.55 375.19 247.54 375.19 247.51 375.19 247.5 375.19 247.48 375.19 247.47 375.19 247.45 375.19 247.44 375.2 247.42 375.2 247.4 375.2 247.35 375.2 247.34 375.2 247.3 375.2 247.27 375.2 247.25 375.2 247.22 375.21 247.19 375.21 247.18 375.21 247.16 375.21 247.12 375.21 247.11 375.21 247.09 375.21 247.08 375.22 247.06 375.22 247.03 375.22 247.01 375.22 247 375.22 246.99 375.22 246.98 375.22 246.96 375.23 246.95 375.23 246.94 375.23 246.92 375.23 246.91 375.23 246.89 375.23 246.88 375.23 246.86 375.23 246.84 375.22 246.83 375.22 246.81 375.22 246.8 375.22 246.78 375.21 246.76 375.21 246.74 375.21 246.73 375.21 246.71 375.2 246.69 375.2 246.68 375.19 246.66 375.19 246.64 375.19 246.63 375.18 246.61 375.18 246.59 375.18 246.58 375.17 246.56 375.17 246.53 375.16 246.51 375.16 246.49 375.15 246.47 375.15 246.46 375.15 246.44 375.14 246.42 375.14 246.41 375.13 246.37 375.12 246.31 375.11 246.26 375.11 246.23 375.1 246.21 375.09 246.17 375.09 246.13 375.08 246.12 375.08 246.1 375.08 246.08 375.07 246.07 375.07 246.05 375.07 246.04 375.06 246.02 375.05 245.98 375.05 245.97 375.04 245.94 375.02 245.89 375.01 245.86 375.01 245.84 375 245.82 374.99 245.75 374.97 245.69 374.95 245.64 374.95 245.62 374.94 245.59 374.93 245.58 374.92 245.52 374.91 245.51 374.91 245.49 374.9 245.47 374.89 245.46 374.89 245.44 374.88 245.41 374.87 245.39 374.87 245.37 374.86 245.35 374.86 245.33 374.85 245.31 374.85 245.3 374.84 245.28 374.84 245.26 374.83 245.25 374.82 245.23 374.82 245.21 374.81 245.19 374.81 245.18 374.8 245.16 374.79 245.13 374.78 245.11 374.78 245.1 374.77 245.08 374.76 245.06 374.75 245.04 374.75 245.02 374.74 245.01 374.73 244.99 374.73 244.97 374.71 244.94 374.7 244.92 374.69 244.91 374.68 244.88 374.67 244.86 374.66 244.83 374.63 244.78 374.62 244.76 374.61 244.74 374.6 244.72 374.58 244.67 374.57 244.66 374.57 244.64 374.56 244.63 374.55 244.61 374.54 244.59 374.53 244.58 374.52 244.56 374.52 244.55 374.51 244.53 374.5 244.52 374.49 244.5 374.47 244.47 374.47 244.46 374.45 244.43 374.44 244.42 374.43 244.4 374.43 244.39 374.41 244.36 374.4 244.34 374.38 244.31 374.37 244.3 374.36 244.26 374.35 244.25 374.34 244.23 374.33 244.22 374.32 244.2 374.31 244.19 374.3 244.17 374.29 244.16 374.27 244.13 374.26 244.11 374.25 244.1 374.24 244.08 374.24 244.07 374.23 244.06 374.22 244.04 374.21 244.02 374.2 244.01 374.19 243.99 374.18 243.96 374.16 243.93 374.15 243.91 374.15 243.9 374.14 243.88 374.13 243.87 374.12 243.85 374.11 243.82 374.1 243.81 374.08 243.76 374.07 243.75 374.05 243.7 374.03 243.67 374.02 243.65 374.01 243.64 374.01 243.63 374 243.61 373.99 243.6 373.98 243.57 373.97 243.55 373.96 243.53 373.96 243.53 373.95 243.51 373.93 243.48 373.93 243.47 373.92 243.45 373.91 243.43 373.9 243.41 373.89 243.4 373.88 243.39 373.78 243.24 373.72 243.15 373.65 243.1 373.64 243.08 373.64 243.07 373.63 243.05 373.63 243.03 373.62 243.01 373.62 243 373.61 242.99 373.61 242.97 373.6 242.95 373.6 242.95 373.59 242.94 373.59 242.92 373.58 242.91 373.57 242.89 373.56 242.86 373.55 242.85 373.55 242.83 373.54 242.82 373.53 242.8 373.52 242.78 373.52 242.76 373.51 242.75 373.5 242.73 373.5 242.71 373.49 242.7 373.48 242.68 373.48 242.67 373.48 242.65 373.47 242.63 373.46 242.6 373.46 242.58 373.46 242.56 373.45 242.55 373.44 242.53 373.44 242.51 373.43 242.5 373.42 242.48 373.42 242.46 373.41 242.45 373.41 242.43 373.41 242.41 373.4 242.4 373.4 242.38 373.4 242.36 373.4 242.34 373.4 242.33 373.39 242.3 373.39 242.26 373.39 242.24 373.39 242.23 373.38 242.2 373.38 242.19 373.38 242.17 373.38 242.15 373.38 242.13 373.38 242.12 373.38 242.1 373.37 242.08 373.37 242.06 373.37 242.05 373.37 242.03 373.36 242.01 373.36 241.99 373.36 241.98 373.35 241.96 373.35 241.95 373.34 241.93 373.34 241.92 373.33 241.9 373.33 241.89 373.32 241.87 373.31 241.85 373.3 241.85 373.29 241.83 373.28 241.82 373.27 241.81 373.26 241.79 373.25 241.78 373.24 241.77 373.22 241.76 373.21 241.75 373.19 241.74 373.18 241.73 373.16 241.72 373.15 241.71 373.13 241.7 373.12 241.69 373.1 241.68 373.08 241.67 373.07 241.66 373.05 241.65 373.04 241.64 373.02 241.63 373.01 241.62 373.01 241.61 373 241.6 372.99 241.58 372.98 241.57 372.74 240.94 372.69 240.85 372.73 240.88 372.75 240.89 372.77 240.9 372.77 240.9 372.79 240.91 372.8 240.91 372.82 240.91 372.84 240.92 372.86 240.92 372.87 240.93 372.89 240.94 372.9 240.94 372.91 240.94 372.93 240.95 372.95 240.95 372.97 240.95 372.99 240.96 373 240.97 373.01 240.97 373.03 240.97 373.06 240.98 373.07 240.99 373.09 240.99 373.11 241 373.12 241 373.15 241 373.17 241 373.18 241 373.19 241 373.2 241 373.22 241 373.23 241.01 373.25 241.01 373.27 241.01 373.27 241.01 373.29 241.01 373.3 241.01 373.32 241.01 373.34 241.01 373.35 241.01 373.37 241.01 373.38 241.01 373.4 241.01 373.41 241.01 373.43 241.01 373.45 241.01 373.46 241.01 373.48 241.01 373.51 241.01 373.55 241.01 373.57 241 373.59 241 373.62 241 373.64 241 373.66 241 373.67 240.99 373.7 240.98 373.71 240.98 373.74 240.97 373.75 240.97 373.77 240.95 373.79 240.95 373.81 240.94 373.83 240.93 373.84 240.92 373.86 240.91 373.87 240.91 373.9 240.9 373.92 240.89 373.94 240.89 373.96 240.89 373.97 240.89 373.99 240.89 374.01 240.89 374.03 240.88 374.05 240.88 374.06 240.88 374.1 240.88 374.12 240.87 374.13 240.87 374.15 240.87 374.17 240.87 374.17 240.87 374.19 240.87 374.21 240.87 374.22 240.87 374.24 240.87 374.26 240.87 374.3 240.88 374.32 240.88 374.35 240.88 374.38 240.88 374.4 240.88 374.42 240.88 374.44 240.88 374.46 240.88 374.48 240.89 374.49 240.89 374.5 240.89 374.52 240.9 374.54 240.9 374.56 240.9 374.57 240.9 374.6 240.9 374.61 240.9 374.62 240.9 374.64 240.9 374.66 240.9 374.68 240.9 374.69 240.9 374.71 240.9 374.73 240.9 374.74 240.91 374.76 240.91 374.77 240.91 374.78 240.91 374.81 240.92 374.82 240.92 374.83 240.92 374.85 240.92 374.87 240.92 374.89 240.92 374.93 240.92 374.94 240.92 374.96 240.92 374.97 240.92 374.99 240.92 375 240.92 375.01 240.92 375.03 240.92 375.04 240.92 375.06 240.92 375.08 240.92 375.1 240.92 375.11 240.92 375.13 240.92 375.14 240.92 375.16 240.92 375.18 240.92 375.19 240.92 375.2 240.92 375.22 240.92 375.24 240.92 375.25 240.92 375.27 240.93 375.29 240.94 375.3 240.95 375.32 240.95 375.33 240.96 375.36 240.97 375.37 240.98 375.38 240.98 375.4 240.99 375.42 241.01 375.43 241.02 375.45 241.03 375.47 241.04 375.48 241.04 375.5 241.05 375.51 241.06 375.52 241.07 375.54 241.07 375.56 241.08 375.59 241.1 375.61 241.11 375.62 241.11 375.63 241.12 375.64 241.12 375.65 241.13 375.66 241.13 375.68 241.14 375.7 241.15 375.7 241.15 375.71 241.16 375.73 241.17 375.74 241.17 375.75 241.18 375.76 241.19 375.79 241.2 375.8 241.21 375.82 241.22 375.84 241.23 375.84 241.23 375.85 241.24 375.86 241.24 375.87 241.25 375.88 241.26 375.9 241.27 375.93 241.3 375.94 241.31 375.95 241.31 375.96 241.32 375.97 241.33 376 241.34 376 241.35 376.01 241.35 376.03 241.37 376.04 241.38 376.06 241.39 376.07 241.4 376.09 241.41 376.12 241.43 376.13 241.44 376.14 241.44 376.16 241.45 376.17 241.46 376.18 241.47 376.19 241.47 376.2 241.48 376.22 241.49 376.23 241.5 376.25 241.51 376.26 241.52 376.27 241.52 376.29 241.53 376.32 241.56 376.33 241.57 376.34 241.58 376.36 241.58 376.37 241.6 376.39 241.6 376.4 241.61 376.42 241.62 376.43 241.63 376.44 241.64 376.46 241.65 376.48 241.66 376.49 241.66 376.5 241.67 376.53 241.69 376.55 241.7 376.55 241.7 376.56 241.71 376.57 241.71 376.58 241.71 376.59 241.72 376.61 241.72 376.63 241.73 376.64 241.73 376.66 241.73 376.68 241.74 376.7 241.74 376.72 241.74 376.73 241.74 376.75 241.74 376.77 241.74 376.78 241.75 376.8 241.75 376.81 241.75 376.83 241.75 376.84 241.75 376.85 241.75 376.86 241.75 376.88 241.75 376.89 241.75 376.9 241.75 376.91 241.75 376.92 241.75 376.93 241.75 376.94 241.75 376.96 241.74 376.98 241.74 376.99 241.73 377.01 241.73 377.03 241.72 377.05 241.71 377.06 241.7 377.08 241.7 377.1 241.69 377.11 241.68 377.13 241.68 377.15 241.67 377.17 241.67 377.18 241.67 377.2 241.66 377.22 241.66 377.23 241.66 377.24 241.66 377.28 241.66 377.29 241.65 377.3 241.65 377.31 241.65 377.33 241.65 377.34 241.65 377.35 241.65 377.37 241.65 377.38 241.65 377.4 241.65 377.42 241.66 377.43 241.66 377.45 241.67 377.46 241.67 377.51 241.69 377.54 241.7 377.56 241.71 377.57 241.71 377.59 241.72 377.6 241.72 377.62 241.73 377.63 241.74 377.65 241.75 377.66 241.75 377.68 241.76 377.7 241.77 377.71 241.77 377.73 241.78 377.73 241.79 377.74 241.79 377.76 241.8 377.78 241.81 377.79 241.81 377.88 241.86 377.95 241.91 378.01 241.94 Z"/>
</g></svg>