<svg xmlns="http://www.w3.org/2000/svg" version="1.2" baseProfile="tiny" stroke-linecap="round" stroke-linejoin="round" viewBox="486.07 153.68 16.4 21.38"><g xmlns="http://www.w3.org/2000/svg" id="Ituren">
<path d="M 492.8 153.7 492.94 153.88 493.27 154.58 493.61 155.1 493.73 155.29 493.73 155.3 493.74 155.3 495.18 156.11 495.24 156.08 495.92 155.78 496.34 155.93 496.67 156.05 496.69 156.05 496.76 156.08 497.1 156.2 497.02 156.47 497.01 156.55 497.01 156.58 497.01 156.6 497.01 156.64 497.03 156.76 497.06 156.88 497.08 156.99 497.1 157.09 497.12 157.21 497.16 157.34 497.19 157.44 497.2 157.46 497.2 157.47 497.24 157.59 497.27 157.7 497.31 157.83 497.36 157.97 497.41 158.09 497.42 158.13 497.44 158.16 497.45 158.22 497.48 158.31 497.54 158.41 497.55 158.42 497.59 158.48 497.63 158.51 497.69 158.54 497.72 158.56 497.76 158.58 497.78 158.62 497.81 158.67 497.85 158.76 497.9 158.88 497.96 159 498.01 159.07 498.06 159.13 498.1 159.19 498.17 159.33 498.22 159.45 498.25 159.53 498.27 159.57 498.3 159.64 498.33 159.72 498.35 159.77 498.4 159.86 498.42 159.87 498.45 159.92 498.5 160.02 498.52 160.05 498.56 160.15 498.6 160.24 498.62 160.29 498.64 160.32 498.65 160.34 498.66 160.36 498.68 160.38 498.7 160.4 498.72 160.41 498.75 160.42 498.78 160.42 498.81 160.42 498.84 160.41 498.86 160.41 498.88 160.41 498.9 160.42 498.91 160.43 498.93 160.45 498.94 160.46 498.94 160.49 498.95 160.51 498.94 160.54 498.93 160.57 498.91 160.6 498.9 160.62 498.88 160.67 498.88 160.69 498.87 160.71 498.88 160.73 498.89 160.74 498.9 160.76 498.94 160.79 498.98 160.81 499.02 160.83 499.05 160.84 499.11 160.86 499.17 160.89 499.22 160.91 499.26 160.92 499.29 160.92 499.33 160.93 499.37 160.94 499.4 160.94 499.44 160.95 499.45 160.95 499.47 160.96 499.5 160.97 499.54 160.99 499.57 161.01 499.59 161.04 499.62 161.06 499.65 161.08 499.68 161.11 499.71 161.14 499.73 161.17 499.74 161.18 499.76 161.2 499.76 161.23 499.77 161.25 499.79 161.31 499.81 161.37 499.82 161.41 499.83 161.45 499.85 161.49 499.87 161.55 499.88 161.61 499.9 161.66 499.91 161.7 499.92 161.73 499.93 161.76 499.94 161.8 499.95 161.83 499.96 161.87 499.97 161.9 499.99 161.94 500 161.97 500.01 161.99 500.01 162.02 500.01 162.05 500.01 162.08 500.02 162.11 500.03 162.13 500.04 162.16 500.07 162.19 500.09 162.22 500.13 162.25 500.16 162.27 500.2 162.28 500.23 162.29 500.25 162.29 500.27 162.29 500.29 162.29 500.32 162.29 500.35 162.31 500.38 162.32 500.42 162.35 500.45 162.38 500.49 162.41 500.52 162.44 500.55 162.47 500.58 162.5 500.61 162.53 500.64 162.57 500.68 162.61 500.72 162.63 500.74 162.65 500.76 162.66 500.8 162.66 500.83 162.66 500.87 162.65 500.95 162.65 500.98 162.64 501.01 162.63 501.06 162.61 501.08 162.6 501.1 162.6 501.13 162.6 501.15 162.6 501.18 162.61 501.21 162.63 501.24 162.65 501.28 162.69 501.31 162.72 501.34 162.74 501.37 162.77 501.37 162.8 501.37 162.87 501.38 162.89 501.39 162.92 501.41 162.96 501.44 163 501.46 163.04 501.49 163.07 501.51 163.1 501.52 163.13 501.54 163.15 501.55 163.18 501.55 163.2 501.56 163.21 501.56 163.23 501.54 163.25 501.51 163.27 501.5 163.29 501.48 163.31 501.47 163.32 501.47 163.34 501.47 163.35 501.48 163.37 501.49 163.39 501.49 163.41 501.49 163.43 501.48 163.45 501.47 163.47 501.47 163.49 501.47 163.54 501.47 163.58 501.48 163.62 501.48 163.66 501.49 163.7 501.5 163.74 501.51 163.78 501.51 163.82 501.51 163.86 501.52 163.9 501.51 163.94 501.51 163.98 501.51 164 501.5 164.02 501.48 164.05 501.46 164.08 501.45 164.1 501.44 164.13 501.43 164.16 501.42 164.2 501.41 164.22 501.38 164.29 501.37 164.32 501.36 164.35 501.35 164.37 501.35 164.4 501.35 164.42 501.36 164.44 501.38 164.46 501.41 164.49 501.44 164.53 501.47 164.56 501.5 164.59 501.52 164.61 501.54 164.64 501.54 164.65 501.54 164.67 501.53 164.73 501.52 164.79 501.52 164.81 501.52 164.82 501.53 164.83 501.54 164.83 501.61 164.86 501.62 164.87 501.63 164.87 501.67 164.89 501.73 164.92 501.78 164.94 501.82 164.96 501.87 164.97 501.92 164.99 501.94 165 501.95 165.02 501.98 165.06 501.99 165.06 502.03 165.12 502.08 165.2 502.09 165.23 502.09 165.25 502.11 165.31 502.12 165.33 502.13 165.36 502.14 165.43 502.15 165.47 502.16 165.49 502.18 165.58 502.2 165.66 502.22 165.73 502.25 165.84 502.28 165.94 502.3 166.04 502.33 166.14 502.35 166.21 502.35 166.22 502.36 166.28 502.38 166.34 502.4 166.41 502.42 166.51 502.44 166.59 502.36 166.63 502.3 166.66 502.16 166.72 502.08 166.76 501.99 166.81 501.91 166.85 501.84 166.88 501.77 166.91 501.65 166.97 501.64 166.97 501.55 167.01 501.52 167.03 501.49 167.07 501.48 167.08 501.47 167.09 501.45 167.13 501.41 167.22 501.41 167.23 501.4 167.26 501.37 167.33 501.31 167.48 501.27 167.57 501.25 167.62 501.23 167.65 501.22 167.7 501.21 167.71 501.16 167.83 501.14 167.89 501.13 167.92 501.09 167.97 501.06 168.01 500.99 168.11 500.95 168.18 500.87 168.3 500.81 168.4 500.79 168.43 500.73 168.52 500.65 168.64 500.64 168.65 500.62 168.69 500.62 168.78 500.65 168.92 500.69 169.08 500.69 169.1 500.7 169.13 500.7 169.13 500.7 169.15 500.72 169.25 500.73 169.27 500.73 169.28 500.73 169.29 500.76 169.42 500.76 169.44 500.78 169.61 500.79 169.8 500.8 169.89 500.81 169.92 500.81 169.93 500.83 170 500.85 170.1 500.86 170.15 500.88 170.19 500.95 170.26 501.01 170.34 501.03 170.36 501.04 170.37 501.13 170.47 501.22 170.59 501.31 170.69 501.43 170.82 501.49 170.89 501.58 170.99 501.67 171.1 501.71 171.16 501.69 171.17 501.68 171.18 501.59 171.25 501.5 171.34 501.41 171.41 501.39 171.42 501.32 171.48 501.21 171.54 501.17 171.57 501.08 171.62 501.03 171.63 500.92 171.66 500.68 171.72 500.65 171.73 500.52 171.76 500.42 171.81 500.31 171.84 500.13 171.9 500.05 171.92 500.03 171.93 499.92 171.96 499.91 171.96 499.84 171.98 499.8 172.04 499.7 172.16 499.58 172.3 499.5 172.39 499.46 172.42 499.29 172.59 499.07 172.82 499.09 172.75 499.11 172.68 499.14 172.6 499.15 172.53 499.17 172.46 499.19 172.4 499.21 172.34 499.25 172.24 499.27 172.16 499.3 172.06 499.33 171.96 499.35 171.87 499.37 171.82 499.33 171.81 499.28 171.78 499.24 171.77 499.19 171.76 499.14 171.75 499.09 171.74 499.05 171.73 499.01 171.72 498.98 171.7 498.91 171.65 498.87 171.62 498.83 171.59 498.82 171.58 498.8 171.57 498.78 171.54 498.77 171.5 498.75 171.43 498.75 171.42 498.74 171.36 498.72 171.29 498.71 171.25 498.68 171.23 498.66 171.21 498.64 171.2 498.63 171.19 498.59 171.17 498.54 171.15 498.49 171.12 498.45 171.1 498.4 171.08 498.33 171.05 498.28 171.03 498.23 171.01 498.19 171.01 498.14 171 498.1 171.01 498.04 171.01 497.99 171.02 497.95 171.02 497.96 171.11 497.98 171.19 497.98 171.22 497.99 171.3 498 171.33 497.99 171.4 497.99 171.55 497.98 171.68 497.98 171.84 497.97 171.95 497.97 171.99 497.97 172.04 497.97 172.07 497.97 172.13 497.96 172.23 497.96 172.28 497.96 172.33 497.96 172.44 497.95 172.55 497.95 172.66 497.95 172.74 497.94 172.85 497.94 172.94 497.94 173 497.94 173.04 497.93 173.12 497.93 173.16 497.93 173.24 497.93 173.31 497.82 173.31 497.81 173.31 497.79 173.31 497.72 173.31 497.7 173.31 497.62 173.33 497.58 173.33 497.56 173.33 497.55 173.32 497.52 173.29 497.48 173.26 497.48 173.26 497.43 173.22 497.37 173.18 497.29 173.12 497.24 173.08 497.18 173.03 497.11 172.98 497.05 172.93 496.99 172.89 496.9 172.82 496.83 172.76 496.74 172.69 496.7 172.66 496.69 172.65 496.67 172.69 496.61 172.78 496.6 172.8 496.54 172.9 496.52 172.93 496.47 173.01 496.4 173.13 496.35 173.21 496.28 173.32 496.26 173.35 496.22 173.41 496.17 173.5 496.13 173.56 496.01 173.56 495.92 173.56 495.83 173.56 495.75 173.56 495.69 173.56 495.66 173.56 495.56 173.56 495.48 173.56 495.38 173.56 495.28 173.56 495.18 173.57 495.07 173.57 494.98 173.57 494.89 173.58 494.87 173.62 494.84 173.7 494.8 173.78 494.79 173.79 494.78 173.82 494.75 173.88 494.7 173.97 494.67 174.05 494.66 174.06 494.66 174.07 494.65 174.08 494.64 174.1 494.63 174.12 494.62 174.13 494.6 174.14 494.57 174.15 494.5 174.18 494.43 174.21 494.35 174.23 494.27 174.26 494.2 174.28 494.12 174.31 494.05 174.33 493.97 174.36 493.96 174.36 493.86 174.4 493.77 174.43 493.69 174.45 493.62 174.48 493.54 174.5 493.44 174.54 493.36 174.56 493.3 174.58 493.25 174.6 493.21 174.62 493.17 174.64 493.1 174.68 493.02 174.73 492.94 174.78 492.87 174.83 492.85 174.83 492.78 174.88 492.77 174.89 492.69 174.93 492.62 174.98 492.54 175.02 492.49 175.05 492.22 174.74 492.21 174.74 491.64 174.44 491.63 174.43 491.31 174.48 491 174.53 490.6 174.59 490.56 174.6 490.37 174.63 490.35 174.64 490.32 174.64 490.22 174.66 490.48 174.5 490.54 174.46 490.89 174.25 491.01 174.17 491.02 174.17 491.17 174.06 491.27 173.99 491.28 173.98 491.32 173.96 491.5 173.83 491.64 173.74 491.73 173.68 491.9 173.56 491.93 173.54 492.05 173.45 492.06 173.44 492.08 173.43 492.12 173.38 492.15 173.36 492.22 173.3 492.24 173.28 492.31 173.21 492.4 173.13 492.58 172.96 492.61 172.93 492.67 172.87 492.76 172.78 492.8 172.75 492.81 172.72 492.83 172.68 492.89 172.55 492.99 172.36 492.99 172.34 493 172.33 493.08 172.19 493.14 172.08 493.23 171.92 493.27 171.84 493.28 171.83 493.3 171.79 493.39 171.64 493.49 171.46 493.56 171.34 493.61 171.24 493.67 171.14 493.73 171.02 493.73 170.99 493.73 170.89 493.73 170.88 493.73 170.83 493.72 170.74 493.72 170.72 493.72 170.65 493.71 170.59 493.71 170.57 493.71 170.5 493.7 170.46 493.7 170.35 493.7 170.34 493.67 170.22 493.67 170.12 493.65 170.03 493.64 169.97 493.61 169.89 493.6 169.87 493.59 169.86 493.57 169.83 493.55 169.77 493.51 169.71 493.49 169.67 493.47 169.58 493.44 169.52 493.41 169.48 493.39 169.46 493.39 169.46 493.38 169.45 493.35 169.43 493.31 169.38 493.28 169.35 493.25 169.29 493.21 169.23 493.19 169.21 493.15 169.14 493.14 169.12 493.13 169.09 493.13 169.07 493.12 169.06 493.1 169.04 493.1 169.03 493.09 169.01 493.09 169 493.09 168.98 493.08 168.96 493.08 168.94 493.05 168.88 493.01 168.82 492.99 168.77 492.97 168.72 492.95 168.67 492.94 168.64 492.93 168.62 492.93 168.61 492.92 168.59 492.9 168.58 492.88 168.57 492.85 168.55 492.84 168.54 492.82 168.51 492.8 168.49 492.78 168.48 492.74 168.46 492.7 168.43 492.67 168.41 492.64 168.39 492.62 168.36 492.6 168.36 492.59 168.35 492.55 168.33 492.51 168.31 492.5 168.31 492.48 168.3 492.46 168.27 492.45 168.25 492.44 168.24 492.43 168.23 492.4 168.2 492.37 168.15 492.34 168.1 492.33 168.09 492.31 168.06 492.29 168.03 492.27 167.99 492.23 167.94 492.18 167.89 492.11 167.83 492.07 167.81 492.05 167.8 492.03 167.79 491.99 167.79 491.94 167.78 491.91 167.77 491.89 167.77 491.86 167.77 491.84 167.76 491.82 167.76 491.79 167.75 491.72 167.72 491.65 167.67 491.62 167.66 491.62 167.66 491.59 167.64 491.55 167.62 491.51 167.6 491.47 167.57 491.44 167.54 491.43 167.53 491.42 167.51 491.42 167.48 491.42 167.46 491.42 167.43 491.43 167.36 491.47 167.22 491.48 167.1 491.49 167.06 491.5 167.06 491.54 167.05 491.56 167.03 491.58 167.01 491.67 166.86 491.78 166.69 491.85 166.57 491.87 166.54 491.88 166.49 491.88 166.48 491.88 166.46 491.89 166.43 491.89 166.41 491.89 166.4 491.89 166.39 491.9 166.36 491.89 166.35 491.83 166.29 491.82 166.28 491.81 166.27 491.72 166.19 491.59 166.08 491.49 166 491.43 165.95 491.39 165.92 491.34 165.87 491.33 165.86 491.31 165.85 491.28 165.83 491.19 165.8 491.13 165.78 491.11 165.77 491.09 165.76 491.03 165.74 490.7 165.66 490.62 165.64 490.48 165.6 490.39 165.58 490.37 165.58 490.35 165.55 490.27 165.46 490.25 165.45 490.18 165.38 490.17 165.36 490.04 165.24 489.98 165.18 489.9 165.1 489.81 165.01 489.78 164.98 489.72 164.91 489.71 164.91 489.68 164.87 489.64 164.83 489.59 164.78 489.57 164.75 489.56 164.74 489.55 164.69 489.51 164.59 489.48 164.47 489.45 164.37 489.41 164.27 489.41 164.27 489.4 164.25 489.39 164.22 489.38 164.19 489.38 164.18 489.37 164.15 489.35 164.13 489.34 164.11 489.32 164.09 489.18 163.92 489.15 163.88 489.14 163.87 489.02 163.73 488.85 163.53 488.69 163.34 488.68 163.33 488.61 163.25 488.49 163.1 488.37 162.96 488.25 162.81 488.14 162.67 488.02 162.49 487.95 162.42 487.93 162.39 487.83 162.28 487.74 162.17 487.67 162.1 487.61 162.03 487.57 161.97 487.55 161.94 487.53 161.92 487.5 161.86 487.45 161.76 487.41 161.67 487.35 161.54 487.3 161.39 487.24 161.26 487.2 161.16 487.17 161.07 487.15 161.02 487.15 161 487.15 160.99 487.16 160.94 487.16 160.84 487.16 160.78 487.16 160.63 487.16 160.53 487.16 160.47 487.16 160.45 487.14 160.41 487.1 160.29 487.03 160.1 486.98 159.97 486.94 159.86 486.9 159.76 486.91 159.73 486.94 159.66 486.98 159.55 487.01 159.46 487.04 159.39 487.06 159.33 487.07 159.27 487.08 159.21 487.09 159.13 487.09 159.06 487.09 159.01 487.09 158.95 487.08 158.87 487.07 158.75 487.06 158.68 487.05 158.64 487.04 158.6 487 158.49 486.97 158.39 486.96 158.36 486.94 158.33 486.88 158.26 486.84 158.2 486.78 158.14 486.74 158.09 486.72 158.06 486.71 158.05 486.69 158.02 486.66 157.95 486.63 157.89 486.6 157.82 486.57 157.75 486.53 157.65 486.44 157.47 486.33 157.26 486.19 157.03 486.07 156.81 486.81 156.55 486.9 156.51 487.05 156.46 487.07 156.45 487.09 156.44 487.53 156.25 487.98 155.91 488.2 155.69 489.26 155.32 490.1 154.86 490.16 154.83 490.24 154.79 490.3 154.75 490.33 154.73 491.1 154.34 491.37 154.18 491.88 153.88 491.92 153.87 492.11 153.84 492.8 153.7 Z"/>
</g></svg>