<svg xmlns="http://www.w3.org/2000/svg" version="1.2" baseProfile="tiny" stroke-linecap="round" stroke-linejoin="round" viewBox="685.05 234.28 12.57 14.17"><g xmlns="http://www.w3.org/2000/svg" id="Itzaltzu">
<path d="M 695.01 234.92 695.11 234.98 695.14 235.04 695.2 235.3 695.26 235.54 695.26 235.57 695.33 235.83 695.37 235.99 695.37 236 695.34 236.2 695.32 236.32 695.31 236.35 695.3 236.38 695.29 236.42 695.28 236.44 695.27 236.46 695.27 236.48 695.26 236.5 695.25 236.53 695.25 236.56 695.24 236.59 695.24 236.62 695.23 236.68 695.22 236.74 695.19 236.99 695.17 237.15 695.17 237.17 695.16 237.18 695.16 237.2 695.16 237.2 695.15 237.21 695.15 237.22 695.12 237.27 695.11 237.31 695.11 237.32 695.09 237.36 695.09 237.37 695.09 237.38 695.08 237.39 695.08 237.4 695.08 237.43 695.07 237.49 695.03 237.65 695 237.82 694.99 237.85 694.99 237.88 694.99 237.89 694.99 237.91 694.99 237.92 695 237.93 695 237.94 695.01 237.96 695.01 237.97 695.01 237.98 695.03 237.99 695.07 238.03 695.14 238.1 695.2 238.15 695.24 238.19 695.27 238.21 695.3 238.22 695.31 238.23 695.34 238.25 695.36 238.25 695.38 238.26 695.43 238.28 695.51 238.31 695.55 238.33 695.56 238.34 695.57 238.35 695.6 238.36 695.64 238.38 695.66 238.38 695.67 238.39 695.68 238.4 695.69 238.41 695.7 238.42 695.72 238.43 695.73 238.43 695.73 238.44 695.74 238.45 695.77 238.48 695.81 238.52 695.85 238.57 695.88 238.6 695.89 238.61 695.9 238.62 695.91 238.63 695.92 238.64 695.93 238.65 695.93 238.66 695.94 238.68 695.94 238.69 695.95 238.71 695.95 238.72 695.95 238.74 695.95 238.77 695.96 238.83 695.96 238.87 695.97 238.89 695.97 238.91 695.98 238.92 695.98 238.93 695.99 238.94 695.99 238.96 696.01 238.98 696.05 239.04 696.08 239.08 696.14 239.13 696.2 239.18 696.26 239.23 696.3 239.26 696.3 239.26 696.32 239.27 696.33 239.28 696.34 239.3 696.38 239.34 696.39 239.35 696.4 239.36 696.41 239.36 696.42 239.37 696.44 239.38 696.46 239.4 696.49 239.41 696.55 239.44 696.64 239.48 696.72 239.51 696.87 239.58 696.99 239.64 697.04 239.67 697.1 239.7 697.13 239.71 697.15 239.72 697.17 239.73 697.19 239.73 697.21 239.73 697.23 239.73 697.27 239.73 697.32 239.71 697.37 239.7 697.4 239.7 697.43 239.7 697.44 239.7 697.45 239.7 697.46 239.71 697.47 239.71 697.49 239.73 697.5 239.73 697.51 239.74 697.52 239.75 697.53 239.77 697.54 239.78 697.55 239.79 697.55 239.81 697.56 239.83 697.57 239.86 697.57 239.87 697.57 239.88 697.57 239.9 697.57 239.91 697.57 239.92 697.56 239.93 697.55 239.97 697.51 240.09 697.47 240.2 697.43 240.29 697.41 240.37 697.39 240.44 697.37 240.47 697.37 240.49 697.36 240.51 697.36 240.52 697.36 240.54 697.37 240.55 697.37 240.57 697.37 240.58 697.38 240.59 697.39 240.6 697.4 240.61 697.41 240.62 697.44 240.63 697.47 240.63 697.49 240.64 697.51 240.64 697.52 240.65 697.53 240.65 697.54 240.66 697.56 240.67 697.59 240.71 697.6 240.72 697.6 240.73 697.61 240.74 697.61 240.75 697.61 240.78 697.61 240.8 697.61 240.85 697.61 240.93 697.61 241.04 697.61 241.11 697.61 241.17 697.6 241.25 697.59 241.37 697.59 241.44 697.59 241.5 697.59 241.53 697.58 241.55 697.58 241.56 697.58 241.57 697.57 241.58 697.57 241.59 697.56 241.62 697.53 241.69 697.5 241.75 697.46 241.86 697.44 241.91 697.42 241.96 697.41 242 697.4 242.01 697.4 242.02 697.39 242.04 697.38 242.06 697.36 242.07 697.35 242.09 697.33 242.11 697.27 242.17 697.23 242.21 697.22 242.23 697.21 242.24 697.18 242.27 697.17 242.29 697.16 242.31 697.15 242.32 697.13 242.34 697.12 242.36 697.1 242.37 697.09 242.39 697.07 242.4 697.06 242.41 697.05 242.42 697.05 242.43 697.04 242.44 697.03 242.45 697.03 242.47 697.02 242.5 697.02 242.53 697.03 242.61 697.03 242.69 697.03 242.76 697.04 242.8 697.03 242.83 697.03 242.84 697.03 242.86 697.02 242.87 697.02 242.89 697 242.91 696.94 243.01 696.93 243.03 696.91 243.06 696.91 243.07 696.9 243.09 696.9 243.11 696.9 243.13 696.9 243.19 696.91 243.25 696.91 243.31 696.92 243.39 696.93 243.46 696.93 243.5 696.95 243.56 696.97 243.63 696.99 243.68 697 243.74 697.02 243.79 697.02 243.81 697.02 243.81 697.02 243.83 697.03 243.84 697.05 243.94 697.07 244.02 697.04 244.04 697 244.07 696.99 244.08 696.98 244.08 696.97 244.09 696.96 244.09 696.95 244.09 696.92 244.09 696.89 244.09 696.85 244.09 696.8 244.09 696.78 244.09 696.75 244.1 696.72 244.11 696.69 244.11 696.67 244.12 696.64 244.13 696.59 244.15 696.55 244.15 696.53 244.16 696.45 244.16 696.35 244.16 696.31 244.16 696.27 244.16 696.23 244.16 696.18 244.16 696.12 244.17 696.09 244.18 696.06 244.19 696.03 244.2 696.02 244.21 696 244.21 695.99 244.22 695.97 244.23 695.95 244.24 695.94 244.25 695.93 244.26 695.91 244.27 695.9 244.28 695.88 244.29 695.86 244.31 695.81 244.36 695.76 244.41 695.73 244.44 695.71 244.45 695.69 244.46 695.68 244.47 695.66 244.47 695.65 244.48 695.64 244.48 695.63 244.49 695.61 244.49 695.57 244.5 695.49 244.51 695.42 244.51 695.35 244.52 695.33 244.52 695.31 244.53 695.3 244.53 695.29 244.54 695.28 244.54 695.27 244.55 695.26 244.56 695.23 244.58 695.22 244.6 695.2 244.61 695.19 244.63 695.18 244.63 695.17 244.64 695.16 244.65 695.14 244.66 695.1 244.69 695.04 244.74 694.99 244.77 694.97 244.78 694.95 244.8 694.93 244.81 694.92 244.82 694.89 244.82 694.73 244.86 694.66 244.88 694.61 244.89 694.49 244.91 694.46 244.92 694.44 244.93 694.41 244.93 694.38 244.95 694.37 244.96 694.35 244.97 694.34 244.98 694.33 245 694.3 245.04 694.29 245.07 694.27 245.11 694.25 245.14 694.25 245.16 694.24 245.17 694.23 245.2 694.23 245.21 694.23 245.23 694.22 245.26 694.22 245.33 694.22 245.36 694.22 245.37 694.22 245.39 694.22 245.4 694.22 245.41 694.22 245.42 694.21 245.45 694.2 245.46 694.19 245.51 694.18 245.53 694.17 245.56 694.16 245.58 694.14 245.61 694.13 245.63 694.11 245.65 694.09 245.66 694.08 245.67 694.06 245.68 694.04 245.69 694.02 245.7 694 245.71 693.99 245.71 693.98 245.71 693.96 245.72 693.95 245.72 693.93 245.71 693.9 245.71 693.87 245.7 693.82 245.67 693.75 245.64 693.71 245.62 693.68 245.61 693.66 245.61 693.64 245.6 693.63 245.6 693.61 245.6 693.59 245.6 693.54 245.6 693.49 245.6 693.48 245.6 693.46 245.61 693.43 245.62 693.42 245.62 693.38 245.64 693.34 245.65 693.27 245.68 693.22 245.7 693.19 245.71 693.18 245.71 693.17 245.71 693.15 245.71 693.14 245.71 693.13 245.7 693.12 245.69 693.11 245.69 693.1 245.67 693.09 245.66 693.07 245.64 693.06 245.61 693.05 245.59 693.04 245.57 693.03 245.56 693.02 245.54 693.02 245.54 693 245.52 693 245.51 692.99 245.5 692.98 245.5 692.98 245.49 692.96 245.49 692.95 245.48 692.94 245.48 692.92 245.48 692.91 245.48 692.9 245.48 692.88 245.49 692.86 245.5 692.82 245.51 692.78 245.53 692.75 245.54 692.72 245.55 692.71 245.56 692.71 245.56 692.65 245.6 692.61 245.62 692.54 245.67 692.49 245.71 692.47 245.72 692.44 245.75 692.43 245.76 692.41 245.77 692.4 245.79 692.38 245.82 692.37 245.84 692.34 245.88 692.32 245.91 692.3 245.93 692.29 245.94 692.27 245.95 692.25 245.96 692.23 245.96 692.21 245.96 692.19 245.96 692.11 245.96 692.03 245.95 691.95 245.94 691.91 245.94 691.88 245.93 691.85 245.93 691.84 245.93 691.81 245.93 691.78 245.93 691.76 245.94 691.74 245.94 691.71 245.95 691.69 245.96 691.66 245.98 691.62 246 691.58 246.03 691.53 246.05 691.5 246.07 691.47 246.08 691.45 246.09 691.43 246.09 691.4 246.1 691.36 246.09 691.3 246.09 691.23 246.07 691.16 246.05 691.11 246.04 691.05 246.02 690.97 245.99 690.87 245.94 690.75 245.89 690.72 245.88 690.68 245.87 690.64 245.86 690.44 245.85 690.43 245.85 690.42 245.87 690.41 245.93 690.4 246 690.4 246.2 690.4 246.21 690.4 246.24 690.4 246.26 690.39 246.33 690.38 246.47 690.37 246.51 690.37 246.53 690.33 246.52 690.17 246.43 690.12 246.4 690.01 246.33 689.99 246.32 689.97 246.31 689.96 246.31 689.94 246.31 689.84 246.31 689.42 246.6 689.31 246.61 689.29 246.61 689.16 246.62 688.98 246.63 688.96 246.63 688.9 246.63 688.88 246.63 688.86 246.63 688.83 246.63 688.74 246.62 688.67 246.61 688.65 246.61 688.63 246.61 688.61 246.61 688.59 246.61 688.57 246.61 688.54 246.62 688.5 246.64 688.44 246.66 688.39 246.68 688.35 246.71 688.31 246.73 688.28 246.75 688.25 246.77 688.2 246.81 688.04 246.99 687.98 247.05 687.95 247.08 687.79 247.25 687.8 247.4 687.8 247.41 687.79 247.54 687.79 247.77 687.78 247.78 687.64 247.86 687.47 247.94 687.3 248.03 687.05 248.17 687.01 248.19 686.98 248.2 686.86 248.27 686.83 248.29 686.58 248.43 686.46 248.4 686.29 248.36 685.97 248.28 685.76 248.24 685.74 248.24 685.62 248.22 685.58 248.14 685.38 247.82 685.37 247.8 685.31 247.7 685.2 247.49 685.08 247.29 685.09 247.19 685.1 247.11 685.12 247 685.13 246.93 685.15 246.86 685.15 246.85 685.16 246.79 685.17 246.75 685.18 246.7 685.19 246.67 685.19 246.62 685.19 246.59 685.2 246.56 685.2 246.54 685.2 246.53 685.2 246.49 685.21 246.49 685.22 246.48 685.24 246.46 685.26 246.44 685.28 246.43 685.29 246.42 685.31 246.41 685.33 246.39 685.35 246.37 685.37 246.36 685.4 246.34 685.41 246.33 685.43 246.32 685.47 246.3 685.49 246.29 685.61 246.23 685.66 246.21 685.76 246.17 685.86 246.13 685.94 246.09 685.96 246.08 685.98 246.08 685.98 246.07 685.99 246.06 686 246.06 686 246.05 686.01 246.04 686.01 246.03 686.02 246.02 686.02 246.01 686.04 245.99 686.07 245.91 686.13 245.76 686.17 245.7 686.19 245.66 686.2 245.64 686.22 245.63 686.23 245.62 686.24 245.59 686.26 245.57 686.27 245.55 686.31 245.5 686.37 245.42 686.39 245.4 686.39 245.39 686.42 245.36 686.44 245.33 686.45 245.31 686.47 245.29 686.49 245.26 686.5 245.24 686.52 245.21 686.54 245.18 686.55 245.17 686.57 245.14 686.6 245.1 686.62 245.07 686.66 245.03 686.69 245 686.73 244.94 686.75 244.92 686.78 244.89 686.8 244.86 686.82 244.83 686.84 244.8 686.86 244.76 686.88 244.72 686.89 244.69 686.91 244.66 686.92 244.63 686.93 244.6 686.94 244.57 686.95 244.53 686.96 244.5 686.97 244.46 686.97 244.43 687.01 244.4 687.03 244.39 687.06 244.36 687.09 244.33 687.12 244.3 687.14 244.29 687.16 244.26 687.19 244.23 687.21 244.2 687.23 244.18 687.25 244.15 687.27 244.12 687.28 244.1 687.3 244.07 687.31 244.06 687.33 244.03 687.34 244.01 687.37 243.97 687.4 243.93 687.42 243.88 687.43 243.86 687.44 243.85 687.47 243.8 687.49 243.75 687.53 243.68 687.59 243.58 687.6 243.58 688.04 243.65 688.05 243.65 688.26 243.68 688.56 243.72 688.66 243.73 688.67 243.74 688.99 243.78 689.48 243.86 689.51 243.86 689.63 243.87 689.64 243.88 689.67 243.88 690.04 243.93 690.05 243.93 690.06 243.93 690.07 243.94 690.07 243.88 690.1 243.75 690.12 243.55 690.15 243.36 690.15 243.33 690.15 243.31 690.16 243.29 690.16 243.28 690.15 243.26 690.15 243.24 690.15 243.21 690.14 243.18 690.13 243.12 690.13 243.05 690.12 242.97 690.12 242.92 690.11 242.85 690.11 242.81 690.11 242.79 690.1 242.75 690.1 242.72 690.1 242.7 690.09 242.67 690.08 242.62 690.08 242.6 690.07 242.59 690.06 242.54 690.04 242.4 690.02 242.29 690.02 242.26 690.01 242.16 690.01 242.14 690 242.03 689.99 241.97 689.98 241.9 689.98 241.85 689.97 241.81 689.96 241.76 689.96 241.75 689.96 241.72 689.95 241.68 689.93 241.61 689.93 241.59 689.91 241.53 689.89 241.44 689.87 241.37 689.86 241.33 689.85 241.3 689.84 241.28 689.84 241.26 689.83 241.22 689.79 241.07 689.85 240.91 689.91 240.73 689.98 240.5 690.12 240.07 690.1 240.04 690.04 239.88 690.01 239.79 689.98 239.69 689.91 239.51 689.91 239.48 689.86 239.44 689.83 239.4 689.77 239.34 689.72 239.28 689.65 239.2 689.6 239.13 689.49 239 689.48 238.98 689.42 238.9 689.37 238.84 689.32 238.77 689.26 238.69 689.2 238.63 689.13 238.56 689.07 238.48 688.98 238.4 688.94 238.35 688.88 238.28 688.82 238.23 688.77 238.19 688.72 238.14 688.64 238.07 688.58 238.02 688.52 237.96 688.46 237.92 688.42 237.88 688.35 237.82 688.15 237.65 688.11 237.63 688.05 237.58 687.98 237.53 687.98 237.52 687.96 237.51 687.94 237.48 687.91 237.42 687.86 237.33 687.93 237.2 687.97 237.09 688 237.03 688.03 236.96 688.04 236.92 688.07 236.85 688.09 236.79 688.09 236.77 688.1 236.75 688.1 236.73 688.11 236.71 688.11 236.68 688.11 236.66 688.11 236.65 688.11 236.62 688.11 236.49 688.11 236.48 688.11 236.36 688.1 236.19 688.1 236.18 688.09 236.07 688.09 236 688.08 235.96 688.08 235.91 688.07 235.86 688.07 235.84 688.07 235.78 688.08 235.69 688.08 235.63 688.08 235.58 688.07 235.54 688.07 235.53 688.07 235.52 688.07 235.52 688.06 235.51 688.06 235.5 688.05 235.48 688.02 235.43 687.94 235.29 687.91 235.23 687.89 235.18 687.87 235.15 687.86 235.1 687.84 235.05 687.83 235.01 687.82 234.98 688.59 234.91 688.62 234.91 688.63 234.9 688.72 234.88 689.78 234.58 690.22 234.46 690.23 234.45 690.25 234.46 690.26 234.46 690.31 234.48 690.79 234.66 690.81 234.67 691.01 234.74 691.29 234.8 691.35 234.81 691.76 234.9 691.87 234.84 691.99 234.78 692.4 234.56 692.62 234.5 693.13 234.34 693.3 234.29 693.37 234.29 694.03 234.34 694.25 234.48 694.27 234.49 694.49 234.61 694.6 234.68 695.01 234.92 Z"/>
</g></svg>