<svg xmlns="http://www.w3.org/2000/svg" version="1.2" baseProfile="tiny" stroke-linecap="round" stroke-linejoin="round" viewBox="555.15 300.83 49.1 40.92"><g xmlns="http://www.w3.org/2000/svg" id="Itzagaondoa">
<path d="M 557.16 301.24 557.21 301.21 557.53 301.12 557.79 301.05 558.41 300.93 558.73 300.89 559.16 300.84 559.19 300.84 559.45 300.95 559.71 301.06 560.19 301.27 560.89 301.55 561.38 301.73 561.39 301.73 561.45 301.73 561.49 301.7 561.53 301.67 561.57 301.65 561.69 301.57 561.83 301.47 561.89 301.43 562.44 301.7 563.15 302.09 564.21 302.58 564.5 302.33 564.54 302.3 564.55 302.29 564.61 302.28 564.72 302.27 564.73 302.27 564.99 302.25 565.04 302.24 565.1 302.24 565.27 302.48 565.36 302.59 565.38 302.62 565.55 302.77 565.65 302.85 565.73 302.89 565.95 303.08 566.01 303.13 566.07 303.18 566.1 303.21 566.11 303.21 566.19 303.17 566.19 303.16 566.23 303.17 566.6 303.24 566.9 303.31 567.04 303.34 567.11 303.37 567.23 303.42 567.33 303.48 567.49 303.56 567.61 303.63 567.64 303.65 567.82 303.76 567.92 303.82 567.9 303.98 567.9 304.01 567.9 304.09 567.9 304.11 567.9 304.13 567.88 304.47 567.87 304.58 567.85 304.9 567.84 304.93 567.84 304.94 567.91 305.01 568.03 305.13 568.02 305.19 568.02 305.21 568.04 305.23 568.12 305.27 568.13 305.34 568.14 305.45 568.15 305.57 568.17 305.66 568.17 305.76 568.19 305.91 568.2 305.97 568.2 306 568.21 306.06 568.22 306.07 568.25 306.16 568.28 306.22 568.28 306.24 568.29 306.25 568.29 306.27 568.36 306.41 568.44 306.51 568.48 306.56 568.58 306.67 568.65 306.74 568.67 306.76 568.7 306.8 568.76 306.84 568.87 306.9 568.94 306.94 569 306.96 569.1 306.99 569.18 307.01 569.26 307.01 569.32 307.01 569.37 307 569.41 306.99 569.44 306.99 569.47 306.99 569.49 307 569.52 307.01 569.55 307.02 569.6 307.04 569.7 307.11 569.78 307.16 569.89 307.23 570.05 307.32 570.08 307.35 570.1 307.37 570.11 307.39 570.13 307.41 570.14 307.43 570.15 307.45 570.21 307.42 570.23 307.4 570.3 307.35 570.32 307.34 570.34 307.32 570.36 307.3 570.38 307.29 570.4 307.29 570.45 307.26 570.52 307.22 570.6 307.19 570.69 307.16 570.8 307.13 570.88 307.11 570.98 307.08 571.13 307.05 571.34 307 571.7 306.92 571.94 306.87 572.08 306.84 572.1 306.83 572.15 306.76 572.16 306.76 572.18 306.77 572.2 306.77 572.26 306.8 572.28 306.79 572.32 306.78 572.51 306.72 572.59 306.69 572.66 306.67 572.74 306.64 572.84 306.66 572.98 306.7 573.15 306.74 573.25 306.77 573.3 306.78 573.36 306.79 573.4 306.76 573.51 306.69 573.59 306.64 573.64 306.6 573.81 306.49 573.89 306.44 573.91 306.43 573.96 306.41 574.1 306.33 574.2 306.29 574.22 306.3 574.44 306.4 574.56 306.47 574.64 306.5 574.66 306.51 574.72 306.54 574.72 306.57 574.73 306.6 574.77 306.8 574.8 306.93 574.82 307.05 574.86 307.22 574.86 307.23 574.89 307.33 574.91 307.34 575 307.38 575.24 307.48 575.35 307.53 575.38 307.53 575.42 307.53 575.47 307.51 575.52 307.5 575.68 307.47 575.72 307.46 575.74 307.46 575.8 307.45 575.84 307.48 575.85 307.49 575.89 307.53 575.97 307.6 576.02 307.65 576.04 307.67 576.09 307.75 576.17 307.88 576.22 307.94 576.24 307.98 576.27 308.01 576.36 308.08 576.42 308.13 576.49 308.19 576.54 308.24 576.59 308.29 576.62 308.32 576.76 308.46 576.88 308.59 576.98 308.69 577.03 308.74 577.04 308.77 577.05 308.81 577.08 308.86 577.11 308.93 577.13 309 577.17 309.09 577.19 309.17 577.22 309.24 577.26 309.33 577.28 309.41 577.31 309.49 577.32 309.55 577.35 309.55 577.39 309.54 577.44 309.54 577.45 309.54 577.47 309.53 577.49 309.53 577.53 309.52 577.61 309.51 577.7 309.5 577.78 309.49 577.82 309.48 577.9 309.47 577.96 309.46 578 309.45 578.03 309.44 578.06 309.44 578.11 309.42 578.21 309.38 578.28 309.37 578.33 309.35 578.34 309.35 578.44 309.31 579.02 309.09 579.31 308.97 579.39 308.94 579.53 308.92 579.63 308.84 579.78 308.74 579.19 308.31 579.11 308.25 578.95 308.12 578.74 307.96 578.52 307.78 578.26 307.56 578.23 307.53 578.18 307.48 578.15 307.45 578.11 307.42 578.06 307.38 577.98 307.32 577.9 307.27 577.83 307.22 577.76 307.17 577.66 307.1 577.52 307.01 577.46 306.96 577.42 306.93 577.38 306.9 577.39 306.88 577.4 306.85 577.43 306.78 577.47 306.67 577.47 306.65 577.51 306.57 577.53 306.5 577.56 306.43 577.58 306.38 577.6 306.35 577.64 306.37 577.71 306.42 577.8 306.47 577.89 306.53 578 306.59 578.08 306.64 578.16 306.69 578.25 306.74 578.36 306.81 578.69 307.02 579.07 307.25 579.48 307.48 580.12 307.8 580.57 308.01 580.81 308.12 581.06 308.22 581.29 308.32 581.5 308.43 581.73 308.57 581.99 308.72 582.2 308.85 582.4 308.99 582.4 308.99 582.6 309.13 582.77 309.27 583.35 309.79 583.44 311.01 583.27 311.52 583.29 311.54 583.46 311.53 583.76 311.52 583.99 311.51 584.2 311.49 584.31 311.48 584.33 311.48 584.45 311.47 584.48 311.47 584.84 311.49 585.25 311.51 585.31 311.52 585.74 311.67 586.12 312.01 586.69 311.47 586.73 311.44 586.75 311.41 587.29 311.63 587.69 311.79 587.78 311.84 587.88 311.9 588.09 312.02 588.5 312.25 588.71 312.36 588.82 312.41 588.87 312.42 588.96 312.45 589.05 312.48 589.25 312.58 589.61 312.75 590.04 312.97 590.05 312.97 590.07 313 590.12 313.05 590.18 313.11 590.2 313.12 590.28 313.21 590.32 313.25 590.39 313.28 590.53 313.34 590.68 313.41 590.79 313.47 590.94 313.54 591.06 313.6 591.15 313.64 591.27 313.7 591.36 313.74 591.43 313.77 591.55 313.83 591.6 313.85 591.64 313.88 591.68 313.9 591.72 313.93 591.78 313.98 591.84 314.02 591.94 314.09 592.06 314.18 592.22 314.29 592.37 314.4 592.49 314.49 592.62 314.59 592.63 314.6 592.77 314.69 592.84 314.74 592.94 314.81 593.02 314.87 593.11 314.94 593.22 315.02 593.31 315.08 593.34 315.11 593.39 315.14 593.45 315.2 593.51 315.26 593.58 315.33 593.64 315.38 593.69 315.43 593.73 315.45 593.79 315.49 593.85 315.52 593.91 315.55 594.02 315.61 594.08 315.65 594.11 315.68 594.13 315.7 594.17 315.74 594.21 315.78 594.26 315.83 594.29 315.85 594.34 315.88 594.42 315.93 594.49 315.97 594.58 316.03 594.62 316.05 594.65 316.09 594.68 316.14 594.76 316.26 594.83 316.37 594.92 316.51 595 316.62 595.1 316.77 595.13 316.83 595.26 316.91 595.86 317.31 596.27 317.6 596.69 317.91 597.24 318.31 597.79 318.75 598.32 319.17 598.74 319.46 599.01 319.65 599.39 319.95 599.65 320.18 599.72 320.25 599.74 320.27 599.92 320.4 599.93 320.42 599.98 320.56 600.02 320.67 600.41 320.98 600.78 321.27 600.96 321.48 601.13 321.65 601.24 321.75 602.07 322.48 602.5 322.85 602.71 323.09 602.86 323.26 602.97 323.38 603.16 323.58 603.29 323.66 603.37 323.72 603.4 323.79 603.41 323.85 603.42 323.88 603.36 324.11 603.32 324.26 603.15 324.57 602.78 325.26 602.68 325.43 602.68 325.45 602.67 325.47 602.66 325.48 602.56 325.67 602.54 325.69 602.48 325.82 602.44 325.89 602.44 325.97 602.44 326.08 602.48 326.2 602.55 326.36 602.57 326.38 602.79 326.64 603.01 326.9 603.03 326.93 603.07 327.02 603.08 327.08 603.13 327.23 603.16 327.39 603.17 327.44 603.22 327.6 603.29 327.81 603.3 327.84 603.31 327.85 603.44 327.99 603.65 328.21 603.65 328.56 603.65 328.59 603.61 328.71 603.56 328.81 603.66 329 603.84 329.34 603.96 329.57 604.06 329.75 604.09 329.87 604.15 330.08 604.11 330.2 604.19 330.5 604.23 330.68 604.16 330.68 604.14 330.69 604.1 330.65 604.01 330.58 603.92 330.51 603.87 330.47 603.84 330.46 603.83 330.45 603.71 330.4 603.58 330.35 603.57 330.35 603.5 330.32 603.28 330.26 602.96 330.17 602.75 330.11 602.78 330.32 602.79 330.44 602.8 330.46 602.81 330.48 602.88 330.67 602.89 330.7 602.91 330.75 602.93 330.8 602.93 330.82 602.93 330.87 602.92 331.06 602.9 331.13 602.89 331.15 602.79 331.36 602.78 331.4 602.79 331.47 602.8 331.6 602.82 331.94 602.82 332.06 602.82 332.3 602.82 332.44 602.69 332.63 602.66 332.7 602.65 332.74 602.65 332.79 602.66 332.83 602.67 332.87 602.7 332.94 602.74 333.03 602.81 333.2 602.88 333.33 602.98 333.45 603.02 333.5 603.08 333.57 603.1 333.6 603.11 333.73 603.13 333.99 603.13 334.07 603.13 334.08 603.13 334.16 603.13 334.17 603.12 334.19 603.12 334.24 603.12 334.26 603.12 334.28 603.12 334.33 603.11 334.38 603.1 334.57 603.1 334.77 602.99 334.9 602.91 334.99 602.82 335.1 602.74 335.18 602.39 335.5 602.2 335.65 602.14 335.71 602.06 335.81 602 335.87 601.99 335.91 601.98 335.94 601.95 336.04 601.9 336.19 601.88 336.25 601.81 336.48 601.68 336.89 601.62 337.08 601.53 337.35 601.53 337.46 601.52 337.59 601.51 337.77 601.51 337.88 601.5 337.98 601.5 338.01 601.51 338.15 601.51 338.24 601.51 338.25 601.51 338.27 601.51 338.28 601.55 338.48 601.55 338.51 601.57 338.62 601.48 338.61 601.25 338.59 601.19 338.59 601.06 338.58 600.91 338.57 600.87 338.56 600.85 338.56 600.81 338.55 600.75 338.54 600.62 338.49 600.39 338.45 600.25 338.43 600.1 338.39 600 338.36 599.94 338.35 599.83 338.35 599.77 338.37 599.74 338.38 599.65 338.41 599.56 338.43 599.45 338.46 599.42 338.46 599.37 338.47 599.28 338.48 599.16 338.49 599.08 338.5 599.01 338.51 598.91 338.52 598.85 338.52 598.84 338.52 598.82 338.52 598.73 338.52 598.7 338.52 598.67 338.52 598.65 338.52 598.53 338.52 598.28 338.51 598.1 338.49 598.05 338.49 597.88 338.47 597.71 338.45 597.65 338.43 597.57 338.41 597.53 338.39 597.48 338.37 597.41 338.35 597.38 338.41 597.31 338.55 597.28 338.65 597.25 338.76 597.22 338.81 597.16 338.91 597.09 339 597.03 339.07 596.97 339.13 596.84 339.21 596.72 339.29 596.57 339.35 596.36 339.44 596.25 339.48 596.2 339.49 596.13 339.5 596.09 339.49 596 339.47 595.95 339.46 595.89 339.43 595.78 339.38 595.77 339.37 595.68 339.32 595.65 339.31 595.62 339.32 595.58 339.34 595.55 339.33 595.5 339.29 595.47 339.26 595.44 339.24 595.45 339.27 595.45 339.31 595.43 339.34 595.39 339.37 595.34 339.39 595.31 339.4 595.27 339.39 595.23 339.38 595.19 339.39 595.15 339.4 595.12 339.44 595.07 339.48 595.03 339.5 594.98 339.54 594.95 339.59 594.92 339.64 594.88 339.67 594.84 339.69 594.8 339.7 594.75 339.7 594.72 339.69 594.68 339.69 594.65 339.69 594.63 339.71 594.53 339.74 594.44 339.79 594.35 339.79 594.24 339.81 594.08 339.83 594.01 339.84 593.98 339.86 593.96 339.89 593.92 339.95 593.88 339.99 593.83 340.01 593.78 340.02 593.72 340.02 593.69 340.03 593.61 340.07 593.54 340.12 593.48 340.16 593.4 340.21 593.33 340.23 593.27 340.25 593.2 340.27 593.14 340.29 593.06 340.31 593.01 340.36 592.97 340.39 592.93 340.43 592.87 340.46 592.83 340.49 592.76 340.54 592.69 340.59 592.66 340.59 592.63 340.6 592.62 340.63 592.6 340.66 592.56 340.68 592.49 340.71 592.44 340.72 592.43 340.71 592.39 340.67 592.36 340.67 592.32 340.69 592.28 340.72 592.26 340.74 592.23 340.8 592.21 340.82 592.18 340.86 592.15 340.89 592.12 340.91 592.07 340.91 592 340.87 591.96 340.85 591.94 340.87 591.92 340.91 591.89 340.94 591.82 340.96 591.78 340.99 591.75 341.03 591.71 341.07 591.66 341.11 591.62 341.14 591.61 341.17 591.59 341.22 591.57 341.26 591.53 341.29 591.46 341.34 591.45 341.35 591.43 341.36 591.4 341.38 591.4 341.38 591.38 341.39 591.22 341.41 591.08 341.44 591 341.45 590.94 341.5 590.88 341.54 590.81 341.6 590.77 341.63 590.72 341.66 590.6 341.75 590.61 341.54 590.66 341.45 590.67 341.35 590.69 341.27 590.65 341.19 590.6 341.07 590.52 340.87 590.47 340.75 590.46 340.71 590.44 340.67 590.44 340.65 590.42 340.59 590.38 340.47 590.38 340.45 590.27 340.29 590.15 340 590.02 339.65 589.9 339.35 589.83 339.13 589.75 338.93 589.69 338.77 589.69 338.66 589.65 338.48 589.67 338.24 589.71 338.07 589.94 337.96 590.25 337.81 590.43 337.67 590.68 337.5 590.8 337.36 590.83 337.29 590.84 337.19 590.85 337.12 591 336.9 591.06 336.85 591.12 336.77 591.16 336.72 591.17 336.7 591.18 336.69 591.37 336.43 591.47 336.29 591.53 336.18 591.55 336.1 591.5 335.92 591.49 335.79 591.5 335.64 591.53 335.44 591.53 335.38 591.53 335.33 591.52 335.21 591.51 334.84 591.48 334.72 591.42 334.52 591.45 334.41 591.2 334.24 591.08 334.14 590.97 334.07 590.81 333.94 590.73 333.9 590.61 333.84 590.51 333.8 590.32 333.68 590.3 333.66 590.21 333.59 590.13 333.48 590.1 333.38 590.07 333.26 590.01 333.09 589.98 332.96 589.97 332.81 589.97 332.75 589.94 332.62 589.9 332.47 589.88 332.37 589.89 332.26 589.9 332.16 589.91 332.11 589.52 332.03 589.27 331.9 589.15 331.84 589 331.76 588.82 331.66 588.47 331.42 588.31 331.38 588.16 331.35 588.05 331.33 588.02 331.31 587.95 331.25 587.87 331.21 587.7 331.15 587.54 331.08 587.42 331.05 587.22 331.01 587.07 330.96 586.99 330.95 586.82 330.91 586.58 330.86 586.48 330.86 585.84 330.86 585.38 330.86 585.12 330.94 584.9 331.01 584.89 331.01 584.86 331.02 584.85 331.03 584.5 331.13 584.28 331.19 584.04 331.27 583.93 331.28 583.71 331.31 583.57 331.32 583.37 331.5 583.1 331.75 582.85 331.78 582.72 331.78 582.29 331.76 581.85 331.48 581.78 331.08 581.3 330.9 581.19 330.87 580.91 330.84 580.71 330.78 580.25 330.65 580.06 330.72 579.61 330.88 579.46 330.98 579.17 331.17 578.93 331.33 578.82 331.4 578.7 331.37 578.63 331.37 578.31 331.3 578.14 331.27 578.3 331.12 578.58 330.84 578.68 330.76 578.91 330.61 579 329.92 578.66 329.76 578.56 329.76 578.34 329.73 578.04 329.69 577.68 329.64 577.51 329.6 577.26 329.53 576.75 329.4 577.19 329.22 577.27 329.19 577.36 329.15 577.44 329.12 577.49 329.09 577.52 329.03 577.53 329.01 577.55 328.93 577.57 328.88 577.59 328.84 577.61 328.78 577.62 328.75 577.66 328.72 577.69 328.69 577.75 328.62 577.81 328.57 577.88 328.51 577.9 328.48 577.93 328.41 577.96 328.36 577.99 328.3 578.04 328.21 578.09 328.13 578.13 328.05 578.17 327.97 578.16 327.95 578.09 327.86 578.02 327.77 577.98 327.72 577.94 327.66 577.89 327.61 577.84 327.54 577.78 327.45 577.72 327.38 577.68 327.33 577.62 327.32 577.58 327.31 577.52 327.29 577.47 327.28 577.39 327.26 577.33 327.25 577.26 327.23 577.21 327.22 577.14 327.2 577.07 327.19 576.99 327.17 576.92 327.15 576.84 327.13 576.77 327.11 576.71 327.1 576.63 327.08 576.57 327.06 576.5 327.05 576.41 327.03 576.36 327.01 576.31 326.98 576.27 326.96 576.2 326.92 576.14 326.88 576.06 326.83 576.02 326.81 575.93 326.76 575.9 326.74 575.83 326.73 575.76 326.71 575.68 326.7 575.57 326.68 575.46 326.66 575.38 326.65 575.35 326.63 575.29 326.54 575.25 326.49 575.19 326.41 575.16 326.35 575.1 326.28 575.06 326.21 575.03 326.19 575 326.16 574.97 326.14 574.91 326.08 574.87 326.05 574.81 326 574.75 325.95 574.68 325.89 574.64 325.86 574.55 325.79 574.52 325.77 574.48 325.7 574.46 325.65 574.42 325.59 574.39 325.53 574.35 325.47 574.32 325.41 574.27 325.32 574.22 325.22 574.2 325.19 574.08 324.91 573.96 324.62 573.75 324.44 573.6 324.3 573.48 324.2 573.42 324.15 573.37 324.1 573.32 324.05 573.26 324.01 573.21 323.95 573.17 323.92 573.12 323.86 573.08 323.82 573.05 323.78 573.01 323.74 572.96 323.69 572.92 323.65 572.88 323.6 572.85 323.57 572.83 323.54 572.79 323.5 572.75 323.46 572.68 323.39 572.66 323.36 572.65 323.32 572.63 323.28 572.61 323.21 572.59 323.16 572.57 323.1 572.56 323.06 572.54 322.98 572.52 322.92 572.5 322.87 572.49 322.84 572.48 322.79 572.45 322.73 572.44 322.69 572.42 322.6 572.4 322.54 572.37 322.46 572.36 322.4 572.32 322.3 572.31 322.27 572.3 322.24 572.27 322.17 572.25 322.13 572.21 322.05 572.19 322 572.16 321.94 572.13 321.89 572.1 321.83 572.08 321.79 572.07 321.77 572.04 321.74 572.03 321.71 572 321.69 571.96 321.64 571.94 321.62 571.93 321.61 571.92 321.6 571.87 321.55 571.84 321.51 571.83 321.5 571.56 321.22 571.54 321.21 571.51 321.19 571.51 321.18 571.29 321.04 571.24 321.01 571.18 320.97 571.03 320.88 570.95 320.83 570.95 320.83 570.88 320.79 570.79 320.72 570.72 320.64 570.65 320.56 570.6 320.52 570.46 320.41 570.43 320.39 570.37 320.34 570.28 320.26 570.23 320.21 570.19 320.17 570.16 320.13 570.13 320.07 570.08 319.96 570.04 319.87 570.01 319.78 570.11 319.84 570.14 319.81 570.64 319.29 571.17 318.73 571.17 318.63 571.2 318.58 571.4 318.32 571.41 318.07 571.42 317.95 571.43 317.68 571.43 317.63 571.43 317.59 571.44 317.5 571.46 317.41 571.48 317.26 571.59 317.24 571.69 317.06 571.8 316.86 571.82 316.81 571.86 316.67 571.88 316.57 571.89 316.53 571.89 316.47 571.88 316.42 571.88 316.34 571.85 316.1 571.86 316.07 571.93 315.93 572.02 315.77 572.02 315.76 572.05 315.71 572.1 315.65 572.15 315.56 572.16 315.55 572.17 315.53 572.17 315.52 572.19 315.46 572.22 315.38 572.23 315.35 572.35 315.02 572.38 314.93 572.39 314.9 572.4 314.87 572.41 314.83 572.44 314.76 572.46 314.71 572.47 314.67 572.48 314.66 572.52 314.56 572.55 314.49 572.58 314.42 572.59 314.4 572.61 314.33 572.62 314.26 572.64 314.18 572.66 314.13 572.66 314.1 572.67 314.04 572.71 313.97 572.72 313.94 572.76 313.86 572.76 313.83 572.77 313.79 572.78 313.76 572.77 313.75 572.79 313.75 572.86 313.7 572.87 313.69 572.91 313.62 572.95 313.55 573.02 313.46 573.05 313.42 573.1 313.36 573.16 313.29 573.2 313.25 573.22 313.24 573.28 313.19 573.33 313.15 573.36 313.13 573.45 313.06 573.51 312.96 573.54 312.92 573.55 312.92 573.55 312.9 573.56 312.89 573.58 312.84 573.59 312.8 573.61 312.76 573.63 312.7 573.67 312.6 573.68 312.56 573.68 312.54 573.7 312.51 573.71 312.49 573.72 312.47 573.75 312.42 573.78 312.38 573.81 312.32 573.83 312.29 573.87 312.23 573.92 312.13 573.98 312.03 574.04 311.94 574.08 311.87 574.1 311.83 574.07 311.8 574.03 311.75 573.93 311.65 573.8 311.51 573.7 311.4 573.62 311.33 573.6 311.3 573.58 311.26 573.54 311.2 573.5 311.12 573.43 311.01 573.37 310.91 573.35 310.88 573.31 310.83 573.28 310.79 573.22 310.72 573.15 310.63 573.09 310.56 573.07 310.53 572.99 310.4 572.92 310.29 572.87 310.22 572.83 310.15 572.8 310.11 572.68 310.12 572.6 310.13 572.47 310.13 572.39 310.14 572.37 310.14 572.33 310.14 572.25 310.13 572.16 310.12 572.13 310.11 572.06 310.08 571.94 310.02 571.8 309.95 571.72 309.91 571.68 309.89 571.6 309.83 571.53 309.79 571.43 309.72 571.4 309.7 571.23 309.58 571.08 309.47 571.03 309.44 570.94 309.38 570.88 309.33 570.88 309.3 570.87 309.25 570.87 309.18 570.86 309.01 570.83 308.97 570.72 308.84 570.56 308.67 570.5 308.59 570.47 308.56 570.4 308.49 570.28 308.35 570.17 308.22 570.08 308.12 570.05 308.08 570.01 308.03 570.01 308.02 570.01 307.99 570 307.96 569.99 307.94 569.82 307.88 569.81 307.87 569.67 308.05 569.65 308.05 569.63 308.05 569.47 308.07 569.31 308.19 569.21 308.26 569.02 308.58 569 308.61 568.92 308.8 568.91 308.82 568.86 308.94 568.62 309.06 568.45 309.15 568.34 309.2 568.31 309.21 568.16 309.4 568.13 309.44 568.12 309.66 568.12 309.67 568.12 309.83 568.11 309.85 568.11 309.92 568.1 309.97 568 310.19 567.99 310.22 567.8 310.67 567.75 310.78 567.74 310.81 567.63 311.07 567.63 311.09 567.43 311.1 567.39 311.1 567.24 311.11 567.18 311.11 567.02 311.12 566.99 311.12 566.91 311.11 566.81 311.09 566.76 311.09 566.62 311.07 566.43 311.04 566.32 311.01 566.25 311 566.16 310.99 566.15 310.99 566.15 310.99 566.14 310.99 566.13 310.97 566.08 310.94 566.06 310.93 566 310.9 565.95 310.88 565.91 310.88 565.83 310.89 565.75 310.9 565.67 310.91 565.6 310.91 565.52 310.91 565.47 310.91 565.46 310.91 565.41 310.9 565.4 310.9 565.34 310.88 565.3 310.88 565.28 310.88 565.24 310.88 565.14 310.87 565.09 310.86 565.04 310.84 565 310.83 564.95 310.81 564.88 310.78 564.81 310.76 564.72 310.74 564.62 310.71 564.54 310.7 564.48 310.69 564.44 310.69 564.39 310.69 564.34 310.69 564.31 310.68 564.25 310.65 564.11 310.59 563.96 310.53 563.84 310.49 563.81 310.45 563.78 310.43 563.73 310.37 563.66 310.36 563.57 310.35 563.49 310.33 563.4 310.3 563.34 310.28 563.32 310.28 563.27 310.26 563.26 310.25 563.22 310.23 563.18 310.2 563.15 310.18 563.14 310.17 563.1 310.16 563.07 310.16 563.06 310.16 563.02 310.15 562.99 310.15 562.96 310.15 562.93 310.14 562.9 310.15 562.87 310.15 562.83 310.15 562.78 310.16 562.69 310.17 562.64 310.16 562.58 310.16 562.55 310.16 562.49 310.16 562.47 310.15 562.37 310.09 562.36 310.08 562.23 310 562.21 310 562.15 310.01 562.04 310.02 562.03 310.02 561.97 310.02 561.89 310.01 561.81 309.99 561.61 309.93 561.54 309.91 561.44 309.88 561.39 309.87 561.34 309.85 561.33 309.85 561.27 309.83 561.17 309.8 561.08 309.78 561.08 309.75 561.09 309.7 561.1 309.6 561.09 309.58 561.08 309.52 561.07 309.47 561.06 309.46 561.06 309.44 561.05 309.41 561.04 309.38 561.02 309.34 561 309.28 560.97 309.23 560.95 309.15 560.9 309.01 560.87 308.91 560.84 308.91 560.81 308.91 560.76 308.91 560.72 308.91 560.69 308.91 560.67 308.91 560.65 308.9 560.61 308.91 560.57 308.91 560.55 308.9 560.54 308.9 560.5 308.91 560.48 308.91 560.46 308.91 560.44 308.91 560.43 308.92 560.41 308.92 560.38 308.93 560.36 308.93 560.33 308.93 560.28 308.93 560.14 308.93 560.1 308.92 560.08 308.93 560.05 308.93 560.01 308.93 559.98 308.93 559.95 308.93 559.92 308.94 559.88 308.95 559.84 308.95 559.82 308.96 559.8 308.96 559.76 308.97 559.74 308.97 559.72 308.98 559.69 308.98 559.67 308.99 559.62 308.98 559.58 308.98 559.57 308.98 559.54 308.98 559.49 308.99 559.48 308.99 559.45 308.99 559.4 309 559.38 308.99 559.36 308.99 559.32 308.99 559.3 309 559.28 309 559.26 309.01 559.24 309.01 559.21 309.02 559.18 309.01 559.14 309 559.11 309 559.06 308.99 558.97 308.99 558.87 309 558.79 309 558.69 309.01 558.66 309.01 558.63 309.01 558.59 309.01 558.52 309.01 558.5 309.01 558.47 309.01 558.43 309 558.4 308.99 558.36 308.98 558.34 308.98 558.32 308.97 558.29 308.97 558.26 308.96 558.25 308.95 558.23 308.95 558.21 308.94 558.2 308.94 558.17 308.93 558.16 308.93 558.13 308.92 558.12 308.92 558.09 308.91 558.08 308.91 558.03 308.9 557.98 308.88 557.93 308.87 557.83 308.85 557.8 308.84 557.77 308.84 557.7 308.82 557.66 308.81 557.63 308.81 557.59 308.8 557.57 308.79 557.52 308.78 557.49 308.78 557.48 308.77 557.4 308.74 557.34 308.7 557.28 308.65 557.19 308.58 557.1 308.49 557.04 308.41 556.97 308.32 556.93 308.26 556.89 308.19 556.88 308.16 556.87 308.15 556.85 308.12 556.83 308.08 556.8 308.05 556.79 308.03 556.78 308.02 556.74 307.99 556.72 307.97 556.7 307.96 556.67 307.93 556.66 307.92 556.56 307.87 556.5 307.87 556.39 307.86 556.38 307.86 556.31 307.86 556.27 307.86 556.24 307.85 556.23 307.85 556.07 307.84 555.89 307.83 555.81 307.82 555.74 307.81 555.61 307.79 555.38 307.75 555.19 307.71 555.18 307.59 555.18 307.47 555.18 307.3 555.18 307.1 555.18 306.91 555.18 306.71 555.17 306.52 555.17 306.49 555.17 306.28 555.16 306.01 555.15 305.83 555.18 305.74 555.22 305.66 555.28 305.51 555.33 305.36 555.35 305.25 555.62 304.62 555.63 304.6 555.65 304.58 555.64 304.56 555.63 304.22 555.59 303.99 555.44 303.85 555.51 303.79 555.53 303.78 555.85 303.57 556.4 303.19 556.29 302.91 556.23 302.76 556.59 302.03 556.58 301.88 556.57 301.67 556.75 301.55 556.76 301.54 556.79 301.52 556.98 301.4 557.07 301.32 557.08 301.3 557.16 301.24 Z"/>
</g></svg>