<svg xmlns="http://www.w3.org/2000/svg" version="1.2" baseProfile="tiny" stroke-linecap="round" stroke-linejoin="round" viewBox="465.75 238.78 30.53 45.6"><g xmlns="http://www.w3.org/2000/svg" id="Itza">
<path d="M 470.16 245.63 470.16 245.62 470.09 245.56 470.01 245.49 469.93 245.42 469.87 245.36 469.83 245.31 469.76 245.22 469.71 245.13 469.61 244.98 469.5 244.82 469.43 244.69 469.42 244.65 469.32 244.37 469.26 244.29 468.75 243.71 468.91 243.51 469.04 243.35 469.19 243.17 469.38 242.95 469.51 242.79 469.58 242.71 469.69 242.58 469.77 242.48 469.82 242.41 469.89 242.33 469.98 242.23 470.06 242.13 470.1 242.08 470.13 242.04 470.17 241.99 470.18 241.98 470.19 241.97 470.19 241.96 470.2 241.96 470.22 241.96 470.25 241.96 470.3 241.96 470.37 241.95 470.48 241.95 470.55 241.94 470.64 241.94 470.69 241.95 470.74 241.95 470.8 241.96 470.87 241.98 470.94 241.99 471.02 242 471.12 242.02 471.21 242.04 471.33 242.07 471.4 242.09 471.48 242.1 471.55 242.12 471.68 242.16 471.81 242.19 471.96 242.24 472.13 242.28 472.14 242.29 472.16 242.29 472.17 242.29 472.21 242.28 472.29 242.27 472.33 242.26 472.45 242.23 472.48 242.23 472.65 242.2 472.75 242.17 472.78 242.17 472.8 242.16 472.81 242.16 472.83 242.17 472.84 242.17 472.87 242.22 472.93 242.31 473.02 242.41 473.12 242.53 473.27 242.69 473.38 242.82 473.87 243.35 474.02 243.32 474.51 243.39 474.74 243.52 475.18 243.77 476.42 243.52 476.5 243.51 476.57 243.5 476.65 243.49 476.73 243.48 476.87 243.46 476.95 243.45 477 243.44 477.06 243.43 477.1 243.43 477.16 243.43 477.21 243.42 477.28 243.41 477.36 243.41 477.42 243.41 477.48 243.41 477.54 243.42 477.58 243.36 477.63 243.29 477.7 243.2 477.76 243.11 477.8 243.05 477.8 243.04 477.84 242.98 477.87 242.94 477.92 242.88 477.94 242.86 477.98 242.82 478.05 242.74 478.1 242.69 478.14 242.64 478.2 242.58 478.24 242.53 478.3 242.48 478.37 242.4 478.41 242.36 478.46 242.32 478.51 242.26 478.55 242.22 478.58 242.19 478.62 242.15 478.67 242.08 478.71 242.03 478.75 241.98 478.78 241.95 478.82 241.91 478.85 241.86 478.87 241.84 478.88 241.82 478.94 241.74 478.97 241.71 478.99 241.68 479 241.67 479.02 241.64 479.04 241.61 479.06 241.56 479.09 241.52 479.1 241.49 479.12 241.46 479.13 241.43 479.15 241.39 479.15 241.36 479.16 241.34 479.18 241.32 479.18 241.31 479.19 241.3 479.19 241.3 479.21 241.28 479.22 241.27 479.24 241.25 479.31 241.2 479.37 241.15 479.43 241.1 479.49 241.06 479.54 241.02 479.6 240.97 479.66 240.91 479.73 240.86 479.79 240.81 479.84 240.77 479.9 240.72 479.96 240.67 480.1 240.56 480.17 240.51 480.22 240.47 480.23 240.46 480.29 240.42 480.36 240.38 480.42 240.34 480.49 240.3 480.55 240.26 480.6 240.23 480.65 240.2 480.7 240.16 480.75 240.13 480.78 240.11 480.82 240.09 480.89 240.04 480.93 240.01 480.97 239.98 480.98 239.97 481 239.94 481.05 239.89 481.1 239.82 481.15 239.77 481.2 239.7 481.25 239.65 481.28 239.61 481.29 239.6 481.3 239.58 481.32 239.55 481.36 239.48 481.39 239.42 481.43 239.35 481.47 239.28 481.51 239.21 481.56 239.13 481.6 239.05 481.64 238.97 481.68 238.89 481.73 238.79 481.74 238.8 481.76 238.81 481.78 238.81 481.85 238.84 481.93 238.87 481.97 238.88 481.99 238.89 482.01 238.9 482.06 238.92 482.1 238.95 482.15 238.96 482.21 238.98 482.3 239.02 482.35 239.04 482.38 239.05 482.45 239.08 482.51 239.1 482.52 239.11 482.59 239.13 482.69 239.17 482.81 239.22 482.92 239.27 483.02 239.29 483.05 239.31 483.09 239.33 483.18 239.36 483.22 239.38 483.24 239.39 483.35 239.43 483.37 239.43 483.53 239.49 483.63 239.53 483.51 239.73 483.36 239.97 483.37 240 483.39 240.03 483.41 240.07 483.44 240.12 483.47 240.16 483.53 240.24 483.57 240.31 483.6 240.36 483.69 240.48 483.73 240.53 483.82 240.65 483.93 240.8 484.04 240.96 484.15 241.09 484.22 241.19 484.25 241.24 484.32 241.38 484.41 241.55 484.52 241.77 484.6 241.93 484.63 242 484.67 242.09 484.71 242.17 484.74 242.27 484.79 242.37 484.82 242.46 484.85 242.54 484.89 242.66 484.92 242.74 484.94 242.82 484.98 242.94 485 243 485.02 243.05 485.03 243.09 485.04 243.13 485.05 243.18 485.07 243.26 485.07 243.26 485.07 243.3 485.07 243.3 485.08 243.31 485.09 243.4 485.1 243.46 485.12 243.59 485.13 243.66 485.16 243.86 485.16 243.91 485.16 243.96 485.15 244.07 485.13 244.22 485.11 244.31 485.11 244.35 485.1 244.46 485.1 244.51 485.12 244.94 485.15 245.38 485.16 245.6 485.17 245.68 485.17 245.75 485.17 245.8 485.16 245.93 485.16 245.97 485.26 245.94 485.34 245.91 485.42 245.89 485.62 245.83 485.69 245.81 485.74 245.8 485.81 245.78 485.85 245.76 485.91 245.75 485.95 245.74 486 245.73 486.06 245.73 486.12 245.72 486.16 245.72 486.21 245.72 486.28 245.73 486.34 245.73 486.42 245.74 486.55 245.77 486.62 245.79 486.68 245.81 486.74 245.84 486.8 245.86 486.86 245.89 486.91 245.91 486.94 245.93 486.94 245.98 486.95 246.06 486.95 246.18 486.96 246.42 486.97 246.55 486.97 246.67 486.97 246.76 486.97 246.85 486.98 246.95 486.98 247.08 486.99 247.17 486.99 247.24 486.99 247.33 487 247.45 487 247.55 487 247.6 487 247.73 487.01 247.79 487.01 247.81 487.01 247.85 487.01 247.95 487.02 248.08 486.98 248.2 486.94 248.33 486.87 248.52 486.79 248.74 486.74 248.88 486.69 249.05 486.66 249.13 486.66 249.19 486.66 249.28 486.65 249.38 486.64 249.49 486.63 249.56 486.63 249.63 486.63 249.69 486.62 249.74 486.62 249.8 486.62 249.84 486.62 249.89 486.61 249.96 486.61 249.98 486.61 250.02 486.61 250.11 486.6 250.14 486.63 250.22 486.67 250.33 486.7 250.43 486.74 250.55 486.78 250.67 486.82 250.81 486.86 250.93 486.91 251.07 486.95 251.18 487 251.33 487.05 251.49 487.09 251.61 487.12 251.68 487.13 251.7 487.13 251.72 487.18 251.84 487.21 251.94 487.24 251.98 487.22 252.04 487.19 252.16 487.17 252.26 487.14 252.36 487.12 252.48 487.1 252.56 487.08 252.62 487.07 252.67 487.05 252.74 487.03 252.85 487 252.96 486.97 253.08 486.94 253.17 486.92 253.29 486.9 253.37 486.88 253.45 486.86 253.52 486.85 253.58 486.83 253.63 486.82 253.7 486.79 253.81 486.76 253.92 486.75 254 486.74 254.02 486.73 254.08 486.73 254.16 486.74 254.27 486.76 254.36 486.76 254.41 486.77 254.45 486.77 254.51 486.8 254.56 486.85 254.63 486.9 254.72 486.92 254.74 486.94 254.78 486.98 254.85 487.03 254.93 487.04 254.94 487.05 254.96 487.15 255.12 487.23 255.25 487.3 255.37 487.32 255.39 487.34 255.44 487.37 255.48 487.43 255.57 487.46 255.62 487.36 255.61 487.18 255.59 486.78 255.53 486.4 255.48 486.32 255.64 486.31 255.68 485.77 256.8 485.72 256.9 485.7 256.94 485.94 257.18 486.09 257.34 486.2 257.45 486.08 257.65 486.05 257.69 486.03 257.73 486 257.78 485.97 257.84 485.93 257.9 485.88 257.99 485.84 258.05 485.8 258.13 485.76 258.19 485.72 258.25 485.69 258.31 485.76 258.32 485.86 258.32 485.96 258.33 486.07 258.35 486.2 258.36 486.28 258.37 486.36 258.37 486.44 258.38 486.51 258.39 486.58 258.4 486.63 258.4 486.67 258.4 486.73 258.41 486.84 258.42 486.92 258.43 486.99 258.43 487.07 258.44 487.14 258.45 487.2 258.45 487.25 258.46 487.28 258.46 487.35 258.45 487.42 258.44 487.49 258.43 487.61 258.41 487.7 258.4 487.8 258.39 487.93 258.37 488.03 258.36 488.1 258.35 488.13 258.35 488.21 258.39 488.32 258.46 488.41 258.52 488.5 258.57 488.56 258.61 488.63 258.65 488.72 258.71 488.83 258.77 488.96 258.85 489.06 258.91 489.19 258.98 489.28 259.04 489.37 259.09 489.49 259.16 489.55 259.2 489.62 259.29 489.7 259.37 489.77 259.44 489.84 259.52 489.9 259.59 489.96 259.65 490.06 259.76 490.04 259.83 490.01 259.97 489.97 260.12 489.94 260.27 489.9 260.42 489.87 260.53 489.85 260.65 489.82 260.77 489.8 260.85 489.78 260.94 489.76 261.02 489.74 261.1 489.58 261.05 489.52 261.03 489.48 261.01 489.37 260.98 489.24 260.94 489.22 260.93 489.15 260.91 488.95 260.85 488.74 260.78 488.49 260.71 488.27 260.65 488.25 260.65 488.01 260.59 487.82 260.53 487.62 260.48 487.43 260.43 487.23 260.37 487.03 260.3 486.8 260.24 486.58 260.18 486.59 260.21 486.6 260.25 486.61 260.29 486.67 260.4 486.71 260.52 486.75 260.66 486.8 260.8 486.86 260.94 486.92 261.1 486.97 261.26 487.01 261.37 487.02 261.39 487.02 261.4 487.03 261.42 487.05 261.43 487.12 261.54 487.17 261.58 487.21 261.6 487.26 261.64 487.33 261.7 487.41 261.77 487.47 261.82 487.54 261.88 487.64 261.96 487.89 262.16 488.07 262.31 488.23 262.42 488.33 262.51 488.41 262.6 488.49 262.68 488.6 262.78 488.72 262.87 488.83 262.95 488.91 263.01 488.99 263.06 489.09 263.11 489.21 263.17 489.34 263.24 489.42 263.28 489.45 263.29 489.47 263.29 489.48 263.29 489.56 263.3 489.57 263.3 489.68 263.32 489.81 263.34 490 263.37 490.23 263.4 490.34 263.42 490.42 263.44 490.54 263.48 490.65 263.52 490.81 263.58 490.96 263.62 491.13 263.68 491.2 263.71 491.25 263.72 491.35 263.71 491.45 263.72 491.57 263.72 491.71 263.72 491.86 263.72 491.91 263.72 491.94 263.72 492 263.72 492.05 263.73 492.07 263.73 492.08 263.73 492.07 263.76 492.05 263.78 492.04 263.82 492.03 263.86 492.01 263.91 492 263.97 491.99 264.04 491.98 264.1 491.98 264.14 491.98 264.17 491.98 264.2 491.98 264.24 491.98 264.28 491.98 264.32 491.98 264.37 491.98 264.41 491.97 264.44 491.95 264.49 491.94 264.55 491.92 264.6 491.91 264.63 491.9 264.67 491.9 264.71 491.9 264.73 491.91 264.74 491.92 264.77 491.93 264.79 491.95 264.83 491.95 264.85 491.94 264.9 491.93 264.94 491.91 264.97 491.9 265.01 491.91 265.03 491.91 265.05 491.93 265.07 491.96 265.1 491.99 265.13 492.01 265.17 492.03 265.2 492.03 265.23 492.02 265.25 492.01 265.27 491.99 265.31 491.98 265.33 491.99 265.35 492 265.36 492.03 265.37 492.05 265.38 492.08 265.39 492.1 265.41 492.11 265.44 492.11 265.47 492.11 265.5 492.11 265.55 492.1 265.59 492.09 265.63 492.08 265.65 492.08 265.68 492.08 265.71 492.08 265.74 492.08 265.78 492.08 265.81 492.08 265.83 492.09 265.85 492.11 265.88 492.13 265.9 492.13 265.91 492.14 265.93 492.13 265.95 492.12 265.99 492.12 266.05 492.11 266.11 492.1 266.15 492.09 266.16 492.08 266.17 492.06 266.19 492.02 266.2 492.01 266.21 492.01 266.22 492 266.24 492.02 266.25 492.05 266.28 492.06 266.3 492.06 266.33 492.05 266.35 492.04 266.36 492.02 266.39 492 266.42 492 266.44 492.01 266.46 492.02 266.49 492.04 266.53 492.05 266.56 492.06 266.59 492.06 266.6 492.06 266.62 492.06 266.66 492.05 266.7 492.04 266.75 492.03 266.78 492.01 266.82 492 266.84 492.11 266.89 492.2 266.94 492.26 266.97 492.37 267.02 492.41 267.04 492.4 267.05 492.36 267.1 492.27 267.21 492.2 267.3 492.19 267.3 492.1 267.43 492.23 268.26 492.18 268.33 492.15 268.37 492 268.71 491.82 269.06 491.6 269.41 491.46 269.6 491.45 269.61 491.32 269.79 491.3 269.93 491.29 270 491.29 270.01 491.27 270.11 491.29 270.29 491.28 270.4 491.27 270.53 491.26 270.64 491.25 270.68 491.23 270.73 491.2 270.76 491.18 270.78 491.17 270.79 491.16 270.81 491.06 270.91 490.94 271.04 490.82 271.17 490.73 271.26 490.62 271.4 490.52 271.51 490.52 271.52 490.5 271.54 490.49 271.55 490.46 271.6 490.43 271.66 490.41 271.71 490.39 271.74 490.36 271.8 490.33 271.88 490.32 271.89 490.3 271.93 490.3 271.94 490.28 271.98 490.26 272.02 490.28 272.09 490.3 272.17 490.31 272.2 490.32 272.25 490.35 272.34 490.35 272.35 490.37 272.39 490.39 272.49 490.41 272.55 490.45 272.67 490.46 272.71 490.47 272.73 490.52 272.83 490.55 272.89 490.6 272.99 490.63 273.06 490.69 273.17 490.72 273.24 490.76 273.33 490.79 273.39 490.84 273.47 490.88 273.56 490.91 273.63 490.93 273.65 490.95 273.73 490.95 273.74 490.95 273.79 490.95 273.83 490.95 273.89 490.96 273.94 490.97 274 490.99 274.09 491.02 274.17 491.03 274.23 491.04 274.27 491.05 274.28 491.06 274.33 491.09 274.41 491.12 274.46 491.15 274.51 491.16 274.54 491.19 274.57 491.2 274.61 491.23 274.65 491.25 274.69 491.27 274.73 491.29 274.78 491.31 274.84 491.34 274.91 491.36 274.97 491.38 275.06 491.41 275.15 491.42 275.22 491.44 275.29 491.45 275.35 491.47 275.45 491.49 275.52 491.5 275.57 491.53 275.65 491.55 275.73 491.57 275.78 491.59 275.87 491.62 275.97 491.65 276.06 491.67 276.1 491.75 276.12 491.8 276.12 491.81 276.13 491.83 276.13 491.85 276.13 491.89 276.14 491.96 276.16 492.03 276.17 492.16 276.19 492.25 276.21 492.39 276.23 492.45 276.24 492.48 276.25 492.52 276.25 492.58 276.27 492.64 276.29 492.66 276.29 492.77 276.33 492.87 276.37 492.89 276.37 492.98 276.4 493.02 276.43 493.09 276.48 493.16 276.54 493.24 276.6 493.26 276.61 493.31 276.65 493.42 276.74 493.47 276.78 493.49 276.79 493.53 276.82 493.58 276.86 493.64 276.91 493.7 276.95 493.75 276.99 493.81 277.02 493.82 277.02 493.92 277.07 493.97 277.1 494.04 277.13 494.09 277.16 494.15 277.19 494.21 277.21 494.25 277.23 494.27 277.24 494.33 277.26 494.42 277.29 494.41 277.3 494.4 277.32 494.42 277.4 494.43 277.49 494.45 277.59 494.47 277.68 494.49 277.78 494.51 277.86 494.5 277.92 494.49 277.99 494.49 278.01 494.49 278.03 494.48 278.08 494.47 278.13 494.47 278.14 494.47 278.16 494.45 278.25 494.5 278.28 494.54 278.32 494.61 278.37 494.64 278.39 494.73 278.46 494.79 278.5 494.87 278.56 494.91 278.59 494.92 278.6 494.93 278.61 494.95 278.64 494.98 278.71 495.01 278.78 495.05 278.86 495.07 278.91 495.09 278.95 495.05 278.98 495 279.03 494.91 279.12 494.85 279.18 494.79 279.25 494.73 279.3 494.75 279.32 494.77 279.34 494.8 279.37 494.86 279.43 494.89 279.47 494.91 279.49 494.93 279.53 494.97 279.59 495.01 279.66 495.05 279.74 495.08 279.79 495.1 279.84 495.13 279.91 495.19 280.04 495.21 280.09 495.24 280.16 495.27 280.23 495.29 280.28 495.3 280.29 495.32 280.34 495.36 280.45 495.39 280.52 495.41 280.57 495.44 280.64 495.47 280.71 495.5 280.77 495.52 280.8 495.55 280.88 495.6 280.97 495.65 281.07 495.68 281.15 495.72 281.22 495.77 281.31 495.83 281.41 495.87 281.47 495.91 281.53 495.95 281.59 496 281.65 496.06 281.72 496.12 281.79 496.16 281.84 496.19 281.88 496.23 281.93 496.27 281.96 496.27 282 496.26 282.07 496.26 282.16 496.24 282.38 496.23 282.57 496.22 282.65 496.22 282.67 496.22 282.69 496.19 282.74 496.12 282.88 496.11 282.9 496.09 282.93 496.03 283.04 496.01 283.08 496 283.09 495.99 283.11 495.95 283.17 495.8 283.36 495.79 283.38 495.78 283.39 495.77 283.4 495.69 283.54 495.59 283.69 495.52 283.8 495.49 283.83 495.31 283.73 495.25 283.71 495.12 283.64 494.98 283.57 494.85 283.49 494.84 283.46 494.84 283.43 494.84 283.41 494.85 283.38 494.85 283.3 494.89 283.23 494.93 283.11 494.97 283 495 282.92 495.04 282.85 495.07 282.8 495.05 282.78 494.87 282.52 494.83 282.47 494.65 282.21 494.61 282.15 494.59 282.12 494.56 282.07 494.52 282.01 494.44 282.06 494.33 282.13 494.32 282.14 494.26 282.17 494.32 282.31 494.41 282.56 494.44 282.63 494.47 282.72 494.48 282.76 494.56 282.97 494.55 282.98 494.46 283.04 494.27 283.15 494.46 283.39 494.47 283.41 494.48 283.42 494.48 283.43 494.48 283.45 494.47 283.47 494.46 283.53 494.46 283.6 494.47 283.71 494.47 283.8 494.48 283.86 494.47 283.91 494.47 283.96 494.46 284.02 494.43 284.13 494.42 284.22 494.42 284.26 494.42 284.3 494.43 284.33 494.44 284.36 494.46 284.38 494.45 284.38 494.44 284.38 494.42 284.38 494.38 284.37 494.08 284.3 493.87 284.27 493.82 284.27 493.64 284.3 493.46 284.31 493.29 284.34 493.24 284.32 493.16 284.31 492.95 284.3 492.86 284.3 492.77 284.26 492.64 284.22 492.46 284.17 492.24 284.12 492.09 284.08 492.02 284.07 491.94 284.06 491.92 284.05 491.92 284.03 491.92 284.01 491.91 284.01 491.79 283.94 491.69 283.89 491.65 283.87 491.56 283.83 491.47 283.78 491.26 283.7 491.03 283.59 490.8 283.48 490.76 283.46 490.54 283.35 490.52 283.35 490.51 283.34 490.5 283.33 490.48 283.29 490.48 283.22 490.48 283.2 490.48 283.19 490.48 283.15 490.47 283.1 490.46 283.06 490.46 283.04 490.45 283.01 490.45 282.97 490.44 282.95 490.42 282.89 490.4 282.84 490.39 282.79 490.38 282.76 490.35 282.7 490.33 282.64 490.3 282.56 490.26 282.49 490.24 282.43 490.24 282.41 490.22 282.34 490.21 282.29 490.2 282.2 490.19 282.13 490.17 282.07 490.16 282 490.15 281.94 490.11 281.78 490.09 281.68 490.07 281.57 490.05 281.46 490.03 281.36 490.02 281.34 490.02 281.33 490.02 281.32 490 281.25 489.99 281.2 489.99 281.18 489.98 281.17 489.96 281.05 489.95 280.99 489.95 280.97 489.86 281.01 489.8 281.05 489.77 281.06 489.76 281 489.75 280.93 489.72 280.93 489.67 280.94 489.66 280.87 489.65 280.83 489.63 280.84 489.55 280.87 489.46 280.91 489.44 280.91 489.43 280.91 489.41 280.92 489.35 280.93 489.26 280.94 489.2 280.96 489.16 280.96 489.14 280.97 489.08 280.98 488.98 281.01 488.87 281.04 488.8 281.06 488.76 281.08 488.69 281.11 488.56 281.18 488.48 281.21 488.35 281.26 488.3 281.28 488.25 281.29 488.23 281.28 488.18 281.22 488.11 281.13 488.05 281.08 487.99 281 487.92 280.93 487.85 280.85 487.8 280.8 487.75 280.75 487.71 280.69 487.68 280.66 487.63 280.6 487.55 280.52 487.53 280.49 487.49 280.45 487.44 280.44 487.41 280.43 487.4 280.43 487.25 280.4 487.17 280.39 487.14 280.38 487.12 280.38 487.11 280.38 487.09 280.37 487.06 280.29 487.03 280.23 487.01 280.19 486.99 280.14 486.98 280.11 486.95 280.03 486.9 279.92 486.87 279.84 486.83 279.74 486.83 279.72 486.81 279.68 486.78 279.64 486.74 279.57 486.67 279.48 486.63 279.41 486.57 279.32 486.53 279.26 486.5 279.21 486.47 279.17 486.42 279.15 486.37 279.13 486.33 279.11 486.31 279.1 486.31 279.1 486.25 279.08 486.17 279.04 486.04 278.99 485.95 278.96 485.9 278.94 485.82 278.91 485.74 278.88 485.69 278.86 485.61 278.83 485.56 278.81 485.55 278.8 485.51 278.79 485.46 278.77 485.38 278.74 485.36 278.73 485.35 278.73 485.34 278.72 485.32 278.72 485.36 278.68 485.39 278.65 485.42 278.61 485.45 278.58 485.48 278.55 485.51 278.52 485.53 278.49 485.56 278.47 485.6 278.45 485.62 278.43 485.64 278.41 485.68 278.38 485.73 278.35 485.76 278.33 485.8 278.3 485.83 278.28 485.85 278.27 485.88 278.26 485.85 278.25 485.83 278.25 485.81 278.24 485.79 278.24 485.77 278.24 485.74 278.23 485.73 278.22 485.72 278.21 485.72 278.18 485.72 278.15 485.7 278.14 485.68 278.13 485.65 278.13 485.62 278.13 485.6 278.13 485.58 278.12 485.55 278.1 485.53 278.08 485.52 278.07 485.5 278.06 485.48 278.06 485.45 278.05 485.42 278.04 485.39 278.03 485.34 278 485.33 277.99 485.32 277.98 485.26 277.94 485.22 277.91 485.16 277.87 485.09 277.81 485.02 277.77 485 277.75 484.92 277.68 484.86 277.63 484.78 277.56 484.75 277.53 484.7 277.49 484.63 277.44 484.61 277.42 484.58 277.4 484.44 277.31 484.28 277.21 484.23 277.18 484.1 277.1 484.05 277.07 484.03 277.06 483.93 276.99 483.8 276.91 483.79 276.9 483.79 276.89 483.78 276.83 483.78 276.75 483.77 276.67 483.76 276.58 483.75 276.52 483.74 276.44 483.71 276.36 483.69 276.3 483.67 276.25 483.65 276.2 483.62 276.13 483.59 276.08 483.57 276.04 483.56 276.02 483.5 275.94 483.44 275.87 483.39 275.8 483.36 275.76 483.32 275.72 483.26 275.64 483.13 275.5 483.04 275.41 482.99 275.34 482.94 275.3 482.93 275.28 482.89 275.24 482.86 275.21 482.78 275.15 482.69 275.09 482.62 275.04 482.55 274.99 482.5 274.97 482.44 274.92 482.37 274.87 482.32 274.82 482.28 274.78 482.23 274.74 482.18 274.7 482.13 274.65 482.09 274.62 482.05 274.59 482.01 274.56 481.98 274.53 481.94 274.5 481.85 274.42 481.8 274.36 481.78 274.32 481.77 274.29 481.74 274.24 481.73 274.21 481.72 274.2 481.68 274.14 481.67 274.12 481.64 274.07 481.6 274.04 481.56 274.01 481.48 273.93 481.41 273.86 481.32 273.78 481.32 273.77 481.25 273.7 481.2 273.65 481.18 273.62 481.17 273.62 481.1 273.56 481 273.47 480.96 273.44 480.85 273.36 480.78 273.32 480.71 273.26 480.63 273.17 480.56 273.09 480.48 273.01 480.43 272.93 480.42 272.92 480.3 272.81 480.25 272.78 480.15 272.75 480.14 272.74 480.09 272.73 480.08 272.73 480.05 272.71 480 272.7 479.87 272.65 479.76 272.61 479.69 272.59 479.6 272.56 479.59 272.55 479.5 272.52 479.47 272.51 479.41 272.49 479.33 272.47 479.29 272.44 479.24 272.41 479.2 272.39 479.18 272.35 479.17 272.34 479.14 272.3 479.06 272.19 479.01 272.22 478.88 272.29 478.79 272.34 478.67 272.4 478.58 272.43 478.45 272.47 478.32 272.51 478.25 272.53 478.25 272.54 478.23 272.59 478.19 272.66 478.13 272.77 478.1 272.81 478.06 272.89 478.02 272.96 478.02 272.97 478.01 272.99 477.98 273.06 477.94 273.13 477.89 273.21 477.85 273.29 477.81 273.36 477.77 273.4 477.73 273.46 477.68 273.53 477.64 273.58 477.61 273.61 477.56 273.66 477.52 273.71 477.44 273.78 477.39 273.83 477.33 273.88 477.27 273.94 477.22 273.99 477.16 274.07 477.11 274.12 477.07 274.16 477.04 274.18 477 274.21 476.96 274.24 476.93 274.27 476.88 274.31 476.85 274.33 476.81 274.36 476.77 274.39 476.73 274.42 476.68 274.46 476.62 274.5 476.59 274.52 476.54 274.56 476.48 274.6 476.42 274.65 476.36 274.69 476.32 274.72 476.29 274.74 476.23 274.79 476.17 274.83 476.14 274.85 476.13 274.86 476.09 274.89 476.04 274.93 475.99 274.96 475.93 275 475.87 275.05 475.81 275.08 475.79 275.09 475.74 275.11 475.65 275.16 475.58 275.19 475.51 275.23 475.42 275.27 475.32 275.31 475.28 275.33 475.25 275.34 475.22 275.38 475.21 275.4 475.16 275.46 475.13 275.49 475.09 275.54 475.04 275.6 475 275.64 474.94 275.71 474.89 275.77 474.85 275.83 474.82 275.87 474.81 275.87 474.79 275.9 474.74 275.96 474.73 275.96 474.68 276.03 474.66 276.05 474.63 276.08 474.58 276.15 474.58 276.15 474.57 276.16 474.55 276.18 474.5 276.22 474.45 276.05 474.44 276.02 474.43 276 474.42 275.98 474.34 275.56 474.29 275.33 474.25 275.16 474.23 275.1 474.19 275.02 474.16 274.89 474.15 274.85 474.14 274.83 474.1 274.77 474.08 274.76 474.04 274.7 474.02 274.68 473.99 274.58 473.93 274.56 473.9 274.55 473.89 274.55 473.84 274.53 473.75 274.48 473.63 274.41 473.62 274.4 473.28 274.14 473.26 274.13 473.12 274.05 473.05 274.01 472.95 273.95 472.86 273.9 472.82 273.88 472.79 273.87 472.78 273.87 472.71 273.83 472.65 273.77 472.62 273.74 472.6 273.71 472.55 273.62 472.48 273.53 472.46 273.5 472.43 273.43 472.4 273.34 472.39 273.31 472.36 273.24 472.24 273.27 472.18 273.28 472.14 273.29 471.94 273.34 471.81 273.36 471.64 273.4 471.62 273.4 471.63 273.64 471.61 273.65 471.6 273.65 471.39 273.67 471.34 273.68 471.33 273.68 471.3 273.69 471.31 273.4 471.29 273.28 471.3 273.21 471.33 273.07 471.4 272.9 471.45 272.81 471.49 272.72 471.53 272.63 471.57 272.54 471.61 272.45 471.64 272.3 471.5 272.26 471.48 272.26 471.4 272.23 471.12 272.17 470.78 272.08 470.68 272.05 470.64 272.04 470.62 272.04 470.67 271.91 470.68 271.88 470.72 271.76 470.75 271.66 470.75 271.64 470.78 271.51 470.59 271.38 470.58 270.63 469.97 270.75 469.71 270.83 469.65 270.84 469.59 270.85 469.58 270.77 469.56 270.72 469.54 270.67 469.53 270.63 469.52 270.59 469.51 270.54 469.51 270.49 469.52 270.46 469.53 270.42 469.55 270.39 469.58 270.37 469.63 270.33 469.7 270.26 469.95 270.08 470.02 270.01 469.98 269.96 469.98 269.95 469.96 269.94 469.95 269.92 469.92 269.88 469.84 269.8 469.78 269.74 469.77 269.72 469.76 269.7 469.76 269.68 469.76 269.67 469.76 269.65 469.77 269.62 469.78 269.62 469.78 269.6 469.8 269.57 469.84 269.48 469.92 269.32 469.9 269.31 469.86 269.29 469.69 269.26 469.51 269.19 469.38 269.12 469.31 269.11 469.25 269.1 469.22 269.11 469.14 269.11 469.1 269.11 469.07 269.11 469.02 269.13 468.95 269.16 468.87 269.18 468.86 269.19 468.83 269.18 468.8 269.18 468.73 269.16 468.66 269.16 468.6 269.15 468.54 269.14 468.49 269.15 468.42 269.15 468.36 269.16 468.29 269.17 468.22 269.19 468.14 269.22 468.05 269.23 467.97 269.25 467.9 269.26 467.85 269.26 467.77 269.27 467.7 269.27 467.65 269.27 467.56 269.26 467.42 269.22 467.28 269.17 467.16 269.13 467.1 269.09 467.09 269.08 467.05 269.06 467.03 269.05 467.02 269.05 467 269.03 466.91 268.98 466.96 268.94 467 268.9 467.04 268.86 467.1 268.79 467.17 268.7 467.21 268.68 467.25 268.66 467.29 268.64 467.36 268.57 467.63 268.29 467.67 268.25 467.69 268.22 467.72 268.18 467.74 268.13 467.74 268.07 467.74 268.03 467.73 267.97 467.73 267.91 467.71 267.86 467.71 267.8 467.69 267.74 467.67 267.68 467.65 267.63 467.64 267.59 467.64 267.55 467.64 267.52 467.66 267.46 467.65 267.42 467.64 267.4 467.61 267.37 467.59 267.33 467.57 267.28 467.55 267.23 467.52 267.12 467.48 267.07 467.45 267.04 467.42 267.02 467.4 267.02 467.3 267.01 467.17 266.99 467.07 266.98 466.96 266.97 466.88 266.97 466.82 266.96 466.78 266.95 466.73 266.92 466.65 266.88 466.55 266.81 466.51 266.77 466.43 266.7 466.38 266.66 466.35 266.64 466.3 266.62 466.22 266.57 466.18 266.54 466.16 266.51 466.14 266.48 466.13 266.45 466.1 266.39 466.05 266.21 466.03 266.12 466 266.02 466 265.99 465.98 265.94 465.96 265.88 465.94 265.77 465.93 265.64 465.91 265.53 465.9 265.4 465.88 265.31 465.86 265.25 465.84 265.19 465.79 265.07 465.76 265 465.76 264.94 465.76 264.88 465.78 264.8 465.83 264.7 465.86 264.64 465.89 264.59 465.94 264.54 466.02 264.48 466.08 264.43 466.12 264.38 466.18 264.36 466.25 264.34 466.37 264.32 466.51 264.29 466.62 264.28 466.73 264.27 466.79 264.26 466.81 264.24 466.85 264.22 466.91 264.15 466.98 264.05 467.02 263.97 467.05 263.93 467.08 263.91 467.11 263.87 467.13 263.82 467.14 263.77 467.15 263.7 467.14 263.61 467.13 263.59 467.09 263.55 467.05 263.47 466.99 263.36 466.91 263.24 466.86 263.15 466.79 263.1 466.72 263.05 466.64 263.01 466.54 263 466.48 262.99 466.37 262.95 466.26 262.89 466.22 262.87 466.17 262.8 466.12 262.71 466.09 262.63 466.07 262.55 466.06 262.49 466.06 262.43 466.07 262.36 466.08 262.3 466.09 262.23 466.11 262.17 466.14 262.11 466.29 261.85 466.34 261.78 466.36 261.78 466.39 261.78 466.4 261.78 466.43 261.78 466.44 261.78 466.45 261.78 466.49 261.78 466.53 261.78 466.58 261.78 466.61 261.78 466.9 261.81 467.05 261.82 467.08 261.82 467.16 261.83 467.28 261.85 467.35 261.85 467.4 261.86 467.45 261.87 467.5 261.89 467.71 261.95 467.88 262 467.95 262.02 468.08 262.04 468.43 262.08 468.75 262.11 468.8 262.12 468.99 262.14 469.29 262.17 469.43 262.19 469.55 262.2 469.61 262.21 469.66 262.21 469.76 262.21 469.85 262.22 469.96 262.24 470.05 262.26 470.16 262.27 470.21 262.28 470.28 262.29 470.42 262.32 470.6 262.35 470.73 262.38 470.85 262.4 470.94 262.42 471.04 262.44 471.15 262.45 471.27 262.47 471.42 262.5 471.52 262.51 471.72 262.53 471.98 262.57 472.12 262.58 472.29 262.59 472.38 262.6 472.51 262.6 472.62 262.61 472.75 262.62 472.91 262.62 473.05 262.62 473.12 262.61 473.23 262.61 473.35 262.61 473.43 262.6 473.53 262.6 473.6 262.59 473.59 262.56 473.59 262.5 473.59 262.44 473.61 262.36 473.62 262.3 473.64 262.25 473.67 262.18 473.71 262.12 473.76 262.05 473.85 261.93 473.96 261.79 474.09 261.65 474.14 261.58 474.15 261.57 474.19 261.51 474.26 261.43 474.27 261.42 474.34 261.34 474.5 261.12 474.59 261.02 474.68 260.93 474.73 260.86 474.74 260.86 474.8 260.77 474.83 260.72 474.86 260.67 474.87 260.65 474.87 260.64 474.9 260.58 474.95 260.45 475.02 260.32 475.07 260.22 475.09 260.18 475.12 260.12 475.14 260.07 475.24 260.04 475.43 259.97 475.63 259.89 475.52 259.7 475.45 259.57 475.42 259.49 475.39 259.4 475.35 259.26 475.3 259.09 475.28 259.06 475.19 258.87 475.11 258.67 475.04 258.49 475 258.27 474.96 258.12 474.94 257.99 474.91 257.87 474.88 257.78 474.81 257.58 474.7 257.21 474.56 256.78 474.5 256.6 474.45 256.46 474.42 256.37 474.4 256.3 474.37 256.21 474.36 256.19 474.36 256.16 474.35 256.14 474.35 256.12 474.32 256.12 474.29 256.11 474.28 256.11 474.2 256.1 474.03 256.01 473.94 255.93 473.94 255.92 473.9 255.9 473.87 255.87 473.85 255.86 473.81 255.84 473.79 255.83 473.74 255.81 473.66 255.77 473.63 255.77 473.59 255.76 473.41 255.76 473.28 255.75 473.2 255.74 473 255.68 472.83 255.64 472.56 255.55 472.26 255.45 471.96 255.33 471.79 255.26 471.42 255.12 471.41 255.11 471.4 255.11 471.4 255.11 471.31 255.08 471.04 254.89 470.55 254.56 470.29 254.4 470.11 254.28 470.12 254.14 470.13 253.99 470.15 253.82 470.17 253.56 470.27 253.47 470.44 253.32 470.45 253.31 470.47 253.3 470.55 253.22 470.64 253.14 470.71 253.08 470.82 252.98 470.85 252.96 470.95 252.9 471.09 252.79 471.29 252.65 471.44 252.55 471.55 252.47 471.6 252.43 471.61 252.41 471.66 252.37 471.67 252.35 471.74 252.27 471.74 252.26 471.76 252.24 471.77 252.22 471.82 252.17 471.84 252.15 471.87 252.11 471.89 252.08 471.89 252.07 471.92 252 471.98 251.89 472.03 251.76 472.09 251.59 472.14 251.45 472.15 251.42 472.22 251.15 472.23 251.11 472.24 251.08 472.34 250.69 472.48 250.21 472.63 249.69 472.67 249.59 472.73 249.49 472.78 249.39 472.86 249.25 472.89 249.21 472.96 249.08 473.03 248.97 473.04 248.96 473.09 248.87 473.24 248.68 473.33 248.57 473.39 248.48 473.45 248.4 473.53 248.29 473.41 248.26 473.29 248.24 473.24 248.23 473.14 248.21 473.06 248.19 472.99 248.16 472.89 248.12 472.81 248.08 472.74 248.04 472.68 248 472.64 247.97 472.63 247.96 472.59 247.92 472.53 247.85 472.47 247.78 472.46 247.78 472.39 247.7 472.31 247.62 472.23 247.52 472.1 247.39 472.01 247.29 471.91 247.16 471.84 247.08 471.82 247.05 471.8 247.01 471.78 246.96 471.75 246.89 471.73 246.84 471.73 246.82 471.72 246.81 471.69 246.75 471.65 246.7 471.59 246.63 471.54 246.58 471.53 246.58 471.52 246.56 471.45 246.53 471.4 246.51 471.22 246.43 471.14 246.38 471.08 246.35 471.01 246.3 470.93 246.24 470.81 246.13 470.66 246.02 470.51 245.9 470.33 245.76 470.16 245.63 Z"/>
</g></svg>