<svg xmlns="http://www.w3.org/2000/svg" version="1.2" baseProfile="tiny" stroke-linecap="round" stroke-linejoin="round" viewBox="626 135.17 11.68 14.8"><g xmlns="http://www.w3.org/2000/svg" id="Izpura">
<path d="M 626.7 137.61 626.74 137.62 626.84 137.66 626.94 137.7 627.07 137.73 627.15 137.72 627.16 137.71 627.3 137.64 627.47 137.53 627.6 137.45 627.71 137.4 627.8 137.35 628.15 137.12 628.3 137.02 628.35 136.98 628.41 136.9 628.45 136.82 628.46 136.79 628.53 136.74 628.64 136.69 628.76 136.67 628.87 136.66 629.05 136.66 629.12 136.64 629.18 136.61 629.26 136.57 629.36 136.53 629.52 136.5 629.74 136.47 629.81 136.47 629.86 136.47 629.99 136.47 630.09 136.47 630.12 136.47 630.14 136.45 630.15 136.43 630.19 136.24 630.23 136.12 630.24 136.1 630.26 136.03 630.28 136 630.4 135.9 630.51 135.86 630.61 135.78 630.75 135.74 630.89 135.68 630.92 135.66 631.01 135.6 631.14 135.48 631.28 135.32 631.37 135.21 631.41 135.17 631.47 135.21 631.6 135.28 631.81 135.35 631.84 135.37 631.92 135.42 632.08 135.57 632.33 135.82 632.5 136.01 632.63 136.12 632.67 136.14 632.43 136.25 632.13 136.2 632.04 136.74 632.04 136.79 631.96 137.06 631.95 137.27 632 137.44 632.22 137.83 632.27 137.85 632.47 137.59 632.57 137.63 632.72 137.92 632.86 138.11 632.87 138.1 632.88 138.1 632.9 138.12 633.02 138.2 633.1 138.27 633.19 138.35 633.22 138.37 633.23 138.37 633.59 138.57 633.53 138.82 633.28 138.74 633.26 138.79 633.25 138.83 633.23 138.87 633.18 138.91 633.17 138.91 633.16 138.92 633.14 138.92 633.11 138.92 633.02 138.89 632.73 138.66 632.64 138.66 632.42 138.82 632.62 139.01 632.61 139.05 632.62 139.09 632.63 139.14 632.63 139.19 632.76 139.28 632.95 139.48 632.71 139.63 632.77 139.69 632.79 139.71 632.81 139.75 632.83 139.8 632.84 139.84 632.83 139.89 632.84 139.96 632.85 139.99 632.89 140.09 632.9 140.14 632.92 140.17 633.03 140.27 633.12 140.36 633.13 140.37 633.16 140.51 633.77 140.24 634.39 140.17 634.44 140.48 634.63 140.86 634.45 141.12 634.32 141.23 634.36 141.3 634.81 141.48 635.07 141.68 635.25 141.93 635.28 141.95 635.4 141.82 635.52 141.79 635.61 141.82 635.72 141.88 635.39 142.2 635.36 142.27 635.49 142.44 635.76 142.83 636.14 143.33 636.41 143.86 636.6 144.18 636.67 144.39 636.67 144.88 636.66 145.04 636.67 145.3 636.73 145.32 636.77 145.4 636.75 145.58 636.79 145.7 636.92 145.8 637.22 145.83 637.46 146.32 637.44 146.34 637.43 146.36 637.4 146.38 637.34 146.42 637.29 146.45 637.27 146.47 637.25 146.51 637.23 146.55 637.22 146.6 637.2 146.64 637.21 146.65 637.22 146.66 637.23 146.67 637.23 146.68 637.25 146.79 637.29 147.02 637.31 147.15 637.32 147.13 637.34 147.15 637.35 147.17 637.39 147.3 637.43 147.42 637.46 147.5 637.46 147.53 637.47 147.57 637.48 147.6 637.48 147.64 637.48 147.68 637.48 147.72 637.5 147.79 637.52 147.86 637.54 147.9 637.56 147.92 637.58 147.93 637.59 147.94 637.65 147.95 637.61 148 637.57 148.04 637.51 148.1 637.42 148.19 637.32 148.28 637.25 148.34 637.19 148.41 637.11 148.46 637 148.53 636.88 148.59 636.7 148.68 636.57 148.75 636.39 148.83 636.24 148.9 636.11 148.96 636.08 148.98 635.49 148.97 635.4 148.97 635.3 149.35 635.15 149.78 635.04 149.89 634.61 149.94 634.61 149.92 634.63 149.85 634.67 149.78 634.71 149.69 634.72 149.64 634.73 149.62 634.74 149.54 634.73 149.43 634.72 149.33 634.7 149.26 634.65 149.21 634.58 149.17 634.5 149.16 634.39 149.15 634.25 149.15 634.13 149.16 634 149.17 633.89 149.19 633.85 149.19 633.82 149.19 633.79 149.17 633.73 149.13 633.67 149.09 633.63 149.08 633.62 149.08 633.55 149.09 633.5 149.09 633.45 149.09 633.34 149.08 633.25 149.06 633.17 149.04 633.08 149.01 633 149 632.84 148.99 632.58 148.96 632.49 148.95 632.44 148.94 632.38 148.93 632.3 148.9 632.22 148.87 632.13 148.81 632.05 148.76 632.01 148.73 631.96 148.67 631.91 148.61 631.81 148.45 631.78 148.4 631.75 148.33 631.71 148.27 631.69 148.23 631.66 148.19 631.59 148.16 631.55 148.14 631.51 148.14 631.42 148.16 631.31 148.19 631.24 148.22 631.15 148.26 631.09 148.29 631.02 148.31 630.97 148.32 630.92 148.32 630.87 148.32 630.81 148.32 630.8 148.32 630.71 148.31 630.6 148.31 630.49 148.31 630.44 148.31 630.41 148.31 630.35 148.32 630.29 148.33 630.25 148.34 630.2 148.35 630.18 148.36 630.15 148.37 630.12 148.37 630.07 148.38 630.04 148.38 629.98 148.38 629.97 148.38 629.89 148.37 629.85 148.36 629.81 148.34 629.73 148.3 629.67 148.26 629.62 148.22 629.59 148.17 629.55 148.13 629.52 148.08 629.48 148.06 629.42 148.03 629.31 147.97 629.28 147.96 629.24 147.93 629.18 147.88 629.1 147.8 629.01 147.71 628.93 147.63 628.85 147.57 628.77 147.5 628.71 147.45 628.68 147.44 628.59 147.39 628.54 147.35 628.5 147.31 628.46 147.27 628.44 147.23 628.42 147.18 628.42 147.12 628.37 146.85 628.35 146.76 628.32 146.67 628.29 146.59 628.26 146.53 628.21 146.44 628.12 146.32 628 146.18 627.78 145.96 627.66 145.88 627.55 145.82 627.43 145.77 627.28 145.71 627.01 145.62 627.01 145.62 626.98 145.61 626.9 145.58 626.8 145.55 626.73 145.52 626.64 145.49 626.56 145.45 626.44 145.38 626.36 145.34 626.28 145.29 626.2 145.24 626.14 145.2 626.11 145.17 626.1 145.14 626.08 145.1 626.08 145.04 626.08 144.98 626.08 144.96 626.1 144.86 626.1 144.81 626.1 144.76 626.1 144.71 626.09 144.66 626.06 144.6 626.02 144.52 626.01 144.47 626.01 144.4 626.01 144.3 626.01 144.24 626.03 144.16 626.05 144.09 626.07 144.03 626.11 143.96 626.14 143.91 626.19 143.85 626.22 143.81 626.23 143.79 626.29 143.72 626.34 143.65 626.37 143.6 626.41 143.53 626.44 143.48 626.45 143.45 626.47 143.42 626.48 143.38 626.5 143.35 626.5 143.31 626.52 143.24 626.51 143.14 626.51 143.1 626.51 143.04 626.51 142.98 626.51 142.9 626.52 142.82 626.53 142.75 626.54 142.71 626.55 142.65 626.56 142.61 626.58 142.53 626.59 142.5 626.62 142.45 626.64 142.41 626.68 142.38 626.76 142.33 626.8 142.32 626.88 142.27 627.01 142.22 627.07 142.21 627.14 142.19 627.21 142.18 627.22 142.18 627.31 142.18 627.41 142.18 627.52 142.19 627.7 142.2 627.75 142.19 627.8 142.17 627.83 142.15 627.86 142.12 627.92 141.92 627.95 141.83 627.99 141.75 628.03 141.65 628.06 141.5 628.07 141.43 628.07 141.35 628.06 141.22 628.04 141.13 628.01 141.02 627.97 140.86 627.91 140.73 627.85 140.57 627.79 140.38 627.79 140.36 627.73 140.17 627.71 140.07 627.69 139.96 627.64 139.86 627.59 139.75 627.52 139.62 627.47 139.53 627.4 139.44 627.35 139.39 627.3 139.35 627.23 139.31 627.2 139.29 627.18 139.29 627.16 139.28 626.98 139.22 626.87 139.16 626.81 139.12 626.79 139.09 626.78 139.07 626.77 139.03 626.77 138.98 626.8 138.86 626.89 138.61 626.89 138.55 626.89 138.54 626.85 138.49 626.77 138.39 626.71 138.25 626.66 138.08 626.65 137.97 626.65 137.86 626.67 137.71 626.7 137.61 Z"/>
</g></svg>