<svg xmlns="http://www.w3.org/2000/svg" version="1.2" baseProfile="tiny" stroke-linecap="round" stroke-linejoin="round" viewBox="631.72 62.48 18.03 15.68"><g xmlns="http://www.w3.org/2000/svg" id="Isturitze">
<path d="M 649.72 68.91 648.94 69.67 648.27 70.3 647.59 70.94 647.03 71.45 646.88 71.59 646.52 71.93 646.16 72.25 645.53 72.87 645.48 72.91 645.1 73.29 644.98 73.47 644.81 74.04 644.76 74.15 644.6 74.27 644.55 74.38 644.56 74.53 644.5 74.56 644.45 74.58 644.38 74.6 644.31 74.61 644.27 74.62 644.21 74.63 644.17 74.63 644.12 74.64 644.06 74.66 643.99 74.67 643.93 74.68 643.89 74.67 643.89 74.66 643.88 74.42 643.88 74.3 643.88 74.25 643.86 74.2 643.84 74.12 643.4 74.22 642.87 74.51 642.8 74.53 642.73 74.57 642.67 74.59 642.6 74.6 642.53 74.61 642.49 74.62 642.45 74.64 642.42 74.67 642.4 74.68 641.88 74.99 641.76 74.93 641.67 74.89 641.56 74.84 641.46 74.82 641.4 74.81 641.34 74.8 641.29 74.8 641.17 74.8 641.12 74.8 641.08 74.8 641.05 74.8 641.02 74.8 641 74.79 640.94 74.74 640.91 74.76 640.9 74.77 640.87 74.79 640.82 74.84 640.81 74.86 640.79 74.88 640.77 74.92 640.76 74.96 640.75 74.99 640.74 75.02 640.74 75.03 640.73 75.05 640.71 75.07 640.68 75.09 640.65 75.1 640.62 75.11 640.56 75.12 640.51 75.11 640.46 75.1 640.43 75.09 640.41 75.08 640.38 75.07 640.36 75.06 640.19 75 640.2 75.01 640.21 75.02 640.22 75.03 640.23 75.03 640.28 75.06 640.29 75.07 640.29 75.08 640.29 75.09 640.29 75.11 640.26 75.24 640.21 75.35 640.2 75.37 640.38 75.53 640.44 75.61 640.42 75.73 640.12 75.77 639.86 75.88 639.78 76.01 639.77 76.16 639.82 76.32 639.82 76.41 639.57 76.55 639.32 76.79 638.92 77.57 638.77 77.74 638.7 77.8 638.58 77.78 638.45 77.76 638.25 77.64 637.93 77.36 637.6 77.12 637.58 77.12 637.57 77.11 637.56 77.1 637.56 77.08 637.54 77.01 637.51 76.96 637.48 76.92 637.47 76.89 637.47 76.87 637.47 76.85 637.3 76.84 637.19 76.97 637.09 77.03 636.7 77.35 636.55 77.2 636.35 77.14 636.1 76.97 635.94 76.92 635.72 76.83 635.61 76.82 635.4 76.84 634.86 76.85 634.81 76.87 634.75 77.3 634.76 77.58 634.71 77.58 634.18 77.3 633.8 77.13 633.66 77.05 633.48 76.98 633.44 77.07 633.38 77.14 633.31 77.24 633.18 77.36 633.06 77.49 632.97 77.61 632.96 77.64 632.92 77.72 632.85 77.8 632.33 78 632.04 78.16 632.03 77.79 632.06 77.18 632.06 76.55 632.05 75.92 632.02 75.25 631.95 75.06 631.86 74.64 632.2 74.61 631.8 74.48 631.74 73.82 632.09 73.49 631.73 73.18 632 72.82 632.34 73.13 632.36 73.08 632.38 73.03 632.41 72.99 632.42 72.97 632.42 72.94 632.61 72.88 632.35 72.39 632.28 71.87 632.34 71.81 632.36 71.79 632.39 71.76 632.42 71.72 632.47 71.62 632.52 71.56 632.59 71.48 632.69 71.41 632.7 71.4 632.72 71.38 632.73 71.35 632.76 71.27 632.82 71.1 632.83 71.07 632.83 71.05 632.84 71.03 632.85 71.02 632.87 71.02 632.88 71.02 632.91 71.03 632.94 71.04 632.97 71.04 633.02 71.04 633.08 71.03 633.13 71.02 633.23 71.02 633.31 71.02 633.34 71.01 633.41 70.99 633.48 70.96 633.56 70.94 633.63 70.93 633.65 70.92 633.66 70.91 633.69 70.9 633.71 70.89 633.74 70.41 634.05 70.01 634.02 69.98 633.99 69.95 634.02 69.93 634.05 69.89 634.11 69.81 634.17 69.73 634.21 69.7 634.23 69.68 634.25 69.66 634.25 69.65 634.25 69.65 634.25 69.64 634.25 69.61 634.24 69.58 634.21 69.5 634.17 69.42 634.15 69.38 634.13 69.31 634.12 69.28 634.12 69.27 634.26 68.73 634.25 68.7 634.22 68.67 634.19 68.65 634.15 68.63 634.13 68.61 634.1 68.58 634.08 68.55 634.07 68.54 634.06 68.52 634.05 68.5 634.05 68.48 634.05 68.44 634.06 68.41 634.06 68.39 634.06 68.36 634.06 68.34 634.08 68.28 634.12 68.25 634.2 68.19 634.32 68.12 634.4 68.08 634.44 68.06 634.47 68.05 634.48 68.05 634.51 68.05 634.55 68.06 634.66 68.07 634.67 68.07 634.7 68.07 634.79 67.66 634.85 67.39 635.06 67.33 635.42 66.72 635.36 66.47 635.37 66.45 635.47 66.28 635.58 66.11 635.64 66.01 635.67 66 635.71 65.98 635.73 65.97 635.96 65.85 636.02 65.82 636.16 65.74 636.19 65.72 636.28 65.68 636.31 65.66 636.48 65.57 636.67 65.47 636.78 65.41 636.8 65.4 637.33 65.12 637.78 64.71 637.85 64.64 638 64.5 638.04 64.46 638.08 64.43 638.11 64.38 638.14 64.32 638.17 64.26 638.21 64.21 638.26 64.13 638.29 64.09 638.31 64.06 638.36 64 638.41 63.95 638.45 63.9 638.5 63.86 638.53 63.83 638.55 63.82 638.57 63.82 638.58 63.82 638.6 63.81 638.62 63.8 638.69 63.76 638.76 63.69 638.81 63.64 638.83 63.62 638.86 63.6 638.87 63.59 638.98 63.55 639.07 63.51 639.08 63.51 639.23 63.46 639.41 63.39 639.55 63.34 639.59 63.32 639.76 63.26 639.88 63.21 639.93 63.19 640.53 63.1 640.71 63.1 640.96 62.91 641.01 62.89 641.09 62.89 641.19 62.87 641.27 62.86 641.34 62.85 641.42 62.84 641.46 62.84 641.51 62.82 641.56 62.8 641.6 62.79 641.63 62.78 641.69 62.77 641.79 62.77 641.85 62.77 641.94 62.79 641.99 62.8 642.04 62.81 642.13 62.83 642.22 62.83 642.27 62.82 642.45 62.8 643.11 62.74 643.37 62.71 643.46 62.7 643.95 62.65 643.99 62.65 644.04 62.64 644.07 62.63 644.11 62.62 644.14 62.6 644.17 62.58 644.2 62.57 644.21 62.55 644.23 62.54 644.24 62.54 644.26 62.53 644.28 62.53 644.32 62.53 644.34 62.54 644.37 62.54 644.43 62.57 644.49 62.62 644.52 62.65 644.5 62.7 644.52 62.72 644.57 62.72 644.62 62.71 644.66 62.71 644.69 62.71 644.72 62.71 644.74 62.71 644.77 62.7 644.79 62.69 644.83 62.56 644.86 62.57 644.88 62.57 644.91 62.57 644.93 62.56 644.94 62.55 644.95 62.54 644.96 62.52 644.96 62.52 644.97 62.51 644.98 62.5 645 62.5 645.02 62.5 645.03 62.5 645.04 62.5 645.05 62.51 645.05 62.53 645.06 62.53 645.08 62.58 645.1 62.61 645.11 62.6 645.13 62.58 645.14 62.56 645.16 62.54 645.17 62.52 645.19 62.49 645.21 62.5 645.24 62.51 645.25 62.53 645.27 62.58 645.28 62.57 645.29 62.57 645.3 62.57 645.31 62.56 645.33 62.56 645.34 62.55 645.35 62.55 645.35 62.54 645.36 62.54 645.5 62.73 645.56 62.82 645.81 63.17 645.86 63.24 646.02 63.46 646.11 63.58 646.15 63.64 646.21 63.73 646.26 63.8 646.32 63.88 646.6 64.28 646.72 64.44 646.93 64.74 647.05 64.91 647.16 65.06 647.42 65.42 647.94 66.18 647.98 66.23 648.04 66.31 648.1 66.4 648.16 66.48 648.21 66.56 648.26 66.65 648.32 66.72 648.33 66.75 648.33 66.78 648.33 66.8 648.78 67.47 649.23 68.14 649.68 68.81 649.72 68.91 Z"/>
</g></svg>