<svg xmlns="http://www.w3.org/2000/svg" version="1.2" baseProfile="tiny" stroke-linecap="round" stroke-linejoin="round" viewBox="218.45 155.68 15.9 11.33"><g xmlns="http://www.w3.org/2000/svg" id="Izurtza">
<path d="M 218.48 159.77 218.75 159.63 220.64 160.02 222.11 160.32 223.97 160.71 225.25 160.35 226.11 160.35 226.43 160.38 227.1 160.41 228.25 160.3 228.53 158.5 228.88 157.91 229.39 157.37 229.93 157.04 230.24 156.47 230.45 156.25 230.64 156.05 230.69 156.03 230.93 155.91 231.85 155.7 231.93 156.65 231.78 157.13 232.29 157.77 232.15 158.06 232.16 158.17 232.17 158.23 232.2 158.27 232.24 158.3 232.39 158.38 232.58 158.48 232.94 158.54 233.52 158.71 233.73 158.92 233.03 159.45 232.99 159.5 232.96 159.54 232.94 159.57 232.93 159.59 232.91 159.64 232.84 159.89 232.81 160 232.77 160.07 232.75 160.1 232.66 160.16 232.52 160.21 234.34 161.56 234.07 162.54 234.04 162.63 233.97 162.86 233.92 163.03 233.87 163.19 233.8 163.42 233.79 163.44 233.74 163.49 233.71 163.51 233.67 163.54 233.65 163.56 233.64 163.58 233.64 163.6 233.65 163.67 233.65 163.7 233.64 163.72 233.61 163.76 233.58 163.8 233.56 163.83 233.55 163.84 233.55 163.87 233.56 163.9 233.57 163.94 233.58 164.05 233.59 164.14 233.6 164.24 233.62 164.35 233.63 164.46 233.63 164.53 233.63 164.56 233.62 164.59 233.61 164.62 233.56 164.73 233.48 164.9 233.38 165.09 233.31 165.24 233.3 165.26 233.22 165.42 233.2 165.48 233.19 165.5 233.16 165.58 233.13 165.65 233.11 165.69 233.1 165.72 233.08 165.79 233.06 165.88 233.04 166.01 233.02 166.22 233.02 166.24 233.02 166.26 233.02 166.28 233.02 166.31 233.02 166.33 233.01 166.35 233.01 166.38 233 166.4 232.99 166.42 232.98 166.44 232.97 166.46 232.96 166.48 232.95 166.49 232.93 166.51 232.92 166.52 232.9 166.54 232.89 166.56 232.87 166.57 232.85 166.59 232.83 166.6 232.82 166.61 232.8 166.62 232.78 166.64 232.76 166.65 232.74 166.66 232.73 166.67 232.71 166.68 232.69 166.69 232.67 166.7 232.65 166.72 232.62 166.73 232.6 166.74 232.58 166.75 232.56 166.77 232.54 166.78 232.52 166.8 232.5 166.81 232.49 166.82 232.47 166.84 232.45 166.85 232.44 166.87 232.42 166.9 232.36 167.01 231.13 166.19 230.43 165.52 229.93 164.95 230.32 164.76 230.59 164.95 230.65 164.95 230.86 164.78 230.8 164.61 230.64 164.55 230.48 164.39 230.32 164.4 229.82 164.83 229.4 163.93 229.24 163.56 229.09 163.27 228.63 163 228.14 163.14 227.64 163.06 227.2 162.63 226.46 162.15 226.05 162.08 226 162.62 225.61 162.8 225.27 162.57 224.77 162.33 224.18 162.02 223.28 161.35 222.13 160.6 221.62 160.61 221.05 160.44 220.84 160.4 220.77 160.4 220.7 160.41 220.54 160.43 220.44 160.43 220.11 160.33 219.95 160.17 219.57 160.03 219.37 159.98 219.05 159.94 218.48 159.77 Z"/>
</g></svg>