<svg xmlns="http://www.w3.org/2000/svg" version="1.2" baseProfile="tiny" stroke-linecap="round" stroke-linejoin="round" viewBox="631.4 128.98 17.02 12.65"><g xmlns="http://www.w3.org/2000/svg" id="Jatsu">
<path d="M 635.82 129.65 635.84 129.68 635.85 129.7 635.88 129.75 635.94 129.83 635.95 129.85 635.96 129.89 635.99 129.97 636.03 130.04 636.1 130.15 636.16 130.23 636.18 130.26 636.19 130.28 636.21 130.36 636.22 130.38 636.24 130.39 636.3 130.44 636.33 130.44 636.36 130.45 636.39 130.45 636.41 130.44 636.43 130.44 636.45 130.44 636.47 130.44 636.5 130.46 636.55 130.47 636.6 130.47 636.64 130.47 636.74 130.47 636.82 130.48 636.9 130.5 636.93 130.51 636.97 130.54 637.09 130.65 637.11 130.66 637.21 130.46 637.39 130.18 637.44 130.18 637.53 130.28 637.68 130.32 638.17 130.26 638.2 130.22 638.12 129.8 638.15 129.67 638.43 129.69 638.41 129.39 638.52 129 638.77 128.99 638.72 129.52 638.73 129.65 639.25 129.62 639.4 129.79 639.67 129.8 639.94 129.86 640.54 129.8 641.14 129.75 642.19 129.92 643.29 129.93 643.3 129.92 643.88 129.88 644.28 129.89 644.69 129.9 644.98 129.99 644.98 129.94 645.01 129.84 645.05 129.74 645.08 129.64 645.1 129.54 645.11 129.47 645.26 129.45 645.33 129.44 645.46 129.55 645.43 129.93 645.47 130.08 645.53 130.08 645.67 129.91 646.27 129.89 646.25 130.19 646.33 130.26 646.62 130.33 646.6 130.42 646.59 130.47 646.58 130.51 646.56 130.55 646.55 130.58 646.54 130.62 646.53 130.65 646.54 130.69 646.54 130.74 646.54 130.78 646.54 130.8 646.54 130.81 646.54 130.82 646.53 130.84 646.53 130.85 646.51 130.86 646.49 130.89 646.46 130.92 646.42 130.99 646.38 131.06 646.42 131.04 646.44 131.03 646.45 131.03 646.47 131.03 646.48 131.04 646.49 131.06 646.5 131.08 646.51 131.1 646.52 131.12 646.52 131.14 646.53 131.16 646.54 131.17 646.56 131.18 646.61 131.19 646.65 131.19 646.68 131.19 646.72 131.19 646.74 131.19 646.77 131.18 646.79 131.18 646.82 131.16 646.85 131.15 646.87 131.15 646.9 131.15 646.92 131.15 646.95 131.16 646.99 131.2 647.05 131.26 647.1 131.29 647.13 131.32 647.17 131.34 647.19 131.35 647.27 131.18 647.32 131.16 647.48 131.11 647.74 131.68 647.82 131.79 648.03 131.84 648.06 131.81 648.12 131.76 648.17 131.7 648.3 131.59 648.39 131.65 648.31 131.85 648.12 132.04 648.22 132.31 648.05 132.31 648.05 132.34 648.19 132.63 648.12 132.92 648.07 132.92 647.92 132.84 647.86 132.74 647.79 132.66 647.51 132.55 647.52 132.57 647.5 132.58 647.42 132.6 647.29 132.75 647.64 132.89 647.74 133.05 648.02 133.11 648.06 132.99 648.29 133.11 648.24 133.45 648.28 133.74 648.22 133.93 647.97 133.81 647.82 133.76 647.64 134.2 647.63 134.3 647.72 134.35 647.95 134.37 648.08 134.44 648.08 134.47 647.96 134.57 647.85 134.78 647.91 134.94 647.95 135.13 647.89 135.15 647.76 135.02 647.64 134.99 647.59 135.03 647.4 135.39 647.32 135.61 646.79 136.05 646.74 136.14 646.84 136.42 646.85 136.46 646.84 136.5 647.07 136.62 647.05 136.64 647.03 136.66 647.02 136.68 647.01 136.7 647.01 136.7 647.02 136.72 647.02 136.75 647.02 136.77 647.02 136.78 647.01 136.8 647.01 136.81 647 136.83 646.98 136.85 646.96 136.9 646.87 136.94 646.87 136.95 646.87 137.01 646.86 137.08 646.86 137.13 646.87 137.2 646.87 137.24 646.86 137.27 646.83 137.32 646.8 137.43 646.68 137.65 646.48 138.06 647.2 138.49 647.17 138.73 646.91 138.77 646.91 139.02 646.51 138.91 646.38 138.58 646.27 138.7 646.3 139.07 646.04 139.5 645.96 139.49 645.9 139.46 645.85 139.43 645.82 139.41 645.77 139.39 645.73 139.39 645.7 139.39 645.67 139.39 645.64 139.39 645.62 139.38 645.57 139.38 645.52 139.4 645.4 139.47 645.28 139.52 645.14 139.61 645.01 139.7 644.86 139.8 644.68 139.94 644.53 140.05 644.44 140.14 644.36 140.24 644.29 140.34 644.24 140.41 644.19 140.49 644.17 140.56 644.16 140.6 644.15 140.65 644.14 140.71 644.15 140.76 643.96 140.45 643.91 140.39 643.56 140.41 643.47 140.26 643.36 140.14 643.26 140.15 643.19 140.22 643.18 140.29 643.29 140.65 643.08 141.48 642.67 141.63 642.65 141.47 642.35 141.42 642.35 141.28 642.29 141.25 642.01 141.21 642.08 141.05 642.01 141.02 641.95 141.07 641.82 141.15 641.7 141.07 641.4 140.95 641.45 140.89 641.49 140.84 641.54 140.74 641.59 140.63 641.66 140.56 641.74 140.48 641.81 140.39 641.83 140.35 641.84 140.34 641.84 140.32 641.85 140.29 641.83 140.2 641.81 140.11 641.79 140.06 641.75 140.03 641.71 140 641.69 139.97 641.68 139.95 641.5 139.89 641.45 139.89 641.28 139.99 641.07 140 640.9 139.88 640.7 139.82 640.7 139.78 640.73 139.69 640.74 139.59 640.67 139.52 640.56 139.51 640.46 139.62 640.39 139.65 640.15 139.5 639.84 139.47 639.45 139.49 639.31 139.29 639.21 139.04 639.13 138.6 638.98 138.2 638.92 137.62 638.87 137.6 638.81 137.56 638.69 137.44 638.58 137.32 638.38 137.33 638.23 137.48 637.95 137.5 637.49 137.76 637.46 137.88 637.42 137.97 637.26 137.98 637.21 138.02 637.19 138.23 637.11 138.47 637.02 138.65 636.84 138.61 636.76 138.4 636.65 138.41 636.4 138.48 636.14 138.67 635.98 138.68 636.03 138.42 636 138.45 635.94 138.46 635.89 138.47 635.82 138.47 635.73 138.48 635.57 138.49 635.44 138.5 635.22 138.51 635.17 138.51 635.11 138.53 635.06 138.55 635.01 138.58 634.97 138.6 634.87 138.62 634.79 138.63 634.68 138.66 634.64 138.66 634.62 138.66 634.21 138.79 634 139 633.71 139.07 633.51 139.24 633.49 139.3 633.51 139.33 633.7 139.53 633.67 139.6 633.58 139.68 633.21 140.14 633.13 140.37 633.12 140.36 633.03 140.27 632.92 140.17 632.9 140.14 632.89 140.09 632.85 139.99 632.84 139.96 632.83 139.89 632.84 139.84 632.83 139.8 632.81 139.75 632.79 139.71 632.77 139.69 632.71 139.63 632.95 139.48 632.76 139.28 632.63 139.19 632.63 139.14 632.62 139.09 632.61 139.05 632.62 139.01 632.42 138.82 632.64 138.66 632.73 138.66 633.02 138.89 633.11 138.92 633.14 138.92 633.16 138.92 633.17 138.91 633.18 138.91 633.23 138.87 633.25 138.83 633.26 138.79 633.28 138.74 633.53 138.82 633.59 138.57 633.23 138.37 633.22 138.37 633.19 138.35 633.1 138.27 633.02 138.2 632.9 138.12 632.88 138.1 632.87 138.1 632.86 138.11 632.72 137.92 632.57 137.63 632.47 137.59 632.27 137.85 632.22 137.83 632 137.44 631.95 137.27 631.96 137.06 632.04 136.79 632.04 136.74 632.13 136.2 632.43 136.25 632.67 136.14 632.63 136.12 632.5 136.01 632.33 135.82 632.08 135.57 631.92 135.42 631.84 135.37 631.81 135.35 631.6 135.28 631.47 135.21 631.41 135.17 631.5 135.07 631.56 134.94 631.58 134.89 631.59 134.83 631.61 134.78 631.64 134.73 631.75 134.63 631.84 134.56 631.91 134.52 631.96 134.44 631.99 134.39 632.02 134.33 632.04 134.3 632.13 134.24 632.18 134.19 632.24 134.16 632.25 134.15 632.27 134.15 632.29 134.15 632.3 134.15 632.32 134.16 632.35 134.16 632.41 134.13 632.5 134.1 632.57 134.1 632.68 134.07 632.74 134.05 632.8 134.01 632.86 133.96 632.88 133.93 632.9 133.92 632.92 133.92 632.93 133.91 632.95 133.89 632.97 133.83 632.99 133.78 633.02 133.76 633.07 133.7 633.13 133.64 633.15 133.64 633.18 133.64 633.21 133.63 633.23 133.59 633.25 133.5 633.27 133.46 633.33 133.41 633.39 133.37 633.44 133.29 633.52 133.23 633.59 133.17 633.63 133.14 633.71 133.11 633.77 133.1 633.86 133.08 633.94 133.06 633.96 133.05 634 133.06 634.06 133.08 634.14 133.1 634.17 133.1 634.23 133.08 634.3 133.04 634.33 133.03 634.38 133.03 634.42 133.04 634.48 133.03 634.56 132.99 634.62 132.95 634.67 132.91 634.73 132.46 635.02 132.13 635.05 132.08 635.08 132.04 635.1 132.01 635.11 131.99 635.1 131.98 635.09 131.97 635.07 131.98 634.99 132 634.88 132 634.82 131.98 634.77 131.95 634.73 131.92 634.67 131.87 634.71 131.88 634.77 131.88 634.88 131.44 634.92 131.15 635.44 130.2 635.51 129.99 635.54 129.93 635.72 129.67 635.82 129.65 Z"/>
</g></svg>