<svg xmlns="http://www.w3.org/2000/svg" version="1.2" baseProfile="tiny" stroke-linecap="round" stroke-linejoin="round" viewBox="571.42 47.93 19.28 19.07"><g xmlns="http://www.w3.org/2000/svg" id="Jatsu (Lapurdi)">
<path d="M 582.1 47.94 582.12 47.96 582.17 47.98 582.21 47.99 582.55 48.1 582.56 48.1 582.6 48.11 582.65 48.14 582.67 48.17 582.95 48.3 582.98 48.32 583.01 48.34 583.04 48.37 583.06 48.4 583.08 48.42 583.11 48.44 583.15 48.46 583.19 48.47 583.23 48.5 583.28 48.52 583.33 48.54 583.39 48.56 583.48 48.61 583.73 48.74 583.92 48.72 584.07 48.78 584.2 48.82 584.24 48.85 584.23 48.87 584.22 48.89 584.37 48.9 584.79 49.11 584.83 49.13 584.86 49.13 584.89 49.13 584.92 49.14 584.95 49.16 584.99 49.17 585.03 49.17 585.06 49.17 585.08 49.16 585.09 49.16 585.12 49.14 585.13 49.15 585.15 49.16 585.15 49.17 585.24 49.16 585.29 49.16 585.41 49.12 585.61 49.15 585.63 49.16 585.77 49.21 585.83 49.22 585.97 49.25 586.21 49.29 586.23 49.29 586.41 49.31 586.55 49.34 586.68 49.37 586.8 49.38 586.89 49.37 587.07 49.39 587.29 49.41 587.25 49.43 587.23 49.45 587.21 49.48 587.19 49.52 587.18 49.54 587.17 49.58 587.15 49.62 587.14 49.64 587.12 49.66 587.12 49.67 587.12 49.69 587.12 49.7 587.11 49.72 587.1 49.73 587.09 49.74 587.09 49.76 587.1 49.78 587.1 49.79 587.12 49.8 587.14 49.8 587.16 49.8 587.17 49.81 587.18 49.83 587.18 49.85 587.18 49.87 587.17 49.89 587.16 49.91 587.14 49.93 587.13 49.95 587.13 49.98 587.13 50 587.15 50.04 587.17 50.07 587.18 50.1 587.2 50.13 587.21 50.15 587.23 50.17 587.25 50.18 587.28 50.19 587.3 50.18 587.32 50.17 587.35 50.17 587.36 50.15 587.38 50.15 587.39 50.15 587.4 50.17 587.42 50.18 587.43 50.2 587.44 50.22 587.45 50.24 587.45 50.26 587.45 50.28 587.45 50.31 587.45 50.33 587.46 50.34 587.47 50.36 587.49 50.38 587.51 50.4 587.53 50.4 587.56 50.4 587.58 50.4 587.61 50.39 587.62 50.39 587.63 50.39 587.65 50.4 587.67 50.42 587.69 50.43 587.71 50.45 587.72 50.47 587.74 50.49 587.74 50.51 587.75 50.53 587.75 50.54 587.75 50.56 587.8 50.57 587.84 50.55 587.9 50.53 587.95 50.5 588.01 50.49 588.06 50.48 588.12 50.47 588.17 50.47 588.22 50.48 588.27 50.5 588.32 50.51 588.37 50.53 588.42 50.55 588.47 50.56 588.53 50.6 588.59 50.63 588.65 50.66 588.69 50.69 588.73 50.72 588.75 50.75 588.76 50.77 588.75 50.79 588.74 50.82 588.71 50.85 588.68 50.88 588.68 50.92 588.69 50.95 588.69 50.96 588.7 50.99 588.7 51.03 588.7 51.07 588.72 51.12 588.72 51.15 588.72 51.19 588.72 51.22 588.71 51.25 588.69 51.29 588.68 51.33 588.68 51.33 588.65 51.38 588.61 51.39 588.57 51.36 588.56 51.34 588.55 51.31 588.54 51.29 588.54 51.28 588.53 51.27 588.51 51.26 588.48 51.27 588.46 51.28 588.44 51.29 588.44 51.3 588.43 51.31 588.42 51.32 588.43 51.33 588.43 51.34 588.44 51.35 588.47 51.37 588.49 51.38 588.5 51.39 588.52 51.4 588.53 51.42 588.54 51.43 588.55 51.46 588.56 51.48 588.56 51.51 588.57 51.56 588.57 51.58 588.57 51.61 588.55 51.63 588.54 51.65 588.52 51.66 588.5 51.68 588.46 51.68 588.43 51.68 588.4 51.67 588.38 51.66 588.35 51.64 588.31 51.61 588.25 51.6 588.25 51.63 588.26 51.66 588.25 51.68 588.23 51.68 588.21 51.7 588.21 51.74 588.21 51.77 588.21 51.78 588.24 51.81 588.27 51.85 588.29 51.88 588.32 51.91 588.35 51.95 588.37 51.98 588.41 51.99 588.45 52 588.5 52 588.54 52.01 588.57 52.03 588.61 52.05 588.64 52.09 588.67 52.14 588.69 52.17 588.71 52.22 588.74 52.27 588.76 52.31 588.78 52.35 588.8 52.4 588.82 52.43 588.83 52.47 588.85 52.51 588.87 52.56 588.9 52.6 588.92 52.64 588.94 52.72 588.95 52.78 588.97 52.84 588.98 52.87 588.99 52.9 589.01 52.95 589.05 53.02 589.08 53.08 589.1 53.1 589.12 53.14 589.15 53.18 589.17 53.22 589.2 53.26 589.22 53.29 589.28 53.32 589.34 53.35 589.39 53.37 589.45 53.4 589.51 53.42 589.57 53.44 589.62 53.46 589.66 53.47 589.7 53.47 589.74 53.45 589.77 53.42 589.79 53.39 589.8 53.38 589.82 53.34 589.83 53.29 589.86 53.26 589.9 53.24 589.91 53.22 589.96 53.22 590.01 53.22 590.06 53.23 590.1 53.23 590.15 53.22 590.2 53.22 590.24 53.22 590.29 53.23 590.34 53.24 590.39 53.26 590.45 53.29 590.51 53.33 590.57 53.38 590.63 53.44 590.63 53.45 590.66 53.49 590.68 53.54 590.68 53.55 590.67 53.57 590.65 53.59 590.64 53.6 590.61 53.63 590.59 53.65 590.56 53.68 590.51 53.71 590.45 53.73 590.41 53.75 590.36 53.76 590.32 53.77 590.3 53.79 590.28 53.83 590.26 53.87 590.24 53.89 590.21 53.92 590.17 53.95 590.13 53.98 590.09 54 590.06 54.02 590.01 54.03 589.98 54.05 589.94 54.08 589.92 54.11 589.91 54.12 589.88 54.17 589.87 54.22 589.85 54.25 589.82 54.29 589.79 54.31 589.76 54.36 589.74 54.39 589.72 54.42 589.68 54.45 589.63 54.46 589.57 54.49 589.51 54.52 589.49 54.55 589.5 54.58 589.52 54.61 589.53 54.64 589.53 54.67 589.53 54.7 589.53 54.74 589.52 54.78 589.5 54.8 589.47 54.83 589.46 54.89 589.45 54.96 589.45 55.01 589.43 55.05 589.41 55.09 589.39 55.13 589.38 55.16 589.37 55.2 589.34 55.24 589.32 55.27 589.29 55.3 589.27 55.32 589.24 55.34 589.2 55.35 589.16 55.35 589.12 55.35 589.06 55.37 589.02 55.38 588.99 55.4 588.98 55.42 588.99 55.44 589 55.48 589.02 55.5 589.05 55.53 589.07 55.56 589.08 55.58 589.08 55.59 589.07 55.63 589.05 55.66 589.02 55.68 588.99 55.69 588.97 55.72 588.95 55.74 588.91 55.75 588.88 55.75 588.84 55.76 588.81 55.79 588.79 55.82 588.77 55.85 588.76 55.88 588.76 55.91 588.78 55.94 588.8 55.97 588.83 56.01 588.83 56.04 588.82 56.02 588.76 56.01 588.72 56 588.69 55.99 588.65 55.98 588.6 55.97 588.56 55.96 588.51 55.94 588.51 55.94 588.48 55.95 588.44 55.97 588.43 55.98 588.4 56 588.37 56.02 588.33 56.05 588.3 56.08 588.26 56.11 588.22 56.13 588.18 56.13 588.15 56.12 588.11 56.09 588.07 56.09 588.03 56.12 587.99 56.14 587.95 56.14 587.91 56.15 587.87 56.17 587.83 56.19 587.78 56.22 587.7 56.25 587.68 56.26 587.63 56.27 587.6 56.25 587.57 56.22 587.53 56.19 587.5 56.18 587.44 56.16 587.42 56.18 587.4 56.22 587.38 56.24 587.36 56.26 587.32 56.29 587.28 56.29 587.22 56.28 587.18 56.27 587.14 56.24 587.13 56.24 587.11 56.25 587.1 56.27 587.1 56.3 587.09 56.33 587.08 56.36 587.07 56.39 587.05 56.44 587.07 56.46 587.1 56.49 587.12 56.52 587.15 56.56 587.15 56.6 587.14 56.64 587.13 56.66 587.09 56.67 587.05 56.67 587.02 56.68 587 56.7 587.01 56.73 587 56.76 586.98 56.77 586.95 56.76 586.93 56.76 586.89 56.76 586.86 56.77 586.82 56.79 586.8 56.83 586.8 56.87 586.81 56.9 586.83 56.92 586.84 56.95 586.84 56.97 586.85 56.99 586.85 57.01 586.86 57.04 586.87 57.09 586.88 57.13 586.89 57.18 586.89 57.22 586.89 57.25 586.89 57.29 586.88 57.32 586.85 57.34 586.83 57.37 586.81 57.39 586.77 57.42 586.75 57.44 586.71 57.47 586.67 57.5 586.64 57.53 586.63 57.56 586.63 57.6 586.63 57.64 586.63 57.68 586.63 57.73 586.63 57.77 586.65 57.81 586.66 57.84 586.67 57.89 586.68 57.93 586.69 57.98 586.71 58.04 586.72 58.07 586.74 58.11 586.74 58.15 586.73 58.19 586.72 58.23 586.7 58.26 586.66 58.28 586.63 58.32 586.62 58.35 586.63 58.38 586.66 58.42 586.68 58.45 586.67 58.47 586.66 58.51 586.64 58.54 586.6 58.57 586.57 58.61 586.54 58.64 586.53 58.66 586.53 58.67 586.52 58.7 586.51 58.75 586.52 58.76 586.53 58.78 586.56 58.8 586.59 58.81 586.63 58.8 586.68 58.8 586.72 58.81 586.74 58.83 586.75 58.84 586.76 58.85 586.76 58.87 586.78 58.9 586.79 58.93 586.83 58.98 586.85 59 586.88 59.03 586.92 59.04 586.95 59.04 586.99 59.05 587.01 59.08 587 59.11 586.99 59.14 586.97 59.17 586.96 59.21 586.94 59.24 586.91 59.26 586.88 59.29 586.86 59.32 586.85 59.35 586.83 59.4 586.81 59.42 586.81 59.44 586.83 59.46 586.86 59.48 586.88 59.51 586.91 59.53 586.94 59.54 586.98 59.57 587.02 59.59 587.07 59.62 587.1 59.63 587.14 59.65 587.15 59.68 587.16 59.72 587.18 59.74 587.2 59.77 587.22 59.81 587.18 59.84 587.15 59.87 587.12 59.9 587.1 59.94 587.07 59.96 587.03 59.97 587 59.99 586.97 60.01 586.9 60.02 586.87 60.04 586.86 60.04 586.83 60.05 586.8 60.04 586.77 60.03 586.74 60.02 586.69 60.02 586.64 60.04 586.61 60.05 586.57 60.07 586.53 60.1 586.49 60.12 586.46 60.15 586.42 60.18 586.37 60.21 586.32 60.24 586.17 60.36 586.12 60.4 586.08 60.44 586.03 60.47 585.99 60.5 585.95 60.53 585.91 60.55 585.86 60.59 585.71 60.66 585.47 60.77 585.24 60.87 584.9 60.93 584.87 60.93 584.86 60.93 584.85 60.94 584.84 60.94 584.83 60.94 584.81 60.95 584.79 60.95 584.78 60.95 584.76 60.95 584.75 60.95 584.73 60.95 584.72 60.95 584.7 60.94 584.69 60.94 584.67 60.94 584.66 60.94 584.64 60.93 584.62 60.93 584.61 60.93 584.6 60.93 584.59 60.93 584.57 60.93 584.56 60.93 584.55 60.94 584.54 60.94 584.52 60.95 584.51 60.96 584.5 60.96 584.47 60.97 584.46 60.97 584.44 60.98 584.43 60.99 584.42 61 584.4 61 584.39 61 584.37 61.01 584.36 61.01 584.34 61.01 584.32 61.02 584.31 61.02 584.29 61.02 584.27 61.02 584.26 61.02 584.24 61.02 584.23 61.02 584.21 61.01 584.2 61.01 584.18 61.01 584.17 61.01 584.15 61.01 584.14 61.01 584.12 61.01 584.1 61.01 584.09 61.01 584.07 61.02 584.06 61.02 584.04 61.02 584.03 61.03 584.01 61.03 583.99 61.03 583.98 61.04 583.96 61.04 583.95 61.05 583.93 61.06 583.91 61.07 583.9 61.08 583.88 61.08 583.87 61.09 583.85 61.1 583.84 61.11 583.82 61.11 583.81 61.12 583.79 61.12 583.78 61.13 583.76 61.13 583.75 61.14 583.73 61.14 583.72 61.15 583.7 61.15 583.69 61.16 583.67 61.16 583.66 61.17 583.65 61.17 583.63 61.18 583.62 61.18 583.6 61.19 583.58 61.2 583.57 61.2 583.56 61.21 583.54 61.21 583.53 61.22 583.52 61.22 583.51 61.23 583.49 61.23 583.48 61.24 583.47 61.24 583.45 61.25 583.43 61.25 583.42 61.26 583.4 61.26 583.39 61.26 583.38 61.27 583.36 61.27 583.35 61.27 583.34 61.27 583.33 61.27 583.31 61.27 583.3 61.27 583.29 61.27 583.27 61.26 583.26 61.26 583.25 61.25 583.24 61.25 583.22 61.25 583.21 61.24 583.21 61.24 583.2 61.23 583.18 61.23 583.17 61.22 583.16 61.22 583.14 61.21 583.13 61.2 583.12 61.2 583.1 61.19 583.09 61.19 583.07 61.19 583.06 61.18 583.05 61.18 583.04 61.18 583.02 61.17 583.01 61.17 583 61.17 582.98 61.16 582.97 61.16 582.96 61.16 582.94 61.16 582.93 61.15 582.92 61.15 582.9 61.15 582.89 61.15 582.88 61.15 582.87 61.15 582.85 61.16 582.84 61.17 582.83 61.17 582.82 61.17 582.8 61.18 582.78 61.18 582.77 61.19 582.76 61.19 582.74 61.2 582.73 61.21 582.72 61.22 582.71 61.22 582.69 61.23 582.68 61.24 582.67 61.25 582.66 61.26 582.64 61.27 582.62 61.28 582.61 61.28 582.6 61.29 582.58 61.3 582.57 61.3 582.56 61.31 582.55 61.31 582.54 61.32 582.52 61.32 582.51 61.33 582.49 61.33 582.48 61.33 582.46 61.34 582.45 61.34 582.43 61.35 582.42 61.35 582.41 61.35 582.39 61.36 582.38 61.37 582.37 61.38 582.36 61.39 582.35 61.4 582.34 61.42 582.33 61.43 582.32 61.45 582.31 61.46 582.3 61.47 582.29 61.48 582.28 61.5 582.28 61.51 582.27 61.52 582.26 61.53 582.25 61.54 582.25 61.55 582.24 61.56 582.24 61.58 582.23 61.59 582.22 61.6 582.22 61.61 582.21 61.62 582.2 61.63 582.2 61.65 582.19 61.66 582.19 61.67 582.18 61.68 582.18 61.68 582.17 61.69 582.17 61.7 582.17 61.71 582.16 61.72 582.16 61.73 582.16 61.73 582.15 61.74 582.15 61.75 582.15 61.76 582.15 61.77 582.15 61.78 582.15 61.79 582.15 61.81 582.14 61.81 582.13 61.81 582.12 61.81 582.11 61.81 582.1 61.82 582.09 61.82 582.08 61.82 582.07 61.82 582.06 61.83 582.05 61.83 582.04 61.83 582.03 61.83 582.02 61.83 582.01 61.83 582 61.83 581.99 61.83 581.98 61.83 581.97 61.83 581.96 61.83 581.96 61.83 581.95 61.83 581.94 61.83 581.92 61.82 581.91 61.82 581.9 61.82 581.89 61.82 581.88 61.82 581.87 61.82 581.87 61.83 581.86 61.83 581.85 61.83 581.84 61.83 581.83 61.83 581.83 61.83 581.82 61.84 581.81 61.85 581.8 61.86 581.8 61.86 581.79 61.87 581.78 61.88 581.77 61.88 581.77 61.89 581.76 61.89 581.76 61.9 581.75 61.9 581.73 61.91 581.72 61.91 581.71 61.91 581.7 61.92 581.68 61.92 581.67 61.92 581.66 61.92 581.63 61.91 581.62 61.89 581.61 61.87 581.6 61.83 581.58 61.81 581.56 61.8 581.54 61.79 581.51 61.78 581.48 61.78 581.45 61.78 581.42 61.79 581.4 61.79 581.37 61.79 581.35 61.8 581.32 61.8 581.31 61.78 581.29 61.75 581.27 61.73 581.26 61.73 581.24 61.73 581.21 61.74 581.19 61.75 581.16 61.77 581.14 61.8 581.12 61.8 581.1 61.78 581.09 61.78 581.07 61.77 581.05 61.78 581.02 61.81 580.99 61.83 580.97 61.84 580.94 61.86 580.91 61.87 580.88 61.87 580.84 61.85 580.82 61.84 580.79 61.83 580.76 61.82 580.74 61.82 580.71 61.82 580.68 61.81 580.66 61.81 580.63 61.81 580.61 61.81 580.58 61.82 580.56 61.84 580.55 61.84 580.52 61.86 580.51 61.87 580.49 61.88 580.47 61.87 580.44 61.87 580.42 61.87 580.39 61.88 580.36 61.9 580.34 61.92 580.32 61.94 580.31 61.96 580.31 61.99 580.3 62.01 580.28 62.03 580.25 62.04 580.22 62.04 580.19 62.05 580.16 62.05 580.14 62.06 580.13 62.08 580.12 62.11 580.12 62.14 580.1 62.15 580.09 62.19 580.07 62.19 580.04 62.19 580.02 62.19 580 62.19 579.99 62.2 579.98 62.21 579.99 62.24 579.99 62.26 579.99 62.29 579.97 62.31 579.95 62.31 579.95 62.34 579.96 62.37 579.99 62.4 580 62.43 580.01 62.47 580.02 62.5 580.03 62.53 580.04 62.56 580.03 62.6 580.01 62.63 580 62.65 579.98 62.68 579.96 62.71 579.94 62.73 579.92 62.78 579.92 62.8 579.91 62.82 579.91 62.84 579.89 62.85 579.85 62.85 579.82 62.85 579.79 62.85 579.76 62.85 579.73 62.85 579.7 62.87 579.68 62.89 579.66 62.91 579.63 62.93 579.61 62.95 579.59 62.97 579.57 62.98 579.55 63 579.54 63.03 579.52 63.05 579.48 63.05 579.45 63.04 579.42 63.04 579.37 63.03 579.35 63.02 579.32 63 579.3 62.98 579.28 62.95 579.27 62.93 579.24 62.89 579.25 62.87 579.21 62.88 579.18 62.91 579.15 62.94 579.11 62.98 579.06 63.04 579.02 63.08 578.97 63.15 578.92 63.22 578.89 63.27 578.85 63.31 578.85 63.33 578.83 63.36 578.8 63.44 578.79 63.49 578.75 63.59 578.74 63.64 578.72 63.72 578.71 63.77 578.7 63.84 578.7 63.85 578.7 63.87 578.69 63.88 578.69 63.92 578.68 63.99 578.68 64.04 578.68 64.05 578.68 64.08 578.67 64.14 578.65 64.19 578.63 64.22 578.62 64.24 578.59 64.29 578.58 64.3 578.54 64.33 578.53 64.34 578.5 64.38 578.31 64.59 578.23 64.69 577.92 64.98 577.8 65.1 577.66 65.25 577.6 65.31 577.47 65.41 577.1 65.74 576.94 65.9 576.93 65.93 576.89 65.99 576.84 66.06 576.84 66.08 576.77 66.17 576.75 66.19 576.73 66.22 576.72 66.23 576.71 66.24 576.7 66.25 576.69 66.26 576.68 66.27 576.67 66.28 576.66 66.29 576.65 66.31 576.63 66.32 576.62 66.33 576.61 66.35 576.6 66.37 576.59 66.38 576.57 66.4 576.56 66.42 576.56 66.44 576.55 66.46 576.53 66.5 576.52 66.52 576.51 66.56 576.5 66.58 576.5 66.59 576.49 66.6 576.48 66.61 576.46 66.62 576.45 66.63 576.44 66.64 576.43 66.65 576.4 66.67 576.39 66.69 576.38 66.71 576.37 66.72 576.34 66.76 576.33 66.78 576.32 66.79 576.3 66.83 576.29 66.85 576.28 66.86 576.27 66.89 576.26 66.92 576.24 66.95 576.22 66.96 576.21 66.96 576.19 66.97 576.17 66.98 576.15 66.98 576.13 66.98 576.06 66.96 576 66.93 575.92 66.89 575.86 66.85 575.83 66.83 575.81 66.79 575.78 66.76 575.76 66.74 575.74 66.71 575.7 66.66 575.62 66.59 575.59 66.56 575.57 66.55 575.54 66.54 575.51 66.52 575.47 66.51 575.42 66.5 575.37 66.5 575.35 66.49 575.31 66.49 575.26 66.47 575.21 66.45 575.18 66.43 575.15 66.41 575.13 66.39 575.12 66.37 575.11 66.35 575.1 66.32 575.09 66.28 575.08 66.16 575.07 66.12 575.06 66.09 575.04 66.07 574.98 66.02 574.95 65.99 574.91 65.97 574.88 65.96 574.86 65.95 574.83 65.94 574.8 65.97 574.8 65.98 574.7 65.96 574.68 65.97 574.66 65.98 574.65 65.99 574.62 66.03 574.58 66.07 574.55 66.05 574.53 66.03 574.51 65.98 574.49 65.93 574.47 65.87 574.42 65.81 574.38 65.77 574.34 65.74 574.28 65.71 574.14 65.62 573.98 65.52 573.8 65.42 573.62 65.32 573.49 65.24 573.35 65.18 573.23 65.13 573.12 65.11 572.97 65.05 572.79 65.01 572.57 64.92 572.42 64.85 572.31 64.81 572.2 64.76 572.14 64.73 572.01 64.66 572.06 64.6 572.11 64.51 572.08 64.48 572.06 64.46 572.04 64.44 571.98 64.38 571.92 64.32 571.88 64.28 571.86 64.26 571.83 64.23 571.78 64.18 571.75 64.14 571.72 64.09 571.66 64.01 571.62 63.96 571.59 63.93 571.55 63.89 571.49 63.84 571.46 63.81 571.43 63.78 571.45 63.77 571.46 63.77 571.63 63.72 571.64 63.72 571.66 63.72 571.67 63.71 571.71 63.7 571.73 63.71 571.75 63.71 571.8 63.7 571.85 63.7 571.93 63.7 571.97 63.7 572 63.69 572.02 63.69 572.05 63.69 572.08 63.69 572.11 63.69 572.13 63.69 572.15 63.69 572.17 63.69 572.18 63.69 572.2 63.69 572.22 63.7 572.24 63.7 572.26 63.72 572.28 63.73 572.29 63.73 572.31 63.75 572.34 63.77 572.38 63.8 572.41 63.82 572.44 63.84 572.46 63.81 572.46 63.8 572.46 63.78 572.47 63.76 572.47 63.75 572.48 63.73 572.48 63.7 572.49 63.68 572.49 63.66 572.49 63.63 572.49 63.61 572.5 63.58 572.5 63.55 572.5 63.47 572.51 63.47 572.51 63.45 572.52 63.44 572.53 63.43 572.55 63.42 572.57 63.41 572.59 63.41 572.61 63.41 572.63 63.41 572.69 63.25 572.69 63.24 572.7 63.17 572.7 63.14 572.7 63.12 572.7 63.1 572.71 63.05 572.72 63 572.73 63 572.79 63 572.84 63.01 572.95 63.05 573.08 63.09 573.27 63.15 573.4 63.2 573.53 62.98 573.5 62.81 573.5 62.8 573.49 62.78 573.49 62.75 573.48 62.73 573.47 62.7 573.46 62.67 573.36 62.29 573.35 62.29 573.32 62.29 573.31 62.29 573.4 61.97 573.31 61.86 573.24 61.95 573.18 62 573.1 62.03 572.99 62.08 572.92 62.11 572.88 62.12 572.86 62.14 572.83 62.15 572.79 62.15 572.75 62.16 572.72 62.16 572.67 62.17 572.64 62.17 572.6 62.17 572.55 62.18 572.49 62.18 572.42 62.19 572.37 62.19 572.34 62.19 572.25 62.2 572.19 62.2 572.14 62.2 572.09 62.21 572.04 62.21 572.01 62.21 571.99 62.21 571.98 62.2 571.97 62.19 571.97 62.17 571.97 62.15 571.96 62.13 571.95 62.1 571.96 62.09 571.97 62.07 571.98 62.02 571.98 61.97 571.99 61.92 572 61.89 572.01 61.87 572.04 61.85 572.06 61.83 572.08 61.82 572.1 61.8 572.12 61.76 572.14 61.7 572.15 61.69 572.19 61.63 572.23 61.56 572.28 61.48 572.33 61.4 572.39 61.32 572.44 61.25 572.45 61.23 572.46 61.21 572.49 61.16 572.51 61.12 572.54 61.07 572.57 61.03 572.59 61.01 572.46 60.97 572.45 60.93 572.43 60.86 572.42 60.85 572.4 60.84 572.37 60.83 572.34 60.81 572.32 60.79 572.28 60.77 572.26 60.76 572.21 60.72 572.2 60.7 572.18 60.69 572.16 60.67 572.14 60.66 572.13 60.64 572.12 60.63 572.1 60.61 571.99 60.47 571.98 60.45 571.98 60.43 571.98 60.41 571.98 60.39 571.98 60.36 571.98 60.35 571.98 60.33 571.97 60.31 571.96 60.3 571.95 60.29 571.94 60.27 571.92 60.26 571.89 60.25 571.79 60.21 571.78 60.18 571.99 60.03 572.17 60.01 572.19 60.01 572.2 60.01 572.22 60.01 572.23 60.01 572.25 60.01 572.27 60.01 572.28 60 572.3 60 572.32 60 572.33 60 572.35 60 572.37 60 572.39 59.99 572.4 59.99 572.42 59.99 572.44 59.98 572.46 59.98 572.48 59.98 572.5 59.97 572.52 59.97 572.54 59.96 572.56 59.96 572.58 59.95 572.61 59.94 572.63 59.94 572.65 59.93 572.67 59.93 572.68 59.92 572.7 59.92 572.72 59.91 572.74 59.91 572.76 59.91 572.78 59.9 572.79 59.9 572.81 59.9 572.83 59.89 572.85 59.89 572.86 59.89 572.88 59.89 572.89 59.88 572.89 59.88 572.87 59.84 572.85 59.77 572.84 59.76 572.83 59.7 572.81 59.65 572.79 59.61 572.78 59.6 572.81 59.54 572.82 59.49 572.84 59.44 572.85 59.39 572.87 59.34 572.87 59.31 572.87 59.3 572.88 59.24 572.9 59.22 572.91 59.22 572.92 59.21 572.93 59.2 572.94 59.19 572.95 59.18 572.96 59.18 572.97 59.17 572.99 59.16 573 59.16 573.01 59.15 573.02 59.14 573.04 59.14 573.05 59.13 573.07 59.12 573.08 59.12 573.1 59.11 573.11 59.1 573.12 59.09 573.14 59.08 573.15 59.07 573.17 59.05 573.19 59.03 573.2 59.02 573.21 59.02 573.23 59.01 573.26 59 573.27 58.99 573.28 58.98 573.3 58.97 573.31 58.96 573.32 58.95 573.33 58.94 573.34 58.93 573.35 58.93 573.36 58.92 573.37 58.91 573.38 58.9 573.4 58.89 573.41 58.88 573.42 58.87 573.43 58.85 573.44 58.84 573.45 58.83 573.46 58.82 573.47 58.81 573.48 58.8 573.49 58.79 573.51 58.78 573.52 58.77 573.53 58.77 573.54 58.76 573.55 58.76 573.56 58.76 573.57 58.76 573.59 58.76 573.63 58.74 573.64 58.73 573.75 58.72 573.79 58.72 573.81 58.72 573.85 58.73 573.86 58.73 573.88 58.72 573.96 58.64 573.95 58.63 573.94 58.61 573.92 58.58 573.91 58.55 573.91 58.52 573.92 58.51 573.94 58.49 573.96 58.49 573.98 58.49 574 58.5 574.02 58.51 574.04 58.53 574.07 58.54 574.09 58.54 574.11 58.54 574.13 58.53 574.14 58.51 574.15 58.49 574.14 58.47 574.15 58.45 574.19 58.34 574.2 58.31 574.22 58.27 574.3 58.25 574.33 58.22 574.35 58.2 574.36 58.19 574.37 58.17 574.38 58.14 574.38 58.13 574.41 58.05 574.43 58.04 574.44 58.03 574.45 58.03 574.47 58.01 574.48 57.99 574.49 57.97 574.5 57.95 574.55 57.9 574.56 57.89 574.57 57.88 574.58 57.87 574.6 57.85 574.62 57.81 574.63 57.79 574.65 57.75 574.68 57.69 574.69 57.65 574.72 57.54 574.71 57.52 574.7 57.45 574.7 57.43 574.7 57.41 574.7 57.39 574.7 57.37 574.69 57.35 574.66 57.3 574.65 57.29 574.64 57.27 574.63 57.25 574.62 57.24 574.61 57.22 574.6 57.21 574.6 57.19 574.59 57.18 574.59 57.15 574.58 57.15 574.58 57.13 574.58 57.11 574.58 57.07 574.59 57.01 574.6 56.99 574.6 56.96 574.61 56.92 574.64 56.85 574.64 56.82 574.64 56.8 574.64 56.78 574.64 56.76 574.65 56.76 574.65 56.75 574.66 56.73 574.68 56.7 574.69 56.68 574.71 56.67 574.74 56.64 574.76 56.63 574.78 56.62 574.8 56.6 574.82 56.59 574.84 56.58 574.9 56.55 574.94 56.51 574.96 56.5 574.99 56.48 575.01 56.47 575.04 56.45 575.05 56.43 575.06 56.41 575.07 56.4 575.08 56.38 575.08 56.36 575.09 56.34 575.09 56.32 575.1 56.31 575.1 56.29 575.11 56.27 575.12 56.24 575.12 56.22 575.13 56.2 575.13 56.18 575.13 56.16 575.13 56.14 575.13 56.12 575.13 56.1 575.13 56.08 575.12 56.06 575.11 56.04 575.11 56.02 575.1 56 575.09 55.99 575.08 55.96 575.08 55.94 575.08 55.93 575.08 55.9 575.08 55.88 575.08 55.87 575.11 55.85 575.14 55.82 575.15 55.8 575.17 55.76 575.18 55.74 575.22 55.68 575.24 55.66 575.26 55.65 575.3 55.62 575.31 55.6 575.33 55.58 575.41 55.54 575.45 55.51 575.49 55.49 575.52 55.48 575.54 55.47 575.56 55.45 575.57 55.45 575.58 55.44 575.64 55.39 575.75 55.29 575.78 55.27 575.81 55.25 575.83 55.24 575.87 55.22 575.89 55.21 575.92 55.2 575.96 55.2 575.98 55.19 575.99 55.19 576.01 55.19 576.02 55.19 576.04 55.19 576.06 55.18 576.08 55.18 576.12 55.19 576.14 55.19 576.16 55.18 576.22 55.17 576.24 55.15 576.26 55.14 576.27 55.12 576.28 55.1 576.29 55.08 576.3 55.06 576.32 55 576.33 54.98 576.35 54.96 576.37 54.95 576.39 54.93 576.43 54.9 576.45 54.88 576.47 54.87 576.49 54.85 576.52 54.84 576.57 54.82 576.61 54.8 576.68 54.76 576.71 54.74 576.73 54.72 576.76 54.69 576.79 54.69 576.82 54.68 576.84 54.68 576.89 54.68 576.9 54.64 576.91 54.62 576.93 54.61 576.94 54.59 576.96 54.55 576.98 54.51 577.01 54.45 577.04 54.41 577.12 54.25 577.13 54.23 577.15 54.21 577.18 54.17 577.19 54.15 577.23 54.09 577.3 54.02 577.31 54.01 577.32 53.99 577.33 53.97 577.33 53.95 577.34 53.93 577.35 53.86 577.36 53.83 577.36 53.81 577.36 53.78 577.37 53.76 577.38 53.74 577.39 53.72 577.39 53.7 577.4 53.68 577.41 53.66 577.41 53.64 577.41 53.62 577.42 53.56 577.43 53.54 577.49 53.34 577.51 52.6 577.57 52.47 577.67 52.32 577.8 52.26 577.96 52.19 577.99 52.18 578 52.18 578.02 52.16 578.04 52.15 578.09 52.13 578.11 52.12 578.13 52.11 578.15 52.1 578.17 52.09 578.21 52.07 578.23 52.05 578.25 52.04 578.27 52.03 578.29 52.02 578.31 52.01 578.34 52 578.36 51.99 578.39 51.98 578.41 51.98 578.44 51.97 578.46 51.96 578.5 51.95 578.52 51.94 578.55 51.93 578.82 51.85 578.84 51.84 578.89 51.82 578.94 51.79 578.99 51.77 579.01 51.76 579.02 51.75 579.04 51.75 579.1 51.72 579.15 51.7 579.16 51.7 579.19 51.68 579.21 51.68 579.22 51.68 579.25 51.67 579.29 51.65 579.32 51.63 579.35 51.62 579.37 51.61 579.41 51.6 579.5 51.56 580.08 51.34 580.15 51.32 580.44 51.12 580.45 51.09 580.46 51.06 580.47 51.03 580.49 51.01 580.5 50.99 580.49 50.97 580.48 50.95 580.47 50.92 580.47 50.9 580.49 50.87 580.51 50.85 580.53 50.83 580.56 50.81 580.59 50.8 580.61 50.78 580.62 50.77 580.64 50.74 580.65 50.72 580.67 50.69 580.7 50.66 580.73 50.64 580.78 50.6 580.85 50.57 580.86 50.56 580.97 50.44 581.01 50.33 581.03 50.31 581.05 50.28 581.07 50.25 581.1 50.23 581.12 50.21 581.15 50.18 581.16 50.15 581.18 50.13 581.19 50.11 581.2 50.08 581.22 50.06 581.23 50.04 581.25 50.01 581.26 49.99 581.26 49.96 581.27 49.91 581.27 49.88 581.27 49.86 581.29 49.84 581.3 49.81 581.3 49.79 581.3 49.77 581.29 49.72 581.29 49.69 581.28 49.65 581.27 49.62 581.27 49.6 581.28 49.56 581.28 49.55 581.28 49.54 581.28 49.51 581.28 49.49 581.26 49.48 581.25 49.46 581.26 49.45 581.26 49.44 581.27 49.43 581.28 49.42 581.3 49.41 581.32 49.41 581.34 49.4 581.33 49.36 581.33 49.34 581.33 49.34 581.33 49.32 581.33 49.29 581.33 49.27 581.34 49.25 581.35 49.23 581.34 49.22 581.33 49.2 581.32 49.2 581.31 49.19 581.29 49.16 581.28 49.14 581.27 49.12 581.28 49.1 581.28 49.07 581.28 49.05 581.27 49.03 581.27 48.99 581.26 48.97 581.26 48.94 581.26 48.92 581.27 48.9 581.3 48.89 581.31 48.86 581.33 48.84 581.35 48.82 581.36 48.8 581.37 48.78 581.37 48.76 581.38 48.73 581.38 48.7 581.38 48.69 581.36 48.67 581.36 48.64 581.38 48.62 581.4 48.61 581.42 48.59 581.44 48.57 581.46 48.56 581.47 48.56 581.48 48.55 581.49 48.53 581.51 48.52 581.53 48.51 581.56 48.5 581.58 48.49 581.58 48.46 581.6 48.43 581.61 48.41 581.62 48.39 581.64 48.38 581.66 48.37 581.67 48.35 581.68 48.32 581.7 48.3 581.73 48.29 581.76 48.3 581.8 48.3 581.83 48.3 581.85 48.29 581.86 48.26 581.88 48.23 581.89 48.2 581.89 48.19 581.89 48.17 581.87 48.16 581.85 48.16 581.83 48.14 581.84 48.12 581.86 48.1 581.88 48.08 581.91 48.07 581.93 48.07 581.95 48.08 581.97 48.09 581.98 48.11 582 48.11 582.01 48.09 582.01 48.06 582.01 48.03 582.02 48 582.05 47.98 582.08 47.96 582.1 47.94 Z"/>
</g></svg>