<svg xmlns="http://www.w3.org/2000/svg" version="1.2" baseProfile="tiny" stroke-linecap="round" stroke-linejoin="round" viewBox="577.2 62.33 21.2 23.87"><g xmlns="http://www.w3.org/2000/svg" id="Kanbo">
<path d="M 589.03 62.44 589.06 62.44 589.1 62.45 589.12 62.47 589.15 62.49 589.16 62.51 589.18 62.54 589.2 62.57 589.21 62.6 589.24 62.62 589.27 62.63 589.31 62.63 589.34 62.63 589.37 62.63 589.4 62.65 589.43 62.65 589.44 62.65 589.47 62.66 589.46 62.69 589.46 62.71 589.45 62.74 589.44 62.77 589.43 62.8 589.42 62.83 589.41 62.87 589.39 62.9 589.37 62.91 589.35 62.89 589.33 62.89 589.3 62.9 589.3 62.93 589.29 62.96 589.29 62.99 589.28 63.01 589.25 63.02 589.23 63.03 589.25 63.05 589.27 63.06 589.3 63.07 589.33 63.08 589.33 63.1 589.32 63.12 589.31 63.14 589.31 63.17 589.32 63.19 589.34 63.21 589.36 63.22 589.4 63.24 589.44 63.25 589.47 63.26 589.5 63.28 589.51 63.3 589.5 63.32 589.49 63.32 589.48 63.33 589.47 63.36 589.48 63.38 589.48 63.4 589.49 63.42 589.49 63.43 589.48 63.45 589.47 63.47 589.48 63.48 589.5 63.49 589.52 63.51 589.54 63.54 589.55 63.54 589.57 63.56 589.59 63.57 589.6 63.61 589.62 63.63 589.64 63.64 589.66 63.65 589.69 63.66 589.72 63.68 589.76 63.7 589.78 63.71 589.81 63.75 589.81 63.77 589.79 63.78 589.76 63.78 589.73 63.78 589.7 63.78 589.67 63.79 589.66 63.81 589.65 63.83 589.64 63.86 589.63 63.9 589.62 63.94 589.61 63.97 589.63 64 589.66 63.99 589.68 63.98 589.7 63.96 589.73 63.96 589.74 63.98 589.75 64 589.75 64.03 589.76 64.06 589.76 64.09 589.78 64.11 589.81 64.13 589.85 64.14 589.88 64.14 589.91 64.12 589.94 64.1 589.96 64.09 589.97 64.11 589.97 64.13 589.96 64.16 589.95 64.18 589.97 64.2 589.99 64.21 590.02 64.22 590.04 64.21 590.06 64.22 590.09 64.23 590.11 64.24 590.11 64.27 590.12 64.31 590.16 64.34 590.18 64.32 590.2 64.32 590.22 64.35 590.23 64.37 590.23 64.4 590.22 64.44 590.2 64.46 590.19 64.5 590.2 64.52 590.21 64.52 590.24 64.5 590.27 64.5 590.29 64.51 590.3 64.54 590.29 64.58 590.28 64.6 590.26 64.63 590.28 64.65 590.3 64.65 590.34 64.65 590.37 64.66 590.41 64.67 590.45 64.65 590.48 64.64 590.5 64.65 590.5 64.68 590.5 64.71 590.52 64.73 590.54 64.71 590.56 64.72 590.58 64.74 590.58 64.77 590.57 64.8 590.58 64.82 590.58 64.86 590.57 64.89 590.57 64.9 590.57 64.93 590.58 64.96 590.59 64.99 590.6 65.03 590.6 65.06 590.6 65.09 590.59 65.12 590.6 65.14 590.62 65.14 590.64 65.15 590.65 65.15 590.69 65.16 590.73 65.17 590.76 65.17 590.79 65.18 590.8 65.2 590.82 65.24 590.84 65.27 590.86 65.3 590.88 65.34 590.89 65.36 590.91 65.4 590.93 65.43 590.94 65.47 590.95 65.5 590.95 65.54 590.97 65.56 590.99 65.59 591.02 65.61 591.04 65.62 591.07 65.64 591.09 65.66 591.11 65.69 591.13 65.7 591.16 65.72 591.18 65.73 591.2 65.74 591.21 65.77 591.21 65.79 591.21 65.8 591.21 65.83 591.21 65.86 591.23 65.87 591.26 65.88 591.29 65.88 591.32 65.88 591.36 65.87 591.38 65.86 591.41 65.86 591.43 65.88 591.43 65.9 591.44 65.93 591.45 65.96 591.46 65.99 591.47 66.01 591.5 66 591.53 65.99 591.55 66 591.56 66.03 591.57 66.05 591.57 66.09 591.57 66.12 591.6 66.14 591.61 66.15 591.62 66.15 591.63 66.17 591.63 66.2 591.64 66.22 591.66 66.25 591.68 66.26 591.71 66.27 591.76 66.27 591.78 66.29 591.81 66.3 591.82 66.32 591.81 66.34 591.81 66.36 591.8 66.39 591.8 66.42 591.8 66.43 591.8 66.45 591.8 66.49 591.81 66.51 591.84 66.51 591.87 66.51 591.89 66.51 591.92 66.51 591.94 66.51 591.96 66.52 591.99 66.52 592.01 66.52 592.03 66.51 592.05 66.51 592.07 66.52 592.08 66.55 592.1 66.58 592.11 66.59 592.14 66.62 592.13 66.64 592.13 66.65 592.12 66.66 592.1 66.66 592.09 66.67 592.09 66.67 592.08 66.68 592.09 66.71 592.1 66.72 592.11 66.73 592.12 66.75 592.13 66.76 592.13 66.78 592.14 66.8 592.14 66.81 592.13 66.83 592.13 66.84 592.13 66.85 592.14 66.86 592.16 66.87 592.17 66.88 592.18 66.89 592.19 66.89 592.19 66.91 592.18 66.92 592.17 66.93 592.16 66.94 592.16 66.95 592.17 66.96 592.18 66.99 592.17 67 592.16 67.02 592.15 67.03 592.15 67.04 592.14 67.05 592.14 67.07 592.14 67.08 592.13 67.09 592.13 67.1 592.13 67.11 592.12 67.12 592.12 67.12 592.12 67.14 592.12 67.15 592.13 67.16 592.13 67.17 592.13 67.18 592.13 67.19 592.14 67.2 592.14 67.21 592.14 67.23 592.14 67.24 592.14 67.25 592.15 67.27 592.15 67.28 592.16 67.28 592.17 67.29 592.18 67.3 592.19 67.31 592.2 67.32 592.21 67.33 592.25 67.37 592.26 67.41 592.28 67.43 592.33 67.47 592.34 67.48 592.36 67.5 592.38 67.53 592.39 67.54 592.41 67.57 592.42 67.6 592.44 67.62 592.46 67.64 592.47 67.67 592.49 67.7 592.51 67.72 592.53 67.74 592.55 67.75 592.58 67.75 592.61 67.76 592.63 67.77 592.65 67.78 592.68 67.8 592.7 67.81 592.73 67.83 592.75 67.83 592.78 67.83 592.8 67.83 592.82 67.84 592.85 67.9 592.87 67.91 592.89 67.93 592.91 67.94 592.94 67.95 592.96 67.95 592.99 67.96 593.02 67.96 593.04 67.95 593.06 67.96 593.08 67.96 593.1 67.98 593.11 67.99 593.13 68.01 593.16 68.03 593.2 68.04 593.22 68.05 593.25 68.05 593.27 68.06 593.28 68.06 593.31 68.08 593.34 68.09 593.36 68.1 593.4 68.11 593.42 68.12 593.45 68.14 593.48 68.15 593.51 68.16 593.53 68.17 593.56 68.17 593.66 68.17 593.68 68.18 593.7 68.18 593.73 68.19 593.75 68.19 593.78 68.19 593.81 68.2 593.84 68.2 593.87 68.21 593.89 68.23 593.9 68.24 593.92 68.26 593.93 68.29 593.95 68.3 593.97 68.32 593.98 68.34 594.01 68.37 594.03 68.38 594.05 68.4 594.07 68.43 594.09 68.45 594.11 68.47 594.12 68.49 594.14 68.52 594.15 68.54 594.17 68.56 594.19 68.58 594.21 68.6 594.23 68.62 594.25 68.65 594.27 68.67 594.29 68.69 594.31 68.72 594.32 68.73 594.33 68.76 594.35 68.78 594.37 68.8 594.39 68.82 594.42 68.85 594.44 68.86 594.46 68.87 594.48 68.88 594.52 68.89 594.54 68.9 594.56 68.9 594.59 68.89 594.62 68.88 594.66 68.87 594.78 69.07 594.81 69.16 594.86 69.25 594.88 69.28 594.92 69.32 595.02 69.41 595.06 69.43 595.08 69.44 595.16 69.62 595.12 69.67 595.11 69.7 595.09 69.73 595.08 69.76 595.07 69.8 595.07 69.82 595.04 69.87 595.02 69.91 595 69.93 594.98 69.96 594.97 69.98 594.96 70 594.94 70.03 594.93 70.06 594.91 70.1 594.9 70.14 594.89 70.17 594.88 70.21 594.87 70.25 594.87 70.28 594.86 70.3 594.83 70.33 594.82 70.35 594.81 70.37 594.8 70.41 594.79 70.44 594.78 70.47 594.76 70.5 594.75 70.53 594.72 70.57 594.71 70.6 594.72 70.63 594.73 70.66 594.74 70.68 594.76 70.71 594.78 70.74 594.79 70.76 594.8 70.79 594.81 70.82 594.81 70.84 594.82 70.88 594.82 70.9 594.84 70.93 594.86 70.95 594.88 70.98 594.9 71 594.93 71.04 594.95 71.06 594.98 71.09 595 71.1 595.03 71.12 595.06 71.13 595.08 71.16 595.1 71.2 595.12 71.22 595.15 71.24 595.18 71.27 595.2 71.3 595.22 71.33 595.22 71.37 595.07 71.56 595.05 71.59 595.05 71.62 595.04 71.66 595.03 71.69 595.03 71.72 595.02 71.79 595.02 71.8 595.02 71.82 595.02 71.83 595.02 71.85 595.02 71.88 595.01 71.9 595.01 71.92 595.01 71.93 595.01 71.95 595.01 71.97 595.01 71.99 595.01 72.02 595.01 72.04 595 72.07 594.99 72.11 594.99 72.12 594.98 72.14 594.97 72.15 594.95 72.17 594.94 72.19 594.92 72.2 594.9 72.22 594.88 72.25 594.86 72.28 594.84 72.31 594.81 72.35 594.8 72.37 594.79 72.38 594.78 72.4 594.75 72.44 594.74 72.47 594.76 72.48 594.78 72.5 594.8 72.51 594.82 72.52 594.83 72.53 594.85 72.53 594.89 72.54 594.91 72.54 594.93 72.55 594.95 72.55 594.96 72.55 595 72.57 595.02 72.58 595.03 72.58 595.05 72.59 595.07 72.59 595.09 72.6 595.12 72.61 595.13 72.61 595.15 72.62 595.17 72.63 595.19 72.63 595.28 72.63 595.29 72.63 595.3 72.64 595.31 72.64 595.31 72.65 595.31 72.66 595.31 72.67 595.31 72.67 595.3 72.69 595.29 72.7 595.3 72.71 595.3 72.72 595.31 72.72 595.32 72.72 595.36 72.71 595.38 72.7 595.39 72.7 595.41 72.69 595.43 72.69 595.45 72.68 595.48 72.68 595.5 72.68 595.51 72.68 595.53 72.68 595.55 72.68 595.57 72.68 595.58 72.68 595.6 72.68 595.62 72.68 595.64 72.67 595.66 72.67 595.67 72.67 595.69 72.68 595.7 72.69 595.7 72.7 595.71 72.71 595.71 72.73 595.71 72.74 595.72 72.76 595.72 72.77 595.73 72.78 595.74 72.78 595.74 73.13 595.86 73.55 596.14 74.04 596.16 74.94 596.12 75.01 596.11 75.06 596.09 75.08 596.09 75.1 596.09 75.12 596.08 75.14 596.07 75.14 596.07 75.15 596.05 75.16 596.11 75.49 596.12 75.98 596.26 76.46 596.34 76.6 596.54 76.78 596.55 76.93 596.63 77 596.97 77.19 597 77.28 597.15 77.85 597.2 77.85 597.3 78.47 597.41 79.09 597.45 79.71 597.45 79.73 597.45 79.75 597.45 79.77 597.45 79.8 597.45 79.81 597.45 79.83 597.45 79.86 597.46 79.87 597.46 79.89 597.47 79.91 597.48 79.95 597.48 79.97 597.49 79.99 597.5 80.01 597.5 80.03 597.5 80.05 597.52 80.07 597.53 80.09 597.54 80.1 597.55 80.11 597.57 80.13 597.59 80.16 597.6 80.17 597.62 80.19 597.65 80.24 597.69 80.3 597.71 80.34 597.72 80.36 597.73 80.39 597.73 80.42 597.73 80.44 597.73 80.47 597.74 80.5 597.74 80.54 597.75 80.56 597.76 80.58 597.77 80.61 597.79 80.64 597.8 80.66 597.82 80.67 597.83 80.7 597.85 80.72 597.86 80.75 597.88 80.78 597.89 80.8 597.89 80.83 597.89 80.86 597.9 80.91 597.9 80.92 597.91 80.94 597.92 80.96 597.93 80.97 597.95 80.99 597.96 81 598.01 81.02 598.11 81.06 598.12 81.07 598.14 81.08 598.16 81.08 598.17 81.08 598.19 81.08 598.22 81.08 598.24 81.09 598.26 81.11 598.27 81.12 598.29 81.14 598.34 81.22 598.36 81.25 598.37 81.27 598.37 81.28 598.18 81.44 597.56 82.22 597.26 82.46 596.19 83.59 596.11 83.66 595.96 83.83 595.93 83.85 595.9 83.86 595.82 83.88 595.78 83.89 595.6 84.17 594.96 84.72 594.91 84.78 594.27 85.19 594.24 85.24 594.18 85.36 594.13 85.48 594.04 85.63 594.02 85.65 594.01 85.66 593.98 85.7 593.96 85.73 593.96 85.76 593.94 85.79 593.93 85.81 593.92 85.84 593.9 85.86 593.86 85.92 593.84 85.95 593.83 85.97 593.83 86 593.82 86.01 593.81 86.03 593.81 86.05 593.8 86.08 593.8 86.09 593.79 86.11 593.78 86.12 593.76 86.13 593.74 86.14 593.73 86.15 593.71 86.17 593.7 86.19 593.69 86.2 593.33 85.64 593.17 85.59 593.13 85.6 593.11 85.61 593.08 85.63 593.06 85.64 593.03 85.65 593 85.64 592.97 85.62 592.94 85.6 592.92 85.59 592.9 85.58 592.86 85.58 592.84 85.57 592.81 85.56 592.8 85.54 592.78 85.52 592.77 85.51 592.74 85.51 592.73 85.52 592.71 85.52 592.66 85.52 592.63 85.52 592.61 85.5 592.59 85.49 592.57 85.49 592.54 85.5 592.52 85.5 592.49 85.5 592.46 85.5 592.43 85.5 592.4 85.49 592.38 85.48 592.36 85.47 592.33 85.46 592.32 85.44 592.3 85.42 592.28 85.4 592.26 85.38 592.24 85.37 592.23 85.36 592.21 85.33 592.19 85.31 592.17 85.3 592.15 85.3 592.12 85.29 592.1 85.29 592.08 85.28 592.06 85.27 591.58 85.16 591.57 85.14 591.55 85.1 591.53 85.07 591.48 85.03 591.44 85 591.37 84.96 591.29 84.92 591.22 84.88 591.16 84.85 591.09 84.81 591 84.75 590.93 84.72 590.87 84.69 590.83 84.67 590.81 84.65 590.79 84.64 590.78 84.62 590.76 84.61 590.74 84.61 590.32 84.27 589.7 83.87 589.49 83.83 589.43 83.83 589.38 83.84 589.34 83.84 589.27 83.84 589.22 83.84 589.17 83.85 589.12 83.85 589.05 83.86 589.02 83.87 588.98 83.88 588.94 83.89 588.91 83.89 588.87 83.89 588.83 83.88 588.77 83.88 588.74 83.88 588.71 83.88 588.68 83.87 588.64 83.87 588.61 83.85 588.57 83.83 588.53 83.83 588.5 83.83 588.44 83.83 588.39 83.82 588.35 83.82 588.31 83.8 588.26 83.8 588.23 83.8 588.17 83.8 588.09 83.8 588.03 83.79 587.98 83.78 587.91 83.77 587.85 83.76 587.79 83.76 587.71 83.76 587.66 83.76 587.59 83.75 587.55 83.73 587.52 83.7 587.53 83.64 587.56 83.53 587.59 83.37 587.6 83.3 587.6 83.27 587.6 83.2 587.61 83.16 587.63 82.91 587.65 82.84 587.68 82.68 587.69 82.64 587.71 82.46 587.72 82.39 587.71 82.29 587.71 82.25 587.71 82.23 587.7 82.2 587.68 82.11 587.67 82.08 587.67 82.05 587.67 82.01 587.67 81.96 587.68 81.91 587.67 81.85 587.67 81.79 587.67 81.75 587.67 81.67 587.67 81.6 587.67 81.55 587.69 81.47 587.7 81.41 587.72 81.35 587.74 81.31 587.76 81.27 587.79 81.24 587.81 81.22 587.76 81.19 587.73 81.17 587.71 81.14 587.7 81.12 587.68 81.1 587.67 81.09 587.62 81.06 587.57 81.03 587.51 81 587.48 80.98 587.45 80.97 587.38 80.93 587.3 80.91 587.22 80.88 587.13 80.85 587.05 80.82 587.01 80.81 586.96 80.79 586.93 80.78 586.89 80.77 586.83 80.77 586.8 80.76 586.78 80.76 586.75 80.76 586.72 80.76 586.7 80.76 586.68 80.74 586.66 80.71 586.65 80.7 586.64 80.67 586.62 80.64 586.61 80.61 586.59 80.59 586.58 80.55 586.56 80.5 586.54 80.48 585.64 80.49 584.51 80.4 583.73 80.21 583.2 80.24 583.11 80.11 582.95 79.97 582.26 79.84 582.14 79.83 582.02 79.84 581.96 79.85 581.91 79.85 581.84 79.83 581.72 79.78 581.64 79.76 581.6 79.75 581.44 79.68 581.4 79.68 581.38 79.68 581.35 79.68 581.3 79.66 581.2 79.59 581.1 79.52 581.02 79.48 581 79.47 580.96 79.43 580.95 79.41 580.93 79.4 580.88 79.39 580.84 79.37 580.81 79.35 580.79 79.34 580.69 79.28 580.6 79.23 580.54 79.2 580.48 79.17 580.41 79.14 580.39 79.13 579.64 78.6 579.39 78.41 579.28 78.28 579.25 78.27 579.26 78.24 579.27 78.22 579.28 78.2 579.28 78.17 579.29 78.15 579.29 78.12 579.29 78.1 579.27 78.08 579.25 78.08 579.22 78.07 579.18 78.06 579.13 78.05 579.1 78.04 579.06 78.03 579.03 78.03 579.01 78.02 579 78 578.98 77.96 578.98 77.94 578.97 77.87 578.98 77.8 578.99 77.79 579.01 77.76 579.04 77.74 579.08 77.69 579.1 77.64 579.14 77.6 579.16 77.58 579.17 77.55 579.18 77.52 579.19 77.49 579.2 77.46 579.24 77.43 579.26 77.4 579.28 77.37 579.3 77.33 579.32 77.3 579.34 77.26 579.35 77.23 579.36 77.19 579.36 77.15 579.36 77.06 579.35 77 579.34 76.97 579.34 76.92 579.34 76.9 579.42 76.77 579.44 76.73 579.46 76.7 579.48 76.65 579.5 76.6 579.51 76.55 579.51 76.49 579.52 76.42 579.51 76.35 579.51 76.25 579.5 76.17 579.49 76.08 579.24 75.97 579.25 75.84 579.45 75.8 579.43 75.71 579.41 75.62 579.4 75.58 579.39 75.52 579.37 75.46 579.35 75.39 579.33 75.32 579.31 75.26 579.29 75.21 579.28 75.14 579.23 74.95 579.27 74.92 579.31 74.9 579.32 74.85 579.4 74.7 579.41 74.66 579.43 74.62 579.43 74.59 579.42 74.56 579.41 74.53 579.38 74.51 579.33 74.48 579.3 74.47 579.23 74.45 579.17 74.45 579.13 74.44 579.09 74.44 579.05 74.39 579.04 74.35 579.03 74.31 578.97 74.26 578.94 74.24 578.93 74.22 578.92 74.18 578.91 74.14 578.89 74.1 578.86 74.05 578.85 74 578.83 73.97 578.8 73.94 578.77 73.91 578.74 73.87 578.3 73.76 578.13 73.53 578.08 73.37 578.03 73.34 577.99 73.32 577.93 73.28 577.91 73.24 577.89 73.2 577.87 73.17 577.85 73.11 577.84 73.06 577.81 73.03 577.78 73.02 577.74 72.99 577.72 72.98 577.72 72.95 577.72 72.93 577.73 72.89 577.73 72.86 577.72 72.82 577.71 72.78 577.7 72.77 577.67 72.71 577.66 72.68 577.66 72.65 577.66 72.6 577.66 72.58 577.64 72.55 577.6 72.53 577.49 72.47 577.44 72.45 577.4 72.41 577.35 72.34 577.33 72.31 577.3 72.25 577.29 72.22 577.29 72.18 577.28 72.15 577.28 72.1 577.29 72.04 577.3 71.99 577.31 71.91 577.32 71.86 577.33 71.84 577.33 71.81 577.32 71.78 577.29 71.76 577.26 71.73 577.24 71.7 577.23 71.67 577.21 71.63 577.5 71.56 577.57 71.67 577.7 71.77 577.78 71.81 577.82 71.85 577.88 71.88 577.97 71.89 578.06 71.89 578.18 71.88 578.24 71.84 578.32 71.76 578.38 71.71 578.45 71.67 578.56 71.6 578.57 71.6 578.61 71.59 578.72 71.58 578.8 71.57 578.83 71.55 579.06 71.44 579.35 71.29 579.5 71.19 579.62 71.13 579.65 71.12 579.82 71.04 579.95 71 580.03 70.97 580.08 70.88 580.11 70.77 580.12 70.71 580.09 70.58 580.08 70.52 580.1 70.41 580.12 70.34 580.21 70.32 580.79 70.15 581.04 70.1 581.22 70.11 581.29 70.14 581.31 70.06 581.32 70.03 581.32 69.95 581.32 69.86 581.33 69.83 581.33 69.79 581.35 69.75 581.36 69.71 581.37 69.68 581.4 69.64 581.42 69.6 581.45 69.58 581.47 69.55 581.49 69.51 581.51 69.48 581.54 69.44 581.57 69.39 581.61 69.35 581.58 68.63 581.43 68.44 581.46 68.42 581.51 68.36 581.55 68.3 581.58 68.26 581.59 68.23 581.6 68.18 581.6 68.14 581.61 68.1 581.62 68.07 581.63 68.04 581.66 67.97 581.67 67.93 581.88 67.53 581.9 67.48 581.94 67.37 581.99 67.24 582.04 67.11 582.06 67.06 582.08 67.02 582.1 66.99 582.13 66.95 582.12 66.76 582.37 66.47 582.51 66.29 582.51 66.28 582.52 66.27 582.53 66.25 582.55 66.23 582.56 66.22 582.57 66.2 582.6 66.17 582.61 66.15 582.62 66.13 582.63 66.12 582.64 66.11 582.65 66.09 582.66 66.07 582.67 66.06 582.67 66.05 582.7 66 582.71 65.99 582.72 65.96 582.77 65.91 582.86 65.81 582.95 65.7 583.01 65.61 583.02 65.6 583.08 65.53 583.14 65.48 583.18 65.45 583.47 65.23 583.62 65.11 583.72 65.02 583.75 65 583.83 64.93 583.88 64.89 583.9 64.88 584.09 64.72 584.25 64.59 584.34 64.51 584.44 64.42 584.46 64.41 584.49 64.39 584.57 64.33 584.65 64.28 584.7 64.23 584.74 64.21 584.73 64.19 584.69 64.08 584.82 64.04 584.98 63.92 585.57 63.63 585.74 63.53 585.96 63.46 585.98 63.45 586.01 63.44 586.04 63.44 586.07 63.44 586.1 63.44 586.13 63.45 586.15 63.46 586.18 63.45 586.21 63.45 586.22 63.44 586.26 63.43 586.3 63.44 586.34 63.43 586.36 63.44 586.39 63.45 586.42 63.45 586.45 63.45 586.48 63.46 586.51 63.47 586.55 63.48 586.58 63.49 586.61 63.5 586.64 63.5 586.67 63.49 586.7 63.5 586.73 63.51 586.77 63.52 586.8 63.53 586.83 63.53 586.86 63.53 586.9 63.54 586.93 63.56 586.94 63.56 586.96 63.54 586.99 63.52 587 63.5 587 63.47 587.01 63.44 587.03 63.42 587.07 63.39 587.07 63.36 587.09 63.34 587.12 63.33 587.14 63.3 587.17 63.27 587.18 63.25 587.2 63.21 587.22 63.18 587.24 63.14 587.26 63.11 587.29 63.1 587.3 63.07 587.3 63.04 587.32 63.02 587.34 62.97 587.35 62.94 587.36 62.9 587.38 62.87 587.4 62.86 587.42 62.84 587.44 62.8 587.45 62.78 587.47 62.76 587.49 62.76 587.52 62.75 587.53 62.72 587.56 62.68 587.59 62.67 587.62 62.65 587.65 62.63 587.67 62.61 587.68 62.61 587.72 62.58 587.75 62.56 587.8 62.55 587.84 62.54 587.87 62.53 587.9 62.51 587.92 62.51 587.96 62.49 587.99 62.47 588 62.44 588 62.41 588.03 62.41 588.05 62.41 588.08 62.41 588.11 62.39 588.14 62.38 588.16 62.4 588.19 62.42 588.22 62.43 588.26 62.39 588.27 62.39 588.28 62.38 588.33 62.37 588.37 62.37 588.4 62.38 588.42 62.38 588.46 62.36 588.49 62.37 588.51 62.4 588.54 62.41 588.57 62.44 588.6 62.46 588.62 62.47 588.65 62.48 588.67 62.47 588.7 62.47 588.71 62.49 588.72 62.52 588.75 62.52 588.77 62.52 588.8 62.51 588.82 62.51 588.85 62.5 588.89 62.49 588.91 62.48 588.93 62.48 588.94 62.47 588.96 62.48 588.98 62.51 589 62.52 589.02 62.52 589.04 62.52 589.04 62.5 589.03 62.48 589.03 62.44 Z"/>
</g></svg>