<svg xmlns="http://www.w3.org/2000/svg" version="1.2" baseProfile="tiny" stroke-linecap="round" stroke-linejoin="round" viewBox="293.37 319.85 40.62 41.53"><g xmlns="http://www.w3.org/2000/svg" id="Kanpezu">
<path d="M 326.08 321.89 325.97 321.95 325.94 321.97 325.77 321.97 325.57 321.97 325.34 321.98 325.15 321.98 325.07 322.2 324.98 322.42 324.96 322.48 324.95 322.51 324.88 322.72 324.8 322.92 324.76 323.09 324.72 323.24 324.71 323.3 324.74 323.42 324.78 323.52 324.78 323.55 324.78 323.58 324.75 323.62 324.69 323.68 324.67 323.7 324.65 323.74 324.64 323.8 324.64 323.93 324.63 324.16 324.62 324.23 324.6 324.37 324.59 324.44 324.56 324.61 324.55 324.74 324.52 324.91 324.52 324.98 324.53 325.07 324.52 325.11 324.5 325.2 324.46 325.32 324.42 325.39 324.4 325.45 324.38 325.5 324.35 325.61 324.33 325.75 324.3 325.89 324.28 326 324.26 326.05 324.25 326.09 324.24 326.11 324.22 326.13 324.18 326.16 324.1 326.21 324.08 326.22 324.01 326.25 323.97 326.29 323.91 326.34 323.86 326.4 323.83 326.44 323.81 326.47 323.77 326.62 323.73 326.8 323.7 326.97 323.7 327.11 323.75 327.27 323.77 327.38 323.79 327.49 323.8 327.61 323.81 327.7 323.87 327.8 323.93 327.9 323.95 327.96 323.94 328.06 323.93 328.18 323.93 328.32 323.95 328.41 323.97 328.45 323.99 328.49 324.01 328.54 324.08 328.62 324.13 328.71 324.16 328.79 324.23 328.91 324.27 329 324.49 329.2 324.64 329.34 324.67 329.37 324.74 329.26 324.75 329.24 324.92 328.98 324.94 328.96 325.1 328.71 325.11 328.68 325.24 328.46 325.28 328.4 325.31 328.53 325.35 328.7 325.36 328.73 325.41 328.93 325.45 329.11 325.51 329.34 325.56 329.53 325.58 329.6 325.71 329.76 325.85 329.93 325.9 330.02 325.92 330.06 325.98 330.17 326 330.21 326.04 330.29 326.06 330.32 326.1 330.41 326.14 330.47 326.22 330.57 326.28 330.69 326.38 330.9 326.49 331.14 326.53 331.19 326.56 331.23 326.68 331.36 326.72 331.4 326.8 331.48 326.96 331.63 327.04 331.7 327.06 331.72 327.07 331.73 327.06 331.75 327.07 331.78 327.07 331.81 327.08 331.83 327.09 331.84 327.1 331.85 327.07 331.92 327.04 332 327.03 332.02 327.02 332.07 327.03 332.12 327.04 332.14 327.04 332.3 327.05 332.3 327.07 332.29 327.09 332.28 327.22 332.28 327.24 332.28 327.28 332.29 327.3 332.3 327.35 332.33 327.39 332.34 327.43 332.34 327.46 332.35 327.47 332.35 327.46 332.36 327.44 332.37 327.41 332.39 327.4 332.41 327.38 332.46 327.36 332.52 327.35 332.54 327.35 332.6 327.34 332.67 327.33 332.74 327.32 332.8 327.32 332.86 327.32 332.92 327.33 333.03 327.34 333.15 327.35 333.24 327.35 333.32 327.35 333.36 327.28 333.37 327.14 333.39 327.05 333.41 326.93 333.43 326.9 333.43 326.87 333.44 326.87 333.58 326.85 333.84 326.85 333.89 326.85 333.91 326.83 333.92 326.8 333.96 326.74 334.02 326.65 334.12 326.63 334.14 326.62 334.16 326.59 334.21 326.56 334.28 326.55 334.32 326.54 334.33 326.52 334.39 326.51 334.41 326.48 334.57 326.47 334.62 326.46 334.66 326.46 334.68 326.46 334.72 326.47 334.75 326.51 334.83 326.61 334.93 326.72 335.05 326.8 335.14 326.81 335.17 326.84 335.25 326.89 335.39 326.9 335.39 326.96 335.49 327.01 335.55 327.02 335.57 327.04 335.61 327.06 335.66 327.1 335.77 327.1 335.79 327.12 335.85 327.15 335.95 327.17 336.03 327.17 336.04 327.18 336.09 327.19 336.17 327.2 336.19 327.21 336.26 327.25 336.42 327.27 336.47 327.29 336.51 327.32 336.57 327.33 336.62 327.34 336.69 327.35 336.73 327.35 336.78 327.38 336.91 327.38 336.95 327.38 336.97 327.38 337.02 327.38 337.04 327.36 337.17 327.35 337.2 327.33 337.29 327.29 337.47 327.27 337.6 327.26 337.65 327.22 337.85 327.22 337.88 327.2 338.03 327.19 338.07 327.18 338.09 327.12 338.09 327.09 338.09 326.91 338.09 326.91 338.1 326.92 338.19 326.93 338.34 326.93 338.39 326.94 338.63 326.94 338.65 326.95 338.75 326.95 338.76 326.95 338.77 326.95 338.8 326.97 338.91 326.98 339 326.99 339.06 327 339.15 327 339.19 327.01 339.2 327.02 339.33 327.02 339.34 327.02 339.35 327.05 339.47 327.05 339.5 327.07 339.58 327.09 339.71 327.1 339.82 327.13 340 327.16 340.24 327.17 340.29 327.18 340.37 327.18 340.41 327.2 340.54 327.2 340.58 327.2 340.59 327.18 340.6 327.11 340.65 327.08 340.67 327.02 340.72 326.96 340.77 326.89 340.83 326.85 340.87 326.81 340.9 326.77 340.94 326.71 341.01 326.67 341.07 326.61 341.16 326.53 341.29 326.43 341.47 326.33 341.65 326.22 341.87 326.12 342.07 326.08 342.15 325.98 342.31 325.94 342.36 325.96 342.4 325.98 342.44 325.98 342.45 325.97 342.47 325.94 342.5 325.92 342.53 325.88 342.61 325.86 342.65 325.87 342.66 325.91 342.67 325.99 342.69 326.06 342.7 326.15 342.71 326.25 342.72 326.34 342.74 326.35 342.74 326.37 342.75 326.4 342.76 326.43 342.77 326.47 342.79 326.55 342.86 326.64 342.94 326.66 342.96 326.75 343.07 326.83 343.16 326.84 343.16 326.91 343.23 326.92 343.24 326.93 343.26 327.01 343.32 327.1 343.38 327.13 343.4 327.19 343.42 327.26 343.45 327.37 343.5 327.4 343.81 327.42 343.94 327.43 344.04 327.45 344.18 327.5 344.44 327.53 344.58 327.56 344.73 327.6 344.85 327.6 344.89 327.61 344.91 327.63 345.01 327.68 345.26 327.71 345.41 327.73 345.49 327.74 345.61 327.75 345.8 327.75 345.97 327.76 346.02 327.84 346.02 328.07 345.99 328.27 345.98 328.49 345.96 328.5 345.96 328.53 345.93 328.56 345.88 328.59 345.85 328.63 345.8 328.69 345.75 328.75 345.66 328.81 345.58 328.91 345.49 328.97 345.44 329.05 345.37 329.17 345.27 329.24 345.21 329.38 345.13 329.48 345.07 329.63 344.99 329.78 344.9 329.93 344.83 330.1 344.76 330.23 344.71 330.32 344.68 330.39 344.67 330.47 344.67 330.53 344.68 330.62 344.66 330.66 344.67 330.72 344.7 330.77 344.74 330.83 344.78 330.96 344.83 331.07 344.87 331.17 344.9 331.3 344.93 331.41 344.96 331.56 344.96 331.68 344.96 331.79 344.95 331.89 344.91 331.93 344.89 331.95 344.86 331.96 344.81 331.96 344.76 331.96 344.73 331.98 344.72 332.03 344.71 332.09 344.72 332.13 344.71 332.18 344.71 332.33 344.72 332.38 344.71 332.44 344.76 332.51 344.83 332.58 344.9 332.61 344.94 332.64 344.99 332.66 345.13 332.68 345.29 332.71 345.44 332.73 345.56 332.76 345.7 332.79 345.82 332.84 345.99 332.89 346.14 332.94 346.24 333.04 346.39 333.08 346.45 333.13 346.53 333.17 346.59 333.23 346.68 333.24 346.71 333.26 346.75 333.3 346.85 333.31 346.87 333.32 346.92 333.34 346.98 333.39 347.14 333.43 347.27 333.47 347.43 333.55 347.62 333.58 347.72 333.63 347.85 333.68 348 333.73 348.15 333.77 348.27 333.81 348.41 333.85 348.54 333.88 348.74 333.89 348.76 333.89 348.88 333.89 349.08 333.89 349.2 333.89 349.32 333.89 349.51 333.87 349.64 333.85 349.77 333.84 349.88 333.81 350.02 333.8 350.11 333.79 350.21 333.78 350.3 333.8 350.39 333.83 350.47 333.86 350.58 333.89 350.72 333.88 350.85 333.87 350.96 333.87 351.15 333.88 351.27 333.89 351.44 333.9 351.57 333.93 351.73 333.95 351.9 333.93 352.01 333.92 352.11 333.92 352.15 333.93 352.21 333.95 352.33 333.95 352.57 333.94 352.65 333.91 352.79 333.82 353.03 333.69 353.27 333.61 353.39 333.51 353.53 333.4 353.69 333.21 353.96 333.07 354.12 333.03 354.16 333 354.18 332.9 354.21 332.88 354.21 332.61 354.26 332.37 354.31 332.1 354.33 332 354.34 331.86 354.35 331.71 354.33 331.52 354.29 331.33 354.24 331.15 354.2 331.05 354.18 331.12 354.26 331.26 354.44 331.39 354.6 331.46 354.7 331.36 354.71 331.28 354.71 331.23 354.71 331.15 354.72 331.08 354.72 331.03 354.72 330.96 354.73 330.87 354.72 330.8 354.73 330.78 354.73 330.73 354.73 330.66 354.71 330.61 354.7 330.53 354.67 330.46 354.66 330.38 354.65 330.35 354.65 330.25 354.63 330.19 354.62 330.1 354.62 330.03 354.61 329.95 354.6 329.88 354.59 329.8 354.58 329.71 354.57 329.62 354.56 329.52 354.55 329.42 354.53 329.33 354.52 329.24 354.5 329.17 354.49 329.09 354.49 329 354.48 328.92 354.47 328.84 354.45 328.77 354.44 328.7 354.42 328.62 354.41 328.54 354.39 328.46 354.37 328.37 354.35 328.29 354.33 328.21 354.32 328.13 354.3 328.06 354.29 327.99 354.28 327.91 354.27 327.83 354.26 327.78 354.26 327.71 354.26 327.63 354.26 327.61 354.26 327.55 354.26 327.5 354.26 327.47 354.27 327.43 354.33 327.42 354.35 327.38 354.42 327.35 354.47 327.31 354.54 327.29 354.59 327.26 354.64 327.23 354.67 327.22 354.69 327.19 354.74 327.12 354.82 327.08 354.86 327.06 354.86 326.94 354.85 326.8 354.84 326.7 354.84 326.64 354.84 326.57 354.82 326.49 354.81 326.46 354.81 326.41 354.83 326.35 354.84 326.28 354.86 326.25 354.88 326.21 354.93 326.18 354.97 326.16 354.99 326.12 355.04 326.09 355.09 326.06 355.13 326.01 355.19 325.96 355.24 325.94 355.25 325.91 355.29 325.87 355.3 325.83 355.32 325.78 355.33 325.71 355.34 325.67 355.36 325.63 355.37 325.58 355.39 325.54 355.41 325.5 355.43 325.46 355.46 325.38 355.54 325.34 355.59 325.3 355.64 325.25 355.69 325.19 355.74 325.13 355.79 325.04 355.85 324.98 355.88 324.92 355.94 324.86 356 324.81 356.06 324.75 356.13 324.67 356.2 324.63 356.24 324.56 356.28 324.49 356.33 324.44 356.36 324.38 356.4 324.34 356.42 324.29 356.45 324.25 356.47 324.2 356.5 324.19 356.5 324.15 356.52 324.08 356.55 324.01 356.58 323.96 356.6 323.89 356.63 323.84 356.66 323.77 356.68 323.73 356.69 323.67 356.71 323.65 356.72 323.61 356.72 323.55 356.72 323.52 356.72 323.46 356.73 323.42 356.75 323.38 356.76 323.35 356.77 323.32 356.78 323.28 356.8 323.26 356.81 323.24 356.82 323.2 356.84 323.17 356.86 323.14 356.87 323.1 356.9 323.06 356.93 323.05 356.94 323.03 356.95 322.99 356.97 322.95 356.99 322.9 357.01 322.88 357.01 322.85 357 322.81 356.98 322.76 356.96 322.75 356.96 322.7 356.95 322.66 356.93 322.6 356.91 322.55 356.89 322.5 356.88 322.45 356.87 322.4 356.85 322.34 356.84 322.3 356.82 322.26 356.82 322.24 356.82 322.2 356.82 322.16 356.82 322.15 356.83 322.13 356.84 322.1 356.86 322.05 356.89 322.01 356.91 321.98 356.93 321.96 356.95 321.95 356.96 321.89 356.98 321.87 357 321.83 357.03 321.82 357.04 321.81 357.07 321.79 357.12 321.77 357.18 321.74 357.23 321.72 357.27 321.68 357.33 321.65 357.38 321.6 357.45 321.57 357.48 321.55 357.5 321.53 357.52 321.5 357.54 321.44 357.57 321.37 357.59 321.31 357.61 321.23 357.63 321.16 357.64 321.09 357.67 321.02 357.69 320.95 357.7 320.89 357.72 320.81 357.74 320.75 357.74 320.72 357.74 320.72 357.76 320.7 357.79 320.67 357.85 320.62 357.92 320.59 357.98 320.56 358.05 320.52 358.1 320.53 358.14 320.54 358.19 320.55 358.26 320.55 358.29 320.56 358.36 320.56 358.42 320.56 358.55 320.56 358.64 320.56 358.69 320.56 358.77 320.56 358.84 320.55 358.92 320.54 358.97 320.54 359.01 320.54 359.05 320.54 359.09 320.53 359.12 320.52 359.15 320.49 359.17 320.44 359.22 320.39 359.25 320.34 359.31 320.27 359.38 320.19 359.46 320.09 359.56 320.01 359.64 319.94 359.71 319.89 359.76 319.85 359.79 319.78 359.87 319.77 359.88 319.7 359.96 319.63 360.04 319.52 360.16 319.42 360.27 319.33 360.38 319.28 360.43 319.23 360.48 319.17 360.53 319.09 360.59 318.95 360.69 318.87 360.75 318.8 360.8 318.76 360.82 318.72 360.84 318.61 360.91 318.58 360.92 318.5 360.97 318.36 361.05 318.24 361.12 318.22 361.14 318.16 361.17 318.11 361.2 318.1 361.21 318.04 361.24 318 361.26 317.95 361.28 317.92 361.28 317.87 361.29 317.81 361.31 317.72 361.32 317.62 361.33 317.52 361.34 317.42 361.34 317.36 361.35 317.27 361.36 317.2 361.35 317.16 361.36 317.14 361.34 317.11 361.31 317.08 361.26 317.04 361.19 317.02 361.15 317.01 361.14 316.98 361.08 316.95 361.03 316.92 360.98 316.88 360.91 316.84 360.86 316.79 360.8 316.76 360.78 316.73 360.76 316.68 360.74 316.5 360.69 316.3 360.66 316.24 360.66 316.2 360.67 316.07 360.71 315.97 360.74 315.96 360.74 315.87 360.77 315.77 360.79 315.66 360.8 315.6 360.81 315.42 360.82 315.28 360.84 315.25 360.84 315.22 360.85 315.17 360.88 315.11 360.9 314.93 361 314.74 361.1 314.71 361.08 314.6 361.02 314.49 360.94 314.41 360.9 314.35 360.85 314.27 360.81 314.05 360.71 313.89 360.64 313.69 360.55 313.53 360.49 313.47 360.46 313.17 360.33 312.98 360.24 312.9 360.21 312.84 360.18 312.73 360.14 312.52 360.12 312.3 360.1 312.04 360.08 311.79 360.07 311.59 360.05 311.43 360.04 311.37 360.04 311.35 360.13 311.33 360.27 311.29 360.47 311.27 360.59 311.19 360.6 311.04 360.61 310.86 360.64 310.64 360.66 310.62 360.66 310.47 360.67 310.34 360.69 310.18 360.7 310.02 360.72 309.88 360.74 309.79 360.74 309.72 360.73 309.57 360.7 309.42 360.68 309.35 360.66 309.3 360.65 309.26 360.64 309.13 360.62 309.08 360.61 309.04 360.61 309 360.6 308.91 360.58 308.85 360.57 308.82 360.57 308.82 360.49 308.81 360.41 308.85 360.34 308.87 360.29 308.93 360.17 308.99 360.05 309.06 359.92 309.12 359.78 309.2 359.63 309.25 359.52 309.3 359.42 309.38 359.27 309.41 359.19 309.42 359.17 309.47 359.1 309.56 359 309.68 358.88 309.78 358.75 309.88 358.65 309.97 358.54 310.05 358.45 310.14 358.35 310.22 358.25 310.29 358.18 310.21 358.11 310.1 358 310 357.91 309.96 357.87 309.93 357.84 309.86 357.77 309.78 357.7 309.68 357.61 309.59 357.53 309.5 357.45 309.42 357.38 309.36 357.35 309.26 357.32 309.2 357.3 309.16 357.27 309.08 357.23 309.04 357.22 308.98 357.22 308.91 357.23 308.88 357.21 308.81 357.2 308.73 357.22 308.64 357.24 308.6 357.24 308.55 357.2 308.4 357.15 308.33 357.14 308.24 357.13 308.11 357.12 308.01 357.09 307.99 357.08 307.96 357.06 307.95 357.05 307.9 357.02 307.86 356.99 307.81 356.95 307.75 356.91 307.66 356.86 307.6 356.82 307.55 356.78 307.5 356.73 307.48 356.7 307.45 356.65 307.42 356.61 307.41 356.6 307.38 356.58 307.34 356.56 307.32 356.53 307.27 356.5 307.24 356.48 307.23 356.47 307.2 356.43 307.16 356.39 307.15 356.39 307.17 356.38 307.19 356.36 307.22 356.35 307.26 356.34 307.3 356.32 307.33 356.3 307.36 356.27 307.4 356.23 307.44 356.2 307.48 356.16 307.51 356.13 307.56 356.11 307.61 356.07 307.65 356.05 307.72 356 307.76 355.98 307.78 355.96 307.81 355.92 307.84 355.89 307.86 355.87 307.9 355.85 307.93 355.83 307.97 355.8 308.01 355.78 308.05 355.75 308.09 355.71 308.11 355.67 308.13 355.64 308.2 355.59 308.26 355.53 308.31 355.49 308.36 355.45 308.42 355.42 308.46 355.39 308.51 355.37 308.55 355.36 308.57 355.36 308.6 355.36 308.63 355.37 308.65 355.37 308.67 355.35 308.68 355.32 308.67 355.28 308.67 355.22 308.68 355.19 308.69 355.17 308.7 355.16 308.69 355.13 308.67 355.1 308.64 355.06 308.61 355.04 308.61 355.01 308.6 355 308.59 354.97 308.56 354.94 308.52 354.9 308.48 354.86 308.43 354.8 308.41 354.76 308.37 354.73 308.34 354.71 308.32 354.68 308.29 354.66 308.25 354.62 308.23 354.59 308.21 354.57 308.19 354.55 308.17 354.52 308.15 354.49 308.11 354.46 308.08 354.42 308.07 354.39 308.05 354.36 308.04 354.33 308.01 354.31 307.98 354.29 307.96 354.28 307.93 354.25 307.87 354.2 307.78 354.12 307.74 354.08 307.73 354.06 307.7 354.03 307.67 353.98 307.62 353.93 307.59 353.9 307.54 353.85 307.45 353.77 307.37 353.7 307.29 353.64 307.24 353.59 307.2 353.57 307.16 353.56 307.12 353.53 307.07 353.5 307 353.45 306.93 353.4 306.87 353.36 306.82 353.32 306.73 353.26 306.58 353.17 306.5 353.11 306.43 353.07 306.42 353.06 306.41 353.05 306.31 352.99 306.2 352.91 306.04 352.81 306 352.77 305.91 352.68 305.89 352.65 305.84 352.61 305.72 352.52 305.65 352.47 305.56 352.4 305.54 352.39 305.55 352.36 305.37 352.25 305.18 352.14 305.17 352.16 305.15 352.21 305.13 352.26 305.1 352.33 305 352.25 304.88 352.16 304.77 352.08 304.77 352.07 304.68 352.01 304.59 351.94 304.58 351.9 304.54 351.87 304.48 351.82 304.4 351.76 304.34 351.72 304.33 351.72 304.25 351.66 304.18 351.63 304.09 351.59 304.02 351.56 303.98 351.54 303.94 351.52 303.91 351.5 303.86 351.48 303.83 351.46 303.72 351.42 303.67 351.4 303.66 351.4 303.62 351.38 303.54 351.35 303.47 351.31 303.45 351.32 303.4 351.34 303.22 351.41 303.2 351.42 303.16 351.43 303.12 351.42 303.06 351.41 303.01 351.39 302.93 351.35 302.8 351.28 302.69 351.22 302.58 351.16 302.53 351.14 302.5 351.14 302.33 351.23 302.11 351.34 302.08 351.36 301.87 351.46 301.8 351.51 301.78 351.51 301.77 351.51 301.68 351.56 301.56 351.62 301.43 351.68 301.36 351.71 301.29 351.72 301.26 351.73 301.2 351.76 301.16 351.78 301.15 351.78 301.13 351.78 301.1 351.81 301.05 351.83 300.98 351.85 300.9 351.78 300.85 351.72 300.79 351.68 300.73 351.65 300.62 351.58 300.56 351.54 300.55 351.53 300.51 351.5 300.41 351.48 300.27 351.44 300.22 351.42 300.2 351.41 300.16 351.41 300.14 351.4 300.06 351.39 300.02 351.38 299.73 351.35 299.66 351.35 299.62 351.35 299.43 351.33 299.41 351.32 299.14 351.3 298.9 351.27 298.7 351.25 298.6 351.25 298.47 351.23 297.92 351.18 297.61 351.15 297.31 351.12 297.13 351.1 297.02 351.11 296.85 350.23 296.4 350.14 296.07 350.02 295.56 349.71 294.93 349.42 294.42 349.04 294.58 348.94 294.93 348.84 295.4 348.71 295.61 348.57 295.71 348.38 295.65 348.1 295.31 347.45 295.11 347.06 294.89 346.88 294.67 346.79 294.62 346.63 294.65 346.25 294.61 345.74 294.56 345.4 294.54 345.12 294.35 344.7 293.76 344.34 293.59 344.12 293.4 343.71 293.42 343.12 293.77 342.72 294.05 342.3 294.01 341.9 294.25 341.58 294.51 341.26 294.77 341 295.27 340.85 295.52 340.68 295.55 340.36 295.68 340.08 296.01 339.93 296.31 339.73 296.79 339.72 296.91 339.46 296.88 339.07 296.94 338.26 297.08 337.47 297.2 336.95 297.16 336.25 297.01 335.79 296.68 335.01 296.5 334.51 295.93 333.81 295.37 333.18 295.05 332.58 294.86 332.04 295.29 331.86 296.11 331.67 296.92 331.46 297.63 331.23 297.66 330.91 297.69 330.53 298.06 329.84 298.39 329.35 298.57 329.03 298.47 328.35 298.42 327.57 298.53 326.53 298.81 325.55 299.14 324.61 299.55 323.79 300.1 322.79 300.59 321.97 301.06 321.22 301.41 320.7 301.83 320.28 302.29 319.95 302.6 319.86 302.85 319.97 303.01 320.3 303.08 320.76 303.24 321.13 303.57 321.38 304.06 321.55 304.56 321.59 305.13 321.7 305.51 321.98 305.68 322.33 305.94 322.59 306.25 322.77 306.64 323.02 307.06 323.32 307.46 323.44 307.81 323.44 307.82 323.44 308.19 323.42 308.52 323.16 308.74 322.72 308.95 322.16 309.14 321.63 309.38 321.02 309.62 320.74 310.03 320.56 310.35 320.49 310.64 320.54 310.83 320.84 311.14 321.31 311.46 321.77 311.75 322.16 311.95 322.69 312.28 323.11 312.69 323.2 312.86 322.76 312.98 322.49 313.1 322.4 313.22 322.7 313.33 323.13 313.35 323.58 313.41 324.04 313.89 324.29 314.38 324.44 314.49 324.62 314.66 325.75 314.81 326.2 315.13 326.22 315.28 326.18 315.59 326.43 316.01 326.58 316.27 326.78 316.64 327.33 316.81 328.09 317.02 328.89 317.21 329.36 317.45 329.45 317.8 329.04 318.14 328.52 318.43 327.91 318.66 327.04 318.8 326.46 318.95 325.87 319.04 325.38 318.87 325.12 318.47 325.09 318.15 325.12 317.73 324.84 317.65 324.49 317.7 324.15 318.14 323.7 318.54 323.07 318.96 322.48 319.53 321.84 320.27 321.37 320.87 320.98 321.36 320.74 321.79 320.69 322.1 320.9 322.4 321.22 323.35 321.14 324.21 321.02 324.83 320.74 325.32 320.51 325.66 320.48 326.08 321.89 Z"/>
</g></svg>