<svg xmlns="http://www.w3.org/2000/svg" version="1.2" baseProfile="tiny" stroke-linecap="round" stroke-linejoin="round" viewBox="1.12 111.02 49.17 56.37"><g xmlns="http://www.w3.org/2000/svg" id="Karrantza">
<path d="M 42.57 118.8 42.92 119.43 42.92 119.6 42.9 119.72 42.81 119.91 42.69 120.23 42.42 120.43 42.22 120.72 43.13 121.86 43.29 122 43.79 122.45 43.95 122.56 44.08 122.67 44.19 122.77 44.57 123.15 44.73 123.81 44.84 124.25 45.39 124.79 45.93 125.59 45.76 125.96 45.79 126.06 45.81 126.62 45.79 126.7 45.76 126.75 45.73 126.91 45.54 127.65 45.49 127.84 45.43 127.91 45.19 128.15 45.26 128.49 45.27 128.67 44.63 129.6 44.83 130.13 44.88 130.64 44.85 130.82 44.79 131.15 44.8 131.29 44.78 131.4 44.74 131.49 44.72 131.62 44.78 131.84 44.78 131.92 44.72 132.24 44.69 132.5 44.61 132.77 44.58 132.87 44.63 132.96 44.74 133.1 44.85 133.29 45.03 133.6 45.9 134.13 45.8 134.52 45.79 134.57 45.79 134.62 45.68 134.8 45.8 135.12 45.64 135.54 45.56 135.75 45.5 136.15 45.28 137.55 44.84 137.91 44.53 138.25 44.47 138.43 44.7 139.17 45.2 139.64 45.52 139.99 46.28 140.41 46.64 140.69 47.26 141.3 47.4 141.71 47.61 142.3 48.11 142.63 50.01 143.75 50.05 143.98 50.06 144.14 50.06 144.28 50.08 144.48 50.16 144.76 50.22 144.96 50.22 145.04 50.25 145.17 50.24 145.3 50.2 145.37 50.14 145.49 50.08 145.57 49.89 145.75 49.81 145.82 49.69 145.99 49.55 146.02 49.16 146.08 49.05 146.1 48.97 146.07 48.9 146.06 48.84 146.05 48.62 146 48.49 146.01 48.28 146.08 48.13 146.38 48.12 146.38 48.06 146.47 47.65 146.79 47.56 146.87 47.29 147.12 46.99 147.27 46.78 147.35 46.52 147.44 46.31 147.56 46.04 147.77 45.59 148.09 45.4 148.17 45.01 148.32 44.81 148.36 44.71 148.35 44.53 148.37 44.42 148.49 44.19 148.85 44.18 149.06 44.11 149.25 44 149.38 43.86 149.5 43.62 149.69 43.44 149.82 43.32 149.88 43.24 149.91 42.19 150.51 41.94 151.02 41.9 151.1 41.83 151.31 41.8 151.46 41.75 151.59 41.47 151.96 41.33 152.11 41.2 152.25 40.91 152.43 40.5 152.54 40.16 152.58 39.85 152.61 39.74 152.64 39.49 152.69 39.13 152.71 38.84 152.69 38.53 152.73 38.26 152.77 38.09 152.84 38.07 152.93 38.03 153.16 37.99 153.24 37.85 153.41 37.76 153.5 37.62 153.54 37.53 153.55 37.39 153.55 37.24 153.62 37.04 153.72 36.93 153.74 36.89 153.74 36.72 153.78 36.64 153.81 36.45 153.91 36.3 153.95 36.18 154.01 36.08 154.02 35.98 154.05 35.84 154.08 35.69 154.15 35.46 154.27 35.26 154.38 35.16 154.41 35.07 154.5 34.98 154.57 34.47 154.86 34.31 154.94 34.13 154.97 34.02 154.99 33.97 154.98 33.87 154.95 33.23 154.47 33.12 154.42 33.02 154.38 32.84 154.2 32.55 154.46 31.86 154.67 31.46 155.43 31.35 155.59 31.29 155.64 31.12 155.78 31.1 155.88 31.06 156.02 30.94 156.22 30.88 156.3 30.77 156.41 30.62 156.53 30.59 156.61 30.61 156.84 30.57 156.91 30.38 157.29 30.31 157.52 30.31 158.19 30.11 158.53 30.05 158.66 29.8 159.2 29.59 159.28 29.36 159.48 29.24 159.56 29.02 159.64 28.93 159.64 28.75 159.67 28.51 159.75 28.35 159.84 28.24 159.86 28.18 159.88 27.83 160.02 27.43 160.13 26.15 160.37 25.81 160.47 25.52 160.54 25.34 160.57 25.3 160.56 25.14 160.51 24.21 160.42 23.59 160.47 23.47 160.83 23.45 161.19 23.52 161.35 22.99 161.78 22.77 161.99 22.65 162.07 22.51 162.17 22.38 162.25 22.25 162.32 22.13 162.4 21.94 162.44 21.54 162.42 21.31 162.54 20.99 162.73 19.97 163.77 19.24 164.08 18.99 164.19 18.52 164.52 18.4 164.6 18.25 164.68 18.08 164.69 16.68 164.88 16.3 165.08 15.02 165.63 14.43 166.45 14.42 166.44 14.37 166.45 14.3 166.46 14.21 166.5 14.11 166.53 14.04 166.53 14 166.51 13.95 166.51 13.85 166.5 13.72 166.5 13.67 166.51 13.59 166.53 13.56 166.55 13.41 166.67 12.33 167 10.84 167.09 10.1 167.38 9.28 162.47 8.93 160.36 8.91 160.37 8.88 160.37 8.87 160.36 8.86 160.33 8.9 159.99 8.89 159.97 8.87 159.97 8.82 159.95 8.78 159.91 8.74 159.87 8.7 159.81 8.65 159.73 8.64 159.7 8.61 159.67 8.57 159.66 8.51 159.65 8.49 159.64 8.48 159.62 8.49 159.57 8.47 159.54 8.34 159.42 8.3 159.38 8.27 159.33 8.23 159.24 8.19 159.16 8.16 159.11 8.13 159.02 8.12 158.97 8.14 158.92 8.15 158.84 8.14 158.81 8.1 158.78 8.06 158.76 8.01 158.76 7.97 158.76 7.93 158.77 7.89 158.77 7.86 158.75 7.81 158.69 7.8 158.65 7.82 158.6 7.83 158.56 7.84 158.48 7.76 158.15 7.75 158.11 7.72 158.07 7.7 158.03 7.67 158 7.63 157.96 7.59 157.92 7.55 157.89 7.53 157.87 7.51 157.82 7.52 157.79 7.58 157.68 7.6 157.65 7.63 157.62 7.64 157.59 7.63 157.55 7.52 157.38 7.49 157.35 7.44 157.31 7.4 157.28 7.33 157.27 7.28 157.26 7.25 157.25 7.23 157.23 7.23 157.18 7.24 157.14 7.27 157.1 7.41 156.99 7.42 156.97 7.42 156.94 7.41 156.92 7.34 156.9 7.29 156.88 7.26 156.89 7.23 156.9 7.2 156.9 7.17 156.89 7.13 156.85 7.04 156.76 7.01 156.71 6.98 156.65 6.96 156.58 6.97 156.51 6.99 156.43 7.02 156.35 7 156.28 6.99 156.14 6.99 156.11 6.97 156.07 6.92 156.01 6.87 155.93 6.82 155.84 6.79 155.78 6.78 155.73 6.78 155.7 6.8 155.68 6.81 155.64 6.83 155.61 6.85 155.57 6.86 155.5 6.87 155.47 6.87 155.45 6.85 155.41 6.82 155.36 6.8 155.31 6.79 155.27 6.79 155.23 6.8 155.19 6.82 155.14 6.83 155.11 6.85 155.07 6.85 155.04 6.83 155.03 6.79 154.99 6.74 154.96 6.68 154.94 6.62 154.92 6.58 154.91 6.54 154.91 6.46 154.92 6.4 154.92 6.35 154.93 6.32 154.89 6.31 154.81 6.3 154.78 6.29 154.74 6.19 154.67 6.17 154.63 6.15 154.59 6.16 154.49 6.15 154.44 6.13 154.4 6.05 154.33 6.03 154.27 6.02 154.22 6.01 154.13 6 153.96 6 153.83 6.02 153.76 6.08 153.7 6.13 153.64 6.14 153.58 6.11 153.47 5.96 153.1 5.93 152.98 5.91 152.8 5.91 152.76 5.91 152.73 5.9 152.71 5.88 152.69 5.85 152.69 5.8 152.72 5.75 152.73 5.7 152.72 5.68 152.69 5.66 152.63 5.7 152.5 5.76 152.31 5.67 152.13 5.68 151.99 5.69 151.57 5.7 151.48 5.72 151.36 5.71 151.31 5.68 151.17 5.61 150.88 5.73 150.73 5.76 150.65 5.74 150.39 5.72 150.33 5.68 150.2 5.64 150.13 5.49 149.98 5.44 149.9 5.34 149.73 5.3 149.6 5.28 149.44 5.31 149.33 5.42 149.06 5.49 148.9 5.5 148.79 5.47 148.71 5.39 148.61 5.36 148.56 5.35 148.51 5.36 148.33 5.38 148.11 5.37 148.01 5.32 147.85 5.29 147.74 5.26 147.61 5.25 147.49 5.28 147.4 5.35 146.9 5.39 146.69 5.39 146.63 5.37 146.58 5.35 146.54 5.28 146.45 5.24 146.38 5.22 146.31 5.21 146.25 5.2 146.19 5.2 146.14 5.2 146.1 5.22 146.04 5.23 145.99 5.25 145.92 5.24 145.82 5.23 145.74 5.23 145.71 5.18 145.57 5.16 145.51 5.15 145.45 5.15 145.41 5.16 145.37 5.19 145.32 5.22 145.26 5.25 145.2 5.28 145.14 5.29 145.08 5.29 145.03 5.27 144.99 5.22 144.95 5.13 144.88 5.05 144.81 5 144.76 4.96 144.71 4.91 144.61 4.9 144.5 4.97 144.41 5.02 144.32 5.02 144.27 5.03 144.21 5.02 144.09 5.03 144.01 5.04 143.94 5.07 143.88 5.09 143.8 5.1 143.74 5.11 143.69 5.1 143.38 5.1 143.3 5.11 143.06 5.13 142.83 5.14 142.73 5.15 142.66 5.15 142.59 5.12 142.51 5.08 142.43 5.06 142.38 5.06 142.31 5.12 142.11 5.2 142.17 5.26 142.19 5.5 142.26 5.5 141.77 5.5 141.73 5.55 141.54 5.69 141.34 5.8 141.22 5.84 141.15 5.87 141.09 5.88 141.02 5.89 140.95 5.88 140.9 5.87 140.85 5.85 140.8 5.84 140.76 5.8 140.64 5.79 140.57 5.79 140.5 5.79 140.46 5.82 140.28 5.83 140.13 5.84 140.07 5.86 140 5.89 139.91 5.91 139.87 5.95 139.65 6 139.49 6.01 139.41 6.04 139.24 6.04 139.19 6.03 139.15 6.01 139.1 5.99 139.04 5.98 138.99 5.96 138.95 5.95 138.89 5.94 138.84 5.94 138.79 5.93 138.74 5.87 138.37 5.87 138.33 5.86 138.29 5.87 138.26 5.88 138.18 5.89 138.14 5.92 138.08 6.15 137.45 5.2 135.59 5.08 134.94 4.81 134.49 4.85 133.5 4.59 133.01 4.24 132.37 3.42 131.14 3.07 130.16 2.96 129.9 2.27 128.32 1.14 127.24 2.19 126.98 3.69 127.81 4.61 127.81 5.2 127.81 5.61 126.26 5.63 126.25 5.76 126.24 5.82 126.23 5.89 126.18 6.06 126.08 6.29 125.92 6.4 125.83 9.23 125.98 11.23 125.26 11.45 125.16 12.08 124.78 11.95 124.58 11.87 124.47 11.83 124.42 11.82 124.35 11.8 124.31 11.71 124.24 11.63 124.12 11.61 124 11.57 123.95 11.53 123.79 11.53 123.74 11.56 123.69 11.62 123.63 11.64 123.6 11.73 123.49 11.99 123.3 12.06 123.29 12.12 123.27 12.21 123.24 12.27 123.2 12.34 123.12 12.37 123.08 12.38 123.05 12.38 123.04 12.38 123.03 12.37 123.01 12.11 122.7 11.89 122.66 11.49 121.97 15.65 123.55 16.52 122.64 17.23 121.89 17.58 121.53 17.69 121.02 17.72 120.85 17.82 118.46 18.17 118.19 18.2 117.58 18.19 117.03 18.25 116.49 18.61 116.39 18.8 116.16 18.97 116.12 19.04 116.09 19.21 115.94 19.38 115.8 19.51 115.64 19.58 115.48 19.72 115.23 20.1 114.22 20.18 113.89 20.82 113.83 21.04 113.86 21.15 113.91 21.34 113.86 21.58 113.78 21.79 113.72 21.93 113.69 22.08 113.61 22.21 113.52 22.32 113.47 22.46 113.39 22.54 113.3 22.67 113.22 22.87 113.05 22.99 112.94 23.09 112.92 23.27 112.86 23.48 112.75 23.79 112.63 23.89 112.61 24.12 112.42 24.25 112.37 24.54 112.3 25.29 112.46 25.73 112.9 25.88 113.02 25.96 113.07 26.07 113.13 26.23 113.2 26.42 113.24 26.56 113.26 26.88 113.41 27.43 113.15 27.64 113.1 28.09 112.82 28.43 112.55 28.76 112.54 29.03 112.38 29.14 112.28 29.24 112.23 29.62 112.2 30.06 112.2 30.46 112.05 31.13 111.75 31.74 111.55 32.04 111.36 32.9 111.04 33.24 111.27 34.04 111.21 34.32 111.28 34.55 111.23 34.93 111.15 35.39 111.21 35.65 111.13 36.05 111.27 36.27 111.26 37.52 111.48 38.04 111.55 39.04 111.76 39.92 111.71 40.25 111.81 40.31 111.88 40.5 112.14 40.73 112.33 40.73 112.34 40.82 112.42 40.95 112.7 40.98 112.89 40.99 112.93 41.21 113.38 40.94 113.65 40.77 113.87 40.56 114.21 40.48 114.74 40.94 115.23 42.15 118 42.57 118.8 Z"/>
</g></svg>