<svg xmlns="http://www.w3.org/2000/svg" version="1.2" baseProfile="tiny" stroke-linecap="round" stroke-linejoin="round" viewBox="589.57 386.87 23.98 69.48"><g xmlns="http://www.w3.org/2000/svg" id="Kaseda">
<path d="M 597.02 391.1 597.04 391.08 597.11 390.98 597.11 390.97 597.12 390.95 597.13 390.94 597.27 390.78 597.35 390.72 597.37 390.7 597.45 390.64 597.52 390.56 597.57 390.49 597.63 390.43 597.73 390.3 597.85 390.04 597.86 390 597.89 389.93 597.91 389.91 597.96 389.87 598.01 389.82 598.02 389.81 598.04 389.79 598.05 389.77 598.07 389.74 598.08 389.72 598.09 389.7 598.11 389.67 598.12 389.65 598.14 389.61 598.16 389.58 598.17 389.54 598.18 389.51 598.19 389.48 598.21 389.43 598.22 389.4 598.22 389.37 598.23 389.34 598.23 389.31 598.23 389.29 598.23 389.27 598.23 389.27 598.23 389.24 598.24 389.23 598.24 389.21 598.25 389.17 598.39 388.7 598.4 388.69 598.54 388.23 598.64 387.9 598.65 387.87 598.71 387.74 598.76 387.67 598.78 387.64 598.8 387.62 598.82 387.58 599.05 387.28 599.12 387.18 599.18 387.08 599.19 387.08 599.2 387.07 599.24 387.03 599.31 386.98 599.35 386.93 599.36 386.9 599.36 386.89 599.37 386.87 599.38 386.88 599.4 386.9 599.4 386.91 599.42 386.93 599.44 386.97 599.49 387.01 599.53 387.05 599.58 387.1 599.61 387.13 599.65 387.16 599.66 387.17 599.69 387.2 599.71 387.23 599.75 387.29 599.77 387.32 599.79 387.34 599.8 387.36 599.82 387.38 599.84 387.4 599.86 387.44 599.87 387.47 599.89 387.5 599.92 387.54 599.94 387.57 599.96 387.6 599.99 387.62 600.02 387.65 600.06 387.68 600.1 387.72 600.12 387.74 600.15 387.77 600.18 387.79 600.21 387.82 600.23 387.84 600.24 387.85 600.27 387.88 600.3 387.91 600.32 387.94 600.34 387.95 600.37 387.98 600.39 388 600.42 388.02 600.44 388.03 600.45 388.03 600.47 388.04 600.48 388.05 600.49 388.05 600.51 388.06 600.54 388.07 600.56 388.08 600.58 388.08 600.63 388.09 600.65 388.09 600.67 388.09 600.69 388.09 600.7 388.09 600.71 388.1 600.73 388.1 600.76 388.11 600.78 388.12 600.8 388.13 600.82 388.13 600.85 388.15 600.88 388.16 600.89 388.17 600.91 388.18 600.94 388.2 600.96 388.21 600.99 388.22 601.01 388.23 601.03 388.24 601.06 388.25 601.08 388.25 601.12 388.26 601.14 388.26 601.17 388.26 601.2 388.27 601.22 388.26 601.24 388.26 601.25 388.26 601.28 388.26 601.3 388.26 601.33 388.26 601.37 388.28 601.4 388.29 601.41 388.3 601.43 388.32 601.45 388.33 601.49 388.34 601.52 388.34 601.54 388.35 601.56 388.35 601.58 388.35 601.61 388.37 601.62 388.38 601.64 388.4 601.66 388.42 601.68 388.43 601.7 388.45 601.72 388.47 601.73 388.49 601.75 388.5 601.78 388.53 601.8 388.55 601.81 388.56 601.84 388.58 601.85 388.59 601.86 388.6 601.89 388.61 601.91 388.63 601.92 388.64 601.95 388.67 602 388.69 602.05 388.72 602.11 388.74 602.16 388.76 602.2 388.78 602.23 388.8 602.25 388.8 602.28 388.81 602.29 388.81 602.31 388.82 602.35 388.84 602.4 388.86 602.45 388.88 602.46 388.89 602.5 388.9 602.51 388.91 602.54 388.92 602.55 388.92 602.57 388.92 602.72 388.88 602.89 388.85 603.04 388.82 603.11 388.8 603.15 388.79 603.16 388.79 603.21 388.78 603.28 388.76 603.32 388.75 603.34 388.75 603.36 388.75 603.4 388.74 603.43 388.73 603.45 388.73 603.49 388.72 603.54 388.7 603.6 388.68 603.64 388.66 603.66 388.65 603.67 388.65 603.7 388.63 603.73 388.62 603.74 388.61 603.78 388.58 603.8 388.58 603.83 388.58 603.89 388.58 603.97 388.58 604.05 388.57 604.12 388.57 604.16 388.57 604.21 388.57 604.26 388.57 604.31 388.57 604.38 388.57 604.44 388.57 604.5 388.56 604.52 388.56 604.54 388.56 604.64 388.58 604.74 388.59 604.88 388.6 605.09 388.61 605.18 388.62 605.39 388.63 605.47 388.64 605.47 388.64 605.58 388.65 605.65 388.66 605.68 388.66 605.75 388.68 605.93 388.71 605.99 388.73 606.02 388.74 606.03 388.74 606.04 388.74 606.07 388.74 606.14 388.74 606.16 388.75 606.19 388.75 606.22 388.75 606.26 388.76 606.31 388.76 606.42 388.78 606.45 388.79 606.49 388.8 606.54 388.81 606.58 388.82 606.62 388.84 606.67 388.85 606.72 388.86 606.76 388.87 606.78 388.87 606.8 388.87 606.84 388.88 606.88 388.88 606.91 388.89 606.96 388.91 607.02 388.93 607.08 388.95 607.15 388.98 607.19 389 607.2 389 607.23 389.02 607.28 389.06 607.32 389.09 607.34 389.1 607.35 389.11 607.37 389.13 607.4 389.15 607.45 389.18 607.5 389.21 607.53 389.22 607.56 389.23 607.58 389.24 607.61 389.25 607.66 389.26 607.68 389.26 607.71 389.27 607.73 389.27 607.75 389.29 607.79 389.3 607.8 389.32 607.83 389.35 607.86 389.39 607.91 389.43 607.93 389.44 607.95 389.45 608.03 389.49 608.1 389.52 608.15 389.55 608.18 389.57 608.28 389.63 608.38 389.69 608.45 389.74 608.53 389.81 608.57 389.84 608.57 389.85 608.6 389.88 608.65 389.93 608.74 390.01 608.75 390.02 608.81 390.07 608.82 390.09 608.84 390.1 608.86 390.12 608.9 390.15 608.91 390.15 608.93 390.19 608.94 390.23 608.96 390.27 609 390.32 609.02 390.34 609.04 390.38 609.06 390.41 609.07 390.41 609.09 390.44 609.11 390.46 609.17 390.52 609.18 390.52 609.23 390.55 609.26 390.59 609.3 390.62 609.35 390.66 609.42 390.73 609.45 390.76 609.48 390.79 609.52 390.85 609.58 390.94 609.62 390.99 609.67 391.06 609.71 391.12 609.76 391.18 609.8 391.22 609.82 391.24 609.86 391.29 609.9 391.33 609.96 391.38 610.02 391.43 610.03 391.44 610.09 391.5 610.12 391.55 610.16 391.6 610.19 391.67 610.21 391.71 610.22 391.72 610.23 391.74 610.24 391.75 610.28 391.79 610.35 391.87 610.42 391.94 610.47 391.99 610.56 392.09 610.6 392.14 610.62 392.16 610.67 392.2 610.73 392.25 610.75 392.28 610.76 392.28 610.77 392.29 610.8 392.29 610.83 392.29 610.85 392.3 610.9 392.31 610.93 392.33 610.96 392.34 610.98 392.36 610.98 392.38 610.98 392.39 610.97 392.4 610.96 392.42 610.93 392.44 610.92 392.44 610.89 392.45 610.85 392.46 610.82 392.46 610.79 392.46 610.78 392.48 610.78 392.49 610.77 392.52 610.76 392.55 610.69 392.83 610.68 392.84 610.62 393.05 610.62 393.07 610.58 393.19 610.58 393.21 610.57 393.25 610.56 393.27 610.51 393.45 610.47 393.59 610.45 393.68 610.45 393.69 610.33 394.13 610.32 394.14 610.25 394.39 610.25 394.4 610.23 394.48 610.22 394.5 610.17 394.71 610.16 394.73 610.13 394.84 610.1 394.97 610.09 394.98 610.06 395.11 609.96 395.01 609.87 394.92 609.78 394.8 609.71 394.71 609.64 394.61 609.59 394.53 609.55 394.46 609.51 394.4 609.49 394.34 609.46 394.28 609.44 394.24 609.43 394.2 609.4 394.14 609.38 394.04 609.36 393.98 609.34 393.93 609.31 393.86 609.28 393.8 609.25 393.74 609.21 393.64 609.18 393.57 609.16 393.53 609.14 393.51 609.12 393.48 609.09 393.44 608.95 393.29 608.88 393.22 608.79 393.14 608.71 393.08 608.61 392.99 608.53 392.92 608.42 392.84 608.35 392.79 608.28 392.75 608.17 392.69 608.06 392.64 607.94 392.58 607.82 392.52 607.72 392.48 607.63 392.44 607.55 392.42 607.46 392.4 607.35 392.39 607.24 392.38 607.11 392.38 607 392.38 606.9 392.39 606.81 392.4 606.68 392.41 606.59 392.43 606.51 392.46 606.43 392.47 606.37 392.49 606.32 392.51 606.29 392.53 606.27 392.54 606.25 392.56 606.24 392.57 606.24 392.58 606.21 392.63 606.16 392.71 606.12 392.78 606.08 392.86 606.03 392.94 605.99 393.02 605.97 393.08 605.93 393.13 605.89 393.23 605.85 393.3 605.81 393.37 605.78 393.44 605.74 393.54 605.71 393.6 605.68 393.68 605.66 393.78 605.64 393.87 605.63 393.98 605.61 394.13 605.61 394.23 605.6 394.35 605.6 394.46 605.6 394.59 605.6 394.69 605.78 394.67 605.81 394.67 605.88 394.67 605.95 394.66 605.99 394.67 606 394.67 606.02 394.67 606.06 394.69 606.12 394.71 606.16 394.73 606.23 394.75 606.29 394.78 606.37 394.83 606.42 394.86 606.45 394.88 606.48 394.89 606.55 394.9 606.69 394.92 606.79 394.93 606.91 394.94 607.06 394.96 607.21 394.97 607.28 394.98 607.31 394.98 607.36 394.98 607.44 394.98 607.55 394.98 607.64 394.98 607.72 394.98 607.74 394.99 607.77 395 607.82 395.03 607.85 395.05 607.91 395.08 607.99 395.11 608.06 395.13 608.12 395.16 608.22 395.19 608.26 395.22 608.3 395.25 608.36 395.3 608.42 395.37 608.47 395.43 608.52 395.47 608.58 395.51 608.65 395.55 608.73 395.6 608.82 395.64 608.89 395.67 608.97 395.7 609.05 395.72 609.15 395.75 609.21 395.75 609.29 395.76 609.38 395.76 609.43 395.75 609.48 395.75 609.54 395.73 609.62 395.7 609.67 395.67 609.72 395.65 609.73 395.65 609.74 395.65 609.76 395.66 609.79 395.69 609.83 395.74 609.89 395.81 609.92 395.84 609.96 395.88 609.98 395.88 610.01 395.88 610.04 395.88 610.07 395.89 610.12 395.91 610.13 395.92 610.18 395.95 610.36 396.07 610.56 396.21 610.69 396.3 610.84 396.39 610.9 396.43 610.93 396.46 610.96 396.51 610.98 396.53 610.98 396.54 611.01 396.57 611.03 396.59 611.04 396.6 611.07 396.63 611.08 396.64 611.1 396.66 611.12 396.68 611.15 396.7 611.21 396.74 611.25 396.78 611.28 396.8 611.31 396.83 611.32 396.85 611.35 396.91 611.35 396.94 611.36 396.97 611.38 396.99 611.41 397.01 611.43 397.03 611.46 397.06 611.51 397.12 611.55 397.16 611.57 397.17 611.58 397.19 611.59 397.2 611.6 397.23 611.66 397.39 611.66 397.4 611.66 397.42 611.66 397.44 611.65 397.47 611.64 397.5 611.64 397.53 611.63 397.56 611.63 397.61 611.63 397.65 611.63 397.69 611.64 397.73 611.66 397.8 611.68 397.87 611.72 397.98 611.75 398.06 611.79 398.16 611.81 398.22 611.84 398.3 611.86 398.35 611.87 398.4 611.88 398.47 611.9 398.54 611.9 398.62 611.9 398.69 611.9 398.73 611.91 398.8 611.92 398.88 611.93 398.95 611.93 398.98 611.94 399.03 611.94 399.09 611.95 399.15 611.97 399.22 611.97 399.27 611.97 399.3 611.97 399.33 611.97 399.4 611.97 399.44 611.97 399.46 611.97 399.5 611.99 399.55 612.01 399.63 612.02 399.66 612.04 399.72 612.05 399.73 612.06 399.76 612.09 399.83 612.1 399.84 612.12 399.89 612.15 399.95 612.2 400.05 612.25 400.13 612.3 400.21 612.34 400.3 612.39 400.38 612.42 400.42 612.44 400.43 612.46 400.46 612.5 400.51 612.54 400.55 612.55 400.56 612.57 400.58 612.6 400.61 612.64 400.64 612.68 400.67 612.71 400.71 612.74 400.75 612.78 400.8 612.82 400.83 612.85 400.86 612.88 400.88 612.9 400.9 612.94 400.93 612.97 400.97 612.99 401 613.01 401.03 613.02 401.06 613.04 401.12 613.05 401.16 613.06 401.21 613.07 401.24 613.09 401.28 613.12 401.33 613.17 401.43 613.31 401.67 613.38 401.82 613.41 401.89 613.44 401.94 613.48 402.01 613.49 402.02 613.53 402.1 613.53 402.11 613.54 402.12 613.55 402.16 613.52 402.18 613.48 402.24 613.46 402.27 613.44 402.3 613.42 402.34 613.39 402.4 613.31 402.48 613.27 402.53 613.21 402.59 613.17 402.65 613.15 402.68 613.13 402.73 613.11 402.76 613.1 402.79 613.09 402.83 613.08 402.86 613.08 402.87 613.06 402.9 613.05 402.92 613.04 402.94 613.01 402.97 613 402.99 612.94 403.06 612.91 403.1 612.91 403.11 612.89 403.14 612.88 403.17 612.86 403.19 612.85 403.25 612.81 403.33 612.8 403.35 612.79 403.42 612.78 403.45 612.78 403.47 612.78 403.49 612.79 403.54 612.8 403.59 612.81 403.64 612.81 403.67 612.81 403.7 612.81 403.8 612.81 403.82 612.81 403.84 612.81 403.86 612.81 403.9 612.81 403.94 612.81 403.96 612.81 403.98 612.82 404 612.82 404.01 612.82 404.05 612.86 404.12 612.9 404.24 612.9 404.25 612.93 404.32 612.95 404.38 612.98 404.47 612.99 404.57 612.99 404.65 613 404.7 613 404.74 613.02 404.79 613.05 404.84 613.06 404.9 613.08 404.98 613.1 405.03 613.11 405.08 613.11 405.13 613.11 405.16 613.11 405.2 613.1 405.27 613.1 405.31 613.09 405.34 613.09 405.36 613.09 405.39 613.09 405.41 613.08 405.45 613.06 405.51 613.03 405.62 613.01 405.68 613.01 405.7 613 405.76 612.98 405.81 612.98 405.86 612.97 405.92 612.95 405.99 612.94 406.02 612.93 406.07 612.91 406.15 612.88 406.24 612.87 406.25 612.87 406.27 612.84 406.38 612.83 406.4 612.82 406.43 612.78 406.55 612.74 406.68 612.7 406.81 612.63 407 612.56 407.17 612.48 407.37 612.42 407.51 612.36 407.66 612.26 407.88 612.16 408.08 612.05 408.24 611.97 408.36 611.91 408.46 611.84 408.57 611.75 408.71 611.7 408.8 611.63 408.9 611.57 409.01 611.51 409.11 611.5 409.14 611.47 409.18 611.45 409.23 611.44 409.25 611.42 409.29 611.36 409.38 611.3 409.47 611.27 409.53 611.25 409.57 611.23 409.6 611.2 409.68 611.16 409.78 611.14 409.82 611.12 409.84 611.04 409.98 610.96 410.12 610.91 410.23 610.86 410.33 610.85 410.37 610.84 410.43 610.83 410.44 610.83 410.55 610.82 410.68 610.82 410.74 610.82 410.76 610.81 410.87 610.81 410.88 610.79 410.98 610.76 411.09 610.71 411.19 610.69 411.23 610.67 411.26 610.66 411.33 610.67 411.46 610.67 411.66 610.66 411.79 610.66 411.86 610.69 412.07 610.7 412.25 610.7 412.26 610.71 412.29 610.73 412.46 610.76 412.7 610.77 412.82 610.8 412.93 610.82 413.04 610.88 413.18 610.91 413.26 610.93 413.31 610.93 413.35 610.92 413.45 610.91 413.56 610.89 413.68 610.85 413.78 610.82 413.85 610.76 413.95 610.7 414.04 610.63 414.12 610.57 414.18 610.49 414.22 610.44 414.24 610.38 414.27 610.23 414.31 610.08 414.36 609.96 414.4 609.88 414.44 609.84 414.46 609.79 414.5 609.71 414.57 609.58 414.66 609.46 414.74 609.3 414.85 609.16 414.92 608.97 415 608.84 415.04 608.83 415.07 608.78 415.2 608.72 415.38 608.68 415.48 608.67 415.49 608.67 415.49 608.65 415.53 608.55 415.71 608.52 415.76 608.5 415.78 608.39 415.83 608.19 415.9 608.03 415.93 607.95 415.95 607.91 415.97 607.84 416.03 607.77 416.09 607.74 416.13 607.7 416.19 607.68 416.24 607.66 416.28 607.62 416.34 607.59 416.38 607.57 416.45 607.55 416.5 607.53 416.62 607.51 416.75 607.5 416.89 607.51 416.97 607.53 417.1 607.58 417.29 607.58 417.31 607.63 417.48 607.67 417.62 607.68 417.68 607.69 417.71 607.69 417.72 607.72 417.84 607.73 417.89 607.73 417.97 607.74 418.02 607.76 418.14 607.78 418.28 607.78 418.42 607.77 418.6 607.76 418.84 607.74 418.99 607.75 419.14 607.77 419.28 607.76 419.4 607.74 419.59 607.71 419.72 607.71 419.78 607.69 419.81 607.65 419.87 607.64 419.9 607.65 419.97 607.72 420.19 607.73 420.22 607.69 420.44 607.68 420.53 607.68 420.55 607.67 420.62 607.67 420.64 607.67 420.68 607.67 420.72 607.67 420.79 607.65 420.96 607.64 421.03 607.64 421.04 607.64 421.08 607.64 421.12 607.62 421.25 607.62 421.25 607.6 421.49 607.56 421.81 607.54 422.03 607.52 422.19 607.49 422.34 607.48 422.36 607.47 422.41 607.48 422.42 607.51 422.47 607.53 422.51 607.54 422.52 607.54 422.53 607.52 422.58 607.52 422.59 607.46 422.76 607.42 422.9 607.38 423.01 607.38 423.04 607.36 423.1 607.36 423.13 607.35 423.18 607.35 423.23 607.37 423.3 607.39 423.38 607.43 423.46 607.44 423.49 607.44 423.54 607.42 423.61 607.39 423.71 607.38 423.82 607.37 423.93 607.36 424.04 607.36 424.15 607.36 424.21 607.37 424.25 607.41 424.34 607.43 424.4 607.44 424.42 607.44 424.48 607.42 424.62 607.4 424.76 607.37 424.89 607.27 425.09 607.19 425.23 607.14 425.35 607.06 425.55 607 425.68 606.91 425.85 606.85 425.98 606.8 426.06 606.77 426.16 606.75 426.22 606.72 426.29 606.7 426.35 606.73 426.57 606.75 426.78 606.75 426.81 606.76 426.84 606.77 426.91 606.79 427.01 606.8 427.07 606.83 427.16 606.86 427.27 606.92 427.46 607 427.76 607.09 428.1 607.1 428.12 607.1 428.13 607.15 428.28 607.17 428.37 607.18 428.4 607.18 428.44 607.19 428.46 607.2 428.58 607.23 428.85 607.27 429.19 607.27 429.2 607.27 429.22 607.27 429.25 607.29 429.38 607.31 429.6 607.34 429.91 607.35 429.97 607.36 430.04 607.37 430.18 607.4 430.45 607.43 430.75 607.45 430.92 607.45 430.99 607.46 431.08 607.46 431.11 607.48 431.36 607.5 431.55 607.52 431.67 607.53 431.71 607.52 431.74 607.53 431.98 607.53 432.1 607.54 432.22 607.56 432.45 607.57 432.53 607.6 432.91 607.63 433.24 607.63 433.25 607.65 433.46 607.67 433.6 607.67 433.61 607.68 433.67 607.68 433.74 607.68 433.76 607.68 433.8 607.69 433.89 607.69 433.92 607.69 434 607.71 434.1 607.71 434.12 607.72 434.14 607.73 434.19 607.74 434.23 607.74 434.27 607.74 434.35 607.75 434.41 607.75 434.47 607.75 434.48 607.76 434.5 607.76 434.55 607.77 434.6 607.77 434.64 607.77 434.7 607.77 434.72 607.77 434.74 607.79 434.79 607.8 434.85 607.81 434.87 607.82 434.89 607.83 434.92 607.85 434.99 607.86 435.01 607.87 435.05 607.88 435.08 607.89 435.09 607.89 435.11 607.9 435.14 607.9 435.16 607.9 435.26 607.9 435.34 607.9 435.35 607.9 435.38 607.9 435.43 607.89 435.47 607.89 435.49 607.89 435.51 607.9 435.52 607.9 435.52 607.91 435.54 607.93 435.58 607.93 435.59 607.94 435.6 607.95 435.64 607.96 435.67 607.96 435.78 607.96 435.82 607.96 435.88 607.96 435.93 607.98 436 607.99 436.06 608 436.11 608.01 436.15 608.02 436.19 608.03 436.26 608.04 436.3 608.04 436.33 608.04 436.38 608.05 436.42 608.05 436.43 608.06 436.46 608.07 436.5 608.12 436.71 608.16 436.86 608.23 437.19 608.24 437.21 608.25 437.26 608.26 437.29 608.34 437.65 608.36 437.73 608.37 437.76 608.37 437.79 608.39 437.86 608.4 437.94 608.41 438.02 608.41 438.04 608.41 438.06 608.41 438.15 608.41 438.26 608.4 438.31 608.4 438.34 608.4 438.38 608.41 438.46 608.4 438.59 608.4 438.75 608.4 438.82 608.41 438.89 608.41 438.96 608.41 439 608.41 439.02 608.41 439.05 608.4 439.11 608.4 439.18 608.41 439.25 608.41 439.29 608.4 439.33 608.4 439.37 608.39 439.43 608.38 439.48 608.38 439.51 608.38 439.56 608.38 439.58 608.39 439.61 608.4 439.64 608.42 439.67 608.42 439.68 608.43 439.69 608.45 439.71 608.48 439.74 608.53 439.78 608.57 439.81 608.63 439.84 608.72 439.9 608.74 439.92 608.75 439.93 608.75 439.95 608.76 440.06 608.78 440.26 608.78 440.35 608.78 440.36 608.78 440.38 608.73 440.5 608.7 440.56 608.66 440.66 608.65 440.69 608.64 440.73 608.63 440.73 608.63 440.75 608.63 440.84 608.63 440.86 608.63 440.98 608.63 441.17 608.63 441.32 608.63 441.44 608.63 441.55 608.62 441.68 608.61 441.81 608.6 441.95 608.59 442.1 608.59 442.12 608.58 442.17 608.57 442.31 608.57 442.38 608.56 442.42 608.55 442.48 608.52 442.68 608.52 442.7 608.48 442.9 608.48 442.92 608.47 442.94 608.47 442.96 608.46 442.99 608.45 443.19 608.45 443.25 608.44 443.48 608.43 443.55 608.42 443.65 608.41 443.9 608.4 444.15 608.4 444.25 608.38 444.33 608.32 444.51 608.25 444.71 608.18 444.95 608.08 445.23 608.02 445.41 608.02 445.42 608.01 445.43 608.01 445.44 608.01 445.45 608.01 445.46 608.01 445.48 608 445.49 608 445.52 608 445.55 608 445.61 608.02 445.75 608.02 445.77 608.02 445.79 608.02 445.8 608.02 445.81 608.02 445.82 608.02 445.83 608.02 445.84 608.01 445.85 608 445.88 607.93 446 607.85 446.16 607.73 446.37 607.58 446.64 607.49 446.85 607.35 447.18 607.28 447.35 607.23 447.45 607.05 447.86 606.92 448.19 606.8 448.43 606.69 448.63 606.64 448.74 606.62 448.78 606.62 448.79 606.61 448.81 606.61 448.83 606.61 448.85 606.61 448.87 606.61 448.91 606.61 448.98 606.61 449.01 606.6 449.08 606.59 449.11 606.58 449.15 606.56 449.2 606.55 449.22 606.55 449.22 606.55 449.23 606.54 449.25 606.54 449.27 606.55 449.28 606.55 449.29 606.51 449.37 606.49 449.41 606.47 449.46 606.43 449.57 606.4 449.67 606.38 449.79 606.34 449.96 606.34 449.97 606.32 450.1 606.27 450.47 606.26 450.55 606.22 451.03 606.21 451.15 606.2 451.19 606.17 451.46 606.11 451.77 606.1 451.81 606.08 451.94 606.06 451.97 606.02 452.03 606.02 452.05 605.98 452.43 605.96 452.55 605.95 452.57 605.83 452.72 605.63 453.23 605.62 453.26 605.52 453.45 605.39 453.72 605.38 453.74 605.27 453.95 605.17 454.17 605.15 454.19 605.06 454.38 604.84 454.68 604.83 454.7 604.81 454.72 604.75 454.77 604.74 454.82 604.73 454.84 604.72 454.87 604.66 455.12 604.58 455.3 604.49 455.58 604.48 455.59 604.38 455.88 604.22 456.29 604.21 456.32 604.2 456.32 604.01 456.32 604 456.32 603.98 456.31 603.95 456.3 603.9 456.29 603.83 456.27 603.78 456.26 603.75 456.25 603.69 456.23 603.64 456.22 603.62 456.21 603.41 456.16 603.35 456.14 603.21 456.1 603.07 456.06 602.99 456.04 602.92 456.03 602.91 456.03 602.82 456.02 602.8 456.02 602.66 455.99 602.62 455.98 602.61 455.98 602.55 455.96 602.5 455.94 602.4 455.93 602.26 455.9 602.24 455.89 602.16 455.87 602.15 455.87 602.11 455.86 601.96 455.77 601.94 455.75 601.92 455.74 601.87 455.72 601.68 455.63 601.58 455.58 601.45 455.52 601.45 455.52 601.36 455.47 601.29 455.44 601.26 455.43 601.17 455.38 601.12 455.36 601.06 455.33 601.02 455.32 601.01 455.31 600.95 455.29 600.9 455.27 600.89 455.26 600.83 455.22 600.82 455.22 600.78 455.19 600.73 455.16 600.62 455.1 600.6 455.09 600.5 455.04 600.45 455.02 600.29 454.95 600.27 454.94 600.24 454.93 600.23 454.92 600.12 454.86 600.1 454.85 600.01 454.81 599.96 454.77 599.95 454.77 599.8 454.69 599.79 454.69 599.74 454.66 599.64 454.62 599.61 454.6 599.56 454.58 599.55 454.57 599.54 454.56 599.52 454.55 599.5 454.53 599.46 454.48 599.41 454.43 599.39 454.41 599.37 454.38 599.36 454.37 599.32 454.33 599.32 454.32 599.23 454.23 599.17 454.17 599.14 454.13 599.13 454.12 599.12 454.11 599.08 454.07 599.03 454.03 598.97 454 598.95 453.99 598.93 453.97 598.88 453.93 598.85 453.92 598.77 453.86 598.67 453.79 598.63 453.76 598.61 453.75 598.48 453.64 598.39 453.56 598.36 453.54 598.35 453.53 598.31 453.49 598.27 453.46 598.23 453.43 598.17 453.39 598.16 453.38 598.15 453.37 598.06 453.31 598 453.27 597.97 453.24 597.94 453.22 597.85 453.14 597.85 453.13 597.74 453.03 597.58 452.9 597.56 452.89 597.54 452.87 597.45 452.78 597.32 452.67 597.31 452.66 597.25 452.59 597.23 452.58 597.2 452.55 597.16 452.51 596.98 452.37 596.84 452.27 596.82 452.26 596.74 452.19 596.73 452.18 596.65 452.12 596.64 452.11 596.6 452.08 596.56 452.06 596.55 452.05 596.54 452.04 596.4 451.93 596.32 451.85 596.31 451.84 596.26 451.81 596.19 451.75 596.08 451.66 595.98 451.59 595.97 451.58 595.92 451.54 595.91 451.53 595.83 451.47 595.8 451.45 595.75 451.41 595.66 451.35 595.64 451.33 595.61 451.32 595.57 451.29 595.49 451.24 595.43 451.21 595.41 451.2 595.39 451.19 595.35 451.17 595.34 451.16 595.31 451.14 595.3 451.11 595.28 451.08 595.26 451.04 595.24 451.01 595.22 450.99 595.22 450.98 595.19 450.96 595.17 450.95 595.16 450.93 595.14 450.92 595.14 450.91 595.09 450.87 595.03 450.83 595.01 450.8 594.94 450.75 594.89 450.71 594.79 450.64 594.75 450.6 594.71 450.57 594.65 450.51 594.52 450.4 594.41 450.3 594.4 450.29 594.4 450.29 594.39 450.28 594.27 450.17 594.03 449.96 594 449.94 593.99 449.93 593.98 449.92 593.86 449.83 593.8 449.78 593.79 449.77 593.76 449.74 593.73 449.72 593.69 449.68 593.66 449.67 593.64 449.65 593.56 449.58 593.4 449.44 593.28 449.34 593.2 449.27 593.14 449.21 593.07 449.14 593.05 449.12 592.91 448.97 592.89 448.95 592.84 448.91 592.82 448.89 592.8 448.88 592.75 448.84 592.74 448.82 592.66 448.76 592.56 448.67 592.48 448.61 592.35 448.5 592.32 448.48 592.27 448.44 592.21 448.39 592.19 448.37 592.17 448.35 592.16 448.34 592.12 448.3 592.08 448.26 592.04 448.23 591.98 448.18 591.93 448.13 591.9 448.11 591.89 448.1 591.87 448.07 591.84 448.05 591.82 448.03 591.8 448 591.78 447.98 591.74 447.95 591.7 447.91 591.66 447.88 591.59 447.82 591.58 447.82 591.54 447.79 591.51 447.77 591.49 447.75 591.41 447.7 591.41 447.69 591.32 447.62 591.28 447.59 591.19 447.51 591.18 447.5 591.15 447.47 591.12 447.45 591.07 447.41 591.05 447.39 591.04 447.38 591.03 447.37 590.99 447.33 590.98 447.32 590.92 447.27 590.92 447.27 590.88 447.23 590.86 447.22 590.81 447.18 590.74 447.12 590.73 447.11 590.72 447.11 590.71 447.09 590.7 447.08 590.69 447.07 590.66 447.06 590.6 447 590.53 446.94 590.51 446.92 590.5 446.91 590.48 446.88 590.35 446.79 590.2 446.69 590.05 446.58 589.92 446.48 589.81 446.41 589.83 446.15 589.84 446.03 589.84 445.98 589.85 445.83 589.86 445.62 589.87 445.52 589.86 445.34 589.85 445.33 589.85 445.31 589.85 445.25 589.85 445.18 589.85 445.13 589.85 445.04 589.85 444.99 589.85 444.97 589.85 444.77 589.85 444.74 589.85 444.63 589.85 444.6 589.84 444.51 589.84 444.47 589.84 444.43 589.83 444.32 589.82 444.22 589.81 444.11 589.81 444.09 589.81 444.02 589.82 443.95 589.83 443.89 589.83 443.88 589.83 443.77 589.84 443.66 589.84 443.44 589.84 443.42 589.84 443.37 589.85 443.28 589.85 443.17 589.85 443.1 589.85 443.09 589.85 443.03 589.85 442.99 589.85 442.85 589.85 442.82 589.85 442.8 589.85 442.79 589.86 442.75 589.85 442.73 589.86 442.62 589.86 442.53 589.86 442.46 589.86 442.37 589.87 442.16 589.87 441.98 589.87 441.94 589.86 441.83 589.86 441.82 589.86 441.75 589.86 441.65 589.86 441.62 589.86 441.48 589.86 441.47 589.86 441.46 589.86 441.41 589.86 441.32 589.86 441.31 589.86 441.17 589.87 441.02 589.88 440.87 589.88 440.83 589.88 440.76 589.89 440.63 589.9 440.53 589.91 440.43 589.92 440.39 589.92 440.36 589.92 440.34 589.93 440.3 589.93 440.27 589.92 440.17 589.92 440.15 589.92 440.1 589.9 440 589.89 439.91 589.89 439.9 589.88 439.83 589.88 439.79 589.87 439.77 589.86 439.7 589.86 439.67 589.85 439.59 589.84 439.48 589.83 439.46 589.83 439.4 589.8 439.15 589.76 438.9 589.76 438.88 589.75 438.81 589.74 438.77 589.73 438.69 589.69 438.47 589.68 438.42 589.67 438.38 589.65 438.22 589.63 438.07 589.61 437.97 589.6 437.85 589.6 437.77 589.6 437.64 589.61 437.56 589.63 437.48 589.65 437.4 589.68 437.31 589.73 437.21 589.77 437.13 589.8 437.06 589.82 437.03 589.83 437 589.85 436.98 589.89 436.94 589.93 436.88 589.96 436.85 590.02 436.82 590.09 436.77 590.1 436.77 590.11 436.75 590.13 436.73 590.15 436.71 590.17 436.67 590.19 436.64 590.19 436.64 590.2 436.62 590.23 436.57 590.3 436.4 590.33 436.34 590.34 436.33 590.35 436.31 590.39 436.21 590.41 436.15 590.42 436.1 590.48 435.9 590.54 435.73 590.65 435.42 590.69 435.32 590.78 435.07 590.81 435 590.84 434.94 590.87 434.84 590.94 434.67 590.94 434.59 591.02 434.43 591.09 434.27 591.1 434.25 591.12 434.19 591.17 434.09 591.2 434.02 591.23 433.97 591.26 433.93 591.3 433.84 591.32 433.78 591.34 433.72 591.35 433.68 591.36 433.66 591.37 433.62 591.41 433.48 591.45 433.34 591.49 433.21 591.51 433.16 591.52 433.12 591.52 433.09 591.52 433.06 591.52 432.96 591.51 432.79 591.51 432.63 591.51 432.63 591.51 432.55 591.52 432.38 591.54 432.16 591.56 431.92 591.59 431.71 591.61 431.52 591.63 431.43 591.63 431.42 591.64 431.36 591.68 431.21 591.72 431.06 591.76 430.99 591.8 430.91 591.82 430.87 591.82 430.68 591.82 430.67 591.83 430.5 591.84 430.4 591.87 430.23 591.88 430.15 591.89 430.04 591.89 429.94 591.89 429.92 591.88 429.83 591.88 429.71 591.87 429.61 591.88 429.45 591.89 429.25 591.89 429.19 591.89 429.08 591.9 429.05 591.9 429.01 591.9 428.98 591.91 428.96 591.91 428.9 591.91 428.84 591.91 428.78 591.93 428.69 591.94 428.6 591.95 428.59 591.96 428.48 591.96 428.46 591.97 428.38 591.97 428.31 591.97 428.29 591.97 428.28 591.97 428.16 591.97 428.13 591.96 427.91 591.96 427.74 591.96 427.71 591.96 427.69 591.96 427.58 591.95 427.42 591.94 427.26 591.94 427.17 591.94 427.14 591.93 426.97 591.94 426.8 591.94 426.63 591.94 426.46 591.91 425.9 591.91 425.76 591.9 425.7 591.9 425.68 591.89 425.63 591.89 425.59 591.89 425.56 591.89 425.52 591.91 425.46 591.91 425.43 591.91 425.42 591.92 425.34 591.92 425.26 591.92 425.21 591.92 425.2 591.91 425.07 591.89 424.95 591.86 424.78 591.85 424.75 591.81 424.56 591.81 424.54 591.78 424.43 591.77 424.37 591.74 424.2 591.73 424.15 591.72 424.1 591.72 424.06 591.73 423.95 591.73 423.91 591.74 423.81 591.74 423.79 591.76 423.53 591.79 423.28 591.79 423.23 591.79 423.19 591.79 423.08 591.79 423.06 591.79 423.06 591.8 422.98 591.78 422.77 591.77 422.62 591.77 422.53 591.77 422.46 591.76 422.33 591.76 422.32 591.76 422.28 591.76 422.26 591.78 422.13 591.79 422.06 591.8 422.02 591.8 422 591.8 421.95 591.78 421.74 591.77 421.68 591.77 421.66 591.78 421.61 591.8 421.55 591.81 421.53 591.84 421.49 591.86 421.46 591.9 421.42 591.94 421.39 591.94 421.37 591.95 421.25 591.95 421.12 591.96 421.01 591.96 420.94 591.97 420.88 591.99 420.81 592.03 420.69 592.09 420.56 592.12 420.5 592.1 420.35 592 419.99 591.93 419.71 591.93 419.68 591.92 419.66 591.91 419.57 591.88 419.46 591.87 419.43 591.87 419.4 591.87 419.32 591.88 419.27 591.91 419.14 591.91 419.1 591.91 419.07 591.9 419.05 591.82 418.86 591.78 418.76 591.77 418.73 591.77 418.69 591.77 418.58 591.77 418.51 591.78 418.44 591.81 418.39 591.82 418.32 591.87 418.18 591.91 418.06 591.92 418.05 591.93 417.98 591.93 417.8 592.03 417.69 592.31 417.35 592.39 417.22 592.43 417.15 592.47 417.11 592.54 417.06 592.56 417.03 592.6 416.96 592.68 416.8 592.75 416.67 592.75 416.65 592.76 416.45 592.76 416.32 592.77 416.29 592.8 416.21 592.92 415.96 593.03 415.72 593.04 415.64 593.04 415.58 593.07 415.46 593.08 415.41 593.12 415.28 593.18 415.12 593.19 415.06 593.21 415.03 593.27 414.94 593.31 414.88 593.32 414.85 593.33 414.83 593.34 414.71 593.35 414.66 593.48 414.35 593.51 414.27 593.51 414.26 593.52 414.23 593.52 414.21 593.54 414.15 593.56 414.07 593.56 414.04 593.56 414.02 593.56 413.94 593.54 413.8 593.52 413.65 593.5 413.55 593.5 413.5 593.53 413.44 593.62 413.26 593.72 413.13 593.77 413.06 593.8 413 593.84 412.88 593.87 412.78 593.88 412.7 593.89 412.59 593.87 412.48 593.85 412.37 593.84 412.29 593.83 412.2 593.84 412.01 593.85 411.76 593.86 411.6 593.86 411.45 593.87 411.34 593.87 411.33 593.86 411.3 593.8 411.2 593.7 411.02 593.69 411 593.66 410.86 593.62 410.58 593.59 410.41 593.59 410.37 593.59 410.34 593.6 410.32 593.69 410.17 593.78 410.01 593.77 410 593.71 409.87 593.69 409.84 593.64 409.68 593.62 409.61 593.59 409.54 593.53 409.39 593.52 409.37 593.52 409.35 593.42 409.08 593.37 408.94 593.29 408.66 593.2 408.39 593.12 408.12 593.05 407.85 593.03 407.79 593.02 407.76 593.01 407.69 593 407.62 593 407.59 593 407.53 593 407.5 593 407.44 593 407.43 593 407.39 593 407.36 593.01 407.31 593.01 407.28 593.03 407.14 593.04 407.1 593.05 406.99 593.06 406.91 593.07 406.86 593.07 406.8 593.08 406.72 593.08 406.66 593.08 406.59 593.09 406.53 593.08 406.47 593.08 406.42 593.06 406.14 593.05 406 593.04 405.93 593.04 405.86 593.04 405.82 593.04 405.71 593.04 405.66 593.04 405.64 593.04 405.63 593.05 405.6 593.06 405.58 593.07 405.56 593.09 405.53 593.15 405.47 593.17 405.44 593.2 405.41 593.22 405.37 593.24 405.34 593.25 405.32 593.27 405.27 593.29 405.23 593.3 405.19 593.3 405.15 593.31 405.1 593.32 405.07 593.32 405.01 593.32 404.97 593.32 404.93 593.31 404.87 593.31 404.83 593.3 404.8 593.29 404.76 593.28 404.72 593.27 404.7 593.27 404.67 593.27 404.65 593.27 404.61 593.26 404.5 593.26 404.45 593.26 404.42 593.25 404.39 593.24 404.35 593.22 404.26 593.21 404.2 593.21 404.17 593.21 404.14 593.21 404.09 593.21 404.05 593.21 404.04 593.22 403.95 593.22 403.89 593.23 403.83 593.24 403.75 593.25 403.7 593.26 403.65 593.28 403.6 593.29 403.56 593.31 403.5 593.33 403.43 593.36 403.35 593.36 403.32 593.36 403.28 593.36 403.18 593.35 403.05 593.33 402.91 593.31 402.82 593.27 402.8 593.19 402.76 593.17 402.75 593.17 402.7 593.15 402.6 593.14 402.57 593.12 402.44 593.1 402.31 593.08 402.18 593.07 402.11 593.07 402.1 593.06 402.07 593.07 402.05 593.07 402 593.05 401.9 593.05 401.87 593.05 401.84 593.04 401.83 593.02 401.82 593 401.81 592.98 401.79 592.96 401.78 592.94 401.77 592.93 401.75 592.92 401.74 592.9 401.72 592.89 401.69 592.87 401.66 592.87 401.63 592.85 401.59 592.85 401.56 592.84 401.53 592.84 401.5 592.84 401.47 592.84 401.45 592.83 401.42 592.83 401.41 592.83 401.4 592.82 401.24 593.19 401.15 593.5 401.03 593.75 400.89 593.86 400.82 593.95 400.77 594.14 400.62 594.32 400.39 594.45 400.14 594.56 399.88 594.66 399.54 594.68 399.34 594.66 399.03 594.65 398.99 594.63 398.89 594.6 398.75 594.59 398.66 594.66 398.59 594.82 398.44 594.92 398.36 595.03 398.26 595.02 397.8 594.98 397.55 594.92 397.3 594.91 397.25 594.87 396.97 594.85 396.68 594.86 396.51 594.9 396.36 595.01 396.17 595.18 395.94 595.31 395.81 595.44 395.72 595.59 395.65 595.74 395.62 595.91 395.61 596.08 395.62 596.32 395.66 596.53 395.73 596.94 395.92 596.98 395.83 596.99 395.79 597.05 395.64 597.08 395.58 597.09 395.55 597.11 395.52 597.12 395.48 597.21 395.47 597.34 395.47 597.49 395.46 597.58 395.46 597.8 395.46 597.94 395.45 597.97 395.45 597.98 395.44 597.99 395.43 598.03 395.38 598.09 395.29 598.13 395.23 598.16 395.19 598 395.06 597.89 394.93 597.85 394.87 597.83 394.8 597.81 394.72 597.79 394.65 597.75 394.57 597.68 394.48 597.47 394.23 597.31 393.99 597.27 393.92 597.23 393.86 597.18 393.82 597.13 393.78 597.11 393.76 597.09 393.74 597.09 393.72 597.09 393.7 597.1 393.66 597.14 393.55 597.18 393.44 597.19 393.34 597.19 393.27 597.18 393.21 597.16 393.15 597.12 393.09 597.09 393.06 597.06 393.04 597.04 393.04 597.02 393.05 596.99 393.07 596.93 393.14 596.9 393.17 596.87 393.19 596.84 393.19 596.82 393.18 596.8 393.15 596.78 393.1 596.75 393.03 596.73 392.96 596.69 392.92 596.63 392.84 596.54 392.75 596.48 392.7 596.45 392.66 596.44 392.63 596.44 392.6 596.45 392.58 596.47 392.56 596.54 392.53 596.6 392.51 596.64 392.48 596.67 392.44 596.7 392.38 596.73 392.32 596.75 392.29 596.78 392.28 596.8 392.26 596.84 392.26 596.94 392.27 596.99 392.27 597.03 392.26 597.06 392.24 597.08 392.22 597.09 392.2 597.09 392.17 597.08 392.15 597.06 392.12 597.04 392.1 597.02 392.1 596.99 392.1 596.95 392.11 596.89 392.13 596.86 392.13 596.82 392.13 596.79 392.12 596.76 392.09 596.73 392.05 596.72 391.99 596.69 391.83 596.68 391.71 596.69 391.63 596.7 391.58 596.73 391.54 596.76 391.51 596.78 391.5 596.82 391.5 596.84 391.51 596.86 391.53 596.88 391.56 596.91 391.62 596.93 391.65 596.96 391.67 596.98 391.67 597.01 391.67 597.03 391.65 597.05 391.63 597.06 391.61 597.06 391.57 597.07 391.46 597.07 391.34 597.06 391.22 597.02 391.1 Z"/>
</g></svg>