<svg xmlns="http://www.w3.org/2000/svg" version="1.2" baseProfile="tiny" stroke-linecap="round" stroke-linejoin="round" viewBox="124.5 243.45 45.93 41.82"><g xmlns="http://www.w3.org/2000/svg" id="Kuartango">
<path d="M 134.98 243.47 135.01 243.51 135.15 243.68 135.33 243.9 135.56 244.06 135.83 244.17 136.14 243.98 136.65 243.73 137.27 244.11 138.16 244.64 138.91 245.01 139.12 245.1 139.36 245.23 140.46 245.72 141.62 246.34 142.1 246.64 142.64 246.85 143.26 247.08 143.81 247.31 144.43 247.47 145.08 247.51 145.67 247.52 146.22 247.47 146.73 247.54 147.1 247.58 147.47 247.6 147.82 247.45 148.15 247.13 148.47 246.82 148.88 246.49 149.28 246.22 149.52 245.99 149.66 245.69 149.79 245.31 149.87 244.9 149.99 244.49 150.06 244.18 150.09 243.96 150.25 243.86 150.49 243.98 150.9 244.18 151.33 244.36 151.9 244.51 152.45 244.59 152.88 244.72 153.22 244.89 153.67 245.2 154.15 245.32 154.75 245.48 155.32 245.64 155.95 245.77 156.48 245.92 156.85 246.04 157.07 246.24 157.24 246.47 157.43 246.75 157.64 247.23 157.81 247.59 157.98 247.92 158.12 248.11 158.35 248.25 158.52 248.38 158.78 248.6 159.29 248.9 159.71 249.11 160.19 249.35 160.55 249.42 161.04 249.34 161.62 249.21 162.01 249.13 162.42 248.99 162.82 248.83 163.22 248.67 163.74 248.59 164.22 248.44 164.66 248.35 165.16 248.29 165.65 248.27 166.22 248.25 166.66 248.29 166.7 248.86 166.8 249.37 166.97 249.68 167.31 250.08 167.7 250.42 168.06 250.67 168.43 250.88 168.76 251.16 169.07 251.44 169.47 251.82 169.89 252.18 170.19 252.51 170.3 252.76 170.41 252.84 170.38 253.3 170.24 253.73 169.58 253.91 169.04 253.88 168.42 254.03 167.74 254.02 167.23 254.05 166.6 254.18 166.18 254.42 165.67 254.78 165.25 255.18 164.98 255.62 164.79 255.88 164.47 255.96 164.06 256.12 163.61 256.71 163.4 257.15 163.18 257.51 162.9 257.88 162.82 258.18 162.83 258.5 162.81 258.83 162.94 259.11 163.1 259.37 163.26 259.63 163.2 259.85 163.04 260.03 162.92 260.31 162.74 260.51 162.62 260.78 162.65 261.3 162.82 261.78 162.99 262.26 163.07 262.66 162.99 263.03 162.91 263.23 163.01 263.39 163.21 263.42 163.4 263.41 163.63 263.47 163.86 263.84 164.19 264.29 164.58 265.1 164.64 265.58 164.61 265.96 164.66 266.32 164.74 266.74 164.87 267.19 165.04 267.59 165.22 268.02 165.45 268.58 165.68 269.19 165.96 269.68 166.16 270.12 166.21 270.43 166.1 271.13 166.1 271.76 166.04 272.41 165.97 273.12 165.9 273.77 165.82 274.3 165.8 274.79 165.79 275.32 165.57 275.91 165 276.5 164.54 276.73 164.26 276.83 164.2 277.08 164.28 277.3 164.07 277.45 164.07 277.78 164.19 277.97 164.18 278.12 163.86 278.29 163.59 278.55 163.41 278.86 163.24 279.1 163.06 279.38 162.84 279.67 162.57 280.03 162.58 280.48 162.69 280.8 162.55 281.03 162.09 281.26 161.91 281.68 162.21 282.16 161.84 282.53 161.66 282.91 161.46 283.3 161.2 283.71 160.86 284.18 160.53 284.63 160.3 284.95 160.03 285.26 159.47 285.21 159.16 284.98 158.99 284.6 158.94 284.18 158.96 283.85 159.07 283.2 158.78 282.89 158.45 282.47 158.1 282.03 157.85 281.64 157.56 281.24 157.35 280.83 157.06 280.43 156.81 280.06 156.6 279.77 156.55 279.39 156.42 279.14 156.13 278.86 155.92 278.62 155.61 278.34 155.24 278.06 154.84 277.7 154.54 277.52 154.25 277.28 154.05 277.01 153.76 276.65 153.53 276.22 153.29 275.83 153.02 275.46 152.68 275.12 152.4 274.93 151.96 274.58 151.61 274.4 151.21 274.19 150.8 274.11 150.42 274.04 150.12 274.01 149.88 273.88 149.5 273.69 149.11 273.53 148.72 273.46 148.34 273.43 147.84 273.49 147.39 273.51 147.34 273.19 147.2 272.85 146.85 272.68 146.36 272.48 145.93 272.25 145.42 272.03 145.01 271.82 144.5 271.61 144.09 271.45 143.76 271.32 143.37 271.06 143.01 270.82 142.66 270.75 142.2 270.66 141.68 270.58 141.24 270.48 140.76 270.36 140.3 270.25 139.77 270.1 139.3 270.02 138.81 269.94 138.41 269.89 137.97 269.81 137.53 269.83 137.09 269.79 136.68 269.71 136.25 269.66 135.84 269.54 135.41 269.4 135.04 269.31 134.68 269.23 134.31 269.14 134.01 268.91 133.53 268.66 133.11 268.49 132.65 268.26 132.35 268.08 132.12 267.89 131.93 267.7 131.73 267.4 131.54 267.26 131.28 267.16 131.27 267.15 130.94 266.95 130.71 266.7 130.43 266.37 129.98 265.94 129.69 265.61 129.45 265.27 129.23 264.9 129.03 264.51 128.85 264.21 128.69 263.85 128.53 263.46 128.33 263.07 128.18 262.71 128.07 262.28 127.91 261.88 127.74 261.52 127.66 261.1 127.46 260.66 127.37 260.38 127.09 259.93 126.83 259.71 126.54 259.58 126.08 259.42 125.81 259.19 125.57 258.88 125.36 258.54 125.22 258.27 125.15 257.97 125.14 257.65 125.13 257.34 125.18 257.01 125.27 256.59 125.36 256.25 125.45 255.96 125.53 255.59 125.62 255.26 125.5 255.04 125.29 254.84 125.1 254.64 124.85 254.4 124.51 254.2 124.66 253.68 124.77 253.22 124.8 252.79 124.86 252.37 124.93 251.88 125.02 251.65 125.4 251.34 125.77 250.98 126.07 250.57 126.3 250.23 126.61 249.85 126.95 249.42 127.19 249.06 127.46 248.72 127.78 248.41 128.17 248.09 128.56 247.9 128.91 247.78 129.18 247.76 129.58 247.93 129.91 248.09 130.16 248.11 130.43 247.73 130.62 247.32 130.85 246.93 131.12 246.53 131.39 246.14 131.73 245.73 131.98 245.4 132.17 245.13 132.5 245.09 132.79 245.09 133.35 244.9 133.85 244.56 134.21 244.17 134.49 243.86 134.73 243.66 134.98 243.47 Z"/>
</g></svg>