<svg xmlns="http://www.w3.org/2000/svg" version="1.2" baseProfile="tiny" stroke-linecap="round" stroke-linejoin="round" viewBox="693.82 175.45 36.73 17.95"><g xmlns="http://www.w3.org/2000/svg" id="Lakarri-Arhane-Sarrikotagaine">
<path d="M 729.83 177.78 729.84 177.78 730.01 178 730.55 178.51 730.47 178.55 730.28 178.62 730 178.95 729.79 179.3 729.73 179.58 729.56 179.77 729.5 179.95 729.47 180.34 729.22 180.51 729.28 180.81 729.2 180.99 728.96 181.85 728.67 181.97 728.42 181.99 728.24 182.14 728.04 182.22 728.03 182.25 728.02 182.3 727.99 182.35 727.95 182.39 727.9 182.42 727.84 182.43 727.75 182.45 727.68 182.46 727.62 182.47 727.56 182.49 727.5 182.49 727.44 182.49 727.43 182.5 727.37 182.51 727.32 182.51 727.29 182.52 727.28 182.53 727.27 182.55 727.26 182.57 727.22 182.61 727.15 182.68 727.07 182.74 727.05 182.77 727.03 182.8 727.02 182.83 727.02 182.88 727.02 182.9 727.02 182.97 727.01 183.04 727.01 183.1 726.99 183.17 726.98 183.22 726.95 183.28 726.93 183.31 726.88 183.35 726.83 183.37 726.74 183.39 726.65 183.41 726.56 183.42 726.53 183.42 726.39 183.82 726.34 184.06 726.24 184.24 725.57 184.82 725.53 184.83 725.49 184.84 725.48 184.85 725.45 184.86 725.42 184.87 725.4 184.87 725.37 184.88 725.35 184.89 725.32 184.89 725.28 184.9 725.24 184.91 725.21 184.92 725.18 184.94 725.16 184.95 725.12 184.97 725.09 184.98 725.05 185 725.03 185.01 725.01 185.03 724.98 185.05 724.96 185.06 724.94 185.07 724.92 185.1 724.9 185.13 724.89 185.16 724.87 185.18 724.84 185.22 724.82 185.25 724.81 185.28 724.79 185.3 724.78 185.34 724.75 185.37 724.72 185.39 724.69 185.41 724.66 185.44 724.64 185.46 724.61 185.49 724.58 185.54 724.55 185.58 724.54 185.6 724.51 185.62 724.49 185.63 724.47 185.63 724.44 185.65 724.43 185.67 724.4 185.7 724.37 185.72 724.35 185.75 724.34 185.78 724.32 185.81 724.3 185.82 724.27 185.84 724.25 185.85 724.23 185.85 724.2 185.86 724.18 185.88 724.17 185.9 724.14 185.91 724.12 185.93 724.11 185.96 724.11 185.99 724.1 186.02 724.09 186.04 724.22 186.22 724.44 186.77 724.7 187.26 725.02 187.71 725.05 187.8 725 187.85 724.59 187.99 724.12 188.21 723.82 188.48 723.35 188.77 723.04 188.88 722.31 189.22 721.58 189.56 720.86 189.9 720.7 189.63 720.59 189.64 719.91 190.03 719.32 190.31 718.52 190.49 717.48 190.81 716.99 190.89 716.5 190.97 716 191.06 715.3 191.26 715.06 191.37 714.36 191.62 713.66 191.87 712.96 192.12 712.45 192.13 711.95 192.14 711.45 192.16 710.98 192.19 710.48 192.43 710.05 192.58 709.47 192.56 709.43 192.54 709.41 192.53 708.81 192.39 708.35 192.1 707.9 191.72 707.52 191.48 707.14 191.33 706.68 191.27 706.51 191.16 705.63 190.81 705.32 190.73 705.09 190.62 704.88 190.59 704.05 190.65 703.69 190.8 703.3 191.05 702.53 191.87 702.3 192.07 702.19 192.04 701.98 192.06 701.95 192.05 701.94 192.05 701.93 192.05 701.9 192.06 701.89 192.07 701.86 192.08 701.84 192.08 701.83 192.09 701.81 192.09 701.79 192.1 701.78 192.11 701.77 192.12 701.75 192.12 701.74 192.12 701.73 192.13 701.73 192.14 701.71 192.14 701.7 192.14 701.69 192.15 701.68 192.16 701.67 192.16 701.65 192.15 701.65 192.15 701.64 192.17 701.63 192.18 701.63 192.2 701.62 192.23 701.61 192.26 701.6 192.28 701.59 192.29 701.56 192.3 701.54 192.32 701.51 192.33 701.31 192.27 701.05 192.18 700.61 192.07 700.57 192.07 700.55 192.07 700.51 192.08 700.49 192.09 700.47 192.1 700.44 192.11 700.43 192.12 700.41 192.13 700.36 192.14 700.31 192.15 700.27 192.16 700.24 192.16 700.2 192.17 700.17 192.17 700.15 192.17 700.14 192.17 700.1 192.18 700.07 192.18 700.03 192.17 699.97 192.17 699.93 192.17 699.89 192.16 699.84 192.16 699.81 192.15 699.78 192.15 699.74 192.15 699.71 192.16 699.68 192.16 699.65 192.16 699.62 192.17 699.59 192.18 699.57 192.18 699.55 192.19 699.54 192.19 699.52 192.18 699.5 192.16 699.48 192.15 699.45 192.15 699.42 192.14 699.35 192.11 699.31 192.09 699.28 192.07 699.22 192.04 699.17 191.99 699.07 191.93 699.04 191.91 699 191.9 698.97 191.88 698.94 191.87 698.91 191.86 698.89 191.85 698.87 191.85 698.85 191.85 698.82 191.86 698.79 191.87 698.77 191.87 698.68 191.9 698.65 191.91 698.63 191.91 698.61 191.91 698.59 191.92 698.57 191.93 698.53 191.95 698.44 191.98 698.33 192.02 698.27 192.04 698.19 192.09 698.13 192.11 698.09 192.13 698.04 192.16 697.99 192.19 697.94 192.22 697.88 192.25 697.8 192.29 697.75 192.32 697.73 192.33 697.7 192.33 697.66 192.36 697.59 192.36 697.54 192.37 697.5 192.38 697.43 192.41 697.36 192.43 697.28 192.6 697.01 192.79 696.75 193.07 696.66 193.11 696.49 193.09 696.37 193.26 696.24 193.35 696.03 193.4 695.83 193.29 695.44 193.23 695.1 193.07 694.73 192.83 694.44 192.69 693.9 192.53 693.84 192.5 693.87 192.41 694.09 192.01 694.31 191.62 694.53 191.22 694.53 191.21 694.53 191.2 694.53 191.19 694.53 191.18 694.54 191.17 694.55 191.17 694.56 191.18 694.56 191.18 694.57 191.17 694.57 191.16 694.57 191.15 694.56 191.14 694.55 191.13 694.53 191.12 694.53 191.11 694.53 191.09 694.53 191.08 694.54 191.06 694.54 191.05 694.55 191.04 694.55 191.03 694.55 191.02 694.54 191.01 694.53 191.01 694.52 191 694.52 190.99 694.52 190.97 694.52 190.95 694.53 190.93 694.53 190.91 694.54 190.89 694.54 190.88 694.55 190.86 694.56 190.85 694.57 190.84 694.59 190.83 694.6 190.83 694.64 190.81 694.68 190.8 694.71 190.79 694.73 190.78 694.75 190.76 694.77 190.75 694.83 190.72 694.86 190.71 694.88 190.7 694.9 190.7 694.92 190.7 694.94 190.7 694.96 190.7 694.97 190.7 695 190.7 695.01 190.71 695.01 190.73 695.01 190.74 695.65 191.68 695.67 191.69 695.68 191.69 695.7 191.69 695.72 191.68 695.74 191.67 695.77 191.66 695.79 191.65 695.81 191.65 695.83 191.65 695.85 191.64 695.87 191.62 695.87 191.61 695.88 191.58 695.88 191.57 695.89 191.55 695.91 191.53 695.93 191.52 695.96 191.51 695.97 191.51 696 191.5 696.03 191.49 696.04 191.48 696.06 191.48 696.08 191.49 696.11 191.49 696.12 191.49 696.15 191.48 696.19 191.48 696.21 191.46 696.22 191.45 696.24 191.44 696.27 191.43 696.3 191.42 696.34 191.41 696.37 191.4 696.42 191.41 696.45 191.41 696.5 191.44 696.57 191.46 696.64 191.48 696.68 191.48 696.71 191.49 696.76 191.51 696.87 191.53 696.89 191.52 696.91 191.5 696.94 191.48 696.98 191.45 697.02 191.43 697.06 191.4 697.1 191.38 697.14 191.37 697.19 191.37 697.23 191.36 697.25 191.35 697.26 191.35 697.3 191.33 697.33 191.31 697.36 191.28 697.4 191.23 697.41 191.2 697.43 191.16 697.45 191.14 697.47 191.11 697.48 191.09 697.49 191.07 697.51 191.05 697.55 191.01 697.57 191 697.65 190.94 697.68 190.94 697.7 190.93 697.74 190.93 697.77 190.92 697.81 190.91 697.84 190.9 697.89 190.88 697.96 190.85 698.04 190.82 698.11 190.79 698.16 190.76 698.22 190.71 698.34 190.58 698.4 190.52 698.46 190.48 698.5 190.46 698.55 190.43 698.62 190.39 698.65 190.37 698.76 190.36 698.8 190.33 698.94 190.17 699.04 190.09 699.09 190.05 699.2 189.96 699.32 189.87 699.35 189.82 699.47 189.68 699.49 189.64 699.53 189.58 699.56 189.54 699.6 189.5 699.62 189.47 699.71 189.4 699.82 189.31 699.91 189.23 699.98 189.19 699.99 189.17 700.02 189.14 700.05 189.08 700.1 188.97 700.21 188.66 700.26 188.52 700.31 188.42 700.35 188.35 700.37 188.31 700.4 188.28 700.44 188.22 700.49 188.16 700.5 188.16 700.52 188.13 700.55 188.09 700.57 188.01 700.59 187.95 700.6 187.91 700.62 187.86 700.64 187.82 700.68 187.75 700.7 187.71 700.72 187.7 700.74 187.68 700.79 187.65 700.9 187.59 701 187.57 701.04 187.57 701.15 187.55 701.26 187.52 701.36 187.47 701.42 187.44 701.48 187.4 701.5 187.4 701.52 187.39 701.56 187.37 701.59 187.35 701.6 187.33 701.64 187.26 701.66 187.24 701.68 187.18 701.69 187.16 701.71 187.14 701.73 187.11 701.77 187.08 701.81 187.07 701.85 187.06 701.89 187.04 701.92 187.01 702.01 186.92 702.16 186.77 702.24 186.68 702.26 186.65 702.27 186.63 702.28 186.61 702.29 186.58 702.29 186.56 702.28 186.54 702.27 186.5 702.27 186.48 702.32 186.44 702.39 186.4 702.41 186.37 702.43 186.29 702.45 186.19 702.46 186.13 702.46 186.02 702.47 185.99 702.47 185.97 702.48 185.93 702.49 185.9 702.51 185.87 702.54 185.84 702.58 185.81 702.67 185.76 702.87 185.66 702.94 185.61 702.99 185.59 703.02 185.58 703.07 185.59 703.15 185.61 703.19 185.62 703.24 185.63 703.32 185.66 703.36 185.69 703.46 185.68 703.48 185.68 703.53 185.67 703.57 185.66 703.61 185.65 703.65 185.63 703.69 185.6 703.73 185.57 703.75 185.54 703.78 185.5 703.8 185.45 703.82 185.42 703.83 185.39 703.86 185.34 703.88 185.32 703.91 185.3 703.94 185.27 703.97 185.26 703.99 185.24 704 185.23 704.01 185.19 704.01 185.17 704.02 185.13 704.03 185.09 704.04 185.05 704.07 185.02 704.12 184.98 704.18 184.93 704.24 184.87 704.28 184.83 704.32 184.79 704.35 184.75 704.38 184.72 704.4 184.7 704.44 184.68 704.48 184.67 704.52 184.66 704.55 184.66 704.57 184.65 704.61 184.66 704.65 184.67 704.69 184.7 704.73 184.72 704.76 184.74 704.8 184.76 704.84 184.77 704.88 184.77 704.93 184.76 705.08 184.73 705.18 184.69 705.23 184.69 705.31 184.67 705.36 184.66 705.4 184.65 705.44 184.64 705.47 184.62 705.49 184.59 705.52 184.54 705.56 184.49 705.59 184.45 705.62 184.41 705.64 184.36 705.68 184.3 705.73 184.23 705.76 184.15 705.78 184.11 705.81 184.05 705.84 184.01 705.87 183.99 705.91 183.97 705.95 183.97 706 183.97 706.05 184 706.11 184.05 706.13 184.08 706.15 184.1 706.17 184.13 706.18 184.19 706.19 184.21 706.2 184.25 706.2 184.29 706.19 184.34 706.18 184.38 706.18 184.41 706.19 184.44 706.21 184.49 706.23 184.54 706.25 184.57 706.28 184.6 706.31 184.62 706.36 184.66 706.4 184.69 706.44 184.7 706.49 184.7 706.54 184.69 706.58 184.66 706.62 184.63 706.64 184.59 706.66 184.56 706.68 184.52 706.69 184.49 706.72 184.47 706.73 184.44 706.73 184.41 706.74 184.39 706.74 184.34 706.74 184.3 706.75 184.18 706.74 184.17 706.74 184.14 706.75 184.12 706.77 184.09 706.82 184.07 706.85 184.06 706.89 184.04 706.93 184.02 706.96 184 707 184 707.02 183.99 707.05 183.98 707.1 183.99 707.14 184.01 707.17 184.03 707.21 184.05 707.24 184.07 707.26 184.09 707.3 184.11 707.34 184.12 707.36 184.11 707.39 184.07 707.41 184.04 707.42 184 707.43 183.95 707.44 183.92 707.45 183.88 707.46 183.84 707.47 183.79 707.48 183.76 707.5 183.73 707.52 183.72 707.55 183.74 707.58 183.76 707.62 183.79 707.65 183.83 707.69 183.88 707.72 183.92 707.74 183.97 707.77 184 707.81 184.03 707.86 184.04 707.9 184.04 707.94 184.01 707.98 183.98 708.02 183.95 708.06 183.91 708.1 183.89 708.15 183.87 708.21 183.86 708.26 183.89 708.3 183.92 708.37 183.96 708.4 183.95 708.42 183.91 708.45 183.88 708.47 183.86 708.48 183.81 708.46 183.73 708.46 183.69 708.47 183.65 708.48 183.6 708.5 183.59 708.54 183.59 708.58 183.58 708.61 183.6 708.63 183.62 708.67 183.62 708.7 183.62 708.74 183.63 708.77 183.62 708.8 183.62 708.85 183.62 708.87 183.62 708.91 183.62 708.94 183.62 708.99 183.62 709.01 183.63 709.03 183.63 709.06 183.63 709.09 183.63 709.09 183.63 709.13 183.62 709.18 183.59 709.22 183.58 709.26 183.56 709.29 183.56 709.33 183.55 709.37 183.53 709.42 183.52 709.46 183.51 709.52 183.51 709.57 183.49 709.59 183.48 709.61 183.46 709.62 183.44 709.64 183.41 709.65 183.39 709.66 183.36 709.69 183.34 709.7 183.34 709.73 183.33 709.77 183.33 709.8 183.32 709.83 183.31 709.87 183.3 709.89 183.28 709.91 183.25 709.92 183.21 709.94 183.16 709.95 183.13 709.96 183.1 709.98 183.08 709.99 183.04 710.01 183 710.02 182.97 710.04 182.93 710.07 182.9 710.11 182.86 710.15 182.82 710.18 182.79 710.22 182.77 710.24 182.76 710.27 182.75 710.29 182.7 710.3 182.66 710.31 182.61 710.33 182.56 710.34 182.52 710.35 182.46 710.36 182.43 710.37 182.42 710.38 182.4 710.4 182.37 710.43 182.36 710.46 182.36 710.51 182.36 710.55 182.37 710.58 182.4 710.59 182.45 710.59 182.49 710.61 182.54 710.63 182.56 710.65 182.57 710.69 182.57 710.71 182.58 710.74 182.59 710.78 182.57 710.81 182.54 710.83 182.52 710.85 182.49 710.86 182.46 710.87 182.43 710.89 182.39 710.91 182.35 710.95 182.31 710.98 182.25 711.01 182.2 711.04 182.16 711.07 182.13 711.11 182.1 711.17 182.08 711.21 182.05 711.25 182.02 711.28 181.98 711.29 181.94 711.29 181.92 711.29 181.86 711.29 181.82 711.3 181.8 711.33 181.78 711.36 181.78 711.38 181.77 711.39 181.77 711.41 181.79 711.44 181.8 711.47 181.81 711.51 181.82 711.56 181.82 711.59 181.81 711.62 181.8 711.65 181.78 711.67 181.75 711.66 181.72 711.63 181.69 711.59 181.65 711.59 181.61 711.61 181.59 711.64 181.57 711.65 181.54 711.64 181.5 711.61 181.47 711.58 181.44 711.57 181.4 711.57 181.36 711.58 181.33 711.62 181.32 711.63 181.32 711.66 181.31 711.72 181.32 711.76 181.34 711.82 181.35 711.89 181.36 711.95 181.35 712 181.34 712.04 181.31 712.07 181.28 712.1 181.24 712.13 181.23 712.15 181.21 712.17 181.18 712.18 181.15 712.19 181.13 712.21 181.11 712.24 181.08 712.27 181.06 712.31 181.05 712.34 181.03 712.36 181 712.38 180.96 712.39 180.93 712.4 180.87 712.41 180.83 712.42 180.78 712.43 180.75 712.45 180.73 712.47 180.71 712.49 180.71 712.52 180.74 712.55 180.77 712.59 180.8 712.63 180.82 712.67 180.85 712.71 180.86 712.77 180.86 712.79 180.86 712.82 180.86 712.86 180.86 712.91 180.85 712.98 180.84 713.03 180.84 713.07 180.83 713.13 180.82 713.17 180.81 713.2 180.78 713.2 180.75 713.2 180.75 713.2 180.73 713.19 180.71 713.17 180.71 713.14 180.7 713.1 180.69 713.04 180.68 712.98 180.65 712.91 180.61 712.9 180.6 712.89 180.59 712.87 180.57 712.86 180.53 712.86 180.48 712.87 180.44 712.95 180.26 713.02 180.12 713.07 180.03 713.09 180.01 713.17 179.99 713.19 179.99 713.22 180 713.24 180.03 713.26 180.06 713.29 180.1 713.32 180.13 713.36 180.16 713.4 180.18 713.44 180.2 713.48 180.23 713.52 180.25 713.54 180.26 713.57 180.27 713.59 180.28 713.62 180.28 713.65 180.28 713.67 180.27 713.7 180.25 713.72 180.22 713.72 180.19 713.73 180.14 713.73 180.1 713.73 180.04 713.74 180 713.75 179.97 713.76 179.94 713.79 179.91 713.85 179.87 713.94 179.79 713.99 179.73 714.06 179.66 714.11 179.59 714.15 179.53 714.19 179.48 714.23 179.45 714.25 179.44 714.28 179.45 714.31 179.45 714.34 179.45 714.37 179.46 714.4 179.47 714.43 179.48 714.47 179.49 714.5 179.51 714.53 179.52 714.55 179.53 714.57 179.53 714.6 179.53 714.64 179.52 714.66 179.5 714.76 179.42 714.84 179.38 714.87 179.36 714.91 179.36 714.96 179.36 715 179.36 715.04 179.37 715.08 179.38 715.12 179.39 715.15 179.4 715.19 179.4 715.26 179.4 715.3 179.39 715.33 179.37 715.35 179.36 715.37 179.32 715.57 178.97 715.74 178.64 715.79 178.54 715.82 178.48 715.88 178.41 715.96 178.35 716.03 178.32 716.1 178.29 716.13 178.28 716.16 178.26 716.19 178.25 716.22 178.24 716.25 178.24 716.29 178.24 716.32 178.24 716.36 178.25 716.4 178.27 716.43 178.27 716.45 178.28 716.49 178.28 716.5 178.27 716.53 178.26 716.55 178.24 716.58 178.22 716.67 178.13 716.72 178.09 716.75 178.07 716.78 178.06 716.8 178.05 716.83 178.05 716.86 178.04 716.88 178.03 716.9 178.02 716.92 178.01 716.94 177.98 716.95 177.94 716.95 177.91 716.95 177.86 716.94 177.62 716.94 177.49 716.94 177.42 716.96 177.34 716.98 177.26 717 177.23 717.01 177.19 717.02 177.17 717.06 177.14 717.11 177.13 717.15 177.12 717.2 177.11 717.23 177.1 717.28 177.08 717.31 177.06 717.34 177.04 717.37 177.01 717.38 176.98 717.39 176.96 717.39 176.93 717.39 176.89 717.39 176.86 717.41 176.75 717.45 176.67 717.48 176.63 717.52 176.59 717.56 176.54 717.67 176.45 717.79 176.38 717.92 176.33 717.94 176.32 718.01 176.31 718.06 176.3 718.14 176.29 718.18 176.28 718.21 176.27 718.24 176.25 718.27 176.24 718.29 176.21 718.33 176.16 718.36 176.11 718.4 176.08 718.43 176.07 718.46 176.05 718.48 176.04 718.51 176.01 718.53 175.99 718.58 175.96 718.6 175.94 718.65 175.92 718.68 175.91 718.72 175.89 718.76 175.88 718.8 175.86 718.86 175.85 718.89 175.84 718.95 175.83 718.99 175.82 719.06 175.82 719.12 175.81 719.16 175.81 719.22 175.8 719.26 175.79 719.31 175.77 719.35 175.75 719.39 175.74 719.42 175.72 719.46 175.69 719.49 175.66 719.52 175.63 719.57 175.58 719.61 175.55 719.65 175.52 719.69 175.51 719.72 175.5 719.75 175.5 719.8 175.5 719.83 175.51 719.85 175.52 719.89 175.53 719.97 175.58 719.99 175.61 720.01 175.64 720.05 175.67 720.09 175.69 720.15 175.72 720.31 175.77 720.36 175.78 720.41 175.78 720.47 175.78 720.51 175.78 720.56 175.77 720.61 175.76 720.66 175.75 720.7 175.74 720.73 175.71 720.77 175.69 720.87 175.67 720.91 175.66 720.97 175.65 721 175.64 721.05 175.64 721.09 175.64 721.17 175.66 721.23 175.68 721.28 175.69 721.36 175.69 721.44 175.68 721.49 175.67 721.58 175.62 721.61 175.59 721.63 175.56 721.65 175.54 721.67 175.53 721.7 175.51 721.76 175.48 721.8 175.47 721.85 175.47 721.9 175.47 721.93 175.48 721.97 175.49 722.02 175.52 722.05 175.54 722.09 175.57 722.11 175.59 722.15 175.61 722.19 175.62 722.22 175.62 722.27 175.63 722.31 175.63 722.37 175.65 722.4 175.68 722.42 175.71 722.45 175.74 722.49 175.76 722.52 175.77 722.55 175.79 722.58 175.82 722.61 175.83 722.66 175.84 722.76 175.86 722.81 175.87 722.86 175.87 722.89 175.87 722.93 175.86 722.96 175.87 722.98 175.89 723 175.9 723.04 175.9 723.07 175.9 723.14 175.9 723.18 175.91 723.24 175.92 723.27 175.94 723.35 175.95 723.42 175.97 723.47 175.98 723.51 175.99 723.53 176 723.68 176.08 723.79 176.12 723.96 176.21 724.07 176.28 724.17 176.34 724.22 176.36 724.3 176.39 724.45 176.43 724.61 176.46 724.68 176.47 724.72 176.47 724.81 176.46 724.9 176.44 725.03 176.39 725.14 176.35 725.21 176.34 725.24 176.35 725.31 176.39 725.41 176.45 725.51 176.52 725.63 176.63 725.7 176.69 725.74 176.74 725.77 176.8 725.79 176.86 725.79 176.92 725.79 176.97 725.81 177 725.82 177.02 725.86 177.04 725.89 177.06 725.92 177.06 725.95 177.06 726.04 177.05 726.11 177.03 726.17 177.03 726.21 177.04 726.23 177.04 726.26 177.04 726.28 177.04 726.3 177.04 726.35 177.04 726.39 177.03 726.48 176.99 726.51 176.97 726.52 176.97 726.56 176.95 726.58 176.94 726.6 176.94 726.62 176.94 726.64 176.94 726.65 176.93 726.67 176.93 726.69 176.93 726.71 176.93 726.73 176.93 726.75 176.93 726.77 176.93 726.79 176.93 726.81 176.93 726.83 176.93 726.85 176.93 726.87 176.93 726.89 176.93 726.91 176.93 726.93 176.92 726.95 176.92 726.97 176.91 726.99 176.91 727 176.9 727.02 176.9 727.04 176.89 727.06 176.87 727.07 176.86 727.09 176.85 727.1 176.84 727.12 176.83 727.14 176.82 727.15 176.81 727.17 176.8 727.18 176.79 727.2 176.78 727.21 176.77 727.23 176.76 727.24 176.75 727.26 176.73 727.27 176.72 727.28 176.7 727.3 176.69 727.31 176.68 727.33 176.67 727.34 176.66 727.36 176.64 727.37 176.63 727.39 176.62 727.4 176.61 727.42 176.6 727.43 176.59 727.45 176.58 727.47 176.57 727.48 176.56 727.5 176.55 727.52 176.54 727.53 176.53 727.55 176.52 727.57 176.51 727.58 176.5 727.6 176.5 727.62 176.48 727.63 176.47 727.64 176.46 727.66 176.45 727.67 176.43 727.69 176.41 727.7 176.4 727.72 176.38 727.73 176.37 727.75 176.36 727.76 176.35 727.78 176.33 727.8 176.32 727.81 176.3 727.83 176.29 727.84 176.27 727.86 176.25 727.87 176.24 727.88 176.22 727.9 176.21 727.91 176.19 727.92 176.18 727.93 176.16 727.94 176.15 727.96 176.14 727.97 176.12 727.98 176.11 728.02 176.08 728.03 176.09 728.04 176.11 728.07 176.18 728.08 176.21 728.09 176.23 728.1 176.26 728.1 176.28 728.1 176.32 728.1 176.34 728.1 176.36 728.1 176.38 728.1 176.42 728.1 176.45 728.11 176.48 728.12 176.5 728.13 176.52 728.14 176.54 728.16 176.57 728.17 176.58 728.19 176.6 728.2 176.62 728.21 176.64 728.22 176.67 728.22 176.7 728.23 176.73 728.24 176.77 728.25 176.8 728.25 176.83 728.26 176.86 728.25 176.9 728.24 176.91 728.23 176.93 728.23 176.96 728.22 176.98 728.23 177 728.24 177.01 728.25 177.02 728.26 177.03 728.27 177.05 728.28 177.08 728.28 177.1 728.29 177.13 728.3 177.15 728.31 177.19 728.31 177.21 728.32 177.24 728.33 177.27 728.34 177.29 728.35 177.32 728.36 177.34 728.37 177.37 728.38 177.4 728.39 177.44 728.41 177.47 728.42 177.49 728.44 177.52 728.45 177.54 728.46 177.57 728.46 177.59 728.47 177.62 728.5 177.66 728.67 177.62 728.93 177.67 728.97 177.9 729.01 177.88 729.04 177.89 729.09 177.93 729.1 177.94 729.12 177.97 729.13 177.99 729.13 178.01 729.14 178.03 729.15 178.05 729.16 178.06 729.18 178.06 729.2 178.05 729.26 178.01 729.34 177.93 729.45 177.85 729.52 177.82 729.54 177.81 729.56 177.81 729.59 177.81 729.61 177.81 729.63 177.82 729.64 177.82 729.67 177.82 729.68 177.82 729.7 177.81 729.72 177.8 729.74 177.79 729.77 177.79 729.79 177.79 729.81 177.79 729.83 177.79 729.83 177.78 Z"/>
</g></svg>