<svg xmlns="http://www.w3.org/2000/svg" version="1.2" baseProfile="tiny" stroke-linecap="round" stroke-linejoin="round" viewBox="404.37 231.6 14.38 22.82"><g xmlns="http://www.w3.org/2000/svg" id="Lakuntza">
<path d="M 418.72 245.87 418.71 245.87 418.7 245.87 418.68 245.87 418.67 245.87 418.66 245.87 418.64 245.87 418.62 245.88 418.61 245.88 418.57 245.89 418.54 245.9 418.52 245.91 418.5 245.91 418.48 245.91 418.46 245.92 418.45 245.92 418.43 245.93 418.38 245.94 418.37 245.95 418.35 245.95 418.33 245.96 418.31 245.97 418.29 245.98 418.28 245.98 418.27 245.98 418.24 245.98 418.22 245.98 418.15 245.97 418.05 245.97 417.97 245.96 417.95 245.96 417.93 245.96 417.92 245.96 417.9 245.96 417.88 245.96 417.86 245.96 417.82 245.95 417.79 245.95 417.77 245.95 417.76 245.95 417.74 245.95 417.73 245.95 417.71 245.94 417.69 245.94 417.66 245.94 417.64 245.94 417.63 245.93 417.62 245.93 417.59 245.93 417.58 245.93 417.55 245.94 417.53 245.94 417.52 245.94 417.5 245.94 417.49 245.94 417.46 245.93 417.44 245.93 417.43 245.93 417.41 245.93 417.38 245.93 417.36 245.93 417.34 245.93 417.34 245.93 417.32 245.93 417.3 245.93 417.29 245.92 417.27 245.92 417.24 245.91 417.22 245.91 417.2 245.91 417.19 245.91 417.17 245.91 417.15 245.9 417.13 245.9 417.12 245.9 417.08 245.9 417.06 245.9 417.04 245.89 417.02 245.89 417 245.89 416.99 245.89 416.95 245.89 416.94 245.88 416.93 245.88 416.91 245.88 416.9 245.87 416.89 245.87 416.87 245.87 416.86 245.86 416.84 245.86 416.83 245.85 416.81 245.84 416.79 245.84 416.78 245.83 416.76 245.83 416.74 245.83 416.72 245.83 416.71 245.82 416.69 245.82 416.67 245.82 416.66 245.82 416.64 245.82 416.62 245.82 416.6 245.82 416.57 245.82 416.55 245.82 416.54 245.81 416.52 245.81 416.5 245.81 416.48 245.81 416.47 245.81 416.46 245.81 416.44 245.81 416.42 245.81 416.41 245.81 416.39 245.81 416.37 245.81 416.36 245.81 416.34 245.81 416.32 245.81 416.3 245.81 416.29 245.81 416.27 245.81 416.26 245.82 416.24 245.82 416.23 245.82 416.21 245.82 416.19 245.82 416.17 245.83 416.16 245.83 416.14 245.83 416.13 245.83 416.09 245.83 416.05 245.83 416.03 245.83 416.01 245.83 416 245.83 415.98 245.82 415.97 245.82 415.95 245.82 415.93 245.82 415.91 245.82 415.89 245.81 415.87 245.81 415.86 245.81 415.84 245.8 415.83 245.8 415.81 245.8 415.78 245.8 415.77 245.79 415.75 245.79 415.74 245.79 415.72 245.79 415.71 245.79 415.69 245.79 415.68 245.79 415.67 245.79 415.63 245.79 415.62 245.77 415.62 245.75 415.61 245.74 415.6 245.72 415.59 245.7 415.58 245.69 415.56 245.67 415.55 245.65 415.54 245.64 415.54 245.63 415.52 245.61 415.51 245.6 415.5 245.58 415.49 245.57 415.47 245.56 415.46 245.55 415.45 245.54 415.44 245.53 415.43 245.52 415.41 245.5 415.39 245.49 415.38 245.48 415.37 245.47 415.36 245.45 415.34 245.44 415.33 245.42 415.31 245.41 415.3 245.4 415.29 245.38 415.27 245.37 415.27 245.37 415.25 245.35 415.24 245.34 415.23 245.33 415.22 245.33 415.21 245.31 415.2 245.3 415.18 245.29 415.17 245.28 415.16 245.27 415.14 245.25 415.13 245.23 415.12 245.22 415.11 245.21 415.1 245.19 415.09 245.19 415.07 245.18 415.06 245.17 415.05 245.15 415.03 245.14 415.02 245.14 415.01 245.12 415 245.11 414.99 245.09 414.98 245.08 414.95 245.06 414.88 245.11 414.81 245.15 414.79 245.16 414.61 245.21 414.41 245.26 414.31 244.86 414.3 244.81 414.26 244.63 414.2 244.4 414.19 244.39 414.18 244.36 414.17 244.33 414.15 244.25 414.01 243.8 413.9 243.46 413.84 243.27 413.69 242.8 413.6 242.52 413.55 242.37 413.56 242.36 413.57 242.36 413.6 242.34 413.63 242.32 413.68 242.29 413.69 242.29 413.71 242.28 413.72 242.27 413.75 242.25 413.77 242.24 413.78 242.23 413.8 242.22 413.81 242.21 413.83 242.2 413.85 242.19 413.87 242.19 413.88 242.18 413.9 242.17 413.91 242.17 413.93 242.16 413.95 242.16 413.96 242.15 413.98 242.15 414 242.14 414.07 242.12 414.09 242.12 414.11 242.11 414.12 242.11 414.13 242.11 414.14 242.11 414.15 242.1 414.16 242.09 414.16 242.07 414.17 242.05 414.19 241.99 414.22 241.76 414.24 241.67 414.24 241.64 414.37 240.7 414.38 240.66 414.37 240.54 414.33 240.26 414.27 239.82 414.26 239.75 414.19 239.17 414.18 239.04 414.35 238.39 414.4 238.4 414.83 238.53 414.84 238.53 414.85 238.54 414.87 238.54 414.89 238.55 414.9 238.55 414.93 238.56 414.95 238.56 414.96 238.57 414.98 238.57 414.99 238.58 415.01 238.58 415.03 238.58 415.04 238.59 415.06 238.59 415.08 238.59 415.1 238.59 415.11 238.59 415.13 238.59 415.15 238.59 415.16 238.6 415.18 238.6 415.21 238.6 415.25 238.6 415.27 238.6 415.28 238.6 415.3 238.61 415.32 238.61 415.35 238.61 415.37 238.61 415.39 238.61 415.4 238.62 415.42 238.62 415.44 238.62 415.45 238.62 415.47 238.62 415.49 238.62 415.51 238.62 415.54 238.62 415.56 238.62 415.58 238.62 415.59 238.62 415.61 238.62 415.63 238.62 415.66 238.62 415.68 238.62 415.71 238.62 415.73 238.62 415.75 238.62 415.77 238.62 415.78 238.62 415.8 238.63 415.81 238.63 415.84 238.63 415.85 238.62 415.87 238.62 415.89 238.62 415.9 238.62 415.92 238.62 415.93 238.61 415.95 238.61 415.97 238.61 415.98 238.6 416 238.6 416.02 238.6 416.03 238.59 416.05 238.59 416.08 238.58 416.1 238.58 416.12 238.57 416.14 238.57 416.15 238.57 416.17 238.56 416.19 238.56 416.21 238.56 416.23 238.56 416.25 238.55 416.27 238.55 416.28 238.55 416.3 238.55 416.32 238.54 416.35 238.54 416.37 238.54 416.39 238.54 416.41 238.53 416.42 238.53 416.44 238.53 416.45 238.53 416.46 238.52 416.48 238.52 416.5 238.52 416.53 238.51 416.56 238.51 416.59 238.5 416.61 238.5 416.63 238.49 416.65 238.49 416.66 238.49 416.68 238.49 416.7 238.48 416.71 238.48 416.75 238.48 416.77 238.47 416.79 238.47 416.82 238.47 416.86 238.47 416.87 238.46 416.89 238.46 416.91 238.46 416.92 238.46 416.93 238.46 416.95 238.45 417 238.44 417.02 238.44 417.04 238.44 417.04 238.44 417.06 238.44 417.1 238.43 417.11 238.43 417.13 238.43 417.15 238.42 417.17 238.42 417.18 238.42 417.2 238.42 417.21 238.42 417.23 238.42 417.25 238.42 417.27 238.42 417.28 238.41 417.32 238.41 417.35 238.41 417.39 238.41 417.42 238.41 417.43 238.41 417.45 238.41 417.49 238.41 417.5 238.41 417.57 238.41 417.62 238.41 417.71 238.41 417.75 238.41 417.78 238.41 417.8 238.41 417.85 238.41 417.89 238.4 417.89 238.55 417.89 238.63 417.88 238.71 417.87 238.81 417.86 238.94 417.82 239.16 417.81 239.25 417.81 239.38 417.83 239.5 417.84 239.59 417.85 239.74 417.84 239.95 417.83 240.02 417.82 240.09 417.79 240.32 417.77 240.48 417.71 240.84 417.68 241.1 417.68 241.15 417.69 241.2 417.71 241.26 417.74 241.37 417.8 241.59 417.87 241.75 417.95 241.88 417.98 241.93 418.05 242.06 418.13 242.16 418.17 242.26 418.18 242.31 418.18 242.35 418.19 242.48 418.2 242.59 418.22 242.72 418.22 242.74 418.22 242.75 418.22 242.77 418.22 242.78 418.22 242.8 418.22 242.81 418.22 242.85 418.22 242.87 418.22 242.88 418.22 242.9 418.22 242.93 418.23 242.95 418.23 242.97 418.23 242.99 418.23 243.04 418.23 243.08 418.23 243.09 418.22 243.16 418.22 243.17 418.22 243.19 418.22 243.21 418.22 243.25 418.22 243.26 418.22 243.27 418.22 243.29 418.22 243.31 418.22 243.32 418.23 243.34 418.23 243.35 418.23 243.38 418.23 243.39 418.23 243.41 418.23 243.43 418.23 243.45 418.23 243.47 418.23 243.48 418.22 243.5 418.22 243.51 418.22 243.53 418.21 243.57 418.2 243.59 418.19 243.67 418.19 243.69 418.19 243.71 418.19 243.75 418.19 243.77 418.19 243.78 418.19 243.8 418.19 243.82 418.19 243.83 418.18 243.85 418.18 243.87 418.18 243.88 418.18 243.9 418.17 243.92 418.17 243.93 418.17 243.96 418.17 243.97 418.17 243.99 418.16 244.02 418.16 244.03 418.16 244.05 418.16 244.07 418.16 244.07 418.16 244.09 418.16 244.11 418.16 244.12 418.16 244.14 418.17 244.16 418.17 244.17 418.18 244.19 418.18 244.21 418.17 244.23 418.17 244.25 418.17 244.26 418.17 244.28 418.17 244.31 418.17 244.33 418.17 244.35 418.17 244.36 418.17 244.38 418.17 244.41 418.17 244.42 418.17 244.44 418.17 244.46 418.17 244.47 418.17 244.49 418.17 244.51 418.17 244.52 418.17 244.54 418.18 244.56 418.18 244.58 418.18 244.6 418.19 244.61 418.19 244.63 418.19 244.65 418.19 244.66 418.19 244.67 418.19 244.69 418.2 244.71 418.2 244.72 418.2 244.73 418.21 244.75 418.21 244.76 418.22 244.78 418.22 244.79 418.23 244.81 418.23 244.84 418.24 244.85 418.24 244.87 418.24 244.88 418.24 244.91 418.24 244.92 418.24 244.95 418.24 244.97 418.25 244.98 418.25 244.99 418.25 245.01 418.25 245.02 418.25 245.04 418.25 245.05 418.25 245.07 418.25 245.08 418.33 245.27 418.34 245.28 418.34 245.3 418.35 245.31 418.36 245.33 418.37 245.35 418.38 245.36 418.38 245.38 418.39 245.39 418.4 245.4 418.41 245.42 418.41 245.43 418.42 245.45 418.43 245.47 418.44 245.48 418.45 245.5 418.48 245.55 418.49 245.57 418.5 245.58 418.51 245.6 418.52 245.61 418.53 245.63 418.56 245.67 418.57 245.68 418.58 245.7 418.6 245.71 418.6 245.72 418.62 245.74 418.63 245.75 418.64 245.76 418.65 245.78 418.66 245.79 418.67 245.8 418.69 245.82 418.72 245.87 Z M 407.89 231.6 407.95 231.64 408.02 231.7 408.38 231.98 408.48 232.06 408.74 232.27 408.98 232.47 409.25 232.67 409.4 232.8 409.41 232.82 409.55 232.96 409.84 233.24 410.03 233.53 410.23 233.9 410.63 234.43 412.93 235.02 413.09 236.73 413.12 238.05 411.31 238.01 411.35 238.89 411.32 239.35 411.31 239.38 411.3 239.67 411.3 239.87 411.28 240.4 411.18 241.87 410.67 241.78 410.75 242.55 410.78 242.73 410.8 243.01 411.09 243.2 412.39 244.06 412.44 244.09 412.45 244.59 413.64 245.85 413.88 246.31 413.88 246.33 413.92 246.39 413.86 246.41 413.83 246.43 413.8 246.44 413.76 246.46 413.69 246.5 413.63 246.53 413.62 246.54 413.64 246.59 413.67 246.64 413.7 246.68 413.74 246.8 413.53 246.88 413.4 246.92 413.36 246.95 413.33 246.99 413.3 247.01 413.27 246.98 413.26 246.96 413.25 246.95 413.23 246.94 413.22 246.93 413.21 246.92 413.2 246.91 413.19 246.9 413.17 246.89 413.16 246.88 413.14 246.87 413.12 246.86 413.12 246.86 413.1 246.86 413.08 246.85 413.06 246.85 413.04 246.85 413.03 246.85 413.01 246.85 412.99 246.85 412.97 246.86 412.96 246.86 412.94 246.87 412.92 246.88 412.91 246.88 412.89 246.89 412.87 246.9 412.86 246.9 412.84 246.91 412.82 246.92 412.8 246.93 412.79 246.93 412.77 246.94 412.75 246.94 412.75 246.94 412.73 246.95 412.71 246.95 412.69 246.95 412.68 246.95 412.67 246.95 412.65 246.96 412.63 246.96 412.61 246.96 412.59 246.96 412.58 246.96 412.57 246.96 412.57 246.99 412.58 247.04 412.58 247.08 412.61 247.23 412.64 247.3 412.65 247.35 412.65 247.4 412.65 247.48 412.63 247.55 412.63 247.57 412.63 247.68 412.63 247.78 412.62 247.85 412.6 247.98 412.59 248.18 412.59 248.22 412.59 248.26 412.59 248.27 412.59 248.29 412.59 248.3 412.59 248.32 412.6 248.37 412.6 248.39 412.6 248.41 412.6 248.43 412.6 248.44 412.6 248.46 412.6 248.48 412.6 248.5 412.59 248.52 412.59 248.57 412.59 248.6 412.59 248.64 412.59 248.65 412.59 248.67 412.59 248.69 412.59 248.71 412.59 248.73 412.59 248.74 412.59 248.79 412.59 248.8 412.59 248.84 412.59 248.86 412.59 248.87 412.59 248.9 412.59 248.91 412.59 248.93 412.58 248.94 412.57 248.96 412.57 248.97 412.56 248.99 412.55 249 412.55 249.02 412.53 249.05 412.52 249.06 412.52 249.07 412.51 249.09 412.5 249.1 412.49 249.12 412.48 249.13 412.47 249.15 412.47 249.16 412.45 249.19 412.44 249.2 412.43 249.22 412.41 249.23 412.4 249.25 412.38 249.26 412.37 249.27 412.36 249.27 412.35 249.28 412.34 249.29 412.33 249.31 412.33 249.33 412.32 249.34 412.32 249.36 412.31 249.38 412.31 249.41 412.3 249.43 412.3 249.45 412.3 249.46 412.29 249.48 412.29 249.5 412.29 249.51 412.28 249.54 412.28 249.56 412.28 249.57 412.27 249.58 412.26 249.6 412.25 249.61 412.23 249.64 412.22 249.66 412.21 249.67 412.2 249.69 412.19 249.7 412.17 249.72 412.16 249.73 412.15 249.74 412.14 249.75 412.12 249.76 412.11 249.77 412.09 249.79 412.07 249.79 412.05 249.8 412.03 249.8 412.01 249.8 412 249.8 411.97 249.8 411.96 249.81 411.94 249.82 411.93 249.83 411.92 249.84 411.91 249.86 411.9 249.88 411.89 249.9 411.89 249.92 411.88 249.96 411.87 249.99 411.87 250.03 411.86 250.04 411.92 250.07 411.93 250.08 411.94 250.1 411.99 250.13 412 250.14 412.02 250.15 412.03 250.16 412.04 250.17 412.06 250.18 412.09 250.2 412.1 250.21 412.11 250.22 412.14 250.24 412.15 250.25 412.16 250.25 412.19 250.28 412.21 250.29 412.22 250.29 412.24 250.31 412.25 250.32 412.27 250.33 412.29 250.34 412.32 250.37 412.33 250.38 412.35 250.39 412.38 250.41 412.39 250.42 412.4 250.43 412.41 250.44 412.43 250.45 412.46 250.47 412.48 250.48 412.49 250.49 412.51 250.5 412.52 250.51 412.53 250.51 412.56 250.53 412.57 250.54 412.59 250.55 412.62 250.57 412.63 250.57 412.64 250.58 412.65 250.59 412.67 250.6 412.68 250.61 412.68 250.62 412.69 250.64 412.69 250.65 412.7 250.67 412.71 250.7 412.73 250.79 412.74 250.84 412.74 250.86 412.76 250.91 412.76 250.93 412.76 250.95 412.77 250.97 412.78 251 412.79 251.01 412.79 251.04 412.79 251.05 412.8 251.07 412.8 251.08 412.8 251.1 412.82 251.15 412.82 251.17 412.83 251.2 412.83 251.22 412.83 251.24 412.84 251.25 412.84 251.26 412.85 251.28 412.85 251.3 412.86 251.31 412.86 251.33 412.86 251.34 412.87 251.36 412.87 251.38 412.87 251.39 412.88 251.41 412.88 251.43 412.88 251.45 412.9 251.46 412.91 251.46 412.92 251.47 412.94 251.48 412.96 251.5 412.98 251.51 412.99 251.52 413.01 251.53 413.02 251.54 413.03 251.55 413.05 251.56 413.06 251.57 413.07 251.58 413.09 251.59 413.1 251.6 413.13 251.61 413.15 251.62 413.16 251.63 413.18 251.63 413.2 251.64 413.21 251.65 413.23 251.66 413.25 251.67 413.26 251.68 413.28 251.69 413.29 251.7 413.31 251.71 413.32 251.72 413.33 251.73 413.34 251.74 413.36 251.75 413.37 251.76 413.39 251.77 413.4 251.78 413.42 251.8 413.43 251.81 413.44 251.83 413.46 251.84 413.46 251.85 413.48 251.86 413.49 251.86 413.51 251.88 413.53 251.89 413.54 251.9 413.55 251.91 413.56 251.93 413.57 251.93 413.58 251.95 413.59 251.96 413.6 251.97 413.61 251.98 413.61 251.99 413.63 252.01 413.64 252.03 413.65 252.04 413.65 252.06 413.66 252.08 413.67 252.09 413.68 252.11 413.68 252.12 413.69 252.13 413.69 252.15 413.7 252.17 413.7 252.18 413.72 252.22 413.72 252.24 413.73 252.25 413.73 252.27 413.74 252.29 413.74 252.3 413.74 252.31 413.74 252.33 413.74 252.35 413.74 252.37 413.74 252.39 413.74 252.41 413.74 252.44 413.74 252.46 413.74 252.48 413.75 252.5 413.75 252.51 413.75 252.52 413.75 252.55 413.75 252.57 413.75 252.58 413.75 252.6 413.75 252.61 413.76 252.63 413.76 252.64 413.78 252.63 413.81 252.63 413.83 252.62 413.84 252.62 413.86 252.61 413.88 252.61 413.91 252.59 413.93 252.59 413.95 252.58 413.97 252.58 413.99 252.58 414 252.57 414.02 252.57 414.04 252.56 414.06 252.56 414.07 252.56 414.09 252.55 414.11 252.55 414.12 252.55 414.14 252.55 414.16 252.54 414.17 252.54 414.18 252.54 414.22 252.53 414.24 252.53 414.25 252.53 414.27 252.52 414.29 252.52 414.3 252.52 414.32 252.52 414.36 252.52 414.37 252.52 414.39 252.51 414.41 252.51 414.43 252.51 414.31 254.4 414.3 254.39 414.29 254.39 414.27 254.38 414.26 254.38 414.24 254.37 414.22 254.36 414.2 254.35 414.18 254.34 414.17 254.33 414.15 254.33 414.12 254.31 414.1 254.3 414.09 254.29 414.07 254.28 414.06 254.27 414.04 254.27 414.03 254.26 414.01 254.25 413.99 254.24 413.98 254.23 413.96 254.22 413.95 254.21 413.92 254.19 413.91 254.18 413.89 254.17 413.88 254.16 413.86 254.16 413.83 254.14 413.8 254.12 413.79 254.11 413.77 254.1 413.73 254.07 413.72 254.07 413.71 254.06 413.7 254.05 413.68 254.04 413.67 254.04 413.65 254.03 413.63 254.02 413.61 254 413.6 253.99 413.58 253.98 413.57 253.97 413.55 253.96 413.54 253.95 413.52 253.94 413.5 253.93 413.49 253.92 413.48 253.91 413.44 253.89 413.43 253.88 413.42 253.87 413.4 253.86 413.39 253.85 413.37 253.84 413.35 253.83 413.34 253.82 413.33 253.81 413.31 253.8 413.29 253.79 413.28 253.78 413.27 253.77 413.24 253.75 413.23 253.74 413.21 253.73 413.2 253.72 413.18 253.71 413.17 253.7 413.15 253.69 413.14 253.67 413.13 253.66 413.11 253.65 413.1 253.64 413.07 253.62 413.05 253.6 413.04 253.59 413.03 253.58 413.01 253.57 413 253.56 412.97 253.53 412.94 253.5 412.93 253.49 412.92 253.48 412.9 253.47 412.89 253.46 412.88 253.44 412.86 253.43 412.85 253.41 412.84 253.4 412.83 253.39 412.81 253.37 412.8 253.36 412.79 253.35 412.78 253.34 412.77 253.33 412.76 253.32 412.75 253.31 412.73 253.3 412.72 253.28 412.71 253.27 412.7 253.27 412.68 253.25 412.67 253.24 412.66 253.23 412.64 253.22 412.63 253.21 412.61 253.2 412.61 253.19 412.59 253.18 412.58 253.17 412.56 253.16 412.55 253.15 412.53 253.14 412.52 253.13 412.5 253.12 412.47 253.1 412.46 253.09 412.44 253.08 412.43 253.07 412.37 253.03 412.35 253.03 412.34 253.02 412.32 253.01 412.3 253.01 412.29 253 412.27 253 412.25 253 412.24 252.99 412.22 252.99 412.2 252.99 412.18 252.98 412.17 252.98 412.14 252.98 412.13 252.98 412.11 252.98 412.09 252.98 412.07 252.99 412.06 252.99 412.04 252.99 412.02 252.99 411.99 252.99 411.95 252.99 411.92 252.99 411.9 252.99 411.78 252.99 411.76 252.99 411.75 252.98 411.73 252.98 411.71 252.97 411.7 252.97 411.68 252.96 411.66 252.96 411.65 252.95 411.64 252.95 411.62 252.95 411.61 252.94 411.57 252.94 411.55 252.94 411.53 252.93 411.52 252.93 411.5 252.92 411.48 252.92 411.47 252.91 411.45 252.91 411.4 252.9 411.39 252.89 411.37 252.88 411.35 252.88 411.33 252.87 411.31 252.87 411.29 252.87 411.28 252.86 411.26 252.86 411.22 252.85 411.2 252.84 411.18 252.84 411.16 252.84 411.14 252.84 411.13 252.83 411.11 252.82 411.1 252.82 411.09 252.82 411.07 252.81 411.05 252.81 411.03 252.81 411.01 252.81 410.99 252.81 410.97 252.81 410.96 252.81 410.93 252.82 410.92 252.82 410.9 252.82 410.89 252.83 410.87 252.83 410.85 252.83 410.83 252.84 410.82 252.84 410.8 252.84 410.78 252.85 410.75 252.85 410.72 252.86 410.7 252.86 410.68 252.86 410.66 252.87 410.65 252.87 410.63 252.87 410.61 252.87 410.59 252.87 410.56 252.87 410.55 252.87 410.54 252.87 410.52 252.87 410.5 252.87 410.48 252.87 410.46 252.87 410.45 252.87 410.44 252.86 410.42 252.85 410.4 252.85 410.39 252.84 410.37 252.83 410.34 252.82 410.32 252.81 410.3 252.81 410.29 252.8 410.27 252.79 410.25 252.79 410.24 252.78 410.23 252.78 410.21 252.77 410.16 252.75 410.15 252.75 410.12 252.74 410.1 252.73 410.09 252.73 410.07 252.72 410.05 252.71 410.04 252.71 410.01 252.7 409.99 252.69 409.98 252.69 409.96 252.68 409.94 252.68 409.93 252.67 409.91 252.67 409.89 252.66 409.88 252.66 409.86 252.65 409.85 252.65 409.83 252.65 409.81 252.64 409.79 252.64 409.76 252.63 409.72 252.62 409.7 252.61 409.68 252.61 409.67 252.6 409.65 252.6 409.63 252.6 409.62 252.59 409.58 252.59 409.56 252.58 409.56 252.58 409.54 252.58 409.52 252.58 409.5 252.57 409.49 252.57 409.47 252.57 409.46 252.57 409.44 252.56 409.43 252.6 409.43 252.63 409.43 252.66 409.43 252.69 409.43 252.71 409.43 252.72 409.43 252.74 409.43 252.76 409.43 252.78 409.36 252.76 409.34 252.76 409.27 252.74 409.24 252.73 409.14 252.7 408.99 252.65 408.98 252.65 408.92 252.63 408.85 252.61 408.81 252.59 408.71 252.56 408.61 252.54 408.6 252.53 408.61 252.48 408.61 252.47 408.57 252.47 408.52 252.46 408.47 252.45 408.45 252.44 408.43 252.44 408.42 252.44 408.4 252.43 408.38 252.42 408.37 252.42 408.35 252.42 408.33 252.41 408.32 252.41 408.3 252.4 408.28 252.39 408.26 252.38 408.24 252.38 408.23 252.37 408.2 252.36 408.19 252.36 408.17 252.35 408.16 252.34 408.14 252.33 408.13 252.33 408.11 252.32 408.1 252.31 408.09 252.3 408.07 252.29 408.05 252.29 408.04 252.29 408.02 252.29 408 252.29 407.98 252.29 407.97 252.27 407.96 252.26 407.95 252.26 407.94 252.26 407.92 252.26 407.9 252.25 407.89 252.25 407.87 252.24 407.86 252.24 407.84 252.24 407.82 252.23 407.8 252.23 407.79 252.23 407.77 252.23 407.75 252.23 407.73 252.23 407.71 252.23 407.69 252.23 407.68 252.23 407.67 252.22 407.65 252.22 407.63 252.2 407.62 252.18 407.61 252.17 407.61 252.15 407.6 252.13 407.59 252.11 407.59 252.1 407.57 252.08 407.57 252.06 407.56 252.05 407.55 252.03 407.54 252.02 407.54 252 407.53 251.99 407.53 251.98 407.52 251.96 407.51 251.95 407.5 251.93 407.49 251.92 407.49 251.9 407.48 251.88 407.46 251.85 407.45 251.84 407.44 251.82 407.43 251.8 407.42 251.78 407.42 251.76 407.4 251.74 407.39 251.72 407.39 251.71 407.38 251.69 407.37 251.68 407.36 251.66 407.36 251.65 407.35 251.65 407.35 251.63 407.33 251.6 407.33 251.59 407.31 251.56 407.3 251.54 407.3 251.54 407.29 251.52 407.27 251.49 407.26 251.48 407.25 251.47 407.24 251.45 407.24 251.44 407.23 251.42 407.21 251.4 407.2 251.39 407.2 251.38 407.19 251.36 407.18 251.35 407.18 251.33 407.17 251.32 407.16 251.3 407.15 251.29 407.14 251.25 407.13 251.24 407.12 251.22 407.11 251.2 407.11 251.2 407.1 251.17 407.09 251.16 407.09 251.15 407.08 251.14 407.08 251.13 407.07 251.11 407.06 251.08 407.04 251.05 407.04 251.04 407.04 251.03 407.03 251.01 407.02 250.99 407.02 250.98 407.01 250.96 407 250.93 406.99 250.92 406.99 250.9 406.99 250.89 406.98 250.87 406.97 250.86 406.96 250.84 406.96 250.83 406.95 250.81 406.88 250.7 406.85 250.64 406.84 250.62 406.83 250.61 406.82 250.59 406.81 250.58 406.8 250.57 406.8 250.55 406.79 250.53 406.78 250.51 406.77 250.5 406.77 250.49 406.76 250.47 406.76 250.46 406.76 250.44 406.75 250.42 406.74 250.39 406.74 250.38 406.73 250.34 406.72 250.32 406.72 250.3 406.72 250.29 406.71 250.26 406.7 250.21 406.69 250.16 406.7 250.16 406.74 250.16 406.73 250.09 406.71 249.98 406.68 249.98 406.66 249.98 406.65 249.97 406.63 249.97 406.62 249.97 406.6 249.96 406.58 249.96 406.57 249.95 406.56 249.96 406.54 249.96 406.52 249.97 406.5 249.98 406.49 249.98 406.47 249.99 406.45 249.99 406.41 250 406.4 250 406.38 250 406.36 250.01 406.36 250.01 406.34 250.01 406.32 250.01 406.31 250.01 406.29 250.02 406.27 250.02 406.26 250.02 406.25 250.02 406.22 250.02 406.2 250.02 406.19 250.02 406.17 250.02 406.16 250.02 406.12 250.02 406.11 249.98 406.11 249.97 406.1 249.95 406.1 249.94 406.09 249.92 406.09 249.91 406.07 249.89 406.06 249.87 406.04 249.78 406.03 249.75 406.02 249.73 406.01 249.7 406.01 249.68 406 249.65 405.99 249.64 405.99 249.62 405.95 249.54 405.9 249.44 405.89 249.42 405.84 249.31 405.83 249.3 405.82 249.28 405.81 249.27 405.8 249.25 405.79 249.24 405.78 249.22 405.77 249.2 405.76 249.19 405.75 249.18 405.74 249.16 405.73 249.14 405.72 249.13 405.72 249.11 405.72 249.08 405.72 249.06 405.72 249.04 405.72 249.02 405.72 248.99 405.72 248.95 405.72 248.91 405.71 248.86 405.71 248.82 405.71 248.8 405.71 248.78 405.71 248.77 405.71 248.76 405.71 248.74 405.71 248.72 405.71 248.7 405.71 248.69 405.71 248.67 405.71 248.66 405.72 248.64 405.72 248.63 405.72 248.6 405.73 248.57 405.74 248.55 405.74 248.53 405.76 248.45 405.77 248.43 405.77 248.43 405.77 248.41 405.77 248.39 405.77 248.36 405.77 248.34 405.77 248.32 405.77 248.29 405.77 248.28 405.77 248.25 405.77 248.24 405.77 248.22 405.78 248.19 405.78 248.13 405.78 248.12 405.79 248.1 405.79 248.08 405.79 248.07 405.8 248.06 405.81 248.04 405.81 248.03 405.82 248.02 405.84 247.99 405.82 247.98 405.81 247.97 405.8 247.95 405.78 247.94 405.77 247.92 405.77 247.91 405.76 247.9 405.73 247.87 405.72 247.85 405.69 247.81 405.68 247.8 405.67 247.78 405.66 247.77 405.64 247.76 405.64 247.75 405.63 247.73 405.6 247.7 405.59 247.68 405.58 247.67 405.57 247.66 405.57 247.65 405.56 247.63 405.54 247.61 405.53 247.6 405.52 247.59 405.5 247.58 405.49 247.57 405.47 247.56 405.45 247.56 405.44 247.55 405.42 247.55 405.39 247.54 405.37 247.53 405.35 247.53 405.34 247.53 405.33 247.52 405.3 247.52 405.29 247.52 405.27 247.52 405.27 247.49 405.26 247.36 405.26 247.33 405.26 247.28 405.26 247.26 405.25 247.23 405.25 247.21 405.25 247.19 405.25 247.17 405.25 247.15 405.25 247.13 405.24 247.12 405.24 247.1 405.24 247.08 405.23 247.06 405.23 247.06 405.23 247.04 405.22 247.03 405.22 247.01 405.22 246.96 405.22 246.93 405.22 246.91 405.22 246.89 405.22 246.87 405.22 246.85 405.22 246.84 405.22 246.82 405.22 246.81 405.22 246.79 405.22 246.77 405.22 246.75 405.22 246.74 405.21 246.72 405.21 246.7 405.21 246.68 405.21 246.66 405.21 246.65 405.21 246.63 405.2 246.62 405.2 246.6 405.2 246.58 405.2 246.56 405.19 246.54 405.18 246.45 405.18 246.43 405.18 246.43 405.17 246.42 405.17 246.4 405.17 246.39 405.17 246.37 405.16 246.34 405.16 246.32 405.16 246.31 405.15 246.29 405.15 246.27 405.15 246.26 405.15 246.23 405.1 246.23 405.09 246.22 405.07 246.22 405.05 246.21 405.04 246.21 405.02 246.21 405 246.2 404.99 246.2 404.97 246.2 404.96 246.19 404.94 246.19 404.92 246.19 404.9 246.18 404.88 246.18 404.87 246.18 404.84 246.18 404.83 246.18 404.81 246.18 404.79 246.18 404.77 246.18 404.73 246.19 404.72 246.19 404.71 246.19 404.67 246.19 404.66 246.19 404.64 246.2 404.62 246.2 404.61 246.2 404.6 246.2 404.58 246.2 404.56 246.2 404.54 246.2 404.52 246.2 404.51 246.2 404.49 246.2 404.47 246.2 404.45 246.2 404.45 246.2 404.43 246.2 404.41 246.2 404.39 246.2 404.38 246.2 404.4 246.02 404.43 245.74 404.46 245.41 404.67 245.27 405.2 244.92 405.22 244.91 406.27 244.21 406.28 244.17 406.28 244.16 406.28 244.14 406.27 244.12 406.27 244.1 406.27 244.08 406.26 244.07 406.25 244.03 406.25 244.02 406.24 244.01 406.24 243.99 406.24 243.97 406.24 243.96 406.24 243.94 406.24 243.93 406.26 243.91 406.28 243.88 406.29 243.87 406.3 243.85 406.31 243.83 406.32 243.82 406.33 243.8 406.34 243.79 406.35 243.77 406.35 243.76 406.36 243.74 406.37 243.73 406.37 243.71 406.38 243.7 406.38 243.68 406.39 243.67 406.39 243.65 406.38 243.64 406.38 243.63 406.37 243.6 406.37 243.58 406.37 243.56 406.36 243.55 406.36 243.53 406.36 243.51 406.35 243.48 406.35 243.46 406.34 243.42 406.34 243.41 406.34 243.39 406.33 243.37 406.33 243.36 406.32 243.34 406.31 243.24 406.35 243.21 406.38 243.18 406.43 243.14 406.45 243.11 406.47 243.1 406.49 243.07 406.52 243.05 406.54 243.04 406.56 243.01 406.58 243 406.59 242.99 406.6 242.98 406.62 242.96 406.63 242.95 406.64 242.94 406.65 242.93 406.67 242.9 406.69 242.89 406.7 242.87 406.71 242.86 406.72 242.84 406.73 242.83 406.75 242.81 406.76 242.79 406.77 242.77 406.78 242.76 406.79 242.74 406.79 242.73 406.81 242.69 406.82 242.68 406.83 242.66 406.83 242.65 406.84 242.63 406.85 242.62 406.86 242.61 406.86 242.59 406.87 242.57 406.88 242.56 406.89 242.54 406.9 242.53 406.91 242.5 406.91 242.49 406.92 242.47 406.93 242.44 406.95 242.4 406.96 242.37 406.97 242.35 406.98 242.34 406.99 242.31 407 242.29 407 242.28 407.01 242.26 407.01 242.25 407.02 242.23 407.02 242.21 407.03 242.2 407.03 242.18 407.04 242.16 407.04 242.15 407.04 242.13 407.05 242.11 407.05 242.09 407.06 242.06 407.06 242.05 407.06 242.01 407.07 241.99 407.07 241.99 407.07 241.97 407.07 241.95 407.08 241.93 407.08 241.92 407.08 241.9 407.09 241.87 407.1 241.83 407.1 241.82 407.1 241.79 407.11 241.76 407.11 241.74 407.11 241.72 407.12 241.7 407.12 241.69 407.12 241.67 407.12 241.65 407.12 241.63 407.12 241.61 407.12 241.6 407.12 241.59 407.12 241.4 407.14 241.33 407.14 241.3 407.15 241.27 407.15 241.23 407.16 241.2 407.16 241.18 407.16 241.15 407.17 241.11 407.18 241.08 407.18 241.05 407.19 241.02 407.19 241 407.19 240.98 407.2 240.97 407.2 240.95 407.2 240.93 407.21 240.91 407.21 240.89 407.22 240.87 407.22 240.86 407.23 240.82 407.23 240.81 407.24 240.79 407.24 240.77 407.25 240.75 407.25 240.73 407.25 240.71 407.26 240.69 407.26 240.68 407.26 240.66 407.26 240.64 407.29 240.42 407.29 240.39 407.3 240.35 407.3 240.32 407.31 240.28 407.31 240.25 407.32 240.23 407.32 240.21 407.33 240.18 407.34 240.12 407.34 240.09 407.35 240.07 407.35 240.06 407.36 240.02 407.36 240 407.36 239.99 407.37 239.97 407.37 239.95 407.38 239.93 407.38 239.92 407.38 239.9 407.39 239.88 407.39 239.86 407.4 239.85 407.4 239.83 407.41 239.81 407.41 239.79 407.41 239.78 407.41 239.76 407.41 239.74 407.41 239.72 407.41 239.71 407.41 239.69 407.4 239.67 407.4 239.65 407.4 239.63 407.4 239.62 407.4 239.6 407.39 239.58 407.39 239.56 407.39 239.55 407.39 239.54 407.38 239.52 407.38 239.5 407.37 239.49 407.36 239.45 407.36 239.44 407.35 239.42 407.35 239.41 407.34 239.39 407.34 239.37 407.34 239.35 407.33 239.34 407.33 239.32 407.33 239.3 407.32 239.29 407.32 239.27 407.32 239.25 407.31 239.23 407.31 239.21 407.31 239.19 407.31 239.18 407.31 239.16 407.31 239.15 407.31 239.13 407.32 239.11 407.32 239.09 407.33 239.08 407.33 239.06 407.35 239.03 407.35 239.02 407.36 239 407.37 238.99 407.38 238.97 407.38 238.96 407.4 238.93 407.41 238.91 407.42 238.9 407.43 238.88 407.45 238.83 407.47 238.79 407.49 238.75 407.5 238.74 407.51 238.72 407.51 238.71 407.52 238.69 407.53 238.67 407.54 238.66 407.54 238.64 407.55 238.62 407.56 238.61 407.56 238.59 407.57 238.57 407.57 238.56 407.57 238.54 407.58 238.52 407.58 238.5 407.58 238.49 407.58 238.47 407.59 238.46 407.59 238.44 407.59 238.42 407.59 238.4 407.59 238.39 407.59 238.37 407.59 238.35 407.58 238.33 407.58 238.32 407.58 238.3 407.58 238.28 407.58 238.27 407.57 238.25 407.57 238.23 407.56 238.21 407.56 238.2 407.56 238.18 407.55 238.16 407.54 238.15 407.54 238.13 407.53 238.11 407.52 238.1 407.52 238.08 407.51 238.06 407.5 238.05 407.49 238.03 407.48 238.02 407.47 237.99 407.45 237.96 407.45 237.94 407.44 237.93 407.43 237.91 407.42 237.9 407.41 237.88 407.4 237.87 407.39 237.85 407.38 237.82 407.37 237.81 407.36 237.79 407.35 237.78 407.34 237.76 407.33 237.75 407.32 237.74 407.31 237.72 407.31 237.71 407.42 237.45 407.42 237.43 407.43 237.42 407.44 237.4 407.45 237.38 407.46 237.36 407.47 237.34 407.48 237.31 407.5 237.28 407.51 237.25 407.52 237.23 407.53 237.21 407.54 237.18 407.55 237.16 407.56 237.15 407.58 237.1 407.6 237.07 407.6 237.06 407.62 237.02 407.62 237.01 407.63 236.99 407.64 236.98 407.64 236.96 407.65 236.94 407.66 236.93 407.66 236.92 407.67 236.9 407.68 236.88 407.68 236.86 407.69 236.85 407.69 236.83 407.7 236.82 407.7 236.8 407.7 236.78 407.71 236.77 407.71 236.75 407.71 236.73 407.72 236.72 407.72 236.7 407.73 236.69 407.74 236.67 407.75 236.66 407.76 236.64 407.76 236.63 407.77 236.6 407.78 236.58 407.79 236.57 407.79 236.55 407.8 236.54 407.81 236.52 407.81 236.51 407.82 236.49 407.82 236.47 407.83 236.46 407.83 236.44 407.84 236.41 407.85 236.37 407.86 236.36 407.86 236.34 407.87 236.32 407.87 236.31 407.88 236.29 407.88 236.28 407.89 236.26 407.89 236.24 407.9 236.23 407.91 236.21 407.92 236.18 407.94 236.13 407.96 236.07 407.98 236.04 408 235.99 408.01 235.97 408.01 235.96 408.03 235.91 408.04 235.89 408.04 235.88 408.06 235.84 408.07 235.82 408.08 235.8 408.09 235.76 408.1 235.75 408.1 235.73 408.11 235.71 408.13 235.68 408.14 235.64 408.15 235.63 408.15 235.61 408.16 235.59 408.17 235.56 408.17 235.55 408.18 235.53 408.18 235.45 408.17 235.37 408.2 235.31 408.21 235.3 408.24 235.23 408.25 235.21 408.26 235.2 408.26 235.19 408.3 235.11 408.32 235.06 408.36 235 408.37 234.97 408.38 234.94 408.4 234.9 408.41 234.88 408.42 234.86 408.42 234.85 408.43 234.83 408.44 234.82 408.44 234.8 408.45 234.78 408.46 234.76 408.46 234.75 408.47 234.73 408.47 234.71 408.49 234.68 408.49 234.66 408.5 234.65 408.5 234.63 408.51 234.6 408.52 234.58 408.52 234.56 408.53 234.55 408.53 234.53 408.54 234.51 408.54 234.49 408.55 234.48 408.56 234.46 408.56 234.44 408.57 234.43 408.57 234.42 408.57 234.4 408.57 234.39 408.58 234.37 408.58 234.35 408.58 234.33 408.58 234.32 408.58 234.3 408.59 234.29 408.59 234.27 408.59 234.25 408.59 234.24 408.59 234.22 408.59 234.2 408.59 234.18 408.59 234.17 408.59 234.15 408.59 234.13 408.58 234.12 408.58 234.1 408.58 234.06 408.58 234.05 408.58 234.02 408.57 233.97 408.57 233.95 408.56 233.92 408.56 233.86 408.56 233.85 408.56 233.84 408.56 233.82 408.55 233.79 408.55 233.77 408.55 233.75 408.55 233.74 408.54 233.72 408.54 233.7 408.53 233.68 408.53 233.66 408.52 233.65 408.51 233.63 408.51 233.61 408.5 233.6 408.5 233.59 408.49 233.57 408.48 233.54 408.47 233.52 408.47 233.51 408.46 233.49 408.46 233.47 408.45 233.44 408.44 233.43 408.43 233.4 408.43 233.38 408.42 233.36 408.41 233.35 408.41 233.33 408.39 233.3 408.39 233.28 408.38 233.26 408.37 233.24 408.37 233.23 408.36 233.21 408.36 233.19 408.35 233.18 408.35 233.16 408.34 233.14 408.34 233.12 408.34 233.11 408.33 233.09 408.33 233.07 408.33 233.05 408.32 233.04 408.32 233.02 408.31 233 408.31 232.99 408.3 232.97 408.3 232.96 408.3 232.94 408.3 232.92 408.3 232.91 408.3 232.88 408.3 232.87 408.29 232.85 408.29 232.83 408.28 232.82 408.28 232.8 408.26 232.71 408.25 232.7 408.25 232.68 408.24 232.67 408.24 232.65 408.23 232.63 408.22 232.61 408.21 232.6 408.2 232.59 408.19 232.57 408.18 232.56 408.17 232.54 408.16 232.53 408.15 232.52 408.14 232.5 408.13 232.49 408.12 232.47 408.11 232.46 408.1 232.44 408.1 232.43 408.09 232.42 408.08 232.4 408.06 232.39 408.05 232.38 408.04 232.36 408.03 232.35 408.02 232.33 408.02 232.32 408.01 232.3 408 232.28 407.99 232.27 407.99 232.25 407.98 232.23 407.97 232.22 407.97 232.2 407.96 232.18 407.96 232.16 407.96 232.15 407.95 232.13 407.95 232.12 407.95 232.1 407.95 232.06 407.95 232.04 407.94 232.02 407.94 232 407.94 231.99 407.94 231.97 407.93 231.95 407.93 231.93 407.93 231.92 407.93 231.9 407.93 231.88 407.93 231.86 407.93 231.83 407.93 231.82 407.94 231.8 407.94 231.78 407.94 231.76 407.94 231.75 407.94 231.73 407.94 231.71 407.94 231.7 407.93 231.68 407.92 231.67 407.92 231.65 407.91 231.64 407.87 231.61 407.89 231.6 Z"/>
</g></svg>