<svg xmlns="http://www.w3.org/2000/svg" version="1.2" baseProfile="tiny" stroke-linecap="round" stroke-linejoin="round" viewBox="328.42 318.67 41.32 24.72"><g xmlns="http://www.w3.org/2000/svg" id="Lana">
<path d="M 335.33 319.85 335.42 319.82 335.52 319.78 335.64 319.77 335.78 319.75 335.85 319.75 335.88 319.74 335.91 319.74 335.95 319.72 336 319.69 336.06 319.64 336.07 319.63 336.12 319.57 336.18 319.54 336.28 319.49 336.38 319.44 336.48 319.41 336.55 319.4 336.62 319.39 336.7 319.38 336.76 319.38 336.85 319.39 336.94 319.4 337.02 319.42 337.13 319.43 337.23 319.42 337.31 319.41 337.41 319.39 337.51 319.36 337.62 319.33 337.74 319.31 337.86 319.29 337.97 319.27 338.07 319.25 338.1 319.25 338.11 319.25 338.27 319.24 338.45 319.23 338.46 319.23 338.63 319.22 338.73 319.21 338.82 319.21 338.91 319.21 339.01 319.21 339.1 319.23 339.18 319.25 339.23 319.28 339.18 319.3 339.11 319.31 339.04 319.35 338.95 319.39 338.91 319.41 338.86 319.44 338.87 319.47 338.88 319.51 338.91 319.56 338.98 319.69 339.02 319.77 339.03 319.78 339.06 319.86 339.09 319.95 339.11 320 339.13 320.05 339.17 320.1 339.22 320.14 339.27 320.2 339.35 320.28 339.4 320.34 339.45 320.39 339.51 320.46 339.57 320.51 339.61 320.55 339.7 320.65 339.79 320.76 339.9 320.86 339.97 320.94 340.04 321.03 340.12 321.14 340.2 321.24 340.28 321.34 340.35 321.45 340.42 321.54 340.49 321.67 340.57 321.79 340.63 321.9 340.69 322.01 340.68 322.04 340.78 322 340.94 321.94 341.2 321.9 341.47 321.86 341.66 321.82 341.82 321.78 341.93 321.78 342.05 321.78 342.2 321.74 342.3 321.74 342.46 321.76 342.66 321.76 342.68 321.76 342.93 321.74 343.13 321.74 343.18 321.74 343.39 321.77 343.56 321.84 343.61 321.86 343.81 321.94 344.07 322.03 344.34 322.15 344.59 322.22 344.85 322.26 345.1 322.26 345.13 322.26 345.22 322.23 345.41 322.19 345.58 322.18 345.69 322.2 345.78 322.22 346.01 322.27 346.27 322.37 346.37 322.42 346.38 322.43 346.44 322.46 346.62 322.58 346.81 322.73 346.92 322.81 346.98 322.85 347.02 322.87 347.04 322.87 347.06 322.85 347.14 322.79 347.14 322.78 347.25 322.67 347.38 322.54 347.46 322.39 347.5 322.23 347.47 322.04 347.45 321.99 347.45 321.97 347.36 321.67 347.26 321.4 347.18 321.25 347.18 321.24 347.14 321.16 347 320.88 346.88 320.66 346.78 320.53 346.72 320.45 346.71 320.41 346.72 320.37 346.72 320.37 346.72 320.35 346.74 320.21 346.78 319.87 346.8 319.76 346.81 319.72 346.8 319.69 346.78 319.67 346.73 319.61 346.64 319.5 346.53 319.37 346.43 319.25 346.42 319.24 346.32 319.1 346.26 318.96 346.21 318.76 346.45 318.69 346.49 318.72 346.57 318.77 346.87 318.92 347.21 319.1 347.53 319.27 347.54 319.28 347.66 319.34 347.67 319.35 347.83 319.43 348.04 319.55 348.51 319.78 348.64 319.83 348.9 319.97 348.91 319.98 348.99 320.02 349.33 320.16 349.76 320.31 349.95 320.41 350.04 320.48 350.08 320.54 350.09 320.6 350.11 320.66 350.18 320.92 350.2 320.97 350.21 321.01 350.31 321.35 350.31 321.36 350.33 321.4 350.5 322 350.62 322.05 350.62 322.02 350.64 321.91 350.66 321.85 350.66 321.84 350.66 321.83 350.67 321.82 350.69 321.73 350.72 321.63 350.75 321.51 350.78 321.39 350.82 321.25 350.85 321.12 350.85 321.1 350.9 320.91 350.93 320.85 350.96 320.79 350.98 320.75 350.99 320.69 351.06 320.65 351.11 320.62 351.15 320.59 351.17 320.57 351.21 320.54 351.24 320.52 351.26 320.49 351.31 320.45 351.35 320.39 351.4 320.32 351.44 320.27 351.47 320.23 351.51 320.17 351.54 320.11 351.59 320.05 351.63 319.97 351.67 319.89 351.74 319.81 351.78 319.75 351.81 319.68 351.85 319.6 351.87 319.53 351.93 319.44 351.99 319.36 352.06 319.29 352.12 319.25 352.17 319.23 352.21 319.23 352.22 319.23 352.28 319.22 352.37 319.23 352.53 319.23 352.75 319.21 352.88 319.23 352.9 319.23 353.09 319.23 353.15 319.24 353.2 319.26 353.26 319.28 353.28 319.29 353.34 319.32 353.43 319.36 353.52 319.4 353.65 319.46 353.84 319.55 353.95 319.62 354.07 319.68 354.18 319.73 354.28 319.77 354.4 319.82 354.61 319.89 354.74 319.94 354.86 319.99 355.03 320.04 355.41 320.17 355.54 320.22 355.67 320.25 355.76 320.28 355.84 320.31 355.93 320.34 356.03 320.37 356.13 320.4 356.19 320.42 356.26 320.43 356.34 320.45 356.42 320.46 356.51 320.47 356.63 320.48 356.71 320.5 356.79 320.52 356.89 320.55 356.95 320.56 357 320.58 357.05 320.6 357.1 320.62 357.12 320.62 357.16 320.63 357.2 320.63 357.25 320.63 357.29 320.62 357.34 320.61 357.42 320.61 357.45 320.61 357.5 320.62 357.54 320.63 357.6 320.66 357.66 320.69 357.73 320.74 357.82 320.81 357.88 320.85 357.95 320.9 358.03 320.95 358.14 321.02 358.19 321.06 358.25 321.09 358.32 321.13 358.41 321.17 358.48 321.2 358.56 321.24 358.62 321.28 358.68 321.32 358.76 321.36 358.83 321.41 358.91 321.45 358.99 321.5 359.1 321.58 359.16 321.63 359.24 321.7 359.31 321.77 359.36 321.81 359.42 321.87 359.46 321.93 359.49 322 359.5 322.07 359.52 322.14 359.52 322.22 359.53 322.29 359.53 322.37 359.52 322.42 359.51 322.46 359.49 322.51 359.47 322.57 359.45 322.63 359.42 322.69 359.41 322.77 359.39 322.84 359.38 322.91 359.37 322.98 359.35 323.05 359.35 323.13 359.34 323.21 359.33 323.27 359.31 323.36 359.3 323.44 359.28 323.51 359.26 323.58 359.24 323.67 359.22 323.75 359.21 323.84 359.19 323.93 359.16 324.02 359.14 324.15 359.14 324.23 359.14 324.29 359.14 324.33 359.17 324.42 359.18 324.49 359.19 324.51 359.22 324.59 359.24 324.68 359.26 324.75 359.27 324.77 359.27 324.79 359.28 324.83 359.3 324.86 359.33 324.96 359.36 325.05 359.4 325.11 359.43 325.18 359.46 325.24 359.49 325.3 359.6 325.44 359.72 325.31 359.8 325.2 359.97 325.04 360.03 324.97 360.08 324.88 360.09 324.87 360.1 324.86 360.11 324.83 360.16 324.77 360.21 324.68 360.31 324.51 360.34 324.39 360.37 324.29 360.4 324.19 360.43 324.11 360.45 324.08 360.48 324 360.49 323.97 360.56 323.84 360.65 323.73 360.78 323.84 360.89 323.88 361.03 323.93 361.15 323.97 361.35 323.99 361.53 324.03 361.69 324.03 361.84 324.05 361.99 324.07 362.15 324.08 362.24 324.11 362.93 324.6 363.02 324.7 363.12 324.77 363.23 324.84 363.31 324.91 363.38 324.96 363.49 325.02 363.57 325.08 363.69 325.11 363.79 325.1 363.89 325.09 363.95 325.1 364.04 325.14 364.15 325.19 364.24 325.23 364.36 325.29 364.44 325.34 364.52 325.41 364.58 325.48 364.64 325.54 364.66 325.56 364.74 325.65 364.81 325.75 364.89 325.88 364.96 326.01 365.03 326.12 365.09 326.22 365.15 326.31 365.21 326.41 365.3 326.5 365.35 326.54 365.42 326.61 365.52 326.69 365.6 326.75 365.69 326.82 365.77 326.89 365.78 326.91 365.8 326.92 365.89 326.98 365.99 327.05 366.1 327.16 366.21 327.26 366.3 327.34 366.4 327.42 366.53 327.52 366.68 327.64 366.79 327.75 366.94 327.87 367.08 327.98 367.2 328.09 367.31 328.18 367.44 328.26 367.47 328.28 367.49 328.29 367.57 328.33 367.68 328.39 367.8 328.47 367.91 328.55 368.01 328.61 368.14 328.68 368.29 328.77 368.39 328.82 368.52 328.89 368.69 329.03 368.82 329.11 368.99 329.24 369.08 329.34 369.1 329.36 369.21 329.49 369.32 329.6 369.41 329.67 369.51 329.77 369.63 329.89 369.7 330 369.71 330.02 369.71 330.03 369.72 330.07 369.69 330.18 369.64 330.26 369.62 330.29 369.62 330.29 369.61 330.3 369.53 330.39 369.44 330.42 369.35 330.45 369.24 330.52 369.12 330.64 368.99 330.74 368.87 330.82 368.76 330.85 368.7 330.88 368.63 330.92 368.56 331 368.4 331.12 368.3 331.18 368.18 331.27 368.07 331.34 367.94 331.43 367.89 331.47 367.83 331.54 367.76 331.64 367.68 331.75 367.63 331.81 367.56 331.9 367.53 331.94 367.51 331.96 367.48 332 367.43 332.05 367.33 332.09 367.25 332.13 367.17 332.21 367.17 332.22 367.13 332.25 367.07 332.3 367.04 332.33 366.97 332.37 366.94 332.4 366.9 332.43 366.87 332.46 366.83 332.52 366.79 332.56 366.75 332.61 366.72 332.65 366.68 332.69 366.67 332.73 366.63 332.81 366.6 332.85 366.56 332.91 366.53 332.95 366.51 332.97 366.5 333 366.48 333.05 366.47 333.07 366.45 333.1 366.38 333.16 366.3 333.24 366.23 333.31 366.17 333.39 366.13 333.45 366.09 333.52 366.07 333.57 366.04 333.6 366.04 333.62 366.03 333.66 366.02 333.71 366.01 333.8 365.99 333.85 365.98 333.92 365.96 333.99 365.94 334.06 365.91 334.13 365.9 334.19 365.88 334.25 365.84 334.29 365.81 334.35 365.78 334.4 365.76 334.46 365.74 334.54 365.74 334.62 365.74 334.67 365.73 334.74 365.73 334.8 365.73 334.85 365.73 334.91 365.72 334.96 365.71 335.01 365.71 335.08 365.72 335.14 365.73 335.19 365.73 335.29 365.75 335.38 365.75 335.45 365.76 335.49 365.77 335.55 365.77 335.59 365.76 335.61 365.76 335.68 365.77 335.68 365.77 335.7 365.78 335.75 365.8 335.83 365.8 335.95 365.8 336.05 365.77 336.12 365.75 336.19 365.73 336.25 365.72 336.33 365.72 336.42 365.72 336.56 365.72 336.67 365.7 336.78 365.67 336.86 365.63 336.91 365.59 336.97 365.55 337.02 365.53 337.1 365.53 337.18 365.53 337.24 365.53 337.3 365.53 337.36 365.52 337.44 365.51 337.52 365.51 337.61 365.51 337.67 365.51 337.73 365.48 337.79 365.44 337.88 365.38 337.97 365.32 338.08 365.26 338.16 365.23 338.24 365.19 338.32 365.17 338.41 365.12 338.51 365.11 338.58 365.09 338.68 365.08 338.79 365.05 338.89 365.03 338.99 365 339.11 365 339.2 364.98 339.33 364.95 339.4 364.94 339.47 364.93 339.51 364.92 339.56 364.92 339.57 364.9 339.61 364.84 339.62 364.8 339.62 364.74 339.65 364.72 339.69 364.66 339.7 364.6 339.7 364.54 339.71 364.5 339.74 364.45 339.73 364.39 339.69 364.33 339.66 364.26 339.62 364.19 339.59 364.12 339.6 363.93 339.62 363.85 339.63 363.78 339.66 363.69 339.71 363.65 339.76 363.58 339.79 363.51 339.82 363.46 339.84 363.43 339.88 363.41 339.93 363.37 339.99 363.3 340.06 363.28 340.12 363.22 340.17 363.19 340.21 363.12 340.26 363.08 340.29 362.93 340.37 362.86 340.37 362.8 340.38 362.74 340.4 362.65 340.42 362.56 340.46 362.52 340.48 362.47 340.52 362.41 340.55 362.36 340.56 362.35 340.57 362.33 340.57 362.28 340.58 362.2 340.59 362.12 340.59 362.06 340.59 362.01 340.58 361.95 340.56 361.89 340.54 361.84 340.54 361.78 340.52 361.75 340.49 361.73 340.49 361.72 340.48 361.68 340.45 361.66 340.41 361.63 340.37 361.59 340.35 361.53 340.34 361.46 340.34 361.38 340.36 361.32 340.38 361.27 340.43 361.21 340.45 361.13 340.5 361.1 340.53 361.04 340.56 361 340.59 360.91 340.63 360.86 340.68 360.82 340.73 360.77 340.78 360.71 340.85 360.66 340.89 360.6 340.93 360.53 340.94 360.45 340.94 360.4 340.93 360.32 340.91 360.27 340.88 360.2 340.85 360.16 340.83 360.1 340.81 360.03 340.8 359.95 340.78 359.88 340.74 359.84 340.73 359.77 340.71 359.71 340.68 359.68 340.66 359.63 340.66 359.57 340.65 359.51 340.62 359.44 340.59 359.37 340.55 359.32 340.53 359.27 340.49 359.25 340.44 359.23 340.39 359.19 340.33 359.14 340.27 359.09 340.16 359.07 340.08 359.03 339.99 358.99 339.92 358.96 339.87 358.95 339.87 358.86 339.73 358.83 339.68 358.8 339.64 358.73 339.53 358.68 339.44 358.65 339.34 358.64 339.22 358.64 339.1 358.64 339.09 358.64 339.06 358.64 339.04 358.65 339.02 358.67 338.91 358.68 338.85 358.68 338.82 358.67 338.73 358.64 338.58 358.62 338.49 358.6 338.37 358.59 338.33 358.59 338.32 358.58 338.31 358.54 338.3 358.49 338.27 358.44 338.24 358.3 338.12 358.09 338.03 357.78 337.91 357.66 337.88 357.62 337.92 357.6 337.96 357.53 338.04 357.45 338.08 357.36 338.11 357.24 338.13 357.15 338.15 357.1 338.15 357.04 338.14 357 338.15 356.96 338.17 356.92 338.22 356.87 338.27 356.84 338.28 356.82 338.34 356.82 338.4 356.81 338.48 356.8 338.54 356.76 338.59 356.7 338.64 356.69 338.67 356.64 338.73 356.62 338.76 356.59 338.81 356.54 338.86 356.47 338.91 356.42 338.95 356.38 339.02 356.36 339.09 356.33 339.15 356.29 339.17 356.27 339.22 356.25 339.27 356.2 339.32 356.18 339.33 356.13 339.33 356.06 339.31 355.98 339.34 355.97 339.35 355.95 339.38 355.95 339.39 355.91 339.46 355.87 339.5 355.82 339.52 355.79 339.54 355.74 339.59 355.69 339.61 355.61 339.62 355.59 339.63 355.52 339.62 355.45 339.62 355.42 339.61 355.39 339.57 355.38 339.53 355.37 339.51 355.37 339.53 355.36 339.55 355.35 339.58 355.33 339.64 355.3 339.71 355.26 339.79 355.26 339.83 355.26 339.9 355.24 339.95 355.22 339.99 355.21 340.05 355.2 340.11 355.19 340.16 355.2 340.22 355.21 340.27 355.2 340.3 355.2 340.34 355.21 340.39 355.22 340.43 355.27 340.52 355.32 340.61 355.3 340.62 355.22 340.65 355.17 340.66 355.09 340.67 354.98 340.64 354.87 340.62 354.79 340.61 354.72 340.6 354.67 340.6 354.61 340.6 354.59 340.61 354.55 340.63 354.52 340.67 354.48 340.7 354.45 340.74 354.42 340.79 354.38 340.84 354.35 340.87 354.32 340.9 354.31 340.91 354.27 340.94 354.2 340.98 354.14 341.02 354.08 341.07 354.07 341.08 354.03 341.1 354 341.13 353.96 341.15 353.9 341.2 353.86 341.23 353.82 341.25 353.74 341.29 353.68 341.33 353.64 341.35 353.58 341.38 353.51 341.43 353.45 341.47 353.44 341.47 353.43 341.48 353.37 341.52 353.3 341.58 353.23 341.63 353.16 341.68 353.09 341.73 353.03 341.78 352.96 341.83 352.91 341.86 352.84 341.86 352.73 341.86 352.63 341.85 352.53 341.84 352.4 341.82 352.3 341.8 352.21 341.78 352.1 341.77 351.95 341.75 351.88 341.74 351.84 341.72 351.65 341.67 351.51 341.64 351.41 341.62 351.33 341.58 351.28 341.55 351.22 341.5 351.19 341.46 351.15 341.4 351.09 341.32 351.07 341.28 351.06 341.24 351.03 341.18 351.01 341.11 350.97 341.04 350.94 340.95 350.9 340.89 350.86 340.82 350.82 340.76 350.79 340.71 350.77 340.68 350.74 340.65 350.7 340.61 350.66 340.58 350.58 340.52 350.5 340.47 350.4 340.41 350.32 340.35 350.26 340.31 350.17 340.25 350.13 340.23 350.1 340.22 350.05 340.21 349.99 340.18 349.95 340.17 349.91 340.16 349.86 340.16 349.83 340.16 349.8 340.17 349.75 340.19 349.69 340.21 349.64 340.23 349.59 340.26 349.57 340.27 349.55 340.29 349.53 340.32 349.51 340.34 349.48 340.36 349.45 340.37 349.42 340.38 349.38 340.38 349.33 340.38 349.31 340.39 349.29 340.39 349.25 340.42 349.22 340.43 349.19 340.44 349.15 340.45 349.13 340.47 349.11 340.48 349.05 340.52 349 340.56 348.95 340.57 348.88 340.59 348.83 340.61 348.8 340.63 348.76 340.67 348.72 340.7 348.67 340.72 348.6 340.76 348.55 340.78 348.49 340.81 348.42 340.85 348.37 340.88 348.31 340.9 348.24 340.93 348.21 340.95 348.17 340.98 348.12 341.03 348.07 341.08 348.04 341.11 347.99 341.13 347.95 341.15 347.91 341.16 347.88 341.19 347.85 341.22 347.8 341.26 347.8 341.26 347.76 341.29 347.75 341.3 347.74 341.32 347.73 341.35 347.72 341.38 347.72 341.42 347.72 341.48 347.73 341.54 347.75 341.6 347.75 341.68 347.76 341.77 347.77 341.83 347.76 341.89 347.75 341.96 347.75 342.04 347.74 342.1 347.73 342.14 347.71 342.19 347.68 342.23 347.62 342.32 347.56 342.39 347.52 342.43 347.48 342.47 347.45 342.49 347.4 342.51 347.35 342.53 347.31 342.54 347.26 342.55 347.19 342.55 347.14 342.55 347.09 342.55 347.05 342.55 346.99 342.54 346.99 342.54 346.97 342.53 346.95 342.52 346.89 342.51 346.83 342.49 346.82 342.49 346.87 342.44 346.9 342.41 346.92 342.38 346.93 342.34 346.93 342.27 346.92 342.18 346.89 342.07 346.84 341.93 346.77 341.84 346.72 341.78 346.65 341.73 346.59 341.68 346.44 341.62 346.32 341.55 346.14 341.47 345.98 341.37 345.91 341.31 345.83 341.21 345.77 341.14 345.69 341.08 345.63 341.03 345.57 341.01 345.46 340.99 345.36 340.99 345.26 341 345.15 341.03 345.04 341.04 344.95 341.03 344.87 340.99 344.82 340.95 344.76 340.88 344.69 340.74 344.53 340.44 344.43 340.29 344.37 340.21 344.36 340.18 344.36 340.15 344.38 340.12 344.41 340.1 344.54 340.06 344.59 340.04 344.62 340.01 344.63 339.98 344.63 339.93 344.61 339.84 344.58 339.76 344.53 339.67 344.46 339.59 344.4 339.54 344.33 339.5 344.25 339.47 344.16 339.46 344.09 339.46 344.01 339.49 343.97 339.52 343.95 339.55 343.93 339.61 343.9 339.65 343.8 339.72 343.69 339.8 343.57 339.86 343.41 339.91 343.3 339.95 343.19 339.97 342.96 340 342.81 340.02 342.7 340.05 342.57 340.08 342.51 340.08 342.39 340.06 342.29 340.05 342.28 340.03 342.27 339.99 342.27 339.99 342.25 339.9 342.23 339.85 342.2 339.79 342.17 339.73 342.14 339.66 342.1 339.59 342.04 339.5 341.91 339.35 341.85 339.26 341.81 339.2 341.77 339.13 341.71 339.07 341.68 339.02 341.62 338.97 341.51 338.86 341.43 338.79 341.33 338.71 341.2 338.6 341.05 338.49 340.97 338.43 340.94 338.4 340.93 338.4 340.9 338.37 340.8 338.29 340.66 338.19 340.59 338.13 340.49 338.05 340.44 338 340.67 337.89 340.96 337.76 341.1 337.69 341.21 337.65 341.25 337.62 341.27 337.59 341.26 337.55 341.24 337.5 341.2 337.43 341.16 337.34 341.11 337.25 341.02 337.12 340.98 337.07 340.96 337.02 340.91 336.95 340.87 336.9 340.83 336.81 340.78 336.74 340.75 336.7 340.7 336.65 340.65 336.58 340.59 336.51 340.54 336.45 340.47 336.37 340.39 336.28 340.37 336.25 340.36 336.22 340.34 336.16 340.32 336.09 340.3 336.03 340.27 335.98 340.23 335.89 340.2 335.83 340.18 335.77 340.16 335.72 340.11 335.64 340.06 335.55 340.01 335.45 339.94 335.32 339.89 335.23 339.86 335.17 339.85 335.12 339.83 335.06 339.81 334.99 339.8 334.93 339.8 334.85 339.81 334.76 339.81 334.66 339.83 334.54 339.84 334.43 339.83 334.36 339.82 334.34 339.82 334.33 339.81 334.3 339.81 334.29 339.8 334.25 339.78 334.17 339.77 334.11 339.77 334 339.77 333.89 339.77 333.79 339.77 333.73 339.72 333.73 339.66 333.77 339.6 333.8 339.51 333.87 339.43 333.92 339.34 333.97 339.27 334 339.26 334.01 339.23 334.03 339.21 334.05 339.18 334.06 339.15 334.08 339.14 334.08 339.1 334.1 339.07 334.11 339.03 334.1 339.01 334.1 338.95 334.14 338.94 334.14 338.93 334.14 338.91 334.15 338.89 334.17 338.85 334.2 338.83 334.21 338.81 334.23 338.79 334.25 338.8 334.28 338.8 334.32 338.81 334.35 338.81 334.4 338.81 334.44 338.81 334.47 338.82 334.51 338.82 334.54 338.83 334.6 338.84 334.65 338.84 334.69 338.85 334.73 338.85 334.77 338.85 334.82 338.85 334.87 338.86 334.9 338.86 334.94 338.86 334.98 338.86 335.02 338.86 335.09 338.86 335.12 338.86 335.13 338.87 335.14 338.87 335.15 338.87 335.17 338.88 335.22 338.87 335.29 338.88 335.37 338.89 335.41 338.9 335.46 338.9 335.47 338.9 335.48 338.89 335.51 338.88 335.55 338.86 335.59 338.83 335.65 338.81 335.7 338.8 335.71 338.78 335.75 338.76 335.79 338.68 335.89 338.65 335.92 338.64 335.94 338.61 335.96 338.58 336 338.56 336.03 338.5 336.08 338.48 336.1 338.46 336.13 338.44 336.16 338.42 336.18 338.39 336.22 338.34 336.26 338.32 336.27 338.31 336.3 338.29 336.32 338.26 336.35 338.24 336.37 338.2 336.41 338.14 336.45 338.11 336.48 338.07 336.51 338.05 336.53 338.02 336.56 337.99 336.58 337.95 336.61 337.98 336.65 338 336.67 338.02 336.7 338.05 336.73 338.08 336.76 338.1 336.78 338.14 336.82 338.15 336.84 338.18 336.87 338.18 336.88 338.19 336.89 338.2 336.92 338.23 336.96 338.24 336.99 338.26 337.03 338.28 337.07 338.29 337.1 338.3 337.16 338.3 337.2 338.31 337.26 338.32 337.3 338.33 337.33 338.34 337.38 338.36 337.44 338.38 337.49 338.4 337.53 338.43 337.57 338.44 337.6 338.46 337.64 338.48 337.67 338.5 337.71 338.52 337.74 338.55 337.77 338.57 337.82 338.59 337.85 338.62 337.89 338.65 337.94 338.67 337.99 338.69 338.03 338.72 338.07 338.75 338.12 338.78 338.15 338.8 338.18 338.82 338.22 338.84 338.26 338.86 338.3 338.88 338.34 338.9 338.36 338.92 338.39 338.93 338.42 338.96 338.44 338.99 338.48 339.03 338.51 339.04 338.54 339.07 338.56 339.09 338.59 339.12 338.62 339.13 338.65 339.16 338.7 339.18 338.75 339.19 338.78 339.19 338.8 339.2 338.81 339.2 338.82 339.2 338.83 339.21 338.86 339.21 338.91 339.22 338.96 339.22 339 339.23 339.04 339.23 339.07 339.23 339.11 339.23 339.15 339.24 339.2 339.26 339.24 339.27 339.28 339.28 339.3 339.29 339.33 339.3 339.36 339.32 339.37 339.34 339.39 339.37 339.4 339.38 339.41 339.4 339.42 339.43 339.43 339.46 339.45 339.49 339.47 339.52 339.48 339.57 339.51 339.62 339.53 339.66 339.55 339.74 339.58 339.79 339.59 339.83 339.6 339.89 339.63 339.95 339.64 340 339.66 340.05 339.68 340.1 339.69 340.17 339.71 340.23 339.72 340.3 339.73 340.35 339.73 340.42 339.74 340.46 339.74 340.48 339.75 340.51 339.76 340.55 339.78 340.62 339.82 340.68 339.86 340.72 339.88 340.75 339.91 340.78 339.93 340.81 339.95 340.83 339.99 340.86 340.04 340.88 340.1 340.9 340.16 340.92 340.2 340.94 340.24 340.95 340.28 340.97 340.3 340.97 340.32 340.99 340.34 340.96 340.5 340.96 340.56 340.99 340.74 341 340.84 340.99 340.88 340.98 340.93 340.98 340.99 340.99 341.04 341.03 341.19 341.13 341.39 341.19 341.51 341.24 341.57 341.31 341.61 341.4 341.65 341.59 341.71 341.7 341.74 341.76 341.77 341.81 341.82 341.84 341.88 341.86 341.95 341.86 342.05 341.86 342.18 341.84 342.28 341.8 342.41 341.73 342.56 341.61 342.82 341.54 342.97 341.49 343.05 341.41 343.15 341.35 343.19 341.3 343.24 341.25 343.27 341.12 343.3 340.86 343.37 340.86 343.35 340.87 343.33 340.92 343.15 340.9 343.12 340.78 342.96 340.68 342.84 340.7 342.8 340.7 342.78 340.71 342.75 340.71 342.72 340.71 342.7 340.72 342.67 340.72 342.62 340.72 342.6 340.72 342.57 340.72 342.55 340.72 342.53 340.7 342.49 340.69 342.46 340.67 342.44 340.66 342.4 340.66 342.37 340.65 342.33 340.65 342.32 340.65 342.28 340.65 342.27 340.63 342.24 340.62 342.22 340.59 342.21 340.57 342.18 340.55 342.15 340.55 342.13 340.54 342.11 340.54 342.08 340.53 342.04 340.54 342 340.54 341.98 340.56 341.96 340.57 341.93 340.58 341.89 340.59 341.87 340.59 341.84 340.6 341.8 340.6 341.73 340.6 341.62 340.6 341.59 340.59 341.54 340.58 341.49 340.57 341.46 340.56 341.44 340.54 341.41 340.52 341.38 340.5 341.34 340.46 341.29 340.43 341.24 340.39 341.18 340.36 341.14 340.32 341.08 340.29 341.04 340.27 341.02 340.25 340.97 340.23 340.94 340.21 340.92 340.18 340.89 340.16 340.86 340.13 340.83 340.11 340.81 340.09 340.78 340.05 340.76 340.04 340.74 340.02 340.73 340 340.71 339.98 340.7 339.95 340.69 339.92 340.68 339.91 340.67 339.9 340.66 339.88 340.65 339.87 340.64 339.86 340.62 339.86 340.61 339.87 340.57 339.83 340.55 339.78 340.53 339.75 340.5 339.66 340.46 339.59 340.42 339.57 340.4 339.56 340.38 339.5 340.35 339.44 340.31 339.42 340.28 339.41 340.24 339.4 340.16 339.38 340.06 339.38 339.97 339.38 339.87 339.39 339.84 339.39 339.83 339.39 339.81 339.38 339.8 339.35 339.76 339.31 339.72 339.28 339.68 339.24 339.64 339.2 339.59 339.16 339.54 339.13 339.51 339.09 339.45 339.07 339.42 339.06 339.4 339.05 339.4 339.04 339.37 339.01 339.31 339 339.27 338.99 339.23 338.97 339.18 338.94 339.14 338.91 339.12 338.89 339.1 338.85 339.09 338.81 339.07 338.77 339.06 338.73 339.05 338.72 339.03 338.71 339.03 338.69 339.01 338.65 338.98 338.6 338.93 338.55 338.87 338.5 338.83 338.5 338.82 338.48 338.81 338.45 338.76 338.4 338.72 338.34 338.62 338.3 338.58 338.24 338.5 338.19 338.45 338.12 338.38 338.07 338.32 338.04 338.28 338 338.23 337.94 338.14 337.91 338.08 337.89 338.03 337.86 337.99 337.82 337.94 337.79 337.88 337.77 337.82 337.71 337.74 337.69 337.69 337.65 337.65 337.64 337.65 337.6 337.63 337.53 337.6 337.43 337.57 337.35 337.54 337.22 337.5 337.17 337.48 337.09 337.45 337.03 337.43 337.01 337.43 336.95 337.4 336.95 337.38 336.94 337.35 336.93 337.3 336.9 337.21 336.88 337.16 336.85 337.1 336.82 337.04 336.79 336.98 336.76 336.95 336.73 336.91 336.71 336.88 336.68 336.83 336.66 336.78 336.65 336.73 336.64 336.7 336.64 336.68 336.64 336.62 336.64 336.57 336.63 336.52 336.64 336.48 336.63 336.39 336.63 336.36 336.63 336.31 336.63 336.26 336.63 336.23 336.63 336.18 336.62 336.15 336.62 336.11 336.61 336.07 336.6 336.04 336.58 336.02 336.57 335.99 336.55 335.95 336.54 335.92 336.52 335.89 336.51 335.85 336.5 335.83 336.5 335.8 336.5 335.76 336.5 335.73 336.49 335.7 336.48 335.69 336.46 335.66 336.44 335.64 336.42 335.61 336.42 335.59 336.41 335.56 336.42 335.54 336.42 335.53 336.42 335.5 336.42 335.49 336.41 335.48 336.37 335.44 336.35 335.42 336.33 335.4 336.31 335.39 336.28 335.39 336.24 335.37 336.22 335.36 336.19 335.34 336.15 335.32 336.09 335.28 336.06 335.26 336.01 335.24 335.95 335.22 335.9 335.19 335.85 335.16 335.79 335.13 335.75 335.1 335.69 335.06 335.62 335.03 335.55 334.99 335.5 334.97 335.46 334.95 335.41 334.92 335.37 334.9 335.36 334.9 335.33 334.89 335.33 334.88 335.29 334.86 335.26 334.84 335.24 334.83 335.2 334.8 335.17 334.78 335.14 334.75 335.12 334.74 335.11 334.73 335.08 334.7 335.05 334.68 335.01 334.64 334.95 334.6 334.92 334.57 334.9 334.55 334.86 334.53 334.86 334.52 334.83 334.5 334.83 334.49 334.83 334.47 334.82 334.44 334.81 334.39 334.8 334.38 334.78 334.37 334.77 334.37 334.74 334.4 334.7 334.44 334.68 334.46 334.58 334.4 334.57 334.39 334.55 334.38 334.51 334.36 334.49 334.35 334.45 334.34 334.4 334.31 334.34 334.27 334.34 334.27 334.33 334.26 334.32 334.26 334.31 334.25 334.3 334.24 334.29 334.23 334.28 334.22 334.25 334.19 334.24 334.13 334.22 334.09 334.22 334.07 334.19 334 334.17 333.95 334.15 333.9 334.12 333.84 334.11 333.8 334.08 333.75 334.04 333.69 334.02 333.63 334 333.59 333.98 333.53 333.95 333.46 333.92 333.39 333.89 333.33 333.86 333.27 333.84 333.22 333.82 333.18 333.8 333.12 333.77 333.06 333.73 332.99 333.69 332.91 333.64 332.81 333.6 332.71 333.55 332.61 333.49 332.49 333.47 332.46 333.47 332.42 333.47 332.4 333.46 332.36 333.43 332.31 333.4 332.24 333.37 332.15 333.35 332.1 333.33 332.11 333.29 332.13 333.23 332.14 333.15 332.16 333.06 332.19 332.98 332.21 332.92 332.23 332.85 332.25 332.78 332.27 332.7 332.29 332.6 332.32 332.54 332.34 332.47 332.36 332.42 332.36 332.36 332.38 332.29 332.4 332.24 332.41 332.19 332.43 332.17 332.44 332.12 332.45 332.06 332.47 332.03 332.47 331.87 332.5 331.79 332.53 331.74 332.53 331.65 332.55 331.58 332.56 331.52 332.57 331.46 332.59 331.38 332.61 331.29 332.62 331.21 332.63 331.13 332.64 331.06 332.66 330.97 332.67 330.9 332.69 330.71 332.73 330.6 332.73 330.48 332.75 330.37 332.75 330.3 332.75 330.2 332.76 330.12 332.77 330.05 332.77 330.02 332.74 330.02 332.74 329.99 332.71 329.94 332.67 329.9 332.61 329.87 332.57 329.83 332.5 329.81 332.48 329.79 332.47 329.78 332.46 329.74 332.44 329.71 332.43 329.66 332.42 329.6 332.43 329.53 332.43 329.47 332.43 329.41 332.45 329.36 332.46 329.32 332.46 329.26 332.46 329.22 332.46 329.16 332.47 329.11 332.47 329.07 332.46 328.99 332.47 328.91 332.47 328.85 332.48 328.8 332.49 328.74 332.49 328.68 332.5 328.61 332.49 328.56 332.49 328.52 332.5 328.49 332.48 328.47 332.48 328.45 332.43 328.44 332.39 328.44 332.37 328.44 332.36 328.44 332.3 328.45 332.25 328.46 332.21 328.46 332.17 328.48 332.12 328.49 332.08 328.51 332.03 328.52 332.01 328.54 331.97 328.57 331.93 328.61 331.87 328.63 331.83 328.65 331.79 328.68 331.76 328.7 331.72 328.72 331.68 328.75 331.62 328.77 331.59 328.78 331.56 328.79 331.54 328.83 331.51 328.88 331.46 328.9 331.45 328.92 331.43 328.97 331.39 329.05 331.34 329.06 331.33 329.09 331.3 329.12 331.26 329.16 331.22 329.19 331.19 329.23 331.15 329.25 331.12 329.29 331.07 329.31 331.04 329.34 331.02 329.39 330.96 329.48 330.86 329.51 330.81 329.54 330.78 329.56 330.76 329.59 330.74 329.63 330.71 329.69 330.67 329.74 330.63 329.78 330.6 329.82 330.57 329.86 330.56 329.89 330.53 329.93 330.51 329.96 330.49 330 330.47 330.02 330.46 330.05 330.44 330.08 330.42 330.1 330.39 330.11 330.37 330.12 330.34 330.16 330.26 330.18 330.22 330.2 330.17 330.21 330.14 330.22 330.12 330.22 330.11 330.22 330.09 330.21 330.06 330.19 330.04 330.17 330 330.08 329.83 330.08 329.82 330.07 329.8 330.06 329.78 330.05 329.76 330.04 329.74 330.01 329.69 329.95 329.56 329.91 329.5 329.9 329.48 329.89 329.46 329.88 329.44 329.81 329.31 329.75 329.21 329.74 329.19 329.73 329.17 329.71 329.11 329.67 329.04 329.66 329 329.65 328.99 329.64 328.97 329.63 328.94 329.62 328.91 329.62 328.88 329.61 328.87 329.61 328.85 329.61 328.84 329.61 328.81 329.6 328.79 329.6 328.76 329.59 328.7 329.59 328.66 329.58 328.61 329.58 328.58 329.57 328.55 329.57 328.51 329.57 328.49 329.57 328.46 329.57 328.45 329.57 328.43 329.57 328.43 329.57 328.41 329.57 328.38 329.56 328.33 329.55 328.28 329.54 328.23 329.53 328.2 329.52 328.17 329.52 328.14 329.51 328.12 329.5 328.08 329.49 328.06 329.48 328.02 329.47 327.98 329.46 327.94 329.45 327.87 329.45 327.83 329.45 327.82 329.44 327.81 329.43 327.8 329.42 327.75 329.22 326.96 329.25 326.92 329.34 326.82 329.43 326.73 329.53 326.62 329.62 326.53 329.72 326.43 329.85 326.33 329.94 326.27 330 326.23 330.06 326.19 330.18 326.11 330.24 326.08 330.34 326.02 330.58 325.88 330.74 325.78 330.89 325.67 331.03 325.59 331.15 325.51 331.26 325.43 331.39 325.32 331.47 325.26 331.58 325.15 331.64 325.07 331.7 325 331.8 324.91 331.87 324.84 331.93 324.77 331.98 324.69 332.02 324.6 332.05 324.52 332.08 324.38 332.1 324.32 332.12 324.22 332.14 324.14 332.18 324.06 332.23 323.96 332.28 323.86 332.34 323.75 332.1 323.75 331.93 323.77 331.76 323.79 331.64 323.8 331.53 323.81 331.44 323.83 331.37 323.86 331.28 323.9 331.34 323.81 331.4 323.74 331.45 323.69 331.51 323.65 331.57 323.61 331.64 323.59 331.69 323.57 331.8 323.53 331.98 323.48 332.09 323.45 332.19 323.42 332.27 323.38 332.32 323.35 332.37 323.31 332.42 323.27 332.45 323.21 332.49 323.12 332.5 323.07 332.52 323.03 332.54 323 332.58 322.97 332.62 322.94 332.72 322.88 332.82 322.82 332.87 322.79 333.07 322.67 333.17 322.61 333.22 322.57 333.27 322.54 333.31 322.49 333.34 322.45 333.37 322.39 333.41 322.33 333.44 322.26 333.48 322.19 333.66 321.83 333.76 321.64 333.79 321.58 333.82 321.54 333.86 321.49 333.92 321.44 334.03 321.35 334.2 321.19 334.39 321.02 334.58 320.86 334.76 320.7 334.82 320.39 335.07 320.11 335.33 319.85 Z"/>
</g></svg>