<svg xmlns="http://www.w3.org/2000/svg" version="1.2" baseProfile="tiny" stroke-linecap="round" stroke-linejoin="round" viewBox="647.45 96.15 28.27 30.55"><g xmlns="http://www.w3.org/2000/svg" id="Landibarre">
<path d="M 660.31 96.19 660.47 96.17 660.51 96.18 660.56 96.19 660.58 96.2 660.59 96.21 660.6 96.22 660.6 96.23 660.6 96.24 660.6 96.26 660.61 96.26 660.62 96.27 660.62 96.28 660.63 96.29 660.63 96.31 660.64 96.33 660.7 96.28 660.75 96.29 660.76 96.29 660.79 96.3 660.81 96.3 660.85 96.31 660.88 96.31 660.91 96.32 660.95 96.33 660.99 96.33 661.04 96.34 661.09 96.34 661.14 96.34 661.2 96.34 661.26 96.34 661.32 96.34 661.35 96.34 661.4 96.34 661.46 96.34 661.51 96.34 661.56 96.34 661.6 96.34 661.65 96.34 661.69 96.34 661.75 96.33 661.79 96.32 661.83 96.31 661.87 96.31 661.9 96.31 661.94 96.3 661.98 96.29 662.01 96.27 662.05 96.25 662.08 96.24 662.11 96.24 662.15 96.24 662.21 96.25 662.26 96.26 662.33 96.28 662.37 96.29 662.43 96.31 662.48 96.32 662.53 96.33 662.58 96.34 662.62 96.35 662.66 96.35 662.7 96.34 662.75 96.32 662.79 96.31 662.82 96.28 662.89 96.34 662.92 96.37 662.96 96.41 663 96.44 663.04 96.47 663.08 96.51 663.12 96.53 663.15 96.56 663.19 96.59 663.23 96.62 663.26 96.65 663.28 96.69 663.3 96.72 663.33 96.74 663.4 96.82 663.43 96.84 663.47 96.87 663.49 96.9 663.5 96.95 663.51 96.97 663.52 97.02 663.55 97.07 663.57 97.09 663.59 97.11 663.62 97.13 663.65 97.16 663.68 97.18 663.71 97.23 663.74 97.28 663.77 97.36 663.79 97.4 663.82 97.45 663.85 97.5 663.88 97.56 663.9 97.6 663.91 97.65 663.93 97.69 663.94 97.74 663.96 97.79 663.97 97.85 663.99 97.92 664.01 97.98 664.03 98.01 664.05 98.02 664.05 98.03 664.08 98.04 664.12 98.06 664.16 98.09 664.2 98.12 664.22 98.15 664.27 98.19 664.32 98.23 664.35 98.26 664.41 98.31 664.46 98.34 664.52 98.38 664.57 98.4 664.62 98.43 664.66 98.46 664.72 98.5 664.77 98.53 664.84 98.62 664.86 98.65 664.89 98.68 664.93 98.76 664.96 98.79 665 98.82 665.03 98.85 665.05 98.86 665.1 98.92 665.15 98.96 665.27 99.07 665.33 99.13 665.4 99.21 665.45 99.27 665.5 99.36 665.52 99.39 665.54 99.41 665.6 99.48 665.65 99.52 665.7 99.56 665.77 99.6 665.83 99.65 665.87 99.69 665.91 99.71 665.96 99.74 666.02 99.79 666.07 99.82 666.09 99.83 666.15 99.87 666.21 99.92 666.26 99.96 666.36 99.98 666.42 99.99 666.47 100.01 666.53 100.04 666.61 100.07 666.65 100.12 666.69 100.15 666.72 100.2 666.75 100.24 666.79 100.26 666.84 100.29 666.89 100.31 666.93 100.33 666.95 100.34 666.99 100.38 667.04 100.41 667.09 100.45 667.14 100.48 667.2 100.5 667.27 100.53 667.33 100.56 667.37 100.6 667.42 100.64 667.47 100.69 667.52 100.72 667.57 100.75 667.64 100.79 667.66 100.78 667.68 100.76 667.72 100.75 667.77 100.75 667.85 100.76 667.92 100.78 667.99 100.81 668.05 100.83 668.09 100.84 667.92 100.97 667.96 100.97 668.01 100.98 668.05 100.99 668.09 101.01 668.12 101.03 668.14 101.07 668.16 101.09 668.2 101.1 668.22 101.09 668.25 101.08 668.28 101.07 668.31 101.08 668.32 101.1 668.32 101.12 668.32 101.13 668.3 101.15 668.3 101.17 668.3 101.19 668.33 101.22 668.35 101.24 668.39 101.28 668.42 101.29 668.43 101.32 668.44 101.35 668.45 101.38 668.47 101.41 668.48 101.44 668.49 101.48 668.51 101.5 668.57 101.52 668.63 101.53 668.67 101.55 668.68 101.56 668.67 101.57 668.65 101.59 668.62 101.61 668.6 101.64 668.6 101.67 668.6 101.7 668.6 101.72 668.62 101.76 668.66 101.82 668.68 101.89 668.71 101.93 668.73 101.96 668.75 102.01 668.77 102.07 668.8 102.14 668.82 102.21 668.84 102.27 668.88 102.31 668.94 102.35 668.99 102.39 669.03 102.39 669.08 102.4 669.11 102.42 669.15 102.45 669.17 102.48 669.19 102.52 669.18 102.56 669.15 102.6 669.15 102.63 669.19 102.66 669.21 102.69 669.23 102.72 669.22 102.75 669.22 102.79 669.23 102.83 669.25 102.86 669.3 102.89 669.35 102.93 669.4 102.97 669.45 103.01 669.52 103.04 669.6 103.07 669.65 103.09 669.72 103.12 669.76 103.15 669.8 103.2 669.85 103.25 669.91 103.3 669.97 103.35 670 103.38 670.05 103.42 670.06 103.41 670.08 103.4 670.11 103.38 670.13 103.36 670.18 103.34 670.2 103.34 670.22 103.35 670.23 103.37 670.24 103.4 670.24 103.44 670.24 103.47 670.24 103.51 670.24 103.55 670.24 103.59 670.24 103.61 670.24 103.62 670.26 103.63 670.27 103.64 670.3 103.67 670.37 103.72 670.45 103.77 670.48 103.78 670.5 103.8 670.52 103.83 670.54 103.86 670.56 103.9 670.57 103.94 670.59 103.99 670.61 104.02 670.65 104.04 670.69 104.06 670.75 104.09 670.89 104.15 671.02 104.18 671.12 104.2 671.22 104.22 671.35 104.46 671.33 104.47 671.3 104.5 671.27 104.56 671.26 104.59 671.26 104.63 671.27 104.66 671.27 104.69 671.3 104.73 671.34 104.81 671.4 104.89 671.41 104.9 671.43 104.91 671.44 104.9 671.44 104.89 671.44 104.87 671.44 104.83 671.44 104.79 671.45 104.75 671.46 104.72 671.48 104.7 671.53 104.69 671.57 104.69 671.6 104.68 671.61 104.7 671.62 104.71 671.62 104.73 671.62 104.74 671.88 104.82 672.16 105.09 672.13 105.16 672.1 105.21 672.1 105.23 672.09 105.25 672.1 105.27 672.11 105.31 672.12 105.36 672.14 105.4 672.15 105.45 672.15 105.5 672.14 105.55 672.13 105.59 672.1 105.65 672.06 105.72 672.05 105.76 672.04 105.79 672.04 105.87 672.04 105.92 672.05 105.96 672.04 105.98 672.11 105.99 672.16 106.01 672.2 106.02 672.24 106.05 672.28 106.08 672.31 106.11 672.34 106.15 672.37 106.19 672.39 106.21 672.41 106.22 672.43 106.23 672.45 106.22 672.49 106.2 672.54 106.17 672.57 106.16 672.6 106.15 672.63 106.15 672.68 106.16 672.77 106.17 672.85 106.2 672.88 106.21 672.89 106.22 672.91 106.24 672.92 106.26 672.93 106.28 672.95 106.31 672.98 106.35 673.2 106.71 673.42 107.14 673.64 107.57 673.87 108 673.85 108.04 673.78 108.09 673.77 108.15 673.82 108.16 674.47 108.7 674.54 108.75 675.33 109.44 675.37 109.47 675.69 109.8 675.6 110.36 675.41 111.09 675.37 111.11 675.11 111.25 674.2 111.71 673.75 112.35 673.29 112.98 673.24 113.32 673.05 114.19 672.88 114.8 672.55 115.42 671.85 115.83 671.15 116.24 670.45 116.65 670.34 116.67 670.22 116.65 669.78 116.61 669.69 117.12 669.66 117.49 669.87 118.13 670.08 118.76 670.29 119.4 669.76 119.67 669.51 119.71 669.25 119.65 669 119.78 668.55 119.91 667.81 120.1 667.03 120.35 666.26 120.6 665.99 120.71 665.91 120.69 665.85 120.68 665.79 120.67 665.7 120.67 665.62 120.67 665.53 120.67 665.46 120.67 665.45 120.67 665.43 120.67 664.63 120.76 664 121.12 663.43 121.42 662.85 121.72 662.77 122.38 662.7 123.04 662.14 123.13 661.59 123.22 661.04 123.3 660.76 123.27 660.65 123.36 660.49 123.5 660.48 123.5 660.27 124.01 660.06 124.51 659.85 125.02 659.63 125.37 659.6 125.44 658.98 125.67 658.37 125.91 657.76 126.14 657.14 126.37 656.27 126.52 655.44 126.68 654.88 126.52 654.34 126.24 653.92 126.1 653.77 125.94 653.21 125.33 652.65 124.72 652.09 124.11 651.81 123.8 651.71 123.63 651.62 123.51 651.61 123.49 651.6 123.47 651.58 123.42 651.57 123.36 651.01 122.59 650.92 122.52 650.88 122.48 650.84 122.44 650.78 122.37 650.37 121.68 650.35 121.62 650.34 121.55 650.32 121.47 650.31 121.43 650.27 121.33 650.23 121.23 650.21 121.19 650.18 121.11 650.16 121.05 650.14 121.01 650.14 120.95 650.13 120.91 650.13 120.84 650.14 120.8 650.14 120.78 650.14 120.76 650.13 120.74 650.13 120.72 650.11 120.7 650.1 120.69 650.08 120.67 650.05 120.62 650.03 120.58 650.01 120.55 649.99 120.53 649.97 120.51 649.95 120.5 649.91 120.48 649.9 120.46 649.88 120.42 649.86 120.36 649.84 120.29 649.81 120.24 649.8 120.22 649.79 120.2 649.75 120.16 649.7 120.1 649.64 120.04 649.55 119.95 649.49 119.89 649.41 119.8 649.39 119.77 649.37 119.75 648.75 119.04 648.74 119.04 648.73 119.03 648.71 119 648.66 118.95 648.61 118.91 648.6 118.87 648.28 118.54 648.16 118.11 648.12 117.98 648.06 117.74 648.04 117.69 647.84 117.11 647.65 116.53 647.45 115.95 648.02 115.42 649.08 115.37 649.29 115.08 649.62 114.54 649.67 114.52 650.13 114.76 650.58 115 651.03 115.23 651.9 115.63 652.61 115.24 653.33 114.84 654.05 114.52 655.06 114.02 655.51 113.3 655.71 113.22 655.87 113.21 656.51 113.34 657.23 113.56 657.5 113.56 657.96 113.48 658.95 113.15 659.18 112.93 659.4 112.59 659.49 111.54 659.84 110.91 659.46 110.55 659.39 110.15 659.68 109.74 660.06 109.16 660.32 108.82 660.5 108.56 660.72 108.27 660.8 108.12 660.95 107.83 661.6 107.7 662.21 107.5 662.83 107.29 663.44 107.09 663.52 106.57 663.6 106.05 663.68 105.54 663.68 105.52 663.68 105.49 663.69 105.45 663.69 105.41 663.69 105.38 663.68 105.34 663.68 105.31 663.68 105.27 663.68 105.23 663.7 105.19 663.7 105.12 663.69 105.07 663.68 105.02 663.67 104.94 663.66 104.9 663.65 104.84 663.63 104.81 663.61 104.76 663.59 104.73 663.58 104.7 663.58 104.66 663.58 104.63 663.6 104.61 663.6 104.59 663.6 104.56 663.61 104.53 663.62 104.5 663.62 104.47 663.62 104.44 663.62 104.41 663.62 104.38 663.63 104.35 663.64 104.32 663.64 104.28 663.66 104.24 663.66 104.21 663.66 104.18 663.68 104.16 663.69 104.14 663.71 104.12 663.72 104.12 663.72 104.09 663.71 104.07 663.67 104.08 663.65 104.08 663.64 104.08 663.63 104.07 663.62 104.07 663.6 104.06 663.59 104.05 663.58 104.04 663.56 104.03 663.55 104.03 663.54 104.04 663.52 104.04 663.51 104.04 663.51 104.03 663.5 104.02 663.49 104.01 663.47 104.01 663.46 104.01 663.45 104.01 663.44 104 663.43 103.99 663.42 103.99 663.4 103.99 663.39 103.99 663.38 103.99 663.38 103.98 663.36 103.98 663.35 103.98 663.34 103.97 663.34 103.96 663.34 103.95 663.34 103.93 663.34 103.92 663.33 103.91 663.32 103.9 663.32 103.89 663.32 103.88 663.31 103.86 663.31 103.77 663.31 103.73 663.29 103.64 663.28 103.58 663.27 103.52 663.25 103.47 663.22 103.38 663.18 103.31 663.16 103.26 663.14 103.23 663.11 103.21 663.09 103.19 663.08 103.16 663.06 103.13 663.04 103.11 663.01 103.1 662.98 103.09 662.96 103.08 662.93 103.05 662.92 103.01 662.9 102.97 662.88 102.94 662.86 102.9 662.85 102.87 662.84 102.8 662.83 102.76 662.82 102.72 662.82 102.67 662.82 102.63 662.81 102.59 662.8 102.53 662.8 102.49 662.81 102.46 662.84 102.44 662.86 102.42 662.86 102.4 662.87 102.36 662.87 102.3 662.87 102.26 662.87 102.23 662.85 102.2 662.84 102.18 662.84 102.17 662.85 102.15 662.85 102.11 662.83 102.07 662.8 102.04 662.78 102.02 662.77 102 662.77 101.98 662.78 101.95 662.78 101.93 662.76 101.9 662.75 101.88 662.7 101.8 662.65 101.75 662.6 101.69 662.54 101.6 662.52 101.58 662.51 101.55 662.51 101.54 662.52 101.51 662.52 101.47 662.52 101.44 662.52 101.4 662.51 101.37 662.51 101.34 662.5 101.3 662.49 101.27 662.48 101.24 662.47 101.2 662.47 101.16 662.46 101.12 662.45 101.08 662.45 101.05 662.45 101.02 662.46 101.01 662.47 101.01 662.49 101 662.5 100.98 662.51 100.93 662.52 100.88 662.53 100.82 662.56 100.76 662.57 100.73 662.62 100.64 662.65 100.57 662.66 100.53 662.67 100.49 662.66 100.46 662.66 100.43 662.65 100.41 662.64 100.39 662.64 100.36 662.63 100.34 662.61 100.32 662.6 100.29 662.59 100.25 662.58 100.22 662.58 100.18 662.58 100.14 662.57 100.02 662.55 99.94 662.54 99.89 662.54 99.85 662.53 99.8 662.51 99.76 662.5 99.73 662.48 99.69 662.45 99.67 662.43 99.64 662.37 99.57 662.33 99.52 662.29 99.47 662.26 99.43 662.24 99.39 662.21 99.35 662.18 99.33 662.14 99.29 662.1 99.28 662.05 99.26 662.02 99.25 661.99 99.24 661.95 99.23 661.91 99.22 661.89 99.2 661.86 99.17 661.82 99.17 661.8 99.16 661.73 99.15 661.63 99.12 661.5 99.06 661.47 99.03 661.43 98.98 661.38 98.95 661.31 98.91 661.24 98.88 661.18 98.84 661.09 98.78 661.03 98.74 660.98 98.72 660.93 98.72 660.9 98.72 660.89 98.69 660.89 98.67 660.91 98.61 660.93 98.53 660.96 98.47 660.97 98.43 660.99 98.37 661.02 98.3 661.03 98.24 661.04 98.18 661.04 98.15 661.04 98.12 661.02 98.07 661 97.96 660.98 97.84 660.95 97.76 660.9 97.66 660.85 97.57 660.81 97.5 660.8 97.49 660.79 97.48 660.74 97.46 660.69 97.44 660.67 97.42 660.61 97.22 660.62 97.17 660.62 97.16 660.62 97.13 660.62 97.11 660.62 97.09 660.62 97.07 660.62 97.05 660.12 96.58 660.31 96.19 Z"/>
</g></svg>