<svg xmlns="http://www.w3.org/2000/svg" version="1.2" baseProfile="tiny" stroke-linecap="round" stroke-linejoin="round" viewBox="1 127.22 5.17 15.05"><g xmlns="http://www.w3.org/2000/svg" id="Lanestosa">
<path d="M 1.14 127.24 2.27 128.32 2.96 129.9 3.07 130.16 3.42 131.14 4.24 132.37 4.59 133.01 4.85 133.5 4.81 134.49 5.08 134.94 5.2 135.59 6.15 137.45 5.92 138.08 5.89 138.14 5.88 138.18 5.87 138.26 5.86 138.29 5.87 138.33 5.87 138.37 5.93 138.74 5.94 138.79 5.94 138.84 5.95 138.89 5.96 138.95 5.98 138.99 5.99 139.04 6.01 139.1 6.03 139.15 6.04 139.19 6.04 139.24 6.01 139.41 6 139.49 5.95 139.65 5.91 139.87 5.89 139.91 5.86 140 5.84 140.07 5.83 140.13 5.82 140.28 5.79 140.46 5.79 140.5 5.79 140.57 5.8 140.64 5.84 140.76 5.85 140.8 5.87 140.85 5.88 140.9 5.89 140.95 5.88 141.02 5.87 141.09 5.84 141.15 5.8 141.22 5.69 141.34 5.55 141.54 5.5 141.73 5.5 141.77 5.5 142.26 5.26 142.19 5.2 142.17 5.12 142.11 5.05 142.07 5.07 142.04 5.1 141.96 5.13 141.87 5.16 141.72 5.18 141.65 5.19 141.58 5.21 141.51 5.24 141.44 5.29 141.36 5.34 141.27 5.41 141.14 5.49 141.02 5.58 140.85 5.61 140.78 5.63 140.71 5.64 140.66 5.64 140.6 5.64 140.31 5.66 140.21 5.71 140 5.77 139.8 5.8 139.7 5.81 139.63 5.83 139.53 5.83 139.47 5.84 139.41 5.87 139.22 5.87 139.14 5.87 139.07 5.87 139 5.85 138.91 5.83 138.84 5.81 138.77 5.76 138.64 5.73 138.65 5.48 138.08 5.09 137.21 4.57 136.43 4.23 135.92 3.91 135.24 3.89 135.04 3.91 134.84 3.24 133.99 2.66 133.09 2.26 131.35 1.87 129.9 1.82 129.74 1.88 129.7 1.84 129.62 1.84 129.59 1.84 129.46 1.84 129.4 1.83 129.37 1.82 129.35 1.8 129.33 1.76 129.31 1.7 129.29 1.63 129.27 1.48 129.17 1.45 129.15 1.43 129.12 1.38 129.02 1.27 128.79 1.2 128.64 1.14 128.45 1.13 128.39 1.12 128.32 1.13 128.27 1.14 128.21 1.15 128.17 1.17 128.12 1.22 128.06 1.25 128.01 1.27 127.97 1.28 127.92 1.3 127.86 1.3 127.81 1.3 127.76 1.3 127.72 1.28 127.67 1.26 127.61 1.23 127.54 1.2 127.47 1.18 127.43 1.16 127.4 1.13 127.37 1.06 127.31 1 127.26 1.14 127.24 Z"/>
</g></svg>