<svg xmlns="http://www.w3.org/2000/svg" version="1.2" baseProfile="tiny" stroke-linecap="round" stroke-linejoin="round" viewBox="273.62 367.87 18.9 20.63"><g xmlns="http://www.w3.org/2000/svg" id="Lapoblación">
<path d="M 279.28 369.06 279.27 369.08 279.26 369.11 279.27 369.12 279.26 369.15 279.26 369.19 279.25 369.22 279.25 369.24 279.25 369.28 279.26 369.31 279.27 369.34 279.29 369.37 279.32 369.4 279.34 369.43 279.4 369.48 279.47 369.52 279.51 369.55 279.56 369.59 279.59 369.61 279.66 369.68 279.69 369.72 279.74 369.78 279.78 369.83 279.83 369.88 279.87 369.93 279.93 369.98 279.96 370.02 280.01 370.08 280.04 370.12 280.08 370.18 280.1 370.22 280.15 370.27 280.17 370.26 280.22 370.24 280.28 370.22 280.31 370.21 280.36 370.19 280.41 370.18 280.46 370.18 280.49 370.13 280.51 370.09 280.56 370.02 280.6 369.96 280.63 369.92 280.68 369.86 280.77 369.75 280.82 369.7 280.88 369.64 280.93 369.59 280.98 369.54 281 369.53 281.02 369.51 281.03 369.5 281.05 369.49 281.06 369.48 281.06 369.46 281.03 369.39 281.02 369.36 281.02 369.32 281.01 369.31 281 369.28 281 369.26 281 369.18 281 369.15 281 369.12 280.97 369.12 280.94 369.12 280.93 369.1 280.92 369.06 280.89 369.02 280.88 368.99 280.87 368.95 280.86 368.92 280.86 368.89 280.87 368.86 280.88 368.83 280.89 368.8 280.9 368.77 280.89 368.73 280.89 368.71 280.9 368.7 280.91 368.68 280.94 368.66 280.96 368.63 280.98 368.62 280.99 368.6 280.99 368.58 280.99 368.55 281 368.53 281.02 368.52 281.05 368.49 281.06 368.48 281.08 368.46 281.1 368.43 281.11 368.41 281.13 368.4 281.17 368.4 281.18 368.4 281.21 368.38 281.24 368.35 281.28 368.31 281.32 368.27 281.34 368.24 281.35 368.22 281.36 368.18 281.37 368.15 281.38 368.12 281.4 368.09 281.42 368.07 281.45 368.05 281.52 368.02 281.57 367.99 281.62 367.96 281.67 367.94 281.71 367.91 281.73 367.9 281.77 367.89 281.78 367.89 281.8 367.9 281.84 367.9 281.85 367.9 281.88 367.91 281.92 367.91 282.06 367.93 282.13 367.93 282.22 367.94 282.28 367.94 282.4 367.95 282.5 367.95 282.54 367.95 282.59 367.95 282.63 367.97 282.7 367.98 282.74 367.99 282.81 368 282.87 368 282.9 368 282.92 368 282.96 368.01 283.02 368.02 283.08 368.03 283.15 368.04 283.23 368.05 283.29 368.05 283.31 368.06 283.37 368.06 283.45 368.07 283.52 368.09 283.59 368.1 283.67 368.1 283.75 368.1 283.82 368.1 283.9 368.1 283.96 368.1 284.05 368.1 284.12 368.1 284.2 368.09 284.28 368.09 284.35 368.08 284.45 368.08 284.52 368.08 284.6 368.08 284.68 368.08 284.74 368.08 284.82 368.08 284.89 368.08 284.95 368.07 285.01 368.06 285.08 368.06 285.12 368.06 285.14 368.06 285.19 368.08 285.23 368.11 285.27 368.14 285.31 368.17 285.33 368.18 285.38 368.19 285.45 368.2 285.52 368.21 285.56 368.21 285.63 368.22 285.7 368.22 285.77 368.21 285.8 368.21 285.86 368.22 285.91 368.22 286 368.22 286.06 368.23 286.13 368.23 286.22 368.23 286.28 368.24 286.3 368.24 286.36 368.25 286.45 368.25 286.51 368.26 286.54 368.26 286.59 368.26 286.66 368.26 286.71 368.26 286.77 368.26 286.84 368.27 286.94 368.29 287.01 368.29 287.07 368.3 287.17 368.32 287.24 368.34 287.32 368.35 287.4 368.36 287.47 368.38 287.54 368.39 287.61 368.41 287.68 368.42 287.76 368.44 287.82 368.46 287.9 368.49 288 368.53 288.11 368.57 288.24 368.63 288.31 368.65 288.39 368.68 288.45 368.7 288.53 368.72 288.6 368.73 288.66 368.74 288.75 368.76 288.82 368.77 288.91 368.78 288.99 368.8 289.01 368.8 289.06 368.81 289.08 368.81 289.14 368.82 289.21 368.84 289.36 368.86 289.44 368.87 289.5 368.89 289.58 368.9 289.65 368.96 289.77 369.06 289.82 369.1 289.89 369.16 289.93 369.2 289.95 369.22 290.01 369.25 290.12 369.29 290.18 369.31 290.21 369.33 290.24 369.36 290.28 369.4 290.32 369.44 290.36 369.49 290.35 369.51 290.34 369.54 290.34 369.57 290.34 369.6 290.36 369.62 290.36 369.63 290.38 369.66 290.39 369.68 290.39 369.71 290.38 369.74 290.37 369.78 290.33 369.82 290.29 369.88 290.27 369.91 290.25 369.95 290.23 370.02 290.23 370.05 290.23 370.07 290.23 370.1 290.22 370.16 290.21 370.21 290.2 370.27 290.19 370.34 290.17 370.43 290.16 370.49 290.16 370.54 290.16 370.58 290.16 370.61 290.17 370.64 290.2 370.6 290.23 370.54 290.27 370.45 290.32 370.34 290.36 370.27 290.4 370.21 290.43 370.14 290.48 370.08 290.52 370.02 290.56 369.95 290.57 369.93 290.59 369.89 290.6 369.85 290.61 369.79 290.63 369.74 290.65 369.68 290.69 369.63 290.75 369.58 290.77 369.56 290.82 369.51 290.84 369.5 290.86 369.48 290.9 369.45 290.98 369.38 291.03 369.34 291.08 369.29 291.15 369.23 291.19 369.19 291.21 369.18 291.24 369.17 291.27 369.16 291.29 369.17 291.31 369.2 291.32 369.25 291.33 369.3 291.35 369.33 291.37 369.42 291.37 369.49 291.39 369.55 291.41 369.64 291.43 369.71 291.46 369.8 291.52 369.93 291.56 370.02 291.62 370.15 291.66 370.22 291.72 370.35 291.76 370.44 291.82 370.56 291.84 370.6 291.89 370.65 291.96 370.73 292.02 370.8 292.12 370.9 292.14 370.92 292.17 370.95 292.2 370.99 292.3 371.09 292.35 371.15 292.38 371.18 292.46 371.27 292.51 371.33 292.47 371.35 292.44 371.36 292.42 371.37 292.41 371.38 292.39 371.38 292.38 371.39 292.37 371.39 292.32 371.42 292.27 371.42 292.24 371.4 292.2 371.38 292.19 371.38 292.17 371.37 292.1 371.33 292.07 371.32 292.04 371.32 291.94 371.35 291.85 371.37 291.84 371.38 291.8 371.39 291.75 371.4 291.71 371.4 291.69 371.4 291.63 371.4 291.54 371.39 291.46 371.39 291.36 371.37 291.34 371.37 291.32 371.38 291.32 371.39 291.31 371.48 291.31 371.51 291.3 371.54 291.3 371.55 291.3 371.62 291.28 371.76 291.28 371.84 291.27 371.93 291.26 371.99 291.25 372.07 291.24 372.21 291.23 372.32 291.22 372.39 291.22 372.47 291.21 372.55 291.21 372.58 291.2 372.61 291.26 372.67 291.3 372.72 291.35 372.77 291.37 372.8 291.39 372.83 291.42 372.86 291.43 372.88 291.44 372.91 291.44 372.94 291.46 372.97 291.48 373 291.5 373.03 291.52 373.06 291.53 373.08 291.53 373.16 291.54 373.18 291.55 373.21 291.55 373.25 291.56 373.31 291.56 373.35 291.57 373.38 291.58 373.43 291.59 373.45 291.59 373.47 291.59 373.51 291.59 373.55 291.6 373.58 291.62 373.61 291.62 373.63 291.62 373.66 291.62 373.7 291.63 373.75 291.63 373.79 291.62 373.85 291.62 373.89 291.61 373.91 291.61 373.94 291.61 373.97 291.61 374 291.61 374.04 291.61 374.06 291.62 374.08 291.63 374.13 291.63 374.16 291.63 374.19 291.63 374.24 291.63 374.25 291.63 374.27 291.63 374.3 291.65 374.33 291.66 374.36 291.66 374.39 291.65 374.42 291.65 374.46 291.65 374.49 291.69 374.55 291.71 374.57 291.73 374.6 291.74 374.62 291.75 374.66 291.76 374.71 291.77 374.76 291.78 374.81 291.8 374.85 291.82 374.89 291.87 374.94 291.9 374.96 291.91 374.98 291.91 374.99 291.9 375.02 291.89 375.05 291.88 375.09 291.87 375.14 291.86 375.16 291.86 375.19 291.89 375.27 291.92 375.34 291.93 375.36 291.95 375.42 291.99 375.49 292.01 375.54 292.02 375.58 292.05 375.64 292.08 375.69 292.11 375.74 292.12 375.77 292.15 375.82 292.17 375.86 292.2 375.94 292.21 375.97 292.24 376.02 292.28 376.07 292.31 376.11 292.32 376.13 292.34 376.16 292.36 376.2 292.37 376.25 292.38 376.28 292.38 376.3 292.37 376.35 292.38 376.4 292.39 376.46 292.4 376.49 292.41 376.54 292.43 376.58 292.44 376.6 292.43 376.63 292.41 376.67 292.38 376.72 292.36 376.77 292.34 376.81 292.32 376.84 292.31 376.88 292.3 376.92 292.3 376.95 292.3 376.99 292.31 377.03 292.32 377.08 292.34 377.16 292.34 377.2 292.35 377.25 292.35 377.33 292.34 377.39 292.34 377.41 292.33 377.45 292.33 377.5 292.33 377.54 292.33 377.58 292.34 377.66 292.34 377.69 292.33 377.73 292.33 377.78 292.33 377.81 292.35 377.85 292.37 377.92 292.39 377.96 292.41 377.99 292.43 378.03 292.44 378.1 292.45 378.13 292.45 378.17 292.44 378.21 292.45 378.27 292.45 378.32 292.44 378.35 292.43 378.4 292.43 378.45 292.43 378.49 292.44 378.52 292.44 378.55 292.45 378.6 292.45 378.65 292.46 378.7 292.46 378.76 292.45 378.81 292.45 378.83 292.45 378.84 292.44 378.88 292.42 378.9 292.41 378.94 292.37 379.02 292.34 379.07 292.32 379.11 292.29 379.15 292.27 379.19 292.26 379.19 292.24 379.23 292.2 379.28 292.18 379.31 292.17 379.33 292.12 379.39 292.09 379.42 292.07 379.46 292.05 379.48 292.04 379.49 292.02 379.54 292 379.57 292 379.59 291.99 379.62 291.96 379.68 291.94 379.75 291.91 379.82 291.88 379.89 291.86 379.97 291.84 380.03 291.83 380.09 291.81 380.17 291.8 380.23 291.78 380.27 291.77 380.3 291.74 380.39 291.72 380.43 291.72 380.44 291.7 380.48 291.68 380.54 291.66 380.6 291.65 380.66 291.62 380.71 291.61 380.76 291.6 380.78 291.59 380.79 291.59 380.81 291.58 380.82 291.55 380.89 291.53 380.94 291.52 380.97 291.5 381 291.49 381.03 291.48 381.06 291.46 381.12 291.45 381.14 291.43 381.19 291.4 381.22 291.4 381.22 291.38 381.24 291.34 381.31 291.32 381.35 291.31 381.36 291.3 381.39 291.28 381.43 291.26 381.49 291.24 381.52 291.22 381.55 291.21 381.57 291.2 381.58 291.17 381.64 291.15 381.67 291.13 381.69 291.12 381.72 291.09 381.77 291.08 381.78 291.07 381.82 291.04 381.87 291.01 381.9 291 381.91 290.98 381.94 290.98 381.96 290.97 382 290.97 382.02 290.96 382.04 290.93 382.06 290.89 382.09 290.85 382.11 290.84 382.14 290.83 382.15 290.83 382.16 290.81 382.19 290.8 382.21 290.79 382.22 290.76 382.25 290.73 382.28 290.72 382.3 290.72 382.34 290.71 382.37 290.71 382.37 290.7 382.38 290.69 382.39 290.68 382.41 290.67 382.45 290.67 382.49 290.67 382.52 290.68 382.56 290.68 382.61 290.69 382.63 290.69 382.64 290.69 382.68 290.67 382.7 290.66 382.72 290.64 382.73 290.61 382.78 290.58 382.83 290.55 382.88 290.53 382.91 290.52 382.94 290.5 382.98 290.48 383.01 290.48 383.04 290.47 383.07 290.48 383.1 290.47 383.12 290.46 383.14 290.44 383.17 290.44 383.19 290.44 383.21 290.44 383.23 290.42 383.25 290.4 383.28 290.38 383.3 290.38 383.33 290.36 383.37 290.35 383.44 290.35 383.46 290.33 383.51 290.32 383.57 290.3 383.64 290.29 383.69 290.27 383.77 290.25 383.84 290.24 383.88 290.22 383.98 290.2 384.02 290.18 384.06 290.17 384.09 290.15 384.14 290.13 384.21 290.12 384.26 290.12 384.27 290.11 384.29 290.09 384.33 290.06 384.38 290.05 384.41 290.03 384.42 290 384.49 289.99 384.5 289.97 384.53 289.94 384.59 289.9 384.65 289.87 384.7 289.84 384.77 289.82 384.82 289.8 384.87 289.78 384.89 289.74 384.93 289.7 384.98 289.68 385 289.67 385.01 289.65 385.03 289.61 385.08 289.56 385.13 289.49 385.2 289.46 385.22 289.42 385.25 289.41 385.27 289.38 385.3 289.33 385.35 289.28 385.4 289.24 385.44 289.19 385.5 289.15 385.53 289.1 385.59 289.07 385.62 289.06 385.63 289.05 385.65 289.02 385.7 288.99 385.76 288.98 385.77 288.96 385.81 288.92 385.88 288.89 385.94 288.87 385.97 288.86 385.99 288.83 386.03 288.82 386.05 288.81 386.06 288.79 386.09 288.76 386.12 288.71 386.19 288.68 386.22 288.66 386.24 288.64 386.25 288.6 386.29 288.55 386.33 288.48 386.38 288.46 386.4 288.37 386.48 288.35 386.5 288.11 386.81 288.1 386.83 288.09 386.87 288.07 386.9 288.05 386.94 288.02 387 287.99 387.05 287.99 387.06 287.98 387.08 287.95 387.11 287.9 387.18 287.85 387.24 287.81 387.29 287.77 387.34 287.72 387.41 287.68 387.47 287.68 387.48 287.65 387.54 287.61 387.59 287.59 387.62 287.58 387.63 287.56 387.65 287.53 387.69 287.47 387.75 287.44 387.78 287.43 387.79 287.39 387.84 287.3 387.93 287.26 387.97 287.23 388 287.19 388.04 287.17 388.05 287.16 388.06 287.14 388.09 287.13 388.1 287.11 388.14 287.1 388.16 287.09 388.18 287.09 388.2 287.07 388.26 287.06 388.33 287.05 388.41 287.04 388.47 287.02 388.41 287 388.35 286.99 388.29 286.97 388.24 286.95 388.17 286.94 388.12 286.93 388.07 286.92 388.05 286.91 388 286.89 387.94 286.87 387.89 286.85 387.82 286.85 387.81 286.85 387.79 286.84 387.77 286.83 387.75 286.83 387.73 286.81 387.68 286.78 387.61 286.77 387.58 286.76 387.55 286.73 387.47 286.72 387.43 286.71 387.4 286.71 387.33 286.71 387.26 286.71 387.19 286.71 387.15 286.71 387.11 286.7 387.03 286.7 386.96 286.69 386.89 286.68 386.84 286.67 386.82 286.67 386.78 286.66 386.75 286.65 386.73 286.64 386.72 286.6 386.68 286.55 386.62 286.54 386.6 286.5 386.56 286.46 386.51 286.42 386.47 286.37 386.41 286.34 386.37 286.32 386.35 286.3 386.33 286.27 386.3 286.22 386.23 286.19 386.19 286.17 386.16 286.15 386.14 286.1 386.08 286.06 386.02 286.04 385.99 286.03 385.97 286.02 385.94 286 385.9 285.96 385.84 285.9 385.72 285.87 385.64 285.83 385.57 285.86 385.55 285.87 385.54 285.89 385.5 285.9 385.49 285.91 385.48 285.91 385.45 285.91 385.38 285.91 385.32 285.91 385.23 285.91 385.17 285.91 385.11 285.91 385.03 285.91 385.01 285.91 384.95 285.91 384.88 285.91 384.84 285.91 384.83 285.84 384.76 285.81 384.73 285.79 384.71 285.75 384.66 285.72 384.62 285.67 384.57 285.63 384.53 285.58 384.46 285.54 384.42 285.49 384.36 285.47 384.34 285.45 384.33 285.44 384.32 285.38 384.29 285.27 384.26 285.24 384.24 285.14 384.2 285.12 384.19 285.04 384.16 285.01 384.15 285.02 384.11 285.04 384.06 285.06 383.98 285.07 383.92 285.08 383.86 285.08 383.81 285.07 383.74 285.06 383.7 285.05 383.65 285.03 383.61 285.02 383.57 284.99 383.52 284.98 383.49 284.98 383.48 284.98 383.45 284.98 383.42 284.98 383.37 285 383.33 285.02 383.29 285.04 383.24 285.05 383.21 285.05 383.18 285.06 383.15 285.05 383.09 285.05 383.05 285.04 383.02 285.03 382.98 285.03 382.93 285.04 382.9 285.05 382.85 285.07 382.82 285.09 382.77 285.09 382.76 285.1 382.72 285.11 382.68 285.12 382.62 285.12 382.55 285.12 382.5 285.12 382.47 285.1 382.42 285.08 382.39 285.08 382.37 285.08 382.35 285.09 382.31 285.09 382.28 285.08 382.25 285.07 382.22 285.04 382.19 285.01 382.16 285 382.13 284.99 382.1 284.99 382.07 285 382.04 285.01 382 285.01 381.95 285.02 381.89 285.02 381.84 285.03 381.8 285.03 381.76 285.01 381.73 284.97 381.7 284.93 381.67 284.88 381.65 284.85 381.61 284.84 381.59 284.81 381.54 284.8 381.49 284.77 381.46 284.74 381.44 284.72 381.43 284.71 381.4 284.69 381.36 284.68 381.34 284.66 381.32 284.64 381.3 284.6 381.24 284.57 381.2 284.56 381.18 284.55 381.17 284.54 381.14 284.53 381.07 284.52 381 284.51 380.96 284.5 380.92 284.48 380.87 284.45 380.8 284.43 380.75 284.42 380.69 284.4 380.63 284.39 380.57 284.39 380.51 284.37 380.43 284.37 380.38 284.35 380.26 284.34 380.19 284.34 380.16 284.3 380.09 284.25 380.08 284.14 380.06 284.02 380.03 283.96 380.02 283.94 380.01 283.91 380 283.8 379.98 283.66 379.94 283.62 379.93 283.54 379.91 283.42 379.89 283.36 379.87 283.3 379.86 283.28 379.85 283.26 379.85 283.23 379.84 283.21 379.83 283.18 379.81 283.16 379.8 283.15 379.8 283.11 379.79 283.06 379.78 283 379.77 282.93 379.77 282.88 379.76 282.84 379.76 282.8 379.76 282.74 379.76 282.71 379.75 282.67 379.74 282.62 379.73 282.58 379.71 282.56 379.71 282.5 379.68 282.49 379.68 282.43 379.66 282.38 379.64 282.35 379.63 282.32 379.6 282.31 379.59 282.28 379.58 282.24 379.56 282.18 379.54 282.12 379.52 282.06 379.51 282.01 379.49 281.68 379.43 281.62 379.42 281.6 379.41 281.55 379.41 281.49 379.4 281.42 379.39 281.4 379.38 281.36 379.38 281.34 379.38 281.32 379.38 281.28 379.39 281.2 379.39 281.13 379.39 281.05 379.4 280.99 379.4 280.93 379.41 280.91 379.41 280.87 379.41 280.85 379.41 280.83 379.41 280.79 379.41 280.78 379.41 280.77 379.41 280.73 379.41 280.72 379.41 280.58 379.42 280.43 379.42 280.31 379.43 280.28 379.43 280.27 379.43 280.19 379.43 280.12 379.44 280.06 379.43 280.03 379.43 279.94 379.43 279.82 379.43 279.7 379.43 279.58 379.43 279.46 379.43 279.39 379.43 279.38 379.43 279.37 379.43 279.34 379.43 279.32 379.44 279.25 379.45 279.19 379.46 279.13 379.47 279.07 379.48 278.99 379.5 278.96 379.5 278.93 379.51 278.89 379.52 278.76 379.52 278.63 379.53 278.53 379.53 278.52 379.53 278.49 379.52 278.46 379.51 278.43 379.5 278.41 379.49 278.38 379.49 278.35 379.49 278.3 379.49 278.21 379.49 278.18 379.49 278.16 379.49 278.08 379.49 278.02 379.49 278.01 379.49 277.99 379.49 277.99 379.49 277.96 379.51 277.9 379.55 277.87 379.57 277.8 379.6 277.79 379.6 277.73 379.62 277.67 379.64 277.6 379.67 277.54 379.69 277.47 379.72 277.46 379.72 277.43 379.74 277.41 379.74 277.34 379.77 277.26 379.8 277.21 379.82 277.14 379.84 277.06 379.87 277.02 379.89 276.95 379.91 276.89 379.94 276.82 379.96 276.81 379.97 276.77 379.99 276.75 380 276.73 380.01 276.71 380.03 276.69 380.05 276.68 380.07 276.68 380.1 276.67 380.15 276.64 380.23 276.62 380.29 276.6 380.35 276.58 380.38 276.56 380.41 276.54 380.46 276.52 380.5 276.51 380.53 276.46 380.58 276.43 380.62 276.42 380.63 276.38 380.67 276.35 380.7 276.34 380.71 276.34 380.67 276.33 380.64 276.32 380.61 276.32 380.58 276.31 380.54 276.3 380.49 276.28 380.42 276.26 380.35 276.25 380.29 276.24 380.23 276.22 380.17 276.21 380.12 276.19 380.02 276.18 379.97 276.18 379.96 276.17 379.93 276.15 379.89 276.1 379.77 276.04 379.65 276.02 379.59 275.99 379.53 275.97 379.48 275.94 379.42 275.92 379.36 275.89 379.3 275.88 379.29 275.86 379.23 275.84 379.18 275.8 379.09 275.79 379.04 275.78 379 275.76 378.93 275.74 378.85 275.73 378.82 275.72 378.79 275.71 378.77 275.7 378.74 275.66 378.68 275.58 378.55 275.56 378.51 275.54 378.49 275.51 378.43 275.48 378.36 275.47 378.34 275.45 378.31 275.44 378.29 275.41 378.24 275.37 378.17 275.34 378.11 275.32 378.05 275.28 377.97 275.25 377.91 275.22 377.84 275.21 377.81 275.21 377.76 275.21 377.73 275.21 377.68 275.21 377.6 275.21 377.53 275.21 377.45 275.21 377.38 275.2 377.3 275.2 377.24 275.2 377.17 275.2 377.1 275.2 377.05 275.19 377.03 275.19 376.94 275.18 376.87 275.17 376.79 275.16 376.71 275.16 376.67 275.16 376.63 275.15 376.52 275.14 376.47 275.14 376.42 275.14 376.4 275.14 376.39 275.14 376.38 275.13 376.32 275.13 376.17 275.13 376.05 275.12 375.91 275.12 375.84 275.12 375.78 275.12 375.72 275.12 375.64 275.11 375.58 275.11 375.53 275.11 375.46 275.11 375.38 275.11 375.31 275.1 375.27 275.1 375.25 275.1 375.2 275.1 375.13 275.1 375.06 275.1 375 275.1 374.99 275.1 374.92 275.1 374.91 275.09 374.85 275.09 374.79 275.09 374.78 275.09 374.76 275.08 374.73 275.07 374.7 275.06 374.64 275.04 374.56 275.02 374.5 275 374.42 274.98 374.35 274.96 374.28 274.94 374.2 274.93 374.14 274.92 374.11 274.91 374.1 274.89 374.06 274.86 373.99 274.83 373.92 274.8 373.85 274.78 373.79 274.75 373.73 274.72 373.66 274.7 373.63 274.69 373.6 274.67 373.57 274.66 373.53 274.64 373.5 274.63 373.47 274.63 373.46 274.61 373.41 274.59 373.38 274.56 373.33 274.54 373.31 274.52 373.28 274.49 373.23 274.45 373.18 274.42 373.11 274.41 373.06 274.4 372.99 274.39 372.95 274.39 372.93 274.38 372.91 274.36 372.87 274.34 372.83 274.32 372.81 274.31 372.78 274.28 372.76 274.26 372.74 274.23 372.74 274.2 372.72 274.18 372.7 274.14 372.65 274.12 372.62 274.09 372.58 274.08 372.55 274.06 372.52 274.04 372.49 274 372.44 273.97 372.38 273.95 372.33 273.93 372.28 273.92 372.25 273.92 372.21 273.91 372.18 273.9 372.15 273.88 372.11 273.86 372.08 273.85 372.06 273.85 372.04 273.82 371.96 273.81 371.92 273.81 371.9 273.8 371.87 273.79 371.83 273.78 371.79 273.75 371.71 273.74 371.65 273.72 371.58 273.68 371.44 273.67 371.38 273.65 371.31 273.62 371.22 273.62 371.21 273.62 371.2 273.63 371.13 273.63 371.08 273.64 371.06 273.64 371.01 273.65 370.96 273.65 370.92 273.65 370.87 273.66 370.8 273.67 370.68 273.68 370.57 273.66 370.4 273.71 370.29 273.71 370.28 273.73 370.16 273.74 370.03 273.75 369.9 273.76 369.83 273.77 369.75 273.77 369.68 273.78 369.63 273.78 369.57 273.79 369.51 273.8 369.43 273.8 369.36 273.81 369.3 273.82 369.23 273.83 369.16 273.83 369.08 273.84 368.97 273.88 368.98 273.92 369 273.99 369.02 274.05 369.04 274.1 369.05 274.16 369.07 274.23 369.09 274.28 369.1 274.34 369.12 274.41 369.14 274.44 369.15 274.48 369.16 274.52 369.17 274.54 369.18 274.57 369.19 274.6 369.21 274.63 369.23 274.65 369.23 274.7 369.24 274.76 369.26 274.83 369.27 274.88 369.29 274.94 369.31 275 369.33 275.06 369.35 275.12 369.37 275.18 369.39 275.24 369.42 275.3 369.44 275.35 369.47 275.38 369.48 275.41 369.49 275.47 369.5 275.54 369.52 275.6 369.52 275.66 369.53 275.72 369.54 275.78 369.54 275.84 369.55 275.88 369.56 275.95 369.58 276 369.59 276.06 369.61 276.11 369.62 276.16 369.64 276.2 369.66 276.25 369.68 276.28 369.7 276.32 369.72 276.37 369.75 276.39 369.76 276.42 369.79 276.47 369.82 276.5 369.85 276.53 369.87 276.56 369.9 276.59 369.91 276.62 369.93 276.68 369.95 276.74 369.97 276.79 369.99 276.85 370.01 276.92 370.04 277.04 370.08 277.09 370.1 277.15 370.12 277.2 370.15 277.26 370.17 277.31 370.2 277.37 370.22 277.43 370.23 277.49 370.25 277.55 370.26 277.6 370.28 277.67 370.29 277.73 370.31 277.79 370.32 277.86 370.34 277.87 370.34 277.92 370.28 277.97 370.25 278.02 370.2 278.06 370.16 278.11 370.12 278.16 370.07 278.19 370.04 278.2 370.03 278.25 369.99 278.3 369.94 278.35 369.89 278.4 369.85 278.45 369.8 278.51 369.76 278.56 369.71 278.65 369.62 278.74 369.54 278.84 369.45 278.89 369.41 278.93 369.36 278.98 369.32 279.04 369.27 279.08 369.23 279.13 369.19 279.18 369.15 279.22 369.1 279.23 369.09 279.25 369.07 279.26 369.06 279.28 369.06 Z"/>
</g></svg>