<svg xmlns="http://www.w3.org/2000/svg" version="1.2" baseProfile="tiny" stroke-linecap="round" stroke-linejoin="round" viewBox="421.25 191.8 42.4 51.67"><g xmlns="http://www.w3.org/2000/svg" id="Larraun">
<path d="M 435.36 194.7 435.51 194.75 435.53 194.76 435.72 194.82 435.73 194.82 435.92 194.88 436.04 194.92 436.1 194.93 436.2 194.96 436.25 194.98 436.36 195.01 436.41 195.03 436.49 195.05 436.51 195.06 436.54 195.07 436.65 195.06 436.68 195.06 436.73 195.06 436.87 195.05 436.91 195.05 437.02 195.05 437.09 195.05 437.17 195.05 437.19 195.05 437.23 195.06 437.3 195.07 437.32 195.07 437.38 195.08 437.44 195.1 437.47 195.11 437.54 195.14 437.58 195.15 437.66 195.17 437.69 195.18 437.77 195.22 437.78 195.22 437.84 195.25 437.87 195.27 437.9 195.29 437.98 195.33 438.01 195.34 438.11 195.39 438.2 195.45 438.21 195.46 438.3 195.5 438.35 195.53 438.4 195.56 438.42 195.57 438.51 195.61 438.6 195.65 438.67 195.69 438.73 195.72 438.79 195.75 438.86 195.79 438.91 195.82 438.98 195.87 439.04 195.91 439.06 195.94 439.08 195.95 439.09 195.96 439.09 195.97 439.26 196.14 439.43 196.32 439.44 196.33 439.45 196.34 439.59 196.48 439.63 196.52 439.77 196.63 439.78 196.65 439.83 196.69 440.02 196.85 440.03 196.85 440.04 196.87 440.51 197.33 440.7 197.4 440.95 197.49 440.98 197.5 441.13 197.56 441.25 197.6 441.39 197.65 441.7 197.77 441.73 197.78 441.81 197.8 442.08 197.85 442.12 197.85 442.14 197.86 442.24 197.87 442.45 197.89 442.47 197.89 442.76 197.93 443.12 197.97 443.31 197.99 443.66 197.99 443.78 197.97 443.81 197.97 444.03 197.95 444.45 197.91 444.81 197.88 444.9 197.87 445.07 197.86 445.11 197.84 445.33 197.76 445.5 197.68 445.6 197.65 445.61 197.65 445.75 197.59 445.81 197.57 445.92 197.52 446.06 197.47 446.07 197.46 446.1 197.45 446.17 197.43 446.21 197.41 446.29 197.38 446.37 197.35 446.51 197.29 446.56 197.28 446.64 197.25 446.72 197.22 446.77 197.2 446.8 197.18 446.9 197.14 446.93 197.13 447.06 197.08 447.27 197 447.54 196.92 447.6 196.91 447.71 196.88 447.8 196.86 447.91 196.83 448.06 196.78 448.22 196.73 448.39 196.68 448.44 196.66 448.55 196.62 448.71 196.57 448.79 196.54 448.94 196.47 448.97 196.46 449.06 196.42 449.3 196.3 449.53 196.2 449.6 196.16 449.62 196.16 449.66 196.14 449.68 196.13 450.1 195.93 450.12 195.92 450.15 195.9 450.16 195.89 450.17 195.87 450.18 195.86 450.21 195.84 450.36 195.78 450.43 195.76 450.44 195.78 450.45 195.8 450.49 195.86 450.53 195.94 450.55 195.99 450.55 196.02 450.56 196.05 450.54 196.2 450.53 196.36 450.53 196.4 450.53 196.41 450.53 196.42 450.53 196.43 450.55 196.46 450.67 196.59 450.77 196.7 450.93 196.88 450.95 196.89 451.05 197.01 451.14 197.12 451.16 197.13 451.23 197.18 451.32 197.24 451.45 197.34 451.67 197.49 451.74 197.54 451.76 197.56 451.85 197.63 451.94 197.69 452.1 197.79 452.12 197.8 452.31 197.94 452.62 198.17 452.88 198.36 452.94 198.4 452.95 198.41 453.02 198.5 453.1 198.6 453.11 198.61 453.12 198.62 453.27 198.81 453.28 198.86 453.29 198.96 453.3 198.97 453.3 199.03 453.29 199.05 453.24 199.11 453.19 199.18 453.15 199.24 453.11 199.29 453.06 199.36 453.01 199.43 452.99 199.46 452.98 199.5 452.96 199.55 452.93 199.64 452.89 199.74 452.85 199.86 452.8 200.01 452.79 200.03 452.78 200.05 452.76 200.11 452.72 200.2 452.7 200.27 452.65 200.38 452.63 200.44 452.6 200.48 452.57 200.54 452.53 200.64 452.46 200.79 452.42 200.87 452.4 200.9 452.35 200.99 452.3 201.07 452.18 201.21 452.03 201.49 451.98 201.55 451.93 201.62 451.88 201.69 451.84 201.74 451.79 201.8 451.75 201.85 451.71 201.9 451.79 201.97 451.81 201.99 451.82 202 451.9 202.07 452 202.17 452.2 202.35 452.46 202.57 452.63 202.71 452.82 202.87 453.08 202.93 453.24 202.97 453.46 203.03 453.78 203.11 454 203.17 454.15 203.2 454.38 203.27 454.44 203.28 454.62 203.42 454.7 203.48 454.96 203.67 455.09 203.76 455.29 203.56 455.42 203.43 455.67 203.51 455.88 203.58 456.06 203.63 456.23 203.69 456.24 203.69 456.27 203.7 456.33 203.73 456.43 203.79 456.6 203.9 456.72 203.97 456.92 204.09 457.11 204.19 457.15 204.2 457.38 204.29 457.6 204.37 457.75 204.42 457.81 204.45 457.89 204.48 457.93 204.49 458 204.56 458.24 204.77 458.35 204.88 458.46 204.97 458.47 204.98 458.52 205.04 458.59 205.11 458.69 205.22 458.75 205.29 458.85 205.4 458.95 205.5 459.04 205.61 459.08 205.66 459.1 205.68 459.14 205.74 459.17 205.81 459.2 205.87 459.27 206 459.33 206.12 459.37 206.19 459.39 206.23 459.4 206.25 459.43 206.28 459.58 206.41 459.77 206.57 459.86 206.64 459.94 206.71 459.98 206.75 459.96 206.91 459.94 207.04 459.94 207.07 459.93 207.09 459.63 207.41 459.5 207.55 459.48 207.57 459.47 207.6 459.44 207.78 459.44 207.82 459.46 207.98 459.48 208.14 459.49 208.2 459.49 208.23 459.5 208.31 459.51 208.4 459.52 208.44 459.52 208.46 459.53 208.47 459.56 208.52 459.61 208.61 459.65 208.67 459.67 208.7 459.73 208.81 459.8 208.91 459.81 208.92 459.82 208.95 459.85 208.99 459.9 209.05 460.03 209.24 460.05 209.27 460.07 209.29 460.09 209.31 460.11 209.35 460.15 209.41 460.2 209.62 460.26 209.9 460.34 210.24 460.35 210.25 460.59 210.36 460.89 210.5 461.25 210.51 461.58 210.51 461.82 210.52 461.96 210.65 462.01 210.69 462.07 210.74 462.18 210.84 462.22 210.88 462.25 210.9 462.27 210.92 462.28 210.93 462.29 210.94 462.32 210.95 462.37 210.97 462.41 210.98 462.51 211.02 462.65 211.08 462.77 211.13 462.89 211.18 463.03 211.24 463.17 211.3 463.19 211.31 463.2 211.31 463.25 211.34 463.31 211.34 463.6 211.37 463.64 211.38 463.65 211.38 463.65 211.4 463.65 211.41 463.65 211.44 463.65 211.6 463.65 211.72 463.65 211.78 463.65 211.79 463.65 211.87 463.65 211.9 463.65 212.13 463.65 212.15 463.64 212.16 463.63 212.2 463.62 212.26 463.61 212.3 463.6 212.34 463.58 212.42 463.57 212.44 463.53 212.57 463.5 212.65 463.48 212.73 463.44 212.8 463.4 212.9 463.38 212.94 463.36 212.98 463.34 213.01 463.27 213.11 463.23 213.18 463.21 213.23 463.19 213.27 463.19 213.3 463.2 213.35 463.22 213.43 463.22 213.5 463.21 213.53 463.2 213.57 463.18 213.62 463.17 213.64 463.16 213.65 463.15 213.66 463.12 213.7 463.1 213.73 463.05 213.81 463.04 213.85 463.03 213.88 463.03 213.89 463.02 213.94 463.02 213.95 463.01 213.98 463.03 214.04 463.06 214.12 463.06 214.15 463.06 214.2 463.05 214.25 463.03 214.3 463 214.34 462.98 214.37 462.96 214.41 462.94 214.45 462.92 214.49 462.9 214.52 462.85 214.56 462.79 214.6 462.74 214.63 462.68 214.67 462.63 214.69 462.57 214.72 462.52 214.74 462.5 214.75 462.48 214.77 462.42 214.81 462.41 214.82 462.36 214.85 462.3 214.89 462.24 214.92 462.18 214.95 462.16 214.95 462.13 214.97 462.1 214.99 462.08 215.01 462.06 215.02 462.04 215.05 462 215.09 461.97 215.14 461.95 215.17 461.94 215.21 461.92 215.26 461.9 215.31 461.89 215.36 461.87 215.38 461.87 215.4 461.86 215.41 461.84 215.46 461.83 215.48 461.8 215.52 461.78 215.55 461.76 215.57 461.68 215.66 461.63 215.72 461.62 215.73 461.57 215.79 461.5 215.87 461.42 215.95 461.39 215.99 461.35 216.05 461.33 216.09 461.3 216.15 461.29 216.17 461.28 216.19 461.27 216.23 461.26 216.27 461.26 216.3 461.26 216.35 461.26 216.41 461.25 216.43 461.24 216.47 461.23 216.48 461.21 216.54 461.18 216.61 461.16 216.67 461.13 216.75 461.12 216.79 461.11 216.81 461.1 216.82 461.09 216.85 461.08 216.86 461.06 216.89 461.02 216.91 460.98 216.93 460.94 216.95 460.88 216.97 460.83 216.99 460.78 217 460.73 217.02 460.68 217.04 460.63 217.06 460.6 217.07 460.57 217.08 460.56 217.1 460.54 217.13 460.53 217.14 460.52 217.15 460.51 217.2 460.49 217.24 460.49 217.26 460.48 217.29 460.48 217.33 460.47 217.37 460.47 217.41 460.48 217.45 460.48 217.5 460.48 217.53 460.47 217.57 460.47 217.58 460.46 217.62 460.45 217.65 460.44 217.66 460.42 217.7 460.41 217.72 460.41 217.74 460.4 217.75 460.39 217.77 460.38 217.8 460.37 217.83 460.36 217.86 460.36 217.89 460.36 217.93 460.37 217.94 460.37 217.97 460.38 218 460.4 218.04 460.43 218.08 460.46 218.12 460.48 218.16 460.5 218.18 460.51 218.21 460.5 218.24 460.48 218.27 460.46 218.32 460.44 218.35 460.42 218.39 460.42 218.42 460.42 218.43 460.43 218.48 460.45 218.51 460.46 218.54 460.46 218.58 460.46 218.61 460.47 218.63 460.46 218.65 460.47 218.69 460.48 218.72 460.48 218.74 460.49 218.77 460.5 218.81 460.5 218.83 460.51 218.85 460.51 218.89 460.51 218.92 460.51 218.96 460.51 219.01 460.51 219.04 460.52 219.09 460.53 219.11 460.54 219.13 460.55 219.16 460.56 219.19 460.57 219.22 460.59 219.23 460.6 219.24 460.63 219.26 460.66 219.29 460.69 219.32 460.71 219.35 460.72 219.38 460.73 219.4 460.74 219.4 460.75 219.39 460.76 219.37 460.76 219.34 460.77 219.31 460.78 219.31 460.79 219.31 460.81 219.33 460.8 219.35 460.8 219.37 460.79 219.38 460.79 219.39 460.79 219.41 460.79 219.44 460.78 219.47 460.79 219.51 460.79 219.54 460.8 219.58 460.8 219.61 460.79 219.64 460.78 219.66 460.77 219.67 460.76 219.68 460.74 219.69 460.71 219.69 460.7 219.7 460.68 219.71 460.67 219.74 460.67 219.77 460.67 219.79 460.66 219.82 460.67 219.84 460.69 219.85 460.71 219.88 460.72 219.89 460.72 219.91 460.73 219.93 460.74 219.95 460.77 219.96 460.79 219.97 460.82 219.98 460.85 219.99 460.89 220 460.92 220.01 460.94 220.04 460.96 220.07 460.96 220.08 460.96 220.09 460.96 220.11 460.95 220.13 460.94 220.15 460.92 220.17 460.92 220.2 460.92 220.21 460.93 220.23 460.96 220.24 460.97 220.24 460.98 220.27 461 220.3 461.01 220.33 461.01 220.36 461 220.41 461 220.46 460.99 220.51 460.99 220.55 460.99 220.59 460.99 220.64 460.98 220.67 460.97 220.72 460.97 220.74 460.97 220.76 460.96 220.77 460.96 220.81 460.94 220.85 460.92 220.88 460.89 220.93 460.86 220.97 460.84 221.01 460.81 221.06 460.78 221.11 460.76 221.14 460.71 221.21 460.69 221.24 460.66 221.27 460.64 221.3 460.61 221.32 460.59 221.34 460.58 221.36 460.57 221.37 460.57 221.39 460.57 221.41 460.58 221.43 460.59 221.44 460.6 221.46 460.62 221.47 460.63 221.48 460.66 221.48 460.7 221.49 460.73 221.49 460.76 221.5 460.82 221.53 460.9 221.55 460.98 221.59 461.03 221.62 461.01 221.62 461 221.63 460.98 221.64 460.93 221.69 460.9 221.71 460.87 221.73 460.83 221.74 460.79 221.77 460.76 221.8 460.74 221.82 460.76 221.83 460.78 221.86 460.82 221.91 460.88 221.98 460.93 222.06 460.97 222.12 460.98 222.16 461.01 222.21 461.01 222.24 461.02 222.28 461.03 222.32 461.02 222.36 461.01 222.38 461 222.41 460.98 222.43 460.87 222.53 460.83 222.57 460.79 222.6 460.75 222.63 460.68 222.65 460.65 222.65 460.62 222.66 460.58 222.67 460.55 222.68 460.51 222.69 460.47 222.69 460.44 222.69 460.4 222.68 460.37 222.69 460.32 222.69 460.29 222.7 460.25 222.7 460.23 222.71 460.19 222.73 460.17 222.74 460.14 222.76 460.12 222.78 460.1 222.81 460.08 222.83 460.07 222.85 460.07 222.87 460.04 222.89 460.02 222.91 459.98 222.93 459.95 222.94 459.91 222.96 459.86 222.96 459.81 222.96 459.78 222.97 459.73 222.99 459.7 223.01 459.68 223.02 459.66 223.05 459.62 223.1 459.59 223.14 459.57 223.17 459.55 223.2 459.53 223.25 459.52 223.29 459.51 223.32 459.51 223.35 459.51 223.38 459.51 223.43 459.51 223.47 459.51 223.51 459.51 223.57 459.49 223.62 459.49 223.69 459.48 223.73 459.47 223.75 459.47 223.76 459.46 223.78 459.46 223.79 459.45 223.83 459.43 223.87 459.42 223.9 459.39 223.96 459.37 223.99 459.36 224.01 459.36 224.04 459.37 224.07 459.39 224.11 459.41 224.14 459.44 224.17 459.47 224.19 459.51 224.21 459.55 224.22 459.58 224.22 459.62 224.22 459.66 224.21 459.69 224.2 459.73 224.19 459.8 224.16 459.84 224.16 459.88 224.16 459.92 224.17 459.95 224.18 459.98 224.2 460.01 224.22 460.03 224.26 460.05 224.29 460.06 224.32 460.05 224.35 460.04 224.38 460.01 224.41 459.99 224.45 459.96 224.47 459.92 224.5 459.89 224.52 459.85 224.53 459.81 224.55 459.78 224.58 459.75 224.6 459.72 224.62 459.71 224.64 459.7 224.67 459.69 224.69 459.7 224.71 459.71 224.74 459.73 224.76 459.75 224.78 459.77 224.8 459.81 224.82 459.85 224.84 459.9 224.85 459.94 224.87 459.99 224.88 460.03 224.88 460.07 224.89 460.11 224.9 460.14 224.92 460.16 224.94 460.2 224.98 460.32 225.11 460.39 225.19 460.39 225.24 460.39 225.32 460.39 225.4 460.39 225.48 460.38 225.52 460.38 225.55 460.38 225.58 460.4 225.62 460.4 225.65 460.42 225.68 460.44 225.7 460.48 225.72 460.55 225.75 460.61 225.78 460.65 225.8 460.69 225.82 460.71 225.83 460.73 225.86 460.74 225.88 460.75 225.91 460.76 225.96 460.77 226 460.79 226.06 460.79 226.08 460.79 226.11 460.79 226.14 460.79 226.17 460.79 226.21 460.78 226.24 460.78 226.27 460.77 226.29 460.76 226.31 460.74 226.34 460.7 226.36 460.66 226.38 460.62 226.41 460.58 226.43 460.55 226.41 460.53 226.4 460.49 226.41 460.46 226.42 460.44 226.43 460.42 226.45 460.39 226.46 460.38 226.49 460.38 226.52 460.39 226.54 460.39 226.57 460.39 226.6 460.38 226.62 460.39 226.64 460.4 226.66 460.42 226.68 460.44 226.68 460.46 226.67 460.45 226.7 460.45 226.73 460.45 226.76 460.45 226.79 460.46 226.82 460.47 226.84 460.48 226.86 460.5 226.89 460.51 226.92 460.51 226.95 460.51 226.97 460.5 226.98 460.49 227.01 460.48 227.03 460.47 227.06 460.46 227.08 460.45 227.1 460.45 227.15 460.45 227.19 460.44 227.21 460.44 227.24 460.45 227.27 460.46 227.29 460.48 227.32 460.51 227.38 460.53 227.43 460.56 227.46 460.57 227.5 460.58 227.53 460.59 227.54 460.59 227.55 460.58 227.58 460.57 227.61 460.57 227.64 460.57 227.67 460.57 227.7 460.58 227.73 460.59 227.76 460.6 227.8 460.61 227.85 460.62 227.88 460.63 227.91 460.64 227.93 460.64 227.95 460.65 227.97 460.64 228 460.64 228.02 460.61 228.04 460.59 228.05 460.55 228.07 460.51 228.07 460.47 228.08 460.43 228.08 460.39 228.08 460.39 228.09 460.37 228.09 460.33 228.1 460.3 228.11 460.27 228.12 460.24 228.14 460.21 228.14 460.17 228.13 460.15 228.12 460.13 228.11 460.1 228.1 460.06 228.1 460.05 228.11 460.05 228.14 460.05 228.15 460.06 228.2 460.07 228.23 460.07 228.26 460.07 228.27 460.07 228.28 460.04 228.31 460 228.33 459.94 228.36 459.9 228.37 459.87 228.37 459.82 228.37 459.78 228.38 459.73 228.4 459.69 228.42 459.67 228.43 459.66 228.45 459.65 228.49 459.64 228.52 459.63 228.55 459.61 228.56 459.61 228.56 459.58 228.56 459.55 228.57 459.53 228.59 459.47 228.64 459.46 228.65 459.4 228.7 459.26 228.83 459.16 228.91 459.07 228.98 459 229.05 458.96 229.09 458.84 229.18 458.79 229.23 458.69 229.32 458.62 229.37 458.47 229.5 458.3 229.65 458.16 229.78 458.04 229.88 457.98 229.93 457.9 229.99 457.82 229.96 457.75 229.92 457.66 229.88 457.57 229.84 457.46 229.81 457.41 229.78 457.37 229.76 457.34 229.75 457.32 229.74 457.27 229.71 457.17 229.67 457.08 229.62 456.97 229.57 456.87 229.51 456.72 229.44 456.58 229.37 456.48 229.32 456.37 229.27 456.28 229.22 456.22 229.21 456.22 229.32 456.22 229.4 456.22 229.44 456.22 229.48 456.21 229.51 456.2 229.56 456.19 229.61 456.19 229.65 456.18 229.7 456.17 229.73 456.17 229.77 456.17 229.83 456.17 229.9 456.18 230.06 456.19 230.11 456.19 230.17 456.2 230.23 456.2 230.29 456.2 230.34 456.21 230.39 456.21 230.46 456.22 230.52 456.22 230.54 456.22 230.56 456.22 230.57 456.2 230.64 456.17 230.75 456.14 230.85 456.11 230.93 456.09 231.02 456.06 231.11 456.04 231.19 456.01 231.27 456 231.34 455.97 231.41 455.96 231.45 455.96 231.48 455.94 231.56 455.93 231.61 455.92 231.67 455.9 231.73 455.89 231.78 455.88 231.84 455.87 231.88 455.86 231.94 455.85 231.97 455.85 231.99 455.84 232.03 455.84 232.05 455.84 232.09 455.84 232.17 455.84 232.24 455.84 232.31 455.84 232.37 455.84 232.42 455.84 232.53 455.85 232.6 455.85 232.67 455.86 232.74 455.86 232.8 455.86 232.85 455.86 232.93 455.87 232.99 455.87 233.04 455.88 233.14 455.9 233.21 455.92 233.31 455.94 233.45 455.96 233.54 455.99 233.66 456.01 233.75 456.03 233.81 456.03 233.86 456.04 233.89 456.05 233.95 456.05 234.01 456.06 234.07 456.06 234.12 456.07 234.18 456.07 234.22 456.08 234.29 456.08 234.34 456.09 234.36 456.09 234.43 456.1 234.49 456.11 234.56 456.12 234.62 456.12 234.71 456.13 234.77 456.13 234.81 456.14 234.86 456.16 234.92 456.18 235 456.19 235.06 456.2 235.15 456.22 235.21 456.23 235.28 456.25 235.35 456.27 235.44 456.28 235.52 456.3 235.61 456.32 235.7 456.34 235.77 456.34 235.81 456.35 235.83 456.36 235.92 456.37 235.94 456.37 235.95 456.37 235.97 456.38 235.99 456.39 236 456.41 236.02 456.43 236.04 456.45 236.07 456.49 236.12 456.51 236.15 456.55 236.19 456.59 236.24 456.63 236.29 456.66 236.33 456.69 236.37 456.73 236.41 456.76 236.45 456.79 236.49 456.81 236.51 456.82 236.52 456.82 236.52 456.86 236.57 456.88 236.6 456.91 236.63 456.94 236.66 456.95 236.67 456.96 236.68 456.99 236.7 457.02 236.74 457.06 236.76 457.1 236.79 457.13 236.82 457.17 236.85 457.19 236.86 457.22 236.89 457.26 236.91 457.28 236.93 457.3 236.94 457.32 236.96 457.34 236.98 457.38 237.03 457.4 237.06 457.43 237.1 457.46 237.13 457.49 237.16 457.52 237.21 457.56 237.28 457.62 237.37 457.7 237.48 457.78 237.6 457.85 237.71 457.9 237.79 457.98 237.9 458.06 238.02 458.13 238.12 458.22 238.25 458.28 238.35 458.33 238.42 458.37 238.48 458.39 238.51 458.4 238.52 458.42 238.53 458.46 238.56 458.5 238.59 458.54 238.62 458.59 238.66 458.63 238.69 458.65 238.71 458.68 238.73 458.74 238.77 458.8 238.81 458.82 238.83 458.85 238.86 458.89 238.89 458.9 238.89 458.95 238.93 459 238.97 459.06 239.03 459.11 239.08 459.18 239.15 459.19 239.16 459.21 239.2 459.23 239.22 459.26 239.25 459.28 239.29 459.32 239.33 459.33 239.35 459.34 239.36 459.4 239.43 459.47 239.52 459.54 239.6 459.6 239.69 459.65 239.75 459.66 239.76 459.73 239.84 459.8 239.93 459.86 240 459.89 240.04 459.92 240.08 459.99 240.15 460.05 240.22 460.09 240.27 460.12 240.31 460.12 240.34 460.1 240.37 460.09 240.39 460.05 240.45 460.02 240.49 459.99 240.54 459.95 240.6 459.91 240.67 459.87 240.72 459.81 240.82 459.75 240.91 459.72 240.97 459.7 240.99 459.69 240.99 459.68 240.98 459.66 240.97 459.63 240.96 459.61 240.95 459.59 240.94 459.57 240.93 459.55 240.92 459.53 240.91 459.5 240.9 459.48 240.89 459.45 240.88 459.4 240.87 459.34 240.85 459.27 240.84 459.2 240.82 459.13 240.8 459.05 240.79 458.98 240.77 458.95 240.86 458.92 240.96 458.89 241.06 458.86 241.13 458.86 241.18 458.85 241.25 458.83 241.31 458.83 241.37 458.82 241.39 458.82 241.43 458.81 241.49 458.79 241.58 458.78 241.63 458.78 241.67 458.74 241.69 458.65 241.74 458.62 241.76 458.59 241.77 458.57 241.79 458.52 241.81 458.49 241.83 458.46 241.85 458.42 241.87 458.39 241.89 458.36 241.9 458.31 241.95 458.27 241.99 458.22 242.03 458.19 242.05 458.14 242.1 458.11 242.12 458.06 242.17 458.03 242.19 457.98 242.24 457.92 242.29 457.84 242.36 457.77 242.42 457.68 242.44 457.63 242.45 457.62 242.45 457.58 242.47 457.53 242.48 457.49 242.49 457.45 242.5 457.4 242.51 457.35 242.52 457.33 242.53 457.29 242.54 457.27 242.54 457.23 242.55 457.19 242.56 457.15 242.57 457.09 242.59 457.05 242.6 457.02 242.6 456.97 242.61 456.93 242.63 456.87 242.64 456.83 242.65 456.77 242.67 456.72 242.69 456.65 242.71 456.58 242.74 456.51 242.76 456.43 242.78 456.39 242.8 456.37 242.81 456.29 242.83 456.23 242.85 456.16 242.87 456.08 242.9 456 242.93 455.97 242.94 455.94 242.95 455.93 242.95 455.88 242.97 455.84 242.98 455.77 243 455.75 243.01 455.7 243.01 455.63 243.02 455.58 243.03 455.52 243.03 455.47 243.04 455.43 243.04 455.4 243.04 455.37 243.05 455.32 243.06 455.26 243.08 455.19 243.1 455.14 243.11 455.06 243.13 455.01 243.14 454.95 243.15 454.88 243.17 454.82 243.18 454.76 243.19 454.69 243.21 454.61 243.22 454.54 243.24 454.49 243.25 454.42 243.26 454.37 243.27 454.34 243.28 454.32 243.28 454.31 243.29 454.27 243.29 454.22 243.3 454.21 243.3 454.14 243.3 454.05 243.31 453.98 243.32 453.89 243.32 453.85 243.33 453.78 243.33 453.7 243.33 453.62 243.34 453.54 243.34 453.45 243.35 453.38 243.35 453.33 243.36 453.3 243.36 453.22 243.37 453.15 243.37 453.11 243.38 453.04 243.39 452.96 243.39 452.9 243.4 452.84 243.41 452.76 243.41 452.7 243.42 452.64 243.43 452.59 243.43 452.53 243.44 452.48 243.44 452.44 243.44 452.4 243.45 452.35 243.44 452.26 243.42 452.16 243.4 452.05 243.39 451.95 243.38 451.86 243.36 451.78 243.35 451.72 243.34 451.69 243.34 451.67 243.34 451.63 243.33 451.58 243.33 451.55 243.32 451.47 243.3 451.37 243.28 450.97 243.18 450.96 243.18 450.82 243.16 450.76 243.15 450.69 243.14 450.65 243.13 450.6 243.12 450.54 243.1 450.46 243.09 450.38 243.07 450.35 243.06 450.28 243.05 450.23 243.04 450.2 243.03 450.12 243.01 450.04 242.99 449.97 242.98 449.9 242.96 449.82 242.95 449.76 242.93 449.7 242.92 449.63 242.9 449.58 242.89 449.51 242.88 449.46 242.87 449.38 242.85 449.31 242.83 449.24 242.81 449.17 242.79 449.11 242.77 449.04 242.76 448.94 242.73 448.87 242.71 448.77 242.69 448.69 242.67 448.62 242.65 448.55 242.63 448.49 242.61 448.36 242.58 448.25 242.55 448.21 242.54 448.17 242.53 448.12 242.51 448.08 242.51 448.05 242.51 448.02 242.51 447.99 242.5 447.92 242.5 447.84 242.5 447.78 242.5 447.72 242.5 447.64 242.5 447.52 242.5 447.39 242.49 447.24 242.49 447.1 242.48 446.97 242.48 446.92 242.48 446.88 242.48 446.8 242.48 446.75 242.47 446.66 242.47 446.62 242.47 446.59 242.47 446.54 242.47 446.47 242.47 446.46 242.46 446.37 242.46 446.27 242.45 446.2 242.45 446.19 242.45 446.09 242.45 446.04 242.43 445.97 242.42 445.89 242.4 445.83 242.39 445.79 242.38 445.72 242.37 445.69 242.37 445.67 242.36 445.61 242.35 445.56 242.34 445.45 242.31 445.42 242.31 445.32 242.29 445.17 242.26 445.06 242.23 444.95 242.21 444.82 242.18 444.74 242.16 444.67 242.15 444.58 242.13 444.52 242.12 444.45 242.1 444.36 242.08 444.38 241.96 444.38 241.95 444.42 241.78 444.43 241.75 444.44 241.71 444.45 241.68 444.45 241.64 444.47 241.58 444.48 241.54 444.48 241.51 444.49 241.48 444.5 241.44 444.51 241.37 444.52 241.3 444.53 241.29 444.53 241.25 444.54 241.2 444.55 241.15 444.55 241.13 444.56 241.1 444.56 241.08 444.57 241.06 444.57 241.03 444.58 241.01 444.59 240.94 444.6 240.87 444.6 240.86 444.61 240.84 444.61 240.82 444.61 240.79 444.62 240.75 444.62 240.73 444.62 240.72 444.62 240.7 444.63 240.68 444.63 240.66 444.63 240.65 444.64 240.63 444.64 240.61 444.65 240.6 444.65 240.58 444.66 240.57 444.67 240.56 444.69 240.54 444.7 240.54 444.72 240.53 444.73 240.52 444.74 240.51 444.76 240.49 444.77 240.48 444.78 240.47 444.79 240.45 444.8 240.44 444.8 240.43 444.81 240.41 444.81 240.4 444.82 240.38 444.82 240.36 444.82 240.33 444.82 240.31 444.83 240.29 444.83 240.27 444.84 240.25 444.84 240.24 444.85 240.22 444.85 240.2 444.86 240.18 444.86 240.17 444.86 240.16 444.86 240.14 444.87 240.12 444.87 240.1 444.87 240.09 444.87 240.05 444.87 240.03 444.87 240.02 444.87 240.01 444.88 239.99 444.88 239.96 444.88 239.94 444.88 239.92 444.89 239.9 444.89 239.89 444.89 239.87 444.9 239.85 444.9 239.83 444.91 239.82 444.92 239.8 444.92 239.78 444.93 239.77 444.95 239.72 444.96 239.7 444.97 239.68 444.97 239.67 444.98 239.65 444.99 239.64 445 239.62 445 239.61 445.01 239.59 445.02 239.58 445.04 239.55 445.05 239.53 445.06 239.52 445.07 239.5 445.08 239.49 445.09 239.47 445.1 239.46 445.12 239.45 445.13 239.44 444.96 239.37 444.95 239.37 444.93 239.36 444.91 239.36 444.89 239.35 444.88 239.35 444.86 239.34 444.85 239.33 444.83 239.33 444.81 239.32 444.81 239.32 444.79 239.31 444.77 239.31 444.76 239.3 444.74 239.29 444.73 239.28 444.71 239.28 444.69 239.27 444.68 239.26 444.66 239.25 444.65 239.24 444.63 239.23 444.62 239.23 444.6 239.22 444.58 239.21 444.56 239.21 444.55 239.2 444.53 239.19 444.51 239.19 444.5 239.18 444.48 239.17 444.46 239.17 444.43 239.15 444.4 239.14 444.38 239.14 444.36 239.13 444.35 239.13 444.33 239.12 444.31 239.11 444.3 239.11 444.26 239.09 444.23 239.08 444.2 239.07 444.19 239.07 443.97 238.99 443.88 238.95 443.86 238.94 443.81 238.93 443.78 238.91 443.74 238.9 443.73 238.9 443.69 238.88 443.66 238.87 443.64 238.86 443.6 238.85 443.53 238.82 443.52 238.82 443.5 238.81 443.48 238.81 443.47 238.8 443.44 238.79 443.42 238.78 443.41 238.78 443.39 238.77 443.36 238.76 443.35 238.76 443.36 238.72 443.37 238.7 443.38 238.69 443.4 238.68 443.41 238.66 443.42 238.65 443.43 238.63 443.44 238.62 443.45 238.6 443.46 238.58 443.47 238.57 443.48 238.55 443.49 238.54 443.5 238.52 443.5 238.51 443.51 238.49 443.52 238.48 443.53 238.47 443.54 238.45 443.54 238.43 443.55 238.42 443.56 238.4 443.56 238.39 443.56 238.37 443.57 238.36 443.59 238.34 443.61 238.33 443.62 238.32 443.64 238.31 443.65 238.3 443.66 238.28 443.67 238.27 443.68 238.26 443.69 238.24 443.71 238.21 443.72 238.2 443.73 238.19 443.74 238.17 443.75 238.16 443.76 238.15 443.78 238.12 443.79 238.1 443.8 238.09 443.81 238.07 443.82 238.06 443.83 238.04 443.85 238.03 443.86 238.02 443.87 238.01 443.88 237.99 443.91 237.97 443.93 237.94 443.95 237.93 443.96 237.92 443.99 237.88 444.08 237.79 444.11 237.76 444.16 237.71 444.17 237.7 444.18 237.68 444.19 237.67 444.21 237.66 444.22 237.65 444.24 237.64 444.24 237.63 444.26 237.62 444.27 237.6 444.28 237.59 444.29 237.58 444.3 237.56 444.31 237.55 444.32 237.54 444.33 237.52 444.34 237.51 444.35 237.49 444.37 237.48 444.37 237.47 444.39 237.46 444.4 237.44 444.42 237.42 444.44 237.39 444.48 237.35 444.49 237.34 444.5 237.33 444.53 237.3 444.55 237.28 444.59 237.24 444.61 237.21 444.64 237.19 444.65 237.18 444.66 237.16 444.67 237.15 444.69 237.14 444.7 237.12 444.71 237.11 444 236.77 443.99 236.76 443.97 236.75 443.96 236.75 443.94 236.74 443.93 236.73 443.89 236.71 443.86 236.7 443.84 236.69 443.83 236.68 443.81 236.67 443.79 236.67 443.78 236.66 443.76 236.65 443.73 236.64 443.71 236.63 443.7 236.63 443.68 236.62 443.66 236.61 443.64 236.6 443.63 236.59 443.61 236.59 443.6 236.58 443.58 236.57 443.57 236.56 443.55 236.55 443.53 236.55 443.52 236.54 443.51 236.53 443.49 236.53 443.48 236.52 443.44 236.51 443.43 236.5 443.41 236.49 443.39 236.49 443.39 236.48 443.37 236.47 443.36 236.46 443.33 236.45 443.31 236.44 443.3 236.43 443.28 236.42 443.26 236.42 443.24 236.42 443.23 236.41 443.21 236.41 443.19 236.4 443.18 236.4 443.16 236.39 443.15 236.39 443.13 236.38 443.12 236.37 443.1 236.37 443.07 236.35 443.05 236.35 443.02 236.33 442.99 236.32 442.97 236.31 442.94 236.3 442.89 236.28 442.86 236.26 442.82 236.25 442.79 236.24 442.76 236.22 442.73 236.21 442.71 236.2 442.68 236.19 442.66 236.18 442.63 236.17 442.6 236.15 442.56 236.14 442.55 236.13 442.53 236.12 442.52 236.12 442.5 236.11 442.48 236.1 442.47 236.09 442.45 236.09 442.44 236.08 442.42 236.07 442.41 236.06 442.39 236.05 442.38 236.04 442.36 236.04 442.35 236.03 442.33 236.02 442.32 236.01 442.3 236 442.29 235.99 442.27 235.98 442.26 235.97 442.23 235.96 442.22 235.95 442.2 235.94 442.19 235.93 442.17 235.92 442.16 235.91 442.14 235.9 442.13 235.89 442.11 235.89 442.1 235.87 442.08 235.87 442.07 235.86 442.06 235.84 442.03 235.83 442.02 235.82 442.01 235.81 441.99 235.8 441.98 235.79 441.96 235.78 441.95 235.77 441.94 235.76 441.92 235.74 441.91 235.73 441.9 235.72 441.88 235.71 441.87 235.7 441.86 235.69 441.84 235.67 441.82 235.66 441.81 235.65 441.8 235.63 441.79 235.62 441.78 235.61 441.77 235.6 441.76 235.59 441.74 235.58 441.73 235.57 441.72 235.56 441.7 235.54 441.69 235.53 441.68 235.52 441.66 235.51 441.65 235.5 441.64 235.49 441.62 235.48 441.61 235.47 441.59 235.46 441.58 235.45 441.56 235.44 441.55 235.43 441.53 235.42 441.48 235.38 441.46 235.37 441.43 235.35 441.41 235.33 441.38 235.31 441.34 235.28 441.29 235.25 441.27 235.23 441.25 235.22 441.24 235.21 441.22 235.2 441.19 235.18 441.18 235.17 441.17 235.16 441.15 235.15 441.14 235.14 441.12 235.13 441.1 235.12 441.09 235.11 441.07 235.1 441.06 235.09 441.05 235.08 441.03 235.07 441.01 235.06 441 235.05 440.98 235.05 440.97 235.04 440.95 235.03 440.94 235.02 440.92 235.01 440.91 235 440.89 235 440.88 234.99 440.86 234.98 440.84 234.97 440.81 234.96 440.8 234.95 440.78 234.94 440.76 234.94 440.75 234.93 440.73 234.92 440.72 234.91 440.7 234.9 440.69 234.89 440.67 234.88 440.66 234.87 440.65 234.87 440.63 234.85 440.62 234.85 440.61 234.84 440.59 234.83 440.58 234.82 440.55 234.8 440.54 234.79 440.52 234.78 440.51 234.77 440.5 234.77 440.49 234.75 440.47 234.75 440.46 234.74 440.44 234.73 440.41 234.71 440.38 234.69 440.37 234.68 440.34 234.66 440.32 234.65 440.29 234.63 440.27 234.62 440.26 234.62 440.24 234.61 440.23 234.6 440.21 234.59 440.2 234.58 440.18 234.57 440.17 234.56 440.15 234.55 440.14 234.54 440.12 234.54 440.1 234.53 440.09 234.52 440.07 234.51 440.06 234.5 440.04 234.5 440.03 234.49 440 234.47 439.98 234.47 439.97 234.46 439.95 234.45 439.94 234.44 439.9 234.43 439.89 234.42 439.86 234.41 439.82 234.39 439.82 234.39 439.79 234.38 439.78 234.37 439.73 234.35 439.7 234.33 439.64 234.3 439.57 234.28 439.54 234.26 439.53 234.25 439.48 234.23 439.46 234.22 439.43 234.21 439.41 234.2 439.4 234.19 439.39 234.19 439.37 234.18 439.36 234.17 439.34 234.17 439.32 234.16 439.27 234.14 439.26 234.13 439.24 234.13 439.23 234.12 439.21 234.11 439.18 234.1 439.15 234.09 439.14 234.08 439.1 234.06 439.09 234.06 439.04 234.03 439.03 234.03 439.01 234.02 438.99 234.01 438.98 234 438.96 234 438.95 233.99 438.93 233.98 438.92 233.98 438.88 233.96 438.87 233.96 438.85 233.95 438.83 233.94 438.82 233.93 438.8 233.93 438.79 233.92 438.78 233.91 438.76 233.9 438.75 233.9 438.73 233.89 438.7 233.87 438.69 233.86 438.67 233.85 438.66 233.84 438.64 233.84 438.63 233.83 438.61 233.82 438.6 233.81 438.58 233.81 438.56 233.8 438.55 233.79 438.53 233.78 438.5 233.77 438.48 233.77 438.46 233.76 438.45 233.75 438.43 233.74 438.4 233.73 438.38 233.72 438.37 233.71 438.35 233.71 438.33 233.7 438.32 233.69 438.28 233.68 438.27 233.67 438.25 233.66 438.23 233.66 438.22 233.65 438.2 233.64 438.19 233.64 438.18 233.64 438.16 233.63 438.14 233.63 438.13 233.62 438.11 233.62 438.07 233.61 438.06 233.61 438.04 233.6 438.02 233.6 437.98 233.59 437.95 233.58 437.93 233.58 437.92 233.57 437.8 233.59 437.74 233.59 437.69 233.58 437.6 233.56 437.49 233.52 437.42 233.49 437.32 233.45 437.24 233.43 437.14 233.4 437.07 233.38 436.99 233.37 436.93 233.36 436.21 233.31 435.92 233.29 435.87 233.27 435.82 233.26 435.76 233.25 435.7 233.23 435.63 233.21 435.54 233.18 435.44 233.15 435.37 233.14 435.28 233.12 435.21 233.11 435.11 233.11 435.03 233.1 434.93 233.1 434.85 233.09 434.76 233.08 434.67 233.08 434.56 233.06 434.47 233.05 434.35 233.03 434.23 233.03 434.15 233.02 434.07 233.01 433.99 232.99 433.92 232.99 433.85 232.98 433.79 232.97 433.73 232.97 433.65 232.97 433.58 232.96 433.52 232.95 433.44 232.94 433.36 232.93 433.26 232.91 433.19 232.89 433.09 232.87 433 232.85 432.91 232.83 432.82 232.81 432.77 232.81 432.7 232.8 432.63 232.79 432.57 232.78 432.5 232.77 432.45 232.76 432.44 232.76 432.43 232.76 432.35 232.74 432.29 232.73 432.22 232.73 432.15 232.73 432.08 232.73 432 232.73 431.91 232.73 431.8 232.74 431.69 232.74 431.61 232.74 431.51 232.74 431.44 232.74 431.37 232.75 431.29 232.75 431.2 232.75 431.13 232.75 431.07 232.75 431.01 232.75 430.94 232.76 430.86 232.76 430.8 232.77 430.69 232.72 430.6 232.72 430.48 232.71 430.35 232.7 430.25 232.69 430.17 232.68 430.07 232.68 430 232.67 429.92 232.67 429.86 232.67 429.8 232.67 429.76 232.67 429.7 232.67 429.6 232.66 429.51 232.65 429.48 232.64 429.44 232.65 429.38 232.65 429.28 232.64 429.19 232.64 429.09 232.64 428.99 232.63 428.88 232.64 428.77 232.64 428.69 232.64 428.61 232.63 428.55 232.63 428.49 232.64 428.43 232.64 428.32 232.63 428.2 232.62 428.1 232.61 428.03 232.61 427.97 232.61 427.89 232.6 427.8 232.58 427.68 232.55 427.56 232.53 427.43 232.49 427.31 232.45 427.23 232.43 427.17 232.45 427.11 232.48 427.04 232.49 426.97 232.52 426.88 232.55 426.84 232.57 426.74 232.6 426.69 232.62 426.63 232.68 426.56 232.78 426.5 232.85 426.45 232.92 426.41 232.97 426.35 233.03 426.32 233.08 426.25 232.78 426.15 232.38 426.06 232.05 426.04 231.98 426.01 231.89 425.98 231.8 425.94 231.71 425.87 231.55 425.84 231.45 425.76 231.13 425.74 231.02 425.72 230.92 425.7 230.83 425.7 230.72 425.69 230.59 425.69 230.52 425.7 230.46 425.7 230.41 425.7 230.35 425.7 230.32 425.69 230.27 425.68 230.24 425.67 230.19 425.59 229.99 425.42 229.54 425.28 229.22 425.21 229.06 425.19 229.02 425.17 228.96 425.08 228.77 425 228.54 424.98 228.5 424.96 228.45 424.9 228.28 424.86 228.17 424.76 227.87 424.62 227.49 424.61 227.47 424.59 227.46 424.57 227.45 424.54 227.44 424.53 227.44 424.49 227.41 424.47 227.4 424.44 227.37 424.43 227.35 424.41 227.32 424.4 227.29 424.37 227.24 424.35 227.21 424.33 227.17 424.21 226.96 424.12 226.82 424 226.63 423.86 226.38 423.82 226.31 423.81 226.29 423.77 226.23 423.63 225.95 423.56 225.86 423.47 225.74 423.46 225.73 423.4 225.66 423.39 225.64 423.33 225.56 423.29 225.52 423.25 225.47 423.22 225.43 423.17 225.38 423.11 225.31 423.06 225.26 423.01 225.2 422.95 225.11 422.92 225.07 422.9 225.03 422.87 224.98 422.84 224.93 422.82 224.88 422.81 224.83 422.79 224.77 422.78 224.74 422.76 224.68 422.74 224.59 422.72 224.51 422.71 224.44 422.69 224.38 422.69 224.36 422.67 224.3 422.64 224.19 422.59 224.08 422.57 224 422.55 223.95 422.54 223.9 422.52 223.83 422.5 223.75 422.47 223.67 422.45 223.58 422.43 223.49 422.4 223.41 422.38 223.32 422.37 223.25 422.37 223.17 422.37 223.12 422.37 223.05 422.38 223.01 422.39 222.98 422.4 222.95 422.4 222.94 422.36 222.86 422.32 222.83 422.27 222.79 422.21 222.69 422.18 222.64 422.13 222.58 422.09 222.53 422.07 222.51 422.05 222.49 422.01 222.46 421.95 222.44 421.83 222.39 421.56 222.27 421.52 222.26 421.26 222.17 421.57 221.79 421.78 221.55 421.88 221.44 421.96 221.34 422 221.3 422.02 221.26 422.1 221.12 422.21 220.89 422.31 220.69 422.42 220.47 422.46 220.39 422.53 220.26 422.59 220.14 422.61 220.12 422.66 220.07 422.74 219.99 422.93 219.8 423.05 219.68 423.08 219.65 423.08 219.63 423.09 219.6 423.11 219.53 423.16 219.31 423.21 219.12 423.22 219.11 423.28 218.89 423.34 218.66 423.34 218.65 423.4 218.5 423.43 218.43 423.47 218.34 423.57 218.08 423.63 217.96 423.64 217.93 423.68 217.86 423.69 217.85 423.7 217.82 423.75 217.74 423.81 217.62 424.14 217.01 424.26 216.65 424.3 216.52 424.36 216.39 424.41 216.26 424.47 216.08 424.5 216 424.54 215.85 424.55 215.83 424.65 215.5 424.67 215.44 424.67 215.44 424.7 215.36 424.75 215.27 424.83 215.13 424.91 215 425.1 214.67 425.12 214.63 425.14 214.59 425.25 214.38 425.26 214.35 425.33 214.21 425.34 214.2 425.57 213.72 425.83 213.17 425.86 213.11 425.87 213.08 425.92 212.98 425.95 212.91 426.09 212.61 426.1 212.6 426.14 212.51 426.21 212.4 426.36 212.15 426.47 211.98 426.49 211.91 426.54 211.81 426.58 211.69 426.61 211.61 426.64 211.56 426.6 211.29 426.46 210.49 426.45 210.44 426.4 210.44 426.34 210.44 426.3 210.43 426.25 210.41 426.21 210.37 426.18 210.32 426.11 210.2 426.05 210.12 426 210.07 425.94 210.03 425.86 209.98 425.71 209.89 425.6 209.79 425.47 209.69 425.46 209.68 425.44 209.67 425.39 209.63 425.35 209.6 425.3 209.59 425.23 209.59 425.1 209.61 425.09 209.61 424.99 209.62 425 209.56 425 209.54 425 209.52 425.01 209.43 425.03 209.24 425.08 208.91 425.12 208.52 425.14 208.21 425.16 208.05 425.18 207.83 425.2 207.59 425.22 207.46 425.22 207.45 425.22 207.43 425.21 207.42 425.21 207.3 425.22 207.16 425.22 207.01 425.22 206.99 425.22 206.98 425.22 206.92 425.25 206.85 425.28 206.76 425.31 206.62 425.32 206.6 425.34 206.53 425.4 206.39 425.48 206.24 425.51 206.17 425.56 206.08 425.64 205.93 425.74 205.78 425.89 205.47 425.93 205.38 425.99 205.25 426.04 205.13 426.1 205 426.14 204.89 426.17 204.82 426.2 204.75 426.25 204.68 426.34 204.54 426.41 204.43 426.47 204.33 426.52 204.28 426.47 204.28 426.4 204.28 426.21 204.28 426.08 204.29 425.99 204.29 425.92 204.28 425.85 204.26 425.76 204.24 425.63 204.22 425.51 204.18 425.38 204.15 425.3 204.14 425.26 204.13 425.24 204.11 425.19 204.09 425.16 204.09 425.13 204.08 425.11 204.08 425.1 204.08 425.11 204.05 425.12 204.03 425.16 203.97 425.21 203.86 425.27 203.74 425.31 203.67 425.32 203.66 425.34 203.61 425.36 203.56 425.36 203.54 425.39 203.45 425.43 203.33 425.47 203.2 425.51 203.09 425.54 203 425.54 202.92 425.55 202.8 425.55 202.69 425.55 202.68 425.55 202.64 425.55 202.51 425.55 202.4 425.55 202.3 425.55 202.27 425.56 202.19 425.55 202.14 425.56 202.08 425.56 202.06 425.56 201.96 425.56 201.94 425.56 201.92 425.56 201.82 425.57 201.73 425.58 201.62 425.55 201.57 425.49 201.49 425.42 201.41 425.36 201.32 425.31 201.26 425.31 201.26 425.3 201.25 425.28 201.21 425.25 201.16 425.19 201.09 425.18 201.08 425.15 201.03 425.1 200.96 425.09 200.94 425.28 200.75 425.37 200.65 425.46 200.54 425.54 200.44 425.55 200.37 425.57 200.24 425.58 200.14 425.64 200.05 425.66 200.02 425.69 199.95 425.7 199.92 425.73 199.81 425.75 199.75 425.77 199.63 425.82 199.43 425.82 199.36 425.88 199.28 425.97 199.14 426 199.11 426.08 198.98 426.18 198.85 426.27 198.71 426.33 198.55 426.4 198.36 426.46 198.2 426.43 198.04 426.41 197.92 426.4 197.83 426.39 197.81 426.38 197.77 426.35 197.6 426.32 197.38 426.29 197.21 426.3 197.1 426.31 196.93 426.31 196.89 426.32 196.83 426.33 196.72 426.33 196.69 426.34 196.56 426.35 196.45 426.36 196.33 426.36 196.27 426.37 196.21 426.38 196.14 426.38 196.13 426.38 196.12 426.32 195.79 426.23 195.27 426.13 194.97 425.93 194.75 425.58 194.38 425.31 194.1 425.27 194.07 425.1 193.88 424.97 193.75 424.87 193.64 424.69 193.53 424.54 193.44 424 193.12 423.92 192.77 423.92 192.28 423.95 191.86 423.99 191.86 424.01 191.86 424.09 191.86 424.25 191.85 424.29 191.85 424.32 191.85 424.43 191.84 424.49 191.84 424.56 191.84 424.59 191.83 424.63 191.83 424.68 191.82 424.69 191.82 424.76 191.81 424.78 191.8 424.8 191.8 424.96 191.8 425.08 191.8 425.15 191.81 425.19 191.81 425.21 191.81 425.24 191.82 425.27 191.82 425.36 191.84 425.38 191.85 425.41 191.85 425.47 191.87 425.52 191.89 425.61 191.91 425.64 191.92 425.65 191.92 425.79 191.96 425.95 192.03 425.99 192.04 426.02 192.05 426.03 192.05 426.06 192.07 426.12 192.11 426.23 192.17 426.29 192.2 426.35 192.24 426.43 192.29 426.49 192.32 426.53 192.34 426.62 192.38 426.68 192.4 426.76 192.43 426.82 192.45 426.91 192.47 426.96 192.47 426.98 192.47 426.99 192.47 427 192.47 427.07 192.47 427.08 192.47 427.11 192.46 427.19 192.46 427.2 192.45 427.3 192.45 427.35 192.44 427.41 192.43 427.47 192.42 427.55 192.4 427.65 192.39 427.67 192.39 427.74 192.38 427.87 192.36 427.88 192.36 428.05 192.34 428.11 192.33 428.15 192.33 428.17 192.32 428.4 192.31 428.84 192.28 428.91 192.28 428.93 192.28 429.07 192.27 429.17 192.26 429.35 192.25 429.51 192.25 430.08 192.24 430.1 192.24 430.12 192.25 430.54 192.36 430.56 192.36 430.61 192.38 431.33 192.57 431.74 192.77 432.68 193.34 432.81 193.44 432.82 193.44 433.05 193.6 433.12 193.65 433.24 193.7 433.4 193.78 433.49 193.84 433.57 193.88 433.67 193.94 433.81 194.01 433.85 194.03 433.89 194.05 433.96 194.08 434.09 194.14 434.22 194.19 434.32 194.23 434.36 194.25 434.41 194.28 434.48 194.31 434.59 194.36 434.65 194.39 434.71 194.42 434.77 194.45 434.85 194.49 434.91 194.53 434.94 194.54 434.95 194.55 435.04 194.58 435.08 194.59 435.15 194.62 435.24 194.66 435.29 194.68 435.36 194.7 Z M 436.88 213.06 436.84 213.04 436.8 213.02 436.76 213 436.73 212.99 436.7 212.98 436.66 212.97 436.64 212.97 436.62 212.98 436.54 213.01 436.47 213.04 436.38 213.09 436.35 213.12 436.33 213.14 436.32 213.16 436.3 213.19 436.29 213.22 436.29 213.25 436.29 213.29 436.29 213.33 436.28 213.37 436.27 213.41 436.26 213.45 436.25 213.49 436.25 213.52 436.25 213.54 436.26 213.57 436.27 213.62 436.27 213.65 436.28 213.67 436.27 213.7 436.27 213.73 436.28 213.76 436.28 213.79 436.29 213.83 436.29 213.86 436.28 213.89 436.28 213.91 436.28 213.94 436.28 213.96 436.29 213.98 436.3 214.01 436.31 214.1 436.31 214.15 436.32 214.18 436.33 214.22 436.35 214.25 436.37 214.28 436.38 214.32 436.39 214.35 436.39 214.39 436.39 214.42 436.38 214.46 436.38 214.49 436.39 214.52 436.39 214.55 436.4 214.59 436.41 214.62 436.42 214.65 436.43 214.67 436.45 214.72 436.48 214.75 436.51 214.8 436.54 214.84 436.55 214.88 436.57 214.9 436.58 214.92 436.6 214.94 436.61 214.95 436.63 214.95 436.64 214.96 436.67 214.98 436.69 215 436.7 215.02 436.7 215.04 436.71 215.07 436.72 215.09 436.73 215.1 436.75 215.12 436.8 215.18 436.82 215.21 436.82 215.23 436.82 215.25 436.82 215.27 436.82 215.29 436.81 215.3 436.81 215.33 436.82 215.35 436.83 215.38 436.85 215.4 436.89 215.47 436.9 215.51 436.91 215.56 436.93 215.61 436.94 215.66 436.95 215.71 436.96 215.75 436.97 215.78 436.96 215.83 436.97 215.84 436.98 215.85 436.99 215.86 437.01 215.87 437.03 215.87 437.11 215.9 437.14 215.92 437.17 215.94 437.2 215.97 437.23 216.01 437.27 216.05 437.31 216.09 437.35 216.13 437.37 216.15 437.39 216.18 437.41 216.21 437.43 216.24 437.46 216.27 437.49 216.29 437.52 216.3 437.55 216.31 437.61 216.33 437.62 216.34 437.63 216.35 437.63 216.36 437.62 216.37 437.62 216.38 437.63 216.4 437.65 216.42 437.67 216.44 437.7 216.47 437.72 216.49 437.74 216.51 437.76 216.53 437.79 216.53 437.79 216.52 437.8 216.49 437.81 216.47 437.84 216.45 437.86 216.45 437.88 216.47 437.89 216.51 437.9 216.55 437.92 216.56 437.94 216.56 437.96 216.57 437.98 216.6 438.01 216.64 438.08 216.67 438.14 216.71 438.16 216.71 438.18 216.72 438.22 216.75 438.25 216.78 438.25 216.78 438.27 216.81 438.25 216.85 438.24 216.88 438.24 216.91 438.28 216.94 438.3 216.96 438.31 216.96 438.33 216.94 438.34 216.91 438.35 216.87 438.37 216.86 438.39 216.86 438.4 216.87 438.41 216.9 438.42 216.92 438.43 216.94 438.46 216.95 438.48 216.97 438.5 217 438.52 217.01 438.54 217 438.56 216.98 438.57 216.98 438.59 216.98 438.6 217.02 438.6 217.06 438.62 217.08 438.65 217.08 438.67 217.07 438.69 217.07 438.7 217.08 438.72 217.09 438.72 217.1 438.72 217.12 438.73 217.14 438.73 217.15 438.74 217.19 438.74 217.2 438.79 217.17 438.82 217.15 438.85 217.16 438.89 217.16 438.92 217.15 438.96 217.13 439 217.08 439.03 217.03 439.08 216.99 439.13 216.94 439.15 216.92 439.17 216.91 439.21 216.88 439.24 216.87 439.26 216.87 439.27 216.87 439.3 216.88 439.34 216.87 439.36 216.86 439.37 216.84 439.36 216.81 439.34 216.8 439.33 216.79 439.33 216.78 439.33 216.76 439.34 216.75 439.35 216.74 439.37 216.74 439.39 216.74 439.4 216.75 439.42 216.75 439.44 216.74 439.45 216.73 439.45 216.71 439.44 216.69 439.42 216.69 439.4 216.67 439.38 216.65 439.38 216.62 439.39 216.58 439.4 216.55 439.41 216.53 439.43 216.52 439.44 216.52 439.46 216.52 439.49 216.53 439.51 216.56 439.52 216.57 439.55 216.58 439.57 216.58 439.59 216.58 439.61 216.58 439.61 216.57 439.61 216.55 439.6 216.53 439.6 216.52 439.61 216.5 439.62 216.48 439.63 216.48 439.64 216.47 439.65 216.48 439.66 216.49 439.69 216.56 439.71 216.59 439.75 216.61 439.77 216.6 439.79 216.59 439.81 216.58 439.85 216.55 439.87 216.55 439.88 216.54 439.9 216.53 439.92 216.52 439.93 216.52 439.95 216.53 439.97 216.56 439.96 216.59 439.96 216.62 439.97 216.63 439.99 216.65 440.01 216.66 440.02 216.66 440.04 216.67 440.05 216.67 440.05 216.66 440.06 216.64 440.06 216.62 440.07 216.61 440.08 216.59 440.09 216.59 440.11 216.58 440.19 216.61 440.23 216.62 440.24 216.63 440.26 216.65 440.28 216.67 440.31 216.68 440.34 216.69 440.38 216.69 440.41 216.71 440.43 216.72 440.44 216.73 440.45 216.74 440.45 216.75 440.46 216.76 440.47 216.78 440.47 216.79 440.48 216.8 440.51 216.81 440.53 216.8 440.54 216.79 440.55 216.79 440.57 216.8 440.58 216.81 440.59 216.82 440.61 216.87 440.61 216.89 440.61 216.91 440.61 216.93 440.59 216.94 440.57 216.95 440.55 216.97 440.54 216.98 440.53 216.99 440.53 217 440.55 217.02 440.58 217.02 440.6 217.02 440.62 217.02 440.64 217.01 440.66 216.99 440.66 216.97 440.67 216.95 440.68 216.92 440.69 216.9 440.7 216.88 440.71 216.86 440.72 216.86 440.73 216.85 440.76 216.84 440.78 216.84 440.81 216.86 440.85 216.87 440.88 216.89 440.89 216.91 440.9 216.92 440.89 216.94 440.88 216.95 440.86 216.96 440.84 216.97 440.83 216.98 440.83 217 440.83 217.02 440.84 217.03 440.85 217.04 440.87 217.05 440.89 217.05 440.91 217.05 440.93 217.04 440.95 217.03 440.97 217.01 441 217.01 441.02 217.01 441.04 217.01 441.06 217.01 441.07 217.03 441.08 217.04 441.09 217.04 441.11 217.04 441.12 217.03 441.13 217.01 441.14 217.01 441.17 216.96 441.19 216.95 441.21 216.94 441.23 216.93 441.25 216.93 441.27 216.94 441.29 216.95 441.3 216.96 441.31 216.98 441.31 216.99 441.31 217.01 441.3 217.03 441.29 217.04 441.29 217.06 441.3 217.07 441.32 217.07 441.34 217.08 441.45 217.08 441.47 217.08 441.52 217.09 441.56 217.1 441.6 217.11 441.65 217.14 441.69 217.16 441.72 217.19 441.74 217.2 441.76 217.21 441.77 217.21 441.8 217.22 441.87 217.24 441.9 217.25 441.96 217.27 441.97 217.27 442 217.28 442.05 217.29 442.07 217.29 442.1 217.29 442.14 217.28 442.18 217.27 442.23 217.25 442.28 217.23 442.33 217.21 442.36 217.19 442.43 217.12 442.45 217.09 442.47 217.07 442.49 217.06 442.52 217.05 442.53 217.05 442.54 217.06 442.56 217.07 442.57 217.09 442.59 217.09 442.61 217.09 442.62 217.09 442.63 217.09 442.64 217.09 442.66 217.1 442.67 217.12 442.68 217.13 442.67 217.15 442.67 217.17 442.68 217.18 442.7 217.2 442.71 217.23 442.71 217.27 442.69 217.31 442.66 217.33 442.64 217.37 442.63 217.4 442.63 217.41 442.68 217.39 442.73 217.38 442.79 217.38 442.84 217.36 442.87 217.35 442.9 217.35 442.94 217.35 442.97 217.38 442.99 217.46 443 217.5 443.01 217.52 443.04 217.54 443.06 217.55 443.09 217.55 443.11 217.54 443.13 217.51 443.13 217.49 443.14 217.46 443.15 217.45 443.17 217.44 443.18 217.43 443.19 217.43 443.21 217.44 443.23 217.45 443.24 217.48 443.26 217.52 443.28 217.56 443.3 217.6 443.32 217.6 443.35 217.61 443.42 217.6 443.49 217.61 443.57 217.64 443.64 217.66 443.71 217.69 443.77 217.71 443.84 217.73 443.92 217.76 443.99 217.8 444.06 217.82 444.12 217.85 444.17 217.86 444.19 217.86 444.21 217.86 444.24 217.85 444.27 217.85 444.31 217.85 444.34 217.85 444.38 217.86 444.42 217.87 444.46 217.89 444.49 217.9 444.52 217.92 444.55 217.95 444.56 217.98 444.58 218.02 444.59 218.04 444.6 218.06 444.61 218.07 444.62 218.07 444.64 218.06 444.69 218.05 444.73 218.04 444.76 218.03 444.78 218.03 444.79 218.04 444.8 218.04 444.81 218.05 444.82 218.06 444.82 218.08 444.82 218.11 444.82 218.14 444.83 218.17 444.84 218.19 444.86 218.2 444.87 218.22 444.88 218.25 444.88 218.27 444.89 218.29 444.9 218.3 444.91 218.3 444.92 218.3 444.93 218.31 444.94 218.33 444.95 218.36 444.95 218.37 444.95 218.38 444.96 218.38 444.97 218.38 444.99 218.38 445 218.39 445 218.39 445.04 218.42 445.07 218.44 445.09 218.44 445.11 218.45 445.12 218.46 445.13 218.46 445.13 218.47 445.14 218.48 445.14 218.5 445.13 218.52 445.13 218.53 445.13 218.56 445.14 218.59 445.16 218.61 445.17 218.62 445.18 218.62 445.19 218.64 445.19 218.66 445.19 218.68 445.19 218.7 445.19 218.73 445.19 218.75 445.22 218.78 445.26 218.79 445.31 218.81 445.34 218.81 445.36 218.81 445.38 218.82 445.41 218.83 445.43 218.85 445.44 218.85 445.45 218.86 445.46 218.87 445.47 218.88 445.48 218.89 445.49 218.89 445.5 218.88 445.5 218.88 445.51 218.87 445.53 218.86 445.54 218.85 445.55 218.85 445.56 218.85 445.56 218.87 445.56 218.89 445.56 218.91 445.56 218.93 445.56 218.94 445.57 218.95 445.58 218.96 445.6 218.97 445.62 218.97 445.65 218.98 445.67 218.98 445.69 218.98 445.71 218.98 445.72 218.99 445.75 218.99 445.82 219.01 445.86 219 445.9 219 445.92 218.98 445.93 218.97 445.94 218.95 445.96 218.93 445.97 218.91 445.97 218.89 445.97 218.86 445.96 218.86 445.94 218.86 445.92 218.88 445.9 218.89 445.89 218.88 445.88 218.87 445.88 218.85 445.88 218.83 445.89 218.81 445.9 218.78 445.9 218.76 445.9 218.73 445.89 218.7 445.88 218.68 445.87 218.65 445.86 218.63 445.86 218.61 445.86 218.55 445.87 218.49 445.88 218.42 445.88 218.4 445.92 218.38 446.16 218.27 446.21 218.24 446.22 218.22 446.22 218.19 446.23 218.16 446.24 218.13 446.25 218.08 446.27 218.04 446.31 218.01 446.35 218 446.38 218 446.39 217.99 446.47 217.99 446.48 217.99 446.54 218 446.57 217.99 446.61 217.98 446.66 217.97 446.67 217.98 446.68 217.98 446.86 217.77 446.89 217.75 446.9 217.75 446.91 217.74 446.95 217.73 446.96 217.72 447.03 217.69 447.07 217.67 447.12 217.64 447.18 217.61 447.2 217.6 447.23 217.6 447.24 217.6 447.3 217.58 447.41 217.55 447.46 217.54 447.49 217.54 447.52 217.55 447.54 217.55 447.55 217.55 447.56 217.55 447.58 217.55 447.59 217.56 447.69 217.58 447.71 217.59 447.73 217.59 447.76 217.57 447.79 217.56 447.83 217.55 447.85 217.54 447.87 217.55 447.89 217.56 447.92 217.57 447.96 217.57 447.98 217.57 447.99 217.57 448.02 217.55 448.05 217.54 448.07 217.52 448.12 217.47 448.13 217.44 448.14 217.41 448.13 217.39 448.13 217.37 448.13 217.35 448.14 217.33 448.15 217.33 448.17 217.32 448.18 217.33 448.18 217.34 448.19 217.35 448.2 217.36 448.21 217.36 448.22 217.35 448.23 217.33 448.23 217.3 448.24 217.26 448.25 217.25 448.26 217.24 448.27 217.22 448.3 217.21 448.32 217.19 448.34 217.17 448.37 217.15 448.39 217.14 448.41 217.14 448.42 217.13 448.44 217.13 448.45 217.14 448.47 217.15 448.49 217.16 448.48 217.06 448.48 217.01 448.48 216.95 448.34 216.81 448.21 216.67 448.19 216.6 448.18 216.57 448.18 216.53 448.17 216.49 448.16 216.43 448.15 216.35 448.14 216.28 448.13 216.19 448.13 216.1 448.14 216.02 448.14 216.01 448.14 215.98 448.14 215.97 448.14 215.94 448.14 215.89 448.15 215.81 448.15 215.79 448.15 215.77 448.15 215.75 448.14 215.71 448.14 215.31 447.84 214.79 447.83 214.78 447.79 214.7 447.74 214.63 447.7 214.6 447.35 214.39 447.02 214.23 447 214.22 446.92 214.18 446.91 214.18 446.89 214.17 446.84 214.14 446.83 214.14 446.82 214.14 446.48 213.97 446.48 213.97 446.45 213.96 446.41 213.95 446.17 213.8 446.15 213.79 446.07 213.74 446.06 213.73 446.05 213.73 446.01 213.7 445.97 213.67 445.94 213.63 445.92 213.62 445.92 213.58 445.93 213.53 445.92 213.46 445.92 213.43 445.91 213.38 445.9 213.34 445.89 213.32 445.88 213.31 445.87 213.3 445.85 213.29 445.83 213.28 445.82 213.27 445.81 213.25 445.8 213.21 445.8 213.18 445.79 213.11 445.79 213.07 445.79 213.03 445.79 212.98 445.79 212.95 445.79 212.9 445.79 212.85 445.79 212.8 445.79 212.76 445.79 212.71 445.79 212.66 445.79 212.6 445.81 212.52 445.81 212.46 445.82 212.37 445.82 212.23 445.82 212.19 445.82 212.16 445.82 212.13 445.83 212.09 445.84 212.06 445.85 212.03 445.86 211.99 445.88 211.96 445.89 211.93 445.9 211.88 445.91 211.85 445.93 211.8 445.95 211.75 445.97 211.72 445.99 211.69 446.01 211.66 446.04 211.64 446.06 211.62 446.09 211.6 446.14 211.53 446.2 211.45 446.23 211.41 446.26 211.38 446.28 211.34 446.29 211.31 446.31 211.26 446.33 211.2 446.35 211.15 446.37 211.1 446.4 211.04 446.42 210.99 446.45 210.96 446.47 210.92 446.49 210.9 446.51 210.87 446.56 210.83 446.62 210.77 446.64 210.74 446.66 210.71 446.68 210.68 446.7 210.66 446.71 210.63 446.72 210.59 446.73 210.54 446.74 210.5 446.74 210.46 446.74 210.41 446.74 210.35 446.74 210.3 446.73 210.24 446.72 210.18 446.7 210.12 446.68 210.03 446.67 209.94 446.66 209.89 446.65 209.84 446.65 209.81 446.66 209.75 446.67 209.71 446.69 209.65 446.7 209.6 446.72 209.55 446.76 209.42 446.79 209.35 446.8 209.32 446.82 209.28 446.84 209.25 446.88 209.22 446.92 209.19 446.98 209.15 447 209.13 447.02 209.11 447.03 209.09 447.03 209.07 447.03 209.06 447.02 209.03 446.99 209.01 446.95 208.96 446.89 208.9 446.84 208.84 446.77 208.77 446.74 208.72 446.71 208.67 446.68 208.64 446.66 208.61 446.63 208.56 446.6 208.52 446.58 208.48 446.55 208.44 446.52 208.39 446.5 208.34 446.48 208.3 446.46 208.25 446.44 208.2 446.42 208.14 446.4 208.06 446.37 207.99 446.37 207.98 446.61 206.78 446.12 206.02 446.02 206.07 446.01 206.08 445.52 206.33 445.22 206.55 444.68 206.96 444.11 207.62 443.49 208.46 443.03 209.03 442.78 209.14 442.75 209.16 442.68 209.19 442.5 209.28 442.48 209.29 442.46 209.3 442.43 209.32 442.41 209.32 442.4 209.33 442.39 209.33 442.34 209.36 442.23 209.41 442.09 209.48 441.99 209.53 441.85 209.6 441.75 209.65 441.27 209.77 440.16 210.05 440.16 210.06 440.1 210.15 440.06 210.21 440.04 210.24 439.98 210.33 439.94 210.39 439.9 210.45 439.88 210.48 439.83 210.55 439.82 210.57 439.78 210.62 439.76 210.66 439.75 210.68 439.73 210.7 439.69 210.77 439.6 210.9 439.58 210.94 439.56 210.98 439.27 211.42 439.23 211.47 439.11 211.63 439.07 211.68 439.06 211.69 438.99 211.78 438.21 211.81 437.48 211.8 437.36 211.82 436.98 211.88 436.98 211.98 436.99 212.05 436.99 212.12 437 212.21 437.01 212.26 437.02 212.42 437.03 212.45 437.03 212.47 437.04 212.49 437.05 212.5 437.07 212.55 437.08 212.62 437.09 212.65 437.1 212.69 437.1 212.74 437.1 212.78 437.1 212.82 437.09 212.86 437.08 212.91 437.07 212.96 437.06 212.99 437.05 213.01 437.04 213.03 437.02 213.04 437 213.06 436.97 213.06 436.94 213.07 436.91 213.06 436.88 213.06 Z" fill-rule="evenodd"/>
</g></svg>