<svg xmlns="http://www.w3.org/2000/svg" version="1.2" baseProfile="tiny" stroke-linecap="round" stroke-linejoin="round" viewBox="178.12 105.72 25.27 19.23"><g xmlns="http://www.w3.org/2000/svg" id="Larrabetzu">
<path d="M 194.18 105.72 194.63 106.09 194.64 106.11 194.99 106.39 195.03 106.42 195.18 106.56 195.33 106.69 195.47 106.82 195.56 106.89 195.68 107.04 195.79 107.19 195.95 107.28 196.15 107.4 196.53 107.64 196.89 107.84 197.03 108.02 197.19 108.22 197.24 108.26 197.4 108.33 197.5 108.39 197.67 108.49 198.01 108.76 198.16 108.83 198.43 109.03 198.59 109.18 198.79 109.41 199 109.59 199.52 110.01 200.15 110.58 200.32 110.81 200.47 111.07 200.59 111.16 200.82 111.59 200.87 111.64 200.97 111.81 200.98 111.85 201.09 112.01 201.13 112.03 201.17 112.05 201.29 112.07 201.63 112.12 202.05 112.18 202.4 112.24 202.75 112.24 203.16 112.32 203.14 112.35 203.35 112.69 203.14 112.9 202.93 113.2 202.6 113.39 202.41 113.47 202.13 113.5 201.89 114.32 202.26 114.41 202.14 114.75 202.09 115 201.99 115.14 201.87 115.27 201.83 115.31 201.8 115.36 201.78 115.41 201.72 115.58 201.7 115.63 201.67 115.68 201.63 115.69 201.54 115.86 201.5 115.95 201.38 115.75 201.26 115.83 201.17 115.79 201.14 115.85 200.84 115.76 200.89 115.67 200.81 115.64 200.61 115.8 200.58 115.64 200.53 115.63 200.49 115.42 200.46 115.37 200.33 115.14 199.99 115.15 200.02 115.08 200.31 114.91 200.24 114.74 200.13 114.78 200 114.84 199.94 114.87 199.9 114.89 199.84 114.94 199.79 114.98 199.76 115 199.93 114.43 199.24 114.56 199.03 114.8 198.6 114.72 198.44 114.79 198.61 114.96 199.24 115.55 199.18 115.81 199.1 115.89 199.08 115.94 199.05 115.99 199.03 116.05 198.87 116.26 198.9 116.55 197.95 115.83 197.89 115.96 197.77 116.16 198.68 116.81 198.28 116.97 198.44 117.4 198.78 117.58 198.56 118.17 198.14 117.93 198.03 118.31 198.42 118.41 198.34 118.68 198.57 119.03 198.47 119.14 198.32 119.43 198.07 119.63 197.93 119.76 197.83 119.84 197.73 119.93 197.48 120.2 197.17 120.5 196.93 120.69 196.74 120.83 196.68 120.98 196.53 120.88 196.05 121.37 195.9 121.54 195.91 121.65 195.98 121.81 196.01 121.85 196.03 121.9 196.06 121.96 196.1 122.02 196.11 122.06 196.1 122.07 196.12 122.11 196.12 122.12 196.12 122.15 196.12 122.18 196.1 122.29 196.06 122.43 196.03 122.56 196.01 122.62 195.98 122.74 195.95 122.8 195.92 122.84 195.85 122.94 195.83 122.99 195.82 123.03 195.81 123.07 195.81 123.16 195.76 123.27 195.58 123.29 195.12 123.46 194.8 123.53 194.5 123.55 194.24 123.59 194.01 123.69 193.93 123.76 193.83 123.88 193.74 124.02 193.65 124.17 193.55 124.34 193.44 124.56 192.85 124.22 191.98 123.73 191.37 124.19 191.21 124.19 191.09 124.2 191.06 124.59 190.84 124.94 190.17 124.91 190.11 124.45 189.96 124.3 190.01 124.17 189.47 123.76 188.94 123.55 188.3 123.32 187.93 123.18 187.6 123.11 187.12 122.98 186.37 123.01 185.54 123.02 185.17 122.88 184.8 122.7 183.89 122.12 183.49 122 183.11 121.88 182.55 121.77 182.46 121.75 182.35 121.73 182.3 121.72 182.28 121.72 182.25 121.71 182.21 121.71 182.2 121.71 182.15 121.71 182.09 121.71 182.03 121.7 181.95 121.68 181.67 121.53 181.29 121.35 181.24 121.41 181.14 121.59 180.9 121.72 180.76 121.78 180.57 121.92 180.41 122.05 180.23 122.14 179.71 122.05 179.29 121.93 179.26 121.7 179.11 121.47 179.07 121.43 178.93 121.29 178.73 121.19 178.45 121.07 178.15 120.91 178.12 120.77 178.19 120.61 178.24 120.49 178.39 120.03 178.54 119.6 178.6 119.4 178.81 119.16 179.02 118.58 179.44 118.44 180.01 118.14 180.35 118.48 180.54 118.67 180.67 118.58 180.95 118.78 181.01 118.68 181.05 118.53 181 118.44 180.95 118.26 180.94 118.21 180.92 118.16 180.84 117.99 181.35 118.14 181.54 118.25 181.66 117.92 181.76 117.64 181.85 117.38 181.88 117.38 181.9 117.39 181.94 117.41 181.98 117.44 182.02 117.46 182.05 117.48 182.07 117.49 182.08 117.49 182.11 117.49 182.14 117.49 182.18 117.5 182.23 117.5 182.28 117.51 182.33 117.52 182.38 117.53 182.45 117.54 182.5 117.55 182.55 117.56 182.6 117.57 182.75 117.29 182.43 117.09 182.53 116.87 182.48 116.84 182.45 116.81 182.43 116.77 182.41 116.74 182.39 116.72 182.36 116.7 182.34 116.68 182.33 116.66 182.32 116.64 182.31 116.6 182.3 116.58 182.29 116.56 182.3 116.53 182.3 116.5 182.29 116.48 182.28 116.46 182.59 116.23 182.78 116.1 183.06 115.89 183.27 115.95 183.87 116.31 184.92 115.31 185 114.77 185.18 114.24 185.22 113.96 185.28 113.43 185.39 111.79 185.38 111.14 185.13 110.63 184.8 109.77 184.72 109.4 185.64 106.55 185.89 106.73 187.34 106.92 188.03 107.03 189.04 107.17 189.6 107.25 190.76 107.59 191.92 108.02 192.76 107.27 193.25 106.76 193.72 106.11 194.18 105.72 Z"/>
</g></svg>