<svg xmlns="http://www.w3.org/2000/svg" version="1.2" baseProfile="tiny" stroke-linecap="round" stroke-linejoin="round" viewBox="563.95 64.08 15.58 15.9"><g xmlns="http://www.w3.org/2000/svg" id="Larresoro">
<path d="M 574.58 66.07 574.66 66.17 574.72 66.24 574.65 66.47 574.63 66.53 574.58 66.72 574.57 66.73 574.47 67.16 574.47 67.43 574.47 67.47 574.47 67.62 574.49 67.67 574.52 67.76 574.62 67.88 574.73 67.98 574.89 68.13 575.12 68.36 575.38 68.63 575.58 68.85 575.84 69.2 575.99 69.4 576.19 69.65 576.24 69.7 576.31 69.77 576.45 69.87 576.58 69.97 576.73 70.09 576.85 70.19 576.98 70.38 577.02 70.57 577.11 70.7 577.13 70.8 577.17 70.95 577.27 71.12 577.33 71.23 577.38 71.34 577.42 71.41 577.44 71.46 577.5 71.56 577.21 71.63 577.23 71.67 577.24 71.7 577.26 71.73 577.29 71.76 577.32 71.78 577.33 71.81 577.33 71.84 577.32 71.86 577.31 71.91 577.3 71.99 577.29 72.04 577.28 72.1 577.28 72.15 577.29 72.18 577.29 72.22 577.3 72.25 577.33 72.31 577.35 72.34 577.4 72.41 577.44 72.45 577.49 72.47 577.6 72.53 577.64 72.55 577.66 72.58 577.66 72.6 577.66 72.65 577.66 72.68 577.67 72.71 577.7 72.77 577.71 72.78 577.72 72.82 577.73 72.86 577.73 72.89 577.72 72.93 577.72 72.95 577.72 72.98 577.74 72.99 577.78 73.02 577.81 73.03 577.84 73.06 577.85 73.11 577.87 73.17 577.89 73.2 577.91 73.24 577.93 73.28 577.99 73.32 578.03 73.34 578.08 73.37 578.13 73.53 578.3 73.76 578.74 73.87 578.77 73.91 578.8 73.94 578.83 73.97 578.85 74 578.86 74.05 578.89 74.1 578.91 74.14 578.92 74.18 578.93 74.22 578.94 74.24 578.97 74.26 579.03 74.31 579.04 74.35 579.05 74.39 579.09 74.44 579.13 74.44 579.17 74.45 579.23 74.45 579.3 74.47 579.33 74.48 579.38 74.51 579.41 74.53 579.42 74.56 579.43 74.59 579.43 74.62 579.41 74.66 579.4 74.7 579.32 74.85 579.31 74.9 579.27 74.92 579.23 74.95 579.28 75.14 579.29 75.21 579.31 75.26 579.33 75.32 579.35 75.39 579.37 75.46 579.39 75.52 579.4 75.58 579.41 75.62 579.43 75.71 579.45 75.8 579.25 75.84 579.24 75.97 579.49 76.08 579.5 76.17 579.51 76.25 579.51 76.35 579.52 76.42 579.51 76.49 579.51 76.55 579.5 76.6 579.48 76.65 579.46 76.7 579.44 76.73 579.42 76.77 579.34 76.9 579.34 76.92 579.34 76.97 579.35 77 579.36 77.06 579.36 77.15 579.36 77.19 579.35 77.23 579.34 77.26 579.32 77.3 579.3 77.33 579.28 77.37 579.26 77.4 579.24 77.43 579.2 77.46 579.19 77.49 579.18 77.52 579.17 77.55 579.16 77.58 579.14 77.6 579.1 77.64 579.08 77.69 579.04 77.74 579.01 77.76 578.99 77.79 578.98 77.8 578.97 77.87 578.98 77.94 578.98 77.96 579 78 579.01 78.02 579.03 78.03 579.06 78.03 579.1 78.04 579.13 78.05 579.18 78.06 579.22 78.07 579.25 78.08 579.27 78.08 579.29 78.1 579.29 78.12 579.29 78.15 579.28 78.17 579.28 78.2 579.27 78.22 579.26 78.24 579.25 78.27 579.23 78.31 579.22 78.35 579.22 78.39 579.22 78.43 579.21 78.46 579.2 78.49 579.19 78.52 579.2 78.54 579.21 78.56 579.21 78.58 579.21 78.6 579.19 78.61 579.17 78.62 579.15 78.64 579.1 78.7 579.06 78.73 579 78.79 578.95 78.83 578.9 78.87 578.85 78.91 578.81 78.94 578.79 78.96 578.76 78.97 578.71 78.98 578.65 79 578.53 79.04 578.5 79.06 578.47 79.06 578.45 79.06 578.43 79.06 578.4 79.05 578.36 79.07 578.33 79.09 578.29 79.11 578.24 79.12 578.19 79.12 578.15 79.14 578.12 79.16 578.1 79.18 578.08 79.2 578.05 79.21 578.02 79.21 578 79.21 577.97 79.2 577.93 79.19 577.91 79.2 577.89 79.22 577.88 79.22 577.84 79.23 577.77 79.24 577.68 79.26 577.66 79.27 577.64 79.31 577.6 79.33 577.57 79.34 577.53 79.38 577.49 79.42 577.41 79.48 577.27 79.59 577.12 79.68 577.05 79.74 576.94 79.82 576.9 79.85 576.79 79.9 576.68 79.97 576.66 79.98 576.63 79.93 576.57 79.79 576.51 79.64 576.43 79.46 576.36 79.29 576.34 79.2 576.33 79.13 576.32 79.11 576.31 79.09 576.28 79.06 576.24 79.04 576.21 79 576.16 78.95 576.09 78.87 576.02 78.76 575.95 78.68 575.9 78.59 575.87 78.55 575.84 78.5 575.82 78.44 575.8 78.35 575.77 78.3 575.71 78.24 575.68 78.21 575.65 78.17 575.64 78.14 575.62 78.1 575.6 78.04 575.58 77.99 575.52 77.91 575.44 77.8 575.26 77.71 575.09 77.71 574.97 77.75 574.74 77.94 574.6 78.04 574.54 78.08 574.5 78.1 574.45 78.11 574.38 78.12 574.32 78.12 574.27 78.11 574.18 78.09 574.14 78.07 574.1 78.03 574.06 77.99 574.02 77.94 574 77.91 573.94 77.9 573.85 77.88 573.73 77.85 573.65 77.81 573.58 77.78 573.5 77.71 573.44 77.66 573.36 77.58 573.31 77.54 573.27 77.47 573.24 77.42 573.2 77.35 573.17 77.3 573.1 77.23 573.07 77.2 573.05 77.17 573.02 77.18 572.97 77.18 572.92 77.18 572.87 77.2 572.83 77.22 572.79 77.23 572.75 77.23 572.72 77.22 572.67 77.2 572.62 77.18 572.55 77.13 572.43 77.03 572.28 76.91 572.17 76.81 572.09 76.73 572.07 76.71 572.03 76.69 572.01 76.68 572 76.68 571.96 76.66 571.94 76.65 571.92 76.66 571.91 76.64 571.9 76.6 571.88 76.51 571.88 76.47 571.89 76.42 571.91 76.38 571.91 76.35 571.91 76.33 571.91 76.3 571.89 76.27 571.87 76.26 571.85 76.26 571.82 76.26 571.79 76.26 571.77 76.25 571.75 76.25 571.71 76.25 571.66 76.28 571.62 76.3 571.55 76.32 571.52 76.33 571.49 76.35 571.46 76.34 571.44 76.33 571.42 76.32 571.41 76.29 571.4 76.27 571.38 76.27 571.34 76.26 571.32 76.25 571.3 76.25 571.28 76.26 571.25 76.25 571.24 76.23 571.21 76.22 571.19 76.22 571.17 76.21 571.15 76.2 571.13 76.19 571.11 76.16 571.09 76.14 571.07 76.13 571.05 76.12 571.03 76.12 571 76.11 570.99 76.1 570.98 76.09 570.96 76.07 570.94 76.05 570.91 76.03 570.9 76.02 570.88 76.01 570.86 75.99 570.84 75.98 570.82 75.98 570.79 75.97 570.76 75.97 570.74 75.95 570.72 75.93 570.69 75.91 570.68 75.92 570.66 75.92 570.59 75.95 570.57 75.97 570.55 76 570.52 76.02 570.5 76.04 570.48 76.05 570.46 76.05 570.46 75.99 570.46 75.96 570.46 75.93 570.45 75.9 570.42 75.84 570.37 75.77 570.35 75.74 570.33 75.71 570.31 75.68 570.29 75.64 570.28 75.59 570.27 75.54 570.27 75.5 570.25 75.45 570.24 75.4 570.21 75.35 570.2 75.33 570.19 75.29 570.19 75.26 570.2 75.21 570.21 75.18 570.2 75.18 570.18 75.18 570.16 75.18 570.13 75.19 570.11 75.2 570.08 75.21 570.05 75.2 570.04 75.21 570 75.23 569.99 75.24 569.96 75.27 569.94 75.28 569.92 75.28 569.9 75.32 569.88 75.34 569.85 75.36 569.74 75.44 569.72 75.46 569.7 75.47 569.68 75.46 569.66 75.44 569.64 75.43 569.62 75.41 569.6 75.4 569.59 75.41 569.57 75.44 569.56 75.47 569.54 75.49 569.51 75.5 569.48 75.5 569.46 75.5 569.43 75.48 569.4 75.46 569.38 75.46 569.36 75.47 569.33 75.48 569.32 75.48 569.3 75.45 569.29 75.43 569.29 75.41 569.27 75.39 569.26 75.37 569.25 75.35 569.24 75.34 569.22 75.34 569.21 75.33 569.2 75.32 569.18 75.3 569.16 75.3 569.15 75.3 569.14 75.28 569.13 75.28 569.11 75.29 569.09 75.29 569.08 75.29 569.06 75.28 569.05 75.27 569.04 75.27 569.03 75.27 569.02 75.28 569 75.29 568.99 75.32 568.98 75.32 568.97 75.31 568.96 75.29 568.95 75.27 568.93 75.25 568.92 75.26 568.9 75.27 568.89 75.3 568.88 75.32 568.85 75.32 568.82 75.31 568.8 75.29 568.77 75.25 568.75 75.22 568.75 75.2 568.73 75.14 568.72 75.11 568.71 75.09 568.7 75.08 568.68 75.08 568.66 75.08 568.66 75.04 568.65 75.04 568.64 75.03 568.64 75.01 568.6 75.01 568.58 75 568.57 74.99 568.56 74.98 568.53 74.99 568.51 74.99 568.5 74.98 568.49 74.96 568.49 74.94 568.48 74.94 568.46 74.93 568.45 74.91 568.44 74.89 568.44 74.88 568.44 74.87 568.43 74.86 568.41 74.84 568.39 74.82 568.36 74.81 568.33 74.82 568.31 74.8 568.26 74.72 568.24 74.7 568.21 74.63 568.2 74.58 568.17 74.56 568.14 74.48 568.12 74.45 568.07 74.32 568.02 74.25 567.97 74.22 567.95 74.21 567.89 74.18 567.83 74.1 567.66 73.91 567.61 73.85 567.57 73.83 567.53 73.81 567.48 73.8 567.38 73.77 567.29 73.75 567.2 73.73 567.04 73.73 567.02 73.72 566.91 73.71 566.89 73.71 566.86 73.71 566.81 73.71 566.74 73.73 566.63 73.77 566.57 73.75 566.53 73.73 566.48 73.71 566.45 73.71 566.43 73.73 566.35 73.75 566.34 73.76 566.14 73.69 565.88 73.58 565.7 73.51 565.55 73.4 565.52 73.36 565.33 73.19 565.33 73.12 565.28 73.02 565.24 72.96 565.19 72.9 565.14 72.81 565.12 72.79 565.1 72.67 565.09 72.59 565.07 72.53 565.04 72.43 564.99 72.31 564.96 72.24 564.93 72.15 564.91 72.14 564.87 72.12 564.85 72.11 564.84 72.1 564.8 72.05 564.78 72.03 564.75 72.01 564.71 71.99 564.68 71.97 564.67 71.96 564.65 71.94 564.6 71.88 564.57 71.85 564.51 71.77 564.5 71.75 564.46 71.71 564.43 71.66 564.41 71.62 564.38 71.59 564.35 71.56 564.33 71.51 564.3 71.38 564.28 71.27 564.26 71.22 564.24 71.16 564.23 71.1 564.21 71.07 564.19 71.04 564.17 71.01 564.16 70.98 564.16 70.97 564.15 70.91 564.16 70.88 564.14 70.85 564.1 70.82 564.09 70.79 564.08 70.76 564.07 70.73 564.05 70.64 564.05 70.6 564.04 70.55 564.04 70.48 564.03 70.47 564.03 70.42 564.01 70.36 563.99 70.3 563.98 70.26 563.97 70.19 563.97 70.15 563.98 70.07 563.99 70 563.98 69.96 563.97 69.91 563.96 69.86 563.95 69.83 563.96 69.8 563.98 69.77 564.01 69.75 564.05 69.72 564.06 69.71 564.05 69.69 564.05 69.66 564.05 69.64 564.05 69.6 564.06 69.57 564.07 69.55 564.09 69.56 564.13 69.57 564.17 69.58 564.23 69.57 564.24 69.55 564.25 69.46 564.25 69.43 564.26 69.39 564.26 69.29 564.26 69.23 564.27 69.18 564.28 69.15 564.31 69.12 564.32 69.1 564.32 69.07 564.31 69.04 564.28 69.01 564.22 68.94 564.19 68.9 564.18 68.87 564.18 68.82 564.18 68.73 564.2 68.66 564.23 68.59 564.24 68.57 564.25 68.53 564.27 68.49 564.3 68.46 564.34 68.43 564.38 68.41 564.44 68.37 564.51 68.31 564.53 68.28 564.56 68.26 564.58 68.24 564.61 68.25 564.64 68.25 564.68 68.22 564.71 68.2 564.72 68.18 564.74 68.16 564.76 68.13 564.78 68.13 564.79 68.1 564.79 68.07 564.79 68.06 564.8 68.03 564.81 68.02 564.82 68.01 564.82 67.98 564.84 67.97 564.85 67.94 564.86 67.92 564.87 67.89 564.89 67.88 564.92 67.86 564.94 67.85 564.95 67.84 564.96 67.83 564.98 67.82 565 67.81 565.02 67.79 565.04 67.79 565.08 67.77 565.1 67.76 565.12 67.75 565.14 67.75 565.16 67.75 565.18 67.75 565.24 67.73 565.26 67.74 565.27 67.75 565.3 67.75 565.32 67.76 565.32 67.77 565.32 67.78 565.36 67.79 565.38 67.81 565.39 67.84 565.42 67.92 565.43 67.95 565.44 67.96 565.46 67.98 565.47 67.99 565.49 68.01 565.51 68.03 565.52 68.06 565.57 68.13 565.58 68.15 565.62 68.14 565.64 68.13 565.66 68.09 565.69 68.07 565.71 68.05 565.72 68.02 565.75 68 565.76 67.99 565.77 67.98 565.8 67.93 565.82 67.91 565.83 67.89 565.85 67.86 565.86 67.84 565.87 67.83 565.88 67.81 565.91 67.74 565.93 67.7 565.97 67.59 565.98 67.57 565.99 67.56 566 67.53 566.01 67.51 566.02 67.47 566.04 67.43 566.05 67.38 566.06 67.36 566.07 67.26 566.09 67.2 566.1 67.17 566.13 67.15 566.17 67.12 566.27 67.07 566.3 67.05 566.34 67.04 566.35 67.02 566.43 66.98 566.48 66.95 566.51 66.94 566.55 66.93 566.57 66.92 566.63 66.91 566.64 66.91 566.66 66.9 566.7 66.89 566.72 66.88 566.73 66.87 566.75 66.84 566.77 66.79 566.79 66.71 566.79 66.67 566.79 66.63 566.77 66.61 566.75 66.6 566.73 66.58 566.72 66.56 566.73 66.53 566.74 66.5 566.74 66.47 566.74 66.44 566.74 66.39 566.75 66.36 566.75 66.34 566.74 66.29 566.74 66.27 566.74 66.26 566.76 66.27 566.78 66.27 566.81 66.28 566.84 66.29 566.87 66.29 566.89 66.3 566.91 66.3 566.94 66.31 566.96 66.33 567 66.33 567.02 66.34 567.06 66.34 567.11 66.34 567.13 66.35 567.15 66.34 567.18 66.34 567.21 66.35 567.24 66.35 567.28 66.35 567.3 66.36 567.31 66.38 567.32 66.37 567.33 66.35 567.36 66.31 567.39 66.25 567.42 66.22 567.43 66.2 567.45 66.19 567.47 66.18 567.48 66.18 567.5 66.17 567.52 66.17 567.56 66.14 567.57 66.14 567.58 66.13 567.59 66.13 567.59 66.11 567.59 66.09 567.6 66.06 567.62 66.03 567.65 65.99 567.68 65.93 567.69 65.92 567.7 65.91 567.71 65.9 567.72 65.9 567.73 65.9 567.74 65.9 567.75 65.9 567.76 65.89 567.77 65.87 567.78 65.86 567.79 65.85 567.8 65.84 567.81 65.83 567.84 65.83 567.88 65.83 567.92 65.82 567.96 65.81 568 65.79 568.03 65.77 568.05 65.76 568.09 65.76 568.12 65.76 568.16 65.75 568.23 65.74 568.27 65.73 568.31 65.71 568.47 65.64 568.5 65.63 568.52 65.61 568.53 65.59 568.61 65.53 568.62 65.51 568.63 65.51 568.65 65.51 568.66 65.52 568.68 65.52 568.69 65.53 568.74 65.52 568.78 65.49 568.78 65.49 568.8 65.47 568.81 65.46 568.83 65.46 568.86 65.46 568.88 65.44 568.89 65.43 568.89 65.42 568.89 65.41 568.91 65.38 568.94 65.35 568.98 65.34 569 65.33 569.02 65.31 569.05 65.28 569.06 65.26 569.08 65.21 569.11 65.16 569.12 65.13 569.16 65.09 569.21 65.04 569.26 65.01 569.3 65 569.33 64.99 569.35 64.98 569.37 64.96 569.4 64.94 569.41 64.92 569.44 64.92 569.46 64.91 569.48 64.9 569.5 64.88 569.52 64.87 569.53 64.87 569.55 64.86 569.58 64.86 569.62 64.85 569.63 64.85 569.65 64.85 569.68 64.85 569.71 64.84 569.73 64.84 569.74 64.83 569.75 64.82 569.77 64.82 569.78 64.81 569.78 64.8 569.78 64.79 569.77 64.78 569.77 64.77 569.77 64.76 569.78 64.76 569.82 64.76 569.94 64.75 570 64.73 570.1 64.69 570.13 64.68 570.15 64.67 570.17 64.67 570.2 64.67 570.23 64.68 570.27 64.68 570.31 64.67 570.33 64.67 570.35 64.67 570.35 64.65 570.35 64.62 570.35 64.59 570.36 64.57 570.36 64.55 570.37 64.53 570.37 64.52 570.36 64.5 570.36 64.5 570.35 64.48 570.35 64.47 570.34 64.45 570.34 64.43 570.33 64.42 570.33 64.37 570.33 64.34 570.33 64.29 570.33 64.2 570.34 64.11 570.47 64.16 570.62 64.22 570.83 64.28 571.08 64.31 571.3 64.37 571.55 64.49 571.87 64.61 572.01 64.66 572.14 64.73 572.2 64.76 572.31 64.81 572.42 64.85 572.57 64.92 572.79 65.01 572.97 65.05 573.12 65.11 573.23 65.13 573.35 65.18 573.49 65.24 573.62 65.32 573.8 65.42 573.98 65.52 574.14 65.62 574.28 65.71 574.34 65.74 574.38 65.77 574.42 65.81 574.47 65.87 574.49 65.93 574.51 65.98 574.53 66.03 574.55 66.05 574.58 66.07 Z"/>
</g></svg>