<svg xmlns="http://www.w3.org/2000/svg" version="1.2" baseProfile="tiny" stroke-linecap="round" stroke-linejoin="round" viewBox="689.08 92.65 15.08 17.78"><g xmlns="http://www.w3.org/2000/svg" id="Larribarre-Sorhapürü">
<path d="M 699.79 94.62 699.82 94.7 699.88 94.82 699.91 94.88 699.93 94.9 700.36 94.07 700.79 93.25 700.9 93.27 701.61 93.63 701.76 93.69 701.85 93.43 702.41 93.49 702.32 93.67 703.01 93.86 703.2 93.89 703.13 94.04 702.76 94.71 702.38 95.37 702.37 95.61 702.32 96.05 702.28 96.5 702.23 96.95 702.2 97.59 702.16 98.22 702.05 98.87 702.67 99.63 703.18 100.18 703.48 100.43 703.9 100.99 704.16 101.45 704.11 101.51 703.99 101.92 704.02 102.3 704 102.34 704 102.35 704.01 102.37 703.6 102.8 703.52 103.5 703.44 104.19 703.39 104.28 703.19 104.44 702.93 104.84 702.93 104.88 702.94 104.99 702.94 105.19 702.95 105.32 702.96 105.41 702.96 105.46 702.96 105.49 703.14 105.66 703.09 105.85 703.05 106.04 703.02 106.18 703.01 106.22 702.99 106.25 702.93 106.32 702.83 106.44 702.47 106.81 702.31 106.97 702.27 107.02 702.24 107.07 702.2 107.14 702.14 107.22 702.12 107.23 701.76 107.84 701.75 107.94 701.75 108.03 701.74 108.17 701.71 108.28 701.7 108.4 701.72 108.54 701.76 108.73 701.75 108.83 701.72 108.97 701.68 109.13 701.66 109.23 701.64 109.37 701.58 109.58 701.54 109.66 701.49 109.7 701.41 109.74 701.33 109.74 701.23 109.73 701.15 109.74 701.15 109.72 701.11 109.68 701.07 109.65 700.99 109.65 700.93 109.67 700.77 109.73 700.61 109.79 700.49 109.84 700.37 109.89 700.28 109.98 700.13 110.12 700.04 110.25 700.01 110.29 700 110.3 699.94 110.36 699.89 110.39 699.84 110.4 699.8 110.4 699.75 110.37 699.68 110.28 699.63 110.16 699.57 110.01 699.54 109.92 699.55 109.81 699.58 109.75 699.62 109.59 699.62 109.5 699.59 109.45 699.5 109.36 699.35 109.3 699.3 109.3 699.27 109.3 699.19 109.33 699.09 109.36 698.96 109.41 698.84 109.43 698.8 109.41 698.75 109.36 698.73 109.31 698.72 109.27 698.74 109.17 698.75 109.12 698.78 109.05 698.78 108.99 698.78 108.95 698.73 108.93 698.72 108.92 698.66 108.91 698.56 108.92 698.41 108.95 698.29 108.99 698.27 109 698.12 109.05 698.02 109.13 697.86 109.24 697.78 109.3 697.7 109.34 697.66 109.35 697.57 109.35 697.44 109.32 697.36 109.26 697.34 109.22 697.32 109.18 697.3 109.1 697.31 109.06 697.36 108.94 697.42 108.78 697.48 108.57 697.49 108.34 697.51 108.18 697.57 107.9 697.59 107.79 697.59 107.73 697.58 107.69 697.58 107.68 697.57 107.63 697.58 107.52 697.6 107.41 697.62 107.35 697.65 107.31 697.7 107.26 697.75 107.18 697.78 107.12 697.78 107.08 697.77 107.04 697.74 106.99 697.65 106.9 697.61 106.86 697.54 106.84 697.44 106.84 697.35 106.84 697.25 106.86 697.23 106.87 697.23 106.86 697.23 106.83 697.23 106.78 697.23 106.76 697.26 106.69 697.32 106.63 697.39 106.57 697.49 106.51 697.43 106.32 697.65 106.23 698.03 105.95 698.19 105.88 698.19 105.86 698.21 105.75 698.23 105.65 698.23 105.55 698.23 105.4 698.24 105.22 698.24 105.18 698.28 105.12 698.29 105.07 698.32 104.94 698.34 104.87 698.36 104.78 698.36 104.73 698.35 104.69 698.31 104.61 698.21 104.45 698.21 104.41 698.22 104.4 698.1 104.11 698.04 103.99 697.53 103.95 697.34 103.91 696.65 104.35 696.44 104.22 695.81 104.19 695.79 104 695.87 103.96 695.91 103.9 695.59 103.84 695.53 103.79 695.42 103.67 695.45 103.6 695.5 103.52 695.63 103.33 695.79 103.1 695.71 103.03 695.74 102.93 695.75 102.79 695.78 102.64 695.8 102.55 695.79 102.52 695.73 102.4 695.68 102.33 695.64 102.3 695.49 102.21 695.44 102.19 695.34 102.16 695.31 102.15 695.28 102.15 695.23 102.14 695.15 102.14 695.12 102.14 695.05 102.15 694.97 102.15 694.83 102.16 694.71 102.18 694.69 102.18 694.58 102.22 694.55 102.24 694.38 102.35 694.26 102.4 694.25 102.41 694.21 102.42 694.2 102.42 694.17 102.42 694.13 102.43 694.09 102.43 694.05 102.43 694.02 102.42 693.97 102.39 693.86 102.31 693.77 102.22 693.69 102.15 693.63 102.09 693.55 101.97 693.48 101.83 693.41 101.66 693.39 101.58 693.39 101.5 693.4 101.37 693.42 101.15 693.43 100.98 693.46 100.78 693.52 100.5 693.55 100.31 693.57 100.22 693.59 100.13 693.61 100.06 693.63 100.01 693.65 99.97 693.67 99.93 693.68 99.88 693.67 99.85 693.67 99.82 693.68 99.8 693.7 99.76 693.7 99.72 693.71 99.67 693.72 99.62 693.72 99.56 693.73 99.5 693.74 99.44 693.74 99.4 693.75 99.35 693.76 99.3 693.76 99.26 693.76 99.21 693.76 99.14 693.77 99.09 693.78 99.03 693.79 98.97 693.78 98.93 693.76 98.91 693.75 98.88 693.75 98.85 693.74 98.82 693.71 98.77 693.69 98.74 693.66 98.7 693.63 98.66 693.61 98.63 693.6 98.61 693.5 98.51 693.46 98.48 693.43 98.45 693.38 98.43 693.35 98.41 693.3 98.39 693.26 98.38 693.21 98.35 693.18 98.34 693.14 98.32 693.1 98.3 693.06 98.28 693.02 98.25 692.97 98.23 692.93 98.22 692.89 98.21 692.85 98.2 692.82 98.2 692.79 98.2 692.76 98.2 692.72 98.21 692.69 98.21 692.65 98.21 692.61 98.21 692.58 98.21 692.52 98.21 692.49 98.21 692.45 98.22 692.39 98.22 692.36 98.22 692.32 98.22 692.29 98.22 692.25 98.23 692.21 98.23 692.17 98.23 692.11 98.24 692.07 98.24 692.02 98.23 691.99 98.24 691.95 98.24 691.91 98.24 691.88 98.25 691.85 98.25 691.82 98.25 691.78 98.26 691.72 98.29 691.69 98.3 691.66 98.32 691.64 98.34 691.62 98.36 691.6 98.38 691.58 98.39 691.55 98.4 691.54 98.42 691.52 98.43 691.49 98.44 691.47 98.45 691.44 98.47 691.42 98.49 691.39 98.52 691.36 98.54 691.33 98.56 691.31 98.58 691.27 98.6 691.24 98.62 691.2 98.63 691.15 98.65 691.11 98.67 691.08 98.68 691.06 98.7 691.04 98.71 691.01 98.73 690.97 98.75 690.93 98.77 690.9 98.79 690.86 98.81 690.83 98.82 690.8 98.82 690.77 98.82 690.74 98.82 690.71 98.81 690.68 98.81 690.62 98.77 690.6 98.72 690.58 98.69 690.53 98.6 690.5 98.56 690.47 98.51 690.45 98.46 690.42 98.42 690.4 98.38 690.38 98.35 690.36 98.28 690.34 98.2 690.34 97.88 689.79 97.79 689.32 97.49 689.26 97.16 689.11 96.45 689.17 96.35 689.29 96.26 689.57 95.96 689.69 95.86 690.2 95.34 690.28 95.28 690.48 95.28 690.95 95.48 691.04 95.48 691.05 95.44 691.56 94.95 692.42 94.63 692.46 94.59 692.58 94.62 692.87 94.81 692.96 94.77 693.04 94.68 693.13 94.69 693.41 94.92 693.51 94.91 693.57 94.75 693.74 94.55 693.9 94.38 694.38 94.63 694.44 94.6 694.96 95.03 695.02 94.97 695.14 94.86 695.24 94.77 695.25 94.77 695.29 94.74 695.39 94.67 695.41 94.66 695.47 94.61 695.59 94.49 695.64 94.43 695.7 94.33 695.86 94.07 695.97 93.88 696 93.84 696.03 93.79 696.08 93.7 696.1 93.67 696.18 93.57 696.2 93.53 696.33 93.55 696.35 93.54 696.37 93.51 696.4 93.49 696.42 93.46 696.46 93.42 696.47 93.4 696.5 93.35 696.53 93.32 696.55 93.28 696.57 93.26 696.6 93.22 696.63 93.2 696.66 93.17 696.68 93.15 696.71 93.12 696.73 93.09 696.76 93.05 696.77 93.02 696.91 93.05 696.93 92.99 696.96 92.91 697.04 92.77 697.08 92.7 697.35 93.25 697.9 92.66 697.96 92.67 697.99 92.68 698.06 92.69 698.1 92.7 698.15 92.71 698.19 92.72 698.24 92.73 698.27 92.74 698.32 92.76 698.35 92.78 698.39 92.8 698.42 92.83 698.44 92.85 698.47 92.86 698.52 92.88 698.54 92.88 698.58 92.89 698.61 92.9 698.62 92.91 698.65 92.92 698.66 92.95 698.68 92.98 698.7 93.07 698.71 93.11 698.72 93.15 698.73 93.19 698.75 93.26 698.75 93.32 698.76 93.37 698.76 93.44 698.76 93.5 698.77 93.56 698.77 93.63 698.78 93.69 698.79 93.73 698.79 93.75 698.79 93.79 698.8 93.83 698.82 93.87 698.84 93.92 698.85 93.97 698.87 94.03 698.88 94.1 698.9 94.16 698.91 94.26 698.92 94.37 698.94 94.57 698.97 94.83 699.62 94.66 699.79 94.62 Z"/>
</g></svg>