<svg xmlns="http://www.w3.org/2000/svg" version="1.2" baseProfile="tiny" stroke-linecap="round" stroke-linejoin="round" viewBox="659.57 117.47 23.03 17.57"><g xmlns="http://www.w3.org/2000/svg" id="Larzabale-Arroze-Zibitze">
<path d="M 670.29 119.4 671.14 119.98 671.23 120.04 671.88 120.27 671.93 120.27 672.25 119.96 672.33 119.96 672.47 120.11 672.66 120.15 672.93 120.16 673.25 120.3 673.44 120.45 673.52 120.57 673.7 120.66 673.84 120.63 673.85 120.64 673.91 120.69 674.01 120.74 674.12 120.81 674.24 120.88 674.34 120.94 674.43 120.99 674.49 121.04 675.02 121.09 675.28 121.19 675.44 121.29 675.6 121.28 675.62 121.27 676.25 121.2 677.1 121.32 677.41 121.3 677.76 121.14 677.93 121.14 677.94 121.1 677.96 121.08 677.97 121.07 677.99 121.04 678.01 121 678.02 120.96 678.05 120.91 678.06 120.87 678.08 120.82 678.1 120.79 678.11 120.78 678.14 120.77 678.17 120.78 678.21 120.79 678.21 120.73 678.21 120.66 678.22 120.6 678.23 120.55 678.24 120.51 678.26 120.48 678.29 120.39 678.32 120.35 678.37 120.29 678.43 120.22 678.49 120.14 678.54 120.08 678.58 120.01 678.63 119.94 678.66 119.89 678.71 119.84 678.76 119.76 678.81 119.69 678.85 119.66 678.87 119.65 678.88 119.65 678.9 119.65 678.92 119.64 678.95 119.6 678.99 119.54 679.05 119.47 679.1 119.4 679.19 119.27 679.33 119.05 679.4 118.94 679.44 118.89 679.49 118.84 679.51 118.82 679.52 118.8 679.57 118.73 679.61 118.67 679.65 118.61 679.66 118.58 679.68 118.54 679.73 118.47 679.76 118.41 679.84 118.28 679.91 118.14 679.95 118.08 679.97 118.05 680 118.01 680.16 117.84 680.24 117.74 680.4 117.55 680.44 117.49 680.55 117.66 680.42 117.94 680.43 118.06 680.46 118.48 680.67 118.63 681.03 118.8 681.26 118.97 681.39 119.3 681.5 119.05 681.56 118.95 681.6 118.89 681.65 118.82 681.71 118.76 681.81 118.68 681.87 118.64 681.9 118.62 681.94 118.6 681.97 118.6 682.52 118.98 682.52 119 682.51 119.03 682.51 119.05 682.51 119.07 682.51 119.1 682.52 119.12 682.53 119.14 682.54 119.16 682.55 119.19 682.57 119.21 682.59 119.23 682.31 120.09 682.22 120.27 682.09 120.91 681.9 121.66 681.84 121.67 681.77 121.68 681.72 121.68 681.71 121.68 681.7 121.68 681.69 121.69 681.69 121.7 681.69 121.71 681.72 121.76 681.76 121.81 681.77 121.83 681.78 121.85 681.77 121.89 681.71 121.98 681.68 122.05 681.65 122.12 680.97 122.27 680.9 122.64 681.26 122.86 681.35 123.67 681.44 124.06 681.43 124.1 681.39 124.19 681.35 124.28 681.33 124.58 681.22 125.18 681.21 125.22 681.21 125.25 681.2 125.29 681.19 125.34 681.18 125.37 681.18 125.43 681.19 125.47 681.19 125.5 681.19 125.53 681.18 125.57 681.18 125.6 681.17 125.62 681.18 125.65 681.18 125.68 681.19 125.72 681.2 125.75 681.24 125.81 681.27 125.88 681.32 125.98 681.34 126.03 681.38 126.08 681.49 126.42 681.9 126.76 682.43 127.01 682.18 127.03 681.94 127.11 681.04 127.33 680.13 127.54 680.05 127.99 679.92 128.03 679.69 128.03 679.52 128.08 679.39 128.25 679.34 128.27 679.19 128.12 679.14 128.1 679.05 128.18 678.84 128.31 678.63 128.45 678.51 128.48 678.37 128.4 678.24 128.41 678.19 128.36 677.89 128.06 677.74 128 677.55 128.07 677.54 128.26 677.54 128.37 677.55 128.51 677.56 128.67 677.6 128.87 677.62 129.02 677.62 129.07 677.6 129.16 677.58 129.21 677.55 129.25 677.5 129.3 677.46 129.34 677.4 129.41 677.37 129.48 677.33 129.57 677.26 129.65 677.2 129.69 677.15 129.71 677.09 129.73 677.04 129.74 677.01 129.76 676.98 129.79 676.93 129.83 676.87 129.9 676.83 129.95 676.76 130 676.7 130.05 676.64 130.12 676.53 130.23 676.44 130.33 676.38 130.38 676.34 130.41 676.32 130.43 676.32 130.47 676.32 130.51 676.34 130.56 676.38 130.61 676.41 130.65 676.45 130.67 676.48 130.68 676.47 130.71 676.51 130.74 676.55 130.79 676.58 130.83 676.67 130.9 676.76 130.95 676.85 130.99 676.9 131 676.97 131 677.03 131.01 677.08 131.04 677.1 131.08 677.14 131.12 677.21 131.16 677.26 131.18 677.29 131.21 677.33 131.25 677.35 131.28 677.36 131.31 677.34 131.36 677.32 131.4 677.25 131.51 677.21 131.56 677.1 131.66 677.03 131.73 676.99 131.77 676.94 131.79 676.89 131.96 676.81 132.16 676.81 132.37 676.79 132.62 676.74 132.71 676.46 132.94 676.32 133.02 676.17 132.76 676.03 132.88 675.88 133.01 675.87 133 675.78 133.08 675.54 132.8 675.2 132.96 675.17 132.95 675.14 132.94 675.1 132.96 675.03 133 674.92 133.07 674.81 133.14 674.69 133.22 674.58 133.3 674.5 133.36 674.42 133.43 674.37 133.52 674.35 133.55 674.34 133.57 674.33 133.58 674.29 133.6 674.23 133.62 674.18 133.65 674.14 133.69 673.69 133.87 673.46 133.9 673.34 133.88 673.06 133.74 672.88 133.59 672.46 133.33 672.16 133.36 672.12 133.35 672.05 133.32 671.94 133.28 671.83 133.22 671.77 133.19 671.73 133.18 671.72 133.16 671.71 133.16 671.7 133.15 671.69 133.14 671.68 133.13 671.67 133.12 671.66 133.12 671.65 133.11 671.64 133.1 671.63 133.09 671.61 133.07 671.58 133.05 671.56 133.02 671.54 133.02 671.5 132.99 671.45 132.96 671.43 132.94 671.38 132.92 671.33 132.9 671.28 132.87 671.21 132.83 671.1 132.77 671 132.7 670.88 132.62 670.83 132.58 670.79 132.54 670.75 132.51 670.69 132.48 670.64 132.45 670.59 132.41 670.57 132.39 670.53 132.37 670.5 132.36 670.47 132.34 670.41 132.3 670.38 132.29 670.33 132.26 670.29 132.24 670.25 132.22 670.2 132.21 670.17 132.2 670.14 132.2 670.11 132.2 670.06 132.19 670.04 132.19 670.01 132.19 669.97 132.18 669.94 132.17 669.92 132.16 669.89 132.14 669.86 132.13 669.83 132.11 669.8 132.1 669.75 132.05 669.69 131.99 669.66 131.97 669.63 131.94 669.58 131.9 669.53 131.86 669.48 131.83 669.45 131.81 669.42 131.79 669.37 131.75 669.33 131.72 669.3 131.68 669.28 131.65 669.26 131.64 669.23 131.63 669.17 131.61 669.13 131.59 669.09 131.56 668.8 131.44 668.66 131.52 668.63 131.54 668.57 131.57 668.53 131.6 668.48 131.63 668.4 131.68 668.33 131.73 667.3 132.81 667.03 132.97 667.02 133.02 667.02 133.05 667.01 133.07 666.97 133.12 666.93 133.19 666.9 133.25 666.87 133.3 666.86 133.37 666.83 133.48 666.81 133.54 666.8 133.56 666.8 133.57 666.77 133.6 666.75 133.69 666.71 133.83 666.69 133.93 666.69 133.97 666.69 133.99 666.3 135.02 666.21 134.92 665.66 134.3 665.39 133.93 665.13 133.56 664.86 133.19 664.56 132.66 664.25 132.13 663.94 131.6 663.86 131.45 663.72 131.24 663.42 130.91 663.01 130.31 662.6 129.71 662.19 129.11 662.05 128.73 662 128.61 661.81 128.03 661.61 127.45 661.42 126.87 661.22 126.29 660.68 126.01 660.14 125.72 659.6 125.44 659.63 125.37 659.85 125.02 660.06 124.51 660.27 124.01 660.48 123.5 660.49 123.5 660.65 123.36 660.76 123.27 661.04 123.3 661.59 123.22 662.14 123.13 662.7 123.04 662.77 122.38 662.85 121.72 663.43 121.42 664 121.12 664.63 120.76 665.43 120.67 665.45 120.67 665.46 120.67 665.53 120.67 665.62 120.67 665.7 120.67 665.79 120.67 665.85 120.68 665.91 120.69 665.99 120.71 666.26 120.6 667.03 120.35 667.81 120.1 668.55 119.91 669 119.78 669.25 119.65 669.51 119.71 669.76 119.67 670.29 119.4 Z"/>
</g></svg>