<svg xmlns="http://www.w3.org/2000/svg" version="1.2" baseProfile="tiny" stroke-linecap="round" stroke-linejoin="round" viewBox="406.37 109.08 8.43 15.62"><g xmlns="http://www.w3.org/2000/svg" id="Lasarte-Oria">
<path d="M 409.36 109.09 409.45 109.14 409.57 109.17 409.72 109.21 409.81 109.23 409.87 109.25 409.88 109.26 409.89 109.27 409.9 109.29 409.92 109.3 409.97 109.31 410.02 109.32 410.05 109.32 410.09 109.32 410.13 109.33 410.16 109.35 410.19 109.37 410.21 109.39 410.22 109.41 410.24 109.42 410.32 109.45 410.33 109.45 410.34 109.44 410.38 109.42 410.38 109.42 410.41 109.43 410.44 109.44 410.49 109.45 410.54 109.44 410.59 109.45 410.64 109.47 410.76 109.51 410.86 109.55 410.9 109.56 410.92 109.52 411.04 109.61 411.23 109.68 411.38 109.71 411.51 109.73 411.6 109.74 411.7 109.76 411.81 109.7 411.86 109.68 412.16 109.52 412.17 109.52 412.61 109.69 412.25 109.86 412.3 109.86 412.3 109.99 412.26 110.01 412.26 110.06 412.27 110.1 412.28 110.14 412.28 110.18 412.27 110.22 412.27 110.24 412.27 110.27 412.27 110.29 412.27 110.31 412.27 110.34 412.28 110.36 412.28 110.38 412.27 110.42 412.3 110.47 412.31 110.51 412.31 110.52 412.32 110.53 412.32 110.53 412.33 110.54 412.34 110.55 412.35 110.56 412.36 110.57 412.36 110.58 412.36 110.59 412.37 110.6 412.37 110.62 412.37 110.63 412.37 110.64 412.37 110.65 412.37 110.67 412.37 110.68 412.37 110.69 412.37 110.69 412.37 110.7 412.37 110.71 412.37 110.72 412.37 110.73 412.37 110.74 412.38 110.76 412.38 110.77 412.38 110.78 412.38 110.79 412.39 110.79 412.39 110.81 412.39 110.83 412.38 110.83 412.38 110.84 412.38 110.85 412.38 110.86 412.38 110.87 412.38 110.89 412.38 110.89 412.38 110.9 412.38 110.91 412.39 110.92 412.39 110.93 412.4 110.94 412.4 110.95 412.4 110.96 412.4 110.97 412.4 110.98 412.4 110.99 412.4 111 412.4 111.02 412.4 111.03 412.4 111.04 412.4 111.05 412.41 111.15 412.51 111.13 412.63 111.36 412.76 111.44 412.79 111.46 412.82 111.47 412.84 111.48 412.88 111.51 412.9 111.52 412.92 111.54 412.95 111.56 412.95 111.57 412.95 111.58 412.96 111.59 412.96 111.61 412.96 111.62 412.98 111.64 412.99 111.68 413 111.7 413.01 111.71 413.02 111.72 413.04 111.73 413.06 111.74 413.07 111.75 413.09 111.76 413.1 111.77 413.11 111.78 413.13 111.8 413.14 111.81 413.16 111.83 413.17 111.85 413.18 111.85 413.18 111.86 413.18 111.87 413.19 111.89 413.19 111.9 413.2 111.91 413.21 111.92 413.21 111.93 413.22 111.95 413.22 111.96 413.21 111.97 413.2 111.98 413.2 111.99 413.19 112 413.19 112.01 413.18 112.03 413.18 112.04 413.17 112.05 413.16 112.07 413.16 112.08 413.15 112.09 413.14 112.1 413.13 112.11 413.13 112.12 413.12 112.13 413.09 112.15 413.08 112.16 413.07 112.17 413.07 112.18 413.07 112.18 413.07 112.19 413.07 112.2 413.07 112.21 413.07 112.22 413.07 112.24 413.07 112.25 413.06 112.26 413.06 112.27 413.06 112.28 413.05 112.3 413.03 112.34 413.03 112.35 413.02 112.36 413.02 112.37 413.01 112.39 413.01 112.4 413.01 112.4 413.01 112.42 413.01 112.43 413.01 112.44 413.01 112.45 413.01 112.46 413.01 112.47 413.01 112.48 413.01 112.49 413.02 112.5 413.02 112.51 413.02 112.52 413.03 112.53 413.03 112.54 413.02 112.55 413.02 112.57 413.02 112.58 413.01 112.61 413.01 112.62 413.01 112.63 413 112.64 412.97 112.73 412.99 112.74 413 112.76 413.01 112.77 413.04 112.79 413.07 112.82 413.14 112.86 413.2 112.9 413.26 112.93 413.29 112.94 413.3 112.94 413.32 112.95 413.33 112.96 413.33 112.97 413.33 113 413.33 113 413.34 113.03 413.35 113.05 413.36 113.07 413.37 113.09 413.39 113.11 413.4 113.11 413.43 113.13 413.45 113.14 413.47 113.14 413.56 113.23 413.57 113.25 413.57 113.27 413.58 113.29 413.58 113.31 413.59 113.34 413.6 113.36 413.61 113.39 413.63 113.41 413.64 113.43 413.66 113.45 413.68 113.47 413.71 113.48 413.74 113.49 413.77 113.5 413.8 113.51 413.83 113.53 413.86 113.55 413.89 113.56 413.92 113.58 413.94 113.6 413.96 113.62 413.99 113.65 414.03 113.66 414.05 113.68 414.09 113.69 414.13 113.69 414.18 113.71 414.2 113.72 414.22 113.73 414.24 113.76 414.27 113.79 414.28 113.82 414.28 113.84 414.8 113.87 414.78 114.48 414.23 114.46 414.21 114.47 414.22 114.49 414.23 114.54 414.24 114.57 414.26 114.59 414.27 114.63 414.3 114.69 414.31 114.73 414.32 114.76 414.33 114.81 414.34 114.85 414.34 114.91 414.34 115.01 414.35 115.05 414.36 115.09 414.36 115.14 414.36 115.2 414.36 115.26 414.36 115.33 414.35 115.4 414.35 115.47 414.35 115.53 414.35 115.57 414.34 115.64 414.34 115.7 414.34 115.74 414.34 115.77 414.35 115.8 414.34 115.83 414.32 115.86 414.31 115.89 414.3 115.91 414.3 115.93 414.31 115.98 414.33 116.02 414.33 116.06 414.34 116.12 414.34 116.17 414.31 116.18 414.19 117.13 413.75 117.3 412.86 117.66 413.54 119.68 413.29 120.46 413.1 120.99 412.97 121.32 411.59 123.09 411.58 123.1 411.56 123.11 411.53 123.13 411.52 123.14 411.49 123.16 411.46 123.17 411.43 123.17 411.38 123.18 411.33 123.19 411.3 123.2 411.27 123.2 411.24 123.21 411.2 123.23 411.16 123.25 411.12 123.28 411.07 123.31 411.05 123.34 411.03 123.36 410.99 123.41 410.97 123.44 410.94 123.49 410.92 123.52 410.9 123.56 410.87 123.59 410.84 123.64 410.81 123.67 410.78 123.69 410.75 123.72 410.71 123.75 410.67 123.77 410.63 123.79 410.58 123.8 410.51 123.82 410.45 123.84 410.39 123.85 410.33 123.88 410.29 123.9 410.23 123.94 410.18 123.98 410.13 124.03 410.1 124.06 410.07 124.08 410.04 124.1 410.02 124.12 409.98 124.15 409.94 124.17 409.9 124.19 409.86 124.21 409.81 124.24 409.74 124.27 409.69 124.3 409.66 124.31 409.61 124.33 409.58 124.35 409.53 124.38 409.5 124.41 409.47 124.45 409.45 124.46 409.42 124.48 409.4 124.49 409.37 124.5 409.33 124.53 409.29 124.56 409.25 124.59 409.22 124.62 409.17 124.65 409.11 124.66 409.05 124.67 408.99 124.67 408.92 124.67 408.87 124.66 408.84 124.66 408.79 124.66 408.74 124.67 408.69 124.68 408.64 124.63 408.63 124.62 408.61 124.61 408.59 124.61 408.57 124.61 408.56 124.59 408.52 124.57 408.51 124.55 408.49 124.53 408.36 124.31 408.47 124.24 408.46 124.2 408.45 124.17 408.44 124.14 408.44 124.1 408.43 124.06 408.42 124.02 408.42 123.98 408.41 123.93 408.4 123.89 408.4 123.85 408.39 123.82 408.38 123.78 408.38 123.75 408.37 123.7 408.36 123.67 408.35 123.63 408.35 123.6 408.34 123.56 408.34 123.52 408.33 123.48 408.33 123.44 408.32 123.39 408.3 123.35 408.28 123.28 408.25 123.23 408.23 123.2 408.21 123.14 408.16 123.09 408.14 123.06 408.1 123.01 408.05 122.98 408 122.94 407.98 122.92 407.95 122.9 407.92 122.87 407.9 122.84 407.88 122.81 407.85 122.76 407.83 122.71 407.79 122.63 407.77 122.57 407.74 122.51 407.69 122.39 407.92 122.1 408.21 121.69 408.25 121.61 408.28 121.54 408.3 121.49 408.3 121.45 408.32 121.35 408.35 121.09 408.38 120.98 408.4 120.9 408.39 120.82 408.4 120.59 408.43 120.52 408.42 120.47 408.41 120.36 408.41 120.29 408.4 120.19 408.4 120.11 408.4 120.02 408.4 119.91 408.42 119.56 408.43 119.44 408.43 119.34 408.46 118.93 408.48 118.77 408.52 118.6 408.57 118.37 408.63 118.15 408.69 117.89 408.72 117.68 408.75 117.42 408.77 117.21 408.78 117.06 408.77 116.97 408.73 116.75 408.72 116.27 408.7 115.95 408.68 115.87 408.59 115.75 408.45 115.51 408.41 115.42 408.41 115.37 408.4 115.29 408.4 115.23 408.4 115.16 408.4 115.11 408.39 115.01 408.38 114.93 408.35 114.83 408.32 114.75 408.29 114.66 408.27 114.6 408.25 114.54 408.23 114.5 408.21 114.44 408.18 114.38 408.16 114.33 408.14 114.28 408.12 114.23 408.09 114.12 408.06 114.04 408.03 113.97 408 113.89 407.97 113.83 407.91 113.74 407.86 113.67 407.78 113.55 407.74 113.51 407.72 113.49 407.69 113.45 407.67 113.43 407.64 113.39 407.62 113.36 407.58 113.32 407.38 113.08 407.36 113.05 407.33 113.01 407.3 112.98 407.27 112.95 407.23 112.91 407.2 112.88 407.16 112.85 407.13 112.83 407.08 112.8 407.05 112.78 407.01 112.74 406.98 112.72 406.94 112.69 406.91 112.66 406.87 112.63 406.84 112.61 406.8 112.58 406.77 112.56 406.75 112.53 406.71 112.5 406.68 112.46 406.64 112.42 406.59 112.34 406.57 112.28 406.56 112.23 406.55 112.16 406.55 112.08 406.55 112.01 406.55 111.97 406.55 111.93 406.55 111.89 406.55 111.85 406.54 111.82 406.51 111.79 406.47 111.74 406.42 111.7 406.37 111.65 406.39 111.61 407.05 111.73 407.55 111.76 407.59 111.74 407.61 111.73 407.64 111.71 407.68 111.69 407.73 111.66 407.76 111.65 407.79 111.64 407.83 111.63 407.87 111.62 407.97 111.61 408.02 111.6 408.05 111.56 408 111.45 407.95 111.35 407.93 111.3 407.91 111.25 407.9 111.22 407.89 111.17 407.89 111.13 407.9 111.08 407.91 111.05 407.94 111.01 407.97 110.99 408.02 110.97 408.07 110.95 408.14 110.91 408.8 110.84 409.03 110.54 409.24 110.2 409.31 110.03 409.37 109.77 409.33 109.4 409.31 109.24 409.36 109.09 Z"/>
</g></svg>