<svg xmlns="http://www.w3.org/2000/svg" version="1.2" baseProfile="tiny" stroke-linecap="round" stroke-linejoin="round" viewBox="356.63 199.55 26.3 24.9"><g xmlns="http://www.w3.org/2000/svg" id="Lazkao">
<path d="M 375.24 216.56 376.7 215.19 376.74 215.16 376.76 215.19 376.77 215.23 376.78 215.28 376.78 215.39 376.77 215.45 376.77 215.49 376.76 215.52 376.74 215.56 376.72 215.6 376.68 215.63 376.65 215.65 376.61 215.67 376.57 215.68 376.55 215.69 376.53 215.71 376.51 215.74 376.49 215.77 376.48 215.81 376.49 215.84 376.5 215.87 376.51 215.89 376.54 215.9 376.57 215.91 376.62 215.91 376.65 215.91 376.67 215.92 376.7 215.94 376.71 215.94 376.74 215.94 376.77 215.93 376.8 215.92 376.82 215.89 376.85 215.87 376.87 215.84 376.9 215.82 376.92 215.8 376.94 215.8 376.97 215.81 377 215.82 377.03 215.85 377.07 215.88 377.11 215.9 377.15 215.93 377.19 215.95 377.25 215.97 377.32 216 377.36 216.01 377.4 216.01 377.44 216.01 377.49 216 377.58 216 377.62 216.01 377.63 216.04 377.64 216.05 377.64 216.08 377.63 216.11 377.62 216.14 377.6 216.17 377.57 216.2 377.54 216.25 377.52 216.3 377.5 216.36 377.5 216.39 377.52 216.42 377.53 216.46 377.57 216.49 377.62 216.53 377.67 216.56 377.71 216.58 377.76 216.61 377.8 216.62 377.85 216.65 377.91 216.67 377.96 216.69 378.02 216.72 378.05 216.74 378.1 216.76 378.13 216.75 378.15 216.75 378.16 216.75 378.17 216.74 378.2 216.73 378.24 216.71 378.27 216.69 378.29 216.68 378.33 216.66 378.34 216.66 378.39 216.64 378.44 216.62 378.5 216.6 378.53 216.59 378.59 216.58 378.64 216.58 378.7 216.59 378.73 216.59 378.76 216.59 378.8 216.61 378.84 216.62 378.87 216.63 378.9 216.63 378.94 216.63 378.97 216.62 379.01 216.62 379.05 216.6 379.08 216.58 379.1 216.57 379.15 216.57 379.16 216.58 379.18 216.59 379.18 216.61 379.2 216.65 379.2 216.68 379.2 216.71 379.21 216.75 379.22 216.78 379.24 216.79 379.26 216.8 379.28 216.8 379.3 216.8 379.33 216.79 379.35 216.77 379.39 216.75 379.41 216.73 379.44 216.72 379.47 216.71 379.52 216.7 379.55 216.7 379.57 216.71 379.59 216.71 379.62 216.72 379.65 216.74 379.67 216.75 379.7 216.78 379.73 216.79 379.76 216.81 379.8 216.82 379.84 216.84 379.86 216.86 379.87 216.87 379.88 216.89 379.86 216.93 379.83 216.96 379.8 217.01 379.77 217.05 379.75 217.08 379.71 217.13 379.67 217.18 379.62 217.23 379.57 217.31 379.54 217.35 379.47 217.44 379.44 217.48 379.4 217.52 379.37 217.57 379.35 217.59 379.35 217.6 379.34 217.64 379.34 217.67 379.35 217.7 379.37 217.71 379.4 217.75 379.43 217.78 379.46 217.81 379.49 217.82 379.51 217.85 379.53 217.92 379.57 218 379.62 218.03 379.62 218.07 379.61 218.17 379.62 218.25 379.63 218.28 381.4 218.26 381.5 218.55 381.56 218.97 381.6 219.34 381.85 219.6 382.17 219.76 382.41 220.58 380.5 221.22 380.5 221.25 380.51 221.28 380.51 221.33 380.51 221.37 380.53 221.41 380.54 221.47 380.56 221.51 380.58 221.57 380.6 221.63 380.62 221.68 380.65 221.72 380.69 221.77 380.7 221.82 380.71 221.88 380.73 221.91 380.77 221.95 380.81 221.99 380.84 222.03 380.86 222.09 380.89 222.19 380.91 222.24 380.93 222.28 380.94 222.28 382.2 222.11 382.56 222.06 382.6 222.1 382.66 222.19 382.7 222.32 382.74 222.48 382.82 222.65 382.88 222.73 382.93 222.8 379.83 224.43 378.58 223.94 378.69 221.88 378.68 221.9 378.64 221.87 378.62 221.86 378.6 221.84 378.57 221.8 378.55 221.77 378.53 221.72 378.51 221.69 378.45 221.62 378.4 221.56 378.38 221.53 378.37 221.51 378.37 221.5 378.34 221.49 378.3 221.48 378.23 221.45 378.14 221.41 378.08 221.37 377.99 221.29 377.91 221.24 377.85 221.21 377.78 221.19 377.71 221.17 377.63 221.16 377.56 221.15 377.5 221.13 377.44 221.11 377.4 221.09 377.36 221.08 377.3 221.06 377.23 221.03 377.2 221.02 377.15 221.01 377.09 221.01 377.05 221.01 377.02 221.05 376.99 221.08 376.96 221.11 376.94 221.12 376.92 221.12 376.9 221.12 376.89 221.11 376.83 221.08 376.7 221.01 376.6 220.96 376.51 220.93 376.47 220.92 376.44 220.92 376.43 220.91 376.41 220.9 376.38 220.88 376.35 220.87 376.32 220.86 376.29 220.86 376.23 220.86 376.14 220.86 376.08 220.87 376.01 220.89 375.96 220.92 375.92 220.94 375.9 220.95 375.85 220.95 375.83 220.95 375.8 220.94 375.77 220.93 375.74 220.92 375.7 220.89 375.68 220.87 374.99 220.56 374.74 220.43 374.69 220.24 372.68 216.06 370.78 213.22 370.82 213.24 370.93 213.3 370.97 213.33 371.01 213.36 371.06 213.4 371.12 213.44 371.15 213.47 371.21 213.51 371.27 213.55 371.31 213.58 371.36 213.61 371.39 213.65 371.44 213.69 371.49 213.75 371.52 213.79 371.55 213.81 371.59 213.82 371.63 213.83 371.68 213.85 371.72 213.87 371.77 213.89 371.8 213.91 371.84 213.93 371.89 213.96 371.94 213.98 371.97 214 372.03 214.04 372.05 214.05 372.06 214.04 373.3 212.32 373.32 212.3 373.35 212.28 373.38 212.25 373.43 212.22 373.44 212.23 373.46 212.25 373.48 212.28 373.5 212.3 373.51 212.32 373.51 212.33 373.52 212.35 373.52 212.36 373.52 212.38 373.52 212.39 373.52 212.41 373.52 212.43 373.52 212.45 373.52 212.47 373.52 212.49 373.52 212.5 373.53 212.52 373.53 212.53 373.54 212.55 373.55 212.57 373.55 212.59 373.57 212.61 373.58 212.63 373.59 212.65 373.6 212.66 373.61 212.67 373.63 212.68 373.65 212.68 373.67 212.69 373.69 212.7 373.71 212.71 373.73 212.71 373.75 212.71 373.76 212.72 373.78 212.72 373.81 212.74 373.81 212.74 373.84 212.76 373.87 212.77 373.9 212.79 373.93 212.8 373.95 212.82 373.97 212.84 373.99 212.86 374.01 212.88 374.04 212.9 374.06 212.92 374.08 212.95 374.09 212.97 374.1 212.99 374.13 213.03 374.15 213.06 374.17 213.07 374.19 213.09 374.21 213.1 374.24 213.12 374.26 213.14 374.29 213.16 374.3 213.17 374.31 213.19 374.33 213.21 374.34 213.22 374.36 213.23 374.36 213.25 374.38 213.27 374.39 213.3 374.41 213.32 374.43 213.34 374.44 213.35 374.45 213.36 374.48 213.38 374.51 213.39 374.53 213.4 374.55 213.4 374.58 213.39 374.62 213.38 374.65 213.37 374.69 213.36 374.71 213.35 374.75 213.32 374.77 213.3 374.8 213.28 374.82 213.27 374.84 213.27 374.86 213.28 374.89 213.29 374.91 213.3 374.9 213.33 374.5 214 374.51 214.01 374.61 214.03 374.68 214.05 374.72 214.06 374.77 214.07 374.79 214.07 374.86 214.1 374.94 214.13 375 214.16 375.03 214.17 375.05 214.19 375.06 214.2 375.08 214.22 375.09 214.25 375.1 214.28 375.11 214.29 375.15 214.25 374.15 216.21 375.24 216.56 Z M 375.24 216.56 375.24 216.58 375.25 216.6 375.24 216.63 375.2 216.64 375.12 216.67 375.1 216.68 375.09 216.69 375.09 216.71 375.09 216.74 375.08 216.8 375.08 216.87 375.09 216.94 375.07 217 375.06 217.06 375.06 217.12 375.06 217.16 375.06 217.2 375.02 217.26 374.99 217.31 374.94 217.41 374.93 217.43 374.91 217.46 374.91 217.51 374.9 217.53 374.85 217.66 374.84 217.73 374.83 217.79 374.82 217.82 374.85 217.88 374.87 217.96 374.87 218.04 374.88 218.17 374.9 218.22 374.91 218.25 374.93 218.29 374.95 218.31 374.96 218.37 374.95 218.41 374.91 218.49 374.9 218.51 375.97 218.96 376.74 219.4 377.23 219.83 377.55 219.9 377.88 219.92 378.04 219.91 378.25 219.95 378.64 219.94 379.35 219.93 379.72 219.9 379.95 219.98 379.93 219.94 379.93 219.81 379.94 219.76 379.94 219.7 379.95 219.66 379.96 219.64 379.98 219.61 379.99 219.57 379.99 219.55 380 219.52 380.03 219.48 380.04 219.44 380.05 219.41 380.05 219.38 380.04 219.35 380.02 219.31 380.02 219.28 380.01 219.24 380 219.2 379.98 219.17 379.94 219.13 379.94 219.11 379.92 219.07 379.91 219.02 379.9 218.97 379.74 218.99 378.86 217.66 377.4 217.55 376.92 217.43 376.54 217.33 375.73 216.91 375.24 216.56 Z M 362.17 200.2 362.19 200.66 362.23 201.3 362.3 201.35 362.37 201.39 362.41 201.41 362.46 201.43 362.51 201.44 362.55 201.46 362.58 201.47 362.63 201.48 362.66 201.49 362.7 201.5 362.74 201.51 362.78 201.52 362.81 201.53 362.84 201.54 362.91 201.57 362.95 201.58 362.99 201.6 363.03 201.61 363.07 201.62 363.11 201.63 363.16 201.65 363.2 201.66 363.27 201.67 363.32 201.69 363.37 201.69 363.42 201.69 363.47 201.7 363.51 201.7 363.52 201.7 363.56 201.7 363.59 201.71 363.62 201.71 363.65 201.72 363.68 201.72 363.7 201.72 363.72 201.72 363.74 201.71 363.76 201.71 363.78 201.71 363.8 201.71 363.83 201.71 363.86 201.7 363.89 201.7 363.92 201.7 363.94 201.71 363.96 201.72 363.98 201.73 364.01 201.74 364.04 201.74 364.06 201.75 364.1 201.76 364.15 201.77 364.18 201.78 364.21 201.79 364.24 201.79 364.28 201.82 364.32 201.84 364.36 201.87 364.39 201.89 364.42 201.92 364.44 201.93 364.46 201.95 364.48 201.97 364.49 201.99 364.5 202 364.51 202.02 364.52 202.04 364.53 202.06 364.57 202.13 364.61 202.21 364.64 202.27 364.66 202.33 364.68 202.39 364.69 202.43 364.71 202.48 364.75 202.57 364.81 202.72 364.82 202.75 364.82 202.78 364.83 202.81 364.83 202.86 364.85 202.92 364.86 202.95 364.89 202.99 364.92 203.02 364.96 203.08 364.98 203.09 365 203.11 365.04 203.15 365.06 203.18 365.11 203.21 365.16 203.26 365.2 203.31 365.24 203.35 365.3 203.4 365.33 203.43 365.34 203.44 365.77 203.18 366.15 202.97 366.49 202.77 366.62 202.62 367.11 201.88 367.14 202.47 367.22 203.03 367.81 202.88 367.98 203.18 368.34 203.52 368.49 203.66 368.52 203.67 368.53 203.64 368.54 203.62 368.56 203.6 368.61 203.58 368.68 203.56 368.74 203.55 368.79 203.53 368.85 203.51 368.92 203.5 368.97 203.49 369.01 203.48 369 203.51 368.99 203.53 368.99 203.57 368.99 203.59 368.98 203.62 368.98 203.67 368.99 203.72 369 203.77 369.01 203.8 369.03 203.83 369.05 203.9 369.06 203.93 369.08 203.97 369.09 204.02 369.1 204.06 369.14 204.13 369.15 204.2 369.18 204.32 369.22 204.41 369.25 204.48 369.29 204.54 369.3 204.58 369.34 204.68 369.35 204.73 369.36 204.74 369.57 205.19 369.68 205.46 369.93 205.43 369.99 205.62 369.42 205.8 369.51 206.18 369.71 206.7 369.77 206.7 369.83 206.68 369.87 206.68 369.94 206.68 370 206.69 370.06 206.7 370.11 206.7 370.15 206.71 370.21 206.73 370.28 206.75 370.33 206.77 370.36 206.78 370.4 206.8 370.44 206.82 370.47 206.86 370.52 206.9 370.56 206.94 370.58 206.97 370.61 206.99 370.65 207.02 370.67 207.03 370.7 207.05 370.73 207.03 370.78 207.02 370.83 207.01 370.89 207 370.95 206.98 371 206.96 371.04 206.96 371.07 206.94 371.1 206.92 370.83 207.57 370.81 207.96 370.76 208.97 371.44 209.95 371.44 209.96 371.43 209.96 371.34 209.97 371.26 209.99 371.16 210.02 371.04 210.03 370.99 210.03 370.9 210.04 370.83 210.06 370.78 210.08 370.73 210.1 370.67 210.11 370.63 210.12 370.57 210.14 370.52 210.15 370.46 210.16 370.39 210.18 370.34 210.19 370.31 210.2 370.26 210.22 370.22 210.23 370.17 210.24 370.1 210.26 370.03 210.29 369.99 210.3 369.94 210.31 369.91 210.34 369.87 210.36 369.84 210.37 369.81 210.39 369.78 210.42 369.72 210.46 369.66 210.52 369.62 210.56 369.58 210.58 369.53 210.61 369.48 210.63 369.43 210.66 369.43 210.67 369.38 210.98 369.15 211.07 368.97 211.12 368.49 211.04 368.04 211.02 368.05 210.85 367.98 210.62 366.6 210.98 366.66 210.85 366.65 210.85 366.62 210.84 366.6 210.83 366.57 210.83 366.54 210.83 366.52 210.84 366.5 210.87 366.46 210.9 366.45 210.92 366.43 210.95 366.4 210.96 366.37 210.98 366.33 210.99 366.29 211.01 366.25 211.02 366.22 211.03 366.2 211.03 366.17 211.01 366.13 211 366.09 210.99 366.05 210.97 366.01 210.95 366 210.93 365.97 210.91 365.94 210.87 365.93 210.86 365.91 210.84 365.89 210.83 365.87 210.82 365.82 210.81 365.78 210.81 365.75 210.81 365.72 210.8 365.67 210.79 365.64 210.78 365.62 210.77 365.58 210.76 365.53 210.76 365.5 210.76 365.45 210.76 365.41 210.78 365.36 210.81 365.33 210.82 365.29 210.83 365.25 210.84 365.21 210.85 365.17 210.85 365.13 210.89 365.09 210.92 365.02 210.95 364.99 210.96 364.96 210.98 364.95 210.98 364.8 211.16 363.4 211.56 362.7 211.7 362.72 212.44 362.65 212.77 362.29 213.45 362.28 213.46 362.28 213.47 362.27 213.47 362.27 213.48 362.26 213.49 362.26 213.5 362.25 213.5 362.25 213.51 362.25 213.52 362.24 213.54 362.24 213.55 362.24 213.57 362.23 213.58 362.23 213.6 362.23 213.61 362.23 213.63 362.22 213.64 362.22 213.66 362.21 213.68 362.21 213.69 362.2 213.71 362.2 213.72 362.19 213.72 362.19 213.73 362.18 213.74 362.18 213.75 362.17 213.75 362.16 213.76 362.16 213.77 362.15 213.77 362.14 213.78 362.13 213.78 362.13 213.79 362.12 213.8 362.11 213.8 362.1 213.81 362.1 213.81 362.09 213.82 362.08 213.82 362.07 213.83 362.05 213.84 362.03 213.85 362.01 213.86 361.98 213.87 361.96 213.88 361.94 213.89 361.92 213.9 361.9 213.91 361.88 213.93 361.86 213.94 361.84 213.95 361.82 213.95 361.81 213.96 361.79 213.96 361.78 213.97 361.76 213.97 361.75 213.97 361.73 213.97 361.71 213.98 361.7 213.98 361.68 213.98 361.66 213.98 361.65 213.98 361.63 213.98 361.62 213.98 361.6 213.98 361.59 213.99 361.59 213.99 361.58 213.99 361.57 213.99 361.56 214 361.56 214 361.55 214 361.54 214 361.54 214.01 361.53 214.01 361.53 214.01 361.52 214.02 361.51 214.03 361.42 214.12 361.41 214.13 361.39 214.15 361.29 214.25 361.15 214.34 361.13 214.36 361.13 214.37 361.12 214.37 361.12 214.38 361.11 214.39 361.11 214.39 361.1 214.4 361.09 214.41 361.09 214.41 361.09 214.42 361.08 214.43 361.08 214.43 361.07 214.44 361.07 214.45 361.07 214.46 361.06 214.47 361.06 214.47 361.06 214.48 361.06 214.49 361.05 214.5 361.05 214.51 361.05 214.51 361.05 214.52 361.05 214.53 361.05 214.54 361.05 214.55 361.05 214.56 361.05 214.57 361.05 214.58 361.05 214.59 361.05 214.6 361.05 214.61 361.05 214.61 361.06 214.62 361.06 214.63 361.07 214.64 361.07 214.65 361.07 214.66 361.08 214.66 361.08 214.67 361.08 214.68 361.08 214.69 361.08 214.7 361.09 214.71 361.09 214.72 361.09 214.73 361.09 214.73 361.09 214.74 361.09 214.75 361.09 214.76 361.09 214.77 361.09 214.78 361.09 214.79 361.08 214.8 361.08 214.81 361.08 214.82 361.08 214.82 361.08 214.83 361.07 214.84 361.07 214.85 361.07 214.86 361.06 214.87 361.06 214.88 361.06 214.88 361.05 214.89 361.05 214.9 361.04 214.91 361.04 214.91 361.03 214.92 361.03 214.93 361.02 214.93 361.02 214.94 361.01 214.95 361 214.96 361 214.96 360.99 214.97 360.98 214.97 360.98 214.98 360.97 214.98 360.96 214.99 360.95 214.99 360.95 215 360.94 215 360.93 215.01 360.93 215.02 360.92 215.02 360.92 215.03 360.91 215.03 360.91 215.04 360.9 215.05 360.9 215.05 360.89 215.06 360.89 215.07 360.88 215.08 360.88 215.08 360.88 215.09 360.87 215.1 360.87 215.11 360.87 215.11 360.86 215.12 360.86 215.13 360.86 215.14 360.86 215.15 360.85 215.15 360.85 215.16 360.85 215.17 360.85 215.18 360.85 215.2 360.86 215.21 360.86 215.23 360.87 215.25 360.87 215.26 360.88 215.28 360.88 215.3 360.89 215.31 360.89 215.33 360.9 215.35 360.9 215.36 360.91 215.38 360.91 215.39 360.92 215.4 360.92 215.41 360.92 215.42 360.92 215.43 360.92 215.44 360.91 215.45 360.91 215.46 360.91 215.47 360.9 215.48 360.89 215.49 360.87 215.51 360.84 215.54 360.81 215.56 360.79 215.58 360.76 215.61 360.73 215.63 360.7 215.66 360.68 215.68 360.64 215.75 360.63 215.76 360.61 215.78 360.59 215.8 360.57 215.82 360.57 215.83 360.57 215.85 360.58 215.87 360.59 215.9 360.57 216 360.53 216.1 360.46 216.18 360.38 216.25 360.34 216.32 360.32 216.36 360.27 216.47 360.26 216.6 360.26 216.8 360.26 216.9 360.26 216.91 360.26 216.93 360.26 216.93 360.26 216.94 360.26 216.95 360.26 216.96 360.26 216.97 360.27 216.97 360.27 216.98 360.27 216.99 360.28 217 360.29 217.02 360.3 217.03 360.31 217.04 360.31 217.04 360.32 217.05 360.33 217.06 360.34 217.07 360.34 217.08 360.35 217.09 360.35 217.1 360.36 217.11 360.36 217.12 360.36 217.13 360.36 217.13 360.37 217.14 360.37 217.15 360.37 217.16 360.37 217.16 360.37 217.17 360.37 217.18 360.37 217.18 360.37 217.19 360.38 217.2 360.38 217.2 360.38 217.21 360.38 217.23 360.38 217.23 360.37 217.24 360.37 217.25 360.37 217.26 360.37 217.27 360.37 217.27 360.36 217.28 360.36 217.29 360.36 217.3 360.35 217.31 360.34 217.32 360.3 217.36 360.25 217.41 360.22 217.52 360.16 217.59 360.05 217.63 360.03 217.65 359.95 217.71 359.9 217.74 359.84 217.8 359.78 217.85 359.76 217.86 359.74 217.87 359.73 217.88 359.71 217.89 359.7 217.9 359.68 217.91 359.66 217.91 359.65 217.92 359.56 218 359.5 218.08 359.49 218.09 359.43 218.14 359.29 218.3 359.21 218.37 359.2 218.37 359.18 218.38 359.17 218.39 359.16 218.4 359.14 218.4 359.13 218.41 359.11 218.42 359.1 218.42 359.08 218.43 359.07 218.43 359.05 218.44 359.03 218.46 359.01 218.47 358.98 218.48 358.96 218.49 358.94 218.5 358.92 218.51 358.9 218.52 358.87 218.53 358.85 218.54 358.83 218.55 358.82 218.55 358.81 218.56 358.81 218.56 358.8 218.57 358.79 218.57 358.78 218.57 358.77 218.58 358.76 218.58 358.75 218.58 358.74 218.58 358.74 218.58 358.73 218.59 358.72 218.59 358.71 218.59 358.7 218.59 358.69 218.59 358.68 218.59 358.67 218.59 358.66 218.59 358.65 218.59 358.64 218.59 358.63 218.59 358.63 218.59 358.62 218.58 358.61 218.58 358.6 218.58 358.59 218.58 358.58 218.57 358.57 218.57 358.56 218.57 358.55 218.57 358.54 218.57 358.53 218.57 358.52 218.58 358.51 218.58 358.5 218.58 358.49 218.58 358.48 218.58 358.47 218.59 358.46 218.59 358.46 218.59 358.45 218.6 358.44 218.6 358.43 218.61 358.42 218.61 358.41 218.62 358.4 218.62 358.39 218.63 358.38 218.64 358.37 218.64 358.36 218.65 358.35 218.65 358.35 218.66 358.34 218.66 358.33 218.67 358.32 218.67 358.31 218.67 358.3 218.68 358.28 218.68 358.27 218.68 358.26 218.68 358.25 218.69 358.24 218.69 358.23 218.69 358.22 218.69 358.21 218.69 357.63 218.9 356.74 218.48 356.73 218.47 356.72 218.46 356.71 218.44 356.69 218.37 356.69 218.26 356.67 218.19 356.66 218.14 357.33 217.19 357.83 216.48 358.23 215.88 358.27 215.83 358.29 215.77 358.3 215.72 358.31 215.67 358.31 215.62 358.32 215.55 358.33 215.5 358.33 215.46 358.34 215.42 358.35 215.36 358.35 215.34 358.3 215.25 358.28 215.18 358.25 215.13 358.22 215.09 358.2 215.04 358.17 215 358.15 214.96 358.13 214.91 358.1 214.86 358.07 214.82 358.06 214.77 358.02 214.74 358 214.71 357.99 214.68 357.98 214.63 357.96 214.57 357.94 214.52 357.93 214.48 357.93 214.47 357.91 214.42 357.9 214.39 357.87 214.34 357.85 214.29 357.82 214.23 357.8 214.2 357.76 214.14 357.69 214.02 357.65 213.91 357.62 213.87 357.61 213.84 357.6 213.81 357.58 213.75 357.58 213.74 357.59 213.73 358.15 213.28 358.38 213.09 358.53 212.98 358.9 212.68 358.91 212.68 359.22 212.42 359.48 212.23 359.79 211.97 360.21 211.65 360.21 211.65 360.18 211.61 360.17 211.58 360.17 211.54 360.15 211.48 360.15 211.45 360.15 211.44 360.14 211.41 360.14 211.39 360.13 211.35 360.13 211.3 360.12 211.25 360.11 211.19 360.09 211.16 360.07 211.11 360.06 211.07 360.04 211.02 360.04 210.97 360.04 210.94 360.05 210.9 360.05 210.83 360.07 210.78 360.07 210.75 360.09 210.71 360.11 210.68 360.13 210.63 360.15 210.6 360.16 210.56 360.17 210.54 360.17 210.5 360.17 210.46 360.18 210.43 360.19 210.39 360.2 210.31 360.21 210.26 360.22 210.23 360.23 210.21 360.26 210.16 360.29 210.08 360.31 210.04 360.32 210.03 360.32 210.01 360.34 209.97 360.35 209.93 360.36 209.93 360.37 209.89 360.4 209.84 360.42 209.82 360.44 209.8 360.48 209.75 360.51 209.7 360.56 209.65 360.58 209.61 360.61 209.57 360.62 209.55 360.64 209.5 360.65 209.46 360.65 209.43 360.66 209.4 360.66 209.26 360.65 209.18 360.65 209.11 360.63 209.02 360.62 208.92 360.62 208.87 360.61 208.76 360.6 208.69 360.58 208.65 360.58 208.56 360.57 208.55 360.57 208.53 360.59 208.53 360.68 208.07 360.66 207.8 360.68 207.79 360.72 207.78 360.74 207.76 360.76 207.73 360.8 207.69 360.83 207.63 360.9 207.5 360.95 207.4 360.98 207.34 360.99 207.32 361 207.3 361.01 207.28 361.03 207.25 361.04 207.23 361.04 207.22 359.88 205.99 359.63 205.67 359.4 205.28 358.95 204.71 358.92 203.65 358.94 203.46 359.55 203.17 360.12 202.88 360.3 202.77 360.85 202.43 360.83 202.4 360.81 202.39 360.77 202.36 360.72 202.33 360.67 202.31 360.52 202.25 360.51 202.24 360.47 202.22 360.4 202.2 360.38 202.18 360.36 202.17 360.34 202.16 360.34 202.14 360.34 202.11 360.34 202.06 360.35 202.02 360.39 201.89 360.42 201.78 360.43 201.68 360.44 201.65 360.45 201.53 360.46 201.49 360.48 201.43 360.5 201.32 360.51 201.27 360.51 201.2 360.51 201.16 360.51 201.15 360.5 201.05 360.5 201 360.5 200.96 360.5 200.92 360.51 200.87 360.52 200.77 360.54 200.69 360.55 200.63 360.56 200.55 360.55 200.5 360.54 200.44 360.51 200.36 360.51 200.3 360.51 200.28 360.53 200.19 360.56 200.09 360.56 200.02 360.56 199.98 360.59 199.92 360.61 199.88 360.62 199.83 360.64 199.8 360.66 199.72 360.67 199.65 360.67 199.63 360.68 199.58 361.51 199.99 362.17 200.2 Z M 369.73 211.45 370.11 211.68 369.19 211.77 369.2 211.76 369.26 211.75 369.31 211.73 369.34 211.71 369.36 211.67 369.37 211.64 369.4 211.61 369.46 211.57 369.52 211.54 369.58 211.51 369.65 211.48 369.69 211.46 369.73 211.45 Z" fill-rule="evenodd"/>
</g></svg>