<svg xmlns="http://www.w3.org/2000/svg" version="1.2" baseProfile="tiny" stroke-linecap="round" stroke-linejoin="round" viewBox="392.88 166.63 12.38 9.07"><g xmlns="http://www.w3.org/2000/svg" id="Leaburu">
<path d="M 400.61 167.74 401.33 167.74 401.33 167.66 401.33 167.62 401.33 167.59 401.33 167.56 401.33 167.54 401.34 167.5 401.35 167.46 401.36 167.42 401.36 167.39 401.36 167.36 401.36 167.32 401.35 167.29 401.35 167.27 401.34 167.23 401.33 167.18 401.37 166.66 401.79 166.75 402.65 166.95 403.54 167.15 404.56 167.4 405.26 167.55 405.07 169.28 405.06 169.29 405.04 169.31 405.03 169.33 405.02 169.35 405.01 169.37 404.99 169.39 404.97 169.41 404.95 169.42 404.93 169.45 404.92 169.46 404.89 169.48 404.87 169.49 404.86 169.51 404.84 169.53 404.82 169.55 404.8 169.57 404.78 169.59 404.76 169.61 404.75 169.63 404.73 169.66 404.71 169.69 404.69 169.71 404.67 169.74 404.65 169.77 404.64 169.79 404.62 169.83 404.6 169.86 404.59 169.88 404.57 169.9 404.55 169.91 404.53 169.94 404.5 169.95 404.49 169.95 404.47 169.96 404.44 169.98 404.41 170 404.35 170.01 404.32 170.03 404.3 170.04 404.27 170.05 404.24 170.07 404.22 170.08 404.21 170.08 404.2 170.09 404.18 170.1 404.15 170.12 404.13 170.14 404.1 170.16 404.08 170.17 404.07 170.19 404.06 170.22 404.04 170.24 404.03 170.26 404.01 170.27 404 170.28 403.98 170.31 403.95 170.33 403.93 170.35 403.91 170.38 403.9 170.41 403.89 170.43 403.88 170.44 403.87 170.46 403.86 170.48 403.84 170.5 403.82 170.52 403.8 170.56 403.78 170.58 403.77 170.59 403.76 170.6 403.74 170.62 403.71 170.64 403.69 170.65 403.66 170.67 403.64 170.69 403.63 170.7 403.62 170.73 403.61 170.74 403.59 170.75 403.58 170.77 403.56 170.78 403.54 170.8 403.53 170.82 403.52 170.84 403.52 170.85 403.5 170.88 403.49 170.91 403.49 170.95 403.49 170.98 403.47 170.99 403.47 171 403.46 171.02 403.45 171.03 403.43 171.05 403.41 171.07 403.39 171.08 403.37 171.08 403.35 171.08 403.33 171.08 403.3 171.07 403.26 171.07 403.23 171.06 403.2 171.05 403.17 171.04 403.15 171.03 403.12 171.03 403.07 171.02 403.03 171.01 402.99 171.01 402.97 171 402.95 170.99 402.93 170.99 402.9 170.99 402.88 170.98 402.84 170.98 402.81 170.98 402.78 171 402.74 171.02 402.72 171.03 402.71 171.05 402.67 171.06 402.65 171.06 402.62 171.07 402.59 171.09 402.54 171.09 402.5 171.1 402.46 171.11 402.43 171.11 402.38 171.12 402.33 171.12 402.26 171.14 402.21 171.14 402.16 171.15 402.12 171.16 402.09 171.16 402.05 171.16 401.99 171.18 401.94 171.19 401.9 171.2 401.86 171.21 401.81 171.22 401.76 171.24 401.7 171.26 401.65 171.27 401.61 171.29 401.57 171.3 401.54 171.3 401.49 171.31 401.45 171.31 401.43 171.32 401.4 171.33 401.37 171.35 401.32 171.38 401.27 171.38 401.23 171.39 401.17 171.4 401.14 171.4 401.1 171.4 401.07 171.4 401.04 171.41 401.02 171.42 401.01 171.43 400.97 171.44 400.94 171.46 400.91 171.47 400.86 171.49 400.83 171.5 400.79 171.52 400.76 171.53 400.74 171.54 400.71 171.56 400.68 171.58 400.64 171.62 400.62 171.65 400.59 171.67 400.56 171.7 400.53 171.73 400.49 171.76 400.46 171.78 400.44 171.79 400.42 171.8 400.38 171.81 400.35 171.83 400.32 171.86 400.29 171.89 400.27 171.92 400.26 171.95 400.25 171.98 400.24 172.01 400.23 172.03 400.22 172.05 400.21 172.06 400.2 172.07 400.18 172.08 400.15 172.09 400.11 172.09 400.09 172.1 400.07 172.11 400.05 172.13 400.03 172.15 400.02 172.16 400.02 172.17 400.01 172.2 400 172.22 400 172.26 400 172.29 400 172.32 400.01 172.34 400 172.37 399.99 172.39 399.97 172.4 399.95 172.41 399.92 172.42 399.88 172.42 399.83 172.43 399.8 172.44 399.78 172.45 399.76 172.46 399.75 172.48 399.72 172.49 399.7 172.52 399.68 172.54 399.63 172.56 399.59 172.57 399.55 172.58 399.51 172.59 399.43 172.61 399.4 172.63 399.37 172.64 399.34 172.64 399.31 172.64 399.28 172.64 399.23 172.64 399.21 172.64 399.19 172.64 399.18 172.64 399.16 172.65 399.15 172.66 399.12 172.68 399.1 172.71 399.08 172.73 399.07 172.75 399.05 172.78 399.04 172.8 399.03 172.82 399.03 172.82 399.03 172.84 399.03 172.86 399.02 172.88 399.02 172.9 399.01 172.93 399 172.95 398.98 172.98 398.96 173 398.95 173.02 398.94 173.03 398.92 173.05 398.9 173.07 398.88 173.09 398.87 173.1 398.85 173.12 398.82 173.15 398.8 173.18 398.78 173.2 398.76 173.23 398.75 173.26 398.74 173.29 398.73 173.32 398.72 173.36 398.73 173.41 398.73 173.41 398.73 173.43 398.73 173.45 398.73 173.46 398.73 173.49 398.7 173.49 398.62 173.48 398.55 173.47 398.47 173.47 398.4 173.48 398.39 173.49 398.36 173.5 398.3 173.52 398.27 173.55 398.23 173.59 398.2 173.65 398.19 173.67 398.17 173.7 398.16 173.74 398.15 173.77 398.14 173.79 398.14 173.82 398.13 173.86 398.12 173.92 398.11 173.96 398.11 173.99 398.09 174.02 398.09 174.03 398.07 174.08 398.05 174.12 398.04 174.15 398.01 174.2 397.99 174.22 397.97 174.24 397.93 174.26 397.91 174.27 397.87 174.28 397.84 174.28 397.79 174.27 397.75 174.27 397.7 174.26 397.66 174.26 397.63 174.27 397.61 174.28 397.6 174.29 397.58 174.29 397.57 174.3 397.56 174.31 397.55 174.33 397.53 174.34 397.52 174.36 397.5 174.37 397.49 174.39 397.48 174.4 397.46 174.42 397.43 174.43 397.39 174.45 397.36 174.45 397.33 174.46 397.31 174.47 397.29 174.47 397.25 174.47 397.21 174.47 397.18 174.47 397.1 174.47 397.01 174.48 396.94 174.49 396.9 174.5 396.87 174.52 396.86 174.54 396.85 174.59 396.86 174.63 396.88 174.66 396.93 174.7 397 174.76 397.04 174.82 397.07 174.88 397.1 174.96 397.14 175.03 397.14 175.05 397.15 175.09 397.17 175.13 397.17 175.16 397.18 175.2 397.18 175.23 397.18 175.29 397.19 175.32 397.19 175.36 397.2 175.41 397.2 175.45 397.2 175.49 397.2 175.52 397.19 175.55 397.17 175.6 397.14 175.63 397.11 175.66 397.06 175.67 397.01 175.68 396.97 175.68 396.92 175.68 396.88 175.67 396.84 175.65 396.81 175.63 396.77 175.61 396.75 175.59 396.72 175.57 396.69 175.55 396.68 175.54 396.65 175.53 396.63 175.51 396.6 175.49 396.53 175.45 396.41 175.38 396.35 175.35 396.3 175.34 396.24 175.34 396.17 175.34 396.13 175.35 396.12 175.35 396.06 175.35 396.03 175.35 396 175.35 395.99 175.35 395.94 175.33 395.85 175.31 395.78 175.3 395.72 175.28 395.69 175.27 395.66 175.25 395.64 175.25 395.62 175.23 395.57 175.2 395.53 175.17 395.5 175.15 395.45 175.1 395.38 175.05 395.32 175 395.31 174.99 395.29 174.97 395.27 174.97 395.25 174.96 395.22 174.94 395.17 174.92 395.15 174.92 395.13 174.91 395.1 174.9 395.08 174.89 395.05 174.89 395.01 174.87 394.97 174.86 394.93 174.85 394.91 174.85 394.89 174.84 394.86 174.83 394.82 174.81 394.77 174.79 394.72 174.76 394.69 174.75 394.67 174.74 394.64 174.71 394.6 174.68 394.56 174.65 394.52 174.62 394.5 174.6 394.48 174.58 394.44 174.55 394.41 174.52 394.38 174.49 394.35 174.47 394.33 174.44 394.31 174.42 394.3 174.4 394.29 174.4 394.29 174.39 394.28 174.38 394.28 174.36 394.27 174.34 394.27 174.32 394.26 174.31 394.26 174.3 394.26 174.29 394.26 174.26 394.26 174.22 394.26 174.16 394.26 174.1 394.26 174.06 394.26 174.01 394.26 173.96 394.25 173.9 394.23 173.85 394.21 173.8 394.19 173.76 394.17 173.73 394.14 173.71 394.1 173.69 394.05 173.69 394.01 173.69 393.98 173.69 393.93 173.7 393.89 173.72 393.87 173.73 393.83 173.77 393.78 173.8 393.73 173.85 393.71 173.87 393.69 173.87 393.67 173.88 393.63 173.9 393.6 173.9 393.58 173.89 393.55 173.87 393.52 173.82 393.5 173.78 393.5 173.74 393.51 173.7 393.53 173.64 393.54 173.59 393.55 173.57 393.57 173.53 393.63 173.43 393.71 173.34 393.76 173.24 393.81 173.14 393.86 173.03 393.9 172.93 393.91 172.91 393.93 172.86 393.93 172.81 393.94 172.76 393.94 172.72 393.93 172.7 393.91 172.66 393.87 172.61 393.83 172.56 393.77 172.52 393.72 172.48 393.67 172.45 393.6 172.43 393.54 172.41 393.47 172.39 393.42 172.37 393.32 172.32 393.23 172.28 393.23 172.28 393.13 172.24 393.06 172.21 392.98 172.17 392.95 172.15 392.93 172.15 392.91 172.13 393.89 171.91 394.94 171.78 395.33 172.05 395.49 171.99 395.67 171.42 395.81 171.29 396.12 170.98 396.32 170.79 396.18 170.51 396.19 170.49 396.2 170.47 396.24 170.48 396.28 170.49 396.3 170.5 396.35 170.52 396.39 170.55 396.41 170.57 396.43 170.58 396.44 170.58 396.49 170.61 396.53 170.64 396.59 170.69 396.65 170.72 396.67 170.73 396.72 170.76 396.75 170.78 396.78 170.8 396.79 170.8 396.81 170.8 396.83 170.79 396.85 170.78 396.88 170.76 396.9 170.74 396.92 170.71 396.93 170.69 396.93 170.68 396.94 170.67 396.94 170.66 396.96 170.65 396.98 170.64 397.03 170.63 397.06 170.63 397.09 170.62 397.13 170.6 397.15 170.6 397.16 170.59 397.19 170.58 397.19 170.58 397.2 170.58 397.23 170.56 397.24 170.55 397.26 170.55 397.29 170.54 397.32 170.54 397.35 170.53 397.38 170.54 397.41 170.54 397.43 170.54 397.46 170.55 397.51 170.55 397.54 170.56 397.56 170.56 397.57 170.56 397.59 170.55 397.62 170.54 397.64 170.53 397.66 170.52 397.67 170.51 397.69 170.51 397.7 170.51 397.71 170.51 397.73 170.52 397.76 170.54 397.78 170.55 397.8 170.56 397.83 170.57 397.86 170.58 397.87 170.58 397.88 170.58 397.9 170.58 397.93 170.57 397.95 170.56 397.97 170.55 398 170.55 398.02 170.55 398.07 170.54 398.11 170.54 398.17 170.54 398.2 170.55 398.22 170.55 398.25 170.55 398.36 170.55 398.39 170.55 398.4 170.56 398.44 170.56 398.53 170.57 398.16 169.44 398.19 169.09 398.6 169.13 398.81 168.86 399.07 168.43 399.1 168.34 399.4 168.41 399.63 168.12 400.02 168.26 400.22 167.89 400.59 167.83 400.61 167.74 Z"/>
</g></svg>