<svg xmlns="http://www.w3.org/2000/svg" version="1.2" baseProfile="tiny" stroke-linecap="round" stroke-linejoin="round" viewBox="579.25 355 15.9 19.28"><g xmlns="http://www.w3.org/2000/svg" id="Leatxe">
<path d="M 584.52 355.21 584.56 355.22 584.57 355.22 584.57 355.23 584.6 355.25 584.61 355.25 584.62 355.26 584.63 355.26 584.64 355.27 584.66 355.28 584.67 355.29 584.69 355.3 584.71 355.32 584.72 355.33 584.73 355.33 584.74 355.34 584.76 355.36 584.77 355.36 584.8 355.38 584.82 355.39 584.83 355.4 584.85 355.4 584.86 355.42 584.88 355.43 584.89 355.43 584.91 355.44 584.93 355.46 584.94 355.46 584.96 355.47 584.97 355.48 584.99 355.49 585.01 355.5 585.02 355.51 585.03 355.52 585.06 355.54 585.07 355.55 585.08 355.56 585.1 355.57 585.11 355.58 585.12 355.59 585.13 355.6 585.14 355.61 585.15 355.62 585.17 355.64 585.18 355.65 585.19 355.66 585.2 355.67 585.22 355.69 585.23 355.7 585.25 355.71 585.26 355.72 585.27 355.73 585.29 355.74 585.3 355.75 585.32 355.76 585.33 355.77 585.35 355.78 585.36 355.78 585.37 355.79 585.39 355.8 585.4 355.81 585.41 355.82 585.42 355.83 585.44 355.84 585.44 355.85 585.46 355.86 585.47 355.86 585.49 355.86 585.49 355.87 585.51 355.88 585.53 355.88 585.54 355.89 585.56 355.9 585.57 355.9 585.59 355.91 585.61 355.92 585.62 355.93 585.64 355.94 585.65 355.94 585.67 355.95 585.68 355.96 585.7 355.97 585.7 355.99 585.71 356.01 585.72 356.02 585.74 356.03 585.75 356.04 585.77 356.05 585.79 356.06 585.81 356.07 585.81 356.08 585.82 356.09 585.83 356.11 585.85 356.15 585.87 356.17 585.87 356.18 585.88 356.19 585.88 356.2 585.89 356.2 585.91 356.23 585.92 356.24 585.93 356.25 585.97 356.29 585.99 356.31 586 356.32 586.03 356.35 586.04 356.36 586.05 356.38 586.08 356.4 586.09 356.41 586.12 356.43 586.13 356.44 586.15 356.45 586.16 356.46 586.17 356.47 586.18 356.47 586.19 356.48 586.21 356.49 586.22 356.5 586.26 356.51 586.28 356.52 586.3 356.53 586.31 356.53 586.33 356.54 586.35 356.54 586.36 356.54 586.38 356.54 586.42 356.56 586.45 356.57 586.45 356.58 586.47 356.59 586.48 356.6 586.49 356.6 586.51 356.61 586.52 356.62 586.54 356.63 586.55 356.64 586.59 356.66 586.64 356.68 586.67 356.7 586.68 356.71 586.73 356.73 586.77 356.75 586.79 356.75 586.81 356.76 586.82 356.77 586.84 356.77 586.85 356.78 586.87 356.79 586.88 356.8 586.88 356.8 586.92 356.82 586.96 356.85 586.97 356.85 587 356.87 587.01 356.88 587.02 356.88 587.03 356.89 587.04 356.89 587.05 356.9 587.07 356.91 587.1 356.94 587.13 356.95 587.14 356.96 587.16 356.97 587.16 356.98 587.18 356.99 587.18 356.99 587.19 357 587.2 357.01 587.21 357.02 587.22 357.03 587.23 357.04 587.24 357.05 587.25 357.07 587.26 357.08 587.27 357.09 587.28 357.1 587.28 357.12 587.29 357.13 587.29 357.14 587.31 357.18 587.32 357.2 587.33 357.22 587.34 357.24 587.35 357.25 587.36 357.27 587.37 357.28 587.38 357.29 587.39 357.31 587.4 357.33 587.41 357.34 587.41 357.35 587.43 357.37 587.43 357.38 587.44 357.4 587.45 357.41 587.46 357.42 587.47 357.43 587.47 357.44 587.48 357.46 587.49 357.47 587.51 357.5 587.52 357.52 587.53 357.53 587.57 357.59 587.59 357.6 587.61 357.62 587.62 357.63 587.63 357.64 587.64 357.65 587.65 357.66 587.66 357.68 587.68 357.7 587.68 357.71 587.69 357.72 587.71 357.74 587.71 357.74 587.73 357.76 587.74 357.76 587.76 357.78 587.77 357.78 587.79 357.79 587.81 357.8 587.83 357.82 587.84 357.83 587.86 357.85 587.88 357.86 587.89 357.87 587.9 357.88 587.91 357.89 587.93 357.91 587.95 357.93 587.96 357.95 587.98 357.96 587.99 357.97 588 357.98 588.01 357.99 588.04 358.01 588.1 358.06 588.17 358.12 588.19 358.14 588.23 358.16 588.24 358.17 588.26 358.18 588.27 358.19 588.29 358.2 588.3 358.21 588.31 358.22 588.33 358.23 588.34 358.24 588.36 358.25 588.37 358.26 588.39 358.27 588.4 358.28 588.44 358.31 588.46 358.32 588.48 358.33 588.49 358.34 588.51 358.35 588.52 358.35 588.54 358.36 588.55 358.37 588.56 358.38 588.61 358.42 588.66 358.45 588.67 358.47 588.68 358.48 588.69 358.49 588.71 358.5 588.72 358.51 588.74 358.52 588.75 358.53 588.76 358.54 588.77 358.55 588.79 358.56 588.8 358.57 588.82 358.58 588.83 358.59 588.85 358.6 588.86 358.62 588.86 358.62 588.87 358.64 588.88 358.65 588.89 358.66 588.9 358.67 588.92 358.68 588.93 358.69 588.94 358.71 588.95 358.72 588.96 358.74 588.97 358.75 588.98 358.77 588.99 358.79 589 358.8 589.02 358.83 589.03 358.84 589.04 358.86 589.04 358.87 589.07 358.89 589.08 358.91 589.1 358.94 589.11 358.95 589.13 358.98 589.13 358.99 589.14 359.01 589.16 359.02 589.16 359.03 589.19 359.06 589.2 359.08 589.2 359.09 589.21 359.1 589.23 359.13 589.24 359.15 589.25 359.16 589.26 359.17 589.27 359.18 589.28 359.2 589.29 359.21 589.3 359.23 589.31 359.24 589.32 359.26 589.33 359.27 589.34 359.29 589.35 359.3 589.36 359.32 589.38 359.35 589.39 359.37 589.4 359.38 589.41 359.4 589.42 359.41 589.43 359.43 589.44 359.44 589.45 359.45 589.46 359.47 589.47 359.48 589.48 359.5 589.49 359.5 589.5 359.52 589.5 359.53 589.53 359.57 589.55 359.6 589.57 359.63 589.58 359.64 589.59 359.66 589.6 359.67 589.61 359.69 589.62 359.7 589.63 359.71 589.64 359.73 589.64 359.74 589.65 359.76 589.65 359.77 589.66 359.8 589.67 359.82 589.67 359.83 589.67 359.85 589.68 359.86 589.68 359.87 589.69 359.88 589.7 359.9 589.71 359.91 589.73 359.94 589.74 359.95 589.74 359.97 589.75 359.98 589.76 360 589.77 360.02 589.78 360.03 589.78 360.05 589.79 360.06 589.8 360.07 589.8 360.09 589.82 360.12 589.82 360.14 589.83 360.16 589.84 360.17 589.84 360.19 589.85 360.2 589.86 360.22 589.86 360.24 589.87 360.26 589.87 360.27 589.88 360.28 589.89 360.3 589.9 360.31 589.91 360.33 589.92 360.34 589.93 360.35 589.93 360.37 589.94 360.38 589.95 360.4 589.96 360.41 589.97 360.43 589.97 360.45 589.98 360.5 589.98 360.51 589.98 360.53 589.98 360.55 589.99 360.56 589.99 360.58 589.99 360.59 589.99 360.61 589.99 360.62 589.99 360.66 590 360.68 590 360.69 590 360.71 590 360.75 590 360.76 590.01 360.79 590.01 360.81 590.01 360.82 590.01 360.84 590.02 360.85 590.02 360.87 590.03 360.89 590.03 360.93 590.03 360.94 590.04 360.96 590.04 360.97 590.04 360.99 590.04 361.01 590.04 361.03 590.05 361.04 590.05 361.05 590.05 361.07 590.06 361.09 590.06 361.1 590.06 361.12 590.06 361.14 590.06 361.15 590.06 361.16 590.06 361.18 590.06 361.19 590.06 361.21 590.05 361.22 590.05 361.24 590.05 361.26 590.04 361.27 590.04 361.3 590.04 361.31 590.04 361.33 590.04 361.34 590.04 361.37 590.04 361.39 590.04 361.4 590.04 361.42 590.04 361.43 590.04 361.45 590.04 361.46 590.05 361.49 590.05 361.5 590.06 361.52 590.07 361.53 590.08 361.54 590.09 361.56 590.1 361.57 590.11 361.58 590.12 361.59 590.13 361.6 590.14 361.61 590.14 361.63 590.15 361.64 590.16 361.65 590.17 361.67 590.18 361.68 590.19 361.7 590.2 361.72 590.21 361.73 590.21 361.74 590.22 361.75 590.23 361.77 590.24 361.78 590.25 361.79 590.26 361.8 590.27 361.81 590.28 361.83 590.3 361.84 590.31 361.85 590.32 361.86 590.33 361.87 590.34 361.89 590.36 361.9 590.37 361.92 590.37 361.92 590.39 361.93 590.4 361.95 590.4 361.96 590.41 361.98 590.41 361.99 590.42 362.01 590.42 362.03 590.42 362.04 590.43 362.06 590.44 362.08 590.44 362.09 590.45 362.1 590.45 362.12 590.45 362.14 590.46 362.16 590.47 362.18 590.47 362.19 590.48 362.2 590.48 362.21 590.49 362.23 590.5 362.24 590.51 362.25 590.52 362.26 590.53 362.28 590.54 362.3 590.55 362.31 590.56 362.32 590.57 362.34 590.58 362.35 590.59 362.37 590.6 362.39 590.61 362.4 590.63 362.42 590.64 362.43 590.65 362.45 590.65 362.45 590.66 362.47 590.67 362.48 590.68 362.5 590.69 362.5 590.7 362.52 590.71 362.53 590.72 362.55 590.73 362.56 590.74 362.57 590.74 362.59 590.75 362.6 590.76 362.62 590.77 362.64 590.78 362.65 590.79 362.67 590.8 362.69 590.81 362.7 590.81 362.71 590.82 362.73 590.83 362.74 590.84 362.76 590.84 362.77 590.85 362.79 590.86 362.8 590.86 362.82 590.87 362.83 590.87 362.85 590.88 362.86 590.89 362.88 590.9 362.89 590.91 362.91 590.92 362.92 590.93 362.94 590.94 362.95 590.95 362.97 590.95 362.98 590.96 362.99 590.96 363.01 590.97 363.02 590.98 363.04 590.99 363.06 591 363.07 591.01 363.09 591.02 363.1 591.03 363.11 591.04 363.13 591.04 363.14 591.05 363.16 591.06 363.17 591.07 363.19 591.08 363.2 591.09 363.22 591.09 363.23 591.1 363.24 591.11 363.26 591.11 363.27 591.12 363.29 591.12 363.3 591.13 363.32 591.14 363.34 591.14 363.35 591.15 363.36 591.15 363.37 591.16 363.38 591.17 363.41 591.18 363.44 591.18 363.45 591.2 363.45 591.22 363.46 591.22 363.47 591.24 363.48 591.25 363.49 591.27 363.5 591.27 363.51 591.29 363.51 591.3 363.52 591.32 363.52 591.33 363.52 591.34 363.53 591.35 363.54 591.37 363.55 591.38 363.56 591.4 363.58 591.42 363.59 591.43 363.6 591.44 363.62 591.45 363.63 591.47 363.64 591.48 363.65 591.49 363.67 591.55 363.72 591.58 363.75 591.59 363.76 591.6 363.77 591.62 363.78 591.63 363.79 591.64 363.81 591.66 363.82 591.67 363.83 591.68 363.85 591.69 363.86 591.71 363.88 591.72 363.89 591.72 363.9 591.73 363.91 591.73 363.93 591.72 363.95 591.72 363.97 591.72 363.98 591.73 364 591.73 364.01 591.73 364.02 591.73 364.04 591.73 364.08 591.74 364.11 591.74 364.12 591.74 364.14 591.74 364.15 591.75 364.17 591.75 364.18 591.75 364.2 591.75 364.21 591.75 364.25 591.75 364.27 591.75 364.29 591.75 364.31 591.76 364.33 591.76 364.34 591.76 364.35 591.76 364.37 591.77 364.39 591.77 364.41 591.77 364.42 591.78 364.45 591.78 364.49 591.79 364.51 591.79 364.54 591.79 364.58 591.8 364.6 591.8 364.61 591.8 364.63 591.8 364.65 591.8 364.68 591.8 364.69 591.8 364.71 591.81 364.75 591.81 364.76 591.81 364.8 591.81 364.83 591.81 364.84 591.81 364.87 591.81 364.89 591.82 364.9 591.82 364.92 591.82 364.94 591.82 364.96 591.82 364.99 591.82 365.03 591.82 365.06 591.82 365.09 591.83 365.18 591.83 365.19 591.83 365.21 591.83 365.23 591.83 365.25 591.84 365.27 591.84 365.29 591.84 365.31 591.85 365.32 591.85 365.34 591.86 365.36 591.86 365.36 591.87 365.38 591.88 365.4 591.89 365.41 591.89 365.43 591.9 365.44 591.91 365.46 591.92 365.47 591.93 365.48 591.94 365.49 591.95 365.51 591.96 365.52 591.97 365.53 591.98 365.55 592.01 365.57 592.02 365.59 592.02 365.59 592.03 365.6 592.06 365.64 592.07 365.65 592.08 365.66 592.1 365.69 592.11 365.7 592.13 365.72 592.15 365.74 592.16 365.76 592.17 365.77 592.18 365.78 592.19 365.8 592.2 365.81 592.21 365.82 592.22 365.83 592.24 365.85 592.25 365.86 592.26 365.87 592.27 365.88 592.29 365.9 592.3 365.91 592.31 365.92 592.32 365.93 592.33 365.94 592.35 365.95 592.36 365.97 592.37 365.98 592.38 365.99 592.4 366 592.41 366.01 592.42 366.02 592.44 366.04 592.45 366.05 592.46 366.06 592.48 366.07 592.49 366.08 592.51 366.09 592.52 366.1 592.53 366.11 592.54 366.11 592.55 366.12 592.56 366.13 592.58 366.14 592.59 366.15 592.59 366.16 592.6 366.18 592.6 366.2 592.6 366.21 592.61 366.23 592.62 366.25 592.62 366.27 592.63 366.28 592.64 366.3 592.65 366.31 592.65 366.33 592.67 366.36 592.67 366.37 592.68 366.39 592.69 366.4 592.7 366.42 592.71 366.43 592.72 366.45 592.73 366.46 592.73 366.47 592.75 366.49 592.76 366.51 592.76 366.52 592.77 366.54 592.78 366.55 592.78 366.56 592.79 366.58 592.8 366.6 592.8 366.61 592.81 366.63 592.82 366.64 592.82 366.66 592.83 366.67 592.84 366.69 592.84 366.71 592.85 366.72 592.86 366.74 592.86 366.76 592.87 366.77 592.88 366.79 592.89 366.8 592.9 366.82 592.9 366.83 592.91 366.85 592.92 366.86 592.93 366.88 592.94 366.89 592.95 366.91 592.96 366.93 592.97 366.94 592.99 366.95 593 366.97 593.01 366.99 593.01 367.02 593.01 367.04 593.01 367.05 593.01 367.07 593.01 367.09 593.01 367.1 593.01 367.12 593.01 367.14 593 367.16 593 367.18 593 367.21 592.99 367.23 592.99 367.25 592.99 367.27 592.99 367.29 592.99 367.3 592.99 367.33 592.99 367.35 592.99 367.39 592.99 367.41 592.99 367.42 592.99 367.44 592.99 367.46 592.99 367.48 592.99 367.49 592.99 367.51 592.99 367.53 592.99 367.55 592.99 367.57 592.98 367.6 592.98 367.62 592.98 367.64 592.97 367.65 592.97 367.66 592.96 367.74 592.96 367.75 592.96 367.76 592.96 367.78 592.96 367.8 592.96 367.82 592.96 367.83 592.97 367.86 592.98 367.89 592.99 367.91 593 367.93 593 367.95 593.01 367.96 593.02 367.98 593.02 368 593.02 368.01 593.02 368.02 593.02 368.04 593.02 368.06 593.03 368.08 593.03 368.11 593.03 368.13 593.03 368.15 593.03 368.17 593.03 368.19 593.03 368.2 593.04 368.21 593.04 368.23 593.05 368.25 593.06 368.26 593.06 368.27 593.07 368.29 593.07 368.31 593.08 368.32 593.09 368.34 593.1 368.35 593.1 368.37 593.11 368.38 593.13 368.41 593.14 368.43 593.15 368.46 593.18 368.53 593.2 368.57 593.23 368.64 593.23 368.65 593.24 368.66 593.25 368.68 593.26 368.69 593.27 368.71 593.28 368.73 593.28 368.75 593.29 368.77 593.3 368.78 593.32 368.83 593.34 368.87 593.35 368.9 593.35 368.9 593.36 368.91 593.37 368.93 593.38 368.95 593.39 368.96 593.4 368.98 593.4 369 593.42 369.02 593.43 369.03 593.49 369.1 593.5 369.11 593.51 369.12 593.52 369.12 593.52 369.13 593.53 369.13 593.57 369.16 593.61 369.19 593.63 369.2 593.65 369.21 593.66 369.21 593.67 369.23 593.69 369.24 593.71 369.25 593.72 369.26 593.73 369.27 593.75 369.28 593.76 369.29 593.77 369.3 593.79 369.31 593.8 369.32 593.82 369.33 593.83 369.34 593.84 369.34 593.87 369.36 593.88 369.37 593.89 369.38 593.91 369.39 593.93 369.4 593.94 369.4 593.98 369.43 594 369.43 594.01 369.44 594.03 369.45 594.06 369.47 594.1 369.48 594.12 369.49 594.13 369.5 594.17 369.53 594.18 369.53 594.19 369.54 594.2 369.54 594.22 369.54 594.23 369.55 594.24 369.55 594.26 369.56 594.28 369.56 594.29 369.57 594.3 369.57 594.32 369.57 594.34 369.58 594.35 369.59 594.37 369.59 594.39 369.59 594.41 369.6 594.43 369.6 594.45 369.6 594.47 369.61 594.51 369.61 594.52 369.62 594.53 369.63 594.55 369.63 594.57 369.64 594.58 369.65 594.6 369.66 594.61 369.67 594.63 369.68 594.66 369.7 594.67 369.7 594.69 369.71 594.71 369.71 594.72 369.72 594.73 369.73 594.75 369.74 594.76 369.75 594.78 369.76 594.79 369.77 594.81 369.78 594.82 369.8 594.84 369.81 594.85 369.82 594.86 369.83 594.91 369.87 594.92 369.88 594.93 369.9 594.94 369.91 594.95 369.92 594.96 369.93 594.97 369.95 594.99 369.99 594.99 370 594.99 370.01 595 370.02 595 370.04 595 370.06 595 370.07 595 370.1 595.02 370.11 595.02 370.16 595 370.32 594.97 370.47 594.97 370.48 594.98 370.49 594.99 370.51 595 370.51 595.01 370.53 595.02 370.54 595.04 370.55 595.05 370.56 595.06 370.58 595.08 370.59 595.11 370.61 595.11 370.61 595.12 370.62 595.12 370.63 595.12 370.66 595.12 370.67 595.11 370.69 595.11 370.7 595.11 370.71 595.1 370.74 595.09 370.76 595.09 370.78 595.08 370.79 595.08 370.8 595.07 370.82 595.07 370.84 595.07 370.85 595.06 370.87 595.06 370.89 595.05 370.9 595.05 370.92 595.04 370.94 595.04 370.95 595.03 370.96 595.03 370.98 595.02 371 595.01 371.01 595 371.03 594.99 371.05 594.99 371.07 594.98 371.08 594.98 371.1 594.98 371.12 594.98 371.13 594.98 371.15 594.98 371.16 594.98 371.18 594.98 371.19 594.98 371.2 594.97 371.22 594.97 371.22 594.96 371.24 594.96 371.25 594.96 371.27 594.96 371.28 594.96 371.29 594.96 371.3 594.96 371.32 594.96 371.33 594.96 371.34 594.96 371.36 594.95 371.38 594.95 371.41 594.95 371.43 594.95 371.45 594.95 371.46 594.95 371.49 594.95 371.51 594.94 371.53 594.94 371.54 594.94 371.56 594.94 371.58 594.93 371.59 594.93 371.61 594.93 371.62 594.93 371.63 594.93 371.64 594.92 371.65 594.92 371.67 594.92 371.68 594.92 371.69 594.9 371.73 594.9 371.74 594.89 371.76 594.88 371.77 594.88 371.79 594.87 371.8 594.87 371.82 594.86 371.84 594.85 371.85 594.85 371.86 594.84 371.87 594.83 371.88 594.82 371.9 594.82 371.91 594.82 371.92 594.82 371.94 594.83 371.99 594.85 372.09 594.86 372.19 594.86 372.24 594.87 372.27 594.87 372.29 594.87 372.31 594.87 372.32 594.88 372.33 594.88 372.35 594.89 372.37 594.89 372.37 594.9 372.39 594.9 372.4 594.91 372.42 594.92 372.43 594.92 372.45 594.93 372.47 594.93 372.49 594.94 372.52 594.94 372.53 594.94 372.54 594.94 372.56 594.94 372.57 594.94 372.59 594.95 372.61 594.94 372.62 594.94 372.64 594.94 372.66 594.94 372.68 594.94 372.7 594.93 372.73 594.93 372.76 594.92 372.78 594.92 372.8 594.92 372.81 594.91 372.83 594.91 372.85 594.91 372.87 594.9 372.89 594.9 372.9 594.9 372.92 594.89 372.93 594.89 372.95 594.88 372.96 594.88 372.98 594.88 373.01 594.88 373.02 594.88 373.04 594.88 373.06 594.87 373.08 594.87 373.09 594.87 373.09 594.87 373.11 594.87 373.13 594.84 373.17 594.82 373.18 594.81 373.19 594.79 373.21 594.77 373.21 594.76 373.22 594.75 373.22 594.73 373.23 594.7 373.23 594.7 373.24 594.7 373.26 594.7 373.27 594.7 373.29 594.69 373.31 594.69 373.32 594.69 373.33 594.68 373.35 594.67 373.36 594.67 373.38 594.66 373.4 594.65 373.42 594.64 373.43 594.64 373.45 594.63 373.46 594.63 373.48 594.62 373.49 594.62 373.51 594.61 373.52 594.6 373.54 594.6 373.56 594.59 373.57 594.58 373.59 594.58 373.61 594.57 373.62 594.56 373.63 594.56 373.65 594.55 373.66 594.55 373.67 594.54 373.67 594.53 373.69 594.52 373.71 594.51 373.73 594.5 373.74 594.49 373.75 594.48 373.77 594.47 373.78 594.46 373.79 594.43 373.82 594.42 373.84 594.4 373.85 594.39 373.86 594.38 373.87 594.37 373.88 594.35 373.89 594.34 373.9 594.33 373.9 594.3 373.92 594.28 373.92 594.27 373.93 594.25 373.94 594.24 373.95 594.23 373.96 594.21 373.97 594.2 373.98 594.19 373.99 594.18 374 594.17 374.02 594.15 374.04 594.14 374.06 594.13 374.07 594.09 374.13 594.08 374.15 594.07 374.17 594.06 374.18 594.04 374.22 594.02 374.25 594.01 374.26 593.96 374.24 593.94 374.24 593.92 374.24 593.91 374.23 593.89 374.23 593.87 374.22 593.85 374.21 593.84 374.21 593.83 374.21 593.82 374.2 593.81 374.2 593.78 374.2 593.77 374.21 593.74 374.22 593.72 374.23 593.7 374.24 593.69 374.24 593.67 374.25 593.66 374.25 593.64 374.25 593.63 374.25 593.59 374.27 593.58 374.27 593.57 374.28 593.55 374.27 593.54 374.26 593.53 374.26 593.51 374.25 593.51 374.25 593.45 374.2 593.42 374.18 593.41 374.18 593.39 374.17 593.38 374.16 593.36 374.15 593.34 374.15 593.32 374.14 593.3 374.14 593.28 374.14 593.26 374.14 593.25 374.13 593.24 374.13 593.22 374.12 593.21 374.11 593.19 374.1 593.17 374.09 593.16 374.08 593.14 374.08 593.13 374.07 593.11 374.06 593.1 374.06 593.09 374.05 593.07 374.04 593.06 374.03 593.05 374.02 593.03 374.01 593.02 374 593.01 373.98 593.01 373.97 593 373.95 592.99 373.94 592.98 373.92 592.97 373.91 592.96 373.9 592.95 373.88 592.93 373.87 592.92 373.86 592.91 373.85 592.9 373.84 592.88 373.83 592.86 373.82 592.85 373.82 592.83 373.81 592.82 373.81 592.75 373.77 592.74 373.77 592.72 373.76 592.7 373.75 592.68 373.75 592.66 373.74 592.63 373.72 592.61 373.72 592.6 373.71 592.58 373.7 592.56 373.69 592.55 373.69 592.53 373.68 592.51 373.67 592.49 373.66 592.47 373.65 592.46 373.64 592.44 373.63 592.42 373.62 592.4 373.62 592.39 373.61 592.37 373.61 592.36 373.6 592.34 373.59 592.3 373.58 592.28 373.57 592.26 373.57 592.24 373.57 592.2 373.56 592.17 373.55 592.15 373.54 592.13 373.54 592.12 373.54 592.1 373.53 592.08 373.53 592.06 373.52 592.05 373.52 592.02 373.51 592 373.5 591.99 373.5 591.95 373.48 591.94 373.48 591.89 373.46 591.86 373.45 591.84 373.44 591.83 373.44 591.8 373.42 591.78 373.42 591.76 373.41 591.75 373.41 591.73 373.4 591.71 373.4 591.67 373.38 591.67 373.37 591.66 373.36 591.66 373.34 591.66 373.32 591.65 373.31 591.63 373.29 591.62 373.28 591.6 373.27 591.58 373.26 591.57 373.26 591.55 373.26 591.54 373.25 591.53 373.25 591.49 373.25 591.48 373.25 591.44 373.25 591.42 373.24 591.41 373.23 591.39 373.23 591.38 373.22 591.36 373.22 591.35 373.21 591.33 373.2 591.31 373.19 591.28 373.17 591.26 373.16 591.24 373.16 591.23 373.15 591.21 373.15 591.18 373.14 591.16 373.13 591.1 373.12 591.08 373.12 591.07 373.11 591.05 373.11 591.04 373.1 591 373.09 590.99 373.09 590.97 373.08 590.95 373.08 590.93 373.07 590.91 373.07 590.9 373.06 590.87 373.06 590.82 373.03 590.81 373.03 590.79 373.02 590.78 373.02 590.76 373.01 590.74 373 590.73 373 590.71 372.99 590.7 372.98 590.68 372.98 590.66 372.97 590.66 372.96 590.64 372.96 590.63 372.95 590.61 372.94 590.59 372.93 590.58 372.92 590.56 372.92 590.54 372.91 590.53 372.9 590.5 372.89 590.48 372.89 590.47 372.88 590.45 372.88 590.43 372.87 590.42 372.86 590.4 372.86 590.39 372.85 590.38 372.84 590.37 372.83 590.35 372.82 590.33 372.82 590.32 372.81 590.3 372.81 590.28 372.81 590.26 372.8 590.24 372.8 590.23 372.8 590.21 372.8 590.19 372.79 590.18 372.79 590.16 372.79 590.14 372.78 590.13 372.77 590.1 372.77 590.08 372.76 590.06 372.76 590.05 372.75 590.03 372.75 590.02 372.75 590.01 372.74 589.99 372.73 589.98 372.73 589.96 372.73 589.94 372.73 589.92 372.73 589.89 372.72 589.88 372.72 589.86 372.72 589.85 372.72 589.82 372.71 589.81 372.71 589.79 372.7 589.77 372.7 589.76 372.69 589.74 372.69 589.72 372.68 589.7 372.67 589.69 372.67 589.67 372.67 589.65 372.66 589.64 372.66 589.62 372.66 589.59 372.65 589.57 372.64 589.55 372.64 589.53 372.63 589.52 372.63 589.5 372.63 589.48 372.63 589.46 372.63 589.45 372.63 589.43 372.62 589.4 372.62 589.36 372.62 589.35 372.61 589.33 372.61 589.31 372.6 589.3 372.6 589.28 372.6 589.27 372.6 589.25 372.59 589.25 372.54 589.25 372.53 589.24 372.51 589.24 372.5 589.24 372.48 589.23 372.47 589.22 372.46 589.2 372.45 589.18 372.44 589.17 372.44 589.15 372.43 589.13 372.42 589.11 372.42 589.1 372.41 589.08 372.4 589.06 372.4 589.05 372.39 589.03 372.39 589.02 372.38 589 372.38 588.96 372.37 588.95 372.37 588.93 372.36 588.9 372.35 588.88 372.35 588.86 372.34 588.85 372.34 588.83 372.34 588.81 372.33 588.81 372.33 588.79 372.32 588.77 372.31 588.75 372.31 588.73 372.3 588.71 372.3 588.7 372.3 588.68 372.29 588.66 372.29 588.64 372.28 588.62 372.27 588.61 372.27 588.59 372.26 588.58 372.25 588.56 372.24 588.54 372.23 588.52 372.22 588.5 372.21 588.49 372.21 588.45 372.19 588.44 372.19 588.43 372.18 588.42 372.18 588.4 372.17 588.37 372.17 588.35 372.16 588.34 372.16 588.33 372.15 588.31 372.15 588.29 372.14 588.27 372.14 588.26 372.13 588.24 372.12 588.22 372.12 588.19 372.1 588.14 372.09 588.12 372.08 588.1 372.08 588.09 372.07 588.07 372.07 588.05 372.06 588.03 372.06 588.01 372.05 588 372.05 587.99 372.04 587.98 372.04 587.96 372.04 587.95 372.03 587.93 372.03 587.91 372.02 587.89 372.02 587.86 372 587.84 372 587.83 371.99 587.81 371.99 587.79 371.98 587.78 371.98 587.76 371.97 587.73 371.96 587.71 371.96 587.7 371.96 587.67 371.95 587.66 371.94 587.64 371.94 587.62 371.94 587.61 371.93 587.6 371.93 587.58 371.93 587.56 371.92 587.55 371.91 587.53 371.91 587.48 371.9 587.43 371.89 587.39 371.87 587.38 371.87 587.36 371.87 587.34 371.86 587.31 371.86 587.29 371.85 587.28 371.85 587.25 371.84 587.23 371.84 587.21 371.83 587.19 371.83 587.17 371.82 587.15 371.82 587.13 371.82 587.12 371.83 587.1 371.83 587.08 371.83 587.06 371.82 587.03 371.81 587.02 371.81 587 371.81 586.99 371.8 586.96 371.8 586.94 371.8 586.93 371.8 586.91 371.8 586.9 371.8 586.87 371.79 586.85 371.79 586.83 371.79 586.82 371.79 586.79 371.79 586.78 371.79 586.76 371.79 586.75 371.79 586.73 371.79 586.71 371.79 586.71 371.8 586.69 371.8 586.67 371.8 586.66 371.8 586.64 371.81 586.62 371.81 586.6 371.81 586.59 371.82 586.57 371.82 586.55 371.83 586.53 371.83 586.51 371.83 586.5 371.83 586.48 371.83 586.47 371.83 586.45 371.84 586.43 371.84 586.41 371.84 586.4 371.85 586.38 371.85 586.36 371.86 586.35 371.86 586.33 371.87 586.32 371.87 586.31 371.88 586.29 371.88 586.27 371.89 586.25 371.9 586.23 371.9 586.23 371.9 586.21 371.91 586.19 371.92 586.19 371.92 586.17 371.93 586.15 371.93 586.14 371.94 586.12 371.95 586.11 371.97 586.1 371.98 586.08 371.99 586.07 372 586.05 372.01 586.04 372.03 586.03 372.04 586 372.06 585.99 372.08 585.97 372.09 585.96 372.1 585.95 372.12 585.93 372.13 585.92 372.15 585.91 372.16 585.9 372.17 585.89 372.18 585.86 372.2 585.85 372.21 585.84 372.23 585.82 372.24 585.81 372.25 585.8 372.26 585.79 372.27 585.78 372.29 585.77 372.3 585.76 372.31 585.75 372.32 585.74 372.33 585.72 372.34 585.71 372.36 585.7 372.37 585.69 372.38 585.67 372.42 585.65 372.44 585.64 372.45 585.63 372.46 585.62 372.48 585.61 372.49 585.6 372.5 585.58 372.52 585.56 372.52 585.54 372.53 585.53 372.55 585.53 372.56 585.52 372.57 585.52 372.59 585.51 372.61 585.51 372.62 585.5 372.63 585.49 372.65 585.48 372.69 585.47 372.71 585.47 372.72 585.46 372.73 585.46 372.75 585.45 372.76 585.44 372.78 585.43 372.8 585.42 372.81 585.41 372.82 585.4 372.83 585.39 372.85 585.38 372.86 585.37 372.87 585.36 372.88 585.35 372.89 585.34 372.91 585.33 372.93 585.31 372.95 585.31 372.95 585.3 372.97 585.28 372.98 585.26 373 585.25 372.99 585.25 372.97 585.24 372.97 585.24 372.95 585.23 372.94 585.22 372.92 585.21 372.91 585.2 372.9 585.19 372.88 585.17 372.87 585.16 372.86 585.14 372.85 585.13 372.84 585.12 372.84 585.1 372.83 585.09 372.82 585.08 372.82 585.06 372.81 585.05 372.8 585.04 372.8 585.02 372.8 585 372.8 584.99 372.79 584.97 372.78 584.95 372.78 584.94 372.77 584.92 372.76 584.91 372.76 584.9 372.75 584.88 372.74 584.87 372.73 584.86 372.72 584.84 372.71 584.83 372.7 584.81 372.7 584.8 372.69 584.78 372.67 584.77 372.66 584.76 372.65 584.75 372.63 584.75 372.62 584.74 372.6 584.73 372.58 584.72 372.57 584.71 372.55 584.7 372.54 584.69 372.53 584.68 372.52 584.67 372.51 584.66 372.5 584.65 372.49 584.64 372.48 584.62 372.47 584.61 372.46 584.59 372.45 584.58 372.44 584.56 372.43 584.55 372.42 584.54 372.4 584.53 372.39 584.52 372.36 584.51 372.35 584.5 372.33 584.49 372.32 584.48 372.31 584.47 372.3 584.46 372.29 584.45 372.27 584.43 372.26 584.42 372.25 584.41 372.24 584.39 372.23 584.38 372.22 584.37 372.21 584.35 372.2 584.34 372.19 584.33 372.19 584.32 372.18 584.31 372.17 584.29 372.17 584.28 372.16 584.26 372.15 584.25 372.14 584.25 372.14 584.24 372.13 584.23 372.12 584.21 372.12 584.2 372.11 584.18 372.11 584.16 372.11 584.14 372.11 584.12 372.11 584.1 372.11 584.08 372.11 584.08 372.11 584.06 372.11 584.04 372.1 584.03 372.09 584 372.08 583.99 372.08 583.97 372.07 583.96 372.07 583.92 372.06 583.92 372.05 583.9 372.04 583.87 372.04 583.86 372.03 583.84 372.03 583.81 372.02 583.8 372.02 583.78 372.02 583.76 372.02 583.74 372.01 583.73 372 583.71 372 583.7 372 583.68 371.99 583.66 371.99 583.65 371.99 583.63 371.99 583.61 371.99 583.61 371.99 583.59 371.99 583.57 371.99 583.55 371.99 583.53 371.99 583.52 371.99 583.5 371.99 583.49 371.99 583.47 371.99 583.43 371.99 583.42 371.99 583.4 371.99 583.38 371.99 583.35 371.99 583.32 371.98 583.3 371.98 583.29 371.98 583.27 371.97 583.26 371.97 583.24 371.96 583.22 371.95 583.2 371.94 583.19 371.93 583.18 371.92 583.16 371.91 583.14 371.9 583.13 371.89 583.11 371.89 583.1 371.88 583.08 371.87 583.03 371.84 583.02 371.84 583.01 371.83 583.01 371.83 582.99 371.82 582.98 371.81 582.96 371.81 582.94 371.8 582.93 371.79 582.91 371.78 582.89 371.78 582.87 371.77 582.86 371.77 582.84 371.76 582.82 371.75 582.8 371.75 582.79 371.75 582.77 371.75 582.75 371.75 582.73 371.75 582.72 371.75 582.7 371.75 582.68 371.74 582.66 371.74 582.65 371.74 582.64 371.74 582.62 371.73 582.6 371.73 582.58 371.73 582.53 371.71 582.5 371.71 582.47 371.7 582.46 371.69 582.44 371.68 582.4 371.67 582.4 371.66 582.38 371.66 582.36 371.65 582.35 371.64 582.34 371.64 582.32 371.63 582.31 371.62 582.29 371.62 582.28 371.61 582.27 371.61 582.25 371.61 582.23 371.6 582.22 371.6 582.2 371.6 582.18 371.6 582.17 371.6 582.15 371.6 582.12 371.6 582.1 371.6 582.09 371.6 582.07 371.6 582.06 371.6 582.05 371.6 582.04 371.6 582.02 371.59 582.01 371.58 582 371.57 581.99 371.57 581.97 371.56 581.96 371.55 581.94 371.54 581.91 371.53 581.89 371.52 581.87 371.52 581.86 371.52 581.84 371.51 581.82 371.51 581.81 371.52 581.79 371.52 581.77 371.52 581.76 371.52 581.74 371.51 581.72 371.51 581.71 371.5 581.68 371.5 581.65 371.49 581.64 371.49 581.62 371.49 581.61 371.48 581.6 371.48 581.58 371.48 581.56 371.47 581.55 371.47 581.53 371.47 581.51 371.46 581.5 371.46 581.48 371.45 581.44 371.44 581.42 371.44 581.4 371.44 581.38 371.43 581.37 371.43 581.35 371.42 581.33 371.42 581.31 371.42 581.29 371.41 581.27 371.41 581.25 371.4 581.24 371.4 581.22 371.4 581.2 371.39 581.18 371.39 581.17 371.38 581.15 371.38 581.14 371.37 581.12 371.37 581.1 371.37 581.08 371.36 581.06 371.36 581.05 371.36 581.03 371.36 580.99 371.35 580.99 371.34 580.99 371.32 580.98 371.31 580.98 371.29 580.98 371.28 580.98 371.26 580.98 371.24 580.98 371.22 580.98 371.21 580.98 371.17 580.97 371.15 580.97 371.14 580.97 371.1 580.92 371.07 580.89 371.05 580.87 371.03 580.86 371.03 580.85 371.02 580.84 371.01 580.82 370.99 580.8 370.98 580.79 370.96 580.78 370.95 580.76 370.94 580.75 370.92 580.73 370.91 580.72 370.9 580.71 370.89 580.7 370.88 580.68 370.87 580.67 370.86 580.66 370.85 580.65 370.84 580.64 370.83 580.62 370.82 580.6 370.8 580.59 370.79 580.56 370.77 580.55 370.76 580.53 370.75 580.52 370.74 580.51 370.73 580.5 370.71 580.48 370.7 580.47 370.69 580.47 370.68 580.46 370.67 580.44 370.66 580.43 370.64 580.42 370.62 580.41 370.61 580.39 370.61 580.37 370.6 580.35 370.6 580.34 370.59 580.31 370.58 580.29 370.58 580.27 370.57 580.25 370.56 580.24 370.56 580.18 370.53 580.17 370.53 580.15 370.52 580.13 370.51 580.12 370.51 580.1 370.5 580.09 370.49 580.07 370.49 580.05 370.48 580 370.47 579.99 370.46 579.98 370.46 579.96 370.45 579.94 370.45 579.93 370.44 579.91 370.43 579.9 370.42 579.88 370.42 579.86 370.41 579.85 370.4 579.83 370.39 579.83 370.39 579.81 370.38 579.79 370.37 579.78 370.37 579.76 370.36 579.75 370.35 579.7 370.32 579.68 370.3 579.66 370.29 579.64 370.28 579.63 370.27 579.62 370.26 579.6 370.24 579.6 370.23 579.58 370.22 579.57 370.21 579.56 370.2 579.54 370.19 579.53 370.18 579.52 370.17 579.5 370.16 579.49 370.14 579.47 370.13 579.46 370.12 579.44 370.11 579.43 370.1 579.41 370.09 579.35 370.03 579.28 369.99 579.26 369.98 579.27 369.97 579.28 369.95 579.29 369.94 579.31 369.91 579.33 369.86 579.36 369.82 579.4 369.73 579.41 369.73 579.42 369.71 579.43 369.69 579.44 369.67 579.45 369.65 579.46 369.64 579.47 369.61 579.48 369.59 579.5 369.56 579.5 369.54 579.52 369.51 579.52 369.5 579.53 369.48 579.54 369.46 579.55 369.45 579.55 369.44 579.56 369.42 579.56 369.4 579.57 369.39 579.56 369.38 579.56 369.37 579.55 369.35 579.55 369.34 579.56 369.33 579.57 369.31 579.57 369.29 579.57 369.28 579.57 369.26 579.57 369.26 579.57 369.24 579.56 369.23 579.56 369.22 579.55 369.2 579.54 369.19 579.53 369.17 579.53 369.16 579.52 369.14 579.51 369.13 579.51 369.11 579.5 369.1 579.5 369.09 579.49 369.07 579.49 369.05 579.48 369.04 579.48 369.03 579.48 369.01 579.47 368.99 579.46 368.98 579.46 368.97 579.45 368.95 579.45 368.94 579.44 368.92 579.44 368.91 579.43 368.89 579.43 368.87 579.41 368.84 579.41 368.83 579.4 368.81 579.4 368.79 579.4 368.78 579.4 368.77 579.39 368.75 579.39 368.73 579.39 368.71 579.39 368.7 579.39 368.63 579.38 368.59 579.38 368.55 579.38 368.53 579.38 368.51 579.38 368.48 579.38 368.46 579.38 368.45 579.38 368.44 579.39 368.4 579.39 368.38 579.39 368.36 579.4 368.3 579.41 368.28 579.41 368.27 579.42 368.25 579.42 368.23 579.42 368.22 579.42 368.18 579.42 368.15 579.43 368.14 579.43 368.12 579.45 368.05 579.45 368.03 579.46 368.01 579.46 368 579.47 367.98 579.47 367.97 579.47 367.95 579.48 367.93 579.49 367.92 579.49 367.9 579.5 367.88 579.51 367.86 579.51 367.86 579.52 367.84 579.54 367.81 579.55 367.79 579.56 367.77 579.57 367.76 579.58 367.75 579.58 367.74 579.59 367.72 579.6 367.71 579.62 367.66 579.63 367.65 579.64 367.63 579.64 367.62 579.65 367.6 579.66 367.59 579.66 367.57 579.67 367.56 579.68 367.53 579.69 367.51 579.69 367.5 579.7 367.46 579.72 367.44 579.73 367.39 579.74 367.37 579.75 367.34 579.76 367.32 579.76 367.31 579.77 367.29 579.78 367.27 579.79 367.24 579.81 367.18 579.81 367.16 579.82 367.15 579.83 367.13 579.83 367.11 579.83 367.1 579.84 367.08 579.84 367.07 579.84 367.05 579.84 367.03 579.83 367.01 579.83 367 579.83 366.97 579.82 366.95 579.82 366.93 579.81 366.91 579.81 366.89 579.8 366.88 579.8 366.87 579.8 366.85 579.8 366.83 579.8 366.81 579.8 366.8 579.8 366.78 579.8 366.76 579.81 366.74 579.81 366.73 579.81 366.72 579.81 366.7 579.81 366.68 579.8 366.63 579.8 366.61 579.8 366.59 579.8 366.57 579.8 366.54 579.79 366.48 579.79 366.47 579.79 366.45 579.79 366.44 579.79 366.42 579.8 366.4 579.8 366.38 579.81 366.36 579.81 366.34 579.81 366.32 579.81 366.31 579.82 366.3 579.82 366.28 579.82 366.27 579.83 366.25 579.83 366.23 579.84 366.21 579.85 366.2 579.86 366.18 579.87 366.18 579.88 366.17 579.89 366.16 579.9 366.14 579.91 366.13 579.92 366.11 579.93 366.1 579.95 366.07 579.96 366.05 579.97 366.04 579.97 366.03 579.98 366.01 579.99 366 580 365.98 580.01 365.97 580.02 365.96 580.02 365.94 580.03 365.93 580.04 365.91 580.05 365.9 580.06 365.88 580.06 365.87 580.07 365.85 580.08 365.83 580.09 365.81 580.1 365.8 580.1 365.78 580.1 365.77 580.11 365.76 580.12 365.74 580.12 365.72 580.12 365.71 580.13 365.69 580.13 365.68 580.13 365.66 580.14 365.62 580.15 365.57 580.16 365.53 580.16 365.52 580.16 365.48 580.17 365.46 580.17 365.44 580.18 365.42 580.19 365.37 580.22 365.24 580.23 365.17 580.25 365.11 580.25 365.07 580.26 365.06 580.26 365.04 580.26 365.02 580.27 365.01 580.28 364.95 580.28 364.93 580.29 364.86 580.3 364.84 580.3 364.83 580.3 364.81 580.31 364.75 580.31 364.71 580.32 364.7 580.32 364.69 580.32 364.67 580.33 364.65 580.33 364.63 580.34 364.62 580.35 364.6 580.35 364.59 580.36 364.57 580.36 364.56 580.37 364.54 580.37 364.51 580.38 364.49 580.38 364.47 580.39 364.43 580.39 364.41 580.4 364.4 580.4 364.38 580.4 364.37 580.4 364.35 580.4 364.34 580.4 364.32 580.4 364.3 580.4 364.28 580.4 364.26 580.4 364.23 580.4 364.2 580.4 364.1 580.4 364.06 580.4 364.03 580.4 364.01 580.4 364 580.39 363.98 580.39 363.96 580.39 363.94 580.39 363.93 580.39 363.89 580.39 363.87 580.38 363.82 580.38 363.8 580.38 363.79 580.38 363.77 580.38 363.75 580.37 363.71 580.37 363.69 580.37 363.68 580.37 363.66 580.37 363.65 580.38 363.63 580.38 363.61 580.38 363.59 580.4 363.55 580.4 363.53 580.41 363.52 580.42 363.49 580.42 363.48 580.44 363.45 580.44 363.43 580.45 363.42 580.45 363.4 580.46 363.39 580.46 363.37 580.47 363.35 580.47 363.34 580.47 363.33 580.47 363.31 580.47 363.29 580.47 363.27 580.48 363.25 580.48 363.19 580.48 363.15 580.49 363.13 580.48 363.11 580.48 363.09 580.48 363.08 580.48 363.06 580.48 363.04 580.47 363.02 580.47 363.01 580.47 362.99 580.47 362.97 580.46 362.95 580.46 362.94 580.46 362.92 580.46 362.9 580.46 362.89 580.47 362.88 580.47 362.86 580.47 362.85 580.47 362.83 580.47 362.81 580.47 362.8 580.47 362.78 580.48 362.77 580.49 362.75 580.5 362.73 580.5 362.72 580.51 362.7 580.52 362.69 580.53 362.67 580.54 362.66 580.54 362.65 580.55 362.64 580.56 362.63 580.58 362.61 580.59 362.6 580.6 362.58 580.61 362.57 580.61 362.55 580.62 362.54 580.64 362.51 580.65 362.49 580.66 362.47 580.66 362.46 580.67 362.45 580.67 362.43 580.68 362.41 580.69 362.39 580.69 362.37 580.7 362.36 580.7 362.34 580.71 362.33 580.72 362.31 580.73 362.28 580.75 362.25 580.76 362.23 580.77 362.21 580.77 362.19 580.78 362.18 580.78 362.17 580.79 362.16 580.8 362.14 580.81 362.13 580.82 362.11 580.82 362.09 580.83 362.08 580.84 362.06 580.84 362.04 580.85 362.04 580.85 362.02 580.86 361.99 580.86 361.98 580.87 361.96 580.87 361.94 580.87 361.92 580.88 361.9 580.88 361.88 580.88 361.86 580.89 361.84 580.89 361.83 580.9 361.81 580.91 361.79 580.91 361.78 580.93 361.74 580.94 361.71 580.95 361.7 580.96 361.68 580.97 361.66 580.99 361.62 581 361.61 581.01 361.59 581.01 361.58 581.02 361.57 581.03 361.55 581.04 361.54 581.05 361.52 581.06 361.51 581.07 361.49 581.08 361.47 581.09 361.45 581.1 361.44 581.1 361.42 581.11 361.41 581.12 361.4 581.14 361.37 581.16 361.32 581.17 361.31 581.18 361.29 581.19 361.27 581.2 361.26 581.21 361.23 581.22 361.2 581.23 361.18 581.23 361.17 581.24 361.16 581.24 361.14 581.26 361.1 581.27 361.09 581.27 361.08 581.28 361.07 581.3 361.05 581.31 361.03 581.32 361.02 581.32 361.01 581.33 360.99 581.34 360.97 581.34 360.96 581.36 360.93 581.37 360.92 581.38 360.9 581.39 360.88 581.39 360.87 581.4 360.85 581.4 360.83 581.41 360.8 581.42 360.78 581.42 360.77 581.43 360.75 581.43 360.73 581.44 360.7 581.44 360.7 581.44 360.67 581.45 360.65 581.45 360.64 581.45 360.63 581.45 360.61 581.45 360.59 581.45 360.57 581.45 360.55 581.45 360.54 581.45 360.5 581.45 360.48 581.45 360.47 581.45 360.43 581.44 360.38 581.44 360.32 581.44 360.3 581.44 360.29 581.44 360.27 581.44 360.25 581.44 360.24 581.45 360.22 581.45 360.2 581.45 360.2 581.46 360.15 581.47 360.12 581.47 360.09 581.48 360.07 581.48 360.03 581.49 360.02 581.49 360 581.49 359.98 581.49 359.96 581.49 359.94 581.49 359.93 581.49 359.9 581.49 359.87 581.49 359.86 581.49 359.82 581.49 359.79 581.49 359.78 581.49 359.76 581.48 359.74 581.48 359.73 581.48 359.71 581.49 359.69 581.49 359.68 581.49 359.66 581.5 359.64 581.5 359.63 581.51 359.62 581.51 359.6 581.51 359.58 581.52 359.55 581.53 359.53 581.53 359.52 581.52 359.5 581.52 359.48 581.52 359.46 581.52 359.45 581.52 359.44 581.52 359.42 581.52 359.41 581.52 359.39 581.52 359.38 581.53 359.36 581.53 359.34 581.54 359.32 581.54 359.31 581.55 359.28 581.55 359.27 581.55 359.25 581.56 359.23 581.56 359.21 581.56 359.2 581.57 359.18 581.57 359.16 581.58 359.15 581.58 359.13 581.59 359.11 581.59 359.1 581.59 359.07 581.6 359.04 581.6 359.02 581.61 359.01 581.61 358.99 581.61 358.98 581.62 358.96 581.63 358.94 581.63 358.92 581.64 358.89 581.65 358.86 581.65 358.85 581.65 358.83 581.66 358.81 581.66 358.8 581.66 358.78 581.67 358.76 581.67 358.73 581.67 358.72 581.68 358.7 581.68 358.68 581.68 358.66 581.69 358.64 581.69 358.63 581.7 358.61 581.7 358.59 581.71 358.58 581.71 358.56 581.71 358.54 581.71 358.52 581.72 358.52 581.72 358.5 581.72 358.48 581.72 358.46 581.72 358.44 581.72 358.42 581.72 358.41 581.72 358.39 581.72 358.37 581.72 358.35 581.72 358.35 581.72 358.33 581.73 358.29 581.73 358.28 581.73 358.26 581.73 358.24 581.73 358.23 581.73 358.21 581.73 358.17 581.73 358.16 581.72 358.08 581.72 358.07 581.72 358.05 581.72 358.01 581.72 358 581.72 357.98 581.72 357.96 581.72 357.94 581.72 357.92 581.73 357.89 581.72 357.85 581.72 357.82 581.71 357.79 581.71 357.78 581.7 357.72 581.7 357.71 581.7 357.69 581.7 357.67 581.69 357.65 581.69 357.63 581.69 357.62 581.69 357.59 581.69 357.57 581.69 357.55 581.69 357.5 581.69 357.48 581.69 357.47 581.69 357.46 581.69 357.44 581.69 357.42 581.68 357.39 581.68 357.37 581.68 357.35 581.68 357.35 581.68 357.33 581.68 357.31 581.68 357.29 581.68 357.2 581.68 357.17 581.68 357.13 581.68 357.11 581.68 357.1 581.68 357.08 581.68 357.06 581.67 357.04 581.67 357.01 581.67 356.99 581.67 356.97 581.68 356.95 581.69 356.94 581.69 356.92 581.69 356.9 581.7 356.88 581.7 356.85 581.7 356.83 581.7 356.81 581.7 356.8 581.7 356.79 581.7 356.77 581.7 356.75 581.7 356.73 581.69 356.7 581.69 356.68 581.69 356.67 581.69 356.65 581.69 356.63 581.69 356.61 581.69 356.6 581.7 356.58 581.7 356.54 581.7 356.53 581.71 356.51 581.71 356.48 581.71 356.46 581.72 356.44 581.72 356.42 581.72 356.41 581.72 356.4 581.72 356.38 581.72 356.37 581.72 356.33 581.72 356.31 581.72 356.31 581.72 356.28 581.72 356.26 581.72 356.22 581.72 356.2 581.72 356.18 581.72 356.17 581.72 356.15 581.73 356.13 581.73 356.12 581.73 356.11 581.73 356.09 581.74 356.07 581.74 356.05 581.74 356.05 581.74 356.03 581.74 356.01 581.74 355.99 581.75 355.98 581.75 355.96 581.75 355.95 581.75 355.93 581.75 355.92 581.76 355.9 581.76 355.89 581.77 355.88 581.79 355.73 581.82 355.55 581.84 355.56 581.96 355.46 582.22 355.25 582.3 355.21 582.39 355.16 582.48 355.12 582.59 355.07 582.69 355.07 582.7 355.06 582.95 355.05 583.05 355.04 583.37 355.02 583.64 355 583.68 355 583.74 355.02 584 355.08 584.21 355.13 584.29 355.15 584.33 355.16 584.34 355.16 584.47 355.2 584.52 355.21 Z"/>
</g></svg>