<svg xmlns="http://www.w3.org/2000/svg" version="1.2" baseProfile="tiny" stroke-linecap="round" stroke-linejoin="round" viewBox="615.68 357.6 26.68 15.23"><g xmlns="http://www.w3.org/2000/svg" id="Ledea">
<path d="M 634.81 358.15 634.59 358.3 634.91 359.36 634.94 359.46 634.95 359.47 634.95 359.49 634.96 359.51 634.96 359.52 634.97 359.54 634.97 359.56 634.97 359.58 634.98 359.6 634.98 359.61 634.98 359.63 634.99 359.65 634.99 359.66 634.99 359.68 635 359.7 635 359.72 635 359.73 635 359.75 635 359.77 635.01 359.79 635.01 359.8 635.01 359.82 635.01 359.83 635.01 359.85 635.02 359.86 635.02 359.88 635.04 359.94 635.1 360.14 635.1 360.15 635.19 360.4 635.36 360.58 635.39 360.63 635.4 360.64 635.41 360.66 635.44 360.71 635.45 360.73 635.46 360.75 635.51 360.83 635.53 360.86 635.58 360.95 635.6 360.98 635.62 361.01 635.63 361.01 635.65 361.04 635.66 361.05 635.67 361.07 635.67 361.08 635.68 361.09 635.69 361.11 635.7 361.13 635.71 361.14 635.72 361.15 635.72 361.17 635.73 361.18 635.74 361.2 635.75 361.22 635.76 361.23 635.77 361.25 635.78 361.26 635.78 361.28 635.78 361.29 635.79 361.31 635.79 361.33 635.79 361.35 635.8 361.36 635.8 361.38 635.81 361.4 635.82 361.41 635.83 361.44 635.83 361.46 635.84 361.47 635.84 361.49 635.84 361.51 635.85 361.52 635.85 361.55 635.85 361.57 635.85 361.59 635.85 361.61 635.86 361.63 635.86 361.64 635.86 361.66 635.87 361.67 635.87 361.69 635.88 361.71 635.88 361.72 635.88 361.74 635.89 361.76 635.89 361.78 635.89 361.8 635.89 361.82 635.89 361.83 635.89 361.85 635.88 361.86 635.88 361.88 635.88 361.9 635.88 361.92 635.87 361.93 635.86 362.01 635.86 362.03 635.86 362.03 635.87 362.05 635.95 362.28 635.95 362.29 636.02 362.5 636.08 362.47 636.09 362.46 636.1 362.46 636.12 362.45 636.14 362.44 636.15 362.43 636.16 362.43 636.18 362.42 636.19 362.41 636.22 362.39 636.24 362.38 636.25 362.37 636.27 362.36 636.28 362.35 636.3 362.34 636.3 362.34 636.32 362.34 636.34 362.33 636.36 362.33 636.37 362.32 636.39 362.32 636.41 362.31 636.41 362.31 636.42 362.3 636.44 362.3 636.45 362.29 636.47 362.29 636.49 362.28 636.51 362.28 636.53 362.27 636.54 362.27 636.57 362.26 636.59 362.26 636.6 362.26 636.62 362.26 636.64 362.26 636.65 362.26 636.67 362.26 636.68 362.26 636.69 362.26 636.71 362.26 636.73 362.26 636.74 362.25 636.75 362.25 636.77 362.24 636.78 362.23 636.81 362.21 636.82 362.19 636.83 362.18 636.83 362.17 636.84 362.16 636.86 362.16 636.88 362.15 636.89 362.15 636.91 362.15 636.92 362.15 636.94 362.16 636.95 362.16 636.97 362.16 636.99 362.17 637.01 362.18 637.02 362.19 637.04 362.2 637.05 362.21 637.06 362.22 637.08 362.24 637.09 362.25 637.1 362.25 637.11 362.26 637.12 362.28 637.14 362.28 637.16 362.29 637.17 362.29 637.19 362.3 637.21 362.3 637.22 362.3 637.24 362.3 637.26 362.3 637.28 362.3 637.3 362.3 637.32 362.3 637.33 362.3 637.35 362.29 637.37 362.29 637.4 362.29 637.42 362.29 637.44 362.29 637.45 362.29 637.47 362.28 637.48 362.28 637.5 362.28 637.52 362.29 637.53 362.29 637.55 362.29 637.57 362.29 637.58 362.29 637.6 362.29 637.62 362.29 637.63 362.3 637.65 362.3 637.67 362.3 637.69 362.31 637.71 362.31 637.72 362.32 637.74 362.32 637.76 362.33 637.77 362.33 637.79 362.34 637.81 362.35 637.83 362.35 637.84 362.36 637.86 362.36 637.88 362.37 637.89 362.38 637.91 362.39 637.92 362.39 638 362.43 638.02 362.43 638.04 362.43 638.05 362.43 638.07 362.43 638.09 362.43 638.11 362.44 638.13 362.44 638.15 362.44 638.17 362.44 638.19 362.45 638.2 362.45 638.22 362.45 638.23 362.46 638.25 362.46 638.27 362.47 638.29 362.47 638.38 362.5 638.4 362.51 638.42 362.52 638.43 362.52 638.45 362.53 638.47 362.54 638.48 362.55 638.49 362.56 638.51 362.57 638.52 362.58 638.54 362.59 638.56 362.61 638.58 362.62 638.59 362.63 638.6 362.65 638.61 362.66 638.62 362.66 638.63 362.67 638.64 362.68 638.65 362.69 638.67 362.7 638.68 362.71 638.69 362.73 638.71 362.74 638.72 362.75 638.73 362.76 638.75 362.78 638.76 362.79 638.77 362.8 638.78 362.82 638.79 362.83 638.8 362.84 638.82 362.86 638.83 362.87 638.84 362.88 638.85 362.89 638.86 362.91 638.87 362.92 638.88 362.93 638.9 362.95 638.91 362.96 638.92 362.97 638.93 362.99 638.94 363 638.95 363.01 638.96 363.03 638.97 363.04 638.99 363.06 639.01 363.08 639.03 363.11 639.04 363.12 639.05 363.14 639.06 363.15 639.07 363.16 639.08 363.18 639.09 363.19 639.1 363.2 639.12 363.22 639.13 363.23 639.15 363.24 639.16 363.25 639.18 363.26 639.3 363.35 639.31 363.36 639.32 363.37 639.35 363.4 639.36 363.41 639.37 363.42 639.4 363.44 639.41 363.45 639.42 363.47 639.46 363.5 639.48 363.52 639.51 363.54 639.52 363.55 639.53 363.57 639.55 363.58 639.56 363.6 639.57 363.61 639.58 363.62 639.59 363.64 639.6 363.65 639.61 363.67 639.63 363.68 639.64 363.69 639.65 363.7 639.66 363.72 639.67 363.73 639.68 363.74 639.7 363.76 639.71 363.77 639.73 363.77 639.73 363.78 639.75 363.79 639.77 363.8 639.77 363.8 639.86 363.84 639.88 363.85 639.89 363.86 639.91 363.86 639.92 363.87 639.94 363.88 639.96 363.89 639.97 363.9 639.99 363.91 640.01 363.92 640.03 363.93 640.04 363.94 640.06 363.95 640.07 363.96 640.09 363.97 640.1 363.98 640.11 363.99 640.13 364 640.14 364.01 640.16 364.02 640.16 364.03 640.18 364.04 640.2 364.06 640.22 364.07 640.23 364.08 640.24 364.09 640.26 364.1 640.27 364.11 640.29 364.12 640.3 364.13 640.32 364.14 640.34 364.16 640.35 364.17 640.35 364.17 640.41 364.23 640.48 364.29 640.49 364.3 640.5 364.32 640.52 364.33 640.53 364.34 640.54 364.35 640.56 364.37 640.57 364.38 640.58 364.39 640.59 364.4 640.61 364.42 640.61 364.42 640.62 364.44 640.64 364.45 640.65 364.46 640.66 364.47 640.68 364.5 640.7 364.52 640.71 364.53 640.72 364.55 640.73 364.56 640.74 364.57 640.76 364.58 640.77 364.59 640.78 364.6 640.8 364.61 640.81 364.62 640.83 364.63 640.84 364.64 640.85 364.65 640.9 364.68 640.91 364.69 640.93 364.7 640.94 364.72 640.97 364.74 640.98 364.75 641.01 364.76 641.02 364.78 641.03 364.79 641.05 364.8 641.06 364.81 641.08 364.82 641.08 364.82 641.09 364.83 641.11 364.85 641.12 364.86 641.13 364.88 641.14 364.89 641.14 364.91 641.15 364.92 641.16 364.94 641.17 364.95 641.17 364.96 641.18 364.98 641.19 364.99 641.2 365.01 641.21 365.02 641.22 365.03 641.23 365.05 641.24 365.06 641.26 365.07 641.27 365.09 641.28 365.1 641.29 365.12 641.3 365.13 641.31 365.15 641.33 365.16 641.34 365.18 641.35 365.19 641.36 365.21 641.36 365.22 641.37 365.23 641.38 365.25 641.39 365.26 641.4 365.28 641.41 365.3 641.42 365.31 641.43 365.32 641.43 365.34 641.58 365.31 641.61 365.3 641.65 365.28 641.68 365.27 641.7 365.27 641.71 365.26 641.73 365.25 641.75 365.25 641.76 365.24 641.78 365.24 641.8 365.23 641.81 365.22 641.83 365.22 641.84 365.21 641.86 365.21 641.88 365.2 641.89 365.2 641.91 365.19 641.94 365.19 641.95 365.18 641.97 365.18 641.99 365.17 642 365.17 642.02 365.16 642.04 365.16 642.06 365.16 642.08 365.15 642.09 365.15 642.1 365.15 642.23 365.12 642.23 365.14 642.24 365.15 642.25 365.17 642.26 365.2 642.26 365.22 642.27 365.24 642.27 365.25 642.28 365.27 642.28 365.29 642.29 365.33 642.3 365.35 642.3 365.36 642.31 365.38 642.31 365.4 642.31 365.41 642.31 365.43 642.32 365.45 642.32 365.47 642.32 365.51 642.32 365.52 642.33 365.55 642.33 365.57 642.33 365.58 642.33 365.6 642.33 365.61 642.34 365.63 642.34 365.64 642.34 365.66 642.34 365.7 642.34 365.71 642.34 365.78 642.34 365.82 642.34 365.87 642.34 365.97 642.34 366.07 642.32 366.17 642.29 366.27 642.2 366.47 641.98 366.89 641.8 367.28 641.61 367.69 641.51 367.92 641.39 368.15 641.2 368.42 641.01 368.69 640.86 368.91 640.69 369.15 640.57 369.35 640.46 369.56 640.36 369.82 640.3 370.03 640.24 370.32 640.21 370.6 640.2 370.88 640.21 371.13 640.23 371.49 640.23 371.65 640.21 371.82 640.19 371.94 640.16 372.06 640.12 372.16 640.09 372.23 640.05 372.3 639.99 372.37 639.92 372.44 639.82 372.51 639.72 372.55 639.57 372.6 639.22 372.7 638.96 372.76 638.75 372.81 638.64 372.81 638.54 372.79 638.46 372.78 638.3 372.77 637.98 372.76 637.59 372.76 637.25 372.74 637.13 372.72 636.93 372.69 636.75 372.66 636.62 372.6 636.48 372.5 636.33 372.37 636.2 372.25 636.09 372.11 635.96 371.92 635.84 371.68 635.69 371.4 635.52 371.03 635.43 370.81 635.38 370.64 635.33 370.42 635.29 370.21 635.27 370 635.27 369.88 635.25 369.8 635.23 369.73 635.2 369.67 635.15 369.61 635.08 369.56 635 369.52 634.84 369.46 634.71 369.44 634.54 369.42 634.4 369.42 634.22 369.43 634.09 369.45 633.96 369.48 633.83 369.53 633.69 369.6 633.56 369.68 633.44 369.77 633.3 369.89 632.72 370.46 632.59 370.58 632.51 370.63 632.42 370.67 632.3 370.69 632.12 370.71 631.77 370.75 631.32 370.77 631.07 370.77 630.99 370.77 630.88 370.75 630.79 370.72 630.69 370.67 630.6 370.62 630.51 370.57 630.41 370.52 630.32 370.49 630.25 370.48 630.18 370.46 630.08 370.46 629.99 370.46 629.93 370.47 629.85 370.49 629.75 370.54 629.62 370.61 629.51 370.68 629.4 370.76 629.33 370.83 629.24 370.91 629.16 371.01 629.08 371.11 629.01 371.22 628.95 371.34 628.91 371.47 628.87 371.61 628.85 371.73 628.74 371.76 628.71 371.77 628.68 371.78 628.65 371.78 628.62 371.79 628.58 371.8 628.56 371.8 628.55 371.81 628.53 371.81 628.51 371.82 628.48 371.83 628.47 371.83 628.44 371.84 628.42 371.84 628.4 371.85 628.39 371.85 628.37 371.86 628.36 371.86 628.34 371.86 628.32 371.86 628.31 371.86 628.29 371.86 628.26 371.87 628.23 371.87 628.22 371.87 628.2 371.88 628.18 371.88 628.16 371.88 628.15 371.88 628.14 371.88 628.12 371.89 627.54 372.08 627.53 372.08 627.47 372.1 627.42 372.11 627.42 372.11 627.38 372.13 627.31 372.15 627.22 371.98 627.21 371.97 627.19 371.93 627.17 371.9 627.16 371.87 627.15 371.85 627.14 371.83 627.13 371.82 627.1 371.76 627.08 371.72 627.07 371.7 627.06 371.68 627.06 371.67 627.04 371.64 627.03 371.62 627.02 371.61 627.01 371.59 627.01 371.57 627 371.56 626.99 371.54 626.98 371.53 626.96 371.46 626.95 371.44 626.93 371.4 626.93 371.39 626.92 371.37 626.91 371.35 626.91 371.34 626.9 371.32 626.88 371.25 626.88 371.24 626.87 371.22 626.87 371.2 626.87 371.18 626.86 371.16 626.86 371.13 626.85 371.11 626.85 371.09 626.75 371.02 626.41 370.8 626.39 370.79 626.38 370.77 626.37 370.76 626.19 370.56 626.12 370.49 626.07 370.43 626.05 370.41 626 370.34 625.98 370.32 625.96 370.29 625.77 369.98 625.76 369.97 625.75 369.95 625.74 369.94 625.74 369.93 625.73 369.91 625.72 369.9 625.71 369.88 625.71 369.87 625.7 369.85 625.69 369.83 625.68 369.82 625.68 369.8 625.67 369.79 625.66 369.77 625.65 369.76 625.64 369.75 625.63 369.73 625.61 369.71 625.6 369.69 625.59 369.68 625.57 369.65 625.56 369.64 625.55 369.62 625.55 369.62 625.54 369.6 625.52 369.59 625.51 369.58 625.49 369.56 625.48 369.55 625.46 369.53 625.45 369.52 625.44 369.51 625.43 369.49 625.24 369.33 625.23 369.32 625.22 369.31 625.22 369.3 625.22 369.29 625.22 369.27 625.21 369.25 625.21 369.23 625.21 369.22 625.21 369.2 625.2 369.18 625.2 369.16 625.2 369.14 625.19 369.12 625.19 369.09 625.19 369.06 625.18 369.04 625.18 369.03 625.18 369.01 625.18 368.98 625.12 368.93 625.11 368.92 625.1 368.9 625.09 368.9 625.08 368.88 625.06 368.86 625.05 368.84 625.04 368.84 625.03 368.82 625.01 368.8 625 368.78 624.98 368.77 624.97 368.76 624.97 368.75 624.96 368.74 624.95 368.72 624.94 368.71 624.93 368.69 624.92 368.67 624.91 368.66 624.9 368.64 624.89 368.63 624.88 368.61 624.87 368.6 624.86 368.58 624.85 368.57 624.85 368.55 624.84 368.54 624.83 368.52 624.82 368.5 624.82 368.48 624.81 368.47 624.81 368.45 624.8 368.44 624.79 368.42 624.79 368.4 624.78 368.38 624.77 368.37 624.77 368.35 624.76 368.34 624.75 368.32 624.75 368.31 624.74 368.3 624.73 368.28 624.73 368.27 624.72 368.25 624.71 368.23 624.7 368.21 624.7 368.2 624.68 368.15 624.67 368.12 624.66 368.1 624.66 368.09 624.65 368.06 624.65 368.05 624.65 368.03 624.65 368.02 624.64 368 624.64 367.98 624.63 367.96 624.63 367.95 624.63 367.94 624.62 367.92 624.61 367.91 624.61 367.89 624.6 367.87 624.59 367.85 624.59 367.83 624.58 367.82 624.57 367.8 624.56 367.79 624.55 367.77 624.54 367.76 624.53 367.75 624.52 367.73 624.47 367.7 624.46 367.69 624.45 367.68 624.43 367.67 624.42 367.66 624.39 367.63 624.38 367.62 624.36 367.62 624.35 367.61 624.33 367.6 624.32 367.58 624.31 367.57 624.3 367.55 624.29 367.53 624.27 367.5 624.26 367.49 624.25 367.47 624.23 367.46 624.22 367.45 624.2 367.45 624.18 367.44 624.16 367.44 624.15 367.44 624.13 367.43 624.11 367.43 624.1 367.43 624.08 367.43 624.06 367.43 624.05 367.42 624.03 367.42 624.02 367.41 624 367.4 623.98 367.4 623.97 367.39 623.95 367.38 623.93 367.38 623.92 367.37 623.9 367.36 623.89 367.35 623.88 367.35 623.86 367.33 623.85 367.33 623.84 367.31 623.83 367.3 623.81 367.29 623.8 367.28 623.79 367.27 623.78 367.26 623.76 367.24 623.75 367.22 623.74 367.21 623.73 367.2 623.72 367.18 623.72 367.17 623.71 367.16 623.71 367.14 623.7 367.12 623.69 367.1 623.69 367.08 623.68 367.07 623.67 367.05 623.66 367.04 623.66 367.02 623.65 367.01 623.65 366.99 623.65 366.97 623.65 366.95 623.65 366.94 623.65 366.93 623.65 366.91 623.65 366.89 623.65 366.88 623.66 366.86 623.67 366.85 623.67 366.83 623.67 366.82 623.68 366.81 623.69 366.79 623.69 366.77 623.69 366.76 623.69 366.74 623.68 366.73 623.68 366.71 623.67 366.69 623.66 366.67 623.65 366.66 623.64 366.66 623.63 366.65 623.61 366.64 623.59 366.64 623.58 366.64 623.56 366.64 623.55 366.65 623.53 366.65 623.51 366.64 623.49 366.63 623.48 366.62 623.47 366.61 623.44 366.59 623.43 366.58 623.41 366.57 623.4 366.56 623.38 366.55 623.36 366.54 623.34 366.53 623.33 366.52 623.32 366.51 623.3 366.5 623.29 366.49 623.28 366.48 623.26 366.47 623.25 366.47 623.23 366.46 623.22 366.45 623.2 366.44 623.19 366.44 623.17 366.43 623.16 366.42 623.14 366.41 623.12 366.41 623.11 366.41 623.09 366.4 623.08 366.4 623.06 366.4 623 366.39 622.99 366.39 622.97 366.38 622.96 366.37 622.94 366.37 622.93 366.36 622.91 366.35 622.89 366.34 622.87 366.33 622.86 366.33 622.84 366.32 622.83 366.32 622.8 366.3 622.78 366.3 622.76 366.29 622.75 366.28 622.73 366.28 622.71 366.27 622.7 366.27 622.68 366.26 622.67 366.26 622.65 366.25 622.63 366.25 622.62 366.25 622.6 366.24 622.58 366.24 622.56 366.23 622.55 366.23 622.53 366.22 622.51 366.22 622.5 366.21 622.48 366.21 622.46 366.21 622.45 366.21 622.41 366.21 622.36 366.27 622.35 366.28 622.33 366.3 622.31 366.32 622.3 366.33 622.29 366.34 622.28 366.35 622.25 366.37 622.23 366.38 622.22 366.4 622.21 366.41 622.19 366.42 622.18 366.43 622.17 366.45 622.16 366.46 622.15 366.48 622.14 366.48 622.13 366.5 622.12 366.51 622.1 366.52 622.09 366.53 622.08 366.54 622.07 366.55 621.79 366.49 621.78 366.48 621.76 366.48 621.75 366.47 621.74 366.46 621.72 366.46 621.71 366.44 621.69 366.44 621.68 366.43 621.66 366.42 621.65 366.41 621.63 366.4 621.62 366.4 621.61 366.39 621.59 366.39 621.57 366.38 621.55 366.38 621.54 366.38 621.52 366.37 621.5 366.37 621.48 366.36 621.47 366.35 621.45 366.34 621.43 366.33 621.42 366.32 621.4 366.31 621.39 366.29 621.37 366.28 621.36 366.27 621.35 366.26 621.33 366.24 621.31 366.23 621.3 366.22 621.28 366.21 621.27 366.2 621.25 366.2 621.24 366.19 621.22 366.18 621.2 366.17 621.19 366.16 621.15 366.14 621.15 366.14 621.14 366.12 621.13 366.11 621.12 366.09 621.11 366.08 621.1 366.07 621.1 366.05 621.08 366.03 621.08 366.02 621.07 366 621.06 365.98 621.05 365.97 621.04 365.95 621.03 365.93 621.01 365.9 621 365.89 620.99 365.87 620.98 365.86 620.97 365.85 620.96 365.84 620.94 365.83 620.89 365.76 620.88 365.77 620.86 365.77 620.85 365.77 620.83 365.77 620.81 365.77 620.8 365.77 620.78 365.76 620.76 365.76 620.75 365.75 620.73 365.74 620.71 365.74 620.7 365.73 620.68 365.73 620.64 365.71 620.62 365.71 620.61 365.7 620.59 365.69 620.57 365.69 620.57 365.68 620.55 365.68 620.53 365.67 620.52 365.66 620.5 365.65 620.49 365.65 620.48 365.64 620.46 365.63 620.45 365.62 620.43 365.61 620.41 365.6 620.4 365.59 620.38 365.58 620.37 365.57 620.36 365.56 620.34 365.55 620.33 365.54 620.32 365.54 620.31 365.53 620.29 365.52 620.28 365.51 620.26 365.5 620.24 365.5 620.23 365.49 620.21 365.48 620.19 365.47 620.18 365.46 620.16 365.46 620.15 365.45 620.13 365.44 620.12 365.43 620.1 365.42 620.09 365.41 620.07 365.4 620.06 365.39 620.05 365.39 620.04 365.38 620.02 365.37 620 365.36 619.99 365.36 619.97 365.36 619.96 365.36 619.94 365.36 619.91 365.36 619.9 365.36 619.88 365.36 619.86 365.36 619.85 365.37 619.83 365.37 619.81 365.38 619.79 365.38 619.78 365.38 619.76 365.38 619.74 365.38 619.72 365.38 619.71 365.38 619.7 365.39 619.67 365.39 619.65 365.39 619.63 365.39 619.61 365.39 619.6 365.39 619.58 365.38 619.56 365.38 619.54 365.37 619.53 365.37 619.52 365.36 619.5 365.36 619.49 365.35 619.47 365.34 619.46 365.33 619.44 365.32 619.43 365.31 619.42 365.3 619.4 365.29 619.4 365.28 619.38 365.27 619.37 365.25 619.36 365.24 619.36 365.23 619.34 365.22 619.33 365.21 619.32 365.2 619.3 365.19 619.29 365.17 619.29 365.17 619.27 365.15 619.26 365.14 619.25 365.13 619.24 365.12 619.23 365.11 619.22 365.1 619.2 365.09 619.19 365.08 619.18 365.07 619.17 365.06 619.15 365.05 619.14 365.04 619.12 365.03 619.11 365.02 619.08 365.02 619.06 365.02 619.05 365.02 619.03 365.01 619.01 365.01 619 365.01 618.98 365.01 618.96 365.01 618.94 365 618.92 364.99 618.91 364.99 618.9 364.98 618.88 364.97 618.87 364.96 618.85 364.95 618.83 364.94 618.82 364.93 618.8 364.93 618.79 364.92 618.78 364.91 618.77 364.9 618.75 364.89 618.74 364.88 618.73 364.88 618.71 364.88 618.69 364.87 618.68 364.87 618.67 364.87 618.65 364.87 618.63 364.87 618.61 364.87 618.6 364.87 618.59 364.87 618.55 364.87 618.53 364.87 618.51 364.87 618.49 364.87 618.48 364.87 618.47 364.87 618.43 364.87 618.42 364.87 618.4 364.87 618.38 364.87 618.36 364.87 618.35 364.87 618.33 364.86 618.31 364.87 618.3 364.87 618.18 364.9 618.18 364.9 618.16 364.89 618.15 364.87 618.14 364.86 618.12 364.85 618.1 364.84 618.1 364.84 618.07 364.82 618.06 364.82 618.04 364.81 618.03 364.8 618 364.79 617.99 364.79 617.97 364.78 617.96 364.77 617.94 364.76 617.93 364.75 617.92 364.73 617.91 364.73 617.89 364.72 617.88 364.71 617.86 364.7 617.85 364.69 617.83 364.68 617.83 364.67 617.81 364.66 617.8 364.65 617.79 364.63 617.78 364.63 617.77 364.62 617.76 364.6 617.74 364.59 617.73 364.58 617.72 364.57 617.67 364.53 617.55 364.59 617.53 364.58 617.52 364.57 617.5 364.56 617.49 364.55 617.48 364.53 617.46 364.52 617.44 364.5 617.43 364.49 617.42 364.47 617.41 364.46 617.4 364.45 617.39 364.43 617.37 364.43 617.35 364.42 617.34 364.41 617.32 364.41 617.3 364.41 617.28 364.41 617.27 364.4 617.26 364.4 617.24 364.4 617.22 364.39 617.21 364.39 617.18 364.38 617.15 364.37 617.13 364.37 617.12 364.36 617.1 364.35 617.08 364.35 617.07 364.34 617.05 364.33 617.03 364.33 617.02 364.32 617.01 364.31 616.99 364.31 616.96 364.3 616.94 364.29 616.92 364.28 616.91 364.27 616.89 364.26 616.88 364.26 616.86 364.25 616.85 364.24 616.84 364.23 616.82 364.22 616.81 364.21 616.79 364.21 616.78 364.2 616.76 364.19 616.74 364.18 616.74 364.18 616.72 364.17 616.71 364.16 616.69 364.15 616.68 364.13 616.66 364.12 616.65 364.11 616.63 364.1 616.62 364.1 616.6 364.09 616.59 364.08 616.56 364.06 616.54 364.05 616.53 364.04 616.51 364.03 616.46 363.99 616.44 363.98 616.43 363.97 616.41 363.97 616.4 363.96 616.39 363.94 616.37 363.93 616.36 363.92 616.34 363.91 616.33 363.9 616.32 363.89 616.3 363.88 616.29 363.87 616.27 363.86 616.26 363.84 616.25 363.83 616.24 363.82 616.22 363.81 616.2 363.78 616.18 363.77 616.17 363.76 616.16 363.75 616.14 363.74 616.12 363.71 616.11 363.7 616.09 363.69 616.07 363.68 616.06 363.67 616.04 363.65 616.03 363.64 616.02 363.63 616.01 363.62 615.99 363.61 615.95 363.56 615.94 363.55 615.93 363.54 615.92 363.52 615.91 363.5 615.91 363.5 615.9 363.48 615.89 363.47 615.88 363.45 615.87 363.44 615.86 363.42 615.85 363.41 615.84 363.39 615.84 363.38 615.83 363.36 615.83 363.35 615.82 363.32 615.81 363.31 615.81 363.29 615.8 363.28 615.79 363.27 615.78 363.25 615.78 363.24 615.77 363.21 615.76 363.2 615.75 363.18 615.75 363.16 615.74 363.15 615.74 363.14 615.74 363.12 615.73 363.1 615.73 363.09 615.72 363.07 615.72 363.06 615.72 363.05 615.72 363.03 615.72 363.01 615.72 362.99 615.71 362.98 615.71 362.96 615.7 362.94 615.7 362.92 615.7 362.9 615.69 362.89 615.69 362.87 615.69 362.85 615.69 362.83 615.69 362.81 615.69 362.79 615.69 362.78 615.69 362.76 615.69 362.75 615.69 362.73 615.7 362.71 615.7 362.7 615.7 362.68 615.7 362.66 615.7 362.65 615.71 362.63 615.71 362.62 615.71 362.6 615.71 362.59 615.71 362.57 615.71 362.56 615.71 362.54 615.71 362.52 615.72 362.5 615.72 362.48 615.73 362.44 615.74 362.42 615.74 362.41 615.75 362.39 615.75 362.37 615.76 362.37 615.76 362.35 615.77 362.33 615.77 362.32 615.78 362.3 615.78 362.29 615.79 362.27 615.8 362.25 615.82 362.21 615.83 362.2 615.83 362.18 615.84 362.17 615.85 362.15 615.86 362.14 615.88 362.12 615.89 362.11 615.9 362.11 615.91 362.1 615.93 362.09 615.95 362.08 615.97 362.07 615.98 362.07 616 362.06 616.03 362.05 616.06 362.03 616.08 362.02 616.11 362.01 616.13 362 616.14 361.99 616.16 361.99 616.17 361.98 616.19 361.98 616.2 361.97 616.22 361.97 616.24 361.96 616.25 361.96 616.27 361.95 616.28 361.95 616.32 361.94 616.33 361.93 616.34 361.93 616.36 361.93 616.38 361.92 616.39 361.92 616.41 361.91 616.42 361.91 616.44 361.91 616.45 361.91 616.47 361.9 616.49 361.9 616.51 361.9 616.52 361.9 616.56 361.89 616.61 361.88 616.67 361.87 616.7 361.87 616.72 361.87 616.73 361.86 616.75 361.86 616.78 361.85 616.81 361.85 616.83 361.84 616.85 361.84 616.87 361.84 616.89 361.83 616.9 361.83 616.92 361.83 616.94 361.83 616.95 361.83 616.96 361.82 616.98 361.81 617 361.81 617.01 361.8 617.04 361.78 617.05 361.77 617.07 361.76 617.1 361.74 617.11 361.74 617.13 361.73 617.14 361.72 617.16 361.7 617.17 361.7 617.17 361.69 617.18 361.68 617.2 361.67 617.21 361.66 617.22 361.65 617.24 361.63 617.25 361.62 617.26 361.61 617.27 361.6 617.29 361.59 617.3 361.58 617.31 361.57 617.33 361.56 617.33 361.55 617.35 361.54 617.36 361.53 617.37 361.51 617.4 361.49 617.43 361.46 617.44 361.45 617.45 361.44 617.46 361.43 617.47 361.42 617.48 361.41 617.53 361.35 617.56 361.27 617.66 361.1 617.7 361.02 617.76 360.99 617.85 360.94 617.89 360.91 617.93 360.91 617.97 360.9 618.07 360.9 618.09 360.9 618.26 360.9 618.36 360.9 618.38 360.9 618.66 360.92 618.67 360.92 618.69 360.93 618.71 360.93 618.73 360.93 618.74 360.93 618.78 360.93 618.8 360.93 618.81 360.93 618.86 360.93 618.88 360.93 618.9 360.93 618.92 360.92 618.94 360.92 618.96 360.92 618.98 360.93 618.99 360.93 619.05 360.93 619.13 360.92 619.14 360.92 619.15 360.92 619.17 360.92 619.18 360.92 619.22 360.92 619.24 360.92 619.26 360.92 619.28 360.92 619.3 360.92 619.31 360.92 619.37 360.92 619.4 360.92 619.43 360.92 619.46 360.92 619.48 360.92 619.5 360.91 619.52 360.91 619.55 360.91 619.57 360.91 619.59 360.91 619.61 360.91 619.63 360.91 619.64 360.9 619.66 360.9 619.68 360.9 619.74 360.85 619.85 360.76 619.93 360.7 620.06 360.58 621.02 360.22 621.94 359.56 621.95 359.56 621.99 359.53 622.1 359.41 622.12 359.4 622.19 359.33 622.2 359.32 622.21 359.31 622.22 359.3 622.24 359.3 622.75 359 624.26 358.77 624.33 358.77 624.38 358.77 624.6 358.77 624.63 358.76 624.81 358.76 624.84 358.76 625.48 358.39 627.2 358.03 627.82 357.9 628.68 357.78 628.97 357.74 629.72 357.6 632.2 357.94 632.45 357.97 632.65 358.01 632.79 358.04 633.17 357.79 634.81 358.15 Z"/>
</g></svg>