<svg xmlns="http://www.w3.org/2000/svg" version="1.2" baseProfile="tiny" stroke-linecap="round" stroke-linejoin="round" viewBox="476.37 318.75 9.93 17.53"><g xmlns="http://www.w3.org/2000/svg" id="Legarda">
<path d="M 484.78 320.65 484.81 320.86 484.83 320.94 484.84 320.97 484.87 321.06 484.9 321.16 484.91 321.18 484.93 321.25 485 321.45 485.03 321.56 485.07 321.65 485.11 321.74 485.22 321.99 485.25 322.08 485.29 322.18 485.43 322.45 485.52 322.62 485.7 323 485.71 323.03 485.75 323.1 485.94 323.54 486.13 323.68 486.16 323.71 486.3 323.81 486.28 323.84 486.06 324.15 486.04 324.16 485.87 324.38 485.85 324.41 485.87 324.51 485.87 324.84 485.86 324.84 485.6 324.94 485.54 324.96 485.37 325.01 485.32 325.03 485.2 325.06 485.11 325.3 485.07 325.42 484.99 325.62 484.97 325.66 484.91 325.79 484.9 325.81 484.87 325.88 484.81 325.91 484.8 325.92 484.34 326.17 484.27 326.21 484.22 326.24 484.07 326.32 484.01 326.34 483.91 326.74 483.91 326.76 483.88 326.88 483.82 327.13 483.8 327.24 483.8 327.32 483.8 327.42 483.8 327.45 483.82 327.81 483.9 328.19 483.9 328.23 483.95 328.45 484.03 328.96 483.99 329.08 483.99 329.09 483.93 329.22 483.93 329.24 483.87 329.38 483.87 329.38 483.86 329.39 483.79 329.55 483.61 329.89 483.49 330.2 483.33 330.61 483.26 330.78 483.25 330.82 483.22 330.87 482.96 331.43 482.95 331.46 482.94 331.49 482.92 331.53 482.91 331.54 482.88 331.59 482.85 331.64 482.82 331.68 482.8 331.72 482.77 331.76 482.71 331.83 482.69 331.86 482.67 331.89 482.65 331.91 482.64 331.92 482.51 332.12 482.26 332.52 482.25 332.53 482.24 332.55 482.13 332.71 481.99 332.92 481.68 333.43 481.65 333.48 481.5 333.71 481.47 333.76 481.45 333.8 481.42 333.84 481.39 333.89 481.37 333.93 481.33 334.01 481.31 334.03 481.29 334.05 481.26 334.08 481.21 334.12 481.18 334.15 481.14 334.2 481.11 334.24 481.08 334.28 481.06 334.31 481.05 334.32 481.02 334.38 481 334.43 480.99 334.5 480.97 334.61 480.96 334.68 480.94 334.73 480.93 334.75 480.89 334.84 480.86 334.91 480.82 334.95 480.77 335.01 480.72 335.07 480.67 335.14 480.61 335.22 480.6 335.23 480.56 335.3 480.46 335.44 480.43 335.44 480.4 335.45 480.33 335.44 480.26 335.44 480.22 335.45 480.17 335.46 480.08 335.48 480.01 335.5 479.82 335.56 479.67 335.62 479.53 335.67 479.43 335.7 479.4 335.7 479.23 335.7 479.14 335.69 479.01 335.68 478.97 335.68 478.94 335.68 478.94 335.68 478.88 335.69 478.86 335.7 478.83 335.71 478.79 335.73 478.77 335.75 478.75 335.79 478.74 335.83 478.71 335.87 478.71 335.88 478.7 335.9 478.69 335.91 478.67 335.93 478.63 335.97 478.56 336.04 478.53 336.08 478.5 336.11 478.43 336.18 478.4 336.21 478.39 336.22 478.38 336.23 478.36 336.23 478.35 336.23 478.3 336.23 478.21 336.23 478.16 336.23 478.15 336.23 478.14 336.23 477.73 336.28 477.64 336.09 477.58 335.94 477.57 335.9 477.55 335.86 477.54 335.81 477.54 335.77 477.53 335.73 477.53 335.72 477.49 335.71 477.45 335.69 477.25 335.6 477.07 335.53 476.99 335.49 476.85 335.41 476.72 335.34 476.69 335.31 476.53 335.1 476.43 334.96 476.42 334.95 476.4 334.92 476.4 334.91 476.39 334.89 476.38 334.85 476.38 334.82 476.38 334.81 476.38 334.77 476.38 334.7 476.38 334.69 476.39 334.61 476.4 334.57 476.43 334.44 476.45 334.37 476.46 334.34 476.46 334.32 476.49 334.17 476.55 334.04 476.58 333.97 476.59 333.92 476.6 333.9 476.6 333.83 476.59 333.72 476.61 333.65 476.61 333.64 476.62 333.62 476.65 333.56 476.67 333.51 476.7 333.45 476.7 333.44 476.75 333.33 476.76 333.31 476.83 333.16 476.87 333.07 476.94 332.93 476.99 332.84 477.02 332.74 477.07 332.64 477.08 332.61 477.11 332.52 477.14 332.44 477.15 332.37 477.16 332.36 477.16 332.35 477.16 332.3 477.15 332.17 477.15 332.05 477.15 332.01 477.15 331.99 477.14 331.86 477.12 331.74 477.12 331.73 477.11 331.7 477.1 331.65 477.08 331.61 477.06 331.54 477.01 331.4 476.92 331.2 476.9 331.17 476.84 331.07 476.74 330.87 476.71 330.8 476.71 330.79 476.69 330.75 476.64 330.62 476.64 330.59 476.64 330.57 476.61 330.29 476.61 330.21 476.61 330.19 476.76 329.84 476.77 329.81 476.89 329.6 476.95 329.5 477 329.42 477.05 329.33 477.22 329 477.24 328.97 477.26 328.95 477.29 328.9 477.33 328.84 477.41 328.73 477.54 328.54 477.63 328.39 477.68 328.32 477.7 328.3 477.7 328.29 477.72 328.26 477.76 328.21 477.87 328.04 477.9 327.97 477.91 327.97 477.94 327.92 477.95 327.89 477.96 327.87 477.98 327.83 477.99 327.78 478.04 327.69 478.08 327.6 478.19 327.39 478.15 327.33 478.12 327.27 478.03 327.13 477.92 326.9 477.89 326.84 477.87 326.79 477.85 326.72 477.83 326.66 477.82 326.62 477.81 326.59 477.81 326.55 477.8 326.51 477.8 326.5 477.8 326.46 477.78 326.4 477.78 326.35 477.77 326.28 477.76 326.23 477.76 326.18 477.73 326.08 477.72 326.03 477.72 325.99 477.73 325.92 477.73 325.89 477.72 325.86 477.72 325.82 477.72 325.77 477.73 325.72 477.69 325.65 477.69 325.61 477.69 325.58 477.69 325.56 477.69 325.53 477.7 325.5 477.71 325.48 477.72 325.45 477.74 325.43 477.74 325.41 477.74 325.38 477.74 325.36 477.73 325.34 477.72 325.31 477.71 325.27 477.71 325.23 477.71 325.19 477.71 325.16 477.71 325.13 477.71 325.09 477.7 325.05 477.7 325 477.71 324.97 477.71 324.93 477.72 324.9 477.73 324.86 477.73 324.83 477.74 324.78 477.73 324.72 477.73 324.67 477.72 324.63 477.72 324.6 477.71 324.56 477.69 324.52 477.67 324.48 477.58 324.25 477.56 324.11 477.55 324.1 477.55 324.08 477.55 324.07 477.53 323.97 477.34 323.85 477.38 323.74 477.44 323.63 477.45 323.58 477.47 323.55 477.48 323.53 477.5 323.51 477.51 323.5 477.54 323.47 477.59 323.45 477.61 323.43 477.63 323.42 477.64 323.4 477.68 323.37 477.69 323.35 477.71 323.32 477.73 323.29 477.74 323.26 477.76 323.22 477.82 323.06 477.93 322.88 478.04 322.73 478.1 322.7 478.16 322.67 478.22 322.6 478.28 322.57 478.29 322.56 478.29 322.56 478.36 322.44 478.44 322.28 478.63 322 478.66 321.95 478.71 321.86 478.74 321.81 478.81 321.69 478.82 321.67 478.97 321.43 479.01 321.36 479.02 321.33 478.89 321.07 478.85 320.96 478.83 320.92 478.71 320.61 478.7 320.57 478.69 320.54 478.69 320.52 478.69 320.49 478.69 320.48 478.69 320.43 478.67 320.24 478.64 320.1 478.63 320.03 478.62 320.01 478.62 320 478.62 319.98 478.61 319.91 478.61 319.86 478.61 319.81 478.61 319.78 478.61 319.75 478.61 319.74 478.61 319.68 478.62 319.63 478.61 319.58 478.6 319.53 478.6 319.48 478.59 319.46 478.74 319.41 478.93 319.37 478.97 319.36 479 319.36 479.03 319.35 479.14 319.32 479.27 319.3 479.43 319.28 479.52 319.27 479.6 319.25 479.65 319.24 479.72 319.23 479.79 319.24 479.83 319.24 479.87 319.22 479.92 319.2 479.98 319.19 480.05 319.17 480.15 319.16 480.26 319.13 480.32 319.12 480.37 319.12 480.67 318.95 480.74 318.91 480.75 318.9 480.98 318.76 480.99 318.76 481.05 318.77 481.12 318.79 481.19 318.8 481.27 318.82 481.33 318.83 481.41 318.85 481.5 318.89 481.54 318.9 481.57 318.9 481.61 318.9 481.65 318.89 481.71 318.88 481.84 318.84 481.94 318.88 481.98 318.89 482.02 318.9 482.08 318.89 482.17 318.89 482.26 318.89 482.3 318.88 482.31 318.88 482.38 318.89 482.43 318.9 482.52 318.92 482.63 318.94 482.7 318.94 482.77 318.95 482.83 318.96 482.85 318.97 482.89 318.98 482.9 318.98 482.98 319 483.05 319.03 483.08 319.04 483.11 319.06 483.16 319.08 483.2 319.11 483.25 319.13 483.29 319.15 483.33 319.15 483.38 319.16 483.45 319.15 483.5 319.14 483.6 319.12 483.66 319.11 483.69 319.11 483.77 319.09 483.99 319.06 484.01 319.05 484.06 319.04 484.07 319.06 484.07 319.1 484.09 319.14 484.11 319.18 484.15 319.25 484.22 319.38 484.28 319.49 484.33 319.6 484.39 319.72 484.41 319.78 484.48 319.94 484.51 320.05 484.55 320.13 484.59 320.23 484.69 320.45 484.74 320.55 484.74 320.56 484.78 320.65 Z"/>
</g></svg>