<svg xmlns="http://www.w3.org/2000/svg" version="1.2" baseProfile="tiny" stroke-linecap="round" stroke-linejoin="round" viewBox="307.15 184.67 19.25 46.17"><g xmlns="http://www.w3.org/2000/svg" id="Legazpi">
<path d="M 315.18 184.67 315.74 184.79 316.83 184.94 316.83 184.94 316.85 184.96 316.87 184.97 316.88 184.99 316.89 185.02 316.91 185.06 316.93 185.09 316.94 185.1 316.96 185.11 317.03 185.15 317.13 185.21 317.25 185.25 317.34 185.27 317.38 185.3 317.4 185.31 317.41 185.33 317.41 185.34 317.42 185.36 317.43 185.37 317.43 185.38 317.45 185.38 317.48 185.39 317.5 185.39 317.53 185.39 317.55 185.39 317.58 185.39 317.62 185.4 317.7 185.41 317.73 185.41 317.77 185.43 317.79 185.44 317.81 185.45 317.81 185.47 317.82 185.5 317.84 185.51 317.85 185.51 317.89 185.52 317.94 185.53 317.97 185.54 318 185.55 318.02 185.55 318.04 185.56 318.06 185.56 318.08 185.58 318.09 185.58 318.11 185.59 318.14 185.59 318.17 185.58 318.18 185.59 318.2 185.59 318.24 185.63 318.27 185.65 318.29 185.66 318.32 185.67 318.34 185.67 318.37 185.68 318.39 185.7 318.41 185.71 318.42 185.74 318.45 185.77 318.48 185.81 318.51 185.83 318.54 185.85 318.57 185.86 318.59 185.87 318.61 185.87 318.65 185.88 318.69 185.89 318.74 185.92 318.78 185.93 318.79 185.94 318.85 185.97 318.9 186.01 318.95 186.02 319 186.04 319.07 186.07 319.1 186.09 319.14 186.12 319.15 186.14 319.19 186.18 319.25 186.24 319.31 186.33 319.33 186.36 319.37 186.42 319.4 186.46 319.43 186.5 319.46 186.54 319.51 186.61 319.52 186.63 319.53 186.66 319.54 186.69 319.56 186.73 319.57 186.75 319.61 186.8 319.65 186.85 319.69 186.92 319.72 186.96 319.74 186.98 319.76 187.01 319.79 187.04 319.84 187.12 319.9 187.2 319.93 187.25 319.95 187.3 319.96 187.35 319.98 187.39 319.99 187.39 320 187.39 320.06 187.38 320.08 187.39 320.12 187.4 320.14 187.44 320.19 187.5 320.25 187.53 320.27 187.54 320.29 187.55 320.32 187.56 320.45 187.61 320.5 187.63 320.52 187.65 320.53 187.65 320.56 187.67 320.58 187.67 320.62 187.69 320.63 187.7 320.65 187.71 320.67 187.72 320.68 187.73 320.69 187.74 320.69 187.75 320.7 187.76 320.7 187.76 320.72 187.81 320.73 187.83 320.75 187.85 320.76 187.86 320.78 187.89 320.82 187.93 320.83 187.94 320.87 187.96 320.89 187.97 320.91 187.98 320.93 187.99 320.95 188 320.97 188.01 320.99 188.02 321 188.02 321.03 188.01 321.06 188.01 321.09 188.01 321.12 188 321.14 188.01 321.15 188.01 321.17 188.02 321.2 188.03 321.23 188.05 321.27 188.08 321.3 188.11 321.31 188.13 321.32 188.14 321.33 188.15 321.36 188.17 321.41 188.21 321.43 188.22 321.49 188.25 321.52 188.27 321.62 188.33 321.67 188.35 321.81 188.39 321.84 188.38 321.85 188.38 321.86 188.38 321.87 188.37 321.89 188.36 321.9 188.35 321.9 188.34 321.91 188.34 322.02 188.31 322.1 188.31 322.11 188.31 322.29 188.38 322.28 188.4 322.27 188.43 322.26 188.45 322.24 188.48 322.23 188.51 322.22 188.53 322.21 188.56 322.2 188.58 322.19 188.61 322.18 188.65 322.17 188.67 322.15 188.69 322.13 188.72 322.1 188.74 322.08 188.76 322.03 188.78 321.97 188.81 321.93 188.83 321.91 188.84 321.89 188.85 321.87 188.87 321.85 188.89 321.84 188.92 321.83 188.95 321.83 189.02 321.83 189.08 321.84 189.13 321.84 189.17 321.84 189.21 321.83 189.25 321.82 189.28 321.8 189.3 321.79 189.32 321.75 189.37 321.72 189.4 321.69 189.43 321.67 189.48 321.65 189.51 321.63 189.54 321.62 189.56 321.6 189.61 321.56 189.7 321.5 189.8 321.47 189.85 321.42 189.92 321.38 189.97 321.35 190 321.21 190.11 321.18 190.13 321.15 190.14 321.11 190.15 321.08 190.17 321.04 190.2 321.01 190.23 321 190.25 320.96 190.3 320.93 190.35 320.89 190.41 320.85 190.48 320.82 190.55 320.79 190.61 320.78 190.64 320.81 190.67 320.83 190.68 320.84 190.7 320.85 190.71 320.87 190.73 320.88 190.74 320.89 190.75 320.9 190.75 320.91 190.76 320.92 190.76 320.94 190.76 320.95 190.77 320.96 190.78 320.98 190.79 320.99 190.8 320.99 190.81 320.97 190.84 320.95 190.88 320.94 190.9 320.93 190.91 320.93 190.92 320.93 190.93 320.94 190.94 320.95 190.94 320.95 190.94 320.99 190.96 321.03 190.97 321.05 190.98 321.06 190.98 321.06 190.99 321.07 191.01 321.08 191.02 321.09 191.03 321.11 191.06 321.15 191.09 321.2 191.16 321.22 191.21 321.25 191.26 321.28 191.31 321.3 191.33 321.33 191.35 321.38 191.41 321.45 191.53 321.5 191.61 321.53 191.67 321.59 191.73 321.63 191.78 321.68 191.84 321.72 191.89 321.77 191.94 321.85 192 321.91 192.04 321.98 192.08 322.04 192.11 322.08 192.12 322.11 192.13 322.12 192.13 322.14 192.14 322.18 192.16 322.19 192.16 322.27 192.19 322.34 192.23 322.45 192.3 322.49 192.33 322.55 192.38 322.61 192.41 322.67 192.45 322.74 192.49 322.75 192.49 322.77 192.51 322.8 192.55 322.91 192.63 322.96 192.69 323.02 192.76 323.08 192.8 323.12 192.83 323.24 192.96 323.28 193.01 323.31 193.04 323.33 193.09 323.36 193.14 323.4 193.2 323.42 193.25 323.45 193.31 323.46 193.38 323.46 193.4 323.48 193.4 323.28 193.71 323.03 193.83 322.34 194.36 322.13 194.59 321.99 194.68 321.89 194.73 321.86 194.78 321.81 194.85 321.76 194.9 321.73 194.97 321.71 195.03 321.71 195.1 321.69 195.18 321.69 195.23 321.66 195.3 321.65 195.39 321.65 195.46 321.64 195.56 321.63 195.62 321.63 195.68 321.67 195.78 321.68 195.86 321.68 195.94 321.68 196.02 321.68 196.09 321.68 196.13 321.69 196.18 321.72 196.27 321.74 196.39 321.75 196.45 321.77 196.5 321.79 196.54 321.81 196.59 321.82 196.64 321.85 196.69 321.87 196.71 321.87 196.75 321.87 196.8 321.88 196.83 321.9 196.87 321.93 196.91 321.94 196.93 321.97 196.96 322 197 322.01 197.02 322.05 197.05 322.09 197.09 322.14 197.12 322.19 197.14 322.24 197.18 322.3 197.23 322.37 197.3 322.42 197.38 322.45 197.44 322.49 197.53 322.53 197.56 322.69 197.64 322.72 197.68 322.76 197.72 322.83 197.76 323.47 199.27 323.74 202.21 323.72 202.27 323.73 202.34 323.74 202.39 323.79 202.44 323.84 202.48 323.91 202.51 323.93 202.52 323.95 202.52 323.96 202.52 323.97 202.52 324.11 202.91 324.29 203.48 325.5 205 326.4 205.95 326.22 206.63 326.12 207.23 325.61 208.85 325.25 210.16 324.94 210.48 324.53 210.75 324.33 211.08 324.25 211.79 324.43 212.49 324.77 213.44 325.23 214.72 325.52 215.58 325.78 216.3 325.78 216.96 325.84 218.27 325.89 219.38 325.93 220.37 325.96 221.98 324.39 222.59 323.37 224.02 323.05 224.59 322.27 225.3 321.63 225.88 320.73 225.82 320.6 226.4 320.03 227.01 319.98 227.35 319.92 227.96 319.3 228.58 318.55 229.32 318.26 229.77 318.18 230.72 318.17 230.72 318.16 230.71 318.15 230.71 318.14 230.72 318.13 230.72 318.12 230.73 318.11 230.74 318.11 230.74 318.1 230.75 318.09 230.76 318.08 230.76 318.08 230.77 318.07 230.78 318.07 230.78 318.06 230.78 318.05 230.79 318.05 230.79 318.04 230.79 318.03 230.8 318.02 230.8 318.01 230.8 318.01 230.81 318 230.81 317.99 230.81 317.98 230.81 317.98 230.81 317.97 230.81 317.96 230.81 317.95 230.81 317.95 230.81 317.94 230.8 317.93 230.8 317.92 230.8 317.92 230.8 317.91 230.79 317.9 230.79 317.89 230.79 317.89 230.78 317.88 230.78 317.87 230.77 317.87 230.77 317.86 230.76 317.85 230.76 317.85 230.75 317.84 230.75 317.83 230.74 317.83 230.74 317.82 230.73 317.82 230.73 317.81 230.72 317.8 230.72 317.79 230.71 317.79 230.71 317.78 230.71 317.77 230.71 317.76 230.71 317.74 230.71 317.74 230.71 317.73 230.71 317.72 230.71 317.71 230.71 317.7 230.71 317.7 230.71 317.69 230.71 317.68 230.71 317.67 230.71 317.67 230.71 317.66 230.71 317.65 230.71 317.64 230.71 317.64 230.7 317.63 230.7 317.62 230.7 317.61 230.69 317.61 230.69 317.6 230.69 317.59 230.68 317.58 230.68 317.57 230.67 317.56 230.67 317.55 230.66 317.54 230.66 317.53 230.65 317.52 230.65 317.5 230.65 317.49 230.64 317.48 230.64 317.47 230.63 317.46 230.62 317.45 230.62 317.44 230.61 317.43 230.59 317.42 230.58 317.41 230.57 317.4 230.56 317.39 230.55 317.38 230.55 317.38 230.54 317.37 230.54 317.36 230.53 317.36 230.53 317.35 230.52 317.34 230.52 317.34 230.51 317.33 230.5 317.33 230.5 317.32 230.49 317.31 230.48 317.31 230.48 317.3 230.47 317.3 230.46 317.29 230.45 317.28 230.43 317.27 230.41 317.26 230.4 317.26 230.38 317.25 230.37 317.25 230.36 317.24 230.36 317.24 230.35 317.23 230.34 317.23 230.33 317.22 230.32 317.21 230.32 317.21 230.31 317.2 230.3 317.19 230.3 317.19 230.29 317.18 230.28 317.18 230.27 317.17 230.27 317.17 230.26 317.17 230.25 317.17 230.24 317.16 230.23 317.16 230.22 317.16 230.2 317.16 230.19 317.16 230.17 317.16 230.15 317.16 230.13 317.16 230.11 317.16 230.09 317.16 230.07 317.15 230.06 317.15 230.05 317.15 230.04 317.14 230.03 317.14 230.02 317.13 230.01 317.12 229.99 317.11 229.97 317.1 229.96 317.09 229.94 317.08 229.93 317.06 229.91 317.06 229.91 317.05 229.9 317.05 229.9 317.04 229.89 317.04 229.89 317.03 229.88 317.02 229.88 317.02 229.88 317.01 229.87 317 229.87 317 229.87 316.99 229.86 316.98 229.86 316.98 229.86 316.97 229.86 316.96 229.85 316.95 229.85 316.95 229.85 316.93 229.84 316.91 229.84 316.9 229.84 316.89 229.84 316.88 229.83 316.87 229.83 316.86 229.83 316.85 229.82 316.84 229.82 316.83 229.81 316.81 229.81 316.81 229.8 316.8 229.8 316.79 229.79 316.79 229.78 316.78 229.77 316.77 229.76 316.76 229.76 316.75 229.75 316.74 229.74 316.73 229.74 316.71 229.73 316.7 229.72 316.68 229.72 316.67 229.71 316.66 229.71 316.65 229.71 316.64 229.71 316.63 229.71 316.62 229.71 316.62 229.71 316.61 229.71 316.6 229.71 316.59 229.71 316.59 229.71 316.58 229.71 316.57 229.71 316.56 229.7 316.56 229.69 316.55 229.69 316.55 229.68 316.55 229.67 316.55 229.66 316.55 229.66 316.54 229.65 316.54 229.64 316.54 229.64 316.54 229.63 316.53 229.62 316.53 229.62 316.52 229.61 316.51 229.6 316.51 229.6 316.5 229.59 316.49 229.58 316.49 229.58 316.48 229.57 316.48 229.56 316.47 229.56 316.47 229.55 316.46 229.54 316.45 229.53 316.45 229.52 316.44 229.51 316.43 229.5 316.42 229.48 316.41 229.47 316.4 229.46 316.4 229.45 316.39 229.44 316.38 229.43 316.37 229.42 316.36 229.41 316.35 229.4 316.34 229.4 316.33 229.39 316.32 229.38 316.31 229.36 316.3 229.35 316.29 229.34 316.28 229.33 316.27 229.32 316.26 229.31 316.26 229.3 316.26 229.29 316.25 229.28 316.25 229.28 316.25 229.27 316.24 229.26 316.24 229.25 316.24 229.25 316.24 229.24 316.24 229.23 316.24 229.21 316.23 229.18 316.23 229.16 316.23 229.14 316.23 229.12 316.23 229.09 316.23 229.08 316.23 229.07 316.22 229.06 316.22 229.05 316.21 229.04 316.21 229.03 316.2 229.02 316.19 229.02 316.18 229.01 316.18 229 316.17 229 316.16 228.99 316.15 228.98 316.14 228.98 316.13 228.97 316.12 228.97 316.11 228.96 316.1 228.95 316.09 228.95 316.08 228.94 316.08 228.94 316.07 228.93 316.07 228.92 316.06 228.92 316.05 228.91 316.05 228.9 316.04 228.88 316.03 228.87 316.02 228.86 316.02 228.85 316.01 228.84 316 228.84 315.99 228.82 315.98 228.82 315.97 228.81 315.96 228.8 315.95 228.79 315.94 228.78 315.94 228.77 315.93 228.77 315.92 228.76 315.91 228.75 315.9 228.74 315.89 228.74 315.88 228.73 315.87 228.72 315.86 228.72 315.85 228.71 315.83 228.7 315.82 228.69 315.81 228.69 315.8 228.68 315.79 228.68 315.79 228.67 315.78 228.66 315.77 228.66 315.77 228.65 315.76 228.64 315.75 228.64 315.73 228.62 315.72 228.61 315.71 228.61 315.7 228.61 315.69 228.62 315.67 228.63 315.66 228.64 315.65 228.64 315.64 228.65 315.63 228.66 315.62 228.67 315.62 228.67 315.61 228.68 315.6 228.69 315.59 228.7 315.58 228.71 315.58 228.72 315.57 228.72 315.56 228.73 315.56 228.74 315.55 228.75 315.54 228.76 315.54 228.77 315.53 228.78 315.52 228.78 315.51 228.78 315.51 228.78 315.49 228.78 315.48 228.78 315.47 228.77 315.46 228.77 315.45 228.77 315.44 228.76 315.43 228.76 315.42 228.76 315.41 228.76 315.4 228.75 315.39 228.75 315.38 228.75 315.37 228.75 315.35 228.75 315.34 228.75 315.33 228.76 315.32 228.76 315.31 228.76 315.3 228.76 315.28 228.76 315.27 228.76 315.26 228.76 315.25 228.77 315.24 228.77 315.23 228.78 315.22 228.78 315.21 228.79 315.2 228.79 315.2 228.8 315.19 228.81 315.19 228.81 315.18 228.82 315.18 228.83 315.17 228.83 315.16 228.84 315.15 228.84 315.14 228.84 315.13 228.84 315.12 228.84 315.11 228.84 315.1 228.84 315.09 228.84 315.08 228.84 315.07 228.84 315.06 228.84 315.05 228.84 315.04 228.84 315.03 228.83 315.02 228.82 315.01 228.82 315 228.82 314.99 228.81 314.98 228.81 314.97 228.81 314.97 228.82 314.96 228.82 314.95 228.83 314.94 228.83 314.93 228.83 314.92 228.83 314.91 228.83 314.9 228.83 314.89 228.83 314.88 228.83 314.87 228.82 314.86 228.82 314.84 228.81 314.83 228.8 314.82 228.79 314.81 228.78 314.79 228.77 314.78 228.76 314.77 228.75 314.76 228.74 314.74 228.73 314.73 228.72 314.72 228.71 314.71 228.7 314.7 228.69 314.69 228.68 314.68 228.67 314.67 228.66 314.65 228.65 314.64 228.64 314.63 228.63 314.62 228.63 314.61 228.62 314.6 228.61 314.58 228.6 314.57 228.59 314.56 228.59 314.55 228.58 314.53 228.57 314.52 228.57 314.51 228.56 314.49 228.56 314.48 228.55 314.47 228.55 314.45 228.54 314.44 228.54 314.43 228.53 314.41 228.53 314.4 228.52 314.39 228.52 314.37 228.52 314.36 228.51 314.35 228.51 314.34 228.51 314.33 228.5 314.32 228.5 314.31 228.5 314.3 228.49 314.29 228.49 314.29 228.48 314.28 228.48 314.27 228.47 314.27 228.46 314.27 228.45 314.26 228.45 314.26 228.44 314.26 228.43 314.25 228.42 314.25 228.42 314.24 228.41 314.23 228.4 314.22 228.39 314.21 228.39 314.2 228.39 314.18 228.38 314.17 228.38 314.16 228.38 314.14 228.37 314.13 228.37 314.12 228.36 314.11 228.36 314.1 228.35 314.08 228.35 314.07 228.34 314.01 228.29 313.98 228.25 313.95 228.19 313.92 228.15 313.88 228.1 313.82 228.04 313.76 228 313.68 227.98 313.65 227.97 313.61 227.96 313.59 227.96 313.58 227.96 313.57 227.95 313.55 227.95 313.54 227.95 313.53 227.95 313.51 227.95 313.5 227.94 313.49 227.94 313.47 227.94 313.46 227.94 313.45 227.94 313.41 227.93 313.39 227.93 313.38 227.92 313.36 227.92 313.33 227.91 313.31 227.9 313.28 227.89 313.27 227.88 313.26 227.88 313.25 227.87 313.24 227.87 313.23 227.87 313.22 227.87 313.21 227.86 313.2 227.86 313.19 227.85 313.18 227.85 313.18 227.84 313.17 227.84 313.16 227.83 313.16 227.82 313.16 227.82 313.15 227.81 313.15 227.8 313.14 227.79 313.14 227.78 313.13 227.78 313.12 227.77 313.1 227.76 313.09 227.75 313.07 227.75 313.06 227.74 313.05 227.73 313.04 227.73 313.03 227.72 313.03 227.71 313.02 227.71 313.01 227.7 313 227.69 313 227.69 312.99 227.68 312.98 227.67 312.97 227.67 312.96 227.66 312.96 227.65 312.95 227.65 312.94 227.64 312.93 227.63 312.92 227.63 312.92 227.62 312.91 227.62 312.91 227.61 312.89 227.6 312.88 227.59 312.87 227.59 312.86 227.59 312.85 227.59 312.85 227.58 312.83 227.58 312.82 227.58 312.81 227.58 312.8 227.59 312.8 227.59 312.79 227.59 312.78 227.59 312.77 227.59 312.76 227.58 312.75 227.58 312.75 227.57 312.74 227.56 312.74 227.56 312.74 227.55 312.73 227.54 312.73 227.53 312.72 227.52 312.72 227.51 312.71 227.5 312.7 227.49 312.69 227.49 312.69 227.48 312.68 227.47 312.67 227.47 312.67 227.46 312.66 227.46 312.65 227.46 312.65 227.45 312.63 227.44 312.62 227.44 312.61 227.43 312.6 227.42 312.58 227.41 312.57 227.4 312.56 227.4 312.55 227.39 312.53 227.38 312.52 227.37 312.49 227.35 312.49 227.34 312.48 227.34 312.47 227.33 312.46 227.32 312.45 227.32 312.44 227.31 312.43 227.31 312.43 227.3 312.41 227.3 312.4 227.3 312.39 227.29 312.38 227.29 312.37 227.29 312.35 227.29 312.34 227.28 312.33 227.28 312.32 227.28 312.31 227.28 312.3 227.28 312.29 227.28 312.28 227.28 312.27 227.29 312.26 227.29 312.25 227.3 312.24 227.31 312.23 227.31 312.22 227.31 312.21 227.32 312.2 227.32 312.19 227.32 312.18 227.33 312.17 227.33 312.16 227.33 312.15 227.34 312.13 227.35 312.12 227.36 312.11 227.36 312.1 227.36 312.08 227.36 312.06 227.36 312.05 227.36 312.04 227.36 312.02 227.36 312.01 227.37 312 227.37 311.99 227.38 311.98 227.38 311.97 227.38 311.96 227.39 311.95 227.39 311.94 227.39 311.93 227.39 311.92 227.39 311.91 227.39 311.9 227.4 311.89 227.4 311.88 227.41 311.87 227.41 311.86 227.41 311.85 227.41 311.84 227.41 311.84 227.4 311.83 227.4 311.83 227.39 311.82 227.38 311.82 227.38 311.81 227.37 311.81 227.37 311.8 227.36 311.79 227.35 311.79 227.34 311.79 227.33 311.78 227.32 311.78 227.31 311.77 227.31 311.77 227.3 310.94 226.81 310.93 226.12 310.45 224.75 310.49 224.62 308.97 224.12 310.07 221.79 313.95 218.79 313.95 218.58 313.96 218.33 313.99 218.17 314.05 218.07 314.05 217.94 314.02 217.77 314.06 217.6 314.1 217.49 314.26 217.35 314.42 217.19 314.58 217.04 314.77 216.87 314.87 216.69 314.92 216.54 314.93 216.31 314.93 216.12 314.93 216.12 314.93 216.01 314.85 215.9 314.74 215.75 314.66 215.65 314.44 215.51 314.09 215.29 313.85 215.05 313.62 214.86 313.38 214.5 313.3 214.24 313.22 214 313.1 213.82 312.97 213.65 312.78 213.39 312.71 213.27 312.68 213.11 312.65 213.02 312.65 212.9 312.69 212.7 312.74 212.57 312.74 212.56 312.74 212.54 312.74 212.53 312.75 212.52 312.75 212.51 312.75 212.49 312.76 212.48 312.76 212.47 312.76 212.45 312.76 212.44 312.77 212.43 312.77 212.41 312.77 212.4 312.77 212.39 312.77 212.37 312.77 212.36 312.77 212.34 312.77 212.33 312.76 212.32 312.76 212.31 312.76 212.3 312.76 212.29 312.76 212.27 312.76 212.26 312.75 212.25 312.75 212.24 312.75 212.23 312.74 212.22 312.74 212.21 312.74 212.2 312.73 212.19 312.73 212.18 312.72 212.17 312.72 212.16 312.71 212.13 312.7 212.1 312.69 212.09 312.68 212.07 312.67 212.06 312.66 212.04 312.65 212.03 312.64 212.01 312.64 212 312.63 211.98 312.62 211.97 312.61 211.96 312.61 211.94 312.6 211.93 312.6 211.92 312.59 211.91 312.59 211.9 312.58 211.89 312.58 211.88 312.58 211.87 312.57 211.85 312.57 211.84 312.57 211.83 312.56 211.82 312.56 211.81 312.56 211.79 312.56 211.78 312.55 211.77 312.55 211.76 312.55 211.74 312.55 211.73 312.55 211.72 312.55 211.71 312.55 211.7 312.55 211.66 312.56 211.62 312.56 211.59 312.57 211.55 312.57 211.52 312.58 211.48 312.58 211.45 312.59 211.41 312.59 211.38 312.6 211.34 312.6 211.3 312.6 211.27 312.61 211.23 312.62 211.19 312.62 211.15 312.63 211.12 312.63 211.08 312.64 211.05 312.64 211.01 312.65 210.97 312.66 210.94 312.66 210.93 312.66 210.92 312.66 210.91 312.66 210.9 312.67 210.89 312.67 210.88 312.67 210.87 312.67 210.86 312.67 210.85 312.66 210.84 312.66 210.83 312.66 210.82 312.66 210.81 312.66 210.81 312.66 210.79 312.65 210.79 312.65 210.78 312.65 210.77 312.65 210.76 312.64 210.75 312.64 210.74 312.63 210.73 312.63 210.72 312.63 210.72 312.62 210.71 312.62 210.7 312.61 210.69 312.61 210.69 312.6 210.68 312.6 210.67 312.6 210.66 312.59 210.65 312.59 210.65 312.59 210.64 312.58 210.63 312.58 210.62 312.58 210.61 312.58 210.6 312.58 210.6 312.58 210.59 312.58 210.57 312.58 210.57 312.58 210.56 312.58 210.55 312.58 210.54 312.57 210.53 312.57 210.52 312.57 210.51 312.57 210.5 312.56 210.49 312.56 210.48 312.55 210.47 312.55 210.46 312.55 210.45 312.54 210.44 312.54 210.43 312.53 210.42 312.53 210.41 312.52 210.4 312.52 210.39 312.51 210.39 312.5 210.38 312.5 210.37 312.49 210.36 312.48 210.35 312.48 210.35 312.47 210.34 312.45 210.32 312.44 210.31 312.42 210.29 312.41 210.27 312.39 210.26 312.37 210.24 312.36 210.23 312.34 210.21 312.32 210.2 312.3 210.19 312.29 210.17 312.27 210.16 312.25 210.14 312.24 210.13 312.23 210.12 312.22 210.11 312.21 210.1 312.2 210.09 312.19 210.08 312.18 210.07 312.17 210.06 312.16 210.05 312.15 210.04 312.14 210.03 312.13 210.01 312.11 209.99 312.09 209.98 312.07 209.96 312.06 209.95 312.02 209.93 312.01 209.92 312 209.91 311.99 209.9 311.98 209.89 311.97 209.88 311.96 209.87 311.96 209.86 311.96 209.85 311.96 209.85 311.96 209.84 311.96 209.83 311.96 209.82 311.97 209.81 311.97 209.8 311.97 209.8 311.99 209.78 312 209.76 312.02 209.73 312.03 209.72 312.04 209.7 312.05 209.69 312.06 209.67 312.07 209.66 312.08 209.64 312.09 209.63 312.1 209.61 312.23 209.39 312.34 209.21 312.35 209.19 312.36 209.17 312.37 209.15 312.38 209.14 312.39 209.12 312.4 209.11 312.41 209.09 312.42 209.07 312.44 209.06 312.45 209.04 312.46 209.03 312.47 209.01 312.48 209 312.5 208.98 312.51 208.97 312.52 208.95 312.53 208.94 312.55 208.92 312.56 208.91 312.57 208.9 312.59 208.88 312.6 208.87 312.61 208.85 312.62 208.84 312.64 208.82 312.65 208.81 312.66 208.79 312.67 208.78 312.68 208.76 312.69 208.74 312.71 208.72 312.73 208.69 312.76 208.67 312.78 208.65 312.8 208.62 312.82 208.6 312.84 208.57 312.86 208.55 312.89 208.53 312.91 208.5 312.93 208.48 312.95 208.46 312.98 208.44 313 208.41 313.02 208.39 313.05 208.37 313.07 208.35 313.1 208.32 313.12 208.3 313.15 208.28 313.17 208.26 313.19 208.24 313.38 208.09 313.38 208.08 313.39 208.08 313.39 208.07 313.4 208.06 313.4 208.05 313.41 208.04 313.41 208.04 313.41 208.03 313.42 208.02 313.42 208.01 313.42 208 313.42 207.99 313.43 207.98 313.43 207.98 313.43 207.97 313.43 207.96 313.43 207.95 313.43 207.94 313.43 207.93 313.43 207.92 313.43 207.91 313.43 207.9 313.43 207.89 313.43 207.89 313.42 207.88 313.41 207.87 313.41 207.86 313.4 207.85 313.39 207.84 313.39 207.83 313.38 207.82 313.37 207.81 313.37 207.8 313.36 207.8 313.35 207.79 313.34 207.78 313.32 207.77 313.31 207.76 313.29 207.75 313.28 207.73 313.27 207.72 313.25 207.71 313.24 207.7 313.23 207.68 313.22 207.67 313.2 207.66 313.19 207.65 313.15 207.6 313.02 207.48 312.86 207.31 312.83 207.21 312.83 207.05 312.8 206.96 312.74 206.74 312.74 206.6 312.7 206.41 312.66 206.36 312.58 206.26 312.5 206.18 312.42 206.14 312.25 206.04 312.16 205.98 312.03 205.89 311.92 205.8 311.79 205.69 311.72 205.63 311.55 205.55 311.49 205.5 311.42 205.42 311.39 205.4 311.38 205.39 311.37 205.38 311.36 205.37 311.35 205.36 311.33 205.35 311.32 205.34 311.31 205.33 311.3 205.32 311.29 205.31 311.28 205.3 311.26 205.3 311.25 205.29 311.24 205.28 311.23 205.27 311.21 205.27 311.2 205.26 311.19 205.25 311.18 205.25 311.16 205.24 311.13 205.22 311.1 205.19 311.09 205.18 311.08 205.17 311.07 205.16 311.05 205.15 311.04 205.14 311.03 205.12 311 205.1 310.98 205.07 310.96 205.05 310.94 205.03 310.93 205.02 310.92 205.01 310.91 205 310.9 205 310.89 204.99 310.88 204.99 310.87 204.98 310.86 204.98 310.84 204.97 310.83 204.97 310.82 204.97 310.8 204.97 310.79 204.97 310.77 204.96 310.76 204.96 310.75 204.96 310.73 204.96 310.72 204.95 310.7 204.95 310.69 204.94 310.67 204.94 310.66 204.93 310.65 204.93 310.64 204.93 310.63 204.92 310.62 204.91 310.62 204.9 310.61 204.89 310.61 204.88 310.61 204.87 310.6 204.86 310.6 204.84 310.59 204.83 310.59 204.82 310.58 204.81 310.58 204.8 310.57 204.79 310.57 204.78 310.56 204.77 310.56 204.76 310.55 204.76 310.55 204.75 310.54 204.74 310.53 204.73 310.53 204.73 310.52 204.72 310.51 204.71 310.5 204.7 310.49 204.69 310.48 204.68 310.47 204.67 310.46 204.66 310.45 204.66 310.44 204.65 310.42 204.64 310.41 204.63 310.4 204.62 310.39 204.61 310.38 204.61 310.36 204.6 310.35 204.59 310.34 204.59 310.32 204.58 310.31 204.57 310.3 204.57 310.25 204.54 310.21 204.51 310.16 204.49 310.11 204.43 310.09 204.38 310.1 204.34 310.13 204.29 310.18 204.21 310.21 204.15 310.24 204.01 310.28 203.76 310.29 203.63 310.3 203.48 310.35 203.32 310.4 203.22 310.47 203.07 310.6 202.95 310.82 202.91 311.06 202.76 311.25 202.69 311.28 202.66 311.39 202.47 311.52 202.15 311.59 202 311.7 201.84 311.71 201.82 311.72 201.8 311.73 201.77 311.74 201.75 311.75 201.73 311.76 201.71 311.77 201.69 311.78 201.67 311.79 201.64 311.8 201.62 311.82 201.6 311.83 201.58 311.84 201.56 311.85 201.54 311.89 201.5 311.93 201.46 311.97 201.42 312.02 201.38 312.06 201.34 312.09 201.29 312.13 201.25 312.17 201.21 312.21 201.17 312.25 201.12 312.27 201.11 312.28 201.09 312.29 201.07 312.31 201.05 312.32 201.03 312.33 201.01 312.35 200.99 312.36 200.97 312.37 200.95 312.38 200.94 312.39 200.92 312.39 200.92 312.39 200.91 312.39 200.9 312.39 200.89 312.39 200.88 312.39 200.87 312.39 200.86 312.39 200.85 312.39 200.84 312.39 200.83 312.39 200.82 312.39 200.81 312.39 200.8 312.38 200.79 312.38 200.78 312.38 200.77 312.38 200.74 312.37 200.71 312.37 200.69 312.37 200.66 312.36 200.63 312.36 200.6 312.36 200.59 312.36 200.59 312.36 200.58 312.35 200.57 312.35 200.56 312.35 200.56 312.35 200.55 312.34 200.54 312.34 200.53 312.34 200.53 312.33 200.52 312.32 200.51 312.32 200.5 312.31 200.5 312.3 200.48 312.28 200.46 312.26 200.45 312.25 200.43 312.23 200.42 312.21 200.4 312.19 200.39 312.17 200.37 312.1 200.31 312.01 200.25 311.89 200.16 311.61 199.91 311.52 199.83 311.32 199.62 311.21 199.52 310.96 199.27 310.83 199.16 310.7 199.1 310.46 198.99 310.28 198.91 310.17 198.87 309.96 198.73 309.78 198.6 309.69 198.53 309.65 198.46 309.35 198.28 309.23 198.22 309.16 198.12 309.12 198.05 309.07 197.96 308.98 197.82 308.94 197.74 308.87 197.6 308.81 197.5 308.75 197.4 308.74 197.37 308.72 197.34 308.71 197.32 308.7 197.29 308.68 197.26 308.67 197.24 308.65 197.21 308.64 197.19 308.62 197.16 308.61 197.13 308.59 197.11 308.58 197.08 308.57 197.07 308.57 197.06 308.57 197.06 308.56 197.05 308.56 197.04 308.55 197.04 308.55 197.03 308.54 197.02 308.54 197.01 308.53 197.01 308.52 197 308.52 197 308.51 196.99 308.48 196.97 308.46 196.94 308.43 196.92 308.4 196.9 308.39 196.88 308.38 196.87 308.37 196.86 308.36 196.85 308.35 196.84 308.34 196.83 308.33 196.81 308.32 196.8 308.31 196.79 308.3 196.78 308.29 196.76 308.28 196.75 308.27 196.74 308.26 196.72 308.25 196.71 308.24 196.7 308.24 196.68 308.23 196.67 308.23 196.66 308.22 196.65 308.22 196.63 308.22 196.62 308.21 196.61 308.21 196.6 308.21 196.58 308.2 196.57 308.2 196.56 308.2 196.55 308.2 196.54 308.2 196.52 308.2 196.51 308.2 196.5 308.2 196.48 308.19 196.47 308.2 196.46 308.2 196.45 308.2 196.43 308.2 196.42 308.2 196.41 308.2 196.4 308.2 196.37 308.21 196.35 308.21 196.32 308.21 196.3 308.21 196.27 308.22 196.25 308.22 196.22 308.23 196.2 308.23 196.17 308.24 196.15 308.24 196.12 308.25 196.1 308.25 196.09 308.25 196.08 308.25 196.07 308.25 196.06 308.25 196.05 308.25 196.04 308.25 196.02 308.25 196.01 308.25 196 308.25 195.99 308.25 195.98 308.24 195.97 308.23 195.89 308.23 195.88 308.23 195.86 308.23 195.85 308.23 195.83 308.23 195.82 308.22 195.8 308.22 195.79 308.22 195.78 308.21 195.76 308.21 195.75 308.21 195.73 308.2 195.72 308.2 195.7 308.19 195.69 308.19 195.67 308.18 195.66 308.18 195.65 308.17 195.63 308.16 195.62 308.16 195.61 308.15 195.59 308.14 195.57 308.13 195.54 308.13 195.52 308.12 195.49 308.11 195.47 308.1 195.44 308.09 195.42 308.08 195.39 308.07 195.37 308.06 195.35 308.06 195.33 308.05 195.31 308.05 195.29 308.05 195.28 308.04 195.26 308.04 195.24 308.04 195.23 308.03 195.21 308.03 195.19 308.02 195.17 308.02 195.16 308.01 195.14 308.01 195.13 308 195.11 307.99 195.1 307.99 195.09 307.98 195.08 307.98 195.07 307.97 195.06 307.96 195.06 307.96 195.05 307.95 195.04 307.94 195.03 307.93 195.02 307.93 195.01 307.92 195.01 307.91 195 307.9 194.99 307.89 194.99 307.89 194.98 307.88 194.97 307.87 194.97 307.86 194.96 307.85 194.95 307.84 194.95 307.83 194.94 307.83 194.94 307.82 194.93 307.82 194.93 307.81 194.92 307.8 194.92 307.8 194.91 307.8 194.9 307.79 194.9 307.79 194.89 307.78 194.88 307.78 194.87 307.77 194.87 307.77 194.86 307.77 194.85 307.77 194.85 307.76 194.84 307.76 194.83 307.76 194.82 307.76 194.82 307.75 194.81 307.75 194.77 307.74 194.73 307.73 194.69 307.72 194.65 307.72 194.63 307.71 194.62 307.71 194.6 307.71 194.59 307.71 194.57 307.7 194.56 307.7 194.55 307.7 194.53 307.7 194.52 307.7 194.5 307.7 194.49 307.7 194.47 307.7 194.46 307.7 194.45 307.7 194.43 307.69 194.42 307.69 194.41 307.68 194.4 307.68 194.38 307.67 194.37 307.66 194.36 307.66 194.34 307.65 194.33 307.64 194.31 307.64 194.3 307.63 194.28 307.63 194.27 307.62 194.25 307.62 194.24 307.61 194.23 307.61 194.22 307.61 194.21 307.6 194.2 307.6 194.19 307.59 194.18 307.59 194.17 307.58 194.16 307.58 194.15 307.57 194.14 307.57 194.13 307.56 194.12 307.55 194.11 307.55 194.1 307.54 194.09 307.5 194.01 307.46 193.94 307.41 193.85 307.38 193.8 307.35 193.76 307.31 193.73 307.26 193.71 307.22 193.69 307.18 193.67 307.17 193.67 307.17 193.66 307.17 193.65 307.18 193.65 307.19 193.64 307.2 193.63 307.21 193.63 307.22 193.62 307.24 193.6 307.26 193.58 307.28 193.57 307.3 193.55 307.47 193.38 307.62 193.23 307.69 193.14 307.72 193.11 307.77 193.07 307.87 192.96 308.03 192.73 308.15 192.55 308.2 192.47 308.2 192.37 308.25 192.21 308.33 192.01 308.41 191.9 308.42 191.89 308.52 191.81 308.59 191.77 308.69 191.78 308.91 191.82 309.07 191.85 309.15 191.86 309.53 191.76 309.91 191.67 310.18 191.58 310.35 191.54 310.46 191.54 310.59 191.49 310.62 191.48 310.71 191.43 310.83 191.3 310.88 191.19 310.9 191.07 310.96 190.92 311.03 190.87 311.28 190.75 311.34 190.72 311.53 190.69 311.78 190.66 311.91 190.63 311.94 190.62 313.96 189.88 313.72 188.91 313.93 187.93 314.48 186.75 315.18 184.67 Z"/>
</g></svg>