<svg xmlns="http://www.w3.org/2000/svg" version="1.2" baseProfile="tiny" stroke-linecap="round" stroke-linejoin="round" viewBox="573.75 21.75 18.33 12.18"><g xmlns="http://www.w3.org/2000/svg" id="Lehuntze">
<path d="M 578.4 21.94 579.26 21.87 579.37 21.88 580.4 21.92 580.61 21.98 580.64 21.98 581.05 21.95 581.47 21.89 581.82 21.88 582.61 21.88 583.15 21.88 583.75 21.94 584.08 21.95 584.72 21.98 585.56 21.93 586.21 21.93 586.69 21.84 587.16 21.8 587.62 21.76 588.25 21.82 588.85 21.95 589.44 22.07 589.79 22.16 590.04 22.22 590.27 22.26 590.28 22.27 590.64 22.33 591.28 22.41 591.93 22.5 592.07 23.05 592.07 23.06 591.88 23.35 591.84 23.41 591.54 23.45 591.51 23.45 591.21 23.5 590.18 23.65 590.15 23.66 590.14 23.66 590.02 23.68 589.98 23.69 589.9 23.7 589.89 23.7 589.87 23.69 589.85 23.68 589.75 23.66 589.68 23.77 589.69 23.84 589.7 23.88 589.71 23.96 589.71 23.99 589.71 24.04 589.72 24.05 589.72 24.07 589.73 24.08 589.74 24.09 589.77 24.1 589.77 24.13 589.78 24.17 589.78 24.19 589.79 24.28 589.84 24.36 589.92 24.46 589.98 24.56 590 24.6 590.02 24.65 590.04 24.69 590.05 24.73 590.06 24.84 590.09 25.04 590.13 25.05 590.16 25.05 590.2 25.06 590.28 25.53 590.29 25.61 590.3 25.69 590.36 25.75 590.43 25.76 590.45 25.8 590.44 25.84 590.41 25.9 590.58 25.99 590.65 26.02 590.74 26.04 590.86 26.07 590.97 26.12 591.05 26.15 591.07 26.16 591.12 26.12 591.13 26.13 591.15 26.16 591.17 26.18 591.18 26.19 591.21 26.22 591.25 26.26 591.3 26.33 591.34 26.38 591.37 26.42 591.39 26.46 591.41 26.49 591.43 26.53 591.46 26.6 591.51 26.71 591.53 26.75 591.55 26.78 591.57 26.79 591.49 27.02 591.48 27.05 591.48 27.07 591.47 27.11 591.47 27.12 591.47 27.18 591.47 27.22 591.47 27.27 591.47 27.3 591.45 27.34 591.41 27.36 591.38 27.38 591.35 27.39 591.32 27.42 591.3 27.44 591.28 27.46 591.26 27.49 591.26 27.51 591.25 27.52 591.25 27.56 591.25 27.68 591.24 27.73 591.23 27.76 591.22 27.78 591.21 27.81 591.19 27.83 591.17 27.85 591.15 27.86 591.12 27.88 591.09 27.89 591.06 27.89 591.01 27.89 590.95 27.88 590.92 27.88 590.86 27.87 590.71 27.86 590.69 27.86 590.68 27.86 590.63 27.86 590.5 27.85 590.46 27.84 590.42 27.83 590.38 27.81 590.35 27.79 590.31 27.77 590.28 27.76 590.26 27.75 590.22 27.74 590.2 27.74 590.17 27.75 590.16 27.75 590.13 27.76 590.12 27.78 590.1 27.8 590.09 27.82 590.08 27.83 590.07 27.91 590.06 27.95 590.05 27.98 590.04 27.99 590.03 28 590 28.02 589.97 28.03 589.94 28.04 589.9 28.04 589.85 28.04 589.81 28.03 589.78 28.04 589.74 28.04 589.72 28.06 589.7 28.08 589.69 28.09 589.68 28.11 589.66 28.15 589.63 28.2 589.61 28.25 589.6 28.26 589.59 28.28 589.57 28.31 589.55 28.34 589.52 28.36 589.49 28.37 589.48 28.38 589.46 28.39 589.42 28.39 589.39 28.4 589.34 28.4 589.29 28.41 589.25 28.42 589.22 28.43 589.16 28.45 589.12 28.47 589.06 28.5 589.02 28.52 589 28.52 588.95 28.55 588.9 28.58 588.89 28.58 588.87 28.8 588.88 28.97 588.9 28.99 588.93 29.03 588.96 29.07 588.99 29.11 589.03 29.15 589.07 29.19 589.12 29.24 589.16 29.29 589.2 29.32 589.25 29.36 589.29 29.4 589.3 29.41 589.33 29.43 589.36 29.45 589.4 29.48 589.44 29.53 589.48 29.56 589.52 29.59 589.53 29.6 589.55 29.61 589.6 29.65 589.65 29.68 589.69 29.71 589.74 29.75 589.79 29.78 589.84 29.81 589.87 29.85 589.92 29.89 589.96 29.92 590 29.95 590.01 29.96 590.04 29.99 590.08 30.02 590.12 30.06 590.19 30.11 590.26 30.16 590.3 30.19 590.31 30.19 590.28 30.21 590.27 30.21 590.2 30.27 590.13 30.32 589.78 30.61 589.59 30.72 589.4 30.8 589.42 30.84 589.45 30.85 589.51 30.87 589.53 30.89 589.56 30.92 589.6 30.93 589.61 30.94 589.64 30.96 589.65 30.97 589.66 30.99 589.67 31 589.68 31.03 589.68 31.06 589.69 31.07 589.69 31.1 589.69 31.11 589.69 31.12 589.69 31.14 589.68 31.18 589.68 31.2 589.68 31.23 589.68 31.27 589.68 31.31 589.69 31.35 589.7 31.42 589.71 31.46 589.71 31.46 589.72 31.48 589.76 31.51 589.79 31.53 589.81 31.55 589.83 31.61 589.83 31.64 589.84 31.67 589.85 31.72 589.86 31.76 589.86 31.79 589.86 31.83 589.81 31.95 589.78 32.04 589.78 32.05 589.78 32.08 589.78 32.11 589.79 32.16 589.86 32.33 589.91 32.43 589.94 32.51 589.92 32.5 589.89 32.48 589.87 32.48 589.84 32.48 589.81 32.48 589.79 32.48 589.76 32.49 589.74 32.49 589.71 32.5 589.68 32.5 589.66 32.51 589.64 32.52 589.62 32.52 589.6 32.53 589.58 32.54 589.56 32.54 589.53 32.54 589.51 32.54 589.48 32.53 589.46 32.52 589.42 32.51 589.4 32.5 589.38 32.49 589.35 32.48 589.33 32.47 589.31 32.46 589.29 32.45 589.27 32.44 589.25 32.43 589.23 32.42 589.21 32.42 589.19 32.43 589.17 32.43 589.15 32.43 589.13 32.42 589.1 32.41 589.08 32.41 589.06 32.4 589.04 32.39 589.02 32.38 589 32.38 588.97 32.38 588.95 32.37 588.93 32.36 588.91 32.35 588.89 32.34 588.86 32.33 588.84 32.32 588.82 32.31 588.81 32.31 588.8 32.29 588.78 32.27 588.77 32.25 588.76 32.24 588.75 32.23 588.74 32.21 588.72 32.2 588.71 32.2 588.69 32.19 588.67 32.19 588.65 32.18 588.64 32.18 588.62 32.17 588.61 32.15 588.6 32.14 588.58 32.13 588.57 32.12 588.55 32.1 588.54 32.09 588.54 32.07 588.53 32.05 588.52 32.03 588.51 32.01 588.5 31.99 588.5 31.98 588.49 31.97 588.48 31.96 588.47 31.96 588.45 31.97 588.44 31.99 588.41 31.99 588.4 31.99 588.38 32 588.36 32 588.34 31.99 588.32 31.98 588.31 31.97 588.29 31.97 588.27 31.97 588.26 31.97 588.24 31.97 588.22 31.96 588.21 31.94 588.21 31.92 588.21 31.91 588.22 31.9 588.22 31.89 588.24 31.88 588.24 31.87 588.24 31.87 588.23 31.85 588.22 31.85 588.2 31.85 588.18 31.85 588.16 31.85 588.15 31.84 588.15 31.82 588.15 31.81 588.15 31.8 588.15 31.79 588.15 31.78 588.14 31.76 588.14 31.75 588.14 31.73 588.13 31.72 588.11 31.72 588.1 31.73 588.09 31.75 588.09 31.78 588.08 31.79 588.07 31.8 588.06 31.78 588.05 31.78 588.03 31.77 588.01 31.76 587.99 31.76 587.98 31.76 587.96 31.76 587.95 31.76 587.93 31.76 587.92 31.75 587.9 31.76 587.89 31.75 587.87 31.73 587.86 31.73 587.82 31.72 587.8 31.72 587.78 31.73 587.76 31.73 587.74 31.75 587.73 31.76 587.71 31.78 587.69 31.81 587.67 31.84 587.64 31.88 587.63 31.91 587.62 31.94 587.61 31.97 587.61 31.99 587.6 32.02 587.58 32.06 587.56 32.09 587.55 32.12 587.28 32.59 587.05 32.74 586.91 32.84 586.9 32.85 586.86 32.87 586.82 32.89 586.69 32.96 586.57 33.02 586.53 33.02 586.49 33.02 586.39 33.01 586.38 32.97 586.36 32.87 586.34 32.83 586.37 32.67 586.26 32.52 586.21 32.53 586.15 32.47 586.1 32.47 586.02 32.39 586 32.34 585.94 32.29 585.89 32.3 585.83 32.32 585.74 32.32 585.66 32.33 585.62 32.33 585.56 32.33 585.55 32.18 585.44 32.04 585.4 32.08 585.38 32.11 585.35 32.14 585.34 32.16 585.31 32.19 585.28 32.22 585.27 32.22 585.25 32.24 585.23 32.25 585.2 32.27 585.16 32.29 585.12 32.31 585.09 32.36 585.06 32.39 585.04 32.42 585.02 32.47 585.05 32.54 584.94 32.64 584.9 32.76 584.8 32.9 584.7 33.07 584.69 33.11 584.51 33.06 584.44 33.14 584.45 33.16 584.46 33.19 584.46 33.2 584.47 33.23 584.47 33.26 584.47 33.29 584.46 33.32 584.45 33.34 584.44 33.37 584.44 33.4 584.44 33.43 584.45 33.47 584.46 33.49 584.46 33.5 584.47 33.52 584.47 33.54 584.46 33.57 584.44 33.6 584.39 33.61 584.3 33.66 584.18 33.73 584.07 33.78 583.98 33.8 583.8 33.85 583.64 33.88 583.63 33.85 583.59 33.85 583.54 33.84 583.52 33.83 583.49 33.83 583.47 33.85 583.44 33.87 583.41 33.88 583.39 33.89 583.37 33.9 583.35 33.9 583.32 33.89 583.28 33.89 583.22 33.89 583.18 33.9 583.14 33.9 583.09 33.9 583.05 33.9 583.01 33.9 582.97 33.9 582.93 33.9 582.89 33.89 582.87 33.89 582.86 33.88 582.84 33.86 582.82 33.84 582.79 33.84 582.78 33.83 582.72 33.78 582.68 33.73 582.67 33.72 582.65 33.68 582.6 33.61 582.58 33.6 582.57 33.58 582.57 33.57 582.57 33.54 582.58 33.52 582.56 33.51 582.54 33.48 582.55 33.46 582.53 33.44 582.51 33.43 582.5 33.4 582.48 33.37 582.47 33.35 582.47 33.33 582.47 33.31 582.46 33.27 582.45 33.25 582.45 33.24 582.45 33.23 582.45 33.21 582.44 33.19 582.45 33.16 582.45 33.13 582.45 33.11 582.45 33.09 582.45 33.07 582.44 33.03 582.44 32.99 582.44 32.96 582.43 32.92 582.42 32.9 582.39 32.85 582.36 32.82 582.34 32.82 582.33 32.79 582.31 32.76 582.28 32.72 582.26 32.7 582.23 32.68 582.2 32.65 582.17 32.63 582.13 32.61 582.11 32.6 582.08 32.59 582.05 32.57 582.04 32.55 582.03 32.52 582.02 32.49 582.01 32.45 582 32.41 581.99 32.37 581.98 32.37 581.97 32.35 581.96 32.31 581.96 32.27 581.95 32.22 581.95 32.21 581.95 32.15 581.95 32.12 581.95 32.09 581.96 32.07 581.96 32.04 581.97 32.01 581.99 31.99 582.01 31.97 582.03 31.95 582.04 31.93 582.04 31.91 582.04 31.88 582.03 31.86 582.02 31.85 582 31.85 582 31.83 582.01 31.81 582.01 31.8 582.01 31.79 582 31.77 582 31.75 582.01 31.74 582.02 31.73 582.03 31.72 582.04 31.71 582.04 31.69 582.04 31.66 582.03 31.65 582.01 31.63 581.99 31.63 581.97 31.63 581.94 31.63 581.93 31.62 581.91 31.61 581.88 31.59 581.88 31.57 581.86 31.55 581.85 31.55 581.83 31.54 581.81 31.54 581.78 31.53 581.69 31.45 581.63 31.37 581.55 31.28 581.53 31.26 581.5 31.21 581.47 31.17 581.44 31.16 581.41 31.14 581.39 31.14 581.38 31.13 581.36 31.12 581.31 31.09 581.28 31.06 581.28 31.04 581.29 31.02 581.29 30.99 581.26 30.98 581.22 30.99 581.2 30.99 581.19 30.99 581.17 30.96 581.15 30.92 581.13 30.89 581.1 30.87 581.06 30.86 581.02 30.84 580.99 30.82 580.96 30.78 580.94 30.75 580.93 30.72 580.92 30.7 580.91 30.69 580.9 30.65 580.89 30.6 580.89 30.56 580.89 30.54 580.9 30.53 580.91 30.51 580.91 30.49 580.91 30.47 580.92 30.44 580.93 30.42 580.92 30.39 580.91 30.37 580.89 30.35 580.87 30.33 580.85 30.31 580.84 30.29 580.82 30.27 580.79 30.25 580.76 30.23 580.73 30.21 580.71 30.19 580.69 30.17 580.66 30.15 580.64 30.14 580.62 30.12 580.61 30.1 580.59 30.08 580.59 30.06 580.6 30.04 580.59 30.01 580.58 29.99 580.57 29.98 580.55 29.95 580.53 29.92 580.52 29.9 580.51 29.89 580.5 29.88 580.48 29.87 580.45 29.85 580.43 29.84 580.41 29.82 580.39 29.81 580.36 29.79 580.34 29.78 580.32 29.76 580.3 29.75 580.28 29.73 580.26 29.71 580.23 29.69 580.24 29.67 580.53 29.25 580.49 29.15 580.48 29.1 580.47 29.09 580.46 29.07 580.45 29.06 580.43 29.03 580.42 29 580.4 28.97 580.39 28.94 580.38 28.89 580.39 28.85 580.4 28.82 580.4 28.8 580.4 28.79 580.38 28.77 580.37 28.74 580.36 28.71 580.35 28.68 580.36 28.65 580.36 28.62 580.36 28.59 580.38 28.55 580.39 28.53 580.4 28.5 580.39 28.49 580.38 28.48 580.37 28.45 580.36 28.43 580.34 28.39 580.32 28.36 580.3 28.33 580.28 28.32 580.26 28.3 580.24 28.27 580.23 28.24 580.21 28.21 580.19 28.18 580.17 28.16 580.15 28.13 580.13 28.1 580.1 28.08 580.07 28.06 580.04 28.03 580.04 28 580.04 27.99 580.03 27.97 580.03 27.96 580.03 27.94 580.04 27.9 580.05 27.87 580.06 27.85 580.06 27.82 580.05 27.79 580.04 27.77 580.02 27.74 580 27.72 579.99 27.7 579.97 27.68 579.95 27.66 579.94 27.63 579.93 27.6 579.92 27.57 579.9 27.53 579.88 27.5 579.87 27.48 579.86 27.44 579.85 27.42 579.85 27.41 579.85 27.4 579.85 27.36 579.85 27.32 579.85 27.29 579.85 27.26 579.85 27.24 579.84 27.22 579.82 27.19 579.83 27.17 579.84 27.15 579.84 27.13 579.84 27.12 579.84 27.1 579.84 27.08 579.83 27.06 579.82 27.02 579.82 27.01 579.83 26.98 579.83 26.95 579.84 26.92 579.85 26.88 579.85 26.86 579.84 26.84 579.85 26.81 579.86 26.78 579.87 26.75 579.87 26.73 579.85 26.71 579.83 26.69 579.81 26.67 579.81 26.65 579.81 26.62 579.82 26.56 579.83 26.53 579.84 26.51 579.85 26.5 579.84 26.48 579.82 26.46 579.79 26.44 579.77 26.43 579.76 26.4 579.74 26.37 579.73 26.34 579.71 26.32 579.69 26.3 579.68 26.27 579.68 26.25 579.68 26.22 579.68 26.2 579.67 26.19 579.65 26.16 579.63 26.12 579.61 26.1 579.61 26.07 579.61 26.04 579.61 26.01 579.61 25.98 579.62 25.95 579.63 25.92 579.65 25.88 579.67 25.89 579.69 25.9 579.7 25.92 579.72 25.93 579.73 25.94 579.75 25.95 579.76 25.96 579.79 25.95 579.81 25.94 579.84 25.93 579.87 25.91 579.89 25.88 579.91 25.86 579.93 25.85 579.95 25.85 579.97 25.86 579.99 25.86 580.02 25.86 580.04 25.86 580.06 25.86 580.08 25.87 580.1 25.88 580.12 25.88 580.14 25.87 580.15 25.85 580.16 25.83 580.18 25.82 580.2 25.82 580.22 25.83 580.24 25.84 580.26 25.84 580.28 25.84 580.29 25.84 580.3 25.84 580.32 25.81 580.31 25.76 580.31 25.74 580.28 25.6 580.19 25.38 580.12 25.26 580.12 25.25 580.08 25.15 580.07 25.13 580.06 25.1 580.05 25.08 579.99 24.96 579.96 24.94 579.91 24.93 579.89 24.91 579.88 24.91 579.81 24.9 579.74 25.08 579.71 25.11 579.66 25.11 579.6 25.11 579.56 25.11 579.49 25.09 579.27 25.05 579.25 25.05 579.01 25 579.02 24.91 579.02 24.9 578.98 24.9 578.91 24.89 578.75 24.85 578.74 24.84 578.71 24.8 578.69 24.77 578.69 24.75 578.68 24.74 578.65 24.7 578.62 24.63 578.57 24.56 578.56 24.54 578.54 24.51 578.53 24.48 578.51 24.45 578.5 24.4 578.46 24.3 578.39 24.15 578.38 24.13 578.38 24.13 578.36 24.09 578.34 24.1 578.32 24.12 578.29 24.14 578.27 24.16 578.26 24.17 578.25 24.18 578.23 24.18 578.22 24.19 578.18 24.21 578.13 24.23 578.09 24.24 578.06 24.24 578.03 24.24 578 24.24 577.99 24.24 577.97 24.22 577.93 24.24 577.91 24.25 577.88 24.29 577.86 24.31 577.84 24.32 577.82 24.33 577.8 24.33 577.78 24.35 577.77 24.36 577.75 24.37 577.73 24.39 577.72 24.41 577.71 24.43 577.69 24.45 577.68 24.47 577.65 24.49 577.63 24.52 577.62 24.53 577.6 24.55 577.58 24.57 577.55 24.59 577.53 24.61 577.52 24.62 577.5 24.63 577.48 24.65 577.45 24.67 577.42 24.69 577.4 24.7 577.37 24.72 577.34 24.73 577.32 24.74 577.29 24.75 577.26 24.76 577.23 24.77 577.21 24.78 577.2 24.78 577.19 24.79 577.17 24.79 577.16 24.79 577.14 24.79 577.12 24.8 577.1 24.8 576.79 24.87 576.76 24.88 576.72 24.89 576.69 24.9 576.66 24.9 576.62 24.9 576.61 24.9 576.59 24.9 576.55 24.9 576.51 24.89 576.49 24.89 576.45 24.88 576.42 24.88 576.39 24.88 576.36 24.87 576.33 24.87 576.3 24.86 576.27 24.86 576.25 24.87 576.22 24.87 576.19 24.87 576.16 24.87 576.13 24.87 576.09 24.86 576.06 24.86 576.02 24.85 576.01 24.85 575.99 24.85 575.96 24.84 575.93 24.84 575.89 24.84 575.85 24.84 575.84 24.84 575.82 24.84 575.79 24.85 575.76 24.86 575.72 24.87 575.68 24.88 575.65 24.89 575.62 24.9 575.58 24.91 575.56 24.91 575.54 24.91 575.5 24.92 575.46 24.92 575.43 24.93 575.39 24.94 575.35 24.95 575.32 24.96 575.29 24.97 575.27 24.98 575.24 25 575.22 25.02 575.2 25.03 575.18 25.05 575.16 25.07 575.14 25.09 575.11 25.11 575.09 25.12 575.07 25.14 575.04 25.15 575.03 25.16 575.02 25.17 575 25.18 574.99 25.19 574.97 25.2 574.95 25.22 574.94 25.23 574.92 25.24 574.9 25.25 574.88 25.26 574.86 25.27 574.84 25.28 574.82 25.28 574.79 25.28 574.76 25.28 574.74 25.29 574.71 25.29 574.68 25.29 574.66 25.29 574.63 25.3 574.62 25.3 574.61 25.3 574.58 25.3 574.56 25.3 574.53 25.29 574.51 25.29 574.49 25.29 574.46 25.29 574.44 25.29 574.42 25.29 574.4 25.29 574.38 25.29 574.36 25.29 574.34 25.29 574.33 25.29 574.3 25.28 574.28 25.28 574.26 25.27 574.24 25.26 574.18 25.24 574.12 25.18 574.08 25.14 573.76 24.78 574.32 24.32 574.99 23.64 575.38 23.08 575.84 22.74 576.5 22.43 576.91 22.29 577.64 22.12 577.71 22.11 578.19 21.99 578.4 21.94 Z"/>
</g></svg>