<svg xmlns="http://www.w3.org/2000/svg" version="1.2" baseProfile="tiny" stroke-linecap="round" stroke-linejoin="round" viewBox="126.12 85.68 14.47 11.7"><g xmlns="http://www.w3.org/2000/svg" id="Leioa">
<path d="M 138.55 87.37 138.58 87.42 138.63 87.46 138.69 87.5 138.72 87.52 138.75 87.55 138.78 87.58 138.99 87.7 139.01 87.75 139.1 87.88 139.16 87.9 139.22 87.94 139.28 87.97 139.32 87.98 139.35 88.01 139.37 88.03 139.39 88.04 139.51 88.09 139.72 88.1 139.79 88.11 139.85 88.14 139.92 88.19 140.05 88.27 140.1 88.3 140.22 88.41 140.31 88.52 140.4 88.61 140.49 88.8 140.48 88.87 140.48 88.89 140.58 89.05 140.21 89.24 140.03 89.56 140 89.65 139.99 89.85 139.73 90.54 139.82 90.78 139.82 90.8 139.78 91.12 139.66 91.45 139.57 91.51 139.01 92.18 138.78 93.08 138.59 93.18 137.5 94.8 137.49 94.95 137.15 95.52 136.84 96.04 136.49 95.97 136.24 95.88 135.69 95.46 135.62 95.28 135.49 95.21 135.38 95.3 135.28 95.34 135.01 95.25 134.82 95.24 133.95 94.97 133.53 95.13 133.2 95.38 131.96 96.75 131.93 96.79 131.45 97.37 128.46 95.85 127.53 95.51 126.13 94.91 126.28 94.66 126.3 94.62 126.59 93.99 127.29 92.9 127.55 91.98 127.6 91.85 128.49 90.16 128.81 89.66 129.28 88.9 129.87 87.79 129.85 87.02 130.08 86.45 129.99 86.06 130.91 85.9 131.74 85.69 132 85.72 133.09 86.07 134.63 86.56 135.28 86.74 136.06 86.96 137.09 87.24 138.15 87.36 138.55 87.37 Z"/>
</g></svg>