<svg xmlns="http://www.w3.org/2000/svg" version="1.2" baseProfile="tiny" stroke-linecap="round" stroke-linejoin="round" viewBox="266.98 72.05 6.43 9.8"><g xmlns="http://www.w3.org/2000/svg" id="Lekeitio">
<path d="M 272.72 76.84 272.68 76.84 272.65 76.82 272.64 76.82 272.62 76.81 272.61 76.8 272.6 76.8 272.56 76.77 272.56 76.76 272.55 76.71 272.53 76.69 272.53 76.68 272.53 76.68 272.54 76.66 272.54 76.65 272.53 76.64 272.52 76.62 272.52 76.58 272.51 76.58 272.5 76.57 272.47 76.57 272.46 76.57 272.45 76.56 272.45 76.54 272.45 76.28 272.45 76.23 272.46 76.17 272.47 76.15 272.49 76.13 272.5 76.12 272.51 76.12 272.52 76.11 272.54 76.11 272.57 76.1 272.59 76.04 272.59 76.02 272.58 76 272.59 75.97 272.59 75.96 272.6 75.95 272.61 75.95 272.62 75.95 272.65 75.98 272.66 75.98 272.66 75.98 272.69 75.96 272.69 75.94 272.69 75.91 272.7 75.9 272.7 75.89 272.71 75.88 272.72 75.87 272.73 75.86 272.76 75.86 272.77 75.86 272.8 75.88 272.85 75.88 272.88 75.9 272.89 75.9 272.9 75.9 272.9 75.89 272.92 75.83 272.92 75.82 272.91 75.81 272.89 75.78 272.89 75.78 272.91 75.75 272.92 75.73 272.95 75.7 272.97 75.66 272.98 75.65 272.99 75.64 273 75.64 273.01 75.64 273.02 75.61 273.03 75.6 273.04 75.59 273.06 75.59 273.07 75.59 273.08 75.6 273.09 75.61 273.12 75.64 273.13 75.65 273.14 75.66 273.15 75.66 273.17 75.66 273.18 75.66 273.19 75.66 273.22 75.64 273.27 75.64 273.28 75.63 273.29 75.63 273.32 75.59 273.34 75.57 273.36 75.57 273.37 75.57 273.38 75.57 273.39 75.58 273.39 75.59 273.41 75.64 273.41 75.73 273.41 75.78 273.39 75.86 273.36 75.99 273.32 76.13 273.31 76.18 273.29 76.24 273.28 76.28 273.27 76.3 273.22 76.33 273.18 76.36 273.17 76.37 273.15 76.38 273.12 76.38 273.09 76.38 273 76.41 272.95 76.43 272.92 76.44 272.88 76.46 272.86 76.48 272.83 76.5 272.81 76.54 272.78 76.58 272.78 76.6 272.78 76.68 272.77 76.75 272.76 76.78 272.75 76.81 272.73 76.83 272.72 76.84 Z M 271.93 78.69 271.91 78.73 271.97 78.96 271.96 79.07 271.7 79.43 271.36 79.61 271.31 79.64 271.29 79.66 271.26 79.69 271.24 79.72 271.15 79.87 271.11 79.92 271.09 79.94 271.06 79.97 271.04 79.99 271.01 80 270.99 80.02 270.95 80.03 270.91 80.05 270.84 80.06 270.77 80.07 270.73 80.07 270.66 80.07 270.63 80.07 270.55 80.06 270.52 80.07 270.47 80.07 270.43 80.08 270.39 80.09 270.36 80.11 270.34 80.13 270.33 80.16 270.31 80.19 270.31 80.21 270.31 80.25 270.31 80.29 270.32 80.33 270.34 80.39 270.35 80.42 270.37 80.46 270.39 80.49 270.41 80.51 270.43 80.53 270.44 80.54 270.47 80.56 270.51 80.58 270.54 80.6 270.57 80.62 270.61 80.63 270.66 80.65 270.7 80.66 270.81 80.68 270.86 80.69 270.9 80.7 270.92 80.71 270.98 80.73 270.99 80.73 271.02 80.74 271.04 80.76 271.06 80.77 271.07 80.78 271.07 80.79 271.08 80.8 271.08 80.81 271.09 80.84 271.09 80.88 271.08 80.92 271.07 80.98 271.07 81.03 271.07 81.07 271.06 81.11 271.08 81.16 271.1 81.19 271.18 81.31 271.24 81.41 271.12 81.5 270.98 81.56 270.78 81.64 270.34 81.84 270.64 81.32 270.39 81.12 270.34 81.09 270.23 80.98 270.09 80.86 269.76 80.43 269.88 79.98 269.99 80.02 270.27 79.98 270.66 79.99 270.71 79.99 270.73 79.97 270.76 79.95 270.79 79.92 270.81 79.88 270.92 79.7 270.99 79.56 271.1 79.33 271.46 79.34 271.4 78.75 271.17 78.63 270.03 78.87 270.06 79.03 270.05 79.45 270.02 79.44 269.92 79.75 269.8 79.73 269.75 79.8 269.66 79.73 269.65 79.72 269.56 79.65 269.39 79.56 269.09 79.07 268.99 79.04 268.96 78.99 268.9 78.77 268.87 78.72 268.63 78.58 268.34 78.42 268.26 78.26 268.21 78.21 267.92 78.01 267.73 77.87 267.72 77.71 267.47 77.5 267.38 77.45 267.31 77.38 267.25 77.21 267.16 77.25 267.13 77.28 267.08 77.23 267.07 77.19 267.06 77.18 266.99 76.69 267.02 76.6 267.06 76.55 267.09 76.5 267.09 76.44 267.12 76.37 267.13 76.31 267.27 76.01 267.34 75.92 267.38 75.8 267.45 75.7 267.46 75.63 267.55 75.61 267.65 75.55 267.72 75.48 267.79 75.33 267.79 74.97 267.83 74.84 268.01 74.53 268.13 74.42 268.04 73.69 268.03 73.24 267.92 73 267.82 72.77 267.85 72.29 267.86 72.28 267.9 72.21 267.93 72.18 267.97 72.15 267.99 72.14 268 72.14 268.03 72.14 268.07 72.15 268.08 72.16 268.08 72.16 268.13 72.22 268.15 72.23 268.18 72.24 268.24 72.25 268.46 72.24 268.5 72.23 268.51 72.23 268.55 72.2 268.62 72.14 268.67 72.1 268.69 72.09 268.72 72.08 268.74 72.08 268.75 72.08 268.76 72.08 268.85 72.13 268.89 72.16 268.89 72.16 268.9 72.17 268.9 72.2 268.89 72.21 268.86 72.21 268.86 72.21 268.89 72.23 268.9 72.24 268.93 72.28 268.95 72.32 268.98 72.38 269 72.41 269.03 72.44 269.06 72.47 269.06 72.48 269.07 72.5 269.07 72.52 269.06 72.54 269.05 72.56 269.04 72.57 269.04 72.58 269.07 72.6 269.08 72.6 269.08 72.61 269.08 72.62 269.08 72.63 269.08 72.65 269.06 72.68 269.07 72.72 269.07 72.75 269.05 72.8 269.04 72.8 269.04 72.89 269.05 72.89 269.05 72.9 269.06 72.91 269.06 72.92 269.11 72.94 269.14 72.97 269.15 72.98 269.15 72.99 269.16 73 269.16 73.02 269.17 73.03 269.18 73.04 269.19 73.04 269.2 73.03 269.21 73.03 269.23 73 269.25 72.98 269.32 72.9 269.33 72.89 269.34 72.89 269.35 72.89 269.41 72.91 269.46 72.94 269.48 72.95 269.53 72.99 269.61 73.04 269.63 73.06 269.65 73.09 269.66 73.12 269.67 73.16 269.67 73.21 269.68 73.25 269.69 73.28 269.69 73.36 269.68 73.43 269.68 73.45 269.71 73.52 269.71 73.56 269.73 73.58 269.78 73.65 269.82 73.68 269.84 73.7 269.87 73.71 269.88 73.72 269.89 73.72 269.89 73.73 269.9 73.76 269.89 73.78 269.89 73.8 269.89 73.81 269.89 73.82 269.9 73.83 269.94 73.82 269.96 73.82 269.98 73.84 269.99 73.84 270 73.85 270.01 73.88 270.03 73.93 270.03 73.96 270.03 74.03 270.07 74.13 270.07 74.14 270.09 74.14 270.1 74.15 270.11 74.16 270.11 74.19 270.12 74.21 270.19 74.3 270.24 74.37 270.25 74.4 270.25 74.47 270.3 74.52 270.3 74.53 270.3 74.55 270.31 74.57 270.34 74.61 270.39 74.65 270.41 74.67 270.45 74.76 270.46 74.77 270.51 74.76 270.52 74.76 270.52 74.76 270.53 74.77 270.52 74.78 270.49 74.82 270.48 74.84 270.48 74.86 270.46 74.89 270.45 74.9 270.47 74.93 270.48 74.97 270.5 74.99 270.5 74.99 270.51 74.99 270.52 75 270.57 74.99 270.58 74.99 270.58 74.99 270.59 74.99 270.59 75 270.59 75.03 270.59 75.04 270.59 75.05 270.58 75.06 270.53 75.09 270.53 75.1 270.52 75.11 270.52 75.12 270.52 75.16 270.54 75.2 270.54 75.22 270.54 75.22 270.54 75.23 270.53 75.25 270.51 75.26 270.5 75.28 270.5 75.29 270.49 75.37 270.47 75.42 270.47 75.44 270.49 75.48 270.49 75.51 270.52 75.54 270.52 75.55 270.54 75.56 270.56 75.56 270.57 75.56 270.61 75.56 270.62 75.57 270.62 75.57 270.63 75.58 270.64 75.58 270.66 75.62 270.66 75.64 270.65 75.65 270.64 75.67 270.59 75.74 270.59 75.75 270.59 75.78 270.58 75.79 270.58 75.81 270.55 75.83 270.55 75.84 270.55 75.85 270.55 75.87 270.58 75.91 270.6 75.94 270.61 75.95 270.62 75.96 270.64 75.96 270.65 75.96 270.69 75.95 270.7 75.95 270.71 75.95 270.73 75.99 270.74 76.03 270.75 76.06 270.75 76.07 270.76 76.07 270.8 76.08 270.84 76.08 270.89 76.07 270.92 76.07 271.01 76.12 271.05 76.13 271.1 76.14 271.12 76.14 271.17 76.14 271.21 76.13 271.24 76.11 271.3 76.08 271.35 76.03 271.38 76.02 271.41 76.01 271.48 75.99 271.5 75.98 271.54 75.94 271.55 75.94 271.56 75.94 271.56 75.94 271.59 75.96 271.61 75.97 271.66 76 271.68 76.02 271.69 76.05 271.7 76.08 271.71 76.13 271.83 76.23 271.92 76.22 271.93 76.23 271.93 76.25 271.92 76.25 271.84 76.27 271.81 76.27 271.78 76.29 271.74 76.38 271.69 76.53 271.68 76.58 271.66 76.64 271.6 76.84 271.62 76.91 271.61 76.93 271.58 76.93 271.56 76.85 271.6 76.68 271.58 76.65 271.58 76.64 271.15 76.71 270.85 77.21 271.07 77.38 271.41 76.94 271.44 76.96 271.14 77.4 271.21 77.49 271.25 77.54 271.34 77.61 271.48 77.71 271.54 77.75 271.65 77.8 271.7 77.81 271.75 77.83 271.82 77.85 271.83 77.85 271.87 77.84 272.02 78.01 272.06 78.08 272.08 78.11 272.08 78.17 272.07 78.19 272.07 78.22 272.07 78.23 272.06 78.27 272.04 78.33 272.03 78.34 271.97 78.46 271.93 78.56 271.91 78.6 271.88 78.68 271.93 78.69 Z"/>
</g></svg>