<svg xmlns="http://www.w3.org/2000/svg" version="1.2" baseProfile="tiny" stroke-linecap="round" stroke-linejoin="round" viewBox="605.15 71.37 19.77 28.88"><g xmlns="http://www.w3.org/2000/svg" id="Lekorne">
<path d="M 619.55 71.68 619.6 71.73 619.61 71.77 619.89 71.92 620.04 71.69 620.29 71.69 620.52 71.76 620.2 72.39 620.21 72.4 620.22 72.42 620.22 72.44 620.22 72.46 620.51 72.66 620.87 72.76 621.11 72.9 621.17 72.97 621.56 73.33 621.7 73.59 621.9 73.66 622.39 73.59 622.67 73.54 622.9 73.55 623.19 73.47 623.29 73.4 623.37 73.34 623.52 73.36 623.84 73.45 624.02 73.59 624.11 73.78 624.33 74.02 624.62 74.37 624.64 74.66 624.54 75.14 624.53 75.16 624.32 75.98 624.15 76.62 624.15 76.63 624.14 76.64 624.14 76.68 624.12 76.78 624.11 76.87 624.1 76.93 624.09 77 624.07 77.09 624.06 77.16 624.05 77.19 624.05 77.22 624.05 77.25 624.05 77.29 624.05 77.31 624.04 77.32 624.04 77.33 624.03 77.34 624.01 77.35 624.03 77.35 624.04 77.36 624.05 77.37 624.05 77.38 624.05 77.4 624.05 77.45 624.05 77.49 624.05 77.52 624.04 77.55 624.03 77.6 624.03 77.67 624.02 77.72 624.01 77.75 624 77.81 623.99 77.83 623.98 77.84 623.98 77.85 623.98 77.86 623.99 77.87 623.92 78.02 623.92 78.51 623.92 79.09 623.87 79.82 623.81 80.56 623.82 80.54 623.84 80.52 623.87 80.49 623.89 80.48 623.89 80.46 623.9 80.45 623.9 80.44 623.91 80.43 623.92 80.42 623.93 80.41 623.95 80.38 623.98 80.35 624.02 80.29 624.03 80.26 624.05 80.22 624.07 80.2 624.1 80.17 624.13 80.14 624.15 80.12 624.19 80.1 624.23 80.08 624.27 80.06 624.32 80.03 624.34 80.01 624.38 79.96 624.39 79.94 624.42 79.91 624.45 79.87 624.48 79.86 624.55 79.84 624.59 79.83 624.63 79.82 624.66 79.81 624.89 79.9 624.29 80.73 624.32 80.75 624.37 80.78 624.47 80.83 624.6 80.89 624.28 81.51 624.03 81.63 624.01 81.6 623.99 81.58 623.49 81.86 623.47 81.92 623.43 82.06 623.46 82.07 623.49 82.08 623.5 82.1 623.53 82.13 623.58 82.18 623.61 82.22 623.63 82.25 623.66 82.28 623.69 82.31 623.71 82.34 623.73 82.37 623.75 82.4 623.78 82.43 623.79 82.46 623.81 82.48 623.82 82.51 623.84 82.54 623.85 82.56 623.86 82.58 623.87 82.6 623.88 82.64 623.89 82.68 623.92 82.77 623.9 82.87 623.89 82.9 623.86 82.96 623.84 83.62 623.87 83.98 623.85 84.84 623.91 85.19 624.01 85.33 623.89 85.42 623.88 85.49 624.3 85.73 624.3 85.78 623.98 86.28 623.53 87.19 623.4 87.39 623 87.65 623.02 87.72 623.02 87.74 623.02 87.76 622.92 87.86 622.86 87.92 622.69 88.09 622.6 88.27 622.47 88.45 622.04 89.2 621.91 89.56 621.8 89.85 621.64 89.93 621.63 89.99 621.64 90.04 621.64 90.08 621.63 90.12 621.63 90.16 621.62 90.2 621.6 90.26 621.58 90.31 621.55 90.35 621.51 90.38 621.49 90.4 621.48 90.42 621.46 90.43 621.46 90.46 621.44 90.5 621.43 90.56 621.41 90.63 621.39 90.67 621.38 91.23 621.37 91.57 621.37 92.05 621.06 92.24 620.87 92.37 620.38 92.65 620.23 92.73 620.2 92.79 620.08 93 620.09 93.06 620.08 93.11 620.08 93.14 620.07 93.17 620.04 93.2 619.99 93.23 619.96 93.25 619.94 93.27 619.92 93.31 619.88 93.39 619.85 93.45 619.84 93.49 619.83 93.51 619.82 93.53 619.82 93.56 619.8 93.6 619.76 93.65 619.72 93.69 619.7 93.73 619.6 93.9 619.53 94.02 619.48 94.09 619.45 94.13 619.42 94.16 619.38 94.19 619.33 94.23 619.3 94.26 619.28 94.28 619.27 94.3 619.26 94.32 619.26 94.38 619.26 94.42 619.26 94.46 619.25 94.48 619.23 94.54 619.2 94.63 619.19 94.66 619.17 95.23 619.13 95.41 618.98 95.7 618.61 95.97 618.61 95.99 618.61 96.01 618.57 96.05 618.52 96.09 618.48 96.14 618.47 96.18 618.45 96.2 618.42 96.24 618.39 96.25 618.37 96.26 618.32 96.3 618.3 96.33 618.29 96.35 618.29 96.38 618.29 96.4 618.27 96.41 618.26 96.41 618.25 96.44 618.12 96.6 617.92 96.75 617.58 97.11 617.14 97.66 617.14 97.68 617.14 97.71 617.14 97.74 617.11 97.8 617.08 97.88 617.07 97.94 617.04 98 617.02 98.32 616.89 98.96 616.76 99.59 616.63 100.23 616.25 99.51 615.88 98.79 615.46 98.06 615.02 97.32 614.56 96.57 614.55 96.55 614.54 96.53 614.52 96.51 614.51 96.5 614.51 96.48 614.5 96.46 614.48 96.44 614.46 96.41 614.44 96.4 614.41 96.38 614.39 96.37 614.36 96.35 614.34 96.34 614.32 96.32 614.3 96.31 614.27 96.3 614.25 96.3 614.22 96.29 614.19 96.28 614.16 96.27 614.12 96.25 614.09 96.24 614.07 96.23 614.05 96.22 614.03 96.21 614.02 96.19 614 96.15 613.98 96.11 613.95 96.09 613.93 96.07 613.91 96.05 613.9 96.03 613.89 96.01 613.88 95.99 613.88 95.97 613.88 95.96 613.88 95.94 613.88 95.92 613.88 95.9 613.88 95.89 613.87 95.87 613.86 95.85 613.85 95.83 613.83 95.82 613.81 95.82 613.79 95.82 613.79 95.8 613.8 95.78 613.82 95.76 613.83 95.74 613.86 95.7 613.87 95.66 613.9 95.61 613.9 95.57 613.9 95.54 613.88 95.52 613.85 95.51 613.82 95.5 613.8 95.48 613.77 95.46 613.76 95.45 613.75 95.42 613.75 95.39 613.75 95.36 613.73 95.32 613.72 95.28 613.71 95.24 613.69 95.2 613.68 95.17 613.65 95.14 613.63 95.1 613.63 95.07 613.62 95.03 613.61 94.99 613.6 94.95 613.59 94.91 613.58 94.88 613.57 94.85 613.56 94.82 613.55 94.79 613.54 94.77 613.53 94.74 613.51 94.72 613.14 94.62 613.09 94.64 613.04 94.65 613 94.65 612.95 94.64 612.9 94.63 612.83 94.62 612.79 94.59 612.76 94.57 612.69 94.53 612.63 94.51 612.59 94.51 612.56 94.51 612.52 94.51 612.49 94.52 612.47 94.52 612.43 94.53 612.39 94.36 612.42 94.35 612.48 94.33 612.53 94.31 612.56 94.29 612.63 94.24 612.67 94.21 612.73 94.17 612.8 94.13 612.83 94.11 612.88 94.08 612.95 94.04 613.03 93.99 613.06 93.99 613.11 93.99 613.14 93.99 613.15 93.95 613.16 93.92 613.19 93.89 613.21 93.86 613.22 93.82 613.23 93.76 613.23 93.72 613.24 93.65 613.24 93.6 613.24 93.54 613.26 93.48 613.28 93.43 613.3 93.39 613.32 93.34 613.33 93.3 613.35 93.26 613.39 93.05 613.4 92.93 613.5 92.9 613.66 92.94 613.91 92.93 613.89 92.66 613.85 92.54 613.8 92.35 613.82 92.35 613.9 92.35 613.99 92.36 614.09 92.35 614.11 92.34 614.13 92.33 614.15 92.32 614.17 92.31 614.19 92.31 614.21 92.31 614.23 92.31 614.28 92.3 614.3 92.3 614.38 92.29 614.41 92.29 614.53 92.01 614.49 91.81 614.2 91.73 614.16 91.65 614.33 91.56 614.64 91.64 614.83 91.55 614.82 91.55 614.8 91.51 614.78 91.47 614.76 91.45 614.75 91.41 614.74 91.38 614.74 91.34 614.76 91.3 614.77 91.26 614.79 91.2 614.81 91.17 614.83 91.12 614.84 91.09 614.86 91.04 614.86 91.01 614.85 90.96 614.85 90.92 614.82 90.89 614.81 90.88 614.79 90.88 614.76 90.88 614.73 90.88 614.7 90.87 614.67 90.87 614.63 90.87 614.59 90.86 614.51 90.84 614.48 90.83 614.44 90.83 614.42 90.82 614.4 90.81 614.38 90.79 614.34 90.75 614.31 90.73 614.29 90.72 614.26 90.71 614.23 90.7 614.2 90.71 614.16 90.69 614.15 90.69 614.14 90.7 614.14 90.65 614.14 90.62 614.14 90.59 614.15 90.57 614.16 90.54 614.18 90.51 614.19 90.47 614.18 90.44 614.17 90.41 614.18 90.37 614.19 90.33 614.2 90.3 614.21 90.27 614.23 90.24 614.25 90.2 614.27 90.16 614.28 90.14 614.19 89.97 613.95 89.79 613.55 89.54 613.52 89.4 613.29 89.41 613.29 89.39 613.28 89.37 613.25 89.35 613.21 89.32 612.99 89.35 612.6 89.25 612.26 89.19 612.25 89.01 612.91 88.95 613.21 88.89 613.25 88.85 613.3 88.8 613.34 88.75 613.37 88.72 613.38 88.71 613.4 88.7 613.42 88.68 613.46 88.63 613.49 88.58 613.5 88.56 613.37 88.46 613.42 88.16 613.25 88.17 613.15 87.95 613.01 88.03 612.96 88.03 612.93 87.93 613.01 87.73 612.98 87.54 612.89 87.4 612.93 87.26 612.91 86.99 612.54 86.57 612.53 86.53 612.52 86.51 612.5 86.46 612.47 86.39 612.46 86.38 612.44 86.35 612.43 85.3 612.17 85.04 612.21 85.01 612.29 84.89 612.33 84.84 612.33 84.81 612.34 84.77 612.34 84.67 612.34 84.57 612.03 84.22 611.92 83.91 611.8 83.74 611.6 83.6 611.35 83.51 610.96 83.53 610.83 83.43 610.8 83.23 610.65 83.2 610.65 83.14 610.62 83.09 610.53 82.95 610.4 82.81 610.34 82.74 610.23 82.76 610.12 82.78 610.1 82.78 609.98 82.78 609.89 82.77 609.7 82.8 609.25 82.62 608.94 82.49 608.93 82.47 608.92 82.46 608.89 82.44 608.86 82.42 608.83 82.41 608.79 82.38 608.76 82.36 608.73 82.34 608.69 82.33 608.66 82.32 608.63 82.31 608.61 82.31 608.58 82.31 608.56 82.32 608.53 82.32 608.5 82.33 608.29 82.17 607.97 81.83 607.97 81.55 607.93 81.27 607.58 80.61 607.58 80.61 607.53 80.6 607.49 80.59 607.43 80.58 607.37 80.57 607.3 80.56 607.24 80.55 607.17 80.54 607.1 80.53 607.02 80.53 606.99 80.53 606.93 80.51 606.88 80.5 606.86 80.49 606.84 80.48 606.8 80.48 606.74 80.48 606.66 80.48 606.64 80.48 606.61 80.47 606.59 80.47 606.57 80.46 606.55 80.44 606.52 80.43 606.49 80.42 606.46 80.42 606.43 80.42 606.4 80.41 606.36 80.41 606.29 80.42 606.22 80.42 606.13 80.43 606.08 80.45 606.05 80.46 605.35 80.1 605.33 80.07 605.32 80.05 605.32 80.03 605.31 80.01 605.3 80 605.28 79.99 605.16 80 605.62 79.29 606.21 78.39 606.56 78.25 606.61 78.25 606.68 78.26 607.49 78.09 607.92 78.17 608.9 78.24 608.92 78.23 608.95 78.19 609.56 78.25 609.61 78.24 609.66 78.24 609.69 78.24 609.69 78.12 609.7 78.11 609.72 78.08 609.74 78.06 609.75 78.02 609.75 77.99 609.75 77.95 609.93 77.89 609.92 77.88 610.06 77.75 610.64 77.59 611.23 77.43 611.59 77.14 612.13 76.86 612.21 76.85 612.28 76.84 612.32 76.83 612.35 76.83 612.45 76.8 612.58 76.75 612.69 76.7 612.73 76.68 612.75 76.68 612.77 76.68 612.78 76.69 612.8 76.7 612.83 76.74 613.08 76.59 613.38 76.36 613.53 76.21 613.61 76.06 614.25 75.83 614.56 75.55 614.55 75.54 614.52 75.52 614.5 75.5 614.47 75.48 614.44 75.46 614.41 75.43 614.39 75.4 614.37 75.38 614.35 75.36 614.31 75.3 614.31 75.28 614.31 75.27 614.31 75.26 614.31 75.24 614.32 75.22 614.34 75.21 614.35 75.2 614.38 75.18 614.39 75.17 614.43 75.14 614.44 75.12 614.45 75.1 614.46 75.08 614.47 75.06 614.47 75.03 614.48 75.01 614.5 74.98 614.51 74.95 614.52 74.94 614.54 74.91 614.55 74.88 614.57 74.84 614.58 74.8 614.58 74.78 614.58 74.75 614.58 74.72 614.58 74.7 614.58 74.68 614.57 74.67 614.56 74.65 614.56 74.64 614.57 74.63 614.58 74.61 614.59 74.59 614.59 74.58 614.6 74.56 614.59 74.53 614.59 74.5 614.6 74.48 614.6 74.46 614.6 74.44 614.61 74.42 614.62 74.4 614.64 74.38 614.66 74.38 614.67 74.38 614.68 74.38 614.69 74.39 614.7 74.41 614.7 74.42 614.71 74.43 614.73 74.43 614.75 74.43 614.76 74.42 614.79 74.41 614.82 74.4 614.84 74.38 614.86 74.36 614.88 74.34 614.91 74.31 614.93 74.3 614.95 74.29 614.96 74.28 614.98 74.27 615.01 74.26 615.04 74.24 615.07 74.23 615.08 74.22 615.11 74.21 615.13 74.19 615.14 74.18 615.14 74.17 615.16 74.15 615.17 74.14 615.18 74.12 615.2 74.12 615.22 74.12 615.24 74.13 615.26 74.14 615.28 74.14 615.29 74.13 615.31 74.12 615.33 74.1 615.34 74.09 615.35 74.06 615.35 74.04 615.36 74.01 615.36 73.99 615.36 73.97 615.36 73.96 615.36 73.93 615.35 73.89 615.34 73.86 615.33 73.84 615.32 73.82 615.31 73.8 615.3 73.79 615.3 73.78 615.28 73.76 615.26 73.74 615.24 73.73 615.22 73.73 615.21 73.72 615.19 73.72 615.17 73.71 615.15 73.7 615.12 73.69 615.1 73.67 615.08 73.65 615.06 73.62 615.04 73.58 615.03 73.55 615.01 73.51 615.01 73.48 615 73.45 615 73.41 615 73.39 615 73.35 615.01 73.32 615.01 73.31 615.02 73.29 615.03 73.27 615.04 73.26 615.06 73.25 615.07 73.23 615.08 73.22 615.09 73.19 615.1 73.15 615.11 73.12 615.11 73.09 615.12 73.06 615.13 73.04 615.13 73.02 615.14 73 615.15 72.96 615.15 72.93 615.16 72.91 615.17 72.86 615.17 72.83 615.18 72.8 615.18 72.76 615.19 72.73 615.2 72.68 615.2 72.64 615.2 72.61 615.2 72.59 615.2 72.57 615.2 72.53 615.2 72.5 615.2 72.47 615.2 72.44 615.2 72.4 615.2 72.39 615.21 72.36 615.22 72.33 615.22 72.29 615.22 72.27 615.23 72.24 615.24 72.21 615.25 72.18 615.27 72.16 615.3 72.14 615.32 72.12 615.36 72.09 615.37 72.07 615.41 72.05 615.46 72.02 615.48 72.01 615.5 72 615.55 71.97 615.59 71.95 615.71 71.89 615.79 71.86 615.83 71.85 615.87 71.84 615.91 71.83 615.95 71.81 615.99 71.81 616.03 71.81 616.05 71.82 616.07 71.84 616.09 71.87 616.1 71.89 616.11 71.92 616.13 71.95 616.15 71.96 616.18 71.98 616.21 71.99 616.23 72.01 616.25 72.03 616.27 72.04 616.3 72.04 616.34 72.01 616.36 71.98 616.39 71.95 616.41 71.92 616.43 71.87 616.45 71.84 616.47 71.82 616.48 71.81 616.51 71.79 616.54 71.78 616.62 71.75 616.63 71.75 616.66 71.74 616.7 71.72 616.74 71.7 616.79 71.68 616.86 71.66 616.96 71.62 617.01 71.6 617.07 71.58 617.14 71.54 617.2 71.52 617.25 71.5 617.3 71.48 617.36 71.46 617.38 71.45 617.4 71.44 617.44 71.42 617.47 71.41 617.54 71.42 617.59 71.42 617.63 71.42 617.67 71.41 617.71 71.41 617.76 71.4 617.8 71.39 617.83 71.38 617.86 71.37 617.89 71.37 617.96 71.38 618.08 71.41 618.22 71.46 618.4 71.52 618.56 71.57 618.73 71.63 618.83 71.65 618.98 71.66 619.05 71.65 619.1 71.65 619.18 71.66 619.25 71.69 619.29 71.69 619.38 71.69 619.44 71.69 619.55 71.68 Z"/>
</g></svg>