<svg xmlns="http://www.w3.org/2000/svg" version="1.2" baseProfile="tiny" stroke-linecap="round" stroke-linejoin="round" viewBox="151.43 48.45 22.63 20.8"><g xmlns="http://www.w3.org/2000/svg" id="Lemoiz">
<path d="M 173.64 51.17 173.62 51.23 173.58 51.3 173.55 51.46 173.53 51.51 173.52 51.57 173.52 51.59 173.54 51.65 173.62 51.69 173.64 51.71 173.66 51.74 173.7 51.78 173.73 51.84 173.73 51.85 173.77 51.89 173.81 51.98 173.82 52.04 173.77 52.08 173.73 52.13 173.73 52.19 173.78 52.29 173.88 52.36 173.93 52.38 174 52.41 174.03 52.45 174.04 52.5 174.03 52.57 174 52.62 173.96 52.67 173.94 52.71 173.91 52.77 173.87 52.89 173.83 52.93 173.8 52.98 173.71 53.08 172.8 53.65 172.85 54.22 172.82 54.96 173.05 55.5 173.18 55.82 173.29 56.22 173.36 56.56 173.41 56.75 172.9 56.46 172.38 56.64 171.21 57.42 169.92 57.44 168.77 57.58 168.59 57.61 167.49 58.09 167.09 58.24 166.81 58.34 166.91 59.13 166.77 59.32 166.29 59.37 166.35 58.68 165.99 58.57 165.45 58.69 164.22 58.1 163.65 58.2 162.96 58.4 163.24 59.2 163.21 59.47 162.55 60.64 161.96 61.92 160.75 62.47 160.4 62.85 159.74 62.97 159.47 63.5 158.92 64.07 159.11 64.88 159.02 65.22 158.67 65.99 157.92 67.08 157.73 67.27 157.43 67.57 157.14 68.47 157.21 68.73 157.03 68.73 155.42 68.82 155.36 68.76 155.32 68.66 155.26 68.59 155.22 68.53 155.13 68.45 154.93 68.41 154.67 68.53 154.52 68.7 154.39 68.83 154.35 68.88 154.26 68.95 154.19 69.04 154.15 69.09 154.09 69.12 154.05 69.14 153.99 69.21 153.71 69.24 153.64 69.1 153.66 68.92 153.37 68.91 153.22 68.48 153.05 68.4 152.61 68.18 152.31 68 152.06 67.91 152.11 67.71 152.19 67.56 152.32 67.36 152.46 67.15 152.47 67.15 152.47 67.14 152.47 67.13 152.48 67.12 152.48 67.11 152.48 67.11 152.49 67.09 152.49 67.08 152.5 67.06 152.5 67.04 152.51 67.03 152.52 67.01 152.52 67 152.52 66.99 152.53 66.98 152.53 66.97 152.53 66.96 152.54 66.94 152.54 66.92 152.54 66.9 152.55 66.88 152.55 66.86 152.55 66.83 152.56 66.81 152.56 66.79 152.56 66.78 152.57 66.76 152.57 66.75 152.57 66.73 152.57 66.72 152.57 66.7 152.58 66.68 152.58 66.67 152.58 66.65 152.58 66.63 152.59 66.62 152.59 66.59 152.59 66.57 152.6 66.55 152.6 66.52 152.61 66.5 152.61 66.47 152.62 66.45 152.63 66.42 152.64 66.4 152.64 66.37 152.65 66.35 152.66 66.32 152.66 66.3 152.67 66.28 152.68 66.25 152.68 66.23 152.69 66.21 152.7 66.19 152.7 66.17 152.71 66.15 152.72 66.13 152.73 66.1 152.73 66.08 152.74 66.06 152.74 66.04 152.75 66.03 152.75 66.01 152.76 65.99 152.76 65.97 152.77 65.95 152.77 65.93 152.77 65.91 152.77 65.89 152.77 65.87 152.77 65.86 152.77 65.84 152.77 65.82 152.77 65.8 152.77 65.79 152.76 65.77 152.76 65.75 152.76 65.73 152.75 65.71 152.75 65.69 152.74 65.67 152.74 65.65 152.73 65.63 152.73 65.6 152.64 65.27 152.53 64.98 152.66 64.77 152.86 64.21 152.9 64.05 152.92 63.72 152.85 63.11 152.73 62.88 152.73 62.52 152.78 62.16 152.84 62.06 152.93 61.98 152.97 61.5 152.99 61.33 153 61.24 153 61.23 153 61.19 152.98 61.2 152.96 60.68 152.94 60.61 152.92 60.55 152.86 60.43 152.84 60.36 152.81 60.3 152.75 60.11 152.73 60.05 152.74 59.97 152.74 59.91 152.77 59.78 152.78 59.67 152.8 59.55 152.81 59.49 152.82 59.46 152.83 59.43 152.86 59.39 152.89 59.33 152.94 59.25 152.96 59.2 152.99 59.15 152.93 58.58 152.94 58.57 152.87 58.36 152.82 58.26 152.81 58.19 152.81 58.13 152.82 58.11 152.83 58.09 152.83 58.05 152.79 58 152.75 57.96 152.57 57.7 152.55 57.61 153.28 57.25 153.19 57.15 152.97 56.89 152.93 56.85 152.93 56.82 152.93 56.76 152.94 56.73 152.96 56.7 152.97 56.66 152.98 56.6 152.98 56.53 152.97 56.27 152.97 56.21 152.98 56.02 152.99 55.96 153.01 55.89 153.04 55.84 153.13 55.68 153.13 55.68 153.14 55.67 153.17 55.64 153.17 55.63 153.18 55.62 153.19 55.6 153.21 55.59 153.21 55.57 153.22 55.56 153.23 55.55 153.24 55.52 153.25 55.5 153.26 55.48 153.27 55.36 153.27 55.27 153.23 55.12 154.02 54.88 154.28 54.83 154.66 54.67 154.96 53.58 155.14 52.94 155.31 52.51 154.36 52.26 153.57 52.1 151.44 49.12 151.45 49.11 151.46 49.1 151.46 49.1 151.48 49.09 151.5 49.09 151.52 49.1 151.56 49.11 151.57 49.11 151.61 49.11 151.64 49.1 151.68 49.11 151.69 49.11 151.7 49.12 151.73 49.13 151.73 49.13 151.76 49.13 151.78 49.14 151.82 49.14 151.83 49.14 151.94 49.15 151.96 49.14 151.99 49.14 152.03 49.12 152.06 49.11 152.08 49.09 152.09 49.08 152.1 49.06 152.12 49 152.12 48.97 152.12 48.96 152.11 48.95 152.09 48.94 152.09 48.93 152.09 48.92 152.09 48.91 152.1 48.9 152.11 48.89 152.18 48.86 152.19 48.85 152.21 48.84 152.22 48.83 152.23 48.81 152.24 48.79 152.25 48.78 152.3 48.73 152.35 48.68 152.38 48.65 152.4 48.64 152.43 48.63 152.45 48.62 152.46 48.62 152.51 48.62 152.58 48.62 152.76 48.62 152.77 48.62 152.79 48.63 152.84 48.67 152.86 48.68 152.89 48.69 152.91 48.7 152.94 48.7 152.96 48.71 152.97 48.71 153 48.73 153.04 48.75 153.06 48.76 153.07 48.76 153.09 48.77 153.1 48.77 153.17 48.77 153.2 48.76 153.21 48.76 153.23 48.75 153.24 48.73 153.25 48.72 153.26 48.69 153.28 48.67 153.29 48.65 153.31 48.63 153.33 48.61 153.35 48.6 153.37 48.59 153.39 48.59 153.44 48.59 153.46 48.59 153.47 48.59 153.51 48.61 153.53 48.61 153.54 48.62 153.55 48.63 153.56 48.64 153.58 48.68 153.6 48.7 153.62 48.72 153.63 48.74 153.63 48.75 153.64 48.76 153.64 48.78 153.64 48.8 153.64 48.82 153.65 48.83 153.66 48.84 153.7 48.89 153.75 48.94 153.76 48.95 153.78 48.96 153.81 48.98 153.82 48.98 153.89 48.98 153.94 48.98 153.96 48.97 153.97 48.96 153.99 48.96 154 48.95 154.02 48.96 154.03 48.96 154.07 48.98 154.09 48.99 154.1 49 154.1 49.01 154.09 49.03 154.09 49.05 154.09 49.06 154.1 49.07 154.12 49.09 154.17 49.14 154.28 49.24 154.3 49.26 154.33 49.27 154.35 49.28 154.36 49.28 154.38 49.29 154.39 49.29 154.4 49.28 154.45 49.26 154.48 49.24 154.5 49.23 154.56 49.18 154.58 49.16 154.68 49.07 154.72 49.02 154.74 49 154.77 48.96 154.79 48.92 154.81 48.9 154.83 48.85 154.84 48.83 154.84 48.79 154.85 48.79 154.85 48.78 154.84 48.77 154.84 48.76 154.82 48.74 154.8 48.72 154.79 48.71 154.79 48.7 154.8 48.69 154.81 48.69 154.84 48.68 154.84 48.68 154.84 48.66 154.83 48.65 154.83 48.64 154.81 48.63 154.79 48.61 154.78 48.6 154.78 48.59 154.78 48.58 154.79 48.57 154.8 48.58 154.81 48.58 154.84 48.6 154.88 48.63 154.9 48.64 154.91 48.64 154.92 48.63 154.92 48.62 154.91 48.61 154.91 48.6 154.89 48.59 154.88 48.59 154.85 48.57 154.84 48.56 154.83 48.55 154.8 48.52 154.78 48.49 154.77 48.47 154.77 48.46 154.78 48.46 154.8 48.46 154.82 48.47 154.84 48.48 154.9 48.49 154.92 48.5 154.97 48.51 155.01 48.52 155.03 48.52 155.04 48.52 155.08 48.52 155.1 48.52 155.11 48.52 155.12 48.52 155.14 48.52 155.15 48.52 155.17 48.53 155.19 48.54 155.21 48.54 155.22 48.56 155.23 48.58 155.24 48.6 155.27 48.62 155.28 48.63 155.32 48.63 155.33 48.64 155.38 48.64 155.39 48.64 155.4 48.65 155.42 48.66 155.43 48.68 155.46 48.72 155.47 48.73 155.49 48.74 155.5 48.74 155.51 48.74 155.52 48.73 155.53 48.72 155.52 48.71 155.52 48.7 155.51 48.69 155.51 48.67 155.52 48.67 155.53 48.66 155.55 48.67 155.57 48.68 155.59 48.68 155.63 48.69 155.64 48.69 155.67 48.71 155.69 48.72 155.72 48.74 155.74 48.76 155.74 48.76 155.74 48.77 155.73 48.77 155.71 48.77 155.69 48.77 155.69 48.77 155.69 48.77 155.69 48.79 155.7 48.8 155.73 48.81 155.74 48.82 155.75 48.83 155.76 48.84 155.77 48.86 155.77 48.86 155.77 48.89 155.78 48.9 155.78 48.91 155.79 48.92 155.81 48.93 155.82 48.93 155.84 48.95 155.87 48.97 155.88 48.98 155.9 49 155.92 49.01 155.94 49.05 155.95 49.06 155.96 49.06 155.96 49.07 155.97 49.07 155.98 49.07 155.99 49.06 156.01 49.05 156.04 49.03 156.05 49.03 156.05 49.03 156.06 49.03 156.07 49.05 156.07 49.1 156.07 49.12 156.08 49.12 156.09 49.13 156.1 49.13 156.11 49.12 156.14 49.11 156.18 49.08 156.24 49.06 156.26 49.05 156.28 49.03 156.31 49.01 156.32 49 156.34 48.98 156.35 48.97 156.37 48.96 156.45 48.92 156.47 48.91 156.47 48.9 156.48 48.9 156.48 48.88 156.48 48.87 156.48 48.86 156.48 48.85 156.49 48.84 156.5 48.83 156.5 48.83 156.51 48.84 156.54 48.86 156.54 48.86 156.6 48.9 156.61 48.9 156.63 48.89 156.64 48.89 156.65 48.89 156.67 48.9 156.7 48.92 156.72 48.92 156.73 48.93 156.75 48.95 156.76 48.97 156.77 48.99 156.78 49 156.79 49.01 156.8 49.01 156.81 49.03 156.86 49.07 156.88 49.09 156.89 49.09 156.92 49.1 156.93 49.11 156.94 49.11 156.95 49.12 156.95 49.13 156.95 49.13 156.96 49.15 156.97 49.16 156.98 49.17 156.98 49.18 156.99 49.21 157 49.22 157 49.23 157.01 49.24 157.03 49.25 157.05 49.27 157.06 49.29 157.07 49.3 157.08 49.3 157.09 49.31 157.12 49.3 157.13 49.29 157.14 49.29 157.15 49.29 157.16 49.3 157.15 49.34 157.14 49.35 157.14 49.36 157.15 49.37 157.16 49.38 157.21 49.39 157.22 49.4 157.23 49.41 157.25 49.45 157.25 49.46 157.25 49.48 157.25 49.48 157.24 49.49 157.22 49.5 157.2 49.52 157.2 49.53 157.2 49.55 157.18 49.56 157.17 49.56 157.16 49.56 157.15 49.57 157.15 49.57 157.13 49.59 157.13 49.61 157.12 49.63 157.12 49.64 157.11 49.64 157.07 49.68 157.03 49.72 156.98 49.76 156.95 49.77 156.91 49.8 156.89 49.81 156.87 49.82 156.81 49.87 156.8 49.88 156.79 49.89 156.77 49.94 156.76 49.95 156.76 49.97 156.76 50.05 156.77 50.07 156.78 50.13 156.79 50.13 156.82 50.13 156.83 50.14 156.84 50.15 156.85 50.17 156.86 50.19 156.87 50.2 156.87 50.21 156.87 50.23 156.87 50.29 156.87 50.31 156.88 50.32 156.9 50.33 156.91 50.34 156.92 50.34 156.93 50.34 156.95 50.34 156.97 50.33 156.99 50.33 157.05 50.33 157.07 50.34 157.08 50.34 157.1 50.35 157.1 50.35 157.11 50.36 157.12 50.38 157.12 50.39 157.13 50.41 157.12 50.42 157.12 50.43 157.11 50.44 157.1 50.44 157.09 50.45 157.06 50.45 157 50.45 156.98 50.45 156.98 50.45 156.97 50.46 156.96 50.47 156.94 50.49 156.93 50.51 156.93 50.53 156.93 50.55 156.94 50.57 156.94 50.58 156.95 50.6 156.96 50.61 156.98 50.63 156.99 50.63 157.01 50.63 157.02 50.63 157.06 50.61 157.09 50.6 157.13 50.59 157.16 50.59 157.17 50.59 157.18 50.59 157.2 50.6 157.2 50.61 157.21 50.62 157.21 50.63 157.21 50.65 157.2 50.65 157.18 50.66 157.17 50.66 157.1 50.67 157.08 50.67 157.06 50.68 157.04 50.69 157.03 50.7 157.03 50.71 157.03 50.74 157.04 50.75 157.04 50.76 157.06 50.78 157.08 50.81 157.12 50.85 157.13 50.86 157.15 50.88 157.16 50.88 157.19 50.89 157.2 50.9 157.21 50.9 157.23 50.89 157.24 50.88 157.26 50.87 157.3 50.85 157.32 50.84 157.33 50.84 157.34 50.84 157.36 50.84 157.37 50.85 157.38 50.86 157.38 50.87 157.37 50.88 157.36 50.89 157.35 50.9 157.33 50.91 157.31 50.92 157.3 50.93 157.29 50.94 157.29 50.96 157.29 50.97 157.3 50.98 157.31 50.99 157.33 50.99 157.35 51 157.36 51 157.37 51 157.38 50.99 157.39 50.98 157.41 50.98 157.42 50.99 157.44 50.99 157.45 51 157.45 51.01 157.45 51.02 157.44 51.04 157.42 51.08 157.42 51.1 157.42 51.11 157.42 51.12 157.43 51.13 157.46 51.14 157.49 51.15 157.5 51.15 157.52 51.16 157.54 51.18 157.55 51.19 157.56 51.19 157.57 51.19 157.58 51.19 157.59 51.17 157.6 51.17 157.62 51.16 157.64 51.16 157.65 51.16 157.67 51.16 157.69 51.16 157.73 51.17 157.76 51.18 157.79 51.2 157.82 51.22 157.87 51.25 157.9 51.27 157.9 51.27 157.93 51.29 157.95 51.3 157.97 51.3 158.03 51.3 158.06 51.3 158.06 51.3 158.08 51.29 158.08 51.27 158.08 51.25 158.08 51.21 158.09 51.19 158.1 51.17 158.1 51.14 158.1 51.09 158.1 51.08 158.11 51.08 158.13 51.07 158.13 51.06 158.12 51.06 158.1 51.04 158.09 51.04 158.08 51.03 158.05 51.02 158.04 51.01 158.02 50.99 158 50.98 157.99 50.97 157.99 50.97 157.96 50.97 157.95 50.98 157.94 50.98 157.94 50.98 157.93 50.97 157.93 50.96 157.93 50.95 157.94 50.95 157.96 50.94 157.98 50.93 157.99 50.94 158 50.94 158.06 50.98 158.09 51 158.17 51.05 158.18 51.05 158.19 51.03 158.19 51.02 158.19 51.02 158.19 51.01 158.19 50.99 158.2 50.96 158.2 50.94 158.2 50.9 158.2 50.89 158.18 50.89 158.16 50.89 158.16 50.88 158.16 50.87 158.17 50.86 158.18 50.85 158.21 50.84 158.25 50.83 158.26 50.82 158.29 50.8 158.3 50.8 158.31 50.79 158.34 50.77 158.35 50.76 158.35 50.75 158.36 50.74 158.38 50.73 158.4 50.72 158.4 50.71 158.4 50.7 158.39 50.68 158.39 50.66 158.4 50.65 158.4 50.64 158.41 50.64 158.4 50.63 158.39 50.61 158.38 50.59 158.38 50.59 158.34 50.61 158.32 50.62 158.31 50.64 158.28 50.66 158.26 50.68 158.19 50.72 158.19 50.73 158.19 50.81 158.18 50.81 158.17 50.81 158.16 50.81 158.16 50.8 158.15 50.78 158.15 50.76 158.14 50.76 158.13 50.76 158.12 50.77 158.11 50.79 158.07 50.82 158.07 50.82 158.04 50.83 157.99 50.86 157.97 50.87 157.95 50.88 157.93 50.89 157.91 50.9 157.89 50.91 157.87 50.91 157.82 50.92 157.81 50.93 157.8 50.93 157.8 50.99 157.8 50.99 157.79 51 157.78 51 157.77 50.99 157.77 50.98 157.77 50.98 157.77 50.94 157.77 50.92 157.76 50.92 157.74 50.92 157.74 50.91 157.72 50.9 157.71 50.89 157.7 50.89 157.68 50.87 157.68 50.87 157.66 50.86 157.65 50.84 157.65 50.82 157.63 50.79 157.62 50.75 157.62 50.73 157.61 50.69 157.61 50.64 157.6 50.55 157.6 50.52 157.6 50.48 157.6 50.47 157.6 50.45 157.61 50.45 157.62 50.45 157.63 50.45 157.64 50.45 157.64 50.46 157.65 50.47 157.65 50.53 157.66 50.55 157.66 50.6 157.67 50.69 157.68 50.73 157.68 50.76 157.69 50.78 157.7 50.81 157.73 50.84 157.75 50.85 157.76 50.86 157.77 50.86 157.8 50.86 157.83 50.85 157.87 50.84 157.96 50.81 157.96 50.8 157.99 50.79 158.01 50.78 158.03 50.76 158.04 50.76 158.04 50.74 158.04 50.74 158.03 50.73 158.03 50.72 158.01 50.71 157.99 50.7 157.97 50.7 157.96 50.69 157.97 50.68 157.97 50.67 158.01 50.64 158.01 50.63 158.01 50.62 158.01 50.62 157.99 50.63 157.94 50.63 157.93 50.63 157.91 50.64 157.9 50.65 157.89 50.65 157.87 50.65 157.85 50.64 157.85 50.63 157.85 50.62 157.86 50.61 157.88 50.61 157.89 50.6 157.91 50.6 157.95 50.59 158 50.58 158.04 50.57 158.09 50.57 158.11 50.56 158.14 50.54 158.15 50.54 158.16 50.54 158.17 50.54 158.19 50.55 158.21 50.55 158.23 50.55 158.24 50.55 158.25 50.55 158.27 50.54 158.27 50.54 158.32 50.52 158.34 50.5 158.35 50.49 158.38 50.48 158.4 50.47 158.41 50.46 158.4 50.45 158.39 50.44 158.39 50.44 158.37 50.44 158.36 50.44 158.34 50.46 158.32 50.46 158.31 50.46 158.3 50.46 158.28 50.45 158.28 50.44 158.28 50.43 158.29 50.42 158.3 50.41 158.33 50.4 158.36 50.38 158.4 50.37 158.41 50.37 158.44 50.35 158.46 50.35 158.51 50.35 158.56 50.34 158.57 50.34 158.59 50.33 158.61 50.31 158.62 50.3 158.64 50.28 158.67 50.26 158.68 50.25 158.71 50.21 158.72 50.2 158.73 50.19 158.74 50.19 158.75 50.19 158.76 50.19 158.76 50.2 158.79 50.22 158.81 50.23 158.84 50.24 158.85 50.24 158.86 50.25 158.87 50.27 158.88 50.27 158.89 50.28 158.9 50.28 158.92 50.29 158.98 50.31 159 50.32 159.02 50.32 159.03 50.33 159.04 50.34 159.05 50.35 159.04 50.36 159.03 50.37 159.01 50.37 159 50.38 158.99 50.38 158.99 50.39 158.99 50.41 158.99 50.42 159 50.42 159.01 50.43 159.03 50.44 159.03 50.44 159.03 50.45 159.03 50.46 159.02 50.48 159.01 50.49 159.01 50.49 159 50.5 159.01 50.51 159.03 50.53 159.04 50.53 159.06 50.55 159.06 50.56 159.08 50.58 159.1 50.6 159.12 50.62 159.12 50.63 159.13 50.64 159.14 50.64 159.15 50.65 159.2 50.69 159.22 50.69 159.26 50.71 159.3 50.72 159.33 50.73 159.35 50.74 159.36 50.75 159.4 50.77 159.41 50.78 159.41 50.78 159.42 50.79 159.42 50.79 159.42 50.8 159.42 50.82 159.42 50.84 159.41 50.85 159.4 50.87 159.39 50.9 159.38 50.9 159.37 50.91 159.36 50.93 159.36 50.94 159.36 50.96 159.37 50.97 159.38 51 159.39 51.01 159.42 51.04 159.43 51.05 159.43 51.06 159.44 51.08 159.44 51.1 159.43 51.12 159.42 51.16 159.42 51.17 159.43 51.17 159.44 51.17 159.47 51.16 159.49 51.15 159.51 51.14 159.51 51.14 159.53 51.14 159.54 51.13 159.55 51.13 159.56 51.13 159.61 51.11 159.64 51.11 159.65 51.11 159.65 51.11 159.68 51.09 159.71 51.05 159.73 51.03 159.74 51.02 159.77 51.01 159.77 51.01 159.8 50.99 159.86 50.94 159.87 50.94 159.89 50.91 159.91 50.9 159.92 50.89 159.92 50.87 159.93 50.84 159.94 50.83 159.94 50.82 159.93 50.81 159.93 50.72 159.92 50.71 159.9 50.68 159.88 50.67 159.87 50.66 159.82 50.64 159.81 50.63 159.81 50.62 159.8 50.61 159.8 50.58 159.8 50.55 159.8 50.49 159.8 50.46 159.79 50.44 159.79 50.44 159.75 50.42 159.75 50.41 159.74 50.41 159.75 50.34 159.75 50.33 159.75 50.3 159.76 50.27 159.77 50.2 159.78 50.17 159.79 50.15 159.8 50.14 159.81 50.13 159.83 50.12 159.86 50.11 159.88 50.11 159.95 50.11 159.96 50.11 159.97 50.1 159.99 50.07 160 50.06 160 50.05 160 50.02 160 50.01 160.01 50 160.02 49.99 160.03 49.99 160.04 49.99 160.07 49.98 160.1 49.98 160.11 49.99 160.15 50 160.18 50 160.19 50 160.2 49.99 160.22 49.99 160.25 49.98 160.26 49.98 160.27 49.99 160.28 50 160.28 50.03 160.3 50.07 160.31 50.07 160.34 50.07 160.35 50.07 160.38 50.06 160.41 50.05 160.43 50.04 160.44 50.04 160.45 50.02 160.46 50.02 160.47 50 160.48 49.98 160.49 49.97 160.49 49.96 160.51 49.95 160.54 49.93 160.56 49.93 160.57 49.92 160.59 49.92 160.61 49.92 160.64 49.94 160.66 49.95 160.68 49.95 160.69 49.95 160.7 49.95 160.72 49.95 160.73 49.95 160.75 49.93 160.78 49.91 160.83 49.89 160.84 49.89 160.87 49.87 160.9 49.84 160.94 49.82 160.99 49.78 161.02 49.77 161.03 49.77 161.06 49.76 161.08 49.75 161.1 49.73 161.13 49.71 161.15 49.69 161.16 49.69 161.18 49.68 161.18 49.68 161.2 49.68 161.24 49.71 161.28 49.73 161.32 49.76 161.33 49.77 161.38 49.79 161.39 49.79 161.4 49.8 161.41 49.81 161.45 49.82 161.46 49.83 161.47 49.85 161.48 49.86 161.51 49.87 161.52 49.87 161.53 49.87 161.56 49.87 161.59 49.87 161.61 49.86 161.72 49.85 161.73 49.85 161.74 49.84 161.77 49.81 161.79 49.79 161.8 49.78 161.81 49.77 161.83 49.73 161.84 49.72 161.88 49.65 161.9 49.62 161.91 49.61 161.93 49.6 161.94 49.59 161.95 49.59 161.98 49.59 162 49.59 162.01 49.6 162.04 49.62 162.08 49.65 162.1 49.68 162.12 49.71 162.14 49.74 162.16 49.75 162.18 49.76 162.2 49.77 162.22 49.77 162.25 49.77 162.29 49.77 162.3 49.77 162.32 49.78 162.33 49.78 162.35 49.8 162.36 49.8 162.37 49.8 162.4 49.8 162.41 49.8 162.42 49.8 162.46 49.79 162.48 49.79 162.5 49.79 162.51 49.78 162.53 49.78 162.54 49.79 162.54 49.79 162.55 49.8 162.56 49.81 162.56 49.82 162.56 49.84 162.56 49.85 162.57 49.86 162.58 49.87 162.59 49.87 162.62 49.88 162.65 49.89 162.68 49.9 162.69 49.9 162.7 49.9 162.72 49.91 162.74 49.91 162.76 49.91 162.8 49.91 162.82 49.91 162.82 49.91 162.85 49.9 162.87 49.9 162.87 49.89 162.89 49.88 162.91 49.87 162.93 49.86 162.94 49.85 162.96 49.84 162.97 49.83 162.98 49.83 162.99 49.82 162.99 49.81 162.99 49.81 162.99 49.8 163 49.78 163.01 49.76 163.01 49.75 163.01 49.75 163.01 49.7 163.01 49.69 163 49.66 162.99 49.66 162.99 49.65 162.99 49.62 162.99 49.61 163 49.61 163.01 49.6 163.02 49.6 163.05 49.6 163.07 49.6 163.1 49.6 163.11 49.6 163.12 49.6 163.18 49.52 163.19 49.51 163.2 49.5 163.22 49.5 163.24 49.5 163.26 49.49 163.28 49.49 163.32 49.49 163.33 49.49 163.34 49.5 163.4 49.5 163.44 49.51 163.46 49.51 163.47 49.52 163.49 49.53 163.5 49.54 163.55 49.55 163.55 49.56 163.56 49.58 163.57 49.6 163.58 49.61 163.59 49.63 163.59 49.64 163.59 49.65 163.61 49.71 163.62 49.72 163.63 49.73 163.65 49.75 163.66 49.75 163.71 49.77 163.73 49.78 163.74 49.79 163.74 49.8 163.74 49.81 163.75 49.81 163.76 49.81 163.79 49.81 163.8 49.82 163.81 49.83 163.81 49.84 163.82 49.84 163.84 49.85 163.85 49.85 163.87 49.85 163.88 49.85 163.89 49.85 163.9 49.82 163.9 49.81 163.91 49.8 163.93 49.79 163.95 49.78 163.96 49.77 163.98 49.77 164 49.76 164.03 49.75 164.09 49.73 164.1 49.73 164.14 49.73 164.14 49.73 164.16 49.74 164.16 49.75 164.17 49.76 164.17 49.78 164.16 49.8 164.14 49.81 164.13 49.82 164.12 49.83 164.12 49.85 164.13 49.85 164.13 49.85 164.15 49.86 164.17 49.86 164.22 49.88 164.27 49.9 164.28 49.91 164.3 49.91 164.31 49.91 164.34 49.91 164.42 49.92 164.44 49.93 164.46 49.93 164.48 49.92 164.5 49.91 164.52 49.91 164.53 49.91 164.54 49.91 164.57 49.89 164.59 49.88 164.63 49.83 164.65 49.8 164.67 49.78 164.69 49.75 164.71 49.74 164.78 49.7 164.79 49.7 164.8 49.7 164.81 49.7 164.83 49.71 164.84 49.71 164.84 49.72 164.84 49.73 164.83 49.77 164.82 49.79 164.78 49.83 164.76 49.85 164.72 49.88 164.7 49.9 164.68 49.92 164.68 49.92 164.68 49.93 164.68 49.94 164.69 49.95 164.7 49.97 164.7 49.98 164.75 49.98 164.79 49.99 164.83 49.99 164.84 49.98 164.84 49.97 164.84 49.97 164.83 49.95 164.82 49.94 164.81 49.93 164.81 49.92 164.81 49.91 164.81 49.9 164.83 49.89 164.83 49.89 164.84 49.89 164.85 49.89 164.86 49.89 164.87 49.89 164.88 49.9 164.9 49.9 164.92 49.9 164.93 49.91 164.94 49.91 164.99 49.96 165.01 49.98 165.02 49.98 165.03 49.98 165.04 49.98 165.06 49.97 165.07 49.96 165.19 49.96 165.22 49.96 165.25 49.97 165.34 49.99 165.36 50 165.38 50 165.39 50 165.43 50 165.44 50 165.45 50 165.46 49.99 165.49 49.98 165.5 49.98 165.54 49.98 165.55 49.98 165.56 49.98 165.58 49.99 165.62 50.01 165.63 50.01 165.64 50.01 165.69 50.01 165.83 50.03 165.98 50.03 165.99 50.01 166.01 50 166.02 49.99 166.04 49.98 166.07 49.98 166.1 49.97 166.15 49.96 166.17 49.96 166.18 49.97 166.19 49.97 166.2 49.98 166.23 50.02 166.24 50.04 166.24 50.05 166.25 50.05 166.27 50.05 166.28 50.05 166.29 50.06 166.29 50.08 166.3 50.11 166.3 50.12 166.31 50.12 166.32 50.12 166.35 50.12 166.37 50.12 166.39 50.13 166.4 50.13 166.42 50.14 166.43 50.15 166.44 50.16 166.45 50.17 166.46 50.18 166.46 50.2 166.45 50.22 166.45 50.23 166.45 50.24 166.47 50.25 166.48 50.26 166.5 50.28 166.53 50.31 166.54 50.32 166.54 50.33 166.53 50.34 166.53 50.34 166.52 50.34 166.5 50.34 166.47 50.34 166.46 50.34 166.45 50.34 166.44 50.34 166.43 50.36 166.42 50.37 166.44 50.38 166.44 50.39 166.44 50.4 166.43 50.41 166.42 50.41 166.42 50.41 166.41 50.43 166.39 50.44 166.38 50.45 166.38 50.47 166.39 50.47 166.42 50.47 166.43 50.48 166.43 50.49 166.43 50.5 166.43 50.52 166.43 50.53 166.42 50.55 166.41 50.55 166.4 50.56 166.39 50.56 166.37 50.55 166.36 50.55 166.35 50.57 166.33 50.58 166.32 50.59 166.32 50.59 166.32 50.6 166.32 50.62 166.32 50.65 166.32 50.66 166.32 50.66 166.31 50.67 166.3 50.67 166.29 50.66 166.28 50.66 166.27 50.67 166.26 50.67 166.26 50.69 166.28 50.72 166.28 50.73 166.3 50.75 166.32 50.77 166.33 50.77 166.33 50.79 166.32 50.79 166.3 50.8 166.3 50.8 166.27 50.8 166.26 50.81 166.25 50.82 166.24 50.86 166.24 50.87 166.25 50.9 166.26 50.91 166.31 50.93 166.32 50.94 166.34 50.97 166.36 51 166.38 51.02 166.4 51.05 166.4 51.06 166.41 51.06 166.42 51.07 166.43 51.04 166.44 51.04 166.45 51.03 166.45 51.02 166.46 51.02 166.47 51.01 166.48 51.01 166.49 51.01 166.5 51.04 166.51 51.06 166.52 51.06 166.53 51.05 166.54 51.05 166.56 51.05 166.57 51.05 166.57 51.06 166.58 51.07 166.58 51.1 166.57 51.1 166.56 51.11 166.56 51.12 166.56 51.14 166.57 51.16 166.58 51.17 166.59 51.18 166.6 51.19 166.62 51.2 166.65 51.2 166.65 51.21 166.66 51.22 166.66 51.23 166.66 51.25 166.67 51.26 166.67 51.26 166.68 51.27 166.73 51.3 166.75 51.31 166.77 51.32 166.79 51.34 166.8 51.35 166.8 51.36 166.8 51.38 166.8 51.39 166.79 51.39 166.77 51.39 166.74 51.39 166.73 51.39 166.72 51.4 166.74 51.43 166.75 51.44 166.76 51.45 166.77 51.45 166.8 51.43 166.8 51.42 166.81 51.41 166.82 51.41 166.83 51.41 166.84 51.42 166.85 51.43 166.86 51.43 166.86 51.44 166.86 51.46 166.86 51.46 166.86 51.48 166.84 51.5 166.84 51.5 166.84 51.52 166.85 51.53 166.86 51.54 166.87 51.55 166.87 51.55 166.88 51.55 166.9 51.56 166.93 51.57 166.94 51.57 166.94 51.57 166.97 51.56 166.97 51.55 167 51.51 167 51.51 167.01 51.51 167.01 51.52 167.02 51.56 167.01 51.57 167.01 51.58 167 51.59 167 51.6 167 51.61 167.01 51.61 167.02 51.61 167.03 51.61 167.04 51.61 167.06 51.61 167.07 51.61 167.08 51.6 167.09 51.6 167.12 51.6 167.13 51.6 167.14 51.61 167.14 51.62 167.14 51.62 167.14 51.64 167.14 51.67 167.14 51.69 167.21 51.69 167.22 51.69 167.23 51.69 167.24 51.69 167.24 51.7 167.23 51.73 167.23 51.74 167.23 51.75 167.24 51.75 167.24 51.76 167.25 51.77 167.26 51.77 167.27 51.77 167.28 51.77 167.3 51.76 167.31 51.76 167.34 51.76 167.35 51.75 167.36 51.75 167.37 51.75 167.38 51.75 167.39 51.76 167.43 51.8 167.44 51.8 167.46 51.8 167.47 51.8 167.45 51.78 167.45 51.76 167.44 51.74 167.45 51.74 167.47 51.75 167.47 51.75 167.48 51.76 167.49 51.78 167.5 51.81 167.51 51.81 167.52 51.81 167.53 51.81 167.53 51.81 167.54 51.8 167.54 51.79 167.54 51.77 167.54 51.76 167.55 51.74 167.55 51.73 167.57 51.72 167.58 51.72 167.6 51.71 167.6 51.71 167.61 51.7 167.62 51.69 167.63 51.69 167.64 51.69 167.66 51.69 167.7 51.69 167.73 51.7 167.73 51.7 167.75 51.71 167.76 51.72 167.76 51.74 167.77 51.78 167.78 51.78 167.79 51.79 167.8 51.79 167.86 51.73 167.87 51.73 167.89 51.73 167.91 51.73 167.92 51.73 167.93 51.74 167.96 51.75 167.99 51.77 168 51.78 168.02 51.79 168.03 51.8 168.04 51.81 168.06 51.81 168.09 51.81 168.11 51.81 168.12 51.81 168.12 51.81 168.19 51.85 168.2 51.85 168.21 51.86 168.24 51.82 168.25 51.81 168.26 51.8 168.27 51.79 168.28 51.77 168.29 51.77 168.32 51.74 168.35 51.72 168.36 51.71 168.36 51.7 168.37 51.7 168.4 51.67 168.41 51.67 168.42 51.66 168.46 51.66 168.49 51.66 168.52 51.66 168.58 51.67 168.68 51.67 168.73 51.67 168.77 51.67 168.8 51.67 168.8 51.66 168.81 51.66 168.82 51.66 168.83 51.66 168.85 51.65 168.87 51.64 168.91 51.63 168.94 51.62 169.07 51.61 169.12 51.61 169.19 51.62 169.21 51.62 169.29 51.64 169.32 51.65 169.35 51.67 169.38 51.67 169.4 51.68 169.44 51.68 169.5 51.68 169.56 51.68 169.6 51.68 169.66 51.68 169.74 51.68 169.78 51.69 169.82 51.69 169.83 51.68 169.85 51.68 169.85 51.67 169.86 51.66 169.88 51.64 169.89 51.63 169.89 51.62 169.91 51.62 169.92 51.63 169.92 51.63 169.93 51.64 169.93 51.64 169.94 51.65 169.95 51.66 169.97 51.66 169.98 51.67 170.06 51.67 170.08 51.67 170.09 51.68 170.11 51.69 170.12 51.69 170.14 51.7 170.23 51.7 170.27 51.69 170.36 51.69 170.44 51.7 170.47 51.7 170.52 51.71 170.54 51.72 170.59 51.74 170.61 51.74 170.62 51.75 170.63 51.76 170.64 51.77 170.67 51.79 170.69 51.8 170.72 51.81 170.74 51.81 170.79 51.84 170.8 51.84 170.95 51.89 170.96 51.88 170.97 51.88 170.98 51.88 170.99 51.89 171.02 51.9 171.05 51.92 171.05 51.93 171.07 51.93 171.1 51.95 171.12 51.95 171.16 51.95 171.3 51.95 171.32 51.95 171.38 51.95 171.41 51.95 171.47 51.95 171.57 51.95 171.6 51.95 171.66 51.95 171.69 51.95 171.79 51.92 171.83 51.92 171.85 51.92 171.88 51.91 171.9 51.9 171.92 51.89 171.95 51.87 171.99 51.85 172.02 51.83 172.03 51.81 172.05 51.79 172.05 51.78 172.06 51.77 172.06 51.76 172.07 51.75 172.1 51.72 172.11 51.7 172.13 51.67 172.15 51.65 172.16 51.62 172.17 51.6 172.2 51.57 172.23 51.54 172.26 51.52 172.31 51.49 172.32 51.48 172.33 51.46 172.35 51.45 172.35 51.44 172.37 51.41 172.39 51.34 172.4 51.33 172.41 51.31 172.43 51.29 172.45 51.28 172.48 51.24 172.5 51.22 172.5 51.21 172.51 51.18 172.51 51.16 172.52 51.16 172.54 51.15 172.55 51.13 172.56 51.12 172.57 51.11 172.57 51.1 172.58 51.09 172.6 51.08 172.61 51.08 172.62 51.07 172.62 51.06 172.62 51.05 172.63 51.05 172.65 51.03 172.67 51.02 172.68 51 172.7 50.97 172.7 50.95 172.71 50.93 172.71 50.9 172.71 50.85 172.72 50.84 172.72 50.83 172.74 50.83 172.74 50.83 172.75 50.84 172.76 50.84 172.77 50.85 172.79 50.88 172.79 50.89 172.82 50.92 172.83 50.92 172.84 50.92 172.85 50.91 172.88 50.9 172.9 50.89 172.92 50.88 172.94 50.87 172.98 50.85 173.01 50.84 173.02 50.84 173.04 50.84 173.05 50.85 173.05 50.85 173.06 50.86 173.06 50.88 173.06 50.89 173.08 50.92 173.09 50.93 173.11 50.94 173.12 50.95 173.14 50.95 173.17 50.95 173.19 50.95 173.22 50.95 173.26 50.94 173.33 50.93 173.34 50.93 173.36 50.92 173.38 50.92 173.4 50.92 173.42 50.93 173.42 50.94 173.43 50.95 173.46 50.98 173.48 50.99 173.49 51 173.51 51.02 173.52 51.03 173.55 51.06 173.56 51.07 173.56 51.08 173.57 51.09 173.57 51.11 173.58 51.12 173.58 51.13 173.61 51.15 173.64 51.17 Z"/>
</g></svg>