<svg xmlns="http://www.w3.org/2000/svg" version="1.2" baseProfile="tiny" stroke-linecap="round" stroke-linejoin="round" viewBox="519 341.97 46.28 59.77"><g xmlns="http://www.w3.org/2000/svg" id="Leotz">
<path d="M 565.28 350.97 565.26 350.97 565.25 350.96 565.23 350.96 565.21 350.96 565.2 350.96 565.18 350.96 565.17 350.95 565.15 350.95 565.13 350.95 565.11 350.95 565.1 350.95 565.08 350.95 565.06 350.95 565.04 350.94 565.03 350.94 565.01 350.94 565 350.94 564.98 350.94 564.96 350.94 564.94 350.94 564.93 350.94 564.91 350.94 564.89 350.95 564.87 350.95 564.86 350.95 564.84 350.95 564.82 350.95 564.8 350.95 564.78 350.96 564.76 350.96 564.75 350.96 564.73 350.97 564.71 350.97 564.7 350.98 564.68 350.98 564.66 350.98 564.64 350.99 564.53 351.03 564.52 351.04 564.51 351.04 564.49 351.05 564.48 351.05 564.47 351.06 564.44 351.07 564.42 351.08 564.4 351.09 564.39 351.1 564.37 351.11 564.36 351.11 564.35 351.12 564.34 351.13 564.33 351.15 564.31 351.16 564.3 351.17 564.29 351.18 564.28 351.19 564.26 351.2 564.24 351.22 564.23 351.23 564.22 351.24 564.21 351.25 564.2 351.26 564.18 351.27 564.17 351.28 564.16 351.29 564.15 351.3 564.14 351.32 564.13 351.33 564.12 351.34 564.1 351.35 564.09 351.37 564.08 351.37 564.07 351.38 564.04 351.4 564.02 351.41 564.01 351.42 564 351.43 563.99 351.44 563.98 351.46 563.97 351.47 563.96 351.49 563.96 351.5 563.95 351.51 563.95 351.52 563.94 351.54 563.94 351.56 563.93 351.57 563.93 351.59 563.92 351.61 563.9 351.62 563.89 351.64 563.88 351.65 563.87 351.66 563.85 351.67 563.84 351.68 563.81 351.7 563.8 351.71 563.78 351.73 563.77 351.74 563.75 351.75 563.74 351.76 563.7 351.79 563.69 351.8 563.66 351.82 563.63 351.85 563.62 351.86 563.61 351.87 563.6 351.88 563.58 351.89 563.57 351.9 563.56 351.92 563.55 351.93 563.54 351.95 563.53 351.95 563.52 351.96 563.5 351.97 563.49 351.97 563.46 351.98 563.45 351.99 563.43 352 563.42 352.01 563.41 352.02 563.4 352.04 563.39 352.05 563.37 352.06 563.36 352.07 563.33 352.1 563.32 352.11 563.31 352.12 563.29 352.13 563.28 352.15 563.27 352.16 563.26 352.17 563.25 352.19 563.21 352.23 563.2 352.24 563.19 352.25 563.18 352.27 563.17 352.28 563.16 352.29 563.15 352.3 563.13 352.31 563.11 352.33 563.09 352.34 563.08 352.36 563.07 352.37 563.06 352.38 563.05 352.39 563.04 352.4 563.02 352.42 563.01 352.43 563 352.45 562.99 352.46 562.98 352.48 562.97 352.49 562.96 352.5 562.95 352.52 562.94 352.54 562.93 352.56 562.93 352.58 562.93 352.59 562.93 352.61 562.92 352.63 562.92 352.63 562.91 352.65 562.9 352.66 562.89 352.68 562.88 352.69 562.85 352.73 562.84 352.74 562.83 352.75 562.83 352.77 562.82 352.79 562.81 352.79 562.81 352.81 562.8 352.83 562.79 352.84 562.79 352.86 562.79 352.88 562.79 352.9 562.79 352.92 562.79 352.94 562.79 352.97 562.79 352.99 562.79 353.01 562.79 353.02 562.78 353.03 562.77 353.05 562.76 353.07 562.76 353.08 562.75 353.1 562.75 353.11 562.73 353.15 562.73 353.16 562.72 353.19 562.71 353.21 562.7 353.23 562.7 353.24 562.69 353.26 562.68 353.28 562.67 353.32 562.66 353.33 562.66 353.35 562.64 353.4 562.63 353.41 562.62 353.43 562.62 353.45 562.6 353.48 562.6 353.5 562.59 353.52 562.57 353.55 562.56 353.59 562.56 353.6 562.53 353.67 562.52 353.7 562.51 353.72 562.51 353.74 562.5 353.74 562.49 353.78 562.47 353.83 562.45 353.88 562.43 353.92 562.42 353.94 562.41 353.95 562.4 353.97 562.4 353.98 562.39 354 562.38 354.02 562.38 354.03 562.37 354.05 562.37 354.07 562.36 354.08 562.36 354.09 562.35 354.13 562.34 354.14 562.34 354.16 562.33 354.18 562.32 354.21 562.32 354.23 562.31 354.24 562.31 354.25 562.31 354.26 562.3 354.27 562.3 354.28 562.29 354.31 562.29 354.32 562.28 354.34 562.28 354.35 562.27 354.37 562.26 354.38 562.26 354.4 562.25 354.42 562.25 354.43 562.24 354.45 562.24 354.46 562.23 354.47 562.23 354.5 562.22 354.51 562.22 354.54 562.22 354.56 562.21 354.58 562.21 354.6 562.21 354.62 562.2 354.64 562.2 354.65 562.2 354.66 562.2 354.68 562.2 354.71 562.2 354.73 562.2 354.75 562.2 354.76 562.2 354.77 562.19 354.79 562.19 354.81 562.18 354.83 562.18 354.84 562.18 354.86 562.18 354.87 562.17 354.91 562.17 354.93 562.16 354.94 562.16 354.96 562.16 354.97 562.15 354.99 562.15 355.01 562.14 355.02 562.14 355.03 562.14 355.04 562.14 355.05 562.14 355.07 562.14 355.09 562.14 355.1 562.14 355.1 562.14 355.11 562.14 355.13 562.14 355.15 562.14 355.17 562.14 355.18 562.14 355.2 562.13 355.22 562.13 355.24 562.12 355.25 562.12 355.27 562.11 355.29 562.1 355.31 562.1 355.33 562.1 355.34 562.09 355.36 562.1 355.38 562.1 355.4 562.1 355.41 562.1 355.43 562.1 355.49 562.1 355.51 562.1 355.55 562.1 355.56 562.1 355.58 562.1 355.67 562.1 355.68 562.1 355.7 562.1 355.72 562.1 355.73 562.1 355.75 562.1 355.77 562.1 355.79 562.1 355.81 562.1 355.82 562.11 355.84 562.11 355.86 562.11 355.88 562.11 355.89 562.11 355.91 562.12 355.92 562.12 355.94 562.12 355.96 562.12 355.98 562.13 355.99 562.13 356.01 562.13 356.03 562.13 356.03 562.13 356.05 562.13 356.06 562.13 356.08 562.13 356.1 562.12 356.12 562.12 356.14 562.12 356.15 562.11 356.17 562.1 356.19 562.1 356.2 562.09 356.21 562.09 356.23 562.08 356.25 562.07 356.26 562.06 356.28 562.05 356.29 562.04 356.31 562.03 356.32 562.02 356.34 562.01 356.35 562 356.37 561.98 356.39 561.97 356.41 561.96 356.43 561.93 356.47 561.92 356.49 561.89 356.52 561.88 356.53 561.87 356.54 561.86 356.56 561.85 356.57 561.85 356.59 561.83 356.62 561.82 356.63 561.81 356.65 561.81 356.65 561.8 356.66 561.79 356.66 561.78 356.67 561.76 356.68 561.76 356.69 561.75 356.7 561.73 356.71 561.72 356.72 561.7 356.73 561.68 356.74 561.67 356.75 561.66 356.76 561.64 356.77 561.63 356.78 561.62 356.79 561.6 356.8 561.59 356.81 561.58 356.83 561.56 356.84 561.56 356.85 561.55 356.87 561.54 356.88 561.52 356.9 561.51 356.91 561.5 356.92 561.48 356.95 561.47 356.96 561.46 356.97 561.45 356.99 561.43 357.01 561.43 357.01 561.42 357.03 561.41 357.04 561.39 357.05 561.38 357.07 561.37 357.08 561.36 357.1 561.35 357.11 561.33 357.12 561.32 357.13 561.31 357.14 561.3 357.15 561.28 357.16 561.27 357.17 561.25 357.17 561.24 357.18 561.22 357.18 561.2 357.19 561.18 357.19 561.17 357.2 561.16 357.21 561.15 357.22 561.13 357.23 561.12 357.25 561.11 357.26 561.1 357.28 561.09 357.3 561.08 357.31 561.07 357.32 560.95 357.48 560.89 357.53 560.87 357.55 560.91 357.6 560.92 357.62 560.94 357.65 560.94 357.68 560.94 357.79 560.95 357.84 560.95 357.87 560.96 357.94 560.96 357.97 560.96 358.02 560.96 358.05 560.97 358.07 561.15 358.29 561.25 358.41 561.31 358.5 561.4 358.63 561.44 358.71 561.5 358.82 561.52 358.86 561.59 359.04 561.66 359.24 561.7 359.6 561.72 359.7 561.74 359.76 561.76 359.79 561.8 359.86 561.83 359.94 561.86 360.03 561.88 360.14 561.89 360.25 561.9 360.28 561.91 360.32 561.91 360.34 561.91 360.38 561.93 360.41 561.95 360.46 561.99 360.53 562.02 360.69 562.03 360.78 562.03 360.85 562.03 360.93 562.02 361 562.01 361.07 561.99 361.16 561.96 361.27 561.9 361.43 561.88 361.49 561.86 361.53 561.76 361.72 561.67 361.88 561.6 362.01 561.56 362.08 561.52 362.16 561.47 362.23 561.43 362.31 561.39 362.37 561.36 362.44 561.34 362.48 561.3 362.56 561.27 362.62 561.25 362.68 561.25 362.69 561.24 362.71 561.24 362.74 561.23 362.77 561.22 362.83 561.2 362.92 561.19 363.02 561.18 363.11 561.17 363.2 561.16 363.3 561.15 363.44 561.14 363.55 561.14 363.62 561.13 363.66 561.13 363.71 561.12 363.76 561.12 363.8 561.12 363.84 561.11 363.89 561.12 363.93 561.12 363.99 561.12 364.01 561.12 364.07 561.11 364.11 561.11 364.16 561.1 364.21 561.09 364.26 561.09 364.3 561.09 364.33 561.08 364.35 561.08 364.37 561.08 364.4 561.07 364.42 561.06 364.44 561.05 364.47 561.04 364.5 561.04 364.54 561.04 364.59 561.04 364.64 561.04 364.66 561.04 364.71 561.05 364.76 561.06 364.79 561.06 364.82 561.07 364.86 561.07 364.9 561.07 364.92 561.06 364.95 561.06 364.97 561.05 364.99 561.05 365.02 561.04 365.05 561.03 365.09 561.02 365.13 561.01 365.17 561 365.2 560.98 365.23 560.97 365.26 560.97 365.27 560.97 365.28 560.97 365.32 560.98 365.38 560.99 365.54 561 365.69 561.01 365.79 561.01 365.84 561.01 365.91 561.01 365.97 561.01 366.01 561 366.05 560.93 366.24 560.85 366.51 560.79 366.69 560.77 366.71 560.69 366.8 560.64 366.97 560.61 367.08 560.59 367.14 560.59 367.15 560.59 367.18 560.58 367.21 560.58 367.24 560.58 367.27 560.58 367.3 560.58 367.34 560.58 367.4 560.58 367.44 560.59 367.49 560.59 367.52 560.58 367.56 560.58 367.62 560.58 367.66 560.58 367.73 560.58 367.78 560.57 367.83 560.57 367.88 560.57 367.92 560.57 367.97 560.56 368.02 560.56 368.05 560.56 368.08 560.56 368.1 560.56 368.12 560.55 368.15 560.55 368.19 560.55 368.22 560.55 368.24 560.55 368.26 560.55 368.28 560.56 368.32 560.56 368.35 560.56 368.38 560.56 368.42 560.56 368.45 560.55 368.51 560.54 368.54 560.54 368.58 560.54 368.6 560.53 368.62 560.53 368.63 560.52 368.64 560.52 368.64 560.51 368.65 560.5 368.65 560.49 368.66 560.48 368.68 560.47 368.71 560.45 368.75 560.43 368.79 560.41 368.82 560.4 368.83 560.4 368.84 560.39 368.86 560.38 368.88 560.37 368.92 560.37 368.95 560.36 368.98 560.36 368.99 560.35 369.01 560.33 369.02 560.32 369.04 560.31 369.06 560.31 369.08 560.3 369.11 560.3 369.14 560.3 369.16 560.3 369.21 560.3 369.22 560.3 369.26 560.3 369.31 560.3 369.36 560.32 369.42 560.32 369.47 560.33 369.52 560.34 369.54 560.35 369.59 560.37 369.62 560.39 369.65 560.4 369.7 560.4 369.71 560.4 369.73 560.39 369.73 560.38 369.74 560.36 369.74 560.35 369.75 560.35 369.76 560.34 369.76 560.34 369.78 560.34 369.81 560.33 369.83 560.33 369.87 560.33 369.91 560.33 369.95 560.34 369.98 560.34 370.02 560.35 370.05 560.35 370.09 560.35 370.12 560.35 370.15 560.34 370.18 560.34 370.22 560.33 370.24 560.33 370.25 560.32 370.28 560.31 370.32 560.3 370.34 560.29 370.37 560.27 370.4 560.25 370.42 560.24 370.45 560.23 370.48 560.21 370.52 560.21 370.53 560.19 370.56 560.17 370.6 560.15 370.64 560.12 370.68 560.1 370.72 560.08 370.74 560.06 370.77 560.03 370.8 559.99 370.86 559.96 370.9 559.93 370.95 559.9 371.01 559.87 371.09 559.85 371.13 559.83 371.18 559.81 371.24 559.81 371.26 559.8 371.29 559.81 371.32 559.81 371.33 559.81 371.38 559.81 371.41 559.81 371.42 559.83 371.47 559.84 371.51 559.86 371.58 559.88 371.64 559.88 371.65 559.93 371.77 559.95 371.81 559.97 371.85 559.98 371.91 559.99 371.96 560 372.03 560.01 372.11 560.01 372.17 560.01 372.22 560.01 372.26 560.01 372.29 560 372.32 560 372.35 559.99 372.39 559.99 372.43 559.98 372.46 559.99 372.49 559.99 372.53 559.99 372.56 560 372.58 560 372.6 559.97 372.59 559.96 372.59 559.94 372.6 559.93 372.61 559.89 372.64 559.86 372.68 559.82 372.74 559.79 372.78 559.73 372.84 559.68 372.87 559.67 372.87 559.6 372.93 559.55 372.98 559.51 373.03 559.5 373.07 559.5 373.12 559.5 373.22 559.51 373.3 559.53 373.36 559.53 373.4 559.53 373.45 559.53 373.52 559.53 373.58 559.53 373.61 559.52 373.68 559.51 373.72 559.51 373.77 559.51 373.85 559.52 373.91 559.52 373.93 559.53 373.98 559.54 374.02 559.54 374.07 559.55 374.14 559.55 374.17 559.55 374.2 559.54 374.28 559.54 374.33 559.53 374.38 559.51 374.42 559.49 374.43 559.45 374.47 559.38 374.52 559.3 374.58 559.25 374.63 559.18 374.7 559.14 374.74 559.12 374.76 559.06 374.81 559.02 374.87 558.99 374.9 558.92 374.99 558.9 375 558.87 375.04 558.82 375.1 558.77 375.17 558.72 375.25 558.7 375.27 558.63 375.39 558.57 375.5 558.52 375.59 558.49 375.63 558.47 375.67 558.44 375.71 558.39 375.75 558.34 375.8 558.2 375.89 558.17 375.92 558.15 375.93 558.13 375.94 558.06 375.98 558.03 376.01 558.01 376.02 557.98 376.07 557.96 376.1 557.88 376.23 557.83 376.31 557.77 376.41 557.75 376.45 557.74 376.47 557.73 376.51 557.68 376.59 557.64 376.66 557.63 376.68 557.55 376.8 557.49 376.91 557.42 377 557.39 377.05 557.33 377.14 557.26 377.26 557.21 377.33 557.18 377.37 557.15 377.41 557.1 377.45 557.07 377.49 557.03 377.54 556.99 377.6 556.97 377.64 556.94 377.7 556.92 377.75 556.91 377.8 556.9 377.83 556.9 377.86 556.9 377.88 556.9 377.91 556.9 377.94 556.91 377.99 556.92 378.04 556.92 378.08 556.92 378.12 556.93 378.16 556.93 378.21 556.93 378.25 556.94 378.27 556.94 378.3 556.94 378.35 556.94 378.46 556.93 378.55 556.93 378.65 556.93 378.69 556.93 378.74 556.92 378.85 556.91 378.93 556.91 379.03 556.91 379.09 556.9 379.16 556.89 379.23 556.89 379.32 556.89 379.46 556.9 379.49 556.91 379.59 556.91 379.67 556.89 379.74 556.89 379.81 556.87 379.88 556.87 379.89 556.85 379.99 556.82 380.11 556.8 380.18 556.78 380.22 556.77 380.23 556.74 380.25 556.7 380.29 556.62 380.38 556.52 380.49 556.49 380.51 556.47 380.54 556.46 380.55 556.44 380.57 556.32 380.68 556.27 380.72 556.27 380.73 556.2 380.77 556.13 380.79 556.02 380.82 555.92 380.85 555.86 380.86 555.76 380.88 555.72 380.9 555.6 380.92 555.58 380.94 555.55 380.96 555.54 380.97 555.51 381 555.46 381.06 555.39 381.13 555.37 381.15 555.36 381.16 555.28 381.25 555.2 381.32 555.17 381.35 555.15 381.37 555.08 381.42 555.05 381.46 554.98 381.52 554.91 381.59 554.87 381.63 554.85 381.64 554.81 381.68 554.7 381.76 554.66 381.8 554.64 381.82 554.62 381.84 554.57 381.89 554.51 381.97 554.44 381.98 554.32 382 554.26 382 554.22 382.01 554.15 382.04 554.04 382.09 553.95 382.14 553.91 382.17 553.89 382.19 553.86 382.22 553.83 382.26 553.81 382.29 553.79 382.33 553.77 382.38 553.77 382.41 553.76 382.42 553.75 382.47 553.73 382.53 553.69 382.59 553.65 382.64 553.61 382.68 553.54 382.73 553.51 382.76 553.51 382.76 553.49 382.79 553.46 382.82 553.45 382.86 553.44 382.88 553.44 382.88 553.44 382.92 553.44 382.96 553.44 383 553.43 383.03 553.43 383.05 553.43 383.05 553.42 383.07 553.4 383.1 553.33 383.21 553.3 383.24 553.27 383.3 553.23 383.35 553.2 383.4 553.12 383.52 553.05 383.64 553.01 383.71 552.96 383.79 552.93 383.88 552.89 383.98 552.87 384.06 552.85 384.1 552.85 384.14 552.83 384.21 552.82 384.3 552.81 384.34 552.78 384.48 552.76 384.57 552.75 384.57 552.75 384.6 552.75 384.64 552.75 384.68 552.75 384.74 552.78 384.86 552.79 384.88 552.81 384.98 552.87 385.18 552.91 385.3 552.93 385.37 552.96 385.46 552.99 385.55 553 385.56 553 385.57 553.01 385.58 553.07 385.69 552.98 385.79 553 385.89 553.02 386.02 553.02 386.04 552.87 386.13 552.86 386.16 552.84 386.25 552.83 386.28 552.82 386.35 552.8 386.41 552.79 386.44 552.78 386.47 552.78 386.51 552.78 386.54 552.78 386.56 552.78 386.59 552.79 386.61 552.79 386.65 552.81 386.7 552.82 386.75 552.84 386.83 552.87 386.9 552.88 386.96 552.88 386.99 552.89 387 552.89 387.04 552.89 387.09 552.89 387.1 552.89 387.16 552.89 387.21 552.89 387.26 552.89 387.34 552.89 387.4 552.89 387.45 552.88 387.51 552.88 387.54 552.88 387.57 552.88 387.6 552.88 387.62 552.86 387.71 552.85 387.8 552.84 387.83 552.82 387.9 552.79 387.97 552.77 388.04 552.75 388.09 552.72 388.13 552.72 388.15 552.71 388.19 552.7 388.21 552.7 388.24 552.69 388.27 552.68 388.3 552.68 388.32 552.68 388.34 552.73 388.5 552.65 388.59 552.62 388.62 552.61 388.64 552.56 388.69 552.55 388.7 552.54 388.72 552.51 388.76 552.49 388.79 552.45 388.83 552.44 388.84 552.39 388.89 552.33 388.95 552.3 388.98 552.27 389 552.23 389.03 552.22 389.05 552.14 389.11 552.11 389.14 552.09 389.16 552.07 389.19 552.04 389.22 552.02 389.23 552 389.24 551.99 389.26 551.98 389.29 551.96 389.32 551.95 389.34 551.95 389.35 551.94 389.38 551.92 389.45 551.92 389.46 551.9 389.49 551.88 389.54 551.88 389.55 551.87 389.57 551.85 389.6 551.84 389.63 551.81 389.69 551.78 389.74 551.76 389.77 551.76 389.78 551.72 389.82 551.67 389.9 551.63 389.95 551.56 390.04 551.49 390.12 551.48 390.12 551.47 390.14 551.43 390.2 551.42 390.22 551.38 390.32 551.36 390.37 551.35 390.4 551.34 390.44 551.32 390.48 551.31 390.51 551.29 390.57 551.2 390.57 551.17 390.57 551.01 390.56 550.8 390.55 550.47 390.54 550.4 390.53 550.34 390.53 550.33 390.53 550.27 390.52 550.24 390.52 550.17 390.51 550.12 390.51 550.08 390.5 550.04 390.5 550 390.5 549.96 390.5 549.93 390.49 549.87 390.49 549.82 390.49 549.78 390.49 549.73 390.49 549.65 390.49 549.59 390.48 549.56 390.48 549.5 390.48 549.42 390.48 549.29 390.48 549.15 390.48 549.03 390.47 549.01 390.47 549 390.47 548.91 390.46 548.81 390.46 548.78 390.46 548.61 390.45 548.56 390.45 548.48 390.45 548.45 390.44 548.41 390.44 548.41 390.39 548.4 390.27 548.39 390.18 548.38 390.04 548.35 389.92 548.33 389.83 548.28 389.69 548.26 389.65 548.24 389.6 548.23 389.58 548.22 389.54 548.19 389.5 548.18 389.47 548.15 389.39 548.12 389.32 548.1 389.24 548.08 389.18 548.08 389.15 548.07 389.11 548.06 389.06 548 389.07 547.92 389.07 547.85 389.08 547.78 389.08 547.72 389.09 547.7 389.1 547.62 389.15 547.52 389.21 547.47 389.24 547.46 389.24 547.41 389.26 547.28 389.33 547.19 389.37 547.07 389.43 546.94 389.5 546.79 389.59 546.68 389.65 546.61 389.7 546.6 389.71 546.58 389.73 546.56 389.72 546.4 389.67 546.26 389.62 546.11 389.56 546.01 389.53 545.96 389.51 545.93 389.5 545.86 389.52 545.74 389.56 545.65 389.6 545.53 389.66 545.34 389.76 545.29 389.79 545.15 389.78 545.11 389.78 545.09 389.78 544.98 389.77 544.85 389.75 544.83 389.75 544.63 389.71 544.58 389.71 544.47 389.69 544.28 389.67 544.13 389.65 543.98 389.64 543.96 389.64 543.83 389.62 543.73 389.61 543.67 389.62 543.66 389.63 543.56 389.64 543.48 389.64 543.39 389.65 543.31 389.65 543.25 389.67 543.23 389.67 543.17 389.69 543.12 389.7 543.1 389.71 543.05 389.73 542.98 389.75 542.92 389.78 542.87 389.8 542.83 389.81 542.83 389.81 542.82 389.81 542.75 389.83 542.69 389.84 542.62 389.86 542.58 389.87 542.49 389.85 542.47 389.84 542.39 389.83 542.3 389.82 542.21 389.81 542.11 389.8 542.03 389.8 542.02 389.8 541.95 389.8 541.92 389.86 541.88 389.93 541.87 389.96 541.85 389.99 541.84 390.01 541.79 390.08 541.75 390.15 541.65 390.29 541.53 390.43 541.49 390.48 541.44 390.51 541.42 390.52 541.4 390.53 541.38 390.54 541.35 390.55 541.32 390.57 541.27 390.59 541.24 390.61 541.22 390.62 541.19 390.63 541.18 390.63 541.16 390.64 541.15 390.64 541.11 390.65 541.06 390.7 541.02 390.76 540.99 390.79 540.92 390.86 540.87 390.92 540.81 391 540.78 391.03 540.74 391.08 540.69 391.08 540.66 391.08 540.54 391.1 540.44 391.11 540.4 391.11 540.39 391.12 540.37 391.12 540.32 391.12 540.25 391.14 540.19 391.16 540.11 391.18 540.04 391.2 539.98 391.22 539.92 391.23 539.84 391.26 539.83 391.27 539.81 391.28 539.77 391.3 539.75 391.31 539.74 391.32 539.72 391.34 539.7 391.37 539.67 391.42 539.64 391.45 539.57 391.5 539.47 391.56 539.38 391.62 539.28 391.68 539.19 391.75 539.12 391.81 539.04 391.87 539 391.9 538.97 391.92 538.93 391.94 538.9 391.96 538.86 391.98 538.84 392 538.81 392.02 538.77 392.05 538.73 392.09 538.69 392.13 538.67 392.15 538.62 392.2 538.58 392.22 538.56 392.23 538.54 392.23 538.49 392.24 538.46 392.24 538.41 392.24 538.37 392.24 538.36 392.24 538.32 392.25 538.26 392.26 538.22 392.27 538.17 392.29 538.15 392.3 538.09 392.33 538.04 392.36 538.02 392.37 537.98 392.39 537.92 392.44 537.89 392.47 537.86 392.48 537.86 392.49 537.83 392.51 537.82 392.52 537.78 392.55 537.74 392.59 537.68 392.64 537.67 392.66 537.64 392.69 537.62 392.71 537.61 392.73 537.59 392.75 537.57 392.76 537.55 392.77 537.54 392.77 537.53 392.77 537.52 392.77 537.5 392.78 537.47 392.79 537.4 392.82 537.31 392.87 537.28 392.89 537.26 392.9 537.23 392.91 537.17 392.95 537.13 392.97 537.09 392.99 537.05 393.01 537.02 393.02 537.01 393.02 537 393.03 536.91 393.06 536.83 393.07 536.74 393.07 536.65 393.06 536.55 393.05 536.47 393.03 536.45 393.03 536.42 393.02 536.4 393.01 536.33 392.99 536.28 392.97 536.27 392.97 536.24 392.95 536.19 392.93 536.18 392.92 536.15 392.92 536.06 392.91 535.95 392.9 535.84 392.89 535.77 392.88 535.76 392.88 535.71 392.88 535.62 392.92 535.51 392.98 535.48 393 535.39 393.05 535.29 393.11 535.2 393.17 535.14 393.22 535.13 393.22 535.1 393.25 535.07 393.27 535.02 393.32 534.95 393.39 534.89 393.45 534.88 393.45 534.83 393.5 534.81 393.52 534.77 393.55 534.75 393.57 534.7 393.62 534.61 393.71 534.6 393.72 534.54 393.78 534.48 393.84 534.46 393.85 534.44 393.87 534.41 393.89 534.38 393.91 534.32 393.93 534.3 393.95 534.25 393.96 534.21 393.98 534.18 393.99 534.12 394.02 534.09 394.03 534.07 394.04 534.01 394.06 534 394.07 533.98 394.08 533.94 394.1 533.9 394.12 533.88 394.12 533.83 394.14 533.8 394.15 533.75 394.16 533.66 394.18 533.57 394.2 533.49 394.22 533.43 394.24 533.38 394.25 533.35 394.26 533.33 394.27 533.28 394.29 533.25 394.3 533.21 394.32 533.19 394.32 533.17 394.33 533.16 394.34 533.14 394.35 533.09 394.38 533.01 394.42 532.92 394.46 532.84 394.5 532.82 394.51 532.77 394.53 532.73 394.55 532.7 394.56 532.66 394.58 532.62 394.6 532.57 394.62 532.5 394.66 532.46 394.69 532.43 394.7 532.39 394.73 532.35 394.77 532.29 394.81 532.25 394.86 532.22 394.89 532.18 394.93 532.15 394.96 532.12 395.01 532.08 395.04 531.98 395.15 531.96 395.17 531.94 395.18 531.79 395.37 531.78 395.38 531.77 395.44 531.76 395.49 531.73 395.54 531.66 395.67 531.62 395.8 531.62 395.84 531.62 395.89 531.63 395.96 531.64 396.01 531.64 396.05 531.64 396.08 531.62 396.15 531.58 396.21 531.53 396.28 531.48 396.35 531.46 396.38 531.34 396.45 531.32 396.46 531.29 396.48 531.24 396.5 531.13 396.56 531.03 396.61 531.01 396.62 531 396.62 530.99 396.64 530.98 396.66 530.98 396.67 530.98 396.69 530.99 396.71 531.02 396.77 531.07 396.89 531.08 396.93 531.09 396.95 531.11 397.01 531.12 397.06 531.15 397.2 531.18 397.36 531.21 397.48 531.07 397.54 531 397.55 530.93 397.58 530.85 397.62 530.73 397.67 530.58 397.71 530.43 397.74 530.33 397.76 530.25 397.78 530.15 397.83 530.07 397.88 529.97 397.95 529.84 398.05 529.73 398.17 529.62 398.3 529.55 398.4 529.48 398.5 529.46 398.52 529.38 398.66 529.36 398.7 529.35 398.73 529.31 398.8 529.3 398.81 529.29 398.84 529.24 398.95 529.21 399.07 529.19 399.12 529.16 399.26 529.16 399.29 529.16 399.31 529.14 399.37 529.1 399.51 529.08 399.56 529.05 399.69 529.04 399.71 529.04 399.72 529.03 399.74 529.03 399.75 529.03 399.8 529.03 399.81 529.03 399.87 529.03 399.89 529.03 399.92 529.03 399.94 529.03 400 529.03 400.02 529.02 400.04 529.01 400.06 528.98 400.11 528.97 400.15 528.97 400.19 528.96 400.23 528.95 400.3 528.94 400.34 528.94 400.38 528.94 400.46 528.93 400.56 528.93 400.58 528.93 400.6 528.93 400.61 528.93 400.62 528.93 400.65 528.93 400.72 528.93 400.73 528.92 400.77 528.91 400.84 528.9 400.88 527.72 400.7 527.57 400.74 527.55 400.75 527.14 400.88 527.1 400.89 527.04 400.91 526.68 400.96 526.65 400.97 526.4 401.01 526.09 401.19 526.06 401.2 525.6 401.46 525.44 401.55 525.38 401.59 525.2 401.61 525.17 401.62 524.87 401.66 524.79 401.68 524.74 401.68 524.69 401.69 524.64 401.7 524.61 401.61 524.55 401.41 524.54 401.37 524.54 401.36 524.34 400.67 524.34 400.65 524.33 400.61 524.22 400.26 524.13 399.94 524.11 399.87 524.09 399.81 524.08 399.78 524.05 399.68 524.05 399.67 524.05 399.66 524.04 399.65 524.03 399.6 524.02 399.59 524.02 399.58 524.02 399.57 524.01 399.55 524 399.53 523.99 399.49 523.98 399.46 523.98 399.45 523.97 399.44 523.97 399.43 523.96 399.41 523.96 399.4 523.96 399.39 523.95 399.37 523.94 399.36 523.93 399.31 523.9 399.24 523.87 399.18 523.87 399.18 523.87 399.16 523.87 399.14 523.87 399.12 523.87 399.09 523.87 399.08 523.87 399.06 523.86 399.03 523.86 399.02 523.86 398.98 523.86 398.97 523.86 398.95 523.85 398.93 523.85 398.92 523.85 398.9 523.85 398.88 523.85 398.86 523.85 398.85 523.85 398.84 523.84 398.8 523.84 398.79 523.84 398.77 523.84 398.75 523.84 398.74 523.84 398.72 523.83 398.71 523.83 398.67 523.83 398.63 523.83 398.56 523.83 398.52 523.83 398.51 523.83 398.5 523.83 398.48 523.83 398.46 523.82 398.45 523.82 398.43 523.82 398.41 523.82 398.39 523.82 398.37 523.82 398.36 523.82 398.32 523.82 398.27 523.82 398.24 523.82 398.22 523.82 398.21 523.82 398.17 523.82 398.14 523.82 398.13 523.82 398.11 523.82 398.09 523.82 398.05 523.81 398.02 523.81 398 523.81 397.98 523.81 397.94 523.81 397.9 523.81 397.88 523.81 397.87 523.81 397.85 523.81 397.84 523.81 397.82 523.81 397.8 523.81 397.77 523.81 397.76 523.8 397.75 523.82 397.68 523.83 397.64 523.83 397.62 523.84 397.59 523.84 397.58 523.84 397.57 523.85 397.51 523.86 397.48 523.87 397.45 523.87 397.43 523.88 397.41 523.9 397.31 523.92 397.21 523.94 397.09 523.95 397.03 523.98 396.88 523.99 396.85 523.99 396.83 524 396.82 524 396.79 524.01 396.78 524.01 396.76 524.02 396.74 524.02 396.73 524.03 396.72 524.03 396.69 524.05 396.65 524.05 396.64 524.06 396.62 524.08 396.57 524.08 396.57 524.09 396.56 524.09 396.54 524.12 396.48 524.13 396.45 524.16 396.41 524.19 396.36 524.23 396.32 524.27 396.25 524.32 396.18 524.33 396.17 524.33 396.16 524.35 396.13 524.34 396.05 524.34 396.02 524.32 395.82 524.29 395.54 524.29 395.53 524.28 395.52 524.28 395.5 524.28 395.48 524.28 395.47 524.27 395.37 524.22 395.15 524.21 395.09 524.21 395.03 524.19 394.94 524.18 394.9 524.17 394.87 524.15 394.8 524.14 394.78 524.09 394.64 524.05 394.52 524.01 394.39 523.96 394.26 523.9 394.08 523.87 394.02 523.71 393.74 523.6 393.43 523.49 392.81 523.47 392.69 523.46 392.67 523.44 392.57 523.43 392.52 523.43 392.5 523.43 392.46 523.42 392.41 523.41 392.31 523.41 392.27 523.41 392.22 523.4 392.14 523.39 392.06 523.39 392.02 523.39 391.99 523.37 391.85 523.36 391.76 523.35 391.7 523.34 391.59 523.34 391.54 523.34 391.53 523.33 391.48 523.33 391.47 523.31 391.27 523.32 391.23 523.32 391.19 523.33 391.03 523.35 390.76 523.36 390.74 523.37 390.58 523.38 390.38 523.4 390.31 523.39 390.29 523.4 390.24 523.4 390.23 523.43 390.11 523.43 390.1 523.43 390.08 523.46 389.97 523.48 389.85 523.48 389.83 523.48 389.81 523.51 389.69 523.55 389.62 523.75 389.3 523.83 389.28 523.85 389.27 523.89 389.26 523.99 389.24 524.01 389.22 524.22 389.04 524.23 389.04 524.36 388.93 524.57 388.58 524.68 388.23 524.75 388.01 524.76 387.97 524.84 387.8 524.96 387.53 525.06 387.3 524.87 387.01 524.67 386.88 524.66 386.87 524.6 386.83 524.57 386.82 524.49 386.78 524.46 386.75 524.37 386.71 524.27 386.67 524.2 386.64 524.18 386.62 524.03 386.48 523.97 386.43 523.97 386.41 523.96 386.4 523.96 386.38 523.96 386.37 523.95 386.35 523.92 386.23 523.96 386.11 524.09 385.85 524.18 385.8 524.3 385.64 524.41 385.5 524.5 385.41 524.63 385.28 524.66 385.24 524.7 385.19 524.72 385.18 524.9 384.98 525.09 384.78 525.29 384.52 525.31 384.5 525.49 384.26 525.5 384.25 525.55 384.18 525.62 384.09 525.65 384.04 525.69 383.97 525.73 383.92 525.73 383.91 525.88 383.69 526.02 383.47 526.03 383.45 526.1 383.36 526.18 383.25 526.22 383.2 526.22 383.19 526.26 383.13 526.26 383.13 526.27 383.12 526.3 383.06 526.34 383 526.34 382.99 526.39 382.91 526.4 382.9 526.5 382.7 526.57 382.59 526.59 382.51 526.64 382.46 526.73 382.35 526.77 382.31 526.81 382.25 526.93 382.11 526.94 382.11 527.01 382.02 527.09 381.93 527.16 381.83 527.3 381.63 527.26 381.59 527.24 381.57 527.22 381.56 527.18 381.54 527.16 381.53 527.14 381.46 527.13 381.45 527.11 381.43 526.95 381.23 526.94 381.22 526.88 381.16 526.88 381.15 526.75 381.02 526.56 380.8 526.55 380.79 526.39 380.61 526.35 380.56 526.34 380.55 526.31 380.51 526.18 380.49 525.65 380.4 525.51 380.38 525.08 380.85 524.97 380.97 524.92 381.05 524.88 381.09 524.87 381.1 524.81 381.17 524.72 381.3 524.71 381.31 524.71 381.31 524.7 381.32 524.25 381.46 524.1 381.52 524.06 381.51 523.9 381.49 523.78 381.47 523.55 381.44 523.46 381.46 523.28 381.52 523.08 381.58 523.08 381.58 523.04 381.6 522.99 381.61 522.97 381.6 522.95 381.59 522.91 381.56 522.79 381.47 522.76 381.44 522.69 381.38 522.67 381.37 522.62 381.33 522.45 381.19 522.44 381.19 522.43 381.17 522.34 381.1 522.32 381.09 522.05 380.98 522.04 380.97 522.03 380.97 521.68 380.82 521.66 380.8 521.46 380.72 521.38 380.68 521.36 380.67 521.29 380.64 521.28 380.64 521.03 380.54 520.77 380.44 520.76 380.43 520.7 380.41 520.69 380.41 520.56 380.36 520.55 380.35 520.21 380.21 520.21 380.21 519.99 380.14 519.95 380.13 519.73 380.06 519.58 380.02 519.55 380.02 519.5 380.02 519.42 379.95 519.34 379.65 519.25 379.33 519.24 379.3 519.21 379.2 519.14 378.97 519.09 378.82 519.07 378.76 519.05 378.7 519.02 378.59 519.04 378.38 519.06 378.22 519.06 378.19 519.07 378.17 519.08 378.05 519.11 377.77 519.13 377.68 519.13 377.67 519.14 377.56 519.16 377.44 519.25 377.14 519.44 376.76 519.49 376.7 519.63 376.54 519.78 376.35 519.85 376.27 519.86 376.25 519.87 376.24 519.89 376.23 519.93 376.19 519.96 376.16 520.03 376.09 520.04 376.08 519.99 376.08 519.88 376.08 519.74 376.07 519.64 376.06 519.63 376.06 519.62 376.06 519.5 376.04 519.51 376.03 519.52 376.01 519.52 376 519.54 375.99 519.55 375.97 519.56 375.95 519.57 375.93 519.57 375.91 519.57 375.9 519.58 375.89 519.58 375.87 519.57 375.86 519.57 375.84 519.57 375.82 519.57 375.8 519.57 375.78 519.57 375.78 519.58 375.77 519.59 375.76 519.61 375.75 519.63 375.74 519.64 375.73 519.66 375.72 519.67 375.7 519.68 375.69 519.7 375.68 519.7 375.67 519.73 375.64 519.74 375.63 519.75 375.61 519.75 375.6 519.75 375.58 519.75 375.57 519.74 375.56 519.74 375.54 519.73 375.53 519.72 375.51 519.71 375.5 519.71 375.49 519.69 375.48 519.68 375.46 519.67 375.45 519.66 375.43 519.65 375.41 519.65 375.4 519.65 375.36 519.65 375.35 519.65 375.34 519.65 375.32 519.65 375.3 519.65 375.28 519.65 375.27 519.66 375.24 519.66 375.22 519.67 375.18 519.68 375.17 519.69 375.14 519.7 375.12 519.7 375.11 519.71 375.1 519.72 375.1 519.74 375.09 519.76 375.08 519.77 375.08 519.78 375.07 519.79 375.06 519.8 375.05 519.83 375.05 519.84 375.05 519.85 375.05 519.87 375.04 519.89 375.04 519.92 375.04 519.94 375.03 519.96 375.03 519.98 375.03 520 375.03 520.05 375.02 520.07 375.02 520.11 375.01 520.12 375.01 520.14 375.01 520.17 375 520.19 375 520.21 375 520.23 375 520.24 374.99 520.26 374.99 520.29 374.98 520.31 374.98 520.33 374.98 520.35 374.97 520.35 374.97 520.38 374.96 520.41 374.95 520.42 374.94 520.49 374.92 520.54 374.9 520.6 374.88 520.65 374.85 520.68 374.85 520.69 374.84 520.7 374.84 520.76 374.81 520.8 374.8 520.81 374.8 520.84 374.78 520.86 374.78 520.87 374.77 520.89 374.77 520.9 374.76 520.92 374.76 520.94 374.75 520.96 374.75 520.97 374.74 520.99 374.74 521.01 374.73 521.02 374.73 521.04 374.72 521.06 374.72 521.08 374.71 521.09 374.71 521.11 374.7 521.12 374.7 521.13 374.7 521.15 374.69 521.16 374.68 521.17 374.65 521.18 374.63 521.19 374.63 521.2 374.62 521.22 374.61 521.23 374.61 521.25 374.6 521.26 374.6 521.28 374.6 521.3 374.59 521.32 374.59 521.34 374.59 521.35 374.59 521.37 374.58 521.38 374.58 521.39 374.58 521.41 374.59 521.43 374.59 521.44 374.59 521.46 374.6 521.47 374.6 521.49 374.61 521.5 374.61 521.51 374.61 521.53 374.62 521.56 374.62 521.57 374.62 521.59 374.63 521.61 374.63 521.62 374.63 521.63 374.63 521.64 374.63 521.66 374.64 521.68 374.64 521.7 374.65 521.71 374.66 521.72 374.66 521.74 374.67 521.75 374.68 521.77 374.68 521.79 374.68 521.8 374.69 521.81 374.69 521.82 374.69 521.84 374.69 521.86 374.69 521.88 374.68 521.9 374.68 521.92 374.68 521.93 374.68 521.95 374.69 521.97 374.69 521.99 374.69 522.01 374.7 522.02 374.7 522.03 374.7 522.05 374.7 522.06 374.7 522.08 374.71 522.1 374.71 522.12 374.71 522.13 374.72 522.15 374.72 522.17 374.72 522.21 374.73 522.25 374.74 522.26 374.74 522.27 374.74 522.29 374.74 522.3 374.74 522.32 374.74 522.33 374.74 522.35 374.74 522.37 374.74 522.39 374.74 522.41 374.74 522.43 374.74 522.44 374.74 522.45 374.74 522.47 374.73 522.49 374.73 522.5 374.72 522.51 374.72 522.53 374.72 522.56 374.73 522.58 374.73 522.59 374.74 522.6 374.74 522.61 374.74 522.62 374.75 522.63 374.75 522.64 374.77 522.65 374.77 522.67 374.77 522.68 374.77 522.71 374.78 522.72 374.78 522.74 374.79 522.76 374.79 522.77 374.8 522.79 374.8 522.81 374.8 522.82 374.81 522.84 374.82 522.85 374.82 522.87 374.82 522.89 374.82 522.91 374.82 522.92 374.82 522.93 374.83 522.95 374.83 522.96 374.84 522.98 374.85 522.99 374.85 523 374.86 523.02 374.87 523.04 374.87 523.05 374.88 523.07 374.89 523.09 374.9 523.1 374.9 523.11 374.9 523.13 374.91 523.14 374.91 523.16 374.91 523.18 374.91 523.18 374.91 523.2 374.91 523.22 374.92 523.23 374.93 523.26 374.93 523.28 374.94 523.29 374.94 523.31 374.95 523.35 374.96 523.36 374.96 523.38 374.97 523.39 374.97 523.41 374.98 523.43 374.98 523.45 374.98 523.46 374.99 523.48 374.99 523.49 374.99 523.51 375 523.53 375 523.55 375.01 523.56 375.01 523.57 375.01 523.59 375.02 523.61 375.02 523.62 375.03 523.64 375.03 523.64 375.04 523.66 375.04 523.67 375.04 523.69 375.04 523.71 375.05 523.72 375.05 523.74 375.06 523.75 375.07 523.77 375.08 523.78 375.08 523.79 375.09 523.81 375.09 523.82 375.09 523.83 375.09 523.85 375.09 523.86 375.09 523.87 375.09 523.89 375.08 523.91 375.08 523.93 375.08 523.95 375.09 523.97 375.09 523.98 375.1 524 375.1 524.01 375.11 524.03 375.12 524.06 375.14 524.08 375.15 524.09 375.16 524.11 375.16 524.12 375.17 524.14 375.17 524.15 375.18 524.17 375.19 524.18 375.2 524.2 375.21 524.21 375.22 524.22 375.23 524.24 375.23 524.25 375.24 524.26 375.26 524.28 375.26 524.29 375.27 524.31 375.28 524.32 375.29 524.34 375.3 524.35 375.31 524.37 375.32 524.38 375.33 524.39 375.33 524.41 375.34 524.42 375.35 524.45 375.37 524.47 375.38 524.48 375.39 524.49 375.39 524.51 375.4 524.52 375.41 524.54 375.42 524.56 375.43 524.57 375.43 524.58 375.44 524.61 375.45 524.63 375.45 524.64 375.46 524.66 375.46 524.68 375.46 524.7 375.46 524.71 375.46 524.73 375.47 524.74 375.47 524.76 375.47 524.78 375.47 524.79 375.47 524.81 375.48 524.82 375.48 524.84 375.49 524.85 375.49 524.87 375.49 524.88 375.5 524.89 375.5 524.92 375.51 524.94 375.51 524.96 375.51 524.97 375.51 524.99 375.52 525 375.53 525.02 375.53 525.04 375.54 525.06 375.54 525.08 375.54 525.1 375.55 525.12 375.55 525.14 375.56 525.16 375.56 525.17 375.57 525.19 375.57 525.22 375.58 525.24 375.59 525.25 375.59 525.27 375.59 525.28 375.6 525.29 375.6 525.31 375.6 525.33 375.61 525.34 375.61 525.36 375.62 525.38 375.63 525.41 375.64 525.45 375.65 525.48 375.65 525.49 375.66 525.51 375.66 525.53 375.67 525.55 375.67 525.56 375.68 525.58 375.68 525.6 375.69 525.62 375.7 525.63 375.7 525.64 375.7 525.66 375.71 525.7 375.72 525.72 375.73 525.73 375.73 525.75 375.73 525.76 375.74 525.78 375.74 525.8 375.75 525.81 375.76 525.83 375.77 525.84 375.77 525.85 375.78 525.87 375.79 525.89 375.8 525.92 375.81 525.93 375.82 525.95 375.83 525.96 375.83 525.98 375.84 525.99 375.85 526.01 375.86 526.02 375.86 526.03 375.87 526.05 375.88 526.07 375.89 526.09 375.89 526.1 375.9 526.13 375.91 526.13 375.92 526.15 375.92 526.17 375.93 526.18 375.94 526.2 375.96 526.23 375.97 526.26 376 526.28 376.01 526.29 376.02 526.31 376.03 526.33 376.04 526.35 376.05 526.36 376.06 526.37 376.07 526.39 376.08 526.4 376.09 526.42 376.09 526.44 376.11 526.46 376.12 526.47 376.13 526.49 376.14 526.5 376.15 526.51 376.15 526.52 376.16 526.55 376.18 526.57 376.19 526.58 376.2 526.6 376.21 526.6 376.22 526.62 376.22 526.65 376.24 526.68 376.26 526.73 376.29 526.76 376.31 526.77 376.32 526.79 376.33 526.8 376.34 526.82 376.35 526.83 376.36 526.85 376.35 526.86 376.33 526.87 376.32 526.88 376.3 526.89 376.29 526.9 376.28 526.91 376.26 526.93 376.24 526.93 376.23 526.95 376.21 526.96 376.2 526.97 376.19 526.97 376.18 526.98 376.17 526.99 376.15 527 376.14 527.01 376.13 527.02 376.11 527.04 376.09 527.05 376.07 527.06 376.06 527.06 376.05 527.08 376.04 527.09 376.02 527.09 376.02 527.1 376 527.11 375.98 527.12 375.97 527.14 375.93 527.14 375.92 527.15 375.91 527.16 375.9 527.17 375.9 527.18 375.9 527.19 375.9 527.2 375.9 527.21 375.91 527.22 375.92 527.24 375.92 527.25 375.93 527.26 375.93 527.28 375.93 527.31 375.94 527.32 375.94 527.33 375.94 527.35 375.95 527.37 375.95 527.39 375.96 527.41 375.97 527.42 375.96 527.43 375.95 527.44 375.94 527.45 375.93 527.46 375.92 527.48 375.91 527.49 375.91 527.51 375.9 527.52 375.89 527.53 375.89 527.55 375.88 527.57 375.87 527.58 375.87 527.6 375.85 527.63 375.84 527.65 375.83 527.66 375.82 527.68 375.81 527.69 375.8 527.7 375.79 527.72 375.77 527.75 375.75 527.76 375.75 527.77 375.74 527.79 375.73 527.8 375.72 527.81 375.72 527.83 375.7 527.83 375.7 527.85 375.69 527.87 375.67 527.89 375.66 527.94 375.63 527.96 375.62 527.97 375.61 527.98 375.6 528 375.59 528.02 375.58 528.04 375.57 528.04 375.59 528.05 375.61 528.05 375.63 528.06 375.65 528.09 375.71 528.15 375.76 528.2 375.81 528.21 375.81 528.22 375.82 528.24 375.85 528.31 375.88 528.32 375.89 528.37 375.9 528.39 375.91 528.46 375.94 528.54 375.97 528.61 375.98 528.62 375.98 528.65 375.99 528.67 375.99 528.75 376.01 528.87 376.03 528.91 376.03 528.92 376.04 528.95 376.04 528.95 376.04 528.98 376.03 529.01 376.01 529.02 376 529.05 375.97 529.11 375.92 529.18 375.86 529.24 375.8 529.29 375.76 529.31 375.75 529.35 375.73 529.41 375.69 529.46 375.64 529.5 375.59 529.54 375.57 529.62 375.53 529.72 375.49 529.75 375.48 529.76 375.49 529.77 375.5 529.8 375.54 529.84 375.59 529.9 375.62 529.99 375.67 530.08 375.7 530.11 375.73 530.16 375.79 530.22 375.86 530.27 375.95 530.33 376.06 530.38 376.16 530.4 376.19 530.42 376.2 530.42 376.21 530.47 376.22 530.62 376.28 530.78 376.33 530.85 376.35 530.89 376.36 530.97 376.38 531.04 376.39 531.09 376.41 531.17 376.42 531.19 376.43 531.22 376.44 531.23 376.45 531.37 376.53 531.5 376.58 531.56 376.6 531.62 376.63 531.72 376.67 531.79 376.71 531.87 376.73 531.87 376.73 531.89 376.74 531.94 376.77 531.94 376.77 532.04 376.85 532.13 376.92 532.14 376.93 532.15 376.94 532.16 376.95 532.27 377.03 532.31 377.06 532.32 377.07 532.33 377.07 532.38 377.11 532.42 377.15 532.43 377.15 532.49 377.19 532.51 377.19 532.51 377.2 532.55 377.21 532.56 377.22 532.6 377.24 532.63 377.25 532.65 377.27 532.7 377.25 532.71 377.25 532.79 377.23 532.83 377.22 532.85 377.21 532.94 377.2 532.95 377.19 533.03 377.18 533.04 377.17 533.14 377.15 533.18 377.14 533.19 377.14 533.2 377.14 533.37 377.1 533.43 377.09 533.46 377.08 533.56 377.06 533.64 377.05 533.69 377.04 533.71 377.03 533.73 377.03 533.74 377.02 533.9 376.99 533.91 376.99 533.94 376.98 533.95 376.98 534.03 376.96 534.08 376.96 534.13 376.96 534.17 376.96 534.25 376.96 534.28 376.95 534.34 376.95 534.4 376.94 534.46 376.92 534.48 376.92 534.55 376.89 534.59 376.87 534.65 376.85 534.73 376.79 534.75 376.78 534.76 376.77 534.77 376.77 534.81 376.74 534.89 376.68 534.97 376.61 535.05 376.55 535.1 376.5 535.14 376.47 535.16 376.46 535.2 376.42 535.25 376.39 535.29 376.37 535.3 376.37 535.35 376.35 535.42 376.35 535.52 376.36 535.53 376.36 535.6 376.35 535.64 376.35 535.68 376.35 535.7 376.35 535.78 376.36 535.84 376.36 535.86 376.36 535.89 376.35 535.92 376.35 535.97 376.35 536.05 376.33 536.06 376.32 536.08 376.32 536.16 376.29 536.21 376.27 536.25 376.25 536.38 376.19 536.45 376.16 536.54 376.11 536.56 376.1 536.6 376.06 536.68 376 536.74 375.95 536.83 375.88 536.83 375.87 536.87 375.85 536.89 375.83 536.91 375.82 536.92 375.82 536.97 375.78 536.98 375.78 537.09 375.71 537.11 375.7 537.2 375.65 537.24 375.63 537.26 375.62 537.29 375.61 537.34 375.59 537.36 375.57 537.4 375.57 537.56 375.51 537.56 375.51 537.75 375.44 537.76 375.44 537.77 375.43 537.79 375.43 537.82 375.42 537.86 375.41 537.94 375.39 537.97 375.38 538 375.37 538.02 375.36 538.06 375.35 538.08 375.34 538.11 375.33 538.12 375.33 538.2 375.29 538.28 375.24 538.31 375.21 538.34 375.16 538.37 375.13 538.39 375.1 538.44 375.05 538.44 375.05 538.45 375.04 538.55 374.94 538.64 374.84 538.72 374.74 538.77 374.69 538.81 374.64 538.81 374.63 538.84 374.6 538.85 374.59 538.89 374.54 539 374.4 539.09 374.25 539.09 374.24 539.1 374.23 539.11 374.21 539.13 374.18 539.14 374.15 539.16 374.12 539.2 374.04 539.21 374.04 539.25 373.97 539.27 373.95 539.3 373.92 539.31 373.91 539.35 373.86 539.4 373.81 539.42 373.78 539.51 373.67 539.56 373.61 539.61 373.55 539.76 373.6 539.83 373.62 539.94 373.66 540.09 373.71 540.15 373.73 540.27 373.78 540.29 373.79 540.39 373.82 540.42 373.83 540.46 373.81 540.55 373.75 540.66 373.68 540.78 373.6 540.87 373.54 540.92 373.51 540.98 373.47 541.03 373.43 541.07 373.37 541.14 373.28 541.15 373.27 541.2 373.18 541.26 373.09 541.26 373.08 541.29 373.02 541.34 372.97 541.38 372.92 541.43 372.86 541.5 372.76 541.56 372.68 541.62 372.59 541.63 372.57 541.7 372.46 541.73 372.4 541.74 372.38 541.78 372.29 541.86 372.14 541.89 372.09 541.91 372.05 541.97 371.93 542.01 371.86 542.03 371.84 542.11 371.71 542.17 371.6 542.23 371.49 542.27 371.4 542.32 371.31 542.35 371.24 542.43 371.11 542.47 371.04 542.52 370.97 542.54 370.94 542.58 370.87 542.63 370.82 542.65 370.79 542.7 370.76 542.72 370.72 542.76 370.66 542.77 370.62 542.8 370.54 542.82 370.49 542.82 370.45 542.82 370.4 542.83 370.35 542.81 370.33 542.77 370.32 542.69 370.29 542.6 370.26 542.49 370.2 542.41 370.15 542.36 370.17 542.25 370.27 542.19 370.32 542.12 370.38 542.06 370.43 542 370.47 541.93 370.49 541.87 370.51 541.8 370.53 541.69 370.53 541.51 370.55 541.37 370.55 541.29 370.54 541.25 370.54 541.1 370.52 540.98 370.51 540.89 370.5 540.74 370.52 540.64 370.52 540.62 370.53 540.55 370.54 540.45 370.58 540.37 370.61 540.29 370.65 540.21 370.71 540.15 370.75 540.14 370.75 540.11 370.75 540.08 370.75 539.99 370.75 539.8 370.72 539.77 370.71 539.61 370.68 539.46 370.65 539.44 370.64 539.28 370.61 539.23 370.59 539.22 370.58 539.21 370.55 539.2 370.52 539.18 370.42 539.17 370.36 539.17 370.34 539.15 370.28 539.13 370.23 539.1 370.2 539.06 370.15 539 370.09 538.94 370.05 538.87 370.01 538.78 369.99 538.71 369.98 538.7 369.98 538.6 369.97 538.54 369.98 538.49 369.98 538.46 369.98 538.39 369.98 538.33 369.98 538.31 369.98 538.24 369.97 538.23 369.98 538.19 369.98 538.14 369.98 538.04 369.99 538.03 369.99 538.01 369.99 537.93 370 537.91 370 537.89 370 537.87 369.99 537.82 369.98 537.79 369.96 537.76 369.94 537.69 369.9 537.66 369.88 537.6 369.83 537.57 369.81 537.52 369.77 537.5 369.76 537.48 369.73 537.46 369.68 537.45 369.65 537.41 369.58 537.39 369.56 537.38 369.56 537.35 369.54 537.31 369.53 537.28 369.53 537.27 369.53 537.2 369.54 537.18 369.53 537.17 369.53 537.12 369.5 537.08 369.48 537.04 369.45 536.87 369.38 536.85 369.38 536.69 369.32 536.67 369.32 536.5 369.25 536.49 369.25 536.37 369.21 536.28 369.17 536.24 369.16 536.21 369.14 536.08 369.09 536.01 369.05 535.91 368.98 535.78 368.87 535.69 368.8 535.67 368.78 535.57 368.71 535.46 368.65 535.38 368.61 535.32 368.58 535.29 368.56 535.22 368.53 535.2 368.52 535.15 368.5 535.08 368.47 535.07 368.47 535 368.46 534.87 368.44 534.68 368.41 534.66 368.4 534.65 368.39 534.64 368.39 534.59 368.39 534.59 368.39 534.53 368.37 534.51 368.37 534.49 368.37 534.43 368.36 534.4 368.36 534.36 368.35 534.32 368.34 534.3 368.34 534.27 368.33 534.24 368.32 534.23 368.32 534.21 368.32 534.13 368.31 534.02 368.3 533.84 368.29 533.81 368.28 533.79 368.28 533.78 368.28 533.74 368.28 533.69 368.28 533.69 368.22 533.7 368.16 533.71 368.13 533.72 368.12 533.75 368.1 533.85 368.05 534.05 367.95 534.15 367.9 534.17 367.88 534.18 367.85 534.18 367.83 534.19 367.81 534.19 367.79 534.21 367.68 534.21 367.67 534.21 367.64 534.23 367.56 534.23 367.51 534.24 367.42 534.25 367.36 534.25 367.19 534.25 367.05 534.25 367.04 534.26 366.99 534.28 366.94 534.28 366.91 534.28 366.88 534.26 366.78 534.25 366.76 534.23 366.67 534.21 366.57 534.18 366.42 534.17 366.33 534.17 366.31 534.16 366.22 534.17 366.13 534.17 366.08 534.19 366.02 534.22 365.92 534.26 365.77 534.28 365.66 534.29 365.5 534.29 365.48 534.28 365.33 534.27 365.16 534.24 365.03 534.22 364.9 534.22 364.87 534.25 364.81 534.28 364.73 534.34 364.57 534.37 364.48 534.38 364.45 534.4 364.39 534.44 364.3 534.46 364.24 534.46 364.23 534.49 364.16 534.49 364.11 534.49 364.09 534.5 364.05 534.5 364.04 534.5 363.95 534.5 363.92 534.52 363.77 534.52 363.74 534.52 363.72 534.52 363.61 534.52 363.6 534.52 363.57 534.53 363.49 534.54 363.36 534.57 363.22 534.57 363.2 534.58 363.12 534.58 363.1 534.59 363.09 534.6 363.01 534.6 362.96 534.6 362.94 534.6 362.84 534.59 362.79 534.59 362.77 534.59 362.73 534.65 362.65 534.68 362.6 534.69 362.58 534.76 362.46 534.8 362.39 534.87 362.27 534.92 362.17 534.98 362.05 535.05 361.91 535.22 361.58 535.24 361.55 535.36 361.32 535.45 361.34 535.45 361.34 535.54 361.37 535.62 361.4 535.7 361.43 535.77 361.44 535.89 361.45 535.98 361.45 535.99 361.42 536.01 361.38 536.03 361.36 536.06 361.35 536.08 361.34 536.13 361.33 536.16 361.34 536.26 361.36 536.39 361.4 536.4 361.41 536.57 361.45 536.77 361.5 536.96 361.54 536.98 361.55 537.11 361.56 537.23 361.56 537.31 361.55 537.38 361.54 537.42 361.52 537.45 361.49 537.49 361.46 537.5 361.45 537.52 361.41 537.56 361.37 537.58 361.35 537.62 361.31 537.63 361.3 537.66 361.27 537.68 361.26 537.72 361.24 537.77 361.23 537.86 361.2 537.9 361.18 537.92 361.18 537.95 361.15 538.01 361.11 538.03 361.09 538.05 361.07 538.09 361.03 538.16 360.96 538.18 360.93 538.19 360.9 538.22 360.86 538.27 360.8 538.32 360.74 538.33 360.72 538.36 360.7 538.38 360.65 538.41 360.59 538.42 360.56 538.43 360.53 538.44 360.47 538.47 360.4 538.5 360.33 538.53 360.26 538.56 360.2 538.61 360.13 538.64 360.07 538.68 359.98 538.71 359.94 538.72 359.92 538.76 359.86 538.83 359.75 538.84 359.72 538.85 359.7 538.86 359.69 538.87 359.65 538.9 359.6 538.94 359.47 538.96 359.43 538.99 359.35 539.02 359.16 539.03 359.11 539.05 359.04 539.07 358.96 539.08 358.93 539.09 358.91 539.1 358.89 539.12 358.85 539.13 358.84 539.16 358.81 539.23 358.76 539.28 358.71 539.31 358.69 539.35 358.66 539.38 358.62 539.43 358.57 539.46 358.53 539.51 358.5 539.56 358.46 539.6 358.42 539.66 358.37 539.7 358.34 539.74 358.32 539.79 358.29 539.86 358.26 539.91 358.23 539.96 358.2 540 358.18 540.07 358.15 540.13 358.12 540.17 358.1 540.18 358.09 540.23 358.09 540.29 358.08 540.37 358.07 540.44 358.05 540.49 358.04 540.54 358.03 540.63 358.01 540.68 358 540.76 357.96 540.8 357.93 540.84 357.89 540.9 357.83 540.93 357.8 540.97 357.74 541.02 357.68 541.06 357.63 541.08 357.59 541.11 357.54 541.14 357.47 541.16 357.42 541.19 357.34 541.22 357.28 541.24 357.23 541.27 357.18 541.29 357.13 541.32 357.08 541.35 357.03 541.37 356.99 541.41 356.94 541.46 356.88 541.49 356.83 541.53 356.79 541.57 356.75 541.6 356.73 541.63 356.7 541.67 356.69 541.69 356.68 541.74 356.65 541.77 356.64 541.83 356.61 541.9 356.58 541.98 356.56 542.03 356.54 542.1 356.51 542.17 356.48 542.21 356.47 542.26 356.45 542.29 356.44 542.34 356.42 542.39 356.39 542.42 356.38 542.45 356.36 542.49 356.34 542.55 356.3 542.59 356.27 542.63 356.24 542.66 356.22 542.71 356.2 542.72 356.19 542.73 356.18 542.8 356.14 542.87 356.1 542.92 356.08 542.93 356.07 543.01 356.04 543.07 356.01 543.13 355.97 543.15 355.96 543.16 355.95 543.19 355.92 543.27 355.81 543.3 355.77 543.32 355.75 543.38 355.65 543.4 355.63 543.47 355.53 543.53 355.47 543.58 355.41 543.6 355.4 543.64 355.36 543.7 355.3 543.79 355.23 543.83 355.2 543.89 355.16 543.91 355.14 543.97 355.1 544.01 355.07 544.04 355.03 544.09 354.98 544.14 354.93 544.19 354.86 544.25 354.79 544.27 354.77 544.3 354.73 544.38 354.62 544.41 354.59 544.45 354.53 544.51 354.45 544.54 354.39 544.59 354.31 544.61 354.26 544.62 354.23 544.64 354.17 544.69 354.05 544.73 353.96 544.75 353.91 544.78 353.86 544.8 353.83 544.8 353.82 544.83 353.77 544.87 353.7 544.89 353.68 544.94 353.63 544.95 353.62 544.98 353.58 545.01 353.54 545.09 353.47 545.15 353.41 545.23 353.33 545.28 353.28 545.32 353.24 545.36 353.19 545.37 353.18 545.46 353.09 545.51 353.03 545.55 352.97 545.58 352.93 545.6 352.88 545.63 352.81 545.64 352.77 545.64 352.72 545.66 352.63 545.67 352.56 545.67 352.39 545.66 352.3 545.66 352.2 545.66 352.2 545.66 352.15 545.66 352.11 545.64 352.03 545.64 351.95 545.64 351.93 545.65 351.88 545.67 351.84 545.67 351.81 545.67 351.8 545.67 351.77 545.67 351.7 545.68 351.65 545.69 351.61 545.7 351.58 545.71 351.56 545.73 351.53 545.77 351.51 545.79 351.48 545.8 351.44 545.82 351.38 545.84 351.33 545.86 351.29 545.88 351.28 545.92 351.25 545.94 351.23 545.96 351.19 545.97 351.14 545.97 351.09 545.97 351.03 545.96 351 545.96 351 545.96 350.98 545.94 350.93 545.93 350.89 545.92 350.88 545.91 350.84 545.91 350.79 545.9 350.69 545.9 350.67 545.9 350.63 545.91 350.53 545.91 350.44 545.92 350.39 545.93 350.36 545.94 350.3 545.96 350.16 545.98 350.07 545.99 349.98 546.01 349.88 546.03 349.76 546.04 349.71 546.05 349.67 546.07 349.61 546.11 349.53 546.13 349.47 546.16 349.42 546.18 349.36 546.21 349.31 546.24 349.27 546.26 349.22 546.29 349.18 546.33 349.12 546.36 349.08 546.39 349.04 546.42 349.01 546.43 348.99 546.45 348.95 546.45 348.93 546.5 348.86 546.5 348.84 546.53 348.79 546.56 348.71 546.59 348.62 546.6 348.56 546.61 348.53 546.61 348.52 546.64 348.42 546.66 348.37 546.69 348.27 546.72 348.15 546.74 348.07 546.74 348.02 546.74 347.94 546.75 347.89 546.75 347.83 546.75 347.73 546.75 347.6 546.75 347.5 546.75 347.38 546.75 347.32 546.74 347.18 546.74 347.17 546.75 347.1 546.75 346.99 546.76 346.86 546.76 346.71 546.76 346.54 546.77 346.4 546.77 346.3 546.78 346.21 546.79 346.13 546.8 346.05 546.82 346.01 546.82 345.92 546.83 345.89 546.85 345.81 546.88 345.72 546.93 345.6 547.02 345.4 547.08 345.24 547.11 345.13 547.14 345.04 547.19 344.88 547.23 344.73 547.27 344.58 547.3 344.48 547.31 344.43 547.34 344.35 547.37 344.27 547.42 344.14 547.46 344.03 547.48 344 547.48 343.98 547.52 343.91 547.57 343.8 547.63 343.68 547.66 343.63 547.76 343.44 547.9 343.22 548.03 343.01 548.13 342.84 548.27 342.63 548.39 342.43 548.52 342.2 548.6 342.06 548.63 342.02 548.66 341.97 548.78 342.03 548.89 342.11 549 342.2 549.09 342.27 549.16 342.35 549.29 342.48 549.42 342.63 549.53 342.76 549.63 342.9 549.71 343.02 549.83 343.18 549.92 343.3 550.02 343.4 550.08 343.46 550.2 343.56 550.32 343.65 550.34 343.66 550.41 343.71 550.47 343.76 550.53 343.83 550.6 343.94 550.69 344.05 550.8 344.24 550.85 344.32 550.87 344.35 551.01 344.4 551.19 344.46 551.37 344.52 551.6 344.59 551.69 344.62 551.79 344.65 551.87 344.68 552.07 344.75 552.11 344.72 552.13 344.7 552.16 344.68 552.19 344.67 552.21 344.67 552.25 344.67 552.28 344.68 552.34 344.71 552.4 344.73 552.54 344.77 552.69 344.83 552.75 344.85 552.85 344.9 552.9 344.92 552.96 344.94 553.05 344.97 553.09 344.98 553.16 345 553.21 345.01 553.23 345.01 553.24 345.01 553.33 345.05 553.38 345.07 553.43 345.09 553.45 345.09 553.47 345.09 553.51 345.08 553.54 345.06 553.56 345.05 553.58 345.03 553.61 345.02 553.64 345.01 553.68 345 553.73 345 553.78 345 553.86 344.99 553.89 344.99 553.93 344.99 553.95 344.98 553.99 344.96 554.03 344.93 554.05 344.92 554.09 344.9 554.12 344.89 554.13 344.89 554.19 344.87 554.23 344.86 554.25 344.85 554.26 344.85 554.29 344.85 554.3 344.85 554.31 344.84 554.33 344.84 554.35 344.84 554.41 344.85 554.43 344.85 554.49 344.86 554.53 344.87 554.56 344.88 554.61 344.89 554.65 344.91 554.67 344.92 554.73 344.95 554.74 344.95 554.82 344.99 554.86 345.01 554.88 345.02 554.95 345.04 554.98 345.05 555.09 345.08 555.11 345.09 555.2 345.11 555.26 345.13 555.28 345.13 555.4 345.16 555.41 345.16 555.51 345.19 555.53 345.19 555.61 345.22 555.64 345.22 555.83 345.28 556 345.31 556.16 345.34 556.2 345.35 556.24 345.37 556.32 345.4 556.38 345.43 556.45 345.48 556.53 345.52 556.61 345.58 556.71 345.66 556.8 345.72 556.9 345.79 556.95 345.83 557.06 345.91 557.25 345.99 557.43 346.05 557.6 346.13 557.76 346.19 557.91 346.27 558.09 346.36 558.25 346.45 558.37 346.52 558.55 346.64 558.71 346.74 558.87 346.85 559.03 346.97 559.17 347.08 559.34 347.22 559.51 347.36 559.65 347.48 559.84 347.63 560.01 347.77 560.17 347.9 560.38 348.06 560.56 348.21 560.6 348.25 560.72 348.24 560.9 348.22 561.86 348.16 562.34 348.12 562.35 348.12 562.59 348.11 562.88 348.09 562.87 348.13 562.87 348.16 562.92 348.24 563.02 348.43 563.08 348.55 563.1 348.6 563.14 348.69 563.18 348.82 563.18 348.83 563.19 348.88 563.22 348.92 563.25 348.96 563.31 349.04 563.35 349.1 563.43 349.2 563.46 349.25 563.5 349.31 563.57 349.41 563.61 349.47 563.69 349.57 563.73 349.64 563.77 349.7 563.86 349.82 563.88 349.86 563.95 349.93 564.02 349.98 564.07 350.01 564.08 350.03 564.12 350.06 564.16 350.1 564.18 350.13 564.24 350.19 564.3 350.23 564.35 350.27 564.36 350.28 564.41 350.31 564.44 350.32 564.48 350.34 564.55 350.39 564.64 350.46 564.73 350.52 564.77 350.56 564.81 350.59 564.85 350.63 564.88 350.67 564.93 350.72 564.94 350.73 564.97 350.77 564.99 350.79 565 350.8 565.01 350.81 565.09 350.87 565.14 350.9 565.17 350.91 565.25 350.95 565.28 350.97 Z"/>
</g></svg>