<svg xmlns="http://www.w3.org/2000/svg" version="1.2" baseProfile="tiny" stroke-linecap="round" stroke-linejoin="round" viewBox="551.48 372.83 21.12 24.33"><g xmlns="http://www.w3.org/2000/svg" id="Lerga">
<path d="M 559.73 372.84 559.77 372.86 559.81 372.89 559.87 372.94 559.89 372.96 559.94 372.99 559.99 373.05 560.04 373.11 560.08 373.18 560.11 373.25 560.14 373.32 560.13 373.39 560.12 373.48 560.13 373.55 560.15 373.57 560.21 373.63 560.27 373.69 560.28 373.7 560.32 373.71 560.36 373.75 560.41 373.79 560.46 373.85 560.48 373.88 560.57 373.97 560.6 373.99 560.69 374.05 560.73 374.1 560.78 374.16 560.82 374.21 560.84 374.23 560.89 374.3 560.96 374.38 561.02 374.45 561.08 374.51 561.12 374.54 561.24 374.64 561.32 374.73 561.35 374.76 561.37 374.78 561.45 374.83 561.53 374.9 561.65 375 561.75 375.07 561.85 375.15 561.89 375.17 561.91 375.18 562.04 375.23 562.17 375.29 562.24 375.31 562.27 375.34 562.28 375.37 562.28 375.42 562.26 375.49 562.22 375.59 562.21 375.68 562.21 375.7 562.24 375.75 562.28 375.83 562.3 375.88 562.33 375.93 562.38 376 562.45 376.06 562.53 376.15 562.6 376.21 562.66 376.28 562.7 376.34 562.73 376.38 562.76 376.42 562.78 376.45 562.8 376.49 562.81 376.52 562.84 376.59 562.85 376.63 562.91 376.8 562.95 376.88 562.99 376.98 563.02 377.04 563.07 377.08 563.08 377.09 563.15 377.13 563.2 377.17 563.22 377.2 563.26 377.25 563.28 377.28 563.33 377.35 563.4 377.41 563.45 377.44 563.55 377.51 563.62 377.56 563.69 377.61 563.76 377.67 563.84 377.74 563.86 377.76 563.99 377.87 564 377.88 564.15 378.02 564.18 378.04 564.26 378.11 564.32 378.15 564.33 378.17 564.35 378.2 564.36 378.21 564.48 378.35 564.52 378.41 564.58 378.48 564.65 378.57 564.71 378.66 564.75 378.72 564.82 378.8 564.87 378.86 564.88 378.88 564.97 378.99 565.09 379.18 565.16 379.18 565.21 379.18 565.25 379.18 565.29 379.18 565.3 379.19 565.33 379.19 565.37 379.2 565.39 379.2 565.42 379.22 565.45 379.25 565.48 379.29 565.52 379.32 565.55 379.36 565.6 379.43 565.67 379.53 565.71 379.57 565.76 379.63 565.83 379.71 565.89 379.77 565.97 379.84 565.97 379.86 566.02 379.9 566.07 379.96 566.11 380.01 566.16 380.08 566.21 380.12 566.24 380.16 566.27 380.21 566.31 380.27 566.37 380.33 566.4 380.37 566.44 380.4 566.46 380.43 566.48 380.45 566.57 380.54 566.58 380.55 566.62 380.58 566.63 380.59 566.69 380.65 566.75 380.72 566.81 380.77 566.86 380.82 566.9 380.87 566.94 380.91 566.99 380.98 567.04 381.04 567.09 381.12 567.13 381.17 567.14 381.19 567.16 381.24 567.18 381.27 567.19 381.31 567.2 381.35 567.2 381.4 567.26 381.42 567.34 381.46 567.41 381.51 567.46 381.54 567.5 381.57 567.53 381.59 567.56 381.6 567.6 381.62 567.63 381.64 567.64 381.65 567.68 381.67 567.71 381.68 567.74 381.69 567.77 381.7 567.79 381.7 567.82 381.7 567.86 381.69 567.89 381.69 567.91 381.67 567.97 381.64 568.02 381.61 568.03 381.6 568.07 381.59 568.12 381.57 568.18 381.55 568.23 381.54 568.28 381.53 568.3 381.53 568.35 381.53 568.41 381.54 568.46 381.55 568.46 381.56 568.53 381.76 568.55 381.83 568.58 381.95 568.58 381.98 568.6 382.01 568.61 382.04 568.63 382.08 568.64 382.13 568.65 382.14 568.65 382.16 568.66 382.2 568.68 382.26 568.7 382.33 568.72 382.42 568.73 382.47 568.74 382.56 568.74 382.6 568.75 382.66 568.75 382.68 568.76 382.74 568.77 382.77 568.78 382.82 568.78 382.86 568.79 382.9 568.8 382.93 568.8 383 568.81 383.02 568.82 383.12 568.83 383.21 568.83 383.24 568.84 383.29 568.84 383.32 568.85 383.36 568.86 383.42 568.88 383.48 568.89 383.52 568.9 383.56 568.91 383.61 568.92 383.66 568.92 383.72 568.92 383.76 568.92 383.81 568.92 383.85 568.93 383.88 568.94 383.91 568.94 383.96 568.95 384.01 568.95 384.02 568.95 384.04 568.95 384.09 568.96 384.14 568.96 384.2 568.96 384.26 568.97 384.31 568.97 384.33 568.98 384.34 568.98 384.35 568.98 384.37 568.98 384.39 568.98 384.41 568.98 384.41 568.99 384.45 568.99 384.49 569 384.52 569 384.53 569 384.55 569 384.57 569.01 384.58 569.02 384.65 569.02 384.68 569.02 384.7 569.03 384.73 569.04 384.78 569.06 384.83 569.07 384.86 569.08 384.87 569.08 384.89 569.08 384.9 569.08 384.91 569.08 384.95 569.08 385 569.07 385.04 569.06 385.07 569.02 385.17 569 385.2 568.97 385.22 568.95 385.23 568.94 385.26 568.92 385.3 568.9 385.35 568.89 385.39 568.88 385.4 568.86 385.46 568.84 385.51 568.82 385.58 568.79 385.65 568.76 385.72 568.74 385.77 568.73 385.79 568.72 385.82 568.72 385.84 568.72 385.87 568.72 385.93 568.72 385.97 568.72 386 568.72 386.02 568.73 386.05 568.74 386.1 568.79 386.18 568.79 386.22 568.83 386.29 568.83 386.33 568.84 386.39 568.86 386.48 568.87 386.51 568.88 386.57 568.89 386.64 568.92 386.68 568.95 386.71 568.97 386.74 568.97 386.78 568.97 386.83 568.97 386.87 568.98 386.9 568.99 386.92 568.99 386.94 569.01 386.98 569.01 387.03 569.03 387.12 569.03 387.16 569.03 387.19 569.03 387.22 569.02 387.23 569.01 387.25 568.97 387.31 568.94 387.37 568.93 387.4 568.91 387.44 568.91 387.48 568.9 387.5 568.89 387.52 568.88 387.54 568.87 387.58 568.87 387.6 568.87 387.62 568.87 387.68 568.87 387.73 568.88 387.78 568.89 387.84 568.91 387.9 568.95 387.96 568.95 387.97 568.94 387.97 568.91 387.99 568.87 388.01 568.81 388.02 568.82 388.09 568.82 388.15 568.82 388.2 568.83 388.23 568.83 388.3 568.83 388.35 568.83 388.36 568.86 388.38 568.89 388.4 568.92 388.43 568.94 388.47 568.96 388.51 568.97 388.56 568.98 388.61 569 388.65 569.02 388.68 569.04 388.71 569.06 388.75 569.07 388.77 569.07 388.81 569.07 388.85 569.07 388.87 569.04 388.91 569.03 388.94 569.02 388.95 569.02 389 569.02 389.05 569.02 389.1 569.02 389.16 569.02 389.22 569.02 389.27 569.02 389.31 569.02 389.36 569.01 389.41 569 389.44 568.99 389.48 569.01 389.5 569.05 389.53 569.06 389.53 569.12 389.55 569.18 389.58 569.35 389.66 569.37 389.67 569.38 389.67 569.47 389.71 569.49 389.72 569.51 389.74 569.61 389.79 569.72 389.85 569.73 389.86 569.74 389.86 569.79 389.9 569.86 389.94 569.9 389.97 569.97 390.02 570.03 390.06 570.09 390.1 570.13 390.12 570.18 390.14 570.24 390.18 570.27 390.21 570.28 390.22 570.3 390.23 570.32 390.26 570.34 390.28 570.39 390.35 570.44 390.41 570.47 390.45 570.49 390.49 570.5 390.49 570.52 390.51 570.57 390.5 570.65 390.48 570.69 390.48 570.73 390.51 570.75 390.56 570.78 390.59 570.84 390.63 570.83 390.65 570.83 390.69 570.82 390.77 570.92 390.81 571.01 390.86 571.09 390.91 571.14 390.94 571.21 390.99 571.3 391.05 571.38 391.09 571.43 391.12 571.48 391.14 571.53 391.15 571.59 391.18 571.65 391.2 571.71 391.22 571.75 391.23 571.75 391.27 571.76 391.28 571.77 391.35 571.79 391.42 571.89 391.42 571.92 391.42 571.98 391.42 572.04 391.42 572.06 391.43 572.1 391.44 572.16 391.46 572.2 391.48 572.24 391.5 572.28 391.51 572.32 391.54 572.37 391.58 572.42 391.63 572.46 391.68 572.49 391.73 572.5 391.77 572.53 391.83 572.55 391.92 572.56 391.98 572.57 392.05 572.58 392.13 572.59 392.25 572.59 392.32 572.59 392.35 572.59 392.39 572.58 392.45 572.58 392.51 572.58 392.6 572.59 392.74 572.6 392.8 572.6 392.89 572.6 392.9 572.6 392.91 572.59 392.96 572.58 392.97 572.58 393.02 572.56 393.09 572.55 393.11 572.55 393.13 572.54 393.15 572.54 393.19 572.53 393.24 572.53 393.27 572.52 393.29 572.51 393.35 572.48 393.44 572.47 393.5 572.45 393.56 572.43 393.63 572.42 393.66 572.42 393.68 572.4 393.86 572.39 393.88 572.38 393.97 572.37 394.06 572.37 394.12 572.36 394.15 572.36 394.18 572.36 394.2 572.35 394.25 572.35 394.28 572.35 394.31 572.35 394.36 572.35 394.38 572.35 394.44 572.35 394.51 572.35 394.58 572.35 394.59 572.34 394.62 572.34 394.64 572.33 394.71 572.32 394.75 572.32 394.8 572.31 394.85 572.31 394.88 572.3 394.93 572.29 394.98 572.29 395.03 572.28 395.1 572.28 395.17 572.28 395.22 572.27 395.27 572.27 395.31 572.27 395.33 572.26 395.41 572.25 395.49 572.23 395.57 572.23 395.6 572.22 395.65 572.21 395.71 572.2 395.76 572.19 395.81 572.18 395.82 572.18 395.84 572.18 395.86 572.16 395.92 572.15 395.94 572.15 395.97 572.14 396.01 572.14 396.06 572.13 396.1 572.13 396.17 572.12 396.26 572.12 396.35 572.12 396.41 572.12 396.49 572.12 396.54 572.12 396.59 572.12 396.6 572.12 396.61 572.11 396.7 572.1 396.75 572.09 396.8 572.09 396.86 572.09 396.91 572.08 396.97 572.07 397.02 572.06 397.07 572.04 397.13 571.98 397.13 571.92 397.13 571.88 397.14 571.82 397.13 571.79 397.13 571.76 397.12 571.62 397.1 571.59 397.09 571.54 397.07 571.47 397.06 571.39 397.04 571.35 397.03 571.28 397.02 571.19 397.01 571.14 397 571.12 396.99 571.06 396.97 571.01 396.96 570.94 396.93 570.9 396.91 570.84 396.88 570.71 396.82 570.63 396.78 570.62 396.78 570.54 396.74 570.45 396.71 570.38 396.67 570.33 396.63 570.3 396.56 570.26 396.45 570.23 396.33 570.19 396.21 570.17 396.11 570.15 395.98 570.12 395.86 570.1 395.74 570.08 395.71 570 395.62 569.89 395.46 569.81 395.37 569.75 395.31 569.73 395.29 569.66 395.22 569.57 395.14 569.46 395.07 569.34 395 569.21 394.94 569.19 394.93 569.15 394.92 569.11 394.9 569.05 394.89 569.03 394.9 568.96 394.96 568.9 395.03 568.84 395.09 568.76 395.16 568.71 395.21 568.66 395.27 568.62 395.32 568.55 395.37 568.48 395.43 568.42 395.48 568.41 395.49 568.41 395.5 568.4 395.55 568.4 395.6 568.39 395.67 568.36 395.76 568.32 395.86 568.29 395.95 568.26 396.04 568.23 396.09 568.21 396.14 568.19 396.2 568.14 396.18 568.07 396.16 568.02 396.16 567.98 396.16 567.88 396.17 567.82 396.17 567.81 396.14 567.79 396.1 567.77 396.06 567.75 396.02 567.74 396 567.72 395.97 567.7 395.92 567.67 395.88 567.65 395.83 567.63 395.78 567.61 395.73 567.59 395.68 567.57 395.63 567.5 395.59 567.44 395.55 567.37 395.5 567.33 395.45 567.32 395.44 567.29 395.41 567.25 395.37 567.22 395.34 567.21 395.33 567.19 395.33 567.17 395.31 567.13 395.29 567.11 395.27 567.04 395.2 566.98 395.12 566.94 395.07 566.92 395.04 566.86 394.99 566.85 394.97 566.8 394.93 566.78 394.91 566.75 394.89 566.74 394.87 566.71 394.85 566.69 394.83 566.68 394.82 566.64 394.81 566.6 394.81 566.57 394.81 566.54 394.81 566.53 394.81 566.49 394.82 566.48 394.82 566.44 394.82 566.4 394.82 566.36 394.82 566.33 394.82 566.31 394.82 566.25 394.81 566.2 394.8 566.16 394.8 566.13 394.78 566.1 394.77 566.05 394.75 566.01 394.72 565.99 394.71 565.97 394.7 565.95 394.68 565.93 394.65 565.9 394.62 565.86 394.58 565.84 394.54 565.83 394.52 565.82 394.5 565.79 394.43 565.78 394.41 565.77 394.4 565.73 394.37 565.65 394.35 565.64 394.35 565.59 394.35 565.54 394.35 565.53 394.35 565.42 394.36 565.41 394.36 565.33 394.36 565.16 394.36 565.04 394.35 565.01 394.34 564.92 394.33 564.83 394.31 564.76 394.3 564.7 394.27 564.67 394.26 564.59 394.23 564.58 394.22 564.49 394.18 564.37 394.12 564.28 394.08 564.25 394.07 564.21 394.06 564.13 394.05 564.07 394.05 564.02 394.06 563.95 394.08 563.9 394.1 563.76 394.16 563.61 394.22 563.48 394.16 563.37 394.08 563.27 393.98 563.07 394.05 563.03 394.06 562.94 394.07 562.86 394.08 562.81 394.08 562.77 394.06 562.75 394.05 562.72 393.99 562.68 393.92 562.62 393.84 562.57 393.79 562.48 393.69 562.41 393.6 562.36 393.51 562.31 393.5 562.25 393.5 562.23 393.5 562.2 393.47 562.16 393.44 562.06 393.37 562.05 393.36 562.04 393.35 561.97 393.3 561.95 393.29 561.93 393.27 561.89 393.24 561.88 393.23 561.86 393.23 561.82 393.22 561.77 393.2 561.76 393.2 561.74 393.2 561.72 393.19 561.68 393.17 561.63 393.15 561.57 393.12 561.49 393.08 561.43 393.06 561.39 393.05 561.32 393.03 561.3 393.03 561.22 393.01 561.16 392.99 561.1 392.98 561.06 392.98 560.99 392.97 560.94 392.97 560.89 392.96 560.81 392.95 560.72 392.94 560.63 392.93 560.58 392.93 560.53 392.93 560.5 392.92 560.41 392.9 560.34 392.89 560.28 392.87 560.24 392.86 560.19 392.85 560.17 392.84 560.16 392.84 560.07 392.83 560.01 392.82 559.97 392.82 559.92 392.81 559.88 392.8 559.84 392.78 559.82 392.78 559.76 392.75 559.71 392.73 559.66 392.71 559.61 392.7 559.56 392.69 559.5 392.67 559.44 392.65 559.36 392.63 559.3 392.61 559.27 392.62 559.18 392.63 559.08 392.65 558.98 392.66 558.87 392.68 558.81 392.69 558.76 392.7 558.7 392.7 558.66 392.7 558.56 392.69 558.42 392.68 558.4 392.69 558.35 392.69 558.3 392.69 558.25 392.69 558.2 392.68 558.14 392.66 558.08 392.63 558.07 392.63 558.02 392.62 557.89 392.61 557.8 392.6 557.78 392.59 557.68 392.58 557.63 392.57 557.45 392.56 557.36 392.55 557.32 392.55 557.23 392.53 557.18 392.51 557.11 392.47 557.05 392.45 557 392.43 556.92 392.4 556.82 392.36 556.74 392.33 556.71 392.31 556.66 392.29 556.58 392.26 556.51 392.25 556.42 392.24 556.38 392.24 556.31 392.27 556.22 392.3 556.24 392.37 556.27 392.43 556.29 392.47 556.25 392.5 556.2 392.53 556.08 392.56 555.99 392.57 555.91 392.58 555.87 392.58 555.86 392.59 555.82 392.58 555.79 392.57 555.77 392.55 555.74 392.52 555.7 392.5 555.67 392.48 555.63 392.47 555.62 392.47 555.58 392.46 555.52 392.46 555.45 392.46 555.39 392.46 555.34 392.53 555.31 392.54 555.28 392.56 555.24 392.58 555.19 392.6 555.12 392.64 555.05 392.67 555.03 392.68 555.02 392.69 555 392.71 554.97 392.73 554.91 392.78 554.87 392.8 554.83 392.83 554.77 392.87 554.74 392.91 554.71 392.94 554.66 392.98 554.61 393.04 554.54 393.1 554.5 393.14 554.46 393.17 554.44 393.2 554.41 393.23 554.35 393.29 554.32 393.31 554.29 393.33 554.24 393.36 554.16 393.42 554.1 393.46 554.07 393.48 554.05 393.5 554.04 393.51 554.02 393.55 554 393.59 553.96 393.62 553.94 393.66 553.91 393.68 553.87 393.72 553.82 393.75 553.78 393.71 553.74 393.68 553.68 393.65 553.59 393.58 553.49 393.51 553.42 393.45 553.37 393.4 553.36 393.4 553.26 393.28 553.2 393.2 553.15 393.15 553.07 393.06 552.98 392.96 552.94 392.91 552.91 392.88 552.84 392.81 552.87 392.78 552.9 392.76 552.95 392.7 552.97 392.69 553.02 392.65 553.07 392.6 553.09 392.58 553.13 392.55 553.2 392.49 553.21 392.47 553.28 392.4 553.3 392.38 553.33 392.34 553.36 392.3 553.47 392.16 553.52 392.09 553.53 392.07 553.59 391.97 553.52 391.89 553.44 391.81 553.36 391.72 553.27 391.63 553.22 391.56 553.18 391.52 553.15 391.48 553.14 391.46 553.07 391.36 553.03 391.31 552.96 391.18 552.93 391.12 552.91 391.09 552.88 391.04 552.87 391.02 552.86 391 552.84 390.97 552.82 390.94 552.8 390.9 552.78 390.87 552.36 390.14 552.3 390.15 552.2 390.14 551.49 390.12 551.56 390.04 551.63 389.95 551.67 389.9 551.72 389.82 551.76 389.78 551.76 389.77 551.78 389.74 551.81 389.69 551.84 389.63 551.85 389.6 551.87 389.57 551.88 389.55 551.88 389.54 551.9 389.49 551.92 389.46 551.92 389.45 551.94 389.38 551.95 389.35 551.95 389.34 551.96 389.32 551.98 389.29 551.99 389.26 552 389.24 552.02 389.23 552.04 389.22 552.07 389.19 552.09 389.16 552.11 389.14 552.14 389.11 552.22 389.05 552.23 389.03 552.27 389 552.3 388.98 552.33 388.95 552.39 388.89 552.44 388.84 552.45 388.83 552.49 388.79 552.51 388.76 552.54 388.72 552.55 388.7 552.56 388.69 552.61 388.64 552.62 388.62 552.65 388.59 552.73 388.5 552.68 388.34 552.68 388.32 552.68 388.3 552.69 388.27 552.7 388.24 552.7 388.21 552.71 388.19 552.72 388.15 552.72 388.13 552.75 388.09 552.77 388.04 552.79 387.97 552.82 387.9 552.84 387.83 552.85 387.8 552.86 387.71 552.88 387.62 552.88 387.6 552.88 387.57 552.88 387.54 552.88 387.51 552.89 387.45 552.89 387.4 552.89 387.34 552.89 387.26 552.89 387.21 552.89 387.16 552.89 387.1 552.89 387.09 552.89 387.04 552.89 387 552.88 386.99 552.88 386.96 552.87 386.9 552.84 386.83 552.82 386.75 552.81 386.7 552.79 386.65 552.79 386.61 552.78 386.59 552.78 386.56 552.78 386.54 552.78 386.51 552.78 386.47 552.79 386.44 552.8 386.41 552.82 386.35 552.83 386.28 552.84 386.25 552.86 386.16 552.87 386.13 553.02 386.04 553.02 386.02 553 385.89 552.98 385.79 553.07 385.69 553.01 385.58 553 385.57 553 385.56 552.99 385.55 552.96 385.46 552.93 385.37 552.91 385.3 552.87 385.18 552.81 384.98 552.79 384.88 552.78 384.86 552.75 384.74 552.75 384.68 552.75 384.64 552.75 384.6 552.75 384.57 552.76 384.57 552.78 384.48 552.81 384.34 552.82 384.3 552.83 384.21 552.85 384.14 552.85 384.1 552.87 384.06 552.89 383.98 552.93 383.88 552.96 383.79 553.01 383.71 553.05 383.64 553.12 383.52 553.2 383.4 553.23 383.35 553.27 383.3 553.3 383.24 553.33 383.21 553.4 383.1 553.42 383.07 553.43 383.05 553.43 383.05 553.43 383.03 553.44 383 553.44 382.96 553.44 382.92 553.44 382.88 553.44 382.88 553.45 382.86 553.46 382.82 553.49 382.79 553.51 382.76 553.51 382.76 553.54 382.73 553.61 382.68 553.65 382.64 553.69 382.59 553.73 382.53 553.75 382.47 553.76 382.42 553.77 382.41 553.77 382.38 553.79 382.33 553.81 382.29 553.83 382.26 553.86 382.22 553.89 382.19 553.91 382.17 553.95 382.14 554.04 382.09 554.15 382.04 554.22 382.01 554.26 382 554.32 382 554.44 381.98 554.51 381.97 554.57 381.89 554.62 381.84 554.64 381.82 554.66 381.8 554.7 381.76 554.81 381.68 554.85 381.64 554.87 381.63 554.91 381.59 554.98 381.52 555.05 381.46 555.08 381.42 555.15 381.37 555.17 381.35 555.2 381.32 555.28 381.25 555.36 381.16 555.37 381.15 555.39 381.13 555.46 381.06 555.51 381 555.54 380.97 555.55 380.96 555.58 380.94 555.6 380.92 555.72 380.9 555.76 380.88 555.86 380.86 555.92 380.85 556.02 380.82 556.13 380.79 556.2 380.77 556.27 380.73 556.27 380.72 556.32 380.68 556.44 380.57 556.46 380.55 556.47 380.54 556.49 380.51 556.52 380.49 556.62 380.38 556.7 380.29 556.74 380.25 556.77 380.23 556.78 380.22 556.8 380.18 556.82 380.11 556.85 379.99 556.87 379.89 556.87 379.88 556.89 379.81 556.89 379.74 556.91 379.67 556.91 379.59 556.9 379.49 556.89 379.46 556.89 379.32 556.89 379.23 556.9 379.16 556.91 379.09 556.91 379.03 556.91 378.93 556.92 378.85 556.93 378.74 556.93 378.69 556.93 378.65 556.93 378.55 556.94 378.46 556.94 378.35 556.94 378.3 556.94 378.27 556.93 378.25 556.93 378.21 556.93 378.16 556.92 378.12 556.92 378.08 556.92 378.04 556.91 377.99 556.9 377.94 556.9 377.91 556.9 377.88 556.9 377.86 556.9 377.83 556.91 377.8 556.92 377.75 556.94 377.7 556.97 377.64 556.99 377.6 557.03 377.54 557.07 377.49 557.1 377.45 557.15 377.41 557.18 377.37 557.21 377.33 557.26 377.26 557.33 377.14 557.39 377.05 557.42 377 557.49 376.91 557.55 376.8 557.63 376.68 557.64 376.66 557.68 376.59 557.73 376.51 557.74 376.47 557.75 376.45 557.77 376.41 557.83 376.31 557.88 376.23 557.96 376.1 557.98 376.07 558.01 376.02 558.03 376.01 558.06 375.98 558.13 375.94 558.15 375.93 558.17 375.92 558.2 375.89 558.34 375.8 558.39 375.75 558.44 375.71 558.47 375.67 558.49 375.63 558.52 375.59 558.57 375.5 558.63 375.39 558.7 375.27 558.72 375.25 558.77 375.17 558.82 375.1 558.87 375.04 558.9 375 558.92 374.99 558.99 374.9 559.02 374.87 559.06 374.81 559.12 374.76 559.14 374.74 559.18 374.7 559.25 374.63 559.3 374.58 559.38 374.52 559.45 374.47 559.49 374.43 559.51 374.42 559.53 374.38 559.54 374.33 559.54 374.28 559.55 374.2 559.55 374.17 559.55 374.14 559.54 374.07 559.54 374.02 559.53 373.98 559.52 373.93 559.52 373.91 559.51 373.85 559.51 373.77 559.51 373.72 559.52 373.68 559.53 373.61 559.53 373.58 559.53 373.52 559.53 373.45 559.53 373.4 559.53 373.36 559.51 373.3 559.5 373.22 559.5 373.12 559.5 373.07 559.51 373.03 559.55 372.98 559.6 372.93 559.67 372.87 559.68 372.87 559.73 372.84 Z"/>
</g></svg>