<svg xmlns="http://www.w3.org/2000/svg" version="1.2" baseProfile="tiny" stroke-linecap="round" stroke-linejoin="round" viewBox="406.47 400.52 45.03 39.98"><g xmlns="http://www.w3.org/2000/svg" id="Lerin">
<path d="M 425.81 400.55 425.86 400.55 425.97 400.55 425.99 400.57 426 400.61 426.04 400.67 426.04 400.68 426.07 400.74 426.1 400.8 426.11 400.93 426.11 401.07 426.12 401.23 426.11 401.37 426.11 401.43 426.11 401.51 426.12 401.64 426.11 401.71 426.1 401.77 426.09 401.81 426.08 401.84 426.06 401.88 426.04 401.93 426.04 401.95 425.96 402.2 425.93 402.27 425.92 402.29 425.91 402.32 425.9 402.36 425.9 402.39 425.88 402.48 425.88 402.49 425.88 402.56 425.89 402.63 425.9 402.64 425.91 402.68 425.92 402.72 425.95 402.75 425.98 402.78 426.01 402.81 426.02 402.82 426.07 402.86 426.1 402.88 426.15 402.9 426.21 402.94 426.28 402.97 426.41 403.03 426.56 403.1 426.66 403.13 426.67 403.14 426.72 403.16 426.73 403.16 426.82 403.26 426.91 403.35 427 403.44 427.02 403.47 427.05 403.5 427.06 403.52 427.07 403.54 427.12 403.61 427.19 403.73 427.29 403.91 427.34 403.96 427.49 403.99 427.6 404 427.71 404.01 427.8 404.03 427.94 404.05 428.01 404.06 428.13 404.06 428.24 404.05 428.27 404.05 428.32 404.05 428.34 404.05 428.4 404.04 428.5 404.05 428.68 404.07 428.71 404.08 428.81 404.09 428.9 404.11 429.07 404.11 429.19 404.13 429.28 404.13 429.37 404.13 429.45 404.14 429.55 404.17 429.61 404.18 429.73 404.2 429.94 404.2 430 404.2 430.11 404.18 430.21 404.18 430.26 404.17 430.35 404.13 430.39 404.11 430.5 404.09 430.52 404.07 430.55 404.05 430.66 403.98 430.75 403.92 430.82 403.87 430.86 403.84 430.94 403.8 431.05 403.73 431.13 403.68 431.21 403.63 431.24 403.58 431.27 403.55 431.28 403.55 431.31 403.52 431.33 403.49 431.34 403.48 431.37 403.45 431.39 403.43 431.47 403.36 431.48 403.35 431.55 403.28 431.59 403.2 431.63 403.17 431.8 403.03 431.84 402.99 432.09 402.83 432.19 402.77 432.32 402.69 432.39 402.63 432.49 402.56 432.53 402.53 432.55 402.51 432.67 402.43 432.74 402.37 432.82 402.31 432.92 402.3 432.96 402.3 433.01 402.29 433.14 402.28 433.28 402.28 433.37 402.28 433.43 402.27 433.48 402.27 433.53 402.25 433.61 402.23 433.66 402.21 433.76 402.18 433.77 402.17 433.97 402.04 434.09 401.96 434.21 401.94 434.22 401.94 434.35 401.93 434.45 401.92 434.67 402.38 434.72 402.49 434.74 402.49 434.8 402.51 434.82 402.51 434.85 402.52 434.97 402.54 434.99 402.55 435 402.56 435.02 402.56 435.03 402.57 435.11 402.62 435.23 402.67 435.25 402.67 435.29 402.67 435.33 402.67 435.36 402.67 435.4 402.66 435.43 402.66 435.45 402.66 435.46 402.67 435.48 402.68 435.49 402.7 435.5 402.72 435.52 402.74 435.55 402.75 435.58 402.75 435.6 402.75 435.63 402.75 435.65 402.75 435.67 402.74 435.71 402.73 435.78 402.7 435.85 402.67 435.91 402.63 435.96 402.6 436 402.57 436.08 402.48 436.13 402.44 436.17 402.41 436.22 402.39 436.25 402.39 436.58 402.33 436.77 402.92 436.79 402.98 436.82 403.07 437 403.41 437.03 403.47 437.04 403.5 437.1 403.57 437.25 403.69 437.26 403.7 437.33 403.76 437.46 403.86 437.6 403.97 437.7 404.07 437.73 404.09 437.78 404.13 437.85 404.2 438.01 404.35 438.05 404.39 438.09 404.45 438.16 404.54 438.19 404.58 438.32 404.75 438.4 404.84 438.51 404.98 438.69 405.15 438.71 405.17 438.76 405.22 439.21 405.64 439.26 405.69 439.4 405.82 439.5 405.94 439.53 405.97 439.54 405.98 439.56 406.02 439.65 406.13 439.78 406.32 439.8 406.34 440.15 406.87 440.23 406.98 440.37 407.19 440.47 407.33 440.51 407.38 440.53 407.41 440.74 407.72 440.79 407.8 441.3 408.47 441.34 408.5 441.34 408.51 441.35 408.52 441.38 408.57 441.4 408.6 441.51 408.75 441.52 408.76 441.56 408.83 441.77 409.13 441.96 409.4 441.97 409.41 442.57 410.31 442.62 410.38 442.66 410.44 442.85 410.69 442.86 410.7 442.89 410.75 443.22 411.13 443.36 411.27 443.4 411.29 443.49 411.33 443.5 411.34 443.51 411.34 443.52 411.35 443.77 411.46 444.21 411.65 444.33 411.69 444.38 411.7 444.49 411.73 445.03 411.87 445.06 411.87 445.08 411.88 445.1 411.88 445.11 411.89 445.14 411.89 445.28 411.92 445.38 411.94 445.39 411.95 445.41 411.95 445.42 411.95 445.47 411.96 445.61 412 445.72 412.02 445.81 412.04 445.98 412.07 446 412.07 446.03 412.06 446.08 412.05 446.23 412.04 446.29 412.03 446.4 412.01 446.48 411.99 446.51 411.99 446.56 411.99 446.62 411.98 446.78 411.96 446.79 411.96 447.02 411.92 447.19 411.89 447.27 411.87 447.33 411.85 447.49 411.85 447.7 411.84 447.79 411.84 447.81 411.84 447.84 411.83 447.87 411.83 447.9 411.83 447.93 411.82 447.95 411.82 447.96 411.82 448.07 411.83 448.2 411.85 448.38 411.85 448.46 411.85 448.56 411.86 448.59 411.86 448.63 411.86 448.73 411.88 448.79 411.89 448.86 411.9 448.88 411.91 448.89 411.91 448.99 411.9 449.21 411.88 449.54 411.86 449.79 411.84 449.91 411.83 449.93 411.83 450.23 411.82 450.41 411.81 450.63 411.77 450.92 411.72 451.21 411.67 451.3 411.63 451.3 411.67 451.31 411.74 451.31 411.81 451.31 411.87 451.31 411.9 451.3 411.95 451.3 411.97 451.29 412.01 451.28 412.03 451.28 412.06 451.27 412.09 451.26 412.13 451.25 412.17 451.25 412.23 451.24 412.28 451.23 412.33 451.22 412.39 451.22 412.46 451.18 412.68 451.18 412.73 451.18 412.77 451.17 412.83 451.16 412.92 451.15 412.99 451.14 413.05 451.13 413.1 451.11 413.2 451.09 413.28 451.09 413.3 451.09 413.31 451.07 413.35 451.06 413.42 451.05 413.5 451.04 413.55 451.02 413.6 451.01 413.66 450.99 413.73 450.99 413.76 450.99 413.77 450.98 413.78 450.98 413.83 450.97 413.9 450.96 413.97 450.96 414.02 450.95 414.11 450.94 414.15 450.92 414.18 450.91 414.21 450.86 414.28 450.7 414.53 450.59 414.71 450.58 414.72 450.53 414.79 450.5 414.82 450.43 414.88 450.34 414.96 450.25 415.05 450.18 415.11 450.11 415.18 450.1 415.19 450.04 415.24 450 415.27 449.99 415.28 449.84 415.74 449.84 415.75 449.82 415.82 449.79 415.9 449.78 415.91 449.75 416.01 449.72 416.12 449.68 416.24 449.65 416.34 449.59 416.48 449.54 416.59 449.54 416.6 449.53 416.61 449.5 416.68 449.44 416.83 449.4 416.93 449.39 416.96 449.38 416.98 449.36 417.03 449.32 417.15 449.28 417.28 449.23 417.43 449.18 417.56 449.18 417.57 449.16 417.59 449.15 417.63 449.14 417.65 449.14 417.68 449.13 417.7 449.12 417.72 449.12 417.75 449.11 417.77 449.1 417.8 449.09 417.81 449.06 417.86 449.03 417.89 449 417.93 448.98 417.95 448.96 417.98 448.96 417.99 448.95 418.01 448.94 418.02 448.93 418.04 448.93 418.05 448.92 418.09 448.91 418.12 448.9 418.14 448.9 418.15 448.89 418.18 448.89 418.2 448.89 418.24 448.89 418.25 448.88 418.3 448.88 418.37 448.87 418.42 448.88 418.49 448.88 418.55 448.89 418.61 448.9 418.68 448.91 418.76 448.93 418.82 448.95 418.87 448.97 418.92 448.98 418.94 449 418.97 449.02 419.02 449.06 419.08 449.09 419.14 449.12 419.19 449.16 419.25 449.19 419.3 449.21 419.32 449.22 419.33 449.22 419.34 449.24 419.36 449.25 419.4 449.26 419.42 449.28 419.48 449.31 419.55 449.32 419.6 449.34 419.65 449.35 419.71 449.37 419.8 449.39 419.87 449.41 419.95 449.41 420 449.42 420.02 449.42 420.04 449.43 420.05 449.43 420.06 449.44 420.09 449.45 420.12 449.46 420.17 449.47 420.23 449.49 420.29 449.5 420.34 449.51 420.4 449.52 420.43 449.52 420.45 449.52 420.48 449.52 420.49 449.51 420.54 449.49 420.61 449.48 420.67 449.47 420.74 449.46 420.81 449.45 420.88 449.45 420.95 449.46 420.99 449.46 421.02 449.47 421.08 449.48 421.13 449.48 421.16 449.48 421.18 449.49 421.33 449.52 422.02 449.52 422.18 449.54 422.22 449.54 422.26 449.54 422.29 449.54 422.34 449.53 422.41 449.52 422.54 449.51 422.62 449.51 422.68 449.49 422.75 449.49 422.8 449.49 422.88 449.49 422.95 449.52 423.05 449.54 423.15 449.56 423.24 449.57 423.3 449.58 423.34 449.58 423.41 449.58 423.48 449.59 423.56 449.6 423.62 449.6 423.64 449.6 423.7 449.59 423.79 449.58 423.92 449.57 424 449.56 424.08 449.56 424.09 449.54 424.16 449.54 424.17 449.54 424.24 449.55 424.34 449.56 424.44 449.57 424.52 449.57 424.53 449.59 424.6 449.62 424.62 449.67 424.66 449.73 424.7 449.78 424.73 449.83 424.78 449.87 424.82 449.88 424.83 449.89 424.86 449.93 424.95 450 425.09 450.07 425.3 450.14 425.48 450.14 425.49 450.17 425.61 450.2 425.71 450.23 425.76 450.25 425.81 450.29 425.85 450.32 425.9 450.36 425.96 450.4 426.07 450.44 426.18 450.48 426.25 450.52 426.32 450.55 426.4 450.59 426.5 450.62 426.58 450.64 426.63 450.65 426.65 450.69 426.73 450.72 426.81 450.74 426.87 450.75 426.89 450.79 426.92 450.85 426.95 450.91 426.99 450.96 427.04 451 427.11 451.03 427.19 451.07 427.29 451.13 427.43 451.18 427.58 451.2 427.63 451.25 427.85 451.27 427.95 451.29 428.04 451.32 428.15 451.35 428.23 451.36 428.34 451.38 428.52 451.39 428.54 451.39 428.6 451.4 428.61 451.4 428.64 451.42 428.69 451.44 428.71 451.44 428.72 451.44 428.74 451.45 428.77 451.45 428.84 451.46 428.93 451.46 429.07 451.47 429.12 451.47 429.19 451.49 429.34 451.5 429.49 451.41 429.52 451.32 429.53 451.26 429.55 451.21 429.56 451.17 429.56 451.14 429.58 451.11 429.61 451.08 429.63 451.06 429.68 451.05 429.71 451 429.82 450.94 429.95 450.94 429.96 450.91 429.99 450.81 430.08 450.77 430.12 450.75 430.13 450.68 430.19 450.66 430.2 450.59 430.26 450.56 430.28 450.53 430.32 450.47 430.47 450.46 430.48 450.44 430.53 450.41 430.59 450.36 430.7 450.31 430.8 450.29 430.84 450.22 430.83 450.06 430.81 449.93 430.79 449.77 430.77 449.64 430.75 449.62 430.75 449.57 430.75 449.41 430.63 449.15 430.45 448.99 430.33 448.85 430.24 448.73 430.16 448.61 430.1 448.53 430.06 448.4 430.09 448.28 430.11 448.17 430.13 448.15 430.13 448.11 430.14 447.82 430.19 447.77 430.2 447.67 430.22 447.63 430.25 447.5 430.38 447.43 430.44 447.16 430.7 447.11 430.75 447.1 430.76 447.02 430.89 447.01 430.9 447 430.91 446.88 431.08 446.86 431.22 446.82 431.5 446.77 431.9 446.77 431.93 446.61 432.43 446.59 432.48 446.54 432.63 446.47 432.84 446.32 433.3 446.28 433.36 446.23 433.51 446.19 433.71 446.15 433.87 446.14 433.89 446.11 433.97 445.98 434.27 445.89 434.48 445.88 434.5 445.8 434.67 445.72 434.8 445.71 434.86 445.69 434.92 445.67 434.97 445.62 435.07 445.57 435.19 445.53 435.33 445.49 435.41 445.49 435.43 445.44 435.55 445.41 435.62 445.4 435.65 445.39 435.66 445.37 435.73 445.36 435.75 445.34 435.78 445.31 435.84 445.3 435.89 445.29 435.91 445.28 435.96 445.26 436.02 445.24 436.08 445.22 436.13 445.22 436.14 445.19 436.22 445.16 436.28 445.14 436.33 445.13 436.39 445.1 436.46 445.1 436.5 444.97 436.92 444.93 437.12 444.9 437.23 444.9 437.25 444.9 437.26 444.89 437.29 444.89 437.29 444.86 437.43 444.83 437.54 444.83 437.56 444.8 437.69 444.77 437.81 444.73 437.95 444.72 438.05 444.7 438.11 444.69 438.13 444.68 438.15 444.67 438.17 444.61 438.31 444.55 438.45 444.52 438.54 444.49 438.6 444.48 438.62 444.51 438.68 444.53 438.73 444.47 438.73 444.36 438.74 444.29 438.73 444.26 438.74 444.14 438.73 444.03 438.72 444.02 438.72 444 438.72 443.95 438.73 443.86 438.74 443.72 438.78 443.53 438.81 443.37 438.85 443.19 438.89 443.12 438.91 443.07 438.91 443.05 438.91 442.92 438.94 442.71 439 442.56 439.03 442.51 439.04 442.34 439.08 442.31 439.08 442.3 439.09 442.16 439.12 442.14 439.12 442.11 439.13 441.91 439.19 441.72 439.25 441.71 439.25 441.67 439.26 441.64 439.27 441.53 439.29 441.41 439.33 441.28 439.38 441.14 439.41 440.98 439.45 440.77 439.51 440.6 439.56 440.47 439.61 440.31 439.68 440.15 439.75 439.91 439.85 439.77 439.9 439.75 439.91 439.73 439.92 439.6 439.99 439.47 440.06 439.31 440.15 439.16 440.24 439.02 440.32 438.93 440.38 438.86 440.43 438.79 440.49 438.77 440.5 438.79 440.46 438.79 440.43 438.79 440.4 438.79 440.38 438.78 440.36 438.76 440.31 438.73 440.27 438.69 440.2 438.62 440.09 438.57 440.02 438.54 439.97 438.48 439.89 438.44 439.84 438.36 439.75 438.33 439.72 438.27 439.67 438.24 439.63 438.23 439.61 438.21 439.59 438.19 439.55 438.16 439.5 438.12 439.43 438.08 439.36 438.06 439.31 438.04 439.28 438.01 439.24 437.99 439.21 437.96 439.17 437.93 439.15 437.91 439.13 437.88 439.1 437.83 439.07 437.76 439.03 437.72 439.01 437.69 438.99 437.67 438.97 437.65 438.95 437.63 438.92 437.61 438.9 437.59 438.86 437.55 438.79 437.51 438.73 437.48 438.66 437.46 438.62 437.44 438.6 437.42 438.57 437.4 438.55 437.38 438.51 437.35 438.49 437.33 438.46 437.29 438.41 437.22 438.35 437.19 438.32 437.14 438.27 437.13 438.24 437.11 438.22 437.08 438.18 437.07 438.15 437.02 438.07 436.98 437.98 436.92 437.89 436.83 437.72 436.8 437.65 436.73 437.53 436.66 437.42 436.62 437.36 436.58 437.3 436.57 437.27 436.53 437.22 436.5 437.16 436.47 437.12 436.45 437.1 436.44 437.1 436.43 437.1 436.41 437.11 436.4 437.12 436.35 437.16 436.31 437.2 436.25 437.27 436.23 437.29 436.2 437.33 436.14 437.34 436.11 437.34 436.08 437.35 436.03 437.36 435.98 437.37 435.94 437.39 435.9 437.4 435.86 437.41 435.82 437.43 435.8 437.45 435.78 437.46 435.76 437.49 435.69 437.56 435.66 437.59 435.62 437.62 435.58 437.63 435.46 437.68 435.35 437.73 435.28 437.76 435.21 437.79 435.11 437.81 435.03 437.83 434.94 437.86 434.81 437.9 434.69 437.93 434.61 437.95 434.55 437.96 434.49 437.96 434.44 437.96 434.43 437.96 434.36 437.96 434.29 437.95 434.25 437.95 434.19 437.95 434.14 437.94 434.09 437.94 434.05 437.94 434.01 437.94 433.99 437.94 433.97 437.94 433.96 437.94 433.95 437.94 433.83 437.95 433.71 437.96 433.64 437.97 433.6 437.97 433.55 437.97 433.44 437.96 433.34 437.95 433.25 437.95 433.19 437.94 433.16 437.94 433.13 437.94 433.09 437.95 433.05 437.96 433.01 437.96 432.85 437.97 432.71 437.98 432.53 438 432.46 438.01 432.4 438.02 432.35 438.02 432.27 438.05 432.2 438.06 432.15 438.07 432.1 438.08 432.08 438.08 432.01 438.07 431.92 438.07 431.88 438.06 431.79 438.05 431.74 438.04 431.72 438.04 431.66 438.04 431.65 438.04 431.63 438.05 431.59 438.05 431.55 438.05 431.51 438.04 431.44 438.03 431.39 438.03 431.38 438.03 431.36 438.03 431.3 438.03 431.23 438.01 431.17 438 431.13 437.99 431.07 437.97 430.98 437.95 430.85 437.91 430.8 437.9 430.76 437.88 430.68 437.86 430.46 437.81 429.94 437.71 429.86 437.7 429.84 437.69 429.81 437.7 429.73 437.69 429.65 437.69 429.57 437.7 429.53 437.7 429.46 437.69 429.31 437.68 429.11 437.66 428.92 437.64 428.86 437.64 428.83 437.64 428.75 437.64 428.65 437.64 428.57 437.65 428.45 437.65 428.38 437.65 428.32 437.65 428.23 437.65 428.14 437.64 428.09 437.64 428.04 437.63 427.97 437.61 427.92 437.6 427.86 437.59 427.76 437.56 427.63 437.53 427.55 437.5 427.51 437.49 427.46 437.48 427.39 437.45 427.11 437.36 426.96 437.32 426.81 437.29 426.67 437.26 426.61 437.24 426.53 437.23 426.51 437.23 426.37 437.18 426.27 437.13 426.15 437.09 426.15 437.08 426.13 437.08 426.11 437.08 426.03 437.05 425.93 437.01 425.83 436.99 425.68 436.95 425.55 436.91 425.49 436.9 425.42 436.87 425.38 436.87 425.34 436.87 425.29 436.86 425.21 436.84 425.13 436.83 425.06 436.82 424.96 436.8 424.87 436.78 424.73 436.77 424.7 436.76 424.68 436.76 424.64 436.74 424.56 436.73 424.44 436.71 424.36 436.68 424.34 436.68 424.32 436.67 424.28 436.67 424.22 436.67 424.17 436.65 424.11 436.65 424.06 436.64 423.99 436.62 423.96 436.62 423.91 436.62 423.89 436.62 423.88 436.62 423.86 436.62 423.84 436.62 423.82 436.62 423.79 436.62 423.73 436.6 423.57 436.56 423.49 436.55 423.47 436.55 423.35 436.52 423.21 436.49 423.18 436.5 423.16 436.5 423.15 436.5 423.12 436.5 423.11 436.5 423.09 436.51 423.07 436.52 423.03 436.53 423 436.53 422.97 436.54 422.9 436.54 422.81 436.55 422.77 436.55 422.69 436.57 422.5 436.6 422.4 436.61 422.38 436.62 422.37 436.62 422.34 436.63 422.28 436.63 422.27 436.63 422.26 436.63 422.24 436.63 422.17 436.63 422.05 436.62 421.95 436.61 421.91 436.61 421.8 436.63 421.6 436.67 421.58 436.67 421.55 436.67 421.49 436.68 421.5 436.72 421.52 436.81 421.55 436.94 421.55 436.97 421.53 436.97 421.48 436.97 421.39 436.96 421.27 436.95 421.16 436.93 421.14 436.93 421.13 436.93 421.12 436.91 421.12 436.91 421.11 436.87 421.1 436.83 421.09 436.81 421.07 436.8 421.05 436.78 420.99 436.76 420.9 436.74 420.84 436.72 420.8 436.69 420.74 436.64 420.69 436.58 420.67 436.54 420.66 436.51 420.65 436.47 420.64 436.42 420.62 436.39 420.59 436.37 420.56 436.35 420.53 436.34 420.5 436.33 420.5 436.33 420.39 436.32 420.29 436.31 420.22 436.31 420.2 436.31 420.18 436.3 420.14 436.28 420.13 436.27 420.11 436.27 420.08 436.26 420.03 436.26 419.97 436.24 419.86 436.21 419.79 436.19 419.72 436.15 419.56 436.08 419.39 435.99 419.33 435.95 419.28 435.92 419.27 435.91 419.26 435.9 419.25 435.89 419.24 435.87 419.18 435.83 419.05 435.76 418.95 435.7 418.87 435.66 418.79 435.62 418.47 435.47 418.13 435.31 418.12 435.25 418.11 435.09 418.1 435.06 418.09 435.02 418.08 434.99 418.05 434.89 417.83 434.77 417.84 434.64 417.81 434.61 417.79 434.58 417.68 434.4 417.64 434.35 417.6 434.32 417.56 434.28 417.53 434.26 417.18 433.95 416.7 433.54 416.61 433.5 416.39 433.42 416.14 433.33 415.96 433.27 415.22 432.94 414.81 432.77 414.2 432.5 413.84 432.31 413.57 432.19 413.33 432.09 412 431.38 411.83 431.31 411.6 431.21 411.45 431.15 411.37 431.14 410.91 431.02 410.8 430.9 410.76 430.86 410.73 430.83 410.71 430.81 410.64 430.73 410.46 430.65 410.39 430.58 410.33 430.47 410.26 430.34 410.19 430.22 410.08 430.08 410.03 430.01 410.01 429.97 409.99 429.93 409.94 429.65 409.91 429.44 409.9 429.4 409.88 429.34 409.87 429.31 409.83 429.16 409.81 429.05 409.78 428.95 409.78 428.93 409.78 428.92 409.78 428.89 409.78 428.87 409.78 428.85 409.78 428.82 409.78 428.81 409.74 428.69 409.73 428.65 409.69 428.52 409.68 428.46 409.67 428.41 409.66 428.38 409.66 428.35 409.65 428.32 409.57 428.11 409.56 428.09 409.53 428.02 409.48 427.9 409.38 427.64 409.19 427.17 409.19 427.16 409.16 427.09 409.14 427 409.11 426.81 409.08 426.68 409.07 426.6 409.06 426.54 409.05 426.52 409.05 426.51 409.03 426.43 409.03 426.41 409.02 426.35 408.97 426.12 408.95 426.03 408.95 425.96 408.93 425.91 408.93 425.9 408.93 425.88 408.93 425.88 408.91 425.84 408.88 425.76 408.86 425.7 408.78 425.43 408.71 425.16 408.69 425.07 408.68 424.99 408.66 424.8 408.66 424.79 408.58 424.39 408.56 424.28 408.54 424.24 408.47 424 408.43 423.83 408.37 423.61 408.35 423.45 408.34 423.35 408.33 423.25 408.33 423.25 408.33 423.22 408.33 423.21 408.32 422.88 408.31 422.83 408.31 422.71 408.3 422.68 408.27 422.55 408.26 422.51 408.25 422.49 408.24 422.45 408.24 422.4 408.23 422.32 408.2 422.11 408.2 422.09 408.19 422.07 408.18 422 408.17 421.95 408.13 421.74 408.13 421.72 408.13 421.69 408.12 421.67 408.12 421.65 408.12 421.64 408.11 421.54 408.1 421.37 408.1 421.34 408.03 421.08 408.02 421.03 408.02 420.9 408.01 420.86 408 420.65 407.99 420.59 407.97 420.47 407.96 420.41 407.95 420.36 407.93 420.29 407.92 420.24 407.91 420.17 407.89 420.12 407.88 420.04 407.83 419.84 407.81 419.73 407.77 419.56 407.77 419.52 407.76 419.47 407.74 419.4 407.71 419.31 407.69 419.23 407.66 419.15 407.62 419.07 407.61 419.03 407.59 418.94 407.58 418.87 407.58 418.83 407.58 418.8 407.55 418.76 407.54 418.74 407.52 418.71 407.49 418.6 407.46 418.51 407.46 418.46 407.46 418.35 407.46 418.33 407.46 418.31 407.46 418.3 407.3 417.97 407.26 417.89 407.16 417.67 407.15 417.65 407.09 417.54 407.03 417.44 406.87 417.1 406.71 416.68 406.69 416.63 406.49 416.05 406.48 416.01 406.49 415.87 406.52 415.69 406.52 415.66 406.55 415.62 406.57 415.58 406.59 415.56 406.6 415.53 406.63 415.45 406.64 415.43 406.75 415.08 406.75 415.07 406.84 414.86 406.84 414.84 406.85 414.83 406.87 414.76 406.87 414.75 406.89 414.7 406.9 414.69 406.97 414.5 407.06 414.25 407.07 414.2 407.16 413.99 407.29 413.54 407.41 413.44 407.42 413.44 407.63 413.53 407.68 413.55 407.75 413.59 407.8 413.61 407.82 413.61 407.87 413.62 408.06 413.63 408.27 413.66 408.37 413.67 408.46 413.68 408.53 413.7 408.85 413.81 408.97 413.85 409.04 413.87 409.09 413.88 409.13 413.89 409.2 413.91 409.24 413.93 409.29 413.96 409.48 414.08 409.53 414.11 409.57 414.13 409.64 414.15 409.78 414.16 409.8 414.16 409.87 414.18 409.89 414.19 410 414.25 410.06 414.27 410.07 414.27 410.1 414.27 410.16 414.18 410.18 414.15 410.18 414.14 410.26 414.05 410.28 414 410.37 413.88 410.4 413.83 410.44 413.77 410.5 413.69 410.57 413.59 410.58 413.58 410.65 413.48 410.96 413.06 411.06 412.9 411.11 412.8 411.24 412.6 411.3 412.49 411.31 412.48 411.32 412.46 411.39 412.34 411.45 412.22 411.45 412.22 411.51 412.11 411.53 412.06 411.72 411.75 411.78 411.65 411.81 411.6 411.94 411.48 411.98 411.45 412.05 411.38 412.09 411.34 412.26 411.18 412.28 411.17 412.35 411.11 412.38 411.1 412.58 410.95 412.64 410.91 412.67 410.87 412.74 410.78 412.76 410.76 412.82 410.66 412.85 410.61 412.98 410.37 413.03 410.28 413.04 410.25 413.08 410.16 413.19 409.88 413.21 409.8 413.21 409.78 413.21 409.77 413.21 409.76 413.21 409.75 413.21 409.74 413.21 409.7 413.2 409.6 413.2 409.46 413.2 409.43 413.21 409.28 413.21 409.23 413.21 409.2 413.21 409.15 413.2 409.14 413.2 409.14 413.19 409.01 413.15 408.69 413.15 408.63 413.14 408.59 413.14 408.57 413.13 408.54 413.12 408.47 413.12 408.43 413.14 408.35 413.17 408.22 413.19 408.13 413.19 408.12 413.19 408.09 413.19 408.08 413.19 408.04 413.19 408 413.17 407.94 413.17 407.92 413.2 407.61 413.21 407.53 413.3 407.47 413.5 407.35 413.53 407.35 413.62 407.34 413.73 407.31 413.81 407.29 413.94 407.27 413.97 407.26 414 407.25 414.03 407.24 414.09 407.22 414.12 407.21 414.13 407.21 414.18 407.19 414.29 407.15 414.36 407.12 414.41 407.11 414.46 407.08 414.5 407.05 414.58 406.98 414.63 406.93 414.64 406.91 414.66 406.9 414.69 406.85 414.75 406.73 414.76 406.71 414.78 406.68 414.81 406.65 414.89 406.58 414.92 406.55 414.94 406.51 414.96 406.49 414.97 406.47 415 406.4 415.08 406.24 415.11 406.15 415.13 406.09 415.14 406.06 415.18 405.95 415.19 405.91 415.2 405.85 415.21 405.81 415.25 405.7 415.28 405.66 415.29 405.64 415.31 405.61 415.33 405.58 415.4 405.51 415.43 405.49 415.44 405.48 415.47 405.47 415.51 405.46 415.56 405.43 415.59 405.4 415.6 405.38 415.61 405.36 415.62 405.29 415.63 405.28 415.65 405.26 415.67 405.26 415.73 405.26 415.8 405.26 415.82 405.27 415.86 405.28 415.91 405.3 415.94 405.31 415.99 405.32 416.03 405.32 416.09 405.32 416.15 405.32 416.27 405.33 416.3 405.33 416.35 405.33 416.41 405.32 416.47 405.32 416.57 405.32 416.61 405.31 416.65 405.3 416.68 405.3 416.73 405.31 416.75 405.31 416.77 405.3 416.8 405.29 416.83 405.29 416.86 405.3 416.87 405.31 416.89 405.32 416.95 405.33 416.98 405.34 417.01 405.34 417.02 405.34 417.03 405.35 417.07 405.36 417.1 405.36 417.2 405.39 417.28 405.41 417.31 405.41 417.34 405.41 417.34 405.41 417.37 405.42 417.4 405.42 417.48 405.45 417.53 405.46 417.54 405.46 417.55 405.47 417.64 405.49 417.66 405.49 417.67 405.49 417.81 405.49 417.91 405.49 417.93 405.49 417.95 405.5 417.96 405.51 418.03 405.54 418.07 405.55 418.08 405.55 418.09 405.56 418.13 405.58 418.13 405.58 418.15 405.59 418.16 405.61 418.2 405.64 418.22 405.65 418.3 405.7 418.36 405.73 418.38 405.74 418.43 405.75 418.53 405.79 418.55 405.79 418.65 405.83 418.67 405.84 418.75 405.89 418.82 405.93 419.02 406.01 419.06 406.02 419.07 406.04 419.08 406.05 419.09 406.08 419.1 406.12 419.12 406.17 419.13 406.19 419.16 406.22 419.18 406.24 419.23 406.27 419.27 406.28 419.32 406.3 419.34 406.3 419.41 406.33 419.51 406.36 419.55 406.36 419.58 406.36 419.61 406.35 419.62 406.35 419.64 406.33 419.66 406.31 419.69 406.3 419.72 406.3 419.73 406.3 419.75 406.31 419.76 406.31 419.77 406.33 419.79 406.35 419.8 406.36 419.84 406.47 419.88 406.55 419.89 406.58 419.94 406.63 420 406.69 420.03 406.72 420.04 406.74 420.05 406.77 420.05 406.8 420.07 406.87 420.07 406.87 420.25 406.79 420.27 406.78 420.28 406.78 420.45 406.7 420.46 406.7 420.57 406.64 420.59 406.64 420.68 406.6 420.73 406.58 420.74 406.57 420.87 406.51 420.88 406.5 420.91 406.43 421.05 406.13 421.06 406.11 421.12 405.98 421.13 405.95 421.16 405.87 421.17 405.83 421.18 405.8 421.26 405.57 421.27 405.55 421.29 405.48 421.36 405.26 421.51 404.83 421.53 404.76 421.54 404.73 421.55 404.72 421.58 404.66 421.73 404.59 421.83 404.55 421.99 404.5 422.1 404.49 422.34 404.49 422.48 404.49 422.57 404.5 422.64 404.5 422.7 404.51 422.84 404.53 422.95 404.53 423.04 404.52 423.13 404.49 423.17 404.49 423.31 404.51 423.36 404.51 423.41 404.5 423.56 404.44 423.63 404.42 423.81 404.39 423.83 404.39 423.86 404.37 423.89 404.34 423.9 404.33 423.91 404.31 423.92 404.28 423.93 404.24 423.92 404.19 423.91 404.14 423.9 404.11 423.89 404.08 423.86 404.06 423.78 404.03 423.77 404.02 423.74 404 423.73 403.98 423.71 403.93 423.71 403.9 423.7 403.85 423.7 403.8 423.7 403.76 423.72 403.71 423.77 403.59 423.85 403.42 423.88 403.39 423.92 403.34 423.98 403.27 424.07 403.19 424.35 402.97 424.42 402.92 424.5 402.89 424.56 402.87 424.67 402.86 424.75 402.84 424.78 402.83 424.84 402.8 424.93 402.75 425.04 402.67 425.13 402.62 425.19 402.59 425.23 402.56 425.27 402.53 425.33 402.48 425.36 402.45 425.37 402.43 425.39 402.4 425.4 402.32 425.41 402.21 425.41 402.1 425.41 402.06 425.4 401.93 425.38 401.83 425.36 401.77 425.34 401.69 425.34 401.67 425.33 401.6 425.33 401.55 425.33 401.52 425.34 401.48 425.37 401.39 425.4 401.27 425.42 401.23 425.43 401.19 425.46 401.14 425.5 401.08 425.53 401.05 425.62 400.98 425.66 400.94 425.7 400.88 425.72 400.86 425.73 400.83 425.74 400.81 425.76 400.76 425.76 400.69 425.77 400.67 425.78 400.65 425.79 400.63 425.8 400.61 425.81 400.59 425.81 400.55 Z"/>
</g></svg>