<svg xmlns="http://www.w3.org/2000/svg" version="1.2" baseProfile="tiny" stroke-linecap="round" stroke-linejoin="round" viewBox="472.6 101.47 36.13 30.17"><g xmlns="http://www.w3.org/2000/svg" id="Lesaka">
<path d="M 491.27 102.4 491.27 102.42 491.26 102.47 491.26 102.51 491.25 102.53 491.25 102.59 491.24 102.62 491.24 102.64 491.24 102.65 491.24 102.66 491.24 102.67 491.24 102.68 491.24 102.69 491.24 102.7 491.24 102.71 491.24 102.72 491.24 102.73 491.24 102.74 491.24 102.75 491.24 102.76 491.24 102.77 491.24 102.78 491.24 102.79 491.24 102.8 491.24 102.82 491.25 102.85 491.25 102.86 491.25 102.87 491.25 102.88 491.25 102.89 491.26 102.9 491.26 102.91 491.26 102.92 491.27 102.93 491.27 102.94 491.28 102.95 491.28 102.96 491.28 102.97 491.29 102.98 491.3 102.99 491.3 102.99 491.31 103 491.31 103.01 491.32 103.02 491.33 103.03 491.33 103.03 491.34 103.04 491.35 103.05 491.35 103.06 491.36 103.06 491.37 103.07 491.38 103.08 491.39 103.08 491.41 103.1 491.42 103.11 491.43 103.12 491.44 103.12 491.45 103.13 491.46 103.13 491.47 103.14 491.48 103.14 491.49 103.15 491.49 103.15 491.52 103.16 491.53 103.16 491.54 103.17 491.55 103.17 491.56 103.18 491.57 103.18 491.58 103.19 491.59 103.19 491.6 103.19 491.61 103.2 491.62 103.2 491.64 103.21 491.66 103.22 491.68 103.22 491.7 103.23 491.72 103.24 491.73 103.24 491.74 103.24 491.75 103.25 491.76 103.25 491.77 103.25 491.78 103.25 491.79 103.26 491.8 103.26 491.81 103.26 491.82 103.26 491.83 103.27 491.84 103.27 491.85 103.27 491.87 103.27 491.89 103.27 491.91 103.28 491.93 103.28 491.95 103.28 491.97 103.28 491.99 103.28 492.01 103.28 492.03 103.29 492.07 103.29 492.1 103.29 492.13 103.29 492.16 103.29 492.19 103.29 492.22 103.29 492.24 103.29 492.26 103.29 492.29 103.29 492.33 103.29 492.37 103.28 492.43 103.28 492.48 103.28 492.53 103.28 492.61 103.27 492.71 103.27 492.76 103.26 492.81 103.26 492.86 103.26 492.92 103.26 493.05 103.26 493.12 103.26 493.22 103.25 493.27 103.25 493.3 103.25 493.32 103.25 493.34 103.25 493.36 103.25 493.38 103.25 493.4 103.25 493.45 103.24 493.49 103.24 493.6 103.23 493.66 103.22 493.71 103.22 493.75 103.22 493.79 103.21 493.86 103.21 493.92 103.21 493.94 103.21 493.97 103.2 493.98 103.2 493.99 103.2 494 103.2 494.01 103.2 494.02 103.2 494.03 103.21 494.04 103.21 494.05 103.21 494.06 103.21 494.07 103.21 494.08 103.21 494.1 103.22 494.12 103.22 494.26 103.25 494.31 103.26 494.35 103.27 494.47 103.29 494.5 103.29 494.54 103.3 494.57 103.31 494.6 103.32 494.65 103.33 494.7 103.34 494.73 103.34 494.75 103.35 494.79 103.35 494.82 103.36 494.84 103.36 494.86 103.37 494.88 103.37 494.9 103.37 494.97 103.38 494.99 103.38 495.01 103.38 495.03 103.39 495.06 103.39 495.09 103.4 495.2 103.42 495.27 103.43 495.32 103.44 495.35 103.45 495.38 103.45 495.4 103.45 495.42 103.46 495.47 103.47 495.48 103.47 495.58 103.49 495.61 103.5 495.63 103.51 495.65 103.51 495.67 103.51 495.69 103.52 495.71 103.52 495.74 103.52 495.77 103.53 495.84 103.54 495.86 103.54 495.89 103.54 495.97 103.55 496.01 103.55 496.03 103.56 496.05 103.56 496.12 103.57 496.15 103.58 496.17 103.58 496.19 103.58 496.21 103.59 496.22 103.59 496.23 103.59 496.24 103.59 496.25 103.6 496.28 103.6 496.29 103.61 496.3 103.61 496.31 103.61 496.32 103.62 496.32 103.63 496.33 103.64 496.34 103.65 496.35 103.66 496.35 103.67 496.35 103.68 496.35 103.69 496.36 103.7 496.36 103.71 496.36 103.72 496.36 103.73 496.36 103.74 496.36 103.75 496.36 103.76 496.37 103.77 496.37 103.78 496.37 103.8 496.36 103.81 496.36 103.82 496.36 103.83 496.36 103.84 496.36 103.87 496.36 103.88 496.36 103.89 496.35 103.93 496.35 103.94 496.35 103.95 496.35 103.95 496.35 103.97 496.35 103.98 496.35 103.99 496.35 104 496.35 104.01 496.35 104.02 496.35 104.03 496.35 104.04 496.35 104.05 496.35 104.06 496.36 104.08 496.36 104.09 496.37 104.1 496.37 104.12 496.37 104.13 496.37 104.14 496.37 104.15 496.37 104.16 496.36 104.17 496.36 104.18 496.36 104.18 496.35 104.2 496.35 104.2 496.34 104.21 496.33 104.24 496.32 104.26 496.32 104.28 496.29 104.33 496.28 104.36 496.27 104.38 496.26 104.4 496.26 104.42 496.24 104.46 496.23 104.49 496.22 104.51 496.21 104.53 496.21 104.55 496.2 104.57 496.19 104.59 496.18 104.62 496.18 104.64 496.17 104.66 496.17 104.68 496.16 104.7 496.16 104.72 496.15 104.73 496.15 104.74 496.15 104.75 496.15 104.76 496.15 104.77 496.14 104.78 496.14 104.79 496.14 104.8 496.14 104.82 496.14 104.83 496.14 104.84 496.14 104.85 496.13 104.86 496.13 104.88 496.13 104.9 496.13 104.92 496.13 104.97 496.13 104.99 496.13 105.01 496.12 105.03 496.12 105.06 496.12 105.08 496.12 105.11 496.13 105.14 496.13 105.17 496.13 105.2 496.13 105.24 496.13 105.27 496.13 105.3 496.13 105.32 496.14 105.35 496.14 105.38 496.14 105.41 496.15 105.47 496.15 105.51 496.16 105.55 496.16 105.57 496.16 105.63 496.16 105.66 496.17 105.68 496.17 105.7 496.17 105.72 496.17 105.74 496.17 105.75 496.17 105.76 496.17 105.76 496.17 105.78 496.17 105.79 496.17 105.8 496.17 105.81 496.17 105.82 496.17 105.84 496.16 105.86 496.16 105.88 496.16 105.94 496.15 105.96 496.15 105.97 496.15 105.98 496.15 105.99 496.15 106 496.15 106.01 496.14 106.02 496.14 106.03 496.14 106.04 496.14 106.05 496.13 106.06 496.13 106.07 496.13 106.08 496.12 106.09 496.12 106.1 496.12 106.11 496.11 106.12 496.11 106.13 496.1 106.14 496.1 106.15 496.09 106.15 496.09 106.16 496.08 106.17 496.08 106.18 496.07 106.19 496.06 106.2 496.06 106.21 496.04 106.23 496.03 106.24 496.03 106.24 496.02 106.25 496.01 106.26 495.99 106.28 495.98 106.29 495.97 106.3 495.97 106.3 495.96 106.31 495.95 106.32 495.95 106.33 495.94 106.34 495.93 106.35 495.93 106.35 495.92 106.36 495.92 106.37 495.91 106.38 495.91 106.39 495.9 106.4 495.9 106.41 495.89 106.42 495.89 106.43 495.88 106.44 495.88 106.44 495.88 106.45 495.87 106.47 495.87 106.47 495.87 106.48 495.86 106.5 495.86 106.51 495.86 106.52 495.85 106.53 495.85 106.54 495.85 106.55 495.85 106.56 495.85 106.57 495.85 106.58 495.85 106.59 495.85 106.6 495.85 106.61 495.85 106.63 495.85 106.64 495.85 106.65 495.85 106.66 495.86 106.67 495.86 106.68 495.86 106.69 495.87 106.7 495.87 106.71 495.87 106.72 495.88 106.74 495.88 106.75 495.89 106.76 495.89 106.77 495.89 106.78 495.9 106.79 495.9 106.8 495.91 106.81 495.92 106.83 495.93 106.86 495.94 106.87 495.94 106.88 495.95 106.89 495.95 106.9 495.97 106.93 495.98 106.94 495.98 106.95 495.99 106.96 495.99 106.97 496 106.98 496 106.99 496.01 107 496.01 107.01 496.01 107.02 496.02 107.03 496.02 107.04 496.03 107.05 496.03 107.06 496.03 107.07 496.03 107.08 496.04 107.09 496.04 107.1 496.04 107.12 496.05 107.13 496.05 107.14 496.05 107.15 496.05 107.16 496.05 107.17 496.06 107.18 496.06 107.19 496.06 107.21 496.06 107.23 496.07 107.25 496.07 107.26 496.07 107.27 496.07 107.29 496.07 107.3 496.07 107.32 496.07 107.34 496.08 107.36 496.08 107.39 496.08 107.42 496.08 107.44 496.08 107.47 496.08 107.49 496.08 107.5 496.08 107.51 496.08 107.53 496.08 107.55 496.08 107.57 496.08 107.58 496.08 107.6 496.08 107.63 496.08 107.65 496.08 107.66 496.08 107.68 496.08 107.69 496.07 107.72 496.07 107.74 496.07 107.76 496.07 107.78 496.07 107.81 496.07 107.83 496.07 107.85 496.07 107.86 496.06 107.89 496.06 107.91 496.06 107.93 496.06 107.97 496.06 107.99 496.05 108.01 496.05 108.03 496.05 108.05 496.05 108.06 496.05 108.08 496.05 108.09 496.04 108.13 496.04 108.14 496.04 108.15 496.04 108.18 496.04 108.21 496.03 108.23 496.03 108.24 496.03 108.27 496.03 108.31 496.03 108.34 496.03 108.36 496.03 108.38 496.03 108.42 496.02 108.45 496.02 108.46 496.02 108.47 496.03 108.48 496.03 108.49 496.03 108.5 496.03 108.51 496.03 108.53 496.03 108.54 496.04 108.55 496.04 108.56 496.04 108.57 496.05 108.58 496.05 108.59 496.06 108.6 496.06 108.61 496.07 108.62 496.07 108.62 496.08 108.63 496.08 108.64 496.09 108.65 496.09 108.66 496.1 108.67 496.11 108.67 496.12 108.68 496.12 108.69 496.13 108.69 496.14 108.7 496.15 108.7 496.16 108.71 496.17 108.71 496.18 108.72 496.19 108.72 496.2 108.72 496.21 108.73 496.22 108.73 496.23 108.73 496.24 108.73 496.25 108.74 496.26 108.74 496.3 108.74 496.31 108.74 496.32 108.74 496.32 108.74 496.37 108.75 496.46 108.77 496.51 108.77 496.55 108.78 496.59 108.79 496.64 108.8 496.69 108.81 496.76 108.82 496.88 108.84 496.94 108.86 497.08 108.89 497.14 108.9 497.24 108.92 497.29 108.93 497.32 108.94 497.34 108.94 497.36 108.94 497.41 108.96 497.44 108.96 497.46 108.97 497.48 108.98 497.5 108.98 497.51 108.98 497.52 108.99 497.53 108.99 497.54 108.99 497.56 109 497.58 109.01 497.6 109.01 497.62 109.02 497.64 109.03 497.65 109.04 497.67 109.05 497.69 109.05 497.71 109.06 497.73 109.07 497.75 109.08 497.77 109.09 497.8 109.1 497.82 109.11 497.82 109.12 497.83 109.12 497.85 109.13 497.87 109.14 497.89 109.15 497.91 109.16 497.95 109.19 497.98 109.21 498 109.22 498.02 109.23 498.03 109.24 498.06 109.25 498.1 109.28 498.13 109.29 498.15 109.3 498.17 109.31 498.18 109.32 498.19 109.32 498.2 109.33 498.2 109.33 498.21 109.34 498.22 109.34 498.23 109.34 498.24 109.35 498.26 109.35 498.27 109.36 498.28 109.36 498.29 109.36 498.3 109.37 498.31 109.37 498.32 109.37 498.33 109.38 498.34 109.38 498.35 109.38 498.36 109.39 498.37 109.39 498.38 109.39 498.39 109.39 498.41 109.4 498.43 109.4 498.45 109.41 498.47 109.41 498.48 109.41 498.49 109.41 498.5 109.41 498.52 109.42 498.54 109.42 498.56 109.42 498.59 109.42 498.61 109.43 498.63 109.43 498.66 109.43 498.72 109.43 498.75 109.43 498.78 109.43 498.81 109.43 498.85 109.44 498.88 109.44 498.92 109.44 498.96 109.44 499.02 109.44 499.03 109.44 499.15 109.44 499.35 109.43 499.49 109.43 499.61 109.43 499.76 109.43 499.93 109.44 500.03 109.44 500.15 109.42 500.27 109.39 500.37 109.36 500.47 109.32 500.57 109.27 500.68 109.18 500.77 109.11 500.81 109.07 500.87 108.99 500.91 108.95 500.94 108.9 500.99 108.83 501.04 108.76 501.08 108.69 501.14 108.58 501.18 108.52 501.19 108.49 501.19 108.47 501.19 108.46 501.19 108.44 501.16 108.41 501.11 108.36 501.03 108.28 500.94 108.2 500.88 108.14 500.79 108.07 500.73 108.02 500.67 107.98 500.61 107.94 500.55 107.9 500.49 107.86 500.44 107.82 500.39 107.79 500.34 107.76 500.29 107.73 500.25 107.71 500.22 107.7 500.17 107.68 500.11 107.65 500.07 107.62 500.02 107.59 499.99 107.55 499.96 107.52 499.94 107.5 499.93 107.47 499.91 107.43 499.9 107.41 499.9 107.38 499.91 107.35 499.91 107.32 499.92 107.29 499.95 107.25 499.98 107.21 500.01 107.18 500.05 107.14 500.1 107.12 500.14 107.1 500.2 107.08 500.26 107.06 500.36 107.03 500.41 107.02 500.49 107.01 500.57 107 500.62 107 500.64 107 500.76 106.98 500.84 106.98 500.92 106.97 501.03 106.97 501.21 106.95 501.25 106.95 501.35 106.94 501.45 106.94 501.56 106.93 501.91 106.91 502.09 106.9 502.17 106.89 502.23 106.9 502.26 106.91 502.29 106.93 502.31 106.97 502.35 107.09 502.39 107.24 502.42 107.39 502.44 107.52 502.45 107.66 502.46 107.8 502.47 108.01 502.49 108.17 502.49 108.31 502.5 108.46 502.51 108.6 502.53 108.85 502.54 109 502.54 109.15 502.57 109.3 502.61 109.47 502.63 109.56 502.65 109.64 502.67 109.73 502.69 109.84 502.7 109.92 502.72 110.01 502.73 110.07 502.74 110.13 502.75 110.18 502.76 110.25 502.77 110.29 502.79 110.34 502.81 110.41 502.83 110.46 502.84 110.49 502.86 110.56 502.9 110.65 502.94 110.74 502.99 110.83 503.04 110.92 503.14 111.07 503.15 111.1 503.18 111.14 503.22 111.22 503.27 111.27 503.31 111.32 503.35 111.35 503.38 111.35 503.43 111.37 503.5 111.38 503.59 111.41 503.68 111.43 503.73 111.44 503.81 111.45 503.88 111.47 503.94 111.49 504.05 111.53 504.11 111.55 504.16 111.58 504.21 111.61 504.26 111.66 504.3 111.68 504.34 111.74 504.37 111.79 504.38 111.85 504.38 111.88 504.38 111.94 504.37 112 504.36 112.04 504.35 112.11 504.34 112.15 504.33 112.19 504.31 112.23 504.28 112.28 504.26 112.34 504.24 112.4 504.19 112.52 504.17 112.58 504.16 112.61 504.14 112.64 504.11 112.7 504.08 112.75 504.05 112.8 504.01 112.86 503.97 112.91 503.9 112.99 503.86 113.05 503.82 113.1 503.78 113.15 503.74 113.2 503.7 113.25 503.66 113.3 503.62 113.35 503.57 113.39 503.51 113.49 503.49 113.54 503.48 113.57 503.46 113.63 503.45 113.68 503.44 113.74 503.43 113.79 503.43 113.85 503.44 113.89 503.45 113.94 503.46 113.99 503.48 114.04 503.5 114.09 503.51 114.13 503.54 114.19 503.57 114.22 503.61 114.27 503.66 114.33 503.71 114.38 503.77 114.44 503.8 114.49 503.85 114.53 503.9 114.59 503.95 114.63 504 114.68 504.04 114.72 504.09 114.77 504.15 114.81 504.21 114.86 504.25 114.89 504.3 114.92 504.36 114.96 504.42 114.99 504.5 115.03 504.57 115.07 504.63 115.09 504.69 115.11 504.75 115.12 504.82 115.13 504.93 115.13 504.96 115.13 505 115.13 505.03 115.13 505.04 115.12 505.05 115.12 505.06 115.12 505.07 115.12 505.1 115.12 505.11 115.12 505.12 115.12 505.13 115.12 505.14 115.12 505.15 115.11 505.16 115.11 505.17 115.1 505.18 115.1 505.19 115.09 505.2 115.09 505.21 115.08 505.22 115.08 505.23 115.07 505.23 115.07 505.24 115.06 505.25 115.05 505.27 115.03 505.28 115.03 505.29 115.02 505.3 115.01 505.31 115.01 505.32 115 505.33 115 505.33 114.99 505.34 114.99 505.36 114.97 505.4 114.95 505.41 114.95 505.42 114.94 505.43 114.94 505.44 114.93 505.45 114.93 505.46 114.93 505.47 114.92 505.48 114.92 505.49 114.92 505.5 114.92 505.51 114.92 505.52 114.92 505.53 114.92 505.54 114.93 505.55 114.93 505.56 114.94 505.57 114.94 505.58 114.95 505.6 114.96 505.61 114.96 505.61 114.97 505.62 114.97 505.63 114.98 505.64 114.99 505.65 114.99 505.66 115 505.67 115.01 505.67 115.02 505.68 115.02 505.69 115.03 505.7 115.04 505.7 115.05 505.71 115.06 505.71 115.07 505.72 115.08 505.73 115.09 505.73 115.1 505.74 115.11 505.74 115.12 505.74 115.13 505.75 115.14 505.75 115.15 505.75 115.16 505.76 115.17 505.76 115.18 505.76 115.19 505.76 115.2 505.77 115.29 505.78 115.31 505.78 115.33 505.78 115.34 505.78 115.35 505.78 115.36 505.78 115.37 505.79 115.38 505.79 115.39 505.79 115.4 505.79 115.41 505.79 115.42 505.79 115.44 505.79 115.45 505.79 115.46 505.79 115.47 505.79 115.48 505.79 115.49 505.78 115.5 505.78 115.51 505.78 115.52 505.78 115.53 505.78 115.54 505.78 115.55 505.78 115.56 505.77 115.57 505.77 115.58 505.77 115.59 505.76 115.6 505.76 115.61 505.76 115.62 505.75 115.63 505.74 115.66 505.74 115.68 505.73 115.7 505.72 115.72 505.71 115.76 505.7 115.79 505.67 115.88 505.66 115.91 505.65 115.94 505.64 115.96 505.64 115.98 505.63 116.01 505.61 116.08 505.6 116.11 505.59 116.14 505.58 116.17 505.55 116.25 505.54 116.28 505.53 116.31 505.52 116.34 505.52 116.36 505.5 116.38 505.48 116.43 505.44 116.51 505.41 116.61 505.38 116.7 505.34 116.83 505.32 116.91 505.31 116.98 505.31 117.05 505.31 117.07 505.3 117.12 505.31 117.23 505.32 117.36 505.32 117.38 505.32 117.39 505.32 117.41 505.32 117.42 505.34 117.46 505.36 117.56 505.36 117.62 505.36 117.68 505.37 117.73 505.37 117.75 505.36 117.81 505.34 117.93 505.33 118.01 505.32 118.12 505.31 118.24 505.31 118.28 505.32 118.34 505.35 118.44 505.38 118.53 505.4 118.57 505.43 118.61 505.5 118.64 505.62 118.69 505.69 118.72 505.77 118.74 505.87 118.76 505.98 118.78 506.04 118.79 506.14 118.78 506.26 118.77 506.38 118.77 506.52 118.75 506.68 118.74 506.78 118.73 506.87 118.73 506.92 118.73 506.97 118.74 507.04 118.76 507.12 118.8 507.18 118.82 507.25 118.85 507.33 118.88 507.4 118.93 507.45 118.98 507.49 119.03 507.54 119.08 507.61 119.16 507.66 119.21 507.71 119.27 507.78 119.36 507.84 119.43 507.89 119.5 507.94 119.56 508 119.62 508.04 119.68 508.09 119.74 508.14 119.82 508.19 119.89 508.26 119.98 508.31 120.06 508.36 120.12 508.43 120.21 508.51 120.3 508.55 120.36 508.58 120.41 508.61 120.46 508.64 120.51 508.66 120.55 508.67 120.6 508.68 120.63 508.69 120.68 508.7 120.72 508.71 120.77 508.7 120.79 508.7 120.85 508.69 120.91 508.66 121.04 508.63 121.11 508.6 121.17 508.57 121.22 508.53 121.28 508.49 121.32 508.46 121.36 508.41 121.41 508.34 121.47 508.25 121.56 508.22 121.6 508.18 121.64 508.14 121.69 508.08 121.75 507.97 121.85 507.9 121.91 507.84 121.97 507.79 122.01 507.72 122.06 507.69 122.09 507.66 122.13 507.64 122.16 507.61 122.21 507.58 122.26 507.55 122.3 507.49 122.35 507.44 122.4 507.4 122.44 507.35 122.46 507.29 122.47 507.23 122.48 507.2 122.49 507.16 122.51 507.13 122.54 507.1 122.58 507.08 122.62 507.07 122.65 507.06 122.69 507.05 122.74 507.05 122.8 507.06 122.84 507.08 122.87 507.11 122.91 507.14 122.93 507.17 122.95 507.21 122.96 507.25 122.96 507.3 122.97 507.35 122.97 507.41 122.96 507.47 122.97 507.5 122.98 507.54 123 507.58 123.03 507.62 123.07 507.64 123.11 507.66 123.15 507.67 123.19 507.67 123.22 507.64 123.22 507.61 123.22 507.58 123.21 507.56 123.21 507.53 123.24 507.49 123.28 507.45 123.31 507.42 123.34 507.38 123.37 507.32 123.42 507.28 123.45 507.24 123.49 507.23 123.49 507.18 123.53 507.16 123.55 507.13 123.57 507.09 123.61 507.05 123.64 507.02 123.66 506.98 123.68 506.95 123.7 506.9 123.72 506.86 123.75 506.83 123.76 506.81 123.77 506.79 123.78 506.74 123.8 506.68 123.81 506.58 123.84 506.51 123.86 506.45 123.88 506.4 123.89 506.31 123.91 506.24 123.93 506.17 123.95 506.14 123.95 506.13 123.96 506.11 123.97 506.08 123.98 506.06 123.98 506.04 123.98 506.03 123.99 505.99 124 505.96 124 505.93 124 505.85 123.99 505.78 123.99 505.72 123.99 505.68 123.99 505.65 123.98 505.58 123.97 505.5 123.96 505.44 123.95 505.4 123.94 505.35 123.92 505.29 123.91 505.27 123.91 505.25 123.9 505.22 123.9 505.19 123.92 505.15 123.95 505.1 123.97 505.05 124 504.99 124.03 504.98 124.04 504.93 124.07 504.86 124.1 504.81 124.12 504.8 124.13 504.74 124.15 504.69 124.17 504.65 124.19 504.61 124.21 504.54 124.23 504.51 124.24 504.49 124.25 504.47 124.26 504.43 124.28 504.4 124.28 504.39 124.28 504.34 124.28 504.28 124.28 504.21 124.29 504.17 124.28 504.14 124.28 504.1 124.28 504.05 124.27 503.98 124.26 503.93 124.25 503.86 124.24 503.8 124.23 503.75 124.22 503.69 124.22 503.68 124.21 503.66 124.21 503.64 124.21 503.63 124.2 503.59 124.2 503.55 124.19 503.26 124.13 503.24 124.12 502.84 124.03 502.75 124.01 502.73 124.02 502.71 124.03 502.65 124.05 502.61 124.07 502.3 124.2 502.28 124.21 502.24 124.24 502.21 124.25 502.2 124.26 501.99 124.37 501.94 124.39 501.93 124.4 501.84 124.45 501.76 124.49 501.76 124.49 501.48 124.6 501.46 124.61 501.23 124.7 501.01 124.78 500.86 124.84 500.49 124.97 500.26 125.06 500.15 125.05 500.14 125.05 500.12 125.05 500.06 125.04 500.05 125.04 499.85 125.03 499.84 125.02 499.83 125.02 499.6 125 499.48 124.99 499.47 124.98 499.46 124.98 499.44 124.98 499.4 124.97 499.36 124.96 499.3 124.95 499.28 124.95 499.23 124.94 499.22 124.94 499.16 124.93 499.15 124.93 499.11 124.92 499.1 124.92 499.09 124.89 499.08 124.87 499.08 124.84 499.07 124.81 499.06 124.77 499.05 124.73 499.04 124.69 499.02 124.65 499 124.62 498.99 124.59 498.98 124.58 498.98 124.56 498.98 124.51 498.99 124.47 498.99 124.43 498.98 124.4 498.96 124.32 498.93 124.24 498.91 124.21 498.91 124.19 498.91 124.17 498.91 124.15 498.93 124.11 498.95 124.07 498.96 124.04 498.97 124 498.98 123.98 498.98 123.96 498.98 123.94 498.95 123.95 498.9 123.96 498.86 123.97 498.83 123.97 498.81 123.97 498.79 123.98 498.78 123.98 498.76 123.99 498.74 124 498.72 124.01 498.7 124.03 498.67 124.03 498.64 124.04 498.61 124.04 498.58 124.04 498.56 124.04 498.54 124.05 498.53 124.07 498.52 124.08 498.5 124.1 498.49 124.11 498.48 124.15 498.47 124.18 498.45 124.22 498.43 124.26 498.41 124.29 498.4 124.31 498.4 124.34 498.4 124.37 498.41 124.4 498.42 124.44 498.42 124.47 498.42 124.49 498.41 124.51 498.4 124.53 498.4 124.56 498.41 124.57 498.41 124.6 498.41 124.62 498.42 124.63 498.42 124.65 498.42 124.67 498.42 124.69 498.4 124.72 498.39 124.74 498.38 124.77 498.36 124.82 498.35 124.84 498.34 124.85 498.33 124.86 498.32 124.86 498.31 124.87 498.28 124.87 498.27 124.88 498.25 124.87 498.23 124.87 498.2 124.86 498.17 124.85 498.14 124.85 498.13 124.85 498.12 124.85 498.11 124.86 498.09 124.87 498.07 124.89 498.05 124.91 498.04 124.93 498.01 124.97 497.98 125.02 497.95 125.05 497.92 125.08 497.89 125.12 497.86 125.16 497.84 125.19 497.82 125.22 497.8 125.25 497.78 125.28 497.75 125.32 497.73 125.33 497.72 125.35 497.71 125.36 497.7 125.38 497.69 125.42 497.68 125.49 497.67 125.53 497.67 125.55 497.67 125.57 497.67 125.59 497.69 125.61 497.71 125.63 497.72 125.65 497.73 125.67 497.75 125.71 497.78 125.76 497.8 125.78 497.82 125.81 497.82 125.84 497.82 125.86 497.82 125.88 497.81 125.91 497.8 125.93 497.78 125.95 497.76 125.97 497.74 125.99 497.72 126.01 497.7 126.02 497.68 126.03 497.67 126.04 497.65 126.06 497.62 126.08 497.59 126.1 497.56 126.11 497.54 126.11 497.51 126.12 497.48 126.12 497.45 126.12 497.44 126.13 497.42 126.13 497.4 126.14 497.37 126.15 497.34 126.18 497.32 126.2 497.29 126.21 497.25 126.22 497.23 126.23 497.21 126.23 497.19 126.23 497.16 126.22 497.12 126.21 497.09 126.2 497.06 126.19 497.04 126.18 497.02 126.17 497 126.16 496.99 126.15 496.98 126.13 496.96 126.1 496.93 126.08 496.91 126.06 496.88 126.05 496.85 126.04 496.82 126.04 496.79 126.04 496.77 126.05 496.74 126.06 496.7 126.07 496.68 126.07 496.67 126.06 496.65 126.05 496.64 126.04 496.62 126.02 496.6 125.99 496.59 125.98 496.57 125.97 496.53 125.96 496.49 125.95 496.46 125.94 496.44 125.94 496.42 125.94 496.4 125.94 496.38 125.94 496.35 125.95 496.33 125.95 496.29 125.95 496.25 125.94 496.22 125.94 496.18 125.93 496.16 125.93 496.14 125.93 496.12 125.94 496.1 125.95 496.08 125.96 496.04 125.98 496 125.99 495.98 126 495.94 126.01 495.91 126.01 495.89 126.01 495.87 126 495.86 126 495.85 125.99 495.82 125.97 495.8 125.94 495.79 125.93 495.77 125.92 495.75 125.9 495.73 125.89 495.71 125.87 495.7 125.85 495.69 125.82 495.63 125.8 495.59 125.79 495.57 125.78 495.54 125.78 495.52 125.78 495.5 125.79 495.48 125.8 495.46 125.81 495.45 125.82 495.43 125.84 495.41 125.86 495.4 125.87 495.38 125.89 495.37 125.9 495.34 125.91 495.31 125.92 495.27 125.94 495.22 125.96 495.19 125.97 495.18 125.99 495.16 126.01 495.15 126.02 495.14 126.04 495.12 126.08 495.11 126.11 495.1 126.14 495.09 126.19 495.07 126.22 495.06 126.25 495.05 126.27 495.03 126.3 495 126.33 494.96 126.37 494.92 126.4 494.89 126.42 494.87 126.42 494.85 126.43 494.83 126.42 494.82 126.42 494.8 126.42 494.79 126.41 494.78 126.4 494.77 126.38 494.76 126.37 494.74 126.35 494.72 126.35 494.7 126.34 494.68 126.35 494.65 126.35 494.62 126.37 494.59 126.4 494.55 126.43 494.52 126.46 494.5 126.49 494.5 126.51 494.5 126.53 494.51 126.56 494.51 126.58 494.5 126.61 494.5 126.63 494.48 126.65 494.45 126.68 494.43 126.71 494.4 126.73 494.37 126.75 494.34 126.77 494.31 126.78 494.27 126.8 494.25 126.8 494.22 126.81 494.19 126.81 494.15 126.81 494.11 126.8 494.05 126.8 494.01 126.8 493.97 126.81 493.94 126.81 493.92 126.82 493.89 126.83 493.87 126.84 493.85 126.86 493.82 126.88 493.8 126.9 493.77 126.93 493.75 126.95 493.72 126.98 493.7 127 493.67 127.03 493.66 127.06 493.64 127.08 493.62 127.1 493.6 127.12 493.58 127.15 493.55 127.17 493.51 127.2 493.47 127.22 493.44 127.25 493.42 127.28 493.4 127.3 493.36 127.36 493.34 127.39 493.32 127.42 493.3 127.44 493.28 127.47 493.22 127.58 493.18 127.65 493.13 127.72 493.08 127.77 493.04 127.81 492.99 127.86 492.91 127.95 492.86 128.01 492.8 128.08 492.7 128.16 492.61 128.25 492.59 128.27 492.58 128.29 492.54 128.33 492.47 128.43 492.44 128.45 492.37 128.54 492.24 128.7 492.16 128.8 492.15 128.82 492.11 128.88 492.06 128.99 492.04 129.03 492.03 129.06 492.01 129.08 492 129.11 491.97 129.15 491.93 129.21 491.89 129.26 491.86 129.3 491.82 129.33 491.79 129.37 491.76 129.41 491.74 129.43 491.42 129.75 491.37 129.8 491.31 129.86 491.3 129.88 491.2 129.8 491.12 129.73 491.09 129.7 491.07 129.7 491.01 129.68 490.88 129.64 490.74 129.58 490.61 129.54 490.56 129.52 490.49 129.51 490.3 129.46 490.14 129.42 489.86 129.36 489.8 129.35 489.63 129.3 489.48 129.27 489.47 129.27 489.46 129.27 489.45 129.27 489.05 129.18 489.02 129.17 488.8 129.12 488.78 129.12 488.77 129.11 488.74 129.11 488.66 129.09 488.5 129.05 488.37 129.04 487.69 129.02 486.89 129.37 486.86 129.38 486.81 129.46 486.68 129.54 486.65 129.56 486.3 129.8 486.22 129.86 485.93 130.06 485.9 130.08 485.36 130.46 485.23 130.43 485.09 130.4 485.02 130.39 484.45 130.68 484.25 130.78 484.21 130.8 484.18 130.82 483.52 131.16 483.01 131.55 482.91 131.62 482.87 131.61 482.85 131.59 482.81 131.57 482.77 131.53 482.72 131.51 482.68 131.49 482.64 131.45 482.56 131.4 482.5 131.36 482.49 131.35 482.41 131.29 482.34 131.25 482.27 131.2 482.21 131.16 482.2 131.15 482.18 131.14 482.16 131.12 482.14 131.1 482.12 131.06 482.09 131 482.05 130.95 482.01 130.89 481.98 130.85 481.96 130.81 481.93 130.77 481.9 130.71 481.86 130.65 481.83 130.63 481.8 130.59 481.77 130.56 481.76 130.54 481.74 130.52 481.73 130.49 481.72 130.45 481.71 130.41 481.68 130.35 481.67 130.29 481.66 130.25 481.66 130.21 481.66 130.16 481.65 130.12 481.64 130.05 481.64 129.99 481.64 129.98 481.63 129.92 481.63 129.85 481.63 129.81 481.63 129.77 481.62 129.74 481.63 129.69 481.63 129.66 481.64 129.6 481.64 129.54 481.66 129.47 481.66 129.39 481.67 129.32 481.68 129.26 481.69 129.17 481.7 129.1 481.71 129.03 481.72 128.97 481.74 128.88 481.76 128.81 481.8 128.67 481.82 128.6 481.84 128.53 481.87 128.46 481.9 128.39 481.93 128.32 481.96 128.26 481.99 128.18 482.03 128.09 482.06 128.02 482.08 127.96 482.11 127.89 482.14 127.83 482.14 127.82 482.15 127.8 482.14 127.79 482.13 127.77 482.09 127.73 482.05 127.66 482.02 127.61 481.96 127.56 481.91 127.51 481.85 127.45 481.8 127.41 481.75 127.38 481.68 127.33 481.61 127.28 481.53 127.22 481.46 127.17 481.38 127.12 481.32 127.07 481.26 127.03 481.22 127.01 481.18 126.98 481.14 126.96 481.14 126.96 481.09 126.93 481.04 126.91 480.99 126.89 480.93 126.86 480.88 126.84 480.82 126.81 480.79 126.8 480.76 126.79 480.73 126.78 480.69 126.77 480.67 126.75 480.65 126.74 480.64 126.73 480.62 126.71 480.61 126.68 480.6 126.65 480.59 126.6 480.57 126.55 480.55 126.48 480.53 126.43 480.52 126.37 480.5 126.31 480.49 126.28 480.48 126.25 480.46 126.22 480.43 126.19 480.38 126.13 480.36 126.1 480.34 126.08 480.29 126.03 480.25 125.98 480.23 125.95 480.2 125.92 480.16 125.85 480.13 125.78 480.1 125.72 480.08 125.67 480.07 125.66 480.07 125.65 480.04 125.6 480.03 125.56 480 125.51 479.98 125.47 479.95 125.41 479.92 125.36 479.9 125.32 479.89 125.3 479.87 125.28 479.84 125.25 479.8 125.2 479.78 125.18 479.74 125.12 479.71 125.1 479.7 125.09 479.58 124.99 479.5 124.91 479.41 124.83 479.33 124.76 479.26 124.69 479.16 124.59 479.05 124.46 479 124.39 478.94 124.31 478.83 124.19 478.83 124.18 478.81 124.17 478.81 124.17 478.77 124.18 478.67 124.22 478.46 124.31 478.41 124.32 478.38 124.33 478.33 124.34 478.24 124.36 478.23 124.37 478.19 124.4 478.15 124.42 478.1 124.43 478.08 124.43 477.9 124.39 477.69 124.34 477.5 124.19 477.37 124.15 477.1 124.08 476.97 124.04 476.83 123.92 476.65 123.75 476.49 123.6 476.38 123.5 476.38 123.5 476.37 123.49 476.34 123.47 476.11 123.32 476 123.25 475.95 123.22 475.88 123.18 475.84 123.16 475.82 123.14 475.78 123.08 475.67 122.92 475.53 122.74 475.46 122.66 475.43 122.63 475.42 122.59 475.39 122.49 475.35 122.3 475.32 122.17 475.19 121.92 475.11 121.75 475.06 121.64 475.02 121.55 474.94 121.38 474.86 121.26 474.82 121.19 474.79 121.15 474.76 121.13 474.7 121.1 474.59 121.03 474.55 121.01 474.53 121 474.48 120.99 474.28 120.95 474.19 120.92 474.08 120.89 474.03 120.91 473.96 120.93 473.83 121 473.75 121.03 473.71 121.04 473.69 121.04 473.68 121.05 473.56 121.04 473.42 121.04 473.34 121.03 473.27 121 473.15 120.94 473.12 120.94 473.02 120.94 472.96 120.95 472.94 120.95 472.93 120.96 472.92 120.95 472.91 120.93 472.89 120.92 472.89 120.91 472.88 120.89 472.88 120.88 472.87 120.85 472.86 120.81 472.86 120.8 472.85 120.75 472.83 120.7 472.83 120.69 472.82 120.63 472.82 120.62 472.8 120.55 472.78 120.47 472.75 120.39 472.74 120.36 472.74 120.33 472.74 120.29 472.74 120.26 472.74 120.23 472.73 120.2 472.73 120.17 472.73 120.15 472.73 120.13 472.73 120.12 472.72 120.09 472.72 120.08 472.71 120.04 472.71 120.01 472.71 119.98 472.71 119.96 472.71 119.95 472.71 119.92 472.72 119.9 472.72 119.88 472.73 119.87 472.74 119.84 472.75 119.83 472.75 119.8 472.75 119.77 472.75 119.73 472.75 119.71 472.76 119.69 472.76 119.68 472.77 119.6 472.77 119.58 472.78 119.5 472.79 119.41 472.8 119.3 472.8 119.21 472.8 119.19 472.81 119.16 472.81 119.15 472.8 119.14 472.77 118.97 472.75 118.86 472.73 118.77 472.72 118.72 472.68 118.52 472.67 118.46 472.66 118.41 472.64 118.28 472.63 118.27 472.63 118.22 472.6 118.07 472.65 118 472.83 117.75 472.91 117.64 472.97 117.55 473.07 117.41 473.16 117.29 473.17 117.27 473.24 117.17 473.3 117.08 473.33 117.04 473.29 116.89 473.25 116.75 473.21 116.6 473.16 116.42 473.15 116.39 473.12 116.28 473.1 116.18 473.08 116.13 473.04 115.96 473.01 115.87 473.01 115.86 473.03 115.73 473.04 115.72 473.05 115.52 473.05 115.44 472.98 115.31 472.9 115.16 472.83 115.01 472.75 114.87 472.69 114.76 472.7 114.52 472.7 114.28 472.7 114.26 472.7 114.06 472.7 113.97 472.71 113.93 472.81 113.76 473.02 113.43 473.18 113.16 473.33 112.9 473.46 112.7 473.55 112.55 473.65 112.39 473.72 112.27 473.77 112.19 473.78 112.18 473.78 112.14 473.77 112.1 473.75 112.05 473.72 111.99 473.64 111.86 473.62 111.83 473.56 111.72 473.54 111.67 473.48 111.58 473.46 111.54 473.45 111.52 473.44 111.51 473.44 111.49 473.42 111.45 473.38 111.41 473.35 111.37 473.32 111.34 473.31 111.34 473.3 111.32 473.28 111.3 473.26 111.27 473.25 111.24 473.24 111.23 473.23 111.21 473.22 111.18 473.21 111.14 473.21 111.14 473.2 111.09 473.19 111.04 473.18 110.98 473.17 110.95 473.17 110.94 473.17 110.92 473.17 110.91 473.17 110.89 473.17 110.86 473.18 110.82 473.18 110.79 473.19 110.76 473.19 110.74 473.18 110.73 473.16 110.69 473.14 110.57 473.12 110.5 473.08 110.3 473.03 110.1 472.98 109.92 472.93 109.7 472.87 109.46 473.14 109.15 473.25 109.03 473.32 108.95 473.37 108.89 473.47 108.79 473.62 108.61 473.72 108.51 473.78 108.51 473.93 108.51 474.27 108.54 474.33 108.48 474.36 108.45 474.37 108.44 474.44 108.38 474.52 108.3 474.6 108.22 474.67 108.15 474.78 108.04 474.82 108.01 474.95 107.88 475.02 107.82 475.03 107.81 475.07 107.76 475.16 107.62 475.22 107.52 475.28 107.44 475.3 107.4 475.32 107.36 475.33 107.36 475.41 107.23 475.48 107.11 475.55 107.02 475.56 107 475.59 106.97 475.6 106.95 475.62 106.92 475.64 106.89 475.66 106.87 475.68 106.84 475.7 106.81 475.72 106.78 475.79 106.69 475.81 106.66 475.83 106.63 475.85 106.61 475.9 106.54 475.94 106.48 476.04 106.34 476.11 106.23 476.15 106.17 476.17 106.15 476.24 106.05 476.33 105.93 476.37 105.86 476.46 105.74 476.6 105.56 476.64 105.5 476.67 105.45 476.78 105.31 476.8 105.27 476.9 105.14 476.92 105.11 477.03 104.97 477.07 104.93 477.08 104.92 477.18 104.88 477.31 104.82 477.43 104.8 477.51 104.8 477.58 104.79 477.78 104.77 477.9 104.76 477.91 104.76 478.1 104.73 478.17 104.72 478.23 104.71 478.38 104.69 478.52 104.66 478.61 104.65 478.67 104.64 478.87 104.61 478.88 104.6 478.98 104.59 479.12 104.57 479.27 104.66 479.34 104.7 479.36 104.71 479.49 104.79 479.56 104.81 479.64 104.82 479.73 104.84 479.83 104.86 479.9 104.88 479.94 104.89 479.96 104.9 480.01 104.91 480.03 104.91 480.07 104.92 480.13 104.94 480.2 104.96 480.25 104.98 480.31 105 480.34 105.01 480.42 105.03 480.44 105.04 480.45 105.04 480.46 105.04 480.47 105.05 480.48 105.05 480.49 105.07 480.49 105.09 480.5 105.13 480.51 105.16 480.53 105.25 480.56 105.36 480.59 105.43 480.68 105.47 480.74 105.49 480.78 105.5 480.81 105.51 480.89 105.54 481.01 105.58 481.11 105.6 481.17 105.62 481.18 105.62 481.21 105.59 481.22 105.58 481.24 105.56 481.27 105.54 481.29 105.52 481.32 105.5 481.37 105.48 481.39 105.45 481.4 105.44 481.41 105.42 481.42 105.41 481.43 105.4 481.44 105.39 481.44 105.37 481.45 105.35 481.44 105.34 481.44 105.32 481.44 105.31 481.44 105.3 481.44 105.29 481.44 105.27 481.44 105.25 481.43 105.22 481.43 105.18 481.43 105.16 481.44 105.14 481.44 105.12 481.46 105.09 481.47 105.08 481.48 105.06 481.52 105.02 481.55 105 481.56 104.99 481.59 104.97 481.61 104.95 481.63 104.95 481.65 104.94 481.67 104.94 481.69 104.93 481.71 104.92 481.72 104.92 481.73 104.91 481.74 104.9 481.75 104.89 481.76 104.89 481.76 104.88 481.77 104.87 481.77 104.87 481.78 104.86 481.79 104.85 481.8 104.84 481.82 104.83 481.83 104.83 481.85 104.83 481.86 104.83 481.88 104.83 481.9 104.83 481.92 104.84 481.94 104.85 481.95 104.85 481.97 104.86 481.98 104.87 481.99 104.87 482.01 104.88 482.03 104.88 482.07 104.88 482.09 104.87 482.12 104.86 482.13 104.84 482.15 104.82 482.17 104.8 482.18 104.78 482.2 104.76 482.22 104.73 482.24 104.71 482.25 104.69 482.26 104.67 482.28 104.65 482.29 104.63 482.29 104.61 482.3 104.6 482.31 104.57 482.32 104.56 482.32 104.54 482.32 104.52 482.32 104.51 482.32 104.49 482.32 104.48 482.31 104.47 482.31 104.45 482.3 104.43 482.3 104.41 482.29 104.39 482.29 104.36 482.28 104.36 482.28 104.33 482.27 104.31 482.27 104.29 482.27 104.27 482.27 104.25 482.28 104.23 482.28 104.23 482.29 104.21 482.31 104.2 482.31 104.2 482.33 104.19 482.35 104.18 482.36 104.17 482.39 104.16 482.4 104.16 482.43 104.14 482.45 104.13 482.47 104.13 482.52 104.12 482.55 104.12 482.58 104.13 482.6 104.13 482.63 104.13 482.64 104.13 482.69 104.12 482.73 104.11 482.76 104.09 482.77 104.08 482.81 104.06 482.84 104.04 482.87 104.02 482.9 104 482.92 103.98 482.93 103.97 482.95 103.95 482.96 103.94 482.98 103.92 482.99 103.91 483 103.91 483 103.9 483.01 103.89 483.02 103.88 483.03 103.88 483.04 103.87 483.07 103.86 483.08 103.85 483.11 103.84 483.15 103.83 483.17 103.81 483.19 103.81 483.22 103.8 483.24 103.8 483.26 103.79 483.28 103.79 483.31 103.8 483.32 103.8 483.34 103.8 483.36 103.8 483.38 103.79 483.4 103.79 483.42 103.79 483.44 103.78 483.46 103.77 483.49 103.77 483.5 103.76 483.53 103.75 483.55 103.75 483.57 103.74 483.59 103.74 483.61 103.74 483.63 103.74 483.65 103.74 483.67 103.73 483.69 103.73 483.71 103.73 483.72 103.73 483.76 103.74 483.77 103.75 483.79 103.75 483.8 103.76 483.82 103.77 483.84 103.78 483.86 103.78 483.87 103.78 483.89 103.79 483.9 103.8 483.91 103.81 483.93 103.83 483.95 103.85 483.96 103.87 483.97 103.89 483.97 103.91 483.98 103.92 483.98 103.94 483.98 103.95 483.98 103.96 483.99 103.98 484 103.99 484.03 104.03 484.06 104.06 484.09 104.09 484.13 104.13 484.17 104.18 484.2 104.21 484.23 104.23 484.26 104.26 484.28 104.27 484.3 104.26 484.31 104.25 484.31 104.25 484.32 104.24 484.34 104.23 484.35 104.22 484.39 104.2 484.4 104.19 484.41 104.18 484.42 104.18 484.43 104.17 484.44 104.16 484.45 104.15 484.47 104.14 484.48 104.13 484.5 104.11 484.51 104.11 484.53 104.1 484.54 104.08 484.59 104.04 484.64 104.01 484.71 103.95 484.73 103.93 484.76 103.9 484.81 103.86 484.87 103.82 484.89 103.8 484.94 103.76 484.96 103.75 484.99 103.72 485.01 103.71 485.02 103.7 485.03 103.69 485.04 103.67 485.05 103.65 485.05 103.62 485.05 103.6 485.04 103.57 485.04 103.55 485.04 103.55 485.04 103.53 485.03 103.52 485.03 103.51 485.03 103.5 485.03 103.48 485.02 103.45 485.02 103.44 485.02 103.43 485.02 103.42 485.02 103.4 485.03 103.38 485.03 103.37 485.03 103.36 485.03 103.35 485.04 103.34 485.04 103.33 485.05 103.32 485.05 103.32 485.06 103.31 485.08 103.3 485.1 103.29 485.13 103.29 485.15 103.28 485.16 103.28 485.16 103.27 485.18 103.26 485.19 103.25 485.21 103.23 485.23 103.21 485.24 103.19 485.25 103.18 485.26 103.15 485.27 103.13 485.28 103.12 485.29 103.1 485.29 103.08 485.3 103.08 485.31 103.05 485.32 103.02 485.33 102.99 485.35 102.96 485.36 102.93 485.37 102.89 485.38 102.88 485.39 102.86 485.4 102.84 485.42 102.82 485.44 102.81 485.46 102.8 485.49 102.78 485.51 102.77 485.54 102.75 485.59 102.72 485.62 102.7 485.65 102.69 485.68 102.67 485.69 102.66 485.71 102.66 485.73 102.67 485.75 102.67 485.78 102.66 485.8 102.66 485.82 102.66 485.85 102.66 485.88 102.67 485.9 102.66 485.93 102.66 485.97 102.65 486.01 102.65 486.03 102.64 486.07 102.63 486.1 102.63 486.14 102.63 486.17 102.63 486.19 102.63 486.22 102.62 486.25 102.61 486.28 102.59 486.3 102.59 486.34 102.57 486.37 102.56 486.4 102.55 486.42 102.54 486.46 102.54 486.48 102.55 486.5 102.55 486.53 102.57 486.55 102.58 486.58 102.6 486.6 102.61 486.62 102.62 486.64 102.63 486.66 102.64 486.69 102.66 486.71 102.66 486.73 102.66 486.74 102.66 486.76 102.66 486.78 102.65 486.8 102.64 486.84 102.62 486.86 102.61 486.9 102.59 486.93 102.57 486.95 102.56 486.98 102.53 486.99 102.52 487 102.5 487.02 102.48 487.04 102.45 487.05 102.43 487.06 102.42 487.07 102.41 487.08 102.37 487.09 102.36 487.11 102.32 487.13 102.3 487.15 102.27 487.15 102.26 487.17 102.24 487.19 102.22 487.19 102.21 487.2 102.2 487.22 102.18 487.23 102.18 487.23 102.17 487.24 102.16 487.26 102.14 487.28 102.13 487.29 102.13 487.31 102.11 487.32 102.11 487.33 102.1 487.34 102.1 487.35 102.09 487.37 102.08 487.4 102.07 487.42 102.07 487.44 102.07 487.45 102.07 487.48 102.06 487.49 102.07 487.51 102.07 487.53 102.08 487.54 102.09 487.55 102.09 487.57 102.1 487.58 102.12 487.6 102.14 487.61 102.16 487.63 102.17 487.65 102.19 487.68 102.21 487.68 102.22 487.7 102.24 487.73 102.26 487.74 102.26 487.74 102.27 487.75 102.28 487.76 102.28 487.78 102.31 487.8 102.33 487.81 102.34 487.82 102.35 487.83 102.36 487.85 102.39 487.86 102.42 487.88 102.43 487.88 102.44 487.89 102.45 487.9 102.45 487.91 102.46 487.93 102.47 487.94 102.47 487.95 102.47 487.96 102.47 487.97 102.47 487.98 102.46 487.99 102.46 488 102.45 488.01 102.44 488.02 102.42 488.03 102.4 488.04 102.39 488.05 102.38 488.05 102.36 488.07 102.33 488.09 102.29 488.09 102.28 488.1 102.26 488.1 102.24 488.11 102.23 488.11 102.21 488.12 102.19 488.13 102.18 488.13 102.17 488.14 102.16 488.15 102.15 488.16 102.14 488.17 102.13 488.17 102.11 488.19 102.1 488.21 102.07 488.21 102.07 488.23 102.05 488.23 102.04 488.24 102.03 488.25 102.02 488.26 102 488.27 101.99 488.28 101.97 488.29 101.96 488.3 101.94 488.31 101.92 488.32 101.9 488.33 101.89 488.33 101.88 488.34 101.85 488.35 101.83 488.35 101.83 488.36 101.81 488.37 101.79 488.37 101.78 488.39 101.74 488.39 101.73 488.39 101.72 488.4 101.71 488.41 101.68 488.41 101.67 488.42 101.64 488.43 101.63 488.44 101.62 488.44 101.61 488.45 101.61 488.45 101.6 488.47 101.59 488.48 101.58 488.5 101.58 488.51 101.57 488.53 101.57 488.54 101.57 488.55 101.57 488.58 101.56 488.6 101.56 488.61 101.55 488.62 101.55 488.63 101.55 488.65 101.55 488.65 101.54 488.68 101.54 488.69 101.53 488.7 101.53 488.72 101.52 488.74 101.51 488.75 101.51 488.77 101.5 488.79 101.49 488.79 101.48 488.81 101.48 488.82 101.48 488.84 101.47 488.85 101.47 488.87 101.47 488.88 101.49 488.9 101.5 488.91 101.51 488.92 101.53 488.92 101.56 488.93 101.57 488.94 101.59 488.94 101.61 488.96 101.64 488.96 101.65 488.96 101.65 488.97 101.67 488.98 101.68 488.99 101.7 488.99 101.71 489 101.72 489.01 101.72 489.01 101.73 489.02 101.74 489.02 101.74 489.03 101.75 489.05 101.76 489.05 101.77 489.09 101.8 489.1 101.8 489.11 101.82 489.12 101.83 489.12 101.83 489.13 101.84 489.14 101.86 489.15 101.86 489.16 101.88 489.17 101.88 489.18 101.89 489.19 101.9 489.21 101.92 489.22 101.93 489.23 101.94 489.26 101.97 489.28 101.99 489.29 102 489.3 102.01 489.32 102.02 489.33 102.02 489.34 102.03 489.35 102.02 489.37 102.02 489.38 102.02 489.39 102.01 489.4 102.01 489.4 102 489.41 101.99 489.43 101.97 489.45 101.96 489.46 101.94 489.47 101.93 489.49 101.91 489.49 101.91 489.51 101.9 489.52 101.89 489.54 101.88 489.55 101.87 489.56 101.87 489.57 101.86 489.58 101.86 489.59 101.85 489.6 101.84 489.61 101.83 489.62 101.83 489.63 101.82 489.64 101.81 489.65 101.8 489.67 101.8 489.68 101.79 489.69 101.79 489.73 101.77 489.76 101.77 489.77 101.76 489.78 101.76 489.8 101.76 489.82 101.75 489.83 101.75 489.85 101.74 489.86 101.74 489.87 101.74 489.9 101.74 489.91 101.74 489.93 101.74 489.94 101.74 489.96 101.74 489.97 101.74 489.99 101.74 490 101.74 490.02 101.75 490.03 101.76 490.04 101.76 490.05 101.77 490.07 101.78 490.08 101.78 490.09 101.8 490.1 101.8 490.11 101.81 490.12 101.82 490.14 101.83 490.14 101.84 490.16 101.85 490.16 101.86 490.17 101.87 490.18 101.88 490.19 101.89 490.22 101.93 490.23 101.94 490.24 101.96 490.25 101.97 490.26 101.99 490.27 102 490.28 102.01 490.28 102.02 490.3 102.03 490.31 102.04 490.32 102.05 490.33 102.05 490.34 102.06 490.35 102.06 490.35 102.07 490.36 102.07 490.38 102.08 490.39 102.09 490.41 102.09 490.42 102.1 490.44 102.1 490.46 102.11 490.48 102.12 490.5 102.12 490.51 102.13 490.52 102.13 490.54 102.13 490.57 102.14 490.62 102.15 490.62 102.15 490.63 102.16 490.64 102.16 490.65 102.16 490.68 102.16 490.69 102.16 490.7 102.17 490.72 102.17 490.74 102.17 490.76 102.17 490.77 102.18 490.79 102.18 490.8 102.18 490.84 102.19 490.85 102.19 490.86 102.19 490.87 102.2 490.89 102.2 490.9 102.21 490.91 102.22 490.93 102.23 490.95 102.24 490.96 102.25 490.97 102.26 490.99 102.27 491 102.28 491.01 102.29 491.03 102.3 491.04 102.31 491.05 102.31 491.07 102.33 491.09 102.34 491.09 102.34 491.12 102.36 491.13 102.36 491.15 102.37 491.16 102.37 491.18 102.38 491.2 102.38 491.23 102.38 491.25 102.38 491.25 102.39 491.26 102.39 491.27 102.4 Z"/>
</g></svg>