<svg xmlns="http://www.w3.org/2000/svg" version="1.2" baseProfile="tiny" stroke-linecap="round" stroke-linejoin="round" viewBox="228.62 376.52 11.3 17.87"><g xmlns="http://www.w3.org/2000/svg" id="Leza">
<path d="M 228.63 390.52 228.8 390.12 228.93 389.66 229.07 389.17 229.13 388.77 229.21 388.35 229.24 387.85 229.29 387.3 229.41 386.75 229.5 386.3 229.59 385.91 229.8 385.48 230.12 385.14 230.42 384.84 230.64 384.45 230.85 384.16 231.04 383.83 231.14 383.5 231.11 383.28 230.76 382.68 230.5 382.15 230.2 381.61 229.94 381.14 229.82 380.79 229.77 380.2 229.79 379.63 229.91 379.02 229.94 378.42 229.97 378.05 230.05 377.74 230.44 377.54 230.87 377.28 231.2 377.07 231.47 376.94 231.94 376.82 232.47 376.7 232.87 376.6 233.28 376.55 237.61 385.94 238.75 385.69 239.78 386.36 239.89 386.5 239.85 386.79 239.77 387.18 239.77 387.68 239.72 387.97 239.53 388.36 239.25 388.63 238.96 388.88 238.74 389.1 238.68 389.44 238.62 389.7 238.7 390.21 238.71 390.65 238.82 391.19 238.88 391.58 239.06 391.88 239.35 392.19 239.56 392.61 239.67 392.92 239.77 393.23 239.25 393.33 238.86 393.31 238.5 393.14 238.12 393.01 237.69 392.96 237.25 392.93 236.84 392.88 236.41 392.86 235.95 392.81 235.62 392.79 235.34 392.89 235.16 393.04 234.94 393.22 234.6 393.31 234.24 393.36 233.81 393.36 233.28 393.5 232.9 393.63 232.44 393.8 232.08 393.94 231.6 394.17 231.21 394.38 231.1 394.14 230.97 393.78 230.85 393.45 230.63 393.08 230.4 392.67 230.28 392.41 230.11 392.18 229.89 391.84 229.65 391.58 229.46 391.3 229.24 391.08 228.95 390.76 228.63 390.52 Z M 234.83 387.02 235.22 385.93 233.78 384.16 233.05 384.69 234.83 387.02 Z" fill-rule="evenodd"/>
</g></svg>