<svg xmlns="http://www.w3.org/2000/svg" version="1.2" baseProfile="tiny" stroke-linecap="round" stroke-linejoin="round" viewBox="405.6 287.88 18.4 24.25"><g xmlns="http://www.w3.org/2000/svg" id="Lezaun">
<path d="M 409.26 288.9 409.29 288.89 409.35 288.88 409.54 288.83 409.73 288.77 409.9 288.73 409.92 288.73 410.01 288.7 410.11 288.67 410.2 288.65 410.23 288.63 410.28 288.58 410.34 288.53 410.39 288.49 410.41 288.46 410.56 288.34 410.58 288.33 410.71 288.26 410.86 288.18 411.04 288.1 411.19 288.02 411.35 287.94 411.75 287.91 411.88 287.92 412.09 287.92 412.22 287.92 412.39 287.94 412.49 287.95 412.64 287.95 412.82 287.95 413.07 287.95 413.16 287.95 413.23 287.95 413.28 287.95 413.43 287.96 413.58 287.96 413.58 288 413.63 288 413.72 288.02 413.9 288.04 414.01 288.02 414.17 288 414.37 287.98 414.5 287.95 414.68 287.97 414.85 287.99 415.02 288.01 415.11 288.02 415.12 288.02 415.13 288.02 415.14 288.02 415.14 288.02 415.15 288.02 415.46 288.01 415.64 288.15 415.74 288.24 415.78 288.26 415.87 288.32 416.04 288.41 416.13 288.47 416.36 288.63 416.69 288.86 416.91 289.03 417.19 289.23 417.27 289.29 417.36 289.37 417.51 289.5 417.99 289.94 418.13 290.23 418.2 290.37 418.24 290.43 418.36 290.62 418.43 290.73 418.45 290.75 418.47 290.78 418.67 290.96 418.72 291.01 419.11 291.38 419.24 291.49 419.73 292.55 419.75 292.74 419.75 292.76 419.76 292.85 419.76 292.91 419.8 293.4 419.8 293.47 419.79 293.66 419.85 293.93 419.93 294.35 420.03 295.03 420.03 295.07 420.12 295.49 420.12 295.83 420.12 296.52 420.7 297.29 420.74 297.56 420.75 298.02 420.69 298.3 420.56 298.64 420.56 298.85 420.63 299.12 420.59 299.25 420.55 299.39 420.51 299.52 420.48 299.68 420.45 299.82 420.43 299.95 420.43 300.01 420.42 300.07 420.43 300.19 420.43 300.35 420.44 300.6 420.44 300.76 420.45 300.87 420.47 300.97 420.51 301.11 420.56 301.27 420.61 301.45 420.62 301.6 420.61 301.73 420.6 301.86 420.6 301.97 420.58 302.21 420.71 302.31 421.17 302.39 421.51 302.45 422.2 302.86 422.55 302.8 422.65 302.81 422.69 302.82 422.73 302.86 422.76 302.89 422.83 303.01 422.89 303.1 422.97 303.27 423.09 303.47 423.28 303.78 423.5 303.95 423.91 304.29 423.92 304.29 423.93 304.3 423.93 304.3 423.94 304.31 423.98 304.34 423.71 304.4 423.67 304.41 423.26 304.5 423.25 304.51 423.23 304.51 421.6 304.89 421.41 304.73 421.25 304.65 420.92 304.62 420.68 304.66 420.64 304.63 420.61 304.63 420.51 304.98 420.23 305.03 420.18 305.05 420.09 305.18 419.94 305.45 419.94 305.73 419.9 306.15 419.79 306.45 419.64 306.93 419.57 307.27 419.56 307.42 419.51 307.66 419.51 307.76 419.53 307.89 419.6 308.03 419.69 308.17 419.76 308.3 419.71 308.34 419.7 308.35 419.72 308.37 419.72 308.38 419.72 308.43 419.73 308.48 419.75 308.58 419.76 308.65 419.77 308.74 419.79 308.84 419.8 308.94 419.82 309.07 419.84 309.12 419.85 309.18 419.87 309.28 419.88 309.36 419.89 309.45 419.89 309.53 419.89 309.59 419.87 309.65 419.84 309.75 419.81 309.83 419.77 309.96 419.72 310.1 419.72 310.11 419.71 310.12 419.67 310.21 419.65 310.27 419.64 310.3 419.66 310.32 419.67 310.33 419.68 310.37 419.68 310.4 419.7 310.44 419.7 310.45 419.72 310.48 419.74 310.53 419.76 310.56 419.78 310.57 419.79 310.61 419.8 310.63 419.82 310.64 419.84 310.66 419.86 310.68 419.89 310.7 419.91 310.73 419.93 310.77 419.93 310.77 419.94 310.81 419.93 310.85 419.91 310.88 419.87 310.94 419.86 310.95 419.84 310.98 419.83 311 419.8 311.06 419.78 311.09 419.78 311.11 419.74 311.27 419.73 311.34 419.73 311.39 419.75 311.48 419.79 311.53 419.83 311.57 419.82 311.59 419.81 311.61 419.77 311.66 419.75 311.67 419.71 311.73 419.71 311.84 419.71 312.1 419.63 312.09 419.57 312.08 419.54 312.08 419.52 312.08 419.45 312.06 419.39 312.06 419.35 312.05 419.31 312.04 419.29 312.04 419.28 312.03 419.23 312.01 419.19 311.97 419.13 311.91 419.07 311.86 419.05 311.84 419.02 311.82 418.97 311.79 418.93 311.76 418.86 311.73 418.79 311.72 418.73 311.69 418.68 311.67 418.61 311.64 418.56 311.62 418.47 311.58 418.4 311.55 418.35 311.53 418.27 311.47 418.23 311.44 418.18 311.39 418.12 311.34 418.06 311.27 418.01 311.2 417.95 311.11 417.88 311.01 417.84 310.96 417.81 310.94 417.75 310.93 417.66 310.9 417.64 310.89 417.54 310.86 417.45 310.85 417.38 310.83 417.37 310.83 417.35 310.83 417.33 310.83 417.32 310.83 417.31 310.83 417.24 310.85 417.19 310.85 417.15 310.85 417.11 310.85 417.08 310.85 417.08 310.8 417.09 310.68 417.1 310.63 417.11 310.6 417.11 310.58 417.12 310.54 417.12 310.53 417.14 310.46 417.15 310.42 417.16 310.38 417.12 310.36 417.11 310.34 417.09 310.34 417.04 310.34 417.03 310.28 417.02 310.18 417.01 310.1 417 310 416.99 309.93 416.99 309.91 417 309.89 417 309.86 417.01 309.85 417.01 309.83 417.01 309.81 416.99 309.75 416.97 309.7 416.95 309.65 416.93 309.6 416.92 309.58 416.88 309.47 416.83 309.38 416.79 309.29 416.79 309.28 416.75 309.21 416.72 309.17 416.68 309.13 416.64 309.09 416.61 309.04 416.58 308.97 416.55 308.92 416.54 308.87 416.52 308.83 416.49 308.79 416.47 308.77 416.46 308.75 416.45 308.74 416.43 308.68 416.4 308.58 416.36 308.5 416.32 308.39 416.27 308.27 416.24 308.19 416.21 308.08 416.18 308 416.16 307.91 416.13 307.79 416.1 307.66 416.08 307.57 416.05 307.48 416.03 307.44 416.01 307.38 416 307.36 416.01 307.29 416.01 307.24 416 307.15 415.99 307.09 415.98 307.04 415.96 307.03 415.87 307.02 415.76 307.01 415.67 307 415.56 306.99 415.47 306.97 415.43 306.95 415.36 306.95 415.25 306.95 415.15 306.94 415.06 306.93 415.01 306.93 414.95 306.93 414.92 306.92 414.84 306.89 414.76 306.86 414.68 306.83 414.67 306.83 414.65 306.82 414.59 306.81 414.42 306.75 414.24 306.7 414.02 306.63 413.79 306.55 413.56 306.47 413.37 306.4 413.33 306.39 413.3 306.37 413.28 306.35 413.26 306.28 413.23 306.18 413.22 306.15 413.21 306.11 413.21 306.03 413.2 305.97 413.2 305.92 413.19 305.9 413.18 305.86 413.15 305.79 413.13 305.74 413.09 305.67 413.06 305.59 413.03 305.56 413 305.49 412.98 305.44 412.97 305.4 412.95 305.33 412.93 305.23 412.9 305.12 412.87 305.02 412.84 304.88 412.82 304.8 412.64 304.72 412.58 304.71 412.47 304.67 412.45 304.66 412.38 304.62 412.28 304.65 412.19 304.69 412.08 304.72 411.93 304.75 411.91 304.76 411.78 304.8 411.75 304.81 411.62 304.84 411.47 304.89 411.37 304.92 411.18 304.96 411.02 305.01 410.85 305.07 410.76 305.1 410.64 305.14 410.51 305.17 410.37 305.2 410.29 305.22 410.18 305.24 410.08 305.26 410.02 305.26 409.94 305.28 409.9 305.29 409.84 305.32 409.75 305.35 409.67 305.38 409.55 305.44 409.42 305.51 409.32 305.55 409.17 305.62 409.09 305.66 409.03 305.68 408.94 305.71 408.87 305.74 408.81 305.77 408.79 305.78 408.76 305.79 408.69 305.84 408.66 305.85 408.56 305.67 408.54 305.61 408.53 305.54 408.54 305.49 408.54 305.48 408.56 305.43 408.6 305.35 408.64 305.25 408.66 305.14 408.68 304.98 408.68 304.86 408.69 304.71 408.69 304.56 408.69 304.43 408.69 304.3 408.69 304.11 408.7 303.91 408.7 303.88 408.56 303.64 408.55 303.63 408.51 303.57 408.31 303.6 408.31 303.63 408.11 303.68 408.01 303.7 407.69 303.73 407.48 303.76 407.37 303.77 407.26 303.78 407.21 303.78 407.18 303.78 407.16 303.78 407.15 303.78 407.09 303.77 407.02 303.75 406.94 303.71 406.85 303.66 406.77 303.59 406.7 303.52 406.66 303.48 406.6 303.44 406.55 303.4 406.48 303.37 406.4 303.33 406.29 303.27 406.19 303.2 406.05 303.11 405.93 303.01 405.78 302.88 405.7 302.8 405.66 302.75 405.64 302.71 405.63 302.64 405.64 302.56 405.66 302.48 405.69 302.4 405.74 302.27 405.79 302.13 405.84 301.99 405.85 301.94 405.86 301.86 405.84 301.73 405.81 301.55 405.78 301.44 405.75 301.33 405.73 301.21 405.7 301.06 405.68 300.95 405.67 300.89 405.68 300.8 405.68 300.73 405.67 300.67 405.65 300.59 405.63 300.52 405.6 300.48 405.69 300.48 405.79 300.47 405.86 300.47 405.9 300.47 405.98 300.46 406.06 300.44 406.12 300.43 406.15 300.42 406.22 300.41 406.33 300.39 406.35 300.38 406.38 300.37 406.41 300.35 406.42 300.34 406.44 300.29 406.48 300.21 406.5 300.16 406.49 300.13 406.5 300.1 406.49 299.99 406.5 299.88 406.49 299.73 406.49 299.63 406.5 299.61 406.51 299.54 406.52 299.48 406.52 299.42 406.53 299.35 406.55 299.28 406.55 299.17 406.56 299.05 406.56 298.95 406.57 298.86 406.57 298.78 406.57 298.74 406.57 298.7 406.57 298.65 406.55 298.51 406.53 298.36 406.52 298.28 406.52 298.2 406.51 298.11 406.5 298.04 406.48 297.95 406.46 297.85 406.45 297.75 406.45 297.68 406.45 297.59 406.45 297.52 406.46 297.46 406.48 297.4 406.49 297.36 406.51 297.33 406.54 297.28 406.58 297.21 406.6 297.18 406.63 297.14 406.66 297.1 406.69 297.07 406.73 297.02 406.77 297 406.8 296.98 406.83 296.95 406.87 296.93 406.92 296.9 406.99 296.86 407.06 296.83 407.05 296.79 407.04 296.74 407.03 296.68 407.03 296.65 407.04 296.62 407.06 296.59 407.08 296.57 407.11 296.56 407.14 296.55 407.17 296.55 407.22 296.55 407.23 296.48 407.23 296.39 407.24 296.32 407.24 296.23 407.23 296.1 407.23 296.05 407.22 296.01 407.22 295.95 407.23 295.91 407.23 295.84 407.22 295.75 407.22 295.71 407.23 295.61 407.23 295.6 407.24 295.53 407.25 295.46 407.26 295.42 407.27 295.37 407.27 295.32 407.26 295.26 407.26 295.22 407.25 295.17 407.26 295.12 407.26 295.08 407.26 295.07 407.26 295.04 407.27 295.02 407.28 294.99 407.31 294.95 407.32 294.91 407.34 294.85 407.34 294.78 407.35 294.69 407.35 294.63 407.35 294.57 407.35 294.52 407.34 294.47 407.33 294.44 407.31 294.4 407.29 294.38 407.26 294.36 407.23 294.33 407.2 294.3 407.17 294.26 407.15 294.23 407.14 294.21 407.13 294.18 407.13 294.15 407.12 294.12 407.11 294.09 407.09 294.05 407.07 294.02 407.06 293.99 407.05 293.96 407.04 293.93 407.04 293.89 407.05 293.82 407.06 293.75 407.07 293.71 407.07 293.69 407.09 293.68 407.11 293.67 407.14 293.67 407.16 293.66 407.17 293.65 407.18 293.63 407.19 293.59 407.21 293.53 407.21 293.5 407.21 293.46 407.2 293.44 407.2 293.43 407.19 293.4 407.17 293.37 407.16 293.34 407.14 293.32 407.13 293.29 407.16 293.28 407.21 293.25 407.25 293.23 407.29 293.2 407.34 293.17 407.36 293.15 407.39 293.11 407.45 293.05 407.52 293.01 407.59 292.97 407.65 292.94 407.69 292.91 407.76 292.87 407.88 292.8 408.01 292.71 408.16 292.62 408.31 292.54 408.42 292.52 408.63 292.5 408.83 292.47 409.16 292.45 409.33 292.44 409.49 292.44 409.67 292.44 409.8 292.43 409.81 292.33 409.81 292.14 409.81 291.97 409.8 291.73 409.78 291.56 409.77 291.46 409.74 291.12 409.73 291.02 409.72 290.89 409.71 290.77 409.7 290.65 409.69 290.51 409.68 290.36 409.68 290.25 409.67 290.14 409.66 290.05 409.64 289.99 409.6 289.79 409.55 289.6 409.52 289.5 409.49 289.41 409.45 289.32 409.38 289.17 409.33 289.06 409.3 288.97 409.26 288.9 Z"/>
</g></svg>