<svg xmlns="http://www.w3.org/2000/svg" version="1.2" baseProfile="tiny" stroke-linecap="round" stroke-linejoin="round" viewBox="724.3 178.63 20.33 22.08"><g xmlns="http://www.w3.org/2000/svg" id="Ligi-Atherei">
<path d="M 737.5 178.66 738.13 178.9 738.22 178.95 738.65 179.11 739.43 179.47 739.86 179.58 739.89 180.02 739.95 180.61 740.02 181.21 740.08 181.8 740.15 182.39 740.21 183.2 740.28 183.87 740.35 184.53 740.41 185.19 741.43 185.99 741.84 186.35 742.38 186.77 742.44 186.86 743.3 187.66 743.41 188.11 743.56 188.67 743.77 189.53 743.86 189.88 743.56 190.41 743.55 190.44 743.56 190.47 743.55 190.52 743.55 190.54 743.55 190.56 743.55 190.58 743.55 190.61 743.55 190.64 743.56 190.65 743.57 190.68 743.58 190.71 743.59 190.74 743.6 190.76 743.6 190.79 743.59 190.82 743.59 190.85 743.58 190.88 743.58 190.91 743.59 190.96 743.6 190.98 743.62 191.03 743.64 191.06 743.68 191.12 743.71 191.15 743.73 191.17 743.78 191.22 743.8 191.24 743.82 191.25 743.86 191.29 743.89 191.34 743.9 191.36 743.92 191.38 743.95 191.4 743.96 191.42 743.98 191.44 744.01 191.46 744.03 191.48 744.06 191.5 744.08 191.51 744.09 191.53 744.1 191.55 744.13 191.56 744.15 191.57 744.17 191.58 744.2 191.59 744.21 191.62 744.21 191.64 744.22 191.66 744.24 191.68 744.26 191.72 744.26 191.74 744.25 191.77 744.26 191.79 744.26 191.82 744.26 191.84 744.27 191.87 744.26 191.89 744.25 191.91 744.24 191.93 744.22 191.95 744.22 191.96 744.23 191.98 744.22 191.99 744.2 192 744.18 192.02 744.16 192.04 744.14 192.06 744.13 192.07 744.11 192.09 744.09 192.12 744.07 192.15 744.06 192.17 744.04 192.2 744.03 192.21 744.01 192.24 744 192.27 744 192.3 744.01 192.32 744.01 192.36 744.02 192.38 744.04 192.4 744.06 192.42 744.09 192.44 744.11 192.45 744.13 192.47 744.15 192.49 744.17 192.5 744.19 192.51 744.21 192.53 744.23 192.54 744.24 192.56 744.26 192.58 744.29 192.6 744.31 192.6 744.33 192.62 744.35 192.63 744.37 192.63 744.39 192.64 744.41 192.66 744.43 192.67 744.44 192.68 744.47 192.69 744.5 192.7 744.51 192.7 744.53 192.71 744.55 192.73 744.56 192.75 744.56 192.77 744.56 192.8 744.56 192.82 744.57 192.85 744.58 192.87 744.6 192.9 744.61 192.93 744.61 192.95 744.61 192.98 744.62 193.01 744.63 193.04 744.63 193.07 744.62 193.11 744.61 193.14 744.59 193.16 744.58 193.18 744.56 193.21 744.55 193.23 744.53 193.25 744.5 193.27 744.48 193.29 744.47 193.31 744.45 193.34 744.44 193.36 744.43 193.39 744.42 193.42 744.42 193.44 744.4 193.47 744.39 193.49 744.38 193.51 744.38 193.54 744.38 193.56 744.38 193.57 744.4 193.6 744.41 193.63 744.43 193.64 744.46 193.65 744.47 193.65 744.49 193.66 744.51 193.67 744.52 193.68 744.54 193.7 744.55 193.72 744.55 193.74 744.57 193.77 744.56 193.79 744.55 193.83 744.54 193.84 744.51 193.87 744.49 193.89 744.46 193.9 744.45 193.92 744.42 193.95 744.41 193.97 744.4 194 744.4 194.03 744.39 194.06 744.39 194.09 744.39 194.13 744.38 194.17 744.38 194.2 744.37 194.24 744.37 194.27 744.37 194.3 744.37 194.33 744.38 194.35 744.38 194.38 744.37 194.42 744.35 194.45 744.33 194.48 744.31 194.5 744.29 194.53 744.28 194.56 744.27 194.59 744.28 194.62 744.29 194.64 744.3 194.66 744.3 194.69 744.31 194.72 744.3 194.75 744.29 194.79 744.28 194.81 744.26 194.85 744.25 194.87 744.24 194.91 744.23 194.94 744.22 194.97 744.21 195 744.21 195.03 744.21 195.05 744.2 195.09 744.19 195.11 744.19 195.14 744.2 195.17 744.21 195.2 744.23 195.23 744.23 195.26 744.22 195.28 744.21 195.3 744.19 195.33 744.18 195.35 744.16 195.38 744.15 195.41 744.14 195.45 744.13 195.48 744.13 195.51 744.12 195.54 744.11 195.57 744.11 195.6 744.11 195.64 744.1 195.67 744.09 195.7 744.08 195.72 744.06 195.74 744.03 195.75 744.01 195.78 744.01 195.81 744 195.84 744 195.89 744 195.93 743.99 195.96 743.99 196 743.98 196.07 743.98 196.1 743.97 196.12 743.98 196.14 743.98 196.16 743.98 196.19 743.97 196.21 743.96 196.22 743.95 196.24 743.94 196.26 743.92 196.28 743.91 196.31 743.9 196.33 743.9 196.36 743.89 196.38 743.9 196.41 743.91 196.43 743.91 196.45 743.92 196.48 743.92 196.5 743.91 196.52 743.9 196.54 743.89 196.56 743.9 196.58 743.9 196.61 743.9 196.64 743.9 196.66 743.9 196.68 743.91 196.7 743.92 196.72 743.91 196.75 743.91 196.77 743.9 196.8 743.9 196.82 743.9 196.84 743.91 196.86 743.92 196.89 743.92 196.91 743.92 196.93 743.76 197.8 743.58 198.76 743.52 198.68 743.5 198.66 743.45 198.64 743.45 198.45 743.3 198.35 742.84 198.06 742.65 197.98 742.35 197.57 742.28 197.53 742.3 197.09 742.26 196.27 742.22 196.23 742.19 196.2 742.16 196.17 742.13 196.15 742.1 196.13 742.08 196.11 742.04 196.04 742.02 195.99 741.97 195.91 741.95 195.87 741.93 195.84 741.92 195.82 741.92 195.8 741.94 195.79 741.96 195.77 741.98 195.74 741.99 195.69 741.99 195.65 742.01 195.54 742.02 195.44 742.02 195.42 742.02 195.4 742 195.36 741.98 195.31 741.94 195.25 741.9 195.19 741.87 195.13 741.84 195.06 741.81 195 741.78 194.93 741.75 194.85 741.72 194.78 741.72 194.76 741.69 194.72 741.65 194.69 741.63 194.64 741.61 194.61 741.6 194.55 741.58 194.46 741.57 194.42 741.55 194.36 741.53 194.3 741.51 194.23 741.49 194.15 741.47 194.09 741.44 194.03 741.42 193.99 741.39 193.96 741.38 193.95 740.59 194.64 740.25 194.76 739.53 195.35 739.29 195.31 738.93 195.17 738.9 195.18 738.87 195.2 738.84 195.23 738.81 195.28 738.8 195.32 738.8 195.36 738.8 195.4 738.79 195.45 738.77 195.48 738.75 195.52 738.72 195.56 738.7 195.58 738.66 195.62 738.62 195.65 738.59 195.68 738.56 195.69 738.53 195.72 738.51 195.75 738.49 195.79 738.47 195.83 738.45 195.88 738.44 195.92 738.44 195.96 738.43 196 738.44 196.05 738.44 196.09 738.43 196.13 738.41 196.17 738.38 196.21 738.35 196.25 738.34 196.28 738.32 196.32 738.31 196.36 738.31 196.39 738.32 196.49 738.31 196.53 738.3 196.56 738.28 196.6 738.26 196.64 738.22 196.67 738.18 196.69 738.13 196.69 738.09 196.69 738.01 196.69 737.98 196.7 737.93 196.71 737.9 196.74 737.86 196.77 737.82 196.79 737.78 196.8 737.72 196.8 737.69 196.8 737.64 196.81 737.59 196.85 737.54 196.87 737.5 196.87 737.46 196.86 737.4 196.84 737.37 196.84 737.32 196.84 737.28 196.86 737.23 196.87 737.2 196.89 737.16 196.91 737.14 196.94 737.12 196.98 737.08 197.03 737.04 197.05 737.01 197.07 736.99 197.08 736.97 197.11 736.96 197.15 736.95 197.19 736.93 197.22 736.91 197.24 736.88 197.27 736.84 197.3 736.81 197.31 736.77 197.33 736.71 197.34 736.69 197.34 736.63 197.34 736.61 197.34 736.58 197.35 736.53 197.37 736.48 197.41 736.43 197.43 736.41 197.45 736.39 197.45 736.35 197.45 736.32 197.43 736.3 197.42 736.28 197.4 736.25 197.39 736.22 197.38 736.2 197.38 736.02 197.41 735.19 198.15 735.17 198.18 735.14 198.21 735.13 198.24 734.41 198.91 733.69 199.58 733.12 200.03 732.05 199.88 731.63 200.14 731.62 200.12 730.59 200.71 730.58 200.66 730.57 200.6 730.56 200.56 730.54 200.49 730.51 200.46 730.49 200.41 730.48 200.37 730.46 200.34 730.46 200.3 730.45 200.26 730.46 200.22 730.48 200.15 730.49 200.11 730.5 200.05 730.51 200.01 730.53 199.98 730.56 199.94 730.59 199.9 730.62 199.85 730.64 199.79 730.65 199.75 730.64 199.7 730.61 199.64 730.57 199.57 730.43 199.42 730.41 199.4 730.37 199.34 730.33 199.3 730.31 199.26 730.29 199.23 730.25 199.2 730.21 199.17 730.18 199.15 730.12 199.14 730.09 199.13 730.05 199.11 730.02 199.08 730 199.04 729.99 199.01 729.97 198.97 729.92 198.92 729.89 198.91 729.87 198.87 729.86 198.84 729.84 198.82 729.82 198.81 729.78 198.79 729.75 198.79 729.69 198.79 729.65 198.79 729.61 198.78 729.57 198.76 729.56 198.73 729.53 198.71 729.51 198.67 729.5 198.64 729.47 198.62 729.45 198.61 729.4 198.59 729.38 198.59 729.34 198.59 729.31 198.59 729.26 198.59 729.23 198.58 729.2 198.57 729.12 198.52 729.07 198.49 729.04 198.49 729.03 198.49 729 198.49 728.97 198.49 728.93 198.47 728.9 198.47 728.88 198.47 728.86 198.47 728.83 198.47 728.8 198.47 728.89 198.27 728.8 198.24 728.67 197.99 728.65 197.99 728.62 197.98 728.59 197.97 728.56 197.95 728.54 197.93 728.5 197.89 728.48 197.79 728.48 197.75 728.48 197.71 728.48 197.67 728.49 197.63 728.49 197.58 728.48 197.53 728.48 197.46 728.45 197.41 728.43 197.37 728.41 197.32 728.38 197.29 728.36 197.25 728.32 197.22 728.29 197.19 728.25 197.16 728.23 197.15 728.2 197.13 728.16 197.11 728.13 197.09 728.1 197.05 728.07 197.02 728.04 196.99 728.02 196.96 727.99 196.94 727.95 196.92 727.91 196.91 727.86 196.89 727.8 196.86 727.76 196.83 727.73 196.79 727.66 196.73 727.6 196.69 727.56 196.67 727.53 196.66 727.5 196.66 727.47 196.66 727.44 196.66 727.41 196.66 727.38 196.66 727.35 196.65 727.32 196.65 727.28 196.64 727.25 196.64 727.23 196.63 727.22 196.63 727.18 196.63 727.15 196.64 727.12 196.63 727.09 196.64 727.03 196.64 727.01 196.64 726.97 196.65 726.94 196.65 726.9 196.65 726.86 196.64 726.83 196.63 726.8 196.63 726.76 196.62 726.73 196.61 726.7 196.6 726.66 196.58 726.61 196.57 726.58 196.56 726.55 196.56 726.51 196.55 726.47 196.55 726.44 196.55 726.41 196.55 726.37 196.55 726.34 196.55 726.29 196.54 726.26 196.54 726.2 196.53 726.18 196.52 726.16 196.51 726.13 196.5 726.11 196.49 726.09 196.46 726.07 196.43 726.04 196.4 726.02 196.37 726.01 196.34 725.99 196.31 725.96 196.3 725.93 196.28 725.9 196.26 725.85 196.25 725.79 196.21 725.76 196.2 725.73 196.18 725.7 196.17 725.67 196.16 725.64 196.15 725.62 196.14 725.59 196.14 725.57 196.12 725.54 196.11 725.53 196.1 725.51 196.08 725.5 196.06 725.48 196.04 725.46 196.01 725.44 195.99 725.41 195.97 725.39 195.95 725.36 195.93 725.34 195.91 725.32 195.89 725.3 195.87 725.27 195.85 725.25 195.84 725.23 195.81 725.2 195.78 725.17 195.76 725.13 195.73 725.08 195.69 725.06 195.66 725.05 195.64 725.03 195.61 725.01 195.57 724.99 195.54 724.96 195.51 724.94 195.49 724.92 195.48 724.9 195.47 724.88 195.45 724.86 195.44 724.84 195.42 724.82 195.4 724.79 195.39 724.77 195.38 724.75 195.36 724.73 195.35 724.72 195.33 724.7 195.31 724.69 195.29 724.67 195.27 724.61 195.26 724.58 195.23 724.56 195.21 724.55 195.19 724.53 195.16 724.52 195.14 724.5 195.09 724.49 195.06 724.48 195.02 724.47 194.99 724.47 194.97 724.45 194.95 724.44 194.92 724.43 194.89 724.42 194.86 724.42 194.84 724.41 194.8 724.4 194.75 724.39 194.71 724.38 194.69 724.38 194.66 724.37 194.63 724.37 194.6 724.36 194.57 724.36 194.54 724.37 194.51 724.37 194.48 724.37 194.44 724.37 194.41 724.37 194.36 724.38 194.31 724.36 194.29 724.35 194.27 724.36 194.24 724.37 194.2 724.37 194.17 724.37 194.13 724.37 194.08 724.35 194.03 724.32 193.97 724.5 194.01 724.95 194.16 725.36 194.24 725.73 194.25 726.08 194.29 726.41 194.45 726.5 194.51 726.62 194.47 726.74 194.38 726.97 194.24 727.03 194.02 727.17 193.82 727.21 193.75 727.22 193.72 727.24 193.67 727.25 193.63 727.25 193.59 727.25 193.55 727.24 193.51 727.24 193.47 727.24 193.43 727.24 193.4 727.24 193.37 727.24 193.34 727.24 193.26 727.23 193.22 727.22 193.18 727.21 193.15 727.19 193.13 727.18 193.09 727.18 193.06 727.18 193.02 727.18 192.98 727.18 192.95 727.18 192.91 727.19 192.87 727.2 192.85 727.23 192.82 727.27 192.76 727.32 192.73 727.36 192.71 727.42 192.67 727.46 192.64 727.5 192.6 727.55 192.57 727.59 192.55 727.63 192.52 727.67 192.49 727.71 192.44 727.74 192.39 727.79 192.32 727.63 192.16 727.78 192.01 727.92 191.85 727.95 191.54 727.76 191.36 727.82 191.21 727.93 191.19 727.96 191.18 728.01 191.17 728.05 191.17 728.08 191.16 728.09 191.16 728.12 191.15 728.14 191.12 728.16 191.07 728.18 190.99 728.18 190.91 728.17 190.87 728.16 190.83 728.17 190.8 728.19 190.78 728.24 190.74 728.27 190.73 728.31 190.71 728.36 190.7 728.43 190.66 728.51 190.62 728.57 190.59 728.61 190.54 728.69 190.48 728.77 190.41 728.84 190.36 728.95 190.29 729.02 190.23 729.07 190.19 729.09 190.16 729.09 190.12 729.09 190.07 729.08 189.99 729.07 189.93 729.07 189.89 729.08 189.84 729.11 189.8 729.14 189.75 729.16 189.69 729.2 189.58 729.24 189.52 729.28 189.47 729.33 189.43 729.37 189.41 729.44 189.4 729.51 189.4 729.56 189.39 729.63 189.38 729.7 189.37 729.76 189.37 729.8 189.36 729.86 189.34 729.93 189.31 729.94 189.3 729.99 189.28 730.03 189.24 730.08 189.17 730.13 189.12 730.18 189.04 730.25 188.94 730.3 188.87 730.34 188.82 730.39 188.76 730.46 188.71 730.48 188.68 730.79 188.51 730.81 188.48 730.84 188.44 730.87 188.41 730.93 188.38 730.99 188.34 731.02 188.31 731.04 188.29 731.05 188.27 731.06 188.22 731.62 187.68 732.69 186.52 733.11 185.89 733.53 185.26 734.13 184.53 734.18 183.83 734.21 183.24 734.2 182.64 734.08 182.19 734.04 182.05 734.1 182.03 734.12 182.02 734.16 182.01 734.16 182 734.18 181.92 734.2 181.84 734.2 181.83 734.2 181.64 734.49 181.69 734.65 181.35 734.67 181.14 734.81 181.21 734.98 181.18 734.99 181 734.87 180.78 734.91 180.74 734.94 180.7 734.96 180.66 735 180.58 735.05 180.45 735.03 180.3 734.94 179.8 735.35 178.71 736.1 178.72 736.8 178.69 737.5 178.66 Z"/>
</g></svg>