<svg xmlns="http://www.w3.org/2000/svg" version="1.2" baseProfile="tiny" stroke-linecap="round" stroke-linejoin="round" viewBox="737.5 168.45 12.35 11.48"><g xmlns="http://www.w3.org/2000/svg" id="Liginaga-Astüe">
<path d="M 746.96 168.59 746.93 168.69 746.8 168.98 746.79 169 746.77 169.08 746.75 169.17 747.02 169.59 747.12 169.72 747.09 169.87 747.12 169.88 747.16 169.89 747.21 169.91 747.26 169.92 747.28 169.92 747.31 169.91 747.35 169.89 747.44 169.86 747.51 169.83 747.56 169.8 747.86 169.99 747.98 170 747.97 170.37 747.96 170.44 747.81 170.54 748 170.82 748.15 171.02 748.26 171.51 748.2 171.48 748.07 171.35 748.02 171.35 748.07 171.83 748.04 171.89 747.99 171.99 747.95 172.07 747.92 172.14 747.9 172.19 747.89 172.25 747.88 172.31 747.88 172.36 747.89 172.43 748.04 172.56 748.16 172.56 748.35 172.44 748.5 172.23 748.46 172.14 748.45 172.09 748.45 172.04 748.46 171.98 748.49 171.88 748.52 171.81 748.55 171.74 748.57 171.67 748.59 171.59 748.6 171.52 748.6 171.44 748.62 171.34 748.64 171.23 748.8 171.28 748.87 171.44 748.85 171.69 748.84 171.76 748.98 172.15 749.21 172.12 749.66 171.63 749.67 171.68 749.69 171.73 749.7 171.77 749.7 171.81 749.71 171.86 749.72 171.89 749.74 171.93 749.74 171.97 749.74 172.02 749.73 172.08 749.72 172.13 749.73 172.18 749.74 172.24 749.75 172.25 749.77 172.29 749.79 172.33 749.8 172.36 749.8 172.4 749.8 172.45 749.8 172.48 749.82 172.52 749.83 172.54 749.84 172.57 749.85 172.59 749.82 172.62 749.81 172.64 749.81 172.66 749.8 172.68 749.78 172.7 749.76 172.71 749.72 172.71 749.68 172.71 749.61 172.7 749.57 172.7 749.55 172.71 749.52 172.73 749.48 172.75 749.46 172.76 749.38 172.79 749.34 172.8 749.31 172.81 749.27 172.84 749.21 172.88 749.16 172.93 749.11 172.95 749.06 172.98 749 173.01 748.96 173.03 748.94 173.03 748.75 173.2 748.4 173.38 748.32 173.63 748.24 174.2 748.25 174.47 748.33 174.96 748.41 175.45 748.49 175.95 748.75 176.65 748.87 176.91 748.93 177.33 748.94 177.92 748.48 177.99 747.8 178.05 747.87 178.61 747.84 178.68 747.7 178.73 747.7 178.71 747.57 178.54 747.27 178.38 747.4 178.28 747.41 178.23 747.41 178.18 747.41 178.13 747.41 178.08 747.41 178.04 747.39 178 747.38 177.96 747.37 177.93 747.37 177.9 747.35 177.81 747.07 177.39 746.81 176.41 746.75 175.97 746.74 175.97 746.72 175.97 746.7 175.97 746.67 175.97 746.64 175.97 746.63 175.97 746.63 175.95 746.01 176.02 745.74 176.16 745.55 176.38 745.45 176.58 745.34 176.78 745.3 177.03 745.25 177.05 745.01 177.31 744.85 177.32 744.72 177.44 744.53 177.8 744.13 178.46 743.36 179.04 743.02 179.2 742.55 179.23 742.23 179.32 741.88 179.52 741.69 179.66 741.11 179.87 740.81 179.92 740.58 179.87 740.09 179.64 739.86 179.58 739.43 179.47 738.65 179.11 738.22 178.95 738.13 178.9 737.5 178.66 737.6 178.24 737.65 177.99 737.66 177.9 737.66 177.81 737.67 177.73 737.71 177.62 737.82 177.3 737.9 177.1 738 176.91 738.08 176.75 738.17 176.61 738.27 176.45 738.39 176.19 738.5 175.96 738.56 175.83 738.6 175.74 738.65 175.6 738.7 175.45 738.73 175.35 738.77 175.23 738.82 175.09 738.88 174.97 738.94 174.86 739.05 174.71 739.18 174.57 739.26 174.46 739.31 174.4 739.43 174.27 739.52 174.17 739.65 174.06 739.79 173.96 739.88 173.89 739.92 173.84 739.92 173.83 739.93 173.79 739.93 173.75 739.93 173.71 739.93 173.64 739.91 173.59 739.9 173.51 739.89 173.43 739.87 173.32 740.36 172.37 740.46 172.03 740.66 171.46 740.73 171.41 740.75 171.36 740.77 171.32 740.79 171.2 740.79 171.13 740.81 171.08 740.82 171.03 740.84 170.98 740.87 170.9 740.91 170.82 740.93 170.79 740.95 170.77 740.98 170.75 741.02 170.7 741.03 170.68 740.85 170.55 740.97 170.36 741.29 170.49 741.3 170.51 741.3 170.55 741.29 170.59 741.29 170.64 741.29 170.68 741.29 170.72 741.31 170.75 741.32 170.79 741.35 170.82 741.38 170.85 741.4 170.86 741.42 170.87 741.46 170.88 741.48 170.88 741.5 170.88 741.53 170.89 741.55 170.9 741.57 170.91 741.61 170.94 741.64 170.97 741.66 170.99 741.69 171.01 741.71 171.03 741.74 171.04 741.77 171.05 741.8 171.06 741.83 171.06 741.86 171.07 741.89 171.07 741.92 171.07 741.94 171.08 741.96 171.1 741.98 171.12 741.99 171.14 742 171.16 742.01 171.17 742.04 171.18 742.07 171.19 742.09 171.2 742.11 171.22 742.12 171.24 742.13 171.27 742.14 171.29 742.15 171.3 742.17 171.33 742.19 171.37 742.21 171.4 742.24 171.42 742.26 171.44 742.26 171.47 742.27 171.48 742.26 171.5 742.25 171.51 742.23 171.52 742.21 171.53 742.18 171.55 742.17 171.56 742.16 171.57 742.16 171.59 742.17 171.61 742.18 171.63 742.19 171.66 742.19 171.67 742.19 171.69 742.19 171.7 742.19 171.71 742.2 171.72 742.22 171.72 742.23 171.72 742.25 171.71 742.27 171.7 742.29 171.69 742.3 171.69 742.31 171.7 742.32 171.71 742.33 171.74 742.35 171.77 742.34 171.79 742.33 171.84 742.32 171.87 742.3 171.92 742.3 172.01 742.29 172.06 742.28 172.1 742.28 172.14 742.28 172.16 742.3 172.18 742.32 172.2 742.34 172.22 743.07 172.09 743.26 172.25 743.27 172.29 743.3 172.33 743.32 172.35 743.33 172.37 743.33 172.39 743.33 172.4 743.32 172.43 743.33 172.42 743.3 172.73 743.5 172.63 744.05 172.45 743.58 172.37 743.57 172.33 743.56 172.29 743.53 172.23 743.5 172.18 743.49 172.12 743.48 172.04 743.47 171.93 743.47 171.8 743.47 171.68 743.47 171.62 743.47 171.58 743.46 171.54 743.44 171.5 743.41 171.44 743.39 171.39 743.38 171.31 743.37 171.16 743.36 171.08 743.34 170.97 743.31 170.78 743.28 170.68 743.27 170.58 743.27 170.47 743.26 170.35 743.1 170.32 743.13 169.87 743.57 170.05 743.9 170 744.41 170.09 744.46 170.23 744.53 170.43 744.73 170.82 744.96 171.32 745.05 171.25 745.11 171.22 745.16 171.17 745.22 171.13 745.27 171.09 745.3 171.05 745.34 171 745.37 170.96 745.41 170.91 745.44 170.85 745.47 170.78 745.5 170.71 745.53 170.66 745.53 170.61 745.54 170.55 745.54 170.49 745.54 170.42 745.54 170.36 745.53 170.29 745.43 170.04 745.75 170.02 745.82 169.98 745.83 169.66 746.16 169.46 746.2 169.41 746.22 169.35 746.25 169.29 746.26 169.24 746.28 169.16 746.29 169.08 746.3 169.02 746.3 168.95 746.28 168.86 746.26 168.78 746.24 168.71 746.23 168.65 746.22 168.56 746.19 168.48 746.36 168.48 746.38 168.48 746.42 168.5 746.45 168.51 746.49 168.52 746.53 168.52 746.57 168.52 746.61 168.52 746.66 168.51 746.96 168.59 Z"/>
</g></svg>