<svg xmlns="http://www.w3.org/2000/svg" version="1.2" baseProfile="tiny" stroke-linecap="round" stroke-linejoin="round" viewBox="398.02 172.62 25.82 16.88"><g xmlns="http://www.w3.org/2000/svg" id="Lizartza">
<path d="M 421.61 182.55 422.09 182.5 422.5 182.46 423.17 182.25 423.19 182.26 423.63 182.78 423.71 183.34 423.82 184.11 423.82 184.12 423.78 184.31 423.75 184.34 423.67 184.41 423.61 184.47 423.47 184.6 423.46 184.61 422.94 185.08 422.92 185.1 422.91 185.11 422.88 185.12 422.85 185.14 422.81 185.16 422.8 185.17 422.75 185.2 422.72 185.22 422.71 185.22 422.66 185.25 422.61 185.28 422.57 185.3 422.55 185.31 422.51 185.34 422.47 185.35 422.41 185.39 422.3 185.45 422.09 185.57 422.04 185.6 421.95 185.65 421.94 185.66 421.86 185.7 421.75 185.76 421.7 185.27 421.44 184.9 421.37 184.7 421.33 184.29 421.46 183.8 421.71 183.24 421.61 182.55 Z M 419.25 183.5 420.12 184.36 420.29 184.62 419.76 185.07 419.41 185.49 419.26 185.73 419.32 186.2 419.34 186.46 419.3 186.51 419.28 186.53 419.27 186.54 419.26 186.55 419.23 186.56 419.19 186.56 419.15 186.56 419.11 186.58 419.07 186.59 419.03 186.61 419 186.62 418.95 186.66 418.93 186.67 418.88 186.72 418.84 186.76 418.8 186.8 418.75 186.86 418.74 186.88 418.7 186.92 418.66 186.99 418.6 187.05 418.5 187.15 418.43 187.22 418.4 187.24 418.37 187.19 418.33 187.1 418.3 187.09 418.26 187.04 418.25 187.03 418.23 187 418.21 186.94 418.18 186.91 418.17 186.88 418.16 186.86 418.14 186.84 418.1 186.76 418.09 186.74 418.04 186.67 418.03 186.66 418.01 186.62 417.97 186.58 417.94 186.55 417.78 186.65 417.77 186.64 417.75 186.61 417.72 186.57 417.69 186.53 417.66 186.49 417.63 186.45 417.61 186.42 417.58 186.38 417.55 186.35 417.54 186.34 417.5 186.32 417.47 186.31 417.43 186.3 417.39 186.29 417.34 186.28 417.29 186.27 417.24 186.25 417.21 186.22 417.19 186.21 417.17 186.18 417.12 186.14 417.07 186.12 417.06 186.11 417.08 186.08 417.48 185.4 417.76 184.89 417.79 184.9 417.83 184.9 417.85 184.9 417.88 184.89 417.9 184.88 417.92 184.86 417.94 184.84 417.95 184.82 417.96 184.81 417.98 184.8 418 184.8 418.03 184.8 418.05 184.81 418.07 184.81 418.11 184.81 418.13 184.81 418.17 184.82 418.21 184.83 418.23 184.82 418.25 184.82 418.26 184.81 418.29 184.79 418.3 184.77 418.32 184.76 418.34 184.76 418.36 184.75 418.38 184.75 418.4 184.74 418.42 184.74 418.43 184.72 418.44 184.7 418.44 184.68 418.44 184.66 418.45 184.64 418.46 184.63 418.48 184.62 418.49 184.61 418.51 184.61 418.53 184.62 418.56 184.64 418.58 184.65 418.61 184.67 418.64 184.68 418.66 184.69 418.66 184.7 418.69 184.71 418.71 184.71 418.73 184.71 418.75 184.71 418.77 184.7 418.78 184.68 418.8 184.66 418.82 184.63 418.83 184.61 418.84 184.6 418.86 184.59 418.9 184.59 418.94 184.59 418.97 184.58 418.99 184.57 419.02 184.57 419.04 184.56 419.07 184.55 419.11 184.53 419.15 184.51 419.19 184.48 419.25 184.46 419.29 184.44 419.31 184.43 419.35 184.42 419.38 184.42 419.42 184.41 419.45 184.41 419.45 184.4 419.25 183.5 Z M 399.28 172.64 399.28 172.66 399.57 172.98 400.52 173.5 400.74 173.49 401.09 173.41 401.52 173.31 401.69 173.27 401.81 173.24 401.91 173.21 401.95 173.16 401.98 173.11 402 173.06 402.04 173.01 402.07 172.97 402.09 172.97 402.11 173 402.12 173.03 402.15 173.13 402.18 173.22 402.22 173.31 402.27 173.36 402.32 173.38 402.38 173.38 402.42 173.39 402.48 173.4 402.51 173.44 402.55 173.47 402.58 173.5 402.65 173.54 402.72 173.56 402.77 173.56 402.82 173.55 402.85 173.54 402.92 173.51 402.94 173.51 402.99 173.55 403.03 173.59 403.05 173.63 403.11 173.69 403.17 173.74 403.19 173.75 403.26 173.75 403.36 173.75 403.44 173.75 403.53 173.74 403.54 173.73 403.56 173.71 403.58 173.7 403.61 173.69 403.63 173.68 403.65 173.68 403.67 173.67 403.69 173.65 403.71 173.64 403.73 173.61 403.75 173.6 403.77 173.58 403.78 173.56 403.81 173.54 403.84 173.52 403.87 173.5 403.9 173.49 403.95 173.46 403.98 173.44 404 173.44 404.02 173.43 404.03 173.42 404.05 173.4 404.07 173.39 404.08 173.38 404.33 173.62 404.64 174.01 405.17 174.16 405.43 174.23 405.68 174.29 405.68 174.3 405.68 174.33 405.67 174.35 405.67 174.39 405.67 174.41 405.66 174.44 405.65 174.47 405.65 174.49 405.65 174.52 405.64 174.54 405.63 174.56 405.62 174.59 405.61 174.61 405.6 174.63 405.58 174.66 405.57 174.68 405.57 174.7 405.57 174.73 405.56 174.75 405.55 174.77 405.54 174.79 405.54 174.79 405.53 174.82 405.52 174.84 405.51 174.87 405.5 174.88 405.5 174.91 405.49 174.93 405.49 174.95 405.48 174.98 405.47 175.01 405.47 175.03 405.47 175.07 405.47 175.1 405.47 175.12 405.46 175.14 405.46 175.17 405.45 175.2 405.45 175.21 405.44 175.25 405.45 175.28 405.45 175.3 405.45 175.31 405.45 175.34 405.46 175.37 405.46 175.39 405.45 175.41 405.45 175.43 405.44 175.45 405.42 175.47 405.4 175.48 405.39 175.49 405.41 175.49 405.42 175.5 405.45 175.51 405.48 175.52 405.51 175.54 405.54 175.55 405.56 175.56 405.59 175.56 405.62 175.56 405.65 175.55 405.69 175.54 405.7 175.53 405.72 175.52 405.73 175.52 405.75 175.5 405.77 175.49 405.8 175.48 405.82 175.46 405.84 175.44 405.86 175.42 405.88 175.39 405.89 175.37 405.91 175.34 405.94 175.31 405.96 175.28 405.99 175.26 406.02 175.23 406.05 175.21 406.07 175.19 406.1 175.18 406.13 175.17 406.16 175.17 406.2 175.17 406.23 175.17 406.26 175.18 406.3 175.19 406.33 175.2 406.37 175.21 406.43 175.21 406.48 175.21 406.52 175.22 406.53 175.22 406.57 175.22 406.62 175.23 406.66 175.23 406.7 175.24 406.73 175.23 406.77 175.23 406.8 175.23 406.82 175.23 406.86 175.22 406.9 175.22 406.93 175.22 406.94 175.22 407.49 175.83 407.98 176.39 407.99 176.43 408.01 176.51 408.03 176.55 408.04 176.58 408.07 176.65 408.09 176.69 408.12 176.72 408.15 176.76 408.19 176.82 408.25 176.89 408.29 176.93 408.32 176.97 408.35 176.98 408.37 176.99 408.38 176.99 408.43 176.99 408.46 177 408.48 177 408.5 176.99 408.52 176.99 408.56 176.99 408.6 176.98 408.64 176.98 408.69 176.96 408.74 176.95 408.79 176.96 408.82 176.96 408.85 176.97 408.88 176.99 408.91 177.01 408.94 177.03 408.98 177.05 409.03 177.06 409.08 177.07 409.17 177.08 409.28 177.09 409.37 177.11 409.43 177.11 409.48 177.12 409.53 177.11 409.62 177.09 409.73 177.08 409.85 177.08 409.87 177.07 409.88 177.07 409.9 177.07 409.91 177.07 409.93 177.07 409.98 177.06 410.04 177.05 410.1 177.04 410.15 177.02 410.17 177.01 410.2 177.01 410.24 177.01 410.29 177.01 410.34 177 410.39 176.99 410.46 176.96 410.51 176.94 410.56 176.91 410.58 176.9 410.6 176.89 410.62 176.89 410.63 176.89 410.64 176.9 410.65 176.91 410.66 176.93 410.67 176.98 410.69 177.02 410.71 177.04 410.73 177.06 410.76 177.07 410.79 177.07 410.84 177.07 410.87 177.07 410.9 177.08 410.93 177.11 410.95 177.13 410.98 177.15 411.01 177.16 411.05 177.18 411.08 177.19 411.11 177.19 411.13 177.18 411.18 177.15 411.25 177.09 411.28 177.12 411.27 177.15 411.27 177.18 411.26 177.2 411.26 177.22 411.26 177.25 411.25 177.27 411.24 177.29 411.24 177.32 411.22 177.35 411.22 177.38 411.21 177.39 411.21 177.41 411.21 177.43 411.21 177.45 411.2 177.47 411.2 177.51 411.19 177.54 411.18 177.57 411.15 177.59 411.14 177.61 410.54 177.7 410.08 178.06 409.31 178.94 408.78 179.66 409.51 180.51 410.06 181.09 410.29 181.62 411.75 183.16 411.49 184.88 411.73 185.21 414.25 185.9 411.2 186.44 411.33 187.17 411.7 188.18 412.17 189.49 411.89 189.5 411.88 189.5 411.86 189.5 411.83 189.5 411.78 189.5 411.75 189.5 411.71 189.38 411.63 189.28 411.55 189.12 411.46 188.98 411.12 188.9 411.12 188.86 411.1 188.86 410.99 188.87 410.88 188.87 410.86 188.87 410.81 188.87 410.77 188.87 410.75 188.87 410.72 188.86 410.68 188.85 410.65 188.83 410.62 188.82 410.6 188.81 410.57 188.79 410.55 188.77 410.5 188.73 410.43 188.64 410.39 188.59 410.36 188.53 410.36 188.5 410.38 188.47 410.4 188.44 410.42 188.42 410.43 188.4 410.43 188.38 410.43 188.36 410.42 188.32 410.39 188.29 410.35 188.22 410.31 188.15 410.3 188.14 410.27 188.09 410.26 188.08 410.24 188.06 410.22 188.03 410.21 188.01 410.19 187.99 410.18 187.98 410.17 187.96 410.15 187.94 410.15 187.94 410.12 187.92 410.12 187.91 410.11 187.9 410.1 187.88 410.09 187.87 410.08 187.85 410.08 187.84 410.07 187.82 410.07 187.8 410.06 187.78 410.05 187.77 410.04 187.75 410.03 187.73 410.03 187.71 410.02 187.7 410.02 187.68 410.03 187.67 410.03 187.66 410.03 187.64 410.04 187.62 410.04 187.61 410.05 187.58 410.06 187.56 410.07 187.55 410.07 187.53 410.08 187.51 410.08 187.49 410.09 187.46 410.09 187.44 410.09 187.42 410.09 187.4 410.09 187.38 410.09 187.35 410.08 187.34 410.08 187.31 410.07 187.29 410.07 187.27 410.06 187.25 410.04 187.23 410.03 187.21 410.02 187.21 410 187.19 409.96 187.16 409.89 187.13 409.88 187.12 409.8 187.07 409.75 187.04 409.72 187.02 409.7 186.99 409.68 186.96 409.66 186.93 409.64 186.89 409.62 186.86 409.6 186.82 409.59 186.79 409.55 186.81 408.83 187.46 408.91 187.57 409.01 187.75 409 187.96 408.8 188.27 408.72 188.36 408.55 188.59 408.24 188.38 407.92 188.16 407.89 188.12 405.7 189.42 405.61 189.3 405.37 189.2 405.35 189.18 405.31 189.13 405.27 189.11 405.2 189.08 405.13 189.06 405.1 189.06 405.05 189.03 404.99 189.01 404.98 189.01 404.94 189 404.81 188.97 404.73 188.96 404.52 188.9 404.45 188.88 404.43 188.87 404.29 188.83 404.15 188.78 404.02 188.68 403.97 188.64 403.87 188.56 403.73 188.42 403.63 188.27 403.58 188.14 403.57 188.11 403.57 188.07 403.57 188.05 403.57 188.01 403.57 187.98 403.57 187.94 403.56 187.9 403.55 187.86 403.54 187.84 403.53 187.82 403.53 187.82 403.52 187.8 403.52 187.79 403.51 187.75 403.49 187.7 403.49 187.68 403.48 187.65 403.48 187.61 403.48 187.59 403.47 187.55 403.48 187.5 403.5 187.48 403.49 187.45 403.49 187.42 403.5 187.39 403.5 187.33 403.51 187.29 403.52 187.18 403.54 187.14 403.54 187.11 403.54 187.05 403.54 187.01 403.54 187 403.54 186.96 403.53 186.93 403.53 186.9 403.52 186.88 403.5 186.86 403.47 186.8 403.45 186.77 403.43 186.72 403.42 186.7 403.4 186.65 403.4 186.6 403.39 186.57 403.37 186.52 403.34 186.47 403.34 186.46 403.3 186.37 403.3 186.34 403.3 186.33 403.3 186.32 403.3 186.31 403.3 186.3 403.3 186.29 403.31 186.28 403.31 186.27 403.3 186.27 403.3 186.26 403.29 186.26 403.28 186.26 403.27 186.27 403.27 186.27 403.27 186.28 403.26 186.29 403.27 186.3 403.27 186.3 403.26 186.31 403.25 186.32 403.23 186.32 403.22 186.32 403.2 186.32 403.19 186.31 403.18 186.3 403.17 186.29 403.15 186.28 403.14 186.27 403.13 186.27 403.12 186.26 403.1 186.25 403.09 186.24 403.08 186.23 403.07 186.22 403.05 186.2 403.04 186.19 403.02 186.18 403.01 186.16 402.99 186.15 402.98 186.14 402.97 186.13 402.96 186.12 402.95 186.12 402.95 186.11 402.94 186.1 402.93 186.1 402.92 186.09 402.91 186.09 402.9 186.08 402.89 186.08 402.88 186.07 402.87 186.06 402.86 186.05 402.85 186.04 402.85 186.03 402.84 186.02 402.84 186.01 402.82 186 402.81 185.98 402.8 185.97 402.79 185.96 402.78 185.95 402.77 185.94 402.76 185.93 402.76 185.92 402.75 185.91 402.75 185.91 402.75 185.9 402.74 185.89 402.74 185.88 402.75 185.87 402.75 185.86 402.75 185.85 402.75 185.84 402.76 185.84 402.76 185.83 402.76 185.82 402.77 185.81 402.77 185.8 402.77 185.79 402.77 185.79 402.77 185.78 402.77 185.76 402.77 185.75 402.77 185.74 402.77 185.74 402.77 185.73 402.77 185.72 402.76 185.71 402.76 185.7 402.75 185.67 402.75 185.64 402.74 185.61 402.73 185.58 402.73 185.57 402.72 185.56 402.72 185.55 402.71 185.54 402.71 185.53 402.71 185.52 402.7 185.51 402.7 185.5 402.7 185.49 402.7 185.48 402.69 185.47 402.69 185.45 402.68 185.44 402.68 185.43 402.68 185.42 402.68 185.41 402.67 185.4 402.67 185.39 402.66 185.37 402.65 185.36 402.64 185.34 402.63 185.32 402.63 185.31 402.62 185.3 402.62 185.29 402.62 185.28 402.61 185.28 402.61 185.27 402.61 185.26 402.6 185.26 402.6 185.25 402.59 185.24 402.59 185.24 402.58 185.23 402.58 185.22 402.57 185.22 402.56 185.21 402.54 185.2 402.53 185.18 402.52 185.17 402.5 185.16 402.5 185.15 402.49 185.14 402.48 185.13 402.47 185.12 402.47 185.12 402.46 185.11 402.45 185.11 402.44 185.1 402.43 185.1 402.43 185.09 402.42 185.09 402.41 185.09 402.41 185.08 402.4 185.08 402.4 185.07 402.39 185.07 402.38 185.06 402.38 185.06 402.37 185.05 402.37 185.04 402.36 185.03 402.34 185.01 402.31 184.99 402.29 184.97 402.27 184.94 402.16 184.85 402.16 184.84 402.15 184.84 402.14 184.83 402.13 184.82 402.13 184.81 402.12 184.8 402.11 184.79 402.09 184.78 402.08 184.78 402.08 184.77 402.07 184.77 402.06 184.76 402.05 184.76 402.04 184.75 402.04 184.74 402.03 184.74 402.02 184.73 402.02 184.72 402.01 184.72 402 184.71 401.99 184.7 401.99 184.7 401.98 184.69 401.98 184.69 401.97 184.68 401.96 184.66 401.96 184.66 401.95 184.65 401.94 184.65 401.94 184.64 401.93 184.64 401.92 184.63 401.91 184.62 401.9 184.62 401.9 184.62 401.88 184.61 401.87 184.61 401.86 184.6 401.85 184.6 401.84 184.59 401.84 184.58 401.83 184.57 401.82 184.56 401.81 184.55 401.8 184.54 401.79 184.53 401.77 184.52 401.76 184.51 401.75 184.51 401.74 184.5 401.74 184.49 401.73 184.49 401.72 184.48 401.72 184.48 401.71 184.47 401.71 184.46 401.7 184.46 401.69 184.45 401.69 184.45 401.68 184.44 401.68 184.43 401.68 184.43 401.67 184.42 401.66 184.41 401.66 184.41 401.65 184.4 401.64 184.4 401.64 184.39 401.63 184.38 401.63 184.38 401.62 184.37 401.62 184.36 401.61 184.36 401.61 184.35 401.59 184.33 401.58 184.32 401.57 184.3 401.55 184.29 401.54 184.27 401.54 184.26 401.53 184.25 401.52 184.25 401.52 184.24 401.51 184.23 401.5 184.22 401.5 184.21 401.49 184.2 401.48 184.2 401.46 184.16 401.45 184.15 401.43 184.13 401.41 184.1 401.39 184.07 401.36 184.05 401.35 184.03 401.33 184.01 401.31 183.98 401.24 183.9 401.23 183.89 401.22 183.88 401.21 183.87 401.2 183.86 401.19 183.85 401.18 183.84 401.17 183.83 401.16 183.82 401.15 183.81 401.14 183.8 401.13 183.79 401.12 183.78 401.11 183.77 401.09 183.76 401.07 183.73 401.06 183.72 401.05 183.71 401.04 183.65 401.02 183.61 401.02 183.54 401.01 183.5 401.02 183.46 401.02 183.42 401.01 183.38 401.01 183.33 401.01 183.31 401 183.23 400.99 183.2 400.98 183.17 400.95 183.11 400.94 183.06 400.92 183.02 400.89 182.93 400.89 182.91 400.88 182.9 400.88 182.88 400.87 182.86 400.87 182.84 400.87 182.82 400.86 182.8 400.85 182.79 400.85 182.77 400.84 182.75 400.84 182.73 400.83 182.71 400.82 182.7 400.82 182.69 400.81 182.68 400.81 182.67 400.81 182.65 400.8 182.64 400.8 182.63 400.8 182.62 400.79 182.61 400.79 182.59 400.77 182.52 400.77 182.49 400.72 182.37 400.7 182.32 400.68 182.29 400.66 182.24 400.64 182.19 400.64 182.18 400.62 182.13 400.6 182.11 400.58 182.08 400.56 182.03 400.54 182 400.53 181.97 400.52 181.95 400.51 181.93 400.5 181.88 400.47 181.83 400.47 181.82 400.46 181.81 400.46 181.8 400.46 181.79 400.45 181.78 400.45 181.77 400.45 181.76 400.45 181.75 400.44 181.75 400.44 181.73 400.44 181.73 400.44 181.72 400.44 181.7 400.43 181.69 400.43 181.67 400.43 181.65 400.42 181.64 400.42 181.62 400.41 181.61 400.41 181.59 400.4 181.58 400.4 181.56 400.39 181.55 400.39 181.53 400.38 181.51 400.38 181.49 400.37 181.47 400.36 181.45 400.35 181.42 400.35 181.4 400.34 181.4 400.34 181.39 400.34 181.38 400.33 181.37 400.33 181.36 400.33 181.35 400.32 181.34 400.32 181.33 400.31 181.32 400.31 181.3 400.3 181.29 400.3 181.28 400.29 181.28 400.28 181.27 400.27 181.27 400.26 181.26 400.25 181.26 400.24 181.26 400.24 181.25 400.23 181.25 400.22 181.24 400.22 181.24 400.21 181.24 400.2 181.23 400.19 181.23 400.19 181.22 400.18 181.22 400.14 181.17 400.11 181.13 400.1 181.09 400.07 181.02 400.04 180.96 400.04 180.95 400.02 180.89 400 180.86 400 180.83 400.01 180.8 400.02 180.74 400.03 180.68 400.03 180.66 400.03 180.58 400.03 180.55 400.03 180.5 400 180.42 399.99 180.38 399.99 180.35 400 180.29 400 180.27 400 180.22 400.01 180.14 400.02 180.08 399.05 176.99 399.04 176.98 399.03 176.97 399.03 176.95 399.02 176.93 399.01 176.91 399.01 176.89 399 176.86 398.99 176.84 398.99 176.81 398.98 176.79 398.98 176.77 398.97 176.74 398.97 176.72 398.96 176.7 398.95 176.67 398.95 176.66 398.95 176.63 398.94 176.61 398.93 176.59 398.93 176.57 398.92 176.55 398.92 176.54 398.91 176.52 398.9 176.5 398.9 176.48 398.89 176.46 398.88 176.43 398.87 176.4 398.86 176.39 398.86 176.35 398.85 176.33 398.85 176.3 398.85 176.27 398.84 176.25 398.85 176.23 398.84 176.2 398.84 176.19 398.85 176.15 398.85 176.14 398.84 176.12 398.84 176.1 398.84 176.08 398.84 176.05 398.84 176.04 398.84 176.01 398.84 175.99 398.84 175.96 398.85 175.94 398.86 175.91 398.87 175.89 398.87 175.87 398.88 175.85 398.88 175.83 398.88 175.81 398.88 175.79 398.88 175.78 398.88 175.76 398.87 175.74 398.87 175.71 398.87 175.69 398.87 175.65 398.87 175.62 398.87 175.6 398.87 175.59 398.87 175.57 398.87 175.55 398.87 175.53 398.87 175.52 398.87 175.51 398.87 175.49 398.87 175.47 398.87 175.45 398.87 175.44 398.87 175.43 398.86 175.41 398.86 175.39 398.86 175.38 398.86 175.36 398.85 175.34 398.85 175.33 398.84 175.31 398.84 175.3 398.85 175.28 398.85 175.26 398.86 175.25 398.86 175.23 398.86 175.22 398.87 175.2 398.87 175.18 398.87 175.17 398.88 175.16 398.88 175.14 398.88 175.12 398.89 175.1 398.89 175.1 398.88 175.08 398.88 175.07 398.88 175.03 398.87 175.01 398.87 174.99 398.87 174.97 398.86 174.94 398.86 174.93 398.85 174.92 398.85 174.9 398.84 174.88 398.84 174.85 398.83 174.85 398.83 174.83 398.83 174.82 398.83 174.8 398.82 174.77 398.81 174.76 398.81 174.74 398.8 174.72 398.8 174.7 398.79 174.68 398.78 174.66 398.77 174.64 398.76 174.62 398.76 174.61 398.75 174.6 398.75 174.59 398.75 174.57 398.74 174.55 398.73 174.54 398.73 174.53 398.72 174.51 398.7 174.49 398.69 174.47 398.68 174.46 398.67 174.45 398.65 174.43 398.64 174.42 398.63 174.41 398.63 174.4 398.62 174.38 398.61 174.36 398.61 174.35 398.6 174.34 398.59 174.33 398.57 174.33 398.56 174.31 398.55 174.3 398.53 174.3 398.53 174.29 398.51 174.28 398.5 174.26 398.48 174.25 398.46 174.23 398.44 174.22 398.43 174.2 398.42 174.19 398.41 174.18 398.4 174.18 398.38 174.18 398.36 174.18 398.35 174.18 398.34 174.18 398.32 174.18 398.29 174.18 398.26 174.18 398.24 174.19 398.23 174.19 398.2 174.19 398.19 174.19 398.17 174.19 398.16 174.18 398.13 174.17 398.11 174.16 398.09 174.15 398.08 174.15 398.07 174.15 398.06 174.15 398.04 174.15 398.05 174.12 398.07 174.08 398.09 174.03 398.09 174.02 398.11 173.99 398.11 173.96 398.12 173.92 398.13 173.86 398.14 173.82 398.14 173.79 398.15 173.77 398.16 173.74 398.17 173.7 398.19 173.67 398.2 173.65 398.23 173.59 398.27 173.55 398.3 173.52 398.36 173.5 398.39 173.49 398.4 173.48 398.47 173.47 398.55 173.47 398.62 173.48 398.7 173.49 398.73 173.49 398.79 173.5 398.88 173.51 398.99 173.52 399.11 173.54 399.17 173.54 399.22 173.54 399.28 173.53 399.31 173.53 399.33 173.53 398.95 173.02 398.96 173 398.98 172.98 399 172.95 399.01 172.93 399.02 172.9 399.02 172.88 399.03 172.86 399.03 172.84 399.03 172.82 399.03 172.82 399.04 172.8 399.05 172.78 399.07 172.75 399.08 172.73 399.1 172.71 399.12 172.68 399.15 172.66 399.16 172.65 399.18 172.64 399.19 172.64 399.21 172.64 399.23 172.64 399.28 172.64 Z M 411.96 177.56 413.9 177.55 413.57 178.64 411.96 177.56 Z"/>
</g></svg>