<svg xmlns="http://www.w3.org/2000/svg" version="1.2" baseProfile="tiny" stroke-linecap="round" stroke-linejoin="round" viewBox="397.75 337.45 19.92 24.55"><g xmlns="http://www.w3.org/2000/svg" id="Lizarra">
<path d="M 402.98 337.59 402.97 337.62 402.95 337.65 402.93 337.69 402.91 337.73 402.89 337.77 402.88 337.81 402.88 337.83 402.88 337.87 402.89 337.9 402.9 337.93 402.92 337.97 402.94 338 402.96 338.04 402.97 338.08 402.99 338.12 403 338.15 403.01 338.19 403.02 338.23 403.02 338.27 403.03 338.32 403.04 338.36 403.05 338.4 403.07 338.44 403.09 338.48 403.12 338.53 403.16 338.58 403.2 338.62 403.23 338.65 403.27 338.68 403.31 338.72 403.36 338.76 403.39 338.79 403.42 338.82 403.45 338.85 403.47 338.88 403.49 338.91 403.51 338.94 403.51 338.97 403.52 339.01 403.52 339.06 403.52 339.11 403.52 339.16 403.51 339.21 403.49 339.26 403.48 339.31 403.47 339.35 403.46 339.39 403.44 339.45 403.43 339.49 403.42 339.54 403.41 339.67 403.39 339.73 403.41 339.74 403.44 339.76 403.48 339.77 403.5 339.78 403.5 339.75 403.51 339.72 403.51 339.68 403.52 339.69 403.53 339.7 403.57 339.72 403.6 339.74 403.67 339.79 403.72 339.83 403.74 339.84 403.76 339.86 403.79 339.88 403.86 339.93 403.88 339.95 403.9 339.96 403.97 340.02 403.98 340.03 403.99 340.04 404.05 340.09 404.09 340.13 404.11 340.15 404.17 340.2 404.18 340.21 404.2 340.23 404.39 340.28 404.41 340.28 404.51 340.31 404.69 340.36 404.7 340.36 404.77 340.38 404.78 340.38 404.93 340.37 404.94 340.37 405.15 340.37 405.21 340.36 405.33 340.36 405.49 340.33 405.51 340.3 405.52 340.28 405.59 340.2 405.61 340.19 405.62 340.17 405.69 340.08 405.74 340.02 405.82 339.93 405.85 339.9 405.9 339.85 406.09 339.72 406.1 339.72 406.19 339.66 406.71 339.36 406.73 339.36 407 339.41 407.01 339.42 407.13 339.6 407.4 339.76 407.41 339.77 407.56 339.85 407.57 339.86 407.62 339.88 407.74 339.93 407.78 339.94 407.79 339.94 407.96 339.99 407.97 339.99 408.07 340.02 408.13 340.03 408.2 340.05 408.31 340.08 408.43 340.11 408.57 340.14 408.6 340.25 408.61 340.3 408.62 340.33 408.63 340.35 408.64 340.41 408.68 340.43 408.7 340.44 408.72 340.45 408.74 340.46 408.81 340.5 408.82 340.5 408.83 340.51 408.86 340.51 409.06 340.56 409.11 340.57 409.22 340.59 409.23 340.6 409.58 340.68 409.69 340.72 409.76 340.74 409.94 340.81 409.97 340.82 410.22 340.91 410.24 340.92 410.28 340.94 410.29 340.94 410.4 340.98 410.71 341.28 410.78 341.2 410.98 340.92 411.02 340.87 411.06 340.81 411.07 340.79 411.09 340.76 411.12 340.72 411.16 340.67 411.19 340.62 411.23 340.58 411.25 340.55 411.26 340.54 411.26 340.53 411.28 340.51 411.3 340.48 411.32 340.46 411.33 340.44 411.38 340.37 411.41 340.33 411.49 340.26 411.75 339.98 411.78 339.95 411.82 339.91 411.83 339.89 411.87 339.84 412.16 339.49 412.22 339.53 412.44 339.65 412.69 339.79 412.71 339.8 412.75 339.82 412.88 339.89 412.96 340.1 413.06 340.34 413.07 340.35 413.08 340.36 413.12 340.41 413.19 340.49 413.21 340.52 413.27 340.59 413.33 340.66 413.35 340.68 413.43 340.78 413.45 340.81 413.51 340.88 413.55 340.93 413.58 340.96 413.6 340.99 413.6 340.99 413.69 341.1 413.7 341.11 413.71 341.38 413.72 341.47 413.72 341.55 413.72 341.57 413.73 341.67 413.74 341.78 413.76 341.91 413.76 341.93 413.77 342.03 413.77 342.04 413.77 342.11 413.77 342.17 413.78 342.22 413.78 342.24 413.78 342.25 413.78 342.25 413.78 342.32 413.78 342.43 413.78 342.45 413.78 342.49 413.79 342.64 413.79 342.81 413.79 342.91 413.79 342.92 413.8 343.04 413.8 343.24 413.8 343.25 413.81 343.54 413.81 343.59 413.81 343.61 413.82 343.79 413.82 343.91 413.82 343.92 413.91 344.03 413.93 344.06 414.06 344.23 414.11 344.3 414.14 344.36 414.2 344.47 414.22 344.5 414.23 344.51 414.23 344.52 414.26 344.58 414.3 344.65 414.34 344.72 414.35 344.74 414.36 344.76 414.36 344.77 414.37 344.78 414.43 344.97 414.46 345.05 414.49 345.16 414.49 345.17 414.52 345.27 414.54 345.3 414.58 345.37 414.64 345.45 414.69 345.54 414.72 345.58 414.73 345.6 414.73 345.62 414.75 345.66 414.79 345.75 414.87 345.93 414.89 345.98 414.91 346.06 414.9 346.09 414.84 346.25 414.82 346.31 414.81 346.37 414.8 346.41 414.79 346.46 414.78 346.52 414.78 346.57 414.77 346.6 414.77 346.65 414.77 346.71 414.77 346.77 414.75 346.81 414.74 346.85 414.72 346.9 414.71 346.93 414.7 346.96 414.7 346.97 414.69 347.01 414.68 347.06 414.67 347.12 414.66 347.17 414.66 347.2 414.66 347.22 414.66 347.24 414.67 347.28 414.68 347.32 414.69 347.36 414.7 347.37 414.7 347.39 414.71 347.4 414.71 347.42 414.73 347.46 414.73 347.48 414.7 347.53 414.66 347.58 414.61 347.63 414.57 347.68 414.54 347.72 414.5 347.75 414.33 347.93 414.25 348.04 414.24 348.05 414.21 348.09 414.2 348.11 414.19 348.12 414.17 348.14 414.16 348.15 414.14 348.18 414.14 348.18 414.08 348.25 414.07 348.26 414.05 348.29 414.04 348.31 414.02 348.33 413.97 348.39 413.95 348.42 414.04 348.41 414.09 348.41 414.15 348.41 414.21 348.41 414.28 348.4 414.35 348.38 414.39 348.37 414.44 348.37 414.49 348.37 414.55 348.39 414.58 348.42 414.63 348.46 414.67 348.5 414.71 348.56 414.74 348.61 414.76 348.66 414.78 348.71 414.79 348.78 414.81 348.85 414.83 348.91 414.84 348.98 414.86 349.05 414.88 349.13 414.9 349.21 414.92 349.29 414.93 349.36 414.95 349.42 414.95 349.49 414.95 349.54 414.93 349.61 414.92 349.68 414.91 349.71 414.93 349.72 414.98 349.72 414.94 350 414.93 350.08 414.92 350.12 414.92 350.13 414.92 350.18 414.92 350.21 414.92 350.22 414.92 350.26 414.91 350.31 414.9 350.37 414.89 350.41 414.88 350.45 414.85 350.54 414.85 350.55 414.83 350.6 414.85 350.66 414.85 350.7 414.85 350.72 414.84 350.74 414.83 350.76 414.82 350.78 414.79 350.8 414.76 350.81 414.75 350.81 414.73 350.82 414.71 350.84 414.69 350.86 414.68 350.9 414.67 350.94 414.67 350.99 414.66 351.03 414.66 351.07 414.66 351.09 414.65 351.1 414.65 351.11 414.64 351.14 414.63 351.16 414.61 351.18 414.59 351.2 414.58 351.23 414.57 351.24 414.57 351.27 414.56 351.3 414.56 351.3 414.55 351.34 414.55 351.35 414.55 351.38 414.54 351.41 414.54 351.44 414.54 351.47 414.54 351.49 414.55 351.55 414.56 351.6 414.57 351.65 414.58 351.7 414.59 351.76 414.6 351.8 414.62 351.84 414.63 351.89 414.65 351.93 414.68 351.97 414.72 352.01 414.75 352.04 414.78 352.07 414.82 352.1 414.86 352.12 414.91 352.14 414.98 352.15 415.29 352.54 415.34 352.6 415.38 352.65 415.51 352.8 415.52 352.81 415.56 352.87 415.58 352.88 415.78 353.2 415.79 353.21 415.82 353.18 415.84 353.18 415.85 353.17 415.86 353.17 415.87 353.17 415.88 353.17 415.89 353.17 415.9 353.17 415.92 353.19 415.93 353.18 415.95 353.16 415.96 353.15 416.06 353.39 416.11 353.5 416.2 353.69 416.39 354.02 416.4 354.04 416.41 354.06 416.44 354.09 416.52 354.12 416.54 354.13 416.56 354.14 416.81 354.22 416.87 354.24 416.89 354.25 416.9 354.25 416.96 354.27 417.03 354.3 417.06 354.31 417.09 354.32 417.13 354.32 417.17 354.32 417.18 354.32 417.21 354.32 417.22 354.33 417.26 354.32 417.27 354.32 417.3 354.33 417.31 354.33 417.32 354.33 417.47 354.4 417.51 354.42 417.54 354.43 417.58 354.45 417.66 354.49 416.99 355.41 416.98 355.42 416.95 355.45 416.94 355.48 416.93 355.49 416.89 355.55 416.87 355.6 416.85 355.64 416.83 355.68 416.81 355.7 416.79 355.72 416.76 355.74 416.74 355.74 416.73 355.75 416.71 355.75 416.67 355.77 416.65 355.78 416.61 355.8 416.56 355.83 416.51 355.86 416.48 355.89 416.45 355.92 416.44 355.95 416.43 355.97 416.43 356 416.44 356.04 416.44 356.05 416.45 356.1 416.46 356.14 416.46 356.16 416.48 356.18 416.5 356.2 416.52 356.21 416.55 356.22 416.57 356.23 416.59 356.24 416.61 356.26 416.63 356.28 416.64 356.3 416.65 356.33 416.66 356.36 416.66 356.38 416.67 356.41 416.67 356.44 416.67 356.47 416.67 356.5 416.67 356.51 416.68 356.54 416.69 356.56 416.7 356.59 416.71 356.62 416.71 356.65 416.73 356.67 416.74 356.7 416.74 356.72 416.74 356.73 416.74 356.76 416.74 356.79 416.74 356.8 416.73 356.82 416.72 356.85 416.7 356.92 416.69 356.94 416.67 356.96 416.66 356.97 416.65 356.99 416.64 357.01 416.63 357.03 416.63 357.06 416.63 357.08 416.63 357.1 416.63 357.12 416.63 357.15 416.64 357.17 416.65 357.18 416.67 357.21 416.68 357.23 416.67 357.24 416.65 357.27 416.6 357.32 416.58 357.35 416.52 357.38 416.49 357.4 416.41 357.44 416.38 357.46 416.33 357.49 416.21 357.56 416.11 357.62 416.01 357.68 415.91 357.74 415.87 357.76 415.82 357.78 415.8 357.79 415.79 357.8 415.78 357.8 415.75 357.81 415.69 357.83 415.68 357.83 415.66 357.84 415.61 357.85 415.56 357.86 415.49 357.86 415.42 357.87 415.31 357.88 415.28 357.88 415.2 357.88 415.11 357.87 415.1 357.87 415.05 357.9 415.04 357.91 415 357.93 414.96 357.95 414.94 357.97 414.95 358.02 414.95 358.04 414.95 358.06 414.95 358.09 414.95 358.11 414.95 358.13 414.94 358.14 414.93 358.16 414.91 358.18 414.9 358.2 414.89 358.21 414.88 358.22 414.87 358.22 414.83 358.23 414.81 358.23 414.78 358.24 414.75 358.24 414.74 358.24 414.72 358.24 414.7 358.25 414.67 358.25 414.65 358.26 414.64 358.26 414.62 358.26 414.6 358.27 414.58 358.28 414.56 358.29 414.54 358.3 414.52 358.32 414.5 358.33 414.48 358.35 414.46 358.36 414.45 358.37 414.45 358.37 414.43 358.38 414.42 358.38 414.4 358.38 414.38 358.37 414.35 358.36 414.32 358.34 414.3 358.32 414.27 358.3 414.26 358.29 414.25 358.29 414.24 358.29 414.22 358.3 414.2 358.32 414.18 358.33 414.17 358.35 414.14 358.38 414.13 358.39 414.12 358.4 414.09 358.41 414.08 358.42 414.07 358.42 414.06 358.43 414.05 358.44 414.04 358.47 414.01 358.51 413.96 358.58 413.93 358.59 413.92 358.6 413.86 358.61 413.85 358.61 413.76 358.63 413.64 358.66 413.59 358.67 413.49 358.7 413.36 358.73 413.33 358.73 413.22 358.76 413.2 358.76 413.14 358.78 413.1 358.79 413.06 358.79 412.99 358.79 412.93 358.79 412.85 358.78 412.8 358.79 412.76 358.78 412.68 358.77 412.52 358.74 412.42 358.72 412.29 358.7 412.16 358.68 412.13 358.67 412.07 358.66 412.02 358.65 411.99 358.64 411.97 358.64 411.97 358.64 411.95 358.64 411.94 358.65 411.92 358.65 411.87 358.67 411.82 358.69 411.77 358.71 411.73 358.73 411.71 358.73 411.7 358.74 411.65 358.75 411.6 358.77 411.54 358.79 411.51 358.8 411.5 358.81 411.46 358.83 411.37 358.88 411.31 358.92 411.24 358.96 411.22 358.97 411.2 358.98 411.11 359.04 411.04 359.09 411.03 359.1 410.98 359.13 410.93 359.16 410.82 359.23 410.69 359.3 410.67 359.32 410.54 359.39 410.42 359.45 410.38 359.49 410.36 359.5 410.23 359.59 410.13 359.66 409.99 359.76 409.87 359.85 409.77 359.92 409.67 359.99 409.64 360.01 409.59 360.05 409.55 360.05 409.46 360.06 409.38 360.07 409.31 360.07 409.25 360.08 409.19 360.08 409.14 360.09 409.06 360.1 409.01 360.12 408.97 360.15 408.93 360.18 408.89 360.21 408.84 360.26 408.78 360.31 408.74 360.35 408.72 360.37 408.7 360.39 408.68 360.44 408.66 360.46 408.61 360.55 408.54 360.67 408.52 360.72 408.49 360.76 408.44 360.82 408.37 360.9 408.33 360.96 408.29 361 408.24 361.07 408.2 361.12 408.18 361.14 408.13 361.18 408.09 361.21 408.06 361.23 408 361.27 407.95 361.32 407.87 361.38 407.8 361.45 407.76 361.5 407.72 361.55 407.66 361.62 407.6 361.69 407.53 361.77 407.47 361.85 407.42 361.91 407.38 361.97 407.34 361.94 407.29 361.91 407.25 361.88 407.18 361.84 407.12 361.79 407.07 361.76 407.01 361.71 406.96 361.67 406.92 361.64 406.88 361.6 406.86 361.57 406.81 361.53 406.76 361.48 406.73 361.44 406.76 361.41 406.82 361.35 406.91 361.26 407 361.14 407.05 361.07 407.15 360.95 407.19 360.88 407.29 360.77 407.39 360.67 407.5 360.55 407.64 360.4 407.66 360.37 407.82 360.17 407.92 360.03 408.04 359.83 408.05 359.8 408.05 359.64 408.05 359.57 408.05 359.5 408.07 359.42 408.09 359.38 408.09 359.37 408.18 359.21 408.25 359.11 408.35 358.98 408.43 358.87 408.54 358.73 408.58 358.65 408.65 358.55 408.75 358.42 408.78 358.39 408.84 358.33 408.91 358.27 408.99 358.18 409.04 358.1 409.09 358.02 409.12 357.97 409.17 357.89 409.21 357.84 409.26 357.78 409.28 357.76 409.3 357.75 409.34 357.71 409.39 357.68 409.45 357.65 409.5 357.62 409.55 357.6 409.58 357.59 409.64 357.56 409.67 357.54 409.71 357.52 409.74 357.49 409.79 357.47 409.84 357.44 409.9 357.41 409.95 357.38 409.98 357.36 409.95 357.34 409.92 357.3 409.82 357.19 409.68 357.03 409.56 356.9 409.49 356.83 409.46 356.79 409.44 356.77 409.39 356.71 409.36 356.67 409.32 356.63 409.3 356.63 409.28 356.62 409.26 356.62 409.22 356.61 409.2 356.6 409.13 356.6 409.08 356.59 409.07 356.59 409.05 356.58 409.02 356.57 408.98 356.56 408.93 356.53 408.86 356.51 408.84 356.49 408.79 356.47 408.76 356.46 408.71 356.45 408.7 356.45 408.64 356.44 408.59 356.43 408.53 356.42 408.48 356.41 408.46 356.4 408.44 356.38 408.43 356.37 408.42 356.36 408.35 356.28 408.28 356.21 408.24 356.17 408.2 356.13 408.16 356.08 408.14 356.05 408.09 355.98 408.02 355.9 408.02 355.87 408.03 355.84 408.04 355.8 408.04 355.75 408.06 355.69 408.08 355.65 408.12 355.59 408.16 355.53 408.23 355.43 408.26 355.38 408.29 355.3 408.32 355.25 408.33 355.23 408.35 355.19 408.39 355.13 408.44 355.04 408.47 354.99 408.5 354.92 408.51 354.88 408.52 354.85 408.46 354.82 408.39 354.79 408.32 354.76 408.27 354.74 408.2 354.72 408.15 354.71 408.1 354.7 408.09 354.7 408.06 354.69 408.04 354.68 408.01 354.67 407.98 354.66 407.95 354.65 407.92 354.63 407.88 354.61 407.87 354.6 407.86 354.59 407.85 354.59 407.85 354.58 407.88 354.53 407.94 354.42 408.02 354.28 408.05 354.23 408.09 354.17 408.17 354.03 408.16 354.02 408.18 353.96 408.19 353.95 408.23 353.89 408.25 353.84 408.3 353.75 408.32 353.72 408.34 353.69 408.35 353.67 408.38 353.62 408.39 353.61 408.4 353.59 408.41 353.56 408.42 353.55 408.42 353.53 408.43 353.51 408.46 353.45 408.49 353.38 408.52 353.3 408.55 353.23 408.6 353.13 408.65 353.01 408.68 352.94 408.74 352.81 408.76 352.75 408.81 352.63 408.83 352.59 408.85 352.53 408.86 352.51 408.9 352.43 408.87 352.4 408.84 352.38 408.81 352.36 408.76 352.32 408.7 352.27 408.66 352.24 408.61 352.21 408.57 352.18 408.51 352.14 408.49 352.12 408.47 352.11 408.43 352.07 408.38 352.03 408.35 352 408.31 351.96 408.28 351.94 408.26 351.93 408.24 351.91 408.19 351.89 408.14 351.86 408.12 351.85 408.11 351.84 408.1 351.84 408.04 351.81 408.02 351.8 407.92 351.76 407.86 351.74 407.81 351.72 407.79 351.72 407.77 351.71 407.72 351.69 407.72 351.68 407.71 351.65 407.7 351.58 407.67 351.5 407.66 351.45 407.64 351.41 407.61 351.34 407.58 351.27 407.56 351.23 407.55 351.17 407.53 351.11 407.51 351.01 407.51 351 407.48 350.94 407.47 350.93 407.44 350.87 407.4 350.8 407.37 350.74 407.34 350.68 407.33 350.66 407.31 350.64 407.27 350.57 407.19 350.44 407.19 350.43 407.15 350.38 407.06 350.24 407.03 350.19 407.02 350.17 407 350.12 406.96 350.06 406.96 350.05 406.93 350 406.89 349.94 406.87 349.9 406.85 349.86 406.82 349.8 406.8 349.77 406.8 349.77 406.78 349.74 406.77 349.73 406.74 349.68 406.71 349.62 406.67 349.55 406.64 349.5 406.62 349.47 406.6 349.45 406.58 349.43 406.55 349.39 406.51 349.35 406.46 349.3 406.42 349.25 406.39 349.23 406.36 349.2 406.33 349.17 406.26 349.13 406.21 349.09 406.18 349.07 406.16 349.05 406.1 349.01 406.05 348.97 405.98 348.93 405.93 348.89 405.91 348.88 405.84 348.83 405.77 348.78 405.74 348.76 405.7 348.74 405.66 348.71 405.61 348.67 405.58 348.66 405.51 348.63 405.44 348.6 405.38 348.57 405.32 348.54 405.25 348.5 405.18 348.46 405.14 348.43 405.12 348.42 405.09 348.39 405.06 348.37 405.02 348.33 404.99 348.29 404.95 348.24 404.92 348.21 404.91 348.19 404.88 348.15 404.87 348.13 404.85 348.1 404.83 348.1 404.81 348.05 404.79 348.01 404.75 347.94 404.72 347.88 404.7 347.82 404.68 347.76 404.66 347.67 404.63 347.57 404.63 347.55 404.63 347.53 404.62 347.5 404.62 347.49 404.61 347.46 404.6 347.43 404.58 347.39 404.56 347.34 404.53 347.29 404.52 347.27 404.46 347.13 404.45 347.1 404.43 347.07 404.42 346.94 404.42 346.87 404.36 346.78 404.34 346.74 404.3 346.67 404.31 346.61 404.34 346.52 404.34 346.49 404.36 346.39 404.38 346.27 404.41 346.12 404.42 346.04 404.44 345.99 404.46 345.96 404.47 345.92 404.46 345.87 404.46 345.83 404.46 345.77 404.46 345.72 404.44 345.64 404.42 345.59 404.39 345.53 404.35 345.48 404.34 345.47 404.29 345.41 404.22 345.35 404.06 345.22 403.99 345.09 403.94 345 403.91 344.94 403.9 344.93 403.9 344.92 403.88 344.9 403.85 344.85 403.82 344.75 403.82 344.65 403.82 344.58 403.82 344.51 403.81 344.42 403.81 344.4 403.81 344.35 403.8 344.31 403.79 344.29 403.75 344.29 403.71 344.29 403.68 344.28 403.63 344.26 403.58 344.24 403.52 344.22 403.47 344.21 403.39 344.2 403.34 344.2 403.32 344.2 403.17 344.16 403.09 344.14 403 344.12 402.9 344.1 402.81 344.08 402.38 344.12 402.37 344.17 402.38 344.21 402.37 344.23 402.37 344.27 402.36 344.31 402.34 344.34 402.32 344.36 402.31 344.39 402.31 344.43 402.29 344.48 402.23 344.59 402.22 344.58 402.21 344.57 402.17 344.53 402.09 344.46 402.08 344.41 402.08 344.38 402.06 344.31 402.05 344.29 402.05 344.26 402.03 344.18 401.95 344.06 401.9 343.99 401.79 343.83 401.73 343.76 401.66 343.68 401.6 343.61 401.53 343.54 401.47 343.48 401.45 343.47 401.35 343.42 401.27 343.37 401.22 343.34 401.2 343.3 401.17 343.25 401.12 343.12 401.05 342.94 401.06 342.92 401.06 342.82 401.07 342.74 401.08 342.66 401.18 342.25 401.18 342.22 401.16 342.13 401.16 342.12 401.12 342.1 401.08 342.08 400.95 342.12 400.85 342.06 400.71 341.98 400.66 341.96 400.57 341.9 400.11 341.63 399.97 341.55 399.83 341.46 399.75 341.42 399.58 341.22 399.03 340.71 397.78 339.5 398.16 338.54 398.62 338.64 399.14 338.76 399.49 339.1 399.59 339.03 399.61 339.01 400.52 338.34 401.04 338.04 401.11 338.02 401.14 338.01 402.14 337.71 402.15 337.7 402.22 337.69 402.34 337.67 402.38 337.66 402.43 337.66 402.49 337.65 402.53 337.64 402.59 337.59 402.63 337.56 402.69 337.51 402.76 337.46 402.85 337.52 402.96 337.58 402.98 337.59 Z"/>
</g></svg>