<svg xmlns="http://www.w3.org/2000/svg" version="1.2" baseProfile="tiny" stroke-linecap="round" stroke-linejoin="round" viewBox="553.05 261 31.18 41.58"><g xmlns="http://www.w3.org/2000/svg" id="Lizoain">
<path d="M 578.19 263.31 578.26 263.32 578.35 263.32 578.5 263.34 578.64 263.35 578.79 263.37 578.93 263.38 579.09 263.39 579.2 263.4 579.23 263.36 579.27 263.28 579.3 263.22 579.37 263.14 579.45 263.05 579.52 262.96 579.58 262.9 579.64 262.87 579.73 262.82 579.84 262.78 579.98 262.7 580.11 262.62 580.28 262.52 580.31 262.53 580.42 262.54 580.52 262.56 580.7 262.59 580.81 262.61 580.95 262.64 581.09 262.68 581.21 262.72 581.26 262.73 581.36 262.76 581.48 262.79 581.59 262.81 581.66 262.83 581.75 262.84 581.87 262.85 582 262.87 582.14 262.89 582.2 262.9 582.23 262.96 582.3 263.08 582.35 263.18 582.37 263.22 582.37 263.26 582.34 263.34 582.32 263.41 582.31 263.5 582.3 263.62 582.3 263.71 582.28 263.75 582.25 263.8 582.21 263.86 582.16 263.94 582.11 264.04 582.06 264.13 582.05 264.15 582.14 264.17 582.27 264.18 582.35 264.2 582.39 264.2 582.42 264.2 582.43 264.2 582.44 264.21 582.49 264.21 582.55 264.22 582.63 264.23 582.7 264.24 582.79 264.25 582.83 264.25 582.88 264.25 582.98 264.25 583.08 264.25 583.13 264.25 583.2 264.23 583.39 264.18 583.46 264.15 583.52 264.14 583.58 264.13 583.63 264.11 583.69 264.1 583.75 264.09 583.81 264.07 583.9 264.05 583.97 264.03 584.03 264.01 584.09 263.99 584.13 264.09 584.15 264.15 584.17 264.22 584.18 264.26 584.19 264.29 584.19 264.31 584.2 264.33 584.2 264.37 584.19 264.45 584.18 264.55 584.16 264.72 584.14 264.93 584.12 265.12 584.11 265.29 584.09 265.49 584.08 265.52 584.07 265.6 584.01 265.59 583.9 265.63 583.78 265.69 583.68 265.72 583.58 265.77 583.49 265.82 583.39 265.87 583.27 265.91 583.18 265.94 583.09 265.95 583.01 265.98 582.93 266 582.82 266.06 582.75 266.1 582.72 266.13 582.65 266.17 582.57 266.21 582.48 266.27 582.41 266.31 582.33 266.36 582.25 266.41 582.13 266.48 582.04 266.54 582 266.56 581.94 266.6 581.83 266.67 581.69 266.78 581.54 266.88 581.43 266.96 581.36 267.01 581.24 267.11 581.2 267.15 581.18 267.16 581.18 267.17 581.12 267.29 581.12 267.31 581.08 267.4 581.06 267.5 581.03 267.6 580.97 267.81 580.94 267.91 580.92 267.99 580.9 268.07 580.89 268.16 580.87 268.23 580.84 268.37 580.81 268.49 580.78 268.6 580.75 268.72 580.71 268.83 580.69 268.9 580.66 268.97 580.63 269.06 580.6 269.13 580.57 269.17 580.54 269.22 580.52 269.25 580.51 269.27 580.5 269.29 580.49 269.34 580.48 269.44 580.47 269.53 580.46 269.65 580.44 269.78 580.43 269.87 580.4 269.93 580.38 269.99 580.36 270.03 580.35 270.05 580.35 270.12 580.34 270.2 580.34 270.21 580.28 270.34 580.27 270.38 580.27 270.4 580.26 270.46 580.25 270.54 580.23 270.61 580.22 270.69 580.21 270.77 580.2 270.82 580.21 270.9 580.22 270.96 580.23 271.01 580.25 271.09 580.25 271.15 580.25 271.19 580.25 271.23 580.26 271.29 580.26 271.35 580.27 271.47 580.28 271.59 580.28 271.66 580.28 271.73 580.27 271.82 580.28 271.88 580.28 271.92 580.28 272 580.28 272.05 580.3 272.14 580.31 272.19 580.31 272.28 580.32 272.36 580.32 272.37 580.33 272.43 580.36 272.54 580.37 272.62 580.4 272.72 580.43 272.82 580.46 272.92 580.5 273 580.52 273.08 580.55 273.15 580.58 273.24 580.6 273.31 580.61 273.41 580.62 273.51 580.62 273.59 580.63 273.68 580.62 273.76 580.63 273.81 580.62 273.87 580.62 273.94 580.63 274.03 580.64 274.1 580.65 274.15 580.66 274.17 580.67 274.2 580.68 274.24 580.71 274.31 580.73 274.39 580.75 274.43 580.78 274.5 580.81 274.58 580.83 274.64 580.84 274.67 580.84 274.71 580.81 274.75 580.77 274.8 580.72 274.86 580.65 274.95 580.63 274.97 580.54 275.07 580.44 275.18 580.34 275.31 580.27 275.38 580.26 275.39 580.18 275.49 580.17 275.5 580.15 275.52 580.12 275.56 580.07 275.62 580 275.69 579.91 275.81 579.85 275.88 579.77 275.96 579.71 276.02 579.71 276.03 579.7 276.15 579.69 276.29 579.68 276.42 579.67 276.43 579.67 276.59 579.66 276.75 579.65 276.9 579.65 277.02 579.65 277.18 579.65 277.35 579.65 277.46 579.65 277.62 579.65 277.69 579.65 277.81 579.65 277.97 579.65 278.1 579.65 278.27 579.65 278.41 579.65 278.44 579.63 278.52 579.6 278.61 579.56 278.72 579.53 278.82 579.51 278.93 579.49 279 579.47 279.08 579.47 279.1 579.44 279.23 579.41 279.35 579.38 279.47 579.36 279.6 579.34 279.67 579.33 279.69 579.27 279.75 579.21 279.82 579.16 279.87 579.12 279.93 579.08 279.98 579.01 280.06 578.96 280.12 578.92 280.15 578.86 280.19 578.81 280.23 578.78 280.26 578.74 280.3 578.74 280.31 578.73 280.36 578.73 280.37 578.73 280.44 578.72 280.53 578.72 280.62 578.71 280.72 578.7 280.86 578.69 280.96 578.68 281.08 578.67 281.13 578.67 281.18 578.67 281.2 578.67 281.23 578.65 281.31 578.64 281.41 578.63 281.54 578.62 281.65 578.61 281.74 578.6 281.86 578.58 281.99 578.57 282.07 578.56 282.15 578.57 282.28 578.58 282.32 578.6 282.39 578.62 282.46 578.63 282.51 578.69 282.62 578.71 282.67 578.73 282.71 578.77 282.77 578.81 282.83 578.84 282.88 578.87 282.93 578.92 282.99 578.96 283.05 579.02 283.11 579.05 283.16 579.08 283.2 579.11 283.24 579.13 283.28 579.15 283.33 579.15 283.37 579.17 283.41 579.17 283.42 579.19 283.47 579.22 283.58 579.24 283.62 579.24 283.65 579.26 283.76 579.27 283.88 579.27 283.94 579.26 284 579.27 284.06 579.27 284.11 579.28 284.16 579.29 284.2 579.31 284.26 579.35 284.33 579.38 284.4 579.41 284.45 579.44 284.5 579.48 284.54 579.52 284.59 579.56 284.63 579.62 284.67 579.67 284.71 579.72 284.75 579.76 284.79 579.8 284.83 579.81 284.85 579.82 284.86 579.84 284.89 579.87 284.94 579.88 284.98 579.91 285.04 579.93 285.09 579.99 285.12 580.07 285.16 580.11 285.19 580.13 285.2 580.25 285.27 580.34 285.32 580.4 285.31 580.51 285.29 580.61 285.27 580.75 285.24 580.86 285.22 580.94 285.2 581.04 285.19 581.12 285.17 581.11 285.21 581.09 285.28 581.07 285.41 581.05 285.54 581.04 285.62 581.03 285.68 581.02 285.75 581.01 285.84 581 285.87 581 285.91 580.99 285.97 580.99 286.04 580.97 286.17 580.96 286.27 580.95 286.29 580.95 286.34 580.94 286.41 580.95 286.52 580.95 286.66 580.95 286.74 580.99 286.77 581.08 286.83 581.19 286.9 581.3 286.97 581.39 287.02 581.4 287.14 581.39 287.25 581.39 287.27 581.4 287.34 581.4 287.47 581.41 287.57 581.41 287.6 581.41 287.62 581.42 287.65 581.44 287.71 581.48 287.8 581.53 287.91 581.57 288.02 581.6 288.1 581.63 288.19 581.65 288.27 581.67 288.35 581.7 288.45 581.71 288.51 581.74 288.6 581.77 288.67 581.79 288.72 581.81 288.78 581.8 288.88 581.79 288.99 581.79 289.01 581.78 289.06 581.77 289.18 581.76 289.27 581.76 289.3 581.76 289.32 581.76 289.35 581.75 289.43 581.74 289.48 581.74 289.52 581.75 289.57 581.76 289.6 581.77 289.63 581.79 289.7 581.84 289.82 581.88 289.95 581.93 290.07 581.96 290.16 581.99 290.27 582.02 290.35 582.05 290.42 582.08 290.54 582.13 290.68 582.13 290.69 582.14 290.72 582.16 290.77 582.17 290.79 582.18 290.84 582.19 290.87 582.21 290.92 582.23 290.98 582.27 291.11 582.28 291.13 582.32 291.25 582.33 291.28 582.34 291.31 582.36 291.38 582.39 291.46 582.4 291.56 582.41 291.64 582.41 291.66 582.43 291.79 582.43 291.8 582.44 291.86 582.44 291.88 582.46 292.04 582.46 292.07 582.46 292.09 582.5 292.31 582.53 292.48 582.55 292.57 582.55 292.62 582.55 292.62 582.55 292.7 582.55 292.75 582.55 292.85 582.55 292.89 582.56 292.91 582.56 292.93 582.56 292.94 582.57 292.97 582.6 293.02 582.63 293.09 582.64 293.12 582.67 293.19 582.71 293.27 582.71 293.28 582.72 293.29 582.72 293.3 582.79 293.44 582.85 293.56 582.92 293.7 582.83 293.84 582.56 294.28 582.55 294.3 582.47 294.42 582.42 294.5 582.4 294.57 582.39 294.59 582.37 294.64 582.37 294.65 582.34 294.74 582.32 294.81 582.3 294.88 582.27 294.94 582.24 295.01 582.22 295.06 582.21 295.13 582.2 295.16 582.18 295.22 582.17 295.28 582.16 295.32 582.14 295.36 582.12 295.39 582.1 295.41 582.01 295.55 582 295.56 582 295.58 581.95 295.64 581.89 295.74 581.86 295.8 581.84 295.85 581.82 295.91 581.8 295.97 581.78 296.01 581.75 296.07 581.7 296.14 581.68 296.2 581.67 296.21 581.67 296.23 581.64 296.28 581.61 296.37 581.58 296.44 581.55 296.51 581.54 296.54 581.51 296.58 581.51 296.61 581.47 296.74 581.46 296.79 581.44 296.87 581.41 296.98 581.39 297.02 581.38 297.06 581.37 297.13 581.36 297.19 581.35 297.28 581.35 297.32 581.35 297.33 581.36 297.37 581.37 297.45 581.38 297.51 581.39 297.58 581.4 297.64 581.41 297.72 581.41 297.81 581.42 297.86 581.41 297.98 581.25 297.94 581.04 297.88 580.93 297.86 580.77 297.81 580.62 297.77 580.53 297.74 580.43 297.72 580.39 297.71 580.3 297.69 580.24 297.68 580.09 297.65 579.93 297.61 579.85 297.6 579.78 297.59 579.67 297.56 579.65 297.55 579.52 297.49 579.41 297.45 579.33 297.44 579.28 297.45 579.25 297.45 579.21 297.46 579.16 297.47 579.08 297.5 578.93 297.55 578.86 297.58 578.85 297.58 578.81 297.58 578.68 297.6 578.62 297.61 578.52 297.63 578.37 297.68 578.29 297.7 578.19 297.73 578.15 297.74 578.07 297.75 578 297.73 577.96 297.71 577.95 297.71 577.93 297.77 577.91 297.82 577.89 297.85 577.86 297.87 577.82 297.86 577.77 297.82 577.73 297.76 577.74 297.75 577.77 297.72 577.79 297.68 577.8 297.64 577.8 297.6 577.78 297.54 577.76 297.5 577.71 297.45 577.66 297.39 577.58 297.3 577.5 297.18 577.47 297.14 577.39 297.06 577.39 297.05 577.35 297.01 577.33 296.98 577.28 296.93 577.26 296.89 577.24 296.81 577.22 296.74 577.21 296.71 577.2 296.63 577.13 296.44 577.12 296.43 577.12 296.42 577.08 296.32 577.07 296.29 577.05 296.24 577.02 296.15 576.99 296.06 576.95 295.96 576.86 295.76 576.79 295.64 576.71 295.51 576.61 295.36 576.54 295.28 576.49 295.21 576.43 295.32 576.41 295.35 576.27 295.6 576.17 295.78 576.05 295.96 576 296.03 575.98 296.08 575.95 296.12 575.95 296.13 575.94 296.13 575.9 296.15 575.84 296.17 575.78 296.21 575.72 296.25 575.68 296.26 575.62 296.27 575.49 296.3 575.39 296.32 575.36 296.34 575.32 296.38 575.29 296.42 575.25 296.47 575.22 296.53 575.12 296.67 575.11 296.68 575.09 296.69 574.98 296.77 574.95 296.8 574.94 296.81 574.92 296.82 574.86 296.86 574.8 296.89 574.72 296.92 574.6 296.94 574.57 296.94 574.55 296.92 574.52 296.88 574.47 296.83 574.34 296.87 574.28 296.89 574.25 296.9 574.18 296.93 574.14 296.94 574.13 296.95 573.9 297.03 573.84 297.05 573.55 297.16 573.5 297.18 573.44 297.2 573.36 297.22 573.24 297.26 573.21 297.27 573.17 297.29 573.14 297.3 573.1 297.31 573.07 297.32 573.04 297.33 573 297.34 572.97 297.35 572.94 297.37 572.9 297.38 572.87 297.39 572.81 297.42 572.74 297.45 572.66 297.49 572.61 297.52 572.61 297.52 572.56 297.56 572.54 297.57 572.47 297.62 572.42 297.65 572.4 297.66 572.38 297.68 572.37 297.68 572.34 297.7 572.26 297.68 572.11 297.65 572.05 297.63 571.98 297.58 571.87 297.52 571.31 297.28 571.33 297.35 571.37 297.6 571.39 297.68 571.44 297.92 571.42 297.93 571.21 298.01 571.18 298.03 571.16 298.03 571.06 298.08 570.96 298.13 570.86 298.17 570.84 298.18 570.82 298.19 570.74 298.24 570.66 298.28 570.46 298.35 570.43 298.35 570.39 298.37 570.23 298.44 570.04 298.26 570.01 298.22 569.99 298.21 569.9 298.11 569.88 298.1 569.83 298.02 569.81 298.01 569.78 297.98 569.69 297.92 569.6 297.88 569.52 297.85 569.49 297.85 569.48 297.85 569.46 297.85 569.39 297.87 569.33 297.89 569.31 297.85 569.28 297.8 569.25 297.76 569.24 297.75 569.21 297.71 569.14 297.64 569.09 297.59 568.96 297.46 568.89 297.38 568.85 297.34 568.85 297.34 568.65 297.12 568.64 297.12 568.59 297.06 568.45 296.89 568.35 296.76 568.27 296.67 568.21 296.62 568.19 296.6 568.13 296.68 568.12 296.69 568.09 296.73 568.09 296.73 568.04 296.71 568.01 296.7 567.98 296.69 567.92 296.66 567.85 296.64 567.8 296.63 567.74 296.61 567.71 296.6 567.68 296.59 567.63 296.6 567.56 296.61 567.49 296.63 567.41 296.65 567.36 296.67 567.28 296.7 567.2 296.72 567.17 296.74 567.17 296.74 567.16 296.76 567.15 296.78 567.14 296.79 567.14 296.79 567.08 296.87 567.04 296.91 567.01 296.94 567 296.95 566.87 297.11 566.84 297.14 566.78 297.2 566.77 297.21 566.74 297.24 566.72 297.25 566.66 297.31 566.57 297.4 566.53 297.43 566.5 297.47 566.43 297.59 566.37 297.7 566.36 297.71 566.33 297.78 566.22 297.96 566.14 298.09 566.09 298.08 565.96 298.06 565.96 298.07 565.88 298.21 565.87 298.24 565.76 298.47 565.64 298.72 565.4 299.27 565.26 299.57 565.23 299.63 565.22 299.65 565.2 299.78 565.16 300 565.14 300.13 565.11 300.28 565.11 300.3 565.1 300.31 565.1 300.33 565.1 300.35 565.08 300.53 565.07 300.69 565.05 300.84 565.05 300.86 565.04 300.89 565.04 300.94 565.04 300.96 565.03 301 565.01 301.15 565.01 301.19 564.98 301.36 564.97 301.42 564.97 301.53 564.97 301.6 565 301.71 565.02 301.85 565.05 302.08 565.07 302.21 565.1 302.24 565.04 302.24 564.99 302.25 564.73 302.27 564.72 302.27 564.61 302.28 564.55 302.29 564.54 302.3 564.5 302.33 564.21 302.58 563.15 302.09 562.44 301.7 561.89 301.43 561.83 301.47 561.69 301.57 561.57 301.65 561.53 301.67 561.49 301.7 561.45 301.73 561.39 301.73 561.38 301.73 560.89 301.55 560.19 301.27 559.71 301.06 559.45 300.95 559.19 300.84 559.16 300.84 558.73 300.89 558.41 300.93 557.79 301.05 557.53 301.12 557.21 301.21 557.16 301.24 557.14 301.2 557.1 301.1 557.04 300.91 557.03 300.86 557 300.73 556.94 300.52 556.93 300.45 556.91 300.35 556.9 300.33 556.9 300.32 556.87 300.18 556.86 300.1 556.84 300 556.84 299.9 556.85 299.8 556.87 299.64 556.88 299.52 556.88 299.45 556.9 299.43 556.95 299.36 557.03 299.25 557.1 299.16 557.06 299.1 556.97 298.97 556.91 298.87 556.81 298.7 556.69 298.53 556.62 298.44 556.54 298.34 556.36 298.14 556.2 297.96 556.01 297.77 555.89 297.65 555.65 297.71 555.36 297.78 554.96 297.88 554.97 297.76 554.98 297.65 554.99 297.59 554.88 297.47 554.85 297.44 554.81 297.4 554.72 297.33 554.6 297.22 554.58 297.19 554.56 297.16 554.53 297.12 554.51 297.08 554.47 297 554.46 296.97 554.46 296.96 554.44 296.92 554.43 296.9 554.39 296.81 554.29 296.67 554.22 296.58 554.19 296.54 554.19 296.54 554.17 296.52 554.14 296.47 554.13 296.46 554.1 296.43 554.04 296.35 554 296.3 553.97 296.26 553.92 296.2 553.9 296.17 553.85 296.11 553.79 296.03 553.72 295.95 553.69 295.92 553.6 295.8 553.55 295.74 553.69 295.61 553.72 295.59 553.75 295.57 553.49 295.35 553.32 295.2 553.2 295.1 553.09 295.01 553.07 294.99 553.35 294.53 553.4 294.44 553.48 294.31 553.51 294.27 553.53 294.24 553.56 294.18 553.6 294.12 553.64 294.07 553.72 294.02 553.75 294 553.77 293.99 553.79 293.97 553.81 293.96 553.83 293.94 553.84 293.92 553.88 293.88 553.92 293.83 553.96 293.78 553.99 293.75 554.01 293.72 554.06 293.65 554.18 293.51 554.24 293.44 554.38 293.25 554.43 293.2 554.44 293.19 554.49 293.13 554.59 293 554.69 292.87 554.84 292.7 554.93 292.58 555.04 292.44 555.1 292.37 555.12 292.35 555.19 292.27 555.39 292.06 555.56 291.89 555.65 291.8 555.82 291.72 556.04 291.61 556.22 291.52 556.33 291.44 556.58 291.26 556.83 291.1 556.96 291.12 557.13 291.15 557.24 291.18 557.27 291.19 557.39 291.21 557.58 291.25 557.68 291.27 557.72 290.82 557.74 290.65 557.74 290.63 557.77 290.36 557.69 290.32 557.41 290.16 557.4 290.15 557.53 289.41 557.5 289.41 557.46 289.4 557.34 289.36 557.11 289.28 556.96 289.23 556.9 289.23 556.53 289.23 556.53 289.18 556.53 289.1 556.52 288.98 556.51 288.91 556.51 288.86 556.52 288.82 556.54 288.77 556.6 288.62 556.62 288.57 556.65 288.46 556.66 288.44 556.67 288.42 556.7 288.32 556.72 288.28 556.74 288.18 556.76 288.14 556.77 288.13 556.8 288.08 556.85 288.02 556.9 287.98 556.91 287.96 556.97 287.9 557.01 287.86 557.07 287.82 557.13 287.78 557.19 287.71 557.24 287.64 557.14 287.55 556.89 287.29 556.95 287.31 557.1 287.35 557.35 287.42 557.4 287.42 557.44 287.41 557.64 287.32 557.82 287.25 557.97 287.18 558.2 287.09 558.2 287.05 558.22 286.98 558.25 286.91 558.26 286.84 558.31 286.69 558.37 286.51 558.41 286.39 558.43 286.32 558.45 286.26 558.54 286.06 558.64 285.85 558.65 285.82 558.72 285.65 558.73 285.63 558.8 285.51 558.85 285.36 558.86 285.31 558.88 285.24 558.89 285.2 558.9 285.15 558.92 285.09 558.96 284.96 558.98 284.89 558.99 284.85 559.02 284.81 559.03 284.78 559.07 284.7 559.06 284.65 559.05 284.58 559.03 284.49 559.01 284.37 559 284.3 559 284.25 559 284.24 559 284.23 559 284.21 559 284.19 559.03 284.14 559.06 284.08 559.09 284.01 559.15 283.85 559.16 283.84 559.2 283.73 559.23 283.63 559.26 283.55 559.29 283.46 559.33 283.36 559.34 283.33 559.38 283.21 559.38 283.19 559.41 283.05 559.45 282.9 559.45 282.9 559.48 282.77 559.51 282.6 559.53 282.5 559.54 282.44 559.57 282.36 559.58 282.32 559.6 282.27 559.64 282.15 559.67 282.05 559.68 282.03 559.69 281.99 559.72 281.93 559.75 281.83 559.79 281.75 559.8 281.71 559.83 281.68 559.9 281.61 560.01 281.53 560.11 281.44 560.26 281.28 560.39 281.12 560.45 281.05 560.67 280.78 560.68 280.77 560.7 280.75 560.77 280.66 560.76 280.58 560.78 280.56 560.82 280.54 560.88 280.48 560.91 280.46 560.98 280.41 561.06 280.34 561.08 280.33 561.11 280.31 561.18 280.25 561.17 280.22 561.16 280.2 561.15 280.18 561.14 280.16 561.12 280.07 561.09 280.02 561.06 279.96 561.01 279.88 560.95 279.79 560.92 279.74 560.89 279.69 560.85 279.62 560.76 279.47 560.77 279.46 560.8 279.43 560.84 279.38 560.9 279.31 560.99 279.22 561.08 279.12 561.19 279.01 561.35 278.86 561.42 278.79 561.48 278.75 561.5 278.72 561.56 278.64 561.64 278.54 561.65 278.53 561.67 278.5 561.7 278.47 561.73 278.42 561.79 278.34 561.9 278.19 561.96 278.1 562.03 278.01 562.04 277.98 562.04 277.94 562.03 277.9 562.02 277.76 562.01 277.64 562 277.52 561.99 277.42 561.98 277.3 561.97 277.23 561.97 277.16 561.94 277.08 561.92 276.93 561.89 276.82 561.9 276.76 561.9 276.66 561.9 276.6 561.9 276.51 561.91 276.41 561.91 276.35 561.92 276.3 561.95 276.2 561.97 276.13 561.98 276.07 562.02 275.98 562.06 275.86 562.06 275.83 562.05 275.81 562.03 275.65 562.01 275.49 561.99 275.35 561.98 275.33 561.97 275.25 561.94 275.27 561.88 275.34 561.85 275.36 561.83 275.39 561.8 275.42 561.79 275.43 561.78 275.46 561.77 275.5 561.76 275.53 561.74 275.55 561.72 275.56 561.7 275.58 561.67 275.59 561.64 275.59 561.61 275.6 561.57 275.6 561.52 275.6 561.51 275.6 561.5 275.61 561.48 275.62 561.46 275.65 561.43 275.67 561.4 275.7 561.36 275.74 561.33 275.77 561.31 275.79 561.3 275.81 561.26 275.86 561.2 275.95 561.17 276.01 561.15 276.03 561.15 276.03 561.13 276.03 561.11 276.02 561.09 276 561.07 275.97 561.05 275.92 561.03 275.86 561.01 275.82 560.98 275.74 560.94 275.68 560.93 275.65 560.91 275.63 560.9 275.61 560.88 275.61 560.85 275.61 560.77 275.62 560.73 275.63 560.72 275.63 560.68 275.63 560.63 275.63 560.54 275.62 560.52 275.62 560.48 275.61 560.47 275.61 560.4 275.6 560.35 275.56 560.29 275.49 560.25 275.44 560.28 275.35 560.29 275.33 560.3 275.3 560.32 275.24 560.33 275.21 560.33 275.19 560.33 275.17 560.32 275.15 560.31 275.13 560.3 275.11 560.29 275.09 560.26 275.04 560.22 274.99 560.23 274.92 560.23 274.89 560.23 274.88 560.22 274.85 560.2 274.81 560.19 274.77 560.18 274.74 560.18 274.7 560.18 274.67 560.17 274.64 560.15 274.59 560.14 274.54 560.13 274.51 560.12 274.48 560.11 274.47 560.1 274.46 560.08 274.43 560.08 274.38 560.08 274.32 560.08 274.23 560.08 274.14 560.07 274.05 560.07 274.02 560.06 273.99 560.06 273.97 560.04 273.89 560.02 273.84 560 273.73 559.98 273.64 559.96 273.54 559.97 273.46 559.97 273.36 559.98 273.26 559.99 273.24 560 273.19 560.03 273.11 560.05 273.05 560.05 273.02 560.05 272.95 560.05 272.84 560.06 272.75 560.06 272.66 560.02 272.56 560 272.48 559.96 272.36 559.93 272.29 559.92 272.25 559.9 272.19 559.88 272.13 559.86 272.07 559.84 271.99 559.82 271.91 559.81 271.86 559.81 271.82 559.79 271.73 559.79 271.72 559.77 271.63 559.76 271.57 559.74 271.5 559.72 271.43 559.71 271.36 559.69 271.31 559.66 271.22 559.62 271.11 559.58 271 559.54 270.89 559.59 270.79 559.62 270.74 559.62 270.71 559.64 270.66 559.64 270.65 559.66 270.55 559.68 270.49 559.68 270.45 559.69 270.4 559.7 270.33 559.7 270.31 559.7 270.28 559.7 270.21 559.71 270.14 559.71 270.07 559.71 270 559.72 269.91 559.72 269.84 559.72 269.79 559.71 269.75 559.71 269.72 559.7 269.68 559.69 269.63 559.68 269.6 559.67 269.57 559.66 269.53 559.66 269.5 559.66 269.44 559.66 269.35 559.65 269.22 559.65 269.15 559.64 269.07 559.63 269 559.63 268.94 559.62 268.89 559.62 268.84 559.61 268.79 559.6 268.76 559.59 268.71 559.58 268.66 559.56 268.61 559.54 268.55 559.52 268.48 559.5 268.4 559.48 268.33 559.46 268.29 559.44 268.22 559.42 268.16 559.4 268.12 559.39 268.08 559.36 268.04 559.34 268 559.31 267.95 559.27 267.89 559.23 267.83 559.19 267.77 559.11 267.67 559.07 267.61 559.01 267.54 558.94 267.46 558.88 267.39 558.83 267.34 558.76 267.27 558.7 267.22 558.67 267.2 558.65 267.18 558.74 267.1 558.82 267.02 558.88 266.96 558.96 266.89 559.03 266.83 559.04 266.82 559.11 266.76 559.09 266.73 559.08 266.71 559.06 266.67 559.02 266.59 558.97 266.5 558.93 266.43 558.89 266.34 558.83 266.24 558.79 266.17 558.75 266.09 558.72 266.03 558.68 265.96 558.62 265.85 558.6 265.81 558.54 265.71 558.6 265.63 558.7 265.49 558.8 265.36 558.91 265.22 559 265.1 559.12 264.95 559.21 264.84 559.23 264.81 559.24 264.8 559.28 264.75 559.29 264.74 559.37 264.64 559.44 264.54 559.54 264.42 559.66 264.3 559.73 264.21 559.78 264.16 559.8 264.14 559.82 264.12 559.83 264.11 559.87 264.06 559.91 264.02 559.96 263.96 560.03 263.87 560.08 263.82 560.15 263.74 560.2 263.69 560.24 263.65 560.3 263.56 560.38 263.45 560.45 263.34 560.51 263.25 560.57 263.16 560.62 263.07 560.67 263.01 560.67 262.97 560.65 262.87 560.63 262.73 560.62 262.66 560.61 262.57 560.6 262.52 560.61 262.47 560.62 262.41 560.64 262.31 560.65 262.24 560.66 262.16 560.67 262.13 560.71 262.05 560.78 261.91 560.84 261.81 560.9 261.68 560.97 261.55 561.1 261.47 561.24 261.39 561.34 261.39 561.45 261.41 561.59 261.42 561.68 261.37 561.75 261.33 561.81 261.3 561.96 261.29 562.06 261.28 562.21 261.28 562.35 261.27 562.43 261.27 562.42 261.12 562.41 261.03 562.53 261.1 562.65 261.17 562.79 261.24 562.96 261.33 563.05 261.38 563.08 261.4 563.11 261.41 563.15 261.41 563.23 261.42 563.3 261.42 563.34 261.42 563.39 261.4 563.47 261.39 563.52 261.38 563.59 261.37 563.69 261.35 563.78 261.33 563.86 261.31 563.95 261.38 564.05 261.45 564.14 261.53 564.27 261.63 564.31 261.68 564.38 261.75 564.44 261.83 564.56 261.99 564.67 262.13 564.75 262.25 564.83 262.35 564.91 262.47 565.01 262.6 565.04 262.63 565.05 262.65 565.17 262.82 565.27 262.95 565.42 263.14 565.49 263.23 565.61 263.42 565.7 263.54 565.85 263.74 565.92 263.84 565.94 263.85 565.97 263.89 566.08 263.84 566.14 263.82 566.29 263.76 566.4 263.72 566.5 263.68 566.57 263.66 566.7 263.61 566.92 263.53 567.07 263.48 567.25 263.42 567.33 263.39 567.48 263.34 567.69 263.27 567.76 263.25 567.83 263.23 567.87 263.22 567.98 263.19 568.08 263.16 568.19 263.14 568.22 263.14 568.23 263.13 568.25 263.13 568.32 263.11 568.33 263.11 568.34 263.11 568.35 263.11 568.4 263.1 568.46 263.08 568.5 263.06 568.52 263.05 568.57 263.04 568.58 263.03 568.75 262.96 568.87 262.92 568.91 262.9 568.92 262.9 568.94 262.89 569.1 262.84 569.26 262.79 569.35 262.76 569.43 262.74 569.44 262.73 569.59 262.69 569.76 262.64 569.97 262.57 570.1 262.53 570.23 262.49 570.38 262.5 570.54 262.51 570.61 262.53 570.71 262.55 570.82 262.58 570.88 262.6 570.91 262.61 570.96 262.65 571.04 262.71 571.14 262.78 571.2 262.81 571.28 262.84 571.32 262.86 571.36 262.89 571.43 262.98 571.5 263.04 571.57 263.08 571.62 263.1 571.69 263.15 571.81 263.22 571.91 263.28 571.99 263.32 572.08 263.38 572.15 263.42 572.25 263.44 572.34 263.47 572.35 263.47 572.47 263.5 572.55 263.53 572.63 263.55 572.71 263.6 572.82 263.65 572.92 263.71 572.98 263.74 573.05 263.79 573.11 263.84 573.15 263.87 573.25 263.88 573.36 263.9 573.47 263.92 573.59 263.94 573.64 263.94 573.72 263.95 573.78 263.96 573.81 263.96 573.83 263.96 573.89 263.97 573.98 263.98 574.1 264 574.18 264.01 574.34 264.02 574.4 264.03 574.51 264.04 574.65 264.06 574.79 264.07 574.93 264.08 575.01 264.09 575.1 264.1 575.19 264.11 575.29 264.12 575.42 264.14 575.52 264.15 575.61 264.16 575.69 264.17 575.81 264.19 575.94 264.21 576.02 264.22 576.17 264.24 576.3 264.31 576.42 264.37 576.51 264.43 576.56 264.35 576.61 264.28 576.65 264.23 576.71 264.13 576.8 264 576.87 263.89 576.95 263.76 577.03 263.64 577.1 263.53 577.16 263.44 577.22 263.34 577.25 263.27 577.36 263.28 577.43 263.28 577.54 263.28 577.66 263.28 577.76 263.28 577.93 263.29 578.06 263.3 578.19 263.31 Z"/>
</g></svg>