<svg xmlns="http://www.w3.org/2000/svg" version="1.2" baseProfile="tiny" stroke-linecap="round" stroke-linejoin="round" viewBox="384.82 430.7 25.48 43.75"><g xmlns="http://www.w3.org/2000/svg" id="Lodosa">
<path d="M 386.11 444.57 386.13 444.52 386.18 444.4 386.22 444.32 386.25 444.27 386.3 444.2 386.42 444.04 386.48 443.96 386.49 443.95 386.5 443.94 386.51 443.92 386.52 443.9 386.64 443.75 386.65 443.73 386.67 443.7 386.68 443.67 386.71 443.6 386.71 443.59 386.72 443.58 386.91 443.02 386.98 442.84 387.04 442.69 387.06 442.64 387.1 442.54 387.16 442.38 387.18 442.35 387.23 442.24 387.31 442.04 387.32 442 387.33 441.98 387.34 441.95 387.34 441.91 387.35 441.89 387.36 441.85 387.37 441.82 387.38 441.76 387.38 441.74 387.38 441.72 387.38 441.7 387.37 441.66 387.34 441.55 387.3 441.37 387.24 441.18 387.17 441 387 440.55 386.88 440.27 386.8 440.03 386.77 439.86 386.74 439.77 386.72 439.69 386.72 439.64 386.72 439.54 386.72 439.5 386.72 439.47 386.73 439.45 386.75 439.34 386.77 439.24 386.79 439.17 386.79 439.15 386.8 439.11 386.8 439.1 386.81 439.08 386.81 439.04 386.81 439.02 386.81 439 386.81 438.96 386.8 438.8 386.8 438.72 386.79 438.6 386.78 438.4 386.79 438.35 386.79 438.22 386.79 438.17 386.79 438.15 386.79 438.13 386.79 438.1 386.79 438.06 386.79 437.99 386.79 437.94 386.79 437.88 386.79 437.83 386.79 437.74 386.79 437.7 386.79 437.68 386.79 437.39 386.81 437.35 386.82 437.31 386.91 437.07 386.91 437.03 386.93 436.91 386.94 436.81 386.96 436.74 386.98 436.66 387 436.55 387 436.51 387.05 436.31 387.05 436.29 387.1 436.09 387.11 436.04 387.13 435.94 387.18 435.69 387.2 435.53 387.23 435.35 387.24 435.31 387.25 435.27 387.27 435.17 387.33 435.03 387.39 434.91 387.4 434.89 387.5 434.7 387.58 434.54 387.63 434.45 387.71 434.32 387.77 434.22 388.03 433.82 388.07 433.75 388.14 433.69 388.17 433.66 388.17 433.65 388.22 433.62 388.33 433.61 388.4 433.64 388.55 433.72 388.56 433.72 388.92 433.87 389.34 434.04 389.56 434.14 389.88 434.28 390.35 434.37 390.44 434.39 390.5 434.41 390.59 434.44 390.61 434.45 390.67 434.46 390.7 434.47 390.76 434.49 390.78 434.5 390.79 434.5 390.81 434.51 390.86 434.53 390.93 434.57 391.02 434.6 391.07 434.62 391.13 434.64 391.21 434.66 391.23 434.66 391.27 434.68 391.31 434.69 391.37 434.71 391.43 434.75 391.63 434.83 391.78 434.9 391.97 434.99 392.02 434.89 392.06 434.83 392.06 434.82 392.15 434.67 392.27 434.44 392.28 434.42 392.29 434.41 392.29 434.4 392.31 434.37 392.32 434.36 392.36 434.27 392.48 434.04 392.56 433.88 392.56 433.88 392.56 433.87 392.57 433.82 392.59 433.61 392.6 433.59 392.61 433.5 392.68 432.95 392.69 432.88 392.71 432.65 392.72 432.63 392.81 432.37 392.82 432.34 392.84 432.3 392.85 432.23 392.88 432 392.89 431.92 392.89 431.89 392.9 431.87 392.9 431.85 392.92 431.74 392.92 431.74 392.94 431.68 392.97 431.59 392.99 431.52 393.03 431.36 393.06 431.24 393.07 431.21 393.07 431.19 393.06 431.16 393.18 430.79 393.19 430.75 393.2 430.72 393.2 430.71 393.26 430.74 393.34 430.78 393.35 430.78 393.45 430.83 393.66 430.92 393.86 431.02 393.88 431.03 393.89 431.04 394.01 431.12 394.03 431.12 394.12 431.18 394.2 431.24 394.28 431.32 394.4 431.43 394.41 431.44 394.43 431.46 394.63 431.66 394.87 431.89 395.01 432.04 395.02 432.05 395.1 432.13 395.37 432.4 395.58 432.61 395.64 432.66 395.64 432.67 395.72 432.74 395.76 432.76 395.82 432.8 395.92 432.85 396.02 432.89 396.13 432.91 396.26 432.94 396.28 432.95 396.31 432.96 396.41 432.98 396.52 433.02 396.69 433.08 396.82 433.12 396.83 433.12 396.86 433.13 396.9 433.14 397.03 433.18 397.16 433.22 397.4 433.3 397.41 433.3 397.65 433.38 397.76 433.42 398.15 433.54 398.17 433.54 398.18 433.55 398.22 433.56 398.31 433.59 398.37 433.61 398.39 433.62 398.48 433.65 398.66 433.71 400.36 433.74 400.45 433.74 400.49 433.76 400.61 433.81 400.72 433.88 400.9 433.99 401.03 434.07 401.13 434.13 401.21 434.17 401.28 434.21 401.35 434.24 401.43 434.27 401.49 434.3 401.54 434.32 401.63 434.36 401.64 434.37 401.77 434.43 401.83 434.47 401.84 434.48 401.87 434.5 401.88 434.51 401.89 434.52 401.99 434.64 402.01 434.66 402.03 434.69 402.12 434.8 402.2 434.9 402.22 434.93 402.24 434.94 402.31 434.97 402.39 435 402.4 435.01 402.51 435.06 402.72 435.17 402.75 435.18 402.76 435.19 402.78 435.2 402.8 435.21 402.82 435.21 402.84 435.2 402.84 435.21 402.98 435.51 402.99 435.53 403 435.54 403.03 435.61 403.07 435.7 403.27 436.11 403.27 436.12 403.44 436.47 403.49 436.58 403.55 436.7 403.68 436.98 403.69 437.05 403.75 437.51 403.76 437.54 403.82 438 403.85 438.18 403.86 438.29 403.86 438.31 403.87 438.31 403.88 438.41 403.89 438.44 404.07 439 404.08 439.04 404.15 439.24 404.15 439.25 404.01 439.56 404 439.58 403.99 439.6 403.97 439.61 403.95 439.63 403.93 439.69 403.72 440.25 403.71 440.33 403.69 440.37 403.69 440.4 403.68 440.53 403.76 440.64 403.81 440.71 403.9 440.83 403.91 440.85 403.93 440.88 403.98 440.94 403.98 440.95 404.02 441 404.22 441.28 404.29 441.38 404.33 441.4 404.44 441.46 404.58 441.52 404.63 441.55 404.68 441.58 404.77 441.62 404.82 441.65 404.86 441.68 404.91 441.7 404.92 441.71 405 441.75 405.02 441.76 405.07 441.79 405.08 441.79 405.09 441.8 405.09 441.81 405.1 441.82 405.14 441.85 405.2 441.9 405.25 441.95 405.34 441.99 405.39 442.01 405.49 442.06 405.56 442.09 405.73 442.16 405.78 442.18 405.85 442.22 405.95 442.26 406.04 442.31 406.11 442.34 406.15 442.36 406.21 442.39 406.26 442.41 406.32 442.43 406.38 442.46 406.65 442.59 406.77 442.65 406.82 442.68 406.9 442.73 406.93 442.76 406.96 442.78 406.98 442.79 407.01 442.82 407.04 442.85 407.06 442.86 407.09 442.88 407.11 442.9 407.14 442.92 407.22 442.97 407.28 443.01 407.31 443.03 407.31 443.03 407.32 443.02 407.33 443.03 407.35 443.03 407.5 443.14 407.64 443.3 407.86 443.56 407.99 443.64 408.34 443.86 408.44 443.92 408.67 444.08 408.77 444.1 408.9 444.16 409.03 444.23 409.19 444.3 409.32 444.39 409.45 444.48 409.52 444.51 409.56 444.53 409.59 444.54 409.7 444.56 409.72 444.57 409.78 444.58 409.81 444.6 409.83 444.61 409.87 444.66 409.9 444.7 409.91 444.72 409.92 444.74 409.95 444.76 409.97 444.78 409.99 444.79 410.01 444.8 410.03 444.82 410.05 444.84 410.07 444.87 410.1 444.89 410.14 444.94 410.17 444.97 410.23 445.01 410.28 445.05 410.27 445.09 410.23 445.31 410.21 445.42 410.17 445.6 410.16 445.62 410.16 445.64 410.15 445.66 410.12 445.76 410.11 445.78 410.11 445.78 410.05 445.93 409.92 446.41 409.83 446.74 409.83 446.76 409.82 446.77 409.81 446.79 409.81 446.8 409.8 446.81 409.41 447.56 409.38 447.63 409.37 447.64 409.36 447.66 409.32 447.69 409.31 447.7 409.15 447.86 409.14 447.87 409.13 447.89 409.08 447.94 409.07 447.95 409.05 447.97 408.99 448.03 408.87 448.15 408.81 448.21 408.77 448.23 408.57 448.28 408.2 448.37 408.08 448.4 408.06 448.41 408.03 448.41 407.87 448.45 407.68 448.5 407.53 448.54 407.41 448.57 407.22 448.62 407.11 448.66 407.07 448.68 406.98 448.71 406.89 448.74 406.74 448.8 406.72 448.81 406.52 448.89 406.33 448.96 406.17 449.02 406.11 449.04 406.07 449.05 405.93 449.12 405.78 449.19 405.72 449.22 405.71 449.22 405.7 449.23 405.63 449.26 405.58 449.28 405.57 449.29 405.5 449.31 405.46 449.34 405.44 449.34 405.42 449.35 405.4 449.37 405.36 449.41 405.25 449.53 405.16 449.65 405.08 449.74 405.03 449.8 404.99 449.84 404.86 449.96 404.83 449.99 404.82 450 404.79 450.03 404.78 450.04 404.69 450.13 404.58 450.24 404.47 450.33 404.44 450.36 404.25 450.52 404.09 450.66 403.9 450.82 403.74 450.96 403.56 451.09 403.31 451.28 403.04 451.48 403 451.52 402.98 451.53 402.82 451.64 402.55 451.85 402.48 451.9 402.44 451.93 402.4 451.96 402.3 452.03 402.29 452.04 402.27 452.05 402.25 452.07 402.23 452.08 402.21 452.13 402.2 452.14 402.17 452.2 402.13 452.29 402.04 452.46 401.98 452.6 401.95 452.65 401.94 452.67 401.88 452.79 401.77 453.03 401.69 453.17 401.65 453.26 401.61 453.35 401.54 453.49 401.49 453.59 401.43 453.68 401.4 453.74 401.37 453.81 401.34 453.86 401.31 453.93 401.28 453.98 401.26 454.01 401.25 454.04 401.22 454.08 401.19 454.11 401.12 454.2 401.09 454.24 401.05 454.28 401 454.34 400.93 454.42 400.85 454.52 400.79 454.59 400.72 454.68 400.66 454.74 400.62 454.8 400.58 454.86 400.53 454.93 400.5 454.99 400.46 455.06 400.42 455.11 400.39 455.17 400.35 455.22 400.32 455.24 400.29 455.27 400.26 455.3 400.24 455.34 400.19 455.41 400.15 455.48 400.15 455.5 400.15 455.53 400.17 455.58 400.22 455.67 400.25 455.77 400.27 455.82 400.27 455.84 400.28 455.85 400.28 455.88 400.29 455.96 400.29 456.01 400.29 456.05 400.29 456.05 400.28 456.08 400.24 456.15 400.17 456.26 400.09 456.38 400.04 456.46 400 456.52 399.98 456.56 399.95 456.61 399.85 456.78 399.81 456.84 399.76 456.92 399.72 456.98 399.7 457.02 399.68 457.07 399.66 457.11 399.64 457.18 399.62 457.27 399.58 457.36 399.55 457.43 399.51 457.51 399.45 457.61 399.37 457.74 399.27 457.87 399.19 458 399.11 458.11 399.02 458.25 398.93 458.36 398.85 458.49 398.81 458.58 398.78 458.65 398.75 458.73 398.72 458.81 398.71 458.89 398.71 458.98 398.72 459.1 398.73 459.2 398.75 459.28 398.78 459.38 398.82 459.44 398.85 459.49 398.92 459.56 398.99 459.63 399.1 459.69 399.25 459.77 399.39 459.83 399.54 459.89 399.67 459.93 399.87 460 399.95 460.03 400.08 460.09 400.19 460.15 400.39 460.27 400.4 460.28 400.45 460.31 400.5 460.34 400.54 460.36 400.58 460.39 400.69 460.44 400.79 460.49 400.88 460.54 400.94 460.57 401 460.61 401.06 460.65 401.11 460.69 401.15 460.73 401.17 460.75 401.2 460.79 401.24 460.85 401.27 460.89 401.31 460.95 401.34 460.99 401.37 461.03 401.39 461.07 401.41 461.12 401.44 461.2 401.48 461.29 401.53 461.41 401.56 461.5 401.61 461.6 401.66 461.73 401.69 461.8 401.73 461.92 401.75 461.97 401.78 462.06 401.82 462.16 401.86 462.27 401.9 462.37 401.93 462.46 401.97 462.55 401.99 462.59 402.01 462.65 402.03 462.74 402.07 462.89 402.11 463.03 402.14 463.14 402.17 463.28 402.2 463.41 402.23 463.53 402.26 463.66 402.28 463.77 402.29 463.81 402.29 463.9 402.29 463.98 402.29 464.07 402.29 464.13 402.29 464.17 402.26 464.3 402.23 464.43 402.19 464.56 402.16 464.7 402.13 464.81 402.1 464.94 402.08 465.06 402.05 465.17 402.03 465.27 402.01 465.39 401.99 465.53 401.97 465.63 401.96 465.7 401.92 465.89 401.91 465.97 401.9 466.03 401.9 466.1 401.9 466.16 401.89 466.22 401.89 466.31 401.88 466.38 401.88 466.46 401.88 466.52 401.88 466.59 401.88 466.69 401.88 466.75 401.88 466.8 401.89 466.87 401.89 466.92 401.9 466.96 401.91 467.01 401.92 467.05 401.94 467.14 401.96 467.2 401.98 467.26 402.01 467.31 402.04 467.37 402.07 467.41 402.1 467.46 402.13 467.51 402.16 467.55 402.19 467.58 402.22 467.61 402.29 467.67 402.34 467.72 402.39 467.75 402.47 467.8 402.53 467.85 402.6 467.89 402.66 467.92 402.74 467.96 402.82 467.99 403.02 468.05 403.16 468.09 403.31 468.13 403.44 468.14 403.59 468.17 403.76 468.18 403.92 468.18 404.06 468.17 404.24 468.16 404.41 468.15 404.6 468.12 404.78 468.1 404.99 468.06 405.18 468.03 405.34 468 405.39 467.98 405.4 468.06 405.41 468.27 405.41 468.38 405.42 468.41 405.42 468.45 405.43 468.49 405.43 468.63 405.42 468.71 405.43 468.74 405.43 468.76 405.44 468.78 405.45 468.79 405.47 468.82 405.48 468.83 405.48 468.84 405.33 469.03 405.29 469.08 405.28 469.11 405.23 469.16 405.22 469.18 404.86 469.59 404.85 469.6 404.73 469.74 404.72 469.75 404.7 469.76 404.62 469.86 404.6 469.88 404.61 469.94 404.61 469.95 404.61 469.96 404.61 469.98 404.61 470.01 404.6 470.02 404.59 470.04 404.44 470.18 404.31 470.31 404.28 470.34 404.26 470.35 404.24 470.37 404.22 470.4 404.18 470.43 404.14 470.47 404.1 470.5 403.93 470.65 403.89 470.68 403.87 470.69 403.86 470.7 403.86 470.71 403.8 470.75 403.79 470.76 403.66 470.86 403.56 470.95 403.52 470.99 403.5 471.03 403.48 471.06 403.46 471.07 403.43 471.08 403.42 471.09 403.41 471.11 403.39 471.13 403.36 471.15 403.33 471.17 403.29 471.19 403.26 471.21 403.24 471.22 403.18 471.25 403.16 471.27 403.12 471.29 403.11 471.31 403.08 471.32 403.04 471.36 402.95 471.42 402.85 471.49 402.77 471.54 402.69 471.6 402.65 471.64 402.62 471.66 402.6 471.67 402.57 471.7 402.53 471.72 402.47 471.74 402.43 471.77 402.37 471.81 402.3 471.85 402.22 471.89 402.14 471.93 402.09 471.95 402.02 471.98 401.94 472.01 401.88 472.03 401.86 472.04 401.85 472.05 401.85 472.05 401.84 472.06 401.78 472.11 401.73 472.14 401.66 472.17 401.58 472.19 401.54 472.2 401.47 472.21 401.45 472.21 401.37 472.21 401.34 472.22 401.31 472.22 401.26 472.24 401.24 472.24 401.15 472.27 401.13 472.27 400.92 472.33 400.91 472.34 400.9 472.34 400.85 472.35 400.71 472.39 400.68 472.4 400.67 472.41 400.65 472.43 400.63 472.46 400.6 472.5 400.56 472.54 400.54 472.55 400.52 472.59 400.49 472.63 400.44 472.66 400.38 472.68 400.33 472.72 400.25 472.76 400.19 472.8 400.13 472.85 400.07 472.9 400.01 472.97 399.95 473.04 399.91 473.1 399.9 473.13 399.89 473.15 399.87 473.16 399.86 473.18 399.81 473.19 399.76 473.22 399.71 473.26 399.64 473.33 399.56 473.39 399.52 473.42 399.5 473.44 399.48 473.47 399.43 473.54 399.39 473.58 399.31 473.63 399.22 473.71 399.16 473.76 399.15 473.77 399.08 473.83 399.01 473.9 398.95 473.95 398.91 473.98 398.87 474.02 398.83 474.07 398.79 474.11 398.75 474.14 398.71 474.17 398.67 474.18 398.62 474.2 398.57 474.21 398.53 474.23 398.5 474.27 398.48 474.29 398.45 474.31 398.4 474.34 398.32 474.38 398.25 474.41 398.19 474.42 398.15 474.42 398.12 474.43 398.06 474.42 398.01 474.41 397.96 474.38 397.89 474.35 397.84 474.31 397.8 474.29 397.78 474.28 397.74 474.28 397.72 474.28 397.68 474.28 397.58 474.26 397.48 474.24 397.36 474.23 397.3 474.22 397.26 474.21 397.18 474.21 397.07 474.19 396.97 474.16 396.84 474.12 396.69 474.08 396.46 474 396.3 473.93 396.23 473.9 396.21 473.89 396.16 473.88 396.11 473.87 396.04 473.87 396 473.87 395.94 473.88 395.92 473.88 395.89 473.88 395.84 473.89 395.78 473.89 395.74 473.88 395.7 473.86 395.67 473.85 395.62 473.84 395.6 473.84 395.57 473.82 395.53 473.81 395.46 473.8 395.31 473.77 395.19 473.76 395.1 473.73 394.82 473.66 394.77 473.66 394.7 473.65 394.6 473.62 394.54 473.6 394.45 473.56 394.35 473.52 394.28 473.5 394.23 473.48 394.15 473.44 394.11 473.43 394.08 473.43 394.02 473.43 393.96 473.42 393.91 473.42 393.87 473.39 393.82 473.36 393.81 473.36 393.79 473.35 393.76 473.33 393.72 473.31 393.65 473.27 393.6 473.25 393.54 473.23 393.5 473.22 393.48 473.21 393.44 473.21 393.38 473.2 393.33 473.19 393.29 473.19 393.17 473.16 393.06 473.14 393.02 473.12 392.99 473.1 392.93 473.08 392.89 473.07 392.87 473.06 392.84 473.06 392.79 473.05 392.74 473.05 392.64 473.02 392.58 473 392.55 473 392.55 472.99 392.55 472.91 392.55 472.85 392.56 472.83 392.56 472.79 392.57 472.74 392.57 472.67 392.57 472.61 392.57 472.58 392.59 472.54 392.6 472.51 392.61 472.47 392.62 472.4 392.63 472.29 392.64 472.22 392.64 472.2 392.65 472.16 392.65 472.1 392.65 471.98 392.65 471.88 392.64 471.77 392.64 471.67 392.64 471.62 392.64 471.6 392.64 471.56 392.65 471.5 392.64 471.44 392.62 471.35 392.6 471.27 392.59 471.17 392.59 471.05 392.58 470.96 392.58 470.79 392.57 470.73 392.55 470.69 392.56 470.65 392.59 470.57 392.59 470.55 392.59 470.52 392.58 470.49 392.57 470.46 392.56 470.43 392.53 470.39 392.48 470.32 392.45 470.28 392.44 470.25 392.44 470.24 392.44 470.23 392.43 470.22 392.43 470.21 392.41 470.16 392.4 470.12 392.39 470.01 392.37 469.91 392.37 469.86 392.37 469.77 392.37 469.67 392.37 469.63 392.4 469.5 392.43 469.35 392.45 469.25 392.47 469.2 392.49 469.14 392.52 469.05 392.54 468.97 392.54 468.93 392.54 468.9 392.54 468.87 392.55 468.83 392.56 468.78 392.61 468.7 392.64 468.65 392.66 468.62 392.69 468.57 392.74 468.47 392.79 468.39 392.84 468.32 392.94 468.23 392.97 468.17 393.01 468.09 393.05 468.02 393.07 468 393.12 467.92 393.16 467.84 393.19 467.78 393.21 467.75 393.31 467.61 393.35 467.56 393.36 467.54 393.38 467.48 393.42 467.36 393.44 467.31 393.45 467.3 393.47 467.29 393.53 467.27 393.6 467.24 393.63 467.21 393.66 467.17 393.73 467.11 393.79 467.06 393.87 467 393.92 466.97 393.94 466.95 393.98 466.94 394.04 466.91 394.05 466.9 394.08 466.88 394.09 466.88 394.11 466.87 394.12 466.85 394.12 466.84 394.13 466.82 394.14 466.81 394.15 466.78 394.16 466.75 394.18 466.73 394.18 466.72 394.21 466.69 394.25 466.63 394.29 466.59 394.32 466.55 394.34 466.53 394.35 466.53 394.39 466.49 394.44 466.46 394.51 466.41 394.52 466.39 394.57 466.36 394.63 466.3 394.69 466.24 394.76 466.18 394.85 466.12 394.89 466.09 394.91 466.08 394.94 466.04 394.96 466.01 394.99 465.93 395 465.91 395.03 465.86 395.05 465.83 395.06 465.81 395.13 465.76 395.19 465.71 395.23 465.67 395.27 465.64 395.32 465.58 395.36 465.54 395.37 465.52 395.39 465.5 395.42 465.46 395.46 465.39 395.5 465.34 395.52 465.29 395.53 465.26 395.54 465.23 395.56 465.16 395.58 465.12 395.59 465.06 395.6 465.01 395.6 464.98 395.6 464.97 395.6 464.91 395.61 464.85 395.61 464.8 395.62 464.77 395.62 464.71 395.62 464.7 395.63 464.66 395.64 464.64 395.66 464.62 395.67 464.61 395.68 464.6 395.68 464.58 395.69 464.56 395.68 464.52 395.69 464.47 395.69 464.43 395.69 464.42 395.69 464.39 395.68 464.37 395.66 464.33 395.64 464.3 395.61 464.27 395.59 464.26 395.58 464.25 395.55 464.22 395.51 464.2 395.46 464.17 395.42 464.16 395.35 464.11 395.27 464.04 395.16 463.95 395.12 463.93 395.09 463.91 395 463.83 394.93 463.78 394.71 463.62 394.59 463.54 394.51 463.47 394.46 463.42 394.44 463.41 394.32 463.31 394.24 463.25 394.22 463.23 394.09 463.14 394 463.06 393.98 463.05 393.91 463 393.82 462.94 393.75 462.87 393.67 462.81 393.61 462.76 393.54 462.71 393.51 462.69 393.42 462.62 393.18 462.44 392.97 462.28 392.76 462.13 392.53 461.98 392.43 461.89 392.41 461.87 392.36 461.84 392.32 461.82 392.3 461.81 392.27 461.79 392.2 461.76 392.1 461.72 391.97 461.67 391.83 461.62 391.67 461.55 391.58 461.52 391.57 461.51 391.58 461.47 391.59 461.43 391.6 461.39 391.6 461.38 391.61 461.35 391.64 461.3 391.65 461.3 391.66 461.28 391.67 461.27 391.69 461.24 391.71 461.2 391.74 461.15 391.76 461.1 391.78 461.07 391.81 461.05 391.83 461.03 391.85 461 391.88 460.91 391.92 460.79 391.96 460.72 392.02 460.59 392.07 460.46 392.1 460.42 392.12 460.39 392.17 460.32 392.24 460.23 392.29 460.16 392.32 460.12 392.33 460.08 392.35 460.05 392.4 459.98 392.44 459.91 392.48 459.85 392.51 459.81 392.54 459.78 392.57 459.74 392.59 459.71 392.61 459.65 392.64 459.6 392.65 459.58 392.68 459.53 392.7 459.46 392.71 459.41 392.74 459.34 392.77 459.24 392.78 459.2 392.79 459.16 392.81 459.11 392.83 459.05 392.83 459.04 392.84 459.01 392.84 458.97 392.85 458.94 392.86 458.89 392.88 458.85 392.89 458.8 392.9 458.78 392.91 458.75 392.92 458.72 392.92 458.67 392.92 458.59 392.93 458.55 392.94 458.48 392.95 458.4 392.95 458.37 392.88 458.32 392.84 458.28 392.79 458.24 392.7 458.16 392.64 458.11 392.58 458.07 392.51 458.03 392.46 458 392.43 457.97 392.41 457.92 392.37 457.87 392.36 457.84 392.33 457.82 392.27 457.79 392.21 457.76 392.13 457.73 392.09 457.69 392 457.63 391.86 457.55 391.71 457.47 391.59 457.41 391.5 457.36 391.43 457.33 391.35 457.27 391.26 457.2 391.19 457.14 391.14 457.12 391.1 457.09 391.02 457.04 390.97 457 390.85 456.94 390.74 456.87 390.69 456.86 390.62 456.84 390.54 456.81 390.43 456.79 390.34 456.78 390.29 456.79 390.24 456.78 390.16 456.76 390.12 456.74 390.08 456.72 390.02 456.7 389.96 456.66 389.91 456.62 389.85 456.58 389.76 456.52 389.67 456.47 389.59 456.42 389.48 456.37 389.36 456.31 389.23 456.24 389.17 456.21 389.16 456.2 389.14 456.2 389.12 456.19 389.05 456.15 388.89 456.07 388.69 455.97 388.53 455.89 388.34 455.82 388.19 455.75 388.09 455.69 388.07 455.68 388.01 455.62 387.91 455.55 387.79 455.48 387.65 455.39 387.6 455.36 387.54 455.31 387.47 455.26 387.38 455.21 387.34 455.2 387.16 455.1 387 455.03 386.92 454.97 386.75 454.86 386.65 454.81 386.6 454.78 386.6 454.77 386.57 454.72 386.54 454.67 386.5 454.58 386.48 454.53 386.48 454.51 386.48 454.5 386.48 454.47 386.5 454.34 386.5 454.28 386.5 454.24 386.49 454.22 386.47 454.2 386.4 454.11 386.4 454.1 386.39 454.09 386.38 454.09 386.17 453.84 386.07 453.66 386.04 453.62 386.02 453.59 385.99 453.54 385.95 453.49 385.92 453.47 385.91 453.46 385.89 453.44 385.87 453.43 385.79 453.36 385.68 453.28 385.59 453.19 385.5 453.12 385.38 453 385.3 452.93 385.27 452.9 385.22 452.86 385.06 452.71 385.01 452.66 384.97 452.63 384.96 452.62 384.94 452.6 384.92 452.58 384.84 452.51 384.83 452.49 384.83 452.47 384.83 452.45 384.86 452.37 384.86 452.35 384.86 452.26 384.87 452.11 384.88 451.97 384.95 451.84 385.06 451.64 385.18 451.42 385.32 451.14 385.43 450.93 385.53 450.72 385.65 450.47 385.75 450.26 385.76 450.23 385.77 450.21 385.82 450.11 385.85 450.04 385.86 450 385.87 449.94 385.88 449.85 385.89 449.83 385.92 449.71 385.95 449.6 385.99 449.5 386.03 449.4 386.06 449.35 386.1 449.31 386.14 449.25 386.16 449.21 386.19 449.17 386.22 449.11 386.24 449.07 386.25 449.04 386.26 449.02 386.28 448.99 386.28 448.93 386.29 448.9 386.3 448.81 386.33 448.7 386.35 448.66 386.41 448.56 386.48 448.45 386.53 448.38 386.59 448.32 386.67 448.23 386.77 448.12 386.92 447.95 387.14 447.72 387.31 447.52 387.37 447.45 387.39 447.36 387.45 447.11 387.5 446.9 387.53 446.76 387.57 446.63 387.61 446.53 387.62 446.47 387.63 446.4 387.65 446.32 387.69 446.21 387.73 446.13 387.76 446.09 387.79 446.05 387.84 445.99 387.9 445.93 387.98 445.88 388.07 445.84 388.11 445.83 388.08 445.83 388.05 445.82 387.98 445.83 387.91 445.83 387.8 445.82 387.74 445.81 387.68 445.8 387.64 445.8 387.6 445.79 387.51 445.76 387.43 445.72 387.38 445.7 387.32 445.67 387.33 445.65 387.33 445.61 387.33 445.57 387.32 445.54 387.3 445.49 387.29 445.45 387.26 445.41 387.25 445.4 387.23 445.39 387.21 445.37 386.51 444.91 386.27 444.76 386.23 444.71 386.22 444.7 386.21 444.69 386.16 444.63 386.15 444.62 386.11 444.57 Z"/>
</g></svg>