<svg xmlns="http://www.w3.org/2000/svg" version="1.2" baseProfile="tiny" stroke-linecap="round" stroke-linejoin="round" viewBox="700.68 95.37 18.47 24.13"><g xmlns="http://www.w3.org/2000/svg" id="Lohitzüne-Oihergi">
<path d="M 710.26 100.97 710.52 101.13 710.61 101.16 710.79 101.15 710.94 101.17 710.95 101.14 710.97 101.07 710.98 101.02 711 100.97 711.02 100.92 711.04 100.87 711.05 100.84 711.07 100.8 711.08 100.74 711.1 100.7 711.13 100.66 711.15 100.62 711.17 100.57 711.18 100.51 711.19 100.45 711.19 100.41 711.2 100.36 711.22 100.32 711.25 100.26 711.26 100.2 711.28 100.13 711.29 100.07 711.28 100.02 711.27 99.96 711.27 99.92 711.26 99.9 711.24 99.86 711.22 99.81 711.22 99.76 711.23 99.7 711.24 99.65 711.25 99.59 711.26 99.54 711.26 99.49 711.23 99.45 711.19 99.42 711.14 99.41 711.07 99.37 711.02 99.32 711 99.29 711.02 99.26 711.02 99.24 711.02 99.21 711.04 99.17 711.06 99.13 711.1 99.08 711.13 99.04 711.15 99 711.16 98.95 711.18 98.9 711.19 98.85 711.22 98.81 711.27 98.76 711.35 98.68 711.42 98.61 711.49 98.53 711.55 98.47 711.66 98.38 711.7 98.36 711.73 98.33 711.75 98.31 711.77 98.29 711.81 98.28 711.85 98.25 711.92 98.16 711.99 98.07 712.02 98.04 712.04 97.98 712.06 97.93 712.13 97.99 712.14 98.01 712.16 98.03 712.18 98.05 712.19 98.08 712.21 98.11 712.23 98.13 712.26 98.17 712.27 98.19 712.28 98.21 712.3 98.22 712.31 98.24 712.34 98.27 712.37 98.29 712.4 98.31 712.43 98.33 712.45 98.36 712.46 98.37 712.48 98.39 712.54 98.46 712.65 98.5 712.68 98.52 712.72 98.53 712.74 98.54 712.78 98.56 712.81 98.58 712.85 98.6 712.9 98.62 712.94 98.65 712.98 98.68 713.02 98.71 713.08 98.75 713.12 98.77 713.15 98.8 713.19 98.82 713.22 98.84 713.26 98.87 713.32 98.92 713.36 98.95 713.39 98.98 713.4 98.98 713.42 99 713.44 99.01 713.47 99.02 713.55 99.15 713.58 99.19 713.62 99.23 713.66 99.28 713.68 99.31 713.71 99.35 713.87 99.24 714.17 99.35 714.31 99.36 714.59 99.34 715.21 99.65 715.64 99.69 715.87 99.7 715.92 99.73 716.21 100.48 716.4 100.88 716.49 101.24 717.48 102.32 717.93 102.92 717.93 102.93 717.91 102.96 717.82 103.22 717.81 103.25 717.8 103.28 717.72 103.36 717.68 103.38 717.55 103.43 717.53 103.43 717.47 103.44 717.43 103.45 717.39 103.47 717.33 103.5 717.29 103.51 717.24 103.54 717.18 103.57 717.14 103.6 717 103.67 716.97 103.69 716.93 103.71 716.91 103.72 716.92 103.78 716.93 103.83 716.93 103.86 716.93 103.89 716.93 103.93 716.93 103.95 716.92 103.97 716.9 104 716.88 104.03 716.83 104.08 716.77 104.14 716.84 104.19 716.89 104.21 716.92 104.23 716.93 104.24 716.93 104.25 716.94 104.26 716.94 104.27 716.94 104.3 716.92 104.34 716.86 104.44 716.79 104.58 716.75 104.71 716.73 104.77 716.73 104.84 716.74 104.91 716.73 104.97 716.72 105.06 716.68 105.16 716.68 105.17 716.67 105.19 716.66 105.21 716.58 105.26 716.56 105.28 716.54 105.32 716.53 105.38 716.52 105.39 716.56 105.83 716.6 105.88 716.88 106.17 717.08 106.76 717.17 106.86 717.28 106.94 717.68 107.32 717.99 107.9 718.04 108 718.13 108.13 718.2 108.25 718.27 108.36 718.32 108.45 718.36 108.51 718.39 108.58 718.41 108.64 718.46 108.71 718.51 108.79 718.56 108.89 718.63 108.98 718.71 109.11 718.78 109.21 718.81 109.25 719.12 109.29 719.11 109.34 718.69 109.61 718.49 109.82 718.3 109.83 718.25 109.87 717.96 110.06 717.73 110.08 717.19 110.38 716.73 110.95 716.7 110.94 716.66 110.91 716.61 110.86 716.51 110.78 716.42 110.7 716.36 110.64 716.28 110.54 716.25 110.51 716.23 110.5 716.22 110.48 716.21 110.45 716.19 110.44 716.13 110.38 716.04 110.32 715.95 110.25 715.82 110.15 715.71 110.07 715.66 110.03 715.51 109.91 715.37 109.8 715.27 109.73 715.13 109.63 715 109.55 714.89 109.49 714.76 109.43 714.64 109.37 714.51 109.31 714.41 109.26 714.29 109.2 714.13 109.1 714.08 109.06 713.85 109.13 713.48 108.82 712.73 108.27 712.5 108.55 712.41 108.63 712.35 108.66 712.27 108.72 712.12 108.83 712.03 108.91 711.94 108.99 711.85 109.06 711.79 109.11 711.72 109.17 711.69 109.2 711.66 109.23 711.64 109.27 711.62 109.29 711.59 109.33 711.56 109.36 711.54 109.39 711.51 109.41 711.49 109.44 711.47 109.48 711.45 109.51 711.44 109.57 711.42 109.66 711.41 109.68 711.4 109.73 711.38 109.75 711.37 109.79 711.35 109.84 711.33 109.89 711.31 109.95 711.3 109.98 711.29 110 711.29 110.01 711.29 110.05 711.29 110.09 711.3 110.14 711.3 110.16 711.29 110.19 711.28 110.21 711.27 110.24 711.26 110.26 711.26 110.29 711.26 110.33 711.26 110.39 711.26 110.46 711.26 110.5 711.26 110.54 711.28 110.59 711.29 110.62 711.31 110.67 711.33 110.71 711.34 110.73 711.36 110.75 711.4 110.82 711.43 110.89 711.45 110.94 711.46 110.99 711.48 111.06 711.44 111.08 711.41 111.12 711.37 111.17 711.32 111.22 711.29 111.26 711.27 111.3 711.26 111.35 711.26 111.4 711.28 111.43 711.3 111.5 711.32 111.54 711.33 111.6 711.34 111.66 711.33 111.72 711.3 111.79 711.27 111.84 711.24 111.91 711.23 111.95 711.22 112 711.21 112.07 711.21 112.12 711.21 112.18 711.21 112.31 711.21 112.4 711.2 112.45 711.21 112.5 711.22 112.53 711.23 112.56 711.25 112.59 711.28 112.63 711.31 112.68 711.34 112.74 711.37 112.81 711.4 112.87 711.42 112.93 711.45 112.98 711.46 113.01 711.48 113.03 711.51 113.05 711.53 113.07 711.55 113.09 711.56 113.12 711.56 113.15 711.56 113.19 711.55 113.23 711.55 113.27 711.54 113.31 711.54 113.36 711.54 113.39 711.54 113.45 711.53 113.48 711.53 113.52 711.54 113.57 711.54 113.59 711.52 113.6 711.51 113.61 711.5 113.62 711.49 113.64 711.49 113.66 711.49 113.68 711.49 113.71 711.5 113.76 711.51 113.79 711.52 113.83 711.51 113.86 711.51 113.89 711.5 113.92 711.48 113.95 711.47 114 711.45 114.02 711.43 114.04 711.4 114.07 711.38 114.09 711.35 114.11 711.33 114.12 711.3 114.14 711.27 114.15 711.22 114.16 711.18 114.16 711.14 114.16 711.1 114.16 711.07 114.17 711.04 114.17 711.01 114.17 710.97 114.16 710.94 114.15 710.9 114.13 710.86 114.11 710.74 114.08 710.63 114.03 710.58 114.03 710.54 114.03 710.48 114.03 710.43 114.03 710.4 114.03 710.36 114.03 710.3 114.03 710.26 114.03 710.19 114.03 710.14 114.02 710.08 114.01 710.04 114.02 710.02 114.02 710 114.03 709.98 114.04 709.95 114.05 709.93 114.06 709.9 114.06 709.87 114.06 709.85 114.06 709.82 114.06 709.79 114.05 709.76 114.04 709.73 114.03 709.73 114 709.73 113.96 709.74 113.93 709.76 113.9 709.77 113.87 709.78 113.84 709.78 113.83 709.78 113.81 709.77 113.79 709.77 113.78 709.76 113.77 709.73 113.76 709.72 113.75 709.7 113.74 709.67 113.74 709.65 113.73 709.6 113.73 709.57 113.73 709.55 113.72 709.5 113.71 709.45 113.7 709.43 113.69 709.41 113.69 709.39 113.69 709.37 113.69 709.36 113.69 709.35 113.7 709.34 113.71 709.32 113.73 709.3 113.76 709.29 113.78 709.27 113.79 709.26 113.8 709.22 113.82 709.12 113.89 708.97 113.99 708.92 114.06 708.9 114.09 708.88 114.14 708.86 114.18 708.86 114.23 708.86 114.27 708.86 114.33 708.86 114.39 708.87 114.42 708.88 114.47 708.88 114.5 708.89 114.54 708.89 114.59 708.88 114.62 708.88 114.66 708.87 114.7 708.85 114.73 708.84 114.74 708.88 114.79 708.89 114.83 708.9 114.86 708.91 114.88 708.91 114.9 708.9 114.92 708.9 114.95 708.89 114.97 708.86 115 708.83 115.02 708.79 115.05 708.73 115.12 708.71 115.17 708.71 115.19 708.7 115.23 708.7 115.25 708.7 115.27 708.7 115.29 708.7 115.31 708.7 115.33 708.7 115.34 708.7 115.36 708.69 115.38 708.69 115.4 708.67 115.43 708.65 115.46 708.63 115.5 708.59 115.58 708.58 115.62 708.58 115.64 708.58 115.66 708.58 115.68 708.59 115.73 708.59 115.82 708.59 115.85 708.59 115.87 708.59 115.9 708.58 115.92 708.58 115.94 708.57 115.96 708.56 115.98 708.55 115.99 708.54 116.01 708.54 116.04 708.54 116.06 708.54 116.08 708.55 116.1 708.54 116.12 708.45 116.21 708.41 116.28 708.4 116.31 708.37 116.35 708.31 116.41 708.29 116.43 708.25 116.47 708.23 116.49 708.24 116.55 708.21 116.56 708.18 116.59 708.13 116.62 708.11 116.64 708.1 116.65 708.09 116.68 708.08 116.71 708.08 116.71 708.1 116.74 708.1 116.75 708.1 116.77 708.1 116.8 708.09 116.83 708.08 116.86 708.08 116.89 708.07 116.95 708.06 116.99 708.05 117.03 708.05 117.06 708.05 117.09 708.05 117.11 708.03 117.14 708 117.19 707.95 117.26 707.89 117.35 707.8 117.48 707.75 117.6 707.73 117.61 707.72 117.62 707.71 117.68 707.7 117.79 707.69 117.91 707.68 117.97 707.66 118.03 707.59 118.14 707.27 118.64 707.25 118.63 707.22 118.61 707.14 118.58 707.09 118.57 707.06 118.57 706.98 118.58 706.92 118.58 706.88 118.59 706.87 118.6 706.86 118.6 706.82 118.65 706.77 118.71 706.73 118.76 706.68 118.83 706.65 118.88 706.64 118.9 706.64 118.92 706.63 119.01 706.62 119.1 705.99 119.28 705.36 119.47 705.24 119.44 705.1 119.37 705.04 119.31 705.01 119.29 704.97 119.25 704.91 119.22 704.78 119.13 704.6 119.04 704.48 118.98 704.38 118.9 704.3 118.82 704.25 118.76 704.22 118.74 704.19 118.71 704.15 118.7 704.09 118.68 704.01 118.66 703.95 118.64 703.91 118.63 703.87 118.61 703.85 118.58 703.83 118.54 703.79 118.47 703.76 118.42 703.72 118.38 703.67 118.36 703.55 118.3 703.43 118.23 703.39 118.21 703.36 118.2 703.27 118.16 703.06 118.09 702.99 118.06 702.86 118.04 702.82 118.03 702.78 118.02 702.74 118.01 702.71 117.98 702.7 117.95 702.69 117.9 702.67 117.87 702.65 117.84 702.61 117.82 702.55 117.77 702.49 117.72 702.4 117.65 702.38 117.61 702.34 117.55 702.3 117.49 702.29 117.46 702.28 117.43 702.29 117.39 702.28 117.33 702.28 117.29 702.26 117.16 702.26 117.1 702.33 117.08 702.39 117.06 702.44 117.03 702.47 116.98 702.48 116.92 702.47 116.88 702.46 116.86 702.44 116.8 702.43 116.75 702.43 116.73 702.4 116.66 702.39 116.65 702.36 116.63 702.32 116.63 702.26 116.63 702.2 116.6 702.12 116.54 702.09 116.45 702.08 116.32 702.09 116.18 702.1 116.11 702.23 115.99 702.29 115.96 702.41 115.92 702.56 115.85 702.69 115.71 702.82 115.56 702.87 115.49 702.9 115.4 702.91 115.23 702.94 115.09 702.93 115.04 702.89 115.01 702.79 114.9 702.74 114.74 702.67 114.6 702.62 114.51 702.57 114.41 702.56 114.34 702.57 114.29 702.63 114.22 702.67 114.09 702.69 113.97 702.74 113.83 702.74 113.78 702.72 113.74 702.67 113.73 702.6 113.7 702.55 113.65 702.5 113.52 702.5 113.43 702.52 113.4 702.57 113.36 702.59 113.32 702.59 113.27 702.58 113.24 702.53 113.14 702.46 113.08 702.5 112.63 702.59 112.53 702.61 112.5 702.61 112.49 702.63 112.42 702.65 112.25 702.7 112.17 702.75 112.13 702.8 112.12 702.9 112.12 703.01 112.09 703.18 111.99 703.3 111.89 703.34 111.83 703.13 111.61 703.03 111.54 702.99 111.51 702.9 111.36 702.83 111.17 702.78 110.99 702.78 110.95 703.01 110.63 703.04 110.59 703.06 110.55 703.23 110.36 703.28 110.27 703.28 110.16 703.23 110.11 703.1 110.04 703.03 110.04 702.98 110.06 702.87 110.15 702.79 110.26 702.72 110.43 702.66 110.76 702.62 110.88 702.56 110.96 702.37 111.13 702.17 111.33 702.07 111.38 702 111.39 701.95 111.39 701.79 111.37 701.7 111.29 701.68 111.21 701.63 111.05 701.63 110.99 701.64 110.84 701.64 110.7 701.63 110.64 701.57 110.58 701.52 110.57 701.38 110.62 701.23 110.68 701.06 110.72 701.02 110.72 700.97 110.73 700.88 110.75 700.83 110.75 700.79 110.7 700.71 110.55 700.69 110.47 700.69 110.43 700.72 110.35 700.77 110.22 700.93 110.04 701.12 109.83 701.15 109.79 701.15 109.74 701.23 109.73 701.33 109.74 701.41 109.74 701.49 109.7 701.54 109.66 701.58 109.58 701.64 109.37 701.66 109.23 701.68 109.13 701.72 108.97 701.75 108.83 701.76 108.73 701.72 108.54 701.7 108.4 701.71 108.28 701.74 108.17 701.75 108.03 701.75 107.94 701.76 107.84 702.12 107.23 702.14 107.22 702.2 107.14 702.24 107.07 702.27 107.02 702.31 106.97 702.47 106.81 702.83 106.44 702.93 106.32 702.99 106.25 703.01 106.22 703.02 106.18 703.05 106.04 703.09 105.85 703.14 105.66 702.96 105.49 702.96 105.46 702.96 105.41 702.95 105.32 702.94 105.19 702.94 104.99 702.93 104.88 702.93 104.84 703.19 104.44 703.39 104.28 703.44 104.19 703.52 103.5 703.6 102.8 704.01 102.37 704 102.35 704 102.34 704.02 102.3 703.99 101.92 704.11 101.51 704.16 101.45 703.9 100.99 703.48 100.43 703.18 100.18 702.67 99.63 702.05 98.87 702.16 98.22 702.2 97.59 702.23 96.95 702.28 96.5 702.32 96.05 702.37 95.61 702.38 95.37 702.49 95.46 702.66 95.66 703.03 96.01 703.5 96.66 704.25 97.59 704.34 97.66 704.42 97.74 704.47 97.79 704.51 97.83 704.58 97.92 704.68 98.04 704.74 98.12 704.76 98.16 704.76 98.17 705.1 98.46 705.4 98.88 705.85 99.13 705.92 99.16 706.95 99.54 707.61 99.84 708.27 100.14 708.93 100.46 709.15 100.57 709.83 100.84 709.99 100.87 710.26 100.97 Z"/>
</g></svg>