<svg xmlns="http://www.w3.org/2000/svg" version="1.2" baseProfile="tiny" stroke-linecap="round" stroke-linejoin="round" viewBox="577.2 277.92 46.18 45.95"><g xmlns="http://www.w3.org/2000/svg" id="Longida">
<path d="M 622.43 287.95 622.45 288.06 622.47 288.18 622.5 288.31 622.52 288.46 622.55 288.64 622.58 288.76 622.61 288.92 622.64 289.07 622.66 289.2 622.67 289.24 622.68 289.33 622.7 289.46 622.72 289.63 622.74 289.82 622.77 289.97 622.8 290.09 622.83 290.24 622.85 290.37 622.86 290.39 622.87 290.42 622.91 290.52 622.97 290.66 623.03 290.78 623.07 290.88 623.1 290.94 623.08 291.07 623.07 291.18 623.06 291.28 623.05 291.4 623.03 291.54 623.02 291.58 622.99 291.7 622.96 291.77 622.94 291.83 622.93 291.86 622.93 291.87 622.92 291.9 622.88 292.01 622.85 292.13 622.83 292.21 622.8 292.31 622.76 292.43 622.73 292.5 622.68 292.58 622.62 292.68 622.59 292.72 622.56 292.78 622.53 292.82 622.5 292.91 622.48 292.98 622.47 293.03 622.46 293.1 622.4 293.17 622.33 293.26 622.28 293.33 622.24 293.37 622.25 293.37 622.4 293.41 622.44 293.56 622.47 293.68 622.47 293.71 622.51 293.83 622.54 293.94 622.57 294.06 622.61 294.2 622.66 294.37 622.71 294.51 622.76 294.61 622.81 294.7 622.86 294.79 622.93 294.93 622.96 294.97 623 295.06 623.05 295.15 623.11 295.26 623.18 295.38 623.22 295.44 623.25 295.5 623.29 295.57 623.26 295.7 623.23 295.83 623.19 295.98 623.23 296.08 623.28 296.27 623.33 296.43 623.36 296.57 623.24 296.67 623.11 296.79 623.05 296.84 622.81 296.93 622.67 296.97 622.57 297.01 622.46 297.05 622.46 297.06 622.42 297.07 622.22 297.15 622.02 297.23 621.88 297.29 621.73 297.35 621.7 297.36 621.49 297.43 620.91 297.64 620.74 297.71 620.54 297.78 620.41 297.83 620.39 297.83 620.27 297.86 620.08 297.9 619.9 297.94 619.68 297.98 619.5 298.02 619.38 298.05 619.17 298.11 618.95 298.16 618.73 298.22 618.53 298.27 618.29 298.33 618.17 298.36 618.13 298.44 618.11 298.48 618.09 298.53 618 298.73 617.95 298.86 617.91 298.9 617.87 298.96 617.84 299 617.81 299.04 617.78 299.09 617.76 299.11 617.74 299.14 617.72 299.18 617.67 299.26 617.6 299.4 617.56 299.47 617.53 299.53 617.51 299.57 617.49 299.63 617.43 299.83 617.37 300.04 617.36 300.08 617.34 300.15 617.32 300.22 617.32 300.22 617.3 300.29 617.28 300.37 617.26 300.43 617.24 300.49 617.23 300.54 617.2 300.61 617.17 300.68 617.14 300.73 617.11 300.81 617.07 300.9 617.04 300.97 617.01 301.03 616.99 301.07 616.96 301.15 616.93 301.21 616.92 301.24 616.89 301.29 616.89 301.3 616.87 301.36 616.86 301.37 616.83 301.44 616.79 301.51 616.78 301.54 616.76 301.58 616.75 301.62 616.73 301.64 616.71 301.67 616.69 301.71 616.63 301.76 616.57 301.83 616.56 301.84 616.51 301.89 616.49 301.91 616.42 301.98 616.35 302.05 616.38 302.19 616.41 302.36 616.45 302.52 616.46 302.56 616.46 302.57 616.46 302.58 616.45 302.71 616.43 302.86 616.43 302.88 616.41 303.03 616.39 303.18 616.37 303.3 616.35 303.46 616.36 303.5 616.37 303.54 616.37 303.61 616.38 303.68 616.38 303.75 616.38 303.8 616.37 303.88 616.35 303.99 616.34 304.09 616.33 304.1 616.26 304.12 616.26 304.14 616.27 304.19 616.27 304.26 616.28 304.3 616.28 304.32 616.28 304.33 616.27 304.36 616.26 304.41 616.24 304.49 616.22 304.6 616.21 304.67 616.2 304.7 616.19 304.77 616.18 304.81 616.17 304.83 616.16 304.88 616.16 304.89 616.14 304.94 616.1 305 616.03 305.12 615.96 305.23 615.9 305.33 615.84 305.43 615.83 305.44 615.75 305.56 615.74 305.57 615.72 305.6 615.67 305.68 615.61 305.76 615.61 305.77 615.55 305.85 615.49 305.94 615.48 305.96 615.41 306.05 615.37 306.11 615.31 306.15 615.26 306.18 615.14 306.25 615.12 306.27 615.05 306.3 615.03 306.33 615 306.36 614.97 306.39 614.92 306.44 614.88 306.5 614.85 306.51 614.79 306.53 614.73 306.56 614.69 306.58 614.64 306.6 614.6 306.62 614.59 306.63 614.55 306.66 614.54 306.66 614.53 306.67 614.5 306.7 614.49 306.72 614.53 306.8 614.56 306.86 614.57 306.89 614.51 306.92 614.45 306.96 614.38 307 614.35 307.02 614.3 307.06 614.28 307.07 614.27 307.1 614.27 307.11 614.26 307.14 614.25 307.18 614.25 307.21 614.21 307.25 614.17 307.28 614.15 307.31 614.12 307.33 614.12 307.34 614.11 307.36 614.07 307.42 614.07 307.45 614.07 307.49 614.06 307.55 614.06 307.61 614.06 307.62 614.06 307.69 614.07 307.72 614.07 307.73 614.09 307.79 614.12 307.85 614.13 307.9 614.14 307.91 614.16 307.96 614.18 308.03 614.19 308.08 614.2 308.09 614.21 308.13 614.23 308.21 614.26 308.28 614.29 308.33 614.34 308.43 614.37 308.48 614.38 308.5 614.4 308.54 614.45 308.63 614.5 308.72 614.55 308.83 614.59 308.91 614.62 308.96 614.63 308.97 614.65 309.01 614.68 309.06 614.73 309.13 614.78 309.21 614.81 309.27 614.85 309.33 614.89 309.4 614.92 309.44 614.95 309.5 614.96 309.51 615 309.58 615.04 309.66 615.08 309.76 615.12 309.85 615.17 309.97 615.2 310.02 615.23 310.08 615.28 310.14 615.32 310.21 615.37 310.29 615.42 310.37 615.48 310.47 615.54 310.57 615.6 310.65 615.62 310.68 615.66 310.75 615.69 310.8 615.71 310.83 615.72 310.84 615.74 310.88 615.78 310.94 615.8 310.98 615.8 311 615.81 311.02 615.83 311.06 615.84 311.12 615.85 311.16 615.84 311.19 615.84 311.23 615.82 311.27 615.81 311.3 615.78 311.36 615.74 311.43 615.71 311.49 615.67 311.56 615.65 311.59 615.63 311.63 615.63 311.64 615.64 311.69 615.68 311.75 615.72 311.83 615.73 311.87 615.73 311.89 615.73 311.94 615.71 311.99 615.69 312.05 615.65 312.18 615.62 312.23 615.59 312.3 615.56 312.36 615.52 312.42 615.49 312.46 615.44 312.51 615.38 312.58 615.33 312.64 615.25 312.72 615.21 312.77 615.13 312.86 615.05 312.94 615.1 312.94 615.1 312.94 615.18 312.92 615.26 312.91 615.31 312.9 615.44 312.87 615.49 312.86 615.51 312.86 615.65 312.83 615.77 312.81 615.86 312.79 615.99 312.76 616.09 312.74 616.13 312.74 616.18 312.83 616.24 312.93 616.28 313.01 616.32 313.09 616.34 313.11 616.34 313.13 616.35 313.14 616.4 313.23 616.44 313.31 616.45 313.33 616.48 313.37 616.52 313.43 616.55 313.47 616.58 313.49 616.58 313.5 616.59 313.51 616.63 313.55 616.67 313.61 616.74 313.7 616.8 313.77 616.83 313.82 616.9 313.89 616.98 313.99 617.05 314.08 617.13 314.18 617.19 314.26 617.27 314.35 617.32 314.42 617.37 314.47 617.42 314.55 617.47 314.61 617.51 314.66 617.53 314.68 617.56 314.75 617.58 314.81 617.61 314.88 617.64 314.97 617.67 315.05 617.71 315.2 617.74 315.3 617.77 315.4 617.79 315.49 617.82 315.58 617.82 315.62 617.74 315.64 617.65 315.66 617.53 315.69 617.43 315.72 617.35 315.82 617.31 315.9 617.29 315.94 617.22 316.01 617.1 316.11 617 316.2 616.9 316.29 616.78 316.4 616.65 316.52 616.56 316.6 616.5 316.66 616.48 316.66 616.46 316.7 616.43 316.72 616.39 316.73 616.36 316.73 616.31 316.74 616.24 316.78 616.15 316.8 616.08 316.82 616 316.83 615.91 316.85 615.83 316.86 615.74 316.88 615.69 316.88 615.64 316.89 615.58 316.92 615.52 316.95 615.41 317.01 615.31 317.07 615.27 317.11 615.18 317.18 615.09 317.26 615 317.34 614.94 317.39 614.91 317.42 614.9 317.42 614.86 317.45 614.85 317.46 614.75 317.53 614.66 317.59 614.65 317.6 614.64 317.61 614.57 317.66 614.45 317.74 614.39 317.81 614.34 317.86 614.26 317.95 614.19 318.03 614.18 318.05 614.15 318.09 614.11 318.16 614.1 318.18 614.03 318.28 614.02 318.28 613.98 318.31 613.89 318.37 613.8 318.42 613.69 318.49 613.64 318.52 613.58 318.56 613.51 318.6 613.44 318.65 613.34 318.73 613.23 318.82 613.14 318.89 613.06 318.95 613 319.01 612.92 319.07 612.86 319.13 612.8 319.19 612.74 319.24 612.58 319.22 612.54 319.29 612.46 319.43 612.39 319.54 612.26 319.51 612.25 319.56 612.22 319.64 612.21 319.67 612.2 319.7 612.18 319.76 612.16 319.82 612.15 319.86 612.15 319.92 612.14 320.01 612.14 320.04 612.13 320.07 612.12 320.11 612.1 320.17 612.07 320.23 612.03 320.32 611.99 320.42 611.91 320.6 611.82 320.8 611.73 321 611.71 321.06 611.67 321.15 611.63 321.32 611.62 321.32 611.54 321.32 611.5 321.33 611.34 321.34 611.2 321.35 611.09 321.3 610.98 321.26 610.94 321.24 610.78 321.28 610.73 321.28 610.72 321.29 610.68 321.29 610.66 321.24 610.6 321.16 610.51 321.05 610.44 321 610.28 320.97 610.2 320.98 610.11 321.01 610.01 321.07 609.93 321.11 609.87 321.18 609.79 321.26 609.73 321.33 609.66 321.4 609.6 321.47 609.56 321.53 609.46 321.62 609.33 321.75 609.21 321.87 609.07 322 608.95 322.1 608.88 322.16 608.83 322.19 608.55 322.33 608.45 322.39 608.32 322.47 608.19 322.55 608.13 322.58 608.09 322.63 608.05 322.71 607.99 322.79 607.93 322.87 607.89 322.91 607.83 322.95 607.8 322.98 607.7 323.11 607.62 323.17 607.56 323.22 607.4 323.32 607.28 323.39 607.17 323.44 607.07 323.48 607.01 323.48 606.94 323.51 606.83 323.53 606.72 323.56 606.58 323.58 606.48 323.59 606.37 323.58 606.27 323.57 606.13 323.57 605.96 323.55 605.83 323.52 605.77 323.49 605.71 323.46 605.63 323.44 605.58 323.42 605.55 323.4 605.51 323.36 605.45 323.33 605.41 323.3 605.37 323.25 605.3 323.15 605.24 323.05 605.17 322.92 605.05 322.77 604.96 322.66 604.85 322.56 604.82 322.59 604.77 322.64 604.76 322.65 604.76 322.65 604.73 322.68 604.61 322.81 604.45 322.96 604.28 323.14 604.19 323.24 604.18 323.25 604.17 323.25 604.05 323.38 603.91 323.47 603.8 323.56 603.68 323.65 603.57 323.74 603.48 323.81 603.41 323.85 603.4 323.79 603.37 323.72 603.29 323.66 603.16 323.58 602.97 323.38 602.86 323.26 602.71 323.09 602.5 322.85 602.07 322.48 601.24 321.75 601.13 321.65 600.96 321.48 600.78 321.27 600.41 320.98 600.02 320.67 599.98 320.56 599.93 320.42 599.92 320.4 599.74 320.27 599.72 320.25 599.65 320.18 599.39 319.95 599.01 319.65 598.74 319.46 598.32 319.17 597.79 318.75 597.24 318.31 596.69 317.91 596.27 317.6 595.86 317.31 595.26 316.91 595.13 316.83 595.1 316.77 595 316.62 594.92 316.51 594.83 316.37 594.76 316.26 594.68 316.14 594.65 316.09 594.62 316.05 594.58 316.03 594.49 315.97 594.42 315.93 594.34 315.88 594.29 315.85 594.26 315.83 594.21 315.78 594.17 315.74 594.13 315.7 594.11 315.68 594.08 315.65 594.02 315.61 593.91 315.55 593.85 315.52 593.79 315.49 593.73 315.45 593.69 315.43 593.64 315.38 593.58 315.33 593.51 315.26 593.45 315.2 593.39 315.14 593.34 315.11 593.31 315.08 593.22 315.02 593.11 314.94 593.02 314.87 592.94 314.81 592.84 314.74 592.77 314.69 592.63 314.6 592.62 314.59 592.49 314.49 592.37 314.4 592.22 314.29 592.06 314.18 591.94 314.09 591.84 314.02 591.78 313.98 591.72 313.93 591.68 313.9 591.64 313.88 591.6 313.85 591.55 313.83 591.43 313.77 591.36 313.74 591.27 313.7 591.15 313.64 591.06 313.6 590.94 313.54 590.79 313.47 590.68 313.41 590.53 313.34 590.39 313.28 590.32 313.25 590.28 313.21 590.2 313.12 590.18 313.11 590.12 313.05 590.07 313 590.05 312.97 590.04 312.97 589.61 312.75 589.25 312.58 589.05 312.48 588.96 312.45 588.87 312.42 588.82 312.41 588.71 312.36 588.5 312.25 588.09 312.02 587.88 311.9 587.78 311.84 587.69 311.79 587.29 311.63 586.75 311.41 586.73 311.44 586.69 311.47 586.12 312.01 585.74 311.67 585.31 311.52 585.25 311.51 584.84 311.49 584.48 311.47 584.45 311.47 584.33 311.48 584.31 311.48 584.2 311.49 583.99 311.51 583.76 311.52 583.46 311.53 583.29 311.54 583.27 311.52 583.44 311.01 583.35 309.79 582.77 309.27 582.6 309.13 582.4 308.99 582.4 308.99 582.2 308.85 581.99 308.72 581.73 308.57 581.5 308.43 581.29 308.32 581.06 308.22 580.81 308.12 580.57 308.01 580.12 307.8 579.48 307.48 579.07 307.25 578.69 307.02 578.36 306.81 578.25 306.74 578.16 306.69 578.08 306.64 578 306.59 577.89 306.53 577.8 306.47 577.71 306.42 577.64 306.37 577.6 306.35 577.21 306.12 577.42 305.77 577.43 305.74 577.51 305.58 577.55 305.49 577.71 305.14 577.78 304.97 577.84 304.83 577.88 304.75 577.94 304.62 578.03 304.42 578.03 304.41 578.05 304.35 578.08 304.31 578.11 304.29 578.13 304.28 578.15 304.26 578.19 304.26 578.2 304.26 578.26 304.25 578.32 304.24 578.37 304.23 578.41 304.23 578.43 304.22 578.48 304.21 578.53 304.19 578.57 304.14 578.63 304.09 578.67 304.05 578.71 304 578.73 303.97 578.74 303.93 578.75 303.9 578.75 303.85 578.74 303.77 578.73 303.71 578.72 303.67 578.71 303.65 578.69 303.61 578.68 303.6 578.67 303.58 578.65 303.54 578.63 303.51 578.62 303.47 578.62 303.43 578.63 303.36 578.62 303.33 578.61 303.27 578.61 303.26 578.6 303.24 578.61 303.16 578.65 303.15 578.66 303.15 578.7 303.14 578.78 303.12 578.86 303.1 578.98 303.09 579 303.09 579.06 303.08 579.1 303.08 579.11 303.08 579.24 303.1 579.26 303.1 579.28 303.11 579.36 303.11 579.43 303.12 579.48 303.09 579.53 303.08 579.6 303.07 579.62 303.07 579.67 303.08 579.71 303.08 579.78 303.1 579.81 303.11 579.87 303.12 579.93 303.13 579.99 303.14 580.04 303.16 580.08 303.18 580.12 303.2 580.18 303.24 580.2 303.25 580.25 303.28 580.31 303.32 580.38 303.36 580.45 303.39 580.48 303.4 580.52 303.41 580.56 303.42 580.64 303.44 580.7 303.45 580.72 303.45 580.73 303.45 580.76 303.45 580.82 303.45 580.85 303.37 580.86 303.31 580.86 303.27 580.87 303.23 580.88 303.19 580.91 303.15 580.92 303.11 580.94 303.06 580.95 303.02 580.97 302.95 580.98 302.92 581.01 302.88 581.04 302.85 581.08 302.81 581.1 302.79 581.14 302.75 581.21 302.7 581.28 302.66 581.34 302.62 581.39 302.59 581.47 302.54 581.55 302.51 581.62 302.48 581.64 302.47 581.67 302.47 581.83 302.41 581.88 302.31 581.97 302.13 582.01 302.06 582.02 302.02 582.03 302.01 582.04 301.99 582.06 301.96 582.09 301.92 582.11 301.88 582.12 301.86 582.14 301.84 582.24 301.7 582.28 301.65 582.31 301.61 582.41 301.48 582.53 301.34 582.65 301.19 582.64 301.15 582.63 301.07 582.61 300.97 582.6 300.9 582.57 300.74 582.55 300.66 582.5 300.6 582.45 300.55 582.42 300.52 582.4 300.47 582.35 300.35 582.31 300.26 582.26 300.09 582.21 299.92 582.19 299.84 582.17 299.78 582.15 299.72 582.11 299.61 582.1 299.6 582.07 299.53 582 299.36 581.96 299.25 581.93 299.15 581.9 299.08 581.9 299.07 581.88 299.03 581.82 298.94 581.75 298.83 581.7 298.76 581.67 298.72 581.63 298.67 581.59 298.62 581.56 298.57 581.51 298.49 581.48 298.42 581.46 298.37 581.43 298.22 581.42 298.11 581.42 298.06 581.41 297.98 581.42 297.86 581.41 297.81 581.41 297.72 581.4 297.64 581.39 297.58 581.38 297.51 581.37 297.45 581.36 297.37 581.35 297.33 581.35 297.32 581.35 297.28 581.36 297.19 581.37 297.13 581.38 297.06 581.39 297.02 581.41 296.98 581.44 296.87 581.46 296.79 581.47 296.74 581.51 296.61 581.51 296.58 581.54 296.54 581.55 296.51 581.58 296.44 581.61 296.37 581.64 296.28 581.67 296.23 581.67 296.21 581.68 296.2 581.7 296.14 581.75 296.07 581.78 296.01 581.8 295.97 581.82 295.91 581.84 295.85 581.86 295.8 581.89 295.74 581.95 295.64 582 295.58 582 295.56 582.01 295.55 582.1 295.41 582.12 295.39 582.14 295.36 582.16 295.32 582.17 295.28 582.18 295.22 582.2 295.16 582.21 295.13 582.22 295.06 582.24 295.01 582.27 294.94 582.3 294.88 582.32 294.81 582.34 294.74 582.37 294.65 582.37 294.64 582.39 294.59 582.4 294.57 582.42 294.5 582.47 294.42 582.55 294.3 582.56 294.28 582.83 293.84 582.92 293.7 582.85 293.56 582.79 293.44 582.72 293.3 582.72 293.29 582.71 293.28 582.71 293.27 582.67 293.19 582.64 293.12 582.63 293.09 582.6 293.02 582.57 292.97 582.56 292.94 582.56 292.93 582.56 292.91 582.55 292.89 582.55 292.85 582.55 292.75 582.55 292.7 582.55 292.62 582.55 292.62 582.55 292.57 582.53 292.48 582.5 292.31 582.46 292.09 582.46 292.07 582.46 292.04 582.44 291.88 582.44 291.86 582.43 291.8 582.43 291.79 582.41 291.66 582.41 291.64 582.4 291.56 582.39 291.46 582.36 291.38 582.34 291.31 582.33 291.28 582.32 291.25 582.28 291.13 582.27 291.11 582.23 290.98 582.21 290.92 582.19 290.87 582.18 290.84 582.17 290.79 582.16 290.77 582.14 290.72 582.13 290.69 582.13 290.68 582.08 290.54 582.05 290.42 582.02 290.35 581.99 290.27 581.96 290.16 581.93 290.07 581.88 289.95 581.84 289.82 581.79 289.7 581.77 289.63 581.76 289.6 581.75 289.57 581.74 289.52 581.74 289.48 581.75 289.43 581.76 289.35 581.76 289.32 581.76 289.3 581.76 289.27 581.77 289.18 581.78 289.06 581.79 289.01 581.79 288.99 581.8 288.88 581.81 288.78 581.79 288.72 581.77 288.67 581.74 288.6 581.71 288.51 581.7 288.45 581.67 288.35 581.65 288.27 581.63 288.19 581.6 288.1 581.57 288.02 581.53 287.91 581.48 287.8 581.44 287.71 581.42 287.65 581.41 287.62 581.41 287.6 581.41 287.57 581.4 287.47 581.4 287.34 581.39 287.27 581.39 287.25 581.4 287.14 581.39 287.02 581.3 286.97 581.19 286.9 581.08 286.83 580.99 286.77 580.95 286.74 580.95 286.66 580.95 286.52 580.94 286.41 580.95 286.34 580.95 286.29 580.96 286.27 580.97 286.17 580.99 286.04 580.99 285.97 581 285.91 581 285.87 581.01 285.84 581.02 285.75 581.03 285.68 581.04 285.62 581.05 285.54 581.07 285.41 581.09 285.28 581.11 285.21 581.12 285.17 581.14 285.12 581.2 285.03 581.25 284.95 581.31 284.87 581.36 284.81 581.41 284.73 581.44 284.69 581.48 284.66 581.56 284.61 581.66 284.56 581.77 284.5 581.92 284.42 582.03 284.44 582.1 284.44 582.19 284.43 582.31 284.41 582.44 284.39 582.42 284.48 582.38 284.64 582.36 284.76 582.33 284.87 582.3 285.01 582.26 285.12 582.33 285.21 582.41 285.32 582.44 285.36 582.52 285.46 582.55 285.51 582.58 285.54 582.63 285.6 582.67 285.65 582.73 285.73 582.72 285.76 582.71 285.78 582.71 285.81 582.68 285.87 582.66 285.96 582.63 286.06 582.59 286.18 582.56 286.27 582.64 286.37 582.71 286.43 582.78 286.51 582.84 286.57 582.84 286.58 582.88 286.61 582.91 286.65 582.92 286.65 582.95 286.68 582.97 286.72 583 286.77 583.03 286.86 583.05 286.94 583.08 287.04 583.1 287.1 583.11 287.16 583.12 287.18 583.12 287.2 583.14 287.25 583.15 287.26 583.16 287.3 583.17 287.37 583.18 287.42 583.19 287.46 583.21 287.51 583.25 287.57 583.27 287.62 583.31 287.69 583.35 287.74 583.4 287.79 583.5 287.86 583.58 287.91 583.71 287.96 583.82 288 583.89 288.02 583.95 288.03 584.01 288.11 584.07 288.17 584.13 288.26 584.21 288.37 584.25 288.42 584.27 288.46 584.3 288.5 584.34 288.56 584.39 288.63 584.49 288.78 584.53 288.83 584.61 288.95 584.68 289.04 584.72 289.1 584.79 289.2 584.83 289.2 584.95 289.18 585.03 289.16 585.08 289.15 585.16 289.13 585.24 289.09 585.28 289.07 585.35 289.03 585.39 289.01 585.45 288.97 585.49 288.94 585.54 288.9 585.58 288.87 585.65 288.82 585.7 288.78 585.75 288.74 585.78 288.72 585.8 288.72 585.85 288.71 585.95 288.7 585.99 288.7 586.04 288.68 586.06 288.66 586.11 288.63 586.18 288.59 586.2 288.58 586.27 288.54 586.35 288.49 586.42 288.44 586.44 288.42 586.46 288.41 586.48 288.39 586.51 288.38 586.56 288.37 586.64 288.35 586.77 288.32 586.84 288.3 586.86 288.29 586.9 288.27 586.93 288.26 586.97 288.24 586.99 288.23 587.02 288.21 587.08 288.18 587.11 288.16 587.13 288.14 587.19 288.1 587.22 288.07 587.23 288.06 587.23 288.05 587.24 288.03 587.25 288.02 587.26 287.97 587.28 287.9 587.3 287.82 587.32 287.76 587.32 287.75 587.34 287.72 587.36 287.69 587.39 287.67 587.41 287.65 587.45 287.61 587.49 287.59 587.54 287.55 587.6 287.49 587.75 287.34 587.89 287.22 588.04 287.09 588.13 287 588.18 286.94 588.23 286.86 588.29 286.76 588.36 286.65 588.41 286.56 588.45 286.46 588.47 286.4 588.48 286.36 588.49 286.33 588.5 286.23 588.52 286.11 588.53 285.97 588.54 285.81 588.55 285.71 588.56 285.61 588.57 285.56 588.57 285.53 588.58 285.51 588.59 285.5 588.62 285.43 588.67 285.35 588.69 285.31 588.71 285.27 588.73 285.24 588.79 285.16 588.82 285.13 588.84 285.11 588.9 285.02 588.94 284.95 588.96 284.91 588.98 284.89 589.05 284.8 589.09 284.75 589.06 284.65 588.92 284.26 588.81 283.9 588.71 283.59 588.64 283.32 588.58 283.16 588.56 283.13 588.56 283.11 588.49 282.92 588.42 282.75 588.3 282.6 588.17 282.45 588.05 282.45 587.93 282.45 587.82 282.43 587.66 282.42 587.53 282.4 587.38 282.38 587.19 282.37 587.07 282.36 586.86 282.35 586.7 282.34 586.58 282.33 586.52 282.32 586.44 282.29 586.38 282.28 586.26 282.24 586.09 282.19 585.93 282.13 585.89 282.12 585.81 282.1 585.77 282.08 585.75 282.08 585.73 282.07 585.7 282.05 585.67 282.03 585.63 281.97 585.61 281.92 585.64 281.88 585.71 281.78 585.88 281.54 586.02 281.34 586.16 281.15 586.29 280.97 586.43 280.77 586.6 280.53 586.74 280.29 586.82 280.13 586.88 280.01 586.89 279.99 586.98 279.84 586.98 279.82 587.03 279.7 587.11 279.53 587.12 279.52 587.2 279.31 587.29 279.13 587.36 278.96 587.41 278.85 587.48 278.71 587.55 278.59 587.61 278.47 587.67 278.35 587.7 278.27 587.7 278.26 587.73 278.22 587.82 278.05 587.88 277.94 588.04 278.04 588.18 278.14 588.19 278.15 588.26 278.19 588.3 278.21 588.37 278.25 588.68 278.42 588.84 278.5 588.93 278.53 589.01 278.58 589.12 278.68 589.14 278.69 589.16 278.71 589.29 278.82 589.48 278.98 589.62 279.1 589.67 279.15 589.68 279.17 589.72 279.2 589.77 279.24 589.81 279.28 589.86 279.33 589.93 279.41 590 279.47 590.02 279.49 590.07 279.53 590.13 279.59 590.19 279.52 590.22 279.5 590.4 279.3 590.54 279.16 590.89 279.17 590.98 279.17 591.17 279.17 591.27 279.13 591.28 279.13 591.3 279.13 591.39 279.1 591.56 279.05 591.76 278.99 591.95 278.94 592.15 278.87 592.31 278.83 592.49 278.77 592.66 278.72 592.82 278.68 593.08 278.6 593.3 278.53 593.44 278.48 593.49 278.47 593.6 278.44 593.67 278.42 593.87 278.52 594.07 278.63 594.17 278.68 594.21 278.69 594.26 278.7 594.3 278.71 594.4 278.73 594.51 278.75 594.61 278.78 594.63 278.79 594.7 278.81 594.75 278.83 594.76 278.83 594.78 278.82 594.81 278.81 594.84 278.81 594.86 278.81 594.94 278.81 595.06 278.82 595.15 278.83 595.25 278.84 595.31 278.85 595.34 278.86 595.38 278.87 595.42 278.89 595.46 278.91 595.53 278.94 595.55 278.96 595.6 279.01 595.65 279.14 595.78 279.16 595.99 279.18 596.24 279.21 596.54 279.24 596.72 279.08 596.95 279.06 597.41 278.99 597.56 278.97 597.76 278.95 597.79 278.94 597.83 278.94 597.84 278.94 597.82 278.84 597.8 278.78 597.79 278.75 597.79 278.73 597.78 278.7 597.79 278.67 597.8 278.67 597.87 278.71 598 278.77 598.04 278.79 598.23 278.89 598.26 279.1 598.27 279.24 598.3 279.41 598.31 279.56 598.32 279.64 598.33 279.67 598.33 279.72 598.35 279.88 598.38 280.07 598.41 280.38 598.49 281.08 598.51 281.11 598.55 281.14 598.65 281.24 598.66 281.25 598.91 281.5 598.93 281.54 598.93 281.56 598.99 281.74 599.05 281.91 599.1 281.95 599.11 281.96 599.22 282.06 599.4 282.22 599.66 282.29 599.97 282.37 600.44 282.5 600.7 282.58 600.84 282.62 601 282.64 601.01 282.65 601.14 282.68 601.16 282.69 601.33 282.86 601.47 283.01 601.52 283.06 601.46 283.26 601.4 283.48 601.43 283.68 601.45 283.86 601.49 284.17 601.52 284.43 601.55 284.55 601.56 284.6 601.59 284.66 601.61 284.74 601.63 284.79 601.65 284.86 601.65 284.87 601.69 285 601.73 285.15 601.77 285.25 601.85 285.4 601.96 285.58 602.03 285.69 602.07 285.77 602.15 285.9 602.17 285.84 602.18 285.8 602.18 285.78 602.19 285.76 602.2 285.7 602.21 285.65 602.22 285.6 602.24 285.51 602.24 285.49 602.2 285.39 602.17 285.3 602.16 285.25 602.15 285.21 602.15 285.17 602.16 285.14 602.17 285.1 602.18 285.06 602.2 285.01 602.23 284.97 602.26 284.93 602.3 284.88 602.33 284.84 602.38 284.8 602.43 284.76 602.49 284.72 602.57 284.69 602.62 284.66 602.68 284.63 602.74 284.6 602.78 284.59 602.83 284.59 602.89 284.58 602.95 284.58 603.03 284.58 603.1 284.59 603.16 284.6 603.21 284.62 603.29 284.65 603.35 284.67 603.42 284.69 603.5 284.71 603.58 284.72 603.66 284.72 603.75 284.71 603.85 284.69 603.89 284.67 603.93 284.65 603.97 284.63 604.01 284.6 604.06 284.56 604.1 284.53 604.16 284.5 604.42 284.36 604.51 284.31 604.57 284.28 604.64 284.25 604.76 284.2 604.82 284.18 604.89 284.15 604.92 284.13 604.94 284.11 604.99 284.05 605.07 283.92 605.11 283.84 605.17 283.73 605.2 283.67 605.21 283.63 605.22 283.58 605.24 283.48 605.26 283.41 605.28 283.36 605.34 283.19 605.35 283.09 605.36 283.07 605.36 283.05 605.35 283.01 605.35 282.97 605.35 282.94 605.36 282.89 605.37 282.85 605.39 282.76 605.4 282.68 605.41 282.58 605.43 282.48 605.46 282.38 605.47 282.33 605.49 282.29 605.52 282.25 605.56 282.2 605.61 282.13 605.66 282.06 605.69 282.02 605.72 281.96 605.76 281.86 605.79 281.76 605.81 281.71 605.83 281.65 605.84 281.61 605.88 281.52 605.91 281.43 605.94 281.31 605.97 281.23 605.99 281.2 606.01 281.16 606.05 281.09 606.11 281 606.16 280.93 606.21 280.85 606.24 280.8 606.26 280.77 606.29 280.71 606.32 280.63 606.33 280.6 606.35 280.54 606.37 280.47 606.37 280.43 606.37 280.41 606.41 280.39 606.48 280.35 606.71 280.23 606.86 280.15 607.57 280.23 607.99 280.89 608.08 281.04 608.14 281.04 608.21 281.05 608.41 281.07 608.76 281.12 609.12 281.17 609.33 281.2 609.36 281.21 609.51 281.23 609.7 281.26 609.7 281.26 609.75 281.46 609.75 281.49 609.81 281.76 609.82 281.79 609.91 282.23 610.01 282.66 610.01 282.68 610.03 282.76 610.11 283.14 610.17 283.4 610.24 283.7 610.34 283.77 610.53 283.89 610.63 283.96 610.74 284.03 610.83 284.1 610.95 284.18 611.06 284.25 611.18 284.34 611.27 284.31 611.45 284.23 611.64 284.14 611.74 284.1 611.85 284.03 611.96 283.96 612.1 283.87 612.22 283.79 612.28 283.76 612.29 283.75 612.39 283.76 612.55 283.78 612.73 283.8 612.95 283.84 613 283.85 613.17 283.88 613.27 283.89 613.29 283.91 613.38 283.98 613.5 284.07 613.58 284.14 613.65 284.19 613.71 284.25 613.75 284.28 613.78 284.34 613.85 284.52 613.9 284.66 613.94 284.82 613.96 284.89 614.01 285.06 614.05 285.19 614.09 285.35 614.13 285.47 614.23 285.5 614.39 285.54 614.66 285.61 614.82 285.66 614.97 285.7 615.04 285.71 615.18 285.73 615.35 285.75 615.53 285.78 615.74 285.8 615.93 286 616.15 286.21 616.15 286.39 616.16 286.69 616.16 286.73 616.35 286.92 616.63 287.22 616.66 287.28 616.67 287.3 616.69 287.33 616.72 287.39 616.8 287.56 616.86 287.69 616.94 287.83 616.96 287.87 616.96 287.89 616.97 287.99 616.98 288.14 616.99 288.33 617 288.4 617 288.43 617 288.46 617.01 288.49 617.05 288.48 617.15 288.46 617.28 288.43 617.37 288.41 617.44 288.38 617.51 288.35 617.56 288.33 617.64 288.29 617.75 288.25 617.84 288.21 617.91 288.15 617.98 288.08 617.99 288.07 618.02 288.04 618.06 288 618.07 287.99 618.12 287.94 618.21 287.95 618.33 287.95 618.37 287.96 618.53 287.97 618.59 287.97 618.7 287.97 618.84 287.98 618.91 287.98 619.03 287.99 619.13 288.01 619.28 288.02 619.39 288.03 619.52 288.04 619.6 288.07 619.69 288.11 619.8 288.15 619.9 288.18 620 288.23 620.08 288.26 620.18 288.26 620.3 288.26 620.45 288.26 620.59 288.26 620.75 288.27 620.89 288.27 621.02 288.27 621.18 288.28 621.32 288.28 621.42 288.28 621.5 288.28 621.58 288.28 621.66 288.28 621.67 288.28 621.78 288.24 621.91 288.18 621.95 288.16 622 288.14 622.12 288.09 622.26 288.02 622.43 287.95 Z M 606.02 299.86 606.13 299.86 606.17 299.86 606.26 299.85 606.37 299.83 606.42 299.82 606.43 299.82 606.54 299.8 606.57 299.8 606.59 299.79 606.62 299.8 606.67 299.81 606.75 299.82 606.79 299.84 606.89 299.9 606.97 299.96 607.08 300.03 607.16 300.06 607.23 300.09 607.29 300.11 607.36 300.13 607.44 300.15 607.49 300.16 607.55 300.19 607.6 300.22 607.64 300.25 607.69 300.29 607.79 300.41 607.84 300.45 607.88 300.5 607.92 300.54 607.95 300.57 607.98 300.59 608.04 300.63 608.08 300.67 608.11 300.7 608.14 300.74 608.17 300.78 608.2 300.82 608.22 300.84 608.25 300.86 608.29 300.88 608.35 300.9 608.4 300.93 608.43 300.96 608.47 301 608.48 301.02 608.51 301.05 608.53 301.09 608.54 301.14 608.55 301.17 608.55 301.2 608.56 301.2 608.56 301.21 608.57 301.21 608.6 301.19 608.7 301.13 608.71 301.11 608.9 300.78 609 300.59 609.1 300.42 609.13 300.36 609.32 300.04 609.45 299.83 609.52 299.7 609.57 299.59 609.59 299.53 609.62 299.5 609.67 299.45 609.72 299.4 609.79 299.31 609.89 299.18 609.94 299.1 610 299.01 610.07 298.93 610.21 298.77 610.3 298.67 610.37 298.6 610.51 298.45 610.73 298.21 610.98 297.93 611.13 297.76 611.24 297.63 611.32 297.56 611.33 297.55 611.35 297.53 611.38 297.52 611.51 297.44 611.66 297.36 611.8 297.27 611.85 297.25 611.96 297.19 612.11 297.1 612.26 297.01 612.37 296.95 612.4 296.63 612.43 296.32 612.33 296.29 611.69 296.09 611.62 296.06 611.52 296.03 611.52 295.98 611.52 295.96 611.52 295.79 611.51 295.49 611.5 295.18 611.5 294.98 611.5 294.8 611.49 294.66 611.49 294.56 611.49 294.47 611.5 294.39 611.52 294.21 611.56 293.94 611.59 293.74 611.6 293.64 611.65 293.33 611.67 293.12 611.69 293.02 611.7 292.95 611.71 292.87 611.73 292.79 611.75 292.71 611.77 292.66 611.78 292.62 611.68 292.67 611.61 292.7 611.55 292.71 611.5 292.73 611.44 292.74 611.4 292.75 611.36 292.76 611.33 292.76 611.29 292.76 611.22 292.74 611.14 292.71 611.05 292.68 610.97 292.65 610.94 292.64 610.86 292.63 610.8 292.62 610.74 292.61 610.69 292.59 610.61 292.57 610.55 292.55 610.5 292.54 610.43 292.52 610.36 292.5 610.28 292.48 610.22 292.47 610.16 292.46 610.1 292.45 610.06 292.45 610.02 292.45 609.97 292.45 609.9 292.45 609.8 292.46 609.71 292.45 609.62 292.45 609.55 292.45 609.46 292.45 609.39 292.45 609.32 292.44 609.23 292.42 609.16 292.42 609.09 292.41 609 292.41 608.89 292.41 608.79 292.41 608.68 292.42 608.57 292.43 608.5 292.43 608.42 292.44 608.34 292.46 608.26 292.47 608.18 292.49 608.09 292.51 607.97 292.53 607.89 292.54 607.77 292.57 607.7 292.58 607.64 292.59 607.63 292.59 607.6 292.6 607.53 292.61 607.46 292.62 607.4 292.64 607.3 292.65 607.19 292.67 607.11 292.69 607.02 292.69 606.95 292.69 606.9 292.69 606.84 292.69 606.81 292.69 606.77 292.69 606.66 292.69 606.55 292.69 606.44 292.69 606.37 292.7 606.34 292.7 606.24 292.7 606.21 292.7 606.17 292.7 606.14 292.66 606.13 292.65 606.1 292.63 606.05 292.57 605.99 292.5 605.91 292.42 605.84 292.3 605.75 292.18 605.65 292.06 605.57 291.95 605.52 291.88 605.46 291.8 605.42 291.77 605.4 291.77 605.3 291.76 605.19 291.75 605.13 291.74 605.08 291.74 605.07 291.74 605.03 291.75 604.99 291.77 604.98 291.77 604.93 291.8 604.89 291.81 604.87 291.83 604.82 291.85 604.77 291.87 604.73 291.89 604.69 291.9 604.65 291.92 604.59 291.95 604.53 291.97 604.46 292 604.44 292.01 604.41 292.02 604.37 292.04 604.35 292.06 604.31 292.1 604.28 292.13 604.24 292.16 604.21 292.2 604.2 292.21 604.15 292.26 604.11 292.29 604.08 292.33 604.04 292.36 604 292.4 603.94 292.47 603.87 292.53 603.83 292.56 603.79 292.61 603.73 292.67 603.7 292.71 603.68 292.73 603.65 292.78 603.61 292.84 603.59 292.88 603.58 292.89 603.58 292.91 603.54 292.98 603.53 293 603.48 293.08 603.42 293.18 603.36 293.28 603.31 293.34 603.2 293.54 603.11 293.7 603.02 293.84 602.9 293.99 602.85 294.07 602.77 294.16 602.63 294.33 602.51 294.48 602.43 294.58 602.37 294.64 602.33 294.67 602.23 294.75 602.14 294.83 602.05 294.91 601.96 294.98 601.93 295 601.81 295.06 601.75 295.1 601.71 295.12 601.58 295.2 601.44 295.29 601.32 295.35 601.24 295.39 601.17 295.42 601.05 295.47 600.94 295.52 600.84 295.56 600.75 295.59 600.69 295.61 600.65 295.62 600.55 295.65 600.49 295.66 600.45 295.66 600.43 295.66 600.4 295.65 600.33 295.64 600.31 295.63 600.28 295.63 600.14 295.6 600.13 295.6 600.07 295.58 600.04 295.58 600.06 295.55 600.09 295.51 600.11 295.47 600.12 295.43 600.12 295.4 600.12 295.36 600.12 295.34 600.11 295.31 600.09 295.26 600.07 295.21 600.05 295.16 600.03 295.08 600.01 295.04 599.97 294.95 599.94 294.91 599.9 294.87 599.87 294.83 599.83 294.78 599.79 294.72 599.75 294.66 599.71 294.59 599.67 294.51 599.64 294.41 599.61 294.31 599.59 294.18 599.58 294.07 599.58 293.96 599.58 293.87 599.59 293.82 599.6 293.78 599.61 293.75 599.63 293.72 599.65 293.69 599.68 293.66 599.79 293.55 599.85 293.49 599.88 293.45 599.92 293.39 599.96 293.32 600.03 293.23 600.09 293.15 600.14 293.08 600.18 293 600.23 292.93 600.16 292.93 600.14 292.93 600.09 292.93 600.03 292.92 599.96 292.92 599.94 292.92 599.84 292.92 599.77 292.92 599.69 292.92 599.62 292.92 599.55 292.93 599.49 292.94 599.43 292.96 599.36 292.97 599.28 292.99 599.16 293.01 599.06 293.03 598.94 293.05 598.88 293.06 598.82 293.07 598.76 293.09 598.7 293.11 598.65 293.13 598.6 293.15 598.56 293.17 598.51 293.19 598.47 293.22 598.41 293.26 598.35 293.29 598.26 293.35 598.18 293.4 598.14 293.43 598.11 293.43 598 293.42 597.91 293.42 597.9 293.42 597.89 293.42 597.86 293.42 597.44 293.42 597.39 293.42 597.26 293.43 597.13 293.43 597.05 293.42 596.98 293.42 596.92 293.42 596.86 293.41 596.8 293.4 596.73 293.38 596.7 293.37 596.61 293.33 596.55 293.31 596.48 293.28 596.43 293.27 596.4 293.25 596.35 293.24 596.3 293.25 596.25 293.25 596.19 293.25 596.12 293.23 596.06 293.22 596.01 293.21 595.95 293.2 595.9 293.18 595.85 293.16 595.8 293.13 595.76 293.1 595.7 293.05 595.6 292.98 595.59 292.97 595.51 292.9 595.43 292.84 595.4 292.81 595.36 292.79 595.31 292.78 595.26 292.78 595.19 292.78 595.11 292.79 594.97 292.82 594.84 292.83 594.73 292.84 594.66 292.85 594.61 292.85 594.57 292.84 594.53 292.83 594.5 292.81 594.45 292.79 594.41 292.75 594.37 292.72 594.3 292.68 594.22 292.64 594.17 292.63 594.11 292.63 594.07 292.63 594.03 292.68 593.88 292.87 593.63 293.21 593.61 293.24 593.58 293.26 593.51 293.29 593.44 293.33 593.4 293.35 593.39 293.35 593.38 293.36 593.32 293.39 593.26 293.42 593.19 293.45 593.12 293.49 593.03 293.54 592.94 293.57 592.91 293.58 592.9 293.66 592.89 293.77 592.89 293.82 592.89 293.85 592.89 293.96 592.91 294.04 592.93 294.15 592.93 294.26 592.94 294.3 592.93 294.36 592.92 294.46 592.91 294.58 592.89 294.67 592.86 294.76 592.83 294.85 592.79 294.95 592.77 294.98 592.72 295.07 592.66 295.16 592.6 295.23 592.57 295.28 592.59 295.31 592.63 295.39 592.67 295.49 592.7 295.57 592.73 295.66 592.75 295.75 592.77 295.81 592.78 295.87 592.78 295.92 592.77 295.96 592.77 296.01 592.77 296.06 592.76 296.1 592.74 296.13 592.73 296.16 592.71 296.19 592.69 296.21 592.67 296.23 592.64 296.26 592.6 296.29 592.57 296.33 592.53 296.37 592.51 296.4 592.49 296.42 592.48 296.43 592.44 296.49 592.35 296.6 592.3 296.68 592.25 296.74 592.21 296.82 592.19 296.84 592.18 296.86 592.17 296.89 592.15 296.97 592.14 297.12 592.12 297.28 592.16 297.33 592.22 297.4 592.29 297.52 592.36 297.61 592.36 297.62 592.37 297.62 592.46 297.75 592.57 297.91 592.65 298 592.73 298.08 592.79 298.12 592.87 298.17 592.88 298.22 592.88 298.23 592.88 298.27 592.89 298.33 592.9 298.38 592.9 298.43 592.91 298.6 592.9 298.76 592.87 298.9 592.86 299.01 592.85 299.06 592.84 299.16 592.85 299.17 592.88 299.2 592.94 299.26 592.96 299.27 593.01 299.32 593.02 299.34 593.01 299.37 592.98 299.43 592.97 299.46 592.96 299.49 592.94 299.54 592.92 299.61 592.9 299.66 592.89 299.72 592.88 299.77 592.88 299.83 592.87 299.88 592.87 299.91 592.88 299.93 592.88 299.95 592.88 299.97 592.88 299.99 592.87 300.06 592.87 300.08 592.87 300.11 592.87 300.12 592.86 300.15 592.83 300.44 592.82 300.49 592.9 300.48 592.98 300.46 593 300.46 593.01 300.46 593.07 300.46 593.17 300.45 593.25 300.44 593.35 300.41 593.36 300.41 593.44 300.38 593.54 300.34 593.62 300.31 593.69 300.27 593.78 300.21 593.86 300.15 593.92 300.12 593.96 300.09 594 300.06 594.04 300.03 594.08 300 594.16 299.95 594.16 299.98 594.16 299.99 594.18 300.06 594.22 300.24 594.28 300.52 594.38 300.61 594.43 300.66 594.5 300.73 594.65 300.87 594.78 300.99 594.81 301.02 594.85 301.06 594.86 301.07 594.85 301.13 594.85 301.24 594.84 301.33 594.83 301.35 594.81 301.39 594.77 301.47 594.74 301.52 594.72 301.56 594.7 301.6 594.63 301.72 594.6 301.75 594.58 301.79 594.53 301.86 594.5 301.9 594.52 301.92 594.81 302.25 594.8 302.32 594.79 302.4 594.78 302.52 594.77 302.61 594.77 302.66 594.79 302.69 594.81 302.73 594.85 302.78 594.88 302.82 594.97 302.9 594.99 302.92 595.01 302.94 595.14 303.05 595.32 303.19 595.43 303.28 595.47 303.32 595.49 303.34 595.51 303.36 595.53 303.38 595.55 303.39 595.57 303.4 595.61 303.42 595.67 303.45 595.69 303.46 595.73 303.48 595.7 303.56 595.67 303.61 595.6 303.74 595.54 303.87 595.5 303.96 595.44 304.05 595.37 304.16 595.3 304.28 595.26 304.36 595.22 304.43 595.19 304.47 595.18 304.51 595.14 304.58 595.08 304.68 595.02 304.82 594.97 304.9 594.94 304.96 594.91 305 594.88 305.04 594.84 305.09 594.8 305.12 594.75 305.16 594.68 305.2 594.61 305.24 594.57 305.26 594.54 305.29 594.49 305.33 594.4 305.43 594.31 305.51 594.25 305.55 594.2 305.58 594.17 305.6 594.08 305.62 594 305.64 593.91 305.66 593.87 305.67 593.79 305.7 593.72 305.74 593.68 305.76 593.65 305.78 593.62 305.8 593.59 305.83 593.54 305.89 593.48 305.97 593.4 306.1 593.36 306.17 593.3 306.27 593.25 306.37 593.2 306.48 593.17 306.57 593.17 306.6 593.15 306.71 593.15 306.77 593.14 306.82 593.12 306.91 593.08 307.02 592.99 307.21 592.91 307.4 592.83 307.56 592.77 307.66 592.71 307.75 592.63 307.89 592.59 307.96 592.55 308.04 592.48 308.15 592.41 308.26 592.46 308.27 592.51 308.27 592.58 308.27 592.65 308.28 592.75 308.26 592.82 308.24 592.98 308.22 593.11 308.19 593.18 308.18 593.23 308.16 593.27 308.14 593.29 308.12 593.33 308.09 593.36 308.06 593.39 308.05 593.4 308.03 593.43 308.01 593.46 307.96 593.49 307.9 593.51 307.86 593.54 307.8 593.54 307.79 593.58 307.72 593.6 307.64 593.61 307.62 593.63 307.59 593.64 307.59 593.67 307.57 593.67 307.54 593.67 307.52 593.69 307.47 593.71 307.42 593.75 307.36 593.82 307.27 593.87 307.2 593.91 307.13 593.96 307.06 594.04 306.94 594.06 306.89 594.11 306.79 594.16 306.67 594.21 306.56 594.24 306.57 594.3 306.59 594.37 306.62 594.49 306.66 594.68 306.73 594.84 306.8 595.02 306.87 595.24 306.96 595.26 306.97 595.44 307.04 595.69 307.12 595.95 307.2 596.09 307.23 596.27 307.26 596.45 307.3 596.61 307.33 596.66 307.34 596.69 307.34 596.7 307.35 596.82 307.37 597.03 307.41 597.26 307.46 597.49 307.5 597.66 307.53 597.79 307.56 597.81 307.5 597.84 307.39 597.86 307.32 597.86 307.27 597.86 307.22 597.85 307.15 597.83 307.07 597.82 307.02 597.81 306.95 597.8 306.91 597.77 306.82 597.75 306.73 597.74 306.65 597.74 306.58 597.75 306.5 597.76 306.44 597.77 306.42 597.79 306.4 597.83 306.37 597.89 306.35 597.94 306.35 597.97 306.35 597.98 306.37 598 306.4 598.02 306.41 598.03 306.42 598.08 306.43 598.14 306.44 598.19 306.44 598.24 306.44 598.29 306.45 598.35 306.46 598.4 306.46 598.47 306.42 598.6 306.33 598.62 306.33 598.77 306.23 598.91 306.13 598.92 306.12 598.95 306.1 598.97 306.09 598.98 306.03 598.99 305.98 599.01 305.92 599.01 305.91 599.02 305.9 599.09 305.66 599.14 305.47 599.15 305.45 599.24 305.13 599.34 304.77 599.42 304.56 599.46 304.44 599.46 304.43 599.5 304.34 599.51 304.3 599.52 304.29 599.54 304.25 599.6 304.07 599.67 303.89 599.76 303.66 599.82 303.51 599.88 303.34 599.94 303.21 599.94 303.18 599.94 303.17 599.94 303.11 599.95 303.01 599.99 302.75 600.01 302.65 600.02 302.61 600.04 302.54 600.04 302.51 600.03 302.48 600.02 302.44 600.01 302.38 600.01 302.38 599.96 302.14 599.94 302.03 599.94 302.01 599.93 302 599.91 301.86 599.9 301.77 599.9 301.76 599.9 301.7 599.9 301.59 599.9 301.58 599.89 301.49 599.89 301.39 599.89 301.35 599.89 301.26 599.88 301.14 599.87 300.99 599.88 300.96 599.88 300.9 599.88 300.89 599.88 300.74 599.89 300.68 599.89 300.6 599.9 300.49 599.9 300.41 599.92 300.31 599.94 300.26 599.95 300.23 599.97 300.21 600 300.18 600.04 300.14 600.13 300.06 600.19 300 600.23 299.96 600.27 299.89 600.33 299.77 600.4 299.65 600.44 299.52 600.49 299.43 600.51 299.4 600.54 299.37 600.63 299.27 600.71 299.19 600.74 299.15 600.77 299.12 600.8 299.08 600.82 299.05 600.85 298.98 600.9 298.89 600.95 298.79 601 298.73 601.03 298.68 601.06 298.64 601.1 298.56 601.15 298.5 601.17 298.49 601.21 298.46 601.29 298.43 601.31 298.43 601.36 298.43 601.42 298.43 601.51 298.44 601.59 298.45 601.63 298.45 601.66 298.45 601.7 298.49 601.82 298.64 601.97 298.83 602.03 298.9 602.32 299.28 602.65 299.74 602.79 299.93 602.81 299.96 602.82 299.97 602.88 300.05 602.95 300.15 603.07 300.32 603.55 300.41 603.63 300.42 603.69 300.43 603.82 300.46 603.96 300.48 604.06 300.49 604.09 300.48 604.1 300.48 604.11 300.47 604.2 300.43 604.32 300.39 604.36 300.38 604.38 300.37 604.39 300.37 604.41 300.37 604.42 300.37 604.51 300.38 604.52 300.38 604.56 300.37 604.6 300.33 604.63 300.31 604.69 300.3 604.75 300.29 604.81 300.25 604.87 300.22 604.9 300.21 605 300.17 605.05 300.15 605.11 300.1 605.17 300.06 605.18 300.05 605.23 300.03 605.26 300.01 605.3 299.99 605.38 299.95 605.45 299.93 605.53 299.88 605.58 299.85 605.68 299.82 605.73 299.81 605.77 299.81 605.85 299.83 605.94 299.86 606.02 299.86 Z" fill-rule="evenodd"/>
</g></svg>