<svg xmlns="http://www.w3.org/2000/svg" version="1.2" baseProfile="tiny" stroke-linecap="round" stroke-linejoin="round" viewBox="600.22 168.3 25.85 38.75"><g xmlns="http://www.w3.org/2000/svg" id="Luzaide">
<path d="M 625.75 197.26 625.75 197.29 625.79 197.33 625.86 197.39 625.96 197.49 626.06 197.59 626 197.63 625.98 197.65 625.95 197.67 625.76 197.83 625.55 198 625.47 198.06 625.44 198.08 625.43 198.09 625.4 198.13 625.37 198.18 625.34 198.22 625.32 198.25 625.2 198.44 625.11 198.6 625.04 198.72 624.99 198.81 624.91 198.83 624.8 198.87 624.71 198.9 624.63 198.93 624.57 198.94 624.55 198.95 624.35 198.98 624.16 199 624.03 199.02 623.92 199.03 623.69 199.06 623.35 199.11 622.98 199.16 622.61 199.22 622.28 199.26 621.97 199.31 621.68 199.34 621.44 199.38 621.23 199.4 621.05 199.41 620.88 199.41 620.74 199.4 620.69 199.4 620.68 199.4 620.66 199.42 620.64 199.45 620.6 199.49 620.57 199.52 620.53 199.55 620.47 199.59 620.41 199.62 620.36 199.64 620.3 199.67 620.23 199.69 620.16 199.71 620.07 199.74 620 199.75 619.89 199.78 619.8 199.8 619.71 199.82 619.63 199.85 619.54 199.87 619.46 199.9 619.37 199.93 619.27 199.96 619.18 199.99 619.14 200 619.1 200.03 619.05 200.05 619 200.07 618.95 200.09 618.88 200.12 618.85 200.14 618.82 200.16 618.76 200.21 618.74 200.23 618.71 200.25 618.68 200.27 618.64 200.28 618.6 200.3 618.56 200.32 618.51 200.33 618.48 200.35 618.45 200.36 618.41 200.38 618.36 200.41 618.34 200.42 618.31 200.44 618.27 200.47 618.22 200.5 618.18 200.53 618.14 200.55 618.11 200.57 618.08 200.59 618.06 200.6 618.04 200.62 618.03 200.64 618.01 200.67 617.99 200.72 617.97 200.77 617.96 200.81 617.95 200.85 617.95 200.87 617.96 200.89 617.98 200.91 618.05 200.96 618.11 201.01 618.16 201.05 618.19 201.07 618.2 201.08 618.21 201.09 618.21 201.11 618.21 201.12 618.2 201.13 618.18 201.14 618.1 201.19 618.05 201.21 618.03 201.22 618.02 201.23 618.01 201.25 617.99 201.27 617.98 201.31 617.97 201.36 617.97 201.4 617.97 201.46 617.97 201.5 617.98 201.54 617.99 201.59 618 201.65 618.01 201.69 618.02 201.74 618.03 201.77 618.03 201.8 618.02 201.82 618.02 201.84 618 201.87 617.97 201.92 617.93 201.98 617.89 202.02 617.83 202.11 617.8 202.15 617.71 202.25 617.63 202.36 617.6 202.39 617.57 202.44 617.53 202.48 617.5 202.52 617.48 202.55 617.44 202.59 617.43 202.61 617.42 202.63 617.39 202.64 617.37 202.66 617.33 202.67 617.29 202.68 617.25 202.69 617.21 202.7 617.17 202.71 617.12 202.73 617.09 202.74 617.07 202.75 617.06 202.76 617.04 202.78 617 202.82 616.97 202.85 616.94 202.88 616.92 202.91 616.9 202.93 616.87 202.95 616.85 202.97 616.83 202.99 616.82 203.01 616.8 203.03 616.79 203.04 616.78 203.07 616.77 203.11 616.75 203.18 616.75 203.23 616.75 203.27 616.75 203.32 616.76 203.37 616.78 203.45 616.8 203.53 616.82 203.59 616.86 203.7 616.89 203.78 616.91 203.84 616.94 203.91 616.95 203.97 616.97 204.03 616.98 204.06 617 204.14 617.02 204.24 617.02 204.31 617.02 204.36 617.01 204.41 616.99 204.47 616.98 204.52 616.96 204.55 616.94 204.59 616.93 204.59 616.85 204.59 616.84 204.59 616.75 204.58 616.7 204.58 616.65 204.55 616.58 204.52 616.49 204.47 616.37 204.38 616.3 204.32 616.19 204.19 616.08 204.08 616.05 204.04 616.01 204.02 615.92 204.01 615.72 204 615.61 204 615.52 204 615.43 204.02 615.25 204.06 615.09 204.12 614.94 204.16 614.8 204.21 614.72 204.24 614.64 204.26 614.5 204.31 614.39 204.35 614.26 204.41 614.13 204.47 614.06 204.51 614.03 204.52 613.99 204.54 613.91 204.56 613.84 204.58 613.81 204.59 613.72 204.64 613.66 204.67 613.57 204.69 613.51 204.7 613.45 204.71 613.41 204.72 613.3 204.78 613.2 204.84 613.12 204.89 613.05 204.93 612.94 204.98 612.84 205.02 612.74 205.03 612.62 205.04 612.5 205.04 612.38 205.05 612.3 205.05 612.24 205.12 612.18 205.18 612.12 205.22 612.1 205.23 612.07 205.24 612.04 205.25 612.02 205.25 612 205.25 611.97 205.27 611.94 205.29 611.91 205.32 611.88 205.35 611.86 205.37 611.84 205.4 611.82 205.44 611.81 205.48 611.79 205.53 611.78 205.57 611.77 205.61 611.76 205.64 611.75 205.65 611.73 205.68 611.71 205.7 611.68 205.71 611.64 205.72 611.61 205.73 611.58 205.75 611.55 205.76 611.48 205.79 611.44 205.82 611.4 205.83 611.36 205.85 611.31 205.86 611.27 205.87 611.23 205.88 611.2 205.89 611.17 205.9 611.13 205.91 611.11 205.92 611.09 205.93 611.07 205.94 611.06 205.96 611.04 205.99 611.03 206.02 611.01 206.09 610.99 206.14 610.98 206.18 610.96 206.21 610.95 206.25 610.95 206.27 610.95 206.33 610.94 206.39 610.94 206.44 610.94 206.5 610.94 206.53 610.94 206.57 610.93 206.61 610.91 206.65 610.9 206.68 610.89 206.71 610.89 206.72 610.89 206.76 610.88 206.78 610.86 206.82 610.83 206.86 610.8 206.89 610.77 206.92 610.76 206.93 610.74 206.94 610.72 206.94 610.67 206.95 610.62 206.94 610.54 206.94 610.51 206.93 610.47 206.93 610.32 206.91 610.25 206.9 610.21 206.9 610.17 206.89 610 206.88 609.94 206.87 609.92 206.87 609.81 206.85 609.74 206.85 609.73 206.85 609.71 206.85 609.69 206.86 609.68 206.87 609.65 206.88 609.62 206.9 609.58 206.91 609.55 206.91 609.51 206.92 609.46 206.91 609.42 206.91 609.38 206.91 609.35 206.91 609.32 206.92 609.29 206.92 609.24 206.94 609.18 206.95 609.13 206.97 609.07 206.98 609.03 206.99 609 206.99 608.97 206.99 608.93 206.98 608.87 206.96 608.84 206.94 608.82 206.94 608.73 206.96 608.71 206.96 608.68 206.96 608.66 206.96 608.58 206.97 608.54 206.97 608.35 206.99 608.28 207 608.28 207 608.17 207.01 608.09 207.02 607.99 206.96 607.84 206.88 607.7 206.8 607.61 206.76 607.54 206.72 607.46 206.68 607.38 206.65 607.29 206.62 607.16 206.57 607.04 206.54 606.9 206.49 606.76 206.44 606.68 206.41 606.59 206.32 606.48 206.21 606.39 206.12 606.29 206.03 606.21 205.95 606.14 205.89 606.09 205.86 605.98 205.8 605.87 205.74 605.76 205.67 605.64 205.59 605.52 205.5 605.46 205.46 605.36 205.39 605.27 205.32 605.15 205.23 605.04 205.15 604.92 205.07 604.84 205.01 604.79 204.99 604.68 204.97 604.55 204.94 604.44 204.92 604.33 204.9 604.25 204.88 604.23 204.88 604.16 204.88 604.06 204.87 603.99 204.87 603.91 204.88 603.81 204.88 603.74 204.88 603.73 204.88 603.67 204.89 603.6 204.89 603.54 204.89 603.53 204.89 603.46 204.89 603.36 204.9 603.28 204.9 603.24 204.89 603.23 204.89 603.19 204.88 603.15 204.86 603.02 204.83 602.86 204.78 602.72 204.75 602.57 204.7 602.48 204.67 602.42 204.66 602.39 204.65 602.36 204.65 602.32 204.64 602.26 204.62 602.13 204.6 602.04 204.58 601.93 204.55 601.85 204.54 601.75 204.52 601.72 204.51 601.63 204.5 601.56 204.48 601.42 204.46 601.35 204.44 601.33 204.44 601.24 204.42 601.15 204.39 600.98 204.34 600.82 204.29 600.68 204.24 600.54 204.2 600.53 204.19 600.46 204.17 600.44 204.16 600.43 204.16 600.41 204.15 600.35 204.14 600.29 204.12 600.28 204.09 600.28 204.07 600.27 204 600.26 203.93 600.26 203.92 600.25 203.89 600.23 203.79 600.28 203.66 600.32 203.53 600.43 203.24 600.53 202.96 600.59 202.78 600.6 202.76 600.64 202.59 600.66 202.45 600.71 202.17 600.79 201.77 600.81 201.7 600.87 201.42 600.92 201.11 600.93 201.1 600.93 201.09 600.97 200.77 600.98 200.75 601 200.56 601.01 200.44 601.05 200.21 601.06 200.14 601.06 200.1 601.07 200.04 601.09 199.97 601.11 199.89 601.15 199.79 601.16 199.73 601.24 199.48 601.32 199.19 601.39 198.95 601.46 198.74 601.49 198.62 601.51 198.54 601.54 198.46 601.58 198.36 601.63 198.24 601.73 198.01 601.84 197.75 601.93 197.52 601.94 197.51 602.09 197.16 602.1 197.13 602.17 196.96 602.21 196.83 602.27 196.62 602.34 196.41 602.35 196.39 602.4 196.23 602.45 196.05 602.47 195.98 602.49 195.9 602.54 195.74 602.6 195.57 602.65 195.42 602.69 195.27 602.74 195.12 602.76 195.04 602.77 195.01 602.78 194.98 602.78 194.97 602.78 194.94 602.79 194.87 602.79 194.86 602.79 194.81 602.79 194.75 602.8 194.65 602.81 194.53 602.82 194.41 602.82 194.23 602.84 194 602.84 193.88 602.85 193.83 602.85 193.79 602.86 193.68 602.86 193.53 602.87 193.46 602.87 193.42 602.87 193.41 602.87 193.35 602.86 193.23 602.85 193.21 602.84 193.06 602.82 192.81 602.8 192.6 602.79 192.48 602.78 192.28 602.74 191.79 602.7 191.32 602.68 191.05 602.64 190.6 602.63 190.47 602.61 190.21 602.6 189.99 602.57 189.61 602.54 189.31 602.52 189.06 602.51 188.92 602.51 188.89 602.52 188.85 602.55 188.63 602.58 188.4 602.6 188.24 602.62 188.11 602.63 188.01 602.65 187.87 602.66 187.69 602.66 187.55 602.67 187.14 602.68 186.89 602.68 186.8 602.68 186.52 602.68 186.41 603.01 185.93 603.28 185.53 603.25 185.44 603.15 185.13 603.03 184.76 602.99 184.64 602.94 184.49 602.93 184.45 602.93 184.43 602.94 184.41 602.94 184.39 603.06 184.01 603.18 183.63 603.29 183.3 603.24 183.09 603.23 183.03 603.23 183.02 603.21 182.94 603.19 182.82 603.18 182.76 603.17 182.7 603.17 182.67 603.14 182.56 603.12 182.46 603.08 182.28 603.05 182.12 603.05 182.1 603.03 182.02 602.92 181.79 602.82 181.57 602.72 181.39 602.59 181.1 602.57 181.05 602.56 181.02 602.49 180.81 602.37 180.47 602.37 180.46 602.28 180.2 602.26 180.17 602.16 179.93 602.13 179.85 602.09 179.74 602.03 179.59 602.03 179.56 602.02 179.38 601.99 178.97 601.97 178.47 601.94 178.11 602.07 178.01 602.48 177.7 602.86 177.41 603.2 177.16 603.54 176.9 603.56 176.89 603.58 176.87 603.66 176.82 603.76 176.69 603.81 176.63 603.85 176.59 603.87 176.57 603.9 176.53 604.02 176.39 604.02 176.38 604.14 176.25 604.25 176.14 604.26 176.13 604.3 176.08 604.34 176.04 604.56 175.81 604.67 175.69 605.06 175.28 605.21 175.1 605.33 174.83 605.35 174.78 605.47 174.51 605.5 174.43 605.51 174.37 605.51 174.35 605.51 174.32 605.51 174.31 605.5 174.29 605.49 174.24 605.49 174.23 605.48 174.2 605.48 174.13 605.47 174.05 605.47 174.03 605.47 173.96 605.47 173.86 605.53 173.81 605.61 173.74 605.67 173.69 605.73 173.63 605.82 173.54 605.9 173.47 605.97 173.42 606.05 173.35 606.15 173.26 606.38 173.07 606.5 172.97 606.61 172.88 606.72 172.78 606.9 172.62 606.95 172.57 607 172.5 607.05 172.45 607.08 172.41 607.2 172.28 607.28 172.21 607.35 172.16 607.45 172.07 607.48 172.04 607.5 172.02 607.57 171.97 607.62 171.92 607.64 171.91 607.67 171.89 607.75 171.85 607.81 171.81 607.96 171.71 608.04 171.65 608.1 171.58 608.14 171.55 608.15 171.54 608.16 171.53 608.22 171.52 608.27 171.52 608.3 171.5 608.31 171.49 608.33 171.47 608.34 171.44 608.36 171.41 608.38 171.39 608.46 171.31 608.52 171.27 608.54 171.24 608.55 171.21 608.57 171.15 608.58 171.13 608.59 171.11 608.61 171.09 608.63 171.08 608.71 171.03 608.85 170.97 608.94 170.92 609.01 170.9 609.14 170.86 609.3 170.82 609.45 170.77 609.52 170.76 609.6 170.74 609.65 170.73 609.69 170.73 609.73 170.73 609.78 170.73 609.85 170.73 609.91 170.74 610.07 170.76 610.14 170.76 610.18 170.76 610.32 170.73 610.42 170.7 610.48 170.69 610.53 170.69 610.61 170.66 610.68 170.65 610.71 170.64 610.74 170.65 610.76 170.65 610.83 170.67 610.95 170.7 611.03 170.71 611.07 170.7 611.12 170.68 611.25 170.65 611.35 170.61 611.41 170.6 611.42 170.59 611.44 170.59 611.49 170.61 611.53 170.61 611.61 170.62 611.68 170.61 611.76 170.59 611.84 170.56 611.94 170.52 612.06 170.47 612.14 170.43 612.17 170.41 612.2 170.38 612.22 170.37 612.23 170.36 612.27 170.33 612.34 170.29 612.36 170.28 612.4 170.26 612.45 170.24 612.49 170.22 612.64 170.18 612.69 170.16 612.83 170.12 613.01 170.07 613.06 170.05 613.17 170 613.27 169.97 613.31 169.95 613.39 169.94 613.52 169.91 613.59 169.9 613.64 169.89 613.78 169.86 614 169.84 614.14 169.82 614.28 169.79 614.32 169.79 614.33 169.78 614.34 169.78 614.46 169.77 614.6 169.75 614.75 169.73 614.91 169.71 615.1 169.69 615.24 169.67 615.34 169.66 615.38 169.64 615.5 169.62 615.6 169.61 615.81 169.58 615.94 169.57 616.06 169.56 616.18 169.54 616.28 169.51 616.35 169.5 616.44 169.48 616.53 169.47 616.7 169.45 616.82 169.44 616.96 169.42 617.1 169.4 617.22 169.38 617.39 169.35 617.51 169.32 617.68 169.28 617.81 169.26 617.94 169.23 618.11 169.2 618.2 169.19 618.29 169.19 618.38 169.2 618.42 169.2 618.43 169.2 618.47 169.2 618.55 169.21 618.64 169.2 618.69 169.19 618.72 169.18 618.82 169.14 618.89 169.11 618.91 169.09 618.95 169.06 618.98 169.02 619.01 168.98 619.04 168.95 619.08 168.92 619.11 168.9 619.13 168.89 619.2 168.87 619.28 168.86 619.38 168.87 619.49 168.87 619.61 168.89 619.71 168.89 619.77 168.89 619.83 168.89 619.94 168.87 619.98 168.86 620.03 168.84 620.05 168.83 620.1 168.77 620.15 168.73 620.18 168.7 620.21 168.69 620.22 168.68 620.29 168.67 620.41 168.64 620.47 168.62 620.5 168.6 620.54 168.56 620.55 168.54 620.56 168.54 620.59 168.51 620.62 168.48 620.65 168.46 620.68 168.46 620.75 168.46 620.82 168.46 620.85 168.46 620.87 168.44 620.91 168.42 620.97 168.37 621.02 168.35 621.04 168.34 621.08 168.34 621.13 168.36 621.2 168.4 621.22 168.41 621.28 168.45 621.35 168.47 621.42 168.47 621.49 168.46 621.52 168.45 621.66 168.42 621.81 168.39 621.9 168.38 622.01 168.35 622.08 168.33 622.13 168.31 622.15 168.31 622.17 168.31 622.18 168.32 622.2 168.33 622.22 168.34 622.24 168.36 622.3 168.37 622.33 168.37 622.35 168.37 622.42 168.39 622.45 168.39 622.46 168.39 622.48 168.39 622.5 168.39 622.57 168.4 622.65 168.4 622.73 168.4 622.77 168.4 622.85 168.4 622.94 168.41 622.99 168.41 623.1 168.41 623.15 168.41 623.18 168.42 623.25 168.42 623.26 168.42 623.33 168.43 623.38 168.43 623.39 168.43 623.4 168.43 623.44 168.43 623.45 168.43 623.46 168.43 623.48 168.44 623.5 168.44 623.51 168.44 623.53 168.44 623.54 168.44 623.55 168.44 623.54 168.47 623.51 168.58 623.48 168.68 623.46 168.75 623.43 168.86 623.42 168.91 623.41 168.94 623.4 168.97 623.38 169 623.36 169.02 623.33 169.05 623.3 169.06 623.29 169.07 623.24 169.09 623.22 169.1 623.15 169.13 623.12 169.14 623.06 169.17 622.99 169.21 622.9 169.24 622.86 169.26 622.85 169.27 622.81 169.29 622.78 169.3 622.75 169.33 622.72 169.36 622.69 169.4 622.67 169.44 622.65 169.5 622.63 169.57 622.63 169.59 622.6 169.67 622.57 169.73 622.53 169.81 622.5 169.84 622.47 169.9 622.44 169.96 622.43 169.98 622.38 170.08 622.36 170.11 622.31 170.21 622.3 170.23 622.28 170.26 622.25 170.29 622.2 170.32 622.08 170.37 621.97 170.41 621.83 170.46 621.8 170.47 621.76 170.5 621.7 170.54 621.61 170.61 621.54 170.68 621.45 170.77 621.43 170.79 621.31 170.91 621.28 170.94 621.21 171 621.18 171.02 621.15 171.04 621.11 171.06 621.1 171.07 621.09 171.1 621.08 171.13 621.08 171.15 621.09 171.19 621.12 171.24 621.12 171.27 621.13 171.29 621.12 171.3 621.11 171.33 621.09 171.35 621.08 171.36 621.05 171.38 621.01 171.4 620.95 171.42 620.93 171.42 620.9 171.43 620.84 171.45 620.76 171.47 620.75 171.48 620.68 171.5 620.63 171.53 620.6 171.55 620.59 171.56 620.49 171.64 620.44 171.69 620.35 171.8 620.31 171.86 620.28 171.91 620.25 171.94 620.25 171.95 620.18 172.02 620.11 172.1 620.09 172.12 620.02 172.21 619.99 172.25 619.97 172.28 619.97 172.3 619.97 172.31 619.97 172.32 619.99 172.37 620.01 172.43 620.02 172.46 620.04 172.55 620.03 172.62 620.02 172.66 620.02 172.68 620.01 172.7 619.99 172.72 619.97 172.75 619.93 172.78 619.89 172.8 619.84 172.82 619.83 172.83 619.72 172.88 619.64 172.93 619.56 172.98 619.45 173.06 619.44 173.06 619.37 173.11 619.32 173.16 619.26 173.21 619.23 173.24 619.2 173.27 619.2 173.28 619.17 173.32 619.14 173.37 619.12 173.44 619.11 173.49 619.1 173.55 619.08 173.67 619.08 173.78 619.08 173.86 619.07 173.89 619.06 173.91 619.05 173.93 619.02 173.95 618.97 173.97 618.9 173.99 618.88 173.99 618.81 173.99 618.75 174 618.67 173.99 618.56 173.99 618.49 173.99 618.42 174.01 618.37 174.02 618.36 174.02 618.33 174.03 618.3 174.04 618.26 174.06 618.25 174.06 618.24 174.07 618.22 174.08 618.2 174.09 618.18 174.11 618.17 174.14 618.16 174.19 618.16 174.28 618.15 174.33 618.14 174.35 618.12 174.42 618.1 174.46 618.09 174.48 618.04 174.57 618.01 174.6 617.99 174.64 617.98 174.66 617.98 174.69 617.98 174.72 617.98 174.74 617.99 174.8 618.01 174.87 618.02 174.91 618.02 174.92 618.02 174.95 618.01 174.98 617.99 175 617.93 175.04 617.87 175.09 617.82 175.12 617.81 175.13 617.72 175.2 617.66 175.25 617.64 175.27 617.63 175.28 617.6 175.3 617.53 175.36 617.52 175.36 617.42 175.43 617.37 175.45 617.36 175.45 617.26 175.49 617.22 175.5 617.19 175.52 617.17 175.54 617.16 175.56 617.15 175.58 617.15 175.6 617.17 175.63 617.21 175.69 617.24 175.76 617.25 175.79 617.26 175.84 617.25 175.89 617.24 175.94 617.21 176 617.17 176.08 617.12 176.14 617.07 176.19 616.99 176.24 616.93 176.28 616.9 176.3 616.89 176.31 616.88 176.32 616.87 176.34 616.85 176.37 616.82 176.44 616.78 176.52 616.77 176.53 616.75 176.57 616.72 176.63 616.72 176.65 616.69 176.7 616.67 176.77 616.65 176.8 616.63 176.86 616.6 176.92 616.6 176.93 616.58 176.98 616.57 177.01 616.56 177.04 616.55 177.07 616.54 177.08 616.54 177.09 616.53 177.12 616.53 177.15 616.52 177.19 616.5 177.29 616.5 177.35 616.49 177.37 616.49 177.38 616.48 177.39 616.47 177.39 616.46 177.4 616.43 177.41 616.41 177.41 616.37 177.39 616.37 177.38 616.31 177.34 616.27 177.32 616.22 177.31 616.19 177.32 616.15 177.32 616.12 177.34 616.09 177.37 616.06 177.39 616.03 177.42 616 177.46 615.97 177.51 615.95 177.53 615.93 177.58 615.92 177.59 615.89 177.65 615.87 177.7 615.85 177.77 615.85 177.77 615.83 177.82 615.81 177.85 615.79 177.91 615.77 177.94 615.73 178.01 615.72 178.02 615.66 178.13 615.65 178.15 615.6 178.24 615.58 178.27 615.53 178.34 615.48 178.42 615.46 178.45 615.45 178.47 615.42 178.51 615.41 178.51 615.37 178.55 615.34 178.57 615.33 178.59 615.28 178.63 615.26 178.64 615.23 178.66 615.21 178.69 615.21 178.71 615.21 178.73 615.22 178.75 615.26 178.79 615.33 178.85 615.39 178.9 615.42 178.94 615.43 178.96 615.43 179.01 615.42 179.05 615.41 179.1 615.36 179.18 615.3 179.27 615.28 179.3 615.21 179.39 615.2 179.4 615.19 179.42 615.11 179.52 615.04 179.63 615.04 179.64 615.01 179.69 614.98 179.76 614.91 179.89 614.9 179.9 614.87 179.98 614.86 180.01 614.87 180.03 614.87 180.04 614.87 180.06 614.89 180.12 614.89 180.13 614.91 180.19 614.93 180.29 614.93 180.34 614.93 180.37 614.92 180.4 614.91 180.43 614.89 180.46 614.85 180.49 614.82 180.51 614.76 180.53 614.74 180.53 614.73 180.53 614.68 180.54 614.67 180.55 614.66 180.56 614.65 180.58 614.64 180.61 614.64 180.67 614.64 180.75 614.65 180.81 614.65 180.86 614.66 180.89 614.68 181 614.71 181.13 614.73 181.26 614.74 181.29 614.74 181.32 614.73 181.37 614.72 181.4 614.69 181.43 614.67 181.46 614.63 181.49 614.58 181.51 614.57 181.52 614.55 181.52 614.52 181.54 614.47 181.56 614.43 181.58 614.4 181.6 614.38 181.62 614.36 181.66 614.34 181.7 614.33 181.73 614.32 181.78 614.33 181.83 614.33 181.86 614.33 181.9 614.33 181.91 614.33 181.93 614.32 181.95 614.29 181.98 614.26 182 614.2 182.03 614.18 182.03 614.12 182.07 614.09 182.09 614.07 182.11 614.06 182.14 614.04 182.17 614.04 182.19 614.03 182.22 614.03 182.25 614.03 182.29 614.03 182.3 614.03 182.34 614.03 182.38 614.03 182.39 614.03 182.42 614.03 182.44 614.04 182.46 614.06 182.54 614.09 182.64 614.11 182.72 614.12 182.74 614.11 182.76 614.1 182.79 614.09 182.81 613.99 182.87 613.93 182.91 613.92 182.92 613.9 182.94 613.88 182.96 613.86 182.98 613.85 183.01 613.84 183.07 613.83 183.17 613.83 183.2 613.82 183.22 613.82 183.24 613.81 183.25 613.81 183.26 613.79 183.28 613.77 183.28 613.75 183.28 613.72 183.27 613.67 183.24 613.66 183.24 613.65 183.24 613.63 183.24 613.62 183.26 613.62 183.28 613.62 183.3 613.62 183.35 613.62 183.41 613.62 183.45 613.61 183.5 613.61 183.54 613.61 183.6 613.61 183.63 613.61 183.67 613.61 183.7 613.62 183.75 613.63 183.77 613.65 183.8 613.71 183.86 613.77 183.91 613.79 183.94 613.81 183.97 613.82 184 613.83 184.04 613.83 184.1 613.82 184.21 613.8 184.31 613.77 184.42 613.74 184.53 613.72 184.67 613.7 184.83 613.69 184.98 613.68 185 613.67 185.02 613.64 185.04 613.61 185.05 613.58 185.05 613.55 185.06 613.53 185.07 613.51 185.1 613.5 185.12 613.49 185.14 613.5 185.18 613.52 185.25 613.53 185.25 613.54 185.28 613.54 185.29 613.54 185.3 613.54 185.33 613.53 185.35 613.52 185.38 613.45 185.43 613.36 185.48 613.35 185.5 613.33 185.51 613.31 185.54 613.3 185.56 613.3 185.59 613.31 185.65 613.31 185.67 613.31 185.69 613.3 185.72 613.29 185.76 613.28 185.78 613.23 185.87 613.13 186.03 613.11 186.04 613.1 186.07 613.07 186.1 613.05 186.13 613.03 186.15 612.99 186.2 612.98 186.22 612.96 186.24 612.94 186.26 612.91 186.3 612.9 186.31 612.87 186.35 612.84 186.38 612.83 186.4 612.83 186.43 612.83 186.46 612.84 186.54 612.85 186.58 612.85 186.6 612.86 186.67 612.86 186.73 612.84 186.78 612.81 186.86 612.78 186.93 612.77 186.99 612.76 187.02 612.76 187.05 612.77 187.08 612.8 187.14 612.84 187.21 612.88 187.25 612.89 187.29 612.89 187.33 612.88 187.37 612.85 187.42 612.82 187.47 612.79 187.5 612.74 187.53 612.7 187.56 612.64 187.59 612.61 187.62 612.58 187.66 612.57 187.67 612.56 187.69 612.55 187.72 612.54 187.75 612.54 187.76 612.54 187.78 612.57 187.82 612.64 187.86 612.7 187.9 612.78 187.94 612.86 188 612.92 188.04 612.95 188.06 612.98 188.08 613.07 188.11 613.21 188.16 613.36 188.21 613.49 188.26 613.57 188.29 613.68 188.32 613.77 188.34 613.87 188.36 613.96 188.37 614.06 188.37 614.14 188.38 614.15 188.38 614.16 188.38 614.17 188.38 614.19 188.38 614.21 188.39 614.25 188.39 614.31 188.39 614.35 188.39 614.38 188.39 614.4 188.39 614.42 188.39 614.43 188.39 614.44 188.39 614.46 188.39 614.48 188.38 614.58 188.37 614.72 188.37 614.83 188.36 614.94 188.37 615.04 188.37 615.14 188.39 615.25 188.42 615.31 188.45 615.36 188.48 615.39 188.51 615.4 188.53 615.41 188.57 615.43 188.6 615.44 188.62 615.46 188.63 615.49 188.64 615.54 188.65 615.63 188.62 615.8 188.56 615.88 188.55 615.92 188.54 615.95 188.55 615.99 188.57 616.03 188.6 616.11 188.65 616.17 188.68 616.19 188.69 616.22 188.72 616.26 188.78 616.33 188.86 616.37 188.89 616.38 188.92 616.39 188.96 616.4 189.01 616.41 189.04 616.42 189.07 616.45 189.1 616.49 189.15 616.52 189.17 616.54 189.23 616.56 189.3 616.57 189.42 616.6 189.49 616.62 189.54 616.63 189.58 616.65 189.61 616.7 189.67 616.74 189.74 616.79 189.78 616.84 189.81 616.9 189.83 616.95 189.83 617.01 189.82 617.1 189.78 617.18 189.73 617.25 189.69 617.32 189.66 617.36 189.65 617.39 189.65 617.44 189.66 617.48 189.68 617.54 189.74 617.61 189.8 617.68 189.86 617.73 189.89 617.76 189.9 617.84 189.9 617.92 189.9 617.95 189.91 617.97 189.92 618 189.95 618.03 189.97 618.06 189.97 618.11 189.97 618.24 189.96 618.34 189.93 618.48 189.89 618.63 189.85 618.74 189.82 618.78 189.82 618.81 189.82 618.85 189.82 618.89 189.83 618.92 189.85 618.98 189.91 619.03 189.98 619.1 190.11 619.14 190.2 619.17 190.27 619.18 190.29 619.21 190.31 619.24 190.33 619.32 190.36 619.39 190.4 619.44 190.43 619.47 190.45 619.51 190.48 619.55 190.54 619.59 190.58 619.63 190.63 619.67 190.66 619.71 190.69 619.74 190.7 619.78 190.71 619.81 190.71 619.93 190.7 619.97 190.69 620.02 190.7 620.07 190.71 620.16 190.74 620.23 190.78 620.31 190.84 620.42 190.94 620.52 191.05 620.58 191.1 620.63 191.14 620.66 191.17 620.68 191.19 620.7 191.22 620.73 191.28 620.74 191.29 620.76 191.31 620.8 191.35 620.84 191.39 620.88 191.42 620.96 191.47 621.04 191.52 621.11 191.58 621.17 191.63 621.21 191.67 621.26 191.72 621.29 191.78 621.33 191.83 621.37 191.89 621.41 191.94 621.44 191.97 621.48 192.02 621.51 192.05 621.53 192.07 621.6 192.12 621.61 192.13 621.65 192.16 621.7 192.18 621.75 192.2 621.83 192.22 621.88 192.23 621.95 192.25 622 192.27 622.09 192.29 622.13 192.32 622.17 192.35 622.24 192.4 622.31 192.49 622.38 192.57 622.46 192.68 622.53 192.75 622.56 192.79 622.62 192.84 622.69 192.9 622.77 192.95 622.81 192.97 622.87 192.99 622.92 193 622.98 193 623.05 193.01 623.12 193.01 623.18 193.01 623.26 193.01 623.32 193.01 623.4 193.01 623.45 193.01 623.5 193.03 623.55 193.03 623.61 193.05 623.73 193.08 623.77 193.1 623.8 193.12 623.82 193.14 623.85 193.16 623.87 193.18 623.88 193.21 623.89 193.23 623.92 193.29 623.98 193.41 624.02 193.5 624.06 193.61 624.1 193.7 624.1 193.73 624.16 193.86 624.16 193.87 624.22 194.02 624.28 194.16 624.34 194.3 624.38 194.4 624.38 194.41 624.41 194.48 624.48 194.65 624.52 194.77 624.54 194.81 624.57 194.86 624.62 194.93 624.66 194.99 624.7 195.04 624.73 195.07 624.78 195.1 624.81 195.12 624.85 195.14 624.89 195.16 624.92 195.18 624.96 195.21 624.98 195.24 625.02 195.28 625.06 195.32 625.13 195.39 625.19 195.45 625.25 195.53 625.26 195.55 625.28 195.57 625.37 195.67 625.44 195.78 625.48 195.87 625.53 195.99 625.61 196.16 625.68 196.32 625.71 196.38 625.76 196.48 625.81 196.59 625.82 196.63 625.82 196.65 625.81 196.69 625.79 196.91 625.75 197.26 Z"/>
</g></svg>