<svg xmlns="http://www.w3.org/2000/svg" version="1.2" baseProfile="tiny" stroke-linecap="round" stroke-linejoin="round" viewBox="669.83 66.9 12.88 19.5"><g xmlns="http://www.w3.org/2000/svg" id="Lukuze-Altzumarta">
<path d="M 676.13 68.9 676.49 68.96 676.6 69.3 676.66 69.22 676.72 69.14 676.76 69.12 676.82 69.09 676.9 69.07 676.94 69.05 676.97 69.02 677.06 68.92 677.15 68.82 677.26 68.74 677.31 68.71 677.38 68.68 677.79 68.57 677.84 68.56 677.84 68.55 677.85 68.55 677.88 68.53 677.91 68.49 677.99 68.36 677.65 68.05 677.94 67.49 678.43 67.92 678.56 67.74 678.59 67.7 678.59 67.66 678.59 67.6 678.58 67.43 678.59 67.33 678.61 67.28 678.63 67.23 678.71 67.12 678.86 66.93 678.99 67.12 679.2 67.07 679.3 67.17 679.35 67.15 679.39 67.03 679.47 67.07 679.42 67.33 679.3 67.88 679.21 68.1 679.45 68.19 679.66 68.36 679.74 68.53 679.7 68.66 679.64 68.68 679.34 68.56 679.14 68.52 678.97 68.37 678.78 68.42 678.72 68.48 678.66 68.6 678.7 68.98 679 68.92 679.21 69.03 679.9 69.15 680.17 69.65 680.15 69.7 680.05 69.76 679.83 69.87 679.98 70.03 680.12 70.01 680.17 69.99 680.37 69.76 680.71 69.6 680.81 69.61 681.12 69.64 681.35 70.05 681.27 70.14 681.25 70.33 681.2 70.48 681.43 70.75 681.46 70.89 681.52 70.97 681.39 71.15 681.63 71.32 681.65 71.27 681.66 71.25 681.68 71.19 681.69 71.18 681.7 71.16 681.7 71.15 681.71 71.13 681.71 71.11 681.73 71.09 681.74 71.08 681.74 71.07 681.76 71.06 681.77 71.04 681.78 71.02 681.79 71.01 681.79 71 681.81 70.97 681.85 70.95 681.86 70.97 681.89 70.98 681.91 70.99 681.93 70.99 681.96 70.98 682 70.97 682.04 70.96 682.08 70.97 682.17 71.02 682.25 71.07 682.3 71.11 682.39 71.2 682.47 71.28 682.5 71.32 682.53 71.35 682.53 71.37 682.53 71.39 682.52 71.43 682.51 71.48 682.47 71.6 682.44 71.7 682.41 71.78 682.37 71.86 682.34 71.93 682.3 72.03 682.26 72.11 682.25 72.14 682.48 72.16 682.53 72.26 682.52 72.57 682.6 73.24 682.62 73.41 682.61 73.43 682.6 73.46 682.59 73.51 682.58 73.54 682.57 73.58 682.55 73.63 682.54 73.67 682.53 73.71 682.53 73.75 682.53 73.83 682.54 73.89 682.54 73.98 682.54 74 682.55 74.02 682.56 74.04 682.57 74.06 682.57 74.08 682.58 74.11 682.57 74.14 682.58 74.14 682.59 74.15 682.61 74.19 682.63 74.26 682.63 74.3 682.64 74.36 682.64 74.4 682.65 74.46 682.66 74.52 682.67 74.56 682.67 74.62 682.66 74.73 682.64 74.93 682.65 75.03 682.65 75.1 682.68 75.33 682.69 75.35 682.7 75.37 682.53 75.51 682.15 75.64 681.81 76.35 681.08 76.32 681.14 76.55 681.14 77.07 680.49 77.16 680.37 76.87 680.14 76.64 680.03 76.48 679.76 76.5 679.71 76.26 679.61 76.27 679.53 76.29 679.48 76.31 679.44 76.3 679.58 76.57 679.49 76.62 679.49 76.65 679.5 76.68 679.51 76.72 679.51 76.76 679.52 76.79 679.52 76.82 679.52 76.86 679.52 76.9 679.52 76.94 679.53 77 679.53 77.01 679.53 77.02 679.54 77.03 679.55 77.04 679.55 77.04 679.57 77.04 679.59 77.05 679.65 77.07 679.69 77.08 679.74 77.1 679.76 77.11 679.76 77.12 679.77 77.14 679.77 77.16 679.78 77.19 679.78 77.22 679.79 77.26 679.79 77.27 679.79 77.29 679.79 77.31 679.79 77.34 679.79 77.37 679.79 77.39 679.79 77.4 679.79 77.42 679.79 77.42 679.79 77.44 679.79 77.46 679.79 77.48 679.8 77.5 679.8 77.53 679.81 77.57 679.83 77.63 679.85 77.67 679.86 77.71 679.87 77.73 679.88 77.75 679.88 77.78 679.89 77.8 679.89 77.83 679.89 77.85 679.89 77.87 679.89 77.89 679.88 77.9 679.87 77.92 679.86 77.93 679.86 77.94 679.85 77.95 679.85 77.96 679.85 77.96 679.85 77.98 679.86 77.99 679.87 78 679.87 78.01 679.87 78.02 679.87 78.03 679.86 78.04 679.85 78.05 679.84 78.06 679.83 78.08 679.83 78.09 679.83 78.11 679.82 78.12 679.81 78.13 679.81 78.13 679.79 78.14 679.78 78.16 679.77 78.17 679.76 78.18 679.75 78.2 679.74 78.2 679.73 78.21 679.72 78.21 679.71 78.21 679.7 78.23 679.7 78.27 679.7 78.29 679.7 78.31 679.69 78.33 679.7 78.35 679.7 78.36 679.71 78.39 679.71 78.43 679.71 78.44 679.69 78.5 679.68 78.56 679.68 78.61 679.68 78.66 679.68 78.72 679.68 78.76 679.69 78.8 679.72 78.91 679.73 78.92 679.74 78.94 679.75 78.96 679.76 78.98 679.76 79 679.76 79.01 679.77 79.03 679.79 79.04 679.8 79.05 679.8 79.05 679.81 79.06 679.81 79.07 679.81 79.08 679.81 79.09 679.81 79.1 679.82 79.11 679.84 79.12 679.85 79.14 679.85 79.15 679.86 79.17 679.86 79.18 679.86 79.2 679.92 79.32 679.98 79.5 679.99 79.54 680 79.69 680.01 79.73 680.01 79.78 680.02 79.83 680.02 79.86 680.02 79.93 680.03 79.97 680.02 80.01 680.02 80.06 680.02 80.09 680.01 80.11 680.01 80.14 679.99 80.18 679.99 80.2 679.97 80.22 679.83 80.52 679.77 80.9 679.61 81.26 679.64 81.57 679.57 81.92 679.27 82.63 679.27 82.67 679.26 82.71 679.24 82.75 679.22 82.77 679.21 82.78 679.2 82.78 679.19 82.87 679.11 83.03 679.05 83.28 679.01 83.53 679 83.97 679.02 84.16 679.04 84.26 679.12 84.67 679.21 84.99 679.23 85.03 679.24 85.05 679.27 85.07 679.36 85.1 679.4 85.11 679.51 85.17 679.65 85.28 679.8 85.42 679.94 85.61 679.98 85.71 679.99 85.77 680 85.87 680.42 85.87 680.54 85.89 680.81 85.93 680.85 86.12 680.83 86.13 680.82 86.14 680.81 86.15 680.8 86.17 680.79 86.19 680.78 86.21 680.76 86.23 680.75 86.25 680.73 86.27 680.72 86.29 680.7 86.31 680.68 86.34 680.67 86.35 680.66 86.36 680.64 86.38 680.63 86.38 680.61 86.39 680.58 86.39 680.56 86.39 680.53 86.38 680.48 86.37 680.45 86.36 680.4 86.34 680.29 86.32 680.21 86.31 680.17 86.3 680.11 86.27 680.07 86.25 680.04 86.23 680.02 86.22 679.99 86.22 679.88 86.22 679.81 86.22 679.76 86.22 679.69 86.22 679.65 86.22 679.53 86.22 679.47 86.22 679.43 86.21 679.39 86.21 679.35 86.2 679.29 86.19 679.21 86.18 679.06 86.15 679.02 86.14 679 86.13 678.93 86.1 678.72 86.03 678.65 86 678.55 85.96 678.48 85.93 678.47 85.91 678.41 85.77 678.4 85.75 678.36 85.7 678.35 85.68 678.33 85.67 678.3 85.65 678.28 85.64 678.23 85.63 678.19 85.61 678.17 85.6 678.14 85.58 678.11 85.55 678.07 85.52 678.05 85.49 678.04 85.46 678.02 85.43 678 85.39 677.99 85.36 677.98 85.33 677.97 85.3 677.96 85.27 677.95 85.25 677.93 85.2 677.91 85.14 677.89 85.11 677.88 85.09 677.86 85.03 677.82 84.97 677.73 84.76 677.73 84.76 677.71 84.77 677.7 84.77 677.66 84.77 677.6 84.76 677.57 84.75 677.54 84.74 677.51 84.73 677.47 84.72 677.43 84.69 677.39 84.67 677.37 84.65 677.35 84.63 677.31 84.6 677.28 84.58 677.24 84.56 677.21 84.54 677.18 84.52 677.14 84.51 677.09 84.5 677.07 84.49 677.03 84.48 677 84.48 676.98 84.47 676.96 84.45 676.93 84.44 676.9 84.42 676.87 84.41 676.84 84.38 676.82 84.37 676.77 84.34 676.75 84.33 676.71 84.3 676.68 84.28 676.66 84.27 676.64 84.27 676.62 84.26 676.6 84.25 676.55 84.24 676.53 84.24 676.5 84.23 676.46 84.23 676.43 84.24 676.4 84.24 676.35 84.24 676.31 84.23 676.28 84.22 676.26 84.22 676.23 84.21 676.2 84.2 676.14 84.18 676.11 84.18 676.07 84.17 675.92 84.16 675.89 84.17 675.86 84.18 675.72 84.28 675.69 84.3 675.67 84.32 675.65 84.35 675.63 84.37 675.62 84.39 675.61 84.41 675.43 84.36 674.79 84.2 674.75 84.25 674.61 84.45 674.45 84.71 674.34 85.1 674.19 85.29 674.01 85.44 673.22 85.74 673.04 85.4 672.97 85.4 672.83 85.46 672.84 85.59 672.25 85.8 671.89 85.89 671.82 85.79 671.8 85.76 671.72 85.36 671.66 85.36 671.37 85.7 671.01 85.53 670.62 85.27 670.49 85.21 670.28 85.52 670.21 85.55 669.98 85.45 669.93 85.42 669.89 85.4 669.86 85.38 669.87 85.35 669.92 85.21 669.98 85.06 670.01 84.98 670.09 84.79 670.15 84.64 670.19 84.53 670.2 84.49 670.2 84.43 670.22 84.38 670.24 84.34 670.26 84.29 670.28 84.24 670.31 84.18 670.32 84.14 670.34 84.1 670.37 84.06 670.44 84 670.58 83.91 670.71 83.84 670.84 83.78 670.96 83.73 671.09 83.68 671.19 83.65 671.28 83.64 671.37 83.64 671.45 83.63 671.47 83.63 671.51 83.63 671.58 83.62 671.6 83.62 671.63 83.62 671.69 83.6 671.75 83.57 671.88 83.51 671.91 83.5 671.94 83.48 672 83.45 672.07 83.39 672.1 83.37 672.15 83.35 672.23 83.31 672.31 83.27 672.35 83.26 672.4 83.24 672.42 83.23 672.45 83.21 672.48 83.18 672.54 83.17 672.6 83.15 672.65 83.16 672.7 83.17 672.76 83.19 672.81 83.22 672.87 83.27 672.94 83.29 673.02 83.32 673.07 83.34 673.12 83.37 673.16 83.4 673.21 83.43 673.26 83.44 673.33 83.45 673.37 83.46 673.42 83.46 673.48 83.46 673.61 83.45 673.63 83.45 673.66 83.45 673.68 83.44 673.69 83.43 673.69 83.4 673.71 83.27 673.72 83.26 673.74 83.25 673.77 83.21 673.77 83.19 673.76 83.16 673.72 83.06 673.7 83.01 673.67 82.96 673.63 82.9 673.59 82.82 673.55 82.74 673.51 82.68 673.49 82.64 673.46 82.62 673.45 82.57 673.44 82.48 673.44 82.35 673.42 82.21 673.42 82.12 673.43 82.06 673.43 81.99 673.42 81.89 673.41 81.82 673.39 81.75 673.38 81.64 673.36 81.58 673.34 81.52 673.3 81.43 673.28 81.37 673.26 81.32 673.25 81.28 673.25 81.25 673.25 81.21 673.27 81.17 673.28 81.13 673.3 81.09 673.3 81.05 673.3 81 673.29 80.95 673.28 80.89 673.27 80.84 673.25 80.79 673.23 80.73 673.22 80.69 673.2 80.68 673.18 80.67 673.17 80.66 673.15 80.64 673.13 80.59 673.13 80.55 673.13 80.5 673.14 80.43 673.16 80.32 673.19 80.22 673.21 80.17 673.24 80.12 673.26 80.09 673.29 80.05 673.31 80.02 673.32 80 673.35 79.98 673.39 79.96 673.4 79.95 673.41 79.93 673.42 79.9 673.44 79.88 673.47 79.84 673.49 79.79 673.52 79.77 673.55 79.75 673.57 79.71 673.59 79.69 673.62 79.67 673.66 79.66 673.68 79.64 673.7 79.62 673.71 79.59 673.71 79.55 673.71 79.53 673.72 79.51 673.74 79.5 673.76 79.5 673.77 79.49 673.79 79.48 673.81 79.48 673.84 79.47 673.87 79.46 673.91 79.44 673.95 79.41 673.98 79.38 674.02 79.33 674.06 79.28 674.1 79.22 674.13 79.17 674.15 79.13 674.17 79.09 674.19 79.07 674.22 79.05 674.23 79.02 674.25 78.99 674.28 78.95 674.32 78.93 674.36 78.91 674.39 78.91 674.42 78.88 674.46 78.84 674.53 78.76 674.58 78.71 674.63 78.65 674.67 78.59 674.69 78.57 674.64 78.49 674.65 78.47 674.68 78.41 674.68 78.4 674.7 78.34 674.71 78.3 674.75 78.19 674.78 78.1 674.8 78.02 674.83 77.93 674.94 77.96 674.94 77.96 674.96 77.95 674.98 77.94 675.01 77.93 675.03 77.93 675.05 77.92 675.07 77.92 675.07 77.91 675.09 77.9 675.1 77.89 675.1 77.87 675.1 77.86 675.1 77.84 675.1 77.82 675.11 77.82 675.11 77.79 675.12 77.78 675.13 77.76 675.15 77.74 675.17 77.72 675.19 77.7 675.21 77.69 675.22 77.68 675.23 77.67 675.26 77.66 675.28 77.66 675.3 77.66 675.32 77.65 675.34 77.64 675.35 77.64 675.37 77.62 675.38 77.61 675.38 77.6 675.39 77.58 675.4 77.56 675.41 77.55 675.43 77.54 675.44 77.52 675.45 77.51 675.46 77.49 675.47 77.48 675.49 77.45 675.51 77.44 675.52 77.43 675.53 77.41 675.55 77.38 675.56 77.36 675.57 77.35 675.58 77.33 675.6 77.29 675.62 77.26 675.64 77.24 675.65 77.21 675.66 77.19 675.68 77.16 675.7 77.14 675.71 77.12 675.73 77.1 675.74 77.08 675.75 77.07 675.75 77.05 675.75 77.03 675.74 77.01 675.74 77 675.74 76.99 675.75 76.97 675.76 76.95 675.77 76.94 675.79 76.92 675.8 76.91 675.81 76.9 675.82 76.88 675.83 76.87 675.84 76.86 675.85 76.84 675.85 76.83 675.85 76.8 675.84 76.8 675.83 76.78 675.82 76.77 675.81 76.75 675.8 76.75 675.79 76.74 675.77 76.74 675.76 76.75 675.75 76.75 675.74 76.74 675.73 76.72 675.72 76.71 675.71 76.69 675.7 76.67 675.68 76.66 675.67 76.64 675.66 76.63 675.66 76.61 675.65 76.6 675.64 76.59 675.62 76.57 675.6 76.55 675.59 76.53 675.57 76.52 675.55 76.51 675.41 76.5 675.37 76.49 675.34 76.48 675.31 76.47 675.29 76.45 675.27 76.44 675.26 76.43 675.22 76.4 675.21 76.39 675.57 76.32 675.58 76.3 675.72 76.06 675.67 76.03 675.65 76.02 675.64 76.01 675.63 75.99 675.61 75.95 675.57 75.77 675.56 75.73 675.56 75.68 675.56 75.64 675.58 75.57 675.61 75.47 675.62 75.41 675.66 75.3 675.67 75.26 675.69 75.22 675.69 75.21 675.69 75.19 675.69 75.16 675.68 75.13 675.66 75.09 675.66 75.08 675.66 75.07 675.66 75.04 675.66 74.99 675.67 74.96 675.68 74.94 675.71 74.9 675.72 74.88 675.74 74.85 675.75 74.81 675.78 74.73 675.8 74.68 675.82 74.64 675.82 74.63 675.84 74.62 675.87 74.6 675.92 74.59 675.96 74.56 676.09 74.43 676.16 74.2 676.26 74.04 676.35 73.95 676.55 73.85 676.68 73.84 676.77 73.83 676.82 73.53 676.33 73.39 676.72 72.9 676.64 72.82 676.48 72.81 676.42 72.85 676.3 72.98 676.25 73 676.14 72.9 676.06 72.85 675.95 72.73 675.92 72.6 675.87 72.6 675.72 72.68 675.48 72.62 675.49 72.57 675.5 72.53 675.52 72.5 675.53 72.48 675.56 72.45 675.57 72.43 675.59 72.41 675.62 72.39 675.66 72.37 675.68 72.36 675.7 72.34 675.72 72.33 675.74 72.32 675.76 72.32 675.78 72.3 675.78 72.29 675.78 72.27 675.77 72.25 675.76 72.24 675.75 72.22 675.74 72.2 675.74 72.18 675.75 72.16 675.76 72.14 675.77 72.13 675.78 72.1 675.79 72.08 675.79 72.05 675.78 72.03 675.77 72 675.75 71.96 675.73 71.93 675.72 71.91 675.7 71.89 675.68 71.88 675.66 71.88 675.64 71.87 675.63 71.86 675.61 71.84 675.61 71.82 675.6 71.8 675.6 71.77 675.6 71.71 675.6 71.67 675.6 71.62 675.6 71.58 675.6 71.55 675.6 71.52 675.61 71.49 675.63 71.48 675.65 71.46 675.67 71.44 675.68 71.43 675.71 71.41 675.72 71.4 675.75 71.38 675.76 71.36 675.78 71.34 675.79 71.32 675.8 71.29 675.81 71.26 675.81 71.25 675.81 71.21 675.81 71.17 675.82 71.11 675.82 71.07 675.83 71.04 675.84 71.01 675.85 70.98 675.86 70.96 675.87 70.93 675.89 70.9 675.89 70.88 675.9 70.85 675.91 70.81 675.92 70.78 675.92 70.75 675.92 70.72 675.92 70.71 675.92 70.69 675.92 70.66 675.91 70.64 675.9 70.62 675.88 70.6 675.86 70.59 675.85 70.58 675.85 70.56 675.85 70.54 675.86 70.52 675.87 70.51 675.88 70.49 675.89 70.47 675.9 70.46 675.92 70.43 675.92 70.41 675.93 70.39 675.93 70.37 675.93 70.34 675.92 70.32 675.9 70.3 675.88 70.27 675.87 70.26 675.85 70.24 675.83 70.23 675.78 70.22 675.73 70.21 675.71 70.21 675.68 70.22 675.75 70.17 675.7 70.16 675.66 70.16 675.64 70.16 675.63 70.16 675.6 70.17 675.56 70.17 675.52 70.18 675.48 70.2 675.63 69.93 675.96 69.74 675.55 69.24 675.47 69.26 675.5 68.78 676.13 68.9 Z"/>
</g></svg>