<svg xmlns="http://www.w3.org/2000/svg" version="1.2" baseProfile="tiny" stroke-linecap="round" stroke-linejoin="round" viewBox="594.55 79.75 22.08 22.32"><g xmlns="http://www.w3.org/2000/svg" id="Makea">
<path d="M 598.37 81.28 598.99 80.85 599.61 80.41 600.39 80.37 601.03 80.36 601.8 80.33 602.5 80.27 603.6 79.75 603.61 79.78 603.63 79.81 603.65 79.85 603.67 79.88 603.68 79.89 603.7 79.9 603.74 79.92 603.78 79.93 603.82 79.94 603.86 79.95 603.9 79.97 603.94 80 603.98 80.02 604.02 80.05 604.06 80.09 604.08 80.12 604.11 80.16 604.31 80.16 604.57 80.13 605 80.01 605.16 80 605.28 79.99 605.3 80 605.31 80.01 605.32 80.03 605.32 80.05 605.33 80.07 605.35 80.1 606.05 80.46 606.08 80.45 606.13 80.43 606.22 80.42 606.29 80.42 606.36 80.41 606.4 80.41 606.43 80.42 606.46 80.42 606.49 80.42 606.52 80.43 606.55 80.44 606.57 80.46 606.59 80.47 606.61 80.47 606.64 80.48 606.66 80.48 606.74 80.48 606.8 80.48 606.84 80.48 606.86 80.49 606.88 80.5 606.93 80.51 606.99 80.53 607.02 80.53 607.1 80.53 607.17 80.54 607.24 80.55 607.3 80.56 607.37 80.57 607.43 80.58 607.49 80.59 607.53 80.6 607.58 80.61 607.58 80.61 607.93 81.27 607.97 81.55 607.97 81.83 608.29 82.17 608.5 82.33 608.53 82.32 608.56 82.32 608.58 82.31 608.61 82.31 608.63 82.31 608.66 82.32 608.69 82.33 608.73 82.34 608.76 82.36 608.79 82.38 608.83 82.41 608.86 82.42 608.89 82.44 608.92 82.46 608.93 82.47 608.94 82.49 609.25 82.62 609.7 82.8 609.89 82.77 609.98 82.78 610.1 82.78 610.12 82.78 610.23 82.76 610.34 82.74 610.4 82.81 610.53 82.95 610.62 83.09 610.65 83.14 610.65 83.2 610.8 83.23 610.83 83.43 610.96 83.53 611.35 83.51 611.6 83.6 611.8 83.74 611.92 83.91 612.03 84.22 612.34 84.57 612.34 84.67 612.34 84.77 612.33 84.81 612.33 84.84 612.29 84.89 612.21 85.01 612.17 85.04 612.43 85.3 612.44 86.35 612.46 86.38 612.47 86.39 612.5 86.46 612.52 86.51 612.53 86.53 612.54 86.57 612.91 86.99 612.93 87.26 612.89 87.4 612.98 87.54 613.01 87.73 612.93 87.93 612.96 88.03 613.01 88.03 613.15 87.95 613.25 88.17 613.42 88.16 613.37 88.46 613.5 88.56 613.49 88.58 613.46 88.63 613.42 88.68 613.4 88.7 613.38 88.71 613.37 88.72 613.34 88.75 613.3 88.8 613.25 88.85 613.21 88.89 612.91 88.95 612.25 89.01 612.26 89.19 612.6 89.25 612.99 89.35 613.21 89.32 613.25 89.35 613.28 89.37 613.29 89.39 613.29 89.41 613.52 89.4 613.55 89.54 613.95 89.79 614.19 89.97 614.28 90.14 614.27 90.16 614.25 90.2 614.23 90.24 614.21 90.27 614.2 90.3 614.19 90.33 614.18 90.37 614.17 90.41 614.18 90.44 614.19 90.47 614.18 90.51 614.16 90.54 614.15 90.57 614.14 90.59 614.14 90.62 614.14 90.65 614.14 90.7 614.15 90.69 614.16 90.69 614.2 90.71 614.23 90.7 614.26 90.71 614.29 90.72 614.31 90.73 614.34 90.75 614.38 90.79 614.4 90.81 614.42 90.82 614.44 90.83 614.48 90.83 614.51 90.84 614.59 90.86 614.63 90.87 614.67 90.87 614.7 90.87 614.73 90.88 614.76 90.88 614.79 90.88 614.81 90.88 614.82 90.89 614.85 90.92 614.85 90.96 614.86 91.01 614.86 91.04 614.84 91.09 614.83 91.12 614.81 91.17 614.79 91.2 614.77 91.26 614.76 91.3 614.74 91.34 614.74 91.38 614.75 91.41 614.76 91.45 614.78 91.47 614.8 91.51 614.82 91.55 614.83 91.55 614.64 91.64 614.33 91.56 614.16 91.65 614.2 91.73 614.49 91.81 614.53 92.01 614.41 92.29 614.38 92.29 614.3 92.3 614.28 92.3 614.23 92.31 614.21 92.31 614.19 92.31 614.17 92.31 614.15 92.32 614.13 92.33 614.11 92.34 614.09 92.35 613.99 92.36 613.9 92.35 613.82 92.35 613.8 92.35 613.85 92.54 613.89 92.66 613.91 92.93 613.66 92.94 613.5 92.9 613.4 92.93 613.39 93.05 613.35 93.26 613.33 93.3 613.32 93.34 613.3 93.39 613.28 93.43 613.26 93.48 613.24 93.54 613.24 93.6 613.24 93.65 613.23 93.72 613.23 93.76 613.22 93.82 613.21 93.86 613.19 93.89 613.16 93.92 613.15 93.95 613.14 93.99 613.11 93.99 613.06 93.99 613.03 93.99 612.95 94.04 612.88 94.08 612.83 94.11 612.8 94.13 612.73 94.17 612.67 94.21 612.63 94.24 612.56 94.29 612.53 94.31 612.48 94.33 612.42 94.35 612.39 94.36 612.43 94.53 612.47 94.52 612.49 94.52 612.52 94.51 612.56 94.51 612.59 94.51 612.63 94.51 612.69 94.53 612.76 94.57 612.79 94.59 612.83 94.62 612.9 94.63 612.95 94.64 613 94.65 613.04 94.65 613.09 94.64 613.14 94.62 613.51 94.72 613.53 94.74 613.54 94.77 613.55 94.79 613.56 94.82 613.57 94.85 613.58 94.88 613.59 94.91 613.6 94.95 613.61 94.99 613.62 95.03 613.63 95.07 613.63 95.1 613.65 95.14 613.68 95.17 613.69 95.2 613.71 95.24 613.72 95.28 613.73 95.32 613.75 95.36 613.75 95.39 613.75 95.42 613.76 95.45 613.77 95.46 613.8 95.48 613.82 95.5 613.85 95.51 613.88 95.52 613.9 95.54 613.9 95.57 613.9 95.61 613.87 95.66 613.86 95.7 613.83 95.74 613.82 95.76 613.8 95.78 613.79 95.8 613.79 95.82 613.81 95.82 613.83 95.82 613.85 95.83 613.86 95.85 613.87 95.87 613.88 95.89 613.88 95.9 613.88 95.92 613.88 95.94 613.88 95.96 613.88 95.97 613.88 95.99 613.89 96.01 613.9 96.03 613.91 96.05 613.93 96.07 613.95 96.09 613.98 96.11 614 96.15 614.02 96.19 614.03 96.21 614.05 96.22 614.07 96.23 614.09 96.24 614.12 96.25 614.16 96.27 614.19 96.28 614.22 96.29 614.25 96.3 614.27 96.3 614.3 96.31 614.32 96.32 614.34 96.34 614.36 96.35 614.39 96.37 614.41 96.38 614.44 96.4 614.46 96.41 614.48 96.44 614.5 96.46 614.51 96.48 614.51 96.5 614.52 96.51 614.54 96.53 614.55 96.55 614.56 96.57 615.02 97.32 615.46 98.06 615.88 98.79 616.25 99.51 616.63 100.23 616.49 100.23 616.47 100.24 616.41 100.27 616.32 100.32 616.26 100.35 616.23 100.37 616.21 100.4 616.17 100.44 616.12 100.52 616.07 100.61 616.04 100.64 616 100.7 615.99 100.73 615.97 100.78 615.97 100.81 615.94 100.87 615.98 101.03 615.86 101.28 615.59 101.76 615.5 101.82 615.18 101.89 615.17 101.89 615.17 101.89 615.16 101.89 615.15 101.89 615.14 101.89 615.13 101.89 615.12 101.91 615.11 101.92 615.1 101.93 615.1 101.94 615.1 101.95 615.08 101.95 615.06 101.96 615.05 101.96 615.03 101.97 615.01 101.99 614.99 102.01 614.96 102.03 614.94 102.04 614.33 101.93 614.1 101.85 613.61 101.58 613.19 101.42 613.18 101.4 613.12 101.33 613.05 101.23 612.96 101.12 612.92 101.06 612.88 101.03 612.83 101.02 612.82 101.02 612.79 101.01 612.75 100.98 612.72 100.95 612.67 100.91 612.62 100.89 612.59 100.87 612.54 100.87 612.4 100.84 612.33 100.83 612.26 100.82 612.18 100.81 612.09 100.8 611.98 100.78 611.9 100.76 611.86 100.73 611.83 100.71 611.78 100.69 611.73 100.69 611.7 100.69 611.65 100.66 611.61 100.62 611.54 100.57 611.47 100.53 611.41 100.49 611.4 100.49 611.36 100.46 611.31 100.45 611.26 100.43 611.22 100.4 611.21 100.4 611.19 100.39 611.15 100.38 611.1 100.36 611.06 100.34 611.03 100.32 611 100.31 610.96 100.31 610.93 100.31 610.89 100.31 610.87 100.3 610.84 100.31 610.82 100.31 610.79 100.3 610.74 100.28 610.71 100.26 610.5 100.33 610.43 100.3 610.29 100.29 609.75 100.48 609.63 100.49 609.49 100.41 609.38 100.16 609.36 100.16 609.24 100.14 609.13 100.11 608.99 100.07 608.82 100.03 608.77 100.01 608.73 99.97 608.68 99.92 608.62 99.86 608.59 99.81 608.58 99.78 608.57 99.74 608.56 99.7 608.54 99.66 608.52 99.65 608.49 99.62 608.47 99.56 608.02 99.5 607.68 99.38 607.63 99.31 607.57 99.24 607.5 99.17 607.43 99.1 607.38 99.06 607.33 99.03 607.26 99 607.2 98.99 607.13 98.98 607.05 98.95 606.95 98.92 606.91 98.92 606.87 98.93 606.79 98.97 606.74 98.99 606.7 99.02 606.68 99.03 606.64 99.03 606.57 99.03 606.53 99.04 606.49 99.05 606.43 99.11 606.38 99.14 606.34 99.15 606.3 99.14 606.23 99.12 606.16 99.09 606.09 99.07 606.04 99.06 605.98 99.05 605.92 99.05 605.9 99.06 605.87 99.08 605.81 99.15 605.76 99.18 605.7 99.21 605.6 99.21 605.53 99.22 605.49 99.16 605.43 99.11 605.39 99.04 605.38 99.01 605.37 98.93 605.34 98.88 605.3 98.81 605.28 98.79 605.23 98.74 605.19 98.69 605.14 98.64 605.06 98.54 605.15 98.53 605.27 98.47 605.3 98.46 605.33 98.46 605.39 98.42 605.46 98.39 605.51 98.34 605.56 98.23 605.62 98.14 605.7 98.07 605.75 98.06 605.84 98.05 605.94 98.04 606.01 98.02 606.1 97.97 606.23 97.9 606.29 97.88 606.33 97.86 606.4 97.79 606.52 97.73 606.57 97.73 606.63 97.74 606.64 97.74 606.72 97.61 607.15 97.37 607.17 97.37 607.19 97.27 607.25 97.14 607.31 96.98 607.3 96.84 607.09 96.61 606.71 96.63 606.67 96.58 606.73 96.49 606.71 96.1 606.89 95.97 606.94 95.86 606.79 95.47 606.78 95.48 606.77 95.48 606.75 95.47 606.72 95.46 606.68 95.46 606.62 95.45 606.6 95.45 606.58 95.45 606.56 95.46 606.48 95.49 606.42 95.52 606.39 95.54 606.38 95.54 606.32 95.56 606.29 95.57 606.28 95.58 606.26 95.6 606.25 95.63 606.23 95.63 606.22 95.63 606.21 95.61 606.2 95.59 606.19 95.57 606.16 95.43 606.12 95.35 606.07 95.29 606.05 95.27 606.04 95.25 605.99 95.12 605.97 95.09 605.95 95.05 605.94 95.01 605.9 94.93 605.83 94.79 605.81 94.74 605.81 94.71 605.82 94.69 606.02 94.74 605.96 94.32 605.61 94.36 605.61 94.31 605.78 93.93 605.84 93.89 605.96 93.78 605.98 93.53 605.96 93.16 605.85 93.15 605.8 93.19 605.72 93.34 605.67 93.36 605.54 93.31 605.54 93.17 605.67 92.84 605.75 92.77 605.95 92.82 606.01 92.79 606.03 92.78 605.98 92.61 605.96 92.6 605.9 92.57 605.83 92.54 605.75 92.5 605.73 92.48 605.7 92.48 605.64 92.47 605.58 92.46 605.51 92.42 605.45 92.36 605.44 92.34 605.43 92.32 605.43 92.25 605.44 92.21 605.44 92.19 605.44 92.17 605.45 92.13 605.45 92.11 605.45 92.09 605.45 92.06 605.44 92.03 605.38 91.94 605.32 91.85 605.31 91.83 605.29 91.81 605.28 91.8 605.26 91.78 605.15 91.72 605.14 91.71 605.12 91.7 605.1 91.68 605.05 91.6 605 91.5 604.96 91.42 604.93 91.32 604.93 91.24 604.93 91.23 604.69 91.26 604.31 91.37 604.31 91.39 604.31 91.44 604.3 91.47 604.3 91.52 604.29 91.55 604.28 91.62 604.22 91.81 604.1 91.93 603.78 91.94 603.74 92.15 603.73 92.14 603.45 92.27 603.18 92.22 603.03 92.05 603.44 91.83 603.44 91.81 603.44 91.78 603.44 91.76 603.43 91.73 603.4 91.7 603.38 91.68 603.34 91.67 603.32 91.66 603.25 91.64 603.01 91.7 602.84 91.53 602.79 91.54 602.68 91.72 602.45 91.45 602.26 91.68 602.23 91.67 602.22 91.67 602.21 91.67 602.2 91.69 602.06 91.98 601.74 91.81 601.71 91.8 601.7 91.79 601.68 91.78 601.65 91.79 601.63 91.8 601.59 91.79 601.57 91.77 601.55 91.74 601.55 91.72 601.54 91.71 601.52 91.7 601.48 91.73 601.45 91.76 601.4 91.79 601.38 91.8 601.36 91.82 601.34 91.85 601.32 91.88 601.3 91.89 601.28 91.9 601.27 91.91 601.25 91.94 601.24 91.97 601.23 92 601.21 92.02 601.18 92.03 601.16 92.05 601.15 92.09 601.13 92.14 601.1 92.15 601.06 92.15 601.64 92.66 601.59 92.68 601.5 92.7 601.37 92.71 601.16 92.72 601.09 92.67 600.95 92.6 600.83 92.56 600.71 92.54 600.57 92.52 600.26 92.36 600.12 92.35 600.06 92.32 600 92.26 599.98 92.24 599.95 92.21 599.9 92.2 599.84 92.19 599.79 92.18 599.76 92.17 599.73 92.17 599.7 92.14 599.98 91.68 599.75 91.63 599.7 91.6 599.63 91.42 599.61 91.3 599.67 91.19 599.68 91.09 599.64 90.99 599.62 90.56 599.66 90.4 599.58 90.35 599.05 90.2 599.05 90.16 599.05 90.1 599.05 90.04 599.06 89.99 599.08 89.93 599.11 89.86 599.11 89.83 599.11 89.81 599.11 89.78 599.08 89.71 599.07 89.65 599.07 89.62 599.07 89.58 599.06 89.55 599.05 89.51 599.04 89.49 599.04 89.48 599 89.44 598.97 89.41 598.93 89.37 598.9 89.34 598.85 89.31 598.77 89.27 598.66 88.62 598.49 88.47 598.09 88.54 598.08 88.51 598.08 88.45 598.08 88.4 598.08 88.35 598.08 88.27 598.08 88.23 598.08 88.17 598.06 88.1 598.04 88.02 598.01 87.94 598.01 87.94 597.81 87.99 597.68 87.86 597.5 87.87 597.4 87.94 597.16 87.97 597.15 87.9 597.14 87.83 597.38 87.65 597.38 87.61 597.09 87.51 596.93 87.71 596.73 87.79 596.73 87.85 596.81 87.96 596.78 88.04 596.36 88.38 596.28 88.49 595.95 88.79 595.91 88.78 595.6 88.4 595.58 88.31 595.85 88.08 595.81 88.05 595.5 87.64 595.29 87.62 595.26 87.43 595.39 87.27 595.27 86.98 594.8 87.09 594.59 87.07 594.57 87.04 594.84 86.13 595.19 85.8 595.18 85.64 594.91 84.78 594.96 84.72 595.6 84.17 595.78 83.89 595.82 83.88 595.9 83.86 595.93 83.85 595.96 83.83 596.11 83.66 596.19 83.59 597.26 82.46 597.56 82.22 598.18 81.44 598.37 81.28 Z"/>
</g></svg>