<svg xmlns="http://www.w3.org/2000/svg" version="1.2" baseProfile="tiny" stroke-linecap="round" stroke-linejoin="round" viewBox="281.75 361.35 14.02 17.38"><g xmlns="http://www.w3.org/2000/svg" id="Marañón">
<path d="M 281.77 367.89 281.78 367.87 281.8 367.86 281.84 367.85 281.88 367.83 281.91 367.81 281.94 367.78 281.98 367.73 282 367.7 282.02 367.67 282.04 367.65 282.07 367.63 282.09 367.61 282.11 367.58 282.13 367.52 282.14 367.49 282.16 367.46 282.19 367.41 282.23 367.35 282.27 367.29 282.29 367.26 282.31 367.22 282.32 367.19 282.34 367.16 282.35 367.11 282.36 367.08 282.36 367.05 282.36 367.01 282.36 366.98 282.36 366.96 282.36 366.94 282.37 366.92 282.42 366.86 282.45 366.82 282.46 366.8 282.48 366.77 282.5 366.73 282.52 366.66 282.53 366.6 282.53 366.56 282.54 366.5 282.53 366.47 282.52 366.42 282.52 366.4 282.51 366.37 282.51 366.35 282.51 366.3 282.52 366.26 282.54 366.19 282.56 366.14 282.55 366.12 282.54 366.1 282.52 366.07 282.5 366.04 282.49 366.02 282.47 366 282.47 365.97 282.47 365.94 282.47 365.91 282.48 365.87 282.48 365.84 282.48 365.82 282.47 365.8 282.46 365.77 282.45 365.73 282.44 365.7 282.45 365.67 282.46 365.63 282.47 365.6 282.49 365.56 282.52 365.5 282.53 365.47 282.54 365.45 282.54 365.43 282.54 365.4 282.54 365.36 282.56 365.33 282.58 365.29 282.61 365.24 282.63 365.21 282.65 365.16 282.66 365.12 282.67 365.09 282.69 365.06 282.72 365.03 282.74 365.02 282.77 364.98 282.8 364.96 282.84 364.92 282.87 364.9 282.91 364.88 282.93 364.87 282.96 364.85 282.99 364.85 283.05 364.84 283.11 364.83 283.13 364.82 283.17 364.8 283.23 364.78 283.27 364.75 283.31 364.71 283.34 364.68 283.38 364.62 283.41 364.6 283.43 364.59 283.47 364.59 283.5 364.59 283.53 364.6 283.56 364.62 283.6 364.64 283.62 364.65 283.65 364.66 283.69 364.66 283.73 364.65 283.77 364.64 283.81 364.65 283.84 364.65 283.88 364.68 283.92 364.71 283.97 364.75 284.02 364.79 284.06 364.83 284.08 364.85 284.1 364.84 284.15 364.82 284.19 364.81 284.22 364.8 284.26 364.78 284.36 364.75 284.4 364.71 284.46 364.65 284.53 364.57 284.58 364.51 284.59 364.49 284.64 364.44 284.7 364.36 284.73 364.33 284.75 364.31 284.79 364.26 284.82 364.22 284.85 364.13 284.88 364.05 284.91 363.96 284.93 363.89 284.95 363.81 284.99 363.72 285.01 363.63 285.03 363.56 285.05 363.5 285.06 363.47 285.08 363.4 285.1 363.36 285.12 363.29 285.13 363.26 285.21 363.19 285.29 363.12 285.37 363.06 285.5 362.95 285.57 362.88 285.61 362.83 285.65 362.77 285.7 362.71 285.81 362.58 285.85 362.53 285.9 362.46 285.95 362.41 286 362.34 286.06 362.22 286.11 362.13 286.13 362.08 286.14 362.06 286.17 362 286.23 361.88 286.27 361.8 286.3 361.75 286.31 361.73 286.32 361.72 286.32 361.7 286.35 361.7 286.39 361.69 286.45 361.68 286.53 361.68 286.6 361.66 286.75 361.65 286.84 361.64 286.91 361.63 286.93 361.62 286.99 361.62 287.07 361.61 287.21 361.59 287.29 361.58 287.3 361.58 287.35 361.57 287.46 361.56 287.53 361.55 287.61 361.54 287.76 361.52 287.9 361.5 287.98 361.5 288.07 361.48 288.21 361.47 288.34 361.45 288.44 361.44 288.59 361.42 288.68 361.41 288.83 361.4 288.94 361.38 289.06 361.37 289.09 361.36 289.15 361.36 289.19 361.35 289.2 361.36 289.28 361.4 289.35 361.43 289.48 361.5 289.57 361.55 289.7 361.62 289.78 361.67 289.91 361.73 289.98 361.77 290.11 361.84 290.18 361.87 290.37 361.98 290.49 362.04 290.56 362.07 290.69 362.14 290.77 362.19 290.89 362.25 290.97 362.29 291.1 362.35 291.17 362.4 291.3 362.46 291.33 362.48 291.39 362.5 291.45 362.53 291.49 362.55 291.53 362.57 291.59 362.6 291.63 362.62 291.65 362.63 291.68 362.64 291.69 362.64 291.7 362.64 291.71 362.65 291.72 362.67 291.76 362.71 291.79 362.73 291.77 362.75 291.76 362.76 291.74 362.78 291.73 362.79 291.72 362.82 291.71 362.85 291.7 362.87 291.7 362.88 291.71 362.92 291.73 362.96 291.75 362.99 291.78 363.03 291.8 363.04 291.83 363.07 291.86 363.09 291.89 363.1 291.91 363.11 291.93 363.12 291.95 363.14 291.97 363.17 291.99 363.2 292.01 363.22 292.03 363.24 292.03 363.26 292.04 363.28 292.05 363.29 292.07 363.31 292.09 363.32 292.09 363.34 292.1 363.35 292.09 363.37 292.1 363.39 292.1 363.42 292.11 363.43 292.13 363.45 292.14 363.46 292.17 363.47 292.21 363.5 292.23 363.52 292.25 363.54 292.26 363.56 292.28 363.57 292.32 363.57 292.35 363.58 292.38 363.58 292.41 363.59 292.44 363.61 292.46 363.63 292.46 363.65 292.47 363.67 292.47 363.7 292.48 363.72 292.49 363.75 292.51 363.77 292.51 363.79 292.5 363.82 292.5 363.85 292.48 363.88 292.45 363.91 292.44 363.94 292.44 363.96 292.44 363.98 292.45 364.01 292.46 364.03 292.46 364.05 292.47 364.08 292.48 364.11 292.49 364.15 292.49 364.18 292.48 364.19 292.48 364.22 292.47 364.24 292.47 364.26 292.48 364.28 292.49 364.3 292.51 364.31 292.52 364.33 292.53 364.37 292.55 364.41 292.56 364.44 292.55 364.46 292.55 364.48 292.55 364.5 292.57 364.52 292.59 364.54 292.6 364.57 292.6 364.59 292.6 364.61 292.59 364.64 292.57 364.65 292.55 364.66 292.54 364.67 292.53 364.69 292.52 364.71 292.52 364.76 292.52 364.8 292.51 364.82 292.49 364.84 292.46 364.87 292.45 364.9 292.44 364.92 292.45 364.96 292.45 365.01 292.45 365.04 292.46 365.06 292.47 365.09 292.48 365.11 292.49 365.13 292.5 365.19 292.51 365.21 292.52 365.24 292.53 365.27 292.53 365.3 292.53 365.33 292.53 365.36 292.52 365.39 292.52 365.42 292.53 365.44 292.54 365.47 292.54 365.49 292.53 365.52 292.52 365.55 292.5 365.58 292.49 365.61 292.48 365.63 292.48 365.67 292.47 365.71 292.48 365.75 292.48 365.77 292.49 365.82 292.51 365.87 292.53 365.91 292.54 365.93 292.54 365.98 292.54 366.03 292.54 366.08 292.55 366.14 292.55 366.21 292.55 366.26 292.55 366.29 292.57 366.32 292.59 366.36 292.61 366.38 292.62 366.4 292.63 366.44 292.64 366.47 292.64 366.51 292.65 366.55 292.66 366.57 292.67 366.61 292.69 366.63 292.7 366.68 292.7 366.72 292.69 366.77 292.7 366.83 292.69 366.87 292.67 366.91 292.66 366.95 292.65 366.98 292.65 367.01 292.64 367.05 292.64 367.1 292.62 367.18 292.62 367.22 292.61 367.26 292.62 367.29 292.63 367.32 292.64 367.34 292.64 367.38 292.64 367.41 292.65 367.45 292.66 367.48 292.66 367.5 292.66 367.53 292.66 367.55 292.68 367.56 292.69 367.58 292.71 367.62 292.7 367.64 292.68 367.68 292.67 367.74 292.66 367.78 292.65 367.79 292.65 367.82 292.66 367.86 292.67 367.9 292.67 367.95 292.68 367.99 292.68 368.05 292.68 368.09 292.67 368.12 292.67 368.17 292.66 368.22 292.64 368.28 292.61 368.34 292.6 368.39 292.58 368.43 292.58 368.45 292.57 368.47 292.58 368.5 292.59 368.52 292.61 368.53 292.64 368.55 292.67 368.57 292.71 368.6 292.72 368.61 292.75 368.62 292.81 368.64 292.83 368.65 292.88 368.67 292.94 368.69 293 368.71 293.07 368.72 293.13 368.71 293.18 368.71 293.23 368.7 293.28 368.69 293.31 368.68 293.34 368.66 293.37 368.66 293.38 368.65 293.42 368.64 293.46 368.63 293.51 368.63 293.55 368.65 293.56 368.65 293.6 368.66 293.61 368.66 293.64 368.68 293.7 368.7 293.76 368.72 293.81 368.75 293.88 368.77 293.95 368.81 294 368.83 294.05 368.85 294.09 368.86 294.13 368.87 294.15 368.87 294.19 368.87 294.27 368.88 294.32 368.89 294.36 368.89 294.42 368.9 294.47 368.91 294.51 368.91 294.53 368.92 294.59 368.93 294.64 368.94 294.69 368.95 294.7 368.96 294.75 368.97 294.8 368.99 294.87 369.01 294.94 369.03 295.01 369.05 295.06 369.07 295.11 369.1 295.15 369.12 295.19 369.13 295.19 369.14 295.23 369.16 295.25 369.17 295.29 369.21 295.32 369.23 295.21 369.39 295.21 369.4 295.2 369.41 295.13 369.53 295.08 369.61 294.97 369.79 294.97 369.8 294.89 369.95 294.74 370.21 294.72 370.23 294.54 370.47 294.54 370.48 294.52 370.5 294.47 370.57 294.46 370.58 294.37 370.71 294.35 370.72 294.23 370.89 294.22 370.9 294.21 370.92 293.98 371.22 294.43 371.61 294.54 371.64 294.67 371.74 294.69 371.76 294.88 371.91 295.02 371.98 295.42 372.15 295.44 372.16 295.76 372.75 295.7 372.83 295.67 372.87 295.63 372.91 295.62 372.92 295.59 372.97 295.54 373.04 295.51 373.08 295.47 373.14 295.38 373.26 295.37 373.28 295.34 373.31 295.26 373.4 295.19 373.45 295.15 373.48 295.13 373.5 295.11 373.52 295.15 373.82 295.15 373.85 295.15 373.89 295.16 373.92 295.17 373.98 295.17 374.04 295.17 374.07 295.17 374.13 295.18 374.21 295.18 374.27 295.19 374.35 295.19 374.39 295.18 374.44 295.18 374.51 295.18 374.58 295.17 374.62 295.17 374.67 295.16 374.71 295.14 374.81 295.13 374.86 295.12 374.9 295.11 374.94 295.09 374.96 295.09 374.98 295.08 374.99 295.06 375.01 295.06 375.02 295.04 375.04 295.03 375.06 295.01 375.07 294.98 375.07 294.93 375.08 294.9 375.08 294.85 375.09 294.78 375.11 294.72 375.12 294.65 375.14 294.61 375.15 294.57 375.16 294.53 375.19 294.48 375.24 294.42 375.29 294.31 375.38 294.25 375.42 294.2 375.47 294.18 375.48 294.15 375.52 294.1 375.57 294.05 375.62 294 375.67 293.94 375.73 293.91 375.78 293.88 375.82 293.86 375.85 293.85 375.88 293.83 375.92 293.83 375.96 293.82 375.98 293.81 376 293.8 376.04 293.78 376.08 293.76 376.12 293.72 376.16 293.66 376.22 293.61 376.27 293.59 376.29 293.58 376.32 293.55 376.39 293.53 376.43 293.52 376.45 293.49 376.51 293.46 376.57 293.44 376.59 293.41 376.62 293.39 376.65 293.37 376.7 293.35 376.75 293.34 376.79 293.32 376.84 293.29 376.91 293.28 376.94 293.27 376.99 293.26 377.05 293.24 377.13 293.23 377.18 293.22 377.21 293.22 377.24 293.22 377.26 293.18 377.32 293.15 377.39 293.14 377.42 293.12 377.45 293.11 377.5 293.09 377.59 293.08 377.63 293.08 377.67 293.08 377.72 293.08 377.78 293.07 377.81 293.06 377.88 293.05 377.9 293.05 377.91 293.04 377.95 293.04 377.99 293.04 378.03 293.04 378.07 293.04 378.09 293.03 378.11 293.02 378.14 293 378.17 292.97 378.2 292.93 378.24 292.89 378.26 292.87 378.29 292.84 378.33 292.81 378.37 292.8 378.39 292.79 378.41 292.73 378.47 292.71 378.51 292.69 378.53 292.65 378.57 292.6 378.61 292.56 378.64 292.52 378.66 292.48 378.68 292.48 378.69 292.46 378.7 292.45 378.65 292.45 378.6 292.44 378.55 292.44 378.52 292.43 378.49 292.43 378.45 292.43 378.4 292.44 378.35 292.45 378.32 292.45 378.27 292.44 378.21 292.45 378.17 292.45 378.13 292.44 378.1 292.43 378.03 292.41 377.99 292.39 377.96 292.37 377.92 292.35 377.85 292.33 377.81 292.33 377.78 292.33 377.73 292.34 377.69 292.34 377.66 292.33 377.58 292.33 377.54 292.33 377.5 292.33 377.45 292.34 377.41 292.34 377.39 292.35 377.33 292.35 377.25 292.34 377.2 292.34 377.16 292.32 377.08 292.31 377.03 292.3 376.99 292.3 376.95 292.3 376.92 292.31 376.88 292.32 376.84 292.34 376.81 292.36 376.77 292.38 376.72 292.41 376.67 292.43 376.63 292.44 376.6 292.43 376.58 292.41 376.54 292.4 376.49 292.39 376.46 292.38 376.4 292.37 376.35 292.38 376.3 292.38 376.28 292.37 376.25 292.36 376.2 292.34 376.16 292.32 376.13 292.31 376.11 292.28 376.07 292.24 376.02 292.21 375.97 292.2 375.94 292.17 375.86 292.15 375.82 292.12 375.77 292.11 375.74 292.08 375.69 292.05 375.64 292.02 375.58 292.01 375.54 291.99 375.49 291.95 375.42 291.93 375.36 291.92 375.34 291.89 375.27 291.86 375.19 291.86 375.16 291.87 375.14 291.88 375.09 291.89 375.05 291.9 375.02 291.91 374.99 291.91 374.98 291.9 374.96 291.87 374.94 291.82 374.89 291.8 374.85 291.78 374.81 291.77 374.76 291.76 374.71 291.75 374.66 291.74 374.62 291.73 374.6 291.71 374.57 291.69 374.55 291.65 374.49 291.65 374.46 291.65 374.42 291.66 374.39 291.66 374.36 291.65 374.33 291.63 374.3 291.63 374.27 291.63 374.25 291.63 374.24 291.63 374.19 291.63 374.16 291.63 374.13 291.62 374.08 291.61 374.06 291.61 374.04 291.61 374 291.61 373.97 291.61 373.94 291.61 373.91 291.62 373.89 291.62 373.85 291.63 373.79 291.63 373.75 291.62 373.7 291.62 373.66 291.62 373.63 291.62 373.61 291.6 373.58 291.59 373.55 291.59 373.51 291.59 373.47 291.59 373.45 291.58 373.43 291.57 373.38 291.56 373.35 291.56 373.31 291.55 373.25 291.55 373.21 291.54 373.18 291.53 373.16 291.53 373.08 291.52 373.06 291.5 373.03 291.48 373 291.46 372.97 291.44 372.94 291.44 372.91 291.43 372.88 291.42 372.86 291.39 372.83 291.37 372.8 291.35 372.77 291.3 372.72 291.26 372.67 291.2 372.61 291.21 372.58 291.21 372.55 291.22 372.47 291.22 372.39 291.23 372.32 291.24 372.21 291.25 372.07 291.26 371.99 291.27 371.93 291.28 371.84 291.28 371.76 291.3 371.62 291.3 371.55 291.3 371.54 291.31 371.51 291.31 371.48 291.32 371.39 291.32 371.38 291.34 371.37 291.36 371.37 291.46 371.39 291.54 371.39 291.63 371.4 291.69 371.4 291.71 371.4 291.75 371.4 291.8 371.39 291.84 371.38 291.85 371.37 291.94 371.35 292.04 371.32 292.07 371.32 292.1 371.33 292.17 371.37 292.19 371.38 292.2 371.38 292.24 371.4 292.27 371.42 292.32 371.42 292.37 371.39 292.38 371.39 292.39 371.38 292.41 371.38 292.42 371.37 292.44 371.36 292.47 371.35 292.51 371.33 292.46 371.27 292.38 371.18 292.35 371.15 292.3 371.09 292.2 370.99 292.17 370.95 292.14 370.92 292.12 370.9 292.02 370.8 291.96 370.73 291.89 370.65 291.84 370.6 291.82 370.56 291.76 370.44 291.72 370.35 291.66 370.22 291.62 370.15 291.56 370.02 291.52 369.93 291.46 369.8 291.43 369.71 291.41 369.64 291.39 369.55 291.37 369.49 291.37 369.42 291.35 369.33 291.33 369.3 291.32 369.25 291.31 369.2 291.29 369.17 291.27 369.16 291.24 369.17 291.21 369.18 291.19 369.19 291.15 369.23 291.08 369.29 291.03 369.34 290.98 369.38 290.9 369.45 290.86 369.48 290.84 369.5 290.82 369.51 290.77 369.56 290.75 369.58 290.69 369.63 290.65 369.68 290.63 369.74 290.61 369.79 290.6 369.85 290.59 369.89 290.57 369.93 290.56 369.95 290.52 370.02 290.48 370.08 290.43 370.14 290.4 370.21 290.36 370.27 290.32 370.34 290.27 370.45 290.23 370.54 290.2 370.6 290.17 370.64 290.16 370.61 290.16 370.58 290.16 370.54 290.16 370.49 290.17 370.43 290.19 370.34 290.2 370.27 290.21 370.21 290.22 370.16 290.23 370.1 290.23 370.07 290.23 370.05 290.23 370.02 290.25 369.95 290.27 369.91 290.29 369.88 290.33 369.82 290.37 369.78 290.38 369.74 290.39 369.71 290.39 369.68 290.38 369.66 290.36 369.63 290.36 369.62 290.34 369.6 290.34 369.57 290.34 369.54 290.35 369.51 290.36 369.49 290.32 369.44 290.28 369.4 290.24 369.36 290.21 369.33 290.18 369.31 290.12 369.29 290.01 369.25 289.95 369.22 289.93 369.2 289.89 369.16 289.82 369.1 289.77 369.06 289.65 368.96 289.58 368.9 289.5 368.89 289.44 368.87 289.36 368.86 289.21 368.84 289.14 368.82 289.08 368.81 289.06 368.81 289.01 368.8 288.99 368.8 288.91 368.78 288.82 368.77 288.75 368.76 288.66 368.74 288.6 368.73 288.53 368.72 288.45 368.7 288.39 368.68 288.31 368.65 288.24 368.63 288.11 368.57 288 368.53 287.9 368.49 287.82 368.46 287.76 368.44 287.68 368.42 287.61 368.41 287.54 368.39 287.47 368.38 287.4 368.36 287.32 368.35 287.24 368.34 287.17 368.32 287.07 368.3 287.01 368.29 286.94 368.29 286.84 368.27 286.77 368.26 286.71 368.26 286.66 368.26 286.59 368.26 286.54 368.26 286.51 368.26 286.45 368.25 286.36 368.25 286.3 368.24 286.28 368.24 286.22 368.23 286.13 368.23 286.06 368.23 286 368.22 285.91 368.22 285.86 368.22 285.8 368.21 285.77 368.21 285.7 368.22 285.63 368.22 285.56 368.21 285.52 368.21 285.45 368.2 285.38 368.19 285.33 368.18 285.31 368.17 285.27 368.14 285.23 368.11 285.19 368.08 285.14 368.06 285.12 368.06 285.08 368.06 285.01 368.06 284.95 368.07 284.89 368.08 284.82 368.08 284.74 368.08 284.68 368.08 284.6 368.08 284.52 368.08 284.45 368.08 284.35 368.08 284.28 368.09 284.2 368.09 284.12 368.1 284.05 368.1 283.96 368.1 283.9 368.1 283.82 368.1 283.75 368.1 283.67 368.1 283.59 368.1 283.52 368.09 283.45 368.07 283.37 368.06 283.31 368.06 283.29 368.05 283.23 368.05 283.15 368.04 283.08 368.03 283.02 368.02 282.96 368.01 282.92 368 282.9 368 282.87 368 282.81 368 282.74 367.99 282.7 367.98 282.63 367.97 282.59 367.95 282.54 367.95 282.5 367.95 282.4 367.95 282.28 367.94 282.22 367.94 282.13 367.93 282.06 367.93 281.92 367.91 281.88 367.91 281.85 367.9 281.84 367.9 281.8 367.9 281.78 367.89 281.77 367.89 Z"/>
</g></svg>