<svg xmlns="http://www.w3.org/2000/svg" version="1.2" baseProfile="tiny" stroke-linecap="round" stroke-linejoin="round" viewBox="667.27 51.58 12.22 16.67"><g xmlns="http://www.w3.org/2000/svg" id="Martxuta">
<path d="M 675.22 52 675 52.25 675 52.44 675.17 52.42 675.14 52.5 675.01 52.62 674.96 52.71 675.01 52.77 675.25 52.64 675.29 52.73 675.29 52.92 675.28 53.34 675.31 53.35 675.34 53.35 675.37 53.36 675.4 53.37 675.43 53.39 675.46 53.4 675.48 53.41 675.5 53.44 675.51 53.46 675.52 53.48 675.53 53.51 675.53 53.53 675.53 53.56 675.53 53.58 675.53 53.62 675.53 53.64 675.54 53.68 675.54 53.7 675.55 53.71 675.57 53.72 675.6 53.74 675.63 53.75 675.65 53.77 675.67 53.78 675.68 53.81 675.69 53.83 675.69 53.86 675.7 53.9 675.71 53.94 675.71 53.94 675.71 53.97 675.71 53.99 675.69 54.03 675.67 54.05 675.67 54.07 675.65 54.09 675.64 54.11 675.63 54.13 675.63 54.15 675.63 54.17 675.63 54.2 675.63 54.23 675.63 54.27 675.63 54.3 675.63 54.35 675.63 54.39 675.63 54.42 675.62 54.46 675.61 54.49 675.59 54.51 675.58 54.53 675.57 54.54 675.56 54.56 675.56 54.57 675.57 54.58 675.58 54.6 675.59 54.62 675.6 54.65 675.6 54.67 675.61 54.7 675.61 54.73 675.61 54.75 675.62 54.79 675.62 54.82 675.6 54.85 675.59 54.87 675.57 54.89 675.55 54.89 675.54 54.88 675.52 54.86 675.51 54.84 675.49 54.82 675.47 54.79 675.45 54.78 675.43 54.77 675.41 54.77 675.39 54.79 675.37 54.8 675.36 54.81 675.34 54.84 675.32 54.89 675.31 54.92 675.31 54.95 675.3 54.98 675.3 55.01 675.29 55.04 675.29 55.07 675.3 55.1 675.31 55.12 675.32 55.14 675.34 55.15 675.35 55.17 675.35 55.19 675.35 55.21 675.34 55.23 675.33 55.24 675.31 55.26 675.3 55.27 675.29 55.29 675.28 55.3 675.27 55.32 675.27 55.33 675.28 55.35 675.29 55.35 675.3 55.36 675.31 55.36 675.32 55.37 675.34 55.39 675.34 55.41 675.33 55.42 675.32 55.44 675.32 55.46 675.33 55.47 675.33 55.49 675.34 55.52 675.34 55.55 675.34 55.57 675.34 55.6 675.34 55.63 675.34 55.65 675.34 55.69 675.35 55.71 675.36 55.72 675.37 55.73 675.38 55.75 675.39 55.76 675.39 55.78 675.39 55.8 675.39 55.82 675.39 55.84 675.39 55.87 675.41 55.88 675.42 55.9 675.44 55.92 675.45 55.94 675.45 55.97 675.45 55.99 675.46 56.02 675.47 56.04 675.47 56.07 675.47 56.09 675.48 56.11 675.49 56.14 675.5 56.15 675.51 56.17 675.51 56.19 675.51 56.2 675.5 56.21 675.48 56.22 675.46 56.24 675.45 56.24 675.43 56.25 675.4 56.26 675.38 56.27 675.37 56.28 675.36 56.3 675.36 56.31 675.36 56.33 675.37 56.34 675.38 56.35 675.39 56.36 675.41 56.36 675.44 56.38 675.47 56.39 675.49 56.4 675.51 56.41 675.53 56.42 675.55 56.44 675.58 56.45 675.59 56.45 675.61 56.44 675.62 56.44 675.63 56.44 675.67 56.45 675.7 56.47 675.72 56.48 675.75 56.49 675.77 56.5 675.78 56.51 675.79 56.51 675.8 56.5 675.8 56.49 675.8 56.47 675.79 56.43 675.78 56.41 675.78 56.38 675.77 56.36 675.78 56.34 675.78 56.33 675.79 56.31 675.81 56.3 675.82 56.28 675.82 56.26 675.8 56.24 675.8 56.23 675.79 56.22 675.78 56.2 675.78 56.18 675.78 56.16 675.81 56.14 675.87 56.07 675.92 56.03 675.95 56.02 675.97 56.01 676.01 56.01 676.03 56.01 676.05 56 676.07 56 676.1 55.99 676.12 56 676.15 56.01 676.17 56.02 676.19 56.04 676.2 56.05 676.2 56.07 676.22 56.11 676.23 56.14 676.23 56.16 676.24 56.21 676.24 56.24 676.23 56.27 676.23 56.31 676.23 56.33 676.23 56.35 676.24 56.37 676.25 56.39 676.25 56.42 676.26 56.46 676.27 56.49 676.28 56.54 676.3 56.58 676.31 56.62 676.33 56.64 676.34 56.66 676.35 56.67 676.38 56.68 676.4 56.69 676.43 56.71 676.45 56.73 676.46 56.75 676.49 56.78 676.5 56.8 676.51 56.82 676.52 56.85 676.53 56.87 676.54 56.9 676.55 56.92 676.56 56.94 676.58 56.95 676.59 56.96 676.59 56.97 676.59 56.99 676.58 57.01 676.58 57.03 676.59 57.06 676.61 57.08 676.62 57.09 676.65 57.1 676.69 57.11 676.72 57.11 676.75 57.11 676.77 57.1 676.79 57.09 676.81 57.08 676.82 57.08 676.83 57.1 676.83 57.11 676.83 57.13 676.83 57.14 676.83 57.16 676.84 57.17 676.85 57.18 676.87 57.2 676.88 57.21 676.89 57.23 676.91 57.26 676.92 57.29 676.93 57.32 676.94 57.34 676.94 57.37 676.94 57.39 676.95 57.41 676.97 57.44 676.99 57.46 677.01 57.47 677.01 57.49 677.05 57.48 677.11 57.48 677.13 57.43 677.21 57.38 677.33 57.38 677.39 57.4 677.46 57.43 677.54 57.46 677.37 57.77 677.73 58.02 677.67 58.11 677.62 58.15 677.59 58.18 677.57 58.22 677.51 58.26 677.48 58.28 677.37 58.26 677.32 58.23 677.28 58.18 677.29 58.22 677.29 58.24 677.29 58.26 677.29 58.28 677.3 58.3 677.31 58.33 677.32 58.34 677.33 58.35 677.33 58.36 677.34 58.39 677.35 58.42 677.35 58.44 677.36 58.46 677.37 58.48 677.38 58.51 677.41 58.53 677.42 58.54 677.44 58.58 677.45 58.6 677.45 58.62 677.46 58.65 677.47 58.67 677.48 58.7 677.5 58.73 677.51 58.75 677.52 58.77 677.52 58.82 677.52 58.87 677.53 58.91 677.54 58.94 677.54 58.98 677.54 59.02 677.55 59.05 677.56 59.11 677.56 59.15 677.57 59.18 677.58 59.21 677.59 59.23 677.61 59.25 677.63 59.28 677.64 59.31 677.66 59.34 677.67 59.37 677.67 59.4 677.68 59.43 677.69 59.46 677.69 59.48 677.94 59.46 678.04 59.31 678.34 59.34 678.36 59.37 678.31 59.46 678.35 59.51 678.47 59.54 678.7 59.5 678.97 59.64 679.29 59.89 679.32 60.08 679.3 60.36 679.33 60.77 679.4 61.02 679.46 61.14 679.46 61.23 679.07 61.43 678.82 61.57 678.54 61.71 678.55 61.74 678.56 61.79 678.57 61.86 678.56 61.98 678.53 62.14 678.5 62.27 678.46 62.35 678.42 62.4 678.36 62.45 678.32 62.46 678.25 62.47 678.13 62.46 678.07 62.47 678.03 62.49 678 62.52 677.98 62.54 677.95 62.57 677.92 62.58 677.87 62.61 677.84 62.64 677.83 62.67 677.83 62.7 677.84 62.73 677.88 62.75 677.92 62.78 677.97 62.88 677.99 62.91 677.99 62.96 677.97 62.99 677.95 63.02 677.92 63.07 677.89 63.12 677.87 63.24 677.85 63.29 677.83 63.32 677.8 63.35 677.76 63.37 677.73 63.4 677.68 63.46 677.68 63.5 677.68 63.53 677.69 63.65 677.72 63.78 677.74 63.84 677.74 63.88 677.73 63.94 677.7 63.98 677.66 63.99 677.61 64 677.48 64.02 677.34 64.05 677.19 64.06 677.1 64.05 676.95 64 676.82 63.97 676.74 63.93 676.69 63.9 676.6 63.81 676.5 63.83 676.46 63.84 676.38 63.89 676.3 63.96 676.26 64.03 676.26 64.05 676.25 64.17 676.25 64.29 676.25 64.33 676.23 64.39 676.16 64.47 676.09 64.51 676.06 64.52 676.03 64.51 676.01 64.49 675.96 64.45 675.94 64.44 675.9 64.44 675.83 64.47 675.8 64.48 675.7 64.54 675.61 64.62 675.57 64.7 675.56 64.74 675.55 64.78 675.54 64.83 675.51 64.93 675.51 65.04 675.51 65.18 675.52 65.34 675.5 65.46 675.49 65.56 675.48 65.62 675.47 65.67 675.46 65.72 675.48 65.77 675.51 65.81 675.56 65.9 675.58 66.05 675.57 66.18 675.55 66.24 675.51 66.33 675.49 66.37 675.44 66.44 675.32 66.52 675.22 66.59 675.16 66.64 675.1 66.74 675.05 66.85 675.03 66.97 675.01 67.07 675 67.11 674.99 67.19 674.98 67.21 674.94 67.3 674.88 67.41 674.83 67.5 674.81 67.53 674.78 67.55 674.76 67.55 674.74 67.55 674.71 67.55 674.68 67.55 674.59 67.52 674.44 67.47 674.37 67.45 674.36 67.44 674.3 67.42 674.22 67.39 674.15 67.36 674.09 67.32 674.03 67.28 673.98 67.24 673.94 67.21 673.9 67.17 673.88 67.15 673.85 67.12 673.78 67.02 673.72 66.91 673.67 66.8 673.61 66.68 673.59 66.63 673.56 66.6 673.53 66.57 673.5 66.53 673.47 66.51 673.41 66.49 673.38 66.49 673.33 66.5 673.18 66.8 673.13 66.78 673.1 66.78 673.07 66.8 673.05 66.83 673.04 66.85 673.04 66.89 673.05 66.95 673.05 66.99 673.07 67.02 673.08 67.07 673.09 67.12 673.09 67.15 673.06 67.33 673.07 67.38 673.08 67.42 673.09 67.46 673.11 67.56 673.12 67.59 673.13 67.62 673.13 67.65 673.14 67.67 673.15 67.7 673.17 67.74 673.17 67.77 673.19 67.83 673.2 67.88 673.22 67.94 673.23 67.98 673.25 68.02 673.28 68.07 673.34 68.24 673.25 68.15 673.11 68.08 673.09 67.91 673 67.88 672.88 67.93 672.69 67.97 672.61 67.98 672.49 68.01 672.39 68.03 672.54 67.64 672.09 67.5 672.04 67.51 671.98 67.52 671.93 67.51 671.72 67.49 671.56 67.47 671.51 67.48 671.47 67.48 671.42 67.5 671.33 67.51 671.29 67.51 671.26 67.5 671.22 67.48 671.15 67.44 671.15 67.5 671.14 67.55 671.11 67.63 671.08 67.73 671.04 67.82 671.02 67.86 671.02 67.88 670.72 67.83 670.71 67.64 670.57 67.54 670.44 67.52 670.46 67.87 670.32 67.88 670.31 67.8 670.26 67.71 670.22 67.67 670.19 67.66 670.08 67.62 670.04 67.59 669.94 67.53 669.91 67.5 669.88 67.47 669.86 67.43 669.83 67.39 669.82 67.37 669.81 67.34 669.8 67.3 669.79 67.27 669.78 67.24 669.77 67.21 669.76 67.17 669.75 67.14 669.74 67.11 669.73 67.08 669.73 67.07 669.72 67.06 669.7 67.03 669.67 67 669.64 66.98 669.58 66.99 669.55 67 669.51 67.02 669.49 66.94 669.48 66.91 669.48 66.88 669.49 66.86 669.5 66.83 669.51 66.8 669.51 66.78 669.5 66.75 669.48 66.73 669.46 66.7 669.45 66.68 669.43 66.66 669.41 66.64 669.38 66.63 669.36 66.61 669.35 66.59 669.33 66.56 669.3 66.54 669.29 66.54 669.26 66.55 669.23 66.56 669.22 66.57 669.2 66.59 669.18 66.59 669.17 66.59 669.15 66.57 669.15 66.56 669.15 66.54 669.15 66.51 669.14 66.48 669.14 66.46 669.13 66.43 669.12 66.4 669.1 66.38 669.09 66.37 669.06 66.36 669.04 66.35 669.01 66.33 669 66.31 668.99 66.29 668.98 66.27 668.98 66.26 668.97 66.25 668.96 66.23 668.93 66.21 668.9 66.2 668.88 66.18 668.85 66.16 668.82 66.13 668.78 66.1 668.76 66.08 668.74 66.05 668.72 66.02 668.7 66 668.69 65.98 668.69 65.95 668.68 65.93 668.66 65.88 668.65 65.85 668.62 65.82 668.6 65.79 668.57 65.75 668.54 65.72 668.53 65.71 668.5 65.6 668.49 65.58 668.49 65.56 668.5 65.54 668.52 65.52 668.53 65.49 668.53 65.47 668.55 65.46 668.56 65.44 668.57 65.41 668.59 65.38 668.58 65.35 668.57 65.32 668.55 65.31 668.54 65.29 668.53 65.27 668.53 65.25 668.56 65.21 668.58 65.17 668.58 65.16 668.57 65.13 668.55 65.09 668.53 65.02 668.53 65 668.52 64.98 668.52 64.96 668.52 64.92 668.53 64.87 668.53 64.84 668.52 64.82 668.52 64.8 668.52 64.78 668.52 64.77 668.53 64.76 668.54 64.75 668.56 64.73 668.56 64.69 668.55 64.66 668.54 64.64 668.53 64.62 668.53 64.59 668.53 64.56 668.54 64.54 668.54 64.49 668.55 64.47 668.55 64.44 668.55 64.43 668.56 64.41 668.58 64.39 668.59 64.38 668.62 64.36 668.64 64.35 668.66 64.32 668.67 64.3 668.69 64.26 668.69 64.23 668.69 64.19 668.68 64.17 668.67 64.15 668.68 64.13 668.69 64.12 668.72 64.11 668.74 64.11 668.76 64.09 668.77 64.06 668.77 64.04 668.79 64.04 668.81 64.03 668.83 64.02 668.84 64 668.86 63.97 668.87 63.95 668.9 63.92 668.9 63.91 668.91 63.9 668.94 63.88 668.95 63.86 668.97 63.83 668.98 63.8 668.99 63.77 669 63.74 669.01 63.71 669.02 63.69 669.03 63.67 669.05 63.66 669.06 63.63 669.08 63.58 669.09 63.56 669.11 63.54 669.12 63.53 669.14 63.51 669.16 63.49 669.17 63.47 669.17 63.44 669.17 63.42 669.17 63.41 669.16 63.39 669.15 63.37 669.13 63.36 669.12 63.36 669.09 63.37 669.06 63.38 669.04 63.37 669.03 63.36 669.03 63.34 669.01 63.33 668.99 63.33 668.97 63.32 668.95 63.31 668.94 63.29 668.92 63.27 668.91 63.27 668.89 63.27 668.87 63.27 668.86 63.25 668.86 63.24 668.86 63.22 668.87 63.19 668.87 63.17 668.86 63.14 668.85 63.12 668.84 63.09 668.84 63.07 668.84 63.06 668.85 63.04 668.85 63.02 668.85 63 668.84 62.99 668.85 62.97 668.85 62.96 668.86 62.96 668.9 62.94 668.94 62.94 668.97 62.92 668.99 62.9 669 62.89 669.01 62.87 669.02 62.85 669.02 62.83 669.01 62.81 669.01 62.79 669.03 62.78 669.03 62.76 669.01 62.75 669 62.73 668.98 62.71 668.99 62.68 669 62.66 669.02 62.65 669.04 62.63 669.05 62.61 669.05 62.6 669.03 62.59 669.02 62.58 669 62.56 668.99 62.53 668.99 62.51 668.99 62.48 668.99 62.45 668.98 62.42 668.97 62.38 668.96 62.35 668.95 62.32 668.95 62.29 668.97 62.26 668.99 62.25 669.01 62.24 669.04 62.24 669.05 62.24 669.07 62.24 669.08 62.23 669.08 62.21 669.08 62.19 669.07 62.17 669.07 62.17 669.05 62.15 669.04 62.13 669.02 62.12 669.01 62.1 669 62.09 668.99 62.08 668.99 62.05 668.99 62.02 668.97 62.01 668.96 62.01 668.94 62 668.93 61.97 668.93 61.95 668.94 61.92 668.94 61.9 668.93 61.88 668.91 61.87 668.9 61.86 668.9 61.84 668.9 61.82 668.89 61.8 668.87 61.78 668.85 61.77 668.81 61.75 668.79 61.74 668.78 61.73 668.77 61.71 668.77 61.69 668.77 61.68 668.79 61.66 668.8 61.64 668.8 61.62 668.79 61.6 668.78 61.57 668.76 61.53 668.76 61.51 668.77 61.5 668.79 61.48 668.79 61.46 668.79 61.44 668.77 61.43 668.76 61.41 668.75 61.4 668.73 61.39 668.7 61.38 668.67 61.38 668.64 61.36 668.62 61.35 668.6 61.33 668.58 61.29 668.56 61.27 668.54 61.25 668.53 61.23 668.52 61.22 668.52 61.21 668.49 61.18 668.48 61.17 668.46 61.16 668.45 61.16 668.44 61.17 668.42 61.17 668.4 61.18 668.25 60.86 668.18 60.72 668.1 60.78 668.05 60.85 668.04 60.96 667.83 60.82 667.77 60.83 667.74 60.84 667.71 60.85 667.69 60.86 667.65 60.88 667.59 60.91 667.57 60.92 667.54 60.93 667.5 60.94 667.45 60.94 667.4 60.85 667.33 60.74 667.3 60.67 667.31 60.67 667.33 60.65 667.4 60.62 667.46 60.57 667.48 60.55 667.5 60.53 667.5 60.51 667.5 60.38 667.5 60.24 667.5 60.17 667.68 60.17 667.77 60.16 667.96 60.21 668.14 60.39 668.17 60.4 668.21 60.4 668.25 60.41 668.29 60.4 668.37 60.42 668.43 60.42 668.48 60.42 668.52 60.41 668.55 60.4 668.59 60.39 668.63 60.38 668.65 60.37 668.64 60.33 668.68 60.32 668.82 60.27 668.94 60.22 669.13 59.97 669.12 59.77 669.11 59.74 669.12 59.71 669.12 59.67 669.14 59.65 669.17 59.63 669.23 59.6 669.6 59.37 669.61 59.37 669.63 59.33 669.63 59.33 669.58 59.3 669.37 59.05 669.4 59.04 669.49 58.96 669.52 58.94 669.56 58.92 669.6 58.89 669.62 58.88 669.64 58.85 669.65 58.84 669.68 58.72 669.71 58.65 669.72 58.6 669.73 58.54 669.76 58.42 669.86 58.39 669.97 58.38 670.08 58.35 670.15 58.33 670.17 58.33 670.21 58.33 670.24 58.3 670.26 58.23 670.25 58.16 670.25 58.09 670.25 58.03 670.26 57.99 670.29 57.72 670.13 57.56 670.11 57.55 670.09 57.55 670.06 57.54 670.02 57.53 669.98 57.53 669.86 57.51 669.82 57.52 669.79 57.54 669.77 57.55 669.75 57.54 669.74 57.52 669.72 57.49 669.7 57.48 669.67 57.47 669.66 57.45 669.65 57.42 669.64 57.38 669.65 57.35 669.65 57.3 669.67 57.27 669.68 57.24 669.67 57.21 669.64 57.19 669.62 57.19 669.58 57.18 669.55 57.15 669.51 57.13 669.49 57.09 669.47 57.05 669.45 57.01 669.43 56.97 669.42 56.95 669.41 56.93 669.39 56.89 669.38 56.84 669.37 56.82 669.36 56.77 669.35 56.73 669.32 56.69 669.37 56.66 669.38 56.65 669.35 56.59 669.45 56.53 669.49 56.59 670.14 56.27 670.23 56.18 670.27 56.22 670.34 56.35 670.42 56.48 670.45 56.54 670.45 56.58 670.55 56.46 670.93 56.48 670.98 56.45 671.01 56.4 671 56.28 671.17 56.2 671.57 56.4 671.57 56.01 671.68 55.93 671.7 55.9 671.7 55.87 671.71 55.82 671.71 55.8 671.71 55.73 671.72 55.68 671.73 55.63 671.73 55.62 671.76 55.58 671.77 55.56 671.78 55.55 671.8 55.54 671.83 55.53 671.85 55.52 671.87 55.5 671.89 55.49 671.96 55.39 671.98 55.36 672.04 55.26 672.11 55.15 672.21 55.11 672.3 55.07 672.39 55.04 672.42 55.03 672.48 55.01 672.58 54.99 672.6 55.01 672.61 55.03 672.63 55.05 672.66 55.06 672.68 55.06 672.7 55.03 672.72 55.02 672.74 54.98 672.76 54.95 672.76 54.92 672.74 54.89 672.74 54.87 672.73 54.86 672.72 54.83 672.72 54.8 672.74 54.78 672.77 54.78 672.79 54.79 672.81 54.81 672.84 54.81 672.86 54.78 672.89 54.75 672.93 54.73 672.98 54.72 673.03 54.71 673.07 54.71 673.11 54.71 673.16 54.71 673.2 54.69 673.25 54.67 673.29 54.64 673.33 54.59 673.39 54.53 673.41 54.51 673.44 54.48 673.48 54.45 673.48 54.43 673.47 54.41 673.45 54.38 673.45 54.34 673.47 54.27 673.52 54.17 673.57 54.13 673.62 54.09 673.65 54.05 673.66 54.01 673.68 53.98 673.72 53.95 673.77 53.93 673.79 53.91 673.81 53.9 673.83 53.85 673.85 53.8 673.87 53.75 673.9 53.72 673.93 53.72 673.97 53.71 674.01 53.71 674.02 53.71 673.91 53.56 673.95 53.52 673.96 53.51 674 53.47 674.02 53.46 674.04 53.37 674.11 53.26 674.1 52.91 674.11 52.75 674.51 52.58 674.5 52.51 674.46 52.46 674.32 52.33 674.01 52.11 673.88 52.01 673.86 52 673.69 51.9 673.59 51.91 673.52 51.91 673.32 51.91 673.31 51.85 673.66 51.73 673.77 51.67 673.85 51.61 674 51.61 674.06 51.63 674.09 51.65 674.14 51.67 674.18 51.7 674.21 51.71 674.26 51.73 674.3 51.75 674.34 51.76 674.38 51.75 674.43 51.74 674.47 51.73 674.52 51.74 674.58 51.76 674.63 51.78 674.67 51.79 674.72 51.8 674.76 51.8 674.81 51.79 674.85 51.79 674.89 51.81 674.92 51.83 674.96 51.86 675 51.89 675.03 51.93 675.06 51.96 675.09 51.99 675.13 52 675.16 52.01 675.22 52 Z"/>
</g></svg>