<svg xmlns="http://www.w3.org/2000/svg" version="1.2" baseProfile="tiny" stroke-linecap="round" stroke-linejoin="round" viewBox="487.47 450.97 19.75 37.48"><g xmlns="http://www.w3.org/2000/svg" id="Martzilla">
<path d="M 502.85 450.98 502.85 450.99 502.88 451.04 502.9 451.09 502.92 451.15 502.94 451.2 502.96 451.25 502.98 451.3 503 451.36 503.02 451.41 503.05 451.45 503.07 451.47 503.09 451.5 503.1 451.52 503.12 451.55 503.13 451.56 503.18 451.59 503.24 451.63 503.28 451.67 503.33 451.71 503.39 451.75 503.45 451.8 503.49 451.84 503.53 451.87 503.57 451.9 503.59 451.92 503.62 451.95 503.66 452 503.69 452.04 503.73 452.09 503.76 452.13 503.79 452.17 503.82 452.23 503.85 452.28 503.87 452.31 503.88 452.33 503.92 452.41 504.03 452.58 504.15 452.76 504.26 452.94 504.28 452.97 504.34 453.15 504.4 453.34 504.47 453.54 504.53 453.75 504.59 453.94 504.59 453.95 504.6 453.98 504.67 454.18 504.69 454.37 504.71 454.56 504.77 455.15 504.96 455.62 505.04 455.82 505.09 455.94 505.12 456.02 505.2 456.2 505.21 456.23 505.3 456.44 505.38 456.64 505.44 456.78 505.45 456.85 505.47 457.06 505.5 457.29 505.52 457.5 505.55 457.7 505.58 457.92 505.61 458.2 505.74 458.19 505.81 458.18 505.82 458.18 506.02 458.16 506 458.18 505.76 458.47 505.74 458.49 505.73 458.5 505.69 458.55 505.68 458.57 505.68 458.59 505.68 458.6 505.67 458.66 505.67 458.82 505.69 458.99 505.69 459.02 505.71 459.05 505.83 459.3 505.88 459.41 505.9 459.43 506.02 459.68 506.02 459.7 506.04 459.74 506.06 459.8 506.07 459.84 506.12 459.99 506.13 460.01 506.15 460.09 506.2 460.21 506.25 460.29 506.26 460.32 506.27 460.34 506.27 460.37 506.27 460.39 506.27 460.41 506.26 460.56 506.26 460.62 506.25 460.63 506.24 460.68 506.23 460.77 506.23 460.78 506.23 460.79 506.22 460.86 506.22 460.91 506.24 461.05 506.24 461.09 506.25 461.11 506.25 461.14 506.26 461.23 506.27 461.23 506.27 461.27 506.27 461.28 506.28 461.34 506.28 461.36 506.29 461.37 506.29 461.4 506.29 461.44 506.3 461.46 506.3 461.48 506.3 461.5 506.31 461.57 506.33 461.79 506.33 461.91 506.33 461.93 506.34 462 506.35 462.06 506.37 462.16 506.38 462.18 506.4 462.26 506.43 462.34 506.44 462.37 506.44 462.38 506.48 462.53 506.49 462.58 506.54 462.7 506.56 462.75 506.59 462.87 506.6 462.88 506.63 463.14 506.69 463.55 506.69 463.74 506.69 463.81 506.7 463.86 506.72 463.95 506.73 464.01 506.75 464.08 506.76 464.17 506.79 464.3 506.81 464.4 506.83 464.49 506.85 464.61 506.87 464.66 506.88 464.73 506.9 464.8 506.93 464.96 506.96 465.04 506.97 465.1 506.99 465.15 507 465.19 507.03 465.27 507.03 465.3 507.04 465.31 507.05 465.35 507.07 465.41 507.14 465.64 507.19 465.77 507.13 465.8 507.08 465.83 507.05 465.86 507.02 465.89 506.95 465.96 506.9 466 506.81 466.06 506.76 466.08 506.62 466.16 506.52 466.21 506.3 466.33 505.07 466.62 505.05 466.62 505 466.62 504.9 466.63 504.72 466.64 504.42 466.65 504.35 466.65 504.17 466.63 504.08 466.62 504.01 466.61 503.98 466.61 503.83 466.6 503.71 466.58 503.64 466.58 503.6 466.58 503.54 466.59 503.37 466.65 503.29 466.68 503.27 466.7 503.22 466.73 503.22 466.73 503.13 466.78 502.95 466.88 502.87 466.9 502.67 466.9 502.54 466.89 502.45 466.87 502.41 466.87 502.38 466.86 502.35 466.85 502.09 466.82 502.04 466.81 502 466.81 501.9 466.8 501.84 466.79 501.76 466.79 501.62 466.81 501.53 466.83 501.44 466.85 501.4 466.85 501.22 466.89 501.21 466.89 501.21 466.9 501.22 466.91 501.23 466.95 501.24 466.98 501.26 467.02 501.33 467.19 501.34 467.21 501.38 467.3 501.39 467.32 501.4 467.35 501.43 467.4 501.44 467.42 501.49 467.56 501.5 467.58 501.54 467.68 501.55 467.69 501.55 467.69 501.56 467.72 501.56 467.74 501.57 467.77 501.58 467.84 501.59 467.95 501.6 468 501.61 468.02 501.61 468.05 501.62 468.16 501.64 468.28 501.67 468.4 501.67 468.41 501.67 468.43 501.68 468.45 501.68 468.49 501.7 468.56 501.7 468.59 501.72 468.63 501.73 468.64 501.75 468.68 501.75 468.7 501.79 468.75 501.81 468.79 501.85 468.85 501.85 468.86 501.9 468.94 501.92 468.99 501.93 469.01 501.94 469.02 501.95 469.03 501.97 469.06 501.99 469.09 502.02 469.14 502.05 469.18 502.08 469.21 502.1 469.23 502.15 469.31 502.21 469.4 502.3 469.52 502.39 469.65 502.5 469.79 502.55 469.85 502.59 469.91 502.64 470 502.69 470.08 502.73 470.13 502.78 470.21 502.79 470.22 502.81 470.24 502.83 470.26 502.83 470.27 502.85 470.29 502.9 470.37 502.91 470.4 502.94 470.43 502.98 470.51 502.98 470.52 503 470.55 503.02 470.61 503.03 470.62 503.11 470.74 503.13 470.76 503.14 470.79 503.16 470.81 503.16 470.82 503.17 470.83 503.19 470.86 503.22 470.91 503.33 471.07 503.43 471.23 503.46 471.28 503.49 471.33 503.53 471.41 503.56 471.46 503.57 471.47 503.58 471.48 503.58 471.49 503.61 471.54 503.64 471.59 503.71 471.72 503.78 471.85 503.79 471.86 503.8 471.89 503.81 471.9 503.82 471.92 503.9 472.05 503.91 472.08 503.92 472.09 503.94 472.14 503.98 472.2 504.01 472.25 504.02 472.26 504.04 472.3 504.05 472.31 504.06 472.34 504.07 472.36 504.09 472.39 504.1 472.42 504.15 472.49 504.19 472.55 504.26 472.64 504.28 472.67 504.44 472.87 504.5 472.94 504.53 472.97 504.6 473.07 504.64 473.12 504.68 473.17 504.69 473.18 504.7 473.2 504.71 473.21 504.72 473.22 504.72 473.23 504.75 473.26 504.82 473.33 504.84 473.35 504.89 473.42 504.93 473.47 504.94 473.48 504.94 473.49 504.94 473.5 504.9 473.54 504.85 473.57 504.79 473.6 504.73 473.64 504.63 473.71 504.54 473.77 504.47 473.83 504.42 473.86 504.33 473.89 504.29 473.91 504.2 473.94 504.15 473.96 504.16 473.98 504.16 473.99 504.17 474.01 504.18 474.03 504.2 474.06 504.26 474.17 504.32 474.29 504.33 474.3 504.37 474.38 504.37 474.38 504.45 474.55 504.52 474.72 504.57 474.87 504.69 475.16 504.73 475.27 504.76 475.34 504.82 475.52 504.82 475.53 504.84 475.61 504.85 475.65 504.88 475.74 504.89 475.78 504.89 475.8 504.9 475.81 504.9 475.84 504.91 475.85 504.92 475.9 504.93 475.92 504.96 476.05 505 476.2 505.05 476.45 505.07 476.52 505.07 476.53 505.1 476.64 505.11 476.7 505.14 476.82 505.17 476.89 505.19 476.95 505.2 477 505.21 477.03 505.24 477.11 505.24 477.12 505.26 477.15 505.29 477.23 505.35 477.44 505.38 477.52 505.4 477.59 505.43 477.68 505.44 477.69 505.46 477.74 505.34 477.78 505.24 477.82 505.12 477.85 504.92 477.92 504.83 477.96 504.79 477.98 504.74 478.01 504.72 478.01 504.69 478.03 504.64 478.07 504.5 478.23 504.39 478.37 504.33 478.46 504.32 478.47 504.26 478.55 504.21 478.61 504.16 478.65 504.05 478.76 504.02 478.8 503.95 478.88 503.9 478.95 503.86 478.99 503.83 479.02 503.79 479.06 503.76 479.09 503.72 479.17 503.69 479.25 503.68 479.27 503.65 479.3 503.58 479.35 503.53 479.4 503.49 479.45 503.43 479.56 503.4 479.61 503.32 479.92 503.27 480.01 503.25 480.06 503.19 480.14 503.15 480.19 503.1 480.28 503.07 480.36 503.04 480.42 503.01 480.47 502.98 480.59 502.95 480.68 502.93 480.74 502.89 480.78 502.87 480.81 502.86 480.84 502.85 480.87 502.82 480.91 502.79 480.96 502.75 481.04 502.71 481.11 502.68 481.19 502.66 481.22 502.65 481.27 502.63 481.32 502.6 481.38 502.58 481.44 502.57 481.48 502.57 481.49 502.58 481.5 502.64 481.55 502.66 481.57 502.71 481.62 502.73 481.66 502.73 481.68 502.72 481.71 502.65 481.8 502.58 481.89 502.51 481.96 502.48 481.98 502.51 481.83 502.5 481.82 502.47 481.84 502.38 481.92 502.35 481.96 502.27 482.2 502.25 482.24 502.22 482.29 502.13 482.39 502.1 482.47 502 482.62 501.95 482.68 501.86 482.75 501.84 482.77 501.8 482.82 501.75 482.87 501.67 482.93 501.57 482.97 501.46 483.03 501.47 483.05 501.49 483.07 501.51 483.09 501.54 483.11 501.57 483.14 501.6 483.16 501.63 483.19 501.66 483.22 501.68 483.26 501.71 483.29 501.74 483.35 501.76 483.38 501.79 483.41 501.83 483.47 501.87 483.52 501.91 483.56 501.94 483.6 501.96 483.62 502 483.65 502.03 483.69 502.05 483.71 502.1 483.75 502.14 483.79 502.18 483.83 502.22 483.87 502.24 483.89 502.26 483.92 502.31 483.95 502.33 483.98 502.37 484.01 502.43 484.05 502.49 484.1 502.52 484.12 502.59 484.21 502.65 484.27 502.69 484.32 502.74 484.39 502.81 484.47 502.85 484.53 502.92 484.62 502.99 484.7 503.02 484.73 503.1 484.8 503.15 484.82 503.19 484.85 503.26 484.91 503.3 484.97 503.33 485.04 503.41 485.1 503.46 485.17 503.53 485.25 503.62 485.34 503.64 485.39 503.64 485.42 503.64 485.46 503.65 485.47 503.69 485.48 503.75 485.51 503.8 485.53 503.85 485.56 503.9 485.63 503.91 485.67 503.92 485.73 503.93 485.8 503.95 485.86 503.96 485.9 504.01 485.97 504.06 486.02 504.13 486.09 504.11 486.1 504.11 486.11 504.05 486.13 504.04 486.14 504 486.15 503.92 486.18 503.92 486.18 503.89 486.19 503.84 486.2 503.8 486.21 503.75 486.22 503.7 486.23 503.68 486.24 503.66 486.24 503.64 486.25 503.53 486.28 503.52 486.28 503.51 486.28 503.47 486.29 503.44 486.3 503.39 486.3 503.35 486.31 503.31 486.32 503.27 486.34 503.23 486.36 503.16 486.42 503.13 486.44 503.08 486.46 503.04 486.47 502.99 486.49 502.96 486.5 502.92 486.54 502.77 486.62 502.73 486.65 502.67 486.66 502.58 486.67 502.55 486.67 502.53 486.68 502.44 486.72 502.37 486.76 502.33 486.77 502.21 486.82 502.18 486.83 502.03 486.86 502.01 486.87 501.96 486.87 501.74 486.93 501.72 486.93 501.66 486.96 501.62 486.98 501.55 487.05 501.53 487.06 501.48 487.09 501.43 487.13 501.41 487.15 501.35 487.17 501.27 487.2 501.22 487.22 501.19 487.23 501.07 487.26 500.94 487.3 500.87 487.32 500.69 487.38 500.64 487.4 500.58 487.42 500.55 487.43 500.48 487.44 500.47 487.45 500.38 487.48 500.3 487.49 500.24 487.5 500.18 487.52 500.11 487.55 500.08 487.56 499.99 487.58 499.95 487.6 499.89 487.65 499.87 487.66 499.85 487.67 499.81 487.66 499.77 487.65 499.72 487.64 499.7 487.63 499.67 487.63 499.65 487.64 499.63 487.65 499.6 487.66 499.53 487.72 499.5 487.74 499.43 487.77 499.41 487.78 499.28 487.89 499.25 487.92 499.22 487.93 499.21 487.93 499.15 487.94 499.09 487.95 499.04 487.96 499 487.97 498.98 487.97 498.93 487.97 498.92 487.98 498.89 487.98 498.82 488.02 498.8 488.03 498.76 488.05 498.69 488.11 498.66 488.13 498.63 488.15 498.61 488.17 498.6 488.18 498.45 488.29 498.39 488.33 498.36 488.35 498.3 488.37 498.22 488.39 498.07 488.42 498.05 488.42 498.03 488.41 497.99 488.41 497.87 488.39 497.82 488.38 497.79 488.36 497.73 488.35 497.68 488.33 497.61 488.3 497.56 488.29 497.52 488.28 497.4 488.25 497.33 488.24 497.28 488.23 497.26 488.23 497.22 488.22 497.08 488.2 497.02 488.2 496.97 488.19 496.8 488.18 496.74 488.17 496.65 488.15 496.47 488.11 496.4 488.09 496.32 488.06 496.25 488.02 496.19 487.99 496.12 487.93 496.04 487.87 495.97 487.83 495.94 487.81 495.88 487.79 495.83 487.77 495.79 487.76 495.75 487.75 495.68 487.74 495.61 487.74 495.56 487.74 495.47 487.73 495.45 487.73 495.41 487.73 495.37 487.73 495.35 487.73 495.34 487.72 495.32 487.72 495.28 487.72 495.24 487.71 495.23 487.7 495.21 487.69 495.2 487.69 495.15 487.68 495.1 487.67 495.06 487.68 495.03 487.69 494.98 487.69 494.94 487.69 494.89 487.7 494.82 487.7 494.78 487.7 494.72 487.7 494.68 487.7 494.65 487.71 494.59 487.74 494.54 487.76 494.49 487.79 494.45 487.81 494.41 487.83 494.36 487.85 494.32 487.87 494.28 487.88 494.24 487.9 494.2 487.92 494.15 487.95 494.09 487.98 494.05 488.01 494 488.02 493.95 488.04 493.9 488.04 493.85 488.04 493.8 488.04 493.74 488.02 493.7 488.01 493.66 488.01 493.6 488.01 493.56 488.01 493.51 488.01 493.46 488.03 493.42 488.06 493.37 488.08 493.34 488.1 493.3 488.13 493.25 488.16 493.15 488.12 493.06 488.08 492.91 488.03 492.62 487.91 492.26 487.78 492.24 487.77 491.89 487.63 491.3 487.38 491.1 487.3 490.9 487.16 490.47 486.89 490.44 486.68 490.43 486.66 490.37 486.32 490.37 486.3 490.35 486.21 490.31 486.17 490.09 486 489.97 485.91 489.96 485.91 489.88 485.84 489.87 485.83 489.84 485.8 489.8 485.76 489.74 485.69 489.66 485.58 489.62 485.53 489.58 485.48 489.56 485.45 489.54 485.41 489.5 485.32 489.46 485.23 489.41 485.15 489.39 485.09 489.36 485.03 489.34 484.96 489.33 484.85 489.3 484.69 489.3 484.6 489.3 484.54 489.29 484.51 489.28 484.5 489.28 484.48 489.26 484.42 489.22 484.34 489.2 484.31 489.17 484.26 489.14 484.21 489.12 484.15 489.11 484.09 489.1 484.03 489.09 484.01 489.07 483.91 489.06 483.87 489.04 483.79 489.02 483.72 489.02 483.71 489 483.65 488.99 483.53 488.98 483.5 488.96 483.4 488.95 483.37 488.95 483.36 488.93 483.27 488.8 483.02 488.74 482.91 488.65 482.74 488.59 482.66 488.58 482.66 488.55 482.68 488.52 482.71 488.49 482.69 488.45 482.65 488.37 482.57 488.26 482.47 488.22 482.43 488.2 482.37 488.2 482.3 488.19 482.2 488.18 482.13 488.17 482.07 488.13 482.07 488.07 482.07 487.91 482.09 487.85 482.08 487.81 482.07 487.8 482.06 487.77 481.97 487.75 481.89 487.72 481.76 487.71 481.69 487.7 481.66 487.59 481.63 487.53 481.62 487.47 481.63 487.47 481.57 487.47 481.51 487.5 481.33 487.51 481.22 487.49 481.07 487.49 480.96 487.5 480.88 487.5 480.82 487.51 480.7 487.52 480.58 487.53 480.35 487.55 480.12 487.54 479.93 487.52 479.76 487.53 479.75 487.56 479.73 487.61 479.72 487.65 479.72 487.67 479.71 487.69 479.7 487.69 479.69 487.71 479.67 487.72 479.66 487.74 479.65 487.77 479.64 487.8 479.64 487.83 479.63 487.87 479.63 487.9 479.63 487.93 479.64 487.96 479.63 487.97 479.62 487.99 479.61 488.01 479.61 488.04 479.61 488.06 479.61 488.08 479.6 488.1 479.59 488.12 479.59 488.14 479.6 488.17 479.61 488.19 479.62 488.21 479.61 488.24 479.59 488.26 479.59 488.29 479.59 488.3 479.59 488.32 479.59 488.34 479.59 488.37 479.58 488.41 479.59 488.45 479.58 488.47 479.58 488.49 479.57 488.52 479.56 488.56 479.56 488.64 479.55 488.68 479.56 488.7 479.56 488.72 479.56 488.76 479.54 488.77 479.53 488.79 479.52 488.81 479.52 488.84 479.54 488.86 479.55 488.89 479.54 488.9 479.54 488.92 479.53 488.94 479.52 488.96 479.52 488.97 479.51 488.99 479.51 489 479.5 489.02 479.5 489.04 479.49 489.04 479.49 489.06 479.49 489.07 479.52 489.09 479.53 489.1 479.53 489.12 479.53 489.14 479.53 489.16 479.53 489.18 479.53 489.21 479.53 489.23 479.53 489.25 479.54 489.27 479.54 489.29 479.53 489.31 479.53 489.32 479.53 489.33 479.53 489.35 479.52 489.37 479.52 489.39 479.52 489.41 479.53 489.42 479.54 489.44 479.54 489.45 479.55 489.46 479.55 489.49 479.53 489.5 479.52 489.52 479.51 489.54 479.5 489.55 479.49 489.57 479.49 489.58 479.48 489.59 479.47 489.6 479.46 489.61 479.45 489.62 479.43 489.62 479.43 489.64 479.43 489.66 479.43 489.68 479.44 489.69 479.43 489.7 479.42 489.71 479.41 489.72 479.39 489.73 479.38 489.75 479.36 489.76 479.35 489.77 479.34 489.78 479.32 489.81 479.3 489.82 479.28 489.86 479.24 489.87 479.23 489.88 479.21 489.89 479.2 489.91 479.19 489.92 479.18 489.93 479.17 489.95 479.16 489.96 479.15 489.98 479.14 490 479.13 490.01 479.12 490.02 479.12 490.04 479.12 490.05 479.12 490.06 479.11 490.07 479.11 490.08 479.1 490.1 479.08 490.12 479.06 490.18 479 490.2 478.98 490.22 478.96 490.24 478.93 490.27 478.91 490.29 478.89 490.3 478.87 490.32 478.85 490.36 478.81 490.37 478.8 490.39 478.78 490.4 478.77 490.41 478.75 490.42 478.74 490.43 478.73 490.44 478.72 490.45 478.71 490.46 478.7 490.47 478.68 490.49 478.67 490.5 478.66 490.52 478.65 490.54 478.64 490.55 478.63 490.58 478.61 490.6 478.6 490.61 478.59 490.62 478.58 490.63 478.58 490.65 478.56 490.66 478.56 490.7 478.53 490.71 478.53 490.72 478.51 490.74 478.51 490.76 478.49 490.78 478.48 490.8 478.48 490.82 478.47 490.85 478.46 490.87 478.45 490.93 478.45 490.95 478.44 490.96 478.43 490.98 478.42 490.99 478.42 491.03 478.41 491.05 478.4 491.06 478.4 491.09 478.38 491.11 478.37 491.13 478.35 491.15 478.34 491.18 478.33 491.2 478.33 491.21 478.33 491.25 478.33 491.26 478.33 491.27 478.33 491.29 478.33 491.31 478.33 491.32 478.33 491.34 478.33 491.36 478.32 491.37 478.32 491.39 478.31 491.4 478.3 491.41 478.3 491.43 478.29 491.45 478.28 491.47 478.28 491.48 478.28 491.5 478.28 491.52 478.28 491.53 478.28 491.54 478.28 491.56 478.28 491.57 478.28 491.58 478.29 491.6 478.29 491.62 478.29 491.63 478.3 491.65 478.3 491.67 478.3 491.68 478.31 491.7 478.31 491.72 478.31 491.74 478.31 491.76 478.31 491.78 478.31 491.79 478.32 491.81 478.32 491.82 478.32 491.84 478.32 491.88 478.32 491.89 478.32 491.9 478.32 491.92 478.32 491.93 478.32 491.95 478.32 491.99 478.32 492.07 478.32 492.09 478.31 492.09 478.3 492.09 478.24 492.09 478.22 492.09 478.21 492.09 478.2 492.09 478.18 492.1 478.17 492.11 478.15 492.12 478.14 492.12 478.12 492.13 478.11 492.14 478.09 492.15 478.06 492.16 478.04 492.17 478.03 492.18 478.01 492.18 477.99 492.19 477.98 492.19 477.96 492.2 477.94 492.2 477.92 492.21 477.9 492.21 477.89 492.21 477.87 492.21 477.85 492.22 477.84 492.23 477.83 492.24 477.81 492.25 477.8 492.26 477.78 492.26 477.77 492.27 477.76 492.28 477.74 492.28 477.73 492.29 477.71 492.3 477.69 492.3 477.68 492.31 477.65 492.32 477.64 492.33 477.62 492.33 477.6 492.33 477.59 492.34 477.57 492.34 477.55 492.35 477.53 492.35 477.52 492.35 477.5 492.36 477.46 492.36 477.44 492.36 477.41 492.37 477.39 492.37 477.38 492.37 477.36 492.38 477.34 492.38 477.33 492.38 477.31 492.38 477.29 492.39 477.26 492.41 477 492.41 476.93 492.41 476.91 492.41 476.9 492.41 476.89 492.43 476.82 492.43 476.81 492.43 476.8 492.43 476.78 492.43 476.77 492.44 476.75 492.44 476.73 492.45 476.72 492.45 476.7 492.45 476.69 492.46 476.65 492.46 476.64 492.47 476.62 492.47 476.61 492.48 476.59 492.48 476.58 492.49 476.56 492.49 476.53 492.5 476.52 492.5 476.5 492.51 476.49 492.52 476.47 492.52 476.46 492.53 476.45 492.53 476.43 492.53 476.41 492.54 476.4 492.54 476.38 492.55 476.36 492.56 476.31 492.57 476.28 492.59 476.19 492.59 476.18 492.6 476.18 492.62 476.19 492.64 476.19 492.65 476.19 492.67 476.19 492.68 476.2 492.71 476.2 492.72 476.2 492.73 476.2 492.75 476.2 492.77 476.2 492.78 476.2 492.8 476.2 492.81 476.2 492.83 476.2 492.86 476.2 492.88 476.2 492.9 476.2 492.91 476.2 492.93 476.21 492.95 476.21 492.97 476.21 492.99 476.21 493 476.21 493.03 476.22 493.04 476.22 493.06 476.22 493.07 476.22 493.11 476.22 493.13 476.21 493.14 476.21 493.15 476.2 493.17 476.2 493.19 476.19 493.21 476.19 493.22 476.19 493.24 476.18 493.26 476.18 493.27 476.18 493.29 476.18 493.31 476.17 493.32 476.17 493.34 476.17 493.35 476.17 493.37 476.17 493.4 476.17 493.42 476.17 493.43 476.17 493.45 476.17 493.47 476.17 493.49 476.17 493.5 476.17 493.57 476.18 493.59 476.18 493.6 476.18 493.63 476.18 493.65 476.18 493.67 476.18 493.68 476.18 493.7 476.18 493.73 476.18 493.74 476.18 493.76 476.18 493.78 476.18 493.79 476.18 493.81 476.18 493.85 476.18 493.86 476.18 493.88 476.18 493.9 476.18 493.92 476.18 493.99 476.17 494 476.14 494.03 476.13 494.1 476.12 494.21 476.09 494.52 476.03 494.54 476.02 494.55 476.02 494.57 476.02 494.59 476.01 494.63 476.01 494.72 475.98 494.73 475.98 494.93 475.93 494.94 475.93 495 475.91 495.01 475.91 495.03 475.91 495.13 475.88 495.18 475.89 495.18 475.88 495.21 475.84 495.22 475.82 495.23 475.81 495.23 475.79 495.24 475.77 495.25 475.76 495.26 475.74 495.27 475.72 495.28 475.71 495.29 475.69 495.3 475.68 495.31 475.66 495.32 475.65 495.33 475.64 495.33 475.62 495.34 475.61 495.34 475.61 495.37 475.62 495.38 475.62 495.4 475.63 495.42 475.63 495.45 475.64 495.46 475.64 495.48 475.64 495.5 475.64 495.52 475.64 495.53 475.64 495.55 475.65 495.56 475.65 495.58 475.66 495.6 475.67 495.61 475.67 495.63 475.68 495.64 475.68 495.66 475.69 495.68 475.69 495.69 475.69 495.7 475.7 495.72 475.7 495.75 475.72 495.77 475.72 495.78 475.73 495.81 475.76 495.83 475.76 496.11 475.71 496.12 475.71 496.14 475.72 496.18 475.73 496.21 475.73 496.23 475.74 496.25 475.74 496.27 475.74 496.28 475.75 496.3 475.75 496.32 475.75 496.34 475.76 496.35 475.76 496.37 475.77 496.39 475.77 496.41 475.77 496.42 475.78 496.45 475.78 496.46 475.79 496.48 475.79 496.5 475.79 496.52 475.8 496.56 475.8 496.57 475.8 496.58 475.81 496.6 475.81 496.61 475.82 496.62 475.82 496.64 475.82 496.66 475.83 496.68 475.83 496.69 475.83 496.71 475.83 496.72 475.83 496.74 475.83 496.76 475.82 496.77 475.82 496.79 475.82 496.81 475.81 496.82 475.81 496.84 475.81 496.86 475.8 496.87 475.8 496.88 475.8 496.93 475.79 496.99 475.79 497.02 475.8 497.08 475.82 497.14 475.84 497.18 475.86 497.21 475.87 497.25 475.89 497.26 475.89 497.28 475.89 497.37 475.93 497.42 475.92 497.53 475.9 497.54 475.9 497.56 475.9 497.6 475.89 497.86 475.84 498.07 475.8 498.14 475.79 498.27 475.76 498.33 475.75 498.35 475.75 498.53 475.71 498.54 475.71 499.16 475.58 499.24 475.56 499.27 475.55 499.32 475.54 499.33 475.53 499.35 475.52 499.54 475.47 499.61 475.46 499.79 475.41 499.82 475.4 499.86 475.4 499.87 475.39 499.95 475.39 500.05 475.36 500.06 475.36 500.15 475.34 500.23 475.32 500.36 475.28 500.63 475.22 500.81 475.17 500.89 475.15 501.02 475.09 501.04 475.08 501.07 475.07 501.12 475.05 501.16 475.04 501.36 474.93 501.38 474.92 501.39 474.92 501.47 474.88 501.48 474.87 501.54 474.84 501.75 474.73 501.79 474.71 501.87 474.68 501.88 474.67 501.89 474.66 501.96 474.63 501.97 474.62 501.98 474.62 502.04 474.58 502.07 474.57 502.09 474.56 502.1 474.56 502.14 474.54 502.16 474.53 502.18 474.52 502.23 474.49 502.4 474.41 502.56 474.34 502.64 474.31 502.65 474.31 502.76 474.27 502.86 474.23 502.93 474.2 503.17 474.09 503.24 474.06 503.25 474.05 503.26 474.05 503.28 474.04 503.31 474.02 503.36 474 503.38 474 503.45 473.97 503.54 473.93 503.64 473.89 503.67 473.88 503.74 473.84 503.76 473.84 503.77 473.83 503.78 473.83 503.81 473.81 503.86 473.78 503.87 473.77 503.88 473.76 503.9 473.74 503.91 473.74 503.9 473.73 503.88 473.68 503.84 473.58 503.79 473.5 503.77 473.45 503.74 473.41 503.7 473.34 503.67 473.32 503.66 473.31 503.53 473.11 503.47 473.02 503.43 472.95 503.42 472.93 503.4 472.9 503.39 472.88 503.37 472.86 503.36 472.84 503.37 472.83 503.36 472.8 503.35 472.8 503.34 472.8 503.34 472.79 503.33 472.79 503.08 472.44 502.59 471.55 502.59 471.54 502.54 471.46 502.31 471.02 502.26 470.92 502.16 470.73 502.15 470.68 502.14 470.67 502.14 470.66 502.13 470.65 502.12 470.64 502.04 470.6 502.03 470.58 502.01 470.55 502 470.53 501.99 470.5 501.98 470.49 501.97 470.46 501.95 470.43 501.93 470.39 501.91 470.35 501.9 470.32 501.88 470.3 501.87 470.27 501.85 470.23 501.83 470.2 501.83 470.18 501.81 470.15 501.81 470.14 501.8 470.12 501.8 470.11 501.78 470.09 501.77 470.06 501.75 470.04 501.74 470.03 501.74 470.02 501.74 470.01 501.72 469.97 501.72 469.95 501.71 469.93 501.7 469.91 501.69 469.89 501.68 469.87 501.65 469.82 501.63 469.79 501.61 469.75 501.58 469.7 501.57 469.67 501.56 469.66 501.55 469.65 501.54 469.64 501.52 469.62 501.49 469.58 501.47 469.56 501.47 469.56 501.46 469.54 501.45 469.53 501.43 469.48 501.41 469.41 501.4 469.39 501.4 469.36 501.39 469.35 501.39 469.34 501.39 469.32 501.37 469.29 501.37 469.27 501.35 469.23 501.33 469.2 501.32 469.17 501.32 469.15 501.31 469.13 501.3 469.11 501.29 469.09 501.27 469.04 501.25 469 501.24 468.96 501.19 468.85 501.16 468.79 501.13 468.73 501.1 468.66 501.1 468.65 501.09 468.63 501.08 468.6 501.04 468.53 501 468.45 500.98 468.39 500.93 468.3 500.91 468.24 500.9 468.2 500.87 468.17 500.86 468.14 500.86 468.12 500.82 468.02 500.78 467.94 500.75 467.84 500.72 467.78 500.69 467.72 500.68 467.69 500.67 467.69 500.65 467.66 500.61 467.58 500.62 467.58 500.58 467.56 500.6 467.53 500.55 467.42 500.55 467.41 500.58 467.36 500.66 467.21 500.69 467.17 500.72 467.13 500.86 467 500.97 466.9 501.01 466.84 501.05 466.77 501.08 466.69 501.13 466.61 501.14 466.56 501.16 466.31 501.16 466.28 501.17 466.24 501.17 466.21 501.17 466.17 501.18 466.16 501.18 466.15 501.18 466.14 501.18 466.12 501.18 466.1 501.19 466.07 501.19 466.05 501.19 466.03 501.19 466.02 501.19 466.01 501.19 465.99 501.19 465.97 501.19 465.96 501.19 465.94 501.19 465.92 501.19 465.9 501.19 465.89 501.19 465.87 501.19 465.85 501.19 465.83 501.19 465.82 501.18 465.8 501.17 465.45 501.17 465.44 501.17 465.42 501.17 465.4 501.17 465.38 501.16 465.37 501.16 465.35 501.16 465.33 501.16 465.31 501.16 465.29 501.16 465.28 501.16 465.26 501.15 465.24 501.15 465.22 501.15 465.17 501.14 465.15 501.14 465.11 501.14 465.09 501.14 465.08 501.13 465.06 501.13 465.04 501.13 465.03 501.13 465 501.12 465 501.11 464.82 501.1 464.8 501.1 464.79 501.09 464.78 501.09 464.76 501.07 464.71 501.07 464.69 501.06 464.65 501.05 464.62 501.04 464.59 501.04 464.57 501.03 464.54 501.02 464.52 501.02 464.49 501.01 464.45 501 464.44 501 464.42 500.99 464.37 500.98 464.35 500.98 464.33 500.97 464.32 500.97 464.31 500.97 464.29 500.96 464.27 500.96 464.26 500.95 464.24 500.95 464.22 500.94 464.21 500.94 464.19 500.93 464.18 500.92 464.16 500.91 464.15 500.9 464.13 500.89 464.12 500.88 464.11 500.86 464.09 500.85 464.08 500.84 464.07 500.82 464.06 500.81 464.04 500.8 464.03 500.8 464.03 500.8 464.01 500.73 463.84 500.71 463.81 500.71 463.79 500.7 463.77 500.69 463.76 500.68 463.74 500.67 463.71 500.66 463.69 500.65 463.68 500.64 463.65 500.63 463.64 500.62 463.62 500.62 463.61 500.61 463.59 500.59 463.56 500.58 463.54 500.57 463.51 500.56 463.5 500.54 463.47 500.54 463.46 500.53 463.45 500.52 463.43 500.5 463.38 500.48 463.35 500.47 463.34 500.46 463.32 500.45 463.31 500.45 463.29 500.43 463.27 500.42 463.26 500.41 463.24 500.4 463.23 500.4 463.21 500.39 463.2 500.38 463.18 500.36 463.17 500.36 463.15 500.33 463.12 500.31 463.09 500.3 463.08 500.29 463.06 500.28 463.05 500.27 463.03 500.26 463.02 500.26 463.01 500.25 463.01 500.25 462.99 500.23 462.93 500.23 462.89 500.22 462.87 500.21 462.85 500.2 462.84 500.19 462.83 500.19 462.82 500.18 462.8 500.17 462.78 500.16 462.77 500.15 462.75 500.15 462.74 500.14 462.72 500.13 462.71 500.12 462.69 500.12 462.68 500.11 462.65 500.09 462.6 500.08 462.58 500.07 462.57 500.02 462.45 500.01 462.44 500.01 462.42 500 462.41 499.99 462.39 499.99 462.38 499.98 462.35 499.98 462.34 499.98 462.33 499.97 462.31 499.97 462.29 499.82 462 499.82 461.99 499.81 461.97 499.8 461.95 499.79 461.94 499.78 461.92 499.77 461.91 499.76 461.89 499.76 461.88 499.75 461.86 499.74 461.84 499.74 461.83 499.73 461.81 499.73 461.8 499.72 461.78 499.71 461.76 499.71 461.75 499.71 461.73 499.7 461.71 499.7 461.7 499.69 461.68 499.69 461.64 499.68 461.62 499.68 461.6 499.67 461.58 499.67 461.57 499.67 461.55 499.66 461.53 499.66 461.51 499.66 461.5 499.66 461.48 499.65 461.46 499.65 461.44 499.65 461.43 499.65 461.41 499.64 461.39 499.64 461.37 499.64 461.36 499.63 461.31 499.62 461.25 499.62 461.21 499.62 461.2 499.61 461.18 499.61 461.16 499.61 461.14 499.61 461.11 499.6 461.08 499.6 461.07 499.59 461.03 499.56 460.9 499.55 460.88 499.55 460.86 499.54 460.85 499.54 460.83 499.53 460.81 499.52 460.8 499.51 460.78 499.51 460.78 499.46 460.69 499.43 460.64 499.37 460.55 499.36 460.53 499.3 460.39 499.22 460.24 499.22 460.23 499.21 460.21 499.21 460.19 499.2 460.18 499.2 460.17 499.19 460.15 499.19 460.13 499.19 460.12 499.18 460.09 499.18 460.05 499.15 459.78 499.15 459.77 499.14 459.71 499.11 459.4 499.1 459.33 499.08 459.18 499.08 459.15 499.06 459.02 499.06 459.01 499.06 459 499.06 458.98 499.05 458.96 499.05 458.95 499.05 458.93 499.04 458.91 499.04 458.89 499.04 458.87 499.03 458.86 499.03 458.85 499.03 458.84 499.03 458.83 499.02 458.81 499.02 458.79 499.01 458.78 499.01 458.77 499.01 458.75 499 458.73 499 458.72 499 458.71 498.99 458.67 498.99 458.62 498.99 458.6 498.99 458.58 498.99 458.55 498.99 458.54 498.99 458.51 498.99 458.49 498.99 458.45 498.99 458.42 498.99 458.4 498.99 458.38 498.99 458.37 498.99 458.36 498.99 458.35 498.99 458.33 498.99 458.31 498.99 458.3 498.99 458.28 498.99 458.27 499 458.09 499 458.03 499 458 499 457.99 499 457.97 499 457.96 499 457.94 499 457.92 499 457.9 499 457.89 499 457.87 499 457.85 499 457.83 499 457.82 499.01 457.8 499.01 457.78 499.01 457.76 499.01 457.75 499.01 457.74 499.02 457.7 499.02 457.68 499.02 457.64 499.02 457.63 499.02 457.6 499.03 457.51 499.03 457.5 499.03 457.44 499.03 457.41 499.03 457.39 499.04 457.35 499.04 457.33 499.04 457.31 499.04 457.29 499.04 457.27 499.02 456.94 499.02 456.89 499.02 456.88 499.02 456.79 499.02 456.77 499.02 456.75 499.02 456.59 499.02 456.55 499.02 456.54 499.01 456.44 499.01 456.35 499.01 456.33 499.01 456.29 498.99 456.12 498.98 456.1 498.97 456 498.97 455.99 498.93 455.66 498.93 455.65 498.92 455.62 498.92 455.61 498.91 455.6 498.9 455.54 498.9 455.53 498.89 455.48 498.88 455.44 498.88 455.39 498.86 455.22 498.84 455.09 498.84 455.08 498.84 455.06 498.84 455.04 498.84 455.02 498.84 455.02 498.84 455.01 498.83 454.99 498.83 454.97 498.83 454.95 498.83 454.94 498.82 454.91 498.8 454.85 498.8 454.84 498.8 454.82 498.8 454.8 498.79 454.79 498.78 454.69 498.78 454.65 498.77 454.64 498.77 454.63 498.77 454.61 498.76 454.54 498.75 454.52 498.75 454.5 498.75 454.48 498.75 454.46 498.74 454.44 498.74 454.41 498.74 454.39 498.73 454.38 498.73 454.36 498.73 454.34 498.73 454.32 498.72 454.3 498.72 454.28 498.72 454.26 498.71 454.25 498.71 454.23 498.71 454.22 498.7 454.19 498.68 454.13 498.67 453.94 498.67 453.92 498.67 453.9 498.67 453.89 498.67 453.87 498.67 453.86 498.67 453.84 498.66 453.82 498.66 453.8 498.66 453.79 498.66 453.78 498.65 453.67 498.64 453.6 498.64 453.58 498.64 453.56 498.64 453.54 498.64 453.53 498.64 453.51 498.63 453.49 498.63 453.48 498.63 453.46 498.63 453.45 498.63 453.43 498.63 453.41 498.63 453.39 498.63 453.37 498.62 453.35 498.62 453.34 498.61 453.32 498.61 453.26 498.61 453.24 498.61 453.22 498.6 453.21 498.6 453.19 498.6 453.17 498.6 453.15 498.6 453.14 498.61 453.12 498.61 453.1 498.61 453.09 498.61 453.07 498.61 453.05 498.61 453.03 498.61 453.02 498.62 453 498.62 452.99 498.62 452.97 498.62 452.95 498.62 452.94 498.62 452.92 498.62 452.9 498.62 452.88 498.62 452.84 498.62 452.82 498.62 452.81 498.62 452.79 498.61 452.77 498.61 452.75 498.61 452.72 498.61 452.68 498.61 452.65 498.61 452.63 498.61 452.58 498.6 452.54 498.6 452.52 498.6 452.5 498.6 452.48 498.6 452.47 498.6 452.45 498.6 452.44 498.6 452.42 498.61 452.38 498.62 452.35 498.64 452.32 498.66 452.3 498.67 452.29 498.68 452.28 498.7 452.27 498.71 452.26 498.72 452.25 498.74 452.24 498.75 452.23 498.76 452.22 498.77 452.21 498.82 452.19 498.83 452.18 498.84 452.16 498.85 452.15 498.88 452.14 498.89 452.13 498.9 452.12 498.91 452.11 498.93 452.1 498.94 452.08 498.96 452.07 498.98 452.05 499.01 452.01 499.02 451.99 499.03 451.98 499.05 451.96 499.07 451.94 499.1 451.93 499.12 451.91 499.16 451.89 499.18 451.88 499.21 451.86 499.23 451.85 499.25 451.83 499.28 451.8 499.29 451.79 499.32 451.76 499.33 451.75 499.36 451.73 499.38 451.71 499.41 451.68 499.44 451.66 499.47 451.63 499.49 451.62 499.5 451.6 499.53 451.59 499.58 451.58 499.61 451.57 499.65 451.55 499.67 451.55 499.74 451.53 499.78 451.5 499.82 451.49 499.85 451.48 499.88 451.47 499.93 451.46 499.99 451.45 500.03 451.43 500.13 451.39 500.15 451.38 500.21 451.36 500.25 451.35 500.27 451.34 500.32 451.34 500.33 451.34 500.41 451.34 500.53 451.33 500.63 451.32 500.68 451.32 500.69 451.32 500.75 451.31 500.83 451.31 500.99 451.3 501.14 451.29 501.16 451.28 501.18 451.28 501.23 451.28 501.26 451.28 501.3 451.28 501.31 451.28 501.38 451.29 501.42 451.3 501.46 451.3 501.48 451.3 501.5 451.31 501.6 451.32 501.71 451.32 501.75 451.33 501.81 451.34 501.91 451.3 501.96 451.28 502.03 451.26 502.25 451.18 502.48 451.1 502.7 451.02 502.73 451.01 502.79 450.99 502.85 450.98 Z"/>
</g></svg>