<svg xmlns="http://www.w3.org/2000/svg" version="1.2" baseProfile="tiny" stroke-linecap="round" stroke-linejoin="round" viewBox="721.25 120.55 22.83 16.58"><g xmlns="http://www.w3.org/2000/svg" id="Maule-Lextarre">
<path d="M 734.52 122.29 734.52 122.3 734.5 122.34 734.48 122.44 734.46 122.51 734.44 122.59 734.43 122.65 734.41 122.71 734.4 122.77 734.39 122.82 734.38 122.86 734.38 122.89 734.38 122.94 734.51 123 734.67 123.09 734.7 123.11 735.02 123.65 735.37 123.96 735.41 124.03 735.27 124.2 735.47 124.53 735.6 124.62 735.72 124.69 735.84 124.8 735.92 124.88 735.97 124.93 736.02 125.01 736.06 125.06 736.09 125.11 736.1 125.16 736.11 125.19 736.11 125.23 736.12 125.26 736.12 125.32 735.91 125.45 735.96 126.02 736.06 126.08 736.18 126.13 736.28 126.2 736.33 126.23 736.41 126.28 736.47 126.3 736.53 126.29 736.61 126.25 736.65 126.25 736.69 126.28 736.73 126.33 736.79 126.4 736.84 126.45 736.87 126.49 736.89 126.54 736.92 126.59 736.94 126.64 736.96 126.7 737 126.76 737.05 126.81 737.07 126.84 737.09 126.91 737.11 126.98 737.14 127.07 737.17 127.15 737.2 127.21 737.23 127.28 737.26 127.34 737.29 127.37 737.33 127.39 737.39 127.4 737.47 127.39 737.58 127.39 737.72 127.38 737.83 127.38 737.91 127.39 737.97 127.4 738 127.42 738.05 127.45 738.08 127.49 738.12 127.54 738.14 127.58 738.16 127.64 738.18 127.69 738.21 127.72 738.26 127.75 738.34 127.77 738.38 127.78 738.41 127.8 738.46 127.81 738.52 127.81 738.57 127.8 738.62 127.8 738.65 127.82 738.68 127.85 738.71 127.89 738.75 127.94 738.77 127.99 738.78 128.03 738.77 128.07 738.74 128.1 738.71 128.14 738.67 128.2 738.64 128.25 738.63 128.29 738.63 128.31 738.65 128.33 738.7 128.34 738.76 128.36 738.71 128.3 738.84 128.28 739.01 128.25 739.11 128.23 739.21 128.21 739.3 128.2 739.39 128.2 739.49 128.19 739.6 128.19 739.7 128.21 739.83 128.24 739.91 128.28 739.98 128.33 740.04 128.36 740.1 128.41 740.15 128.45 740.2 128.48 740.24 128.52 740.28 128.55 740.32 128.6 740.34 128.65 740.36 128.71 740.39 128.77 740.41 128.82 740.44 128.88 740.47 128.91 740.5 128.94 740.55 128.96 740.61 128.98 740.64 128.99 740.68 129 740.71 129 740.73 129.01 740.75 129.01 740.77 129.03 740.79 129.05 740.81 129.07 740.83 129.11 740.85 129.16 740.87 129.2 740.88 129.23 740.9 129.27 740.92 129.3 740.94 129.32 740.96 129.34 740.98 129.36 741 129.37 741.02 129.38 741.03 129.4 741.04 129.43 741.06 129.45 741.09 129.47 741.12 129.48 741.15 129.49 741.17 129.5 741.2 129.53 741.24 129.59 741.28 129.64 741.3 129.68 741.32 129.72 741.33 129.76 741.32 129.81 741.33 129.86 741.36 129.95 741.43 130.16 741.48 130.35 741.51 130.4 741.52 130.43 741.53 130.47 741.54 130.51 741.55 130.54 741.57 130.56 741.6 130.58 741.63 130.6 741.66 130.64 741.69 130.71 741.71 130.75 741.8 130.87 741.93 130.97 742.19 131.14 742.34 131.19 742.38 131.18 742.4 131.17 742.41 131.17 742.43 131.17 742.51 131.21 742.43 131.42 742.58 132.29 742.89 132.46 743.13 132.68 743.21 132.81 743.23 132.88 743.32 133.29 743.64 133.22 743.79 133.27 744.07 133.31 744.07 133.34 744.05 133.58 744.01 133.74 744 133.75 743.83 133.95 743.59 134.13 743.52 134.19 743.31 134.29 743.18 134.28 743.18 134.21 743.14 134.14 743.12 134.09 743.05 134.08 743.01 134.1 742.95 134.15 742.87 134.29 742.83 134.37 742.81 134.44 742.77 134.52 742.76 134.59 742.74 134.65 742.74 134.69 742.74 134.75 742.74 134.8 742.74 134.86 742.73 134.94 742.44 135.61 742.15 136.27 741.86 136.93 741.65 136.96 741.46 137.08 741.25 137.1 741.21 136.94 741.04 136.77 741.06 136.76 741.07 136.72 741.09 136.65 741.1 136.6 741.11 136.57 740.77 136.11 740.67 135.85 740.6 135.84 740.52 135.82 740.47 135.81 740.39 135.78 740.31 135.74 740.24 135.7 740.18 135.68 739.87 135.55 739.62 135.46 738.83 135.03 737.98 134.58 737.88 134.5 737.84 134.35 737.75 134.28 737.54 134.04 737.36 133.97 737.06 133.97 736.89 134.04 736.7 134.17 736.47 134.12 736.37 134.18 736.27 134.25 736.17 134.32 736.16 134.33 736.02 134.41 735.92 134.49 735.87 134.53 735.74 134.39 735.71 134.33 735.51 134.02 735.3 133.96 735.19 133.97 735 134.03 734.77 133.96 734.68 133.89 734.48 133.59 734.43 133.58 734.38 133.63 734.31 133.62 734.03 133.23 734.03 133.15 734.04 133.01 734.05 132.89 734.06 132.82 734.06 132.74 734.05 132.63 734.05 132.58 734.05 132.54 734.04 132.44 734.03 132.39 734.01 132.31 733.99 132.25 733.98 132.19 733.95 132.14 733.92 132.1 733.86 132.07 733.81 132.04 733.79 132.01 733.78 131.98 733.77 131.89 733.76 131.82 733.75 131.77 733.76 131.74 733.76 131.71 733.75 131.67 733.75 131.63 733.42 131.6 733.45 131.47 733.27 131.4 733.34 131.1 733.16 131.11 732.87 131.21 732.51 131.15 732.33 131.21 732.21 131.25 732.12 131.28 732.06 131.3 732.03 131.3 732.06 131.24 732 131.19 731.95 131.15 731.9 131.11 731.86 131.07 731.8 131.03 731.76 131 731.71 130.98 731.67 130.95 731.61 130.93 731.55 130.91 731.51 130.89 731.48 130.87 731.45 130.83 731.41 130.8 731.35 130.78 731.27 130.75 731.23 130.72 731.19 130.7 731.14 130.69 731.09 130.68 731.02 130.66 730.97 130.65 730.94 130.66 730.89 130.67 730.84 130.66 730.8 130.65 730.75 130.62 730.7 130.58 730.65 130.55 730.61 130.52 730.57 130.49 730.51 130.48 730.43 130.48 730.38 130.47 730.32 130.46 730.23 130.44 729.48 130.25 729.5 130.16 729.53 130.06 729.57 129.95 729.63 129.83 729.67 129.75 729.68 129.69 729.69 129.59 729.67 129.39 729.66 129.32 729.62 129.24 729.59 129.19 729.58 129.09 729.57 129.02 729.32 128.98 729.31 128.99 729.29 129.01 729.27 129.03 729.25 129.04 729.23 129.06 729.16 129.09 729.13 129.1 729.11 129.1 729.09 129.1 729.07 129.1 729.05 129.1 729.03 129.1 729.01 129.11 728.99 129.13 728.96 129.15 728.92 129.19 728.88 129.21 728.84 129.27 728.82 129.29 728.78 129.21 728.77 129.21 728.7 129.22 728.58 129.24 728.54 129.24 728.52 129.24 728.49 129.26 728.44 129.29 728.43 129.3 728.41 129.3 728.4 129.32 728.39 129.34 728.39 129.36 728.3 129.39 728.22 129.42 728.08 129.46 728.06 129.47 728.04 129.48 728.02 129.5 728.01 129.51 727.97 129.54 727.78 129.4 727.75 129.38 727.73 129.36 727.69 129.34 727.65 129.33 727.62 129.32 727.59 129.31 727.53 129.28 727.49 129.25 727.46 129.23 727.44 129.21 727.4 129.17 727.34 129.12 727.3 129.09 727.27 129.06 727.24 129.03 727.22 129 727.19 128.96 727.17 128.94 727.14 128.92 727.12 128.9 727.1 128.88 727.07 128.85 727.05 128.83 727.02 128.82 726.97 128.81 726.94 128.8 726.9 128.78 726.87 128.77 726.85 128.75 726.8 128.73 726.77 128.71 726.74 128.7 726.71 128.68 726.67 128.67 726.64 128.66 726.58 128.61 726.55 128.59 726.5 128.54 726.44 128.48 726.42 128.46 726.39 128.44 726.36 128.42 726.31 128.39 726.28 128.38 726.25 128.36 726.22 128.33 726.19 128.31 726.15 128.29 726.12 128.27 726.09 128.26 726.04 128.25 725.96 128.22 725.87 128.16 725.78 128.11 725.73 128.06 725.64 127.96 725.59 127.89 725.54 127.86 725.46 127.81 725.36 127.74 725.31 127.71 725.27 127.66 725.24 127.61 725.2 127.57 725.14 127.53 725.1 127.5 725.05 127.47 724.95 127.41 724.87 127.37 724.72 127.25 724.56 127.11 724.46 127.01 724.42 126.97 724.4 126.96 724.3 126.93 724.21 126.9 724.1 126.87 724.01 126.83 723.96 126.81 723.92 126.78 723.87 126.73 723.81 126.67 723.77 126.61 723.73 126.57 723.66 126.52 723.61 126.46 723.57 126.4 723.51 126.29 723.49 126.24 723.44 126.13 723.39 126.03 723.33 125.94 723.27 125.84 723.23 125.78 723.2 125.73 723.16 125.67 723.12 125.64 723.08 125.59 723.03 125.54 722.99 125.51 722.95 125.47 722.91 125.42 722.87 125.38 722.83 125.34 722.79 125.32 722.76 125.28 722.71 125.23 722.64 125.05 722.67 124.71 722.62 124.28 722.55 124.02 722.21 123.86 721.35 123.6 721.28 123.57 721.25 123.55 721.26 123.54 721.26 123.51 721.27 123.48 721.27 123.45 721.27 123.42 721.27 123.39 721.28 123.34 721.28 123.31 721.29 123.24 721.29 123.19 721.3 123.13 721.3 123.08 721.31 123.02 721.31 122.97 721.32 122.91 721.32 122.86 721.33 122.82 721.33 122.77 721.34 122.72 721.34 122.68 721.35 122.63 721.36 122.54 721.38 122.39 721.39 122.29 721.4 122.22 721.41 122.15 721.42 122.06 721.43 121.98 721.44 121.88 721.46 121.81 721.46 121.73 721.46 121.67 721.48 121.57 721.49 121.48 721.51 121.32 721.52 121.16 721.81 121.79 721.91 121.89 722.21 121.95 722.3 122.06 722.46 122.32 722.48 122.35 722.91 122.29 723.01 122.26 723.12 122.22 723.19 122.2 723.26 122.18 723.31 122.17 723.35 122.17 723.38 122.18 723.42 122.19 723.45 122.2 723.48 122.21 723.5 122.21 723.51 122.2 723.53 122.19 723.57 122.12 723.62 122.05 723.75 121.9 723.86 121.79 723.95 121.73 724.03 121.67 724.11 121.61 724.23 121.55 724.29 121.51 724.36 121.48 724.4 121.47 724.42 121.47 724.44 121.48 724.47 121.49 724.49 121.5 724.5 121.51 724.51 121.5 724.51 121.49 724.51 121.47 724.5 121.46 724.5 121.44 724.49 121.41 724.52 121.43 724.55 121.47 724.6 121.54 724.66 121.62 724.68 121.67 724.7 121.71 724.71 121.75 724.73 121.78 724.74 121.81 724.75 121.84 724.78 121.92 724.8 121.99 724.84 122.07 724.86 122.12 724.89 122.13 724.91 122.15 724.94 122.15 724.97 122.15 725 122.13 725.03 122.11 725.08 122.07 725.12 122.05 725.16 122.03 725.2 122.02 725.23 122.02 725.26 122.01 725.29 122.02 725.35 122.04 725.42 121.89 725.66 121.69 725.76 121.63 725.97 121.66 726.03 121.69 726.1 121.74 726.15 121.77 726.2 121.81 726.23 121.84 726.26 121.87 726.28 121.91 726.32 121.95 726.38 122 726.44 122.06 726.48 122.1 726.49 122.13 726.5 122.16 726.51 122.18 726.53 122.2 726.55 122.22 726.58 122.22 726.62 122.24 726.69 122.26 726.91 122.08 727.03 122 727.17 122.03 727.74 122.27 727.89 122.26 728.05 122.17 728.17 122.18 728.36 122.36 728.41 122.35 728.44 122.32 728.83 122.04 729.16 121.71 729.71 121.25 729.78 121.26 730.05 121.37 730.58 121.42 730.67 121.43 730.7 121.44 730.73 121.45 730.75 121.46 730.78 121.47 730.81 121.48 730.84 121.51 730.88 121.53 730.9 121.53 730.93 121.54 730.97 121.54 731.01 121.54 731.04 121.54 731.13 121.57 731.16 121.58 731.2 121.59 731.25 121.6 731.29 121.6 731.32 121.6 731.36 121.6 731.4 121.59 731.43 121.57 731.48 121.54 731.52 121.52 731.58 121.49 731.62 121.47 731.67 121.44 731.73 121.41 731.79 121.37 731.84 121.33 731.88 121.3 731.91 121.27 731.95 121.24 731.98 121.21 732.01 121.18 732.03 121.15 732.04 121.12 732.06 121.1 732.07 121.08 732.09 121.06 732.13 121.04 732.15 121.04 732.19 121.02 732.22 121.01 732.25 120.99 732.3 120.96 732.34 120.92 732.36 120.9 732.39 120.86 732.42 120.82 732.44 120.79 732.47 120.76 732.5 120.74 732.53 120.73 732.56 120.71 732.59 120.69 732.63 120.66 732.66 120.62 732.7 120.58 732.72 120.56 732.84 120.64 733.04 120.74 734 120.68 734.03 121.11 734.34 121.06 734.35 121.08 734.37 121.21 734.39 121.28 734.41 121.37 734.41 121.43 734.41 121.49 734.39 121.63 734.36 121.73 734.32 121.81 734.28 121.89 734.2 121.99 734.38 122.18 734.52 122.29 Z"/>
</g></svg>