<svg xmlns="http://www.w3.org/2000/svg" version="1.2" baseProfile="tiny" stroke-linecap="round" stroke-linejoin="round" viewBox="216.57 159.75 15.82 21.28"><g xmlns="http://www.w3.org/2000/svg" id="Mañaria">
<path d="M 218.48 159.77 219.05 159.94 219.37 159.98 219.57 160.03 219.95 160.17 220.11 160.33 220.44 160.43 220.54 160.43 220.7 160.41 220.77 160.4 220.84 160.4 221.05 160.44 221.62 160.61 222.13 160.6 223.28 161.35 224.18 162.02 224.77 162.33 225.27 162.57 225.61 162.8 226 162.62 226.05 162.08 226.46 162.15 227.2 162.63 227.64 163.06 228.14 163.14 228.63 163 229.09 163.27 229.24 163.56 229.4 163.93 229.82 164.83 230.32 164.4 230.48 164.39 230.64 164.55 230.8 164.61 230.86 164.78 230.65 164.95 230.59 164.95 230.32 164.76 229.93 164.95 230.43 165.52 231.13 166.19 232.36 167.01 232.15 167.58 231.05 170.29 230.99 170.45 230.97 170.54 230.95 170.68 230.93 170.99 230.87 171.51 230.81 172.14 230.75 172.69 230.75 172.71 230.69 173.17 230.66 173.56 230.65 173.88 230.65 173.89 230.66 174.27 230.65 174.28 230.66 174.31 230.66 174.34 230.66 174.64 230.66 174.81 230.62 175.02 230.62 175.03 230.61 175.04 230.55 175.22 230.52 175.37 230.49 175.66 230.48 175.77 230.48 175.84 230.48 175.93 230.48 175.99 230.48 176.09 230.49 176.2 230.48 176.3 230.48 176.39 230.48 176.47 230.48 176.52 230.49 176.57 230.5 176.61 230.51 176.65 230.53 176.75 230.54 176.82 230.57 176.95 230.58 177.05 230.58 177.17 230.57 177.32 230.57 177.44 230.56 177.5 230.54 177.52 230.53 177.52 230.46 177.52 230.16 177.59 229.89 177.68 229.53 177.8 229.3 177.84 229.02 177.88 229.05 178.09 229.08 178.27 229.11 178.39 229.13 178.5 229.14 178.58 229.17 178.66 229.19 178.72 229.21 178.76 229.22 178.8 229.22 178.9 229.12 179.39 227.82 180.61 227.19 180.66 226.48 180.68 225.68 180.76 225.39 180.83 224.51 181.02 224.24 180.92 223.89 180.93 222.5 180.47 222.39 180.64 221.07 179.69 220.78 179.07 220.73 178.84 220.7 178.77 220.61 178.55 220.53 178.27 220.53 178.26 220.45 177.97 220.31 177.53 220.19 177.18 220.1 176.95 219.97 176.61 219.81 176.18 219.85 175.85 219.87 175.53 219.91 175.38 220 175.1 220.13 174.74 220.25 174.45 220.36 174.18 220.45 173.96 220.56 173.71 220.64 173.42 220.76 173.1 220.83 172.84 220.73 172.59 220.65 172.37 220.55 172.17 220.44 171.98 220.35 171.84 220.28 171.74 220.26 171.63 220.23 171.52 220.26 171.37 220.24 171.23 220.21 171.13 220.16 170.99 220.13 170.86 220.05 170.85 220.01 170.72 220 170.6 220 170.58 220 170.41 220 170.4 220 170.2 220 170.18 219.99 170.01 219.91 169.95 219.84 169.9 219.74 169.84 219.64 169.79 219.47 169.72 219.25 169.61 219.05 169.51 219.03 169.49 218.85 169.41 218.78 169.37 218.66 169.28 218.65 169.27 218.6 169.23 218.52 169.15 218.46 169.1 218.39 169.05 218.26 168.96 218.04 168.79 217.87 168.65 217.73 168.53 217.64 168.45 217.54 168.39 217.46 168.28 217.38 168.17 217.27 168.05 217.21 168 217.15 167.9 217.08 167.78 217.02 167.66 216.93 167.46 216.84 167.26 216.77 167.02 216.75 166.85 216.73 166.66 216.71 166.52 216.71 166.36 216.7 166.22 216.69 166.13 216.65 165.97 216.6 165.79 216.59 165.69 216.59 165.61 216.63 165.35 216.7 164.7 216.76 164.05 216.8 163.71 216.83 163.41 216.84 163.21 216.86 162.99 216.85 162.9 216.83 162.76 216.82 162.67 216.81 162.61 216.72 162.54 216.63 162.34 216.91 161.84 217 161.67 217.21 161.35 217.41 161.04 217.61 160.73 217.75 160.51 217.86 160.34 218.09 160.1 218.23 159.96 218.32 159.88 218.45 159.78 218.48 159.77 Z"/>
</g></svg>