<svg xmlns="http://www.w3.org/2000/svg" version="1.2" baseProfile="tiny" stroke-linecap="round" stroke-linejoin="round" viewBox="453.37 338.37 11.92 24.4"><g xmlns="http://www.w3.org/2000/svg" id="Mañeru">
<path d="M 457.77 340.49 457.79 340.55 457.81 340.7 457.81 340.76 457.81 340.77 457.81 340.86 457.81 340.89 457.81 340.98 457.81 341.11 457.81 341.17 457.82 341.25 457.82 341.3 457.82 341.37 457.82 341.38 457.83 341.4 457.84 341.46 457.85 341.61 457.86 341.71 457.87 341.79 457.87 341.83 457.88 341.89 457.89 341.92 457.9 341.99 457.9 342.07 457.91 342.1 457.92 342.14 457.95 342.23 457.97 342.27 458.01 342.41 458.03 342.47 458.03 342.49 458.03 342.51 458.04 342.52 458.04 342.53 458.08 342.58 458.11 342.64 458.12 342.66 458.13 342.69 458.15 342.75 458.16 342.77 458.17 342.79 458.18 342.82 458.22 342.94 458.25 343.01 458.27 343.04 458.3 343.1 458.34 343.15 458.42 343.23 458.45 343.27 458.47 343.28 458.48 343.29 458.49 343.3 458.51 343.31 458.51 343.32 458.56 343.37 458.61 343.44 458.62 343.44 458.64 343.47 458.66 343.5 458.72 343.55 458.75 343.58 458.78 343.6 458.83 343.63 458.86 343.65 458.94 343.69 458.97 343.72 459.06 343.79 459.09 343.8 459.12 343.82 459.15 343.86 459.17 343.87 459.23 343.9 459.28 343.94 459.3 343.95 459.3 343.95 459.38 344 459.47 344.07 459.48 344.08 459.51 344.1 459.56 344.12 459.59 344.14 459.6 344.16 459.64 344.2 459.67 344.23 459.69 344.25 459.75 344.28 459.79 344.3 459.86 344.32 459.94 344.34 460 344.37 460.03 344.38 460.1 344.42 460.12 344.42 460.15 344.43 460.25 344.45 460.3 344.47 460.31 344.47 460.35 344.48 460.39 344.49 460.41 344.5 460.43 344.5 460.45 344.51 460.48 344.52 460.52 344.56 460.55 344.58 460.58 344.6 460.65 344.66 460.7 344.7 460.75 344.73 460.77 344.75 460.79 344.77 460.81 344.79 460.82 344.8 460.84 344.82 460.85 344.83 460.85 344.84 460.87 344.89 460.9 344.92 460.93 344.97 460.93 344.98 460.95 345.01 460.96 345.04 460.99 345.08 461.04 345.12 461.08 345.18 461.09 345.19 461.12 345.23 461.14 345.27 461.15 345.28 461.16 345.31 461.18 345.34 461.19 345.35 461.22 345.4 461.25 345.45 461.29 345.55 461.3 345.58 461.31 345.58 461.33 345.6 461.38 345.66 461.39 345.67 461.42 345.7 461.46 345.74 461.52 345.82 461.57 345.87 461.59 345.89 461.62 345.92 461.63 345.93 461.68 345.98 461.69 345.99 461.7 346.01 461.74 346.05 461.78 346.09 461.79 346.1 461.81 346.13 461.86 346.19 461.9 346.23 461.91 346.23 461.91 346.24 461.94 346.27 461.99 346.32 462 346.34 462.03 346.37 462.12 346.47 462.19 346.55 462.2 346.56 462.25 346.62 462.28 346.66 462.35 346.72 462.31 346.76 462.29 346.8 462.26 346.85 462.25 346.88 462.23 346.9 462.22 346.93 462.21 346.96 462.21 346.96 462.19 347 462.19 347.01 462.19 347.03 462.29 347.15 462.33 347.2 462.37 347.24 462.41 347.31 462.42 347.34 462.42 347.36 462.43 347.39 462.46 347.46 462.46 347.47 462.47 347.48 462.47 347.49 462.51 347.54 462.55 347.6 462.57 347.65 462.61 347.71 462.61 347.73 462.64 347.78 462.66 347.85 462.68 347.92 462.69 347.95 462.7 347.99 462.72 348.07 462.75 348.13 462.76 348.18 462.77 348.22 462.8 348.28 462.8 348.29 462.82 348.34 462.85 348.38 462.86 348.42 462.86 348.43 462.87 348.44 462.87 348.46 462.88 348.5 462.88 348.51 462.89 348.59 462.9 348.65 462.91 348.71 462.93 348.77 462.94 348.79 462.95 348.8 462.95 348.81 462.98 348.85 462.99 348.87 463 348.89 463.01 348.94 463.02 348.97 463.02 349 463.04 349.04 463.07 349.08 463.11 349.13 463.12 349.16 463.13 349.17 463.16 349.23 463.18 349.26 463.21 349.32 463.25 349.38 463.29 349.43 463.32 349.47 463.33 349.52 463.36 349.57 463.38 349.61 463.42 349.64 463.46 349.68 463.51 349.72 463.54 349.74 463.57 349.77 463.57 349.78 463.61 349.85 463.62 349.87 463.64 349.9 463.58 349.98 463.55 350.04 463.51 350.09 463.45 350.15 463.4 350.21 463.32 350.27 463.28 350.3 463.23 350.34 463.15 350.38 463.05 350.43 462.96 350.46 462.89 350.49 462.81 350.49 462.73 350.5 462.62 350.5 462.48 350.48 462.37 350.47 462.26 350.42 462.15 350.37 462.03 350.31 461.94 350.28 461.86 350.24 461.76 350.19 461.67 350.14 461.58 350.09 461.53 350.07 461.41 350.02 461.32 349.96 461.24 349.92 461.13 349.88 461.04 349.84 461.01 349.84 460.94 349.86 460.88 349.9 460.83 349.95 460.77 350.01 460.72 350.06 460.7 350.1 460.65 350.15 460.6 350.21 460.56 350.25 460.49 350.3 460.45 350.34 460.4 350.37 460.35 350.41 460.29 350.46 460.26 350.51 460.26 350.54 460.25 350.6 460.24 350.67 460.25 350.73 460.27 350.82 460.29 350.88 460.31 350.91 460.34 350.94 460.38 350.99 460.44 351.05 460.49 351.09 460.54 351.13 460.6 351.18 460.64 351.23 460.69 351.27 460.75 351.31 460.81 351.33 460.87 351.36 460.94 351.39 460.98 351.4 461.03 351.41 461.08 351.43 461.12 351.46 461.17 351.49 461.2 351.52 461.25 351.57 461.31 351.63 461.34 351.67 461.39 351.72 461.46 351.79 461.55 351.87 461.61 351.92 461.69 351.98 461.78 352.05 461.84 352.09 461.88 352.15 461.93 352.19 462.02 352.31 462.06 352.36 462.11 352.4 462.17 352.45 462.23 352.5 462.31 352.58 462.38 352.64 462.42 352.68 462.47 352.72 462.52 352.78 462.55 352.81 462.6 352.89 462.62 352.97 462.64 353.04 462.66 353.17 462.67 353.33 462.69 353.45 462.7 353.59 462.72 353.7 462.73 353.8 462.75 353.92 462.76 354.02 462.78 354.12 462.79 354.23 462.81 354.38 462.84 354.5 462.88 354.63 462.93 354.76 462.97 354.89 463.03 355.03 463.08 355.16 463.12 355.27 463.14 355.43 463.17 355.51 463.2 355.56 463.24 355.64 463.28 355.71 463.32 355.76 463.37 355.81 463.42 355.85 463.48 355.87 463.55 355.89 463.63 355.92 463.68 355.94 463.75 355.97 463.81 356 463.86 356.03 463.9 356.06 463.96 356.11 464.01 356.15 464.08 356.2 464.17 356.29 464.27 356.38 464.37 356.45 464.47 356.54 464.58 356.63 464.65 356.69 464.73 356.77 464.77 356.83 464.85 356.96 464.88 357.02 464.91 357.09 464.94 357.15 464.97 357.23 464.99 357.29 465.02 357.37 465.04 357.44 465.06 357.5 465.09 357.56 465.1 357.59 465.11 357.63 465.13 357.69 465.16 357.77 465.19 357.85 465.22 357.93 465.25 358 465.26 358.06 465.27 358.16 465.27 358.22 465.27 358.28 465.26 358.37 465.26 358.44 465.25 358.51 465.22 358.6 465.2 358.66 465.18 358.71 465.15 358.77 465.11 358.84 465.07 358.89 465.05 358.92 464.99 359 464.95 359.04 464.88 359.1 464.82 359.15 464.75 359.2 464.7 359.23 464.64 359.26 464.55 359.29 464.47 359.3 464.37 359.32 464.28 359.34 464.2 359.35 464.12 359.34 464.06 359.34 463.98 359.35 463.87 359.31 463.78 359.27 463.72 359.25 463.52 359.14 463.34 359.03 463.25 358.85 463.12 358.75 463.08 358.72 462.91 358.5 462.86 358.45 462.81 358.38 462.76 358.33 462.74 358.31 462.71 358.27 462.68 358.23 462.66 358.21 462.58 358.11 462.57 358.11 462.55 358.08 462.52 358.05 462.42 357.93 462.34 357.84 462.32 357.82 462.28 357.76 462.22 357.7 462.14 357.61 462.07 357.55 462 357.48 461.98 357.46 461.94 357.45 461.89 357.44 461.84 357.45 461.81 357.46 461.78 357.47 461.72 357.51 461.68 357.54 461.63 357.58 461.59 357.62 461.58 357.65 461.56 357.68 461.52 357.72 461.5 357.76 461.49 357.82 461.48 357.9 461.49 357.98 461.49 358.04 461.5 358.1 461.51 358.14 461.54 358.18 461.56 358.23 461.6 358.3 461.62 358.32 461.64 358.36 461.69 358.44 461.76 358.53 461.8 358.58 461.84 358.63 461.89 358.69 461.93 358.73 461.98 358.79 462.02 358.84 462.07 358.9 462 358.95 461.95 358.98 461.91 359.01 461.82 359.05 461.68 359.12 461.65 359.09 461.59 359.05 461.53 359 461.51 359.01 461.45 359.05 461.37 359.1 461.18 359.19 461.14 359.21 461.09 359.23 461.02 359.26 460.96 359.28 460.95 359.29 460.93 359.29 460.91 359.29 460.89 359.3 460.88 359.3 460.87 359.31 460.86 359.31 460.79 359.38 460.74 359.44 460.73 359.46 460.72 359.46 460.68 359.5 460.61 359.54 460.6 359.54 460.56 359.56 460.46 359.63 460.37 359.69 460.31 359.73 460.25 359.78 460.23 359.8 460.2 359.82 460.19 359.83 460.16 359.85 460.15 359.86 460.11 359.88 460.07 359.91 460 359.96 459.92 360.01 459.85 360.06 459.82 360.07 459.8 360.08 459.73 360.11 459.72 360.12 459.69 360.14 459.67 360.15 459.61 360.19 459.58 360.21 459.52 360.25 459.47 360.28 459.46 360.3 459.41 360.32 459.39 360.33 459.31 360.38 459.26 360.41 459.24 360.42 459.21 360.46 459.18 360.48 459.13 360.52 459.11 360.53 459.02 360.59 459 360.61 458.97 360.65 458.97 360.66 458.94 360.7 458.84 360.81 458.79 360.87 458.78 360.89 458.73 360.96 458.7 361 458.66 361.05 458.61 361.11 458.59 361.14 458.57 361.15 458.55 361.18 458.47 361.28 458.45 361.31 458.41 361.34 458.41 361.35 458.36 361.41 458.33 361.44 458.25 361.49 458.22 361.52 458.17 361.54 458.12 361.59 458.08 361.62 458.05 361.64 458.02 361.66 457.96 361.71 457.89 361.76 457.89 361.76 457.84 361.8 457.82 361.82 457.79 361.84 457.78 361.85 457.72 361.9 457.71 361.91 457.61 362 457.55 362.06 457.49 362.11 457.43 362.17 457.39 362.21 457.35 362.26 457.31 362.31 457.26 362.36 457.25 362.37 457.23 362.39 457.22 362.41 457.17 362.47 457.12 362.53 457.07 362.58 457.04 362.62 456.99 362.68 456.98 362.69 456.96 362.72 456.92 362.76 456.79 362.7 456.69 362.65 456.38 362.52 456.36 362.51 456.35 362.51 456.27 362.42 456.22 362.36 456.12 362.27 456.04 362.19 456.03 362.19 455.96 362.15 455.72 362.01 455.67 361.98 455.55 361.91 455.54 361.91 455.46 361.84 455.36 361.76 455.34 361.75 455.34 361.74 455.33 361.74 455.14 361.58 455.12 361.56 454.99 361.46 454.94 361.41 454.56 361.16 454.55 361.16 454.2 360.92 454.11 360.86 453.92 360.72 453.82 360.66 453.74 360.61 453.74 360.6 453.45 360.46 453.46 360.39 453.49 360.31 453.5 360.26 453.52 360.19 453.41 359.87 453.39 359.83 453.39 359.82 453.42 359.77 453.44 359.75 453.54 359.56 453.56 359.43 453.56 359.42 453.56 359.4 453.59 359.24 453.59 359.23 453.62 359.07 453.62 359.05 453.63 359 453.66 358.86 453.66 358.85 453.73 358.41 453.73 358.4 453.74 358.35 453.74 358.3 453.73 358.19 453.72 358.16 453.72 358.14 453.71 358.04 453.68 357.83 453.67 357.75 453.67 357.74 453.7 357.56 453.72 357.45 453.72 357.45 453.72 357.42 453.74 357.3 453.77 357.11 453.79 357 453.8 356.97 453.8 356.93 453.8 356.92 453.81 356.9 453.81 356.89 453.83 356.76 453.86 356.4 453.89 356.07 453.9 356 453.9 355.96 453.92 355.78 453.92 355.75 453.92 355.67 453.93 355.57 453.93 355.56 453.94 355.53 453.94 355.49 453.94 355.47 453.94 355.42 453.94 355.4 453.94 355.34 453.94 355.33 453.95 355.19 453.97 354.91 453.97 354.89 453.97 354.86 453.97 354.82 453.99 354.49 453.99 354.47 453.99 354.35 454 354.29 454.02 353.94 454.03 353.9 454.03 353.84 454.05 353.53 454.05 353.52 454.05 353.5 454.06 353.4 454.06 353.39 454.09 353.09 454.08 353.08 454.01 352.95 454 352.93 453.99 352.91 454.01 352.81 454.05 352.47 454.05 352.31 454.05 352.31 454.05 352.23 454.05 352.16 454.05 352.13 454.05 352.08 454.05 352.02 454.05 351.98 454.05 351.97 454.05 351.89 454.05 351.86 454.04 351.78 454.04 351.76 454.03 351.65 454.02 351.58 454.02 351.57 454.02 351.52 454.02 351.5 454.02 351.48 454.02 351.41 454.02 351.39 454.02 351.37 454.02 351.34 454.03 351.26 454.03 351.24 454.03 351.16 454.07 351.05 454.08 351.04 454.08 351.03 454.08 351.02 454.09 351.01 454.08 350.98 454.04 350.82 453.96 350.73 453.88 350.65 453.87 350.56 453.87 350.54 453.87 350.53 453.86 350.48 453.86 350.46 453.85 350.43 453.85 350.35 453.84 350.33 453.84 350.33 453.83 350.2 453.82 350.07 453.81 349.99 453.8 349.87 453.79 349.81 453.78 349.75 453.78 349.65 453.78 349.55 453.78 349.42 453.77 349.26 453.77 349.16 453.76 349.13 453.76 349.12 453.76 349.11 453.75 349.04 453.73 348.95 453.72 348.92 453.71 348.84 453.7 348.79 453.7 348.77 453.69 348.77 453.69 348.76 453.69 348.74 453.69 348.68 453.69 348.58 453.68 348.47 453.68 348.35 453.67 348.26 453.66 348.23 453.66 348.2 453.66 348.19 453.65 348.15 453.64 348.12 453.61 348.05 453.6 347.99 453.58 347.9 453.56 347.85 453.57 347.83 453.59 347.75 453.6 347.68 453.61 347.65 453.62 347.63 453.62 347.62 453.63 347.56 453.64 347.54 453.65 347.49 453.66 347.48 453.67 347.45 453.67 347.44 453.69 347.38 453.7 347.35 453.71 347.32 453.73 347.27 453.74 347.22 453.75 347.22 453.8 347.15 453.81 347.14 453.9 347.03 453.93 346.99 453.97 346.96 454.09 346.81 454.16 346.73 454.17 346.72 454.19 346.6 454.19 346.58 454.25 346.39 454.27 346.32 454.28 346.3 454.29 346.27 454.33 346.21 454.34 346.18 454.36 346.16 454.36 346.14 454.45 346 454.52 345.87 454.59 345.72 454.62 345.66 454.68 345.52 454.77 345.34 454.78 345.33 454.79 345.31 454.8 345.29 454.83 345.24 454.85 345.2 454.86 345.18 454.87 345.18 454.87 345.16 454.9 345.11 454.92 345.06 454.94 345.03 454.95 345.01 454.97 344.95 454.98 344.93 455 344.88 455.01 344.86 455.06 344.78 455.06 344.77 455.07 344.75 455.08 344.75 455.09 344.74 455.11 344.71 455.13 344.68 455.15 344.66 455.16 344.64 455.19 344.58 455.24 344.5 455.25 344.48 455.3 344.38 455.32 344.33 455.34 344.28 455.35 344.27 455.38 344.19 455.35 344.13 455.33 344.07 455.3 343.98 455.29 343.94 455.25 343.84 455.22 343.74 455.2 343.67 455.2 343.67 455.19 343.65 455.17 343.61 455.14 343.51 455.12 343.47 455.08 343.38 455.04 343.29 455.04 343.27 455.01 343.21 455.01 343.2 454.97 343.1 454.93 343.01 454.92 342.99 454.9 342.91 454.88 342.82 454.87 342.73 454.85 342.62 454.84 342.6 454.83 342.55 454.82 342.51 454.81 342.47 454.8 342.42 454.77 342.29 454.74 342.15 454.73 342.05 454.71 341.99 454.7 341.93 454.67 341.79 454.66 341.77 454.63 341.64 454.62 341.58 454.58 341.42 454.55 341.25 454.54 341.25 454.52 341.16 454.51 341.12 454.49 341.02 454.49 340.99 454.48 340.98 454.47 340.94 454.44 340.82 454.43 340.76 454.42 340.72 454.41 340.69 454.41 340.68 454.37 340.59 454.35 340.52 454.34 340.46 454.31 340.34 454.3 340.3 454.28 340.19 454.27 340.18 454.25 340.11 454.24 340.06 454.21 339.95 454.21 339.91 454.2 339.88 454.2 339.84 454.19 339.79 454.17 339.69 454.15 339.59 454.14 339.56 454.12 339.44 454.1 339.4 454.08 339.36 454.07 339.35 454.06 339.33 454.05 339.31 454.03 339.28 454.03 339.27 453.99 339.17 453.92 339.04 453.9 338.99 453.89 338.98 453.84 338.87 453.82 338.81 453.8 338.77 453.76 338.68 453.75 338.66 453.74 338.65 453.68 338.52 453.64 338.42 453.64 338.41 453.62 338.37 453.65 338.39 453.7 338.41 453.74 338.44 453.78 338.45 453.82 338.46 453.86 338.48 453.9 338.49 453.92 338.49 453.94 338.5 453.97 338.52 454.01 338.56 454.06 338.59 454.09 338.61 454.12 338.64 454.15 338.66 454.19 338.69 454.23 338.72 454.31 338.78 454.33 338.8 454.35 338.82 454.37 338.83 454.4 338.86 454.43 338.89 454.47 338.93 454.5 338.96 454.53 338.99 454.54 339 454.6 339.05 454.63 339.09 454.7 339.14 454.73 339.16 454.79 339.2 454.84 339.25 454.9 339.3 454.94 339.34 454.98 339.37 455 339.39 455.01 339.4 455.03 339.42 455.04 339.43 455.05 339.44 455.08 339.47 455.09 339.49 455.14 339.52 455.16 339.55 455.19 339.58 455.19 339.59 455.22 339.61 455.27 339.66 455.32 339.69 455.35 339.72 455.4 339.75 455.44 339.78 455.49 339.82 455.53 339.86 455.57 339.89 455.58 339.9 455.62 339.93 455.67 339.97 455.69 339.99 455.71 340 455.72 340 455.76 340.03 455.81 340.05 455.83 340.07 455.85 340.08 455.91 340.11 455.96 340.14 456 340.17 456.03 340.19 456.04 340.21 456.06 340.22 456.09 340.24 456.1 340.25 456.15 340.29 456.19 340.33 456.27 340.38 456.27 340.38 456.3 340.41 456.35 340.44 456.4 340.47 456.43 340.49 456.47 340.51 456.51 340.54 456.56 340.56 456.61 340.58 456.64 340.59 456.68 340.6 456.71 340.6 456.71 340.6 456.73 340.6 456.76 340.61 456.81 340.61 456.85 340.61 456.91 340.62 456.99 340.61 457.04 340.61 457.09 340.61 457.13 340.61 457.19 340.61 457.24 340.6 457.3 340.6 457.35 340.6 457.39 340.6 457.4 340.6 457.44 340.59 457.49 340.59 457.56 340.58 457.6 340.58 457.62 340.57 457.66 340.55 457.72 340.52 457.77 340.49 Z"/>
</g></svg>