<svg xmlns="http://www.w3.org/2000/svg" version="1.2" baseProfile="tiny" stroke-linecap="round" stroke-linejoin="round" viewBox="214.23 396.82 16.98 18.83"><g xmlns="http://www.w3.org/2000/svg" id="Mañueta">
<path d="M 218.24 397.67 218.25 397.67 218.26 397.66 219.11 397.21 219.78 396.83 220 397.15 220.17 397.54 220.35 398.12 220.69 399.04 220.95 399.63 221.19 399.93 221.53 400.06 221.92 400.26 222.38 400.32 222.93 400.53 223.59 400.78 224.07 401.07 224.87 401.32 225.3 401.03 225.5 401.24 225.72 401.6 225.99 402.02 226.19 402.41 226.48 402.87 226.76 403.35 227.09 403.83 227.36 404.18 227.59 404.56 227.77 404.99 227.9 405.47 228.02 405.91 228.14 406.27 228.33 406.59 228.66 406.69 229.14 406.84 229.45 406.97 229.84 407.17 230.31 407.36 231.2 409.47 230.94 409.86 230.62 410.17 230.34 410.46 230.14 410.82 229.94 411.23 229.79 411.74 229.47 412.78 229.53 413.05 229.71 413.36 229.81 413.73 229.86 414.27 229.74 414.57 229.58 414.93 229.38 415.31 229.22 415.63 229.1 415.15 229 414.76 228.92 414.31 228.91 414.07 228.83 413.69 228.64 413.24 228.39 412.88 227.95 412.66 227.42 412.48 227 412.16 226.57 411.71 226.04 411.19 225.66 410.68 225.4 410.48 224.96 410.49 224.35 410.61 223.76 410.68 223.38 410.72 222.87 410.74 222.35 410.77 222.1 410.45 222.04 409.93 222.04 409.36 222.07 408.67 222.09 408.03 222.19 407.36 222.38 406.64 222.49 406.05 222.53 405.61 222.63 405.03 222.74 404.59 222.6 404.23 222.26 404.12 221.91 404.22 221.52 404.64 221.16 405.14 220.7 405.69 220.39 406.1 219.9 406.48 219.33 406.62 218.85 406.75 218.24 406.95 217.68 407.08 217.18 407.27 216.7 407.55 216.31 407.76 215.88 407.84 215.43 407.87 214.84 407.96 214.24 407.93 214.65 407.04 215.03 406.08 215.36 405.43 215.87 404.48 216.17 403.79 216.46 403.17 216.85 402.23 217.12 401.44 217.32 400.76 217.49 400.06 217.72 399.35 218.02 398.68 218.18 398.22 218.24 397.67 Z"/>
</g></svg>