<svg xmlns="http://www.w3.org/2000/svg" version="1.2" baseProfile="tiny" stroke-linecap="round" stroke-linejoin="round" viewBox="649.35 74.12 12.88 21.7"><g xmlns="http://www.w3.org/2000/svg" id="Meharine">
<path d="M 660.78 83.05 660.77 83.08 660.76 83.1 660.71 83.16 660.69 83.17 660.66 83.19 660.63 83.2 660.59 83.22 660.55 83.24 660.53 83.26 660.51 83.29 660.49 83.3 660.48 83.32 660.49 83.38 660.5 83.41 660.5 83.45 660.48 83.49 660.47 83.55 660.46 83.6 660.45 83.65 660.44 83.7 660.44 83.74 660.43 83.79 660.44 83.82 660.43 83.84 660.43 83.86 660.42 83.88 660.41 83.9 660.41 83.96 660.41 83.99 660.41 84.01 660.41 84.04 660.39 84.06 660.38 84.1 660.37 84.11 660.37 84.13 660.37 84.15 660.37 84.18 660.37 84.19 660.38 84.22 660.37 84.26 660.37 84.3 660.36 84.33 660.36 84.38 660.35 84.42 660.34 84.45 660.33 84.5 660.33 84.54 660.33 84.57 660.34 84.61 660.35 84.67 660.35 84.74 660.36 84.81 660.36 84.83 660.37 84.87 660.37 84.89 660.37 84.91 660.36 84.94 660.35 84.97 660.34 85 660.34 85.05 660.34 85.12 660.33 85.15 660.33 85.19 660.33 85.23 660.33 85.27 660.34 85.34 660.32 85.38 660.29 85.46 660.26 85.51 660.23 85.53 660.21 85.58 660.2 85.6 660.19 85.65 660.17 85.68 660.16 85.7 660.14 85.71 660.11 85.75 660.1 85.8 660.1 85.82 660.1 85.83 660.1 85.85 660.09 85.86 660.07 85.89 660.06 85.91 660.07 85.98 660.08 86.09 660.09 86.13 660.09 86.17 660.1 86.18 660.1 86.21 660.1 86.22 660.1 86.23 660.1 86.24 660.11 86.26 660.11 86.27 660.11 86.3 660.11 86.41 660.1 86.43 660.07 86.45 660.06 86.46 660.03 86.49 659.99 86.53 659.97 86.57 659.96 86.59 659.94 86.62 659.91 86.65 659.9 86.66 659.89 86.68 659.88 86.75 659.91 86.75 659.94 86.77 659.98 86.79 660 86.8 660.03 86.81 660.09 86.84 660.14 86.86 660.18 86.88 660.3 86.95 660.39 87.02 660.44 87.08 660.46 87.11 660.51 87.16 660.54 87.2 660.57 87.24 660.59 87.25 660.64 87.27 660.72 87.28 660.75 87.29 660.78 87.29 660.81 87.3 660.86 87.34 660.88 87.35 660.9 87.36 660.92 87.38 660.93 87.4 660.94 87.42 660.95 87.45 660.96 87.47 660.99 87.49 661 87.5 661.01 87.49 661.03 87.49 661.04 87.49 661.05 87.5 661.09 87.5 661.11 87.5 661.14 87.52 661.15 87.53 661.15 87.55 661.15 87.57 661.14 87.59 661.13 87.61 661.13 87.63 661.12 87.66 661.12 87.67 661.11 87.69 661.11 87.72 661.11 87.75 661.11 87.78 661.12 87.82 661.12 87.89 661.13 87.94 661.14 87.96 661.16 87.99 661.18 88 661.2 88.04 661.22 88.06 661.26 88.1 661.29 88.12 661.34 88.15 661.39 88.18 661.41 88.19 661.44 88.22 661.47 88.23 661.49 88.26 661.5 88.29 661.5 88.32 661.52 88.34 661.56 88.37 661.59 88.39 661.63 88.41 661.67 88.43 661.71 88.44 661.75 88.45 661.81 88.49 661.8 88.52 661.79 88.55 661.76 88.58 661.75 88.61 661.72 88.65 661.71 88.69 661.71 88.74 661.68 88.84 661.68 88.93 661.68 88.97 661.69 89.01 661.7 89.04 661.71 89.07 661.72 89.11 661.73 89.14 661.73 89.16 661.71 89.18 661.69 89.2 661.69 89.22 661.72 89.25 661.75 89.33 661.76 89.37 661.77 89.41 661.77 89.45 661.78 89.5 661.79 89.53 661.79 89.57 661.8 89.61 661.82 89.65 661.83 89.69 661.82 89.72 661.81 89.74 661.81 89.76 661.81 89.8 661.83 89.82 661.84 89.83 661.85 89.87 661.87 89.92 661.89 89.96 661.9 90.01 661.92 90.05 661.93 90.08 661.94 90.12 661.94 90.17 661.94 90.21 661.95 90.25 661.97 90.28 662 90.3 662.02 90.32 662.02 90.35 662.03 90.39 662.04 90.44 662.06 90.48 662.07 90.52 662.08 90.56 662.09 90.6 662.11 90.65 662.13 90.7 662.17 90.78 662.19 90.84 662.21 90.91 662.22 90.93 662.19 90.97 662.16 91 662.15 91.06 662.15 91.08 662.14 91.12 662.1 91.18 662.06 91.25 662.03 91.29 662 91.35 661.97 91.41 661.94 91.46 661.91 91.52 661.88 91.55 661.85 91.6 661.82 91.64 661.8 91.67 661.76 91.71 661.74 91.75 661.71 91.78 661.68 91.82 661.67 91.84 661.64 91.88 661.62 91.91 661.59 91.93 661.56 91.95 661.52 91.99 661.49 92.03 661.45 92.09 661.42 92.14 661.38 92.22 661.35 92.26 661.33 92.3 661.32 92.34 661.31 92.37 661.31 92.41 661.31 92.44 661.29 92.5 661.27 92.53 661.25 92.57 661.22 92.61 661.18 92.66 661.15 92.72 661.12 92.77 661.09 92.85 661.06 92.93 661.03 93.01 661.02 93.05 661.01 93.1 661.01 93.15 661.01 93.2 661.02 93.24 661.04 93.3 661.04 93.35 661.05 93.41 661.06 93.45 661.06 93.49 661.06 93.53 661.06 93.58 661.05 93.62 661.04 93.68 661.04 93.71 661.04 93.74 661.05 93.78 661.06 93.82 661.07 93.85 661.08 93.89 661.08 93.91 661.11 94 661.11 94.08 661.1 94.12 661.09 94.2 661.08 94.25 661.08 94.3 661.07 94.36 661.07 94.4 661.06 94.46 661.05 94.52 661.04 94.57 661.03 94.64 661.03 94.69 661.03 94.76 661.02 94.81 661.02 94.85 661.01 94.89 661 94.92 660.98 94.96 660.97 94.99 660.96 95.02 660.94 95.06 660.91 95.12 660.86 95.23 660.81 95.46 660.57 95.73 660.48 95.79 660.39 95.7 660.37 95.7 660.35 95.68 660.33 95.66 660.32 95.63 660.08 95.48 659.66 95.14 659.63 95.15 658.65 94.42 657.67 93.68 656.68 92.92 655.69 92.16 654.69 91.37 653.66 90.54 653.64 90.52 653.61 90.51 653.59 90.49 653.56 90.47 653.54 90.44 653.52 90.41 653.5 90.38 653.49 90.35 653.48 90.32 653.49 90.29 653.51 90.25 653.54 90.22 653.55 90.19 653.58 90.16 653.61 90.15 653.62 90.14 653.61 90.12 653.6 90.11 653.59 90.09 653.57 90.06 653.56 90.04 653.55 90.02 653.53 90 653.51 89.98 653.49 89.96 653.47 89.93 653.46 89.92 653.44 89.91 653.41 89.91 653.38 89.9 653.36 89.89 653.33 89.87 653.3 89.86 653.27 89.84 653.24 89.83 653.21 89.81 653.17 89.8 653.14 89.79 653.11 89.79 653.08 89.78 653.04 89.78 653.01 89.78 652.98 89.78 652.94 89.78 652.91 89.8 652.88 89.81 652.87 89.83 652.84 89.84 652.8 89.86 652.76 89.87 652.74 89.88 652.71 89.9 652.68 89.91 652.64 89.92 652.6 89.92 652.57 89.92 652.54 89.91 652.51 89.9 652.48 89.9 652.45 89.89 652.42 89.89 652.38 89.89 652.34 89.89 652.31 89.9 652.28 89.91 652.25 89.93 652.22 89.94 652.19 89.94 652.17 89.93 652.14 89.91 652.11 89.89 652.09 89.88 652.06 89.86 652.04 89.84 652.01 89.83 651.98 89.83 651.95 89.82 651.93 89.81 651.9 89.79 651.87 89.77 651.85 89.76 651.83 89.75 651.79 89.74 651.76 89.74 651.73 89.73 651.71 89.71 651.71 89.68 651.69 89.66 651.67 89.65 651.64 89.64 651.61 89.63 651.58 89.63 651.56 89.62 651.54 89.62 651.51 89.61 651.49 89.6 651.48 89.59 651.47 89.57 651.45 89.56 651.43 89.55 651.4 89.54 651.35 89.52 651.32 89.52 651.29 89.53 651.25 89.53 651.22 89.53 651.19 89.53 651.16 89.53 651.12 89.53 651.09 89.51 651.06 89.5 651.04 89.49 651.03 89.47 651 89.45 650.98 89.43 650.97 89.42 650.94 89.41 650.92 89.41 650.89 89.41 650.86 89.4 650.83 89.39 650.79 89.37 650.76 89.36 650.73 89.36 650.7 89.36 650.67 89.35 650.63 89.35 650.58 89.34 650.56 89.31 650.56 89.28 650.54 89.25 650.52 89.24 650.5 89.23 650.47 89.22 650.44 89.22 650.42 89.24 650.39 89.24 650.36 89.23 650.33 89.22 650.32 89.21 650.28 89.2 650.22 89.18 650.16 89.16 650.1 89.15 650.06 89.15 650.02 89.14 649.99 89.12 649.95 89.09 649.91 89.07 649.86 89.05 649.81 89.03 649.77 89.02 649.72 89.02 649.66 89.01 649.62 89 649.77 88.55 649.86 88.35 649.87 88.33 649.88 88.31 649.89 88.29 649.89 88.27 649.9 88.25 649.9 88.23 649.9 88.21 649.91 88.18 649.92 88.16 649.94 88.13 649.95 88.12 649.97 88.1 649.99 88.09 650 88.06 650.03 88.03 650.05 88 650.06 87.98 650.07 87.95 650.09 87.9 650.09 87.88 650.09 87.86 650.09 87.84 650.08 87.81 650.04 87.75 650.02 87.71 650.01 87.69 649.99 87.67 650.02 87.69 650.2 87.28 650.38 86.87 650.56 86.46 650.63 86.23 650.57 85.6 650.52 84.98 650.47 84.35 650.42 83.73 650.32 83.4 650.19 82.78 650.06 82.16 649.94 81.52 649.83 80.88 649.75 80.6 649.63 79.97 649.5 79.33 649.37 78.69 649.38 78.64 649.83 78.07 650.89 76.85 651.44 76.25 652.05 75.55 652.65 74.84 652.67 74.82 652.69 74.8 652.71 74.78 652.74 74.78 653.08 74.44 653.37 74.12 653.44 74.12 653.47 74.37 653.69 74.93 653.67 74.95 653.66 74.97 653.66 75 653.66 75.02 653.67 75.04 653.68 75.1 653.71 75.24 653.72 75.32 653.73 75.34 653.74 75.36 653.75 75.39 653.73 75.48 653.71 75.51 653.7 75.54 653.69 75.58 653.69 75.62 653.88 75.85 653.93 76.08 653.92 76.18 654 76.57 654.15 76.75 654.37 76.93 654.57 77.07 654.84 77.32 655.29 77.57 655.44 77.61 655.57 77.73 655.96 77.7 656.08 77.72 656.23 77.74 656.35 77.77 656.51 77.81 656.61 77.83 656.69 77.85 656.78 77.88 656.87 77.91 656.96 77.96 657.01 77.99 657.05 78.02 657.09 78.05 657.12 78.1 657.16 78.14 657.17 78.17 657.18 78.2 657.19 78.19 657.24 78.23 657.27 78.27 657.3 78.32 657.33 78.37 657.33 78.39 657.34 78.4 657.33 78.41 657.32 78.45 657.31 78.47 657.31 78.48 657.32 78.51 657.34 78.55 657.36 78.61 657.37 78.65 657.39 78.69 657.4 78.71 657.42 78.75 657.44 78.79 657.46 78.81 657.47 78.82 657.49 78.83 657.55 78.86 657.58 78.88 657.61 78.9 657.68 78.96 657.73 79 657.77 79.03 657.78 79.05 657.79 79.07 657.8 79.09 657.82 79.11 657.84 79.13 657.88 79.15 657.95 79.18 657.98 79.2 658.01 79.23 658.02 79.25 658.07 79.29 658.09 79.31 658.12 79.32 658.14 79.33 658.18 79.35 658.2 79.35 658.23 79.36 658.32 79.39 658.38 79.4 658.4 79.41 658.42 79.41 658.44 79.41 658.46 79.41 658.49 79.41 658.52 79.42 658.56 79.43 658.61 79.44 658.66 79.45 658.69 79.45 658.71 79.47 658.74 79.48 658.76 79.5 658.81 79.52 658.84 79.55 658.87 79.56 658.9 79.57 658.92 79.57 658.94 79.57 658.98 79.59 659.05 79.62 659.11 79.64 659.15 79.66 659.17 79.67 659.18 79.68 659.2 79.7 659.22 79.72 659.24 79.74 659.26 79.75 659.27 79.75 659.29 79.76 659.33 79.77 659.57 80.32 659.7 80.45 659.77 80.61 659.84 80.62 659.89 80.6 660.14 81.04 660.45 81.11 660.58 81.61 660.6 81.64 660.62 81.66 660.63 81.68 660.64 81.72 660.68 82.31 660.78 83.05 Z"/>
</g></svg>