<svg xmlns="http://www.w3.org/2000/svg" version="1.2" baseProfile="tiny" stroke-linecap="round" stroke-linejoin="round" viewBox="333.83 339.45 24 36.4"><g xmlns="http://www.w3.org/2000/svg" id="Mendaza">
<path d="M 340.99 340.34 341.01 340.29 341.05 340.25 341.11 340.22 341.2 340.19 341.37 340.15 341.55 340.11 341.67 340.09 341.81 340.09 341.92 340.1 342 340.09 342.1 340.06 342.19 340.05 342.29 340.05 342.39 340.06 342.51 340.08 342.57 340.08 342.7 340.05 342.81 340.02 342.96 340 343.19 339.97 343.3 339.95 343.41 339.91 343.57 339.86 343.69 339.8 343.8 339.72 343.9 339.65 343.93 339.61 343.95 339.55 343.97 339.52 344.01 339.49 344.09 339.46 344.16 339.46 344.25 339.47 344.33 339.5 344.4 339.54 344.46 339.59 344.53 339.67 344.58 339.76 344.61 339.84 344.63 339.93 344.63 339.98 344.62 340.01 344.59 340.04 344.54 340.06 344.41 340.1 344.38 340.12 344.36 340.15 344.36 340.18 344.37 340.21 344.43 340.29 344.53 340.44 344.69 340.74 344.76 340.88 344.82 340.95 344.87 340.99 344.95 341.03 345.04 341.04 345.15 341.03 345.26 341 345.36 340.99 345.46 340.99 345.57 341.01 345.63 341.03 345.69 341.08 345.77 341.14 345.83 341.21 345.91 341.31 345.98 341.37 346.14 341.47 346.32 341.55 346.44 341.62 346.59 341.68 346.65 341.73 346.72 341.78 346.77 341.84 346.84 341.93 346.89 342.07 346.92 342.18 346.93 342.27 346.93 342.34 346.92 342.38 346.9 342.41 346.87 342.44 346.82 342.49 346.83 342.49 346.89 342.51 346.95 342.52 346.97 342.53 346.99 342.54 346.99 342.54 347.05 342.55 347.09 342.55 347.14 342.55 347.19 342.55 347.26 342.55 347.31 342.54 347.35 342.53 347.4 342.51 347.45 342.49 347.48 342.47 347.52 342.43 347.56 342.39 347.62 342.32 347.68 342.23 347.71 342.19 347.73 342.14 347.74 342.1 347.75 342.04 347.75 341.96 347.76 341.89 347.77 341.83 347.76 341.77 347.75 341.68 347.75 341.6 347.73 341.54 347.72 341.48 347.72 341.42 347.72 341.38 347.73 341.35 347.74 341.32 347.75 341.3 347.76 341.29 347.8 341.26 347.8 341.26 347.85 341.22 347.88 341.19 347.91 341.16 347.95 341.15 347.99 341.13 348.04 341.11 348.07 341.08 348.12 341.03 348.17 340.98 348.21 340.95 348.24 340.93 348.31 340.9 348.37 340.88 348.42 340.85 348.49 340.81 348.55 340.78 348.6 340.76 348.67 340.72 348.72 340.7 348.76 340.67 348.8 340.63 348.83 340.61 348.88 340.59 348.95 340.57 349 340.56 349.05 340.52 349.11 340.48 349.13 340.47 349.15 340.45 349.19 340.44 349.22 340.43 349.25 340.42 349.29 340.39 349.31 340.39 349.33 340.38 349.38 340.38 349.42 340.38 349.45 340.37 349.48 340.36 349.51 340.34 349.53 340.32 349.55 340.29 349.57 340.27 349.59 340.26 349.64 340.23 349.69 340.21 349.75 340.19 349.8 340.17 349.83 340.16 349.86 340.16 349.91 340.16 349.95 340.17 349.99 340.18 350.05 340.21 350.1 340.22 350.13 340.23 350.17 340.25 350.26 340.31 350.32 340.35 350.4 340.41 350.5 340.47 350.58 340.52 350.66 340.58 350.7 340.61 350.74 340.65 350.77 340.68 350.79 340.71 350.82 340.76 350.86 340.82 350.9 340.89 350.94 340.95 350.97 341.04 351.01 341.11 351.03 341.18 351.06 341.24 351.07 341.28 351.09 341.32 351.15 341.4 351.19 341.46 351.22 341.5 351.28 341.55 351.33 341.58 351.41 341.62 351.51 341.64 351.65 341.67 351.84 341.72 351.88 341.74 351.95 341.75 352.1 341.77 352.21 341.78 352.3 341.8 352.4 341.82 352.53 341.84 352.63 341.85 352.73 341.86 352.84 341.86 352.91 341.86 352.96 341.87 353.03 341.86 353.15 341.86 353.25 341.85 353.29 341.85 353.38 341.86 353.44 341.86 353.5 341.88 353.59 341.9 353.59 341.9 353.64 341.91 353.72 341.93 353.8 341.95 353.87 341.96 353.99 341.99 354.1 342.02 354.14 342.05 354.17 342.08 354.2 342.11 354.24 342.15 354.3 342.2 354.36 342.26 354.41 342.31 354.45 342.36 354.48 342.42 354.53 342.47 354.6 342.55 354.66 342.62 354.7 342.67 354.73 342.72 354.75 342.77 354.79 342.84 354.82 342.89 354.84 342.92 354.87 342.95 354.89 342.99 354.93 343.05 354.95 343.11 354.97 343.15 354.99 343.19 355.04 343.25 355.07 343.31 355.09 343.35 355.12 343.4 355.16 343.44 355.2 343.48 355.26 343.54 355.33 343.6 355.38 343.65 355.46 343.7 355.52 343.74 355.57 343.78 355.63 343.83 355.7 343.88 355.76 343.93 355.8 343.98 355.83 344.02 355.9 344.07 355.93 344.09 355.97 344.13 356.02 344.19 356.07 344.25 356.09 344.28 356.14 344.35 356.2 344.43 356.22 344.48 356.26 344.54 356.31 344.61 356.36 344.69 356.4 344.77 356.45 344.85 356.51 344.93 356.54 344.96 356.56 344.99 356.61 345.04 356.67 345.1 356.78 345.17 356.84 345.21 356.89 345.26 356.94 345.3 357 345.35 357.07 345.41 357.13 345.47 357.18 345.51 357.19 345.53 357.23 345.6 357.23 345.61 357.25 345.66 357.29 345.75 357.32 345.82 357.34 345.89 357.36 345.98 357.38 346.02 357.4 346.06 357.42 346.12 357.43 346.15 357.45 346.19 357.46 346.21 357.46 346.24 357.47 346.31 357.47 346.37 357.47 346.42 357.47 346.47 357.45 346.59 357.45 346.64 357.44 346.71 357.43 346.77 357.43 346.81 357.42 346.93 357.41 347 357.4 347.08 357.4 347.17 357.4 347.22 357.4 347.3 357.41 347.41 357.42 347.53 357.43 347.65 357.44 347.74 357.45 347.8 357.48 347.9 357.5 347.98 357.52 348.04 357.56 348.12 357.58 348.19 357.62 348.27 357.64 348.35 357.65 348.4 357.68 348.54 357.7 348.63 357.71 348.73 357.73 348.84 357.75 348.92 357.76 348.96 357.79 348.99 357.81 349.01 357.81 349.04 357.79 349.13 357.78 349.22 357.77 349.29 357.76 349.35 357.74 349.41 357.72 349.47 357.69 349.55 357.67 349.59 357.67 349.64 357.65 349.69 357.6 349.81 357.57 349.89 357.54 349.94 357.53 350 357.52 350.02 357.51 350.04 357.51 350.05 357.51 350.06 357.5 350.07 357.49 350.12 357.47 350.16 357.45 350.22 357.44 350.23 357.42 350.23 357.37 350.22 357.26 350.18 357.16 350.15 357.12 350.14 357.05 350.12 357.02 350.18 356.95 350.32 356.87 350.45 356.8 350.59 356.79 350.61 356.73 350.72 356.73 350.73 356.7 350.79 356.69 350.81 356.67 350.79 356.65 350.78 356.63 350.76 356.6 350.72 356.57 350.68 356.55 350.61 356.52 350.54 356.49 350.48 356.46 350.43 356.42 350.4 356.37 350.37 356.32 350.35 356.27 350.33 356.21 350.31 356.14 350.29 356.12 350.3 356.09 350.32 356.02 350.36 355.99 350.39 355.93 350.41 355.88 350.42 355.81 350.45 355.75 350.47 355.7 350.47 355.64 350.47 355.6 350.48 355.57 350.49 355.54 350.51 355.51 350.54 355.48 350.55 355.48 350.56 355.45 350.58 355.43 350.62 355.42 350.66 355.41 350.7 355.41 350.75 355.42 350.8 355.44 350.84 355.47 350.89 355.5 350.93 355.51 350.98 355.52 351.02 355.53 351.06 355.53 351.11 355.53 351.14 355.52 351.18 355.49 351.22 355.48 351.25 355.46 351.28 355.43 351.35 355.4 351.38 355.37 351.42 355.32 351.47 355.3 351.48 355.23 351.52 355.16 351.56 355.08 351.6 355.04 351.62 355.01 351.64 354.98 351.67 354.95 351.7 354.92 351.73 354.88 351.79 354.86 351.84 354.84 351.89 354.82 351.94 354.81 351.98 354.8 352.01 354.8 352.07 354.8 352.15 354.81 352.26 354.82 352.35 354.83 352.43 354.83 352.5 354.83 352.54 354.82 352.59 354.8 352.66 354.77 352.72 354.75 352.76 354.74 352.8 354.72 352.88 354.72 352.98 354.71 353.06 354.7 353.12 354.69 353.18 354.67 353.24 354.64 353.31 354.61 353.37 354.58 353.43 354.53 353.49 354.49 353.52 354.46 353.54 354.43 353.56 354.36 353.61 354.26 353.68 354.18 353.73 354.11 353.76 354.04 353.8 353.99 353.84 353.95 353.86 353.92 353.9 353.89 353.94 353.87 354 353.86 354.11 353.83 354.26 353.8 354.43 353.77 354.54 353.72 354.7 353.7 354.81 353.68 354.87 353.64 354.97 353.6 355.1 353.56 355.21 353.53 355.32 353.49 355.47 353.46 355.55 353.45 355.65 353.44 355.73 353.43 355.81 353.43 355.83 353.42 355.92 353.41 355.99 353.4 356.1 353.39 356.21 353.37 356.35 353.35 356.46 353.34 356.55 353.32 356.7 353.3 356.75 353.28 356.84 353.27 356.9 353.26 356.91 353.25 356.98 353.24 357.03 353.24 357.07 353.23 357.13 353.21 357.19 353.19 357.25 353.17 357.33 353.16 357.41 353.14 357.46 353.14 357.48 353.13 357.52 353.12 357.56 353.11 357.59 353.11 357.6 353.1 357.64 353.09 357.65 353.07 357.71 353.05 357.77 353.04 357.82 353.02 357.89 353.01 357.93 353 357.99 352.99 358.04 352.97 358.09 352.95 358.15 352.95 358.17 352.95 358.19 352.93 358.27 352.9 358.34 352.89 358.38 352.88 358.42 352.87 358.43 352.87 358.43 352.84 358.49 352.81 358.56 352.79 358.62 352.75 358.69 352.71 358.78 352.68 358.82 352.67 358.86 352.65 358.89 352.63 358.93 352.61 358.97 352.6 359.01 352.58 359.05 352.55 359.1 352.53 359.14 352.52 359.16 352.5 359.19 352.5 359.21 352.49 359.22 352.49 359.23 352.48 359.27 352.47 359.3 352.46 359.34 352.45 359.36 352.45 359.4 352.44 359.43 352.43 359.47 352.42 359.5 352.41 359.53 352.4 359.57 352.39 359.61 352.38 359.64 352.37 359.68 352.36 359.71 352.35 359.75 352.34 359.77 352.34 359.78 352.33 359.8 352.33 359.82 352.31 359.82 352.28 359.82 352.27 359.84 352.21 359.89 352.19 359.91 352.17 359.93 352.16 359.94 352.13 359.97 352.1 360 352.07 360.04 352.04 360.06 352.01 360.09 351.99 360.12 351.96 360.15 351.91 360.22 351.89 360.26 351.86 360.29 351.84 360.33 351.82 360.36 351.8 360.4 351.79 360.43 351.77 360.46 351.75 360.49 351.74 360.53 351.73 360.55 351.72 360.58 351.71 360.6 351.7 360.62 351.7 360.64 351.69 360.66 351.68 360.69 351.67 360.72 351.67 360.75 351.65 360.79 351.65 360.82 351.65 360.83 351.64 360.85 351.64 360.85 351.64 360.86 351.64 360.9 351.63 360.95 351.63 361 351.62 361.03 351.62 361.04 351.62 361.05 351.6 361.09 351.58 361.14 351.57 361.18 351.56 361.21 351.55 361.23 351.53 361.26 351.5 361.33 351.47 361.4 351.44 361.47 351.42 361.5 351.41 361.54 351.39 361.57 351.38 361.6 351.36 361.65 351.35 361.66 351.34 361.69 351.33 361.72 351.31 361.76 351.28 361.81 351.27 361.85 351.2 362.02 351.21 362.38 351.21 362.39 351.18 362.44 350.9 362.82 350.89 362.83 350.39 363.5 350.12 363.85 350.11 363.86 349.92 364.12 349.9 364.14 349.53 364.63 349.52 364.64 349.48 364.83 349.46 364.87 349.45 364.89 349.42 365.01 349.39 365.11 349.78 365.15 349.89 365.33 349.93 365.4 349.59 365.77 349.56 365.79 349.42 365.95 349.29 366.08 349.24 366.13 349.14 366.11 349.12 366.1 349 366.07 348.95 366.05 348.93 366.05 348.9 366.02 348.82 365.98 348.71 365.93 348.58 365.87 348.55 365.85 348.53 365.84 348.49 365.82 348.46 365.8 348.44 365.8 348.41 365.78 348.24 365.66 348.18 365.61 348.14 365.59 348.12 365.57 348.08 365.56 347.98 365.54 347.94 365.54 347.78 365.53 347.69 365.53 347.56 365.53 347.43 365.53 347.39 365.53 347.28 365.52 347.21 365.52 347.17 365.52 347.15 365.52 346.95 365.52 346.95 365.49 346.95 365.45 346.96 365.21 346.97 365.12 346.97 365.08 346.97 365.01 346.98 364.99 346.98 364.95 346.99 364.93 346.99 364.91 347 364.87 347.01 364.85 347.02 364.81 347.03 364.74 347.03 364.7 347.04 364.68 347.04 364.65 347.05 364.6 347.06 364.53 347.08 364.47 347.08 364.44 347.08 364.39 347.07 364.38 346.97 364.37 346.91 364.35 346.85 364.34 346.84 364.34 346.84 364.32 346.82 364.29 346.71 364.25 346.62 364.22 346.6 364.22 346.58 364.21 346.55 364.21 346.42 364.22 346.25 364.23 346.06 364.23 345.87 364.23 345.69 364.25 345.52 364.27 345.35 364.29 345.25 364.3 345.02 364.34 344.91 364.35 344.9 364.35 344.72 364.37 344.57 364.39 344.51 364.4 344.41 364.39 344.25 364.36 344.16 364.34 343.97 364.29 343.84 364.25 343.69 364.2 343.55 364.16 343.32 364.11 343.11 364.05 343.09 364.14 343.07 364.28 343.05 364.36 343.04 364.43 343.02 364.51 343 364.57 342.97 364.67 342.95 364.71 342.93 364.77 342.9 364.84 342.89 364.91 342.88 364.94 342.84 365.07 342.84 365.09 342.82 365.12 342.81 365.16 342.65 365.42 342.63 365.46 342.61 365.49 342.7 365.58 342.72 365.6 342.73 365.61 342.71 365.67 342.7 365.69 342.73 365.71 342.77 365.75 342.8 365.76 342.85 365.8 342.88 365.82 342.91 365.85 343.03 365.91 343.07 365.93 343.09 365.95 343.1 365.95 343.12 365.97 343.14 365.97 343.12 366.15 343.11 366.17 343.11 366.19 343.11 366.21 343.12 366.53 343.12 366.54 343.12 366.55 343.13 366.57 343.15 366.83 343.15 366.86 343.15 366.89 343.15 366.91 343.17 366.94 343.27 367.07 343.27 367.09 343.28 367.1 343.28 367.13 343.27 367.15 343.25 367.2 343.24 367.21 343.24 367.22 343.25 367.29 343.25 367.34 343.26 367.37 343.26 367.41 343.27 367.43 343.29 367.44 343.34 367.44 343.36 367.45 343.39 367.47 343.48 367.51 343.53 367.53 343.56 367.54 343.64 367.58 343.67 367.59 343.7 367.6 343.74 367.61 343.85 367.62 343.88 367.63 343.89 367.65 343.89 367.67 343.97 368.17 343.97 368.2 343.97 368.2 343.97 368.22 343.96 368.36 343.92 368.59 343.91 368.65 343.84 368.92 343.8 369.06 343.8 369.08 343.73 369.36 343.72 369.39 343.72 369.42 343.66 369.64 343.65 369.67 343.63 369.74 343.63 369.77 343.63 369.79 343.61 369.87 343.58 369.99 343.57 370.03 343.51 370.2 343.49 370.24 343.48 370.26 343.47 370.3 343.45 370.33 343.44 370.37 343.43 370.4 343.37 370.52 343.37 370.54 343.35 370.58 343.46 370.67 343.5 370.69 343.59 370.73 343.75 370.8 343.77 370.81 343.83 370.82 343.87 370.83 344.19 370.88 344.18 371.11 344.18 371.15 344.18 371.19 344.04 371.34 344.03 371.5 344.02 371.55 344 371.7 343.97 371.82 343.96 371.84 343.94 371.94 343.93 372.01 343.92 372.07 343.92 372.12 343.92 372.16 343.93 372.27 343.98 372.29 344 372.29 344.04 372.3 344.07 372.31 344.1 372.32 344.13 372.34 344.14 372.35 344.34 372.5 344.37 372.52 344.39 372.54 344.43 372.57 344.49 372.6 344.57 372.65 344.61 372.69 344.62 372.7 344.65 372.72 344.66 372.74 344.68 372.87 344.7 372.97 344.7 373.01 344.71 373.09 344.73 373.21 344.73 373.26 344.73 373.28 344.8 373.35 344.85 373.41 344.92 373.49 344.95 373.52 345.01 373.59 345.06 373.61 345.16 373.66 345.27 373.71 345.28 373.72 345.31 373.74 345.42 373.8 345.5 373.85 345.52 373.87 345.54 373.89 345.55 373.91 345.56 373.95 345.56 373.97 345.56 374 345.56 374.06 345.57 374.18 345.55 374.19 345.49 374.21 345.39 374.25 345.27 374.3 345.22 374.32 345.16 374.41 345.12 374.5 345.02 374.67 344.97 374.76 344.93 374.87 344.88 374.97 344.85 375.04 344.82 375.09 344.79 375.17 344.75 375.27 344.71 375.38 344.68 375.47 344.66 375.55 344.65 375.59 344.59 375.69 344.57 375.71 344.5 375.74 344.47 375.75 344.45 375.76 344.37 375.79 344.32 375.81 344.3 375.82 344.29 375.8 344.26 375.77 344.2 375.66 344.18 375.63 344.17 375.62 344.16 375.6 344.12 375.53 344.11 375.52 344.11 375.52 344.1 375.5 344.03 375.4 343.96 375.29 343.95 375.17 343.92 375.1 343.91 375.09 343.89 375.06 343.88 375.04 343.87 375.01 343.83 374.94 343.82 374.94 343.81 374.92 343.78 374.86 343.77 374.85 343.77 374.84 343.76 374.82 343.74 374.79 343.7 374.71 343.69 374.7 343.69 374.7 343.65 374.62 343.63 374.58 343.62 374.56 343.61 374.54 343.58 374.5 343.53 374.41 343.52 374.39 343.51 374.37 343.46 374.29 343.45 374.26 343.37 374.11 343.35 374.08 343.34 374.07 343.3 373.99 343.29 373.98 343.27 373.95 343.27 373.9 343.25 373.81 343.24 373.77 343.22 373.77 343.1 373.76 343.02 373.75 343 373.75 342.95 373.75 342.93 373.75 342.92 373.74 342.79 373.72 342.76 373.71 342.64 373.69 342.65 373.64 342.65 373.62 342.65 373.53 342.65 373.49 342.66 373.45 342.66 373.42 342.66 373.38 342.67 373.31 342.66 373.24 342.74 373.24 342.76 373.25 342.75 373.19 342.74 373.18 342.72 373.13 342.72 373.11 342.7 373.07 342.69 373.05 342.67 372.98 342.64 372.93 342.62 372.88 342.59 372.82 342.59 372.81 342.58 372.79 342.55 372.74 342.54 372.72 342.52 372.69 342.5 372.65 342.5 372.64 342.47 372.59 342.45 372.55 342.44 372.53 342.41 372.51 342.39 372.48 342.35 372.45 342.34 372.44 342.32 372.42 342.3 372.38 342.27 372.33 342.25 372.29 342.23 372.28 342.2 372.26 342.15 372.24 342.12 372.22 342.09 372.21 342.08 372.2 342.04 372.19 341.99 372.17 341.95 372.15 341.92 372.15 341.89 372.15 341.87 372.15 341.85 372.15 341.82 372.16 341.8 372.17 341.79 372.19 341.77 372.22 341.73 372.27 341.7 372.35 341.69 372.38 341.65 372.45 341.63 372.49 341.61 372.56 341.58 372.61 341.57 372.66 341.56 372.72 341.55 372.73 341.55 372.75 341.54 372.79 341.53 372.82 341.53 372.83 341.52 372.86 341.52 372.88 341.51 372.94 341.5 372.99 341.48 373.01 341.48 373.03 341.46 373.05 341.45 373.11 341.43 373.18 341.4 373.17 341.38 373.28 341.37 373.34 341.31 373.36 341.21 373.39 341.14 373.4 341.1 373.42 340.94 373.45 340.84 373.48 340.83 373.49 340.82 373.49 340.77 373.5 340.7 373.52 340.66 373.53 340.65 373.53 340.63 373.54 340.48 373.57 340.47 373.57 340.38 373.59 340.37 373.59 340.31 373.57 340.23 373.54 340.22 373.54 340.19 373.51 340.13 373.48 340.09 373.45 340.08 373.44 340.06 373.42 340.03 373.4 339.97 373.35 339.95 373.33 339.93 373.32 339.91 373.3 339.9 373.29 339.89 373.28 339.84 373.24 339.83 373.24 339.82 373.23 339.77 373.19 339.68 373.12 339.62 373.07 339.57 373.03 339.49 372.97 339.44 372.93 339.39 372.91 339.34 372.84 339.28 372.77 339.26 372.76 339.22 372.71 339.19 372.68 339.12 372.61 339.08 372.56 339 372.48 339 372.45 338.99 372.43 338.98 372.33 338.97 372.22 338.97 372.16 338.96 372.07 338.95 371.98 338.95 371.95 338.95 371.93 338.94 371.87 338.94 371.85 338.94 371.82 338.93 371.78 338.93 371.77 338.94 371.7 338.94 371.58 338.94 371.49 338.94 371.46 338.95 371.41 338.95 371.39 338.95 371.38 338.96 371.34 338.96 371.33 338.96 371.32 338.96 371.28 338.97 371.25 338.97 371.16 338.98 371.11 338.99 371.06 339 371.05 338.99 371.04 338.95 371.02 338.91 370.98 338.88 370.95 338.86 370.92 338.85 370.91 338.85 370.9 338.84 370.87 338.84 370.83 338.86 370.78 338.87 370.74 338.9 370.68 338.91 370.66 338.92 370.62 338.92 370.6 338.93 370.59 338.93 370.57 338.95 370.5 338.96 370.45 338.96 370.44 338.97 370.4 338.97 370.37 338.98 370.31 338.98 370.24 338.97 370.17 338.97 370.13 338.97 370.11 338.97 370.07 338.96 370 338.95 369.97 338.94 369.92 338.92 369.86 338.89 369.78 338.87 369.73 338.85 369.66 338.84 369.65 338.82 369.59 338.77 369.51 338.75 369.48 338.74 369.45 338.71 369.42 338.67 369.37 338.64 369.33 338.59 369.28 338.57 369.27 338.53 369.23 338.48 369.2 338.43 369.16 338.4 369.15 338.35 369.1 338.29 369.06 338.23 369.01 338.22 369.01 338.19 368.98 338.15 368.93 338.08 368.87 338.02 368.8 337.97 368.76 337.95 368.73 337.93 368.65 337.91 368.55 337.9 368.49 337.89 368.48 337.89 368.43 337.89 368.36 337.89 368.26 337.9 368.22 337.9 368.2 337.9 368.17 337.91 368.06 337.91 367.97 337.92 367.85 337.92 367.82 337.96 367.79 338.07 367.72 338.13 367.68 338.23 367.63 338.24 367.62 338.31 367.57 338.38 367.53 338.4 367.45 338.41 367.41 338.42 367.31 338.44 367.22 338.45 367.19 338.53 367.15 338.58 367.12 338.66 367.07 338.68 367.06 338.68 367.06 338.72 367.03 338.75 367.04 338.78 367.05 338.84 367.1 338.89 367.14 338.9 367.15 338.96 367.18 339.03 367.2 339.07 367.21 339.13 367.23 339.17 367.23 339.19 367.23 339.25 367.23 339.26 367.23 339.27 367.2 339.19 367.17 339.05 367.1 339.05 367.08 339.08 366.97 339.1 366.89 339.11 366.86 339.12 366.84 339.2 366.83 339.23 366.83 339.27 366.82 339.32 366.82 339.36 366.8 339.37 366.77 339.39 366.74 339.43 366.72 339.48 366.7 339.54 366.68 339.53 366.65 339.51 366.54 339.5 366.47 339.49 366.42 339.5 366.37 339.5 366.34 339.51 366.29 339.51 366.27 339.6 366.24 339.69 366.21 339.74 366.19 339.75 366.19 339.84 366.17 339.93 366.16 339.98 366.15 340.05 366.12 340.1 366.09 340.12 366.08 340.14 366.05 340.15 365.99 340.15 365.97 340.16 365.91 340.16 365.83 340.17 365.73 340.17 365.72 340.17 365.7 340.13 365.63 340.09 365.57 340.04 365.5 339.99 365.41 339.98 365.39 339.98 365.37 339.96 365.25 339.95 365.16 339.94 365.05 339.93 364.96 339.93 364.94 339.91 364.83 339.89 364.76 339.87 364.7 339.87 364.69 339.87 364.68 339.86 364.66 339.81 364.46 339.78 364.32 339.76 364.24 339.74 364.18 339.74 364.15 339.76 364.15 339.84 364.15 339.97 364.16 340.06 364.17 340.17 364.18 340.23 364.18 340.3 364.18 340.34 364.19 340.35 364.19 340.37 364.2 340.43 364.22 340.55 364.25 340.56 364.23 340.6 364.21 340.67 364.16 340.71 364.14 340.75 364.11 340.8 364.09 340.82 364.08 340.83 364.07 340.86 364.07 340.91 364.05 340.97 364.04 341.04 364.04 341.1 364.03 341.21 364.02 341.23 364.02 341.29 364.01 341.4 363.98 341.46 363.96 341.52 363.94 341.57 363.92 341.61 363.91 341.63 363.91 341.64 363.84 341.64 363.82 341.64 363.8 341.65 363.77 341.69 363.54 341.96 363.55 342.31 363.55 342.38 363.55 342.65 363.28 342.66 363.27 342.84 363.1 343.01 362.94 343.02 362.93 343.04 362.9 343.26 362.69 343.27 362.68 343.45 362.5 343.48 362.28 343.49 362.2 343.49 362.19 343.53 361.98 343.59 361.7 343.6 361.64 343.61 361.63 343.62 361.58 343.67 361.33 343.69 361.14 343.71 360.94 343.69 360.78 343.67 360.61 343.65 360.52 343.64 360.39 343.64 360.31 343.65 360.21 343.65 360.16 343.64 360.03 343.64 359.97 343.64 359.89 343.65 359.83 343.68 359.72 343.69 359.65 343.7 359.54 343.71 359.5 343.73 359.46 343.73 359.37 343.72 359.24 343.7 359.17 343.7 359.16 343.64 359.06 343.48 358.84 343.33 358.65 343.29 358.62 343.07 358.64 342.6 358.71 342.5 358.72 342.48 358.72 342.47 358.61 342.47 358.5 342.48 358.4 342.47 358.28 342.47 358.22 342.44 358.12 342.42 358.02 342.41 358 342.41 357.99 342.4 357.99 342.27 358.01 342.21 358 342.17 358 342.13 358.04 342.1 358.06 342.03 358.07 341.88 358.05 341.72 358.03 341.55 357.99 341.44 357.96 341.36 357.93 341.28 357.89 341.24 357.88 341.18 357.87 340.87 357.75 340.84 357.74 340.78 357.69 340.7 357.63 340.54 357.52 340.28 357.36 340.02 357.22 339.78 357.11 339.5 357.01 339.36 356.94 339.24 356.88 339.19 356.81 339.16 356.79 339.04 356.76 338.87 356.69 338.73 356.62 338.62 356.54 338.52 356.47 338.39 356.38 338.21 356.26 337.89 356.04 337.73 355.91 337.62 355.85 337.49 355.76 337.37 355.69 337.23 355.63 337.05 355.53 336.88 355.45 336.73 355.37 336.61 355.31 336.49 355.24 336.43 355.21 336.35 355.22 336.19 355.22 336.06 355.22 335.95 355.23 335.88 355.18 335.78 355.09 335.63 354.96 335.37 354.75 335.34 354.73 335.2 354.63 335.11 354.57 334.83 354.41 334.55 354.24 334.36 354.1 334.23 354.01 334.12 353.92 333.84 353.69 333.84 353.66 333.85 353.62 333.86 353.56 333.88 353.51 333.9 353.42 333.91 353.37 333.94 353.29 333.95 353.22 333.97 353.14 333.99 353.08 334.01 352.99 334.03 352.94 334.05 352.85 334.06 352.81 334.08 352.73 334.09 352.69 334.11 352.62 334.1 352.59 334.1 352.56 334.1 352.51 334.1 352.46 334.09 352.42 334.08 352.36 334.08 352.3 334.06 352.23 334.06 352.18 334.05 352.14 334.04 352.1 334.03 352.05 334.03 352 334.03 351.92 334.03 351.85 334.04 351.78 334.05 351.69 334.05 351.63 334.05 351.58 334.04 351.53 334.05 351.45 334.04 351.39 334.04 351.35 334.03 351.29 334.02 351.24 334.01 351.18 333.99 351.1 333.97 351.05 333.97 351.02 333.96 350.99 333.97 350.95 333.99 350.91 334 350.87 334.01 350.85 334.01 350.84 334.02 350.82 334.03 350.76 334.04 350.72 334.04 350.72 334.04 350.69 334.05 350.67 334.06 350.62 334.07 350.56 334.08 350.53 334.1 350.39 334.12 350.38 334.21 350.34 334.26 350.32 334.36 350.28 334.4 350.26 334.45 350.24 334.49 350.23 334.56 350.22 334.64 350.21 334.71 350.21 334.82 350.21 334.88 350.21 334.96 350.21 334.99 350.21 335.05 350.21 335.12 350.2 335.21 350.2 335.26 350.19 335.3 350.18 335.36 350.16 335.42 350.14 335.47 350.12 335.49 350.12 335.5 350.11 335.59 350.08 335.64 350.06 335.72 350.03 335.78 350.01 335.83 349.99 335.9 349.96 335.98 349.93 336.04 349.9 336.11 349.87 336.18 349.84 336.25 349.8 336.3 349.77 336.38 349.74 336.44 349.71 336.5 349.67 336.55 349.64 336.6 349.61 336.67 349.57 336.73 349.53 336.79 349.49 336.86 349.44 336.92 349.4 336.98 349.35 337.05 349.31 337.12 349.25 337.17 349.22 337.23 349.17 337.29 349.13 337.36 349.08 337.48 349 337.54 348.95 337.61 348.91 337.66 348.87 337.68 348.86 337.71 348.84 337.75 348.83 337.78 348.82 337.85 348.8 337.93 348.78 337.97 348.76 338.03 348.73 338.06 348.72 338.08 348.7 338.18 348.67 338.22 348.65 338.28 348.62 338.31 348.61 338.39 348.57 338.47 348.53 338.53 348.51 338.57 348.48 338.6 348.47 338.61 348.46 338.63 348.46 338.64 348.45 338.77 348.39 338.93 348.32 339.08 348.23 339.16 348.18 339.31 348.09 339.45 348.01 339.53 347.93 339.68 347.79 339.85 347.63 340 347.43 340.09 347.3 340.15 347.17 340.19 347.07 340.17 347 340.15 346.92 340.13 346.83 340.11 346.78 340.1 346.76 340.04 346.76 339.94 346.76 339.84 346.76 339.67 346.74 339.51 346.7 339.39 346.67 339.33 346.65 339.21 346.61 339.15 346.59 338.99 346.52 338.93 346.49 338.89 346.43 338.86 346.38 338.83 346.34 338.81 346.32 338.8 346.31 338.78 346.29 338.74 346.26 338.71 346.13 338.71 346.12 338.71 346.11 338.77 346.07 338.77 346.06 338.78 346.05 338.87 345.99 338.91 345.96 338.98 345.93 339.09 345.88 339.19 345.81 339.21 345.8 339.23 345.78 339.23 345.77 339.25 345.73 339.34 345.6 339.4 345.49 339.45 345.41 339.47 345.39 339.54 345.34 339.67 345.26 339.84 345.16 339.97 345.07 340.13 344.96 340.17 344.94 340.19 344.92 340.2 344.91 340.18 344.91 340.14 344.9 340.1 344.88 340.03 344.87 339.92 344.88 339.83 344.89 339.76 344.89 339.71 344.9 339.61 344.91 339.56 344.91 339.5 344.9 339.41 344.88 339.35 344.87 339.29 344.85 339.22 344.82 339.17 344.8 339.16 344.8 339.13 344.79 339.04 344.75 338.88 344.68 338.79 344.63 338.72 344.58 338.62 344.51 338.49 344.41 338.42 344.34 338.36 344.3 338.34 344.29 338.3 344.28 338.25 344.26 338.23 344.25 338.14 344.22 338.08 344.17 338 344.1 337.89 344.01 337.82 343.94 337.75 343.83 337.71 343.77 337.68 343.67 337.67 343.66 337.67 343.64 337.65 343.59 337.64 343.57 337.68 343.56 337.7 343.55 337.72 343.53 337.75 343.5 337.78 343.46 337.8 343.43 337.81 343.38 337.8 343.31 337.79 343.21 337.8 343.15 337.82 343.11 337.84 343.07 337.87 343.03 337.9 342.98 337.95 342.94 338.02 342.9 338.12 342.84 338.26 342.79 338.38 342.74 338.49 342.69 338.57 342.65 338.62 342.61 338.69 342.56 338.74 342.5 338.78 342.44 338.81 342.38 338.84 342.32 338.86 342.25 338.87 342.18 338.89 342.08 338.9 341.96 338.92 341.84 338.94 341.73 338.96 341.69 338.98 341.67 339 341.64 339.03 341.62 339.06 341.61 339.09 341.59 339.11 341.59 339.13 341.59 339.17 341.62 339.2 341.65 339.25 341.71 339.29 341.75 339.32 341.79 339.38 341.85 339.44 341.91 339.5 341.98 339.57 342.09 339.63 342.2 339.68 342.28 339.71 342.33 339.75 342.4 339.79 342.49 339.82 342.58 339.86 342.68 339.9 342.78 339.94 342.85 339.98 342.93 340.03 342.97 340.08 343.03 340.14 343.1 340.29 343.23 340.36 343.29 340.43 343.33 340.49 343.35 340.62 343.37 340.74 343.38 340.83 343.37 340.86 343.37 341.12 343.3 341.25 343.27 341.3 343.24 341.35 343.19 341.41 343.15 341.49 343.05 341.54 342.97 341.61 342.82 341.73 342.56 341.8 342.41 341.84 342.28 341.86 342.18 341.86 342.05 341.86 341.95 341.84 341.88 341.81 341.82 341.76 341.77 341.7 341.74 341.59 341.71 341.4 341.65 341.31 341.61 341.24 341.57 341.19 341.51 341.13 341.39 341.03 341.19 340.99 341.04 340.98 340.99 340.98 340.93 340.99 340.88 341 340.84 340.99 340.74 340.96 340.56 340.96 340.5 340.99 340.34 Z"/>
</g></svg>