<svg xmlns="http://www.w3.org/2000/svg" version="1.2" baseProfile="tiny" stroke-linecap="round" stroke-linejoin="round" viewBox="269.87 77.05 12.13 12.73"><g xmlns="http://www.w3.org/2000/svg" id="Mendexa">
<path d="M 281.93 87.06 281.91 87.08 281.9 87.08 281.89 87.09 281.88 87.09 281.88 87.09 281.87 87.1 281.86 87.1 281.85 87.11 281.84 87.12 281.83 87.12 281.83 87.13 281.79 87.14 281.77 87.16 281.74 87.17 281.72 87.18 281.7 87.19 281.68 87.22 281.67 87.23 281.64 87.27 281.61 87.32 281.59 87.35 281.57 87.38 281.53 87.41 281.52 87.42 281.51 87.44 281.46 87.48 281.42 87.5 281.41 87.51 281.39 87.53 281.35 87.55 281.32 87.56 281.29 87.58 281.27 87.58 281.25 87.59 281.24 87.59 281.23 87.59 281.2 87.59 281.16 87.59 281.15 87.58 281.15 87.58 281.14 87.58 281.12 87.58 281.1 87.58 281.08 87.57 281.07 87.57 281.04 87.57 280.95 87.56 280.9 87.55 280.86 87.55 280.81 87.55 280.74 87.54 280.71 87.54 280.67 87.54 280.63 87.55 280.58 87.55 280.54 87.55 280.44 87.56 280.41 87.56 280.4 87.56 280.37 87.57 280.35 87.57 280.33 87.57 280.25 87.59 280.23 87.59 280.19 87.6 280.14 87.62 280.05 87.65 279.96 87.7 279.95 87.71 279.79 87.82 279.78 87.82 279.77 87.82 279.77 87.82 279.76 87.83 279.75 87.83 279.74 87.83 279.73 87.83 279.72 87.83 279.71 87.84 279.7 87.84 279.68 87.84 279.67 87.85 279.65 87.85 279.63 87.85 279.61 87.85 279.59 87.85 279.57 87.86 279.54 87.86 279.51 87.86 279.48 87.86 279.46 87.87 279.43 87.87 279.4 87.88 279.37 87.88 279.35 87.89 279.32 87.89 279.29 87.9 279.26 87.91 279.24 87.91 279.13 87.94 279.06 87.96 279.01 87.98 279 87.98 278.99 87.98 278.98 87.99 278.97 87.99 278.95 88 278.94 88 278.91 87.99 278.88 87.99 278.87 87.99 278.83 88 278.73 88.03 278.67 88.05 278.58 88.08 278.51 88.12 278.46 88.13 278.38 88.13 278.37 88.13 278.36 88.13 278.25 88.15 278.24 88.15 278.2 88.16 278.16 88.16 278.11 88.17 278.08 88.18 278.05 88.19 278.03 88.19 278 88.2 277.98 88.21 277.96 88.21 277.93 88.22 277.79 88.26 277.78 88.26 277.77 88.27 277.76 88.27 277.76 88.28 277.75 88.28 277.74 88.28 277.74 88.29 277.73 88.29 277.73 88.3 277.72 88.31 277.71 88.31 277.7 88.32 277.7 88.33 277.69 88.33 277.68 88.34 277.67 88.35 277.66 88.36 277.64 88.38 277.63 88.39 277.62 88.4 277.59 88.43 277.59 88.44 277.58 88.45 277.58 88.46 277.57 88.47 277.57 88.48 277.56 88.49 277.56 88.5 277.55 88.5 277.55 88.51 277.54 88.52 277.54 88.53 277.53 88.53 277.53 88.54 277.52 88.55 277.51 88.56 277.51 88.56 277.5 88.57 277.5 88.57 277.49 88.58 277.49 88.59 277.48 88.59 277.48 88.6 277.47 88.61 277.46 88.61 277.46 88.62 277.45 88.63 277.44 88.64 277.44 88.64 277.44 88.65 277.43 88.66 277.43 88.66 277.43 88.67 277.42 88.68 277.42 88.69 277.42 88.69 277.42 88.7 277.41 88.71 277.41 88.72 277.4 88.73 277.4 88.74 277.39 88.75 277.38 88.76 277.37 88.78 277.36 88.79 277.35 88.8 277.34 88.81 277.33 88.82 277.32 88.84 277.31 88.85 277.29 88.87 277.28 88.88 277.26 88.9 277.25 88.91 277.23 88.93 277.22 88.94 277.21 88.95 277.2 88.97 277.19 88.98 277.18 88.99 277.17 89 277.15 89.01 277.14 89.02 277.13 89.03 277.11 89.04 277.1 89.05 277.09 89.07 277.07 89.08 277.06 89.09 277.04 89.1 277.03 89.11 277.02 89.13 277 89.14 276.99 89.15 276.98 89.16 276.97 89.17 276.95 89.17 276.94 89.18 276.93 89.19 276.4 89.61 275.86 89.76 275.68 89.39 275.62 89.4 275.56 89.39 275.52 89.37 275.43 89.31 275.45 89.26 275.45 89.2 275.45 89.1 275.43 88.91 275.37 88.61 275.35 88.55 275.34 88.52 275.32 88.5 275.3 88.47 275.28 88.44 275.26 88.42 275.24 88.4 275.22 88.38 275.12 88.29 275.1 88.27 275.08 88.25 275.07 88.23 274.96 88.23 274.81 88.22 274.67 88.2 274.32 88.12 273.69 88.05 273.43 88.24 273.21 88.06 272.8 87.68 272.66 87.69 272.65 87.53 272.57 87.56 272.48 87.58 272.33 87.64 272.24 87.73 272.2 87.78 272.1 87.74 272 87.69 271.77 87.58 271.74 87.57 271.72 87.56 271.7 87.54 271.67 87.52 271.66 87.52 271.64 87.51 271.62 87.51 271.6 87.51 271.57 87.51 271.55 87.52 271.53 87.52 271.51 87.52 271.47 87.51 271.45 87.5 271.44 87.49 271.41 87.47 271.39 87.44 271.37 87.41 271.35 87.38 271.31 87.31 271.22 87.14 271.17 87.06 271.14 87.02 271.11 87 271.07 86.96 271.03 86.91 270.99 86.87 270.95 86.85 270.93 86.84 270.88 86.85 270.82 86.87 270.78 86.88 270.74 86.89 270.72 86.89 270.7 86.89 270.69 86.89 270.65 86.87 270.33 86.65 270.28 86.61 270.25 86.57 270.21 86.52 270.18 86.46 270.16 86.4 270.29 86.32 270.19 86.21 270.17 85.88 270.23 85.88 270.47 85.49 270.45 85.39 270.51 85.36 270.61 85.32 270.72 85.27 270.87 85.18 271 85.07 271.08 84.97 271.24 84.72 271.48 84.32 271.54 84.21 271.56 84.16 271.58 84.1 271.6 84.05 271.61 84 271.6 83.94 271.59 83.89 271.56 83.84 271.51 83.8 271.47 83.77 271.26 83.67 271.15 83.61 270.67 83.51 270.61 83.51 270.49 83.5 270.33 83.51 270.27 83.49 270.24 83.44 270.08 83.04 270.07 82.99 270.06 82.93 270.05 82.91 270.03 82.83 270 82.77 269.99 82.73 269.98 82.72 269.97 82.7 269.96 82.69 269.96 82.68 269.95 82.67 269.93 82.64 269.92 82.62 269.92 82.61 269.91 82.58 269.9 82.56 269.9 82.55 269.89 82.51 269.89 82.5 269.87 82.37 269.87 82.31 269.88 82.26 269.89 82.21 269.92 82.15 269.94 82.11 269.98 82.06 270.02 82.02 270.06 81.99 270.22 81.89 270.34 81.84 270.78 81.64 270.98 81.56 271.12 81.5 271.24 81.41 271.18 81.31 271.1 81.19 271.08 81.16 271.06 81.11 271.07 81.07 271.07 81.03 271.07 80.98 271.08 80.92 271.09 80.88 271.09 80.84 271.08 80.81 271.08 80.8 271.07 80.79 271.07 80.78 271.06 80.77 271.04 80.76 271.02 80.74 270.99 80.73 270.98 80.73 270.92 80.71 270.9 80.7 270.86 80.69 270.81 80.68 270.7 80.66 270.66 80.65 270.61 80.63 270.57 80.62 270.54 80.6 270.51 80.58 270.47 80.56 270.44 80.54 270.43 80.53 270.41 80.51 270.39 80.49 270.37 80.46 270.35 80.42 270.34 80.39 270.32 80.33 270.31 80.29 270.31 80.25 270.31 80.21 270.31 80.19 270.33 80.16 270.34 80.13 270.36 80.11 270.39 80.09 270.43 80.08 270.47 80.07 270.52 80.07 270.55 80.06 270.63 80.07 270.66 80.07 270.73 80.07 270.77 80.07 270.84 80.06 270.91 80.05 270.95 80.03 270.99 80.02 271.01 80 271.04 79.99 271.06 79.97 271.09 79.94 271.11 79.92 271.15 79.87 271.24 79.72 271.26 79.69 271.29 79.66 271.31 79.64 271.36 79.61 271.7 79.43 271.96 79.07 271.97 78.96 271.91 78.73 271.93 78.69 272 78.7 272 78.68 272.02 78.6 272.06 78.49 272.08 78.44 272.1 78.41 272.16 78.36 272.22 78.32 272.25 78.3 272.27 78.27 272.31 78.23 272.33 78.2 272.33 78.18 272.33 78.12 272.32 78.08 272.31 78.02 272.28 77.92 272.27 77.88 272.24 77.83 272.21 77.73 272.18 77.63 272.18 77.61 272.19 77.6 272.19 77.59 272.2 77.58 272.24 77.55 272.36 77.5 272.65 77.4 272.77 77.35 272.81 77.34 272.85 77.34 272.89 77.35 272.96 77.37 273.09 77.44 273.16 77.48 273.31 77.56 273.38 77.6 273.45 77.63 273.55 77.67 273.71 77.72 273.82 77.74 273.88 77.75 274 77.75 274.03 77.74 274.06 77.73 274.09 77.71 274.11 77.68 274.14 77.62 274.19 77.57 274.19 77.56 274.19 77.51 274.18 77.48 274.18 77.46 274.17 77.42 274.16 77.35 274.17 77.32 274.18 77.28 274.21 77.24 274.22 77.23 274.23 77.23 274.25 77.22 274.28 77.21 274.33 77.21 274.35 77.2 274.39 77.18 274.4 77.17 274.4 77.15 274.39 77.08 274.4 77.06 274.41 77.06 274.42 77.06 274.43 77.07 274.44 77.1 274.45 77.13 274.46 77.14 274.47 77.15 274.48 77.14 274.49 77.13 274.49 77.09 274.5 77.09 274.51 77.1 274.52 77.11 274.53 77.12 274.54 77.13 274.55 77.13 274.58 77.12 274.59 77.12 274.6 77.12 274.63 77.14 274.65 77.14 274.66 77.14 274.67 77.15 274.67 77.16 274.67 77.18 274.66 77.19 274.65 77.19 274.63 77.2 274.57 77.2 274.55 77.2 274.53 77.22 274.51 77.22 274.51 77.23 274.56 77.24 274.6 77.25 274.67 77.29 274.68 77.3 274.68 77.37 274.68 77.38 274.69 77.39 274.73 77.41 274.79 77.43 274.87 77.44 274.9 77.44 274.93 77.44 274.94 77.44 274.95 77.45 274.97 77.48 274.98 77.49 274.99 77.49 275 77.46 275.01 77.46 275.02 77.47 275.03 77.48 275.05 77.55 275.06 77.56 275.07 77.56 275.11 77.55 275.13 77.55 275.15 77.55 275.18 77.57 275.21 77.6 275.21 77.62 275.21 77.65 275.21 77.66 275.21 77.68 275.2 77.69 275.19 77.69 275.13 77.69 275.12 77.7 275.11 77.71 275.11 77.72 275.12 77.75 275.13 77.78 275.19 77.85 275.2 77.87 275.2 77.89 275.2 77.96 275.2 78.01 275.21 78.09 275.24 78.17 275.32 78.32 275.35 78.34 275.38 78.36 275.39 78.37 275.39 78.38 275.38 78.42 275.38 78.45 275.38 78.47 275.4 78.51 275.42 78.55 275.44 78.58 275.47 78.62 275.51 78.65 275.54 78.7 275.58 78.77 275.6 78.85 275.61 78.86 275.62 78.88 275.64 78.88 275.67 78.89 275.72 78.91 275.73 78.92 275.73 78.93 275.72 78.95 275.72 78.96 275.73 78.97 275.76 78.97 275.78 78.98 275.79 78.98 275.79 79 275.79 79.03 275.79 79.04 275.81 79.07 275.84 79.12 275.84 79.14 275.83 79.18 275.84 79.21 275.84 79.23 275.83 79.24 275.82 79.25 275.78 79.28 275.75 79.31 275.75 79.33 275.75 79.34 275.76 79.35 275.81 79.39 275.84 79.41 275.88 79.43 275.89 79.43 275.89 79.44 275.89 79.45 275.88 79.46 275.84 79.46 275.84 79.47 275.84 79.48 275.88 79.52 275.88 79.55 275.89 79.56 275.91 79.59 275.91 79.6 275.92 79.63 275.92 79.64 275.91 79.66 275.9 79.67 275.88 79.69 275.88 79.7 275.89 79.71 275.95 79.79 275.97 79.8 275.98 79.8 276.02 79.8 276.03 79.81 276.03 79.82 276.04 79.86 276.05 79.87 276.06 79.87 276.08 79.87 276.11 79.86 276.13 79.86 276.14 79.86 276.17 79.88 276.22 79.93 276.23 79.94 276.23 79.95 276.23 79.96 276.24 79.99 276.32 80.1 276.33 80.11 276.33 80.12 276.32 80.13 276.31 80.13 276.28 80.13 276.27 80.13 276.26 80.13 276.26 80.14 276.28 80.16 276.29 80.18 276.31 80.19 276.37 80.22 276.44 80.25 276.45 80.26 276.47 80.27 276.49 80.3 276.56 80.42 276.59 80.46 276.6 80.48 276.62 80.49 276.64 80.49 276.7 80.51 276.75 80.53 276.76 80.54 276.78 80.53 276.8 80.53 276.82 80.51 276.84 80.51 276.86 80.51 276.93 80.53 276.95 80.53 276.97 80.52 276.99 80.5 277 80.49 277.02 80.49 277.05 80.49 277.1 80.51 277.14 80.51 277.19 80.49 277.21 80.49 277.25 80.49 277.3 80.51 277.32 80.51 277.35 80.51 277.36 80.5 277.42 80.46 277.47 80.44 277.49 80.43 277.49 80.41 277.5 80.39 277.5 80.32 277.5 80.3 277.51 80.29 277.53 80.28 277.57 80.29 277.63 80.31 277.67 80.32 277.68 80.32 277.69 80.33 277.7 80.33 277.7 80.34 277.7 80.35 277.7 80.37 277.69 80.38 277.68 80.39 277.63 80.4 277.62 80.41 277.63 80.43 277.64 80.46 277.65 80.47 277.66 80.49 277.66 80.5 277.66 80.51 277.65 80.51 277.61 80.51 277.6 80.52 277.6 80.53 277.6 80.54 277.62 80.56 277.76 80.65 277.77 80.67 277.8 80.7 277.87 80.8 277.88 80.82 277.89 80.88 277.89 80.9 277.96 81.07 277.97 81.09 278.02 81.17 278.04 81.21 278.06 81.3 278.09 81.4 278.11 81.44 278.15 81.54 278.16 81.56 278.21 81.6 278.29 81.65 278.37 81.68 278.39 81.69 278.42 81.72 278.44 81.75 278.48 81.86 278.54 81.98 278.55 82.02 278.57 82.09 278.57 82.17 278.58 82.19 278.6 82.23 278.62 82.27 278.64 82.29 278.64 82.29 278.67 82.31 278.71 82.33 278.73 82.34 278.94 82.38 279.01 82.38 279.18 82.37 279.28 82.37 279.43 82.35 279.48 82.35 279.51 82.35 279.53 82.35 279.55 82.36 279.57 82.37 279.58 82.39 279.59 82.41 279.61 82.47 279.65 82.55 279.67 82.58 279.71 82.61 279.73 82.63 279.75 82.67 279.76 82.69 279.77 82.73 279.8 82.86 279.85 83.03 279.89 83.14 279.94 83.24 279.97 83.32 280 83.39 280.02 83.45 280.03 83.48 280.03 83.51 280.03 83.52 280.01 83.56 280.01 83.58 280.02 83.6 280.05 83.64 280.06 83.65 280.06 83.7 280.07 83.72 280.1 83.77 280.11 83.79 280.14 83.81 280.19 83.87 280.23 83.89 280.24 83.9 280.26 83.91 280.34 83.91 280.35 83.91 280.36 83.91 280.37 83.93 280.38 83.94 280.38 84.01 280.39 84.03 280.4 84.05 280.44 84.11 280.46 84.13 280.49 84.24 280.5 84.25 280.55 84.3 280.6 84.34 280.62 84.35 280.63 84.35 280.67 84.35 280.68 84.36 280.69 84.37 280.7 84.38 280.72 84.42 280.73 84.43 280.77 84.45 280.78 84.46 280.8 84.48 280.8 84.49 280.8 84.55 280.8 84.59 280.8 84.64 280.82 84.76 280.83 84.82 280.87 84.96 280.89 84.99 280.91 85 280.93 85 280.94 85 280.95 85.01 280.96 85.02 280.96 85.07 280.96 85.08 280.98 85.11 280.99 85.13 281 85.14 281.02 85.14 281.04 85.14 281.05 85.14 281.07 85.12 281.08 85.12 281.1 85.12 281.11 85.13 281.21 85.23 281.21 85.24 281.21 85.25 281.2 85.25 281.16 85.24 281.13 85.23 281.11 85.23 281.1 85.23 281.1 85.24 281.1 85.25 281.12 85.28 281.13 85.32 281.15 85.36 281.2 85.39 281.21 85.4 281.23 85.46 281.29 85.6 281.33 85.68 281.34 85.7 281.35 85.71 281.4 85.74 281.41 85.75 281.43 85.76 281.44 85.79 281.45 85.83 281.47 85.87 281.54 86.02 281.62 86.12 281.65 86.14 281.69 86.17 281.69 86.17 281.69 86.19 281.69 86.2 281.68 86.21 281.65 86.22 281.64 86.23 281.64 86.24 281.66 86.27 281.67 86.28 281.68 86.29 281.71 86.29 281.72 86.3 281.73 86.31 281.73 86.32 281.72 86.33 281.7 86.35 281.7 86.36 281.7 86.37 281.73 86.42 281.76 86.46 281.76 86.47 281.74 86.5 281.74 86.51 281.74 86.53 281.76 86.56 281.77 86.57 281.78 86.58 281.8 86.59 281.82 86.59 281.87 86.59 281.88 86.6 281.88 86.61 281.88 86.62 281.87 86.63 281.85 86.67 281.85 86.68 281.86 86.69 281.9 86.71 281.91 86.72 281.92 86.73 281.92 86.74 281.91 86.76 281.91 86.77 281.94 86.8 281.95 86.81 281.94 86.85 281.95 86.86 281.97 86.89 281.98 86.91 281.98 86.95 281.97 86.99 281.94 87.02 281.93 87.03 281.93 87.06 Z"/>
</g></svg>