<svg xmlns="http://www.w3.org/2000/svg" version="1.2" baseProfile="tiny" stroke-linecap="round" stroke-linejoin="round" viewBox="289.17 113.55 30.58 22.4"><g xmlns="http://www.w3.org/2000/svg" id="Mendaro">
<path d="M 308.08 114.4 309.16 114.66 309.17 114.66 309.18 114.67 309.19 114.68 309.2 114.68 309.22 114.69 309.23 114.7 309.24 114.7 309.25 114.71 309.26 114.72 309.27 114.72 309.28 114.73 309.29 114.74 309.3 114.75 309.31 114.76 309.32 114.77 309.33 114.77 309.34 114.78 309.35 114.79 309.36 114.8 309.37 114.81 309.38 114.82 309.39 114.83 309.4 114.83 309.41 114.84 309.42 114.85 309.42 114.86 309.43 114.87 309.44 114.88 309.45 114.89 309.46 114.9 309.46 114.91 309.47 114.92 309.48 114.93 309.48 114.94 309.49 114.95 309.5 114.96 309.5 114.98 309.51 114.99 309.51 115 309.52 115 309.63 115.18 310.39 116.21 310.41 116.22 310.46 116.24 310.52 116.26 310.6 116.3 310.7 116.34 310.71 116.36 310.75 116.4 310.76 116.4 310.83 116.43 310.85 116.46 310.88 116.51 311.27 117.17 312.22 118.9 312.46 119.44 314.16 121.24 314.77 122.09 314.98 122.48 314.99 122.94 314.96 123.19 314.95 123.51 314.94 123.66 314.76 123.75 314.62 123.89 315.42 124.42 315.44 124.44 315.45 124.47 315.45 124.49 315.44 124.51 315.4 124.54 315.38 124.56 315.37 124.59 315.37 124.6 315.37 124.63 315.38 124.68 315.38 124.72 315.36 124.81 315.33 124.86 315.28 124.94 315.27 124.96 315.81 125.77 316.18 126.22 318.54 127.19 319.75 129.17 318.93 129.54 319.03 130.2 317.92 131.7 317.87 133.41 317.33 133.97 317.01 134.22 316.88 134.59 316.86 134.58 316.83 134.57 316.8 134.57 316.76 134.56 316.73 134.55 316.71 134.54 316.67 134.54 316.63 134.53 316.61 134.53 316.57 134.52 316.53 134.51 316.49 134.51 316.45 134.5 316.43 134.5 316.41 134.5 316.4 134.5 316.39 134.49 316.37 134.48 316.35 134.47 316.34 134.46 316.29 134.43 316.25 134.41 316.23 134.4 316.21 134.4 316.19 134.39 316.16 134.38 316.13 134.37 316.11 134.36 316.08 134.35 316.07 134.34 316.05 134.34 316.03 134.34 316.01 134.33 315.99 134.32 315.97 134.32 315.95 134.31 315.91 134.3 315.89 134.29 315.88 134.29 315.85 134.28 315.84 134.27 315.83 134.27 315.81 134.26 315.8 134.26 315.77 134.26 315.73 134.24 315.7 134.24 315.67 134.23 315.65 134.23 315.61 134.22 315.58 134.21 315.55 134.19 315.51 134.18 315.48 134.19 315.49 134.2 315.48 134.22 315.48 134.26 315.47 134.29 315.48 134.31 315.47 134.35 315.48 134.37 315.48 134.39 315.48 134.4 315.48 134.44 315.48 134.45 315.47 134.46 315.47 134.47 315.46 134.48 315.46 134.49 315.46 134.51 315.46 134.52 315.45 134.53 315.45 134.54 315.45 134.56 315.44 134.56 315.43 134.57 315.42 134.58 315.41 134.59 315.4 134.59 315.39 134.6 315.38 134.6 315.37 134.61 315.37 134.62 315.36 134.63 315.35 134.64 315.33 134.67 315.32 134.68 315.3 134.7 315.29 134.71 315.29 134.73 315.28 134.74 315.27 134.75 315.26 134.77 315.25 134.79 315.24 134.8 315.23 134.81 315.22 134.82 315.2 134.83 315.2 134.84 315.19 134.86 315.17 134.87 315.16 134.88 315.15 134.9 315.14 134.91 315.12 134.93 315.1 134.96 315.09 134.97 315.08 134.98 315.06 135 315.05 135.02 315.02 135.04 314.99 135.06 314.98 135.07 314.95 135.1 314.92 135.12 314.89 135.15 314.87 135.16 314.85 135.18 314.83 135.2 314.81 135.21 314.79 135.24 314.78 135.25 314.76 135.26 314.74 135.27 314.73 135.29 314.71 135.31 314.7 135.32 314.67 135.35 314.65 135.38 314.63 135.4 314.62 135.41 314.6 135.42 314.57 135.44 314.56 135.44 314.53 135.45 314.51 135.45 314.49 135.45 314.46 135.45 314.44 135.45 314.42 135.45 314.4 135.45 314.39 135.45 314.37 135.44 314.36 135.44 314.35 135.45 314.34 135.45 314.32 135.46 314.32 135.47 314.31 135.48 314.3 135.49 314.3 135.5 314.29 135.52 314.28 135.53 314.27 135.55 314.26 135.57 314.25 135.58 314.24 135.59 314.23 135.59 314.22 135.59 314.21 135.59 314.19 135.59 314.18 135.59 314.17 135.6 314.14 135.61 314.13 135.62 314.12 135.63 314.11 135.64 314.1 135.64 314.09 135.65 314.08 135.65 314.06 135.66 314.05 135.67 314.04 135.68 314.02 135.69 314.02 135.71 314.01 135.73 314 135.74 314 135.76 314 135.78 314 135.81 313.99 135.83 313.98 135.85 313.97 135.87 313.96 135.89 313.95 135.9 313.94 135.9 313.93 135.9 313.91 135.9 313.89 135.89 313.88 135.88 313.87 135.88 313.86 135.88 313.84 135.88 313.82 135.88 313.8 135.89 313.77 135.9 313.76 135.9 313.75 135.91 313.74 135.92 313.72 135.93 313.7 135.93 313.68 135.94 313.67 135.94 313.66 135.94 313.64 135.93 313.6 135.93 313.57 135.92 313.55 135.92 313.53 135.91 313.51 135.89 313.48 135.88 313.46 135.87 313.43 135.84 313.41 135.84 313.39 135.82 313.36 135.8 313.34 135.78 313.33 135.78 313.32 135.77 313.29 135.76 313.27 135.75 313.24 135.74 313.22 135.74 313.19 135.73 313.17 135.72 313.15 135.71 313.13 135.69 313.11 135.68 313.09 135.67 313.07 135.65 313.06 135.65 313.05 135.63 313.04 135.62 313.02 135.61 313 135.6 313.02 135.58 311.95 135.64 311.95 135.61 311.95 135.55 311.91 135.5 311.91 135.43 311.96 135.36 311.99 135.29 312.02 135.25 312.02 135.22 312.01 135.11 312.01 135.04 312.02 135 312.05 134.88 312.05 134.85 312.09 134.78 312.11 134.66 312.11 134.53 312.12 134.41 312.16 134.26 312.17 134.17 312.17 134.11 311.01 133.22 310.73 132.75 310.68 132.69 310.66 132.66 310.64 132.54 310.61 132.39 310.58 132.19 310.57 132.12 310.55 132.06 310.51 131.95 310.5 131.92 310.47 131.86 310.48 131.8 310.47 131.7 310.44 131.58 310.44 131.46 310.42 131.34 310.41 131.24 310.37 131.17 310.32 131.08 310.31 130.99 310.28 130.79 310.19 130.39 309.14 129.79 309.1 129.76 309.08 129.72 309 129.63 308.92 129.52 308.87 129.4 308.79 129.3 308.73 129.26 308.61 129.17 308.55 129.11 308.43 129.08 308.37 129.07 308.27 129.06 308.2 129.02 308.1 129 307.99 128.96 307.95 128.95 307.81 128.91 307.75 128.91 307.71 128.91 307.64 128.91 307.55 128.91 307.43 128.91 307.35 128.9 307.32 128.89 307.29 128.86 307.27 128.84 307.24 128.8 307.2 128.71 307.19 128.62 307.18 128.6 307.15 128.5 307.11 128.3 307.1 128.18 307.08 128.05 307.07 128.02 307.03 127.97 306.96 127.87 306.91 127.84 306.83 127.79 306.77 127.75 306.75 127.73 306.7 127.68 306.65 127.65 306.56 127.58 306.46 127.53 306.37 127.47 306.3 127.43 306.25 127.4 306.22 127.37 306.18 127.33 306.15 127.27 306.12 127.2 306.11 127.15 306.1 127.12 306.06 127.05 306 126.99 305.95 126.88 305.91 126.81 305.87 126.76 305.83 126.67 305.78 126.56 305.72 126.52 305.66 126.48 305.53 126.41 305.48 126.37 305.39 126.37 305.31 126.36 305.2 126.36 305.14 126.36 303.4 126.15 303.38 126.14 303.37 126.14 303.34 126.13 303.31 126.12 303.27 126.11 303.25 126.11 303.24 126.1 303.23 126.1 303.22 126.09 303.21 126.09 303.2 126.09 303.19 126.08 303.17 126.08 303.16 126.07 303.15 126.07 303.14 126.07 303.13 126.06 303.11 126.06 303.09 126.06 303.06 126.05 303.04 126.05 303.03 126.04 303.02 126.04 303.01 126.03 303 126.03 302.99 126.04 302.99 126.04 302.98 126.05 302.98 126.06 302.97 126.06 302.96 126.07 302.95 126.07 302.93 126.07 302.92 126.06 302.91 126.06 302.9 126.06 302.89 126.07 302.89 126.07 302.88 126.07 302.87 126.07 302.86 126.07 302.85 126.07 302.85 126.08 302.84 126.08 302.83 126.08 302.81 126.08 302.8 126.08 302.78 126.08 302.77 126.08 302.76 126.08 302.75 126.07 302.74 126.06 302.73 126.06 302.73 126.05 302.72 126.05 302.71 126.05 302.7 126.05 302.7 126.05 302.69 126.05 302.68 126.05 302.67 126.04 302.66 126.04 302.64 126.03 302.63 126.02 302.62 126.01 302.62 126.01 302.61 126 302.61 125.99 302.6 125.98 302.59 125.98 302.58 125.97 302.57 125.96 302.57 125.95 302.57 125.95 302.56 125.93 302.55 125.92 302.55 125.9 302.54 125.88 302.54 125.87 302.53 125.85 302.53 125.83 302.52 125.82 302.51 125.8 302.5 125.78 302.49 125.77 302.48 125.76 302.48 125.75 302.47 125.75 302.47 125.74 302.46 125.73 302.45 125.72 302.45 125.71 302.44 125.7 302.43 125.69 302.43 125.68 302.43 125.67 302.42 125.66 302.42 125.65 302.42 125.64 302.42 125.63 302.42 125.62 302.42 125.6 302.41 125.59 302.41 125.58 302.41 125.57 302.41 125.55 302.41 125.54 302.42 125.53 302.42 125.51 302.42 125.5 302.42 125.49 302.42 125.48 302.42 125.47 302.41 125.46 302.41 125.45 302.41 125.43 302.41 125.41 302.4 125.39 302.39 125.37 302.39 125.35 302.38 125.33 302.38 125.32 302.37 125.31 302.36 125.29 302.36 125.27 302.35 125.26 302.35 125.26 302.34 125.25 302.34 125.24 302.33 125.23 302.33 125.21 302.32 125.2 302.31 125.19 302.31 125.17 302.3 125.15 302.3 125.15 302.3 125.13 302.3 125.13 302.3 125.12 302.29 125.1 302.29 125.09 302.28 125.08 302.27 125.08 302.27 125.07 302.26 125.06 302.25 125.05 302.24 125.05 302.23 125.04 302.21 125.01 302.21 125 302.2 125 302.2 124.99 302.19 124.98 302.19 124.98 302.18 124.97 302.17 124.96 302.17 124.95 302.16 124.93 302.15 124.92 302.14 124.91 302.12 124.9 302.1 124.88 302.09 124.87 302.07 124.86 302.06 124.85 302.05 124.84 302.04 124.83 302.03 124.82 302.02 124.81 302.01 124.8 302 124.79 301.99 124.77 301.98 124.76 301.97 124.75 301.97 124.74 301.96 124.73 301.95 124.73 301.94 124.72 301.93 124.71 301.92 124.71 301.91 124.7 301.9 124.7 301.89 124.69 301.89 124.68 301.88 124.68 301.87 124.67 301.87 124.66 301.86 124.66 301.85 124.65 301.84 124.64 301.83 124.64 301.82 124.63 301.81 124.63 301.8 124.63 301.78 124.62 301.77 124.62 301.76 124.62 301.74 124.61 301.73 124.61 301.71 124.6 301.7 124.59 301.68 124.58 301.66 124.57 301.65 124.56 301.63 124.56 301.62 124.55 301.61 124.54 301.59 124.53 301.58 124.52 301.56 124.51 301.55 124.5 301.53 124.49 301.52 124.48 301.52 124.47 301.51 124.47 301.5 124.46 301.5 124.45 301.49 124.45 301.48 124.44 301.48 124.43 301.47 124.43 301.46 124.42 301.45 124.42 301.45 124.41 301.44 124.4 301.43 124.39 301.43 124.38 301.42 124.37 301.41 124.37 301.4 124.36 301.4 124.35 301.39 124.34 301.38 124.34 301.35 124.3 301.29 124.21 301.28 124.22 301.27 124.22 301.27 124.23 301.26 124.23 301.26 124.24 301.25 124.24 301.25 124.25 301.24 124.25 301.23 124.26 301.23 124.26 301.22 124.27 301.22 124.27 301.21 124.28 301.21 124.29 301.2 124.29 301.19 124.3 301.18 124.3 301.18 124.31 301.17 124.32 301.04 124.26 301.03 124.25 301 124.22 300.92 124.16 300.91 124.16 300.9 124.16 300.88 124.16 300.87 124.16 300.85 124.16 300.83 124.16 300.8 124.16 300.77 124.15 300.76 124.14 300.71 124.13 300.68 124.13 300.66 124.13 300.65 124.13 300.62 124.13 300.6 124.12 300.59 124.12 300.56 124.09 300.54 124.07 300.52 124.05 300.5 124.03 300.46 124 300.43 123.97 300.41 123.95 300.37 123.93 300.35 123.91 300.31 123.89 300.27 123.87 300.24 123.85 300.22 123.84 300.15 123.82 300.13 123.81 300.08 123.83 300.05 123.83 300.01 123.83 299.98 123.83 299.95 123.83 299.91 123.83 299.87 123.83 299.03 124 298.99 124.01 298.96 124.02 298.9 124.06 298.81 124.1 298.71 124.16 298.64 124.22 298.57 124.28 298.52 124.35 298.46 124.39 298.41 124.44 298.38 124.48 298.33 124.52 298.3 124.55 298.24 124.61 298.21 124.63 298.14 124.67 298.09 124.67 298 124.64 297.95 124.62 297.87 124.6 297.8 124.6 297.72 124.58 297.7 124.57 297.66 124.52 297.6 124.48 297.55 124.44 297.42 124.36 297.37 124.33 297.31 124.3 297.23 124.27 297.18 124.24 297.13 124.24 297.06 124.23 297 124.18 296.93 124.13 296.89 124.08 296.86 124.04 296.8 123.99 296.77 123.96 296.72 123.91 296.7 123.91 296.62 123.91 296.57 123.91 296.49 123.91 296.44 123.91 296.39 123.91 296.33 123.91 296.31 123.91 296.29 123.9 296.24 123.91 296.2 123.91 296.13 123.91 296.06 123.9 296.03 123.9 295.95 123.89 295.92 123.9 295.87 123.91 295.84 123.92 295.78 123.96 295.73 124 295.68 124.02 295.66 124.03 295.61 124.05 295.52 124.1 295.49 124.1 295.42 124.11 295.4 124.11 295.34 124.14 295.28 124.16 295.18 124.18 295.1 124.19 295 124.2 294.95 124.2 294.89 124.18 290.66 124.52 290.63 124.52 290.58 124.51 290.51 124.48 290.46 124.45 290.4 124.41 290.36 124.38 290.29 124.32 290.24 124.3 290.14 124.22 290.08 124.18 290.05 124.15 290.02 124.11 289.98 124.09 290 124.08 289.71 123.55 289.65 123.24 289.51 122.91 289.47 122.76 289.24 122.51 289.19 122.4 289.19 122.2 289.2 122.04 289.31 121.73 289.33 121.69 289.35 121.63 289.53 121.23 289.63 120.77 289.64 120.75 289.66 120.71 289.7 120.68 289.74 120.63 289.82 120.58 289.86 120.54 289.91 120.5 289.96 120.47 290.02 120.41 290.06 120.37 290.1 120.3 290.12 120.22 290.13 120.16 290.14 120.08 290.15 120.02 290.16 119.96 290.19 119.9 290.23 119.84 290.43 119.95 290.74 119.74 291.38 118.85 291.79 118.88 292.53 118.44 293.43 117.92 293.85 117.12 294.32 116.13 294.34 116.05 294.42 115.96 294.63 115.75 294.7 115.66 294.95 115.08 295.21 114.79 295.35 114.8 295.44 114.8 295.54 114.8 295.64 114.8 295.66 114.8 295.78 114.79 295.82 114.79 295.9 114.81 295.98 114.83 296.05 114.85 296.08 114.85 296.11 114.85 296.16 114.86 296.21 114.83 296.28 114.79 296.31 114.74 296.39 114.72 296.46 114.68 296.54 114.68 296.62 114.68 296.67 114.7 296.7 114.71 296.75 114.71 296.77 114.71 296.8 114.72 296.85 114.73 296.88 114.74 296.93 114.72 296.99 114.7 297.03 114.71 297.11 114.73 297.18 114.77 297.21 114.78 297.28 114.79 297.33 114.79 297.36 114.76 297.39 114.74 297.45 114.73 297.5 114.73 297.55 114.73 297.6 114.78 297.64 114.8 297.66 114.8 297.73 114.81 297.88 114.81 297.94 114.8 298.01 114.82 298.08 114.83 298.12 114.86 298.18 114.94 298.26 115.07 298.31 115.12 298.34 115.14 298.36 115.16 298.39 115.16 298.4 115.16 298.46 115.15 298.53 115.14 298.61 115.13 298.64 115.13 298.67 115.1 299.28 114.72 299.89 113.99 300.81 113.8 301.55 113.57 301.59 113.61 301.63 113.64 301.64 113.66 301.7 113.68 301.77 113.72 301.83 113.76 301.86 113.79 301.91 113.81 301.97 113.84 302.05 113.87 302.1 113.9 302.17 113.94 302.21 113.97 302.27 113.99 302.35 114 302.44 114.01 302.51 114.01 302.57 114.01 302.65 114.05 302.7 114.08 302.8 114.07 302.86 114.06 302.92 114.07 303 114.11 303.1 114.15 303.14 114.16 303.2 114.18 303.29 114.22 303.38 114.22 303.45 114.23 303.48 114.22 303.56 114.24 303.71 114.29 303.76 114.31 303.84 114.33 303.96 114.34 304.01 114.35 304.05 114.35 304.13 114.36 304.24 114.36 304.32 114.36 304.42 114.34 304.51 114.33 304.55 114.33 304.56 114.33 304.62 114.31 304.69 114.29 304.76 114.26 304.83 114.25 304.91 114.22 305.11 114.16 305.2 114.12 305.28 114.09 305.36 114.07 305.44 114.05 305.5 114.03 305.54 114.01 305.57 113.99 305.62 113.98 305.68 113.96 305.74 113.94 305.8 113.92 305.85 113.9 305.91 113.88 305.97 113.86 306.04 113.84 306.07 113.84 306.09 113.82 306.13 113.8 306.18 113.78 306.26 113.77 306.32 113.75 306.37 113.74 306.42 113.73 306.49 113.72 306.62 113.7 306.65 113.69 306.66 113.72 307.32 113.78 308.08 114.4 Z"/>
</g></svg>