<svg xmlns="http://www.w3.org/2000/svg" version="1.2" baseProfile="tiny" stroke-linecap="round" stroke-linejoin="round" viewBox="222.23 98.12 22.57 28.4"><g xmlns="http://www.w3.org/2000/svg" id="Mendata">
<path d="M 242.08 98.14 242.98 98.83 243.12 98.95 243.24 98.99 243.29 99.08 243.38 99.46 243.58 99.77 243.66 99.85 243.81 100.08 243.86 100.14 243.9 100.19 244.18 100.33 244.44 100.63 244.39 100.77 244.13 101.16 244.26 101.78 244.39 102.06 244.43 102.71 244.48 102.84 244.59 102.98 244.78 103.13 244.5 103.64 244.46 103.82 244.63 103.99 244.66 104.54 244.26 105.14 244.13 105.46 244.13 105.47 244.09 105.63 244.07 105.7 243.93 106.17 243.66 106.71 243.65 106.72 243.32 107.02 242.9 107.7 242.42 108.13 242.41 108.12 242.1 108.12 241.2 108.11 241.03 108.27 240.02 108.63 238.76 109.04 238.53 109.05 238.17 109.28 237.95 109.24 237.91 109.33 236.14 110.16 236.1 110.47 235.95 110.5 235.79 110.96 235.75 110.97 234.91 112.34 235.2 112.71 235.2 113.38 235.11 113.8 235.09 113.92 235.03 113.96 235 114.15 234.96 114.27 234.96 114.33 234.98 114.39 234.97 114.44 234.91 114.49 235 114.62 234.97 114.72 234.88 114.78 234.83 114.81 234.78 114.83 234.73 114.87 234.72 114.93 234.72 114.97 234.75 115.03 234.8 115.09 234.84 115.13 234.88 115.2 234.92 115.26 234.94 115.31 235.01 115.5 235.07 115.65 235.08 115.67 235.11 115.69 235.13 115.7 235.17 115.73 235.17 115.9 235.3 116.1 235.28 116.67 235.29 116.88 235.34 117.13 235.39 117.36 235.47 117.6 237.08 118.55 237.13 118.85 237.13 119.27 237.18 119.44 237.36 119.78 237.51 119.9 237.88 119.83 237.75 120.29 237.87 120.74 237.97 120.96 238.02 121.4 237.89 121.9 237.89 121.98 237.77 125.06 237.37 125.4 236.79 125.75 236.65 125.88 236.1 126.51 235.61 126.38 235.58 126.38 235.55 126.37 235.51 126.36 235.4 126.33 235.1 126.12 234.6 125.86 234.33 125.72 234.07 125.55 234.05 125.54 233.91 125.4 233.72 125.1 233.52 124.92 233.12 124.68 233.1 124.66 233.08 124.65 233.06 124.64 233.04 124.63 233.02 124.62 233 124.61 232.98 124.6 232.95 124.59 232.92 124.58 232.88 124.57 232.85 124.57 232.81 124.57 232.78 124.57 232.76 124.57 232.74 124.57 232.72 124.58 232.69 124.58 232.67 124.58 232.67 124.58 232.59 124.6 232.53 124.55 232.49 124.52 232.48 124.51 232.46 124.5 232.45 124.5 232.43 124.49 232.41 124.48 232.39 124.47 232.37 124.46 232.34 124.46 232.32 124.45 232.3 124.44 232.29 124.44 232.28 124.44 232.18 124.41 232.11 124.27 232.11 124.25 232.09 124.22 232.08 124.2 232.08 124.17 232.07 124.14 232.06 124.11 232.06 124.09 232.05 124.08 232.05 124.06 232.05 124.05 232.05 124.04 232.05 124.02 232.04 124 232.04 123.98 232.01 123.6 232 123.58 231.99 123.57 231.98 123.56 231.97 123.55 231.97 123.54 231.96 123.53 231.95 123.52 231.94 123.51 231.93 123.5 231.92 123.48 231.92 123.47 231.91 123.46 231.91 123.46 231.9 123.45 231.9 123.44 231.9 123.43 231.89 123.42 231.89 123.4 231.88 123.39 231.88 123.38 231.88 123.37 231.87 123.35 231.87 123.34 231.87 123.32 231.87 123.3 231.87 123.29 231.87 123.27 231.87 123.25 231.86 123.22 231.78 122.67 231.78 122.65 231.77 122.62 231.76 122.59 231.74 122.56 231.73 122.53 231.72 122.5 231.71 122.48 231.7 122.46 231.69 122.43 231.68 122.41 231.67 122.39 231.66 122.37 231.64 122.34 231.63 122.32 231.61 122.3 231.6 122.27 231.58 122.25 231.56 122.23 231.55 122.21 231.53 122.2 231.52 122.18 231.5 122.16 231.48 122.15 231.46 122.13 231.44 122.11 231.42 122.09 231.4 122.07 231.38 122.05 231.35 122.04 231.33 122.02 231.32 122.01 231.3 121.99 231.29 121.98 231.27 121.97 231.27 121.96 231.23 121.94 231.09 121.8 230.45 121.17 230.29 121.06 229.99 120.83 229.52 120.66 229.04 120.48 228.6 120.17 228.25 119.92 227.95 119.7 227.81 118.84 227.86 118.5 227.84 118.2 228 117.7 227.78 117.3 227.49 116.92 227.44 116.75 226.94 116.58 226.45 116.24 226.58 115.98 226.64 115.72 226.38 115.49 226.04 115.83 225.77 115.73 225.41 115.7 225.11 115.57 225.01 115.4 224.75 115.08 224.71 115.04 224.55 114.87 223.99 114.28 223.87 114.01 223.74 113.84 223.64 113.72 223.35 113.2 222.74 112.99 222.58 112.62 222.43 112.26 222.35 111.93 222.24 111.41 222.4 111.3 222.46 111.2 222.52 111.1 222.55 111.04 222.57 111 222.59 110.96 222.6 110.9 222.62 110.82 222.62 110.79 222.62 110.77 222.61 110.74 222.6 110.71 222.59 110.68 222.58 110.65 222.59 110.61 222.59 110.54 222.59 110.49 222.6 110.45 222.6 110.42 222.62 110.38 222.63 110.34 222.63 110.29 222.64 110.23 222.65 110.15 222.66 110.06 222.73 110.03 222.81 109.99 222.85 109.97 222.88 109.96 222.91 109.94 222.97 109.91 223.02 109.87 223.06 109.85 223.1 109.83 223.15 109.82 223.18 109.81 223.21 109.8 223.24 109.78 223.29 109.75 223.34 109.72 223.38 109.7 223.4 109.68 223.45 109.68 223.51 109.67 223.56 109.66 223.63 109.66 223.68 109.66 223.74 109.67 223.79 109.67 223.85 109.68 223.91 109.68 223.96 109.68 224.02 109.68 224.05 109.67 224.07 109.66 224.13 109.64 224.15 109.63 224.21 109.61 224.26 109.58 224.33 109.55 224.38 109.51 224.44 109.47 224.48 109.45 224.54 109.42 224.59 109.4 224.62 109.37 224.65 109.35 224.69 109.32 224.74 109.28 224.78 109.23 224.82 109.2 224.86 109.17 224.9 109.13 224.95 109.11 224.98 109.09 225.02 109.08 225.05 109.07 225.09 109.07 225.14 109.08 225.2 109.08 225.26 109.09 225.31 109.09 225.35 109.1 225.39 109.1 225.42 109.1 225.45 109.1 225.51 109.15 225.65 109.11 225.7 109.11 225.68 109.09 225.68 109.06 225.68 109.03 225.68 109.01 225.69 108.98 225.69 108.95 225.69 108.92 225.67 108.86 225.67 108.83 225.66 108.77 225.67 108.67 225.68 108.62 225.71 108.52 225.72 108.48 225.74 108.44 225.76 108.41 225.78 108.36 225.79 108.32 225.8 108.29 225.8 108.26 225.8 108.23 225.8 108.21 225.8 108.19 225.79 108.17 225.78 108.15 225.77 108.14 225.76 108.13 225.74 108.12 225.72 108.1 225.69 108.08 225.63 108.07 225.62 108.06 225.6 108.05 225.58 108.03 225.57 108.01 225.56 108 225.55 107.98 225.55 107.96 225.55 107.94 225.56 107.91 225.57 107.89 225.59 107.84 225.62 107.79 225.64 107.75 225.65 107.71 225.66 107.68 225.66 107.64 225.66 107.6 225.66 107.57 225.65 107.54 225.64 107.5 225.61 107.46 225.58 107.42 225.56 107.38 225.56 107.34 225.56 107.31 225.56 107.27 225.58 107.24 225.59 107.21 225.61 107.17 225.63 107.15 225.64 107.14 225.65 107.11 225.67 107.1 225.68 107.09 225.7 107.08 225.73 107.08 225.75 107.07 225.78 107.07 225.82 107.07 225.83 107.07 225.84 107.06 225.85 106.99 225.85 106.97 225.84 106.94 225.83 106.91 225.82 106.88 225.81 106.85 225.79 106.82 225.77 106.79 225.76 106.75 225.75 106.72 225.72 106.68 225.7 106.65 225.69 106.63 225.68 106.6 225.67 106.57 225.67 106.53 225.67 106.49 225.66 106.44 225.67 106.41 225.68 106.37 225.69 106.32 225.7 106.29 225.74 106.25 225.76 106.2 225.78 106.18 225.78 106.15 225.78 106.13 225.78 106.12 225.76 106.1 225.74 106.09 225.72 106.07 225.69 106.02 225.67 105.96 225.63 105.91 225.59 105.87 225.52 105.81 225.49 105.79 225.48 105.77 225.47 105.77 225.47 105.76 225.47 105.74 225.47 105.73 225.48 105.7 225.5 105.66 225.5 105.65 225.51 105.63 225.52 105.6 225.53 105.56 225.53 105.53 225.54 105.49 225.55 105.45 225.55 105.42 225.55 105.39 225.54 105.38 225.53 105.37 226.03 105.17 226.37 105.04 226.78 104.88 227.18 104.73 227.23 104.7 227.6 104.49 227.58 104.46 227.55 104.41 227.53 104.36 227.5 104.31 227.48 104.26 227.45 104.21 227.43 104.18 227.4 104.14 227.36 104.09 227.33 104.05 227.31 104.02 227.3 104 227.3 103.98 227.29 103.94 227.3 103.92 227.3 103.88 227.32 103.82 227.33 103.76 227.33 103.68 227.34 103.61 227.34 103.56 227.34 103.53 227.34 103.49 227.33 103.43 227.32 103.36 227.32 103.3 227.31 103.25 227.31 103.22 227.31 103.2 227.32 103.16 227.32 103.11 227.33 103.06 227.33 103 227.34 102.96 227.35 102.92 227.37 102.87 227.4 102.82 227.44 102.77 227.43 102.61 227.43 102.51 227.42 102.41 227.4 102.37 227.37 102.3 227.35 102.27 227.34 102.25 227.3 102.22 227.22 102.16 227.13 102.09 227.05 102.03 226.98 101.99 227.19 101.81 227.4 101.72 227.72 101.29 227.75 101.26 227.8 101.21 227.9 101.13 228.17 100.91 228.21 100.95 228.32 100.9 228.39 100.96 228.6 100.78 228.91 100.51 228.92 100.46 228.93 100.42 228.94 100.4 228.96 100.38 228.99 100.35 229.01 100.33 229.04 100.32 229.06 100.31 229.08 100.3 229.11 100.29 229.13 100.29 229.16 100.29 229.18 100.29 229.2 100.29 229.24 100.29 229.26 100.25 229.25 100.21 229.25 100.16 229.24 100.09 229.24 100.06 229.23 99.96 229.21 99.74 229.59 99.71 229.64 99.75 229.68 99.78 229.7 99.81 229.72 99.84 229.74 99.88 229.76 99.92 229.77 99.97 229.78 100.01 229.79 100.07 229.79 100.12 229.8 100.2 229.81 100.29 229.82 100.44 230.08 100.39 230.21 100.54 230.27 100.63 230.24 100.74 230.51 101.16 230.49 101.31 230.41 101.46 230.3 101.67 230.31 101.79 230.48 102 230.38 102.09 230.34 102.13 230.3 102.18 230.27 102.22 230.26 102.27 230.26 102.33 230.28 102.4 230.32 102.43 230.36 102.47 230.39 102.53 230.39 102.67 230.4 102.75 230.46 102.87 230.6 103.07 230.68 103.22 230.71 103.28 230.75 103.32 230.85 103.36 230.9 103.35 230.95 103.32 230.99 103.28 231.03 103.22 231.06 103.19 231.2 102.94 231.25 102.9 231.39 102.81 231.62 102.97 231.51 103.32 231.62 103.48 231.62 103.6 231.82 103.67 232.14 103.66 232.18 103.62 232.23 103.61 232.28 103.63 232.33 103.66 232.44 103.72 232.59 103.78 232.85 103.78 232.88 103.24 232.93 103.24 233.03 103.28 233.08 103.3 233.14 103.31 233.2 103.31 233.21 103.31 233.28 103.3 233.65 103.23 233.78 103.19 234.02 103.1 234.21 103.08 234.35 103.02 234.48 103.02 234.58 103.04 234.77 102.75 235.18 102.68 235.33 102.76 235.4 102.96 235.56 103.11 235.67 103.05 236.04 102.96 236.09 102.96 236.13 102.99 236.17 103.01 236.2 103.03 236.24 103.04 236.3 103.06 236.36 103.08 236.43 103.1 236.49 103.11 236.54 103.12 236.61 103.13 236.79 103.16 237.17 103.14 237.38 103.13 237.4 103.13 237.55 103.12 237.86 103.12 238.18 103.03 238.31 103.01 238.37 102.98 238.43 102.96 238.46 102.95 238.51 102.92 238.58 102.88 238.64 102.85 238.72 102.8 238.74 102.78 238.77 102.75 238.83 102.69 238.87 102.65 238.9 102.61 238.92 102.6 238.94 102.58 238.95 102.58 238.98 102.56 239.03 102.53 239.08 102.5 239.13 102.45 239.19 102.39 239.29 102.27 239.4 102.06 239.43 102 239.63 101.49 239.83 101.34 239.86 101.28 239.9 101.25 240.01 101.14 240.05 101.11 240.07 101.09 240.1 101.06 240.14 101.02 240.18 100.99 240.2 100.97 240.22 100.96 240.31 100.9 240.34 100.88 240.38 100.84 240.43 100.82 240.46 100.79 240.47 100.78 240.48 100.77 240.53 100.73 240.57 100.68 240.63 100.59 240.7 100.5 240.73 100.46 240.77 100.41 240.79 100.37 240.81 100.33 240.85 100.3 240.88 100.27 240.95 100.22 240.97 100.12 240.99 100.08 241.02 100.03 241.08 99.93 241.18 99.76 241.21 99.71 241.23 99.66 241.25 99.61 241.28 99.56 241.36 99.44 241.39 99.39 241.4 99.37 241.4 99.34 241.42 99.3 241.57 99.07 241.68 98.89 241.88 98.48 241.98 98.21 242.08 98.14 Z"/>
</g></svg>