<svg xmlns="http://www.w3.org/2000/svg" version="1.2" baseProfile="tiny" stroke-linecap="round" stroke-linejoin="round" viewBox="658.93 159.63 33.52 42.75"><g xmlns="http://www.w3.org/2000/svg" id="Mendibe">
<path d="M 665.13 159.76 665.13 159.82 665.12 159.92 665.12 159.97 665.11 160.09 665.11 160.18 665.12 160.24 665.12 160.29 665.14 160.35 665.17 160.42 665.2 160.49 664.81 160.6 664.7 160.66 664.72 160.94 664.84 161.16 664.83 161.32 664.79 161.48 664.76 161.48 664.63 161.39 664.54 161.38 664.57 161.58 664.52 161.61 664.6 161.76 664.6 161.81 664.49 161.96 664.44 161.98 664.39 162.05 664.28 162.22 664.11 162.6 664.12 163.04 664.06 163.25 664.12 163.37 664.22 163.47 664.28 163.64 664.34 164.08 664.46 164.27 664.66 164.44 664.94 164.55 664.95 164.71 665.49 164.87 665.66 164.91 665.69 164.96 665.64 165.12 665.71 165.35 666.15 165.48 666.06 165.65 665.56 165.57 665.52 165.53 665.49 165.49 665.45 165.46 665.4 165.44 665.25 165.55 665.16 165.85 664.98 165.99 664.84 166.32 664.76 166.53 664.8 167.13 664.84 167.46 664.88 167.48 664.91 167.48 664.93 167.46 664.99 167.41 665.07 167.37 665.16 167.37 665.29 167.38 665.4 167.4 665.48 167.42 665.54 167.43 665.6 167.43 665.63 167.43 665.68 168.07 665.81 168.28 666.04 168.49 666.08 168.59 665.94 168.78 665.96 168.79 665.98 168.84 665.98 168.89 666.6 169.22 667.22 169.56 667.82 169.78 667.85 170.23 667.88 170.24 667.94 170.26 667.99 170.27 668.02 170.29 668.07 170.33 668.11 170.37 668.15 170.41 668.2 170.47 668.26 170.53 668.3 170.57 668.33 170.59 668.35 170.6 668.39 170.62 668.45 170.63 668.55 170.65 668.67 170.66 668.76 170.67 668.81 170.68 668.98 170.73 669.02 170.75 669.06 170.77 669.09 170.79 669.12 170.82 669.14 170.84 669.17 170.86 669.2 170.88 669.23 170.89 669.27 170.9 669.32 170.92 669.37 170.94 669.41 170.96 669.48 170.99 669.53 171.01 669.57 171.02 669.59 171.02 669.64 171.03 669.69 171.04 669.75 171.04 669.79 171.04 669.85 171.04 669.9 171.04 669.96 171.03 670.01 171.03 670.03 171.03 670.07 171.05 670.1 171.07 670.12 171.08 670.14 171.07 670.16 171.07 670.21 171.06 670.26 171.05 670.33 171.04 670.37 171.03 670.41 171.04 670.45 171.05 670.53 171.08 670.58 171.11 670.61 171.12 670.63 171.15 670.66 171.19 671.55 171.35 671.98 171.69 672.4 172.18 672.56 172.29 673.03 172.47 673.26 172.49 673.77 172.44 674.14 172.51 674.3 172.5 674.79 172.48 675.48 172.61 675.97 172.76 676.79 172.94 676.8 172.94 677.2 173.05 677.26 172.36 677.3 171.81 677.25 171.46 677.31 171.25 677.41 171.1 677.64 170.94 677.71 170.92 678.66 170.76 678.7 170.76 678.78 170.76 678.83 170.76 678.95 170.76 679.06 170.76 679.11 170.76 679.21 170.76 679.33 170.78 679.45 170.8 679.49 170.81 679.52 170.82 679.56 170.82 679.59 170.83 679.66 170.85 680.69 170.9 680.76 171.08 680.77 171.12 680.77 171.13 680.78 171.17 680.78 171.2 680.8 171.24 680.82 171.27 680.89 171.33 680.94 171.38 680.99 171.44 681.06 171.52 681.1 171.59 681.15 171.66 681.2 171.76 681.22 171.8 681.25 171.84 681.34 171.91 681.48 172.01 681.56 172.07 681.61 172.11 681.65 172.14 681.7 172.17 681.77 172.21 681.86 172.26 681.95 172.31 682.02 172.34 682.09 172.38 682.83 173.35 683.33 173.92 683.39 174.15 683.43 174.18 683.4 174.27 683.45 174.31 683.49 174.35 683.59 174.45 683.64 174.51 683.78 174.63 683.82 174.67 683.87 174.71 683.95 174.75 684.06 174.8 684.09 174.81 684.16 174.83 684.23 174.86 684.3 174.88 684.38 174.91 684.41 174.92 684.45 174.92 684.53 174.93 684.6 174.94 684.7 174.95 684.87 174.99 684.99 175.02 685.01 175.03 685.16 175.09 685.28 175.16 685.37 175.19 685.47 175.22 685.57 175.27 685.68 175.31 685.79 175.35 685.91 175.39 686.68 175.55 686.73 175.6 686.78 175.64 686.84 175.68 686.88 175.7 686.91 175.71 686.93 175.72 687.54 176.04 687.91 176.3 688.22 176.5 688.38 176.55 688.59 176.52 688.76 176.42 688.91 176.29 688.98 176.26 689.19 176.27 689.27 176.45 689.36 176.5 689.41 176.53 689.43 176.56 689.47 176.58 689.64 176.69 689.68 176.71 689.71 176.72 689.74 176.73 689.78 176.73 689.83 176.73 689.85 176.73 689.87 176.73 690.17 177.29 690.76 178.25 690.77 178.28 690.78 178.29 690.79 178.31 690.84 178.36 690.87 178.39 690.87 178.42 690.88 178.43 690.89 178.44 690.91 178.45 690.96 178.49 690.98 178.51 690.99 178.53 691 178.56 691.01 178.57 691.02 178.59 691.04 178.6 691.08 178.62 691.11 178.63 691.13 178.64 691.14 178.65 691.18 178.68 691.11 178.85 691.1 178.86 691.08 178.87 691.06 178.89 691.05 178.91 691.05 178.92 691.05 178.94 691.05 178.96 691.05 178.98 691.06 178.99 691.08 179.01 691.1 179.02 691.11 179.04 691.13 179.07 691.14 179.09 691.17 179.1 691.18 179.12 691.2 179.14 691.21 179.15 691.23 179.17 691.24 179.18 691.26 179.19 691.29 179.19 691.3 179.19 691.32 179.2 691.34 179.21 691.36 179.23 691.38 179.23 691.4 179.23 691.42 179.24 691.43 179.24 691.45 179.26 691.47 179.27 691.48 179.28 691.5 179.28 691.53 179.28 691.55 179.28 691.58 179.3 691.59 179.31 691.61 179.33 691.69 179.37 691.73 179.4 691.77 179.43 691.8 179.45 691.85 179.46 691.87 179.48 691.89 179.49 691.91 179.51 691.93 179.53 691.94 179.56 691.95 179.59 691.96 179.63 691.98 179.66 692 179.69 692.02 179.71 692.04 179.73 692.05 179.74 692.06 179.77 692.06 179.8 692.05 179.84 692.04 179.88 692.02 179.91 692.01 179.94 691.99 179.98 691.97 180.02 691.95 180.06 691.94 180.1 691.91 180.13 691.88 180.16 691.85 180.19 691.84 180.21 691.83 180.24 691.83 180.27 691.81 180.29 691.79 180.32 691.77 180.35 691.76 180.38 691.76 180.41 691.75 180.45 691.73 180.47 691.7 180.5 691.67 180.53 691.64 180.55 691.61 180.58 691.6 180.61 691.6 180.63 691.6 180.67 691.6 180.7 691.6 180.75 691.58 180.77 691.56 180.79 691.53 180.82 691.53 180.84 691.53 180.86 691.53 180.88 691.52 180.91 691.5 180.94 691.48 180.96 691.44 181.02 691.43 181.03 691.42 181.07 691.42 181.1 691.42 181.15 691.42 181.19 691.41 181.22 691.41 181.26 691.41 181.28 691.4 181.31 691.4 181.41 691.49 181.43 691.54 181.45 691.59 181.46 691.63 181.47 691.67 181.48 691.7 181.49 691.73 181.51 691.76 181.53 691.79 181.55 691.81 181.58 691.84 181.6 691.87 181.62 691.89 181.64 691.93 181.68 691.98 181.77 692 181.81 692.01 181.84 692.03 181.87 692.04 181.88 692.05 181.9 692.07 181.93 692.08 181.95 692.07 181.98 692.07 182 692.06 182.02 692.05 182.04 692.05 182.07 692.04 182.1 692.04 182.12 692.03 182.14 692.02 182.16 691.97 182.27 692.08 182.93 692.19 183.6 692.3 184.27 692.41 184.94 692.43 185.05 692.15 185.03 691.34 184.95 690.54 184.86 689.73 184.78 688.93 184.69 688.79 184.7 688.75 184.76 688.71 184.89 688.71 184.92 688.71 184.97 688.71 185 688.71 185.04 688.71 185.09 688.68 185.13 688.66 185.16 688.65 185.17 688.63 185.2 688.63 185.22 688.63 185.23 688.63 185.24 688.63 185.26 688.62 185.27 688.62 185.29 688.61 185.3 688.6 185.33 688.6 185.36 688.61 185.4 688.61 185.42 688.6 185.44 688.59 185.47 688.58 185.49 688.57 185.52 688.56 185.54 688.54 185.56 688.53 185.58 688.52 185.6 688.48 186.02 688.34 186.54 688.11 187.71 688.02 188.35 687.87 189.24 687.65 190.32 687.42 191.38 687.44 191.63 687.48 191.68 687.52 192.07 687.67 193.02 687.6 193.22 687.04 194.23 686.87 194.47 685.93 195.44 685.59 195.86 685.6 195.88 685.59 195.9 685.59 195.91 685.6 195.93 685.59 195.95 685.59 195.96 685.58 195.97 685.57 195.99 685.57 196.01 685.58 196.02 685.58 196.04 685.6 196.06 685.61 196.07 685.62 196.08 685.61 196.1 685.59 196.12 685.56 196.13 685.54 196.14 685.53 196.15 685.52 196.17 685.52 196.19 685.52 196.21 685.52 196.23 685.53 196.24 685.54 196.25 685.55 196.27 685.57 196.28 685.57 196.29 685.58 196.31 685.58 196.32 685.58 196.34 685.58 196.35 685.57 196.37 685.57 196.38 685.56 196.39 685.55 196.41 685.56 196.42 685.56 196.44 685.57 196.46 685.56 196.47 685.55 196.49 685.54 196.49 685.52 196.51 685.51 196.52 685.5 196.54 685.48 196.55 685.47 196.56 685.46 196.57 685.45 196.59 685.44 196.61 685.44 196.63 685.44 196.64 685.43 196.66 685.42 196.67 685.42 196.69 685.41 196.7 685.4 196.72 685.38 196.74 685.37 196.75 685.35 196.76 685.33 196.77 685.31 196.78 685.3 196.79 685.28 196.81 685.26 196.82 685.24 196.82 685.21 196.83 685.2 196.84 685.17 196.85 685.16 196.86 685.14 196.87 685.1 196.9 685.07 196.96 685.03 197 684.97 197.04 684.91 197.07 684.87 197.09 684.83 197.13 684.82 197.18 684.8 197.23 684.77 197.26 684.72 197.31 684.82 197.31 684.8 197.49 684.83 197.83 684.72 197.94 684.79 197.99 684.85 198.03 684.89 198.06 684.94 198.11 684.88 198.19 684.92 198.28 684.94 198.31 684.95 198.34 684.97 198.37 684.69 199.51 684.48 200.23 684.35 200.33 684.33 200.37 684.3 200.42 684.29 200.47 684.26 200.51 684.23 200.56 684.21 200.6 684.19 200.66 684.18 200.69 684.16 200.74 684.13 200.78 684.07 200.82 684 200.86 683.95 200.89 683.92 200.93 683.88 200.98 683.86 201 683.31 201.13 682.76 201.26 682.21 201.38 682.02 201.29 681.83 201.27 681.78 201.27 681.7 201.27 681.53 201.28 681.45 201.28 681.4 201.28 681.34 201.29 681.29 201.29 681.26 201.29 681.19 201.31 681.14 201.34 681.1 201.35 681.02 201.4 680.98 201.42 680.85 201.47 680.8 201.5 680.54 201.58 680.47 201.61 680.42 201.63 680.36 201.65 680.02 201.77 679.97 201.79 679.81 201.87 679.78 201.88 679.76 201.89 679.73 201.9 679.7 201.91 679.66 201.93 679.64 201.94 679.62 201.95 679.6 201.96 679.58 201.97 679.55 201.99 679.53 202.01 679.5 202.02 679.48 202.03 679.46 202.04 679.43 202.04 679.4 202.03 679.37 202.03 679.34 202.03 679.31 202.02 679.28 202.02 679.26 202.02 679.23 202.03 679.22 202.04 679.2 202.05 679.19 202.07 679.18 202.09 679.17 202.11 679.16 202.13 679.15 202.15 679.14 202.18 679.13 202.21 679.11 202.24 679.09 202.26 679.07 202.29 679.05 202.31 679.03 202.33 679.01 202.34 678.99 202.35 678.97 202.36 678.94 202.37 678.92 202.38 678.89 202.38 678.84 202.38 678.8 202.38 678.81 202.34 678.81 202.3 678.82 202.26 678.82 202.21 678.83 202.16 678.83 202.13 678.84 202.09 678.84 202.05 678.84 202.02 678.83 201.98 678.82 201.93 678.82 201.89 678.83 201.85 678.85 201.8 678.86 201.76 678.86 201.72 678.87 201.69 678.87 201.65 678.89 201.61 678.9 201.57 678.91 201.53 678.91 201.49 678.91 201.45 678.92 201.42 678.93 201.38 678.94 201.35 678.95 201.31 678.95 201.28 678.95 201.24 678.95 201.22 678.96 201.2 678.96 201.17 678.93 200.98 678.93 200.95 678.93 200.92 678.94 200.88 678.96 200.84 678.98 200.8 679 200.77 679.02 200.74 679.05 200.7 679.07 200.67 679.1 200.63 679.12 200.6 679.15 200.58 679.17 200.57 679.19 200.55 679.21 200.53 679.24 200.5 679.26 200.48 679.28 200.46 679.29 200.43 679.31 200.41 679.33 200.4 679.35 200.39 679.37 200.39 679.4 200.39 679.43 200.4 679.46 200.41 679.49 200.42 679.51 200.44 679.54 200.45 679.57 200.45 679.59 200.45 679.6 200.44 679.63 200.41 679.67 200.39 679.7 200.36 679.72 200.33 679.74 200.3 679.76 200.26 679.78 200.22 679.8 200.19 679.82 200.15 679.84 200.13 679.87 200.1 679.91 200.07 679.93 200.06 679.95 200.05 679.98 200.03 680 200.02 680.02 200 680.03 199.98 680.03 199.95 680.05 199.93 680.05 199.9 680.06 199.87 680.07 199.83 680.08 199.8 680.09 199.76 680.09 199.73 680.09 199.71 680.09 199.68 680.09 199.67 680.06 199.61 680.04 199.59 680.02 199.57 679.99 199.54 679.98 199.53 679.95 199.52 679.93 199.51 679.9 199.5 679.88 199.48 679.86 199.46 679.85 199.43 679.84 199.41 679.83 199.38 679.82 199.36 679.82 199.33 679.82 199.31 679.83 199.29 679.83 199.27 679.84 199.25 679.86 199.22 679.88 199.13 679.88 199.09 679.88 199.07 679.87 199.05 679.86 199.02 679.84 199 679.81 198.98 679.78 198.96 679.77 198.95 679.74 198.92 679.71 198.89 679.7 198.87 679.68 198.85 679.66 198.82 679.64 198.8 679.62 198.76 679.61 198.73 679.61 198.71 679.61 198.68 679.61 198.66 679.62 198.64 679.63 198.63 679.65 198.61 679.67 198.6 679.73 198.56 679.78 198.54 679.8 198.52 679.81 198.51 679.82 198.49 679.83 198.47 679.83 198.46 679.83 198.42 679.83 198.4 679.82 198.38 679.81 198.36 679.8 198.35 679.77 198.33 679.73 198.32 679.7 198.3 679.68 198.29 679.65 198.28 679.63 198.26 679.62 198.25 679.62 198.23 679.63 198.2 679.65 198.18 679.66 198.17 679.68 198.17 679.71 198.17 679.73 198.17 679.76 198.16 679.78 198.16 679.81 198.16 679.83 198.16 679.86 198.15 679.88 198.15 679.92 198.13 679.94 198.12 679.95 198.1 679.97 198.08 680.01 198.04 680.06 198.01 680.12 197.97 680.19 197.92 680.25 197.88 680.28 197.84 680.3 197.82 680.32 197.8 680.33 197.78 680.34 197.76 680.34 197.75 680.34 197.73 680.35 197.7 680.35 197.68 680.35 197.66 680.35 197.63 680.36 197.6 680.36 197.58 680.36 197.55 680.37 197.54 680.37 197.52 680.38 197.51 680.39 197.5 680.41 197.49 680.42 197.47 680.44 197.46 680.46 197.44 680.49 197.42 680.52 197.4 680.54 197.38 680.55 197.37 680.56 197.35 680.57 197.34 680.58 197.33 680.58 197.31 680.58 197.29 680.58 197.27 680.58 197.25 680.58 197.23 680.58 197.21 680.57 197.18 680.57 197.16 680.56 197.14 680.56 197.13 680.55 197.11 680.53 197.08 680.52 197.06 680.5 197.04 680.5 197.02 680.5 196.99 680.5 196.97 680.5 196.94 680.51 196.92 680.52 196.9 680.53 196.88 680.55 196.86 680.56 196.84 680.57 196.82 680.59 196.8 680.61 196.78 680.63 196.76 680.64 196.74 680.66 196.71 680.68 196.69 680.69 196.67 680.7 196.65 680.71 196.63 680.7 196.61 680.7 196.59 680.69 196.58 680.68 196.57 680.67 196.56 680.66 196.54 680.64 196.53 680.59 196.51 680.48 196.45 680.38 196.37 680.35 196.38 680.32 196.39 680.29 196.38 680.27 196.38 680.24 196.38 680.21 196.38 680.19 196.39 680.18 196.41 680.17 196.42 680.13 196.44 680.11 196.46 680.1 196.46 680.09 196.46 680.07 196.46 680.05 196.46 680.03 196.45 680.02 196.45 680 196.45 679.98 196.45 679.96 196.46 679.91 196.5 679.88 196.52 679.86 196.53 679.84 196.54 679.83 196.54 679.81 196.54 679.79 196.54 679.77 196.54 679.72 196.52 679.68 196.51 679.65 196.5 679.62 196.48 679.58 196.48 679.55 196.47 679.53 196.45 679.49 196.44 679.47 196.44 679.42 196.41 679.38 196.39 679.35 196.38 679.32 196.37 679.29 196.37 679.24 196.36 679.2 196.35 679.16 196.35 679.12 196.35 679.09 196.35 679.06 196.35 679.02 196.36 678.99 196.37 678.93 196.39 678.89 196.41 678.87 196.42 678.85 196.44 678.81 196.46 678.79 196.49 678.74 196.52 678.7 196.55 678.67 196.58 678.63 196.61 678.56 196.63 678.46 196.64 678.32 196.65 678.12 196.65 677.99 196.64 677.87 196.64 677.76 196.65 677.58 196.65 677.54 196.65 677.5 196.66 677.46 196.66 677.39 196.67 677.33 196.68 677.33 196.69 677.31 196.7 677.28 196.7 677.24 196.69 677.22 196.68 677.2 196.65 677.16 196.64 677.13 196.63 677.1 196.63 677.08 196.63 677.06 196.62 677.04 196.61 677.02 196.6 676.99 196.59 676.98 196.58 676.96 196.58 676.93 196.57 676.91 196.56 676.89 196.54 676.87 196.52 676.87 196.5 676.86 196.48 676.86 196.46 676.85 196.45 676.83 196.44 676.8 196.43 676.77 196.44 676.74 196.43 676.71 196.42 676.59 196.31 676.53 196.26 676.49 196.22 676.46 196.19 676.43 196.15 676.39 196.13 676.37 196.12 676.34 196.11 676.31 196.12 676.29 196.13 676.27 196.14 676.22 196.14 676.2 196.13 676.18 196.12 676.15 196.1 676.13 196.09 676.1 196.08 676.06 196.08 676.03 196.07 676 196.06 675.96 196.05 675.93 196.05 675.9 196.03 675.88 196.03 675.84 196.03 675.81 196.02 675.79 196.01 675.75 196 675.74 195.99 675.72 195.98 675.67 195.97 675.64 195.96 675.62 195.95 675.59 195.94 675.55 195.93 675.52 195.92 675.48 195.9 675.45 195.89 675.41 195.86 675.39 195.84 675.36 195.81 675.32 195.76 675.31 195.73 675.28 195.7 675.27 195.68 675.25 195.65 675.23 195.61 675.21 195.57 675.17 195.53 675.14 195.5 675.11 195.46 675.09 195.43 675.07 195.4 675.05 195.37 675.05 195.35 675.03 195.34 675.01 195.33 674.99 195.32 674.97 195.3 674.94 195.28 674.92 195.26 674.91 195.24 674.88 195.21 674.86 195.19 674.84 195.17 674.81 195.14 674.8 195.12 674.8 195.1 674.79 195.07 674.78 195.04 674.77 195.02 674.76 195 674.77 194.98 674.77 194.96 674.77 194.95 674.77 194.94 674.76 194.93 674.72 194.91 674.7 194.9 674.68 194.89 674.67 194.88 674.65 194.88 674.64 194.89 674.65 194.91 674.65 194.93 674.64 194.94 674.62 194.94 674.61 194.94 674.6 194.92 674.59 194.9 674.57 194.89 674.56 194.88 674.54 194.86 674.52 194.85 674.5 194.85 674.49 194.86 674.49 194.87 674.49 194.88 674.48 194.9 674.46 194.9 674.44 194.89 674.42 194.88 674.4 194.87 674.34 194.81 674.29 194.79 674.23 194.79 674.14 194.76 673.79 194.71 673.41 194.49 673.2 194.48 673.65 193.91 674.04 193.81 674.3 193.42 674.29 193.21 674.27 192.91 674.35 192.76 674.42 192.61 674.43 192.54 674.43 192.53 674.44 192.51 674.47 192.47 674.53 192.41 674.54 192.39 674.56 192.38 674.57 192.37 674.59 192.36 674.6 192.35 674.62 192.31 674.66 192.28 674.67 192.28 674.69 192.27 674.7 192.26 674.71 192.25 674.72 192.24 674.73 192.23 674.75 192.23 674.76 192.21 674.76 192.2 674.76 192.18 674.78 192.12 674.8 192.06 674.81 192.05 674.81 192.03 674.81 192 674.81 191.94 674.8 191.87 674.81 191.74 674.81 191.7 674.81 191.68 674.79 191.63 674.76 191.5 674.71 191.33 674.68 191.16 674.64 190.98 674.61 190.84 674.6 190.79 674.55 190.66 674.49 190.52 674.42 190.35 674.42 190.2 674.46 190.14 674.49 190.11 674.52 190.08 674.7 190 674.81 189.94 674.95 189.86 675.03 189.82 675.06 189.8 675.12 189.75 675.15 189.73 675.17 189.72 675.25 189.69 675.41 189.65 675.59 189.61 675.67 189.59 675.72 189.59 675.77 189.58 675.8 189.57 675.84 189.55 675.88 189.52 675.9 189.49 675.93 189.47 675.96 189.44 675.99 189.43 676.03 189.42 676.07 189.42 676.09 189.42 676.13 189.43 676.16 189.44 676.16 189.37 676.08 189.33 676.04 189.31 676.02 189.3 675.99 189.29 675.93 189.29 675.87 189.27 675.85 189.26 675.82 189.24 675.8 189.22 675.77 189.2 675.76 189.18 675.69 189.06 675.65 188.99 675.64 188.96 675.64 188.93 675.64 188.89 675.64 188.82 675.65 188.76 675.64 188.72 675.62 188.64 675.62 188.61 675.62 188.59 675.63 188.54 675.67 188.42 675.68 188.34 675.68 188.31 675.68 188.28 675.67 188.26 675.65 188.24 675.63 188.23 675.57 188.2 675.53 188.18 675.5 188.16 675.48 188.14 675.45 188.11 675.43 188.07 675.4 187.99 675.38 187.97 675.32 187.86 675.31 187.83 675.3 187.79 675.28 187.71 675.27 187.61 675.27 187.58 675.28 187.54 675.3 187.48 675.32 187.44 675.33 187.42 675.33 187.38 675.32 187.35 675.3 187.28 675.26 187.21 675.25 187.19 675.23 187.17 675.21 187.17 675.19 187.17 675.17 187.17 675.13 187.18 675.07 187.23 674.97 187.29 674.93 187.31 674.91 187.31 674.89 187.31 674.87 187.31 674.84 187.3 674.83 187.28 674.83 187.27 674.83 187.25 674.84 187.23 674.85 187.22 674.88 187.2 674.71 187.04 674.9 186.89 674.88 186.89 674.85 186.88 674.83 186.87 674.82 186.86 674.7 186.69 674.61 186.55 674.53 186.42 674.48 186.33 674.45 186.29 674.38 186 674.22 185.66 673.53 185.26 673.43 185.08 673.34 184.93 673.28 184.83 673.24 184.78 673.11 184.61 673.02 184.48 672.96 184.37 672.92 184.29 672.92 184.26 672.91 184.24 672.92 184.2 672.98 184.04 672.96 183.97 672.95 183.92 672.95 183.86 672.96 183.81 672.95 183.75 672.95 183.7 672.96 183.65 672.97 183.6 672.98 183.58 672.98 183.5 672.98 183.45 672.99 183.37 672.99 183.34 672.98 183.22 672.94 183.08 672.9 182.91 672.88 182.84 672.84 182.73 672.8 182.63 672.76 182.52 672.74 182.43 672.73 182.4 672.61 182.45 672.59 182.43 672.55 182.39 672.53 182.36 672.48 182.3 672.42 182.23 672.38 182.18 672.32 182.12 672.23 182.05 672.18 182.01 672.11 181.93 672.05 181.89 671.98 181.89 671.92 181.86 671.86 181.79 671.81 181.72 671.74 181.65 671.69 181.6 671.66 181.57 671.59 181.53 671.54 181.53 671.44 181.51 671.31 181.44 671.2 181.35 671.1 181.24 671.02 181.15 670.98 181.09 670.95 180.99 670.93 180.88 670.9 180.79 670.85 180.69 670.8 180.6 670.78 180.57 670.73 180.52 670.67 180.44 670.63 180.39 670.61 180.37 670.55 180.31 670.48 180.24 670.43 180.19 670.36 180.14 670.3 180.11 670.26 180.08 670.13 179.98 669.96 179.86 669.84 179.77 669.77 179.72 669.74 179.69 669.72 179.66 669.7 179.62 669.64 179.51 669.59 179.41 669.57 179.38 669.56 179.33 669.52 179.16 669.49 179.16 669.48 179.16 669.46 179.15 669.45 179.15 669.38 179.17 669.35 179.17 669.33 179.17 669.3 179.17 669.25 179.16 669.17 179.13 669.09 179.1 669.05 179.09 668.94 179.08 668.86 179.07 668.81 179.06 668.66 179.01 668.54 178.96 668.41 178.92 668.36 178.91 668.32 178.9 668.26 178.9 668.24 178.89 668.21 178.88 668.11 178.83 668.05 178.79 668.03 178.77 668.02 178.75 667.98 178.68 667.93 178.61 667.84 178.52 667.71 178.38 667.67 178.31 667.6 178.23 667.56 178.19 667.51 178.16 667.41 178.11 667.36 178.09 667.32 178.09 667.21 178.08 667.19 178.08 667.15 178.06 667.07 178.02 667.05 178.02 667.01 178.02 666.94 178.03 666.91 178.03 666.88 178.03 666.84 178.01 666.77 177.97 666.66 177.88 666.57 177.82 666.45 177.76 666.35 177.73 666.24 177.7 666.19 177.69 666.13 177.69 666.07 177.69 665.97 177.7 665.9 177.71 665.84 177.7 665.75 177.67 665.67 177.64 665.6 177.59 665.51 177.51 665.41 177.42 665.31 177.3 665.24 177.21 665.2 177.16 665.18 177.12 665.16 177.06 665.14 177 665.1 176.94 665.05 176.89 665.01 176.85 664.98 176.82 664.96 176.8 664.86 176.71 664.76 176.61 664.65 176.52 664.53 176.43 664.43 176.34 664.35 176.26 664.27 176.19 664.18 176.14 664.12 176.11 664.1 176.1 663.97 176.05 663.95 176.05 663.94 176.05 663.93 176.03 663.91 176.01 663.88 175.99 663.84 175.96 663.76 175.92 663.72 175.9 663.7 175.89 663.68 175.86 663.66 175.8 663.63 175.74 663.59 175.68 663.56 175.63 663.52 175.6 663.47 175.55 663.42 175.51 663.38 175.47 663.34 175.43 663.27 175.39 663.21 175.35 663.18 175.31 663.17 175.29 663.17 175.28 663.18 175.25 663.22 175.22 663.27 175.18 663.32 175.13 663.37 175.06 663.41 175 663.46 174.95 663.48 174.91 663.48 174.87 663.47 174.83 663.46 174.8 663.43 174.73 663.4 174.69 663.37 174.65 663.35 174.61 663.34 174.58 663.34 174.56 663.33 174.53 663.33 174.51 663.32 174.48 663.32 174.46 663.31 174.42 663.3 174.4 663.28 174.38 663.26 174.35 663.21 174.32 663.17 174.3 663.15 174.29 663.13 174.29 663.11 174.28 663.08 174.28 663.06 174.28 663.04 174.29 663 174.31 662.99 174.32 662.97 174.32 662.96 174.33 662.94 174.34 662.92 174.34 662.91 174.34 662.89 174.33 662.87 174.31 662.85 174.29 662.83 174.24 662.75 174.16 662.71 174.11 662.69 174.1 662.66 174.09 662.64 174.07 662.61 174.05 662.56 174 662.51 173.94 662.47 173.87 662.44 173.79 662.4 173.71 662.34 173.62 662.31 173.55 662.3 173.5 662.29 173.47 662.29 173.44 662.3 173.41 662.3 173.37 662.3 173.35 662.29 173.33 662.27 173.3 662.24 173.26 662.22 173.24 662.16 173.21 662.09 173.18 662.01 173.14 661.93 173.1 661.85 173.05 661.8 173.02 661.78 173.01 661.76 172.99 661.75 172.97 661.74 172.96 661.73 172.94 661.73 172.92 661.72 172.9 661.72 172.88 661.7 172.86 661.68 172.83 661.61 172.77 661.53 172.7 661.49 172.67 661.43 172.63 661.4 172.61 661.37 172.6 661.33 172.56 661.3 172.53 661.26 172.47 661.22 172.45 661.19 172.41 661.16 172.37 661.14 172.36 661.11 172.34 661.08 172.33 661.07 172.31 661.06 172.3 661.04 172.29 661.02 172.29 661.01 172.28 660.98 172.28 660.95 172.28 660.92 172.28 660.89 172.28 660.85 172.28 660.81 172.29 660.77 172.3 660.72 172.3 660.67 172.3 660.62 172.29 660.58 172.28 660.54 172.26 660.46 172.23 660.41 172.19 660.39 172.17 660.37 172.15 660.36 172.12 660.35 172.1 660.29 171.98 660.25 171.91 660.23 171.85 660.23 171.82 660.06 171.72 660.06 171.71 660.05 171.63 660.05 171.55 660.04 171.44 660.05 171.34 660.04 171.31 660.04 171.28 660.03 171.25 660.02 171.2 659.99 171.12 659.98 171.06 659.97 171.02 659.96 170.99 659.95 170.98 659.92 170.96 659.9 170.96 659.86 170.96 659.8 170.97 659.73 170.98 659.68 170.99 659.67 170.99 659.65 170.98 659.65 170.98 659.64 170.98 659.64 170.97 659.64 170.96 659.64 170.94 659.66 170.92 659.69 170.87 659.73 170.8 659.82 170.64 659.86 170.57 659.88 170.54 659.89 170.5 659.88 170.45 659.88 170.42 659.85 170.39 659.81 170.35 659.76 170.31 659.71 170.27 659.67 170.25 659.66 170.25 659.64 170.24 659.62 170.24 659.61 170.24 659.58 170.24 659.56 170.24 659.54 170.24 659.52 170.24 659.49 170.23 659.46 170.23 659.44 170.23 659.42 170.22 659.4 170.21 659.38 170.2 659.36 170.19 659.35 170.17 659.34 170.15 659.32 170.13 659.28 170.06 659.23 169.98 659.19 169.93 659.17 169.89 659.16 169.87 659.14 169.84 659.13 169.81 659.12 169.78 659.12 169.75 659.12 169.73 659.07 169.6 659.05 169.54 659.04 169.48 659.01 169.41 658.99 169.31 658.98 169.28 658.97 169.24 658.96 169.2 658.95 169.11 658.95 169.05 658.94 168.98 658.94 168.94 658.97 168.88 659 168.84 659.04 168.81 659.06 168.8 659.08 168.8 659.11 168.79 659.16 168.8 659.19 168.8 659.2 168.79 659.24 168.76 659.31 168.66 659.36 168.61 659.41 168.56 659.46 168.52 659.51 168.49 659.57 168.47 659.59 168.47 659.64 168.45 659.67 168.43 659.7 168.41 659.72 168.39 659.74 168.36 659.75 168.33 659.76 168.3 659.76 168.28 659.78 168.24 659.81 168.2 659.84 168.16 659.86 168.11 659.88 168.05 659.89 168.01 659.9 167.95 659.91 167.88 659.92 167.81 659.92 167.76 659.92 167.73 659.92 167.7 659.9 167.67 659.88 167.63 659.87 167.59 659.85 167.56 659.83 167.52 659.82 167.5 659.8 167.49 659.77 167.48 659.72 167.46 659.71 167.44 659.7 167.42 659.67 167.38 659.62 167.29 659.77 167.1 659.87 167.01 660.12 166.96 660.29 166.94 660.56 166.82 660.61 166.77 660.69 166.41 660.58 166.34 660.47 166.25 660.41 166.21 660.35 166.16 660.32 166.13 660.29 166.09 660.26 165.97 660.26 165.92 660.23 165.87 660.21 165.8 660.2 165.76 660.19 165.72 660.18 165.65 660.18 165.62 660.17 165.59 660.14 165.54 660.07 165.45 660.03 165.39 660.01 165.31 660 165.3 659.98 165.27 659.94 165.19 659.89 165.12 660.06 164.86 660.01 164.82 659.95 164.77 659.9 164.7 659.85 164.62 659.85 164.58 659.84 164.56 659.84 164.54 659.85 164.5 659.86 164.48 659.87 164.46 659.9 164.44 659.93 164.43 659.95 164.41 659.98 164.4 660.04 164.37 660.06 164.35 660.09 164.33 660.12 164.31 660.14 164.29 660.16 164.27 660.19 164.24 660.2 164.21 660.22 164.19 660.24 164.16 660.26 164.13 660.27 164.1 660.29 164.06 660.29 164.04 660.29 164 660.29 163.96 660.28 163.94 660.27 163.9 660.24 163.88 660.22 163.85 660.2 163.82 660.18 163.8 660.14 163.79 660.11 163.79 660.09 163.78 660.05 163.78 660.02 163.77 660 163.76 659.97 163.75 659.95 163.74 659.93 163.72 659.91 163.7 659.89 163.67 659.88 163.65 659.86 163.62 659.85 163.59 659.84 163.56 659.82 163.54 659.81 163.51 659.8 163.49 659.78 163.47 659.76 163.45 660.24 162.97 660.31 162.88 660.19 162.66 660.18 162.57 660.39 162.48 660.38 162.46 660.38 162.44 660.38 162.42 660.39 162.41 660.4 162.39 660.43 162.34 660.47 162.27 660.5 162.24 660.51 162.22 660.53 162.2 660.54 162.18 660.55 162.16 660.57 162.14 660.6 162.12 660.62 162.11 660.65 162.11 660.67 162.11 660.7 162.11 660.73 162.11 660.75 162.1 660.76 162.09 660.76 162.07 660.76 162.04 660.75 162.02 660.73 162 660.71 161.99 660.69 161.97 660.67 161.95 660.65 161.94 660.62 161.93 660.6 161.92 660.58 161.91 660.57 161.88 660.56 161.87 660.55 161.85 660.55 161.81 660.55 161.78 660.56 161.76 660.56 161.72 660.56 161.69 660.57 161.67 660.63 161.68 660.65 161.68 660.68 161.68 660.72 161.68 660.74 161.69 660.78 161.7 660.82 161.71 660.85 161.71 660.89 161.72 660.92 161.72 660.95 161.73 660.98 161.74 661 161.76 661 161.76 661.26 161.57 661.31 161.58 661.35 161.62 661.42 161.56 661.6 161.35 661.67 161.35 661.82 161.45 661.95 161.36 662.2 161.12 662.38 160.78 662.44 160.77 662.49 160.75 662.52 160.76 662.57 160.79 662.63 160.83 662.7 160.86 662.75 160.88 662.79 160.89 662.84 160.89 662.88 160.89 662.92 160.89 662.96 160.87 662.99 160.85 663.01 160.83 663.04 160.83 663.06 160.83 663.08 160.86 663.09 160.88 663.08 160.9 663.12 160.9 663.13 160.9 663.15 160.89 663.16 160.88 663.19 160.87 663.21 160.86 663.23 160.86 663.26 160.86 663.29 160.87 663.32 160.87 663.34 160.88 663.37 160.89 663.4 160.9 663.42 160.91 663.45 160.93 663.47 160.94 663.5 160.95 663.52 160.96 663.55 160.96 663.57 160.97 663.59 160.98 663.62 160.99 663.64 161 663.66 161.02 663.68 161.04 663.7 161.05 663.72 161.06 663.73 161.08 663.73 161.11 663.74 161.15 663.75 161.17 663.77 161.18 663.78 161.19 663.8 161.2 663.82 161.2 663.84 161.2 663.86 161.2 663.88 161.19 663.9 161.18 663.94 161.17 663.95 161.16 664.19 161.09 664.2 161.07 664.2 160.78 664.08 160.2 663.8 159.9 663.94 159.68 664.44 159.83 664.5 159.76 664.63 159.66 665.13 159.76 Z"/>
</g></svg>