<svg xmlns="http://www.w3.org/2000/svg" version="1.2" baseProfile="tiny" stroke-linecap="round" stroke-linejoin="round" viewBox="445.2 357.42 36.22 22.17"><g xmlns="http://www.w3.org/2000/svg" id="Mendigorria">
<path d="M 465.1 357.59 465.2 357.6 465.23 357.6 465.38 357.61 465.54 357.63 465.78 357.65 465.85 357.65 465.91 357.65 465.98 357.64 466 357.63 466.06 357.62 466.07 357.62 466.14 357.61 466.17 357.6 466.19 357.6 466.21 357.59 466.25 357.59 466.37 357.57 466.35 357.64 466.33 357.69 466.34 357.77 466.35 357.78 466.35 357.81 466.35 357.85 466.35 357.86 466.37 357.97 466.54 357.99 466.66 358 466.68 358.01 466.89 358.08 467.15 358.16 467.39 358.24 467.61 358.3 467.62 358.3 467.63 358.3 467.72 358.3 467.78 358.3 467.93 358.29 468.16 358.31 468.27 358.26 468.35 358.23 468.37 358.22 468.5 358.18 468.7 358.11 468.96 358.03 469.16 357.96 469.32 357.91 469.45 357.95 469.51 357.97 469.53 357.98 469.54 357.98 469.57 357.99 469.81 358.09 470.06 358.16 470.22 358.21 470.49 358.28 470.72 358.34 470.96 358.46 471.06 358.51 471.1 358.53 471.18 358.55 471.21 358.56 471.29 358.57 471.43 358.57 471.61 358.56 471.77 358.56 472.12 358.57 472.25 358.56 472.34 358.55 472.44 358.56 472.54 358.58 472.65 358.59 472.68 358.59 472.76 358.6 472.84 358.61 472.93 358.63 473 358.64 473.08 358.65 473.19 358.67 473.34 358.69 473.36 358.7 473.38 358.7 473.44 358.71 473.54 358.73 473.6 358.75 473.68 358.77 473.72 358.79 473.8 358.82 473.84 358.84 473.86 358.84 473.89 358.85 473.9 358.85 474.02 358.88 474.11 358.91 474.16 358.93 474.21 358.95 474.25 358.97 474.28 358.98 474.3 359 474.4 359.04 474.49 359.09 474.58 359.13 474.62 359.15 474.63 359.15 474.78 359.21 474.8 359.22 474.87 359.26 474.96 359.31 475.02 359.35 475.06 359.38 475.08 359.4 475.13 359.45 475.19 359.51 475.23 359.57 475.25 359.59 475.32 359.67 475.38 359.74 475.43 359.79 475.49 359.87 475.56 359.95 475.58 359.97 475.61 360 475.62 360.02 475.67 360.08 475.73 360.15 475.77 360.19 475.82 360.24 475.86 360.29 475.91 360.34 475.91 360.35 475.92 360.36 475.98 360.42 476.02 360.45 476.1 360.52 476.17 360.58 476.23 360.63 476.26 360.66 476.29 360.69 476.3 360.7 476.36 360.77 476.43 360.83 476.49 360.89 476.52 360.92 476.54 360.94 476.56 360.98 476.58 361.01 476.65 361.09 476.68 361.13 476.69 361.15 476.74 361.22 476.83 361.33 476.83 361.34 476.85 361.35 476.94 361.46 477 361.53 477.02 361.56 477.04 361.58 477.11 361.65 477.17 361.71 477.18 361.73 477.2 361.74 477.29 361.83 477.36 361.9 477.41 361.95 477.45 361.99 477.53 362.07 477.54 362.08 477.62 362.15 477.68 362.2 477.76 362.25 477.84 362.32 477.93 362.37 477.98 362.41 478.06 362.46 478.14 362.53 478.2 362.58 478.24 362.59 478.3 362.61 478.43 362.62 478.53 362.64 478.66 362.65 478.81 362.67 478.97 362.68 479.04 362.69 479.23 362.71 479.35 362.72 479.51 362.73 479.62 362.75 479.77 362.76 479.79 362.77 479.88 362.78 480.05 362.8 480.15 362.8 480.18 362.8 480.2 362.81 480.25 362.88 480.31 362.97 480.39 363.1 480.43 363.18 480.47 363.23 480.49 363.26 480.49 363.27 480.52 363.29 480.54 363.31 480.58 363.34 480.62 363.38 480.68 363.41 480.72 363.44 480.78 363.48 480.83 363.51 480.85 363.53 480.88 363.55 480.94 363.57 481 363.59 481.06 363.61 481.14 363.63 481.18 363.71 481.18 363.73 481.19 363.74 481.2 363.76 481.2 363.77 481.2 363.78 481.21 363.79 481.22 363.8 481.23 363.82 481.23 363.84 481.24 363.85 481.25 363.87 481.26 363.88 481.26 363.89 481.28 363.94 481.29 363.96 481.3 363.97 481.31 363.99 481.32 364 481.33 364.02 481.33 364.03 481.33 364.05 481.34 364.06 481.34 364.08 481.35 364.1 481.35 364.11 481.35 364.13 481.36 364.15 481.37 364.2 481.38 364.24 481.38 364.26 481.39 364.28 481.39 364.3 481.39 364.31 481.39 364.32 481.39 364.33 481.39 364.39 481.39 364.43 481.35 364.5 481.35 364.52 481.35 364.54 481.34 364.55 481.34 364.57 481.33 364.59 481.32 364.61 481.32 364.62 481.31 364.64 481.29 364.67 481.28 364.68 481.28 364.7 481.27 364.72 481.26 364.74 481.25 364.77 481.24 364.78 481.23 364.8 481.22 364.82 481.22 364.83 481.21 364.85 481.2 364.87 481.19 364.88 481.19 364.89 481.18 364.91 481.17 364.92 481.16 364.94 481.15 364.95 481.14 364.97 481.13 364.97 481.11 365 481.11 365.01 481.02 365.17 480.98 365.23 480.96 365.26 480.93 365.3 480.88 365.37 480.86 365.43 480.85 365.45 480.84 365.53 480.83 365.56 480.82 365.6 480.82 365.63 480.81 365.67 480.8 365.72 480.79 365.76 480.78 365.77 480.78 365.79 480.77 365.81 480.76 365.82 480.75 365.84 480.74 365.86 480.73 365.88 480.72 365.89 480.71 365.9 480.69 365.91 480.69 365.92 480.67 365.93 480.66 365.94 480.65 365.95 480.64 365.96 480.38 366.19 480.36 366.21 480.31 366.25 480.14 366.41 480.07 366.51 480.04 366.55 480.01 366.6 479.99 366.63 479.97 366.66 479.96 366.68 479.94 366.7 479.92 366.73 479.91 366.74 479.89 366.77 479.89 366.79 479.88 366.8 479.87 366.82 479.86 366.82 479.85 366.84 479.84 366.85 479.83 366.87 479.81 366.88 479.8 366.89 479.79 366.91 479.78 366.92 479.77 366.93 479.76 366.94 479.73 366.98 479.72 366.99 479.7 367.02 479.68 367.05 479.66 367.06 479.65 367.08 479.63 367.1 479.62 367.11 479.47 367.28 479.47 367.28 479.37 367.39 479.36 367.4 479.26 367.42 479.17 367.44 479.06 367.46 478.96 367.48 478.86 367.5 478.75 367.51 478.63 367.52 478.6 367.53 478.53 367.55 478.35 367.61 478.33 367.62 478.02 367.79 477.97 367.85 477.86 367.98 477.86 367.99 477.85 368 477.84 368.01 477.78 368.09 477.73 368.15 477.45 368.52 477.43 368.54 477.43 368.55 477.09 369.05 477.08 369.07 476.9 369.34 476.87 369.4 476.76 369.56 476.76 369.57 476.7 369.66 476.63 369.75 476.54 369.84 476.48 369.89 476.43 369.95 476.41 369.97 476.39 369.98 476.38 370 476.37 370.01 476.36 370.02 476.35 370.03 476.35 370.04 476.34 370.05 476.33 370.06 476.31 370.07 476.3 370.08 476.25 370.14 476.22 370.19 476.21 370.2 476.2 370.21 476.19 370.22 476.18 370.24 476.17 370.25 476.16 370.26 476.15 370.28 476.14 370.29 476.13 370.31 476.12 370.33 476.11 370.34 476.1 370.36 475.97 370.48 475.83 370.62 475.43 371.01 475.43 371.02 475.42 371.06 475.42 371.08 475.41 371.11 475.41 371.13 475.4 371.17 475.4 371.18 475.4 371.2 475.39 371.22 475.39 371.23 475.39 371.24 475.39 371.26 475.39 371.27 475.39 371.29 475.39 371.31 475.38 371.33 475.38 371.35 475.37 371.37 475.37 371.38 475.37 371.4 475.37 371.41 475.36 371.43 475.36 371.45 475.36 371.46 475.37 371.48 475.37 371.51 475.37 371.58 475.36 371.66 475.35 371.67 475.35 371.69 475.34 371.71 475.34 371.72 475.33 371.74 475.32 371.76 475.32 371.77 475.31 371.78 475.3 371.8 475.29 371.82 475.27 371.87 475.26 371.88 475.25 371.9 475.25 371.91 475.19 372.08 475.17 372.14 475.16 372.16 475.16 372.17 475.15 372.17 475.14 372.18 475.13 372.2 475.12 372.21 475.11 372.22 475.09 372.23 475.07 372.25 475.05 372.26 475.04 372.27 475.02 372.28 475.01 372.3 475 372.31 474.99 372.32 474.98 372.34 474.72 372.52 474.69 372.54 474.63 372.61 474.63 372.61 474.62 372.63 474.61 372.64 474.59 372.65 474.58 372.67 474.57 372.68 474.56 372.7 474.55 372.71 474.53 372.72 474.52 372.74 474.47 372.82 474.42 372.88 474.25 373.11 474.22 373.15 474.12 373.26 474.08 373.3 474.04 373.34 474.02 373.37 473.97 373.42 473.96 373.44 473.89 373.51 473.89 373.52 473.88 373.53 473.87 373.54 473.87 373.56 473.85 373.57 473.85 373.58 473.84 373.59 473.83 373.61 473.82 373.61 473.81 373.62 473.79 373.64 473.78 373.65 473.76 373.66 473.75 373.67 473.73 373.69 473.68 373.75 473.63 373.81 473.61 373.83 473.6 373.83 473.58 373.84 473.56 373.86 473.54 373.9 473.52 373.95 473.5 374 473.48 374.06 473.46 374.12 473.43 374.2 473.42 374.23 473.41 374.28 473.38 374.33 473.37 374.36 473.34 374.4 473.32 374.45 473.29 374.49 473.27 374.53 473.25 374.56 473.19 374.64 473.15 374.7 473.14 374.71 473.1 374.79 473.09 374.8 473.08 374.82 473.07 374.83 473.07 374.84 473.05 374.86 473.04 374.87 473.04 374.88 473.03 374.88 473.02 374.89 472.81 375.07 472.79 375.1 472.76 375.12 472.73 375.15 472.71 375.17 472.66 375.22 472.64 375.24 472.63 375.25 472.54 375.34 472.46 375.39 472.45 375.4 472.43 375.42 472.38 375.47 472.26 375.58 472.26 375.59 472.24 375.6 472.24 375.61 472.23 375.61 472.22 375.62 472.21 375.63 472.2 375.65 472.19 375.67 472.17 375.69 472.16 375.71 472.15 375.72 472.14 375.74 472.13 375.75 472.11 375.77 472.11 375.78 472.1 375.79 472 375.91 471.89 376.05 471.89 376.06 471.76 376.22 471.68 376.32 471.49 376.55 471.46 376.58 471.36 376.69 471.34 376.7 471.19 376.86 471.14 376.92 471.06 377.01 471.05 377.02 471.02 377.05 470.99 377.09 470.97 377.11 470.96 377.12 470.81 377.1 470.77 377.1 470.76 377.1 470.74 377.1 470.73 377.1 470.7 377.1 470.69 377.1 470.67 377.1 470.65 377.1 470.61 377.1 470.53 377.1 470.4 377.11 470.37 377.11 470.34 377.11 470.29 377.13 470.27 377.14 470.23 377.15 470.22 377.15 470.2 377.16 470.18 377.16 470.16 377.17 470.14 377.17 470.11 377.19 469.98 377.23 469.9 377.25 469.86 377.26 469.79 377.29 469.64 377.35 469.51 377.4 469.46 377.42 469.44 377.44 469.42 377.44 469.38 377.46 469.33 377.48 469.28 377.49 469.23 377.5 469.21 377.5 469.14 377.52 469.06 377.52 469.04 377.53 469 377.53 468.97 377.52 468.92 377.51 468.88 377.51 468.82 377.49 468.72 377.47 468.67 377.46 468.63 377.45 468.6 377.44 468.56 377.42 468.46 377.39 468.35 377.35 468.27 377.33 468.26 377.33 468.15 377.31 468.02 377.28 467.9 377.26 467.88 377.26 467.83 377.26 467.82 377.26 467.7 377.22 467.59 377.19 467.5 377.15 467.38 377.1 467.24 377.03 467.07 376.97 467.04 376.96 466.94 376.93 466.7 376.84 466.52 376.77 466.38 376.71 466.19 376.62 466.07 376.56 466.02 376.53 465.98 376.51 465.78 376.43 465.61 376.37 465.6 376.36 465.5 376.32 465.49 376.32 465.46 376.31 465.36 376.28 465.26 376.24 465.16 376.21 465.04 376.19 464.97 376.17 464.93 376.17 464.83 376.16 464.76 376.15 464.68 376.14 464.65 376.14 464.61 376.13 464.41 376.13 464.2 376.12 464.12 376.11 464.06 376.11 463.89 376.08 463.71 376.11 463.69 376.11 463.39 376.14 463.24 376.16 463.08 376.18 462.91 376.2 462.88 376.2 462.74 376.22 462.7 376.23 462.67 376.24 462.56 376.29 462.44 376.33 462.33 376.38 462.27 376.41 462.27 376.41 462.25 376.42 462.24 376.43 462.22 376.44 462.19 376.44 461.93 376.55 461.49 376.74 461.47 376.75 461.34 376.8 461.33 376.81 461.12 376.96 461.11 376.97 460.98 377.06 460.88 377.13 460.86 377.14 460.13 377.66 459.9 377.83 459.83 377.87 459.82 377.88 459.81 377.89 459.73 377.95 459.71 377.96 459.68 377.98 459.59 378.05 459.54 378.21 459.48 378.44 459.4 378.58 459.24 378.81 459.06 379.07 459 379.04 458.97 379.02 458.95 379.02 458.92 379 458.74 378.92 458.62 378.89 458.58 378.88 458.56 378.87 458.53 378.87 458.36 378.81 458.05 378.71 457.91 378.67 457.81 378.65 457.8 378.65 457.78 378.65 457.74 378.64 457.72 378.64 457.64 378.64 457.55 378.65 457.45 378.65 457.36 378.65 457.3 378.65 457.27 378.65 457.21 378.66 457.19 378.66 457.09 378.67 457.03 378.68 456.82 378.72 456.61 378.77 456.33 378.84 456.28 378.85 456.18 378.88 456.04 378.91 455.91 378.93 455.84 378.94 455.8 378.94 455.78 378.95 455.74 378.96 455.68 378.97 455.62 378.98 455.53 378.98 455.48 378.98 455.39 378.98 455.3 378.97 455.12 378.95 455.07 378.95 454.95 378.96 454.94 378.96 454.91 378.96 454.87 378.97 454.77 378.98 454.58 378.97 454.48 378.96 454.39 378.95 454.32 378.94 454.31 378.94 454.24 378.93 454.23 378.93 454.17 378.93 454.04 378.91 453.9 378.91 453.87 378.9 453.85 378.9 453.84 378.9 453.8 378.9 453.78 378.89 453.71 378.88 453.66 378.87 453.63 378.87 453.56 378.85 453.55 378.85 453.48 378.83 453.41 378.82 453.41 378.82 453.32 378.8 453.28 378.79 453.27 378.79 453.24 378.79 453.14 378.79 453.14 378.79 453.08 378.79 453.05 378.79 452.99 378.79 452.94 378.79 452.87 378.8 452.79 378.81 452.78 378.81 452.66 378.83 452.65 378.83 452.58 378.85 452.56 378.85 452.5 378.86 452.49 378.86 452.37 378.88 452.33 378.89 452.29 378.9 452.09 378.93 452.06 378.94 452.05 378.94 452 378.95 451.99 378.95 451.95 378.96 451.85 378.98 451.8 378.99 451.78 378.99 451.76 379 451.75 379 451.72 379.02 451.62 379.05 451.54 379.08 451.46 379.1 451.45 379.1 451.4 379.12 451.3 379.15 451.24 379.16 451.15 379.16 451.1 379.15 451.05 379.2 451.01 379.23 450.99 379.24 450.95 379.28 450.93 379.29 450.91 379.31 450.83 379.37 450.77 379.42 450.74 379.43 450.68 379.45 450.64 379.47 450.59 379.49 450.58 379.49 450.56 379.5 450.49 379.53 450.43 379.55 450.39 379.57 450.35 379.57 450.3 379.56 450.25 379.56 450.24 379.56 450.16 379.56 450.15 379.56 450.02 379.55 449.93 379.56 449.79 379.56 449.74 379.56 449.73 379.56 449.67 379.57 449.64 379.53 449.61 379.47 449.53 379.33 449.49 379.26 449.47 379.24 449.47 379.23 449.44 379.18 449.43 379.16 449.4 379.1 449.35 378.98 449.3 378.87 449.26 378.78 449.22 378.68 449.19 378.62 449.15 378.54 449.12 378.47 449.08 378.39 449.05 378.35 449.04 378.33 448.99 378.26 448.9 378.15 448.81 378.04 448.76 377.97 448.72 377.93 448.71 377.92 448.65 377.84 448.6 377.8 448.55 377.75 448.49 377.68 448.38 377.55 448.37 377.54 448.33 377.48 448.27 377.41 448.22 377.31 448.22 377.25 448.22 377.24 448.24 377.18 448.25 377.09 448.2 376.88 448.19 376.86 448.15 376.7 448.14 376.64 448.13 376.55 448.11 376.45 448.1 376.35 448.08 376.26 448.08 376.21 448.07 376.17 448.07 376.06 448.07 375.93 448.07 375.86 448.07 375.81 448.07 375.75 448.06 375.7 448.07 375.66 448.08 375.56 448.08 375.45 448.07 375.39 448.07 375.38 448.08 375.27 448.09 375.07 448.09 374.99 448.09 374.95 448.09 374.93 448.09 374.91 448.09 374.89 448.09 374.87 448.09 374.86 448.09 374.84 448.09 374.82 448.08 374.8 448.08 374.78 448.07 374.76 447.94 374.39 447.94 374.34 447.92 374.2 447.92 374.16 447.91 374.13 447.9 374.07 447.88 373.98 447.87 373.9 447.86 373.87 447.85 373.85 447.85 373.84 447.84 373.82 447.83 373.8 447.82 373.78 447.8 373.74 447.65 373.27 447.63 373.24 447.63 373.22 447.6 373.12 447.59 373.08 447.42 372.53 447.41 372.52 447.4 372.5 447.39 372.48 447.39 372.48 447.38 372.46 447.37 372.44 447.36 372.42 447.35 372.4 447.34 372.39 447.33 372.38 447.32 372.37 447.31 372.35 447.3 372.34 447.29 372.33 447.28 372.31 447.27 372.3 447.26 372.29 447.24 372.26 447.23 372.25 447.22 372.24 447.21 372.22 447.2 372.21 447.2 372.2 447.19 372.19 447.16 372.16 447.15 372.14 447.12 372.11 447.1 372.08 447.09 372.06 447.08 372.05 447.07 372.04 447.06 372.03 447.05 372.02 447.03 372 447.03 372 447.01 371.98 447 371.97 446.99 371.96 446.98 371.95 446.96 371.94 446.95 371.92 446.94 371.91 446.92 371.9 446.91 371.89 446.89 371.88 446.88 371.87 446.87 371.86 446.85 371.85 446.85 371.84 446.83 371.83 446.82 371.82 446.79 371.8 446.78 371.79 446.76 371.78 446.73 371.76 446.7 371.73 446.68 371.71 446.68 371.71 446.66 371.69 446.65 371.68 446.63 371.67 446.62 371.66 446.6 371.65 446.59 371.64 446.57 371.63 446.54 371.62 446.51 371.6 446.48 371.58 446.47 371.57 446.45 371.56 446.43 371.55 446.43 371.55 446.42 371.54 446.39 371.53 446.36 371.51 446.31 371.48 446.3 371.47 446.27 371.46 446.22 371.43 446.2 371.42 446.19 371.4 446.18 371.39 446.16 371.37 446.15 371.36 446.14 371.34 446.13 371.33 446.11 371.3 446.1 371.29 446.09 371.28 446.07 371.26 446.06 371.25 446.06 371.24 446.04 371.23 446.03 371.21 446.02 371.2 446.01 371.19 446 371.18 445.99 371.16 445.97 371.15 445.96 371.14 445.95 371.13 445.94 371.11 445.93 371.1 445.92 371.09 445.9 371.08 445.89 371.07 445.88 371.05 445.86 371.04 445.85 371.03 445.84 371.02 445.83 371.01 445.81 370.99 445.76 370.96 445.62 370.85 445.66 370.76 445.61 370.65 445.61 370.63 445.6 370.62 445.59 370.61 445.59 370.6 445.59 370.6 445.59 370.58 445.59 370.56 445.6 370.55 445.61 370.52 445.61 370.5 445.61 370.49 445.62 370.45 445.62 370.44 445.63 370.43 445.63 370.41 445.64 370.39 445.64 370.38 445.67 370.29 445.67 370.27 445.68 370.26 445.68 370.24 445.69 370.23 445.72 370.17 445.72 370.16 445.71 370.14 445.71 370.13 445.71 370.11 445.71 370.09 445.7 370.08 445.7 370.06 445.7 370.05 445.69 370.01 445.69 369.99 445.69 369.98 445.69 369.96 445.68 369.94 445.68 369.92 445.68 369.91 445.68 369.89 445.67 369.88 445.67 369.86 445.67 369.84 445.66 369.83 445.66 369.81 445.64 369.71 445.63 369.68 445.62 369.67 445.59 369.25 445.59 369.24 445.59 369.23 445.59 369.21 445.59 369.19 445.59 369.17 445.58 369.15 445.58 369.13 445.57 369.11 445.53 368.98 445.52 368.97 445.49 368.86 445.48 368.85 445.48 368.83 445.47 368.81 445.47 368.8 445.46 368.78 445.46 368.77 445.45 368.76 445.44 368.73 445.43 368.7 445.42 368.66 445.41 368.63 445.4 368.61 445.4 368.6 445.39 368.58 445.38 368.56 445.38 368.54 445.37 368.53 445.36 368.51 445.35 368.49 445.35 368.48 445.34 368.46 445.31 368.37 445.21 368.11 445.27 368.13 445.63 368.29 445.65 368.3 445.68 368.31 445.82 368.38 445.85 368.39 445.9 368.41 445.98 368.45 446.01 368.47 446.02 368.48 446.2 368.61 446.41 368.74 446.65 369.3 446.65 369.3 446.66 369.32 446.76 369.56 446.77 369.59 446.81 369.66 446.96 370.01 446.97 370.03 446.99 370.07 447.14 370.12 447.29 370.16 447.31 370.17 447.37 370.19 447.42 370.2 447.42 370.17 447.41 370.02 447.41 369.96 447.4 369.86 447.37 369.44 447.36 369.24 447.36 369.23 447.35 369.05 447.34 368.8 447.32 368.67 447.32 368.65 447.31 368.61 447.27 368.43 447.23 368.26 447.22 368.2 447.21 368.15 447.21 368.12 447.2 368.05 447.21 367.98 447.22 367.91 447.25 367.82 447.29 367.73 447.31 367.64 447.34 367.6 447.58 367.32 447.59 367.31 447.98 366.86 448.03 366.8 448.15 366.61 448.43 366.21 448.51 366.08 448.52 366.07 448.53 366.05 448.55 366 448.61 365.84 448.62 365.8 448.65 365.7 448.66 365.67 448.68 365.61 448.68 365.57 448.68 365.4 448.66 365.32 448.65 365.28 448.57 365.18 448.57 365.17 448.55 365.15 448.55 365.15 448.61 365.04 448.62 365.03 448.62 365.02 448.65 364.91 448.66 364.91 448.66 364.89 448.69 364.83 448.72 364.84 448.81 364.85 448.85 364.86 448.87 364.87 448.95 364.88 449.01 364.88 449.11 364.88 449.23 364.88 449.26 364.88 449.31 364.88 449.37 364.88 449.52 364.84 449.66 364.81 449.72 364.8 449.78 364.79 449.88 364.78 449.92 364.77 449.94 364.77 449.96 364.76 450.1 364.75 450.11 364.74 450.17 364.73 450.22 364.7 450.29 364.67 450.32 364.66 450.43 364.6 450.53 364.55 450.55 364.54 450.56 364.53 450.7 364.46 450.78 364.42 450.79 364.41 450.82 364.41 450.9 364.4 450.95 364.41 451 364.41 451.16 364.41 451.28 364.42 451.31 364.42 451.32 364.42 451.41 364.42 451.53 364.43 451.65 364.43 451.75 364.45 451.82 364.46 451.96 364.49 452.05 364.5 452.06 364.51 452.08 364.51 452.26 364.53 452.34 364.55 452.37 364.55 452.39 364.56 452.43 364.57 452.56 364.61 452.61 364.63 452.71 364.67 452.73 364.68 452.75 364.69 452.93 364.76 453.08 364.82 453.26 364.9 453.32 364.94 453.35 364.96 453.43 365.03 453.54 365.12 453.66 365.24 453.8 365.4 453.91 365.53 454.02 365.64 454.07 365.69 454.08 365.7 454.11 365.73 454.13 365.74 454.2 365.82 454.29 365.91 454.42 366.05 454.58 366.27 454.66 366.39 454.75 366.51 454.83 366.64 454.87 366.7 454.88 366.71 454.89 366.73 454.9 366.73 454.91 366.75 454.97 366.8 455.04 366.82 455.15 366.86 455.21 366.89 455.3 366.9 455.39 366.92 455.47 366.94 455.51 366.95 455.59 366.97 455.62 366.98 455.67 366.98 455.7 366.99 455.72 366.99 455.81 366.99 455.9 367 455.96 366.99 456.02 366.97 456.1 366.92 456.19 366.88 456.27 366.84 456.36 366.8 456.39 366.78 456.49 366.72 456.51 366.72 456.59 366.68 456.66 366.63 456.71 366.59 456.73 366.58 456.94 366.42 456.96 366.41 457.1 366.39 457.12 366.39 457.27 366.38 457.55 366.3 457.57 366.29 457.58 366.29 457.59 366.28 457.66 366.24 457.86 366.15 458.02 366.09 458.02 366.08 458.04 366.07 458.04 366.04 457.98 365.81 457.93 365.66 457.89 365.5 457.86 365.38 457.8 365.29 457.78 365.26 457.71 365.15 457.7 365.14 457.68 365.11 457.61 365.01 457.45 364.77 457.42 364.73 457.34 364.61 457.27 364.53 457.25 364.49 457.24 364.45 457.24 364.43 457.22 364.38 457.18 364.23 457.14 364.07 457.11 363.94 457.1 363.69 457.1 363.64 457.09 363.53 457.09 363.51 457.09 363.47 457.08 363.44 457.06 363.35 457.02 363.18 456.98 363.01 456.92 362.76 456.96 362.72 456.98 362.69 456.99 362.68 457.04 362.62 457.07 362.58 457.12 362.53 457.17 362.47 457.22 362.41 457.23 362.39 457.25 362.37 457.26 362.36 457.31 362.31 457.35 362.26 457.39 362.21 457.43 362.17 457.49 362.11 457.55 362.06 457.61 362 457.71 361.91 457.72 361.9 457.78 361.85 457.79 361.84 457.82 361.82 457.84 361.8 457.89 361.76 457.89 361.76 457.96 361.71 458.02 361.66 458.05 361.64 458.08 361.62 458.12 361.59 458.17 361.54 458.22 361.52 458.25 361.49 458.33 361.44 458.36 361.41 458.41 361.35 458.41 361.34 458.45 361.31 458.47 361.28 458.55 361.18 458.57 361.15 458.59 361.14 458.61 361.11 458.66 361.05 458.7 361 458.73 360.96 458.78 360.89 458.79 360.87 458.84 360.81 458.94 360.7 458.97 360.66 458.97 360.65 459 360.61 459.02 360.59 459.11 360.53 459.13 360.52 459.18 360.48 459.21 360.46 459.24 360.42 459.26 360.41 459.31 360.38 459.39 360.33 459.41 360.32 459.46 360.3 459.47 360.28 459.52 360.25 459.58 360.21 459.61 360.19 459.67 360.15 459.69 360.14 459.72 360.12 459.73 360.11 459.8 360.08 459.82 360.07 459.85 360.06 459.92 360.01 460 359.96 460.07 359.91 460.11 359.88 460.15 359.86 460.16 359.85 460.19 359.83 460.2 359.82 460.23 359.8 460.25 359.78 460.31 359.73 460.37 359.69 460.46 359.63 460.56 359.56 460.6 359.54 460.61 359.54 460.68 359.5 460.72 359.46 460.73 359.46 460.74 359.44 460.79 359.38 460.86 359.31 460.87 359.31 460.88 359.3 460.89 359.3 460.91 359.29 460.93 359.29 460.95 359.29 460.96 359.28 461.02 359.26 461.09 359.23 461.14 359.21 461.18 359.19 461.37 359.1 461.45 359.05 461.51 359.01 461.53 359 461.59 359.05 461.65 359.09 461.68 359.12 461.82 359.05 461.91 359.01 461.95 358.98 462 358.95 462.07 358.9 462.02 358.84 461.98 358.79 461.93 358.73 461.89 358.69 461.84 358.63 461.8 358.58 461.76 358.53 461.69 358.44 461.64 358.36 461.62 358.32 461.6 358.3 461.56 358.23 461.54 358.18 461.51 358.14 461.5 358.1 461.49 358.04 461.49 357.98 461.48 357.9 461.49 357.82 461.5 357.76 461.52 357.72 461.56 357.68 461.58 357.65 461.59 357.62 461.63 357.58 461.68 357.54 461.72 357.51 461.78 357.47 461.81 357.46 461.84 357.45 461.89 357.44 461.94 357.45 461.98 357.46 462 357.48 462.07 357.55 462.14 357.61 462.22 357.7 462.28 357.76 462.32 357.82 462.34 357.84 462.42 357.93 462.52 358.05 462.55 358.08 462.57 358.11 462.58 358.11 462.66 358.21 462.68 358.23 462.71 358.27 462.74 358.31 462.76 358.33 462.81 358.38 462.86 358.45 462.91 358.5 463.08 358.72 463.12 358.75 463.25 358.85 463.34 359.03 463.52 359.14 463.72 359.25 463.78 359.27 463.87 359.31 463.98 359.35 464.06 359.34 464.12 359.34 464.2 359.35 464.28 359.34 464.37 359.32 464.47 359.3 464.55 359.29 464.64 359.26 464.7 359.23 464.75 359.2 464.82 359.15 464.88 359.1 464.95 359.04 464.99 359 465.05 358.92 465.07 358.89 465.11 358.84 465.15 358.77 465.18 358.71 465.2 358.66 465.22 358.6 465.25 358.51 465.26 358.44 465.26 358.37 465.27 358.28 465.27 358.22 465.27 358.16 465.26 358.06 465.25 358 465.22 357.93 465.19 357.85 465.16 357.77 465.13 357.69 465.11 357.63 465.1 357.59 Z"/>
</g></svg>