<svg xmlns="http://www.w3.org/2000/svg" version="1.2" baseProfile="tiny" stroke-linecap="round" stroke-linejoin="round" viewBox="334.87 415.27 48.93 34.13"><g xmlns="http://www.w3.org/2000/svg" id="Mendabia">
<path d="M 371.04 417.95 371.07 417.97 371.15 418 371.16 418.02 371.19 418.05 371.22 418.1 371.29 418.19 371.35 418.26 371.4 418.34 371.46 418.45 371.49 418.53 371.52 418.57 371.53 418.58 371.58 418.64 371.65 418.76 371.72 418.87 371.76 418.9 371.78 418.92 371.9 419.15 372 419.34 372.04 419.42 372.15 419.6 372.33 419.84 372.38 419.92 372.4 419.95 372.44 420.06 372.5 420.14 372.54 420.21 372.6 420.28 372.68 420.38 373.03 420.55 373.08 420.57 373.18 420.61 373.22 420.64 373.27 420.7 373.32 420.75 373.48 420.84 373.63 420.92 373.88 421.06 374.02 421.14 374.14 421.21 374.25 421.25 374.36 421.29 374.55 421.37 374.76 421.44 374.82 421.35 374.82 421.34 374.88 421.26 374.96 421.16 374.97 421.14 375.05 421.02 375.09 420.93 375.1 420.91 375.19 420.78 375.24 420.7 375.52 420.39 375.53 420.38 375.54 420.36 375.63 420.43 375.64 420.44 375.66 420.46 375.71 420.5 375.87 420.6 375.96 420.68 376.04 420.75 376.08 420.78 376.13 420.84 376.19 420.91 376.26 421.02 376.31 421.1 376.32 421.1 376.4 421.2 376.52 421.33 376.62 421.45 376.7 421.56 376.98 421.87 377.07 421.98 377.14 422.07 377.19 422.14 377.26 422.23 377.27 422.26 377.29 422.28 377.33 422.33 377.42 422.43 377.45 422.46 377.47 422.48 377.48 422.51 377.49 422.52 377.5 422.56 377.53 422.64 377.56 422.7 377.65 422.89 377.68 422.95 377.7 422.98 377.72 423.02 377.74 423.05 377.81 423.17 377.84 423.21 377.88 423.26 378.03 423.65 378.04 423.68 378.14 423.93 378.15 423.94 378.15 423.94 378.19 423.99 378.25 424.08 378.36 424.22 378.49 424.4 378.56 424.5 378.66 424.63 378.73 424.73 378.73 424.74 378.74 424.74 378.74 424.75 378.78 424.84 378.8 424.9 378.81 424.97 378.83 425.03 378.86 425.09 378.88 425.13 378.91 425.19 378.93 425.26 378.95 425.3 378.96 425.32 379 425.42 379.03 425.49 379.03 425.5 379.04 425.55 379.07 425.62 379.09 425.68 379.1 425.69 379.17 425.83 379.19 425.86 379.2 425.9 379.22 425.97 379.23 426.02 379.26 426.12 379.3 426.26 379.32 426.35 379.33 426.38 379.34 426.45 379.34 426.46 379.34 426.48 379.34 426.49 379.38 426.55 379.41 426.6 379.43 426.65 379.45 426.68 379.46 426.72 379.47 426.75 379.49 426.78 379.51 426.81 379.52 426.84 379.54 426.9 379.56 426.96 379.58 427.03 379.59 427.09 379.61 427.14 379.62 427.16 379.64 427.18 379.65 427.21 379.66 427.25 379.67 427.29 379.68 427.33 379.69 427.39 379.72 427.46 379.74 427.52 379.76 427.57 379.78 427.61 379.79 427.65 379.79 427.66 379.82 427.73 379.84 427.78 379.87 427.85 379.89 427.91 379.91 427.94 379.92 427.96 379.93 427.98 379.95 428.02 379.98 428.06 380.01 428.11 380.03 428.16 380.06 428.2 380.1 428.23 380.12 428.26 380.17 428.33 380.22 428.39 380.25 428.44 380.27 428.49 380.28 428.5 380.31 428.57 380.37 428.67 380.41 428.75 380.45 428.83 380.46 428.86 380.49 428.92 380.51 428.97 380.54 429.04 380.57 429.12 380.6 429.2 380.62 429.26 380.64 429.32 380.66 429.39 380.68 429.44 380.7 429.48 380.7 429.53 380.73 429.58 380.73 429.6 380.82 429.76 380.85 429.83 380.9 429.91 380.98 430.1 381.03 430.22 381.06 430.3 381.08 430.38 381.11 430.47 381.13 430.53 381.15 430.56 381.17 430.61 381.2 430.67 381.23 430.72 381.26 430.77 381.31 430.83 381.33 430.86 381.37 430.91 381.41 430.97 381.45 431.02 381.5 431.07 381.6 431.19 381.68 431.27 381.74 431.32 381.81 431.4 381.88 431.49 381.92 431.55 381.93 431.57 382.02 431.7 382.1 431.82 382.19 431.96 382.24 432.07 382.26 432.1 382.26 432.12 382.34 432.22 382.35 432.23 382.37 432.27 382.45 432.37 382.54 432.51 382.67 432.7 382.69 432.72 382.93 433.02 382.95 433.03 383.06 433.17 383.24 433.39 383.32 433.49 383.41 433.6 383.48 433.68 383.51 433.72 383.54 433.74 383.63 433.83 383.69 433.89 383.72 433.92 383.76 433.97 383.76 433.98 383.77 433.99 383.78 434 383.8 434.03 383.78 434.05 383.77 434.08 383.74 434.11 383.65 434.2 383.54 434.31 383.44 434.4 383.36 434.45 383.24 434.54 383.15 434.6 383.07 434.66 383.05 434.67 383.02 434.69 382.97 434.74 382.91 434.78 382.85 434.84 382.78 434.9 382.74 434.93 382.71 434.96 382.7 434.97 382.63 435.02 382.56 435.08 382.39 435.22 382.31 435.27 382.23 435.33 382.13 435.4 382.05 435.45 381.99 435.49 381.91 435.55 381.84 435.59 381.8 435.63 381.78 435.65 381.71 435.7 381.63 435.77 381.57 435.82 381.52 435.88 381.46 435.95 381.4 436.02 381.35 436.06 381.3 436.11 381.29 436.14 381.27 436.18 381.24 436.24 381.21 436.29 381.19 436.35 381.14 436.41 381.11 436.47 381.07 436.52 381.05 436.56 381.03 436.61 381.03 436.62 381.03 436.63 380.96 436.75 380.95 436.78 380.89 436.91 380.8 437.15 380.7 437.36 380.63 437.52 380.63 437.65 380.63 437.69 380.63 437.8 380.63 437.86 380.63 437.9 380.62 437.95 380.61 438 380.61 438.05 380.61 438.13 380.6 438.18 380.59 438.23 380.6 438.27 380.6 438.32 380.6 438.37 380.61 438.42 380.61 438.45 380.61 438.49 380.62 438.54 380.63 438.6 380.63 438.63 380.63 438.67 380.63 438.71 380.62 438.76 380.61 438.81 380.6 438.87 380.58 438.95 380.57 439.02 380.55 439.1 380.54 439.17 380.54 439.18 380.51 439.28 380.48 439.39 380.44 439.52 380.41 439.62 380.38 439.71 380.36 439.78 380.34 439.84 380.34 439.88 380.34 439.92 380.36 439.96 380.37 440.02 380.39 440.06 380.42 440.13 380.45 440.19 380.46 440.26 380.48 440.29 380.51 440.34 380.52 440.37 380.53 440.41 380.54 440.45 380.55 440.5 380.56 440.56 380.59 440.62 380.62 440.68 380.65 440.76 380.66 440.83 380.68 440.91 380.7 441.01 380.7 441.04 380.71 441.05 380.71 441.08 380.71 441.13 380.71 441.19 380.71 441.23 380.7 441.27 380.69 441.34 380.68 441.38 380.68 441.43 380.68 441.48 380.68 441.63 380.68 441.7 380.66 441.77 380.63 441.82 380.59 441.95 380.54 442.06 380.52 442.13 380.47 442.26 380.44 442.32 380.4 442.41 380.33 442.57 380.29 442.65 380.27 442.68 380.22 442.77 380.12 442.97 380.11 442.98 380.05 443.11 380.04 443.11 380 443.19 379.94 443.28 379.91 443.37 379.86 443.73 379.84 443.86 379.82 443.97 379.81 444.02 379.8 444.05 379.58 444.04 379.45 444.04 379.38 444.04 379.34 444.03 379.25 444.01 379.19 444 379.11 443.99 379.03 443.97 378.95 443.97 378.87 443.97 378.81 443.97 378.77 443.99 378.72 444.04 378.66 444.07 378.63 444.1 378.59 444.14 378.57 444.17 378.54 444.21 378.52 444.25 378.5 444.29 378.48 444.32 378.45 444.33 378.39 444.34 378.33 444.36 378.24 444.38 378.18 444.33 378.11 444.28 378.08 444.27 378.04 444.27 377.93 444.27 377.89 444.28 377.83 444.29 377.79 444.31 377.72 444.35 377.66 444.4 377.62 444.44 377.58 444.47 377.55 444.51 377.52 444.55 377.45 444.57 377.4 444.59 377.36 444.62 377.3 444.65 377.24 444.69 377.17 444.72 377.09 444.75 377.01 444.8 376.93 444.85 376.86 444.92 376.81 444.97 376.77 445.01 376.74 445.03 376.68 445.06 376.21 445.23 376.18 445.25 376.11 445.34 376.05 445.4 376.04 445.41 376.03 445.43 375.79 445.76 375.71 445.84 375.69 445.86 375.67 445.88 375.56 446.03 375.47 446.14 375.39 446.07 375.33 446.01 375.27 445.94 375.23 445.88 375.2 445.83 375.19 445.79 375.17 445.69 375.14 445.57 375.12 445.47 375.1 445.4 375.07 445.31 375.03 445.24 375.01 445.18 374.96 445.11 374.92 445.06 374.87 445.02 374.79 444.99 374.73 444.98 374.7 444.97 374.67 444.97 374.57 444.97 374.43 444.97 374.36 444.98 374.28 444.98 374.23 445 374.17 445.02 374.1 445.05 374.04 445.08 373.98 445.11 373.92 445.15 373.86 445.19 373.79 445.25 373.65 445.35 373.54 445.44 373.41 445.55 373.32 445.62 373.25 445.67 373.2 445.71 373.14 445.77 373.05 445.85 373.02 445.89 372.98 445.94 372.92 446.02 372.88 446.12 372.85 446.2 372.82 446.3 372.8 446.38 372.79 446.43 372.79 446.48 372.8 446.53 372.8 446.59 372.8 446.66 372.81 446.72 372.82 446.79 372.83 446.85 372.84 446.92 372.86 446.99 372.88 447.06 372.89 447.13 372.91 447.2 372.91 447.27 372.92 447.36 372.92 447.57 372.91 447.64 372.9 447.71 372.87 447.8 372.84 447.86 372.8 447.96 372.74 448.05 372.69 448.12 372.64 448.18 372.58 448.26 372.52 448.32 372.45 448.4 372.39 448.45 372.32 448.51 372.25 448.57 372.19 448.61 372.06 448.7 371.99 448.74 371.9 448.79 371.83 448.83 371.74 448.87 371.64 448.92 371.55 448.96 371.48 448.99 371.38 449.02 371.28 449.05 371.2 449.08 371.09 449.1 370.99 449.12 370.9 449.15 370.82 449.16 370.71 449.18 370.63 449.19 370.57 449.2 370.49 449.22 370.42 449.23 370.33 449.23 370.25 449.24 370.16 449.25 370.08 449.25 369.94 449.25 369.84 449.25 369.74 449.26 369.65 449.26 369.55 449.26 369.46 449.26 369.37 449.27 369.28 449.27 369.19 449.27 369.1 449.27 369 449.27 368.89 449.27 368.8 449.28 368.71 449.28 368.65 449.28 368.57 449.29 368.48 449.29 368.41 449.31 368.31 449.32 368.25 449.33 368.17 449.34 368.08 449.36 368.01 449.37 367.91 449.38 367.85 449.39 367.78 449.39 367.72 449.4 367.66 449.39 367.58 449.38 367.5 449.36 367.44 449.35 367.36 449.32 367.28 449.28 367.21 449.24 367.14 449.2 367.08 449.15 367.04 449.11 366.99 449.06 366.95 449.01 366.91 448.96 366.86 448.88 366.82 448.82 366.77 448.75 366.74 448.69 366.72 448.65 366.69 448.58 366.67 448.52 366.65 448.45 366.62 448.37 366.6 448.3 366.56 448.24 366.54 448.21 366.53 448.19 366.49 448.15 366.44 448.11 366.4 448.09 366.35 448.06 366.31 448.05 366.27 448.03 366.22 447.99 366.19 447.95 366.15 447.9 366.12 447.84 366.08 447.78 366.04 447.72 366 447.63 365.96 447.53 365.93 447.43 365.9 447.33 365.88 447.25 365.85 447.15 365.83 447.09 365.82 447.02 365.8 446.92 365.78 446.84 365.77 446.76 365.76 446.69 365.76 446.61 365.75 446.52 365.74 446.41 365.74 446.31 365.72 446.22 365.69 446.13 365.65 446.06 365.6 445.99 365.51 445.85 365.43 445.75 365.37 445.67 365.31 445.6 365.24 445.54 365.19 445.49 365.12 445.43 365.06 445.39 365 445.34 364.94 445.3 364.88 445.26 364.82 445.23 364.76 445.2 364.7 445.18 364.62 445.15 364.54 445.12 364.48 445.11 364.43 445.1 364.37 445.09 364.31 445.09 364.26 445.1 364.19 445.11 364.14 445.13 364.08 445.16 363.99 445.21 363.88 445.3 363.78 445.36 363.67 445.42 363.58 445.45 363.47 445.48 363.34 445.5 363.21 445.5 363.11 445.49 363.02 445.48 362.96 445.47 362.88 445.45 362.83 445.43 362.76 445.4 362.7 445.37 362.65 445.33 362.53 445.25 362.42 445.18 362.3 445.1 362.18 445.03 362.12 445 362.05 444.98 362 444.96 361.91 444.94 361.77 444.91 361.62 444.9 361.47 444.9 361.33 444.9 361.19 444.92 361.05 444.94 360.92 444.99 360.77 445.04 360.66 445.1 360.57 445.16 360.53 445.2 360.48 445.24 360.45 445.27 360.39 445.33 360.37 445.37 360.33 445.43 360.3 445.49 360.28 445.55 360.25 445.69 360.22 445.82 360.19 445.99 360.18 446.01 360.18 446.05 360.16 446.09 360.14 446.14 360.12 446.19 360.07 446.23 360.02 446.28 359.97 446.32 359.9 446.36 359.84 446.39 359.77 446.43 359.68 446.47 359.62 446.5 359.54 446.52 359.48 446.54 359.43 446.56 359.37 446.58 359.25 446.62 359.18 446.64 359.12 446.65 359.06 446.66 358.99 446.67 358.92 446.67 358.85 446.67 358.78 446.67 358.69 446.68 358.64 446.69 358.57 446.69 358.52 446.7 358.47 446.71 358.42 446.72 358.36 446.73 358.3 446.74 358.23 446.75 358.18 446.76 358.12 446.78 358.06 446.79 358.01 446.81 357.95 446.82 357.88 446.82 357.83 446.82 357.78 446.82 357.74 446.82 357.7 446.81 357.67 446.8 357.64 446.78 357.62 446.76 357.6 446.72 357.59 446.69 357.59 446.65 357.58 446.59 357.57 446.54 357.57 446.48 357.56 446.42 357.56 446.36 357.55 446.29 357.54 446.23 357.53 446.17 357.52 446.12 357.51 446.06 357.5 446.01 357.47 445.9 357.44 445.78 357.41 445.68 357.38 445.56 357.32 445.39 357.29 445.27 357.26 445.16 357.24 445.03 357.23 444.9 357.22 444.76 357.23 444.63 357.25 444.52 357.25 444.42 357.25 444.29 357.22 444.16 357.18 444.04 357.13 443.92 357.06 443.83 356.96 443.71 356.87 443.62 356.78 443.54 356.69 443.45 356.59 443.38 356.49 443.29 356.4 443.23 356.31 443.16 356.21 443.1 356.08 443.02 355.98 442.95 355.86 442.89 355.74 442.82 355.62 442.76 355.49 442.7 355.38 442.65 355.27 442.61 355.16 442.58 355.04 442.54 354.92 442.52 354.74 442.5 354.61 442.5 354.45 442.48 354.27 442.48 354.17 442.48 354.03 442.47 353.93 442.46 353.81 442.47 353.7 442.49 353.58 442.53 353.47 442.57 353.39 442.6 353.29 442.66 353.18 442.7 353.07 442.73 352.97 442.76 352.87 442.77 352.76 442.79 352.65 442.8 352.56 442.81 352.45 442.81 352.38 442.79 352.27 442.76 352.15 442.71 352.02 442.67 351.95 442.65 351.9 442.63 351.84 442.62 351.81 442.61 351.8 442.61 351.77 442.6 351.72 442.59 351.66 442.58 351.62 442.57 351.59 442.56 351.55 442.55 351.5 442.53 351.45 442.51 351.41 442.5 351.38 442.48 351.34 442.46 351.29 442.43 351.24 442.4 351.2 442.37 351.17 442.35 351.12 442.33 351.08 442.32 351.06 442.31 351.03 442.3 350.98 442.3 350.94 442.29 350.89 442.28 350.84 442.28 350.79 442.29 350.74 442.29 350.68 442.29 350.63 442.3 350.5 442.29 350.39 442.27 350.3 442.22 350.23 442.14 350.19 442.04 350.19 441.99 350.21 441.92 350.24 441.84 350.24 441.72 350.23 441.56 350.19 441.38 350.14 441.21 350.12 441.03 350.11 440.76 350.11 440.43 350.12 440.08 350.14 439.8 350.15 439.49 350.13 439.17 350.1 438.85 350.06 438.56 350.01 438.28 349.97 438.06 349.96 437.95 349.91 437.73 349.85 437.51 349.77 437.32 349.68 437.15 349.59 437 349.5 436.88 349.37 436.76 349.2 436.63 349.07 436.56 348.93 436.5 348.72 436.42 348.51 436.36 348.32 436.29 348.13 436.23 347.97 436.19 347.8 436.12 347.58 436.01 347.3 435.88 347.06 435.77 346.84 435.66 346.63 435.51 346.43 435.36 346.25 435.23 346.09 435.15 346.08 435.14 345.88 435.03 345.6 434.88 345.18 434.67 344.75 434.49 344.41 434.35 344.24 434.28 344.06 434.22 343.93 434.18 343.78 434.15 343.65 434.09 343.5 434.02 343.33 433.92 343.19 433.82 343.03 433.69 342.85 433.56 342.69 433.46 342.6 433.41 342.47 433.34 342.32 433.27 342.17 433.22 342.02 433.18 341.86 433.16 341.73 433.17 341.55 433.23 341.39 433.33 341.19 433.55 340.99 433.87 340.8 434.17 340.71 434.32 340.71 434.39 340.75 434.42 340.78 434.47 340.77 434.54 340.69 434.7 340.65 434.88 340.49 435.12 340.32 435.24 340.13 435.32 339.9 435.32 339.7 435.29 339.41 435.22 339.12 435.1 338.75 434.89 338.41 434.61 338.19 434.28 338.06 433.97 337.98 433.71 337.95 433.44 337.97 433.02 337.99 432.7 337.98 432.35 337.93 432.01 337.89 431.74 337.83 431.49 337.75 431.29 337.63 431.08 337.47 430.92 337.28 430.79 337.08 430.69 336.87 430.61 336.66 430.51 336.47 430.41 336.32 430.3 336.19 430.17 336.06 430.03 335.97 429.95 335.87 429.88 335.7 429.75 335.56 429.63 335.5 429.57 335.48 429.5 335.47 429.44 335.43 429.36 335.37 429.28 335.29 429.11 335.27 429.03 335.29 428.96 335.33 428.87 335.36 428.76 335.32 428.62 335.24 428.48 335.09 428.36 334.88 428.25 334.96 428.1 334.97 428.09 334.97 428.07 334.99 428.05 335.02 428 335.04 427.96 335.05 427.94 335.08 427.89 335.1 427.84 335.11 427.8 335.1 427.76 335.07 427.57 335.07 427.55 335.04 427.4 335.01 427.24 334.98 427.07 334.95 426.92 334.93 426.76 334.91 426.64 334.89 426.53 334.87 426.46 334.87 426.43 334.88 426.39 334.9 426.29 334.9 426.28 334.91 426.26 334.92 426.25 334.93 426.2 334.93 426.19 334.94 426.17 334.96 426.17 334.97 426.15 334.99 426.11 335.01 426.07 335.04 426.02 335.08 426 335.1 425.96 335.13 425.9 335.16 425.85 335.19 425.82 335.21 425.81 335.26 425.75 335.32 425.69 335.34 425.68 335.36 425.67 335.4 425.64 335.43 425.59 335.45 425.56 335.45 425.55 335.46 425.5 335.47 425.46 335.49 425.44 335.54 425.39 335.6 425.34 335.66 425.29 335.7 425.24 335.73 425.21 335.75 425.16 335.77 425.1 335.78 425.04 335.78 424.98 335.77 424.93 335.74 424.88 335.71 424.82 335.7 424.77 335.7 424.71 335.71 424.67 335.73 424.63 335.77 424.6 335.82 424.56 335.85 424.53 335.87 424.5 335.87 424.47 335.87 424.42 335.87 424.38 335.88 424.36 335.9 424.34 335.95 424.32 335.99 424.28 336.02 424.24 336.03 424.19 336.04 424.14 336.04 424.09 336.03 424.05 336.03 424.01 336.04 423.99 336.06 423.95 336.08 423.91 336.1 423.88 336.13 423.87 336.14 423.86 336.15 423.85 336.15 423.83 336.16 423.81 336.17 423.79 336.17 423.78 336.18 423.77 336.18 423.76 336.18 423.75 336.18 423.73 336.18 423.72 336.19 423.67 336.2 423.64 336.23 423.52 336.27 423.35 336.33 423.1 336.36 422.97 336.38 422.87 336.39 422.85 336.41 422.75 336.47 422.5 336.49 422.43 336.51 422.31 336.55 422.09 336.58 421.99 336.59 421.98 336.63 421.83 336.64 421.79 336.66 421.75 336.66 421.7 336.68 421.62 336.69 421.58 336.7 421.54 336.71 421.53 336.72 421.47 336.74 421.42 336.75 421.37 336.78 421.29 336.81 421.2 336.84 421.13 336.88 421.03 336.9 420.99 336.9 420.98 336.91 420.97 336.91 420.96 336.92 420.94 336.93 420.9 336.95 420.82 336.98 420.71 337.03 420.55 337.08 420.37 337.08 420.35 337.1 420.3 337.11 420.24 337.14 420.15 337.15 420.11 337.16 420.06 337.18 419.96 337.2 419.88 337.21 419.83 337.23 419.75 337.24 419.74 337.27 419.61 337.28 419.59 337.28 419.57 337.4 419 337.4 418.99 337.47 419 337.52 419 337.54 419 337.58 419 337.63 419.01 337.68 419.02 337.73 419.04 337.8 419.06 337.89 419.09 337.96 419.12 338.05 419.15 338.16 419.19 338.24 419.21 338.3 419.24 338.36 419.26 338.43 419.29 338.53 419.32 338.57 419.34 338.62 419.36 338.68 419.39 338.72 419.42 338.77 419.44 338.82 419.47 338.87 419.51 338.93 419.54 338.98 419.57 339 419.58 339.09 419.63 339.14 419.66 339.17 419.68 339.2 419.7 339.26 419.73 339.32 419.76 339.39 419.79 339.43 419.81 339.46 419.83 339.5 419.84 339.55 419.86 339.6 419.88 339.65 419.89 339.68 419.9 339.72 419.92 339.77 419.94 339.84 419.96 339.89 419.98 339.92 420 339.96 420.02 340.02 420.06 340.05 420.08 340.1 420.11 340.11 420.11 340.15 420.14 340.18 420.16 340.2 420.18 340.21 420.19 340.22 420.21 340.23 420.23 340.26 420.27 340.3 420.3 340.4 420.39 340.48 420.44 340.51 420.47 340.57 420.5 340.61 420.52 340.66 420.53 340.71 420.54 340.78 420.56 340.84 420.57 340.94 420.58 341.05 420.59 341.17 420.6 341.27 420.61 341.31 420.63 341.36 420.64 341.37 420.65 341.45 420.68 341.46 420.69 341.53 420.72 341.63 420.73 341.74 420.75 341.77 420.75 341.8 420.75 341.93 420.77 342.02 420.79 342.14 420.8 342.24 420.81 342.32 420.83 342.46 420.88 342.58 420.91 342.77 420.97 342.84 420.99 342.86 420.99 342.87 421 342.9 421 342.95 421.02 342.99 421.03 343.03 421.04 343.09 421.07 343.1 421.08 343.18 421.11 343.32 421.18 343.34 421.19 343.35 421.19 343.37 421.2 343.48 421.26 343.59 421.31 343.71 421.36 343.79 421.4 343.84 421.42 343.93 421.47 344.11 421.56 344.21 421.62 344.26 421.64 344.44 421.76 344.52 421.79 344.57 421.81 344.67 421.84 344.76 421.86 344.87 421.88 345.03 421.91 345.12 421.93 345.14 421.93 345.2 421.94 345.23 421.94 345.27 421.94 345.42 421.94 345.51 421.94 345.61 421.95 345.67 421.96 345.69 421.96 345.7 421.96 346.03 422.04 346.07 422.05 346.28 422.1 346.46 422.13 346.59 422.16 346.67 422.16 346.76 422.18 346.86 422.2 346.95 422.22 347.03 422.23 347.12 422.25 347.29 422.26 347.33 422.27 347.35 422.27 347.41 422.27 347.42 422.28 347.43 422.28 347.44 422.28 347.44 422.28 347.45 422.28 347.52 422.29 347.53 422.29 347.55 422.3 347.62 422.3 347.86 422.33 348.07 422.35 348.24 422.36 348.41 422.38 348.51 422.39 348.58 422.42 348.66 422.46 348.76 422.51 348.87 422.56 348.94 422.6 348.94 422.6 348.96 422.61 348.99 422.61 349 422.62 349.04 422.64 349.12 422.67 349.15 422.68 349.17 422.69 349.2 422.7 349.24 422.72 349.27 422.74 349.31 422.77 349.32 422.78 349.34 422.8 349.42 422.86 349.43 422.86 349.44 422.87 349.45 422.88 349.47 422.89 349.51 422.93 349.55 422.95 349.57 422.97 349.58 422.98 349.63 423.03 349.68 423.07 349.7 423.09 349.71 423.1 349.85 423.21 349.86 423.21 349.9 423.24 349.94 423.27 349.97 423.29 349.98 423.3 350.02 423.34 350.09 423.38 350.14 423.42 350.18 423.46 350.19 423.47 350.24 423.52 350.28 423.55 350.36 423.6 350.37 423.62 350.45 423.69 350.54 423.75 350.6 423.79 350.64 423.82 350.68 423.85 350.72 423.87 350.79 423.91 350.91 423.98 351 424.03 351.06 424.06 351.11 424.09 351.23 424.16 351.35 424.23 351.47 424.3 351.63 424.38 351.73 424.44 351.75 424.45 351.77 424.47 351.8 424.48 351.82 424.49 351.84 424.49 351.85 424.49 351.91 424.48 352.05 424.47 352.32 424.47 352.34 424.46 352.52 424.45 352.54 424.45 352.56 424.45 352.76 424.45 352.91 424.44 353.02 424.45 353.07 424.45 353.16 424.46 353.27 424.46 353.38 424.47 353.43 424.47 353.46 424.47 353.47 424.47 353.48 424.47 353.52 424.45 353.53 424.45 353.54 424.44 353.55 424.44 353.56 424.43 353.6 424.4 353.64 424.38 353.67 424.37 353.7 424.37 353.74 424.35 353.78 424.34 353.85 424.31 353.88 424.29 353.92 424.28 353.94 424.28 353.95 424.28 353.98 424.28 354.02 424.27 354.1 424.23 354.1 424.23 354.11 424.22 354.16 424.18 354.19 424.15 354.7 423.81 355.36 423.53 355.49 423.47 355.52 423.45 355.66 423.4 355.71 423.35 355.76 423.28 355.81 423.22 355.82 423.21 355.89 423.15 355.93 423.11 355.94 423.1 355.96 423.08 356 423.04 356.01 423.03 356.08 422.96 356.14 422.89 356.25 422.79 356.35 422.69 356.38 422.66 356.47 422.58 356.62 422.46 356.63 422.45 356.65 422.42 356.66 422.4 356.68 422.38 356.71 422.34 356.73 422.32 356.74 422.31 356.75 422.3 356.76 422.29 356.79 422.27 356.8 422.25 356.81 422.23 356.82 422.22 356.85 422.18 356.88 422.17 356.94 422.11 357.03 422.05 357.11 421.98 357.2 421.91 357.27 421.84 357.35 421.78 357.38 421.74 357.4 421.72 357.47 421.64 357.74 421.4 357.77 421.39 357.79 421.37 357.81 421.34 357.83 421.31 357.85 421.28 357.88 421.23 357.9 421.2 357.91 421.19 357.94 421.15 357.97 421.11 357.98 421.1 358 421.07 358 421.03 358 421.01 358 420.98 358 420.95 358 420.91 358 420.88 358.01 420.83 358.01 420.79 358.03 420.75 358.04 420.7 358.05 420.64 358.07 420.59 358.07 420.55 358.08 420.5 358.08 420.43 358.1 420.39 358.11 420.34 358.13 420.29 358.15 420.24 358.17 420.16 358.19 420.09 358.21 420.03 358.23 420.01 358.25 419.98 358.28 419.93 358.32 419.88 358.36 419.82 358.38 419.79 358.39 419.78 358.41 419.74 358.43 419.72 358.45 419.68 358.48 419.62 358.52 419.57 358.55 419.52 358.58 419.47 358.61 419.42 358.64 419.38 358.67 419.33 358.73 419.25 358.77 419.18 358.8 419.13 358.83 419.08 358.86 419.04 358.9 418.99 358.93 418.94 358.98 418.86 359.01 418.82 359.04 418.78 359.07 418.73 359.11 418.67 359.14 418.62 359.16 418.59 359.17 418.59 359.17 418.58 359.26 418.44 359.28 418.4 359.3 418.37 359.31 418.35 359.33 418.33 359.36 418.26 359.43 418.15 359.49 418.06 359.54 417.98 359.55 417.96 359.59 417.88 359.6 417.87 359.61 417.85 359.63 417.82 359.66 417.75 359.68 417.69 359.69 417.68 359.72 417.64 359.75 417.59 359.79 417.53 359.82 417.48 359.87 417.41 359.91 417.35 359.97 417.26 360.02 417.17 360.06 417.09 360.09 417.04 360.12 416.98 360.12 416.97 360.13 416.95 360.13 416.92 360.14 416.9 360.16 416.85 360.18 416.8 360.19 416.78 360.2 416.76 360.21 416.71 360.23 416.66 360.26 416.59 360.28 416.52 360.31 416.45 360.36 416.33 360.39 416.25 360.41 416.19 360.42 416.14 360.43 416.13 360.44 416.11 360.46 416.08 360.47 416.03 360.48 416 360.49 415.92 360.5 415.9 360.51 415.85 360.52 415.81 360.54 415.75 360.56 415.7 360.57 415.65 360.59 415.61 360.61 415.55 360.62 415.52 360.64 415.47 360.64 415.45 360.64 415.42 360.64 415.39 360.65 415.35 360.67 415.31 360.68 415.29 360.72 415.29 360.76 415.3 360.82 415.32 360.85 415.34 360.89 415.35 360.97 415.4 361.04 415.45 361.09 415.48 361.16 415.51 361.22 415.54 361.27 415.56 361.36 415.6 361.37 415.6 361.42 415.62 361.55 415.68 361.68 415.75 361.69 415.75 361.74 415.78 361.76 415.79 361.82 415.84 361.87 415.87 361.93 415.91 361.97 415.94 361.99 415.95 362.04 416 362.09 416.03 362.22 416.13 362.27 416.16 362.39 416.21 362.45 416.25 362.75 416.38 363.03 416.51 363.16 416.56 363.37 416.66 363.72 416.82 363.8 416.85 363.82 416.86 363.83 416.86 363.98 416.91 364.17 416.97 364.37 417.05 364.47 417.09 364.53 417.11 364.69 417.17 364.85 417.23 365.02 417.3 365.07 417.32 365.16 417.35 365.23 417.36 365.36 417.38 365.47 417.4 365.73 417.46 365.81 417.48 365.91 417.51 365.93 417.52 366.01 417.55 366.3 417.67 366.45 417.73 366.51 417.75 366.57 417.76 366.83 417.81 366.95 417.84 367.06 417.86 367.08 417.86 367.19 417.88 367.48 417.93 367.51 417.93 367.64 417.95 367.69 417.96 367.82 417.99 367.98 418.02 368.08 418.05 368.14 418.08 368.2 418.1 368.27 418.1 368.41 418.1 368.54 418.11 368.69 418.13 368.7 418.13 368.75 418.13 368.76 418.13 368.84 418.15 368.96 418.16 369.54 417.97 369.58 417.95 369.7 417.9 369.86 417.83 370.01 417.79 370.02 417.78 370.03 417.79 370.1 417.8 370.24 417.83 370.34 417.86 370.38 417.87 370.49 417.88 370.7 417.9 370.75 417.91 370.86 417.9 370.95 417.9 371.04 417.95 Z"/>
</g></svg>