<svg xmlns="http://www.w3.org/2000/svg" version="1.2" baseProfile="tiny" stroke-linecap="round" stroke-linejoin="round" viewBox="371.15 330.65 21.98 21.6"><g xmlns="http://www.w3.org/2000/svg" id="Metauten">
<path d="M 380.43 330.68 380.44 330.71 380.57 330.84 380.68 330.95 380.8 331.06 380.92 331.18 381.03 331.28 381.15 331.39 381.18 331.41 381.28 331.48 381.43 331.58 381.58 331.67 381.71 331.76 381.86 331.84 381.91 331.88 381.92 331.88 381.99 331.93 382.1 332.04 382.14 332.09 382.17 332.13 382.21 332.17 382.23 332.21 382.26 332.24 382.3 332.29 382.34 332.34 382.38 332.4 382.41 332.44 382.45 332.49 382.49 332.54 382.51 332.58 382.54 332.62 382.6 332.71 382.63 332.75 382.68 332.83 382.69 332.85 382.71 332.88 382.75 332.95 382.76 332.96 382.78 332.99 382.81 333.04 382.83 333.07 382.85 333.11 382.89 333.17 382.92 333.22 382.94 333.25 382.96 333.27 382.97 333.28 382.98 333.29 382.99 333.31 383.01 333.34 383.04 333.36 383.06 333.37 383.08 333.39 383.11 333.42 383.16 333.46 383.17 333.47 383.2 333.5 383.25 333.54 383.29 333.57 383.32 333.6 383.35 333.63 383.37 333.66 383.38 333.67 383.4 333.7 383.41 333.71 383.44 333.74 383.46 333.77 383.47 333.78 383.51 333.82 383.53 333.84 383.57 333.86 383.61 333.89 383.64 333.91 383.67 333.93 383.69 333.95 383.71 333.97 383.72 333.98 383.73 333.99 383.75 334.01 383.76 334.02 383.79 334.05 383.81 334.07 383.83 334.09 383.85 334.11 383.87 334.13 383.88 334.14 383.92 334.18 383.96 334.22 383.99 334.26 384.05 334.33 384.06 334.34 384.08 334.36 384.09 334.37 384.1 334.39 384.12 334.41 384.14 334.42 384.17 334.45 384.18 334.46 384.19 334.47 384.21 334.48 384.23 334.5 384.26 334.54 384.29 334.57 384.31 334.6 384.33 334.64 384.37 334.68 384.4 334.73 384.43 334.77 384.47 334.84 384.5 334.87 384.51 334.89 384.52 334.91 384.55 334.95 384.56 334.96 384.61 335.05 384.63 335.07 384.68 335.13 384.73 335.21 384.77 335.28 384.77 335.28 384.82 335.35 384.86 335.41 384.9 335.47 384.94 335.53 384.98 335.59 385.03 335.65 385.09 335.73 385.15 335.8 385.19 335.85 385.23 335.89 385.26 335.93 385.29 335.97 385.31 336 385.34 336.03 385.37 336.05 385.4 336.08 385.45 336.11 385.49 336.14 385.53 336.17 385.59 336.21 385.64 336.24 385.68 336.27 385.71 336.3 385.75 336.32 385.81 336.36 385.85 336.38 385.87 336.39 385.92 336.41 385.97 336.43 386.01 336.45 386.07 336.48 386.14 336.51 386.2 336.55 386.27 336.59 386.32 336.61 386.33 336.61 386.34 336.62 386.38 336.63 386.43 336.66 386.46 336.67 386.52 336.69 386.57 336.71 386.62 336.74 386.64 336.74 386.68 336.75 386.74 336.76 386.78 336.77 386.84 336.77 386.87 336.77 386.89 336.77 386.94 336.77 386.97 336.77 386.98 336.77 386.99 336.78 387.01 336.78 387.03 336.78 387.08 336.79 387.12 336.8 387.16 336.81 387.19 336.81 387.22 336.82 387.25 336.84 387.3 336.86 387.34 336.87 387.38 336.88 387.41 336.89 387.44 336.9 387.48 336.92 387.51 336.93 387.52 336.94 387.54 336.95 387.56 336.97 387.58 336.98 387.62 337 387.66 337.02 387.71 337.05 387.75 337.09 387.77 337.12 387.79 337.14 387.8 337.15 387.84 337.2 387.85 337.2 387.87 337.21 387.89 337.22 387.92 337.25 387.95 337.27 388 337.3 388.04 337.33 388.09 337.37 388.13 337.4 388.18 337.43 388.23 337.47 388.29 337.5 388.33 337.55 388.38 337.58 388.42 337.6 388.44 337.62 388.45 337.65 388.48 337.68 388.5 337.7 388.52 337.73 388.55 337.76 388.58 337.8 388.61 337.83 388.64 337.85 388.69 337.9 388.74 337.94 388.8 337.98 388.86 338.03 388.88 338.06 388.91 338.1 388.96 338.15 388.99 338.17 389.02 338.2 389.05 338.24 389.11 338.33 389.19 338.43 389.22 338.47 389.25 338.5 389.32 338.55 389.39 338.6 389.49 338.67 389.56 338.71 389.62 338.75 389.69 338.8 389.76 338.87 389.87 338.95 389.97 339.03 390.03 339.09 390.09 339.13 390.12 339.15 390.15 339.16 390.17 339.17 390.18 339.17 390.18 339.18 390.18 339.21 390.17 339.26 390.16 339.27 390.16 339.3 390.15 339.34 390.14 339.37 390.12 339.42 390.1 339.46 390.06 339.53 390.04 339.58 389.99 339.68 389.94 339.78 389.88 339.89 389.82 340 389.78 340.08 389.71 340.24 389.61 340.46 389.53 340.62 389.51 340.67 389.49 340.69 389.43 340.75 389.39 340.79 389.42 340.84 389.43 340.85 389.43 340.86 389.47 340.93 389.52 341.05 389.54 341.11 389.55 341.11 389.55 341.16 389.58 341.32 389.59 341.43 389.6 341.44 389.6 341.45 389.61 341.47 389.67 341.6 389.71 341.69 389.76 341.71 389.77 341.71 389.8 341.71 389.85 341.74 389.87 341.76 389.95 341.83 390.04 341.92 390.18 342.05 390.3 342.17 390.44 342.33 390.47 342.37 390.56 342.48 390.69 342.66 390.78 342.81 390.82 342.9 390.84 342.93 390.89 343.03 390.96 343.14 391.07 343.26 391.14 343.33 391.18 343.36 391.2 343.38 391.25 343.42 391.35 343.48 391.38 343.51 391.45 343.62 391.49 343.68 391.53 343.72 391.55 343.73 391.62 343.8 391.65 343.85 391.67 343.87 391.69 343.94 391.69 343.96 391.71 343.99 391.72 344.05 391.77 344.17 391.79 344.22 391.8 344.24 391.82 344.29 391.83 344.33 391.84 344.39 391.83 344.44 391.83 344.46 391.82 344.47 391.83 344.49 391.83 344.51 391.89 344.6 391.91 344.63 391.99 344.72 392.09 344.84 392.14 344.89 392.17 344.91 392.18 344.93 392.21 344.98 392.3 345.19 392.31 345.21 392.31 345.22 392.34 345.29 392.34 345.3 392.39 345.44 392.4 345.46 392.45 345.58 392.45 345.6 392.46 345.61 392.47 345.65 392.48 345.66 392.5 345.74 392.51 345.75 392.52 345.78 392.52 345.79 392.53 345.86 392.54 345.89 392.56 346.02 392.59 346.23 392.62 346.42 392.65 346.61 392.68 346.81 392.68 346.82 392.68 346.83 392.69 346.83 392.75 347.19 392.78 347.39 392.82 347.6 392.87 347.82 392.9 348.01 392.92 348.17 393.02 348.71 393.06 348.93 393.07 349.01 393.09 349.09 393.09 349.1 393.1 349.15 393.09 349.16 393.06 349.18 393.04 349.21 393.01 349.26 392.99 349.3 392.99 349.33 392.99 349.35 392.99 349.38 392.98 349.41 392.96 349.45 392.94 349.51 392.91 349.56 392.9 349.61 392.89 349.64 392.89 349.67 392.88 349.7 392.85 349.73 392.82 349.75 392.78 349.77 392.75 349.77 392.71 349.77 392.67 349.78 392.64 349.8 392.61 349.83 392.6 349.87 392.6 349.9 392.59 349.94 392.58 349.98 392.55 350.03 392.53 350.06 392.5 350.08 392.47 350.1 392.34 350.15 392.33 350.15 392.24 350.19 392.21 350.19 392.16 350.21 392.08 350.25 391.89 350.32 391.86 350.33 391.77 350.36 391.76 350.36 391.67 350.41 391.56 350.44 391.49 350.47 391.42 350.49 391.35 350.51 391.28 350.53 391.2 350.55 391.13 350.57 391.05 350.58 390.98 350.6 390.91 350.62 390.82 350.64 390.78 350.66 390.75 350.66 390.7 350.66 390.63 350.68 390.56 350.68 390.46 350.69 390.37 350.7 390.35 350.7 390.31 350.7 390.24 350.71 390.19 350.71 390.15 350.72 390.11 350.73 390.09 350.74 390.02 350.76 389.96 350.78 389.94 350.78 389.88 350.8 389.86 350.8 389.78 350.82 389.73 350.82 389.7 350.84 389.67 350.86 389.63 350.87 389.54 350.92 389.5 350.94 389.46 350.96 389.41 350.98 389.34 351.01 389.3 351.03 389.14 351.14 389.07 351.18 389.06 351.18 389.01 351.2 388.97 351.22 388.9 351.26 388.85 351.29 388.82 351.3 388.78 351.34 388.66 351.39 388.53 351.45 388.44 351.49 388.33 351.54 388.15 351.62 388.02 351.67 388 351.68 387.83 351.69 387.51 351.81 387.5 351.81 387.46 351.81 387.41 351.8 387.36 351.8 387.3 351.79 387.24 351.77 387.17 351.75 387.03 351.74 387 351.72 386.96 351.69 386.85 351.6 386.84 351.61 386.81 351.69 386.81 351.7 386.81 351.71 386.77 351.67 386.73 351.61 386.66 351.54 386.59 351.48 386.53 351.43 386.47 351.38 386.4 351.34 386.34 351.31 386.27 351.27 386.22 351.24 386.15 351.22 386.11 351.21 386.08 351.2 386.05 351.19 386.03 351.18 386 351.17 385.97 351.15 385.95 351.14 385.94 351.13 385.93 351.12 385.92 351.1 385.86 351.01 385.83 350.96 385.83 350.95 385.82 350.94 385.81 350.93 385.79 350.92 385.77 350.91 385.76 350.91 385.72 350.89 385.69 350.88 385.68 350.87 385.67 350.87 385.63 350.85 385.6 350.84 385.57 350.83 385.54 350.81 385.51 350.79 385.48 350.77 385.44 350.75 385.41 350.72 385.37 350.68 385.3 350.64 385.28 350.62 385.27 350.62 385.24 350.6 385.22 350.59 385.2 350.59 385.17 350.58 385.14 350.57 385.12 350.57 385.1 350.56 385.07 350.56 385.03 350.56 384.96 350.56 384.88 350.57 384.82 350.57 384.8 350.57 384.77 350.57 384.74 350.57 384.69 350.58 384.65 350.58 384.62 350.58 384.6 350.59 384.58 350.59 384.57 350.6 384.54 350.6 384.5 350.61 384.45 350.61 384.46 350.65 384.48 350.71 384.5 350.76 384.51 350.77 384.53 350.79 384.58 350.83 384.63 350.87 384.65 350.88 384.66 350.89 384.68 350.91 384.69 350.93 384.71 350.95 384.72 350.97 384.72 350.99 384.56 350.92 384.49 350.92 384.38 350.92 384.32 350.92 384.29 350.92 384.27 350.92 384.2 350.93 384.14 350.94 384.08 350.96 384.02 350.98 383.97 351 383.95 350.99 383.9 350.98 383.86 350.97 383.84 350.97 383.82 350.96 383.8 350.95 383.79 350.95 383.75 350.93 383.68 350.89 383.64 350.87 383.61 350.85 383.59 350.84 383.57 350.84 383.44 350.91 383.33 350.97 383.23 351.03 383.13 351.07 383.05 351.11 382.94 351.15 382.86 351.18 382.81 351.2 382.73 351.22 382.65 351.23 382.61 351.24 382.57 351.24 382.51 351.24 382.4 351.25 382.25 351.26 382.07 351.27 382.06 351.27 381.98 351.27 381.64 351.44 381.5 351.51 381.44 351.6 381.43 351.61 381.4 351.65 381.33 351.71 381.27 351.77 381.14 351.87 381.1 351.9 381 351.97 380.98 351.99 380.96 352 380.92 352.01 380.92 352.01 380.87 352.03 380.8 352.05 380.77 352.06 380.72 352.09 380.64 352.13 380.56 352.17 380.48 352.21 380.47 352.22 380.44 352.23 380.41 352.22 380.41 352.21 380.4 352.2 380.4 352.16 380.38 352.13 380.36 352.06 380.33 352 380.32 351.94 380.31 351.89 380.29 351.83 380.27 351.76 380.26 351.69 380.25 351.63 380.24 351.57 380.23 351.56 380.22 351.5 380.21 351.43 380.21 351.41 380.2 351.39 380.2 351.35 380.19 351.29 380.18 351.25 380.17 351.24 380.16 351.19 380.16 351.18 380.14 351.11 380.13 351.08 380.12 351.04 380.11 351 380.1 350.96 380.08 350.93 380.08 350.9 380.08 350.88 380.08 350.86 380.08 350.86 380.08 350.85 380.08 350.82 380.08 350.8 380.08 350.76 380.08 350.74 380.08 350.7 380.09 350.65 380.09 350.62 380.09 350.58 380.09 350.54 380.1 350.51 380.1 350.47 380.11 350.44 380.12 350.39 380.13 350.34 380.16 350.28 380.16 350.26 380.18 350.2 380.18 350.18 380.18 350.13 380.19 350.07 380.2 349.98 380.21 349.9 380.22 349.84 380.23 349.76 380.24 349.68 380.24 349.61 380.24 349.57 380.2 349.56 380.16 349.54 380.13 349.52 380.08 349.49 380.05 349.47 380.02 349.46 379.97 349.43 379.94 349.41 379.92 349.39 379.91 349.39 379.89 349.38 379.84 349.35 379.81 349.33 379.77 349.31 379.74 349.29 379.69 349.26 379.67 349.25 379.6 349.22 379.55 349.19 379.51 349.17 379.48 349.16 379.43 349.14 379.36 349.11 379.32 349.1 379.26 349.07 379.21 349.05 379.16 349.03 379.12 349.02 379.06 348.99 378.98 348.94 378.91 348.9 378.85 348.86 378.78 348.82 378.72 348.78 378.67 348.75 378.59 348.67 378.54 348.62 378.47 348.57 378.42 348.52 378.39 348.48 378.37 348.47 378.32 348.45 378.27 348.43 378.24 348.41 378.14 348.37 378.09 348.35 378.02 348.33 378 348.32 377.96 348.3 377.91 348.27 377.85 348.23 377.8 348.2 377.75 348.18 377.7 348.15 377.63 348.11 377.59 348.07 377.54 348.03 377.47 347.98 377.44 347.96 377.39 347.92 377.33 347.88 377.3 347.85 377.29 347.85 377.28 347.84 377.24 347.81 377.19 347.76 377.14 347.71 377.09 347.66 377.04 347.62 377.01 347.57 376.98 347.56 376.95 347.53 376.9 347.48 376.87 347.43 376.83 347.39 376.8 347.36 376.76 347.33 376.72 347.3 376.67 347.26 376.63 347.23 376.6 347.2 376.56 347.17 376.51 347.14 376.48 347.11 376.44 347.08 376.4 347.05 376.36 347.02 376.32 346.99 376.27 346.96 376.24 346.93 376.21 346.91 376.18 346.89 376.14 346.87 376.12 346.84 376.09 346.82 376.05 346.8 376.02 346.78 376 346.76 375.97 346.75 375.95 346.74 375.91 346.71 375.88 346.7 375.85 346.69 375.82 346.67 375.79 346.66 375.77 346.65 375.73 346.63 375.71 346.62 375.67 346.6 375.64 346.58 375.61 346.56 375.6 346.56 375.56 346.53 375.55 346.51 375.51 346.47 375.47 346.44 375.45 346.42 375.41 346.39 375.4 346.37 375.38 346.36 375.37 346.35 375.36 346.34 375.34 346.33 375.33 346.31 375.33 346.28 375.34 346.26 375.37 346.21 375.4 346.16 375.41 346.14 375.43 346.09 375.45 346.06 375.46 346.03 375.48 345.97 375.5 345.92 375.52 345.88 375.54 345.83 375.56 345.81 375.57 345.75 375.61 345.7 375.64 345.67 375.68 345.65 375.72 345.61 375.75 345.59 375.78 345.57 375.8 345.56 375.83 345.53 375.9 345.49 375.94 345.46 375.96 345.45 375.96 345.44 375.97 345.43 375.99 345.4 376 345.38 376.01 345.34 376.02 345.31 376.03 345.29 376.02 345.26 376.02 345.23 376.02 345.2 376.02 345.17 376.02 345.15 376.02 345.12 376.02 345.08 376.02 345.04 376.03 345.01 376.02 344.97 376.02 344.92 376.02 344.87 376.01 344.83 376 344.79 375.99 344.76 375.98 344.72 375.97 344.69 375.95 344.67 375.93 344.65 375.91 344.63 375.87 344.59 375.85 344.57 375.82 344.55 375.79 344.52 375.77 344.49 375.76 344.47 375.72 344.41 375.72 344.36 375.71 344.3 375.72 344.27 375.73 344.21 375.74 344.17 375.75 344.14 375.76 344.1 375.78 344.07 375.75 344.08 375.71 344.1 375.68 344.12 375.67 344.14 375.66 344.15 375.65 344.18 375.64 344.2 375.63 344.22 375.63 344.25 375.63 344.27 375.62 344.31 375.62 344.34 375.61 344.38 375.61 344.41 375.61 344.43 375.6 344.45 375.58 344.47 375.57 344.48 375.54 344.49 375.52 344.49 375.5 344.49 375.48 344.49 375.44 344.48 375.41 344.46 375.39 344.45 375.36 344.43 375.33 344.42 375.29 344.41 375.25 344.39 375.2 344.37 375.14 344.35 375.1 344.33 375.07 344.33 375.05 344.32 375.02 344.32 375.01 344.32 374.99 344.33 374.96 344.33 374.93 344.34 374.91 344.36 374.89 344.38 374.87 344.4 374.85 344.42 374.84 344.44 374.82 344.46 374.81 344.48 374.78 344.49 374.76 344.5 374.73 344.5 374.68 344.51 374.64 344.5 374.59 344.5 374.54 344.5 374.49 344.48 374.45 344.48 374.41 344.48 374.37 344.48 374.32 344.47 374.28 344.47 374.25 344.47 374.21 344.48 374.17 344.48 374.13 344.48 374.08 344.47 374.03 344.47 374.02 344.47 373.98 344.46 373.96 344.46 373.95 344.46 373.91 344.46 373.87 344.45 373.81 344.45 373.75 344.44 373.72 344.44 373.66 344.44 373.6 344.43 373.54 344.43 373.49 344.42 373.43 344.4 373.38 344.4 373.36 344.38 373.36 344.36 373.35 344.35 373.32 344.29 373.3 344.24 373.26 344.17 373.23 344.11 373.19 344.04 373.17 343.99 373.15 343.92 373.12 343.87 373.1 343.82 373.08 343.76 373.03 343.65 372.99 343.6 372.93 343.62 372.89 343.63 372.84 343.64 372.78 343.67 372.77 343.67 372.69 343.71 372.62 343.73 372.55 343.75 372.49 343.78 372.43 343.8 372.37 343.83 372.3 343.84 372.23 343.85 372.17 343.87 372.11 343.89 372.05 343.91 372.04 343.9 371.99 343.84 371.94 343.79 371.9 343.74 371.86 343.7 371.87 343.68 371.89 343.66 371.92 343.62 371.95 343.58 371.97 343.55 371.98 343.51 371.99 343.48 372.01 343.44 372.02 343.41 372.03 343.37 372.04 343.33 372.05 343.3 372.06 343.25 372.07 343.2 372.09 343.16 372.1 343.12 372.12 343.07 372.13 343.03 372.13 342.99 372.12 342.96 372.13 342.91 372.13 342.85 372.14 342.82 372.14 342.78 372.13 342.76 372.12 342.72 372.11 342.67 372.1 342.65 372.1 342.63 372.1 342.61 372.09 342.58 372.09 342.55 372.08 342.51 372.09 342.48 372.09 342.45 372.1 342.42 372.11 342.39 372.12 342.36 372.13 342.33 372.13 342.3 372.15 342.26 372.16 342.2 372.17 342.13 372.18 342.06 372.19 342 372.21 341.93 372.22 341.87 372.22 341.84 372.22 341.82 372.22 341.81 372.23 341.79 372.24 341.76 372.25 341.69 372.26 341.66 372.26 341.63 372.27 341.61 372.27 341.61 372.28 341.58 372.29 341.5 372.31 341.44 372.32 341.39 372.32 341.35 372.32 341.32 372.32 341.3 372.3 341.26 372.29 341.23 372.28 341.22 372.27 341.21 372.25 341.18 372.21 341.12 372.16 341.06 372.12 341 372.08 340.96 372.05 340.93 372.03 340.91 371.99 340.88 371.94 340.85 371.88 340.8 371.83 340.76 371.76 340.72 371.7 340.68 371.64 340.65 371.59 340.62 371.57 340.61 371.54 340.59 371.5 340.57 371.48 340.56 371.44 340.54 371.4 340.5 371.36 340.48 371.33 340.46 371.31 340.43 371.28 340.4 371.25 340.38 371.24 340.36 371.23 340.34 371.21 340.32 371.2 340.29 371.19 340.27 371.19 340.25 371.18 340.22 371.19 340.19 371.19 340.16 371.2 340.12 371.23 340.06 371.26 339.99 371.27 339.94 371.28 339.93 371.28 339.92 371.32 339.86 371.36 339.8 371.36 339.79 371.39 339.77 371.42 339.74 371.45 339.7 371.5 339.67 371.55 339.64 371.59 339.61 371.63 339.59 371.69 339.56 371.74 339.54 371.81 339.5 371.89 339.46 371.94 339.44 371.96 339.42 371.98 339.42 371.99 339.41 372.04 339.39 372.1 339.37 372.1 339.35 372.11 339.3 372.12 339.22 372.13 339.15 372.14 339.08 372.15 339.01 372.16 338.94 372.16 338.86 372.16 338.81 372.17 338.75 372.18 338.69 372.18 338.64 372.2 338.57 372.22 338.53 372.24 338.47 372.25 338.42 372.28 338.36 372.31 338.31 372.33 338.29 372.34 338.27 372.37 338.23 372.4 338.19 372.44 338.15 372.49 338.1 372.55 338.06 372.58 338.04 372.63 338.02 372.68 337.99 372.71 337.98 372.75 337.96 372.78 337.95 372.82 337.95 372.84 337.94 372.89 337.94 372.93 337.94 372.96 337.94 372.99 337.94 373.02 337.95 373.06 337.97 373.1 337.99 373.15 338.01 373.19 338.04 373.24 338.06 373.3 338.09 373.35 338.12 373.41 338.15 373.47 338.19 373.49 338.2 373.53 338.22 373.57 338.24 373.61 338.27 373.66 338.3 373.79 338.36 373.88 338.4 373.93 338.39 373.99 338.38 374.04 338.36 374.08 338.34 374.13 338.37 374.17 338.4 374.19 338.42 374.21 338.44 374.23 338.49 374.24 338.54 374.25 338.57 374.26 338.59 374.27 338.62 374.29 338.63 374.32 338.65 374.35 338.65 374.38 338.64 374.4 338.64 374.43 338.62 374.48 338.59 374.53 338.57 374.55 338.55 374.57 338.55 374.61 338.54 374.66 338.52 374.72 338.49 374.77 338.46 374.83 338.42 374.88 338.39 374.93 338.35 374.98 338.31 375 338.29 375.02 338.27 375.03 338.25 375.05 338.22 375.07 338.2 375.08 338.17 375.11 338.13 375.13 338.09 375.16 338.04 375.19 337.99 375.21 337.94 375.22 337.89 375.24 337.85 375.25 337.79 375.27 337.75 375.27 337.72 375.3 337.68 375.32 337.65 375.34 337.61 375.37 337.57 375.4 337.53 375.42 337.48 375.43 337.42 375.43 337.4 375.43 337.38 375.43 337.36 375.43 337.33 375.43 337.3 375.43 337.26 375.43 337.22 375.45 337.16 375.46 337.11 375.47 337.08 375.47 337.04 375.47 337.01 375.48 336.96 375.48 336.91 375.49 336.89 375.5 336.87 375.51 336.86 375.53 336.85 375.54 336.84 375.56 336.83 375.58 336.8 375.6 336.78 375.6 336.75 375.59 336.73 375.58 336.71 375.56 336.68 375.56 336.65 375.56 336.61 375.55 336.58 375.55 336.54 375.56 336.51 375.57 336.47 375.57 336.43 375.57 336.39 375.57 336.35 375.58 336.31 375.58 336.28 375.58 336.24 375.58 336.21 375.58 336.17 375.58 336.14 375.57 336.09 375.57 336.06 375.57 336 375.56 335.95 375.54 335.91 375.53 335.87 375.51 335.83 375.49 335.79 375.47 335.76 375.44 335.74 375.42 335.7 375.4 335.66 375.38 335.62 375.36 335.58 375.35 335.54 375.34 335.5 375.34 335.46 375.34 335.42 375.34 335.38 375.35 335.34 375.36 335.31 375.37 335.27 375.38 335.22 375.39 335.18 375.41 335.14 375.42 335.09 375.42 335.05 375.44 335 375.45 334.97 375.45 334.93 375.47 334.89 375.48 334.86 375.48 334.81 375.49 334.77 375.49 334.73 375.5 334.68 375.5 334.63 375.49 334.58 375.49 334.53 375.48 334.49 375.47 334.43 375.45 334.37 375.43 334.3 375.43 334.27 375.41 334.21 375.39 334.15 375.38 334.08 375.37 334.01 375.35 333.96 375.34 333.88 375.32 333.81 375.3 333.76 375.28 333.68 375.26 333.61 375.24 333.55 375.22 333.47 375.21 333.42 375.19 333.36 375.16 333.32 375.14 333.26 375.12 333.22 375.11 333.17 375.09 333.13 375.07 333.07 375.06 333.03 375.05 332.98 375.05 332.94 375.04 332.89 375.03 332.85 375.03 332.81 375.02 332.77 375.02 332.73 375.01 332.7 375 332.67 375 332.65 374.99 332.62 374.98 332.58 374.97 332.55 374.97 332.53 374.97 332.52 374.96 332.49 374.94 332.46 374.92 332.42 374.91 332.39 374.91 332.37 374.92 332.36 374.92 332.33 374.93 332.31 374.93 332.29 374.92 332.27 374.91 332.24 374.89 332.21 374.88 332.19 374.87 332.17 374.88 332.15 374.89 332.14 374.92 332.11 374.95 332.1 374.97 332.09 374.99 332.1 375.03 332.1 375.05 332.1 375.07 332.1 375.09 332.09 375.11 332.09 375.14 332.09 375.18 332.11 375.22 332.14 375.27 332.18 375.29 332.2 375.32 332.22 375.35 332.24 375.37 332.26 375.42 332.27 375.46 332.28 375.51 332.28 375.55 332.29 375.58 332.29 375.6 332.3 375.63 332.31 375.67 332.33 375.7 332.35 375.73 332.37 375.77 332.39 375.8 332.41 375.83 332.42 375.88 332.41 375.91 332.4 375.96 332.4 376 332.4 376.04 332.4 376.08 332.4 376.13 332.39 376.18 332.39 376.22 332.39 376.26 332.39 376.31 332.39 376.35 332.39 376.4 332.4 376.45 332.42 376.5 332.43 376.55 332.44 376.59 332.45 376.65 332.46 376.7 332.47 376.73 332.47 376.75 332.48 376.78 332.48 376.82 332.48 376.88 332.48 376.92 332.47 376.97 332.48 377.01 332.47 377.06 332.47 377.09 332.48 377.12 332.47 377.16 332.46 377.19 332.46 377.23 332.43 377.24 332.42 377.28 332.42 377.32 332.42 377.37 332.43 377.4 332.43 377.45 332.43 377.48 332.42 377.51 332.41 377.53 332.4 377.56 332.38 377.58 332.35 377.59 332.33 377.6 332.31 377.6 332.29 377.61 332.28 377.63 332.27 377.66 332.26 377.67 332.26 377.7 332.27 377.72 332.27 377.76 332.27 377.8 332.27 377.84 332.26 377.87 332.25 377.9 332.24 377.92 332.23 377.96 332.22 377.98 332.21 378.02 332.2 378.05 332.19 378.08 332.17 378.1 332.16 378.13 332.15 378.17 332.15 378.22 332.14 378.26 332.13 378.29 332.11 378.32 332.1 378.34 332.08 378.36 332.07 378.38 332.06 378.4 332.05 378.42 332.05 378.46 332.03 378.51 332.02 378.56 332.01 378.59 331.99 378.61 332 378.62 332.01 378.64 332.03 378.67 332.06 378.69 332.09 378.69 332.1 378.71 332.14 378.73 332.17 378.76 332.22 378.77 332.24 378.81 332.27 378.84 332.29 378.88 332.32 378.91 332.33 378.93 332.34 378.95 332.35 378.97 332.35 379 332.36 379.03 332.36 379.05 332.35 379.07 332.34 379.09 332.31 379.11 332.28 379.12 332.26 379.14 332.23 379.17 332.22 379.2 332.2 379.23 332.18 379.27 332.14 379.29 332.1 379.32 332.07 379.35 332.03 379.38 331.99 379.41 331.95 379.44 331.92 379.47 331.89 379.5 331.87 379.52 331.87 379.53 331.86 379.55 331.86 379.58 331.87 379.59 331.87 379.61 331.87 379.63 331.87 379.64 331.88 379.67 331.87 379.68 331.86 379.7 331.85 379.71 331.84 379.72 331.82 379.73 331.8 379.73 331.77 379.74 331.74 379.75 331.71 379.76 331.69 379.77 331.68 379.79 331.67 379.8 331.66 379.83 331.64 379.85 331.63 379.88 331.62 379.91 331.62 379.94 331.6 379.97 331.58 380.01 331.57 380.04 331.55 380.06 331.53 380.08 331.5 380.1 331.47 380.11 331.44 380.13 331.4 380.13 331.36 380.14 331.33 380.14 331.31 380.14 331.29 380.14 331.26 380.15 331.2 380.15 331.14 380.15 331.11 380.16 331.07 380.16 331.05 380.17 331.03 380.19 331 380.21 330.97 380.24 330.94 380.26 330.91 380.29 330.88 380.31 330.85 380.33 330.82 380.35 330.78 380.38 330.75 380.4 330.71 380.43 330.68 Z"/>
</g></svg>