<svg xmlns="http://www.w3.org/2000/svg" version="1.2" baseProfile="tiny" stroke-linecap="round" stroke-linejoin="round" viewBox="470.85 502.78 30.13 21.47"><g xmlns="http://www.w3.org/2000/svg" id="Milagro">
<path d="M 484.95 502.81 485.09 503.36 485.2 503.66 485.42 504.01 485.58 504.26 485.74 504.53 485.89 504.83 486.09 505.28 486.12 505.42 486.15 505.47 486.19 505.52 486.26 505.57 486.3 505.59 486.49 505.7 486.51 505.71 486.54 505.72 486.65 505.75 486.84 505.82 486.98 505.86 487.01 505.89 487.04 505.92 487.08 505.97 487.09 505.99 487.2 506.14 487.27 506.23 487.36 506.36 487.43 506.47 487.5 506.56 487.55 506.65 487.6 506.71 487.67 506.8 487.8 506.99 487.81 507 487.9 507.13 487.9 507.13 487.98 507.25 488.01 507.29 488.03 507.3 488.04 507.31 488.15 507.46 488.24 507.58 488.3 507.65 488.47 507.88 488.48 507.89 488.49 507.91 488.54 507.96 488.6 508.03 488.6 508.04 488.6 508.05 488.61 508.08 488.61 508.09 488.61 508.11 488.63 508.13 488.63 508.14 488.64 508.15 488.67 508.19 488.72 508.26 488.74 508.27 488.85 508.39 488.88 508.42 488.89 508.43 489.02 508.59 489.08 508.67 489.09 508.7 489.15 508.76 489.16 508.78 489.21 508.85 489.21 508.86 489.22 508.87 489.26 508.92 489.29 508.96 489.31 508.98 489.33 509 489.35 509.02 489.47 509.12 489.48 509.13 489.61 509.24 489.66 509.27 489.68 509.28 489.76 509.32 489.82 509.22 489.83 509.21 489.91 509.11 489.96 509.06 490.01 509.02 490.08 508.96 490.18 508.89 490.18 508.82 490.18 508.79 490.18 508.77 490.19 508.76 490.22 508.73 490.34 508.63 490.38 508.6 490.57 508.43 490.71 508.3 490.76 508.24 490.81 508.19 490.82 508.16 490.85 508.13 490.9 508.09 491 508.01 491.02 508 491.06 507.97 491.1 507.93 491.14 507.88 491.17 507.81 491.18 507.8 491.2 507.76 491.21 507.74 491.23 507.7 491.24 507.67 491.24 507.59 491.23 507.45 491.23 507.39 491.22 507.37 491.21 507.33 491.21 507.31 491.21 507.29 491.23 507.26 491.25 507.21 491.25 507.2 491.27 507.16 491.27 507.14 491.28 507.15 491.3 507.16 491.31 507.18 491.32 507.22 491.33 507.24 491.37 507.28 491.43 507.32 491.44 507.33 491.45 507.34 491.46 507.36 491.47 507.4 491.48 507.42 491.5 507.44 491.52 507.46 491.53 507.48 491.55 507.49 491.57 507.49 491.59 507.49 491.63 507.5 491.65 507.51 491.66 507.51 491.67 507.52 491.71 507.54 491.72 507.55 491.75 507.62 491.76 507.63 491.78 507.66 491.82 507.68 491.94 507.73 492 507.75 492.03 507.77 492.04 507.78 492.08 507.81 492.15 507.87 492.21 507.9 492.24 507.91 492.26 507.91 492.27 507.92 492.37 507.97 492.45 508.01 492.46 508.01 492.47 508.02 492.59 508.14 492.69 508.23 492.78 508.31 492.86 508.37 492.95 508.46 493.04 508.53 493.12 508.6 493.16 508.64 493.36 508.82 493.38 508.83 493.5 508.93 493.54 508.96 493.67 509.07 493.73 509.12 493.79 509.17 493.89 509.26 493.91 509.27 493.99 509.33 494 509.34 494.09 509.41 494.21 509.52 494.21 509.52 494.22 509.53 494.23 509.53 494.25 509.55 494.27 509.57 494.28 509.57 494.36 509.64 494.36 509.65 494.41 509.69 494.42 509.7 494.43 509.71 494.48 509.75 494.49 509.76 494.6 509.85 494.62 509.87 494.7 509.94 494.71 509.94 494.81 510.03 494.92 510.12 494.93 510.13 494.99 510.19 495.07 510.26 495.08 510.27 495.15 510.33 495.22 510.39 495.24 510.41 495.41 510.58 495.75 510.92 495.77 510.94 495.79 510.97 495.81 510.97 495.84 510.96 495.85 510.96 495.87 510.96 495.9 510.95 495.97 510.94 496.33 510.88 496.63 510.83 496.65 510.83 497.12 510.78 497.32 510.79 497.33 510.81 497.4 510.94 497.47 511.07 497.48 511.09 497.5 511.12 497.55 511.2 497.59 511.26 497.61 511.29 497.68 511.39 497.72 511.46 497.81 511.62 497.88 511.75 497.9 511.77 497.94 511.85 497.96 511.89 497.98 511.91 498.11 512.04 498.2 512.13 498.29 512.21 498.33 512.24 498.35 512.26 498.38 512.29 498.45 512.35 498.62 512.51 498.67 512.56 498.7 512.59 498.72 512.62 498.74 512.64 498.85 512.79 498.92 512.91 498.94 512.94 498.95 512.96 498.97 513 498.98 513.03 498.98 513.08 498.98 513.12 498.99 513.14 499 513.17 499.01 513.19 499.05 513.25 499.09 513.3 499.09 513.32 499.12 513.36 499.13 513.39 499.17 513.45 499.18 513.49 499.19 513.51 499.2 513.54 499.23 513.62 499.25 513.68 499.26 513.71 499.28 513.76 499.2 513.79 499.05 513.86 498.83 513.95 498.69 514 498.63 514.03 498.61 514.03 498.6 514.04 498.56 514.05 498.54 514.05 498.52 514.06 498.47 514.06 498.45 514.06 498.43 514.07 498.4 514.07 498.36 514.07 498.35 514.07 498.33 514.08 498.32 514.09 498.3 514.1 498.28 514.11 498.26 514.14 498.22 514.18 498.21 514.19 498.26 514.22 498.34 514.28 498.37 514.3 498.39 514.32 498.41 514.37 498.44 514.4 498.45 514.42 498.47 514.43 498.49 514.45 498.52 514.49 498.55 514.53 498.58 514.57 498.62 514.61 498.66 514.65 498.7 514.68 498.74 514.71 498.75 514.72 498.83 514.79 498.87 514.83 498.9 514.85 498.91 514.85 498.93 514.86 498.95 514.88 499.01 514.9 499.07 514.94 499.11 514.97 499.17 515.01 499.23 515.06 499.3 515.1 499.34 515.13 499.37 515.18 499.41 515.21 499.47 515.26 499.51 515.3 499.55 515.32 499.57 515.33 499.58 515.34 499.6 515.36 499.64 515.4 499.68 515.44 499.73 515.47 499.78 515.51 499.85 515.57 499.89 515.62 499.94 515.68 499.98 515.73 500.02 515.77 500.06 515.78 500.11 515.82 500.14 515.86 500.15 515.88 500.15 515.89 500.14 515.95 500.14 515.97 500.14 515.99 500.15 516 500.17 516.01 500.2 516 500.23 516.01 500.27 516.04 500.31 516.05 500.32 516.08 500.33 516.13 500.35 516.18 500.35 516.2 500.37 516.23 500.41 516.26 500.49 516.36 500.56 516.44 500.62 516.52 500.66 516.57 500.69 516.62 500.72 516.67 500.74 516.72 500.75 516.77 500.75 516.81 500.79 516.84 500.84 516.88 500.88 516.92 500.9 516.94 500.92 516.97 500.94 517 500.94 517.02 500.95 517.04 500.95 517.05 500.93 517.07 500.91 517.08 500.9 517.09 500.91 517.13 500.91 517.16 500.91 517.19 500.91 517.2 500.91 517.21 500.89 517.23 500.88 517.25 500.88 517.28 500.88 517.33 500.88 517.36 500.88 517.38 500.87 517.4 500.85 517.42 500.83 517.44 500.82 517.46 500.82 517.49 500.8 517.5 500.77 517.52 500.75 517.53 500.72 517.55 500.7 517.55 500.67 517.56 500.54 517.71 500.51 517.73 500.47 517.77 500.41 517.84 500.39 517.87 500.36 517.9 500.36 517.94 500.37 518 500.37 518.02 500.37 518.04 500.37 518.07 500.37 518.09 500.35 518.13 500.34 518.17 500.33 518.19 500.33 518.19 500.32 518.21 500.32 518.25 500.32 518.29 500.31 518.3 500.31 518.31 500.29 518.34 500.27 518.36 500.27 518.38 500.28 518.4 500.27 518.45 500.27 518.47 500.26 518.57 500.25 518.64 500.24 518.7 500.23 518.75 500.22 518.81 500.21 518.86 500.21 518.88 500.22 518.92 500.22 518.94 500.22 518.96 500.21 518.97 500.2 518.98 500.19 518.99 500.19 519 500.2 519.02 500.19 519.04 500.18 519.06 500.16 519.07 500.15 519.08 500.14 519.1 500.12 519.14 500.11 519.16 500.11 519.19 500.11 519.27 500.12 519.37 500.13 519.42 500.14 519.46 500.16 519.5 500.2 519.55 500.23 519.6 500.23 519.64 500.22 519.69 500.21 519.74 500.21 519.79 500.21 519.83 500.21 519.87 500.23 519.9 500.26 519.95 500.27 519.98 500.27 520 500.26 520.03 500.26 520.04 500.25 520.07 500.23 520.1 500.22 520.15 500.21 520.19 500.19 520.28 500.18 520.32 500.17 520.33 500.17 520.34 500.15 520.41 500.14 520.51 500.12 520.59 500.11 520.68 500.1 520.73 500.08 520.79 500.07 520.82 500.06 520.87 500.06 520.9 500.06 520.93 500.04 520.98 500.04 521 500.03 521.03 500.01 521.06 500 521.08 500 521.1 500.03 521.15 500.05 521.18 500.05 521.2 500.05 521.22 500.05 521.24 500.01 521.25 499.96 521.26 499.89 521.28 499.82 521.29 499.75 521.31 499.72 521.32 499.7 521.33 499.64 521.35 499.59 521.36 499.56 521.38 499.54 521.41 499.54 521.44 499.53 521.45 499.53 521.55 499.52 521.66 499.52 521.76 499.52 521.85 499.52 521.92 499.52 521.93 499.51 521.97 499.51 522 499.52 522.03 499.54 522.08 499.6 522.19 499.64 522.25 499.67 522.32 499.7 522.36 499.72 522.39 499.73 522.44 499.75 522.47 499.75 522.51 499.73 522.52 499.69 522.55 499.65 522.59 499.61 522.62 499.57 522.66 499.52 522.71 499.44 522.79 499.41 522.81 499.38 522.82 499.36 522.82 499.34 522.82 499.27 522.85 499.18 522.89 499.16 522.9 499.1 522.94 499.02 522.98 498.94 523.02 498.86 523.07 498.79 523.11 498.74 523.14 498.67 523.19 498.65 523.21 498.61 523.23 498.59 523.25 498.59 523.27 498.59 523.29 498.58 523.32 498.55 523.41 498.52 523.46 498.51 523.48 498.51 523.53 498.53 523.67 498.54 523.74 498.54 523.77 498.53 523.8 498.43 523.9 498.41 523.93 498.31 524 498.2 524.07 498.16 524.08 498.15 524.09 498.13 524.08 498.12 524.08 498.08 524.06 498.06 524.04 497.95 523.93 497.94 523.93 497.72 523.79 497.63 523.74 497.51 523.67 497.5 523.67 497.42 523.61 497.36 523.58 497.35 523.57 497.25 523.51 497.16 523.46 497.15 523.45 497.05 523.41 497.04 523.41 496.98 523.38 496.92 523.35 496.88 523.33 496.88 523.33 496.84 523.3 496.77 523.27 496.55 523.18 496.54 523.18 496.37 523.12 496.28 523.09 496.26 523.09 496.18 523.08 496.15 523.07 495.96 523.01 495.89 522.99 495.8 522.98 495.76 522.97 495.73 522.96 495.58 522.96 495.53 522.96 495.51 522.97 495.45 522.99 495.41 523 495.23 523.05 495.12 523.09 495.08 523.11 495 523.14 494.99 523.15 494.9 523.19 494.87 523.21 494.85 523.22 494.79 523.27 494.74 523.31 494.61 523.43 494.6 523.44 494.56 523.48 494.53 523.52 494.49 523.56 494.46 523.61 494.43 523.68 494.41 523.71 494.39 523.79 494.38 523.83 494.37 523.86 494.31 523.98 494.29 524.01 494.28 524.07 494.27 524.1 494.23 524.2 494.22 524.25 494.03 524.15 493.39 523.83 493.12 523.69 492.58 523.45 492.39 523.38 492.26 523.33 492.23 523.31 492.18 523.29 492.16 523.28 491.99 523.12 491.63 522.77 491.62 522.76 491.6 522.76 491.5 522.75 491.2 522.72 491.1 522.71 491.09 522.71 490.93 522.69 490.51 522.66 490.44 522.65 490.36 522.65 490.2 522.63 489.85 522.6 489.62 522.58 489.56 522.58 489.53 522.57 489.51 522.57 489.48 522.55 489.44 522.53 489.42 522.51 489.24 522.35 489.13 522.24 489.05 522.18 488.83 522.02 488.59 521.84 488.49 521.76 488.4 521.61 488.32 521.49 488.3 521.46 488.26 521.42 488.1 521.3 487.97 521.2 487.88 521.13 487.8 521.09 487.77 521.07 486.82 520.64 486.81 520.79 486.77 521.09 486.71 521.66 486.71 521.67 486.71 521.68 486.71 521.7 486.69 521.84 486.67 522.04 486.64 522.34 486.62 522.48 486.61 522.59 486.59 522.78 486.56 522.82 486.5 522.89 486.31 523.07 486.12 523.24 485.97 523.36 485.97 523.38 485.98 523.43 486 523.48 486 523.5 486 523.51 485.98 523.52 485.94 523.51 485.84 523.48 485.77 523.47 485.71 523.47 485.67 523.47 485.62 523.48 485.6 523.49 485.57 523.5 485.53 523.5 485.43 523.49 485.37 523.47 485.21 523.43 485.12 523.4 485.06 523.37 484.97 523.32 484.9 523.28 484.75 523.17 484.66 523.09 484.64 523.06 484.63 523.05 484.61 523.02 484.58 522.98 484.55 522.92 484.54 522.89 484.53 522.83 484.53 522.77 484.52 522.76 484.52 522.74 484.47 522.66 484.47 522.65 484.46 522.64 484.4 522.52 484.09 521.95 484.08 521.94 484.06 521.89 484.05 521.88 484.04 521.86 483.95 521.7 483.88 521.55 483.76 521.34 483.71 521.25 483.67 521.16 483.45 520.75 483.25 520.38 483.04 520 482.94 519.82 482.8 519.55 482.77 519.51 482.65 519.5 482.51 519.49 482.39 519.47 481.97 519.43 481.86 519.42 481.59 519.39 481.03 519.33 480.9 519.31 480.72 519.29 480.65 519.28 480.58 519.27 480.55 519.27 480.52 519.28 480.51 519.29 480.46 519.33 480.39 519.38 480.37 519.39 480.23 519.49 480.15 519.55 480.09 519.61 480.06 519.65 480.01 519.74 479.99 519.77 479.94 519.83 479.92 519.85 479.91 519.88 479.87 519.95 479.86 519.98 479.85 520 479.81 520.04 479.77 520.08 479.74 520.1 479.69 520.13 479.66 520.15 479.62 520.15 479.38 520.17 479.29 520.19 479.23 520.21 479.13 520.23 479 520.23 478.86 520.25 478.81 520.27 478.75 520.29 478.7 520.31 478.64 520.32 478.59 520.31 478.56 520.3 478.49 520.26 478.46 520.25 478.38 520.24 478.12 520.24 477.65 520.24 477.58 520.25 477.51 520.26 477.48 520.25 477.43 520.23 477.4 520.22 477.38 520.21 477.34 520.21 477.3 520.22 477.2 520.24 477.06 520.26 476.97 520.25 476.87 520.24 476.77 520.21 476.71 520.19 476.66 520.16 476.56 520.1 476.48 520.04 476.37 520 476.29 519.97 476.25 519.94 476.18 519.87 476.14 519.83 476.12 519.81 476.11 519.79 476.1 519.77 476.09 519.75 476.08 519.7 476.08 519.68 476.02 519.61 475.93 519.49 475.86 519.41 475.8 519.31 475.78 519.28 475.76 519.23 475.75 519.2 475.74 519.1 475.72 519.02 475.67 518.88 475.6 518.74 475.59 518.72 475.57 518.71 475.53 518.69 475.48 518.65 475.46 518.63 475.45 518.61 475.42 518.52 475.4 518.47 475.33 518.32 475.2 518.38 474.85 518.44 474.56 518.49 474.24 518.45 473.93 518.37 473.71 518.26 473.35 518.29 472.36 518.22 472.18 518.18 471.97 518.06 471.73 517.86 471.45 517.6 471.22 517.35 471.03 517.02 470.91 516.75 470.86 516.59 470.87 516.34 470.92 515.99 470.99 515.6 471.01 515.39 471.07 515.18 471.16 514.9 471.25 514.54 471.29 514.31 471.33 513.95 471.34 513.73 471.32 513.58 471.26 513.49 471.16 513.44 471.1 513.39 471.13 513.23 471.15 513.1 471.16 513.07 471.18 513.01 471.23 512.89 471.24 512.86 471.27 512.8 471.29 512.76 471.32 512.71 471.35 512.66 471.4 512.57 471.42 512.49 471.47 512.3 471.49 512.15 471.49 512.09 471.5 511.99 471.5 511.95 471.49 511.88 471.49 511.84 471.48 511.77 471.46 511.72 471.47 511.68 471.48 511.65 471.49 511.6 471.52 511.51 471.56 511.4 471.59 511.31 471.62 511.21 471.66 511.07 471.7 510.92 471.73 510.98 471.77 511.02 471.78 511.04 471.83 511.1 471.86 511.13 471.87 511.15 471.98 511.27 472.05 511.32 472.08 511.34 472.11 511.37 472.18 511.45 472.24 511.51 472.26 511.53 472.27 511.53 472.31 511.54 472.38 511.56 472.46 511.57 472.48 511.58 472.55 511.58 472.57 511.58 472.68 511.58 472.89 511.55 472.97 511.56 473.03 511.57 473.25 511.63 473.41 511.66 473.5 511.68 473.73 511.72 473.78 511.73 473.86 511.75 473.94 511.76 473.98 511.77 473.99 511.77 474.03 511.78 474.18 511.81 474.27 511.83 474.29 511.83 474.36 511.83 474.43 511.84 474.54 511.85 474.78 511.86 474.79 511.86 474.8 511.86 475.03 511.87 475.07 511.88 475.12 511.9 475.15 511.91 475.18 511.92 475.32 511.96 475.33 511.96 475.39 511.97 475.43 511.98 475.61 512.12 475.63 512.14 475.68 512.16 475.7 512.17 475.83 512.22 475.92 512.28 475.96 512.3 475.99 512.33 476.03 512.36 476.06 512.38 476.06 512.39 476.07 512.43 476.07 512.45 476.09 512.48 476.1 512.5 476.11 512.53 476.12 512.58 476.14 512.6 476.19 512.71 476.22 512.76 476.28 512.84 476.4 512.96 476.47 513.03 476.49 513.06 476.49 513.08 476.48 513.12 476.47 513.14 476.41 513.31 476.37 513.41 476.36 513.43 476.34 513.51 476.27 513.69 476.25 513.73 476.27 513.77 476.31 513.84 476.31 513.85 476.35 513.83 476.43 513.79 476.68 513.68 476.77 513.64 476.89 513.57 477 513.5 477.07 513.45 477.12 513.42 477.26 513.4 477.68 513.3 477.82 513.27 478.01 513.24 478.09 513.21 478.26 513.17 478.7 513.14 478.99 513.11 479.2 513.09 479.31 513.08 479.37 513.07 479.39 513.07 479.48 513.06 479.48 513.04 479.44 512.92 479.28 512.38 479.27 512.36 479.25 512.32 479.24 512.26 479.22 512.17 479.09 511.76 479.06 511.66 478.94 511.39 478.95 511.37 479 511.17 479.02 511.12 479.02 511.1 479.02 511.09 479.05 511.01 479.13 510.73 479.21 510.48 479.24 510.36 479.26 510.29 479.33 510.08 479.45 509.67 479.46 509.62 479.47 509.59 479.47 509.57 479.48 509.56 479.48 509.55 479.48 509.54 479.49 509.5 479.5 509.47 479.51 509.45 479.55 509.31 479.64 508.96 479.64 508.95 479.72 508.62 479.73 508.57 479.74 508.56 479.74 508.54 479.9 508.06 480.18 507.19 480.22 507.06 480.25 506.93 480.26 506.89 480.3 506.76 480.31 506.7 480.33 506.64 480.36 506.56 480.37 506.52 480.46 506.23 480.52 506.01 480.53 505.97 480.63 505.63 480.68 505.51 480.71 505.37 480.76 505.17 480.79 505.03 480.96 504.43 481.08 504.01 481.37 502.95 481.38 502.93 481.39 502.95 481.41 502.97 481.45 503.04 481.51 503.1 481.63 503.21 481.72 503.31 481.77 503.36 481.89 503.47 482.02 503.6 482.09 503.68 482.14 503.74 482.21 503.84 482.31 503.98 482.35 504.04 482.4 504.14 482.42 504.2 482.44 504.29 482.46 504.43 482.47 504.49 482.51 504.53 482.61 504.43 482.64 504.41 482.69 504.38 482.73 504.35 482.78 504.34 483.01 504.31 483.12 504.29 483.25 504.26 483.38 504.2 483.46 504.18 483.48 504.17 483.53 504.12 483.59 504.07 483.77 503.94 483.86 503.87 483.88 503.86 483.99 503.73 484.06 503.65 484.07 503.64 484.16 503.58 484.23 503.53 484.4 503.4 484.44 503.35 484.46 503.32 484.53 503.21 484.61 503.09 484.68 502.99 484.71 502.97 484.79 502.92 484.88 502.86 484.95 502.81 Z"/>
</g></svg>