<svg xmlns="http://www.w3.org/2000/svg" version="1.2" baseProfile="tiny" stroke-linecap="round" stroke-linejoin="round" viewBox="332.97 362.97 8.68 7.88"><g xmlns="http://www.w3.org/2000/svg" id="Mirafuentes">
<path d="M 336.14 363.56 336.16 363.59 336.2 363.63 336.2 363.63 336.29 363.71 336.35 363.76 336.43 363.83 336.49 363.89 336.52 363.91 336.53 363.92 336.57 363.92 336.6 363.91 336.67 363.91 336.74 363.91 336.77 363.9 336.8 363.88 336.84 363.85 336.87 363.85 336.93 363.83 336.94 363.83 337 363.82 337.02 363.82 337.05 363.81 337.12 363.79 337.2 363.76 337.28 363.75 337.3 363.74 337.34 363.73 337.41 363.72 337.44 363.71 337.46 363.69 337.54 363.66 337.61 363.63 337.66 363.61 337.73 363.59 337.8 363.57 337.82 363.57 337.91 363.56 337.97 363.55 338.02 363.55 338.07 363.55 338.1 363.54 338.11 363.5 338.11 363.49 338.17 363.49 338.22 363.49 338.23 363.49 338.25 363.38 338.26 363.29 338.27 363.26 338.28 363.19 338.29 363.09 338.29 363.08 338.31 362.97 338.43 363.02 338.51 363.06 338.63 363.1 338.71 363.13 338.76 363.15 338.82 363.18 338.93 363.26 338.99 363.31 339.01 363.32 339.05 363.26 339.11 363.19 339.13 363.16 339.14 363.14 339.19 363.23 339.23 363.28 339.28 363.33 339.3 363.34 339.32 363.36 339.34 363.39 339.38 363.42 339.4 363.44 339.42 363.47 339.44 363.5 339.46 363.54 339.5 363.61 339.52 363.63 339.55 363.66 339.58 363.69 339.63 363.73 339.68 363.76 339.72 363.8 339.78 363.84 339.84 363.85 339.92 363.86 339.99 363.87 340.04 363.87 340.11 363.89 340.19 363.9 340.25 363.91 340.32 363.92 340.39 363.92 340.47 363.91 340.52 363.91 340.54 363.92 340.57 363.93 340.6 363.95 340.63 363.97 340.66 363.98 340.66 363.98 340.67 363.94 340.68 363.92 340.69 363.9 340.71 363.85 340.74 363.84 340.77 363.82 340.8 363.77 340.83 363.73 340.86 363.74 340.87 363.75 340.9 363.75 340.91 363.75 340.95 363.75 341 363.75 341.07 363.76 341.1 363.77 341.16 363.78 341.22 363.8 341.23 363.78 341.27 363.71 341.3 363.66 341.32 363.64 341.33 363.65 341.36 363.67 341.45 363.73 341.58 363.79 341.61 363.81 341.64 363.82 341.64 363.84 341.63 363.91 341.61 363.91 341.57 363.92 341.52 363.94 341.46 363.96 341.4 363.98 341.29 364.01 341.23 364.02 341.21 364.02 341.1 364.03 341.04 364.04 340.97 364.04 340.91 364.05 340.86 364.07 340.83 364.07 340.82 364.08 340.8 364.09 340.75 364.11 340.71 364.14 340.67 364.16 340.6 364.21 340.56 364.23 340.55 364.25 340.43 364.22 340.37 364.2 340.35 364.19 340.34 364.19 340.3 364.18 340.23 364.18 340.17 364.18 340.06 364.17 339.97 364.16 339.84 364.15 339.76 364.15 339.74 364.15 339.74 364.18 339.76 364.24 339.78 364.32 339.81 364.46 339.86 364.66 339.87 364.68 339.87 364.69 339.87 364.7 339.89 364.76 339.91 364.83 339.93 364.94 339.93 364.96 339.94 365.05 339.95 365.16 339.96 365.25 339.98 365.37 339.98 365.39 339.99 365.41 340.04 365.5 340.09 365.57 340.13 365.63 340.17 365.7 340.17 365.72 340.17 365.73 340.16 365.83 340.16 365.91 340.15 365.97 340.15 365.99 340.14 366.05 340.12 366.08 340.1 366.09 340.05 366.12 339.98 366.15 339.93 366.16 339.84 366.17 339.75 366.19 339.74 366.19 339.69 366.21 339.6 366.24 339.51 366.27 339.51 366.29 339.5 366.34 339.5 366.37 339.49 366.42 339.5 366.47 339.51 366.54 339.53 366.65 339.54 366.68 339.48 366.7 339.43 366.72 339.39 366.74 339.37 366.77 339.36 366.8 339.32 366.82 339.27 366.82 339.23 366.83 339.2 366.83 339.12 366.84 339.11 366.86 339.1 366.89 339.08 366.97 339.05 367.08 339.05 367.1 339.19 367.17 339.27 367.2 339.26 367.23 339.25 367.23 339.19 367.23 339.17 367.23 339.13 367.23 339.07 367.21 339.03 367.2 338.96 367.18 338.9 367.15 338.89 367.14 338.84 367.1 338.78 367.05 338.75 367.04 338.72 367.03 338.68 367.06 338.68 367.06 338.66 367.07 338.58 367.12 338.53 367.15 338.45 367.19 338.44 367.22 338.42 367.31 338.41 367.41 338.4 367.45 338.38 367.53 338.31 367.57 338.24 367.62 338.23 367.63 338.13 367.68 338.07 367.72 337.96 367.79 337.92 367.82 337.92 367.85 337.91 367.97 337.91 368.06 337.9 368.17 337.9 368.2 337.9 368.22 337.89 368.26 337.89 368.36 337.89 368.43 337.89 368.48 337.9 368.49 337.91 368.55 337.93 368.65 337.95 368.73 337.97 368.76 338.02 368.8 338.08 368.87 338.15 368.93 338.19 368.98 338.22 369.01 338.23 369.01 338.29 369.06 338.35 369.1 338.4 369.15 338.43 369.16 338.48 369.2 338.53 369.23 338.57 369.27 338.59 369.28 338.64 369.33 338.67 369.37 338.71 369.42 338.74 369.45 338.75 369.48 338.77 369.51 338.82 369.59 338.84 369.65 338.85 369.66 338.87 369.73 338.89 369.78 338.92 369.86 338.94 369.92 338.95 369.97 338.96 370 338.97 370.07 338.97 370.11 338.97 370.13 338.97 370.17 338.98 370.24 338.98 370.31 338.97 370.37 338.97 370.4 338.96 370.44 338.96 370.45 338.95 370.5 338.93 370.57 338.93 370.59 338.92 370.6 338.92 370.62 338.91 370.66 338.9 370.68 338.87 370.74 338.86 370.78 338.84 370.83 338.76 370.77 338.69 370.72 338.61 370.67 338.58 370.65 338.52 370.61 338.46 370.57 338.4 370.53 338.38 370.52 338.34 370.5 338.28 370.49 338.22 370.48 338.21 370.48 338.14 370.48 338.08 370.49 338.04 370.5 337.98 370.53 337.86 370.5 337.82 370.38 337.81 370.34 337.79 370.27 337.77 370.21 337.76 370.19 337.75 370.14 337.75 370.08 337.75 370.06 337.75 370 337.75 369.94 337.76 369.91 337.76 369.9 337.77 369.85 337.78 369.81 337.79 369.72 337.8 369.68 337.83 369.62 337.85 369.59 337.88 369.53 337.93 369.47 337.96 369.43 338 369.39 338.02 369.37 338.05 369.32 338 369.3 337.93 369.27 337.92 369.26 337.83 369.22 337.75 369.17 337.67 369.14 337.58 369.11 337.56 369.09 337.5 369.08 337.43 369.08 337.38 369.08 337.33 369.07 337.26 369.07 337.17 369.06 337.07 369.04 337.06 369.06 336.99 369.04 336.98 369.03 336.89 368.99 336.83 368.96 336.78 368.94 336.76 368.93 336.71 368.91 336.63 368.88 336.56 368.87 336.51 368.86 336.41 368.86 336.32 368.85 336.31 368.85 336.13 368.85 336.06 368.85 336.03 368.85 335.91 368.85 335.86 368.85 335.78 368.85 335.74 368.85 335.68 368.85 335.59 368.85 335.54 368.85 335.44 368.86 335.33 368.86 335.29 368.86 335.27 368.95 335.25 369.01 335.25 369.04 335.24 369.07 335.24 369.09 335.23 369.16 335.22 369.19 335.22 369.2 335.22 369.32 335.24 369.4 335.26 369.47 335.26 369.49 335.28 369.54 335.31 369.62 335.31 369.63 335.32 369.66 335.34 369.71 335.39 369.9 335.4 369.95 335.4 369.96 335.41 369.98 335.44 370.09 335.45 370.14 335.48 370.26 335.39 370.26 335.3 370.25 335.18 370.23 335.11 370.22 335.06 370.21 335.04 370.21 334.96 370.21 334.92 370.21 334.86 370.21 334.79 370.2 334.77 370.2 334.75 370.2 334.72 370.19 334.63 370.18 334.61 370.18 334.46 370.16 334.44 370.16 334.36 370.14 334.2 370.12 334.18 370.12 334.09 370.1 334.06 370.1 334.04 370.09 333.96 370.08 333.89 370.06 333.82 370.05 333.79 370.05 333.77 370.03 333.76 370.01 333.74 369.99 333.7 369.93 333.7 369.92 333.66 369.85 333.63 369.81 333.62 369.8 333.6 369.77 333.56 369.71 333.51 369.63 333.5 369.62 333.47 369.54 333.44 369.47 333.43 369.43 333.42 369.4 333.4 369.33 333.38 369.27 333.36 369.21 333.33 369.11 333.32 369.1 333.32 369.09 333.29 369.01 333.27 368.93 333.26 368.88 333.23 368.8 333.21 368.74 333.2 368.7 333.19 368.66 333.17 368.61 333.14 368.53 333.09 368.44 333.05 368.36 333.05 368.34 333.03 368.27 333.01 368.22 333 368.17 332.99 368.11 332.98 368.09 332.99 367.99 333 367.9 333.01 367.82 333.01 367.8 333.04 367.67 333.06 367.57 333.08 367.52 333.09 367.45 333.13 367.27 333.14 367.24 333.16 367.14 333.19 367 333.21 366.93 333.21 366.9 333.23 366.79 333.26 366.67 333.28 366.6 333.28 366.57 333.28 366.48 333.28 366.44 333.3 366.41 333.3 366.39 333.32 366.33 333.33 366.32 333.34 366.29 333.38 366.18 333.43 366.04 333.48 365.93 333.53 365.79 333.54 365.76 333.54 365.75 333.59 365.69 333.64 365.62 333.7 365.55 333.7 365.54 333.73 365.47 333.74 365.45 333.75 365.43 333.78 365.35 333.84 365.21 333.88 365.14 333.91 365.07 333.95 364.98 333.96 364.96 333.99 364.98 334.01 364.98 334.11 365.02 334.18 365.05 334.22 365.07 334.29 365.1 334.3 365.08 334.3 365.05 334.31 364.98 334.32 364.91 334.33 364.86 334.33 364.83 334.34 364.77 334.36 364.68 334.37 364.59 334.39 364.47 334.4 364.42 334.41 364.37 334.42 364.35 334.42 364.34 334.46 364.27 334.5 364.21 334.54 364.16 334.55 364.15 334.56 364.11 334.56 364.08 334.52 364.02 334.47 363.96 334.4 363.88 334.35 363.8 334.34 363.79 334.32 363.76 334.3 363.72 334.31 363.71 334.35 363.66 334.42 363.6 334.5 363.53 334.54 363.49 334.57 363.47 334.58 363.46 334.64 363.41 334.66 363.38 334.8 363.25 334.83 363.23 334.87 363.25 334.95 363.28 335 363.32 335.16 363.46 335.23 363.52 335.3 363.57 335.36 363.62 335.4 363.65 335.43 363.66 335.52 363.7 335.62 363.74 335.68 363.76 335.74 363.78 335.76 363.79 335.79 363.81 335.81 363.82 335.83 363.81 335.88 363.76 335.92 363.72 336.01 363.63 336.06 363.59 336.09 363.57 336.14 363.56 Z"/>
</g></svg>