<svg xmlns="http://www.w3.org/2000/svg" version="1.2" baseProfile="tiny" stroke-linecap="round" stroke-linejoin="round" viewBox="659.85 83.05 25.12 23.2"><g xmlns="http://www.w3.org/2000/svg" id="Mithiriña">
<path d="M 662.58 83.87 662.57 83.89 662.56 83.9 662.56 83.91 662.56 83.93 662.56 83.94 662.57 83.97 662.58 84 662.59 84.02 662.59 84.04 662.58 84.08 662.58 84.11 662.58 84.15 662.59 84.18 662.6 84.24 662.61 84.3 662.61 84.34 662.61 84.37 662.61 84.41 662.6 84.45 662.59 84.48 662.58 84.53 662.56 84.55 662.56 84.58 662.56 84.6 662.59 84.66 662.61 84.69 662.63 84.73 662.64 84.76 662.64 84.79 662.64 84.82 662.63 84.85 662.61 84.89 662.59 84.92 662.56 84.93 662.52 84.96 662.5 84.98 662.47 85.02 662.45 85.07 662.49 85.06 662.52 85.04 662.56 85.03 662.61 85.03 662.67 85.02 662.72 85.02 662.76 85.01 662.78 85 662.81 84.99 662.84 84.98 662.89 84.98 662.92 84.97 662.94 84.97 662.97 84.95 662.99 84.94 663.02 84.93 663.05 84.92 663.09 84.92 663.13 84.92 663.19 84.93 663.24 84.94 663.28 84.94 663.32 84.94 663.36 84.94 663.38 84.96 663.41 84.97 663.43 84.98 663.45 84.98 663.47 84.98 663.51 84.97 663.56 84.96 663.61 84.96 663.65 84.97 663.7 84.97 663.73 84.96 663.77 84.94 663.82 84.92 663.86 84.9 663.89 84.89 663.91 84.88 663.94 84.88 663.97 84.87 664.01 84.87 664.05 84.86 664.09 84.87 664.13 84.87 664.19 84.88 664.24 84.88 664.27 84.89 664.29 84.9 664.32 84.91 664.36 84.94 664.38 84.95 664.41 84.96 664.48 85.01 664.52 85.03 664.57 85.07 664.62 85.11 664.67 85.15 664.7 85.19 664.74 85.22 664.77 85.26 664.82 85.3 664.86 85.33 664.91 85.36 664.94 85.39 664.95 85.4 664.97 85.41 664.98 85.42 664.99 85.42 665.02 85.45 665.05 85.47 665.17 85.56 665.23 85.59 665.27 85.62 665.3 85.65 665.33 85.68 665.36 85.71 665.39 85.73 665.42 85.74 665.44 85.74 665.5 85.76 665.53 85.78 665.57 85.8 665.6 85.81 665.63 85.82 665.65 85.84 665.66 85.84 665.68 85.84 665.72 85.83 665.74 85.82 665.77 85.81 665.79 85.81 665.8 85.81 665.82 85.79 665.84 85.78 665.85 85.78 665.86 85.77 665.87 85.75 665.88 85.73 665.89 85.73 665.91 85.71 665.93 85.69 665.96 85.63 666.51 84.95 666.53 84.96 666.55 84.96 666.62 84.98 666.67 84.98 666.76 84.98 666.85 84.98 666.94 84.98 667.06 84.99 667.09 85 667.45 84.77 667.86 84.75 668.64 84.91 668.8 84.93 669.28 84.9 669.86 85.38 669.89 85.4 669.93 85.42 669.98 85.45 670.21 85.55 670.28 85.52 670.49 85.21 670.62 85.27 671.01 85.53 671.37 85.7 671.66 85.36 671.72 85.36 671.8 85.76 671.82 85.79 671.89 85.89 672.25 85.8 672.84 85.59 672.83 85.46 672.97 85.4 673.04 85.4 673.22 85.74 674.01 85.44 674.19 85.29 674.34 85.1 674.45 84.71 674.61 84.45 674.75 84.25 674.79 84.2 675.43 84.36 675.61 84.41 675.62 84.39 675.63 84.37 675.65 84.35 675.67 84.32 675.69 84.3 675.72 84.28 675.86 84.18 675.89 84.17 675.92 84.16 676.07 84.17 676.11 84.18 676.14 84.18 676.2 84.2 676.23 84.21 676.26 84.22 676.28 84.22 676.31 84.23 676.35 84.24 676.4 84.24 676.43 84.24 676.46 84.23 676.5 84.23 676.53 84.24 676.55 84.24 676.6 84.25 676.62 84.26 676.64 84.27 676.66 84.27 676.68 84.28 676.71 84.3 676.75 84.33 676.77 84.34 676.82 84.37 676.84 84.38 676.87 84.41 676.9 84.42 676.93 84.44 676.96 84.45 676.98 84.47 677 84.48 677.03 84.48 677.07 84.49 677.09 84.5 677.14 84.51 677.18 84.52 677.21 84.54 677.24 84.56 677.28 84.58 677.31 84.6 677.35 84.63 677.37 84.65 677.39 84.67 677.43 84.69 677.47 84.72 677.51 84.73 677.54 84.74 677.57 84.75 677.6 84.76 677.66 84.77 677.7 84.77 677.71 84.77 677.73 84.76 677.73 84.76 677.82 84.97 677.86 85.03 677.88 85.09 677.89 85.11 677.91 85.14 677.93 85.2 677.95 85.25 677.96 85.27 677.97 85.3 677.98 85.33 677.99 85.36 678 85.39 678.02 85.43 678.04 85.46 678.05 85.49 678.07 85.52 678.11 85.55 678.14 85.58 678.17 85.6 678.19 85.61 678.23 85.63 678.28 85.64 678.3 85.65 678.33 85.67 678.35 85.68 678.36 85.7 678.4 85.75 678.41 85.77 678.47 85.91 678.48 85.93 678.55 85.96 678.65 86 678.72 86.03 678.93 86.1 679 86.13 679.02 86.14 679.06 86.15 679.21 86.18 679.29 86.19 679.35 86.2 679.39 86.21 679.43 86.21 679.47 86.22 679.53 86.22 679.65 86.22 679.69 86.22 679.76 86.22 679.81 86.22 679.88 86.22 679.99 86.22 680.02 86.22 680.04 86.23 680.07 86.25 680.11 86.27 680.17 86.3 680.21 86.31 680.29 86.32 680.4 86.34 680.45 86.36 680.48 86.37 680.53 86.38 680.56 86.39 680.58 86.39 680.62 86.48 680.73 86.47 680.78 86.46 680.79 86.45 680.8 86.44 680.8 86.44 680.99 86.43 681.26 86.54 681.56 86.8 681.76 87.01 681.96 87.07 682.06 87.21 682.13 87.22 682.38 87.13 682.75 87.3 683.56 87.63 683.93 87.98 683.93 88 683.95 88.02 683.99 88.05 684.67 88.71 684.69 88.77 684.7 88.82 684.71 88.85 684.74 88.91 684.77 88.97 684.79 89.01 684.82 89.05 684.86 89.1 684.9 89.16 684.91 89.23 684.93 89.28 684.95 89.36 684.96 89.46 684.95 89.53 684.93 89.6 684.92 89.66 684.88 89.71 684.82 89.77 684.78 89.83 684.74 89.92 684.62 90.12 684.53 90.26 684.44 90.38 684.35 90.46 684.27 90.52 684.17 90.57 684.07 90.59 684.01 90.6 683.94 90.6 683.87 90.58 683.82 90.56 683.79 90.53 683.76 90.5 683.75 90.5 683.71 90.46 683.67 90.42 683.61 90.33 683.59 90.28 683.57 90.23 683.55 90.18 683.53 90.12 683.49 90.06 683.45 90.01 683.4 89.94 683.35 89.88 683.3 89.83 683.25 89.76 683.2 89.72 683.15 89.68 683.09 89.65 683.02 89.62 682.89 89.6 682.83 89.59 682.73 89.58 682.65 89.58 682.63 89.57 682.5 89.55 682.4 89.53 682.33 89.52 682.26 89.54 682.21 89.56 682.16 89.6 682.12 89.67 682.08 89.73 682.03 89.84 681.99 89.94 681.97 90.03 681.94 90.13 681.94 90.15 681.93 90.16 681.86 90.28 681.81 90.39 681.74 90.48 681.7 90.54 681.64 90.6 681.63 90.62 681.61 90.68 681.58 90.76 681.57 90.82 681.58 90.92 681.6 91 681.62 91.16 681.65 91.28 681.65 91.31 681.68 91.42 681.7 91.5 681.71 91.59 681.7 91.65 681.68 91.73 681.64 91.87 681.62 91.97 681.58 92.06 681.54 92.13 681.48 92.19 681.37 92.27 681.29 92.31 681.24 92.33 681.18 92.39 681.11 92.47 681.04 92.55 680.95 92.65 680.89 92.7 680.79 92.75 680.68 92.81 680.59 92.85 680.41 92.95 680.67 93.47 681.07 94.12 681.61 94.27 681.48 94.5 680.9 95.04 681.09 95.22 681.01 95.26 680.91 95.34 680.81 95.38 680.7 95.27 680.55 95.38 680.45 95.47 680.4 95.54 680.35 95.6 680.32 95.66 680.3 95.7 680.27 95.69 680.21 95.7 680.16 95.71 680.12 95.71 680.08 95.71 680.02 95.69 679.99 95.69 679.93 95.71 679.76 95.76 679.67 95.8 679.61 95.8 679.44 96.05 679.38 96.18 678.7 96.11 678.49 96.23 678.14 96.29 678.02 96.35 677.96 96.55 677.7 96.61 677.69 96.65 677.68 96.71 677.66 96.77 677.65 96.79 677.65 96.81 677.65 96.82 677.66 96.84 677.63 97.33 677.56 97.61 677.35 97.76 677.03 97.93 677 97.98 676.94 98.14 676.93 98.21 676.92 98.27 676.91 98.33 676.93 98.37 676.97 98.44 677 98.52 677.01 98.59 677.01 98.66 677 98.72 676.98 98.77 676.98 98.82 676.98 98.85 676.98 98.88 677.02 98.97 677.06 99.06 677.13 99.18 677.15 99.23 677.15 99.27 677.15 99.31 677.14 99.34 677.12 99.41 677.13 99.44 677.13 99.44 676.71 99.53 676.33 99.24 676.23 99.17 675.52 99.52 675.46 99.53 675.4 99.55 675.33 99.58 675.23 99.6 675.11 99.57 675.04 99.55 674.8 99.64 674.47 99.94 674.47 99.99 674.48 100.02 674.48 100.06 674.44 100.08 674.4 100.12 674.41 100.65 674.24 101.22 674.09 101.74 674.05 101.93 674.13 102 674.2 102.06 674.23 102.11 674.26 102.2 674.3 102.41 674.33 102.53 674.37 102.66 674.38 102.71 674.38 102.77 674.37 102.8 674.34 102.86 674.27 102.92 674.26 102.93 674.24 102.98 674.23 103.02 674.22 103.05 674.21 103.08 674.2 103.1 674.19 103.13 674.16 103.16 674.14 103.19 674.13 103.22 674.11 103.26 674.1 103.29 674.08 103.33 674.07 103.36 674.06 103.4 674.06 103.43 674.06 103.46 674.08 103.49 674.09 103.52 674.11 103.55 674.14 103.58 674.16 103.62 674.17 103.65 674.18 103.68 674.18 103.71 674.19 103.74 674.03 103.72 674.09 103.87 674.08 103.88 674.06 103.89 674.03 103.92 674 103.94 673.97 103.98 673.95 104.01 673.93 104.04 673.92 104.07 673.91 104.11 673.88 104.13 673.85 104.16 673.82 104.18 673.79 104.2 673.77 104.22 673.74 104.24 673.71 104.28 673.68 104.31 673.65 104.35 673.63 104.38 673.6 104.42 673.56 104.46 673.54 104.49 673.52 104.52 673.5 104.55 673.47 104.59 673.46 104.62 673.42 104.74 673.41 104.77 673.39 104.8 673.37 104.83 673.32 104.86 673.29 104.89 673.26 104.91 673.22 104.93 673.19 104.96 673.16 104.98 673.13 105.02 673.11 105.06 673.09 105.09 673.08 105.14 673.08 105.17 673.08 105.21 673.09 105.24 673.1 105.28 673.12 105.31 673.13 105.35 673.13 105.38 673.15 105.44 673.17 105.49 673.18 105.53 673.19 105.57 673.2 105.61 673.21 105.65 673.23 105.69 673.25 105.73 673.26 105.76 673.26 105.79 673.26 105.82 673.25 105.86 673.03 105.95 672.89 106.22 672.88 106.21 672.85 106.2 672.77 106.17 672.68 106.16 672.63 106.15 672.6 106.15 672.57 106.16 672.54 106.17 672.49 106.2 672.45 106.22 672.43 106.23 672.41 106.22 672.39 106.21 672.37 106.19 672.34 106.15 672.31 106.11 672.28 106.08 672.24 106.05 672.2 106.02 672.16 106.01 672.11 105.99 672.04 105.98 672.05 105.96 672.04 105.92 672.04 105.87 672.04 105.79 672.05 105.76 672.06 105.72 672.1 105.65 672.13 105.59 672.14 105.55 672.15 105.5 672.15 105.45 672.14 105.4 672.12 105.36 672.11 105.31 672.1 105.27 672.09 105.25 672.1 105.23 672.1 105.21 672.13 105.16 672.16 105.09 671.88 104.82 671.62 104.74 671.62 104.73 671.62 104.71 671.61 104.7 671.6 104.68 671.57 104.69 671.53 104.69 671.48 104.7 671.46 104.72 671.45 104.75 671.44 104.79 671.44 104.83 671.44 104.87 671.44 104.89 671.44 104.9 671.43 104.91 671.41 104.9 671.4 104.89 671.34 104.81 671.3 104.73 671.27 104.69 671.27 104.66 671.26 104.63 671.26 104.59 671.27 104.56 671.3 104.5 671.33 104.47 671.35 104.46 671.22 104.22 671.12 104.2 671.02 104.18 670.89 104.15 670.75 104.09 670.69 104.06 670.65 104.04 670.61 104.02 670.59 103.99 670.57 103.94 670.56 103.9 670.54 103.86 670.52 103.83 670.5 103.8 670.48 103.78 670.45 103.77 670.37 103.72 670.3 103.67 670.27 103.64 670.26 103.63 670.24 103.62 670.24 103.61 670.24 103.59 670.24 103.55 670.24 103.51 670.24 103.47 670.24 103.44 670.24 103.4 670.23 103.37 670.22 103.35 670.2 103.34 670.18 103.34 670.13 103.36 670.11 103.38 670.08 103.4 670.06 103.41 670.05 103.42 670 103.38 669.97 103.35 669.91 103.3 669.85 103.25 669.8 103.2 669.76 103.15 669.72 103.12 669.65 103.09 669.6 103.07 669.52 103.04 669.45 103.01 669.4 102.97 669.35 102.93 669.3 102.89 669.25 102.86 669.23 102.83 669.22 102.79 669.22 102.75 669.23 102.72 669.21 102.69 669.19 102.66 669.15 102.63 669.15 102.6 669.18 102.56 669.19 102.52 669.17 102.48 669.15 102.45 669.11 102.42 669.08 102.4 669.03 102.39 668.99 102.39 668.94 102.35 668.88 102.31 668.84 102.27 668.82 102.21 668.8 102.14 668.77 102.07 668.75 102.01 668.73 101.96 668.71 101.93 668.68 101.89 668.66 101.82 668.62 101.76 668.6 101.72 668.6 101.7 668.6 101.67 668.6 101.64 668.62 101.61 668.65 101.59 668.67 101.57 668.68 101.56 668.67 101.55 668.63 101.53 668.57 101.52 668.51 101.5 668.49 101.48 668.48 101.44 668.47 101.41 668.45 101.38 668.44 101.35 668.43 101.32 668.42 101.29 668.39 101.28 668.35 101.24 668.33 101.22 668.3 101.19 668.3 101.17 668.3 101.15 668.32 101.13 668.32 101.12 668.32 101.1 668.31 101.08 668.28 101.07 668.25 101.08 668.22 101.09 668.2 101.1 668.16 101.09 668.14 101.07 668.12 101.03 668.09 101.01 668.05 100.99 668.01 100.98 667.96 100.97 667.92 100.97 668.09 100.84 668.05 100.83 667.99 100.81 667.92 100.78 667.85 100.76 667.77 100.75 667.72 100.75 667.68 100.76 667.66 100.78 667.64 100.79 667.57 100.75 667.52 100.72 667.47 100.69 667.42 100.64 667.37 100.6 667.33 100.56 667.27 100.53 667.2 100.5 667.14 100.48 667.09 100.45 667.04 100.41 666.99 100.38 666.95 100.34 666.93 100.33 666.89 100.31 666.84 100.29 666.79 100.26 666.75 100.24 666.72 100.2 666.69 100.15 666.65 100.12 666.61 100.07 666.53 100.04 666.47 100.01 666.42 99.99 666.36 99.98 666.26 99.96 666.21 99.92 666.15 99.87 666.09 99.83 666.07 99.82 666.02 99.79 665.96 99.74 665.91 99.71 665.87 99.69 665.83 99.65 665.77 99.6 665.7 99.56 665.65 99.52 665.6 99.48 665.54 99.41 665.52 99.39 665.5 99.36 665.45 99.27 665.4 99.21 665.33 99.13 665.27 99.07 665.15 98.96 665.1 98.92 665.05 98.86 665.03 98.85 665 98.82 664.96 98.79 664.93 98.76 664.89 98.68 664.86 98.65 664.84 98.62 664.77 98.53 664.72 98.5 664.66 98.46 664.62 98.43 664.57 98.4 664.52 98.38 664.46 98.34 664.41 98.31 664.35 98.26 664.32 98.23 664.27 98.19 664.22 98.15 664.2 98.12 664.16 98.09 664.12 98.06 664.08 98.04 664.05 98.03 664.05 98.02 664.03 98.01 664.01 97.98 663.99 97.92 663.97 97.85 663.96 97.79 663.94 97.74 663.93 97.69 663.91 97.65 663.9 97.6 663.88 97.56 663.85 97.5 663.82 97.45 663.79 97.4 663.77 97.36 663.74 97.28 663.71 97.23 663.68 97.18 663.65 97.16 663.62 97.13 663.59 97.11 663.57 97.09 663.55 97.07 663.52 97.02 663.51 96.97 663.5 96.95 663.49 96.9 663.47 96.87 663.43 96.84 663.4 96.82 663.33 96.74 663.3 96.72 663.28 96.69 663.26 96.65 663.23 96.62 663.19 96.59 663.15 96.56 663.12 96.53 663.08 96.51 663.04 96.47 663 96.44 662.96 96.41 662.92 96.37 662.89 96.34 662.82 96.28 662.79 96.31 662.75 96.32 662.7 96.34 662.66 96.35 662.62 96.35 662.58 96.34 662.53 96.33 662.48 96.32 662.43 96.31 662.37 96.29 662.33 96.28 662.26 96.26 662.21 96.25 662.15 96.24 662.11 96.24 662.08 96.24 662.05 96.25 662.01 96.27 661.98 96.29 661.94 96.3 661.9 96.31 661.87 96.31 661.83 96.31 661.79 96.32 661.75 96.33 661.69 96.34 661.65 96.34 661.6 96.34 661.56 96.34 661.51 96.34 661.46 96.34 661.4 96.34 661.35 96.34 661.32 96.34 661.26 96.34 661.2 96.34 661.14 96.34 661.09 96.34 661.04 96.34 660.99 96.33 660.95 96.33 660.91 96.32 660.88 96.31 660.85 96.31 660.81 96.3 660.79 96.3 660.76 96.29 660.75 96.29 660.7 96.28 660.64 96.33 660.63 96.31 660.63 96.29 660.62 96.28 660.62 96.27 660.61 96.26 660.6 96.26 660.6 96.24 660.6 96.23 660.6 96.22 660.59 96.21 660.58 96.2 660.56 96.19 660.51 96.18 660.47 96.17 660.31 96.19 660.37 95.91 660.48 95.79 660.57 95.73 660.81 95.46 660.86 95.23 660.91 95.12 660.94 95.06 660.96 95.02 660.97 94.99 660.98 94.96 661 94.92 661.01 94.89 661.02 94.85 661.02 94.81 661.03 94.76 661.03 94.69 661.03 94.64 661.04 94.57 661.05 94.52 661.06 94.46 661.07 94.4 661.07 94.36 661.08 94.3 661.08 94.25 661.09 94.2 661.1 94.12 661.11 94.08 661.11 94 661.08 93.91 661.08 93.89 661.07 93.85 661.06 93.82 661.05 93.78 661.04 93.74 661.04 93.71 661.04 93.68 661.05 93.62 661.06 93.58 661.06 93.53 661.06 93.49 661.06 93.45 661.05 93.41 661.04 93.35 661.04 93.3 661.02 93.24 661.01 93.2 661.01 93.15 661.01 93.1 661.02 93.05 661.03 93.01 661.06 92.93 661.09 92.85 661.12 92.77 661.15 92.72 661.18 92.66 661.22 92.61 661.25 92.57 661.27 92.53 661.29 92.5 661.31 92.44 661.31 92.41 661.31 92.37 661.32 92.34 661.33 92.3 661.35 92.26 661.38 92.22 661.42 92.14 661.45 92.09 661.49 92.03 661.52 91.99 661.56 91.95 661.59 91.93 661.62 91.91 661.64 91.88 661.67 91.84 661.68 91.82 661.71 91.78 661.74 91.75 661.76 91.71 661.8 91.67 661.82 91.64 661.85 91.6 661.88 91.55 661.91 91.52 661.94 91.46 661.97 91.41 662 91.35 662.03 91.29 662.06 91.25 662.1 91.18 662.14 91.12 662.15 91.08 662.15 91.06 662.16 91 662.19 90.97 662.22 90.93 662.21 90.91 662.19 90.84 662.17 90.78 662.13 90.7 662.11 90.65 662.09 90.6 662.08 90.56 662.07 90.52 662.06 90.48 662.04 90.44 662.03 90.39 662.02 90.35 662.02 90.32 662 90.3 661.97 90.28 661.95 90.25 661.94 90.21 661.94 90.17 661.94 90.12 661.93 90.08 661.92 90.05 661.9 90.01 661.89 89.96 661.87 89.92 661.85 89.87 661.84 89.83 661.83 89.82 661.81 89.8 661.81 89.76 661.81 89.74 661.82 89.72 661.83 89.69 661.82 89.65 661.8 89.61 661.79 89.57 661.79 89.53 661.78 89.5 661.77 89.45 661.77 89.41 661.76 89.37 661.75 89.33 661.72 89.25 661.69 89.22 661.69 89.2 661.71 89.18 661.73 89.16 661.73 89.14 661.72 89.11 661.71 89.07 661.7 89.04 661.69 89.01 661.68 88.97 661.68 88.93 661.68 88.84 661.71 88.74 661.71 88.69 661.72 88.65 661.75 88.61 661.76 88.58 661.79 88.55 661.8 88.52 661.81 88.49 661.75 88.45 661.71 88.44 661.67 88.43 661.63 88.41 661.59 88.39 661.56 88.37 661.52 88.34 661.5 88.32 661.5 88.29 661.49 88.26 661.47 88.23 661.44 88.22 661.41 88.19 661.39 88.18 661.34 88.15 661.29 88.12 661.26 88.1 661.22 88.06 661.2 88.04 661.18 88 661.16 87.99 661.14 87.96 661.13 87.94 661.12 87.89 661.12 87.82 661.11 87.78 661.11 87.75 661.11 87.72 661.11 87.69 661.12 87.67 661.12 87.66 661.13 87.63 661.13 87.61 661.14 87.59 661.15 87.57 661.15 87.55 661.15 87.53 661.14 87.52 661.11 87.5 661.09 87.5 661.05 87.5 661.04 87.49 661.03 87.49 661.01 87.49 661 87.5 660.99 87.49 660.96 87.47 660.95 87.45 660.94 87.42 660.93 87.4 660.92 87.38 660.9 87.36 660.88 87.35 660.86 87.34 660.81 87.3 660.78 87.29 660.75 87.29 660.72 87.28 660.64 87.27 660.59 87.25 660.57 87.24 660.54 87.2 660.51 87.16 660.46 87.11 660.44 87.08 660.39 87.02 660.3 86.95 660.18 86.88 660.14 86.86 660.09 86.84 660.03 86.81 660 86.8 659.98 86.79 659.94 86.77 659.91 86.75 659.88 86.75 659.89 86.68 659.9 86.66 659.91 86.65 659.94 86.62 659.96 86.59 659.97 86.57 659.99 86.53 660.03 86.49 660.06 86.46 660.07 86.45 660.1 86.43 660.11 86.41 660.11 86.3 660.11 86.27 660.11 86.26 660.1 86.24 660.1 86.23 660.1 86.22 660.1 86.21 660.1 86.18 660.09 86.17 660.09 86.13 660.08 86.09 660.07 85.98 660.06 85.91 660.07 85.89 660.09 85.86 660.1 85.85 660.1 85.83 660.1 85.82 660.1 85.8 660.11 85.75 660.14 85.71 660.16 85.7 660.17 85.68 660.19 85.65 660.2 85.6 660.21 85.58 660.23 85.53 660.26 85.51 660.29 85.46 660.32 85.38 660.34 85.34 660.33 85.27 660.33 85.23 660.33 85.19 660.33 85.15 660.34 85.12 660.34 85.05 660.34 85 660.35 84.97 660.36 84.94 660.37 84.91 660.37 84.89 660.37 84.87 660.36 84.83 660.36 84.81 660.35 84.74 660.35 84.67 660.34 84.61 660.33 84.57 660.33 84.54 660.33 84.5 660.34 84.45 660.35 84.42 660.36 84.38 660.36 84.33 660.37 84.3 660.37 84.26 660.38 84.22 660.37 84.19 660.37 84.18 660.37 84.15 660.37 84.13 660.37 84.11 660.38 84.1 660.39 84.06 660.41 84.04 660.41 84.01 660.41 83.99 660.41 83.96 660.41 83.9 660.42 83.88 660.43 83.86 660.43 83.84 660.44 83.82 660.43 83.79 660.44 83.74 660.44 83.7 660.45 83.65 660.46 83.6 660.47 83.55 660.48 83.49 660.5 83.45 660.5 83.41 660.49 83.38 660.48 83.32 660.49 83.3 660.51 83.29 660.53 83.26 660.55 83.24 660.59 83.22 660.63 83.2 660.66 83.19 660.69 83.17 660.71 83.16 660.76 83.1 660.77 83.08 660.78 83.05 660.89 83.07 660.91 83.08 660.93 83.09 660.95 83.1 660.97 83.12 660.99 83.13 661.01 83.15 661.03 83.15 661.04 83.16 661.06 83.17 661.07 83.18 661.08 83.2 661.09 83.21 661.11 83.22 661.12 83.22 661.13 83.23 661.15 83.25 661.17 83.27 661.19 83.29 661.2 83.31 661.22 83.32 661.24 83.34 661.26 83.35 661.28 83.36 661.29 83.36 661.32 83.37 661.36 83.39 661.38 83.42 661.39 83.42 661.39 83.43 661.43 83.43 661.46 83.44 661.5 83.44 661.55 83.44 661.58 83.44 661.62 83.45 661.65 83.45 661.68 83.44 661.69 83.44 661.71 83.44 661.74 83.43 661.78 83.43 661.83 83.43 661.88 83.44 661.94 83.43 661.98 83.43 662.08 83.42 662.14 83.42 662.17 83.42 662.18 83.42 662.35 83.33 662.31 83.71 662.58 83.87 Z"/>
</g></svg>