<svg xmlns="http://www.w3.org/2000/svg" version="1.2" baseProfile="tiny" stroke-linecap="round" stroke-linejoin="round" viewBox="737.55 97.08 25.27 20.77"><g xmlns="http://www.w3.org/2000/svg" id="Mitikile-larrori-Mendibile">
<path d="M 748.45 97.1 748.49 97.13 748.82 98.15 748.91 98.54 748.99 98.92 749.07 99.31 749.14 99.54 749.25 100.09 749.29 100.21 749.34 100.4 749.42 100.56 749.62 100.95 749.6 101 749.56 101.05 749.53 101.06 749.47 101.04 749.43 101.05 749.36 101.12 749.27 101.26 749.2 101.31 749.22 101.47 749.25 101.59 749.31 101.73 749.39 101.86 749.41 102.01 749.41 102.12 749.4 102.24 749.36 102.44 749.12 102.48 749.22 102.7 749.29 102.69 749.36 102.68 749.45 102.67 749.52 102.65 749.54 102.74 749.56 102.89 749.59 102.97 749.8 102.92 750.02 102.95 750.36 103.1 750.53 103.2 750.56 103.21 750.67 103.26 750.69 103.28 750.72 103.3 750.76 103.3 750.8 103.29 750.83 103.3 750.93 103.35 751 103.37 751.33 103.45 751.44 103.48 751.48 103.64 751.73 104.19 751.98 104.53 752.25 104.7 752.26 104.75 752.27 104.79 752.28 104.83 752.31 104.93 752.32 104.95 752.34 104.98 752.35 104.99 752.42 105.06 752.47 105.1 752.55 105.15 752.69 105.24 752.75 105.28 752.78 105.26 752.83 105.23 752.86 105.22 752.91 105.22 753.05 105.23 753.16 105.24 753.2 105.24 753.22 105.23 753.24 105.22 753.28 105.25 753.3 105.26 753.36 105.28 753.49 105.32 753.6 105.35 753.68 105.38 753.72 105.39 753.76 105.4 753.85 105.41 754.11 105.42 754.36 105.43 754.58 105.44 754.76 105.44 754.79 105.44 754.81 105.44 754.86 105.42 755.07 105.32 755.24 105.25 755.28 105.23 755.33 105.22 755.51 105.19 755.58 105.17 755.74 105.14 755.78 105.13 755.97 105.09 756.02 105.08 756.07 105.08 756.13 105.09 756.23 105.11 756.28 105.14 756.42 105.21 756.68 105.36 756.8 105.42 756.83 105.42 756.86 105.43 757.56 105.86 757.6 105.9 757.78 106.02 757.8 106.04 757.95 106.15 758.02 106.21 758.09 106.28 758.11 106.31 758.13 106.33 758.18 106.4 758.19 106.42 758.2 106.47 758.24 106.59 758.26 106.63 758.28 106.66 758.38 106.76 758.53 106.92 758.69 107.08 758.73 107.1 758.78 107.14 759.01 107.25 759.1 107.3 759.18 107.33 759.27 107.36 759.31 107.38 759.47 107.42 759.57 107.44 759.73 107.47 760.02 107.53 760.26 107.58 760.51 107.63 760.69 107.66 760.86 107.68 761.03 107.7 761.06 107.71 761.18 107.72 761.35 107.74 761.37 107.74 761.43 107.75 761.5 107.77 761.59 107.79 761.76 107.84 761.92 107.89 762.04 107.93 762.12 107.96 762.16 107.98 762.23 108.03 762.39 108.14 762.42 108.17 762.48 108.21 762.57 108.28 762.61 108.29 762.72 108.33 762.81 108.35 762.74 108.58 762.73 108.59 762.68 108.66 762.63 108.71 762.58 108.74 762.54 108.76 762.48 108.79 762.45 108.8 762.4 108.81 762.36 108.82 762.33 108.83 762.29 108.84 762.26 108.86 762.24 108.89 762.21 108.91 762.2 108.93 762.16 108.95 762.13 108.97 762.07 109.01 762.04 109.06 762.02 109.07 761.99 109.1 761.97 109.13 761.94 109.16 761.91 109.18 761.89 109.2 761.86 109.23 761.83 109.27 761.8 109.32 761.78 109.36 761.76 109.41 761.73 109.45 761.71 109.49 761.68 109.52 761.65 109.56 761.63 109.6 761.61 109.65 761.59 109.72 761.58 109.77 761.52 109.86 761.5 109.9 761.47 109.94 761.45 109.98 761.43 110.02 761.42 110.05 761.4 110.09 761.39 110.12 761.37 110.15 761.33 110.19 761.32 110.21 761.3 110.25 761.28 110.28 761.27 110.32 761.27 110.29 761.25 110.25 761.24 110.18 761.22 110.17 761.19 110.15 761.17 110.15 761.13 110.14 761.1 110.11 761.06 110.08 761.02 110.05 760.98 110.02 760.94 110.01 760.91 110 760.87 109.99 760.84 109.97 760.81 109.94 760.78 109.9 760.74 109.89 760.7 109.86 760.66 109.84 760.63 109.82 760.6 109.79 760.57 109.77 760.54 109.74 760.51 109.72 760.48 109.7 760.45 109.69 760.4 109.66 760.33 109.64 760.27 109.63 760.23 109.63 760.2 109.63 760.16 109.63 760.1 109.64 760.07 109.65 760.02 109.66 759.99 109.66 759.91 109.67 759.87 109.66 759.83 109.66 759.79 109.65 759.75 109.65 759.73 109.65 759.67 109.65 759.62 109.66 759.58 109.66 759.53 109.67 759.51 109.68 759.48 109.69 759.45 109.7 759.43 109.72 759.39 109.76 759.36 109.79 759.34 109.8 759.31 109.84 759.3 109.87 759.28 109.91 759.26 109.95 759.25 109.96 759.23 109.99 759.21 110.01 759.17 110.02 759.08 110.04 759.03 110.05 758.99 110.05 758.92 110.07 758.86 110.09 758.82 110.1 758.79 110.11 758.74 110.13 758.7 110.14 758.66 110.16 758.59 110.17 758.52 110.18 758.47 110.19 758.37 110.2 758.33 110.2 758.3 110.21 758.28 110.22 758.27 110.22 758.25 110.24 758.23 110.26 758.19 110.33 758.15 110.44 758.14 110.46 758.13 110.48 758.12 110.5 758.11 110.52 758.09 110.55 758.07 110.58 758.06 110.61 758.05 110.63 758.03 110.65 758.02 110.67 757.99 110.67 757.97 110.68 757.93 110.67 757.9 110.67 757.87 110.67 757.83 110.66 757.79 110.66 757.76 110.66 757.73 110.67 757.69 110.68 757.66 110.69 757.65 110.7 757.62 110.7 757.61 110.71 757.58 110.71 757.55 110.71 757.53 110.7 757.52 110.69 757.5 110.68 757.49 110.67 757.47 110.64 757.46 110.64 757.43 110.62 757.4 110.61 757.38 110.59 757.34 110.56 757.32 110.54 757.29 110.53 757.27 110.53 757.23 110.54 757.22 110.54 757.2 110.55 757.19 110.56 757.16 110.57 757.14 110.58 757.11 110.61 757.1 110.62 757.09 110.63 757.07 110.64 757.06 110.65 757.04 110.67 757.01 110.68 757 110.69 756.98 110.7 756.95 110.71 756.93 110.71 756.9 110.71 756.87 110.69 756.85 110.68 756.83 110.68 756.81 110.67 756.79 110.67 756.75 110.66 756.72 110.64 756.71 110.64 756.69 110.64 756.66 110.64 756.65 110.65 756.64 110.66 756.62 110.67 756.6 110.67 756.58 110.67 756.56 110.67 756.52 110.67 756.5 110.67 756.47 110.68 756.44 110.67 756.37 110.65 756.35 110.64 756.33 110.63 756.32 110.63 756.3 110.62 756.28 110.61 756.27 110.59 756.23 110.49 756.21 110.44 756.2 110.42 756.19 110.41 756.18 110.4 756.17 110.39 756.15 110.38 756.12 110.37 756.11 110.36 756.06 110.36 755.97 110.37 755.91 110.39 755.84 110.4 755.83 110.4 755.8 110.4 755.77 110.39 755.75 110.37 755.73 110.32 755.72 110.31 755.71 110.29 755.7 110.28 755.68 110.27 755.65 110.26 755.63 110.25 755.62 110.23 755.61 110.2 755.61 110.18 755.6 110.16 755.6 110.14 755.59 110.13 755.56 110.11 755.55 110.09 755.53 110.08 755.49 110.06 755.45 110.06 755.42 110.05 755.39 110.04 755.37 110.03 755.35 109.99 755.34 109.96 755.33 109.93 755.33 109.9 755.32 109.86 755.32 109.83 755.31 109.82 755.3 109.8 755.28 109.78 755.26 109.77 755.24 109.77 755.22 109.77 755.2 109.79 755.18 109.8 755.17 109.81 755.13 109.83 755.1 109.84 755.05 109.85 755.03 109.86 755 109.86 754.98 109.86 754.96 109.87 754.93 109.88 754.89 109.88 754.86 109.89 754.83 109.89 754.78 109.89 754.75 109.89 754.71 109.89 754.68 109.89 754.65 109.88 754.62 109.87 754.58 109.85 754.57 109.84 754.56 109.82 754.53 109.81 754.51 109.8 754.49 109.8 754.47 109.8 754.46 109.81 754.44 109.83 754.42 109.86 754.4 109.89 754.39 109.91 754.38 109.94 754.37 109.98 754.36 109.99 754.33 110 754.31 110 754.3 110.01 754.28 110.01 754.26 110.02 754.25 110.04 754.23 110.06 754.21 110.07 754.18 110.08 754.14 110.09 754.12 110.08 754.08 110.08 754.04 110.07 754 110.05 753.97 110.05 753.93 110.03 753.89 110.02 753.85 110.02 753.75 110.02 753.73 110.02 753.71 110.02 753.69 110.03 753.67 110.02 753.65 110.02 753.61 110.02 753.59 110.02 753.56 110.04 753.52 110.06 753.49 110.08 753.47 110.1 753.46 110.12 753.44 110.18 753.44 110.19 753.45 110.21 753.45 110.22 753.46 110.24 753.47 110.28 753.47 110.29 753.46 110.32 753.45 110.37 753.46 110.42 753.45 110.44 753.44 110.47 753.41 110.49 753.38 110.51 753.35 110.52 753.33 110.52 753.28 110.51 753.27 110.51 753.24 110.52 753.22 110.54 753.19 110.56 753.17 110.57 753.16 110.57 753.15 110.58 753.14 110.61 753.14 110.64 753.15 110.64 753.19 110.66 753.2 110.66 753.21 110.68 753.23 110.7 753.24 110.72 753.25 110.75 753.25 110.76 753.24 110.8 753.22 110.81 753.2 110.82 753.14 110.81 753.12 110.81 753.08 110.81 753.06 110.83 753.03 110.85 753 110.88 752.97 110.9 752.96 110.93 752.95 110.94 752.93 110.97 752.91 111.01 752.9 111.04 752.89 111.06 752.88 111.08 752.87 111.1 752.86 111.11 752.83 111.14 752.82 111.15 752.79 111.16 752.75 111.16 752.72 111.16 752.7 111.16 752.68 111.15 752.67 111.14 752.64 111.15 752.63 111.17 752.62 111.21 752.62 111.23 752.62 111.24 752.63 111.26 752.63 111.27 752.64 111.29 752.65 111.3 752.66 111.31 752.7 111.32 752.73 111.32 752.76 111.33 752.81 111.34 752.82 111.35 752.83 111.36 752.85 111.39 752.85 111.41 752.85 111.45 752.85 111.49 752.84 111.52 752.84 111.56 752.84 111.6 752.84 111.62 752.85 111.68 752.84 111.71 752.84 111.75 752.83 111.77 752.81 111.79 752.78 111.8 752.63 111.87 752.62 111.88 752.5 111.96 752.38 112.07 752.26 112.18 752.12 112.28 752.07 112.29 752 112.27 751.9 112.25 751.89 112.23 751.87 112.16 751.8 112.1 751.76 112.1 751.68 112.11 751.59 112.15 751.55 112.16 751.52 112.16 751.51 112.21 751.5 112.26 751.5 112.29 751.49 112.31 751.46 112.32 751.37 112.33 751.33 112.35 751.28 112.4 751.23 112.46 751.19 112.47 751.14 112.46 751.11 112.45 751.09 112.46 751.09 112.5 751.09 112.56 751.08 112.6 751.04 112.64 750.99 112.67 750.95 112.69 750.93 112.69 750.9 112.68 750.86 112.69 750.83 112.72 750.81 112.72 750.79 112.71 750.77 112.7 750.74 112.7 750.71 112.7 750.69 112.69 750.69 112.68 750.69 112.65 750.67 112.65 750.65 112.66 750.59 112.66 750.55 112.67 750.51 112.68 750.51 112.7 750.5 112.71 750.46 112.74 750.44 112.76 750.42 112.76 750.39 112.76 750.36 112.78 750.35 112.79 750.33 112.8 750.29 112.79 750.26 112.78 750.25 112.8 750.23 112.82 750.21 112.81 750.2 112.79 750.2 112.78 750.2 112.75 750.2 112.74 750.18 112.74 750.16 112.75 750.07 112.82 749.96 112.88 749.9 112.94 749.87 113 749.84 113.04 749.74 113.06 749.64 113.08 749.49 113.15 749.39 113.24 749.29 113.35 749.21 113.42 749.15 113.45 749.1 113.48 748.99 113.55 748.97 113.59 748.87 113.67 748.73 113.78 748.63 113.85 748.55 113.86 748.47 113.87 748.42 113.89 748.36 113.95 748.26 113.99 748.22 114.01 748.06 114 747.94 113.99 747.91 113.99 747.86 114.02 747.82 114.04 747.73 114.04 747.66 114.07 747.58 114.09 747.53 114.13 747.47 114.19 747.38 114.34 747.33 114.42 747.3 114.53 747.26 114.63 747.22 114.79 747.2 114.91 747.17 114.96 747.13 115.05 747.1 115.16 747.07 115.25 746.99 115.35 746.95 115.42 746.92 115.49 746.93 115.62 746.91 115.75 746.89 115.86 746.82 116 746.77 116.07 746.74 116.14 746.74 116.21 746.75 116.3 746.74 116.43 746.71 116.55 746.67 116.64 746.64 116.76 746.65 117.34 746.25 117.46 746.03 117.56 745.92 117.58 745.91 117.57 745.86 117.38 745.66 117.34 745.27 117.34 745.1 117.42 745 117.8 744.94 117.82 744.9 117.81 744.05 117.67 743.9 117.61 743.71 117.64 743.69 117.67 743.67 117.69 743.66 117.71 743.65 117.72 743.64 117.73 743.63 117.73 743.62 117.73 743.61 117.72 743.54 117.66 743.44 117.58 743.39 117.53 743.38 117.51 743.36 117.47 743.33 117.46 743.3 117.45 743.27 117.44 743.24 117.43 743.22 117.42 743.21 117.41 743.2 117.4 743.19 117.4 743.18 117.39 743.17 117.39 743.16 117.39 743.13 117.37 743.1 117.34 743.06 117.31 743.05 117.29 743.04 117.27 743.04 117.26 743.03 117.25 743.02 117.25 743.01 117.24 743 117.23 742.99 117.22 742.99 117.22 742.98 117.22 742.98 117.21 742.97 117.2 742.97 117.2 742.97 117.18 742.96 117.17 742.95 117.16 742.93 117.15 742.91 117.14 742.89 117.13 742.87 117.12 742.86 117.12 742.85 117.11 742.83 117.09 742.82 117.08 742.8 117.07 742.78 117.07 742.77 117.06 742.74 117.06 742.72 117.05 742.7 117.04 742.69 117.04 742.69 117.03 742.69 117.02 742.69 117 742.69 116.99 742.67 116.98 742.66 116.97 742.62 116.95 742.6 116.93 742.59 116.92 742.59 116.91 742.59 116.9 742.58 116.89 742.58 116.88 742.57 116.86 742.57 116.85 742.57 116.84 742.56 116.82 742.55 116.81 742.54 116.81 742.5 116.79 742.47 116.77 742.45 116.76 742.41 116.76 742.34 116.74 742.32 116.74 742.3 116.75 742.29 116.75 742.28 116.75 742.26 116.74 742.25 116.74 742.2 116.72 742.19 116.7 742.17 116.7 742.15 116.69 742.13 116.68 742.1 116.67 742.07 116.67 742.04 116.66 742.01 116.65 741.99 116.64 741.95 116.62 741.92 116.61 741.88 116.58 741.85 116.55 741.83 116.52 741.82 116.51 741.8 116.49 741.76 116.48 741.87 116.29 742.21 115.76 742.51 115.48 742.54 115.36 742.53 114.99 742.58 114.79 742.83 114.3 742.94 113.96 742.94 113.66 742.95 113.38 742.9 113.35 742.87 113.34 742.82 113.33 742.81 113.32 742.64 113.34 742.43 113.35 742.4 113.35 742.37 113.36 742.35 113.37 742.14 113.43 742.05 113.47 742.02 113.49 742 113.5 741.99 113.51 741.97 113.51 741.96 113.51 741.94 113.51 741.93 113.51 741.91 113.51 741.9 113.51 741.89 113.53 741.86 113.54 741.85 113.54 741.84 113.54 741.83 113.54 741.78 113.55 741.75 113.57 741.73 113.57 741.71 113.56 741.7 113.56 741.69 113.56 741.67 113.55 741.66 113.55 741.63 113.55 741.6 113.54 741.59 113.54 741.57 113.54 741.55 113.53 741.54 113.53 741.53 113.53 741.51 113.53 741.5 113.54 741.49 113.56 741.41 113.68 741.36 113.73 741.34 113.75 741.31 113.77 741.29 113.78 741.26 113.79 741.25 113.79 741.22 113.79 741.17 113.79 741.14 113.78 741.12 113.78 741.09 113.77 741.07 113.75 741.06 113.73 741.05 113.71 741.03 113.7 741 113.71 740.98 113.71 740.93 113.71 740.79 113.67 740.75 113.66 740.69 113.65 740.56 113.63 740.54 113.6 740.51 113.58 740.51 113.57 740.49 113.55 740.48 113.52 740.47 113.51 740.47 113.49 740.47 113.48 740.47 113.45 740.49 113.41 740.49 113.37 740.48 113.35 740.47 113.32 740.45 113.3 740.42 113.27 740.4 113.23 740.38 113.19 740.36 113.14 740.35 113.1 740.35 113.06 740.35 113.03 740.34 113.01 740.35 112.96 740.36 112.93 740.37 112.91 740.38 112.89 740.38 112.87 740.14 112.45 740.17 112.25 740.16 112.25 740.12 112.19 740.1 112.18 740.08 112.17 740.05 112.17 740.02 112.17 739.99 112.17 739.93 112.14 739.83 112.09 739.71 112.06 739.46 112.09 739.39 112.1 739.15 112.2 739.1 111.99 738.88 111.76 738.77 111.5 738.6 111.52 738.55 111.52 738.51 111.51 738.35 111.45 738.2 111.39 737.9 111.23 737.66 111.1 737.57 111.05 737.75 110.6 738.01 110.28 738.08 110.03 738.13 109.48 738.29 109.42 738.46 109.37 738.64 109.19 738.79 108.93 738.8 108.67 738.65 107.94 738.66 107.78 738.92 107.5 739.13 107.43 739.13 107.49 739.14 107.53 739.15 107.57 739.18 107.6 739.28 107.66 739.42 107.71 739.47 107.72 739.69 107.76 739.95 107.79 740.05 107.66 740.11 107.58 740.14 107.56 740.17 107.51 740.18 107.48 740.2 107.41 740.23 107.31 740.26 107.23 740.28 107.17 740.31 107.11 740.35 107.05 740.36 107.01 740.38 106.93 740.42 106.79 740.44 106.75 740.45 106.73 740.47 106.71 740.5 106.68 740.48 106.29 740.45 106.19 740.29 106.04 740.32 105.88 740.32 105.82 740.32 105.78 740.32 105.74 740.31 105.71 740.28 105.7 740.26 105.68 740.24 105.66 740.37 105.64 740.41 105.64 740.46 105.65 740.5 105.65 740.54 105.65 740.57 105.66 740.76 105.71 740.79 105.72 740.82 105.72 740.86 105.72 740.97 105.73 741.11 105.74 741.63 105.82 741.74 105.84 741.87 105.69 741.77 105.38 741.78 105.24 741.89 104.98 741.88 104.77 741.82 104.62 742.05 104.41 742.11 104.28 741.99 104.13 741.99 104.1 742.04 104.07 742.11 103.72 742.38 103.3 742.59 103.02 742.66 102.88 742.67 102.85 742.7 102.74 742.7 102.71 742.7 102.7 742.71 102.68 742.82 102.56 742.97 102.4 743.14 102.22 743.29 102.06 743.4 101.95 743.42 101.94 743.43 101.94 743.44 101.94 743.45 101.94 743.46 101.94 743.48 101.93 743.56 101.89 743.63 101.85 743.71 101.81 743.77 101.79 743.93 101.74 743.96 101.72 744.04 101.69 744.13 101.66 744.17 101.65 744.19 101.64 744.2 101.63 744.23 101.6 744.24 101.59 744.25 101.58 744.28 101.56 744.31 101.56 744.36 101.55 744.41 101.53 744.61 101.43 744.74 101.35 744.86 101.3 744.89 101.28 744.91 101.28 744.93 101.28 744.96 101.3 744.98 101.3 745 101.3 745.02 101.28 745.07 101.19 745.12 101.11 745.22 101 745.27 100.93 745.29 100.9 745.3 100.87 745.33 100.86 745.37 100.84 745.42 100.75 745.52 100.51 745.58 100.37 745.63 100.32 745.68 100.27 745.74 100.23 745.8 100.19 745.84 100.15 745.95 100.09 746.03 100.06 746.05 100.05 746.09 100.04 746.25 100.01 746.56 99.96 746.75 99.93 746.88 99.91 746.95 99.89 746.99 99.87 747.02 99.86 747.04 99.85 747.05 99.83 747.07 99.8 747.1 99.76 747.11 99.73 747.11 99.7 747.11 99.64 747.11 99.54 747.11 99.5 747.11 99.47 747.12 99.45 747.15 99.4 747.17 99.38 747.25 99.28 747.31 99.21 747.35 99.14 747.36 99.12 747.36 99.09 747.35 99.06 747.33 99.03 747.32 99 747.3 98.97 747.28 98.94 747.26 98.92 747.24 98.89 747.24 98.87 747.24 98.85 747.25 98.83 747.25 98.79 747.26 98.76 747.27 98.61 747.27 98.5 747.28 98.4 747.28 98.27 747.29 98.22 747.3 98.2 747.35 98.13 747.44 98 747.48 97.97 747.49 97.94 747.5 97.92 747.51 97.89 747.52 97.87 747.54 97.84 747.56 97.83 747.77 97.68 747.8 97.65 747.89 97.56 748.08 97.3 748.32 97.2 748.42 97.1 748.45 97.1 Z"/>
</g></svg>