<svg xmlns="http://www.w3.org/2000/svg" version="1.2" baseProfile="tiny" stroke-linecap="round" stroke-linejoin="round" viewBox="746.75 160.87 15.65 28.03"><g xmlns="http://www.w3.org/2000/svg" id="Montori = Berorize">
<path d="M 754.56 160.9 755.19 161.43 756.4 162.44 756.88 162.83 756.9 162.83 756.93 162.84 757.07 162.92 757.33 163.16 757.64 163.36 757.67 163.41 757.7 163.47 757.7 163.52 757.72 163.57 757.74 163.67 757.77 163.74 757.8 163.8 757.83 163.85 757.85 163.87 757.88 163.89 758.06 164.17 759.18 164.5 759.94 164.79 760.78 165.02 761.31 165.21 761.83 165.39 762.37 165.55 762.32 165.64 762.03 165.96 762.08 166.05 762.11 166.13 762.14 166.16 762.16 166.18 762.17 166.21 762.19 166.23 762.2 166.25 762.21 166.28 762.21 166.31 762.21 166.34 762.21 166.38 762.21 166.39 762.21 166.46 762.2 166.53 762.19 166.59 762.18 166.65 762.17 166.7 762.17 166.74 762.16 166.81 762.15 166.83 762.14 166.84 762.14 166.86 762.12 166.88 762.11 166.9 762.1 166.91 762.08 166.95 762.06 167 762.05 167.04 762.05 167.05 762.06 167.06 762.07 167.07 762.1 167.07 762.11 167.07 762.13 167.08 762.15 167.1 762.15 167.12 762.15 167.15 762.28 167.23 762.15 167.52 762.17 167.55 762.18 167.58 762.18 167.6 762.19 167.63 762.19 167.66 762.2 167.68 762.21 167.7 762.22 167.73 762.23 167.75 762.23 167.78 762.23 167.82 762.23 167.89 762.24 167.99 762.25 168.05 762.25 168.08 762.26 168.11 762.28 168.16 762.28 168.17 762.26 168.19 762.19 168.25 762.18 168.26 762.15 168.29 762.09 168.34 762.05 168.37 762.01 168.39 761.96 168.41 761.87 168.42 761.8 168.43 761.74 168.43 761.67 168.45 761.54 168.5 761.4 168.57 761.31 168.62 761.22 168.66 761.13 168.73 761.05 168.82 761.01 168.86 761.17 169.04 760.95 169.23 761.05 169.38 761.22 169.39 761.22 170.32 761.23 171.36 761.19 171.78 761.17 171.8 761.16 171.82 761.16 171.83 761.08 172.07 761.05 172.1 761.03 172.13 760.93 172.36 760.88 172.47 760.83 172.58 760.77 172.71 760.74 172.78 760.71 172.89 760.68 172.98 760.66 173.07 760.65 173.09 760.63 173.12 760.61 173.15 760.62 173.2 760.62 173.22 760.62 173.28 760.61 173.32 760.61 173.36 760.61 173.4 760.61 173.43 760.6 173.45 760.6 173.47 760.58 173.49 760.55 173.54 760.54 173.56 760.54 173.58 760.55 173.65 760.56 173.74 760.57 173.8 760.59 173.86 760.59 173.88 760.58 174.02 760.44 174.38 760.35 174.85 760.37 174.99 760.74 175.23 760.71 175.34 760.61 175.61 760.65 175.69 760.65 175.78 759.98 176.07 759.82 176.22 759.77 176.29 759.51 176.54 759.35 176.62 759.32 176.67 759.35 176.86 759.5 177.07 759.86 177.41 760.42 178.18 760.73 178.57 760.73 178.64 760.45 178.98 760.41 179.05 759.91 179.61 759.68 180.01 759.55 180.26 759.46 180.41 759.36 180.61 759.17 180.85 758.98 180.99 758.76 181.09 758.29 181.47 757.98 181.58 757.9 181.6 757.85 181.73 757.71 182.28 757.57 182.54 757.36 182.82 757.52 183.38 757.55 183.45 757.57 183.5 757.58 183.53 757.59 183.57 757.6 183.59 757.64 183.64 757.69 184.06 757.68 184.8 757.69 184.96 757.79 185.41 758.04 185.99 758.05 186.18 757.97 186.61 758 186.84 758.11 187.1 758.13 187.43 758.03 187.73 757.9 187.94 757.7 188.11 757.36 188.25 756.74 188.49 755.9 188.89 755.44 188.81 755.12 188.71 755.12 188.68 754.85 188.17 754.59 187.67 754.33 187.16 754.06 186.58 753.53 185.58 753.54 185.53 753.57 185.47 753.58 185.44 753.6 185.4 753.62 185.36 753.64 185.33 753.65 185.28 753.65 185.25 753.66 185.19 753.68 185.12 753.54 185.05 753.4 185.06 753.32 185.15 753.26 185.19 753.18 185.07 753.01 184.73 753.23 184.51 753.31 184.17 753.3 184.08 752.88 183.95 752.92 183.72 752.93 183.68 752.94 183.64 752.94 183.61 752.94 183.56 752.95 183.51 752.94 183.45 752.96 183.44 753 183.41 753.03 183.38 753.07 183.36 753.09 183.34 753.11 183.31 753.13 183.27 753.16 183.24 753.17 183.21 753.2 183.16 753.23 183.13 753.26 183.1 753.29 183.07 753.32 183.06 753.35 183.04 753.37 183.02 753.4 182.99 753.41 182.96 753.26 182.84 753.25 182.61 753.24 182.61 753.39 181.96 753.32 181.69 753.21 181.49 753.18 181.51 753.15 181.51 753.12 181.51 753.08 181.51 753.04 181.51 753.01 181.52 752.98 181.53 752.94 181.54 752.9 181.56 752.87 181.58 752.85 181.61 752.83 181.64 752.82 181.67 752.81 181.71 752.8 181.75 752.8 181.78 752.81 181.82 752.81 181.85 752.82 181.88 752.83 181.91 752.84 181.93 752.84 181.96 752.84 182 752.83 182.04 752.83 182.09 752.8 182.24 752.44 181.91 752.45 181.89 752.47 181.84 752.48 181.79 752.51 181.72 752.52 181.66 752.53 181.61 752.54 181.57 752.54 181.51 752.55 181.46 752.56 181.4 752.57 181.35 752.58 181.3 752.58 181.25 752.58 181.2 752.59 181.15 752.59 181.11 752.6 181.07 752.61 181.02 752.63 180.98 752.65 180.93 752.66 180.89 752.68 180.86 752.69 180.83 752.7 180.79 752.71 180.76 752.73 180.73 752.74 180.71 752.71 180.69 752.69 180.66 752.67 180.64 752.66 180.61 752.65 180.58 752.63 180.56 752.6 180.54 752.58 180.53 752.55 180.52 752.51 180.51 752.47 180.51 752.44 180.5 752.4 180.5 752.36 180.5 752.32 180.5 752.29 180.52 752.32 181.13 752.26 181.19 751.85 181.13 751.76 181.1 751.78 180.82 751.67 180.69 751.65 180.71 751.61 180.74 751.57 180.78 751.53 180.81 751.49 180.85 751.46 180.89 751.42 180.92 751.31 181.05 751.3 181.08 751.28 181.1 751.26 181.14 751.23 181.19 751.21 181.23 751.19 181.26 751.18 181.3 751.17 181.34 751.16 181.4 751.16 181.42 750.93 181.37 750.79 181.36 750.69 181.42 750.55 181.51 750.51 181.59 750.4 181.8 750.37 181.78 750.35 181.77 750.3 181.76 750.28 181.75 750.25 181.72 750.23 181.7 750.23 181.68 750.22 181.65 750.23 181.61 750.25 181.52 750.27 181.48 750.27 181.45 750.27 181.41 750.27 181.39 750.28 181.38 750.3 181.35 750.31 181.33 750.32 181.28 750.35 181.2 750.02 181.16 749.95 181.11 749.84 180.85 749.8 180.86 749.76 180.85 749.71 180.82 749.66 180.81 749.62 180.8 749.57 180.79 749.52 180.79 749.48 180.78 749.45 180.77 749.42 180.74 749.4 180.71 749.38 180.69 749.35 180.68 749.31 180.68 749.27 180.66 749.21 180.63 749.13 180.55 749.11 180.5 749.08 180.43 749.06 180.35 749.02 179.95 748.98 179.55 748.94 179.16 749.01 178.57 748.99 178.25 748.96 178.13 748.94 177.92 748.93 177.33 748.87 176.91 748.75 176.65 748.49 175.95 748.41 175.45 748.33 174.96 748.25 174.47 748.24 174.2 748.32 173.63 748.4 173.38 748.75 173.2 748.94 173.03 748.96 173.03 749 173.01 749.06 172.98 749.11 172.95 749.16 172.93 749.21 172.88 749.27 172.84 749.31 172.81 749.34 172.8 749.38 172.79 749.46 172.76 749.48 172.75 749.52 172.73 749.55 172.71 749.57 172.7 749.61 172.7 749.68 172.71 749.72 172.71 749.76 172.71 749.78 172.7 749.8 172.68 749.81 172.66 749.81 172.64 749.82 172.62 749.85 172.59 749.84 172.57 749.83 172.54 749.82 172.52 749.8 172.48 749.8 172.45 749.8 172.4 749.8 172.36 749.79 172.33 749.77 172.29 749.75 172.25 749.74 172.24 749.73 172.18 749.72 172.13 749.73 172.08 749.74 172.02 749.74 171.97 749.74 171.93 749.72 171.89 749.71 171.86 749.7 171.81 749.7 171.77 749.69 171.73 749.67 171.68 749.66 171.63 749.21 172.12 748.98 172.15 748.84 171.76 748.85 171.69 748.87 171.44 748.8 171.28 748.64 171.23 748.62 171.34 748.6 171.44 748.6 171.52 748.59 171.59 748.57 171.67 748.55 171.74 748.52 171.81 748.49 171.88 748.46 171.98 748.45 172.04 748.45 172.09 748.46 172.14 748.5 172.23 748.35 172.44 748.16 172.56 748.04 172.56 747.89 172.43 747.88 172.36 747.88 172.31 747.89 172.25 747.9 172.19 747.92 172.14 747.95 172.07 747.99 171.99 748.04 171.89 748.07 171.83 748.02 171.35 748.07 171.35 748.2 171.48 748.26 171.51 748.15 171.02 748 170.82 747.81 170.54 747.96 170.44 747.97 170.37 747.98 170 747.86 169.99 747.56 169.8 747.51 169.83 747.44 169.86 747.35 169.89 747.31 169.91 747.28 169.92 747.26 169.92 747.21 169.91 747.16 169.89 747.12 169.88 747.09 169.87 747.12 169.72 747.02 169.59 746.75 169.17 746.77 169.08 746.79 169 746.8 168.98 746.93 168.69 746.96 168.59 747.01 168.48 747.2 168.18 747.2 168.17 747.19 168.14 747.19 168.1 747.19 168.08 747.19 168.06 747.22 168.04 747.26 168.02 747.31 168 747.36 167.97 747.44 167.59 747.53 167.17 747.6 167.07 747.65 167.03 747.7 166.98 747.74 166.93 747.77 166.89 747.79 166.84 747.8 166.77 747.81 166.7 747.82 166.66 747.86 166.59 747.89 166.57 747.91 166.55 747.95 166.51 747.97 166.48 748 166.45 748.03 166.43 748.06 166.42 748.08 166.32 748.09 166.3 748.13 166.22 748.14 166.2 748.16 166.18 748.18 166.17 748.2 166.15 748.22 166.14 748.24 166.13 748.28 166.1 748.31 166.05 748.66 165.42 749.01 164.8 749.37 164.17 749.92 163.83 750.47 163.48 751.03 163.13 751.58 162.78 752.38 162.22 753.11 161.82 753.12 161.79 753.17 161.74 753.19 161.73 753.21 161.71 753.24 161.69 753.27 161.68 753.3 161.67 753.93 161.28 754.56 160.9 Z"/>
</g></svg>