<svg xmlns="http://www.w3.org/2000/svg" version="1.2" baseProfile="tiny" stroke-linecap="round" stroke-linejoin="round" viewBox="495.85 614.3 18.75 10.95"><g xmlns="http://www.w3.org/2000/svg" id="Monteagudo">
<path d="M 507.98 614.82 508 614.82 508.02 614.82 508.1 614.8 508.11 614.78 508.11 614.73 508.11 614.71 508.12 614.69 508.13 614.67 508.17 614.61 508.19 614.57 508.2 614.55 508.21 614.52 508.21 614.46 508.21 614.42 508.19 614.39 508.19 614.38 508.21 614.34 508.22 614.33 508.24 614.33 508.26 614.34 508.27 614.36 508.29 614.37 508.32 614.39 508.4 614.41 508.47 614.43 508.59 614.46 508.67 614.47 508.85 614.48 508.93 614.48 508.98 614.48 509.05 614.46 509.09 614.45 509.14 614.45 509.17 614.45 509.19 614.46 509.22 614.47 509.26 614.5 509.31 614.54 509.39 614.61 509.42 614.64 509.47 614.69 509.54 614.76 509.56 614.78 509.65 614.85 509.67 614.87 509.7 614.89 509.73 614.9 509.76 614.91 509.8 614.92 509.87 614.94 509.92 614.96 509.97 614.98 510.02 614.99 510.02 615 510.02 615.01 510.02 615.02 510.02 615.05 510.01 615.07 509.98 615.16 509.97 615.21 509.97 615.23 509.97 615.25 509.98 615.27 509.99 615.28 510.01 615.3 510.04 615.32 510.1 615.34 510.23 615.37 510.31 615.37 510.38 615.35 510.48 615.32 510.56 615.3 510.61 615.29 510.64 615.29 510.65 615.28 510.71 615.27 510.77 615.25 510.81 615.23 510.84 615.21 510.88 615.19 510.89 615.19 511.03 615.15 511.12 615.11 511.2 615.08 511.32 615.03 511.42 614.98 511.45 614.97 511.54 614.92 511.59 614.88 511.65 614.83 511.68 614.83 511.71 614.83 511.83 614.89 511.87 614.91 511.9 614.93 512.04 615.02 512.07 615.03 512.11 615.04 512.17 615.05 512.23 615.06 512.27 615.16 512.29 615.22 512.3 615.25 512.34 615.28 512.35 615.31 512.37 615.42 512.38 615.49 512.39 615.56 512.41 615.58 512.8 615.76 512.91 615.79 512.93 615.79 512.96 615.8 512.99 615.81 513.08 615.84 513.08 615.85 513.1 616.5 513.1 616.5 513.1 616.57 513.13 616.54 513.13 616.53 513.16 616.5 513.18 616.46 513.21 616.43 513.24 616.4 513.25 616.39 513.27 616.4 513.29 616.42 513.3 616.43 513.56 616.24 513.74 616.11 513.76 616.1 513.78 616.18 513.84 616.34 513.87 616.41 513.9 616.48 513.91 616.49 513.94 616.49 513.97 616.47 513.95 616.57 513.93 616.57 513.92 616.63 513.92 616.68 513.92 616.72 513.93 616.81 513.93 616.86 513.93 616.9 513.93 616.94 513.92 616.95 513.92 616.97 513.91 616.99 513.91 617.01 513.91 617.04 513.92 617.09 513.93 617.13 513.93 617.16 513.94 617.19 513.95 617.19 513.97 617.18 514.02 617.17 514.03 617.16 514.05 617.15 514.06 617.13 514.06 617.12 514.05 617.11 514.05 617.1 514.06 617.09 514.1 617.09 514.15 617.11 514.17 617.12 514.23 617.08 514.25 617.08 514.26 617.08 514.28 617.1 514.29 617.11 514.29 617.15 514.29 617.16 514.33 617.23 514.33 617.24 514.33 617.27 514.33 617.28 514.32 617.3 514.3 617.32 514.3 617.33 514.29 617.35 514.3 617.38 514.31 617.39 514.34 617.41 514.36 617.37 514.39 617.39 514.41 617.41 514.44 617.42 514.47 617.45 514.49 617.46 514.49 617.48 514.49 617.5 514.48 617.51 514.46 617.52 514.44 617.55 514.42 617.56 514.33 617.6 514.32 617.62 514.32 617.65 514.33 617.67 514.34 617.69 514.35 617.7 514.36 617.72 514.36 617.74 514.36 617.76 514.39 617.82 514.4 617.87 514.42 617.96 514.44 618.05 514.44 618.2 514.44 618.21 514.42 618.22 514.36 618.24 514.34 618.26 514.33 618.29 514.33 618.3 514.33 618.32 514.34 618.34 514.4 618.41 514.42 618.44 514.45 618.48 514.45 618.49 514.44 618.5 514.43 618.5 514.34 618.47 514.22 618.49 514.2 618.5 514.18 618.52 514.18 618.54 514.2 618.58 514.21 618.61 514.21 618.63 514.21 618.64 514.2 618.72 514.2 618.77 514.2 618.79 514.21 618.81 514.22 618.82 514.25 618.81 514.29 618.78 514.32 618.77 514.34 618.78 514.35 618.8 514.36 618.83 514.37 618.86 514.37 618.9 514.38 619.04 514.39 619.09 514.39 619.16 514.39 619.3 514.39 619.34 514.39 619.4 514.39 619.46 514.4 619.48 514.42 619.52 514.45 619.55 514.51 619.59 514.52 619.64 514.55 619.69 514.58 619.74 514.58 619.78 514.55 619.84 514.52 619.89 514.47 619.95 514.4 619.99 514.35 620.01 514.32 620.04 514.29 620.08 514.27 620.14 514.27 620.2 514.26 620.26 514.25 620.33 514.29 620.38 514.32 620.41 514.36 620.43 514.42 620.42 514.46 620.4 514.51 620.39 514.51 620.41 514.52 620.44 514.54 620.48 514.58 620.52 514.59 620.53 514.6 620.55 514.6 620.56 514.58 620.58 514.55 620.58 514.53 620.58 514.51 620.59 514.49 620.61 514.49 620.64 514.49 620.68 514.5 620.71 514.51 620.76 514.53 620.81 514.54 620.85 514.53 620.89 514.5 620.92 514.47 620.96 514.44 621.01 514.43 621.05 514.42 621.12 514.4 621.19 514.37 621.24 514.32 621.28 514.27 621.33 514.25 621.35 514.22 621.4 514.18 621.49 514.12 621.59 514.06 621.68 514.03 621.73 514.01 621.78 513.98 621.81 513.95 621.84 513.94 621.81 513.93 621.8 513.91 621.77 513.9 621.75 513.89 621.74 513.89 621.7 513.89 621.67 513.9 621.63 513.91 621.59 513.92 621.54 513.91 621.53 513.88 621.53 513.84 621.52 513.84 621.54 513.82 621.58 513.8 621.63 513.78 621.66 513.75 621.64 513.72 621.61 513.71 621.57 513.7 621.51 513.69 621.46 513.67 621.47 513.66 621.47 513.63 621.49 513.62 621.51 513.6 621.55 513.58 621.59 513.58 621.61 513.58 621.64 513.59 621.67 513.58 621.69 513.6 621.74 513.62 621.79 513.63 621.85 513.65 621.92 513.67 621.99 513.67 622.06 513.63 622.08 513.57 622.12 513.5 622.16 513.48 622.19 513.49 622.21 513.49 622.26 513.5 622.31 513.48 622.36 513.42 622.47 513.4 622.53 513.38 622.59 513.35 622.64 513.3 622.7 513.27 622.73 513.2 622.75 513.16 622.76 513.09 622.8 513.05 622.86 512.99 622.95 512.93 623.04 512.91 623.12 512.89 623.19 512.88 623.27 512.89 623.34 512.91 623.42 512.94 623.51 512.95 623.53 512.97 623.55 513.02 623.57 513.07 623.59 513.11 623.62 513.14 623.65 513.16 623.7 513.14 623.76 513.1 623.82 513.07 623.85 513 623.89 512.91 623.93 512.84 623.97 512.79 624 512.75 624.05 512.7 624.1 512.64 624.17 512.6 624.2 512.55 624.23 512.49 624.27 512.44 624.29 512.38 624.35 512.31 624.41 512.25 624.47 512.24 624.47 512.2 624.46 512.18 624.44 512.13 624.42 512.07 624.39 512.03 624.47 511.99 624.55 511.94 624.65 511.91 624.68 511.88 624.7 511.82 624.72 511.77 624.74 511.75 624.76 511.72 624.8 511.7 624.86 511.68 624.92 511.66 625.01 511.63 625.12 511.6 625.21 511.57 625.24 511.54 625.25 511.51 625.24 511.48 625.23 511.44 625.22 511.4 625.2 511.37 625.19 511.32 625.18 511.29 625.17 511.22 625.15 511.2 625.12 511.17 625.09 511.13 625.05 511.11 625.03 511.1 625.02 511.08 624.99 511.08 624.97 511.07 624.94 511.07 624.92 511.08 624.9 511.09 624.87 511.09 624.87 511.11 624.84 511.12 624.83 511.15 624.78 511.17 624.74 511.17 624.7 511.15 624.69 511.13 624.66 511.13 624.64 511.13 624.59 511.12 624.54 511.11 624.53 511.1 624.52 511.05 624.52 511.03 624.51 511.01 624.5 510.98 624.49 510.97 624.49 510.91 624.46 510.9 624.46 510.83 624.42 510.82 624.38 510.78 624.31 510.73 624.29 510.68 624.3 510.63 624.29 510.6 624.26 510.58 624.24 510.56 624.22 510.53 624.2 510.47 624.17 510.46 624.18 510.41 624.21 510.35 624.26 510.28 624.33 510.27 624.32 510.27 624.26 510.25 624.16 510.24 624.08 510.24 624.05 510.23 624.06 510.22 624.07 510.16 624.09 510.15 624.1 510.12 624.11 510.05 624.14 509.9 624.16 509.89 624.16 509.85 624.15 509.83 624.14 509.8 624.14 509.78 624.14 509.75 624.09 509.71 624.04 509.66 623.98 509.65 623.99 509.64 624 509.59 624.03 509.52 624.07 509.45 624.11 509.39 624.16 509.35 624.2 509.33 624.18 509.31 624.15 509.3 624.14 509.28 624.12 509.26 624.11 509.2 624.08 509.12 624.04 509.07 624.01 509.01 623.98 508.99 623.99 508.95 624.01 508.91 624.02 508.86 624.04 508.84 624.07 508.84 624.12 508.85 624.18 508.83 624.21 508.8 624.24 508.74 624.26 508.67 624.28 508.58 624.3 508.53 624.31 508.5 624.31 508.48 624.3 508.45 624.29 508.41 624.27 508.37 624.24 508.35 624.23 508.33 624.24 508.28 624.27 508.26 624.3 508.22 624.33 508.18 624.36 508.14 624.4 508.11 624.43 508.05 624.4 508.04 624.4 508.02 624.39 508 624.39 507.93 624.36 507.91 624.35 507.9 624.37 507.83 624.49 507.79 624.58 507.76 624.68 507.75 624.73 507.71 624.74 507.64 624.74 507.56 624.75 507.52 624.75 507.48 624.75 507.43 624.75 507.42 624.74 507.4 624.71 507.37 624.66 507.33 624.61 507.31 624.56 507.28 624.49 507.26 624.45 507.24 624.42 507.25 624.4 507.26 624.37 507.27 624.35 507.26 624.32 507.24 624.3 507.22 624.27 507.23 624.24 507.22 624.23 507.18 624.24 507.15 624.24 507.13 624.2 507.11 624.15 507.09 624.13 507.07 624.11 507.05 624.08 507.04 624.05 507.01 623.98 506.99 623.92 506.96 623.9 506.95 623.9 506.89 623.86 506.88 623.86 506.8 623.85 506.75 623.84 506.75 623.84 506.71 623.84 506.68 623.83 506.64 623.82 506.63 623.78 506.61 623.74 506.59 623.7 506.59 623.69 506.56 623.62 506.51 623.53 506.47 623.44 506.46 623.41 506.43 623.4 506.38 623.39 506.29 623.36 506.22 623.35 506.16 623.34 506.11 623.34 506.05 623.34 505.98 623.35 505.9 623.35 505.83 623.35 505.78 623.36 505.7 623.36 505.64 623.38 505.56 623.4 505.52 623.41 505.47 623.42 505.46 623.41 505.44 623.39 505.44 623.38 505.42 623.38 505.39 623.39 505.35 623.42 505.3 623.44 505.24 623.45 505.17 623.46 505.12 623.46 505.04 623.46 504.96 623.47 504.9 623.47 504.87 623.49 504.85 623.52 504.83 623.54 504.8 623.56 504.77 623.6 504.73 623.62 504.7 623.62 504.66 623.61 504.62 623.61 504.57 623.6 504.49 623.6 504.41 623.59 504.34 623.58 504.27 623.58 504.21 623.57 504.19 623.57 504.17 623.57 504.13 623.59 504.08 623.62 504.04 623.65 503.99 623.69 503.96 623.69 503.9 623.67 503.85 623.65 503.8 623.64 503.75 623.64 503.7 623.64 503.64 623.63 503.6 623.61 503.59 623.6 503.59 623.58 503.54 623.58 503.49 623.58 503.41 623.58 503.4 623.57 503.39 623.56 503.36 623.52 503.34 623.49 503.31 623.45 503.29 623.43 503.25 623.38 503.2 623.34 503.19 623.33 503.14 623.3 503.1 623.27 503.07 623.24 503 623.19 502.95 623.16 502.92 623.15 502.9 623.13 502.9 623.12 502.87 623.1 502.79 623.03 502.73 622.98 502.7 622.96 502.64 622.93 502.59 622.91 502.54 622.89 502.51 622.87 502.46 622.86 502.41 622.85 502.3 622.8 502.27 622.78 502.25 622.78 502.23 622.76 502.23 622.75 502.24 622.72 502.25 622.7 502.23 622.69 502.14 622.67 502.05 622.65 502.01 622.64 501.95 622.64 501.86 622.63 501.78 622.62 501.7 622.62 501.66 622.61 501.63 622.6 501.6 622.58 501.54 622.54 501.46 622.46 501.44 622.45 501.43 622.43 501.42 622.42 501.42 622.42 501.4 622.4 501.36 622.36 501.35 622.35 501.3 622.32 501.29 622.32 501.26 622.3 501.23 622.28 501.17 622.26 501.09 622.23 501.03 622.2 501 622.18 500.94 622.14 500.89 622.11 500.87 622.09 500.83 622.07 500.82 622.07 500.77 622.06 500.74 622.06 500.61 622.06 500.59 622.06 500.53 622.06 500.47 622.05 500.43 622.03 500.4 622.02 500.31 621.97 500.28 621.96 500.16 621.9 500.04 621.84 500.02 621.85 500.01 621.85 499.93 621.81 499.85 621.79 499.7 621.74 499.6 621.69 499.52 621.65 499.5 621.64 499.46 621.62 499.41 621.6 499.36 621.57 499.34 621.57 499.31 621.55 499.28 621.55 499.24 621.55 499.21 621.57 499.17 621.57 499.16 621.57 499.13 621.57 499.11 621.57 499.06 621.57 499.03 621.57 498.99 621.57 498.93 621.55 498.88 621.53 498.82 621.51 498.76 621.49 498.72 621.48 498.71 621.47 498.71 621.47 498.69 621.46 498.65 621.45 498.6 621.43 498.54 621.41 498.47 621.38 498.4 621.37 498.37 621.36 498.36 621.36 498.34 621.36 498.3 621.34 498.26 621.32 498.21 621.28 498.16 621.25 498.11 621.22 498.06 621.19 498 621.15 497.95 621.13 497.89 621.09 497.84 621.07 497.79 621.04 497.73 621.02 497.7 620.99 497.69 620.95 497.66 620.91 497.66 620.88 497.65 620.87 497.64 620.85 497.61 620.82 497.57 620.77 497.53 620.75 497.5 620.72 497.47 620.67 497.45 620.63 497.45 620.62 497.45 620.6 497.44 620.58 497.44 620.55 497.42 620.51 497.38 620.46 497.36 620.42 497.33 620.4 497.27 620.36 497.22 620.32 497.21 620.32 497.17 620.3 497.11 620.29 497.04 620.27 497.01 620.25 496.96 620.22 496.92 620.19 496.88 620.15 496.85 620.12 496.8 620.07 496.76 620.03 496.71 619.98 496.68 619.94 496.62 619.88 496.58 619.84 496.54 619.8 496.52 619.77 496.49 619.72 496.46 619.67 496.42 619.63 496.39 619.59 496.37 619.57 496.33 619.53 496.31 619.51 496.28 619.47 496.25 619.44 496.23 619.4 496.2 619.38 496.16 619.35 496.13 619.33 496.09 619.31 496.07 619.3 496.04 619.28 496.02 619.25 495.98 619.23 495.93 619.21 495.89 619.19 495.85 619.17 495.88 619.16 495.91 619.15 496.05 619.05 496.05 619.04 496.13 618.98 496.22 618.91 496.27 618.87 496.31 618.78 496.36 618.68 496.38 618.6 496.42 618.49 496.44 618.42 496.45 618.36 496.45 618.28 496.43 618.21 496.41 618.13 496.41 618.06 496.43 618 496.45 617.95 496.49 617.9 496.56 617.87 496.64 617.83 496.71 617.76 496.77 617.72 496.84 617.68 496.92 617.63 496.98 617.59 497.03 617.52 497.08 617.45 497.12 617.37 497.14 617.34 497.13 617.3 497.19 617.23 497.24 617.16 497.3 617.09 497.38 617.01 497.41 616.98 497.51 616.91 497.58 616.84 497.62 616.79 497.67 616.71 497.71 616.66 497.74 616.63 497.76 616.6 497.79 616.58 497.84 616.53 498 616.41 498.12 616.34 498.22 616.28 498.32 616.2 498.43 616.13 498.5 616.1 498.54 616.07 498.55 616.07 498.62 616.02 498.68 615.98 498.8 615.88 498.84 615.85 498.93 615.77 499.02 615.71 499.06 615.64 499.19 615.52 499.31 615.41 499.4 615.35 499.49 615.29 499.5 615.29 499.75 615.29 499.75 615.29 499.84 615.29 499.85 615.29 500.04 615.29 500.06 615.29 500.54 615.3 500.55 615.3 500.65 615.3 500.66 615.3 500.67 615.3 500.71 615.3 500.78 615.31 500.86 615.32 500.87 615.32 500.89 615.32 500.95 615.33 501.02 615.34 501.08 615.34 501.1 615.34 501.13 615.35 501.15 615.35 501.2 615.36 501.25 615.36 501.29 615.37 501.31 615.36 501.37 615.35 501.39 615.35 501.44 615.34 501.51 615.33 501.59 615.31 501.64 615.3 501.65 615.3 501.69 615.3 501.79 615.3 501.83 615.3 501.93 615.3 502.03 615.31 502.04 615.31 502.09 615.31 502.19 615.31 502.22 615.31 502.32 615.31 502.41 615.31 502.51 615.3 502.57 615.3 502.62 615.3 502.77 615.3 502.97 615.3 503.13 615.31 503.19 615.31 503.25 615.32 503.34 615.32 503.46 615.32 503.49 615.32 503.53 615.32 503.54 615.32 503.56 615.32 503.57 615.33 503.59 615.33 503.65 615.33 503.72 615.33 503.78 615.33 503.82 615.33 503.9 615.34 503.96 615.34 503.98 615.34 504 615.34 504.03 615.34 504.14 615.35 504.22 615.35 504.27 615.35 504.33 615.35 504.35 615.35 504.4 615.36 504.45 615.36 504.53 615.36 504.61 615.36 504.65 615.36 504.66 615.36 504.75 615.37 504.77 615.37 504.87 615.37 504.89 615.37 504.9 615.37 505 615.37 505.01 615.37 505.1 615.37 505.11 615.37 505.2 615.37 505.21 615.37 505.3 615.37 505.45 615.37 505.53 615.37 505.7 615.37 505.9 615.37 505.94 615.37 505.95 615.37 506.03 615.37 506.19 615.37 506.2 615.37 506.35 615.36 506.36 615.36 506.42 615.37 506.43 615.37 506.5 615.37 506.51 615.37 506.58 615.37 506.67 615.37 506.76 615.37 506.86 615.37 506.88 615.37 506.94 615.36 507.05 615.37 507.06 615.37 507.09 615.37 507.1 615.37 507.14 615.37 507.16 615.37 507.22 615.37 507.3 615.37 507.39 615.38 507.44 615.38 507.48 615.38 507.49 615.38 507.52 615.38 507.53 615.38 507.58 615.39 507.61 615.38 507.62 615.38 507.64 615.38 507.67 615.36 507.7 615.33 507.73 615.3 507.74 615.28 507.75 615.25 507.77 615.2 507.78 615.19 507.79 615.17 507.79 615.16 507.8 615.13 507.81 615.11 507.82 615.1 507.83 615.09 507.86 615.1 507.89 615.11 507.92 615.12 507.94 615.13 507.97 615.14 507.99 615.14 508 615.13 508.02 615.13 508.06 615.13 508.08 615.13 508.1 615.13 508.12 615.15 508.15 615.16 508.16 615.16 508.17 615.16 508.17 615.15 508.16 615.12 508.15 615.09 508.14 615.08 508.13 615.06 508.12 615.06 508.09 615.05 508.05 615.05 508.02 615.04 508 615.03 507.97 615.01 507.95 614.98 507.92 614.97 507.91 614.96 507.91 614.94 507.91 614.92 507.92 614.91 507.94 614.88 507.97 614.85 507.98 614.84 507.98 614.82 Z"/>
</g></svg>