<svg xmlns="http://www.w3.org/2000/svg" version="1.2" baseProfile="tiny" stroke-linecap="round" stroke-linejoin="round" viewBox="188.6 93.3 16.75 19.05"><g xmlns="http://www.w3.org/2000/svg" id="Morga">
<path d="M 195.58 93.39 195.47 93.43 196.77 94.03 196.45 96.22 197.36 95.9 197.4 95.8 197.46 95.73 197.52 95.65 197.58 95.57 197.73 95.43 197.79 95.33 197.81 95.25 197.85 95.13 197.87 94.96 197.89 94.82 197.92 94.71 197.94 94.72 198.31 95.05 199.01 96.24 199.16 96 200.31 96.6 200.41 96.55 200.45 96.51 200.49 96.47 200.53 96.39 200.58 96.31 200.62 96.23 200.65 96.17 200.67 96.13 200.72 96 200.75 95.92 200.78 95.83 200.8 95.79 200.84 95.71 200.91 95.61 200.99 95.49 201.04 95.43 201.1 95.34 201.11 95.32 201.15 95.26 201.2 95.06 201.22 95.04 201.26 94.96 201.28 94.9 201.29 94.85 201.29 94.81 201.31 94.78 201.33 94.76 201.41 94.66 201.42 94.63 201.43 94.59 201.41 94.57 201.4 94.55 201.39 94.52 201.36 94.46 201.47 94.47 201.51 94.47 201.55 94.46 201.59 94.44 201.62 94.43 201.64 94.44 201.69 94.46 201.72 94.48 201.79 94.47 201.82 94.47 201.84 94.47 201.87 94.48 201.88 94.51 201.88 94.54 201.88 94.59 201.88 94.62 201.88 94.64 201.89 94.65 201.93 94.67 201.95 94.67 201.97 94.67 202 94.66 202.04 94.64 202.08 94.62 202.11 94.61 202.14 94.6 202.17 94.6 202.19 94.62 202.2 94.64 202.21 94.66 202.21 94.68 202.2 94.75 202.2 94.82 202.19 94.9 202.19 94.95 202.19 95 202.2 95.04 202.2 95.07 202.21 95.1 202.2 95.13 202.2 95.16 202.2 95.19 202.22 95.23 202.23 95.27 202.25 95.3 202.27 95.33 202.3 95.35 202.33 95.37 202.36 95.38 202.38 95.4 202.4 95.42 202.4 95.46 202.42 95.49 202.45 95.54 202.47 95.58 202.49 95.62 202.49 95.65 202.49 95.69 202.5 95.72 202.49 95.74 202.48 95.76 202.47 95.79 202.45 95.82 202.43 95.85 202.4 95.87 202.37 95.9 202.35 95.92 202.33 95.95 202.31 95.97 202.3 96 202.29 96.03 202.27 96.05 202.25 96.06 202.23 96.07 202.22 96.07 202.17 96.05 202.14 96.03 202.12 96.03 202.1 96.05 202.08 96.06 202.06 96.09 202.04 96.11 202.03 96.15 202.02 96.19 202 96.23 201.99 96.28 201.98 96.3 201.97 96.32 201.96 96.34 201.94 96.35 201.93 96.34 201.92 96.33 201.9 96.3 201.89 96.27 201.88 96.24 201.87 96.22 201.86 96.21 201.85 96.22 201.83 96.23 201.82 96.25 201.82 96.3 201.81 96.35 201.8 96.41 201.79 96.45 201.77 96.5 201.76 96.54 201.74 96.59 201.73 96.64 201.71 96.7 201.7 96.74 201.68 96.78 201.67 96.81 201.65 96.85 201.63 96.88 201.61 96.92 201.59 96.94 201.58 96.97 201.58 97.02 201.57 97.06 201.57 97.12 201.49 97.26 201.49 97.28 201.56 97.73 201.8 98.14 201.99 98.74 202.52 99.68 203.25 100.91 203.97 101.05 204.53 101.19 204.9 101.27 204.68 101.84 204.45 102.46 204.11 103.59 204.18 103.82 204.08 104.02 204.2 104.8 204.29 105.81 204.73 106.39 205.32 107.08 205.2 108.18 204.56 109.19 204.4 109.82 203.99 110.95 203.16 112.32 202.75 112.24 202.4 112.24 202.05 112.18 201.63 112.12 201.29 112.07 201.17 112.05 201.13 112.03 201.09 112.01 200.98 111.85 200.97 111.81 200.87 111.64 200.82 111.59 200.59 111.16 200.47 111.07 200.32 110.81 200.15 110.58 199.52 110.01 199 109.59 198.79 109.41 198.59 109.18 198.43 109.03 198.16 108.83 198.01 108.76 197.67 108.49 197.5 108.39 197.4 108.33 197.24 108.26 197.19 108.22 197.03 108.02 196.89 107.84 196.53 107.64 196.15 107.4 195.95 107.28 195.79 107.19 195.68 107.04 195.56 106.89 195.47 106.82 195.33 106.69 195.18 106.56 195.03 106.42 194.99 106.39 194.64 106.11 194.63 106.09 194.18 105.72 193.8 105.44 193.44 105.31 193.3 105.23 193.12 105.1 192.7 104.66 191.85 104.17 191.59 104.05 190.63 103.62 188.97 102.45 189.04 102.37 189.42 101.51 189.45 101.3 189.44 101.25 189.45 101.2 189.39 101.04 189.3 100.71 189.27 100.66 189.02 100.42 188.99 100.37 188.99 100.34 188.99 100.29 188.97 100.25 188.95 100.21 188.96 100.15 188.8 100.18 188.79 100.18 188.77 99.9 188.76 99.84 188.76 99.79 188.76 99.73 188.86 99.3 188.83 99.16 188.81 99.1 188.78 99.08 188.73 99.05 188.6 98.92 189.25 98.71 189.28 98.6 189.35 98.49 189.38 98.44 189.43 98.44 189.47 98.44 189.54 98.58 189.58 98.62 189.65 98.65 189.79 98.74 189.85 98.77 189.91 98.79 189.97 98.8 190.02 98.77 190.08 98.68 190.14 98.64 190.16 98.61 190.21 98.6 190.27 98.6 190.48 98.52 190.5 98.48 190.55 98.39 190.59 98.34 190.63 98.31 190.74 98.27 190.77 98.24 190.79 98.2 190.81 98.15 190.84 98.08 190.85 98.02 190.89 97.86 190.89 97.7 190.89 97.58 190.89 97.53 190.9 97.49 190.91 97.45 190.92 97.41 190.92 97.39 190.89 97.35 190.88 97.31 190.86 97.23 190.85 97.17 190.82 96.96 190.85 96.93 190.89 96.88 190.92 96.84 190.96 96.79 190.99 96.75 191.04 96.66 191.1 96.55 191.17 96.43 191.22 96.35 191.25 96.29 191.28 96.26 191.32 96.22 191.38 96.18 191.43 96.14 191.47 96.1 191.51 96.06 191.54 96.05 191.59 96.03 191.65 96.02 191.71 96 191.75 95.98 191.8 95.95 191.83 95.94 191.86 95.93 191.92 95.93 191.98 95.93 192.04 95.92 192.09 95.9 192.15 95.88 192.2 95.86 192.26 95.83 192.32 95.79 192.36 95.76 192.4 95.72 192.41 95.66 192.4 95.65 192.46 95.56 192.47 95.51 192.48 95.44 192.48 95.37 192.49 95.3 192.49 95.22 192.49 95.13 192.49 95.05 192.5 95 192.51 94.94 192.52 94.87 192.53 94.81 192.53 94.74 192.54 94.67 192.55 94.58 192.55 94.51 192.65 94.26 192.76 94.11 192.85 93.99 193.41 93.64 193.68 93.5 194.21 93.31 194.59 93.34 194.89 93.37 195.35 93.38 195.58 93.39 Z"/>
</g></svg>