<svg xmlns="http://www.w3.org/2000/svg" version="1.2" baseProfile="tiny" stroke-linecap="round" stroke-linejoin="round" viewBox="342.6 364.02 17.03 23.73"><g xmlns="http://www.w3.org/2000/svg" id="Mues">
<path d="M 348.93 366.05 348.93 366.1 348.94 366.13 348.94 366.13 348.93 366.21 348.61 366.21 348.6 366.26 348.58 366.33 348.57 366.38 348.54 366.43 348.52 366.47 348.49 366.5 348.53 366.52 348.59 366.54 348.68 366.58 348.74 366.6 348.81 366.64 348.85 366.67 348.9 366.71 348.96 366.75 349.01 366.79 349.03 366.86 349.05 366.94 349.1 367.07 349.11 367.12 349.12 367.17 349.12 367.21 349.12 367.27 349.11 367.32 349.1 367.35 349.11 367.41 349.11 367.49 349.11 367.55 349.12 367.59 349.1 367.64 349.1 367.67 349.1 367.68 349.09 367.69 349.09 367.76 349.08 367.83 349.06 367.92 349.05 368.01 349.03 368.09 349 368.14 348.99 368.18 348.98 368.24 348.98 368.27 348.98 368.3 348.99 368.36 349 368.43 349.01 368.47 349.02 368.51 349.02 368.54 349.01 368.59 349.01 368.7 349.05 368.78 349.08 368.86 349.11 368.92 349.14 369.02 349.17 369.09 349.2 369.16 349.22 369.21 349.24 369.26 349.27 369.3 349.29 369.31 349.33 369.31 349.35 369.31 349.37 369.3 349.38 369.29 349.39 369.29 349.41 369.29 349.45 369.29 349.49 369.31 349.56 369.34 349.61 369.36 349.67 369.39 349.72 369.41 349.76 369.43 349.8 369.45 349.85 369.46 349.87 369.48 349.91 369.51 349.93 369.52 349.95 369.53 349.97 369.53 349.98 369.54 350.01 369.55 350.05 369.55 350.08 369.54 350.15 369.51 350.16 369.5 350.18 369.5 350.23 369.48 350.31 369.44 350.39 369.41 350.47 369.36 350.52 369.33 350.56 369.31 350.57 369.29 350.59 369.26 350.6 369.23 350.61 369.19 350.62 369.17 350.64 369.12 350.66 369.07 350.66 369.05 350.66 369.02 350.65 368.97 350.65 368.95 350.65 368.91 350.63 368.86 350.62 368.81 350.6 368.71 350.6 368.63 350.62 368.63 350.65 368.62 350.7 368.61 350.73 368.61 350.75 368.6 350.78 368.6 350.78 368.54 350.79 368.42 350.8 368.34 350.82 368.27 350.82 368.21 350.82 368.17 350.82 368.08 350.82 368 350.81 367.96 350.8 367.93 350.79 367.91 350.78 367.83 350.78 367.75 350.78 367.74 350.9 367.66 350.99 367.6 351.07 367.54 351.08 367.53 351.1 367.51 351.12 367.54 351.15 367.58 351.19 367.64 351.29 367.79 351.33 367.84 351.35 367.85 351.4 367.92 351.43 367.96 351.45 367.99 351.45 368.02 351.44 368.13 351.4 368.43 351.4 368.54 351.39 368.55 351.39 368.57 351.38 368.59 351.37 368.62 351.34 368.63 351.32 368.69 351.3 368.75 351.28 368.85 351.27 368.94 351.27 369.02 351.26 369.06 351.25 369.11 351.23 369.2 351.2 369.28 351.17 369.35 351.12 369.44 351.06 369.53 351 369.64 350.91 369.77 350.83 369.87 350.81 369.91 350.85 369.89 350.95 369.84 351.06 369.79 351.12 369.75 351.15 369.77 351.17 369.78 351.29 369.87 351.35 369.91 351.42 369.95 351.49 370 351.61 370.08 351.67 370.12 351.75 370.18 351.84 370.24 351.86 370.25 351.88 370.25 351.9 370.26 351.96 370.26 352 370.27 352.05 370.28 352.11 370.3 352.16 370.33 352.24 370.35 352.27 370.36 352.31 370.37 352.38 370.38 352.43 370.39 352.49 370.39 352.54 370.41 352.59 370.42 352.63 370.45 352.71 370.49 352.77 370.53 352.84 370.58 352.9 370.62 352.94 370.64 352.99 370.66 353.04 370.68 353.11 370.7 353.17 370.72 353.26 370.74 353.36 370.76 353.45 370.79 353.56 370.82 353.68 370.86 353.75 370.89 353.84 370.91 353.94 370.94 354.01 370.96 354.08 370.97 354.13 370.97 354.21 370.97 354.23 370.97 354.26 371.03 354.31 371.11 354.35 371.17 354.38 371.22 354.4 371.25 354.42 371.27 354.43 371.28 354.46 371.32 354.51 371.39 354.57 371.45 354.63 371.52 354.71 371.6 354.76 371.65 354.83 371.72 354.83 371.73 354.84 371.74 354.93 371.84 354.97 371.91 355.04 372 355.07 372.04 355.09 372.08 355.14 372.15 355.15 372.17 355.18 372.21 355.21 372.26 355.23 372.3 355.25 372.34 355.28 372.39 355.3 372.42 355.35 372.47 355.4 372.53 355.43 372.58 355.47 372.63 355.5 372.66 355.54 372.73 355.59 372.78 355.6 372.81 355.62 372.84 355.64 372.86 355.67 372.88 355.68 372.89 355.72 372.92 356.44 373.51 356.61 373.76 356.64 373.8 356.64 373.81 356.67 373.85 356.72 373.92 356.72 373.93 356.79 374.02 356.86 374.27 356.88 374.32 356.89 374.35 356.89 374.37 356.89 374.38 356.93 374.48 357.03 374.72 357.04 374.74 357.14 374.98 357.15 375.04 357.16 375.08 357.16 375.09 357.21 375.33 357.25 375.5 357.25 375.52 357.25 375.53 357.18 375.72 357.16 375.77 357.1 375.9 357.07 375.98 357.07 376 357.05 376.13 357.04 376.16 357.03 376.21 357.03 376.22 357.03 376.25 357.02 376.4 357.01 376.55 357 376.72 356.99 376.82 357.01 376.86 357.12 377.14 357.14 377.19 357.15 377.22 357.16 377.29 357.16 377.32 357.17 377.33 357.23 377.62 357.25 377.68 357.25 377.74 357.25 377.76 357.25 377.82 357.25 377.98 357.25 377.99 357.26 378 357.26 378.03 357.26 378.04 357.26 378.19 357.27 378.33 357.28 378.39 357.3 378.49 357.32 378.58 357.33 378.64 357.33 378.69 357.34 378.7 357.37 378.84 357.38 378.85 357.4 378.86 357.46 378.87 357.47 378.87 357.52 378.88 357.55 378.89 357.6 378.9 357.72 378.94 357.75 378.94 357.78 378.95 357.83 378.96 357.85 378.96 358.08 379.01 358.24 378.84 358.78 378.87 359.29 378.84 359.49 378.74 359.5 378.79 359.52 378.82 359.53 378.87 359.54 378.9 359.55 378.92 359.58 379.02 359.58 379.03 359.6 379.07 359.43 379.15 359.23 379.22 359.03 379.31 358.84 379.39 358.63 379.47 358.4 379.57 358.37 379.56 358.32 379.56 358.17 379.55 358.12 379.54 358.05 379.53 357.98 379.53 357.93 379.53 357.9 379.52 357.87 379.52 357.85 379.52 357.83 379.52 357.8 379.51 357.77 379.49 357.73 379.47 357.68 379.46 357.6 379.43 357.57 379.42 357.54 379.41 357.51 379.4 357.48 379.39 357.44 379.38 357.41 379.39 357.38 379.39 357.32 379.42 357.27 379.46 357.22 379.5 357.17 379.53 357.12 379.57 357.07 379.6 357 379.63 356.96 379.64 356.92 379.65 356.9 379.66 356.87 379.67 356.85 379.67 356.84 379.68 356.83 379.7 356.82 379.71 356.82 379.73 356.82 379.74 356.78 379.76 356.76 379.77 356.75 379.78 356.73 379.79 356.66 379.84 356.38 380.03 356.4 380.06 356.45 380.12 356.48 380.16 356.51 380.21 356.54 380.26 356.57 380.31 356.61 380.36 356.65 380.43 356.68 380.47 356.7 380.5 356.72 380.53 356.73 380.55 356.75 380.57 356.76 380.58 356.79 380.61 356.8 380.62 356.79 380.63 356.76 380.66 356.71 380.7 356.59 380.79 356.57 380.81 356.55 380.83 356.54 380.83 356.53 380.84 356.5 380.84 356.46 380.85 356.43 380.86 356.42 380.86 356.38 380.87 356.36 380.87 356.31 380.88 356.3 380.88 356.28 380.88 356.24 380.89 356.21 380.9 356.19 380.9 356.17 380.9 356.16 380.91 356.13 380.91 356.1 380.92 356.09 380.92 356.08 380.93 356.04 380.94 356.01 380.95 355.96 380.97 355.92 380.98 355.89 380.99 355.86 381 355.84 381.01 355.82 381.02 355.8 381.04 355.78 381.05 355.77 381.05 355.75 381.05 355.74 381.05 355.73 381.06 355.72 381.07 355.7 381.1 355.65 381.24 355.65 381.25 355.63 381.27 355.63 381.28 355.61 381.33 355.6 381.34 355.47 381.65 355.45 381.72 355.45 381.73 355.44 381.74 355.44 381.75 355.44 381.75 355.39 381.9 355.38 381.92 355.37 381.95 355.37 381.96 355.35 381.99 355.35 382 355.34 382.01 355.32 382.02 355.31 382.03 355.28 382.06 355.26 382.07 355.22 382.1 355.17 382.14 355.13 382.17 355.07 382.23 355.06 382.23 355.05 382.25 355 382.29 354.99 382.3 354.95 382.34 354.84 382.45 354.77 382.51 354.74 382.54 354.66 382.61 354.66 382.62 354.64 382.63 354.56 382.71 354.55 382.72 354.51 382.76 354.48 382.78 354.47 382.79 354.44 382.81 354.29 382.88 354.28 382.89 354.2 382.92 354.18 382.92 354.18 382.93 354.16 382.94 354.1 382.98 354.05 383.01 353.95 383.07 353.92 383.09 353.88 383.11 353.87 383.12 353.86 383.14 353.85 383.15 353.81 383.16 353.78 383.17 353.74 383.19 353.71 383.21 353.65 383.25 353.46 383.38 353.43 383.4 353.4 383.41 353.37 383.43 353.36 383.45 353.35 383.47 353.32 383.5 353.31 383.52 353.29 383.54 353.27 383.57 353.25 383.61 353.24 383.62 353.22 383.64 353.21 383.65 353.2 383.66 353.19 383.66 353.17 383.67 353.15 383.68 353.1 383.68 353.05 383.69 353.01 383.71 352.94 383.74 352.9 383.76 352.84 383.8 352.82 383.81 352.8 383.83 352.79 383.85 352.77 383.86 352.76 383.87 352.74 383.89 352.73 383.92 352.71 383.92 352.68 383.95 352.66 383.96 352.64 383.98 352.6 384 352.59 384.02 352.57 384.04 352.51 384.08 352.41 384.16 352.33 384.24 352.29 384.29 352.27 384.31 352.25 384.33 352.24 384.34 352.21 384.36 352.19 384.38 352.15 384.4 352.12 384.42 352.08 384.44 352.07 384.46 351.93 384.53 351.88 384.55 351.84 384.57 351.79 384.6 351.77 384.62 351.74 384.63 351.74 384.64 351.73 384.66 351.72 384.68 351.71 384.7 351.69 384.73 351.64 384.82 351.62 384.87 351.6 384.91 351.57 384.94 351.54 384.99 351.52 385.01 351.48 385.06 351.42 385.14 351.38 385.18 351.37 385.22 351.33 385.33 351.33 385.35 351.32 385.38 351.26 385.55 351.23 385.68 351.22 385.73 351.2 385.8 351.15 385.9 351.15 385.92 351.1 386.03 351.02 386.18 350.95 386.31 350.93 386.34 350.76 386.62 350.73 386.67 350.71 386.73 350.71 386.74 350.69 386.78 350.67 386.83 350.64 386.87 350.6 386.98 350.57 387.02 350.57 387.03 350.56 387.03 350.52 387.13 350.5 387.16 350.49 387.18 350.48 387.2 350.43 387.28 350.41 387.31 350.4 387.33 350.38 387.36 350.37 387.38 350.34 387.43 350.33 387.44 350.31 387.48 350.28 387.52 350.23 387.61 350.2 387.65 350.2 387.66 350.19 387.72 350.13 387.69 349.74 387.47 349.73 387.37 349.72 387.36 349.71 387.29 349.71 387.27 349.71 387.24 349.65 387 349.65 386.99 349.64 386.95 349.62 386.9 349.61 386.87 349.58 386.79 349.53 386.69 349.49 386.61 349.48 386.55 349.44 386.51 349.41 386.49 349.31 386.4 349.29 386.37 349.21 386.3 349.13 386.21 349.11 386.16 349.08 386.11 349.05 386.04 349.03 385.99 348.99 385.92 348.98 385.89 348.97 385.87 348.94 385.8 348.93 385.75 348.84 385.52 348.82 385.42 348.81 385.39 348.8 385.34 348.79 385.31 348.77 385.23 348.76 385.17 348.69 384.96 348.68 384.91 348.68 384.9 348.67 384.88 348.63 384.7 348.62 384.68 348.6 384.57 348.54 384.36 348.5 384.21 348.48 384.12 348.46 384.03 348.44 383.85 348.43 383.84 348.42 383.73 348.41 383.63 348.4 383.49 348.4 383.48 348.4 383.46 348.39 383.43 348.39 383.41 348.38 383.33 348.38 383.32 348.38 383.26 348.37 383.25 348.36 383.17 348.36 383.16 348.35 383.05 348.33 382.93 348.32 382.86 348.32 382.85 348.27 382.63 348.26 382.61 348.26 382.6 348.26 382.59 348.25 382.53 348.23 382.5 348.16 382.41 348.15 382.37 348.12 382.33 348.11 382.29 348.09 382.23 348.08 382.21 348.06 382.14 348.05 382.11 348.05 382.07 348.02 382.04 348.01 382 348.01 381.96 347.98 381.9 347.93 381.77 347.87 381.58 347.87 381.57 347.85 381.54 347.83 381.47 347.82 381.45 347.8 381.4 347.77 381.31 347.76 381.28 347.76 381.24 347.74 381.2 347.81 381.11 347.82 381.09 347.85 381.05 347.87 380.99 347.89 380.96 347.9 380.95 347.92 380.93 347.94 380.89 347.97 380.83 347.99 380.79 348 380.76 348.01 380.72 348.02 380.7 348.04 380.65 348.06 380.61 348.07 380.59 348.07 380.57 348.08 380.56 348.08 380.54 348.09 380.51 348.11 380.45 348.12 380.43 348.12 380.41 348.13 380.38 348.11 380.37 348.07 380.33 348.01 380.28 347.98 380.25 347.97 380.24 347.92 380.2 347.87 380.15 347.81 380.1 347.72 380.03 347.66 379.99 347.65 379.98 347.63 379.97 347.62 379.97 347.6 379.94 347.53 379.9 347.47 379.85 347.45 379.84 347.44 379.83 347.37 379.77 347.31 379.73 347.26 379.69 347.2 379.66 347.18 379.64 347.14 379.62 347.08 379.57 347.03 379.54 347.02 379.53 347.01 379.52 346.98 379.5 346.97 379.5 346.94 379.44 346.92 379.41 346.9 379.37 346.88 379.34 346.84 379.27 346.83 379.26 346.82 379.24 346.81 379.22 346.79 379.18 346.76 379.13 346.73 379.08 346.71 379.03 346.68 378.98 346.66 378.94 346.65 378.94 346.64 378.92 346.64 378.91 346.6 378.84 346.54 378.73 346.53 378.72 346.51 378.67 346.46 378.61 346.42 378.56 346.38 378.5 346.37 378.49 346.36 378.49 346.34 378.46 346.28 378.38 346.27 378.37 346.25 378.35 346.23 378.32 346.22 378.31 346.2 378.29 346.19 378.28 346.18 378.26 346.19 378.24 346.2 378.2 346.21 378.15 346.24 378.09 346.26 378.02 346.27 377.97 346.28 377.96 346.29 377.92 346.3 377.9 346.3 377.87 346.3 377.82 346.31 377.76 346.31 377.68 346.32 377.66 346.32 377.63 346.32 377.62 346.33 377.58 346.33 377.57 346.34 377.56 346.34 377.55 346.34 377.53 346.35 377.47 346.36 377.43 346.36 377.41 346.36 377.39 346.36 377.36 346.38 377.28 346.39 377.2 346.4 377.14 346.41 377.12 346.41 377.11 346.35 377.03 346.28 376.94 346.19 376.83 346.15 376.77 346.12 376.72 346.1 376.71 346.07 376.67 346.03 376.61 345.98 376.54 345.97 376.53 345.96 376.52 345.95 376.51 345.95 376.5 345.94 376.49 345.92 376.46 345.89 376.43 345.85 376.37 345.81 376.31 345.78 376.28 345.76 376.27 345.71 376.23 345.64 376.19 345.61 376.16 345.56 376.13 345.51 376.1 345.5 376.09 345.48 376.08 345.39 376.04 345.26 375.99 345.14 375.93 345.1 375.91 345.1 375.9 345.11 375.88 345.12 375.86 345.15 375.78 345.18 375.68 345.19 375.64 345.14 375.62 345.05 375.6 344.97 375.58 344.91 375.56 344.85 375.57 344.65 375.59 344.66 375.55 344.68 375.47 344.71 375.38 344.75 375.27 344.79 375.17 344.82 375.09 344.85 375.04 344.88 374.97 344.93 374.87 344.97 374.76 345.02 374.67 345.12 374.5 345.16 374.41 345.22 374.32 345.27 374.3 345.39 374.25 345.49 374.21 345.55 374.19 345.57 374.18 345.56 374.06 345.56 374 345.56 373.97 345.56 373.95 345.55 373.91 345.54 373.89 345.52 373.87 345.5 373.85 345.42 373.8 345.31 373.74 345.28 373.72 345.27 373.71 345.16 373.66 345.06 373.61 345.01 373.59 344.95 373.52 344.92 373.49 344.85 373.41 344.8 373.35 344.73 373.28 344.73 373.26 344.73 373.21 344.71 373.09 344.7 373.01 344.7 372.97 344.68 372.87 344.66 372.74 344.65 372.72 344.62 372.7 344.61 372.69 344.57 372.65 344.49 372.6 344.43 372.57 344.39 372.54 344.37 372.52 344.34 372.5 344.14 372.35 344.13 372.34 344.1 372.32 344.07 372.31 344.04 372.3 344 372.29 343.98 372.29 343.93 372.27 343.92 372.16 343.92 372.12 343.92 372.07 343.93 372.01 343.94 371.94 343.96 371.84 343.97 371.82 344 371.7 344.02 371.55 344.03 371.5 344.04 371.34 344.18 371.19 344.18 371.15 344.18 371.11 344.19 370.88 343.87 370.83 343.83 370.82 343.77 370.81 343.75 370.8 343.59 370.73 343.5 370.69 343.46 370.67 343.35 370.58 343.37 370.54 343.37 370.52 343.43 370.4 343.44 370.37 343.45 370.33 343.47 370.3 343.48 370.26 343.49 370.24 343.51 370.2 343.57 370.03 343.58 369.99 343.61 369.87 343.63 369.79 343.63 369.77 343.63 369.74 343.65 369.67 343.66 369.64 343.72 369.42 343.72 369.39 343.73 369.36 343.8 369.08 343.8 369.06 343.84 368.92 343.91 368.65 343.92 368.59 343.96 368.36 343.97 368.22 343.97 368.2 343.97 368.2 343.97 368.17 343.89 367.67 343.89 367.65 343.88 367.63 343.85 367.62 343.74 367.61 343.7 367.6 343.67 367.59 343.64 367.58 343.56 367.54 343.53 367.53 343.48 367.51 343.39 367.47 343.36 367.45 343.34 367.44 343.29 367.44 343.27 367.43 343.26 367.41 343.26 367.37 343.25 367.34 343.25 367.29 343.24 367.22 343.24 367.21 343.25 367.2 343.27 367.15 343.28 367.13 343.28 367.1 343.27 367.09 343.27 367.07 343.17 366.94 343.15 366.91 343.15 366.89 343.15 366.86 343.15 366.83 343.13 366.57 343.12 366.55 343.12 366.54 343.12 366.53 343.11 366.21 343.11 366.19 343.11 366.17 343.12 366.15 343.14 365.97 343.12 365.97 343.1 365.95 343.09 365.95 343.07 365.93 343.03 365.91 342.91 365.85 342.88 365.82 342.85 365.8 342.8 365.76 342.77 365.75 342.73 365.71 342.7 365.69 342.71 365.67 342.73 365.61 342.72 365.6 342.7 365.58 342.61 365.49 342.63 365.46 342.65 365.42 342.81 365.16 342.82 365.12 342.84 365.09 342.84 365.07 342.88 364.94 342.89 364.91 342.9 364.84 342.93 364.77 342.95 364.71 342.97 364.67 343 364.57 343.02 364.51 343.04 364.43 343.05 364.36 343.07 364.28 343.09 364.14 343.11 364.05 343.32 364.11 343.55 364.16 343.69 364.2 343.84 364.25 343.97 364.29 344.16 364.34 344.25 364.36 344.41 364.39 344.51 364.4 344.57 364.39 344.72 364.37 344.9 364.35 344.91 364.35 345.02 364.34 345.25 364.3 345.35 364.29 345.52 364.27 345.69 364.25 345.87 364.23 346.06 364.23 346.25 364.23 346.42 364.22 346.55 364.21 346.58 364.21 346.6 364.22 346.62 364.22 346.71 364.25 346.82 364.29 346.84 364.32 346.84 364.34 346.85 364.34 346.91 364.35 346.97 364.37 347.07 364.38 347.08 364.39 347.08 364.44 347.08 364.47 347.06 364.53 347.05 364.6 347.04 364.65 347.04 364.68 347.03 364.7 347.03 364.74 347.02 364.81 347.01 364.85 347 364.87 346.99 364.91 346.99 364.93 346.98 364.95 346.98 364.99 346.97 365.01 346.97 365.08 346.97 365.12 346.96 365.21 346.95 365.45 346.95 365.49 346.95 365.52 347.15 365.52 347.17 365.52 347.21 365.52 347.28 365.52 347.39 365.53 347.43 365.53 347.56 365.53 347.69 365.53 347.78 365.53 347.94 365.54 347.98 365.54 348.08 365.56 348.12 365.57 348.14 365.59 348.18 365.61 348.24 365.66 348.41 365.78 348.44 365.8 348.46 365.8 348.49 365.82 348.53 365.84 348.55 365.85 348.58 365.87 348.71 365.93 348.82 365.98 348.9 366.02 348.93 366.05 Z"/>
</g></svg>