<svg xmlns="http://www.w3.org/2000/svg" version="1.2" baseProfile="tiny" stroke-linecap="round" stroke-linejoin="round" viewBox="205.73 55.45 10.77 12.22"><g xmlns="http://www.w3.org/2000/svg" id="Mundaka">
<path d="M 215.45 64.49 215.4 64.45 215.1 64.43 215.09 64.43 215.08 64.42 215.07 64.42 215.05 64.42 215.04 64.42 215.03 64.42 215.02 64.42 215.01 64.42 215 64.42 214.98 64.42 214.97 64.42 214.96 64.42 214.95 64.41 214.94 64.41 214.93 64.41 214.92 64.41 214.91 64.4 214.9 64.4 214.89 64.4 214.87 64.4 214.86 64.39 214.85 64.39 214.83 64.39 214.82 64.39 214.81 64.38 214.79 64.38 214.78 64.38 214.77 64.37 214.75 64.37 214.74 64.37 214.73 64.37 214.72 64.36 214.7 64.36 214.69 64.36 214.68 64.36 214.67 64.35 214.66 64.35 214.65 64.35 214.64 64.35 214.63 64.35 214.62 64.36 214.61 64.36 214.6 64.36 214.6 64.36 214.59 64.36 214.58 64.36 214.57 64.36 214.56 64.36 214.55 64.35 214.54 64.35 214.53 64.34 214.52 64.34 214.51 64.33 214.5 64.32 214.49 64.32 214.49 64.32 214.48 64.31 214.47 64.31 214.46 64.31 214.46 64.3 214.45 64.3 214.44 64.29 214.43 64.29 214.42 64.28 214.41 64.27 214.41 64.27 214.4 64.26 214.39 64.26 214.39 64.25 214.38 64.25 214.37 64.24 214.37 64.23 214.36 64.23 214.35 64.22 214.34 64.22 214.33 64.22 214.32 64.21 214.32 64.21 214.31 64.2 214.3 64.2 214.29 64.19 214.28 64.19 214.27 64.18 214.26 64.18 214.25 64.17 214.24 64.16 214.23 64.15 214.22 64.15 214.2 64.14 214.19 64.13 214.18 64.13 214.17 64.12 214.16 64.12 214.15 64.11 214.14 64.1 214.13 64.1 214.12 64.09 214.11 64.09 214.1 64.08 214.09 64.08 214.08 64.07 214.07 64.07 214.05 64.07 214.04 64.06 214.02 64.06 214.01 64.05 213.99 64.05 213.98 64.05 213.97 64.04 213.96 64.04 213.95 64.04 213.94 64.03 213.93 64.03 213.92 64.03 213.91 64.03 213.9 64.02 213.89 64.02 213.88 64.02 213.87 64.02 213.86 64.02 213.85 64.02 213.84 64.02 213.82 64.02 213.81 64.02 213.79 64.02 213.78 64.03 213.77 64.03 213.76 64.03 213.75 64.03 213.74 64.03 213.73 64.03 213.72 64.03 213.71 64.04 213.71 64.04 213.7 64.05 213.69 64.06 213.67 64.06 213.66 64.07 213.65 64.07 213.63 64.08 213.62 64.09 213.61 64.09 213.61 64.1 213.6 64.1 213.59 64.11 213.58 64.11 213.58 64.12 213.57 64.12 213.56 64.12 213.56 64.12 213.54 64.13 213.53 64.13 213.52 64.14 213.52 64.15 213.51 64.16 213.51 64.17 213.5 64.17 213.49 64.17 213.48 64.18 213.48 64.18 213.47 64.19 213.46 64.19 213.45 64.2 213.45 64.2 213.44 64.21 213.43 64.22 213.42 64.22 213.41 64.23 213.4 64.23 213.39 64.24 213.39 64.24 213.38 64.25 213.37 64.25 213.36 64.26 213.36 64.27 213.35 64.28 213.34 64.29 213.34 64.29 213.33 64.3 213.33 64.31 213.32 64.32 213.31 64.32 213.31 64.33 213.3 64.34 213.29 64.34 213.29 64.35 213.28 64.36 213.28 64.36 213.27 64.37 213.26 64.37 213.26 64.38 213.25 64.39 213.24 64.4 213.24 64.41 213.24 64.41 213.23 64.42 213.23 64.43 213.22 64.44 213.21 64.45 213.21 64.46 213.2 64.47 213.19 64.48 212.99 64.56 212.3 64.87 211.91 65.02 211.19 65.27 210.39 65.55 210.06 65.71 210.28 66.25 210.72 67.35 210.82 67.6 209.63 67.63 209.05 67.64 209.01 66.91 208.9 66.44 208.03 65.52 207.87 65.15 207.82 65.04 208.7 64.33 207.63 64.17 207.4 64.08 207.3 64.07 207.24 64.08 207.19 64.09 207.15 64.11 207.12 64.12 207.09 64.14 207.07 64.15 207.06 64.16 207.05 64.17 207.04 64.18 207.03 64.19 207.01 64.2 207 64.21 206.98 64.23 206.97 64.24 206.96 64.26 206.93 64.28 206.79 64.45 206.58 64.61 206.37 64.66 206.31 64.67 206.15 64.63 206.02 64.51 206.05 64.5 206.06 64.49 206.07 64.49 206.08 64.48 206.09 64.47 206.1 64.46 206.1 64.45 206.11 64.44 206.11 64.43 206.11 64.42 206.11 64.41 206.11 64.4 206.11 64.39 206.11 64.38 206.1 64.37 206.1 64.36 206.09 64.35 206.09 64.34 206.08 64.33 206.07 64.32 206.07 64.31 206.06 64.3 206.05 64.29 206.04 64.28 206.03 64.27 206.01 64.26 206 64.25 205.99 64.24 205.98 64.23 205.96 64.22 205.95 64.21 205.94 64.21 205.92 64.2 205.91 64.19 205.9 64.18 205.88 64.18 205.87 64.17 205.86 64.17 205.85 64.17 205.84 64.16 205.83 64.16 205.82 64.15 205.81 64.15 205.8 64.14 205.79 64.14 205.78 64.13 205.77 64.12 205.76 64.12 205.74 64.01 205.75 63.92 206.35 63.72 206.75 63.58 207.07 63.51 207.13 63.51 208.21 63.12 208.7 62.75 210.54 61.16 210.82 60.29 210.8 59.96 210.79 59.84 210.79 59.78 210.85 59.56 210.85 59.44 210.82 59.33 210.82 59.27 210.84 58.97 210.87 58.86 210.95 58.78 211.01 58.69 211.13 58.56 211.17 58.33 211.19 58.26 211.28 58.05 211.29 57.94 211.31 57.84 211.3 57.63 211.28 57.45 211.27 57.4 211.25 57.3 211.22 57.26 211.13 57.18 211.02 57.1 210.79 57.01 210.78 56.98 210.72 56.95 210.64 56.9 210.6 56.86 210.58 56.83 210.55 56.39 210.85 56.36 211.02 56.04 210.89 55.57 210.97 55.55 210.94 55.47 211.01 55.45 211.21 56.15 211.33 56.23 211.44 56.21 211.49 56.19 211.5 56.19 211.51 56.19 211.52 56.21 211.53 56.22 211.59 56.28 211.62 56.31 211.65 56.35 211.66 56.36 211.68 56.37 211.69 56.37 211.69 56.36 211.7 56.34 211.71 56.32 211.72 56.31 211.73 56.31 211.75 56.33 211.76 56.35 211.77 56.36 211.78 56.37 211.81 56.38 211.82 56.38 211.83 56.38 211.83 56.37 211.83 56.36 211.84 56.35 211.84 56.34 211.85 56.33 211.88 56.33 211.91 56.32 211.96 56.3 211.96 56.3 211.97 56.29 211.97 56.28 211.97 56.28 211.96 56.27 211.95 56.26 211.95 56.23 211.96 56.22 211.97 56.22 211.98 56.22 212 56.22 212.02 56.24 212.03 56.25 212.06 56.25 212.08 56.26 212.11 56.26 212.12 56.26 212.13 56.26 212.14 56.28 212.18 56.3 212.19 56.3 212.2 56.3 212.21 56.3 212.24 56.3 212.25 56.3 212.25 56.36 212.25 56.38 212.25 56.42 212.26 56.43 212.26 56.44 212.28 56.44 212.3 56.44 212.3 56.44 212.32 56.45 212.34 56.45 212.35 56.45 212.35 56.46 212.36 56.47 212.36 56.48 212.36 56.49 212.37 56.49 212.38 56.49 212.4 56.5 212.41 56.5 212.42 56.51 212.43 56.52 212.44 56.52 212.45 56.52 212.46 56.51 212.47 56.51 212.48 56.51 212.5 56.51 212.55 56.51 212.56 56.52 212.56 56.52 212.57 56.54 212.57 56.54 212.57 56.56 212.58 56.57 212.58 56.59 212.58 56.61 212.58 56.62 212.59 56.63 212.61 56.63 212.62 56.64 212.63 56.65 212.63 56.67 212.65 56.71 212.65 56.72 212.65 56.75 212.65 56.76 212.66 56.77 212.67 56.78 212.68 56.79 212.7 56.79 212.72 56.8 212.72 56.8 212.75 56.8 212.76 56.8 212.76 56.79 212.77 56.78 212.78 56.78 212.79 56.74 212.79 56.74 212.8 56.71 212.8 56.69 212.82 56.68 212.82 56.67 212.83 56.67 212.84 56.68 212.85 56.71 212.85 56.72 212.85 56.73 212.86 56.75 212.86 56.77 212.87 56.79 212.87 56.8 212.88 56.81 212.91 56.81 212.92 56.81 212.93 56.82 212.95 56.83 212.96 56.84 212.98 56.87 212.99 56.88 213 56.88 213.01 56.87 213.02 56.85 213.02 56.85 213.03 56.84 213.04 56.84 213.05 56.85 213.06 56.85 213.07 56.84 213.08 56.82 213.09 56.81 213.1 56.8 213.12 56.78 213.13 56.77 213.14 56.77 213.15 56.77 213.16 56.78 213.17 56.79 213.21 56.8 213.22 56.8 213.24 56.81 213.25 56.82 213.27 56.82 213.29 56.82 213.3 56.82 213.31 56.82 213.33 56.82 213.35 56.84 213.36 56.85 213.37 56.86 213.37 56.88 213.38 56.91 213.38 56.92 213.38 56.94 213.38 56.95 213.39 56.96 213.39 56.97 213.39 56.98 213.38 56.99 213.36 57.01 213.33 57.04 213.32 57.05 213.31 57.06 213.32 57.07 213.32 57.1 213.32 57.12 213.32 57.15 213.32 57.17 213.32 57.18 213.33 57.19 213.33 57.19 213.35 57.2 213.4 57.2 213.41 57.2 213.43 57.2 213.44 57.2 213.45 57.21 213.48 57.24 213.48 57.25 213.49 57.26 213.49 57.26 213.49 57.28 213.5 57.28 213.52 57.28 213.57 57.28 213.58 57.28 213.6 57.26 213.61 57.26 213.64 57.25 213.65 57.25 213.65 57.24 213.66 57.24 213.68 57.24 213.7 57.25 213.71 57.26 213.71 57.27 213.71 57.27 213.71 57.29 213.72 57.32 213.72 57.33 213.73 57.38 213.73 57.39 213.74 57.4 213.76 57.4 213.77 57.4 213.78 57.4 213.8 57.39 213.81 57.39 213.83 57.38 213.84 57.39 213.86 57.42 213.89 57.45 213.91 57.49 213.93 57.52 213.94 57.54 213.96 57.55 213.97 57.56 214.01 57.59 214.02 57.6 214.03 57.6 214.04 57.6 214.05 57.58 214.06 57.57 214.07 57.58 214.07 57.58 214.08 57.59 214.08 57.61 214.09 57.62 214.1 57.62 214.11 57.62 214.11 57.62 214.14 57.61 214.16 57.61 214.17 57.61 214.18 57.61 214.19 57.59 214.2 57.59 214.21 57.6 214.22 57.6 214.23 57.59 214.23 57.58 214.24 57.56 214.25 57.54 214.26 57.53 214.28 57.51 214.3 57.5 214.3 57.49 214.31 57.47 214.32 57.46 214.33 57.46 214.34 57.46 214.36 57.47 214.38 57.48 214.39 57.5 214.4 57.5 214.42 57.51 214.44 57.52 214.45 57.53 214.47 57.54 214.48 57.55 214.5 57.57 214.51 57.58 214.51 57.59 214.51 57.6 214.51 57.63 214.51 57.64 214.5 57.64 214.49 57.64 214.48 57.64 214.47 57.64 214.45 57.64 214.44 57.64 214.43 57.64 214.42 57.64 214.39 57.66 214.38 57.67 214.38 57.68 214.4 57.69 214.41 57.7 214.41 57.71 214.4 57.72 214.4 57.72 214.39 57.73 214.33 57.76 214.31 57.77 214.3 57.78 214.28 57.8 214.27 57.81 214.27 57.82 214.28 57.82 214.29 57.82 214.31 57.83 214.31 57.83 214.32 57.84 214.31 57.85 214.3 57.87 214.29 57.88 214.29 57.9 214.29 57.93 214.3 57.94 214.3 57.94 214.31 57.96 214.33 57.98 214.33 57.99 214.34 58 214.34 58.02 214.34 58.03 214.35 58.05 214.36 58.05 214.36 58.07 214.35 58.08 214.34 58.08 214.33 58.09 214.31 58.09 214.3 58.1 214.3 58.12 214.29 58.12 214.29 58.13 214.25 58.13 214.24 58.13 214.23 58.13 214.22 58.13 214.21 58.13 214.2 58.17 214.2 58.18 214.2 58.19 214.21 58.21 214.21 58.22 214.21 58.23 214.21 58.24 214.21 58.25 214.2 58.25 214.2 58.26 214.21 58.27 214.22 58.27 214.22 58.28 214.22 58.29 214.23 58.29 214.23 58.3 214.24 58.31 214.26 58.32 214.28 58.33 214.3 58.35 214.3 58.36 214.31 58.37 214.31 58.38 214.31 58.4 214.29 58.43 214.28 58.45 214.27 58.45 214.26 58.49 214.26 58.5 214.26 58.51 214.26 58.52 214.26 58.53 214.28 58.56 214.28 58.56 214.29 58.57 214.3 58.57 214.31 58.56 214.33 58.56 214.37 58.56 214.4 58.56 214.43 58.57 214.44 58.58 214.45 58.58 214.45 58.59 214.46 58.6 214.46 58.61 214.46 58.63 214.47 58.67 214.47 58.67 214.48 58.68 214.48 58.69 214.5 58.69 214.51 58.69 214.51 58.7 214.52 58.71 214.52 58.72 214.52 58.78 214.52 58.78 214.53 58.79 214.54 58.79 214.55 58.79 214.57 58.81 214.58 58.82 214.58 58.83 214.59 58.84 214.6 58.85 214.6 58.86 214.6 58.87 214.6 58.88 214.59 58.88 214.56 58.89 214.55 58.89 214.56 58.94 214.56 58.95 214.58 58.94 214.59 58.94 214.59 58.94 214.6 58.92 214.6 58.91 214.61 58.91 214.63 58.91 214.65 58.92 214.66 58.93 214.67 58.93 214.68 58.93 214.72 58.95 214.72 58.96 214.72 58.97 214.71 58.99 214.7 59.04 214.7 59.05 214.7 59.07 214.72 59.08 214.73 59.09 214.73 59.11 214.74 59.13 214.74 59.15 214.74 59.16 214.74 59.18 214.74 59.2 214.74 59.22 214.73 59.22 214.71 59.24 214.7 59.24 214.68 59.25 214.68 59.26 214.68 59.27 214.68 59.27 214.7 59.28 214.72 59.28 214.73 59.28 214.73 59.29 214.73 59.3 214.73 59.32 214.72 59.34 214.72 59.34 214.72 59.35 214.73 59.36 214.73 59.37 214.74 59.38 214.75 59.38 214.77 59.36 214.79 59.35 214.85 59.33 214.88 59.3 214.89 59.3 214.9 59.3 214.9 59.31 214.91 59.31 214.91 59.32 214.92 59.32 214.92 59.33 214.93 59.35 214.93 59.37 214.93 59.38 214.94 59.4 214.94 59.4 214.95 59.4 214.96 59.41 214.97 59.41 214.98 59.4 215 59.39 215.01 59.39 215.02 59.39 215.03 59.38 215.03 59.37 215.03 59.35 215.03 59.33 215.02 59.32 215.03 59.32 215.04 59.31 215.05 59.3 215.07 59.31 215.07 59.31 215.08 59.31 215.09 59.32 215.1 59.35 215.11 59.36 215.11 59.37 215.12 59.36 215.12 59.35 215.13 59.34 215.14 59.34 215.14 59.35 215.14 59.36 215.15 59.38 215.15 59.39 215.16 59.38 215.17 59.36 215.17 59.35 215.18 59.34 215.19 59.33 215.21 59.31 215.22 59.31 215.24 59.31 215.24 59.31 215.25 59.3 215.26 59.28 215.27 59.26 215.27 59.25 215.28 59.24 215.3 59.24 215.3 59.24 215.35 59.22 215.39 59.21 215.41 59.21 215.43 59.21 215.47 59.2 215.48 59.2 215.49 59.2 215.5 59.2 215.51 59.21 215.51 59.22 215.52 59.23 215.52 59.26 215.52 59.28 215.52 59.29 215.52 59.3 215.52 59.3 215.5 59.31 215.49 59.31 215.49 59.32 215.49 59.33 215.49 59.37 215.48 59.38 215.46 59.41 215.46 59.42 215.46 59.44 215.49 59.45 215.5 59.47 215.51 59.49 215.53 59.51 215.54 59.52 215.54 59.53 215.54 59.59 215.54 59.6 215.54 59.6 215.52 59.64 215.52 59.64 215.52 59.65 215.54 59.66 215.55 59.67 215.55 59.67 215.55 59.76 215.55 59.78 215.55 59.81 215.55 59.82 215.54 59.86 215.54 59.88 215.54 59.91 215.54 59.99 215.53 60.03 215.53 60.04 215.52 60.05 215.51 60.06 215.52 60.16 215.51 60.17 215.5 60.18 215.47 60.18 215.47 60.17 215.46 60.16 215.46 60.14 215.45 60.1 215.45 60.07 215.44 60.06 215.42 60.04 215.4 60.04 215.3 60.04 215.23 60.05 215.21 60.06 215.22 60.12 215.21 60.15 215.2 60.17 215.19 60.18 215.15 60.2 215.13 60.2 215.11 60.2 215.07 60.18 215.05 60.18 215.02 60.19 214.99 60.2 214.98 60.21 214.97 60.25 214.97 60.26 215.01 60.26 215.05 60.27 215.06 60.27 215.07 60.27 215.08 60.3 215.09 60.37 215.1 60.39 215.1 60.39 215.11 60.4 215.11 60.4 215.17 60.39 215.17 60.32 215.18 60.27 215.2 60.27 215.22 60.27 215.22 60.28 215.23 60.29 215.23 60.3 215.24 60.32 215.24 60.34 215.25 60.39 215.27 60.42 215.27 60.45 215.28 60.49 215.29 60.5 215.29 60.5 215.32 60.5 215.33 60.49 215.36 60.48 215.37 60.47 215.37 60.45 215.36 60.43 215.36 60.4 215.36 60.36 215.36 60.3 215.36 60.24 215.37 60.22 215.37 60.21 215.38 60.21 215.4 60.21 215.4 60.21 215.41 60.21 215.42 60.22 215.42 60.23 215.42 60.37 215.46 60.35 215.48 60.35 215.53 60.34 215.54 60.35 215.56 60.37 215.58 60.4 215.61 60.45 215.65 60.51 215.69 60.56 215.69 60.58 215.68 60.59 215.67 60.6 215.66 60.62 215.66 60.65 215.68 60.68 215.69 60.7 215.71 60.72 215.72 60.73 215.73 60.76 215.74 60.81 215.74 60.83 215.73 60.86 215.72 60.88 215.71 60.89 215.7 60.88 215.67 60.85 215.66 60.85 215.64 60.86 215.63 60.87 215.64 60.89 215.66 60.95 215.66 60.97 215.65 60.99 215.63 60.99 215.59 60.98 215.57 60.97 215.57 60.99 215.6 61.02 215.63 61.04 215.64 61.05 215.65 61.1 215.65 61.14 215.64 61.17 215.65 61.19 215.66 61.2 215.67 61.19 215.67 61.18 215.68 61.18 215.69 61.18 215.72 61.2 215.76 61.25 215.77 61.27 215.77 61.29 215.76 61.31 215.75 61.33 215.75 61.39 215.74 61.4 215.73 61.4 215.72 61.38 215.71 61.36 215.7 61.35 215.68 61.33 215.66 61.33 215.65 61.33 215.63 61.36 215.6 61.36 215.59 61.36 215.58 61.37 215.58 61.39 215.6 61.43 215.6 61.46 215.61 61.47 215.63 61.5 215.64 61.51 215.64 61.55 215.63 61.56 215.58 61.57 215.51 61.55 215.48 61.53 215.43 61.53 215.42 61.54 215.4 61.55 215.4 61.56 215.38 61.57 215.36 61.57 215.23 61.55 215.21 61.54 215.19 61.52 215.11 61.51 215.09 61.5 215.07 61.5 215.02 61.51 214.98 61.51 214.98 61.52 214.97 61.54 214.98 61.57 214.98 61.59 214.98 61.61 214.98 61.63 214.94 61.7 214.91 61.77 214.89 61.78 214.88 61.82 214.86 61.85 214.86 61.87 214.86 61.88 214.96 61.94 214.98 61.95 215.02 61.95 215.04 61.95 215.07 61.96 215.09 61.96 215.16 61.96 215.19 61.98 215.21 61.98 215.23 61.99 215.26 62.01 215.36 62.06 215.41 62.1 215.43 62.12 215.48 62.18 215.5 62.2 215.52 62.23 215.55 62.23 215.56 62.22 215.57 62.21 215.58 62.16 215.6 62.15 215.67 62.15 215.73 62.17 215.75 62.17 215.77 62.18 215.79 62.21 215.81 62.26 215.82 62.27 215.86 62.31 215.88 62.34 215.88 62.36 215.89 62.37 215.88 62.4 215.86 62.45 215.86 62.47 215.86 62.56 215.87 62.59 215.89 62.61 215.91 62.62 215.96 62.63 215.98 62.65 216.01 62.7 216.02 62.73 216.02 62.76 216.01 62.78 216 62.8 216 62.82 216 62.84 216.01 62.86 216.03 62.91 216.07 62.95 216.11 62.99 216.12 63 216.13 63.04 216.14 63.07 216.16 63.1 216.21 63.16 216.26 63.24 216.27 63.27 216.28 63.32 216.28 63.35 216.28 63.38 216.29 63.41 216.33 63.47 216.36 63.53 216.37 63.59 216.37 63.65 216.37 63.67 216.37 63.7 216.36 63.73 216.35 63.75 216.31 63.78 216.29 63.78 216.28 63.78 216.27 63.77 216.27 63.77 216.26 63.76 216.25 63.75 216.24 63.74 216.24 63.73 216.24 63.72 216.22 63.72 216.21 63.73 216.19 63.74 216.18 63.75 216.17 63.76 216.16 63.78 216.15 63.8 216.14 63.83 216.14 63.88 216.14 63.92 216.13 63.98 216.13 64.01 216.14 64.02 216.16 64.02 216.19 64.02 216.22 64.01 216.22 64.02 216.22 64.03 216.21 64.05 216.21 64.06 216.21 64.08 216.21 64.09 216.21 64.1 216.23 64.12 216.24 64.14 216.24 64.17 216.25 64.17 216.25 64.17 216.3 64.17 216.31 64.18 216.32 64.2 216.33 64.23 216.33 64.24 216.34 64.25 216.35 64.27 216.36 64.28 216.37 64.29 216.38 64.31 216.38 64.31 216.38 64.34 216.38 64.38 216.38 64.43 216.39 64.44 216.39 64.44 216.41 64.47 216.42 64.48 216.43 64.48 216.44 64.49 216.48 64.51 216.49 64.52 216.5 64.53 216.5 64.53 216.5 64.6 216.5 64.61 216.5 64.63 216.49 64.63 216.49 64.64 216.47 64.65 216.46 64.65 216.45 64.65 216.43 64.65 216.4 64.64 216.39 64.63 216.36 64.63 216.35 64.62 216.33 64.61 216.28 64.58 216.26 64.56 216.25 64.54 216.25 64.54 216.23 64.52 216.23 64.52 216.22 64.52 216.2 64.52 216.19 64.52 216.15 64.54 216.12 64.55 216.11 64.56 216.1 64.57 216.08 64.57 216.07 64.58 216.04 64.58 215.98 64.57 215.96 64.57 215.94 64.58 215.9 64.62 215.88 64.63 215.86 64.63 215.84 64.63 215.83 64.64 215.79 64.63 215.79 64.63 215.78 64.63 215.77 64.63 215.74 64.61 215.73 64.61 215.73 64.6 215.72 64.58 215.71 64.58 215.69 64.57 215.66 64.54 215.64 64.53 215.61 64.52 215.59 64.5 215.56 64.49 215.5 64.48 215.49 64.48 215.48 64.48 215.45 64.49 Z M 215.59 59.77 215.59 59.74 215.61 59.72 215.61 59.71 215.62 59.7 215.65 59.7 215.66 59.7 215.66 59.71 215.67 59.72 215.68 59.71 215.69 59.69 215.69 59.69 215.7 59.68 215.71 59.68 215.71 59.68 215.72 59.69 215.73 59.7 215.73 59.71 215.73 59.74 215.73 59.77 215.72 59.78 215.72 59.79 215.71 59.8 215.7 59.82 215.69 59.83 215.67 59.82 215.66 59.83 215.65 59.83 215.65 59.84 215.64 59.85 215.63 59.85 215.62 59.86 215.61 59.87 215.6 59.88 215.6 59.88 215.59 59.89 215.59 59.9 215.58 59.9 215.57 59.89 215.56 59.88 215.56 59.87 215.57 59.86 215.57 59.85 215.59 59.85 215.59 59.84 215.59 59.83 215.59 59.77 Z M 213.18 56.76 213.16 56.75 213.16 56.75 213.16 56.74 213.15 56.71 213.15 56.69 213.16 56.68 213.16 56.67 213.17 56.67 213.18 56.67 213.19 56.67 213.22 56.69 213.23 56.71 213.24 56.73 213.24 56.74 213.25 56.75 213.26 56.76 213.26 56.78 213.25 56.79 213.24 56.79 213.24 56.79 213.21 56.77 213.19 56.77 213.19 56.77 213.18 56.76 Z"/>
</g></svg>