<svg xmlns="http://www.w3.org/2000/svg" version="1.2" baseProfile="tiny" stroke-linecap="round" stroke-linejoin="round" viewBox="160.35 60.83 33.22 36.52"><g xmlns="http://www.w3.org/2000/svg" id="Mungia">
<path d="M 174.01 60.86 174.86 61.13 176.22 61.47 177.4 61.94 178.46 62.27 179.47 62.68 180.23 63 180.59 63.18 181.84 63.56 183.34 64.07 183.79 63.64 183.74 63.42 183.64 63.09 183.57 63.05 183.68 62.97 183.79 62.87 183.92 62.8 183.94 62.74 183.82 62.56 183.64 62.34 183.61 62.25 183.63 62.18 183.71 62.17 183.82 62.17 183.92 62.2 184.08 62.28 184.22 62.3 184.31 62.35 184.38 62.34 184.4 62.29 184.45 62.09 184.5 62.07 184.58 62.06 184.63 62.1 184.69 62.18 184.69 62.24 184.55 62.37 184.55 62.45 184.58 62.54 184.62 62.56 184.82 62.54 184.88 62.54 184.96 62.59 185.07 62.73 185.14 62.84 185.26 63.01 185.34 63.03 185.55 63.13 185.66 63.12 185.74 63.06 185.72 62.83 185.71 62.52 185.74 62.45 185.99 62.17 186.29 61.87 186.43 61.78 186.47 61.78 186.59 61.81 186.6 61.84 186.61 62.03 186.62 62.14 186.67 62.17 186.99 62.28 187.31 62.38 187.44 62.38 187.81 62.15 187.95 62.01 188.12 61.94 188.39 62.24 188.62 62.41 188.71 62.49 188.81 62.51 189 62.51 189.05 62.54 189.16 62.75 189.22 62.8 189.3 62.78 189.45 62.62 189.53 62.59 189.67 62.62 189.74 62.7 189.91 62.72 190.21 62.65 190.29 62.62 190.38 62.67 190.39 62.94 190.42 63.01 190.65 63.1 190.68 63.15 190.61 63.24 190.6 63.28 190.63 63.32 190.78 63.32 190.89 63.41 190.94 63.52 191.16 63.63 191.19 63.69 191.17 63.8 191.21 63.87 191.23 64 191.37 64.02 191.51 63.96 191.6 63.99 191.61 64.06 191.62 64.23 191.65 64.31 191.72 64.29 191.92 64.14 192.08 64.18 192.17 64.22 192.38 64.26 192.39 64.34 192.4 64.61 192.43 64.81 192.54 65.08 192.57 65.2 192.59 65.3 192.6 65.46 192.65 65.59 192.68 65.63 192.64 65.8 192.63 65.85 192.65 65.99 192.6 66.15 192.57 66.21 192.56 66.25 192.59 66.35 192.63 66.41 192.69 66.44 192.71 66.54 192.69 66.61 192.61 66.68 192.6 66.71 192.72 66.83 192.86 66.93 192.92 67.02 192.96 67.04 193.03 67.16 193.05 67.25 193.05 67.39 193.03 67.47 193.03 67.53 193.1 67.66 193.11 67.73 193.13 67.89 193.14 67.99 193.17 68.12 193.2 68.18 193.37 68.32 193.46 68.45 193.52 68.54 193.54 68.66 193.54 68.7 193.26 68.68 192.37 67.58 192.11 66.04 192.07 65.81 191.98 65.62 191.77 65.4 191.56 65.56 191 65.1 190.73 65.14 190.6 65.57 190.25 65.5 190.1 66.17 189.62 66.35 189.63 66.55 189.64 66.69 189.43 67.06 189.34 67.22 189.3 67.53 189.18 67.68 188.86 68.1 188.72 68.2 188.72 68.3 188.69 68.36 188.68 68.35 188.66 68.34 188.21 68.56 188.28 68.93 188.07 69.42 187.84 69.17 187.7 69.37 187.49 69.22 187.15 69.22 186.94 68.98 186.74 68.96 186.73 68.95 186.7 69 186.67 69.08 186.61 69.28 186.54 69.47 186.57 69.51 186.57 69.58 186.67 69.62 186.91 69.89 187.02 69.83 186.98 70.24 187.24 70.24 187.42 70.4 187.34 70.79 186.94 70.68 186.75 71.05 186.91 71.12 186.72 71.39 186.79 71.41 186.85 71.42 186.89 71.4 186.97 71.31 187.01 71.29 187.06 71.29 187.15 71.14 187.65 71.19 187.63 71.36 187.71 71.39 188.26 71.36 189.41 72.06 189.26 72.53 188.84 72.84 188.04 72.38 187.91 72.15 187.51 71.85 187.15 71.85 186.76 71.99 186.79 72.11 186.69 72.15 186.65 72.16 186.49 72.67 186.97 73.04 186.88 73.13 187.22 73.32 187.33 74 187.06 73.95 187.03 74.06 186.5 73.98 186.46 73.84 186.02 73.73 185.85 73.91 185.46 74.2 184.98 73.78 185.21 73.53 184.85 73.2 184.51 72.53 183.82 72.68 183.5 73.63 183.18 74.17 183.09 74.39 182.97 74.65 182.53 74.82 182.6 74.95 182.47 75.01 182.4 74.96 182.26 74.89 182.21 74.91 182.32 75.14 182.23 75.17 182.3 75.36 182.71 75.24 182.71 75.17 182.94 75.07 182.97 74.9 183.22 74.89 183.22 75.03 183.32 75.19 183.45 74.94 183.4 74.72 183.49 74.38 184.05 74.61 183.94 74.72 184.19 74.93 184.41 74.78 184.64 74.62 184.7 74.66 184.74 74.73 184.83 74.77 184.96 74.83 185.04 74.91 185.13 74.9 185.27 74.96 185.25 75.07 186.05 75.74 186.02 76.12 185.57 76.13 185.1 76.73 185.41 76.99 185.32 77.41 185.43 77.44 185.33 77.67 185.08 77.6 185.08 77.53 184.95 77.36 184.37 77.38 184.05 77.39 183.96 77.24 183.39 77.3 183.35 77.76 183.25 77.81 183.57 78.07 183.4 78.24 183.1 77.94 182.89 78.03 182.76 77.95 182.58 77.88 182.38 77.96 182.34 78.27 182.31 78.31 182.36 78.45 182.37 78.51 182.43 78.72 182.51 78.8 182.55 78.84 182.59 78.9 182.61 78.95 182.63 79.06 182.64 79.11 182.66 79.18 182.68 79.24 182.72 79.31 182.72 79.36 182.69 79.4 182.68 79.42 182.48 79.44 182.48 79.33 182.38 79.35 182.38 79.47 182.37 79.54 182.47 79.74 182.46 79.85 182.54 80.05 182.72 80.13 182.74 80.22 182.8 80.34 182.92 80.43 182.96 80.53 182.95 80.61 182.98 80.91 183.03 80.97 183.05 81.02 183.05 81.06 182.96 81.09 182.93 81.17 182.96 81.24 183.09 82.12 183.53 82.41 183.49 82.51 183.44 82.44 183.23 83.03 183.39 83.07 183.42 83.31 183.62 83.28 183.75 83.63 183.6 83.69 183.66 83.94 183.9 83.96 184.64 84.15 184.87 84.87 185.38 84.96 185.21 86.28 184.89 86.07 184.87 86.11 184.85 86.14 184.84 86.18 184.82 86.22 184.82 86.24 184.81 86.28 184.81 86.31 184.8 86.34 184.78 86.35 184.76 86.37 184.72 86.39 184.7 86.41 184.67 86.45 184.66 86.46 184.64 86.48 184.62 86.49 184.58 86.49 184.55 86.49 184.52 86.5 184.5 86.52 184.47 86.55 184.45 86.57 184.42 86.58 184.39 86.59 184.36 86.61 184.35 86.62 184.32 86.65 184.3 86.68 184.25 86.73 184.22 86.78 184.17 86.83 184.14 86.87 184.12 86.89 184.09 86.91 184.07 86.92 184.03 86.93 183.98 86.95 183.94 86.96 183.89 86.99 183.87 87 183.83 87.02 183.79 87.03 183.73 87.05 183.66 87.07 183.61 87.08 183.57 87.1 183.55 87.12 183.54 87.14 183.53 87.16 183.51 87.2 183.48 87.23 183.45 87.26 183.42 87.28 183.38 87.3 183.33 87.33 183.3 87.35 183.26 87.37 183.22 87.41 183.17 87.45 183.14 87.48 183.12 87.48 183.1 87.48 183.07 87.47 183.05 87.45 183.02 87.43 182.97 87.41 182.92 87.38 182.71 87.23 182.68 87.23 182.65 87.27 182.63 87.27 182.57 87.26 182.54 87.28 182.53 87.29 182.49 87.31 182.44 87.31 182.43 87.3 182.38 87.29 182.34 87.27 182.29 87.23 182.27 87.23 182.22 87.21 182.21 87.17 182.18 87.14 182.17 87.14 182.06 87.16 182.01 87.15 181.04 88.07 179.99 89.31 179.71 89.58 178.99 90.05 177.98 90.93 177.56 91.64 177.31 91.44 176.46 92.27 176.63 92.44 176.17 92.77 176.59 93.16 175.69 94.8 174.74 94.79 174.18 96.42 174.01 96.52 173.95 96.53 173.84 96.49 173.71 96.5 173.6 96.5 173.54 96.47 173.45 96.35 173.4 96.3 173.27 96.19 173.12 96.11 172.44 96.28 172.5 97.34 172.03 96.98 171.45 96.63 171.31 96.77 170.84 95.99 170.08 95.38 169.33 95.45 168.7 95.51 167.54 95.26 167.42 95.48 166.94 95.38 165.94 94.95 165.49 94.81 164.84 94.6 164.11 94.05 163.43 93.31 162.94 92.58 162.36 92.15 161.42 91.73 161.35 91.52 161.25 91.47 161.05 91.33 161.02 91.09 160.95 90.84 160.86 90.71 160.67 90.66 160.62 90.6 160.56 90.43 160.35 90.06 160.7 89.62 161.01 89.34 161.21 89.13 161.32 88.94 161.38 88.7 161.42 88.63 161.49 88.54 161.62 88.45 161.77 88.41 161.93 88.34 161.96 87.69 162.15 87.49 162.54 87.5 162.77 87.54 163.13 87.54 163.18 87.53 163.32 87.44 163.5 87.35 163.75 87.33 163.76 87.17 163.79 87.06 163.76 86.97 163.63 86.8 163.58 86.52 164 86.67 164.08 86.6 164.89 86.83 164.93 86.79 165.04 86.6 165.05 86.49 165.11 86.29 165.24 86.06 165.3 85.99 165.48 85.83 165.55 85.8 165.7 85.82 165.87 85.86 166.04 85.96 166.25 85.95 166.5 85.85 166.63 85.67 166.7 85.64 166.73 85.6 166.53 85.21 166.47 85.02 166.21 84.51 166.14 84.17 166.01 83.91 165.89 83.77 165.6 83.55 165.65 83.33 165.62 83.19 165.54 82.9 165.5 82.66 165.47 82.42 165.76 81.8 166.36 80.63 167.67 80.2 169.11 79.78 170.15 78.84 169.56 78.16 169.35 76.88 169.15 76.91 169 76.93 168.89 76.98 168.77 77.07 168.71 77.22 168.64 77.28 168.46 77.33 168.26 77.32 168.1 77.29 167.96 77.23 167.85 77.13 167.61 76.7 167.42 76.52 167.26 76.12 167.16 75.99 167.11 75.94 167.08 75.86 167.11 75.66 167.17 75.33 167.22 75.22 167.32 75.03 167.36 74.98 167.51 74.92 167.55 74.86 167.56 74.77 167.51 74.67 167.3 74.55 167.24 74.48 167.25 74.33 167.47 73.76 167.45 73.61 167.37 73.48 167.51 73.38 167.58 73.31 167.64 73.2 167.55 73.13 167.5 73.04 167.51 72.92 167.56 72.78 167.57 72.68 167.55 72.61 167.5 72.54 167.54 72.51 167.59 72.5 167.66 72.47 167.93 72.45 168.07 72.5 168.16 72.52 168.27 72.53 168.48 72.6 168.65 72.69 168.78 72.75 168.87 72.72 169.35 72.71 169.6 72.69 169.62 72.68 169.64 72.62 169.64 72.15 169.69 72.05 169.75 72.02 169.89 72 169.95 71.97 170.32 71.64 170.34 71.59 170.36 71.49 170.4 71.42 170.44 71.42 170.51 71.42 170.58 71.5 170.64 71.51 170.71 71.56 170.76 71.54 170.81 71.55 170.94 71.58 171.05 71.58 171.11 71.6 171.21 71.57 171.56 71.42 171.69 71.38 171.99 71.39 172.06 71.38 172.1 71.32 172.25 71.28 172.56 71.2 172.6 71.16 172.51 70.96 172.51 70.86 172.51 70.76 172.68 70.31 172.74 70.15 172.76 70.12 172.8 70.08 172.88 70.05 172.96 70.04 173.02 70.01 173.05 70 173.09 69.98 173.14 69.94 173.18 69.86 173.34 69.68 173.33 69.44 172.98 69.35 173.57 68.19 173.75 66.13 174.05 65.24 174.12 64.39 174.73 62.94 174.69 62.87 174.56 62.7 174.43 62.38 174.19 61.9 174.1 61.5 174.01 60.86 Z M 188.16 70.83 187.8 70.76 187.81 70.74 187.81 70.72 187.82 70.7 187.82 70.67 187.82 70.65 187.82 70.63 187.83 70.59 187.84 70.57 187.85 70.55 187.86 70.54 187.87 70.53 187.88 70.53 187.9 70.53 187.92 70.53 188 70.56 188.04 70.55 188.07 70.53 188.1 70.51 188.12 70.51 188.16 70.51 188.18 70.52 188.2 70.56 188.22 70.58 188.23 70.59 188.25 70.59 188.26 70.58 188.28 70.57 188.29 70.55 188.3 70.54 188.31 70.53 188.33 70.53 188.35 70.54 188.37 70.54 188.39 70.54 188.43 70.54 188.44 70.54 188.48 70.55 188.5 70.55 188.44 70.65 188.36 70.67 188.41 70.76 188.36 70.83 188.26 70.77 188.16 70.83 Z M 187.56 70.46 187.63 70.04 187.64 69.68 187.7 69.68 187.74 69.7 187.78 69.72 187.81 69.74 187.82 69.75 187.86 69.74 187.9 69.74 187.92 69.74 187.97 69.8 187.95 69.84 187.92 70.24 187.89 70.23 187.89 70.33 187.85 70.35 187.82 70.36 187.73 70.39 187.63 70.43 187.56 70.46 Z"/>
</g></svg>