<svg xmlns="http://www.w3.org/2000/svg" version="1.2" baseProfile="tiny" stroke-linecap="round" stroke-linejoin="round" viewBox="234.7 108.08 20.72 22.85"><g xmlns="http://www.w3.org/2000/svg" id="Munitibar-Arbatzegi-Gerrikaitz">
<path d="M 242.42 108.13 243.01 108.41 243.86 108.65 244.14 108.79 245.17 108.84 245.81 109.02 246.12 109.42 246.42 110.44 248.9 109.96 249.98 110.45 250.9 112.12 250.95 112.2 251.82 112.67 252.67 113.03 253.26 112.95 253.44 112.88 253.88 112.76 254 112.75 254.25 112.73 255.41 113.26 255.24 113.37 255.21 113.39 255.18 113.42 255.02 113.58 255.01 113.59 254.92 113.71 254.88 113.76 254.83 113.84 254.82 113.86 254.79 113.92 254.78 113.93 254.78 113.95 254.77 113.96 254.76 113.97 254.76 113.99 254.75 114 254.75 114.01 254.74 114.02 254.74 114.02 254.73 114.04 254.73 114.05 254.72 114.06 254.71 114.07 254.71 114.08 254.7 114.09 254.69 114.1 254.69 114.11 254.68 114.12 254.67 114.13 254.66 114.14 254.65 114.15 254.65 114.16 254.64 114.17 254.62 114.19 254.61 114.2 254.6 114.22 254.59 114.24 254.59 114.25 254.58 114.27 254.58 114.27 254.58 114.28 254.57 114.31 254.57 114.33 254.56 114.38 254.55 114.39 254.54 114.44 254.54 114.45 254.53 114.51 254.53 114.53 254.53 114.55 254.53 114.57 254.53 114.61 254.53 114.62 254.53 114.66 254.52 114.69 254.52 114.71 254.52 114.72 254.51 114.79 254.49 114.86 254.48 114.92 254.46 114.98 254.46 115 254.46 115.01 254.46 115.03 254.45 115.04 254.45 115.05 254.45 115.06 254.45 115.07 254.45 115.08 254.44 115.09 254.44 115.1 254.44 115.11 254.45 115.12 254.45 115.13 254.45 115.14 254.46 115.15 254.47 115.16 254.47 115.18 254.47 115.19 254.47 115.2 254.46 115.2 254.45 115.21 254.43 115.24 254.42 115.27 254.41 115.29 254.41 115.32 254.39 115.35 254.38 115.37 254.37 115.41 254.35 115.43 254.35 115.44 254.34 115.45 254.33 115.46 254.33 115.47 254.32 115.48 254.32 115.49 254.31 115.5 254.31 115.51 254.31 115.52 254.3 115.53 254.3 115.53 254.3 115.54 254.3 115.56 254.3 115.56 254.31 115.57 254.31 115.58 254.31 115.58 254.32 115.6 254.32 115.61 254.33 115.62 254.34 115.64 254.34 115.65 254.35 115.66 254.35 115.68 254.36 115.69 254.37 115.71 254.37 115.72 254.38 115.73 254.38 115.75 254.39 115.76 254.39 115.78 254.4 115.8 254.4 115.81 254.41 115.83 254.41 115.85 254.42 115.86 254.42 115.87 254.42 115.89 254.43 115.9 254.43 115.91 254.43 115.93 254.43 115.94 254.43 115.95 254.43 115.96 254.43 115.97 254.43 115.98 254.43 116 254.43 116.01 254.43 116.02 254.43 116.04 254.43 116.05 254.43 116.06 254.43 116.08 254.42 116.09 254.42 116.1 254.42 116.11 254.42 116.12 254.41 116.13 254.4 116.14 254.36 116.17 254.35 116.18 254.34 116.19 254.34 116.19 254.33 116.2 254.32 116.21 254.32 116.22 254.31 116.23 254.3 116.24 254.29 116.25 254.28 116.26 254.28 116.27 254.27 116.28 254.27 116.29 254.26 116.31 254.26 116.31 254.26 116.32 254.25 116.33 254.25 116.34 254.25 116.35 254.25 116.36 254.24 116.38 254.24 116.4 254.24 116.42 254.24 116.44 254.24 116.45 254.25 116.46 254.25 116.47 254.25 116.48 254.25 116.5 254.25 116.51 254.26 116.52 254.26 116.53 254.26 116.54 254.27 116.55 254.27 116.56 254.28 116.57 254.28 116.58 254.29 116.58 254.3 116.59 254.3 116.6 254.32 116.61 254.33 116.62 254.34 116.63 254.35 116.64 254.36 116.65 254.37 116.65 254.38 116.67 254.39 116.67 254.41 116.68 254.42 116.69 254.42 116.69 254.43 116.7 254.45 116.71 254.46 116.71 254.48 116.72 254.5 116.73 254.51 116.74 254.52 116.75 254.54 116.75 254.55 116.76 254.56 116.77 254.58 116.78 254.59 116.78 254.6 116.79 254.61 116.79 254.62 116.8 254.63 116.8 254.64 116.81 254.65 116.81 254.65 116.82 254.66 116.82 254.67 116.83 254.68 116.85 254.69 116.86 254.69 116.87 254.69 116.87 254.69 116.88 254.7 116.89 254.7 116.9 254.7 116.91 254.7 116.92 254.69 116.94 254.69 116.95 254.69 116.96 254.69 116.97 254.68 116.98 254.68 117 254.67 117.01 254.67 117.03 254.66 117.04 254.65 117.06 254.65 117.07 254.65 117.08 254.64 117.09 254.64 117.1 254.63 117.11 254.63 117.12 254.63 117.13 254.62 117.15 254.62 117.16 254.61 117.19 254.6 117.21 254.59 117.23 254.59 117.25 254.59 117.26 254.58 117.28 254.58 117.3 254.57 117.31 254.57 117.33 254.57 117.34 254.56 117.36 254.56 117.37 254.56 117.38 254.56 117.4 254.55 117.43 254.55 117.45 254.55 117.47 254.54 117.49 254.54 117.51 254.54 117.54 254.54 117.56 254.54 117.57 254.54 117.59 254.54 117.61 254.54 117.63 254.53 117.66 254.53 117.68 254.52 117.71 254.52 117.73 254.52 117.74 254.52 117.75 254.51 117.78 254.51 117.8 254.51 117.81 254.51 117.82 254.51 117.83 254.5 117.84 254.5 117.86 254.5 117.86 254.49 117.88 254.49 117.9 254.48 117.9 254.48 117.91 254.46 117.93 254.34 118.03 254.34 118.04 254.34 118.06 254.33 118.08 254.32 118.11 254.31 118.14 254.29 118.16 254.26 118.19 254.25 118.2 254.24 118.22 254.22 118.23 254.19 118.24 254.17 118.24 254.15 118.24 254.14 118.24 254.13 118.24 254.11 118.24 254.09 118.25 254.08 118.25 254.07 118.26 254.06 118.26 254.05 118.26 254.04 118.26 254.03 118.27 253.99 118.31 253.43 118.32 252.39 118.68 252.38 118.69 252.21 118.94 252.06 118.99 251.98 119.13 251.97 119.14 251.78 120.01 251.31 120.98 251.23 121.15 250.81 121.57 250.78 121.68 250.75 121.84 250.71 121.97 250.72 122.09 250.71 122.13 250.63 122.45 250.53 122.62 249.94 123.47 249.84 123.56 249.66 123.67 249.25 124.01 249.17 124.16 249.08 124.35 249.02 124.45 248.75 124.8 248.76 124.97 248.75 124.99 246.18 129.99 246.09 130.19 246.08 130.21 246.04 130.26 245.79 130.63 245.51 130.57 243.78 130.09 243.6 130.01 242.83 129.66 242.27 129.83 242.22 129.86 241.88 130.01 239.83 130.91 239.73 130.6 239.64 130.01 239.63 129.99 239.63 129.97 239.63 129.95 239.63 129.93 239.62 129.9 239.62 129.88 239.62 129.86 239.62 129.84 239.63 129.82 239.63 129.8 239.63 129.78 239.63 129.76 239.64 129.73 239.64 129.71 239.65 129.68 239.66 129.66 239.66 129.63 239.67 129.61 239.67 129.59 239.67 129.57 239.68 129.56 239.68 129.54 239.68 129.53 239.69 129.51 239.69 129.48 239.69 129.45 239.7 129.42 239.7 129.39 239.7 129.36 239.7 129.33 239.7 129.3 239.7 129.28 239.7 129.26 239.7 129.23 239.7 129.21 239.69 129.17 239.67 129.08 239.57 129.06 239.03 128.93 239.01 128.93 238.98 128.92 238.94 128.91 238.91 128.9 238.87 128.89 238.84 128.88 238.8 128.87 238.78 128.86 238.76 128.86 238.74 128.85 238.72 128.84 238.71 128.83 238.69 128.82 238.68 128.82 238.67 128.81 238.66 128.81 238.65 128.8 238.64 128.79 238.63 128.79 238.61 128.77 238.59 128.76 238.57 128.75 238.56 128.74 238.54 128.73 238.53 128.71 238.5 128.69 238.48 128.67 238.45 128.65 238.43 128.63 238.4 128.61 238.38 128.59 238.35 128.57 238.32 128.54 238.29 128.52 238.27 128.49 238.24 128.47 238.21 128.44 238.19 128.42 238.16 128.4 238.14 128.37 238.12 128.35 238.1 128.32 238.07 128.3 238.05 128.27 238.03 128.25 238.01 128.22 237.99 128.2 237.97 128.17 237.95 128.15 237.93 128.14 237.92 128.12 237.91 128.1 237.89 128.09 237.88 128.07 237.87 128.07 237.72 127.99 237.39 127.79 236.87 127.61 236.63 127.47 236.58 127.44 236.57 127.43 236.55 127.41 236.53 127.4 236.51 127.38 236.49 127.36 236.48 127.34 236.46 127.33 236.45 127.32 236.45 127.31 236.44 127.31 236.44 127.3 236.43 127.29 236.42 127.29 236.42 127.27 236.41 127.26 236.41 127.24 236.4 127.23 236.4 127.21 236.4 127.2 236.34 126.88 236.1 126.51 236.65 125.88 236.79 125.75 237.37 125.4 237.77 125.06 237.89 121.98 237.89 121.9 238.02 121.4 237.97 120.96 237.87 120.74 237.75 120.29 237.88 119.83 237.51 119.9 237.36 119.78 237.18 119.44 237.13 119.27 237.13 118.85 237.08 118.55 235.47 117.6 235.39 117.36 235.34 117.13 235.29 116.88 235.28 116.67 235.3 116.1 235.17 115.9 235.17 115.73 235.13 115.7 235.11 115.69 235.08 115.67 235.07 115.65 235.01 115.5 234.94 115.31 234.92 115.26 234.88 115.2 234.84 115.13 234.8 115.09 234.75 115.03 234.72 114.97 234.72 114.93 234.73 114.87 234.78 114.83 234.83 114.81 234.88 114.78 234.97 114.72 235 114.62 234.91 114.49 234.97 114.44 234.98 114.39 234.96 114.33 234.96 114.27 235 114.15 235.03 113.96 235.09 113.92 235.11 113.8 235.2 113.38 235.2 112.71 234.91 112.34 235.75 110.97 235.79 110.96 235.95 110.5 236.1 110.47 236.14 110.16 237.91 109.33 237.95 109.24 238.17 109.28 238.53 109.05 238.76 109.04 240.02 108.63 241.03 108.27 241.2 108.11 242.1 108.12 242.41 108.12 242.42 108.13 Z M 250.85 119.68 250.99 119.57 251.15 119.44 251.29 119.24 251.23 118.97 250.9 118.94 250.45 119.08 250.37 119.45 250.39 119.59 250.4 119.6 250.49 119.63 250.78 119.66 250.85 119.68 Z" fill-rule="evenodd"/>
</g></svg>