<svg xmlns="http://www.w3.org/2000/svg" version="1.2" baseProfile="tiny" stroke-linecap="round" stroke-linejoin="round" viewBox="509.37 578.95 14.2 20.55"><g xmlns="http://www.w3.org/2000/svg" id="Murchante">
<path d="M 510.58 586.43 510.57 586.41 510.56 586.39 510.55 586.39 510.52 586.35 510.42 586.23 510.32 586.11 510.2 585.97 510.2 585.95 510.17 585.74 510.14 585.56 510.1 585.33 510.08 585.19 510.06 585.11 510.06 585.02 510.06 584.99 510.06 584.98 510.06 584.85 510.04 584.49 510.03 584.41 510.02 584.38 510.02 584.37 510 584.19 510 584.18 509.99 584.15 509.99 584.14 509.96 583.89 509.93 583.68 509.9 583.51 509.89 583.45 509.86 583.28 509.85 583.21 509.84 583.18 509.84 583.08 509.83 583.03 509.83 582.97 509.81 582.83 509.79 582.62 509.77 582.4 509.75 582.24 509.74 582.16 509.71 581.98 509.7 581.8 509.69 581.76 509.68 581.63 509.65 581.42 509.65 581.34 509.64 581.23 509.61 581.03 509.59 580.83 509.56 580.58 509.55 580.45 509.54 580.4 509.52 580.21 509.51 580.13 509.5 580.08 509.49 580.01 509.47 579.92 509.46 579.84 509.43 579.72 509.4 579.57 509.39 579.52 509.37 579.44 509.37 579.42 509.37 579.31 509.37 579.25 509.37 579.21 509.37 579.2 509.38 579.11 509.38 578.98 509.38 578.96 509.39 578.95 509.49 578.96 509.61 578.97 509.76 578.99 509.94 579 510.14 579.02 510.43 579.04 510.54 579.05 510.72 579.06 510.81 579.07 510.87 579.08 510.96 579.11 511.13 579.18 511.68 579.42 512.28 579.68 512.87 579.93 513.3 580.13 513.72 580.31 514 580.44 514.42 580.59 515.05 580.81 515.61 581 515.9 581.1 516.29 581.18 516.43 581.22 516.64 581.27 517.17 581.4 517.7 581.53 517.69 581.56 517.67 581.56 517.65 581.58 517.63 581.59 517.62 581.61 517.61 581.62 517.6 581.64 517.55 581.72 517.5 581.82 517.43 581.96 517.4 582.05 517.38 582.07 517.37 582.1 517.38 582.12 517.42 582.22 517.43 582.26 517.43 582.27 517.44 582.31 517.46 582.33 517.5 582.34 517.54 582.35 517.57 582.35 517.57 582.35 517.59 582.35 517.61 582.36 517.66 582.4 517.7 582.44 517.74 582.5 517.76 582.56 517.78 582.6 517.78 582.65 517.77 582.71 517.76 582.78 517.76 582.83 517.78 582.9 517.79 582.95 517.82 583.06 517.83 583.12 517.84 583.15 517.84 583.17 517.84 583.19 517.85 583.22 517.84 583.26 517.82 583.28 517.81 583.28 517.74 583.3 517.64 583.31 517.63 583.31 517.59 583.31 517.54 583.31 517.45 583.3 517.38 583.3 517.34 583.3 517.27 583.3 517.24 583.29 517.21 583.28 517.19 583.26 517.17 583.25 517.15 583.25 517.11 583.24 517.08 583.25 517.05 583.27 517.04 583.29 517.02 583.31 517 583.32 516.9 583.32 516.83 583.32 516.76 583.31 516.72 583.3 516.7 583.3 516.66 583.3 516.63 583.31 516.61 583.34 516.59 583.37 516.56 583.39 516.52 583.41 516.41 583.42 516.36 583.42 516.34 583.44 516.32 583.45 516.28 583.5 516.24 583.6 516.22 583.64 516.22 583.65 516.23 583.67 516.24 583.68 516.25 583.69 516.27 583.7 516.28 583.72 516.31 583.74 516.33 583.77 516.34 583.8 516.35 583.84 516.36 583.88 516.37 583.95 516.38 583.99 516.4 584.03 516.42 584.06 516.44 584.09 516.45 584.12 516.45 584.13 516.46 584.29 516.49 584.42 516.5 584.45 516.51 584.46 516.52 584.47 516.54 584.48 516.55 584.49 516.58 584.48 516.62 584.49 516.7 584.5 516.78 584.52 516.82 584.54 516.87 584.55 516.95 584.55 517.02 584.55 517.08 584.56 517.14 584.56 517.2 584.58 517.29 584.59 517.35 584.6 517.38 584.59 517.41 584.59 517.45 584.6 517.49 584.61 517.52 584.6 517.57 584.6 517.61 584.59 517.63 584.58 517.66 584.59 517.68 584.61 517.69 584.64 517.69 584.66 517.72 584.7 517.73 584.72 517.75 584.73 517.78 584.74 517.83 584.72 517.87 584.68 517.88 584.64 517.9 584.62 517.93 584.59 517.95 584.58 517.96 584.58 517.97 584.57 517.99 584.58 518.03 584.58 518.08 584.58 518.14 584.59 518.19 584.61 518.24 584.62 518.29 584.63 518.35 584.65 518.38 584.65 518.4 584.66 518.42 584.7 518.44 584.75 518.45 584.78 518.45 584.79 518.48 584.82 518.52 584.85 518.53 584.86 518.56 584.89 518.57 584.91 518.59 584.93 518.61 584.96 518.63 584.96 518.66 584.96 518.69 584.94 518.72 584.92 518.73 584.88 518.74 584.86 518.74 584.8 518.75 584.78 518.77 584.76 518.78 584.75 518.81 584.75 518.84 584.75 518.87 584.75 518.91 584.75 518.92 584.75 518.95 584.76 519 584.76 519.03 584.75 519.05 584.74 519.07 584.75 519.11 584.76 519.15 584.77 519.16 584.77 519.2 584.77 519.26 584.77 519.31 584.78 519.34 584.8 519.38 584.83 519.46 584.89 519.53 584.94 519.6 584.99 519.63 585 519.66 584.99 519.68 584.96 519.69 584.95 519.69 584.94 519.7 584.93 519.73 584.88 519.75 584.84 519.79 584.79 519.8 584.77 519.81 584.75 519.85 584.71 519.89 584.7 519.94 584.7 519.98 584.71 520 584.72 520.04 584.73 520.06 584.75 520.1 584.78 520.15 584.82 520.17 584.84 520.21 584.86 520.22 584.88 520.24 584.88 520.28 584.88 520.32 584.87 520.38 584.86 520.46 584.84 520.5 584.83 520.52 584.83 520.57 584.81 520.62 584.81 520.68 584.81 520.72 584.83 520.75 584.84 520.8 584.85 520.83 584.86 520.86 584.88 520.89 584.89 520.92 584.88 520.93 584.87 520.98 584.88 521.01 584.89 521.04 584.91 521.09 584.96 521.13 585.02 521.16 585.1 521.18 585.14 521.18 585.16 521.19 585.21 521.19 585.23 521.18 585.29 521.17 585.35 521.16 585.37 521.14 585.43 521.12 585.48 521.1 585.5 521.08 585.54 521.03 585.61 521.02 585.62 520.98 585.66 520.9 585.71 520.86 585.74 520.82 585.76 520.79 585.78 520.77 585.8 520.74 585.81 520.72 585.83 520.69 585.86 520.68 585.91 520.67 585.96 520.67 586.04 520.68 586.11 520.68 586.18 520.69 586.22 520.69 586.25 520.7 586.28 520.71 586.32 520.75 586.37 520.78 586.4 520.79 586.41 520.81 586.41 520.84 586.44 520.85 586.47 520.86 586.5 520.86 586.54 520.86 586.58 520.88 586.63 520.9 586.72 520.91 586.8 520.92 586.84 520.92 586.9 520.92 586.95 520.92 586.96 520.93 587.01 520.94 587.06 520.94 587.08 520.95 587.11 520.96 587.12 520.97 587.15 520.97 587.19 520.98 587.26 520.98 587.33 520.99 587.39 521 587.42 520.99 587.45 521 587.51 521 587.56 521.01 587.63 521.03 587.72 521.05 587.79 521.09 587.87 521.12 587.92 521.13 587.96 521.14 588 521.14 588.05 521.14 588.07 521.14 588.14 521.16 588.22 521.19 588.29 521.2 588.32 521.22 588.35 521.23 588.37 521.24 588.39 521.25 588.44 521.25 588.48 521.25 588.51 521.26 588.57 521.26 588.58 521.27 588.64 521.28 588.68 521.29 588.72 521.29 588.74 521.28 588.78 521.27 588.81 521.27 588.83 521.26 588.86 521.22 588.97 521.21 589.01 521.19 589.09 521.19 589.13 521.19 589.15 521.2 589.19 521.21 589.22 521.21 589.24 521.19 589.27 521.15 589.33 521.12 589.39 521.08 589.46 521.07 589.48 521.05 589.49 521.03 589.52 521.02 589.53 521.02 589.56 521.02 589.61 521.03 589.66 521.04 589.69 521.04 589.7 521.05 589.71 521.05 589.72 521.07 589.75 521.08 589.76 521.09 589.79 521.12 589.81 521.12 589.83 521.13 589.86 521.14 589.89 521.15 589.92 521.16 589.93 521.22 589.99 521.29 590.07 521.34 590.13 521.37 590.16 521.43 590.2 521.47 590.25 521.49 590.29 521.51 590.32 521.53 590.35 521.57 590.4 521.58 590.4 521.64 590.45 521.69 590.49 521.7 590.49 521.71 590.5 521.74 590.52 521.76 590.54 521.8 590.59 521.86 590.65 521.9 590.7 521.93 590.74 521.97 590.79 522 590.82 522.01 590.83 522.05 590.87 522.11 590.92 522.15 590.95 522.18 591 522.37 591.13 522.43 591.18 522.47 591.18 522.5 591.17 522.51 591.18 522.7 591.33 522.75 591.38 522.8 591.43 522.82 591.45 522.84 591.41 522.86 591.41 522.88 591.41 522.89 591.41 522.9 591.4 522.92 591.38 522.94 591.38 522.96 591.38 522.97 591.38 522.99 591.37 523.01 591.36 523.06 591.32 523.07 591.33 523.1 591.35 523.11 591.38 523.13 591.41 523.16 591.43 523.18 591.44 523.22 591.46 523.22 591.46 523.23 591.47 523.23 591.49 523.24 591.52 523.24 591.55 523.24 591.59 523.24 591.63 523.24 591.67 523.25 591.69 523.26 591.71 523.28 591.73 523.3 591.73 523.31 591.75 523.31 591.78 523.31 591.81 523.31 591.83 523.32 591.85 523.32 591.87 523.33 591.89 523.33 591.9 523.34 591.9 523.36 591.91 523.38 591.91 523.4 591.92 523.41 591.94 523.42 591.96 523.44 591.98 523.46 592 523.46 592.02 523.46 592.05 523.46 592.09 523.46 592.13 523.46 592.14 523.46 592.16 523.47 592.22 523.47 592.26 523.49 592.41 523.5 592.43 523.51 592.56 523.51 592.59 523.51 592.62 523.5 592.64 523.5 592.67 523.51 592.7 523.53 592.74 523.54 592.75 523.54 592.78 523.54 592.78 523.54 592.8 523.56 592.83 523.56 592.86 523.55 592.9 523.52 592.94 523.5 592.98 523.49 592.99 523.47 593.02 523.45 593.03 523.44 593.04 523.43 593.06 523.43 593.08 523.43 593.09 523.44 593.1 523.44 593.1 523.44 593.11 523.45 593.12 523.45 593.13 523.46 593.14 523.48 593.15 523.49 593.17 523.51 593.18 523.51 593.19 523.5 593.21 523.47 593.22 523.46 593.24 523.47 593.25 523.48 593.27 523.5 593.28 523.49 593.3 523.49 593.32 523.5 593.33 523.51 593.35 523.51 593.36 523.49 593.39 523.47 593.41 523.46 593.42 523.44 593.44 523.43 593.46 523.42 593.49 523.39 593.51 523.37 593.54 523.35 593.56 523.33 593.58 523.32 593.61 523.31 593.62 523.3 593.65 523.3 593.65 523.3 593.66 523.29 593.7 523.26 593.71 523.23 593.75 523.22 593.78 523.21 593.81 523.2 593.84 523.17 593.86 523.13 593.88 523.1 593.88 523.07 593.89 523.03 593.89 523.01 593.85 522.98 593.82 522.96 593.8 522.93 593.81 522.92 593.83 522.9 593.85 522.89 593.86 522.85 593.87 522.83 593.86 522.81 593.87 522.8 593.88 522.78 593.89 522.77 593.92 522.75 593.95 522.74 593.98 522.72 594.01 522.63 594.07 522.6 594.11 522.58 594.13 522.58 594.14 522.58 594.16 522.58 594.21 522.57 594.27 522.56 594.3 522.56 594.33 522.57 594.34 522.58 594.36 522.58 594.38 522.57 594.39 522.54 594.41 522.5 594.43 522.45 594.46 522.38 594.5 522.38 594.51 522.37 594.52 522.37 594.54 522.36 594.56 522.36 594.58 522.36 594.59 522.35 594.62 522.35 594.62 522.35 594.65 522.35 594.67 522.36 594.68 522.39 594.69 522.39 594.7 522.4 594.73 522.39 594.76 522.38 594.79 522.36 594.82 522.34 594.84 522.33 594.85 522.32 594.86 522.31 594.88 522.3 594.92 522.29 594.92 522.28 594.93 522.26 594.96 522.25 594.98 522.24 595 522.24 595.02 522.24 595.05 522.23 595.09 522.23 595.1 522.23 595.11 522.24 595.13 522.26 595.15 522.29 595.16 522.33 595.18 522.35 595.2 522.36 595.22 522.36 595.24 522.36 595.26 522.36 595.28 522.35 595.31 522.33 595.34 522.31 595.39 522.3 595.43 522.28 595.46 522.28 595.48 522.28 595.5 522.27 595.54 522.27 595.58 522.25 595.62 522.23 595.66 522.19 595.71 522.16 595.72 522.14 595.74 522.13 595.75 522.08 595.8 522.07 595.8 522.06 595.81 522 595.86 521.99 595.86 521.98 595.87 521.94 595.89 521.93 595.89 521.92 595.88 521.92 595.85 521.9 595.85 521.88 595.86 521.87 595.86 521.85 595.87 521.82 595.89 521.82 595.9 521.81 595.92 521.79 595.95 521.77 595.96 521.73 595.98 521.7 596 521.68 596.02 521.66 596.07 521.65 596.08 521.65 596.09 521.65 596.11 521.66 596.13 521.66 596.14 521.66 596.16 521.66 596.18 521.65 596.19 521.64 596.19 521.62 596.2 521.6 596.22 521.57 596.24 521.54 596.27 521.53 596.27 521.52 596.29 521.5 596.33 521.47 596.37 521.46 596.39 521.45 596.41 521.44 596.43 521.41 596.46 521.4 596.47 521.39 596.47 521.36 596.49 521.34 596.51 521.31 596.55 521.29 596.57 521.26 596.61 521.25 596.63 521.23 596.64 521.21 596.66 521.18 596.67 521.16 596.67 521.15 596.68 521.13 596.69 521.11 596.7 521.09 596.73 521.07 596.76 521.06 596.78 521.06 596.79 521.05 596.81 521.04 596.82 521.04 596.85 521.02 596.89 521 596.93 520.96 596.97 520.91 597 520.86 597.03 520.82 597.06 520.78 597.09 520.74 597.11 520.71 597.13 520.66 597.16 520.62 597.16 520.59 597.17 520.59 597.19 520.59 597.19 520.59 597.2 520.61 597.23 520.64 597.25 520.67 597.26 520.72 597.26 520.73 597.28 520.74 597.3 520.75 597.34 520.75 597.37 520.74 597.37 520.73 597.37 520.71 597.37 520.67 597.37 520.64 597.37 520.61 597.37 520.59 597.36 520.58 597.35 520.56 597.33 520.55 597.32 520.53 597.31 520.52 597.3 520.5 597.3 520.47 597.3 520.45 597.3 520.43 597.31 520.39 597.32 520.35 597.33 520.3 597.34 520.22 597.35 520.16 597.36 520.11 597.37 520.07 597.38 520.08 597.4 520.08 597.46 520.09 597.56 520.1 597.67 520.11 597.78 520.13 597.9 520.14 597.96 520.15 597.97 520.17 597.97 520.2 597.98 520.21 597.98 520.24 597.96 520.26 597.95 520.28 597.93 520.29 597.91 520.3 597.88 520.31 597.86 520.32 597.83 520.34 597.8 520.36 597.79 520.38 597.77 520.39 597.75 520.41 597.72 520.43 597.69 520.45 597.66 520.47 597.65 520.5 597.63 520.53 597.61 520.56 597.61 520.58 597.61 520.62 597.62 520.66 597.62 520.69 597.63 520.71 597.64 520.74 597.66 520.76 597.68 520.79 597.71 520.8 597.73 520.82 597.76 520.83 597.79 520.83 597.81 520.83 597.83 520.83 597.85 520.82 597.88 520.82 597.92 520.81 597.96 520.8 598.01 520.8 598.05 520.8 598.06 520.79 598.1 520.78 598.13 520.78 598.14 520.78 598.14 520.77 598.16 520.76 598.18 520.76 598.2 520.75 598.22 520.74 598.25 520.72 598.28 520.7 598.3 520.68 598.35 520.66 598.37 520.63 598.35 520.55 598.3 520.51 598.28 520.46 598.26 520.41 598.22 520.35 598.18 520.29 598.14 520.23 598.1 520.18 598.06 520.13 598.02 520.12 597.97 520.1 597.97 520.08 597.96 520.05 597.97 520.02 597.97 520 597.98 519.97 598 519.94 598.02 519.91 598.05 519.88 598.06 519.86 598.07 519.85 598.07 519.84 598.07 519.82 598.09 519.81 598.1 519.81 598.12 519.82 598.15 519.8 598.2 519.8 598.22 519.8 598.24 519.81 598.26 519.83 598.28 519.85 598.3 519.85 598.31 519.85 598.32 519.81 598.31 519.78 598.31 519.73 598.32 519.7 598.31 519.67 598.3 519.63 598.3 519.6 598.29 519.57 598.29 519.53 598.28 519.52 598.28 519.51 598.28 519.5 598.27 519.49 598.26 519.48 598.25 519.47 598.25 519.45 598.26 519.43 598.27 519.42 598.28 519.4 598.28 519.39 598.28 519.38 598.27 519.36 598.27 519.34 598.28 519.3 598.29 519.28 598.29 519.28 598.28 519.27 598.25 519.26 598.22 519.26 598.2 519.25 598.19 519.24 598.19 519.22 598.18 519.21 598.18 519.18 598.19 519.16 598.19 519.14 598.2 519.12 598.21 519.09 598.24 519.08 598.25 519.06 598.25 519.04 598.25 519 598.25 518.97 598.25 518.94 598.26 518.91 598.27 518.87 598.3 518.82 598.33 518.79 598.36 518.75 598.38 518.71 598.39 518.65 598.38 518.61 598.38 518.64 598.37 518.65 598.37 518.7 598.36 518.77 598.35 518.8 598.32 518.84 598.29 518.88 598.26 518.92 598.24 518.95 598.22 518.96 598.22 518.99 598.22 519.02 598.22 519.05 598.2 519.09 598.19 519.13 598.18 519.17 598.16 519.2 598.14 519.23 598.12 519.26 598.09 519.29 598.06 519.27 598.04 519.25 598.01 519.24 597.99 519.23 597.98 519.21 597.97 519.2 597.96 519.19 597.96 519.17 597.95 519.16 597.94 519.16 597.93 519.15 597.9 519.14 597.87 519.13 597.85 519.12 597.83 519.12 597.83 519.1 597.8 519.07 597.77 519.05 597.75 519.03 597.73 519.01 597.7 518.97 597.67 518.95 597.64 518.93 597.61 518.89 597.58 518.88 597.56 518.87 597.55 518.83 597.53 518.81 597.51 518.8 597.5 518.78 597.47 518.74 597.44 518.7 597.4 518.69 597.39 518.68 597.38 518.66 597.38 518.63 597.37 518.6 597.35 518.57 597.35 518.56 597.34 518.5 597.34 518.47 597.33 518.41 597.31 518.36 597.29 518.34 597.29 518.33 597.29 518.31 597.28 518.31 597.24 518.3 597.2 518.3 597.19 518.29 597.15 518.28 597.16 518.27 597.17 518.24 597.18 518.23 597.18 518.19 597.21 518.09 597.26 518.01 597.3 517.94 597.33 517.91 597.34 517.83 597.37 517.74 597.4 517.68 597.42 517.61 597.44 517.58 597.46 517.53 597.48 517.49 597.5 517.47 597.51 517.42 597.54 517.38 597.56 517.38 597.57 517.38 597.58 517.39 597.62 517.41 597.68 517.43 597.72 517.44 597.73 517.45 597.74 517.46 597.75 517.46 597.77 517.45 597.81 517.41 597.89 517.41 597.91 517.36 598.01 517.33 598.06 517.31 598.08 517.29 598.11 517.27 598.13 517.25 598.15 517.24 598.18 517.22 598.25 517.2 598.33 517.11 598.3 516.96 598.25 516.84 598.2 516.75 598.17 516.74 598.16 516.72 598.18 516.71 598.2 516.69 598.2 516.64 598.18 516.65 598.17 516.66 598.14 516.68 598.13 516.69 598.12 516.69 598.11 516.7 598.07 516.7 598.05 516.69 598.04 516.46 597.87 516.45 597.86 516.52 597.72 516.59 597.58 516.56 597.56 516.52 597.54 516.51 597.53 516.5 597.52 516.49 597.51 516.56 597.42 516.59 597.39 516.6 597.37 516.57 597.35 516.56 597.35 516.54 597.36 516.51 597.39 516.48 597.42 516.45 597.44 516.41 597.47 516.38 597.49 516.35 597.51 516.33 597.52 516.31 597.52 516.29 597.52 516.27 597.53 516.25 597.53 516.21 597.53 516.18 597.53 516.15 597.53 516.11 597.52 516.09 597.52 516.05 597.5 515.99 597.49 515.97 597.49 515.95 597.48 515.91 597.47 515.87 597.46 515.83 597.46 515.8 597.46 515.78 597.46 515.73 597.47 515.71 597.47 515.68 597.48 515.66 597.49 515.65 597.51 515.65 597.52 515.65 597.56 515.65 597.59 515.66 597.61 515.68 597.63 515.7 597.65 515.72 597.68 515.74 597.7 515.76 597.73 515.78 597.76 515.79 597.8 515.79 597.83 515.78 597.87 515.76 597.91 515.75 597.93 515.73 597.94 515.7 597.96 515.66 597.97 515.63 598 515.6 598.02 515.56 598.04 515.53 598.06 515.52 598.08 515.51 598.09 515.51 598.11 515.51 598.13 515.52 598.14 515.54 598.17 515.55 598.18 515.57 598.21 515.57 598.24 515.57 598.25 515.57 598.3 515.55 598.32 515.53 598.36 515.5 598.39 515.48 598.42 515.43 598.46 515.37 598.51 515.34 598.53 515.33 598.55 515.31 598.59 515.28 598.65 515.27 598.72 515.25 598.77 515.22 598.81 515.18 598.87 515.12 598.93 515.09 598.97 515.07 599 515.06 599.03 515.04 599.06 515.03 599.12 515.01 599.18 515 599.21 514.96 599.25 514.88 599.31 514.81 599.34 514.78 599.36 514.74 599.37 514.71 599.38 514.68 599.4 514.63 599.43 514.57 599.46 514.54 599.49 514.54 599.47 514.53 599.46 514.52 599.46 514.51 599.46 514.51 599.46 514.43 599.47 514.35 599.47 514.26 599.46 514.21 599.46 514.19 599.45 514.16 599.44 514.11 599.4 514.07 599.35 514.03 599.3 514 599.24 513.97 599.19 513.93 599.12 513.9 599.05 513.9 599.03 513.89 599.01 513.87 598.97 513.86 598.92 513.86 598.9 513.85 598.88 513.85 598.83 513.86 598.81 513.86 598.8 513.86 598.78 513.86 598.75 513.85 598.71 513.85 598.7 513.85 598.68 513.85 598.65 513.84 598.61 513.83 598.58 513.82 598.51 513.81 598.47 513.79 598.42 513.76 598.34 513.73 598.22 513.72 598.2 513.69 598.05 513.66 597.95 513.66 597.93 513.64 597.86 513.6 597.71 513.58 597.67 513.56 597.62 513.56 597.61 513.51 597.52 513.44 597.38 513.41 597.31 513.4 597.28 513.4 597.27 513.39 597.26 513.33 597.1 513.28 596.95 513.26 596.86 513.23 596.79 513.2 596.71 513.2 596.7 513.17 596.64 513.13 596.54 513.1 596.47 513.08 596.4 513.04 596.32 512.99 596.23 512.92 596.12 512.87 596.03 512.86 596.02 512.84 595.98 512.83 595.95 512.81 595.91 512.8 595.87 512.79 595.86 512.77 595.81 512.76 595.75 512.72 595.59 512.68 595.47 512.64 595.35 512.6 595.24 512.55 595.13 512.54 595.12 512.53 595.1 512.53 595.09 512.51 595.06 512.48 595 512.46 594.95 512.42 594.87 512.4 594.84 512.4 594.83 512.39 594.82 512.34 594.76 512.3 594.7 512.26 594.64 512.22 594.59 512.21 594.58 512.2 594.56 512.14 594.47 512.11 594.42 512.08 594.37 512.04 594.3 512.02 594.27 512 594.22 511.97 594.17 511.94 594.13 511.92 594.08 511.88 594.01 511.87 593.99 511.86 593.97 511.86 593.96 511.84 593.93 511.82 593.89 511.81 593.87 511.81 593.85 511.78 593.78 511.77 593.75 511.77 593.72 511.76 593.69 511.76 593.67 511.76 593.64 511.76 593.62 511.76 593.6 511.76 593.58 511.76 593.56 511.76 593.54 511.77 593.46 511.78 593.42 511.79 593.38 511.79 593.36 511.79 593.32 511.79 593.28 511.79 593.23 511.78 593.19 511.78 593.15 511.78 593.07 511.79 593.02 511.8 593.02 511.81 592.98 511.82 592.95 511.82 592.94 511.83 592.92 511.84 592.89 511.86 592.84 511.88 592.78 511.89 592.72 511.89 592.66 511.9 592.63 511.9 592.61 511.9 592.59 511.89 592.55 511.88 592.49 511.87 592.43 511.88 592.38 511.89 592.31 511.9 592.23 511.92 592.14 511.94 592.05 511.97 591.95 512 591.86 512.03 591.76 512.05 591.7 512.11 591.59 512.16 591.51 512.17 591.49 512.17 591.49 512.18 591.47 512.21 591.41 512.27 591.32 512.3 591.26 512.33 591.18 512.34 591.1 512.33 591.01 512.33 590.92 512.32 590.84 512.32 590.78 512.31 590.77 512.3 590.7 512.29 590.68 512.27 590.6 512.25 590.5 512.23 590.43 512.21 590.37 512.2 590.32 512.18 590.28 512.15 590.21 512.08 590.08 512.07 590.05 512.07 590.04 512.04 589.95 512.01 589.85 512 589.83 512 589.81 512 589.8 511.99 589.75 511.99 589.68 511.99 589.62 512 589.59 512.02 589.47 512.04 589.32 512.07 589.18 512.11 589.05 512.15 588.94 512.18 588.82 512.2 588.75 512.2 588.69 512.2 588.68 512.2 588.67 512.2 588.65 512.2 588.62 512.19 588.57 512.19 588.56 512.2 588.51 512.2 588.49 512.21 588.43 512.23 588.36 512.23 588.35 512.24 588.3 512.24 588.24 512.24 588.19 512.23 588.16 512.2 588.13 512.17 588.08 512.14 588.04 512.1 588.01 512.06 587.97 512.05 587.97 512.02 587.93 511.97 587.88 511.94 587.85 511.94 587.84 511.9 587.79 511.87 587.74 511.85 587.71 511.82 587.69 511.79 587.66 511.75 587.62 511.71 587.58 511.68 587.55 511.64 587.5 511.63 587.49 511.58 587.43 511.57 587.43 511.54 587.39 511.5 587.34 511.48 587.32 511.46 587.29 511.4 587.24 511.35 587.19 511.34 587.17 511.28 587.12 511.27 587.09 511.25 587.06 511.2 587 511.14 586.93 511.06 586.85 510.97 586.77 510.85 586.67 510.84 586.66 510.74 586.58 510.71 586.54 510.69 586.53 510.61 586.45 510.58 586.43 Z"/>
</g></svg>