<svg xmlns="http://www.w3.org/2000/svg" version="1.2" baseProfile="tiny" stroke-linecap="round" stroke-linejoin="round" viewBox="557.95 439.32 29.45 21.77"><g xmlns="http://www.w3.org/2000/svg" id="Murillo el Fruto">
<path d="M 557.96 444.67 558.11 444.44 558.22 444.26 558.23 444.25 558.25 444.25 558.33 444.25 558.49 444.23 558.59 444.22 558.6 444.21 558.75 444.18 558.77 444.18 558.95 444.16 559 444.16 559.08 444.15 559.13 444.04 559.13 444.02 559.13 444.02 559.14 444.01 559.15 443.97 559.17 443.93 559.18 443.9 559.35 443.5 559.42 443.28 559.43 443.23 559.44 443.21 559.44 443.19 559.46 443.11 559.46 443.1 559.46 443.09 559.49 442.9 559.7 442.61 559.73 442.58 559.92 442.43 559.98 442.38 560.22 442.15 560.48 442.05 560.74 441.93 560.78 441.92 560.86 441.92 561.14 441.89 561.21 441.89 561.27 441.89 561.3 441.9 561.43 441.91 561.5 441.9 561.59 441.91 561.61 441.9 561.65 441.9 561.79 441.9 561.85 441.89 561.96 441.89 562.04 441.89 562.05 441.89 562.06 441.89 562.07 441.89 562.15 441.89 562.19 441.89 562.39 441.92 562.46 441.93 562.51 441.94 562.67 441.96 562.85 441.98 562.98 441.94 563.21 441.88 563.34 441.84 563.35 441.84 563.61 441.75 563.62 441.75 563.72 441.72 563.77 441.71 563.79 441.71 563.88 441.72 563.99 441.75 564.06 441.78 564.26 441.87 564.5 442.01 564.74 442.15 564.87 442.22 565.2 442.26 565.48 442.29 565.66 442.3 565.75 442.3 565.98 442.37 566.06 442.4 566.23 442.45 566.45 442.52 566.49 442.54 566.59 442.59 566.61 442.6 566.83 442.71 566.85 442.72 566.87 442.72 567.14 442.77 567.21 442.79 567.25 442.81 567.32 442.83 567.43 442.85 567.48 442.86 567.55 442.86 567.63 442.86 567.75 442.86 567.81 442.87 568.11 442.91 568.2 442.92 568.21 442.93 568.35 442.95 568.49 442.96 568.53 442.96 568.6 442.97 568.66 442.97 568.7 442.97 568.81 442.98 568.85 442.99 568.96 443 569.03 443.01 569.06 443.01 569.12 443.04 569.2 443.07 569.28 443.1 569.34 443.13 569.67 443.26 569.95 443.23 569.97 443.23 570.39 443.39 570.79 443.2 570.81 443.19 570.85 443.19 570.87 443.19 570.94 443.17 570.99 443.16 571.03 443.15 571.09 443.12 571.14 443.1 571.17 443.08 571.24 443.04 571.31 443 571.38 442.98 571.48 442.94 571.6 442.9 571.72 442.86 571.82 442.82 571.92 442.79 571.97 442.77 571.98 442.76 572.04 442.71 572.08 442.67 572.14 442.61 572.18 442.58 572.2 442.56 572.25 442.53 572.33 442.48 572.38 442.45 572.45 442.41 572.48 442.39 572.5 442.37 572.53 442.35 572.56 442.32 572.68 442.21 572.81 442.08 572.94 441.96 573.1 441.79 573.13 441.77 573.28 441.78 573.53 441.8 573.82 441.82 574.1 441.84 574.15 441.85 574.18 441.85 574.33 441.91 574.55 442.01 574.75 442.1 574.82 442.1 575.04 442.12 575.18 442.12 575.32 442.14 575.4 442.09 575.48 442.05 575.59 442 575.65 441.96 575.81 441.84 575.94 441.74 575.95 441.73 576.06 441.64 576.11 441.61 576.13 441.58 576.19 441.53 576.2 441.52 576.21 441.51 576.23 441.5 576.25 441.48 576.29 441.46 576.37 441.44 576.49 441.39 576.5 441.39 576.53 441.38 576.62 441.35 576.69 441.32 576.73 441.31 576.79 441.29 576.84 441.27 576.86 441.26 576.93 441.21 577.02 441.14 577.13 441.06 577.21 441.01 577.24 440.97 577.33 440.9 577.44 440.8 577.52 440.72 577.62 440.62 577.63 440.62 577.66 440.6 577.68 440.56 577.72 440.53 577.75 440.48 577.77 440.46 577.79 440.43 577.81 440.4 577.85 440.35 577.87 440.31 577.88 440.29 577.88 440.29 577.89 440.24 577.9 440.2 577.91 440.17 577.95 440.16 578.04 440.17 578.1 440.19 578.18 440.22 578.23 440.24 578.25 440.25 578.26 440.26 578.27 440.26 578.3 440.27 578.34 440.29 578.41 440.32 578.48 440.33 578.57 440.33 578.63 440.34 578.73 440.35 578.78 440.36 578.86 440.37 578.91 440.39 579.01 440.4 579.06 440.42 579.14 440.43 579.18 440.44 579.26 440.43 579.31 440.43 579.37 440.41 579.47 440.37 579.54 440.34 579.59 440.32 579.64 440.32 579.71 440.32 579.76 440.33 579.82 440.35 579.87 440.37 579.95 440.39 580.01 440.42 580.07 440.44 580.12 440.47 580.19 440.49 580.29 440.53 580.33 440.54 580.39 440.53 580.47 440.53 580.51 440.52 580.55 440.52 580.6 440.5 580.65 440.48 580.71 440.45 580.78 440.41 580.82 440.38 580.89 440.34 580.95 440.31 581.01 440.27 581.04 440.23 581.07 440.19 581.08 440.16 581.09 440.13 581.09 440.1 581.13 440.03 581.17 439.96 581.22 439.89 581.26 439.83 581.3 439.78 581.37 439.7 581.4 439.67 581.44 439.65 581.48 439.62 581.52 439.6 581.55 439.6 581.59 439.59 581.67 439.59 581.72 439.59 581.78 439.61 581.82 439.63 581.89 439.67 582 439.73 582.05 439.76 582.13 439.8 582.16 439.81 582.22 439.79 582.28 439.77 582.55 439.65 582.69 439.59 582.86 439.53 583.03 439.47 583.12 439.44 583.16 439.44 583.21 439.45 583.25 439.45 583.36 439.42 583.51 439.37 583.65 439.33 583.71 439.32 583.79 439.33 583.83 439.33 583.9 439.36 583.94 439.38 584 439.42 584.1 439.5 584.29 439.65 584.39 439.72 584.41 439.73 584.44 439.75 584.49 439.8 584.53 439.82 584.6 439.87 584.64 439.9 584.68 439.92 584.72 439.95 584.76 439.99 584.78 440 584.8 440.02 584.84 440.04 584.91 440.08 584.92 440.09 584.95 440.09 585.04 440.06 585.08 440.03 585.15 440 585.17 440 585.29 440.06 585.4 440.11 585.52 440.16 585.63 440.22 585.75 440.27 585.86 440.32 585.94 440.36 585.89 440.43 585.79 440.53 585.66 440.71 585.6 440.79 585.5 440.94 585.41 441.06 585.32 441.22 585.21 441.39 585.11 441.56 584.99 441.75 584.86 441.98 584.75 442.16 584.64 442.33 584.53 442.51 584.42 442.68 584.34 442.82 584.23 443.08 584.18 443.22 584.09 443.4 583.94 443.63 583.82 443.85 583.72 444.03 583.65 444.14 583.59 444.22 583.52 444.35 583.46 444.51 583.4 444.69 583.34 444.92 583.3 445.13 583.27 445.29 583.23 445.5 583.21 445.61 583.2 445.78 583.2 445.96 583.21 446.09 583.23 446.21 583.27 446.38 583.32 446.51 583.41 446.63 583.48 446.74 583.58 446.82 583.72 446.92 583.88 447.03 583.99 447.1 584.04 447.13 584.15 447.2 584.26 447.28 584.35 447.36 584.41 447.45 584.45 447.55 584.46 447.68 584.46 447.81 584.42 447.94 584.37 448.08 584.3 448.22 584.25 448.35 584.21 448.47 584.18 448.58 584.15 448.76 584.14 448.93 584.12 449.09 584.12 449.23 584.13 449.38 584.14 449.51 584.17 449.67 584.21 449.81 584.25 449.91 584.29 449.99 584.35 450.07 584.41 450.13 584.49 450.18 584.6 450.24 584.71 450.29 584.91 450.38 585.07 450.48 585.16 450.54 585.29 450.64 585.39 450.75 585.47 450.85 585.55 450.95 585.6 451.02 585.66 451.11 585.7 451.19 585.74 451.25 585.79 451.32 585.82 451.37 585.86 451.4 585.91 451.43 585.96 451.44 586.01 451.46 586.08 451.48 586.14 451.48 586.18 451.49 586.22 451.48 586.25 451.46 586.31 451.43 586.37 451.39 586.46 451.34 586.52 451.32 586.56 451.31 586.6 451.31 586.64 451.31 586.7 451.32 586.76 451.34 586.81 451.35 586.92 451.34 586.98 451.35 587.01 451.36 587.03 451.38 587.05 451.43 587.09 451.52 587.13 451.64 587.2 451.76 587.26 451.9 587.31 451.98 587.34 452.05 587.37 452.13 587.37 452.19 587.37 452.27 587.36 452.35 587.36 452.44 587.34 452.53 587.32 452.62 587.29 452.68 587.25 452.73 587.22 452.77 587.21 452.8 587.2 452.83 587.2 452.88 587.2 452.96 587.19 453.04 587.16 453.1 587.11 453.17 587.05 453.23 586.98 453.29 586.91 453.33 586.83 453.38 586.78 453.42 586.72 453.48 586.64 453.56 586.57 453.62 586.55 453.63 586.47 453.72 586.39 453.8 586.31 453.89 586.22 453.98 586.1 454.09 586.01 454.15 585.9 454.21 585.76 454.27 585.63 454.3 585.57 454.32 585.5 454.33 585.41 454.34 585.33 454.35 585.29 454.35 585.24 454.34 585.19 454.3 585.16 454.26 585.13 454.19 585.1 454.12 585.07 454.03 585.04 453.96 585 453.89 584.95 453.84 584.91 453.81 584.87 453.79 584.82 453.77 584.76 453.77 584.7 453.77 584.65 453.78 584.57 453.81 584.52 453.83 584.45 453.84 584.34 453.85 584.19 453.84 584.09 453.84 584.01 453.85 583.91 453.87 583.83 453.9 583.74 453.91 583.65 453.91 583.54 453.91 583.48 453.91 583.3 453.94 583.08 453.97 582.99 453.98 582.89 453.99 582.83 453.99 582.6 453.99 582.37 453.99 582.15 454.01 581.9 454.03 581.67 454.06 581.46 454.12 581.19 454.19 580.96 454.26 580.85 454.31 580.75 454.36 580.62 454.44 580.49 454.52 580.36 454.59 580.23 454.67 580.11 454.74 579.99 454.82 579.86 454.92 579.73 455.04 579.61 455.16 579.5 455.27 579.39 455.39 579.26 455.52 579.17 455.6 579.04 455.68 578.88 455.77 578.74 455.84 578.58 455.92 578.39 456 578.26 456.03 578.08 456.06 577.95 456.08 577.81 456.09 577.67 456.09 577.54 456.1 577.41 456.09 577.29 456.08 577.17 456.05 577.07 456.03 576.97 456 576.88 455.99 576.81 455.99 576.68 455.98 576.52 455.96 576.35 455.93 576.17 455.88 575.95 455.82 575.83 455.79 575.82 455.78 575.81 455.78 575.8 455.78 575.79 455.77 575.72 455.75 575.6 455.7 575.52 455.66 575.44 455.63 575.37 455.6 575.3 455.59 575.25 455.58 575.23 455.59 575.2 455.59 575.14 455.61 575.08 455.62 575.02 455.63 574.94 455.64 574.83 455.64 574.73 455.64 574.66 455.66 574.58 455.67 574.48 455.69 574.39 455.7 574.28 455.7 574.16 455.7 574.05 455.69 573.94 455.67 573.82 455.65 573.72 455.63 573.61 455.62 573.54 455.62 573.45 455.62 573.3 455.63 573.21 455.64 573.1 455.67 573.02 455.7 572.95 455.75 572.89 455.79 572.83 455.85 572.78 455.89 572.72 455.96 572.66 456.03 572.55 456.13 572.48 456.21 572.4 456.28 572.34 456.36 572.24 456.49 572.15 456.59 572.1 456.68 572.03 456.82 571.96 456.95 571.88 457.09 571.78 457.24 571.68 457.4 571.62 457.51 571.57 457.61 571.5 457.82 571.46 457.93 571.43 458.03 571.4 458.17 571.38 458.26 571.31 458.49 571.28 458.65 571.26 458.73 571.26 458.84 571.26 458.9 571.27 458.95 571.28 459.02 571.31 459.11 571.32 459.17 571.31 459.23 571.29 459.33 571.27 459.4 571.26 459.45 571.25 459.46 571.25 459.49 571.26 459.52 571.26 459.54 571.26 459.57 571.24 459.64 571.23 459.72 571.21 459.8 571.19 459.87 571.16 459.94 571.12 460 571.09 460.07 571.07 460.12 571.05 460.17 571.05 460.2 571.05 460.23 571.04 460.26 571.03 460.27 571.01 460.3 570.95 460.34 570.88 460.39 570.73 460.47 570.59 460.56 570.44 460.64 570.31 460.71 570.2 460.78 570.08 460.85 569.94 460.91 569.79 460.96 569.65 461.02 569.6 461.03 569.51 461.04 569.38 461.05 569.2 461.06 569.02 461.03 568.86 461.03 568.65 461.02 568.44 461.01 568.21 460.98 567.97 460.94 567.73 460.89 567.47 460.82 567.25 460.74 567.03 460.67 566.88 460.62 566.69 460.53 566.55 460.46 566.42 460.41 566.24 460.35 566.11 460.31 565.97 460.28 565.85 460.26 565.7 460.25 565.6 460.25 565.48 460.26 565.35 460.28 565.17 460.31 564.94 460.37 564.81 460.4 564.57 460.42 564.36 460.43 564.18 460.43 563.99 460.43 563.82 460.41 563.66 460.4 563.46 460.37 563.3 460.33 563.19 460.33 563.06 460.16 563.05 460.15 562.89 459.93 562.88 459.92 562.8 459.82 562.65 459.63 562.54 459.49 562.54 459.49 562.51 459.43 562.47 459.37 562.38 459.22 562.19 458.91 562.03 458.67 561.9 458.49 561.76 458.29 561.58 458.07 561.39 457.85 561.2 457.65 561.06 457.51 560.86 457.4 560.76 457.34 560.73 457.33 560.66 457.29 560.61 457.27 560.49 457.23 560.4 457.17 560.38 457.15 560.36 457.14 560.35 457.13 560.24 457.04 560.23 457.04 560.22 457.03 560.11 456.93 560.1 456.92 560.1 456.91 559.82 456.65 559.81 456.64 559.79 456.62 559.77 456.6 559.74 456.58 559.72 456.54 559.59 456.15 559.59 456.14 559.59 456.13 559.58 456.12 559.58 456.11 559.58 456.1 559.57 456.09 559.57 456.08 559.39 455.42 559.24 454.91 559.22 454.84 559.2 454.75 559.18 454.63 559.15 454.52 559.13 454.38 559.12 454.29 559.11 454.28 559.06 454.17 559.03 454.09 558.99 453.99 558.98 453.93 558.81 453.66 558.81 453.66 558.79 453.6 558.78 453.59 558.76 453.52 558.75 453.48 558.72 453.34 558.7 453.28 558.64 453 558.6 452.83 558.58 452.78 558.58 452.77 558.54 452.6 558.52 452.54 558.46 452.28 558.45 452.18 558.4 452.04 558.37 451.92 558.35 451.79 558.32 451.7 558.32 451.68 558.28 451.51 558.24 451.3 558.23 451.27 558.22 451.23 558.2 451.11 558.17 450.98 558.17 450.95 558.16 450.92 558.15 450.79 558.11 450.66 558.07 450.52 558.02 450.34 558.02 450.26 557.98 449.98 557.98 449.95 557.97 449.89 557.97 449.87 558 449.74 558.02 449.67 558.03 449.62 558.03 449.57 558.04 449.47 558.05 449.44 558.06 449.37 558.07 449.24 558.08 449.19 558.1 449.08 558.1 449.02 558.12 448.85 558.15 448.65 558.15 448.58 558.17 448.52 558.17 448.48 558.18 448.42 558.17 448.37 558.17 448.34 558.17 448.32 558.24 448.17 558.27 448.1 558.37 447.87 558.4 447.76 558.41 447.73 558.42 447.64 558.42 447.61 558.44 447.53 558.47 447.38 558.48 447.28 558.48 447.25 558.48 447.23 558.51 447.12 558.52 447.02 558.52 446.97 558.52 446.95 558.53 446.8 558.54 446.58 558.55 446.5 558.55 446.47 558.55 446.41 558.55 446.35 558.55 446.34 558.54 446.23 558.54 446.1 558.53 445.99 558.53 445.74 558.52 445.71 558.52 445.67 558.51 445.62 558.51 445.57 558.51 445.53 558.51 445.48 558.5 445.36 558.5 445.34 558.49 445.31 558.48 445.25 558.48 445.23 558.45 445.21 558.41 445.17 558.37 445.13 558.26 445.01 558.18 444.91 558.14 444.86 558.11 444.83 558.05 444.76 557.97 444.68 557.96 444.67 Z"/>
</g></svg>