<svg xmlns="http://www.w3.org/2000/svg" version="1.2" baseProfile="tiny" stroke-linecap="round" stroke-linejoin="round" viewBox="369.37 346 11.1 10.25"><g xmlns="http://www.w3.org/2000/svg" id="Murieta">
<path d="M 369.37 346.71 369.39 346.68 369.42 346.61 369.42 346.6 369.42 346.59 369.46 346.54 369.5 346.48 369.57 346.44 369.63 346.4 369.7 346.36 369.8 346.3 369.88 346.26 369.98 346.2 370.09 346.15 370.2 346.1 370.28 346.08 370.31 346.07 370.33 346.06 370.35 346.06 370.35 346.06 370.45 346.04 370.54 346.03 370.55 346.03 370.67 346.02 370.77 346.01 370.9 346.01 371.01 346 371.13 346 371.18 346.01 371.27 346.03 371.38 346.05 371.51 346.07 371.62 346.08 371.77 346.09 371.87 346.11 371.92 346.11 371.97 346.11 372.08 346.11 372.17 346.11 372.2 346.11 372.21 346.11 372.23 346.11 372.34 346.1 372.46 346.11 372.57 346.12 372.65 346.13 372.7 346.18 372.79 346.24 372.91 346.35 373.04 346.46 373.17 346.57 373.3 346.68 373.42 346.78 373.55 346.9 373.65 346.97 373.74 347.01 373.82 347.06 373.92 347.09 373.96 347.11 373.99 347.12 374.1 347.15 374.13 347.16 374.19 347.18 374.27 347.2 374.33 347.21 374.38 347.21 374.43 347.2 374.46 347.21 374.53 347.21 374.64 347.23 374.79 347.24 374.89 347.25 374.93 347.26 374.97 347.28 375.02 347.3 375.06 347.33 375.12 347.37 375.18 347.4 375.26 347.45 375.27 347.46 375.28 347.47 375.33 347.5 375.4 347.54 375.46 347.6 375.52 347.64 375.6 347.7 375.7 347.79 375.79 347.87 375.87 347.93 375.94 347.99 375.99 348.04 376.06 348.1 376.14 348.17 376.21 348.23 376.26 348.28 376.29 348.32 376.32 348.35 376.35 348.37 376.37 348.39 376.38 348.4 376.4 348.43 376.46 348.48 376.5 348.53 376.54 348.59 376.57 348.64 376.61 348.68 376.65 348.73 376.69 348.78 376.73 348.83 376.75 348.86 376.78 348.9 376.81 348.93 376.85 348.95 376.9 348.97 376.94 348.98 376.96 349 376.99 349.02 377.04 349.08 377.07 349.13 377.08 349.16 377.11 349.18 377.15 349.2 377.23 349.22 377.3 349.25 377.32 349.26 377.35 349.29 377.37 349.32 377.4 349.37 377.43 349.42 377.45 349.5 377.49 349.58 377.53 349.66 377.55 349.69 377.56 349.71 377.58 349.77 377.61 349.89 377.64 349.98 377.67 350.06 377.69 350.1 377.74 350.14 377.79 350.19 377.83 350.24 377.86 350.28 377.89 350.32 377.9 350.33 377.93 350.38 377.94 350.4 377.97 350.47 378.01 350.55 378.05 350.65 378.11 350.76 378.14 350.85 378.18 350.94 378.19 350.98 378.2 351 378.21 351.01 378.21 351.02 378.24 351.08 378.29 351.13 378.35 351.2 378.41 351.26 378.46 351.32 378.5 351.36 378.54 351.41 378.61 351.47 378.68 351.54 378.72 351.57 378.73 351.58 378.76 351.6 378.89 351.7 378.99 351.77 379.06 351.82 379.07 351.83 379.11 351.86 379.13 351.87 379.16 351.88 379.27 351.91 379.37 351.95 379.48 351.98 379.57 352.01 379.66 352.03 379.74 352.04 379.82 352.04 379.87 352.05 379.99 352.08 380.06 352.11 380.18 352.14 380.29 352.18 380.31 352.18 380.36 352.2 380.41 352.22 380.44 352.23 380.43 352.25 380.4 352.39 380.4 352.4 380.39 352.42 380.39 352.44 380.38 352.48 380.37 352.5 380.34 352.47 380.3 352.43 380.27 352.4 380.25 352.39 380.22 352.37 380.21 352.37 380.2 352.37 380.19 352.38 380.18 352.39 380.16 352.41 380.14 352.43 380.12 352.45 380.12 352.47 380.12 352.49 380.12 352.51 380.13 352.54 380.14 352.56 380.15 352.58 380.15 352.6 380.15 352.61 380.14 352.64 380.13 352.66 380.11 352.68 380.06 352.7 380.03 352.72 380 352.73 379.95 352.75 379.91 352.77 379.89 352.77 379.86 352.77 379.82 352.76 379.72 352.71 379.68 352.69 379.63 352.69 379.58 352.67 379.54 352.65 379.5 352.63 379.43 352.57 379.41 352.56 379.38 352.56 379.35 352.56 379.31 352.56 379.28 352.57 379.24 352.59 379.2 352.63 379.17 352.66 379.13 352.7 379.1 352.72 379.07 352.74 379.03 352.76 378.97 352.76 378.92 352.78 378.86 352.78 378.83 352.79 378.81 352.8 378.79 352.84 378.74 352.89 378.71 352.91 378.67 352.93 378.63 352.95 378.6 352.95 378.58 352.94 378.55 352.91 378.52 352.88 378.47 352.82 378.44 352.77 378.42 352.75 378.41 352.73 378.41 352.71 378.41 352.67 378.41 352.65 378.4 352.62 378.38 352.6 378.35 352.6 378.3 352.59 378.26 352.59 378.2 352.59 378.15 352.59 378.09 352.59 378.04 352.58 377.98 352.58 377.92 352.58 377.86 352.58 377.8 352.59 377.74 352.59 377.66 352.6 377.57 352.63 377.49 352.65 377.39 352.66 377.29 352.68 377.23 352.69 377.18 352.7 377.16 352.7 377.09 352.69 377.03 352.66 376.98 352.64 376.91 352.62 376.86 352.6 376.83 352.6 376.82 352.6 376.8 352.61 376.77 352.62 376.74 352.62 376.71 352.61 376.67 352.59 376.64 352.59 376.63 352.59 376.61 352.61 376.6 352.64 376.58 352.67 376.58 352.71 376.58 352.72 376.58 352.74 376.61 352.76 376.62 352.78 376.63 352.79 376.64 352.81 376.64 352.83 376.63 352.88 376.62 352.99 376.62 353.04 376.6 353.09 376.59 353.13 376.58 353.15 376.56 353.17 376.55 353.18 376.54 353.2 376.43 353.18 376.42 353.17 376.41 353.16 376.4 353.15 376.4 353.13 376.41 353.1 376.44 353.06 376.46 353.02 376.46 352.99 376.46 352.97 376.45 352.97 376.44 352.97 376.41 352.97 376.38 352.98 376.33 353 376.28 353.02 376.21 353.05 376.19 353.07 376.17 353.07 376.15 353.06 376.11 353.03 376.08 353.02 376.05 353.02 376 353.02 375.93 353.04 375.88 353.05 375.86 353.06 375.85 353.08 375.84 353.1 375.83 353.12 375.82 353.13 375.77 353.14 375.74 353.15 375.72 353.16 375.71 353.18 375.69 353.19 375.67 353.2 375.63 353.22 375.59 353.23 375.56 353.25 375.53 353.26 375.51 353.27 375.47 353.29 375.43 353.33 375.39 353.37 375.37 353.4 375.33 353.44 375.29 353.49 375.26 353.53 375.23 353.56 375.2 353.6 375.19 353.62 375.15 353.65 375.1 353.67 375.06 353.69 375.05 353.7 375.01 353.74 374.97 353.77 374.93 353.81 374.92 353.82 374.9 353.85 374.87 353.89 374.83 353.93 374.8 353.95 374.76 353.97 374.73 353.99 374.71 353.99 374.67 354 374.63 353.99 374.59 353.97 374.56 353.94 374.52 353.91 374.48 353.84 374.41 353.89 374.37 353.91 374.35 353.92 374.32 353.92 374.29 353.92 374.17 353.91 374.12 353.9 374.09 353.9 374.07 353.89 374.05 353.88 374.04 353.87 374.01 353.86 373.97 353.86 373.94 353.86 373.91 353.87 373.89 353.88 373.88 353.91 373.88 353.94 373.89 353.97 373.9 354 373.91 354.01 373.92 354.04 373.93 354.07 373.92 354.09 373.91 354.11 373.85 354.15 373.81 354.18 373.76 354.21 373.72 354.23 373.66 354.25 373.62 354.27 373.6 354.29 373.58 354.31 373.55 354.36 373.52 354.41 373.5 354.45 373.48 354.51 373.46 354.55 373.44 354.59 373.42 354.62 373.39 354.64 373.38 354.66 373.36 354.67 373.37 354.68 373.37 354.71 373.38 354.74 373.39 354.79 373.39 354.83 373.39 354.86 373.4 354.9 373.42 354.94 373.43 354.96 373.43 354.99 373.43 355.09 373.44 355.17 373.43 355.21 373.42 355.23 373.4 355.25 373.39 355.26 373.36 355.29 373.33 355.33 373.31 355.36 373.31 355.36 373.32 355.38 373.34 355.44 373.36 355.5 373.37 355.52 373.37 355.54 373.36 355.56 373.32 355.61 373.3 355.64 373.29 355.65 373.26 355.68 373.23 355.71 373.21 355.74 373.2 355.76 373.19 355.77 373.17 355.84 373.16 355.87 373.13 355.92 373.12 355.95 373.1 356 373.09 356.01 373.08 356.03 373.06 356.05 373.04 356.08 373.01 356.12 372.98 356.16 372.96 356.18 372.93 356.2 372.92 356.21 372.91 356.21 372.89 356.22 372.88 356.21 372.87 356.21 372.86 356.14 372.86 356.05 372.86 355.9 372.86 355.84 372.84 355.77 372.81 355.7 372.78 355.65 372.74 355.6 372.71 355.55 372.67 355.49 372.65 355.46 372.63 355.4 372.62 355.36 372.61 355.35 372.6 355.33 372.53 355.23 372.5 355.2 372.47 355.18 372.24 355.08 372.09 355.01 372.07 355 372.07 354.92 371.47 354.71 371.13 354.74 370.85 354.82 370.85 354.82 370.77 354.79 370.72 354.77 370.59 354.64 370.34 354.42 370.43 354.32 370.51 354.23 370.52 354.21 370.52 354.2 370.54 354.07 370.54 354.02 370.54 353.99 370.55 353.92 370.56 353.89 370.56 353.85 370.34 353.77 370.32 353.76 370.29 353.75 370.22 353.77 370.2 353.77 370.2 353.73 370.21 353.69 370.2 353.63 370.19 353.55 370.17 353.47 370.17 353.43 370.16 353.4 370.15 353.38 370.14 353.34 370.12 353.3 370.09 353.25 370.08 353.23 370.06 353.19 370.03 353.14 370.02 353.1 370.01 353.08 370.01 353.01 370.01 352.86 370.01 352.75 370.01 352.73 370 352.72 369.98 352.67 369.92 352.4 369.92 352.34 369.93 352.33 369.94 352.27 369.94 352.26 369.95 352.17 369.96 352.11 369.96 352.05 369.97 352.03 369.97 351.98 369.98 351.94 370.02 351.61 370 351.58 370 351.57 370.01 351.54 370.14 351.22 370.23 351.01 370.24 350.97 370.25 350.96 370.28 350.89 370.32 350.79 370.32 350.78 370.32 350.78 370.32 350.76 370.32 350.73 370.33 350.69 370.34 350.66 370.37 350.62 370.4 350.59 370.41 350.57 370.41 350.54 370.43 350.44 370.47 350.33 370.52 350.19 370.52 350.17 370.54 350.13 370.61 350.03 370.62 350.02 370.61 350 370.6 349.98 370.59 349.94 370.57 349.9 370.56 349.86 370.56 349.83 370.55 349.81 370.54 349.76 370.56 349.71 370.57 349.7 370.58 349.69 370.6 349.66 370.6 349.64 370.63 349.57 370.65 349.51 370.66 349.5 370.66 349.48 370.69 349.45 370.7 349.42 370.73 349.38 370.76 349.33 370.79 349.3 370.83 349.25 370.86 349.22 370.88 349.19 370.88 349.18 370.88 349.16 370.88 349.13 370.88 349.11 370.89 349.07 370.89 349.04 370.89 349 370.85 348.94 370.84 348.93 370.7 348.69 370.7 348.68 370.54 348.41 370.52 348.37 370.47 348.29 370.41 348.21 370.39 348.18 370.38 348.15 370.32 348.09 370.3 348.06 370.28 348.04 370.26 348 370.26 348 370.22 347.87 370.21 347.86 370.17 347.76 370.15 347.71 370.14 347.67 370.1 347.56 370.06 347.44 370.03 347.34 370 347.27 369.97 347.21 369.93 347.14 369.87 347.07 369.81 346.99 369.75 346.93 369.72 346.9 369.37 346.71 Z"/>
</g></svg>