<svg xmlns="http://www.w3.org/2000/svg" version="1.2" baseProfile="tiny" stroke-linecap="round" stroke-linejoin="round" viewBox="213 76 12.83 9.27"><g xmlns="http://www.w3.org/2000/svg" id="Murueta">
<path d="M 220.22 76 220.28 76.03 220.3 76.07 220.26 76.55 221.15 76.56 221.16 76.73 221.15 76.79 221.14 76.85 221.13 76.91 221.11 76.96 221.09 77.01 221.06 77.06 221.04 77.11 221.03 77.15 221.02 77.17 221.01 77.2 221.01 77.22 221.01 77.23 221.01 77.26 221.01 77.28 221.02 77.3 221.02 77.33 221.03 77.36 221.04 77.39 221.05 77.41 221.06 77.45 221.07 77.46 221.09 77.48 221.11 77.5 221.13 77.53 221.14 77.54 221.18 77.58 221.69 78 221.76 78.09 221.78 78.14 221.8 78.19 221.82 78.25 221.83 78.3 221.82 78.36 221.8 78.42 221.79 78.48 221.74 78.58 221.71 78.63 221.47 79.01 221.45 79.04 221.44 79.07 221.44 79.08 221.43 79.13 221.43 79.3 221.44 79.36 221.52 79.56 221.53 79.58 221.55 79.7 221.55 79.82 221.54 79.88 221.53 79.99 221.51 80.1 221.5 80.16 221.48 80.21 221.46 80.27 221.44 80.31 221.42 80.33 221.41 80.36 221.41 80.37 221.39 80.4 221.36 80.44 221.35 80.46 221.26 80.74 221.25 80.8 221.37 81 221.41 81.02 221.44 81.02 221.47 81.03 221.5 81.03 221.51 81.03 222.04 80.93 222.21 80.86 222.23 80.85 222.48 80.63 222.78 80.59 223.01 80.43 223.02 80.43 223.37 80.42 223.51 80.5 223.74 80.62 224.33 80.86 224.62 81.01 224.66 81.03 224.84 81.13 224.86 81.16 224.89 81.19 224.92 81.22 224.95 81.25 224.97 81.27 224.99 81.3 225.02 81.34 225.03 81.37 225.04 81.39 225.04 81.41 225.05 81.43 225.05 81.45 225.06 81.47 225.06 81.49 225.06 81.51 225.06 81.53 225.07 81.56 225.07 81.58 225.07 81.6 225.07 81.62 225.07 81.64 225.07 81.66 225.07 81.68 225.07 81.7 225.07 81.72 225.07 81.74 225.06 81.75 225.06 81.77 225.06 81.79 225.05 81.8 225.05 81.82 225.04 81.84 225.04 81.86 225.03 81.88 225.02 81.9 225.02 81.91 225.01 81.93 225 81.95 225 81.97 224.99 81.98 224.98 82 224.97 82.01 224.97 82.03 224.96 82.04 224.95 82.06 224.95 82.07 224.94 82.08 224.93 82.1 224.93 82.11 224.92 82.12 224.92 82.14 224.92 82.15 224.92 82.16 224.92 82.17 224.92 82.18 224.92 82.2 224.92 82.21 224.92 82.22 224.92 82.23 224.92 82.24 224.92 82.25 224.93 82.27 224.93 82.28 224.93 82.29 224.94 82.3 224.94 82.31 224.95 82.32 224.96 82.33 224.97 82.34 224.98 82.35 224.99 82.36 225 82.37 225.01 82.38 225.02 82.39 225.03 82.4 225.05 82.41 225.06 82.41 225.07 82.42 225.09 82.43 225.1 82.44 225.12 82.45 225.13 82.46 225.15 82.47 225.16 82.47 225.18 82.48 225.2 82.49 225.23 82.51 225.25 82.52 225.28 82.53 225.3 82.54 225.33 82.55 225.35 82.56 225.38 82.57 225.4 82.58 225.42 82.59 225.45 82.6 225.47 82.61 225.49 82.62 225.51 82.62 225.53 82.63 225.55 82.64 225.57 82.64 225.59 82.65 225.61 82.66 225.63 82.66 225.65 82.66 225.67 82.67 225.69 82.67 225.71 82.68 225.72 82.69 225.73 82.7 225.74 82.71 225.75 82.71 225.76 82.72 225.77 82.73 225.78 82.74 225.79 82.75 225.82 82.8 225.83 82.85 225.82 82.9 225.8 82.95 225.76 82.99 225.69 83 225.68 83 225.6 83.02 225.48 83.04 225.44 83.05 225.41 83.05 225.38 83.06 225.35 83.07 225.31 83.08 225.28 83.09 225.24 83.1 225.21 83.11 225.17 83.12 225.14 83.13 225.12 83.14 225.09 83.15 225.07 83.15 225.04 83.16 225.02 83.17 224.99 83.17 224.96 83.18 224.93 83.19 224.9 83.2 224.87 83.21 224.84 83.22 224.81 83.23 224.8 83.24 224.79 83.24 224.77 83.25 224.76 83.26 224.75 83.26 224.74 83.27 224.73 83.28 224.72 83.29 224.72 83.3 224.71 83.31 224.7 83.32 224.69 83.33 224.69 83.34 224.68 83.35 224.67 83.36 224.66 83.38 224.66 83.39 224.65 83.4 224.64 83.42 224.63 83.43 224.62 83.45 224.62 83.47 224.61 83.49 224.6 83.51 224.59 83.53 224.59 83.55 224.58 83.57 224.52 83.75 224.5 83.82 224.5 83.84 224.49 83.86 224.49 83.87 224.49 83.89 224.49 83.9 224.49 83.91 224.49 83.93 224.49 83.94 224.49 83.95 224.5 83.96 224.5 83.97 224.5 83.99 224.5 84 224.51 84.01 224.51 84.02 224.52 84.03 224.52 84.04 224.52 84.04 224.53 84.05 224.53 84.06 224.55 84.07 223.39 83.96 221.96 84.1 221.48 84.15 220.51 84.25 218.95 84.82 216.82 84.88 215.6 84.63 215.4 84.11 215.07 84.17 214.13 84.96 213.75 85.26 213 83.62 213.16 83.51 213.53 83.3 213.95 83.07 214.22 82.92 215.3 82.28 215.79 81.99 216.06 81.77 216.19 81.65 216.11 81.52 216.04 81.37 215.8 80.81 215.31 80.47 215.25 79.86 215.25 79.23 215.35 78.16 215.32 77.92 215.19 77.32 215.02 76.77 214.78 76.31 215.36 76.22 215.65 76.18 215.92 76.21 216.03 76.19 216.33 76.26 216.54 76.19 216.85 76.28 217.02 76.26 217.11 76.33 217.51 76.45 218.15 76.39 218.21 76.2 218.25 76.17 218.42 76.09 218.45 76.08 218.49 76.08 218.5 76.08 218.55 76.09 218.58 76.11 218.59 76.11 218.61 76.13 218.62 76.15 218.63 76.16 218.65 76.22 218.73 76.45 218.75 76.49 218.8 76.52 218.84 76.54 218.89 76.56 218.99 76.55 219.35 76.44 220.16 76 220.22 76 Z"/>
</g></svg>