<svg xmlns="http://www.w3.org/2000/svg" version="1.2" baseProfile="tiny" stroke-linecap="round" stroke-linejoin="round" viewBox="84.47 81.22 16.42 24.85"><g xmlns="http://www.w3.org/2000/svg" id="Muskiz">
<path d="M 100.62 90.23 100.87 91.1 100.02 92.25 99.69 92.69 99.54 92.89 98.85 93.62 98.65 93.86 98.44 94.39 98.56 95.1 97.89 95.26 97.75 96.7 97.56 97.77 97.44 98.57 97.2 99.77 97.06 100.58 96.92 101.2 97.06 101.7 97.42 103.04 97.35 103.02 96.4 102.95 95.84 104.29 96.13 105.25 96.61 105.59 96.7 105.71 96.98 106.05 96.14 105.88 96.07 105.75 95.94 105.75 95.92 105.75 95.91 105.75 95.89 105.75 95.87 105.75 95.86 105.74 95.84 105.74 95.73 105.71 95.65 105.68 95.63 105.66 95.57 105.58 95.56 105.57 95.54 105.56 95.5 105.53 95.46 105.48 95.45 105.47 95.44 105.46 95.42 105.45 95.41 105.44 95.4 105.42 95.38 105.41 95.37 105.4 95.36 105.39 95.34 105.38 95.33 105.36 95.32 105.35 95.3 105.33 95.29 105.32 95.28 105.31 95.26 105.3 95.25 105.29 95.23 105.28 95.21 105.27 95.19 105.26 95.17 105.25 95.07 105.24 95.04 105.24 94.97 105.22 94.96 105.21 94.94 105.21 94.92 105.21 94.75 105.21 94.73 105.2 94.65 105.19 94.62 105.19 94.56 105.15 94.54 105.15 94.53 105.14 94.51 105.13 94.43 105.07 94.41 105.05 94.33 105.02 94.27 105 93.99 104.92 93.88 104.89 93.74 104.85 93.68 104.84 93.59 104.84 93.5 104.83 93.42 104.81 93.42 104.78 93.53 104.63 93.14 104.35 92.94 104.35 92.15 104.33 92 104.25 92 104.24 91.93 104.15 91.84 104 91.56 103.69 91.25 103.52 90.74 103.27 90.32 103.08 89.33 103.04 89.34 103.14 88.73 103.05 88.13 102.83 87.82 102.56 87.62 102.39 86.97 101.36 86.61 100.79 86.45 100.51 86.24 100.24 86.2 99.89 86.44 97.75 86.72 95.11 86.21 93.4 85.74 90.67 85.4 90.15 85.38 90.11 85.36 90.07 85.34 90.03 85.28 89.84 85.2 89.68 85.16 89.62 84.87 89.04 84.74 88.9 84.49 88.14 84.75 87.73 84.89 87.36 85.39 86.66 86.28 85.03 86.55 83.63 85.77 82.15 85.88 81.86 85.89 81.86 85.91 81.85 85.93 81.88 85.93 81.9 85.97 81.92 85.98 81.92 86.01 81.93 86.03 81.95 86.03 81.97 86.05 82 86.08 82.01 86.11 82.04 86.12 82.05 86.11 82.08 86.08 82.1 86.03 82.14 86.04 82.16 86.08 82.17 86.15 82.2 86.26 82.25 86.29 82.29 86.31 82.33 86.34 82.35 86.37 82.34 86.43 82.28 86.51 82.27 86.56 82.32 86.71 82.38 86.74 82.35 86.83 82.35 86.91 82.33 86.92 82.26 86.98 82.2 87.02 82.18 87.09 82.23 87.08 82.28 86.98 82.36 87.01 82.38 87.15 82.4 87.23 82.38 87.27 82.41 87.41 82.41 87.45 82.44 87.46 82.48 87.67 82.55 87.71 82.58 87.73 82.62 87.78 82.61 87.8 82.53 87.91 82.55 87.93 82.51 87.98 82.52 88.26 82.67 88.33 82.68 88.41 82.65 88.5 82.49 88.51 82.4 88.71 82.38 88.89 82.43 89 82.44 89.09 82.48 89.25 82.48 89.33 82.45 89.47 82.34 89.56 82.3 89.87 82.2 89.92 82.2 89.98 82.25 90.28 82.26 90.35 82.23 90.5 82.25 90.61 82.3 90.74 82.28 90.98 82.28 91.05 82.23 91.17 82.25 91.39 82.25 91.43 82.24 91.54 82.17 91.69 82.16 91.77 82.14 91.96 82.18 92.01 82.18 92.14 82.09 92.4 81.69 92.44 81.53 92.41 81.45 92.4 81.38 92.44 81.29 92.49 81.23 92.52 81.22 92.58 81.22 92.65 81.23 92.69 81.24 92.7 81.26 92.71 81.28 92.71 81.34 92.7 81.38 92.7 81.45 92.77 81.53 92.81 81.55 92.83 81.57 92.87 81.62 92.91 81.69 92.94 81.73 92.96 81.74 93.03 81.73 93.05 81.74 93.18 81.85 93.24 81.88 93.29 81.93 93.38 81.98 93.41 81.99 93.44 82.02 93.47 82.02 93.47 81.98 93.5 81.94 93.52 81.93 93.58 81.93 93.6 81.94 93.62 81.95 93.7 82.06 93.71 82.09 93.71 82.11 93.71 82.16 93.68 82.19 93.68 82.22 93.69 82.23 93.7 82.25 93.74 82.26 93.75 82.28 93.76 82.3 93.73 82.46 93.73 82.5 93.74 82.52 93.76 82.5 93.78 82.42 93.79 82.41 93.81 82.41 93.83 82.42 93.88 82.46 93.9 82.5 93.95 82.58 93.96 82.6 93.96 82.66 93.96 82.72 93.95 82.74 93.93 82.78 93.93 82.8 93.97 82.82 94.02 82.82 94.04 82.81 94.05 82.79 94.08 82.76 94.1 82.75 94.12 82.77 94.17 82.82 94.22 82.88 94.25 82.91 94.26 82.93 94.28 82.97 94.37 83.07 94.39 83.11 94.44 83.17 94.47 83.22 94.55 83.33 94.57 83.38 94.57 83.41 94.57 83.43 94.62 83.43 94.64 83.44 94.64 83.47 94.63 83.52 94.63 83.56 94.67 83.58 94.71 83.61 94.73 83.78 94.74 83.84 94.75 83.86 94.77 83.88 94.82 83.92 94.85 83.97 94.83 84.03 94.82 84.09 94.83 84.11 94.84 84.13 94.85 84.14 95.02 84.02 95.09 83.99 95.21 83.97 95.27 83.95 95.39 83.88 95.48 83.85 95.69 83.76 95.87 83.68 95.97 83.61 96.05 83.56 96.18 83.49 96.42 83.5 96.74 84.13 97.45 85.31 97.79 85.58 98.18 85.84 98.72 86.07 99.13 86.22 99.36 86.4 99.44 86.63 99.67 86.87 99.7 86.97 100.19 88.68 100.21 88.85 100.45 89.64 100.48 89.74 100.62 90.23 Z"/>
</g></svg>