<svg xmlns="http://www.w3.org/2000/svg" version="1.2" baseProfile="tiny" stroke-linecap="round" stroke-linejoin="round" viewBox="691.6 124.8 20.93 37.83"><g xmlns="http://www.w3.org/2000/svg" id="Muskildi">
<path d="M 707.66 125 707.85 124.9 707.95 124.82 708.06 124.85 708.28 124.99 708.53 125.27 708.96 125.7 709.1 125.83 709.16 125.93 709.22 126.02 709.28 126.1 709.34 126.18 709.38 126.27 709.45 126.36 709.52 126.46 709.58 126.53 709.64 126.59 709.71 126.62 709.78 126.64 709.86 126.65 709.91 126.66 709.94 126.67 709.96 126.7 709.99 126.74 710.02 126.77 710.05 126.79 710.07 126.8 710.04 126.81 709.98 126.83 709.93 126.86 709.87 126.88 709.83 126.91 709.79 126.97 709.73 127.07 709.69 127.17 709.67 127.27 709.67 127.35 709.68 127.44 709.69 127.57 709.69 127.66 709.67 127.74 709.66 127.79 709.71 127.82 709.74 127.85 709.77 127.89 709.79 127.97 709.8 128.05 709.79 128.17 709.78 128.28 709.75 128.4 709.74 128.54 709.73 128.68 709.73 128.8 709.72 128.93 709.71 129.08 709.71 129.26 709.72 129.32 709.7 129.4 709.67 129.5 709.57 129.71 709.56 129.92 709.48 130.01 709.71 130.55 709.82 131.08 709.86 131.54 709.93 131.89 709.92 132 709.92 132.1 709.95 132.18 709.96 132.25 709.96 132.32 709.95 132.4 709.95 132.44 709.95 132.49 709.96 132.52 709.95 132.56 709.92 132.63 709.88 132.72 709.84 132.8 709.8 132.91 709.78 133 709.77 133.06 709.77 133.12 709.76 133.19 709.75 133.26 709.89 133.36 710.02 133.46 710.29 133.53 710.49 133.55 710.46 133.64 710.25 133.79 710.24 133.83 710.22 133.89 710.21 133.96 710.15 134.16 710.11 134.26 710.09 134.27 710.07 134.27 710.04 134.27 710.01 134.29 709.98 134.35 709.97 134.38 709.95 134.43 709.93 134.46 710.02 134.49 710.09 134.57 710.12 134.62 710.12 134.66 710.14 134.7 710.17 134.76 710.22 134.84 710.29 134.91 710.34 134.96 710.35 134.96 710.36 134.97 710.36 134.98 710.37 134.99 710.37 135 710.38 135.01 710.38 135.02 710.38 135.03 710.39 135.04 710.4 135.05 710.58 135.06 711.05 135.86 711.18 135.78 711.2 135.89 711.08 136.17 711.02 136.25 711.03 136.26 711.03 136.27 711.04 136.28 711.04 136.29 711.04 136.3 711.05 136.3 711.05 136.31 711.05 136.32 711.05 136.32 711.06 136.34 711.06 136.35 711.07 136.35 711.07 136.36 711.07 136.37 711.07 136.38 711.07 136.38 711.08 136.39 711.08 136.4 711.08 136.41 711.08 136.42 711.08 136.43 711.09 136.44 711.09 136.45 711.1 136.46 711.1 136.47 711.1 136.48 711.11 136.49 711.11 136.5 711.11 136.51 711.12 136.52 711.12 136.52 711.12 136.53 711.13 136.54 711.15 136.56 711.17 136.65 711.17 136.66 711.17 136.67 711.17 136.68 711.17 136.7 711.17 136.71 711.17 136.72 711.17 136.73 711.17 136.74 711.17 136.74 711.17 136.75 711.17 136.76 711.17 136.77 711.17 136.78 711.17 136.79 711.17 136.8 711.17 136.8 711.17 136.81 711.17 136.82 711.17 136.84 711.17 136.84 711.17 136.86 711.17 136.87 711.17 136.88 711.17 136.88 711.17 136.89 711.17 136.9 711.18 136.91 711.18 136.92 711.18 136.93 711.19 136.94 711.19 136.95 711.19 136.95 711.2 136.97 711.2 136.97 711.2 136.99 711.2 136.99 711.2 137 711.21 137.01 711.21 137.03 711.21 137.03 711.21 137.04 711.21 137.06 711.21 137.07 711.21 137.08 711.21 137.09 711.21 137.1 711.21 137.1 711.21 137.11 711.21 137.12 711.21 137.14 711.21 137.15 711.21 137.16 711.21 137.16 711.21 137.17 711.21 137.18 711.21 137.19 711.21 137.2 711.21 137.21 711.21 137.22 711.22 137.23 711.22 137.24 711.22 137.25 711.23 137.26 711.23 137.27 711.23 137.28 711.24 137.29 711.24 137.3 711.24 137.31 711.24 137.32 711.25 137.33 711.25 137.34 711.25 137.34 711.26 137.35 711.26 137.36 711.27 137.37 711.27 137.38 711.27 137.39 711.28 137.4 711.28 137.4 711.29 137.41 711.3 137.41 711.3 137.42 711.31 137.42 711.32 137.43 711.33 137.43 711.33 137.44 711.34 137.45 711.34 137.46 711.34 137.47 711.35 137.48 711.35 137.49 711.36 137.49 711.36 137.51 711.37 137.52 711.37 137.53 711.38 137.54 711.38 137.55 711.39 137.56 711.39 137.57 711.4 137.57 711.41 137.58 711.42 137.58 711.43 137.59 711.43 137.6 711.44 137.61 711.45 137.62 711.45 137.63 711.46 137.64 711.47 137.64 711.48 137.65 711.49 137.65 711.49 137.66 711.5 137.66 711.51 137.67 711.52 137.67 711.52 137.67 711.53 137.67 711.54 137.67 711.55 137.67 711.55 137.67 711.56 137.67 711.57 137.68 711.58 137.68 711.59 137.68 711.6 137.68 711.61 137.69 711.62 137.69 711.63 137.7 711.64 137.7 711.64 137.71 711.65 137.72 711.65 137.73 711.65 137.74 711.65 137.75 711.65 137.76 711.65 137.77 711.66 137.78 711.66 137.78 711.67 137.79 711.67 137.8 711.68 137.8 711.69 137.81 711.69 137.81 711.7 137.82 711.71 137.82 711.72 137.82 711.73 137.83 711.74 137.83 711.75 137.83 711.76 137.84 711.77 137.85 711.78 137.85 711.79 137.86 711.8 137.87 711.81 137.88 711.81 137.88 711.82 137.89 711.83 137.9 711.84 137.91 711.84 137.92 711.85 137.93 711.85 137.94 711.86 137.95 711.86 137.96 711.86 137.97 711.86 137.97 711.86 137.98 711.86 137.99 711.86 138 711.87 138.01 711.88 138.01 711.88 138.02 711.89 138.03 711.9 138.03 711.91 138.04 711.91 138.04 711.92 138.05 711.92 138.06 711.93 138.07 711.93 138.08 711.94 138.09 711.95 138.1 711.96 138.11 711.97 138.11 711.97 138.12 711.98 138.12 711.98 138.13 711.99 138.13 712 138.14 712.01 138.15 712.02 138.16 712.03 138.18 712.03 138.18 712.04 138.19 712.05 138.19 712.05 138.2 712.06 138.21 712.07 138.22 712.07 138.22 712.08 138.23 712.09 138.24 712.1 138.25 712.11 138.26 712.11 138.27 712.12 138.28 712.13 138.29 712.13 138.3 712.14 138.31 712.14 138.32 712.14 138.33 712.14 138.34 712.14 138.35 712.14 138.36 712.14 138.37 712.15 138.38 712.15 138.39 712.15 138.41 712.15 138.41 712.16 138.42 712.16 138.43 712.16 138.44 712.16 138.45 712.16 138.46 712.16 138.46 712.16 138.47 712.17 138.48 712.17 138.49 712.17 138.5 712.17 138.51 712.17 138.52 712.18 138.52 712.18 138.53 712.19 138.54 712.2 138.54 712.2 138.55 712.21 138.56 712.22 138.57 712.22 138.58 712.22 138.59 712.23 138.6 712.23 138.61 712.23 138.62 712.23 138.63 712.24 138.64 712.24 138.65 712.24 138.66 712.25 138.67 712.25 138.68 712.25 138.69 712.26 138.7 712.27 138.7 712.28 138.71 712.29 138.71 712.3 138.72 712.3 138.72 712.31 138.73 712.32 138.74 712.33 138.75 712.33 138.76 712.33 138.77 712.33 138.78 712.33 138.79 712.33 138.8 712.33 138.8 712.33 138.81 712.33 138.82 712.34 138.83 712.34 138.83 712.35 138.84 712.34 138.85 712.34 138.86 712.33 138.87 712.33 138.88 712.32 138.88 712.31 138.89 712.31 138.9 712.31 138.91 712.31 138.92 712.32 138.93 712.32 138.94 712.33 138.94 712.33 138.95 712.33 138.96 712.33 138.97 712.33 138.98 712.33 138.99 712.33 139 712.33 139.01 712.34 139.02 712.34 139.03 712.34 139.04 712.35 139.05 712.34 139.06 712.35 139.07 712.35 139.08 712.35 139.09 712.35 139.1 712.36 139.11 712.36 139.12 712.36 139.13 712.37 139.14 712.37 139.15 712.37 139.16 712.37 139.17 712.38 139.18 712.38 139.18 712.39 139.19 712.4 139.2 712.4 139.2 712.41 139.21 712.41 139.21 712.42 139.22 712.42 139.23 712.42 139.24 712.41 139.25 712.41 139.26 712.41 139.26 712.42 139.27 712.42 139.28 712.43 139.3 712.43 139.31 712.43 139.32 712.44 139.33 712.44 139.34 712.45 139.34 712.45 139.35 712.46 139.36 712.46 139.37 712.47 139.38 712.47 139.39 712.47 139.39 712.48 139.4 712.48 139.41 712.49 139.41 712.49 139.42 712.5 139.43 712.5 139.44 712.5 139.46 712.5 139.47 712.5 139.48 712.5 139.49 712.5 139.5 712.5 139.51 712.51 139.52 712.51 139.52 712.51 139.53 712.51 139.54 712.52 139.55 712.52 139.56 712.45 139.76 712.31 139.79 712.12 139.61 711.93 139.5 711.93 139.51 711.93 139.51 711.93 139.52 711.93 139.53 711.93 139.54 711.94 139.55 711.94 139.56 711.94 139.57 711.94 139.58 711.94 139.59 711.94 139.6 711.94 139.61 711.95 139.62 711.95 139.62 711.95 139.63 711.95 139.64 711.95 139.64 711.95 139.65 711.95 139.66 711.95 139.67 711.95 139.68 711.95 139.69 711.94 139.7 711.93 139.7 711.75 140.29 711.57 140.59 711.32 140.85 710.87 141.19 710.52 141.55 710.58 141.66 710.62 141.72 710.63 141.76 710.64 141.77 710.64 141.79 710.53 142.09 710.46 142.18 710.17 142.83 710.05 142.91 709.07 143.32 708.19 143.75 707.2 143.87 706.85 144 706.19 144.14 706.21 144.19 706.22 144.21 705.77 144.37 705.33 144.53 704.89 144.68 704.17 144.99 703.39 145.46 703.26 145.58 703.08 145.64 702.59 145.71 702.1 145.76 701.6 145.83 701.03 145.86 700.08 146.11 699.22 146.31 699.21 146.31 699.2 146.32 699.19 146.32 699.18 146.32 699.17 146.32 699.16 146.32 699.15 146.32 699.14 146.32 699.13 146.32 699.12 146.33 699.12 146.33 699.11 146.33 699.1 146.33 699.09 146.34 699.08 146.34 699.07 146.34 699.06 146.34 699.05 146.34 699.04 146.33 699.03 146.33 699.02 146.33 699.01 146.33 699 146.33 698.99 146.33 698.98 146.32 698.97 146.32 698.96 146.32 698.95 146.31 698.94 146.31 698.93 146.3 698.92 146.29 698.91 146.29 698.9 146.29 698.89 146.29 698.88 146.29 698.87 146.3 698.86 146.3 698.85 146.3 698.84 146.31 698.83 146.31 698.83 146.3 698.82 146.3 698.81 146.3 698.8 146.3 698.79 146.3 698.78 146.29 698.77 146.29 698.76 146.29 698.76 146.29 698.75 146.28 698.74 146.28 698.73 146.27 698.72 146.27 698.72 146.26 698.71 146.26 698.7 146.25 698.69 146.25 698.68 146.24 698.68 146.24 698.67 146.23 698.66 146.22 698.65 146.22 698.64 146.21 698.64 146.2 698.63 146.2 698.62 146.19 698.61 146.19 698.61 146.19 698.6 146.18 698.59 146.18 698.58 146.18 698.57 146.18 698.56 146.18 698.56 146.18 698.55 146.18 698.54 146.18 698.53 146.19 698.52 146.19 698.51 146.19 698.51 146.2 698.5 146.2 698.49 146.21 698.48 146.22 698.48 146.22 698.47 146.23 698.46 146.23 698.46 146.24 698.45 146.25 698.45 146.25 698.44 146.26 698.43 146.26 698.43 146.27 698.42 146.27 698.41 146.27 698.4 146.28 698.39 146.29 698.39 146.29 698.38 146.3 698.37 146.3 698.36 146.31 698.35 146.32 698.35 146.32 698.34 146.32 698.33 146.33 698.33 146.34 698.32 146.34 698.31 146.35 698.3 146.36 698.3 146.36 698.29 146.37 698.28 146.38 698.28 146.38 698.27 146.39 698.26 146.4 698.26 146.41 698.25 146.41 698.25 146.42 698.24 146.42 698.24 146.43 698.23 146.43 698.22 146.44 698.22 146.44 698.21 146.45 698.2 146.45 698.2 146.46 698.19 146.47 698.18 146.47 698.24 146.71 698.25 146.71 698.26 146.71 698.26 146.72 698.27 146.72 698.28 146.73 698.29 146.73 698.3 146.73 698.3 146.73 698.31 146.74 698.32 146.74 698.33 146.75 698.33 146.75 698.34 146.75 698.35 146.76 698.35 146.76 698.36 146.77 698.37 146.78 698.38 146.78 698.39 146.79 698.4 146.8 698.4 146.8 698.41 146.8 698.42 146.81 698.42 146.82 698.43 146.82 698.44 146.83 698.44 146.84 698.45 146.84 698.45 146.85 698.46 146.86 698.46 146.86 698.47 146.87 698.47 146.87 698.48 146.88 698.49 146.88 698.49 146.89 698.5 146.89 698.51 146.9 698.51 146.9 698.52 146.91 698.53 146.91 698.54 146.91 698.54 146.92 698.55 146.92 698.56 146.93 698.57 146.93 698.57 146.94 698.58 146.94 698.59 146.95 698.59 146.95 698.6 146.96 698.61 146.96 698.62 146.97 698.62 146.97 698.63 146.97 698.64 146.98 698.64 146.98 698.65 146.99 698.65 147 698.66 147.01 698.67 147.01 698.67 147.02 698.68 147.03 698.68 147.03 698.69 147.04 698.7 147.05 698.7 147.05 698.71 147.06 698.71 147.07 698.71 147.07 698.72 147.08 698.73 147.09 698.73 147.09 698.74 147.1 698.75 147.1 698.75 147.11 698.76 147.11 698.77 147.12 698.77 147.12 698.78 147.13 698.79 147.14 698.8 147.14 698.81 147.14 698.82 147.14 698.84 147.14 698.85 147.15 698.86 147.16 698.87 147.16 698.88 147.17 698.88 147.17 698.89 147.18 698.9 147.19 698.9 147.19 698.91 147.2 698.91 147.2 698.92 147.21 698.92 147.22 698.93 147.23 698.93 147.23 698.94 147.24 698.95 147.25 698.96 147.26 698.96 147.27 698.97 147.27 698.97 147.28 698.97 147.29 698.98 147.3 698.98 147.3 698.98 147.31 698.99 147.32 698.99 147.33 699 147.33 699 147.34 699.01 147.34 699.01 147.35 699.02 147.36 699.03 147.36 699.03 147.37 699.03 147.38 699.04 147.39 699.04 147.4 699.04 147.4 699.04 147.42 699.04 147.42 699.04 147.43 699.04 147.44 699.04 147.45 699.04 147.46 699.04 147.46 699.05 147.47 699.05 147.48 699.05 147.49 699.05 147.5 699.05 147.5 699.05 147.51 699.05 147.52 699.05 147.53 699.05 147.54 699.05 147.54 699.05 147.55 699.05 147.56 699.05 147.57 699.05 147.58 699.05 147.59 699.05 147.6 699.05 147.6 699.05 147.61 699.04 147.62 699.04 147.63 699.04 147.64 699.04 147.65 699.03 147.65 699.03 147.66 699.03 147.67 699.03 147.67 699.02 147.68 699.02 147.69 699.02 147.7 699.02 147.71 699.02 147.72 699.02 147.73 699.02 147.74 699.01 147.75 699.01 147.75 699.01 147.76 699.01 147.77 699 147.78 699 147.79 699 147.8 699 147.81 699 147.82 699 147.83 699 147.84 699 147.85 698.99 147.86 698.99 147.87 698.99 147.88 698.99 147.89 698.99 147.9 698.98 147.91 698.98 147.91 698.98 147.92 698.97 147.93 698.96 147.94 698.95 147.95 698.95 147.96 698.95 147.96 698.95 147.97 698.95 147.98 698.95 147.99 698.95 148 698.96 148 698.96 148.01 698.96 148.02 698.96 148.03 698.96 148.04 698.95 148.05 698.95 148.06 698.94 148.07 698.93 148.07 698.93 148.08 698.92 148.09 698.91 148.1 698.9 148.1 698.9 148.12 698.89 148.13 698.89 148.14 698.88 148.15 698.88 148.16 698.88 148.16 698.88 148.17 698.88 148.18 698.88 148.19 698.89 148.2 698.89 148.21 698.88 148.22 698.88 148.22 698.88 148.23 698.88 148.24 698.88 148.25 698.88 148.25 698.87 148.26 698.87 148.27 698.87 148.28 698.87 148.29 698.87 148.29 698.87 148.3 698.87 148.31 698.87 148.32 698.87 148.33 698.87 148.34 698.87 148.34 698.87 148.35 698.87 148.36 698.87 148.36 698.87 148.37 698.86 148.38 698.86 148.39 698.86 148.4 698.86 148.41 698.86 148.42 698.86 148.43 698.85 148.44 698.85 148.45 698.85 148.45 698.85 148.46 698.84 148.47 698.84 148.48 698.84 148.49 698.84 148.5 698.84 148.51 698.84 148.52 698.84 148.52 698.84 148.54 698.84 148.55 698.84 148.56 698.84 148.56 698.83 148.57 698.82 148.58 698.82 148.59 698.81 148.6 698.81 148.61 698.8 148.62 698.8 148.63 698.79 148.64 698.79 148.65 698.79 148.66 698.79 148.67 698.79 148.67 698.79 148.68 698.79 148.69 698.79 148.69 698.79 148.71 698.78 148.72 698.78 148.73 698.78 148.74 698.77 148.75 698.77 148.76 698.77 148.77 698.77 148.79 698.77 148.8 698.77 148.81 698.77 148.81 698.77 148.82 698.77 148.83 698.77 148.84 698.77 148.85 698.77 148.85 698.77 148.86 698.77 148.87 698.77 148.88 698.76 148.88 698.74 148.92 698.74 148.92 698.73 148.93 698.73 148.94 698.72 149.03 698.73 149.05 698.72 149.07 698.72 149.09 698.7 149.11 698.68 149.13 698.66 149.15 698.64 149.17 698.63 149.19 698.6 149.29 698.58 149.32 698.57 149.34 698.56 149.37 698.56 149.4 698.56 149.44 698.56 149.47 698.56 149.5 698.55 149.54 697.83 149.65 697.4 149.73 697.33 149.79 696.92 149.89 696.95 150.24 696.94 150.26 696.94 150.27 696.94 150.3 696.94 150.31 696.95 150.33 696.96 150.36 696.98 150.4 697.03 150.47 697.03 150.48 697.03 150.49 697.01 150.53 696.99 150.61 696.97 150.71 696.96 150.73 696.95 150.75 696.94 150.77 696.92 150.79 696.89 150.81 696.86 150.82 696.83 150.83 696.81 150.85 696.71 151.45 696.64 151.49 696.47 152.14 696.46 152.23 696.58 152.27 696.68 152.51 696.82 152.49 696.87 152.59 697.12 152.66 697.24 152.69 697.16 153.62 697.05 154.34 696.96 154.62 696.87 155.06 696.77 155.49 696.68 155.92 696.56 156.34 696.45 156.75 696.33 157.16 696.24 157.4 696.1 158.11 695.92 158.91 695.76 159.62 695.65 159.93 695.55 160.34 695.47 160.42 694.84 161.27 694.71 161.51 694.61 161.58 694.31 161.87 693.9 162.46 693.72 162.63 693.76 162.46 693.77 162.41 693.77 162.36 693.77 162.31 693.77 162.27 693.77 162.24 693.78 162.19 693.79 162.14 693.8 162.09 693.82 162.05 693.84 162.01 693.86 161.97 693.89 161.92 693.91 161.88 693.93 161.83 693.95 161.8 693.97 161.74 693.98 161.7 693.99 161.64 693.98 161.61 693.98 161.58 693.98 161.54 693.98 161.5 693.98 161.46 693.99 161.42 694.01 161.39 694.01 161.36 694.01 161.33 694 161.3 693.98 161.27 693.97 161.24 693.97 161.21 693.96 161.17 693.96 161.14 693.97 161.1 693.98 161.06 693.98 161.03 693.98 160.99 693.98 160.96 693.95 160.89 693.94 160.87 693.93 160.84 693.91 160.8 693.9 160.77 693.89 160.73 693.87 160.69 693.84 160.65 693.81 160.61 693.78 160.58 693.76 160.53 693.74 160.5 693.7 160.48 693.66 160.46 693.61 160.43 693.56 160.38 693.54 160.33 693.52 160.29 693.49 160.22 693.48 160.17 693.46 160.13 693.44 160.07 693.43 160.03 693.43 160 693.43 159.96 693.42 159.92 693.4 159.89 693.38 159.86 693.35 159.81 693.33 159.77 693.31 159.72 693.3 159.66 693.3 159.6 693.29 159.53 693.28 159.49 693.29 159.42 693.3 159.37 693.31 159.32 693.33 159.25 693.36 159.2 693.39 159.14 693.43 159.08 693.46 159.05 693.49 159.02 693.55 158.99 693.59 158.96 693.62 158.93 693.63 158.89 693.64 158.85 693.64 158.8 693.63 158.72 693.62 158.66 693.61 158.6 693.61 158.54 693.61 158.49 693.63 158.43 693.65 158.38 693.67 158.32 693.67 158.27 693.67 158.21 693.66 158.16 693.65 158.12 693.65 158.07 693.64 157.98 693.65 157.94 693.66 157.91 693.68 157.88 693.7 157.86 693.73 157.82 693.74 157.8 693.78 157.76 693.8 157.75 693.81 157.73 693.82 157.7 693.82 157.67 693.8 157.62 693.78 157.56 693.76 157.53 693.75 157.5 693.75 157.48 693.75 157.46 693.75 157.42 693.76 157.39 693.77 157.35 693.8 157.31 693.82 157.27 693.84 157.23 693.87 157.18 693.88 157.14 693.9 157.11 693.91 157.07 693.92 157.03 693.93 157 693.94 156.97 693.94 156.93 693.94 156.87 693.94 156.81 693.94 156.77 693.94 156.7 693.94 156.66 693.95 156.62 693.98 156.58 693.99 156.54 694.01 156.51 694.01 156.47 694.01 156.44 694.02 156.35 694.03 156.3 694.04 156.26 694.04 156.22 694.02 156.18 694.01 156.15 693.99 156.14 693.98 156.12 693.97 156.1 693.97 156.07 693.99 156.04 694.01 156 694.03 155.97 694.14 155.76 694.2 155.66 694.27 155.49 694.3 155.43 694.31 155.38 694.32 155.34 694.32 155.3 694.32 155.26 694.31 155.23 694.3 155.19 694.29 155.17 694.29 155.13 694.29 155.1 694.3 155.06 694.31 155.02 694.32 154.99 694.33 154.95 694.35 154.92 694.38 154.86 694.39 154.81 694.38 154.78 694.37 154.75 694.35 154.71 694.34 154.69 694.33 154.66 694.33 154.62 694.34 154.58 694.36 154.56 694.38 154.53 694.41 154.5 694.45 154.47 694.48 154.45 694.52 154.42 694.56 154.39 694.59 154.37 694.61 154.34 694.62 154.31 694.61 154.29 694.6 154.26 694.59 154.22 694.6 154.18 694.61 154.16 694.61 154.13 694.62 154.1 694.62 154.07 694.62 154.05 694.62 154.01 694.63 153.97 694.65 153.94 694.67 153.89 694.68 153.85 694.68 153.82 694.69 153.79 694.7 153.76 694.72 153.74 694.78 153.66 694.79 153.62 694.8 153.59 694.8 153.56 694.78 153.52 694.77 153.49 694.75 153.47 694.72 153.44 694.7 153.41 694.68 153.37 694.65 153.34 694.63 153.3 694.61 153.27 694.61 153.25 694.61 153.21 694.61 153.17 694.59 153.13 694.57 153.11 694.55 153.09 694.51 153.03 694.49 152.99 694.49 152.96 694.49 152.92 694.48 152.87 694.47 152.81 694.46 152.77 694.46 152.73 694.44 152.69 694.41 152.63 694.38 152.6 694.34 152.55 694.29 152.51 694.23 152.47 694.08 152.38 693.97 152.32 693.93 152.3 693.9 152.28 693.87 152.25 693.86 152.24 693.83 152.22 693.81 152.19 693.79 152.17 693.78 152.14 693.76 152.1 693.75 152.08 693.74 152.04 693.74 152.01 693.74 151.98 693.74 151.95 693.73 151.92 693.73 151.9 693.71 151.85 693.69 151.81 693.66 151.77 693.63 151.74 693.59 151.7 693.54 151.64 693.47 151.6 693.4 151.55 693.32 151.51 693.25 151.48 693.18 151.46 693.08 151.41 693.02 151.38 692.97 151.34 692.92 151.26 692.9 151.21 692.89 151.18 692.89 151.15 692.89 151.12 692.91 151.09 692.93 151.05 692.95 151.01 692.96 150.98 692.96 150.95 692.95 150.92 692.94 150.88 692.92 150.85 692.89 150.82 692.81 150.77 692.77 150.75 692.75 150.74 692.74 150.72 692.74 150.69 692.72 150.66 692.7 150.62 692.68 150.59 692.66 150.55 692.64 150.52 692.63 150.48 692.6 150.43 692.58 150.39 692.57 150.34 692.56 150.3 692.54 150.24 692.53 150.2 692.51 150.15 692.49 150.09 692.45 150.02 692.41 149.95 692.38 149.9 692.35 149.86 692.31 149.8 692.29 149.77 692.26 149.74 692.24 149.72 692.22 149.71 692.19 149.7 692.18 149.69 692.16 149.67 692.13 149.64 692.16 148.92 691.94 147.86 691.63 146.73 691.62 146.56 691.66 146.42 692.23 146.24 692.8 146.06 693.37 145.88 693.94 145.71 693.94 145.6 693.44 144.72 693.22 144.31 692.7 143.36 692.73 143.29 693.1 142.61 693.47 141.94 693.84 141.26 694.21 140.59 694.3 140.35 694.51 139.21 694.53 138.95 694.46 138.81 694.12 138.36 693.72 137.98 693.74 137.89 693.71 137.84 693.35 137.56 693.06 137.23 692.93 136.85 693.01 136.65 693.07 136.21 693.13 135.91 693.16 135.78 693.28 135.66 693.34 135.54 693.36 135.46 693.38 135.44 693.4 135.41 693.43 135.37 693.44 135.35 693.47 135.32 693.5 135.29 693.52 135.25 693.53 135.21 693.54 135.17 693.55 135.13 693.56 135.09 693.58 135.05 693.59 135.03 693.61 134.99 693.64 134.92 693.66 134.89 693.69 134.85 693.71 134.82 693.75 134.78 693.8 134.71 693.82 134.68 693.87 134.59 693.89 134.56 693.91 134.52 693.94 134.47 693.97 134.43 694.01 134.37 694.02 134.34 694.04 134.31 694.07 134.29 694.1 134.27 694.17 134.24 694.2 134.21 694.23 134.18 694.27 134.15 694.33 134.12 694.35 134.09 694.37 134.07 694.39 134.03 694.42 134.01 694.43 133.99 694.44 133.95 694.46 133.91 694.48 133.88 694.52 133.87 694.58 133.8 694.68 133.71 694.75 133.58 694.79 133.53 694.84 133.46 694.89 133.4 694.93 133.33 694.94 133.3 694.96 133.28 694.98 133.25 695 133.22 695.03 133.18 695.07 133.11 695.07 133.09 695.08 133.02 695.11 132.97 695.14 132.91 695.2 132.83 695.24 132.78 695.29 132.72 695.31 132.7 695.34 132.66 695.33 132.63 695.32 132.62 695.28 132.59 695.24 132.54 695.23 132.53 695.23 132.49 695.24 132.46 695.25 132.44 695.26 132.41 695.28 132.38 695.3 132.36 695.34 132.33 695.36 132.32 695.39 132.29 695.44 132.2 695.47 132.15 695.49 132.14 695.52 132.12 695.59 132.08 695.65 132.04 695.71 131.97 695.78 131.86 695.82 131.79 695.84 131.75 695.87 131.72 695.89 131.69 695.92 131.64 695.98 131.58 696.1 131.47 696.24 131.38 696.26 131.36 696.28 131.33 696.31 131.31 696.34 131.28 696.35 131.26 696.36 131.25 696.37 131.23 696.4 131.21 696.41 131.2 696.43 131.18 696.48 131.12 696.51 131.07 696.53 131.05 696.53 131.03 696.54 131 696.54 130.95 696.55 130.91 696.57 130.86 696.59 130.84 696.61 130.82 696.67 130.74 696.69 130.72 696.7 130.71 696.76 130.69 696.78 130.68 696.81 130.68 696.85 130.67 696.88 130.66 696.91 130.63 697.01 130.49 697.05 130.42 697.05 130.4 697.12 130.42 697.21 130.45 697.31 130.49 697.39 130.52 697.44 130.55 697.48 130.58 697.52 130.62 697.53 130.63 697.55 130.64 697.57 130.65 697.61 130.67 697.63 130.69 697.64 130.72 697.65 130.73 697.66 130.74 697.68 130.75 697.7 130.76 697.74 130.75 697.78 130.75 697.8 130.74 697.83 130.74 697.87 130.76 697.89 130.79 697.9 130.84 697.92 130.86 697.94 130.88 697.98 130.91 698 130.94 698.01 130.96 698.03 130.98 698.06 131.03 698.08 131.08 698.08 131.11 698.09 131.13 698.1 131.15 698.13 131.17 698.16 131.2 698.18 131.22 698.19 131.23 698.21 131.26 698.22 131.28 698.24 131.31 698.28 131.32 698.31 131.34 698.36 131.36 698.4 131.38 698.43 131.4 698.46 131.42 698.49 131.44 698.52 131.45 698.54 131.46 698.55 131.47 698.56 131.49 698.57 131.54 698.57 131.56 698.58 131.59 698.59 131.63 698.61 131.68 698.62 131.72 698.62 131.76 698.64 131.85 698.66 131.92 698.67 131.96 698.68 132 698.69 132.03 698.69 132.07 698.73 132.07 698.77 132.08 698.81 132.09 698.85 132.09 698.88 132.1 698.91 132.11 698.94 132.13 698.98 132.15 699.01 132.18 699.04 132.21 699.07 132.25 699.1 132.29 699.13 132.32 699.17 132.36 699.2 132.38 699.23 132.42 699.26 132.44 699.3 132.46 699.34 132.49 699.37 132.51 699.41 132.54 699.44 132.57 699.47 132.6 699.51 132.63 699.55 132.65 699.58 132.67 699.62 132.69 699.67 132.73 699.94 132.95 700.06 133.14 700.21 133.2 700.51 133.34 700.54 133.3 700.55 133.27 700.56 133.23 700.59 133.13 700.61 133 700.63 132.92 700.65 132.88 700.67 132.84 700.7 132.8 700.73 132.77 700.78 132.74 700.85 132.71 700.93 132.69 701.02 132.67 701.09 132.65 701.15 132.63 701.19 132.61 701.22 132.58 701.26 132.55 701.3 132.5 701.32 132.46 701.35 132.42 701.38 132.38 701.41 132.36 701.44 132.35 701.48 132.34 701.52 132.35 701.6 132.37 701.73 132.41 701.86 132.46 701.95 132.48 702 132.49 702.03 132.48 702.05 132.47 702.07 132.47 702.11 132.43 702.15 132.38 702.23 132.31 702.34 132.22 702.41 132.17 702.47 132.13 702.53 132.1 702.58 132.09 702.61 132.08 702.53 131.83 702.61 131.71 702.87 131.69 703.24 131.72 703.31 131.77 703.42 131.74 703.48 131.63 703.53 131.47 703.76 131.31 703.86 131.24 704.03 131.16 704.5 131.06 704.66 130.92 704.7 130.9 704.77 130.86 704.85 130.82 704.9 130.78 704.94 130.74 704.97 130.71 705 130.68 705.02 130.67 705.05 130.66 705.1 130.66 705.16 130.66 705.23 130.65 705.32 130.65 705.4 130.65 705.49 130.64 705.57 130.64 705.63 130.63 705.65 130.63 705.73 130.63 705.77 130.62 705.88 130.58 706.02 130.53 706.05 130.51 706.1 130.49 706.15 130.44 706.2 130.42 706.26 130.38 706.31 130.35 706.36 130.33 706.42 130.32 706.5 130.29 706.54 130.28 706.6 130.25 706.64 130.22 706.69 130.19 706.75 130.16 706.81 130.12 706.86 130.09 706.92 130.06 706.97 130.05 707.02 130.04 707.06 130.03 707.12 130.02 707.17 130 707.24 130 707.3 130 707.39 130.01 707.45 130.02 707.5 130.04 707.56 130.07 707.57 130.08 707.58 130.07 707.6 130.03 707.63 129.98 707.67 129.94 707.74 129.9 707.78 129.87 707.78 129.85 707.79 129.81 707.82 129.76 707.84 129.72 707.87 129.68 707.9 129.62 707.9 129.57 707.89 129.49 707.9 129.41 707.92 129.34 707.92 129.27 707.92 129.19 707.94 129.11 707.93 129.09 707.93 129.03 707.93 128.97 707.92 128.89 707.9 128.79 707.89 128.69 707.88 128.59 707.86 128.48 707.84 128.34 707.82 128.22 707.8 128.13 707.76 127.97 707.74 127.88 707.73 127.81 707.73 127.76 707.73 127.69 707.72 127.63 707.72 127.56 707.71 127.5 707.7 127.45 707.69 127.39 707.67 127.34 707.65 127.29 707.62 127.22 707.61 127.16 707.6 127.11 707.59 127.02 707.58 126.94 707.57 126.9 707.54 126.86 707.51 126.8 707.5 126.78 707.61 126.56 707.66 126.28 707.57 126.05 707.37 125.68 707.27 125.36 707.26 125.22 707.66 125 Z"/>
</g></svg>