<svg xmlns="http://www.w3.org/2000/svg" version="1.2" baseProfile="tiny" stroke-linecap="round" stroke-linejoin="round" viewBox="325.25 203.3 19.37 8.83"><g xmlns="http://www.w3.org/2000/svg" id="Mutiloa">
<path d="M 326.4 205.95 326.73 205.9 327.7 205.51 328.06 205.4 329.13 205.29 330.08 204.86 331.2 205.41 331.22 205.38 331.27 205.31 331.3 205.29 331.35 205.24 331.36 205.22 331.39 205.19 331.41 205.16 331.44 205.11 331.46 205.06 331.47 205.03 331.48 205 331.51 204.97 331.52 204.93 331.51 204.9 331.51 204.85 331.52 204.83 331.54 204.79 331.56 204.77 331.59 204.75 331.67 204.73 331.73 204.72 331.79 204.73 331.83 204.73 331.91 204.73 331.95 204.73 331.98 204.72 332 204.69 332.03 204.65 332.07 204.61 332.11 204.58 332.16 204.56 332.2 204.54 332.23 204.51 332.25 204.46 332.26 204.44 332.27 204.41 332.29 204.38 332.31 204.36 332.34 204.33 332.39 204.3 332.43 204.28 332.46 204.27 332.52 204.26 332.57 204.23 332.59 204.21 332.62 204.17 332.62 204.14 332.65 204.1 332.66 204.07 332.69 204.07 332.73 204.06 332.76 204.03 332.78 203.99 332.8 203.94 332.82 203.89 332.84 203.85 332.85 203.81 332.91 203.75 332.99 203.65 333.07 203.58 333.16 203.5 333.3 203.41 333.37 203.37 333.48 203.31 333.5 203.31 334.95 203.55 336.1 203.81 336.66 203.93 337.58 204.02 337.67 203.78 337.69 203.76 337.71 203.74 337.76 203.72 337.81 203.7 337.83 203.69 337.85 203.67 337.86 203.66 337.9 203.62 337.92 203.65 337.95 203.71 337.97 203.74 337.97 203.76 337.98 203.81 337.99 203.85 338.03 203.88 338.07 203.89 338.12 203.9 338.14 203.91 338.2 203.91 338.26 203.93 338.3 203.95 338.33 203.98 338.37 204.01 338.42 204.03 338.49 204.05 338.56 204.04 338.61 204.04 338.7 204.04 338.72 204.04 338.75 204.04 338.81 204.03 338.83 204.03 338.85 204.02 338.87 204.02 338.9 204.01 338.91 204.01 339 204.23 339.01 204.29 339.13 204.42 339.31 204.56 339.45 204.7 339.57 204.81 339.6 204.88 339.69 204.95 339.8 204.98 339.98 205.01 340.11 205.03 340.21 205.04 340.26 205.03 340.28 205.05 340.3 205.14 340.32 205.26 340.33 205.32 340.33 205.41 340.36 205.54 340.4 205.66 340.49 205.79 340.56 205.88 340.62 205.99 340.66 206.2 340.72 206.5 340.73 206.56 340.75 206.6 340.76 206.64 340.78 206.68 340.8 206.72 341.21 206.79 341.35 206.78 341.51 206.78 341.52 206.78 341.52 206.78 341.53 206.78 341.54 206.78 341.55 206.78 341.56 206.78 341.56 206.78 341.57 206.78 341.58 206.78 341.59 206.79 341.6 206.79 341.6 206.79 341.61 206.79 341.62 206.8 341.63 206.8 341.64 206.8 341.64 206.81 341.65 206.81 341.66 206.81 341.66 206.82 341.67 206.82 341.68 206.83 341.68 206.83 341.69 206.84 341.7 206.84 341.71 206.85 341.71 206.86 341.72 206.87 341.73 206.88 341.74 206.89 341.74 206.9 341.75 206.91 341.76 206.92 341.77 206.93 341.77 206.94 341.78 206.95 341.78 206.96 341.79 206.97 341.82 207.01 341.91 207.12 341.99 207.22 342.09 207.33 342.15 207.38 342.21 207.46 342.22 207.47 342.28 207.56 342.32 207.65 342.33 207.66 342.34 207.68 342.35 207.69 342.36 207.71 342.37 207.72 342.38 207.74 342.39 207.75 342.4 207.76 342.41 207.78 342.42 207.79 342.43 207.79 342.44 207.8 342.45 207.81 342.46 207.82 342.47 207.82 342.49 207.82 342.51 207.83 342.52 207.83 342.53 207.83 342.55 207.84 342.56 207.84 342.57 207.85 342.59 207.85 342.6 207.86 342.61 207.86 342.63 207.87 342.64 207.87 342.65 207.88 342.71 207.9 342.72 207.91 342.77 207.92 342.83 207.94 342.84 207.95 342.85 207.95 342.85 207.95 342.86 207.96 342.87 207.96 342.88 207.97 342.89 207.98 342.9 207.99 342.91 207.99 342.92 208.01 342.93 208.02 342.93 208.03 342.94 208.04 342.94 208.04 342.94 208.05 342.95 208.06 342.95 208.06 342.96 208.07 342.96 208.08 342.97 208.08 342.97 208.09 342.98 208.09 342.99 208.09 343 208.1 343 208.1 343.02 208.1 343.03 208.09 343.04 208.09 343.06 208.09 343.07 208.09 343.08 208.09 343.09 208.09 343.1 208.1 343.11 208.1 343.12 208.1 343.13 208.1 343.14 208.1 343.15 208.1 343.16 208.1 343.17 208.1 343.18 208.1 343.3 208.14 343.46 208.16 343.57 208.19 343.57 208.19 343.58 208.19 343.59 208.2 343.6 208.2 343.6 208.2 343.61 208.21 343.62 208.21 343.62 208.21 343.63 208.22 343.64 208.22 343.65 208.23 343.65 208.24 343.66 208.25 343.67 208.26 343.68 208.27 343.68 208.28 343.69 208.29 343.69 208.3 343.7 208.31 343.71 208.32 343.71 208.32 343.72 208.33 343.73 208.34 343.74 208.34 343.75 208.34 343.76 208.35 343.77 208.35 343.78 208.36 343.79 208.37 343.8 208.37 343.8 208.38 343.81 208.39 343.88 208.46 343.92 208.47 343.98 208.5 344.04 208.5 344.16 208.5 344.25 208.52 344.31 208.53 344.37 208.58 344.45 208.66 344.53 208.74 344.55 208.76 344.59 210.31 344.59 210.32 344.58 210.35 344.57 210.38 344.57 210.41 344.58 210.43 344.59 210.45 344.58 210.49 344.58 210.52 344.58 210.56 344.53 210.56 344.5 210.56 344.48 210.57 344.45 210.58 344.41 210.59 344.38 210.59 344.36 210.59 344.35 210.59 344.33 210.58 344.31 210.56 344.3 210.55 344.28 210.54 344.27 210.54 344.26 210.54 344.25 210.55 344.24 210.56 344.23 210.58 344.23 210.6 344.22 210.63 344.21 210.65 344.19 210.69 344.17 210.72 344.14 210.74 344.08 210.76 344.03 210.76 344.01 210.76 343.98 210.77 343.92 210.78 343.88 210.79 343.84 210.81 343.79 210.82 343.75 210.82 343.69 210.82 343.63 210.82 343.57 210.81 343.48 210.81 343.45 210.8 343.37 210.77 343.31 210.74 343.24 210.72 343.2 210.7 343.17 210.7 343.15 210.71 343.13 210.73 343.12 210.78 343.09 210.83 343.07 210.88 343.04 210.9 343.01 210.93 342.98 210.94 342.95 210.94 342.91 210.94 342.87 210.94 342.83 210.92 342.81 210.91 342.79 210.9 342.76 210.89 342.73 210.89 342.69 210.89 342.63 210.89 342.61 210.89 342.59 210.9 342.56 210.91 342.51 210.92 342.44 210.92 342.41 210.91 342.37 210.88 342.33 210.85 342.32 210.84 342.3 210.83 342.25 210.83 342.21 210.84 342.15 210.85 342.06 210.86 342.02 210.86 341.98 210.86 341.92 210.84 341.86 210.82 341.76 210.79 341.69 210.77 341.64 210.76 341.53 210.76 341.46 210.77 341.39 210.77 341.32 210.76 341.31 210.76 341.31 210.77 341.3 210.81 341.29 210.82 341.28 210.84 341.27 210.86 341.24 210.89 341.22 210.93 341.2 210.97 341.18 211.02 341.15 211.07 341.12 211.12 341.1 211.15 341.06 211.17 341.03 211.2 341.01 211.23 340.97 211.28 340.95 211.31 340.93 211.36 340.88 211.45 340.87 211.51 340.84 211.58 340.82 211.64 340.81 211.66 340.86 211.67 340.62 211.65 340.24 211.55 339.88 211.46 339.46 211.46 339.09 211.54 338.18 211.31 337.56 211.33 337.28 211.31 336.27 211.52 335.99 211.58 335.64 211.68 335.19 211.83 334.38 212.1 333.97 211.8 333.43 211.68 333.02 211.63 332.59 211.31 332.15 210.96 331.78 210.64 330.15 209.37 329.39 209.39 328.48 210.03 327.63 210.32 326.41 210.25 325.41 210.19 325.25 210.16 325.61 208.85 326.12 207.23 326.22 206.63 326.4 205.95 Z"/>
</g></svg>