<svg xmlns="http://www.w3.org/2000/svg" version="1.2" baseProfile="tiny" stroke-linecap="round" stroke-linejoin="round" viewBox="288.82 92.72 24.15 22.47"><g xmlns="http://www.w3.org/2000/svg" id="Mutriku">
<path d="M 296.65 93.77 296.67 93.76 296.69 93.75 296.71 93.76 296.72 93.77 296.74 93.8 296.76 93.82 296.77 93.84 296.79 93.87 296.82 93.89 296.85 93.91 296.86 93.91 296.88 93.9 296.9 93.89 296.92 93.88 296.95 93.86 296.98 93.84 297 93.82 297.03 93.8 297.06 93.79 297.08 93.77 297.1 93.75 297.12 93.73 297.13 93.71 297.16 93.69 297.18 93.67 297.19 93.66 297.21 93.64 297.22 93.62 297.24 93.61 297.26 93.59 297.27 93.57 297.28 93.54 297.29 93.5 297.29 93.48 297.31 93.42 297.33 93.35 297.34 93.31 297.35 93.26 297.35 93.21 297.35 93.16 297.34 93.13 297.33 93.11 297.31 93.08 297.3 93.06 297.28 93.06 297.25 93.07 297.24 93.07 297.22 93.07 297.21 93.07 297.19 93.08 297.19 93.09 297.17 93.1 297.14 93.07 297.12 93.06 297.1 93.05 297.09 93.06 297.07 93.07 297.05 93.07 297.03 93.08 297.02 93.07 297.01 93.06 297 93.05 296.98 93.04 296.96 93.03 296.96 93.01 296.97 93 296.98 92.98 296.99 92.97 296.99 92.96 296.99 92.95 296.98 92.94 296.98 92.93 296.97 92.92 296.95 92.91 296.94 92.91 296.93 92.9 296.92 92.89 296.92 92.88 296.91 92.87 296.91 92.86 296.9 92.85 296.9 92.83 296.91 92.82 296.92 92.81 296.93 92.81 296.93 92.79 296.93 92.78 296.92 92.76 296.91 92.75 296.91 92.74 296.92 92.73 296.93 92.73 296.94 92.73 296.96 92.74 296.97 92.75 296.99 92.76 297 92.78 297.01 92.79 297.01 92.81 297 92.82 296.99 92.83 296.99 92.84 296.99 92.86 297 92.87 297.01 92.88 297.02 92.89 297.03 92.89 297.05 92.9 297.06 92.91 297.08 92.92 297.09 92.92 297.12 92.92 297.13 92.92 297.13 92.91 297.15 92.91 297.16 92.92 297.17 92.92 297.19 92.93 297.2 92.94 297.22 92.96 297.23 92.98 297.24 92.99 297.25 93.01 297.26 93.02 297.26 93.03 297.28 93.04 297.29 93.04 297.3 93.04 297.31 93.04 297.31 93.03 297.31 93.01 297.3 93 297.29 92.99 297.29 92.98 297.28 92.97 297.28 92.96 297.29 92.96 297.3 92.96 297.3 92.97 297.31 92.96 297.31 92.95 297.3 92.94 297.3 92.93 297.28 92.92 297.27 92.9 297.28 92.89 297.29 92.88 297.3 92.88 297.32 92.88 297.33 92.89 297.35 92.9 297.36 92.91 297.37 92.94 297.39 92.95 297.4 92.98 297.41 93.01 297.42 93.04 297.43 93.07 297.43 93.09 297.44 93.11 297.45 93.13 297.46 93.15 297.47 93.17 297.48 93.19 297.48 93.19 297.49 93.19 297.5 93.18 297.51 93.18 297.52 93.18 297.53 93.18 297.54 93.18 297.55 93.17 297.55 93.16 297.55 93.15 297.55 93.13 297.56 93.11 297.57 93.11 297.58 93.13 297.58 93.15 297.58 93.22 297.59 93.23 297.59 93.24 297.61 93.24 297.62 93.23 297.62 93.22 297.63 93.19 297.64 93.19 297.64 93.19 297.65 93.17 297.65 93.19 297.66 93.2 297.66 93.21 297.67 93.21 297.69 93.21 297.7 93.21 297.71 93.2 297.71 93.2 297.72 93.19 297.72 93.18 297.71 93.16 297.71 93.15 297.7 93.15 297.7 93.14 297.69 93.13 297.69 93.12 297.69 93.11 297.7 93.12 297.71 93.13 297.71 93.14 297.72 93.15 297.73 93.15 297.74 93.16 297.75 93.17 297.75 93.18 297.76 93.19 297.77 93.18 297.78 93.18 297.78 93.17 297.78 93.16 297.78 93.14 297.77 93.13 297.77 93.11 297.76 93.1 297.76 93.09 297.75 93.08 297.74 93.07 297.75 93.06 297.76 93.06 297.77 93.08 297.78 93.09 297.8 93.11 297.81 93.12 297.82 93.14 297.82 93.15 297.82 93.16 297.82 93.17 297.83 93.18 297.84 93.18 297.85 93.19 297.85 93.2 297.86 93.22 297.86 93.24 297.87 93.25 297.87 93.27 297.87 93.28 297.87 93.3 297.88 93.31 297.88 93.32 297.89 93.32 297.9 93.3 297.9 93.29 297.9 93.29 297.91 93.3 297.91 93.31 297.92 93.32 297.92 93.34 297.93 93.35 297.94 93.35 297.95 93.35 297.96 93.34 297.96 93.28 297.95 93.26 297.95 93.24 297.95 93.22 297.95 93.21 297.94 93.19 297.93 93.17 297.92 93.15 297.92 93.12 297.91 93.09 297.91 93.07 297.91 93.05 297.92 93.03 297.94 93.02 297.95 93.03 297.96 93.04 297.97 93.06 297.97 93.17 297.97 93.18 297.97 93.2 297.98 93.21 297.99 93.22 297.99 93.24 297.99 93.25 297.98 93.26 297.97 93.28 297.97 93.3 297.97 93.32 297.97 93.33 297.98 93.34 297.99 93.34 298.01 93.35 298.02 93.34 298.02 93.34 298.03 93.33 298.03 93.32 298.04 93.32 298.05 93.32 298.05 93.33 298.05 93.34 298.06 93.35 298.07 93.36 298.07 93.36 298.09 93.36 298.09 93.36 298.1 93.35 298.12 93.35 298.13 93.35 298.15 93.35 298.16 93.35 298.18 93.35 298.19 93.34 298.19 93.33 298.18 93.31 298.18 93.3 298.18 93.28 298.18 93.27 298.18 93.26 298.19 93.25 298.19 93.26 298.2 93.27 298.2 93.28 298.21 93.28 298.22 93.28 298.22 93.27 298.22 93.25 298.22 93.24 298.23 93.24 298.24 93.23 298.25 93.23 298.26 93.24 298.27 93.25 298.27 93.26 298.28 93.25 298.29 93.24 298.3 93.24 298.3 93.24 298.31 93.26 298.31 93.28 298.31 93.29 298.31 93.31 298.31 93.32 298.31 93.34 298.31 93.35 298.32 93.35 298.33 93.34 298.33 93.33 298.33 93.32 298.34 93.31 298.35 93.3 298.36 93.3 298.36 93.29 298.36 93.27 298.36 93.26 298.37 93.26 298.38 93.27 298.38 93.28 298.38 93.29 298.39 93.3 298.39 93.31 298.4 93.32 298.4 93.34 298.41 93.35 298.42 93.36 298.43 93.35 298.44 93.34 298.44 93.31 298.44 93.29 298.45 93.29 298.46 93.3 298.46 93.31 298.47 93.32 298.47 93.34 298.48 93.34 298.49 93.35 298.5 93.36 298.5 93.41 298.5 93.42 298.5 93.43 298.51 93.45 298.52 93.46 298.53 93.47 298.54 93.48 298.57 93.48 298.59 93.48 298.61 93.47 298.62 93.46 298.64 93.45 298.64 93.44 298.65 93.42 298.65 93.41 298.65 93.4 298.66 93.38 298.66 93.38 298.67 93.37 298.68 93.37 298.69 93.38 298.71 93.39 298.72 93.41 298.73 93.42 298.74 93.43 298.75 93.43 298.76 93.43 298.77 93.42 298.78 93.42 298.78 93.42 298.79 93.43 298.8 93.45 298.81 93.45 298.82 93.46 298.83 93.46 298.85 93.46 298.86 93.46 298.86 93.45 298.86 93.44 298.86 93.42 298.86 93.41 298.88 93.41 298.89 93.42 298.89 93.43 298.88 93.44 298.88 93.45 298.88 93.46 298.89 93.48 298.9 93.48 298.92 93.48 298.93 93.48 298.95 93.48 298.97 93.47 298.99 93.48 299 93.49 299 93.5 299.01 93.5 299.02 93.51 299.02 93.52 299.04 93.52 299.05 93.51 299.06 93.5 299.07 93.5 299.08 93.5 299.1 93.51 299.11 93.52 299.12 93.53 299.14 93.54 299.15 93.55 299.18 93.56 299.19 93.55 299.2 93.55 299.21 93.54 299.22 93.54 299.23 93.53 299.23 93.52 299.23 93.51 299.22 93.5 299.23 93.5 299.24 93.51 299.25 93.52 299.26 93.53 299.28 93.53 299.29 93.53 299.3 93.54 299.32 93.55 299.32 93.56 299.33 93.57 299.34 93.58 299.36 93.58 299.38 93.58 299.41 93.57 299.43 93.58 299.45 93.58 299.46 93.59 299.46 93.6 299.47 93.61 299.48 93.62 299.49 93.64 299.5 93.65 299.51 93.67 299.53 93.67 299.54 93.66 299.55 93.64 299.55 93.62 299.55 93.61 299.57 93.59 299.58 93.58 299.59 93.56 299.6 93.56 299.61 93.56 299.62 93.57 299.62 93.58 299.63 93.58 299.65 93.57 299.66 93.58 299.67 93.59 299.67 93.6 299.69 93.6 299.7 93.61 299.71 93.61 299.73 93.62 299.74 93.63 299.75 93.64 299.76 93.64 299.77 93.64 299.77 93.63 299.76 93.62 299.75 93.61 299.74 93.61 299.74 93.6 299.73 93.6 299.72 93.59 299.72 93.58 299.73 93.58 299.74 93.59 299.75 93.6 299.76 93.6 299.78 93.61 299.79 93.61 299.79 93.61 299.8 93.61 299.81 93.61 299.82 93.61 299.85 93.61 299.85 93.61 299.85 93.6 299.84 93.59 299.84 93.58 299.85 93.59 299.86 93.59 299.86 93.57 299.86 93.57 299.88 93.57 299.89 93.57 299.9 93.58 299.91 93.6 299.91 93.6 299.92 93.61 299.93 93.61 299.94 93.61 299.94 93.59 299.95 93.58 299.95 93.57 299.96 93.56 299.97 93.57 299.98 93.58 299.98 93.61 299.99 93.61 299.99 93.6 300 93.59 300 93.58 300.02 93.57 300.03 93.57 300.04 93.57 300.06 93.58 300.07 93.59 300.08 93.61 300.1 93.63 300.11 93.64 300.12 93.66 300.14 93.67 300.16 93.67 300.17 93.67 300.2 93.67 300.21 93.66 300.23 93.67 300.24 93.68 300.25 93.69 300.26 93.7 300.28 93.7 300.29 93.71 300.29 93.72 300.3 93.74 300.3 93.76 300.31 93.78 300.32 93.8 300.34 93.84 300.37 93.87 300.4 93.89 300.42 93.91 300.46 93.93 300.5 93.95 300.53 93.97 300.55 93.99 300.58 94.02 300.62 94.05 300.65 94.06 300.66 94.07 300.68 94.08 300.69 94.1 300.71 94.11 300.74 94.11 300.75 94.11 300.77 94.11 300.78 94.11 300.79 94.12 300.8 94.13 300.82 94.14 300.84 94.14 300.85 94.14 300.87 94.14 300.88 94.14 300.9 94.16 300.91 94.17 300.93 94.17 300.94 94.17 300.95 94.16 300.96 94.15 300.96 94.15 300.96 94.16 300.97 94.18 300.98 94.19 300.99 94.19 301 94.2 301 94.22 301.01 94.24 301.03 94.24 301.07 94.25 301.09 94.25 301.11 94.25 301.14 94.25 301.15 94.24 301.15 94.23 301.16 94.22 301.17 94.22 301.17 94.24 301.17 94.25 301.18 94.26 301.18 94.25 301.19 94.26 301.21 94.26 301.22 94.26 301.22 94.27 301.23 94.28 301.24 94.3 301.25 94.31 301.27 94.32 301.28 94.32 301.3 94.32 301.31 94.31 301.32 94.3 301.33 94.29 301.35 94.29 301.35 94.29 301.36 94.31 301.36 94.32 301.37 94.33 301.41 94.34 301.42 94.33 301.44 94.32 301.45 94.31 301.47 94.3 301.48 94.3 301.49 94.29 301.52 94.29 301.56 94.29 301.57 94.3 301.6 94.32 301.62 94.33 301.63 94.33 301.65 94.35 301.67 94.37 301.69 94.38 301.71 94.4 301.72 94.42 301.74 94.43 301.76 94.45 301.78 94.47 301.79 94.49 301.8 94.5 301.82 94.52 301.85 94.54 301.87 94.54 301.88 94.57 301.89 94.59 301.91 94.61 301.94 94.63 301.97 94.66 301.98 94.67 302 94.69 302.01 94.7 302.03 94.71 302.04 94.72 302.06 94.73 302.07 94.74 302.09 94.75 302.1 94.75 302.12 94.75 302.13 94.74 302.14 94.74 302.15 94.74 302.18 94.75 302.19 94.77 302.2 94.79 302.22 94.81 302.24 94.82 302.24 94.82 302.26 94.81 302.27 94.79 302.29 94.77 302.31 94.76 302.32 94.76 302.33 94.77 302.33 94.78 302.32 94.8 302.32 94.81 302.32 94.82 302.31 94.83 302.31 94.83 302.31 94.85 302.33 94.85 302.34 94.85 302.35 94.86 302.36 94.87 302.37 94.87 302.38 94.87 302.39 94.89 302.4 94.9 302.42 94.91 302.43 94.92 302.45 94.93 302.48 94.95 302.5 94.97 302.52 94.98 302.55 95 302.57 95.01 302.6 95.03 302.65 95.05 302.68 95.07 302.71 95.1 302.74 95.12 302.76 95.14 302.79 95.16 302.82 95.18 302.84 95.21 302.86 95.23 302.87 95.25 302.88 95.29 302.9 95.32 302.92 95.35 302.93 95.36 302.95 95.39 302.98 95.4 303.01 95.42 303.04 95.44 303.07 95.46 303.1 95.48 303.12 95.48 303.14 95.48 303.18 95.47 303.2 95.48 303.25 95.49 303.3 95.52 303.32 95.54 303.35 95.57 303.36 95.59 303.37 95.6 303.37 95.61 303.36 95.63 303.36 95.64 303.36 95.66 303.37 95.66 303.38 95.65 303.39 95.65 303.4 95.64 303.42 95.63 303.43 95.63 303.44 95.64 303.45 95.65 303.44 95.65 303.43 95.66 303.42 95.68 303.41 95.68 303.4 95.69 303.39 95.7 303.41 95.72 303.42 95.73 303.44 95.74 303.46 95.75 303.46 95.76 303.48 95.77 303.49 95.79 303.51 95.81 303.53 95.83 303.55 95.84 303.57 95.85 303.6 95.87 303.62 95.89 303.64 95.91 303.66 95.93 303.69 95.94 303.71 95.94 303.73 95.95 303.75 95.95 303.76 95.95 303.78 95.94 303.8 95.92 303.82 95.92 303.84 95.92 303.85 95.94 303.85 95.95 303.86 95.95 303.87 95.95 303.9 95.95 303.92 95.96 303.94 95.97 303.95 95.99 303.96 96 303.98 96 304 96.01 304.01 96.02 304.02 96.04 304.03 96.04 304.05 96.05 304.07 96.05 304.08 96.06 304.09 96.07 304.11 96.09 304.13 96.11 304.15 96.12 304.17 96.13 304.2 96.14 304.23 96.15 304.26 96.15 304.29 96.15 304.32 96.15 304.34 96.17 304.35 96.19 304.37 96.21 304.38 96.23 304.4 96.24 304.42 96.25 304.43 96.25 304.45 96.25 304.48 96.25 304.51 96.26 304.52 96.26 304.55 96.26 304.58 96.27 304.62 96.27 304.64 96.27 304.66 96.28 304.67 96.29 304.69 96.31 304.71 96.34 304.73 96.38 304.76 96.4 304.78 96.4 304.81 96.41 304.82 96.42 304.85 96.44 304.88 96.45 304.9 96.46 304.92 96.47 304.94 96.49 304.96 96.51 304.97 96.53 304.99 96.54 305.01 96.56 305.02 96.56 305.04 96.57 305.04 96.58 305.04 96.61 305.04 96.63 305.04 96.64 305.04 96.66 305.04 96.68 305.04 96.71 305.06 96.75 305.07 96.76 305.08 96.78 305.1 96.8 305.12 96.82 305.14 96.83 305.16 96.84 305.16 96.86 305.17 96.88 305.18 96.89 305.19 96.89 305.21 96.89 305.21 96.9 305.21 96.91 305.21 96.93 305.21 96.95 305.21 96.98 305.22 97 305.24 97.02 305.28 97.03 305.33 97.05 305.35 97.06 305.4 97.06 305.42 97.08 305.43 97.1 305.44 97.11 305.47 97.13 305.5 97.15 305.53 97.16 305.55 97.18 305.58 97.2 305.61 97.23 305.65 97.25 305.67 97.26 305.69 97.27 305.7 97.28 305.7 97.29 305.7 97.31 305.7 97.34 305.7 97.36 305.7 97.39 305.7 97.41 305.7 97.43 305.7 97.45 305.7 97.48 305.7 97.5 305.7 97.52 305.71 97.55 305.72 97.58 305.73 97.62 305.73 97.65 305.73 97.67 305.73 97.69 305.73 97.71 305.73 97.72 305.73 97.73 305.73 97.75 305.73 97.77 305.72 97.79 305.71 97.83 305.7 97.85 305.69 97.88 305.67 97.9 305.66 97.92 305.64 97.93 305.63 97.94 305.61 97.95 305.6 97.95 305.91 98.14 305.92 98.14 305.92 98.15 305.93 98.16 305.93 98.16 305.93 98.17 305.93 98.18 305.92 98.18 305.91 98.19 305.9 98.18 305.89 98.18 305.89 98.17 305.88 98.17 305.88 98.16 305.89 98.15 305.83 98.12 305.66 98.02 305.64 98.05 305.47 97.94 305.39 98.09 305.47 98.14 305.46 98.17 305.46 98.18 305.45 98.2 305.45 98.21 305.44 98.22 305.43 98.23 305.43 98.24 305.42 98.25 305.39 98.28 305.38 98.3 305.38 98.31 305.37 98.32 305.36 98.33 305.36 98.35 305.34 98.37 305.33 98.39 305.33 98.4 305.32 98.42 305.31 98.44 305.31 98.45 305.31 98.47 305.3 98.49 305.31 98.5 305.49 98.56 305.61 98.62 305.61 98.62 305.62 98.63 305.62 98.64 305.62 98.65 305.61 98.65 305.6 98.66 305.59 98.66 305.58 98.66 305.57 98.65 305.57 98.65 305.57 98.64 305.57 98.63 305.57 98.63 305.48 98.58 305.44 98.57 305.41 98.56 305.3 98.52 305.28 98.52 305.27 98.52 305.26 98.52 305.24 98.53 305.21 98.54 305.19 98.55 305.18 98.56 305.16 98.57 305.14 98.58 305.13 98.58 305.11 98.59 305.08 98.62 305.05 98.64 305.04 98.64 305 98.67 304.95 98.72 304.94 98.72 304.89 98.81 304.9 98.82 304.87 98.86 304.85 98.91 304.81 98.95 304.81 98.96 304.82 98.97 304.86 99.01 304.87 99.02 304.88 99.02 304.89 99.01 304.9 99 304.93 98.97 304.94 98.96 304.95 98.95 304.95 98.94 304.95 98.94 304.99 98.91 304.99 98.9 305 98.89 305.02 98.87 305.05 98.85 305.06 98.84 305.06 98.83 305.07 98.83 305.08 98.82 305.09 98.81 305.1 98.8 305.11 98.79 305.11 98.78 305.12 98.77 305.12 98.77 305.12 98.76 305.13 98.75 305.14 98.75 305.15 98.75 305.15 98.75 305.15 98.79 305.14 98.8 305.14 98.8 305.13 98.81 305.13 98.81 305.1 98.84 305.09 98.85 305.03 98.91 305.01 98.93 304.97 98.98 304.95 98.99 304.94 99 304.89 99.05 304.88 99.06 304.86 99.06 304.83 99.09 304.83 99.1 304.82 99.11 304.8 99.13 304.8 99.17 304.79 99.18 304.76 99.21 304.77 99.22 304.79 99.26 304.79 99.26 304.8 99.27 304.81 99.29 304.82 99.31 304.83 99.31 304.83 99.32 304.84 99.33 304.85 99.35 304.86 99.36 304.89 99.41 304.9 99.42 304.92 99.41 304.93 99.41 304.94 99.41 304.95 99.41 304.97 99.4 304.99 99.41 305.03 99.39 305.02 99.37 305.04 99.36 305.1 99.32 305.26 99.22 305.48 99.07 305.61 98.98 305.62 98.98 305.63 98.97 305.64 98.96 305.65 98.96 305.68 98.94 305.69 98.93 305.72 98.91 305.74 98.9 305.75 98.89 305.75 98.86 305.74 98.81 305.73 98.78 305.71 98.72 305.71 98.72 305.7 98.72 305.69 98.71 305.69 98.7 305.68 98.7 305.68 98.69 305.68 98.68 305.69 98.68 305.69 98.67 305.7 98.67 305.7 98.66 305.72 98.67 305.73 98.67 305.74 98.69 305.74 98.7 305.78 98.9 305.79 98.9 305.8 98.9 305.8 98.89 305.81 98.87 305.82 98.87 305.83 98.87 305.84 98.87 305.86 98.87 305.87 98.87 305.87 98.86 305.89 98.85 305.9 98.85 305.92 98.84 305.93 98.84 305.95 98.85 305.96 98.84 305.97 98.83 305.99 98.83 306 98.83 306 98.84 306 98.86 306 98.87 306 98.87 306 98.88 306 98.9 306 98.91 306.01 98.92 306.02 98.92 306.03 98.93 306.05 98.94 306.07 98.95 306.08 98.96 306.1 98.96 306.12 98.95 306.13 98.94 306.13 98.94 306.15 98.93 306.16 98.92 306.16 98.91 306.16 98.9 306.16 98.89 306.16 98.87 306.18 98.84 306.19 98.84 306.2 98.83 306.23 98.82 306.24 98.82 306.26 98.83 306.26 98.83 306.25 98.85 306.24 98.85 306.24 98.86 306.24 98.87 306.25 98.88 306.25 98.89 306.24 98.91 306.24 98.92 306.24 98.92 306.25 98.93 306.26 98.93 306.27 98.94 306.28 98.94 306.29 98.94 306.3 98.94 306.31 98.93 306.32 98.91 306.33 98.89 306.35 98.87 306.37 98.86 306.38 98.86 306.37 98.87 306.37 98.88 306.36 98.89 306.38 98.89 306.39 98.89 306.39 98.88 306.4 98.88 306.4 98.9 306.39 98.91 306.38 98.93 306.4 98.94 306.41 98.93 306.42 98.92 306.43 98.91 306.42 98.89 306.42 98.87 306.42 98.85 306.43 98.85 306.44 98.85 306.46 98.86 306.47 98.87 306.48 98.88 306.48 98.89 306.49 98.89 306.5 98.87 306.51 98.86 306.51 98.84 306.51 98.83 306.51 98.8 306.51 98.78 306.53 98.77 306.53 98.75 306.55 98.75 306.57 98.75 306.58 98.76 306.6 98.76 306.62 98.76 306.63 98.77 306.64 98.78 306.64 98.79 306.63 98.8 306.64 98.82 306.65 98.85 306.66 98.84 306.67 98.83 306.69 98.82 306.71 98.81 306.73 98.8 306.73 98.79 306.72 98.78 306.7 98.78 306.69 98.77 306.69 98.75 306.71 98.74 306.71 98.73 306.71 98.72 306.72 98.7 306.73 98.69 306.75 98.68 306.75 98.67 306.75 98.65 306.77 98.65 306.77 98.66 306.77 98.68 306.78 98.69 306.78 98.68 306.79 98.68 306.8 98.68 306.81 98.68 306.82 98.66 306.83 98.66 306.85 98.65 306.85 98.64 306.88 98.62 306.9 98.62 306.91 98.63 306.92 98.64 306.93 98.65 306.94 98.66 306.94 98.66 306.94 98.69 306.95 98.68 306.96 98.68 306.97 98.69 306.96 98.7 306.96 98.72 306.98 98.72 306.99 98.71 307 98.7 307.01 98.68 307.03 98.66 307.03 98.65 307.04 98.67 307.03 98.68 307.02 98.69 307.04 98.69 307.05 98.71 307.06 98.7 307.07 98.69 307.08 98.69 307.09 98.69 307.1 98.7 307.09 98.71 307.09 98.73 307.09 98.73 307.1 98.73 307.11 98.72 307.12 98.71 307.13 98.69 307.15 98.67 307.17 98.65 307.18 98.66 307.19 98.67 307.19 98.68 307.18 98.69 307.17 98.7 307.16 98.71 307.15 98.72 307.17 98.71 307.16 98.73 307.15 98.74 307.14 98.75 307.14 98.75 307.14 98.77 307.16 98.77 307.17 98.77 307.19 98.78 307.2 98.78 307.22 98.78 307.23 98.78 307.26 98.78 307.27 98.78 307.28 98.79 307.29 98.81 307.3 98.82 307.3 98.83 307.31 98.84 307.33 98.85 307.33 98.84 307.34 98.82 307.35 98.8 307.35 98.78 307.36 98.76 307.38 98.75 307.39 98.77 307.39 98.78 307.38 98.8 307.37 98.81 307.36 98.82 307.37 98.84 307.38 98.85 307.4 98.85 307.43 98.85 307.44 98.86 307.47 98.87 307.5 98.87 307.52 98.86 307.54 98.85 307.55 98.84 307.55 98.82 307.56 98.79 307.56 98.77 307.55 98.76 307.55 98.75 307.56 98.73 307.58 98.71 307.6 98.69 307.62 98.67 307.63 98.66 307.64 98.64 307.66 98.61 307.67 98.59 307.68 98.56 307.68 98.53 307.68 98.51 307.7 98.5 307.71 98.48 307.72 98.47 307.74 98.44 307.76 98.41 307.8 98.37 307.82 98.34 307.85 98.32 307.88 98.29 307.9 98.28 307.94 98.27 307.96 98.26 307.99 98.26 307.98 98.28 307.97 98.3 307.94 98.32 307.92 98.34 307.9 98.37 307.88 98.38 307.87 98.39 307.86 98.42 307.88 98.44 307.91 98.44 307.92 98.44 307.95 98.43 307.97 98.42 308 98.4 308.03 98.37 308.04 98.36 308.06 98.34 308.07 98.32 308.09 98.31 308.1 98.32 308.1 98.34 308.09 98.35 308.12 98.36 308.14 98.37 308.15 98.38 308.17 98.39 308.19 98.38 308.21 98.37 308.23 98.37 308.23 98.38 308.25 98.38 308.25 98.37 308.27 98.37 308.28 98.36 308.29 98.36 308.31 98.36 308.34 98.34 308.35 98.33 308.38 98.31 308.41 98.3 308.42 98.29 308.45 98.28 308.46 98.27 308.48 98.27 308.49 98.26 308.5 98.27 308.49 98.29 308.48 98.31 308.46 98.32 308.45 98.34 308.44 98.36 308.47 98.37 308.48 98.37 308.5 98.38 308.49 98.39 308.5 98.41 308.53 98.4 308.54 98.38 308.56 98.36 308.59 98.36 308.6 98.36 308.59 98.38 308.58 98.39 308.56 98.41 308.55 98.42 308.53 98.44 308.53 98.44 308.55 98.44 308.58 98.44 308.6 98.44 308.62 98.43 308.64 98.41 308.65 98.42 308.66 98.44 308.66 98.45 308.65 98.47 308.65 98.5 308.64 98.52 308.63 98.54 308.61 98.57 308.6 98.6 308.59 98.62 308.58 98.65 308.56 98.67 308.55 98.69 308.54 98.71 308.52 98.73 308.51 98.74 308.49 98.78 308.47 98.81 308.45 98.84 308.43 98.87 308.42 98.89 308.41 98.91 308.41 98.93 308.42 98.94 308.45 98.98 308.47 99 308.5 99.02 308.53 99.05 308.56 99.07 308.58 99.09 308.62 99.11 308.65 99.11 308.72 99.11 308.77 99.12 308.82 99.14 308.85 99.16 308.86 99.16 308.89 99.17 308.95 99.21 308.99 99.24 309.02 99.28 309.03 99.32 309.05 99.36 309.07 99.39 309.09 99.42 309.11 99.44 309.12 99.45 309.13 99.46 309.15 99.47 309.18 99.49 309.21 99.52 309.25 99.55 309.28 99.57 309.31 99.58 309.33 99.6 309.36 99.62 309.39 99.64 309.42 99.67 309.47 99.72 309.48 99.73 309.52 99.75 309.57 99.78 309.6 99.8 309.64 99.82 309.68 99.84 309.7 99.85 309.74 99.87 309.77 99.88 309.82 99.9 309.87 99.91 309.89 99.92 309.91 99.92 309.94 99.93 309.98 99.94 310 99.94 310.06 99.95 310.12 99.95 310.18 99.95 310.2 99.95 310.23 99.95 310.25 99.94 310.3 99.93 310.33 99.91 310.37 99.88 310.42 99.85 310.44 99.83 310.44 99.82 310.44 99.81 310.44 99.79 310.45 99.76 310.46 99.76 310.46 99.74 310.45 99.72 310.43 99.71 310.41 99.7 310.4 99.69 310.4 99.67 310.41 99.65 310.42 99.63 310.44 99.63 310.47 99.64 310.49 99.65 310.52 99.67 310.57 99.69 310.6 99.7 310.64 99.71 310.65 99.71 310.67 99.72 310.72 99.73 310.75 99.74 310.76 99.74 310.77 99.75 310.76 99.76 310.74 99.77 310.74 99.78 310.74 99.79 310.75 99.8 310.78 99.79 310.8 99.79 310.8 99.8 310.79 99.81 310.79 99.82 310.8 99.84 310.82 99.84 310.85 99.85 310.88 99.85 310.9 99.85 310.91 99.85 310.92 99.85 310.92 99.86 310.92 99.87 310.92 99.89 310.93 99.9 310.94 99.9 310.95 99.91 310.95 99.91 310.96 99.92 310.97 99.93 310.98 99.93 310.99 99.92 311.01 99.92 311 99.94 311 99.95 311 99.96 311.03 99.97 311.05 99.98 311.08 99.99 311.11 100 311.15 100.01 311.19 100.02 311.23 100.03 311.25 100.03 311.27 100.04 311.28 100.06 311.3 100.07 311.31 100.07 311.32 100.08 311.34 100.12 311.35 100.13 311.37 100.13 311.38 100.13 311.42 100.13 311.44 100.14 311.49 100.16 311.54 100.19 311.59 100.22 311.63 100.26 311.64 100.29 311.66 100.31 311.71 100.32 311.74 100.34 311.78 100.37 311.81 100.39 311.84 100.41 311.89 100.43 311.91 100.44 311.93 100.44 311.95 100.44 311.98 100.45 312.03 100.45 312.07 100.46 312.11 100.46 312.14 100.46 312.19 100.47 312.21 100.47 312.26 100.48 312.3 100.48 312.33 100.48 312.36 100.48 312.4 100.49 312.41 100.5 312.41 100.52 312.42 100.55 312.43 100.57 312.46 100.6 312.48 100.62 312.5 100.64 312.5 100.65 312.51 100.67 312.52 100.68 312.51 100.69 312.51 100.71 312.51 100.72 312.51 100.74 312.51 100.76 312.52 100.78 312.65 100.79 312.76 100.79 312.78 100.82 312.78 100.83 312.78 100.84 312.77 100.84 312.51 100.83 312.45 100.9 312.42 100.92 312.41 100.94 312.4 100.98 312.36 101.11 312.36 101.14 312.39 101.14 312.41 101.14 312.43 101.15 312.45 101.16 312.47 101.17 312.48 101.18 312.47 101.19 312.44 101.19 312.41 101.18 312.39 101.18 312.36 101.18 312.35 101.19 312.34 101.2 312.34 101.22 312.34 101.27 312.34 101.3 312.34 101.32 312.34 101.33 312.34 101.34 312.51 101.34 312.52 101.35 312.5 101.36 312.48 101.37 312.46 101.37 312.42 101.38 312.38 101.38 312.36 101.39 312.35 101.39 312.35 101.41 312.36 101.46 312.37 101.5 312.39 101.55 312.41 101.59 312.43 101.61 312.46 101.65 312.48 101.68 312.58 101.77 312.62 101.79 312.72 101.82 312.86 101.85 312.88 101.75 312.91 101.57 312.92 101.5 312.91 101.5 312.91 101.49 312.91 101.48 312.92 101.48 312.93 101.48 312.94 101.49 312.93 101.5 312.92 101.61 312.89 101.75 312.86 101.93 312.84 102.08 312.82 102.19 312.81 102.24 312.8 102.32 312.78 102.49 312.76 102.64 312.75 102.78 312.74 102.82 312.74 102.81 312.74 102.8 312.73 102.78 312.68 102.77 312.63 102.76 312.61 102.76 312.59 102.77 312.59 102.79 312.56 102.87 312.54 102.98 312.54 103.02 312.55 103.06 312.56 103.11 312.63 103.27 312.66 103.34 312.67 103.36 312.69 103.39 312.7 103.36 312.71 103.36 312.72 103.36 312.72 103.38 312.69 103.81 312.68 103.87 312.67 103.94 312.67 103.97 312.65 103.98 312.62 103.99 312.61 104.04 312.58 104.09 312.56 104.14 312.49 104.26 312.39 104.46 312.39 104.51 312.39 104.52 312.42 104.56 312.42 104.65 312.4 104.7 312.39 104.72 312.4 104.72 312.39 104.73 312.57 104.81 312.56 104.83 312.5 105 312.46 105.11 312.44 105.17 312.42 105.23 312.39 105.34 312.35 105.44 312.33 105.51 312.31 105.59 312.31 105.67 312.31 105.74 312.3 105.78 312.3 105.84 312.3 105.9 312.29 105.95 312.27 106.03 312.25 106.08 312.22 106.13 312.19 106.17 312.16 106.21 312.12 106.25 312.09 106.28 312.03 106.32 311.99 106.35 311.96 106.37 311.93 106.38 311.88 106.4 311.82 106.4 311.76 106.4 311.71 106.4 311.62 106.37 311.57 106.34 311.52 106.29 311.47 106.24 311.47 106.23 311.45 106.21 311.42 106.16 311.39 106.11 311.36 106.05 311.33 106 311.31 105.95 311.3 105.9 311.29 105.86 311.27 105.81 311.26 105.75 311.26 105.67 311.26 105.61 311.26 105.54 311.26 105.47 311.26 105.4 311.26 105.37 311.25 105.3 311.23 105.24 311.21 105.19 311.19 105.15 311.16 105.1 311.13 105.07 311.1 105.02 311.05 104.97 310.99 104.92 310.92 104.87 310.86 104.83 310.78 104.77 310.7 104.72 310.61 104.67 310.54 104.63 310.47 104.61 310.44 104.6 310.38 104.59 310.35 104.59 310.29 104.58 310.23 104.58 310.19 104.59 310.14 104.59 310.08 104.6 310 104.63 309.94 104.65 309.87 104.69 309.82 104.73 309.75 104.78 309.72 104.81 309.66 104.87 309.59 104.96 309.52 105.07 309.48 105.15 309.41 105.26 309.38 105.37 309.32 105.59 309.29 105.75 309.27 105.84 309.26 105.95 309.25 106.06 309.25 106.21 309.26 106.36 309.29 106.59 309.34 106.76 309.36 106.89 309.4 107.1 309.37 107.12 309.36 107.15 309.36 107.19 309.36 107.21 309.36 107.25 309.36 107.27 309.37 107.29 309.37 107.32 309.38 107.35 309.39 107.39 309.4 107.43 309.4 107.48 309.4 107.51 309.41 107.54 309.43 107.57 309.45 107.59 309.51 107.67 309.55 107.73 309.59 107.79 309.62 107.85 309.65 107.9 309.67 107.95 309.68 107.97 309.68 108 309.7 108.07 309.7 108.12 309.71 108.17 309.72 108.25 309.72 108.34 309.72 108.41 309.71 108.49 309.69 108.56 309.67 108.63 309.65 108.69 309.63 108.74 309.59 108.79 309.58 108.81 309.53 108.85 309.48 108.89 309.44 108.92 309.39 108.96 309.37 108.98 309.35 109 309.34 109.03 309.33 109.06 309.33 109.09 309.33 109.13 309.33 109.15 309.34 109.18 309.34 109.2 309.37 109.26 309.4 109.29 309.43 109.32 309.46 109.33 309.49 109.34 309.54 109.36 309.63 109.37 309.71 109.38 309.8 109.4 309.89 109.42 309.96 109.45 310.03 109.47 310.07 109.49 310.11 109.5 310.15 109.52 310.18 109.54 310.21 109.56 310.23 109.59 310.25 109.64 310.27 109.69 310.28 109.75 310.29 109.8 310.29 109.92 310.27 110 310.26 110.06 310.24 110.13 310.2 110.23 310.16 110.3 310.12 110.37 310.07 110.45 310.01 110.51 309.96 110.57 309.91 110.62 309.87 110.65 309.8 110.69 309.73 110.72 309.68 110.74 309.65 110.75 309.61 110.75 309.55 110.74 309.49 110.72 309.43 110.7 309.39 110.68 309.32 110.65 309.24 110.61 309.16 110.56 309.09 110.53 309.04 110.49 309.01 110.46 308.96 110.42 308.92 110.37 308.89 110.33 308.88 110.32 308.87 110.27 308.86 110.23 308.85 110.17 308.84 110.14 308.82 110.1 308.79 110.06 308.76 110.02 308.73 109.99 308.69 109.97 308.63 109.94 308.59 109.93 308.54 109.92 308.48 109.92 308.42 109.92 308.4 109.93 308.38 109.93 308.36 109.95 308.33 109.96 308.27 110 308.25 110.02 308.21 110.04 308.18 110.05 308.14 110.06 308.1 110.07 308.05 110.08 308.01 110.09 307.98 110.09 307.94 110.11 307.92 110.12 307.88 110.14 307.84 110.16 307.8 110.19 307.75 110.23 307.72 110.27 307.7 110.31 307.68 110.36 307.68 110.41 307.67 110.49 307.67 110.58 307.67 110.65 307.67 110.72 307.66 110.81 307.65 110.9 307.63 110.97 307.61 111.05 307.59 111.1 307.54 111.17 307.53 111.19 307.5 111.22 307.47 111.25 307.43 111.29 307.42 111.31 307.4 111.34 307.39 111.38 307.38 111.43 307.38 111.48 307.38 111.53 307.39 111.57 307.41 111.62 307.43 111.66 307.44 111.68 307.47 111.73 307.51 111.77 307.55 111.79 307.59 111.81 307.64 111.82 307.68 111.82 307.72 111.82 307.74 111.83 307.79 111.83 307.84 111.83 307.89 111.84 307.93 111.86 307.97 111.88 308.01 111.91 308.05 111.95 308.06 111.99 308.08 112.04 308.1 112.12 308.12 112.15 308.14 112.22 308.17 112.29 308.18 112.31 308.21 112.36 308.23 112.39 308.27 112.43 308.3 112.47 308.31 112.5 308.34 112.56 308.36 112.61 308.38 112.65 308.4 112.69 308.41 112.73 308.43 112.78 308.44 112.85 308.45 112.91 308.44 112.98 308.43 113.02 308.42 113.06 308.38 113.17 308.36 113.21 308.33 113.29 308.31 113.38 308.28 113.45 308.26 113.53 308.24 113.58 308.23 113.62 308.21 113.68 308.19 113.72 308.18 113.76 308.16 113.8 308.15 113.85 308.11 113.97 308.1 114.04 308.09 114.07 308.08 114.14 308.08 114.19 308.07 114.23 308.06 114.28 308.06 114.31 308.07 114.36 308.08 114.4 307.32 113.78 306.66 113.72 306.65 113.69 306.62 113.7 306.49 113.72 306.42 113.73 306.37 113.74 306.32 113.75 306.26 113.77 306.18 113.78 306.13 113.8 306.09 113.82 306.07 113.84 306.04 113.84 305.97 113.86 305.91 113.88 305.85 113.9 305.8 113.92 305.74 113.94 305.68 113.96 305.62 113.98 305.57 113.99 305.54 114.01 305.5 114.03 305.44 114.05 305.36 114.07 305.28 114.09 305.2 114.12 305.11 114.16 304.91 114.22 304.83 114.25 304.76 114.26 304.69 114.29 304.62 114.31 304.56 114.33 304.55 114.33 304.51 114.33 304.42 114.34 304.32 114.36 304.24 114.36 304.13 114.36 304.05 114.35 304.01 114.35 303.96 114.34 303.84 114.33 303.76 114.31 303.71 114.29 303.56 114.24 303.48 114.22 303.45 114.23 303.38 114.22 303.29 114.22 303.2 114.18 303.14 114.16 303.1 114.15 303 114.11 302.92 114.07 302.86 114.06 302.8 114.07 302.7 114.08 302.65 114.05 302.57 114.01 302.51 114.01 302.44 114.01 302.35 114 302.27 113.99 302.21 113.97 302.17 113.94 302.1 113.9 302.05 113.87 301.97 113.84 301.91 113.81 301.86 113.79 301.83 113.76 301.77 113.72 301.7 113.68 301.64 113.66 301.63 113.64 301.59 113.61 301.55 113.57 300.81 113.8 299.89 113.99 299.28 114.72 298.67 115.1 298.64 115.13 298.61 115.13 298.53 115.14 298.46 115.15 298.4 115.16 298.39 115.16 298.36 115.16 298.34 115.14 298.31 115.12 298.26 115.07 298.18 114.94 298.12 114.86 298.08 114.83 298.01 114.82 297.94 114.8 297.88 114.81 297.73 114.81 297.66 114.8 297.64 114.8 297.6 114.78 297.55 114.73 297.5 114.73 297.45 114.73 297.39 114.74 297.36 114.76 297.33 114.79 297.28 114.79 297.21 114.78 297.18 114.77 297.11 114.73 297.03 114.71 296.99 114.7 296.93 114.72 296.88 114.74 296.85 114.73 296.8 114.72 296.77 114.71 296.75 114.71 296.7 114.71 296.67 114.7 296.62 114.68 296.54 114.68 296.46 114.68 296.39 114.72 296.31 114.74 296.28 114.79 296.21 114.83 296.16 114.86 296.11 114.85 296.08 114.85 296.05 114.85 295.98 114.83 295.9 114.81 295.82 114.79 295.78 114.79 295.66 114.8 295.64 114.8 295.54 114.8 295.44 114.8 295.35 114.8 295.21 114.79 295.22 114.77 294.95 114.39 294.89 114.24 294.84 113.99 294.8 113.65 294.78 113.43 294.4 112.56 294.32 112.41 293.89 111.63 293.37 111.64 293.25 111.65 292.84 111.14 292.78 111.06 292.7 110.82 292.71 110.17 292.46 109.92 292.19 109.46 292.1 109.26 291.81 109.06 291.62 109.05 291.14 108.59 290.5 108.58 289.71 107.32 289.58 107.16 288.88 106.71 288.83 105.73 288.84 105.5 288.9 105.36 289.17 104.98 289.28 104.69 289.22 104.42 288.89 103.93 289.1 103.03 289.28 102.75 289.54 102.42 289.81 102.11 289.84 102.08 289.9 102.07 290.31 102.11 290.92 101.72 291.06 101.35 290.98 101.11 290.94 101.09 290.92 101.05 290.91 100.98 290.92 100.92 290.92 100.86 290.92 100.82 290.91 100.79 290.88 100.76 290.83 100.74 290.78 100.72 290.73 100.71 290.7 100.7 290.66 100.7 290.62 100.68 290.59 100.66 290.57 100.62 290.55 100.57 290.56 100.49 290.7 100.54 290.9 100.42 291.2 100.2 291.36 99.89 291.47 99.57 291.65 99.17 291.85 98.94 291.91 98.87 292.15 98.59 292.73 98.25 292.92 98.01 293.09 97.85 293.34 97.7 293.52 97.75 294.51 97.2 294.56 97.19 294.93 96.64 295.18 96.12 295.33 95.49 295.73 94.68 295.81 94.41 296.33 94.12 296.42 94.02 296.65 93.77 Z"/>
</g></svg>