<svg xmlns="http://www.w3.org/2000/svg" version="1.2" baseProfile="tiny" stroke-linecap="round" stroke-linejoin="round" viewBox="203.13 99.5 36.7 40.63"><g xmlns="http://www.w3.org/2000/svg" id="Muxika">
<path d="M 209.76 99.5 210.34 99.9 210.65 100.12 211.06 100.41 211.48 100.46 211.78 100.5 212.03 100.55 212.22 100.58 212.4 100.62 212.6 100.65 212.73 100.67 212.91 100.71 213.13 100.75 213.3 100.77 213.47 100.79 213.67 100.82 213.86 100.85 214.15 100.89 214.22 101.14 214.29 101.35 214.49 101.69 214.58 101.83 214.74 102.09 214.8 102.1 214.85 102.12 214.91 102.15 214.96 102.18 215.01 102.22 215.07 102.27 215.14 102.33 215.2 102.37 215.23 102.4 215.27 102.44 215.3 102.48 215.33 102.52 215.35 102.55 215.38 102.61 215.41 102.68 215.44 102.73 215.45 102.78 215.47 102.84 215.5 102.9 215.54 102.97 215.58 103.04 215.59 103.11 215.63 103.14 215.67 103.18 215.71 103.22 215.76 103.25 215.8 103.26 215.82 103.27 215.86 103.27 215.93 103.27 215.98 103.28 216.03 103.29 216.07 103.29 216.1 103.29 216.13 103.3 216.19 103.32 216.23 103.35 216.28 103.37 216.31 103.4 216.34 103.43 216.37 103.45 216.41 103.47 216.44 103.49 216.46 103.51 216.47 103.55 216.48 103.58 216.51 103.61 216.54 103.65 216.57 103.69 216.61 103.74 216.63 103.78 216.66 103.85 216.69 103.89 216.7 103.93 216.72 103.97 216.73 104 216.76 104.03 216.79 104.06 216.83 104.08 216.87 104.1 216.91 104.12 216.95 104.13 216.98 104.14 216.99 104.14 217.03 104.11 217.07 104.09 217.12 104.16 217.3 104.05 217.39 103.99 217.47 103.94 217.5 103.94 217.54 103.94 217.58 103.94 217.6 103.95 217.65 103.98 217.69 104.01 217.72 104.03 217.74 104.05 217.75 104.08 217.76 104.1 217.79 104.12 217.85 104.14 217.87 104.16 217.9 104.18 217.93 104.21 217.95 104.22 217.97 104.23 218 104.24 218.06 104.25 218.12 104.26 218.16 104.27 218.21 104.28 218.26 104.28 218.29 104.28 218.3 104.28 218.31 104.28 218.52 104.17 218.59 104.18 218.64 104.19 218.69 104.2 218.76 104.22 218.79 104.23 218.83 104.24 218.84 104.25 218.87 104.26 218.87 104.28 218.86 104.31 218.85 104.35 218.85 104.38 218.84 104.42 218.84 104.46 218.84 104.49 218.83 104.53 218.82 104.57 218.82 104.6 218.82 104.63 218.82 104.66 218.82 104.7 218.82 104.73 218.83 104.77 218.84 104.79 218.83 104.81 218.83 104.84 218.83 104.87 218.83 104.89 218.84 104.91 218.84 104.94 218.85 104.97 218.86 105.01 218.87 105.05 218.87 105.07 218.87 105.09 218.86 105.12 218.84 105.16 218.88 105.18 218.92 105.19 218.95 105.2 219 105.2 219.06 105.21 219.12 105.21 219.19 105.2 219.24 105.2 219.31 105.19 219.37 105.18 219.44 105.17 219.54 105.16 219.61 105.15 219.66 105.14 219.68 105.14 219.73 105.16 219.78 105.2 219.83 105.23 219.88 105.26 219.93 105.31 219.99 105.36 220.04 105.4 220.08 105.43 220.13 105.46 220.19 105.5 220.25 105.52 220.32 105.54 220.38 105.56 220.43 105.59 220.5 105.62 220.56 105.66 220.62 105.69 220.68 105.73 220.74 105.77 220.78 105.8 220.82 105.83 220.86 105.86 220.87 105.87 220.89 105.9 220.93 105.94 220.95 105.97 220.96 105.99 220.98 106.04 221.02 106.11 221.04 106.16 221.06 106.21 221.08 106.27 221.11 106.35 221.14 106.45 221.2 106.52 221.26 106.58 221.29 106.61 221.37 106.7 221.42 106.8 221.45 106.87 221.53 107.08 221.55 107.13 221.58 107.26 221.6 107.35 221.62 107.44 221.64 107.53 221.66 107.6 221.66 107.64 221.67 107.69 221.67 107.73 221.66 107.77 221.65 107.83 221.64 107.88 221.63 107.93 221.47 108.24 221.28 108.62 221.14 108.89 221.03 109.1 220.94 109.36 220.93 109.44 220.93 109.49 220.93 109.51 220.94 109.57 220.95 109.66 221 109.78 221.09 109.94 221.28 110.16 221.52 110.38 221.6 110.69 221.71 110.86 221.79 110.96 221.87 111.06 221.95 111.15 222.1 111.29 222.24 111.41 222.35 111.93 222.43 112.26 222.58 112.62 222.74 112.99 223.35 113.2 223.64 113.72 223.74 113.84 223.87 114.01 223.99 114.28 224.55 114.87 224.71 115.04 224.75 115.08 225.01 115.4 225.11 115.57 225.41 115.7 225.77 115.73 226.04 115.83 226.38 115.49 226.64 115.72 226.58 115.98 226.45 116.24 226.94 116.58 227.44 116.75 227.49 116.92 227.78 117.3 228 117.7 227.84 118.2 227.86 118.5 227.81 118.84 227.95 119.7 228.25 119.92 228.6 120.17 229.04 120.48 229.52 120.66 229.99 120.83 230.29 121.06 230.45 121.17 231.09 121.8 231.23 121.94 231.27 121.96 231.27 121.97 231.29 121.98 231.3 121.99 231.32 122.01 231.33 122.02 231.35 122.04 231.38 122.05 231.4 122.07 231.42 122.09 231.44 122.11 231.46 122.13 231.48 122.15 231.5 122.16 231.52 122.18 231.53 122.2 231.55 122.21 231.56 122.23 231.58 122.25 231.6 122.27 231.61 122.3 231.63 122.32 231.64 122.34 231.66 122.37 231.67 122.39 231.68 122.41 231.69 122.43 231.7 122.46 231.71 122.48 231.72 122.5 231.73 122.53 231.74 122.56 231.76 122.59 231.77 122.62 231.78 122.65 231.78 122.67 231.86 123.22 231.87 123.25 231.87 123.27 231.87 123.29 231.87 123.3 231.87 123.32 231.87 123.34 231.87 123.35 231.88 123.37 231.88 123.38 231.88 123.39 231.89 123.4 231.89 123.42 231.9 123.43 231.9 123.44 231.9 123.45 231.91 123.46 231.91 123.46 231.92 123.47 231.92 123.48 231.93 123.5 231.94 123.51 231.95 123.52 231.96 123.53 231.97 123.54 231.97 123.55 231.98 123.56 231.99 123.57 232 123.58 232.01 123.6 232.04 123.98 232.04 124 232.05 124.02 232.05 124.04 232.05 124.05 232.05 124.06 232.05 124.08 232.06 124.09 232.06 124.11 232.07 124.14 232.08 124.17 232.08 124.2 232.09 124.22 232.11 124.25 232.11 124.27 232.18 124.41 232.28 124.44 232.29 124.44 232.3 124.44 232.32 124.45 232.34 124.46 232.37 124.46 232.39 124.47 232.41 124.48 232.43 124.49 232.45 124.5 232.46 124.5 232.48 124.51 232.49 124.52 232.53 124.55 232.59 124.6 232.67 124.58 232.67 124.58 232.69 124.58 232.72 124.58 232.74 124.57 232.76 124.57 232.78 124.57 232.81 124.57 232.85 124.57 232.88 124.57 232.92 124.58 232.95 124.59 232.98 124.6 233 124.61 233.02 124.62 233.04 124.63 233.06 124.64 233.08 124.65 233.1 124.66 233.12 124.68 233.52 124.92 233.72 125.1 233.91 125.4 234.05 125.54 234.07 125.55 234.33 125.72 234.6 125.86 235.1 126.12 235.4 126.33 235.51 126.36 235.55 126.37 235.58 126.38 235.61 126.38 236.1 126.51 236.34 126.88 236.4 127.2 236.4 127.21 236.4 127.23 236.41 127.24 236.41 127.26 236.42 127.27 236.42 127.29 236.43 127.29 236.44 127.3 236.44 127.31 236.45 127.31 236.45 127.32 236.46 127.33 236.48 127.34 236.49 127.36 236.51 127.38 236.53 127.4 236.55 127.41 236.57 127.43 236.58 127.44 236.63 127.47 236.87 127.61 237.39 127.79 237.72 127.99 237.87 128.07 237.88 128.07 237.89 128.09 237.91 128.1 237.92 128.12 237.93 128.14 237.95 128.15 237.97 128.17 237.99 128.2 238.01 128.22 238.03 128.25 238.05 128.27 238.07 128.3 238.1 128.32 238.12 128.35 238.14 128.37 238.16 128.4 238.19 128.42 238.21 128.44 238.24 128.47 238.27 128.49 238.29 128.52 238.32 128.54 238.35 128.57 238.38 128.59 238.4 128.61 238.43 128.63 238.45 128.65 238.48 128.67 238.5 128.69 238.53 128.71 238.54 128.73 238.56 128.74 238.57 128.75 238.59 128.76 238.61 128.77 238.63 128.79 238.64 128.79 238.65 128.8 238.66 128.81 238.67 128.81 238.68 128.82 238.69 128.82 238.71 128.83 238.72 128.84 238.74 128.85 238.76 128.86 238.78 128.86 238.8 128.87 238.84 128.88 238.87 128.89 238.91 128.9 238.94 128.91 238.98 128.92 239.01 128.93 239.03 128.93 239.57 129.06 239.67 129.08 239.69 129.17 239.7 129.21 239.7 129.23 239.7 129.26 239.7 129.28 239.7 129.3 239.7 129.33 239.7 129.36 239.7 129.39 239.7 129.42 239.69 129.45 239.69 129.48 239.69 129.51 239.68 129.53 239.68 129.54 239.68 129.56 239.67 129.57 239.67 129.59 239.67 129.61 239.66 129.63 239.66 129.66 239.65 129.68 239.64 129.71 239.64 129.73 239.63 129.76 239.63 129.78 239.63 129.8 239.63 129.82 239.62 129.84 239.62 129.86 239.62 129.88 239.62 129.9 239.63 129.93 239.63 129.95 239.63 129.97 239.63 129.99 239.64 130.01 239.73 130.6 239.83 130.91 239.68 130.98 239.12 131.24 238.78 131.35 238.41 131.52 238.24 131.62 237.67 132.16 236.98 132.63 236.9 132.69 236.87 132.7 236.85 132.72 236.82 132.73 236.78 132.74 236.75 132.75 236.72 132.76 236.7 132.76 236.68 132.76 236.65 132.76 236.62 132.76 236.59 132.76 236.57 132.76 236.54 132.76 236.51 132.77 236.48 132.77 236.47 132.78 236.41 132.8 236.39 132.81 236.36 132.83 236.35 132.84 236.34 132.84 236.33 132.85 236.32 132.84 236.31 132.84 236.3 132.84 236.29 132.83 236.28 132.83 236.27 132.82 236.27 132.82 236.26 132.81 236.25 132.8 236.24 132.8 236.24 132.79 236.23 132.78 236.22 132.78 236.21 132.78 236.2 132.77 236.19 132.77 236.18 132.77 236.17 132.77 236.16 132.76 236.15 132.76 236.14 132.76 236.13 132.75 236.12 132.75 236.11 132.75 236.1 132.74 236.09 132.74 236.08 132.74 236.07 132.74 236.06 132.74 236.05 132.74 236.04 132.74 236.03 132.74 236.03 132.74 236.02 132.74 236.01 132.73 236 132.73 235.99 132.72 235.98 132.71 235.97 132.7 235.97 132.69 235.97 132.68 235.97 132.67 235.96 132.67 235.95 132.66 235.94 132.66 235.93 132.66 235.92 132.66 235.91 132.66 235.9 132.66 235.89 132.66 235.88 132.66 235.87 132.66 235.86 132.66 235.85 132.65 235.85 132.65 235.84 132.65 235.83 132.64 235.83 132.64 235.82 132.63 235.82 132.63 235.81 132.62 235.81 132.61 235.81 132.6 235.81 132.59 235.8 132.58 235.8 132.58 235.8 132.57 235.81 132.56 235.81 132.54 235.81 132.53 235.82 132.52 235.82 132.51 235.82 132.5 235.82 132.5 235.83 132.49 235.83 132.48 235.83 132.47 235.82 132.47 235.81 132.46 235.81 132.46 235.8 132.45 235.78 132.45 235.77 132.44 235.76 132.44 235.75 132.43 235.74 132.43 235.73 132.42 235.72 132.41 235.7 132.41 235.69 132.4 235.67 132.39 235.66 132.39 235.64 132.38 235.63 132.37 235.61 132.36 235.61 132.35 235.6 132.35 235.59 132.35 235.59 132.34 235.58 132.33 235.58 132.33 235.57 132.32 235.56 132.32 235.55 132.31 235.55 132.3 235.54 132.29 235.54 132.29 235.53 132.28 235.52 132.27 235.52 132.26 235.52 132.25 235.52 132.25 235.51 132.24 235.51 132.23 235.51 132.22 235.51 132.22 235.5 132.2 235.5 132.19 235.49 132.18 235.48 132.17 235.47 132.16 235.46 132.15 235.45 132.14 235.44 132.14 235.43 132.13 235.42 132.12 235.41 132.11 235.4 132.11 235.39 132.11 235.38 132.1 235.37 132.1 235.36 132.1 235.35 132.1 235.34 132.1 235.34 132.1 235.33 132.1 235.32 132.1 235.31 132.1 235.3 132.1 235.29 132.1 235.28 132.1 235.27 132.09 235.26 132.09 235.25 132.09 235.24 132.08 235.24 132.08 235.23 132.07 235.22 132.07 235.21 132.06 235.21 132.06 235.2 132.05 235.19 132.04 235.19 132.04 235.18 132.03 235.18 132.02 235.17 132.01 235.17 132 235.17 131.99 235.16 131.98 235.16 131.97 235.16 131.96 235.16 131.95 235.15 131.94 235.15 131.92 235.14 131.91 235.13 131.9 235.12 131.89 235.12 131.89 235.11 131.88 235.11 131.87 235.11 131.87 235.1 131.86 235.1 131.85 235.09 131.84 235.09 131.82 235.09 131.81 235.08 131.8 235.07 131.79 235.07 131.78 235.06 131.78 235.05 131.77 235.04 131.77 235.03 131.78 235.02 131.78 235.01 131.79 235 131.8 235 131.8 234.99 131.81 234.98 131.81 234.97 131.82 234.97 131.82 234.96 131.83 234.95 131.83 234.94 131.83 234.93 131.84 234.92 131.84 234.9 131.84 234.89 131.84 234.87 131.84 234.86 131.84 234.85 131.83 234.8 131.82 234.79 131.82 234.78 131.81 234.76 131.81 234.75 131.81 234.74 131.8 234.73 131.79 234.72 131.79 234.71 131.78 234.7 131.77 234.69 131.77 234.68 131.76 234.67 131.75 234.66 131.74 234.65 131.74 234.64 131.73 234.63 131.72 234.62 131.71 234.61 131.7 234.6 131.7 234.59 131.69 234.58 131.69 234.57 131.68 234.55 131.68 234.54 131.68 234.53 131.68 234.52 131.67 234.51 131.67 234.49 131.67 234.48 131.67 234.47 131.68 234.45 131.68 234.44 131.68 234.43 131.69 234.43 131.69 234.42 131.7 234.41 131.7 234.4 131.71 234.39 131.72 234.39 131.72 234.39 131.73 234.38 131.74 234.38 131.75 234.37 131.76 234.37 131.76 234.36 131.77 234.35 131.78 234.34 131.79 234.33 131.79 234.33 131.8 234.32 131.8 234.31 131.81 234.3 131.82 234.29 131.82 234.28 131.83 234.27 131.84 234.26 131.84 234.24 131.85 234.22 131.86 234.21 131.87 234.19 131.88 234.17 131.88 234.15 131.89 234.14 131.89 234.12 131.9 234.11 131.9 234.1 131.9 234.08 131.91 234.07 131.91 234.06 131.91 234.05 131.91 234.04 131.9 234.03 131.9 234.02 131.9 234.01 131.9 234 131.89 233.98 131.89 233.97 131.88 233.96 131.87 233.95 131.87 233.94 131.86 233.94 131.85 233.93 131.85 233.93 131.84 233.92 131.83 233.92 131.82 233.91 131.81 233.91 131.81 233.91 131.79 233.91 131.77 233.91 131.73 233.91 131.7 233.91 131.68 233.91 131.67 233.9 131.66 233.9 131.65 233.89 131.64 233.89 131.63 233.88 131.62 233.87 131.61 233.86 131.59 233.85 131.58 233.85 131.57 233.84 131.56 233.83 131.55 233.82 131.54 233.81 131.53 233.8 131.52 233.79 131.51 233.78 131.5 233.77 131.5 233.76 131.49 233.75 131.49 233.74 131.49 233.73 131.49 233.72 131.49 233.71 131.49 233.69 131.49 233.68 131.49 233.66 131.5 233.65 131.51 233.63 131.52 233.62 131.52 233.61 131.53 233.6 131.53 233.58 131.55 233.56 131.57 233.56 131.59 233.55 131.6 233.55 131.62 233.54 131.66 233.54 131.68 233.52 131.7 233.52 131.71 233.51 131.71 233.49 131.72 233.43 131.73 233.41 131.74 233.4 131.74 233.39 131.75 233.38 131.75 233.38 131.76 233.37 131.76 233.36 131.77 233.35 131.77 233.35 131.77 233.33 131.78 233.32 131.78 233.31 131.78 233.3 131.77 233.29 131.77 233.28 131.76 233.23 131.7 233.22 131.69 233.21 131.69 233.21 131.69 233.2 131.69 233.19 131.69 233.16 131.71 233.14 131.73 233.11 131.75 233.1 131.76 233.1 131.77 233.07 131.78 233.05 131.78 233.04 131.78 233.04 131.77 233.03 131.77 233.02 131.76 233.01 131.76 233 131.76 232.99 131.75 232.97 131.73 232.96 131.73 232.94 131.72 232.84 131.68 232.82 131.68 232.81 131.68 232.79 131.67 232.78 131.67 232.77 131.67 232.76 131.67 232.75 131.67 232.74 131.67 232.73 131.67 232.72 131.68 232.71 131.68 232.7 131.69 232.69 131.7 232.64 131.88 232.63 131.9 232.63 131.91 232.62 131.92 232.62 131.92 232.61 131.95 232.6 131.97 232.59 131.99 232.58 132.01 232.57 132.02 232.55 132.04 232.54 132.05 232.54 132.06 232.53 132.07 232.53 132.08 232.52 132.08 232.52 132.1 232.51 132.11 232.51 132.12 232.51 132.13 232.5 132.15 232.5 132.16 232.5 132.18 232.49 132.19 232.49 132.21 232.49 132.23 232.49 132.24 232.49 132.26 232.49 132.28 232.49 132.3 232.49 132.32 232.48 132.33 232.48 132.35 232.48 132.37 232.47 132.38 232.47 132.4 232.46 132.41 232.45 132.43 232.44 132.45 232.43 132.47 232.42 132.48 232.41 132.49 232.4 132.52 232.39 132.53 232.38 132.54 232.38 132.56 232.38 132.57 232.38 132.58 232.38 132.6 232.39 132.63 232.39 132.65 232.39 132.66 232.39 132.67 232.39 132.68 232.39 132.68 232.38 132.69 232.38 132.7 232.37 132.71 232.37 132.72 232.36 132.72 232.36 132.73 232.35 132.74 232.34 132.75 232.34 132.76 232.33 132.76 232.3 132.77 232.26 132.77 232.2 132.77 232.11 132.77 232.08 132.77 232.05 132.77 232.02 132.77 232 132.76 231.98 132.77 231.97 132.77 231.96 132.77 231.96 132.77 231.95 132.78 231.94 132.78 231.94 132.79 231.93 132.79 231.92 132.8 231.92 132.8 231.91 132.81 231.91 132.81 231.9 132.82 231.89 132.83 231.89 132.83 231.88 132.84 231.87 132.85 231.87 132.85 231.86 132.86 231.85 132.87 231.84 132.87 231.83 132.88 231.82 132.89 231.81 132.89 231.8 132.9 231.8 132.9 231.79 132.9 231.78 132.91 231.78 132.91 231.77 132.92 231.76 132.93 231.76 132.93 231.75 132.94 231.75 132.95 231.74 132.96 231.74 132.97 231.73 132.98 231.73 132.99 231.72 133 231.72 133.01 231.71 133.02 231.71 133.02 231.71 133.06 231.76 133.19 231.76 133.19 231.76 133.2 231.76 133.22 231.77 133.23 231.77 133.25 231.77 133.26 231.77 133.27 231.77 133.28 231.77 133.29 231.77 133.3 231.77 133.31 231.76 133.32 231.76 133.32 231.75 133.35 231.73 133.38 231.71 133.39 231.69 133.4 231.68 133.4 231.67 133.41 231.65 133.41 231.63 133.41 231.62 133.41 231.57 133.4 231.55 133.4 231.49 133.38 231.42 133.35 231.35 133.32 231.3 133.3 231.27 133.28 231.26 133.27 231.25 133.26 231.24 133.25 231.23 133.25 231.23 133.24 231.23 133.23 231.22 133.22 231.22 133.21 231.21 133.2 231.21 133.19 231.2 133.18 231.2 133.17 231.19 133.16 231.19 133.15 231.18 133.14 231.17 133.13 231.16 133.12 231.15 133.1 231.14 133.09 231.13 133.08 231.12 133.07 231.11 133.06 231.09 133.05 231.08 133.04 231.07 133.03 231.06 133.02 231.04 133.01 231.03 133 231.01 132.99 231 132.98 230.99 132.97 230.97 132.96 230.96 132.95 230.94 132.94 230.93 132.94 230.91 132.93 230.9 132.92 230.89 132.92 230.87 132.91 230.86 132.9 230.85 132.9 230.83 132.9 230.82 132.89 230.81 132.89 230.8 132.88 230.78 132.88 230.76 132.87 230.74 132.87 230.73 132.87 230.71 132.87 230.69 132.86 230.67 132.86 230.64 132.86 230.61 132.85 230.59 132.85 230.56 132.85 230.53 132.84 230.51 132.84 230.49 132.84 230.47 132.84 230.45 132.84 230.43 132.84 230.41 132.84 230.4 132.84 230.39 132.84 230.38 132.84 230.37 132.84 230.36 132.84 230.34 132.84 230.16 132.82 229.96 132.79 229.84 132.77 229.74 132.77 229.67 132.85 229.63 132.9 229.58 132.93 229.55 132.96 229.5 132.98 229.44 132.98 229.34 132.99 229.29 132.98 229.22 133 229.17 133.03 229.11 133.06 229.06 133.09 229.03 133.1 228.97 133.12 228.9 133.13 228.86 133.15 228.82 133.16 228.8 133.19 228.79 133.2 228.78 133.23 228.77 133.28 228.76 133.34 228.74 133.4 228.71 133.45 228.68 133.49 228.66 133.52 228.63 133.56 228.58 133.6 228.51 133.65 228.37 133.75 228.28 133.81 228.2 133.85 228.14 133.88 228.05 133.89 228.02 133.85 227.97 133.82 227.91 133.78 227.86 133.74 227.81 133.69 227.77 133.66 227.73 133.64 227.65 133.61 227.53 133.56 227.4 133.51 227.3 133.46 227.25 133.44 227.21 133.42 227.12 133.41 226.97 133.38 226.93 133.39 226.9 133.39 226.8 133.41 226.69 133.42 226.63 133.44 226.57 133.47 226.52 133.52 226.48 133.57 226.45 133.63 226.42 133.69 226.4 133.76 226.38 133.88 226.35 134.01 226.34 134.07 226.32 134.13 226.28 134.18 226.24 134.22 226.19 134.26 226.15 134.3 226.12 134.34 226.09 134.41 226.07 134.47 226.07 134.57 226.06 134.71 226.06 134.78 226.07 134.87 226.08 134.93 226.08 134.98 226.08 135.01 226.08 135.01 226.08 135.04 226.04 135.16 226.01 135.23 225.95 135.33 225.92 135.4 225.9 135.45 225.88 135.51 225.85 135.68 225.86 135.75 225.86 135.85 226.03 135.87 226.07 135.89 226.1 135.91 226.12 135.94 226.08 136.12 226.07 136.18 226.06 136.23 226.04 136.28 226.03 136.3 226.01 136.32 225.96 136.33 225.91 136.35 225.83 136.36 225.81 136.37 225.77 136.36 225.73 136.36 225.7 136.36 225.66 136.38 225.58 136.41 225.51 136.45 225.46 136.48 225.41 136.52 225.37 136.55 225.36 136.58 225.35 136.61 225.36 136.65 225.47 136.85 225.19 136.83 224.58 136.92 224.33 137.02 223.99 136.99 223.87 137.08 223.79 137.31 224.05 138.05 224.15 138.26 224.26 138.65 224.31 138.85 224.74 138.86 224.84 139.18 224.41 139.18 224.6 139.85 224.57 140.01 224.57 140.09 224.54 140.11 224.45 139.99 224.47 139.87 224.43 139.64 224.28 139.34 224.15 139.07 224 138.76 223.87 138.5 223.77 138.31 223.73 138.21 223.62 137.95 223.66 137.19 223.75 137.01 224.17 136.61 224.22 136 224.11 135.85 223.97 135.64 223.71 135.26 223.59 134.96 223.28 134.15 222.82 133.28 222.71 132.43 222.56 132.02 222.32 131.74 222.1 131.58 221.98 131.51 221.55 131.33 221.03 131.11 220.62 130.94 220.39 130.89 220 130.81 219.95 130.78 219.83 130.77 219.72 130.76 219.67 130.74 219.59 130.72 219.26 130.62 219.16 130.6 218.91 130.53 218.45 130.25 218.27 130.13 218.25 130.09 218.23 130.08 218.22 130.07 218.2 130.05 218.18 130.04 218.16 130.03 218.14 130.01 218.12 130 218.09 129.99 218.07 129.98 218.05 129.97 218.02 129.95 218 129.94 217.98 129.94 217.96 129.93 217.94 129.92 217.92 129.91 217.9 129.9 217.88 129.9 217.86 129.89 217.85 129.88 217.83 129.88 217.81 129.87 217.8 129.87 217.78 129.86 217.75 129.85 217.72 129.84 217.69 129.83 217.65 129.82 217.65 129.82 217.54 129.8 217.44 129.75 217.21 129.56 216.99 129.48 216.76 129.33 216.6 129.31 216.4 129.16 216.22 128.98 215.99 128.79 215.84 128.7 215.79 128.66 215.56 128.59 215.34 128.51 214.77 128.06 214.29 127.96 213.98 127.9 213.8 128 213.21 127.31 213.16 127.26 213.08 127.15 213.03 127.09 212.99 127.07 212.89 126.98 212.77 126.86 212.49 126.6 212.45 126.56 212.38 126.46 212.26 126.34 212.22 126.29 212.18 126.23 212.15 126.19 212.11 126.16 211.7 126.1 211.36 125.93 210.49 125.09 210.45 125.06 210.41 125.03 210.36 125 210.26 124.98 210.1 124.95 209.99 124.92 209.95 124.86 209.92 124.81 209.88 124.77 209.84 124.72 209.79 124.69 209.62 124.61 209.49 124.51 209.72 124.21 209.82 123.97 209.61 123.89 209.26 123.85 209.26 123.84 209.26 123.83 209.26 123.82 209.26 123.81 209.27 123.8 209.27 123.8 209.27 123.79 209.28 123.78 209.28 123.76 209.29 123.76 209.29 123.75 209.3 123.74 209.3 123.72 209.31 123.71 209.32 123.7 209.33 123.69 209.34 123.68 209.35 123.67 209.35 123.67 209.36 123.66 209.36 123.65 209.37 123.65 209.38 123.64 209.38 123.63 209.39 123.62 209.41 123.61 209.42 123.6 209.43 123.6 209.44 123.59 209.45 123.58 209.46 123.57 209.47 123.57 209.48 123.56 209.49 123.56 209.5 123.55 209.51 123.55 209.52 123.54 209.53 123.54 209.54 123.53 209.56 123.53 209.57 123.52 209.58 123.52 209.6 123.51 209.62 123.5 209.66 123.48 209.87 123.39 210.1 123.48 210.11 123.48 210.15 123.48 210.21 123.49 210.27 123.49 210.31 123.49 210.34 123.49 210.46 123.47 210.51 123.45 210.66 123.23 210.62 122.96 210.83 122.88 210.94 122.69 210.98 122.4 210.75 122.27 210.88 122.04 210.9 122 211.01 121.88 210.49 121.37 210.12 121.41 210.05 122.01 210.04 122.15 209.85 123.24 209.44 123.13 209.46 123.07 209.51 122.84 209.56 122.71 209.58 122.62 209.61 122.37 209.62 122.31 209.63 122.26 209.63 122.16 209.64 122.01 209.64 121.85 209.46 122.01 209.45 122.02 209.44 122.03 209.43 122.04 209.42 122.04 209.42 122.05 209.41 122.06 209.4 122.07 209.39 122.07 209.38 122.08 209.37 122.09 209.36 122.09 209.36 122.1 209.35 122.11 209.34 122.11 209.33 122.11 209.32 122.12 209.31 122.12 209.3 122.13 209.29 122.13 209.28 122.14 209.27 122.14 209.26 122.15 209.25 122.15 209.24 122.15 209.23 122.15 209.22 122.16 209.21 122.16 209.2 122.16 209.19 122.16 209.18 122.16 209.17 122.17 209.16 122.17 209.15 122.17 209.14 122.17 209.13 122.17 209.12 122.17 209.11 122.17 209.1 122.17 209.09 122.16 209.08 122.16 209.07 122.16 209.06 122.15 209.05 122.15 209.05 122.15 209.04 122.14 209.03 122.14 209.02 122.13 209.01 122.13 209 122.12 208.84 122.1 208.74 122.16 208.65 122.28 208.56 122.37 208.48 122.43 208.24 122.47 207.55 122.48 207.22 122.32 207.35 122.02 207.4 121.88 207.23 121.56 207.34 120.7 207.32 120.21 207.44 119.96 207.45 119.9 207.46 119.79 207.5 119.69 207.49 119.57 207.5 119.51 207.5 119.16 207.46 119.09 207.45 118.85 207.42 118.67 207.38 118.1 207.33 117.31 207.42 116.39 207.05 116.13 206.52 115.29 206.49 115.24 206.38 114.96 206.23 115.11 205.73 114.98 205.56 114.47 205.46 113.91 205.36 113.53 205.38 113.46 205.42 113.36 205.45 113.3 205.65 113.01 205.6 112.95 205.54 112.91 205.45 112.85 205.31 112.78 205.14 112.69 204.95 112.57 204.78 112.5 204.56 112.46 204.46 112.41 204.27 112.4 204.14 112.36 204.1 112.34 203.96 112.25 203.8 112.16 203.41 112.19 203.16 112.32 203.99 110.95 204.4 109.82 204.56 109.19 205.2 108.18 205.32 107.08 204.73 106.39 204.29 105.81 204.2 104.8 204.08 104.02 204.18 103.82 204.11 103.59 204.45 102.46 204.68 101.84 204.9 101.27 206.13 101.62 206.49 101.62 206.58 101.62 206.74 101.56 206.91 101.49 207.01 101.46 207.11 101.43 207.35 101.39 207.76 101.27 208.28 101.15 208.32 100.96 208.38 100.57 208.4 100.51 208.43 100.42 208.62 100.25 208.96 100.07 209.16 99.92 209.42 99.79 209.62 99.65 209.76 99.5 Z"/>
</g></svg>