<svg xmlns="http://www.w3.org/2000/svg" version="1.2" baseProfile="tiny" stroke-linecap="round" stroke-linejoin="round" viewBox="538.53 459.75 40.72 25.12"><g xmlns="http://www.w3.org/2000/svg" id="Mélida">
<path d="M 579.19 483.86 579.22 483.92 579.25 483.98 579.23 483.98 579.21 483.99 579.15 484.01 579.1 484.03 579.07 484.05 579.02 484.07 578.95 484.1 578.89 484.12 578.85 484.14 578.8 484.15 578.74 484.16 578.72 484.17 578.66 484.18 578.58 484.21 578.55 484.22 578.52 484.22 578.5 484.21 578.47 484.21 578.42 484.21 578.37 484.2 578.34 484.2 578.29 484.21 578.2 484.22 578.09 484.24 578.01 484.25 577.93 484.26 577.9 484.27 577.87 484.28 577.81 484.3 577.76 484.33 577.7 484.35 577.65 484.37 577.6 484.39 577.54 484.41 577.49 484.42 577.44 484.43 577.38 484.45 577.36 484.46 577.32 484.48 577.26 484.51 577.22 484.54 577.18 484.57 577.15 484.58 577.11 484.61 577.04 484.66 576.96 484.72 576.84 484.77 576.66 484.84 576.48 484.74 576.38 484.69 576.28 484.62 576.21 484.56 576.18 484.54 576.15 484.52 576.13 484.51 576.11 484.5 575.98 484.5 575.92 484.48 575.81 484.44 575.74 484.41 575.71 484.39 575.7 484.39 575.67 484.38 575.63 484.37 575.55 484.35 575.48 484.33 575.4 484.3 575.35 484.28 575.28 484.26 575.14 484.23 575.05 484.21 574.92 484.19 574.85 484.17 574.82 484.16 574.74 484.13 574.58 484.06 574.47 484.02 574.33 483.96 574.25 483.92 574.19 483.89 574.08 483.89 573.98 483.87 573.89 483.85 573.88 483.85 573.83 483.84 573.81 483.83 573.8 483.83 573.79 483.83 573.63 483.79 573.59 483.76 573.53 483.71 573.49 483.67 573.42 483.62 573.33 483.53 573.23 483.46 573.16 483.42 573.15 483.41 573.11 483.39 573.03 483.35 572.94 483.31 572.9 483.29 572.85 483.26 572.78 483.21 572.75 483.19 572.74 483.18 572.62 483.06 572.57 483.02 572.54 482.98 572.4 482.86 572.36 482.82 572.21 482.69 572.1 482.6 571.96 482.48 571.9 482.44 571.86 482.42 571.83 482.39 571.75 482.32 571.69 482.25 571.67 482.21 571.64 482.16 571.62 482.12 571.6 482.07 571.58 482.02 571.56 481.99 571.5 481.96 571.45 481.93 571.43 481.91 571.39 481.87 571.3 481.78 571.23 481.72 571.14 481.64 571.06 481.57 570.95 481.48 570.85 481.41 570.75 481.36 570.72 481.36 570.61 481.33 570.58 481.3 570.57 481.29 570.56 481.24 570.55 481.19 570.52 481.16 570.5 481.13 570.44 481.07 570.39 481.01 570.34 480.93 570.33 480.92 570.31 480.87 570.31 480.81 570.3 480.76 570.29 480.71 570.27 480.68 570.22 480.66 570.16 480.63 570.1 480.62 570.04 480.6 569.99 480.57 569.96 480.53 569.96 480.51 569.97 480.47 569.99 480.42 570.01 480.37 570.02 480.31 570.02 480.28 570.03 480.24 570.04 480.22 570.04 480.21 570.04 480.21 570.06 480.19 570.12 480.16 570.15 480.13 570.19 480.1 570.21 480.09 570.24 480.08 570.26 480.07 570.35 480.03 570.35 480.03 570.39 480.01 570.4 480 570.41 479.98 570.41 479.96 570.42 479.91 570.42 479.87 570.43 479.82 570.44 479.77 570.46 479.73 570.47 479.71 570.51 479.69 570.57 479.66 570.8 479.53 570.85 479.49 570.89 479.46 570.92 479.43 570.95 479.4 571 479.36 571.05 479.31 571.06 479.3 571.1 479.26 571.14 479.23 571.18 479.2 571.21 479.18 571.23 479.17 571.24 479.17 571.28 479.15 571.32 479.14 571.38 479.12 571.41 479.13 571.44 479.13 571.46 479.13 571.52 479.1 571.53 479.1 571.58 479.07 571.65 479.02 571.71 478.97 571.76 478.93 571.79 478.93 571.82 478.93 571.86 478.93 571.91 478.93 571.93 478.92 571.96 478.9 572.02 478.87 572.07 478.84 572.15 478.78 572.22 478.72 572.26 478.69 572.28 478.68 572.31 478.65 572.35 478.61 572.37 478.6 572.37 478.59 572.41 478.56 572.48 478.5 572.53 478.55 572.62 478.66 572.73 478.75 572.75 478.77 573.01 479.05 573.1 479.14 573.14 479.18 573.32 479.33 573.33 479.34 573.45 479.43 573.53 479.5 573.64 479.6 573.72 479.67 573.77 479.71 574.13 480 574.53 480.29 574.84 480.53 574.87 480.56 574.91 480.63 574.93 480.64 574.94 480.66 574.99 480.7 575.05 480.74 575.14 480.8 575.18 480.84 575.23 480.87 575.29 480.9 575.41 480.96 575.52 481.03 575.66 481.12 575.78 481.21 575.9 481.27 575.93 481.28 576 481.31 576.08 481.36 576.17 481.43 576.33 481.53 576.51 481.65 576.67 481.76 576.81 481.87 576.98 481.97 577.04 482.02 577.1 482.05 577.18 482.11 577.29 482.19 577.38 482.26 577.48 482.32 577.54 482.35 577.6 482.37 577.65 482.4 577.74 482.49 577.77 482.52 577.87 482.6 578.01 482.71 578.15 482.82 578.23 482.88 578.31 482.93 578.41 483 578.42 483.01 578.48 483.05 578.58 483.13 578.65 483.19 578.72 483.25 578.8 483.33 578.83 483.35 578.89 483.42 578.96 483.5 579.03 483.58 579.04 483.6 579.1 483.7 579.14 483.77 579.19 483.86 Z M 562 465.06 562.04 465.14 562.05 465.15 562.1 465.26 562.14 465.33 562.15 465.36 562.25 465.56 562.47 465.92 562.6 466.16 562.69 466.31 562.7 466.33 562.72 466.36 562.79 466.47 562.83 466.55 562.84 466.57 562.85 466.59 562.86 466.61 562.87 466.64 562.9 466.71 562.94 466.79 563 466.88 563.02 466.93 563.05 466.96 563.07 466.99 563.1 467.02 563.11 467.04 563.15 467.08 563.17 467.11 563.19 467.14 563.24 467.23 563.3 467.33 563.35 467.43 563.39 467.5 563.41 467.54 563.43 467.6 563.45 467.65 563.46 467.67 563.48 467.76 563.51 467.85 563.54 467.92 563.55 467.95 563.56 467.97 563.61 468.09 563.62 468.12 563.66 468.2 563.67 468.21 563.68 468.27 563.68 468.32 563.68 468.43 563.69 468.52 563.7 468.63 563.71 468.8 563.71 468.9 563.72 469.01 563.72 469.01 563.74 469.12 563.76 469.25 563.76 469.32 563.76 469.34 563.76 469.35 563.78 469.39 563.78 469.42 563.8 469.46 563.89 469.64 563.93 469.75 563.94 469.78 563.94 469.81 563.97 469.88 563.99 469.94 564.01 470.02 564.04 470.09 564.05 470.18 564.06 470.24 564.06 470.26 564.08 470.45 564.08 470.45 564.1 470.73 564.13 470.94 564.14 471.01 564.16 471.15 564.16 471.17 564.17 471.22 564.18 471.31 564.21 471.51 564.23 471.65 564.26 471.85 564.28 472 564.3 472.12 564.32 472.24 564.33 472.27 564.33 472.28 564.32 472.39 564.3 472.52 564.29 472.62 564.29 472.76 564.28 472.82 564.28 472.86 564.28 472.9 564.27 472.94 564.27 472.95 564.27 473.02 564.27 473.15 564.27 473.3 564.27 473.33 564.28 473.36 564.28 473.37 564.28 473.4 564.27 473.43 564.22 473.54 564.21 473.56 564.18 473.62 564.17 473.64 564.16 473.65 564.13 473.7 563.91 474.09 563.56 474.09 563.51 474.08 563.5 474.08 563.48 474.08 563.24 474.04 563.19 474.03 563.13 474.01 563.09 474 562.9 473.95 562.82 473.93 562.81 473.93 562.24 473.83 561.44 473.33 561.39 473.3 561.26 473.22 561 473.24 560.88 473.25 560.87 473.27 560.78 473.43 560.77 473.44 560.72 473.57 560.71 473.59 560.57 473.92 560.47 474.15 560.38 474.4 560.22 474.59 560.2 474.64 560.06 474.84 560.04 474.86 560.01 474.89 559.94 474.9 559.88 474.91 559.79 474.93 559.78 474.93 559.75 474.94 559.7 474.95 559.45 474.98 559.42 474.98 559.36 475.03 559.35 475.04 559.3 475.09 559.25 475.16 559.2 475.21 559.1 475.4 559.07 475.46 559.06 475.51 559.05 475.59 559.05 475.63 559.04 475.66 558.95 475.75 558.9 475.8 558.89 475.81 558.31 475.97 558.3 475.98 558.1 476.03 558.09 476.03 558.03 476.13 557.99 476.18 557.95 476.23 557.95 476.25 557.96 476.36 557.99 476.47 558.03 476.54 558.02 476.55 557.99 476.62 557.76 477.09 557.56 477.48 557.56 477.49 557.54 477.54 557.47 477.66 557.41 477.81 557.4 477.82 557.37 477.94 557.33 478.12 557.33 478.13 557.3 478.25 557.29 478.29 557.24 478.53 557.23 478.55 557.23 478.56 557.22 478.62 557.18 478.75 557.18 478.78 557.14 478.89 557.08 478.91 557.06 478.92 557.04 478.93 556.75 479.06 556.72 479.07 556.7 479.09 556.53 479.34 556.46 479.4 556.4 479.47 556.36 479.54 556.31 479.66 556.3 479.68 556.26 479.71 556.2 479.75 556.14 479.8 556.07 479.86 556 479.94 555.98 479.97 555.92 480.05 555.84 480.17 555.77 480.29 555.7 480.4 555.56 480.47 555.56 480.48 555.54 480.48 555.21 480.48 555.17 480.48 555.16 480.48 554.89 480.38 554.86 480.38 554.84 480.39 554.81 480.41 554.74 480.44 554.69 480.48 554.66 480.53 554.64 480.57 554.6 480.66 554.59 480.69 554.55 480.74 554.51 480.79 554.49 480.84 554.47 480.89 554.48 480.92 554.48 480.93 554.48 480.99 554.46 481.05 554.43 481.12 554.4 481.2 554.38 481.25 554.33 481.29 554.3 481.32 554.28 481.37 554.22 481.46 554.22 481.47 554.21 481.48 554.21 481.49 554.14 481.6 554.13 481.61 554.07 481.7 554.06 481.75 554.05 481.8 554.04 481.86 554.01 481.92 553.97 481.96 553.94 482 553.9 482.03 553.87 482.05 553.85 482.06 553.81 482.06 553.8 482.06 553.76 482.07 553.74 482.08 553.67 482.12 553.59 482.18 553.52 482.16 553.44 482.13 553.34 482.11 553.29 482.11 553.23 482.12 553.18 482.16 553.09 482.22 553.02 482.27 552.99 482.29 552.98 482.3 552.87 482.34 552.64 482.55 552.61 482.57 552.59 482.56 552.42 482.44 552.35 482.39 552.31 482.35 551.87 481.83 551.56 481.47 551.54 481.45 551.53 481.44 551.52 481.42 551.38 481.27 551.3 481.17 551.29 481.15 551.2 481.05 551.19 481.04 551.14 480.98 550.95 480.76 550.75 480.54 550.61 480.39 550.46 480.24 550.44 480.22 550.41 480.19 550.35 480.13 550.17 479.92 550.07 479.81 550.05 479.79 549.98 479.72 549.96 479.7 549.88 479.61 549.76 479.48 549.74 479.46 549.65 479.35 549.64 479.34 549.5 479.19 549.46 479.14 549.39 479.07 549.38 479.06 549.36 479.04 549.26 478.93 549.05 478.71 549.05 478.7 549.04 478.69 548.85 478.49 548.73 478.36 548.72 478.34 548.52 478.13 548.51 478.11 548.5 478.1 548.49 478.08 548.48 478.07 548.34 477.93 548.33 477.91 548.16 477.73 548.13 477.7 548.06 477.62 548.05 477.61 548.03 477.58 548.01 477.56 547.86 477.38 547.85 477.37 547.85 477.36 547.63 477.07 547.6 477.04 547.6 477.03 547.51 476.94 547.18 476.6 547.17 476.6 547.16 476.59 546.9 476.32 546.88 476.29 546.87 476.29 546.75 476.17 546.75 476.16 546.6 476.02 546.56 475.96 546.5 475.89 546.4 475.77 546.33 475.68 546.3 475.63 546.22 475.5 546.17 475.42 546.12 475.35 546.12 475.34 546.1 475.32 545.99 475.14 545.91 475.01 545.85 474.88 545.79 474.76 545.77 474.68 545.76 474.59 545.73 474.5 545.7 474.39 545.67 474.25 545.65 474.16 545.64 474.14 545.63 474.09 545.62 474.02 545.62 473.99 545.61 473.94 545.61 473.88 545.61 473.79 545.61 473.73 545.61 473.68 545.6 473.63 545.6 473.57 545.59 473.5 545.59 473.47 545.58 473.4 545.57 473.32 545.55 473.15 545.55 473.11 545.56 473.01 545.56 472.99 545.59 472.82 545.6 472.72 545.61 472.68 545.62 472.62 545.65 472.57 545.69 472.51 545.72 472.43 545.73 472.4 545.74 472.37 545.75 472.32 545.76 472.26 545.77 472.18 545.77 472.14 545.77 472.09 545.77 472.01 545.77 471.93 545.76 471.87 545.75 471.81 545.74 471.75 545.73 471.7 545.71 471.65 545.71 471.63 545.69 471.58 545.64 471.47 545.61 471.37 545.58 471.29 545.57 471.28 545.57 471.27 545.53 471.16 545.5 471.08 545.48 471.04 545.46 471 545.45 470.99 545.44 470.96 545.42 470.92 545.39 470.89 545.38 470.86 545.37 470.84 545.36 470.82 545.29 470.71 545.17 470.5 545.12 470.42 545.1 470.38 545.04 470.31 545.02 470.26 545 470.23 545.1 470.07 545.14 470.06 545.25 470.03 545.36 470 545.44 469.98 545.49 469.96 545.7 469.91 545.75 469.73 545.75 469.72 545.8 469.55 545.8 469.54 545.8 469.52 545.83 469.44 545.88 469.29 545.92 469.21 545.93 469.18 545.89 469.06 545.87 469.03 545.8 468.95 545.79 468.93 545.89 468.78 545.91 468.75 545.91 468.74 545.81 468.66 545.75 468.61 545.22 468.28 545.06 468.16 544.88 468.04 544.87 468.03 544.85 468.02 544.83 468 544.8 467.98 544.74 467.92 544.67 467.87 544.66 467.87 544.65 467.87 544.63 467.86 544.56 467.85 544.49 467.83 544.47 467.83 544.41 467.81 544.36 467.8 544.19 467.77 544.07 467.74 543.9 467.71 543.9 467.64 543.89 467.58 543.88 467.54 543.87 467.47 543.86 467.41 543.83 467.35 543.81 467.33 543.78 467.28 543.77 467.27 543.69 467.18 543.58 467.07 543.44 466.99 543.41 466.94 543.35 466.83 543.29 466.74 543.22 466.61 543.11 466.56 543.02 466.51 543 466.5 542.98 466.49 542.94 466.48 542.86 466.46 542.77 466.43 542.74 466.42 542.7 466.41 542.67 466.4 542.55 466.37 542.39 466.32 542.36 466.3 542.01 466.03 541.88 465.94 541.87 465.93 541.86 465.93 541.76 465.85 541.75 465.84 541.64 465.76 541.54 465.69 541.43 465.6 541.42 465.59 541.32 465.51 541.31 465.51 541.2 465.42 541.06 465.33 541.02 465.29 541.01 465.28 540.95 465.24 540.84 465.15 540.83 465.15 540.72 465.07 540.67 465.04 540.64 465.02 540.61 465 540.57 464.97 540.51 464.92 540.45 464.87 540.36 464.8 540.31 464.75 540.27 464.72 540.22 464.69 540.19 464.67 540.14 464.62 540.05 464.55 540.03 464.53 540.01 464.52 539.92 464.44 539.75 464.28 539.57 464.12 539.35 463.94 539.23 463.84 539.16 463.73 539.13 463.69 539.1 463.63 539.05 463.58 539 463.5 538.93 463.4 538.86 463.3 538.85 463.28 538.84 463.25 538.82 463.19 538.79 463.11 538.76 463.03 538.73 462.91 538.69 462.8 538.65 462.69 538.62 462.59 538.6 462.53 538.56 462.44 538.62 462.39 538.67 462.34 538.71 462.31 538.74 462.29 538.79 462.25 538.84 462.21 538.9 462.18 538.96 462.14 539.02 462.12 539.08 462.09 539.19 462.05 539.23 462.04 539.27 462.03 539.3 462.03 539.34 462.02 539.38 462.01 539.43 462.01 539.48 462.01 539.52 462.01 539.56 462.01 539.62 462.01 539.66 462.01 539.72 462.02 539.77 462.04 539.82 462.05 539.86 462.07 539.93 462.09 540.04 462.13 540.13 462.17 540.21 462.19 540.27 462.21 540.32 462.23 540.38 462.24 540.46 462.26 540.54 462.28 540.6 462.29 540.68 462.3 540.75 462.31 540.8 462.31 540.86 462.32 540.94 462.32 541.01 462.32 541.06 462.32 541.11 462.33 541.17 462.34 541.23 462.36 541.31 462.39 541.37 462.41 541.42 462.44 541.46 462.47 541.52 462.51 541.56 462.54 541.59 462.57 541.63 462.61 541.66 462.64 541.69 462.68 541.73 462.74 541.76 462.8 541.81 462.89 541.85 462.97 541.89 463.07 541.93 463.16 541.96 463.25 542 463.4 542.04 463.52 542.08 463.59 542.15 463.74 542.19 463.83 542.21 463.87 542.25 463.93 542.3 464 542.35 464.08 542.42 464.19 542.51 464.34 542.63 464.54 542.87 464.93 542.89 464.99 542.91 465.04 542.93 465.1 542.97 465.21 543.05 465.45 543.13 465.7 543.14 465.7 543.16 465.7 543.48 465.63 543.53 465.61 543.61 465.6 543.64 465.59 543.7 465.58 543.75 465.58 543.81 465.57 543.87 465.56 543.92 465.55 543.97 465.53 544.02 465.52 544.05 465.5 544.1 465.48 544.12 465.46 544.16 465.44 544.2 465.41 544.26 465.36 544.29 465.33 544.32 465.29 544.34 465.27 544.36 465.23 544.38 465.2 544.4 465.15 544.42 465.1 544.44 465.04 544.47 464.97 544.48 464.9 544.5 464.85 544.5 464.78 544.51 464.75 544.51 464.71 544.51 464.67 544.5 464.63 544.5 464.58 544.49 464.53 544.49 464.47 544.49 464.38 544.5 464.32 544.5 464.25 544.49 464.22 544.49 464.2 544.49 464.18 544.47 464.15 544.44 464.07 544.42 464 544.41 463.96 544.4 463.91 544.4 463.88 544.4 463.86 544.4 463.82 544.4 463.77 544.41 463.73 544.42 463.67 544.43 463.6 544.45 463.51 544.48 463.4 544.51 463.32 544.53 463.23 544.56 463.16 544.57 463.12 544.58 463.06 544.61 463 544.62 462.96 544.64 462.93 544.67 462.9 544.71 462.87 544.74 462.85 544.79 462.83 544.83 462.8 544.9 462.77 544.96 462.74 544.99 462.73 545.02 462.71 545.03 462.71 545.05 462.71 545.08 462.72 545.12 462.73 545.16 462.74 545.2 462.75 545.25 462.76 545.28 462.76 545.33 462.76 545.37 462.76 545.41 462.75 545.45 462.75 545.5 462.76 545.56 462.76 545.62 462.77 545.68 462.77 545.72 462.78 545.75 462.78 545.77 462.79 545.82 462.8 545.87 462.81 545.93 462.82 546.01 462.84 546.05 462.84 546.11 462.86 546.15 462.87 546.19 462.89 546.22 462.9 546.27 462.93 546.3 462.95 546.33 462.97 546.36 463 546.4 463.03 546.44 463.08 546.5 463.14 546.56 463.19 546.62 463.25 546.68 463.32 546.75 463.37 546.81 463.44 546.86 463.49 546.91 463.55 546.96 463.6 546.99 463.65 547.02 463.68 547.05 463.73 547.05 463.73 547.06 463.74 547.08 463.78 547.12 463.82 547.17 463.88 547.23 463.96 547.28 464.02 547.29 464.03 547.31 464.07 547.35 464.14 547.39 464.21 547.42 464.27 547.45 464.35 547.48 464.42 547.52 464.51 547.54 464.58 547.64 464.6 547.7 464.61 547.76 464.62 547.81 464.62 547.87 464.62 547.91 464.62 547.96 464.61 547.99 464.61 548.04 464.6 548.12 464.57 548.2 464.54 548.36 464.49 548.49 464.45 548.63 464.4 548.76 464.34 548.87 464.29 548.98 464.24 549.06 464.2 549.21 464.1 549.32 464.01 549.4 463.93 549.51 463.79 549.63 463.62 549.76 463.37 549.85 463.16 549.86 463.11 549.87 463.1 549.94 462.84 549.88 462.6 549.84 462.45 549.71 462.02 549.62 461.68 549.51 461.44 549.43 461.22 549.39 461.03 549.4 460.86 549.44 460.73 549.52 460.58 549.67 460.4 549.9 460.2 550.29 459.97 550.8 459.75 550.85 459.8 550.88 459.83 550.9 459.85 550.91 459.85 550.92 459.86 550.97 459.9 550.99 459.91 551.03 459.94 551.08 459.97 551.11 460 551.19 460.05 551.21 460.06 551.31 460.13 551.32 460.13 551.41 460.19 551.42 460.2 551.43 460.21 551.48 460.24 551.49 460.24 551.51 460.27 551.52 460.28 551.52 460.29 551.53 460.3 551.54 460.32 551.55 460.34 551.56 460.38 551.58 460.43 551.59 460.49 551.6 460.55 551.61 460.61 551.62 460.66 551.62 460.71 551.62 460.72 551.62 460.75 551.63 460.83 551.63 460.9 551.81 460.96 551.96 461.06 552.09 461.19 552.17 461.31 552.23 461.44 552.25 461.59 552.24 461.88 552.24 462.52 552.26 462.71 552.35 462.96 552.5 463.19 552.63 463.34 552.78 463.45 552.92 463.53 553.05 463.59 553.17 463.61 553.36 463.6 553.66 463.56 554.43 463.36 554.5 463.3 554.53 463.24 554.53 463.07 554.49 462.43 554.39 461.69 554.36 461.15 554.48 461.11 554.79 461 554.83 460.99 554.87 460.98 554.91 460.97 554.95 460.96 554.97 460.96 554.99 460.96 555.03 460.95 555.08 460.95 555.15 460.94 555.23 460.94 555.29 460.93 555.37 460.92 555.45 460.91 555.53 460.91 555.57 460.91 555.61 460.91 555.65 460.92 555.68 460.92 555.72 460.94 555.76 460.95 555.8 460.96 555.83 460.96 555.84 460.97 555.86 460.97 555.88 460.97 555.9 460.97 555.92 460.97 555.94 460.98 555.96 460.99 556 460.99 556.04 461 556.09 461.01 556.1 461.01 556.14 461.01 556.17 461.01 556.24 461.01 556.28 461.01 556.31 461 556.32 461 556.35 461 556.42 460.99 556.46 460.98 556.49 460.98 556.53 460.97 556.56 460.97 556.64 460.97 556.68 460.97 556.72 460.97 556.76 460.97 556.79 460.98 556.81 460.98 556.85 460.99 556.88 461 556.9 461.01 556.93 461.02 556.95 461.03 556.98 461.05 556.99 461.05 557.03 461.06 557.07 461.06 557.18 461.08 557.21 461.09 557.23 461.09 557.24 461.1 557.26 461.11 557.31 461.13 557.41 461.19 557.48 461.24 557.53 461.28 557.56 461.3 557.59 461.32 557.62 461.33 557.66 461.36 557.68 461.39 557.7 461.42 557.73 461.45 557.74 461.46 557.75 461.47 557.79 461.5 557.87 461.55 557.9 461.56 557.93 461.59 557.97 461.61 557.99 461.62 558.06 461.66 558.1 461.69 558.13 461.71 558.17 461.75 558.22 461.79 558.25 461.81 558.27 461.84 558.28 461.86 558.3 461.88 558.31 461.9 558.33 461.92 558.34 461.93 558.36 461.93 558.39 461.94 558.41 461.95 558.43 461.97 558.44 461.98 558.46 462 558.48 462.02 558.5 462.03 558.53 462.04 558.54 462.05 558.57 462.07 558.59 462.08 558.62 462.1 558.79 462.1 558.85 462.1 558.88 462.1 558.9 462.09 558.91 462.08 558.93 462.08 558.94 462.07 558.95 462.07 558.96 462.08 558.97 462.08 559.01 462.11 559.06 462.14 559.09 462.16 559.11 462.18 559.13 462.19 559.16 462.2 559.18 462.2 559.2 462.21 559.23 462.22 559.26 462.22 559.3 462.23 559.34 462.23 559.38 462.23 559.42 462.23 559.46 462.23 559.49 462.23 559.52 462.22 559.55 462.21 559.62 462.18 559.64 462.17 559.65 462.17 559.67 462.17 559.68 462.17 559.69 462.17 559.71 462.17 559.74 462.19 559.77 462.22 559.79 462.24 559.82 462.25 559.83 462.26 559.85 462.27 559.89 462.28 559.93 462.3 559.94 462.3 559.98 462.32 560.04 462.35 560.12 462.38 560.18 462.4 560.22 462.41 560.26 462.43 560.28 462.43 560.31 462.43 560.35 462.43 560.37 462.43 560.39 462.44 560.43 462.44 560.47 462.44 560.51 462.44 560.52 462.44 560.55 462.43 560.59 462.44 560.65 462.44 560.72 462.44 560.76 462.44 560.78 462.44 560.8 462.43 560.82 462.43 560.83 462.42 560.85 462.41 560.87 462.41 560.9 462.4 560.93 462.4 560.96 462.4 561 462.39 561.03 462.37 561.06 462.37 561.08 462.36 561.1 462.35 561.15 462.33 561.18 462.31 561.21 462.3 561.22 462.28 561.27 462.26 561.31 462.23 561.33 462.22 561.38 462.19 561.42 462.17 561.44 462.16 561.49 462.13 561.52 462.11 561.56 462.1 561.58 462.09 561.61 462.09 561.63 462.09 561.66 462.09 561.69 462.1 561.69 462.1 561.69 462.11 561.7 462.13 561.71 462.19 561.73 462.27 561.74 462.33 561.75 462.38 561.77 462.48 561.78 462.55 561.8 462.61 561.81 462.66 561.83 462.7 561.84 462.73 561.86 462.76 561.87 462.79 561.9 462.82 561.92 462.84 561.94 462.87 561.97 462.89 562.01 462.92 562.06 462.96 562.09 462.98 562.13 463 562.14 463.01 562.16 463.02 562.16 463.03 562.15 463.05 562.15 463.06 562.15 463.09 562.14 463.11 562.12 463.17 562.11 463.22 562.09 463.27 562.07 463.33 562.06 463.37 562.06 463.39 562.06 463.42 562.06 463.45 562.06 463.49 562.05 463.5 562.05 463.53 562.05 463.54 562.05 463.58 562.05 463.65 562.05 463.7 562.05 463.77 562.04 463.89 562.04 463.91 562.04 464.04 562.03 464.14 562.03 464.15 562.03 464.22 562.03 464.3 562.02 464.35 562.01 464.41 562 464.49 562 464.53 562 464.58 562.01 464.62 562.01 464.65 562.03 464.74 562.05 464.82 562.03 464.87 562.01 464.91 562 464.95 561.99 465.01 561.99 465.04 562 465.06 Z"/>
</g></svg>