<svg xmlns="http://www.w3.org/2000/svg" version="1.2" baseProfile="tiny" stroke-linecap="round" stroke-linejoin="round" viewBox="645.18 301.27 51.42 34.58"><g xmlns="http://www.w3.org/2000/svg" id="Nabaskoze">
<path d="M 689.3 307.49 689.24 307.65 689.12 307.93 689.23 308.06 689.4 308.28 689.5 308.37 689.54 308.43 689.61 308.51 689.77 308.69 689.91 308.86 689.99 308.97 690.04 309.08 690.07 309.14 690.09 309.19 690.09 309.22 690.09 309.29 690.09 309.3 690.09 309.32 690.08 309.34 690.08 309.4 690.07 309.44 690.06 309.51 690.05 309.54 690.03 309.61 690.02 309.68 690.02 309.75 690.01 309.84 690.01 309.93 690.01 310.01 690.02 310.08 690.04 310.16 690.06 310.25 690.09 310.36 690.12 310.51 690.14 310.56 690.14 310.64 690.17 310.77 690.18 310.79 690.18 310.83 690.23 311 690.25 311.14 690.27 311.16 690.38 311.24 690.53 311.46 690.48 311.72 690.31 311.99 689.88 312.09 689.75 312.13 689.69 312.14 689.6 312.17 689.53 312.31 689.49 312.41 689.48 312.93 689.51 313.14 689.54 313.37 689.55 313.41 689.57 313.46 689.59 313.53 689.63 313.63 689.65 313.66 689.67 313.69 689.88 313.96 689.91 314.05 689.94 314.18 690.03 314.54 690.06 314.65 690.02 314.81 689.93 315.24 689.91 315.33 689.91 315.38 689.91 315.42 689.92 315.48 689.93 315.53 689.97 315.63 690.09 315.91 690.21 316.22 690.25 316.32 690.41 316.68 690.52 316.96 690.53 316.98 690.54 317.03 690.55 317.1 690.56 317.22 690.56 317.26 690.57 317.38 690.57 317.47 690.57 317.57 690.57 317.68 690.57 317.77 690.57 317.86 690.59 317.93 690.6 318.01 690.61 318.05 690.62 318.09 690.63 318.13 690.64 318.2 690.64 318.24 690.64 318.3 690.64 318.39 690.64 318.41 690.65 318.5 690.65 318.57 690.65 318.65 690.65 318.71 690.65 318.74 690.64 318.81 690.63 318.92 690.63 318.98 690.64 319.06 690.65 319.17 690.66 319.29 690.67 319.38 690.68 319.57 690.69 319.75 690.69 319.79 690.7 319.9 690.71 320.01 690.7 320.08 690.7 320.12 690.71 320.15 690.72 320.2 690.74 320.25 690.75 320.31 690.79 320.4 690.83 320.46 690.9 320.56 690.94 320.64 690.97 320.72 691 320.79 691.02 320.84 691.04 320.94 691.06 321.02 691.07 321.1 691.07 321.16 691.06 321.19 691.06 321.21 691.04 321.29 691.02 321.34 691.01 321.37 690.98 321.45 690.95 321.54 690.94 321.61 690.92 321.79 690.92 321.88 690.93 321.95 690.94 322.02 690.94 322.03 690.97 322.09 691.03 322.18 691.07 322.23 691.11 322.27 691.18 322.34 691.29 322.44 691.41 322.54 691.49 322.59 691.51 322.6 691.62 322.66 691.7 322.7 691.71 322.71 691.72 322.72 691.73 322.72 691.74 322.72 691.76 322.73 691.77 322.73 691.8 322.74 691.82 322.75 691.84 322.76 691.85 322.77 691.85 322.78 691.86 322.78 691.87 322.79 691.88 322.8 691.88 322.81 691.9 322.82 691.94 322.84 691.98 322.86 692.04 322.89 692.07 322.91 692.1 322.92 692.11 322.93 692.14 322.95 692.17 322.98 692.21 323.01 692.23 323.02 692.24 323.03 692.28 323.06 692.32 323.08 692.33 323.09 692.35 323.1 692.37 323.12 692.39 323.13 692.4 323.14 692.41 323.16 692.43 323.18 692.45 323.2 692.47 323.22 692.49 323.25 692.5 323.27 692.52 323.3 692.55 323.34 692.59 323.38 692.64 323.45 692.71 323.56 692.72 323.59 692.73 323.61 692.74 323.62 692.74 323.63 692.74 323.64 692.74 323.74 692.74 323.79 692.75 324.07 692.75 324.35 692.75 324.45 692.75 324.55 692.76 324.59 692.76 324.63 692.75 324.68 692.74 324.73 692.74 324.75 692.74 324.77 692.74 324.78 692.77 324.88 692.79 325.02 692.8 325.08 692.8 325.12 692.8 325.15 692.79 325.19 692.78 325.22 692.78 325.27 692.77 325.31 692.75 325.38 692.73 325.43 692.69 325.48 692.66 325.54 692.64 325.58 692.63 325.61 692.59 325.68 692.55 325.77 692.51 325.84 692.48 325.93 692.47 325.97 692.46 325.99 692.47 326.01 692.48 326.05 692.5 326.09 692.52 326.14 692.53 326.17 692.54 326.19 692.54 326.2 692.53 326.27 692.51 326.34 692.5 326.41 692.49 326.46 692.49 326.5 692.49 326.52 692.5 326.55 692.51 326.56 692.51 326.57 692.55 326.63 692.6 326.7 692.69 326.9 692.71 326.95 692.73 327 692.74 327.03 692.74 327.05 692.74 327.08 692.75 327.14 692.75 327.17 692.75 327.19 692.74 327.22 692.74 327.25 692.73 327.28 692.73 327.29 692.72 327.31 692.69 327.37 692.64 327.45 692.61 327.51 692.62 327.54 692.64 327.61 692.65 327.64 692.65 327.65 692.69 327.77 692.69 327.79 692.7 327.82 692.7 327.85 692.73 328.01 692.77 328.19 692.72 328.21 692.64 328.25 692.57 328.28 692.49 328.32 692.46 328.34 692.41 328.37 692.38 328.4 692.35 328.43 692.33 328.44 692.27 328.52 692.21 328.59 692.19 328.62 692.19 328.62 692.18 328.64 692.17 328.68 692.16 328.73 692.16 328.75 692.16 328.77 692.16 328.81 692.17 328.94 692.17 328.99 692.17 329.03 692.17 329.08 692.17 329.11 692.18 329.15 692.2 329.26 692.2 329.27 692.22 329.34 692.23 329.38 692.25 329.42 692.29 329.48 692.32 329.53 692.36 329.57 692.45 329.67 692.48 329.7 692.51 329.72 692.52 329.72 692.54 329.73 692.57 329.74 692.62 329.75 692.73 329.77 692.87 329.79 692.92 329.8 692.95 329.81 692.98 329.82 693.02 329.83 693.06 329.84 693.1 329.86 693.21 329.9 693.32 329.93 693.38 329.95 693.4 329.96 693.43 329.96 693.47 329.97 693.55 329.96 693.6 329.96 693.64 329.96 693.73 329.96 693.8 329.96 693.93 329.97 694.05 329.97 694.14 329.97 694.2 329.97 694.27 329.98 694.36 330 694.47 330.01 694.53 330.02 694.58 330.02 694.63 330.03 694.72 330.03 694.81 330.03 694.88 330.03 694.92 330.04 695 330.04 695.04 330.03 695.07 330.04 695.15 330.04 695.25 330.04 695.3 330.04 695.37 330.03 695.43 330.02 695.48 330.01 695.61 329.98 695.71 329.96 695.88 329.91 696.03 329.87 696.17 329.82 696.2 329.81 696.24 329.81 696.3 329.81 696.36 329.82 696.45 329.83 696.52 329.84 696.58 329.85 696.51 330.08 696.39 330.42 696.27 330.8 696.22 331.23 696.35 331.63 696.18 331.7 695.92 331.82 695.86 331.85 695.82 331.87 695.8 331.9 695.68 332.03 695.41 332.34 694.92 332.68 694 332.83 693.86 332.85 693.72 332.87 693.63 332.89 692.93 333.09 692.25 333.23 691.94 333.39 691.54 333.59 691.35 333.65 691.18 333.69 690.97 333.76 690.81 333.81 690.64 333.87 690.47 333.92 690.29 333.98 690.16 334.02 690.06 334.05 689.94 334.08 689.87 334.11 689.67 334.19 689.44 334.24 689.19 334.29 688.98 334.28 688.72 334.26 688.51 334.23 688.34 334.2 688.12 334.17 687.95 334.14 687.91 334.13 687.76 334.12 687.62 334.09 687.5 334.08 687.42 334.07 687.3 334.05 687.23 334.04 687.17 334.03 687.09 333.99 687.01 333.93 686.94 333.88 686.88 333.85 686.77 333.8 686.7 333.76 686.67 333.75 686.65 333.75 686.64 333.75 686.62 333.76 686.6 333.77 686.57 333.79 686.55 333.82 686.54 333.82 686.51 333.87 686.44 333.98 686.37 334.1 686.33 334.21 686.3 334.3 686.28 334.39 686.25 334.46 686.23 334.51 686.19 334.57 686.15 334.63 686.08 334.71 685.99 334.78 685.79 334.95 685.6 335.1 685.44 335.24 685.3 335.33 685.25 335.36 685.19 335.4 685.1 335.45 685.06 335.47 685 335.5 684.87 335.56 684.73 335.62 684.64 335.66 684.56 335.71 684.51 335.73 684.42 335.76 684.32 335.79 684.29 335.79 684.26 335.79 684.17 335.77 684.06 335.76 684 335.75 683.97 335.74 683.91 335.75 683.75 335.75 683.64 335.76 683.56 335.76 683.49 335.75 683.48 335.75 682.63 335.67 682.47 335.65 682.28 335.65 682.18 335.65 682.15 335.65 682.1 335.66 681.99 335.67 681.01 335.81 680.86 335.83 680.79 335.84 680.74 335.84 680.68 335.84 680.53 335.84 680.38 335.84 680.31 335.84 680.27 335.83 680.23 335.81 680.14 335.76 680.09 335.74 680.03 335.7 679.9 335.62 679.74 335.53 679.59 335.44 679.5 335.39 679.47 335.37 679.43 335.37 679.32 335.36 679.21 335.35 679.17 335.35 679.07 335.35 678.95 335.35 678.8 335.36 678.59 335.37 678.46 335.37 678.3 335.38 678.17 335.4 677.97 335.42 677.69 335.46 677.52 335.49 677.51 335.49 677.38 335.51 677.17 335.54 677 335.58 676.89 335.6 676.83 335.61 676.78 335.63 676.75 335.65 676.66 335.68 676.4 335.79 676.1 335.79 675.86 335.8 674.68 335.33 674.54 335.3 674.38 335.28 674.17 335.24 673.94 335.2 673.74 335.16 673.55 335.14 673.28 335.12 673.09 335.11 672.84 335.08 672.67 335.04 672.42 334.99 672.13 334.94 671.93 334.9 671.72 334.84 671.55 334.8 671.42 334.76 671.33 334.74 671.26 334.75 671.04 334.78 670.93 334.82 670.77 334.91 670.67 334.91 670.5 334.89 670.38 334.88 670.26 334.86 670.05 334.8 669.87 334.76 669.58 334.72 669.36 334.69 669.16 334.66 668.91 334.59 668.72 334.54 668.49 334.48 668.29 334.42 668.07 334.36 668 334.36 667.88 334.32 667.7 334.27 667.55 334.3 667.36 334.34 667.32 334.28 667.25 334.19 667.19 334.13 666.98 334.06 666.75 334.12 666.61 334.05 666.48 333.99 666.4 333.95 666.24 333.88 666.1 333.81 665.99 333.75 665.8 333.71 665.54 333.65 665.62 333.56 665.83 333.33 665.93 333.23 665.93 333.21 665.92 333.17 665.9 333 665.89 332.94 665.88 332.88 665.88 332.83 665.87 332.75 665.85 332.64 665.85 332.63 665.84 332.49 665.83 332.44 665.81 332.27 665.78 332.07 665.62 332.05 665.39 332.01 665.25 331.96 665.02 331.85 664.9 331.8 664.79 331.76 664.55 331.69 664.34 331.62 664.3 331.6 664.12 331.54 663.8 331.41 663.49 331.3 663.17 331.19 663.12 331.16 663.03 331.13 662.98 331.11 662.66 330.49 662.56 330.43 662.27 330.27 662.19 330.23 662.17 330.22 662.06 330.15 661.48 329.7 661.09 329.7 660.31 329.38 660.12 329.21 659.77 328.92 659.66 328.72 659.44 328.71 659.09 328.56 658.84 328.16 658.45 327.93 658.07 327.59 657.91 327.45 656.92 327.05 656.53 327.19 655.74 326.76 655.73 326.75 655.41 326.57 655.38 326.57 655.37 326.56 655.33 326.54 655.32 326.53 655.12 326.42 655.02 326.3 654.99 326.27 654.97 326.25 653.99 327.27 653.6 327.4 653.06 326.67 651.86 326.82 651.72 326.82 650.75 326.87 650.52 326.78 650.46 326.76 650.39 326.75 650.25 326.69 649.91 326.56 649.57 326.4 649.41 326.3 649.27 326.22 649.07 326.14 648.98 326.11 648.87 326.07 648.56 325.96 648.54 325.95 648.32 325.87 648.04 325.78 647.84 325.7 647.7 325.66 647.48 325.55 646.53 325.04 646.59 324.93 646.59 324.92 646.86 324.33 646.98 323.73 647.16 323.48 647.17 323.47 647.39 323.15 647.45 323.02 647.69 322.54 647.82 322.16 647.8 321.9 647.8 321.86 647.79 321.79 647.77 321.55 647.54 321.4 647.51 321.38 647 321.04 646.88 320.96 646.86 320.94 646.84 320.93 646.76 320.87 646.72 320.84 646.61 320.78 646.57 320.76 646.56 320.75 646.55 320.74 646.51 320.71 646.49 320.69 646.45 320.67 646.4 320.64 646.38 320.62 646.35 320.6 646.33 320.58 646.29 320.54 646.02 320.26 645.87 320.11 645.52 319.75 645.51 319.74 645.49 319.72 645.49 319.61 645.48 319.35 645.48 319.19 645.46 319.03 645.45 318.99 645.42 318.89 645.37 318.73 645.34 318.68 645.29 318.6 645.61 318.29 645.81 318.1 645.82 318.09 645.98 317.94 646.12 317.8 646.38 317.56 646.28 317.33 646.25 317.23 646.26 317.11 646.27 316.98 646.27 316.96 646.28 316.79 646.06 316.27 645.98 316.1 645.91 315.94 645.81 315.73 645.81 315.71 645.8 315.7 645.68 315.43 645.4 314.82 645.31 314.61 645.3 314.57 645.29 314.55 645.3 314.31 645.31 314.2 645.31 314.11 645.3 314.08 645.19 313.77 645.2 313.75 645.21 313.72 645.21 313.71 645.32 313.4 645.35 313.32 645.41 313.23 645.52 313.05 645.54 313.03 645.55 313.01 645.63 312.93 645.73 312.82 645.74 312.81 645.75 312.8 645.84 312.68 645.93 312.55 645.97 312.46 646.05 312.42 646.23 312.13 646.25 312.11 646.38 311.91 646.38 311.9 646.59 311.6 646.65 311.48 646.65 311.47 646.66 311.45 646.72 311.33 646.77 311.23 646.84 311.08 646.84 311.08 646.89 310.97 646.95 310.84 647.03 310.7 647.05 310.64 647.06 310.63 647.07 310.61 647.22 310.3 647.35 310.15 647.42 310.07 647.59 309.89 647.73 309.73 647.79 309.67 648.17 309.25 648.57 308.81 648.62 308.76 648.66 308.72 649.37 309.01 649.39 309.01 649.44 308.99 649.62 308.92 649.64 308.91 649.76 308.87 649.79 308.86 650.03 309.01 650.14 309.08 650.37 309.38 650.6 309.69 650.82 309.97 651.04 310.27 651.2 310.46 651.35 310.67 651.51 310.87 651.64 311.04 651.65 311.05 651.71 311.13 651.83 311.29 651.88 311.22 652 311.02 652.05 310.94 652.07 310.9 652.16 310.76 652.17 310.74 652.27 310.58 652.34 310.47 652.42 310.32 652.52 310.16 652.6 310.02 652.67 309.91 652.72 309.81 652.77 309.73 652.79 309.69 652.81 309.59 652.84 309.48 652.87 309.37 652.91 309.24 652.93 309.15 652.95 309.1 652.97 309.07 653.02 309 653.08 308.94 653.11 308.9 653.21 308.81 653.3 308.72 653.34 308.69 653.54 308.6 653.63 308.54 653.67 308.54 653.71 308.55 653.81 308.59 654.12 308.74 654.26 308.8 654.33 308.84 654.4 308.88 654.49 308.93 654.6 309 654.68 309.05 654.76 309.09 654.82 309.13 654.89 309.17 654.95 309.2 654.99 309.22 655.04 309.24 655.1 309.25 655.16 309.25 655.22 309.26 655.27 309.26 655.3 309.25 655.33 309.23 655.35 309.21 655.37 309.2 655.4 309.17 655.44 309.13 655.48 309.11 655.51 309.09 655.55 309.08 655.59 309.06 655.64 309.04 655.69 309.02 655.74 309 655.8 308.98 655.89 308.95 655.95 308.92 656.01 308.89 656.08 308.85 656.13 308.82 656.17 308.79 656.2 308.76 656.22 308.74 656.27 308.72 656.32 308.7 656.37 308.69 656.41 308.69 656.45 308.69 656.5 308.7 656.53 308.7 656.58 308.73 656.65 308.78 656.71 308.82 656.78 308.87 656.82 308.9 656.83 308.91 656.84 308.92 656.92 308.97 656.98 309.02 657.03 309.06 657.05 309.07 657.1 309.11 657.17 309.17 657.26 309.23 657.34 309.29 657.39 309.32 657.42 309.31 657.47 309.27 657.55 309.23 657.61 309.19 657.66 309.15 657.73 309.11 657.79 309.07 657.85 309.04 657.9 309 657.95 308.97 657.97 308.95 658.01 308.93 658.05 308.9 658.06 308.9 658.1 308.87 658.11 308.86 658.13 308.86 658.15 308.86 658.17 308.85 658.19 308.82 658.21 308.81 658.24 308.81 658.28 308.79 658.3 308.78 658.32 308.77 658.35 308.76 658.39 308.74 658.42 308.72 658.44 308.69 658.46 308.66 658.48 308.65 658.51 308.63 658.54 308.62 658.55 308.6 658.57 308.57 658.59 308.54 658.61 308.52 658.63 308.5 658.68 308.47 658.71 308.44 658.73 308.4 658.74 308.36 658.75 308.32 658.76 308.27 658.77 308.22 658.79 308.2 658.81 308.18 658.84 308.17 658.87 308.15 658.9 308.14 658.94 308.11 658.96 308.08 658.97 308.03 658.98 307.99 658.99 307.96 659 307.93 659.03 307.89 659.05 307.87 659.1 307.84 659.14 307.82 659.17 307.82 659.24 307.81 659.28 307.82 659.33 307.82 659.37 307.82 659.4 307.81 659.43 307.8 659.45 307.78 659.47 307.76 659.49 307.73 659.52 307.7 659.55 307.65 659.57 307.6 659.59 307.55 659.6 307.52 659.6 307.49 659.61 307.47 659.61 307.43 659.61 307.4 659.62 307.39 659.64 307.36 659.66 307.31 659.69 307.26 659.71 307.23 659.74 307.18 659.77 307.13 659.78 307.1 659.78 307.07 659.78 307.05 659.78 307.04 659.78 307.02 659.79 306.98 659.8 306.93 659.81 306.92 659.82 306.9 659.83 306.89 659.85 306.82 659.86 306.78 659.87 306.75 659.9 306.71 659.92 306.67 659.93 306.63 659.94 306.61 659.94 306.58 659.95 306.54 659.97 306.5 660 306.45 660.02 306.39 660.05 306.33 660.06 306.29 660.07 306.24 660.07 306.15 660.08 306.09 660.08 306.04 660.09 305.99 660.09 305.95 660.09 305.91 660.09 305.86 660.08 305.81 660.07 305.76 660.06 305.7 660.05 305.64 660.05 305.59 660.05 305.53 660.05 305.47 660.05 305.41 660.04 305.35 660.03 305.32 660.03 305.28 660.03 305.25 660.02 305.21 660.02 305.17 660.03 305.15 660.04 305.12 660.04 305.07 660.05 305.03 660.05 304.99 660.05 304.94 660.06 304.87 660.06 304.81 660.07 304.74 660.08 304.65 660.08 304.59 660.07 304.55 660.06 304.52 660.04 304.48 660.01 304.43 660 304.39 659.99 304.34 659.98 304.3 659.96 304.21 659.9 304.09 659.87 304.02 659.84 303.89 659.93 303.82 660.04 303.74 660.21 303.62 660.37 303.51 660.45 303.45 660.48 303.33 660.5 303.17 660.51 303.09 660.51 302.97 660.51 302.83 660.51 302.67 660.52 302.48 660.67 302.41 660.82 302.38 660.98 302.36 661.08 302.34 661.17 302.32 661.35 302.07 661.53 301.82 661.56 301.77 661.61 301.68 661.66 301.61 661.95 301.58 662.04 301.58 662.2 301.56 662.3 301.54 662.51 301.52 662.59 301.51 662.8 301.49 663.14 301.45 663.36 301.42 663.38 301.42 663.48 301.41 663.79 301.37 663.92 301.36 663.98 301.36 664.06 301.38 664.22 301.41 664.33 301.42 664.35 301.43 664.49 301.45 664.74 301.5 664.91 301.52 665 301.54 665.08 301.55 665.15 301.55 665.22 301.53 665.34 301.49 665.43 301.45 665.49 301.43 665.54 301.42 665.59 301.41 665.63 301.41 665.65 301.42 665.7 301.46 665.76 301.49 665.81 301.52 665.84 301.52 665.86 301.53 665.88 301.52 665.89 301.52 665.93 301.5 665.97 301.48 666 301.46 666.09 301.39 666.14 301.36 666.2 301.34 666.24 301.33 666.37 301.3 666.43 301.3 666.48 301.3 666.5 301.3 666.52 301.3 666.55 301.3 666.63 301.31 666.73 301.31 666.86 301.3 666.95 301.29 666.97 301.29 666.98 301.29 667.02 301.29 667.06 301.3 667.08 301.3 667.17 301.34 667.23 301.36 667.26 301.36 667.3 301.36 667.36 301.36 667.42 301.36 667.5 301.36 667.59 301.37 667.69 301.38 667.73 301.38 667.83 301.39 668.05 301.46 668.15 301.48 668.41 301.42 668.45 301.41 668.47 301.41 668.53 301.42 668.56 301.43 668.57 301.43 668.6 301.44 668.67 301.45 668.78 301.47 668.94 301.5 669 301.52 669.03 301.52 669.06 301.52 669.1 301.52 669.14 301.51 669.18 301.52 669.24 301.53 669.27 301.54 669.3 301.54 669.38 301.53 669.39 301.53 669.52 301.53 669.54 301.54 669.57 301.54 669.64 301.56 669.71 301.57 669.72 301.57 669.77 301.57 669.81 301.57 669.82 301.58 669.96 301.62 670.01 301.65 670.05 301.66 670.1 301.66 670.13 301.67 670.14 301.67 670.21 301.66 670.31 301.64 670.34 301.63 670.36 301.64 670.36 301.64 670.4 301.65 670.46 301.67 670.61 301.72 670.72 301.74 670.92 301.76 671.07 301.77 671.29 301.79 671.31 301.79 671.39 301.8 671.5 301.82 671.53 301.83 671.61 301.84 671.87 301.86 672.08 301.88 672.31 301.89 672.64 302.12 672.7 302.15 672.75 302.17 672.76 302.18 672.8 302.19 672.84 302.2 672.9 302.21 673.08 302.19 673.15 302.19 673.26 302.78 673.27 302.82 673.34 302.88 673.59 303.06 673.67 303.12 673.68 303.13 673.72 303.16 673.8 303.22 673.81 303.22 673.81 303.23 673.86 303.26 673.9 303.29 673.88 303.32 673.86 303.36 673.83 303.43 673.8 303.5 673.78 303.58 673.76 303.64 673.74 303.71 673.7 303.78 673.68 303.85 673.69 303.91 673.7 303.96 673.7 303.98 673.7 303.98 673.71 304.01 673.72 304.03 673.73 304.05 673.78 304.13 673.79 304.16 673.81 304.17 673.82 304.18 673.88 304.23 673.89 304.26 673.98 304.32 674.01 304.34 674.16 304.43 674.15 304.5 674.37 304.65 674.38 304.65 674.54 304.75 674.79 304.82 675.16 305.03 675.17 305.04 675.22 305.07 675.25 305.08 675.29 305.09 675.38 305.12 675.69 305.19 676.51 305.38 676.55 305.38 676.8 305.46 677 305.52 677.5 305.73 677.88 305.89 677.98 305.93 678.02 305.97 678.69 306.7 678.71 306.7 679.68 306.33 680.18 306.3 680.68 306.11 681.01 306.15 681.03 306.15 681.4 306.19 681.7 306.36 681.91 306.27 681.93 306.26 682.46 306.04 682.47 306.04 682.48 306.03 682.73 305.93 683.14 305.87 683.99 305.76 684.25 305.8 684.29 305.8 684.45 305.83 684.75 305.87 685.29 306.03 685.22 306.37 685.22 306.38 685.17 306.62 685.16 306.66 685.36 306.71 685.39 306.71 685.51 306.76 685.58 306.78 685.9 306.86 685.92 306.86 686.03 306.88 686.12 306.9 686.15 306.9 686.17 306.91 686.31 306.93 686.32 306.93 686.33 306.93 686.62 306.98 686.78 307 686.89 307.02 686.99 307.03 687.07 307.05 687.38 307.09 687.65 307.13 687.67 307.14 687.69 307.14 687.94 307.17 687.96 307.17 688.08 307.19 688.15 307.2 688.4 307.23 688.45 307.24 688.5 307.25 688.79 307.34 689.17 307.45 689.3 307.49 Z"/>
</g></svg>