<svg xmlns="http://www.w3.org/2000/svg" version="1.2" baseProfile="tiny" stroke-linecap="round" stroke-linejoin="round" viewBox="240.05 85.72 14.92 14.92"><g xmlns="http://www.w3.org/2000/svg" id="Nabarniz">
<path d="M 253.01 87.9 252.95 88.35 252.91 88.59 252.89 88.71 252.86 88.93 252.8 89.34 252.75 89.71 252.69 90.12 253.2 90.35 253.57 90.52 253.89 90.66 254.96 91.14 254.63 92.32 253.94 93.25 253.9 93.43 253.85 93.71 253.78 94.12 253.7 94.59 253.63 95.02 253.56 95.43 253.5 95.76 253.45 96.04 253.37 96.55 253.28 96.79 253.24 96.9 253.15 97.1 252.98 97.46 252.77 97.91 252.62 98.41 252.25 98.81 251.76 99.14 249.67 100.22 249.55 100.24 248.56 100.08 247.91 99.93 247.59 99.88 247.16 99.94 244.44 100.63 244.18 100.33 243.9 100.19 243.86 100.14 243.81 100.08 243.66 99.85 243.58 99.77 243.38 99.46 243.29 99.08 243.24 98.99 243.12 98.95 242.98 98.83 242.08 98.14 242.12 97.51 242.14 97.28 242.15 97.01 242.16 96.78 242.18 96.61 242.19 96.44 242.2 96.18 242.22 95.94 242.24 95.6 242.25 95.52 242.26 95.43 242.33 94.99 242.31 94.94 242.29 94.91 242.26 94.86 242.23 94.82 242.21 94.78 242.18 94.75 242.15 94.72 242.11 94.69 242.09 94.67 242.08 94.64 242.07 94.61 242.06 94.57 242.05 94.53 242.05 94.5 242.05 94.47 242.06 94.44 242.08 94.4 242.1 94.34 242.13 94.27 242.16 94.21 242.19 94.12 242.29 93.88 242.31 93.76 242.37 93.46 242.34 93.44 242.3 93.42 242.25 93.4 242.19 93.38 242.11 93.36 242.02 93.33 242.01 93.33 241.95 93.31 241.9 93.28 241.84 93.25 241.77 93.22 241.71 93.18 241.69 93.16 241.65 93.13 241.62 93.1 241.57 93.06 241.53 93.02 241.49 93 241.43 92.96 241.38 92.93 241.33 92.9 241.28 92.86 241.23 92.81 241.16 92.75 241.11 92.7 241.07 92.65 241.02 92.61 240.98 92.58 240.92 92.55 240.86 92.52 240.78 92.47 240.67 92.42 240.44 92.32 240.07 92.15 240.14 91.61 240.33 91.13 240.46 90.8 240.6 90.45 240.85 90.4 241.44 90.29 241.64 90.17 241.94 89.87 242.02 89.82 242.36 89.66 242.65 89.39 242.86 89.19 243.03 89.16 243.15 88.79 243.48 88.47 243.62 88.42 243.89 88.43 244.32 88.33 244.66 88.32 244.95 88.16 245.83 88.29 246.67 88.17 246.83 87.99 247.02 87.78 247.26 87.52 247.45 87.32 247.62 87.1 247.91 86.74 248.08 86.53 248.24 86.33 248.45 86.07 248.72 85.74 249.08 86.02 249.41 86.27 250.18 86.54 250.41 86.62 251.05 86.97 251.47 87.2 251.95 87.38 252.45 87.63 253.01 87.9 Z"/>
</g></svg>