<svg xmlns="http://www.w3.org/2000/svg" version="1.2" baseProfile="tiny" stroke-linecap="round" stroke-linejoin="round" viewBox="331.45 353.67 12.3 10.32"><g xmlns="http://www.w3.org/2000/svg" id="Nazar">
<path d="M 331.46 354.7 331.54 354.7 331.66 354.71 331.8 354.71 331.92 354.7 332.03 354.69 332.14 354.68 332.25 354.66 332.35 354.61 332.43 354.57 332.54 354.57 332.66 354.57 332.75 354.58 332.78 354.58 332.79 354.58 332.99 354.57 333.08 354.57 333.13 354.5 333.22 354.39 333.29 354.29 333.36 354.16 333.45 354.02 333.54 353.9 333.63 353.8 333.71 353.74 333.79 353.7 333.84 353.69 334.12 353.92 334.23 354.01 334.36 354.1 334.55 354.24 334.83 354.41 335.11 354.57 335.2 354.63 335.34 354.73 335.37 354.75 335.63 354.96 335.78 355.09 335.88 355.18 335.95 355.23 336.06 355.22 336.19 355.22 336.35 355.22 336.43 355.21 336.49 355.24 336.61 355.31 336.73 355.37 336.88 355.45 337.05 355.53 337.23 355.63 337.37 355.69 337.49 355.76 337.62 355.85 337.73 355.91 337.89 356.04 338.21 356.26 338.39 356.38 338.52 356.47 338.62 356.54 338.73 356.62 338.87 356.69 339.04 356.76 339.16 356.79 339.19 356.81 339.24 356.88 339.36 356.94 339.5 357.01 339.78 357.11 340.02 357.22 340.28 357.36 340.54 357.52 340.7 357.63 340.78 357.69 340.84 357.74 340.87 357.75 341.18 357.87 341.24 357.88 341.28 357.89 341.36 357.93 341.44 357.96 341.55 357.99 341.72 358.03 341.88 358.05 342.03 358.07 342.1 358.06 342.13 358.04 342.17 358 342.21 358 342.27 358.01 342.4 357.99 342.41 357.99 342.41 358 342.42 358.02 342.44 358.12 342.47 358.22 342.47 358.28 342.48 358.4 342.47 358.5 342.47 358.61 342.48 358.72 342.5 358.72 342.6 358.71 343.07 358.64 343.29 358.62 343.33 358.65 343.48 358.84 343.64 359.06 343.7 359.16 343.7 359.17 343.72 359.24 343.73 359.37 343.73 359.46 343.71 359.5 343.7 359.54 343.69 359.65 343.68 359.72 343.65 359.83 343.64 359.89 343.64 359.97 343.64 360.03 343.65 360.16 343.65 360.21 343.64 360.31 343.64 360.39 343.65 360.52 343.67 360.61 343.69 360.78 343.71 360.94 343.69 361.14 343.67 361.33 343.62 361.58 343.61 361.63 343.6 361.64 343.59 361.7 343.53 361.98 343.49 362.19 343.49 362.2 343.48 362.28 343.45 362.5 343.27 362.68 343.26 362.69 343.04 362.9 343.02 362.93 343.01 362.94 342.84 363.1 342.66 363.27 342.65 363.28 342.38 363.55 342.31 363.55 341.96 363.55 341.69 363.54 341.65 363.77 341.64 363.8 341.64 363.82 341.61 363.81 341.58 363.79 341.45 363.73 341.36 363.67 341.33 363.65 341.32 363.64 341.3 363.66 341.27 363.71 341.23 363.78 341.22 363.8 341.16 363.78 341.1 363.77 341.07 363.76 341 363.75 340.95 363.75 340.91 363.75 340.9 363.75 340.87 363.75 340.86 363.74 340.83 363.73 340.8 363.77 340.77 363.82 340.74 363.84 340.71 363.85 340.69 363.9 340.68 363.92 340.67 363.94 340.66 363.98 340.66 363.98 340.63 363.97 340.6 363.95 340.57 363.93 340.54 363.92 340.52 363.91 340.47 363.91 340.39 363.92 340.32 363.92 340.25 363.91 340.19 363.9 340.11 363.89 340.04 363.87 339.99 363.87 339.92 363.86 339.84 363.85 339.78 363.84 339.72 363.8 339.68 363.76 339.63 363.73 339.58 363.69 339.55 363.66 339.52 363.63 339.5 363.61 339.46 363.54 339.44 363.5 339.42 363.47 339.4 363.44 339.38 363.42 339.34 363.39 339.32 363.36 339.3 363.34 339.28 363.33 339.23 363.28 339.19 363.23 339.14 363.14 339.13 363.16 339.11 363.19 339.05 363.26 339.01 363.32 338.99 363.31 338.93 363.26 338.82 363.18 338.76 363.15 338.71 363.13 338.63 363.1 338.51 363.06 338.43 363.02 338.31 362.97 338.2 362.96 338.18 362.96 337.55 362.93 337.52 362.93 337.51 363.09 337.51 363.1 337.5 363.28 337.5 363.34 337.46 363.34 337.45 363.5 337.44 363.5 336.18 363.42 336.17 363.51 336.16 363.55 336.14 363.56 336.11 363.54 336.08 363.52 336.03 363.47 335.98 363.44 335.93 363.4 335.87 363.34 335.85 363.33 335.79 363.28 335.74 363.23 335.68 363.18 335.63 363.13 335.56 363.06 335.51 363 335.46 362.94 335.44 362.92 335.39 362.86 335.39 362.85 335.33 362.8 335.27 362.74 335.26 362.74 335.21 362.69 335.19 362.67 335.16 362.63 335.09 362.56 335.06 362.53 335 362.46 334.98 362.44 334.94 362.4 334.91 362.36 334.92 362.31 334.88 362.27 334.86 362.24 334.84 362.22 334.8 362.18 334.76 362.14 334.73 362.12 334.69 362.08 334.67 362.05 334.64 362.02 334.61 361.96 334.58 361.9 334.55 361.87 334.55 361.86 334.54 361.84 334.53 361.82 334.52 361.8 334.48 361.76 334.47 361.75 334.41 361.71 334.35 361.68 334.28 361.65 334.21 361.62 334.13 361.59 334.04 361.55 334 361.54 333.98 361.53 333.97 361.53 333.93 361.51 333.91 361.5 333.87 361.49 333.84 361.48 333.83 361.47 333.79 361.46 333.73 361.44 333.62 361.42 333.57 361.41 333.52 361.39 333.41 361.37 333.31 361.35 333.28 361.34 333.26 361.34 333.19 361.32 333.04 361.29 333.02 361.28 332.97 361.28 332.95 361.27 332.9 361.26 332.88 361.25 332.82 361.21 332.72 361.15 332.67 361.12 332.61 361.09 332.52 361.04 332.4 360.98 332.36 360.96 332.32 360.94 332.28 360.92 332.16 360.86 332.12 360.84 332.11 360.83 332.07 360.81 332.02 360.79 331.94 360.74 331.87 360.71 331.84 360.68 331.81 360.66 331.81 360.61 331.81 360.53 331.81 360.51 331.82 360.48 331.82 360.47 331.83 360.43 331.83 360.42 331.83 360.34 331.84 360.26 331.84 360.25 331.83 360.19 331.83 360.1 331.84 359.99 331.84 359.91 331.84 359.9 331.84 359.83 331.84 359.8 331.84 359.74 331.84 359.68 331.83 359.6 331.83 359.58 331.84 359.47 331.84 359.43 331.84 359.41 331.84 359.32 331.85 359.25 331.85 359.18 331.85 359.14 331.85 359.04 331.85 358.96 331.85 358.88 331.86 358.82 331.86 358.72 331.86 358.71 331.86 358.69 331.86 358.66 331.86 358.64 331.86 358.6 331.86 358.54 331.86 358.53 331.86 358.52 331.85 358.45 331.85 358.37 331.85 358.34 331.85 358.31 331.85 358.3 331.86 358.22 331.86 358.15 331.87 358.1 331.86 358.05 331.86 357.97 331.86 357.89 331.86 357.84 331.86 357.8 331.85 357.75 331.85 357.7 331.84 357.64 331.83 357.53 331.83 357.43 331.82 357.36 331.82 357.3 331.82 357.21 331.82 357.14 331.82 357.12 331.81 357.04 331.81 356.97 331.82 356.88 331.81 356.8 331.81 356.74 331.8 356.69 331.79 356.64 331.78 356.56 331.76 356.46 331.75 356.39 331.74 356.34 331.74 356.28 331.72 356.21 331.72 356.14 331.71 356.08 331.71 356.05 331.69 355.95 331.69 355.88 331.68 355.8 331.66 355.7 331.66 355.63 331.64 355.53 331.63 355.48 331.62 355.42 331.62 355.35 331.61 355.3 331.6 355.24 331.58 355.18 331.57 355.11 331.54 355 331.53 354.94 331.51 354.88 331.5 354.82 331.49 354.77 331.46 354.7 Z"/>
</g></svg>