<svg xmlns="http://www.w3.org/2000/svg" version="1.2" baseProfile="tiny" stroke-linecap="round" stroke-linejoin="round" viewBox="472.33 333.62 12.97 30.05"><g xmlns="http://www.w3.org/2000/svg" id="Obanos">
<path d="M 480.46 335.44 480.47 335.46 480.57 335.54 480.62 335.58 480.67 335.63 480.76 335.71 480.77 335.71 480.82 335.76 480.82 335.83 480.83 335.88 480.83 335.92 480.83 335.94 480.83 335.96 480.86 335.99 480.88 336 480.9 336.04 480.93 336.08 480.93 336.09 480.92 336.1 480.91 336.11 480.88 336.16 480.85 336.21 480.82 336.27 480.78 336.34 480.75 336.41 480.73 336.46 480.71 336.48 480.71 336.48 480.68 336.52 480.64 336.58 480.59 336.64 480.57 336.67 480.55 336.7 480.53 336.73 480.52 336.75 480.49 336.8 480.47 336.87 480.45 336.93 480.43 336.99 480.41 337.05 480.38 337.13 480.38 337.15 480.38 337.18 480.37 337.24 480.36 337.24 480.36 337.28 480.35 337.34 480.35 337.37 480.34 337.41 480.34 337.44 480.33 337.47 480.33 337.51 480.34 337.54 480.34 337.55 480.34 337.56 480.34 337.59 480.34 337.61 480.34 337.65 480.35 337.71 480.35 337.77 480.36 337.82 480.36 337.83 480.37 337.87 480.38 337.94 480.38 337.98 480.39 338.02 480.39 338.1 480.4 338.17 480.41 338.24 480.42 338.29 480.43 338.35 480.45 338.42 480.47 338.53 480.49 338.65 480.49 338.66 480.5 338.77 480.51 338.86 480.51 338.94 480.52 339.01 480.52 339.06 480.53 339.09 480.53 339.15 480.55 339.22 480.57 339.31 480.61 339.4 480.64 339.48 480.65 339.51 480.66 339.53 480.67 339.54 480.68 339.56 480.69 339.58 480.71 339.61 480.75 339.66 480.76 339.66 480.8 339.71 480.83 339.76 480.91 339.9 480.93 339.92 480.95 339.96 480.97 339.99 480.98 340.01 481 340.04 481.05 340.13 481.09 340.19 481.1 340.2 481.11 340.21 481.11 340.22 481.16 340.29 481.17 340.3 481.21 340.37 481.22 340.4 481.26 340.45 481.28 340.49 481.31 340.53 481.36 340.6 481.37 340.62 481.38 340.63 481.4 340.67 481.44 340.73 481.48 340.8 481.57 340.95 481.6 341 481.65 341.09 481.69 341.14 481.73 341.21 481.76 341.26 481.76 341.26 481.8 341.3 481.83 341.33 481.86 341.36 481.91 341.42 481.95 341.46 482.01 341.51 482.13 341.62 482.23 341.72 482.25 341.74 482.26 341.75 482.29 341.77 482.34 341.82 482.36 341.83 482.44 341.91 482.57 342.05 482.65 342.13 482.7 342.19 482.72 342.21 482.76 342.28 482.82 342.35 482.84 342.38 482.9 342.44 482.95 342.52 482.97 342.54 483.04 342.63 483.05 342.64 483.06 342.65 483.09 342.7 483.13 342.75 483.15 342.78 483.17 342.83 483.19 342.88 483.21 342.92 483.24 342.96 483.26 343 483.27 343.01 483.32 343.07 483.36 343.1 483.42 343.14 483.45 343.16 483.5 343.18 483.58 343.24 483.63 343.28 483.69 343.32 483.71 343.33 483.74 343.36 483.75 343.37 483.76 343.39 483.79 343.43 483.83 343.48 483.86 343.52 483.87 343.54 483.93 343.62 483.98 343.66 484.03 343.7 484.14 343.79 484.16 343.79 484.21 343.84 484.23 343.85 484.33 343.93 484.39 343.97 484.41 343.99 484.43 344 484.52 344.09 484.57 344.13 484.58 344.15 484.59 344.15 484.62 344.18 484.65 344.21 484.67 344.24 484.74 344.32 484.81 344.4 484.89 344.49 484.89 344.58 484.9 344.67 484.9 344.74 484.9 344.76 484.9 344.79 484.9 344.89 484.9 344.95 484.9 344.97 484.9 345.03 484.9 345.16 484.9 345.17 484.9 345.18 484.89 345.19 484.89 345.24 484.9 345.32 484.9 345.38 484.9 345.39 484.9 345.44 484.9 345.49 484.89 345.53 484.87 345.55 484.87 345.57 484.87 345.59 484.87 345.62 484.87 345.66 484.86 345.71 484.87 345.75 484.88 345.8 484.89 345.84 484.9 345.87 484.91 345.89 484.91 345.91 484.92 345.94 484.92 345.99 484.92 346.03 484.93 346.11 484.93 346.17 484.93 346.2 484.93 346.21 484.93 346.24 484.93 346.31 484.93 346.39 484.93 346.47 484.92 346.56 484.92 346.62 484.92 346.67 484.93 346.7 484.93 346.71 484.95 346.8 484.99 346.91 484.99 346.92 485 346.95 485 346.96 485.02 347 485.06 347.11 485.06 347.12 485.09 347.19 485.1 347.23 485.11 347.27 485.12 347.28 485.16 347.37 485.18 347.42 485.19 347.49 485.22 347.59 485.23 347.65 485.26 347.73 485.27 347.8 485.28 347.84 485.28 347.85 485.28 347.89 485.27 347.94 485.26 348 485.25 348.04 485.24 348.08 485.24 348.12 485.23 348.14 485.21 348.2 485.21 348.22 485.19 348.28 485.18 348.35 485.17 348.36 485.16 348.4 485.15 348.45 485.13 348.52 485.11 348.62 485.07 348.75 485.04 348.91 485.03 349.01 484.99 349.18 484.97 349.3 484.91 349.56 484.89 349.68 484.89 349.77 484.9 349.81 484.9 349.88 484.91 349.93 484.91 350.03 484.91 350.18 484.91 350.2 484.91 350.3 484.91 350.46 484.91 350.55 484.9 350.65 484.9 350.66 484.89 350.79 484.88 350.83 484.88 350.84 484.88 350.93 484.87 351.03 484.87 351.04 484.87 351.05 484.87 351.11 484.85 351.25 484.82 351.43 484.8 351.53 484.79 351.59 484.77 351.68 484.75 351.75 484.75 351.77 484.73 351.79 484.68 351.83 484.55 351.95 484.47 352.03 484.45 352.04 484.45 352.05 484.41 352.08 484.36 352.13 484.31 352.18 484.26 352.25 484.24 352.32 484.23 352.33 484.23 352.35 484.23 352.38 484.23 352.39 484.23 352.41 484.22 352.44 484.23 352.5 484.23 352.57 484.22 352.65 484.2 352.73 484.18 352.8 484.18 352.8 484.17 352.85 484.16 352.93 484.15 353.02 484.13 353.09 484.13 353.17 484.12 353.25 484.12 353.27 484.11 353.33 484.11 353.34 484.1 353.35 484.1 353.36 484.1 353.39 484.09 353.43 484.08 353.49 484.07 353.51 484.07 353.57 484.05 353.66 484.04 353.72 484.04 353.75 484.04 353.77 484.02 353.84 484.01 353.94 483.99 354.03 483.97 354.1 483.92 354.18 483.87 354.24 483.8 354.36 483.78 354.42 483.76 354.48 483.75 354.52 483.75 354.54 483.75 354.55 483.75 354.58 483.76 354.58 483.76 354.6 483.77 354.68 483.79 354.76 483.79 354.77 483.79 354.79 483.79 354.81 483.79 354.82 483.8 354.83 483.8 354.84 483.8 354.85 483.81 354.89 483.83 354.96 483.85 355.05 483.88 355.13 483.89 355.24 483.92 355.39 483.93 355.41 483.81 355.82 483.81 355.83 483.79 355.9 483.78 355.93 483.77 355.99 483.75 356.04 483.74 356.08 483.74 356.09 483.73 356.12 483.72 356.17 483.72 356.22 483.71 356.26 483.7 356.31 483.69 356.38 483.69 356.46 483.68 356.52 483.67 356.57 483.67 356.6 483.66 356.68 483.64 356.73 483.64 356.74 483.63 356.81 483.61 356.88 483.59 356.96 483.58 356.99 483.56 357.08 483.55 357.16 483.53 357.24 483.53 357.31 483.52 357.37 483.4 357.53 483.38 357.56 483.35 357.59 483.3 357.64 483.26 357.67 483.24 357.71 483.22 357.74 483.2 357.77 483.19 357.82 483.19 357.85 483.18 357.88 483.16 357.92 483.15 357.95 483.13 357.97 483.12 358 483.1 358.03 483.09 358.05 483.08 358.07 483.07 358.09 483.04 358.12 483.03 358.12 483.02 358.13 483.01 358.13 483 358.14 482.99 358.15 482.98 358.16 482.97 358.18 482.96 358.2 482.95 358.21 482.94 358.22 482.9 358.28 482.88 358.3 482.84 358.35 482.8 358.41 482.76 358.47 482.74 358.52 482.72 358.56 482.72 358.57 482.71 358.58 482.7 358.59 482.7 358.61 482.69 358.63 482.69 358.65 482.69 358.67 482.69 358.69 482.69 358.7 482.68 358.72 482.68 358.73 482.68 358.75 482.68 358.77 482.68 358.78 482.69 358.82 482.69 358.83 482.68 359.06 482.68 359.2 482.68 359.28 482.67 359.41 482.65 359.62 482.64 359.7 482.64 359.75 482.62 359.93 482.62 359.96 482.62 359.97 482.62 359.97 482.62 359.98 482.62 359.99 482.62 360 482.62 360.02 482.62 360.02 482.62 360.04 482.62 360.05 482.62 360.06 482.62 360.08 482.62 360.08 482.62 360.09 482.62 360.1 482.62 360.11 482.62 360.12 482.62 360.14 482.62 360.14 482.62 360.15 482.61 360.16 482.61 360.17 482.61 360.18 482.61 360.18 482.61 360.19 482.61 360.2 482.6 360.21 482.6 360.22 482.59 360.24 482.59 360.25 482.58 360.27 482.57 360.27 482.57 360.28 482.56 360.3 482.56 360.3 482.56 360.31 482.55 360.33 482.55 360.33 482.54 360.34 482.53 360.35 482.53 360.36 482.52 360.37 482.51 360.38 482.5 360.39 482.5 360.4 482.49 360.41 482.49 360.42 482.49 360.43 482.48 360.44 482.48 360.45 482.48 360.46 482.48 360.47 482.47 360.48 482.47 360.49 482.47 360.5 482.47 360.5 482.47 360.51 482.47 360.52 482.47 360.53 482.47 360.53 482.47 360.54 482.46 360.57 482.42 360.86 482.41 360.87 482.41 360.89 482.41 360.89 482.41 360.9 482.41 360.91 482.4 360.92 482.4 360.93 482.4 360.94 482.4 360.95 482.4 360.96 482.4 360.97 482.39 360.97 482.39 360.98 482.39 360.99 482.38 361 482.38 361.01 482.38 361.02 482.38 361.03 482.38 361.03 482.38 361.04 482.38 361.05 482.38 361.06 482.38 361.07 482.38 361.08 482.38 361.09 482.38 361.1 482.38 361.1 482.38 361.11 482.38 361.12 482.38 361.12 482.39 361.13 482.39 361.14 482.39 361.14 482.4 361.17 482.51 361.53 482.53 361.58 482.54 361.62 482.54 361.64 482.56 361.68 482.56 361.7 482.57 361.74 482.58 361.75 482.59 361.76 482.59 361.77 482.6 361.78 482.6 361.78 482.61 361.79 482.61 361.79 482.62 361.8 482.63 361.81 482.63 361.81 482.64 361.82 482.65 361.82 482.66 361.83 482.67 361.84 482.68 361.86 482.69 361.86 482.69 361.87 482.7 361.88 482.72 361.9 482.73 361.91 482.74 361.92 482.75 361.93 482.76 361.94 482.77 361.95 482.78 361.96 482.79 361.97 482.8 361.98 482.8 361.99 482.81 361.99 482.81 362 482.81 362.01 482.82 362.01 482.82 362.02 482.82 362.03 482.82 362.05 482.83 362.06 482.83 362.07 482.83 362.08 482.83 362.08 482.83 362.09 482.84 362.12 482.84 362.12 482.84 362.13 482.84 362.14 482.85 362.15 482.85 362.16 482.85 362.17 482.85 362.18 482.86 362.19 482.86 362.2 482.86 362.21 482.87 362.23 482.87 362.23 482.87 362.25 482.88 362.25 482.89 362.28 482.92 362.35 482.97 362.43 483 362.5 483.04 362.57 483.07 362.63 483.09 362.67 483.11 362.7 483.12 362.72 483.12 362.72 483.12 362.73 483.11 362.75 483.1 362.77 483.08 362.81 483.05 362.85 483.03 362.88 483.03 362.89 483.02 362.9 483.01 362.95 483.01 362.98 483 363.02 482.99 363.04 482.98 363.07 482.96 363.1 482.94 363.12 482.92 363.14 482.9 363.16 482.88 363.18 482.85 363.2 482.83 363.22 482.8 363.25 482.78 363.3 482.71 363.45 482.66 363.47 482.6 363.5 482.53 363.52 482.44 363.56 482.38 363.57 482.33 363.59 482.28 363.6 482.12 363.62 482.04 363.63 481.97 363.64 481.89 363.65 481.89 363.65 481.82 363.65 481.73 363.66 481.71 363.65 481.66 363.65 481.58 363.66 481.51 363.66 481.48 363.66 481.44 363.66 481.38 363.66 481.35 363.66 481.3 363.66 481.26 363.65 481.24 363.64 481.18 363.63 481.14 363.63 481.06 363.61 481 363.59 480.94 363.57 480.88 363.55 480.85 363.53 480.83 363.51 480.78 363.48 480.72 363.44 480.68 363.41 480.62 363.38 480.58 363.34 480.54 363.31 480.52 363.29 480.49 363.27 480.49 363.26 480.47 363.23 480.43 363.18 480.39 363.1 480.31 362.97 480.25 362.88 480.2 362.81 480.18 362.8 480.15 362.8 480.05 362.8 479.88 362.78 479.79 362.77 479.77 362.76 479.62 362.75 479.51 362.73 479.35 362.72 479.23 362.71 479.04 362.69 478.97 362.68 478.81 362.67 478.66 362.65 478.53 362.64 478.43 362.62 478.3 362.61 478.24 362.59 478.2 362.58 478.14 362.53 478.06 362.46 477.98 362.41 477.93 362.37 477.84 362.32 477.76 362.25 477.68 362.2 477.62 362.15 477.54 362.08 477.53 362.07 477.45 361.99 477.41 361.95 477.36 361.9 477.29 361.83 477.2 361.74 477.18 361.73 477.17 361.71 477.11 361.65 477.04 361.58 477.02 361.56 477 361.53 476.94 361.46 476.85 361.35 476.83 361.34 476.83 361.33 476.74 361.22 476.69 361.15 476.68 361.13 476.65 361.09 476.58 361.01 476.56 360.98 476.54 360.94 476.52 360.92 476.49 360.89 476.43 360.83 476.36 360.77 476.3 360.7 476.29 360.69 476.26 360.66 476.23 360.63 476.17 360.58 476.1 360.52 476.02 360.45 475.98 360.42 475.92 360.36 475.91 360.35 475.91 360.34 475.86 360.29 475.82 360.24 475.77 360.19 475.73 360.15 475.67 360.08 475.62 360.02 475.61 360 475.58 359.97 475.56 359.95 475.49 359.87 475.43 359.79 475.38 359.74 475.32 359.67 475.25 359.59 475.23 359.57 475.19 359.51 475.13 359.45 475.08 359.4 475.06 359.38 475.02 359.35 474.96 359.31 474.87 359.26 474.8 359.22 474.78 359.21 474.63 359.15 474.62 359.15 474.58 359.13 474.49 359.09 474.4 359.04 474.3 359 474.28 358.98 474.25 358.97 474.21 358.95 474.16 358.93 474.11 358.91 474.02 358.88 473.9 358.85 473.89 358.85 473.86 358.84 473.84 358.84 473.8 358.82 473.72 358.79 473.68 358.77 473.6 358.75 473.54 358.73 473.44 358.71 473.38 358.7 473.36 358.7 473.34 358.69 473.19 358.67 473.08 358.65 473 358.64 472.93 358.63 472.84 358.61 472.76 358.6 472.68 358.59 472.65 358.59 472.54 358.58 472.44 358.56 472.34 358.55 472.35 358.46 472.37 358.38 472.37 358.36 472.38 358.35 472.4 358.25 472.42 358.15 472.44 358.05 472.47 357.97 472.47 357.96 472.47 357.94 472.51 357.85 472.51 357.82 472.54 357.73 472.55 357.72 472.57 357.67 472.57 357.64 472.62 357.53 472.63 357.51 472.63 357.5 472.66 357.42 472.71 357.31 472.75 357.21 472.79 357.09 472.81 357.05 472.81 357.04 472.83 356.98 472.84 356.95 472.88 356.89 472.88 356.88 472.89 356.86 472.92 356.79 472.99 356.65 473.05 356.51 473.08 356.43 473.09 356.4 473.1 356.34 473.11 356.22 473.11 356.17 473.12 356.16 473.2 356.07 473.28 355.97 473.36 355.93 473.54 355.85 473.64 355.75 473.74 355.72 473.95 355.66 474.18 355.59 474.3 355.56 474.3 355.55 474.49 355.27 474.67 355.03 474.69 354.99 474.7 354.88 474.7 354.87 474.71 354.8 474.72 354.71 474.72 354.69 474.73 354.53 474.74 354.39 474.75 354.38 474.75 354.37 474.78 354.16 474.79 354.14 474.79 354.08 474.81 353.92 474.82 353.85 474.82 353.82 474.82 353.61 474.9 353.28 474.93 353.14 474.94 353.12 474.94 353.1 474.95 353.06 474.97 352.99 474.99 352.87 475 352.86 475.02 352.81 475.09 352.66 475.12 352.58 475.14 352.53 475.19 352.41 475.22 352.28 475.27 352.12 475.31 351.96 475.36 351.78 475.41 351.57 475.46 351.39 475.49 351.32 475.52 351.23 475.53 351.2 475.58 351.04 475.65 350.81 475.66 350.73 475.68 350.53 475.69 350.37 475.69 350.36 475.7 350.24 475.71 350.16 475.65 350.14 475.5 350.1 475.26 350.03 475.23 350.01 475.22 349.99 475.18 349.86 475.13 349.68 475.11 349.65 475.11 349.64 475.05 349.48 474.96 349.25 474.93 349.09 474.89 348.86 474.87 348.7 474.85 348.6 474.85 348.59 474.84 348.58 474.84 348.54 474.83 348.48 474.82 348.47 474.76 348.26 474.66 347.95 474.63 347.84 474.63 347.82 474.64 347.68 474.65 347.66 474.66 347.53 474.67 347.44 474.68 347.42 474.74 347.3 474.74 347.29 474.76 347.26 474.8 347.19 474.82 347.14 474.84 347.09 474.85 347.03 474.86 346.99 474.88 346.81 474.89 346.79 474.89 346.77 474.9 346.73 474.9 346.7 474.9 346.66 474.88 346.6 474.88 346.6 474.87 346.58 474.87 346.53 474.84 346.45 474.84 346.43 474.83 346.4 474.83 346.39 474.79 346.28 474.71 346.08 474.61 345.83 474.6 345.81 474.54 345.65 474.5 345.58 474.45 345.45 474.44 345.41 474.41 345.27 474.39 345.19 474.39 345.18 474.37 344.99 474.34 344.78 474.33 344.76 474.31 344.59 474.31 344.57 474.29 344.5 474.28 344.45 474.27 344.44 474.27 344.42 474.26 344.35 474.24 344.24 474.22 344.15 474.22 344.12 474.22 344.04 474.21 343.94 474.2 343.82 474.19 343.8 474.19 343.78 474.18 343.74 474.16 343.62 474.16 343.59 474.15 343.53 474.14 343.52 474.14 343.49 474.12 343.41 474.12 343.38 474.12 343.35 474.11 343.34 474.11 343.32 474.11 343.3 474.09 343.21 474.07 343.14 474.07 343.13 474.07 343.12 474.07 343.11 474.06 343.09 474.06 343.07 474.05 343.04 474.05 343.01 474.05 342.99 474.05 342.98 474.04 342.9 474.03 342.87 474.02 342.85 474 342.81 473.98 342.74 473.94 342.65 473.93 342.63 473.93 342.61 473.9 342.56 473.88 342.53 473.87 342.5 473.86 342.49 473.86 342.48 473.85 342.43 473.84 342.41 473.83 342.36 473.82 342.36 473.81 342.34 473.78 342.32 473.76 342.3 473.75 342.29 473.74 342.27 473.73 342.26 473.71 342.21 473.7 342.2 473.69 342.18 473.69 342.17 473.67 342.15 473.66 342.14 473.66 342.13 473.63 342.07 473.6 342.03 473.59 342.02 473.59 342 473.57 341.98 473.56 341.96 473.55 341.95 473.54 341.94 473.53 341.92 473.48 341.84 473.4 341.71 473.39 341.68 473.36 341.63 473.3 341.53 473.26 341.45 473.2 341.35 473.16 341.26 473.09 341.16 473.05 341.08 472.98 340.95 472.94 340.89 472.87 340.77 472.84 340.71 472.76 340.59 472.73 340.53 472.67 340.41 472.65 340.38 472.67 340.34 472.67 340.33 472.68 340.3 472.71 340.19 472.71 340.17 472.72 340.16 472.74 340.09 472.77 339.96 472.79 339.88 472.8 339.87 472.8 339.85 472.84 339.74 472.87 339.66 472.9 339.58 472.92 339.53 472.95 339.42 472.95 339.41 472.95 339.4 472.98 339.32 473.01 339.23 473.05 339.13 473.06 339.1 473.08 339.05 473.09 339.03 473.1 338.96 473.1 338.94 473.12 338.86 473.13 338.81 473.13 338.79 473.14 338.74 473.16 338.66 473.17 338.56 473.19 338.46 473.21 338.41 473.24 338.34 473.26 338.29 473.26 338.28 473.26 338.27 473.26 338.26 473.27 338.25 473.27 338.21 473.32 338.04 473.37 337.91 473.38 337.85 473.39 337.81 473.41 337.73 473.43 337.66 473.45 337.59 473.47 337.51 473.49 337.43 473.51 337.36 473.52 337.27 473.54 337.18 473.56 337.11 473.57 337.02 473.59 336.94 473.59 336.92 473.61 336.85 473.62 336.79 473.63 336.71 473.63 336.68 473.64 336.64 473.65 336.63 473.66 336.55 473.67 336.47 473.68 336.45 473.69 336.39 473.7 336.34 473.72 336.25 473.73 336.24 473.75 336.16 473.77 336.1 473.78 336.06 473.79 336.04 473.8 336 473.81 335.97 473.84 335.9 473.86 335.82 473.89 335.76 473.92 335.68 473.93 335.66 473.93 335.65 473.95 335.6 473.96 335.56 473.97 335.52 473.99 335.5 474.02 335.48 474.04 335.48 474.05 335.48 474.08 335.47 474.16 335.43 474.19 335.42 474.2 335.42 474.24 335.41 474.31 335.38 474.38 335.34 474.41 335.33 474.42 335.33 474.45 335.31 474.52 335.28 474.57 335.27 474.63 335.25 474.69 335.25 474.7 335.25 474.74 335.24 474.75 335.24 474.76 335.23 474.81 335.2 474.85 335.16 474.88 335.12 474.89 335.11 474.9 335.1 474.94 335.05 474.97 335.02 475 334.99 475.06 334.92 475.11 334.87 475.16 334.8 475.23 334.72 475.27 334.66 475.27 334.66 475.33 334.59 475.37 334.54 475.42 334.47 475.45 334.42 475.46 334.41 475.48 334.4 475.49 334.38 475.51 334.36 475.53 334.35 475.6 334.32 475.66 334.29 475.77 334.23 475.87 334.18 475.91 334.16 475.94 334.15 476 334.11 476.05 334.09 476.14 334.01 476.2 333.96 476.27 333.9 476.34 333.84 476.38 333.8 476.43 333.77 476.45 333.75 476.51 333.71 476.55 333.68 476.57 333.66 476.61 333.65 476.59 333.72 476.6 333.83 476.6 333.9 476.59 333.92 476.58 333.97 476.55 334.04 476.49 334.17 476.46 334.32 476.46 334.34 476.45 334.37 476.43 334.44 476.4 334.57 476.39 334.61 476.38 334.69 476.38 334.7 476.38 334.77 476.38 334.81 476.38 334.82 476.38 334.85 476.39 334.89 476.4 334.91 476.4 334.92 476.42 334.95 476.43 334.96 476.53 335.1 476.69 335.31 476.72 335.34 476.85 335.41 476.99 335.49 477.07 335.53 477.25 335.6 477.45 335.69 477.49 335.71 477.53 335.72 477.53 335.73 477.54 335.77 477.54 335.81 477.55 335.86 477.57 335.9 477.58 335.94 477.64 336.09 477.73 336.28 478.14 336.23 478.15 336.23 478.16 336.23 478.21 336.23 478.3 336.23 478.35 336.23 478.36 336.23 478.38 336.23 478.39 336.22 478.4 336.21 478.43 336.18 478.5 336.11 478.53 336.08 478.56 336.04 478.63 335.97 478.67 335.93 478.69 335.91 478.7 335.9 478.71 335.88 478.71 335.87 478.74 335.83 478.75 335.79 478.77 335.75 478.79 335.73 478.83 335.71 478.86 335.7 478.88 335.69 478.94 335.68 478.94 335.68 478.97 335.68 479.01 335.68 479.14 335.69 479.23 335.7 479.4 335.7 479.43 335.7 479.53 335.67 479.67 335.62 479.82 335.56 480.01 335.5 480.08 335.48 480.17 335.46 480.22 335.45 480.26 335.44 480.33 335.44 480.4 335.45 480.43 335.44 480.46 335.44 Z"/>
</g></svg>