<svg xmlns="http://www.w3.org/2000/svg" version="1.2" baseProfile="tiny" stroke-linecap="round" stroke-linejoin="round" viewBox="507 231.48 22.33 22.47"><g xmlns="http://www.w3.org/2000/svg" id="Odieta">
<path d="M 507.02 237.01 507.1 236.89 507.2 236.77 507.29 236.67 507.37 236.58 507.44 236.5 507.5 236.42 507.55 236.35 507.59 236.3 507.66 236.19 507.73 236.11 507.74 236.09 507.76 236.05 507.79 235.99 507.84 235.9 507.91 235.77 507.97 235.65 507.99 235.59 508.02 235.53 508.04 235.44 508.07 235.37 508.08 235.35 508.1 235.31 508.15 235.22 508.19 235.14 508.21 235.08 508.23 235.05 508.24 235.02 508.27 234.96 508.31 234.9 508.34 234.85 508.36 234.8 508.38 234.75 508.39 234.72 508.39 234.71 508.4 234.69 508.4 234.66 508.4 234.64 508.4 234.59 508.39 234.51 508.38 234.43 508.37 234.38 508.37 234.36 508.35 234.24 508.35 234.2 508.35 234.18 508.35 234.17 508.36 234.17 508.38 234.17 508.42 234.17 508.5 234.16 508.6 234.15 508.65 234.15 508.68 234.14 508.71 234.13 508.73 234.12 508.75 234.1 508.77 234.07 508.8 234.04 508.82 234.02 508.86 234 508.9 233.98 508.95 233.96 508.99 233.94 509.04 233.93 509.06 233.92 509.1 233.92 509.13 233.92 509.19 233.93 509.22 233.93 509.26 233.93 509.3 233.92 509.34 233.91 509.38 233.91 509.41 233.9 509.42 233.9 509.46 233.9 509.5 233.9 509.55 233.9 509.62 233.91 509.66 233.92 509.71 233.93 509.76 233.93 509.82 233.94 509.85 233.94 509.87 233.94 509.9 233.96 509.94 233.99 509.97 234.02 510 234.04 510.03 234.07 510.04 234.05 510.04 234.05 510.09 234 510.11 233.98 510.14 233.95 510.18 233.9 510.21 233.86 510.22 233.84 510.31 233.72 510.49 233.75 510.63 233.78 510.7 233.79 510.77 233.8 510.83 233.81 510.88 233.82 510.93 233.84 510.99 233.87 511.04 233.86 511.1 233.85 511.15 233.84 511.2 233.83 511.24 233.82 511.26 233.82 511.27 233.82 511.32 233.8 511.36 233.8 511.37 233.81 511.39 233.84 511.45 233.9 511.46 233.91 511.48 233.94 511.5 233.96 511.52 233.98 511.54 234.01 511.54 234.04 511.55 234.06 511.54 234.09 511.53 234.11 511.52 234.14 511.51 234.16 511.48 234.19 511.45 234.21 511.43 234.23 511.49 234.26 511.53 234.28 511.57 234.31 511.61 234.34 511.64 234.36 511.67 234.39 511.7 234.42 511.73 234.46 511.76 234.51 511.79 234.55 511.8 234.58 511.82 234.6 511.87 234.58 511.91 234.57 511.96 234.54 512 234.52 512.04 234.5 512.05 234.5 512.08 234.49 512.09 234.49 512.1 234.48 512.12 234.48 512.14 234.48 512.15 234.48 512.16 234.48 512.17 234.48 512.19 234.48 512.21 234.48 512.22 234.48 512.24 234.49 512.25 234.5 512.27 234.51 512.28 234.52 512.3 234.54 512.32 234.55 512.34 234.58 512.35 234.61 512.37 234.64 512.38 234.69 512.4 234.71 512.41 234.72 512.42 234.74 512.43 234.75 512.43 234.76 512.45 234.77 512.47 234.81 512.48 234.82 512.49 234.83 512.52 234.85 512.53 234.86 512.56 234.88 512.57 234.89 512.58 234.89 512.6 234.9 512.61 234.91 512.63 234.92 512.66 234.93 512.67 234.94 512.7 234.95 512.72 234.96 512.74 234.96 512.75 234.97 512.76 234.97 512.77 234.98 512.79 234.99 512.81 235 512.83 235.01 512.86 235.04 512.88 235.05 512.9 235.07 512.91 235.08 512.92 235.09 512.94 235.1 512.96 235.12 512.98 235.14 513 235.15 513.02 235.16 513.05 235.18 513.07 235.19 513.1 235.17 513.15 235.14 513.16 235.14 513.22 235.1 513.28 235.07 513.34 235 513.36 234.96 513.39 234.92 513.42 234.88 513.44 234.83 513.45 234.81 513.48 234.77 513.49 234.74 513.5 234.73 513.51 234.71 513.52 234.7 513.56 234.66 513.63 234.59 513.58 234.52 513.54 234.46 513.48 234.39 513.44 234.35 513.42 234.32 513.38 234.28 513.34 234.24 513.42 234.18 513.51 234.12 513.64 234.03 513.7 233.98 513.75 233.95 513.85 233.97 514 233.98 514.08 233.99 514.13 233.99 514.23 234.01 514.35 234.02 514.49 234.04 514.61 234.06 514.68 234.07 514.7 234.07 514.74 234 514.79 233.9 514.81 233.87 514.88 233.74 514.95 233.62 515.01 233.49 515.05 233.43 515.08 233.38 515.1 233.35 515.14 233.27 515.2 233.18 515.28 233.06 515.32 232.99 515.35 232.94 515.36 232.93 515.38 232.89 515.4 232.85 515.41 232.84 515.42 232.82 515.43 232.8 515.44 232.78 515.51 232.67 515.59 232.54 515.72 232.53 515.75 232.53 515.85 232.52 515.98 232.51 516.15 232.5 516.29 232.48 516.39 232.47 516.5 232.44 516.61 232.4 516.65 232.39 516.76 232.35 516.84 232.32 516.97 232.27 517.08 232.23 517.17 232.19 517.23 232.17 517.44 232.08 517.59 232.03 517.71 231.97 517.78 231.95 517.91 231.91 518.06 231.87 518.19 231.78 518.3 231.71 518.45 231.6 518.51 231.56 518.61 231.49 518.69 231.57 518.95 231.86 518.97 231.88 518.99 231.9 519.01 231.91 519.02 231.92 519.08 231.99 519.1 232.03 519.11 232.04 519.13 232.07 519.22 232.24 519.5 232.72 519.52 232.77 520.29 233.27 520.35 233.32 520.37 233.33 520.39 233.33 520.4 233.34 520.42 233.34 520.47 233.34 520.65 233.34 520.8 233.35 520.92 233.36 521.02 233.37 521.14 233.38 521.15 233.38 521.16 233.38 521.29 233.42 521.46 233.48 521.49 233.49 521.5 233.51 521.53 233.52 521.56 233.54 521.58 233.57 521.62 233.59 521.79 233.78 521.89 233.87 521.9 233.89 521.91 233.91 521.92 233.92 521.93 233.95 521.97 234.05 522.02 234.24 522.03 234.28 522.03 234.31 522.04 234.33 522.04 234.34 522.04 234.38 522.04 234.42 522.04 234.45 522.04 234.48 522.03 234.51 522.03 234.54 522.02 234.57 522.01 234.63 521.88 235.13 521.9 235.17 521.92 235.21 521.94 235.22 521.96 235.27 522.01 235.36 522.02 235.38 522.03 235.39 522.04 235.41 522.09 235.47 522.15 235.57 522.26 235.71 522.41 235.91 522.46 235.97 522.48 236.01 522.49 236.02 522.51 236.06 522.56 236.14 522.62 236.25 522.69 236.39 522.79 236.58 522.8 236.6 522.82 236.63 522.83 236.64 522.9 236.77 522.9 236.79 522.93 236.85 522.94 236.87 522.95 236.9 522.98 237.03 523.02 237.18 523.03 237.24 523.04 237.26 523.09 237.46 523.1 237.52 523.1 237.54 523.1 237.55 523.12 237.66 523.13 237.77 523.14 237.86 523.16 237.96 523.17 238.04 523.89 238.62 524.18 238.85 524.27 239.23 524.29 239.28 524.3 239.36 524.31 239.39 524.34 239.44 524.41 239.6 524.48 239.74 524.51 239.83 524.59 239.86 524.64 239.88 524.68 239.9 524.71 239.91 524.74 239.94 524.75 239.95 524.77 239.96 524.8 239.99 524.85 240.03 524.94 240.1 524.97 240.33 525.2 240.63 525.15 240.76 525.09 240.88 525.08 240.9 525.07 240.92 525.07 240.94 525.05 240.96 525.04 241 525.03 241.05 525.01 241.15 524.99 241.22 524.99 241.22 524.99 241.24 524.96 241.33 524.93 241.45 524.92 241.5 524.91 241.57 524.89 241.67 524.88 241.75 524.86 241.85 524.86 241.92 524.85 241.95 525.06 241.96 525.02 242.06 524.98 242.16 524.93 242.3 524.9 242.39 524.88 242.44 524.87 242.47 524.91 242.66 525.03 243.21 525.04 243.22 525.06 243.27 525.07 243.29 525.07 243.31 525.08 243.33 525.08 243.35 525.07 243.37 525.06 243.39 525.06 243.41 525.05 243.44 525.05 243.46 525.05 243.48 525.04 243.5 525.04 243.53 525.04 243.55 525.04 243.56 525.05 243.59 525.05 243.61 525.05 243.65 525.05 243.66 525 243.76 524.94 243.91 524.88 244.01 524.84 244.15 524.83 244.18 524.76 244.38 524.75 244.41 524.72 244.54 524.7 245.05 524.68 245.77 524.7 245.78 524.74 245.79 524.76 245.8 524.78 245.81 524.79 245.82 524.8 245.82 524.82 245.83 524.84 245.85 524.85 245.87 524.87 245.88 524.88 245.9 524.89 245.91 524.91 245.93 524.92 245.94 524.93 245.96 524.94 245.98 524.97 246.02 525.08 246.23 525.14 246.36 525.18 246.44 525.19 246.46 525.19 246.48 525.2 246.49 525.2 246.5 525.21 246.54 525.25 246.67 525.25 246.68 525.26 246.73 525.27 246.75 525.27 246.77 525.28 246.8 525.28 246.83 525.31 246.97 525.31 246.98 525.33 246.99 525.36 246.99 525.37 247 525.45 247.01 525.46 247.02 526.05 247.16 526.13 247.18 526.2 247.2 526.22 247.2 526.25 247.21 526.3 247.23 526.39 247.26 526.44 247.27 526.49 247.29 526.53 247.31 526.6 247.35 526.65 247.38 526.7 247.4 526.73 247.43 526.8 247.47 526.83 247.49 526.86 247.51 526.9 247.54 526.93 247.57 527 247.62 527.02 247.64 527.05 247.66 527.09 247.7 527.11 247.71 527.13 247.73 527.16 247.75 527.19 247.77 527.21 247.79 527.24 247.81 527.28 247.84 527.4 247.9 527.55 247.98 527.6 248.01 527.66 248.04 527.73 248.08 527.8 248.12 527.88 248.17 527.94 248.2 528.09 248.27 528.11 248.29 528.14 248.3 528.33 248.4 528.39 248.44 528.45 248.47 528.48 248.48 528.51 248.5 528.54 248.51 528.56 248.52 528.58 248.53 528.6 248.53 528.67 248.55 528.7 248.55 528.87 248.62 529.23 248.75 529.24 248.75 529.33 248.79 529.32 248.82 529.26 249.01 529.23 249.08 529.2 249.17 529.16 249.29 529.13 249.39 529.09 249.49 529.07 249.55 529.04 249.63 529.01 249.7 529 249.74 528.97 249.82 528.94 249.9 528.92 249.95 528.9 250.02 528.88 250.07 528.82 250.13 528.77 250.18 528.71 250.23 528.7 250.25 528.67 250.27 528.55 250.38 528.51 250.43 528.45 250.48 528.42 250.52 528.37 250.56 528.34 250.6 528.31 250.64 528.27 250.68 528.23 250.73 528.19 250.78 528.15 250.83 528.11 250.88 528.07 250.94 528.04 250.97 528.01 251 528 251.03 527.99 251.05 527.97 251.08 527.94 251.17 527.91 251.25 527.87 251.33 527.85 251.37 527.83 251.42 527.8 251.47 527.77 251.53 527.73 251.6 527.7 251.65 527.68 251.67 527.66 251.71 527.63 251.76 527.56 251.78 527.5 251.79 527.41 251.81 527.37 251.82 527.32 251.83 527.26 251.84 527.22 251.85 527.13 251.87 527.08 251.88 527.03 251.89 527 251.88 526.98 251.88 526.94 251.86 526.9 251.84 526.87 251.82 526.85 251.8 526.8 251.77 526.75 251.74 526.74 251.74 526.74 251.73 526.73 251.71 526.72 251.7 526.71 251.68 526.68 251.67 526.66 251.67 526.64 251.67 526.49 251.71 526.48 251.71 526.47 251.73 526.45 251.73 526.43 251.76 526.39 251.81 526.37 251.84 526.36 251.85 526.34 251.86 526.28 251.86 526.25 251.86 526.21 251.86 526.17 251.86 526.13 251.85 526.11 251.85 526.07 251.84 526.05 251.83 526.03 251.83 526 251.82 525.97 251.81 525.94 251.79 525.92 251.77 525.89 251.75 525.85 251.7 525.83 251.68 525.81 251.65 525.78 251.62 525.76 251.57 525.73 251.53 525.71 251.48 525.67 251.39 525.64 251.34 525.62 251.29 525.57 251.21 525.55 251.22 525.53 251.22 525.46 251.25 525.31 251.31 525.27 251.33 525.19 251.37 525.03 251.44 524.7 251.59 524.53 251.67 524.49 251.68 524.45 251.7 524.26 251.79 524.07 251.87 523.9 251.95 523.79 252 523.63 252.07 523.62 252.05 523.6 252 523.58 251.96 523.54 251.9 523.51 251.86 523.48 251.81 523.45 251.77 523.41 251.71 523.36 251.64 523.32 251.58 523.29 251.52 523.25 251.47 523.21 251.42 523.19 251.38 523.15 251.32 523.12 251.28 523.08 251.22 523.05 251.17 523.01 251.12 522.97 251.06 522.93 251.01 522.89 250.96 522.84 250.91 522.8 250.86 522.75 250.81 522.71 250.75 522.66 250.7 522.62 250.65 522.56 250.59 522.52 250.54 522.47 250.49 522.42 250.44 522.34 250.36 522.3 250.32 522.25 250.28 522.22 250.25 522.19 250.22 522.16 250.2 522.16 250.21 522.15 250.24 522.13 250.29 522.1 250.35 522.07 250.42 522.04 250.48 522.01 250.56 521.98 250.65 521.96 250.72 521.94 250.78 521.92 250.84 521.9 250.87 521.87 250.92 521.87 250.93 521.83 250.99 521.8 251.04 521.78 251.07 521.76 251.1 521.72 251.17 521.69 251.22 521.67 251.27 521.63 251.34 521.6 251.38 521.57 251.43 521.56 251.44 521.54 251.47 521.51 251.52 521.47 251.59 521.42 251.66 521.38 251.73 521.34 251.79 521.3 251.85 521.25 251.92 521.21 251.99 521.18 252.04 521.12 252.12 521.05 252.08 520.96 252.03 520.92 252 520.83 251.95 520.8 251.93 520.71 251.92 520.61 251.92 520.56 251.91 520.44 251.91 520.39 251.9 520.27 251.89 520.22 251.89 520.07 251.89 520.02 251.89 519.9 251.89 519.73 251.89 519.68 251.89 519.55 251.89 519.38 251.9 519.18 251.9 519.12 251.94 519.05 251.98 518.98 252.03 518.9 252.07 518.87 252.09 518.81 252.12 518.75 252.15 518.7 252.18 518.62 252.23 518.57 252.25 518.47 252.31 518.43 252.34 518.35 252.37 518.29 252.39 518.19 252.43 518.11 252.46 518.04 252.49 517.94 252.53 517.81 252.57 517.79 252.58 517.77 252.59 517.75 252.6 517.66 252.63 517.6 252.66 517.53 252.68 517.5 252.69 517.39 252.72 517.36 252.73 517.24 252.77 517.1 252.8 516.97 252.84 516.88 253.02 516.83 253.1 516.75 253.13 516.58 253.19 516.47 253.23 516.41 253.26 516.33 253.29 516.29 253.31 516.26 253.33 516.2 253.39 516.13 253.45 516.04 253.52 516.02 253.54 516 253.55 515.98 253.57 515.87 253.58 515.8 253.59 515.62 253.6 515.45 253.61 515.38 253.62 515.28 253.63 515.18 253.64 515.11 253.64 515.09 253.65 515.01 253.69 514.92 253.74 514.83 253.78 514.79 253.78 514.78 253.79 514.77 253.79 514.59 253.81 514.48 253.82 514.43 253.82 514.31 253.84 514.25 253.84 514.15 253.85 514.06 253.86 513.89 253.88 513.81 253.89 513.79 253.89 513.63 253.91 513.56 253.92 513.44 253.92 513.4 253.91 513.36 253.9 513.32 253.88 513.28 253.86 513.24 253.83 513.2 253.79 513.16 253.74 513.12 253.68 513.07 253.6 513.02 253.46 512.97 253.36 512.92 253.25 512.86 253.11 512.85 253.1 512.84 253.08 512.79 252.95 512.71 252.76 512.63 252.57 512.76 252.48 513.03 252.29 513.24 252.14 513.44 252.02 513.64 251.9 513.78 251.81 513.63 251.55 513.47 251.29 513.34 251.1 513.33 251.08 513.32 251.07 513.18 250.88 513.04 250.79 513.02 250.78 512.93 250.73 512.9 250.71 512.89 250.7 512.84 250.68 512.65 250.55 512.49 250.44 512.49 250.39 512.5 250.28 512.51 250.15 512.53 250.02 512.54 249.94 512.54 249.92 512.53 249.87 512.52 249.78 512.51 249.68 512.49 249.6 512.48 249.52 512.47 249.42 512.45 249.33 512.44 249.25 512.43 249.17 512.42 249.09 512.41 249.02 512.39 248.92 512.38 248.8 512.36 248.67 512.35 248.57 512.34 248.49 512.33 248.41 512.32 248.36 512.24 248.21 512.18 248.09 512.12 247.96 512.05 247.84 512.02 247.76 512.01 247.75 511.9 247.72 511.81 247.69 511.76 247.67 511.73 247.67 511.6 247.63 511.48 247.6 511.43 247.59 511.41 247.59 511.38 247.58 511.27 247.55 511.18 247.53 511.11 247.51 511.05 247.5 510.97 247.48 510.85 247.45 510.79 247.44 510.66 247.44 510.46 247.55 510.39 247.59 510.28 247.61 510.14 247.66 510.02 247.69 509.9 247.72 509.8 247.75 509.68 247.78 509.57 247.81 509.48 247.84 509.38 247.86 509.29 247.89 509.2 247.9 509.13 247.9 509.07 247.9 508.98 247.89 508.9 247.88 508.81 247.87 508.73 247.85 508.7 247.81 508.59 247.71 508.48 247.61 508.4 247.54 508.35 247.48 508.37 247.3 508.39 247.18 508.39 247.16 508.42 246.97 508.47 246.64 508.52 246.31 508.61 245.64 508.66 245.34 508.52 245.15 508.28 244.86 508.04 244.56 508.03 244.55 507.79 244.24 507.58 243.98 507.5 243.68 507.57 243.66 507.8 243.56 508.04 243.47 508.26 243.39 508.3 243.36 508.49 243.25 508.65 243.16 508.64 243.01 508.35 242.7 508.27 242.62 508.26 242.61 508.25 242.61 508.21 242.58 508.19 242.55 508.13 242.5 508.06 242.44 507.96 242.35 507.88 242.26 507.86 242.25 507.88 242.24 507.94 242.18 507.99 242.13 508.01 242.11 508.16 242.13 508.17 241.96 508.18 241.95 508.21 241.95 508.25 241.97 508.3 241.98 508.34 241.99 508.4 241.99 508.47 241.98 508.47 241.96 508.48 241.93 508.48 241.91 508.48 241.89 508.48 241.88 508.48 241.84 508.49 241.74 508.5 241.71 508.5 241.67 508.52 241.59 508.54 241.54 508.55 241.52 508.55 241.5 508.57 241.45 508.6 241.37 508.63 241.33 508.7 241.2 508.76 241.09 508.8 241.01 508.8 240.99 508.85 240.93 508.9 240.84 508.97 240.72 509 240.67 509.23 240.41 509.74 239.83 509.87 239.67 509.76 239.57 509.71 239.51 509.64 239.42 509.55 239.32 509.48 239.23 509.42 239.17 509.41 239.16 509.41 239.15 509.39 239.12 509.33 239.02 509.25 238.9 509.18 238.78 509.11 238.67 509.04 238.53 509.03 238.51 509.02 238.5 508.98 238.43 508.91 238.29 508.85 238.17 508.84 238.13 508.81 238.09 508.8 238.07 508.64 238.05 508.47 238.03 508.46 238.03 508.44 238.03 508.25 238.01 508.19 237.95 508.11 237.88 508.05 237.82 508.01 237.79 507.98 237.76 507.91 237.69 507.85 237.64 507.76 237.55 507.69 237.49 507.62 237.43 507.55 237.37 507.51 237.33 507.43 237.28 507.34 237.22 507.26 237.16 507.17 237.11 507.09 237.05 507.02 237.01 Z"/>
</g></svg>