<svg version="1.2" stroke-linecap="round" stroke-linejoin="round" id="svg5" sodipodi:docname="Oiartzun.svg" inkscape:version="1.1.2 (b8e25be833, 2022-02-05)" xmlns:inkscape="http://www.inkscape.org/namespaces/inkscape" xmlns:sodipodi="http://sodipodi.sourceforge.net/DTD/sodipodi-0.dtd" xmlns="http://www.w3.org/2000/svg" xmlns:svg="http://www.w3.org/2000/svg" viewBox="160.92 32.88 414.47 551.85">
  <defs id="defs9"/>
  <sodipodi:namedview id="namedview7" pagecolor="#ffffff" bordercolor="#666666" borderopacity="1.0" inkscape:pageshadow="2" inkscape:pageopacity="0.0" inkscape:pagecheckerboard="0" showgrid="false" inkscape:zoom="1.3146417" inkscape:cx="399.72867" inkscape:cy="325.56398" inkscape:window-width="1848" inkscape:window-height="1043" inkscape:window-x="72" inkscape:window-y="0" inkscape:window-maximized="1" inkscape:current-layer="svg5"/>
  <g id="Oiartzun" transform="matrix(12.470831,0,0,12.470831,-5368.8463,-1096.1408)">
    <path d="m 456.15,90.54 0.66,0.09 0.13,0.14 0.13,0.16 0.3,0.21 0.24,0.23 0.33,0.5 0.26,0.37 0.19,0.23 h 0.01 l 0.05,0.05 0.04,0.04 0.07,0.07 0.03,0.05 0.03,0.03 0.01,0.01 0.02,0.01 0.02,0.01 0.02,0.01 0.03,0.02 0.02,0.03 0.02,0.02 0.02,0.01 0.03,0.02 0.04,0.04 0.05,0.07 0.02,0.01 0.01,0.02 0.03,0.04 0.05,0.04 0.03,0.02 0.02,0.01 h 0.01 l 0.01,0.01 h 0.01 l 0.03,0.02 0.06,0.02 0.02,0.01 0.02,0.01 0.03,0.01 0.02,0.01 h 0.03 l 0.02,0.01 0.02,0.01 0.04,0.01 0.04,0.02 0.01,0.01 h 0.01 l 0.01,0.01 v 0 h 0.02 l 0.01,0.01 h 0.01 0.01 0.01 0.01 0.01 l 0.03,-0.01 0.01,-0.01 v 0 l 0.36,0.57 0.16,0.13 0.43,0.43 0.7,0.66 0.03,0.03 0.58,0.62 0.06,-0.31 0.11,0.01 0.94,0.29 0.21,0.13 0.65,0.38 0.44,0.33 0.79,0.56 0.29,0.33 0.11,0.05 0.49,0.2 0.18,0.07 0.1,0.03 0.14,0.05 0.29,-0.01 -0.05,0.07 0.1,0.02 0.34,0.15 0.15,0.34 0.3,0.48 0.03,0.03 0.07,0.02 0.04,0.03 0.05,0.02 0.04,0.01 h 0.01 l 0.06,0.04 0.06,0.04 0.08,0.07 0.07,0.08 0.05,0.04 0.04,0.08 0.01,0.05 0.01,0.02 0.02,0.01 0.01,0.01 0.03,0.01 h 0.02 0.01 l 0.01,0.01 0.01,0.01 0.02,0.01 0.01,0.01 h 0.01 0.04 l 0.02,0.01 h 0.01 l 0.01,0.01 v 0.03 l 0.02,0.02 0.02,0.02 0.02,0.02 0.01,0.01 v 0.01 l 0.01,0.01 v 0.02 0.02 l 0.05,0.02 0.01,0.01 0.03,0.03 0.04,0.04 0.06,0.07 0.04,0.05 0.04,0.05 0.01,0.06 0.03,0.04 0.06,0.06 0.06,0.03 0.06,0.03 0.05,0.02 h 0.05 l 0.07,0.02 0.07,0.02 0.07,0.04 0.03,0.02 0.02,0.02 0.01,0.01 0.01,0.02 0.01,0.01 0.02,0.01 0.05,0.02 h 0.03 l 0.02,0.01 0.02,0.01 0.02,0.01 0.02,0.02 0.04,0.05 0.05,0.05 0.04,0.06 0.02,0.03 0.02,0.01 0.03,0.01 0.05,-0.04 0.26,0.15 0.46,0.29 0.29,0.15 0.6,0.57 0.2,0.04 0.19,0.04 0.76,-0.15 0.29,0.16 0.32,0.18 0.26,0.14 0.22,0.44 0.13,0.13 0.43,0.19 0.25,0.17 0.82,1.2 1.45,1.24 -0.04,0.06 -0.14,0.18 -0.09,0.12 -0.04,0.07 -0.09,0.12 -0.07,0.1 -0.02,0.02 -0.04,0.06 -0.07,0.11 -0.1,0.14 -0.04,0.06 -0.05,0.07 -0.02,0.02 -0.02,0.03 -0.02,0.03 -0.07,0.09 -0.02,0.03 -0.02,0.03 -0.02,0.03 -0.02,0.02 -0.02,0.03 -0.02,0.03 -0.01,0.02 -0.03,0.03 -0.01,0.02 -0.07,0.09 -0.07,0.12 -0.08,0.13 h -0.01 l -0.02,0.04 -0.02,0.04 -0.06,0.08 -0.06,0.1 -0.09,0.14 -0.04,0.05 -0.01,0.01 -0.07,0.06 -0.13,0.13 -0.04,0.03 -0.11,0.11 -0.07,0.07 -0.08,0.08 -0.08,0.08 -0.07,0.06 -0.01,0.01 -0.03,0.03 -0.06,0.06 -0.34,-0.03 h -0.15 -0.06 l -0.1,0.1 -0.15,0.18 -0.1,0.1 -0.05,0.06 -0.07,0.08 -0.11,0.12 -0.27,0.31 0.06,0.24 0.05,0.22 0.05,0.18 0.05,0.2 0.04,0.2 0.02,0.07 0.02,0.12 0.02,0.04 0.01,0.01 v 0.02 l -0.01,0.03 v 0.03 l -0.01,0.04 v 0.03 0.02 0.01 0.02 0.01 l 0.01,0.03 0.01,0.06 0.01,0.05 0.01,0.05 v 0 l 0.01,0.04 0.01,0.03 0.01,0.02 0.01,0.01 0.01,0.03 0.02,0.03 0.02,0.02 0.01,0.02 h 0.01 l 0.03,0.03 0.03,0.04 0.04,0.04 0.02,0.04 v 0.02 l 0.01,0.01 0.01,0.02 0.02,0.04 0.06,0.09 0.02,0.05 0.06,0.11 0.02,0.03 0.08,0.13 0.03,0.06 0.02,0.05 0.01,0.04 v 0.04 l -0.01,0.01 -0.05,0.08 -0.07,0.12 -0.1,0.16 -0.09,0.15 -0.13,0.2 -0.15,0.26 -0.16,0.27 -0.21,0.33 -0.1,0.17 -0.01,0.04 v 0.09 0.2 0.02 0.24 l -0.01,0.24 0.06,0.11 0.08,0.14 0.07,0.15 0.08,0.15 0.07,0.13 v 0.08 l -0.01,0.2 -0.01,0.01 -0.02,0.13 v 0.01 l 0.03,0.09 0.04,0.17 0.02,0.05 0.02,0.1 0.03,0.11 0.01,0.03 0.05,0.18 0.04,0.15 0.04,0.14 0.04,0.15 -0.03,0.04 -0.06,0.09 -0.07,0.1 -0.01,0.02 -0.09,0.12 -0.1,0.14 -0.06,0.09 -0.08,0.11 -0.18,0.25 -0.05,0.07 0.03,0.15 v 0.05 l 0.01,0.01 0.02,0.13 0.01,0.05 0.01,0.06 0.04,0.2 0.01,0.05 0.02,0.09 0.02,0.11 0.03,0.17 0.01,0.01 v 0.01 l -0.01,0.03 v 0.02 0.09 l -0.01,0.11 -0.01,0.09 -0.01,0.08 v 0.02 l -0.01,0.08 v 0.01 l -0.01,0.02 v 0.02 0.04 0.03 0.03 l -0.01,0.01 -0.01,0.03 -0.01,0.01 v 0.02 l -0.01,0.02 v 0.03 0.01 0.02 0.03 0.03 l 0.01,0.04 v 0.01 l 0.01,0.03 v 0.01 0.02 0.02 0.03 l 0.01,0.03 v 0.03 0.03 0.04 0.03 l 0.01,0.03 0.03,0.08 0.02,0.08 0.02,0.07 v 0.01 l 0.01,0.06 v 0.01 l 0.02,0.05 0.01,0.05 v 0.01 l 0.01,0.04 0.01,0.03 v 0.01 l 0.01,0.02 v 0.01 l 0.02,0.01 0.01,0.02 0.01,0.01 -0.02,0.03 -0.03,0.06 -0.04,0.04 -0.04,0.05 -0.07,0.07 -0.07,0.06 -0.04,0.02 -0.02,0.01 h -0.05 l -0.05,0.02 -0.11,0.04 -0.02,0.01 -0.06,0.06 -0.07,0.07 -0.01,0.01 -0.05,0.04 -0.04,0.02 -0.1,0.04 -0.11,0.02 -0.02,0.01 h -0.02 l -0.06,0.01 -0.02,0.01 -0.03,0.01 h -0.02 l -0.07,0.03 -0.04,0.01 -0.04,0.01 h -0.02 v 0 l -0.1,0.02 h -0.06 l -0.07,0.02 -0.06,0.01 -0.07,0.01 -0.11,-0.05 -0.13,-0.06 -0.42,0.12 -0.2,0.05 -0.03,0.02 -0.02,0.01 -0.01,0.01 -0.01,0.02 -0.01,0.01 -0.01,0.02 v 0.02 l -0.02,0.05 -0.02,0.08 -0.02,0.12 -0.01,0.07 v 0.01 l -0.02,0.08 -0.01,0.03 -0.01,0.04 -0.01,0.01 -0.01,0.02 v 0.01 l -0.01,0.02 v 0.03 0.02 l 0.01,0.05 0.02,0.06 0.01,0.03 v 0.01 0.01 0 0.01 0.03 l -0.01,0.04 -0.01,0.01 -0.01,0.03 -0.01,0.01 v 0.02 l -0.02,0.05 -0.01,0.09 -0.01,0.04 -0.01,0.03 -0.02,0.05 -0.03,0.05 -0.01,0.03 -0.03,0.08 v 0.02 l -0.04,0.05 v 0.01 l -0.05,0.06 v 0.01 l -0.01,0.02 -0.01,0.03 -0.02,0.07 v 0.07 l -0.01,0.05 -0.01,0.02 -0.03,0.02 -0.05,0.02 -0.08,0.02 -0.05,0.02 -0.02,0.01 -0.02,0.01 -0.01,0.01 -0.02,0.02 -0.05,0.1 -0.05,0.06 -0.05,0.06 -0.04,0.02 -0.03,0.01 h -0.01 l -0.03,-0.01 -0.03,-0.01 -0.02,-0.02 -0.05,-0.03 -0.04,-0.02 -0.04,-0.01 -0.04,-0.01 h -0.01 L 469,123.94 h -0.08 -0.03 -0.04 -0.01 -0.01 l -0.07,-0.01 h -0.05 l -0.05,0.01 h -0.04 -0.06 l -0.07,0.01 h -0.01 -0.02 -0.06 l -0.09,0.02 -0.04,0.01 -0.07,0.01 -0.05,0.01 h -0.04 -0.04 l -0.05,-0.01 -0.05,-0.01 h -0.01 l -0.05,-0.01 h -0.02 -0.06 l -0.02,0.01 h -0.02 l -0.02,0.01 -0.03,0.02 -0.05,0.02 -0.03,0.01 -0.05,0.01 -0.05,0.02 -0.04,0.01 -0.04,0.02 -0.07,0.02 -0.05,0.02 h -0.04 l -0.07,0.01 -0.05,-0.01 -0.06,-0.02 -0.09,-0.04 -0.04,-0.01 -0.05,-0.01 h -0.04 l -0.03,0.01 h -0.02 l -0.02,0.02 -0.02,0.03 -0.02,0.03 -0.01,0.02 -0.01,0.02 -0.01,0.03 -0.01,0.02 v 0.01 l -0.01,0.01 -0.02,0.03 -0.02,0.02 -0.03,0.01 -0.04,0.01 h -0.04 l -0.04,-0.02 -0.04,-0.04 -0.03,-0.05 -0.02,-0.03 -0.04,-0.02 -0.04,-0.05 -0.05,-0.04 -0.06,-0.03 -0.05,-0.01 h -0.06 l -0.04,0.01 h -0.02 l -0.03,0.02 -0.01,0.01 -0.01,0.02 -0.06,0.08 -0.04,0.1 -0.05,0.14 -0.02,0.1 -0.04,0.08 -0.03,0.06 -0.02,0.02 -0.03,0.02 -0.06,0.02 -0.08,0.02 h -0.07 -0.04 l -0.03,0.01 -0.03,0.04 -0.02,0.04 -0.02,0.08 -0.01,0.01 -0.01,0.04 -0.01,0.04 -0.01,0.01 -0.01,0.01 v 0 l -0.03,0.03 -0.06,0.07 -0.07,0.05 -0.07,0.05 -0.03,0.04 -0.03,0.03 v 0.01 l -0.01,0.01 -0.01,0.02 -0.02,0.04 -0.01,0.03 v 0.09 0.12 l 0.01,0.09 v 0.03 l 0.01,0.03 0.01,0.03 0.02,0.03 0.04,0.05 0.03,0.02 0.01,0.02 0.01,0.01 h 0.01 l 0.01,0.01 0.02,0.02 0.01,0.05 0.01,0.06 0.01,0.08 -0.01,0.07 -0.04,0.12 -0.02,0.04 -0.03,0.02 -0.04,0.03 -0.06,0.02 -0.06,0.02 -0.03,0.02 -0.01,0.01 -0.01,0.02 -0.01,0.03 0.03,0.12 0.01,0.03 v 0.01 l 0.01,0.03 0.01,0.04 0.01,0.02 v 0.02 l 0.02,0.04 0.01,0.06 v 0.02 0.01 l 0.01,0.01 v 0.09 0.05 l -0.01,0.07 -0.02,0.05 -0.02,0.04 -0.03,0.03 -0.02,0.03 -0.03,0.02 -0.04,0.02 -0.04,0.03 -0.09,0.09 -0.04,0.06 -0.04,0.08 -0.03,0.07 -0.02,0.05 -0.03,0.03 -0.02,0.01 -0.03,0.02 -0.01,0.01 -0.02,0.03 -0.02,0.02 -0.03,0.02 -0.03,0.02 -0.02,0.02 -0.01,0.01 -0.01,0.01 -0.02,0.02 -0.04,0.06 -0.04,0.05 -0.03,0.06 -0.02,0.04 -0.02,0.06 -0.02,0.05 -0.01,0.01 h -0.02 l -0.07,0.01 -0.06,0.01 -0.02,0.01 -0.11,0.04 -0.08,0.02 -0.15,0.01 -0.11,-0.03 -0.08,-0.02 -0.05,-0.02 -0.05,-0.02 -0.16,-0.08 -0.1,-0.06 -0.03,-0.03 -0.13,-0.09 -0.06,-0.05 h -0.01 l -0.02,-0.01 -0.04,0.01 -0.02,0.02 -0.03,0.03 -0.02,0.05 -0.01,0.05 -0.03,0.04 -0.11,0.13 -0.16,0.2 -0.09,0.1 -0.05,0.03 -0.03,0.01 -0.03,0.01 -0.05,-0.01 -0.05,-0.03 -0.01,-0.02 -0.02,-0.02 -0.01,-0.02 -0.01,-0.03 -0.01,-0.03 -0.02,-0.03 -0.01,-0.03 v -0.02 l -0.05,-0.09 -0.05,-0.07 -0.06,-0.07 -0.06,-0.06 -0.07,-0.03 -0.06,-0.01 -0.06,0.01 -0.03,0.01 -0.03,0.02 -0.03,0.02 -0.03,0.04 -0.01,0.02 -0.01,0.02 -0.01,0.01 -0.01,0.03 -0.01,0.03 0.01,0.05 0.07,0.16 0.07,0.13 0.02,0.06 -0.01,0.05 -0.01,0.04 -0.05,0.1 -0.02,0.07 v 0.06 l 0.01,0.03 0.02,0.06 0.01,0.02 0.01,0.02 0.01,0.02 0.01,0.02 0.01,0.01 0.02,0.03 0.02,0.02 v 0.01 l 0.06,0.08 0.07,0.12 0.04,0.09 0.02,0.06 -0.01,0.05 -0.01,0.05 -0.04,0.04 -0.05,0.04 -0.1,0.02 -0.08,0.01 -0.05,-0.02 -0.05,-0.04 -0.04,-0.05 -0.01,-0.02 -0.03,-0.06 -0.02,-0.09 -0.01,-0.07 -0.01,-0.09 v -0.06 l -0.04,-0.05 -0.02,-0.03 -0.02,-0.02 h -0.04 l -0.05,0.03 h -0.02 l -0.06,0.03 -0.08,0.05 -0.09,0.07 -0.18,0.1 -0.22,0.13 -0.18,0.11 -0.17,0.11 -0.14,0.06 -0.09,0.05 -0.12,0.03 -0.05,-0.01 -0.03,-0.01 -0.02,-0.01 -0.04,-0.02 -0.02,-0.03 -0.03,-0.05 -0.02,-0.04 -0.01,-0.02 -0.02,-0.02 -0.03,-0.01 -0.03,-0.01 -0.09,0.01 h -0.1 -0.06 l -0.06,-0.02 -0.09,-0.06 -0.02,-0.01 -0.04,-0.02 -0.06,-0.04 -0.12,-0.06 -0.11,-0.04 -0.06,-0.01 h -0.04 l -0.04,0.02 -0.03,0.03 -0.02,0.05 h -0.01 l -0.02,0.05 -0.02,0.03 -0.01,0.02 v 0.01 l -0.03,0.05 -0.03,0.04 -0.01,0.01 -0.01,0.02 -0.01,0.01 -0.01,0.03 -0.02,0.03 -0.03,0.03 -0.01,0.02 -0.03,0.05 -0.03,0.04 -0.02,0.02 -0.02,0.03 -0.03,0.02 -0.1,0.07 h -0.04 l -0.04,-0.02 -0.03,-0.03 -0.02,-0.01 -0.02,-0.02 -0.07,-0.05 -0.1,-0.05 -0.14,-0.06 -0.12,-0.06 -0.08,-0.05 -0.08,-0.07 -0.06,-0.06 -0.02,-0.02 -0.01,-0.02 -0.03,-0.07 -0.01,-0.08 v -0.09 -0.06 l -0.01,-0.04 v -0.07 l -0.01,-0.03 0.01,-0.06 0.01,-0.04 v -0.01 l 0.02,-0.04 0.04,-0.06 0.04,-0.04 0.03,-0.04 0.09,-0.09 0.02,-0.03 0.04,-0.03 0.01,-0.01 0.05,-0.05 0.02,-0.04 v -0.05 l -0.01,-0.04 -0.01,-0.02 -0.01,-0.04 -0.01,-0.01 -0.02,-0.04 -0.04,-0.04 -0.03,-0.03 -0.03,-0.03 -0.02,-0.03 -0.04,-0.03 -0.02,-0.02 -0.01,-0.02 -0.04,-0.01 -0.02,0.02 -0.02,0.03 -0.01,0.02 -0.02,0.04 -0.05,0.07 -0.02,0.03 -0.04,0.06 -0.1,0.07 -0.08,0.06 -0.09,0.06 -0.11,0.09 -0.08,0.07 -0.08,0.07 -0.06,0.07 -0.04,0.07 -0.04,0.08 -0.01,0.06 -0.02,0.08 v 0.09 0.08 l 0.01,0.09 0.02,0.07 0.02,0.06 0.03,0.05 0.04,0.04 0.05,0.05 0.06,0.05 0.1,0.06 0.09,0.05 0.08,0.03 0.05,0.05 0.04,0.04 0.03,0.04 0.02,0.06 0.02,0.07 0.01,0.06 v 0.08 l -0.02,0.07 -0.03,0.06 -0.04,0.07 -0.06,0.07 -0.09,0.08 -0.12,0.1 -0.06,0.04 -0.03,0.02 -0.05,0.04 -0.11,0.06 -0.02,0.02 -0.01,0.01 -0.08,0.05 -0.05,0.06 -0.03,0.05 v 0.01 0.01 l -0.01,0.01 v 0.02 0.03 l 0.01,0.05 0.03,0.06 0.04,0.09 0.03,0.07 0.02,0.07 0.02,0.06 0.01,0.08 0.01,0.07 -0.01,0.04 -0.02,0.04 -0.05,0.1 -0.04,0.06 -0.04,0.05 -0.05,0.05 -0.05,0.04 -0.06,0.03 -0.01,0.01 -0.03,0.01 h -0.02 l -0.02,-0.03 -0.03,-0.05 -0.02,-0.04 -0.01,-0.02 -0.03,-0.06 -0.04,-0.06 -0.01,-0.01 -0.04,-0.05 -0.03,-0.03 -0.03,-0.04 -0.04,-0.03 -0.03,-0.02 -0.08,-0.04 -0.06,-0.01 h -0.02 l -0.03,0.02 -0.03,0.03 -0.03,0.03 -0.05,0.05 -0.07,0.05 -0.02,0.02 -0.01,0.01 -0.02,0.02 -0.04,0.02 -0.02,0.02 -0.06,0.04 -0.07,0.03 -0.01,0.02 0.01,0.01 v 0.01 l 0.02,0.02 h 0.04 l 0.03,0.01 0.07,0.02 0.06,0.01 0.03,0.01 0.08,0.03 0.02,0.01 0.05,0.03 0.06,0.02 v 0.01 l 0.03,0.01 0.05,0.03 h 0.01 l 0.02,0.02 0.04,0.02 h 0.01 l 0.02,0.02 0.05,0.03 0.06,0.03 0.04,0.04 0.04,0.02 0.02,0.01 0.03,0.04 0.01,0.02 0.01,0.01 0.01,0.01 0.03,0.04 0.02,0.03 v 0.01 l 0.02,0.03 0.01,0.03 v 0.02 0.04 l -0.01,0.03 v 0.02 0.04 0.04 0.05 l -0.01,0.06 -0.02,0.05 -0.03,0.06 -0.06,0.07 -0.07,0.06 -0.01,0.01 -0.04,0.01 -0.03,0.02 h -0.02 -0.01 l -0.1,0.01 -0.13,-0.02 -0.09,-0.03 -0.03,-0.03 -0.01,-0.01 v -0.01 l -0.03,-0.04 -0.06,-0.1 -0.04,-0.07 -0.02,-0.01 -0.03,-0.03 -0.04,-0.03 -0.04,-0.01 h -0.04 l -0.05,0.01 h -0.05 l -0.13,0.01 h -0.08 l -0.03,-0.01 -0.09,-0.04 -0.07,-0.02 -0.05,-0.03 0.02,-0.05 0.03,-0.03 h 0.01 l 0.02,-0.02 0.03,-0.02 0.04,-0.03 0.05,-0.04 0.02,-0.01 0.03,-0.03 0.02,-0.01 0.05,-0.03 0.06,-0.02 0.05,-0.03 0.05,-0.03 0.03,-0.03 0.02,-0.02 v -0.02 -0.01 l -0.01,-0.01 -0.03,-0.01 h -0.03 -0.05 l -0.05,0.02 -0.03,0.01 -0.06,0.03 -0.02,0.02 -0.06,0.02 -0.02,0.01 -0.05,0.01 h -0.08 l -0.03,-0.01 -0.03,-0.01 -0.03,-0.01 -0.12,-0.05 h -0.06 -0.01 -0.01 l -0.02,0.01 -0.07,0.03 -0.04,0.03 -0.03,0.05 -0.01,0.05 v 0.01 0.02 0.01 0.01 0.02 0.01 l 0.02,0.07 0.02,0.06 0.02,0.08 0.02,0.05 v 0.02 0.01 l 0.02,0.08 v 0.07 0.08 l -0.01,0.07 v 0.01 0.03 0.03 l -0.01,0.03 -0.02,0.11 -0.02,0.1 -0.01,0.12 0.01,0.07 v 0.02 0.01 h 0.01 l 0.02,0.06 0.02,0.05 0.02,0.05 v 0.01 l 0.02,0.06 0.02,0.07 0.01,0.01 0.02,0.07 0.01,0.02 0.01,0.05 0.01,0.04 v 0.07 l -0.05,0.11 -0.03,0.04 -0.02,0.03 -0.07,0.07 -0.07,0.06 h -0.01 l -0.07,0.01 -0.12,0.01 -0.11,-0.01 -0.13,-0.02 -0.1,-0.04 -0.11,-0.06 -0.12,-0.11 -0.04,-0.06 -0.02,-0.04 -0.01,-0.04 0.01,-0.03 0.02,-0.04 0.01,-0.01 0.06,-0.06 0.11,-0.12 0.09,-0.12 0.04,-0.07 v -0.03 l -0.01,-0.02 v -0.01 l -0.01,-0.02 -0.01,-0.02 -0.02,-0.03 -0.01,-0.03 v -0.01 l -0.02,-0.03 -0.01,-0.02 -0.02,-0.07 -0.02,-0.12 -0.01,-0.07 -0.01,-0.01 v -0.03 -0.04 l -0.01,-0.03 v -0.01 -0.03 l -0.01,-0.03 -0.01,-0.07 -0.03,-0.07 -0.05,-0.06 -0.06,-0.06 -0.02,-0.02 -0.05,-0.04 -0.04,-0.04 -0.08,-0.06 -0.01,-0.01 -0.02,-0.01 -0.04,-0.03 -0.08,-0.03 -0.04,-0.02 -0.03,-0.01 -0.03,-0.02 -0.07,-0.02 -0.05,-0.02 -0.04,-0.01 -0.1,-0.07 -0.04,-0.04 -0.01,-0.02 -0.04,-0.06 -0.02,-0.07 v -0.08 -0.02 -0.08 -0.03 l 0.01,-0.1 v -0.01 l 0.02,-0.09 v -0.01 l 0.01,-0.04 0.02,-0.09 0.03,-0.09 0.01,-0.02 0.04,-0.11 0.04,-0.09 v 0 l 0.03,-0.07 0.02,-0.03 0.04,-0.08 0.05,-0.07 0.01,-0.03 0.01,-0.01 0.05,-0.08 h 0.01 l 0.05,-0.09 0.02,-0.02 0.07,-0.11 0.02,-0.07 v -0.04 l -0.02,-0.04 -0.02,-0.04 -0.02,-0.01 -0.04,-0.02 -0.02,-0.01 -0.01,-0.01 -0.08,-0.05 h -0.02 l -0.02,-0.04 -0.02,-0.06 -0.01,-0.07 -0.01,-0.03 -0.01,-0.03 -0.03,-0.04 -0.02,-0.05 -0.02,-0.03 -0.05,-0.09 -0.03,-0.09 -0.01,-0.05 0.01,-0.01 v -0.03 l 0.01,-0.03 0.02,-0.02 0.03,-0.02 0.04,-0.02 h 0.02 l 0.03,0.02 0.04,0.01 0.05,0.02 h 0.05 l 0.04,-0.02 0.02,-0.05 -0.02,-0.05 -0.04,-0.05 -0.04,-0.04 -0.03,-0.01 -0.02,-0.02 -0.03,-0.02 -0.05,-0.02 -0.01,-0.01 -0.07,-0.04 -0.07,-0.07 -0.08,-0.07 -0.06,-0.07 -0.05,-0.08 -0.03,-0.06 -0.04,-0.08 -0.01,-0.05 v -0.01 -0.06 -0.07 l 0.01,-0.02 0.01,-0.06 v -0.01 l 0.01,-0.05 0.02,-0.06 0.01,-0.02 0.02,-0.07 0.01,-0.03 0.02,-0.09 0.01,-0.11 v -0.06 -0.04 l -0.02,-0.05 -0.02,-0.06 -0.05,-0.09 -0.05,-0.1 -0.04,-0.09 v -0.01 -0.07 -0.01 -0.12 l -0.01,-0.08 -0.02,-0.06 -0.05,-0.05 -0.08,-0.02 h -0.07 v 0.01 h -0.02 l -0.03,0.01 -0.06,0.02 -0.05,0.03 -0.05,0.05 -0.03,0.03 -0.01,0.02 -0.02,0.02 -0.03,0.04 -0.01,0.01 -0.05,0.06 -0.05,0.08 -0.04,0.05 -0.01,0.03 v 0.02 l -0.04,0.09 -0.05,0.07 -0.01,0.01 -0.06,0.07 -0.07,0.05 -0.07,0.08 -0.06,0.05 -0.02,0.04 -0.04,0.05 -0.01,0.01 -0.03,0.03 -0.02,0.03 -0.04,0.05 -0.03,0.08 -0.04,0.08 -0.01,0.04 v 0 l -0.02,0.05 -0.01,0.05 v 0.01 l -0.02,0.04 -0.05,0.03 -0.05,0.03 -0.08,0.01 -0.08,-0.02 -0.08,-0.03 -0.05,-0.04 -0.02,-0.08 -0.02,-0.07 -0.01,-0.12 -0.01,-0.13 v -0.07 -0.1 l 0.02,-0.09 0.01,-0.07 0.01,-0.08 0.01,-0.06 0.01,-0.05 0.01,-0.06 -0.02,-0.04 -0.03,-0.08 -0.05,-0.12 -0.05,-0.1 -0.03,-0.04 -0.01,-0.02 -0.01,-0.01 -0.01,-0.01 -0.02,-0.03 -0.01,-0.01 -0.05,-0.04 h -0.01 l -0.05,-0.02 -0.03,-0.02 -0.07,-0.03 h -0.01 l -0.02,-0.01 -0.03,-0.02 -0.02,-0.01 -0.08,-0.05 -0.04,-0.04 -0.03,-0.02 0.81,-0.19 0.04,0.1 0.11,0.14 0.07,0.07 0.82,-0.13 0.26,-0.03 0.04,-0.01 h 0.02 l 0.01,-0.01 0.04,-0.04 0.03,-0.05 0.03,-0.03 0.02,-0.02 0.01,-0.01 0.01,-0.02 0.01,-0.01 0.01,-0.01 h 0.02 l 0.02,-0.01 0.02,-0.01 0.03,-0.02 h 0.02 l 0.04,-0.02 0.02,-0.01 h 0.01 v -0.01 l 0.02,-0.01 0.03,-0.02 0.02,-0.02 0.02,-0.01 h 0.03 0.02 0.02 0.02 0.01 l 0.01,-0.01 h 0.01 0.01 0.02 l 0.02,0.01 h 0.01 l 0.01,-0.01 v -0.02 l 0.01,-0.01 0.01,-0.02 0.01,-0.01 v -0.01 l 0.02,-0.01 h 0.01 l 0.01,-0.01 0.02,-0.02 0.01,-0.01 0.01,-0.01 0.01,-0.02 0.01,-0.02 0.01,-0.01 0.01,-0.02 0.01,-0.01 0.01,-0.01 0.02,-0.02 0.01,-0.02 0.01,-0.01 0.02,-0.02 0.01,-0.01 0.02,-0.01 0.02,-0.02 0.01,-0.01 0.01,-0.01 0.01,-0.02 0.01,-0.01 0.01,-0.03 0.01,-0.01 v -0.03 -0.01 l 0.01,-0.03 0.01,-0.02 v -0.01 l 0.01,-0.02 v -0.02 -0.02 l 0.01,-0.02 0.01,-0.03 0.01,-0.01 0.03,-0.04 0.01,-0.01 0.01,-0.02 0.01,-0.01 0.01,-0.01 h 0.02 l 0.03,-0.01 0.02,-0.01 0.02,-0.01 0.02,-0.02 v -0.01 l 0.01,-0.03 0.01,-0.01 0.01,-0.02 0.02,-0.02 v -0.01 l 0.01,-0.01 0.01,-0.02 0.01,-0.02 0.01,-0.01 0.01,-0.02 0.01,-0.01 0.03,-0.03 h 0.01 l 0.02,-0.02 h 0.01 l 0.01,-0.01 h 0.03 0.01 0.01 l 0.01,-0.01 0.02,-0.01 0.01,-0.01 0.02,-0.01 0.03,-0.01 0.02,-0.01 h 0.02 l 0.01,-0.01 0.01,-0.03 0.01,-0.02 v -0.06 -0.04 -0.04 l 0.01,-0.05 v -0.04 l 0.01,-0.02 0.02,-0.03 0.02,-0.03 0.01,-0.05 0.32,-0.49 0.14,-0.27 0.41,-0.37 0.13,-0.08 2.62,-2.26 -0.47,-1.96 -0.03,-2.77 0.47,-2.32 -0.08,-0.45 -1.33,-0.07 -0.53,-0.11 -0.14,-0.02 -0.02,0.02 -0.01,-0.01 v -0.01 h -0.02 -0.05 -0.02 l -0.02,-0.01 -0.02,-0.01 v -0.01 l -0.01,-0.01 -0.01,-0.02 -0.01,-0.01 v 0 -0.02 -0.03 -0.01 -0.01 l -0.01,-0.02 h -0.02 l -0.01,-0.01 h -0.01 l -0.01,-0.01 -0.01,-0.01 v -0.01 -0.01 -0.02 -0.01 L 455,114.06 v -0.02 -0.02 l -0.01,-0.01 V 114 l -0.01,-0.01 -0.01,-0.01 -0.02,-0.02 -0.02,-0.08 h 0.01 v -0.01 -0.01 -0.01 l 0.01,-0.01 v 0 -0.01 l 0.01,-0.01 v -0.02 -0.01 l 0.01,-0.01 v -0.01 -0.01 l 0.01,-0.01 v -0.01 -0.01 -0.01 -0.01 -0.01 -0.01 l -0.01,-0.01 v -0.01 l -0.01,-0.01 v 0 l -0.01,-0.01 -0.01,-0.01 -0.01,-0.01 v 0 l -0.01,-0.01 -0.01,-0.01 v 0 l -0.02,-0.02 h -0.01 v -0.01 l -0.01,-0.01 -0.01,-0.01 v -0.01 0 l -0.02,-0.02 -0.01,-0.01 v 0 l -0.01,-0.01 -0.01,-0.01 -0.01,-0.01 -0.01,-0.01 -0.03,-0.01 h -0.01 v 0 h -0.02 -0.01 l -0.01,-0.01 h -0.01 l -0.03,-0.05 -0.02,-0.03 -0.02,-0.03 -0.01,-0.03 -0.01,-0.03 -0.01,-0.02 -0.02,-0.02 -0.03,-0.04 -0.02,-0.03 -0.02,-0.02 -0.01,-0.02 -0.02,-0.03 v -0.03 l -0.01,-0.03 v -0.02 l 0.01,-0.03 0.01,-0.03 -0.01,-0.03 0.01,-0.04 -0.01,-0.01 -0.01,-0.02 v -0.02 l -0.01,-0.03 -0.01,-0.02 -0.01,-0.02 -0.01,-0.01 -0.01,-0.01 v -0.02 l -0.01,-0.01 -0.01,-0.02 -0.01,-0.01 v 0 l -0.01,-0.01 -0.02,-0.02 -0.01,-0.02 -0.02,-0.02 -0.04,-0.01 h -0.01 -0.04 l -0.04,-0.01 -0.04,-0.01 -0.01,0.04 -0.48,-0.27 -0.24,-0.13 -0.14,-0.07 -1.2,-0.55 -2.01,-1.31 -0.6,-0.37 -0.86,-0.53 -1.24,-0.8 -0.72,-0.43 -0.21,-0.11 -1.35,-0.9 -0.1,-0.08 -0.05,-1.34 -0.46,-0.52 -0.55,-0.14 0.31,-0.46 -0.47,-0.28 -0.25,-0.44 -0.03,-0.19 -0.05,-0.54 -0.02,-0.02 0.03,-0.04 0.05,-0.06 0.05,-0.07 0.07,-0.09 0.03,-0.04 0.02,-0.02 0.04,-0.06 0.03,-0.04 0.03,-0.05 0.02,-0.03 0.01,-0.02 0.02,-0.05 0.03,-0.06 0.04,-0.08 0.02,-0.05 0.02,-0.04 0.02,-0.02 0.01,-0.03 0.02,-0.02 0.02,-0.01 0.02,-0.02 0.02,-0.01 0.05,-0.02 0.08,-0.04 0.08,-0.03 0.05,-0.03 0.04,-0.01 0.27,-0.35 0.29,-0.74 0.1,-0.16 0.82,-0.98 0.14,-0.18 0.1,-0.14 0.34,-0.18 -0.03,-0.28 0.01,-0.12 0.01,-0.05 0.01,-0.09 0.09,-0.3 v -0.04 -0.04 l 0.01,-0.08 0.02,-0.09 0.04,-0.07 0.02,-0.04 0.03,-0.04 0.01,-0.02 0.01,-0.02 0.02,-0.02 0.02,-0.02 0.01,-0.01 0.02,-0.01 0.04,-0.02 h 0.02 v 0.09 l 0.82,-0.31 0.07,-0.24 -0.1,-0.31 0.12,-0.22 h -0.01 L 447.62,97 447.59,96.97 v -0.01 l -0.01,-0.01 0.01,-0.02 v -0.01 l 0.01,-0.01 h 0.01 l 0.01,-0.01 h 0.07 l -0.02,-0.29 -0.02,-0.08 -0.27,0.1 -0.13,-0.16 -0.55,-0.05 -0.56,-0.37 -0.14,-0.09 -0.38,-0.16 0.06,-0.43 -0.12,-0.4 0.06,-0.36 0.14,-0.24 0.13,-0.07 0.23,-0.16 1.28,-0.89 1.75,-0.35 0.92,0.25 0.66,-0.72 0.21,-0.03 0.68,-0.07 0.8,-0.17 h 1.1 l 0.55,-0.08 0.5,-0.31 0.58,-0.37 z" id="path2"/>
  </g>
</svg>