<svg xmlns="http://www.w3.org/2000/svg" version="1.2" baseProfile="tiny" stroke-linecap="round" stroke-linejoin="round" viewBox="584.55 354.9 33.6 41.07"><g xmlns="http://www.w3.org/2000/svg" id="Oibar">
<path d="M 584.57 355.22 584.62 355.23 584.7 355.23 584.74 355.23 584.78 355.23 584.82 355.23 584.84 355.23 584.88 355.23 584.92 355.23 585 355.23 585.09 355.22 585.19 355.21 585.21 355.21 585.25 355.2 585.35 355.2 585.41 355.2 585.48 355.19 585.55 355.2 585.59 355.2 585.62 355.2 585.66 355.2 585.72 355.21 585.76 355.21 585.81 355.21 585.86 355.21 585.91 355.21 585.96 355.21 586.03 355.21 586.09 355.21 586.16 355.21 586.22 355.21 586.26 355.21 586.31 355.22 586.36 355.22 586.41 355.23 586.46 355.23 586.54 355.23 586.6 355.24 586.67 355.24 586.72 355.25 586.79 355.25 586.84 355.25 586.9 355.24 586.99 355.25 587.05 355.25 587.1 355.25 587.13 355.25 587.16 355.26 587.19 355.26 587.2 355.27 587.23 355.27 587.26 355.27 587.26 355.28 587.28 355.28 587.31 355.28 587.32 355.27 587.34 355.27 587.35 355.27 587.39 355.27 587.4 355.27 587.42 355.27 587.45 355.28 587.5 355.27 587.59 355.27 587.65 355.27 587.74 355.26 587.81 355.26 587.88 355.26 587.95 355.25 587.99 355.25 588.02 355.25 588.03 355.25 588.07 355.26 588.11 355.26 588.17 355.26 588.2 355.26 588.22 355.26 588.27 355.26 588.31 355.26 588.37 355.26 588.43 355.25 588.5 355.24 588.54 355.23 588.59 355.22 588.64 355.22 588.7 355.22 588.71 355.21 588.73 355.21 588.8 355.2 588.85 355.18 588.89 355.16 588.93 355.15 588.99 355.13 589.04 355.12 589.05 355.12 589.07 355.12 589.12 355.11 589.16 355.11 589.19 355.11 589.22 355.11 589.23 355.11 589.26 355.11 589.31 355.1 589.37 355.08 589.42 355.07 589.49 355.06 589.52 355.06 589.54 355.05 589.55 355.05 589.58 355.05 589.63 355.04 589.67 355.04 589.73 355.05 589.76 355.05 589.8 355.06 589.82 355.06 589.88 355.07 589.89 355.07 589.93 355.07 589.98 355.08 590.01 355.08 590.02 355.08 590.03 355.08 590.05 355.09 590.09 355.09 590.15 355.09 590.2 355.09 590.22 355.1 590.3 355.11 590.4 355.12 590.49 355.13 590.56 355.13 590.62 355.12 590.66 355.13 590.69 355.13 590.7 355.12 590.73 355.12 590.75 355.11 590.76 355.11 590.81 355.1 590.89 355.08 590.94 355.07 590.99 355.06 591.03 355.05 591.08 355.05 591.11 355.05 591.18 355.03 591.22 355.03 591.28 355.01 591.31 355.01 591.4 355.01 591.5 355.02 591.68 355.02 591.81 355.01 591.95 355.01 592.02 355 592.13 354.98 592.17 354.98 592.2 354.98 592.21 354.97 592.31 354.96 592.41 354.95 592.43 354.94 592.47 354.94 592.5 354.94 592.54 354.93 592.61 354.93 592.7 354.93 592.78 354.94 592.88 354.95 593 354.96 593.1 354.97 593.19 354.98 593.36 354.98 593.4 354.98 593.43 354.98 593.42 355 593.41 355.01 593.39 355.04 593.38 355.06 593.36 355.1 593.34 355.14 593.29 355.22 593.26 355.32 593.25 355.33 593.25 355.36 593.25 355.39 593.24 355.45 593.24 355.47 593.24 355.52 593.27 355.57 593.28 355.6 593.29 355.62 593.3 355.66 593.31 355.7 593.32 355.75 593.32 355.78 593.33 355.8 593.39 355.81 593.43 355.82 593.46 355.84 593.49 355.88 593.53 355.92 593.55 355.96 593.59 355.99 593.62 356.01 593.66 356.04 593.71 356.1 593.75 356.13 593.78 356.15 593.8 356.16 593.87 356.2 593.91 356.24 593.92 356.24 593.93 356.26 593.95 356.29 593.97 356.31 594.11 356.36 594.19 356.39 594.25 356.41 594.26 356.41 594.3 356.42 594.31 356.43 594.36 356.44 594.38 356.45 594.56 356.53 594.57 356.54 594.74 356.62 594.89 356.7 594.95 356.73 595.09 356.83 595.16 356.87 595.41 357.05 595.53 357.12 595.56 357.14 595.57 357.14 595.61 357.16 595.67 357.18 595.7 357.2 595.71 357.19 595.75 357.19 595.76 357.19 595.78 357.19 595.9 357.21 596 357.24 596.07 357.24 596.12 357.26 596.2 357.29 596.29 357.33 596.37 357.36 596.41 357.38 596.46 357.4 596.51 357.42 596.54 357.44 596.56 357.48 596.57 357.49 596.57 357.51 596.58 357.53 596.6 357.58 596.6 357.59 596.6 357.6 596.61 357.6 596.61 357.61 596.61 357.63 596.63 357.66 596.66 357.71 596.7 357.76 596.73 357.8 596.77 357.84 596.81 357.88 596.84 357.9 596.89 357.95 596.94 358 596.98 358.05 597.01 358.09 597.03 358.11 597.08 358.14 597.12 358.17 597.19 358.24 597.26 358.27 597.34 358.31 597.44 358.38 597.56 358.47 597.61 358.51 597.71 358.6 597.73 358.62 597.91 358.79 597.96 358.83 598.34 359.2 598.61 359.46 598.72 359.57 598.83 359.67 598.95 359.79 599.01 359.81 599.06 359.83 599.12 359.84 599.18 359.85 599.39 359.86 599.55 359.87 599.56 359.87 599.58 359.87 599.7 359.88 599.78 359.88 599.84 359.88 600.04 359.84 600.16 359.82 600.28 359.78 600.34 359.77 600.46 359.74 600.59 359.71 600.65 359.69 600.7 359.66 600.74 359.64 600.81 359.6 600.91 359.53 600.94 359.51 600.96 359.49 600.96 359.47 600.97 359.44 600.99 359.43 601.02 359.4 601.09 359.32 601.21 359.22 601.3 359.14 601.41 359.05 601.43 359.04 601.48 359.02 601.53 358.99 601.66 358.9 601.79 358.81 601.87 358.75 601.91 358.73 601.93 358.71 602.06 358.68 602.13 358.68 602.15 358.68 602.16 358.67 602.17 358.67 602.19 358.68 602.22 358.68 602.24 358.69 602.26 358.71 602.39 358.78 602.45 358.83 602.55 358.89 602.56 358.89 602.58 358.91 602.62 358.98 602.64 359.01 602.66 359.08 602.7 359.18 602.73 359.24 602.77 359.3 602.81 359.34 602.89 359.41 602.93 359.44 603.01 359.47 603.11 359.51 603.13 359.52 603.18 359.52 603.19 359.52 603.22 359.53 603.25 359.54 603.25 359.54 603.28 359.55 603.31 359.55 603.32 359.55 603.36 359.55 603.37 359.56 603.39 359.56 603.41 359.56 603.44 359.57 603.47 359.6 603.49 359.61 603.51 359.62 603.52 359.62 603.55 359.65 603.58 359.66 603.58 359.66 603.61 359.69 603.62 359.69 603.66 359.73 603.7 359.77 603.74 359.79 603.75 359.81 603.79 359.83 603.82 359.85 603.85 359.85 603.87 359.86 603.92 359.87 603.96 359.87 603.98 359.88 604.02 359.91 604.05 359.93 604.07 359.94 604.1 359.94 604.13 359.96 604.15 359.97 604.16 359.99 604.16 360 604.16 360.02 604.16 360.04 604.16 360.07 604.17 360.1 604.17 360.12 604.18 360.16 604.19 360.2 604.21 360.22 604.24 360.26 604.27 360.31 604.32 360.37 604.37 360.44 604.4 360.49 604.43 360.52 604.45 360.56 604.47 360.59 604.49 360.63 604.5 360.67 604.51 360.72 604.51 360.77 604.51 360.81 604.52 360.85 604.51 360.9 604.51 360.93 604.51 360.96 604.52 360.99 604.52 361.01 604.53 361.04 604.54 361.07 604.55 361.08 604.57 361.11 604.6 361.14 604.62 361.15 604.63 361.16 604.65 361.16 604.67 361.17 604.7 361.17 604.74 361.17 604.79 361.18 604.9 361.2 604.95 361.22 605 361.25 605.06 361.27 605.09 361.29 605.16 361.31 605.2 361.33 605.23 361.35 605.28 361.38 605.32 361.41 605.37 361.45 605.42 361.49 605.44 361.5 605.48 361.51 605.5 361.52 605.53 361.55 605.57 361.59 605.58 361.61 605.6 361.64 605.63 361.7 605.65 361.73 605.66 361.75 605.68 361.77 605.71 361.79 605.74 361.81 605.78 361.82 605.82 361.83 605.88 361.84 605.94 361.85 605.98 361.86 606.02 361.86 606.08 361.87 606.12 361.87 606.16 361.88 606.19 361.89 606.25 361.91 606.29 361.93 606.33 361.96 606.35 361.97 606.36 361.99 606.38 362.01 606.4 362.03 606.44 362.05 606.48 362.08 606.53 362.1 606.58 362.11 606.63 362.13 606.7 362.14 606.75 362.15 606.82 362.15 606.88 362.16 606.93 362.17 607 362.2 607.05 362.22 607.1 362.26 607.14 362.29 607.18 362.32 607.22 362.35 607.25 362.37 607.29 362.4 607.34 362.44 607.38 362.47 607.41 362.51 607.44 362.54 607.47 362.59 607.5 362.64 607.53 362.7 607.54 362.71 607.57 362.71 607.61 362.69 607.64 362.68 607.68 362.66 607.73 362.63 607.78 362.61 607.83 362.6 607.85 362.6 607.88 362.61 607.93 362.62 607.95 362.62 607.97 362.62 608 362.61 608.03 362.6 608.07 362.58 608.13 362.56 608.19 362.53 608.24 362.52 608.28 362.52 608.34 362.54 608.35 362.54 608.39 362.55 608.43 362.54 608.45 362.54 608.47 362.53 608.48 362.53 608.52 362.52 608.57 362.5 608.61 362.49 608.66 362.47 608.71 362.46 608.74 362.45 608.75 362.45 608.77 362.45 608.78 362.46 608.81 362.47 608.84 362.48 608.87 362.49 608.91 362.51 608.99 362.54 609.07 362.58 609.14 362.61 609.2 362.63 609.25 362.65 609.31 362.67 609.35 362.69 609.37 362.7 609.37 362.7 609.4 362.72 609.42 362.72 609.44 362.73 609.46 362.74 609.48 362.76 609.51 362.78 609.54 362.8 609.56 362.82 609.58 362.83 609.61 362.84 609.63 362.85 609.66 362.86 609.68 362.87 609.7 362.88 609.72 362.88 609.76 362.89 609.78 362.89 609.81 362.91 609.83 362.91 609.85 362.92 609.86 362.94 609.91 362.96 609.94 362.97 609.96 362.97 609.98 362.98 610 362.97 610.03 362.98 610.05 362.98 610.07 362.99 610.1 363 610.12 363.01 610.17 363.04 610.23 363.07 610.31 363.11 610.39 363.15 610.46 363.19 610.5 363.22 610.53 363.24 610.55 363.26 610.57 363.28 610.59 363.3 610.6 363.33 610.61 363.35 610.61 363.4 610.62 363.46 610.62 363.52 610.63 363.59 610.63 363.65 610.62 363.68 610.61 363.74 610.61 363.81 610.61 363.83 610.6 363.87 610.61 363.91 610.61 363.95 610.62 363.99 610.64 364.03 610.66 364.07 610.69 364.11 610.69 364.11 610.72 364.15 610.78 364.2 610.84 364.26 610.9 364.31 610.96 364.37 611.03 364.44 611.08 364.49 611.15 364.55 611.22 364.62 611.29 364.68 611.35 364.72 611.41 364.76 611.46 364.79 611.5 364.82 611.53 364.83 611.56 364.85 611.59 364.86 611.63 364.89 611.69 364.94 611.74 364.99 611.78 365.03 611.81 365.06 611.83 365.09 611.86 365.15 611.91 365.21 611.96 365.27 611.99 365.31 612.02 365.35 612.06 365.38 612.09 365.42 612.11 365.44 612.14 365.45 612.16 365.48 612.19 365.5 612.22 365.52 612.24 365.54 612.26 365.57 612.28 365.6 612.28 365.63 612.27 365.65 612.27 365.66 612.27 365.68 612.25 365.78 612.24 365.83 612.24 365.84 612.23 365.9 612.22 365.93 612.21 366 612.2 366.06 612.19 366.12 612.19 366.17 612.18 366.21 612.18 366.25 612.17 366.3 612.16 366.33 612.15 366.35 612.13 366.43 612.1 366.5 612.08 366.58 612.07 366.62 612.06 366.65 612.06 366.68 612.05 366.71 612.04 366.75 612.02 366.8 611.99 366.92 611.97 366.99 611.95 367.04 611.94 367.09 611.92 367.13 611.91 367.17 611.89 367.24 611.88 367.26 611.86 367.3 611.84 367.36 611.82 367.39 611.78 367.47 611.76 367.51 611.75 367.53 611.73 367.57 611.7 367.61 611.66 367.66 611.64 367.7 611.62 367.72 611.61 367.75 611.6 367.77 611.58 367.8 611.56 367.82 611.53 367.86 611.51 367.89 611.5 367.9 611.48 367.93 611.46 367.95 611.44 367.98 611.41 368.01 611.4 368.02 611.4 368.03 611.39 368.04 611.39 368.05 611.38 368.06 611.38 368.08 611.38 368.09 611.38 368.11 611.38 368.13 611.39 368.16 611.4 368.19 611.41 368.21 611.42 368.25 611.44 368.3 611.46 368.35 611.48 368.39 611.5 368.44 611.52 368.5 611.54 368.54 611.57 368.59 611.58 368.62 611.6 368.66 611.68 368.86 611.68 368.86 611.69 368.89 611.72 368.99 611.72 369.01 611.73 369.04 611.74 369.08 611.74 369.1 611.75 369.14 611.76 369.18 611.78 369.25 611.81 369.35 611.81 369.36 611.83 369.39 611.84 369.41 611.84 369.43 611.85 369.46 611.88 369.55 611.89 369.57 611.9 369.58 611.95 369.7 611.95 369.71 611.96 369.73 611.98 369.76 611.99 369.81 612 369.84 612.01 369.91 612.01 369.99 612.01 370.01 612.01 370.03 612.01 370.03 612.01 370.09 612.02 370.11 612.02 370.13 612.02 370.18 612.02 370.21 612.02 370.24 612.02 370.26 612.02 370.3 612.02 370.33 612.02 370.35 612.01 370.38 612 370.45 612 370.47 612 370.48 612 370.48 611.98 370.63 611.97 370.66 611.97 370.68 611.97 370.72 611.99 370.77 611.99 370.82 612 370.84 612.01 370.87 612.01 370.9 612.01 370.95 612.02 370.99 612.02 371.03 612.02 371.04 612.02 371.05 612.02 371.07 612.02 371.14 612.02 371.23 612.02 371.31 612.02 371.38 612.02 371.41 612.01 371.45 612.01 371.49 612.01 371.54 612.01 371.59 612.01 371.61 612.01 371.68 612.01 371.69 612.01 371.71 612.02 371.74 612.02 371.81 612 371.87 612 371.91 612 372 612.02 372.01 612.22 372.09 612.37 372.14 612.51 372.2 612.65 372.24 612.8 372.29 612.83 372.3 612.83 372.37 612.82 372.44 612.82 372.5 612.81 372.58 612.81 372.65 612.8 372.72 612.79 372.78 612.79 372.85 612.79 372.9 612.78 372.96 612.78 373.01 612.77 373.06 612.75 373.12 612.74 373.17 612.73 373.22 612.72 373.26 612.71 373.32 612.69 373.38 612.68 373.43 612.68 373.48 612.67 373.53 612.66 373.55 612.66 373.55 612.63 373.67 612.63 373.69 612.62 373.71 612.61 373.75 612.6 373.78 612.58 373.81 612.57 373.87 612.56 373.89 612.55 373.92 612.53 373.99 612.39 374.33 612.39 374.34 612.38 374.34 612.38 374.35 612.37 374.38 612.37 374.4 612.36 374.45 612.36 374.49 612.36 374.53 612.36 374.57 612.36 374.61 612.36 374.63 612.36 374.7 612.36 374.74 612.36 374.78 612.37 374.83 612.37 374.88 612.37 374.89 612.37 374.92 612.38 374.93 612.38 374.94 612.38 374.97 612.39 375 612.4 375.05 612.42 375.1 612.42 375.11 612.43 375.14 612.43 375.16 612.45 375.2 612.46 375.26 612.48 375.31 612.49 375.33 612.49 375.34 612.5 375.35 612.53 375.39 612.54 375.41 612.55 375.43 612.56 375.45 612.57 375.47 612.57 375.48 612.57 375.52 612.57 375.55 612.57 375.57 612.57 375.59 612.57 375.63 612.58 375.66 612.58 375.69 612.58 375.71 612.59 375.73 612.6 375.78 612.61 375.81 612.61 375.84 612.61 375.87 612.61 375.9 612.62 375.92 612.62 375.93 612.61 375.95 612.61 375.99 612.6 376.04 612.6 376.06 612.59 376.08 612.59 376.09 612.6 376.1 612.6 376.12 612.61 376.15 612.62 376.18 612.65 376.26 612.65 376.28 612.66 376.31 612.67 376.34 612.68 376.38 612.68 376.43 612.69 376.47 612.69 376.5 612.69 376.56 612.69 376.57 612.68 376.61 612.68 376.62 612.68 376.65 612.74 376.74 612.78 376.78 612.83 376.83 612.85 376.86 612.88 376.89 612.91 376.93 612.98 376.97 613 376.98 613.03 376.99 613.09 377 613.2 377.04 613.28 377.06 613.36 377.09 613.46 377.11 613.56 377.14 613.64 377.16 613.67 377.17 613.74 377.18 613.78 377.18 613.84 377.19 613.91 377.2 613.96 377.2 613.97 377.2 613.96 377.27 613.94 377.36 613.91 377.45 613.89 377.54 613.88 377.55 613.87 377.58 613.86 377.64 613.85 377.65 613.85 377.66 613.84 377.7 613.83 377.75 613.82 377.78 613.81 377.81 613.81 377.82 613.81 377.85 613.8 377.87 613.8 377.89 613.73 378.1 613.72 378.11 613.7 378.13 613.67 378.19 613.65 378.27 613.62 378.33 613.6 378.4 613.59 378.44 613.58 378.47 613.58 378.48 613.57 378.49 613.57 378.5 613.57 378.52 613.43 378.94 613.42 378.97 613.39 379.03 613.39 379.04 613.38 379.05 613.38 379.06 613.37 379.07 613.34 379.12 613.31 379.18 613.3 379.19 613.29 379.2 613.2 379.35 613.19 379.36 613.07 379.54 613.06 379.57 613.05 379.59 612.96 379.63 612.93 379.65 612.91 379.67 612.87 379.69 612.83 379.72 612.81 379.72 612.8 379.73 612.78 379.73 612.75 379.74 612.72 379.74 612.67 379.74 612.66 379.74 612.54 379.77 612.5 379.78 612.45 379.79 612.42 379.81 612.39 379.82 612.35 379.84 612.31 379.86 612.27 379.88 612.21 379.91 612.2 379.92 612.14 380.26 612.12 380.29 612.12 380.31 612.09 380.46 612.08 380.48 612.08 380.49 612.08 380.5 612.14 380.52 612.24 380.56 612.32 380.59 612.43 380.63 612.47 380.64 612.67 380.71 612.73 380.74 612.79 380.76 612.84 380.78 612.86 380.78 612.95 380.82 613.01 380.84 613.05 380.85 613.13 380.88 613.16 380.9 613.16 380.88 613.21 380.9 613.29 380.92 613.34 380.93 613.39 380.94 613.42 380.94 613.45 380.95 613.57 380.98 613.73 381.03 613.88 381.08 613.98 381.12 614.07 381.16 614.13 381.18 614.21 381.2 614.31 381.23 614.44 381.27 614.52 381.3 614.59 381.32 614.64 381.34 614.68 381.35 614.76 381.38 614.81 381.4 614.82 381.41 614.96 381.49 614.98 381.5 614.98 381.51 615.02 381.56 615.15 381.75 615.27 381.93 615.33 382.02 615.37 382.08 615.4 382.11 615.55 382.34 615.61 382.42 615.63 382.46 615.64 382.49 615.66 382.52 615.68 382.67 615.68 382.68 615.68 382.7 615.68 382.72 615.69 382.89 615.69 382.89 615.72 382.91 615.8 382.95 615.83 382.96 615.86 382.97 615.89 383 615.91 383.02 616.13 383.36 616.13 383.38 616.13 383.39 616.12 383.56 616.12 383.63 616.15 383.67 616.17 383.7 616.24 383.81 616.26 383.84 616.28 383.86 616.32 383.9 616.34 383.91 616.36 383.93 616.4 383.94 616.42 383.95 616.44 383.96 616.51 383.99 616.58 384.01 616.62 384.03 616.67 384.04 616.74 384.07 616.92 384.13 617.15 384.2 617.21 384.23 617.29 384.26 617.41 384.29 617.47 384.3 617.62 384.35 617.74 384.39 617.8 384.41 617.81 384.41 617.82 384.41 617.85 384.42 617.9 384.44 617.97 384.46 618 384.48 618.04 384.51 618.1 384.54 618.14 384.57 618.14 384.62 618.13 384.66 618.12 384.72 618.12 384.76 618.12 384.78 618.11 384.83 618.1 384.89 618.08 384.93 618.06 384.98 618.04 385.04 618.03 385.09 617.98 385.27 617.96 385.31 617.93 385.4 617.91 385.47 617.89 385.52 617.88 385.56 617.88 385.59 617.88 385.6 617.9 385.64 617.89 385.65 617.83 385.67 617.76 385.69 617.7 385.7 617.63 385.71 617.57 385.71 617.54 385.72 617.49 385.73 617.47 385.74 617.4 385.75 617.32 385.76 617.27 385.77 617.21 385.79 617.18 385.81 617.15 385.84 617.12 385.87 617.09 385.89 617.06 385.91 617.03 385.92 616.99 385.94 616.95 385.96 616.9 385.99 616.86 386.02 616.82 386.05 616.78 386.08 616.76 386.09 616.71 386.1 616.69 386.11 616.69 386.11 616.64 386.13 616.61 386.15 616.58 386.17 616.55 386.2 616.52 386.22 616.49 386.25 616.47 386.28 616.5 386.3 616.53 386.34 616.55 386.37 616.55 386.39 616.54 386.41 616.54 386.43 616.55 386.46 616.56 386.49 616.55 386.53 616.53 386.55 616.51 386.58 616.48 386.6 616.45 386.61 616.43 386.62 616.42 386.63 616.39 386.65 616.37 386.69 616.35 386.73 616.35 386.74 616.35 386.79 616.35 386.84 616.35 386.88 616.34 386.91 616.34 386.95 616.29 387.03 616.27 387.09 616.25 387.15 616.23 387.21 616.22 387.22 616.23 387.24 616.23 387.25 616.21 387.3 616.19 387.35 616.17 387.41 616.16 387.45 616.16 387.47 616.16 387.51 616.18 387.53 616.2 387.56 616.21 387.59 616.21 387.63 616.21 387.66 616.21 387.69 616.22 387.72 616.23 387.74 616.26 387.77 616.27 387.79 616.28 387.81 616.28 387.83 616.28 387.85 616.26 387.86 616.25 387.89 616.23 387.9 616.2 387.9 616.16 387.89 616.11 387.9 616.06 387.9 616.04 387.9 616.01 387.9 615.98 387.9 615.95 387.89 615.92 387.87 615.87 387.85 615.85 387.83 615.83 387.81 615.79 387.81 615.73 387.87 615.72 387.91 615.67 387.94 615.63 387.97 615.62 387.98 615.6 388 615.57 388.04 615.55 388.07 615.51 388.12 615.47 388.18 615.41 388.23 615.38 388.27 615.35 388.3 615.34 388.31 615.31 388.36 615.29 388.41 615.26 388.44 615.23 388.48 615.21 388.52 615.19 388.58 615.16 388.65 615.13 388.73 615.11 388.76 615.1 388.78 615.06 388.83 615.04 388.87 615.03 388.88 615.03 388.88 615.04 388.89 615.06 388.93 615.1 388.97 615.13 389.02 615.15 389.07 615.16 389.13 615.17 389.2 615.17 389.26 615.14 389.31 615.12 389.36 615.1 389.39 615.1 389.41 615.11 389.46 615.12 389.49 615.11 389.53 615.09 389.58 615.06 389.62 615.06 389.63 615.04 389.7 615.03 389.77 615.04 389.82 615.05 389.85 615.05 389.89 615.04 389.94 615.03 389.97 615.02 389.99 614.99 390.03 614.96 390.08 614.94 390.15 614.92 390.21 614.92 390.26 614.92 390.32 614.91 390.35 614.9 390.38 614.87 390.4 614.83 390.42 614.79 390.43 614.76 390.44 614.74 390.47 614.73 390.52 614.71 390.58 614.68 390.62 614.64 390.66 614.62 390.7 614.6 390.75 614.6 390.79 614.59 390.83 614.56 390.87 614.52 390.9 614.48 390.92 614.45 390.93 614.4 390.95 614.42 391.02 614.44 391.08 614.45 391.08 614.45 391.1 614.47 391.16 614.49 391.22 614.51 391.27 614.54 391.33 614.56 391.38 614.58 391.41 614.59 391.43 614.65 391.56 614.66 391.58 614.67 391.6 614.7 391.67 614.71 391.71 614.71 391.73 614.72 391.74 614.72 391.8 614.73 391.88 614.73 391.91 614.74 391.96 614.74 392.01 614.75 392.08 614.76 392.14 614.76 392.2 614.76 392.26 614.76 392.27 614.77 392.3 614.77 392.35 614.77 392.4 614.77 392.46 614.77 392.48 614.76 392.53 614.75 392.57 614.74 392.6 614.73 392.63 614.73 392.66 614.75 392.71 614.76 392.78 614.78 392.83 614.79 392.88 614.81 392.94 614.82 392.95 614.83 392.98 614.84 393 614.85 393.04 614.87 393.09 614.88 393.16 614.88 393.2 614.89 393.25 614.9 393.28 614.91 393.33 614.93 393.38 614.94 393.42 614.95 393.44 614.97 393.48 614.98 393.51 615.01 393.6 613.37 394.83 613.2 394.96 613.06 395.09 612.91 395.23 612.74 395.37 612.57 395.51 612.38 395.65 612.18 395.77 612 395.86 611.9 395.9 611.77 395.94 611.66 395.95 611.58 395.96 611.46 395.95 611.35 395.93 611.22 395.89 611.07 395.81 610.91 395.72 610.69 395.62 610.51 395.51 610.34 395.37 610.17 395.22 610.06 395.11 610.09 394.98 610.1 394.97 610.13 394.84 610.16 394.73 610.17 394.71 610.22 394.5 610.23 394.48 610.25 394.4 610.25 394.39 610.32 394.14 610.33 394.13 610.45 393.69 610.45 393.68 610.47 393.59 610.51 393.45 610.56 393.27 610.57 393.25 610.58 393.21 610.58 393.19 610.62 393.07 610.62 393.05 610.68 392.84 610.69 392.83 610.76 392.55 610.77 392.52 610.78 392.49 610.78 392.48 610.79 392.46 610.82 392.46 610.85 392.46 610.89 392.45 610.92 392.44 610.93 392.44 610.96 392.42 610.97 392.4 610.98 392.39 610.98 392.38 610.98 392.36 610.96 392.34 610.93 392.33 610.9 392.31 610.85 392.3 610.83 392.29 610.8 392.29 610.77 392.29 610.76 392.28 610.75 392.28 610.73 392.25 610.67 392.2 610.62 392.16 610.6 392.14 610.56 392.09 610.47 391.99 610.42 391.94 610.35 391.87 610.28 391.79 610.24 391.75 610.23 391.74 610.22 391.72 610.21 391.71 610.19 391.67 610.16 391.6 610.12 391.55 610.09 391.5 610.03 391.44 610.02 391.43 609.96 391.38 609.9 391.33 609.86 391.29 609.82 391.24 609.8 391.22 609.76 391.18 609.71 391.12 609.67 391.06 609.62 390.99 609.58 390.94 609.52 390.85 609.48 390.79 609.45 390.76 609.42 390.73 609.35 390.66 609.3 390.62 609.26 390.59 609.23 390.55 609.18 390.52 609.17 390.52 609.11 390.46 609.09 390.44 609.07 390.41 609.06 390.41 609.04 390.38 609.02 390.34 609 390.32 608.96 390.27 608.94 390.23 608.93 390.19 608.91 390.15 608.9 390.15 608.86 390.12 608.84 390.1 608.82 390.09 608.81 390.07 608.75 390.02 608.74 390.01 608.65 389.93 608.6 389.88 608.57 389.85 608.57 389.84 608.53 389.81 608.45 389.74 608.38 389.69 608.28 389.63 608.18 389.57 608.15 389.55 608.1 389.52 608.03 389.49 607.95 389.45 607.93 389.44 607.91 389.43 607.86 389.39 607.83 389.35 607.8 389.32 607.79 389.3 607.75 389.29 607.73 389.27 607.71 389.27 607.68 389.26 607.66 389.26 607.61 389.25 607.58 389.24 607.56 389.23 607.53 389.22 607.5 389.21 607.45 389.18 607.4 389.15 607.37 389.13 607.35 389.11 607.34 389.1 607.32 389.09 607.28 389.06 607.23 389.02 607.2 389 607.19 389 607.15 388.98 607.08 388.95 607.02 388.93 606.96 388.91 606.91 388.89 606.88 388.88 606.84 388.88 606.8 388.87 606.78 388.87 606.76 388.87 606.72 388.86 606.67 388.85 606.62 388.84 606.58 388.82 606.54 388.81 606.49 388.8 606.45 388.79 606.42 388.78 606.31 388.76 606.26 388.76 606.22 388.75 606.19 388.75 606.16 388.75 606.14 388.74 606.07 388.74 606.04 388.74 606.03 388.74 606.02 388.74 605.99 388.73 605.93 388.71 605.75 388.68 605.68 388.66 605.65 388.66 605.58 388.65 605.47 388.64 605.47 388.64 605.39 388.63 605.18 388.62 605.09 388.61 604.88 388.6 604.74 388.59 604.64 388.58 604.54 388.56 604.52 388.56 604.5 388.56 604.44 388.57 604.38 388.57 604.31 388.57 604.26 388.57 604.21 388.57 604.16 388.57 604.12 388.57 604.05 388.57 603.97 388.58 603.89 388.58 603.83 388.58 603.8 388.58 603.78 388.58 603.74 388.61 603.73 388.62 603.7 388.63 603.67 388.65 603.66 388.65 603.64 388.66 603.6 388.68 603.54 388.7 603.49 388.72 603.45 388.73 603.43 388.73 603.4 388.74 603.36 388.75 603.34 388.75 603.32 388.75 603.28 388.76 603.21 388.78 603.16 388.79 603.15 388.79 603.11 388.8 603.04 388.82 602.89 388.85 602.72 388.88 602.57 388.92 602.55 388.92 602.54 388.92 602.51 388.91 602.5 388.9 602.46 388.89 602.45 388.88 602.4 388.86 602.35 388.84 602.31 388.82 602.29 388.81 602.28 388.81 602.25 388.8 602.23 388.8 602.2 388.78 602.16 388.76 602.11 388.74 602.05 388.72 602 388.69 601.95 388.67 601.92 388.64 601.91 388.63 601.89 388.61 601.86 388.6 601.85 388.59 601.84 388.58 601.81 388.56 601.8 388.55 601.78 388.53 601.75 388.5 601.73 388.49 601.72 388.47 601.7 388.45 601.68 388.43 601.66 388.42 601.64 388.4 601.62 388.38 601.61 388.37 601.58 388.35 601.56 388.35 601.54 388.35 601.52 388.34 601.49 388.34 601.45 388.33 601.43 388.32 601.41 388.3 601.4 388.29 601.37 388.28 601.33 388.26 601.3 388.26 601.28 388.26 601.25 388.26 601.24 388.26 601.22 388.26 601.2 388.27 601.17 388.26 601.14 388.26 601.12 388.26 601.08 388.25 601.06 388.25 601.03 388.24 601.01 388.23 600.99 388.22 600.96 388.21 600.94 388.2 600.91 388.18 600.89 388.17 600.88 388.16 600.85 388.15 600.82 388.13 600.8 388.13 600.78 388.12 600.76 388.11 600.73 388.1 600.71 388.1 600.7 388.09 600.69 388.09 600.67 388.09 600.65 388.09 600.63 388.09 600.58 388.08 600.56 388.08 600.54 388.07 600.51 388.06 600.49 388.05 600.48 388.05 600.47 388.04 600.45 388.03 600.44 388.03 600.42 388.02 600.39 388 600.37 387.98 600.34 387.95 600.32 387.94 600.3 387.91 600.27 387.88 600.24 387.85 600.23 387.84 600.21 387.82 600.18 387.79 600.15 387.77 600.12 387.74 600.1 387.72 600.06 387.68 600.02 387.65 599.99 387.62 599.96 387.6 599.94 387.57 599.92 387.54 599.89 387.5 599.87 387.47 599.86 387.44 599.84 387.4 599.82 387.38 599.8 387.36 599.79 387.34 599.77 387.32 599.75 387.29 599.71 387.23 599.69 387.2 599.66 387.17 599.65 387.16 599.61 387.13 599.58 387.1 599.53 387.05 599.49 387.01 599.44 386.97 599.42 386.93 599.4 386.91 599.4 386.9 599.38 386.88 599.37 386.87 599.39 386.83 599.39 386.77 599.38 386.72 599.37 386.65 599.36 386.6 599.29 386.5 599.21 386.4 599.17 386.34 599.13 386.3 598.98 386.17 598.98 386.15 598.97 386.09 598.75 385.44 598.75 385.43 598.75 385.42 598.69 385.27 598.68 385.26 598.66 385.2 598.61 385.05 598.58 384.99 598.57 384.95 598.56 384.91 598.54 384.87 598.52 384.84 598.47 384.77 598.45 384.72 598.4 384.61 598.35 384.5 598.35 384.49 598.35 384.48 598.34 384.46 598.33 384.44 598.32 384.43 598.28 384.34 598.27 384.32 598.26 384.31 598.25 384.29 598.25 384.28 598.24 384.26 598.24 384.24 598.23 384.2 598.17 384.14 598.08 384.04 597.92 383.85 597.91 383.84 597.89 383.82 597.86 383.79 597.84 383.77 597.81 383.73 597.8 383.72 597.79 383.71 597.75 383.68 597.71 383.65 597.67 383.63 597.63 383.6 597.58 383.55 597.54 383.51 597.51 383.46 597.51 383.45 597.46 383.39 597.42 383.32 597.39 383.27 597.38 383.24 597.36 383.22 597.35 383.22 597.33 383.22 597.32 383.23 597.31 383.23 597.29 383.25 597.28 383.22 597.27 383.2 597.26 383.18 597.25 383.17 597.23 383.11 597.19 383.04 597.17 383 597.17 382.97 597.17 382.96 597.16 382.93 597.14 382.89 597.12 382.87 597.1 382.85 597.07 382.82 597.06 382.79 597.05 382.78 597.04 382.75 597.02 382.7 597 382.65 596.99 382.6 596.96 382.49 596.95 382.44 596.93 382.41 596.93 382.36 596.92 382.32 596.92 382.29 596.92 382.25 596.91 382.21 596.9 382.17 596.9 382.14 596.89 382.11 596.88 382.06 596.88 382.01 596.88 381.97 596.88 381.91 596.88 381.87 596.87 381.84 596.87 381.83 596.86 381.79 596.85 381.75 596.82 381.68 596.78 381.61 596.75 381.54 596.74 381.52 596.73 381.5 596.71 381.45 596.68 381.4 596.67 381.38 596.67 381.37 596.65 381.34 596.61 381.32 596.57 381.28 596.54 381.25 596.52 381.22 596.51 381.19 596.5 381.14 596.49 381.11 596.49 381.09 596.47 381.07 596.47 381.06 596.44 381.03 596.42 381 596.41 380.97 596.4 380.94 596.39 380.9 596.38 380.86 596.36 380.83 596.35 380.79 596.34 380.75 596.31 380.69 596.31 380.65 596.31 380.63 596.32 380.61 596.34 380.57 596.34 380.56 596.35 380.53 596.34 380.51 596.33 380.48 596.32 380.46 596.3 380.44 596.27 380.42 596.25 380.41 596.22 380.41 596.2 380.4 596.16 380.38 596.14 380.36 596.14 380.32 596.11 380.28 596.09 380.24 596.06 380.2 596.04 380.16 596.03 380.12 596.03 380.09 596.04 380.06 596.04 380.03 596.04 380 596.03 379.98 596.02 379.96 595.98 379.94 595.95 379.92 595.93 379.9 595.91 379.88 595.89 379.86 595.87 379.84 595.85 379.8 595.83 379.76 595.83 379.76 595.82 379.73 595.81 379.69 595.79 379.65 595.76 379.59 595.74 379.56 595.73 379.55 595.69 379.49 595.67 379.45 595.64 379.42 595.6 379.39 595.57 379.35 595.56 379.33 595.55 379.3 595.54 379.27 595.53 379.24 595.53 379.21 595.53 379.2 595.52 379.18 595.51 379.18 595.51 379.17 595.48 379.17 595.46 379.17 595.42 379.17 595.4 379.16 595.38 379.14 595.36 379.11 595.34 379.07 595.32 379.04 595.31 379.02 595.28 379.01 595.23 379 595.21 378.98 595.19 378.97 595.17 378.94 595.12 378.87 595.09 378.8 595.07 378.74 595.07 378.73 595.07 378.72 595.06 378.67 595.05 378.64 595.03 378.54 595.02 378.51 594.99 378.4 594.99 378.39 594.98 378.34 594.97 378.3 594.95 378.24 594.95 378.23 594.92 378.18 594.89 378.13 594.81 378 594.75 377.91 594.73 377.85 594.71 377.79 594.7 377.77 594.69 377.74 594.68 377.71 594.67 377.7 594.65 377.68 594.65 377.67 594.62 377.63 594.61 377.59 594.6 377.55 594.6 377.52 594.59 377.48 594.59 377.47 594.55 377.34 594.55 377.33 594.52 377.23 594.5 377.15 594.48 377.05 594.47 376.99 594.46 376.96 594.45 376.94 594.44 376.92 594.44 376.91 594.43 376.89 594.41 376.81 594.4 376.78 594.39 376.75 594.39 376.73 594.39 376.73 594.38 376.7 594.38 376.69 594.37 376.67 594.36 376.66 594.36 376.63 594.36 376.63 594.36 376.58 594.36 376.55 594.36 376.53 594.35 376.5 594.35 376.47 594.33 376.44 594.31 376.41 594.31 376.4 594.31 376.39 594.31 376.37 594.32 376.33 594.32 376.31 594.32 376.29 594.33 376.25 594.33 376.22 594.33 376.19 594.33 376.17 594.34 376.15 594.34 376.15 594.34 376.13 594.34 376.09 594.34 376.07 594.34 376.04 594.34 376.02 594.34 375.99 594.33 375.95 594.32 375.92 594.3 375.88 594.3 375.85 594.29 375.83 594.28 375.8 594.27 375.78 594.26 375.75 594.24 375.71 594.23 375.67 594.22 375.64 594.21 375.61 594.2 375.58 594.2 375.56 594.2 375.54 594.19 375.53 594.18 375.49 594.18 375.47 594.17 375.45 594.17 375.43 594.17 375.43 594.17 375.41 594.17 375.39 594.17 375.37 594.17 375.34 594.17 375.31 594.17 375.29 594.17 375.28 594.16 375.25 594.16 375.24 594.16 375.23 594.16 375.21 594.15 375.19 594.15 375.17 594.14 375.14 594.14 375.14 594.15 375.12 594.15 375.1 594.17 375.08 594.19 375.05 594.2 375.02 594.21 374.99 594.21 374.97 594.21 374.94 594.21 374.93 594.21 374.92 594.21 374.91 594.21 374.89 594.21 374.85 594.21 374.82 594.2 374.79 594.19 374.74 594.18 374.7 594.16 374.67 594.14 374.63 594.13 374.59 594.13 374.58 594.11 374.55 594.11 374.54 594.09 374.53 594.09 374.51 594.08 374.5 594.08 374.49 594.08 374.47 594.07 374.45 594.06 374.42 594.05 374.38 594.04 374.35 594.02 374.31 594.02 374.28 594.01 374.26 594.02 374.25 594.04 374.22 594.06 374.18 594.07 374.17 594.08 374.15 594.09 374.13 594.13 374.07 594.14 374.06 594.15 374.04 594.17 374.02 594.18 374 594.19 373.99 594.2 373.98 594.21 373.97 594.23 373.96 594.24 373.95 594.25 373.94 594.27 373.93 594.28 373.92 594.3 373.92 594.33 373.9 594.34 373.9 594.35 373.89 594.37 373.88 594.38 373.87 594.39 373.86 594.4 373.85 594.42 373.84 594.43 373.82 594.46 373.79 594.47 373.78 594.48 373.77 594.49 373.75 594.5 373.74 594.51 373.73 594.52 373.71 594.53 373.69 594.54 373.67 594.55 373.67 594.55 373.66 594.56 373.65 594.56 373.63 594.57 373.62 594.58 373.61 594.58 373.59 594.59 373.57 594.6 373.56 594.6 373.54 594.61 373.52 594.62 373.51 594.62 373.49 594.63 373.48 594.63 373.46 594.64 373.45 594.64 373.43 594.65 373.42 594.66 373.4 594.67 373.38 594.67 373.36 594.68 373.35 594.69 373.33 594.69 373.32 594.69 373.31 594.7 373.29 594.7 373.27 594.7 373.26 594.7 373.24 594.7 373.23 594.73 373.23 594.75 373.22 594.76 373.22 594.77 373.21 594.79 373.21 594.81 373.19 594.82 373.18 594.84 373.17 594.87 373.13 594.87 373.11 594.87 373.09 594.87 373.09 594.87 373.08 594.88 373.06 594.88 373.04 594.88 373.02 594.88 373.01 594.88 372.98 594.88 372.96 594.89 372.95 594.89 372.93 594.9 372.92 594.9 372.9 594.9 372.89 594.91 372.87 594.91 372.85 594.91 372.83 594.92 372.81 594.92 372.8 594.92 372.78 594.93 372.76 594.93 372.73 594.94 372.7 594.94 372.68 594.94 372.66 594.94 372.64 594.94 372.62 594.95 372.61 594.94 372.59 594.94 372.57 594.94 372.56 594.94 372.54 594.94 372.53 594.94 372.52 594.93 372.49 594.93 372.47 594.92 372.45 594.92 372.43 594.91 372.42 594.9 372.4 594.9 372.39 594.89 372.37 594.89 372.37 594.88 372.35 594.88 372.33 594.87 372.32 594.87 372.31 594.87 372.29 594.87 372.27 594.86 372.24 594.86 372.19 594.85 372.09 594.83 371.99 594.82 371.94 594.82 371.92 594.82 371.91 594.82 371.9 594.83 371.88 594.84 371.87 594.85 371.86 594.85 371.85 594.86 371.84 594.87 371.82 594.87 371.8 594.88 371.79 594.88 371.77 594.89 371.76 594.9 371.74 594.9 371.73 594.92 371.69 594.92 371.68 594.92 371.67 594.92 371.65 594.93 371.64 594.93 371.63 594.93 371.62 594.93 371.61 594.93 371.59 594.94 371.58 594.94 371.56 594.94 371.54 594.94 371.53 594.95 371.51 594.95 371.49 594.95 371.46 594.95 371.45 594.95 371.43 594.95 371.41 594.95 371.38 594.96 371.36 594.96 371.34 594.96 371.33 594.96 371.32 594.96 371.3 594.96 371.29 594.96 371.28 594.96 371.27 594.96 371.25 594.96 371.24 594.97 371.22 594.97 371.22 594.98 371.2 594.98 371.19 594.98 371.18 594.98 371.16 594.98 371.15 594.98 371.13 594.98 371.12 594.98 371.1 594.98 371.08 594.99 371.07 594.99 371.05 595 371.03 595.01 371.01 595.02 371 595.03 370.98 595.03 370.96 595.04 370.95 595.04 370.94 595.05 370.92 595.05 370.9 595.06 370.89 595.06 370.87 595.07 370.85 595.07 370.84 595.07 370.82 595.08 370.8 595.08 370.79 595.09 370.78 595.09 370.76 595.1 370.74 595.11 370.71 595.11 370.7 595.11 370.69 595.12 370.67 595.12 370.66 595.12 370.63 595.12 370.62 595.11 370.61 595.11 370.61 595.08 370.59 595.06 370.58 595.05 370.56 595.04 370.55 595.02 370.54 595.01 370.53 595 370.51 594.99 370.51 594.98 370.49 594.97 370.48 594.97 370.47 595 370.32 595.02 370.16 595.02 370.11 595 370.1 595 370.07 595 370.06 595 370.04 595 370.02 594.99 370.01 594.99 370 594.99 369.99 594.97 369.95 594.96 369.93 594.95 369.92 594.94 369.91 594.93 369.9 594.92 369.88 594.91 369.87 594.86 369.83 594.85 369.82 594.84 369.81 594.82 369.8 594.81 369.78 594.79 369.77 594.78 369.76 594.76 369.75 594.75 369.74 594.73 369.73 594.72 369.72 594.71 369.71 594.69 369.71 594.67 369.7 594.66 369.7 594.63 369.68 594.61 369.67 594.6 369.66 594.58 369.65 594.57 369.64 594.55 369.63 594.53 369.63 594.52 369.62 594.51 369.61 594.47 369.61 594.45 369.6 594.43 369.6 594.41 369.6 594.39 369.59 594.37 369.59 594.35 369.59 594.34 369.58 594.32 369.57 594.3 369.57 594.29 369.57 594.28 369.56 594.26 369.56 594.24 369.55 594.23 369.55 594.22 369.54 594.2 369.54 594.19 369.54 594.18 369.53 594.17 369.53 594.13 369.5 594.12 369.49 594.1 369.48 594.06 369.47 594.03 369.45 594.01 369.44 594 369.43 593.98 369.43 593.94 369.4 593.93 369.4 593.91 369.39 593.89 369.38 593.88 369.37 593.87 369.36 593.84 369.34 593.83 369.34 593.82 369.33 593.8 369.32 593.79 369.31 593.77 369.3 593.76 369.29 593.75 369.28 593.73 369.27 593.72 369.26 593.71 369.25 593.69 369.24 593.67 369.23 593.66 369.21 593.65 369.21 593.63 369.2 593.61 369.19 593.57 369.16 593.53 369.13 593.52 369.13 593.52 369.12 593.51 369.12 593.5 369.11 593.49 369.1 593.43 369.03 593.42 369.02 593.4 369 593.4 368.98 593.39 368.96 593.38 368.95 593.37 368.93 593.36 368.91 593.35 368.9 593.35 368.9 593.34 368.87 593.32 368.83 593.3 368.78 593.29 368.77 593.28 368.75 593.28 368.73 593.27 368.71 593.26 368.69 593.25 368.68 593.24 368.66 593.23 368.65 593.23 368.64 593.2 368.57 593.18 368.53 593.15 368.46 593.14 368.43 593.13 368.41 593.11 368.38 593.1 368.37 593.1 368.35 593.09 368.34 593.08 368.32 593.07 368.31 593.07 368.29 593.06 368.27 593.06 368.26 593.05 368.25 593.04 368.23 593.04 368.21 593.03 368.2 593.03 368.19 593.03 368.17 593.03 368.15 593.03 368.13 593.03 368.11 593.03 368.08 593.02 368.06 593.02 368.04 593.02 368.02 593.02 368.01 593.02 368 593.02 367.98 593.01 367.96 593 367.95 593 367.93 592.99 367.91 592.98 367.89 592.97 367.86 592.96 367.83 592.96 367.82 592.96 367.8 592.96 367.78 592.96 367.76 592.96 367.75 592.96 367.74 592.97 367.66 592.97 367.65 592.98 367.64 592.98 367.62 592.98 367.6 592.99 367.57 592.99 367.55 592.99 367.53 592.99 367.51 592.99 367.49 592.99 367.48 592.99 367.46 592.99 367.44 592.99 367.42 592.99 367.41 592.99 367.39 592.99 367.35 592.99 367.33 592.99 367.3 592.99 367.29 592.99 367.27 592.99 367.25 592.99 367.23 593 367.21 593 367.18 593 367.16 593.01 367.14 593.01 367.12 593.01 367.1 593.01 367.09 593.01 367.07 593.01 367.05 593.01 367.04 593.01 367.02 593.01 366.99 593 366.97 592.99 366.95 592.97 366.94 592.96 366.93 592.95 366.91 592.94 366.89 592.93 366.88 592.92 366.86 592.91 366.85 592.9 366.83 592.9 366.82 592.89 366.8 592.88 366.79 592.87 366.77 592.86 366.76 592.86 366.74 592.85 366.72 592.84 366.71 592.84 366.69 592.83 366.67 592.82 366.66 592.82 366.64 592.81 366.63 592.8 366.61 592.8 366.6 592.79 366.58 592.78 366.56 592.78 366.55 592.77 366.54 592.76 366.52 592.76 366.51 592.75 366.49 592.73 366.47 592.73 366.46 592.72 366.45 592.71 366.43 592.7 366.42 592.69 366.4 592.68 366.39 592.67 366.37 592.67 366.36 592.65 366.33 592.65 366.31 592.64 366.3 592.63 366.28 592.62 366.27 592.62 366.25 592.61 366.23 592.6 366.21 592.6 366.2 592.6 366.18 592.59 366.16 592.59 366.15 592.58 366.14 592.56 366.13 592.55 366.12 592.54 366.11 592.53 366.11 592.52 366.1 592.51 366.09 592.49 366.08 592.48 366.07 592.46 366.06 592.45 366.05 592.44 366.04 592.42 366.02 592.41 366.01 592.4 366 592.38 365.99 592.37 365.98 592.36 365.97 592.35 365.95 592.33 365.94 592.32 365.93 592.31 365.92 592.3 365.91 592.29 365.9 592.27 365.88 592.26 365.87 592.25 365.86 592.24 365.85 592.22 365.83 592.21 365.82 592.2 365.81 592.19 365.8 592.18 365.78 592.17 365.77 592.16 365.76 592.15 365.74 592.13 365.72 592.11 365.7 592.1 365.69 592.08 365.66 592.07 365.65 592.06 365.64 592.03 365.6 592.02 365.59 592.02 365.59 592.01 365.57 591.98 365.55 591.97 365.53 591.96 365.52 591.95 365.51 591.94 365.49 591.93 365.48 591.92 365.47 591.91 365.46 591.9 365.44 591.89 365.43 591.89 365.41 591.88 365.4 591.87 365.38 591.86 365.36 591.86 365.36 591.85 365.34 591.85 365.32 591.84 365.31 591.84 365.29 591.84 365.27 591.83 365.25 591.83 365.23 591.83 365.21 591.83 365.19 591.83 365.18 591.82 365.09 591.82 365.06 591.82 365.03 591.82 364.99 591.82 364.96 591.82 364.94 591.82 364.92 591.82 364.9 591.81 364.89 591.81 364.87 591.81 364.84 591.81 364.83 591.81 364.8 591.81 364.76 591.81 364.75 591.8 364.71 591.8 364.69 591.8 364.68 591.8 364.65 591.8 364.63 591.8 364.61 591.8 364.6 591.79 364.58 591.79 364.54 591.79 364.51 591.78 364.49 591.78 364.45 591.77 364.42 591.77 364.41 591.77 364.39 591.76 364.37 591.76 364.35 591.76 364.34 591.76 364.33 591.75 364.31 591.75 364.29 591.75 364.27 591.75 364.25 591.75 364.21 591.75 364.2 591.75 364.18 591.75 364.17 591.74 364.15 591.74 364.14 591.74 364.12 591.74 364.11 591.73 364.08 591.73 364.04 591.73 364.02 591.73 364.01 591.73 364 591.72 363.98 591.72 363.97 591.72 363.95 591.73 363.93 591.73 363.91 591.72 363.9 591.72 363.89 591.71 363.88 591.69 363.86 591.68 363.85 591.67 363.83 591.66 363.82 591.64 363.81 591.63 363.79 591.62 363.78 591.6 363.77 591.59 363.76 591.58 363.75 591.55 363.72 591.49 363.67 591.48 363.65 591.47 363.64 591.45 363.63 591.44 363.62 591.43 363.6 591.42 363.59 591.4 363.58 591.38 363.56 591.37 363.55 591.35 363.54 591.34 363.53 591.33 363.52 591.32 363.52 591.3 363.52 591.29 363.51 591.27 363.51 591.27 363.5 591.25 363.49 591.24 363.48 591.22 363.47 591.22 363.46 591.2 363.45 591.18 363.45 591.18 363.44 591.17 363.41 591.16 363.38 591.15 363.37 591.15 363.36 591.14 363.35 591.14 363.34 591.13 363.32 591.12 363.3 591.12 363.29 591.11 363.27 591.11 363.26 591.1 363.24 591.09 363.23 591.09 363.22 591.08 363.2 591.07 363.19 591.06 363.17 591.05 363.16 591.04 363.14 591.04 363.13 591.03 363.11 591.02 363.1 591.01 363.09 591 363.07 590.99 363.06 590.98 363.04 590.97 363.02 590.96 363.01 590.96 362.99 590.95 362.98 590.95 362.97 590.94 362.95 590.93 362.94 590.92 362.92 590.91 362.91 590.9 362.89 590.89 362.88 590.88 362.86 590.87 362.85 590.87 362.83 590.86 362.82 590.86 362.8 590.85 362.79 590.84 362.77 590.84 362.76 590.83 362.74 590.82 362.73 590.81 362.71 590.81 362.7 590.8 362.69 590.79 362.67 590.78 362.65 590.77 362.64 590.76 362.62 590.75 362.6 590.74 362.59 590.74 362.57 590.73 362.56 590.72 362.55 590.71 362.53 590.7 362.52 590.69 362.5 590.68 362.5 590.67 362.48 590.66 362.47 590.65 362.45 590.65 362.45 590.64 362.43 590.63 362.42 590.61 362.4 590.6 362.39 590.59 362.37 590.58 362.35 590.57 362.34 590.56 362.32 590.55 362.31 590.54 362.3 590.53 362.28 590.52 362.26 590.51 362.25 590.5 362.24 590.49 362.23 590.48 362.21 590.48 362.2 590.47 362.19 590.47 362.18 590.46 362.16 590.45 362.14 590.45 362.12 590.45 362.1 590.44 362.09 590.44 362.08 590.43 362.06 590.42 362.04 590.42 362.03 590.42 362.01 590.41 361.99 590.41 361.98 590.4 361.96 590.4 361.95 590.39 361.93 590.37 361.92 590.37 361.92 590.36 361.9 590.34 361.89 590.33 361.87 590.32 361.86 590.31 361.85 590.3 361.84 590.28 361.83 590.27 361.81 590.26 361.8 590.25 361.79 590.24 361.78 590.23 361.77 590.22 361.75 590.21 361.74 590.21 361.73 590.2 361.72 590.19 361.7 590.18 361.68 590.17 361.67 590.16 361.65 590.15 361.64 590.14 361.63 590.14 361.61 590.13 361.6 590.12 361.59 590.11 361.58 590.1 361.57 590.09 361.56 590.08 361.54 590.07 361.53 590.06 361.52 590.05 361.5 590.05 361.49 590.04 361.46 590.04 361.45 590.04 361.43 590.04 361.42 590.04 361.4 590.04 361.39 590.04 361.37 590.04 361.34 590.04 361.33 590.04 361.31 590.04 361.3 590.04 361.27 590.05 361.26 590.05 361.24 590.05 361.22 590.06 361.21 590.06 361.19 590.06 361.18 590.06 361.16 590.06 361.15 590.06 361.14 590.06 361.12 590.06 361.1 590.06 361.09 590.05 361.07 590.05 361.05 590.05 361.04 590.04 361.03 590.04 361.01 590.04 360.99 590.04 360.97 590.04 360.96 590.03 360.94 590.03 360.93 590.03 360.89 590.02 360.87 590.02 360.85 590.01 360.84 590.01 360.82 590.01 360.81 590.01 360.79 590 360.76 590 360.75 590 360.71 590 360.69 590 360.68 589.99 360.66 589.99 360.62 589.99 360.61 589.99 360.59 589.99 360.58 589.99 360.56 589.98 360.55 589.98 360.53 589.98 360.51 589.98 360.5 589.97 360.45 589.97 360.43 589.96 360.41 589.95 360.4 589.94 360.38 589.93 360.37 589.93 360.35 589.92 360.34 589.91 360.33 589.9 360.31 589.89 360.3 589.88 360.28 589.87 360.27 589.87 360.26 589.86 360.24 589.86 360.22 589.85 360.2 589.84 360.19 589.84 360.17 589.83 360.16 589.82 360.14 589.82 360.12 589.8 360.09 589.8 360.07 589.79 360.06 589.78 360.05 589.78 360.03 589.77 360.02 589.76 360 589.75 359.98 589.74 359.97 589.74 359.95 589.73 359.94 589.71 359.91 589.7 359.9 589.69 359.88 589.68 359.87 589.68 359.86 589.67 359.85 589.67 359.83 589.67 359.82 589.66 359.8 589.65 359.77 589.65 359.76 589.64 359.74 589.64 359.73 589.63 359.71 589.62 359.7 589.61 359.69 589.6 359.67 589.59 359.66 589.58 359.64 589.57 359.63 589.55 359.6 589.53 359.57 589.5 359.53 589.5 359.52 589.49 359.5 589.48 359.5 589.47 359.48 589.46 359.47 589.45 359.45 589.44 359.44 589.43 359.43 589.42 359.41 589.41 359.4 589.4 359.38 589.39 359.37 589.38 359.35 589.36 359.32 589.35 359.3 589.34 359.29 589.33 359.27 589.32 359.26 589.31 359.24 589.3 359.23 589.29 359.21 589.28 359.2 589.27 359.18 589.26 359.17 589.25 359.16 589.24 359.15 589.23 359.13 589.21 359.1 589.2 359.09 589.2 359.08 589.19 359.06 589.16 359.03 589.16 359.02 589.14 359.01 589.13 358.99 589.13 358.98 589.11 358.95 589.1 358.94 589.08 358.91 589.07 358.89 589.04 358.87 589.04 358.86 589.03 358.84 589.02 358.83 589 358.8 588.99 358.79 588.98 358.77 588.97 358.75 588.96 358.74 588.95 358.72 588.94 358.71 588.93 358.69 588.92 358.68 588.9 358.67 588.89 358.66 588.88 358.65 588.87 358.64 588.86 358.62 588.86 358.62 588.85 358.6 588.83 358.59 588.82 358.58 588.8 358.57 588.79 358.56 588.77 358.55 588.76 358.54 588.75 358.53 588.74 358.52 588.72 358.51 588.71 358.5 588.69 358.49 588.68 358.48 588.67 358.47 588.66 358.45 588.61 358.42 588.56 358.38 588.55 358.37 588.54 358.36 588.52 358.35 588.51 358.35 588.49 358.34 588.48 358.33 588.46 358.32 588.44 358.31 588.4 358.28 588.39 358.27 588.37 358.26 588.36 358.25 588.34 358.24 588.33 358.23 588.31 358.22 588.3 358.21 588.29 358.2 588.27 358.19 588.26 358.18 588.24 358.17 588.23 358.16 588.19 358.14 588.17 358.12 588.1 358.06 588.04 358.01 588.01 357.99 588 357.98 587.99 357.97 587.98 357.96 587.96 357.95 587.95 357.93 587.93 357.91 587.91 357.89 587.9 357.88 587.89 357.87 587.88 357.86 587.86 357.85 587.84 357.83 587.83 357.82 587.81 357.8 587.79 357.79 587.77 357.78 587.76 357.78 587.74 357.76 587.73 357.76 587.71 357.74 587.71 357.74 587.69 357.72 587.68 357.71 587.68 357.7 587.66 357.68 587.65 357.66 587.64 357.65 587.63 357.64 587.62 357.63 587.61 357.62 587.59 357.6 587.57 357.59 587.53 357.53 587.52 357.52 587.51 357.5 587.49 357.47 587.48 357.46 587.47 357.44 587.47 357.43 587.46 357.42 587.45 357.41 587.44 357.4 587.43 357.38 587.43 357.37 587.41 357.35 587.41 357.34 587.4 357.33 587.39 357.31 587.38 357.29 587.37 357.28 587.36 357.27 587.35 357.25 587.34 357.24 587.33 357.22 587.32 357.2 587.31 357.18 587.29 357.14 587.29 357.13 587.28 357.12 587.28 357.1 587.27 357.09 587.26 357.08 587.25 357.07 587.24 357.05 587.23 357.04 587.22 357.03 587.21 357.02 587.2 357.01 587.19 357 587.18 356.99 587.18 356.99 587.16 356.98 587.16 356.97 587.14 356.96 587.13 356.95 587.1 356.94 587.07 356.91 587.05 356.9 587.04 356.89 587.03 356.89 587.02 356.88 587.01 356.88 587 356.87 586.97 356.85 586.96 356.85 586.92 356.82 586.88 356.8 586.88 356.8 586.87 356.79 586.85 356.78 586.84 356.77 586.82 356.77 586.81 356.76 586.79 356.75 586.77 356.75 586.73 356.73 586.68 356.71 586.67 356.7 586.64 356.68 586.59 356.66 586.55 356.64 586.54 356.63 586.52 356.62 586.51 356.61 586.49 356.6 586.48 356.6 586.47 356.59 586.45 356.58 586.45 356.57 586.42 356.56 586.38 356.54 586.36 356.54 586.35 356.54 586.33 356.54 586.31 356.53 586.3 356.53 586.28 356.52 586.26 356.51 586.22 356.5 586.21 356.49 586.19 356.48 586.18 356.47 586.17 356.47 586.16 356.46 586.15 356.45 586.13 356.44 586.12 356.43 586.09 356.41 586.08 356.4 586.05 356.38 586.04 356.36 586.03 356.35 586 356.32 585.99 356.31 585.97 356.29 585.93 356.25 585.92 356.24 585.91 356.23 585.89 356.2 585.88 356.2 585.88 356.19 585.87 356.18 585.87 356.17 585.85 356.15 585.83 356.11 585.82 356.09 585.81 356.08 585.81 356.07 585.79 356.06 585.77 356.05 585.75 356.04 585.74 356.03 585.72 356.02 585.71 356.01 585.7 355.99 585.7 355.97 585.68 355.96 585.67 355.95 585.65 355.94 585.64 355.94 585.62 355.93 585.61 355.92 585.59 355.91 585.57 355.9 585.56 355.9 585.54 355.89 585.53 355.88 585.51 355.88 585.49 355.87 585.49 355.86 585.47 355.86 585.46 355.86 585.44 355.85 585.44 355.84 585.42 355.83 585.41 355.82 585.4 355.81 585.39 355.8 585.37 355.79 585.36 355.78 585.35 355.78 585.33 355.77 585.32 355.76 585.3 355.75 585.29 355.74 585.27 355.73 585.26 355.72 585.25 355.71 585.23 355.7 585.22 355.69 585.2 355.67 585.19 355.66 585.18 355.65 585.17 355.64 585.15 355.62 585.14 355.61 585.13 355.6 585.12 355.59 585.11 355.58 585.1 355.57 585.08 355.56 585.07 355.55 585.06 355.54 585.03 355.52 585.02 355.51 585.01 355.5 584.99 355.49 584.97 355.48 584.96 355.47 584.94 355.46 584.93 355.46 584.91 355.44 584.89 355.43 584.88 355.43 584.86 355.42 584.85 355.4 584.83 355.4 584.82 355.39 584.8 355.38 584.77 355.36 584.76 355.36 584.74 355.34 584.73 355.33 584.72 355.33 584.71 355.32 584.69 355.3 584.67 355.29 584.66 355.28 584.64 355.27 584.63 355.26 584.62 355.26 584.61 355.25 584.6 355.25 584.57 355.23 584.57 355.22 Z"/>
</g></svg>