<svg xmlns="http://www.w3.org/2000/svg" version="1.2" baseProfile="tiny" stroke-linecap="round" stroke-linejoin="round" viewBox="278.28 372.33 27.03 46.87"><g xmlns="http://www.w3.org/2000/svg" id="Oion">
<path d="M 292.46 378.7 292.48 378.69 292.48 378.68 292.52 378.66 292.56 378.64 292.6 378.61 292.65 378.57 292.69 378.53 292.71 378.51 292.73 378.47 292.79 378.41 292.8 378.39 292.81 378.37 292.84 378.33 292.87 378.29 292.89 378.26 292.93 378.24 292.97 378.2 293 378.17 293.02 378.14 293.03 378.11 293.04 378.09 293.04 378.07 293.04 378.03 293.04 377.99 293.04 377.95 293.05 377.91 293.05 377.9 293.06 377.88 293.07 377.81 293.08 377.78 293.08 377.72 293.08 377.67 293.08 377.63 293.09 377.59 293.11 377.5 293.12 377.45 293.14 377.42 293.15 377.39 293.18 377.32 293.22 377.26 293.22 377.24 293.22 377.21 293.23 377.18 293.24 377.13 293.26 377.05 293.27 376.99 293.28 376.94 293.29 376.91 293.32 376.84 293.34 376.79 293.35 376.75 293.37 376.7 293.39 376.65 293.41 376.62 293.44 376.59 293.46 376.57 293.49 376.51 293.52 376.45 293.53 376.43 293.55 376.39 293.58 376.32 293.59 376.29 293.61 376.27 293.66 376.22 293.72 376.16 293.76 376.12 293.78 376.08 293.8 376.04 293.81 376 293.82 375.98 293.83 375.96 293.83 375.92 293.85 375.88 293.86 375.85 293.88 375.82 293.91 375.78 293.94 375.73 294 375.67 294.05 375.62 294.1 375.57 294.15 375.52 294.18 375.48 294.2 375.47 294.25 375.42 294.31 375.38 294.42 375.29 294.48 375.24 294.53 375.19 294.57 375.16 294.61 375.15 294.65 375.14 294.72 375.12 294.78 375.11 294.85 375.09 294.9 375.08 294.93 375.08 294.98 375.07 295.01 375.07 295.03 375.06 295.04 375.04 295.06 375.02 295.06 375.01 295.08 374.99 295.09 374.98 295.09 374.96 295.11 374.94 295.12 374.9 295.13 374.86 295.14 374.81 295.16 374.71 295.17 374.67 295.17 374.62 295.18 374.58 295.18 374.51 295.18 374.44 295.19 374.39 295.19 374.35 295.18 374.27 295.18 374.21 295.17 374.13 295.17 374.07 295.17 374.04 295.17 373.98 295.16 373.92 295.15 373.89 295.15 373.85 295.15 373.82 295.11 373.52 295.13 373.5 295.15 373.48 295.19 373.45 295.26 373.4 295.34 373.31 295.37 373.28 295.38 373.26 295.47 373.14 295.51 373.08 295.54 373.04 295.59 372.97 295.62 372.92 295.63 372.91 295.67 372.87 295.7 372.83 295.76 372.75 295.97 372.51 296.17 372.39 296.87 372.34 296.9 372.34 296.98 372.81 296.99 372.87 297.2 373.29 297.25 373.39 297.26 373.43 297.29 373.47 297.38 373.55 297.59 373.69 297.7 373.77 297.73 373.8 297.78 373.84 297.81 373.88 297.86 373.97 297.92 374.1 298 374.19 298.09 374.31 298.18 374.39 298.23 374.43 298.31 374.5 298.44 374.6 298.55 374.68 298.56 374.69 298.69 374.77 298.82 374.87 298.94 374.96 299.04 375.03 299.06 375.04 299.09 375.07 299.11 375.08 299.21 375.15 299.35 375.26 299.41 375.3 299.51 375.37 299.6 375.45 299.74 375.51 299.87 375.55 299.88 375.56 299.98 375.59 300.18 375.64 300.2 375.65 300.43 375.72 300.45 375.74 300.63 375.74 300.78 375.73 300.91 375.72 300.94 375.73 300.96 375.73 301.04 375.74 301.2 375.76 301.37 375.78 301.41 375.79 301.55 375.8 301.72 375.81 301.81 375.82 301.93 375.77 302.05 375.71 302.13 375.67 302.15 375.66 302.21 375.63 302.3 375.57 302.38 375.54 302.39 375.53 302.43 375.52 302.49 375.5 302.54 375.49 302.62 375.47 302.69 375.47 302.76 375.46 302.84 375.45 302.86 375.45 302.98 375.44 303.09 375.44 303.14 375.44 303.23 375.43 303.24 375.45 303.24 375.47 303.23 375.49 303.22 375.66 303.23 375.84 303.21 375.95 303.2 375.98 303.24 376.07 303.24 376.09 303.22 376.2 303.17 376.32 303.13 376.4 303.11 376.49 303.1 376.61 303.1 376.63 303.1 376.63 303.1 376.7 303.05 376.77 303.02 376.86 303 376.96 302.97 377.06 302.96 377.08 302.94 377.12 302.89 377.17 302.84 377.22 302.78 377.3 302.72 377.37 302.67 377.43 302.66 377.44 302.62 377.5 302.59 377.54 302.57 377.61 302.54 377.72 302.54 377.73 302.53 377.85 302.52 377.95 302.51 377.97 302.5 378.05 302.51 378.12 302.52 378.19 302.52 378.28 302.52 378.38 302.52 378.39 302.51 378.45 302.51 378.47 302.51 378.51 302.5 378.55 302.49 378.59 302.46 378.67 302.46 378.68 302.44 378.76 302.43 378.84 302.42 378.89 302.38 379.01 302.35 379.11 302.33 379.18 302.33 379.24 302.33 379.28 302.32 379.4 302.34 379.49 302.37 379.59 302.41 379.69 302.46 379.8 302.48 379.88 302.52 379.99 302.57 380.08 302.64 380.18 302.65 380.19 302.74 380.29 302.76 380.32 302.79 380.4 302.83 380.47 302.86 380.51 302.89 380.66 302.92 380.83 302.98 381.09 303.1 381.46 303.45 382.72 303.58 383.2 303.62 383.51 303.63 383.61 303.63 383.64 303.64 383.69 303.7 384.09 303.73 384.26 303.73 384.28 303.74 384.31 303.79 384.64 303.82 384.81 303.84 384.89 303.89 385.17 303.98 385.69 304.03 385.89 304.08 386.09 304.09 386.12 304.1 386.17 304.1 386.21 304.12 386.33 304.12 386.35 304.13 386.5 304.14 386.67 304.13 386.75 304.13 387.04 304.12 387.14 304.1 387.27 304.1 387.44 304.11 387.59 304.11 387.75 304.12 387.93 304.12 388.11 304.12 388.28 304.13 388.37 304.16 388.48 304.24 388.68 304.33 388.92 304.4 389.1 304.47 389.26 304.51 389.37 304.52 389.41 304.53 389.43 304.56 389.52 304.59 389.58 304.59 389.62 304.62 389.68 304.63 389.71 304.65 389.75 304.67 389.78 304.71 389.83 304.72 389.84 304.77 389.91 304.8 389.95 304.85 390 304.89 390.05 304.92 390.08 304.96 390.13 304.98 390.14 305.03 390.36 305.02 390.52 305 390.67 304.99 390.76 304.99 390.8 304.99 390.85 304.99 390.9 304.99 390.96 304.98 391.03 304.96 391.1 304.94 391.17 304.94 391.2 304.94 391.25 304.92 391.3 304.9 391.36 304.89 391.4 304.87 391.47 304.87 391.53 304.87 391.59 304.87 391.64 304.87 391.7 304.87 391.74 304.85 391.79 304.84 391.84 304.83 391.87 304.82 391.9 304.82 391.96 304.82 392.02 304.81 392.1 304.81 392.16 304.8 392.21 304.8 392.27 304.81 392.34 304.82 392.41 304.83 392.46 304.85 392.54 304.87 392.63 304.88 392.69 304.89 392.75 304.91 392.79 304.92 392.84 304.95 392.92 304.97 392.97 304.98 393.03 304.99 393.07 304.98 393.13 304.97 393.19 304.96 393.25 304.96 393.31 304.96 393.38 304.97 393.44 304.99 393.5 305.01 393.55 305.05 393.63 305.07 393.68 305.09 393.73 305.12 393.78 305.13 393.81 305.16 393.85 305.16 393.93 305.18 394.06 305.21 394.24 305.22 394.32 305.25 394.46 305.26 394.56 305.27 394.62 305.29 394.72 305.31 394.81 305.31 394.86 305.28 394.93 305.1 395 305.08 395.01 305.07 395.01 304.76 395.13 304.69 395.15 304.39 395.27 304.15 395.37 303.99 395.44 303.9 395.48 303.85 395.51 303.79 395.54 303.65 395.6 303.58 395.64 303.54 395.69 303.52 395.7 303.51 395.71 303.48 395.74 303.45 395.76 303.39 395.82 303.38 395.82 303.36 395.84 303.35 395.85 303.27 395.92 303.24 395.95 303.1 396.07 303.01 396.15 302.94 396.2 302.87 396.26 302.83 396.3 302.57 396.52 302.52 396.56 302.5 396.58 302.49 396.59 302.46 396.62 302.27 396.88 302.26 396.89 302.23 396.94 302.21 396.99 302.2 397.05 302.21 397.08 301.37 397.21 300.51 397.35 299.77 397.49 298.98 397.64 298.33 397.8 297.72 397.94 297.32 398.03 296.61 398.53 296.08 398.91 295.82 399.08 295.25 399.22 294.67 399.34 293.98 399.58 293.28 399.77 292.28 400 291.65 400.1 291.46 400.14 291.44 400.4 291.51 401.09 291.55 401.65 291.68 402.2 291.85 402.85 291.95 403.53 292.08 404.08 292.24 404.57 292.38 404.93 292.66 405.21 293.3 405.8 293.6 406.1 293.75 406.3 293.86 406.73 293.93 407.47 294.3 407.98 294.83 408.59 295.17 408.84 295.55 409.17 296.06 409.51 296.02 409.54 296 409.55 295.93 409.59 295.92 409.59 295.89 409.63 295.88 409.64 295.86 409.67 295.68 410.01 295.61 410.14 295.57 410.2 295.57 410.22 295.55 410.25 295.5 410.34 295.5 410.36 295.5 410.52 295.5 410.52 295.51 410.63 295.51 410.68 295.52 410.76 295.52 410.78 295.52 410.79 295.53 411.04 295.53 411.11 295.53 411.2 295.54 411.31 295.54 411.33 295.55 411.39 295.56 411.52 295.6 411.82 295.62 412.05 295.63 412.12 295.66 412.34 295.67 412.48 295.67 412.49 295.67 412.52 295.68 412.68 295.69 412.7 295.7 412.94 295.7 412.96 295.71 413.17 295.71 413.26 295.72 413.4 295.73 413.58 295.73 413.62 295.72 413.67 295.69 413.85 295.67 414 295.67 414.03 295.66 414.08 295.66 414.12 295.65 414.2 295.63 414.27 295.62 414.34 295.65 414.46 295.69 414.64 295.7 414.65 295.7 414.66 295.76 414.88 295.82 415.13 295.85 415.27 295.92 415.56 295.99 415.81 296.07 416.14 296.18 416.6 296.19 416.63 296.23 416.79 296.25 416.87 296.26 416.89 296.27 416.93 296.29 417.04 296.31 417.1 296.32 417.13 296.33 417.17 296.34 417.18 296.35 417.27 296.36 417.35 296.36 417.38 296.37 417.4 296.37 417.43 296.38 417.47 296.4 417.55 296.42 417.63 296.44 417.74 296.46 417.86 296.51 418.12 296.53 418.17 296.56 418.26 296.55 418.27 296.18 418.37 295.71 418.44 295.2 418.31 294.7 418.27 294.05 418.27 293.53 418.27 293.01 418.24 292.51 418.27 292.11 418.34 291.74 418.3 291.5 418.06 291.17 417.61 290.86 417.25 290.59 416.94 290.26 416.66 289.89 416.43 289.56 416.17 289.17 415.91 288.67 415.6 288.47 415.42 288.07 415.42 287.61 415.47 287.14 415.49 286.71 415.55 286.21 415.64 285.79 415.75 285.31 415.9 284.87 416.04 284.3 416.18 283.81 416.33 283.31 416.56 282.87 416.77 282.33 416.91 281.81 417.08 281.3 417.28 281.11 417.56 280.92 417.88 280.77 418.25 280.59 418.71 280.33 419.17 280.33 419.16 280.16 418.92 280 418.74 279.79 418.48 279.55 418.21 279.26 417.92 279.01 417.59 278.78 417.3 278.59 417.05 278.43 416.75 278.31 416.45 278.34 416.12 278.45 415.86 278.61 415.6 278.91 415.19 278.97 414.85 278.87 414.63 278.67 414.43 278.45 414.2 278.48 413.84 279.06 413.79 279.35 413.77 279.84 413.76 280.17 413.77 280.52 413.88 280.79 413.96 280.97 413.94 281.05 413.83 281.01 413.83 280.94 413.53 280.72 413.18 280.38 412.66 280.01 412.11 279.75 411.72 279.53 411.24 279.43 410.76 279.46 410.35 279.49 409.88 279.41 409.55 279.27 409.2 279.13 408.93 279.13 408.74 279.15 408.45 279.03 408.21 278.9 407.86 278.69 407.33 278.48 406.82 278.48 406.48 278.48 406.46 279.62 406.06 280.51 406.27 281.07 405.78 281.59 405.38 282.18 405 282.88 404.56 283.34 404.27 283.82 404.07 284.58 403.87 284.95 403.76 285.22 403.56 285.5 403.24 285.69 402.88 286.08 402.09 286.32 401.75 286.75 401.71 287.11 401.63 287.27 401.51 287.48 401.34 288 401.01 288.49 400.71 289.12 400.47 289.71 400.34 289.94 400.21 290.08 399.98 290.14 399.6 290.23 399.19 290.18 398.92 290.05 398.58 289.85 398.26 289.53 397.92 289.27 397.51 289.15 397.13 289.11 396.75 289.07 396.36 289.01 396.22 288.79 396.02 288.57 395.8 288.35 395.49 288.17 395.2 288.08 394.84 287.9 394.56 287.67 394.08 287.51 393.82 287.24 393.48 287.06 393.07 286.94 392.6 286.78 391.99 286.56 391.45 286.57 391.3 286.82 391.1 287.13 390.88 287.5 390.6 287.6 390.43 287.51 389.89 287.42 389.37 287.23 388.55 287.14 388.09 287.16 388.06 287.17 388.05 287.19 388.04 287.23 388 287.26 387.97 287.3 387.93 287.39 387.84 287.43 387.79 287.44 387.78 287.47 387.75 287.53 387.69 287.56 387.65 287.58 387.63 287.59 387.62 287.61 387.59 287.65 387.54 287.68 387.48 287.68 387.47 287.72 387.41 287.77 387.34 287.81 387.29 287.85 387.24 287.9 387.18 287.95 387.11 287.98 387.08 287.99 387.06 287.99 387.05 288.02 387 288.05 386.94 288.07 386.9 288.09 386.87 288.1 386.83 288.11 386.81 288.35 386.5 288.37 386.48 288.46 386.4 288.48 386.38 288.55 386.33 288.6 386.29 288.64 386.25 288.66 386.24 288.68 386.22 288.71 386.19 288.76 386.12 288.79 386.09 288.81 386.06 288.82 386.05 288.83 386.03 288.86 385.99 288.87 385.97 288.89 385.94 288.92 385.88 288.96 385.81 288.98 385.77 288.99 385.76 289.02 385.7 289.05 385.65 289.06 385.63 289.07 385.62 289.1 385.59 289.15 385.53 289.19 385.5 289.24 385.44 289.28 385.4 289.33 385.35 289.38 385.3 289.41 385.27 289.42 385.25 289.46 385.22 289.49 385.2 289.56 385.13 289.61 385.08 289.65 385.03 289.67 385.01 289.68 385 289.7 384.98 289.74 384.93 289.78 384.89 289.8 384.87 289.82 384.82 289.84 384.77 289.87 384.7 289.9 384.65 289.94 384.59 289.97 384.53 289.99 384.5 290 384.49 290.03 384.42 290.05 384.41 290.06 384.38 290.09 384.33 290.11 384.29 290.12 384.27 290.12 384.26 290.13 384.21 290.15 384.14 290.17 384.09 290.18 384.06 290.2 384.02 290.22 383.98 290.24 383.88 290.25 383.84 290.27 383.77 290.29 383.69 290.3 383.64 290.32 383.57 290.33 383.51 290.35 383.46 290.35 383.44 290.36 383.37 290.38 383.33 290.38 383.3 290.4 383.28 290.42 383.25 290.44 383.23 290.44 383.21 290.44 383.19 290.44 383.17 290.46 383.14 290.47 383.12 290.48 383.1 290.47 383.07 290.48 383.04 290.48 383.01 290.5 382.98 290.52 382.94 290.53 382.91 290.55 382.88 290.58 382.83 290.61 382.78 290.64 382.73 290.66 382.72 290.67 382.7 290.69 382.68 290.69 382.64 290.69 382.63 290.68 382.61 290.68 382.56 290.67 382.52 290.67 382.49 290.67 382.45 290.68 382.41 290.69 382.39 290.7 382.38 290.71 382.37 290.71 382.37 290.72 382.34 290.72 382.3 290.73 382.28 290.76 382.25 290.79 382.22 290.8 382.21 290.81 382.19 290.83 382.16 290.83 382.15 290.84 382.14 290.85 382.11 290.89 382.09 290.93 382.06 290.96 382.04 290.97 382.02 290.97 382 290.98 381.96 290.98 381.94 291 381.91 291.01 381.9 291.04 381.87 291.07 381.82 291.08 381.78 291.09 381.77 291.12 381.72 291.13 381.69 291.15 381.67 291.17 381.64 291.2 381.58 291.21 381.57 291.22 381.55 291.24 381.52 291.26 381.49 291.28 381.43 291.3 381.39 291.31 381.36 291.32 381.35 291.34 381.31 291.38 381.24 291.4 381.22 291.4 381.22 291.43 381.19 291.45 381.14 291.46 381.12 291.48 381.06 291.49 381.03 291.5 381 291.52 380.97 291.53 380.94 291.55 380.89 291.58 380.82 291.59 380.81 291.59 380.79 291.6 380.78 291.61 380.76 291.62 380.71 291.65 380.66 291.66 380.6 291.68 380.54 291.7 380.48 291.72 380.44 291.72 380.43 291.74 380.39 291.77 380.3 291.78 380.27 291.8 380.23 291.81 380.17 291.83 380.09 291.84 380.03 291.86 379.97 291.88 379.89 291.91 379.82 291.94 379.75 291.96 379.68 291.99 379.62 292 379.59 292 379.57 292.02 379.54 292.04 379.49 292.05 379.48 292.07 379.46 292.09 379.42 292.12 379.39 292.17 379.33 292.18 379.31 292.2 379.28 292.24 379.23 292.26 379.19 292.27 379.19 292.29 379.15 292.32 379.11 292.34 379.07 292.37 379.02 292.41 378.94 292.42 378.9 292.44 378.88 292.45 378.84 292.45 378.83 292.45 378.81 292.46 378.76 292.46 378.7 Z"/>
</g></svg>