<svg xmlns="http://www.w3.org/2000/svg" version="1.2" baseProfile="tiny" stroke-linecap="round" stroke-linejoin="round" viewBox="498.95 170 8.28 23.88"><g xmlns="http://www.w3.org/2000/svg" id="Oitz">
<path d="M 501.71 171.16 501.74 171.13 501.83 171.07 501.93 171 501.95 170.99 502.18 170.84 502.2 170.82 502.25 170.79 502.31 170.76 502.58 170.53 502.73 170.41 502.93 170.23 502.96 170.19 502.99 170.13 503.02 170.06 503.04 170.03 503.05 170.03 503.06 170.03 503.08 170.05 503.12 170.09 503.16 170.14 503.22 170.18 503.25 170.2 503.29 170.22 503.34 170.23 503.39 170.24 503.46 170.26 503.55 170.28 503.6 170.29 503.63 170.28 503.68 170.28 503.71 170.31 503.75 170.32 503.78 170.32 503.82 170.31 503.85 170.31 503.89 170.33 503.93 170.35 503.98 170.37 504.03 170.37 504.07 170.38 504.13 170.39 504.18 170.43 504.21 170.46 504.25 170.48 504.27 170.49 504.35 170.49 504.43 170.49 504.53 170.48 504.64 170.44 504.69 170.42 504.7 170.42 504.76 170.39 504.84 170.35 504.92 170.3 504.99 170.27 505.02 170.25 505.05 170.26 505.06 170.26 505.08 170.28 505.12 170.31 505.2 170.39 505.24 170.42 505.28 170.46 505.33 170.5 505.38 170.52 505.42 170.54 505.46 170.56 505.49 170.58 505.58 170.59 505.67 170.58 505.72 170.57 505.78 170.56 505.88 170.56 505.98 170.54 506.1 170.51 506.15 170.49 506.28 170.45 506.36 170.43 506.45 170.41 506.56 170.41 506.67 170.38 506.76 170.35 506.83 170.32 506.87 170.3 506.91 170.28 506.95 170.27 506.99 170.27 507.03 170.29 507.04 170.3 507.05 170.31 507.08 170.35 507.09 170.41 507.1 170.5 507.12 170.62 507.13 170.72 507.15 170.8 507.16 170.87 507.16 170.92 507.18 171.01 507.19 171.11 507.2 171.15 507.2 171.17 507.21 171.22 507.19 171.26 507.19 171.27 507.16 171.29 507.15 171.29 507.12 171.3 507.09 171.3 507.04 171.28 506.99 171.26 506.87 171.2 506.8 171.17 506.73 171.17 506.68 171.19 506.63 171.22 506.55 171.28 506.5 171.35 506.44 171.43 506.39 171.52 506.34 171.59 506.28 171.68 506.22 171.74 506.16 171.8 506.1 171.87 506.06 171.94 506.04 171.98 506.04 172.07 506.04 172.14 506.02 172.2 505.98 172.26 505.97 172.31 505.97 172.36 505.97 172.44 505.98 172.53 505.99 172.54 506 172.55 505.98 172.58 505.93 172.65 505.83 172.79 505.83 172.83 505.83 172.85 505.82 172.86 505.82 172.88 505.82 172.91 505.8 173.03 505.75 173.35 505.74 173.38 505.74 173.39 505.73 173.47 505.83 173.46 505.89 173.65 505.93 173.79 505.93 173.8 505.93 173.81 505.87 173.9 505.88 173.92 505.91 174.02 505.94 174.11 505.99 174.2 506.01 174.29 506.03 174.35 506.03 174.36 506.04 174.37 506.04 174.38 506.07 174.44 506.14 174.58 506.16 174.63 506.16 174.66 506.16 174.68 506.16 174.71 506.17 174.75 506.24 174.9 506.25 174.93 506.28 175.04 506.27 175.05 506.27 175.06 506.25 175.09 506.19 175.2 506.14 175.28 506.13 175.29 506.1 175.35 506.1 175.46 506.1 175.56 506.11 175.69 506.11 175.71 506.11 175.72 506.2 175.91 506.19 175.92 506.15 176 506.12 176.06 506.07 176.19 506.06 176.22 506.05 176.23 506.04 176.25 506.03 176.27 506.03 176.28 506.01 176.31 505.94 176.34 505.9 176.36 505.78 176.41 505.52 176.67 505.49 176.7 505.43 176.75 505.18 177.02 505.18 177.03 504.99 177.22 504.81 177.42 504.74 177.55 504.72 177.58 504.69 177.64 504.63 177.75 504.63 177.78 504.58 178.02 504.57 178.11 504.55 178.26 504.54 178.29 504.54 178.32 504.51 178.46 504.51 178.48 504.42 178.96 504.4 179.07 504.38 179.16 504.38 179.18 504.41 179.44 504.42 179.58 504.42 179.64 504.43 179.73 504.46 180.1 504.47 180.15 504.5 180.25 504.54 180.42 504.54 180.43 504.61 180.69 504.64 180.76 504.65 180.78 504.71 180.93 504.72 180.98 504.82 181.22 504.84 181.28 504.84 181.29 504.84 181.29 504.82 181.32 504.81 181.34 504.61 181.67 504.63 181.84 504.72 182.46 504.84 183.27 504.92 183.57 504.93 183.61 504.94 183.63 505.12 184.1 505.17 184.2 505.34 184.6 505.38 184.67 505.37 184.7 505.37 184.72 505.37 184.98 505.48 185.36 505.32 185.88 505.36 186.29 505.19 186.58 505.19 186.6 505.18 186.6 505.09 186.76 505.31 187.04 505.47 187.24 505.68 187.5 505.89 187.8 505.96 188.19 505.85 188.81 505.85 188.85 505.84 188.87 505.8 188.94 505.79 188.96 505.77 189.01 505.76 189.02 505.71 189.11 505.66 189.24 505.64 189.3 505.61 189.37 505.61 189.38 505.61 189.39 505.61 189.4 505.56 189.54 505.41 189.9 505.41 189.92 505.36 190.04 505.23 190.77 505.57 191.45 505.54 191.55 505.41 192.04 505.37 192.31 505.35 192.51 505.34 192.6 505.34 192.64 505.35 192.71 505.34 192.76 505.31 192.79 505.27 192.83 505.23 192.87 505.19 192.89 505.13 192.93 505.04 192.99 504.98 193.03 504.95 193.07 504.9 193.13 504.84 193.21 504.8 193.26 504.77 193.32 504.76 193.37 504.73 193.41 504.7 193.45 504.67 193.46 504.65 193.48 504.62 193.5 504.46 193.67 504.4 193.73 504.38 193.75 504.34 193.74 504.31 193.73 504.27 193.73 504.24 193.76 504.22 193.78 504.19 193.77 504.13 193.76 504.08 193.77 504.05 193.8 504.02 193.83 503.98 193.84 503.94 193.84 503.9 193.86 503.86 193.87 503.81 193.86 503.78 193.86 503.74 193.84 503.7 193.8 503.67 193.78 503.63 193.77 503.59 193.75 503.56 193.76 503.53 193.76 503.49 193.77 503.44 193.77 503.4 193.75 503.37 193.71 503.32 193.65 503.29 193.58 503.29 193.51 503.28 193.43 503.27 193.37 503.25 193.32 503.24 193.28 503.21 193.25 503.17 193.23 503.11 193.21 503.06 193.19 503.01 193.18 502.89 193.19 502.87 193.17 502.83 193.14 502.79 193.11 502.77 193.08 502.75 193.01 502.73 192.93 502.73 192.84 502.73 192.77 502.71 192.73 502.69 192.69 502.66 192.64 502.64 192.62 502.64 192.6 502.65 192.56 502.65 192.45 502.64 192.36 502.6 192.11 502.58 192.01 502.54 191.87 502.52 191.82 502.48 191.78 502.44 191.74 502.39 191.71 502.34 191.67 502.3 191.62 502.21 191.5 502.17 191.43 502.12 191.37 502.09 191.32 502.01 191.23 501.95 191.16 501.92 191.09 501.9 191.03 501.89 190.97 501.88 190.93 501.87 190.92 501.86 190.9 501.83 190.88 501.81 190.85 501.8 190.81 501.73 190.65 501.69 190.59 501.62 190.54 501.12 190.52 500.8 190.48 500.79 190.48 500.51 190.45 500.44 190.43 500.43 190.43 500.42 190.43 500.41 190.45 500.39 190.46 500.36 190.46 500.34 190.46 500.31 190.45 500.31 190.43 500.27 190.38 500.25 190.35 500.21 190.31 500.2 190.29 500.18 190.25 500.17 190.2 500.17 190.17 500.17 190.14 500.19 190.07 500.2 190.03 500.22 189.99 500.26 189.94 500.28 189.9 500.29 189.85 500.29 189.83 500.29 189.81 500.3 189.78 500.29 189.73 500.27 189.69 500.24 189.65 500.2 189.62 500.16 189.56 500.15 189.54 500.13 189.48 500.09 189.37 500.08 189.32 500.08 189.31 500.08 189.28 500.1 189.25 500.12 189.21 500.14 189.17 500.14 189.16 500.14 189.14 500.14 189.13 500.13 189.07 500.12 189.03 500.09 188.98 500.07 188.92 500 188.8 499.97 188.75 499.94 188.72 499.91 188.68 499.84 188.55 499.8 188.46 499.79 188.41 499.79 188.39 499.78 188.34 499.74 188.24 499.73 188.22 499.71 188.11 499.71 188.04 499.72 187.96 499.73 187.87 499.77 187.78 499.8 187.7 499.83 187.6 499.88 187.52 499.93 187.44 500 187.33 500.04 187.27 500.11 187.17 500.15 187.11 500.2 187.05 500.26 186.97 500.33 186.89 500.41 186.78 500.45 186.74 500.47 186.7 500.47 186.65 500.46 186.6 500.46 186.53 500.47 186.48 500.49 186.43 500.5 186.37 500.48 186.28 500.49 186.24 500.49 186.22 500.5 186.18 500.5 186.16 500.53 186.1 500.58 185.99 500.61 185.92 500.63 185.86 500.63 185.82 500.63 185.77 500.64 185.73 500.65 185.68 500.71 185.55 500.74 185.48 500.77 185.45 500.8 185.42 500.83 185.41 500.9 185.39 500.92 185.37 500.94 185.34 500.94 185.3 500.93 185.22 500.91 185.14 500.89 185.05 500.87 184.96 500.85 184.87 500.85 184.79 500.87 184.72 500.9 184.66 500.95 184.59 500.97 184.56 500.96 184.52 500.94 184.5 500.93 184.47 500.91 184.43 500.9 184.4 500.88 184.35 500.88 184.34 500.88 184.29 500.88 184.26 500.88 184.25 501.03 184.07 501.09 184 501.19 183.46 501.25 183.2 501.38 182.89 501.4 182.87 501.41 182.86 501.42 182.85 501.55 182.76 501.6 182.71 501.63 182.65 501.66 182.6 501.67 182.52 501.67 182.46 501.63 182.19 501.62 182.16 501.61 182.07 501.64 182 501.66 181.94 501.65 181.85 501.71 181.64 501.73 181.6 501.73 181.58 501.7 181.45 501.69 181.4 501.69 181.39 501.7 181.34 501.7 181.32 501.7 181.26 501.72 181.23 501.74 181.2 501.77 181.16 501.78 181.12 501.81 181.08 501.82 181.07 501.86 181.03 501.89 180.98 501.91 180.93 501.94 180.88 502.1 180.67 502.13 180.63 502.17 180.58 502.18 180.55 502.2 180.5 502.21 180.45 502.22 180.35 502.22 180.3 502.23 180.24 502.23 180.17 502.25 180.09 502.44 179.83 502.46 179.79 502.47 179.77 502.59 179.6 502.59 179.58 502.58 179.52 502.56 179.31 502.55 179.21 502.54 179.09 502.51 178.82 502.51 178.76 502.52 178.63 502.5 178.58 502.47 178.54 502.41 178.43 502.35 178.33 502.33 178.29 502.29 178.23 502.25 178.16 502.08 177.86 502.08 177.86 501.97 177.67 501.98 177.45 501.99 177.41 501.99 177.39 501.99 177.36 502 177.25 502.01 177.23 502.02 177.12 502.02 177.09 502.04 176.93 502.04 176.87 502.04 176.86 502.05 176.83 502.05 176.8 502.04 176.76 501.97 176.61 501.94 176.54 501.86 176.37 501.81 176.25 501.77 176.18 501.72 176.13 501.65 176.08 501.64 176.06 501.6 176.02 501.54 175.98 501.35 175.85 501.32 175.83 501.31 175.82 501.25 175.77 501 175.62 500.95 175.58 500.94 175.58 500.93 175.57 500.78 175.48 500.62 175.37 500.35 175.27 500.34 175.27 500.31 175.26 500.29 175.25 500.16 175.1 500.14 175.08 500.13 175.07 500.11 175.06 500.03 174.97 499.83 174.75 499.77 174.47 499.76 174.41 499.76 174.39 499.75 174.37 499.75 174.35 499.75 174.34 499.71 174.26 499.66 174.21 499.63 174.17 499.62 174.12 499.57 174.08 499.51 174.03 499.45 173.99 499.43 173.97 499.42 173.96 499.4 173.95 499.28 173.89 499.21 173.83 499.16 173.79 499.1 173.74 499.08 173.66 499.05 173.59 499.05 173.54 499.05 173.53 499.05 173.48 499.05 173.4 499.04 173.37 499.03 173.32 499.03 173.24 499.04 173.2 499.03 173.17 499.01 173.14 498.96 173.06 498.99 172.99 499.02 172.93 499.02 172.87 499.07 172.82 499.29 172.59 499.46 172.42 499.5 172.39 499.58 172.3 499.7 172.16 499.8 172.04 499.84 171.98 499.91 171.96 499.92 171.96 500.03 171.93 500.05 171.92 500.13 171.9 500.31 171.84 500.42 171.81 500.52 171.76 500.65 171.73 500.68 171.72 500.92 171.66 501.03 171.63 501.08 171.62 501.17 171.57 501.21 171.54 501.32 171.48 501.39 171.42 501.41 171.41 501.5 171.34 501.59 171.25 501.68 171.18 501.69 171.17 501.71 171.16 Z"/>
</g></svg>