<svg xmlns="http://www.w3.org/2000/svg" version="1.2" baseProfile="tiny" stroke-linecap="round" stroke-linejoin="round" viewBox="365.85 353.75 8.03 10.38"><g xmlns="http://www.w3.org/2000/svg" id="Oko">
<path d="M 370.2 353.77 370.22 353.77 370.29 353.75 370.32 353.76 370.34 353.77 370.56 353.85 370.56 353.89 370.55 353.92 370.54 353.99 370.54 354.02 370.54 354.07 370.52 354.2 370.52 354.21 370.51 354.23 370.43 354.32 370.34 354.42 370.59 354.64 370.72 354.77 370.77 354.79 370.85 354.82 370.85 354.82 371.13 354.74 371.47 354.71 372.07 354.92 372.07 355 372.09 355.01 372.24 355.08 372.47 355.18 372.5 355.2 372.53 355.23 372.6 355.33 372.61 355.35 372.62 355.36 372.63 355.4 372.65 355.46 372.67 355.49 372.71 355.55 372.74 355.6 372.78 355.65 372.81 355.7 372.84 355.77 372.86 355.84 372.86 355.9 372.86 356.05 372.86 356.14 372.87 356.21 372.76 356.34 372.83 356.61 372.84 356.65 372.85 356.7 372.86 356.72 372.86 356.73 372.9 356.72 372.91 356.76 372.91 356.79 372.92 356.84 372.94 356.93 372.97 357.05 373.01 357.05 373.04 357.05 373.03 357.12 373.02 357.17 373.02 357.2 373.01 357.24 373.01 357.26 373.02 357.28 373.03 357.3 373.03 357.33 373.03 357.36 373.02 357.4 373 357.44 373 357.46 373 357.5 373 357.53 373 357.58 372.99 357.63 372.98 357.67 372.98 357.7 372.98 357.73 372.98 357.75 372.99 357.81 372.99 357.86 373 357.89 373.01 357.93 373.02 357.97 373.03 358.03 373.03 358.08 373.04 358.12 373.05 358.18 373.05 358.22 373.05 358.26 373.04 358.3 373.02 358.35 373 358.39 372.98 358.41 372.98 358.45 372.98 358.49 372.97 358.53 372.98 358.57 372.98 358.6 373.01 358.67 373.02 358.7 373.05 358.74 373.08 358.78 373.12 358.82 373.15 358.86 373.18 358.9 373.19 358.93 373.2 358.97 373.22 359.01 373.24 359.04 373.27 359.06 373.3 359.08 373.33 359.1 373.34 359.13 373.37 359.15 373.41 359.18 373.44 359.2 373.46 359.2 373.49 359.2 373.51 359.2 373.54 359.2 373.57 359.2 373.6 359.22 373.63 359.24 373.66 359.25 373.66 359.27 373.64 359.31 373.51 359.58 373.53 359.6 373.69 359.71 373.7 359.74 373.7 359.79 373.7 359.8 373.7 359.84 373.7 359.88 373.68 359.93 373.68 359.97 373.68 360.01 373.71 360.05 373.74 360.08 373.78 360.13 373.81 360.16 373.84 360.2 373.86 360.23 373.83 360.25 373.8 360.27 373.76 360.3 373.73 360.33 373.69 360.35 373.64 360.35 373.59 360.37 373.58 360.37 373.54 360.39 373.52 360.4 373.51 360.42 373.51 360.45 373.51 360.5 373.5 360.53 373.49 360.57 373.48 360.61 373.46 360.65 373.45 360.7 373.43 360.74 373.42 360.75 373.41 360.77 373.4 360.78 373.39 360.8 373.38 360.82 373.37 360.83 373.36 360.86 373.34 360.89 373.33 360.91 373.31 360.94 373.3 360.95 373.3 360.97 373.3 360.99 373.28 361.05 373.26 361.11 373.24 361.17 373.22 361.22 373.2 361.27 373.18 361.33 373.17 361.37 373.14 361.45 373.13 361.48 373.12 361.5 373.12 361.51 373.11 361.53 373.1 361.55 373.09 361.62 373.08 361.66 373.04 361.77 373.03 361.83 373.01 361.88 373 361.9 372.99 361.94 372.98 361.96 372.97 361.98 372.96 362 372.84 362.21 372.81 362.2 372.76 362.2 372.73 362.2 372.58 362.24 372.55 362.25 372.45 362.28 372.44 362.28 371.96 361.75 371.91 361.69 371.86 361.65 371.83 361.63 371.81 361.62 371.74 361.61 371.71 361.61 371.71 361.62 371.71 361.66 371.74 361.8 371.81 362.08 371.84 362.2 371.86 362.25 371.87 362.28 371.89 362.32 371.9 362.35 371.9 362.4 371.89 362.43 371.82 362.47 371.71 362.51 371.55 362.58 371.51 362.51 371.48 362.48 371.36 362.54 371.23 362.6 371.21 362.65 371.2 362.68 371.18 362.72 371.15 362.78 371.12 362.82 371.08 362.85 371.05 362.89 371.02 362.9 370.98 362.93 370.92 362.96 370.89 362.99 370.85 362.9 370.83 362.93 370.8 362.95 370.76 362.98 370.72 363 370.69 363.02 370.66 363.03 370.63 363.03 370.6 363.03 370.58 363.03 370.56 363.04 370.53 363.05 370.45 363.1 370.34 363.15 370.18 363.24 370.19 363.55 370.18 363.56 370.15 363.59 370.14 363.6 370.13 363.62 370.1 363.67 370.06 363.74 370.02 363.82 370 363.88 369.98 363.93 369.96 363.97 369.92 363.98 369.9 363.98 369.89 363.96 369.89 363.94 369.87 363.93 369.86 363.93 369.8 363.93 369.75 363.93 369.72 363.93 369.69 363.94 369.65 363.97 369.61 363.98 369.55 364 369.51 364.01 369.46 364.01 369.42 364.01 369.37 364.02 369.34 364.05 369.3 364.07 369.27 364.08 369.17 364.12 369.12 363.97 369.01 363.97 369 363.97 368.99 363.97 368.54 364 368.53 363.97 368.52 363.95 368.5 363.93 368.45 363.89 368.41 363.85 368.37 363.82 368.33 363.79 368.31 363.77 368.26 363.72 368.2 363.68 368.15 363.64 368.12 363.64 367.99 363.45 367.99 363.44 367.85 363.23 367.84 363.22 367.76 363.36 367.39 363.44 367.17 362.84 367.15 362.69 366.88 362.75 366.75 362.48 367.15 362.39 367.13 362.18 367.13 362.17 367.12 362.17 367.07 362.2 367.01 362.23 366.93 362.26 366.85 362.3 366.79 362.31 366.75 362.33 366.71 362.33 366.61 362.33 366.55 362.34 366.5 362.34 366.47 362.35 366.43 362.37 366.38 362.4 366.35 362.42 366.31 362.46 366.27 362.51 366.24 362.54 366.21 362.56 366.19 362.58 366.17 362.59 366.1 362.62 366.09 362.61 366.07 362.6 366.05 362.58 366.03 362.53 365.97 362.34 365.97 362.3 365.97 362.29 365.96 362.28 365.96 362.27 366.01 362.28 366.25 362.31 366.33 362.33 366.33 362.31 366.35 362.17 366.28 362.14 366.22 362.1 366.19 362.06 366.16 362.04 366.11 361.99 366.02 362.06 365.97 362 365.92 361.92 365.87 361.87 365.85 361.86 365.86 361.84 365.95 361.89 365.97 361.88 366 361.87 366.1 361.92 366.13 361.95 366.32 361.83 366.34 361.81 366.38 361.78 366.42 361.77 366.46 361.75 366.5 361.73 366.52 361.71 366.54 361.71 366.57 361.71 366.6 361.72 366.62 361.72 366.64 361.7 366.67 361.66 366.68 361.67 366.69 361.69 366.69 361.71 366.68 361.75 366.69 361.78 366.7 361.8 366.71 361.8 366.73 361.8 366.77 361.82 366.8 361.86 366.83 361.9 366.86 361.95 366.89 362 366.93 362.05 366.95 362.09 366.96 362.12 367.05 362.08 367.14 362.05 367.24 361.99 367.24 361.97 367.23 361.9 367.22 361.84 367.22 361.76 367.22 361.69 367.24 361.62 367.27 361.54 367.27 361.52 367.35 361.35 367.39 361.27 367.74 361.45 367.76 361.3 367.69 361.26 367.61 361.18 367.49 361.06 367.41 360.99 367.26 361.02 367.18 360.88 367.32 360.88 367.3 360.74 367.25 360.67 367.22 360.63 367.21 360.61 367.2 360.56 367.19 360.52 367.19 360.47 367.19 360.36 367.19 360.3 367.64 360.27 367.63 360.11 367.2 360.12 367.19 359.98 367.19 359.96 367.21 359.95 367.58 359.79 367.62 359.52 367.62 359.47 367.61 359.39 367.6 359.34 367.6 359.33 367.58 359.18 367.56 359.1 367.56 359.07 367.44 359.12 367.44 359.1 367.41 358.94 367.4 358.76 367.61 358.49 367.68 358.4 367.64 358.36 367.58 358.28 367.53 358.13 367.54 358.06 367.55 357.97 367.55 357.89 367.56 357.86 367.64 357.8 367.71 357.77 367.79 357.75 367.87 357.72 367.96 357.7 368.09 357.68 368.05 357.52 368.05 357.51 368.07 357.45 368.08 357.42 368.19 357.38 368.22 357.37 368.23 357.46 368.23 357.47 368.27 357.6 368.29 357.67 368.31 357.7 368.32 357.71 368.36 357.74 368.41 357.75 368.45 357.75 368.48 357.74 368.53 357.72 368.68 357.66 368.86 357.57 368.93 357.52 368.98 357.49 368.99 357.48 368.99 357.46 368.95 357.42 369.05 357.35 369.09 357.33 369.13 357.29 369.18 357.23 369.21 357.2 369.25 357.19 369.29 357.16 369.38 357.19 369.42 357.2 369.44 357.19 369.45 357.14 369.46 357.11 369.47 357.09 369.49 357.04 369.55 356.91 369.56 356.87 369.58 356.79 369.61 356.68 369.62 356.62 369.64 356.54 369.64 356.49 369.67 356.45 369.72 356.39 369.73 356.38 369.77 356.33 369.83 356.27 369.87 356.22 369.88 356.21 369.92 356.17 369.97 356.11 370.01 356.06 370.02 356.05 370.01 356.05 369.99 356.04 370.02 356 370.07 355.93 370.1 355.88 370.13 355.81 370.14 355.73 370.15 355.68 370.15 355.61 370.16 355.53 370.16 355.42 370.16 355.34 370.16 355.23 370.17 355.13 370.17 355.07 370.17 355.05 370.21 354.97 370.26 354.87 370.28 354.83 370.29 354.81 370.31 354.76 370.3 354.71 370.28 354.64 370.27 354.6 370.26 354.58 370.24 354.53 370.22 354.49 370.18 354.44 370.15 354.41 370.13 354.38 370.13 354.32 370.14 354.27 370.16 354.23 370.17 354.2 370.18 354.15 370.19 354.09 370.21 354.05 370.21 354.01 370.21 353.95 370.21 353.88 370.21 353.84 370.2 353.8 370.2 353.77 Z"/>
</g></svg>