<svg xmlns="http://www.w3.org/2000/svg" version="1.2" baseProfile="tiny" stroke-linecap="round" stroke-linejoin="round" viewBox="108.05 134.98 29.12 32.52"><g xmlns="http://www.w3.org/2000/svg" id="Okondo">
<path d="M 121.26 139.67 119.72 138.9 119.11 138.4 117.99 137.47 118.01 137.44 118.09 137.34 118.19 137.23 118.27 137.14 118.34 137.05 118.36 137.04 118.37 137.02 118.48 136.82 118.51 136.75 118.53 136.69 118.55 136.62 118.57 136.56 118.64 136.37 118.64 136.35 118.7 136.28 118.73 136.24 118.78 136.2 118.82 136.15 118.96 136.01 119.05 135.91 119.15 135.79 119.27 135.63 119.32 135.57 119.41 135.44 119.47 135.36 119.53 135.32 119.59 135.26 119.64 135.21 119.68 135.19 119.69 135.19 119.71 135.18 119.73 135.17 119.79 135.14 119.84 135.11 119.91 135.1 119.93 135.09 119.97 135.09 120 135.08 120.03 135.08 120.05 135.08 120.1 135.08 120.22 135.08 120.29 135.09 120.34 135.1 120.4 135.12 120.57 135.19 120.68 135.2 120.93 135.21 121.17 135.21 121.23 135.2 121.29 135.18 121.42 135.11 121.63 134.99 121.64 135.01 121.69 135.21 121.79 135.48 121.87 135.56 121.99 135.59 122 135.6 122.05 135.62 122.21 135.7 122.22 135.71 122.26 135.74 122.3 135.78 122.34 135.82 122.39 135.89 122.47 135.99 122.55 136.12 122.62 136.2 122.69 136.27 122.75 136.35 122.81 136.39 122.87 136.44 122.98 136.53 123.11 136.64 123.23 136.73 123.37 136.87 123.41 136.92 123.68 137.16 123.92 137.37 124.09 137.71 124.06 138.19 124.1 138.4 124.12 138.48 124.15 138.57 124.17 138.65 123.63 139.01 123.81 139.1 123.87 139.11 123.99 139.15 124.05 139.15 124.18 139.19 124.38 139.24 124.44 139.23 124.55 139.24 124.63 139.25 124.72 139.24 124.88 139.34 125 139.36 125.14 139.48 125.52 139.87 125.71 140.09 125.8 140.35 125.82 140.46 125.79 140.62 125.79 140.8 126.06 141.97 126.2 142.07 126.35 142.17 126.51 142.27 126.65 142.38 126.72 142.42 126.81 142.52 126.93 142.73 127 142.84 127.08 142.96 127.2 142.99 127.32 143.05 127.49 143.19 127.5 143.22 127.63 143.19 128.08 143.03 128.42 142.89 128.87 142.7 129.09 142.66 129.43 142.55 129.84 142.42 130.32 142.25 130.46 142.19 130.62 142.16 130.8 142.13 130.92 142.14 131.12 142.12 131.24 142.07 131.32 142.04 131.36 141.97 131.47 141.85 132.03 141.59 132.46 141.46 132.64 141.38 132.74 141.35 132.9 141.32 133.08 141.34 133.35 141.43 133.67 141.5 133.98 141.57 134.08 141.57 134.34 141.51 134.44 141.34 134.55 141.07 134.56 141.05 134.63 140.91 135.01 141.29 135.29 142.19 135.38 142.31 135.61 143.06 135.79 143.95 136.34 144.81 136.45 145.39 136.88 146.52 137.06 147 137.15 147.05 136.95 147.12 136.67 147.25 136.27 147.48 135.87 147.77 135.84 148.04 135.95 148.3 136.1 148.55 136.28 148.89 136.5 149.43 136.65 149.82 136.49 150.17 136.18 150.51 135.81 150.81 135.57 151.19 135.4 151.57 135.22 151.97 134.87 152.47 134.58 152.81 134.18 153.21 133.76 153.72 133.29 154.21 132.89 154.49 132.9 154.93 132.75 155.21 132.39 155.51 131.97 155.84 131.43 156.25 131.29 156.79 131.06 157.13 130.72 157.56 130.58 158.04 130.27 158.64 129.79 159.5 129.35 160.09 128.89 160.26 128.29 160.72 127.79 161.12 127.34 161.51 126.78 162.06 126.17 162.68 125.63 163.24 125.15 163.71 124.64 164.13 124.15 164.5 123.64 164.97 123.33 165.6 123 166.4 122.72 167.05 122.59 167.48 122.06 167.36 121.68 167.3 121.16 167.02 120.91 166.8 120.71 166.47 120.51 166.15 120.26 165.76 119.64 166.6 119 166.5 118.45 166.51 117.95 166.61 117.37 166.81 116.72 167.08 115.93 167.37 115.47 167.35 114.94 167.32 114.28 167.35 113.77 167.31 113.33 167.29 112.97 167.13 112.52 166.89 112.09 166.7 111.71 166.43 111.37 166.33 111.05 166.36 110.62 166.35 110.34 166.28 110.22 166.14 110.13 165.95 109.94 165.8 109.7 165.7 109.58 165.54 109.54 165.3 109.62 164.97 109.72 164.62 109.82 164.19 109.96 163.77 110.01 163.37 109.87 163.08 109.57 162.98 109.13 162.83 108.57 162.73 108.16 162.59 108.05 162.56 108.4 162.07 108.35 161.9 108.52 161.72 108.99 161.37 109.21 161.12 109.55 160.39 109.73 160.03 109.8 159.85 110.39 159.14 110.48 159.01 111.51 158.81 111.76 158.76 114.42 158.34 116.42 157.84 118.08 157.71 119.35 157.13 120.55 156.98 121.72 156.94 121.71 156.84 121.75 156.84 121.57 155.28 121.48 154.64 121.33 153.59 122.22 151.6 122.9 151.07 123.4 149.95 123.65 149.41 124.06 148.61 123.86 147.31 123.66 146.52 123.42 145.58 123.4 145.53 123.33 145.27 123.31 144.36 123.4 144.33 124.43 143.96 123.71 143.01 123.41 142.38 123.13 141.81 123.41 141.59 124.6 140.65 123.41 140.3 121.26 139.67 Z"/>
</g></svg>