<svg xmlns="http://www.w3.org/2000/svg" version="1.2" baseProfile="tiny" stroke-linecap="round" stroke-linejoin="round" viewBox="352.02 201.8 9.03 16.37"><g xmlns="http://www.w3.org/2000/svg" id="Olaberria">
<path d="M 352.54 204.91 352.53 204.75 352.51 204.65 352.5 204.55 352.5 204.53 352.52 204.39 352.54 204.3 352.56 204.18 352.58 204.12 352.6 204.07 352.62 204.05 352.63 204.01 352.64 204 352.65 203.96 352.68 203.89 352.69 203.83 352.71 203.75 352.73 203.68 352.76 203.59 352.76 203.57 352.77 203.56 352.77 203.54 352.78 203.49 352.78 203.48 352.79 203.38 352.8 203.23 352.8 203.21 352.8 203.18 352.8 203.13 352.81 203.08 352.82 202.92 352.83 202.77 352.84 202.71 352.86 202.65 352.89 202.59 352.91 202.57 352.93 202.54 352.98 202.5 353.05 202.43 353.1 202.4 353.13 202.38 353.22 202.27 353.26 202.21 353.29 202.18 353.36 202.09 353.42 202.02 353.43 202.01 353.47 201.97 353.51 201.93 353.56 201.89 353.6 201.84 353.62 201.81 353.69 201.81 353.71 201.81 353.73 201.82 353.8 201.84 353.85 201.85 353.9 201.84 353.95 201.84 354.01 201.83 354.05 201.82 354.11 201.82 354.14 201.83 354.18 201.86 354.19 201.86 354.21 201.86 354.22 201.87 354.24 201.88 354.25 201.9 354.27 201.92 354.28 201.93 354.29 201.95 354.3 201.96 354.31 201.97 354.33 201.98 354.35 201.99 354.37 202 354.39 202 354.56 202.04 354.57 202.04 354.64 202.06 354.69 202.07 354.72 202.08 354.77 202.09 354.81 202.09 354.84 202.09 354.87 202.11 354.89 202.12 354.91 202.13 354.93 202.15 354.95 202.17 354.98 202.2 355.12 202.29 355.2 202.37 355.26 202.4 355.3 202.43 355.37 202.47 355.38 202.48 355.41 202.51 355.44 202.54 355.48 202.59 355.51 202.63 355.52 202.66 355.53 202.69 355.54 202.73 355.54 202.76 355.56 202.8 355.57 202.85 355.57 202.88 355.6 203 355.62 203.08 355.63 203.15 355.65 203.2 355.67 203.24 355.68 203.27 355.71 203.31 355.74 203.36 355.76 203.39 355.81 203.45 355.84 203.48 355.86 203.5 355.88 203.52 356.57 203.42 357.56 203.75 358.06 203.9 358.26 203.88 358.5 203.85 358.92 203.65 358.95 204.71 359.4 205.28 359.63 205.67 359.88 205.99 361.04 207.22 361.04 207.23 361.03 207.25 361.01 207.28 361 207.3 360.99 207.32 360.98 207.34 360.95 207.4 360.9 207.5 360.83 207.63 360.8 207.69 360.76 207.73 360.74 207.76 360.72 207.78 360.68 207.79 360.66 207.8 360.68 208.07 360.59 208.53 360.57 208.53 360.57 208.55 360.58 208.56 360.58 208.65 360.6 208.69 360.61 208.76 360.62 208.87 360.62 208.92 360.63 209.02 360.65 209.11 360.65 209.18 360.66 209.26 360.66 209.4 360.65 209.43 360.65 209.46 360.64 209.5 360.62 209.55 360.61 209.57 360.58 209.61 360.56 209.65 360.51 209.7 360.48 209.75 360.44 209.8 360.42 209.82 360.4 209.84 360.37 209.89 360.36 209.93 360.35 209.93 360.34 209.97 360.32 210.01 360.32 210.03 360.31 210.04 360.29 210.08 360.26 210.16 360.23 210.21 360.22 210.23 360.21 210.26 360.2 210.31 360.19 210.39 360.18 210.43 360.17 210.46 360.17 210.5 360.17 210.54 360.16 210.56 360.15 210.6 360.13 210.63 360.11 210.68 360.09 210.71 360.07 210.75 360.07 210.78 360.05 210.83 360.05 210.9 360.04 210.94 360.04 210.97 360.04 211.02 360.06 211.07 360.07 211.11 360.09 211.16 360.11 211.19 360.12 211.25 360.13 211.3 360.13 211.35 360.14 211.39 360.14 211.41 360.15 211.44 360.15 211.45 360.15 211.48 360.17 211.54 360.17 211.58 360.18 211.61 360.21 211.65 360.21 211.65 359.79 211.97 359.48 212.23 359.22 212.42 358.91 212.68 358.9 212.68 358.53 212.98 358.38 213.09 358.15 213.28 357.59 213.73 357.58 213.74 357.58 213.75 357.6 213.81 357.61 213.84 357.62 213.87 357.65 213.91 357.69 214.02 357.76 214.14 357.8 214.2 357.82 214.23 357.85 214.29 357.87 214.34 357.9 214.39 357.91 214.42 357.93 214.47 357.93 214.48 357.94 214.52 357.96 214.57 357.98 214.63 357.99 214.68 358 214.71 358.02 214.74 358.06 214.77 358.07 214.82 358.1 214.86 358.13 214.91 358.15 214.96 358.17 215 358.2 215.04 358.22 215.09 358.25 215.13 358.28 215.18 358.3 215.25 358.35 215.34 358.35 215.36 358.34 215.42 358.33 215.46 358.33 215.5 358.32 215.55 358.31 215.62 358.31 215.67 358.3 215.72 358.29 215.77 358.27 215.83 358.23 215.88 357.83 216.48 357.33 217.19 356.66 218.14 356.38 217.43 355.49 216.75 355.09 216.52 354.82 216.37 354.65 216.12 354.42 215.96 353.97 215.22 353.9 214.95 353.85 214.52 353.81 214.16 353.8 213.95 353.82 213.7 353.81 213.47 353.89 213.25 353.94 212.99 353.9 211.97 353.87 211.71 353.45 209.86 353.17 209.16 352.91 209.04 352.84 209 352.79 208.98 352.73 208.92 352.7 208.89 352.66 208.85 352.63 208.81 352.56 208.74 352.54 208.71 352.5 208.65 352.46 208.55 352.45 208.52 352.35 208.46 352.15 208.37 352.06 208.34 352.04 208.34 352.05 208.29 352.06 208.22 352.07 208.18 352.08 208.14 352.09 208.11 352.1 208.05 352.11 207.98 352.12 207.94 352.12 207.93 352.13 207.91 352.13 207.91 352.13 207.88 352.15 207.7 352.16 207.64 352.17 207.59 352.21 207.44 352.24 207.39 352.26 207.35 352.27 207.32 352.29 207.23 352.3 207.19 352.32 207.14 352.33 207.07 352.34 207.06 352.35 207.04 352.39 207.01 352.4 206.98 352.43 206.91 352.45 206.83 352.46 206.76 352.47 206.73 352.46 206.68 352.46 206.62 352.46 206.56 352.47 206.51 352.51 206.41 352.52 206.36 352.55 206.22 352.56 206.11 352.56 205.91 352.57 205.69 352.57 205.66 352.57 205.65 352.57 205.56 352.58 205.49 352.57 205.37 352.56 205.27 352.55 205.12 352.54 204.95 352.54 204.91 Z"/>
</g></svg>