<svg xmlns="http://www.w3.org/2000/svg" version="1.2" baseProfile="tiny" stroke-linecap="round" stroke-linejoin="round" viewBox="521.1 247.37 15.62 18.9"><g xmlns="http://www.w3.org/2000/svg" id="Olaibar">
<path d="M 536.7 250.58 536.67 250.59 536.63 250.61 536.55 250.64 536.47 250.66 536.4 250.7 536.32 250.73 536.25 250.75 536.2 250.78 536.11 250.81 536.07 250.82 536.07 250.86 536.07 250.91 536.07 250.97 536.07 251.04 536.07 251.09 536.07 251.14 536.06 251.2 536.07 251.27 536.06 251.32 536.07 251.39 536.07 251.45 536.07 251.51 536.08 251.56 536.08 251.61 536.08 251.68 536.08 251.74 536.09 251.81 536.09 251.88 536.08 251.96 536.08 252.04 536.08 252.1 536.08 252.24 536.08 252.32 536.08 252.4 536.08 252.46 536.08 252.54 536.08 252.63 536.07 252.7 536.07 252.81 536.06 252.9 536.05 253.08 536.04 253.17 536.04 253.25 536.04 253.3 536.03 253.44 536.02 253.61 536.02 253.89 536.01 254.15 536 254.35 536 254.36 536 254.38 536 254.39 536 254.43 536 254.46 535.99 254.5 535.98 254.57 535.98 254.67 535.99 254.75 536 254.8 536.02 254.85 536.09 254.98 536.15 255.13 536.32 255.49 536.4 255.68 536.43 255.82 536.44 255.91 536.44 255.94 536.45 256.01 536.46 256.1 536.48 256.22 536.49 256.28 536.5 256.37 536.52 256.47 536.53 256.55 536.53 256.58 536.52 256.63 536.48 256.73 536.46 256.82 536.4 257 536.28 257.41 536.18 257.71 536.08 258.04 535.98 258.32 535.86 258.66 535.8 258.84 535.74 259 535.62 259.36 535.58 259.45 535.65 259.57 535.78 259.8 535.88 260 535.93 260.11 535.92 260.14 535.82 260.32 535.79 260.39 535.74 260.45 535.61 260.6 535.59 260.63 535.57 260.7 535.56 260.71 535.53 260.79 535.41 261.12 535.37 261.23 535.36 261.24 535.33 261.33 535.21 261.65 535.08 261.94 535.05 261.99 535.03 262.01 535.02 262.03 535.01 262.04 534.95 262.12 534.85 262.24 534.82 262.45 534.8 262.66 534.8 262.73 534.84 262.95 534.87 263.13 534.87 263.15 534.89 263.28 534.94 263.46 534.99 263.6 535.04 263.75 535.05 263.81 535.08 264 535.1 264.19 535.13 264.33 535.17 264.46 535.2 264.62 535.23 264.74 535.26 264.84 535.28 264.92 535.27 264.95 535.27 264.97 535.25 265.01 535.21 265.07 535.15 265.18 535.1 265.28 535.06 265.35 535.01 265.43 534.97 265.51 534.91 265.62 534.85 265.72 534.78 265.84 534.74 265.91 534.66 266.05 534.58 266.19 534.54 266.26 534.38 266.19 534.26 266.13 534.2 266.1 534.19 266.09 533.76 265.84 533.06 265.42 532.74 265.57 532.73 265.57 532.05 265.9 531.66 265.74 531.1 265.51 531.01 265.35 530.85 265.05 530.82 265 530.77 264.92 530.77 264.91 530.76 264.9 530.7 264.8 530.62 264.65 530.54 264.5 530.45 264.45 530.37 264.41 530.28 264.37 530.21 264.34 530.14 264.3 530.07 264.26 529.99 264.22 529.92 264.2 529.88 264.18 529.79 264.15 529.7 264.12 529.63 264.1 529.39 264.07 529.23 264.06 529.17 264.12 528.92 264.4 528.69 264.66 528.5 264.87 528.37 265.02 528.31 265.08 528.25 265.08 528.2 265.07 528.17 265.07 528.19 264.87 528.2 264.67 528.2 264.45 528.17 264.45 528.16 264.45 528.13 264.45 528.08 264.44 528.06 264.44 528 264.43 527.92 264.43 527.89 264.43 527.8 264.43 527.79 264.43 527.69 264.43 527.38 264.38 526.94 264.32 526.75 264.19 526.52 264.04 526.39 263.95 526.25 263.87 525.98 263.71 525.6 263.48 525.58 263.48 524.5 263.11 524.04 263.06 523.77 262.74 523.59 262.53 523.59 262.52 523.38 262.58 522.76 262.74 522.61 262.78 522.64 262.64 522.66 262.55 522.67 262.47 522.7 262.33 522.7 262.28 522.68 262.17 522.65 262.06 522.64 261.99 522.63 261.95 522.63 261.93 522.63 261.91 522.61 261.79 522.58 261.68 522.56 261.56 522.55 261.5 522.53 261.37 522.51 261.28 522.49 261.18 522.48 261.13 522.45 260.98 522.43 260.89 522.43 260.87 522.42 260.84 522.39 260.77 522.35 260.68 522.32 260.6 522.28 260.52 522.26 260.46 522.22 260.37 522.29 260.29 522.32 260.26 522.33 260.26 522.37 260.21 522.45 260.13 522.54 260.03 522.58 260 522.68 259.88 522.74 259.81 522.8 259.76 522.88 259.68 522.93 259.63 523.01 259.56 523.05 259.5 523.11 259.45 523.15 259.4 523.18 259.36 523.24 259.28 523.29 259.21 523.35 259.13 523.4 259.06 523.48 258.96 523.49 258.93 523.54 258.86 523.59 258.81 523.61 258.76 523.6 258.71 523.59 258.61 523.58 258.52 523.57 258.43 523.56 258.35 523.55 258.28 523.54 258.23 523.53 258.15 523.52 258.07 523.51 257.97 523.5 257.87 523.48 257.79 523.47 257.71 523.46 257.63 523.45 257.56 523.44 257.5 523.42 257.44 523.4 257.37 523.38 257.31 523.37 257.29 523.35 257.23 523.34 257.18 523.32 257.13 523.3 257.08 523.29 257.05 523.28 257.02 523.28 256.95 523.28 256.88 523.28 256.78 523.28 256.62 523.3 256.52 523.32 256.42 523.34 256.33 523.37 256.19 523.38 256.11 523.38 256.09 523.37 256.03 523.34 255.96 523.32 255.88 523.31 255.82 523.31 255.74 523.29 255.59 523.26 255.54 523.23 255.49 523.19 255.42 523.17 255.38 523.13 255.33 523.11 255.28 523.07 255.23 523.03 255.16 523.01 255.12 522.98 255.07 522.94 255.02 522.91 254.96 522.84 254.89 522.8 254.83 522.76 254.76 522.7 254.69 522.66 254.65 522.62 254.59 522.59 254.54 522.55 254.49 522.51 254.44 522.47 254.39 522.44 254.37 522.39 254.31 522.34 254.27 522.3 254.22 522.24 254.16 522.21 254.12 522.18 254.09 522.15 254.04 522.12 253.97 522.08 253.9 522.04 253.83 522 253.76 521.98 253.72 521.94 253.66 521.91 253.6 521.88 253.55 521.87 253.54 521.85 253.49 521.83 253.42 521.8 253.37 521.77 253.31 521.75 253.24 521.72 253.16 521.68 253.08 521.65 253 521.63 252.94 521.6 252.83 521.58 252.73 521.55 252.64 521.53 252.57 521.51 252.5 521.47 252.35 521.36 252.27 521.3 252.22 521.27 252.2 521.24 252.19 521.23 252.18 521.2 252.17 521.12 252.12 521.18 252.04 521.21 251.99 521.25 251.92 521.3 251.85 521.34 251.79 521.38 251.73 521.42 251.66 521.47 251.59 521.51 251.52 521.54 251.47 521.56 251.44 521.57 251.43 521.6 251.38 521.63 251.34 521.67 251.27 521.69 251.22 521.72 251.17 521.76 251.1 521.78 251.07 521.8 251.04 521.83 250.99 521.87 250.93 521.87 250.92 521.9 250.87 521.92 250.84 521.94 250.78 521.96 250.72 521.98 250.65 522.01 250.56 522.04 250.48 522.07 250.42 522.1 250.35 522.13 250.29 522.15 250.24 522.16 250.21 522.16 250.2 522.19 250.22 522.22 250.25 522.25 250.28 522.3 250.32 522.34 250.36 522.42 250.44 522.47 250.49 522.52 250.54 522.56 250.59 522.62 250.65 522.66 250.7 522.71 250.75 522.75 250.81 522.8 250.86 522.84 250.91 522.89 250.96 522.93 251.01 522.97 251.06 523.01 251.12 523.05 251.17 523.08 251.22 523.12 251.28 523.15 251.32 523.19 251.38 523.21 251.42 523.25 251.47 523.29 251.52 523.32 251.58 523.36 251.64 523.41 251.71 523.45 251.77 523.48 251.81 523.51 251.86 523.54 251.9 523.58 251.96 523.6 252 523.62 252.05 523.63 252.07 523.79 252 523.9 251.95 524.07 251.87 524.26 251.79 524.45 251.7 524.49 251.68 524.53 251.67 524.7 251.59 525.03 251.44 525.19 251.37 525.27 251.33 525.31 251.31 525.46 251.25 525.53 251.22 525.55 251.22 525.57 251.21 525.62 251.29 525.64 251.34 525.67 251.39 525.71 251.48 525.73 251.53 525.76 251.57 525.78 251.62 525.81 251.65 525.83 251.68 525.85 251.7 525.89 251.75 525.92 251.77 525.94 251.79 525.97 251.81 526 251.82 526.03 251.83 526.05 251.83 526.07 251.84 526.11 251.85 526.13 251.85 526.17 251.86 526.21 251.86 526.25 251.86 526.28 251.86 526.34 251.86 526.36 251.85 526.37 251.84 526.39 251.81 526.43 251.76 526.45 251.73 526.47 251.73 526.48 251.71 526.49 251.71 526.64 251.67 526.66 251.67 526.68 251.67 526.71 251.68 526.72 251.7 526.73 251.71 526.74 251.73 526.74 251.74 526.75 251.74 526.8 251.77 526.85 251.8 526.87 251.82 526.9 251.84 526.94 251.86 526.98 251.88 527 251.88 527.03 251.89 527.08 251.88 527.13 251.87 527.22 251.85 527.26 251.84 527.32 251.83 527.37 251.82 527.41 251.81 527.5 251.79 527.56 251.78 527.63 251.76 527.66 251.71 527.68 251.67 527.7 251.65 527.73 251.6 527.77 251.53 527.8 251.47 527.83 251.42 527.85 251.37 527.87 251.33 527.91 251.25 527.94 251.17 527.97 251.08 527.99 251.05 528 251.03 528.01 251 528.04 250.97 528.07 250.94 528.11 250.88 528.15 250.83 528.19 250.78 528.23 250.73 528.27 250.68 528.31 250.64 528.34 250.6 528.37 250.56 528.42 250.52 528.45 250.48 528.51 250.43 528.55 250.38 528.67 250.27 528.7 250.25 528.71 250.23 528.77 250.18 528.82 250.13 528.88 250.07 528.9 250.02 528.92 249.95 528.94 249.9 528.97 249.82 529 249.74 529.01 249.7 529.04 249.63 529.07 249.55 529.09 249.49 529.13 249.39 529.16 249.29 529.2 249.17 529.23 249.08 529.26 249.01 529.32 248.82 529.57 248.93 529.61 248.92 529.72 248.9 529.8 248.88 529.92 248.86 530.02 248.84 530.13 248.82 530.21 248.81 530.31 248.86 530.45 248.93 530.54 248.98 530.63 249.02 530.68 249.05 530.7 249.06 530.73 249.07 530.74 249.08 530.79 249.1 530.82 249.12 530.88 249.15 530.95 249.14 531.08 249.13 531.22 249.12 531.34 249.11 531.41 249.11 531.45 249.1 531.48 249.1 531.54 249.02 531.59 248.94 531.67 248.83 531.71 248.77 531.75 248.74 531.77 248.69 531.81 248.65 531.84 248.61 531.88 248.56 531.91 248.52 531.94 248.49 531.97 248.45 532 248.4 532.04 248.36 532.07 248.32 532.11 248.27 532.16 248.22 532.19 248.17 532.22 248.13 532.26 248.09 532.3 248.05 532.32 248.02 532.34 247.99 532.37 247.95 532.4 247.92 532.43 247.9 532.47 247.87 532.52 247.83 532.57 247.79 532.62 247.75 532.68 247.7 532.74 247.66 532.78 247.63 532.82 247.6 532.86 247.56 532.91 247.52 532.96 247.48 533.02 247.44 533.05 247.41 533.06 247.4 533.07 247.39 533.09 247.38 533.16 247.41 533.22 247.44 533.29 247.47 533.35 247.5 533.41 247.53 533.48 247.57 533.56 247.61 533.64 247.64 533.7 247.67 533.74 247.69 533.77 247.71 533.82 247.75 533.88 247.8 533.92 247.82 533.96 247.86 533.99 247.88 534.03 247.9 534.09 247.92 534.16 247.94 534.23 247.97 534.31 248 534.38 248.02 534.46 248.05 534.55 248.08 534.64 248.11 534.71 248.14 534.78 248.16 534.85 248.19 534.91 248.21 534.94 248.23 535 248.26 535.07 248.31 535.12 248.35 535.21 248.41 535.22 248.42 535.24 248.43 535.28 248.46 535.34 248.49 535.39 248.51 535.45 248.54 535.49 248.56 535.52 248.58 535.56 248.6 535.59 248.62 535.62 248.66 535.66 248.7 535.69 248.75 535.74 248.81 535.79 248.86 535.85 248.93 535.88 248.96 535.9 249 535.94 249.06 535.97 249.14 536.03 249.24 536.05 249.28 536.09 249.32 536.15 249.39 536.18 249.42 536.26 249.48 536.3 249.57 536.35 249.66 536.39 249.75 536.42 249.82 536.48 249.93 536.52 250.03 536.53 250.06 536.55 250.14 536.57 250.17 536.6 250.25 536.64 250.36 536.66 250.47 536.67 250.48 536.68 250.51 536.68 250.53 536.7 250.58 Z"/>
</g></svg>