<svg xmlns="http://www.w3.org/2000/svg" version="1.2" baseProfile="tiny" stroke-linecap="round" stroke-linejoin="round" viewBox="348.22 246.5 20.25 27.8"><g xmlns="http://www.w3.org/2000/svg" id="Olatzagutia">
<path d="M 348.47 246.52 348.68 246.6 348.83 246.65 348.97 246.68 349.15 246.72 349.27 246.75 349.42 246.81 349.61 246.87 349.72 246.91 349.84 246.93 349.98 246.93 350.09 246.91 350.16 246.89 350.22 246.86 350.27 246.83 350.29 246.82 350.37 246.77 350.39 246.77 350.47 246.84 350.65 247.01 350.81 247.14 350.94 247.22 351.09 247.28 351.15 247.3 351.27 247.33 351.45 247.4 351.64 247.47 351.81 247.56 352.05 247.67 352.28 247.74 352.49 247.84 352.62 247.88 352.77 247.95 352.96 248.05 352.98 248.06 353.07 248.11 353.13 248.15 353.22 248.2 353.3 248.25 353.37 248.3 353.4 248.3 353.41 248.3 353.42 248.29 353.42 248.21 353.43 248.18 353.44 248.14 353.45 248.08 353.47 248.02 353.5 248 353.52 247.99 353.54 247.99 353.59 248.01 353.63 248.01 353.67 248.01 353.71 248 353.73 247.97 353.73 247.92 353.74 247.88 353.74 247.86 353.75 247.82 353.76 247.81 353.76 247.81 353.77 247.76 353.77 247.73 353.77 247.71 353.77 247.69 353.79 247.66 353.8 247.62 353.83 247.57 353.87 247.46 353.89 247.42 353.98 247.37 353.97 247.36 353.91 247.32 353.93 247.31 353.97 247.28 354.01 247.26 354.04 247.25 354.09 247.27 354.1 247.28 354.2 247.32 354.29 247.36 354.33 247.36 354.36 247.36 354.38 247.34 354.41 247.32 354.42 247.31 354.46 247.28 354.5 247.27 354.54 247.28 354.55 247.28 354.59 247.29 354.7 247.3 354.8 247.32 354.9 247.35 354.98 247.39 355.07 247.44 355.13 247.49 355.21 247.57 355.28 247.62 355.33 247.65 355.41 247.67 355.48 247.68 355.56 247.71 355.65 247.75 355.73 247.79 355.79 247.84 355.83 247.91 355.83 247.93 355.84 247.98 355.88 248.02 355.95 248.08 355.99 248.11 356.05 248.15 356.15 248.2 356.19 248.22 356.22 248.25 356.23 248.31 356.23 248.38 356.23 248.45 356.21 248.54 356.19 248.62 356.17 248.72 356.18 248.76 356.2 248.79 356.26 248.8 356.37 248.81 356.5 248.8 356.61 248.77 356.69 248.74 356.75 248.73 356.8 248.74 356.89 248.82 356.9 248.84 356.91 248.85 356.94 248.88 356.98 248.96 356.98 248.99 357 249.06 357.03 249.15 357.1 249.25 357.19 249.39 357.21 249.41 357.31 249.55 357.38 249.66 357.45 249.73 357.46 249.74 357.49 249.79 357.53 249.89 357.58 250.04 357.62 250.14 357.65 250.2 357.68 250.3 357.69 250.35 357.71 250.39 357.73 250.43 357.75 250.47 357.79 250.52 357.81 250.57 357.82 250.6 357.82 250.64 357.82 250.69 357.81 250.75 357.79 250.82 357.78 250.86 357.75 250.89 357.72 250.93 357.71 250.95 357.69 250.97 357.68 251.01 357.67 251.05 357.67 251.11 357.67 251.16 357.67 251.23 357.68 251.28 357.7 251.31 357.72 251.34 357.76 251.35 357.8 251.37 357.85 251.38 357.9 251.39 357.94 251.39 357.98 251.4 358.03 251.41 358.05 251.43 358.07 251.45 358.07 251.49 358.04 251.54 358.01 251.59 357.99 251.63 357.97 251.67 357.92 251.73 357.88 251.77 357.84 251.79 357.81 251.81 357.76 251.83 357.73 251.86 357.7 251.89 357.67 251.93 357.66 251.96 357.65 252.01 357.64 252.04 357.65 252.07 357.66 252.1 357.66 252.15 357.69 252.2 357.7 252.23 357.73 252.27 357.75 252.31 357.77 252.34 357.78 252.37 357.77 252.42 357.76 252.47 357.75 252.51 357.73 252.55 357.7 252.58 357.63 252.62 357.59 252.63 357.55 252.65 357.52 252.68 357.48 252.71 357.45 252.74 357.42 252.78 357.38 252.82 357.35 252.86 357.32 252.91 357.3 252.96 357.28 253.01 357.26 253.07 357.24 253.12 357.23 253.17 357.22 253.22 357.22 253.26 357.23 253.3 357.23 253.33 357.23 253.36 357.24 253.4 357.24 253.42 357.23 253.45 357.21 253.49 357.2 253.52 357.18 253.55 357.16 253.6 357.13 253.64 357.11 253.69 357.07 253.78 357.05 253.82 357.03 253.87 357.01 253.92 356.99 253.96 356.96 254.01 356.94 254.08 356.92 254.12 356.91 254.17 356.9 254.21 356.88 254.26 356.88 254.31 356.88 254.35 356.88 254.39 356.88 254.43 356.89 254.48 356.89 254.51 356.89 254.52 356.9 254.57 356.92 254.61 356.93 254.67 356.95 254.72 356.97 254.76 357.01 254.82 357.04 254.86 357.05 254.89 357.08 254.92 357.11 254.95 357.13 254.97 357.16 254.99 357.21 255.02 357.26 255.04 357.31 255.06 357.36 255.08 357.41 255.09 357.46 255.1 357.51 255.1 357.55 255.11 357.62 255.11 357.67 255.1 357.72 255.09 357.77 255.07 357.83 255.05 357.86 255.03 357.9 255.01 357.94 254.99 357.96 254.98 358.01 254.97 358.05 254.96 358.07 254.96 358.1 254.98 358.13 255 358.16 255.02 358.19 255.04 358.24 255.07 358.27 255.1 358.31 255.14 358.34 255.17 358.37 255.19 358.4 255.22 358.42 255.25 358.46 255.28 358.49 255.3 358.52 255.3 358.53 255.31 358.56 255.31 358.59 255.31 358.62 255.3 358.66 255.29 358.71 255.29 358.75 255.29 358.77 255.28 358.81 255.26 358.84 255.25 358.87 255.25 358.89 255.26 358.91 255.27 358.93 255.28 358.96 255.31 358.98 255.33 359 255.35 359.03 255.36 359.07 255.37 359.1 255.38 359.12 255.39 359.13 255.41 359.14 255.42 359.17 255.45 359.21 255.49 359.23 255.52 359.25 255.53 359.28 255.54 359.31 255.55 359.33 255.56 359.36 255.57 359.37 255.59 359.38 255.61 359.39 255.64 359.39 255.66 359.39 255.69 359.4 255.72 359.4 255.72 359.4 255.75 359.41 255.78 359.42 255.82 359.43 255.85 359.45 255.9 359.47 255.96 359.49 256 359.51 256.03 359.52 256.07 359.54 256.09 359.56 256.1 359.57 256.11 359.6 256.12 359.63 256.12 359.64 256.12 359.71 256.15 359.83 256.21 359.9 256.25 359.92 256.28 359.94 256.32 359.97 256.37 360 256.41 360.01 256.44 360.03 256.49 360.04 256.52 360.05 256.54 360.06 256.58 360.07 256.62 360.09 256.68 360.11 256.73 360.12 256.76 360.15 256.79 360.21 256.84 360.26 256.89 360.3 256.93 360.34 256.96 360.37 256.98 360.39 257 360.4 257 360.42 257.02 360.45 257.05 360.48 257.08 360.53 257.12 360.57 257.16 360.62 257.21 360.66 257.25 360.69 257.29 360.73 257.32 360.76 257.35 360.78 257.37 360.81 257.39 360.84 257.42 360.87 257.43 360.9 257.46 360.95 257.5 361 257.54 361.03 257.56 361.06 257.58 361.09 257.62 361.13 257.66 361.16 257.69 361.2 257.73 361.23 257.76 361.26 257.79 361.29 257.84 361.33 257.88 361.35 257.91 361.38 257.93 361.4 257.97 361.43 258 361.44 258.01 361.47 258.01 361.51 258.02 361.54 258.04 361.56 258.05 361.59 258.06 361.63 258.09 361.67 258.13 361.71 258.17 361.76 258.21 361.82 258.26 361.87 258.32 361.92 258.39 361.94 258.42 361.96 258.45 362 258.5 362.04 258.56 362.07 258.6 362.12 258.67 362.17 258.73 362.22 258.78 362.28 258.85 362.39 258.99 362.45 259.06 362.49 259.13 362.54 259.2 362.6 259.28 362.65 259.35 362.69 259.41 362.73 259.49 362.78 259.56 362.79 259.58 362.82 259.66 362.87 259.76 362.91 259.87 362.96 260 362.99 260.07 363.02 260.14 363.04 260.23 363.07 260.32 363.08 260.38 363.1 260.46 363.12 260.52 363.15 260.59 363.17 260.65 363.2 260.71 363.23 260.8 363.23 260.82 363.27 260.94 363.33 261.08 363.39 261.23 363.47 261.42 363.47 261.43 363.53 261.61 363.58 261.75 363.6 261.81 363.6 261.82 363.61 261.83 363.62 261.89 363.64 261.99 363.68 262.1 363.69 262.17 363.7 262.18 363.69 262.19 363.69 262.24 363.69 262.26 363.69 262.3 363.69 262.39 363.69 262.43 363.69 262.45 363.72 262.46 363.73 262.47 363.78 262.51 363.81 262.55 363.85 262.59 363.88 262.65 363.9 262.69 363.91 262.71 363.92 262.72 363.94 262.75 363.96 262.77 363.97 262.78 364 262.81 364.03 262.83 364.06 262.85 364.12 262.89 364.14 262.94 364.17 262.97 364.18 263 364.21 263.04 364.22 263.05 364.25 263.1 364.27 263.12 364.29 263.15 364.31 263.18 364.35 263.24 364.37 263.27 364.39 263.3 364.39 263.32 364.41 263.35 364.42 263.38 364.43 263.41 364.44 263.43 364.46 263.47 364.47 263.5 364.48 263.54 364.48 263.55 364.5 263.57 364.53 263.6 364.54 263.61 364.55 263.63 364.57 263.66 364.61 263.73 364.63 263.76 364.64 263.77 364.66 263.79 364.71 263.87 364.77 263.97 364.81 264.03 364.81 264.03 364.82 264.05 364.89 264.14 364.91 264.18 364.96 264.24 365.03 264.36 365.04 264.37 365.07 264.41 365.2 264.61 365.24 264.67 365.27 264.72 365.3 264.77 365.35 264.84 365.38 264.89 365.39 264.9 365.53 265.12 365.56 265.15 365.68 265.35 365.7 265.37 365.71 265.39 365.74 265.44 365.75 265.46 365.75 265.47 365.76 265.49 366 265.89 366.46 266.55 366.53 266.65 367.93 268.66 368.25 269.13 368.44 269.4 368.26 269.43 368.23 269.44 368.13 269.46 368.02 269.51 367.98 269.53 367.91 269.55 367.84 269.57 367.72 269.61 367.56 269.65 367.44 269.69 367.32 269.73 367.21 269.78 367.11 269.83 367 269.88 366.87 269.95 366.79 269.99 366.7 270.02 366.61 270.06 366.54 270.11 366.45 270.16 366.35 270.22 366.25 270.28 366.17 270.32 366.09 270.37 366.02 270.41 365.95 270.44 365.9 270.48 365.86 270.5 365.84 270.52 365.82 270.55 365.82 270.61 365.79 270.66 365.73 270.74 365.7 270.78 365.65 270.82 365.6 270.82 365.53 270.84 365.48 270.87 365.43 270.9 365.33 271.03 365.26 271.1 365.21 271.14 365.17 271.17 365.15 271.2 365.12 271.26 365.07 271.32 364.97 271.42 364.88 271.5 364.8 271.54 364.74 271.57 364.68 271.59 364.62 271.63 364.58 271.65 364.54 271.64 364.5 271.62 364.48 271.62 364.45 271.64 364.39 271.7 364.29 271.8 364.22 271.87 364.16 271.9 364.11 271.94 364.06 271.98 364.04 272.04 364.02 272.11 363.98 272.16 363.95 272.24 363.93 272.32 363.91 272.4 363.92 272.46 363.93 272.53 363.97 272.63 364.02 272.72 364.08 272.83 364.14 272.96 364.16 273.04 364.17 273.11 364.19 273.15 364.19 273.16 364.19 273.18 364.2 273.19 364.22 273.22 364.24 273.27 364.24 273.33 364.21 273.37 364.13 273.46 363.98 273.59 363.86 273.69 363.79 273.78 363.68 273.88 363.61 273.92 363.59 273.94 363.48 273.97 363.41 273.99 363.34 274 363.19 273.98 363.01 273.94 362.81 273.89 362.73 273.87 362.7 273.86 362.53 273.83 362.41 273.8 362.3 273.77 362.17 273.73 361.97 273.69 361.82 273.67 361.67 273.68 361.52 273.69 361.39 273.72 361.26 273.73 361.21 273.72 361.19 273.72 361.18 273.72 361.02 273.74 360.93 273.74 360.8 273.73 360.64 273.73 360.44 273.74 360.33 273.74 360.19 273.74 360.07 273.74 359.94 273.75 359.82 273.76 359.67 273.79 359.38 273.82 359.15 273.84 358.98 273.86 358.76 273.9 358.54 273.94 358.47 273.97 358.39 273.99 358.24 274.03 358.1 274.06 358.02 274.07 357.88 274.09 357.73 274.11 357.62 274.13 357.53 274.14 357.44 274.16 357.35 274.19 357.28 274.2 357.23 274.21 357.19 274.21 357.07 274.26 356.94 274.3 356.87 274.25 356.8 274.18 356.75 274.1 356.7 274.03 356.63 273.94 356.57 273.88 356.56 273.84 356.52 273.78 356.5 273.7 356.48 273.63 356.46 273.57 356.43 273.46 356.4 273.35 356.34 273.18 356.29 273.02 356.23 272.86 356.19 272.75 356.12 272.63 356.09 272.56 356.09 272.55 356.06 272.45 356.03 272.37 355.99 272.29 355.94 272.2 355.9 272.1 355.87 272.02 355.83 271.97 355.79 271.92 355.74 271.86 355.69 271.82 355.64 271.78 355.63 271.78 355.6 271.74 355.58 271.68 355.55 271.63 355.53 271.6 355.5 271.58 355.44 271.54 355.39 271.5 355.38 271.47 355.35 271.39 355.32 271.32 355.28 271.25 355.25 271.19 355.22 271.16 355.17 271.12 355.1 271.05 355.05 270.98 355.04 270.94 355.03 270.94 355.03 270.92 355.01 270.9 355 270.89 354.98 270.87 354.96 270.85 354.95 270.84 354.95 270.82 354.96 270.8 354.96 270.75 354.93 270.69 354.9 270.61 354.87 270.55 354.82 270.49 354.77 270.42 354.73 270.36 354.73 270.36 354.72 270.35 354.71 270.29 354.7 270.28 354.7 270.27 354.7 270.22 354.71 270.16 354.72 270.09 354.72 270.02 354.71 269.98 354.68 269.93 354.67 269.87 354.67 269.86 354.65 269.82 354.64 269.76 354.62 269.7 354.56 269.62 354.51 269.57 354.5 269.56 354.51 269.52 354.53 269.47 354.53 269.4 354.53 269.33 354.55 269.28 354.57 269.25 354.62 269.21 354.67 269.16 354.7 269.11 354.72 269.04 354.73 268.97 354.74 268.88 354.75 268.81 354.75 268.75 354.76 268.69 354.76 268.65 354.74 268.62 354.72 268.57 354.72 268.56 354.72 268.53 354.71 268.51 354.71 268.49 354.7 268.46 354.7 268.44 354.63 268.21 354.62 268.18 354.61 268.11 354.59 268.07 354.55 267.97 354.51 267.87 354.46 267.77 354.43 267.7 354.41 267.66 354.4 267.64 354.34 267.49 354.3 267.41 354.26 267.34 354.24 267.28 354.21 267.22 354.19 267.15 354.17 267.1 354.15 267.06 354.13 267.01 354.11 266.95 354.1 266.9 354.08 266.83 354.07 266.76 354.05 266.66 354.03 266.56 354.01 266.48 354.01 266.47 353.99 266.41 353.97 266.32 353.97 266.31 353.96 266.21 353.97 266.17 353.96 266.07 353.96 266.05 353.95 265.9 353.95 265.76 353.92 265.61 353.89 265.46 353.86 265.34 353.82 265.24 353.79 265.16 353.73 265.03 353.72 264.97 353.72 264.96 353.71 264.95 353.71 264.89 353.69 264.8 353.66 264.68 353.6 264.49 353.55 264.32 353.54 264.31 353.5 264.19 353.46 264.05 353.37 263.81 353.31 263.58 353.27 263.35 353.23 263.13 353.18 262.89 353.16 262.78 353.13 262.59 353.09 262.43 353.04 262.19 352.98 261.88 352.94 261.75 352.91 261.63 352.91 261.59 352.92 261.5 352.95 261.39 352.99 261.27 353.04 261.15 353.09 261.05 353.11 260.99 353.15 260.94 353.17 260.87 353.19 260.8 353.14 260.78 352.92 260.59 352.68 260.41 352.59 260.36 352.48 260.28 352.36 260.2 352.23 260.09 352.12 260.02 352 259.92 351.89 259.85 351.83 259.81 351.81 259.77 351.81 259.7 351.83 259.66 351.84 259.62 351.9 259.52 351.98 259.38 352.03 259.28 352.05 259.21 352.06 259.16 352.05 259.1 352.01 258.96 351.96 258.72 351.94 258.61 351.91 258.47 351.9 258.35 351.88 258.18 351.85 258.08 351.82 257.99 351.77 257.82 351.76 257.75 351.72 257.59 351.7 257.47 351.66 257.29 351.63 257.14 351.61 257.02 351.6 256.94 351.56 256.83 351.55 256.71 351.56 256.58 351.55 256.44 351.54 256.34 351.51 256.24 351.49 256.13 351.48 256.03 351.47 255.93 351.47 255.81 351.47 255.7 351.47 255.61 351.45 255.58 351.4 255.52 351.4 255.51 351.36 255.47 351.3 255.41 351.21 255.32 351.08 255.22 350.99 255.15 350.93 255.1 350.93 255.07 350.94 255 350.96 254.92 350.99 254.78 351.02 254.65 351.02 254.63 350.97 254.5 350.91 254.33 350.85 254.2 350.79 254.02 350.75 253.91 350.72 253.84 350.73 253.82 350.75 253.78 350.78 253.71 350.79 253.63 350.81 253.57 350.84 253.5 350.88 253.41 350.92 253.37 350.97 253.31 351.05 253.24 351.08 253.2 351.12 253.14 351.17 253.06 351.24 252.95 351.31 252.83 351.37 252.74 351.46 252.63 351.55 252.52 351.62 252.44 351.67 252.36 351.72 252.27 351.74 252.17 351.76 252.06 351.76 251.93 351.77 251.84 351.8 251.75 351.83 251.64 351.85 251.56 351.86 251.41 351.86 251.28 351.84 251.16 351.86 251.03 351.92 250.9 351.97 250.71 352.02 250.55 352.04 250.46 352.05 250.38 352.04 250.28 352.03 250.18 352.04 250.05 352.06 249.95 352.09 249.81 352.15 249.62 352.2 249.46 352.26 249.32 352.29 249.23 352.3 249.19 352.3 249.16 352.3 249.13 352.3 249.1 352.29 249.02 352.29 248.99 352.29 248.84 352.29 248.82 352.29 248.76 352.12 248.65 351.88 248.5 351.8 248.45 351.71 248.38 351.55 248.28 351.42 248.2 351.28 248.11 351.12 248.01 351.01 247.93 350.9 247.83 350.81 247.75 350.71 247.67 350.61 247.61 350.47 247.52 350.37 247.47 350.27 247.42 350.13 247.37 349.96 247.33 349.82 247.29 349.69 247.25 349.61 247.23 349.58 247.23 349.55 247.23 349.42 247.23 349.32 247.22 349.2 247.22 349.11 247.21 348.95 247.2 348.86 247.19 348.7 247.19 348.56 247.2 348.41 247.21 348.31 247.2 348.22 247.17 348.25 247.03 348.26 247 348.3 246.88 348.34 246.76 348.41 246.63 348.46 246.54 348.47 246.52 Z"/>
</g></svg>