<svg xmlns="http://www.w3.org/2000/svg" version="1.2" baseProfile="tiny" stroke-linecap="round" stroke-linejoin="round" viewBox="439.5 260.92 35.78 23.08"><g xmlns="http://www.w3.org/2000/svg" id="Ollo">
<path d="M 466.22 262.87 466.26 262.89 466.37 262.95 466.48 262.99 466.54 263 466.64 263.01 466.72 263.05 466.79 263.1 466.86 263.15 466.91 263.24 466.99 263.36 467.05 263.47 467.09 263.55 467.13 263.59 467.14 263.61 467.15 263.7 467.14 263.77 467.13 263.82 467.11 263.87 467.08 263.91 467.05 263.93 467.02 263.97 466.98 264.05 466.91 264.15 466.85 264.22 466.81 264.24 466.79 264.26 466.73 264.27 466.62 264.28 466.51 264.29 466.37 264.32 466.25 264.34 466.18 264.36 466.12 264.38 466.08 264.43 466.02 264.48 465.94 264.54 465.89 264.59 465.86 264.64 465.83 264.7 465.78 264.8 465.76 264.88 465.76 264.94 465.76 265 465.79 265.07 465.84 265.19 465.86 265.25 465.88 265.31 465.9 265.4 465.91 265.53 465.93 265.64 465.94 265.77 465.96 265.88 465.98 265.94 466 265.99 466 266.02 466.03 266.12 466.05 266.21 466.1 266.39 466.13 266.45 466.14 266.48 466.16 266.51 466.18 266.54 466.22 266.57 466.3 266.62 466.35 266.64 466.38 266.66 466.43 266.7 466.51 266.77 466.55 266.81 466.65 266.88 466.73 266.92 466.78 266.95 466.82 266.96 466.88 266.97 466.96 266.97 467.07 266.98 467.17 266.99 467.3 267.01 467.4 267.02 467.42 267.02 467.45 267.04 467.48 267.07 467.52 267.12 467.55 267.23 467.57 267.28 467.59 267.33 467.61 267.37 467.64 267.4 467.65 267.42 467.66 267.46 467.64 267.52 467.64 267.55 467.64 267.59 467.65 267.63 467.67 267.68 467.69 267.74 467.71 267.8 467.71 267.86 467.73 267.91 467.73 267.97 467.74 268.03 467.74 268.07 467.74 268.13 467.72 268.18 467.69 268.22 467.67 268.25 467.63 268.29 467.36 268.57 467.29 268.64 467.25 268.66 467.21 268.68 467.17 268.7 467.1 268.79 467.04 268.86 467 268.9 466.96 268.94 466.91 268.98 467 269.03 467.02 269.05 467.03 269.05 467.05 269.06 467.09 269.08 467.1 269.09 467.16 269.13 467.28 269.17 467.42 269.22 467.56 269.26 467.65 269.27 467.7 269.27 467.77 269.27 467.85 269.26 467.9 269.26 467.97 269.25 468.05 269.23 468.14 269.22 468.22 269.19 468.29 269.17 468.36 269.16 468.42 269.15 468.49 269.15 468.54 269.14 468.6 269.15 468.66 269.16 468.73 269.16 468.8 269.18 468.83 269.18 468.86 269.19 468.87 269.18 468.95 269.16 469.02 269.13 469.07 269.11 469.1 269.11 469.14 269.11 469.22 269.11 469.25 269.1 469.31 269.11 469.38 269.12 469.51 269.19 469.69 269.26 469.86 269.29 469.9 269.31 469.92 269.32 469.84 269.48 469.8 269.57 469.78 269.6 469.78 269.62 469.77 269.62 469.76 269.65 469.76 269.67 469.76 269.68 469.76 269.7 469.77 269.72 469.78 269.74 469.84 269.8 469.92 269.88 469.95 269.92 469.96 269.94 469.98 269.95 469.98 269.96 470.02 270.01 469.95 270.08 469.7 270.26 469.63 270.33 469.58 270.37 469.55 270.39 469.53 270.42 469.52 270.46 469.51 270.49 469.51 270.54 469.52 270.59 469.53 270.63 469.54 270.67 469.56 270.72 469.58 270.77 469.59 270.85 469.65 270.84 469.71 270.83 469.97 270.75 470.58 270.63 470.59 271.38 470.78 271.51 470.75 271.64 470.75 271.66 470.72 271.76 470.68 271.88 470.67 271.91 470.62 272.04 470.64 272.04 470.68 272.05 470.78 272.08 471.12 272.17 471.4 272.23 471.48 272.26 471.5 272.26 471.64 272.3 471.61 272.45 471.57 272.54 471.53 272.63 471.49 272.72 471.45 272.81 471.4 272.9 471.33 273.07 471.3 273.21 471.29 273.28 471.31 273.4 471.3 273.69 471.33 273.68 471.34 273.68 471.39 273.67 471.6 273.65 471.61 273.65 471.63 273.64 471.62 273.4 471.64 273.4 471.81 273.36 471.94 273.34 472.14 273.29 472.18 273.28 472.24 273.27 472.36 273.24 472.39 273.31 472.4 273.34 472.43 273.43 472.46 273.5 472.48 273.53 472.55 273.62 472.6 273.71 472.62 273.74 472.65 273.77 472.71 273.83 472.78 273.87 472.79 273.87 472.82 273.88 472.86 273.9 472.95 273.95 473.05 274.01 473.12 274.05 473.26 274.13 473.28 274.14 473.62 274.4 473.63 274.41 473.75 274.48 473.84 274.53 473.89 274.55 473.9 274.55 473.93 274.56 473.99 274.58 474.02 274.68 474.04 274.7 474.08 274.76 474.1 274.77 474.14 274.83 474.15 274.85 474.16 274.89 474.19 275.02 474.23 275.1 474.25 275.16 474.29 275.33 474.34 275.56 474.42 275.98 474.43 276 474.44 276.02 474.45 276.05 474.5 276.22 474.46 276.35 474.43 276.43 474.41 276.46 474.4 276.49 474.37 276.53 474.31 276.65 474.28 276.69 474.27 276.71 474.26 276.72 474.2 276.83 474.19 276.84 474.19 276.85 474.12 276.95 474.04 277.06 473.96 277.19 473.89 277.3 473.81 277.46 473.75 277.59 473.7 277.69 473.65 277.78 473.63 277.8 473.58 277.89 473.55 277.94 473.53 277.98 473.52 278.01 473.5 278.05 473.49 278.08 473.44 278.2 473.4 278.3 473.4 278.32 473.37 278.41 473.77 278.52 474.38 278.6 474.45 278.62 474.55 278.66 474.82 278.84 475.04 279.03 475.28 279.35 475.15 279.4 475.06 279.44 475.04 279.44 475.03 279.45 475 279.46 474.6 279.62 474.58 279.63 474.53 279.64 474.49 279.66 474.48 279.67 474.43 279.68 474.4 279.7 474.39 279.7 474.36 279.71 474.3 279.73 474.29 279.74 474.19 279.78 474.18 279.78 474.16 279.79 474.15 279.79 474.15 279.78 474.07 279.69 474.04 279.65 473.9 279.49 473.84 279.51 473.74 279.54 473.72 279.54 473.68 279.55 473.65 279.56 473.5 279.61 473.48 279.61 473.47 279.61 473.42 279.63 473.1 279.75 472.63 280.03 472.35 280.2 471.65 280.62 471.24 280.87 471.16 280.92 470.85 281.12 470.7 281.21 470.59 281.25 470.44 281.29 470.35 281.31 470.28 281.33 470.22 281.36 470.14 281.4 470.12 281.4 470.05 281.49 470.02 281.54 469.99 281.6 469.9 281.75 469.86 281.81 469.83 281.84 469.8 281.9 469.72 282.02 469.6 282.21 469.56 282.3 469.45 282.42 469.37 282.49 469.27 282.56 469.25 282.57 469.18 282.62 469.1 282.67 469.01 282.71 468.93 282.75 468.86 282.78 468.76 282.82 468.69 282.84 468.61 282.88 468.53 282.94 468.44 283 468.43 283.02 468.38 283.07 468.31 283.13 468.27 283.18 468.22 283.23 468.16 283.29 468.11 283.32 468 283.37 467.88 283.43 467.75 283.48 467.63 283.54 467.43 283.63 467.22 283.73 467.14 283.75 467.02 283.76 466.87 283.79 466.75 283.81 466.67 283.84 466.49 283.91 466.32 283.95 466.19 283.98 466.05 283.99 465.93 283.98 465.76 283.95 465.56 283.89 465.36 283.81 465.17 283.73 465.07 283.68 464.92 283.61 464.8 283.54 464.68 283.44 464.56 283.33 464.43 283.2 464.3 283.08 464.19 282.96 464.09 282.84 464 282.74 463.89 282.58 463.76 282.4 463.69 282.32 463.64 282.25 463.55 282.14 463.51 282.09 463.36 281.85 463.09 281.4 462.85 281.05 462.69 280.83 462.52 280.6 462.3 280.31 462.14 280.1 461.95 279.89 461.78 279.7 461.7 279.61 461.66 279.77 461.58 280.05 461.52 280.2 461.45 280.35 461.31 280.52 461.15 280.67 460.96 280.83 460.85 280.94 460.73 281.02 460.65 281.07 460.55 281.12 460.45 281.17 460.42 281.19 460.32 281.23 460.27 281.25 460.15 281.28 459.87 281.35 459.6 281.4 459.33 281.45 459.21 281.46 459.2 281.47 459.14 281.55 459.04 281.66 458.94 281.78 458.84 281.9 458.71 282.07 458.62 282.17 458.22 282.19 458.15 282.2 458.12 282.21 458.07 282.22 458.02 282.22 457.96 282.22 457.9 282.21 457.85 282.21 457.79 282.21 457.72 282.22 457.66 282.22 457.62 282.23 457.56 282.22 457.47 282.19 457.39 282.17 457.32 282.16 457.23 282.12 457.11 282.08 456.99 282.02 456.89 281.98 456.76 281.92 456.65 281.87 456.55 281.82 456.42 281.76 456.32 281.72 456.21 281.66 456.11 281.6 456.05 281.58 456 281.57 455.85 281.55 455.69 281.53 455.6 281.53 455.58 281.54 455.55 281.54 455.49 281.58 455.42 281.61 455.39 281.63 455.35 281.65 455.34 281.66 455.32 281.68 455.31 281.7 455.3 281.71 455.29 281.72 455.29 281.72 455.25 281.78 455.24 281.8 455.2 281.84 455.18 281.87 455.15 281.91 455.13 281.93 455.1 281.97 455.08 282 455.06 282.06 455.04 282.15 455.02 282.25 455.01 282.33 455 282.37 454.99 282.42 454.97 282.47 454.92 282.43 454.88 282.39 454.83 282.33 454.75 282.22 454.69 282.15 454.68 282.09 454.65 281.99 454.62 281.87 454.74 281.81 454.74 281.8 454.73 281.75 454.66 281.59 454.59 281.44 454.52 281.29 454.44 281.15 454.37 281.06 454.31 281 454.23 280.94 454.13 280.88 454.03 280.82 453.92 280.78 453.81 280.75 453.66 280.71 453.55 280.67 453.45 280.62 453.32 280.56 453.19 280.5 453.1 280.45 453.04 280.41 453 280.38 452.63 280.17 452.34 279.99 452.27 279.95 452.27 279.93 452.26 279.74 452.24 279.55 452.25 279.33 452.24 279.15 452.23 279.01 452.2 278.82 452.16 278.65 452.15 278.61 452.13 278.49 451.96 278.21 451.82 278 451.66 277.78 451.55 277.63 451.48 277.54 451.37 277.39 451.28 277.3 451.24 277.22 451.22 277.15 451.18 276.97 451.17 276.92 451.15 276.88 451.14 276.85 451.07 276.75 450.96 276.62 450.88 276.52 450.82 276.45 450.73 276.37 450.63 276.29 450.61 276.26 450.59 276.25 450.59 276.24 450.56 276.21 450.54 276.19 450.45 276.1 450.34 276.02 450.26 275.97 450.22 275.96 450.19 275.92 450.14 275.85 450.06 275.74 450.02 275.67 449.97 275.58 449.94 275.48 449.91 275.38 449.88 275.28 449.84 275.17 449.81 275.08 449.8 275.05 449.78 274.96 449.72 274.79 449.67 274.63 449.63 274.5 449.61 274.41 449.56 274.3 449.55 274.27 449.53 274.23 449.46 274.09 449.37 273.92 449.27 273.73 449.21 273.6 449.16 273.51 449.11 273.41 449.09 273.34 449.07 273.21 449.07 273.01 449.07 272.88 449.07 272.75 449.06 272.66 449.03 272.59 448.99 272.52 448.93 272.45 448.8 272.32 448.65 272.21 448.49 272.09 448.33 271.98 448.18 271.87 448.05 271.78 447.96 271.69 447.87 271.57 447.79 271.44 447.68 271.27 447.62 271.19 447.57 271.14 447.42 271.02 447.17 270.85 447.05 270.76 446.93 270.66 446.82 270.55 446.69 270.42 446.52 270.27 446.38 270.15 446.32 270.11 446.26 270.1 446.1 269.99 445.85 269.82 445.72 269.75 445.61 269.72 445.57 269.71 445.49 269.72 445.42 269.73 445.3 269.78 445.13 269.85 444.97 269.89 444.86 269.93 444.76 269.96 444.68 269.99 444.63 270 444.59 270.01 444.47 270.01 444.29 270 444.17 269.99 444.04 269.98 443.94 269.98 443.87 269.99 443.76 269.99 443.63 270.01 443.54 270.03 443.45 270.04 443.35 270.05 443.25 270.05 443.18 270.06 443.13 270.06 443 270.05 442.86 270.04 442.77 270.02 442.69 270 442.65 270 442.55 269.99 442.43 269.98 442.35 269.97 442.19 269.97 442.07 269.98 441.98 269.98 441.88 269.98 441.75 269.98 441.56 269.95 441.42 269.93 441.28 269.91 441.26 269.91 441.12 269.9 441.08 269.89 440.89 269.89 440.71 269.89 440.51 269.9 440.25 269.88 440.09 269.87 439.92 269.86 439.73 269.84 439.57 269.8 439.51 269.78 439.52 269.75 439.55 269.64 439.58 269.54 439.61 269.44 439.65 269.33 439.67 269.26 439.68 269.22 439.7 269.18 439.75 269.07 439.78 268.99 439.81 268.91 439.83 268.85 439.85 268.82 439.91 268.79 439.98 268.75 440.07 268.71 440.16 268.67 440.25 268.63 440.31 268.59 440.38 268.56 440.47 268.51 440.55 268.46 440.63 268.41 440.7 268.37 440.82 268.34 440.88 268.32 440.96 268.3 441.05 268.28 441.09 268.28 441.18 268.25 441.31 268.21 441.4 268.2 441.53 268.18 441.62 268.16 441.76 268.14 441.86 268.12 441.98 268.1 442.04 268.09 442.08 268.08 442.17 268.08 442.29 268.07 442.43 268.06 442.52 268.06 442.54 268.06 442.59 268.07 442.65 268.09 442.7 268.07 442.77 268.03 442.84 267.99 442.86 267.98 442.93 267.94 443 267.9 443.05 267.87 443.14 267.85 443.22 267.83 443.28 267.82 443.37 267.8 443.49 267.77 443.63 267.74 443.78 267.7 443.93 267.67 444.05 267.63 444.16 267.61 444.23 267.62 444.35 267.64 444.43 267.66 444.51 267.67 444.61 267.68 444.69 267.69 444.78 267.71 444.86 267.73 444.82 267.67 444.77 267.58 444.7 267.45 444.67 267.39 444.64 267.34 444.59 267.26 444.55 267.2 444.46 267.11 444.36 267 444.26 266.9 444.16 266.79 444.06 266.68 443.97 266.59 443.9 266.52 443.83 266.45 443.8 266.39 443.72 266.28 443.64 266.17 443.57 266.08 443.51 266.01 443.44 265.93 443.38 265.85 443.31 265.76 443.24 265.67 443.18 265.6 443.12 265.54 443.02 265.46 442.91 265.37 442.79 265.28 442.66 265.18 442.56 265.08 442.45 265 442.37 264.93 442.29 264.87 442.18 264.77 442.09 264.68 442.02 264.6 441.96 264.53 441.96 264.5 441.95 264.43 441.94 264.38 441.92 264.27 441.9 264.13 441.88 264.01 441.87 263.91 441.94 263.77 441.97 263.69 442.03 263.57 442.04 263.55 442.2 263.47 442.44 263.45 442.82 263.31 443.16 263.25 443.68 263.14 444.16 263.02 444.48 262.92 445.31 262.65 445.66 262.55 446.09 262.45 446.35 262.41 446.76 262.35 447.24 262.28 447.82 262.18 447.95 262.16 448.14 262.13 448.47 262.1 448.77 262.08 449.96 262.14 450.91 262.21 451.77 262.55 452.41 262.8 452.69 262.9 453.1 261.99 453.15 261.87 453.85 262.15 454.08 262.27 454.59 262.55 454.65 262.58 454.7 262.6 454.77 262.62 454.91 262.68 455.27 262.84 455.46 262.94 455.9 263.1 456.66 263.33 456.96 263.43 457.09 263.47 457.25 263.52 457.55 263.64 457.68 263.67 457.92 263.72 458.04 263.56 458.36 263.11 458.45 262.99 458.53 262.86 458.65 262.71 458.76 262.57 458.86 262.46 458.97 262.35 459.05 262.28 459.13 262.2 459.23 262.13 459.34 262.04 459.57 261.89 459.79 261.74 460 261.58 460.32 261.35 460.44 261.35 460.58 261.35 460.81 261.35 460.96 261.35 461.1 261.34 461.19 261.32 461.28 261.3 461.4 261.24 461.52 261.19 461.63 261.16 461.71 261.15 461.79 261.13 461.87 261.08 461.93 261.02 461.94 261 462.01 260.96 462.08 260.94 462.13 260.96 462.19 260.98 462.24 261.02 462.28 261.05 462.31 261.07 462.36 261.08 462.41 261.09 462.48 261.1 462.52 261.12 462.56 261.13 462.88 261.25 463.23 261.38 463.48 261.47 463.55 261.49 463.82 261.59 464 261.66 464.13 261.71 464.23 261.76 464.28 261.79 464.49 261.89 464.69 261.98 464.75 262.02 464.86 262.08 464.99 262.15 465.05 262.18 465.1 262.21 465.17 262.26 465.28 262.32 465.42 262.4 465.45 262.42 465.66 262.54 465.78 262.61 465.9 262.69 466 262.74 466.05 262.77 466.06 262.78 466.15 262.83 466.22 262.87 Z"/>
</g></svg>