<svg xmlns="http://www.w3.org/2000/svg" version="1.2" baseProfile="tiny" stroke-linecap="round" stroke-linejoin="round" viewBox="512.32 340.22 36.35 32.78"><g xmlns="http://www.w3.org/2000/svg" id="Oloritz">
<path d="M 548.66 341.97 548.63 342.02 548.6 342.06 548.52 342.2 548.39 342.43 548.27 342.63 548.13 342.84 548.03 343.01 547.9 343.22 547.76 343.44 547.66 343.63 547.63 343.68 547.57 343.8 547.52 343.91 547.48 343.98 547.48 344 547.46 344.03 547.42 344.14 547.37 344.27 547.34 344.35 547.31 344.43 547.3 344.48 547.27 344.58 547.23 344.73 547.19 344.88 547.14 345.04 547.11 345.13 547.08 345.24 547.02 345.4 546.93 345.6 546.88 345.72 546.85 345.81 546.83 345.89 546.82 345.92 546.82 346.01 546.8 346.05 546.79 346.13 546.78 346.21 546.77 346.3 546.77 346.4 546.76 346.54 546.76 346.71 546.76 346.86 546.75 346.99 546.75 347.1 546.74 347.17 546.74 347.18 546.75 347.32 546.75 347.38 546.75 347.5 546.75 347.6 546.75 347.73 546.75 347.83 546.75 347.89 546.74 347.94 546.74 348.02 546.74 348.07 546.72 348.15 546.69 348.27 546.66 348.37 546.64 348.42 546.61 348.52 546.61 348.53 546.6 348.56 546.59 348.62 546.56 348.71 546.53 348.79 546.5 348.84 546.5 348.86 546.45 348.93 546.45 348.95 546.43 348.99 546.42 349.01 546.39 349.04 546.36 349.08 546.33 349.12 546.29 349.18 546.26 349.22 546.24 349.27 546.21 349.31 546.18 349.36 546.16 349.42 546.13 349.47 546.11 349.53 546.07 349.61 546.05 349.67 546.04 349.71 546.03 349.76 546.01 349.88 545.99 349.98 545.98 350.07 545.96 350.16 545.94 350.3 545.93 350.36 545.92 350.39 545.91 350.44 545.91 350.53 545.9 350.63 545.9 350.67 545.9 350.69 545.91 350.79 545.91 350.84 545.92 350.88 545.93 350.89 545.94 350.93 545.96 350.98 545.96 351 545.96 351 545.97 351.03 545.97 351.09 545.97 351.14 545.96 351.19 545.94 351.23 545.92 351.25 545.88 351.28 545.86 351.29 545.84 351.33 545.82 351.38 545.8 351.44 545.79 351.48 545.77 351.51 545.73 351.53 545.71 351.56 545.7 351.58 545.69 351.61 545.68 351.65 545.67 351.7 545.67 351.77 545.67 351.8 545.67 351.81 545.67 351.84 545.65 351.88 545.64 351.93 545.64 351.95 545.64 352.03 545.66 352.11 545.66 352.15 545.66 352.2 545.66 352.2 545.66 352.3 545.67 352.39 545.67 352.56 545.66 352.63 545.64 352.72 545.64 352.77 545.63 352.81 545.6 352.88 545.58 352.93 545.55 352.97 545.51 353.03 545.46 353.09 545.37 353.18 545.36 353.19 545.32 353.24 545.28 353.28 545.23 353.33 545.15 353.41 545.09 353.47 545.01 353.54 544.98 353.58 544.95 353.62 544.94 353.63 544.89 353.68 544.87 353.7 544.83 353.77 544.8 353.82 544.8 353.83 544.78 353.86 544.75 353.91 544.73 353.96 544.69 354.05 544.64 354.17 544.62 354.23 544.61 354.26 544.59 354.31 544.54 354.39 544.51 354.45 544.45 354.53 544.41 354.59 544.38 354.62 544.3 354.73 544.27 354.77 544.25 354.79 544.19 354.86 544.14 354.93 544.09 354.98 544.04 355.03 544.01 355.07 543.97 355.1 543.91 355.14 543.89 355.16 543.83 355.2 543.79 355.23 543.7 355.3 543.64 355.36 543.6 355.4 543.58 355.41 543.53 355.47 543.47 355.53 543.4 355.63 543.38 355.65 543.32 355.75 543.3 355.77 543.27 355.81 543.19 355.92 543.16 355.95 543.15 355.96 543.13 355.97 543.07 356.01 543.01 356.04 542.93 356.07 542.92 356.08 542.87 356.1 542.8 356.14 542.73 356.18 542.72 356.19 542.71 356.2 542.66 356.22 542.63 356.24 542.59 356.27 542.55 356.3 542.49 356.34 542.45 356.36 542.42 356.38 542.39 356.39 542.34 356.42 542.29 356.44 542.26 356.45 542.21 356.47 542.17 356.48 542.1 356.51 542.03 356.54 541.98 356.56 541.9 356.58 541.83 356.61 541.77 356.64 541.74 356.65 541.69 356.68 541.67 356.69 541.63 356.7 541.6 356.73 541.57 356.75 541.53 356.79 541.49 356.83 541.46 356.88 541.41 356.94 541.37 356.99 541.35 357.03 541.32 357.08 541.29 357.13 541.27 357.18 541.24 357.23 541.22 357.28 541.19 357.34 541.16 357.42 541.14 357.47 541.11 357.54 541.08 357.59 541.06 357.63 541.02 357.68 540.97 357.74 540.93 357.8 540.9 357.83 540.84 357.89 540.8 357.93 540.76 357.96 540.68 358 540.63 358.01 540.54 358.03 540.49 358.04 540.44 358.05 540.37 358.07 540.29 358.08 540.23 358.09 540.18 358.09 540.17 358.1 540.13 358.12 540.07 358.15 540 358.18 539.96 358.2 539.91 358.23 539.86 358.26 539.79 358.29 539.74 358.32 539.7 358.34 539.66 358.37 539.6 358.42 539.56 358.46 539.51 358.5 539.46 358.53 539.43 358.57 539.38 358.62 539.35 358.66 539.31 358.69 539.28 358.71 539.23 358.76 539.16 358.81 539.13 358.84 539.12 358.85 539.1 358.89 539.09 358.91 539.08 358.93 539.07 358.96 539.05 359.04 539.03 359.11 539.02 359.16 538.99 359.35 538.96 359.43 538.94 359.47 538.9 359.6 538.87 359.65 538.86 359.69 538.85 359.7 538.84 359.72 538.83 359.75 538.76 359.86 538.72 359.92 538.71 359.94 538.68 359.98 538.64 360.07 538.61 360.13 538.56 360.2 538.53 360.26 538.5 360.33 538.47 360.4 538.44 360.47 538.43 360.53 538.42 360.56 538.41 360.59 538.38 360.65 538.36 360.7 538.33 360.72 538.32 360.74 538.27 360.8 538.22 360.86 538.19 360.9 538.18 360.93 538.16 360.96 538.09 361.03 538.05 361.07 538.03 361.09 538.01 361.11 537.95 361.15 537.92 361.18 537.9 361.18 537.86 361.2 537.77 361.23 537.72 361.24 537.68 361.26 537.66 361.27 537.63 361.3 537.62 361.31 537.58 361.35 537.56 361.37 537.52 361.41 537.5 361.45 537.49 361.46 537.45 361.49 537.42 361.52 537.38 361.54 537.31 361.55 537.23 361.56 537.11 361.56 536.98 361.55 536.96 361.54 536.77 361.5 536.57 361.45 536.4 361.41 536.39 361.4 536.26 361.36 536.16 361.34 536.13 361.33 536.08 361.34 536.06 361.35 536.03 361.36 536.01 361.38 535.99 361.42 535.98 361.45 535.89 361.45 535.77 361.44 535.7 361.43 535.62 361.4 535.54 361.37 535.45 361.34 535.45 361.34 535.36 361.32 535.24 361.55 535.22 361.58 535.05 361.91 534.98 362.05 534.92 362.17 534.87 362.27 534.8 362.39 534.76 362.46 534.69 362.58 534.68 362.6 534.65 362.65 534.59 362.73 534.59 362.77 534.59 362.79 534.6 362.84 534.6 362.94 534.6 362.96 534.6 363.01 534.59 363.09 534.58 363.1 534.58 363.12 534.57 363.2 534.57 363.22 534.54 363.36 534.53 363.49 534.52 363.57 534.52 363.6 534.52 363.61 534.52 363.72 534.52 363.74 534.52 363.77 534.5 363.92 534.5 363.95 534.5 364.04 534.5 364.05 534.49 364.09 534.49 364.11 534.49 364.16 534.46 364.23 534.46 364.24 534.44 364.3 534.4 364.39 534.38 364.45 534.37 364.48 534.34 364.57 534.28 364.73 534.25 364.81 534.22 364.87 534.22 364.9 534.24 365.03 534.27 365.16 534.28 365.33 534.29 365.48 534.29 365.5 534.28 365.66 534.26 365.77 534.22 365.92 534.19 366.02 534.17 366.08 534.17 366.13 534.16 366.22 534.17 366.31 534.17 366.33 534.18 366.42 534.21 366.57 534.23 366.67 534.25 366.76 534.26 366.78 534.28 366.88 534.28 366.91 534.28 366.94 534.26 366.99 534.25 367.04 534.25 367.05 534.25 367.19 534.25 367.36 534.24 367.42 534.23 367.51 534.23 367.56 534.21 367.64 534.21 367.67 534.21 367.68 534.19 367.79 534.19 367.81 534.18 367.83 534.18 367.85 534.17 367.88 534.15 367.9 534.05 367.95 533.85 368.05 533.75 368.1 533.72 368.12 533.71 368.13 533.7 368.16 533.69 368.22 533.69 368.28 533.58 368.29 533.47 368.32 533.38 368.35 533.27 368.38 533.06 368.44 532.87 368.5 532.85 368.5 532.76 368.53 532.74 368.54 532.69 368.56 532.67 368.56 532.54 368.6 532.51 368.6 532.47 368.61 532.29 368.63 532.22 368.63 532.19 368.63 532.11 368.63 532.04 368.63 531.93 368.63 531.8 368.7 531.7 368.76 531.63 368.8 531.59 368.82 531.56 368.84 531.53 368.86 531.52 368.86 531.5 368.87 531.48 368.88 531.46 368.88 531.36 368.91 531.28 368.95 531.26 368.96 531.24 368.96 531.16 368.98 531.12 369 531.04 369.02 530.99 369.02 530.93 369.02 530.9 369.02 530.86 369.02 530.85 369.02 530.79 369.02 530.78 369.02 530.75 369.02 530.7 369.02 530.62 369.02 530.51 369.02 530.47 369.02 530.45 369.02 530.42 369.02 530.38 369.02 530.31 369.02 530.28 369.02 530.27 369.02 530.26 369.02 530.2 369.01 529.84 369.01 529.76 369.01 529.68 369.01 529.64 369.07 529.59 369.13 529.5 369.28 529.45 369.36 529.43 369.37 529.42 369.4 529.4 369.43 529.37 369.47 529.31 369.57 529.23 369.68 529.16 369.78 529.14 369.84 529.12 369.9 529.09 369.97 529.07 370.01 529.07 370.02 529.03 370.12 529.01 370.19 528.97 370.29 528.97 370.31 528.95 370.34 528.92 370.43 528.87 370.56 528.86 370.59 528.85 370.62 528.84 370.65 528.83 370.69 528.76 370.85 528.66 371.07 528.64 371.14 528.53 371.38 528.48 371.48 528.43 371.59 528.37 371.75 528.35 371.79 528.29 371.93 528.23 371.93 528.15 371.94 528.12 371.94 528.08 371.94 528.05 371.95 527.94 371.97 527.85 371.99 527.75 372.01 527.66 372.01 527.63 372.07 527.61 372.08 527.58 372.12 527.56 372.15 527.53 372.18 527.49 372.21 527.48 372.23 527.47 372.26 527.47 372.28 527.46 372.34 527.46 372.35 527.45 372.39 527.45 372.45 527.42 372.52 527.39 372.58 527.38 372.6 527.37 372.64 527.34 372.72 527.32 372.77 527.3 372.84 527.3 372.89 527.29 372.97 527.28 372.96 527.27 372.95 527.27 372.94 527.26 372.93 527.25 372.92 527.25 372.91 527.23 372.9 527.23 372.89 527.22 372.88 527.21 372.86 527.2 372.85 527.18 372.83 527.17 372.82 527.16 372.8 527.15 372.79 527.14 372.78 527.13 372.76 527.12 372.75 527.11 372.73 527.1 372.72 527.09 372.7 527.08 372.69 527.07 372.68 527.06 372.67 527.05 372.65 527.04 372.64 527.04 372.63 527.03 372.62 527.03 372.61 527.02 372.6 527.01 372.59 527 372.58 526.99 372.56 526.98 372.54 526.97 372.53 526.97 372.52 526.96 372.51 526.95 372.5 526.94 372.48 526.93 372.47 526.91 372.45 526.9 372.44 526.89 372.42 526.88 372.41 526.86 372.39 526.85 372.38 526.84 372.36 526.83 372.35 526.83 372.34 526.82 372.33 526.8 372.31 526.79 372.3 526.78 372.29 526.78 372.28 526.77 372.27 526.75 372.25 526.74 372.24 526.73 372.22 526.73 372.22 526.72 372.2 526.7 372.19 526.69 372.18 526.68 372.16 526.67 372.15 526.66 372.14 526.65 372.13 526.64 372.11 526.63 372.1 526.62 372.1 526.61 372.08 526.6 372.08 526.58 372.06 526.57 372.05 526.54 372.02 526.53 372.01 526.5 371.99 526.49 371.99 526.49 371.98 526.48 371.98 526.46 371.97 526.45 371.97 526.43 371.96 526.42 371.95 526.41 371.95 526.4 371.94 526.38 371.94 526.37 371.94 526.35 371.93 526.33 371.93 526.32 371.92 526.3 371.91 526.29 371.9 526.27 371.89 526.25 371.88 526.23 371.87 526.22 371.86 526.2 371.85 526.18 371.85 526.16 371.83 526.15 371.82 526.13 371.82 526.11 371.81 526.1 371.8 526.08 371.8 526.06 371.79 526.02 371.78 525.99 371.76 525.97 371.76 525.95 371.75 525.93 371.75 525.92 371.74 525.91 371.74 525.89 371.73 525.88 371.72 525.86 371.72 525.85 371.71 525.83 371.71 525.8 371.7 525.79 371.69 525.77 371.69 525.75 371.68 525.74 371.68 525.72 371.67 525.71 371.67 525.69 371.66 525.67 371.66 525.66 371.65 525.65 371.65 525.63 371.64 525.61 371.64 525.6 371.64 525.6 371.64 525.58 371.63 525.57 371.63 525.55 371.62 525.53 371.62 525.51 371.61 525.5 371.61 525.47 371.6 525.46 371.6 525.44 371.59 525.42 371.59 525.4 371.58 525.38 371.57 525.36 371.57 525.34 371.56 525.32 371.56 525.31 371.55 525.29 371.54 525.27 371.53 525.25 371.53 525.24 371.52 525.23 371.51 525.2 371.5 525.18 371.49 525.16 371.48 525.15 371.46 525.13 371.46 525.11 371.45 525.09 371.44 525.08 371.43 525.06 371.42 525.04 371.41 525.03 371.4 525 371.39 524.98 371.39 524.97 371.38 524.95 371.36 524.94 371.35 524.92 371.35 524.91 371.34 524.89 371.33 524.88 371.32 524.87 371.31 524.85 371.3 524.83 371.29 524.82 371.28 524.81 371.28 524.8 371.27 524.78 371.26 524.76 371.25 524.74 371.23 524.73 371.22 524.7 371.2 524.69 371.2 524.68 371.19 524.67 371.18 524.65 371.16 524.64 371.15 524.62 371.13 524.61 371.12 524.6 371.11 524.59 371.09 524.58 371.08 524.57 371.07 524.55 371.04 524.54 371.02 524.52 371 524.51 370.99 524.5 370.97 524.49 370.95 524.47 370.94 524.46 370.92 524.46 370.92 524.45 370.9 524.44 370.89 524.43 370.87 524.42 370.87 524.41 370.86 524.4 370.84 524.38 370.83 524.38 370.81 524.37 370.8 524.35 370.78 524.34 370.77 524.34 370.76 524.25 370.69 524.24 370.69 524.23 370.67 524.22 370.66 524.21 370.65 524.2 370.64 524.18 370.62 524.17 370.61 524.16 370.6 524.13 370.57 524.12 370.56 524.11 370.55 524.1 370.54 524.08 370.52 524.07 370.51 524.06 370.5 524.01 370.44 524 370.43 523.99 370.41 523.98 370.41 523.97 370.4 523.96 370.39 523.95 370.37 523.94 370.36 523.93 370.35 523.91 370.34 523.9 370.32 523.89 370.31 523.88 370.3 523.87 370.28 523.86 370.27 523.84 370.26 523.83 370.25 523.82 370.24 523.81 370.23 523.8 370.22 523.78 370.2 523.77 370.19 523.76 370.18 523.75 370.17 523.74 370.16 523.73 370.15 523.7 370.12 523.7 370.11 523.69 370.1 523.67 370.09 523.66 370.08 523.65 370.07 523.64 370.06 523.63 370.05 523.62 370.04 523.61 370.04 523.59 370.03 523.58 370.02 523.57 370.01 523.55 370 523.54 369.99 523.52 369.98 523.51 369.97 523.49 369.96 523.47 369.95 523.46 369.94 523.45 369.94 523.44 369.93 523.42 369.92 523.41 369.91 523.4 369.91 523.39 369.9 523.35 369.88 523.34 369.87 523.32 369.86 523.32 369.86 523.3 369.85 523.29 369.84 523.28 369.83 523.27 369.82 523.24 369.8 523.21 369.78 523.19 369.77 523.18 369.75 523.17 369.75 523.16 369.74 523.14 369.72 523.12 369.71 523.11 369.69 523.1 369.68 523.09 369.67 523.07 369.66 523.06 369.65 523.05 369.64 523.04 369.63 523.03 369.62 523.02 369.61 523 369.6 522.99 369.58 522.98 369.58 522.97 369.57 522.96 369.56 522.95 369.54 522.94 369.53 522.92 369.52 522.91 369.51 522.9 369.49 522.89 369.48 522.88 369.47 522.86 369.45 522.85 369.44 522.84 369.42 522.83 369.42 522.82 369.4 522.81 369.39 522.8 369.37 522.79 369.36 522.78 369.34 522.77 369.33 522.76 369.31 522.75 369.29 522.74 369.28 522.73 369.27 522.72 369.25 522.71 369.24 522.71 369.22 522.7 369.21 522.69 369.19 522.68 369.19 522.68 369.17 522.67 369.16 522.67 369.15 522.66 369.14 522.65 369.12 522.64 369.11 522.63 369.09 522.62 369.07 522.61 369.06 522.6 369.04 522.59 369.03 522.58 369.01 522.57 369.01 522.56 368.99 522.55 368.98 522.54 368.95 522.53 368.94 522.52 368.92 522.51 368.91 522.51 368.9 522.49 368.88 522.48 368.86 522.47 368.85 522.46 368.83 522.45 368.81 522.44 368.79 522.41 368.75 522.4 368.73 522.36 368.67 522.36 368.62 522.36 368.6 522.36 368.56 522.36 368.52 522.36 368.51 522.36 368.49 522.36 368.47 522.36 368.46 522.36 368.44 522.36 368.42 522.37 368.4 522.37 368.38 522.37 368.33 522.37 368.29 522.38 368.22 522.38 368.2 522.38 368.17 522.38 368.15 522.38 368.13 522.39 368.12 522.39 368.1 522.39 368.08 522.39 368.06 522.4 368.03 522.4 367.99 522.4 367.97 522.41 367.95 522.41 367.93 522.41 367.91 522.41 367.9 522.41 367.89 522.42 367.87 522.42 367.84 522.43 367.81 522.43 367.8 522.43 367.78 522.44 367.74 522.44 367.73 522.45 367.71 522.45 367.68 522.46 367.66 522.46 367.66 522.46 367.64 522.47 367.62 522.47 367.6 522.48 367.57 522.48 367.55 522.48 367.54 522.49 367.52 522.49 367.51 522.5 367.5 522.5 367.48 522.52 367.44 522.52 367.43 522.54 367.39 522.54 367.38 522.55 367.36 522.55 367.35 522.56 367.33 522.56 367.31 522.57 367.3 522.57 367.28 522.58 367.26 522.59 367.23 522.6 367.2 522.6 367.18 522.61 367.17 522.61 367.15 522.62 367.12 522.63 367.1 522.63 367.1 522.63 367.08 522.64 367.06 522.65 367.03 522.66 367 522.67 366.97 522.68 366.95 522.69 366.93 522.7 366.92 522.7 366.9 522.71 366.88 522.71 366.88 522.72 366.86 522.72 366.84 522.72 366.82 522.73 366.8 522.73 366.79 522.74 366.77 522.75 366.74 522.76 366.72 522.76 366.7 522.77 366.68 522.78 366.62 522.79 366.61 522.79 366.59 522.8 366.55 522.81 366.53 522.82 366.5 522.82 366.49 522.83 366.47 522.84 366.43 522.85 366.39 522.86 366.36 522.87 366.32 522.87 366.3 522.88 366.28 522.73 366.24 522.68 366.23 522.6 366.21 522.56 366.2 522.52 366.19 522.48 366.17 522.41 366.15 522.31 366.13 522.28 366.12 522.26 366.11 522.23 366.1 522.21 366.1 522.18 366.09 522.14 366.08 522.13 366.07 522.09 366.06 522.07 366.06 522.05 366.05 522.03 366.05 522.01 366.04 521.95 366.03 521.88 366.01 521.87 366 521.83 365.99 521.81 365.99 521.8 365.98 521.77 365.98 521.74 365.97 521.72 365.96 521.67 365.95 521.64 365.94 521.63 365.94 521.61 365.93 521.59 365.93 521.57 365.92 521.54 365.92 521.52 365.91 521.5 365.91 521.49 365.9 521.48 365.9 521.46 365.9 521.45 365.89 521.43 365.89 521.41 365.88 521.4 365.88 521.39 365.87 521.37 365.87 521.33 365.85 521.31 365.84 521.3 365.84 521.28 365.83 521.26 365.82 521.25 365.81 521.23 365.81 521.21 365.8 521.2 365.79 521.18 365.78 521.17 365.78 521.15 365.77 521.12 365.75 521.1 365.75 521.07 365.73 521.06 365.73 521.03 365.72 521.02 365.71 521.01 365.7 520.99 365.69 520.97 365.69 520.96 365.68 520.95 365.67 520.93 365.67 520.54 365.49 520.51 365.48 520.5 365.47 520.31 365.26 520.3 365.25 520.28 365.24 520.17 365.11 520.16 365.1 520 364.91 519.99 364.9 519.97 364.88 519.96 364.87 519.96 364.86 519.95 364.84 519.93 364.83 519.92 364.81 519.91 364.8 519.88 364.77 519.87 364.76 519.86 364.75 519.85 364.74 519.84 364.73 519.82 364.72 519.82 364.71 519.7 364.62 519.66 364.59 519.64 364.58 519.63 364.57 519.63 364.57 519.53 364.54 519.42 364.5 519.34 364.48 519.28 364.47 519.28 364.47 519.26 364.46 519.24 364.46 519.23 364.45 519.2 364.44 519.17 364.44 519.15 364.43 519.13 364.43 519.12 364.42 519.11 364.42 519.08 364.41 519.07 364.41 519.05 364.4 519.03 364.4 519.02 364.39 518.99 364.38 518.95 364.37 518.92 364.36 518.9 364.36 518.88 364.35 518.87 364.35 518.83 364.34 518.81 364.33 518.78 364.32 518.76 364.31 518.75 364.31 518.74 364.31 518.72 364.3 518.72 364.29 518.7 364.29 518.68 364.28 518.67 364.26 518.65 364.25 518.65 364.25 518.61 364.22 518.6 364.21 518.58 364.2 518.57 364.19 518.55 364.18 518.54 364.17 518.52 364.16 518.51 364.15 518.49 364.14 518.48 364.13 518.47 364.12 518.45 364.11 518.45 364.1 518.43 364.09 518.42 364.08 518.41 364.07 518.4 364.06 518.39 364.05 518.38 364.04 518.37 364.03 518.36 364.01 518.35 364 518.34 363.99 518.33 363.97 518.31 363.95 518.3 363.94 518.29 363.92 518.28 363.91 518.28 363.9 518.27 363.89 518.26 363.87 518.25 363.86 518.25 363.85 518.24 363.83 518.23 363.81 518.22 363.8 518.22 363.79 518.21 363.77 518.2 363.76 518.2 363.74 518.19 363.73 518.19 363.71 518.18 363.7 518.17 363.68 518.16 363.67 518.16 363.65 518.15 363.64 518.14 363.63 518.13 363.62 518.13 363.61 518.11 363.59 518.1 363.57 518.09 363.56 518.07 363.56 518.05 363.54 518.03 363.53 518.02 363.53 518.01 363.53 517.99 363.52 517.97 363.52 517.96 363.51 517.95 363.51 517.92 363.5 517.91 363.5 517.87 363.49 517.85 363.48 517.83 363.48 517.81 363.47 517.79 363.47 517.78 363.47 517.76 363.46 517.71 363.45 517.67 363.45 517.66 363.44 517.63 363.44 517.61 363.43 517.59 363.43 517.57 363.43 517.56 363.42 517.54 363.42 517.53 363.42 517.51 363.41 517.49 363.41 517.47 363.41 517.45 363.4 517.44 363.4 517.42 363.4 517.4 363.39 517.39 363.39 517.37 363.39 517.36 363.39 517.34 363.39 517.33 363.38 517.31 363.38 517.3 363.38 517.28 363.38 517.25 363.37 517.24 363.37 517.22 363.36 517.21 363.36 517.19 363.36 517.18 363.36 517.16 363.35 517.14 363.35 517.12 363.35 517.11 363.35 517.1 363.35 517.08 363.34 517.04 363.34 517.04 363.34 517.02 363.34 517 363.34 516.98 363.34 516.97 363.34 516.95 363.33 516.93 363.33 516.91 363.33 516.9 363.33 516.88 363.32 516.86 363.32 516.85 363.32 516.83 363.32 516.81 363.32 516.79 363.31 516.79 363.31 516.78 363.31 516.68 363.3 516.66 363.3 516.59 363.29 516.56 363.29 516.54 363.29 516.53 363.29 516.51 363.28 516.5 363.28 516.48 363.28 516.46 363.28 516.44 363.28 516.43 363.28 516.41 363.27 516.38 363.27 516.36 363.27 516.35 363.27 516.34 363.26 516.32 363.26 516.31 363.25 516.29 363.24 516.28 363.24 516.26 363.23 516.25 363.23 516.23 363.22 516.22 363.22 516.2 363.21 516.18 363.21 516.17 363.2 516.14 363.2 516.12 363.19 516.11 363.19 516.08 363.18 516.07 363.17 516.07 363.17 516.05 363.16 516.03 363.15 516.03 363.15 516 363.14 515.98 363.12 515.96 363.11 515.95 363.1 515.94 363.09 515.93 363.08 515.92 363.07 515.91 363.06 515.9 363.04 515.89 363.03 515.88 363.02 515.88 363 515.87 362.99 515.87 362.97 515.86 362.96 515.85 362.95 515.83 362.93 515.81 362.92 515.79 362.91 515.78 362.91 515.76 362.91 515.75 362.91 515.74 362.91 515.71 362.91 515.66 362.92 515.64 362.92 515.62 362.92 515.61 362.93 515.59 362.93 515.57 362.93 515.56 362.93 515.54 362.94 515.52 362.94 515.5 362.94 515.48 362.94 515.47 362.94 515.45 362.94 515.43 362.94 515.42 362.94 515.4 362.94 515.35 362.93 515.33 362.93 515.31 362.93 515.31 362.92 515.29 362.92 515.27 362.91 515.26 362.91 515.24 362.91 515.22 362.9 515.2 362.9 515.19 362.89 515.17 362.89 515.14 362.87 515.13 362.86 515.11 362.86 515.09 362.84 515.08 362.83 515.07 362.82 515.06 362.82 515.05 362.81 515.04 362.8 515 362.74 514.99 362.73 514.98 362.72 514.96 362.7 514.95 362.7 514.93 362.69 514.92 362.68 514.9 362.67 514.89 362.66 514.82 362.63 514.81 362.63 514.79 362.62 514.78 362.61 514.76 362.6 514.75 362.6 514.74 362.59 514.74 362.58 514.7 362.56 514.68 362.55 514.67 362.54 514.66 362.53 514.64 362.53 514.62 362.52 514.61 362.51 514.59 362.5 514.58 362.49 514.56 362.48 514.55 362.48 514.53 362.47 514.51 362.46 514.49 362.46 514.48 362.45 514.42 362.45 514.42 362.44 514.4 362.44 514.38 362.44 514.36 362.43 514.35 362.43 514.33 362.43 514.31 362.42 514.27 362.42 514.23 362.36 513.76 361.67 513.72 361.61 513.69 361.56 513.68 361.55 513.67 361.54 513.67 361.53 513.66 361.51 513.64 361.5 513.63 361.48 513.62 361.47 513.61 361.45 513.6 361.44 513.59 361.43 513.58 361.42 513.57 361.4 513.55 361.39 513.54 361.38 513.53 361.36 513.52 361.35 513.51 361.34 513.49 361.32 513.49 361.32 513.45 361.28 513.44 361.26 513.42 361.24 513.41 361.23 513.38 361.2 513.37 361.19 513.34 361.16 513.33 361.15 513.31 361.12 513.28 361.09 513.26 361.07 513.25 361.06 513.23 361.04 513.22 361.02 513.2 361.01 513.19 361 513.18 360.99 513.17 360.97 513.12 360.93 513.11 360.92 513.09 360.87 513.07 360.84 513.07 360.82 513.06 360.8 513.05 360.79 513.05 360.78 513.04 360.77 513.04 360.75 513.03 360.73 513.02 360.72 513.02 360.7 513.01 360.68 513.01 360.68 513 360.66 512.99 360.64 512.98 360.63 512.97 360.61 512.96 360.6 512.95 360.58 512.94 360.56 512.93 360.55 512.93 360.53 512.92 360.51 512.91 360.5 512.9 360.48 512.89 360.47 512.88 360.46 512.87 360.44 512.86 360.43 512.85 360.41 512.84 360.39 512.83 360.38 512.82 360.36 512.82 360.35 512.81 360.33 512.8 360.32 512.79 360.3 512.79 360.29 512.78 360.27 512.78 360.27 512.77 360.25 512.75 360.22 512.75 360.2 512.74 360.18 512.73 360.16 512.72 360.15 512.71 360.13 512.71 360.12 512.7 360.1 512.69 360.08 512.68 360.07 512.68 360.06 512.67 360.04 512.66 360.03 512.65 360.01 512.62 359.95 512.62 359.94 512.61 359.93 512.6 359.92 512.59 359.9 512.58 359.89 512.58 359.87 512.57 359.85 512.56 359.84 512.55 359.82 512.55 359.81 512.54 359.79 512.54 359.78 512.53 359.76 512.52 359.73 512.52 359.72 512.52 359.71 512.51 359.7 512.51 359.68 512.5 359.66 512.49 359.64 512.49 359.62 512.48 359.61 512.48 359.6 512.47 359.58 512.46 359.57 512.45 359.55 512.45 359.54 512.44 359.52 512.43 359.5 512.42 359.48 512.41 359.47 512.4 359.45 512.39 359.44 512.38 359.42 512.37 359.41 512.36 359.39 512.36 359.38 512.35 359.36 512.34 359.34 512.34 359.34 512.34 359.32 512.34 359.3 512.34 359.28 512.34 359.26 512.34 359.18 512.42 359.14 512.5 359.09 512.52 359.09 512.53 359.08 512.58 359.08 512.63 359.07 512.65 359.07 512.79 359.05 512.8 359.05 512.86 359.04 512.95 359.03 513.08 359.02 513.09 359.02 513.1 359.02 513.11 359.02 513.14 359.01 513.16 359.01 513.17 359.01 513.27 359 513.33 358.99 513.43 358.98 513.5 358.97 513.54 358.98 513.54 358.98 513.57 358.99 513.73 359.03 513.78 359.05 513.79 359.06 513.88 359.08 513.98 359.12 514.05 359.14 514.15 359.17 514.17 359.18 514.21 359.19 514.36 359.24 514.38 359.24 514.47 359.27 514.51 359.27 514.52 359.27 514.55 359.28 514.7 359.3 514.72 359.3 514.9 359.33 515.03 359.34 515.08 359.35 515.12 359.36 515.17 359.36 515.25 359.38 515.4 359.39 515.41 359.36 515.45 359.26 515.47 359.21 515.48 359.19 515.53 359.05 515.54 359.02 515.57 358.95 515.58 358.94 515.62 358.93 515.64 358.91 515.75 358.79 515.85 358.69 515.87 358.66 515.88 358.65 515.89 358.64 515.96 358.61 515.98 358.61 516 358.6 516.02 358.59 516.16 358.53 516.31 358.47 516.45 358.41 516.6 358.36 516.74 358.29 516.89 358.23 517.04 358.17 517.11 358.15 517.2 358.11 517.33 358.06 517.34 358.05 517.5 357.99 517.58 357.96 517.65 357.93 517.72 357.9 517.8 357.87 517.82 357.87 517.99 357.82 518.01 357.81 518.05 357.8 518.06 357.79 518.08 357.79 518.16 357.77 518.3 357.72 518.32 357.72 518.39 357.7 518.48 357.67 518.54 357.65 518.55 357.65 518.57 357.64 518.65 357.62 518.81 357.57 518.98 357.52 519.15 357.47 519.18 357.47 519.29 357.42 519.37 357.4 519.44 357.38 519.58 357.34 519.6 357.33 519.63 357.32 519.74 357.29 519.78 357.28 519.81 357.27 519.85 357.25 519.9 357.24 519.93 357.23 519.95 357.22 519.99 357.2 520.04 357.18 520.06 357.17 520.09 357.16 520.17 357.12 520.19 357.11 520.22 357.1 520.23 357.09 520.26 357.08 520.27 357.08 520.31 357.07 520.4 357.05 520.46 357.03 520.54 357.01 520.6 357 520.68 356.97 520.75 356.96 520.77 356.95 520.78 356.95 520.82 356.94 520.9 356.91 520.96 356.89 520.99 356.88 521.06 357.3 521.07 357.38 521.07 357.39 521.1 357.57 521.63 357.64 521.59 357.94 521.58 358.09 521.59 358.11 521.61 358.13 521.61 358.13 521.63 358.16 521.64 358.2 521.64 358.31 521.66 358.32 521.69 358.33 521.7 358.33 521.73 358.36 521.76 358.39 521.79 358.44 521.79 358.38 521.78 358.21 521.78 358.2 521.76 357.88 521.75 357.68 521.89 357.7 522.06 357.74 522.1 357.74 522.18 357.76 522.19 357.83 522.2 357.96 522.2 357.96 522.2 357.97 522.2 358 522.19 358.16 522.18 358.39 522.18 358.43 522.17 358.48 522.15 358.54 522.1 358.66 522.08 358.71 522.07 358.73 522.07 358.74 522.11 358.78 522.13 358.73 522.17 358.68 522.21 358.63 522.28 358.59 522.26 358.57 522.25 358.56 522.24 358.53 522.25 358.49 522.25 358.48 522.27 358.37 522.29 358.28 522.29 358.13 522.29 357.93 522.3 357.9 522.3 357.88 522.29 357.83 522.29 357.79 522.3 357.66 522.3 357.58 522.3 357.53 522.3 357.47 522.3 357.46 522.31 357.42 522.32 357.38 522.35 357.3 522.36 357.26 522.38 357.21 522.39 357.18 522.44 357.05 522.48 356.97 522.51 356.91 522.42 356.88 522.38 356.95 522.35 357 522.33 357.02 522.31 357.05 522.31 357.07 522.28 357.15 522.26 357.23 522.24 357.33 522.22 357.41 522.22 357.44 522.21 357.51 522.18 357.71 522.1 357.7 522.06 357.69 522.04 357.68 521.84 357.64 521.64 357.61 521.65 357.55 521.66 357.51 521.71 357.38 521.73 357.31 521.77 357.2 521.82 357.08 521.89 356.86 521.92 356.78 521.95 356.68 521.99 356.7 522.01 356.7 522.12 356.74 522.14 356.74 522.15 356.75 522.16 356.75 522.23 356.78 522.27 356.79 522.27 356.79 522.28 356.79 522.44 356.84 522.53 356.87 522.55 356.87 522.58 356.85 522.6 356.84 522.74 356.76 522.78 356.74 522.8 356.73 522.88 356.69 522.99 356.62 523.06 356.59 523.14 356.54 523.28 356.46 523.35 356.42 523.41 356.38 523.55 356.28 523.69 356.18 523.82 356.08 523.95 355.99 524.09 355.89 524.2 355.81 524.23 355.79 524.33 355.72 524.36 355.69 524.38 355.68 524.39 355.66 524.47 355.59 524.59 355.49 524.64 355.45 524.71 355.38 524.78 355.32 524.84 355.27 524.96 355.16 525.07 355.06 525.2 354.94 525.29 354.85 525.29 354.85 525.3 354.84 525.29 354.83 525.2 354.74 525.22 354.72 525.31 354.62 525.42 354.49 525.52 354.39 525.64 354.28 525.76 354.18 525.88 354.06 525.89 354.05 525.98 353.96 525.98 353.96 526.04 353.91 526.09 353.86 526.11 353.85 526.13 353.83 526.23 353.75 526.37 353.65 526.5 353.56 526.62 353.47 526.63 353.46 526.63 353.46 526.77 353.35 526.8 353.33 526.83 353.31 526.85 353.3 526.91 353.27 527.05 353.21 527.08 353.19 527.09 353.19 527.12 353.17 527.13 353.16 527.18 353.11 527.2 353.09 527.29 352.98 527.32 352.95 527.4 352.86 527.42 352.84 527.51 352.73 527.62 352.61 527.73 352.49 527.83 352.37 527.87 352.33 527.94 352.25 528.04 352.13 528.14 352.01 528.26 351.88 528.38 351.74 528.41 351.71 528.43 351.67 528.44 351.66 528.45 351.64 528.46 351.62 528.54 351.48 528.56 351.45 528.6 351.32 528.64 351.16 528.69 351 528.73 350.84 528.78 350.7 528.82 350.54 528.86 350.39 528.9 350.24 528.94 350.1 528.98 349.95 529 349.88 529.02 349.81 529.06 349.69 529.06 349.67 529.09 349.57 529.1 349.55 529.17 349.41 529.23 349.31 529.23 349.28 529.24 349.21 529.25 349.09 529.33 348.99 529.37 348.92 529.4 348.86 529.45 348.71 529.48 348.63 529.51 348.56 529.55 348.42 529.6 348.28 529.63 348.22 529.65 348.13 529.66 348.12 529.66 348.1 529.67 348.07 529.7 347.99 529.73 347.91 529.75 347.84 529.78 347.77 529.79 347.75 529.8 347.69 529.83 347.62 529.87 347.56 529.9 347.5 529.98 347.36 530.02 347.3 530.06 347.24 530.1 347.17 530.14 347.1 530.16 347.07 530.18 347.04 530.23 346.97 530.27 346.92 530.31 346.87 530.37 346.79 530.42 346.72 530.45 346.69 530.47 346.67 530.52 346.6 530.55 346.58 530.59 346.54 530.62 346.51 530.66 346.48 530.71 346.43 530.77 346.36 530.83 346.31 530.85 346.29 530.89 346.25 530.99 346.16 531.08 346.06 531.2 345.95 531.32 345.84 531.44 345.72 531.57 345.6 531.63 345.54 531.68 345.49 531.77 345.37 531.82 345.31 531.88 345.25 531.95 345.18 532 345.14 532.07 345.08 532.11 345.03 532.24 344.91 532.26 344.89 532.31 344.78 532.39 344.64 532.46 344.5 532.53 344.37 532.54 344.35 532.54 344.34 532.57 344.29 532.6 344.22 532.63 344.17 532.74 343.96 532.78 343.89 532.81 343.83 532.83 343.78 532.88 343.69 532.92 343.62 532.92 343.55 532.92 343.48 532.93 343.39 532.93 343.37 532.93 343.35 532.93 343.34 532.94 343.25 533.01 343.25 533.04 343.25 533.1 343.25 533.16 343.24 533.26 343.24 533.34 343.24 533.41 343.23 533.46 343.23 533.52 343.24 533.57 343.25 533.58 343.26 533.63 343.26 533.71 343.29 533.78 343.3 533.85 343.31 533.92 343.33 534 343.34 534.06 343.35 534.15 343.37 534.18 343.38 534.2 343.38 534.21 343.39 534.28 343.4 534.29 343.4 534.35 343.41 534.42 343.42 534.44 343.43 534.5 343.44 534.51 343.44 534.59 343.46 534.64 343.47 534.73 343.49 534.79 343.5 534.88 343.52 534.92 343.53 535.03 343.54 535.09 343.5 535.17 343.45 535.23 343.42 535.31 343.36 535.36 343.33 535.44 343.28 535.49 343.25 535.56 343.2 535.62 343.16 535.69 343.12 535.74 343.08 535.82 343.03 535.87 343 535.95 342.95 536 342.92 536.08 342.86 536.1 342.85 536.15 342.82 536.22 342.77 536.23 342.76 536.24 342.76 536.25 342.75 536.26 342.74 536.27 342.74 536.33 342.68 536.39 342.63 536.45 342.58 536.5 342.53 536.54 342.49 536.57 342.46 536.6 342.43 536.61 342.43 536.67 342.36 536.71 342.31 536.77 342.25 536.81 342.21 536.85 342.16 536.89 342.14 536.93 342.11 537 342.06 537.01 342.05 537.05 342.02 537.08 342 537.12 341.96 537.19 341.91 537.25 341.86 537.3 341.82 537.37 341.77 537.38 341.75 537.4 341.74 537.42 341.72 537.5 341.66 537.55 341.62 537.57 341.61 537.58 341.6 537.59 341.59 537.62 341.57 537.76 341.47 537.8 341.45 537.86 341.42 537.88 341.41 537.94 341.38 538.02 341.35 538.03 341.34 538.1 341.31 538.17 341.28 538.21 341.26 538.23 341.26 538.3 341.22 538.39 341.18 538.45 341.15 538.46 341.15 538.5 341.13 538.59 341.09 538.64 341.06 538.72 341.03 538.78 341 538.84 340.97 538.86 340.96 538.92 340.94 539 340.9 539.07 340.87 539.15 340.83 539.2 340.81 539.28 340.78 539.33 340.76 539.36 340.73 539.39 340.71 539.45 340.66 539.47 340.64 539.51 340.61 539.54 340.59 539.56 340.58 539.58 340.56 539.59 340.56 539.64 340.53 539.69 340.5 539.77 340.45 539.83 340.41 539.89 340.37 539.95 340.33 540.03 340.28 540.08 340.25 540.12 340.23 540.33 340.29 540.48 340.35 540.63 340.4 540.7 340.41 540.78 340.43 540.99 340.5 541.19 340.55 541.3 340.58 541.35 340.59 541.61 340.63 541.72 340.64 541.94 340.67 542.02 340.68 542.12 340.7 542.12 340.7 542.22 340.71 542.23 340.72 542.24 340.72 542.25 340.72 542.35 340.74 542.42 340.75 542.48 340.77 542.51 340.78 542.72 340.87 542.82 340.9 542.9 340.91 543.01 340.93 543.03 340.93 543.15 340.95 543.2 340.95 543.21 340.95 543.22 340.95 543.23 340.96 543.3 340.97 543.36 340.98 543.43 341.01 543.46 341.02 543.48 341.03 543.49 341.03 543.51 341.04 543.55 341.05 543.58 341.06 543.6 341.06 543.7 341.07 543.74 341.07 543.79 341.06 543.87 341.08 543.96 341.09 544.07 341.09 544.1 341.1 544.19 341.11 544.31 341.14 544.41 341.16 544.5 341.18 544.57 341.2 544.66 341.2 544.76 341.19 544.88 341.16 544.99 341.16 545.09 341.13 545.17 341.12 545.24 341.1 545.32 341.1 545.39 341.11 545.47 341.14 545.57 341.17 545.68 341.22 545.78 341.27 545.87 341.31 545.95 341.35 546.04 341.37 546.13 341.38 546.14 341.38 546.21 341.39 546.27 341.39 546.28 341.39 546.39 341.39 546.47 341.41 546.54 341.42 546.61 341.45 546.69 341.47 546.88 341.55 547 341.6 547.15 341.65 547.36 341.74 547.48 341.79 547.59 341.82 547.68 341.85 547.78 341.87 547.81 341.88 547.82 341.88 547.83 341.88 547.87 341.88 547.91 341.89 548.02 341.9 548.17 341.93 548.5 341.95 548.53 341.95 548.56 341.96 548.62 341.96 548.66 341.97 Z"/>
</g></svg>