<svg xmlns="http://www.w3.org/2000/svg" version="1.2" baseProfile="tiny" stroke-linecap="round" stroke-linejoin="round" viewBox="462.35 272.17 43.15 26.47"><g xmlns="http://www.w3.org/2000/svg" id="Oltza">
<path d="M 466.75 283.81 466.87 283.79 467.02 283.76 467.14 283.75 467.22 283.73 467.43 283.63 467.63 283.54 467.75 283.48 467.88 283.43 468 283.37 468.11 283.32 468.16 283.29 468.22 283.23 468.27 283.18 468.31 283.13 468.38 283.07 468.43 283.02 468.44 283 468.53 282.94 468.61 282.88 468.69 282.84 468.76 282.82 468.86 282.78 468.93 282.75 469.01 282.71 469.1 282.67 469.18 282.62 469.25 282.57 469.27 282.56 469.37 282.49 469.45 282.42 469.56 282.3 469.6 282.21 469.72 282.02 469.8 281.9 469.83 281.84 469.86 281.81 469.9 281.75 469.99 281.6 470.02 281.54 470.05 281.49 470.12 281.4 470.14 281.4 470.22 281.36 470.28 281.33 470.35 281.31 470.44 281.29 470.59 281.25 470.7 281.21 470.85 281.12 471.16 280.92 471.24 280.87 471.65 280.62 472.35 280.2 472.63 280.03 473.1 279.75 473.42 279.63 473.47 279.61 473.48 279.61 473.5 279.61 473.65 279.56 473.68 279.55 473.72 279.54 473.74 279.54 473.84 279.51 473.9 279.49 474.04 279.65 474.07 279.69 474.15 279.78 474.15 279.79 474.16 279.79 474.18 279.78 474.19 279.78 474.29 279.74 474.3 279.73 474.36 279.71 474.39 279.7 474.4 279.7 474.43 279.68 474.48 279.67 474.49 279.66 474.53 279.64 474.58 279.63 474.6 279.62 475 279.46 475.03 279.45 475.04 279.44 475.06 279.44 475.15 279.4 475.28 279.35 475.04 279.03 474.82 278.84 474.55 278.66 474.45 278.62 474.38 278.6 473.77 278.52 473.37 278.41 473.4 278.32 473.4 278.3 473.44 278.2 473.49 278.08 473.5 278.05 473.52 278.01 473.53 277.98 473.55 277.94 473.58 277.89 473.63 277.8 473.65 277.78 473.7 277.69 473.75 277.59 473.81 277.46 473.89 277.3 473.96 277.19 474.04 277.06 474.12 276.95 474.19 276.85 474.19 276.84 474.2 276.83 474.26 276.72 474.27 276.71 474.28 276.69 474.31 276.65 474.37 276.53 474.4 276.49 474.41 276.46 474.43 276.43 474.46 276.35 474.5 276.22 474.55 276.18 474.57 276.16 474.58 276.15 474.58 276.15 474.63 276.08 474.66 276.05 474.68 276.03 474.73 275.96 474.74 275.96 474.79 275.9 474.81 275.87 474.82 275.87 474.85 275.83 474.89 275.77 474.94 275.71 475 275.64 475.04 275.6 475.09 275.54 475.13 275.49 475.16 275.46 475.21 275.4 475.22 275.38 475.25 275.34 475.28 275.33 475.32 275.31 475.42 275.27 475.51 275.23 475.58 275.19 475.65 275.16 475.74 275.11 475.79 275.09 475.81 275.08 475.87 275.05 475.93 275 475.99 274.96 476.04 274.93 476.09 274.89 476.13 274.86 476.14 274.85 476.17 274.83 476.23 274.79 476.29 274.74 476.32 274.72 476.36 274.69 476.42 274.65 476.48 274.6 476.54 274.56 476.59 274.52 476.62 274.5 476.68 274.46 476.73 274.42 476.77 274.39 476.81 274.36 476.85 274.33 476.88 274.31 476.93 274.27 476.96 274.24 477 274.21 477.04 274.18 477.07 274.16 477.11 274.12 477.16 274.07 477.22 273.99 477.27 273.94 477.33 273.88 477.39 273.83 477.44 273.78 477.52 273.71 477.56 273.66 477.61 273.61 477.64 273.58 477.68 273.53 477.73 273.46 477.77 273.4 477.81 273.36 477.85 273.29 477.89 273.21 477.94 273.13 477.98 273.06 478.01 272.99 478.02 272.97 478.02 272.96 478.06 272.89 478.1 272.81 478.13 272.77 478.19 272.66 478.23 272.59 478.25 272.54 478.25 272.53 478.32 272.51 478.45 272.47 478.58 272.43 478.67 272.4 478.79 272.34 478.88 272.29 479.01 272.22 479.06 272.19 479.14 272.3 479.17 272.34 479.18 272.35 479.2 272.39 479.24 272.41 479.29 272.44 479.33 272.47 479.41 272.49 479.47 272.51 479.5 272.52 479.59 272.55 479.6 272.56 479.69 272.59 479.76 272.61 479.87 272.65 480 272.7 480.05 272.71 480.08 272.73 480.09 272.73 480.14 272.74 480.15 272.75 480.25 272.78 480.3 272.81 480.42 272.92 480.43 272.93 480.48 273.01 480.56 273.09 480.63 273.17 480.71 273.26 480.78 273.32 480.85 273.36 480.96 273.44 481 273.47 481.1 273.56 481.17 273.62 481.18 273.62 481.2 273.65 481.25 273.7 481.32 273.77 481.32 273.78 481.41 273.86 481.48 273.93 481.56 274.01 481.6 274.04 481.64 274.07 481.67 274.12 481.68 274.14 481.72 274.2 481.73 274.21 481.74 274.24 481.77 274.29 481.78 274.32 481.8 274.36 481.85 274.42 481.94 274.5 481.98 274.53 482.01 274.56 482.05 274.59 482.09 274.62 482.13 274.65 482.18 274.7 482.23 274.74 482.28 274.78 482.32 274.82 482.37 274.87 482.44 274.92 482.5 274.97 482.55 274.99 482.62 275.04 482.69 275.09 482.78 275.15 482.86 275.21 482.89 275.24 482.93 275.28 482.94 275.3 482.99 275.34 483.04 275.41 483.13 275.5 483.26 275.64 483.32 275.72 483.36 275.76 483.39 275.8 483.44 275.87 483.5 275.94 483.56 276.02 483.57 276.04 483.59 276.08 483.62 276.13 483.65 276.2 483.67 276.25 483.69 276.3 483.71 276.36 483.74 276.44 483.75 276.52 483.76 276.58 483.77 276.67 483.78 276.75 483.78 276.83 483.79 276.89 483.79 276.9 483.8 276.91 483.93 276.99 484.03 277.06 484.05 277.07 484.1 277.1 484.23 277.18 484.28 277.21 484.44 277.31 484.58 277.4 484.61 277.42 484.63 277.44 484.7 277.49 484.75 277.53 484.78 277.56 484.86 277.63 484.92 277.68 485 277.75 485.02 277.77 485.09 277.81 485.16 277.87 485.22 277.91 485.26 277.94 485.32 277.98 485.33 277.99 485.34 278 485.39 278.03 485.42 278.04 485.45 278.05 485.48 278.06 485.5 278.06 485.52 278.07 485.53 278.08 485.55 278.1 485.58 278.12 485.6 278.13 485.62 278.13 485.65 278.13 485.68 278.13 485.7 278.14 485.72 278.15 485.72 278.18 485.72 278.21 485.73 278.22 485.74 278.23 485.77 278.24 485.79 278.24 485.81 278.24 485.83 278.25 485.85 278.25 485.88 278.26 485.85 278.27 485.83 278.28 485.8 278.3 485.76 278.33 485.73 278.35 485.68 278.38 485.64 278.41 485.62 278.43 485.6 278.45 485.56 278.47 485.53 278.49 485.51 278.52 485.48 278.55 485.45 278.58 485.42 278.61 485.39 278.65 485.36 278.68 485.32 278.72 485.34 278.72 485.35 278.73 485.36 278.73 485.38 278.74 485.46 278.77 485.51 278.79 485.55 278.8 485.56 278.81 485.61 278.83 485.69 278.86 485.74 278.88 485.82 278.91 485.9 278.94 485.95 278.96 486.04 278.99 486.17 279.04 486.25 279.08 486.31 279.1 486.31 279.1 486.33 279.11 486.37 279.13 486.42 279.15 486.47 279.17 486.5 279.21 486.53 279.26 486.57 279.32 486.63 279.41 486.67 279.48 486.74 279.57 486.78 279.64 486.81 279.68 486.83 279.72 486.83 279.74 486.87 279.84 486.9 279.92 486.95 280.03 486.98 280.11 486.99 280.14 487.01 280.19 487.03 280.23 487.06 280.29 487.09 280.37 487.11 280.38 487.12 280.38 487.14 280.38 487.17 280.39 487.25 280.4 487.4 280.43 487.41 280.43 487.44 280.44 487.49 280.45 487.53 280.49 487.55 280.52 487.63 280.6 487.68 280.66 487.71 280.69 487.75 280.75 487.8 280.8 487.85 280.85 487.92 280.93 487.99 281 488.05 281.08 488.11 281.13 488.18 281.22 488.23 281.28 488.25 281.29 488.3 281.28 488.35 281.26 488.48 281.21 488.56 281.18 488.69 281.11 488.76 281.08 488.8 281.06 488.87 281.04 488.98 281.01 489.08 280.98 489.14 280.97 489.16 280.96 489.2 280.96 489.26 280.94 489.35 280.93 489.41 280.92 489.43 280.91 489.44 280.91 489.46 280.91 489.55 280.87 489.63 280.84 489.65 280.83 489.66 280.87 489.67 280.94 489.72 280.93 489.75 280.93 489.76 281 489.77 281.06 489.8 281.05 489.86 281.01 489.95 280.97 489.95 280.99 489.96 281.05 489.98 281.17 489.99 281.18 489.99 281.2 490 281.25 490.02 281.32 490.02 281.33 490.02 281.34 490.03 281.36 490.05 281.46 490.07 281.57 490.09 281.68 490.11 281.78 490.15 281.94 490.16 282 490.17 282.07 490.19 282.13 490.2 282.2 490.21 282.29 490.22 282.34 490.24 282.41 490.24 282.43 490.26 282.49 490.3 282.56 490.33 282.64 490.35 282.7 490.38 282.76 490.39 282.79 490.4 282.84 490.42 282.89 490.44 282.95 490.45 282.97 490.45 283.01 490.46 283.04 490.46 283.06 490.47 283.1 490.48 283.15 490.48 283.19 490.48 283.2 490.48 283.22 490.48 283.29 490.5 283.33 490.51 283.34 490.52 283.35 490.54 283.35 490.76 283.46 490.8 283.48 491.03 283.59 491.26 283.7 491.47 283.78 491.56 283.83 491.65 283.87 491.69 283.89 491.79 283.94 491.91 284.01 491.92 284.01 491.92 284.03 491.92 284.05 491.94 284.06 492.02 284.07 492.09 284.08 492.24 284.12 492.46 284.17 492.64 284.22 492.77 284.26 492.86 284.3 492.95 284.3 493.16 284.31 493.24 284.32 493.29 284.34 493.46 284.31 493.64 284.3 493.82 284.27 493.87 284.27 494.08 284.3 494.38 284.37 494.42 284.38 494.44 284.38 494.45 284.38 494.46 284.38 494.6 284.03 494.59 283.89 494.59 283.83 494.55 283.62 494.6 283.34 494.6 283.31 494.61 283.28 494.63 283.28 494.84 283.3 494.85 283.3 494.85 283.38 494.84 283.41 494.84 283.43 494.84 283.46 494.85 283.49 494.98 283.57 495.12 283.64 495.25 283.71 495.31 283.73 495.49 283.83 495.48 283.85 495.39 283.95 495.36 283.99 495.34 284 495.31 284.05 495.27 284.13 495.27 284.13 495.2 284.25 495.11 284.41 495.09 284.44 495.08 284.45 495.07 284.48 495.07 284.51 495.08 284.62 495.1 284.72 495.1 284.73 495.11 284.77 495.12 284.82 495.14 284.93 495.14 284.97 495.13 285.07 495.13 285.19 495.14 285.25 495.14 285.29 495.15 285.31 495.2 285.34 495.32 285.39 495.39 285.42 495.69 285.54 496.04 285.68 496.05 285.69 496.06 285.69 496.18 285.74 496.32 285.8 496.38 285.84 496.39 285.84 496.47 285.88 496.65 285.99 496.81 286.08 496.82 286.09 496.83 286.09 496.85 286.1 497.18 286.28 497.19 286.28 497.24 286.31 497.35 286.37 497.38 286.39 497.4 286.4 497.45 286.46 497.59 286.6 497.7 286.71 497.71 286.74 497.71 286.76 497.71 286.78 497.7 286.88 497.7 287 497.69 287.1 497.69 287.12 497.68 287.16 497.69 287.21 497.71 287.21 497.72 287.21 497.89 287.22 497.96 287.23 498 287.23 498.09 287.24 498.27 287.26 498.29 287.26 498.38 287.27 498.4 287.27 498.41 287.27 498.44 287.27 498.45 287.28 498.47 287.28 498.48 287.28 498.63 287.3 498.72 287.3 498.76 287.31 498.77 287.31 498.8 287.33 498.83 287.37 498.91 287.44 498.92 287.44 498.94 287.46 498.95 287.47 499.13 287.6 499.13 287.61 499.5 287.89 499.53 287.91 499.72 288.07 499.8 288.14 499.9 288.23 500.09 288.4 500.14 288.44 500.19 288.49 500.34 288.63 500.41 288.65 500.57 288.67 500.63 288.68 500.72 288.69 500.76 288.69 500.97 288.72 501.19 288.75 501.29 288.76 501.41 288.78 501.46 288.78 501.56 288.79 501.6 288.79 501.61 288.79 501.88 288.82 501.99 288.83 502.01 288.83 502.1 288.85 502.13 288.84 502.41 288.76 502.42 288.76 502.79 288.67 502.97 288.62 502.99 288.62 503.03 288.63 503.14 288.65 503.18 288.67 503.2 288.67 503.22 288.68 503.3 288.7 503.53 288.76 503.59 288.78 503.7 288.81 504.04 288.89 504.13 288.92 504.3 288.96 504.34 288.97 504.38 288.99 504.43 289 504.45 289.01 504.59 289.05 504.64 289.06 504.64 289.07 504.65 289.09 504.67 289.12 504.67 289.13 504.68 289.14 504.69 289.14 504.73 289.17 504.77 289.2 504.82 289.25 504.84 289.26 504.99 289.47 505.11 289.59 505.18 289.68 505.21 289.74 505.22 289.82 505.44 290.68 505.47 290.82 505.45 291.24 505.44 291.32 505.37 291.3 505.3 291.28 505.23 291.27 505.17 291.26 505.12 291.26 505.04 291.27 504.96 291.29 504.91 291.31 504.86 291.33 504.79 291.38 504.71 291.43 504.64 291.48 504.56 291.52 504.49 291.55 504.4 291.59 504.33 291.61 504.27 291.64 504.2 291.68 504.15 291.7 504.09 291.75 504.03 291.79 503.97 291.84 503.92 291.88 503.86 291.95 503.77 292.05 503.74 292.11 503.7 292.17 503.67 292.24 503.65 292.29 503.62 292.35 503.6 292.42 503.58 292.47 503.56 292.53 503.54 292.63 503.53 292.68 503.5 292.73 503.48 292.77 503.46 292.79 503.43 292.83 503.4 292.87 503.36 292.9 503.32 292.95 503.28 292.98 503.24 293.02 503.18 293.07 503.12 293.11 503.06 293.16 503 293.2 502.93 293.25 502.9 293.28 502.84 293.34 502.77 293.39 502.72 293.45 502.69 293.47 502.68 293.48 502.66 293.49 502.63 293.52 502.58 293.57 502.53 293.62 502.48 293.67 502.43 293.72 502.38 293.76 502.32 293.81 502.23 293.89 502.16 293.95 502.11 293.99 502.04 294.06 501.98 294.13 501.92 294.18 501.89 294.22 501.86 294.24 501.83 294.26 501.79 294.29 501.78 294.29 501.75 294.31 501.7 294.32 501.69 294.32 501.62 294.34 501.58 294.35 501.53 294.36 501.46 294.35 501.39 294.34 501.32 294.32 501.26 294.29 501.2 294.27 501.13 294.24 501.06 294.22 501.05 294.21 500.98 294.19 500.9 294.17 500.8 294.15 500.75 294.15 500.64 294.15 500.54 294.15 500.45 294.15 500.39 294.14 500.35 294.12 500.3 294.09 500.26 294.06 500.21 294.04 500.16 294.02 500.08 293.99 499.97 293.95 499.88 293.91 499.8 293.88 499.73 293.85 499.67 293.81 499.6 293.76 499.53 293.71 499.46 293.64 499.39 293.59 499.36 293.55 499.35 293.59 499.34 293.64 499.33 293.65 499.31 293.71 499.3 293.76 499.27 293.85 499.24 293.98 499.2 294.1 499.19 294.14 499.17 294.21 499.14 294.31 499.11 294.42 499.08 294.52 499.06 294.6 498.98 294.67 498.95 294.7 498.91 294.74 498.85 294.81 498.78 294.88 498.74 294.93 498.7 294.98 498.65 295.02 498.61 295.06 498.57 295.05 498.55 295.04 498.51 295.03 498.46 295.02 498.39 295 498.33 294.99 498.28 294.99 498.22 294.98 498.13 294.98 498.07 294.98 498.05 294.98 498.04 294.98 498.02 294.98 497.99 294.97 497.96 294.96 497.93 294.94 497.87 294.9 497.81 294.86 497.78 294.83 497.74 294.81 497.72 294.79 497.69 294.79 497.68 294.79 497.65 294.81 497.62 294.83 497.58 294.86 497.55 294.89 497.51 294.91 497.48 294.92 497.44 294.93 497.41 294.92 497.39 294.92 497.31 294.88 497.24 294.85 497.17 294.82 497.11 294.79 497.05 294.77 496.99 294.75 496.97 294.74 496.92 294.7 496.85 294.67 496.79 294.64 496.74 294.61 496.71 294.59 496.65 294.57 496.58 294.54 496.53 294.51 496.5 294.52 496.46 294.53 496.4 294.55 496.32 294.57 496.29 294.58 496.25 294.57 496.22 294.56 496.19 294.56 496.17 294.56 496.14 294.57 496.12 294.59 496.08 294.62 496.05 294.63 496.03 294.64 495.98 294.64 495.93 294.64 495.88 294.64 495.83 294.65 495.76 294.65 495.73 294.65 495.71 294.65 495.66 294.65 495.6 294.65 495.54 294.65 495.49 294.66 495.44 294.66 495.4 294.67 495.35 294.67 495.27 294.68 495.23 294.7 495.18 294.71 495.13 294.74 495.07 294.77 495.02 294.81 494.96 294.86 494.89 294.91 494.8 294.99 494.75 295.02 494.72 295.05 494.67 295.08 494.62 295.1 494.59 295.13 494.54 295.15 494.5 295.19 494.48 295.22 494.46 295.25 494.45 295.3 494.43 295.34 494.42 295.38 494.41 295.43 494.36 295.41 494.31 295.4 494.25 295.38 494.2 295.37 494.15 295.35 494.09 295.33 494.03 295.31 493.98 295.3 493.93 295.28 493.89 295.27 493.85 295.25 493.83 295.2 493.82 295.18 493.8 295.17 493.76 295.16 493.76 295.16 493.75 295.15 493.74 295.15 493.73 295.15 493.69 295.14 493.61 295.14 493.54 295.13 493.5 295.13 493.49 295.13 493.46 295.13 493.42 295.15 493.39 295.15 493.29 295.15 493.15 295.14 493.02 295.13 492.92 295.13 492.87 295.13 492.86 295.13 492.82 295.13 492.74 295.12 492.58 295.1 492.51 295.09 492.43 295.08 492.34 295.07 492.28 295.06 492.18 295.04 492.11 295.03 492.02 295 491.97 294.99 491.86 294.98 491.78 294.97 491.73 294.96 491.66 294.95 491.61 294.95 491.52 294.95 491.46 294.94 491.37 294.93 491.29 294.91 491.14 294.88 491.06 294.86 490.98 294.84 490.96 294.84 490.94 294.89 490.91 294.97 490.89 295.03 490.85 295.12 490.82 295.18 490.79 295.26 490.77 295.33 490.73 295.41 490.71 295.46 490.68 295.54 490.66 295.61 490.63 295.68 490.61 295.71 490.59 295.78 490.57 295.82 490.56 295.86 490.53 295.9 490.51 295.93 490.47 295.97 490.43 296.01 490.4 296.06 490.38 296.1 490.37 296.12 490.36 296.15 490.36 296.2 490.35 296.26 490.34 296.3 490.34 296.36 490.34 296.42 490.33 296.48 490.32 296.58 490.32 296.63 490.3 296.74 490.29 296.81 490.27 296.9 490.25 296.96 490.23 297.07 490.22 297.12 490.2 297.23 490.18 297.29 490.16 297.39 490.12 297.56 490.09 297.72 490.07 297.79 490.05 297.78 490.04 297.79 489.92 297.81 489.69 297.87 489.59 297.89 489.42 297.93 489.31 297.95 489.16 297.98 489.15 297.99 489.13 297.99 489.11 297.99 489.09 298 489.05 298.01 488.96 298.03 488.89 298.04 488.88 298.05 488.78 298.07 488.65 298.1 488.61 298.1 488.52 298.13 488.48 298.13 488.47 298.14 488.36 298.16 488.32 298.17 488.29 298.17 488.17 298.21 488.14 298.21 488.09 298.22 488.09 298.23 488.07 298.23 487.98 298.25 487.96 298.26 487.93 298.29 487.85 298.37 487.73 298.48 487.67 298.54 487.58 298.63 487.53 298.61 487.49 298.59 487.45 298.57 487.42 298.55 487.37 298.52 487.34 298.49 487.28 298.46 487.23 298.42 487.17 298.38 487.14 298.36 487.11 298.32 487.07 298.25 487.05 298.23 487.03 298.2 487 298.15 486.97 298.11 486.96 298.1 486.92 298.06 486.88 298.02 486.85 297.99 486.8 297.95 486.72 297.9 486.64 297.95 486.58 297.99 486.51 298.02 486.46 298.04 486.39 298.06 486.38 298.06 486.34 298.08 486.26 298.11 486.22 298.12 486.21 298.13 486.2 298.13 486.19 298.14 486.18 298.14 486.14 298.15 486.07 298.18 486.05 298.19 485.96 298.22 485.87 298.25 485.83 298.23 485.8 298.23 485.74 298.21 485.64 298.17 485.62 298.16 485.59 298.16 485.59 298.15 485.54 298.12 485.47 298.08 485.43 298.06 485.38 298.03 485.29 297.98 485.27 297.97 485.19 297.92 485.12 297.88 485.07 297.85 485.03 297.83 484.96 297.79 484.86 297.73 484.81 297.7 484.76 297.65 484.7 297.58 484.56 297.42 484.51 297.43 484.45 297.44 484.41 297.45 484.38 297.45 484.29 297.47 484.23 297.49 484.22 297.49 484.19 297.5 484.15 297.5 484.01 297.47 483.75 297.43 483.66 297.42 483.59 297.4 483.33 297.33 483.16 297.28 482.66 297.12 482.38 297.02 482.3 296.99 482.03 296.9 481.69 296.79 481.64 296.77 481.41 296.69 481.32 296.66 481.24 296.63 481.1 296.59 480.85 296.5 480.77 296.48 480.71 296.46 480.68 296.45 480.42 296.36 480.19 296.22 480.19 296.22 480.18 296.21 480.14 296.19 479.98 296.1 479.92 296.06 479.89 296.04 479.8 295.99 479.73 295.94 479.62 295.88 479.48 295.79 479.47 295.78 479.46 295.78 479.51 295.72 479.56 295.65 479.59 295.61 479.65 295.54 479.68 295.44 479.71 295.38 479.74 295.28 479.76 295.23 479.78 295.17 479.8 295.13 479.85 294.99 479.89 294.9 479.91 294.82 479.94 294.69 479.96 294.62 479.97 294.54 479.99 294.46 479.99 294.44 480 294.4 480 294.39 480 294.35 480.01 294.32 480.01 294.27 480.02 294.21 480.02 294.2 480.02 294.19 480.02 294.17 480.03 294.15 480.02 294.12 480.01 294.1 479.99 294.05 479.96 294 479.93 293.88 479.91 293.78 479.88 293.67 479.86 293.6 479.85 293.56 479.81 293.42 479.79 293.34 479.78 293.27 479.79 293.22 479.86 293.19 480.06 293.07 480.27 292.96 480.28 292.96 480.44 292.87 480.42 292.82 480.4 292.79 480.36 292.76 480.32 292.75 480.29 292.75 480.24 292.76 480.14 292.79 480.04 292.81 479.94 292.84 479.84 292.86 479.78 292.87 479.75 292.88 479.74 292.88 479.63 292.89 479.54 292.9 479.44 292.91 479.36 292.91 479.22 292.93 479.1 292.94 479 292.95 478.81 292.97 478.69 292.98 478.56 293 478.45 293 478.38 293.01 478.27 293.02 478.17 293.03 478.07 293.05 477.98 293.05 477.81 293.06 477.7 293.06 477.61 293.06 477.41 293.06 477.3 293.06 477.11 293.06 476.94 293.06 476.75 293.06 476.58 293.05 476.23 293.05 475.97 293.05 475.83 293.04 475.68 293.03 475.44 293 475.33 292.97 475.18 292.96 475.01 292.95 474.83 292.94 474.52 292.9 474.28 292.88 474.02 292.85 473.97 292.85 473.95 292.84 473.86 292.84 473.68 292.82 473.5 292.8 473.33 292.75 473.09 292.68 472.79 292.58 472.45 292.46 472.26 292.37 472.06 292.29 471.97 292.26 471.87 292.21 471.82 292.19 471.77 292.04 471.75 291.99 471.69 291.85 471.68 291.84 471.66 291.79 471.63 291.72 471.56 291.57 471.45 291.35 471.4 291.22 471.32 291.04 471.26 290.91 471.17 290.74 471.07 290.55 470.96 290.34 470.94 290.28 470.9 290.22 470.87 290.17 470.84 290.11 470.8 290.05 470.75 289.98 470.7 289.9 470.61 289.77 470.58 289.72 470.55 289.66 470.52 289.62 470.5 289.59 470.46 289.53 470.45 289.51 470.43 289.46 470.4 289.39 470.37 289.33 470.34 289.27 470.31 289.21 470.28 289.17 470.25 289.13 470.23 289.11 470.22 289.1 470.18 289.05 470.13 288.99 470.08 288.92 470.02 288.85 470 288.83 469.95 288.76 469.87 288.67 469.78 288.57 469.72 288.48 469.65 288.43 469.61 288.4 469.52 288.36 469.44 288.3 469.4 288.27 469.35 288.24 469.29 288.19 469.23 288.14 469.17 288.09 469.11 288.04 469.05 287.98 468.98 287.92 468.92 287.86 468.84 287.78 468.82 287.77 468.73 287.69 468.51 287.77 468.38 287.82 468.26 287.86 468.08 287.92 467.82 288.01 467.68 288.06 467.56 288.1 467.48 288.13 467.39 288.16 467.31 288.19 467.23 288.23 467.12 288.28 466.96 288.36 466.87 288.4 466.81 288.43 466.72 288.47 466.63 288.51 466.56 288.55 466.47 288.59 466.4 288.62 466.32 288.65 466.26 288.69 466.21 288.72 466.14 288.75 466.06 288.77 466 288.8 465.92 288.84 465.84 288.88 465.78 288.91 465.77 288.85 465.77 288.77 465.76 288.69 465.75 288.6 465.73 288.48 465.72 288.43 465.71 288.4 465.69 288.32 465.67 288.23 465.65 288.17 465.63 288.1 465.61 288.02 465.57 287.94 465.54 287.85 465.5 287.75 465.46 287.67 465.44 287.58 465.4 287.51 465.37 287.42 465.34 287.35 465.3 287.27 465.27 287.19 465.25 287.12 465.21 287.03 465.2 287.01 465.12 287.01 465.05 287 464.99 286.99 464.93 286.98 464.87 286.98 464.83 286.98 464.77 286.98 464.73 286.99 464.69 287 464.65 287.01 464.57 287.02 464.5 287.04 464.49 287.04 464.41 287.04 464.36 287.05 464.28 287.06 464.21 287.08 464.15 287.08 464.09 287.09 464.02 287.08 463.94 287.08 463.87 287.07 463.8 287.07 463.75 287.06 463.71 287.06 463.65 287.05 463.56 287.04 463.46 287.03 463.38 287.02 463.3 287.02 463.23 287.02 463.16 287.02 463.1 287.02 463.01 287.03 462.94 287.03 462.87 287.04 462.8 287.05 462.73 287.06 462.65 287.08 462.61 287.08 462.48 287.08 462.36 287.06 462.36 286.9 462.36 286.82 462.52 286.73 462.77 286.57 462.98 286.44 463.12 286.36 463.18 286.33 463.33 286.25 463.46 286.18 463.58 286.11 463.73 286.07 463.85 286.04 463.97 286 464.08 285.95 464.27 285.88 464.48 285.8 464.63 285.75 464.75 285.71 464.87 285.66 465.02 285.59 465.15 285.52 465.33 285.44 465.42 285.39 465.59 285.31 465.7 285.26 465.85 285.17 465.97 285.1 466.12 285.03 466.23 284.98 466.39 284.89 466.55 284.8 466.73 284.7 466.9 284.61 467.06 284.51 467.1 284.49 467.06 284.42 466.97 284.27 466.89 284.12 466.81 283.95 466.75 283.81 Z"/>
</g></svg>