<svg xmlns="http://www.w3.org/2000/svg" version="1.2" baseProfile="tiny" stroke-linecap="round" stroke-linejoin="round" viewBox="286.32 88.8 10.38 12.52"><g xmlns="http://www.w3.org/2000/svg" id="Ondarroa">
<path d="M 296.65 93.77 296.42 94.02 296.32 94.01 296.26 94 296.2 93.97 295.9 93.89 295.84 93.86 295.79 93.84 295.74 93.81 295.61 93.68 295.56 93.65 295.33 93.58 295.26 93.55 295.22 93.53 294.99 93.54 294.67 93.48 294.65 93.54 295.25 93.92 292.74 96.89 292.16 97.23 290.38 98.26 290.3 98.55 290.12 99.05 289.59 100.03 289.54 100.1 288.6 101.31 288.18 101.19 287.79 100.91 287.53 100.85 286.68 100.86 286.33 100.8 286.38 100.1 286.49 99.26 286.47 99.05 286.53 98.98 287.13 97.65 287.19 97.47 287.23 97.25 287.28 96.69 288.58 96.38 289.52 96.67 289.54 96.68 289.54 97.24 289.54 97.36 291.39 97.27 291.39 97.23 291.4 97.11 291.37 97.05 291.36 97.04 291.36 97 291.38 96.89 291.39 96.87 291.41 96.81 291.42 96.75 291.42 96.69 291.45 96.6 291.44 96.52 291.43 96.46 291.4 96.43 291.36 96.41 291.36 96.34 291.38 96.29 291.46 96.22 291.47 96.17 291.45 95.91 291.44 95.86 291.43 95.81 291.43 95.73 291.42 95.61 291.38 95.44 291.36 95.27 291.37 95.16 291.37 94.92 291.37 94.81 291.36 94.75 291.36 94.7 291.15 94.77 290.28 94.98 290.26 94.98 290.17 94.98 290.09 94.98 290.01 94.97 289.93 94.96 289.75 94.84 289.62 94.8 289.47 94.75 289.32 94.72 289.18 94.69 289.08 94.67 288.96 94.67 288.88 94.67 287.81 93.85 287.78 94.07 287.73 94.24 287.65 94.52 287.62 94.57 287.48 94.76 287.4 94.82 287.06 95.07 286.85 95.12 286.61 95.19 286.85 92.13 287.36 92.13 287.64 92.17 288.04 92.17 288.06 92.18 288.16 92.2 288.2 92.21 288.26 92.21 288.32 92.21 288.43 92.19 288.49 92.16 288.67 92.07 288.72 92.07 288.89 92.11 288.98 92.03 289.49 91.83 289.59 91.79 289.7 91.74 289.76 91.73 289.83 91.72 289.98 91.76 289.9 91.65 289.86 91.62 289.59 91.47 289.48 91.36 289.39 91.22 289.33 91.11 289.26 91.03 289.22 90.98 289.19 90.94 289.14 90.9 289.14 90.85 289.14 90.8 289.14 90.73 289.13 90.68 289.14 90.63 289.14 90.56 289.15 90.5 289.16 90.42 289.17 90.36 289.2 90.22 289.23 90.16 289.25 90.1 289.26 90.04 289.26 90.02 289.26 89.97 289.25 89.92 289.23 89.8 289.18 89.62 289.18 89.56 289.18 89.51 289.2 89.45 289.21 89.39 289.2 89.22 289.24 89.12 289.24 89.08 289.18 88.91 289.19 88.9 289.2 88.92 289.21 88.92 289.24 88.88 289.25 88.87 289.26 88.86 289.3 88.84 289.31 88.84 289.34 88.84 289.35 88.84 289.4 88.88 289.46 88.89 289.47 88.9 289.48 88.9 289.49 88.9 289.51 88.9 289.53 88.91 289.55 88.91 289.57 88.91 289.59 88.91 289.61 88.91 289.64 88.91 289.66 88.9 289.68 88.9 289.71 88.9 289.73 88.89 289.75 88.88 289.77 88.88 289.79 88.87 289.8 88.87 289.82 88.86 289.83 88.86 289.84 88.85 289.85 88.85 289.86 88.84 289.87 88.84 289.88 88.84 289.89 88.84 289.89 88.84 289.9 88.84 289.91 88.83 289.92 88.83 289.93 88.83 289.94 88.83 289.95 88.82 289.96 88.82 289.97 88.81 289.99 88.81 290 88.8 290.01 88.8 290.02 88.8 290.03 88.8 290.04 88.8 290.04 88.8 290.05 88.8 290.06 88.8 290.07 88.8 290.07 88.81 290.08 88.82 290.09 88.83 290.1 88.84 290.11 88.85 290.13 88.86 290.14 88.87 290.15 88.88 290.17 88.9 290.18 88.91 290.2 88.92 290.22 88.93 290.24 88.94 290.26 88.95 290.29 88.96 290.32 88.97 290.36 88.97 290.4 88.97 290.44 88.97 290.5 88.97 290.56 88.98 290.62 88.98 290.7 89 290.78 89.02 290.87 89.06 290.97 89.11 290.97 89.13 290.98 89.17 291 89.2 291.01 89.2 291.02 89.2 291.03 89.2 291.04 89.21 291.05 89.21 291.06 89.21 291.08 89.21 291.1 89.2 291.11 89.18 291.13 89.17 291.15 89.16 291.16 89.16 291.17 89.16 291.19 89.16 291.2 89.16 291.21 89.16 291.22 89.16 291.23 89.17 291.24 89.18 291.24 89.19 291.23 89.21 291.23 89.22 291.23 89.23 291.23 89.24 291.24 89.25 291.25 89.26 291.26 89.26 291.28 89.27 291.29 89.27 291.3 89.27 291.32 89.29 291.33 89.3 291.35 89.31 291.36 89.32 291.38 89.34 291.39 89.35 291.42 89.37 291.45 89.38 291.48 89.4 291.52 89.41 291.55 89.42 291.58 89.42 291.59 89.42 291.6 89.42 291.61 89.42 291.61 89.42 291.62 89.42 291.63 89.42 291.65 89.41 291.67 89.41 291.69 89.4 291.71 89.39 291.72 89.37 291.73 89.36 291.74 89.35 291.74 89.34 291.75 89.34 291.76 89.34 291.77 89.35 291.79 89.36 291.8 89.37 291.81 89.37 291.83 89.39 291.85 89.41 291.86 89.43 291.88 89.45 291.9 89.47 291.92 89.49 291.92 89.49 291.95 89.51 291.97 89.53 291.99 89.54 292.02 89.56 292.04 89.58 292.06 89.6 292.08 89.61 292.11 89.63 292.13 89.64 292.15 89.65 292.18 89.67 292.2 89.68 292.21 89.69 292.22 89.71 292.23 89.72 292.24 89.73 292.25 89.74 292.27 89.75 292.28 89.75 292.3 89.75 292.31 89.75 292.33 89.75 292.34 89.75 292.36 89.75 292.37 89.74 292.38 89.74 292.39 89.73 292.4 89.73 292.41 89.72 292.41 89.73 292.42 89.73 292.42 89.74 292.43 89.75 292.44 89.77 292.46 89.78 292.48 89.8 292.5 89.81 292.52 89.83 292.54 89.84 292.56 89.85 292.57 89.87 292.59 89.88 292.6 89.89 292.62 89.91 292.63 89.92 292.64 89.93 292.65 89.94 292.67 89.95 292.68 89.96 292.69 89.97 292.71 89.98 292.71 89.98 292.72 89.99 292.73 89.99 292.74 89.99 292.75 90 292.75 90 292.76 90 292.77 90.01 292.78 90.02 292.78 90.02 292.79 90.03 292.79 90.04 292.8 90.04 292.8 90.05 292.8 90.06 292.81 90.08 292.81 90.09 292.81 90.1 292.82 90.11 292.83 90.12 292.84 90.14 292.85 90.15 292.87 90.16 292.89 90.17 292.91 90.18 292.92 90.18 292.93 90.18 292.94 90.18 292.95 90.18 292.96 90.19 292.97 90.19 292.98 90.19 292.96 90.17 292.93 90.15 292.89 90.12 292.86 90.09 292.83 90.06 292.83 90.04 292.82 90.03 292.81 90.01 292.8 90 292.8 89.98 292.81 89.99 292.83 90 292.84 90.01 292.85 90.02 292.86 90.03 292.88 90.04 292.9 90.06 292.92 90.07 292.93 90.08 292.95 90.09 292.97 90.08 292.98 90.08 292.99 90.07 293 90.07 293.02 90.06 293.03 90.06 293.04 90.06 293.05 90.06 293.06 90.06 293.06 90.07 293.07 90.08 293.07 90.08 293.07 90.09 293.07 90.1 293.07 90.11 293.06 90.12 293.05 90.13 293.04 90.15 293.03 90.16 293.03 90.17 293.02 90.17 293.02 90.18 293.02 90.19 293.02 90.2 293.04 90.2 293.05 90.19 293.05 90.18 293.06 90.18 293.07 90.17 293.07 90.17 293.09 90.16 293.1 90.15 293.11 90.15 293.12 90.14 293.13 90.14 293.14 90.13 293.15 90.13 293.17 90.13 293.18 90.13 293.19 90.12 293.2 90.12 293.21 90.13 293.22 90.13 293.23 90.13 293.24 90.14 293.25 90.14 293.27 90.15 293.28 90.16 293.3 90.17 293.33 90.19 293.36 90.2 293.39 90.22 293.42 90.23 293.44 90.25 293.47 90.26 293.49 90.28 293.51 90.29 293.53 90.31 293.55 90.32 293.57 90.34 293.6 90.35 293.63 90.37 293.65 90.38 293.68 90.39 293.7 90.41 293.71 90.43 293.71 90.44 293.71 90.45 293.71 90.46 293.71 90.47 293.71 90.47 293.71 90.48 293.7 90.49 293.69 90.5 293.68 90.51 293.67 90.51 293.66 90.5 293.65 90.5 293.64 90.49 293.62 90.49 293.61 90.48 293.6 90.48 293.59 90.47 293.57 90.46 293.56 90.46 293.54 90.45 293.53 90.45 293.51 90.44 293.5 90.44 293.49 90.44 293.5 90.45 293.51 90.46 293.54 90.47 293.56 90.49 293.57 90.5 293.59 90.51 293.6 90.52 293.61 90.53 293.63 90.55 293.64 90.56 293.65 90.57 293.66 90.58 293.67 90.6 293.68 90.61 293.69 90.62 293.69 90.64 293.7 90.65 293.7 90.67 293.7 90.68 293.69 90.69 293.69 90.7 293.69 90.71 293.69 90.73 293.7 90.74 293.7 90.74 293.71 90.75 293.71 90.76 293.72 90.77 293.73 90.77 293.74 90.78 293.74 90.78 293.75 90.79 293.77 90.79 293.78 90.79 293.79 90.79 293.8 90.8 293.82 90.81 293.84 90.81 293.86 90.82 293.87 90.82 293.9 90.82 293.92 90.82 293.94 90.83 293.95 90.84 293.97 90.85 293.99 90.87 294.01 90.88 294.02 90.88 294.04 90.88 294.06 90.89 294.07 90.89 294.09 90.89 294.1 90.89 294.13 90.9 294.15 90.91 294.17 90.91 294.2 90.92 294.22 90.94 294.23 90.95 294.24 90.97 294.25 90.98 294.25 91 294.25 91.02 294.26 91.03 294.27 91.04 294.29 91.05 294.29 91.05 294.3 91.06 294.3 91.07 294.3 91.08 294.3 91.09 294.3 91.1 294.3 91.11 294.29 91.12 294.29 91.12 294.28 91.13 294.28 91.14 294.29 91.14 294.3 91.14 294.32 91.13 294.33 91.13 294.34 91.14 294.34 91.14 294.34 91.15 294.33 91.16 294.33 91.17 294.32 91.18 294.32 91.19 294.32 91.2 294.33 91.21 294.33 91.21 294.35 91.21 294.35 91.21 294.37 91.21 294.37 91.21 294.37 91.23 294.37 91.24 294.38 91.24 294.39 91.24 294.39 91.24 294.4 91.25 294.41 91.27 294.42 91.27 294.43 91.27 294.43 91.27 294.44 91.26 294.45 91.25 294.45 91.25 294.45 91.24 294.44 91.23 294.43 91.22 294.42 91.21 294.41 91.21 294.4 91.2 294.39 91.2 294.38 91.19 294.38 91.18 294.39 91.18 294.4 91.18 294.41 91.18 294.42 91.17 294.42 91.16 294.42 91.15 294.42 91.14 294.43 91.14 294.43 91.13 294.45 91.13 294.46 91.14 294.48 91.15 294.49 91.16 294.51 91.17 294.52 91.18 294.53 91.19 294.54 91.2 294.54 91.2 294.55 91.21 294.56 91.22 294.56 91.23 294.56 91.24 294.56 91.25 294.56 91.26 294.56 91.26 294.56 91.28 294.55 91.3 294.54 91.31 294.53 91.32 294.52 91.34 294.51 91.35 294.5 91.36 294.49 91.38 294.48 91.39 294.48 91.4 294.47 91.42 294.47 91.43 294.46 91.44 294.47 91.46 294.47 91.47 294.47 91.48 294.48 91.5 294.49 91.5 294.49 91.51 294.5 91.51 294.52 91.51 294.53 91.51 294.54 91.51 294.55 91.51 294.56 91.51 294.57 91.51 294.59 91.51 294.6 91.52 294.61 91.52 294.62 91.52 294.65 91.53 294.68 91.54 294.7 91.56 294.73 91.58 294.76 91.6 294.79 91.61 294.81 91.62 294.84 91.62 294.87 91.62 294.9 91.62 294.92 91.63 294.93 91.65 294.93 91.66 294.93 91.67 294.93 91.67 294.92 91.68 294.91 91.69 294.9 91.69 294.88 91.69 294.86 91.69 294.85 91.68 294.84 91.68 294.83 91.67 294.83 91.66 294.81 91.65 294.78 91.63 294.76 91.62 294.73 91.61 294.71 91.61 294.68 91.61 294.67 91.61 294.66 91.61 294.66 91.62 294.68 91.63 294.7 91.63 294.71 91.64 294.73 91.65 294.74 91.66 294.74 91.66 294.75 91.67 294.75 91.68 294.76 91.68 294.76 91.69 294.78 91.7 294.8 91.71 294.81 91.73 294.83 91.74 294.85 91.75 294.87 91.76 294.88 91.76 294.89 91.77 294.9 91.77 294.89 91.78 294.88 91.79 294.88 91.79 294.87 91.8 294.88 91.81 294.9 91.81 294.92 91.81 294.94 91.81 294.95 91.81 294.96 91.82 294.97 91.83 294.97 91.84 294.98 91.86 294.99 91.87 295 91.88 295 91.89 295.01 91.9 295.02 91.91 295.02 91.91 295.03 91.92 295.04 91.93 295.06 91.94 295.07 91.94 295.09 91.94 295.11 91.94 295.13 91.94 295.15 91.94 295.16 91.95 295.18 91.96 295.2 91.97 295.21 91.98 295.22 91.99 295.23 92.01 295.24 92.02 295.25 92.03 295.25 92.04 295.25 92.05 295.24 92.05 295.23 92.06 295.22 92.06 295.21 92.06 295.2 92.05 295.19 92.04 295.18 92.04 295.17 92.03 295.16 92.03 295.15 92.02 295.13 92.01 295.11 92 295.09 91.99 295.08 91.99 295.07 92 295.2 92.14 295.22 92.14 295.23 92.14 295.26 92.14 295.28 92.14 295.31 92.13 295.33 92.13 295.35 92.13 295.37 92.12 295.4 92.11 295.42 92.1 295.45 92.1 295.47 92.08 295.5 92.07 295.52 92.06 295.53 92.05 295.55 92.05 295.56 92.04 295.58 92.03 295.59 92.02 295.6 92.02 295.62 92.01 295.63 92.01 295.64 92 295.65 92 295.66 92 295.68 91.99 295.68 91.99 295.69 91.99 295.7 91.99 295.71 91.99 295.72 91.99 295.73 91.99 295.74 91.99 295.75 92 295.76 92 295.76 92.01 295.77 92.02 295.77 92.02 295.77 92.03 295.77 92.04 295.77 92.05 295.77 92.06 295.77 92.06 295.77 92.07 295.77 92.08 295.76 92.09 295.76 92.1 295.75 92.11 295.75 92.12 295.74 92.12 295.73 92.13 295.72 92.13 295.71 92.13 295.7 92.13 295.7 92.13 295.69 92.13 295.67 92.13 295.66 92.13 295.65 92.14 295.63 92.15 295.62 92.16 295.6 92.16 295.58 92.17 295.56 92.18 295.55 92.18 295.53 92.19 295.51 92.2 295.49 92.21 295.48 92.22 295.47 92.22 295.45 92.23 295.44 92.24 295.43 92.25 295.25 92.29 295.17 92.26 295.08 92.2 294.89 92.14 294.78 92.13 294.67 92.12 294.57 92.13 294.55 92.15 294.55 92.2 294.55 92.25 294.55 92.27 294.55 92.28 294.55 92.29 294.55 92.29 294.55 92.3 294.55 92.31 294.54 92.32 294.54 92.33 294.52 92.33 294.52 92.34 294.5 92.34 294.5 92.34 294.49 92.33 294.48 92.33 294.47 92.32 294.46 92.31 294.46 92.3 294.46 92.3 294.46 92.29 294.46 92.28 294.46 92.28 294.46 92.27 294.48 92.14 294.5 92.02 294.5 91.99 294.72 92.04 294.73 92.03 294.73 92.02 294.74 92.01 294.74 92 294.75 91.98 294.75 91.97 294.75 91.96 294.76 91.95 294.76 91.95 294.76 91.94 294.76 91.93 294.77 91.91 294.77 91.91 294.67 91.88 294.68 91.83 294.38 91.59 294.21 91.58 293.76 92.21 293.69 92.78 293.91 92.79 293.96 92.57 294 92.58 293.97 92.77 293.93 93.08 293.91 93.08 293.92 93.14 294.05 93.42 294.35 93.71 294.48 93.58 294.42 93.49 294.46 93.35 294.55 92.99 294.57 92.93 294.66 92.7 294.72 92.69 294.72 92.71 294.73 92.73 294.74 92.75 294.75 92.76 294.76 92.78 294.77 92.8 294.77 92.82 294.78 92.84 294.79 92.86 294.8 92.88 294.8 92.9 294.81 92.92 294.82 92.94 294.84 92.97 294.85 92.99 294.86 93.02 294.88 93.04 294.89 93.06 294.91 93.09 294.92 93.12 294.94 93.15 294.96 93.18 294.98 93.21 295 93.24 295.02 93.26 295.03 93.28 295.05 93.31 295.08 93.33 295.1 93.35 295.12 93.36 295.15 93.37 295.17 93.38 295.2 93.39 295.23 93.39 295.26 93.4 295.29 93.4 295.31 93.41 295.34 93.41 295.36 93.41 295.39 93.42 295.41 93.42 295.44 93.42 295.45 93.41 295.46 93.41 295.47 93.4 295.48 93.4 295.49 93.4 295.5 93.4 295.51 93.41 295.51 93.41 295.52 93.43 295.52 93.44 295.53 93.45 295.53 93.46 295.55 93.47 295.57 93.48 295.59 93.48 295.61 93.48 295.63 93.49 295.65 93.49 295.67 93.5 295.68 93.5 295.7 93.5 295.71 93.5 295.73 93.51 295.74 93.51 295.76 93.52 295.77 93.54 295.78 93.55 295.8 93.57 295.81 93.59 295.82 93.6 295.83 93.61 295.84 93.62 295.84 93.63 295.85 93.64 295.86 93.65 295.87 93.66 295.89 93.67 295.92 93.68 295.95 93.69 295.98 93.69 296.01 93.7 296.04 93.7 296.07 93.71 296.1 93.72 296.13 93.73 296.16 93.74 296.2 93.75 296.23 93.76 296.24 93.77 296.26 93.77 296.27 93.77 296.28 93.78 296.3 93.78 296.31 93.79 296.34 93.79 296.36 93.8 296.39 93.8 296.41 93.8 296.44 93.8 296.46 93.81 296.49 93.81 296.51 93.81 296.54 93.81 296.56 93.81 296.58 93.8 296.62 93.78 296.63 93.77 296.63 93.76 296.64 93.75 296.65 93.74 296.66 93.73 296.67 93.73 296.68 93.73 296.65 93.77 Z M 294.71 91.38 294.71 91.38 294.71 91.38 294.71 91.38 294.72 91.38 294.72 91.38 294.72 91.38 294.73 91.38 294.74 91.38 294.74 91.38 294.75 91.38 294.76 91.38 294.76 91.39 294.76 91.39 294.76 91.39 294.76 91.4 294.76 91.4 294.76 91.41 294.76 91.41 294.76 91.41 294.75 91.42 294.74 91.42 294.74 91.42 294.73 91.42 294.72 91.41 294.72 91.41 294.71 91.41 294.71 91.41 294.71 91.4 294.7 91.4 294.7 91.4 294.7 91.4 294.7 91.39 294.7 91.39 294.7 91.39 294.7 91.39 294.7 91.39 294.71 91.39 294.71 91.39 294.71 91.38 294.71 91.38 294.71 91.38 294.71 91.38 Z M 294.62 91.23 294.64 91.23 294.67 91.23 294.69 91.24 294.72 91.26 294.74 91.27 294.74 91.29 294.74 91.3 294.73 91.31 294.72 91.32 294.7 91.33 294.68 91.34 294.67 91.35 294.65 91.36 294.63 91.36 294.61 91.37 294.59 91.37 294.57 91.37 294.56 91.36 294.56 91.35 294.57 91.34 294.57 91.33 294.57 91.32 294.58 91.3 294.59 91.29 294.59 91.29 294.59 91.28 294.59 91.28 294.59 91.27 294.6 91.27 294.6 91.26 294.6 91.26 294.61 91.25 294.61 91.25 294.61 91.24 294.62 91.24 294.62 91.23 Z M 293.72 90.67 293.74 90.67 293.75 90.67 293.77 90.67 293.79 90.68 293.8 90.68 293.82 90.69 293.84 90.69 293.86 90.69 293.88 90.69 293.9 90.69 293.91 90.69 293.93 90.69 293.95 90.69 293.96 90.7 293.98 90.7 293.99 90.7 294.01 90.71 294.02 90.71 294.02 90.71 294.03 90.71 294.03 90.72 294.03 90.72 294.04 90.72 294.04 90.72 294.06 90.73 294.08 90.75 294.09 90.77 294.11 90.79 294.13 90.8 294.15 90.8 294.15 90.8 294.16 90.79 294.17 90.79 294.17 90.79 294.18 90.79 294.18 90.78 294.19 90.78 294.24 90.83 294.26 90.84 294.31 90.86 294.31 90.87 294.3 90.87 294.3 90.88 294.29 90.88 294.28 90.89 294.28 90.89 294.27 90.89 294.27 90.89 294.27 90.89 294.27 90.89 294.26 90.89 294.26 90.89 294.23 90.89 294.21 90.88 294.18 90.88 294.16 90.87 294.13 90.86 294.11 90.85 294.07 90.84 294.04 90.83 294 90.82 293.96 90.81 293.93 90.8 293.89 90.79 293.87 90.78 293.84 90.78 293.81 90.77 293.79 90.76 293.76 90.75 293.74 90.74 293.73 90.73 293.73 90.73 293.72 90.73 293.71 90.72 293.71 90.72 293.71 90.71 293.71 90.7 293.71 90.7 293.71 90.69 293.72 90.68 293.72 90.68 293.72 90.67 Z M 293.79 90.47 293.8 90.47 293.82 90.48 293.84 90.49 293.85 90.51 293.87 90.53 293.87 90.55 293.88 90.56 293.88 90.57 293.88 90.59 293.88 90.6 293.88 90.61 293.88 90.62 293.87 90.62 293.86 90.62 293.84 90.61 293.83 90.61 293.81 90.6 293.8 90.59 293.8 90.59 293.8 90.59 293.79 90.59 293.79 90.59 293.79 90.59 293.79 90.59 293.78 90.59 293.77 90.58 293.76 90.57 293.76 90.56 293.75 90.55 293.75 90.53 293.75 90.52 293.75 90.51 293.75 90.5 293.75 90.49 293.76 90.48 293.77 90.48 293.77 90.47 293.77 90.47 293.77 90.47 293.78 90.47 293.78 90.47 293.79 90.47 Z"/>
</g></svg>