<svg xmlns="http://www.w3.org/2000/svg" version="1.2" baseProfile="tiny" stroke-linecap="round" stroke-linejoin="round" viewBox="636.63 40.1 26.15 33.97"><g xmlns="http://www.w3.org/2000/svg" id="Oragarre">
<path d="M 645.51 42.23 645.53 42.23 645.61 42.25 645.97 42.32 646.46 42.41 646.65 42.45 646.78 42.47 647.17 42.55 647.33 42.58 647.56 42.63 647.68 42.65 647.8 42.67 647.83 42.68 648.94 42.9 649.02 42.91 649.41 42.99 650.09 43.12 650.77 43.24 651.46 43.37 651.55 43.38 651.6 43.39 651.62 43.39 651.64 43.4 651.71 43.41 651.79 43.42 651.85 43.42 651.84 43.45 651.83 43.46 651.81 43.47 651.78 43.47 651.76 43.47 651.74 43.46 651.72 43.46 651.71 43.47 651.68 43.49 651.68 43.53 651.67 43.55 651.68 43.58 651.69 43.6 651.71 43.62 651.72 43.63 651.73 43.64 651.76 43.66 651.79 43.67 651.83 43.68 651.86 43.69 651.89 43.7 651.92 43.71 651.95 43.72 651.97 43.74 651.99 43.75 652.02 43.77 652.05 43.79 652.07 43.8 652.1 43.82 652.12 43.83 652.15 43.85 652.23 43.87 652.3 43.91 652.32 43.92 652.36 43.93 652.4 43.94 652.43 43.94 652.46 43.93 652.49 43.93 652.52 43.93 652.54 43.93 652.56 43.94 652.58 43.94 652.6 43.96 652.61 43.97 652.62 43.99 652.63 44.02 652.64 44.05 652.64 44.09 652.64 44.14 652.65 44.18 652.65 44.25 652.65 44.3 652.65 44.34 652.66 44.37 652.67 44.4 652.69 44.42 652.71 44.42 652.72 44.41 652.74 44.38 652.75 44.36 652.75 44.35 652.76 44.33 652.77 44.3 652.79 44.28 652.81 44.28 652.83 44.28 652.84 44.3 652.84 44.33 652.83 44.37 652.82 44.41 652.82 44.46 652.81 44.5 652.81 44.54 652.81 44.59 652.82 44.63 652.83 44.66 652.84 44.71 652.85 44.74 652.87 44.76 652.88 44.78 652.92 44.81 652.99 44.88 653.02 44.9 653.06 44.92 653.12 44.93 653.15 44.94 653.18 44.94 653.21 44.95 653.24 44.96 653.26 44.96 653.29 44.95 653.3 44.94 653.33 44.9 653.34 44.89 653.36 44.87 653.37 44.85 653.38 44.83 653.39 44.81 653.4 44.79 653.41 44.78 653.42 44.76 653.43 44.73 653.44 44.71 653.46 44.69 653.46 44.66 653.47 44.64 653.48 44.61 653.49 44.6 653.5 44.58 653.51 44.56 653.52 44.54 653.53 44.53 653.55 44.52 653.57 44.52 653.6 44.54 653.61 44.56 653.62 44.58 653.62 44.63 653.61 44.67 653.6 44.69 653.6 44.71 653.59 44.73 653.59 44.77 653.58 44.79 653.58 44.81 653.58 44.83 653.57 44.85 653.57 44.87 653.57 44.89 653.57 44.91 653.57 44.93 653.57 44.95 653.58 44.97 653.58 44.98 653.59 45 653.6 45.01 653.62 45.02 653.63 45.03 653.65 45.02 653.66 45 653.67 44.98 653.67 44.96 653.68 44.94 653.68 44.92 653.69 44.91 653.71 44.89 653.72 44.88 653.73 44.86 653.73 44.85 653.73 44.83 653.73 44.82 653.74 44.8 653.75 44.78 653.76 44.77 653.78 44.77 653.79 44.77 653.81 44.78 653.82 44.8 653.83 44.82 653.84 44.84 653.84 44.87 653.85 44.89 653.86 44.9 653.86 44.92 653.86 44.94 653.86 44.97 653.87 44.99 653.87 45.01 653.87 45.03 653.85 45.04 653.83 45.06 653.81 45.08 653.79 45.09 653.78 45.11 653.76 45.12 653.75 45.12 653.73 45.13 653.72 45.15 653.7 45.17 653.68 45.19 653.67 45.22 653.66 45.23 653.65 45.25 653.64 45.27 653.63 45.29 653.63 45.31 653.62 45.33 653.62 45.35 653.61 45.37 653.61 45.39 653.6 45.42 653.6 45.43 653.6 45.44 653.59 45.46 653.6 45.48 653.6 45.5 653.6 45.52 653.6 45.54 653.6 45.55 653.61 45.56 653.61 45.58 653.62 45.6 653.63 45.61 653.64 45.62 653.66 45.62 653.67 45.62 653.69 45.62 653.71 45.62 653.73 45.61 653.75 45.61 653.78 45.6 653.8 45.6 653.81 45.59 653.83 45.59 653.85 45.6 653.87 45.6 653.88 45.62 653.88 45.63 653.89 45.64 653.89 45.66 653.89 45.69 653.88 45.72 653.88 45.75 653.88 45.78 653.87 45.81 653.86 45.83 653.85 45.86 653.85 45.89 653.84 45.92 653.84 45.94 653.84 45.96 653.83 45.99 653.82 46.01 653.81 46.02 653.8 46.04 653.79 46.06 653.78 46.08 653.79 46.09 653.79 46.1 653.8 46.11 653.81 46.11 653.82 46.11 653.84 46.1 653.85 46.09 653.86 46.08 653.88 46.06 653.89 46.05 653.91 46.05 653.93 46.05 653.94 46.06 653.96 46.08 653.97 46.11 653.98 46.12 654 46.14 654.01 46.15 654.03 46.16 654.05 46.17 654.06 46.17 654.08 46.17 654.1 46.16 654.12 46.15 654.13 46.14 654.13 46.12 654.14 46.1 654.15 46.08 654.16 46.07 654.17 46.06 654.19 46.07 654.21 46.09 654.22 46.11 654.23 46.12 654.23 46.14 654.24 46.15 654.25 46.17 654.25 46.19 654.25 46.2 654.25 46.22 654.25 46.23 654.25 46.25 654.25 46.27 654.24 46.29 654.24 46.31 654.23 46.33 654.23 46.35 654.22 46.37 654.21 46.39 654.2 46.4 654.19 46.42 654.17 46.43 654.15 46.44 654.13 46.44 654.11 46.45 654.09 46.46 654.07 46.47 654.05 46.47 654.04 46.48 654.02 46.49 654 46.5 653.99 46.51 653.98 46.52 653.96 46.54 653.96 46.56 653.96 46.58 653.96 46.6 653.95 46.61 653.95 46.64 653.95 46.66 653.95 46.68 653.96 46.71 653.96 46.73 653.97 46.75 653.97 46.77 653.97 46.79 653.97 46.81 653.96 46.83 653.95 46.85 653.94 46.87 653.93 46.89 653.93 46.91 653.92 46.93 653.93 46.95 653.93 46.97 653.94 46.98 653.93 47 653.92 47.02 653.92 47.04 653.92 47.06 653.91 47.08 653.91 47.11 653.92 47.13 653.92 47.15 653.92 47.18 653.92 47.2 653.93 47.22 653.94 47.24 653.95 47.26 653.94 47.28 653.93 47.29 653.91 47.3 653.91 47.31 653.88 47.32 653.86 47.33 653.84 47.35 653.82 47.37 653.81 47.39 653.8 47.41 653.78 47.43 653.77 47.45 653.76 47.47 653.75 47.49 653.75 47.5 653.76 47.52 653.76 47.54 653.75 47.57 653.75 47.59 653.75 47.61 653.75 47.63 653.74 47.65 653.74 47.67 653.73 47.69 653.71 47.71 653.71 47.73 653.7 47.76 653.7 47.79 653.7 47.81 653.71 47.83 653.71 47.86 653.72 47.88 653.73 47.89 653.74 47.92 653.74 47.94 653.74 47.97 653.74 48 653.74 48.02 653.74 48.07 653.74 48.1 653.75 48.11 653.87 48.15 653.93 48.16 653.94 48.18 653.96 48.19 653.99 48.22 654 48.23 654.01 48.25 654.02 48.27 654.03 48.29 654.06 48.35 654.07 48.38 654.09 48.39 654.1 48.41 654.11 48.43 654.11 48.45 654.12 48.46 654.13 48.49 654.13 48.51 654.15 48.53 654.17 48.54 654.18 48.55 654.2 48.55 654.22 48.56 654.24 48.56 654.25 48.55 654.29 48.55 654.33 48.54 654.38 48.53 654.4 48.53 654.42 48.53 654.45 48.52 654.47 48.53 654.48 48.53 654.49 48.54 654.52 48.54 654.54 48.54 654.55 48.55 654.56 48.56 654.57 48.58 654.58 48.6 654.59 48.64 654.59 48.65 654.59 48.67 654.6 48.68 654.6 48.71 654.61 48.72 654.61 48.73 654.61 48.75 654.61 48.77 654.61 48.81 654.61 48.83 654.62 48.85 654.62 48.87 654.63 48.9 654.64 48.92 654.64 48.96 654.65 48.98 654.66 49 654.68 49 654.7 49 654.72 49.01 654.73 49.01 654.75 49.01 654.77 49.01 654.8 49.01 654.81 48.99 654.84 48.97 654.86 48.95 654.9 48.94 654.91 48.93 654.94 48.93 654.98 48.93 654.99 48.93 655.02 48.93 655.03 48.93 655.04 48.93 655.06 48.93 655.09 48.93 655.1 48.94 655.12 48.94 655.13 48.95 655.14 48.95 655.15 48.96 655.17 48.97 655.18 48.98 655.2 48.99 655.21 49 655.22 49.02 655.23 49.05 655.24 49.07 655.24 49.09 655.25 49.11 655.26 49.13 655.27 49.15 655.28 49.17 655.26 49.22 655.31 49.37 655.35 49.45 655.34 49.48 655.35 49.49 655.35 49.5 655.34 49.52 655.34 49.53 655.33 49.54 655.33 49.55 655.26 49.56 655.25 49.56 655.24 49.56 655.22 49.57 655.21 49.57 655.19 49.57 655.18 49.57 655.16 49.57 655.15 49.58 655.13 49.58 655.12 49.58 655.1 49.59 655.08 49.59 655.07 49.59 655.06 49.6 655.06 49.61 655.05 49.62 655.05 49.65 655.04 49.67 655.03 49.69 655.02 49.71 655 49.72 654.99 49.74 654.97 49.76 654.96 49.77 654.95 49.79 654.95 49.81 654.95 49.82 654.96 49.84 654.97 49.86 654.99 49.87 655 49.88 655.02 49.89 655.03 49.9 655.04 49.91 655.05 49.92 655.06 49.94 655.07 49.96 655.09 49.97 655.13 50.03 655.14 50.05 655.15 50.07 655.15 50.09 655.17 50.11 655.18 50.12 655.2 50.13 655.21 50.13 655.23 50.13 655.25 50.14 655.27 50.15 655.29 50.16 655.3 50.17 655.31 50.18 655.34 50.21 655.36 50.22 655.38 50.22 655.4 50.23 655.43 50.24 655.45 50.24 655.47 50.24 655.53 50.25 655.54 50.25 655.56 50.26 655.58 50.27 655.61 50.28 655.63 50.28 655.66 50.29 655.68 50.3 655.7 50.32 655.74 50.32 655.77 50.33 655.79 50.33 655.81 50.33 655.83 50.34 655.85 50.34 655.87 50.35 655.89 50.36 655.92 50.38 655.93 50.41 655.93 50.42 655.94 50.45 655.95 50.47 655.96 50.5 655.96 50.51 655.98 50.53 655.99 50.55 656.02 50.57 656.03 50.59 656.06 50.61 656.07 50.63 656.08 50.64 656.09 50.65 656.11 50.66 656.12 50.68 656.13 50.69 656.14 50.7 656.15 50.7 656.16 50.69 656.16 50.68 656.17 50.66 656.18 50.64 656.2 50.62 656.21 50.61 656.23 50.6 656.25 50.59 656.27 50.58 656.28 50.56 656.29 50.55 656.31 50.53 656.32 50.52 656.33 50.51 656.35 50.51 656.36 50.5 656.37 50.5 656.39 50.51 656.4 50.52 656.4 50.54 656.41 50.55 656.41 50.56 656.43 50.56 656.44 50.55 656.47 50.54 656.49 50.53 656.5 50.53 656.53 50.52 656.55 50.51 656.56 50.5 656.58 50.5 656.59 50.47 656.61 50.45 656.63 50.43 656.67 50.42 656.68 50.41 656.68 50.39 656.7 50.38 656.71 50.38 656.73 50.38 656.76 50.38 656.78 50.37 656.79 50.36 656.81 50.33 656.83 50.32 656.85 50.3 656.89 50.28 656.91 50.28 656.94 50.28 656.98 50.29 656.99 50.29 657.01 50.29 657.03 50.3 657.05 50.3 657.07 50.3 657.09 50.32 657.11 50.33 657.12 50.33 657.13 50.36 657.13 50.37 657.14 50.38 657.15 50.39 657.15 50.41 657.16 50.42 657.16 50.45 657.16 50.49 657.15 50.51 657.15 50.52 657.14 50.53 657.12 50.57 657.11 50.6 657.11 50.62 657.11 50.64 657.11 50.66 657.11 50.68 657.11 50.7 657.12 50.72 657.12 50.73 657.13 50.77 657.14 50.8 657.14 50.82 657.14 50.84 657.14 50.86 657.14 50.88 657.14 50.91 657.13 50.92 657.13 50.94 657.13 50.95 657.13 50.98 657.14 51.01 657.15 51.03 657.15 51.04 657.17 51.06 657.17 51.08 657.18 51.1 657.19 51.11 657.19 51.12 657.2 51.13 657.21 51.14 657.23 51.15 657.24 51.15 657.26 51.15 657.27 51.15 657.29 51.15 657.3 51.15 657.31 51.16 657.32 51.16 657.33 51.16 657.35 51.15 657.36 51.13 657.37 51.12 657.39 51.11 657.41 51.09 657.42 51.09 657.43 51.1 657.44 51.11 657.45 51.12 657.46 51.14 657.47 51.15 657.49 51.17 657.5 51.19 657.52 51.2 657.53 51.21 657.54 51.23 657.55 51.24 657.57 51.26 657.59 51.28 657.6 51.3 657.62 51.31 657.63 51.32 657.63 51.33 657.64 51.35 657.64 51.37 657.65 51.39 657.66 51.41 657.66 51.43 657.66 51.45 657.67 51.47 657.66 51.5 657.65 51.51 657.64 51.53 657.63 51.56 657.62 51.58 657.61 51.6 657.59 51.63 657.58 51.64 657.57 51.66 657.57 51.68 657.57 51.7 657.57 51.71 657.58 51.73 657.59 51.74 657.6 51.75 657.62 51.77 657.63 51.78 657.65 51.8 657.68 51.82 657.69 51.82 657.7 51.84 657.72 51.85 657.73 51.86 657.74 51.86 657.76 51.87 657.78 51.87 657.79 51.86 657.81 51.84 657.83 51.81 657.84 51.79 657.85 51.76 657.87 51.72 657.88 51.69 657.88 51.67 657.89 51.65 657.9 51.64 657.91 51.63 657.92 51.63 657.94 51.63 657.95 51.63 657.97 51.65 657.99 51.67 658 51.69 658.01 51.7 658.03 51.72 658.04 51.74 658.06 51.76 658.08 51.78 658.09 51.79 658.1 51.81 658.12 51.82 658.13 51.83 658.15 51.84 658.17 51.86 658.18 51.87 658.2 51.89 658.2 51.91 658.21 51.94 658.22 51.96 658.22 51.97 658.24 51.99 658.25 51.99 658.27 52 658.29 52 658.3 51.99 658.32 51.98 658.33 51.97 658.34 51.96 658.36 51.95 658.38 51.95 658.4 51.94 658.42 51.93 658.43 51.93 658.47 51.93 658.48 51.94 658.5 51.96 658.5 51.98 658.51 52 658.51 52.02 658.51 52.03 658.5 52.05 658.5 52.07 658.49 52.09 658.48 52.1 658.45 52.14 658.44 52.15 658.43 52.17 658.42 52.19 658.42 52.2 658.41 52.24 658.39 52.25 658.38 52.26 658.38 52.27 658.35 52.29 658.34 52.29 658.32 52.29 658.31 52.29 658.28 52.29 658.26 52.29 658.25 52.29 658.22 52.3 658.22 52.31 658.22 52.32 658.22 52.33 658.22 52.35 658.22 52.36 658.21 52.37 658.19 52.37 658.18 52.37 658.16 52.38 658.14 52.38 658.11 52.38 658.09 52.38 658.07 52.38 658.05 52.38 658.03 52.38 658.01 52.38 658 52.38 657.97 52.38 657.95 52.38 657.9 52.4 657.86 52.42 657.85 52.43 657.86 52.45 657.89 52.53 657.89 52.56 657.89 52.57 657.86 52.6 657.85 52.61 657.8 52.64 657.81 52.7 657.85 52.71 657.86 52.72 657.86 52.75 657.86 52.79 657.85 52.85 657.86 52.86 657.86 52.87 657.87 52.89 657.88 52.89 657.88 52.9 657.9 52.9 657.91 52.9 657.92 52.9 657.92 52.9 657.93 52.89 657.94 52.9 657.96 52.92 657.97 52.94 657.98 52.96 657.99 52.97 658 52.99 658.01 53 658.02 53 658.04 53 658.05 53 658.07 53.01 658.08 53.01 658.1 53.02 658.11 53.02 658.12 53.03 658.13 53.04 658.14 53.05 658.15 53.06 658.18 53.07 658.21 53.09 658.22 53.1 658.27 53.14 658.33 53.19 658.38 53.23 658.41 53.25 658.42 53.27 658.44 53.29 658.44 53.31 658.43 53.33 658.42 53.35 658.41 53.37 658.4 53.38 658.39 53.38 658.38 53.38 658.37 53.39 658.35 53.4 658.35 53.41 658.34 53.43 658.35 53.45 658.35 53.46 658.36 53.47 658.37 53.48 658.39 53.48 658.41 53.48 658.43 53.47 658.46 53.46 658.5 53.45 658.52 53.44 658.55 53.44 658.58 53.44 658.62 53.44 658.66 53.44 658.71 53.45 658.76 53.47 658.8 53.48 658.82 53.48 658.84 53.48 658.86 53.47 658.87 53.45 658.88 53.44 658.89 53.43 658.91 53.43 658.92 53.44 658.94 53.46 658.95 53.46 658.97 53.46 658.99 53.46 659 53.48 659.02 53.52 659.02 53.53 659.03 53.54 659.04 53.55 659.06 53.56 659.08 53.57 659.1 53.57 659.12 53.56 659.14 53.55 659.17 53.54 659.18 53.54 659.2 53.54 659.22 53.54 659.23 53.54 659.24 53.55 659.25 53.58 659.25 53.6 659.26 53.62 659.2 53.65 659.17 53.68 659.18 53.73 659.18 53.77 659.22 53.79 659.24 53.83 659.27 53.87 659.3 53.88 659.35 53.86 659.34 53.79 659.36 53.76 659.37 53.73 659.4 53.75 659.45 53.78 659.47 53.78 659.51 53.74 659.52 53.73 659.55 53.7 659.61 53.67 659.66 53.66 659.67 53.65 659.7 53.69 659.74 53.78 659.79 53.86 659.82 53.85 659.85 53.79 659.92 53.72 659.92 53.73 659.95 53.75 659.98 53.77 660 53.78 660.01 53.8 660.04 53.82 660.06 53.84 660.07 53.85 660.09 53.89 660.09 53.92 660.09 53.94 660.12 53.98 660.14 53.99 660.15 54.01 660.16 54.01 660.17 54.02 660.17 54.04 660.13 54.08 660.13 54.1 660.13 54.13 660.15 54.17 660.24 54.24 660.27 54.25 660.24 54.32 660.22 54.34 660.19 54.36 660.15 54.38 660.12 54.41 660.1 54.42 660.09 54.44 660.07 54.46 660.04 54.5 660.01 54.52 659.99 54.53 659.98 54.56 659.97 54.57 659.97 54.58 659.96 54.64 659.95 54.7 659.95 54.73 659.94 54.75 659.93 54.77 659.9 54.79 659.89 54.82 659.88 54.85 659.85 54.89 659.84 54.93 659.83 54.99 659.8 55.14 659.8 55.2 659.8 55.24 659.8 55.27 659.81 55.3 659.79 55.35 659.78 55.37 659.78 55.39 659.78 55.42 659.79 55.44 659.8 55.49 659.79 55.53 659.8 55.56 659.8 55.58 659.8 55.62 659.8 55.67 659.82 55.7 659.82 55.73 659.82 55.75 659.81 55.77 659.8 55.82 659.81 55.84 659.81 55.87 659.82 55.91 659.83 55.95 659.84 56.02 659.85 56.07 659.85 56.09 659.85 56.13 659.86 56.15 659.85 56.16 660.23 56.42 660.33 56.48 660.29 56.51 660.45 56.74 660.5 56.81 660.53 56.84 660.54 56.85 660.74 57.06 660.86 57.27 660.9 57.34 660.93 57.39 660.98 57.47 661.09 57.65 661.22 57.82 661.27 57.89 661.3 57.96 661.34 58.04 661.4 58.12 661.5 58.2 661.64 58.27 661.71 58.28 661.75 58.31 661.78 58.33 661.81 58.35 661.82 58.37 661.84 58.39 661.86 58.4 661.88 58.41 661.89 58.41 661.91 58.42 661.94 58.41 661.97 58.41 662 58.4 662.02 58.4 662.05 58.39 662.07 58.39 662.09 58.39 662.21 58.44 662.26 58.51 662.29 58.5 662.29 58.52 662.3 58.67 662.31 58.72 662.4 59 662.23 59.09 662.33 59.21 662.5 59.43 662.58 59.54 662.67 59.67 662.69 59.7 662.67 59.7 662.65 59.71 662.64 59.71 662.6 59.73 662.57 59.73 662.54 59.75 662.51 59.76 662.51 59.76 662.51 59.81 662.52 59.83 662.52 59.84 662.52 59.88 662.53 59.96 662.54 60 662.54 60.04 662.54 60.12 662.54 60.16 662.55 60.2 662.56 60.22 662.57 60.24 662.6 60.28 662.61 60.29 662.62 60.3 662.62 60.32 662.62 60.35 662.61 60.39 662.6 60.46 662.6 60.49 662.59 60.51 662.58 60.53 662.58 60.56 662.58 60.59 662.58 60.65 662.58 60.69 662.58 60.72 662.57 60.76 662.57 60.81 662.57 60.85 662.57 60.89 662.56 60.94 662.56 60.98 662.56 61.04 662.57 61.11 662.58 61.15 662.59 61.19 662.62 61.25 662.65 61.29 662.66 61.31 662.67 61.32 662.68 61.34 662.68 61.38 662.68 61.41 662.68 61.45 662.68 61.48 662.68 61.49 662.68 61.51 662.68 61.55 662.67 61.57 662.67 61.59 662.67 61.61 662.67 61.65 662.67 61.68 662.67 61.71 662.67 61.74 662.66 61.77 662.65 61.79 662.64 61.8 662.63 61.82 662.61 61.84 662.6 61.86 662.59 61.88 662.57 61.92 662.56 61.94 662.56 61.97 662.56 61.99 662.56 62.01 662.56 62.03 662.57 62.05 662.57 62.07 662.57 62.11 662.57 62.14 662.58 62.16 662.58 62.18 662.58 62.21 662.58 62.25 662.59 62.29 662.59 62.31 662.61 62.33 662.62 62.35 662.63 62.37 662.66 62.39 662.69 62.44 662.7 62.47 662.76 62.6 662.76 62.75 662.73 62.76 662.71 62.76 662.66 62.85 662.57 63.04 662.54 63.09 662.47 63.06 662.45 63.09 662.27 63.57 662.26 63.58 662.21 63.62 661.9 63.94 661.67 64.17 661.53 64.31 661.31 64.52 661.25 64.58 661.12 64.71 660.74 65.1 660.69 65.15 660.3 65.55 660.25 65.51 660.23 65.49 660.21 65.5 660.2 65.52 660.19 65.58 660.17 65.6 660.11 65.62 660.11 65.63 660.12 65.67 660.12 65.71 660.12 65.75 660.13 65.79 660.13 65.81 660.13 65.83 660.13 65.86 660.13 65.88 660.13 65.91 660.14 65.95 660.13 66 660.12 66.04 660.11 66.06 660.1 66.1 660.1 66.15 660.1 66.2 660.1 66.25 660.1 66.26 660.11 66.29 660.11 66.33 660.1 66.38 660.11 66.41 660.1 66.43 660.1 66.46 660.09 66.5 660.09 66.51 660.1 66.53 660.11 66.54 660.13 66.56 660.14 66.59 660.14 66.62 660.14 66.66 660.14 66.7 660.13 66.72 660.11 66.75 660.1 66.78 660.11 66.8 660.13 66.83 660.14 66.86 660.15 66.91 660.17 66.96 660.17 66.99 660.17 67.01 660.16 67.03 660.16 67.05 660.17 67.07 660.16 67.09 660.15 67.1 660.15 67.12 660.15 67.14 660.15 67.16 660.16 67.18 660.17 67.21 660.2 67.25 660.22 67.29 660.25 67.34 660.29 67.39 660.31 67.43 660.34 67.47 660.37 67.51 660.39 67.54 660.41 67.57 660.44 67.59 660.46 67.6 660.5 67.62 660.54 67.64 660.58 67.67 660.63 67.69 660.67 67.72 660.72 67.79 660.78 67.88 660.8 67.89 660.81 67.91 660.83 67.93 660.83 67.96 660.82 67.98 660.81 68 660.8 68.01 660.77 68.01 660.75 68.02 660.72 68.03 660.7 68.05 660.69 68.06 660.67 68.08 660.65 68.1 660.64 68.13 660.63 68.15 660.62 68.18 660.6 68.21 660.59 68.24 660.58 68.26 660.55 68.28 660.53 68.31 660.52 68.33 660.52 68.35 660.51 68.38 660.51 68.41 660.49 68.44 660.49 68.47 660.48 68.49 660.49 68.52 660.49 68.55 660.49 68.58 660.49 68.61 660.5 68.64 660.52 68.67 660.54 68.69 660.56 68.73 660.61 68.79 660.62 68.81 660.62 68.83 660.62 68.86 660.62 68.88 660.59 68.9 660.57 68.92 660.57 68.94 660.58 68.96 660.57 68.97 660.56 68.98 660.54 69 660.51 69.01 660.47 69.03 660.43 69.04 660.39 69.04 660.35 69.04 660.31 69.04 660.28 69.04 660.25 69.05 660.21 69.07 660.18 69.09 660.15 69.11 660.12 69.12 660.09 69.14 660.05 69.15 660.01 69.17 659.97 69.19 659.94 69.21 659.9 69.23 659.86 69.24 659.83 69.25 659.8 69.27 659.77 69.28 659.75 69.3 659.7 69.32 659.67 69.33 659.65 69.34 659.63 69.35 659.6 69.38 659.57 69.4 659.56 69.42 659.54 69.45 659.54 69.48 659.54 69.51 659.54 69.54 659.54 69.57 659.53 69.61 659.53 69.64 659.53 69.68 659.52 69.72 659.5 69.76 659.48 69.79 659.45 69.82 659.42 69.85 659.38 69.87 659.36 69.89 659.32 69.91 659.28 69.95 659.26 69.97 659.24 69.99 659.22 70.02 659.22 70.06 659.19 70.09 659.16 70.13 659.14 70.16 659.12 70.19 659.1 70.22 659.08 70.25 659.06 70.28 659.05 70.31 659.04 70.34 659.03 70.38 659.01 70.41 658.99 70.45 658.98 70.5 658.98 70.54 658.97 70.57 658.96 70.6 658.95 70.64 658.93 70.67 658.92 70.69 658.9 70.73 658.88 70.77 658.87 70.82 658.85 70.85 658.83 70.89 658.82 70.92 658.8 70.94 658.78 70.98 658.78 71 658.77 71.03 658.77 71.04 658.76 71.06 658.74 71.08 658.7 71.11 658.66 71.13 658.63 71.18 658.62 71.2 658.61 71.24 658.6 71.27 658.57 71.3 658.54 71.33 658.52 71.37 658.48 71.43 658.45 71.49 658.44 71.53 658.43 71.58 658.42 71.62 658.4 71.68 658.39 71.73 658.38 71.77 658.37 71.81 658.37 71.84 658.36 71.87 658.36 71.9 658.37 71.93 658.39 71.97 658.39 71.98 658.4 72.02 658.42 72.05 658.43 72.08 658.44 72.11 658.45 72.13 658.46 72.17 658.46 72.2 658.45 72.24 658.46 72.27 658.47 72.29 658.49 72.32 658.51 72.35 658.52 72.38 658.52 72.41 658.52 72.43 658.51 72.46 658.51 72.48 658.51 72.5 658.51 72.52 658.5 72.53 658.49 72.56 658.48 72.58 658.46 72.64 657.94 73.04 657.2 73.56 657.15 73.57 657.14 73.37 657.06 73.2 657.02 73.14 656.97 73.1 656.84 73 656.79 72.96 656.65 72.85 656.57 72.77 656.53 72.7 656.48 72.63 656.46 72.61 656.42 72.58 656.38 72.56 656.35 72.54 656.29 72.54 656.22 72.54 656.15 72.55 656.1 72.56 656.05 72.58 656.01 72.59 655.98 72.6 655.94 72.6 655.9 72.6 655.86 72.59 655.81 72.57 655.77 72.56 655.72 72.51 655.67 72.46 655.64 72.42 655.6 72.38 655.58 72.35 655.55 72.32 655.53 72.3 655.51 72.28 655.48 72.27 655.44 72.26 655.41 72.25 655.37 72.23 655.35 72.21 655.33 72.2 655.3 72.19 655.26 72.19 655.21 72.19 655.17 72.18 655.08 72.17 654.97 72.17 654.84 72.17 654.74 72.18 654.6 72.41 654.37 72.68 654.28 72.8 654.24 72.89 654.21 72.94 654.19 72.97 654.17 72.99 654.13 73.01 654.11 73.01 653.82 73.54 653.71 73.7 653.64 73.77 653.5 73.99 653.43 74.05 653.41 73.95 653.11 73.53 652.95 73.36 652.16 72.39 652.09 72.34 651.83 72.11 651.44 71.61 651.07 71.06 650.64 70.38 650.61 70.33 650.58 70.28 650.56 70.23 650.53 70.17 650.49 70.11 650.46 70.05 650.43 69.99 650.41 69.94 650.4 69.89 650.39 69.83 650.37 69.78 650.34 69.72 650.31 69.67 650.29 69.6 650.27 69.55 650.24 69.51 650.22 69.46 650.19 69.42 650.17 69.39 650.15 69.35 650.12 69.3 650.09 69.27 650.07 69.23 650.05 69.2 650.04 69.17 650.03 69.14 650.03 69.11 649.76 68.94 649.72 68.91 649.68 68.81 649.23 68.14 648.78 67.47 648.33 66.8 648.33 66.78 648.33 66.75 648.32 66.72 648.26 66.65 648.21 66.56 648.16 66.48 648.1 66.4 648.04 66.31 647.98 66.23 647.94 66.18 647.42 65.42 647.16 65.06 647.05 64.91 646.93 64.74 646.72 64.44 646.6 64.28 646.32 63.88 646.26 63.8 646.21 63.73 646.15 63.64 646.11 63.58 646.02 63.46 645.86 63.24 645.81 63.17 645.56 62.82 645.5 62.73 645.36 62.54 645.33 62.49 645.32 62.47 645.31 62.46 645.28 62.41 645.24 62.36 645.23 62.34 645.17 62.28 645.13 62.21 645.09 62.18 645.08 62.16 645.07 62.15 645.06 62.13 645.02 62.08 644.92 61.94 644.81 61.8 644.71 61.65 644.64 61.57 644.59 61.5 644.51 61.39 644.48 61.36 644.47 61.34 644.3 61.11 644.15 60.92 644.02 60.73 643.95 60.63 643.87 60.54 643.49 60.12 643.26 59.89 643.22 59.8 643.17 59.68 643.15 59.54 643.12 59.25 643.12 59.23 643.17 59 643.36 58.58 643.42 58.43 643.47 58.33 643.71 57.8 643.74 57.74 643.76 57.7 643.78 57.66 643.65 56.73 643.61 56.47 643.6 56.37 643.57 56.2 643.54 55.96 643.54 55.95 643.53 55.9 643.52 55.81 643.52 55.79 643.51 55.77 643.5 55.67 643.49 55.6 643.48 55.54 643.48 55.5 643.47 55.46 643.46 55.37 643.44 55.2 643.39 54.88 643.37 54.76 643.36 54.64 643.35 54.58 643.29 54.15 643.26 53.96 643.18 53.37 643.13 53 643.13 52.99 643.12 52.96 643.11 52.93 643.08 52.88 643.04 52.83 643.01 52.79 642.98 52.76 642.97 52.74 642.95 52.72 642.94 52.69 642.93 52.64 642.92 52.62 642.9 52.49 642.9 52.47 642.88 52.37 642.87 52.25 642.86 52.22 642.86 52.14 642.84 52.07 642.83 52.01 642.82 51.98 642.78 51.96 642.75 51.95 642.75 51.91 642.75 51.86 642.71 51.81 642.7 51.8 642.64 51.75 642.58 51.69 642.54 51.65 642.52 51.63 642.44 51.57 642.37 51.51 642.31 51.47 642.24 51.49 642.22 51.47 642.2 51.46 642.17 51.38 642.07 51.32 642.02 51.29 641.99 51.27 641.94 51.23 641.9 51.2 641.87 51.17 641.84 51.13 641.81 51.1 641.79 51.09 641.77 51.08 641.71 51.06 641.66 51.08 641.64 51.08 641.64 51.06 641.63 51.03 641.63 51 641.61 50.99 641.59 51.01 641.57 51 641.5 50.96 641.46 50.93 641.44 50.89 641.43 50.86 641.42 50.87 641.38 50.89 641.35 50.87 641.3 50.82 641.28 50.78 641.28 50.76 641.29 50.7 641.26 50.7 641.22 50.71 641.19 50.68 641.2 50.65 641.19 50.64 641.15 50.65 641.14 50.65 641.11 50.65 641.1 50.65 641.07 50.65 641.03 50.65 641.01 50.65 640.99 50.64 640.96 50.63 640.94 50.61 640.92 50.58 640.91 50.57 640.91 50.56 640.91 50.55 640.91 50.54 640.9 50.52 640.89 50.51 640.89 50.5 640.89 50.48 640.89 50.47 640.89 50.45 640.89 50.43 640.88 50.42 640.87 50.41 640.86 50.4 640.85 50.36 640.84 50.31 640.83 50.23 640.81 50.2 640.81 50.16 640.8 50.14 640.8 50.14 640.81 50.12 640.8 50.1 640.79 50.09 640.78 50.08 640.77 50.08 640.76 50.08 640.75 50.08 640.74 50.08 640.73 50.09 640.72 50.09 640.7 50.1 640.68 50.09 640.67 50.08 640.67 50.07 640.67 50.06 640.66 50.05 640.66 50.02 640.65 50 640.64 49.97 640.63 49.96 640.62 49.94 640.61 49.92 640.6 49.91 640.59 49.89 640.58 49.88 640.58 49.86 640.57 49.85 640.56 49.83 640.55 49.81 640.54 49.79 640.54 49.77 640.54 49.75 640.53 49.73 640.52 49.71 640.52 49.69 640.51 49.67 640.49 49.65 640.48 49.64 640.46 49.61 640.45 49.6 640.45 49.58 640.46 49.56 640.47 49.54 640.47 49.53 640.46 49.51 640.45 49.5 640.44 49.48 640.43 49.47 640.41 49.45 640.39 49.44 640.39 49.42 640.4 49.39 640.41 49.37 640.41 49.35 640.41 49.32 640.4 49.31 640.39 49.3 640.38 49.29 640.36 49.29 640.34 49.28 640.32 49.28 640.3 49.27 640.29 49.26 640.28 49.25 640.26 49.24 640.25 49.23 640.25 49.21 640.24 49.18 640.23 49.17 640.23 49.15 640.23 49.12 640.23 49.11 640.22 49.09 640.22 49.07 640.21 49.05 640.2 49.03 640.2 49.01 640.19 49 640.19 48.99 640.17 48.98 640.15 48.96 640.15 48.95 640.14 48.92 640.13 48.91 640.12 48.88 640.11 48.86 640.1 48.85 640.09 48.83 640.08 48.81 640.07 48.79 640.05 48.79 640.04 48.79 640.02 48.81 640.02 48.83 640.01 48.84 640 48.86 639.98 48.87 639.97 48.87 639.95 48.86 639.95 48.85 639.94 48.83 639.93 48.81 639.91 48.79 639.9 48.77 639.9 48.76 639.91 48.74 639.92 48.73 639.93 48.72 639.95 48.71 639.97 48.69 639.97 48.67 639.97 48.66 639.97 48.65 639.96 48.65 639.94 48.64 639.92 48.64 639.89 48.63 639.87 48.63 639.86 48.62 639.85 48.6 639.84 48.59 639.83 48.58 639.81 48.56 639.8 48.55 639.78 48.54 639.76 48.54 639.74 48.55 639.73 48.55 639.71 48.55 639.7 48.54 639.69 48.53 639.68 48.52 639.68 48.5 639.66 48.49 639.65 48.48 639.64 48.46 639.63 48.45 639.62 48.43 639.61 48.41 639.6 48.39 639.59 48.38 639.57 48.37 639.56 48.37 639.54 48.37 639.53 48.36 639.51 48.35 639.49 48.34 639.48 48.33 639.48 48.32 639.48 48.31 639.48 48.3 639.49 48.29 639.5 48.28 639.51 48.26 639.53 48.25 639.54 48.24 639.57 48.22 639.58 48.21 639.57 48.19 639.56 48.18 639.55 48.17 639.54 48.16 639.53 48.14 639.51 48.13 639.49 48.12 639.48 48.1 639.46 48.09 639.44 48.08 639.43 48.07 639.41 48.07 639.39 48.07 639.37 48.07 639.35 48.07 639.33 48.08 639.33 48.09 639.31 48.07 639.3 48.06 639.3 48.05 639.29 48.03 639.3 48.01 639.3 48 639.29 47.98 639.28 47.97 639.27 47.96 639.26 47.94 639.25 47.92 639.24 47.9 639.23 47.88 639.21 47.86 639.2 47.84 639.19 47.82 639.19 47.8 639.19 47.77 639.19 47.76 639.2 47.73 639.21 47.71 639.22 47.69 639.23 47.67 639.24 47.65 639.25 47.63 639.25 47.61 639.24 47.59 639.23 47.57 639.21 47.56 639.2 47.56 639.18 47.55 639.16 47.54 639.15 47.54 639.13 47.53 639.11 47.52 639.1 47.52 639.08 47.51 639.07 47.5 639.06 47.48 639.05 47.46 639.04 47.44 639.03 47.43 639.02 47.41 639.01 47.4 639 47.37 638.99 47.35 638.98 47.33 638.97 47.31 638.96 47.28 638.95 47.25 638.94 47.24 638.92 47.23 638.91 47.21 638.89 47.19 638.88 47.18 638.86 47.16 638.84 47.15 638.83 47.14 638.81 47.12 638.79 47.11 638.78 47.1 638.76 47.09 638.75 47.08 638.73 47.07 638.72 47.07 638.7 47.07 638.69 47.07 638.68 47.06 638.67 47.05 638.66 47.05 638.65 47.04 638.64 47.03 638.63 47.02 638.63 47 638.62 46.99 638.61 46.97 638.6 46.96 638.59 46.95 638.59 46.94 638.58 46.92 638.57 46.91 638.56 46.9 638.56 46.89 638.55 46.87 638.55 46.86 638.54 46.85 638.53 46.84 638.52 46.83 638.56 46.73 638.54 46.72 638.51 46.7 638.45 46.72 638.44 46.7 638.42 46.7 638.4 46.7 638.39 46.69 638.37 46.68 638.35 46.66 638.33 46.65 638.31 46.64 638.29 46.63 638.29 46.61 638.27 46.61 638.25 46.61 638.24 46.62 638.21 46.62 638.2 46.62 638.17 46.59 638.16 46.57 638.16 46.55 638.15 46.54 638.13 46.52 638.12 46.51 638.1 46.49 638.08 46.49 638.05 46.49 638.05 46.48 638.05 46.47 638.06 46.45 638.06 46.44 638.06 46.42 638.08 46.4 638.08 46.39 638.1 46.34 638.1 46.31 638.1 46.29 638.09 46.28 638.08 46.26 638.07 46.25 638.06 46.23 638.05 46.21 638.05 46.2 638.03 46.2 638.01 46.19 637.98 46.17 637.97 46.16 637.95 46.14 637.94 46.12 637.93 46.1 637.93 46.08 637.92 46.06 637.91 46.05 637.9 46.04 637.88 46.04 637.87 46.03 637.86 46.01 637.84 46 637.83 45.99 637.81 45.99 637.79 45.99 637.77 46 637.75 46.01 637.73 46.03 637.71 46.03 637.7 46.03 637.68 46.02 637.66 46.01 637.65 45.99 637.63 45.98 637.63 45.96 637.63 45.94 637.63 45.92 637.62 45.9 637.61 45.88 637.6 45.86 637.59 45.85 637.55 45.88 637.52 45.9 637.51 45.92 637.49 45.91 637.48 45.88 637.47 45.84 637.46 45.84 637.45 45.83 637.44 45.82 637.42 45.82 637.4 45.83 637.39 45.84 637.37 45.84 637.36 45.82 637.36 45.8 637.36 45.78 637.37 45.77 637.37 45.75 637.37 45.74 637.36 45.73 637.34 45.72 637.34 45.71 637.32 45.69 637.31 45.69 637.29 45.69 637.28 45.67 637.27 45.65 637.26 45.63 637.25 45.61 637.24 45.6 637.23 45.58 637.2 45.57 637.18 45.56 637.16 45.55 637.14 45.55 637.11 45.55 637.09 45.55 637.07 45.55 637.05 45.54 637.03 45.53 637.01 45.53 637 45.52 636.98 45.51 636.97 45.51 636.96 45.44 636.95 45.41 636.94 45.4 636.89 45.36 636.89 45.31 636.9 45.21 636.9 45.19 636.9 45.17 636.88 45.14 636.88 45.13 636.86 45.12 636.85 45.1 636.83 45.1 636.81 45.08 636.8 45.06 636.8 45.04 636.78 45.02 636.78 45 636.78 44.98 636.77 44.96 636.76 44.94 636.76 44.92 636.74 44.91 636.73 44.91 636.71 44.91 636.7 44.89 636.69 44.86 636.68 44.85 636.67 44.83 636.67 44.81 636.68 44.79 636.68 44.77 636.69 44.75 636.7 44.74 636.71 44.73 636.73 44.73 636.75 44.73 636.78 44.73 636.79 44.72 636.81 44.7 636.82 44.69 636.81 44.66 636.8 44.63 636.8 44.61 636.79 44.58 636.8 44.56 636.8 44.54 636.78 44.52 636.78 44.5 636.79 44.49 636.8 44.48 636.8 44.45 636.81 44.44 636.83 44.42 636.85 44.37 636.85 44.37 636.86 44.35 636.88 44.31 636.88 44.27 636.88 44.26 636.86 44.24 636.84 44.23 636.82 44.22 636.78 44.22 636.74 44.25 636.71 44.3 636.74 44.33 636.71 44.35 636.68 44.34 636.65 44.34 636.66 44.32 636.66 44.3 636.67 44.28 636.68 44.25 636.68 44.23 636.69 44.21 636.69 44.19 636.69 44.17 636.68 44.14 636.67 44.12 636.67 44.1 636.67 44.07 636.67 44.05 636.66 44.03 636.65 44.01 636.64 43.98 636.64 43.96 636.65 43.94 636.66 43.92 636.67 43.92 636.69 43.92 636.71 43.92 636.73 43.92 636.76 43.92 636.78 43.92 636.79 43.91 636.81 43.9 636.82 43.89 636.83 43.88 636.85 43.88 636.87 43.86 636.89 43.85 636.9 43.84 636.91 43.84 636.93 43.84 636.94 43.86 636.95 43.88 636.96 43.91 636.96 43.93 636.97 43.95 636.98 43.97 636.99 43.97 637 43.98 637.02 43.97 637.03 43.97 637.05 43.96 637.06 43.95 637.07 43.94 637.09 43.93 637.1 43.92 637.12 43.91 637.13 43.9 637.15 43.89 637.16 43.88 637.18 43.87 637.19 43.85 637.19 43.84 637.21 43.83 637.22 43.81 637.23 43.79 637.24 43.78 637.25 43.76 637.27 43.75 637.29 43.73 637.3 43.72 637.31 43.7 637.32 43.69 637.33 43.67 637.35 43.65 637.36 43.63 637.37 43.62 637.38 43.6 637.39 43.58 637.41 43.56 637.42 43.54 637.43 43.52 637.44 43.5 637.46 43.48 637.47 43.47 637.48 43.45 637.49 43.43 637.5 43.42 637.52 43.4 637.53 43.38 637.54 43.36 637.55 43.34 637.56 43.32 637.57 43.3 637.58 43.29 637.59 43.27 637.6 43.25 637.61 43.24 637.62 43.22 637.63 43.2 637.64 43.19 637.64 43.18 637.65 43.16 637.66 43.16 637.68 43.16 637.69 43.15 637.71 43.14 637.73 43.13 637.75 43.13 637.77 43.12 637.79 43.12 637.81 43.12 637.83 43.12 637.86 43.13 637.88 43.13 637.9 43.13 637.93 43.14 637.95 43.15 637.96 43.16 637.98 43.18 638 43.19 638.02 43.21 638.04 43.23 638.06 43.25 638.07 43.26 638.1 43.28 638.12 43.28 638.13 43.27 638.14 43.26 638.15 43.25 638.16 43.23 638.17 43.21 638.18 43.19 638.18 43.17 638.17 43.15 638.17 43.13 638.16 43.11 638.15 43.09 638.13 43.06 638.12 43.04 638.11 43.02 638.09 43 638.08 42.99 638.07 42.97 638.08 42.96 638.09 42.95 638.11 42.94 638.13 42.93 638.15 42.93 638.16 42.93 638.18 42.93 638.2 42.93 638.22 42.94 638.22 42.96 638.23 42.98 638.24 43 638.24 43.02 638.25 43.03 638.26 43.05 638.27 43.07 638.28 43.09 638.29 43.11 638.31 43.12 638.32 43.14 638.33 43.15 638.34 43.16 638.36 43.18 638.37 43.18 638.38 43.19 638.4 43.19 638.41 43.19 638.43 43.17 638.43 43.16 638.43 43.14 638.43 43.12 638.45 43.11 638.46 43.11 638.48 43.1 638.49 43.09 638.5 43.08 638.53 43.06 638.54 43.04 638.56 43.02 638.57 43.01 638.59 42.99 638.6 42.97 638.61 42.96 638.62 42.95 638.63 42.93 638.64 42.92 638.66 42.9 638.67 42.88 638.68 42.87 638.69 42.85 638.71 42.83 638.72 42.82 638.74 42.81 638.75 42.81 638.76 42.8 638.77 42.79 638.78 42.77 638.78 42.75 638.79 42.73 638.79 42.72 638.8 42.7 638.81 42.69 638.82 42.67 638.83 42.65 638.84 42.63 638.84 42.61 638.85 42.59 638.85 42.57 638.86 42.55 638.87 42.53 638.87 42.52 638.87 42.5 638.87 42.48 638.87 42.46 638.87 42.44 638.88 42.43 638.89 42.41 638.9 42.4 638.91 42.38 638.92 42.37 638.93 42.35 638.94 42.34 638.95 42.33 638.95 42.31 638.95 42.28 638.95 42.25 638.96 42.22 638.97 42.2 638.98 42.17 638.99 42.15 638.99 42.12 638.99 42.1 639 42.07 639 42.05 639 42.03 638.99 42.01 638.99 41.98 638.99 41.96 638.99 41.94 638.99 41.91 638.98 41.89 638.98 41.87 638.98 41.85 638.98 41.83 638.98 41.8 638.99 41.78 638.99 41.77 639 41.74 639.01 41.72 639.02 41.7 639.02 41.68 639.03 41.66 638.93 41.56 638.93 41.55 638.91 41.54 638.9 41.53 638.89 41.52 638.89 41.5 638.89 41.48 638.89 41.46 638.89 41.44 638.89 41.42 638.89 41.41 638.88 41.39 638.89 41.36 638.89 41.35 638.89 41.33 638.9 41.31 638.9 41.29 638.91 41.27 638.92 41.24 638.92 41.22 638.93 41.2 638.93 41.17 638.94 41.15 638.94 41.12 638.95 41.09 638.96 41.07 638.97 41.05 638.98 41.04 638.99 41.02 639 41 639.02 40.98 639.04 40.96 639.05 40.95 639.06 40.94 639.08 40.93 639.1 40.92 639.12 40.91 639.14 40.91 639.15 40.9 639.18 40.9 639.2 40.89 639.22 40.89 639.24 40.88 639.26 40.87 639.28 40.86 639.3 40.85 639.33 40.84 639.35 40.83 639.37 40.83 639.4 40.82 639.42 40.82 639.45 40.82 639.47 40.82 639.5 40.82 639.52 40.82 639.54 40.81 639.57 40.81 639.58 40.81 639.59 40.81 639.61 40.8 639.64 40.8 639.67 40.79 639.69 40.78 639.69 40.77 639.69 40.76 639.68 40.73 639.68 40.72 639.66 40.71 639.65 40.7 639.64 40.69 639.62 40.67 639.61 40.66 639.6 40.65 639.59 40.63 639.59 40.61 639.59 40.6 639.6 40.58 639.6 40.57 639.6 40.56 639.61 40.55 639.62 40.53 639.62 40.52 639.63 40.51 639.66 40.51 639.67 40.51 639.68 40.51 639.69 40.52 639.71 40.52 639.72 40.52 639.74 40.53 639.75 40.54 639.78 40.55 639.81 40.57 639.86 40.58 639.91 40.61 639.97 40.63 640.04 40.66 640.09 40.68 640.11 40.68 640.14 40.67 640.16 40.65 640.18 40.63 640.21 40.6 640.22 40.58 640.23 40.56 640.25 40.53 640.27 40.5 640.29 40.47 640.31 40.43 640.33 40.4 640.35 40.39 640.4 40.34 640.42 40.31 640.47 40.27 640.51 40.23 640.53 40.22 640.55 40.22 640.56 40.21 640.59 40.21 640.6 40.21 640.62 40.22 640.63 40.24 640.64 40.27 640.65 40.29 640.67 40.31 640.68 40.31 640.7 40.32 640.74 40.32 640.8 40.31 640.85 40.3 640.9 40.29 640.94 40.28 640.99 40.27 641.03 40.27 641.04 40.27 641.08 40.27 641.09 40.26 641.11 40.25 641.14 40.23 641.17 40.22 641.2 40.2 641.24 40.19 641.3 40.17 641.37 40.14 641.42 40.12 641.45 40.12 641.48 40.12 641.51 40.14 641.53 40.15 641.55 40.17 641.59 40.2 641.63 40.22 641.7 40.29 641.77 40.37 641.83 40.45 641.88 40.53 641.9 40.55 641.94 40.58 641.97 40.6 642.02 40.63 642.04 40.64 642.04 40.67 642.04 40.7 642.04 40.78 642.05 40.83 642.07 40.86 642.09 40.88 642.14 40.91 642.15 40.91 642.17 40.91 642.2 40.89 642.21 40.88 642.23 40.86 642.24 40.84 642.26 40.82 642.28 40.8 642.3 40.78 642.32 40.76 642.34 40.75 642.36 40.74 642.38 40.72 642.4 40.68 642.4 40.66 642.41 40.63 642.43 40.59 642.44 40.59 642.46 40.58 642.47 40.57 642.48 40.56 642.52 40.53 642.57 40.51 642.6 40.48 642.62 40.48 642.64 40.48 642.66 40.48 642.69 40.49 642.72 40.49 642.75 40.5 642.78 40.51 642.87 40.54 642.91 40.55 642.97 40.55 642.98 40.55 643.04 40.56 643.12 40.55 643.17 40.54 643.27 40.54 643.32 40.54 643.36 40.54 643.47 40.55 643.54 40.53 643.61 40.5 643.64 40.5 643.68 40.49 643.71 40.5 643.73 40.52 643.76 40.55 643.78 40.57 643.78 40.6 643.79 40.64 643.79 40.71 643.78 40.88 643.79 40.94 643.82 41.01 643.85 41.09 643.9 41.17 643.91 41.23 643.91 41.26 643.89 41.29 643.87 41.35 643.85 41.39 643.85 41.49 643.84 41.51 643.84 41.54 643.83 41.58 643.81 41.62 643.78 41.67 643.73 41.75 643.67 41.86 643.62 41.97 643.62 41.99 643.61 42.04 643.61 42.07 643.61 42.08 643.61 42.1 643.63 42.13 643.65 42.14 643.67 42.16 643.69 42.17 643.75 42.18 643.78 42.18 643.82 42.18 643.83 42.17 643.87 42.14 643.91 42.13 643.93 42.13 643.95 42.13 643.97 42.13 644.01 42.15 644.03 42.16 644.05 42.2 644.06 42.23 644.08 42.29 644.09 42.34 644.09 42.37 644.08 42.4 644.08 42.42 644.07 42.46 644.07 42.51 644.07 42.56 644.06 42.58 644.06 42.62 644.07 42.66 644.08 42.69 644.08 42.69 644.09 42.7 644.11 42.73 644.15 42.76 644.23 42.81 644.25 42.83 644.31 42.87 644.36 42.91 644.4 42.94 644.44 42.96 644.49 42.99 644.54 43.02 644.59 43.05 644.65 43.07 644.71 43.09 644.78 43.13 644.84 43.15 644.94 43.17 645.01 43.18 645.07 43.18 645.09 43.18 645.14 43.18 645.18 43.18 645.29 43.18 645.34 43.18 645.37 43.19 645.44 43.13 645.52 43.08 645.59 42.99 645.62 42.91 645.63 42.86 645.63 42.82 645.62 42.78 645.61 42.67 645.57 42.49 645.51 42.23 Z"/>
</g></svg>