<svg xmlns="http://www.w3.org/2000/svg" version="1.2" baseProfile="tiny" stroke-linecap="round" stroke-linejoin="round" viewBox="379.12 182.18 11.17 10.82"><g xmlns="http://www.w3.org/2000/svg" id="Orendain">
<path d="M 379.24 185.53 380.21 185.51 380.76 185.33 381.12 185.17 381.35 184.95 381.45 185.02 382.07 184.69 382.39 184.67 382.43 184.61 382.69 183.99 382.77 183.59 383.54 183.16 383.94 182.82 384.21 182.5 384.36 182.33 384.54 182.38 384.88 182.46 385.36 182.56 386.22 182.21 386.45 182.49 386.91 183.03 387.19 183.17 387.76 183.42 388.07 183.53 388.21 183.66 388.27 183.77 388.42 183.93 389.64 185.13 389.61 185.17 389.6 185.19 389.56 185.25 389.54 185.3 389.51 185.34 389.47 185.4 389.43 185.44 389.41 185.47 389.38 185.51 389.35 185.57 389.34 185.61 389.34 185.63 389.34 185.66 389.34 185.68 389.33 185.71 389.34 185.76 389.35 185.8 389.36 185.83 389.37 185.86 389.39 185.88 389.41 185.91 389.42 185.93 389.45 185.95 389.47 185.97 389.49 185.98 389.51 185.99 389.55 186.03 389.56 186.04 389.57 186.06 389.58 186.07 389.62 186.1 389.64 186.12 389.65 186.14 389.66 186.17 389.67 186.2 389.68 186.23 389.69 186.26 389.69 186.29 389.69 186.33 389.69 186.36 389.69 186.4 389.68 186.43 389.68 186.44 389.68 186.46 389.68 186.49 389.67 186.52 389.66 186.54 389.65 186.56 389.65 186.57 389.65 186.59 389.65 186.62 389.65 186.65 389.66 186.68 389.67 186.73 389.67 186.76 389.68 186.8 389.7 186.84 389.71 186.87 389.72 186.89 389.72 186.91 389.74 186.95 389.75 186.98 389.76 187.01 389.78 187.05 389.79 187.09 389.8 187.11 389.81 187.13 389.82 187.15 389.83 187.18 389.85 187.22 389.86 187.25 389.88 187.28 389.89 187.31 389.9 187.33 389.92 187.36 389.93 187.38 389.95 187.41 389.96 187.44 389.97 187.46 389.98 187.49 389.99 187.52 390 187.55 390 187.59 390.01 187.63 390.01 187.67 390 187.69 390 187.71 389.99 187.79 389.96 187.93 389.96 187.95 389.94 188 389.93 188.03 389.92 188.06 389.92 188.08 389.91 188.1 389.91 188.13 389.91 188.14 389.91 188.16 389.91 188.2 389.92 188.23 389.93 188.25 389.95 188.29 389.96 188.31 389.98 188.33 390.01 188.36 390.03 188.37 390.04 188.38 390.06 188.4 390.09 188.42 390.12 188.43 390.14 188.45 390.16 188.46 390.18 188.48 390.2 188.51 390.21 188.53 390.22 188.56 390.23 188.58 390.24 188.61 390.25 188.64 390.27 188.7 390.28 188.73 390.28 188.77 390.16 188.8 390.09 188.8 390 188.83 389.97 188.85 389.95 188.87 389.92 188.9 389.88 188.94 389.83 188.97 389.82 188.98 389.77 189 389.74 189.02 389.72 189.02 389.69 189.04 389.67 189.07 389.65 189.09 389.61 189.13 389.58 189.17 389.52 189.22 389.5 189.23 389.47 189.27 389.43 189.32 389.4 189.35 389.36 189.39 389.33 189.42 389.29 189.46 389.25 189.48 389.18 189.51 389.14 189.53 389.09 189.55 388.98 189.59 388.92 189.62 388.86 189.65 388.84 189.66 388.78 189.69 388.67 189.75 388.58 189.82 388.55 189.85 388.54 189.87 388.51 189.89 388.47 189.9 388.43 189.92 388.35 189.96 388.3 190 388.26 190.05 388.2 190.09 388.14 190.16 388.1 190.2 388.07 190.23 387.98 190.27 387.91 190.31 387.86 190.34 387.83 190.37 387.78 190.41 387.69 190.44 387.65 190.46 387.61 190.47 387.57 190.49 387.55 190.49 387.52 190.49 387.47 190.48 387.37 190.48 387.31 190.48 387.24 190.48 387.23 190.48 387.23 190.5 386.93 191.36 386.83 192.27 386.86 192.26 386.87 192.31 386.91 192.36 386.93 192.41 386.96 192.49 386.97 192.52 386.98 192.55 386.98 192.58 386.97 192.63 386.97 192.66 386.97 192.71 386.98 192.74 386.98 192.82 386.97 192.81 386.94 192.81 386.91 192.82 386.87 192.83 386.83 192.84 386.79 192.84 386.77 192.85 386.72 192.85 386.67 192.87 386.64 192.87 386.61 192.88 386.56 192.88 386.54 192.88 386.51 192.87 386.49 192.85 386.46 192.84 386.4 192.82 386.34 192.78 386.32 192.77 386.29 192.74 386.24 192.69 386.18 192.64 386.18 192.63 386.17 192.63 384.95 192.52 384.74 192.55 383.73 192.9 383.73 192.88 383.69 192.89 383.65 192.89 383.62 192.9 383.59 192.91 383.55 192.91 383.51 192.9 383.41 192.9 383.36 192.89 383.32 192.88 383.23 192.87 383.18 192.85 383.12 192.83 383.08 192.83 383.02 192.82 382.99 192.81 382.96 192.81 382.94 192.81 382.85 192.81 382.81 192.81 382.75 192.82 382.71 192.81 382.63 192.82 382.6 192.82 382.51 192.83 382.48 192.85 382.44 192.86 382.39 192.87 382.33 192.89 382.28 192.91 382.24 192.92 382.21 192.93 382.17 192.93 382.13 192.93 382.1 192.92 382.03 192.91 382 192.91 381.96 192.9 381.91 192.92 381.87 192.92 381.82 192.94 381.78 192.95 381.74 192.96 381.7 192.97 381.65 192.98 381.55 192.98 381.5 192.98 381.5 192.97 381.48 192.92 381.47 192.89 381.45 192.85 381.44 192.82 381.42 192.8 381.4 192.78 381.37 192.77 381.33 192.77 381.31 192.77 381.24 192.8 381.21 192.8 381.17 192.78 381.13 192.74 381.11 192.69 381.09 192.64 381.05 192.57 381.03 192.52 381 192.47 380.98 192.42 380.97 192.38 380.97 192.33 380.98 192.28 380.99 192.23 381.01 192.18 381.03 192.1 381.05 192.07 381.06 192.01 381.07 191.98 381.07 191.93 381.06 191.88 381.06 191.85 381.05 191.82 381.04 191.79 381.03 191.77 381.01 191.74 380.98 191.7 380.95 191.67 380.92 191.64 380.9 191.63 380.87 191.61 380.84 191.59 380.83 191.57 380.82 191.53 380.81 191.51 380.81 191.48 380.81 191.45 380.82 191.43 380.84 191.4 380.87 191.39 380.9 191.36 380.94 191.33 380.96 191.3 380.98 191.25 380.99 191.22 380.99 191.19 381 191.14 381 191.08 380.99 191.05 380.99 191.04 380.99 191.01 380.97 190.98 380.96 190.96 380.93 190.9 380.89 190.85 380.85 190.81 380.8 190.77 380.75 190.73 380.72 190.69 380.69 190.66 380.68 190.63 380.66 190.6 380.66 190.55 380.66 190.51 380.67 190.42 380.71 190.27 380.73 190.24 380.75 190.19 380.78 190.13 380.81 190.09 380.84 190.05 380.86 190.02 380.88 189.99 380.89 189.98 380.9 189.96 380.89 189.93 380.89 189.92 380.87 189.87 380.85 189.83 380.83 189.79 380.81 189.76 380.8 189.74 380.78 189.71 380.77 189.68 380.76 189.67 380.73 189.63 380.71 189.59 380.69 189.55 380.67 189.52 380.65 189.48 380.62 189.43 380.59 189.39 380.57 189.38 380.54 189.36 380.52 189.35 380.48 189.33 380.47 189.33 380.43 189.31 380.41 189.3 380.38 189.28 380.34 189.25 380.32 189.23 380.31 189.21 380.3 189.19 380.29 189.17 380.29 189.15 380.3 189.14 380.3 189.12 380.31 189.12 380.35 189.09 380.38 189.07 380.39 189.06 380.4 189.04 380.41 189.02 380.41 189 380.41 188.97 380.4 188.94 380.38 188.92 380.36 188.9 380.33 188.89 380.31 188.87 380.27 188.86 380.24 188.84 380.21 188.83 380.18 188.83 380.15 188.82 380.13 188.81 380.11 188.8 380.09 188.78 380.07 188.75 380.06 188.71 380.05 188.67 380.04 188.62 380.03 188.57 380.03 188.53 380.02 188.51 380 188.49 379.97 188.48 379.94 188.48 379.91 188.49 379.88 188.49 379.85 188.49 379.82 188.49 379.81 188.49 379.79 188.47 379.78 188.45 379.78 188.41 379.77 188.37 379.78 188.33 379.79 188.27 379.8 188.24 379.8 188.21 379.79 188.18 379.78 188.15 379.77 188.14 379.76 188.08 379.74 188.02 379.72 187.95 379.71 187.9 379.69 187.83 379.66 187.76 379.63 187.72 379.59 187.67 379.55 187.59 379.52 187.51 379.48 187.44 379.46 187.4 379.44 187.36 379.39 187.32 379.32 187.29 379.28 187.26 379.26 187.23 379.24 187.2 379.24 187.16 379.24 187.12 379.26 187.06 379.3 186.96 379.3 186.92 379.29 186.88 379.29 186.85 379.26 186.8 379.22 186.74 379.19 186.7 379.18 186.67 379.17 186.63 379.17 186.58 379.19 186.53 379.22 186.45 379.25 186.4 379.26 186.38 379.27 186.34 379.27 186.32 379.25 186.29 379.22 186.26 379.18 186.22 379.16 186.2 379.16 186.19 379.15 186.15 379.16 186.11 379.16 186.1 379.19 186.02 379.23 185.94 379.26 185.85 379.27 185.8 379.27 185.71 379.26 185.62 379.24 185.53 Z"/>
</g></svg>