<svg xmlns="http://www.w3.org/2000/svg" version="1.2" baseProfile="tiny" stroke-linecap="round" stroke-linejoin="round" viewBox="408.75 177.55 11.92 11.95"><g xmlns="http://www.w3.org/2000/svg" id="Orexa">
<path d="M 420.29 184.62 420.59 185.36 420.58 185.76 420.66 185.99 420.58 186.01 420.5 186.03 420.46 186.05 420.41 186.07 420.36 186.09 420.29 186.12 420.24 186.14 420.2 186.16 420.12 186.18 420.1 186.2 420.07 186.2 419.94 186.23 419.81 186.24 419.78 186.25 419.76 186.26 419.75 186.26 419.73 186.28 419.66 186.32 419.63 186.35 419.61 186.35 419.53 186.37 419.52 186.37 419.48 186.37 419.45 186.38 419.44 186.38 419.43 186.39 419.42 186.39 419.4 186.4 419.38 186.42 419.36 186.44 419.34 186.46 419.32 186.2 419.26 185.73 419.41 185.49 419.76 185.07 420.29 184.62 Z M 411.14 177.61 411.96 177.56 413.57 178.64 413.9 177.55 414.09 177.64 414.39 177.78 415.47 178.31 415.84 178.4 416.1 179.11 416.83 180.46 417.36 180.8 417.17 181.15 417.43 181.73 417.59 182.03 418.19 182.01 418.49 181.99 418.79 181.98 420.23 181.93 420.39 182.9 419.88 183 419.96 182.27 419.16 183.33 419.25 183.5 419.45 184.4 419.45 184.41 419.42 184.41 419.38 184.42 419.35 184.42 419.31 184.43 419.29 184.44 419.25 184.46 419.19 184.48 419.15 184.51 419.11 184.53 419.07 184.55 419.04 184.56 419.02 184.57 418.99 184.57 418.97 184.58 418.94 184.59 418.9 184.59 418.86 184.59 418.84 184.6 418.83 184.61 418.82 184.63 418.8 184.66 418.78 184.68 418.77 184.7 418.75 184.71 418.73 184.71 418.71 184.71 418.69 184.71 418.66 184.7 418.66 184.69 418.64 184.68 418.61 184.67 418.58 184.65 418.56 184.64 418.53 184.62 418.51 184.61 418.49 184.61 418.48 184.62 418.46 184.63 418.45 184.64 418.44 184.66 418.44 184.68 418.44 184.7 418.43 184.72 418.42 184.74 418.4 184.74 418.38 184.75 418.36 184.75 418.34 184.76 418.32 184.76 418.3 184.77 418.29 184.79 418.26 184.81 418.25 184.82 418.23 184.82 418.21 184.83 418.17 184.82 418.13 184.81 418.11 184.81 418.07 184.81 418.05 184.81 418.03 184.8 418 184.8 417.98 184.8 417.96 184.81 417.95 184.82 417.94 184.84 417.92 184.86 417.9 184.88 417.88 184.89 417.85 184.9 417.83 184.9 417.79 184.9 417.76 184.89 417.48 185.4 417.08 186.08 417.06 186.11 417.07 186.12 417.12 186.14 417.17 186.18 417.19 186.21 417.21 186.22 417.24 186.25 417.29 186.27 417.34 186.28 417.39 186.29 417.43 186.3 417.47 186.31 417.5 186.32 417.54 186.34 417.55 186.35 417.58 186.38 417.61 186.42 417.63 186.45 417.66 186.49 417.69 186.53 417.72 186.57 417.75 186.61 417.77 186.64 417.78 186.65 417.24 186.95 416.57 187.33 416.19 187.55 416.11 187.59 416.1 187.6 415.9 187.72 415.76 187.8 415.28 187.91 414.98 187.98 414.86 188 414.83 188.01 414.76 188.03 414.71 188.04 414.71 188.04 414.67 188.05 414.64 188.05 414.57 188.07 414.49 188.08 414.44 188.09 414.42 188.1 414.38 188.11 414.37 188.11 414.35 188.11 414.3 188.13 414.27 188.15 414.24 188.16 414.22 188.17 414.18 188.19 414.11 188.24 414.05 188.27 414.01 188.3 413.98 188.32 413.92 188.38 413.83 188.47 413.82 188.48 413.78 188.53 413.76 188.56 413.72 188.62 413.68 188.67 413.64 188.72 413.62 188.74 413.6 188.76 413.46 188.84 413.37 188.89 413.36 188.89 413.32 188.92 413.27 188.94 413.24 188.96 413.16 189 413.14 189.02 413.03 189.08 413 189.09 412.97 189.1 412.89 189.15 412.87 189.16 412.75 189.22 412.47 189.38 412.42 189.4 412.4 189.41 412.31 189.46 412.28 189.48 412.27 189.49 412.17 189.49 411.7 188.18 411.33 187.17 411.2 186.44 414.25 185.9 411.73 185.21 411.49 184.88 411.75 183.16 410.29 181.62 410.06 181.09 409.51 180.51 408.78 179.66 409.31 178.94 410.08 178.06 410.54 177.7 411.14 177.61 Z"/>
</g></svg>