<svg xmlns="http://www.w3.org/2000/svg" version="1.2" baseProfile="tiny" stroke-linecap="round" stroke-linejoin="round" viewBox="376.25 98.22 14.33 14.88"><g xmlns="http://www.w3.org/2000/svg" id="Orio">
<path d="M 390.37 98.23 390.43 98.27 390.45 98.28 390.48 98.29 390.5 98.3 390.52 98.33 390.52 98.36 390.53 98.37 390.53 98.4 390.54 98.43 390.55 98.46 390.56 98.49 390.56 98.52 390.56 98.55 390.56 98.57 390.55 98.6 390.54 98.63 390.53 98.66 390.52 98.68 390.51 98.71 390.5 98.74 390.48 98.76 390.47 98.79 390.45 98.82 390.44 98.86 390.42 98.91 390.42 98.93 390.41 98.97 390.39 99 390.39 99.03 390.38 99.05 390.37 99.08 390.36 99.08 390.35 99.11 390.34 99.12 390.32 99.14 390.31 99.16 390.3 99.19 390.29 99.21 390.28 99.23 390.27 99.25 390.25 99.29 390.23 99.32 390.21 99.35 390.18 99.37 390.16 99.4 390.14 99.43 390.12 99.45 390.09 99.48 390.08 99.52 390.06 99.54 390.04 99.57 390.02 99.6 390.01 99.62 390.01 99.66 390.02 99.68 390.04 99.7 390.06 99.72 390.08 99.75 390.09 99.78 390.09 99.81 390.09 99.85 390.09 99.88 390.08 99.91 390.08 99.95 390.07 99.99 390.07 100.03 390.08 100.06 390.08 100.09 390.07 100.12 390.06 100.14 390.05 100.18 390.04 100.21 390.04 100.24 390.05 100.27 390.04 100.31 390.02 100.32 390 100.35 389.99 100.38 389.99 100.39 389.97 100.42 389.96 100.44 389.93 100.47 389.91 100.49 389.89 100.51 389.86 100.53 389.83 100.54 389.81 100.57 389.79 100.61 389.77 100.64 389.74 100.66 389.71 100.7 389.68 100.72 389.61 100.78 389.58 100.8 389.53 100.82 389.5 100.85 389.47 100.88 389.46 100.89 389.48 100.92 389.5 100.96 389.51 100.99 389.52 101.02 389.53 101.05 389.54 101.08 389.56 101.11 389.57 101.13 389.58 101.16 389.59 101.2 389.61 101.23 389.63 101.26 389.65 101.29 389.68 101.32 389.71 101.35 389.74 101.38 389.77 101.39 389.8 101.39 389.83 101.4 389.86 101.42 389.88 101.45 389.9 101.48 389.92 101.51 389.93 101.55 389.96 101.58 389.98 101.61 390 101.65 390.01 101.69 390.01 101.71 390.01 101.72 390 101.74 389.99 101.75 389.98 101.79 389.98 101.81 389.99 101.84 390 101.87 390.01 101.9 390.02 101.91 390.03 101.94 390.03 101.98 390.03 102.01 390.03 102.04 390.03 102.08 390.02 102.12 390.02 102.16 390.03 102.18 390.04 102.2 390.05 102.23 390.07 102.26 390.07 102.27 390.08 102.81 390.08 103.1 390.1 103.28 390.1 103.37 389.44 103.74 389.33 103.93 389.07 104.44 389.04 104.48 389.01 104.51 388.97 104.54 388.94 104.57 388.89 104.61 388.89 104.63 388.89 104.65 388.89 104.67 388.89 104.68 388.88 104.7 388.87 104.73 388.86 104.74 388.83 104.77 388.79 104.8 388.76 104.83 388.74 104.84 388.72 104.85 388.7 104.88 388.67 104.92 388.65 104.95 388.62 104.97 388.59 105 388.57 105.02 388.55 105.03 388.54 105.05 388.54 105.06 388.53 105.09 388.51 105.13 388.5 105.17 388.48 105.21 388.48 105.26 388.48 105.3 388.48 105.34 388.49 105.39 388.49 105.46 388.5 105.51 388.5 105.51 388.52 105.56 388.52 105.57 388.54 105.58 388.56 105.61 388.6 105.65 388.62 105.67 388.65 105.7 388.67 105.73 388.68 105.75 388.68 105.78 388.69 105.8 388.71 105.82 388.72 105.84 388.72 105.85 388.72 105.86 388.72 105.89 388.7 105.92 388.7 105.94 388.73 105.99 388.74 106.04 388.74 106.06 388.75 106.07 388.76 106.08 388.77 106.08 388.78 106.1 388.77 106.11 388.76 106.12 388.73 106.15 388.7 106.18 388.68 106.19 388.66 106.19 388.65 106.2 388.64 106.2 388.63 106.21 388.62 106.22 388.62 106.24 388.61 106.25 388.61 106.26 388.31 106.48 387.99 106.71 387.61 106.87 387.6 106.88 387.52 106.92 387.37 107.04 387.26 107.12 387.18 107.21 387.15 107.28 387.16 107.35 387.16 107.37 387.18 107.41 387.19 107.46 387.19 107.5 387.2 107.55 387.2 107.57 387.2 107.58 387.21 107.61 387.22 107.65 387.25 107.68 387.27 107.71 387.3 107.76 387.33 107.8 387.36 107.83 387.39 107.84 387.42 107.87 387.43 107.89 387.45 107.91 387.46 107.95 387.47 107.96 387.48 108.01 387.48 108.06 387.49 108.09 387.48 108.11 387.48 108.12 387.48 108.14 387.49 108.17 387.52 108.24 387.53 108.27 387.54 108.28 387.54 108.32 387.54 108.34 387.56 108.43 387.56 108.51 387.59 108.58 387.59 108.63 387.61 108.69 387.62 108.71 387.62 108.73 387.61 108.74 387.59 108.75 387.57 108.71 387.26 109.13 387.25 109.13 387.19 109.17 387.13 109.22 387.07 109.29 387 109.39 386.93 109.51 386.89 109.59 386.85 109.71 386.82 109.85 386.82 110.01 386.82 110.08 386.82 110.2 386.85 110.41 386.88 110.5 386.92 110.65 386.93 110.66 386.99 110.81 387.03 110.9 387.09 111 387.17 111.13 387.27 111.27 387.37 111.42 387.44 111.5 387.52 111.62 387.59 111.73 387.61 111.72 387.61 111.72 387.92 112.38 387.64 113.09 387.63 113.03 387.6 113.04 387.51 113.05 387.44 113.05 387.33 113.05 387.24 113.05 387.15 113.03 387.08 113.02 386.98 113.01 386.9 113.02 386.83 113.02 386.75 113.03 386.68 113.03 386.66 113.03 386.65 113.03 386.64 113.02 386.62 113.02 386.61 113.02 386.59 113.02 386.58 113.02 386.56 113.01 386.54 113.01 386.51 113.01 386.48 113.01 386.45 113.01 386.43 113 386.39 112.99 386.36 112.97 386.33 112.95 386.31 112.95 386.29 112.93 386.26 112.92 386.24 112.91 386.23 112.9 386.21 112.9 386.19 112.89 386.18 112.88 386.16 112.87 386.14 112.87 386.12 112.86 386.11 112.86 386.09 112.85 386.07 112.84 386.05 112.83 386.04 112.83 386.02 112.83 386.01 112.82 386 112.82 385.99 112.82 385.97 112.81 385.96 112.8 385.95 112.8 385.94 112.79 385.93 112.78 385.91 112.77 385.9 112.76 385.89 112.75 385.87 112.75 385.86 112.74 385.84 112.74 385.83 112.73 385.81 112.72 385.8 112.72 385.78 112.71 385.77 112.71 385.75 112.7 385.74 112.7 385.72 112.69 385.71 112.69 385.71 112.69 385.7 112.68 385.69 112.68 385.67 112.67 385.66 112.67 385.66 112.66 385.65 112.66 385.63 112.65 385.62 112.65 385.61 112.64 385.59 112.63 385.58 112.62 385.57 112.61 385.56 112.6 385.54 112.58 385.53 112.57 385.51 112.55 385.49 112.53 385.48 112.52 385.47 112.51 385.46 112.5 385.45 112.49 385.44 112.47 385.44 112.47 385.42 112.44 385.41 112.43 385.39 112.42 385.38 112.41 385.37 112.4 385.35 112.39 385.34 112.37 385.32 112.35 385.31 112.33 385.3 112.32 385.29 112.31 385.27 112.3 385.26 112.29 385.25 112.27 385.23 112.26 385.22 112.24 385.2 112.22 385.19 112.21 385.18 112.19 385.17 112.18 385.15 112.16 385.13 112.15 385.12 112.14 385.1 112.13 385.08 112.11 385.07 112.1 385.05 112.09 385.04 112.07 385.01 112.04 385 112.02 384.98 112 384.96 111.99 384.94 111.97 384.92 111.96 384.9 111.95 384.88 111.94 384.86 111.93 384.83 111.92 384.81 111.9 384.79 111.89 384.78 111.88 384.73 111.83 384.72 111.83 384.7 111.82 384.7 111.82 384.68 111.81 384.66 111.81 384.64 111.81 384.62 111.8 384.6 111.79 384.59 111.77 384.57 111.75 384.55 111.73 384.54 111.72 384.52 111.71 384.5 111.7 384.48 111.69 384.47 111.68 384.45 111.67 384.43 111.66 384.41 111.65 384.39 111.64 384.37 111.62 384.34 111.6 384.33 111.59 384.31 111.58 384.29 111.57 384.28 111.56 384.26 111.55 384.25 111.55 384.24 111.54 384.23 111.54 384.22 111.53 384.21 111.53 384.2 111.53 384.19 111.53 384.19 111.54 384.18 111.55 384.18 111.56 384.18 111.57 384.18 111.58 384.17 111.59 384.15 111.59 384.14 111.59 384.13 111.59 384.12 111.59 384.12 111.59 384.1 111.6 384.09 111.61 384.08 111.61 384.07 111.62 384.06 111.63 384.04 111.64 384.03 111.65 384.02 111.66 384.01 111.68 384 111.69 384 111.7 384 111.71 384 111.72 384 111.73 384 111.75 384 111.76 384 111.77 384.01 111.78 384.01 111.79 384.02 111.8 384.02 111.81 384.03 111.82 384.03 111.84 384.03 111.85 384.02 111.86 384.02 111.87 384.01 111.88 384 111.89 383.99 111.9 383.97 111.91 383.96 111.92 383.92 111.94 383.91 111.95 383.89 111.95 383.87 111.97 383.86 111.98 383.84 111.98 383.83 111.99 383.82 112 383.81 112.01 383.79 112.01 383.78 112.01 383.76 112.02 383.72 112.04 383.71 112.05 383.69 112.06 383.68 112.06 383.67 112.07 383.66 112.08 383.65 112.08 383.64 112.09 383.63 112.1 383.61 112.11 383.6 112.11 383.59 112.11 383.58 112.12 383.56 112.13 383.55 112.13 383.53 112.14 383.51 112.16 383.49 112.16 383.48 112.17 383.45 112.18 383.43 112.19 383.42 112.2 383.4 112.2 383.38 112.21 383.37 112.22 383.32 112.24 383.31 112.24 383.29 112.25 383.27 112.25 383.25 112.26 383.24 112.26 383.22 112.27 383.2 112.27 383.18 112.27 383.16 112.28 383.14 112.28 383.13 112.28 383.11 112.27 383.1 112.27 383.07 112.27 383.05 112.27 383.02 112.27 383 112.27 382.99 112.26 382.97 112.26 382.95 112.27 382.94 112.27 382.92 112.27 382.9 112.27 382.89 112.27 382.87 112.28 382.83 112.28 382.81 112.28 382.79 112.29 382.76 112.3 382.73 112.31 382.7 112.32 382.67 112.33 382.66 112.34 382.64 112.34 382.59 112.36 382.56 112.37 382.55 112.38 382.53 112.38 382.52 112.39 382.51 112.39 382.49 112.4 382.48 112.4 382.46 112.4 382.44 112.4 382.41 112.4 382.39 112.4 382.29 112.39 382.27 112.39 382.26 112.39 382.24 112.38 382.22 112.38 382.19 112.38 382.15 112.37 382.13 112.36 382.12 112.36 382.1 112.36 382.08 112.36 382.06 112.35 382.04 112.35 382.02 112.35 382.01 112.34 382 112.34 381.99 112.33 381.97 112.33 381.96 112.33 381.95 112.33 381.93 112.33 381.9 112.32 381.89 112.32 381.87 112.32 381.84 112.31 381.83 112.3 381.8 112.29 381.79 112.28 381.78 112.27 381.74 112.25 381.73 112.23 381.72 112.22 381.7 112.2 381.68 112.19 381.68 112.17 381.66 112.15 381.66 112.14 381.63 112.11 381.61 112.09 381.58 112.06 381.55 112.03 381.52 112 381.49 111.98 381.46 111.96 381.44 111.95 381.43 111.93 381.4 111.91 381.38 111.89 381.36 111.86 381.35 111.85 381.34 111.83 381.32 111.82 381.31 111.79 381.3 111.78 381.26 111.71 381.22 111.63 381.17 111.54 381.13 111.46 381.1 111.4 381.09 111.39 381.07 111.35 381.06 111.32 381.05 111.29 381.04 111.18 380.99 111.19 380.99 111.18 380.98 111.17 380.97 111.16 380.96 111.15 380.95 111.14 380.92 111.13 380.92 111.12 380.9 111.12 380.89 111.12 380.87 111.11 380.86 111.11 380.85 111.11 380.84 111.11 380.83 111.11 380.82 111.1 380.81 111.1 380.8 111.1 380.79 111.1 380.77 111.09 380.76 111.09 380.75 111.09 380.72 111.09 380.7 111.09 380.69 111.08 380.68 111.09 380.67 111.09 380.65 111.09 380.64 111.09 380.63 111.09 380.62 111.09 380.61 111.09 380.6 111.09 380.57 111.09 380.56 111.09 380.54 111.09 380.53 111.09 380.51 111.09 380.49 111.09 380.47 111.09 380.46 111.09 380.45 111.1 380.4 111.11 380.39 111.11 380.37 111.11 380.36 111.12 380.35 111.12 380.34 111.12 380.33 111.12 380.31 111.12 380.3 111.13 380.29 111.13 380.28 111.13 380.26 111.13 380.25 111.14 380.24 111.14 380.21 111.14 380.19 111.14 380.18 111.14 380.17 111.15 380.15 111.15 380.13 111.15 380.12 111.16 380.03 111.17 380.03 111.17 380.02 111.13 380.04 111.13 380.03 111.11 379.95 111.12 379.96 111.14 379.98 111.14 379.98 111.18 379.78 111.21 379.77 111.19 379.65 111.21 379.58 111.21 379.56 111.22 379.58 111.28 379.35 111.35 378.48 111.37 377.83 111.38 377.61 111.4 377.2 111.37 376.95 111.28 376.94 111.16 376.47 110.62 376.25 109.12 376.39 108.44 376.75 107.78 376.32 107.62 376.38 107.28 376.73 107.13 376.72 107.16 376.72 107.16 376.74 107.19 376.75 107.2 376.77 107.23 376.78 107.25 376.79 107.28 376.79 107.3 376.78 107.32 376.77 107.34 376.76 107.37 376.76 107.39 376.76 107.43 376.77 107.45 376.79 107.47 376.79 107.49 376.8 107.52 376.8 107.54 376.8 107.56 376.8 107.59 376.81 107.61 376.83 107.64 376.85 107.66 376.86 107.67 376.88 107.69 376.9 107.71 376.93 107.74 376.95 107.75 376.96 107.77 376.97 107.78 376.97 107.8 376.96 107.82 376.95 107.83 376.94 107.84 376.93 107.84 376.92 107.84 376.92 107.85 376.91 107.85 376.89 107.85 376.88 107.86 376.87 107.86 376.86 107.86 376.85 107.86 376.84 107.85 376.83 107.85 376.8 107.86 376.78 107.86 376.77 107.86 376.76 107.86 376.75 107.86 376.75 107.86 376.74 107.86 376.73 107.87 376.73 107.88 376.72 107.89 376.72 107.9 376.72 107.9 376.72 107.91 376.71 107.92 376.71 107.93 376.71 107.95 376.71 107.95 376.71 107.96 376.7 107.97 376.7 107.98 376.7 108 377.39 108.09 377.39 108.08 377.39 108.07 377.4 108.06 377.4 108.05 377.41 108.04 377.41 108.03 377.42 108.03 377.43 108.02 377.44 108.01 377.45 108 377.45 107.98 377.46 107.97 377.46 107.96 377.47 107.95 377.47 107.94 377.48 107.93 377.48 107.92 377.49 107.9 377.5 107.88 377.51 107.87 377.53 107.83 377.53 107.82 377.54 107.8 377.55 107.78 377.56 107.75 377.57 107.74 377.57 107.73 377.58 107.72 377.59 107.71 377.59 107.7 377.6 107.69 377.6 107.68 377.61 107.67 377.62 107.65 377.63 107.63 377.64 107.6 377.64 107.59 377.65 107.57 377.66 107.56 377.66 107.55 377.67 107.54 377.68 107.53 377.68 107.52 377.68 107.51 377.68 107.5 377.69 107.49 377.69 107.49 377.7 107.47 377.71 107.44 377.72 107.44 377.72 107.43 377.73 107.41 377.73 107.41 377.74 107.38 377.75 107.37 377.75 107.37 377.76 107.35 377.76 107.34 377.77 107.32 377.77 107.31 377.78 107.29 377.78 107.28 377.78 107.26 377.79 107.25 377.79 107.23 377.8 107.22 377.8 107.21 377.8 107.2 377.8 107.19 377.81 107.18 377.81 107.17 377.81 107.17 377.81 107.15 377.81 107.14 377.82 107.13 377.82 107.12 377.82 107.1 377.82 107.08 377.83 107.05 377.83 107.03 377.84 107.01 377.84 107 377.84 106.99 377.84 106.98 377.84 106.97 377.84 106.95 377.84 106.92 377.84 106.91 377.84 106.89 377.83 106.87 377.83 106.86 377.83 106.85 377.83 106.83 377.82 106.76 377.82 106.76 377.82 106.75 377.82 106.72 377.81 106.71 377.81 106.68 377.81 106.67 377.8 106.66 377.8 106.65 377.8 106.64 377.79 106.63 377.79 106.61 377.79 106.6 377.78 106.59 377.78 106.56 377.77 106.55 377.77 106.54 377.77 106.53 377.76 106.53 377.76 106.52 377.75 106.49 377.74 106.48 377.72 106.45 377.71 106.44 377.71 106.43 377.7 106.41 377.69 106.39 377.68 106.38 377.67 106.36 377.66 106.35 377.64 106.31 377.63 106.3 377.62 106.29 377.62 106.27 377.61 106.26 377.6 106.24 377.59 106.23 377.58 106.22 377.57 106.2 377.55 106.17 377.55 106.16 377.54 106.14 377.53 106.13 377.53 106.12 377.52 106.11 377.51 106.09 377.5 106.08 377.49 106.06 377.48 106.05 377.47 106.04 377.46 106.02 377.45 106 377.44 105.98 377.43 105.96 377.41 105.92 377.4 105.91 377.39 105.9 377.39 105.89 377.38 105.88 377.38 105.87 377.37 105.86 377.36 105.84 377.34 105.81 377.33 105.79 377.32 105.78 377.3 105.75 377.29 105.73 377.28 105.72 377.28 105.71 377.27 105.7 377.26 105.69 377.26 105.68 377.25 105.67 377.23 105.64 377.22 105.62 377.22 105.61 377.2 105.59 377.2 105.59 377.19 105.58 377.19 105.57 377.18 105.56 377.17 105.55 377.17 105.54 377.16 105.53 377.15 105.52 377.11 105.47 377.11 105.47 377.1 105.46 377.09 105.45 377.08 105.44 377.07 105.43 377.06 105.41 377.02 105.37 377.02 105.36 377.01 105.35 376.99 105.34 376.99 105.33 376.98 105.32 376.97 105.31 376.96 105.3 376.96 105.29 376.95 105.28 376.95 105.28 376.94 105.27 376.91 105.22 376.9 105.21 376.86 105.16 376.85 105.15 376.83 105.12 376.82 105.11 376.81 105.09 376.76 105.02 376.75 105.01 376.73 104.99 376.73 104.98 376.72 104.98 376.71 104.97 376.71 104.96 376.69 104.95 376.62 104.85 376.53 104.72 376.49 104.65 376.49 104.62 376.53 104.62 376.58 104.68 376.66 104.8 376.73 104.9 376.75 104.92 376.77 104.95 376.79 104.97 376.81 104.99 376.83 105.02 376.85 105.05 376.88 105.08 376.89 105.1 376.91 105.12 376.94 105.15 376.95 105.16 376.96 105.18 376.98 105.21 377 105.24 377.02 105.26 377.04 105.28 377.06 105.3 377.08 105.32 377.1 105.35 377.12 105.38 377.14 105.41 377.17 105.44 377.19 105.47 377.2 105.48 377.22 105.52 377.25 105.54 377.26 105.57 377.28 105.59 377.3 105.62 377.32 105.65 377.33 105.67 377.34 105.69 377.35 105.72 377.38 105.76 377.39 105.77 377.41 105.77 377.46 105.76 377.57 105.74 377.71 105.69 377.81 105.65 377.91 105.6 377.96 105.56 378 105.52 378.02 105.5 378.02 105.48 378.02 105.47 378.01 105.45 377.99 105.42 377.96 105.4 377.95 105.39 377.94 105.37 377.93 105.36 377.93 105.35 377.93 105.34 377.92 105.34 377.92 105.32 377.92 105.31 377.92 105.3 377.91 105.29 377.91 105.29 377.91 105.28 377.92 105.27 377.92 105.26 377.92 105.25 377.91 105.24 377.9 105.24 377.91 105.22 377.91 105.21 377.92 105.21 377.93 105.2 377.93 105.19 377.95 105.19 377.96 105.18 377.97 105.18 377.97 105.17 377.97 105.16 377.97 105.15 377.96 105.15 377.96 105.14 377.96 105.14 377.98 105.14 377.99 105.13 378.03 105.13 378.04 105.12 378.06 105.12 378.07 105.12 378.08 105.12 378.09 105.12 378.1 105.11 378.11 105.11 378.13 105.1 378.14 105.1 378.16 105.08 378.17 105.08 378.18 105.07 378.19 105.06 378.21 105.04 378.22 105.03 378.23 105.02 378.23 105.02 378.24 105.01 378.25 105.01 378.25 105 378.26 104.99 378.27 104.98 378.27 104.97 378.28 104.97 378.28 104.96 378.29 104.95 378.29 104.95 378.3 104.92 378.31 104.92 378.31 104.91 378.32 104.9 378.32 104.89 378.32 104.88 378.33 104.87 378.33 104.86 378.34 104.86 378.34 104.85 378.34 104.84 378.34 104.83 378.34 104.82 378.34 104.82 378.35 104.81 378.35 104.81 378.36 104.8 378.36 104.79 378.37 104.78 378.38 104.77 378.39 104.76 378.4 104.76 378.41 104.76 378.42 104.75 378.43 104.74 378.43 104.72 378.44 104.71 378.45 104.71 378.46 104.7 378.47 104.7 378.48 104.7 378.49 104.69 378.5 104.68 378.5 104.67 378.5 104.66 378.51 104.64 378.51 104.64 378.52 104.63 378.53 104.63 378.53 104.62 378.54 104.61 378.54 104.61 378.55 104.6 378.55 104.59 378.56 104.58 378.57 104.58 378.58 104.59 378.6 104.58 378.61 104.58 378.62 104.58 378.62 104.57 378.64 104.57 378.66 104.56 378.67 104.56 378.67 104.55 378.68 104.55 378.69 104.54 378.69 104.53 378.69 104.52 378.69 104.51 378.69 104.51 378.69 104.5 378.69 104.48 378.69 104.48 378.69 104.46 378.7 104.46 378.7 104.45 378.71 104.44 378.72 104.42 378.72 104.42 378.73 104.41 378.73 104.39 378.74 104.38 378.74 104.37 378.75 104.37 378.75 104.36 378.76 104.35 378.77 104.34 378.77 104.33 378.78 104.32 378.79 104.31 378.8 104.31 378.8 104.3 378.81 104.29 378.82 104.28 378.82 104.27 378.82 104.26 378.82 104.25 378.82 104.24 378.82 104.23 378.82 104.22 378.82 104.21 378.82 104.2 378.82 104.19 378.82 104.18 378.82 104.17 378.83 104.14 378.84 104.13 378.84 104.11 378.84 104.1 378.85 104.09 378.85 104.08 378.86 104.08 378.87 104.08 378.88 104.07 378.89 104.07 378.89 104.06 378.9 104.05 378.9 104.04 378.9 104.03 378.9 104.02 378.9 104 378.9 104 378.9 103.99 378.9 103.98 378.9 103.97 378.9 103.95 378.89 103.94 378.89 103.93 378.9 103.92 378.9 103.91 378.9 103.9 378.91 103.89 378.92 103.88 378.93 103.88 378.94 103.87 378.95 103.86 378.96 103.86 378.97 103.85 378.98 103.84 378.99 103.83 379 103.83 379.01 103.82 379.02 103.82 379.03 103.81 379.03 103.8 379.05 103.79 379.06 103.78 379.07 103.77 379.08 103.76 379.09 103.76 379.1 103.75 379.11 103.74 379.12 103.73 379.13 103.73 379.13 103.74 379.14 103.75 379.14 103.76 379.14 103.77 379.15 103.78 379.16 103.79 379.16 103.8 379.17 103.8 379.18 103.81 379.19 103.81 379.2 103.82 379.21 103.82 379.22 103.84 379.24 103.85 379.25 103.85 379.26 103.86 379.27 103.86 379.28 103.86 379.29 103.87 379.3 103.87 379.31 103.87 379.32 103.88 379.33 103.88 379.35 103.88 379.36 103.88 379.37 103.88 379.38 103.88 379.39 103.88 379.4 103.89 379.4 103.89 379.41 103.89 379.42 103.89 379.43 103.89 379.44 103.89 379.45 103.9 379.46 103.9 379.47 103.89 379.48 103.89 379.49 103.89 379.5 103.9 379.52 103.91 379.52 103.91 379.53 103.92 379.54 103.92 379.55 103.92 379.56 103.92 379.57 103.91 379.57 103.91 379.58 103.91 379.59 103.92 379.6 103.92 379.61 103.92 379.64 103.91 379.65 103.9 379.66 103.9 379.67 103.89 379.69 103.88 379.7 103.87 379.71 103.87 379.72 103.86 379.73 103.86 379.74 103.85 379.74 103.84 379.75 103.83 379.76 103.83 379.76 103.82 379.76 103.81 379.77 103.8 379.77 103.79 379.77 103.78 379.77 103.77 379.77 103.76 379.77 103.74 379.77 103.73 379.77 103.72 379.78 103.7 379.78 103.7 379.79 103.69 379.79 103.69 379.8 103.68 379.81 103.67 379.82 103.67 379.82 103.66 379.83 103.65 379.83 103.65 379.83 103.64 379.83 103.63 379.83 103.62 379.84 103.6 379.85 103.59 379.85 103.58 379.85 103.57 379.85 103.57 379.85 103.56 379.86 103.55 379.86 103.54 379.87 103.53 379.88 103.52 379.88 103.5 379.89 103.5 379.89 103.49 379.9 103.47 379.91 103.46 379.92 103.46 379.92 103.45 379.92 103.44 379.92 103.43 379.93 103.42 379.93 103.41 379.94 103.4 379.95 103.39 379.96 103.38 379.96 103.38 379.97 103.37 379.97 103.35 379.97 103.34 379.96 103.33 379.97 103.31 379.98 103.31 379.98 103.3 379.98 103.29 379.98 103.28 379.98 103.27 379.98 103.26 379.99 103.25 379.99 103.24 379.99 103.23 379.99 103.22 380 103.21 380 103.2 380 103.19 380 103.19 380 103.18 380.01 103.17 380.01 103.16 380 103.15 380 103.14 380 103.13 380.01 103.13 380.02 103.14 380.04 103.14 380.04 103.13 380.03 103.12 380.02 103.12 380.02 103.11 380.03 103.09 380.03 103.08 380.04 103.07 380.03 103.06 380.04 103.05 380.05 103.04 380.06 103.04 380.07 103.04 380.08 103.03 380.08 103.02 380.08 103.01 380.09 103 380.1 103 380.11 103 380.12 103 380.13 102.99 380.14 102.98 380.15 102.97 380.16 102.97 380.17 102.95 380.18 102.95 380.18 102.95 380.2 102.95 380.21 102.95 380.21 102.97 380.22 102.97 380.23 102.97 380.24 102.98 380.25 102.99 380.26 102.98 380.27 102.98 380.28 102.99 380.29 102.98 380.3 102.99 380.32 102.99 380.33 102.98 380.34 102.98 380.35 102.97 380.36 102.96 380.37 102.97 380.37 102.97 380.38 102.98 380.39 102.98 380.4 102.98 380.41 102.99 380.42 102.99 380.43 102.99 380.44 102.98 380.45 102.98 380.46 102.98 380.47 102.98 380.47 102.97 380.48 102.96 380.49 102.95 380.49 102.95 380.5 102.94 380.5 102.95 380.52 102.95 380.52 102.95 380.53 102.94 380.54 102.94 380.55 102.95 380.57 102.95 380.58 102.94 380.58 102.94 380.6 102.94 380.61 102.93 380.61 102.93 380.62 102.92 380.63 102.93 380.64 102.94 380.65 102.94 380.67 102.94 380.68 102.94 380.68 102.94 380.69 102.94 380.71 102.95 380.72 102.94 380.73 102.93 380.74 102.93 380.75 102.92 380.77 102.92 380.78 102.93 380.79 102.93 380.8 102.93 380.82 102.93 380.83 102.94 380.85 102.93 380.85 102.93 380.87 102.91 380.87 102.9 380.88 102.9 380.88 102.88 380.89 102.87 380.89 102.86 380.89 102.85 380.9 102.85 380.9 102.85 380.91 102.85 380.92 102.85 380.93 102.84 380.93 102.84 380.94 102.84 380.95 102.83 380.96 102.82 380.97 102.82 380.98 102.81 380.99 102.81 381.01 102.79 381.01 102.78 381.03 102.77 381.04 102.77 381.05 102.76 381.05 102.75 381.06 102.74 381.08 102.74 381.09 102.74 381.1 102.73 381.1 102.72 381.1 102.72 381.12 102.72 381.13 102.72 381.15 102.72 381.16 102.71 381.17 102.71 381.18 102.71 381.19 102.71 381.2 102.71 381.2 102.7 381.21 102.7 381.22 102.7 381.23 102.7 381.24 102.71 381.25 102.71 381.26 102.7 381.27 102.7 381.27 102.7 381.28 102.69 381.29 102.69 381.3 102.68 381.32 102.67 381.34 102.66 381.34 102.65 381.35 102.65 381.36 102.64 381.37 102.63 381.38 102.63 381.39 102.62 381.39 102.62 381.4 102.61 381.41 102.61 381.41 102.6 381.42 102.59 381.44 102.58 381.45 102.57 381.46 102.57 381.46 102.55 381.47 102.55 381.48 102.53 381.48 102.52 381.48 102.51 381.5 102.5 381.51 102.49 381.51 102.48 381.52 102.47 381.53 102.47 381.53 102.45 381.54 102.44 381.54 102.44 381.55 102.43 381.55 102.42 381.56 102.41 381.56 102.4 381.57 102.39 381.57 102.39 381.57 102.37 381.56 102.36 381.56 102.36 381.56 102.35 381.56 102.34 381.57 102.33 381.58 102.32 381.58 102.31 381.58 102.31 381.58 102.3 381.58 102.28 381.58 102.27 381.59 102.26 381.59 102.26 381.6 102.24 381.61 102.24 381.61 102.23 381.62 102.23 381.63 102.22 381.63 102.22 381.64 102.21 381.65 102.21 381.66 102.2 381.66 102.2 381.67 102.19 381.68 102.18 381.68 102.18 381.69 102.17 381.68 102.16 381.67 102.17 381.66 102.16 381.67 102.15 381.68 102.15 381.69 102.15 381.7 102.15 381.71 102.14 381.73 102.13 381.73 102.12 381.73 102.11 381.74 102.1 381.75 102.1 381.76 102.09 381.76 102.08 381.76 102.07 381.77 102.06 381.78 102.05 381.79 102.05 381.79 102.03 381.78 102.02 381.78 102.02 381.77 102.01 381.78 102 381.78 102 381.79 101.99 381.79 101.98 381.81 101.98 381.82 101.97 381.82 101.96 381.82 101.95 381.82 101.94 381.83 101.94 381.84 101.93 381.85 101.92 381.85 101.92 381.86 101.91 381.86 101.9 381.86 101.89 381.87 101.88 381.88 101.88 381.89 101.87 381.89 101.86 381.88 101.85 381.88 101.85 381.87 101.84 381.87 101.83 381.87 101.83 381.88 101.82 381.89 101.82 381.9 101.82 381.92 101.82 381.93 101.81 381.93 101.81 381.93 101.8 381.94 101.79 381.94 101.78 381.93 101.77 381.92 101.77 381.91 101.76 381.9 101.76 381.9 101.75 381.91 101.74 381.91 101.73 381.92 101.73 381.93 101.74 381.94 101.75 381.95 101.76 381.96 101.75 381.96 101.74 381.97 101.74 381.98 101.73 381.99 101.73 382 101.73 382.01 101.73 382.02 101.72 382.02 101.72 382.03 101.7 382.03 101.69 382.02 101.69 382.01 101.68 382.02 101.67 382.03 101.68 382.05 101.67 382.04 101.66 382.04 101.66 382.03 101.65 382.03 101.64 382.04 101.64 382.04 101.63 382.03 101.63 382.02 101.62 382.02 101.61 382.01 101.6 382.01 101.59 382.01 101.58 382.01 101.57 382.02 101.56 382.03 101.55 382.04 101.55 382.04 101.54 382.05 101.54 382.06 101.53 382.06 101.52 382.07 101.51 382.08 101.51 382.09 101.5 382.09 101.5 382.1 101.49 382.11 101.49 382.12 101.48 382.13 101.48 382.14 101.47 382.15 101.46 382.16 101.46 382.2 101.44 382.22 101.43 382.22 101.42 382.23 101.42 382.23 101.41 382.24 101.41 382.25 101.4 382.27 101.39 382.28 101.39 382.28 101.4 382.28 101.4 382.29 101.42 382.3 101.42 382.31 101.42 382.32 101.42 382.33 101.42 382.34 101.42 382.36 101.42 382.36 101.42 382.38 101.41 382.39 101.41 382.4 101.4 382.4 101.4 382.42 101.39 382.42 101.38 382.43 101.38 382.43 101.38 382.45 101.38 382.46 101.39 382.45 101.39 382.44 101.4 382.44 101.41 382.44 101.42 382.43 101.43 382.43 101.44 382.43 101.45 382.45 101.44 382.46 101.43 382.46 101.43 382.47 101.42 382.48 101.42 382.49 101.42 382.5 101.42 382.51 101.41 382.52 101.41 382.53 101.42 382.55 101.42 382.55 101.42 382.56 101.41 382.57 101.41 382.58 101.42 382.59 101.41 382.6 101.41 382.61 101.4 382.62 101.39 382.62 101.4 382.62 101.41 382.62 101.42 382.62 101.43 382.63 101.43 382.65 101.43 382.65 101.44 382.67 101.43 382.68 101.43 382.69 101.43 382.7 101.43 382.71 101.43 382.72 101.42 382.73 101.42 382.74 101.42 382.75 101.41 382.76 101.41 382.77 101.4 382.79 101.39 382.8 101.39 382.8 101.39 382.81 101.4 382.82 101.4 382.84 101.4 382.85 101.4 382.86 101.39 382.87 101.38 382.87 101.37 382.89 101.37 382.89 101.36 382.89 101.35 382.88 101.35 382.88 101.34 382.88 101.33 382.89 101.33 382.9 101.32 382.91 101.33 382.92 101.32 382.93 101.32 382.94 101.31 382.95 101.31 382.96 101.3 382.97 101.29 382.97 101.28 382.97 101.27 382.97 101.26 382.97 101.25 382.97 101.23 382.98 101.22 382.98 101.21 382.98 101.2 382.98 101.19 382.99 101.18 383 101.18 383 101.16 383 101.15 383.01 101.14 383.01 101.14 383.01 101.12 383.02 101.11 383.02 101.1 383.02 101.09 383.04 101.08 383.04 101.08 383.05 101.07 383.05 101.06 383.06 101.05 383.06 101.04 383.06 101.04 383.05 101.02 383.05 101 383.05 100.99 383.06 100.99 383.07 100.99 383.08 101 383.09 100.99 383.09 100.98 383.09 100.97 383.09 100.96 383.09 100.95 383.08 100.95 383.09 100.94 383.09 100.93 383.08 100.92 383.07 100.92 383.06 100.93 383.06 100.93 383.05 100.93 383.03 100.92 383.04 100.92 383.06 100.91 383.06 100.91 383.08 100.9 383.09 100.9 383.1 100.89 383.13 100.89 383.14 100.88 383.15 100.87 383.15 100.87 383.16 100.86 383.17 100.86 383.18 100.85 383.19 100.85 383.2 100.84 383.21 100.84 383.23 100.83 383.24 100.82 383.25 100.81 383.26 100.81 383.27 100.8 383.28 100.8 383.29 100.79 383.3 100.79 383.31 100.78 383.32 100.77 383.33 100.77 383.34 100.77 383.35 100.76 383.36 100.76 383.38 100.74 383.39 100.74 383.4 100.74 383.41 100.73 383.42 100.72 383.43 100.71 383.44 100.71 383.44 100.7 383.46 100.69 383.48 100.69 383.5 100.68 383.51 100.68 383.51 100.67 383.53 100.68 383.53 100.68 383.54 100.7 383.55 100.7 383.56 100.7 383.56 100.7 383.57 100.7 383.58 100.71 383.59 100.71 383.61 100.71 383.62 100.71 383.63 100.7 383.63 100.7 383.64 100.7 383.65 100.7 383.66 100.71 383.67 100.72 383.68 100.72 383.7 100.72 383.72 100.73 383.73 100.73 383.74 100.74 383.75 100.74 383.76 100.75 383.77 100.76 383.78 100.76 383.79 100.76 383.8 100.76 383.81 100.77 383.82 100.78 383.83 100.79 383.85 100.79 383.86 100.79 383.87 100.79 383.89 100.78 383.9 100.78 383.91 100.79 383.92 100.79 383.93 100.8 383.94 100.8 383.95 100.8 383.96 100.8 383.97 100.81 383.98 100.81 383.98 100.82 383.99 100.83 384 100.83 384.01 100.83 384.02 100.83 384.02 100.83 384.02 100.84 384.04 100.85 384.05 100.84 384.06 100.84 384.06 100.86 384.06 100.86 384.07 100.87 384.08 100.87 384.08 100.86 384.09 100.86 384.11 100.86 384.11 100.88 384.11 100.89 384.12 100.9 384.13 100.9 384.14 100.9 384.15 100.9 384.16 100.89 384.18 100.89 384.18 100.91 384.19 100.91 384.2 100.91 384.2 100.9 384.21 100.9 384.22 100.9 384.23 100.91 384.23 100.92 384.23 100.92 384.24 100.92 384.25 100.92 384.26 100.92 384.27 100.93 384.29 100.93 384.29 100.94 384.3 100.94 384.32 100.95 384.33 100.94 384.34 100.93 384.35 100.93 384.36 100.93 384.38 100.92 384.4 100.91 384.41 100.9 384.42 100.89 384.43 100.89 384.44 100.87 384.45 100.87 384.46 100.86 384.46 100.85 384.47 100.85 384.48 100.84 384.49 100.83 384.5 100.82 384.51 100.81 384.52 100.8 384.53 100.79 384.54 100.77 384.54 100.76 384.55 100.75 384.56 100.73 384.57 100.72 384.57 100.7 384.58 100.69 384.59 100.67 384.6 100.65 384.61 100.63 384.62 100.62 384.62 100.6 384.63 100.58 384.64 100.57 384.66 100.54 384.66 100.53 384.67 100.51 384.67 100.5 384.68 100.48 384.69 100.47 384.69 100.46 384.7 100.44 384.7 100.43 384.7 100.42 384.7 100.41 384.71 100.4 384.72 100.39 384.72 100.38 384.73 100.37 384.73 100.36 384.73 100.35 384.74 100.35 384.74 100.33 384.75 100.32 384.76 100.31 384.76 100.3 384.76 100.29 384.77 100.28 384.78 100.27 384.79 100.26 384.79 100.25 384.8 100.25 384.81 100.24 384.81 100.24 384.82 100.23 384.82 100.22 384.83 100.21 384.83 100.19 384.83 100.18 384.83 100.17 384.84 100.15 384.85 100.14 384.86 100.14 384.88 100.12 384.89 100.11 384.9 100.1 384.92 100.09 384.94 100.08 384.95 100.06 384.97 100.05 384.99 100.04 385.01 100.03 385.03 100.03 385.05 100.02 385.07 100.02 385.09 100.01 385.11 100.01 385.13 100.01 385.15 100.02 385.16 100.02 385.18 100.02 385.19 100.02 385.2 100.03 385.21 100.04 385.21 100.05 385.22 100.05 385.23 100.05 385.25 100.05 385.27 100.05 385.29 100.05 385.31 100.05 385.32 100.05 385.34 100.05 385.36 100.05 385.38 100.05 385.4 100.05 385.42 100.04 385.43 100.05 385.44 100.04 385.46 100.04 385.48 100.03 385.49 100.03 385.51 100.04 385.52 100.04 385.54 100.04 385.56 100.03 385.58 100.02 385.59 100.02 385.61 100.02 385.64 100.02 385.66 100.02 385.68 100.01 385.7 100 385.71 99.98 385.73 99.97 385.74 99.95 385.75 99.94 385.75 99.92 385.76 99.91 385.77 99.9 385.78 99.91 385.79 99.91 385.8 99.92 385.81 99.92 385.82 99.91 385.82 99.9 385.82 99.88 385.83 99.87 385.84 99.87 385.86 99.86 385.87 99.86 385.88 99.85 385.89 99.85 385.91 99.85 385.92 99.84 385.94 99.83 385.96 99.82 385.98 99.82 386.02 99.81 386.04 99.8 386.06 99.79 386.07 99.78 386.09 99.78 386.11 99.78 386.12 99.78 386.14 99.77 386.15 99.77 386.16 99.78 386.17 99.8 386.17 99.81 386.2 99.81 386.22 99.81 386.24 99.8 386.25 99.79 386.27 99.79 386.28 99.79 386.3 99.78 386.33 99.78 386.35 99.78 386.36 99.77 386.38 99.76 386.39 99.75 386.41 99.75 386.42 99.75 386.44 99.75 386.45 99.74 386.46 99.73 386.48 99.72 386.5 99.72 386.51 99.71 386.52 99.7 386.53 99.7 386.54 99.71 386.56 99.71 386.57 99.72 386.58 99.72 386.59 99.72 386.6 99.72 386.62 99.74 386.62 99.74 386.64 99.75 386.65 99.75 386.66 99.75 386.67 99.76 386.68 99.76 386.69 99.76 386.71 99.76 386.72 99.75 386.73 99.74 386.74 99.73 386.75 99.71 386.76 99.7 386.77 99.7 386.79 99.69 386.8 99.68 386.82 99.67 386.83 99.67 386.84 99.67 386.86 99.66 386.87 99.65 386.89 99.65 386.9 99.65 386.92 99.65 386.93 99.64 386.94 99.63 386.95 99.62 386.97 99.62 386.98 99.61 386.98 99.6 386.97 99.59 386.96 99.59 386.95 99.58 386.95 99.57 386.95 99.56 386.96 99.56 386.96 99.55 386.97 99.55 386.98 99.56 387 99.56 387 99.58 387.01 99.58 387.01 99.59 387.02 99.6 387.03 99.59 387.04 99.6 387.05 99.61 387.05 99.62 387.07 99.62 387.08 99.61 387.08 99.6 387.08 99.59 387.08 99.58 387.09 99.57 387.08 99.56 387.07 99.55 387.06 99.55 387.06 99.54 387.07 99.53 387.08 99.53 387.09 99.53 387.09 99.52 387.1 99.51 387.11 99.5 387.12 99.51 387.14 99.51 387.15 99.51 387.16 99.52 387.16 99.52 387.18 99.52 387.19 99.52 387.22 99.52 387.24 99.52 387.26 99.51 387.28 99.51 387.29 99.51 387.3 99.5 387.31 99.5 387.33 99.49 387.34 99.48 387.34 99.47 387.35 99.46 387.37 99.46 387.39 99.45 387.39 99.44 387.4 99.44 387.42 99.43 387.44 99.42 387.44 99.4 387.45 99.39 387.47 99.39 387.48 99.39 387.49 99.38 387.52 99.37 387.53 99.36 387.54 99.35 387.54 99.34 387.54 99.33 387.54 99.32 387.56 99.31 387.56 99.31 387.56 99.3 387.56 99.29 387.56 99.28 387.56 99.27 387.55 99.26 387.55 99.25 387.56 99.24 387.56 99.23 387.57 99.22 387.58 99.2 387.59 99.2 387.6 99.2 387.61 99.2 387.61 99.2 387.62 99.2 387.64 99.21 387.65 99.21 387.66 99.22 387.66 99.22 387.67 99.23 387.68 99.23 387.74 99.25 387.74 99.25 387.75 99.25 387.76 99.23 387.77 99.22 387.78 99.21 387.78 99.21 387.79 99.2 387.8 99.2 387.81 99.19 387.82 99.19 387.83 99.19 387.84 99.18 387.85 99.18 387.86 99.18 387.87 99.18 387.88 99.18 387.89 99.18 387.9 99.18 387.91 99.18 387.93 99.18 387.93 99.18 387.94 99.18 387.95 99.18 387.96 99.17 387.97 99.17 387.97 99.16 387.98 99.15 387.98 99.14 387.99 99.13 387.99 99.12 387.99 99.11 387.99 99.1 388 99.09 388 99.08 388 99.07 388 99.06 388.01 99.04 388.01 99.03 388.02 99.02 388.03 99.01 388.03 99 388.03 98.99 388.03 98.98 388.03 98.97 388.04 98.97 388.05 98.96 388.05 98.96 388.08 98.94 388.12 98.92 388.13 98.92 388.14 98.92 388.16 98.91 388.18 98.9 388.2 98.89 388.21 98.89 388.22 98.88 388.23 98.88 388.25 98.87 388.26 98.87 388.27 98.86 388.3 98.85 388.32 98.84 388.33 98.84 388.35 98.83 388.36 98.82 388.37 98.82 388.38 98.82 388.39 98.82 388.38 98.83 388.38 98.84 388.39 98.85 388.4 98.85 388.41 98.85 388.42 98.86 388.42 98.86 388.43 98.86 388.44 98.87 388.45 98.88 388.46 98.88 388.47 98.88 388.47 98.88 388.48 98.88 388.5 98.88 388.51 98.89 388.53 98.88 388.54 98.88 388.55 98.89 388.55 98.9 388.57 98.91 388.57 98.92 388.58 98.92 388.59 98.92 388.6 98.92 388.61 98.93 388.63 98.93 388.64 98.92 388.65 98.92 388.66 98.92 388.67 98.92 388.69 98.91 388.7 98.9 388.72 98.9 388.74 98.89 388.75 98.88 388.77 98.87 388.78 98.87 388.8 98.86 388.81 98.86 388.82 98.86 388.84 98.85 388.85 98.84 388.87 98.83 388.88 98.83 388.9 98.82 388.91 98.82 388.94 98.8 388.95 98.8 388.97 98.79 388.98 98.79 389 98.78 389.01 98.77 389.03 98.77 389.04 98.76 389.05 98.76 389.07 98.75 389.08 98.75 389.09 98.74 389.1 98.73 389.11 98.73 389.13 98.72 389.14 98.71 389.15 98.71 389.16 98.7 389.17 98.7 389.19 98.69 389.2 98.68 389.22 98.68 389.23 98.68 389.24 98.67 389.25 98.67 389.26 98.67 389.27 98.67 389.28 98.67 389.29 98.67 389.3 98.66 389.31 98.66 389.32 98.66 389.33 98.66 389.34 98.65 389.34 98.65 389.35 98.65 389.36 98.66 389.38 98.66 389.38 98.66 389.39 98.66 389.4 98.66 389.41 98.66 389.42 98.65 389.43 98.65 389.45 98.65 389.46 98.64 389.47 98.63 389.48 98.63 389.49 98.63 389.51 98.62 389.52 98.62 389.53 98.61 389.55 98.61 389.57 98.6 389.58 98.59 389.6 98.58 389.61 98.57 389.62 98.57 389.63 98.56 389.65 98.56 389.66 98.55 389.67 98.54 389.68 98.53 389.69 98.52 389.71 98.51 389.72 98.5 389.74 98.49 389.75 98.49 389.77 98.48 389.78 98.47 389.8 98.46 389.81 98.45 389.82 98.45 389.83 98.44 389.84 98.43 389.86 98.43 389.87 98.42 389.89 98.42 389.9 98.41 389.91 98.4 389.92 98.4 389.94 98.4 389.94 98.39 389.95 98.38 389.96 98.37 389.97 98.37 389.98 98.36 389.99 98.35 390 98.35 390.01 98.34 390.02 98.33 390.03 98.33 390.04 98.33 390.05 98.33 390.06 98.32 390.07 98.31 390.08 98.31 390.09 98.31 390.1 98.31 390.11 98.31 390.12 98.3 390.13 98.3 390.14 98.29 390.15 98.29 390.16 98.3 390.17 98.3 390.18 98.3 390.19 98.3 390.2 98.3 390.21 98.3 390.22 98.29 390.23 98.28 390.24 98.28 390.25 98.27 390.26 98.27 390.27 98.27 390.28 98.26 390.3 98.25 390.31 98.24 390.32 98.23 390.33 98.23 390.34 98.23 390.36 98.23 390.36 98.23 390.37 98.23 Z"/>
</g></svg>