<svg xmlns="http://www.w3.org/2000/svg" version="1.2" baseProfile="tiny" stroke-linecap="round" stroke-linejoin="round" viewBox="527.25 368.25 15.58 9.03"><g xmlns="http://www.w3.org/2000/svg" id="Orisoain">
<path d="M 533.69 368.28 533.74 368.28 533.78 368.28 533.79 368.28 533.81 368.28 533.84 368.29 534.02 368.3 534.13 368.31 534.21 368.32 534.23 368.32 534.24 368.32 534.27 368.33 534.3 368.34 534.32 368.34 534.36 368.35 534.4 368.36 534.43 368.36 534.49 368.37 534.51 368.37 534.53 368.37 534.59 368.39 534.59 368.39 534.64 368.39 534.65 368.39 534.66 368.4 534.68 368.41 534.87 368.44 535 368.46 535.07 368.47 535.08 368.47 535.15 368.5 535.2 368.52 535.22 368.53 535.29 368.56 535.32 368.58 535.38 368.61 535.46 368.65 535.57 368.71 535.67 368.78 535.69 368.8 535.78 368.87 535.91 368.98 536.01 369.05 536.08 369.09 536.21 369.14 536.24 369.16 536.28 369.17 536.37 369.21 536.49 369.25 536.5 369.25 536.67 369.32 536.69 369.32 536.85 369.38 536.87 369.38 537.04 369.45 537.08 369.48 537.12 369.5 537.17 369.53 537.18 369.53 537.2 369.54 537.27 369.53 537.28 369.53 537.31 369.53 537.35 369.54 537.38 369.56 537.39 369.56 537.41 369.58 537.45 369.65 537.46 369.68 537.48 369.73 537.5 369.76 537.52 369.77 537.57 369.81 537.6 369.83 537.66 369.88 537.69 369.9 537.76 369.94 537.79 369.96 537.82 369.98 537.87 369.99 537.89 370 537.91 370 537.93 370 538.01 369.99 538.03 369.99 538.04 369.99 538.14 369.98 538.19 369.98 538.23 369.98 538.24 369.97 538.31 369.98 538.33 369.98 538.39 369.98 538.46 369.98 538.49 369.98 538.54 369.98 538.6 369.97 538.7 369.98 538.71 369.98 538.78 369.99 538.87 370.01 538.94 370.05 539 370.09 539.06 370.15 539.1 370.2 539.13 370.23 539.15 370.28 539.17 370.34 539.17 370.36 539.18 370.42 539.2 370.52 539.21 370.55 539.22 370.58 539.23 370.59 539.28 370.61 539.44 370.64 539.46 370.65 539.61 370.68 539.77 370.71 539.8 370.72 539.99 370.75 540.08 370.75 540.11 370.75 540.14 370.75 540.15 370.75 540.21 370.71 540.29 370.65 540.37 370.61 540.45 370.58 540.55 370.54 540.62 370.53 540.64 370.52 540.74 370.52 540.89 370.5 540.98 370.51 541.1 370.52 541.25 370.54 541.29 370.54 541.37 370.55 541.51 370.55 541.69 370.53 541.8 370.53 541.87 370.51 541.93 370.49 542 370.47 542.06 370.43 542.12 370.38 542.19 370.32 542.25 370.27 542.36 370.17 542.41 370.15 542.49 370.2 542.6 370.26 542.69 370.29 542.77 370.32 542.81 370.33 542.83 370.35 542.82 370.4 542.82 370.45 542.82 370.49 542.8 370.54 542.77 370.62 542.76 370.66 542.72 370.72 542.7 370.76 542.65 370.79 542.63 370.82 542.58 370.87 542.54 370.94 542.52 370.97 542.47 371.04 542.43 371.11 542.35 371.24 542.32 371.31 542.27 371.4 542.23 371.49 542.17 371.6 542.11 371.71 542.03 371.84 542.01 371.86 541.97 371.93 541.91 372.05 541.89 372.09 541.86 372.14 541.78 372.29 541.74 372.38 541.73 372.4 541.7 372.46 541.63 372.57 541.62 372.59 541.56 372.68 541.5 372.76 541.43 372.86 541.38 372.92 541.34 372.97 541.29 373.02 541.26 373.08 541.26 373.09 541.2 373.18 541.15 373.27 541.14 373.28 541.07 373.37 541.03 373.43 540.98 373.47 540.92 373.51 540.87 373.54 540.78 373.6 540.66 373.68 540.55 373.75 540.46 373.81 540.42 373.83 540.39 373.82 540.29 373.79 540.27 373.78 540.15 373.73 540.09 373.71 539.94 373.66 539.83 373.62 539.76 373.6 539.61 373.55 539.56 373.61 539.51 373.67 539.42 373.78 539.4 373.81 539.35 373.86 539.31 373.91 539.3 373.92 539.27 373.95 539.25 373.97 539.21 374.04 539.2 374.04 539.16 374.12 539.14 374.15 539.13 374.18 539.11 374.21 539.1 374.23 539.09 374.24 539.09 374.25 539 374.4 538.89 374.54 538.85 374.59 538.84 374.6 538.81 374.63 538.81 374.64 538.77 374.69 538.72 374.74 538.64 374.84 538.55 374.94 538.45 375.04 538.44 375.05 538.44 375.05 538.39 375.1 538.37 375.13 538.34 375.16 538.31 375.21 538.28 375.24 538.2 375.29 538.12 375.33 538.11 375.33 538.08 375.34 538.06 375.35 538.02 375.36 538 375.37 537.97 375.38 537.94 375.39 537.86 375.41 537.82 375.42 537.79 375.43 537.77 375.43 537.76 375.44 537.75 375.44 537.56 375.51 537.56 375.51 537.4 375.57 537.36 375.57 537.34 375.59 537.29 375.61 537.26 375.62 537.24 375.63 537.2 375.65 537.11 375.7 537.09 375.71 536.98 375.78 536.97 375.78 536.92 375.82 536.91 375.82 536.89 375.83 536.87 375.85 536.83 375.87 536.83 375.88 536.74 375.95 536.68 376 536.6 376.06 536.56 376.1 536.54 376.11 536.45 376.16 536.38 376.19 536.25 376.25 536.21 376.27 536.16 376.29 536.08 376.32 536.06 376.32 536.05 376.33 535.97 376.35 535.92 376.35 535.89 376.35 535.86 376.36 535.84 376.36 535.78 376.36 535.7 376.35 535.68 376.35 535.64 376.35 535.6 376.35 535.53 376.36 535.52 376.36 535.42 376.35 535.35 376.35 535.3 376.37 535.29 376.37 535.25 376.39 535.2 376.42 535.16 376.46 535.14 376.47 535.1 376.5 535.05 376.55 534.97 376.61 534.89 376.68 534.81 376.74 534.77 376.77 534.76 376.77 534.75 376.78 534.73 376.79 534.65 376.85 534.59 376.87 534.55 376.89 534.48 376.92 534.46 376.92 534.4 376.94 534.34 376.95 534.28 376.95 534.25 376.96 534.17 376.96 534.13 376.96 534.08 376.96 534.03 376.96 533.95 376.98 533.94 376.98 533.91 376.99 533.9 376.99 533.74 377.02 533.73 377.03 533.71 377.03 533.69 377.04 533.64 377.05 533.56 377.06 533.46 377.08 533.43 377.09 533.37 377.1 533.2 377.14 533.19 377.14 533.18 377.14 533.14 377.15 533.04 377.17 533.03 377.18 532.95 377.19 532.94 377.2 532.85 377.21 532.83 377.22 532.79 377.23 532.71 377.25 532.7 377.25 532.65 377.27 532.63 377.25 532.6 377.24 532.56 377.22 532.55 377.21 532.51 377.2 532.51 377.19 532.49 377.19 532.43 377.15 532.42 377.15 532.38 377.11 532.33 377.07 532.32 377.07 532.31 377.06 532.27 377.03 532.16 376.95 532.15 376.94 532.14 376.93 532.13 376.92 532.04 376.85 531.94 376.77 531.94 376.77 531.89 376.74 531.87 376.73 531.87 376.73 531.79 376.71 531.72 376.67 531.62 376.63 531.56 376.6 531.5 376.58 531.37 376.53 531.23 376.45 531.22 376.44 531.19 376.43 531.17 376.42 531.09 376.41 531.04 376.39 530.97 376.38 530.89 376.36 530.85 376.35 530.78 376.33 530.62 376.28 530.47 376.22 530.42 376.21 530.42 376.2 530.4 376.19 530.38 376.16 530.33 376.06 530.27 375.95 530.22 375.86 530.16 375.79 530.11 375.73 530.08 375.7 529.99 375.67 529.9 375.62 529.84 375.59 529.8 375.54 529.77 375.5 529.76 375.49 529.75 375.48 529.72 375.49 529.62 375.53 529.54 375.57 529.5 375.59 529.46 375.64 529.41 375.69 529.35 375.73 529.31 375.75 529.29 375.76 529.24 375.8 529.18 375.86 529.11 375.92 529.05 375.97 529.02 376 529.01 376.01 528.98 376.03 528.95 376.04 528.95 376.04 528.92 376.04 528.91 376.03 528.87 376.03 528.75 376.01 528.67 375.99 528.65 375.99 528.62 375.98 528.61 375.98 528.54 375.97 528.46 375.94 528.39 375.91 528.37 375.9 528.32 375.89 528.31 375.88 528.24 375.85 528.22 375.82 528.21 375.81 528.2 375.81 528.15 375.76 528.09 375.71 528.06 375.65 528.05 375.63 528.05 375.61 528.04 375.59 528.04 375.57 528.03 375.56 527.95 375.28 527.9 375.11 527.84 374.87 527.83 374.85 527.82 374.81 527.82 374.79 527.81 374.78 527.81 374.76 527.8 374.74 527.79 374.72 527.79 374.71 527.78 374.69 527.78 374.67 527.77 374.65 527.77 374.63 527.76 374.62 527.76 374.6 527.75 374.58 527.75 374.57 527.75 374.56 527.75 374.55 527.74 374.54 527.73 374.51 527.73 374.48 527.72 374.46 527.72 374.45 527.71 374.43 527.71 374.42 527.7 374.4 527.7 374.38 527.7 374.37 527.69 374.35 527.68 374.34 527.68 374.32 527.67 374.31 527.67 374.3 527.67 374.28 527.66 374.27 527.66 374.25 527.65 374.23 527.64 374.22 527.63 374.2 527.63 374.19 527.62 374.17 527.61 374.16 527.61 374.15 527.6 374.14 527.59 374.12 527.58 374.1 527.57 374.08 527.56 374.06 527.55 374.04 527.54 374.03 527.54 374.02 527.52 374 527.52 373.99 527.5 373.98 527.49 373.95 527.48 373.93 527.47 373.92 527.46 373.9 527.45 373.89 527.45 373.88 527.44 373.86 527.42 373.85 527.42 373.83 527.41 373.82 527.4 373.8 527.39 373.78 527.38 373.77 527.37 373.76 527.36 373.74 527.36 373.73 527.35 373.72 527.34 373.7 527.34 373.68 527.33 373.67 527.33 373.66 527.32 373.64 527.32 373.62 527.31 373.61 527.31 373.6 527.3 373.58 527.3 373.56 527.29 373.53 527.29 373.52 527.28 373.5 527.28 373.49 527.27 373.48 527.27 373.46 527.26 373.44 527.26 373.42 527.26 373.41 527.25 373.4 527.25 373.38 527.25 373.37 527.26 373.36 527.27 373.34 527.27 373.32 527.27 373.31 527.27 373.3 527.28 373.28 527.28 373.27 527.28 373.26 527.28 373.25 527.28 373.23 527.29 373.22 527.29 373.21 527.29 373.2 527.29 373.19 527.29 373.17 527.3 373.16 527.3 373.15 527.3 373.13 527.3 373.12 527.3 373.1 527.3 373.09 527.3 373.06 527.3 373.04 527.3 373.02 527.3 373.01 527.29 373 527.29 372.99 527.29 372.97 527.3 372.89 527.3 372.84 527.32 372.77 527.34 372.72 527.37 372.64 527.38 372.6 527.39 372.58 527.42 372.52 527.45 372.45 527.45 372.39 527.46 372.35 527.46 372.34 527.47 372.28 527.47 372.26 527.48 372.23 527.49 372.21 527.53 372.18 527.56 372.15 527.58 372.12 527.61 372.08 527.63 372.07 527.66 372.01 527.75 372.01 527.85 371.99 527.94 371.97 528.05 371.95 528.08 371.94 528.12 371.94 528.15 371.94 528.23 371.93 528.29 371.93 528.35 371.79 528.37 371.75 528.43 371.59 528.48 371.48 528.53 371.38 528.64 371.14 528.66 371.07 528.76 370.85 528.83 370.69 528.84 370.65 528.85 370.62 528.86 370.59 528.87 370.56 528.92 370.43 528.95 370.34 528.97 370.31 528.97 370.29 529.01 370.19 529.03 370.12 529.07 370.02 529.07 370.01 529.09 369.97 529.12 369.9 529.14 369.84 529.16 369.78 529.23 369.68 529.31 369.57 529.37 369.47 529.4 369.43 529.42 369.4 529.43 369.37 529.45 369.36 529.5 369.28 529.59 369.13 529.64 369.07 529.68 369.01 529.76 369.01 529.84 369.01 530.2 369.01 530.26 369.02 530.27 369.02 530.28 369.02 530.31 369.02 530.38 369.02 530.42 369.02 530.45 369.02 530.47 369.02 530.51 369.02 530.62 369.02 530.7 369.02 530.75 369.02 530.78 369.02 530.79 369.02 530.85 369.02 530.86 369.02 530.9 369.02 530.93 369.02 530.99 369.02 531.04 369.02 531.12 369 531.16 368.98 531.24 368.96 531.26 368.96 531.28 368.95 531.36 368.91 531.46 368.88 531.48 368.88 531.5 368.87 531.52 368.86 531.53 368.86 531.56 368.84 531.59 368.82 531.63 368.8 531.7 368.76 531.8 368.7 531.93 368.63 532.04 368.63 532.11 368.63 532.19 368.63 532.22 368.63 532.29 368.63 532.47 368.61 532.51 368.6 532.54 368.6 532.67 368.56 532.69 368.56 532.74 368.54 532.76 368.53 532.85 368.5 532.87 368.5 533.06 368.44 533.27 368.38 533.38 368.35 533.47 368.32 533.58 368.29 533.69 368.28 Z"/>
</g></svg>