<svg xmlns="http://www.w3.org/2000/svg" version="1.2" baseProfile="tiny" stroke-linecap="round" stroke-linejoin="round" viewBox="495.07 279.48 11.62 9.58"><g xmlns="http://www.w3.org/2000/svg" id="Orkoien">
<path d="M 504.31 281.31 504.23 281.38 504.15 281.44 504.08 281.49 504 281.55 503.93 281.59 503.85 281.64 503.89 281.7 503.94 281.79 504.24 282.28 504.3 282.6 504.31 282.66 504.46 282.64 504.47 282.65 504.48 282.67 504.5 282.72 504.52 282.77 504.54 282.81 504.56 282.86 504.57 282.92 504.58 283 504.59 283.07 504.61 283.12 504.62 283.12 504.72 283.16 504.76 283.17 504.8 283.18 504.83 283.2 505.04 283.38 505.1 283.43 505.17 283.33 505.29 283.38 505.31 283.39 505.34 283.42 505.74 283.58 505.79 283.61 505.95 283.67 505.96 283.68 506.12 283.74 506.2 283.78 506.17 283.87 506.13 283.97 506.1 284.05 506.07 284.11 506.05 284.17 506.04 284.23 506.02 284.27 506.01 284.3 505.99 284.36 505.98 284.4 505.97 284.45 505.96 284.49 505.94 284.54 505.93 284.6 505.93 284.61 505.92 284.63 505.92 284.64 505.92 284.65 505.92 284.67 505.81 286.04 505.8 286.21 505.81 286.21 505.83 286.21 505.85 286.22 505.86 286.22 505.87 286.22 505.89 286.22 505.9 286.23 505.91 286.23 505.92 286.23 505.94 286.24 505.96 286.24 505.97 286.25 505.99 286.25 506 286.26 506.01 286.26 506.03 286.26 506.04 286.27 506.06 286.28 506.08 286.28 506.1 286.29 506.45 286.43 506.55 286.47 506.63 286.5 506.63 286.51 506.63 286.54 506.63 286.55 506.63 286.58 506.64 286.63 506.65 286.66 506.65 286.67 506.66 286.71 506.65 286.73 506.64 286.75 506.61 286.79 506.57 286.84 506.52 286.89 506.5 286.91 506.48 286.94 506.44 286.98 506.39 287.02 506.27 287.1 506.2 287.14 506.16 287.16 506.08 287.22 506.03 287.25 506.02 287.28 505.96 287.47 505.96 287.5 505.91 287.67 505.91 287.69 505.85 287.88 505.81 287.85 505.73 287.81 505.72 287.82 505.7 287.84 505.69 287.85 505.66 287.89 505.59 287.98 505.55 288.02 505.51 288.09 505.38 288.29 505.3 288.4 505.25 288.48 505.12 288.66 505.08 288.72 505.08 288.75 505.08 288.76 505.08 288.79 505.09 288.8 505.09 288.82 505.1 288.84 505.1 288.86 505.11 288.89 505.05 288.9 505.03 288.91 504.96 288.93 504.9 288.95 504.89 288.95 504.76 288.99 504.75 288.99 504.72 289 504.59 289.05 504.45 289.01 504.43 289 504.38 288.99 504.34 288.97 504.3 288.96 504.13 288.92 504.04 288.89 503.7 288.81 503.59 288.78 503.53 288.76 503.3 288.7 503.22 288.68 503.2 288.67 503.18 288.67 503.14 288.65 503.03 288.63 502.99 288.62 502.97 288.62 502.79 288.67 502.42 288.76 502.41 288.76 502.13 288.84 502.1 288.85 502.01 288.83 501.99 288.83 501.88 288.82 501.61 288.79 501.6 288.79 501.56 288.79 501.46 288.78 501.41 288.78 501.29 288.76 501.19 288.75 500.97 288.72 500.76 288.69 500.72 288.69 500.63 288.68 500.57 288.67 500.41 288.65 500.34 288.63 500.19 288.49 500.14 288.44 500.09 288.4 499.9 288.23 499.8 288.14 499.72 288.07 499.53 287.91 499.5 287.89 499.13 287.61 499.13 287.6 498.95 287.47 498.94 287.46 498.92 287.44 498.91 287.44 498.83 287.37 498.8 287.33 498.77 287.31 498.76 287.31 498.72 287.3 498.63 287.3 498.48 287.28 498.47 287.28 498.45 287.28 498.44 287.27 498.41 287.27 498.4 287.27 498.38 287.27 498.29 287.26 498.27 287.26 498.09 287.24 498 287.23 497.96 287.23 497.89 287.22 497.72 287.21 497.71 287.21 497.69 287.21 497.68 287.16 497.69 287.12 497.69 287.1 497.7 287 497.7 286.88 497.71 286.78 497.71 286.76 497.71 286.74 497.7 286.71 497.59 286.6 497.45 286.46 497.4 286.4 497.38 286.39 497.35 286.37 497.24 286.31 497.19 286.28 497.18 286.28 496.85 286.1 496.83 286.09 496.82 286.09 496.81 286.08 496.65 285.99 496.47 285.88 496.39 285.84 496.38 285.84 496.32 285.8 496.18 285.74 496.06 285.69 496.05 285.69 496.04 285.68 495.69 285.54 495.39 285.42 495.32 285.39 495.2 285.34 495.15 285.31 495.14 285.29 495.14 285.25 495.13 285.19 495.13 285.07 495.14 284.97 495.14 284.93 495.12 284.82 495.11 284.77 495.1 284.73 495.1 284.72 495.08 284.62 495.07 284.51 495.07 284.48 495.08 284.45 495.09 284.44 495.11 284.41 495.2 284.25 495.27 284.13 495.27 284.13 495.31 284.05 495.34 284 495.36 283.99 495.39 283.95 495.48 283.85 495.49 283.83 495.52 283.8 495.59 283.69 495.69 283.54 495.77 283.4 495.78 283.39 495.79 283.38 495.8 283.36 495.95 283.17 495.99 283.11 496 283.09 496.01 283.08 496.03 283.04 496.09 282.93 496.11 282.9 496.12 282.88 496.19 282.74 496.22 282.69 496.22 282.67 496.22 282.65 496.23 282.57 496.24 282.38 496.26 282.16 496.26 282.07 496.27 282 496.27 281.96 496.41 281.85 496.43 281.83 496.46 281.81 496.49 281.79 496.55 281.74 496.57 281.72 496.58 281.7 496.58 281.68 496.49 281.58 496.43 281.49 496.42 281.48 496.34 281.36 496.26 281.26 496.24 281.22 496.27 281.2 496.29 281.19 496.3 281.18 496.36 281.14 496.45 281.08 496.51 281.04 496.56 281.02 496.62 281.01 496.67 281 496.75 281 496.84 281 496.9 281.02 496.94 281.02 496.98 281.03 496.99 281.02 497 281.02 497.05 281.11 497.11 281.2 497.14 281.28 497.19 281.3 497.2 281.28 497.2 281.24 497.21 281.15 497.22 281.08 497.23 281.01 497.28 281.03 497.33 281.03 497.38 281.04 497.42 281.03 497.48 281.04 497.55 281.05 497.61 281.06 497.57 281.1 497.55 281.15 497.54 281.18 497.53 281.2 497.5 281.31 497.49 281.34 497.49 281.38 497.48 281.41 497.48 281.47 497.49 281.53 497.5 281.59 497.52 281.65 497.54 281.73 497.58 281.83 497.61 281.89 497.65 281.98 497.71 282.12 498.34 281.97 498.59 281.9 498.57 281.8 498.56 281.73 498.86 281.67 498.87 281.67 498.9 281.67 499.11 281.62 499.26 281.58 499.26 281.55 499.24 281.46 499.23 281.37 499.29 281.34 499.44 281.29 499.51 281.26 499.54 281.25 499.54 281.25 499.57 281.23 499.61 281.18 499.67 281.09 499.68 281.06 499.68 281.03 499.66 280.95 499.64 280.89 499.65 280.85 499.68 280.81 499.71 280.78 499.75 280.76 499.79 280.75 499.85 280.77 499.9 280.79 499.96 280.79 500 280.78 500.03 280.75 500.03 280.72 500.02 280.68 500 280.65 499.98 280.6 499.96 280.55 499.98 280.5 500.02 280.44 500.06 280.41 500.11 280.4 500.15 280.37 500.19 280.35 500.23 280.33 500.27 280.3 500.29 280.27 500.31 280.22 500.31 280.17 500.32 280.1 500.34 280.03 500.36 279.97 500.39 279.93 500.41 279.9 500.42 279.89 500.46 279.85 500.5 279.83 500.57 279.82 500.62 279.8 500.66 279.77 500.69 279.73 500.7 279.65 500.71 279.57 500.72 279.51 500.72 279.49 500.77 279.51 500.78 279.52 500.84 279.56 500.87 279.58 500.99 279.65 501.02 279.66 501.1 279.71 501.13 279.72 501.15 279.73 501.24 279.78 501.28 279.79 501.3 279.8 501.34 279.8 501.36 279.8 501.44 279.81 501.51 279.82 501.64 279.83 501.7 279.83 501.75 279.84 501.9 279.88 502.07 279.93 502.1 279.93 502.14 279.94 502.29 279.98 502.44 280.04 502.58 280.1 502.7 280.15 502.73 280.16 502.95 280.26 503.06 280.31 503.11 280.33 503.14 280.34 503.26 280.39 503.3 280.4 503.31 280.4 503.32 280.4 503.39 280.42 503.48 280.44 503.54 280.46 503.62 280.48 503.67 280.49 503.71 280.5 503.8 280.52 503.81 280.55 503.85 280.64 503.9 280.74 503.91 280.76 503.92 280.77 504.09 281.13 504.15 281.26 504.17 281.27 504.19 281.28 504.22 281.28 504.24 281.29 504.26 281.3 504.3 281.31 504.31 281.31 Z"/>
</g></svg>