<svg xmlns="http://www.w3.org/2000/svg" version="1.2" baseProfile="tiny" stroke-linecap="round" stroke-linejoin="round" viewBox="337.75 196 11.85 12.77"><g xmlns="http://www.w3.org/2000/svg" id="Ormaiztegi">
<path d="M 340.38 197.74 340.38 197.73 340.38 197.72 340.38 197.7 340.38 197.68 340.39 197.64 340.4 197.63 340.43 197.62 340.45 197.61 340.46 197.61 340.47 197.6 340.48 197.6 340.49 197.59 340.49 197.58 340.5 197.55 340.55 197.48 340.57 197.44 340.6 197.37 340.64 197.24 340.66 197.21 340.67 197.19 340.68 197.18 340.71 197.17 340.74 197.16 340.75 197.14 340.76 197.13 340.76 197.11 340.76 197.09 340.74 197.06 340.73 197.03 340.73 197.01 340.74 196.99 340.78 196.94 340.79 196.92 340.79 196.91 340.8 196.89 340.81 196.87 340.82 196.84 340.84 196.79 340.86 196.75 340.87 196.74 340.89 196.72 340.92 196.71 340.93 196.69 340.94 196.68 340.97 196.66 340.99 196.64 341.02 196.6 341.03 196.57 341.04 196.55 341.05 196.53 341.09 196.5 341.12 196.47 341.17 196.45 341.21 196.43 341.23 196.43 341.25 196.42 341.27 196.43 341.32 196.42 341.37 196.41 341.42 196.4 341.45 196.38 341.48 196.36 341.49 196.34 341.5 196.32 341.52 196.3 341.54 196.28 341.55 196.26 341.56 196.25 341.58 196.25 341.61 196.25 341.66 196.26 341.69 196.27 341.72 196.28 341.76 196.28 341.79 196.29 341.81 196.3 341.84 196.31 341.86 196.33 341.89 196.34 341.91 196.35 341.93 196.35 341.96 196.35 342 196.35 342.04 196.34 342.07 196.34 342.09 196.33 342.12 196.32 342.15 196.31 342.19 196.3 342.22 196.3 342.25 196.3 342.28 196.3 342.33 196.3 342.36 196.3 342.41 196.3 342.45 196.3 342.49 196.3 342.52 196.31 342.55 196.3 342.6 196.3 342.63 196.3 342.67 196.3 342.71 196.3 342.72 196.28 342.75 196.28 342.78 196.27 342.84 196.26 342.87 196.25 342.92 196.25 342.96 196.24 343 196.23 343.03 196.23 343.07 196.22 343.09 196.22 343.14 196.21 343.16 196.2 343.18 196.19 343.2 196.18 343.23 196.16 343.28 196.13 343.32 196.1 343.37 196.08 343.41 196.06 343.43 196.04 343.46 196.02 343.53 196.01 343.57 196.01 343.61 196.01 343.64 196.01 343.68 196.02 343.73 196.02 343.77 196.02 343.78 196.02 343.81 196.02 343.85 196.01 343.89 196.01 343.92 196.01 344.95 196.25 345.05 196.54 345.09 196.69 345.13 196.84 345.13 196.9 345.15 197.04 345.17 197.16 345.22 197.28 345.25 197.32 345.29 197.37 345.34 197.45 345.39 197.53 345.44 197.57 345.45 197.58 345.46 197.59 345.47 197.6 345.49 197.61 345.5 197.62 345.51 197.63 345.52 197.64 345.53 197.65 345.54 197.67 345.55 197.68 345.56 197.68 345.57 197.69 345.58 197.7 345.59 197.71 345.6 197.71 345.61 197.72 345.62 197.73 345.63 197.74 345.65 197.74 345.66 197.75 345.67 197.75 345.68 197.76 345.69 197.76 345.7 197.77 345.7 197.77 345.71 197.78 345.72 197.78 345.72 197.79 345.73 197.79 345.73 197.8 345.73 197.81 345.73 197.82 345.73 197.83 345.73 197.84 345.73 197.85 345.73 197.86 345.73 197.87 345.73 197.88 345.73 197.89 345.72 197.9 345.71 197.91 345.71 197.93 345.7 197.94 345.7 197.95 345.7 197.96 345.7 197.96 345.7 197.98 345.7 197.99 345.69 198 345.69 198.01 345.69 198.02 345.69 198.03 345.69 198.04 345.69 198.05 345.69 198.06 345.69 198.07 345.7 198.08 345.7 198.09 345.7 198.1 345.7 198.12 345.7 198.13 345.7 198.14 345.7 198.15 345.7 198.17 345.7 198.18 345.7 198.19 345.7 198.2 345.7 198.21 345.7 198.23 345.69 198.25 345.69 198.27 345.69 198.28 345.69 198.29 345.69 198.3 345.7 198.3 345.7 198.31 345.7 198.32 345.71 198.32 345.71 198.33 345.72 198.33 345.73 198.34 345.74 198.34 345.76 198.35 345.78 198.35 345.79 198.36 345.8 198.37 345.82 198.37 345.83 198.38 345.85 198.38 345.86 198.39 345.9 198.4 345.94 198.42 345.98 198.43 346.01 198.45 346.1 199.45 346.1 199.47 346.12 199.54 346.13 199.58 346.16 199.63 346.16 199.65 346.18 199.72 346.21 199.78 346.23 199.84 346.24 199.85 346.26 199.9 346.29 200.05 346.32 200.19 346.34 200.27 346.36 200.32 346.36 200.35 346.36 200.37 346.35 200.4 346.34 200.43 346.34 200.46 346.34 200.49 346.34 200.51 346.46 200.75 346.49 200.78 346.5 200.8 346.51 200.82 346.54 200.83 346.57 200.81 346.6 200.8 346.64 200.78 346.69 200.79 346.7 200.79 346.75 200.81 346.78 200.83 346.81 200.85 346.83 200.87 346.86 200.89 346.88 200.91 346.9 200.92 346.91 200.92 346.93 200.92 346.94 200.92 346.98 200.91 347.02 200.9 347.06 200.9 347.09 200.89 347.11 200.88 347.13 200.88 347.16 200.88 347.18 200.88 347.21 200.9 347.23 200.91 347.26 200.93 347.27 200.94 347.29 200.97 347.32 201 347.34 201.02 347.36 201.03 347.4 201.04 347.45 201.05 347.51 201.05 347.53 201.06 347.54 201.07 347.57 201.08 347.61 201.1 347.68 201.13 347.73 201.15 347.75 201.16 347.77 201.16 347.8 201.15 347.82 201.14 347.82 201.2 347.81 201.27 347.81 201.28 347.81 201.31 347.81 201.35 347.8 201.38 347.8 201.41 347.8 201.44 347.8 201.48 347.81 201.52 347.83 201.58 347.84 201.63 347.86 201.69 347.87 201.76 347.89 201.81 347.92 201.87 347.95 201.92 347.98 201.96 348.03 202.01 348.07 202.04 348.2 202.12 348.3 202.14 348.4 202.17 348.44 202.18 348.45 202.18 348.53 202.21 348.61 202.24 348.73 202.31 348.8 202.35 348.87 202.38 348.94 202.42 349.01 202.47 349.05 202.5 349.09 202.55 349.14 202.6 349.21 202.66 349.26 202.7 349.38 202.82 349.45 202.88 349.53 202.94 349.57 202.95 349.4 204.66 348.79 204.69 348.03 205.05 347.56 205.67 347.06 205.71 346.85 206.09 346.54 205.76 346 205.88 345.38 206.03 345.39 206.09 345.38 206.19 345.36 206.25 345.32 206.31 345.28 206.37 345.24 206.43 345.19 206.52 345.13 206.6 345.1 206.67 345.09 206.76 345.1 206.82 345.1 206.91 345.11 206.94 345.11 206.99 345.11 207.04 345.1 207.12 345.09 207.14 345.05 207.19 345.04 207.22 344.78 207.69 344.65 208.09 344.63 208.18 344.62 208.27 344.58 208.46 344.56 208.58 344.55 208.76 344.53 208.74 344.45 208.66 344.37 208.58 344.31 208.53 344.25 208.52 344.16 208.5 344.04 208.5 343.98 208.5 343.92 208.47 343.88 208.46 343.81 208.39 343.8 208.38 343.8 208.37 343.79 208.37 343.78 208.36 343.77 208.35 343.76 208.35 343.75 208.34 343.74 208.34 343.73 208.34 343.72 208.33 343.71 208.32 343.71 208.32 343.7 208.31 343.69 208.3 343.69 208.29 343.68 208.28 343.68 208.27 343.67 208.26 343.66 208.25 343.65 208.24 343.65 208.23 343.64 208.22 343.63 208.22 343.62 208.21 343.62 208.21 343.61 208.21 343.6 208.2 343.6 208.2 343.59 208.2 343.58 208.19 343.57 208.19 343.57 208.19 343.46 208.16 343.3 208.14 343.18 208.1 343.17 208.1 343.16 208.1 343.15 208.1 343.14 208.1 343.13 208.1 343.12 208.1 343.11 208.1 343.1 208.1 343.09 208.09 343.08 208.09 343.07 208.09 343.06 208.09 343.04 208.09 343.03 208.09 343.02 208.1 343 208.1 343 208.1 342.99 208.09 342.98 208.09 342.97 208.09 342.97 208.08 342.96 208.08 342.96 208.07 342.95 208.06 342.95 208.06 342.94 208.05 342.94 208.04 342.94 208.04 342.93 208.03 342.93 208.02 342.92 208.01 342.91 207.99 342.9 207.99 342.89 207.98 342.88 207.97 342.87 207.96 342.86 207.96 342.85 207.95 342.85 207.95 342.84 207.95 342.83 207.94 342.77 207.92 342.72 207.91 342.71 207.9 342.65 207.88 342.64 207.87 342.63 207.87 342.61 207.86 342.6 207.86 342.59 207.85 342.57 207.85 342.56 207.84 342.55 207.84 342.53 207.83 342.52 207.83 342.51 207.83 342.49 207.82 342.47 207.82 342.46 207.82 342.45 207.81 342.44 207.8 342.43 207.79 342.42 207.79 342.41 207.78 342.4 207.76 342.39 207.75 342.38 207.74 342.37 207.72 342.36 207.71 342.35 207.69 342.34 207.68 342.33 207.66 342.32 207.65 342.28 207.56 342.22 207.47 342.21 207.46 342.15 207.38 342.09 207.33 341.99 207.22 341.91 207.12 341.82 207.01 341.79 206.97 341.78 206.96 341.78 206.95 341.77 206.94 341.77 206.93 341.76 206.92 341.75 206.91 341.74 206.9 341.74 206.89 341.73 206.88 341.72 206.87 341.71 206.86 341.71 206.85 341.7 206.84 341.69 206.84 341.68 206.83 341.68 206.83 341.67 206.82 341.66 206.82 341.66 206.81 341.65 206.81 341.64 206.81 341.64 206.8 341.63 206.8 341.62 206.8 341.61 206.79 341.6 206.79 341.6 206.79 341.59 206.79 341.58 206.78 341.57 206.78 341.56 206.78 341.56 206.78 341.55 206.78 341.54 206.78 341.53 206.78 341.52 206.78 341.52 206.78 341.51 206.78 341.35 206.78 341.21 206.79 340.8 206.72 340.78 206.68 340.76 206.64 340.75 206.6 340.73 206.56 340.72 206.5 340.66 206.2 340.62 205.99 340.56 205.88 340.49 205.79 340.4 205.66 340.36 205.54 340.33 205.41 340.33 205.32 340.32 205.26 340.3 205.14 340.28 205.05 340.26 205.03 340.21 205.04 340.11 205.03 339.98 205.01 339.8 204.98 339.69 204.95 339.6 204.88 339.57 204.81 339.45 204.7 339.31 204.56 339.13 204.42 339.01 204.29 339 204.23 338.91 204.01 338.9 204.01 338.87 204.02 338.85 204.02 338.83 204.03 338.81 204.03 338.75 204.04 338.72 204.04 338.7 204.04 338.61 204.04 338.56 204.04 338.49 204.05 338.42 204.03 338.37 204.01 338.33 203.98 338.3 203.95 338.26 203.93 338.2 203.91 338.14 203.91 338.12 203.9 338.07 203.89 338.03 203.88 337.99 203.85 337.98 203.81 337.97 203.76 337.97 203.74 337.95 203.71 337.92 203.65 337.9 203.62 337.89 203.61 337.87 203.57 337.84 203.53 337.81 203.49 337.78 203.47 337.75 203.45 337.82 202.72 337.96 202.33 339.05 200.38 339.45 199.32 339.67 198.89 339.66 198.55 339.75 198.53 339.8 198.51 339.86 198.49 339.89 198.48 339.94 198.44 339.98 198.42 340.04 198.4 340.11 198.37 340.17 198.35 340.2 198.36 340.22 198.36 340.23 198.35 340.24 198.35 340.25 198.35 340.27 198.35 340.28 198.35 340.29 198.35 340.3 198.34 340.32 198.34 340.34 198.34 340.35 198.34 340.37 198.34 340.38 198.34 340.4 198.33 340.41 198.33 340.44 198.33 340.45 198.33 340.47 198.33 340.49 198.33 340.51 198.33 340.53 198.33 340.54 198.33 340.56 198.33 340.57 198.33 340.58 198.33 340.59 198.29 340.6 198.26 340.61 198.22 340.62 198.19 340.62 198.17 340.62 198.13 340.62 198.1 340.61 198.07 340.6 198.04 340.6 198.03 340.59 197.99 340.54 197.89 340.53 197.88 340.51 197.86 340.49 197.84 340.46 197.82 340.39 197.75 340.38 197.74 Z"/>
</g></svg>