<svg xmlns="http://www.w3.org/2000/svg" version="1.2" baseProfile="tiny" stroke-linecap="round" stroke-linejoin="round" viewBox="668.28 256.25 30.25 11.3"><g xmlns="http://www.w3.org/2000/svg" id="Orontze">
<path d="M 698.35 263.37 698.38 263.43 698.46 263.63 698.49 263.72 698.53 263.82 698.23 263.72 697.99 263.64 697.54 263.49 697.5 263.48 697.42 263.45 697.4 263.44 697.36 263.43 697.33 263.4 697.31 263.38 697.31 263.37 697.29 263.35 697.22 263.25 697.09 263.02 697.01 262.9 696.98 262.84 696.96 262.81 696.79 262.6 696.56 262.51 696.46 262.47 696.27 262.4 696.16 262.37 696.06 262.36 695.98 262.34 695.88 262.33 695.77 262.3 695.71 262.28 695.66 262.27 695.62 262.26 695.55 262.23 695.4 262.19 695.16 262.1 694.69 261.94 694.51 261.9 694.42 261.88 694.4 261.88 694.37 261.88 694.34 261.87 694.32 261.87 694.28 261.86 694.24 261.85 693.94 261.79 693.87 261.77 693.85 261.77 693.83 261.77 693.81 261.76 693.8 261.76 693.75 261.74 693.68 261.72 693.6 261.69 693.44 261.63 693.34 261.59 693.25 261.56 693.23 261.55 693.19 261.54 693.15 261.52 693.04 261.47 693.02 261.47 692.88 261.41 692.84 261.39 692.82 261.38 692.7 261.32 692.66 261.29 692.63 261.28 692.54 261.25 692.44 261.2 692.4 261.18 692.38 261.17 692.37 261.17 692.36 261.17 692.32 261.18 692.28 261.18 692.26 261.19 692.16 261.2 692.04 261.21 691.98 261.21 691.87 261.23 691.77 261.25 691.68 261.26 691.62 261.26 691.59 261.25 691.57 261.25 691.54 261.25 691.5 261.23 691.42 261.19 691.34 261.15 691.31 261.13 691.29 261.13 691.28 261.12 691.15 261.09 691.07 261.07 690.99 261.05 690.96 261.04 690.93 261.03 690.9 261.03 690.82 261.04 690.8 261.04 690.79 261.04 690.78 261.03 690.76 261.03 690.7 261 690.62 260.97 690.54 260.92 690.48 260.89 690.41 260.86 690.38 260.84 690.36 260.83 690.35 260.81 690.33 260.79 690.32 260.77 690.31 260.76 690.3 260.75 690.29 260.75 690.29 260.74 690.28 260.74 690.27 260.74 690.25 260.74 690.22 260.74 690.19 260.75 690.15 260.75 690.12 260.75 690.08 260.75 690.02 260.74 689.98 260.74 689.96 260.74 689.9 260.74 689.79 260.75 689.63 260.76 689.6 260.77 689.56 260.78 689.53 260.79 689.47 260.8 689.33 260.82 689.29 260.83 689.24 260.84 689.21 260.85 689.11 260.88 689.05 260.9 689.01 260.92 688.99 260.93 688.96 260.95 688.82 261.04 688.79 261.06 688.77 261.06 688.74 261.08 688.71 261.09 688.7 261.1 688.68 261.12 688.65 261.14 688.64 261.15 688.63 261.16 688.62 261.17 688.6 261.19 688.5 261.25 688.45 261.28 688.43 261.29 688.42 261.31 688.42 261.32 688.41 261.33 688.4 261.34 688.4 261.35 688.4 261.37 688.39 261.39 688.39 261.41 688.4 261.44 688.41 261.48 688.42 261.52 688.42 261.54 688.42 261.55 688.42 261.56 688.42 261.57 688.42 261.58 688.4 261.6 688.36 261.67 688.33 261.7 688.32 261.71 688.28 261.75 688.22 261.8 688.2 261.81 688.17 261.82 688.1 261.85 688.01 261.87 688 261.88 687.99 261.88 687.98 261.89 687.94 261.91 687.78 261.99 687.61 262.06 687.57 262.09 687.56 262.1 687.55 262.11 687.55 262.12 687.54 262.18 687.54 262.19 687.54 262.2 687.5 262.42 687.15 262.69 687.1 262.86 687.06 263.02 687.03 263.1 687.02 263.12 687.01 263.14 686.99 263.16 686.96 263.17 686.93 263.19 686.89 263.21 686.87 263.21 686.85 263.22 686.84 263.23 686.82 263.25 686.81 263.27 686.8 263.29 686.78 263.33 686.77 263.37 686.77 263.39 686.77 263.45 686.77 263.47 686.76 263.5 686.75 263.55 686.74 263.61 686.74 263.62 686.73 263.65 686.71 263.68 686.69 263.68 686.68 263.68 686.47 263.68 686.4 263.83 686.13 263.8 686.08 263.85 686.06 263.86 685.91 264.01 685.78 264.13 685.74 264.36 685.66 264.34 685.64 264.33 685.62 264.33 685.61 264.32 685.58 264.32 685.55 264.32 685.52 264.31 685.48 264.31 685.31 264.28 685.29 264.28 685.27 264.28 685.25 264.28 685.22 264.28 685.19 264.28 685.17 264.27 685.15 264.26 685.04 264.23 684.96 264.2 684.74 264.19 684.55 264.18 684.32 264.17 684.23 264.17 684.21 264.17 683.92 264.16 683.76 264.16 683.62 264.15 683.54 264.15 683.52 264.17 683.37 264.35 683.36 264.36 683.3 264.44 683.18 264.6 683.16 264.63 683.3 264.77 683.23 264.91 683.17 265.03 683.11 265.14 683.06 265.15 682.97 265.2 682.89 265.23 682.79 265.28 682.69 265.32 682.63 265.35 682.48 265.43 682.36 265.49 682.25 265.55 682.13 265.6 681.99 265.66 681.97 265.67 681.93 265.69 681.91 265.7 681.88 265.7 681.8 265.72 681.64 265.75 681.62 265.75 681.56 265.76 681.37 265.79 681.21 265.95 681.01 266.14 680.74 266.39 680.72 266.4 680.69 266.37 680.62 266.27 680.56 266.2 680.54 266.17 680.52 266.14 680.5 266.13 680.41 266.04 680.34 265.97 680.23 265.87 680.12 265.76 680.02 265.65 679.97 265.6 679.96 265.58 679.93 265.55 679.92 265.54 679.83 265.57 679.78 265.58 679.73 265.6 679.69 265.62 679.66 265.64 679.62 265.66 679.58 265.69 679.51 265.74 679.44 265.79 679.4 265.83 679.36 265.86 679.32 265.89 679.28 265.93 679.22 265.97 679.19 265.99 679.16 266.01 679.13 266.03 679.1 266.05 679.08 266.07 679.05 266.09 679.01 266.13 678.97 266.18 678.92 266.24 678.89 266.28 678.8 266.38 678.7 266.48 678.6 266.58 678.56 266.62 678.54 266.64 678.52 266.66 678.49 266.71 678.45 266.78 678.44 266.81 678.41 266.86 678.37 266.96 678.33 267.02 678.28 267.11 678.22 267.23 678.16 267.32 678.14 267.36 678.13 267.38 678.12 267.39 678.11 267.4 678.1 267.41 678.08 267.42 678.06 267.42 678.04 267.43 678.02 267.44 677.99 267.45 677.87 267.47 677.73 267.5 677.55 267.52 677.46 267.54 677.38 267.55 677.36 267.55 677.34 267.55 677.33 267.54 677.31 267.54 677.3 267.53 677.24 267.49 677.11 267.42 677.02 267.37 677 267.36 676.97 267.34 676.92 267.3 676.89 267.28 676.87 267.27 676.86 267.27 676.82 267.25 676.77 267.23 676.74 267.22 676.72 267.21 676.71 267.19 676.69 267.18 676.68 267.17 676.67 267.17 676.65 267.16 676.64 267.16 676.57 267.15 676.48 267.14 676.39 267.13 676.29 267.11 676.21 267.09 676.13 267.06 676.12 267.05 676.11 267.05 676.1 267.04 676.08 267.01 676.06 266.99 676.06 266.98 676.04 266.98 676.03 266.97 676.02 266.97 675.99 266.97 675.96 266.97 675.9 266.99 675.83 266.99 675.8 266.99 675.78 266.99 675.76 266.99 675.73 266.98 675.72 266.98 675.71 266.97 675.68 266.95 675.65 266.93 675.61 266.9 675.6 266.89 675.58 266.88 675.57 266.88 675.54 266.87 675.5 266.87 675.48 266.86 675.39 266.81 675.37 266.81 675.25 266.76 675.15 266.71 675.07 266.71 674.96 266.69 674.93 266.69 674.83 266.68 674.66 266.65 674.53 266.63 674.33 266.56 674.17 266.5 674.13 266.34 674.11 266.28 674.07 266.17 674.06 266.14 673.99 266.09 673.89 266.01 673.84 265.98 673.8 265.95 673.72 265.88 673.65 265.84 673.59 265.79 673.57 265.78 673.55 265.77 673.53 265.77 673.5 265.76 673.42 265.73 673.33 265.7 673.18 265.66 673.16 265.65 673.11 265.63 673.07 265.61 673.05 265.59 673.02 265.57 673 265.56 672.98 265.54 672.96 265.52 672.94 265.51 672.93 265.49 672.91 265.47 672.89 265.44 672.87 265.41 672.83 265.35 672.82 265.33 672.79 265.3 672.76 265.25 672.72 265.19 672.7 265.17 672.68 265.15 672.66 265.12 672.63 265.08 672.61 265.04 672.58 265 672.54 264.95 672.51 264.91 672.47 264.85 672.45 264.82 672.43 264.8 672.41 264.78 672.39 264.75 672.36 264.73 672.33 264.71 672.31 264.7 672.3 264.69 672.26 264.66 672.2 264.64 672.19 264.63 672.16 264.62 672.13 264.62 672.11 264.62 672.08 264.61 672.03 264.61 671.98 264.6 671.95 264.59 671.93 264.59 671.9 264.59 671.88 264.59 671.86 264.58 671.83 264.59 671.81 264.59 671.76 264.6 671.72 264.62 671.7 264.63 671.67 264.64 671.65 264.65 671.59 264.67 671.56 264.68 671.53 264.69 671.51 264.7 671.49 264.7 671.47 264.71 671.45 264.71 671.42 264.71 671.37 264.71 671.34 264.7 671.29 264.7 671.25 264.7 671.22 264.71 671.21 264.71 671.2 264.71 671.17 264.72 671.14 264.72 671.12 264.73 671.08 264.74 671.03 264.76 670.97 264.78 670.96 264.78 670.92 264.79 670.89 264.79 670.85 264.79 670.81 264.79 670.77 264.78 670.7 264.78 670.63 264.76 670.56 264.75 670.55 264.75 670.46 264.73 670.42 264.72 670.38 264.7 670.33 264.68 670.31 264.67 670.28 264.63 670.25 264.6 670.21 264.57 670.2 264.54 670.19 264.53 670.17 264.5 670.15 264.45 670.15 264.44 670.15 264.42 670.13 264.38 670.12 264.34 670.12 264.31 670.12 264.28 670.11 264.26 670.13 264.17 670.13 264.14 670.14 264.12 670.14 264.11 670.14 264.06 670.15 264.02 670.15 263.99 670.08 263.98 670.05 263.97 670.01 263.97 669.94 263.98 669.88 263.97 669.82 263.97 669.8 263.97 669.78 263.97 669.76 263.96 669.74 263.95 669.72 263.94 669.69 263.93 669.66 263.91 669.64 263.89 669.61 263.87 669.57 263.83 669.53 263.8 669.51 263.78 669.48 263.76 669.47 263.74 669.46 263.74 669.45 263.74 669.44 263.73 669.43 263.72 669.42 263.72 669.4 263.71 669.38 263.7 669.35 263.69 668.94 263.55 668.87 263.53 668.62 263.48 668.63 263.46 668.64 263.45 668.65 263.44 668.65 263.42 668.65 263.4 668.66 263.39 668.66 263.36 668.66 263.33 668.67 263.27 668.66 263.21 668.67 263.16 668.67 263.11 668.68 263.08 668.68 263.06 668.68 263.04 668.68 263.03 668.69 263.02 668.69 263.01 668.7 263 668.71 262.99 668.75 262.96 668.76 262.94 668.77 262.93 668.76 262.92 668.74 262.89 668.73 262.88 668.72 262.87 668.7 262.86 668.69 262.85 668.67 262.84 668.66 262.82 668.65 262.81 668.64 262.79 668.63 262.76 668.63 262.74 668.62 262.73 668.61 262.71 668.59 262.68 668.57 262.66 668.57 262.64 668.55 262.62 668.53 262.59 668.51 262.56 668.5 262.53 668.49 262.52 668.49 262.49 668.49 262.46 668.48 262.43 668.48 262.41 668.47 262.38 668.47 262.35 668.46 262.3 668.45 262.25 668.45 262.23 668.45 262.22 668.45 262.21 668.45 262.2 668.45 262.19 668.45 262.18 668.46 262.17 668.46 262.16 668.47 262.15 668.48 262.14 668.49 262.13 668.52 262.11 668.53 262.09 668.55 262.08 668.57 262.06 668.6 262.03 668.61 262.02 668.61 262.01 668.62 262 668.62 261.99 668.63 261.98 668.63 261.97 668.63 261.96 668.64 261.94 668.65 261.89 668.65 261.83 668.66 261.76 668.66 261.73 668.65 261.72 668.65 261.71 668.64 261.71 668.63 261.71 668.57 261.71 668.46 261.71 668.42 261.71 668.39 261.71 668.37 261.71 668.35 261.71 668.34 261.7 668.32 261.69 668.31 261.68 668.33 261.61 668.37 261.5 668.42 261.36 668.52 261.37 668.56 261.38 668.58 261.38 668.61 261.38 668.63 261.37 668.65 261.37 668.7 261.36 668.78 261.34 668.87 261.32 668.94 261.31 668.96 261.3 668.97 261.3 668.98 261.3 669.01 261.28 669.08 261.25 669.14 261.22 669.19 261.2 669.27 261.16 669.36 261.1 669.39 261.09 669.45 261.05 669.51 261.01 669.56 260.98 669.68 260.92 669.75 260.88 669.79 260.86 669.82 260.85 669.85 260.84 669.87 260.83 669.89 260.82 669.92 260.8 670.02 260.73 670.14 260.64 670.25 260.57 670.32 260.52 670.38 260.49 670.4 260.47 670.47 260.43 670.52 260.4 670.58 260.38 670.65 260.35 670.68 260.34 670.72 260.32 670.74 260.32 670.76 260.31 670.81 260.3 670.9 260.29 670.93 260.28 670.96 260.28 671.02 260.27 671.11 260.25 671.14 260.25 671.16 260.24 671.24 260.23 671.33 260.21 671.35 260.2 671.37 260.2 671.39 260.2 671.4 260.2 671.42 260.2 671.44 260.2 671.45 260.21 671.48 260.21 671.51 260.23 671.53 260.23 671.53 260.23 671.56 260.23 671.58 260.24 671.6 260.24 671.63 260.24 671.64 260.24 671.67 260.23 671.69 260.23 671.74 260.22 671.82 260.2 671.96 260.16 672.06 260.13 672.12 260.11 672.19 260.1 672.26 260.08 672.33 260.07 672.4 260.06 672.45 260.05 672.51 260.04 672.56 260.04 672.6 260.03 672.62 260.03 672.64 260.03 672.67 260.03 672.69 260.04 672.71 260.04 672.75 260.05 672.8 260.06 672.85 260.07 672.89 260.08 672.9 260.08 672.9 260.08 672.95 260.1 672.95 260.1 672.99 260.11 673.09 260.13 673.1 260.14 673.17 260.16 673.26 260.19 673.28 260.2 673.33 260.22 673.39 260.25 673.44 260.27 673.51 260.3 673.56 260.31 673.61 260.33 673.65 260.34 673.72 260.35 673.77 260.37 673.82 260.38 673.85 260.39 673.88 260.39 673.92 260.39 673.97 260.39 674.05 260.39 674.15 260.39 674.16 260.39 674.22 260.39 674.29 260.39 674.31 260.39 674.33 260.39 674.34 260.39 674.41 260.41 674.47 260.42 674.53 260.43 674.67 260.46 674.87 260.5 674.98 260.52 675.13 260.55 675.24 260.57 675.41 260.6 675.44 260.61 675.59 260.64 675.75 260.67 676 260.75 676.19 260.89 676.32 260.93 676.37 260.95 676.5 260.99 676.51 261 676.62 261.04 676.76 261.08 676.86 261.12 676.91 261.14 676.99 261.16 677.01 261.17 677.03 261.18 677.1 261.2 677.16 261.22 677.34 261.22 677.5 261.21 677.68 261.21 677.87 261.2 678.06 261.2 678.3 260.99 678.41 260.89 678.51 260.77 678.57 260.69 678.9 260.77 679.04 260.56 679.09 260.52 679.12 260.5 679.14 260.49 679.15 260.48 679.17 260.47 679.18 260.47 679.2 260.46 679.21 260.46 679.22 260.45 679.23 260.45 679.24 260.45 679.26 260.45 679.27 260.45 679.28 260.45 679.29 260.45 679.3 260.45 679.32 260.46 679.38 260.49 679.44 260.52 679.56 260.58 679.59 260.59 679.63 260.61 679.65 260.62 679.67 260.62 679.69 260.63 679.69 260.63 679.71 260.64 679.73 260.63 679.74 260.63 679.75 260.63 679.76 260.62 679.77 260.62 679.78 260.61 679.81 260.59 679.82 260.58 679.83 260.57 679.86 260.55 679.87 260.54 679.88 260.53 679.92 260.5 679.99 260.45 680.02 260.43 680.1 260.37 680.23 260.28 680.28 260.31 680.37 260.39 680.5 260.32 680.61 260.26 680.85 259.8 680.87 259.79 680.93 259.76 680.96 259.74 680.98 259.73 680.99 259.72 681 259.72 681.02 259.71 681.03 259.71 681.04 259.71 681.06 259.7 681.08 259.7 681.09 259.7 681.09 259.7 681.12 259.7 681.14 259.7 681.17 259.7 681.19 259.7 681.27 259.7 681.28 259.7 681.29 259.7 681.29 259.69 681.3 259.69 681.3 259.68 681.31 259.67 681.32 259.66 681.4 259.51 681.56 259.49 681.79 259.25 681.94 259.26 681.96 259.26 681.97 259.27 682 259.27 682.4 259.29 682.61 259.31 682.9 259.24 683.02 259.21 683.2 259.17 683.21 259.14 683.22 259.12 683.26 259.04 683.34 258.88 683.39 258.77 683.46 258.63 683.48 258.58 683.49 258.57 683.6 258.33 683.63 258.27 683.64 258.25 683.73 258.19 683.83 258.13 683.89 258.09 683.94 258.06 684 258.02 684.06 257.99 684.14 257.94 684.25 257.89 684.36 257.82 684.39 257.81 684.42 257.79 684.52 257.75 684.64 257.7 684.76 257.65 684.89 257.6 684.93 257.59 685.04 257.55 685.23 257.49 685.46 257.4 685.56 257.33 685.59 257.31 685.66 257.26 685.7 257.23 685.82 257.14 685.9 257.09 685.94 257.07 685.96 257.06 685.97 257.05 685.98 257.05 685.99 257.05 686.03 257.04 686.09 257.04 686.12 257.04 686.14 257.03 686.16 257.02 686.17 257.02 686.18 257.01 686.2 257 686.21 256.99 686.24 256.97 686.29 256.92 686.35 256.85 686.36 256.84 686.38 256.82 686.4 256.81 686.41 256.8 686.43 256.79 686.45 256.78 686.48 256.76 686.51 256.75 686.53 256.74 686.56 256.74 686.57 256.74 686.58 256.73 686.63 256.74 686.71 256.68 686.76 256.68 687.02 256.69 687.04 256.68 687.26 256.5 687.32 256.44 687.39 256.39 687.42 256.36 687.45 256.34 687.48 256.33 687.49 256.32 687.53 256.3 687.56 256.29 687.59 256.28 687.64 256.27 687.67 256.27 687.7 256.26 687.73 256.26 687.76 256.27 687.78 256.27 687.84 256.29 687.88 256.3 687.93 256.32 688.03 256.36 688.08 256.38 688.12 256.39 688.15 256.4 688.18 256.41 688.21 256.41 688.28 256.41 688.33 256.41 688.4 256.41 688.52 256.39 688.6 256.38 688.65 256.38 688.7 256.37 688.75 256.37 688.79 256.37 688.86 256.37 688.9 256.38 688.92 256.38 688.94 256.38 688.96 256.39 688.97 256.39 689 256.39 689.03 256.4 689.06 256.4 689.08 256.41 689.1 256.41 689.14 256.43 689.18 256.45 689.25 256.49 689.3 256.52 689.33 256.54 689.38 256.57 689.42 256.6 689.45 256.62 689.47 256.64 689.49 256.67 689.56 256.74 689.6 256.78 689.63 256.81 689.65 256.83 689.67 256.85 689.7 256.86 689.73 256.88 689.76 256.89 689.78 256.91 689.8 256.92 689.82 256.93 689.84 256.95 689.87 256.97 689.91 257.01 689.98 257.09 690.1 257.22 690.14 257.26 690.17 257.3 690.2 257.33 690.24 257.37 690.29 257.41 690.41 257.5 690.46 257.54 690.5 257.56 690.54 257.58 690.57 257.6 690.62 257.64 690.64 257.65 690.67 257.67 690.7 257.69 690.75 257.74 690.81 257.8 690.83 257.82 690.9 257.89 691.05 258.03 691.18 258.16 691.32 258.3 691.42 258.39 691.43 258.41 691.48 258.41 691.51 258.41 691.54 258.42 691.59 258.43 691.63 258.45 691.67 258.46 691.7 258.47 691.73 258.49 691.77 258.51 691.81 258.53 691.81 258.54 691.89 258.59 691.93 258.61 692.02 258.66 692.07 258.7 692.2 258.78 692.23 258.79 692.26 258.82 692.32 258.88 692.36 258.91 692.41 258.93 692.45 258.96 692.53 259 692.63 259.05 692.68 259.08 692.72 259.09 692.75 259.09 692.78 259.1 692.83 259.11 692.95 259.12 693.05 259.14 693.07 259.14 693.08 259.14 693.13 259.15 693.17 259.15 693.3 259.18 693.32 259.19 693.34 259.19 693.39 259.18 693.41 259.18 693.42 259.19 693.43 259.19 693.44 259.2 693.45 259.21 693.51 259.28 693.58 259.35 693.63 259.39 693.69 259.45 693.78 259.54 693.82 259.57 693.83 259.58 693.85 259.59 693.86 259.6 693.91 259.62 693.92 259.62 694.04 259.67 694.18 259.73 694.22 259.74 694.24 259.75 694.3 259.78 694.44 259.83 694.52 259.87 694.54 259.88 694.58 259.89 694.6 259.9 694.62 259.91 694.64 259.91 694.66 259.91 694.68 259.91 694.77 259.9 694.82 259.89 694.83 259.89 694.87 259.88 694.9 259.88 694.93 259.88 694.95 259.88 694.99 259.89 695 259.89 695.04 259.9 695.14 259.91 695.18 259.92 695.25 259.93 695.39 259.95 695.55 259.97 695.55 260 695.55 260.04 695.55 260.06 695.55 260.07 695.56 260.08 695.57 260.1 695.63 260.14 695.69 260.2 695.78 260.27 695.85 260.32 695.92 260.38 695.93 260.39 695.94 260.39 695.96 260.4 696.12 260.46 696.3 260.52 696.44 260.57 696.49 260.59 696.5 260.6 696.62 260.72 696.75 260.86 696.87 260.99 696.92 261.05 696.96 261.1 697 261.16 697.03 261.21 697.1 261.31 697.19 261.46 697.31 261.64 697.36 261.69 697.45 261.81 697.5 261.89 697.54 261.93 697.63 262.03 697.81 261.91 697.86 262.06 697.87 262.09 697.98 262.37 698.12 262.76 698.27 263.15 698.35 263.37 Z"/>
</g></svg>