<svg xmlns="http://www.w3.org/2000/svg" version="1.2" baseProfile="tiny" stroke-linecap="round" stroke-linejoin="round" viewBox="136.5 163 52.78 43.5"><g xmlns="http://www.w3.org/2000/svg" id="Orozko">
<path d="M 154.14 164.29 154.36 164.38 154.87 164.41 155.69 164.58 155.69 164.63 155.69 164.65 155.7 164.81 155.71 164.99 155.77 165.2 155.77 165.44 155.79 165.62 155.83 165.77 155.89 165.97 155.91 166.11 156.03 166.17 156.22 166.2 156.47 166.26 156.76 166.35 157.06 166.39 157.23 166.41 157.4 166.48 157.62 166.57 157.91 166.67 158.18 166.8 158.34 166.88 158.52 166.95 158.75 167.02 158.91 167.05 159.04 167.04 159.1 167.04 159.1 167.05 159.16 167.11 159.25 167.2 159.35 167.3 159.4 167.36 159.49 167.43 159.56 167.47 159.63 167.51 159.71 167.55 159.8 167.59 159.88 167.63 159.95 167.65 160.03 167.7 160.15 167.77 160.36 167.89 160.48 167.95 160.6 168.02 160.71 168.09 160.84 168.14 160.96 168.17 161.09 168.17 161.53 168.12 161.65 168.15 162 168.21 162.17 168.26 162.31 168.3 162.44 168.33 162.73 168.4 162.96 168.5 163.07 168.55 163.22 168.6 163.33 168.65 163.54 168.76 163.69 168.83 163.79 168.86 163.89 168.94 164.1 169.12 164.22 169.19 164.38 169.25 164.54 169.33 164.68 169.4 164.84 169.46 164.98 169.5 165.12 169.53 165.28 169.57 165.38 169.62 165.47 169.66 165.54 169.72 165.62 169.81 165.71 169.86 165.93 170.04 166.08 170.14 166.21 170.25 166.32 170.33 166.36 170.5 166.41 170.68 166.45 170.76 166.49 170.81 166.5 170.83 166.51 170.85 166.51 170.86 166.5 170.93 166.52 170.96 166.53 170.99 166.57 171.03 166.62 171.09 166.72 171.16 166.79 171.22 166.9 171.31 167 171.38 167.05 171.43 167.13 171.54 167.23 171.66 167.35 171.76 167.45 171.85 167.55 171.94 167.61 172 167.71 172.06 167.96 172.16 168.06 172.16 168.6 172.13 168.91 172.35 169.13 172.42 169.31 172.5 169.35 172.51 169.38 172.52 169.55 172.57 169.9 172.78 169.96 172.8 170.08 172.79 170.32 172.81 170.52 172.83 170.74 172.89 171 172.98 171.02 172.99 171.27 173.04 171.52 173.13 171.83 173.36 171.96 173.48 172.12 173.6 172.32 173.7 172.54 173.81 172.83 173.87 172.96 173.92 173.18 174.26 173.35 174.39 173.64 174.6 173.69 174.65 173.8 174.75 173.91 174.83 174.22 175.04 174.32 175.12 174.4 175.2 174.47 175.29 174.56 175.39 174.67 175.52 174.78 175.63 174.88 175.82 174.97 175.94 175.09 176.06 175.19 176.16 175.28 176.24 175.39 176.34 175.47 176.42 175.55 176.52 175.64 176.6 175.74 176.7 175.83 176.73 175.95 176.76 176.14 176.85 176.28 176.89 176.43 176.8 176.62 176.7 176.8 176.63 176.83 176.62 177.01 176.55 177.11 176.55 177.22 176.57 177.33 176.61 177.51 176.68 177.64 176.75 177.79 176.81 177.93 176.85 178.05 176.87 178.21 176.92 178.33 176.82 178.46 176.71 178.58 176.63 178.79 176.49 178.79 176.5 178.82 176.63 178.84 176.69 178.87 176.79 178.92 176.85 179.03 176.93 179.16 177.02 179.28 177.1 179.4 177.19 179.52 177.26 179.62 177.32 179.74 177.39 179.84 177.44 179.92 177.49 180.05 177.58 180.25 177.71 180.36 177.77 180.37 177.78 180.48 177.84 180.57 177.89 180.67 177.93 180.83 177.97 180.98 178.01 181.1 178.04 181.2 178.09 181.32 178.13 181.42 178.17 181.53 178.21 181.65 178.25 181.79 178.33 181.89 178.39 182 178.48 182.16 178.62 182.27 178.73 182.35 178.78 182.41 178.85 182.45 178.9 182.48 178.94 182.5 178.96 182.62 179.07 182.92 179.47 182.99 179.55 183.2 179.76 183.78 181.08 184.61 182.62 184.62 183.53 184.88 184.81 185.51 186.49 185.65 187.07 185.68 187.17 185.69 187.22 185.72 187.35 185.76 187.52 185.8 187.65 185.86 187.85 185.86 187.85 185.94 188.13 185.96 188.2 185.96 188.22 185.96 188.23 185.96 188.25 185.96 188.26 185.95 188.29 185.95 188.32 185.95 188.34 185.95 188.37 185.95 188.4 185.94 188.42 185.94 188.44 185.94 188.47 185.93 188.5 185.93 188.53 185.93 188.55 185.92 188.58 185.92 188.6 185.92 188.62 185.91 188.65 185.91 188.7 185.91 188.72 185.91 188.74 185.91 188.77 185.91 188.81 185.91 188.84 185.91 188.87 185.91 188.9 185.91 188.96 185.91 189 185.92 189.03 185.92 189.06 185.92 189.11 185.93 189.14 185.93 189.17 185.93 189.22 185.94 189.25 185.94 189.29 185.95 189.31 185.95 189.36 185.96 189.39 185.96 189.42 185.97 189.47 185.98 189.5 185.98 189.53 185.99 189.55 185.99 189.57 185.99 189.59 186 189.64 186 189.68 186 189.71 186.01 189.76 186.01 189.8 186.03 189.85 186.03 189.88 186.05 189.93 186.05 189.95 186.06 189.98 186.07 190.02 186.08 190.04 186.1 190.1 186.1 190.13 186.12 190.18 186.12 190.2 186.13 190.23 186.13 190.27 186.14 190.29 186.14 190.3 186.15 190.32 186.16 190.33 186.17 190.35 186.18 190.37 186.21 190.44 186.22 190.47 186.23 190.5 186.24 190.54 186.24 190.57 186.24 190.61 186.24 190.63 186.24 190.65 186.24 190.68 186.24 190.73 186.24 190.75 186.24 190.77 186.23 190.8 186.23 190.83 186.23 190.85 186.22 190.88 186.22 190.9 186.22 190.92 186.22 190.93 186.22 190.97 186.24 190.99 186.26 191.02 186.28 191.04 186.3 191.06 186.33 191.07 186.36 191.1 186.39 191.12 186.42 191.13 186.45 191.16 186.48 191.17 186.5 191.18 186.53 191.2 186.55 191.22 186.6 191.25 186.66 191.29 186.68 191.31 186.71 191.32 186.74 191.33 186.76 191.35 186.78 191.37 186.8 191.39 186.82 191.41 186.84 191.43 186.85 191.43 186.85 191.44 186.86 191.45 186.89 191.5 186.9 191.5 186.9 191.51 186.9 191.52 186.92 191.53 186.92 191.55 186.93 191.56 186.94 191.58 186.96 191.59 186.97 191.61 186.99 191.64 187 191.64 187 191.66 187.01 191.66 187.02 191.68 187.03 191.68 187.04 191.7 187.05 191.72 187.06 191.75 187.07 191.76 187.09 191.79 187.1 191.8 187.11 191.82 187.13 191.84 187.14 191.86 187.15 191.87 187.17 191.9 187.18 191.92 187.19 191.93 187.21 191.95 187.22 191.98 187.23 192 187.25 192.03 187.26 192.04 187.26 192.05 187.27 192.07 187.28 192.09 187.29 192.11 187.3 192.13 187.31 192.16 187.31 192.18 187.33 192.2 187.34 192.23 187.35 192.25 187.35 192.27 187.36 192.3 187.37 192.32 187.37 192.34 187.38 192.36 187.39 192.38 187.39 192.41 187.4 192.43 187.4 192.45 187.41 192.46 187.41 192.48 187.41 192.49 187.42 192.5 187.44 192.57 187.47 192.61 187.5 192.65 187.54 192.69 187.57 192.75 187.58 192.83 187.61 192.95 187.63 193.03 187.64 193.1 187.66 193.14 187.71 193.18 187.77 193.2 187.86 193.25 187.97 193.31 187.87 193.44 187.81 193.51 187.77 193.56 187.72 193.63 187.66 193.69 187.61 193.76 187.57 193.82 187.53 193.88 187.49 193.95 187.45 194.03 187.41 194.09 187.37 194.17 187.32 194.25 187.28 194.3 187.25 194.37 187.23 194.46 187.21 194.54 187.19 194.63 187.16 194.69 187.14 194.75 187.13 194.78 187.12 194.8 187.1 194.82 187.09 194.84 187.08 194.86 187.06 194.92 187.03 195.04 187 195.19 187 195.2 186.98 195.26 186.97 195.31 186.96 195.37 186.95 195.43 186.94 195.47 186.94 195.5 186.92 195.57 186.9 195.63 186.89 195.68 186.89 195.75 186.88 195.82 186.87 195.87 186.87 195.93 186.87 195.94 186.84 195.95 186.77 195.96 186.7 195.98 186.63 196 186.54 196.02 186.48 196.03 186.41 196.05 186.33 196.09 186.27 196.12 186.24 196.14 186.2 196.16 186.16 196.2 186.13 196.23 186.09 196.28 186.07 196.32 186.04 196.38 186.02 196.42 186.01 196.47 186 196.52 185.98 196.57 185.97 196.61 185.95 196.65 185.93 196.69 185.92 196.71 185.87 196.75 185.84 196.78 185.81 196.81 185.79 196.82 185.76 196.87 185.72 196.9 185.68 196.93 185.65 196.96 185.62 196.98 185.59 197 185.56 197 185.53 197.01 185.51 197.01 185.5 197.05 185.48 197.11 185.49 197.16 185.5 197.17 185.52 197.21 185.54 197.24 185.56 197.27 185.59 197.3 185.61 197.33 185.63 197.34 185.66 197.38 185.69 197.4 185.72 197.43 185.74 197.45 185.76 197.48 185.79 197.5 185.81 197.54 185.84 197.57 185.87 197.59 185.92 197.62 185.95 197.63 185.95 197.64 186.01 197.68 186.07 197.7 186.14 197.74 186.21 197.78 186.25 197.82 186.28 197.87 186.31 197.91 186.35 197.96 186.37 198.01 186.41 198.08 186.43 198.12 186.47 198.17 186.5 198.21 186.52 198.26 186.52 198.33 186.52 198.4 186.53 198.45 186.55 198.49 186.6 198.56 186.66 198.62 186.71 198.68 186.75 198.74 186.77 198.76 186.8 198.77 186.84 198.81 186.87 198.83 186.9 198.86 186.93 198.89 186.96 198.91 186.98 198.91 187.05 198.95 187.11 198.97 187.15 198.99 187.19 199.01 187.24 199.06 187.28 199.12 187.33 199.19 187.38 199.23 187.42 199.29 187.45 199.35 187.47 199.38 187.49 199.41 187.51 199.47 187.53 199.49 187.55 199.53 187.57 199.56 187.59 199.6 187.61 199.65 187.63 199.7 187.65 199.76 187.67 199.83 187.69 199.86 187.72 199.9 187.73 199.95 187.75 200 187.77 200.06 187.78 200.1 187.79 200.15 187.8 200.18 187.81 200.2 187.81 200.25 187.82 200.28 187.82 200.33 187.83 200.36 187.83 200.38 187.83 200.41 187.84 200.44 187.85 200.49 187.85 200.51 187.87 200.55 187.89 200.6 187.91 200.64 187.93 200.67 187.95 200.72 187.97 200.75 187.98 200.76 187.99 200.79 188 200.81 188.02 200.87 188.03 200.91 188.03 200.93 188.04 200.95 188.05 201.02 188.06 201.06 188.07 201.09 188.09 201.12 188.1 201.17 188.12 201.22 188.13 201.26 188.14 201.3 188.16 201.36 188.17 201.41 188.18 201.46 188.18 201.5 188.2 201.55 188.21 201.62 188.23 201.66 188.27 201.72 188.3 201.79 188.31 201.82 188.36 201.92 188.37 201.95 188.39 202 188.4 202.03 188.42 202.08 188.45 202.12 188.48 202.19 188.54 202.31 188.57 202.35 188.6 202.41 188.62 202.47 188.65 202.54 188.67 202.6 188.69 202.63 188.72 202.72 188.75 202.8 188.78 202.88 188.81 202.98 188.84 203.04 188.86 203.11 188.89 203.16 188.92 203.23 188.95 203.28 188.95 203.3 188.95 203.31 189 203.41 189.07 203.57 189.19 203.95 189.27 204.19 189.21 205.03 189.23 205.49 189.23 205.53 189.25 205.98 189.26 206.2 188.34 206.27 186.26 206.47 184.56 205.54 183.04 205.67 182.98 205.67 182.95 205.67 182.93 205.67 182.91 205.67 182.78 205.69 182.55 205.71 182.09 205.75 181.34 205.82 180.25 205.92 176.15 203.37 176.12 203.35 176.11 203.34 175.86 203.21 175.46 203.09 174.65 202.85 173.92 202.63 173.75 202.59 173.59 202.54 173.48 202.5 173.35 202.44 173.26 202.41 173.1 202.34 173.03 202.31 172.86 202.25 172.67 202.12 172.62 202.08 172.48 201.99 172.35 201.87 172.28 201.82 172.14 201.72 172.01 201.63 171.7 201.4 171.15 201 171.05 200.93 171.03 200.92 170.97 200.88 170.86 200.8 170.8 200.76 170.7 200.7 170.59 200.64 170.47 200.57 170.37 200.52 170.29 200.48 170.17 200.41 170.02 200.33 169.82 200.22 169.62 200.11 169.42 200.01 169.22 199.92 169.1 199.85 169.07 199.83 168.91 199.76 168.7 199.68 168.58 199.62 168.44 199.53 168.29 199.48 168.21 199.46 168.15 199.45 168.08 199.45 167.94 199.44 167.82 199.45 167.67 199.47 167.52 199.5 167.38 199.52 167.25 199.54 167.09 199.57 166.96 199.59 166.93 199.6 166.86 199.61 166.75 199.63 166.72 199.64 166.61 199.67 166.46 199.73 166.32 199.77 166.3 199.78 166.21 199.8 166.12 199.81 166.1 199.81 166.08 199.82 166.03 199.86 165.96 199.94 165.91 199.97 165.89 199.98 165.86 199.99 165.78 200.02 165.7 200.05 165.62 200.07 165.6 200.08 165.57 200.09 165.53 200.12 165.47 200.14 165.45 200.15 165.36 200.16 165.34 200.16 165.32 200.15 165.28 200.15 165.22 200.15 165.17 200.15 165.11 200.13 165.09 200.12 165.01 200.11 164.9 200.08 164.89 200.08 164.88 200.05 164.81 199.98 164.72 199.91 164.66 199.86 164.59 199.84 164.52 199.83 164.41 199.84 164.33 199.86 164.23 199.87 164.18 199.86 164.06 199.83 163.97 199.83 163.85 199.82 163.72 199.81 163.63 199.8 163.51 199.82 163.46 199.83 163.35 199.85 163.17 199.87 163.03 199.9 162.85 199.96 162.69 200.01 162.58 200.04 162.47 200.07 162.39 200.11 162.31 200.14 162.23 200.17 162.13 200.24 162.04 200.29 161.95 200.32 161.84 200.38 161.75 200.41 161.65 200.47 161.5 200.54 161.39 200.59 161.27 200.67 161.18 200.73 161.11 200.77 161.06 200.8 161 200.85 160.97 200.88 160.94 200.98 160.91 201.09 160.89 201.18 160.85 201.3 160.83 201.4 160.79 201.54 160.78 201.67 160.78 201.68 160.77 201.75 160.77 201.77 160.76 201.8 160.76 201.83 160.66 201.8 160.48 201.76 160.34 201.71 160.33 201.7 160.13 201.64 159.95 201.59 159.81 201.54 159.72 201.51 159.66 201.48 159.62 201.37 159.58 201.24 159.52 201.05 159.48 200.95 159.43 200.87 159.41 200.82 159.32 200.71 159.27 200.62 159.24 200.58 159.21 200.54 159.18 200.52 159.17 200.51 159.14 200.49 159.03 200.43 158.9 200.33 158.8 200.25 158.76 200.22 158.67 200.17 158.43 200.06 158.28 199.95 158.26 199.93 158.2 199.88 158.17 199.84 158.15 199.82 158.13 199.79 158.03 199.63 157.71 199.48 157.62 199.43 157.59 199.42 157.53 199.4 157.48 199.39 157.37 199.35 157.26 199.29 157.16 199.23 157.1 199.16 157.05 199.1 157.01 199.05 156.99 199.03 156.96 198.96 156.81 198.88 156.79 198.87 156.77 198.85 156.73 198.81 156.71 198.79 156.7 198.76 156.69 198.74 156.68 198.68 156.67 198.66 156.65 198.6 156.56 198.5 156.49 198.41 156.41 198.36 156.38 198.34 156.35 198.33 156.3 198.3 156.28 198.29 156.25 198.27 156.21 198.24 156.19 198.22 156.09 198.11 156.03 198.11 156 198.09 155.97 198.09 155.78 198.07 155.75 198.07 155.66 198.07 155.54 198.07 155.49 198.07 155.4 198.07 155.21 198.05 155.18 197.97 155.16 197.89 155.13 197.82 155.1 197.79 155.06 197.75 155 197.71 154.86 197.61 154.79 197.57 154.71 197.53 154.69 197.52 154.62 197.47 154.6 197.45 154.56 197.41 154.53 197.36 154.5 197.31 154.46 197.23 154.44 197.21 154.37 197.16 154.35 197.14 154.27 197.1 154.25 197.09 154.17 197.07 154.14 197.07 154.02 197.07 153.9 197.08 153.82 197.08 153.65 197.08 153.59 197.06 153.51 197 153.42 196.93 153.33 196.87 153.28 196.85 153.26 196.83 153.23 196.79 153.21 196.77 153.07 196.66 153.01 196.47 152.99 196.47 152.94 196.46 152.81 196.42 152.71 196.39 152.66 196.37 152.6 196.34 152.54 196.3 152.5 196.26 152.46 196.23 152.44 196.17 152.42 196.1 152.41 196.05 152.4 195.97 152.41 195.9 152.42 195.84 152.43 195.78 152.43 195.72 152.43 195.66 152.42 195.58 152.41 195.53 152.38 195.46 152.34 195.38 152.28 195.31 152.23 195.25 152.11 195.13 151.88 194.9 151.75 194.45 150.16 193.23 149.54 191.67 147.88 190.5 147.21 190.24 146.7 190.01 146.45 189.97 146.24 189.94 146.24 188.78 144.86 187.84 144.54 187.73 144.27 187.67 144.04 187.54 143.78 187.36 143.39 187.09 139.93 182.94 139.75 182.9 139.21 182.98 139.16 182.96 139.09 182.95 138.94 182.83 138.91 182.83 138.81 182.81 138.73 182.79 138.68 182.78 138.64 182.78 138.55 182.77 138.54 182.77 138.44 182.78 138.35 182.79 138.3 182.78 137.97 182.72 137.88 182.7 137.76 182.69 137.7 182.69 137.65 182.67 137.59 182.65 137.52 182.6 137.48 182.58 137.45 182.56 137.33 182.57 137.29 182.58 137.2 182.58 137.12 182.56 137.09 182.5 137.08 182.48 136.87 181.97 136.84 181.92 136.75 181.61 136.73 181.52 136.65 181.25 136.64 181.19 136.54 181.11 136.5 181.04 136.61 181.01 136.67 181.01 136.83 180.99 137.23 180.81 137.34 180.76 137.41 180.75 137.55 180.71 137.61 180.49 137.65 180.39 137.66 180.33 137.68 180.28 137.73 180.23 138.04 180.08 138.3 179.93 138.35 179.9 138.4 179.87 138.45 179.84 138.48 179.8 138.51 179.76 138.57 179.69 138.61 179.64 138.66 179.62 138.74 179.6 138.82 179.58 138.9 179.55 138.96 179.52 138.99 179.5 139 179.49 139.04 179.43 139.14 179.38 139.19 179.35 139.21 179.33 139.24 179.31 139.3 179.26 139.33 179.19 139.36 179.14 139.39 179.1 139.46 179.04 139.49 179.02 139.55 178.96 139.57 178.94 139.59 178.92 139.64 178.9 139.7 178.88 139.44 178.71 140.71 176.65 141.04 175.93 141.34 175.08 141.45 175.04 141.68 174.96 141.81 174.94 141.98 174.94 143.13 173.19 143.16 173.14 143.19 173.1 143.21 173.06 143.22 173.02 143.24 172.98 143.25 172.94 143.27 172.9 143.29 172.87 143.31 172.84 143.33 172.83 143.35 172.81 143.36 172.79 143.39 172.73 143.42 172.66 143.45 172.59 143.51 172.52 143.68 172.28 143.75 172.17 143.8 172.1 143.84 172.02 143.9 171.92 143.93 171.83 143.95 171.76 144 171.7 144.02 171.66 144.06 171.57 144.05 171.51 144.04 171.46 144.06 171.39 144.05 171.34 144.05 171.3 144.07 171.26 144.1 171.22 144.13 171.18 144.15 171.15 144.18 171.1 144.22 171.01 144.27 170.94 144.34 170.88 144.36 170.86 144.39 170.83 144.43 170.81 144.52 170.77 144.56 170.75 144.6 170.72 144.66 170.64 144.72 170.57 144.79 170.5 144.87 170.45 144.94 170.39 145 170.34 145.01 170.32 145.06 170.28 145.08 170.27 145.18 170.24 145.23 170.21 145.31 170.12 145.39 170.06 145.44 169.97 145.52 169.87 145.58 169.73 145.61 169.65 145.65 169.53 145.72 169.49 145.79 169.45 145.86 169.32 145.87 169.22 145.94 169.09 145.98 169 146 168.91 146.02 168.81 146.06 168.67 146.12 168.58 146.12 168.41 146.13 168.36 146.14 168.31 146.14 168.25 146.2 168.09 146.24 168.07 146.27 168.03 146.31 168.01 146.41 167.91 146.5 167.76 146.68 167.57 146.87 167.36 147.03 167.21 147.17 167.07 147.19 167.04 147.22 167.03 147.3 166.99 147.33 166.97 147.37 166.92 147.43 166.86 147.49 166.82 147.53 166.79 147.63 166.74 147.69 166.68 147.73 166.64 147.81 166.57 147.78 166.48 147.79 166.43 147.8 166.39 147.7 166.36 147.69 166.33 147.67 166.28 147.65 166.25 147.64 166.21 147.57 166.15 147.47 166.04 147.39 165.98 147.31 165.9 147.18 165.82 147.04 165.71 146.95 165.64 146.89 165.56 146.86 165.47 146.71 165.16 146.69 165.11 146.68 165.05 146.7 164.99 146.72 164.94 146.87 164.78 146.96 164.68 147.03 164.56 147.09 164.45 147.13 164.37 147.2 164.24 147.19 163.8 147.14 163.71 147.11 163.66 147.08 163.6 147.06 163.53 147.03 163.4 146.93 163.02 146.92 163 147.19 163.13 147.25 163.16 148.53 163.87 149.3 164.04 150.19 164.07 150.6 163.99 150.83 164.01 151 164 151.83 164.14 153.45 164.26 154.14 164.29 Z"/>
</g></svg>