<svg xmlns="http://www.w3.org/2000/svg" version="1.2" baseProfile="tiny" stroke-linecap="round" stroke-linejoin="round" viewBox="602.65 201.85 23.9 14.88"><g xmlns="http://www.w3.org/2000/svg" id="Orreaga">
<path d="M 603.99 204.87 604.06 204.87 604.16 204.88 604.23 204.88 604.25 204.88 604.33 204.9 604.44 204.92 604.55 204.94 604.68 204.97 604.79 204.99 604.84 205.01 604.92 205.07 605.04 205.15 605.15 205.23 605.27 205.32 605.36 205.39 605.46 205.46 605.52 205.5 605.64 205.59 605.76 205.67 605.87 205.74 605.98 205.8 606.09 205.86 606.14 205.89 606.21 205.95 606.29 206.03 606.39 206.12 606.48 206.21 606.59 206.32 606.68 206.41 606.76 206.44 606.9 206.49 607.04 206.54 607.16 206.57 607.29 206.62 607.38 206.65 607.46 206.68 607.54 206.72 607.61 206.76 607.7 206.8 607.84 206.88 607.99 206.96 608.09 207.02 608.17 207.01 608.28 207 608.28 207 608.35 206.99 608.54 206.97 608.58 206.97 608.66 206.96 608.68 206.96 608.71 206.96 608.73 206.96 608.82 206.94 608.84 206.94 608.87 206.96 608.93 206.98 608.97 206.99 609 206.99 609.03 206.99 609.07 206.98 609.13 206.97 609.18 206.95 609.24 206.94 609.29 206.92 609.32 206.92 609.35 206.91 609.38 206.91 609.42 206.91 609.46 206.91 609.51 206.92 609.55 206.91 609.58 206.91 609.62 206.9 609.65 206.88 609.68 206.87 609.69 206.86 609.71 206.85 609.73 206.85 609.74 206.85 609.81 206.85 609.92 206.87 609.94 206.87 610 206.88 610.17 206.89 610.21 206.9 610.25 206.9 610.32 206.91 610.47 206.93 610.51 206.93 610.54 206.94 610.62 206.94 610.67 206.95 610.72 206.94 610.74 206.94 610.76 206.93 610.77 206.92 610.8 206.89 610.83 206.86 610.86 206.82 610.88 206.78 610.89 206.76 610.89 206.72 610.89 206.71 610.9 206.68 610.91 206.65 610.93 206.61 610.94 206.57 610.94 206.53 610.94 206.5 610.94 206.44 610.94 206.39 610.95 206.33 610.95 206.27 610.95 206.25 610.96 206.21 610.98 206.18 610.99 206.14 611.01 206.09 611.03 206.02 611.04 205.99 611.06 205.96 611.07 205.94 611.09 205.93 611.11 205.92 611.13 205.91 611.17 205.9 611.2 205.89 611.23 205.88 611.27 205.87 611.31 205.86 611.36 205.85 611.4 205.83 611.44 205.82 611.48 205.79 611.55 205.76 611.58 205.75 611.61 205.73 611.64 205.72 611.68 205.71 611.71 205.7 611.73 205.68 611.75 205.65 611.76 205.64 611.77 205.61 611.78 205.57 611.79 205.53 611.81 205.48 611.82 205.44 611.84 205.4 611.86 205.37 611.88 205.35 611.91 205.32 611.94 205.29 611.97 205.27 612 205.25 612.02 205.25 612.04 205.25 612.07 205.24 612.1 205.23 612.12 205.22 612.18 205.18 612.24 205.12 612.3 205.05 612.38 205.05 612.5 205.04 612.62 205.04 612.74 205.03 612.84 205.02 612.94 204.98 613.05 204.93 613.12 204.89 613.2 204.84 613.3 204.78 613.41 204.72 613.45 204.71 613.51 204.7 613.57 204.69 613.66 204.67 613.72 204.64 613.81 204.59 613.84 204.58 613.91 204.56 613.99 204.54 614.03 204.52 614.06 204.51 614.13 204.47 614.26 204.41 614.39 204.35 614.5 204.31 614.64 204.26 614.72 204.24 614.8 204.21 614.94 204.16 615.09 204.12 615.25 204.06 615.43 204.02 615.52 204 615.61 204 615.72 204 615.92 204.01 616.01 204.02 616.05 204.04 616.08 204.08 616.19 204.19 616.3 204.32 616.37 204.38 616.49 204.47 616.58 204.52 616.65 204.55 616.7 204.58 616.75 204.58 616.84 204.59 616.85 204.59 616.93 204.59 616.94 204.59 616.96 204.55 616.98 204.52 616.99 204.47 617.01 204.41 617.02 204.36 617.02 204.31 617.02 204.24 617 204.14 616.98 204.06 616.97 204.03 616.99 204.02 617.01 204 617.14 203.95 617.31 203.88 617.46 203.82 617.62 203.77 617.72 203.74 617.95 203.67 618.04 203.64 618.1 203.63 618.2 203.6 618.35 203.57 618.45 203.54 618.52 203.5 618.58 203.47 618.63 203.43 618.69 203.35 618.77 203.27 618.82 203.21 618.84 203.19 618.87 203.13 618.9 203.01 618.93 202.97 618.94 202.93 618.98 202.88 619.02 202.82 619.05 202.78 619.09 202.75 619.17 202.68 619.3 202.59 619.35 202.55 619.39 202.5 619.43 202.44 619.47 202.38 619.51 202.31 619.54 202.28 619.56 202.25 619.59 202.23 619.64 202.19 619.7 202.15 619.75 202.1 619.79 202.06 619.83 202.01 619.89 201.93 619.93 201.88 619.96 201.86 620.01 201.89 620.05 201.91 620.12 201.95 620.17 202.02 620.28 202.14 620.49 202.4 620.72 202.69 620.94 202.98 621.11 203.2 621.29 203.42 621.37 203.51 621.56 203.51 621.79 203.51 621.92 203.51 621.96 203.51 622.19 203.51 622.2 203.51 622.33 203.52 622.45 203.52 622.55 203.52 622.66 203.51 622.67 203.51 622.73 203.51 622.81 203.5 623.03 203.49 623.35 203.46 623.57 203.44 623.78 203.41 624.01 203.4 624.29 203.37 624.73 203.29 625.29 203.2 625.63 203.14 626 203.08 626.53 203.14 626.3 204.48 626 206.24 625.86 206.46 625.78 206.59 625.47 207.09 625.19 207.55 624.86 207.56 624.11 207.59 623.64 207.65 623.54 207.72 623.52 207.74 623.48 207.77 623.29 207.75 623.23 207.72 623.14 207.67 623.09 207.64 623.05 207.58 623.04 207.54 623.03 207.47 623.01 207.47 622.63 207.54 622.49 207.57 622.31 207.61 622.3 207.61 622.3 207.6 622.2 207.7 622.13 207.77 621.88 208.03 621.37 207.98 620.5 208.56 620.48 208.76 620.39 209.31 619.67 209.78 618.98 210.33 618.49 212.05 618.41 212.32 618.13 213.29 616.85 214.24 616.81 214.27 616.68 214.37 616.41 214.55 616.2 214.71 616.07 214.78 615.87 214.91 615.77 214.97 615.71 214.96 615.62 214.93 615.52 214.9 615.43 214.88 615.29 214.86 615.17 214.85 615.05 214.84 614.97 214.83 614.92 214.84 614.79 214.86 614.68 214.89 614.62 214.91 614.53 214.93 614.48 214.96 614.35 215.04 614.18 215.06 614.03 215.06 613.93 215.09 613.62 215.18 613.34 215.26 613.22 215.3 613.2 215.3 613.07 215.34 613.04 215.35 613.01 215.36 612.68 215.45 612.67 215.45 612.41 215.54 612.36 215.55 612.33 215.56 612.23 215.58 612.03 215.61 611.8 215.65 611.58 215.71 611.39 215.75 611.29 215.78 611.25 215.79 611.24 215.79 611.15 215.82 611.1 215.81 611.09 215.8 611.04 215.78 610.97 215.76 610.92 215.75 610.86 215.73 610.8 215.71 610.79 215.71 610.67 215.67 610.58 215.65 610.5 215.63 610.41 215.62 610.32 215.6 610.27 215.59 610.25 215.59 610.14 215.57 610.13 215.57 610.08 215.56 610 215.55 609.88 215.53 609.78 215.52 609.7 215.5 609.65 215.49 609.57 215.48 609.56 215.48 609.54 215.47 609.51 215.47 609.46 215.46 609.39 215.44 609.35 215.45 609.31 215.47 609.26 215.48 609.17 215.51 609.16 215.51 609.11 215.53 609.06 215.55 609.02 215.58 608.97 215.62 608.95 215.64 608.89 215.7 608.85 215.74 608.84 215.76 608.8 215.8 608.74 215.84 608.66 215.91 608.63 215.94 608.57 215.99 608.51 216.05 608.45 216.11 608.39 216.18 608.37 216.2 608.33 216.26 608.3 216.3 608.27 216.35 608.25 216.38 608.21 216.46 608.19 216.48 608.13 216.6 608.08 216.71 607.95 216.63 607.94 216.62 607.92 216.61 607.83 216.54 607.71 216.47 607.7 216.46 607.6 216.4 607.55 216.37 607.46 216.29 607.45 216.28 607.44 216.27 607.37 216.2 607.34 216.17 607.33 216.16 607.29 216.13 607.2 216.04 607.18 216.03 607.11 215.97 607.1 215.96 607.07 215.93 607.01 215.87 606.9 215.78 606.8 215.69 606.73 215.62 606.71 215.61 606.69 215.59 606.66 215.57 606.56 215.48 606.47 215.42 606.38 215.36 606.33 215.32 606.31 215.31 606.29 215.29 606.25 215.27 606.16 215.22 606.03 215.14 605.98 215.11 605.91 215.07 605.89 215.06 605.8 215.02 605.61 214.93 605.48 214.85 605.45 214.83 605.39 214.8 605.37 214.79 605.35 214.77 605.2 214.69 605.11 214.64 605.03 214.59 605 214.57 604.99 214.57 604.94 214.54 604.88 214.5 604.79 214.45 604.73 214.43 604.72 214.42 604.7 214.42 604.67 214.42 604.64 214.42 604.62 214.42 604.6 214.4 604.59 214.38 604.59 214.35 604.59 214.32 604.59 214.3 604.59 214.28 604.57 214.26 604.55 214.25 604.5 214.25 604.46 214.24 604.43 214.23 604.42 214.21 604.39 214.18 604.38 214.15 604.38 214.12 604.39 214.09 604.41 214.07 604.42 214.04 604.44 214.01 604.45 213.99 604.46 213.95 604.47 213.93 604.49 213.9 604.51 213.88 604.54 213.87 604.57 213.86 604.6 213.84 604.63 213.83 604.67 213.81 604.71 213.78 604.74 213.74 604.76 213.71 604.77 213.68 604.75 213.66 604.72 213.63 604.7 213.61 604.7 213.57 604.7 213.53 604.69 213.5 604.67 213.46 604.66 213.43 604.66 213.4 604.67 213.38 604.68 213.37 604.69 213.36 604.71 213.36 604.74 213.35 604.76 213.33 604.77 213.31 604.79 213.28 604.79 213.24 604.8 213.21 604.79 213.18 604.78 213.14 604.75 213.12 604.72 213.11 604.69 213.09 604.66 213.07 604.65 213.04 604.65 213.02 604.65 212.98 604.65 212.94 604.65 212.91 604.64 212.87 604.63 212.83 604.62 212.8 604.61 212.77 604.6 212.75 604.58 212.74 604.55 212.72 604.52 212.71 604.45 212.69 604.42 212.68 604.37 212.67 604.32 212.66 604.25 212.64 604.2 212.62 604.14 212.59 604.11 212.56 604.06 212.51 604.01 212.45 603.96 212.4 603.93 212.36 603.92 212.34 603.91 212.32 603.91 212.29 603.91 212.27 603.91 212.25 603.92 212.23 603.94 212.21 603.95 212.18 603.97 212.15 603.99 212.12 604.01 212.07 604.01 212.03 604 212 603.99 211.96 603.98 211.93 603.97 211.9 603.96 211.86 603.95 211.83 603.94 211.81 603.93 211.79 603.91 211.75 603.88 211.72 603.87 211.7 603.86 211.67 603.86 211.65 603.86 211.63 603.84 211.61 603.83 211.59 603.81 211.56 603.78 211.52 603.75 211.5 603.72 211.48 603.7 211.46 603.67 211.44 603.65 211.43 603.6 211.41 603.57 211.4 603.53 211.37 603.49 211.34 603.46 211.32 603.42 211.29 603.39 211.26 603.36 211.24 603.35 211.21 603.34 211.2 603.32 211.17 603.3 211.16 603.28 211.13 603.25 211.09 603.23 211.07 603.19 211.05 603.15 211.02 603.12 211 603.09 210.98 603.05 210.97 603 210.95 602.97 210.93 602.95 210.91 602.94 210.9 602.94 210.87 602.95 210.84 602.95 210.79 602.96 210.74 602.96 210.69 602.97 210.64 602.98 210.57 602.98 210.49 602.99 210.42 603 210.38 603 210.33 602.99 210.31 602.97 210.28 602.94 210.22 602.91 210.16 602.87 210.09 602.83 210.02 602.82 210 602.8 209.92 602.78 209.84 602.76 209.76 602.75 209.73 602.73 209.68 602.7 209.62 602.68 209.57 602.67 209.53 602.68 209.41 602.68 209.25 602.69 209.14 602.69 209.01 602.69 208.88 602.7 208.75 602.7 208.63 602.7 208.48 602.71 208.35 602.71 208.23 602.72 208.09 602.72 207.98 602.66 207.82 602.72 207.62 602.78 207.41 602.83 207.25 602.88 207.08 602.91 206.93 602.92 206.91 602.97 206.84 603.03 206.73 603.07 206.66 603.12 206.59 603.17 206.5 603.22 206.43 603.26 206.37 603.31 206.32 603.38 206.24 603.43 206.19 603.48 206.13 603.54 206.07 603.61 205.99 603.65 205.95 603.69 205.9 603.74 205.86 603.79 205.8 603.83 205.75 603.87 205.71 603.92 205.66 603.93 205.65 603.97 205.61 603.98 205.59 603.98 205.48 603.98 205.32 603.98 205.14 603.98 205.11 603.98 205.04 603.99 204.93 603.99 204.87 Z"/>
</g></svg>