<svg xmlns="http://www.w3.org/2000/svg" version="1.2" baseProfile="tiny" stroke-linecap="round" stroke-linejoin="round" viewBox="107.83 93.08 13.38 19.65"><g xmlns="http://www.w3.org/2000/svg" id="Ortuella">
<path d="M 118.4 96.4 118.44 96.44 118.48 96.55 118.52 96.59 118.56 96.62 118.62 96.64 118.63 96.64 118.64 96.63 118.66 96.61 118.68 96.63 118.7 96.65 118.73 96.65 118.73 96.66 118.75 96.67 118.78 96.68 118.81 96.68 118.83 96.7 118.85 96.72 118.85 96.75 118.86 96.77 118.88 96.8 118.93 96.83 118.95 96.84 118.96 96.85 119 96.89 119.04 96.93 119.13 96.99 119.15 97.01 119.17 97.03 119.19 97.05 119.23 97.08 119.28 97.12 119.3 97.14 119.32 97.15 119.35 97.15 119.38 97.15 119.4 97.15 119.43 97.16 119.47 97.2 119.57 97.27 119.59 97.29 119.62 97.3 119.64 97.31 119.67 97.32 119.7 97.33 119.75 97.35 119.82 97.4 119.83 97.42 119.85 97.45 119.86 97.48 119.88 97.52 119.91 97.53 119.93 97.53 119.96 97.54 120.01 97.56 120.18 97.56 120.26 97.56 120.29 97.57 120.31 97.58 120.34 97.59 120.39 97.59 120.42 97.59 120.45 97.61 120.47 97.63 120.51 97.65 120.54 97.64 120.55 97.62 120.57 97.6 120.59 97.59 120.62 97.59 120.65 97.58 120.66 97.56 120.68 97.54 120.71 97.53 120.76 97.54 120.84 97.55 120.87 97.56 120.89 97.58 120.91 97.6 120.92 97.62 120.95 97.67 120.96 97.69 120.97 97.7 121.19 97.85 119.58 99.25 119.14 99.78 119.14 99.79 119.09 99.77 118.9 99.77 118.55 99.84 118.32 99.9 118.19 100.01 118.01 100.13 117.97 100.16 117.87 100.22 117.82 100.31 117.38 100.55 116.69 100.95 116.65 101.14 116.43 101.01 116.24 101.16 115.93 101.84 115.75 102.22 114.99 103.87 114.85 104.15 113.6 104.13 112.17 104.39 111.64 105.73 111.71 105.9 112.13 107.93 112.18 108.09 112.2 108.12 112.36 108.27 112.43 108.34 112.44 108.36 112.65 108.47 113.08 108.84 113.08 108.86 112.57 109.96 111.54 112.2 111.38 112.4 111.54 112.61 111.45 112.72 111.11 112.4 110.03 111.43 109.76 111.14 109.27 110.68 108.41 109.84 108.07 109.53 107.84 109.3 108.1 108.15 108.38 107.31 108.69 106.24 108.79 105.9 109.13 104.63 109.21 104.16 109.28 103.97 109.81 103.01 109.84 102.02 109.96 102.02 110.29 101.94 110.38 101.84 110.61 101.59 110.84 101.53 110.88 101.53 110.94 101.54 110.68 99.8 110.53 98.83 110.37 97.77 110.16 95.41 110.02 93.91 110.24 93.39 110.69 93.11 110.72 93.19 110.74 93.25 110.76 93.28 110.78 93.3 110.87 93.37 110.89 93.38 110.92 93.4 110.94 93.4 110.97 93.39 110.99 93.37 111.02 93.37 111.05 93.37 111.08 93.38 111.1 93.39 111.15 93.42 111.17 93.44 111.2 93.45 111.3 93.48 111.33 93.5 111.38 93.52 111.4 93.53 111.43 93.58 111.49 93.64 111.53 93.68 111.56 93.7 111.6 93.73 111.63 93.72 111.66 93.71 111.69 93.71 111.71 93.71 111.74 93.72 111.78 93.74 111.8 93.75 111.83 93.76 111.88 93.78 111.94 93.79 111.99 93.8 112.02 93.81 112.04 93.82 112.07 93.84 112.08 93.86 112.09 93.89 112.1 93.91 112.17 93.96 112.19 93.98 112.21 94.03 112.23 94.05 112.25 94.06 112.27 94.08 112.29 94.11 112.31 94.15 112.34 94.2 112.37 94.25 112.38 94.27 112.4 94.29 112.42 94.31 112.45 94.32 112.52 94.35 112.58 94.36 112.61 94.35 112.63 94.33 112.65 94.33 112.67 94.35 112.68 94.37 112.69 94.4 112.74 94.43 112.75 94.46 112.77 94.48 112.79 94.5 112.81 94.51 112.84 94.52 112.86 94.53 112.89 94.54 112.95 94.53 112.99 94.56 113.05 94.57 113.07 94.58 113.09 94.6 113.12 94.6 113.15 94.61 113.2 94.63 113.24 94.67 113.27 94.68 113.3 94.69 113.32 94.69 113.35 94.68 113.38 94.68 113.4 94.69 113.42 94.71 113.45 94.75 113.49 94.79 113.51 94.81 113.53 94.82 113.58 94.85 113.68 94.92 113.71 94.94 113.73 94.96 113.74 94.98 113.75 95.03 113.76 95.04 113.78 95.06 113.81 95.07 113.88 95.09 113.93 95.11 113.95 95.13 113.97 95.17 113.99 95.19 114.02 95.2 114.04 95.2 114.06 95.19 114.12 95.17 114.14 95.17 114.17 95.18 114.22 95.2 114.24 95.21 114.27 95.21 114.3 95.2 114.33 95.2 114.41 95.2 114.46 95.22 114.49 95.21 114.52 95.2 114.54 95.19 114.57 95.2 114.62 95.22 114.67 95.23 114.7 95.23 114.72 95.23 114.75 95.22 115.15 95.23 115.17 95.24 115.19 95.25 115.23 95.26 115.26 95.28 115.3 95.3 115.33 95.31 115.36 95.31 115.38 95.3 115.41 95.28 115.43 95.27 115.46 95.26 115.49 95.26 115.51 95.27 115.54 95.28 115.56 95.3 115.57 95.33 115.57 95.34 115.62 95.37 115.68 95.36 115.73 95.38 115.77 95.41 115.82 95.44 115.86 95.49 115.87 95.5 115.87 95.55 115.88 95.6 116.15 95.74 116.18 95.77 116.23 95.81 116.25 95.86 116.26 95.91 116.29 95.96 116.33 96 116.34 96.06 116.36 96.11 116.38 96.16 116.4 96.21 116.43 96.31 116.48 96.32 116.51 96.33 116.56 96.34 116.61 96.37 116.65 96.4 116.7 96.38 116.75 96.38 116.79 96.42 116.83 96.46 116.87 96.49 116.93 96.51 116.98 96.52 117.03 96.54 117.2 96.58 117.25 96.6 117.3 96.62 117.39 96.69 117.41 96.69 117.43 96.69 117.45 96.69 117.55 96.71 117.61 96.72 117.72 96.72 117.84 96.72 117.9 96.7 117.95 96.67 117.99 96.63 118.03 96.59 118.06 96.55 118.13 96.46 118.18 96.43 118.23 96.43 118.29 96.44 118.35 96.44 118.39 96.41 118.39 96.41 118.4 96.4 Z"/>
</g></svg>