<svg xmlns="http://www.w3.org/2000/svg" version="1.2" baseProfile="tiny" stroke-linecap="round" stroke-linejoin="round" viewBox="672.88 93.8 15.32 13.83"><g xmlns="http://www.w3.org/2000/svg" id="Ostankoa">
<path d="M 688.17 96.27 688.15 96.27 688.13 96.28 688.12 96.32 688.1 96.34 688.08 96.35 688.09 96.39 688.09 96.45 688.09 96.49 688.09 96.55 688.08 96.6 688.06 96.64 687.85 97.01 687.35 97.82 687.32 97.85 687.29 97.88 687.27 97.9 687.24 97.93 687.2 97.96 687.13 98 686.84 98.97 686.55 99.93 686.44 100.56 686.46 100.94 686.52 101.25 686.55 101.5 686.59 102.64 686.56 102.7 686.54 102.73 686.52 102.75 685.94 102.98 685.36 103.22 685.25 103.17 685.21 103.16 685.18 103.16 685.15 103.16 685.06 103.17 684.93 103.2 684.79 103.23 684.62 103.25 684.58 103.26 684.59 103.29 684.47 103.31 684.32 103.33 684.11 103.37 683.97 103.4 683.94 103.4 683.9 103.41 683.82 103.43 683.78 103.43 683.73 103.45 683.63 103.49 683.54 103.52 683.43 103.57 683.33 103.62 683.27 103.64 683.24 103.65 683.23 103.65 683.2 103.65 683.11 103.63 683.03 103.61 682.93 103.59 682.85 103.56 682.76 103.53 682.71 103.52 682.64 103.51 682.56 103.48 682.51 103.47 682.46 103.46 682.43 103.45 682.4 103.45 682.37 103.46 682.3 103.48 682.23 103.5 682.14 103.53 682.08 103.55 682.03 103.58 681.98 103.61 681.93 103.63 681.88 103.66 681.76 103.7 681.62 103.76 681.52 103.79 681.46 103.82 681.4 103.86 681.34 103.89 681.24 103.94 681.18 103.99 681.11 104.04 681.07 104.07 681.02 104.13 681 104.17 681 104.2 680.41 104.95 680.16 105.23 679.98 105.23 679.96 105.26 679.67 105.45 679.19 105.55 678.8 105.89 678.57 105.74 678.57 105.77 678.57 105.79 678.47 105.88 678.41 105.93 678.41 105.95 678.41 105.97 678.46 106.06 678.46 106.09 678.46 106.11 678.46 106.13 678.43 106.2 678.42 106.22 678.41 106.24 678.4 106.26 678.39 106.29 678.38 106.31 678.33 106.4 678.31 106.44 678.31 106.47 678.3 106.51 678.31 106.54 678.32 106.58 678.35 106.69 678.35 106.72 678.36 106.74 678.36 106.76 678.36 106.78 678.35 106.8 678.3 106.83 678.24 106.86 678.2 106.87 678.13 106.92 678.08 106.96 678.03 107.05 678.01 107.08 678 107.1 677.99 107.12 677.97 107.14 677.96 107.14 677.93 107.15 677.86 107.17 677.78 107.2 677.72 107.23 677.67 107.28 677.62 107.34 677.6 107.37 677.59 107.39 677.58 107.41 677.57 107.42 677.55 107.42 677.53 107.43 677.48 107.46 677.44 107.49 677.4 107.52 677.39 107.53 677.37 107.54 677.34 107.58 677.32 107.61 677.31 107.61 677.29 107.61 677.27 107.6 677.26 107.58 677.24 107.54 677.22 107.46 677.2 107.42 677.18 107.37 677.13 107.33 676.91 107.27 676.73 107.19 676.67 107.19 676.63 107.21 676.56 107.29 676.53 107.31 676.5 107.32 676.46 107.33 676.43 107.33 676.4 107.31 676.38 107.3 676.36 107.29 676.35 107.27 676.35 107.24 676.34 107.23 676.33 107.21 676.31 107.2 676.29 107.2 676.21 107.2 676.06 107.2 675.9 107.21 675.89 107.21 675.84 107.25 675.77 107.3 675.74 107.32 675.72 107.33 675.71 107.33 675.69 107.31 675.64 107.27 675.59 107.23 675.49 107.17 675.46 107.16 675.45 107.15 675.43 107.14 675.42 107.14 675.41 107.14 675.39 107.14 675.38 107.14 675.36 107.15 675.32 107.17 675.29 107.2 675.28 107.2 675.25 107.22 675.23 107.23 675.22 107.23 675.21 107.23 675.19 107.22 675.16 107.2 675.14 107.17 675.11 107.14 675.08 107.13 675.04 107.11 675.01 107.1 674.98 107.1 674.96 107.09 674.95 107.08 674.94 107.07 674.92 107.04 674.89 107.02 674.86 107.01 674.82 106.99 674.78 106.98 674.76 106.98 674.74 106.97 674.71 106.98 674.67 106.99 674.6 107 674.54 107.01 674.5 107.01 674.47 107.01 674.45 107.01 674.43 106.99 674.43 106.98 674.43 106.96 674.43 106.93 674.43 106.9 674.43 106.86 674.42 106.82 674.4 106.79 674.38 106.75 674.36 106.71 674.29 106.62 674.25 106.58 674.21 106.56 674.18 106.54 674.14 106.54 674.1 106.54 674.05 106.55 674.01 106.56 673.98 106.58 673.95 106.6 673.94 106.6 673.92 106.6 673.9 106.59 673.88 106.57 673.85 106.53 673.83 106.52 673.82 106.51 673.79 106.5 673.74 106.48 673.67 106.45 673.62 106.42 673.58 106.4 673.55 106.37 673.52 106.36 673.45 106.34 673.43 106.34 673.4 106.34 673.38 106.34 673.37 106.34 673.35 106.35 673.34 106.36 673.33 106.36 673.32 106.36 673.3 106.35 673.29 106.34 673.27 106.32 673.25 106.31 673.21 106.3 673.18 106.3 673.15 106.31 673.1 106.32 673.06 106.34 673.03 106.34 673 106.33 672.97 106.32 672.95 106.31 672.93 106.28 672.92 106.26 672.91 106.24 672.89 106.22 673.03 105.95 673.25 105.86 673.26 105.82 673.26 105.79 673.26 105.76 673.25 105.73 673.23 105.69 673.21 105.65 673.2 105.61 673.19 105.57 673.18 105.53 673.17 105.49 673.15 105.44 673.13 105.38 673.13 105.35 673.12 105.31 673.1 105.28 673.09 105.24 673.08 105.21 673.08 105.17 673.08 105.14 673.09 105.09 673.11 105.06 673.13 105.02 673.16 104.98 673.19 104.96 673.22 104.93 673.26 104.91 673.29 104.89 673.32 104.86 673.37 104.83 673.39 104.8 673.41 104.77 673.42 104.74 673.46 104.62 673.47 104.59 673.5 104.55 673.52 104.52 673.54 104.49 673.56 104.46 673.6 104.42 673.63 104.38 673.65 104.35 673.68 104.31 673.71 104.28 673.74 104.24 673.77 104.22 673.79 104.2 673.82 104.18 673.85 104.16 673.88 104.13 673.91 104.11 673.92 104.07 673.93 104.04 673.95 104.01 673.97 103.98 674 103.94 674.03 103.92 674.06 103.89 674.08 103.88 674.09 103.87 674.03 103.72 674.19 103.74 674.18 103.71 674.18 103.68 674.17 103.65 674.16 103.62 674.14 103.58 674.11 103.55 674.09 103.52 674.08 103.49 674.06 103.46 674.06 103.43 674.06 103.4 674.07 103.36 674.08 103.33 674.1 103.29 674.11 103.26 674.13 103.22 674.14 103.19 674.16 103.16 674.19 103.13 674.2 103.1 674.21 103.08 674.22 103.05 674.23 103.02 674.24 102.98 674.26 102.93 674.27 102.92 674.34 102.86 674.37 102.8 674.38 102.77 674.38 102.71 674.37 102.66 674.33 102.53 674.3 102.41 674.26 102.2 674.23 102.11 674.2 102.06 674.13 102 674.05 101.93 674.09 101.74 674.24 101.22 674.41 100.65 674.4 100.12 674.44 100.08 674.48 100.06 674.48 100.02 674.47 99.99 674.47 99.94 674.8 99.64 675.04 99.55 675.11 99.57 675.23 99.6 675.33 99.58 675.4 99.55 675.46 99.53 675.52 99.52 676.23 99.17 676.33 99.24 676.71 99.53 677.13 99.44 677.13 99.44 677.12 99.41 677.14 99.34 677.15 99.31 677.15 99.27 677.15 99.23 677.13 99.18 677.06 99.06 677.02 98.97 676.98 98.88 676.98 98.85 676.98 98.82 676.98 98.77 677 98.72 677.01 98.66 677.01 98.59 677 98.52 676.97 98.44 676.93 98.37 676.91 98.33 676.92 98.27 676.93 98.21 676.94 98.14 677 97.98 677.03 97.93 677.35 97.76 677.56 97.61 677.63 97.33 677.66 96.84 677.65 96.82 677.65 96.81 677.65 96.79 677.66 96.77 677.68 96.71 677.69 96.65 677.7 96.61 677.96 96.55 678.02 96.35 678.14 96.29 678.49 96.23 678.7 96.11 679.38 96.18 679.44 96.05 679.61 95.8 679.67 95.8 679.76 95.76 679.93 95.71 679.99 95.69 680.02 95.69 680.08 95.71 680.12 95.71 680.16 95.71 680.21 95.7 680.27 95.69 680.3 95.7 680.32 95.66 680.35 95.6 680.4 95.54 680.45 95.47 680.55 95.38 680.7 95.27 680.81 95.38 680.91 95.34 681.01 95.26 681.09 95.22 680.9 95.04 681.48 94.5 681.61 94.27 681.64 94.18 681.66 93.95 681.8 93.96 682.21 94.13 682.35 94.23 682.28 94.72 682.3 94.74 682.39 94.63 682.46 94.22 682.72 94.17 682.98 93.83 683.08 93.86 683.19 93.91 683.18 94 683.22 94.03 683.75 94.04 683.78 94.07 683.88 94.2 683.95 94.32 684.01 94.42 684.05 94.48 684.07 94.51 684.09 94.55 684.13 94.6 684.16 94.64 684.17 94.68 684.17 94.72 684.17 94.75 684.16 94.79 684.15 94.83 684.16 94.85 684.17 94.89 684.18 94.92 684.22 95.03 684.24 95.08 684.33 95.27 684.35 95.33 684.36 95.36 684.36 95.4 684.36 95.43 684.35 95.48 684.34 95.51 684.31 95.54 684.3 95.58 684.31 95.61 684.32 95.64 684.35 95.67 684.4 95.71 684.46 95.74 684.53 95.77 684.59 95.79 684.64 95.8 684.68 95.8 684.73 95.81 684.77 95.81 684.64 94.76 685.23 94.57 685.25 94.54 685.27 94.54 685.28 94.53 685.3 94.53 685.34 94.51 685.44 94.49 685.56 94.47 685.6 94.46 685.63 94.45 685.67 94.42 685.75 94.36 685.84 94.28 685.93 94.23 686.01 94.19 686.08 94.15 686.11 94.14 686.13 94.13 686.16 94.13 686.22 94.17 686.33 94.22 686.42 94.28 686.51 94.35 686.61 94.41 686.8 94.5 686.93 94.56 687.01 94.61 687.06 94.65 687.11 94.68 687.18 94.74 687.28 94.85 687.41 94.99 687.5 95.09 687.53 95.11 687.57 95.12 687.59 95.14 687.61 95.17 687.63 95.2 687.65 95.23 687.66 95.26 687.67 95.27 687.71 95.32 687.75 95.34 687.79 95.38 687.81 95.4 687.83 95.42 687.84 95.44 687.85 95.49 687.88 95.57 687.92 95.66 687.95 95.72 688.02 95.81 688.08 95.89 688.12 95.95 688.14 95.98 688.15 96.03 688.16 96.08 688.17 96.13 688.18 96.18 688.18 96.24 688.17 96.27 Z"/>
</g></svg>