<svg xmlns="http://www.w3.org/2000/svg" version="1.2" baseProfile="tiny" stroke-linecap="round" stroke-linejoin="round" viewBox="422.67 358.25 26.82 45.98"><g xmlns="http://www.w3.org/2000/svg" id="Oteitza">
<path d="M 423.32 361.82 423.33 361.81 423.35 361.8 423.61 361.61 423.66 361.58 423.84 361.45 423.99 361.17 424.22 360.76 424.23 360.63 424.24 360.49 424.24 360.48 424.25 360.45 424.24 360.36 424.24 360.34 424.22 360.25 424.36 360.15 424.39 360.13 424.42 360.1 424.44 360.08 424.46 360.05 424.48 360.03 424.51 360 424.56 359.93 424.68 359.93 424.8 359.9 424.82 359.9 424.84 359.9 424.86 359.9 424.87 359.89 424.92 359.88 424.97 359.88 424.99 359.88 425.02 359.87 425.03 359.87 425.05 359.87 425.09 359.86 425.13 359.86 425.17 359.86 425.21 359.87 425.23 359.87 425.26 359.88 425.34 359.9 425.35 359.9 425.46 359.93 425.53 359.96 425.59 359.98 425.64 359.99 425.71 360.02 425.74 360.03 425.77 360.05 425.87 360.08 425.92 360.1 425.94 360.11 426.05 360.08 426.17 360.05 426.2 360.03 426.27 360.01 426.29 360.01 426.33 359.99 426.4 359.97 426.43 359.96 426.45 359.95 426.48 359.93 426.49 359.91 426.51 359.9 426.54 359.81 426.58 359.71 426.63 359.6 426.65 359.55 426.68 359.49 426.72 359.42 426.73 359.41 426.75 359.37 426.78 359.32 426.81 359.28 426.84 359.24 426.85 359.23 426.86 359.23 426.88 359.21 426.92 359.19 426.95 359.16 426.96 359.16 426.99 359.14 427 359.13 427.06 359.11 427.13 359.08 427.2 359.06 427.31 359.01 427.37 358.99 427.41 358.97 427.42 358.97 427.5 358.94 427.53 358.93 427.6 358.91 427.66 358.89 427.73 358.88 427.79 358.87 427.84 358.86 427.86 358.85 427.89 358.85 427.93 358.84 428 358.83 428.1 358.82 428.16 358.81 428.17 358.81 428.19 358.81 428.21 358.81 428.29 358.8 428.37 358.8 428.39 358.8 428.45 358.79 428.52 358.79 428.61 358.78 428.71 358.75 428.77 358.73 428.79 358.73 428.81 358.72 428.91 358.69 429.03 358.62 429.21 358.53 429.28 358.49 429.37 358.44 429.52 358.35 429.56 358.34 429.58 358.32 429.62 358.3 429.64 358.29 429.66 358.28 429.68 358.27 429.7 358.27 429.72 358.27 429.75 358.27 429.77 358.28 429.79 358.29 429.82 358.29 429.85 358.31 429.9 358.34 429.96 358.37 430.01 358.4 430.08 358.46 430.15 358.53 430.18 358.57 430.2 358.59 430.24 358.62 430.27 358.65 430.31 358.69 430.35 358.73 430.35 358.73 430.37 358.74 430.41 358.78 430.44 358.82 430.48 358.86 430.5 358.87 430.54 358.92 430.57 358.95 430.58 358.95 430.61 358.97 430.65 358.98 430.69 358.99 430.73 359 430.74 359 430.77 359.01 430.8 359.01 430.83 359.02 430.9 359.06 430.95 359.09 431.01 359.13 431.06 359.17 431.11 359.21 431.15 359.24 431.18 359.26 431.2 359.27 431.22 359.29 431.25 359.32 431.27 359.33 431.28 359.35 431.31 359.38 431.35 359.41 431.4 359.45 431.43 359.47 431.48 359.51 431.52 359.53 431.55 359.54 431.57 359.56 431.58 359.57 431.61 359.62 431.65 359.67 431.67 359.7 431.76 359.78 431.78 359.8 431.81 359.83 431.87 359.86 431.91 359.89 431.94 359.91 432.01 359.94 432.07 359.96 432.08 359.97 432.13 359.99 432.19 360.03 432.24 360.05 432.29 360.09 432.33 360.12 432.36 360.15 432.39 360.18 432.43 360.22 432.47 360.26 432.51 360.3 432.54 360.33 432.59 360.36 432.64 360.4 432.68 360.43 432.73 360.47 432.75 360.48 432.8 360.53 432.84 360.57 432.87 360.59 432.92 360.61 432.96 360.63 433 360.65 433.05 360.67 433.12 360.71 433.18 360.75 433.23 360.8 433.28 360.83 433.3 360.84 433.38 360.89 433.43 360.93 433.44 360.94 433.56 361.04 433.64 361.09 433.7 361.14 433.74 361.18 433.78 361.21 433.8 361.26 433.84 361.34 433.87 361.4 433.89 361.44 433.92 361.49 433.96 361.54 433.98 361.55 434.01 361.56 434.07 361.64 434.1 361.68 434.13 361.73 434.16 361.77 434.21 361.81 434.25 361.86 434.3 361.91 434.31 361.92 434.31 361.93 434.31 361.95 434.31 361.97 434.32 362.03 434.32 362.05 434.32 362.09 434.33 362.13 434.34 362.2 434.35 362.24 434.37 362.27 434.4 362.3 434.47 362.37 434.56 362.46 434.58 362.48 434.63 362.51 434.66 362.52 434.67 362.54 434.68 362.55 434.7 362.57 434.71 362.59 434.74 362.66 434.77 362.77 434.8 362.84 434.89 363.09 434.91 363.09 434.92 363.09 434.92 363.09 434.96 363.1 435 363.12 435.04 363.13 435.06 363.14 435.09 363.15 435.12 363.16 435.14 363.17 435.17 363.18 435.21 363.19 435.25 363.21 435.28 363.23 435.33 363.25 435.39 363.3 435.46 363.34 435.59 363.44 435.72 363.54 435.83 363.63 435.94 363.74 436.07 363.86 436.13 363.92 436.23 364.02 436.24 364.04 436.26 364.05 436.29 364.06 436.44 364.07 436.48 364.07 436.49 364.08 436.5 364.09 436.53 364.15 436.55 364.19 436.55 364.22 436.56 364.26 436.58 364.32 436.6 364.36 436.61 364.38 436.62 364.4 436.64 364.41 436.66 364.42 436.68 364.43 436.72 364.44 436.73 364.44 436.75 364.45 436.82 364.55 436.94 364.71 437.13 364.81 437.28 364.89 437.45 364.99 437.51 365.09 437.62 365.14 437.79 365.21 437.81 365.22 437.83 365.22 437.85 365.24 437.87 365.26 437.89 365.27 437.9 365.29 437.91 365.29 437.91 365.3 437.95 365.39 438.02 365.44 438.08 365.48 438.13 365.51 438.15 365.53 438.16 365.55 438.2 365.6 438.27 365.7 438.4 365.91 438.44 365.98 438.53 366.07 438.6 366.13 438.63 366.17 438.68 366.24 438.7 366.29 438.72 366.32 438.82 366.43 438.91 366.52 438.94 366.55 438.95 366.57 438.97 366.58 439.42 366.91 439.62 367.05 439.71 367.12 439.77 367.16 439.87 367.31 439.99 367.46 439.99 367.46 440.09 367.59 440.09 367.6 440.11 367.62 440.27 367.75 440.3 367.78 440.64 368.2 440.7 368.27 440.74 368.3 440.76 368.33 440.81 368.38 440.85 368.4 440.86 368.41 440.93 368.47 440.99 368.52 441.05 368.57 441.14 368.66 441.26 368.79 441.37 368.9 441.39 368.91 441.41 368.92 441.46 368.94 441.51 368.96 441.59 368.99 441.69 369.03 441.72 369.04 441.73 369.05 441.74 369.06 441.75 369.09 441.76 369.11 441.76 369.12 441.76 369.15 441.77 369.17 441.77 369.23 441.78 369.24 441.79 369.34 441.82 369.44 441.84 369.54 441.87 369.63 441.89 369.69 441.9 369.72 441.95 369.86 441.97 369.88 441.99 369.89 442.01 369.91 442.02 369.92 442.03 369.95 442.04 369.97 442.04 370 442.06 370.04 442.08 370.07 442.1 370.12 442.1 370.12 442.1 370.13 442.13 370.17 442.15 370.19 442.2 370.24 442.26 370.31 442.3 370.36 442.34 370.41 442.39 370.55 442.44 370.67 442.47 370.77 442.5 370.83 442.53 370.86 442.53 370.87 442.55 370.88 442.55 370.89 442.56 370.9 442.61 370.94 442.68 371.02 442.73 371.06 442.74 371.13 442.76 371.22 442.77 371.25 442.78 371.26 442.81 371.34 442.84 371.42 442.87 371.49 442.89 371.54 442.91 371.6 442.92 371.66 442.93 371.7 442.95 371.77 442.96 371.84 442.97 371.91 442.97 371.94 442.98 371.96 442.98 372.04 443 372.09 443 372.12 443.01 372.14 443.01 372.24 443 372.3 442.99 372.54 442.99 372.58 443 372.61 443.13 372.83 443.19 372.99 443.24 373.11 443.28 373.22 443.29 373.28 443.31 373.38 443.33 373.45 443.34 373.5 443.34 373.57 443.34 373.65 443.33 373.79 443.32 373.94 443.31 374.09 443.31 374.17 443.31 374.22 443.32 374.25 443.31 374.31 443.31 374.36 443.32 374.43 443.32 374.45 443.32 374.47 443.33 374.5 443.32 374.56 443.32 374.62 443.31 374.65 443.3 374.7 443.31 374.92 443.32 375.1 443.32 375.18 443.32 375.23 443.32 375.27 443.33 375.3 443.33 375.34 443.35 375.4 443.37 375.44 443.42 375.49 443.48 375.56 443.5 375.59 443.51 375.6 443.52 375.61 443.92 376.01 443.93 376.03 443.95 376.04 443.99 376.08 444.01 376.1 444.09 376.16 444.19 376.24 444.28 376.3 444.35 376.35 444.44 376.4 444.55 376.46 444.66 376.52 444.75 376.57 444.79 376.59 444.82 376.6 444.91 376.63 445.01 376.66 445.1 376.7 445.14 376.71 445.17 376.73 445.2 376.74 445.23 376.77 445.25 376.81 445.47 377.16 445.48 377.17 445.5 377.17 445.52 377.17 445.55 377.17 445.58 377.18 445.65 377.19 445.72 377.2 445.76 377.21 445.81 377.23 445.85 377.23 445.9 377.23 445.95 377.23 446.01 377.23 446.06 377.23 446.16 377.25 446.22 377.25 446.26 377.26 446.3 377.28 446.31 377.28 446.36 377.28 446.41 377.28 446.48 377.27 446.55 377.27 446.57 377.27 446.58 377.27 446.67 377.27 446.69 377.27 446.77 377.27 446.85 377.27 446.94 377.27 447.03 377.26 447.11 377.26 447.17 377.26 447.27 377.26 447.38 377.26 447.39 377.26 447.44 377.26 447.45 377.27 447.51 377.29 447.59 377.32 447.72 377.36 447.84 377.4 447.95 377.43 447.96 377.43 448.03 377.45 448.13 377.46 448.22 377.31 448.27 377.41 448.33 377.48 448.37 377.54 448.38 377.55 448.49 377.68 448.55 377.75 448.6 377.8 448.65 377.84 448.71 377.92 448.72 377.93 448.76 377.97 448.81 378.04 448.9 378.15 448.99 378.26 449.04 378.33 449.05 378.35 449.08 378.39 449.12 378.47 449.15 378.54 449.19 378.62 449.22 378.68 449.26 378.78 449.3 378.87 449.35 378.98 449.4 379.1 449.43 379.16 449.44 379.18 449.47 379.23 449.45 379.26 449.43 379.28 449.43 379.3 449.43 379.32 449.43 379.34 449.43 379.36 449.42 379.38 449.41 379.41 449.41 379.42 449.41 379.44 449.41 379.47 449.41 379.49 449.41 379.51 449.4 379.53 449.39 379.55 449.38 379.56 449.36 379.57 449.35 379.57 449.33 379.58 449.29 379.59 449.26 379.6 449.23 379.61 449.22 379.62 449.21 379.63 449.18 379.65 449.14 379.67 449.11 379.69 449.08 379.71 449.07 379.72 449.06 379.73 449.05 379.73 449.02 379.75 449 379.77 448.95 379.82 448.93 379.84 448.91 379.85 448.89 379.87 448.87 379.88 448.86 379.89 448.85 379.91 448.83 379.95 448.82 379.97 448.81 379.98 448.81 380 448.8 380.01 448.78 380.08 448.75 380.15 448.72 380.2 448.68 380.24 448.63 380.29 448.59 380.32 448.55 380.34 448.54 380.35 448.51 380.36 448.47 380.38 448.4 380.41 448.37 380.42 448.31 380.48 448.29 380.48 448.28 380.48 448.26 380.48 448.24 380.49 448.22 380.5 448.17 380.52 448.15 380.53 448.14 380.54 448.13 380.55 448.13 380.55 448.11 380.57 448.08 380.6 448.07 380.64 448.06 380.68 448.04 380.72 448.02 380.75 447.99 380.78 447.97 380.81 447.95 380.84 447.91 380.88 447.88 380.9 447.85 380.93 447.81 380.96 447.78 380.99 447.76 381 447.75 381.02 447.74 381.02 447.72 381.04 447.69 381.05 447.64 381.09 447.59 381.11 447.5 381.14 447.46 381.15 447.36 381.2 447.27 381.24 447.21 381.28 447.18 381.3 447.17 381.31 447.15 381.31 447.13 381.32 447.11 381.32 447.08 381.33 447.02 381.36 446.88 381.45 446.8 381.5 446.79 381.51 446.78 381.51 446.75 381.52 446.68 381.52 446.63 381.58 446.57 381.65 446.5 381.7 446.44 381.74 446.41 381.76 446.4 381.77 446.37 381.82 446.34 381.86 446.33 381.86 446.24 381.92 446.15 381.95 446.08 382.01 445.94 382.11 445.92 382.13 445.74 382.28 445.68 382.35 445.62 382.39 445.6 382.41 445.49 382.48 445.41 382.53 445.35 382.56 445.26 382.6 445.13 382.67 445.06 382.71 445.02 382.73 444.95 382.75 444.95 382.76 444.89 382.78 444.8 382.83 444.71 382.87 444.63 382.9 444.56 382.95 444.55 382.95 444.44 383.03 444.37 383.08 444.3 383.13 444.29 383.14 444.24 383.19 444.23 383.2 444.22 383.21 444.17 383.25 444.15 383.28 444.13 383.31 444.14 383.34 444.14 383.35 444.15 383.41 444.15 383.44 444.13 383.45 444.09 383.45 444.06 383.44 444.01 383.43 443.95 383.42 443.92 383.44 443.88 383.48 443.87 383.48 443.83 383.53 443.76 383.63 443.7 383.71 443.7 383.79 443.7 383.84 443.7 383.88 443.67 383.89 443.66 383.89 443.6 383.9 443.57 383.93 443.51 383.99 443.41 384.1 443.36 384.15 443.35 384.16 443.32 384.19 443.24 384.27 443.17 384.33 443.11 384.38 443.1 384.39 443.06 384.41 443.06 384.42 442.98 384.44 442.8 384.49 442.77 384.5 442.76 384.5 442.74 384.52 442.7 384.57 442.68 384.59 442.66 384.62 442.64 384.64 442.61 384.7 442.57 384.74 442.52 384.76 442.51 384.76 442.47 384.77 442.43 384.78 442.4 384.79 442.35 384.81 442.27 384.86 442.2 384.89 442.15 384.89 442.07 384.89 442.02 384.9 441.94 384.93 441.92 384.93 441.86 384.95 441.83 384.96 441.81 384.96 441.73 384.96 441.69 384.96 441.66 384.93 441.59 384.89 441.48 384.82 441.45 384.79 441.37 384.73 441.35 384.72 441.34 384.71 441.18 384.61 441.03 384.52 440.9 384.48 440.74 384.4 440.68 384.37 440.65 384.36 440.61 384.37 440.58 384.37 440.56 384.36 440.51 384.33 440.41 384.27 440.25 384.19 440.14 384.14 440.12 384.14 440.1 384.16 440.07 384.15 440.03 384.12 439.97 384.08 439.91 384.05 439.86 384.02 439.82 383.99 439.77 383.95 439.72 383.92 439.69 383.92 439.65 383.9 439.6 383.87 439.57 383.83 439.52 383.8 439.48 383.78 439.43 383.76 439.38 383.75 439.38 383.77 439.37 383.8 439.33 383.93 439.26 384.16 439.24 384.23 439.18 384.4 439.12 384.55 439.11 384.59 439.11 384.62 439.12 384.77 439.12 384.82 439.1 384.88 439.09 384.93 439.07 384.98 439.04 385.06 439.03 385.14 439 385.23 438.94 385.33 438.93 385.37 438.93 385.4 438.92 385.43 438.89 385.47 438.86 385.51 438.84 385.54 438.82 385.59 438.82 385.67 438.82 385.67 438.82 385.69 438.82 385.76 438.82 385.82 438.78 385.91 438.75 385.98 438.72 386.07 438.64 386.26 438.59 386.37 438.57 386.44 438.56 386.48 438.55 386.5 438.55 386.51 438.54 386.63 438.53 386.7 438.51 386.75 438.49 386.79 438.45 386.83 438.4 386.86 438.37 386.9 438.33 386.97 438.3 387.04 438.28 387.06 438.23 387.2 438.18 387.34 438.15 387.4 438.08 387.52 438.02 387.64 438 387.68 437.96 387.77 437.95 387.79 437.94 387.82 437.92 387.86 437.88 387.96 437.82 388.08 437.79 388.15 437.77 388.22 437.76 388.23 437.76 388.25 437.76 388.26 437.76 388.27 437.76 388.3 437.76 388.33 437.75 388.34 437.75 388.38 437.74 388.41 437.73 388.44 437.73 388.52 437.71 388.6 437.7 388.65 437.7 388.73 437.7 388.82 437.7 388.86 437.69 388.88 437.69 388.91 437.69 388.95 437.7 388.99 437.72 389.06 437.74 389.1 437.75 389.17 437.77 389.22 437.78 389.24 437.81 389.31 437.83 389.35 437.85 389.4 437.85 389.43 437.87 389.5 437.88 389.56 437.89 389.62 437.89 389.67 437.91 389.79 437.9 389.89 437.91 390.01 437.93 390.11 437.93 390.21 437.94 390.29 437.94 390.37 437.95 390.45 437.96 390.55 437.97 390.63 437.97 390.65 437.97 390.7 437.97 390.73 437.97 390.78 437.97 390.89 437.97 390.97 437.97 391.05 437.99 391.25 438 391.42 438.01 391.6 438.01 391.61 438.01 391.62 438.03 391.66 438.06 391.71 438.08 391.73 438.09 391.76 438.07 391.79 438.06 391.82 438.06 391.84 438.05 391.86 438.06 391.88 438.06 391.89 438.07 391.91 438.07 391.93 438.07 391.97 438.07 392.01 438.06 392.04 438.06 392.07 438.05 392.1 438.04 392.13 438.03 392.16 438.02 392.18 438.01 392.21 438.01 392.23 438.02 392.29 438.05 392.39 438.05 392.43 438.06 392.46 438.06 392.49 438.06 392.52 438.06 392.55 438.06 392.6 438.05 392.64 438.05 392.65 438.05 392.69 438.05 392.71 438.04 392.75 438.04 392.78 438.02 392.84 438 392.92 437.99 392.95 437.96 393.01 437.93 393.09 437.91 393.15 437.86 393.3 437.81 393.44 437.8 393.5 437.76 393.73 437.74 393.83 437.72 393.99 437.7 394.07 437.68 394.16 437.66 394.26 437.64 394.33 437.63 394.42 437.62 394.44 437.62 394.47 437.61 394.51 437.61 394.54 437.6 394.59 437.59 394.7 437.57 394.76 437.56 394.83 437.55 394.98 437.53 395.07 437.52 395.24 437.5 395.4 437.49 395.48 437.48 395.55 437.48 395.56 437.48 395.57 437.49 395.59 437.5 395.63 437.49 395.65 437.49 395.67 437.49 395.71 437.48 395.79 437.47 396 437.46 396.04 437.45 396.19 437.42 396.39 437.39 396.53 437.39 396.6 437.39 396.69 437.39 396.76 437.4 396.83 437.41 396.9 437.41 396.91 437.42 396.92 437.42 396.97 437.43 397.01 437.44 397.06 437.45 397.1 437.45 397.15 437.44 397.21 437.45 397.29 437.44 397.41 437.44 397.49 437.42 397.58 437.42 397.62 437.42 397.68 437.43 397.77 437.43 397.79 437.43 397.8 437.42 397.86 437.4 397.94 437.39 398.02 437.38 398.1 437.37 398.22 437.35 398.37 437.34 398.53 437.34 398.54 437.33 398.7 437.33 398.81 437.33 398.84 437.29 398.94 437.24 399.06 437.2 399.19 437.18 399.29 437.15 399.4 437.13 399.54 437.11 399.62 437.09 399.71 437.08 399.77 437.05 399.86 437.04 399.92 437.03 399.95 436.97 400.15 436.97 400.21 436.96 400.28 436.96 400.3 436.96 400.41 436.92 400.55 436.92 400.57 436.92 400.59 436.89 400.74 436.88 400.79 436.82 401.05 436.78 401.28 436.74 401.48 436.74 401.5 436.7 401.75 436.66 402.03 436.65 402.04 436.62 402.14 436.59 402.25 436.58 402.3 436.58 402.33 436.25 402.39 436.22 402.39 436.17 402.41 436.13 402.44 436.08 402.48 436 402.57 435.96 402.6 435.91 402.63 435.85 402.67 435.78 402.7 435.71 402.73 435.67 402.74 435.65 402.75 435.63 402.75 435.6 402.75 435.58 402.75 435.55 402.75 435.52 402.74 435.5 402.72 435.49 402.7 435.48 402.68 435.46 402.67 435.45 402.66 435.43 402.66 435.4 402.66 435.36 402.67 435.33 402.67 435.29 402.67 435.25 402.67 435.23 402.67 435.11 402.62 435.03 402.57 435.02 402.56 435 402.56 434.99 402.55 434.97 402.54 434.85 402.52 434.82 402.51 434.8 402.51 434.74 402.49 434.72 402.49 434.67 402.38 434.45 401.92 434.35 401.93 434.22 401.94 434.21 401.94 434.09 401.96 433.97 402.04 433.77 402.17 433.76 402.18 433.66 402.21 433.61 402.23 433.53 402.25 433.48 402.27 433.43 402.27 433.37 402.28 433.28 402.28 433.14 402.28 433.01 402.29 432.96 402.3 432.92 402.3 432.82 402.31 432.74 402.37 432.67 402.43 432.55 402.51 432.53 402.53 432.49 402.56 432.39 402.63 432.32 402.69 432.19 402.77 432.09 402.83 431.84 402.99 431.8 403.03 431.63 403.17 431.59 403.2 431.55 403.28 431.48 403.35 431.47 403.36 431.39 403.43 431.37 403.45 431.34 403.48 431.33 403.49 431.31 403.52 431.28 403.55 431.27 403.55 431.24 403.58 431.21 403.63 431.13 403.68 431.05 403.73 430.94 403.8 430.86 403.84 430.82 403.87 430.75 403.92 430.66 403.98 430.55 404.05 430.52 404.07 430.5 404.09 430.39 404.11 430.35 404.13 430.26 404.17 430.21 404.18 430.11 404.18 430 404.2 429.94 404.2 429.73 404.2 429.61 404.18 429.55 404.17 429.45 404.14 429.37 404.13 429.28 404.13 429.19 404.13 429.07 404.11 428.9 404.11 428.81 404.09 428.71 404.08 428.68 404.07 428.5 404.05 428.4 404.04 428.34 404.05 428.32 404.05 428.27 404.05 428.24 404.05 428.13 404.06 428.01 404.06 427.94 404.05 427.8 404.03 427.71 404.01 427.6 404 427.49 403.99 427.34 403.96 427.29 403.91 427.19 403.73 427.12 403.61 427.07 403.54 427.06 403.52 427.05 403.5 427.02 403.47 427 403.44 426.91 403.35 426.82 403.26 426.73 403.16 426.72 403.16 426.67 403.14 426.66 403.13 426.56 403.1 426.41 403.03 426.28 402.97 426.21 402.94 426.15 402.9 426.1 402.88 426.07 402.86 426.02 402.82 426.01 402.81 425.98 402.78 425.95 402.75 425.92 402.72 425.91 402.68 425.9 402.64 425.89 402.63 425.88 402.56 425.88 402.49 425.88 402.48 425.9 402.39 425.9 402.36 425.91 402.32 425.92 402.29 425.93 402.27 425.96 402.2 426.04 401.95 426.04 401.93 426.06 401.88 426.08 401.84 426.09 401.81 426.1 401.77 426.11 401.71 426.12 401.64 426.11 401.51 426.11 401.43 426.11 401.37 426.12 401.23 426.11 401.07 426.11 400.93 426.1 400.8 426.07 400.74 426.04 400.68 426.04 400.67 426 400.61 425.99 400.57 425.97 400.55 425.86 400.55 425.81 400.55 425.81 400.52 425.8 400.48 425.8 400.45 425.78 400.43 425.75 400.42 425.7 400.4 425.62 400.39 425.53 400.39 425.42 400.41 425.22 400.48 425.07 400.53 425 400.54 424.97 400.53 424.95 400.52 424.93 400.5 424.92 400.47 424.92 400.42 424.92 400.35 424.93 400.27 424.96 400.17 425 400.09 425.2 399.77 425.39 399.5 425.49 399.35 425.56 399.23 425.58 399.17 425.59 399.14 425.59 399.09 425.58 398.97 425.53 398.75 425.47 398.56 425.45 398.45 425.42 398.38 425.38 398.3 425.32 398.22 425.25 398.14 425.15 398.04 425.06 397.97 425.04 397.96 424.99 397.92 424.91 397.82 424.86 397.77 424.81 397.74 424.76 397.73 424.69 397.72 424.55 397.71 424.37 397.71 424.25 397.68 424.15 397.65 424.1 397.62 424.07 397.59 424.06 397.55 424.05 397.49 424.06 397.42 424.08 397.37 424.11 397.32 424.15 397.27 424.35 397.12 424.38 397.09 424.4 397.06 424.41 397.02 424.41 396.98 424.41 396.96 424.42 396.95 424.43 396.94 424.46 396.92 424.49 396.91 424.66 396.9 424.71 396.88 424.73 396.86 424.77 396.82 424.81 396.76 424.85 396.68 424.88 396.6 424.91 396.47 424.98 396.15 425 396.03 424.99 395.93 424.97 395.86 424.91 395.68 424.78 395.3 424.74 395.22 424.69 395.15 424.63 395.09 424.43 394.94 424.18 394.7 424.03 394.54 423.91 394.39 423.86 394.3 423.83 394.22 423.8 394.13 423.77 394.08 423.72 394.02 423.64 393.96 423.58 393.89 423.49 393.73 423.33 393.41 423.2 393.16 423.04 392.94 422.86 392.69 422.72 392.5 422.69 392.44 422.69 392.4 422.7 392.32 422.74 392.27 422.85 392.15 422.95 392.05 423 391.98 423.12 391.79 423.2 391.69 423.3 391.61 423.4 391.53 423.45 391.48 423.48 391.41 423.51 391.32 423.55 391.27 423.61 391.21 423.98 390.96 424.13 390.85 424.23 390.75 424.24 390.73 424.25 390.72 424.27 390.68 424.27 390.64 424.27 390.59 424.24 390.52 424.17 390.42 424.14 390.36 424.13 390.33 424.13 390.28 424.14 390.23 424.18 390.15 424.33 389.91 424.48 389.63 424.56 389.46 424.59 389.34 424.61 389.23 424.62 389.05 424.61 388.91 424.59 388.8 424.56 388.69 424.52 388.59 424.47 388.5 424.41 388.44 424.37 388.39 424.36 388.35 424.36 388.3 424.38 388.23 424.41 388.16 424.45 388.13 424.5 388.1 424.64 388.06 424.83 388.03 425.07 388.02 425.14 388.01 425.22 387.99 425.28 387.96 425.36 387.91 425.43 387.85 425.47 387.8 425.5 387.75 425.55 387.67 425.59 387.58 425.6 387.56 425.63 387.51 425.68 387.46 425.73 387.43 425.8 387.4 425.88 387.36 425.93 387.33 425.96 387.28 426.02 387.18 426.04 387.12 426.03 387.06 426.02 387 426 386.95 425.97 386.9 425.9 386.85 425.83 386.78 425.75 386.72 425.67 386.67 425.56 386.59 425.47 386.51 425.36 386.43 425.27 386.38 425.2 386.33 425.12 386.27 425.07 386.23 425.01 386.22 424.97 386.22 424.91 386.18 424.82 386.08 424.75 385.94 424.66 385.72 424.57 385.52 424.53 385.41 424.5 385.38 424.46 385.35 424.39 385.31 424.3 385.24 424.22 385.16 424.15 385.12 424.11 385.08 424.06 384.99 423.99 384.84 423.99 384.76 424.01 384.7 424.06 384.63 424.07 384.56 424.07 384.49 424.04 384.4 423.99 384.31 423.93 384.17 423.9 384.09 423.86 384.04 423.8 384 423.77 383.94 423.76 383.87 423.76 383.81 423.78 383.76 423.84 383.7 423.89 383.65 423.92 383.6 423.92 383.58 423.95 383.51 424.02 383.45 424.1 383.44 424.14 383.43 424.18 383.42 424.2 383.42 424.21 383.41 424.23 383.39 424.25 383.37 424.26 383.33 424.25 383.28 424.2 383.22 424.16 383.17 424.08 383.09 424.01 383.04 423.94 383 423.86 382.98 423.77 382.96 423.67 382.94 423.6 382.92 423.51 382.89 423.44 382.87 423.34 382.85 423.29 382.84 423.26 382.82 423.21 382.79 423.16 382.75 423.1 382.68 423.04 382.59 423.03 382.56 423.03 382.52 423.04 382.48 423.08 382.4 423.11 382.35 423.19 382.28 423.25 382.24 423.3 382.21 423.39 382.18 423.49 382.14 423.62 382.1 423.65 382.09 423.78 382.03 423.87 381.97 423.96 381.9 424.1 381.79 424.17 381.73 424.3 381.62 424.34 381.59 424.37 381.55 424.38 381.53 424.39 381.48 424.41 381.3 424.41 381.2 424.41 381.09 424.39 380.98 424.38 380.88 424.36 380.81 424.35 380.77 424.32 380.67 424.31 380.63 424.3 380.58 424.28 380.52 424.24 380.41 424.2 380.33 424.15 380.26 424.07 380.18 424.1 380.13 424.17 380.07 424.19 380.05 424.2 380.04 424.22 380.02 424.35 379.91 424.38 379.89 424.39 379.88 424.42 379.86 424.45 379.85 424.47 379.84 424.51 379.83 424.55 379.83 424.58 379.82 424.6 379.82 424.62 379.83 424.68 379.83 424.71 379.85 424.82 379.89 424.91 379.93 424.94 379.95 424.98 379.98 425.13 380.12 425.17 380.15 425.22 380.18 425.23 380.18 425.24 380.19 425.36 380.2 425.53 380.23 425.59 380.25 425.63 380.26 425.71 380.31 425.76 380.36 425.77 380.38 425.8 380.4 425.94 380.58 425.98 380.62 426.14 380.73 426.32 380.85 426.38 380.87 426.45 380.9 426.53 380.93 426.74 380.95 426.8 380.95 427.06 380.97 427.35 381 427.46 381.01 427.68 380.91 427.76 380.88 427.82 380.85 428.04 380.76 428.08 380.75 428.26 380.67 428.27 380.67 428.28 380.67 428.47 380.64 428.52 380.64 428.84 380.59 429.02 380.58 429.11 380.58 429.27 380.57 429.34 380.58 429.42 380.58 429.56 380.56 429.57 380.57 429.69 380.68 429.73 380.7 429.76 380.71 430.09 380.74 430.18 380.74 430.21 380.74 430.32 380.74 430.37 380.74 430.42 380.76 430.43 380.77 430.44 380.77 430.45 380.78 430.47 380.79 430.48 380.79 430.5 380.8 430.53 380.82 430.66 380.89 430.72 380.91 430.84 380.92 430.85 380.93 430.98 380.95 431.02 380.96 431.03 380.96 431.04 380.96 431.06 380.97 431.1 380.97 431.12 380.97 431.14 380.98 431.16 380.98 431.2 380.98 431.23 380.99 431.27 381 431.33 381.03 431.39 381.05 431.43 381.06 431.47 381.07 431.51 381.07 431.55 381.07 431.57 381.07 431.58 381.07 431.61 381.06 431.69 381.04 431.73 381.04 431.76 381.03 431.78 381.03 431.81 381.02 431.9 381.01 431.97 381 432.01 380.99 432.02 380.99 432.08 380.97 432.22 380.92 432.42 380.84 432.52 380.8 432.58 380.79 432.59 380.78 432.6 380.78 432.63 380.78 432.79 380.77 432.83 380.76 432.86 380.75 432.92 380.76 432.94 380.76 433.02 380.77 433.11 380.8 433.27 380.8 433.34 380.81 433.4 380.81 433.45 380.82 433.53 380.84 433.63 380.87 433.64 380.87 433.71 380.89 433.73 380.89 433.75 380.88 433.75 380.88 433.76 380.88 433.77 380.88 433.79 380.88 433.81 380.88 433.88 380.89 433.92 380.9 434.01 380.93 434.11 380.96 434.2 380.98 434.24 380.99 434.27 380.99 434.42 381.03 434.48 381.04 434.6 381.08 434.81 381.15 434.83 381.16 434.88 381.18 434.88 381.15 434.89 381.08 434.9 381.01 434.91 381 434.91 380.98 434.93 380.89 434.95 380.8 434.97 380.7 434.97 380.68 434.98 380.66 434.99 380.59 434.99 380.53 434.99 380.48 434.96 380.39 434.95 380.35 434.94 380.29 434.92 380.19 434.92 380.15 434.88 379.94 434.88 379.86 434.87 379.79 434.86 379.72 434.85 379.68 434.84 379.65 434.81 379.55 434.81 379.53 434.81 379.49 434.77 379.36 434.73 379.19 434.73 379.18 434.71 379.13 434.68 379 434.65 378.88 434.64 378.82 434.62 378.7 434.61 378.63 434.59 378.48 434.57 378.38 434.54 378.21 434.53 378.18 434.53 378.13 434.54 378.06 434.54 378 434.53 377.92 434.51 377.82 434.49 377.69 434.48 377.62 434.48 377.56 434.46 377.5 434.43 377.42 434.38 377.31 434.35 377.24 434.32 377.17 434.28 377.08 434.15 376.83 434.11 376.72 434.07 376.58 434.05 376.45 434.01 376.32 433.96 376.14 433.93 376.03 433.93 376.01 433.91 375.92 433.86 375.81 433.83 375.72 433.82 375.66 433.82 375.6 433.82 375.45 433.82 375.37 433.81 375.32 433.79 375.22 433.79 375.19 433.77 375.08 433.75 374.92 433.73 374.87 433.71 374.78 433.69 374.71 433.66 374.7 433.5 374.61 433.46 374.59 433.36 374.54 433.32 374.52 433.11 374.39 432.95 374.32 432.84 374.25 432.66 374.14 432.51 374.06 432.5 374.05 432.44 374.01 432.31 373.94 432.22 373.88 432.17 373.85 432.13 373.83 431.95 373.79 431.9 373.77 431.78 373.74 431.68 373.7 431.6 373.67 431.49 373.63 431.38 373.58 431.3 373.55 431.09 373.43 431.08 373.42 431.06 373.41 430.57 373.46 430.58 373.4 430.56 373.39 430.55 373.39 430.5 373.36 430.33 373.25 430.01 373.08 429.85 372.99 429.84 372.98 429.73 372.89 429.66 372.86 429.62 372.85 429.59 372.84 429.56 372.79 429.55 372.75 429.51 372.69 429.48 372.63 429.44 372.55 429.43 372.55 429.38 372.48 429.35 372.44 429.31 372.39 429.28 372.37 429.22 372.33 429.21 372.33 429.17 372.29 429.11 372.23 429.04 372.19 429.03 372.18 429.03 372.16 429.03 372.14 429.05 372.06 429.06 372.02 429.07 371.95 429.08 371.9 429.09 371.82 429.08 371.77 429.07 371.72 429.04 371.66 429 371.57 428.93 371.45 428.91 371.42 428.87 371.4 428.78 371.33 428.7 371.28 428.68 371.26 428.66 371.25 428.61 371.22 428.55 371.2 428.47 371.16 428.46 371.16 428.44 371.15 428.28 371.08 428.11 371.01 427.99 370.96 427.95 370.94 427.88 370.9 427.76 370.8 427.68 370.71 427.54 370.54 427.47 370.47 427.29 370.31 427.24 370.27 427.17 370.23 427.13 370.2 427.1 370.18 426.98 370.06 426.86 369.95 426.64 369.77 426.54 369.69 426.45 369.61 426.34 369.5 426.21 369.37 426.14 369.3 426.02 369.16 425.97 369.09 425.96 369.07 425.95 369.05 425.93 369.02 425.92 369 425.9 368.93 425.89 368.9 425.89 368.89 425.88 368.87 425.84 368.77 425.83 368.68 425.83 368.58 425.83 368.47 425.82 368.38 425.81 368.35 425.75 368.27 425.73 368.23 425.62 368.08 425.6 368.05 425.55 367.99 425.47 367.89 425.43 367.84 425.38 367.78 425.32 367.69 425.31 367.68 425.21 367.51 425.18 367.46 425.16 367.44 425.11 367.37 425.11 367.36 425.06 367.31 424.99 367.25 424.98 367.24 424.9 367.18 424.73 367.05 424.67 367 424.61 366.93 424.54 366.81 424.52 366.79 424.51 366.76 424.47 366.66 424.44 366.62 424.37 366.56 424.32 366.51 424.26 366.46 424.22 366.43 424.21 366.41 424.19 366.37 424.17 366.32 424.13 366.23 424.07 366.12 424.06 366.1 424.05 366.07 424 366 423.99 365.98 423.97 365.94 423.96 365.93 423.95 365.9 423.92 365.82 423.91 365.79 423.91 365.76 423.94 365.69 423.94 365.67 423.95 365.46 423.95 365.38 423.97 365.31 424.01 365.15 424.04 365.06 424.05 364.99 424.05 364.97 424.09 364.83 424.11 364.78 424.15 364.67 424.17 364.65 424.22 364.56 424.29 364.46 424.45 364.26 424.51 364.17 424.55 364.11 424.56 364.08 424.57 364.06 424.6 363.96 424.6 363.94 424.67 363.89 424.69 363.87 424.77 363.78 424.81 363.74 424.82 363.73 424.85 363.7 424.92 363.61 425.19 363.23 425.02 363.07 424.82 362.89 424.67 362.82 424.55 362.76 424.5 362.7 424.4 362.56 424.34 362.46 424.28 362.37 424.23 362.29 424.16 362.23 424.13 362.2 424.06 362.16 423.99 362.11 423.95 362.08 423.89 362.05 423.81 362 423.76 361.97 423.73 361.96 423.71 361.95 423.63 361.92 423.59 361.9 423.57 361.89 423.51 361.87 423.43 361.85 423.32 361.82 Z"/>
</g></svg>