<svg xmlns="http://www.w3.org/2000/svg" version="1.2" baseProfile="tiny" stroke-linecap="round" stroke-linejoin="round" viewBox="653.25 203.92 57.35 50.32"><g xmlns="http://www.w3.org/2000/svg" id="Otsagabia">
<path d="M 677.33 208.99 677.45 208.99 677.56 209 677.63 209 677.73 209.02 677.79 209.07 677.83 209.14 677.84 209.23 677.83 209.3 677.72 209.44 677.69 209.47 677.65 209.51 677.6 209.55 677.57 209.6 677.55 209.69 677.52 209.78 677.52 209.79 677.51 209.84 677.51 209.85 677.5 209.91 677.49 209.93 677.46 210.11 677.42 210.26 677.4 210.35 677.39 210.42 677.31 210.57 677.3 210.58 677.15 210.74 677.13 210.78 677.14 210.81 677.16 210.84 677.23 210.86 677.27 210.87 677.36 210.93 677.42 211 677.45 211.07 677.45 211.15 677.46 211.26 677.46 211.42 677.48 211.54 677.48 211.69 677.47 211.77 677.45 211.84 677.4 211.92 677.37 211.95 677.36 211.97 677.3 212.03 677.19 212.15 677.17 212.18 677.08 212.27 677.02 212.34 677.02 212.35 677.02 212.37 677.03 212.4 677.04 212.41 677.05 212.43 677.06 212.44 677.07 212.46 677.08 212.47 677.09 212.47 677.11 212.48 677.13 212.49 677.14 212.49 677.15 212.5 677.18 212.5 677.23 212.51 677.3 212.51 677.34 212.51 677.37 212.51 677.41 212.51 677.44 212.52 677.47 212.52 677.49 212.53 677.52 212.54 677.54 212.55 677.6 212.58 677.67 212.62 677.71 212.64 677.76 212.66 677.8 212.67 677.85 212.69 677.93 212.71 677.97 212.73 678.01 212.73 678.03 212.74 678.06 212.74 678.09 212.73 678.12 212.73 678.2 212.73 678.24 212.73 678.27 212.73 678.29 212.74 678.3 212.75 678.31 212.76 678.32 212.77 678.33 212.79 678.35 212.83 678.36 212.86 678.39 212.97 678.4 213.02 678.41 213.05 678.43 213.07 678.44 213.09 678.45 213.1 678.47 213.11 678.48 213.12 678.5 213.13 678.52 213.14 678.55 213.14 678.57 213.14 678.59 213.14 678.61 213.14 678.62 213.13 678.65 213.12 678.67 213.11 678.71 213.07 678.79 213.02 678.83 213 678.87 212.98 678.91 212.97 678.94 212.97 678.97 212.97 678.99 212.97 679.01 212.97 679.02 212.98 679.03 212.99 679.05 213 679.06 213.01 679.09 213.05 679.11 213.07 679.14 213.13 679.16 213.17 679.18 213.22 679.2 213.27 679.21 213.3 679.21 213.33 679.22 213.35 679.23 213.37 679.25 213.39 679.26 213.41 679.29 213.43 679.3 213.44 679.32 213.45 679.35 213.46 679.37 213.47 679.38 213.47 679.39 213.47 679.41 213.46 679.43 213.46 679.45 213.45 679.48 213.43 679.51 213.41 679.53 213.39 679.54 213.39 679.56 213.38 679.6 213.39 679.64 213.39 679.66 213.39 679.69 213.39 679.71 213.4 679.74 213.41 679.75 213.42 679.76 213.42 679.77 213.44 679.79 213.47 679.81 213.48 679.82 213.49 679.85 213.5 679.87 213.51 679.9 213.52 679.93 213.53 679.96 213.53 679.99 213.53 680.03 213.54 680.05 213.54 680.08 213.54 680.11 213.55 680.13 213.55 680.15 213.56 680.17 213.57 680.18 213.58 680.2 213.6 680.21 213.62 680.26 213.75 680.29 213.79 680.3 213.81 680.32 213.84 680.33 213.85 680.36 213.86 680.38 213.87 680.4 213.88 680.43 213.88 680.47 213.89 680.49 213.89 680.53 213.89 680.58 213.88 680.65 213.88 680.7 213.87 680.72 213.87 680.74 213.87 680.76 213.88 680.78 213.89 680.8 213.9 680.81 213.91 680.84 213.95 680.86 213.99 680.88 214.01 680.89 214.03 680.91 214.05 680.93 214.06 680.95 214.08 680.97 214.09 681 214.11 681.04 214.12 681.07 214.14 681.1 214.14 681.14 214.15 681.28 214.17 681.41 214.19 681.56 214.2 681.62 214.2 681.71 214.19 681.81 214.17 681.89 214.15 681.95 214.16 682.01 214.18 682.09 214.21 682.18 214.23 682.3 214.26 682.39 214.28 682.44 214.28 682.53 214.27 682.59 214.25 682.67 214.24 682.76 214.24 682.83 214.23 682.91 214.24 682.96 214.27 683.02 214.3 683.13 214.32 683.22 214.33 683.3 214.33 683.35 214.3 683.41 214.29 683.47 214.28 683.51 214.29 683.55 214.3 683.59 214.33 683.61 214.4 683.69 214.5 683.76 214.55 683.83 214.59 683.87 214.61 683.89 214.61 683.99 214.63 684.1 214.65 684.23 214.67 684.34 214.68 684.46 214.71 684.46 214.71 684.48 214.71 684.57 214.72 684.74 214.75 684.83 214.75 684.96 214.73 684.98 214.73 684.99 214.72 685.08 214.7 685.23 214.66 685.4 214.6 685.54 214.55 685.81 214.46 685.92 214.43 686.03 214.39 686.09 214.37 686.16 214.35 686.24 214.33 686.31 214.32 686.38 214.32 686.53 214.36 686.68 214.4 686.83 214.46 686.98 214.49 687.14 214.53 687.3 214.55 687.48 214.57 687.62 214.58 687.82 214.59 688.03 214.61 688.25 214.63 688.47 214.65 688.62 214.66 688.73 214.67 688.76 214.67 688.91 214.68 688.99 214.7 689.09 214.73 689.24 214.77 689.34 214.79 689.46 214.79 689.53 214.79 689.67 214.78 689.77 214.76 689.85 214.74 689.96 214.67 690.07 214.8 690.13 214.86 690.17 214.9 690.21 214.91 690.25 214.9 690.32 214.87 690.4 214.85 690.53 214.81 690.58 214.81 690.63 214.83 690.74 214.89 690.81 214.93 690.87 214.94 690.94 214.94 690.99 214.94 691.03 214.95 691.08 214.99 691.13 215.06 691.15 215.15 691.16 215.24 691.14 215.35 691.1 215.51 691.14 215.48 691.2 215.44 691.25 215.4 691.31 215.36 691.37 215.32 691.44 215.3 691.51 215.27 691.59 215.27 691.65 215.26 691.75 215.24 691.81 215.22 691.89 215.19 691.95 215.17 692 215.15 692.06 215.14 692.11 215.14 692.18 215.14 692.23 215.14 692.28 215.13 692.34 215.13 692.38 215.13 692.42 215.16 692.47 215.23 692.53 215.3 692.6 215.35 692.66 215.4 692.74 215.44 692.81 215.48 692.89 215.58 692.94 215.64 693.04 215.7 693.14 215.75 693.22 215.78 693.33 215.81 693.44 215.83 693.55 215.86 693.66 215.89 693.78 215.92 693.86 215.95 693.93 215.97 694.01 215.99 694.09 216.02 694.18 216.06 694.26 216.08 694.32 216.1 694.39 216.11 694.46 216.1 694.56 216.08 694.64 216.05 694.72 216.03 694.8 216.02 694.86 216 694.91 215.96 694.95 215.94 694.98 215.92 695.03 215.93 695.08 215.92 695.13 215.89 695.17 215.87 695.22 215.85 695.28 215.84 695.34 215.82 695.41 215.8 695.49 215.77 695.53 215.75 695.63 215.68 695.7 215.63 695.78 215.59 695.82 215.57 695.87 215.56 695.95 215.57 696.13 215.52 696.25 215.49 696.34 215.46 696.43 215.43 696.52 215.4 696.58 215.38 696.7 215.46 696.72 215.47 696.8 215.53 696.85 215.56 696.87 215.58 696.95 215.63 696.99 215.66 697.05 215.69 697.17 215.65 697.28 215.63 697.35 215.62 697.45 215.61 697.57 215.61 697.67 215.63 697.76 215.65 697.87 215.68 698.01 215.74 698.12 215.8 698.22 215.84 698.36 215.89 698.57 215.93 698.65 215.95 698.75 215.99 698.82 216.02 698.9 216.09 698.98 216.14 699.04 216.2 699.12 216.25 699.18 216.3 699.24 216.36 699.32 216.42 699.4 216.49 699.48 216.56 699.55 216.64 699.61 216.71 699.66 216.77 699.72 216.83 699.79 216.9 699.84 216.97 699.9 217.03 699.97 217.1 700.02 217.15 700.06 217.23 700.11 217.3 700.14 217.37 700.17 217.46 700.2 217.53 700.24 217.61 700.27 217.68 700.31 217.76 700.33 217.81 700.36 217.89 700.39 217.97 700.42 218.08 700.45 218.16 700.48 218.25 700.51 218.35 700.53 218.43 700.57 218.52 700.6 218.62 700.64 218.72 700.66 218.78 700.7 218.88 700.74 218.95 700.79 219.05 700.85 219.13 700.89 219.2 700.93 219.26 700.96 219.33 700.99 219.39 701.02 219.45 701.05 219.51 701.08 219.58 701.09 219.63 701.11 219.69 701.12 219.77 701.14 219.86 701.17 219.99 701.18 220.02 701.2 220.11 701.23 220.18 701.26 220.25 701.31 220.34 701.33 220.41 701.34 220.47 701.34 220.53 701.35 220.58 701.35 220.61 701.36 220.64 701.36 220.68 701.37 220.74 701.38 220.78 701.4 220.87 701.42 220.91 701.44 220.94 701.45 220.96 701.51 221 701.56 221.03 701.65 221.14 701.74 221.25 701.84 221.37 701.92 221.47 702.03 221.59 702.11 221.69 702.18 221.78 702.27 221.89 702.31 221.94 702.44 222.03 702.65 222.16 702.68 222.18 702.73 222.23 702.8 222.29 702.9 222.37 703 222.44 703.13 222.52 703.29 222.59 703.35 222.6 703.4 222.62 703.48 222.69 703.54 222.75 703.58 222.8 703.67 222.84 703.8 222.87 703.87 222.9 703.93 222.91 704.02 222.92 704.1 222.93 704.17 222.96 704.26 222.99 704.35 223.02 704.44 223.06 704.53 223.09 704.6 223.12 704.67 223.16 704.74 223.21 704.81 223.28 704.9 223.35 704.95 223.4 705 223.44 705.04 223.45 705.15 223.48 705.25 223.49 705.35 223.49 705.44 223.5 705.58 223.51 705.68 223.52 705.76 223.53 705.81 223.55 705.87 223.56 705.99 223.6 706.07 223.62 706.15 223.64 706.19 223.66 706.23 223.68 706.28 223.69 706.34 223.69 706.43 223.69 706.48 223.69 706.51 223.71 706.56 223.75 706.64 223.81 706.71 223.87 706.78 223.94 706.8 223.97 706.85 223.99 706.92 224.01 707.02 224.06 707.11 224.08 707.21 224.1 707.28 224.12 707.33 224.14 707.37 224.16 707.42 224.19 707.46 224.22 707.53 224.3 707.57 224.35 707.61 224.43 707.64 224.48 707.7 224.52 707.75 224.56 707.8 224.6 707.85 224.67 707.92 224.73 707.97 224.78 708.01 224.81 708.06 224.83 708.11 224.84 708.18 224.86 708.24 224.89 708.3 224.92 708.37 224.96 708.43 225.02 708.49 225.09 708.54 225.15 708.6 225.23 708.64 225.31 708.7 225.41 708.73 225.48 708.76 225.56 708.8 225.63 708.84 225.71 708.87 225.77 708.9 225.83 708.97 225.99 709 226.08 709.03 226.16 709.06 226.24 709.1 226.33 709.12 226.39 709.14 226.45 709.16 226.51 709.17 226.58 709.18 226.67 709.2 226.75 709.22 226.82 709.23 226.85 709.28 226.9 709.33 226.95 709.41 227 709.56 227.08 709.7 227.15 709.82 227.2 709.91 227.24 710.01 227.28 710.17 227.33 710.35 227.37 710.48 227.39 710.59 227.42 710.53 227.55 710.48 227.66 710.44 227.74 710.44 227.76 710.43 227.77 710.39 227.86 710.35 227.94 710.31 228.08 710.24 228.25 710.18 228.38 710.1 228.59 710.05 228.74 710.01 228.87 710.01 228.98 710.01 229.09 710.01 229.17 709.93 229.28 709.86 229.38 709.81 229.45 709.78 229.49 709.75 229.51 709.69 229.59 709.55 229.74 709.41 229.98 709.44 230.18 709.47 230.42 709.49 230.64 709.49 230.64 709.44 230.66 709.38 230.69 709.33 230.7 709.32 230.71 709.3 230.73 709.26 230.77 709.24 230.79 709.21 230.82 709.18 230.83 709.15 230.85 709.13 230.88 709.1 230.9 709.08 230.93 709.06 230.96 709.03 231.01 709 231.05 708.99 231.08 708.97 231.09 708.96 231.11 708.94 231.11 708.92 231.12 708.9 231.13 708.87 231.15 708.84 231.16 708.79 231.18 708.74 231.19 708.69 231.2 708.65 231.21 708.62 231.22 708.59 231.24 708.56 231.26 708.52 231.29 708.48 231.33 708.44 231.36 708.38 231.42 708.37 231.43 708.36 231.44 708.36 231.45 708.35 231.46 708.35 231.5 708.35 231.51 708.34 231.53 708.34 231.54 708.34 231.54 708.33 231.57 708.32 231.58 708.32 231.58 708.3 231.61 708.25 231.65 708.2 231.7 708.17 231.74 708.11 231.84 708.11 231.86 708.1 231.87 708.1 231.89 708.09 231.91 708.05 232.01 708.04 232.04 708.04 232.05 708.03 232.06 708.02 232.07 708.02 232.08 708.01 232.1 708 232.13 707.99 232.14 707.99 232.15 707.99 232.16 707.99 232.18 707.98 232.19 707.98 232.2 707.99 232.26 707.99 232.34 707.99 232.37 707.98 232.4 707.97 232.43 707.95 232.57 707.92 232.67 707.92 232.69 707.92 232.7 707.92 232.7 707.92 232.72 707.91 232.73 707.91 232.74 707.91 232.76 707.9 232.78 707.87 232.89 707.86 232.9 707.86 232.91 707.86 232.92 707.86 232.94 707.86 233.08 707.86 233.09 707.85 233.11 707.85 233.12 707.85 233.14 707.84 233.15 707.84 233.16 707.83 233.17 707.82 233.2 707.79 233.23 707.75 233.28 707.59 233.43 707.58 233.45 707.57 233.46 707.56 233.47 707.56 233.48 707.55 233.49 707.55 233.51 707.55 233.52 707.54 233.57 707.54 233.58 707.53 233.59 707.52 233.6 707.49 233.61 707.46 233.62 707.45 233.62 707.44 233.63 707.44 233.64 707.43 233.65 707.43 233.66 707.42 233.67 707.42 233.68 707.41 233.69 707.41 233.72 707.39 233.81 707.39 233.84 707.38 233.86 707.37 233.89 707.36 233.91 707.35 233.93 707.31 233.98 707.29 234.01 707.28 234.04 707.27 234.05 707.27 234.05 707.26 234.06 707.26 234.07 707.26 234.08 707.25 234.09 707.24 234.15 707.23 234.23 707.22 234.3 707.2 234.39 707.19 234.51 707.18 234.58 707.17 234.6 707.17 234.61 707.17 234.62 707.17 234.64 707.17 234.65 707.17 234.66 707.16 234.68 707.16 234.69 707.16 234.7 707.16 234.7 707.15 234.72 707.13 234.79 707.11 234.84 707.1 234.86 707.08 234.9 707.07 234.93 707.06 234.94 707.05 234.97 707.04 234.98 707.04 234.99 707.04 235 707.04 235.02 707.04 235.03 707.03 235.04 707.03 235.09 707.02 235.24 707.02 235.32 707.02 235.33 707.02 235.34 707.02 235.36 707.01 235.37 707 235.41 706.96 235.57 706.91 235.72 706.88 235.8 706.87 235.84 706.85 235.87 706.84 235.89 706.82 235.91 706.81 235.94 706.79 235.96 706.77 235.98 706.72 236.03 706.66 236.08 706.61 236.12 706.6 236.13 706.59 236.14 706.58 236.16 706.57 236.17 706.53 236.21 706.49 236.25 706.47 236.25 706.46 236.26 706.45 236.27 706.24 236.41 706.14 236.48 706.07 236.53 706.01 236.56 705.92 236.63 705.83 236.68 705.7 236.74 705.54 236.82 705.45 236.86 705.43 236.88 705.42 236.88 705.4 236.9 705.38 236.91 705.36 236.93 705.33 236.95 705.19 237.05 705.19 237.06 705.17 237.07 705.13 237.09 705.08 237.13 705.01 237.2 705 237.21 704.99 237.22 704.98 237.23 704.96 237.25 704.95 237.26 704.94 237.28 704.92 237.31 704.87 237.37 704.85 237.41 704.84 237.43 704.83 237.43 704.83 237.44 704.82 237.45 704.79 237.47 704.78 237.48 704.78 237.49 704.74 237.51 704.73 237.51 704.73 237.5 704.74 237.49 704.75 237.48 704.76 237.47 704.76 237.46 704.76 237.45 704.76 237.44 704.76 237.43 704.76 237.42 704.76 237.39 704.76 237.37 704.76 237.36 704.76 237.34 704.76 237.33 704.76 237.33 704.76 237.29 704.76 237.28 704.76 237.27 704.76 237.26 704.76 237.25 704.76 237.24 704.76 237.23 704.77 237.22 704.77 237.21 704.77 237.18 704.76 237.14 704.75 237.11 704.74 237.1 704.74 237.1 704.73 237.09 704.72 237.08 704.71 237.08 704.7 237.07 704.67 236.99 704.66 236.97 704.66 236.95 704.63 236.89 704.62 236.87 704.62 236.86 704.62 236.85 704.61 236.83 704.61 236.81 704.61 236.8 704.61 236.79 704.62 236.78 704.62 236.77 704.62 236.77 704.62 236.75 704.63 236.75 704.66 236.71 704.74 236.62 704.75 236.61 704.76 236.6 704.77 236.57 704.78 236.55 704.79 236.54 704.79 236.53 704.79 236.52 704.79 236.51 704.79 236.49 704.79 236.48 704.79 236.47 704.79 236.45 704.79 236.45 704.79 236.44 704.79 236.43 704.75 236.33 704.75 236.32 704.74 236.3 704.73 236.29 704.73 236.28 704.73 236.26 704.73 236.26 704.73 236.24 704.73 236.24 704.73 236.23 704.74 236.21 704.74 236.2 704.74 236.19 704.75 236.18 704.77 236.12 704.8 236.01 704.8 236 704.8 235.99 704.81 235.99 704.81 235.98 704.81 235.97 704.8 235.95 704.8 235.94 704.8 235.93 704.8 235.92 704.81 235.91 704.81 235.9 704.82 235.88 704.83 235.87 704.82 235.86 704.82 235.85 704.82 235.84 704.81 235.83 704.8 235.83 704.8 235.82 704.79 235.81 704.78 235.81 704.78 235.8 704.78 235.79 704.78 235.73 704.77 235.67 704.78 235.52 704.78 235.5 704.78 235.48 704.77 235.47 704.77 235.47 704.76 235.43 704.76 235.43 704.76 235.41 704.76 235.41 704.76 235.4 704.74 235.33 704.73 235.32 704.72 235.3 704.72 235.28 704.71 235.26 704.71 235.25 704.71 235.23 704.7 235.22 704.7 235.19 704.69 235.18 704.69 235.16 704.68 235.14 704.67 235.13 704.67 235.12 704.67 235.1 704.66 235.09 704.66 235.07 704.65 235.06 704.65 235.04 704.65 235.03 704.65 235.02 704.65 235.01 704.64 235 704.64 234.99 704.63 234.97 704.63 234.96 704.63 234.94 704.62 234.93 704.62 234.92 704.62 234.91 704.61 234.9 704.61 234.89 704.61 234.88 704.61 234.87 704.61 234.86 704.61 234.86 704.61 234.84 704.61 234.82 704.61 234.81 704.61 234.8 704.6 234.76 704.59 234.71 704.57 234.68 704.55 234.63 704.54 234.62 704.53 234.6 704.52 234.59 704.52 234.58 704.5 234.53 704.46 234.43 704.45 234.41 704.45 234.39 704.45 234.38 704.44 234.37 704.43 234.35 704.39 234.3 704.38 234.29 704.37 234.28 704.36 234.27 704.35 234.26 704.35 234.25 704.34 234.24 704.34 234.22 704.33 234.2 704.32 234.15 704.31 234.05 704.3 233.94 704.3 233.94 704.3 233.92 704.37 233.68 704.37 233.66 704.37 233.66 704.37 233.65 704.37 233.63 704.37 233.62 704.37 233.62 704.37 233.6 704.38 233.59 704.38 233.58 704.38 233.57 704.38 233.54 704.38 233.53 704.38 233.52 704.38 233.51 704.39 233.49 704.39 233.48 704.39 233.47 704.39 233.46 704.4 233.45 704.39 233.43 704.39 233.42 704.37 233.31 704.37 233.3 704.36 233.29 704.36 233.28 704.36 233.27 704.36 233.26 704.37 233.25 704.37 233.23 704.38 233.21 704.38 233.2 704.38 233.19 704.39 233.18 704.39 233.17 704.39 233.17 704.4 233.16 704.4 233.15 704.42 233.14 704.42 233.14 704.43 233.13 704.43 233.12 704.43 233.11 704.43 233.09 704.43 233.08 704.43 233.07 704.44 233.05 704.44 233.03 704.46 233 704.46 232.98 704.47 232.97 704.47 232.96 704.47 232.95 704.47 232.94 704.46 232.93 704.42 232.87 704.41 232.86 704.4 232.85 704.39 232.84 704.35 232.81 704.35 232.8 704.34 232.8 704.34 232.78 704.33 232.77 704.33 232.76 704.32 232.58 704.32 232.56 704.32 232.55 704.31 232.54 704.3 232.53 704.3 232.52 704.29 232.51 704.28 232.5 704.28 232.5 704.27 232.49 704.26 232.46 704.23 232.37 704.22 232.34 704.21 232.33 704.21 232.33 704.2 232.32 704.2 232.31 704.19 232.31 704.18 232.3 704.17 232.29 704.16 232.28 704.16 232.26 704.13 232.14 704.13 232.13 704.13 232.12 704.13 232.11 704.17 232.05 704.17 232.03 704.18 232.02 704.19 232 704.19 232 704.2 231.99 704.2 231.98 704.2 231.97 704.2 231.95 704.2 231.94 704.19 231.87 704.19 231.86 704.19 231.84 704.19 231.83 704.2 231.82 704.21 231.71 704.21 231.7 704.21 231.7 704.21 231.69 704.18 231.63 704.17 231.62 704.17 231.61 704.17 231.47 704.16 231.46 704.16 231.45 704.16 231.44 704.15 231.4 704.14 231.38 704.14 231.37 704.13 231.36 704.13 231.35 704.13 231.34 704.13 231.33 704.13 231.32 704.13 231.31 704.13 231.3 704.13 231.29 704.15 231.17 704.16 231.15 704.16 231.14 704.16 231.13 704.16 231.12 704.16 231.11 704.15 231.1 704.14 231.06 704.12 231 704.12 230.95 704.12 230.94 704.12 230.93 704.12 230.92 704.13 230.9 704.16 230.85 704.17 230.83 704.2 230.76 704.2 230.75 704.21 230.74 704.21 230.72 704.22 230.71 704.23 230.69 704.24 230.69 704.27 230.66 704.28 230.65 704.3 230.63 704.3 230.62 704.31 230.62 704.31 230.61 704.32 230.6 704.33 230.58 704.33 230.57 704.34 230.56 704.35 230.55 704.36 230.54 704.39 230.5 704.39 230.49 704.4 230.47 704.41 230.46 704.41 230.46 704.42 230.45 704.43 230.44 704.46 230.4 704.48 230.37 704.49 230.35 704.49 230.34 704.5 230.33 704.5 230.32 704.5 230.3 704.5 230.25 704.5 230.24 704.5 230.24 704.51 230.23 704.52 230.23 704.55 230.22 704.56 230.22 704.57 230.21 704.59 230.19 704.6 230.17 704.62 230.14 704.65 230.12 704.65 230.11 704.66 230.11 704.66 230.1 704.66 230.09 704.68 230.02 704.69 230 704.69 230 704.69 229.99 704.71 229.96 704.72 229.94 704.73 229.93 704.74 229.93 704.76 229.91 704.77 229.91 704.8 229.9 704.81 229.9 704.82 229.89 704.84 229.87 704.87 229.84 704.89 229.83 704.93 229.79 704.94 229.79 704.95 229.78 704.96 229.77 704.98 229.74 704.94 229.72 704.43 229.88 704.11 229.99 704.08 230.01 703.46 229.89 703.36 230.08 703.35 230.09 703.41 230.18 703.48 230.3 703.47 230.3 702.44 230.97 701.14 229.4 700.74 229.65 700.72 229.66 699.97 230.14 699.73 230.3 699.71 230.3 698.91 230.83 698.85 230.87 698.7 230.96 698.69 230.97 698.63 230.96 698.59 230.95 698.39 230.9 696.92 230.55 696.5 231.72 696.23 231.74 695.21 231.82 695.2 232.28 695.19 233.09 695.29 233.95 695.29 233.96 695.45 234.82 695.01 234.92 694.6 234.68 694.49 234.61 694.27 234.49 694.25 234.48 694.03 234.34 693.37 234.29 693.3 234.29 693.13 234.34 692.62 234.5 692.4 234.56 691.99 234.78 691.87 234.84 691.76 234.9 691.35 234.81 691.29 234.8 691.01 234.74 690.81 234.67 690.79 234.66 690.31 234.48 690.26 234.46 690.25 234.46 690.23 234.45 690.22 234.46 689.78 234.58 688.72 234.88 688.63 234.9 688.62 234.91 688.59 234.91 687.82 234.98 687.83 235.01 687.84 235.05 687.86 235.1 687.87 235.15 687.89 235.18 687.91 235.23 687.94 235.29 688.02 235.43 688.05 235.48 688.06 235.5 688.06 235.51 688.07 235.52 688.07 235.52 688.07 235.53 688.07 235.54 688.08 235.58 688.08 235.63 688.08 235.69 688.07 235.78 688.07 235.84 688.07 235.86 688.08 235.91 688.08 235.96 688.09 236 688.09 236.07 688.1 236.18 688.1 236.19 688.11 236.36 688.11 236.48 688.11 236.49 688.11 236.62 688.11 236.65 688.11 236.66 688.11 236.68 688.11 236.71 688.1 236.73 688.1 236.75 688.09 236.77 688.09 236.79 688.07 236.85 688.04 236.92 688.03 236.96 688 237.03 687.97 237.09 687.93 237.2 687.86 237.33 687.91 237.42 687.94 237.48 687.96 237.51 687.98 237.52 687.98 237.53 688.05 237.58 688.11 237.63 688.15 237.65 688.35 237.82 688.42 237.88 688.46 237.92 688.52 237.96 688.58 238.02 688.64 238.07 688.72 238.14 688.77 238.19 688.82 238.23 688.88 238.28 688.94 238.35 688.98 238.4 689.07 238.48 689.13 238.56 689.2 238.63 689.26 238.69 689.32 238.77 689.37 238.84 689.42 238.9 689.48 238.98 689.49 239 689.6 239.13 689.65 239.2 689.72 239.28 689.77 239.34 689.83 239.4 689.86 239.44 689.91 239.48 689.91 239.51 689.98 239.69 690.01 239.79 690.04 239.88 690.1 240.04 690.12 240.07 689.98 240.5 689.91 240.73 689.85 240.91 689.79 241.07 689.83 241.22 689.84 241.26 689.84 241.28 689.85 241.3 689.86 241.33 689.87 241.37 689.89 241.44 689.91 241.53 689.93 241.59 689.93 241.61 689.95 241.68 689.96 241.72 689.96 241.75 689.96 241.76 689.97 241.81 689.98 241.85 689.98 241.9 689.99 241.97 690 242.03 690.01 242.14 690.01 242.16 690.02 242.26 690.02 242.29 690.04 242.4 690.06 242.54 690.07 242.59 690.08 242.6 690.08 242.62 690.09 242.67 690.1 242.7 690.1 242.72 690.1 242.75 690.11 242.79 690.11 242.81 690.11 242.85 690.12 242.92 690.12 242.97 690.13 243.05 690.13 243.12 690.14 243.18 690.15 243.21 690.15 243.24 690.15 243.26 690.16 243.28 690.16 243.29 690.15 243.31 690.15 243.33 690.15 243.36 690.12 243.55 690.1 243.75 690.07 243.88 690.07 243.94 690.06 243.93 690.05 243.93 690.04 243.93 689.67 243.88 689.64 243.88 689.63 243.87 689.51 243.86 689.48 243.86 688.99 243.78 688.67 243.74 688.66 243.73 688.56 243.72 688.26 243.68 688.05 243.65 688.04 243.65 687.6 243.58 687.59 243.58 687.53 243.68 687.49 243.75 687.47 243.8 687.44 243.85 687.43 243.86 687.42 243.88 687.4 243.93 687.37 243.97 687.34 244.01 687.33 244.03 687.31 244.06 687.3 244.07 687.28 244.1 687.27 244.12 687.25 244.15 687.23 244.18 687.21 244.2 687.19 244.23 687.16 244.26 687.14 244.29 687.12 244.3 687.09 244.33 687.06 244.36 687.03 244.39 687.01 244.4 686.97 244.43 686.97 244.46 686.96 244.5 686.95 244.53 686.94 244.57 686.93 244.6 686.92 244.63 686.91 244.66 686.89 244.69 686.88 244.72 686.86 244.76 686.84 244.8 686.82 244.83 686.8 244.86 686.78 244.89 686.75 244.92 686.73 244.94 686.69 245 686.66 245.03 686.62 245.07 686.6 245.1 686.57 245.14 686.55 245.17 686.54 245.18 686.52 245.21 686.5 245.24 686.49 245.26 686.47 245.29 686.45 245.31 686.44 245.33 686.42 245.36 686.39 245.39 686.39 245.4 686.37 245.42 686.31 245.5 686.27 245.55 686.26 245.57 686.24 245.59 686.23 245.62 686.22 245.63 686.2 245.64 686.19 245.66 686.17 245.7 686.13 245.76 686.07 245.91 686.04 245.99 686.02 246.01 686.02 246.02 686.01 246.03 686.01 246.04 686 246.05 686 246.06 685.99 246.06 685.98 246.07 685.98 246.08 685.96 246.08 685.94 246.09 685.86 246.13 685.76 246.17 685.66 246.21 685.61 246.23 685.49 246.29 685.47 246.3 685.43 246.32 685.41 246.33 685.4 246.34 685.37 246.36 685.35 246.37 685.33 246.39 685.31 246.41 685.29 246.42 685.28 246.43 685.26 246.44 685.24 246.46 685.22 246.48 685.21 246.49 685.2 246.49 685.2 246.53 685.2 246.54 685.2 246.56 685.19 246.59 685.19 246.62 685.19 246.67 685.18 246.7 685.17 246.75 685.16 246.79 685.15 246.85 685.15 246.86 685.13 246.93 685.12 247 685.1 247.11 685.09 247.19 685.08 247.29 685.2 247.49 685.15 247.67 685.09 247.86 685.05 248.03 685.02 248.14 685 248.2 684.95 248.37 684.9 248.55 684.84 248.74 684.79 248.9 684.73 249.07 684.7 249.18 684.67 249.27 684.62 249.41 684.62 249.43 684.61 249.47 684.48 249.86 684.47 249.88 684.45 249.87 684.44 249.87 684.41 249.87 684.4 249.87 684.39 249.88 684.38 249.88 684.35 249.9 684.33 249.92 684.25 249.95 684.23 249.97 684.21 249.97 684.18 249.99 684.15 250.01 684.15 250.01 684.06 250.08 683.92 250.19 683.89 250.21 683.88 250.22 683.86 250.23 683.85 250.25 683.84 250.26 683.83 250.27 683.68 250.38 683.47 250.52 683.41 250.58 683.4 250.59 683.39 250.6 683.38 250.61 683.32 250.71 683.3 250.74 683.29 250.75 683.28 250.76 683.27 250.76 683.27 250.77 683.24 250.79 683.16 250.86 683.13 250.88 683.11 250.89 683.06 250.92 683.04 250.93 683.01 250.94 682.98 250.96 682.96 250.97 682.93 250.99 682.92 250.99 682.83 251.05 682.77 251.09 682.76 251.1 682.75 251.11 682.74 251.12 682.72 251.12 682.68 251.15 682.64 251.18 682.56 251.24 682.49 251.27 682.44 251.3 682.39 251.32 682.38 251.32 682.37 251.33 682.36 251.33 682.34 251.35 682.32 251.36 682.26 251.4 682.21 251.43 682.06 251.53 682.04 251.54 682.03 251.55 682.01 251.56 682 251.56 681.98 251.56 681.97 251.58 681.84 251.69 681.64 251.87 681.46 252.02 681.4 252.08 681.31 252.16 681.2 252.25 681.17 252.27 681.15 252.29 680.97 252.44 680.88 252.52 680.85 252.54 680.84 252.55 680.82 252.57 680.81 252.58 680.77 252.6 680.73 252.63 680.66 252.68 680.53 252.77 680.37 252.88 680.35 252.9 680.34 252.9 680.33 252.91 680.32 252.92 680.3 252.92 680.27 252.94 680.17 252.97 680.14 252.98 680.11 252.98 680.1 252.99 680.08 252.99 680.07 253 680.07 253 680.04 253.03 679.94 253.14 679.92 253.16 679.82 253.27 679.71 253.38 679.37 253.74 679.36 253.76 679.34 253.77 678.87 253.94 678.82 253.95 678.77 253.86 678.73 253.87 678.69 253.87 678.68 253.87 678.56 254 678.54 254.02 678.51 254.04 678.48 254.08 678.47 254.08 678.46 254.09 678.45 254.1 678.45 254.11 678.44 254.11 678.43 254.12 678.41 254.13 678.39 254.14 678.3 254.18 678.29 254.19 678.27 254.2 678.26 254.2 678.25 254.2 678.24 254.21 678.23 254.21 678.22 254.21 678.22 254.2 678.21 254.2 678.2 254.2 678.19 254.2 678.18 254.19 678.17 254.19 678.16 254.18 678.15 254.18 678.14 254.17 678.13 254.16 678.12 254.16 678.11 254.15 678.1 254.14 678.08 254.12 678.05 254.09 678 254.05 677.95 254.01 677.88 253.94 677.88 253.87 677.89 253.85 677.92 253.75 677.92 253.73 677.92 253.72 677.91 253.71 677.9 253.69 677.81 253.6 677.76 253.56 677.7 253.5 677.68 253.49 677.68 253.48 677.67 253.48 677.66 253.47 677.65 253.47 677.64 253.47 677.63 253.47 677.59 253.46 677.54 253.4 677.54 253.4 677.53 253.36 677.52 253.35 677.52 253.34 677.51 253.33 677.44 253.26 677.43 253.26 677.42 253.25 677.41 253.24 677.41 253.24 677.4 253.24 677.39 253.23 677.34 253.23 677.17 253.23 677.04 253.23 676.65 253.22 676.01 253.21 675.98 253.21 675.91 253.49 675.88 253.47 675.87 253.47 675.8 253.44 675.72 253.39 675.63 253.35 675.62 253.34 675.61 253.34 675.57 253.32 675.52 253.29 675.44 253.27 675.38 253.24 675.35 253.23 675.33 253.21 675.3 253.2 675.29 253.19 675.28 253.18 675.26 253.17 675.24 253.14 675.11 253.02 674.92 252.82 674.86 252.77 674.66 252.57 674.65 252.56 674.54 252.44 674.45 252.34 674.44 252.33 674.39 252.29 674.35 252.24 674.34 252.24 674.33 252.23 674.12 252.17 674.05 252.14 674.04 252.14 674.02 252.13 673.9 252.06 673.88 252.05 673.87 252.05 673.86 252.04 673.79 252.07 673.78 252.07 673.53 251.95 673.51 251.94 673.48 251.92 673.47 251.91 673.46 251.9 673.45 251.89 673.44 251.89 673.44 251.88 673.43 251.86 673.43 251.85 673.42 251.85 673.42 251.84 673.42 251.82 673.41 251.76 673.41 251.75 673.4 251.75 673.33 251.71 673.31 251.68 673.28 251.65 673.11 251.43 673.04 251.47 673.03 251.47 673 251.48 672.92 251.28 672.88 251.17 672.85 251.12 672.8 250.99 672.79 250.95 672.78 250.95 672.78 250.93 672.76 250.91 672.75 250.89 672.74 250.87 672.73 250.85 672.73 250.83 672.72 250.82 672.72 250.81 672.72 250.79 672.72 250.78 672.72 250.76 672.72 250.75 672.72 250.73 672.73 250.71 672.73 250.69 672.74 250.67 672.75 250.64 672.77 250.6 672.78 250.56 672.79 250.52 672.8 250.47 672.8 250.44 672.8 250.42 672.8 250.37 672.8 250.33 672.81 250.31 672.81 250.3 672.81 250.29 672.81 250.28 672.81 250.26 672.81 250.26 672.82 250.22 672.81 250.17 672.81 250.16 672.81 250.13 672.81 250.08 672.81 250.05 672.81 250.02 672.81 249.94 672.81 249.91 672.81 249.9 672.8 249.84 672.79 249.78 672.79 249.77 672.78 249.69 672.77 249.65 672.76 249.62 672.75 249.6 672.75 249.58 672.73 249.53 672.72 249.52 672.72 249.51 672.72 249.5 672.72 249.48 672.71 249.47 672.71 249.46 672.71 249.43 672.71 249.42 672.71 249.4 672.72 249.38 672.72 249.35 672.74 249.25 672.76 249.16 672.76 249.1 672.76 249.06 672.76 249.03 672.76 248.99 672.77 248.95 672.78 248.88 672.78 248.82 672.79 248.77 672.79 248.74 672.79 248.71 672.78 248.68 672.77 248.64 672.77 248.6 672.76 248.57 672.75 248.55 672.74 248.51 672.74 248.49 672.72 248.47 672.71 248.45 672.7 248.42 672.69 248.39 672.68 248.37 672.68 248.35 672.67 248.33 672.66 248.29 672.65 248.26 672.64 248.23 672.63 248.21 672.62 248.19 672.61 248.18 672.6 248.16 672.59 248.14 672.58 248.13 672.57 248.12 672.55 248.1 672.53 248.09 672.51 248.08 672.48 248.06 672.45 248.04 672.44 248.03 672.44 248.02 672.43 248.01 672.42 248 672.41 247.98 672.4 247.95 672.39 247.94 672.39 247.92 672.38 247.91 672.38 247.89 672.38 247.87 672.37 247.85 672.36 247.83 672.36 247.8 672.36 247.77 672.36 247.76 672.36 247.74 672.35 247.72 672.36 247.69 672.36 247.68 672.36 247.66 672.35 247.6 672.35 247.58 672.34 247.54 672.34 247.53 672.34 247.51 672.33 247.49 672.33 247.47 672.33 247.45 672.34 247.41 672.34 247.39 672.34 247.38 672.34 247.37 672.34 247.36 672.33 247.34 672.32 247.29 672.31 247.25 672.31 247.24 672.3 247.23 672.3 247.22 672.3 247.2 672.29 247.19 672.29 247.17 672.28 247.16 672.28 247.15 672.28 247.14 672.27 247.13 672.25 247.1 672.19 247.03 672.14 246.95 672.13 246.94 672.12 246.92 672.1 246.9 672.06 246.84 672.01 246.79 671.94 246.7 671.9 246.65 671.87 246.61 671.83 246.57 671.78 246.51 671.72 246.44 671.69 246.4 671.66 246.36 671.65 246.35 671.64 246.34 671.63 246.32 671.62 246.32 671.61 246.31 671.6 246.3 671.59 246.29 671.57 246.28 671.56 246.27 671.54 246.25 671.5 246.22 671.45 246.17 671.44 246.15 671.42 246.14 671.42 246.13 671.41 246.12 671.41 246.11 671.4 246.09 671.4 246.08 671.42 246.03 671.42 246.02 671.44 245.95 671.49 245.79 671.5 245.75 671.56 245.57 671.58 245.52 671.61 245.44 671.64 245.36 671.64 245.33 671.65 245.3 671.65 245.27 671.65 245.26 671.64 245.24 671.64 245.23 671.63 245.2 671.62 245.16 671.61 245.12 671.6 245.12 671.52 245.1 671.44 245.08 671.35 245.05 671.26 245.03 671.19 245.02 671.14 245.02 670.7 244.95 670.37 244.93 670.28 244.92 669.87 244.88 669.65 244.87 669.44 244.85 669.23 244.82 669.04 244.79 668.84 244.75 668.8 244.75 668.79 244.75 668.77 244.74 668.75 244.74 668.72 244.74 668.7 244.73 668.67 244.72 668.63 244.7 668.44 244.65 668.31 244.61 668.28 244.61 668.25 244.59 668.22 244.59 668.19 244.58 668.15 244.58 668.12 244.57 668.07 244.56 668.02 244.56 667.61 244.59 667.18 244.62 666.74 244.65 666.24 244.68 666.04 244.65 666.03 244.65 665.75 244.61 665.51 244.57 665.39 244.55 665.24 244.53 665.16 244.52 665.17 244.5 665.19 244.47 665.2 244.45 665.21 244.43 665.22 244.42 665.23 244.4 665.23 244.39 665.24 244.38 665.24 244.37 665.24 244.36 665.24 244.35 665.24 244.34 665.24 244.32 665.24 244.31 665.24 244.28 665.23 244.26 665.23 244.22 665.22 244.15 665.22 244.13 665.22 244.11 665.22 244.09 665.21 244.05 665.21 244.04 665.21 244.03 665.2 244 665.21 243.99 665.21 243.99 665.21 243.98 665.21 243.96 665.21 243.95 665.21 243.93 665.22 243.93 665.22 243.92 665.22 243.91 665.23 243.88 665.24 243.86 665.24 243.84 665.25 243.81 665.25 243.8 665.26 243.79 665.26 243.77 665.26 243.76 665.26 243.74 665.26 243.73 665.27 243.71 665.27 243.69 665.27 243.67 665.27 243.65 665.28 243.64 665.28 243.62 665.28 243.61 665.29 243.59 665.3 243.57 665.3 243.54 665.31 243.52 665.32 243.49 665.33 243.45 665.39 243.32 665.43 243.23 665.45 243.2 665.46 243.17 665.49 243.09 665.5 243.08 665.51 243.06 665.51 243.04 665.52 243.02 665.52 243.01 665.52 243 665.53 242.98 665.53 242.97 665.52 242.95 665.52 242.93 665.52 242.91 665.52 242.9 665.52 242.89 665.52 242.88 665.52 242.87 665.53 242.85 665.53 242.83 665.54 242.82 665.55 242.8 665.55 242.77 665.53 242.77 665.52 242.77 665.52 242.77 665.5 242.76 665.45 242.75 665.37 242.72 665.31 242.7 665.25 242.67 665.22 242.66 665.19 242.64 665.18 242.63 665.15 242.61 665.14 242.6 665.12 242.58 665.11 242.57 665.11 242.56 665.1 242.55 665.1 242.54 665.09 242.54 665.08 242.52 665.07 242.48 665.06 242.46 665.05 242.43 665.05 242.41 665.04 242.38 665.04 242.36 665.04 242.35 665.03 242.33 665.03 242.32 665.04 242.31 665.04 242.28 665.05 242.26 665.06 242.24 665.07 242.21 665.08 242.19 665.08 242.18 665.09 242.16 665.1 242.15 665.11 242.12 665.12 242.1 665.14 242.07 665.17 242.02 665.19 241.96 665.21 241.93 665.21 241.91 665.22 241.9 665.22 241.89 665.23 241.87 665.23 241.84 665.23 241.82 665.23 241.79 665.22 241.78 665.22 241.76 665.22 241.75 665.22 241.73 665.22 241.71 665.22 241.7 665.22 241.68 665.22 241.65 665.23 241.63 665.23 241.62 665.23 241.6 665.24 241.58 665.25 241.55 665.25 241.53 665.25 241.5 665.25 241.48 665.25 241.47 665.24 241.46 665.23 241.44 665.22 241.42 665.21 241.41 665.2 241.4 665.18 241.39 665.16 241.38 665.13 241.37 665.11 241.36 665.09 241.36 665.07 241.36 665.05 241.36 665.02 241.35 665 241.35 664.97 241.34 664.94 241.34 664.85 241.33 664.7 241.31 664.61 241.3 664.56 241.3 664.53 241.29 664.5 241.29 664.46 241.28 664.42 241.28 664.38 241.28 664.34 241.28 664.25 241.28 664.21 241.28 664.09 241.27 664.04 241.27 663.99 241.26 663.97 241.26 663.95 241.26 663.92 241.25 663.86 241.24 663.82 241.24 663.8 241.23 663.77 241.22 663.73 241.2 663.68 241.18 663.62 241.15 663.57 241.12 663.51 241.08 663.39 241.02 663.36 241 663.31 240.97 663.29 240.96 663.28 240.95 663.26 240.94 663.25 240.92 663.23 240.91 663.22 240.89 663.21 240.87 663.2 240.82 663.19 240.79 663.18 240.76 663.17 240.74 663.16 240.71 663.16 240.7 663.14 240.64 663.13 240.57 663.11 240.49 663.09 240.44 663.08 240.41 663.07 240.39 663.06 240.37 663.05 240.36 663.04 240.34 663.02 240.31 663.01 240.29 662.99 240.27 662.98 240.26 662.97 240.24 662.96 240.23 662.96 240.21 662.94 240.18 662.94 240.15 662.92 240.12 662.91 240.09 662.89 240.06 662.88 240.03 662.86 239.99 662.85 239.97 662.84 239.97 662.83 239.96 662.82 239.95 662.81 239.95 662.78 239.94 662.76 239.94 662.74 239.93 662.71 239.93 662.68 239.92 662.66 239.92 662.63 239.91 662.6 239.9 662.58 239.89 662.55 239.87 662.53 239.86 662.5 239.84 662.48 239.83 662.46 239.8 662.43 239.78 662.42 239.77 662.35 239.72 662.32 239.71 662.28 239.69 662.24 239.67 662.18 239.65 662.14 239.65 662.1 239.64 662.06 239.64 662.01 239.63 661.97 239.62 661.95 239.62 661.92 239.61 661.87 239.61 661.84 239.61 661.84 239.6 661.82 239.58 661.81 239.56 661.81 239.54 661.8 239.52 661.8 239.5 661.81 239.48 661.81 239.46 661.82 239.44 661.83 239.41 661.83 239.38 661.83 239.34 661.82 239.3 661.82 239.25 661.81 239.22 661.79 239.18 661.77 239.15 661.75 239.12 661.73 239.08 661.72 239.07 661.72 239.05 661.72 239.04 661.72 239.02 661.74 239.01 661.76 238.99 661.78 238.96 661.79 238.93 661.8 238.92 661.8 238.9 661.81 238.9 661.82 238.86 661.83 238.83 661.84 238.82 661.84 238.81 661.85 238.8 661.85 238.79 661.86 238.78 661.87 238.76 661.87 238.75 661.88 238.74 661.89 238.72 661.89 238.71 661.9 238.69 661.92 238.66 661.93 238.6 661.95 238.55 661.96 238.51 661.98 238.47 661.99 238.42 662 238.38 662.01 238.34 662.02 238.32 662.02 238.31 662.03 238.29 662.03 238.27 662.04 238.26 662.05 238.24 662.06 238.22 662.07 238.2 662.1 238.16 662.12 238.14 662.13 238.12 662.25 237.94 662.26 237.94 662.27 237.93 662.28 237.92 662.29 237.92 662.3 237.91 662.39 237.89 662.41 237.88 662.42 237.87 662.43 237.87 662.45 237.85 662.46 237.84 662.49 237.82 662.5 237.81 662.5 237.8 662.51 237.8 662.52 237.79 662.52 237.78 662.57 237.71 662.6 237.67 662.62 237.64 662.62 237.63 662.62 237.63 662.62 237.62 662.63 237.61 662.63 237.59 662.63 237.58 662.63 237.57 662.63 237.56 662.63 237.55 662.62 237.54 662.61 237.47 662.6 237.43 662.6 237.41 662.6 237.4 662.6 237.39 662.6 237.38 662.6 237.37 662.6 237.36 662.6 237.35 662.6 237.34 662.6 237.33 662.6 237.32 662.61 237.31 662.61 237.3 662.61 237.29 662.62 237.27 662.62 237.26 662.63 237.25 662.64 237.23 662.64 237.22 662.65 237.21 662.66 237.19 662.66 237.19 662.67 237.18 662.67 237.17 662.68 237.17 662.69 237.16 662.72 237.12 662.76 237.08 662.79 237.04 662.8 237.02 662.82 236.99 662.83 236.98 662.83 236.98 662.84 236.97 662.85 236.95 662.86 236.94 662.86 236.93 662.88 236.9 662.9 236.87 662.91 236.85 662.92 236.84 662.92 236.82 662.93 236.81 662.93 236.8 662.94 236.78 662.94 236.77 662.95 236.76 662.95 236.75 662.96 236.72 662.96 236.7 662.97 236.65 662.97 236.6 662.99 236.45 663 236.44 663 236.43 663 236.42 663.01 236.41 663.05 236.35 663.05 236.34 663.06 236.32 663.06 236.31 663.07 236.3 663.07 236.29 663.08 236.28 663.08 236.27 663.08 236.25 663.1 236.2 663.11 236.17 663.11 236.14 663.13 236.02 663.15 235.89 663.16 235.82 663.16 235.8 663.17 235.79 663.17 235.78 663.17 235.77 663.18 235.75 663.19 235.74 663.19 235.73 663.2 235.72 663.2 235.71 663.21 235.7 663.22 235.69 663.23 235.68 663.24 235.67 663.26 235.65 663.35 235.57 663.41 235.5 663.44 235.46 663.46 235.43 663.47 235.42 663.48 235.41 663.48 235.4 663.49 235.39 663.49 235.38 663.5 235.36 663.5 235.35 663.51 235.34 663.51 235.32 663.52 235.3 663.52 235.29 663.51 235.27 663.51 235.24 663.48 235.1 663.47 235.07 663.47 235.05 663.47 235.03 663.47 235.02 663.47 235.01 663.47 235 663.47 234.98 663.47 234.96 663.47 234.92 663.48 234.9 663.48 234.88 663.48 234.87 663.48 234.87 663.48 234.86 663.48 234.84 663.48 234.83 663.49 234.82 663.49 234.81 663.5 234.8 663.5 234.78 663.5 234.77 663.51 234.75 663.54 234.69 663.58 234.57 663.61 234.48 663.66 234.37 663.71 234.25 663.79 234.1 663.86 233.94 663.93 233.78 663.99 233.65 663.99 233.63 664 233.62 664 233.62 664.01 233.6 664.02 233.6 664.02 233.59 664.03 233.57 664.04 233.56 664.06 233.53 664.07 233.51 664.08 233.5 664.1 233.47 664.11 233.41 664.1 233.41 664.05 233.43 664 233.43 663.88 233.44 663.78 233.43 663.72 233.43 663.64 233.44 663.56 233.46 663.48 233.48 663.37 233.49 663.3 233.49 663.22 233.51 663.16 233.52 663.1 233.52 663.03 233.52 662.96 233.53 662.89 233.53 662.79 233.52 662.7 233.51 662.63 233.5 662.61 233.49 662.5 233.45 662.44 233.44 662.39 233.42 662.32 233.37 662.22 233.31 662.1 233.24 661.96 233.17 661.89 233.15 661.8 233.19 661.72 233.21 661.67 233.23 661.61 233.26 661.49 233.3 661.39 233.34 661.32 233.36 661.2 233.39 661.1 233.41 661.02 233.41 660.92 233.42 660.83 233.41 660.78 233.42 660.68 233.43 660.62 233.41 660.57 233.42 660.51 233.43 660.48 233.44 660.45 233.44 660.37 233.45 660.27 233.44 660.2 233.42 660.13 233.37 660.06 233.33 659.92 233.27 659.81 233.23 659.71 233.18 659.58 233.12 659.51 233.08 659.45 233.05 659.39 233.06 659.34 233.07 659.27 233.12 659.21 233.16 659.2 233.17 659.12 233.2 659.04 233.26 658.97 233.3 658.9 233.34 658.83 233.37 658.74 233.38 658.66 233.4 658.58 233.41 658.5 233.42 658.41 233.43 658.32 233.44 658.26 233.45 658.2 233.46 658.13 233.45 658.06 233.44 657.99 233.44 657.91 233.44 657.9 233.44 657.83 233.43 657.75 233.39 657.7 233.38 657.56 233.36 657.49 233.34 657.45 233.33 657.36 233.34 657.27 233.33 657.22 233.31 657.17 233.31 657.11 233.31 657.07 233.31 657.02 233.3 656.96 233.26 656.89 233.25 656.86 233.24 656.59 233.4 656.45 233.47 656 233.63 655.94 233.5 655.63 233.55 654.74 233.51 654.44 233.46 654.09 233.33 654.02 233.3 653.89 233.26 653.85 233.17 653.8 233.06 653.77 232.96 653.73 232.87 653.69 232.77 653.66 232.66 653.63 232.56 653.6 232.47 653.58 232.4 653.57 232.34 653.56 232.25 653.56 232.18 653.57 232.12 653.57 232.11 653.58 232.09 653.59 232.01 653.63 231.83 653.7 231.61 653.74 231.5 653.78 231.38 653.81 231.26 653.85 231.09 653.89 230.89 653.91 230.7 653.94 230.53 653.98 230.38 653.98 230.36 654.01 230.29 654.03 230.22 654.06 230.18 654.06 230.17 654.07 230.16 654.09 230.11 654.12 230 654.16 229.87 654.2 229.77 654.25 229.63 654.3 229.5 654.35 229.36 654.38 229.21 654.41 229.07 654.42 229.04 654.42 228.98 654.42 228.92 654.48 228.73 654.53 228.54 654.53 228.49 654.52 228.4 654.51 228.33 654.49 228.22 654.45 228.1 654.43 228 654.39 227.9 654.36 227.82 654.35 227.76 654.36 227.71 654.37 227.69 654.4 227.67 654.42 227.64 654.43 227.57 654.44 227.48 654.47 227.35 654.46 227.3 654.47 227.24 654.49 227.09 654.5 226.98 654.54 226.84 654.52 226.81 654.5 226.76 654.43 226.64 654.42 226.61 654.43 226.57 654.47 226.52 654.52 226.44 654.56 226.38 654.61 226.33 654.68 226.27 654.69 226.25 654.69 226.23 654.76 226.13 654.84 226.01 654.85 225.98 654.85 225.94 654.84 225.9 654.8 225.81 654.76 225.71 654.71 225.6 654.66 225.49 654.6 225.36 654.55 225.25 654.49 225.15 654.45 225.08 654.4 225.03 654.34 224.99 654.21 224.92 654.15 224.88 654.12 224.86 654.09 224.8 654.04 224.76 654.02 224.74 654.01 224.73 653.96 224.71 653.91 224.69 653.82 224.67 653.77 224.63 653.73 224.59 653.73 224.56 653.76 224.52 653.79 224.46 653.85 224.38 653.89 224.33 653.92 224.27 653.95 224.21 653.95 224.18 653.94 224.14 653.92 224.09 653.88 223.99 653.85 223.91 653.82 223.8 653.79 223.76 653.76 223.72 653.74 223.7 653.72 223.68 653.7 223.63 653.72 223.56 653.75 223.47 653.76 223.42 653.75 223.39 653.74 223.37 653.7 223.33 653.69 223.22 653.67 223.06 653.68 223.01 653.69 222.94 653.68 222.86 653.65 222.77 653.63 222.72 653.62 222.7 653.61 222.67 653.57 222.6 653.54 222.51 653.53 222.39 653.51 222.32 653.48 222.26 653.45 222.22 653.43 222.19 653.39 222.15 653.39 222.06 653.35 221.97 653.31 221.88 653.3 221.81 653.3 221.72 653.29 221.6 653.29 221.51 653.28 221.4 653.28 221.35 653.31 221.27 653.36 221.18 653.4 221.08 653.44 221.02 653.46 220.96 653.49 220.9 653.48 220.86 653.46 220.8 653.43 220.72 653.38 220.6 653.33 220.48 653.28 220.38 653.28 220.33 653.29 220.3 653.35 220.24 653.41 220.18 653.45 220.11 653.47 220.04 653.51 219.98 653.53 219.95 653.55 219.86 653.57 219.81 653.58 219.8 653.58 219.79 653.6 219.78 653.63 219.81 653.7 219.85 653.79 219.88 653.95 219.92 654.08 219.94 654.18 219.95 654.25 219.93 654.35 219.91 654.44 219.89 654.49 219.88 654.53 219.87 654.62 219.88 654.65 219.89 654.82 219.93 654.94 219.95 655 219.95 655.1 219.99 655.2 220.05 655.26 220.08 655.38 220.14 655.55 220.2 655.64 220.23 655.71 220.23 655.77 220.22 655.83 220.2 655.9 220.16 655.98 220.12 656.06 220.08 656.2 220.01 656.25 219.98 656.34 219.96 656.41 219.94 656.48 219.91 656.54 219.89 656.6 219.85 656.69 219.78 656.76 219.71 656.79 219.68 656.89 219.56 656.98 219.46 657.09 219.33 657.15 219.25 657.17 219.17 657.18 219.11 657.17 219.06 657.13 219 657.02 218.9 656.95 218.84 656.91 218.78 656.88 218.75 656.87 218.71 656.86 218.67 656.86 218.64 656.86 218.59 656.88 218.51 656.9 218.46 656.96 218.41 657.01 218.37 657.05 218.34 657.11 218.32 657.15 218.31 657.19 218.31 657.26 218.33 657.33 218.36 657.41 218.41 657.46 218.46 657.52 218.57 657.61 218.73 657.68 218.85 657.71 218.9 657.77 218.95 657.86 219 657.9 219.01 657.95 219 658.01 218.97 658.08 218.93 658.11 218.92 658.13 218.91 658.16 218.91 658.26 218.94 658.31 218.95 658.38 218.94 658.46 218.92 658.55 218.88 658.64 218.82 658.75 218.73 658.88 218.61 659 218.5 659.05 218.47 659.09 218.46 659.13 218.46 659.19 218.48 659.3 218.53 659.47 218.61 659.54 218.63 659.61 218.63 659.73 218.62 659.79 218.6 659.92 218.49 659.98 218.4 660.01 218.34 660.04 218.23 660.07 218.12 660.08 217.96 660.09 217.82 660.1 217.77 660.08 217.7 660.06 217.59 660.04 217.47 660.01 217.35 659.97 217.23 659.92 217.11 659.87 216.97 659.83 216.81 659.8 216.66 659.77 216.43 659.74 216.25 659.72 216.07 659.71 215.91 659.7 215.8 659.69 215.67 659.68 215.47 659.7 215.34 659.72 215.28 659.75 215.18 659.81 215.08 659.9 214.97 659.97 214.87 660.05 214.8 660.07 214.75 660.09 214.65 660.1 214.59 660.11 214.51 660.11 214.42 660.1 214.31 660.09 214.23 660.07 214.16 660.05 214.1 660.02 214.04 659.99 213.97 659.97 213.85 659.96 213.78 659.95 213.75 659.96 213.72 659.97 213.68 660 213.66 660.01 213.64 660.07 213.62 660.12 213.59 660.17 213.53 660.23 213.48 660.26 213.43 660.28 213.37 660.29 213.28 660.29 213.16 660.28 213.09 660.27 213.04 660.23 212.96 660.2 212.91 660.18 212.86 660.18 212.82 660.21 212.73 660.28 212.62 660.38 212.48 660.51 212.29 660.56 212.24 660.59 212.19 660.62 212.13 660.64 212.03 660.66 211.99 660.72 211.94 660.81 211.88 660.86 211.86 660.88 211.84 660.9 211.8 660.93 211.61 660.95 211.46 661 211.33 661.04 211.21 661.06 211.14 661.07 211.1 661.06 210.94 661.07 210.86 661.09 210.8 661.1 210.79 661.13 210.79 661.2 210.76 661.26 210.73 661.31 210.69 661.35 210.64 661.37 210.59 661.42 210.5 661.48 210.36 661.51 210.26 661.55 210.15 661.57 210.09 661.6 210.05 661.65 210.03 661.75 210.04 661.8 210.04 661.86 210.03 661.93 210.01 662 210 662.1 210.03 662.17 210.09 662.23 210.11 662.3 210.13 662.35 210.13 662.42 210.11 662.48 210.1 662.57 210.11 662.68 210.16 662.82 210.24 662.93 210.28 662.99 210.28 663.05 210.3 663.08 210.36 663.13 210.43 663.17 210.47 663.23 210.49 663.28 210.49 663.31 210.38 663.34 210.27 663.34 210.24 663.36 210.14 663.39 210.04 663.44 209.94 663.49 209.81 663.53 209.74 663.59 209.67 663.64 209.59 663.69 209.52 663.73 209.44 663.77 209.37 663.84 209.24 663.87 209.19 663.91 209.15 663.97 209.1 664.04 209.06 664.1 209.03 664.2 209.02 664.27 209.01 664.31 208.99 664.35 208.94 664.45 208.79 664.54 208.67 664.63 208.53 664.7 208.41 664.73 208.32 664.78 208.24 664.84 208.16 664.89 208.12 664.95 208.07 665.01 208.04 665.07 208 665.13 207.96 665.18 207.93 665.24 207.91 665.32 207.9 665.4 207.89 665.46 207.89 665.52 207.91 665.59 207.94 665.65 207.96 665.76 208.01 665.88 208.04 665.97 208.06 666.02 208.06 666.08 208.05 666.14 208.02 666.18 207.97 666.26 207.82 666.3 207.75 666.34 207.71 666.37 207.69 666.42 207.68 666.55 207.7 666.59 207.69 666.62 207.65 666.64 207.59 666.63 207.53 666.61 207.47 666.62 207.42 666.64 207.4 666.65 207.38 666.66 207.37 666.67 207.36 666.77 207.21 666.85 207.1 666.87 207.08 666.98 206.87 667.01 206.82 667.1 206.66 667.15 206.57 667.23 206.48 667.3 206.4 667.36 206.33 667.38 206.31 667.42 206.27 667.43 206.26 667.47 206.2 667.63 205.96 667.72 205.82 667.82 205.7 667.88 205.64 667.92 205.59 667.95 205.54 667.98 205.47 668.02 205.4 668.08 205.32 668.14 205.25 668.2 205.17 668.24 205.1 668.29 204.97 668.33 204.88 668.33 204.87 668.37 204.8 668.4 204.73 668.44 204.66 668.48 204.58 668.53 204.51 668.58 204.45 668.63 204.39 668.69 204.33 668.76 204.28 668.82 204.22 668.89 204.13 668.93 204.07 668.97 204.02 669.01 203.99 669.05 203.97 669.11 203.95 669.18 203.94 669.24 203.93 669.29 203.93 669.36 203.95 669.46 204.02 669.53 204.11 669.59 204.2 669.63 204.29 669.67 204.36 669.7 204.44 669.7 204.5 669.69 204.58 669.67 204.68 669.64 204.81 669.61 204.93 669.56 205.1 669.54 205.19 669.53 205.27 669.52 205.34 669.53 205.39 669.54 205.44 669.57 205.5 669.62 205.57 669.66 205.63 669.73 205.69 669.77 205.73 669.83 205.78 669.9 205.83 669.97 205.89 670.04 205.96 670.11 206.04 670.17 206.11 670.23 206.18 670.29 206.26 670.36 206.34 670.48 206.43 670.62 206.54 670.76 206.65 670.88 206.75 671 206.83 671.14 206.93 671.23 207.01 671.31 207.08 671.4 207.13 671.51 207.19 671.61 207.24 671.69 207.28 671.76 207.31 671.8 207.34 671.86 207.37 671.96 207.4 672 207.42 672.07 207.46 672.17 207.53 672.21 207.57 672.3 207.61 672.42 207.67 672.61 207.75 672.9 207.89 673.03 207.95 673.17 208.04 673.32 208.13 673.5 208.22 673.63 208.29 673.78 208.35 673.94 208.42 674.12 208.5 674.28 208.57 674.46 208.65 674.59 208.7 674.74 208.77 674.88 208.83 674.98 208.87 675.13 208.91 675.27 208.96 675.43 208.99 675.54 209.02 675.61 209.04 675.72 209.06 675.82 209.08 675.92 209.1 675.99 209.11 676.1 209.12 676.19 209.13 676.28 209.12 676.45 209.11 676.57 209.12 676.68 209.09 676.8 209.07 676.94 209.05 677.04 209.03 677.09 209.02 677.12 209.01 677.2 209.01 677.31 208.99 677.33 208.99 Z"/>
</g></svg>