<svg xmlns="http://www.w3.org/2000/svg" version="1.2" baseProfile="tiny" stroke-linecap="round" stroke-linejoin="round" viewBox="220.68 192.55 9.02 16.85"><g xmlns="http://www.w3.org/2000/svg" id="Otxandio">
<path d="M 225.66 192.58 225.71 192.65 225.77 192.72 225.79 192.74 225.81 192.76 225.82 192.81 225.84 192.84 225.86 192.87 225.88 192.92 225.91 192.97 225.93 193.01 225.97 193.09 226.01 193.19 226.03 193.23 226.05 193.28 226.08 193.33 226.09 193.34 226.15 193.42 226.17 193.43 226.2 193.44 226.2 193.46 226.21 193.49 226.19 193.5 226.18 193.52 226.18 193.52 226.18 193.54 226.18 193.56 226.18 193.58 226.18 193.6 226.19 193.61 226.19 193.62 226.2 193.65 226.21 193.66 226.22 193.67 226.23 193.68 226.24 193.69 226.25 193.71 226.26 193.73 226.27 193.74 226.26 193.75 226.25 193.76 226.24 193.8 226.26 193.83 226.3 193.86 226.38 193.93 226.38 193.93 226.39 193.96 226.41 193.99 226.41 193.99 226.43 194.01 226.43 194.03 226.43 194.05 226.41 194.1 226.39 194.14 226.38 194.19 226.37 194.21 226.33 194.22 226.3 194.21 226.28 194.19 226.27 194.17 226.24 194.14 226.21 194.12 226.2 194.14 226.21 194.19 226.23 194.23 226.26 194.28 226.28 194.3 226.31 194.34 226.32 194.36 226.32 194.38 226.32 194.43 226.29 194.47 226.27 194.49 226.27 194.53 226.27 194.55 226.27 194.59 226.27 194.62 226.26 194.64 226.26 194.66 226.28 194.68 226.3 194.69 226.33 194.69 226.36 194.7 226.39 194.71 226.4 194.72 226.41 194.74 226.43 194.76 226.45 194.78 226.46 194.79 226.48 194.79 226.53 194.8 226.62 194.79 226.67 194.79 226.73 194.76 226.78 194.74 226.79 194.73 226.81 194.73 226.83 194.75 226.84 194.78 226.83 194.82 226.83 194.85 226.82 194.89 226.81 194.96 226.81 194.98 226.8 195 226.79 195.01 226.74 195.02 226.68 195.03 226.63 195.05 226.61 195.06 226.59 195.08 226.58 195.1 226.58 195.11 226.61 195.16 226.62 195.21 226.63 195.24 226.63 195.25 226.65 195.27 226.67 195.28 226.72 195.26 226.75 195.25 226.77 195.24 226.79 195.25 226.79 195.26 226.79 195.28 226.8 195.33 226.78 195.38 226.76 195.43 226.75 195.46 226.72 195.47 226.68 195.55 226.68 195.58 226.68 195.59 226.7 195.62 226.7 195.67 226.71 195.69 226.72 195.72 226.74 195.75 226.76 195.77 226.77 195.81 226.78 195.84 226.79 195.87 226.75 195.91 226.73 195.93 226.7 195.94 226.68 195.96 226.63 195.98 226.6 195.99 226.58 196 226.56 196.03 226.56 196.05 226.56 196.08 226.57 196.11 226.6 196.14 226.6 196.16 226.59 196.19 226.59 196.21 226.6 196.24 226.62 196.26 226.66 196.29 226.69 196.29 226.72 196.3 226.75 196.3 226.78 196.31 226.8 196.32 226.84 196.33 226.92 196.33 226.95 196.34 226.96 196.35 226.97 196.37 226.96 196.4 226.94 196.42 226.92 196.45 226.89 196.49 226.87 196.51 226.87 196.52 226.88 196.53 226.9 196.55 226.93 196.56 226.95 196.56 227.07 196.56 227.1 196.56 227.13 196.58 227.15 196.59 227.16 196.62 227.17 196.64 227.21 196.81 227.22 196.83 227.23 196.85 227.26 196.87 227.3 196.89 227.33 196.91 227.34 196.93 227.35 196.95 227.37 197.04 227.36 197.12 227.35 197.15 227.35 197.17 227.35 197.2 227.35 197.31 227.35 197.34 227.35 197.37 227.32 197.42 227.29 197.47 227.24 197.51 227.19 197.59 227.2 197.62 227.21 197.65 227.22 197.7 227.25 197.81 227.26 197.83 227.25 197.86 227.22 197.9 227.22 197.93 227.22 197.95 227.23 197.97 227.28 197.99 227.29 198.01 227.3 198.04 227.3 198.09 227.3 198.11 227.32 198.13 227.34 198.14 227.37 198.15 227.4 198.15 227.42 198.14 227.45 198.14 227.5 198.13 227.53 198.12 227.56 198.12 227.58 198.13 227.6 198.16 227.61 198.18 227.61 198.21 227.61 198.24 227.61 198.27 227.61 198.32 227.6 198.38 227.6 198.46 227.6 198.54 227.61 198.6 227.63 198.65 227.64 198.68 227.66 198.76 227.7 198.83 227.75 198.93 227.76 198.96 227.78 198.98 227.83 199.04 227.86 199.09 227.87 199.11 227.89 199.13 227.95 199.19 227.98 199.23 228.01 199.28 228.07 199.37 228.09 199.39 228.11 199.44 228.11 199.46 228.1 199.49 228.09 199.52 228.07 199.57 228.03 199.64 228.03 199.67 228.03 199.69 228.03 199.72 228.04 199.75 228.04 199.78 228.05 199.81 228.07 199.83 228.11 199.91 228.13 199.93 228.22 199.97 228.29 200.04 228.32 200.06 228.34 200.08 228.36 200.09 228.39 200.09 228.41 200.08 228.44 200.08 228.46 200.08 228.47 200.1 228.47 200.13 228.46 200.16 228.46 200.18 228.44 200.2 228.42 200.21 228.39 200.23 228.34 200.24 228.32 200.26 228.31 200.28 228.31 200.31 228.32 200.35 228.33 200.37 228.35 200.39 228.38 200.41 228.41 200.42 228.45 200.43 228.46 200.45 228.46 200.47 228.46 200.49 228.44 200.51 228.42 200.53 228.39 200.54 228.36 200.54 228.34 200.55 228.33 200.56 228.32 200.59 228.33 200.62 228.34 200.64 228.35 200.67 228.36 200.68 228.38 200.69 228.42 200.66 228.47 200.64 228.51 200.6 228.55 200.57 228.58 200.54 228.61 200.52 228.64 200.51 228.65 200.51 228.72 200.51 228.81 200.51 228.86 200.52 228.93 200.53 228.94 200.56 228.95 200.6 228.97 200.65 229 200.73 229.01 200.75 229.01 200.81 229.03 200.89 229.04 200.92 229.05 200.94 229.07 200.97 229.1 201.01 229.13 201.06 229.15 201.08 229.15 201.11 229.16 201.17 229.16 201.19 229.14 201.25 229.13 201.33 229.13 201.36 229.12 201.39 229.11 201.41 229.07 201.48 229.05 201.51 229.04 201.53 228.94 201.59 228.92 201.6 228.9 201.62 228.89 201.64 228.88 201.67 228.88 201.72 228.9 201.73 228.91 201.78 228.93 201.8 228.95 201.82 228.97 201.83 228.99 201.85 229.01 201.87 229.03 201.89 229.05 201.9 229.08 201.91 229.09 201.91 229.1 201.93 229.1 201.95 229.08 201.98 229.06 202 229.05 202.02 229.04 202.05 229.04 202.08 229.05 202.1 229.05 202.12 229.02 202.15 229.01 202.18 229.02 202.2 229.03 202.26 229.05 202.31 229.04 202.34 229.03 202.37 229.02 202.39 229 202.41 228.97 202.43 228.95 202.44 228.9 202.46 228.85 202.48 228.86 202.53 228.85 202.55 228.85 202.6 228.84 202.62 228.81 202.63 228.78 202.64 228.76 202.65 228.73 202.66 228.71 202.67 228.7 202.69 228.69 202.71 228.7 202.74 228.71 202.76 228.72 202.78 228.75 202.78 228.78 202.78 228.8 202.78 228.83 202.8 228.85 202.81 228.87 202.83 228.9 202.84 228.91 202.86 228.91 202.88 228.9 202.9 228.87 202.92 228.85 202.94 228.83 202.95 228.75 202.97 228.72 202.98 228.7 203 228.69 203.01 228.69 203.04 228.7 203.06 228.72 203.08 228.74 203.1 228.79 203.12 228.81 203.15 228.81 203.18 228.81 203.2 228.81 203.22 228.81 203.25 228.8 203.28 228.79 203.3 228.79 203.39 228.79 203.44 228.79 203.47 228.77 203.5 228.74 203.54 228.72 203.57 228.66 203.62 228.66 203.64 228.67 203.68 228.67 203.7 228.68 203.72 228.7 203.79 228.7 203.81 228.69 203.83 228.66 203.88 228.65 203.91 228.64 203.93 228.63 203.96 228.62 203.98 228.62 204.01 228.64 204.09 228.63 204.11 228.62 204.13 228.65 204.18 228.67 204.2 229.24 204.92 229.33 205.08 229.36 205.17 229.39 205.3 229.54 205.82 229.68 206.54 229.69 206.63 229.67 206.73 229.65 206.78 229.6 206.86 229.11 207.33 229.05 207.39 229 207.45 228.78 207.76 228.54 208.12 228.38 208.24 228.19 208.4 228.01 208.64 227.71 208.96 227.38 208.73 227.15 208.55 226.87 208.47 226.39 208.39 224.91 207.08 222.71 209.4 222.01 209.17 221.83 209.07 221.61 208.68 221.33 208.09 220.76 207.11 220.7 206.43 222.3 205.63 222.31 205.61 222.3 205.57 222.3 205.53 222.3 205.48 222.3 205.45 222.31 205.42 222.32 205.39 222.32 205.37 222.32 205.33 222.31 205.31 222.3 205.28 222.29 205.24 222.28 205.22 222.28 205.2 222.29 205.18 222.3 205.16 222.32 205.13 222.33 205.11 222.35 205.08 222.35 205.06 222.34 205.04 222.33 205.02 222.31 204.98 222.29 204.94 222.27 204.91 222.27 204.88 222.27 204.85 222.29 204.73 222.3 204.7 222.3 204.68 222.31 204.64 222.31 204.61 222.31 204.58 222.32 204.57 222.33 204.56 222.35 204.55 222.39 204.53 222.43 204.51 222.46 204.49 222.49 204.47 222.53 204.45 222.58 204.41 222.62 204.37 222.64 204.36 222.66 204.33 222.67 204.31 222.68 204.29 222.68 204.25 222.68 204.22 222.69 204.17 222.69 204.12 222.68 204.08 222.67 204.07 222.65 204.05 222.63 204.05 222.6 204.03 222.57 204.02 222.55 204.01 222.54 204 222.52 203.99 222.51 203.98 222.5 203.96 222.5 203.91 222.49 203.89 222.5 203.87 222.52 203.85 222.53 203.83 222.55 203.83 222.57 203.83 222.58 203.83 222.61 203.83 222.69 203.85 222.72 203.85 222.76 203.86 222.8 203.86 222.84 203.86 222.88 203.84 222.91 203.83 222.94 203.8 222.96 203.78 222.97 203.73 222.98 203.68 222.94 203.68 222.91 203.68 222.85 203.68 222.82 203.67 222.79 203.64 222.77 203.61 222.77 203.58 222.79 203.54 222.84 203.49 222.84 203.47 222.83 203.46 222.8 203.44 222.77 203.43 222.76 203.41 222.76 203.38 222.77 203.34 222.77 203.33 222.75 203.29 222.7 203.24 222.69 203.2 222.67 203.18 222.66 203.15 222.65 203.15 222.62 203.11 222.6 203.1 222.58 203.08 222.56 203.07 222.52 203.03 222.52 202.99 222.52 202.97 222.53 202.96 222.54 202.97 222.56 202.97 222.57 202.97 222.58 202.98 222.59 202.98 222.63 202.97 222.63 202.96 222.63 202.94 222.6 202.9 222.61 202.9 222.62 202.89 222.64 202.89 222.75 202.88 222.76 202.87 222.78 202.86 222.8 202.85 222.81 202.84 222.74 202.71 222.72 202.66 222.73 202.65 222.73 202.64 222.75 202.62 222.85 202.57 222.86 202.56 222.86 202.55 222.84 202.52 222.83 202.51 222.81 202.5 222.76 202.47 222.75 202.46 222.73 202.43 222.74 202.41 222.74 202.39 222.76 202.37 222.78 202.35 222.79 202.33 222.81 202.3 222.86 202.26 222.87 202.24 222.88 202.22 222.88 202.2 222.88 202.18 222.86 202.15 222.84 202.14 222.7 202.03 222.66 202.01 222.42 201.93 222.39 201.92 222.37 201.92 222.36 201.92 222.33 201.89 222.32 201.87 222.31 201.85 222.3 201.85 222.13 201.76 222.11 201.75 222.09 201.74 222.08 201.72 222.08 201.71 221.89 201.6 221.86 201.59 221.84 201.59 221.83 201.58 221.81 201.58 221.77 201.57 221.77 201.56 221.77 201.54 221.77 201.53 221.81 201.43 221.81 201.42 221.83 201.41 221.85 201.4 221.88 201.39 221.92 201.38 221.92 201.37 221.93 201.36 221.94 201.35 221.95 201.32 221.88 201.26 221.86 201.25 221.86 201.26 221.85 201.26 221.83 201.27 221.82 201.28 221.81 201.28 221.8 201.28 221.79 201.28 221.79 201.27 221.82 201.16 221.81 201.14 221.81 201.13 221.8 201.12 221.79 201.12 221.77 201.11 221.76 201.12 221.76 201.13 221.75 201.16 221.74 201.17 221.73 201.19 221.72 201.19 221.68 201.19 221.65 201.23 221.61 201.23 221.59 201.22 221.53 201.12 221.53 201.1 221.54 201.09 221.57 201.05 221.75 201.04 221.77 201.03 221.94 200.89 223.64 198.96 223.76 195.23 223.76 195.08 223.79 194.12 223.79 193.62 223.91 193.55 224.03 193.47 224.15 193.39 224.26 193.3 224.38 193.21 224.45 193.17 224.56 193.11 224.67 193.07 224.88 192.96 225.09 192.86 225.24 192.79 225.66 192.58 Z"/>
</g></svg>