<svg xmlns="http://www.w3.org/2000/svg" version="1.2" baseProfile="tiny" stroke-linecap="round" stroke-linejoin="round" viewBox="718.3 152.55 16.32 11.83"><g xmlns="http://www.w3.org/2000/svg" id="Ozaze-Zühara">
<path d="M 725.43 152.57 725.84 153.17 725.94 153.26 725.97 153.25 726.19 153 726.39 153.24 726.45 153.33 726.49 153.4 726.51 153.47 726.51 153.53 726.53 153.73 726.53 153.76 726.53 153.79 726.53 153.8 726.53 153.82 726.54 153.84 726.55 153.85 726.56 153.86 726.58 153.86 726.59 153.87 726.61 153.87 726.63 153.88 726.66 153.88 726.67 153.89 726.69 153.9 726.7 153.91 726.75 153.94 726.77 153.96 726.8 153.98 726.84 154 726.86 154.01 726.89 154.03 726.91 154.05 726.92 154.07 726.93 154.1 726.93 154.13 726.93 154.16 726.93 154.19 726.93 154.22 726.93 154.26 726.93 154.3 726.93 154.33 726.94 154.36 726.96 154.38 726.97 154.41 726.98 154.43 726.98 154.47 726.96 154.49 726.94 154.49 726.91 154.5 726.89 154.51 726.84 154.56 726.83 154.58 726.82 154.61 726.81 154.63 726.82 154.66 726.82 154.69 726.81 154.71 726.79 154.74 726.77 154.78 726.74 154.81 726.73 154.85 726.71 154.88 726.72 154.92 726.73 154.95 726.74 154.98 726.77 155.03 726.78 155.07 726.8 155.1 726.82 155.16 726.85 155.22 726.88 155.26 726.89 155.29 726.89 155.33 726.88 155.35 726.86 155.37 726.84 155.38 726.81 155.41 726.78 155.43 726.75 155.46 726.73 155.49 726.7 155.52 726.68 155.56 726.66 155.6 726.63 155.64 726.6 155.69 726.57 155.76 726.56 155.83 726.55 155.85 726.46 155.9 726.44 155.91 726.63 156.07 726.95 156.22 726.99 156.24 727.11 156 727.55 155.99 727.77 156.07 727.93 156.09 728.09 155.64 728.14 155.51 728.79 154.69 728.6 154.46 728.51 154.31 728.49 154.25 728.43 154 728.42 153.93 728.71 153.88 728.76 154.08 728.78 154.11 728.82 154.14 728.85 154.15 728.89 154.17 728.93 154.19 728.99 154.2 729.07 154.23 729.25 154.48 729.76 154.85 730.42 155.12 730.63 155.55 731.11 155.62 732.12 155.86 732.19 155.92 732.48 156.17 732.56 156.25 732.59 156.28 732.62 156.32 732.65 156.37 732.67 156.41 732.68 156.44 732.71 156.46 732.73 156.48 732.75 156.51 732.76 156.54 732.79 156.56 732.82 156.59 732.85 156.62 732.88 156.65 732.69 156.82 732.64 156.91 732.83 157.1 733.08 157.2 733.17 157.23 733.29 157.45 733.69 157.39 733.8 157.63 733.86 157.83 734.02 158.06 734.22 158.31 734.29 158.36 734.35 158.4 734.41 158.44 734.45 158.47 734.45 158.48 734.39 158.65 734.59 158.93 734.61 159.3 734.52 159.75 734.36 160.27 734.09 161.02 734.09 161.05 734.1 161.08 734.11 161.11 734.12 161.13 734.13 161.17 734.12 161.2 734.11 161.23 734.11 161.26 734.1 161.29 734.1 161.31 734.11 161.33 734.12 161.35 734.13 161.37 734.14 161.4 734.16 161.43 734.33 162.02 734.23 162.06 734.03 162.08 733.78 162.26 733.66 162.26 733.57 162.31 733.5 162.31 733.48 161.85 733.38 161.68 733.42 161.47 733.44 161.27 733.69 161.02 733.57 160.85 733.54 160.8 733.52 160.76 733.42 160.66 733.39 160.64 733.36 160.62 733.35 160.61 733.33 160.6 733.31 160.6 733.29 160.59 733.26 160.6 733.17 160.63 733.16 160.65 733.14 160.67 733.13 160.78 732.88 161.17 732.81 161.32 732.56 161.62 732.55 161.76 732.68 161.87 732.69 161.96 732.63 162.09 732.24 162.02 731.99 162.37 731.9 162.59 731.47 163.06 731.37 163.15 731.36 163.12 731.35 163.1 731.33 163.08 731.31 163.06 731.28 163.04 731.25 163.02 731.22 163.01 731.21 162.99 731.2 162.98 731.18 162.96 731.17 162.93 731.16 162.91 731.15 162.89 731.13 162.88 731.11 162.86 731.2 162.62 731.15 162.63 731.1 162.63 731.01 162.63 730.95 162.62 730.89 162.62 730.83 162.62 730.77 162.62 730.76 162.62 730.74 162.63 730.72 162.64 730.71 162.65 730.69 162.66 730.67 162.66 730.66 162.68 730.58 162.72 730.59 162.74 730.59 162.76 730.58 162.77 730.56 162.79 730.54 162.81 730.53 162.82 730.51 162.84 730.49 162.86 730.48 162.88 730.46 162.9 730.45 162.92 730.43 162.95 730.42 162.98 730.4 163.01 730.38 163.04 730.36 163.06 730.34 163.1 730.31 163.15 730.29 163.21 730.28 163.24 730.27 163.26 730.25 163.28 730.22 163.28 730.2 163.29 730.17 163.3 730.16 163.31 729.99 163.19 730.16 162.9 729.71 162.84 729.75 162.63 729.6 162.64 729.55 162.25 729.45 162.08 729.48 162.03 729.5 161.99 729.53 161.92 729.54 161.86 729.56 161.82 729.58 161.79 729.6 161.74 729.61 161.71 729.62 161.68 729.63 161.63 729.65 161.57 729.85 161.45 729.84 160.88 729.79 160.86 729.6 161.07 729.4 161.2 729.23 161.23 729.1 161.2 728.92 161.02 728.35 161.02 728.3 161.08 728.17 161.11 728.13 161.06 728 160.5 728.02 160.33 728.28 160.24 728.33 160.13 727.95 160.19 727.91 160.13 727.72 160.13 727.72 160.26 727.71 160.38 727.61 160.42 727.45 160.36 727.39 160.22 727.35 160.21 727.19 160.47 727.09 160.53 726.88 160.59 726.82 160.47 726.42 160.2 726.37 160.21 726.24 160.22 725.86 160.17 725.41 160.44 724.81 160.53 724.21 160.62 724.02 160.72 723.84 160.86 722.98 161.39 722.79 161.52 722.64 161.6 722.45 161.72 721.4 162.35 720.98 162.85 720.55 163.35 720.13 163.84 719.75 164.26 718.68 164.32 718.4 164.36 718.33 164.31 718.34 164.27 718.75 164.12 719.17 163.97 719.58 163.82 719.65 163.57 719.83 162.86 720 162.14 720.17 161.43 720.35 160.71 720.36 160.68 720.51 160.05 720.67 159.42 720.82 158.78 720.81 158.59 720.67 158.41 720.54 158.27 720.87 157.95 721.3 157.47 721.59 157.01 721.75 156.58 721.83 156.38 721.82 156.26 721.8 156.21 721.62 156.18 721.51 155.93 721.38 155.79 721.39 155.79 721.43 155.74 721.47 155.7 721.5 155.66 721.54 155.63 721.58 155.6 722.05 156.01 722.2 156.07 722.22 155.88 722.47 155.77 722.47 155.72 722.3 155.59 722.25 155.51 722.29 155.38 722.53 155.1 722.67 154.76 722.79 154.38 722.87 154.18 722.98 154.15 723.12 154.29 723.65 153.93 723.66 153.9 723.65 153.87 723.63 153.84 723.61 153.8 723.62 153.76 723.63 153.72 723.62 153.69 723.61 153.66 723.59 153.63 723.58 153.59 723.58 153.56 723.58 153.51 723.59 153.48 723.59 153.43 723.59 153.4 723.59 153.35 723.59 153.31 723.59 153.27 723.59 153.23 723.6 153.18 723.61 153.14 723.61 153.11 723.61 153.07 723.61 153.02 724.13 152.89 725.22 152.61 725.43 152.57 Z"/>
</g></svg>