<svg xmlns="http://www.w3.org/2000/svg" version="1.2" baseProfile="tiny" stroke-linecap="round" stroke-linejoin="round" viewBox="689.55 113.3 18.42 22.15"><g xmlns="http://www.w3.org/2000/svg" id="Pagola">
<path d="M 694.18 118.36 694.21 118.35 694.24 118.34 694.27 118.32 694.83 118.09 695.39 117.86 695.87 117.71 696.46 117.73 696.63 117.73 696.91 117.59 696.95 117.62 696.99 117.65 697.03 117.66 697.08 117.66 697.19 117.67 697.24 117.67 697.28 117.68 697.32 117.7 697.37 117.73 697.41 117.76 697.45 117.81 697.5 117.88 697.55 117.92 697.61 117.95 698.34 117.36 698.65 117.37 698.8 117.12 699 116.64 698.76 116.51 698.64 116.28 698.66 116.27 698.68 116.25 698.69 116.2 698.71 116.09 698.75 115.91 698.81 115.75 698.82 115.67 698.82 115.52 698.8 115.35 698.76 115.21 698.7 115.03 698.65 114.92 698.65 114.84 698.1 114.4 698.02 114.37 697.98 114.37 697.46 113.83 697.37 113.73 697.2 113.55 697.34 113.56 698.02 113.73 698.93 113.3 699.14 113.35 699.41 113.99 699.68 114.63 699.7 114.64 699.72 114.67 699.75 114.71 699.8 114.83 699.84 114.94 699.87 115.03 699.88 115.08 699.89 115.1 699.91 115.11 700.07 115.69 700.11 115.78 700.12 115.91 700.16 115.98 700.2 116.12 700.25 116.25 700.33 116.37 700.39 116.44 700.47 116.51 700.7 117.07 700.75 117.28 700.59 117.64 700.61 117.73 700.75 117.89 700.67 118.05 700.68 118.06 700.76 118.13 700.78 118.16 700.81 118.2 700.85 118.26 700.9 118.31 700.95 118.35 701 118.39 701.02 118.41 701.04 118.43 701.05 118.44 701.26 118.92 701.29 118.92 701.34 118.93 701.38 118.94 701.47 118.97 701.56 118.99 701.64 118.99 701.66 119.06 701.72 119.19 701.79 119.36 701.85 119.54 701.86 119.62 701.86 119.7 701.85 119.82 702.01 119.77 702 119.74 702 119.7 702.02 119.62 702.03 119.58 702.06 119.53 702.07 119.5 702.06 119.44 702.04 119.37 702.03 119.34 702.01 119.28 701.99 119.21 701.99 119.16 701.99 119.11 701.99 119.03 701.98 118.97 701.97 118.91 701.91 118.81 701.87 118.76 701.83 118.7 701.8 118.67 701.76 118.61 701.73 118.56 701.64 118.48 701.56 118.41 701.51 118.42 701.47 118.44 701.45 118.47 701.35 118.37 701.26 118.29 701.22 118.25 701.2 118.21 701.18 118.17 701.17 118.09 701.17 118.05 701.17 117.99 701.18 117.92 701.21 117.83 701.24 117.79 701.26 117.78 701.32 117.8 701.37 117.83 701.4 117.84 701.43 117.86 701.48 117.89 701.49 117.88 701.5 117.86 701.52 117.83 701.56 117.8 701.58 117.78 701.61 117.76 701.65 117.73 701.67 117.71 701.71 117.69 701.75 117.65 701.84 117.57 701.9 117.43 701.94 117.36 701.95 117.33 701.97 117.29 702.01 117.19 702.05 117.15 702.11 117.13 702.23 117.11 702.26 117.1 702.26 117.16 702.28 117.29 702.28 117.33 702.29 117.39 702.28 117.43 702.29 117.46 702.3 117.49 702.34 117.55 702.38 117.61 702.4 117.65 702.49 117.72 702.55 117.77 702.61 117.82 702.65 117.84 702.67 117.87 702.69 117.9 702.7 117.95 702.71 117.98 702.74 118.01 702.78 118.02 702.82 118.03 702.86 118.04 702.99 118.06 703.06 118.09 703.27 118.16 703.36 118.2 703.39 118.21 703.43 118.23 703.55 118.3 703.67 118.36 703.72 118.38 703.76 118.42 703.79 118.47 703.83 118.54 703.85 118.58 703.87 118.61 703.91 118.63 703.95 118.64 704.01 118.66 704.09 118.68 704.15 118.7 704.19 118.71 704.22 118.74 704.25 118.76 704.3 118.82 704.38 118.9 704.48 118.98 704.6 119.04 704.78 119.13 704.91 119.22 704.97 119.25 705.01 119.29 705.04 119.31 705.1 119.37 705.24 119.44 705.36 119.47 705.99 119.28 706.62 119.1 706.61 119.3 706.59 119.42 706.6 119.46 706.6 119.48 706.6 119.51 706.6 119.54 706.6 119.57 706.6 119.64 706.6 119.69 706.59 119.72 706.59 119.73 706.59 119.75 706.58 119.79 706.6 120.02 706.58 120.05 706.52 120.1 706.5 120.11 706.49 120.14 706.48 120.17 706.48 120.22 706.47 120.25 706.47 120.29 706.48 120.33 706.5 120.41 706.53 120.55 706.55 120.6 706.56 120.65 706.58 120.72 706.61 120.83 706.65 120.95 706.68 121.03 706.69 121.09 706.7 121.13 706.71 121.16 706.71 121.18 706.7 121.2 706.7 121.22 706.67 121.25 706.61 121.32 706.56 121.37 706.51 121.41 706.48 121.43 706.39 121.53 706.32 121.61 706.24 121.69 706.15 121.79 706.09 121.85 706.05 121.9 706.02 121.94 706.01 121.95 705.99 122.03 705.98 122.09 705.98 122.13 705.96 122.18 705.94 122.25 705.92 122.32 705.91 122.36 705.91 122.38 705.91 122.42 705.91 122.45 706.08 122.6 706.04 122.67 706.03 122.78 706.1 123.06 706.29 123.34 706.68 123.78 706.96 124.18 707.3 124.49 707.66 125 707.26 125.22 707.27 125.36 707.37 125.68 707.57 126.05 707.66 126.28 707.61 126.56 707.5 126.78 707.51 126.8 707.54 126.86 707.57 126.9 707.58 126.94 707.59 127.02 707.6 127.11 707.61 127.16 707.62 127.22 707.65 127.29 707.67 127.34 707.69 127.39 707.7 127.45 707.71 127.5 707.72 127.56 707.72 127.63 707.73 127.69 707.73 127.76 707.73 127.81 707.74 127.88 707.76 127.97 707.8 128.13 707.82 128.22 707.84 128.34 707.86 128.48 707.88 128.59 707.89 128.69 707.9 128.79 707.92 128.89 707.93 128.97 707.93 129.03 707.93 129.09 707.94 129.11 707.92 129.19 707.92 129.27 707.92 129.34 707.9 129.41 707.89 129.49 707.9 129.57 707.9 129.62 707.87 129.68 707.84 129.72 707.82 129.76 707.79 129.81 707.78 129.85 707.78 129.87 707.74 129.9 707.67 129.94 707.63 129.98 707.6 130.03 707.58 130.07 707.57 130.08 707.56 130.07 707.5 130.04 707.45 130.02 707.39 130.01 707.3 130 707.24 130 707.17 130 707.12 130.02 707.06 130.03 707.02 130.04 706.97 130.05 706.92 130.06 706.86 130.09 706.81 130.12 706.75 130.16 706.69 130.19 706.64 130.22 706.6 130.25 706.54 130.28 706.5 130.29 706.42 130.32 706.36 130.33 706.31 130.35 706.26 130.38 706.2 130.42 706.15 130.44 706.1 130.49 706.05 130.51 706.02 130.53 705.88 130.58 705.77 130.62 705.73 130.63 705.65 130.63 705.63 130.63 705.57 130.64 705.49 130.64 705.4 130.65 705.32 130.65 705.23 130.65 705.16 130.66 705.1 130.66 705.05 130.66 705.02 130.67 705 130.68 704.97 130.71 704.94 130.74 704.9 130.78 704.85 130.82 704.77 130.86 704.7 130.9 704.66 130.92 704.5 131.06 704.03 131.16 703.86 131.24 703.76 131.31 703.53 131.47 703.48 131.63 703.42 131.74 703.31 131.77 703.24 131.72 702.87 131.69 702.61 131.71 702.53 131.83 702.61 132.08 702.58 132.09 702.53 132.1 702.47 132.13 702.41 132.17 702.34 132.22 702.23 132.31 702.15 132.38 702.11 132.43 702.07 132.47 702.05 132.47 702.03 132.48 702 132.49 701.95 132.48 701.86 132.46 701.73 132.41 701.6 132.37 701.52 132.35 701.48 132.34 701.44 132.35 701.41 132.36 701.38 132.38 701.35 132.42 701.32 132.46 701.3 132.5 701.26 132.55 701.22 132.58 701.19 132.61 701.15 132.63 701.09 132.65 701.02 132.67 700.93 132.69 700.85 132.71 700.78 132.74 700.73 132.77 700.7 132.8 700.67 132.84 700.65 132.88 700.63 132.92 700.61 133 700.59 133.13 700.56 133.23 700.55 133.27 700.54 133.3 700.51 133.34 700.21 133.2 700.06 133.14 699.94 132.95 699.67 132.73 699.62 132.69 699.58 132.67 699.55 132.65 699.51 132.63 699.47 132.6 699.44 132.57 699.41 132.54 699.37 132.51 699.34 132.49 699.3 132.46 699.26 132.44 699.23 132.42 699.2 132.38 699.17 132.36 699.13 132.32 699.1 132.29 699.07 132.25 699.04 132.21 699.01 132.18 698.98 132.15 698.94 132.13 698.91 132.11 698.88 132.1 698.85 132.09 698.81 132.09 698.77 132.08 698.73 132.07 698.69 132.07 698.69 132.03 698.68 132 698.67 131.96 698.66 131.92 698.64 131.85 698.62 131.76 698.62 131.72 698.61 131.68 698.59 131.63 698.58 131.59 698.57 131.56 698.57 131.54 698.56 131.49 698.55 131.47 698.54 131.46 698.52 131.45 698.49 131.44 698.46 131.42 698.43 131.4 698.4 131.38 698.36 131.36 698.31 131.34 698.28 131.32 698.24 131.31 698.22 131.28 698.21 131.26 698.19 131.23 698.18 131.22 698.16 131.2 698.13 131.17 698.1 131.15 698.09 131.13 698.08 131.11 698.08 131.08 698.06 131.03 698.03 130.98 698.01 130.96 698 130.94 697.98 130.91 697.94 130.88 697.92 130.86 697.9 130.84 697.89 130.79 697.87 130.76 697.83 130.74 697.8 130.74 697.78 130.75 697.74 130.75 697.7 130.76 697.68 130.75 697.66 130.74 697.65 130.73 697.64 130.72 697.63 130.69 697.61 130.67 697.57 130.65 697.55 130.64 697.53 130.63 697.52 130.62 697.48 130.58 697.44 130.55 697.39 130.52 697.31 130.49 697.21 130.45 697.12 130.42 697.05 130.4 697.05 130.42 697.01 130.49 696.91 130.63 696.88 130.66 696.85 130.67 696.81 130.68 696.78 130.68 696.76 130.69 696.7 130.71 696.69 130.72 696.67 130.74 696.61 130.82 696.59 130.84 696.57 130.86 696.55 130.91 696.54 130.95 696.54 131 696.53 131.03 696.53 131.05 696.51 131.07 696.48 131.12 696.43 131.18 696.41 131.2 696.4 131.21 696.37 131.23 696.36 131.25 696.35 131.26 696.34 131.28 696.31 131.31 696.28 131.33 696.26 131.36 696.24 131.38 696.1 131.47 695.98 131.58 695.92 131.64 695.89 131.69 695.87 131.72 695.84 131.75 695.82 131.79 695.78 131.86 695.71 131.97 695.65 132.04 695.59 132.08 695.52 132.12 695.49 132.14 695.47 132.15 695.44 132.2 695.39 132.29 695.36 132.32 695.34 132.33 695.3 132.36 695.28 132.38 695.26 132.41 695.25 132.44 695.24 132.46 695.23 132.49 695.23 132.53 695.24 132.54 695.28 132.59 695.32 132.62 695.33 132.63 695.34 132.66 695.31 132.7 695.29 132.72 695.24 132.78 695.2 132.83 695.14 132.91 695.11 132.97 695.08 133.02 695.07 133.09 695.07 133.11 695.03 133.18 695 133.22 694.98 133.25 694.96 133.28 694.94 133.3 694.93 133.33 694.89 133.4 694.84 133.46 694.79 133.53 694.75 133.58 694.68 133.71 694.58 133.8 694.52 133.87 694.48 133.88 694.46 133.91 694.44 133.95 694.43 133.99 694.42 134.01 694.39 134.03 694.37 134.07 694.35 134.09 694.33 134.12 694.27 134.15 694.23 134.18 694.2 134.21 694.17 134.24 694.1 134.27 694.07 134.29 694.04 134.31 694.02 134.34 694.01 134.37 693.97 134.43 693.94 134.47 693.91 134.52 693.89 134.56 693.87 134.59 693.82 134.68 693.8 134.71 693.75 134.78 693.71 134.82 693.69 134.85 693.66 134.89 693.64 134.92 693.61 134.99 693.59 135.03 693.58 135.05 693.56 135.09 693.55 135.13 693.54 135.17 693.53 135.21 693.52 135.25 693.5 135.29 693.47 135.32 693.44 135.35 693.43 135.37 693.4 135.41 693.38 135.44 693.03 135.38 692.98 135.34 692.93 135.27 692.85 135.19 692.77 135.15 692.7 135.13 692.61 135.1 692.55 135.09 692.43 135.05 692.38 135.01 692.29 134.95 692.2 134.89 692.06 134.82 691.87 134.73 691.78 134.68 691.66 134.86 691.63 134.83 691.59 134.81 691.14 134.18 690.93 134.11 690.87 134.03 690.82 133.98 690.78 133.95 690.76 133.94 690.74 133.95 690.65 133.96 690.58 133.97 690.52 133.98 690.46 133.99 690.41 133.99 690.29 134.04 690.12 134.08 689.9 134.15 689.82 134.18 689.78 134.21 689.74 134.24 689.7 134.25 689.66 134.27 689.63 134.28 689.62 134.29 689.6 134.3 689.58 134.31 690 133.65 690.47 133.02 690.52 133 690.54 133.01 691.43 133.15 691.67 132.45 691.92 131.74 692.15 131.04 692.39 130.4 692.61 129.79 692.82 129.17 692.99 128.69 693.15 128.2 693.36 127.7 693.37 127.52 693.24 127.16 693.15 126.77 693.07 126.39 692.99 126.01 692.88 125.72 692.91 125.63 692.92 125.56 692.93 125.53 692.93 125.49 692.94 125.44 692.95 125.4 692.97 125.32 693 125.23 693.03 125.15 693.05 125.06 693.08 124.99 693.09 124.94 693.09 124.93 693.1 124.92 693.12 124.91 693.14 124.89 693.16 124.87 693.18 124.84 693.21 124.79 693.25 124.72 693.27 124.69 693.27 124.68 693.26 124.66 693.54 124.41 693.42 124.09 693.45 124.06 693.53 123.98 693.56 123.95 693.59 123.92 693.66 123.74 693.77 123.68 693.83 123.64 693.84 123.63 693.87 123.61 693.9 123.57 693.93 123.54 694.02 123.51 694.1 123.48 694.17 123.47 694.18 123.46 694.21 123.46 694.37 123.46 694.49 123.46 694.6 123.47 694.74 123.49 694.88 123.53 694.93 123.53 694.96 123.52 694.97 123.51 694.99 123.51 695.06 123.46 695.18 123.38 695.21 123.35 695.23 123.33 695.25 123.29 695.28 123.19 695.3 123.08 695.31 123.04 695.32 123.02 695.34 123 695.37 122.89 695.38 122.82 695.38 122.77 695.36 122.68 695.32 122.56 695.28 122.45 695.24 122.37 695.22 122.31 695.21 122.26 695.21 122.22 695.21 122.19 695.2 122.17 695.17 122.06 695.15 121.94 695.12 121.86 695.08 121.79 695.05 121.74 695.04 121.7 695.03 121.66 695.03 121.59 695.02 121.53 694.98 121.37 694.95 121.22 694.94 121.15 694.92 121.12 694.89 121.03 694.85 120.95 694.81 120.9 694.76 120.82 694.71 120.74 694.66 120.65 694.61 120.53 694.58 120.44 694.55 120.38 694.53 120.35 694.49 120.3 694.46 120.27 694.43 120.24 694.43 120.22 694.42 120.2 694.43 120.14 694.45 120.06 694.48 119.95 694.5 119.87 694.51 119.83 694.51 119.78 694.51 119.73 694.52 119.68 694.52 119.63 694.5 119.56 694.48 119.5 694.44 119.45 694.4 119.41 694.34 119.36 694.3 119.31 694.26 119.26 694.23 119.2 694.21 119.16 694.2 119.11 694.18 119.05 694.18 118.99 694.18 118.92 694.18 118.86 694.19 118.79 694.19 118.75 694.19 118.69 694.19 118.64 694.19 118.58 694.19 118.52 694.19 118.47 694.18 118.36 Z"/>
</g></svg>