<svg xmlns="http://www.w3.org/2000/svg" version="1.2" baseProfile="tiny" stroke-linecap="round" stroke-linejoin="round" viewBox="431.35 73.97 23.28 21.87"><g xmlns="http://www.w3.org/2000/svg" id="Pasaia">
<path d="M 450.53 73.99 451.18 75.19 451.62 76.14 452.2 77.61 452.41 78.12 452.61 78.62 453.21 80.16 453.38 80.58 453.71 81.44 454.28 82.76 454.49 83.2 454.62 83.53 454.61 83.53 454.6 83.54 454.6 83.54 454.59 83.55 454.59 83.55 454.58 83.56 454.57 83.56 454.56 83.57 454.56 83.57 454.55 83.58 454.54 83.58 454.54 83.59 454.53 83.59 454.52 83.59 454.51 83.59 454.5 83.6 454.5 83.6 454.49 83.6 454.48 83.6 454.47 83.61 454.46 83.61 454.45 83.61 454.43 83.61 454.41 83.62 454.4 83.62 454.38 83.63 454.37 83.63 454.35 83.64 454.33 83.65 454.32 83.65 454.3 83.66 454.29 83.66 454.27 83.67 454.26 83.68 454.24 83.68 454.22 83.7 454.21 83.71 454.19 83.72 454.17 83.73 454.15 83.74 454.13 83.75 454.11 83.76 454.09 83.77 454.07 83.77 454.05 83.78 454.04 83.79 454.02 83.8 454.01 83.8 454 83.81 453.98 83.82 453.97 83.82 453.95 83.83 453.94 83.84 453.92 83.84 453.91 83.85 453.89 83.85 453.88 83.86 453.86 83.86 453.85 83.87 453.83 83.87 453.82 83.87 453.8 83.88 453.78 83.88 453.76 83.89 453.74 83.89 453.72 83.9 453.7 83.9 453.69 83.91 453.68 83.91 453.67 83.91 453.66 83.92 453.65 83.92 453.64 83.93 453.63 83.94 453.61 83.94 453.6 83.95 453.59 83.95 453.58 83.96 453.57 83.97 453.56 83.97 453.55 83.98 453.54 83.98 453.54 83.98 453.53 83.98 453.51 83.99 453.5 83.99 453.48 83.99 453.47 84 453.46 84 453.44 84.01 453.43 84.01 453.42 84.02 453.39 84.03 453.37 84.04 453.35 84.05 453.33 84.07 453.3 84.08 453.28 84.09 453.26 84.1 453.24 84.11 453.22 84.12 453.2 84.13 453.17 84.14 453.15 84.15 453.13 84.16 453.11 84.17 453.08 84.18 453.06 84.19 453.04 84.19 453.02 84.2 453.01 84.2 452.99 84.21 452.97 84.22 452.95 84.22 452.94 84.23 452.92 84.24 452.9 84.25 452.89 84.25 452.87 84.26 452.85 84.27 452.82 84.29 452.79 84.3 452.76 84.32 452.74 84.33 452.72 84.34 452.71 84.35 452.69 84.36 452.68 84.37 452.66 84.38 452.64 84.39 452.63 84.4 452.6 84.42 452.58 84.44 452.55 84.46 452.53 84.47 452.5 84.49 452.48 84.51 452.45 84.53 452.43 84.54 452.4 84.55 452.38 84.57 452.36 84.58 452.34 84.6 452.31 84.62 452.24 84.67 452.21 84.68 452.19 84.69 452.17 84.7 452.14 84.71 452.12 84.73 452.11 84.73 452.1 84.74 452.09 84.74 452.08 84.75 452.07 84.75 452.06 84.76 452.05 84.76 452.04 84.77 452.03 84.78 452.02 84.78 452.02 84.79 452.01 84.8 452 84.8 451.97 84.81 451.95 84.83 451.93 84.83 451.91 84.84 451.88 84.86 451.86 84.87 451.84 84.87 451.81 84.89 451.79 84.89 451.77 84.9 451.75 84.91 451.73 84.92 451.7 84.93 451.68 84.93 451.66 84.94 451.64 84.95 451.61 84.95 451.59 84.96 451.57 84.97 451.54 84.97 451.3 85.07 451.27 85.08 451.25 85.09 451.22 85.11 451.19 85.12 451.17 85.13 451.14 85.15 451.13 85.15 451.12 85.16 451.12 85.16 451.11 85.18 451.11 85.19 451.1 85.2 451.09 85.22 451.09 85.23 451.09 85.24 451.08 85.26 451.08 85.26 451.07 85.27 451.07 85.28 451.07 85.29 451.06 85.3 451.06 85.31 451.05 85.32 451.05 85.33 451.04 85.33 451.04 85.34 451.03 85.35 451.03 85.36 451.02 85.37 451.02 85.37 451.01 85.38 451 85.39 450.99 85.39 450.99 85.4 450.98 85.4 450.97 85.41 450.96 85.42 450.95 85.42 450.95 85.43 450.94 85.43 450.92 85.44 450.9 85.45 450.88 85.47 450.86 85.48 450.84 85.49 450.79 85.52 450.74 85.54 450.69 85.57 450.64 85.6 450.59 85.62 450.58 85.63 450.58 85.63 450.57 85.63 450.56 85.64 450.55 85.64 450.54 85.64 450.53 85.64 450.52 85.65 450.51 85.65 450.49 85.65 450.48 85.66 450.47 85.66 450.46 85.66 450.45 85.67 450.44 85.67 450.43 85.68 450.42 85.68 450.41 85.69 450.4 85.69 450.39 85.7 450.38 85.7 450.38 85.71 450.37 85.71 450.36 85.72 450.35 85.72 450.34 85.72 450.33 85.73 450.33 85.73 450.32 85.73 450.31 85.74 450.29 85.74 450.28 85.75 450.26 85.75 450.25 85.76 450.24 85.77 450.22 85.77 450.21 85.78 450.19 85.79 450.18 85.8 450.17 85.8 450.14 85.81 450.12 85.82 450.1 85.83 450.08 85.84 450.06 85.85 450.03 85.86 450.01 85.87 449.99 85.88 449.97 85.89 449.95 85.9 449.94 85.91 449.85 85.95 449.77 85.99 449.67 86.03 449.61 86.04 449.52 86.06 449.37 86.11 449.3 86.13 449.27 86.15 449.18 86.17 449.13 86.2 449.07 86.23 449.03 86.27 448.99 86.3 448.98 86.32 448.92 86.35 448.83 86.41 448.78 86.45 448.72 86.49 448.67 86.51 448.62 86.53 448.58 86.56 448.53 86.58 448.52 86.58 448.48 86.59 448.4 86.62 448.35 86.64 448.32 86.66 448.3 86.67 448.28 86.67 448.27 86.68 448.24 86.68 448.22 86.68 448.2 86.69 448.17 86.7 448.16 86.71 448.08 86.75 448.02 86.78 447.98 86.8 447.92 86.82 447.88 86.84 447.85 86.85 447.81 86.86 447.73 86.89 447.7 86.92 447.61 86.94 447.5 86.96 447.47 86.96 447.42 86.97 447.37 86.98 447.18 87.01 447.08 87.03 447.07 87.04 447.06 87.04 447.05 87.04 447.04 87.05 447.04 87.05 447.03 87.06 447.02 87.07 447.01 87.07 447 87.08 446.97 87.09 446.95 87.1 446.92 87.11 446.89 87.13 446.86 87.14 446.84 87.16 446.81 87.17 446.78 87.18 446.76 87.2 446.75 87.2 446.74 87.21 446.73 87.21 446.71 87.21 446.7 87.22 446.69 87.22 446.68 87.22 446.67 87.22 446.66 87.23 446.65 87.23 446.64 87.23 446.63 87.23 446.62 87.23 446.61 87.23 446.6 87.23 446.59 87.23 446.57 87.23 446.56 87.23 446.55 87.23 446.54 87.23 446.53 87.23 446.52 87.23 446.51 87.22 446.5 87.22 446.49 87.22 446.48 87.22 446.47 87.21 446.46 87.21 446.45 87.21 446.44 87.2 446.43 87.2 446.42 87.19 446.41 87.19 446.4 87.18 446.39 87.18 446.38 87.17 446.36 87.17 446.35 87.17 446.34 87.17 446.33 87.17 446.32 87.17 446.29 87.18 446.27 87.18 446.24 87.18 446.22 87.19 446.2 87.19 446.17 87.2 446.15 87.2 446.13 87.21 446.1 87.21 446.08 87.22 446.06 87.22 446.03 87.23 445.97 87.25 445.91 87.27 445.87 87.29 445.83 87.31 445.79 87.32 445.73 87.36 445.67 87.39 445.62 87.43 445.59 87.44 445.57 87.47 445.54 87.48 445.5 87.5 445.45 87.52 445.41 87.52 445.35 87.54 445.31 87.56 445.26 87.59 445.25 87.59 445.2 87.61 445.14 87.62 445.05 87.66 444.98 87.68 444.91 87.68 444.88 87.69 444.81 87.69 444.76 87.7 444.68 87.71 444.6 87.72 444.48 87.74 444.33 87.74 444.29 87.76 444.28 87.76 444.23 87.77 444.19 87.79 444.14 87.79 444.08 87.81 444.05 87.82 444.01 87.84 444 87.85 443.95 87.87 443.92 87.88 443.85 87.9 443.81 87.91 443.8 87.92 443.79 87.93 443.78 87.93 443.77 87.93 443.76 87.94 443.75 87.94 443.74 87.94 443.36 88.26 442.83 88.33 442.59 88.34 442.59 88.35 442.59 88.36 442.59 88.37 442.58 88.38 442.58 88.39 442.58 88.4 442.58 88.41 442.57 88.42 442.57 88.43 442.57 88.44 442.56 88.48 442.56 88.49 442.56 88.5 442.55 88.51 442.55 88.52 442.55 88.54 442.55 88.55 442.55 88.56 442.55 88.57 442.54 88.58 442.54 88.59 442.54 88.6 442.54 88.61 442.54 88.62 442.54 88.63 442.54 88.64 442.53 88.65 442.53 88.66 442.52 88.67 442.52 88.68 442.51 88.69 442.51 88.7 442.5 88.71 442.5 88.72 442.5 88.74 442.49 88.75 442.49 88.76 442.48 88.77 442.47 88.78 442.46 88.79 442.45 88.8 442.45 88.81 442.44 88.82 442.43 88.83 442.43 88.85 442.42 88.86 442.42 88.87 442.41 88.88 442.41 88.91 442.4 88.92 442.4 88.93 442.4 88.95 442.4 88.96 442.4 88.97 442.4 88.98 442.4 89 442.4 89.01 442.4 89.02 442.4 89.03 442.4 89.04 442.4 89.06 442.4 89.07 442.4 89.08 442.41 89.09 442.41 89.11 442.41 89.12 442.41 89.13 442.41 89.15 442.41 89.16 442.41 89.17 442.41 89.18 442.41 89.2 442.41 89.2 442.41 89.21 442.41 89.22 442.41 89.23 442.4 89.24 442.4 89.24 442.38 89.25 442.37 89.25 442.36 89.25 442.34 89.26 442.33 89.27 442.32 89.28 442.32 89.28 442.31 89.29 442.3 89.3 442.29 89.3 442.28 89.31 442.27 89.33 442.25 89.35 442.24 89.36 442.24 89.37 442.22 89.38 442.22 89.39 442.21 89.4 442.2 89.41 442.19 89.43 442.18 89.44 442.17 89.45 442.16 89.46 442.15 89.48 442.15 89.49 442.14 89.51 442.14 89.52 442.13 89.53 442.13 89.55 442.12 89.56 442.12 89.57 442.11 89.57 442.11 89.58 442.09 89.59 442.08 89.6 442.07 89.6 442.06 89.61 442.05 89.61 442.04 89.61 442.01 89.61 442 89.61 441.98 89.61 441.97 89.61 441.95 89.6 441.93 89.6 441.92 89.6 441.9 89.6 441.89 89.6 441.87 89.6 441.86 89.6 441.84 89.61 441.83 89.62 441.82 89.62 441.8 89.63 441.79 89.64 441.77 89.64 441.76 89.65 441.74 89.65 441.72 89.66 441.7 89.66 441.68 89.67 441.66 89.67 441.63 89.67 441.61 89.68 441.6 89.68 441.58 89.69 441.56 89.69 441.54 89.7 441.52 89.7 441.5 89.7 441.49 89.71 441.47 89.71 441.46 89.71 441.44 89.72 441.43 89.71 441.41 89.71 441.39 89.71 441.37 89.71 441.35 89.71 441.34 89.71 441.32 89.71 441.3 89.71 441.29 89.7 441.27 89.7 441.25 89.7 441.23 89.7 441.22 89.7 441.2 89.7 441.19 89.7 441.17 89.7 441.16 89.7 441.14 89.7 441.12 89.69 441.11 89.69 441.1 89.69 441.09 89.68 441.06 89.68 441.05 89.68 441.03 89.67 441.01 89.67 441 89.67 440.99 89.67 440.97 89.66 440.96 89.66 440.94 89.66 440.93 89.66 440.89 89.66 440.88 89.66 440.85 89.66 440.84 89.65 440.82 89.65 440.81 89.65 440.79 89.65 440.78 89.65 440.76 89.65 440.75 89.65 440.74 89.64 440.72 89.64 440.71 89.64 440.69 89.64 440.68 89.64 440.66 89.64 440.65 89.64 440.64 89.64 440.63 89.64 440.62 89.64 440.6 89.64 440.59 89.64 440.55 89.63 440.52 89.63 440.51 89.64 440.5 89.65 440.48 89.66 440.44 89.67 440.41 89.69 440.39 89.69 440.38 89.7 440.36 89.71 440.35 89.71 440.34 89.71 440.33 89.72 440.31 89.73 440.29 89.73 440.28 89.73 440.26 89.73 440.25 89.73 440.24 89.74 440.23 89.74 440.21 89.74 440.2 89.74 440.19 89.75 440.18 89.75 440.17 89.76 440.16 89.76 440.15 89.77 440.14 89.77 440.13 89.77 440.11 89.78 440.1 89.78 440.09 89.79 440.07 89.79 440.07 89.79 440.05 89.8 440.04 89.8 440.03 89.8 440.03 89.81 440.02 89.81 440.01 89.81 440 89.82 440 89.82 439.99 89.82 439.97 89.83 439.96 89.84 439.95 89.84 439.94 89.85 439.93 89.85 439.92 89.86 439.91 89.86 439.9 89.87 439.89 89.87 439.89 89.88 439.88 89.88 439.87 89.88 439.86 89.88 439.85 89.88 439.84 89.89 439.83 89.89 439.81 89.9 439.8 89.9 439.79 89.91 439.78 89.91 439.77 89.92 439.76 89.92 439.76 89.93 439.75 89.93 439.74 89.94 439.74 89.95 439.73 89.95 439.72 89.96 439.72 89.97 439.71 89.98 439.71 89.99 439.7 90 439.7 90 439.7 90.02 439.7 90.03 439.7 90.04 439.7 90.05 439.69 90.06 439.69 90.07 439.69 90.08 439.69 90.09 439.68 90.1 439.68 90.11 439.68 90.12 439.67 90.13 439.67 90.14 439.67 90.15 439.67 90.18 439.67 90.19 439.67 90.2 439.66 90.21 439.66 90.22 439.66 90.23 439.66 90.24 439.62 90.59 439.68 90.67 439.68 90.97 439.67 91.12 439.66 91.59 439.59 91.58 439.59 91.59 439.58 91.59 439.56 91.59 439.56 91.6 439.54 91.59 439.53 91.59 439.52 91.58 439.51 91.58 439.49 91.58 439.48 91.58 439.47 91.58 439.46 91.59 439.45 91.6 439.44 91.61 439.42 91.61 439.41 91.61 439.4 91.61 439.39 91.61 439.39 91.61 439.38 91.61 439.37 91.62 439.36 91.64 439.36 91.64 439.35 91.66 439.34 91.66 439.33 91.67 439.32 91.68 439.31 91.68 439.3 91.68 439.3 91.7 439.31 91.7 439.32 91.71 439.32 91.72 439.33 91.74 439.32 91.75 439.32 91.76 439.33 91.76 439.33 91.77 439.32 91.78 439.31 91.78 439.31 91.79 439.3 91.8 439.3 91.81 439.3 91.82 439.3 91.84 439.3 91.85 439.3 91.85 439.31 91.86 439.32 91.87 439.34 91.87 439.35 91.87 439.36 91.88 439.36 91.88 439.37 91.9 439.39 91.9 439.4 91.91 439.41 91.91 439.41 91.91 439.43 91.92 439.44 91.93 439.44 91.94 439.45 91.94 439.46 91.93 439.48 91.93 439.48 91.93 439.49 91.94 439.5 91.95 439.52 91.96 439.53 91.97 439.53 91.99 439.53 92 439.55 92 439.56 92 439.73 91.98 439.75 91.97 439.75 91.98 439.73 91.99 439.63 92 439.65 92.19 439.73 92.18 439.76 92.18 439.77 92.18 439.77 92.2 439.74 92.21 439.73 92.21 439.54 92.23 439.55 92.26 439.57 92.56 439.57 92.58 439.25 92.61 439.24 92.58 439.22 92.35 439.22 92.33 439.21 92.34 439.16 92.34 439.11 92.34 439.11 92.31 439.09 92.03 439.09 92.03 439.09 92.02 439.07 92.01 439.07 92.05 439.04 92.06 439.04 92.12 439.06 92.31 439.05 92.31 439.03 92.12 439.03 92.06 439.03 92.05 439.02 92.05 438.99 92.14 438.99 92.14 438.99 92.16 438.94 92.16 438.93 92.13 438.92 92.19 438.94 92.32 438.96 92.49 438.95 92.49 438.95 92.5 438.67 92.29 438.72 92.21 438.67 92.17 438.63 92.21 438.62 92.21 438.66 92.16 438.47 91.99 438.45 91.98 438.44 91.98 438.21 91.82 438.08 91.73 438.09 91.71 437.98 91.64 437.96 91.63 437.9 91.58 437.89 91.57 437.88 91.58 437.86 91.6 437.81 91.64 437.8 91.63 437.85 91.59 437.88 91.56 437.82 91.49 437.64 91.35 437.67 91.27 437.68 91.26 437.67 91.25 437.65 91.24 437.63 91.23 437.45 91.15 437.46 91.14 437.47 91.13 437.46 91.12 437.47 91.1 437.45 91.09 437.42 91.08 437.41 91.07 437.39 91.11 437.4 91.12 437.39 91.13 437.36 91.11 437.36 91.1 437.38 91.09 437.39 91.06 437.35 91.04 437.34 91.03 437.3 91.02 437.28 91 437.28 90.98 437.27 90.99 437.25 90.98 437.22 90.95 437.22 90.94 437.21 90.93 437.21 90.94 437.2 90.95 437.19 90.94 437.18 90.93 437.19 90.92 437.21 90.88 437.18 90.87 437.16 90.89 437.15 90.89 437.13 90.88 437.12 90.9 437.1 90.88 437.11 90.88 437.09 90.87 437.08 90.85 437.04 90.83 437.02 90.82 437 90.8 436.98 90.79 436.97 90.77 436.93 90.74 436.89 90.71 436.9 90.7 436.91 90.69 436.9 90.69 436.89 90.7 436.84 90.75 436.85 90.76 436.84 90.77 436.82 90.75 436.83 90.74 436.84 90.75 436.86 90.72 436.88 90.7 436.89 90.68 436.88 90.67 436.87 90.68 436.86 90.67 436.83 90.64 436.81 90.61 436.79 90.57 436.78 90.52 436.79 90.52 436.79 90.51 436.76 90.51 436.76 90.5 436.79 90.5 436.79 90.46 436.79 90.45 436.77 90.45 436.76 90.46 436.75 90.46 436.75 90.43 436.77 90.43 436.77 90.44 436.79 90.44 436.79 90.4 436.81 90.37 436.84 90.38 436.84 90.37 436.84 90.36 436.84 90.35 436.85 90.34 436.84 90.35 436.81 90.34 436.8 90.34 436.81 90.29 436.79 90.29 436.79 90.27 436.81 90.27 436.83 90.27 436.83 90.26 436.84 90.25 436.83 90.21 436.82 90.21 436.8 90.17 436.79 90.17 436.77 90.19 436.76 90.18 436.78 90.16 436.78 90.14 436.75 90.1 436.69 90.04 436.68 90.04 436.67 90.03 436.67 90.02 436.65 90.01 436.64 89.99 436.65 89.98 436.64 89.98 436.63 89.97 436.61 89.95 436.62 89.93 436.6 89.93 436.59 89.93 436.58 89.93 436.47 89.87 436.41 89.82 436.4 89.79 436.4 89.79 436.38 89.77 436.37 89.76 436.36 89.73 436.35 89.74 436.29 89.65 436.29 89.6 436.3 89.6 436.3 89.57 436.31 89.55 436.31 89.47 436.31 89.47 436.3 89.46 436.3 89.45 436.23 89.37 436.24 89.36 436.24 89.3 436.22 89.3 436.17 89.32 436.17 89.31 436.18 89.3 436.18 89.28 436.17 89.26 436.16 89.25 436.15 89.23 436.14 89.22 436.13 89.22 436.13 89.21 436.12 89.2 436.11 89.19 436.1 89.19 436.09 89.18 436.08 89.17 436.08 89.16 436.07 89.16 436.06 89.15 436.05 89.14 436.04 89.14 436.03 89.13 436.02 89.12 436.01 89.12 436.01 89.12 435.99 89.1 435.99 89.1 435.98 89.09 435.97 89.09 435.97 89.08 435.96 89.08 435.95 89.08 435.94 89.07 435.93 89.07 435.92 89.06 435.91 89.06 435.91 89.06 435.9 89.05 435.89 89.05 435.88 89.04 435.87 89.04 435.86 89.03 435.85 89.02 435.84 89.02 435.83 89 435.83 89 435.82 88.99 435.82 88.98 435.82 88.97 435.81 88.96 435.81 88.96 435.81 88.95 435.81 88.94 435.8 88.92 435.8 88.91 435.79 88.9 435.79 88.89 435.79 88.88 435.78 88.87 435.78 88.86 435.77 88.85 435.77 88.84 435.76 88.83 435.76 88.82 435.76 88.82 435.76 88.81 435.75 88.79 435.75 88.79 435.75 88.78 435.75 88.77 435.75 88.76 435.75 88.75 435.75 88.74 435.75 88.73 435.76 88.72 435.77 88.72 435.78 88.71 435.78 88.7 435.79 88.69 435.79 88.68 435.79 88.67 435.79 88.66 435.8 88.65 435.8 88.64 435.79 88.63 435.79 88.62 435.79 88.61 435.79 88.59 435.79 88.59 435.79 88.57 435.79 88.56 435.78 88.55 435.77 88.55 435.77 88.54 435.76 88.53 435.75 88.52 435.75 88.51 435.75 88.5 435.75 88.49 435.75 88.49 435.75 88.48 435.74 88.47 435.73 88.46 435.73 88.45 435.72 88.44 435.72 88.43 435.72 88.42 435.72 88.41 435.71 88.41 435.71 88.4 435.72 88.39 435.72 88.38 435.73 88.37 435.72 88.36 435.72 88.36 435.72 88.34 435.72 88.33 435.72 88.32 435.72 88.31 435.72 88.3 435.71 88.29 435.71 88.27 435.71 88.26 435.71 88.25 435.7 88.25 435.69 88.24 435.68 88.23 435.68 88.23 435.67 88.22 435.66 88.21 435.66 88.2 435.67 88.19 435.67 88.19 435.69 88.18 435.69 88.17 435.69 88.17 435.7 88.16 435.7 88.15 435.7 88.15 435.69 88.13 435.7 88.12 435.71 88.11 435.72 88.1 435.73 88.09 435.74 88.09 435.74 88.08 435.74 88.07 435.75 88.07 435.77 88.07 435.76 88.06 435.73 88.04 435.68 87.95 435.68 87.93 435.67 87.92 435.68 87.91 435.68 87.9 435.69 87.9 435.7 87.9 435.72 87.9 435.73 87.9 435.75 87.9 435.91 87.83 435.92 87.81 435.92 87.8 435.93 87.8 435.94 87.79 435.95 87.79 435.96 87.78 435.97 87.77 435.98 87.77 435.98 87.76 435.98 87.75 435.99 87.74 435.99 87.73 435.99 87.72 436 87.71 436.01 87.7 436.01 87.69 436 87.68 436 87.67 436 87.66 435.99 87.65 435.99 87.64 435.99 87.62 435.99 87.61 435.98 87.61 435.97 87.6 435.96 87.6 435.94 87.61 435.93 87.61 435.9 87.62 435.89 87.63 435.88 87.63 435.87 87.63 435.86 87.62 435.85 87.62 435.84 87.62 435.83 87.61 435.82 87.61 435.81 87.6 435.81 87.6 435.8 87.6 435.79 87.6 435.78 87.62 435.77 87.62 435.76 87.62 435.74 87.62 435.73 87.61 435.72 87.61 435.71 87.61 435.7 87.61 435.7 87.6 435.69 87.6 435.68 87.6 435.67 87.59 435.66 87.59 435.64 87.59 435.63 87.59 435.62 87.59 435.61 87.59 435.6 87.59 435.59 87.59 435.59 87.59 435.58 87.58 435.57 87.58 435.56 87.58 435.55 87.58 435.54 87.59 435.52 87.58 435.52 87.57 435.51 87.57 435.51 87.56 435.5 87.56 435.5 87.56 435.49 87.57 435.48 87.56 435.48 87.56 435.48 87.55 435.47 87.54 435.46 87.53 435.45 87.52 435.44 87.51 435.44 87.51 435.43 87.51 435.42 87.5 435.41 87.5 435.4 87.49 435.39 87.49 435.38 87.5 435.37 87.5 435.36 87.51 435.36 87.51 435.35 87.5 435.34 87.5 435.33 87.49 435.33 87.48 435.33 87.47 435.32 87.47 435.32 87.47 435.31 87.48 435.31 87.49 435.29 87.49 435.28 87.48 435.28 87.47 435.27 87.47 435.26 87.46 435.26 87.45 435.25 87.44 435.25 87.43 435.24 87.43 435.23 87.42 435.22 87.41 435.21 87.41 435.21 87.4 435.21 87.39 435.2 87.39 435.2 87.38 435.2 87.37 435.2 87.36 435.19 87.35 435.19 87.34 435.18 87.34 435.18 87.33 435.17 87.33 435.16 87.32 435.15 87.31 435.15 87.31 435.14 87.3 435.13 87.29 435.12 87.29 435.12 87.28 435.11 87.27 435.11 87.26 435.1 87.25 435.09 87.25 435.09 87.24 435.08 87.24 435.06 87.23 435.05 87.22 435.05 87.22 435.03 87.2 435.02 87.2 435.02 87.2 435.01 87.2 435 87.19 435 87.19 434.99 87.18 434.98 87.17 434.98 87.16 434.97 87.15 434.96 87.14 434.96 87.14 434.95 87.13 434.94 87.11 434.94 87.11 434.92 87.1 434.91 87.1 434.9 87.1 434.9 87.1 434.88 87.08 434.88 87.08 434.89 87.06 434.88 87.05 434.88 87.04 434.87 87.05 434.86 87.05 434.85 87.05 434.84 87.04 434.84 87.03 434.84 87.01 434.84 87 434.84 86.99 434.84 86.98 434.84 86.97 434.83 86.96 434.83 86.96 434.83 86.95 434.83 86.94 434.83 86.93 434.83 86.92 434.83 86.91 434.83 86.9 434.84 86.89 434.85 86.88 434.85 86.87 434.85 86.87 434.84 86.87 434.83 86.87 434.82 86.86 434.82 86.85 434.81 86.85 434.8 86.84 434.8 86.83 434.8 86.82 434.8 86.82 434.8 86.81 434.8 86.8 434.81 86.79 434.81 86.78 434.81 86.78 434.81 86.77 434.8 86.75 434.69 86.78 434.59 86.79 434.53 86.8 434.49 86.79 434.5 86.77 434.59 86.77 434.71 86.75 434.8 86.74 434.8 86.74 434.82 86.74 434.83 86.76 434.85 86.75 434.86 86.75 434.87 86.75 434.88 86.74 434.89 86.75 434.9 86.75 434.9 86.75 434.91 86.75 434.92 86.74 434.93 86.73 434.94 86.71 434.95 86.71 434.97 86.7 434.98 86.7 434.99 86.69 434.99 86.68 435 86.68 435.01 86.67 435.02 86.67 435.03 86.67 435.05 86.67 435.07 86.67 435.08 86.67 435.09 86.66 435.1 86.65 435.1 86.65 435.11 86.64 435.12 86.63 435.13 86.62 435.14 86.63 435.14 86.63 435.16 86.63 435.21 86.63 435.22 86.63 435.24 86.63 435.25 86.62 435.26 86.62 435.27 86.62 435.28 86.62 435.29 86.62 435.31 86.62 435.32 86.62 435.33 86.62 435.35 86.62 435.37 86.61 435.38 86.62 435.39 86.62 435.4 86.61 435.41 86.62 435.42 86.62 435.44 86.62 435.44 86.62 435.45 86.62 435.46 86.62 435.47 86.62 435.48 86.63 435.49 86.63 435.5 86.63 435.51 86.63 435.52 86.63 435.53 86.63 435.54 86.63 435.55 86.62 435.56 86.62 435.58 86.63 435.59 86.63 435.6 86.63 435.61 86.63 435.62 86.63 435.63 86.63 435.63 86.62 435.64 86.61 435.65 86.61 435.66 86.6 435.67 86.6 435.68 86.6 435.69 86.6 435.7 86.6 435.71 86.61 435.72 86.61 435.72 86.6 435.73 86.59 435.75 86.59 435.76 86.59 435.77 86.59 435.77 86.59 435.78 86.59 435.8 86.59 435.82 86.59 435.83 86.59 435.83 86.59 435.85 86.59 435.84 86.6 435.83 86.6 435.82 86.6 435.8 86.6 435.79 86.61 435.8 86.62 435.8 86.63 435.82 86.63 435.83 86.63 435.85 86.63 435.85 86.63 435.86 86.63 435.87 86.63 435.86 86.64 435.85 86.65 435.86 86.65 435.88 86.65 435.89 86.66 435.89 86.66 435.9 86.66 435.92 86.65 435.93 86.66 435.94 86.66 435.95 86.65 435.95 86.64 435.94 86.63 435.93 86.62 435.93 86.62 435.94 86.61 435.95 86.6 435.97 86.6 435.99 86.6 436 86.6 436.01 86.6 436.02 86.6 436.03 86.6 436.04 86.6 436.06 86.6 436.07 86.6 436.07 86.61 436.07 86.62 436.06 86.62 436.06 86.63 436.05 86.64 436.06 86.65 436.07 86.65 436.09 86.65 436.1 86.65 436.11 86.65 436.13 86.64 436.13 86.63 436.12 86.62 436.12 86.61 436.11 86.61 436.12 86.6 436.13 86.61 436.14 86.61 436.15 86.61 436.15 86.61 436.16 86.62 436.18 86.62 436.19 86.63 436.19 86.62 436.21 86.62 436.23 86.61 436.24 86.61 436.25 86.61 436.26 86.61 436.27 86.61 436.28 86.61 436.28 86.61 436.3 86.61 436.31 86.61 436.32 86.61 436.32 86.61 436.34 86.61 436.35 86.61 436.36 86.61 436.36 86.61 436.36 86.6 436.37 86.6 436.39 86.6 436.39 86.58 436.4 86.58 436.41 86.58 436.42 86.58 436.43 86.58 436.44 86.58 436.45 86.58 436.47 86.58 436.48 86.59 436.46 86.59 436.48 86.6 436.49 86.6 436.5 86.6 436.51 86.6 436.52 86.6 436.54 86.6 436.55 86.6 436.55 86.61 436.56 86.6 436.57 86.59 436.58 86.59 436.59 86.59 436.6 86.59 436.61 86.58 436.61 86.57 436.62 86.56 436.63 86.56 436.64 86.56 436.64 86.55 436.64 86.54 436.65 86.53 436.66 86.54 436.67 86.55 436.67 86.54 436.67 86.53 436.68 86.52 436.69 86.52 436.69 86.52 436.69 86.53 436.68 86.54 436.69 86.55 436.7 86.55 436.7 86.55 436.7 86.54 436.71 86.54 436.71 86.53 436.72 86.52 436.73 86.52 436.73 86.53 436.74 86.54 436.75 86.54 436.76 86.55 436.77 86.55 436.78 86.56 436.78 86.56 436.79 86.56 436.8 86.57 436.81 86.57 436.83 86.57 436.85 86.57 436.86 86.57 436.86 86.57 436.88 86.57 436.89 86.57 436.9 86.57 436.9 86.57 436.91 86.57 436.96 86.57 436.97 86.56 436.99 86.56 437.01 86.56 437.03 86.55 437.04 86.54 437.05 86.54 437.06 86.54 437.06 86.55 437.07 86.56 437.09 86.57 437.1 86.56 437.11 86.56 437.12 86.56 437.13 86.55 437.14 86.54 437.14 86.54 437.15 86.53 437.15 86.54 437.15 86.55 437.16 86.55 437.16 86.56 437.17 86.56 437.17 86.55 437.18 86.53 437.18 86.53 437.19 86.52 437.2 86.51 437.2 86.51 437.21 86.51 437.22 86.51 437.22 86.5 437.24 86.5 437.25 86.5 437.26 86.5 437.27 86.49 437.27 86.48 437.28 86.48 437.3 86.48 437.31 86.47 437.32 86.47 437.33 86.46 437.34 86.46 437.36 86.46 437.36 86.45 437.37 86.45 437.38 86.46 437.39 86.46 437.4 86.45 437.42 86.45 437.43 86.45 437.43 86.45 437.44 86.46 437.45 86.46 437.46 86.46 437.47 86.45 437.48 86.45 437.48 86.45 437.49 86.46 437.5 86.46 437.51 86.46 437.52 86.45 437.52 86.44 437.53 86.44 437.54 86.44 437.55 86.44 437.56 86.43 437.58 86.43 437.58 86.42 437.58 86.41 437.59 86.41 437.6 86.42 437.61 86.42 437.61 86.42 437.61 86.41 437.62 86.41 437.63 86.41 437.63 86.4 437.64 86.38 437.64 86.38 437.66 86.38 437.66 86.37 437.67 86.37 437.68 86.38 437.69 86.36 437.69 86.35 437.69 86.35 437.69 86.34 437.7 86.33 437.7 86.34 437.71 86.34 437.72 86.35 437.73 86.34 437.73 86.33 437.73 86.32 437.74 86.32 437.75 86.31 437.76 86.31 437.75 86.3 437.75 86.29 437.75 86.28 437.75 86.27 437.76 86.28 437.77 86.28 437.78 86.27 437.79 86.26 437.8 86.26 437.81 86.25 437.81 86.24 437.81 86.24 437.81 86.22 437.82 86.22 437.83 86.21 437.83 86.2 437.82 86.19 437.83 86.19 437.84 86.19 437.86 86.19 437.86 86.19 437.88 86.17 437.88 86.17 437.89 86.17 437.9 86.16 437.91 86.16 437.92 86.16 437.93 86.15 437.95 86.14 437.96 86.13 437.97 86.13 437.97 86.12 437.99 86.12 438 86.11 438 86.1 438.01 86.09 438.02 86.09 438.02 86.11 438.03 86.12 438.05 86.12 438.06 86.11 438.07 86.11 438.07 86.1 438.08 86.1 438.09 86.1 438.1 86.09 438.11 86.08 438.12 86.08 438.13 86.08 438.13 86.07 438.14 86.07 438.15 86.07 438.16 86.07 438.16 86.06 438.17 86.06 438.19 86.05 438.2 86.05 438.21 86.04 438.21 86.04 438.22 86.03 438.23 86.02 438.23 86.02 438.25 86.02 438.26 86.02 438.26 86.02 438.27 86.02 438.28 86.02 438.29 86.02 438.3 86.02 438.31 86.02 438.31 86.01 438.32 86.01 438.33 86.01 438.34 86.01 438.35 86 438.36 85.99 438.36 85.98 438.36 85.97 438.37 85.96 438.37 85.95 438.38 85.94 438.39 85.94 438.4 85.94 438.4 85.93 438.4 85.92 438.4 85.91 438.41 85.9 438.41 85.9 438.42 85.9 438.43 85.9 438.46 85.88 438.47 85.88 438.48 85.87 438.49 85.86 438.5 85.86 438.51 85.86 438.51 85.86 438.53 85.86 438.55 85.87 438.55 85.86 438.56 85.86 438.56 85.85 438.57 85.85 438.58 85.84 438.58 85.84 438.59 85.83 438.6 85.83 438.62 85.81 438.63 85.8 438.63 85.8 438.64 85.79 438.64 85.79 438.66 85.78 438.67 85.78 438.67 85.77 438.67 85.76 438.67 85.75 438.67 85.74 438.68 85.75 438.69 85.76 438.7 85.76 438.71 85.75 438.72 85.75 438.73 85.74 438.73 85.73 438.73 85.72 438.74 85.71 438.75 85.71 438.76 85.7 438.76 85.7 438.77 85.69 438.78 85.69 438.77 85.68 438.77 85.67 438.77 85.66 438.77 85.65 438.78 85.65 438.79 85.65 438.81 85.66 438.82 85.65 438.82 85.65 438.83 85.65 438.84 85.66 438.85 85.65 438.85 85.64 438.84 85.64 438.84 85.63 438.83 85.62 438.84 85.61 438.87 85.62 438.87 85.62 438.88 85.63 438.87 85.64 438.87 85.65 438.88 85.64 438.89 85.65 438.9 85.65 438.91 85.65 438.91 85.66 438.93 85.66 438.94 85.67 438.95 85.66 438.97 85.65 438.98 85.65 438.99 85.65 439 85.65 439.01 85.66 439.02 85.66 439.03 85.66 439.04 85.67 439.05 85.67 439.06 85.68 439.08 85.7 439.09 85.7 439.1 85.71 439.11 85.71 439.12 85.7 439.14 85.7 439.15 85.7 439.16 85.7 439.16 85.7 439.17 85.69 439.18 85.69 439.19 85.69 439.2 85.68 439.21 85.69 439.22 85.69 439.22 85.69 439.24 85.69 439.24 85.69 439.26 85.69 439.27 85.69 439.27 85.68 439.28 85.68 439.29 85.67 439.3 85.67 439.3 85.65 439.31 85.64 439.32 85.63 439.32 85.61 439.33 85.6 439.34 85.6 439.34 85.59 439.34 85.57 439.34 85.57 439.34 85.56 439.34 85.54 439.33 85.54 439.32 85.53 439.34 85.53 439.35 85.52 439.34 85.51 439.33 85.49 439.32 85.49 439.31 85.49 439.3 85.48 439.3 85.47 439.29 85.46 439.29 85.46 439.3 85.44 439.31 85.43 439.32 85.44 439.33 85.44 439.34 85.45 439.35 85.46 439.36 85.46 439.37 85.45 439.38 85.44 439.39 85.44 439.4 85.43 439.41 85.43 439.42 85.42 439.42 85.41 439.43 85.39 439.44 85.39 439.45 85.39 439.46 85.39 439.46 85.38 439.46 85.37 439.46 85.36 439.46 85.35 439.46 85.34 439.47 85.34 439.48 85.35 439.49 85.35 439.5 85.36 439.51 85.36 439.52 85.35 439.52 85.34 439.52 85.33 439.51 85.33 439.5 85.33 439.5 85.33 439.5 85.31 439.51 85.3 439.52 85.3 439.53 85.31 439.54 85.31 439.55 85.32 439.56 85.31 439.56 85.3 439.56 85.3 439.56 85.29 439.57 85.28 439.56 85.27 439.57 85.26 439.57 85.26 439.57 85.25 439.58 85.24 439.58 85.24 439.59 85.23 439.6 85.22 439.62 85.23 439.63 85.22 439.64 85.21 439.65 85.2 439.65 85.19 439.66 85.18 439.66 85.17 439.68 85.18 439.68 85.19 439.69 85.2 439.7 85.19 439.71 85.19 439.72 85.19 439.73 85.18 439.73 85.17 439.73 85.17 439.74 85.16 439.74 85.15 439.74 85.14 439.75 85.14 439.75 85.13 439.76 85.12 439.77 85.12 439.77 85.12 439.78 85.12 439.79 85.12 439.8 85.13 439.81 85.13 439.81 85.11 439.82 85.11 439.83 85.11 439.83 85.1 439.82 85.1 439.83 85.09 439.84 85.1 439.85 85.11 439.86 85.11 439.87 85.1 439.87 85.1 439.87 85.08 439.88 85.07 439.87 85.07 439.87 85.06 439.87 85.05 439.87 85.04 439.88 85.04 439.9 85.03 439.89 85.01 439.88 85.01 439.88 85 439.88 84.99 439.88 84.98 439.87 84.98 439.86 84.98 439.85 84.98 439.85 84.97 439.83 84.97 439.83 84.97 439.82 84.96 439.81 84.96 439.82 84.95 439.83 84.94 439.83 84.93 439.83 84.93 439.83 84.92 439.85 84.92 439.86 84.92 439.85 84.9 439.86 84.9 439.86 84.9 439.87 84.9 439.89 84.89 439.9 84.89 439.91 84.88 439.92 84.88 439.94 84.88 439.95 84.87 439.97 84.87 439.99 84.87 439.99 84.87 440 84.86 440.01 84.86 440.02 84.86 440.03 84.86 440.03 84.87 440.04 84.87 440.05 84.86 440.06 84.86 440.07 84.86 440.07 84.86 440.07 84.87 440.07 84.88 440.08 84.87 440.1 84.87 440.11 84.86 440.13 84.86 440.14 84.86 440.17 84.85 440.18 84.84 440.23 84.83 440.26 84.82 440.3 84.81 440.31 84.81 440.32 84.8 440.33 84.8 440.35 84.8 440.36 84.79 440.37 84.79 440.38 84.78 440.4 84.78 440.41 84.78 440.42 84.77 440.43 84.77 440.44 84.77 440.46 84.77 440.47 84.76 440.48 84.75 440.49 84.75 440.52 84.74 440.55 84.73 440.56 84.73 440.57 84.72 440.58 84.72 440.6 84.71 440.61 84.71 440.62 84.71 440.64 84.7 440.64 84.69 440.63 84.69 440.62 84.7 440.58 84.71 440.57 84.71 440.55 84.72 440.54 84.72 440.53 84.72 440.52 84.73 440.51 84.73 440.49 84.73 440.49 84.74 440.48 84.74 440.47 84.74 440.44 84.76 440.43 84.76 440.42 84.76 440.41 84.76 440.39 84.77 440.38 84.77 440.37 84.77 440.36 84.77 440.35 84.76 440.36 84.75 440.37 84.74 440.37 84.75 440.38 84.76 440.39 84.75 440.4 84.75 440.42 84.75 440.43 84.74 440.44 84.74 440.45 84.74 440.45 84.73 440.47 84.73 440.48 84.72 440.49 84.73 440.5 84.72 440.51 84.71 440.52 84.7 440.53 84.7 440.54 84.7 440.57 84.68 440.58 84.68 440.6 84.68 440.6 84.68 440.61 84.67 440.63 84.67 440.64 84.66 440.65 84.66 440.66 84.66 440.67 84.65 440.68 84.65 440.68 84.66 440.68 84.67 440.69 84.67 440.7 84.66 440.7 84.65 440.71 84.65 440.72 84.66 440.7 84.68 440.71 84.69 440.72 84.69 440.72 84.7 440.72 84.71 440.73 84.71 440.74 84.71 440.75 84.71 440.76 84.72 440.77 84.73 440.78 84.74 440.79 84.74 440.79 84.73 440.8 84.73 440.81 84.73 440.82 84.73 440.83 84.72 440.84 84.71 440.85 84.71 440.86 84.7 440.86 84.69 440.88 84.69 440.88 84.68 440.89 84.68 440.9 84.68 440.91 84.69 440.92 84.68 440.93 84.68 440.94 84.68 440.96 84.69 440.96 84.71 440.97 84.71 440.98 84.72 440.99 84.72 441 84.71 441.01 84.69 441.02 84.68 441.03 84.67 441.04 84.65 441.05 84.63 441.06 84.62 441.07 84.61 441.08 84.6 441.08 84.59 441.09 84.59 441.09 84.58 441.1 84.57 441.1 84.56 441.11 84.56 441.12 84.56 441.13 84.56 441.14 84.58 441.14 84.59 441.14 84.6 441.13 84.6 441.14 84.61 441.16 84.61 441.16 84.6 441.17 84.59 441.18 84.58 441.19 84.58 441.2 84.58 441.21 84.58 441.22 84.58 441.22 84.57 441.22 84.56 441.21 84.55 441.22 84.54 441.23 84.54 441.24 84.53 441.24 84.53 441.25 84.54 441.25 84.55 441.25 84.56 441.24 84.57 441.24 84.58 441.24 84.59 441.25 84.61 441.25 84.61 441.27 84.61 441.28 84.6 441.29 84.59 441.31 84.58 441.32 84.57 441.34 84.57 441.35 84.56 441.36 84.56 441.37 84.56 441.38 84.55 441.39 84.54 441.4 84.53 441.4 84.52 441.41 84.51 441.42 84.51 441.43 84.52 441.44 84.52 441.45 84.52 441.46 84.52 441.47 84.51 441.49 84.51 441.5 84.5 441.52 84.5 441.53 84.5 441.55 84.5 441.56 84.5 441.57 84.5 441.59 84.5 441.6 84.5 441.6 84.5 441.62 84.5 441.63 84.49 441.64 84.48 441.65 84.47 441.65 84.46 441.64 84.45 441.64 84.44 441.62 84.44 441.6 84.44 441.6 84.43 441.58 84.43 441.58 84.42 441.59 84.41 441.6 84.4 441.61 84.4 441.62 84.4 441.62 84.4 441.64 84.39 441.65 84.39 441.66 84.38 441.67 84.38 441.7 84.37 441.72 84.36 441.74 84.36 441.76 84.35 441.77 84.35 441.8 84.34 441.81 84.33 441.83 84.32 441.82 84.32 441.81 84.32 441.8 84.32 441.78 84.32 441.78 84.31 441.79 84.3 441.79 84.3 441.78 84.29 441.78 84.28 441.78 84.27 441.79 84.27 441.8 84.26 441.81 84.26 441.82 84.26 441.82 84.25 441.81 84.24 441.81 84.24 441.81 84.23 441.82 84.22 441.84 84.22 441.86 84.21 441.87 84.21 441.88 84.2 441.89 84.2 441.92 84.19 441.94 84.18 441.97 84.17 441.99 84.16 442 84.15 442.02 84.15 442.04 84.14 442.05 84.13 442.06 84.13 442.07 84.12 442.07 84.11 442.09 84.11 442.12 84.1 442.13 84.09 442.15 84.08 442.16 84.08 442.18 84.07 442.19 84.07 442.21 84.06 442.25 84.04 442.29 84.03 442.31 84.02 442.33 84.01 442.36 84 442.38 83.99 442.43 83.97 442.45 83.95 442.54 83.91 442.56 83.91 442.61 83.88 442.61 83.88 442.64 83.87 442.65 83.86 442.66 83.86 442.66 83.86 442.66 83.85 442.65 83.84 442.64 83.83 442.64 83.82 442.64 83.81 442.65 83.79 442.65 83.78 442.66 83.77 442.67 83.76 442.67 83.75 442.67 83.74 442.65 83.73 442.65 83.73 442.63 83.73 442.62 83.73 442.6 83.73 442.59 83.73 442.57 83.73 442.52 83.73 442.49 83.73 442.49 83.73 442.49 83.7 442.49 83.7 442.5 83.69 442.52 83.69 442.53 83.69 442.54 83.69 442.55 83.69 442.55 83.7 442.57 83.7 442.58 83.7 442.61 83.69 442.63 83.68 442.65 83.66 442.69 83.65 442.73 83.63 442.75 83.62 442.78 83.6 442.82 83.59 442.83 83.58 442.85 83.57 442.86 83.56 442.88 83.55 442.89 83.55 442.91 83.55 442.91 83.55 442.92 83.56 442.93 83.56 442.94 83.55 442.94 83.53 442.94 83.52 442.94 83.5 442.95 83.49 442.96 83.5 442.96 83.51 442.97 83.52 442.99 83.52 443 83.51 443.01 83.51 443.01 83.51 443.02 83.51 443.03 83.51 443.04 83.5 443.05 83.49 443.06 83.48 443.06 83.47 443.07 83.46 443.08 83.46 443.09 83.47 443.09 83.47 443.1 83.48 443.11 83.48 443.12 83.48 443.13 83.48 443.14 83.47 443.15 83.47 443.15 83.48 443.16 83.49 443.16 83.5 443.18 83.51 443.19 83.51 443.2 83.5 443.21 83.5 443.22 83.5 443.23 83.51 443.24 83.51 443.25 83.51 443.26 83.5 443.27 83.49 443.28 83.49 443.29 83.5 443.3 83.51 443.31 83.51 443.32 83.51 443.33 83.52 443.34 83.53 443.35 83.53 443.36 83.53 443.37 83.53 443.38 83.52 443.39 83.51 443.41 83.5 443.42 83.48 443.44 83.47 443.45 83.46 443.47 83.46 443.48 83.46 443.49 83.46 443.5 83.45 443.5 83.44 443.5 83.44 443.49 83.43 443.49 83.42 443.5 83.41 443.51 83.4 443.52 83.39 443.53 83.38 443.54 83.36 443.54 83.35 443.55 83.35 443.56 83.34 443.57 83.34 443.58 83.34 443.58 83.33 443.59 83.32 443.59 83.3 443.59 83.29 443.6 83.27 443.61 83.26 443.62 83.23 443.63 83.22 443.63 83.21 443.64 83.18 443.65 83.17 443.65 83.16 443.66 83.15 443.68 83.13 443.69 83.12 443.69 83.11 443.7 83.1 443.71 83.1 443.71 83.08 443.72 83.07 443.74 83.05 443.75 83.04 443.76 83.03 443.78 83.03 443.79 83.02 443.79 83.01 443.8 83 443.82 83 443.83 83 443.85 83 443.86 83 443.91 82.99 443.92 82.99 443.93 82.98 443.97 82.97 443.99 82.97 444.01 82.98 444.02 82.98 444.03 82.99 444.05 82.99 444.06 82.99 444.08 83 444.09 83.01 444.11 83.03 444.13 83.04 444.14 83.05 444.15 83.06 444.16 83.07 444.17 83.07 444.19 83.07 444.2 83.06 444.21 83.06 444.23 83.05 444.24 83.04 444.25 83.03 444.26 83.02 444.26 83.01 444.27 83 444.27 82.99 444.26 82.99 444.24 82.99 444.23 82.98 444.24 82.97 444.24 82.96 444.24 82.96 444.24 82.95 444.24 82.94 444.25 82.92 444.25 82.91 444.25 82.89 444.25 82.88 444.24 82.88 444.23 82.88 444.22 82.88 444.21 82.88 444.2 82.87 444.19 82.87 444.18 82.86 444.19 82.85 444.2 82.85 444.21 82.84 444.22 82.83 444.22 82.83 444.22 82.81 444.23 82.8 444.24 82.8 444.25 82.8 444.27 82.78 444.32 82.76 444.34 82.75 444.36 82.73 444.37 82.73 444.38 82.73 444.4 82.72 444.42 82.71 444.43 82.7 444.45 82.7 444.47 82.69 444.48 82.68 444.49 82.67 444.51 82.66 444.52 82.65 444.53 82.65 444.54 82.65 444.55 82.65 444.56 82.64 444.57 82.64 444.58 82.63 444.59 82.62 444.6 82.62 444.62 82.61 444.63 82.61 444.65 82.6 444.66 82.59 444.68 82.59 444.69 82.59 444.7 82.59 444.71 82.58 444.72 82.59 444.73 82.59 444.74 82.6 444.75 82.61 444.77 82.61 444.78 82.61 444.79 82.61 444.81 82.61 444.82 82.6 444.82 82.6 444.82 82.58 444.81 82.57 444.81 82.55 444.83 82.54 444.84 82.53 444.86 82.51 444.9 82.48 444.91 82.47 444.92 82.47 444.92 82.46 444.93 82.45 444.95 82.44 444.96 82.43 444.97 82.42 444.97 82.41 444.99 82.4 444.99 82.39 445 82.38 445.02 82.39 445.02 82.39 445.03 82.39 445.04 82.37 445.05 82.36 445.05 82.35 445.06 82.34 445.07 82.33 445.08 82.32 445.09 82.31 445.11 82.3 445.14 82.28 445.16 82.27 445.17 82.26 445.18 82.27 445.19 82.27 445.2 82.26 445.21 82.25 445.22 82.24 445.23 82.22 445.25 82.21 445.27 82.19 445.29 82.17 445.31 82.16 445.33 82.14 445.34 82.13 445.38 82.1 445.4 82.09 445.42 82.07 445.44 82.06 445.47 82.05 445.48 82.04 445.5 82.03 445.51 82.03 445.52 82.03 445.53 82.03 445.54 82.03 445.54 82.02 445.54 82.01 445.55 82 445.56 81.99 445.57 81.98 445.58 81.96 445.6 81.95 445.61 81.95 445.61 81.94 445.62 81.93 445.62 81.92 445.63 81.91 445.64 81.9 445.65 81.89 445.66 81.88 445.68 81.88 445.7 81.88 445.71 81.88 445.72 81.88 445.73 81.88 445.75 81.88 445.76 81.88 445.77 81.89 445.78 81.89 445.79 81.89 445.8 81.89 445.81 81.88 445.82 81.88 445.83 81.87 445.84 81.87 445.85 81.88 445.86 81.88 445.87 81.88 445.88 81.88 445.89 81.88 445.9 81.87 445.9 81.85 445.9 81.84 445.9 81.83 445.89 81.82 445.88 81.81 445.88 81.8 445.89 81.79 445.9 81.78 445.92 81.78 445.93 81.78 445.94 81.77 445.94 81.76 445.95 81.75 445.96 81.74 445.98 81.72 445.99 81.72 446.01 81.7 446.03 81.69 446.04 81.69 446.05 81.68 446.05 81.68 446.05 81.67 446.05 81.66 446.06 81.65 446.07 81.64 446.07 81.64 446.08 81.63 446.09 81.62 446.11 81.61 446.13 81.6 446.14 81.59 446.16 81.59 446.17 81.58 446.18 81.58 446.19 81.57 446.2 81.56 446.22 81.55 446.23 81.55 446.23 81.57 446.23 81.58 446.25 81.58 446.25 81.58 446.26 81.57 446.27 81.56 446.28 81.55 446.28 81.54 446.29 81.53 446.3 81.53 446.31 81.52 446.31 81.52 446.32 81.5 446.33 81.5 446.34 81.5 446.35 81.5 446.36 81.5 446.37 81.5 446.38 81.5 446.39 81.49 446.4 81.48 446.4 81.48 446.41 81.47 446.41 81.46 446.41 81.45 446.42 81.45 446.43 81.45 446.44 81.45 446.45 81.46 446.45 81.45 446.46 81.45 446.47 81.45 446.48 81.45 446.49 81.45 446.5 81.46 446.51 81.45 446.52 81.44 446.51 81.43 446.51 81.43 446.49 81.41 446.49 81.4 446.5 81.4 446.51 81.4 446.53 81.4 446.54 81.39 446.55 81.39 446.55 81.4 446.56 81.41 446.57 81.4 446.56 81.4 446.56 81.38 446.55 81.37 446.55 81.36 446.55 81.35 446.56 81.34 446.57 81.33 446.57 81.32 446.57 81.31 446.57 81.3 446.58 81.29 446.59 81.28 446.6 81.28 446.6 81.28 446.62 81.28 446.64 81.28 446.65 81.28 446.67 81.27 446.69 81.26 446.69 81.26 446.7 81.25 446.71 81.24 446.72 81.23 446.72 81.24 446.72 81.25 446.73 81.26 446.74 81.26 446.74 81.27 446.76 81.27 446.77 81.27 446.78 81.28 446.78 81.29 446.78 81.3 446.79 81.3 446.82 81.31 446.83 81.31 446.85 81.32 446.88 81.33 446.89 81.34 446.93 81.35 446.94 81.36 446.96 81.36 446.97 81.36 446.98 81.35 446.98 81.34 446.97 81.34 446.97 81.33 446.96 81.32 446.97 81.31 446.98 81.31 446.99 81.31 447 81.31 447 81.32 447 81.33 447 81.34 447.01 81.34 447.02 81.34 447.03 81.34 447.04 81.33 447.04 81.32 447.04 81.31 447.05 81.29 447.06 81.29 447.07 81.29 447.08 81.3 447.09 81.3 447.11 81.29 447.13 81.29 447.15 81.28 447.16 81.27 447.18 81.27 447.19 81.26 447.2 81.26 447.21 81.25 447.22 81.24 447.23 81.23 447.23 81.23 447.24 81.22 447.24 81.21 447.23 81.2 447.22 81.2 447.21 81.19 447.2 81.19 447.2 81.19 447.19 81.18 447.18 81.17 447.17 81.17 447.16 81.17 447.15 81.16 447.16 81.15 447.16 81.15 447.17 81.14 447.17 81.13 447.17 81.12 447.17 81.11 447.16 81.1 447.15 81.08 447.15 81.08 447.14 81.07 447.13 81.06 447.13 81.05 447.13 81.04 447.14 81.03 447.15 81.03 447.16 81.02 447.16 81.01 447.17 81 447.17 80.99 447.18 80.97 447.18 80.96 447.17 80.95 447.17 80.95 447.17 80.94 447.17 80.93 447.18 80.93 447.19 80.93 447.2 80.93 447.2 80.94 447.2 80.95 447.2 80.96 447.21 80.96 447.21 80.95 447.21 80.94 447.22 80.93 447.23 80.94 447.23 80.95 447.25 80.95 447.25 80.95 447.27 80.95 447.27 80.94 447.28 80.93 447.29 80.92 447.3 80.91 447.32 80.89 447.33 80.88 447.33 80.87 447.33 80.86 447.32 80.85 447.31 80.84 447.31 80.83 447.31 80.82 447.31 80.81 447.32 80.81 447.34 80.81 447.34 80.8 447.35 80.79 447.35 80.78 447.36 80.78 447.37 80.76 447.38 80.74 447.39 80.73 447.39 80.72 447.39 80.69 447.39 80.69 447.4 80.68 447.41 80.68 447.42 80.66 447.47 80.64 447.47 80.63 447.48 80.62 447.51 80.59 447.52 80.58 447.53 80.57 447.54 80.57 447.56 80.56 447.56 80.56 447.57 80.55 447.57 80.54 447.58 80.53 447.58 80.52 447.59 80.51 447.6 80.5 447.6 80.49 447.6 80.49 447.58 80.48 447.57 80.48 447.56 80.49 447.56 80.49 447.55 80.5 447.54 80.5 447.53 80.5 447.52 80.5 447.51 80.49 447.5 80.49 447.5 80.48 447.5 80.47 447.5 80.46 447.51 80.45 447.52 80.44 447.54 80.43 447.54 80.42 447.55 80.4 447.56 80.39 447.57 80.39 447.58 80.38 447.59 80.37 447.6 80.35 447.61 80.34 447.62 80.33 447.63 80.31 447.66 80.29 447.67 80.28 447.68 80.27 447.69 80.26 447.7 80.25 447.73 80.2 447.74 80.19 447.76 80.15 447.77 80.14 447.77 80.13 447.78 80.11 447.79 80.1 447.79 80.09 447.8 80.07 447.81 80.06 447.82 80.05 447.83 80.04 447.85 80.02 447.86 80.01 447.88 80 447.89 80 447.89 80 447.9 80 447.91 80 447.93 80.01 447.93 80.02 447.94 80.03 447.95 80.03 447.95 80.03 447.97 80.03 447.97 80.03 447.98 80.03 447.98 80.02 447.98 80.01 447.98 80 447.98 79.99 447.98 79.98 447.96 79.96 447.95 79.95 447.95 79.94 447.95 79.93 447.95 79.91 447.96 79.89 447.95 79.88 447.95 79.88 447.95 79.87 447.95 79.86 447.96 79.85 447.97 79.84 447.98 79.83 447.99 79.83 448 79.83 448.01 79.83 448.01 79.82 448.02 79.8 448.02 79.79 448.03 79.78 448.04 79.78 448.06 79.79 448.07 79.8 448.07 79.8 448.08 79.81 448.08 79.82 448.09 79.82 448.09 79.81 448.1 79.81 448.1 79.8 448.09 79.79 448.07 79.77 448.06 79.76 448.06 79.75 448.06 79.74 448.06 79.73 448.06 79.72 448.06 79.71 448.06 79.7 448.06 79.68 448.07 79.67 448.09 79.64 448.1 79.63 448.11 79.62 448.12 79.62 448.13 79.61 448.14 79.59 448.14 79.58 448.14 79.56 448.15 79.54 448.16 79.54 448.18 79.54 448.21 79.52 448.22 79.51 448.25 79.49 448.26 79.46 448.26 79.45 448.28 79.43 448.31 79.33 448.34 79.23 448.37 79.14 448.4 79.05 448.43 78.96 448.45 78.91 448.48 78.85 448.5 78.82 448.52 78.79 448.54 78.78 448.54 78.77 448.53 78.76 448.53 78.73 448.54 78.7 448.56 78.68 448.57 78.67 448.6 78.64 448.59 78.62 448.59 78.59 448.62 78.56 448.63 78.53 448.65 78.5 448.64 78.49 448.65 78.48 448.65 78.47 448.65 78.46 448.65 78.44 448.64 78.43 448.64 78.43 448.64 78.42 448.64 78.41 448.65 78.41 448.64 78.39 448.65 78.38 448.65 78.38 448.65 78.37 448.64 78.36 448.64 78.35 448.65 78.35 448.64 78.34 448.65 78.33 448.66 78.33 448.67 78.33 448.68 78.34 448.7 78.33 448.7 78.33 448.71 78.32 448.71 78.31 448.71 78.3 448.7 78.29 448.69 78.28 448.69 78.27 448.7 78.26 448.71 78.25 448.71 78.25 448.72 78.26 448.73 78.25 448.73 78.24 448.73 78.23 448.73 78.22 448.72 78.21 448.72 78.2 448.71 78.19 448.71 78.18 448.71 78.17 448.71 78.16 448.71 78.15 448.71 78.13 448.72 78.12 448.72 78.11 448.73 78.1 448.73 78.09 448.74 78.09 448.75 78.08 448.75 78.07 448.76 78.06 448.76 78.05 448.76 78.04 448.77 78.03 448.77 78.02 448.77 78.01 448.77 78 448.77 77.99 448.78 77.99 448.78 77.98 448.79 77.97 448.79 77.96 448.79 77.94 448.79 77.93 448.8 77.92 448.81 77.91 448.81 77.9 448.81 77.89 448.82 77.89 448.82 77.88 448.83 77.88 448.83 77.86 448.83 77.85 448.83 77.84 448.83 77.83 448.82 77.82 448.82 77.81 448.82 77.8 448.82 77.8 448.83 77.79 448.84 77.78 448.85 77.78 448.85 77.77 448.87 77.76 448.88 77.76 448.89 77.75 448.89 77.74 448.9 77.74 448.9 77.73 448.91 77.72 448.92 77.71 448.92 77.7 448.92 77.69 448.92 77.68 448.91 77.67 448.91 77.67 448.91 77.66 448.9 77.65 448.9 77.64 448.9 77.63 448.9 77.62 448.9 77.61 448.9 77.6 448.9 77.59 448.9 77.59 448.9 77.58 448.91 77.57 448.92 77.56 448.92 77.55 448.92 77.54 448.93 77.53 448.94 77.54 448.94 77.55 448.95 77.56 448.97 77.55 448.98 77.55 448.99 77.56 448.99 77.56 448.99 77.55 448.99 77.55 448.98 77.54 448.97 77.53 448.97 77.52 448.96 77.51 448.95 77.5 448.95 77.49 448.95 77.49 448.95 77.47 448.94 77.46 448.94 77.45 448.95 77.44 448.96 77.44 448.96 77.43 448.96 77.43 448.97 77.42 448.97 77.41 448.97 77.4 448.97 77.39 448.97 77.38 448.98 77.37 448.98 77.34 448.97 77.34 448.96 77.32 448.96 77.31 448.97 77.31 448.98 77.3 448.98 77.29 448.98 77.28 448.99 77.28 448.99 77.28 449.01 77.28 449.02 77.28 449.01 77.27 449 77.26 449.01 77.25 449.02 77.24 449.02 77.24 449.01 77.23 449 77.22 449 77.21 449.01 77.2 449.02 77.19 449.02 77.18 449.03 77.18 449.03 77.17 449.04 77.16 449.05 77.16 449.05 77.15 449.06 77.13 449.07 77.12 449.07 77.11 449.08 77.1 449.08 77.1 449.08 77.09 449.08 77.08 449.09 77.07 449.09 77.06 449.1 77.05 449.11 77.04 449.12 77.03 449.13 77.02 449.12 77.01 449.11 77.01 449.1 77 449.09 76.99 449.09 76.98 449.09 76.98 449.1 76.97 449.1 76.96 449.11 76.95 449.11 76.95 449.13 76.95 449.15 76.95 449.15 76.95 449.16 76.94 449.16 76.93 449.15 76.91 449.15 76.91 449.15 76.9 449.15 76.89 449.16 76.88 449.16 76.87 449.17 76.86 449.17 76.85 449.18 76.85 449.19 76.84 449.19 76.83 449.2 76.83 449.21 76.82 449.23 76.81 449.23 76.8 449.24 76.79 449.24 76.78 449.24 76.76 449.24 76.74 449.25 76.74 449.25 76.73 449.25 76.72 449.25 76.7 449.25 76.69 449.25 76.68 449.25 76.67 449.26 76.66 449.26 76.65 449.27 76.63 449.27 76.62 449.27 76.61 449.27 76.59 449.27 76.58 449.28 76.56 449.28 76.55 449.28 76.54 449.28 76.53 449.29 76.52 449.3 76.52 449.31 76.51 449.31 76.5 449.3 76.49 449.3 76.48 449.3 76.48 449.3 76.45 449.3 76.42 449.31 76.42 449.31 76.41 449.32 76.41 449.33 76.41 449.34 76.41 449.34 76.4 449.33 76.4 449.33 76.39 449.33 76.37 449.33 76.36 449.33 76.33 449.33 76.31 449.33 76.3 449.33 76.29 449.34 76.28 449.35 76.28 449.36 76.28 449.37 76.27 449.37 76.26 449.36 76.26 449.35 76.26 449.34 76.25 449.34 76.25 449.33 76.24 449.33 76.24 449.33 76.19 449.34 76.16 449.34 76.15 449.34 76.14 449.34 76.12 449.35 76.12 449.36 76.11 449.36 76.1 449.36 76.09 449.36 76.07 449.36 76.06 449.36 76.05 449.36 76.04 449.36 76.03 449.36 76.02 449.36 76.01 449.37 75.99 449.37 75.97 449.37 75.96 449.38 75.95 449.39 75.92 449.39 75.91 449.4 75.9 449.4 75.89 449.41 75.89 449.42 75.89 449.43 75.9 449.44 75.91 449.44 75.91 449.45 75.92 449.46 75.93 449.46 75.94 449.47 75.95 449.48 75.96 449.49 75.96 449.53 75.99 449.56 76 449.58 76 449.61 76 449.62 76 449.63 75.99 449.64 75.99 449.66 75.98 449.67 75.98 449.68 75.97 449.69 75.96 449.71 75.96 449.71 75.95 449.72 75.94 449.73 75.94 449.74 75.93 449.75 75.92 449.76 75.92 449.77 75.92 449.78 75.91 449.79 75.91 449.79 75.9 449.8 75.9 449.8 75.89 449.8 75.89 449.81 75.87 449.82 75.87 449.83 75.86 449.84 75.87 449.84 75.88 449.85 75.88 449.86 75.88 449.87 75.88 449.88 75.86 449.89 75.85 449.9 75.83 449.91 75.83 449.92 75.83 449.92 75.83 449.93 75.82 449.94 75.82 449.96 75.81 449.97 75.8 449.98 75.8 449.99 75.8 450 75.8 450.01 75.79 450.02 75.79 450.04 75.79 450.05 75.79 450.06 75.78 450.06 75.77 450.07 75.76 450.07 75.76 450.08 75.75 450.08 75.73 450.08 75.72 450.1 75.72 450.1 75.72 450.11 75.72 450.12 75.73 450.13 75.73 450.14 75.73 450.15 75.74 450.16 75.74 450.16 75.72 450.16 75.71 450.17 75.71 450.17 75.7 450.18 75.7 450.19 75.7 450.2 75.69 450.2 75.68 450.21 75.68 450.22 75.68 450.23 75.67 450.23 75.67 450.24 75.66 450.24 75.65 450.24 75.64 450.24 75.63 450.24 75.62 450.25 75.6 450.26 75.59 450.26 75.57 450.27 75.56 450.28 75.56 450.29 75.56 450.3 75.55 450.3 75.54 450.3 75.53 450.3 75.53 450.3 75.52 450.3 75.51 450.31 75.5 450.31 75.48 450.31 75.47 450.31 75.46 450.32 75.45 450.34 75.44 450.34 75.44 450.35 75.43 450.35 75.41 450.35 75.4 450.34 75.4 450.34 75.39 450.33 75.38 450.33 75.37 450.33 75.36 450.33 75.35 450.33 75.33 450.33 75.29 450.33 75.23 450.33 75.21 450.33 75.2 450.33 75.19 450.33 75.18 450.33 75.16 450.33 75.14 450.33 75.13 450.33 75.12 450.33 75.11 450.33 75.1 450.33 75.09 450.33 75.07 450.33 75.06 450.33 75.04 450.33 75.03 450.33 75.02 450.33 75 450.34 74.99 450.34 74.99 450.35 74.98 450.37 74.96 450.38 74.96 450.38 74.95 450.39 74.94 450.39 74.94 450.39 74.93 450.39 74.91 450.39 74.88 450.39 74.86 450.4 74.84 450.4 74.81 450.4 74.8 450.4 74.78 450.41 74.75 450.41 74.73 450.41 74.71 450.41 74.69 450.42 74.67 450.42 74.66 450.43 74.65 450.43 74.64 450.43 74.62 450.43 74.61 450.43 74.59 450.43 74.52 450.44 74.5 450.44 74.49 450.45 74.46 450.45 74.45 450.46 74.43 450.46 74.42 450.46 74.41 450.46 74.4 450.47 74.39 450.47 74.38 450.47 74.37 450.47 74.35 450.47 74.34 450.48 74.33 450.48 74.33 450.48 74.26 450.48 74.25 450.48 74.21 450.48 74.2 450.48 74.18 450.49 74.16 450.49 74.14 450.49 74.14 450.5 74.13 450.5 74.12 450.5 74.11 450.5 74.11 450.5 74.1 450.5 74.09 450.5 74.07 450.51 74.06 450.51 74.05 450.51 74.04 450.51 74.02 450.52 74.01 450.52 74 450.53 73.99 Z M 433.42 87.55 433.44 87.55 433.45 87.55 433.47 87.55 433.48 87.54 433.49 87.54 433.5 87.54 433.56 87.55 433.57 87.56 433.57 87.57 433.57 87.58 433.57 87.58 433.56 87.59 433.56 87.6 433.56 87.61 433.56 87.62 433.55 87.64 433.55 87.65 433.56 87.66 433.56 87.67 433.57 87.68 433.58 87.68 433.59 87.68 433.6 87.69 433.6 87.7 433.6 87.71 433.6 87.72 433.59 87.73 433.58 87.74 433.58 87.75 433.58 87.76 433.59 87.76 433.6 87.76 433.61 87.76 433.62 87.76 433.63 87.77 433.64 87.77 433.64 87.78 433.63 87.79 433.62 87.79 433.61 87.79 433.6 87.79 433.59 87.79 433.58 87.8 433.58 87.81 433.59 87.81 433.6 87.82 433.6 87.83 433.6 87.84 433.59 87.85 433.59 87.86 433.6 87.87 433.6 87.88 433.62 87.88 433.63 87.88 433.64 87.88 433.65 87.89 433.64 87.9 433.65 87.91 433.66 87.91 433.72 87.91 433.73 87.91 433.74 87.91 433.75 87.92 433.76 87.92 433.77 87.93 433.78 87.93 433.79 87.94 433.81 87.94 433.83 87.94 433.84 87.94 433.85 87.95 433.86 87.95 433.87 87.96 433.88 87.96 433.89 87.96 433.9 87.96 433.91 87.96 433.93 87.97 433.94 87.97 433.95 87.97 433.97 87.97 433.98 87.98 433.98 87.99 433.98 88 433.98 88.01 433.97 88.02 433.97 88.03 433.97 88.03 433.98 88.05 433.98 88.06 433.98 88.07 433.98 88.07 433.97 88.08 433.96 88.09 433.96 88.1 433.97 88.11 433.97 88.11 433.98 88.11 433.99 88.12 433.99 88.14 433.99 88.15 433.99 88.16 434 88.17 434 88.18 434.01 88.2 434.02 88.2 434.03 88.21 434.05 88.22 434.06 88.23 434.08 88.24 434.09 88.25 434.11 88.25 434.12 88.24 434.13 88.25 434.13 88.26 434.14 88.27 434.15 88.28 434.15 88.28 434.16 88.28 434.17 88.28 434.18 88.28 434.19 88.28 434.21 88.28 434.22 88.28 434.23 88.28 434.24 88.28 434.25 88.28 434.26 88.28 434.28 88.28 434.29 88.28 434.3 88.27 434.31 88.27 434.31 88.27 434.33 88.27 434.34 88.28 434.34 88.29 434.36 88.3 434.37 88.31 434.39 88.33 434.41 88.34 434.42 88.34 434.43 88.34 434.44 88.35 434.45 88.35 434.46 88.35 434.47 88.35 434.5 88.35 434.52 88.35 434.54 88.35 434.55 88.36 434.56 88.36 434.58 88.36 434.58 88.36 434.59 88.35 434.6 88.34 434.61 88.34 434.62 88.33 434.62 88.32 434.62 88.3 434.63 88.3 434.64 88.29 434.64 88.29 434.65 88.28 434.66 88.27 434.66 88.26 434.67 88.26 434.68 88.26 434.72 88.26 434.72 88.26 434.74 88.25 434.74 88.25 434.76 88.25 434.77 88.25 434.78 88.25 434.79 88.25 434.81 88.25 434.82 88.25 434.83 88.25 434.85 88.25 434.87 88.25 434.88 88.24 434.89 88.24 434.9 88.23 434.91 88.23 434.91 88.22 434.92 88.21 434.93 88.21 434.95 88.21 434.97 88.21 434.99 88.21 434.99 88.2 434.98 88.05 434.97 88.04 434.97 88.03 434.97 88.02 434.98 88.01 434.99 88.02 435 88.03 435.01 88.04 435.02 88.05 435.02 88.19 435.02 88.2 435.02 88.21 435.02 88.22 435.02 88.23 435.02 88.24 435.03 88.25 435.05 88.25 435.08 88.25 435.11 88.26 435.12 88.26 435.14 88.26 435.15 88.27 435.16 88.27 435.17 88.28 435.17 88.29 435.18 88.29 435.18 88.3 435.18 88.31 435.18 88.32 435.18 88.33 435.18 88.34 435.19 88.34 435.19 88.35 435.19 88.36 435.19 88.37 435.19 88.38 435.19 88.39 435.19 88.4 435.2 88.41 435.2 88.41 435.21 88.41 435.22 88.42 435.22 88.43 435.23 88.43 435.23 88.44 435.24 88.46 435.24 88.46 435.24 88.47 435.24 88.48 435.24 88.49 435.24 88.5 435.24 88.51 435.24 88.52 435.24 88.53 435.24 88.54 435.23 88.56 435.23 88.57 435.23 88.59 435.23 88.6 435.23 88.61 435.24 88.62 435.24 88.63 435.24 88.64 435.24 88.65 435.24 88.67 435.24 88.67 435.24 88.68 435.24 88.69 435.24 88.7 435.23 88.7 435.22 88.71 435.22 88.72 435.22 88.72 435.21 88.73 435.22 88.74 435.22 88.75 435.22 88.75 435.21 88.76 435.21 88.77 435.21 88.78 435.2 88.79 435.2 88.8 435.2 88.81 435.19 88.82 435.18 88.87 435.19 88.88 435.18 88.88 435.17 88.95 435.16 88.96 435.13 89.03 435.12 89.03 435.11 89.09 435.12 89.1 435.18 89.13 435.3 89.14 435.36 89.14 435.37 89.15 435.37 89.17 435.36 89.17 435.3 89.18 435.29 89.18 435.28 89.19 435.28 89.21 435.28 89.22 435.29 89.22 435.28 89.29 435.46 89.31 435.46 89.33 435.48 89.35 435.49 89.36 435.49 89.39 435.51 89.4 435.51 89.42 435.49 89.41 435.48 89.43 435.58 89.43 435.68 89.45 435.74 89.48 435.76 89.49 435.84 89.58 435.9 89.65 435.91 89.67 435.92 89.69 435.92 89.71 435.91 89.77 435.91 89.78 435.92 89.79 435.92 89.8 435.94 89.86 435.92 89.86 435.93 89.92 435.98 90.03 436 90.04 436.02 90.1 436.01 90.1 436.01 90.13 436.04 90.16 436.16 90.22 436.17 90.24 436.21 90.27 436.2 90.29 436.22 90.31 436.25 90.32 436.29 90.32 436.33 90.34 436.36 90.39 436.36 90.4 436.35 90.4 436.34 90.42 436.34 90.45 436.35 90.46 436.31 90.75 436.22 90.81 436.07 90.92 435.45 91.03 435.26 91.58 435.2 91.74 434.76 91.9 434.16 91.84 433.57 91.83 433.42 91.83 433.46 92.13 434.3 92.2 434.76 92.23 434.87 92.23 435.03 92.2 435.7 92.11 435.9 91.75 435.94 91.73 436.16 91.73 436.18 91.75 436.2 91.79 436.19 91.81 436.22 91.83 436.68 92.09 437.4 92.51 437.98 92.84 438.11 92.92 438.52 93.16 438.53 93.13 438.55 93.1 438.56 93.12 438.63 93.18 438.64 93.16 438.66 93.17 438.67 93.24 438.68 93.25 439.73 93.16 439.76 93.16 439.85 93.01 439.94 92.86 440.07 92.65 440.29 92.27 440.29 92.27 440.3 92.26 440.31 92.26 440.76 91.98 440.78 91.97 440.79 91.99 440.76 92.01 440.63 92.09 440.64 92.1 440.59 92.14 440.66 92.26 440.68 92.23 440.71 92.2 440.72 92.19 440.74 92.18 440.75 92.16 440.76 92.15 440.8 92.13 440.95 92.04 441.09 91.95 441.11 91.95 441.1 91.92 441.1 91.9 441.11 91.9 441.11 91.92 441.12 91.95 441.25 91.87 441.26 91.86 441.27 91.85 441.29 91.85 441.3 91.85 441.31 91.85 441.32 91.85 441.33 91.85 441.34 91.85 441.35 91.85 441.36 91.85 441.37 91.85 441.38 91.86 441.39 91.86 441.4 91.87 441.41 91.87 441.42 91.88 441.44 91.89 441.45 91.9 441.46 91.91 441.47 91.92 441.47 91.93 441.48 91.94 441.48 91.94 441.49 91.95 441.5 91.98 441.5 91.99 441.5 92.01 441.5 92.03 441.5 92.04 441.5 92.05 441.5 92.06 441.5 92.07 441.5 92.07 441.5 92.08 441.5 92.09 441.49 92.1 441.49 92.11 441.48 92.12 441.47 92.13 441.47 92.14 441.46 92.15 441.44 92.17 441.39 92.21 441.34 92.24 441.28 92.14 441.25 92.09 441.11 92.15 440.71 92.36 440.63 92.37 440.35 92.8 440.37 93.09 440.17 93.22 440.11 93.24 439.94 93.34 439.79 93.42 439.7 93.46 439.65 93.48 439.39 93.6 439.04 93.7 438.58 93.66 438.51 93.82 438.26 93.65 438.27 93.71 438.27 93.75 438.27 93.78 438.26 93.79 438.26 93.81 438.25 93.82 438.23 93.84 438.21 93.85 438.15 93.9 438.11 93.94 438.1 93.95 438.12 93.96 438.12 93.97 438.12 93.98 438.08 94.04 438.07 94.09 438.06 94.13 438.06 94.15 438.05 94.19 438.03 94.2 438 94.23 437.97 94.26 437.94 94.28 437.94 94.29 437.92 94.32 437.91 94.36 437.91 94.38 437.92 94.44 437.92 94.48 437.92 94.52 437.91 94.56 437.85 94.54 437.84 94.58 437.84 94.61 437.88 94.62 437.88 94.65 437.87 94.7 437.89 94.74 437.89 94.76 437.91 94.78 437.92 94.8 437.92 94.81 437.93 94.83 437.93 94.84 437.92 94.85 437.91 94.86 437.88 94.9 437.84 94.95 437.79 95.01 437.75 95.05 437.68 95.14 437.54 95.05 437.34 95.4 437.33 95.44 437.31 95.49 437.3 95.53 437.28 95.57 437.26 95.59 437.24 95.61 437.22 95.63 437.21 95.64 437.21 95.68 437.19 95.75 437.15 95.78 437.09 95.8 437.06 95.82 437 95.82 436.96 95.81 436.91 95.81 436.86 95.79 436.81 95.77 436.78 95.77 436.74 95.77 436.72 95.77 436.69 95.78 436.67 95.79 436.64 95.78 436.61 95.77 436.59 95.76 436.59 95.75 436.59 95.71 436.6 95.7 436.61 95.69 436.71 95.57 436.79 95.5 436.83 95.49 436.87 95.48 436.91 95.47 436.95 95.47 436.97 95.45 436.98 95.43 437 95.42 437.01 95.4 437.02 95.37 437.03 95.35 437.04 95.32 437.04 95.3 437.05 95.28 437.06 95.25 437.07 95.23 437.09 95.2 437.09 95.18 437.11 95.15 437.12 95.13 437.13 95.11 437.14 95.08 437.16 95.05 437.17 95.02 437.19 94.99 437.2 94.96 437.21 94.93 437.21 94.87 437.2 94.81 437.19 94.74 437.19 94.69 437.18 94.65 437.19 94.61 437.19 94.57 437.2 94.55 437.2 94.52 437.21 94.49 437.21 94.45 437.22 94.42 437.22 94.39 437.22 94.34 437.21 94.29 437.21 94.24 437.21 94.19 437.21 94.14 437.21 94.09 437.21 94.06 437.22 94 437.23 93.96 437.25 93.92 437.23 93.87 437.22 93.84 437.2 93.81 437.18 93.78 437.16 93.76 437.12 93.73 437.1 93.71 437.08 93.69 437.06 93.66 437.05 93.63 437.04 93.6 437.03 93.56 437.03 93.53 437.04 93.5 437.04 93.46 437.04 93.43 437.04 93.39 437.04 93.36 437.05 93.34 437.06 93.31 437.06 93.28 437.06 93.26 437.06 93.23 437.05 93.2 437.03 93.16 437.02 93.11 437 93.05 437.03 92.99 436.94 92.93 436.82 92.86 436.68 92.76 436.46 92.62 436.38 92.57 436.34 92.54 436.31 92.51 436.27 92.47 436.29 92.43 436.3 92.35 436.26 92.3 436.22 92.27 436.09 92.26 435.95 92.25 435.77 92.24 435.61 92.23 435.5 92.25 435.32 92.28 435.16 92.31 435.07 92.32 434.97 92.34 434.82 92.34 434.65 92.33 434.53 92.33 434.35 92.31 434.12 92.3 434.11 92.39 434 92.39 433.8 92.4 433.57 92.41 433.44 92.41 433.3 92.44 433.05 92.47 432.85 92.51 432.72 92.57 432.54 92.65 432.38 92.71 432.22 92.77 432.05 92.84 431.92 92.89 431.85 92.91 431.54 93.03 431.35 92.13 431.71 92.05 431.84 92.16 431.88 92.15 432.02 92 432.03 91.97 432.03 91.95 432.02 91.93 432 91.89 431.98 91.86 431.97 91.83 431.97 91.8 431.97 91.76 431.96 91.72 431.96 91.7 431.95 91.64 431.92 91.58 431.9 91.52 431.88 91.48 431.86 91.44 431.84 91.39 431.83 91.37 431.72 91.11 431.69 91.05 431.65 90.98 431.64 90.93 431.62 90.84 431.56 90.62 431.47 90.39 431.4 90.2 431.37 90.02 431.4 89.99 431.46 89.93 431.51 89.87 431.55 89.83 431.6 89.79 431.65 89.76 431.72 89.73 431.75 89.71 431.81 89.85 431.9 89.84 432.01 89.82 432.06 89.8 432.2 89.72 432.31 89.66 432.35 89.63 432.39 89.59 432.42 89.54 432.43 89.52 432.43 89.49 432.45 89.39 432.47 89.31 432.61 89.3 432.67 89.24 432.76 89.15 432.86 89.04 432.94 88.96 433.09 88.9 433.2 88.89 433.34 88.88 433.42 88.87 433.55 88.86 433.66 88.85 433.63 88.78 433.63 88.7 433.64 88.58 433.65 88.45 433.64 88.37 433.63 88.31 433.6 88.17 433.56 88 433.51 87.79 433.5 87.71 433.47 87.66 433.46 87.62 433.45 87.59 433.42 87.57 433.42 87.55 Z"/>
</g></svg>