<svg xmlns="http://www.w3.org/2000/svg" version="1.2" baseProfile="tiny" stroke-linecap="round" stroke-linejoin="round" viewBox="652.68 413.75 39.33 33.98"><g xmlns="http://www.w3.org/2000/svg" id="Petilla Aragoikoa">
<path d="M 669.44 429.48 669.44 429.46 669.45 429.36 669.47 429.24 669.48 429.13 669.5 429.02 669.51 428.92 669.52 428.81 669.54 428.71 669.55 428.6 669.57 428.5 669.57 428.48 669.57 428.47 669.57 428.45 669.55 428.4 669.53 428.29 669.51 428.18 669.48 428.01 669.45 427.67 669.48 427.66 669.54 427.62 669.63 427.57 669.69 427.52 669.77 427.43 669.85 427.35 669.89 427.3 669.93 427.23 669.96 427.19 669.99 427.13 670.01 427.07 670.06 426.92 670.09 426.85 670.14 426.69 670.24 426.54 670.43 426.26 670.58 426.03 670.44 425.86 670.36 425.71 670.87 425.21 670.84 424.96 670.97 424.83 671.05 424.74 671.1 424.68 671.13 424.65 671.15 424.65 671.23 424.64 671.35 424.61 671.45 424.57 671.49 424.45 671.54 424.3 671.6 424.08 671.64 423.96 671.73 423.91 671.85 423.84 671.87 423.84 671.96 423.85 672.04 423.83 672.13 423.79 672.21 423.77 672.25 423.76 672.3 423.77 672.34 423.71 672.4 423.62 672.45 423.54 672.46 423.53 672.47 423.51 672.51 423.4 672.58 423.25 672.65 423.07 672.71 422.91 672.75 422.84 672.8 422.75 672.86 422.66 672.9 422.6 672.92 422.5 672.95 422.38 672.98 422.25 673.02 422.14 673.04 422.08 673.05 422.06 673.06 422.04 673.11 422 673.12 421.99 673.19 421.93 673.2 421.9 673.24 421.77 673.27 421.72 673.3 421.66 673.33 421.61 673.36 421.55 673.42 421.44 673.46 421.37 673.48 421.34 673.49 421.31 673.51 421.29 673.52 421.28 673.6 421.2 673.62 421.17 673.69 421.18 673.7 421.17 673.7 421.12 673.71 421.04 673.73 420.98 673.78 420.87 673.79 420.84 673.82 420.81 673.91 420.71 674.03 420.6 674.12 420.52 674.17 420.47 674.17 420.41 674.17 420.36 674.18 420.27 674.19 420.23 674.22 420.15 674.27 420 674.27 419.98 674.15 419.86 674.18 419.79 674.22 419.63 674.28 419.45 674.34 419.3 674.38 419.19 674.4 419.16 674.46 419.09 674.47 419.07 674.48 419.07 674.5 418.95 674.54 418.76 674.58 418.58 674.58 418.56 674.61 418.51 674.7 418.34 674.81 418.14 674.93 417.91 675.03 417.71 675.13 417.54 675.26 417.45 675.27 417.43 675.28 417.37 675.32 417.21 675.33 417.1 675.35 417.06 675.39 416.96 675.43 416.86 675.46 416.79 675.47 416.77 675.52 416.72 675.59 416.65 675.62 416.6 675.64 416.59 675.68 416.55 675.71 416.52 675.8 416.51 675.91 416.5 675.97 416.49 675.99 416.48 676.02 416.45 676.07 416.41 676.13 416.37 676.16 416.34 676.17 416.31 676.17 416.29 676.18 416.26 676.2 416.21 676.24 416.15 676.29 416.09 676.33 416.06 676.41 416.01 676.42 416 676.42 415.98 676.41 415.95 676.38 415.9 676.35 415.86 676.35 415.85 676.33 415.82 676.32 415.78 676.32 415.73 676.32 415.69 676.33 415.67 676.36 415.64 676.39 415.63 676.41 415.62 676.45 415.61 676.48 415.6 676.53 415.59 676.59 415.57 676.66 415.55 676.69 415.54 676.73 415.53 676.78 415.51 676.8 415.5 676.82 415.49 676.83 415.48 676.85 415.46 676.88 415.44 676.91 415.4 676.94 415.37 676.96 415.32 676.97 415.26 676.97 415.24 676.98 415.22 677 415.18 677.02 415.14 677.07 415.08 677.1 415.01 677.13 414.96 677.14 414.93 677.14 414.91 677.14 414.88 677.13 414.86 677.12 414.85 677.08 414.83 677.04 414.83 676.98 414.83 676.92 414.83 676.85 414.82 676.82 414.81 676.8 414.82 676.75 414.82 676.71 414.82 676.7 414.81 676.69 414.79 676.69 414.76 676.71 414.73 676.72 414.71 676.75 414.67 676.77 414.62 676.77 414.52 676.78 414.49 676.81 414.43 676.83 414.39 676.86 414.36 676.87 414.35 676.9 414.37 676.94 414.4 676.98 414.42 677.03 414.46 677.06 414.48 677.08 414.48 677.09 414.48 677.1 414.47 677.1 414.44 677.09 414.39 677.08 414.37 677.09 414.34 677.1 414.3 677.13 414.25 677.15 414.23 677.17 414.2 677.21 414.16 677.24 414.14 677.25 414.12 677.31 414.09 677.35 414.06 677.41 414.05 677.47 414.06 677.52 414.09 677.57 414.12 677.62 414.15 677.66 414.16 677.71 414.18 677.75 414.18 677.81 414.15 677.86 414.13 677.89 414.1 677.9 414.06 677.91 413.97 677.92 413.93 677.93 413.9 677.96 413.87 678.01 413.85 678.06 413.83 678.14 413.81 678.21 413.78 678.25 413.78 678.3 413.77 678.32 413.77 678.35 413.8 678.37 413.85 678.37 413.92 678.38 413.97 678.39 414 678.43 414.03 678.47 414.04 678.52 414.06 678.59 414.06 678.66 414.06 678.69 414.05 678.73 414.02 678.77 413.99 678.8 413.97 678.82 413.97 678.85 413.98 678.9 413.99 678.98 414.02 678.99 414.02 679.03 414.02 679.1 414.01 679.11 414.01 679.19 413.99 679.26 413.98 679.33 413.98 679.35 413.98 679.5 413.96 679.62 413.95 679.73 413.93 679.81 413.92 679.92 413.92 680 413.92 680.04 413.91 680.1 413.92 680.22 413.96 680.37 414 680.39 414.01 680.51 414.05 680.57 414.07 680.6 414.08 680.63 414.09 680.64 414.09 680.72 414.13 680.84 414.18 680.93 414.22 681.04 414.27 681.09 414.29 681.18 414.35 681.27 414.4 681.38 414.48 681.47 414.53 681.55 414.57 681.71 414.63 681.9 414.71 681.94 414.72 681.98 414.76 681.97 414.84 681.96 415.01 681.95 415.04 681.95 415.06 681.95 415.11 681.95 415.14 681.97 415.16 681.99 415.18 681.99 415.24 681.99 415.33 681.98 415.46 681.97 415.66 681.97 415.82 681.95 415.86 681.92 415.93 681.89 416.01 681.83 416.15 681.78 416.25 681.77 416.31 681.76 416.33 681.75 416.39 681.73 416.47 681.7 416.56 681.67 416.7 681.6 416.74 681.53 416.91 681.46 417.1 681.45 417.12 681.43 417.16 681.37 417.33 681.34 417.46 681.29 417.84 681.29 417.84 681.38 418.04 681.6 418.16 681.58 418.26 681.74 418.44 681.85 418.56 681.93 418.66 681.95 418.69 681.98 418.71 682.06 418.76 682.22 418.83 682.27 418.86 682.32 418.88 682.32 418.88 682.44 418.94 682.47 418.96 682.57 419.02 682.6 419.04 682.69 419.1 682.72 419.12 682.87 419.2 682.88 419.2 682.93 419.23 683.12 419.33 683.13 419.34 683.26 419.4 683.34 419.43 683.44 419.48 683.46 419.48 683.52 419.47 683.58 419.46 683.57 419.52 683.57 419.53 683.58 419.54 683.6 419.54 683.66 419.53 683.67 419.53 683.73 419.52 683.75 419.52 683.77 419.53 683.79 419.59 683.82 419.65 683.89 419.73 683.95 419.81 684 419.86 684.06 419.94 684.09 420 684.13 420.03 684.21 420.09 684.29 420.14 684.31 420.17 684.33 420.19 684.35 420.19 684.37 420.18 684.4 420.19 684.46 420.22 684.51 420.23 684.54 420.23 684.6 420.26 684.65 420.29 684.7 420.3 684.73 420.31 684.75 420.33 684.77 420.36 684.79 420.4 684.8 420.44 684.82 420.46 684.84 420.47 684.87 420.48 684.88 420.49 684.92 420.53 684.95 420.58 684.98 420.64 684.99 420.68 685 420.7 685.01 420.7 685.05 420.72 685.1 420.74 685.18 420.76 685.24 420.78 685.34 420.82 685.47 420.86 685.61 420.91 685.66 420.93 685.76 420.96 685.92 421.02 686.07 421.09 686.26 421.18 686.4 421.23 686.42 421.24 686.45 421.26 686.57 421.3 686.61 421.32 686.57 421.43 686.57 421.44 686.58 421.52 686.58 421.61 686.59 421.75 686.59 421.82 686.59 421.85 686.63 421.97 686.66 422.06 686.67 422.11 686.65 422.28 686.63 422.42 686.6 422.67 686.59 422.83 686.59 422.99 686.59 423.12 686.59 423.23 686.67 423.28 686.75 423.35 686.84 423.41 686.91 423.47 687 423.56 687.07 423.63 687.13 423.71 687.19 423.79 687.23 423.85 687.24 423.92 687.27 424.01 687.29 424.07 687.3 424.11 687.34 424.22 687.39 424.33 687.42 424.4 687.44 424.46 687.46 424.52 687.5 424.63 687.53 424.72 687.57 424.83 687.59 424.88 687.6 424.96 687.62 425.06 687.64 425.2 687.65 425.27 687.64 425.41 687.63 425.55 687.63 425.62 687.64 425.73 687.68 425.84 687.72 425.97 687.75 426.08 687.78 426.17 687.8 426.23 687.81 426.25 687.84 426.28 687.87 426.3 687.92 426.32 687.98 426.34 688 426.34 688.03 426.35 688.05 426.36 688.12 426.38 688.13 426.39 688.23 426.42 688.33 426.45 688.43 426.49 688.53 426.52 688.63 426.55 688.72 426.58 688.78 426.6 688.77 426.65 688.78 426.72 688.83 426.75 688.88 426.78 688.93 426.8 688.97 426.81 689.02 426.83 689.07 426.85 689.13 426.86 689.18 426.88 689.25 426.9 689.3 426.91 689.31 426.92 689.34 427.02 689.38 427.12 689.42 427.22 689.46 427.31 689.49 427.38 689.53 427.41 689.6 427.47 689.68 427.52 689.72 427.56 689.71 427.62 689.69 427.74 689.76 427.82 689.84 427.91 689.94 427.96 690.02 428 690.08 428.01 690.2 428.03 690.3 428.06 690.39 428.08 690.41 428.07 690.45 428.04 690.52 428.07 690.61 428.1 690.71 428.14 690.82 428.18 690.91 428.21 690.95 428.2 690.98 428.2 691.06 428.22 691.11 428.24 691.17 428.27 691.23 428.31 691.21 428.37 691.18 428.47 691.14 428.58 691.12 428.66 691.12 428.68 691.14 428.8 691.15 428.87 691.15 428.91 691.16 428.98 691.22 429.01 691.32 429.07 691.41 429.13 691.47 429.16 691.47 429.18 691.49 429.29 691.49 429.32 691.49 429.35 691.5 429.36 691.51 429.37 691.54 429.39 691.56 429.4 691.69 429.47 691.66 429.59 691.66 429.6 691.64 429.7 691.61 429.8 691.59 429.88 691.58 429.91 691.57 429.94 691.56 429.96 691.53 430.03 691.49 430.14 691.45 430.25 691.45 430.27 691.46 430.35 691.48 430.45 691.49 430.52 691.53 430.56 691.62 430.63 691.7 430.7 691.78 430.76 691.86 430.84 691.96 430.92 691.95 431.02 691.94 431.13 691.93 431.24 691.93 431.27 691.97 431.37 692 431.47 692.01 431.5 691.98 431.54 691.93 431.63 691.88 431.72 691.77 431.9 691.74 431.95 691.72 432.01 691.69 432.11 691.67 432.2 691.64 432.31 691.61 432.4 691.6 432.44 691.58 432.47 691.57 432.5 691.51 432.57 691.44 432.67 691.38 432.76 691.3 432.84 691.25 432.9 691.23 432.93 691.21 432.97 691.21 432.98 691.2 432.99 691.18 433.02 691.15 433.08 691.14 433.08 691.13 433.11 691.11 433.13 691.04 433.23 690.97 433.33 690.89 433.42 690.82 433.52 690.8 433.56 690.76 433.61 690.73 433.65 690.69 433.71 690.61 433.81 690.58 433.85 690.54 433.91 690.52 433.93 690.5 433.97 690.46 433.97 690.35 433.97 690.23 433.98 690.17 433.98 690.13 433.98 690.09 433.97 690.04 433.96 689.93 433.93 689.88 433.91 689.83 433.9 689.71 433.88 689.64 433.87 689.61 433.89 689.51 433.95 689.45 434 689.44 434.01 689.42 434.02 689.32 434.09 689.21 434.16 689.19 434.17 689.11 434.1 689.02 434.03 689.01 434.02 689 433.93 688.99 433.85 688.98 433.83 688.96 433.7 688.96 433.66 688.93 433.65 688.87 433.61 688.79 433.58 688.69 433.53 688.59 433.48 688.51 433.45 688.42 433.4 688.3 433.34 688.23 433.31 688.21 433.33 688.15 433.44 688.11 433.5 688.09 433.52 688 433.6 687.9 433.67 687.81 433.75 687.73 433.81 687.67 433.86 687.63 433.84 687.5 433.8 687.38 433.75 687.3 433.71 687.27 433.71 687.15 433.69 687.05 433.66 686.93 433.64 686.81 433.62 686.69 433.59 686.57 433.57 686.54 433.56 686.48 433.51 686.31 433.39 686.23 433.32 686.14 433.25 686.05 433.19 685.96 433.12 685.81 433.01 685.8 433 685.74 432.96 685.71 432.94 685.71 432.94 685.61 432.86 685.51 432.86 685.39 432.86 685.29 432.86 685.17 432.86 685.09 432.86 685.05 432.85 684.94 432.82 684.84 432.79 684.74 432.77 684.63 432.74 684.53 432.71 684.48 432.7 684.41 432.68 684.32 432.66 684.1 432.63 683.99 432.61 683.88 432.59 683.8 432.58 683.74 432.55 683.65 432.52 683.56 432.48 683.45 432.44 683.4 432.49 683.39 432.51 683.32 432.58 683.31 432.59 683.22 432.68 683.21 432.7 683.17 432.74 683.17 432.75 683.15 432.76 683.13 432.78 683.1 432.82 683.05 432.87 683.01 432.92 682.98 432.94 682.91 432.98 682.85 432.96 682.75 432.92 682.71 432.9 682.65 432.88 682.62 432.88 682.6 432.87 682.54 432.86 682.48 432.85 682.42 432.84 682.39 432.83 682.36 432.82 682.32 432.8 682.22 432.74 682.17 432.71 682.1 432.68 682.08 432.66 682.04 432.64 682.02 432.63 682.01 432.63 681.95 432.61 681.89 432.58 681.83 432.55 681.74 432.49 681.65 432.44 681.65 432.43 681.62 432.42 681.62 432.41 681.6 432.41 681.53 432.38 681.43 432.33 681.32 432.28 681.3 432.27 681.24 432.23 681.15 432.17 681.07 432.12 680.99 432.06 680.92 432.01 680.88 431.98 680.83 431.95 680.81 431.95 680.77 431.94 680.69 431.94 680.47 431.94 680.34 431.91 680.27 431.9 680.24 431.89 680.23 431.89 680.13 431.87 680.04 431.85 679.94 431.83 679.84 431.81 679.74 431.79 679.65 431.77 679.5 431.74 679.42 431.74 679.29 431.73 679.23 431.73 679.2 431.73 679.18 431.73 679.05 431.72 678.93 431.71 678.82 431.69 678.71 431.68 678.59 431.65 678.49 431.63 678.38 431.6 678.26 431.6 678.16 431.59 678.04 431.59 677.94 431.59 677.83 431.58 677.72 431.58 677.61 431.58 677.55 431.57 677.48 431.58 677.37 431.59 677.26 431.59 677.14 431.59 677.04 431.59 676.92 431.6 676.88 431.6 676.85 431.6 676.84 431.6 676.74 431.59 676.62 431.59 676.59 431.59 676.5 431.58 676.46 431.59 676.41 431.59 676.22 431.61 676.14 431.61 676.03 431.6 675.91 431.6 675.82 431.59 675.8 431.59 675.75 431.57 675.63 431.53 675.52 431.49 675.5 431.48 675.48 431.47 675.41 431.45 675.28 431.41 675.16 431.38 675.03 431.35 674.93 431.32 674.91 431.31 674.81 431.26 674.72 431.2 674.62 431.14 674.57 431.11 674.51 431.08 674.46 431.05 674.41 431.02 674.35 430.98 674.31 430.94 674.26 430.9 674.21 430.87 674.17 430.83 674.13 430.81 674.05 430.74 673.97 430.68 673.87 430.6 673.81 430.55 673.7 430.47 673.65 430.43 673.64 430.42 673.58 430.38 673.57 430.37 673.56 430.37 673.54 430.36 673.49 430.34 673.42 430.22 673.35 430.12 673.35 430.11 673.34 430.1 673.27 430.08 673.15 430.04 673.04 430.01 672.94 429.97 672.9 429.96 672.81 429.97 672.69 429.98 672.62 429.99 672.58 429.99 672.54 429.99 672.46 429.98 672.33 429.96 672.21 429.95 672.1 429.94 672.03 429.94 672.01 429.95 671.96 429.99 671.93 430 671.85 429.96 671.71 430.02 671.62 430.05 671.49 430.05 671.49 430.05 671.48 430.05 671.39 430 671.33 430.02 671.24 430.05 671.14 430.08 671.04 430.12 670.94 430.15 670.84 430.18 670.74 430.21 670.63 430.24 670.53 430.28 670.46 430.3 670.42 430.31 670.39 430.31 670.32 430.32 670.23 430.34 670.22 430.31 670.21 430.27 670.19 430.22 670.17 430.16 670.15 430.11 670.14 430.06 670.11 429.98 670.05 429.94 670 429.9 669.91 429.84 669.82 429.77 669.74 429.71 669.66 429.65 669.58 429.59 669.49 429.52 669.44 429.48 Z M 653.79 447.71 653.62 447.32 653.57 447.29 653.38 447.17 653.1 447.01 652.99 446.94 652.97 446.94 652.88 446.88 652.87 446.87 652.86 446.86 652.81 446.83 652.69 446.75 652.72 446.68 652.78 446.51 652.79 446.47 652.79 446.38 652.78 446.21 652.79 446.16 652.84 446.01 652.92 445.85 652.99 445.7 653.07 445.57 653.27 445.3 653.27 445.23 653.52 444.88 653.71 444.64 653.8 444.52 653.81 444.51 653.81 444.5 653.83 444.43 653.84 444.42 653.89 444.3 653.9 444.29 653.98 444.05 653.99 444.03 653.98 443.74 653.98 443.63 654.04 443.18 654.05 443.15 654.08 443.05 654.22 442.7 654.3 442.4 654.39 442.34 654.55 442.06 654.7 441.44 654.74 441.23 654.81 441.02 654.69 440.7 654.48 440.55 654.39 440.44 654.27 440.06 654.22 439.9 654.09 439.36 654.13 439.22 654.2 439 654.24 438.88 654.25 438.76 654.17 438.7 654.09 438.63 654.14 438.43 654.4 438.1 655.13 437.84 655.17 437.77 655.46 437.46 655.75 437.27 655.93 437.15 656.13 436.99 656.34 436.83 656.53 436.71 656.74 436.58 656.94 436.49 657.16 436.34 657.21 436.31 657.23 436.29 657.37 436.2 657.59 436.06 657.61 436.04 657.69 435.99 657.82 435.93 657.98 435.86 658.06 435.8 658.08 435.78 658.16 435.69 658.2 435.64 658.32 435.55 658.66 435.28 658.75 435.19 658.96 435.22 659.13 435.14 659.17 435.14 659.2 435.14 659.41 435.15 659.58 435.22 659.7 435.24 659.84 435.29 659.96 435.21 660.09 435.12 660.1 435.11 660.29 434.93 660.3 434.92 660.32 434.9 660.48 434.71 660.51 434.69 660.58 434.61 660.61 434.57 660.83 434.33 660.84 434.33 660.86 434.3 660.87 434.27 660.89 434.24 660.98 433.99 661.04 433.83 661.11 433.64 661.14 433.5 661.32 433.37 661.67 433.16 661.79 433.11 661.81 432.9 661.86 432.75 661.95 432.53 661.99 432.46 662 432.43 662.03 432.37 662.05 432.31 662.09 432.22 662.11 432.15 662.08 431.97 662.16 431.84 662.21 431.77 662.33 431.68 662.48 431.57 662.76 431.56 662.92 431.41 663.35 431.34 663.44 431.33 663.49 431.32 663.61 431.31 663.72 431.3 663.76 431.33 663.83 431.39 663.83 431.43 663.85 431.5 663.86 431.56 663.86 431.6 663.91 431.68 664.05 431.69 664.18 431.67 664.3 431.77 664.35 431.75 664.43 431.73 664.43 431.72 664.59 431.55 664.81 431.51 664.98 431.47 665.04 431.62 665.07 431.7 665.05 432.04 665.04 432.13 665.08 432.73 665.03 433.09 665.01 433.18 665.01 433.25 664.96 433.52 664.92 433.56 664.85 433.63 664.77 433.73 664.56 433.97 664.53 434 664.49 434.04 664.44 434.11 664.22 434.39 664.18 434.44 663.98 434.65 663.95 434.68 663.79 434.86 663.76 434.88 663.28 435.35 663.19 435.66 663.28 436.29 663.31 436.52 663.25 436.55 663.19 436.59 663.16 436.6 662.51 436.97 662.75 437.81 663 438.04 663.05 438.08 663.07 438.41 663.09 438.77 662.85 439.32 662.76 439.52 662.6 439.89 662.57 440.12 662.54 440.29 662.55 440.43 662.56 440.53 662.57 440.56 662.69 440.84 662.66 440.94 662.5 441.26 662.3 441.63 662.53 442.12 662.45 442.4 662.3 442.64 662.12 442.85 662.05 442.93 661.82 443.26 661.73 443.34 661.6 443.55 661.49 443.74 661.47 443.81 661.42 444.05 661.19 444.13 661.02 444.18 660.91 444.16 660.84 444.18 660.69 444.22 660.54 444.26 660.38 444.35 660.29 444.42 660.22 444.48 659.74 444.65 659.58 444.91 659.52 444.95 659.41 445 659.3 445.03 659.17 445.06 659.03 445.07 658.81 445.06 658.66 445.05 658.53 445.05 658.41 445.14 658.31 445.2 658.24 445.23 658 445.32 657.76 445.42 657.72 445.48 657.51 445.83 657.3 446.2 657.08 446.49 657.07 446.49 657.05 446.5 656.82 446.57 656.8 446.59 656.75 446.72 656.72 446.81 656.69 446.87 656.67 446.89 656.66 446.9 656.51 447.07 656.16 446.99 656 447 655.82 446.96 655.78 446.96 655.73 446.92 655.62 446.84 655.52 446.8 655.5 446.79 655.41 446.77 655.34 446.77 655.28 446.76 655.01 446.93 654.8 447.07 654.71 447.15 654.53 447.3 654.49 447.31 654.4 447.3 654.05 447.61 653.79 447.71 Z"/>
</g></svg>