<svg xmlns="http://www.w3.org/2000/svg" version="1.2" baseProfile="tiny" stroke-linecap="round" stroke-linejoin="round" viewBox="348.9 353.95 14.35 50.55"><g xmlns="http://www.w3.org/2000/svg" id="Piedramillera">
<path d="M 360 357.74 360.07 357.78 360.15 357.83 360.25 357.89 360.32 357.91 360.39 357.93 360.43 357.94 360.48 357.95 360.53 357.96 360.6 357.97 360.68 358 360.73 358.02 360.83 358.06 361.08 358.19 361.21 358.25 361.24 358.26 361.26 358.26 361.31 358.25 361.42 358.23 361.44 358.31 361.46 358.4 361.49 358.49 361.51 358.55 361.53 358.61 361.61 358.84 361.66 359.02 361.8 359.31 361.83 359.37 361.9 359.57 361.91 359.58 361.92 359.62 361.95 359.71 361.99 359.84 362.02 359.97 362.05 360.04 362.08 360.17 362.1 360.25 362.16 360.44 362.17 360.48 362.18 360.5 362.23 360.76 362.24 360.8 362.26 360.87 362.27 360.89 362.28 360.91 362.3 360.97 362.33 361.05 362.37 361.15 362.37 361.16 362.41 361.26 362.43 361.31 362.43 361.32 362.44 361.34 362.44 361.36 362.44 361.39 362.45 361.53 362.54 361.62 362.43 361.7 362.71 362.18 362.71 362.2 362.88 362.14 363.03 362.11 363.21 362.08 363.21 362.09 363.19 362.12 363.14 362.19 363.1 362.23 363.07 362.26 363.03 362.28 362.99 362.3 362.95 362.33 362.92 362.35 362.9 362.37 362.86 362.39 362.84 362.41 362.81 362.43 362.79 362.45 362.76 362.47 362.72 362.51 362.7 362.53 362.68 362.54 362.66 362.56 362.63 362.6 362.59 362.63 362.55 362.66 362.53 362.69 362.49 362.71 362.45 362.75 362.42 362.78 362.39 362.8 362.36 362.83 362.29 362.89 362.27 362.92 362.24 362.95 362.22 362.97 362.2 362.99 362.19 363 362.16 363.04 362.14 363.07 362.11 363.11 362.09 363.17 362.06 363.22 362.03 363.27 361.99 363.32 361.96 363.37 361.94 363.41 361.91 363.46 361.9 363.49 361.92 363.49 362.72 363.78 363.05 363.89 363.06 364.34 363.14 364.33 363.15 364.34 363.19 364.52 363.22 364.63 362.99 364.74 362.79 364.83 362.81 364.94 362.56 364.9 362.56 365.1 362.54 365.1 362.39 365.07 362.36 365.13 362.33 365.21 362.32 365.24 362.32 365.29 362.33 365.33 362.33 365.38 362.34 365.44 362.33 365.49 362.34 365.54 362.34 365.57 362.54 366.1 362.46 366.4 362.17 366.42 362.04 366.79 362.02 367.04 361.74 367.11 361.75 367.27 361.59 367.34 361.51 367.65 361.47 367.74 361.45 367.79 361.44 367.84 361.43 367.88 361.44 367.93 361.45 367.99 361.48 368.09 361.48 368.1 361.49 368.11 361.51 368.11 361.53 368.12 361.61 368.28 361.73 368.52 361.73 368.63 361.73 368.64 361.76 368.68 361.79 368.74 361.81 368.77 361.85 368.85 361.88 368.92 361.91 368.99 361.96 369.13 361.97 369.15 361.97 369.17 361.98 369.29 361.98 369.34 361.7 369.35 361.54 369.35 361.42 369.35 361.33 369.34 361.26 369.34 361.19 369.33 361.09 369.34 360.96 369.31 360.86 369.3 360.79 369.29 360.73 369.29 360.71 369.3 360.66 369.19 360.43 368.59 360.41 368.53 360.41 368.52 360.41 368.45 360.42 368.31 360.44 368.19 360.43 368.16 360.42 368.15 360.41 368.11 360.41 368.09 360.4 368.06 360.39 368.01 360.37 367.96 360.36 367.9 360.35 367.86 360.35 367.81 360.35 367.74 360.35 367.62 360.21 367.61 360.11 367.6 360.03 367.58 359.98 367.57 359.9 367.54 359.84 367.51 359.79 367.49 359.75 367.47 359.69 367.41 359.67 367.4 359.63 367.39 359.58 367.38 359.51 367.37 359.45 367.38 359.4 367.38 359.33 367.39 359.25 367.42 359.19 367.44 359.15 367.45 359.14 367.46 359.13 367.46 359.14 367.56 359.15 367.59 359.16 367.64 359.17 367.69 359.16 367.72 359.15 367.73 359.15 367.75 359.14 367.77 359.13 367.79 359.1 367.82 359.08 367.84 359.07 367.85 359.04 367.87 359.02 367.88 359 367.9 358.96 367.89 358.91 367.88 358.85 367.89 358.77 367.89 358.7 367.9 358.6 367.91 358.54 367.93 358.51 367.93 358.46 367.94 358.43 367.93 358.4 367.91 358.38 367.9 358.36 367.9 358.34 367.9 358.25 367.91 358.23 367.85 358.18 367.7 358.14 367.58 357.97 367.12 357.93 367 357.48 366.51 357.44 366.48 357.04 366.05 357.04 366.04 356.99 365.98 356.52 365.74 356.51 365.74 356.48 365.72 356.46 365.71 356.32 365.7 356.28 365.7 356.16 365.71 356.06 365.7 355.96 365.7 355.8 365.68 355.59 365.66 355.53 365.65 355.33 365.59 355.25 365.58 355.08 365.53 355.01 365.51 354.96 365.49 354.9 365.46 354.85 365.44 354.83 365.42 354.71 365.37 354.64 365.34 354.55 365.3 354.47 365.26 354.39 365.21 354.26 365.12 354.16 365.06 354.09 365.01 353.77 364.83 353.74 364.79 353.7 364.78 353.64 364.75 353.53 364.73 353.41 364.71 353.36 364.69 353.34 364.69 353.25 364.66 353.12 364.61 353.04 364.59 352.93 364.59 352.78 364.58 352.74 364.58 352.69 364.58 352.61 364.59 352.44 364.61 352.36 364.62 352.29 364.63 352.25 364.64 352.23 364.64 352.18 364.66 352.12 364.69 352.09 364.71 352.05 364.73 352.05 364.74 351.93 364.84 351.89 364.88 351.85 364.91 351.79 364.97 351.74 365.02 351.68 365.06 351.63 365.1 351.58 365.12 351.52 365.14 351.43 365.19 351.31 365.24 350.77 365.51 350.76 365.52 350.75 365.52 350.5 365.62 350.48 365.63 350.44 365.64 350.22 365.77 350.21 365.78 350.12 365.83 350.09 365.85 349.97 365.92 349.83 366.02 349.72 366.1 349.48 366.28 349.47 366.29 349.46 366.29 349.45 366.29 349.43 366.29 349.29 366.25 349.22 366.22 349.13 366.19 349 366.15 348.96 366.14 348.95 366.14 348.94 366.13 348.94 366.13 348.93 366.1 348.93 366.05 348.95 366.05 349 366.07 349.12 366.1 349.14 366.11 349.24 366.13 349.29 366.08 349.42 365.95 349.56 365.79 349.59 365.77 349.93 365.4 349.89 365.33 349.78 365.15 349.39 365.11 349.42 365.01 349.45 364.89 349.46 364.87 349.48 364.83 349.52 364.64 349.53 364.63 349.9 364.14 349.92 364.12 350.11 363.86 350.12 363.85 350.39 363.5 350.89 362.83 350.9 362.82 351.18 362.44 351.21 362.39 351.21 362.38 351.2 362.02 351.27 361.85 351.28 361.81 351.31 361.76 351.33 361.72 351.34 361.69 351.35 361.66 351.36 361.65 351.38 361.6 351.39 361.57 351.41 361.54 351.42 361.5 351.44 361.47 351.47 361.4 351.5 361.33 351.53 361.26 351.55 361.23 351.56 361.21 351.57 361.18 351.58 361.14 351.6 361.09 351.62 361.05 351.62 361.04 351.62 361.03 351.63 361 351.63 360.95 351.64 360.9 351.64 360.86 351.64 360.85 351.64 360.85 351.65 360.83 351.65 360.82 351.65 360.79 351.67 360.75 351.67 360.72 351.68 360.69 351.69 360.66 351.7 360.64 351.7 360.62 351.71 360.6 351.72 360.58 351.73 360.55 351.74 360.53 351.75 360.49 351.77 360.46 351.79 360.43 351.8 360.4 351.82 360.36 351.84 360.33 351.86 360.29 351.89 360.26 351.91 360.22 351.96 360.15 351.99 360.12 352.01 360.09 352.04 360.06 352.07 360.04 352.1 360 352.13 359.97 352.16 359.94 352.17 359.93 352.19 359.91 352.21 359.89 352.27 359.84 352.28 359.82 352.31 359.82 352.33 359.82 352.33 359.8 352.34 359.78 352.34 359.77 352.35 359.75 352.36 359.71 352.37 359.68 352.38 359.64 352.39 359.61 352.4 359.57 352.41 359.53 352.42 359.5 352.43 359.47 352.44 359.43 352.45 359.4 352.45 359.36 352.46 359.34 352.47 359.3 352.48 359.27 352.49 359.23 352.49 359.22 352.5 359.21 352.5 359.19 352.52 359.16 352.53 359.14 352.55 359.1 352.58 359.05 352.6 359.01 352.61 358.97 352.63 358.93 352.65 358.89 352.67 358.86 352.68 358.82 352.71 358.78 352.75 358.69 352.79 358.62 352.81 358.56 352.84 358.49 352.87 358.43 352.87 358.43 352.9 358.43 352.94 358.46 352.97 358.48 353 358.5 353.03 358.52 353.08 358.55 353.11 358.57 353.15 358.59 353.18 358.6 353.23 358.61 353.3 358.63 353.33 358.64 353.36 358.65 353.4 358.67 353.46 358.69 353.51 358.71 353.58 358.72 353.65 358.75 353.74 358.78 353.83 358.81 353.91 358.83 354.01 358.86 354.07 358.88 354.15 358.9 354.16 358.87 354.17 358.83 354.18 358.78 354.19 358.72 354.19 358.7 354.17 358.68 354.11 358.65 354.04 358.6 353.95 358.55 353.91 358.52 353.87 358.5 353.86 358.48 353.84 358.46 353.82 358.43 353.78 358.37 353.72 358.28 353.66 358.2 353.61 358.13 353.59 358.1 353.6 358.04 353.61 357.97 353.63 357.88 353.64 357.78 353.65 357.69 353.67 357.59 353.67 357.56 353.68 357.49 353.69 357.38 353.7 357.28 353.71 357.19 353.72 357.08 353.73 357.03 353.74 356.98 353.74 356.88 353.75 356.8 353.76 356.74 353.76 356.7 353.77 356.62 353.78 356.57 353.78 356.52 353.79 356.47 353.8 356.39 353.8 356.34 353.81 356.31 353.82 356.25 353.82 356.22 353.83 356.17 353.84 356.12 353.85 356.07 353.85 356.03 353.85 355.99 353.84 355.97 353.83 355.92 353.82 355.87 353.81 355.82 353.81 355.78 353.81 355.74 353.81 355.7 353.82 355.66 353.84 355.62 353.86 355.57 353.88 355.53 353.92 355.47 353.95 355.42 353.99 355.36 354.04 355.31 354.1 355.24 354.09 355.17 354.09 355.13 354.08 355.07 354.07 355 354.06 354.96 354.06 354.92 354.06 354.89 354.07 354.85 354.09 354.79 354.1 354.74 354.11 354.69 354.12 354.64 354.12 354.6 354.12 354.57 354.14 354.52 354.15 354.45 354.16 354.43 354.17 354.4 354.16 354.35 354.16 354.31 354.17 354.29 354.17 354.27 354.19 354.24 354.22 354.23 354.27 354.22 354.34 354.2 354.41 354.18 354.49 354.16 354.57 354.14 354.64 354.14 354.72 354.13 354.8 354.13 354.84 354.15 354.88 354.18 354.95 354.23 355.06 354.3 355.17 354.3 355.34 354.29 355.6 354.29 355.78 354.28 355.84 354.28 355.91 354.28 355.92 354.28 355.94 354.27 355.96 354.27 356 354.25 356.06 354.23 356.12 354.21 356.22 354.18 356.31 354.15 356.38 354.12 356.57 354.06 356.75 354 356.91 353.95 357.08 354 357.26 354.07 357.45 354.13 357.72 354.22 357.95 354.3 358.28 354.39 358.57 354.48 358.81 354.55 359.06 354.63 359.21 354.67 359.2 354.76 359.19 354.85 359.17 354.97 359.16 355.09 359.15 355.21 359.13 355.32 359.12 355.37 359.12 355.44 359.11 355.47 359.11 355.53 359.1 355.57 359.1 355.6 359.1 355.64 359.09 355.69 359.08 355.74 359.08 355.79 358.97 355.99 358.83 356.22 358.77 356.33 358.69 356.32 358.63 356.3 358.57 356.27 358.54 356.25 358.47 356.23 358.42 356.22 358.38 356.22 358.32 356.2 358.25 356.17 358.18 356.14 358.1 356.12 358.06 356.11 358.05 356.13 358.03 356.16 358.02 356.2 358 356.25 357.98 356.31 357.96 356.37 357.94 356.45 357.93 356.53 357.92 356.58 357.92 356.63 357.92 356.65 357.92 356.68 357.93 356.71 357.94 356.74 357.95 356.77 357.96 356.8 357.96 356.82 357.97 356.85 357.98 356.89 357.99 356.91 358 356.95 358 356.98 358 357.01 358.01 357.04 358.01 357.06 358.01 357.09 358.01 357.13 358.01 357.16 358.01 357.2 358.04 357.21 358.07 357.22 358.09 357.22 358.12 357.23 358.13 357.23 358.15 357.24 358.18 357.24 358.21 357.26 358.23 357.27 358.25 357.28 358.27 357.29 358.29 357.3 358.32 357.31 358.35 357.33 358.39 357.33 358.43 357.34 358.46 357.35 358.49 357.35 358.5 357.35 358.53 357.36 358.55 357.36 358.58 357.36 358.61 357.36 358.64 357.37 358.67 357.37 358.7 357.38 358.73 357.39 358.74 357.39 358.77 357.4 358.78 357.4 358.81 357.4 358.84 357.4 358.86 357.41 358.89 357.41 358.9 357.41 358.92 357.41 358.95 357.41 358.99 357.41 359.02 357.4 359.04 357.4 359.08 357.4 359.09 357.39 359.11 357.39 359.13 357.38 359.16 357.38 359.18 357.38 359.21 357.38 359.24 357.39 359.26 357.4 359.3 357.42 359.3 357.43 359.28 357.47 359.25 357.5 359.24 357.53 359.23 357.55 359.22 357.57 359.21 357.58 359.21 357.6 359.2 357.62 359.24 357.64 359.27 357.66 359.3 357.67 359.33 357.69 359.36 357.7 359.38 357.71 359.41 357.73 359.44 357.74 359.46 357.75 359.49 357.75 359.52 357.76 359.55 357.77 359.57 357.77 359.6 357.78 359.61 357.78 359.61 357.77 359.62 357.75 359.62 357.66 359.61 357.61 359.64 357.62 359.64 357.62 359.66 357.62 359.68 357.62 359.71 357.63 359.77 357.65 359.81 357.66 359.86 357.68 359.91 357.7 359.97 357.72 360 357.74 Z M 352.17 404.5 352.17 404.47 352.16 404.42 352.15 404.38 352.15 404.34 352.15 404.32 352.15 404.29 352.16 404.26 352.17 404.22 352.17 404.22 352.17 404.19 352.17 404.1 352.17 404.06 352.17 404.02 352.17 403.97 352.17 403.93 352.17 403.88 352.17 403.82 352.17 403.78 352.17 403.75 352.16 403.71 352.15 403.68 352.15 403.66 352.14 403.62 352.13 403.59 352.1 403.53 352.09 403.48 352.08 403.47 352.06 403.42 352.06 403.4 352.05 403.38 352.03 403.29 352 403.2 351.98 403.12 351.95 403.04 351.95 403.02 351.94 402.98 351.92 402.92 351.91 402.86 351.89 402.77 351.89 402.75 351.88 402.68 351.87 402.61 351.86 402.52 351.85 402.43 351.84 402.35 351.84 402.3 351.83 402.27 351.82 402.22 351.81 402.16 351.79 402.1 351.79 402.05 351.77 401.97 351.77 401.92 351.76 401.87 351.75 401.77 351.74 401.68 351.73 401.58 351.72 401.49 351.71 401.38 351.7 401.32 351.7 401.23 351.69 401.21 351.69 401.11 351.68 401.02 351.71 400.95 351.74 400.87 351.77 400.79 351.81 400.71 351.85 400.65 351.89 400.57 351.94 400.5 351.97 400.45 352.05 400.36 352.1 400.31 352.13 400.27 352.17 400.23 352.22 400.19 352.26 400.15 352.29 400.12 352.31 400.11 352.36 400.08 352.39 400.06 352.42 400.04 352.47 400.01 352.51 399.99 352.55 399.97 352.56 399.95 352.58 399.74 352.58 399.7 352.58 399.64 352.59 399.53 352.6 399.5 352.6 399.46 352.58 399.42 352.42 399.2 352.4 399.16 352.39 399.15 352.39 399.14 352.37 399.11 352.29 399.02 352.24 398.96 352.2 398.9 352.17 398.84 352.17 398.83 351.87 398.47 352 397.95 352.14 397.87 352.18 397.85 352.33 397.78 352.46 397.71 352.49 397.7 352.59 397.64 352.61 397.63 352.74 397.57 352.68 397.52 352.52 397.41 352.43 397.34 352.16 397.14 352.08 397.08 352.04 397.05 352.01 397.02 351.97 396.97 351.91 396.9 351.86 396.84 351.81 396.78 351.78 396.75 351.78 396.74 351.77 396.73 351.77 396.7 351.77 396.69 351.77 396.67 351.78 396.63 351.79 396.58 351.8 396.55 351.8 396.5 351.81 396.45 351.83 396.4 351.84 396.36 351.85 396.34 351.85 396.33 351.86 396.32 351.89 396.3 351.9 396.29 351.99 396.22 352.09 396.14 352.19 396.06 352.22 396.03 352.2 395.98 352.17 395.9 352.16 395.87 352.13 395.74 352.13 395.73 352.11 395.67 352.09 395.58 352.08 395.53 352.07 395.52 352.06 395.5 352.06 395.49 352.05 395.4 352.06 395.29 352.06 395.27 352.06 395.17 352.07 395.08 352.08 395.04 352.09 395 352.29 395.04 352.39 395.06 352.46 395.07 352.47 395.07 352.5 395.08 352.59 395.1 352.62 395.1 352.63 395.11 352.69 395.12 352.77 395.13 352.85 395.14 352.9 395.15 352.98 395.15 353.04 395.15 353.1 395.15 353.16 395.15 353.21 395.14 353.25 395.13 353.28 395.12 353.31 395.11 353.33 395.1 353.38 395.08 353.43 395.06 353.39 395.04 353.31 395 353.18 394.93 353.05 394.87 353.01 394.85 352.95 394.72 352.93 394.68 352.9 394.62 352.85 394.54 352.8 394.45 352.78 394.4 352.84 394.44 352.97 394.52 353.12 394.61 353.31 394.73 353.46 394.82 353.56 394.88 353.59 394.86 353.61 394.84 353.67 394.78 353.74 394.7 353.84 394.61 353.87 394.57 353.88 394.57 353.93 394.52 353.98 394.46 353.99 394.46 354 394.45 354.01 394.44 354.02 394.42 354.04 394.4 354.08 394.36 354.11 394.33 354.27 394.13 354.38 393.99 354.44 393.92 354.55 393.95 354.7 393.98 354.78 393.99 354.8 394 354.82 394 354.91 394.02 354.92 394.02 355.01 394.04 355.12 394.06 355.2 394.08 355.29 394.09 355.36 394.1 355.41 394.11 355.48 394.12 355.55 394.13 355.6 394.14 355.65 394.15 355.68 394.15 355.72 394.16 355.77 394.17 355.8 394.19 355.84 394.21 355.87 394.23 355.92 394.25 355.96 394.27 356.02 394.3 356.08 394.32 356.15 394.36 356.18 394.38 356.2 394.38 356.21 394.39 356.27 394.43 356.33 394.48 356.37 394.51 356.4 394.54 356.43 394.57 356.46 394.62 356.5 394.65 356.53 394.68 356.56 394.72 356.6 394.74 356.63 394.77 356.65 394.8 356.67 394.82 356.7 394.85 356.74 394.9 356.78 394.95 356.79 394.97 356.8 394.99 356.82 395.02 356.86 395.07 356.88 395.11 356.92 395.16 356.95 395.21 356.99 395.28 357.02 395.34 357.05 395.39 357.07 395.45 357.1 395.5 357.12 395.55 357.13 395.58 357.14 395.62 357.14 395.66 357.14 395.71 357.15 395.79 357.15 395.84 357.15 395.87 357.15 395.88 357.15 395.92 357.14 395.97 357.14 396 357.13 396.05 357.13 396.08 357.12 396.13 357.12 396.15 357.12 396.16 357.12 396.18 357.12 396.2 357.12 396.23 357.12 396.26 357.12 396.3 357.12 396.34 357.12 396.39 357.13 396.43 357.13 396.46 357.13 396.49 357.13 396.52 357.12 396.56 357.11 396.61 357.1 396.67 357.09 396.72 357.08 396.79 357.07 396.85 357.06 396.9 357.05 396.95 357.04 397 357.03 397.05 357.02 397.09 357 397.17 356.99 397.24 356.98 397.25 356.98 397.27 356.98 397.29 356.95 397.39 356.93 397.48 356.91 397.55 356.9 397.58 356.88 397.66 356.86 397.73 356.84 397.83 356.8 397.82 356.76 397.81 356.74 397.81 356.69 397.79 356.67 397.78 356.66 397.77 356.64 397.77 356.6 397.75 356.57 397.72 356.54 397.7 356.53 397.7 356.5 397.67 356.46 397.65 356.44 397.64 356.42 397.63 356.38 397.61 356.37 397.61 356.35 397.61 356.3 397.6 356.27 397.61 356.24 397.61 356.21 397.61 356.19 397.61 356.16 397.62 356.13 397.63 356.11 397.63 356.06 397.63 356.04 397.64 356.03 397.64 356.02 397.65 356 397.66 355.98 397.67 355.95 397.69 355.91 397.72 355.89 397.73 355.88 397.78 355.85 397.84 355.83 397.91 355.79 397.99 355.77 398.06 355.73 398.15 355.7 398.23 355.68 398.3 355.66 398.35 355.62 398.44 355.61 398.45 355.61 398.47 355.58 398.53 355.57 398.57 355.53 398.66 355.51 398.72 355.48 398.8 355.46 398.85 355.44 398.88 355.44 398.9 355.42 398.96 355.42 398.98 355.41 399 355.4 399.03 355.39 399.07 355.38 399.11 355.37 399.15 355.36 399.18 355.36 399.22 355.35 399.25 355.35 399.27 355.34 399.28 355.34 399.3 355.34 399.31 355.33 399.34 355.33 399.36 355.31 399.44 355.31 399.45 355.29 399.53 355.28 399.55 355.28 399.57 355.28 399.58 355.23 399.62 355.16 399.67 355.14 399.69 355.12 399.71 355.04 399.76 354.93 399.83 354.91 399.85 354.86 399.88 354.8 399.92 354.79 399.93 354.72 399.98 354.64 400.03 354.55 400.09 354.49 400.13 354.47 400.14 354.45 400.16 354.4 400.19 354.39 400.2 354.35 400.23 354.29 400.26 354.22 400.31 354.18 400.33 354.14 400.36 354.1 400.39 354.02 400.43 353.94 400.48 353.88 400.52 353.81 400.56 353.74 400.61 353.72 400.62 353.7 400.63 353.67 400.66 353.65 400.67 353.6 400.71 353.54 400.76 353.47 400.82 353.39 400.88 353.33 400.93 353.24 400.99 353.16 401.05 353.06 401.11 353.05 401.19 353.03 401.26 353.02 401.32 353.01 401.4 353 401.43 352.99 401.48 352.98 401.55 352.98 401.58 352.97 401.62 352.97 401.63 352.96 401.67 352.96 401.69 352.95 401.71 352.95 401.72 352.91 401.79 352.9 401.82 352.89 401.85 352.87 401.88 352.87 401.9 352.86 401.92 352.85 401.93 352.84 401.96 352.82 401.98 352.81 402 352.79 402.05 352.78 402.08 352.76 402.13 352.76 402.15 352.75 402.19 352.73 402.24 352.71 402.28 352.69 402.3 352.68 402.32 352.67 402.34 352.66 402.38 352.65 402.39 352.64 402.43 352.63 402.48 352.63 402.5 352.61 402.56 352.6 402.6 352.58 402.64 352.57 402.69 352.55 402.75 352.54 402.77 352.52 402.82 352.51 402.84 352.5 402.87 352.48 402.92 352.46 402.96 352.43 403.03 352.41 403.07 352.39 403.09 352.37 403.15 352.34 403.2 352.31 403.26 352.31 403.27 352.3 403.29 352.3 403.3 352.3 403.32 352.3 403.33 352.3 403.34 352.31 403.35 352.32 403.36 352.32 403.36 352.35 403.38 352.36 403.39 352.36 403.41 352.37 403.43 352.37 403.44 352.37 403.45 352.37 403.5 352.37 403.53 352.36 403.59 352.35 403.65 352.34 403.73 352.34 403.83 352.33 403.92 352.32 403.98 352.3 404.03 352.28 404.09 352.27 404.14 352.25 404.2 352.23 404.28 352.21 404.38 352.19 404.43 352.17 404.5 Z"/>
</g></svg>