<svg xmlns="http://www.w3.org/2000/svg" version="1.2" baseProfile="tiny" stroke-linecap="round" stroke-linejoin="round" viewBox="520 428.25 40.28 29.38"><g xmlns="http://www.w3.org/2000/svg" id="Pitillas">
<path d="M 540.94 428.26 541.25 428.41 541.26 428.42 541.31 428.44 541.35 428.46 541.67 428.61 541.69 428.61 541.98 428.75 541.99 428.75 542.07 428.79 542.09 428.79 542.09 428.8 542.11 428.8 542.13 428.81 542.15 428.82 542.52 428.99 542.54 429 542.55 429.01 542.56 429.01 542.62 429.04 542.63 429.04 542.65 429.05 542.73 429.09 542.73 429.09 542.79 429.12 542.82 429.13 542.84 429.14 542.87 429.15 542.92 429.17 542.94 429.18 542.98 429.2 543 429.21 543.04 429.22 543.12 429.26 543.15 429.27 543.38 429.37 543.43 429.39 543.49 429.41 543.5 429.42 543.59 429.46 543.6 429.47 543.63 429.48 543.72 429.51 543.85 429.56 543.85 429.56 544.05 429.65 544.08 429.66 544.4 429.82 544.46 429.86 544.53 429.91 544.57 429.94 544.66 429.97 544.74 430 544.8 430.02 544.84 430.03 544.88 430.05 544.91 430.05 544.91 430.05 544.94 430.07 544.97 430.08 545.05 430.12 545.09 430.15 545.14 430.18 545.19 430.2 545.23 430.22 545.26 430.24 545.31 430.26 545.37 430.27 545.4 430.28 545.41 430.28 545.42 430.29 545.43 430.29 545.44 430.3 545.46 430.31 545.54 430.36 545.63 430.41 545.71 430.45 545.71 430.46 545.72 430.46 545.77 430.48 545.81 430.5 545.84 430.51 545.85 430.51 545.88 430.52 545.95 430.54 545.98 430.56 545.99 430.56 546 430.56 546.03 430.57 546.04 430.58 546.1 430.6 546.19 430.63 546.25 430.66 546.38 430.73 546.41 430.75 546.42 430.75 546.44 430.76 546.45 430.77 546.51 430.79 546.6 430.83 546.64 430.85 546.64 430.86 546.69 430.88 546.79 430.92 546.85 430.95 546.93 430.98 546.97 431 547.02 431.01 547.09 431.05 547.17 431.09 547.21 431.11 547.26 431.11 547.28 431.11 547.29 431.12 547.3 431.12 547.37 431.17 547.44 431.23 547.5 431.28 547.52 431.29 547.59 431.32 547.62 431.33 547.77 431.4 547.91 431.46 547.98 431.49 548.05 431.53 548.07 431.53 548.2 431.58 548.37 431.64 548.53 431.69 548.65 431.74 548.74 431.77 548.81 431.8 548.88 431.82 548.95 431.84 548.97 431.85 549.04 431.88 549.06 431.9 549.12 431.94 549.19 431.99 549.2 432 549.26 432.03 549.34 432.08 549.4 432.11 549.48 432.15 549.58 432.2 549.63 432.22 549.7 432.25 549.8 432.28 549.83 432.3 549.87 432.31 549.9 432.31 549.94 432.32 550.02 432.32 550.06 432.34 550.21 432.41 550.34 432.47 550.39 432.5 550.47 432.54 550.5 432.56 550.51 432.56 550.6 432.61 550.66 432.66 550.72 432.68 550.79 432.71 550.86 432.74 550.89 432.76 550.9 432.76 550.93 432.77 550.96 432.78 551 432.8 551.13 432.85 551.34 432.93 551.47 432.99 551.59 433.03 551.67 433.06 551.73 433.1 551.82 433.14 551.86 433.16 551.95 433.2 552.08 433.27 552.19 433.32 552.21 433.33 552.25 433.36 552.28 433.37 552.3 433.39 552.31 433.39 552.34 433.41 552.43 433.45 552.49 433.48 552.56 433.51 552.59 433.52 552.67 433.56 552.73 433.59 552.74 433.6 552.75 433.6 552.76 433.61 552.79 433.62 552.8 433.63 552.83 433.65 552.86 433.67 552.94 433.69 553.03 433.72 553.06 433.73 553.15 433.71 553.22 433.69 553.31 433.67 553.4 433.64 553.43 433.63 553.43 433.63 553.51 433.62 553.58 433.6 553.6 433.6 553.63 433.6 553.65 433.6 553.67 433.6 553.69 433.6 553.72 433.6 553.73 433.6 553.76 433.6 553.8 433.57 553.81 433.56 553.87 433.51 553.94 433.45 553.99 433.41 554 433.39 554.03 433.37 554.09 433.33 554.13 433.29 554.14 433.29 554.17 433.26 554.2 433.23 554.23 433.21 554.28 433.19 554.33 433.16 554.39 433.14 554.42 433.12 554.45 433.11 554.48 433.1 554.49 433.09 554.56 433.06 554.6 433.05 554.61 433.04 554.64 433.03 554.72 433 554.77 432.98 554.87 432.96 554.92 432.94 554.99 432.9 555.14 432.81 555.22 432.76 555.28 432.73 555.3 432.72 555.34 432.71 555.45 432.68 555.53 432.66 555.57 432.64 555.63 432.61 555.69 432.58 555.81 432.52 555.92 432.47 555.95 432.45 556.1 432.38 556.17 432.35 556.21 432.34 556.24 432.32 556.26 432.31 556.28 432.31 556.34 432.32 556.42 432.34 556.45 432.34 556.47 432.34 556.51 432.33 556.54 432.31 556.57 432.3 556.61 432.28 556.64 432.28 556.72 432.27 556.77 432.26 556.81 432.27 556.89 432.28 556.98 432.3 556.99 432.3 557 432.31 557.02 432.31 557.04 432.31 557.07 432.3 557.13 432.28 557.17 432.27 557.21 432.26 557.25 432.26 557.29 432.26 557.32 432.27 557.38 432.28 557.42 432.3 557.44 432.3 557.46 432.31 557.49 432.31 557.52 432.3 557.6 432.25 557.66 432.21 557.69 432.19 557.74 432.2 557.82 432.22 557.87 432.23 557.88 432.23 557.9 432.23 557.91 432.23 557.93 432.23 557.97 432.24 557.99 432.24 558.04 432.24 558.09 432.24 558.16 432.24 558.2 432.24 558.23 432.25 558.25 432.25 558.29 432.25 558.32 432.26 558.34 432.26 558.37 432.26 558.39 432.27 558.42 432.27 558.44 432.28 558.46 432.28 558.48 432.29 558.51 432.3 558.54 432.31 558.57 432.33 558.6 432.35 558.61 432.36 558.63 432.37 558.66 432.4 558.68 432.42 558.7 432.44 558.73 432.46 558.75 432.48 558.77 432.49 558.8 432.53 558.84 432.54 558.87 432.56 558.9 432.58 558.92 432.59 558.93 432.6 558.96 432.61 558.98 432.63 559 432.64 559.03 432.67 559.06 432.71 559.09 432.73 559.11 432.75 559.13 432.76 559.15 432.78 559.18 432.81 559.18 432.82 559.2 432.87 559.21 432.88 559.22 432.91 559.23 432.93 559.25 432.97 559.26 433 559.28 433.05 559.3 433.09 559.33 433.16 559.34 433.19 559.36 433.24 559.37 433.25 559.39 433.3 559.41 433.35 559.42 433.38 559.42 433.39 559.44 433.44 559.46 433.51 559.48 433.58 559.5 433.66 559.52 433.73 559.53 433.76 559.54 433.79 559.56 433.82 559.58 433.84 559.6 433.88 559.63 433.92 559.65 433.96 559.67 434 559.68 434.04 559.7 434.06 559.71 434.11 559.72 434.12 559.73 434.13 559.74 434.16 559.75 434.18 559.76 434.21 559.76 434.22 559.78 434.28 559.81 434.37 559.82 434.41 559.84 434.44 559.87 434.53 559.88 434.57 559.91 434.64 559.94 434.72 559.94 434.74 559.96 434.79 559.98 434.87 559.99 434.9 559.99 434.91 560.01 434.95 560.03 435.01 560.05 435.08 560.05 435.1 560.06 435.12 560.09 435.22 560.13 435.36 560.16 435.43 560.18 435.52 560.21 435.62 560.22 435.66 560.24 435.82 560.25 436 560.26 436.12 560.27 436.2 560.27 436.23 560.14 436.39 560.01 436.55 559.97 436.6 559.95 436.62 559.93 436.64 559.89 436.68 559.87 436.69 559.84 436.71 559.66 436.84 559.59 436.88 559.31 437.1 559.09 437.26 558.48 437.69 558.46 437.71 558.28 437.84 558.25 437.87 558.21 437.9 558.16 437.93 557.96 438.08 557.9 438.13 557.77 438.23 557.72 438.27 557.59 438.39 557.05 438.86 556.79 439.09 556.76 439.12 556.72 439.15 556.6 439.23 556.41 439.39 556.39 439.4 556.2 439.54 556.11 439.6 556.09 439.62 555.97 439.7 555.79 439.83 555.66 439.94 555.46 440.11 555.25 440.32 555.21 440.36 555.19 440.39 555.17 440.45 555.17 440.51 555.15 440.54 555.12 440.59 555.12 440.6 555.09 440.66 555.09 440.69 555.08 440.72 555.08 440.77 555.1 440.83 555.1 440.86 555.09 440.89 555.08 440.94 555.06 441 555.03 441.15 555.02 441.22 555.03 441.34 555.07 441.5 555.12 441.62 555.2 441.81 555.21 441.84 555.21 441.89 555.21 441.98 555.22 442.1 555.25 442.24 555.29 442.36 555.29 442.46 555.29 442.55 555.26 442.64 555.23 442.71 555.14 442.78 555.08 442.84 555.05 442.91 555.02 442.96 555.02 443.05 555.05 443.37 555.05 443.39 555.05 443.4 555.05 443.41 555.03 443.43 554.99 443.45 554.93 443.48 554.9 443.5 554.86 443.53 554.84 443.55 554.8 443.6 554.75 443.67 554.69 443.75 554.64 443.82 554.62 443.87 554.45 443.81 554.29 443.75 554.24 443.73 554.1 443.68 553.99 443.62 553.92 443.59 553.9 443.59 553.88 443.58 553.8 443.56 553.78 443.55 553.69 443.52 553.66 443.5 553.57 443.46 553.5 443.43 553.44 443.41 553.42 443.4 553.33 443.37 553.32 443.36 553.32 443.36 553.31 443.36 553.3 443.35 553.28 443.35 553.15 443.31 553.05 443.27 552.99 443.26 552.91 443.25 552.83 443.24 552.74 443.24 552.66 443.24 552.63 443.24 552.44 443.25 552.19 443.26 552.12 443.26 552.06 443.26 551.95 443.26 551.87 443.25 551.78 443.24 551.77 443.24 551.62 443.21 551.5 443.18 551.47 443.18 551.46 443.18 551.42 443.17 551.4 443.17 551.38 443.17 551.25 443.18 551.15 443.18 551.03 443.18 550.96 443.17 550.94 443.17 550.92 443.17 550.9 443.17 550.86 443.16 550.81 443.16 550.76 443.16 550.74 443.16 550.7 443.16 550.69 443.16 550.6 443.16 550.52 443.16 550.46 443.15 550.39 443.14 550.29 443.11 550.25 443.1 550.19 443.08 550.06 443.05 549.97 443.01 549.95 443 549.92 442.99 549.9 442.99 549.83 442.96 549.77 442.95 549.74 442.95 549.64 442.96 549.55 442.96 549.49 442.97 549.39 442.98 549.3 443 549.18 443.02 549.07 443.03 548.94 443.03 548.84 443.05 548.73 443.08 548.58 443.13 548.45 443.15 548.36 443.18 548.25 443.22 548.11 443.28 547.93 443.36 547.86 443.39 547.84 443.4 547.76 443.43 547.69 443.45 547.64 443.47 547.62 443.48 547.59 443.5 547.53 443.55 547.45 443.59 547.39 443.61 547.37 443.61 547.3 443.63 547.21 443.64 547.13 443.66 547.1 443.68 547.02 443.71 546.91 443.73 546.86 443.73 546.76 443.76 546.63 443.79 546.51 443.84 546.36 443.93 546.18 444.01 546.15 444.02 545.99 444.09 545.89 444.14 545.77 444.19 545.69 444.22 545.64 444.22 545.57 444.25 545.5 444.3 545.4 444.36 545.34 444.41 545.28 444.42 545.25 444.43 545.22 444.45 545.12 444.51 545.1 444.52 544.93 444.62 544.92 444.63 544.9 444.64 544.88 444.65 544.76 444.71 544.7 444.75 544.66 444.78 544.46 444.88 544.09 445.07 544 445.11 543.99 445.13 543.89 445.17 543.72 445.25 543.55 445.32 543.29 445.43 542.99 445.55 542.84 445.61 542.67 445.7 542.44 445.81 542.39 445.83 542.38 445.83 542.12 445.94 541.86 446.05 541.78 446.09 541.77 446.09 541.55 446.19 541.51 446.2 541.4 446.25 541.34 446.29 541.21 446.37 541.09 446.44 540.94 446.53 540.79 446.61 540.72 446.65 540.7 446.66 540.69 446.66 540.23 446.92 540.07 447.02 539.91 447.11 539.78 447.19 539.76 447.2 539.68 447.24 539.57 447.32 539.45 447.4 539.35 447.47 539.25 447.55 539.17 447.6 539.15 447.62 539.04 447.71 538.94 447.78 538.74 447.95 538.55 448.13 538.36 448.3 538.17 448.49 537.99 448.67 537.98 448.68 537.88 448.79 537.83 448.83 537.81 448.86 537.77 448.9 537.76 448.92 537.63 449.06 537.5 449.2 537.5 449.21 537.49 449.22 537.48 449.24 537.24 449.52 537.03 449.77 536.96 449.86 536.82 450.01 536.76 450.08 536.58 450.26 536.51 450.35 536.45 450.43 536.39 450.5 536.32 450.6 536.27 450.68 536.16 450.85 536.01 451.11 535.96 451.2 535.96 451.2 535.94 451.23 535.77 451.52 535.71 451.62 535.66 451.7 535.62 451.76 535.58 451.82 535.55 451.89 535.51 451.97 535.46 452.04 535.42 452.09 535.39 452.13 535.38 452.15 535.37 452.16 535.33 452.26 535.31 452.33 535.3 452.37 535.3 452.38 535.3 452.38 535.25 452.6 535.22 452.71 535.09 453.23 535.06 453.36 535.01 453.6 534.99 453.7 534.96 453.8 534.91 454.02 534.85 454.28 534.82 454.44 534.81 454.45 534.81 454.46 534.79 454.58 534.78 454.66 534.72 454.98 534.69 455.1 534.65 455.34 534.63 455.47 534.63 455.48 534.56 455.88 534.54 456.03 534.51 456.31 534.46 456.62 534.42 456.88 534.38 457.13 534.35 457.4 534.29 457.63 534.23 457.63 534.15 457.62 534.06 457.62 533.97 457.61 533.89 457.6 533.83 457.58 533.75 457.55 533.62 457.51 533.57 457.48 533.51 457.46 533.45 457.45 533.34 457.44 533.3 457.44 533.26 457.43 533.21 457.4 533.16 457.37 533.12 457.33 533.07 457.27 533.03 457.2 532.97 457.14 532.84 457.01 532.8 456.99 532.73 456.94 532.71 456.93 532.7 456.92 532.59 456.85 532.44 456.77 532.4 456.72 532.33 456.66 532.29 456.62 532.23 456.57 532.19 456.55 532.1 456.52 531.93 456.47 531.9 456.46 531.7 456.4 531.68 456.4 531.6 456.37 531.54 456.36 531.49 456.33 531.44 456.3 531.41 456.27 531.39 456.26 531.3 456.13 531.29 456.13 531.18 455.99 531.1 455.92 531.07 455.89 531.05 455.87 531.03 455.84 531.02 455.8 531.01 455.77 531 455.73 530.98 455.68 530.95 455.56 530.92 455.47 530.9 455.39 530.9 455.38 530.88 455.32 530.88 455.27 530.89 455.26 530.9 455.23 530.92 455.19 530.93 455.17 530.93 455.15 530.93 455.08 530.93 455.01 530.94 454.95 530.95 454.9 530.95 454.89 530.97 454.75 530.97 454.74 530.98 454.63 530.98 454.61 530.99 454.52 531.01 454.39 531.01 454.29 531.01 454.16 531.01 454.06 531.01 454.01 530.98 453.82 530.97 453.76 530.96 453.74 530.95 453.68 530.92 453.59 530.9 453.52 530.89 453.5 530.88 453.47 530.81 453.24 530.78 453.15 530.77 453.13 530.7 452.94 530.68 452.89 530.66 452.86 530.62 452.77 530.6 452.71 530.59 452.7 530.58 452.67 530.57 452.63 530.54 452.55 530.54 452.55 530.54 452.53 530.48 452.33 530.46 452.25 530.35 452.09 530.28 451.99 530.23 451.92 530.16 451.82 530.08 451.69 530 451.59 529.94 451.49 529.91 451.4 529.9 451.37 529.86 451.27 529.82 451.16 529.76 451.04 529.71 450.89 529.66 450.73 529.65 450.71 529.61 450.56 529.59 450.5 529.51 450.35 529.42 450.22 529.4 450.18 529.22 449.89 529.12 449.69 529.07 449.59 529.06 449.58 529.06 449.57 529.03 449.5 528.98 449.39 528.95 449.31 528.94 449.3 528.9 449.25 528.87 449.18 528.85 449.15 528.73 448.96 528.64 448.81 528.61 448.77 528.58 448.73 528.52 448.67 528.33 448.47 528.25 448.38 528.12 448.23 528.03 448.12 527.95 448.05 527.91 448.02 527.86 447.98 527.75 447.93 527.69 447.89 527.62 447.83 527.58 447.81 527.46 447.75 527.3 447.68 527.2 447.64 527.05 447.58 526.96 447.54 526.89 447.51 526.88 447.5 526.86 447.49 526.82 447.48 526.81 447.47 526.76 447.46 526.75 447.46 526.66 447.44 526.64 447.44 526.62 447.43 526.59 447.43 526.51 447.41 526.45 447.4 526.32 447.38 526.31 447.38 526.21 447.36 526.02 447.33 525.91 447.32 525.91 447.32 525.9 447.31 525.89 447.31 525.88 447.3 525.87 447.29 525.85 447.28 525.8 447.24 525.74 447.22 525.69 447.2 525.66 447.19 525.64 447.18 525.58 447.18 525.56 447.18 525.43 447.19 525.38 447.18 525.37 447.18 525.34 447.18 525.22 447.15 525.07 447.13 524.92 447.11 524.72 447.1 524.71 447.1 524.69 447.1 524.62 447.1 524.57 447.09 524.51 447.09 524.49 447.09 524.47 447.09 524.45 447.09 524.42 447.09 524.37 447.09 524.35 447.08 524.31 447.07 524.22 447.05 524.16 447.03 524.14 447.03 524.11 447.02 524.01 446.98 523.96 446.97 523.92 446.96 523.9 446.95 523.89 446.95 523.84 446.93 523.75 446.91 523.56 446.86 523.46 446.83 523.36 446.81 523.28 446.79 523.16 446.75 522.93 446.7 522.91 446.69 522.88 446.68 522.61 446.63 522.52 446.62 522.47 446.6 522.36 446.58 522.2 446.51 522.16 446.49 522.15 446.48 522.09 446.45 521.99 446.4 521.98 446.39 521.95 446.37 521.82 446.3 521.79 446.28 521.61 446.17 521.56 446.13 521.46 446.07 521.39 446.03 521.29 445.96 521.24 445.92 521.15 445.86 521.08 445.82 521.06 445.8 521.01 445.8 520.93 445.78 520.89 445.78 520.89 445.76 520.88 445.74 520.76 445.38 520.75 445.33 520.63 444.91 520.63 444.9 520.57 444.66 520.57 444.66 520.49 444.43 520.48 444.4 520.43 444.24 520.42 444.21 520.42 444.19 520.4 444.13 520.34 443.95 520.33 443.92 520.31 443.87 520.29 443.82 520.27 443.76 520.24 443.69 520.22 443.64 520.21 443.61 520.21 443.57 520.2 443.52 520.19 443.46 520.17 443.35 520.16 443.34 520.16 443.32 520.11 443.06 520.06 442.86 520.05 442.78 520.02 442.64 520.02 442.62 520.03 442.53 520.04 442.34 520.04 442.33 520.04 442.31 520.04 442.3 520.04 442.29 520.04 442.28 520.05 442.12 520.06 442.08 520.07 441.97 520.07 441.85 520.08 441.75 520.08 441.65 520.09 441.57 520.09 441.46 520.1 441.42 520.1 441.4 520.1 441.35 520.13 441.32 520.25 441.16 520.3 441.1 520.42 440.95 520.5 440.85 520.52 440.84 520.55 440.8 520.76 440.59 520.97 440.37 520.99 440.35 521.01 440.33 521.01 440.32 521.05 440.28 521.08 440.24 521.12 440.2 521.15 440.17 521.17 440.13 521.2 440.09 521.23 440.06 521.25 440.02 521.27 440 521.27 439.99 521.28 439.98 521.31 439.97 521.33 439.96 521.36 439.94 521.43 439.89 521.47 439.85 521.53 439.82 521.57 439.78 521.61 439.75 521.63 439.74 521.64 439.73 521.66 439.72 521.7 439.69 521.84 439.59 522.07 439.31 522.16 439.2 522.19 439.16 522.55 438.7 522.6 438.64 522.63 438.63 522.64 438.62 522.66 438.6 522.76 438.51 522.8 438.48 522.85 438.43 522.88 438.4 522.99 438.31 523.05 438.25 523.2 438.11 523.22 438.1 523.23 438.09 523.25 438.07 523.41 437.91 523.44 437.87 523.85 437.45 524.26 437.04 524.36 436.97 524.4 436.94 524.43 436.92 524.77 436.63 524.87 436.56 524.9 436.53 524.94 436.49 524.98 436.47 525 436.46 525.06 436.41 525.27 436.37 525.28 436.37 525.79 436.29 525.9 436.27 526.48 436.18 526.85 436.12 526.94 436.11 526.98 436.1 527.15 436.07 527.18 436.07 527.22 436.05 527.24 436.04 527.36 436 527.38 436 527.51 435.96 527.65 435.9 527.67 435.9 527.7 435.88 527.73 435.87 527.82 435.84 527.96 435.79 527.97 435.79 527.98 435.78 528.06 435.76 528.07 435.75 528.11 435.74 528.23 435.7 528.24 435.69 528.3 435.68 528.33 435.67 528.34 435.66 528.39 435.63 528.46 435.59 528.52 435.56 528.54 435.55 528.55 435.55 528.64 435.51 528.77 435.46 528.85 435.43 528.88 435.42 528.91 435.41 528.97 435.39 529.07 435.37 529.18 435.33 529.24 435.31 529.26 435.3 529.28 435.3 529.39 435.25 529.57 435.19 529.59 435.18 529.68 435.15 529.75 435.13 529.88 435.07 529.92 435.06 529.94 435.05 530.01 435.03 530.18 434.97 530.21 434.96 530.36 434.9 530.42 434.88 530.47 434.86 530.49 434.85 530.64 434.81 530.85 434.74 530.91 434.72 531.03 434.68 531.17 434.64 531.21 434.62 531.28 434.6 531.32 434.59 531.34 434.58 531.5 434.54 531.53 434.53 531.68 434.48 531.7 434.48 531.93 434.41 532 434.39 532.14 434.35 532.22 434.32 532.27 434.31 532.3 434.3 532.36 434.28 532.45 434.26 532.48 434.25 532.5 434.24 532.59 434.22 532.74 434.17 532.78 434.16 532.79 434.16 533 434.09 533.07 434.06 533.31 433.98 533.31 433.98 533.33 433.97 533.43 433.95 533.48 433.93 533.58 433.9 533.68 433.86 533.69 433.86 533.72 433.85 533.73 433.85 533.75 433.84 533.8 433.82 533.82 433.81 533.86 433.8 533.97 433.76 534.15 433.71 534.27 433.67 534.31 433.67 534.35 433.65 534.39 433.65 534.52 433.62 534.62 433.59 534.71 433.56 534.84 433.51 534.9 433.49 534.91 433.48 535.08 433.42 535.15 433.39 535.24 433.35 535.46 433.26 535.52 433.24 535.54 433.23 535.58 433.21 535.64 433.2 535.65 433.2 535.71 433.19 535.82 433.17 535.92 433.15 535.93 433.15 536.04 433.12 536.09 433.1 536.12 433.09 536.17 433.07 536.21 433.06 536.23 433.05 536.24 433.04 536.26 433.04 536.27 433.03 536.34 433.01 536.38 433 536.41 432.99 536.42 432.98 536.56 432.95 536.69 432.91 536.8 432.87 536.95 432.83 537.05 432.8 537.07 432.79 537.1 432.78 537.11 432.77 537.14 432.71 537.16 432.69 537.27 432.52 537.35 432.39 537.36 432.37 537.38 432.33 537.46 432.2 537.52 432.11 537.59 431.99 537.71 431.8 537.79 431.69 537.93 431.53 538.01 431.42 538.05 431.35 538.12 431.23 538.21 431.08 538.25 431.01 538.26 430.99 538.26 430.98 538.29 430.96 538.32 430.94 538.34 430.93 538.4 430.9 538.43 430.88 538.45 430.86 538.46 430.83 538.47 430.8 538.48 430.78 538.5 430.73 538.58 430.62 538.71 430.45 538.73 430.42 538.81 430.29 538.84 430.25 538.85 430.22 538.87 430.17 538.89 430.13 538.92 430.07 538.96 430.01 538.96 430 538.98 429.99 539.01 429.95 539.06 429.89 539.09 429.86 539.1 429.85 539.13 429.81 539.14 429.8 539.17 429.77 539.2 429.73 539.24 429.7 539.3 429.65 539.34 429.61 539.38 429.57 539.48 429.5 539.58 429.44 539.65 429.39 539.72 429.33 539.78 429.27 539.81 429.24 539.84 429.21 539.85 429.2 539.87 429.17 539.9 429.12 539.91 429.1 539.93 429.06 539.94 429.03 540 428.93 540.05 428.85 540.09 428.78 540.1 428.77 540.13 428.73 540.17 428.69 540.22 428.65 540.29 428.59 540.36 428.55 540.38 428.55 540.5 428.47 540.65 428.4 540.78 428.33 540.84 428.31 540.94 428.26 Z"/>
</g></svg>