<svg xmlns="http://www.w3.org/2000/svg" version="1.2" baseProfile="tiny" stroke-linecap="round" stroke-linejoin="round" viewBox="142.95 57.58 10.05 17.48"><g xmlns="http://www.w3.org/2000/svg" id="Plentzia">
<path d="M 144.93 58.76 145.15 58.89 145.2 59.13 145.28 59.36 145.32 59.46 145.37 59.69 145.38 59.99 145.38 60.02 145.38 60.08 145.37 60.11 145.36 60.12 145.36 60.13 145.35 60.15 145.33 60.19 145.3 60.24 145.27 60.3 145.13 60.53 145.09 60.59 145.01 60.74 145.1 60.78 145.23 60.83 145.39 60.9 145.24 61.39 145.17 61.39 145.04 61.43 144.93 61.48 145 61.54 145.15 61.85 145.23 61.9 145.37 61.92 145.52 61.92 145.53 61.93 145.66 62.2 145.67 62.21 145.87 62.33 145.59 62.56 145.53 62.61 145.41 62.71 145.24 62.85 145.52 63.27 145.65 63.48 145.91 63.9 146.5 64.83 146.8 65.28 146.85 65.36 146.9 65.46 147.09 65.75 147.12 65.8 147.37 66.22 147.36 66.31 147.43 66.32 147.47 66.33 147.8 66.39 147.85 66.42 147.87 66.45 147.88 66.46 147.89 66.47 147.9 66.48 147.91 66.49 147.91 66.51 147.92 66.52 147.93 66.53 147.94 66.55 147.95 66.56 147.96 66.58 147.98 66.6 147.99 66.63 148 66.65 148.02 66.67 148.03 66.69 148.04 66.72 148.06 66.75 148.07 66.78 148.08 66.8 148.1 66.83 148.11 66.86 148.13 66.89 148.15 66.92 148.17 66.95 148.18 66.99 148.2 67.02 148.22 67.05 148.24 67.08 148.26 67.1 148.27 67.12 148.29 67.15 148.31 67.17 148.33 67.19 148.34 67.21 148.35 67.22 148.36 67.24 148.38 67.25 148.39 67.27 148.4 67.28 148.42 67.3 148.43 67.31 148.44 67.33 148.46 67.34 148.47 67.36 148.48 67.37 148.5 67.38 148.5 67.39 148.64 67.52 149.15 67.83 149.16 67.83 149.17 67.83 149.17 67.84 149.18 67.84 149.19 67.84 149.2 67.84 149.21 67.84 149.22 67.84 149.23 67.84 149.24 67.84 149.24 67.84 149.25 67.84 149.26 67.84 149.28 67.83 149.29 67.83 149.3 67.83 149.31 67.82 149.32 67.82 149.34 67.81 149.37 67.8 149.39 67.78 149.41 67.77 149.42 67.76 149.65 67.6 149.77 67.46 149.88 67.33 150.18 66.93 150.33 66.66 150.34 66.65 150.35 66.63 150.35 66.61 150.36 66.6 150.37 66.58 150.37 66.56 150.38 66.54 150.39 66.52 150.39 66.51 150.4 66.49 150.41 66.47 150.42 66.45 150.42 66.43 150.43 66.4 150.45 66.37 150.46 66.34 150.47 66.31 150.48 66.28 150.49 66.25 150.5 66.24 150.5 66.22 150.51 66.2 150.51 66.18 150.51 66.16 150.52 66.14 150.52 66.12 150.53 66.11 150.53 66.09 150.53 66.07 150.53 66.06 150.54 66.04 150.54 66.03 150.54 66.01 150.54 66 150.54 65.98 150.54 65.97 150.54 65.95 150.54 65.94 150.53 65.92 150.5 65.72 150.5 65.71 150.5 65.69 150.5 65.68 150.5 65.67 150.51 65.66 150.51 65.64 150.51 65.63 150.52 65.62 150.52 65.61 150.52 65.6 150.53 65.58 150.54 65.57 150.55 65.56 150.55 65.54 150.56 65.53 150.57 65.51 150.58 65.5 150.59 65.48 150.59 65.46 150.66 65.36 150.75 65.28 150.78 65.27 150.79 65.26 150.8 65.26 150.81 65.25 150.81 65.24 150.82 65.24 150.83 65.23 150.84 65.22 150.84 65.22 150.85 65.21 150.86 65.2 150.89 65.17 150.89 65.16 150.89 65.15 150.9 65.15 150.91 65.13 150.94 65.09 150.95 65.08 150.96 65.06 150.99 65.01 151 65 151.01 64.98 151.04 64.94 151.06 64.91 151.08 64.88 151.09 64.85 151.11 64.84 151.13 64.79 151.15 64.76 151.16 64.76 151.18 64.72 151.19 64.71 151.21 64.7 151.24 64.66 151.25 64.65 151.26 64.64 151.3 64.61 151.3 64.6 151.31 64.59 151.33 64.58 151.68 64.31 151.8 64.28 151.8 64.23 151.53 63.76 151.39 63.58 151.17 63.17 151.08 62.96 150.83 62.43 150.77 62.31 150.66 62.16 150.32 61.91 149.67 61.53 149.37 61.31 149.37 61.3 149.36 61.3 149.35 61.29 149.35 61.28 149.34 61.28 149.33 61.27 149.32 61.26 149.32 61.25 149.31 61.24 149.3 61.23 149.29 61.23 149.28 61.22 149.27 61.22 149.27 61.21 149.26 61.21 149.25 61.21 149.25 61.2 149.24 61.2 149.23 61.19 149.19 61.17 149.18 61.15 149.14 61.11 149.1 61.07 149.06 61.05 148.95 61.03 148.93 61.03 148.88 61.01 148.87 61.01 148.86 61.01 148.85 61 148.84 61 148.83 61 148.82 61 148.81 61 148.8 61 148.79 61 148.78 61 148.75 60.94 148.74 60.93 148.74 60.92 148.73 60.91 148.72 60.9 148.72 60.89 148.71 60.87 148.7 60.86 148.69 60.84 148.68 60.82 148.68 60.8 148.67 60.78 148.67 60.77 148.66 60.76 148.66 60.75 148.65 60.74 148.65 60.73 148.64 60.71 148.64 60.7 148.64 60.69 148.64 60.68 148.64 60.67 148.63 60.66 148.65 60.61 148.65 60.6 148.66 60.59 148.67 60.58 148.68 60.57 148.69 60.57 148.7 60.56 148.71 60.56 148.72 60.55 148.73 60.55 148.74 60.56 148.74 60.56 148.79 60.56 148.8 60.56 148.81 60.56 148.82 60.55 148.84 60.55 148.86 60.54 148.87 60.54 148.87 60.53 148.88 60.53 148.89 60.52 148.89 60.52 148.9 60.51 148.91 60.5 148.92 60.49 148.93 60.48 148.93 60.47 148.94 60.47 148.95 60.46 148.96 60.45 148.97 60.44 148.97 60.43 148.98 60.43 148.99 60.42 149 60.41 149.01 60.4 149.02 60.39 149.03 60.38 149.04 60.37 149.05 60.36 149.06 60.35 149.06 60.35 149.07 60.34 149.07 60.34 149.08 60.33 149.09 60.33 149.1 60.33 149.11 60.32 149.12 60.32 149.13 60.32 149.14 60.32 149.14 60.32 149.16 60.32 149.17 60.32 149.18 60.32 149.19 60.33 149.2 60.33 149.21 60.33 149.22 60.34 149.23 60.34 149.24 60.34 149.25 60.35 149.26 60.35 149.27 60.35 149.28 60.36 149.29 60.36 149.3 60.36 149.31 60.36 149.32 60.37 149.33 60.37 149.34 60.37 149.38 60.37 149.42 60.17 149.62 59.61 150.16 59.81 150.36 59.89 150.76 59.75 150.97 59.52 151.18 59.16 151.51 59 152.12 58.67 151.73 58.09 151.91 57.66 152.55 57.61 152.57 57.7 152.75 57.96 152.79 58 152.83 58.05 152.83 58.09 152.82 58.11 152.81 58.13 152.81 58.19 152.82 58.26 152.87 58.36 152.94 58.57 152.93 58.58 152.99 59.15 152.96 59.2 152.94 59.25 152.89 59.33 152.86 59.39 152.83 59.43 152.82 59.46 152.81 59.49 152.8 59.55 152.78 59.67 152.77 59.78 152.74 59.91 152.74 59.97 152.73 60.05 152.75 60.11 152.81 60.3 152.84 60.36 152.86 60.43 152.92 60.55 152.94 60.61 152.96 60.68 152.98 61.2 153 61.19 153 61.23 153 61.24 152.99 61.33 152.97 61.5 152.93 61.98 152.84 62.06 152.78 62.16 152.73 62.52 152.73 62.88 152.85 63.11 152.92 63.72 152.9 64.05 152.86 64.21 152.66 64.77 152.53 64.98 152.64 65.27 152.73 65.6 152.73 65.63 152.74 65.65 152.74 65.67 152.75 65.69 152.75 65.71 152.76 65.73 152.76 65.75 152.76 65.77 152.77 65.79 152.77 65.8 152.77 65.82 152.77 65.84 152.77 65.86 152.77 65.87 152.77 65.89 152.77 65.91 152.77 65.93 152.77 65.95 152.76 65.97 152.76 65.99 152.75 66.01 152.75 66.03 152.74 66.04 152.74 66.06 152.73 66.08 152.73 66.1 152.72 66.13 152.71 66.15 152.7 66.17 152.7 66.19 152.69 66.21 152.68 66.23 152.68 66.25 152.67 66.28 152.66 66.3 152.66 66.32 152.65 66.35 152.64 66.37 152.64 66.4 152.63 66.42 152.62 66.45 152.61 66.47 152.61 66.5 152.6 66.52 152.6 66.55 152.59 66.57 152.59 66.59 152.59 66.62 152.58 66.63 152.58 66.65 152.58 66.67 152.58 66.68 152.57 66.7 152.57 66.72 152.57 66.73 152.57 66.75 152.57 66.76 152.56 66.78 152.56 66.79 152.56 66.81 152.55 66.83 152.55 66.86 152.55 66.88 152.54 66.9 152.54 66.92 152.54 66.94 152.53 66.96 152.53 66.97 152.53 66.98 152.52 66.99 152.52 67 152.52 67.01 152.51 67.03 152.5 67.04 152.5 67.06 152.49 67.08 152.49 67.09 152.48 67.11 152.48 67.11 152.48 67.12 152.47 67.13 152.47 67.14 152.47 67.15 152.46 67.15 152.32 67.36 152.19 67.56 152.11 67.71 152.06 67.91 151.99 67.89 151.97 67.85 151.95 67.87 151.94 67.89 151.93 67.9 151.92 67.92 151.91 67.94 151.89 67.95 151.88 67.97 151.87 67.98 151.86 67.99 151.85 68.01 151.85 68.02 151.84 68.04 151.83 68.05 151.82 68.07 151.8 68.09 151.79 68.11 151.78 68.13 151.77 68.16 151.76 68.17 151.75 68.19 151.74 68.21 151.74 68.23 151.73 68.24 151.72 68.26 151.71 68.28 151.71 68.29 151.71 68.3 151.7 68.31 151.7 68.33 151.69 68.34 151.69 68.35 151.68 68.36 151.68 68.38 151.67 68.39 151.67 68.4 151.67 68.41 151.66 68.42 151.66 68.43 151.66 68.45 151.65 68.46 151.65 68.47 151.65 68.49 151.64 68.5 151.64 68.51 151.64 68.53 151.63 68.54 151.63 68.57 151.62 68.6 151.62 68.62 151.61 68.65 151.61 68.68 151.61 68.7 151.6 68.75 151.59 68.8 151.58 68.84 151.58 68.89 151.57 68.93 151.56 68.98 151.55 69.02 151.55 69.06 151.54 69.1 151.53 69.13 151.53 69.17 151.52 69.21 151.51 69.24 151.51 69.28 151.5 69.31 151.49 69.34 151.49 69.37 151.48 69.4 151.47 69.43 151.46 69.45 151.46 69.48 151.45 69.51 151.44 69.53 151.44 69.56 151.43 69.57 151.43 69.59 151.43 69.6 151.42 69.61 151.42 69.62 151.41 69.64 151.41 69.65 151.41 69.65 151.4 69.66 151.4 69.67 151.4 69.68 151.39 69.69 151.39 69.7 151.38 69.71 151.38 69.72 151.38 69.73 151.37 69.74 151.37 69.75 151.36 69.76 151.36 69.76 151.35 69.77 151.35 69.78 151.34 69.79 151.33 69.79 151.33 69.8 151.32 69.81 151.32 69.82 151.31 69.82 151.3 69.83 151.3 69.84 151.29 69.84 151.29 69.85 151.28 69.85 151.27 69.86 151.27 69.86 151.26 69.87 151.25 69.87 151.24 69.88 151.22 69.89 151.21 69.9 151.2 69.9 151.19 69.91 151.18 69.91 151.17 69.92 151.16 69.92 151.15 69.93 151.14 69.93 151.13 69.94 151.12 69.94 150.8 70.08 150.79 70.08 150.77 70.09 150.75 70.1 150.74 70.11 150.73 70.12 150.72 70.12 150.71 70.13 150.7 70.14 150.69 70.15 150.68 70.16 150.68 70.17 150.67 70.18 150.66 70.2 150.65 70.21 150.65 70.22 150.64 70.24 150.63 70.25 150.63 70.27 150.62 70.28 150.62 70.3 150.61 70.31 150.61 70.33 150.61 70.34 150.6 70.36 150.6 70.37 150.6 70.39 150.6 70.41 150.6 70.42 150.6 70.43 150.59 70.44 150.59 70.45 150.61 70.57 150.74 70.74 149.62 71.53 149.46 71.29 149.11 72.06 148.78 73.25 148.62 73.51 148.79 73.8 147.77 74.44 147.67 74.55 147.4 74.87 147.13 74.84 147.11 74.84 146.92 74.84 146.76 75.06 146.51 75 146.34 74.96 146.28 74.88 146.17 74.65 146.11 74.55 146.1 74.44 145.99 74.26 145.98 74.2 146.01 73.89 146.13 73.56 146.17 73.5 146.23 73.41 146.25 73.39 146.31 73.29 146.34 73.24 146.37 73.19 146.38 73.1 146.39 73.02 146.3 72.82 146.09 72.61 146.06 72.56 146.03 72.53 145.98 72.5 145.93 72.49 145.88 72.51 145.84 72.52 145.73 72.4 145.69 72.37 145.64 72.35 145.59 72.34 145.49 72.32 145.43 72.3 145.33 72.25 145.28 72.23 145.22 72.22 145.21 72.18 145.19 72.13 145.16 72.07 145.15 72.02 145.14 71.97 145.14 71.91 145.11 71.84 144.92 71.66 144.83 71.6 144.82 71.54 144.79 71.46 144.75 71.44 144.52 71.31 144.5 71.27 144.48 71.24 144.5 71.23 144.53 71.11 144.51 71.07 144.52 71.03 144.59 70.96 144.62 70.91 144.66 70.8 144.68 70.74 144.69 70.69 144.66 70.62 144.64 70.58 144.52 70.44 144.49 70.39 144.41 70.3 144.38 70.26 144.36 70.21 144.35 70.16 144.34 70.1 144.33 69.91 144.34 69.75 144.37 69.67 144.44 69.51 144.51 69.37 144.57 69.19 144.63 68.97 144.69 68.82 144.71 68.76 144.72 68.71 144.74 68.5 144.77 68.45 144.81 68.4 144.85 68.37 144.89 68.35 144.94 68.32 145.01 68.12 145.05 68.04 145.08 68.04 145.19 67.98 145.23 67.93 145.27 67.89 145.33 67.8 145.36 67.69 145.42 67.61 145.5 67.45 145.58 67.31 145.48 67.16 145.54 66.98 145.75 66.73 146.16 66.5 145.99 66.1 145.99 66.09 145.92 65.7 145.97 65.34 145.96 65.28 145.91 65.04 144.85 64.68 144.37 64.52 144.13 64.58 143.89 64.54 143.55 64.56 143.6 64.5 143.61 64.41 143.58 64.29 143.55 64.07 143.5 63.98 143.32 63.84 143.17 63.77 142.98 63.73 143.53 62.51 143.6 62.34 143.37 62.22 143.23 62.11 143.13 61.99 143.05 61.83 143.03 61.73 143.06 61.57 143.13 61.41 143.2 61.32 143.29 61.25 144.42 60.57 144.48 60.54 144.52 60.5 144.56 60.44 144.58 60.4 144.59 60.36 144.6 60.3 144.59 60.24 144.58 60.19 144.56 60.15 144.46 60.03 144.17 59.82 144.11 59.77 144.07 59.74 143.95 59.65 143.9 59.6 143.82 59.52 143.71 59.39 143.4 59.26 143.49 59.17 143.54 59.12 143.56 59.09 143.58 59.1 143.62 59.13 143.64 59.15 143.7 59.16 143.75 59.15 143.76 59.14 143.77 59.14 143.78 59.14 143.79 59.14 143.81 59.16 143.82 59.17 143.82 59.17 143.83 59.2 143.84 59.23 143.84 59.25 143.85 59.26 143.86 59.28 143.88 59.32 143.91 59.36 143.93 59.39 143.94 59.4 143.94 59.41 143.96 59.41 143.99 59.41 144.02 59.41 144.06 59.4 144.09 59.39 144.09 59.39 144.12 59.39 144.15 59.38 144.19 59.36 144.23 59.35 144.26 59.34 144.32 59.32 144.34 59.31 144.38 59.29 144.42 59.26 144.44 59.25 144.48 59.22 144.52 59.19 144.57 59.16 144.6 59.14 144.63 59.13 144.71 59.05 144.78 58.97 144.81 58.94 144.84 58.92 144.85 58.9 144.88 58.85 144.92 58.78 144.93 58.76 Z"/>
</g></svg>