<svg xmlns="http://www.w3.org/2000/svg" version="1.2" baseProfile="tiny" stroke-linecap="round" stroke-linejoin="round" viewBox="503.27 376.02 24.03 20.53"><g xmlns="http://www.w3.org/2000/svg" id="Puiu">
<path d="M 519.5 376.04 519.62 376.06 519.63 376.06 519.64 376.06 519.74 376.07 519.88 376.08 519.99 376.08 520.04 376.08 520.03 376.09 519.96 376.16 519.93 376.19 519.89 376.23 519.87 376.24 519.86 376.25 519.85 376.27 519.78 376.35 519.63 376.54 519.49 376.7 519.44 376.76 519.25 377.14 519.16 377.44 519.14 377.56 519.13 377.67 519.13 377.68 519.11 377.77 519.08 378.05 519.07 378.17 519.06 378.19 519.06 378.22 519.04 378.38 519.02 378.59 519.05 378.7 519.07 378.76 519.09 378.82 519.14 378.97 519.21 379.2 519.24 379.3 519.25 379.33 519.34 379.65 519.42 379.95 519.5 380.02 519.55 380.02 519.58 380.02 519.73 380.06 519.95 380.13 519.99 380.14 520.21 380.21 520.21 380.21 520.55 380.35 520.56 380.36 520.69 380.41 520.7 380.41 520.76 380.43 520.77 380.44 521.03 380.54 521.28 380.64 521.29 380.64 521.36 380.67 521.38 380.68 521.46 380.72 521.66 380.8 521.68 380.82 522.03 380.97 522.04 380.97 522.05 380.98 522.32 381.09 522.34 381.1 522.43 381.17 522.44 381.19 522.45 381.19 522.62 381.33 522.67 381.37 522.69 381.38 522.76 381.44 522.79 381.47 522.91 381.56 522.95 381.59 522.97 381.6 522.99 381.61 523.04 381.6 523.08 381.58 523.08 381.58 523.28 381.52 523.46 381.46 523.55 381.44 523.78 381.47 523.9 381.49 524.06 381.51 524.1 381.52 524.25 381.46 524.7 381.32 524.71 381.31 524.71 381.31 524.72 381.3 524.81 381.17 524.87 381.1 524.88 381.09 524.92 381.05 524.97 380.97 525.08 380.85 525.51 380.38 525.65 380.4 526.18 380.49 526.31 380.51 526.34 380.55 526.35 380.56 526.39 380.61 526.55 380.79 526.56 380.8 526.75 381.02 526.88 381.15 526.88 381.16 526.94 381.22 526.95 381.23 527.11 381.43 527.13 381.45 527.14 381.46 527.16 381.53 527.18 381.54 527.22 381.56 527.24 381.57 527.26 381.59 527.3 381.63 527.16 381.83 527.09 381.93 527.01 382.02 526.94 382.11 526.93 382.11 526.81 382.25 526.77 382.31 526.73 382.35 526.64 382.46 526.59 382.51 526.57 382.59 526.5 382.7 526.4 382.9 526.39 382.91 526.34 382.99 526.34 383 526.3 383.06 526.27 383.12 526.26 383.13 526.26 383.13 526.22 383.19 526.22 383.2 526.18 383.25 526.1 383.36 526.03 383.45 526.02 383.47 525.88 383.69 525.73 383.91 525.73 383.92 525.69 383.97 525.65 384.04 525.62 384.09 525.55 384.18 525.5 384.25 525.49 384.26 525.31 384.5 525.29 384.52 525.09 384.78 524.9 384.98 524.72 385.18 524.7 385.19 524.66 385.24 524.63 385.28 524.5 385.41 524.41 385.5 524.3 385.64 524.18 385.8 524.09 385.85 523.96 386.11 523.92 386.23 523.95 386.35 523.96 386.37 523.96 386.38 523.96 386.4 523.97 386.41 523.97 386.43 524.03 386.48 524.18 386.62 524.2 386.64 524.27 386.67 524.37 386.71 524.46 386.75 524.49 386.78 524.57 386.82 524.6 386.83 524.66 386.87 524.67 386.88 524.87 387.01 525.06 387.3 524.96 387.53 524.84 387.8 524.76 387.97 524.75 388.01 524.68 388.23 524.57 388.58 524.36 388.93 524.23 389.04 524.22 389.04 524.01 389.22 523.99 389.24 523.89 389.26 523.85 389.27 523.83 389.28 523.75 389.3 523.55 389.62 523.51 389.69 523.48 389.81 523.48 389.83 523.48 389.85 523.46 389.97 523.43 390.08 523.43 390.1 523.43 390.11 523.4 390.23 523.4 390.24 523.39 390.29 523.4 390.31 523.38 390.38 523.37 390.58 523.36 390.74 523.35 390.76 523.33 391.03 523.32 391.19 523.32 391.23 523.31 391.27 523.33 391.47 523.33 391.48 523.34 391.53 523.34 391.54 523.34 391.59 523.35 391.7 523.36 391.76 523.37 391.85 523.39 391.99 523.39 392.02 523.39 392.06 523.4 392.14 523.41 392.22 523.41 392.27 523.41 392.31 523.42 392.41 523.43 392.46 523.43 392.5 523.43 392.52 523.44 392.57 523.46 392.67 523.47 392.69 523.49 392.81 523.6 393.43 523.71 393.74 523.87 394.02 523.9 394.08 523.96 394.26 524.01 394.39 524.05 394.52 524.09 394.64 524.14 394.78 524.15 394.8 524.17 394.87 524.18 394.9 524.19 394.94 524.21 395.03 524.21 395.09 524.22 395.15 524.27 395.37 524.28 395.47 524.28 395.48 524.28 395.5 524.28 395.52 524.29 395.53 524.29 395.54 524.32 395.82 524.34 396.02 524.34 396.05 524.35 396.13 524.33 396.16 524.33 396.17 524.32 396.18 524.27 396.25 524.23 396.32 524.19 396.36 524.16 396.41 524.13 396.45 524.12 396.48 524.09 396.54 524.08 396.54 523.96 396.48 523.9 396.45 523.83 396.41 523.81 396.4 523.8 396.4 523.45 396.22 523.38 396.18 523.36 396.17 523.34 396.16 523.33 396.15 523.32 396.13 523.31 396.12 523.3 396.11 523.29 396.1 523.28 396.08 523.26 396.07 523.25 396.06 523.23 396.04 523.22 396.03 523.2 396.02 523.2 396.02 523.18 396 523.17 395.99 523.15 395.98 523.14 395.97 523.12 395.96 523.11 395.95 523.1 395.94 523.08 395.93 523.07 395.91 523.06 395.9 523.05 395.89 523.04 395.88 523.03 395.87 523.02 395.86 523.01 395.85 522.94 395.76 522.68 395.43 522.37 395.42 522.3 395.44 522.27 395.45 521.91 395.53 521.71 395.48 521.69 395.48 521.67 395.47 521.66 395.47 521.64 395.47 521.63 395.46 521.61 395.46 521.59 395.46 521.58 395.45 521.56 395.45 521.54 395.45 521.52 395.44 521.47 395.43 521.33 395.4 521.21 395.32 521.2 395.31 521.03 395.2 520.99 395.17 520.99 395.17 520.97 395.16 520.96 395.15 520.95 395.14 520.94 395.13 520.92 395.11 520.9 395.1 520.89 395.09 520.88 395.08 520.86 395.07 520.85 395.06 520.84 395.05 520.82 395.04 520.81 395.03 520.8 395.02 520.77 395 520.75 394.98 520.74 394.97 520.72 394.96 520.71 394.95 520.69 394.94 520.65 394.9 520.63 394.88 520.59 394.85 520.57 394.84 520.55 394.83 520.54 394.81 520.5 394.78 520.48 394.77 520.47 394.76 520.46 394.75 520.44 394.74 520.43 394.73 520.42 394.72 520.41 394.71 520.39 394.7 520.38 394.69 520.37 394.68 520.35 394.67 520.33 394.67 520.32 394.66 520.3 394.65 520.27 394.62 520.26 394.62 520.25 394.61 520.2 394.58 520.19 394.58 520.16 394.56 520.14 394.55 520.13 394.54 520.1 394.52 520.08 394.52 520.07 394.51 520.05 394.5 520.04 394.49 520.02 394.48 520 394.47 519.97 394.45 519.96 394.44 519.94 394.43 519.93 394.42 519.91 394.41 519.9 394.4 519.87 394.38 519.84 394.35 519.81 394.33 519.77 394.3 519.66 394.22 519.58 394.17 519.56 394.17 519.47 394.11 519.39 394.06 519.26 393.99 519.03 394 518.97 393.98 518.83 393.94 518.58 393.86 518.31 393.75 518.2 393.71 518.14 393.68 518.13 393.68 517.84 393.51 517.82 393.5 517.8 393.49 517.76 393.47 517.72 393.44 517.66 393.45 517.53 393.46 517.31 393.47 517.26 393.48 517.23 393.48 516.89 393.5 516.81 393.5 516.78 393.49 516.74 393.48 516.71 393.47 516.68 393.46 516.66 393.46 516.65 393.46 516.62 393.45 516.61 393.44 516.59 393.44 516.57 393.43 516.51 393.41 516.49 393.41 516.47 393.4 516.46 393.4 516.45 393.39 516.33 393.36 516.18 393.31 516.05 393.3 516 393.3 515.88 393.29 515.55 393.14 515.53 393.14 515.5 393.15 515.39 393.17 515.26 393.2 515.14 393.21 514.97 393.24 514.81 393.27 514.79 393.27 514.75 393.27 514.72 393.27 514.7 393.26 514.67 393.26 514.65 393.26 514.63 393.25 514.59 393.24 514.57 393.24 514.55 393.24 514.44 393.22 514.41 393.21 514.34 393.21 513.79 393.12 513.78 393.12 513.77 393.12 513.76 393.11 513.74 393.11 513.72 393.11 513.7 393.11 513.68 393.11 513.66 393.11 513.65 393.12 513.63 393.12 513.61 393.12 513.59 393.13 513.58 393.13 513.56 393.13 513.52 393.14 513.44 393.15 513.42 393.15 513.39 393.16 513.37 393.16 513.33 393.16 513.3 393.17 513.27 393.17 513.25 393.17 513.23 393.17 513.22 393.17 513.19 393.16 513.18 393.16 513.16 393.16 513.15 393.15 513.13 393.15 513.11 393.14 513.08 393.13 513.06 393.13 513.04 393.12 513.02 393.12 513.01 393.11 512.99 393.11 512.97 393.11 512.94 393.1 512.92 393.09 512.89 393.08 512.87 393.08 512.86 393.07 512.84 393.07 512.82 393.07 512.78 393.05 512.76 393.05 512.74 393.04 512.73 393.04 512.71 393.03 512.7 393.03 512.68 393.02 512.57 392.99 512.54 392.98 512.53 392.98 512.52 392.97 512.5 392.96 512.48 392.95 512.47 392.94 512.46 392.93 512.44 392.91 512.43 392.9 512.42 392.89 512.28 392.76 512.26 392.74 512.02 392.51 511.98 392.45 511.87 392.37 511.78 392.28 511.67 392.19 511.59 392.1 511.57 392.07 511.51 391.97 511.47 391.9 511.43 391.86 511.37 391.79 511.31 391.74 511.21 391.65 511.19 391.65 511.16 391.61 511.14 391.58 511.11 391.56 511.1 391.55 511.09 391.53 511.06 391.5 511.05 391.49 511.04 391.48 511.03 391.47 511.02 391.44 510.99 391.39 510.97 391.36 510.92 391.27 510.91 391.26 510.86 391.19 510.84 391.16 510.82 391.13 510.81 391.11 510.79 391.08 510.78 391.07 510.77 391.05 510.76 391.04 510.75 391.02 510.72 390.98 510.71 390.97 510.69 390.94 510.68 390.92 510.67 390.91 510.66 390.89 510.64 390.86 510.63 390.85 510.62 390.84 510.61 390.82 510.6 390.8 510.59 390.78 510.59 390.77 510.59 390.76 510.58 390.74 510.57 390.71 510.56 390.69 510.56 390.68 510.55 390.66 510.55 390.64 510.54 390.63 510.54 390.61 510.53 390.59 510.53 390.58 510.52 390.56 510.52 390.54 510.52 390.53 510.52 390.51 510.52 390.49 510.52 390.48 510.52 390.47 510.51 390.43 510.51 390.41 510.51 390.41 510.51 390.39 510.5 390.37 510.5 390.35 510.5 390.34 510.49 390.28 510.48 390.2 510.48 390.15 510.47 390.13 510.47 390.1 510.47 390.04 510.47 390 510.47 389.96 510.47 389.9 510.47 389.87 510.47 389.85 510.47 389.83 510.48 389.81 510.48 389.77 510.48 389.74 510.47 389.71 510.47 389.69 510.47 389.68 510.47 389.66 510.46 389.64 510.45 389.61 510.45 389.59 510.44 389.58 510.44 389.56 510.44 389.55 510.44 389.53 510.44 389.48 510.44 389.45 510.44 389.42 510.44 389.41 510.44 389.39 510.44 389.37 510.44 389.34 510.44 389.32 510.43 389.3 510.43 389.28 510.43 389.26 510.43 389.23 510.43 389.22 510.42 389.2 510.41 389.18 510.41 389.17 510.4 389.15 510.38 389.13 510.35 389.1 510.34 389.08 510.33 389.08 510.32 389.07 510.3 389.04 510.28 389.03 510.27 389.02 510.26 389 510.24 388.97 510.23 388.96 510.23 388.95 510.22 388.92 510.21 388.9 510.2 388.87 510.19 388.85 510.18 388.83 510.18 388.81 510.18 388.8 510.18 388.79 510.18 388.77 510.18 388.76 510.18 388.73 510.18 388.72 510.18 388.7 510.18 388.69 510.19 388.66 510.19 388.64 510.18 388.62 510.18 388.6 510.18 388.58 510.18 388.56 510.18 388.55 510.17 388.51 510.17 388.48 510.16 388.45 510.16 388.43 510.16 388.42 510.15 388.4 510.15 388.38 510.16 388.36 510.16 388.33 510.15 388.26 510.15 388.22 510.15 388.2 510.15 388.18 510.15 388.14 510.15 388.11 510.15 388.09 510.15 388.07 510.16 388.05 510.16 388.03 510.16 388.01 510.15 388 510.15 387.97 510.15 387.93 510.15 387.91 510.14 387.89 510.14 387.87 510.15 387.85 510.15 387.82 510.15 387.8 510.14 387.78 510.14 387.75 510.14 387.73 510.14 387.72 510.14 387.71 510.13 387.7 510.13 387.68 510.12 387.66 510.11 387.64 510.1 387.62 510.09 387.61 510.08 387.58 510.06 387.54 510.04 387.5 510.02 387.47 510 387.44 509.98 387.42 509.94 387.36 509.92 387.34 509.91 387.33 509.9 387.32 509.9 387.31 509.86 387.25 509.85 387.24 509.83 387.23 509.82 387.22 509.8 387.2 509.79 387.19 509.79 387.19 509.78 387.17 509.77 387.17 509.76 387.15 509.75 387.13 509.74 387.12 509.73 387.09 509.72 387.07 509.71 387.05 509.7 387.03 509.69 387.01 509.68 387 509.68 386.99 509.67 386.97 509.66 386.96 509.66 386.94 509.65 386.92 509.64 386.91 509.63 386.88 509.62 386.86 509.61 386.85 509.61 386.83 509.6 386.82 509.59 386.8 509.59 386.79 509.59 386.78 509.58 386.76 509.58 386.73 509.58 386.71 509.58 386.7 509.57 386.68 509.57 386.67 509.57 386.65 509.58 386.63 509.58 386.61 509.58 386.59 509.58 386.58 509.58 386.54 509.58 386.52 509.58 386.51 509.58 386.49 509.58 386.47 509.58 386.45 509.58 386.43 509.59 386.42 509.59 386.39 509.59 386.38 509.59 386.36 509.59 386.34 509.59 386.31 509.58 386.28 509.59 386.26 509.6 386.23 509.6 386.17 509.6 386.13 509.6 386.07 509.6 386.03 509.6 386 509.6 385.96 509.6 385.92 509.6 385.89 509.59 385.86 509.59 385.83 509.59 385.79 509.59 385.77 509.59 385.76 509.59 385.72 509.59 385.65 509.59 385.6 509.59 385.57 509.6 385.53 509.6 385.49 509.6 385.48 509.58 385.42 509.57 385.42 509.56 385.42 509.29 385.44 508.85 385.58 508.75 385.6 508.71 385.61 508.45 385.69 508.08 385.73 508.07 385.73 507.89 385.76 507.86 385.75 507.85 385.74 507.84 385.73 507.82 385.72 507.81 385.71 507.8 385.7 507.75 385.65 507.71 385.62 507.68 385.59 507.62 385.52 507.56 385.44 507.55 385.41 507.53 385.39 507.53 385.38 507.44 385.32 507.44 385.32 507.4 385.28 507.21 385.11 507.19 385.11 507.17 385.1 507.08 385.04 507.03 385.01 507.01 385 506.89 384.95 506.84 384.93 506.81 384.92 506.8 384.92 506.7 384.91 506.6 384.89 506.5 384.89 506.34 384.84 506.15 384.78 506.08 384.78 505.97 384.79 505.94 384.8 505.9 384.81 505.83 384.81 505.74 384.8 505.72 384.8 505.7 384.79 505.69 384.79 505.68 384.79 505.66 384.79 505.64 384.78 505.62 384.78 505.61 384.78 505.57 384.77 505.56 384.77 505.55 384.77 505.33 384.75 505.31 384.75 505.22 384.75 505.17 384.75 505.15 384.74 505.15 384.73 505.14 384.72 505.13 384.71 505.12 384.69 505.12 384.68 505.11 384.67 505.1 384.66 505.09 384.65 505.01 384.54 504.95 384.46 504.91 384.42 504.91 384.42 504.89 384.4 504.89 384.38 504.88 384.37 504.87 384.36 504.86 384.35 504.85 384.33 504.84 384.33 504.83 384.31 504.82 384.29 504.81 384.28 504.8 384.27 504.78 384.25 504.73 384.19 504.69 384.14 504.69 384.13 504.55 383.96 504.54 383.95 504.54 383.93 504.51 383.89 504.44 383.77 504.43 383.76 504.43 383.75 504.42 383.73 504.42 383.71 504.42 383.7 504.42 383.69 504.42 383.66 504.41 383.65 504.41 383.63 504.41 383.61 504.41 383.59 504.41 383.57 504.4 383.55 504.4 383.54 504.39 383.52 504.35 383.48 504.26 383.41 504.18 383.35 504.11 383.3 504.08 383.28 504.06 383.28 504.03 383.28 503.96 383.28 503.89 383.29 503.81 383.31 503.76 383.32 503.71 383.33 503.68 383.33 503.63 383.33 503.61 383.32 503.56 383.33 503.53 383.33 503.51 383.33 503.5 383.33 503.48 383.34 503.3 383.29 503.32 383.12 503.33 383.08 503.33 383.06 503.34 383.02 503.34 382.99 503.35 382.88 503.36 382.86 503.36 382.85 503.36 382.81 503.37 382.8 503.37 382.76 503.39 382.66 503.39 382.64 503.4 382.55 503.42 382.41 503.43 382.38 503.43 382.37 503.43 382.34 503.44 382.31 503.52 382.26 503.64 382.18 503.66 382.08 503.7 381.97 503.71 381.86 503.71 381.81 503.71 381.78 503.73 381.68 503.73 381.67 503.73 381.66 503.75 381.59 503.75 381.58 503.77 381.46 503.77 381.43 503.78 381.3 503.78 381.28 503.78 381.19 503.78 380.98 503.78 380.95 503.78 380.94 503.78 380.89 503.78 380.85 503.78 380.84 503.78 380.79 503.79 380.69 503.82 380.36 503.82 380.35 503.83 380.33 503.84 380.31 503.85 380.29 503.88 380.25 503.89 380.24 503.9 380.23 503.91 380.19 503.94 380.16 503.95 380.13 503.96 380.12 503.96 380.1 503.97 380.09 503.97 380.07 503.99 380.03 504 379.99 504.02 379.99 504.04 380 504.05 380 504.07 380 504.09 380 504.11 380.01 504.12 380.01 504.15 380.01 504.19 380.02 504.21 380.02 504.23 380.03 504.24 380.03 504.27 380.03 504.28 380.04 504.3 380.04 504.33 380.05 504.34 380.05 504.36 380.05 504.38 380.06 504.39 380.07 504.41 380.07 504.42 380.08 504.44 380.08 504.44 380.09 504.46 380.09 504.48 380.1 504.49 380.1 504.51 380.1 504.52 380.11 504.54 380.11 504.55 380.12 504.56 380.12 504.58 380.13 504.6 380.13 504.61 380.14 504.63 380.14 504.65 380.14 504.67 380.15 504.69 380.15 504.71 380.15 504.73 380.16 504.75 380.16 504.76 380.17 504.78 380.17 504.79 380.18 504.81 380.19 504.83 380.2 504.85 380.21 504.85 380.21 504.87 380.22 504.89 380.22 504.9 380.22 504.93 380.22 504.94 380.22 504.96 380.22 504.97 380.21 504.98 380.21 504.99 380.21 505.01 380.21 505.03 380.21 505.04 380.21 505.06 380.2 505.07 380.2 505.08 380.2 505.11 380.19 505.12 380.19 505.14 380.18 505.16 380.17 505.17 380.17 505.19 380.17 505.21 380.16 505.23 380.16 505.27 380.15 505.28 380.15 505.33 380.14 505.36 380.13 505.38 380.12 505.39 380.12 505.43 380.11 505.45 380.1 505.49 380.1 505.5 380.09 505.51 380.09 505.53 380.09 505.55 380.08 505.56 380.08 505.58 380.07 505.6 380.07 505.61 380.07 505.63 380.06 505.65 380.06 505.67 380.05 505.68 380.05 505.7 380.04 505.72 380.04 505.74 380.04 505.75 380.04 505.77 380.04 505.79 380.03 505.8 380.03 505.84 380.03 505.86 380.03 505.88 380.03 505.9 380.03 505.92 380.02 505.96 380.02 505.99 380.02 506.01 380.02 506.04 380.01 506.06 380.01 506.1 380.01 506.12 380.01 506.13 380.01 506.15 380.01 506.18 380 506.2 380 506.21 380 506.23 380 506.25 380 506.26 380 506.28 379.99 506.31 379.99 506.33 379.99 506.35 379.99 506.38 379.98 506.4 379.98 506.41 379.98 506.43 379.98 506.45 379.98 506.47 379.98 506.48 379.98 506.5 379.98 506.52 379.97 506.53 379.97 506.54 379.97 506.56 379.97 506.57 379.97 506.58 379.97 506.6 379.97 506.62 379.97 506.63 379.96 506.65 379.96 506.67 379.96 506.7 379.92 506.71 379.91 506.72 379.9 506.73 379.89 506.74 379.87 506.75 379.86 506.77 379.85 506.78 379.84 506.8 379.83 506.81 379.82 506.82 379.81 506.84 379.8 506.85 379.79 506.86 379.78 506.88 379.76 506.9 379.74 506.91 379.73 506.93 379.72 506.94 379.7 506.95 379.69 506.97 379.67 506.98 379.66 506.99 379.65 507 379.63 507.02 379.61 507.03 379.6 507.05 379.59 507.05 379.58 507.07 379.57 507.08 379.56 507.1 379.54 507.13 379.52 507.14 379.51 507.15 379.5 507.17 379.49 507.18 379.48 507.22 379.45 507.23 379.44 507.24 379.43 507.26 379.42 507.27 379.41 507.31 379.39 507.32 379.38 507.33 379.37 507.34 379.36 507.36 379.35 507.38 379.34 507.41 379.32 507.42 379.32 507.46 379.29 507.48 379.29 507.49 379.28 507.51 379.27 507.52 379.26 507.56 379.22 507.61 379.16 507.63 379.14 507.66 379.12 507.68 379.1 507.69 379.09 507.7 379.08 507.71 379.07 507.73 379.06 507.74 379.06 507.74 379.05 507.86 378.99 507.9 378.97 507.92 378.97 507.95 378.95 507.96 378.94 507.97 378.93 507.98 378.92 508 378.91 508.03 378.89 508.06 378.87 508.07 378.86 508.13 378.82 508.21 378.77 508.27 378.72 508.34 378.66 508.41 378.61 508.43 378.6 508.44 378.59 508.47 378.57 508.48 378.56 508.5 378.55 508.52 378.54 508.54 378.53 508.55 378.52 508.56 378.51 508.58 378.5 508.59 378.49 508.61 378.47 508.66 378.45 508.71 378.41 508.93 378.27 509.01 378.21 509.18 378.13 509.2 378.12 509.21 378.11 509.23 378.1 509.24 378.1 509.77 377.85 509.78 377.84 509.79 377.84 509.85 377.81 509.87 377.8 509.91 377.78 509.92 377.77 509.96 377.74 510 377.72 510 377.71 510.33 377.46 510.34 377.45 510.44 377.38 510.44 377.37 510.46 377.36 510.51 377.35 510.56 377.33 510.64 377.32 510.65 377.32 510.69 377.31 510.78 377.28 511.02 377.2 511.06 377.19 511.65 376.99 511.74 376.96 511.75 376.96 511.82 376.95 511.84 376.95 511.85 376.94 511.87 376.94 511.89 376.94 511.9 376.94 511.91 376.94 511.93 376.94 511.95 376.95 511.96 376.95 511.98 376.96 512 376.96 512.01 376.97 512.02 376.98 512.41 377.01 512.67 377.02 512.71 377.03 512.72 377.03 512.78 377.04 512.8 377.04 513.09 377.07 513.37 377.1 513.41 377.1 513.64 377.13 513.82 377.11 514.08 377.07 514.08 377.06 514.1 377.06 514.12 377.06 514.14 377.06 514.15 377.06 514.17 377.06 514.18 377.06 514.19 377.06 514.21 377.06 514.22 377.06 514.23 377.05 514.24 377.05 514.25 377.05 514.27 377.05 514.29 377.04 514.3 377.04 514.32 377.04 514.34 377.03 514.36 377.03 514.4 377.02 514.41 377.02 514.43 377.02 514.45 377.01 514.46 377.01 514.48 377.01 514.5 377 514.52 377 514.55 376.99 514.57 376.99 514.59 376.98 514.6 376.98 514.61 376.98 514.63 376.97 514.65 376.96 514.67 376.96 514.68 376.96 514.72 376.95 514.75 376.94 514.77 376.93 514.79 376.93 514.8 376.92 514.82 376.92 514.86 376.91 514.88 376.9 514.9 376.9 514.91 376.9 514.92 376.9 514.94 376.9 514.96 376.9 514.98 376.9 515 376.9 515.02 376.9 515.05 376.9 515.07 376.9 515.09 376.9 515.11 376.9 515.13 376.9 515.14 376.9 515.16 376.9 515.17 376.9 515.18 376.9 515.2 376.9 515.23 376.9 515.24 376.9 515.26 376.9 515.28 376.9 515.29 376.9 515.31 376.9 515.33 376.9 515.35 376.9 515.37 376.9 515.38 376.9 515.4 376.89 515.42 376.89 515.43 376.89 515.45 376.89 515.47 376.89 515.5 376.88 515.52 376.88 515.55 376.87 515.59 376.87 515.6 376.86 515.63 376.86 515.64 376.86 515.66 376.85 515.68 376.85 515.7 376.85 515.72 376.84 515.74 376.84 515.75 376.84 515.77 376.83 515.79 376.83 515.81 376.83 515.83 376.82 515.84 376.82 515.86 376.81 515.88 376.81 515.9 376.81 515.92 376.81 515.93 376.8 515.95 376.8 515.97 376.79 515.98 376.79 516 376.79 516.02 376.78 516.03 376.78 516.05 376.78 516.07 376.77 516.08 376.77 516.1 376.77 516.12 376.76 516.13 376.76 516.16 376.76 516.19 376.75 516.2 376.75 516.22 376.75 516.24 376.74 516.25 376.74 516.26 376.74 516.28 376.74 516.3 376.73 516.31 376.73 516.33 376.73 516.35 376.72 516.37 376.72 516.39 376.72 516.41 376.72 516.43 376.71 516.46 376.71 516.48 376.71 516.51 376.71 516.54 376.7 516.58 376.7 516.6 376.69 516.62 376.69 516.64 376.69 516.65 376.69 516.66 376.69 516.68 376.69 516.7 376.68 516.72 376.68 516.74 376.68 516.75 376.68 516.77 376.68 516.79 376.67 516.8 376.67 516.82 376.67 516.83 376.67 516.85 376.66 516.87 376.66 516.91 376.66 516.93 376.65 516.95 376.65 516.97 376.65 517 376.65 517.02 376.65 517.07 376.65 517.1 376.64 517.15 376.63 517.48 376.58 517.5 376.57 517.57 376.56 517.58 376.56 517.59 376.55 517.71 376.53 517.72 376.53 517.77 376.52 517.8 376.52 517.81 376.52 517.82 376.51 517.83 376.51 517.92 376.5 517.92 376.5 517.97 376.49 517.98 376.49 518.01 376.49 518.2 376.44 518.5 376.37 518.52 376.36 518.54 376.35 518.58 376.34 518.59 376.33 518.68 376.33 518.7 376.33 518.72 376.32 518.85 376.28 518.86 376.27 518.88 376.26 518.97 376.23 518.98 376.22 519.03 376.19 519.04 376.18 519.07 376.17 519.08 376.16 519.1 376.15 519.13 376.13 519.15 376.12 519.16 376.12 519.17 376.12 519.19 376.11 519.21 376.11 519.23 376.12 519.24 376.12 519.26 376.12 519.28 376.12 519.31 376.12 519.33 376.12 519.34 376.12 519.36 376.12 519.38 376.12 519.39 376.11 519.41 376.11 519.43 376.1 519.45 376.09 519.46 376.08 519.48 376.07 519.49 376.06 519.5 376.04 Z"/>
</g></svg>