<svg xmlns="http://www.w3.org/2000/svg" version="1.2" baseProfile="tiny" stroke-linecap="round" stroke-linejoin="round" viewBox="473.87 173 11.42 21.32"><g xmlns="http://www.w3.org/2000/svg" id="Saldias">
<path d="M 482.07 193.25 482 193.29 481.99 193.29 481.95 193.32 481.92 193.34 481.89 193.35 481.82 193.4 481.76 193.43 481.65 193.48 481.62 193.51 481.59 193.52 481.56 193.54 481.51 193.57 481.41 193.62 481.34 193.66 481.22 193.72 481.1 193.79 481 193.84 480.87 193.91 480.83 193.94 480.8 193.96 480.68 193.99 480.51 194.02 480.29 194.04 480.07 194.08 479.84 194.12 479.63 194.15 479.41 194.18 479.19 194.21 478.96 194.25 478.77 194.28 478.62 194.28 478.41 194.3 478.18 194.3 478.19 194.21 478.2 194.07 478.21 193.96 478.23 193.81 478.24 193.72 478.24 193.71 478.24 193.7 478.25 193.65 478.26 193.58 478.27 193.47 478.27 193.32 478.27 193.17 478.27 193.05 478.28 192.94 478.28 192.9 478.28 192.84 478.28 192.81 478.28 192.73 478.28 192.57 478.27 192.48 478.26 192.38 478.25 192.2 478.23 192.09 478.2 191.94 478.18 191.79 478.16 191.66 478.14 191.54 478.12 191.36 478.09 191.18 478.08 191.05 478.05 190.89 478.03 190.78 478.02 190.65 477.99 190.51 477.98 190.39 477.97 190.28 477.95 190.19 477.92 190 477.9 189.85 477.88 189.71 477.87 189.64 477.87 189.57 477.85 189.47 477.83 189.34 477.83 189.33 477.81 189.2 477.81 189.15 477.8 189.06 477.78 188.92 477.77 188.81 477.76 188.77 477.75 188.62 477.74 188.6 477.73 188.47 477.72 188.39 477.71 188.3 477.69 188.25 477.66 188.1 477.62 187.94 477.59 187.82 477.56 187.68 477.54 187.62 477.53 187.55 477.52 187.51 477.5 187.39 477.49 187.35 477.45 187.19 477.44 187.11 477.41 186.95 477.41 186.94 477.39 186.82 477.36 186.61 477.35 186.55 477.33 186.47 477.33 186.44 477.32 186.38 477.31 186.34 477.31 186.31 477.27 186.09 477.24 185.92 477.22 185.81 477.21 185.76 477.21 185.74 477.19 185.61 477.17 185.5 477.17 185.48 477.16 185.4 477.16 185.33 477.15 185.23 477.14 185.03 477.14 184.98 477.14 184.94 477.13 184.83 477.12 184.7 477.12 184.68 477.11 184.66 477.1 184.62 477.07 184.56 477.05 184.53 476.99 184.45 476.95 184.37 476.94 184.37 476.91 184.3 476.89 184.26 476.86 184.21 476.75 184.07 476.71 184.01 476.69 183.98 476.65 183.92 476.6 183.86 476.58 183.84 476.52 183.83 476.49 183.83 476.48 183.83 476.45 183.83 476.42 183.81 476.35 183.75 476.28 183.69 476.22 183.63 476.19 183.62 476.17 183.61 476.13 183.59 476.12 183.59 476.09 183.58 476.01 183.58 475.98 183.59 475.94 183.59 475.91 183.6 475.87 183.61 475.83 183.61 475.81 183.61 475.77 183.6 475.72 183.58 475.69 183.55 475.67 183.52 475.64 183.5 475.61 183.49 475.56 183.47 475.53 183.46 475.51 183.45 475.49 183.43 475.46 183.41 475.44 183.38 475.43 183.35 475.42 183.32 475.41 183.28 475.41 183.24 475.4 183.23 475.4 183.19 475.39 183.16 475.37 183.13 475.35 183.11 475.33 183.1 475.32 183.09 475.28 183.06 475.24 183.03 475.23 183.01 475.22 182.98 475.21 182.93 475.2 182.88 475.2 182.84 475.2 182.8 475.2 182.76 475.21 182.75 475.22 182.69 475.24 182.65 475.26 182.62 475.28 182.59 475.3 182.57 475.34 182.55 475.37 182.52 475.38 182.5 475.38 182.48 475.38 182.46 475.38 182.45 475.37 182.43 475.35 182.41 475.33 182.4 475.32 182.39 475.29 182.37 475.25 182.36 475.21 182.34 475.16 182.33 475.12 182.31 475.08 182.28 475.05 182.26 475.03 182.23 475 182.2 474.99 182.2 474.98 182.18 474.97 182.17 474.96 182.14 474.95 182.1 474.94 182.06 474.93 182.02 474.93 181.98 474.93 181.94 474.94 181.9 474.95 181.87 474.97 181.85 474.99 181.83 475.01 181.81 475.03 181.8 475.07 181.8 475.12 181.78 475.17 181.77 475.22 181.78 475.26 181.77 475.31 181.77 475.36 181.77 475.42 181.77 475.47 181.76 475.51 181.75 475.53 181.73 475.56 181.7 475.57 181.68 475.55 181.67 475.45 181.59 475.37 181.53 475.35 181.51 475.32 181.49 475.3 181.47 475.27 181.45 475.18 181.37 475.16 181.35 475.08 181.28 474.89 181.14 474.85 181.11 474.81 181.08 474.76 181.04 474.76 181.03 474.62 180.92 474.62 180.92 474.47 180.79 474.43 180.7 474.39 180.6 474.31 180.42 474.29 180.35 474.28 180.32 474.27 180.27 474.26 180.26 474.27 180.25 474.27 180.23 474.29 180.2 474.36 180.02 474.41 179.89 474.49 179.72 474.53 179.62 474.54 179.61 474.55 179.58 474.63 179.38 474.63 179.38 474.64 179.36 474.67 179.25 474.69 179.21 474.68 179.18 474.66 179.14 474.65 179.11 474.64 179.05 474.6 178.91 474.57 178.75 474.55 178.71 474.52 178.55 474.5 178.47 474.47 178.38 474.47 178.37 474.47 178.36 474.43 178.17 474.41 178.09 474.4 178.08 474.38 177.99 474.33 177.78 474.28 177.59 474.26 177.48 474.23 177.38 474.19 177.19 474.15 176.97 474.14 176.93 474.12 176.83 474.1 176.74 474.06 176.54 474.02 176.32 473.98 176.08 473.97 176.06 473.96 175.97 473.95 175.95 473.94 175.89 473.94 175.88 473.94 175.87 473.93 175.83 473.89 175.64 473.88 175.53 473.95 175.47 474 175.44 474.02 175.43 474.03 175.42 474.04 175.41 474.14 175.34 474.3 175.23 474.45 175.12 474.59 175.03 474.64 174.99 474.83 174.86 474.91 174.8 475.03 174.72 475.07 174.69 475.18 174.61 475.33 174.51 475.36 174.49 475.46 174.42 475.62 174.3 475.85 174.15 476.04 174.02 476.19 173.91 476.29 173.85 476.34 173.81 476.52 173.68 476.61 173.62 476.68 173.57 476.85 173.46 477.02 173.34 477.09 173.29 477.2 173.21 477.23 173.19 477.36 173.11 477.42 173.04 477.45 173 477.48 173.66 477.51 174.41 477.3 174.66 477.28 174.68 477.32 174.73 477.66 175.1 477.97 175.44 478.04 175.55 478.18 175.77 478.19 175.79 478.32 175.98 478.32 175.99 478.32 176.02 478.33 176.05 478.34 176.08 478.34 176.1 478.35 176.13 478.34 176.16 478.34 176.19 478.34 176.21 478.34 176.24 478.35 176.28 478.36 176.31 478.37 176.35 478.37 176.38 478.37 176.39 478.37 176.41 478.37 176.41 478.37 176.42 478.37 176.45 478.38 176.48 478.38 176.49 478.4 176.5 478.41 176.51 478.44 176.57 478.45 176.61 478.46 176.64 478.46 176.65 478.48 176.68 478.5 176.72 478.52 176.74 478.55 176.76 478.59 176.79 478.63 176.82 478.67 176.86 478.68 176.88 478.69 176.89 478.7 176.9 478.72 176.91 478.74 176.93 478.75 176.94 478.76 176.96 478.78 177.01 478.79 177.06 478.8 177.11 478.8 177.13 478.8 177.14 478.81 177.16 478.81 177.21 478.82 177.26 478.83 177.3 478.84 177.35 478.86 177.39 478.86 177.41 478.86 177.42 478.86 177.43 478.86 177.44 478.87 177.44 478.87 177.47 478.87 177.48 478.87 177.49 478.88 177.51 478.88 177.54 478.88 177.57 478.88 177.61 478.87 177.64 478.85 177.67 478.82 177.69 478.8 177.74 478.79 177.79 478.78 177.82 478.77 177.84 478.76 177.87 478.74 177.89 478.73 177.92 478.72 177.93 478.71 177.96 478.7 177.98 478.67 178.01 478.67 178.03 478.66 178.06 478.65 178.08 478.64 178.1 478.63 178.13 478.63 178.17 478.62 178.21 478.61 178.24 478.62 178.28 478.63 178.31 478.64 178.33 478.65 178.36 478.66 178.39 478.67 178.4 478.67 178.42 478.69 178.45 478.7 178.47 478.7 178.48 478.71 178.49 478.72 178.5 478.74 178.52 478.75 178.53 478.75 178.54 478.76 178.55 478.79 178.59 478.81 178.61 478.83 178.59 478.84 178.58 478.86 178.58 478.87 178.57 478.89 178.56 478.91 178.56 478.93 178.55 478.96 178.55 478.98 178.55 479.01 178.56 479.03 178.58 479.06 178.59 479.08 178.6 479.11 178.62 479.13 178.64 479.16 178.66 479.21 178.7 479.24 178.72 479.27 178.75 479.29 178.76 479.31 178.78 479.33 178.79 479.35 178.8 479.38 178.81 479.4 178.81 479.43 178.81 479.45 178.81 479.46 178.81 479.49 178.8 479.51 178.79 479.54 178.78 479.56 178.77 479.61 178.73 479.62 178.71 479.63 178.69 479.64 178.67 479.65 178.65 479.65 178.63 479.66 178.61 479.67 178.57 479.68 178.55 479.69 178.53 479.71 178.49 479.72 178.47 479.73 178.45 479.75 178.44 479.77 178.42 479.78 178.41 479.8 178.4 479.83 178.39 479.85 178.37 479.87 178.36 479.88 178.35 479.9 178.34 479.92 178.33 479.94 178.32 479.96 178.31 479.97 178.3 479.99 178.29 480.01 178.28 480.03 178.26 480.05 178.25 480.07 178.24 480.1 178.22 480.12 178.21 480.14 178.2 480.17 178.18 480.19 178.16 480.2 178.16 480.22 178.15 480.24 178.14 480.26 178.13 480.29 178.13 480.31 178.13 480.33 178.12 480.35 178.12 480.38 178.11 480.41 178.1 480.46 178.09 480.48 178.09 480.5 178.08 480.53 178.07 480.54 178.06 480.56 178.05 480.57 178.05 480.59 178.04 480.62 178.03 480.65 178.01 480.67 178 480.68 177.99 480.69 177.98 480.71 177.96 480.73 177.93 480.75 177.91 480.76 177.88 480.79 177.85 480.81 177.83 480.84 177.81 480.88 177.78 480.92 177.75 480.97 177.73 481.01 177.72 481.06 177.71 481.07 177.7 481.11 177.7 481.17 177.68 481.22 177.66 481.25 177.64 481.26 177.64 481.3 177.62 481.33 177.59 481.38 177.55 481.41 177.51 481.45 177.48 481.48 177.44 481.51 177.4 481.55 177.35 481.59 177.29 481.61 177.26 481.62 177.23 481.63 177.2 481.63 177.17 481.62 177.15 481.62 177.12 481.6 177.08 481.6 177.07 481.59 177.04 481.59 177.02 481.63 177.01 481.67 177 481.69 177 481.71 177.01 481.72 177.04 481.73 177.09 481.73 177.16 481.74 177.23 481.75 177.27 481.76 177.31 481.77 177.35 481.78 177.37 481.81 177.4 481.83 177.41 481.88 177.41 482.01 177.41 482.07 177.41 482.14 177.42 482.22 177.42 482.31 177.43 482.4 177.42 482.5 177.39 482.6 177.32 482.64 177.29 482.7 177.24 482.73 177.2 482.77 177.17 482.79 177.16 482.81 177.15 482.83 177.15 482.87 177.14 482.92 177.13 482.98 177.11 483.02 177.09 483.06 177.08 483.1 177.06 483.15 177.02 483.19 176.97 483.22 176.94 483.24 176.93 483.25 176.93 483.27 176.94 483.29 176.95 483.29 176.96 483.3 176.97 483.31 176.98 483.32 176.99 483.35 177.02 483.37 177.03 483.38 177.03 483.42 177.04 483.44 177.05 483.45 177.07 483.47 177.09 483.49 177.11 483.5 177.12 483.51 177.15 483.52 177.18 483.53 177.21 483.54 177.25 483.54 177.29 483.55 177.3 483.57 177.33 483.57 177.34 483.59 177.37 483.59 177.39 483.59 177.4 483.59 177.43 483.58 177.45 483.57 177.49 483.58 177.53 483.59 177.58 483.6 177.59 483.61 177.62 483.63 177.66 483.64 177.68 483.65 177.69 483.66 177.71 483.68 177.72 483.7 177.73 483.73 177.73 483.76 177.72 483.77 177.72 483.78 177.73 483.79 177.74 483.8 177.75 483.81 177.76 483.83 177.8 483.85 177.82 483.85 177.83 483.87 177.83 483.88 177.84 483.89 177.85 483.91 177.86 483.93 177.87 483.96 177.89 483.99 177.9 484.01 177.91 484.02 177.91 484.04 177.92 484.09 177.95 484.12 177.96 484.15 177.97 484.17 177.99 484.2 178 484.22 178.01 484.24 178.02 484.25 178.03 484.28 178.04 484.28 178.04 484.3 178.05 484.31 178.05 484.34 178.07 484.37 178.09 484.4 178.12 484.43 178.13 484.46 178.16 484.48 178.18 484.5 178.19 484.52 178.22 484.54 178.24 484.55 178.26 484.56 178.27 484.57 178.29 484.58 178.3 484.59 178.32 484.6 178.34 484.61 178.36 484.62 178.39 484.63 178.4 484.64 178.41 484.65 178.43 484.66 178.45 484.68 178.47 484.7 178.49 484.71 178.5 484.73 178.52 484.75 178.53 484.76 178.53 484.79 178.55 484.81 178.56 484.84 178.56 484.86 178.58 484.87 178.58 484.88 178.58 484.92 178.6 484.94 178.61 484.96 178.62 484.98 178.64 485.01 178.66 485.03 178.68 485.05 178.7 485.07 178.73 485.1 178.76 485.12 178.78 485.13 178.8 485.14 178.82 485.16 178.84 485.16 178.85 485.19 178.88 485.19 178.89 485.2 178.91 485.21 178.95 485.23 178.98 485.23 179.02 485.24 179.05 485.25 179.07 485.25 179.1 485.26 179.13 485.27 179.15 485.27 179.17 485.27 179.2 485.26 179.23 485.26 179.26 485.26 179.27 485.25 179.28 485.25 179.3 485.25 179.31 485.24 179.47 485.23 179.49 484.92 179.89 484.92 179.89 484.86 179.91 484.56 179.99 484.38 180.05 484.33 180.06 484.22 180.09 484.18 180.1 484.14 180.11 484.05 180.13 484.04 180.13 483.89 180.17 483.75 180.2 483.74 180.2 483.61 180.23 483.45 180.27 483.36 180.29 483.28 180.31 483.24 180.32 483.22 180.33 483.2 180.33 483.11 180.35 482.84 180.42 482.68 180.52 482.62 180.56 482.6 180.57 482.22 180.8 482.04 180.91 481.95 180.96 481.92 180.98 481.89 181 481.83 181.03 481.77 181.07 481.7 181.12 481.67 181.21 481.65 181.27 481.58 181.45 481.57 181.49 481.5 181.68 481.47 181.78 481.45 181.84 481.44 181.87 481.43 181.88 481.28 182.1 481.15 182.3 481.11 182.36 481.07 182.43 481.05 182.48 481.04 182.51 481.03 182.52 480.84 183.17 480.82 183.25 480.81 183.27 480.75 183.47 480.75 183.49 480.74 183.5 480.88 183.81 480.89 183.82 480.92 183.89 480.99 184.04 481 184.07 481.09 184.28 481.12 184.34 481.14 184.38 481.22 184.56 481.3 184.75 481.35 184.85 481.44 185.05 481.75 185.76 481.76 185.77 481.76 185.79 482.04 186.42 482.02 186.65 482.01 186.75 481.99 186.86 481.95 187.29 481.92 187.57 483.55 188.3 483.88 189.26 484.12 189.97 484.13 189.98 484.15 190.03 483.96 190.6 483.94 190.66 483.92 190.7 483.89 190.75 483.86 190.79 483.83 190.82 483.78 190.86 483.74 190.9 483.72 190.91 483.7 190.92 483.42 190.96 483.36 190.97 483.33 190.97 483.32 190.97 483.31 190.97 483 191.01 482.26 192.34 482.18 192.67 482.07 193.25 Z"/>
</g></svg>