<svg xmlns="http://www.w3.org/2000/svg" version="1.2" baseProfile="tiny" stroke-linecap="round" stroke-linejoin="round" viewBox="638.77 1 21.23 15.48"><g xmlns="http://www.w3.org/2000/svg" id="Samatze">
<path d="M 638.79 3.92 639.44 3.21 640.09 2.49 640.76 1.63 641.34 1.42 641.47 1.37 641.93 1.25 642.55 1.09 643.24 1.01 644.24 1 644.97 1.12 645.7 1.23 646.79 1.4 647.15 1.44 647.21 1.45 647.77 1.5 648.35 1.63 648.83 1.82 649.26 2.1 649.77 2.55 649.99 2.76 650.43 3.17 650.81 3.57 651.13 3.94 651.48 4.17 651.39 4.46 651.38 4.5 651.33 4.6 651.28 4.71 651.25 4.77 651.23 4.83 651.19 4.89 651.17 4.92 651.16 4.94 651.18 4.98 651.24 5.06 651.24 5.07 651.24 5.08 651.25 5.1 651.29 5.17 651.37 5.3 651.42 5.39 651.48 5.49 651.55 5.6 651.62 5.7 651.62 5.71 651.66 5.77 651.7 5.84 651.73 5.94 651.76 6.01 651.78 6.04 651.78 6.05 651.8 6.07 651.83 6.1 651.87 6.15 651.92 6.21 651.96 6.27 651.98 6.33 651.99 6.35 652 6.37 652.03 6.45 652.09 6.59 652.16 6.65 652.33 6.84 652.37 6.88 652.38 6.91 652.38 6.95 652.39 6.96 652.39 7.01 652.4 7.06 652.41 7.18 652.41 7.29 652.41 7.32 652.41 7.33 652.43 7.44 652.43 7.45 652.43 7.46 652.51 7.52 652.51 7.53 652.51 7.56 652.51 7.58 652.51 7.6 652.75 7.66 652.72 7.7 652.72 7.72 652.78 7.73 652.93 7.76 653.06 7.86 653.11 7.9 653.13 7.91 653.1 8.04 653.19 8.09 653.44 8.23 653.82 8.44 653.9 8.48 654.13 8.61 654.18 8.52 654.27 8.55 654.58 8.61 654.62 8.62 654.66 8.62 654.67 8.63 654.7 8.64 654.81 8.66 654.89 8.68 654.99 8.7 655.09 8.72 655.18 8.75 655.54 8.87 655.49 8.92 655.47 8.94 655.46 8.95 655.44 8.97 655.66 9.1 655.75 9.14 655.8 9.16 655.97 9.24 656.13 9.32 656.23 9.37 656.36 9.43 656.36 9.49 656.41 9.51 656.51 9.56 656.57 9.59 656.58 9.6 656.66 9.63 656.67 9.63 656.71 9.61 656.73 9.6 656.85 9.63 656.89 9.64 657.04 9.72 657.06 9.71 657.1 9.71 657.16 9.7 657.37 9.82 657.51 9.94 657.56 9.97 657.56 9.99 657.57 10.02 657.58 10.05 657.59 10.08 657.63 10.21 657.65 10.25 657.65 10.27 657.66 10.3 657.66 10.35 657.66 10.4 657.66 10.44 657.64 10.48 657.62 10.52 657.6 10.56 657.59 10.59 657.57 10.63 657.53 10.67 657.49 10.72 657.48 10.74 657.48 10.78 657.48 10.82 657.48 10.84 657.49 10.87 657.51 10.91 657.51 10.94 657.53 10.99 657.54 11.02 657.56 11.05 657.57 11.08 657.61 11.1 657.66 11.14 657.71 11.18 657.74 11.2 657.75 11.21 657.76 11.2 657.79 11.19 657.84 11.16 657.93 11.1 658.05 11.08 658.24 10.9 658.34 11.11 658.44 11.13 658.46 11.13 658.48 11.12 658.6 11.02 658.67 11 658.81 11 658.89 11.02 658.91 11.02 659.05 11.09 659.06 11.08 659.08 11.06 659.12 11.12 659.22 11.21 659.25 11.21 659.34 11.21 659.46 11.39 659.49 11.44 659.5 11.46 659.54 11.51 659.61 11.6 659.65 11.63 659.71 11.65 659.7 11.69 659.69 11.76 659.69 11.79 659.69 11.82 659.68 11.87 659.68 11.91 659.67 11.95 659.68 11.99 659.68 12.03 659.69 12.07 659.7 12.11 659.72 12.16 659.75 12.22 659.79 12.29 659.84 12.38 659.88 12.46 659.9 12.52 659.92 12.56 659.93 12.62 659.94 12.7 659.95 12.81 659.96 12.89 659.97 12.94 659.96 12.98 659.96 13 659.94 13.04 659.9 13.09 659.89 13.12 659.87 13.19 659.86 13.25 659.86 13.3 659.86 13.35 659.86 13.4 659.86 13.42 659.86 13.43 659.86 13.47 659.85 13.5 659.84 13.52 659.82 13.57 659.8 13.63 659.79 13.68 659.79 13.72 659.79 13.74 659.79 13.78 659.79 13.83 659.79 13.88 659.78 13.94 659.78 13.99 659.77 14.02 659.77 14.04 659.77 14.06 659.77 14.15 659.76 14.22 659.75 14.25 659.75 14.28 659.74 14.3 659.73 14.32 659.72 14.33 659.7 14.35 659.69 14.37 659.67 14.4 659.65 14.43 659.63 14.46 659.61 14.54 659.6 14.58 659.6 14.6 659.59 14.61 659.58 14.62 659.56 14.62 659.54 14.62 659.54 14.63 659.53 14.63 659.53 14.65 659.54 14.67 659.66 14.82 659.61 14.88 659.57 14.93 659.58 14.97 659.57 14.99 659.56 15 659.54 15.01 659.49 15.05 659.24 15.2 659.21 15.24 659.2 15.26 659.18 15.26 659.16 15.28 659.14 15.29 659.13 15.29 659.12 15.29 659.11 15.3 659.11 15.3 659.08 15.31 659.04 15.31 659.02 15.32 659.01 15.32 658.99 15.32 658.98 15.33 658.96 15.34 658.94 15.34 658.93 15.34 658.92 15.33 658.91 15.33 658.9 15.32 658.89 15.32 658.88 15.32 658.87 15.32 658.86 15.33 658.86 15.33 658.85 15.33 658.83 15.33 658.81 15.32 658.8 15.32 658.8 15.31 658.79 15.3 658.78 15.3 658.76 15.3 658.75 15.3 658.73 15.3 658.73 15.3 658.71 15.3 658.7 15.3 658.69 15.31 658.69 15.32 658.68 15.32 658.68 15.33 658.67 15.34 658.66 15.34 658.65 15.35 658.64 15.35 658.63 15.35 658.62 15.35 658.61 15.36 658.6 15.36 658.6 15.36 658.59 15.37 658.59 15.38 658.58 15.39 658.58 15.4 658.58 15.4 658.58 15.41 658.57 15.42 658.57 15.43 658.56 15.43 658.55 15.43 658.54 15.43 658.52 15.42 658.51 15.42 658.51 15.41 658.5 15.41 658.49 15.4 658.48 15.39 658.47 15.39 658.47 15.38 658.46 15.38 658.45 15.36 658.44 15.36 658.44 15.37 658.43 15.38 658.43 15.39 658.42 15.39 658.41 15.39 658.4 15.4 658.4 15.4 658.38 15.4 658.37 15.4 658.36 15.39 658.35 15.38 658.33 15.38 658.33 15.39 658.33 15.39 658.33 15.4 658.32 15.41 658.3 15.41 658.29 15.41 658.28 15.4 658.27 15.39 658.26 15.39 658.25 15.4 658.24 15.41 658.24 15.42 658.23 15.43 658.23 15.44 658.22 15.45 658.21 15.45 658.2 15.46 658.2 15.46 658.19 15.47 658.18 15.46 658.17 15.46 658.16 15.45 658.15 15.45 658.14 15.46 658.14 15.47 658.13 15.48 658.12 15.5 658.12 15.5 658.11 15.51 658.1 15.51 658.08 15.48 658.07 15.48 658.06 15.47 658.04 15.46 658.03 15.46 658.02 15.46 658.01 15.47 658 15.47 657.99 15.47 657.98 15.47 657.97 15.46 657.96 15.46 657.95 15.46 657.94 15.46 657.93 15.45 657.92 15.45 657.91 15.45 657.9 15.44 657.88 15.43 657.85 15.4 657.82 15.39 657.78 15.36 657.76 15.36 657.74 15.36 657.72 15.36 657.71 15.35 657.69 15.33 657.68 15.33 657.67 15.33 657.65 15.33 657.64 15.34 657.61 15.35 657.55 15.37 657.52 15.38 657.5 15.39 657.5 15.41 657.5 15.43 657.49 15.45 657.48 15.45 657.47 15.49 657.47 15.52 657.46 15.55 657.44 15.57 657.43 15.56 657.41 15.56 657.4 15.53 657.38 15.51 657.38 15.49 657.38 15.48 657.37 15.48 657.35 15.48 657.34 15.46 657.32 15.45 657.25 15.42 657.15 15.35 657.05 15.3 657.03 15.29 657.02 15.27 657.02 15.26 657.01 15.25 656.99 15.24 656.91 15.17 656.86 15.13 656.84 15.13 656.82 15.12 656.8 15.12 656.79 15.12 656.77 15.12 656.75 15.12 656.74 15.12 656.7 15.12 656.68 15.12 656.67 15.12 656.65 15.12 656.63 15.13 656.61 15.14 656.59 15.14 656.54 15.15 656.52 15.16 656.51 15.16 656.5 15.16 656.49 15.15 656.42 15.07 656.39 15.04 656.36 15.02 656.34 15.02 656.31 15.02 656.25 15.05 656.23 15.06 656.21 15.06 656.1 15.1 656.03 15.13 655.95 15.15 655.93 15.15 655.88 15.14 655.84 15.11 655.79 15.08 655.77 15.06 655.75 15.06 655.73 15.06 655.71 15.06 655.69 15.05 655.68 15.05 655.66 15.04 655.64 15.03 655.62 15.03 655.6 15.03 655.57 15.04 655.55 15.04 655.52 15.03 655.42 15 655.28 14.96 655.18 14.91 655.17 14.91 655.15 14.91 655.13 14.94 655.12 14.95 655.11 14.96 655.09 14.97 655.03 14.98 654.99 14.99 654.94 15 654.91 15 654.89 15 654.88 15.02 654.86 15.07 654.85 15.09 654.79 15.18 654.76 15.31 654.77 15.34 654.79 15.45 654.79 15.46 654.77 15.47 654.67 15.51 654.66 15.53 654.65 15.54 654.62 15.57 654.57 15.6 654.52 15.62 654.48 15.64 654.43 15.65 654.4 15.68 654.36 15.7 654.33 15.71 654.31 15.71 654.29 15.72 654.27 15.73 654.24 15.75 654.22 15.79 654.2 15.83 654.18 15.87 654.16 15.89 654.15 15.9 654.13 15.93 654.08 16.02 654.06 16.07 654.05 16.08 654.05 16.09 654.06 16.12 654.06 16.15 654.06 16.16 654.04 16.2 654.01 16.23 653.98 16.26 653.97 16.27 653.85 16.36 653.84 16.37 653.82 16.39 653.8 16.39 653.79 16.4 653.78 16.4 653.76 16.4 653.74 16.4 653.72 16.4 653.71 16.41 653.69 16.42 653.66 16.44 653.63 16.45 653.61 16.45 653.58 16.45 653.56 16.45 653.53 16.44 653.5 16.43 653.47 16.42 653.45 16.41 653.42 16.39 653.4 16.38 653.38 16.37 653.36 16.35 653.34 16.34 653.32 16.33 653.31 16.33 653.29 16.32 653.26 16.31 653.24 16.3 653.23 16.29 653.21 16.29 653.19 16.29 653.18 16.29 653.16 16.29 653.15 16.3 653.14 16.31 653.13 16.32 653.11 16.33 653.09 16.34 653.08 16.34 653.07 16.34 653.06 16.34 653.04 16.33 653.04 16.32 653.03 16.31 653.02 16.31 653.01 16.3 653 16.3 652.99 16.31 652.98 16.31 652.96 16.33 652.95 16.34 652.95 16.35 652.94 16.37 652.94 16.39 652.93 16.4 652.92 16.4 652.91 16.39 652.9 16.39 652.89 16.38 652.87 16.36 652.84 16.35 652.81 16.33 652.78 16.31 652.77 16.31 652.75 16.3 652.75 16.29 652.73 16.3 652.7 16.31 652.69 16.31 652.67 16.31 652.62 16.3 652.6 16.3 652.57 16.29 652.53 16.28 652.51 16.27 652.5 16.25 652.49 16.24 652.49 16.23 652.49 16.21 652.49 16.2 652.49 16.18 652.48 16.18 652.47 16.17 652.44 16.16 652.42 16.16 652.39 16.16 652.37 16.16 652.34 16.17 652.32 16.17 652.31 16.18 652.3 16.19 652.29 16.2 652.27 16.21 652.26 16.23 652.25 16.25 652.23 16.25 652.23 16.24 652.24 16.23 652.24 16.22 652.23 16.21 652.22 16.21 652.21 16.2 652.2 16.19 652.19 16.19 652.18 16.19 652.17 16.18 652.16 16.18 652.16 16.17 652.15 16.16 652.16 16.15 652.16 16.14 652.16 16.12 652.16 16.12 652.16 16.11 652.15 16.1 652.14 16.1 652.13 16.1 652.13 16.1 652.12 16.11 652.11 16.12 652.11 16.13 652.1 16.13 652.09 16.14 652.08 16.14 652.07 16.14 652.05 16.14 652.04 16.14 652.03 16.14 652.02 16.14 652.01 16.13 652.01 16.12 652 16.11 652 16.09 651.99 16.07 651.99 16.05 651.98 16.04 651.96 16.03 651.94 16.02 651.93 16.02 651.92 16.02 651.91 16.02 651.9 16.03 651.9 16.04 651.89 16.05 651.87 16.06 651.86 16.06 651.84 16.08 651.8 16.13 651.79 16.14 651.78 16.14 651.77 16.14 651.76 16.13 651.76 16.13 651.75 16.12 651.74 16.12 651.73 16.11 651.7 16.11 651.66 16.11 651.6 16.12 651.58 16.12 651.56 16.11 651.54 16.08 651.5 16.04 651.49 16.04 651.48 16.04 651.47 16.05 651.46 16.05 651.43 16.04 651.4 16.03 651.38 16.02 651.38 16.01 651.38 16 651.38 15.99 651.38 15.98 651.38 15.97 651.38 15.96 651.37 15.96 651.35 15.95 651.33 15.95 651.31 15.95 651.3 15.95 651.28 15.95 651.26 15.95 651.21 15.94 651.17 15.93 651.14 15.93 651.07 15.95 650.94 15.97 650.82 16 650.79 16.01 650.78 16.02 650.75 16.03 650.7 16.05 650.68 16.06 650.66 16.07 650.65 16.08 650.64 16.09 650.63 16.09 650.62 16.09 650.58 16.14 650.55 16.18 650.53 16.19 650.52 16.19 650.51 16.19 650.51 16.18 650.5 16.17 650.5 16.15 650.49 16.13 650.48 16.11 650.48 16.08 650.48 16.06 650.47 16.05 650.47 16.04 650.45 16.02 650.45 16.02 650.44 16.02 650.42 16.02 650.4 16.02 650.39 16.02 650.38 16.03 650.38 16.04 650.38 16.06 650.38 16.08 650.38 16.1 650.39 16.12 650.39 16.14 650.39 16.16 650.38 16.17 650.37 16.18 650.36 16.19 650.34 16.19 650.33 16.19 650.31 16.19 650.26 16.15 650.24 16.13 650.23 16.13 650.21 16.14 650.19 16.16 650.17 16.16 650.15 16.16 650.14 16.16 650.13 16.13 650.05 16.08 650.11 15.99 650.18 15.87 650.22 15.78 650.27 15.67 650.31 15.55 650.36 15.41 650.4 15.24 650.42 15.07 650.44 14.95 650.45 14.85 650.44 14.75 650.43 14.65 650.41 14.59 650.4 14.54 650.36 14.47 650.31 14.4 650.21 14.29 650.09 14.2 649.94 14.09 649.72 13.97 649.61 13.91 649.54 13.88 649.3 13.77 649.03 13.67 648.87 13.6 648.7 13.52 648.57 13.45 648.42 13.36 648.25 13.24 648.12 13.13 648 13 647.86 12.85 647.76 12.75 647.61 12.61 647.46 12.48 647.36 12.4 647.23 12.31 647.11 12.24 646.94 12.16 646.81 12.1 646.68 12.04 646.52 11.98 646.33 11.9 646.16 11.83 646 11.74 645.86 11.67 645.68 11.56 645.56 11.46 645.47 11.38 645.39 11.29 645.29 11.16 645.19 11.01 645.09 10.79 645.03 10.64 644.81 10.03 644.59 9.58 644.4 9.38 644.09 9.21 643.67 9.16 643.22 9.21 642.51 9.3 642.37 9.33 642.21 9.38 642.22 9.27 642.22 9.23 642.24 9.19 642.24 9.15 642.25 9.12 642.27 9.09 642.3 9.08 642.36 9.07 642.37 9.07 642.39 9.08 642.44 9.1 642.53 9.1 642.57 9.08 642.61 9.06 642.61 9.05 642.61 9.02 642.61 8.99 642.61 8.94 642.6 8.94 642.58 8.94 642.54 8.94 642.49 8.93 642.38 8.89 642.3 8.86 642.28 8.84 642.27 8.81 642.25 8.75 642.23 8.66 642.23 8.64 642.26 8.62 642.31 8.59 642.36 8.58 642.4 8.57 642.44 8.57 642.48 8.58 642.51 8.58 642.55 8.58 642.58 8.57 642.59 8.57 642.59 8.54 642.53 8.28 642.53 8.28 642.51 8.23 642.49 8.18 642.49 8.17 642.49 8.13 642.49 8.11 642.5 8.06 642.51 7.86 642.48 7.84 642.35 7.78 642.24 7.72 642.13 7.66 642.12 7.66 642.09 7.64 642.07 7.63 642.06 7.62 642.05 7.61 642.04 7.58 642.04 7.56 642.04 7.54 642.03 7.52 642.03 7.5 642.02 7.47 642.02 7.47 642.02 7.46 642 7.44 641.99 7.44 641.97 7.42 641.95 7.41 641.91 7.37 641.86 7.31 641.78 7.22 641.66 7.08 641.64 7.05 641.59 7 641.52 6.92 641.41 6.8 641.38 6.75 641.27 6.64 641.23 6.59 641.19 6.54 641.11 6.45 641.01 6.34 640.98 6.3 640.86 6.17 640.81 6.1 640.76 6.05 640.75 6.04 640.32 5.54 640.28 5.5 640.27 5.49 640.25 5.45 640.23 5.41 639.87 5.65 639.87 5.61 639.87 5.57 639.88 5.44 639.88 5.33 639.88 5.19 639.87 5.13 639.87 5.11 639.86 5.09 639.81 4.99 639.73 4.87 639.66 4.77 639.64 4.74 639.64 4.71 639.63 4.68 639.62 4.66 639.6 4.64 639.58 4.62 639.51 4.55 639.41 4.46 639.38 4.43 639.36 4.41 639.1 4.18 639.08 4.15 638.79 3.92 Z"/>
</g></svg>