<svg xmlns="http://www.w3.org/2000/svg" version="1.2" baseProfile="tiny" stroke-linecap="round" stroke-linejoin="round" viewBox="338.77 386.25 12.53 28"><g xmlns="http://www.w3.org/2000/svg" id="Santsol">
<path d="M 339.04 386.25 339.1 386.28 339.14 386.31 339.2 386.35 339.26 386.4 339.32 386.44 339.38 386.44 339.44 386.44 339.49 386.44 339.57 386.44 339.6 386.44 339.62 386.44 339.64 386.44 339.69 386.43 339.75 386.44 339.78 386.44 339.79 386.44 339.84 386.45 339.91 386.45 340 386.46 340.05 386.46 340.1 386.48 340.16 386.49 340.2 386.51 340.22 386.51 340.28 386.53 340.31 386.54 340.37 386.56 340.42 386.59 340.45 386.6 340.51 386.62 340.59 386.65 340.63 386.67 340.66 386.68 340.68 386.68 340.69 386.69 340.76 386.7 340.79 386.71 340.82 386.71 340.89 386.73 340.98 386.74 341.05 386.76 341.08 386.76 341.09 386.77 341.1 386.77 341.12 386.77 341.14 386.78 341.15 386.78 341.26 386.78 341.33 386.79 341.36 386.79 341.42 386.8 341.43 386.81 341.45 386.81 341.47 386.81 341.52 386.8 341.53 386.8 341.55 386.79 341.57 386.79 341.6 386.78 341.63 386.78 341.7 386.77 341.79 386.75 341.86 386.74 341.99 386.72 342 386.71 342.01 386.71 342.1 386.7 342.12 386.69 342.13 386.69 342.19 386.68 342.21 386.68 342.23 386.68 342.24 386.68 342.33 386.66 342.42 386.65 342.47 386.64 342.48 386.64 342.52 386.64 342.57 386.62 342.62 386.62 342.68 386.61 342.71 386.61 342.83 386.61 342.89 386.61 342.91 386.61 342.98 386.61 343.06 386.61 343.09 386.61 343.11 386.61 343.15 386.61 343.22 386.61 343.3 386.61 343.42 386.61 343.44 386.61 343.45 386.61 343.5 386.62 343.53 386.62 343.58 386.61 343.63 386.6 343.65 386.6 343.71 386.59 343.8 386.58 343.84 386.58 343.86 386.58 343.95 386.57 344.04 386.56 344.08 386.55 344.13 386.55 344.15 386.55 344.18 386.54 344.22 386.54 344.23 386.54 344.29 386.53 344.31 386.52 344.4 386.52 344.44 386.51 344.54 386.51 344.66 386.5 344.79 386.49 344.92 386.48 345.02 386.47 345.12 386.46 345.14 386.46 345.26 386.45 345.31 386.45 345.33 386.45 345.36 386.45 345.52 386.45 345.56 386.44 345.56 386.44 345.6 386.44 345.67 386.44 345.68 386.44 345.72 386.44 345.8 386.43 345.85 386.42 345.92 386.42 345.96 386.41 345.97 386.41 346.04 386.4 346.09 386.4 346.1 386.4 346.13 386.39 346.16 386.39 346.18 386.39 346.23 386.41 346.3 386.43 346.37 386.45 346.39 386.46 346.44 386.48 346.48 386.5 346.59 386.54 346.66 386.55 346.72 386.57 346.76 386.58 346.82 386.6 346.9 386.62 346.93 386.63 347 386.65 347.05 386.68 347.12 386.71 347.13 386.71 347.21 386.74 347.22 386.74 347.29 386.75 347.33 386.77 347.41 386.79 347.44 386.8 347.45 386.8 347.53 386.82 347.59 386.83 347.63 386.84 347.67 386.85 347.73 386.86 347.79 386.88 347.85 386.9 347.93 386.92 347.96 386.92 347.99 386.93 348.05 386.94 348.1 386.96 348.12 386.96 348.13 386.97 348.19 386.98 348.25 386.99 348.28 386.99 348.35 387 348.41 387.02 348.47 387.03 348.56 387.05 348.65 387.08 348.72 387.1 348.83 387.13 348.86 387.14 348.94 387.17 348.99 387.18 349.07 387.2 349.12 387.22 349.16 387.24 349.21 387.25 349.25 387.28 349.26 387.28 349.36 387.32 349.45 387.36 349.51 387.38 349.62 387.42 349.66 387.44 349.7 387.46 349.74 387.47 350.13 387.69 350.19 387.72 350.18 387.78 350.17 387.81 350.16 387.86 350.14 387.91 350.12 387.93 350.1 387.96 350.07 387.96 350.03 387.97 349.97 388.02 349.91 388.07 349.86 388.12 349.8 388.17 349.77 388.21 349.72 388.28 349.67 388.34 349.62 388.39 349.58 388.44 349.52 388.52 349.46 388.59 349.43 388.65 349.37 388.72 349.32 388.78 349.27 388.86 349.2 388.94 349.15 389.02 349.1 389.09 349.06 389.13 349.02 389.17 348.96 389.23 348.99 389.25 349.18 389.46 349.48 389.78 349.76 390.09 349.81 390.14 349.82 390.15 349.83 390.17 349.85 390.18 349.88 390.22 349.9 390.24 349.92 390.25 350.06 390.4 350.09 390.43 350.09 390.44 350.19 390.54 350.4 390.75 350.4 390.76 350.39 390.77 350.14 390.86 350.13 390.87 350.05 390.9 350.02 390.9 349.8 390.99 349.79 390.99 349.74 391.01 349.66 391.04 349.23 391.19 349.22 391.2 348.54 391.37 348.52 391.38 348.49 391.39 348.48 391.4 348.46 391.41 348.45 391.42 348.44 391.42 348.42 391.43 348.28 391.51 348.27 391.52 348.26 391.52 348.26 391.53 348.02 391.75 347.88 391.88 347.83 391.93 347.7 392.06 347.67 392.09 347.67 392.1 347.48 392.29 347.31 392.45 347.19 392.57 347.18 392.57 347.08 392.67 347.07 392.68 346.97 392.77 346.75 392.94 346.74 392.95 346.7 392.98 346.69 392.99 346.64 393.02 346.63 393.03 346.57 393.08 346.47 393.13 346.46 393.14 346.45 393.14 346.44 393.15 346.22 393.26 346.19 393.28 346.16 393.29 346.01 393.38 345.91 393.45 345.9 393.46 345.88 393.47 345.75 393.62 345.74 393.63 345.65 393.73 345.64 393.74 345.53 393.84 345.52 393.85 345.52 393.85 345.49 393.87 345.31 394.02 345.3 394.04 345.3 394.04 345.18 394.14 345.18 394.14 345.17 394.15 345.16 394.17 345.16 394.19 345.17 394.42 345.17 394.43 345.17 394.44 345.17 394.44 345.19 394.77 345.19 394.78 345.2 395 345.21 395.06 345.21 395.08 345.24 395.2 345.26 395.25 345.33 395.51 345.33 395.53 345.39 395.74 345.39 395.76 345.45 395.98 345.46 396.01 345.47 396.04 345.47 396.08 345.48 396.09 345.48 396.1 345.48 396.12 345.48 396.14 345.51 396.35 345.51 396.36 345.52 396.38 345.52 396.39 345.58 396.78 345.58 396.79 345.58 396.83 345.59 396.83 345.6 396.91 345.6 396.92 345.61 396.93 345.65 397.11 345.65 397.12 345.65 397.13 345.68 397.28 345.69 397.29 345.73 397.47 345.73 397.48 345.73 397.5 345.8 397.81 345.81 397.84 345.81 397.84 345.82 397.88 345.81 397.91 345.68 398.28 345.67 398.29 345.66 398.32 345.59 398.52 345.54 398.64 345.54 398.65 345.54 398.66 345.53 398.67 345.51 398.74 345.49 398.81 345.48 398.83 345.48 398.85 345.37 399.19 345.37 399.19 345.36 399.22 345.35 399.26 345.26 399.6 345.23 399.71 345.23 399.74 345.22 399.75 345.22 399.77 345.21 399.78 345.21 399.81 345.15 399.89 345.05 400.01 345.05 400.02 344.89 400.22 344.87 400.25 344.86 400.26 344.85 400.27 344.76 400.39 344.72 400.43 344.7 400.47 344.69 400.48 344.68 400.56 344.61 400.88 344.58 401 344.56 401.11 344.54 401.18 344.61 401.26 344.61 401.27 344.65 401.31 344.66 401.33 344.73 401.41 344.76 401.44 344.88 401.58 344.91 401.61 344.92 401.63 344.98 401.7 345.08 401.81 345.4 402.18 345.49 402.28 345.76 402.54 345.84 402.62 345.85 402.62 345.85 402.63 345.86 402.64 345.89 402.67 346.33 402.92 346.36 402.94 346.68 403.12 347.01 403.31 347.56 403.63 347.6 403.65 347.62 403.67 348.31 404.07 348.33 404.08 348.4 404.17 348.63 404.48 348.66 404.51 348.8 404.7 348.88 404.77 349.02 404.89 349.08 404.95 349.18 405.07 349.2 405.08 349.25 405.13 349.25 405.14 349.3 405.19 349.48 405.34 349.68 405.5 349.71 405.53 349.79 405.59 349.8 405.6 349.88 405.67 349.91 405.7 349.92 405.71 349.96 405.76 349.99 405.8 350.02 405.85 350.03 405.87 350.05 405.91 350.1 405.99 350.11 406.02 350.3 406.34 350.31 406.36 350.68 407.08 350.79 407.28 350.8 407.3 351.07 407.83 351.21 408.11 351.22 408.12 351.23 408.13 351.24 408.17 351.3 408.21 351.29 408.23 351.28 408.24 351.26 408.25 351.23 408.27 351.21 408.29 351.16 408.31 351.13 408.32 351.09 408.33 351.06 408.35 351.03 408.36 351 408.37 350.98 408.39 350.96 408.42 350.92 408.43 350.88 408.45 350.84 408.46 350.8 408.47 350.76 408.49 350.7 408.51 350.61 408.55 350.55 408.57 350.5 408.59 350.46 408.61 350.42 408.63 350.4 408.65 350.38 408.69 350.36 408.72 350.33 408.78 350.29 408.83 350.24 408.9 350.19 408.96 350.13 409.03 350.07 409.09 350.01 409.15 349.96 409.21 349.92 409.27 349.88 409.33 349.85 409.39 349.8 409.47 349.78 409.49 349.76 409.52 349.74 409.54 349.72 409.6 349.69 409.68 349.66 409.77 349.64 409.84 349.62 409.91 349.59 410 349.56 410.08 349.55 410.13 349.53 410.18 349.52 410.21 349.51 410.25 349.49 410.3 349.47 410.37 349.45 410.43 349.43 410.5 349.42 410.56 349.4 410.62 349.39 410.68 349.39 410.73 349.38 410.8 349.37 410.88 349.36 410.98 349.36 411.07 349.35 411.16 349.34 411.25 349.33 411.35 349.32 411.44 349.31 411.51 349.29 411.69 349.29 411.77 349.28 411.87 349.28 411.88 349.27 411.97 349.26 412.01 349.26 412.05 349.25 412.09 349.25 412.15 349.24 412.23 349.23 412.28 349.22 412.3 349.21 412.31 349.2 412.33 349.18 412.34 349.16 412.35 348.99 412.5 348.98 412.51 348.88 412.6 348.8 412.66 348.74 412.72 348.62 412.82 348.53 412.9 348.37 413.04 348.31 413.1 348.26 413.14 348.21 413.19 348.17 413.22 348.15 413.24 348.1 413.28 348.05 413.33 348.04 413.34 348.03 413.34 348.02 413.36 347.96 413.41 347.94 413.42 347.93 413.43 347.92 413.45 347.91 413.45 347.83 413.5 347.81 413.52 347.79 413.53 347.78 413.53 347.68 413.56 347.65 413.58 347.53 413.62 347.5 413.64 347.49 413.64 347.47 413.65 347.43 413.66 347.35 413.69 347.27 413.72 347.23 413.74 347.14 413.77 347.09 413.79 347.03 413.82 346.96 413.84 346.91 413.86 346.8 413.9 346.73 413.93 346.72 413.94 346.68 413.96 346.63 413.98 346.58 414.01 346.48 414.06 346.42 414.09 346.38 414.1 346.35 414.11 346.33 414.12 346.32 414.12 346.26 414.14 346.24 414.15 346.22 414.16 346.21 414.16 346.2 414.17 346.18 414.17 346.16 414.18 346.14 414.19 346.08 414.21 346.06 414.22 346.04 414.2 345.98 414.16 345.91 414.11 345.82 414.06 345.72 413.98 345.64 413.95 345.53 413.88 345.42 413.83 345.3 413.76 345.21 413.72 345.17 413.68 345.13 413.65 345.12 413.63 345.07 413.56 345.02 413.51 345 413.51 344.98 413.51 344.93 413.52 344.9 413.52 344.84 413.52 344.81 413.52 344.8 413.52 344.76 413.51 344.68 413.51 344.57 413.51 344.47 413.5 344.44 413.5 344.39 413.5 344.37 413.46 344.33 413.39 344.3 413.3 344.31 413.3 344.33 413.29 344.41 413.29 344.54 413.28 344.65 413.27 344.7 413.26 344.73 413.26 344.74 413.26 344.75 413.26 344.77 413.26 344.73 413.21 344.7 413.16 344.66 413.09 344.63 413.05 344.62 413.02 344.61 413 344.56 412.94 344.54 412.88 344.5 412.81 344.48 412.75 344.45 412.7 344.42 412.63 344.37 412.54 344.32 412.46 344.3 412.43 344.29 412.37 344.28 412.32 344.27 412.27 344.26 412.23 344.25 412.18 344.22 412.14 344.2 412.1 344.18 412.08 344.15 412.04 344.12 412 344.11 411.99 344.09 411.95 344.06 411.9 344.05 411.86 344.03 411.8 344.01 411.74 343.99 411.67 343.96 411.6 343.94 411.53 343.92 411.47 343.9 411.41 343.87 411.35 343.85 411.31 343.83 411.27 343.81 411.21 343.77 411.15 343.74 411.1 343.71 411.06 343.67 410.99 343.64 410.96 343.6 410.92 343.56 410.88 343.52 410.85 343.5 410.83 343.49 410.81 343.47 410.79 343.45 410.76 343.43 410.74 343.42 410.71 343.4 410.69 343.38 410.66 343.36 410.64 343.34 410.63 343.29 410.61 343.27 410.59 343.23 410.56 343.21 410.54 343.17 410.52 343.14 410.49 343.11 410.46 343.09 410.44 343.05 410.42 343.03 410.41 342.99 410.4 342.96 410.39 342.92 410.37 342.9 410.36 342.86 410.34 342.84 410.33 342.81 410.31 342.79 410.29 342.76 410.26 342.74 410.24 342.71 410.21 342.69 410.19 342.66 410.16 342.62 410.12 342.59 410.1 342.54 410.06 342.53 410.06 342.52 410.07 342.5 410.08 342.49 410.09 342.47 410.1 342.46 410.11 342.42 410.14 342.4 410.15 342.36 410.18 342.33 410.2 342.31 410.21 342.28 410.19 342.26 410.16 342.25 410.15 342.25 410.14 342.24 410.14 342.22 410.11 342.17 410.08 342.12 410.04 342.19 409.97 342.22 409.94 342.22 409.93 342.24 409.92 342.25 409.91 342.25 409.9 342.26 409.89 342.28 409.87 342.29 409.86 342.31 409.84 342.36 409.89 342.41 409.93 342.43 409.94 342.54 409.86 342.66 409.76 342.68 409.75 342.67 409.73 342.67 409.7 342.65 409.64 342.62 409.59 342.56 409.53 342.51 409.49 342.47 409.45 342.46 409.44 342.42 409.43 342.37 409.41 342.33 409.4 342.29 409.28 342.29 409.27 342.29 409.26 342.28 409.25 342.28 409.25 342.28 409.24 342.25 409.16 342.19 408.98 342.18 408.96 342.18 408.95 342.12 408.77 342.11 408.75 342.1 408.7 342.08 408.66 342.08 408.64 342.19 408.63 342.32 408.62 342.63 408.59 342.99 408.55 343 408.55 343.07 408.55 343.19 408.54 343.17 408.46 343.16 408.41 343.14 408.33 343.13 408.3 343.11 408.24 343.11 408.23 343 407.78 342.96 407.65 342.92 407.51 342.92 407.5 342.89 407.4 342.88 407.36 342.81 407.1 342.8 407.07 342.79 407.02 342.77 407.02 342.68 407.01 342.63 407 342.58 407 342.46 406.98 342.43 406.98 342.28 406.96 342.27 406.96 342.14 406.95 341.99 406.94 341.94 406.93 341.84 406.92 341.84 406.92 341.8 406.92 341.67 406.92 341.57 406.92 341.56 406.92 341.52 406.92 341.38 406.91 341.25 406.91 341.14 406.91 341.13 406.91 341.12 406.91 341.1 406.91 341.09 406.91 341.01 406.91 340.99 406.91 340.97 406.9 340.94 406.83 340.83 406.5 340.76 406.34 340.79 406.31 340.8 406.31 340.8 406.3 340.83 406.27 340.83 406.26 340.86 406.19 340.87 406.19 340.88 406.16 340.9 406.11 340.91 406.1 340.95 406.02 341.01 405.9 341.08 405.79 341.14 405.66 341.18 405.54 341.21 405.47 341.22 405.42 341.23 405.4 341.26 405.33 341.29 405.29 341.3 405.28 341.37 405.17 341.45 405.05 341.49 405 341.58 405 341.7 404.99 341.8 404.99 341.92 404.99 342 404.98 342.11 404.96 342.2 404.94 342.27 404.93 342.32 404.92 342.41 404.9 342.46 404.9 342.48 404.89 342.53 404.88 342.59 404.87 342.66 404.85 342.75 404.82 342.82 404.79 342.84 404.78 342.87 404.77 342.93 404.74 342.97 404.73 342.99 404.71 343.04 404.68 343.1 404.65 343.14 404.62 343.21 404.59 343.24 404.57 343.29 404.54 343.37 404.51 343.44 404.48 343.59 404.41 343.67 404.37 343.73 404.34 343.76 404.32 343.82 404.29 343.88 404.25 343.95 404.2 344 404.16 344.11 404.07 344.16 404.02 344.21 403.98 344.26 403.93 344.31 403.88 344.35 403.85 344.37 403.83 344.42 403.77 344.44 403.74 344.5 403.66 344.56 403.56 344.6 403.49 344.62 403.45 344.62 403.44 344.62 403.42 344.63 403.4 344.67 403.25 344.71 403.14 344.72 403.07 344.75 402.99 344.76 402.95 344.76 402.93 344.77 402.9 344.79 402.86 344.82 402.74 344.84 402.67 344.86 402.59 344.87 402.56 344.87 402.56 344.88 402.48 344.91 402.38 344.91 402.36 344.92 402.35 344.92 402.31 344.93 402.28 344.94 402.21 344.95 402.21 344.96 402.18 344.96 402.16 344.96 402.09 344.96 402.04 344.95 401.99 344.94 401.91 344.93 401.85 344.92 401.77 344.9 401.73 344.88 401.7 344.88 401.69 344.86 401.65 344.84 401.62 344.81 401.58 344.75 401.5 344.7 401.46 344.65 401.42 344.59 401.37 344.49 401.29 344.43 401.25 344.37 401.22 344.32 401.2 344.27 401.17 344.19 401.14 344.16 401.11 344.03 401.02 343.89 400.95 343.78 400.89 343.45 400.9 343.2 400.91 342.9 400.91 342.81 400.92 342.79 401.01 342.77 401.1 342.77 401.12 342.76 401.12 342.7 401.17 342.64 401.21 342.58 401.25 342.52 401.31 342.49 401.33 342.43 401.37 342.35 401.42 342.29 401.47 342.24 401.53 342.23 401.54 342.22 401.56 342.21 401.57 342.18 401.61 342.1 401.7 342.06 401.74 342.05 401.75 342.03 401.77 342.02 401.79 341.92 401.91 341.91 401.92 341.91 401.92 341.83 402.02 341.81 402.05 341.78 402.09 341.76 402.12 341.72 402.17 341.71 402.18 341.69 402.23 341.68 402.28 341.65 402.34 341.64 402.39 341.62 402.46 341.59 402.55 341.56 402.63 341.53 402.7 341.53 402.71 341.51 402.77 341.5 402.81 341.45 402.87 341.41 402.92 341.37 402.96 341.35 403 341.31 403.04 341.29 403.08 341.27 403.1 341.26 403.12 341.25 403.12 341.21 403.12 341.17 403.12 341.15 403.09 341.13 403.07 341.12 403.07 341.1 403.06 341.08 403.04 341.07 403.02 341.06 402.98 341.03 402.94 340.97 402.88 340.91 402.81 340.88 402.77 340.88 402.74 340.88 402.67 340.88 402.65 340.9 402.59 340.91 402.54 340.94 402.49 340.96 402.44 340.99 402.41 341.02 402.37 341.06 402.32 341.09 402.28 341.11 402.25 341.13 402.2 341.15 402.15 341.16 402.11 341.18 402.02 341.18 401.96 341.17 401.91 341.16 401.87 341.13 401.83 341.11 401.79 341.11 401.78 341.13 401.74 341.13 401.73 341.14 401.71 341.14 401.7 341.15 401.69 341.16 401.67 341.17 401.64 341.18 401.59 341.18 401.52 341.19 401.46 341.21 401.4 341.22 401.36 341.22 401.35 341.23 401.32 341.25 401.29 341.29 401.25 341.32 401.22 341.35 401.2 341.37 401.19 341.39 401.18 341.42 401.16 341.47 401.14 341.48 401.13 341.51 401.11 341.58 401.08 341.61 401.06 341.6 401.02 341.6 400.96 341.58 400.86 341.57 400.73 341.56 400.66 341.55 400.6 341.54 400.61 341.4 400.64 341.33 400.66 341.32 400.66 341.31 400.66 341.3 400.67 341.29 400.67 341.23 400.68 341.22 400.59 341.22 400.52 341.21 400.44 341.21 400.43 341.21 400.37 341.2 400.33 341.19 400.26 341.2 400.18 341.19 400.16 341.21 400.13 341.24 400.1 341.25 400.08 341.29 400.05 341.3 400.04 341.32 400.01 341.33 400.01 341.34 400 341.37 399.98 341.38 399.97 341.39 399.96 341.39 399.94 341.39 399.92 341.4 399.9 341.41 399.87 341.42 399.83 341.43 399.82 341.43 399.75 341.43 399.73 341.43 399.68 341.43 399.65 341.43 399.62 341.43 399.6 341.44 399.58 341.45 399.55 341.47 399.51 341.5 399.45 341.52 399.42 341.54 399.41 341.56 399.39 341.58 399.39 341.61 399.36 341.63 399.34 341.65 399.3 341.67 399.26 341.68 399.24 341.68 399.22 341.7 399.19 341.71 399.15 341.73 399.09 341.75 399.03 341.76 398.99 341.76 398.98 341.77 398.93 341.79 398.84 341.8 398.81 341.81 398.8 341.83 398.77 341.84 398.73 341.86 398.69 341.87 398.66 341.88 398.62 341.89 398.59 341.89 398.55 341.89 398.52 341.89 398.48 341.89 398.44 341.89 398.41 341.91 398.4 341.92 398.37 341.94 398.35 341.98 398.31 342 398.29 342 398.27 342.01 398.26 342.01 398.24 342.01 398.23 342 398.21 342 398.17 341.99 398.14 341.99 398.11 341.99 398.08 341.99 398.04 342.03 397.98 342.04 397.93 342.07 397.97 342.11 398.01 342.13 398.05 342.17 398.09 342.2 398.12 342.26 398.15 342.3 398.2 342.34 398.23 342.38 398.25 342.43 398.29 342.46 398.31 342.5 398.33 342.52 398.32 342.53 398.32 342.55 398.32 342.53 398.29 342.52 398.23 342.48 398.16 342.46 398.09 342.44 398.04 342.42 397.98 342.41 397.93 342.38 397.85 342.37 397.78 342.36 397.7 342.35 397.6 342.36 397.53 342.38 397.46 342.38 397.4 342.39 397.37 342.4 397.33 342.43 397.27 342.44 397.23 342.45 397.21 342.48 397.15 342.5 397.1 342.51 397.05 342.51 397 342.5 396.96 342.49 396.92 342.48 396.91 342.47 396.89 342.45 396.87 342.43 396.84 342.4 396.81 342.37 396.78 342.34 396.75 342.34 396.72 342.33 396.67 342.33 396.62 342.33 396.58 342.33 396.57 342.33 396.55 342.34 396.51 342.35 396.45 342.36 396.4 342.37 396.34 342.39 396.29 342.42 396.25 342.43 396.22 342.44 396.21 342.45 396.19 342.46 396.18 342.45 396.17 342.36 396.01 342.29 395.89 342.28 395.87 342.28 395.87 342.27 395.84 342.25 395.81 342.13 395.61 342.12 395.6 342.09 395.54 341.99 395.38 341.89 395.21 341.88 395.18 341.77 394.99 341.72 394.91 341.67 394.82 341.61 394.73 341.58 394.68 341.57 394.67 341.56 394.66 341.54 394.64 341.5 394.6 341.46 394.58 341.44 394.56 341.38 394.51 341.37 394.5 341.36 394.5 341.36 394.49 341.31 394.44 341.18 394.28 341.07 394.17 340.99 394.07 340.89 393.97 340.88 393.96 340.87 393.94 340.87 393.93 340.86 393.92 340.74 393.8 340.69 393.74 340.68 393.73 340.68 393.72 340.57 393.6 340.56 393.58 340.5 393.45 340.49 393.42 340.48 393.39 340.55 393.35 340.54 393.32 340.49 393.24 340.45 393.18 340.44 393.17 340.41 393.13 340.4 393.11 340.39 393.09 340.37 393.05 340.35 393.02 340.34 393.01 340.34 393 340.26 392.87 340.22 392.81 340.19 392.77 340.13 392.68 340.11 392.64 340.1 392.62 340.06 392.58 339.99 392.5 339.95 392.47 339.93 392.45 339.88 392.41 339.82 392.37 339.79 392.34 339.78 392.33 339.77 392.31 339.76 392.3 339.73 392.25 339.71 392.22 339.7 392.21 339.69 392.18 339.65 392.14 339.63 392.12 339.62 392.1 339.61 392.09 339.57 392.04 339.53 392.01 339.52 392 339.49 391.97 339.48 391.96 339.47 391.95 339.46 391.94 339.44 391.92 339.41 391.9 339.36 391.88 339.28 391.85 339.22 391.81 339.17 391.77 339.12 391.74 339.11 391.73 339.09 391.71 339.08 391.68 339.06 391.64 339.05 391.6 339.05 391.56 339.05 391.52 339.04 391.48 339.03 391.42 339.01 391.38 338.99 391.3 338.97 391.21 338.95 391.16 338.93 391.12 338.91 391.06 338.9 391 338.89 390.95 338.87 390.89 338.86 390.85 338.86 390.81 338.87 390.78 338.88 390.75 338.9 390.7 338.91 390.63 338.92 390.57 338.93 390.51 338.94 390.47 338.95 390.45 338.95 390.42 338.96 390.4 338.98 390.35 339 390.28 339.01 390.26 339.01 390.25 339.01 390.24 339.02 390.23 339.02 390.23 339.05 390.11 339.07 390.06 339.07 390.04 339.08 389.99 339.08 389.98 339.08 389.96 339.08 389.94 339.07 389.85 339.07 389.77 339.06 389.73 339.06 389.67 339.06 389.66 339.06 389.64 339.06 389.61 339.05 389.54 339.04 389.5 339.04 389.47 339.04 389.45 339.04 389.43 339.03 389.42 339.04 389.38 339.03 389.32 339.02 389.23 339.01 389.16 339.01 389.09 339.01 389.09 339.01 389.04 338.99 388.92 338.99 388.86 338.99 388.86 338.99 388.82 338.98 388.78 338.97 388.63 338.97 388.54 338.96 388.46 338.95 388.35 338.94 388.22 338.93 388.06 338.93 388 338.93 387.99 338.93 387.94 338.92 387.79 338.92 387.75 338.92 387.73 338.92 387.7 338.92 387.68 338.9 387.54 338.89 387.34 338.88 387.31 338.87 387.21 338.87 387.13 338.86 387.08 338.86 386.99 338.85 386.92 338.84 386.79 338.84 386.66 338.83 386.61 338.82 386.45 338.8 386.44 338.9 386.36 339.01 386.27 339.04 386.25 Z"/>
</g></svg>