<svg xmlns="http://www.w3.org/2000/svg" version="1.2" baseProfile="tiny" stroke-linecap="round" stroke-linejoin="round" viewBox="109.08 83.8 13.75 12.93"><g xmlns="http://www.w3.org/2000/svg" id="Santurtzi">
<path d="M 110.19 83.82 110.22 83.84 110.29 83.88 110.32 83.9 110.35 83.92 110.39 83.94 110.43 83.96 110.47 83.98 110.5 84 110.6 84.07 110.63 84.09 110.66 84.11 110.7 84.13 110.73 84.15 110.84 84.22 110.9 84.27 110.93 84.29 111 84.34 111.04 84.36 111.07 84.38 111.11 84.4 111.15 84.42 111.18 84.44 111.22 84.46 111.26 84.49 111.3 84.51 111.33 84.54 111.36 84.57 111.4 84.59 111.43 84.62 111.47 84.63 111.5 84.66 111.54 84.68 111.61 84.72 111.65 84.74 111.68 84.76 111.72 84.79 111.76 84.81 111.79 84.83 111.83 84.85 111.86 84.88 111.9 84.9 111.93 84.92 111.97 84.94 112 84.96 112.04 84.98 112.07 85 112.11 85.03 112.16 85.07 112.21 85.1 112.27 85.14 112.3 85.16 112.31 85.17 112.36 85.2 112.39 85.22 112.43 85.24 112.49 85.26 112.54 85.3 112.57 85.32 112.6 85.34 112.72 85.41 112.76 85.43 112.79 85.45 112.82 85.47 112.85 85.49 112.91 85.53 112.97 85.57 113 85.59 113.05 85.62 113.1 85.66 113.14 85.7 113.17 85.74 113.2 85.78 113.23 85.82 113.27 85.85 113.3 85.89 113.33 85.92 113.35 85.95 113.36 85.98 113.36 86.02 113.36 86.06 113.38 86.09 113.42 86.11 113.45 86.13 113.5 86.14 113.53 86.14 113.58 86.15 113.61 86.16 113.65 86.16 113.69 86.16 113.73 86.16 113.78 86.16 113.82 86.16 113.87 86.17 113.91 86.17 113.95 86.18 113.99 86.2 113.99 86.21 113.98 86.24 113.91 86.24 113.85 86.23 113.76 86.24 113.7 86.24 113.67 86.27 113.66 86.29 113.69 86.31 113.74 86.33 113.78 86.34 113.84 86.36 113.87 86.4 113.87 86.44 113.86 86.47 113.88 86.5 113.91 86.52 113.95 86.55 113.98 86.56 114.01 86.58 114.06 86.57 114.1 86.55 114.14 86.55 114.18 86.56 114.26 86.6 114.3 86.61 114.39 86.65 114.43 86.66 114.47 86.68 114.54 86.72 114.58 86.74 114.63 86.76 114.66 86.79 114.7 86.82 114.72 86.84 114.73 86.88 114.74 86.91 114.78 86.93 114.81 86.95 114.85 86.96 114.89 86.98 114.93 86.99 114.97 87.01 115.01 87.03 115.04 87.05 115.08 87.07 115.13 87.1 115.19 87.12 115.24 87.13 115.29 87.15 115.33 87.17 115.38 87.19 115.43 87.2 115.48 87.21 115.52 87.22 115.56 87.24 115.59 87.26 115.7 87.32 115.76 87.35 115.8 87.37 115.83 87.39 115.85 87.42 115.85 87.45 115.86 87.49 115.89 87.52 115.92 87.55 115.96 87.56 116 87.57 116.04 87.57 116.09 87.57 116.12 87.57 116.15 87.54 116.17 87.51 116.19 87.49 116.23 87.45 116.26 87.43 116.29 87.42 116.34 87.43 116.37 87.46 116.39 87.47 116.43 87.47 116.48 87.44 116.5 87.41 116.53 87.38 116.55 87.35 116.58 87.31 116.62 87.28 116.66 87.24 116.69 87.21 116.73 87.17 116.76 87.13 116.8 87.1 116.83 87.06 116.87 87.02 116.91 86.99 116.94 86.95 116.98 86.92 117.02 86.89 117.05 86.85 117.09 86.82 117.13 86.78 117.17 86.75 117.23 86.69 117.27 86.66 117.3 86.62 117.34 86.59 117.38 86.55 117.42 86.51 117.47 86.47 117.51 86.43 117.55 86.39 117.59 86.35 117.63 86.32 117.68 86.28 117.72 86.24 117.76 86.2 117.8 86.16 117.84 86.11 117.89 86.07 117.93 86.03 118 85.94 118.04 85.9 118.09 85.85 118.13 85.82 118.16 85.78 118.2 85.74 118.24 85.7 118.28 85.67 118.32 85.63 118.36 85.6 118.39 85.56 118.45 85.49 118.49 85.45 118.52 85.42 118.56 85.38 118.6 85.36 118.64 85.33 118.68 85.3 118.73 85.28 118.78 85.25 118.89 85.21 118.94 85.18 118.98 85.15 119.04 85.12 119.1 85.09 119.15 85.06 119.2 85.03 119.25 84.99 119.31 84.96 119.38 84.93 119.43 84.9 119.48 84.87 119.53 84.84 119.59 84.82 119.63 84.79 119.68 84.76 119.72 84.74 119.77 84.71 119.85 84.67 119.89 84.65 119.93 84.62 119.96 84.6 120 84.58 120.03 84.56 120.07 84.55 120.1 84.53 120.14 84.52 120.17 84.5 120.21 84.47 120.24 84.46 120.26 84.46 120.28 84.5 120.34 84.61 120.28 84.67 120.22 84.65 120.18 84.66 120.14 84.67 120.11 84.7 120.07 84.72 120.04 84.75 120.01 84.77 120 84.79 120 84.83 120.01 84.87 120.07 84.87 119.62 85.68 120.2 85.78 120.16 86.29 118.41 86.04 117.75 86.78 119.95 87.11 120.01 87.12 119.99 87.2 119.92 87.22 119.88 87.25 119.89 87.32 120.3 87.38 120.42 87.38 120.49 87.34 120.5 87.25 120.43 87.24 120.44 87.18 120.57 87.2 120.41 88.15 118.45 87.88 117.31 87.09 117.01 87.41 118.79 88.58 121.17 88.94 121.04 89.64 121.85 90.08 122.17 90.77 122.33 91.14 122.63 91.62 122.4 92.22 122.5 92.25 122.62 92.3 122.73 92.36 122.82 92.42 122.79 92.45 122.83 92.6 122.82 92.62 122.78 92.65 122.66 92.76 122.6 92.81 122.55 92.87 122.43 92.96 122.3 93.05 121.78 93.28 121.67 93.31 121.55 93.34 121.5 93.41 121.03 93.13 120.85 93.08 120.67 93.03 120.56 93.01 120.51 92.99 120.44 92.98 120.39 92.98 120.33 92.98 120.28 93 120.23 93.02 120.19 93.04 120.14 93.07 120.1 93.11 120.06 93.15 120.02 93.18 120 93.21 120 93.22 119.96 93.29 119.95 93.3 119.96 93.32 120.2 93.67 119.76 94.43 119.75 94.45 120.2 94.63 119.9 94.95 119.89 94.98 119.85 95.12 119.72 95.37 118.4 96.4 118.39 96.41 118.39 96.41 118.35 96.44 118.29 96.44 118.23 96.43 118.18 96.43 118.13 96.46 118.06 96.55 118.03 96.59 117.99 96.63 117.95 96.67 117.9 96.7 117.84 96.72 117.72 96.72 117.61 96.72 117.55 96.71 117.45 96.69 117.43 96.69 117.41 96.69 117.39 96.69 117.3 96.62 117.25 96.6 117.2 96.58 117.03 96.54 116.98 96.52 116.93 96.51 116.87 96.49 116.83 96.46 116.79 96.42 116.75 96.38 116.7 96.38 116.65 96.4 116.61 96.37 116.56 96.34 116.51 96.33 116.48 96.32 116.43 96.31 116.4 96.21 116.38 96.16 116.36 96.11 116.34 96.06 116.33 96 116.29 95.96 116.26 95.91 116.25 95.86 116.23 95.81 116.18 95.77 116.15 95.74 115.88 95.6 115.87 95.55 115.87 95.5 115.86 95.49 115.82 95.44 115.77 95.41 115.73 95.38 115.68 95.36 115.62 95.37 115.57 95.34 115.57 95.33 115.56 95.3 115.54 95.28 115.51 95.27 115.49 95.26 115.46 95.26 115.43 95.27 115.41 95.28 115.38 95.3 115.36 95.31 115.33 95.31 115.3 95.3 115.26 95.28 115.23 95.26 115.19 95.25 115.17 95.24 115.15 95.23 114.75 95.22 114.72 95.23 114.7 95.23 114.67 95.23 114.62 95.22 114.57 95.2 114.54 95.19 114.52 95.2 114.49 95.21 114.46 95.22 114.41 95.2 114.33 95.2 114.3 95.2 114.27 95.21 114.24 95.21 114.22 95.2 114.17 95.18 114.14 95.17 114.12 95.17 114.06 95.19 114.04 95.2 114.02 95.2 113.99 95.19 113.97 95.17 113.95 95.13 113.93 95.11 113.88 95.09 113.81 95.07 113.78 95.06 113.76 95.04 113.75 95.03 113.74 94.98 113.73 94.96 113.71 94.94 113.68 94.92 113.58 94.85 113.53 94.82 113.51 94.81 113.49 94.79 113.45 94.75 113.42 94.71 113.4 94.69 113.38 94.68 113.35 94.68 113.32 94.69 113.3 94.69 113.27 94.68 113.24 94.67 113.2 94.63 113.15 94.61 113.12 94.6 113.09 94.6 113.07 94.58 113.05 94.57 112.99 94.56 112.95 94.53 112.89 94.54 112.86 94.53 112.84 94.52 112.81 94.51 112.79 94.5 112.77 94.48 112.75 94.46 112.74 94.43 112.69 94.4 112.68 94.37 112.67 94.35 112.65 94.33 112.63 94.33 112.61 94.35 112.58 94.36 112.52 94.35 112.45 94.32 112.42 94.31 112.4 94.29 112.38 94.27 112.37 94.25 112.34 94.2 112.31 94.15 112.29 94.11 112.27 94.08 112.25 94.06 112.23 94.05 112.21 94.03 112.19 93.98 112.17 93.96 112.1 93.91 112.09 93.89 112.08 93.86 112.07 93.84 112.04 93.82 112.02 93.81 111.99 93.8 111.94 93.79 111.88 93.78 111.83 93.76 111.8 93.75 111.78 93.74 111.74 93.72 111.71 93.71 111.69 93.71 111.66 93.71 111.63 93.72 111.6 93.73 111.56 93.7 111.53 93.68 111.49 93.64 111.43 93.58 111.4 93.53 111.38 93.52 111.33 93.5 111.3 93.48 111.2 93.45 111.17 93.44 111.15 93.42 111.1 93.39 111.08 93.38 111.05 93.37 111.02 93.37 110.99 93.37 110.97 93.39 110.94 93.4 110.92 93.4 110.89 93.38 110.87 93.37 110.78 93.3 110.76 93.28 110.74 93.25 110.72 93.19 110.69 93.11 110.99 92.22 110.9 92.16 110.95 92.05 111.17 92.19 111.3 91.85 111.58 91.57 111.99 91.17 112.26 90.79 112.52 90.42 111.84 89.65 111.63 89.42 111.57 89.37 110.5 88.52 110.07 88.02 109.11 87.21 109.39 86.47 109.57 85.83 109.51 84.54 110.19 83.82 Z"/>
</g></svg>