<svg xmlns="http://www.w3.org/2000/svg" version="1.2" baseProfile="tiny" stroke-linecap="round" stroke-linejoin="round" viewBox="534.27 442.95 30.53 22.78"><g xmlns="http://www.w3.org/2000/svg" id="Santakara">
<path d="M 554.62 443.87 554.67 443.89 554.77 443.92 554.78 443.93 554.8 443.93 554.81 443.94 555.09 444.02 555.17 444.05 555.22 444.06 555.23 444.07 555.24 444.07 555.26 444.07 555.47 444.13 555.52 444.15 555.55 444.15 555.63 444.19 555.68 444.2 555.72 444.22 555.75 444.22 555.79 444.23 555.9 444.25 555.93 444.26 555.95 444.26 556.05 444.29 556.09 444.3 556.17 444.32 556.25 444.34 556.28 444.35 556.33 444.35 556.42 444.37 556.44 444.37 556.45 444.38 556.52 444.39 556.58 444.4 556.69 444.42 556.74 444.44 556.9 444.47 556.94 444.48 557.04 444.49 557.2 444.52 557.21 444.52 557.23 444.52 557.24 444.52 557.28 444.54 557.36 444.55 557.38 444.56 557.5 444.58 557.59 444.6 557.6 444.6 557.62 444.61 557.71 444.63 557.96 444.67 557.97 444.68 558.05 444.76 558.11 444.83 558.14 444.86 558.18 444.91 558.26 445.01 558.37 445.13 558.41 445.17 558.45 445.21 558.48 445.23 558.48 445.25 558.49 445.31 558.5 445.34 558.5 445.36 558.51 445.48 558.51 445.53 558.51 445.57 558.51 445.62 558.52 445.67 558.52 445.71 558.53 445.74 558.53 445.99 558.54 446.1 558.54 446.23 558.55 446.34 558.55 446.35 558.55 446.41 558.55 446.47 558.55 446.5 558.54 446.58 558.53 446.8 558.52 446.95 558.52 446.97 558.52 447.02 558.51 447.12 558.48 447.23 558.48 447.25 558.48 447.28 558.47 447.38 558.44 447.53 558.42 447.61 558.42 447.64 558.41 447.73 558.4 447.76 558.37 447.87 558.27 448.1 558.24 448.17 558.17 448.32 558.17 448.34 558.17 448.37 558.18 448.42 558.17 448.48 558.17 448.52 558.15 448.58 558.15 448.65 558.12 448.85 558.1 449.02 558.1 449.08 558.08 449.19 558.07 449.24 558.06 449.37 558.05 449.44 558.04 449.47 558.03 449.57 558.03 449.62 558.02 449.67 558 449.74 557.97 449.87 557.97 449.89 557.98 449.95 557.98 449.98 558.02 450.26 558.02 450.34 558.07 450.52 558.11 450.66 558.15 450.79 558.16 450.92 558.17 450.95 558.17 450.98 558.2 451.11 558.22 451.23 558.23 451.27 558.24 451.3 558.28 451.51 558.32 451.68 558.32 451.7 558.35 451.79 558.37 451.92 558.4 452.04 558.45 452.18 558.46 452.28 558.52 452.54 558.54 452.6 558.58 452.77 558.58 452.78 558.6 452.83 558.64 453 558.7 453.28 558.72 453.34 558.75 453.48 558.76 453.52 558.78 453.59 558.79 453.6 558.81 453.66 558.81 453.66 558.98 453.93 558.99 453.99 559.03 454.09 559.06 454.17 559.11 454.28 559.12 454.29 559.13 454.38 559.15 454.52 559.18 454.63 559.2 454.75 559.22 454.84 559.24 454.91 559.39 455.42 559.57 456.08 559.57 456.09 559.58 456.1 559.58 456.11 559.58 456.12 559.59 456.13 559.59 456.14 559.59 456.15 559.72 456.54 559.74 456.58 559.77 456.6 559.79 456.62 559.81 456.64 559.82 456.65 560.1 456.91 560.1 456.92 560.11 456.93 560.22 457.03 560.23 457.04 560.24 457.04 560.35 457.13 560.36 457.14 560.38 457.15 560.4 457.17 560.49 457.23 560.61 457.27 560.66 457.29 560.73 457.33 560.76 457.34 560.86 457.4 561.06 457.51 561.2 457.65 561.39 457.85 561.58 458.07 561.76 458.29 561.9 458.49 562.03 458.67 562.19 458.91 562.38 459.22 562.47 459.37 562.51 459.43 562.54 459.49 562.54 459.49 562.65 459.63 562.8 459.82 562.88 459.92 562.89 459.93 563.05 460.15 563.06 460.16 563.19 460.33 563.28 460.45 563.29 460.46 563.7 460.98 563.71 461 563.95 461.3 564.08 461.46 564.1 461.49 564.21 461.63 564.23 461.67 564.24 461.7 564.24 461.74 564.24 461.75 564.25 461.81 564.26 461.82 564.27 461.93 564.29 462.07 564.3 462.21 564.3 462.33 564.3 462.35 564.31 462.43 564.33 462.57 564.35 462.66 564.36 462.71 564.36 462.74 564.36 462.76 564.36 462.77 564.36 462.78 564.38 462.91 564.38 462.93 564.38 462.94 564.38 462.95 564.45 463.27 564.5 463.59 564.5 463.6 564.5 463.6 564.54 463.72 564.61 463.96 564.64 464.07 564.68 464.15 564.69 464.16 564.7 464.19 564.73 464.25 564.75 464.31 564.78 464.38 564.79 464.46 564.8 464.55 564.79 464.63 564.75 464.63 564.7 464.64 564.67 464.65 564.41 464.69 564.19 464.72 564.1 464.74 563.84 464.78 563.62 464.79 563.55 464.79 563.33 464.8 563.05 464.8 562.98 464.81 562.93 464.81 562.9 464.81 562.73 464.86 562.71 464.86 562.68 464.87 562.59 464.89 562.48 464.92 562.36 464.95 562.31 464.96 562 465.06 561.99 465.04 561.99 465.01 562 464.95 562.01 464.91 562.03 464.87 562.05 464.82 562.03 464.74 562.01 464.65 562.01 464.62 562 464.58 562 464.53 562 464.49 562.01 464.41 562.02 464.35 562.03 464.3 562.03 464.22 562.03 464.15 562.03 464.14 562.04 464.04 562.04 463.91 562.04 463.89 562.05 463.77 562.05 463.7 562.05 463.65 562.05 463.58 562.05 463.54 562.05 463.53 562.05 463.5 562.06 463.49 562.06 463.45 562.06 463.42 562.06 463.39 562.06 463.37 562.07 463.33 562.09 463.27 562.11 463.22 562.12 463.17 562.14 463.11 562.15 463.09 562.15 463.06 562.15 463.05 562.16 463.03 562.16 463.02 562.14 463.01 562.13 463 562.09 462.98 562.06 462.96 562.01 462.92 561.97 462.89 561.94 462.87 561.92 462.84 561.9 462.82 561.87 462.79 561.86 462.76 561.84 462.73 561.83 462.7 561.81 462.66 561.8 462.61 561.78 462.55 561.77 462.48 561.75 462.38 561.74 462.33 561.73 462.27 561.71 462.19 561.7 462.13 561.69 462.11 561.69 462.1 561.69 462.1 561.66 462.09 561.63 462.09 561.61 462.09 561.58 462.09 561.56 462.1 561.52 462.11 561.49 462.13 561.44 462.16 561.42 462.17 561.38 462.19 561.33 462.22 561.31 462.23 561.27 462.26 561.22 462.28 561.21 462.3 561.18 462.31 561.15 462.33 561.1 462.35 561.08 462.36 561.06 462.37 561.03 462.37 561 462.39 560.96 462.4 560.93 462.4 560.9 462.4 560.87 462.41 560.85 462.41 560.83 462.42 560.82 462.43 560.8 462.43 560.78 462.44 560.76 462.44 560.72 462.44 560.65 462.44 560.59 462.44 560.55 462.43 560.52 462.44 560.51 462.44 560.47 462.44 560.43 462.44 560.39 462.44 560.37 462.43 560.35 462.43 560.31 462.43 560.28 462.43 560.26 462.43 560.22 462.41 560.18 462.4 560.12 462.38 560.04 462.35 559.98 462.32 559.94 462.3 559.93 462.3 559.89 462.28 559.85 462.27 559.83 462.26 559.82 462.25 559.79 462.24 559.77 462.22 559.74 462.19 559.71 462.17 559.69 462.17 559.68 462.17 559.67 462.17 559.65 462.17 559.64 462.17 559.62 462.18 559.55 462.21 559.52 462.22 559.49 462.23 559.46 462.23 559.42 462.23 559.38 462.23 559.34 462.23 559.3 462.23 559.26 462.22 559.23 462.22 559.2 462.21 559.18 462.2 559.16 462.2 559.13 462.19 559.11 462.18 559.09 462.16 559.06 462.14 559.01 462.11 558.97 462.08 558.96 462.08 558.95 462.07 558.94 462.07 558.93 462.08 558.91 462.08 558.9 462.09 558.88 462.1 558.85 462.1 558.79 462.1 558.62 462.1 558.59 462.08 558.57 462.07 558.54 462.05 558.53 462.04 558.5 462.03 558.48 462.02 558.46 462 558.44 461.98 558.43 461.97 558.41 461.95 558.39 461.94 558.36 461.93 558.34 461.93 558.33 461.92 558.31 461.9 558.3 461.88 558.28 461.86 558.27 461.84 558.25 461.81 558.22 461.79 558.17 461.75 558.13 461.71 558.1 461.69 558.06 461.66 557.99 461.62 557.97 461.61 557.93 461.59 557.9 461.56 557.87 461.55 557.79 461.5 557.75 461.47 557.74 461.46 557.73 461.45 557.7 461.42 557.68 461.39 557.66 461.36 557.62 461.33 557.59 461.32 557.56 461.3 557.53 461.28 557.48 461.24 557.41 461.19 557.31 461.13 557.26 461.11 557.24 461.1 557.23 461.09 557.21 461.09 557.18 461.08 557.07 461.06 557.03 461.06 556.99 461.05 556.98 461.05 556.95 461.03 556.93 461.02 556.9 461.01 556.88 461 556.85 460.99 556.81 460.98 556.79 460.98 556.76 460.97 556.72 460.97 556.68 460.97 556.64 460.97 556.56 460.97 556.53 460.97 556.49 460.98 556.46 460.98 556.42 460.99 556.35 461 556.32 461 556.31 461 556.28 461.01 556.24 461.01 556.17 461.01 556.14 461.01 556.1 461.01 556.09 461.01 556.04 461 556 460.99 555.96 460.99 555.94 460.98 555.92 460.97 555.9 460.97 555.88 460.97 555.86 460.97 555.84 460.97 555.83 460.96 555.8 460.96 555.76 460.95 555.72 460.94 555.68 460.92 555.65 460.92 555.61 460.91 555.57 460.91 555.53 460.91 555.45 460.91 555.37 460.92 555.29 460.93 555.23 460.94 555.15 460.94 555.08 460.95 555.03 460.95 554.99 460.96 554.97 460.96 554.95 460.96 554.91 460.97 554.87 460.98 554.83 460.99 554.79 461 554.48 461.11 554.36 461.15 554.39 461.69 554.49 462.43 554.53 463.07 554.53 463.24 554.5 463.3 554.43 463.36 553.66 463.56 553.36 463.6 553.17 463.61 553.05 463.59 552.92 463.53 552.78 463.45 552.63 463.34 552.5 463.19 552.35 462.96 552.26 462.71 552.24 462.52 552.24 461.88 552.25 461.59 552.23 461.44 552.17 461.31 552.09 461.19 551.96 461.06 551.81 460.96 551.63 460.9 551.63 460.83 551.62 460.75 551.62 460.72 551.62 460.71 551.62 460.66 551.61 460.61 551.6 460.55 551.59 460.49 551.58 460.43 551.56 460.38 551.55 460.34 551.54 460.32 551.53 460.3 551.52 460.29 551.52 460.28 551.51 460.27 551.49 460.24 551.48 460.24 551.43 460.21 551.42 460.2 551.41 460.19 551.32 460.13 551.31 460.13 551.21 460.06 551.19 460.05 551.11 460 551.08 459.97 551.03 459.94 550.99 459.91 550.97 459.9 550.92 459.86 550.91 459.85 550.9 459.85 550.88 459.83 550.85 459.8 550.8 459.75 550.29 459.97 549.9 460.2 549.67 460.4 549.52 460.58 549.44 460.73 549.4 460.86 549.39 461.03 549.43 461.22 549.51 461.44 549.62 461.68 549.71 462.02 549.84 462.45 549.88 462.6 549.94 462.84 549.87 463.1 549.86 463.11 549.85 463.16 549.76 463.37 549.63 463.62 549.51 463.79 549.4 463.93 549.32 464.01 549.21 464.1 549.06 464.2 548.98 464.24 548.87 464.29 548.76 464.34 548.63 464.4 548.49 464.45 548.36 464.49 548.2 464.54 548.12 464.57 548.04 464.6 547.99 464.61 547.96 464.61 547.91 464.62 547.87 464.62 547.81 464.62 547.76 464.62 547.7 464.61 547.64 464.6 547.54 464.58 547.52 464.51 547.48 464.42 547.45 464.35 547.42 464.27 547.39 464.21 547.35 464.14 547.31 464.07 547.29 464.03 547.28 464.02 547.23 463.96 547.17 463.88 547.12 463.82 547.08 463.78 547.06 463.74 547.05 463.73 547.05 463.73 547.02 463.68 546.99 463.65 546.96 463.6 546.91 463.55 546.86 463.49 546.81 463.44 546.75 463.37 546.68 463.32 546.62 463.25 546.56 463.19 546.5 463.14 546.44 463.08 546.4 463.03 546.36 463 546.33 462.97 546.3 462.95 546.27 462.93 546.22 462.9 546.19 462.89 546.15 462.87 546.11 462.86 546.05 462.84 546.01 462.84 545.93 462.82 545.87 462.81 545.82 462.8 545.77 462.79 545.75 462.78 545.72 462.78 545.68 462.77 545.62 462.77 545.56 462.76 545.5 462.76 545.45 462.75 545.41 462.75 545.37 462.76 545.33 462.76 545.28 462.76 545.25 462.76 545.2 462.75 545.16 462.74 545.12 462.73 545.08 462.72 545.05 462.71 545.03 462.71 545.02 462.71 544.99 462.73 544.96 462.74 544.9 462.77 544.83 462.8 544.79 462.83 544.74 462.85 544.71 462.87 544.67 462.9 544.64 462.93 544.62 462.96 544.61 463 544.58 463.06 544.57 463.12 544.56 463.16 544.53 463.23 544.51 463.32 544.48 463.4 544.45 463.51 544.43 463.6 544.42 463.67 544.41 463.73 544.4 463.77 544.4 463.82 544.4 463.86 544.4 463.88 544.4 463.91 544.41 463.96 544.42 464 544.44 464.07 544.47 464.15 544.49 464.18 544.49 464.2 544.49 464.22 544.5 464.25 544.5 464.32 544.49 464.38 544.49 464.47 544.49 464.53 544.5 464.58 544.5 464.63 544.51 464.67 544.51 464.71 544.51 464.75 544.5 464.78 544.5 464.85 544.48 464.9 544.47 464.97 544.44 465.04 544.42 465.1 544.4 465.15 544.38 465.2 544.36 465.23 544.34 465.27 544.32 465.29 544.29 465.33 544.26 465.36 544.2 465.41 544.16 465.44 544.12 465.46 544.1 465.48 544.05 465.5 544.02 465.52 543.97 465.53 543.92 465.55 543.87 465.56 543.81 465.57 543.75 465.58 543.7 465.58 543.64 465.59 543.61 465.6 543.53 465.61 543.48 465.63 543.16 465.7 543.14 465.7 543.13 465.7 543.05 465.45 542.97 465.21 542.93 465.1 542.91 465.04 542.89 464.99 542.87 464.93 542.63 464.54 542.51 464.34 542.42 464.19 542.35 464.08 542.3 464 542.25 463.93 542.21 463.87 542.19 463.83 542.15 463.74 542.08 463.59 542.04 463.52 542 463.4 541.96 463.25 541.93 463.16 541.89 463.07 541.85 462.97 541.81 462.89 541.76 462.8 541.73 462.74 541.69 462.68 541.66 462.64 541.63 462.61 541.59 462.57 541.56 462.54 541.52 462.51 541.46 462.47 541.42 462.44 541.37 462.41 541.31 462.39 541.23 462.36 541.17 462.34 541.11 462.33 541.06 462.32 541.01 462.32 540.94 462.32 540.86 462.32 540.8 462.31 540.75 462.31 540.68 462.3 540.6 462.29 540.54 462.28 540.46 462.26 540.38 462.24 540.32 462.23 540.27 462.21 540.21 462.19 540.13 462.17 540.04 462.13 539.93 462.09 539.86 462.07 539.82 462.05 539.77 462.04 539.72 462.02 539.66 462.01 539.62 462.01 539.56 462.01 539.52 462.01 539.48 462.01 539.43 462.01 539.38 462.01 539.34 462.02 539.3 462.03 539.27 462.03 539.23 462.04 539.19 462.05 539.08 462.09 539.02 462.12 538.96 462.14 538.9 462.18 538.84 462.21 538.79 462.25 538.74 462.29 538.71 462.31 538.67 462.34 538.62 462.39 538.56 462.44 538.5 462.35 538.48 462.33 538.48 462.32 538.47 462.31 538.46 462.29 538.42 462.21 538.41 462.2 538.4 462.19 538.39 462.17 538.37 462.13 538.36 462.12 538.36 462.08 538.35 462.03 538.35 461.99 538.36 461.97 538.36 461.91 538.36 461.86 538.35 461.82 538.31 461.75 538.31 461.74 538.3 461.73 538.3 461.72 538.27 461.68 538.25 461.6 538.2 461.46 538.17 461.37 538.16 461.31 538.16 461.29 538.15 461.23 538.13 461.19 538.11 461.13 538.09 461.05 538.07 460.97 538.05 460.89 538.01 460.79 538 460.77 537.98 460.73 537.94 460.65 537.83 460.29 537.71 459.91 537.53 459.39 537.33 458.77 537.03 457.81 537.02 457.79 537.02 457.78 537.01 457.75 537 457.71 536.93 457.47 536.92 457.42 536.92 457.41 536.91 457.39 536.91 457.38 536.88 457.37 536.85 457.37 536.83 457.37 536.61 457.36 536.33 457.34 536.11 457.42 535.98 457.47 535.91 457.51 535.7 457.62 535.68 457.64 535.53 457.73 535.49 457.74 535.44 457.75 535.43 457.75 535.17 457.79 535.16 457.79 535.14 457.8 535.04 457.81 534.95 457.79 534.92 457.78 534.87 457.77 534.81 457.76 534.8 457.76 534.68 457.73 534.56 457.7 534.54 457.69 534.52 457.69 534.51 457.68 534.43 457.67 534.38 457.65 534.29 457.63 534.35 457.4 534.38 457.13 534.42 456.88 534.46 456.62 534.51 456.31 534.54 456.03 534.56 455.88 534.63 455.48 534.63 455.47 534.65 455.34 534.69 455.1 534.72 454.98 534.78 454.66 534.79 454.58 534.81 454.46 534.81 454.45 534.82 454.44 534.85 454.28 534.91 454.02 534.96 453.8 534.99 453.7 535.01 453.6 535.06 453.36 535.09 453.23 535.22 452.71 535.25 452.6 535.3 452.38 535.3 452.38 535.3 452.37 535.31 452.33 535.33 452.26 535.37 452.16 535.38 452.15 535.39 452.13 535.42 452.09 535.46 452.04 535.51 451.97 535.55 451.89 535.58 451.82 535.62 451.76 535.66 451.7 535.71 451.62 535.77 451.52 535.94 451.23 535.96 451.2 535.96 451.2 536.01 451.11 536.16 450.85 536.27 450.68 536.32 450.6 536.39 450.5 536.45 450.43 536.51 450.35 536.58 450.26 536.76 450.08 536.82 450.01 536.96 449.86 537.03 449.77 537.24 449.52 537.48 449.24 537.49 449.22 537.5 449.21 537.5 449.2 537.63 449.06 537.76 448.92 537.77 448.9 537.81 448.86 537.83 448.83 537.88 448.79 537.98 448.68 537.99 448.67 538.17 448.49 538.36 448.3 538.55 448.13 538.74 447.95 538.94 447.78 539.04 447.71 539.15 447.62 539.17 447.6 539.25 447.55 539.35 447.47 539.45 447.4 539.57 447.32 539.68 447.24 539.76 447.2 539.78 447.19 539.91 447.11 540.07 447.02 540.23 446.92 540.69 446.66 540.7 446.66 540.72 446.65 540.79 446.61 540.94 446.53 541.09 446.44 541.21 446.37 541.34 446.29 541.4 446.25 541.51 446.2 541.55 446.19 541.77 446.09 541.78 446.09 541.86 446.05 542.12 445.94 542.38 445.83 542.39 445.83 542.44 445.81 542.67 445.7 542.84 445.61 542.99 445.55 543.29 445.43 543.55 445.32 543.72 445.25 543.89 445.17 543.99 445.13 544 445.11 544.09 445.07 544.46 444.88 544.66 444.78 544.7 444.75 544.76 444.71 544.88 444.65 544.9 444.64 544.92 444.63 544.93 444.62 545.1 444.52 545.12 444.51 545.22 444.45 545.25 444.43 545.28 444.42 545.34 444.41 545.4 444.36 545.5 444.3 545.57 444.25 545.64 444.22 545.69 444.22 545.77 444.19 545.89 444.14 545.99 444.09 546.15 444.02 546.18 444.01 546.36 443.93 546.51 443.84 546.63 443.79 546.76 443.76 546.86 443.73 546.91 443.73 547.02 443.71 547.1 443.68 547.13 443.66 547.21 443.64 547.3 443.63 547.37 443.61 547.39 443.61 547.45 443.59 547.53 443.55 547.59 443.5 547.62 443.48 547.64 443.47 547.69 443.45 547.76 443.43 547.84 443.4 547.86 443.39 547.93 443.36 548.11 443.28 548.25 443.22 548.36 443.18 548.45 443.15 548.58 443.13 548.73 443.08 548.84 443.05 548.94 443.03 549.07 443.03 549.18 443.02 549.3 443 549.39 442.98 549.49 442.97 549.55 442.96 549.64 442.96 549.74 442.95 549.77 442.95 549.83 442.96 549.9 442.99 549.92 442.99 549.95 443 549.97 443.01 550.06 443.05 550.19 443.08 550.25 443.1 550.29 443.11 550.39 443.14 550.46 443.15 550.52 443.16 550.6 443.16 550.69 443.16 550.7 443.16 550.74 443.16 550.76 443.16 550.81 443.16 550.86 443.16 550.9 443.17 550.92 443.17 550.94 443.17 550.96 443.17 551.03 443.18 551.15 443.18 551.25 443.18 551.38 443.17 551.4 443.17 551.42 443.17 551.46 443.18 551.47 443.18 551.5 443.18 551.62 443.21 551.77 443.24 551.78 443.24 551.87 443.25 551.95 443.26 552.06 443.26 552.12 443.26 552.19 443.26 552.44 443.25 552.63 443.24 552.66 443.24 552.74 443.24 552.83 443.24 552.91 443.25 552.99 443.26 553.05 443.27 553.15 443.31 553.28 443.35 553.3 443.35 553.31 443.36 553.32 443.36 553.32 443.36 553.33 443.37 553.42 443.4 553.44 443.41 553.5 443.43 553.57 443.46 553.66 443.5 553.69 443.52 553.78 443.55 553.8 443.56 553.88 443.58 553.9 443.59 553.92 443.59 553.99 443.62 554.1 443.68 554.24 443.73 554.29 443.75 554.45 443.81 554.62 443.87 Z"/>
</g></svg>