<svg xmlns="http://www.w3.org/2000/svg" version="1.2" baseProfile="tiny" stroke-linecap="round" stroke-linejoin="round" viewBox="518.15 82.77 29.85 35.93"><g xmlns="http://www.w3.org/2000/svg" id="Sara">
<path d="M 518.16 96.01 518.21 95.97 518.72 95.51 519.04 95.25 519.58 94.82 519.71 94.72 519.76 94.68 519.8 94.64 519.89 94.57 520.14 94.36 520.32 94.21 520.46 94.09 520.54 93.99 520.63 93.86 520.75 93.7 521.15 93.16 521.38 92.85 521.51 92.67 521.82 92.26 521.85 92.23 522.01 92.12 522.6 91.7 522.66 91.65 522.68 91.64 522.76 91.58 522.78 91.57 522.99 91.42 523.51 91.04 524.45 90.35 524.68 90.18 524.7 90.17 524.8 90.07 524.83 90.03 524.85 90.01 524.92 89.95 524.97 89.9 525.02 89.84 525.05 89.82 525.07 89.79 525.1 89.75 525.16 89.66 525.24 89.56 525.27 89.52 525.32 89.46 525.38 89.38 525.46 89.27 525.53 89.18 525.58 89.11 525.68 89 525.82 88.8 525.85 88.75 525.87 88.73 525.97 88.6 525.99 88.58 526.05 88.52 526.09 88.47 526.1 88.44 526.11 88.43 526.13 88.41 526.27 88.22 526.34 88.11 526.41 88 526.42 87.98 526.56 87.8 526.57 87.79 526.72 87.65 526.91 87.48 526.93 87.46 526.98 87.41 527.12 87.21 527.36 86.85 527.46 86.7 527.76 86.25 527.91 86.04 527.96 85.96 528 85.9 528.05 85.82 528.07 85.79 528.14 85.65 528.81 84.46 528.87 84.37 529.14 83.9 529.34 83.51 529.38 83.43 530.1 83.23 530.29 83.18 530.7 83.06 530.87 83.02 531.62 82.81 531.69 82.79 531.75 82.84 531.83 82.91 532.4 83.38 532.72 83.74 532.99 84.04 533.38 84.65 533.44 84.68 533.9 84.93 534.2 85.1 534.22 85.11 534.25 85.12 534.29 85.14 534.52 85.27 534.81 85.43 535.01 85.54 535.07 85.57 535.19 85.64 535.29 85.7 535.35 85.73 535.46 85.79 535.62 85.88 535.75 85.95 535.86 86.02 535.89 86.04 536.53 86.33 536.6 86.36 536.72 86.42 536.77 86.44 536.83 86.46 536.99 86.54 537.07 86.57 537.4 86.72 537.97 86.98 538.09 87.04 538.1 87.04 538.14 87.04 538.19 87.05 538.3 87.15 538.31 87.16 538.42 87.27 538.46 87.32 538.52 87.38 538.67 87.53 538.73 87.6 539.06 87.93 539.57 88.45 539.57 88.46 539.75 88.62 540.19 89.02 540.2 89.44 540.19 89.45 540.15 89.69 540.14 89.77 540.1 90.01 540.08 90.12 540.08 90.13 540.11 90.8 540.11 90.83 540.12 90.85 540.18 90.94 540.26 91.09 540.35 91.24 540.39 91.26 540.4 91.27 540.4 91.28 540.43 91.29 540.47 91.31 540.56 91.35 540.58 91.36 540.59 91.36 540.61 91.37 540.62 91.37 540.63 91.38 540.63 91.38 540.65 91.39 540.67 91.4 540.69 91.4 540.72 91.41 540.74 91.42 540.76 91.44 540.78 91.45 540.82 91.47 540.85 91.48 540.87 91.49 540.89 91.49 540.9 91.5 540.9 91.5 540.92 91.51 540.99 91.56 541.02 91.58 541.05 91.6 541.07 91.62 541.1 91.64 541.45 91.87 541.49 91.9 541.5 91.91 541.53 91.93 541.79 92.11 541.84 92.14 541.87 92.17 541.89 92.18 542.2 92.39 542.32 92.47 542.64 92.58 542.82 92.65 542.88 92.67 543.32 92.83 543.34 92.83 543.38 92.85 543.81 92.99 544.2 93.13 544.65 93.28 544.68 93.29 544.73 93.3 544.79 93.31 544.91 93.33 544.96 93.34 545.11 93.37 545.28 93.39 545.35 93.4 545.38 93.41 545.42 93.43 545.43 93.43 545.49 93.62 545.73 94.42 545.75 94.53 545.77 94.58 545.78 94.66 545.8 94.78 545.82 94.89 545.82 94.92 545.82 94.94 545.8 94.96 545.81 94.98 545.83 95.05 545.84 95.09 545.85 95.13 545.87 95.23 545.9 95.36 545.92 95.48 545.92 95.52 545.95 95.57 545.97 95.64 545.97 95.67 545.97 95.7 545.98 95.74 546 95.84 546.01 95.88 546.01 96.01 546.01 96.08 546.01 96.13 546.01 96.16 546.05 96.4 546.06 96.48 546.07 96.56 546.09 96.67 546.11 96.75 546.13 96.79 546.14 96.82 546.15 96.84 546.16 96.86 546.15 96.89 546.14 96.95 546.15 97.05 546.21 97.26 546.22 97.31 546.26 97.44 546.26 97.45 546.17 97.99 546.17 98.01 546.19 98.03 546.22 98.08 546.27 98.12 546.3 98.17 546.33 98.23 546.36 98.29 546.39 98.34 546.43 98.42 546.46 98.49 546.47 98.51 546.48 98.54 546.5 98.58 546.54 98.67 546.58 98.75 546.71 99 546.76 99.1 546.81 99.14 546.9 99.26 546.97 99.38 547.16 99.72 547.3 99.94 547.39 100.08 547.4 100.15 547.4 100.18 547.42 100.34 547.43 100.38 547.78 101.06 547.84 101.18 547.87 101.3 547.89 101.35 547.96 101.5 547.98 101.53 547.77 101.53 547.7 101.53 547.67 101.53 547.55 101.52 547.36 101.51 547.29 101.47 547.25 101.46 547.04 101.36 547.02 101.34 546.93 101.3 546.85 101.24 546.73 101.18 546.62 101.13 546.54 101.09 546.36 101.27 546.25 101.37 546.14 101.48 545.98 101.64 545.73 101.88 545.51 102.1 545.35 102.26 545.34 102.27 545.29 102.31 545.27 102.32 545.24 102.31 545.2 102.3 545.14 102.28 545.11 102.28 544.99 102.24 544.81 102.19 544.72 102.17 544.63 102.16 544.53 102.15 544.44 102.14 544.38 102.13 544.31 102.1 544.27 102.09 544.12 102.05 544.03 102.04 543.98 102.05 543.81 102.09 543.68 102.13 543.52 102.16 543.34 102.2 543.24 102.22 543.17 102.25 543.1 102.27 543.05 102.27 542.99 102.28 542.93 102.28 542.91 102.27 542.86 102.25 542.82 102.24 542.8 102.23 542.73 102.23 542.38 102.24 542.11 102.23 541.88 102.23 541.66 102.29 541.5 102.34 541.36 102.38 541.26 102.42 541.1 102.47 540.87 102.54 540.78 102.56 540.75 102.57 540.41 102.65 540.39 102.66 540.37 102.68 540.32 102.71 540.3 102.72 540.22 102.76 540.14 102.81 540.13 102.82 540.06 102.85 539.98 102.9 539.92 102.94 539.88 102.96 539.86 102.97 539.82 102.97 539.77 102.98 539.73 103 539.7 103.01 539.65 103.05 539.57 103.08 539.49 103.12 539.41 103.16 539.34 103.19 539.28 103.23 539.22 103.27 539.12 103.32 538.99 103.38 538.9 103.42 538.83 103.45 538.76 103.49 538.63 103.56 538.5 103.63 538.42 103.67 538.33 103.72 538.27 103.75 538.22 103.78 538.18 103.8 538.15 103.81 538.1 103.82 538.13 103.9 538.17 103.99 538.17 104 538.19 104.06 538.2 104.1 538.21 104.21 538.21 104.22 538.21 104.25 538.23 104.31 538.24 104.33 538.25 104.37 538.26 104.41 538.26 104.43 538.26 104.45 538.26 104.5 538.27 104.53 538.28 104.56 538.3 104.63 538.33 104.7 538.36 104.75 538.37 104.76 538.42 104.85 538.44 104.87 538.49 104.97 538.5 104.99 538.51 105.01 538.51 105.05 538.51 105.12 538.51 105.15 538.52 105.17 538.56 105.19 538.68 105.25 538.78 105.3 538.85 105.34 538.86 105.34 538.87 105.35 538.92 105.35 539.01 105.35 539.09 105.35 539.1 105.35 539.14 105.35 539.17 105.34 539.23 105.35 539.3 105.33 539.35 105.31 539.42 105.31 539.46 105.3 539.53 105.3 539.54 105.3 539.56 105.31 539.57 105.32 539.58 105.36 539.58 105.4 539.6 105.44 539.62 105.46 539.64 105.48 539.69 105.57 539.7 105.59 539.71 105.63 539.71 105.66 539.71 105.7 539.71 105.72 539.71 105.74 539.71 105.76 539.71 105.77 539.71 105.78 539.72 105.79 539.75 105.85 539.78 105.92 539.79 105.95 539.83 106.03 539.89 106.15 539.94 106.23 539.94 106.24 539.98 106.32 540 106.39 540.01 106.45 540.03 106.49 540.06 106.55 540.09 106.6 540.13 106.67 540.16 106.74 540.2 106.79 540.25 106.83 540.32 106.88 540.33 106.88 540.39 106.94 540.43 107 540.43 107.04 540.43 107.1 540.42 107.15 540.41 107.19 540.4 107.21 540.39 107.26 540.37 107.28 540.34 107.3 540.32 107.32 540.31 107.33 540.29 107.35 540.26 107.38 540.24 107.43 540.23 107.46 540.2 107.55 540.17 107.61 540.15 107.69 540.12 107.76 540.12 107.81 540.12 107.84 540.14 107.9 540.14 107.93 540.14 107.97 540.13 108.01 540.12 108.05 540.11 108.14 540.07 108.23 540.06 108.24 540.06 108.25 540.04 108.3 540 108.36 539.95 108.42 539.9 108.48 539.83 108.55 539.8 108.58 539.77 108.61 539.7 108.66 539.62 108.71 539.54 108.76 539.5 108.8 539.46 108.86 539.44 108.91 539.43 108.94 539.43 108.97 539.43 109.02 539.44 109.07 539.44 109.08 539.45 109.11 539.45 109.14 539.49 109.23 539.49 109.24 539.5 109.27 539.51 109.31 539.52 109.32 539.52 109.35 539.54 109.4 539.54 109.5 539.55 109.57 539.55 109.57 539.55 109.61 539.53 109.67 539.53 109.68 539.53 109.69 539.52 109.7 539.49 109.75 539.49 109.76 539.46 109.8 539.43 109.87 539.41 109.93 539.41 109.94 539.37 109.99 539.35 110.03 539.34 110.04 539.3 110.08 539.25 110.12 539.2 110.15 539.18 110.17 539.17 110.19 539.16 110.22 539.14 110.26 539.13 110.34 539.11 110.41 539.09 110.46 539.07 110.51 539.06 110.53 539.04 110.57 539.02 110.62 539.01 110.64 539 110.66 538.97 110.68 538.96 110.68 538.94 110.69 538.92 110.71 538.88 110.77 538.87 110.82 538.86 110.84 538.84 110.85 538.8 110.87 538.78 110.88 538.76 110.9 538.74 110.94 538.71 111.02 538.68 111.12 538.65 111.18 538.65 111.21 538.65 111.25 538.65 111.31 538.65 111.32 538.65 111.34 538.66 111.35 538.66 111.36 538.66 111.38 538.67 111.42 538.68 111.45 538.66 111.52 538.62 111.59 538.54 111.7 538.54 111.71 538.44 111.83 538.42 111.87 538.41 111.9 538.4 111.94 538.41 111.98 538.42 112 538.42 112.02 538.43 112.03 538.46 112.06 538.47 112.08 538.49 112.12 538.5 112.18 538.51 112.23 538.5 112.29 538.49 112.32 538.48 112.34 538.48 112.34 538.44 112.46 538.41 112.54 538.36 112.68 538.36 112.7 538.34 112.73 538.32 112.79 538.22 113.08 538.14 113.29 538.13 113.32 538.07 113.51 537.84 114.17 537.65 114.68 537.44 115.28 537.26 115.78 537.13 116.14 537.01 116.46 536.82 116.71 536.67 116.9 536.49 117.16 536.37 117.34 536.2 117.6 535.91 117.89 535.66 118.12 535.6 118.23 535.53 118.37 535.51 118.41 535.49 118.48 535.47 118.55 535.46 118.61 535.46 118.66 535.47 118.69 535.46 118.69 535.37 118.7 535.28 118.7 535.15 118.7 535.11 118.66 535.06 118.61 534.99 118.55 534.92 118.48 534.85 118.42 534.84 118.41 534.79 118.36 534.73 118.3 534.66 118.24 534.61 118.19 534.53 118.12 534.48 118.07 534.42 118.02 534.36 117.96 534.3 117.9 534.24 117.84 534.16 117.77 534.1 117.71 534.07 117.68 533.98 117.6 533.89 117.51 533.83 117.46 533.78 117.41 533.71 117.35 533.64 117.27 533.54 117.29 533.45 117.3 533.19 117.33 533.09 117.34 532.99 117.36 532.98 117.36 532.97 117.36 532.88 117.37 532.79 117.38 532.58 117.4 532.48 117.42 532.38 117.43 532.34 117.43 532.3 117.44 532.29 117.44 532.24 117.45 532.2 117.45 532.14 117.46 532.09 117.46 532.05 117.46 532.01 117.46 531.97 117.46 531.89 117.46 531.86 117.46 531.8 117.46 531.71 117.45 531.62 117.45 531.53 117.45 531.45 117.44 531.38 117.44 531.28 117.44 531.22 117.43 531.2 117.43 531.15 117.41 531.11 117.39 531.08 117.38 531.01 117.35 530.95 117.32 530.91 117.31 530.79 117.28 530.69 117.26 530.62 117.24 530.57 117.23 530.54 117.22 530.46 117.19 530.38 117.15 530.32 117.13 530.26 117.13 530.17 117.14 530.08 117.14 530.03 117.14 529.93 117.12 529.83 117.11 529.57 117.08 529.46 117.06 529.36 117.05 529.25 117.04 529.21 117.05 529.13 117.09 529.04 117.13 528.91 117.18 528.83 117.21 528.77 117.2 528.69 117.18 528.62 117.15 528.55 117.13 528.49 117.12 528.42 117.1 528.39 117.09 528.37 117.1 528.35 117.1 527.94 117.35 527.2 117.79 526.83 118.01 526.43 118.07 526.42 118.08 525.91 118.16 525.62 117.5 525.61 117.47 525.41 117.04 524.99 116.96 524.9 116.94 524.89 116.94 524.87 116.94 524.83 116.91 524.82 116.9 524.49 116.69 524.42 116.63 524.38 116.6 524.13 116.43 523.78 116.18 523.7 116.13 523.45 115.95 523.35 115.87 523.22 115.58 523.18 115.48 523.14 115.38 523.11 115.32 523.05 115.16 522.97 115 522.94 114.93 522.94 114.92 522.93 114.9 522.88 114.77 522.85 114.67 522.84 114.65 522.81 114.6 522.75 114.51 522.69 114.44 522.58 114.27 522.54 114.22 522.42 114.05 522.3 113.88 522.19 113.71 522.13 113.63 522.12 113.59 522.06 113.31 521.84 112.35 521.68 111.63 521.59 111.17 521.55 110.97 521.53 110.93 521.51 110.91 521.43 110.9 520.99 110.87 520.97 110.79 520.92 110.39 520.91 110.12 520.69 109.24 520.59 108.86 520.41 108.12 520.21 107.15 520.17 106.94 519.97 106.3 519.96 106.27 519.94 106.22 519.93 106.18 519.91 106.12 519.9 106.1 519.88 106.08 519.86 106.05 519.84 106.03 519.82 106 519.8 105.98 519.78 105.95 519.76 105.93 519.74 105.9 519.72 105.89 519.71 105.87 519.7 105.86 519.69 105.85 519.68 105.84 519.67 105.83 519.66 105.82 519.64 105.8 519.62 105.78 519.61 105.78 519.6 105.77 519.6 105.76 519.59 105.75 519.58 105.74 519.58 105.73 519.57 105.72 519.57 105.71 519.55 105.67 519.54 105.67 519.54 105.65 519.53 105.64 519.52 105.62 519.52 105.61 519.51 105.6 519.51 105.59 519.5 105.58 519.5 105.57 519.49 105.56 519.49 105.55 519.48 105.54 519.48 105.53 519.74 104.47 519.74 104.46 519.74 104.45 519.74 104.44 519.74 104.43 519.74 104.42 519.74 104.41 519.73 104.4 519.73 104.4 519.72 104.39 519.72 104.38 519.7 104.35 519.7 104.34 519.69 104.33 519.69 104.31 519.68 104.3 519.68 104.29 519.68 104.28 519.67 104.27 519.67 104.26 519.67 104.25 519.67 104.24 519.67 104.23 519.66 104.22 519.66 104.21 519.66 104.2 519.66 104.19 519.66 104.17 519.66 104.16 519.65 104.15 519.65 104.14 519.65 104.13 519.65 104.12 519.65 104.11 519.65 104.09 519.65 104.08 519.65 104.07 519.65 104.06 519.65 104.04 519.65 104.03 519.65 104.02 519.65 104.01 519.65 104 519.65 103.99 519.65 103.98 519.65 103.97 519.66 103.96 519.66 103.94 519.66 103.92 519.67 103.89 519.67 103.86 519.68 103.85 519.68 103.81 519.69 103.78 519.69 103.77 519.69 103.76 519.69 103.75 519.69 103.74 519.7 103.73 519.7 103.72 519.71 103.7 519.71 103.69 519.71 103.68 519.72 103.67 519.72 103.66 519.72 103.65 519.73 103.64 519.73 103.63 519.74 103.62 519.74 103.61 519.75 103.6 519.75 103.6 519.76 103.59 519.76 103.58 519.77 103.57 519.77 103.56 519.78 103.55 519.79 103.54 519.79 103.54 519.8 103.53 519.81 103.52 519.82 103.51 519.84 103.49 519.84 103.48 519.85 103.47 519.86 103.47 519.89 103.43 519.9 103.41 519.91 103.41 519.91 103.4 519.92 103.39 519.92 103.38 519.93 103.37 519.94 103.36 519.94 103.35 519.94 103.35 519.95 103.34 519.95 103.33 519.96 103.32 519.96 103.31 519.97 103.3 519.99 103.26 519.99 103.25 519.99 103.24 520 103.23 520 103.22 520.01 103.21 520.01 103.21 520.02 103.2 520.04 103.16 520.05 103.14 520.06 103.13 520.06 103.12 520.07 103.11 520.07 103.1 520.07 103.09 520.08 103.08 520.08 103.07 520.09 103.06 520.09 103.05 520.1 103.04 520.1 103.03 520.1 103.02 520.11 103.01 520.11 103 520.11 102.99 520.11 102.98 520.12 102.97 520.12 102.96 520.12 102.95 520.12 102.94 520.12 102.93 520.13 102.92 520.13 102.91 520.13 102.9 520.13 102.89 520.13 102.85 520.13 102.84 520.13 102.81 520.13 102.79 520.13 102.77 520.13 102.76 520.06 102.7 520.05 102.69 520.04 102.68 520.04 102.67 520.03 102.66 520.03 102.65 520.03 102.64 520.02 102.63 520.02 102.62 520.01 102.61 520.01 102.6 520.01 102.59 520 102.58 520 102.57 520 102.56 520 102.55 519.99 102.54 519.99 102.53 519.99 102.52 519.99 102.51 519.99 102.5 519.98 102.49 519.98 102.48 519.98 102.47 519.98 102.46 519.99 102.45 519.99 102.44 519.99 102.43 519.99 102.42 519.99 102.41 519.99 102.39 520 102.38 520 102.37 520.01 102.36 520.01 102.35 520.01 102.34 520.02 102.33 520.04 102.29 520.04 102.27 520.05 102.26 520.05 102.25 520.06 102.23 520.06 102.21 520.07 102.2 520.08 102.16 520.1 102.1 520.1 102.1 520.1 102.09 520.11 102.06 520.12 102.04 520.12 102.03 520.12 102.02 520.13 102.01 520.13 102 520.13 101.99 520.14 101.98 520.14 101.97 520.15 101.96 520.15 101.96 520.16 101.94 520.17 101.93 520.17 101.92 520.18 101.91 520.18 101.9 520.19 101.89 520.19 101.88 520.2 101.87 520.21 101.85 520.22 101.83 520.27 101.75 520.29 101.73 520.31 101.69 520.36 101.62 520.46 101.46 520.51 101.39 520.53 101.36 520.54 101.35 520.55 101.33 520.55 101.31 520.57 101.28 520.59 101.26 520.6 101.23 520.62 101.19 520.66 101.11 520.69 101.07 520.72 101.01 520.79 100.88 520.83 100.79 520.92 100.63 520.95 100.58 520.97 100.54 520.98 100.52 521 100.48 521.01 100.45 521.03 100.43 521.04 100.41 521.04 100.4 521.07 100.34 521.09 100.29 521.12 100.23 521.14 100.18 521.2 100.07 521.22 100.01 521.25 99.95 521.28 99.89 521.29 99.86 521.3 99.84 521.32 99.8 521.34 99.75 521.4 99.6 521.43 99.54 521.45 99.5 521.48 99.43 521.49 99.43 521.51 99.37 521.54 99.31 521.57 99.26 521.59 99.2 521.61 99.16 521.56 98.9 521.39 98.11 521.26 97.51 521.19 97.19 521.17 97.1 521.15 97.07 521.14 97.06 521.13 97.06 521.12 97.05 521.12 97.04 521.11 97.04 521.1 97.03 521.09 97.02 521.08 97.02 521.08 97.01 521.07 97 521.05 96.99 521.04 96.99 521.04 96.98 521.03 96.97 521.02 96.97 521.01 96.96 521 96.96 520.99 96.95 520.98 96.94 520.97 96.94 520.96 96.93 520.95 96.93 520.94 96.92 520.93 96.92 520.93 96.92 520.92 96.91 520.91 96.91 520.9 96.9 520.89 96.9 520.88 96.9 520.87 96.9 520.86 96.89 520.85 96.89 520.84 96.89 520.8 96.88 520.79 96.88 520.78 96.87 520.77 96.87 520.76 96.87 520.74 96.87 520.72 96.86 520.67 96.85 520.64 96.84 520.62 96.83 520.6 96.83 520.58 96.82 520.56 96.82 520.54 96.82 520.48 96.8 520.45 96.8 520.43 96.79 520.37 96.78 520.35 96.77 520.34 96.77 520.33 96.77 520.31 96.77 520.31 96.77 520.3 96.76 520.29 96.76 520.28 96.76 520.27 96.76 520.24 96.76 520.21 96.76 520.19 96.75 520.16 96.75 520.12 96.74 520.08 96.74 520.06 96.74 520.02 96.74 520 96.74 519.98 96.74 519.96 96.74 519.95 96.74 519.94 96.74 519.93 96.74 519.89 96.74 519.85 96.74 519.83 96.74 519.82 96.74 519.81 96.74 519.79 96.74 519.78 96.74 519.77 96.73 519.76 96.73 519.74 96.73 519.72 96.73 519.68 96.72 519.65 96.72 519.62 96.71 519.6 96.71 519.59 96.71 519.58 96.71 519.55 96.7 519.53 96.7 519.52 96.69 519.51 96.69 519.5 96.69 519.49 96.69 519.48 96.68 519.47 96.68 519.33 96.69 519.3 96.69 519.19 96.69 519.17 96.69 519.16 96.68 519.14 96.68 519.12 96.68 519.1 96.68 519.09 96.68 519.08 96.68 519.07 96.68 519.06 96.69 519.04 96.69 519.03 96.69 519.02 96.69 519.01 96.69 519 96.69 518.99 96.68 518.96 96.68 518.94 96.68 518.93 96.68 518.92 96.68 518.91 96.68 518.89 96.68 518.88 96.68 518.87 96.68 518.86 96.68 518.82 96.68 518.8 96.68 518.79 96.68 518.78 96.68 518.77 96.68 518.76 96.68 518.75 96.68 518.73 96.67 518.72 96.67 518.71 96.67 518.7 96.67 518.69 96.67 518.68 96.66 518.67 96.66 518.66 96.65 518.65 96.64 518.64 96.63 518.64 96.62 518.64 96.61 518.64 96.6 518.64 96.59 518.64 96.58 518.64 96.57 518.65 96.56 518.65 96.55 518.65 96.54 518.65 96.53 518.65 96.51 518.64 96.51 518.63 96.5 518.63 96.49 518.62 96.48 518.61 96.47 518.59 96.45 518.59 96.44 518.58 96.44 518.56 96.42 518.54 96.4 518.53 96.38 518.52 96.37 518.51 96.37 518.51 96.36 518.5 96.35 518.49 96.34 518.49 96.33 518.47 96.32 518.45 96.29 518.44 96.27 518.44 96.27 518.42 96.25 518.41 96.24 518.41 96.23 518.4 96.23 518.4 96.22 518.39 96.21 518.38 96.2 518.38 96.2 518.37 96.19 518.36 96.18 518.35 96.17 518.35 96.17 518.33 96.15 518.32 96.14 518.3 96.12 518.27 96.1 518.26 96.09 518.24 96.07 518.23 96.06 518.22 96.05 518.21 96.05 518.21 96.04 518.2 96.03 518.19 96.03 518.18 96.02 518.17 96.02 518.16 96.01 Z"/>
</g></svg>