<svg xmlns="http://www.w3.org/2000/svg" version="1.2" baseProfile="tiny" stroke-linecap="round" stroke-linejoin="round" viewBox="721 90.62 14.5 12.22"><g xmlns="http://www.w3.org/2000/svg" id="Sarrikotapea">
<path d="M 727.69 90.64 728.25 90.95 728.45 91.06 728.84 91.47 729.01 91.49 729.1 91.48 729.19 91.46 729.27 91.44 729.37 91.44 729.49 91.43 729.6 91.43 729.61 91.67 729.84 91.81 729.84 91.83 729.8 91.92 729.76 92 729.69 92.1 729.65 92.17 729.63 92.22 729.61 92.27 729.61 92.3 729.62 92.33 729.66 92.66 729.67 92.81 729.96 92.86 730.04 92.59 730.18 92.6 730.38 92.71 730.57 92.82 730.79 92.93 731.07 93.77 731.27 94.11 731.46 94.31 731.67 94.33 731.78 94.45 731.74 94.64 732.1 94.97 732.17 95.07 732.21 95.11 732.28 95.07 732.41 94.97 732.5 94.98 732.78 95.24 733.02 95.42 733.06 95.44 733.03 95.56 733.1 95.72 733.65 96.19 733.69 96.19 733.73 96.01 733.82 96.04 733.93 96.14 733.98 96.12 734.13 95.9 734.23 95.92 734.42 96.03 734.45 96.01 734.46 95.89 734.57 95.9 734.71 95.97 734.78 95.94 734.85 95.89 734.92 95.9 735.48 96.36 735.45 96.37 735.39 96.39 735.32 96.41 735.25 96.44 735.19 96.47 735.15 96.5 735.13 96.52 735.11 96.53 735.03 96.61 735.01 96.64 734.98 96.69 734.96 96.73 734.95 96.79 734.95 96.84 734.96 96.9 734.97 96.96 735 97 735.02 97.05 735.06 97.12 735.1 97.19 735.12 97.27 735.15 97.35 735.18 97.43 735.21 97.53 735.23 97.61 735.26 97.7 735.27 97.75 735.28 97.82 735.28 97.89 735.29 97.97 735.29 98.05 735.29 98.1 735.28 98.16 735.28 98.18 735.27 98.21 735.25 98.27 735.22 98.32 735.18 98.36 735.12 98.41 735.07 98.45 735.01 98.5 734.94 98.53 734.88 98.56 734.82 98.59 734.75 98.63 734.68 98.68 734.61 98.73 734.54 98.78 734.48 98.83 734.42 98.88 734.37 98.93 734.33 98.98 734.27 99.01 734.23 99.05 734.19 99.08 734.16 99.14 734.15 99.19 734.15 99.2 734.14 99.27 734.14 99.33 734.14 99.41 734.15 99.48 734.17 99.55 734.2 99.63 734.23 99.68 734.26 99.75 734.28 99.78 734.06 99.82 733.97 99.78 733.88 99.76 733.76 100.05 733.6 100.03 733.48 100.04 733.44 100.29 733.3 100.29 733.27 100.4 732.89 100.38 732.5 100.4 732.3 100.5 732.12 100.53 731.74 100.62 731.43 100.78 731.25 100.99 731.16 101.21 731.05 101.36 730.96 101.38 730.84 101.32 730.67 101.28 730.63 101.3 730.6 101.31 730.57 101.33 730.54 101.35 730.51 101.36 730.47 101.38 730.43 101.4 730.4 101.42 730.38 101.44 730.35 101.46 730.31 101.47 730.26 101.47 730.19 101.48 730.1 101.48 730.07 101.47 730.04 101.47 730 101.48 729.96 101.48 729.93 101.5 729.91 101.54 729.91 101.56 729.92 101.59 729.92 101.61 729.93 101.63 729.91 101.64 729.88 101.69 729.86 101.71 729.84 101.73 729.79 101.75 729.77 101.76 729.75 101.76 729.71 101.75 729.68 101.75 729.64 101.76 729.61 101.77 729.57 101.78 729.49 101.81 729.44 101.82 729.41 101.82 729.38 101.82 729.3 101.81 729.25 101.8 729.17 101.8 729.08 101.8 729.05 101.79 729.03 101.78 728.97 101.72 728.92 101.68 728.9 101.66 728.88 101.64 728.85 101.62 728.81 101.6 728.76 101.58 728.72 101.56 728.68 101.55 728.64 101.53 728.61 101.53 728.56 101.5 728.36 101.69 728.29 101.69 728.07 101.58 727.61 101.47 727.6 101.33 726.76 101.35 726.47 101.33 725.58 101.09 725.45 101.05 725.33 101.06 725.26 101.1 725.1 101.27 724.96 101.33 724.84 101.41 724.69 101.48 724.57 101.53 724.49 101.58 723.98 101.74 723.82 101.94 723.75 101.95 723.55 102.09 722.83 102.8 722.8 102.83 722.44 102.73 722.38 102.72 722.29 102.68 722.29 102.5 722.01 102.48 721.81 102.34 721.56 102.34 721.31 102.23 721.11 102.21 721.02 102.11 721.05 101.84 721.12 101.44 721.19 101.04 721.26 100.63 721.4 100.2 721.4 100.17 721.4 100.01 721.4 99.98 721.43 99.93 721.51 99.81 721.58 99.7 721.6 99.67 721.6 99.65 721.63 99.62 721.67 99.55 721.74 99.43 721.79 99.34 721.81 99.32 721.9 99.22 722 99.12 722.08 99.04 722.14 98.98 722.21 98.9 722.23 98.88 722.25 98.87 722.26 98.87 722.28 98.87 722.31 98.9 722.36 98.93 722.44 98.97 722.53 99.01 722.56 99.02 722.57 99.02 722.59 99 722.61 98.97 722.63 98.94 722.68 98.87 722.76 98.75 722.81 98.69 722.85 98.63 722.88 98.6 722.92 98.58 722.95 98.55 722.99 98.52 723.08 98.42 723.14 98.31 723.18 98.24 723.25 98.17 723.28 98.13 723.33 98.09 723.38 98.06 723.46 98.01 723.56 97.96 723.6 97.94 723.66 97.91 723.73 97.86 723.76 97.84 723.87 97.76 723.9 97.74 723.9 97.73 723.9 97.71 723.89 97.7 723.88 97.69 723.83 97.62 723.78 97.56 723.77 97.53 723.77 97.51 723.77 97.48 723.82 97.36 723.87 97.28 723.93 97.19 723.98 97.12 723.99 97.09 723.99 97.07 723.98 97.06 723.92 97.04 723.9 97.04 723.88 97.05 723.84 97.05 723.82 97.05 723.8 97.04 723.79 97.02 723.77 96.95 723.74 96.84 723.74 96.81 723.74 96.79 723.76 96.77 723.79 96.73 723.82 96.68 723.84 96.63 723.86 96.6 723.88 96.59 723.9 96.59 723.94 96.57 724 96.56 724.03 96.54 724.06 96.54 724.08 96.53 724.13 96.53 724.18 96.53 724.21 96.54 724.25 96.54 724.31 96.55 724.33 96.54 724.34 96.53 724.36 96.5 724.4 96.44 724.44 96.4 724.5 96.36 724.6 96.32 724.66 96.29 724.72 96.25 724.74 96.23 724.75 96.21 724.75 96.2 724.78 96.07 724.78 95.99 724.78 95.98 724.78 95.96 724.77 95.95 724.74 95.92 724.72 95.88 724.72 95.86 724.71 95.81 724.71 95.78 724.71 95.76 724.71 95.73 724.71 95.7 724.72 95.62 724.72 95.59 724.89 95.58 725.02 95.74 725.17 95.71 725.17 95.69 725.15 95.63 725.13 95.58 725.11 95.54 725.09 95.49 725.07 95.44 725.04 95.38 725.02 95.32 725 95.27 724.99 95.22 724.97 95.17 724.96 95.12 724.94 95.06 724.93 95 724.93 94.95 724.92 94.9 724.92 94.85 724.94 94.71 724.96 94.67 724.98 94.64 725.03 94.61 725.05 94.58 725.07 94.54 725.08 94.49 725.09 94.44 725.12 94.4 725.14 94.37 725.18 94.34 725.21 94.31 725.23 94.27 725.23 94.22 725.23 94.17 725.24 94.11 725.27 94.06 725.31 94.01 725.35 93.97 725.38 93.94 725.4 93.88 725.4 93.82 725.39 93.71 725.39 93.58 725.44 93.46 725.46 93.41 725.44 93.21 725.45 93.15 725.49 93.03 725.51 92.94 725.57 92.72 725.73 92.36 725.9 92.08 726.04 91.79 726.1 91.75 726.16 91.69 726.25 91.59 726.34 91.5 726.41 91.42 726.47 91.34 726.55 91.28 726.81 90.87 727.12 90.85 727.6 90.85 727.61 90.81 727.63 90.75 727.69 90.64 Z"/>
</g></svg>