<svg xmlns="http://www.w3.org/2000/svg" version="1.2" baseProfile="tiny" stroke-linecap="round" stroke-linejoin="round" viewBox="652.2 265.75 46.15 15.4"><g xmlns="http://www.w3.org/2000/svg" id="Sartze">
<path d="M 698.18 266.03 698.22 266.15 698.28 266.28 698.32 266.41 698.32 266.42 698.29 266.48 698.22 266.68 698.2 266.71 698.19 266.73 698.17 266.74 697.99 266.85 697.84 266.93 697.68 267.02 697.52 267.12 697.35 267.21 697.29 267.25 697.27 267.26 697.2 267.3 697.19 267.31 697.08 267.37 696.99 267.41 696.95 267.43 696.92 267.45 696.89 267.46 696.87 267.48 696.84 267.49 696.82 267.51 696.79 267.54 696.77 267.57 696.75 267.58 696.74 267.6 696.73 267.63 696.72 267.68 696.7 267.76 696.68 267.87 696.66 267.95 696.6 267.95 696.57 267.96 696.51 267.97 696.26 268 696.24 268 696.19 268.01 696.18 268.02 696.21 268.2 696.24 268.41 696.25 268.45 696.28 268.61 696.31 268.73 696.32 268.8 696.33 268.84 696.38 269.03 696.44 269.31 696.48 269.51 696.53 269.75 696.54 269.79 696.54 269.84 696.56 270.19 696.56 270.35 696.56 270.37 696.55 270.54 696.55 270.59 696.55 270.66 696.54 270.76 696.53 270.83 696.5 270.96 696.48 271.01 696.47 271.04 696.46 271.08 696.44 271.11 696.4 271.16 696.36 271.24 696.31 271.31 696.28 271.36 696.24 271.41 696.17 271.53 696.16 271.54 696.1 271.63 695.96 271.61 695.85 271.59 695.79 271.58 695.77 271.6 695.75 271.63 695.73 271.65 695.72 271.66 695.71 271.66 695.69 271.67 695.58 271.7 695.47 271.72 695.37 271.74 695.28 271.76 695.25 271.78 695.2 271.81 695.12 271.89 695.05 271.94 694.97 271.99 694.87 272.08 694.83 272.11 694.78 272.15 694.76 272.17 694.75 272.18 694.74 272.19 694.72 272.21 694.69 272.26 694.68 272.27 694.65 272.31 694.63 272.34 694.61 272.37 694.58 272.41 694.58 272.42 694.56 272.44 694.54 272.48 694.39 272.76 694.35 272.83 694.32 272.89 694.24 273.03 694.2 273.08 694.16 273.15 694.12 273.22 694.08 273.28 694.06 273.32 694.05 273.33 694 273.38 693.9 273.48 693.8 273.57 693.7 273.66 693.62 273.73 693.57 273.77 693.52 273.81 693.47 273.84 693.39 273.89 693.33 273.93 693.28 273.97 693.12 274.06 692.98 274.16 692.92 274.19 692.89 274.21 692.8 274.17 692.7 274.13 692.69 274.13 692.57 274.09 692.44 274.04 692.33 274 692.31 273.99 692.25 273.96 692.17 273.92 692.1 273.88 692.06 273.85 692.01 273.81 692 273.8 691.97 273.77 691.93 273.73 691.9 273.69 691.88 273.65 691.82 273.52 691.78 273.44 691.72 273.38 691.61 273.3 691.56 273.26 691.53 273.28 691.51 273.29 691.49 273.31 691.43 273.35 691.37 273.4 691.32 273.45 691.25 273.48 691.22 273.52 690.99 273.74 690.9 273.67 690.87 273.64 690.8 273.58 690.68 273.6 690.49 273.54 690.41 273.51 690.4 273.51 690.38 273.53 690.36 273.55 690.32 273.6 690.3 273.62 690.29 273.65 690.29 273.67 690.29 273.7 690.29 273.83 690.3 273.9 690.3 273.93 690.32 274.01 690.35 274.11 690.37 274.17 690.4 274.23 690.44 274.33 690.46 274.37 690.48 274.41 690.54 274.52 690.6 274.62 690.62 274.64 690.57 274.75 690.53 274.84 690.53 274.85 690.5 274.91 690.53 274.99 690.58 275.1 690.63 275.22 690.77 275.2 690.77 275.27 690.77 275.36 690.77 275.39 690.77 275.4 690.78 275.54 690.78 275.62 690.78 275.63 690.92 275.84 691.03 276.02 691.1 276.13 691.23 276.22 691.31 276.26 691.24 276.32 690.98 276.56 690.85 276.69 690.65 276.69 690.47 276.68 690.33 276.8 690.15 276.79 689.91 276.99 689.84 277.05 689.7 277.16 689.52 277.31 689.5 277.34 689.4 277.42 689.37 277.44 689.36 277.46 689.25 277.8 689.19 277.99 689.17 278.06 688.89 277.86 688.72 277.74 688.54 277.77 688.36 277.8 688.25 277.93 688.2 277.99 688.18 278.01 688.18 278.02 688.17 278.03 688.15 278.1 688.13 278.16 688.13 278.18 688.11 278.2 688.08 278.23 688.04 278.27 687.97 278.33 687.91 278.4 687.87 278.43 687.87 278.44 687.84 278.46 687.83 278.48 687.82 278.49 687.81 278.51 687.79 278.57 687.77 278.66 687.75 278.8 687.73 278.87 687.71 278.95 687.7 279.03 687.68 279.12 687.65 279.28 687.63 279.37 687.39 279.38 687.24 279.38 687.2 279.38 686.64 279.41 686.36 279.42 686.14 279.43 686.09 279.44 685.53 279.46 685.52 279.46 685.46 279.46 685.43 279.47 685.42 279.47 685.39 279.47 685.37 279.47 685.18 279.47 684.98 279.46 684.96 279.48 684.64 279.64 684.48 279.72 684.35 279.78 684.14 279.9 684.13 280 684.12 280.07 684.09 280.37 684.07 280.58 684.02 280.6 683.95 280.62 683.93 280.63 683.88 280.65 683.82 280.67 683.81 280.67 683.76 280.69 683.69 280.71 683.59 280.75 683.56 280.76 683.47 280.79 683.35 280.83 683.27 280.85 683.1 280.91 683.08 280.92 683.07 280.92 682.87 280.97 682.86 280.97 682.84 280.98 682.77 281 682.69 281.01 682.56 281.04 682.28 281.08 682.07 281.11 682.05 281.11 682.03 281.11 682 281.1 681.93 281.06 681.84 281 681.8 280.97 681.74 280.9 681.7 280.83 681.43 280.85 681.35 280.83 681.26 280.8 681.23 280.79 681.19 280.78 680.73 280.63 680.69 280.61 680.49 280.55 680.22 280.47 680.2 280.46 680.02 280.4 679.83 280.34 679.74 280.31 679.58 280.26 679.42 280.2 679.28 280.15 679.26 280.15 679.2 280.13 678.94 280.04 678.86 280.09 678.59 280.24 678.54 280.27 678.27 280.42 678.21 280.46 678.08 280.53 677.98 280.59 677.93 280.61 677.88 280.62 677.81 280.63 677.76 280.64 677.74 280.63 677.68 280.62 677.63 280.6 677.59 280.59 677.54 280.58 677.46 280.59 677.39 280.61 677.28 280.65 677.22 280.69 677.14 280.76 677.1 280.8 677.08 280.83 677.07 280.85 677.04 280.9 677 280.94 676.96 280.96 676.95 280.97 676.92 280.99 676.9 281 676.84 281.04 676.79 281.07 676.75 281.1 676.72 281.14 676.61 281.12 676.51 281.1 676.38 281.06 676.26 281.01 676.12 280.96 676.09 280.94 675.91 280.9 675.72 280.87 675.55 280.84 675.34 280.77 675.17 280.72 675.05 280.69 674.92 280.67 674.78 280.63 674.65 280.61 674.5 280.58 674.35 280.55 674.22 280.53 674.11 280.5 674.02 280.48 673.89 280.45 673.8 280.42 673.69 280.37 673.61 280.33 673.56 280.31 673.53 280.3 673.49 280.27 673.44 280.24 673.28 280.21 673.13 280.19 673.12 280.19 673.05 280.18 672.82 280.14 672.58 280.09 672.39 280.05 672.21 280.02 672.02 279.99 671.87 279.95 671.62 279.91 671.4 279.87 671.21 279.84 671.06 279.81 670.85 279.77 670.64 279.73 670.42 279.7 670.27 279.68 670.22 279.68 670.04 279.65 669.86 279.64 669.72 279.62 669.59 279.62 669.46 279.6 669.36 279.59 669.35 279.59 669.25 279.59 669.17 279.59 669.12 279.59 668.97 279.59 668.76 279.61 668.58 279.62 668.43 279.62 668.39 279.63 668.29 279.63 668.15 279.65 667.98 279.66 667.87 279.68 667.85 279.68 667.8 279.69 667.76 279.7 667.69 279.71 667.63 279.73 667.53 279.75 667.45 279.78 667.35 279.81 667.21 279.85 667.09 279.89 667.03 279.91 666.95 279.93 666.85 279.97 666.79 279.98 666.72 280.01 666.65 280.04 666.6 280.06 666.54 280.09 666.48 280.13 666.4 280.18 666.34 280.22 666.26 280.28 666.16 280.35 666.13 280.37 666.11 280.39 666.06 280.38 665.93 280.34 665.83 280.31 665.64 280.26 665.49 280.21 665.38 280.18 665.28 280.15 665.1 280.12 664.9 280.11 664.76 280.1 664.61 280.07 664.47 280.05 664.36 280.03 664.33 280.02 664.31 280.01 664.28 279.99 664.26 279.97 664.2 279.95 664.16 279.94 664.11 279.94 663.97 279.94 663.74 279.92 663.56 279.89 663.46 279.88 663.41 279.88 663.29 279.87 663.14 279.86 663.06 279.86 662.96 279.85 662.84 279.85 662.77 279.85 662.6 279.84 662.49 279.83 662.4 279.84 662.26 279.85 662.16 279.86 662.1 279.87 661.97 279.9 661.94 279.91 661.82 279.94 661.69 279.96 661.6 279.98 661.47 280.01 661.42 280.02 661.31 280.04 661.15 280.06 661.03 280.07 660.96 280.08 660.92 280.08 660.8 280.09 660.76 280.09 660.64 280.1 660.45 280.1 660.36 280.1 660.25 280.1 659.94 280.08 659.84 280.08 659.57 280.06 659.18 280.05 658.9 280.03 658.83 280.03 658.64 280.03 658.47 280.03 658.38 280.02 658.33 280.03 658.28 280.04 658.22 280.05 658.17 280.06 658.14 280.07 658.09 280.07 658.05 280.07 657.96 280.07 657.82 280.06 657.74 280.05 657.69 280.04 657.62 280.02 657.54 280 657.44 279.98 657.37 279.96 657.31 279.94 657.32 279.9 657.32 279.85 657.31 279.75 657.32 279.7 657.34 279.57 657.35 279.48 657.37 279.35 657.38 279.27 657.39 279.2 657.39 279.19 657.39 279.18 657.4 279.15 657.4 279.12 657.4 279.06 657.39 278.98 657.39 278.92 657.42 278.86 657.47 278.7 657.52 278.58 657.42 278.58 657.32 278.58 657.23 278.57 657.15 278.58 657.04 278.58 656.95 278.58 656.87 278.58 656.81 278.57 656.7 278.58 656.59 278.57 656.49 278.57 656.39 278.58 656.3 278.57 656.23 278.57 656.15 278.57 656.04 278.57 655.97 278.57 655.83 278.57 655.73 278.57 655.67 278.56 655.53 278.53 655.43 278.51 655.34 278.49 655.24 278.47 655.14 278.45 655.03 278.43 654.93 278.41 654.82 278.38 654.69 278.35 654.57 278.33 654.46 278.31 654.39 278.3 654.3 278.28 654.19 278.25 654.09 278.23 654.05 278.18 653.98 278.1 653.95 278.07 653.89 278 653.83 277.92 653.74 277.82 653.65 277.72 653.59 277.65 653.52 277.57 653.46 277.49 653.39 277.42 653.33 277.35 653.25 277.27 653.17 277.18 653.11 277.09 653.04 277.02 652.98 276.95 653.06 276.9 653.11 276.87 653.18 276.82 653.16 276.78 653.15 276.78 653.11 276.71 653.06 276.61 653.02 276.53 653.04 276.45 653.05 276.35 653.07 276.24 653.04 276.2 653.03 276.18 652.99 276.1 652.97 276.07 652.95 276.02 652.9 275.94 652.85 275.86 652.84 275.84 652.83 275.83 652.81 275.78 652.77 275.72 652.76 275.7 652.74 275.65 652.69 275.58 652.64 275.5 652.65 275.46 652.65 275.45 652.65 275.38 652.66 275.28 652.67 275.17 652.68 275.07 652.68 274.98 652.69 274.89 652.7 274.8 652.68 274.78 652.64 274.73 652.59 274.68 652.54 274.6 652.47 274.53 652.43 274.48 652.39 274.42 652.34 274.36 652.33 274.35 652.3 274.31 652.27 274.26 652.24 274.22 652.21 274.15 652.32 273.83 652.37 273.66 652.43 273.51 652.49 273.38 652.55 273.27 652.57 273.23 652.59 273.19 652.61 273.16 652.64 273.13 652.68 273.08 652.74 273.01 652.76 272.99 652.77 272.97 652.78 272.96 652.78 272.94 652.77 272.88 652.76 272.79 652.8 272.76 652.82 272.74 652.84 272.72 652.87 272.68 652.9 272.63 652.91 272.61 652.93 272.56 652.94 272.52 652.95 272.51 652.96 272.5 652.98 272.49 653.06 272.46 653.1 272.44 654.08 272.94 654.2 272.95 654.21 272.95 654.35 272.97 654.42 272.97 654.74 272.99 655.06 272.99 655.12 273 655.24 273.02 655.41 273.05 655.89 272.83 655.96 272.84 656.11 272.85 656.19 272.86 656.24 272.86 656.3 272.87 656.37 272.89 656.43 272.9 656.47 272.91 656.5 272.92 656.55 272.93 656.58 272.93 656.61 272.93 656.64 272.91 656.68 272.9 656.74 272.89 656.84 272.86 657 272.81 657.03 272.8 657.05 272.8 657.06 272.79 657.08 272.8 657.1 272.8 657.13 272.81 657.16 272.82 657.18 272.83 657.23 272.85 657.3 272.89 657.39 272.95 657.48 272.84 657.62 272.92 657.66 272.87 657.7 272.81 657.73 272.76 657.76 272.72 657.81 272.63 657.84 272.59 657.86 272.55 657.88 272.52 657.89 272.48 657.9 272.45 657.91 272.43 657.91 272.4 657.91 272.36 657.92 272.32 657.94 272.29 657.95 272.26 657.96 272.24 657.98 272.21 657.98 272.2 658 272.17 658.01 272.15 658.02 272.14 658.03 272.12 658.05 272.1 658.06 272.08 658.08 272.07 658.11 272.05 658.13 272.04 658.16 272.03 658.18 272.02 658.2 272.01 658.24 271.99 658.29 271.98 658.3 271.97 658.33 271.96 658.37 271.94 658.42 271.91 658.45 271.89 658.49 271.88 658.5 271.87 658.53 271.86 658.55 271.85 658.56 271.85 658.59 271.85 658.62 271.85 658.63 271.85 658.68 271.87 658.72 271.88 658.75 271.9 658.78 271.92 658.83 271.94 658.86 271.95 658.89 271.96 658.93 271.97 658.97 271.98 659 271.98 659.04 271.99 659.07 271.99 659.09 272 659.13 272.01 659.16 272.02 659.2 272.04 659.23 272.06 659.26 272.09 659.28 272.11 659.3 272.12 659.32 272.12 659.34 272.13 659.36 272.14 659.42 272.15 659.5 272.16 659.57 272.17 659.63 272.19 659.66 272.2 659.69 272.21 659.72 272.22 659.75 272.24 659.78 272.25 659.8 272.26 659.85 272.29 659.88 272.31 659.91 272.33 659.93 272.35 659.94 272.36 659.96 272.38 659.97 272.41 660 272.45 660.02 272.48 660.05 272.51 660.07 272.54 660.09 272.56 660.11 272.58 660.12 272.59 660.14 272.6 660.16 272.61 660.17 272.61 660.17 272.61 660.19 272.62 660.21 272.62 660.23 272.62 660.27 272.61 660.31 272.61 660.32 272.61 660.34 272.61 660.38 272.6 660.42 272.6 660.45 272.61 660.47 272.61 660.53 272.61 660.58 272.62 660.61 272.62 660.64 272.62 660.66 272.62 660.7 272.62 660.73 272.62 660.77 272.62 660.81 272.61 660.83 272.6 660.85 272.6 660.87 272.59 660.89 272.58 660.92 272.56 660.96 272.52 661 272.49 661.03 272.45 661.07 272.42 661.14 272.36 661.19 272.31 661.23 272.27 661.26 272.25 661.28 272.23 661.31 272.21 661.33 272.19 661.34 272.18 661.37 272.17 661.4 272.15 661.42 272.15 661.45 272.14 661.49 272.12 661.54 272.11 661.61 272.1 661.67 272.09 661.74 272.08 661.76 272.08 661.78 272.07 661.79 272.06 661.81 272.06 661.83 272.05 661.87 272.02 661.92 271.98 661.94 271.97 661.95 271.96 661.97 271.96 661.98 271.95 662 271.95 662.01 271.95 662.03 271.95 662.05 271.95 662.08 271.94 662.13 271.95 662.18 271.95 662.22 271.96 662.25 271.96 662.27 271.97 662.36 272.01 662.41 272.03 662.46 272.06 662.5 272.08 662.54 272.1 662.56 272.12 662.59 272.14 662.64 272.17 662.69 272.2 662.71 272.21 662.74 272.23 662.76 272.24 662.79 272.26 662.8 272.27 662.82 272.28 662.83 272.28 662.85 272.29 662.86 272.29 662.88 272.3 662.89 272.3 662.91 272.3 662.93 272.3 662.97 272.3 663.02 272.3 663.03 272.3 663.05 272.3 663.06 272.31 663.08 272.31 663.11 272.32 663.15 272.33 663.18 272.34 663.2 272.34 663.21 272.34 663.23 272.34 663.24 272.33 663.26 272.32 663.29 272.3 663.33 272.27 663.36 272.25 663.37 272.24 663.38 272.23 663.4 272.22 663.41 272.22 663.43 272.22 663.45 272.22 663.46 272.22 663.47 272.22 663.49 272.24 663.51 272.26 663.53 272.28 663.55 272.29 663.56 272.31 663.57 272.32 663.59 272.33 663.6 272.34 663.62 272.34 663.64 272.35 663.67 272.35 663.71 272.34 663.75 272.35 663.79 272.34 663.86 272.33 663.87 272.33 663.9 272.33 663.92 272.33 663.95 272.33 663.98 272.33 664.01 272.33 664.03 272.33 664.06 272.33 664.08 272.34 664.09 272.34 664.11 272.34 664.2 272.35 664.27 272.36 664.34 272.37 664.4 272.38 664.42 272.39 664.44 272.4 664.47 272.41 664.49 272.42 664.5 272.42 664.77 272.47 665.01 272.52 665.24 272.57 665.3 272.61 665.31 272.59 665.38 272.51 665.44 272.44 665.52 272.33 665.59 272.24 665.65 272.15 665.75 272.02 665.78 271.98 665.82 272 665.83 272.01 665.85 271.98 665.88 271.96 665.91 271.93 665.94 271.9 665.97 271.88 666.01 271.85 666.04 271.82 666.06 271.8 666.09 271.77 666.11 271.75 666.16 271.69 666.18 271.67 666.2 271.64 666.22 271.61 666.23 271.59 666.24 271.57 666.25 271.55 666.26 271.54 666.27 271.53 666.28 271.53 666.29 271.53 666.3 271.52 666.31 271.52 666.33 271.52 666.35 271.52 666.37 271.51 666.39 271.5 666.4 271.5 666.43 271.48 666.44 271.47 666.45 271.45 666.48 271.4 666.5 271.36 666.51 271.35 666.54 271.32 666.56 271.3 666.57 271.29 666.59 271.27 666.61 271.26 666.62 271.25 666.64 271.24 666.67 271.23 666.7 271.22 666.72 271.2 666.74 271.18 666.76 271.17 666.78 271.15 666.8 271.12 666.82 271.1 666.85 271.05 666.88 271 666.9 270.97 666.91 270.94 666.92 270.91 666.94 270.88 666.94 270.88 666.96 270.86 666.97 270.85 666.99 270.84 667 270.83 667.02 270.82 667.04 270.82 667.05 270.82 667.06 270.82 667.08 270.82 667.14 270.84 667.21 270.87 667.26 270.88 667.29 270.88 667.33 270.89 667.35 270.88 667.37 270.88 667.39 270.88 667.41 270.89 667.42 270.89 667.45 270.91 667.46 270.91 667.48 270.92 667.49 270.92 667.51 270.92 667.55 270.92 667.58 270.92 667.6 270.92 667.61 270.92 667.65 270.93 667.67 270.94 667.7 270.95 667.73 270.96 667.75 270.96 667.77 270.96 667.8 270.96 667.83 270.96 667.88 270.95 667.93 270.95 667.97 270.94 668 270.94 668.03 270.94 668.1 270.93 668.15 270.92 668.2 270.92 668.24 270.91 668.28 270.9 668.33 270.9 668.37 270.9 668.41 270.9 668.44 270.9 668.47 270.9 668.5 270.9 668.52 270.9 668.56 270.91 668.62 270.92 668.67 270.93 668.71 270.94 668.76 270.94 668.81 270.95 668.86 270.96 668.89 270.96 668.92 270.97 668.94 270.97 668.96 270.98 668.99 270.99 669.02 270.99 669.05 271.01 669.09 271.03 669.11 271.04 669.13 271.05 669.15 271.06 669.18 271.07 669.2 271.09 669.23 271.11 669.25 271.1 669.42 270.99 669.47 271.02 669.51 271.06 669.54 271.09 669.57 271.12 669.59 271.16 669.6 271.18 669.61 271.21 669.62 271.24 669.63 271.26 669.65 271.29 669.65 271.32 669.66 271.35 669.67 271.37 669.67 271.39 669.68 271.42 669.7 271.45 669.71 271.47 669.73 271.49 669.75 271.51 669.77 271.53 669.78 271.55 669.8 271.57 669.83 271.6 669.88 271.65 669.91 271.67 669.94 271.7 669.96 271.73 670.01 271.77 670.05 271.81 670.07 271.83 670.1 271.86 670.13 271.88 670.15 271.9 670.17 271.92 670.2 271.95 670.22 271.98 670.24 272 670.25 272.01 670.26 272.02 670.27 272.04 670.28 272.06 670.3 272.07 670.31 272.09 670.31 272.1 670.32 272.11 670.32 272.12 670.32 272.14 670.32 272.21 670.32 272.27 670.31 272.3 670.31 272.32 670.29 272.38 670.28 272.44 670.27 272.48 670.27 272.53 670.27 272.56 670.27 272.58 670.27 272.6 670.28 272.63 670.28 272.65 670.29 272.68 670.29 272.7 670.3 272.72 670.3 272.73 670.3 272.75 670.3 272.77 670.28 272.89 670.29 272.9 670.57 273.18 670.64 273.25 670.73 273.34 670.83 273.44 670.96 273.57 671.09 273.72 671.2 273.87 671.25 273.92 671.28 273.93 671.38 273.97 671.44 274 671.71 274.1 671.98 274.21 672.08 274.25 672.27 274.26 672.34 274.27 672.64 274.29 672.66 274.3 673 274.12 673.03 274.1 673.07 274.08 673.1 274.06 673.12 274.05 673.16 274.04 673.2 274.02 673.22 274.02 673.3 273.99 673.3 274.01 673.29 274.03 673.29 274.06 673.28 274.08 673.27 274.11 673.26 274.14 673.26 274.16 673.26 274.19 673.25 274.24 673.25 274.28 673.25 274.33 673.25 274.38 673.25 274.44 673.24 274.53 673.24 274.59 673.27 274.58 673.3 274.57 673.32 274.57 673.33 274.56 673.37 274.54 673.43 274.52 673.52 274.48 673.54 274.46 673.56 274.46 673.59 274.45 673.61 274.44 673.63 274.44 673.66 274.45 673.67 274.45 673.68 274.45 673.7 274.46 673.72 274.46 673.73 274.47 673.8 274.51 673.83 274.52 673.88 274.55 673.89 274.55 673.91 274.56 673.96 274.58 674.03 274.61 674.1 274.64 674.16 274.66 674.23 274.68 674.31 274.72 674.36 274.74 674.55 274.8 674.55 274.8 674.58 274.81 674.6 274.82 674.61 274.82 674.63 274.83 674.67 274.84 674.7 274.84 674.72 274.84 674.79 274.84 674.95 274.85 674.97 274.84 675 274.84 675.03 274.84 675.04 274.84 675.07 274.83 675.12 274.82 675.16 274.81 675.18 274.81 675.2 274.8 675.26 274.79 675.31 274.78 675.32 274.77 675.34 274.77 675.38 274.75 675.41 274.74 675.43 274.72 675.44 274.72 675.51 274.68 675.6 274.64 675.64 274.62 675.66 274.61 675.68 274.61 675.71 274.6 675.84 274.54 675.85 274.54 675.92 274.49 676 274.45 676.03 274.44 676.06 274.42 676.11 274.39 676.15 274.37 676.18 274.35 676.2 274.34 676.22 274.33 676.26 274.32 676.29 274.32 676.33 274.3 676.47 274.27 676.58 274.23 676.63 274.22 676.66 274.21 676.68 274.2 676.71 274.2 676.73 274.19 676.74 274.19 676.77 274.18 676.82 274.19 676.94 274.21 677.22 274.27 677.25 274.28 677.27 274.28 677.28 274.28 677.29 274.27 677.31 274.27 677.32 274.27 677.34 274.26 677.36 274.25 677.38 274.25 677.4 274.24 677.48 274.21 677.54 274.18 677.58 274.17 677.61 274.16 677.62 274.15 677.63 274.14 677.66 274.12 677.69 274.1 677.73 274.06 677.86 273.94 677.89 273.92 677.91 273.9 677.94 273.89 677.95 273.88 677.99 273.85 678.04 273.82 678.08 273.79 678.17 273.73 678.24 273.68 678.3 273.64 678.35 273.61 678.36 273.6 678.42 273.56 678.47 273.52 678.52 273.48 678.54 273.46 678.56 273.44 678.59 273.42 678.63 273.38 678.9 273.34 679 273.33 679.06 273.32 679.18 273.3 679.42 273.22 679.61 273.15 679.67 273.13 679.77 273.09 679.85 273.06 680.04 273 680.1 272.98 680.13 272.97 680.13 273 680.13 273.02 680.13 273.04 680.14 273.08 680.15 273.14 680.17 273.32 680.18 273.36 680.25 273.37 680.26 273.37 680.38 273.37 680.43 273.38 680.47 273.38 680.51 273.38 680.55 273.38 680.6 273.38 680.71 273.37 680.73 273.37 680.78 273.37 680.82 273.37 680.83 273.37 680.87 273.37 680.88 273.37 680.89 273.36 680.91 273.36 681.02 273.33 681.05 273.33 681.14 273.3 681.16 273.29 681.3 273.25 681.39 273.23 681.43 273.22 681.47 273.21 681.5 273.2 681.53 273.2 681.55 273.2 681.58 273.19 681.64 273.19 681.68 273.18 681.74 273.18 681.76 273.17 681.78 273.18 681.8 273.18 681.82 273.19 681.84 273.2 681.88 273.21 681.91 273.23 681.98 273.27 682.07 273.32 682.1 273.34 682.13 273.35 682.15 273.36 682.18 273.37 682.23 273.4 682.31 273.44 682.34 273.45 682.37 273.47 682.4 273.49 682.41 273.49 682.42 273.5 682.48 273.53 682.53 273.57 682.58 273.6 682.61 273.62 682.63 273.63 682.69 273.66 682.83 273.75 683.2 273.96 683.54 274.06 683.66 274.1 683.67 274.1 683.68 274.11 683.72 274.12 683.84 274.19 683.86 274.2 683.93 274.24 684.02 274.29 684.27 274.44 684.39 274.51 684.48 274.59 684.68 274.77 684.91 274.65 685.28 274.47 685.56 274.35 685.79 274.26 685.82 274.25 685.84 274.24 685.86 274.23 685.87 274.23 685.89 274.22 685.91 274.22 685.94 274.22 685.97 274.21 686.24 274.17 686.24 274.17 686.26 274.17 686.51 274.13 686.66 274.1 686.92 274.06 686.93 274.06 687.12 273.93 687.13 273.92 687.32 273.79 687.65 273.57 687.65 273.56 687.83 273.44 688.06 273.27 688.1 273.25 688.29 273.17 688.7 273 688.91 272.91 689.01 272.87 689.28 272.86 689.27 272.76 689.28 272.72 689.29 272.68 689.31 272.63 689.32 272.6 689.35 272.54 689.37 272.49 689.38 272.48 689.41 272.39 689.47 272.33 689.66 272.12 689.71 272.07 689.74 272.05 689.76 272.04 689.78 272.02 689.81 272.01 689.83 271.99 689.89 271.96 690.23 271.67 690.5 271.43 690.52 271.42 690.55 271.39 690.76 271.2 691.01 270.98 691.16 270.85 691.26 270.76 691.28 270.72 691.36 270.61 691.4 270.53 691.48 270.41 692.21 270.24 692.26 270.23 692.28 270.23 692.3 270.21 692.32 270.19 692.33 270.18 692.35 270.17 692.38 270.15 692.59 270 692.6 269.93 692.61 269.91 692.61 269.86 692.63 269.78 692.64 269.71 692.65 269.66 692.66 269.6 692.67 269.56 692.67 269.53 692.67 269.47 692.67 269.44 692.67 269.39 692.67 269.33 692.66 269.27 692.66 269.22 692.66 269.16 692.66 269.09 692.65 269.05 692.65 269.02 692.64 269 692.64 268.98 692.63 268.94 692.62 268.93 692.6 268.87 692.6 268.85 692.59 268.84 692.59 268.83 692.58 268.82 692.57 268.81 692.57 268.8 692.56 268.78 692.54 268.76 692.53 268.74 692.52 268.73 692.5 268.71 692.4 268.62 692.31 268.53 692.22 268.43 692.24 268.39 692.25 268.35 692.27 268.31 692.29 268.28 692.3 268.25 692.32 268.23 692.34 268.19 692.36 268.17 692.37 268.15 692.39 268.13 692.4 268.11 692.42 268.09 692.44 268.07 692.46 268.05 692.47 268.04 692.5 268.02 692.52 268 692.54 267.98 692.56 267.96 692.61 267.92 692.63 267.9 692.66 267.88 692.69 267.85 692.72 267.81 692.74 267.79 692.75 267.77 692.77 267.75 692.79 267.73 692.82 267.67 692.83 267.66 692.85 267.62 692.88 267.57 692.93 267.43 692.98 267.32 693.01 267.24 693.04 267.19 693.08 267.08 693.23 266.98 693.33 266.92 693.35 266.91 693.62 266.74 693.77 266.73 694.13 266.71 694.33 266.78 694.53 266.76 694.61 266.75 694.58 266.48 694.86 266.41 695.11 266.35 695.57 266.25 695.82 266.25 695.85 266.25 695.88 266.25 695.9 266.25 695.93 266.25 695.96 266.24 696 266.24 696.03 266.23 696.06 266.23 696.09 266.23 696.24 266.21 696.29 266.2 696.38 266.19 696.4 266.19 696.43 266.18 696.46 266.18 696.48 266.18 696.5 266.18 696.53 266.18 696.56 266.18 696.63 266.17 696.72 266.17 696.8 266.17 696.85 266.16 696.87 266.16 696.88 266.09 696.9 265.96 696.93 265.82 696.94 265.77 696.94 265.76 696.96 265.77 697.03 265.78 697.13 265.81 697.26 265.84 697.35 265.87 697.41 265.88 697.47 265.89 697.57 265.91 697.75 265.95 697.95 265.99 698.07 266.02 698.18 266.03 Z"/>
</g></svg>