<svg xmlns="http://www.w3.org/2000/svg" version="1.2" baseProfile="tiny" stroke-linecap="round" stroke-linejoin="round" viewBox="334.62 210.53 11.17 20.47"><g xmlns="http://www.w3.org/2000/svg" id="Segura">
<path d="M 340.86 211.67 340.81 211.66 340.82 211.64 340.84 211.58 340.87 211.51 340.88 211.45 340.93 211.36 340.95 211.31 340.97 211.28 341.01 211.23 341.03 211.2 341.06 211.17 341.1 211.15 341.12 211.12 341.15 211.07 341.18 211.02 341.2 210.97 341.22 210.93 341.24 210.89 341.27 210.86 341.28 210.84 341.29 210.82 341.3 210.81 341.31 210.77 341.31 210.76 341.32 210.76 341.39 210.77 341.46 210.77 341.53 210.76 341.64 210.76 341.69 210.77 341.76 210.79 341.86 210.82 341.92 210.84 341.98 210.86 342.02 210.86 342.06 210.86 342.15 210.85 342.21 210.84 342.25 210.83 342.3 210.83 342.32 210.84 342.33 210.85 342.37 210.88 342.41 210.91 342.44 210.92 342.51 210.92 342.56 210.91 342.59 210.9 342.61 210.89 342.63 210.89 342.69 210.89 342.73 210.89 342.76 210.89 342.79 210.9 342.81 210.91 342.83 210.92 342.87 210.94 342.91 210.94 342.95 210.94 342.98 210.94 343.01 210.93 343.04 210.9 343.07 210.88 343.09 210.83 343.12 210.78 343.13 210.73 343.15 210.71 343.17 210.7 343.2 210.7 343.24 210.72 343.31 210.74 343.37 210.77 343.45 210.8 343.48 210.81 343.57 210.81 343.63 210.82 343.69 210.82 343.75 210.82 343.79 210.82 343.84 210.81 343.88 210.79 343.92 210.78 343.98 210.77 344.01 210.76 344.03 210.76 344.08 210.76 344.14 210.74 344.17 210.72 344.19 210.69 344.21 210.65 344.22 210.63 344.23 210.6 344.23 210.58 344.24 210.56 344.25 210.55 344.26 210.54 344.27 210.54 344.28 210.54 344.3 210.55 344.31 210.56 344.33 210.58 344.35 210.59 344.36 210.59 344.38 210.59 344.41 210.59 344.45 210.58 344.48 210.57 344.5 210.56 344.53 210.56 344.58 210.56 344.59 210.62 344.59 210.66 344.59 210.71 344.59 210.74 344.58 210.77 344.57 210.82 344.56 210.87 344.54 210.92 344.52 210.97 344.51 211.02 344.49 211.08 344.47 211.14 344.45 211.21 344.42 211.26 344.4 211.31 344.37 211.34 344.33 211.4 344.29 211.44 344.28 211.48 344.27 211.53 344.27 211.58 344.27 211.63 344.28 211.66 344.27 211.69 344.27 211.71 344.25 211.72 344.17 212.2 344.17 212.21 344.19 212.24 344.19 212.27 344.2 212.35 344.23 212.38 344.28 212.42 344.33 212.48 344.36 212.52 344.39 212.57 344.43 212.61 344.5 212.67 344.53 212.7 344.59 212.73 344.67 212.77 344.79 212.83 344.84 212.86 344.87 212.88 344.89 212.9 344.89 212.92 344.89 212.94 344.91 212.98 344.91 213.07 344.92 213.22 344.93 213.36 344.93 213.47 344.93 213.48 344.94 213.5 344.96 213.5 344.99 213.49 345.03 213.48 345.06 213.47 345.09 213.47 345.11 213.47 345.13 213.47 345.14 213.47 345.15 213.48 345.16 213.48 345.18 213.5 345.2 213.54 345.22 213.57 345.23 213.61 345.23 213.62 345.24 213.66 345.24 213.73 345.25 213.82 345.25 213.87 345.26 213.93 345.27 213.97 345.29 214 345.34 214.04 345.39 214.06 345.42 214.08 345.46 214.11 345.48 214.14 345.49 214.13 345.5 214.13 345.5 214.14 345.49 214.15 345.47 214.16 345.46 214.17 345.43 214.19 345.41 214.21 345.39 214.24 345.39 214.27 345.39 214.31 345.4 214.35 345.41 214.39 345.42 214.43 345.42 214.47 345.43 214.51 345.43 214.56 345.43 214.62 345.42 214.68 345.42 214.73 345.43 214.76 345.45 214.81 345.47 214.88 345.47 214.91 345.48 214.96 345.49 215.02 345.49 215.06 345.49 215.15 345.49 215.22 345.49 215.26 345.49 215.32 345.51 215.37 345.52 215.44 345.54 215.5 345.54 215.55 345.54 215.59 345.54 215.64 345.55 215.68 345.55 215.74 345.56 215.8 345.56 215.82 345.57 215.86 345.57 215.91 345.57 215.95 345.58 215.98 345.57 216.01 345.56 216.04 345.55 216.07 345.53 216.1 345.51 216.14 345.47 216.22 345.44 216.29 345.42 216.36 345.39 216.41 345.38 216.46 345.36 216.5 345.33 216.6 345.3 216.68 345.29 216.73 345.27 216.8 345.25 216.85 345.24 216.91 345.23 216.94 345.23 217 345.22 217.04 345.2 217.12 345.19 217.15 345.17 217.21 345.15 217.27 345.13 217.32 345.11 217.37 345.09 217.41 345.08 217.43 345.08 217.45 345.09 217.48 345.09 217.52 345.1 217.55 345.1 217.56 345.1 217.58 345.09 217.6 345.06 217.64 345.04 217.67 345.01 217.72 345 217.75 344.98 217.77 344.98 217.79 344.98 217.81 344.98 217.85 344.98 217.89 344.98 217.94 344.98 218.03 344.98 218.09 344.98 218.15 344.97 218.22 344.96 218.26 344.94 218.31 344.91 218.36 344.89 218.41 344.88 218.44 344.87 218.49 344.85 218.51 344.84 218.56 344.83 218.59 344.82 218.62 344.81 218.66 344.8 218.68 344.79 218.72 344.79 218.79 344.8 218.81 344.81 218.84 344.84 218.87 344.86 218.9 344.86 218.91 344.88 218.97 344.9 219.02 344.91 219.05 344.92 219.08 344.93 219.12 344.94 219.16 344.94 219.22 344.94 219.27 344.94 219.32 344.95 219.34 344.98 219.33 345 219.32 345.02 219.31 345.03 219.3 345.05 219.39 345.06 219.49 345.07 219.54 345.08 219.59 345.1 219.63 345.12 219.66 345.13 219.68 345.15 219.7 345.16 219.72 345.18 219.74 345.19 219.76 345.2 219.79 345.22 219.81 345.24 219.84 345.27 219.85 345.29 219.85 345.3 219.86 345.43 219.98 345.5 220.02 345.53 220.04 345.54 220.04 345.55 220.07 345.56 220.1 345.55 220.12 345.54 220.14 345.54 220.15 345.49 220.18 345.44 220.22 345.42 220.25 345.39 220.28 345.37 220.31 345.35 220.33 345.32 220.36 345.29 220.39 345.26 220.41 345.25 220.43 345.24 220.44 345.23 220.46 345.23 220.47 345.23 220.49 345.23 220.5 345.24 220.51 345.25 220.52 345.28 220.54 345.32 220.55 345.39 220.55 345.53 220.55 345.55 220.57 345.55 220.58 345.66 221.79 345.78 222.8 343.66 224.62 343.52 225.25 343.55 225.77 343.4 225.96 343.39 225.97 343.39 225.99 343.38 226.04 343.38 226.07 343.37 226.12 343.37 226.18 343.36 226.23 343.35 226.29 343.35 226.33 343.35 226.36 343.36 226.39 343.36 226.44 343.36 226.47 343.36 226.51 343.36 226.54 343.36 226.56 343.35 226.56 343.24 226.81 343.18 227.13 343.1 227.7 343.12 228.25 343.03 228.36 342.99 228.4 342.95 228.45 342.9 228.51 342.89 228.57 342.86 228.62 342.85 228.68 342.79 228.74 342.76 228.78 342.68 228.84 342.64 228.91 342.62 229 342.57 229.14 342.5 229.32 342.46 229.46 342.41 229.53 342.38 229.54 342.33 229.56 342.28 229.56 342.12 229.59 342.01 229.62 341.87 229.67 341.77 229.69 341.66 229.75 341.61 229.8 341.56 229.85 341.54 229.89 341.52 229.92 341.51 229.93 341.5 229.94 341.5 229.95 340.55 230.97 340.15 229.93 339.88 229.55 339.48 228.08 339.38 227.6 339.28 227.49 338.67 226.58 338.48 225.78 338.54 225.27 338.5 224.39 338.29 223.84 338.31 223.5 338.27 222.83 338.18 222.43 338.18 222.36 338.17 222.29 338.17 222.21 338.16 222.14 338.15 222.09 338.13 222.05 338.12 222.02 338.11 222 338.09 221.96 338.08 221.92 338.07 221.89 338.03 221.86 338.03 221.84 338.02 221.81 338.01 221.75 337.99 221.71 337.98 221.66 337.96 221.61 337.97 221.58 337.65 221.01 337.65 221.01 337.63 221.04 337.63 221.05 337.63 221.06 337.64 221.1 337.65 221.13 337.67 221.17 337.69 221.18 337.42 221.1 337.22 221 337.2 221 337.16 220.99 337.11 220.99 337.06 220.98 336.99 220.97 336.95 220.97 336.9 220.96 336.86 220.95 336.82 220.93 336.79 220.92 336.76 220.91 336.71 220.88 336.67 220.87 336.62 220.86 336.58 220.85 336.54 220.84 336.49 220.81 336.45 220.79 336.41 220.77 336.38 220.75 335.77 220.61 334.64 220.27 334.91 219.76 335.06 219.1 335.08 218.29 335.18 218.01 335.31 217.57 335.52 216.99 335.6 217.01 335.61 216.77 336.38 216.58 336.77 216.49 337.21 216.37 337.66 216.3 338.03 216.36 338.6 216.08 338.9 215.94 339.62 215.81 339.96 215.85 340.16 215.99 340.31 216.08 340.62 215.84 341.02 215.53 341.34 215.3 341.55 215.11 341.66 215.03 341.63 214.67 341.4 214.59 341.41 214.23 341.28 213.93 341.92 212.35 341.58 211.7 340.86 211.67 Z"/>
</g></svg>