<svg xmlns="http://www.w3.org/2000/svg" version="1.2" baseProfile="tiny" stroke-linecap="round" stroke-linejoin="round" viewBox="125.27 95.5 10.23 8.23"><g xmlns="http://www.w3.org/2000/svg" id="Sestao">
<path d="M 131.45 97.37 132.42 97.78 132.99 98.08 133.53 98.31 133.92 98.5 134.04 98.56 134.16 98.63 134.28 98.7 134.39 98.77 134.49 98.84 134.57 98.89 134.62 98.92 134.66 98.95 134.72 99.01 134.78 99.05 134.85 99.12 134.9 99.16 134.95 99.25 135.04 99.39 135.11 99.49 135.16 99.6 135.26 99.86 135.27 99.92 135.28 99.96 135.38 100.64 135.42 100.87 135.47 101.74 135.29 101.66 134.41 101.3 132.79 100.64 132.74 100.62 132.72 100.62 132.69 100.62 132.65 100.62 132.59 100.62 132.51 100.65 132.48 100.66 132.38 100.71 132.28 100.78 132.19 100.85 132.13 100.9 132.08 100.96 132 101.08 131.92 101.22 131.89 101.29 131.84 101.35 131.77 101.42 131.72 101.46 131.66 101.5 131.61 101.51 131.46 101.51 131.29 101.52 131.03 101.52 130.73 101.53 130.63 101.52 130.31 101.55 130.17 101.56 130.03 101.54 129.92 101.55 129.84 101.52 129.79 101.5 129.78 101.5 129.72 101.5 129.69 101.51 129.67 101.52 129.61 101.54 129.57 101.58 129.54 101.61 129.46 101.69 129.43 101.78 129.42 101.82 129.39 101.93 129.36 102.07 129.28 102.47 129.22 102.75 129.21 102.78 129.15 102.94 129.12 103.04 129.08 103.14 129.06 103.2 129.04 103.23 129 103.26 128.97 103.28 128.96 103.29 128.78 103.42 128.63 103.53 128.54 103.58 128.47 103.63 128.42 103.65 128.32 103.68 128.12 103.71 128.1 103.68 128.08 103.67 126.22 101.18 125.87 100.74 125.86 100.72 125.29 99.97 125.29 99.22 125.65 97.78 125.66 97.74 126.09 97.23 126.17 97.17 127.53 95.51 128.46 95.85 131.45 97.37 Z"/>
</g></svg>