<svg xmlns="http://www.w3.org/2000/svg" version="1.2" baseProfile="tiny" stroke-linecap="round" stroke-linejoin="round" viewBox="734.35 109.62 29.93 24.68"><g xmlns="http://www.w3.org/2000/svg" id="Sohüta">
<path d="M 761.27 110.32 761.32 110.34 761.34 110.35 761.36 110.35 761.4 110.35 761.43 110.36 761.46 110.39 761.49 110.41 761.52 110.44 761.56 110.47 761.67 110.54 761.69 110.55 761.73 110.57 761.77 110.59 761.8 110.62 761.84 110.64 761.86 110.67 761.87 110.71 761.87 110.73 761.85 110.77 761.83 110.79 761.81 110.8 761.77 110.82 761.77 110.84 761.77 110.87 761.78 110.9 761.79 110.93 761.81 110.98 761.82 111.01 761.82 111.04 761.82 111.08 761.82 111.11 761.83 111.13 761.85 111.15 761.87 111.16 761.89 111.18 761.91 111.2 761.93 111.23 761.94 111.25 761.96 111.26 761.97 111.34 761.97 111.37 761.99 111.41 762 111.44 762 111.47 762.01 111.5 762.01 111.53 762.01 111.6 762.01 111.63 762.01 111.65 762.03 111.66 762.05 111.67 762.07 111.69 762.09 111.7 762.13 111.71 762.18 111.71 762.27 111.71 762.31 111.71 762.35 111.7 762.41 111.7 762.41 111.7 762.47 111.7 762.54 111.68 762.58 111.67 762.61 111.65 762.65 111.64 762.68 111.64 762.7 111.65 762.74 111.67 762.77 111.7 762.79 111.73 762.82 111.76 762.85 111.78 762.89 111.79 762.92 111.8 762.97 111.81 763.01 111.8 763.03 111.8 763.07 111.8 763.08 111.8 763.11 111.81 763.13 111.83 763.14 111.85 763.15 111.88 763.16 111.93 763.17 111.98 763.19 112.04 763.2 112.09 763.21 112.11 763.21 112.14 763.22 112.17 763.24 112.2 763.25 112.22 763.27 112.24 763.29 112.26 763.32 112.28 763.34 112.3 763.36 112.34 763.37 112.37 763.39 112.41 763.39 112.42 763.45 112.45 763.47 112.46 763.52 112.48 763.55 112.48 763.59 112.49 763.63 112.5 763.65 112.51 763.68 112.52 763.7 112.53 763.73 112.54 763.76 112.54 763.78 112.56 763.79 112.57 763.81 112.62 763.79 112.64 763.76 112.66 763.73 112.67 763.69 112.69 763.65 112.71 763.62 112.73 763.57 112.77 763.54 112.8 763.52 112.82 763.5 112.84 763.49 112.85 763.36 112.99 763.27 113.02 763.22 113.03 763.28 113.63 763.34 114.23 763.37 114.56 763.35 114.57 763.31 114.59 763.21 114.61 763.16 114.63 763.09 114.67 762.99 114.72 762.92 114.74 762.84 114.78 762.79 114.8 762.73 114.85 762.64 114.94 762.59 114.99 762.56 115.03 762.55 115.04 762.53 115.09 762.74 115.32 762.76 115.41 762.62 115.75 762.6 115.8 762.58 115.83 762.57 115.87 762.56 115.93 762.56 115.96 762.56 116 762.57 116.04 762.58 116.08 762.58 116.14 762.58 116.3 762.57 116.56 762.56 116.73 762.57 116.8 762.58 116.85 762.61 116.9 762.66 116.95 762.68 117.03 762.7 117.1 762.7 117.2 762.7 117.3 762.68 117.38 762.66 117.46 762.63 117.53 762.57 117.66 762.51 117.76 762.45 117.86 762.35 118 762.18 118.23 762.01 118.41 761.91 118.53 761.79 118.61 761.64 118.79 761.59 118.8 761.56 118.8 761.53 118.82 761.48 118.86 761.39 118.94 761.33 119 761.25 119.08 761.17 119.16 761.11 119.22 761.1 119.23 761.08 119.26 761.07 119.28 761.07 119.31 760.89 119.33 760.75 119.41 760.49 119.81 760.5 119.93 760.68 120.16 760.8 120.2 760.89 120.23 760.97 120.26 761.08 120.33 761.2 120.44 761.34 120.56 761.45 120.66 761.5 120.71 761.54 120.74 761.57 120.76 761.62 120.81 761.68 120.87 761.78 120.99 761.82 121.04 761.84 121.08 761.86 121.13 761.89 121.19 761.92 121.24 761.94 121.28 761.96 121.34 761.99 121.38 762.03 121.45 762.05 121.49 762.07 121.54 762.09 121.6 762.13 121.69 762.16 121.75 762.18 121.81 762.19 121.83 762.22 121.86 762.27 121.88 762.29 121.88 762.32 121.86 762.34 121.86 762.39 121.88 762.42 121.9 762.45 121.91 762.47 121.91 762.49 121.91 762.51 121.92 762.53 121.95 762.55 121.99 762.57 122.03 762.59 122.05 762.63 122.05 762.67 122.05 762.71 122.05 762.76 122.06 762.81 122.08 762.84 122.1 762.89 122.13 762.93 122.19 762.97 122.26 763 122.28 763.03 122.3 763.08 122.32 763.13 122.34 763.21 122.35 763.29 122.35 763.34 122.34 763.37 122.34 763.4 122.34 763.43 122.35 763.46 122.36 763.49 122.37 763.5 122.38 763.52 122.38 763.55 122.37 763.57 122.35 763.62 122.34 763.66 122.35 763.71 122.36 763.78 122.39 763.85 122.41 763.89 122.42 763.94 122.41 763.96 122.4 763.98 122.39 764.1 122.32 764.23 122.25 764.27 122.39 764.23 122.42 764.18 122.46 764.12 122.5 764.03 122.59 763.99 122.64 763.93 122.72 763.87 122.78 763.86 122.81 763.85 122.84 763.85 122.87 763.85 122.9 763.86 122.94 763.86 123.01 763.87 123.08 763.88 123.14 763.88 123.18 763.88 123.22 763.88 123.27 763.87 123.3 763.87 123.32 763.86 123.34 763.87 123.37 763.86 123.39 763.87 123.43 763.88 123.46 763.9 123.48 763.91 123.51 763.93 123.53 763.95 123.55 763.95 123.58 763.95 123.6 763.93 123.62 763.9 123.64 763.87 123.65 763.8 123.69 763.72 123.72 763.68 123.75 763.64 123.78 763.58 123.82 763.49 123.86 763.45 123.88 763.42 123.9 763.42 123.92 763.41 123.96 763.41 123.99 763.4 124.03 763.37 124.05 763.36 124.07 763.34 124.08 763.31 124.1 763.28 124.1 763.26 124.1 763.23 124.09 763.2 124.06 763.16 124.04 763.12 124.02 763.09 124.01 763.07 124.01 763.05 124.01 763.03 124.01 762.99 124.02 762.96 124.03 762.92 124.05 762.88 124.06 762.85 124.07 762.83 124.06 762.82 124.04 762.79 124.03 762.75 124.02 762.71 124.01 762.68 124.01 762.64 124.02 762.61 124.04 762.58 124.06 762.51 124.11 762.44 124.14 762.41 124.16 762.38 124.16 762.33 124.15 762.29 124.14 762.24 124.13 762.21 124.13 762.11 124.14 762.01 124.15 761.97 124.16 761.93 124.18 761.88 124.21 761.81 124.25 761.74 124.29 761.69 124.32 761.64 124.34 761.62 124.35 761.49 124.51 761.45 124.6 761.4 124.69 761.32 124.77 761.27 124.8 761.24 124.8 761.22 124.79 761.2 124.78 761.18 124.77 761.16 124.76 761.14 124.78 761.04 124.88 760.92 125.02 760.91 125.06 760.9 125.12 760.89 125.14 760.89 125.16 760.89 125.2 760.9 125.21 760.93 125.23 760.95 125.24 760.96 125.26 760.96 125.28 760.95 125.31 760.94 125.34 760.92 125.41 760.89 125.52 760.87 125.56 760.85 125.59 760.81 125.63 760.78 125.64 760.78 125.66 760.78 125.69 760.78 125.73 760.78 125.76 760.77 125.79 760.72 125.85 760.67 125.95 760.63 126.04 760.58 126.14 760.57 126.18 760.55 126.2 760.53 126.23 760.51 126.27 760.51 126.3 760.53 126.33 760.54 126.34 760.54 126.37 760.55 126.4 760.56 126.48 760.57 126.52 760.58 126.54 760.58 126.57 760.58 126.59 760.58 126.63 760.58 126.66 760.58 126.69 760.57 126.76 760.55 126.8 760.54 126.83 760.52 126.86 760.5 126.9 760.5 126.93 760.5 126.96 760.51 126.99 760.53 127.02 760.54 127.06 760.55 127.09 760.55 127.13 760.55 127.22 760.55 127.24 760.5 127.27 760.48 127.29 760.46 127.29 760.44 127.28 760.41 127.27 760.39 127.28 760.37 127.29 760.36 127.31 760.31 127.34 760.29 127.36 760.26 127.38 760.25 127.41 760.24 127.43 760.23 127.46 760.22 127.5 760.21 127.54 760.19 127.57 760.17 127.6 760.13 127.64 760.11 127.66 760.07 127.69 760.01 127.74 759.95 127.78 759.93 127.81 759.9 127.84 759.85 127.92 759.84 127.94 759.83 127.95 759.83 127.97 759.82 127.99 759.81 128.02 759.8 128.06 759.79 128.09 759.73 128.16 759.68 128.21 759.63 128.27 759.57 128.31 759.52 128.34 759.43 128.39 759.39 128.41 759.36 128.45 759.3 128.51 759.24 128.56 759.22 128.58 759.2 128.62 759.18 128.66 759.15 128.69 759.11 128.72 759.09 128.73 759.07 128.76 759.05 128.78 759.04 128.8 759.02 128.83 758.99 128.85 758.97 128.88 758.95 128.91 758.92 128.93 758.91 128.94 758.9 128.96 758.89 128.99 758.89 129.01 758.88 129.04 758.88 129.09 758.87 129.12 758.85 129.14 758.83 129.15 758.82 129.17 758.8 129.19 758.78 129.21 758.75 129.22 758.74 129.26 758.72 129.29 758.71 129.32 758.7 129.35 758.69 129.36 758.67 129.37 758.65 129.37 758.63 129.37 758.6 129.36 758.58 129.36 758.55 129.36 758.53 129.35 758.51 129.35 758.49 129.35 758.47 129.36 758.44 129.37 758.42 129.39 758.4 129.41 758.36 129.47 758.3 129.56 758.26 129.59 758.24 129.63 758.21 129.67 758.2 129.7 758.19 129.73 758.18 129.76 758.16 129.78 758.15 129.8 758.12 129.84 758.13 129.88 758.14 129.91 758.14 129.95 758.14 129.99 758.15 130.04 758.16 130.08 758.17 130.12 758.2 130.18 758.22 130.2 758.24 130.23 758.24 130.26 758.22 130.31 758.19 130.38 758.02 130.39 757.86 130.52 757.61 130.73 757.12 131.07 756.71 131.29 756.32 131.53 756.28 131.74 756.21 131.82 756.14 131.88 756.09 131.93 756.03 132 755.96 132.05 755.91 132.09 755.88 132.14 755.84 132.2 755.8 132.26 755.73 132.29 755.36 133.05 755.03 133.78 755.02 133.83 755.01 133.86 754.2 133.92 753.16 134.27 752.57 134.23 752.55 134.22 752.53 134.22 752.49 134.22 752.46 134.21 752.41 134.18 752.32 134.12 752.25 134.07 752.2 134.04 752.17 134.03 752.14 134.04 752.12 134.05 752.08 134.06 752.06 134.06 752.04 134.05 752.02 134.04 752 134.01 751.98 133.98 751.95 133.96 751.92 133.93 751.89 133.91 751.85 133.9 751.82 133.9 751.79 133.88 751.77 133.86 751.76 133.84 751.75 133.81 751.74 133.79 751.73 133.77 751.72 133.75 751.71 133.72 751.7 133.7 751.69 133.67 751.68 133.64 751.65 133.63 751.62 133.61 751.59 133.59 751.58 133.57 751.57 133.53 751.6 133.48 751.62 133.44 751.64 133.38 751.65 133.35 751.64 133.32 751.63 133.27 751.62 133.25 751.6 133.21 751.58 133.18 751.56 133.16 751.52 133.14 751.45 133.11 751.37 133.09 751.3 133.08 751.23 133.05 751.19 133.03 751.16 133 751.14 132.98 751.11 132.98 751.07 132.98 751.03 132.97 751.01 132.96 750.98 132.95 750.96 132.93 750.93 132.91 750.9 132.9 750.87 132.88 750.85 132.85 750.84 132.82 750.83 132.77 750.83 132.75 750.81 132.72 750.79 132.69 750.77 132.67 750.74 132.67 750.73 132.67 750.69 132.68 750.64 132.68 750.61 132.67 750.5 132.67 750.47 132.66 750.45 132.66 750.44 132.65 750.43 132.63 750.41 132.62 750.41 132.61 750.4 132.61 750.39 132.6 750.38 132.6 750.37 132.6 750.35 132.6 750.34 132.6 750.33 132.6 750.32 132.61 750.31 132.62 750.3 132.63 750.28 132.64 750.27 132.64 750.26 132.65 750.25 132.65 750.24 132.66 750.23 132.66 750.21 132.67 750.19 132.67 750.18 132.67 750.17 132.67 750.16 132.67 750.14 132.67 750.13 132.67 750.12 132.66 750.11 132.65 750.1 132.63 750.1 132.62 750.04 132.63 750 132.64 749.97 132.65 749.95 132.65 749.93 132.65 749.92 132.66 749.87 132.71 749.84 132.73 749.81 132.76 749.79 132.81 749.77 132.84 749.77 132.88 749.77 132.91 749.77 132.93 749.3 133.22 749.23 133.3 749.18 133.36 749.13 133.44 749.1 133.48 749.09 133.51 749.08 133.55 749.06 133.61 749.03 133.68 749.02 133.72 748.75 133.73 748.73 133.71 748.69 133.69 748.66 133.68 748.62 133.67 748.59 133.66 748.57 133.64 748.55 133.62 748.53 133.6 748.52 133.57 748.51 133.54 748.51 133.51 748.51 133.44 748.52 133.36 748.53 133.29 748.54 133.24 748.54 133.22 748.26 133.07 748.26 133.02 748.29 132.98 748.3 132.93 748.19 132.88 748.05 132.79 748.05 132.78 748.06 132.76 748.07 132.74 748.08 132.73 748.11 132.68 748.13 132.65 748.14 132.64 748.16 132.62 748.18 132.6 748.2 132.59 748.22 132.57 748.24 132.55 748.29 132.49 748.31 132.45 748.32 132.42 748.33 132.39 748.33 132.38 748.33 132.36 748.33 132.33 748.33 132.3 748.32 132.28 748.32 132.27 748.32 132.26 748.31 132.24 748.31 132.23 748.32 132.21 748.34 132.17 748.36 132.15 748.38 132.12 748.38 132.11 748.39 132.1 748.39 132.09 748.4 132.08 748.4 132.07 748.41 132.06 748.41 132.05 748.42 132.04 748.43 132.02 748.43 132.01 748.45 132 748.47 131.99 748.48 131.98 748.49 131.97 748.49 131.96 748.49 131.95 748.49 131.94 748.48 131.92 748.48 131.91 748.49 131.89 748.5 131.88 748.51 131.86 748.52 131.85 748.53 131.84 748.53 131.82 748.54 131.8 748.54 131.78 748.54 131.78 748.53 131.77 748.52 131.76 748.51 131.75 748.5 131.74 748.49 131.74 748.48 131.74 748.46 131.73 748.46 131.72 748.45 131.71 748.45 131.69 748.46 131.68 748.46 131.67 748.48 131.66 748.5 131.64 748.52 131.63 748.39 131.5 748.32 131.49 748.28 131.47 748.26 131.47 748.23 131.47 748.18 131.47 748.1 131.48 748.05 131.49 748.15 131.67 748.13 131.69 748.11 131.72 748.09 131.76 748.08 131.78 748.07 131.79 748.04 131.81 747.92 131.85 747.88 131.85 747.84 131.85 747.8 131.85 747.77 131.86 747.74 131.87 747.69 131.87 747.66 131.88 747.62 131.88 747.58 131.88 747.53 131.88 747.5 131.89 747.48 131.89 747.44 131.88 747.41 131.87 747.38 131.86 747.34 131.84 747.3 131.81 747.29 131.8 747.26 131.77 747.23 131.76 747.2 131.73 747.15 131.7 747.11 131.67 747.06 131.64 747.01 131.61 746.98 131.59 746.93 131.56 746.91 131.54 746.88 131.52 746.86 131.51 746.84 131.5 746.8 131.5 746.77 131.5 746.72 131.49 746.7 131.48 746.66 131.51 746.55 131.57 746.35 131.75 746.21 131.86 746.22 131.98 746.17 131.98 746.1 131.98 745.69 131.96 745.55 131.88 745.56 131.85 745.55 131.83 745.55 131.8 745.54 131.75 745.52 131.74 745.46 131.7 745.3 131.63 745.25 131.6 745.22 131.57 745.18 131.53 745.12 131.48 745.11 131.49 745.09 131.52 745.02 131.58 744.95 131.66 744.88 131.76 744.83 131.83 744.79 131.92 744.77 131.96 744.74 131.99 744.65 132.06 744.5 132.18 744.43 132.24 744.37 132.29 744.36 132.29 744.2 132.32 744.14 132.33 744.04 132.33 744.01 132.33 743.99 132.32 743.98 132.32 743.96 132.32 743.95 132.32 743.93 132.32 743.91 132.31 743.88 132.31 743.84 132.32 743.82 132.33 743.8 132.35 743.78 132.37 743.77 132.46 743.78 132.57 743.78 132.67 743.76 132.81 743.73 132.97 743.7 133.09 743.68 133.15 743.66 133.2 743.64 133.22 743.32 133.29 743.23 132.88 743.21 132.81 743.13 132.68 742.89 132.46 742.58 132.29 742.43 131.42 742.51 131.21 742.43 131.17 742.41 131.17 742.4 131.17 742.38 131.18 742.34 131.19 742.19 131.14 741.93 130.97 741.8 130.87 741.71 130.75 741.69 130.71 741.66 130.64 741.63 130.6 741.6 130.58 741.57 130.56 741.55 130.54 741.54 130.51 741.53 130.47 741.52 130.43 741.51 130.4 741.48 130.35 741.43 130.16 741.36 129.95 741.33 129.86 741.32 129.81 741.33 129.76 741.32 129.72 741.3 129.68 741.28 129.64 741.24 129.59 741.2 129.53 741.17 129.5 741.15 129.49 741.12 129.48 741.09 129.47 741.06 129.45 741.04 129.43 741.03 129.4 741.02 129.38 741 129.37 740.98 129.36 740.96 129.34 740.94 129.32 740.92 129.3 740.9 129.27 740.88 129.23 740.87 129.2 740.85 129.16 740.83 129.11 740.81 129.07 740.79 129.05 740.77 129.03 740.75 129.01 740.73 129.01 740.71 129 740.68 129 740.64 128.99 740.61 128.98 740.55 128.96 740.5 128.94 740.47 128.91 740.44 128.88 740.41 128.82 740.39 128.77 740.36 128.71 740.34 128.65 740.32 128.6 740.28 128.55 740.24 128.52 740.2 128.48 740.15 128.45 740.1 128.41 740.04 128.36 739.98 128.33 739.91 128.28 739.83 128.24 739.7 128.21 739.6 128.19 739.49 128.19 739.39 128.2 739.3 128.2 739.21 128.21 739.11 128.23 739.01 128.25 738.84 128.28 738.71 128.3 738.76 128.36 738.7 128.34 738.65 128.33 738.63 128.31 738.63 128.29 738.64 128.25 738.67 128.2 738.71 128.14 738.74 128.1 738.77 128.07 738.78 128.03 738.77 127.99 738.75 127.94 738.71 127.89 738.68 127.85 738.65 127.82 738.62 127.8 738.57 127.8 738.52 127.81 738.46 127.81 738.41 127.8 738.38 127.78 738.34 127.77 738.26 127.75 738.21 127.72 738.18 127.69 738.16 127.64 738.14 127.58 738.12 127.54 738.08 127.49 738.05 127.45 738 127.42 737.97 127.4 737.91 127.39 737.83 127.38 737.72 127.38 737.58 127.39 737.47 127.39 737.39 127.4 737.33 127.39 737.29 127.37 737.26 127.34 737.23 127.28 737.2 127.21 737.17 127.15 737.14 127.07 737.11 126.98 737.09 126.91 737.07 126.84 737.05 126.81 737 126.76 736.96 126.7 736.94 126.64 736.92 126.59 736.89 126.54 736.87 126.49 736.84 126.45 736.79 126.4 736.73 126.33 736.69 126.28 736.65 126.25 736.61 126.25 736.53 126.29 736.47 126.3 736.41 126.28 736.33 126.23 736.28 126.2 736.18 126.13 736.06 126.08 735.96 126.02 735.91 125.45 736.12 125.32 736.12 125.26 736.11 125.23 736.11 125.19 736.1 125.16 736.09 125.11 736.06 125.06 736.02 125.01 735.97 124.93 735.92 124.88 735.84 124.8 735.72 124.69 735.6 124.62 735.47 124.53 735.27 124.2 735.41 124.03 735.37 123.96 735.02 123.65 734.7 123.11 734.67 123.09 734.51 123 734.38 122.94 734.38 122.89 734.38 122.86 734.39 122.82 734.4 122.77 734.41 122.71 734.43 122.65 734.44 122.59 734.46 122.51 734.48 122.44 734.5 122.34 734.52 122.3 734.52 122.29 734.53 122.27 734.55 122.21 734.57 122.15 734.6 122.07 734.62 122.02 734.64 121.97 734.68 121.92 734.71 121.87 734.75 121.81 734.8 121.74 734.85 121.66 734.92 121.59 734.96 121.53 735 121.47 735.05 121.42 735.09 121.38 735.16 121.32 735.26 121.24 735.32 121.18 735.37 121.12 735.42 121.07 735.46 121.01 735.49 120.97 735.53 120.91 735.56 120.84 735.58 120.78 735.6 120.73 735.61 120.67 735.61 120.61 735.6 120.52 735.6 120.45 735.58 120.35 735.58 120.27 735.57 120.15 735.58 120.08 735.58 120.01 735.6 119.92 735.63 119.81 735.65 119.74 735.65 119.71 735.67 119.64 735.69 119.54 735.7 119.48 735.71 119.42 735.72 119.36 735.73 119.32 735.73 119.25 735.73 119.2 735.73 119.13 735.71 119.04 735.68 118.88 735.65 118.74 735.63 118.61 735.61 118.53 735.61 118.48 735.61 118.43 735.62 118.33 735.64 118.19 735.66 118.11 735.67 118.05 735.67 118.04 735.67 118 735.65 117.93 735.59 117.77 735.57 117.68 735.63 117.69 735.66 117.68 735.72 117.68 735.76 117.68 735.8 117.67 735.84 117.65 735.94 117.62 735.97 117.62 735.98 117.61 736 117.62 736.02 117.64 736.07 117.65 736.11 117.66 736.16 117.68 736.2 117.69 736.23 117.71 736.27 117.73 736.31 117.73 736.34 117.72 736.37 117.71 736.41 117.69 736.45 117.67 736.48 117.66 736.52 117.64 736.56 117.62 736.6 117.64 736.61 117.64 736.67 117.66 736.76 117.68 736.81 117.69 736.84 117.68 736.87 117.67 736.92 117.65 736.96 117.66 736.99 117.66 737.02 117.67 737.05 117.68 737.08 117.68 737.13 117.71 737.19 117.74 737.23 117.75 737.28 117.75 737.32 117.73 737.36 117.71 737.38 117.68 737.44 117.62 737.47 117.57 737.49 117.54 737.48 117.5 737.46 117.47 737.44 117.45 737.44 117.42 737.46 117.38 737.47 117.34 737.48 117.3 737.49 117.26 737.5 117.23 737.5 117.2 737.52 117.17 737.56 117.13 737.57 117.09 737.59 117.06 737.61 117.05 737.63 117.05 737.71 117.08 737.74 117.09 737.77 117.1 737.79 117.11 737.82 117.11 737.94 117.11 738.05 117.12 738.11 117.12 738.15 117.13 738.19 117.15 738.21 117.17 738.24 117.22 738.26 117.27 738.29 117.29 738.31 117.3 738.35 117.31 738.37 117.31 738.4 117.3 738.42 117.29 738.43 117.28 738.44 117.26 738.44 117.24 738.45 117.21 738.46 117.16 738.47 117.12 738.48 117.09 738.52 117.05 738.54 117.02 738.55 116.98 738.57 116.96 738.59 116.93 738.61 116.92 738.64 116.89 738.67 116.87 738.71 116.86 738.74 116.86 738.77 116.85 738.8 116.83 738.82 116.82 738.86 116.81 738.9 116.8 738.95 116.8 738.98 116.8 739 116.8 739.03 116.8 739.06 116.79 739.1 116.77 739.15 116.75 739.2 116.73 739.25 116.72 739.29 116.71 739.34 116.71 739.39 116.71 739.44 116.7 739.49 116.69 739.52 116.69 739.65 116.64 739.68 116.63 739.72 116.63 739.77 116.63 739.9 116.63 740.03 116.64 740.16 116.65 740.23 116.66 740.39 116.66 740.6 116.67 740.8 116.67 740.92 116.67 741.01 116.66 741.13 116.67 741.18 116.67 741.33 116.68 741.45 116.67 741.5 116.65 741.53 116.62 741.56 116.59 741.58 116.56 741.6 116.54 741.63 116.53 741.68 116.51 741.71 116.49 741.74 116.48 741.74 116.47 741.76 116.48 741.8 116.49 741.82 116.51 741.83 116.52 741.85 116.55 741.88 116.58 741.92 116.61 741.95 116.62 741.99 116.64 742.01 116.65 742.04 116.66 742.07 116.67 742.1 116.67 742.13 116.68 742.15 116.69 742.17 116.7 742.19 116.7 742.2 116.72 742.25 116.74 742.26 116.74 742.28 116.75 742.29 116.75 742.3 116.75 742.32 116.74 742.34 116.74 742.41 116.76 742.45 116.76 742.47 116.77 742.5 116.79 742.54 116.81 742.55 116.81 742.56 116.82 742.57 116.84 742.57 116.85 742.57 116.86 742.58 116.88 742.58 116.89 742.59 116.9 742.59 116.91 742.59 116.92 742.6 116.93 742.62 116.95 742.66 116.97 742.67 116.98 742.69 116.99 742.69 117 742.69 117.02 742.69 117.03 742.69 117.04 742.7 117.04 742.72 117.05 742.74 117.06 742.77 117.06 742.78 117.07 742.8 117.07 742.82 117.08 742.83 117.09 742.85 117.11 742.86 117.12 742.87 117.12 742.89 117.13 742.91 117.14 742.93 117.15 742.95 117.16 742.96 117.17 742.97 117.18 742.97 117.2 742.97 117.2 742.98 117.21 742.98 117.22 742.99 117.22 742.99 117.22 743 117.23 743.01 117.24 743.02 117.25 743.03 117.25 743.04 117.26 743.04 117.27 743.05 117.29 743.06 117.31 743.1 117.34 743.13 117.37 743.16 117.39 743.17 117.39 743.18 117.39 743.19 117.4 743.2 117.4 743.21 117.41 743.22 117.42 743.24 117.43 743.27 117.44 743.3 117.45 743.33 117.46 743.36 117.47 743.38 117.51 743.39 117.53 743.44 117.58 743.54 117.66 743.61 117.72 743.62 117.73 743.63 117.73 743.64 117.73 743.65 117.72 743.66 117.71 743.67 117.69 743.69 117.67 743.71 117.64 743.9 117.61 744.05 117.67 744.9 117.81 744.94 117.82 745 117.8 745.1 117.42 745.27 117.34 745.66 117.34 745.86 117.38 745.91 117.57 745.92 117.58 746.03 117.56 746.25 117.46 746.65 117.34 746.64 116.76 746.67 116.64 746.71 116.55 746.74 116.43 746.75 116.3 746.74 116.21 746.74 116.14 746.77 116.07 746.82 116 746.89 115.86 746.91 115.75 746.93 115.62 746.92 115.49 746.95 115.42 746.99 115.35 747.07 115.25 747.1 115.16 747.13 115.05 747.17 114.96 747.2 114.91 747.22 114.79 747.26 114.63 747.3 114.53 747.33 114.42 747.38 114.34 747.47 114.19 747.53 114.13 747.58 114.09 747.66 114.07 747.73 114.04 747.82 114.04 747.86 114.02 747.91 113.99 747.94 113.99 748.06 114 748.22 114.01 748.26 113.99 748.36 113.95 748.42 113.89 748.47 113.87 748.55 113.86 748.63 113.85 748.73 113.78 748.87 113.67 748.97 113.59 748.99 113.55 749.1 113.48 749.15 113.45 749.21 113.42 749.29 113.35 749.39 113.24 749.49 113.15 749.64 113.08 749.74 113.06 749.84 113.04 749.87 113 749.9 112.94 749.96 112.88 750.07 112.82 750.16 112.75 750.18 112.74 750.2 112.74 750.2 112.75 750.2 112.78 750.2 112.79 750.21 112.81 750.23 112.82 750.25 112.8 750.26 112.78 750.29 112.79 750.33 112.8 750.35 112.79 750.36 112.78 750.39 112.76 750.42 112.76 750.44 112.76 750.46 112.74 750.5 112.71 750.51 112.7 750.51 112.68 750.55 112.67 750.59 112.66 750.65 112.66 750.67 112.65 750.69 112.65 750.69 112.68 750.69 112.69 750.71 112.7 750.74 112.7 750.77 112.7 750.79 112.71 750.81 112.72 750.83 112.72 750.86 112.69 750.9 112.68 750.93 112.69 750.95 112.69 750.99 112.67 751.04 112.64 751.08 112.6 751.09 112.56 751.09 112.5 751.09 112.46 751.11 112.45 751.14 112.46 751.19 112.47 751.23 112.46 751.28 112.4 751.33 112.35 751.37 112.33 751.46 112.32 751.49 112.31 751.5 112.29 751.5 112.26 751.51 112.21 751.52 112.16 751.55 112.16 751.59 112.15 751.68 112.11 751.76 112.1 751.8 112.1 751.87 112.16 751.89 112.23 751.9 112.25 752 112.27 752.07 112.29 752.12 112.28 752.26 112.18 752.38 112.07 752.5 111.96 752.62 111.88 752.63 111.87 752.78 111.8 752.81 111.79 752.83 111.77 752.84 111.75 752.84 111.71 752.85 111.68 752.84 111.62 752.84 111.6 752.84 111.56 752.84 111.52 752.85 111.49 752.85 111.45 752.85 111.41 752.85 111.39 752.83 111.36 752.82 111.35 752.81 111.34 752.76 111.33 752.73 111.32 752.7 111.32 752.66 111.31 752.65 111.3 752.64 111.29 752.63 111.27 752.63 111.26 752.62 111.24 752.62 111.23 752.62 111.21 752.63 111.17 752.64 111.15 752.67 111.14 752.68 111.15 752.7 111.16 752.72 111.16 752.75 111.16 752.79 111.16 752.82 111.15 752.83 111.14 752.86 111.11 752.87 111.1 752.88 111.08 752.89 111.06 752.9 111.04 752.91 111.01 752.93 110.97 752.95 110.94 752.96 110.93 752.97 110.9 753 110.88 753.03 110.85 753.06 110.83 753.08 110.81 753.12 110.81 753.14 110.81 753.2 110.82 753.22 110.81 753.24 110.8 753.25 110.76 753.25 110.75 753.24 110.72 753.23 110.7 753.21 110.68 753.2 110.66 753.19 110.66 753.15 110.64 753.14 110.64 753.14 110.61 753.15 110.58 753.16 110.57 753.17 110.57 753.19 110.56 753.22 110.54 753.24 110.52 753.27 110.51 753.28 110.51 753.33 110.52 753.35 110.52 753.38 110.51 753.41 110.49 753.44 110.47 753.45 110.44 753.46 110.42 753.45 110.37 753.46 110.32 753.47 110.29 753.47 110.28 753.46 110.24 753.45 110.22 753.45 110.21 753.44 110.19 753.44 110.18 753.46 110.12 753.47 110.1 753.49 110.08 753.52 110.06 753.56 110.04 753.59 110.02 753.61 110.02 753.65 110.02 753.67 110.02 753.69 110.03 753.71 110.02 753.73 110.02 753.75 110.02 753.85 110.02 753.89 110.02 753.93 110.03 753.97 110.05 754 110.05 754.04 110.07 754.08 110.08 754.12 110.08 754.14 110.09 754.18 110.08 754.21 110.07 754.23 110.06 754.25 110.04 754.26 110.02 754.28 110.01 754.3 110.01 754.31 110 754.33 110 754.36 109.99 754.37 109.98 754.38 109.94 754.39 109.91 754.4 109.89 754.42 109.86 754.44 109.83 754.46 109.81 754.47 109.8 754.49 109.8 754.51 109.8 754.53 109.81 754.56 109.82 754.57 109.84 754.58 109.85 754.62 109.87 754.65 109.88 754.68 109.89 754.71 109.89 754.75 109.89 754.78 109.89 754.83 109.89 754.86 109.89 754.89 109.88 754.93 109.88 754.96 109.87 754.98 109.86 755 109.86 755.03 109.86 755.05 109.85 755.1 109.84 755.13 109.83 755.17 109.81 755.18 109.8 755.2 109.79 755.22 109.77 755.24 109.77 755.26 109.77 755.28 109.78 755.3 109.8 755.31 109.82 755.32 109.83 755.32 109.86 755.33 109.9 755.33 109.93 755.34 109.96 755.35 109.99 755.37 110.03 755.39 110.04 755.42 110.05 755.45 110.06 755.49 110.06 755.53 110.08 755.55 110.09 755.56 110.11 755.59 110.13 755.6 110.14 755.6 110.16 755.61 110.18 755.61 110.2 755.62 110.23 755.63 110.25 755.65 110.26 755.68 110.27 755.7 110.28 755.71 110.29 755.72 110.31 755.73 110.32 755.75 110.37 755.77 110.39 755.8 110.4 755.83 110.4 755.84 110.4 755.91 110.39 755.97 110.37 756.06 110.36 756.11 110.36 756.12 110.37 756.15 110.38 756.17 110.39 756.18 110.4 756.19 110.41 756.2 110.42 756.21 110.44 756.23 110.49 756.27 110.59 756.28 110.61 756.3 110.62 756.32 110.63 756.33 110.63 756.35 110.64 756.37 110.65 756.44 110.67 756.47 110.68 756.5 110.67 756.52 110.67 756.56 110.67 756.58 110.67 756.6 110.67 756.62 110.67 756.64 110.66 756.65 110.65 756.66 110.64 756.69 110.64 756.71 110.64 756.72 110.64 756.75 110.66 756.79 110.67 756.81 110.67 756.83 110.68 756.85 110.68 756.87 110.69 756.9 110.71 756.93 110.71 756.95 110.71 756.98 110.7 757 110.69 757.01 110.68 757.04 110.67 757.06 110.65 757.07 110.64 757.09 110.63 757.1 110.62 757.11 110.61 757.14 110.58 757.16 110.57 757.19 110.56 757.2 110.55 757.22 110.54 757.23 110.54 757.27 110.53 757.29 110.53 757.32 110.54 757.34 110.56 757.38 110.59 757.4 110.61 757.43 110.62 757.46 110.64 757.47 110.64 757.49 110.67 757.5 110.68 757.52 110.69 757.53 110.7 757.55 110.71 757.58 110.71 757.61 110.71 757.62 110.7 757.65 110.7 757.66 110.69 757.69 110.68 757.73 110.67 757.76 110.66 757.79 110.66 757.83 110.66 757.87 110.67 757.9 110.67 757.93 110.67 757.97 110.68 757.99 110.67 758.02 110.67 758.03 110.65 758.05 110.63 758.06 110.61 758.07 110.58 758.09 110.55 758.11 110.52 758.12 110.5 758.13 110.48 758.14 110.46 758.15 110.44 758.19 110.33 758.23 110.26 758.25 110.24 758.27 110.22 758.28 110.22 758.3 110.21 758.33 110.2 758.37 110.2 758.47 110.19 758.52 110.18 758.59 110.17 758.66 110.16 758.7 110.14 758.74 110.13 758.79 110.11 758.82 110.1 758.86 110.09 758.92 110.07 758.99 110.05 759.03 110.05 759.08 110.04 759.17 110.02 759.21 110.01 759.23 109.99 759.25 109.96 759.26 109.95 759.28 109.91 759.3 109.87 759.31 109.84 759.34 109.8 759.36 109.79 759.39 109.76 759.43 109.72 759.45 109.7 759.48 109.69 759.51 109.68 759.53 109.67 759.58 109.66 759.62 109.66 759.67 109.65 759.73 109.65 759.75 109.65 759.79 109.65 759.83 109.66 759.87 109.66 759.91 109.67 759.99 109.66 760.02 109.66 760.07 109.65 760.1 109.64 760.16 109.63 760.2 109.63 760.23 109.63 760.27 109.63 760.33 109.64 760.4 109.66 760.45 109.69 760.48 109.7 760.51 109.72 760.54 109.74 760.57 109.77 760.6 109.79 760.63 109.82 760.66 109.84 760.7 109.86 760.74 109.89 760.78 109.9 760.81 109.94 760.84 109.97 760.87 109.99 760.91 110 760.94 110.01 760.98 110.02 761.02 110.05 761.06 110.08 761.1 110.11 761.13 110.14 761.17 110.15 761.19 110.15 761.22 110.17 761.24 110.18 761.25 110.25 761.27 110.29 761.27 110.32 Z"/>
</g></svg>