<svg xmlns="http://www.w3.org/2000/svg" version="1.2" baseProfile="tiny" stroke-linecap="round" stroke-linejoin="round" viewBox="127.75 65.43 16.07 14.17"><g xmlns="http://www.w3.org/2000/svg" id="Sopela">
<path d="M 133.52 65.44 133.85 65.58 134.33 65.89 135.17 66.63 135.27 66.72 135.53 66.95 136.32 67.77 137.81 68.59 138.53 68.94 138.69 69.05 139.23 69.38 139.19 70.01 139.41 70.45 139.34 70.72 139.29 70.94 139.34 71.15 139.29 71.29 139.24 71.34 139.18 71.37 138.99 71.35 138.93 71.39 138.91 71.42 138.87 71.48 138.83 71.51 138.2 73.06 138.12 73.35 138.26 73.41 139.09 73.72 139.93 74.08 140.33 74.29 140.8 74.58 141.14 74.84 141.25 74.94 141.45 74.98 141.75 75.09 142.32 75.43 142.84 75.74 143.36 76.05 143.79 76.38 143.14 77.36 141.8 78.54 141.3 79.02 140.73 79.59 140.55 79.28 140.28 79.04 139.83 78.98 139.57 78.62 139.55 78.43 138.94 78.05 138.52 78.1 137.26 77.38 136.64 77.5 135.98 76.74 135.93 76.71 135.9 76.7 135.87 76.7 135.84 76.69 135.79 76.68 135.71 76.68 135.66 76.68 135.61 76.7 135.55 76.72 135.5 76.74 135.45 76.74 135.4 76.74 135.33 76.72 135.26 76.7 135.12 76.65 134.98 76.63 134.6 76.5 134.27 76.47 133.88 76.3 133.74 75.93 133.72 75.9 133.66 75.85 133.6 75.84 133.54 75.84 133.49 75.84 133.36 75.84 133.19 75.89 133.12 75.89 133.01 75.85 132.8 75.74 132.32 75.51 132.13 75.45 131.92 75.28 131.75 74.85 130.47 73.64 130.31 73.41 129.71 72.54 129.57 72.46 129.09 72.18 128.66 71.47 128.25 70.8 127.76 70.05 127.87 69.97 127.98 69.89 128.04 69.82 128.11 69.76 128.19 69.7 128.32 69.59 128.37 69.54 128.43 69.44 128.48 69.36 128.5 69.29 128.54 69.23 128.54 69.2 128.52 69.17 128.45 69.12 128.38 69.09 128.37 69.08 128.36 69.07 128.35 69.05 128.35 69.04 128.36 69.03 128.37 69.03 128.38 69.03 128.4 69.04 128.43 69.06 128.51 69.12 128.54 69.14 128.59 69.17 128.61 69.17 128.62 69.18 128.64 69.18 128.69 69.17 128.73 69.16 128.75 69.16 128.78 69.14 128.81 69.12 128.85 69.09 128.89 69.03 128.96 68.92 128.96 68.91 128.95 68.9 128.93 68.89 128.87 68.86 128.83 68.83 128.83 68.82 128.83 68.81 128.85 68.8 128.86 68.8 128.88 68.8 128.91 68.81 128.93 68.82 128.95 68.81 128.98 68.8 129 68.8 129.07 68.81 129.14 68.82 129.21 68.84 129.27 68.88 129.28 68.88 129.33 68.87 129.39 68.85 129.42 68.83 129.48 68.79 129.58 68.71 129.63 68.66 129.7 68.63 129.8 68.59 129.83 68.58 129.88 68.55 129.92 68.52 129.98 68.48 130.05 68.43 130.09 68.41 130.18 68.36 130.32 68.27 130.42 68.2 130.5 68.14 130.61 68.08 130.66 68.03 130.83 67.92 130.9 67.87 130.97 67.83 131.01 67.8 131.05 67.77 131.11 67.7 131.18 67.64 131.26 67.55 131.32 67.48 131.39 67.42 131.45 67.35 131.51 67.28 131.55 67.22 131.55 67.21 131.56 67.18 131.56 67.16 131.56 67.14 131.55 67.13 131.54 67.12 131.51 67.11 131.48 67.11 131.47 67.11 131.46 67.09 131.46 67.08 131.45 67.02 131.44 67.01 131.43 67 131.42 66.99 131.36 66.99 131.35 66.98 131.36 66.97 131.4 66.94 131.46 66.88 131.48 66.87 131.49 66.86 131.51 66.86 131.52 66.86 131.52 66.87 131.51 66.9 131.52 66.92 131.54 66.92 131.57 66.91 131.64 66.89 131.66 66.89 131.69 66.9 131.79 66.95 131.8 66.96 131.81 66.98 131.84 67.02 131.85 67.03 131.86 67.02 131.86 66.99 131.87 66.98 131.88 66.98 131.89 66.98 131.9 66.98 131.94 67.02 131.96 67.03 131.97 67.03 131.99 67.03 132.01 67.02 132.02 67.01 132.02 67 132.02 66.99 132.01 66.97 132.02 66.96 132.03 66.96 132.05 66.97 132.07 66.97 132.08 66.96 132.09 66.95 132.11 66.94 132.11 66.92 132.11 66.91 132.1 66.89 132.08 66.86 131.99 66.78 131.93 66.71 131.87 66.61 131.86 66.6 131.87 66.58 131.87 66.58 131.88 66.58 131.9 66.58 131.93 66.6 131.94 66.6 131.96 66.6 131.98 66.6 131.99 66.59 132.01 66.57 132.03 66.53 132.06 66.5 132.11 66.46 132.16 66.43 132.17 66.42 132.18 66.4 132.19 66.38 132.19 66.37 132.19 66.33 132.18 66.28 132.15 66.23 132.15 66.21 132.15 66.2 132.16 66.19 132.18 66.18 132.3 66.14 132.33 66.13 132.35 66.1 132.36 66.09 132.37 66.07 132.37 66.02 132.37 66 132.36 65.97 132.34 65.93 132.32 65.88 132.23 65.77 132.14 65.66 132.12 65.61 132.09 65.59 132.08 65.57 132.05 65.56 132.04 65.54 132.03 65.53 132.04 65.53 132.05 65.52 132.07 65.51 132.09 65.51 132.1 65.51 132.14 65.53 132.15 65.54 132.21 65.61 132.23 65.62 132.24 65.62 132.26 65.61 132.31 65.59 132.34 65.58 132.37 65.56 132.41 65.56 132.46 65.56 132.51 65.55 132.57 65.55 132.64 65.55 132.69 65.56 132.76 65.56 132.78 65.57 132.81 65.58 132.85 65.6 132.89 65.63 132.98 65.67 133 65.68 133.04 65.69 133.06 65.69 133.09 65.69 133.13 65.69 133.21 65.66 133.28 65.63 133.31 65.61 133.4 65.55 133.44 65.52 133.48 65.48 133.52 65.44 Z"/>
</g></svg>