<svg xmlns="http://www.w3.org/2000/svg" version="1.2" baseProfile="tiny" stroke-linecap="round" stroke-linejoin="round" viewBox="69.68 100.22 21.88 39.7"><g xmlns="http://www.w3.org/2000/svg" id="Sopuerta, Garape">
<path d="M 86.24 100.24 86.45 100.51 84.98 102.25 85.04 102.32 85.11 102.39 85.12 102.4 85.24 102.56 85.36 102.62 85.57 102.81 85.58 102.82 85.74 102.91 85.89 103.13 86.02 103.28 86.04 103.38 85.99 103.59 85.95 103.92 85.96 104.02 86.05 104.12 86.18 104.25 86.28 104.34 86.22 104.5 86.2 104.69 86.21 104.84 86.22 104.93 86.28 105.1 86.34 105.25 86.35 105.36 86.39 105.59 86.43 105.7 86.44 105.79 86.44 105.87 86.46 105.95 86.51 106.03 86.78 106.33 86.89 106.71 86.87 107.12 86.98 107.54 87.16 107.91 87.11 108.04 87.09 108.21 87.11 108.39 87.15 108.64 87.18 108.85 87.22 109.1 87.29 109.11 87.41 109.19 87.56 109.29 87.68 109.42 87.8 109.51 87.84 109.54 87.87 109.55 87.95 109.6 87.97 109.61 87.98 109.63 88 109.64 88.02 109.66 88.04 109.67 88.05 109.68 88.07 109.69 88.09 109.7 88.1 109.71 88.12 109.72 88.13 109.73 88.15 109.75 88.16 109.76 88.18 109.78 88.19 109.79 88.21 109.8 88.23 109.82 88.24 109.83 88.26 109.85 88.28 109.86 88.29 109.87 88.31 109.88 88.32 109.89 88.34 109.9 88.36 109.91 88.37 109.92 88.39 109.93 88.4 109.94 88.42 109.95 88.44 109.95 88.45 109.96 88.47 109.97 88.49 109.98 88.51 109.98 88.53 109.99 88.54 110 88.56 110.01 88.58 110.02 88.6 110.03 88.61 110.04 88.63 110.05 88.65 110.05 88.67 110.06 88.68 110.07 88.7 110.08 88.71 110.09 88.73 110.09 88.75 110.09 88.77 110.1 88.79 110.1 88.81 110.1 88.82 110.09 88.84 110.09 88.86 110.08 88.94 110.08 89.02 110.11 89.07 110.1 89.12 110.13 89.18 110.13 89.22 110.14 89.29 110.2 89.34 110.21 89.5 110.24 89.54 110.25 89.65 110.31 89.72 110.45 89.75 110.5 89.79 110.56 89.83 110.61 89.87 110.64 89.92 110.66 90.02 110.68 90.08 110.69 90.17 110.7 90.24 110.72 90.28 110.74 90.34 110.76 90.4 110.8 90.44 110.84 90.48 110.87 90.53 110.91 90.57 110.93 90.63 110.97 90.68 111.03 90.71 111.1 90.73 111.16 90.74 111.23 90.74 111.3 90.73 111.34 90.71 111.4 90.68 111.45 90.67 111.51 90.65 111.56 90.63 111.61 90.61 111.67 90.59 111.74 90.59 111.8 90.58 111.85 90.54 111.94 90.52 112.02 90.5 112.08 90.47 112.14 90.46 112.2 90.43 112.25 90.39 112.29 90.34 112.33 90.28 112.37 90.21 112.39 90.17 112.4 90.12 112.39 90.08 112.36 90.03 112.31 89.98 112.26 89.93 112.22 89.88 112.19 89.81 112.16 89.76 112.16 89.7 112.18 89.66 112.21 89.63 112.25 89.6 112.31 89.56 112.39 89.56 112.44 89.54 112.5 89.53 112.57 89.5 112.66 89.46 112.77 89.44 112.86 89.42 112.93 89.41 113.02 89.39 113.11 89.36 113.18 89.33 113.26 89.31 113.34 89.29 113.4 89.26 113.46 89.21 113.51 89.16 113.55 89.11 113.61 89.07 113.66 89.03 113.71 88.99 113.75 88.99 113.8 88.98 113.85 88.99 113.9 89 113.94 89.02 113.97 89.06 113.99 89.07 114.01 89.09 114.01 89.12 114.02 89.13 114.02 89.16 114.02 89.19 114.02 89.22 114.02 89.26 114.01 89.31 114.01 89.33 114 89.35 114 89.38 114.01 89.42 114.02 89.51 114.04 89.6 114.07 89.66 114.11 89.7 114.13 89.71 114.15 89.78 114.2 89.77 114.24 89.76 114.25 89.75 114.27 89.73 114.29 89.71 114.31 89.68 114.33 89.66 114.34 89.64 114.34 89.61 114.36 89.55 114.39 89.5 114.42 89.45 114.46 89.4 114.5 89.36 114.53 89.32 114.57 89.29 114.61 89.25 114.65 89.22 114.69 89.19 114.74 89.17 114.76 89.15 114.79 89.13 114.83 89.1 114.87 89.09 114.9 89.07 114.93 89.05 114.96 89.04 114.99 89.02 115.02 89.02 115.05 89.06 115.09 89.13 115.13 89.18 115.16 89.23 115.21 89.24 115.26 89.24 115.33 89.2 115.48 89.1 115.68 88.91 116 88.83 116.16 88.81 116.21 88.79 116.34 88.93 116.41 89.9 116.98 89.92 117.07 90.36 117.45 90.54 117.64 90.56 118.47 90.53 118.52 90.51 118.72 90.4 118.57 90.26 118.77 90.31 119.31 90.3 119.48 90.28 119.77 90.17 120.68 90.16 120.81 89.97 122.12 89.93 122.4 90.02 123.4 90.13 124.12 90.17 124.19 90.24 124.32 90.81 125.16 91.55 126.23 90.69 126.66 89.4 127.28 87.77 128.07 87.65 128.12 84.89 129.96 84.52 130.14 83.69 130.23 83.56 130.24 83.19 130.25 83.08 130.26 83 130.28 82.87 130.25 82.76 130.24 82.69 130.25 82.41 130.3 82.31 130.31 82.21 130.31 82.14 130.3 82.08 130.28 82.04 130.26 82.01 130.25 81.96 130.27 81.93 130.31 81.88 130.34 81.86 130.36 81.83 130.38 81.78 130.41 81.74 130.42 81.7 130.43 81.66 130.45 81.61 130.45 81.52 130.46 81.42 130.47 81.36 130.48 81.32 130.48 81.27 130.47 81.15 130.45 81.1 130.43 81.05 130.41 80.94 130.37 80.88 130.35 80.82 130.33 80.77 130.3 80.73 130.27 80.72 130.26 80.7 130.27 80.69 130.28 80.66 130.35 80.68 130.41 80.73 130.48 80.88 130.57 80.9 130.59 80.91 130.6 80.91 130.62 80.91 130.64 80.91 130.66 80.86 130.85 80.82 131.22 80.8 131.26 80.79 131.31 80.77 131.36 80.75 131.4 80.73 131.43 80.71 131.45 80.69 131.48 80.68 131.51 80.66 131.55 80.65 131.6 80.64 131.65 80.62 131.68 80.6 131.72 80.57 131.79 80.57 131.89 80.56 131.98 80.47 132.48 80.16 132.54 80.1 132.74 80.09 132.88 80.07 133.03 80.07 133.05 79.93 133.26 79.37 134.06 79.2 134.59 79.2 134.62 79.18 134.71 79.17 134.77 79.15 134.84 79.1 134.93 79.09 134.98 79.09 135.15 79.08 135.37 79.07 135.82 79.05 136.22 79.05 136.33 79.05 136.42 79.04 136.51 79.01 136.69 78.96 136.95 78.91 137.23 78.87 137.47 78.85 137.69 78.84 137.77 78.85 137.82 78.87 137.9 78.93 138.18 78.97 138.34 79.03 138.54 79.12 138.78 79.2 138.95 79.19 139.05 79.15 139.11 79.05 139.19 78.9 139.27 78.81 139.35 78.44 139.91 78.42 139.89 78.31 139.79 77.72 138.98 77.39 138.34 77.29 138.15 77.12 137.95 76.87 137.69 75.87 136.82 75.32 136.3 75.04 136.15 74.45 135.98 73.98 135.58 73.38 135.21 73.07 134.92 72.78 134.38 72.92 133.88 73.04 133 73.05 131.8 72.9 130.36 72.9 130.21 72.92 128.91 72.93 127.88 72.64 125.63 72.39 123.71 72.54 122.74 72.23 122.08 72.1 121.81 71.91 121.07 71.88 120.97 71.62 120.75 71.37 120.24 71.42 119.88 71.55 119.4 71.44 119.17 71.19 118.85 70.84 118.1 70.97 117.71 70.98 117.31 71.22 116.75 71.14 116.61 70.41 115.43 70.27 113.95 70.26 113.86 69.84 112.3 69.81 111.84 69.85 111.54 69.9 110.78 69.81 110.3 69.75 110.16 69.72 109.8 69.69 109 70.61 107.27 70.99 106.32 72.12 105.83 72.86 105.34 72.93 105.17 72.97 104.92 72.97 104.69 73.07 104.49 73.57 103.93 74 103.88 74.29 103.07 75 103.3 75.14 103.31 75.55 103.16 75.95 103.17 76.16 103.16 76.6 103.15 76.92 103.36 77.12 103.14 77.93 102.76 78.11 102.77 78.63 102.99 79.13 102.87 79.82 102.96 80 102.59 80.33 102.78 80.75 102.63 81.33 102.38 81.63 102.4 81.83 102.41 81.98 102.37 82.2 102.31 83.09 102.32 83.33 102.33 83.47 102.23 83.69 102.19 83.79 102.19 83.92 102.17 84.06 102.13 84.16 102.15 84.29 102.17 84.49 102.19 85.11 101.62 85.79 100.42 86.24 100.24 Z"/>
</g></svg>