<svg xmlns="http://www.w3.org/2000/svg" version="1.2" baseProfile="tiny" stroke-linecap="round" stroke-linejoin="round" viewBox="348.48 364.57 12.27 14.47"><g xmlns="http://www.w3.org/2000/svg" id="Sorlada">
<path d="M 360.71 369.3 360.71 369.31 360.7 369.33 360.67 369.39 360.58 369.58 360.53 369.69 360.48 369.79 360.41 369.94 360.37 370.04 360.34 370.11 360.28 370.24 360.22 370.37 360.15 370.57 360.14 370.64 360.14 370.72 360.13 370.8 360.13 370.89 360.12 370.99 360.11 371.08 360.11 371.17 360.1 371.27 360.09 371.36 360.09 371.43 360.08 371.54 360.08 371.62 360.07 371.68 360.06 371.77 360.05 371.87 360.04 371.92 360.04 372.01 360.04 372.07 360.03 372.17 360.04 372.21 360.03 372.29 360.03 372.38 360.04 372.41 360.05 372.47 360.06 372.51 360.07 372.56 360.09 372.62 360.11 372.69 360.14 372.78 360.17 372.87 360.19 372.93 360.21 372.98 360.28 373.12 360.31 373.21 360.31 373.23 360.31 373.24 360.32 373.27 360.32 373.28 360.34 373.32 360.35 373.34 360.35 373.35 360.38 373.4 360.39 373.41 360.42 373.49 360.46 373.59 360.5 373.65 360.51 373.66 360.52 373.69 360.52 373.71 360.53 373.79 360.54 373.85 360.55 373.87 360.62 374.04 360.67 374.15 360.72 374.22 360.73 374.23 360.73 374.25 360.72 374.27 360.7 374.3 360.64 374.37 360.62 374.41 360.62 374.42 360.6 374.45 360.57 374.5 360.56 374.52 360.54 374.55 360.52 374.59 360.5 374.66 360.48 374.73 360.46 374.78 360.43 374.85 360.42 374.87 360.42 374.9 360.4 374.93 360.37 375.02 360.3 375.19 360.29 375.24 360.28 375.27 360.27 375.32 360.22 375.44 360.21 375.48 360.2 375.5 360.14 375.64 360.1 375.7 360.1 375.71 360.08 375.76 360.03 375.87 360.02 375.9 360 375.96 359.97 376.03 359.93 376.16 359.89 376.25 359.86 376.33 359.85 376.36 359.83 376.41 359.81 376.48 359.77 376.55 359.7 376.69 359.67 376.72 359.63 376.79 359.56 376.9 359.53 376.97 359.49 377.04 359.44 377.1 359.3 377.28 359.18 377.68 359.18 377.7 359.23 377.96 359.24 377.98 359.25 378 359.29 378.13 359.3 378.15 359.3 378.18 359.31 378.2 359.49 378.74 359.29 378.84 358.78 378.87 358.24 378.84 358.08 379.01 357.85 378.96 357.83 378.96 357.78 378.95 357.75 378.94 357.72 378.94 357.6 378.9 357.55 378.89 357.52 378.88 357.47 378.87 357.46 378.87 357.4 378.86 357.38 378.85 357.37 378.84 357.34 378.7 357.33 378.69 357.33 378.64 357.32 378.58 357.3 378.49 357.28 378.39 357.27 378.33 357.26 378.19 357.26 378.04 357.26 378.03 357.26 378 357.25 377.99 357.25 377.98 357.25 377.82 357.25 377.76 357.25 377.74 357.25 377.68 357.23 377.62 357.17 377.33 357.16 377.32 357.16 377.29 357.15 377.22 357.14 377.19 357.12 377.14 357.01 376.86 356.99 376.82 357 376.72 357.01 376.55 357.02 376.4 357.03 376.25 357.03 376.22 357.03 376.21 357.04 376.16 357.05 376.13 357.07 376 357.07 375.98 357.1 375.9 357.16 375.77 357.18 375.72 357.25 375.53 357.25 375.52 357.25 375.5 357.21 375.33 357.16 375.09 357.16 375.08 357.15 375.04 357.14 374.98 357.04 374.74 357.03 374.72 356.93 374.48 356.89 374.38 356.89 374.37 356.89 374.35 356.88 374.32 356.86 374.27 356.79 374.02 356.72 373.93 356.72 373.92 356.67 373.85 356.64 373.81 356.64 373.8 356.61 373.76 356.44 373.51 355.72 372.92 355.68 372.89 355.67 372.88 355.64 372.86 355.62 372.84 355.6 372.81 355.59 372.78 355.54 372.73 355.5 372.66 355.47 372.63 355.43 372.58 355.4 372.53 355.35 372.47 355.3 372.42 355.28 372.39 355.25 372.34 355.23 372.3 355.21 372.26 355.18 372.21 355.15 372.17 355.14 372.15 355.09 372.08 355.07 372.04 355.04 372 354.97 371.91 354.93 371.84 354.84 371.74 354.83 371.73 354.83 371.72 354.76 371.65 354.71 371.6 354.63 371.52 354.57 371.45 354.51 371.39 354.46 371.32 354.43 371.28 354.42 371.27 354.4 371.25 354.38 371.22 354.35 371.17 354.31 371.11 354.26 371.03 354.23 370.97 354.21 370.97 354.13 370.97 354.08 370.97 354.01 370.96 353.94 370.94 353.84 370.91 353.75 370.89 353.68 370.86 353.56 370.82 353.45 370.79 353.36 370.76 353.26 370.74 353.17 370.72 353.11 370.7 353.04 370.68 352.99 370.66 352.94 370.64 352.9 370.62 352.84 370.58 352.77 370.53 352.71 370.49 352.63 370.45 352.59 370.42 352.54 370.41 352.49 370.39 352.43 370.39 352.38 370.38 352.31 370.37 352.27 370.36 352.24 370.35 352.16 370.33 352.11 370.3 352.05 370.28 352 370.27 351.96 370.26 351.9 370.26 351.88 370.25 351.86 370.25 351.84 370.24 351.75 370.18 351.67 370.12 351.61 370.08 351.49 370 351.42 369.95 351.35 369.91 351.29 369.87 351.17 369.78 351.15 369.77 351.12 369.75 351.06 369.79 350.95 369.84 350.85 369.89 350.81 369.91 350.83 369.87 350.91 369.77 351 369.64 351.06 369.53 351.12 369.44 351.17 369.35 351.2 369.28 351.23 369.2 351.25 369.11 351.26 369.06 351.27 369.02 351.27 368.94 351.28 368.85 351.3 368.75 351.32 368.69 351.34 368.63 351.37 368.62 351.38 368.59 351.39 368.57 351.39 368.55 351.4 368.54 351.4 368.43 351.44 368.13 351.45 368.02 351.45 367.99 351.43 367.96 351.4 367.92 351.35 367.85 351.33 367.84 351.29 367.79 351.19 367.64 351.15 367.58 351.12 367.54 351.1 367.51 351.08 367.53 351.07 367.54 350.99 367.6 350.9 367.66 350.78 367.74 350.78 367.75 350.78 367.83 350.79 367.91 350.8 367.93 350.81 367.96 350.82 368 350.82 368.08 350.82 368.17 350.82 368.21 350.82 368.27 350.8 368.34 350.79 368.42 350.78 368.54 350.78 368.6 350.75 368.6 350.73 368.61 350.7 368.61 350.65 368.62 350.62 368.63 350.6 368.63 350.6 368.71 350.62 368.81 350.63 368.86 350.65 368.91 350.65 368.95 350.65 368.97 350.66 369.02 350.66 369.05 350.66 369.07 350.64 369.12 350.62 369.17 350.61 369.19 350.6 369.23 350.59 369.26 350.57 369.29 350.56 369.31 350.52 369.33 350.47 369.36 350.39 369.41 350.31 369.44 350.23 369.48 350.18 369.5 350.16 369.5 350.15 369.51 350.08 369.54 350.05 369.55 350.01 369.55 349.98 369.54 349.97 369.53 349.95 369.53 349.93 369.52 349.91 369.51 349.87 369.48 349.85 369.46 349.8 369.45 349.76 369.43 349.72 369.41 349.67 369.39 349.61 369.36 349.56 369.34 349.49 369.31 349.45 369.29 349.41 369.29 349.39 369.29 349.38 369.29 349.37 369.3 349.35 369.31 349.33 369.31 349.29 369.31 349.27 369.3 349.24 369.26 349.22 369.21 349.2 369.16 349.17 369.09 349.14 369.02 349.11 368.92 349.08 368.86 349.05 368.78 349.01 368.7 349.01 368.59 349.02 368.54 349.02 368.51 349.01 368.47 349 368.43 348.99 368.36 348.98 368.3 348.98 368.27 348.98 368.24 348.99 368.18 349 368.14 349.03 368.09 349.05 368.01 349.06 367.92 349.08 367.83 349.09 367.76 349.09 367.69 349.1 367.68 349.1 367.67 349.1 367.64 349.12 367.59 349.11 367.55 349.11 367.49 349.11 367.41 349.1 367.35 349.11 367.32 349.12 367.27 349.12 367.21 349.12 367.17 349.11 367.12 349.1 367.07 349.05 366.94 349.03 366.86 349.01 366.79 348.96 366.75 348.9 366.71 348.85 366.67 348.81 366.64 348.74 366.6 348.68 366.58 348.59 366.54 348.53 366.52 348.49 366.5 348.52 366.47 348.54 366.43 348.57 366.38 348.58 366.33 348.6 366.26 348.61 366.21 348.93 366.21 348.94 366.13 348.95 366.14 348.96 366.14 349 366.15 349.13 366.19 349.22 366.22 349.29 366.25 349.43 366.29 349.45 366.29 349.46 366.29 349.47 366.29 349.48 366.28 349.72 366.1 349.83 366.02 349.97 365.92 350.09 365.85 350.12 365.83 350.21 365.78 350.22 365.77 350.44 365.64 350.48 365.63 350.5 365.62 350.75 365.52 350.76 365.52 350.77 365.51 351.31 365.24 351.43 365.19 351.52 365.14 351.58 365.12 351.63 365.1 351.68 365.06 351.74 365.02 351.79 364.97 351.85 364.91 351.89 364.88 351.93 364.84 352.05 364.74 352.05 364.73 352.09 364.71 352.12 364.69 352.18 364.66 352.23 364.64 352.25 364.64 352.29 364.63 352.36 364.62 352.44 364.61 352.61 364.59 352.69 364.58 352.74 364.58 352.78 364.58 352.93 364.59 353.04 364.59 353.12 364.61 353.25 364.66 353.34 364.69 353.36 364.69 353.41 364.71 353.53 364.73 353.64 364.75 353.7 364.78 353.74 364.79 353.77 364.83 354.09 365.01 354.16 365.06 354.26 365.12 354.39 365.21 354.47 365.26 354.55 365.3 354.64 365.34 354.71 365.37 354.83 365.42 354.85 365.44 354.9 365.46 354.96 365.49 355.01 365.51 355.08 365.53 355.25 365.58 355.33 365.59 355.53 365.65 355.59 365.66 355.8 365.68 355.96 365.7 356.06 365.7 356.16 365.71 356.28 365.7 356.32 365.7 356.46 365.71 356.48 365.72 356.51 365.74 356.52 365.74 356.99 365.98 357.04 366.04 357.04 366.05 357.44 366.48 357.48 366.51 357.93 367 357.97 367.12 358.14 367.58 358.18 367.7 358.23 367.85 358.25 367.91 358.34 367.9 358.36 367.9 358.38 367.9 358.4 367.91 358.43 367.93 358.46 367.94 358.51 367.93 358.54 367.93 358.6 367.91 358.7 367.9 358.77 367.89 358.85 367.89 358.91 367.88 358.96 367.89 359 367.9 359.02 367.88 359.04 367.87 359.07 367.85 359.08 367.84 359.1 367.82 359.13 367.79 359.14 367.77 359.15 367.75 359.15 367.73 359.16 367.72 359.17 367.69 359.16 367.64 359.15 367.59 359.14 367.56 359.13 367.46 359.14 367.46 359.15 367.45 359.19 367.44 359.25 367.42 359.33 367.39 359.4 367.38 359.45 367.38 359.51 367.37 359.58 367.38 359.63 367.39 359.67 367.4 359.69 367.41 359.75 367.47 359.79 367.49 359.84 367.51 359.9 367.54 359.98 367.57 360.03 367.58 360.11 367.6 360.21 367.61 360.35 367.62 360.35 367.74 360.35 367.81 360.35 367.86 360.36 367.9 360.37 367.96 360.39 368.01 360.4 368.06 360.41 368.09 360.41 368.11 360.42 368.15 360.43 368.16 360.44 368.19 360.42 368.31 360.41 368.45 360.41 368.52 360.41 368.53 360.43 368.59 360.66 369.19 360.71 369.3 Z"/>
</g></svg>