<svg xmlns="http://www.w3.org/2000/svg" version="1.2" baseProfile="tiny" stroke-linecap="round" stroke-linejoin="round" viewBox="635.8 114.47 15.83 16.92"><g xmlns="http://www.w3.org/2000/svg" id="Suhuskune">
<path d="M 642.08 115.38 642.24 115.44 642.51 115.55 643.02 115.43 643.28 115.17 643.72 114.66 644.14 114.48 644.16 114.5 644.18 114.53 644.21 114.56 644.25 114.61 644.3 114.65 644.32 114.68 644.33 114.7 644.35 114.71 644.38 114.74 644.41 114.77 644.45 114.79 644.47 114.81 644.49 114.83 644.5 114.86 644.53 114.89 644.56 114.91 644.59 114.94 644.62 114.96 644.65 114.99 644.68 115.01 645.26 115.66 645.37 115.59 645.44 115.63 645.49 115.66 645.53 115.69 645.55 115.71 645.56 115.74 645.58 115.76 645.59 115.78 646.26 116.08 646.73 116.28 646.85 116.26 647.45 115.95 647.65 116.53 647.84 117.11 648.04 117.69 648.06 117.74 648.12 117.98 648.16 118.11 648.28 118.54 648.6 118.87 648.61 118.91 648.66 118.95 648.71 119 648.73 119.03 648.74 119.04 648.75 119.04 649.37 119.75 649.39 119.77 649.41 119.8 649.49 119.89 649.55 119.95 649.64 120.04 649.7 120.1 649.75 120.16 649.79 120.2 649.8 120.22 649.81 120.24 649.84 120.29 649.86 120.36 649.88 120.42 649.9 120.46 649.91 120.48 649.95 120.5 649.97 120.51 649.99 120.53 650.01 120.55 650.03 120.58 650.05 120.62 650.08 120.67 650.1 120.69 650.11 120.7 650.13 120.72 650.13 120.74 650.14 120.76 650.14 120.78 650.14 120.8 650.13 120.84 650.13 120.91 650.14 120.95 650.14 121.01 650.16 121.05 650.18 121.11 650.21 121.19 650.23 121.23 650.27 121.33 650.31 121.43 650.32 121.47 650.34 121.55 650.35 121.62 650.37 121.68 650.78 122.37 650.84 122.44 650.88 122.48 650.92 122.52 651.01 122.59 651.57 123.36 651.58 123.42 651.6 123.47 651.61 123.49 651.62 123.51 651.28 123.75 651.26 123.75 651.24 123.75 651.21 123.75 651.18 123.76 651.16 123.77 651.13 123.78 651.1 123.79 651.08 123.8 651.05 123.81 651.03 123.82 651 123.84 650.99 123.86 650.96 123.87 650.93 123.88 650.9 123.89 650.88 123.9 650.86 123.92 650.83 123.93 650.8 123.95 650.77 123.95 650.75 123.96 650.73 123.97 650.71 123.99 650.7 124 650.7 124.02 650.69 124.04 650.67 124.06 650.66 124.08 650.64 124.09 650.63 124.1 650.61 124.12 650.6 124.14 650.59 124.15 650.58 124.17 650.58 124.18 650.57 124.19 650.56 124.21 650.56 124.22 650.55 124.23 650.55 124.24 650.54 124.26 650.52 124.28 650.51 124.29 650.5 124.31 650.49 124.32 650.47 124.35 650.46 124.37 650.45 124.39 650.44 124.41 650.42 124.42 650.41 124.44 650.4 124.47 650.4 124.49 650.4 124.52 650.4 124.54 650.4 124.56 650.39 124.59 650.38 124.62 650.37 124.64 650.36 124.66 650.35 124.67 650.34 124.69 650.33 124.72 650.33 124.74 650.33 124.76 650.32 124.78 650.32 124.8 650.31 124.82 650.29 124.84 650.27 124.85 650.25 124.87 650.24 124.88 650.22 124.9 650.19 124.92 650.18 124.94 650.15 124.96 650.12 124.97 650.09 124.99 650.07 125 650.06 125.02 650.06 125.04 650.05 125.06 650.04 125.08 650.03 125.11 650.02 125.14 650.01 125.16 649.99 125.19 649.98 125.23 649.95 125.26 649.93 125.3 649.91 125.33 649.88 125.36 649.86 125.38 649.82 125.39 649.78 125.39 649.74 125.38 649.7 125.37 649.67 125.36 649.65 125.35 649.63 125.33 649.61 125.31 649.59 125.32 649.57 125.35 649.55 125.37 649.54 125.41 649.53 125.44 649.54 125.47 649.54 125.51 649.53 125.54 649.51 125.57 649.51 125.61 649.51 125.64 649.5 125.67 649.49 125.71 649.48 125.74 649.47 125.78 649.46 125.81 649.46 125.85 649.46 125.88 649.46 125.92 649.47 125.96 649.47 125.99 649.46 126.01 649.45 126.05 649.44 126.07 649.42 126.1 649.4 126.13 649.38 126.16 649.36 126.18 649.34 126.2 649.31 126.22 649.28 126.23 649.25 126.24 649.24 126.24 649.22 126.24 649.19 126.24 649.16 126.25 649.13 126.24 649.11 126.23 649.08 126.22 649.05 126.21 649.02 126.2 648.98 126.19 648.94 126.18 648.91 126.17 648.89 126.16 648.86 126.18 648.84 126.2 648.81 126.22 648.78 126.22 648.75 126.22 648.73 126.22 648.71 126.23 648.64 126.3 648.59 126.34 648.39 126.52 648.29 126.59 648.26 126.6 648.21 126.75 648.2 126.77 648.19 126.78 648.17 126.81 648.16 126.85 648.14 126.89 648.12 126.94 648.11 126.99 648.09 127.02 648.08 127.05 648.06 127.08 648.2 127.32 648.29 127.44 648.3 127.58 648.23 128.15 647.85 128.19 647.84 128.31 647.83 128.38 647.9 128.48 648.2 128.52 648.28 128.56 648.21 128.64 648.09 128.86 647.91 129.41 647.83 129.54 647.61 129.7 647.6 129.73 647.77 129.83 647.77 129.84 647.76 129.85 647.76 129.87 647.75 129.88 647.75 129.9 647.75 129.92 647.74 129.94 647.74 129.96 647.73 129.98 647.72 129.99 647.72 130.01 647.71 130.02 647.7 130.04 647.68 130.06 647.67 130.07 647.66 130.07 647.64 130.08 647.62 130.09 647.61 130.1 647.59 130.12 647.58 130.13 647.56 130.15 647.54 130.16 647.53 130.18 647.52 130.2 647.49 130.21 647.48 130.23 647.46 130.24 647.46 130.26 647.45 130.29 647.44 130.31 647.43 130.33 647.42 130.35 647.4 130.37 647.39 130.39 647.38 130.41 647.36 130.43 647.35 130.45 647.33 130.47 647.32 130.49 647.31 130.51 647.3 130.54 647.27 130.55 647.25 130.56 647.24 130.57 647.23 130.59 647.22 130.62 647.21 130.64 647.2 130.65 647.2 130.67 647.19 130.68 647.18 130.7 647.18 130.72 647.51 130.76 647.5 130.92 647.31 130.97 647.32 131.16 647.27 131.18 647.19 131.35 647.17 131.34 647.13 131.32 647.1 131.29 647.05 131.26 646.99 131.2 646.95 131.16 646.92 131.15 646.9 131.15 646.87 131.15 646.85 131.15 646.82 131.16 646.79 131.18 646.77 131.18 646.74 131.19 646.72 131.19 646.68 131.19 646.65 131.19 646.61 131.19 646.56 131.18 646.54 131.17 646.53 131.16 646.52 131.14 646.52 131.12 646.51 131.1 646.5 131.08 646.49 131.06 646.48 131.04 646.47 131.03 646.45 131.03 646.44 131.03 646.42 131.04 646.38 131.06 646.42 130.99 646.46 130.92 646.49 130.89 646.51 130.86 646.53 130.85 646.53 130.84 646.54 130.82 646.54 130.81 646.54 130.8 646.54 130.78 646.54 130.74 646.54 130.69 646.53 130.65 646.54 130.62 646.55 130.58 646.56 130.55 646.58 130.51 646.59 130.47 646.6 130.42 646.62 130.33 646.33 130.26 646.25 130.19 646.27 129.89 645.67 129.91 645.53 130.08 645.47 130.08 645.43 129.93 645.46 129.55 645.33 129.44 645.26 129.45 645.11 129.47 645.1 129.54 645.08 129.64 645.05 129.74 645.01 129.84 644.98 129.94 644.98 129.99 644.69 129.9 644.28 129.89 643.88 129.88 643.3 129.92 643.29 129.93 642.19 129.92 641.14 129.75 640.54 129.8 639.94 129.86 639.67 129.8 639.4 129.79 639.25 129.62 638.73 129.65 638.72 129.52 638.77 128.99 638.52 129 638.41 129.39 638.43 129.69 638.15 129.67 638.12 129.8 638.2 130.22 638.17 130.26 637.68 130.32 637.53 130.28 637.44 130.18 637.39 130.18 637.21 130.46 637.11 130.66 637.09 130.65 636.97 130.54 636.93 130.51 636.9 130.5 636.82 130.48 636.74 130.47 636.64 130.47 636.6 130.47 636.55 130.47 636.5 130.46 636.47 130.44 636.45 130.44 636.43 130.44 636.41 130.44 636.39 130.45 636.36 130.45 636.33 130.44 636.3 130.44 636.24 130.39 636.22 130.38 636.21 130.36 636.19 130.28 636.18 130.26 636.16 130.23 636.1 130.15 636.03 130.04 635.99 129.97 635.96 129.89 635.95 129.85 635.94 129.83 635.88 129.75 635.85 129.7 635.84 129.68 635.82 129.65 636.09 129.41 636.29 129.32 637.12 129.06 637.43 128.97 637.45 128.83 637.49 128.67 637.5 128.59 637.51 128.42 637.53 128.32 637.55 128.2 637.59 128.1 637.61 128.06 637.63 128.03 637.63 128.01 637.67 128 637.68 127.99 637.68 127.98 637.69 127.93 637.7 127.9 637.71 127.89 637.76 127.86 637.82 127.84 637.84 127.82 637.87 127.78 637.92 127.67 637.96 127.64 638 127.62 638.03 127.61 638.07 127.61 638.12 127.59 638.14 127.51 638.18 127.44 638.2 127.37 638.25 127.3 638.26 127.26 638.25 127.22 638.26 127.16 638.28 127.12 638.31 127.11 638.37 127.1 638.41 127.1 638.42 127.05 638.43 127.04 638.44 127.02 638.45 127 638.47 126.99 638.49 126.97 638.49 126.95 638.49 126.94 638.5 126.92 638.5 126.88 638.51 126.86 638.51 126.82 638.51 126.8 638.51 126.78 638.51 126.77 638.51 126.75 638.5 126.74 638.49 126.71 638.49 126.69 638.5 126.67 638.5 126.65 638.49 126.63 638.49 126.61 638.48 126.58 638.48 126.56 638.48 126.53 638.49 126.5 638.49 126.47 638.5 126.44 638.51 126.42 638.52 126.38 638.53 126.36 638.54 126.33 638.57 126.3 638.58 126.28 638.61 126.25 638.63 126.24 638.64 126.22 638.66 126.21 638.68 126.2 638.69 126.19 638.7 126.18 638.71 126.15 638.73 126.12 638.73 126.1 638.74 126.08 638.74 126.06 638.74 126.02 638.74 126 638.74 125.99 638.74 125.97 638.74 125.95 638.75 125.92 638.76 125.89 638.77 125.86 638.78 125.84 638.79 125.82 638.8 125.81 638.82 125.78 638.83 125.77 638.84 125.76 638.85 125.74 638.87 125.73 638.89 125.72 638.9 125.71 638.92 125.7 638.93 125.68 638.94 125.68 638.95 125.66 638.97 125.65 638.99 125.63 639 125.62 639.02 125.6 639.03 125.58 639.04 125.55 639.05 125.52 639.05 125.5 639.05 125.47 639.04 125.44 639.04 125.41 639.04 125.39 639.04 125.37 639.06 125.34 639.06 125.33 639.08 125.3 639.09 125.29 639.1 125.26 639.11 125.24 639.12 125.2 639.12 125.15 639.12 125.13 639.12 125.11 639.13 125.08 639.13 125.06 639.13 125.03 639.13 125 639.13 124.98 639.13 124.96 639.13 124.93 639.13 124.91 639.12 124.88 639.12 124.85 639.12 124.83 639.12 124.79 639.12 124.77 639.11 124.74 639.11 124.71 639.11 124.69 639.11 124.67 639.11 124.65 639.11 124.63 639.12 124.61 639.13 124.59 639.14 124.57 639.16 124.55 639.17 124.53 639.18 124.52 639.2 124.5 639.21 124.48 639.22 124.46 639.22 124.44 639.23 124.42 639.24 124.39 639.25 124.34 639.25 124.31 639.25 124.29 639.25 124.28 639.23 124.25 639.22 124.23 639.22 124.22 639.22 124.19 639.22 124.18 639.23 124.16 639.24 124.13 639.25 124.12 639.27 124.1 639.29 124.08 639.3 124.07 639.31 124.05 639.32 124.03 639.31 124.02 639.3 124 639.29 123.99 639.28 123.98 639.26 123.97 639.23 123.95 639.23 123.94 639.23 123.93 639.22 123.92 639.23 123.88 639.23 123.85 639.23 123.83 639.23 123.82 639.23 123.8 639.22 123.78 639.2 123.76 639.18 123.75 639.16 123.73 639.13 123.73 639.1 123.73 639.08 123.72 639.06 123.7 639.05 123.68 639.05 123.66 639.05 123.64 639.07 123.62 639.08 123.6 639.1 123.59 639.14 123.59 639.17 123.59 639.19 123.58 639.22 123.58 639.23 123.57 639.25 123.56 639.25 123.54 639.25 123.53 639.25 123.51 639.24 123.49 639.23 123.49 639.21 123.48 639.18 123.48 639.15 123.48 639.12 123.47 639.1 123.45 639.08 123.43 639.08 123.41 639.08 123.39 639.09 123.38 639.1 123.37 639.12 123.37 639.15 123.37 639.17 123.36 639.19 123.36 639.21 123.34 639.22 123.33 639.21 123.32 639.2 123.31 639.19 123.3 639.16 123.29 639.13 123.28 639.11 123.27 639.08 123.27 639.07 123.25 639.07 123.24 639.08 123.22 639.09 123.2 639.1 123.17 639.11 123.16 639.11 123.14 639.11 123.12 639.09 123.1 639.08 123.09 639.05 123.07 639.03 123.06 639 123.03 639 123 639 122.98 639.01 122.95 639.02 122.93 639.03 122.91 639.04 122.89 639.05 122.86 639.06 122.83 639.06 122.81 639.06 122.79 639.06 122.76 639.06 122.74 639.07 122.71 639.07 122.7 639.08 122.67 639.09 122.65 639.1 122.63 639.11 122.61 639.12 122.59 639.12 122.57 639.11 122.55 639.1 122.53 639.09 122.51 639.07 122.49 639.05 122.47 639.03 122.45 639.01 122.42 638.99 122.4 638.97 122.38 638.96 122.36 638.94 122.35 638.93 122.34 638.9 122.33 638.88 122.32 638.86 122.32 638.84 122.32 638.81 122.32 638.79 122.33 638.76 122.33 638.74 122.33 638.71 122.33 638.68 122.33 638.65 122.32 638.63 122.31 638.61 122.3 638.59 122.28 638.58 122.26 638.56 122.23 638.55 122.2 638.53 122.17 638.52 122.15 638.51 122.12 638.5 122.09 638.49 122.07 638.48 122.04 638.46 122.01 638.45 121.98 638.44 121.96 638.43 121.94 638.41 121.92 638.39 121.89 638.33 121.8 638.32 121.8 638.3 121.79 638.27 121.78 638.26 121.76 638.25 121.74 638.23 121.71 638.21 121.68 638.18 121.65 638.16 121.61 638.14 121.59 638.11 121.58 638.08 121.56 638.06 121.56 638.01 121.54 637.97 121.54 637.94 121.53 637.92 121.52 637.88 121.49 637.86 121.47 637.84 121.45 637.82 121.42 637.8 121.4 637.78 121.37 637.76 121.34 637.74 121.31 637.73 121.28 637.72 121.24 637.72 121.21 637.73 121.19 637.73 121.16 637.74 121.13 637.74 121.1 637.74 121.07 637.74 121.03 637.73 121.01 637.71 120.98 637.7 120.96 637.69 120.93 637.68 120.91 637.67 120.89 637.64 120.88 637.9 120.7 638.57 120.17 638.76 120.03 639.43 119.51 640.33 118.72 640.43 118.62 640.44 118.6 640.47 118.56 640.49 118.5 640.51 118.43 640.54 118.35 640.57 118.31 640.6 118.26 640.65 118.19 640.69 118.13 640.69 118.1 640.69 118.05 640.69 117.97 641.18 116.96 641.43 116.52 641.74 116.14 642.02 115.51 642.08 115.38 Z"/>
</g></svg>