<svg xmlns="http://www.w3.org/2000/svg" version="1.2" baseProfile="tiny" stroke-linecap="round" stroke-linejoin="round" viewBox="209.05 64.02 13.7 9.88"><g xmlns="http://www.w3.org/2000/svg" id="Sukarrieta">
<path d="M 220.84 70.86 221.37 71.11 221.73 71.12 221.92 71.33 222.02 71.37 222 71.41 221.94 71.39 221.75 71.4 221.78 71.55 222.05 71.55 222.12 71.69 221.83 71.83 222.06 71.97 222.1 72.19 222.54 72.26 222.68 72.41 222.47 72.71 222.57 72.84 222.63 73 222.75 73.07 222.69 73.24 222.62 73.63 221.44 73.88 221.43 73.8 221.36 73.71 221.29 73.64 221.31 73.62 221.32 73.6 221.32 73.59 221.33 73.58 221.34 73.58 221.36 73.59 221.38 73.6 221.39 73.61 221.4 73.61 221.4 73.59 221.4 73.58 221.4 73.57 221.42 73.55 221.43 73.54 221.44 73.53 221.44 73.52 221.44 73.51 221.43 73.5 221.41 73.49 221.38 73.48 221.35 73.47 221.32 73.46 221.31 73.46 221.28 73.46 221.27 73.45 221.26 73.45 221.24 73.43 221.19 73.4 221.17 73.38 221.15 73.37 221.13 73.36 221.11 73.36 221.1 73.36 221.08 73.36 221.07 73.36 221.06 73.36 221.05 73.36 221.04 73.34 221.01 73.29 221 73.26 220.99 73.23 220.98 73.21 220.97 73.14 220.96 73.1 220.96 73.09 220.96 73.07 220.93 73.05 220.93 73.04 220.92 73.03 220.99 72.94 221.05 72.87 221.07 72.85 221.11 72.75 221.18 72.65 221.19 72.63 221.19 72.6 221.19 72.48 221.18 72.44 221.16 72.37 221.13 72.3 221.11 72.27 221.03 72.19 221.01 72.16 221 72.13 220.99 72.1 220.99 72.07 221.02 71.98 221.03 71.9 221.04 71.87 221.05 71.86 221.06 71.85 221.09 71.84 221.13 71.81 221.18 71.72 221.15 71.62 221.12 71.54 221.12 71.51 221.12 71.49 221.13 71.47 221.15 71.43 221.16 71.41 221.13 71.38 221.11 71.36 221.08 71.33 221.03 71.28 221 71.25 220.99 71.24 220.93 71.17 220.91 71.12 220.88 71.08 220.86 71.03 220.85 70.98 220.84 70.93 220.84 70.86 Z M 219.82 68.03 219.98 68.3 220.02 68.87 220.19 68.87 220.15 68.35 220.47 67.18 220.51 67.13 220.58 67.1 220.64 67.1 220.69 67.12 220.73 67.24 220.71 67.32 221.06 68.07 220.83 68.4 220.45 68.74 220.91 68.85 221.01 69.49 220.83 69.89 220.81 70.03 221.15 69.9 221.2 69.98 221.32 69.91 221.48 70.02 220.97 70.68 220.84 70.68 220.84 70.65 220.84 70.62 220.77 70.56 220.75 70.54 220.72 70.54 220.7 70.55 220.64 70.6 220.62 70.61 220.59 70.63 220.55 70.64 220.52 70.63 220.5 70.63 220.43 70.58 220.31 70.47 220.24 70.42 220.17 70.34 220.13 70.28 220.1 70.21 220.05 70.12 220 70.04 219.97 69.99 219.93 69.94 219.91 69.92 219.9 69.88 219.9 69.84 219.9 69.82 219.92 69.77 219.93 69.76 219.93 69.75 219.93 69.74 219.95 69.72 219.96 69.69 219.97 69.68 219.97 69.67 219.98 69.63 219.98 69.6 220 69.55 220.01 69.53 220.01 69.51 220.03 69.46 220.03 69.45 220.03 69.44 220.06 69.41 220.07 69.41 220.08 69.39 220.08 69.38 220.08 69.32 220.08 69.32 220.07 69.3 220.06 69.3 220.04 69.29 220.02 69.28 219.96 69.23 219.95 69.22 219.94 69.2 219.92 69.18 219.9 69.13 219.88 69.1 219.86 69.08 219.84 69.06 219.82 69.04 219.82 69.03 219.81 69 219.8 68.98 219.77 68.95 219.77 68.94 219.77 68.93 219.77 68.91 219.77 68.89 219.77 68.88 219.78 68.88 219.79 68.87 219.79 68.87 219.8 68.86 219.81 68.86 219.81 68.85 219.81 68.81 219.81 68.8 219.8 68.79 219.79 68.77 219.78 68.76 219.76 68.74 219.74 68.73 219.71 68.7 219.7 68.68 219.69 68.66 219.69 68.65 219.68 68.63 219.68 68.62 219.67 68.59 219.67 68.58 219.65 68.55 219.65 68.53 219.63 68.51 219.61 68.48 219.61 68.47 219.56 68.38 219.54 68.33 219.53 68.31 219.53 68.3 219.53 68.29 219.53 68.28 219.54 68.28 219.55 68.27 219.56 68.27 219.58 68.28 219.65 68.28 219.67 68.28 219.68 68.28 219.69 68.27 219.7 68.25 219.71 68.25 219.73 68.21 219.75 68.19 219.77 68.17 219.78 68.15 219.79 68.1 219.8 68.08 219.81 68.05 219.82 68.03 Z M 221.29 65.57 220.03 66.09 220.01 67.57 219.81 68.01 219.81 67.91 219.81 67.9 219.8 67.89 219.78 67.89 219.72 67.87 219.72 67.86 219.72 67.85 219.72 67.84 219.72 67.84 219.73 67.83 219.73 67.83 219.74 67.83 219.77 67.84 219.78 67.84 219.81 67.84 219.81 67.84 219.82 67.84 219.84 67.83 219.84 67.81 219.85 67.8 219.86 67.78 219.87 67.75 219.87 67.74 219.87 67.73 219.85 67.71 219.84 67.7 219.84 67.68 219.83 67.66 219.83 67.65 219.83 67.61 219.83 67.57 219.83 67.49 219.83 67.47 219.82 67.46 219.81 67.44 219.79 67.41 219.78 67.39 219.77 67.38 219.77 67.37 219.72 67.31 219.71 67.28 219.7 67.27 219.7 67.23 219.7 67.21 219.7 67.2 219.71 67.18 219.71 67.17 219.71 67.15 219.7 67.09 219.7 67.08 219.68 67.05 219.67 67.03 219.67 67.01 219.65 66.98 219.63 66.92 219.61 66.88 219.61 66.84 219.61 66.83 219.6 66.79 219.59 66.78 219.59 66.76 219.58 66.74 219.57 66.71 219.56 66.69 219.55 66.66 219.53 66.63 219.52 66.6 219.5 66.55 219.48 66.53 219.47 66.51 219.45 66.45 219.45 66.44 219.45 66.39 219.46 66.34 219.46 66.31 219.47 66.27 219.48 66.21 219.49 66.17 219.5 66.13 219.51 66.11 219.51 66.1 219.52 66.07 219.54 66.04 219.56 66.02 219.57 66 219.58 65.98 219.58 65.97 219.59 65.96 219.61 65.94 219.62 65.94 219.62 65.93 219.68 65.87 219.7 65.84 219.73 65.82 219.77 65.8 219.77 65.79 219.78 65.78 219.81 65.76 219.84 65.74 219.86 65.72 219.9 65.67 219.91 65.67 219.92 65.66 219.95 65.65 219.96 65.65 219.97 65.65 220 65.66 220.01 65.66 220.02 65.65 220.04 65.64 220.06 65.62 220.07 65.61 220.08 65.61 220.09 65.6 220.1 65.6 220.12 65.62 220.14 65.62 220.15 65.62 220.15 65.62 221.29 65.57 Z M 217.99 69.94 217.94 69.92 217.59 69.72 217.5 69.53 217.49 69.16 217.22 69.09 217.03 69.18 217.1 68.87 216.98 68.79 216.85 68.3 216.86 68.28 216.99 68.16 216.66 67.23 217.08 66.95 217.1 66.84 216.54 66.53 216.57 66.52 216.6 66.52 216.62 66.52 216.63 66.52 216.66 66.54 216.67 66.54 216.67 66.55 216.69 66.56 216.7 66.56 216.72 66.56 216.73 66.56 216.74 66.57 216.74 66.57 216.75 66.58 216.77 66.6 216.78 66.62 216.79 66.62 216.8 66.63 216.8 66.64 216.81 66.64 216.83 66.64 216.83 66.64 216.86 66.66 216.87 66.67 216.88 66.67 216.89 66.67 216.9 66.67 216.91 66.67 216.92 66.69 216.93 66.69 216.94 66.7 216.95 66.71 216.99 66.73 217.04 66.74 217.05 66.75 217.08 66.76 217.11 66.79 217.12 66.8 217.12 66.8 217.12 66.82 217.12 66.84 217.11 66.86 217.1 66.88 217.1 66.92 217.09 66.95 217.09 66.97 217.08 67 217.07 67.04 217.06 67.06 217.06 67.1 217.05 67.12 217.05 67.14 217.04 67.14 217.02 67.21 217.02 67.23 217.02 67.26 217.01 67.28 217 67.31 217 67.37 216.99 67.41 216.98 67.43 216.97 67.47 216.97 67.49 216.97 67.52 216.97 67.53 216.97 67.54 216.96 67.56 216.95 67.58 216.94 67.6 216.94 67.61 216.94 67.62 216.95 67.63 216.97 67.66 216.99 67.69 217.01 67.73 217.04 67.76 217.07 67.79 217.09 67.83 217.1 67.84 217.1 67.85 217.11 67.86 217.12 67.88 217.22 68 217.26 68.03 217.27 68.04 217.3 68.04 217.31 68.05 217.32 68.06 217.34 68.08 217.36 68.09 217.38 68.1 217.39 68.1 217.4 68.09 217.42 68.09 217.43 68.09 217.44 68.1 217.46 68.11 217.48 68.12 217.51 68.16 217.51 68.17 217.52 68.21 217.52 68.23 217.52 68.24 217.51 68.27 217.51 68.28 217.5 68.29 217.5 68.36 217.5 68.37 217.51 68.38 217.51 68.39 217.51 68.42 217.5 68.44 217.5 68.46 217.5 68.49 217.51 68.49 217.55 68.5 217.56 68.51 217.57 68.52 217.59 68.55 217.6 68.55 217.61 68.55 217.62 68.55 217.63 68.55 217.66 68.52 217.68 68.5 217.69 68.49 217.7 68.48 217.74 68.49 217.76 68.49 217.77 68.5 217.8 68.51 217.83 68.51 217.86 68.5 217.88 68.5 217.9 68.51 217.9 68.51 217.92 68.52 217.95 68.55 217.97 68.58 217.98 68.6 217.98 68.6 217.99 68.61 218 68.61 218.02 68.57 218.03 68.56 218.04 68.56 218.05 68.56 218.06 68.57 218.07 68.58 218.09 68.6 218.11 68.63 218.12 68.65 218.12 68.66 218.12 68.68 218.12 68.7 218.11 68.73 218.11 68.78 218.12 68.81 218.13 68.83 218.14 68.85 218.15 68.86 218.16 68.86 218.18 68.85 218.19 68.84 218.2 68.85 218.21 68.86 218.22 68.89 218.23 68.9 218.25 68.93 218.25 68.94 218.26 68.95 218.26 68.97 218.25 68.99 218.24 69.03 218.24 69.04 218.22 69.07 218.18 69.14 218.16 69.17 218.13 69.23 218.11 69.27 218.1 69.28 218.1 69.3 218.09 69.32 218.09 69.34 218.09 69.36 218.09 69.37 218.11 69.4 218.11 69.42 218.1 69.44 218.1 69.47 218.09 69.5 218.09 69.51 218.09 69.56 218.08 69.63 218.07 69.65 218.07 69.67 218.06 69.68 218.06 69.69 218.06 69.7 218.08 69.72 218.07 69.77 218.07 69.78 218.05 69.81 218.04 69.82 218.03 69.84 218.01 69.88 217.99 69.94 217.99 69.94 Z M 217.82 68.01 217.79 68.01 217.76 68.01 217.74 68.01 217.69 68 217.66 67.99 217.62 67.98 217.58 67.96 217.57 67.95 217.55 67.94 217.53 67.93 217.51 67.92 217.49 67.9 217.47 67.89 217.44 67.87 217.41 67.86 217.39 67.84 217.37 67.82 217.34 67.8 217.27 67.76 217.25 67.74 217.22 67.71 217.18 67.67 217.17 67.65 217.16 67.62 217.14 67.56 217.14 67.55 217.14 67.48 217.14 67.47 217.15 67.45 217.16 67.42 217.17 67.4 217.18 67.38 217.2 67.33 217.22 67.31 217.23 67.3 217.24 67.29 217.24 67.29 217.26 67.28 217.3 67.27 217.35 67.26 217.42 67.24 217.49 67.23 217.52 67.23 217.57 67.22 217.62 67.22 217.64 67.22 217.67 67.22 217.8 67.24 217.82 67.25 217.93 67.24 217.95 67.25 217.97 67.25 217.98 67.25 218.01 67.27 218.04 67.28 218.07 67.3 218.08 67.3 218.11 67.32 218.12 67.33 218.13 67.34 218.13 67.34 218.16 67.37 218.18 67.39 218.2 67.42 218.2 67.43 218.21 67.45 218.21 67.54 218.21 67.56 218.17 67.67 218.17 67.68 218.16 67.69 218.14 67.73 218.14 67.74 218.12 67.75 218.09 67.79 218.06 67.84 218.03 67.87 218.01 67.91 218 67.92 218 67.93 217.96 67.93 217.95 67.94 217.93 67.95 217.93 67.95 217.9 67.98 217.89 67.99 217.85 68.01 217.84 68.01 217.82 68.01 Z M 216.39 66.38 216.37 66.38 216.36 66.36 216.36 66.34 216.36 66.33 216.36 66.32 216.35 66.29 216.33 66.28 216.31 66.26 216.3 66.25 216.29 66.24 216.29 66.23 216.3 66.19 216.31 66.16 216.31 66.15 216.33 66.14 216.36 66.12 216.36 66.12 216.37 66.1 216.38 66.09 216.38 66.08 216.39 66.08 216.41 66.06 216.43 66.03 216.45 66.01 216.47 65.98 216.51 65.93 216.52 65.9 216.55 65.86 216.58 65.81 216.59 65.8 216.61 65.79 216.62 65.78 216.63 65.77 216.66 65.72 216.69 65.66 216.7 65.65 216.7 65.63 216.7 65.62 216.71 65.59 216.71 65.57 216.73 65.5 216.74 65.49 216.75 65.48 216.77 65.45 216.79 65.43 216.8 65.42 216.81 65.41 216.86 65.39 216.87 65.39 216.88 65.39 216.89 65.39 216.89 65.4 216.9 65.4 216.9 65.41 216.91 65.42 216.91 65.43 216.91 65.47 216.91 65.48 216.91 65.49 216.91 65.49 216.92 65.5 216.94 65.51 216.96 65.51 216.98 65.52 216.98 65.53 216.98 65.53 216.97 65.54 216.96 65.54 216.93 65.55 216.91 65.55 216.91 65.58 216.92 65.59 216.94 65.6 216.95 65.61 216.96 65.61 216.97 65.6 216.99 65.59 217 65.59 217 65.59 217.01 65.6 217 65.61 217 65.62 217 65.63 217.01 65.66 217.01 65.68 217.01 65.84 217.01 65.86 217 65.87 216.99 65.9 216.98 65.92 216.98 65.93 216.94 66 216.93 66.02 216.93 66.04 216.92 66.05 216.92 66.06 216.91 66.08 216.88 66.1 216.87 66.11 216.86 66.12 216.86 66.12 216.83 66.12 216.81 66.12 216.8 66.12 216.78 66.13 216.77 66.15 216.76 66.16 216.76 66.17 216.75 66.2 216.74 66.23 216.73 66.24 216.72 66.26 216.71 66.28 216.7 66.28 216.7 66.29 216.68 66.3 216.66 66.31 216.6 66.33 216.56 66.34 216.53 66.35 216.5 66.36 216.47 66.36 216.44 66.37 216.39 66.38 Z M 216.22 66.46 216.19 66.5 215.86 66.45 215.68 66.64 215.56 66.68 215.44 66.77 215.39 66.77 215.27 66.69 215.11 66.73 215.01 66.74 214.95 66.74 214.56 67.03 214.02 67.27 213.33 67.63 212.4 67.77 211.37 67.95 211.09 68.14 210.63 68.06 210.14 68.13 209.7 68.27 209.43 68.47 209.11 68.33 209.05 67.64 209.63 67.63 210.82 67.6 210.72 67.35 210.28 66.25 210.06 65.71 210.39 65.55 211.19 65.27 211.91 65.02 212.3 64.87 212.99 64.56 213.19 64.48 213.2 64.47 213.21 64.46 213.21 64.45 213.22 64.44 213.23 64.43 213.23 64.42 213.24 64.41 213.24 64.41 213.24 64.4 213.25 64.39 213.26 64.38 213.26 64.37 213.27 64.37 213.28 64.36 213.28 64.36 213.29 64.35 213.29 64.34 213.3 64.34 213.31 64.33 213.31 64.32 213.32 64.32 213.33 64.31 213.33 64.3 213.34 64.29 213.34 64.29 213.35 64.28 213.36 64.27 213.36 64.26 213.37 64.25 213.38 64.25 213.39 64.24 213.39 64.24 213.4 64.23 213.41 64.23 213.42 64.22 213.43 64.22 213.44 64.21 213.45 64.2 213.45 64.2 213.46 64.19 213.47 64.19 213.48 64.18 213.48 64.18 213.49 64.17 213.5 64.17 213.51 64.17 213.51 64.16 213.52 64.15 213.52 64.14 213.53 64.13 213.54 64.13 213.56 64.12 213.56 64.12 213.57 64.12 213.58 64.12 213.58 64.11 213.59 64.11 213.6 64.1 213.61 64.1 213.61 64.09 213.62 64.09 213.63 64.08 213.65 64.07 213.66 64.07 213.67 64.06 213.69 64.06 213.7 64.05 213.71 64.04 213.71 64.04 213.72 64.03 213.73 64.03 213.74 64.03 213.75 64.03 213.76 64.03 213.77 64.03 213.78 64.03 213.79 64.02 213.81 64.02 213.82 64.02 213.84 64.02 213.85 64.02 213.86 64.02 213.87 64.02 213.88 64.02 213.89 64.02 213.9 64.02 213.91 64.03 213.92 64.03 213.93 64.03 213.94 64.03 213.95 64.04 213.96 64.04 213.97 64.04 213.98 64.05 213.99 64.05 214.01 64.05 214.02 64.06 214.04 64.06 214.05 64.07 214.07 64.07 214.08 64.07 214.09 64.08 214.1 64.08 214.11 64.09 214.12 64.09 214.13 64.1 214.14 64.1 214.15 64.11 214.16 64.12 214.17 64.12 214.18 64.13 214.19 64.13 214.2 64.14 214.22 64.15 214.23 64.15 214.24 64.16 214.25 64.17 214.26 64.18 214.27 64.18 214.28 64.19 214.29 64.19 214.3 64.2 214.31 64.2 214.32 64.21 214.32 64.21 214.33 64.22 214.34 64.22 214.35 64.22 214.36 64.23 214.37 64.23 214.37 64.24 214.38 64.25 214.39 64.25 214.39 64.26 214.4 64.26 214.41 64.27 214.41 64.27 214.42 64.28 214.43 64.29 214.44 64.29 214.45 64.3 214.46 64.3 214.46 64.31 214.47 64.31 214.48 64.31 214.49 64.32 214.49 64.32 214.5 64.32 214.51 64.33 214.52 64.34 214.53 64.34 214.54 64.35 214.55 64.35 214.56 64.36 214.57 64.36 214.58 64.36 214.59 64.36 214.6 64.36 214.6 64.36 214.61 64.36 214.62 64.36 214.63 64.35 214.64 64.35 214.65 64.35 214.66 64.35 214.67 64.35 214.68 64.36 214.69 64.36 214.7 64.36 214.72 64.36 214.73 64.37 214.74 64.37 214.75 64.37 214.77 64.37 214.78 64.38 214.79 64.38 214.81 64.38 214.82 64.39 214.83 64.39 214.85 64.39 214.86 64.39 214.87 64.4 214.89 64.4 214.9 64.4 214.91 64.4 214.92 64.41 214.93 64.41 214.94 64.41 214.95 64.41 214.96 64.42 214.97 64.42 214.98 64.42 215 64.42 215.01 64.42 215.02 64.42 215.03 64.42 215.04 64.42 215.05 64.42 215.07 64.42 215.08 64.42 215.09 64.43 215.1 64.43 215.4 64.45 215.45 64.49 215.44 64.5 215.45 64.5 215.49 64.53 215.51 64.55 215.52 64.56 215.54 64.57 215.55 64.6 215.56 64.6 215.57 64.62 215.58 64.64 215.59 64.65 215.61 64.66 215.62 64.68 215.62 64.69 215.63 64.7 215.65 64.71 215.66 64.71 215.69 64.72 215.71 64.73 215.73 64.73 215.76 64.75 215.76 64.76 215.77 64.77 215.77 64.78 215.77 64.79 215.78 64.79 215.79 64.79 215.83 64.79 215.84 64.79 215.85 64.79 215.87 64.79 215.88 64.79 215.9 64.8 215.91 64.8 215.95 64.81 215.95 64.8 215.96 64.79 215.98 64.79 216.04 64.79 216.08 64.83 216.08 64.84 216.1 64.86 216.11 64.88 216.11 64.9 216.12 64.91 216.13 64.93 216.14 64.93 216.15 64.93 216.16 64.93 216.16 64.92 216.17 64.91 216.18 64.92 216.18 64.93 216.16 64.94 216.16 64.95 216.16 64.97 216.17 64.98 216.17 64.99 216.17 65.01 216.17 65.02 216.18 65.03 216.18 65.05 216.18 65.07 216.18 65.08 216.18 65.11 216.19 65.12 216.19 65.14 216.2 65.15 216.21 65.16 216.21 65.2 216.22 65.22 216.23 65.27 216.24 65.31 216.24 65.35 216.24 65.36 216.23 65.38 216.22 65.39 216.21 65.41 216.21 65.42 216.21 65.43 216.22 65.48 216.23 65.5 216.24 65.52 216.24 65.54 216.25 65.55 216.26 65.55 216.27 65.55 216.28 65.55 216.28 65.57 216.28 65.58 216.26 65.59 216.26 65.59 216.25 65.61 216.23 65.69 216.22 65.72 216.22 65.75 216.22 65.75 216.21 65.76 216.21 65.77 216.21 65.86 216.21 65.87 216.2 65.87 216.19 65.86 216.18 65.86 216.18 65.86 216.17 65.86 216.14 65.88 216.12 65.9 216.11 65.91 216.11 65.92 216.11 65.92 216.09 65.96 216.08 65.97 216.06 65.99 216.05 66 216.04 66.01 216.03 66.02 216.03 66.04 216.03 66.05 216.03 66.08 216.03 66.11 216.04 66.13 216.05 66.16 216.06 66.18 216.06 66.19 216.07 66.21 216.08 66.23 216.09 66.25 216.1 66.26 216.11 66.28 216.12 66.31 216.14 66.33 216.15 66.35 216.17 66.38 216.17 66.4 216.19 66.41 216.2 66.44 216.22 66.46 Z"/>
</g></svg>