<svg xmlns="http://www.w3.org/2000/svg" version="1.2" baseProfile="tiny" stroke-linecap="round" stroke-linejoin="round" viewBox="501.57 136.62 14.17 22.02"><g xmlns="http://www.w3.org/2000/svg" id="Sunbilla">
<path d="M 511.15 136.69 511.19 136.71 511.17 136.78 511.15 136.86 511.11 136.98 511.1 137 510.99 137.38 510.98 137.43 510.92 137.62 510.91 137.65 510.84 137.88 510.84 137.9 510.82 137.95 510.82 138.04 510.81 138.42 510.8 138.7 510.79 138.78 510.81 138.84 510.83 138.91 510.86 139.02 510.87 139.11 510.86 139.17 510.86 139.22 510.84 139.28 510.82 139.33 510.8 139.37 510.75 139.46 510.7 139.52 510.66 139.57 510.63 139.59 510.6 139.62 510.55 139.64 510.48 139.67 510.41 139.68 510.34 139.7 510.28 139.71 510.27 139.71 510.23 139.72 510.21 139.73 510.18 139.74 510.15 139.77 510.12 139.8 510.07 139.85 510.03 139.9 510 139.95 509.98 139.99 509.96 140.03 509.96 140.07 509.99 140.09 510.01 140.1 510.07 140.12 510.08 140.12 510.1 140.13 510.14 140.14 510.17 140.14 510.2 140.14 510.23 140.15 510.27 140.16 510.28 140.17 510.29 140.18 510.32 140.23 510.35 140.31 510.36 140.34 510.41 140.44 510.3 140.54 510.28 140.56 510.32 140.62 510.35 140.67 510.38 140.74 510.41 140.84 510.42 140.94 510.43 141.02 510.44 141.1 510.43 141.17 510.41 141.21 510.39 141.24 510.33 141.31 510.26 141.37 510.19 141.43 510.15 141.48 510.12 141.51 510.1 141.55 510.08 141.63 510.06 141.73 510.06 141.82 510.07 141.9 510.09 141.98 510.1 142.09 510.11 142.17 510.11 142.24 510.09 142.32 510.04 142.45 510.01 142.52 509.98 142.57 509.96 142.61 509.93 142.64 509.89 142.67 509.8 142.73 509.76 142.75 509.77 142.78 509.83 142.97 509.84 142.99 509.78 143.01 509.67 143.01 509.6 143.02 509.53 143.06 509.5 143.08 509.45 143.09 509.36 143.1 509.16 143.13 508.96 143.14 508.89 143.16 508.82 143.17 508.78 143.19 508.72 143.21 508.67 143.24 508.62 143.27 508.58 143.3 508.57 143.32 508.56 143.34 508.54 143.36 508.53 143.41 508.53 143.41 508.52 143.44 508.51 143.46 508.59 143.49 508.7 143.52 508.73 143.54 508.77 143.56 508.8 143.59 508.84 143.62 508.87 143.65 508.89 143.67 508.92 143.7 508.94 143.72 508.96 143.75 509 143.79 509.03 143.82 509.05 143.85 509.06 143.87 509.08 143.91 509.11 143.96 509.13 144.01 509.15 144.06 509.16 144.1 509.18 144.18 509.2 144.25 509.23 144.37 509.27 144.52 509.31 144.67 509.34 144.81 509.38 144.96 509.4 145.03 509.4 145.08 509.4 145.12 509.4 145.16 509.39 145.21 509.38 145.27 509.36 145.32 509.35 145.36 509.34 145.39 509.33 145.43 509.32 145.49 509.31 145.57 509.3 145.64 509.31 145.71 509.33 145.71 509.69 145.67 509.76 145.42 509.82 145.17 509.96 145.32 510.03 145.39 510.08 145.45 510.14 145.52 510.22 145.61 510.31 145.7 510.5 145.91 510.69 146.12 510.78 146.17 510.8 146.18 510.83 146.2 510.86 146.22 510.97 146.27 511.18 146.39 511.31 146.46 511.53 147.26 511.65 147.72 511.73 148.03 511.75 148.09 511.76 148.14 511.78 148.27 511.78 148.31 511.81 148.49 511.82 148.58 511.87 148.88 511.88 148.96 511.88 148.97 512.03 150.02 512.04 150.06 512.06 150.23 512.08 150.33 512.1 150.44 512.11 150.53 512.15 150.54 512.21 150.57 512.28 150.59 512.34 150.6 512.38 150.61 512.43 150.62 512.47 150.65 512.52 150.67 512.55 150.7 512.6 150.72 512.66 150.74 512.7 150.75 512.74 150.77 512.77 150.78 512.83 150.79 512.86 150.79 512.89 150.79 512.94 150.79 512.99 150.78 513.02 150.78 513.03 150.78 513.08 150.8 513.13 150.82 513.19 150.84 513.2 150.85 513.25 150.87 513.29 150.9 513.31 150.91 513.33 150.91 513.38 150.91 513.44 150.9 513.49 150.9 513.52 150.9 513.54 150.89 513.56 150.88 513.57 150.86 513.59 150.84 513.61 150.82 513.65 150.8 513.72 150.78 513.75 150.77 513.75 150.78 513.76 151.08 513.76 151.12 513.77 151.18 513.78 151.56 513.78 151.59 513.79 151.67 513.8 151.85 513.82 152.3 513.83 152.43 513.87 152.42 513.92 152.41 513.97 152.4 514 152.4 514.04 152.41 514.08 152.42 514.14 152.44 514.16 152.45 514.2 152.49 514.25 152.56 514.29 152.63 514.33 152.68 514.35 152.69 514.37 152.69 514.42 152.69 514.47 152.67 514.54 152.67 514.67 152.67 514.75 152.68 514.76 152.7 514.82 152.86 514.84 152.9 514.85 152.92 514.93 153.14 515.02 153.39 515.03 153.41 515.04 153.44 515.06 153.48 515.13 153.65 515.32 154.15 515.49 154.38 515.55 154.46 515.64 154.58 515.66 154.62 515.67 154.62 515.69 154.66 515.71 155.23 515.71 155.34 515.56 155.36 515.55 155.36 515.52 155.37 515.37 155.39 515.06 155.42 514.51 155.49 514.36 155.84 514.39 155.9 514.43 155.99 514.42 155.99 514.4 156.01 514.38 156.03 514.38 156.04 514.41 156.06 514.44 156.1 514.48 156.14 514.49 156.16 514.49 156.17 514.5 156.21 514.51 156.3 514.53 156.48 514.54 156.57 514.54 156.59 514.53 156.61 514.5 156.63 514.46 156.66 514.46 156.67 514.43 156.69 514.4 156.73 514.37 156.75 514.34 156.75 514.31 156.76 514.28 156.76 514.26 156.75 514.21 156.72 514.19 156.71 514.14 156.69 514.09 156.68 514.05 156.67 513.97 156.66 513.92 156.66 513.89 156.67 513.86 156.69 513.85 156.69 513.81 156.71 513.77 156.71 513.73 156.72 513.7 156.72 513.66 156.71 513.61 156.68 513.57 156.64 513.49 156.58 513.45 156.54 513.43 156.54 513.39 156.52 513.35 156.5 513.32 156.47 513.28 156.45 513.24 156.43 513.16 156.43 513.11 156.42 513.07 156.41 513.04 156.4 513.01 156.39 512.98 156.4 512.92 156.4 512.86 156.41 512.85 156.41 512.84 156.41 512.81 156.39 512.8 156.38 512.78 156.36 512.77 156.36 512.75 156.35 512.69 156.32 512.59 156.28 512.56 156.28 512.53 156.28 512.49 156.27 512.45 156.26 512.43 156.23 512.41 156.21 512.4 156.2 512.37 156.17 512.31 156.14 512.28 156.12 512.27 156.11 512.26 156.11 512.23 156.11 512.2 156.12 512.17 156.13 512.14 156.14 512.06 156.17 512 156.21 511.97 156.24 511.95 156.26 511.93 156.27 511.86 156.28 511.79 156.3 511.76 156.32 511.75 156.34 511.73 156.37 511.71 156.41 511.68 156.44 511.64 156.47 511.59 156.53 511.53 156.56 511.49 156.55 511.47 156.55 511.44 156.58 511.4 156.61 511.39 156.62 511.37 156.65 511.35 156.67 511.33 156.67 511.29 156.65 511.23 156.61 511.21 156.61 511.17 156.62 511.13 156.63 511.11 156.63 511.09 156.65 511.07 156.66 511.05 156.67 511.02 156.67 510.99 156.65 510.95 156.62 510.89 156.57 510.81 156.49 510.75 156.45 510.73 156.44 510.69 156.45 510.66 156.45 510.65 156.47 510.63 156.51 510.61 156.54 510.59 156.55 510.56 156.55 510.54 156.54 510.51 156.55 510.46 156.55 510.42 156.55 510.37 156.55 510.34 156.55 510.29 156.56 510.24 156.57 510.21 156.57 510.19 156.54 510.15 156.51 510.12 156.49 510.08 156.46 510.03 156.45 509.98 156.44 509.92 156.42 509.91 156.4 509.9 156.32 509.87 156.16 509.87 156.14 509.86 156.07 509.84 155.91 509.83 155.86 509.82 155.8 509.81 155.74 509.79 155.6 509.78 155.49 509.78 155.46 509.77 155.43 509.76 155.23 509.76 155.19 509.76 155.04 509.59 154.94 509.28 154.75 509.22 154.72 509.21 154.71 509.18 154.69 509.17 154.69 509.14 154.67 508.88 154.52 508.79 154.46 508.75 154.44 508.65 154.37 508.59 154.34 508.59 154.41 508.59 154.51 508.59 154.64 508.59 154.75 508.6 154.88 508.61 155.03 508.63 155.18 508.66 155.38 508.68 155.52 508.7 155.64 508.72 155.76 508.73 155.8 508.74 155.83 508.76 155.88 508.79 155.96 508.83 156.04 508.88 156.15 508.92 156.24 508.95 156.33 508.99 156.43 509.04 156.54 509.09 156.66 509.15 156.79 509.21 156.94 509.26 157.06 509.32 157.2 509.36 157.29 509.39 157.37 509.41 157.47 509.43 157.56 509.45 157.65 509.48 157.8 509.5 157.93 509.51 158.01 509.51 158.05 509.51 158.06 509.5 158.09 509.46 158.17 509.43 158.25 509.42 158.29 509.41 158.32 509.4 158.36 509.4 158.42 509.41 158.49 509.42 158.55 509.36 158.56 509.31 158.56 509.29 158.57 509.16 158.58 509.15 158.58 509.08 158.59 508.99 158.6 508.96 158.6 508.74 158.62 508.72 158.62 508.72 158.63 508.47 158.53 508.31 158.47 508.28 158.46 508.26 158.45 508.18 158.42 508.14 158.4 508.09 158.38 508.03 158.36 507.97 158.34 507.94 158.32 507.93 158.31 507.81 158.24 507.7 158.17 507.65 158.13 507.56 158.08 507.47 158.06 507.33 158.03 507.31 158.03 507.15 158 507.13 157.99 507.12 157.95 507.09 157.87 507.07 157.81 506.9 157.26 506.85 157.12 506.85 157.11 506.84 157.07 506.75 157.07 506.73 157.07 506.7 157.07 506.7 157.06 506.41 157.05 506.12 157.03 505.98 157.03 505.84 157.02 505.69 157.01 505.65 157.01 505.48 156.92 505.47 156.91 505.45 156.91 505.44 156.9 505.23 156.79 505.12 156.73 505.09 156.72 504.98 156.66 504.97 156.66 504.95 156.65 504.77 156.55 504.71 156.46 504.69 156.43 504.67 156.4 504.64 156.34 504.57 156.23 504.56 156.21 504.48 156.07 504.46 156.03 504.42 155.97 504.34 155.84 504.29 155.75 504.27 155.71 504.23 155.65 504.2 155.6 504.16 155.52 504.15 155.51 504.14 155.48 504.09 155.39 504.04 155.28 504.02 155.26 504.01 155.22 504 155.21 504 155.19 503.99 155.18 503.98 155.17 503.96 155.13 503.94 155.09 503.94 155 503.93 154.87 503.78 154.89 503.66 154.73 503.62 154.68 503.61 154.66 503.53 154.55 503.48 154.49 503.46 154.47 503.36 154.32 503.3 154.24 503.28 154.22 503.16 154.06 503.08 153.95 503.05 153.91 503.03 153.89 503 153.83 502.95 153.73 502.92 153.69 502.92 153.68 502.69 153.25 502.67 153.22 502.66 153.2 502.55 153 502.48 152.89 502.48 152.87 502.47 152.85 502.45 152.82 502.42 152.79 502.4 152.76 502.37 152.74 502.34 152.73 502.3 152.72 502.27 152.71 502.23 152.7 502.2 152.7 502.16 152.71 502.13 152.72 502.11 152.71 502.08 152.7 502.03 152.67 501.97 152.62 501.93 152.6 501.9 152.6 501.87 152.6 501.84 152.59 501.8 152.59 501.78 152.59 501.75 152.59 501.72 152.6 501.69 152.62 501.66 152.63 501.63 152.64 501.61 152.65 501.59 152.65 501.58 152.63 501.57 152.59 501.57 152.54 501.57 152.49 501.59 152.44 501.6 152.4 501.62 152.33 501.62 152.29 501.62 152.25 501.63 152.23 501.65 152.2 501.67 152.17 501.68 152.12 501.7 152.08 501.71 152.03 501.72 151.98 501.74 151.94 501.75 151.91 501.77 151.86 501.78 151.82 501.79 151.78 501.79 151.75 501.79 151.71 501.8 151.7 501.8 151.68 501.82 151.65 501.83 151.61 501.84 151.56 501.84 151.54 501.84 151.53 501.87 151.47 501.9 151.39 501.92 151.34 502.02 151.09 502.14 150.81 502.14 150.8 502.18 150.71 502.3 150.4 502.41 150.14 502.44 150.04 502.43 150.04 502.39 150 502.24 149.86 502.11 149.73 502.1 149.72 502.01 149.64 501.86 149.5 501.83 149.47 501.63 149.25 501.66 149.21 501.68 149.18 501.69 149.13 501.67 149.09 501.66 149.05 501.63 149.02 501.61 148.98 501.61 148.95 501.62 148.92 501.64 148.89 501.66 148.86 501.7 148.84 501.75 148.81 501.79 148.79 501.81 148.79 501.88 148.8 501.93 148.8 501.96 148.79 501.97 148.77 501.99 148.75 502.01 148.7 502.05 148.64 502.08 148.57 502.09 148.52 502.11 148.48 502.13 148.44 502.15 148.42 502.2 148.37 502.23 148.32 502.27 148.25 502.31 148.22 502.35 148.19 502.4 148.16 502.46 148.15 502.5 148.13 502.52 148.11 502.55 148.09 502.58 148.05 502.61 148.04 502.64 148.04 502.66 148.04 502.7 148.05 502.76 148.05 502.8 148.06 502.85 148.06 502.9 148.08 502.93 148.11 502.95 148.13 502.99 148.16 503.01 148.17 503.06 148.19 503.1 148.21 503.11 148.21 503.15 148.24 503.19 148.27 503.21 148.28 503.23 148.32 503.24 148.33 503.25 148.36 503.28 148.39 503.31 148.4 503.36 148.41 503.44 148.41 503.49 148.4 503.51 148.41 503.53 148.42 503.54 148.46 503.55 148.51 503.56 148.58 503.58 148.62 503.61 148.65 503.66 148.67 503.71 148.69 503.79 148.71 503.84 148.72 503.9 148.71 503.92 148.7 503.96 148.63 503.98 148.59 503.98 148.56 503.98 148.54 503.99 148.52 504.02 148.5 504.05 148.47 504.09 148.42 504.09 148.38 504.1 148.34 504.09 148.32 504.07 148.3 504.04 148.29 504.01 148.29 503.99 148.28 503.98 148.27 504 148.25 504.03 148.23 504.09 148.19 504.23 148.13 504.37 148.06 504.42 148.04 504.46 148.03 504.5 148.01 504.53 148.01 504.56 147.99 504.58 147.94 504.59 147.9 504.59 147.85 504.59 147.81 504.57 147.79 504.55 147.76 504.53 147.73 504.51 147.71 504.51 147.69 504.52 147.67 504.54 147.66 504.58 147.65 504.64 147.64 504.66 147.63 504.68 147.6 504.69 147.58 504.69 147.55 504.68 147.52 504.66 147.5 504.62 147.48 504.58 147.46 504.56 147.45 504.54 147.43 504.53 147.4 504.53 147.36 504.53 147.32 504.54 147.27 504.57 147.2 504.58 147.17 504.57 147.15 504.55 147.11 504.55 147.06 504.55 146.98 504.55 146.96 504.55 146.89 504.56 146.79 504.57 146.77 504.58 146.76 504.6 146.75 504.65 146.74 504.7 146.75 504.71 146.75 504.74 146.75 504.75 146.75 504.79 146.76 504.92 146.8 505.18 146.88 505.24 146.89 505.25 146.86 505.46 146.48 505.5 146.4 505.64 146.14 505.65 146.12 505.66 146.11 505.7 146.01 505.72 145.99 505.72 145.98 505.73 145.96 505.98 145.49 506.04 145.38 506.05 145.36 506.13 145.21 506.14 145.18 506.16 145.17 506.44 145.01 506.45 145 506.67 144.88 506.68 144.87 506.97 144.7 506.97 144.7 507.31 144.51 507.46 144.42 507.54 144.37 507.55 144.37 507.68 144.29 507.8 144.22 507.8 144.21 507.79 144.18 507.76 144.15 507.74 144.11 507.72 144.09 507.7 144.06 507.69 144.04 507.68 143.99 507.66 143.92 507.62 143.81 507.6 143.73 507.58 143.66 507.56 143.61 507.55 143.6 507.54 143.57 507.53 143.54 507.52 143.5 507.54 143.47 507.56 143.44 507.6 143.38 507.52 143.35 507.46 143.33 507.38 143.3 507.31 143.25 507.26 143.2 507.23 143.15 507.22 143.1 507.21 143.05 507.23 143.02 507.25 143 507.3 142.98 507.4 142.93 507.52 142.89 507.65 142.85 507.74 142.8 507.82 142.78 507.87 142.74 507.96 142.69 508.1 142.64 508.25 142.59 508.37 142.56 508.52 142.53 508.64 142.53 508.75 142.52 508.9 142.54 509.15 142.58 509.24 142.59 509.28 142.6 509.5 142.63 509.64 142.65 509.69 142.64 509.75 142.59 509.83 142.53 509.89 142.46 509.94 142.39 509.99 142.16 509.99 142.07 509.98 141.97 509.96 141.86 509.94 141.79 509.9 141.8 509.87 141.81 509.84 141.8 509.72 141.75 509.62 141.7 509.46 141.87 509.39 141.95 509.38 141.96 509.14 142.22 509.13 142.01 509.13 141.99 509.13 141.88 509.11 141.85 509.1 141.85 508.98 141.67 508.83 141.44 508.81 141.41 508.82 141.4 509.06 141.12 509.12 141.05 509.13 141.04 509.4 140.72 509.41 140.7 509.43 140.68 509.49 140.6 509.52 140.57 509.4 140.56 509.26 140.55 509.11 140.55 508.98 140.54 508.85 140.52 508.74 140.5 508.63 140.48 508.56 140.46 508.51 140.43 508.44 140.37 508.38 140.29 508.32 140.23 508.29 140.17 508.25 140.1 508.23 140 508.21 139.88 508.22 139.79 508.23 139.74 508.26 139.66 508.31 139.56 508.33 139.52 508.36 139.49 508.41 139.46 508.47 139.43 508.52 139.4 508.56 139.39 508.62 139.38 508.69 139.38 508.67 139.17 508.68 139.15 508.75 139.01 508.74 138.96 508.71 138.84 508.7 138.78 508.67 138.79 508.6 138.8 508.52 138.81 508.44 138.82 508.32 138.83 508.16 138.83 508.07 138.83 508 138.81 507.94 138.77 507.88 138.72 507.84 138.68 507.8 138.62 507.79 138.57 507.78 138.53 507.78 138.5 507.8 138.45 507.84 138.38 507.87 138.34 507.93 138.22 508.01 138.09 508.13 137.93 508.23 137.8 508.3 137.73 508.36 137.68 508.4 137.65 508.46 137.63 508.53 137.61 508.59 137.59 508.73 137.58 508.84 137.57 508.96 137.55 509.11 137.52 509.2 137.51 509.26 137.51 509.33 137.5 509.48 137.51 509.54 137.51 509.71 137.45 509.88 137.37 509.95 137.33 510.05 137.29 510.18 137.24 510.32 137.19 510.47 137.14 510.62 137.07 510.75 137 510.84 136.94 510.94 136.86 511 136.77 511.04 136.69 511.06 136.65 511.15 136.69 Z"/>
</g></svg>