<svg xmlns="http://www.w3.org/2000/svg" version="1.2" baseProfile="tiny" stroke-linecap="round" stroke-linejoin="round" viewBox="509 325.35 22.2 28.22"><g xmlns="http://www.w3.org/2000/svg" id="Tiebas-Muru Artederreta">
<path d="M 518.28 326.52 518.44 326.43 518.53 326.39 518.56 326.38 518.74 326.19 518.86 326.07 518.92 326.02 519.08 325.99 519.19 325.97 519.55 325.9 519.58 325.9 519.58 325.9 519.6 325.9 519.85 325.73 519.87 325.72 519.97 325.67 520.27 325.52 520.28 325.52 520.47 325.49 520.49 325.48 521.1 325.38 521.25 325.36 521.35 325.36 521.45 325.37 521.47 325.37 521.49 325.37 521.51 325.38 521.62 325.42 521.79 325.51 521.96 325.59 522.04 325.62 522.15 325.66 522.18 325.66 522.19 325.69 522.2 325.72 522.21 325.74 522.22 325.76 522.25 325.84 522.32 325.95 522.4 326.08 522.46 326.17 522.48 326.18 522.6 326.24 522.72 326.3 522.79 326.33 522.8 326.33 522.86 326.36 522.99 326.42 523.03 326.43 523.12 326.47 523.25 326.52 523.37 326.56 523.38 326.56 523.51 326.61 523.63 326.66 523.77 326.72 523.89 326.76 524.02 326.81 524.07 326.82 524.09 326.83 524.16 326.84 524.29 326.86 524.36 326.87 524.43 326.88 524.56 326.92 524.7 326.95 524.71 326.96 524.76 326.97 524.83 327 524.95 327.05 525.09 327.11 525.21 327.16 525.28 327.19 525.33 327.23 525.42 327.32 525.46 327.35 525.53 327.41 525.55 327.43 525.57 327.45 525.63 327.51 525.73 327.6 525.84 327.7 525.95 327.8 526.06 327.9 526.16 327.99 526.25 328.07 526.27 328.1 526.35 328.21 526.43 328.32 526.47 328.37 526.51 328.43 526.53 328.46 526.57 328.5 526.61 328.55 526.65 328.59 526.73 328.68 526.74 328.7 526.79 328.75 526.81 328.78 526.83 328.84 526.85 328.9 526.87 328.97 526.89 329.03 526.91 329.11 526.93 329.17 526.93 329.18 526.95 329.24 526.97 329.31 526.99 329.37 527.01 329.44 527.04 329.53 527.06 329.59 527.07 329.61 527.08 329.63 527.09 329.65 527.12 329.7 527.15 329.75 527.17 329.82 527.19 329.86 527.19 329.88 527.22 329.94 527.24 329.99 527.28 330.09 527.3 330.14 527.32 330.2 527.35 330.25 527.37 330.3 527.45 330.47 527.48 330.53 527.5 330.59 527.52 330.65 527.55 330.72 527.57 330.73 527.6 330.76 527.64 330.8 527.67 330.84 527.7 330.88 527.72 330.92 527.75 331 527.77 331.05 527.81 331.12 527.83 331.16 527.86 331.21 527.87 331.26 527.89 331.3 527.9 331.34 527.92 331.41 527.94 331.44 527.95 331.48 527.96 331.51 527.98 331.53 528 331.57 528.01 331.61 528.02 331.65 528.02 331.67 528.03 331.68 528.03 331.71 528.06 331.74 528.12 331.75 528.15 331.83 528.17 331.89 528.19 331.95 528.22 332.02 528.24 332.09 528.25 332.11 528.27 332.16 528.3 332.23 528.32 332.29 528.35 332.35 528.38 332.42 528.4 332.47 528.43 332.54 528.47 332.66 528.52 332.77 528.55 332.85 528.58 332.93 528.6 332.99 528.62 333.03 528.65 333.11 528.7 333.21 528.72 333.27 528.74 333.32 528.76 333.39 528.79 333.45 528.81 333.51 528.84 333.57 528.86 333.63 528.87 333.65 528.89 333.71 528.91 333.76 528.95 333.84 528.97 333.91 528.98 333.95 529.01 334 529.07 334.06 529.13 334.11 529.19 334.17 529.28 334.26 529.42 334.39 529.57 334.53 529.66 334.61 529.74 334.69 529.79 334.73 529.89 334.83 529.94 334.88 530.03 334.95 530.09 335.01 530.17 335.09 530.32 335.23 530.38 335.28 530.47 335.37 530.62 335.51 530.75 335.64 530.81 335.7 530.87 335.73 531 335.86 531.06 335.91 531.09 335.93 531.14 335.98 531.15 335.99 531.17 336 531.13 336.04 531.11 336.06 531.08 336.08 531.03 336.11 530.97 336.16 530.9 336.21 530.86 336.23 530.83 336.27 530.82 336.27 530.75 336.33 530.64 336.41 530.56 336.47 530.48 336.53 530.39 336.61 530.32 336.65 530.25 336.71 530.18 336.76 530.11 336.82 530.06 336.85 530.01 336.9 529.96 336.94 529.91 336.98 529.85 337.03 529.83 337.04 529.78 337.08 529.73 337.12 529.66 337.17 529.6 337.22 529.54 337.27 529.46 337.34 529.41 337.37 529.34 337.4 529.25 337.46 529.21 337.49 529.14 337.53 529.07 337.57 529.02 337.61 528.97 337.65 528.93 337.68 528.9 337.7 528.85 337.73 528.79 337.77 528.74 337.81 528.68 337.86 528.63 337.9 528.56 337.95 528.51 337.99 528.46 338.04 528.42 338.08 528.4 338.11 528.37 338.12 528.35 338.14 528.32 338.16 528.29 338.19 528.29 338.2 528.26 338.3 528.21 338.34 528.15 338.39 528.08 338.43 528.04 338.47 527.95 338.54 527.86 338.62 527.78 338.67 527.68 338.76 527.61 338.8 527.51 338.89 527.46 338.93 527.36 339.01 527.35 339.04 527.35 339.08 527.36 339.14 527.35 339.2 527.35 339.32 527.34 339.41 527.34 339.51 527.34 339.6 527.34 339.65 527.32 339.69 527.34 339.71 527.38 339.76 527.42 339.82 527.42 339.87 527.41 339.93 527.4 340.01 527.4 340.05 527.39 340.08 527.37 340.17 527.34 340.27 527.33 340.35 527.29 340.46 527.26 340.55 527.22 340.66 527.19 340.77 527.17 340.82 527.16 340.85 527.15 340.89 527.11 340.96 527.07 341 527.01 341.07 526.95 341.16 526.9 341.23 526.85 341.3 526.8 341.36 526.73 341.45 526.68 341.52 526.61 341.62 526.56 341.69 526.5 341.77 526.43 341.87 526.38 341.93 526.31 342 526.3 342.02 526.28 342.03 526.25 342.06 526.18 342.13 526.11 342.19 526.06 342.25 526.01 342.31 525.98 342.34 525.93 342.4 525.89 342.46 525.85 342.52 525.78 342.61 525.73 342.69 525.69 342.76 525.68 342.77 525.64 342.84 525.62 342.87 525.56 342.97 525.52 343.03 525.5 343.07 525.46 343.13 525.42 343.2 525.38 343.26 525.33 343.35 525.27 343.46 525.23 343.52 525.16 343.63 525.11 343.71 525.06 343.78 525 343.87 524.95 343.96 524.92 344.02 524.89 344.06 524.84 344.14 524.78 344.22 524.75 344.25 524.68 344.31 524.59 344.39 524.53 344.45 524.45 344.52 524.3 344.66 524.22 344.73 524.08 344.87 524.01 344.94 523.95 345 523.87 345.08 523.81 345.14 523.75 345.22 523.69 345.28 523.61 345.36 523.55 345.43 523.48 345.5 523.42 345.56 523.35 345.64 523.28 345.71 523.22 345.77 523.15 345.85 523.1 345.91 523.03 345.98 522.97 346.04 522.9 346.09 522.85 346.12 522.81 346.14 522.71 346.19 522.64 346.23 522.53 346.27 522.47 346.3 522.37 346.35 522.3 346.38 522.22 346.42 522.14 346.46 522.04 346.52 521.97 346.56 521.96 346.56 521.9 346.6 521.84 346.64 521.78 346.68 521.73 346.71 521.67 346.74 521.57 346.79 521.5 346.83 521.43 346.87 521.38 346.9 521.28 346.98 521.19 347.03 521.08 347.1 521 347.16 520.91 347.22 520.81 347.28 520.72 347.34 520.61 347.4 520.53 347.44 520.43 347.5 520.34 347.55 520.23 347.61 520.17 347.65 520.13 347.68 520.04 347.72 519.96 347.77 519.85 347.83 519.83 347.84 519.73 347.88 519.66 347.96 519.61 348.02 519.53 348.11 519.47 348.17 519.4 348.24 519.33 348.32 519.25 348.4 519.18 348.48 519.13 348.52 519.12 348.53 519.04 348.6 518.97 348.67 518.91 348.73 518.9 348.75 518.83 348.82 518.78 348.89 518.74 348.93 518.71 348.97 518.64 349.05 518.56 349.14 518.5 349.22 518.48 349.25 518.43 349.32 518.36 349.42 518.3 349.51 518.29 349.53 518.21 349.57 518.19 349.58 518.15 349.6 518.12 349.61 518.09 349.62 518.05 349.64 518.02 349.65 518 349.66 517.94 349.68 517.93 349.68 517.91 349.69 517.9 349.69 517.87 349.7 517.8 349.72 517.72 349.75 517.67 349.76 517.59 349.78 517.53 349.8 517.52 349.8 517.48 349.8 517.46 349.79 517.43 349.79 517.41 349.79 517.39 349.78 517.36 349.78 517.32 349.78 517.26 349.78 517.2 349.76 517.16 349.76 517.1 349.76 517.05 349.77 516.99 349.78 516.91 349.8 516.82 349.82 516.77 349.85 516.72 349.88 516.69 349.91 516.67 349.92 516.59 349.96 516.53 350 516.45 350.04 516.39 350.07 516.3 350.12 516.2 350.18 516.11 350.23 516.11 350.32 516.12 350.53 516.12 350.55 516.12 350.59 516.12 350.67 516.12 350.75 516.12 350.82 516.12 350.83 516.13 350.87 516.13 350.95 516.13 350.97 516.12 351.03 516.08 351.13 516.07 351.15 516.07 351.17 516.05 351.21 516.01 351.31 516 351.34 516.03 351.48 516.03 351.51 516.05 351.58 516.06 351.65 516.02 351.71 515.99 351.75 515.97 351.77 515.94 351.82 515.92 351.88 515.91 351.89 515.9 351.94 515.88 351.98 515.87 352.04 515.86 352.1 515.85 352.16 515.85 352.24 515.86 352.29 515.86 352.36 515.86 352.39 515.88 352.51 515.88 352.52 515.89 352.57 515.9 352.65 515.9 352.7 515.89 352.73 515.87 352.77 515.85 352.83 515.85 352.84 515.85 352.85 515.82 352.93 515.81 352.96 515.8 352.99 515.78 353.06 515.76 353.12 515.75 353.15 515.74 353.16 515.73 353.19 515.67 353.21 515.6 353.23 515.52 353.26 515.51 353.27 515.48 353.28 515.44 353.29 515.36 353.32 515.24 353.36 515.09 353.39 515.01 353.41 514.99 353.41 514.9 353.43 514.85 353.44 514.8 353.45 514.75 353.47 514.68 353.49 514.62 353.49 514.57 353.49 514.52 353.5 514.46 353.5 514.38 353.52 514.31 353.54 514.25 353.55 514.18 353.55 514.12 353.55 514.07 353.55 514.03 353.55 513.99 353.53 513.96 353.54 513.87 353.53 513.84 353.49 513.81 353.42 513.81 353.41 513.76 353.29 513.75 353.28 513.73 353.22 513.72 353.2 513.69 353.12 513.66 353.06 513.63 353 513.61 352.94 513.59 352.87 513.57 352.82 513.55 352.77 513.54 352.75 513.51 352.67 513.48 352.58 513.46 352.5 513.41 352.36 513.4 352.3 513.4 352.16 513.39 352.02 513.39 351.99 513.38 351.94 513.36 351.91 513.35 351.89 513.32 351.86 513.28 351.81 513.23 351.59 513.22 351.53 513.19 351.4 513.19 351.38 513.17 351.32 513.12 351.17 513.08 351.09 513.06 351.02 513.04 350.98 513.02 350.93 513.02 350.92 513 350.86 512.98 350.8 512.97 350.78 512.96 350.74 512.95 350.71 512.92 350.62 512.91 350.6 512.89 350.53 512.88 350.5 512.85 350.37 512.8 350.15 512.77 349.99 512.74 349.88 512.72 349.74 512.68 349.58 512.66 349.4 512.64 349.21 512.61 348.96 512.62 348.9 512.63 348.82 512.62 348.8 512.51 348.68 512.5 348.67 512.49 348.66 512.48 348.65 512.47 348.64 512.4 348.55 512.36 348.51 512.33 348.48 512.26 348.39 512.17 348.3 512.07 348.18 512 348.09 511.94 348.03 511.91 347.98 511.86 347.92 511.85 347.91 511.76 347.81 511.67 347.71 511.67 347.7 511.63 347.66 511.62 347.65 511.6 347.62 511.59 347.61 511.54 347.53 511.48 347.42 511.45 347.35 511.42 347.29 511.36 347.2 511.33 347.12 511.26 346.98 511.23 346.91 511.21 346.88 511.17 346.83 511.13 346.78 511.12 346.75 511.07 346.68 511.03 346.63 511 346.59 510.96 346.52 510.96 346.51 510.95 346.51 510.95 346.49 510.94 346.47 510.89 346.33 510.85 346.2 510.8 346.09 510.75 345.94 510.72 345.86 510.69 345.74 510.67 345.65 510.67 345.63 510.64 345.53 510.63 345.45 510.62 345.41 510.61 345.36 510.61 345.31 510.62 345.27 510.62 345.21 510.62 345.19 510.63 345.16 510.64 345.1 510.65 345.03 510.61 344.92 510.57 344.8 510.53 344.7 510.51 344.64 510.5 344.59 510.47 344.51 510.43 344.4 510.41 344.35 510.4 344.31 510.39 344.28 510.38 344.26 510.35 344.23 510.32 344.2 510.3 344.18 510.24 344.11 510.23 344.1 510.16 344.04 510.08 343.96 510.04 343.91 510.03 343.89 509.99 343.85 509.94 343.79 509.88 343.73 509.85 343.7 509.8 343.67 509.76 343.64 509.73 343.61 509.7 343.57 509.67 343.51 509.63 343.45 509.6 343.4 509.55 343.37 509.52 343.36 509.43 343.32 509.39 343.3 509.32 343.27 509.28 343.26 509.19 343.18 509.07 343.11 509.02 343.1 509.06 343.04 509.09 342.99 509.11 342.97 509.18 342.9 509.27 342.8 509.33 342.73 509.41 342.65 509.5 342.56 509.51 342.55 509.57 342.5 509.67 342.45 509.73 342.43 509.77 342.43 509.8 342.43 509.84 342.37 509.86 342.32 509.9 342.27 509.99 342.17 510.07 342.08 510.15 341.99 510.16 341.98 510.23 341.9 510.39 341.88 510.59 341.89 510.61 341.89 510.7 341.89 510.77 341.87 510.84 341.85 510.97 341.96 511.04 342.02 511.09 342.05 511.15 342.07 511.17 342.08 511.18 342.08 511.21 342.08 511.24 342.1 511.34 342.18 511.4 342.25 511.53 342.25 511.67 342.25 511.75 342.23 511.86 342.17 511.98 342.12 512.08 342.08 512.16 342.05 512.2 342.03 512.33 341.98 512.37 341.96 512.47 341.92 512.56 341.88 512.59 341.87 512.71 341.83 512.76 341.83 512.78 341.82 512.8 341.82 512.9 341.79 513.08 341.76 513.09 341.76 513.16 341.75 513.18 341.74 513.2 341.74 513.33 341.72 513.49 341.69 513.61 341.67 513.71 341.65 513.72 341.65 513.77 341.64 513.78 341.63 513.79 341.63 513.9 341.6 514.01 341.58 514.15 341.55 514.24 341.53 514.29 341.51 514.31 341.51 514.32 341.51 514.39 341.49 514.42 341.49 514.47 341.47 514.48 341.47 514.52 341.46 514.57 341.45 514.63 341.46 514.7 341.48 514.84 341.52 514.96 341.54 515.01 341.56 515.03 341.55 515.04 341.53 515.04 341.52 515.06 341.4 515.06 341.35 515.06 341.34 515.06 341.31 515.06 341.23 515.05 341.14 515.05 341.09 515.05 341.06 515.05 341.05 515.05 341.04 515.07 340.96 515.07 340.93 515.08 340.88 515.1 340.84 515.12 340.79 515.14 340.75 515.16 340.69 515.19 340.63 515.21 340.6 515.25 340.55 515.27 340.51 515.31 340.47 515.34 340.42 515.37 340.39 515.4 340.34 515.43 340.28 515.46 340.23 515.49 340.16 515.52 340.08 515.54 340.05 515.57 340.03 515.59 340.01 515.62 339.99 515.65 339.97 515.67 339.93 515.69 339.9 515.7 339.88 515.71 339.86 515.72 339.85 515.75 339.79 515.77 339.75 515.78 339.73 515.81 339.7 515.84 339.64 515.88 339.58 515.93 339.49 515.96 339.44 515.98 339.42 515.99 339.39 516.03 339.33 516.09 339.22 516.1 339.2 516.12 339.16 516.13 339.15 516.18 339.13 516.22 339.12 516.23 339.12 516.27 339.1 516.27 339.1 516.31 339.07 516.32 339.06 516.34 339.04 516.36 338.98 516.39 338.9 516.4 338.87 516.4 338.86 516.43 338.8 516.48 338.69 516.51 338.62 516.52 338.6 516.54 338.56 516.55 338.54 516.59 338.47 516.64 338.38 516.66 338.36 516.67 338.34 516.7 338.31 516.71 338.3 516.74 338.25 516.75 338.19 516.78 338.09 516.83 337.97 516.88 337.86 516.93 337.74 516.93 337.73 516.94 337.69 517.01 337.64 517.06 337.61 517.11 337.57 517.11 337.56 517.12 337.55 517.13 337.54 517.15 337.52 517.16 337.5 517.16 337.49 517.17 337.48 517.2 337.43 517.22 337.39 517.23 337.38 517.26 337.33 517.3 337.29 517.31 337.25 517.33 337.22 517.35 337.19 517.4 337.12 517.47 337.04 517.52 336.98 517.57 336.91 517.53 336.92 517.48 336.94 517.42 336.95 517.37 336.97 517.32 336.97 517.3 336.98 517.27 336.97 517.25 336.97 517.2 336.96 517.17 336.94 517.15 336.94 516.98 336.85 516.96 336.84 516.91 336.83 516.86 336.8 516.85 336.79 516.84 336.79 516.82 336.77 516.77 336.69 516.74 336.62 516.72 336.56 516.66 336.49 516.62 336.45 516.57 336.37 516.55 336.33 516.55 336.32 516.56 336.31 516.56 336.29 516.56 336.28 516.59 336.16 516.64 335.99 516.66 335.9 516.7 335.82 516.69 335.79 516.7 335.74 516.72 335.67 516.74 335.61 516.74 335.6 516.68 335.57 516.67 335.56 516.65 335.54 516.6 335.49 516.56 335.43 516.51 335.35 516.49 335.3 516.48 335.29 516.48 335.28 516.43 335.2 516.38 335.12 516.37 335.1 516.34 335.06 516.34 335.05 516.29 335 516.25 334.95 516.19 334.91 516.11 334.83 516.06 334.8 516.04 334.78 516.02 334.76 516 334.73 515.87 334.34 516.77 333.59 516.79 333.58 516.85 333.52 517 333.37 517.04 333.33 517.08 333.28 517.12 333.23 517.16 333.15 517.17 333.12 517.19 333.08 517.27 332.97 517.3 332.95 517.3 332.94 517.31 332.93 517.32 332.92 517.42 332.83 517.44 332.8 517.45 332.8 517.49 332.72 517.49 332.71 517.56 332.6 517.57 332.59 517.59 332.56 517.61 332.53 517.63 332.53 517.9 332.6 517.94 332.6 518 332.59 518.05 332.58 518.08 332.56 518.14 332.52 518.2 332.47 518.23 332.44 518.26 332.33 518.28 332.31 518.3 332.28 518.37 332.26 518.55 332.21 518.55 332.2 518.77 331.64 518.84 331.52 518.86 331.48 518.87 331.46 518.86 331.43 518.85 331.38 518.85 331.36 518.86 331.34 518.96 331.05 519.13 330.82 519.14 330.81 519.15 330.8 519.23 330.71 519.26 330.67 519.45 330.6 519.51 330.57 519.52 330.56 519.57 330.52 519.83 330.27 519.8 330.2 519.66 330 519.67 329.37 519.65 329.27 519.54 328.85 519.54 328.82 519.54 328.71 519.54 328.69 519.52 328.63 519.44 328.48 519.4 328.41 519.39 328.38 519.38 328.34 519.35 328.2 519.34 328.14 519.33 328.12 519.33 328.05 519.33 328.03 519.32 328.01 519.3 327.99 519.28 327.97 519.16 327.92 519.14 327.91 519.11 327.9 519.08 327.87 519.06 327.86 519.01 327.81 519 327.8 519 327.79 518.98 327.77 518.95 327.73 518.93 327.64 518.93 327.58 518.92 327.47 518.91 327.35 518.9 327.26 518.89 327.22 518.87 327.17 518.86 327.15 518.86 327.15 518.85 327.13 518.83 327.06 518.8 327 518.69 326.93 518.51 326.83 518.49 326.8 518.4 326.66 518.35 326.59 518.37 326.57 518.35 326.55 518.34 326.55 518.33 326.54 518.3 326.53 518.29 326.53 518.28 326.52 Z"/>
</g></svg>