<svg xmlns="http://www.w3.org/2000/svg" version="1.2" baseProfile="tiny" stroke-linecap="round" stroke-linejoin="round" viewBox="501.28 346.98 7.98 16.4"><g xmlns="http://www.w3.org/2000/svg" id="Tirapu">
<path d="M 501.35 347.73 501.38 347.69 501.44 347.62 501.5 347.56 501.56 347.49 501.58 347.47 501.61 347.45 501.64 347.42 501.65 347.41 501.66 347.4 501.67 347.39 501.78 347.32 501.83 347.27 501.85 347.27 501.88 347.25 501.9 347.24 501.97 347.21 502.04 347.17 502.07 347.15 502.11 347.13 502.17 347.11 502.25 347.08 502.32 347.06 502.33 347.06 502.39 347.04 502.41 347.04 502.55 347.03 502.59 347.02 502.64 347.02 502.72 347.01 502.79 347 502.82 347 502.88 347.01 502.9 347.01 502.92 347.01 502.96 347.01 503.1 347.01 503.18 347 503.27 347 503.4 347 503.44 347 503.49 347 503.53 346.99 503.55 346.99 503.63 346.99 503.74 347.1 503.79 347.15 503.81 347.18 503.85 347.19 503.92 347.22 504.02 347.27 504.05 347.28 504.13 347.31 504.18 347.33 504.32 347.35 504.44 347.37 504.46 347.39 504.6 347.39 504.65 347.37 504.66 347.37 504.91 347.46 504.95 347.48 505.03 347.59 505.09 347.62 505.15 347.65 505.2 347.69 505.24 347.72 505.25 347.72 505.27 347.73 505.34 347.75 505.43 347.78 505.48 347.8 505.47 347.88 505.46 347.93 505.46 347.94 505.45 348.03 505.43 348.14 505.43 348.2 505.42 348.23 505.41 348.28 505.41 348.3 505.4 348.33 505.4 348.35 505.38 348.43 505.38 348.44 505.37 348.46 505.37 348.49 505.36 348.51 505.36 348.53 505.35 348.56 505.34 348.59 505.33 348.65 505.32 348.67 505.31 348.76 505.28 348.9 505.29 348.92 505.31 348.99 505.32 349.07 505.35 349.19 505.4 349.28 505.45 349.39 505.49 349.37 505.57 349.32 505.63 349.3 505.68 349.28 505.72 349.27 505.76 349.26 505.78 349.25 505.85 349.22 505.92 349.18 505.98 349.14 506 349.12 506.03 349.09 506.1 349.05 506.21 349 506.27 348.97 506.3 349 506.32 349.03 506.35 349.06 506.37 349.09 506.38 349.1 506.45 349.19 506.52 349.12 506.58 349.06 506.62 349.03 506.71 349.01 506.75 348.99 506.78 348.98 506.79 348.98 506.84 348.97 506.86 348.97 506.89 349.02 506.92 349.07 507.02 349.23 507.09 349.32 507.09 349.33 507.11 349.36 507.18 349.45 507.23 349.52 507.24 349.54 507.39 349.73 507.42 349.78 507.45 349.82 507.47 349.85 507.52 349.93 507.56 350 507.64 350.11 507.67 350.17 507.7 350.22 507.71 350.24 507.72 350.25 507.74 350.31 507.81 350.45 507.85 350.54 507.87 350.6 507.88 350.61 507.94 350.76 507.95 350.77 507.98 350.84 508.01 350.91 508.04 351.01 508.06 351.07 508.07 351.09 508.07 351.11 508.07 351.12 508.09 351.16 508.09 351.19 508.12 351.32 508.13 351.33 508.13 351.35 508.16 351.46 508.18 351.53 508.19 351.58 508.2 351.62 508.21 351.71 508.22 351.73 508.22 351.74 508.23 351.78 508.23 351.8 508.24 351.82 508.24 351.83 508.22 351.92 508.22 351.94 508.21 352.01 508.21 352.02 508.21 352.03 508.2 352.1 508.19 352.13 508.18 352.2 508.18 352.24 508.17 352.3 508.18 352.41 508.22 352.69 508.22 352.71 508.24 352.75 508.25 352.81 508.27 352.85 508.3 352.95 508.28 353 508.26 353.03 508.24 353.07 508.24 353.08 508.23 353.11 508.22 353.12 508.17 353.24 508.15 353.28 508.15 353.29 508.14 353.43 508.12 353.54 508.1 353.62 508.06 353.76 508.05 353.81 508.02 353.96 508.01 353.98 508.01 353.99 507.99 354.07 507.98 354.1 507.98 354.12 507.97 354.21 507.96 354.24 507.96 354.24 507.95 354.35 507.95 354.36 507.94 354.4 507.94 354.41 507.93 354.49 507.93 354.5 507.93 354.52 507.93 354.54 507.94 354.68 507.94 354.71 507.91 354.78 507.82 354.94 507.71 355.04 507.69 355.06 507.57 355.17 507.57 355.19 507.56 355.21 507.54 355.34 507.54 355.35 507.53 355.46 507.53 355.47 507.55 355.54 507.58 355.61 507.59 355.65 507.61 355.69 507.62 355.71 507.63 355.75 507.64 355.79 507.64 355.8 507.66 355.87 507.67 355.94 507.68 355.96 507.68 355.97 507.73 356.17 507.74 356.29 507.75 356.33 507.75 356.38 507.75 356.4 507.75 356.41 507.77 356.54 507.83 356.63 507.89 356.72 507.92 356.75 507.93 356.77 508.03 356.91 508.06 356.95 508.13 357.04 508.27 357.28 508.33 357.39 508.34 357.4 508.38 357.48 508.45 357.64 508.47 357.67 508.5 357.74 508.51 357.77 508.56 357.86 508.61 357.98 508.61 358 508.62 358.06 508.63 358.17 508.63 358.19 508.64 358.27 508.63 358.36 508.62 358.42 508.61 358.5 508.61 358.59 508.6 358.67 508.6 358.76 508.61 358.87 508.63 358.96 508.64 359.08 508.65 359.2 508.65 359.22 508.65 359.32 508.67 359.48 508.68 359.59 508.68 359.72 508.69 359.77 508.69 359.91 508.69 359.98 508.75 360.15 508.75 360.15 508.76 360.17 508.78 360.21 508.81 360.28 508.88 360.44 508.91 360.5 508.93 360.55 508.96 360.62 508.97 360.64 508.98 360.67 509 360.72 509.04 360.83 509.08 360.96 509.08 360.98 509.1 361.01 509.12 361.05 509.15 361.12 509.22 361.26 509.26 361.34 509.22 361.49 509.15 361.7 509.15 361.71 509.02 361.82 508.88 362.02 508.67 362.37 508.65 362.47 508.43 362.89 508.36 363.01 508.34 363.05 507.95 363.19 507.87 363.22 507.78 363.38 507.77 363.38 507.75 363.38 507.68 363.34 507.61 363.3 507.6 363.3 507.56 363.28 507.47 363.21 507.34 363.1 507.32 363.09 507.26 363.04 507.16 362.97 507.06 362.9 506.97 362.85 506.96 362.83 506.95 362.82 506.91 362.77 506.91 362.77 506.82 362.68 506.72 362.56 506.7 362.54 506.68 362.51 506.67 362.5 506.65 362.45 506.57 362.31 506.52 362.21 506.5 362.17 506.49 362.15 506.48 362.14 506.47 362.12 506.46 362.11 506.46 362.09 506.45 362.07 506.43 362.04 506.4 361.99 506.39 361.99 506.39 361.98 506.37 361.95 506.36 361.93 506.35 361.92 506.34 361.91 506.33 361.89 506.32 361.89 506.31 361.87 506.3 361.86 506.29 361.86 506.28 361.84 506.23 361.78 506.22 361.76 506.18 361.66 506.11 361.48 506.07 361.33 506.06 361.27 506.04 361.15 506.02 361.09 506.02 361.06 505.98 360.99 505.94 360.91 505.92 360.88 505.9 360.83 505.89 360.81 505.84 360.72 505.8 360.64 505.76 360.56 505.74 360.49 505.71 360.44 505.65 360.3 505.63 360.26 505.62 360.24 505.31 359.73 505.29 359.69 505.18 359.59 505.14 359.56 505.07 359.48 505.03 359.44 505.02 359.41 504.95 359.25 504.92 359.17 504.85 359.02 504.85 359 504.82 358.92 504.79 358.88 504.76 358.8 504.76 358.79 504.73 358.73 504.72 358.69 504.7 358.66 504.7 358.65 504.68 358.62 504.68 358.62 504.65 358.54 504.64 358.53 504.47 358.16 504.45 358.12 504.44 358.11 504.43 358.1 504.18 357.76 504.17 357.74 504.14 357.69 504.07 357.6 503.93 357.02 503.93 357.01 503.87 356.77 503.86 356.72 503.86 356.68 503.84 356.48 503.83 356.42 503.83 356.39 503.83 356.25 503.83 356.13 503.83 356.09 503.83 356.06 503.82 355.83 503.79 355.54 503.79 355.53 503.79 355.52 503.59 355.15 503.57 355.1 503.55 355.07 503.52 355.02 503.5 354.98 503.43 354.88 503.3 354.72 503.25 354.65 503.21 354.57 503.17 354.49 503.15 354.43 503.13 354.39 503.1 354.32 503.07 354.26 503.05 354.16 503.02 354.08 503 354 502.97 353.89 502.95 353.84 502.93 353.78 502.92 353.72 502.9 353.63 502.89 353.62 502.89 353.6 502.86 353.53 502.84 353.45 502.81 353.36 502.78 353.3 502.74 353.23 502.7 353.15 502.66 353.07 502.61 352.98 502.58 352.91 502.52 352.8 502.47 352.71 502.43 352.63 502.39 352.56 502.35 352.5 502.3 352.4 502.27 352.37 502.27 352.36 502.23 352.28 502.19 352.17 502.16 352.04 502.14 351.98 502.1 351.92 502.07 351.89 502.02 351.84 501.98 351.78 501.95 351.73 501.93 351.71 501.91 351.7 501.88 351.68 501.87 351.68 501.82 351.65 501.76 351.59 501.66 351.5 501.65 351.49 501.64 351.44 501.62 351.37 501.61 351.35 501.61 351.34 501.58 351.25 501.57 351.19 501.56 351.18 501.54 351.12 501.53 351.08 501.52 351.05 501.5 350.99 501.48 350.92 501.47 350.85 501.46 350.8 501.46 350.78 501.46 350.76 501.43 350.7 501.39 350.64 501.38 350.56 501.37 350.53 501.37 350.52 501.36 350.49 501.35 350.46 501.34 350.43 501.34 350.41 501.31 350.35 501.31 350.27 501.31 350.14 501.31 350.06 501.32 350.03 501.32 350.01 501.32 350 501.32 350 501.33 349.93 501.35 349.84 501.36 349.77 501.38 349.63 501.39 349.59 501.4 349.57 501.4 349.54 501.41 349.51 501.42 349.47 501.42 349.44 501.42 349.41 501.42 349.38 501.42 349.32 501.42 349.32 501.42 349.18 501.42 349.15 501.42 349.08 501.42 349.07 501.43 349.01 501.41 348.94 501.4 348.84 501.38 348.77 501.38 348.74 501.37 348.68 501.35 348.61 501.35 348.59 501.35 348.57 501.35 348.55 501.34 348.42 501.34 348.41 501.34 348.4 501.34 348.25 501.34 348.24 501.34 348.11 501.34 348.09 501.34 348.05 501.33 348.02 501.34 347.88 501.35 347.73 Z"/>
</g></svg>