<svg xmlns="http://www.w3.org/2000/svg" version="1.2" baseProfile="tiny" stroke-linecap="round" stroke-linejoin="round" viewBox="368.95 154.37 43.18 51.58"><g xmlns="http://www.w3.org/2000/svg" id="Tolosa">
<path d="M 412.1 154.78 411.86 155.36 407.5 156.35 407.71 155.92 407.84 155.76 407.92 155.66 408.08 155.76 408.39 155.87 408.87 155.87 409.29 155.77 410.06 155.39 410.44 155.13 410.86 154.4 411.39 154.54 411.89 154.7 412.1 154.78 Z M 395.83 187.61 395.7 187.22 395.69 187.19 395.68 187.15 395.66 187.12 395.64 187.07 395.62 187.04 395.58 187 395.56 186.97 395.54 186.93 395.52 186.89 395.51 186.85 395.5 186.8 395.49 186.75 395.49 186.72 395.48 186.68 395.48 186.66 395.46 186.63 395.44 186.61 395.43 186.58 395.42 186.56 395.41 186.54 395.41 186.51 395.4 186.49 395.38 186.46 395.36 186.44 395.34 186.42 395.33 186.4 395.29 186.36 395.27 186.33 395.25 186.29 395.24 186.25 395.24 186.22 395.22 186.17 395.22 186.14 395.2 186.09 395.18 186.07 395.16 186.03 395.13 185.99 395.12 185.95 395.1 185.91 395.08 185.88 395.07 185.86 395.06 185.83 395.06 185.8 395.06 185.77 395.06 185.74 395.06 185.71 395.05 185.68 395.04 185.64 395.04 185.61 395.04 185.57 395.03 185.54 395.02 185.51 395.01 185.47 395 185.44 394.98 185.4 394.97 185.37 394.97 185.34 394.96 185.3 394.96 185.27 394.96 185.22 394.95 185.18 394.95 185.14 394.94 185.11 394.93 185.07 394.93 185.04 394.93 185.01 394.93 184.98 394.92 184.94 394.91 184.91 394.91 184.87 394.91 184.83 394.9 184.8 394.9 184.76 394.89 184.72 394.89 184.69 394.87 184.66 394.86 184.62 394.86 184.58 394.85 184.55 394.84 184.52 394.83 184.49 394.82 184.45 394.81 184.41 394.8 184.37 394.79 184.34 394.78 184.3 394.78 184.27 394.78 184.25 394.78 184.2 394.78 184.19 394.79 184.14 394.79 184.1 394.79 184.06 394.81 184.02 394.81 183.99 394.82 183.96 394.83 183.93 394.83 183.9 394.83 183.87 394.84 183.85 394.85 183.84 394.88 183.84 394.9 183.82 394.93 183.81 394.95 183.8 394.96 183.8 394.99 183.81 395.03 183.83 395.04 183.84 395.07 183.86 395.1 183.88 395.13 183.89 395.15 183.91 395.18 183.93 395.22 183.95 395.25 183.97 395.27 183.99 395.3 184.01 395.33 184.02 395.39 184.02 395.44 184.02 395.52 184.02 395.55 184.02 395.58 184.01 395.6 184.01 395.63 184.01 395.66 184 395.7 184 395.74 184.01 395.76 184.02 395.76 184.03 395.77 184.06 395.76 184.08 395.76 184.1 395.75 184.13 395.74 184.17 395.74 184.18 395.76 184.22 395.79 184.25 395.83 184.28 395.89 184.32 395.93 184.36 395.99 184.39 396.06 184.41 396.1 184.43 396.14 184.44 396.18 184.45 396.27 184.46 396.32 184.46 396.4 184.48 396.47 184.49 396.54 184.51 396.58 184.53 396.63 184.53 396.67 184.53 396.7 184.53 396.75 184.53 396.8 184.53 396.84 184.53 396.89 184.56 396.95 184.58 397 184.61 397.05 184.63 397.09 184.65 397.15 184.69 397.19 184.72 397.23 184.77 397.25 184.81 397.26 184.86 397.26 184.91 397.26 184.94 397.3 184.99 397.34 185.03 397.36 185.06 397.39 185.11 397.41 185.14 397.44 185.19 397.46 185.23 397.47 185.24 397.49 185.27 397.51 185.3 397.54 185.33 397.57 185.37 397.6 185.41 397.63 185.46 397.64 185.51 397.65 185.54 397.67 185.56 397.7 185.58 397.72 185.61 397.76 185.64 397.8 185.68 397.83 185.69 397.87 185.71 397.91 185.73 397.95 185.77 397.98 185.81 398.01 185.86 398.02 185.91 398.03 185.98 398.04 186.02 398.07 186.06 398.09 186.1 398.1 186.14 398.11 186.19 398.12 186.25 398.12 186.3 398.14 186.32 398.15 186.34 398.19 186.38 398.23 186.41 398.27 186.44 398.3 186.45 398.33 186.46 398.39 186.46 398.43 186.47 398.47 186.48 398.48 186.48 398.5 186.48 398.52 186.49 398.53 186.49 398.54 186.5 398.55 186.51 398.57 186.53 398.61 186.59 398.62 186.63 398.64 186.65 398.68 186.67 398.72 186.7 398.78 186.72 398.84 186.75 398.89 186.77 398.91 186.77 398.94 186.77 398.97 186.78 399.02 186.81 399.07 186.84 399.11 186.88 399.14 186.92 399.17 186.96 399.2 186.99 399.23 187.02 399.26 187.06 399.28 187.11 399.3 187.18 399.31 187.23 399.33 187.29 399.35 187.35 399.36 187.39 399.37 187.45 399.38 187.47 399.39 187.51 399.42 187.57 399.44 187.61 399.48 187.65 399.51 187.68 399.54 187.71 399.57 187.73 399.6 187.76 399.63 187.78 399.66 187.81 399.69 187.84 399.72 187.86 399.75 187.89 399.78 187.91 399.81 187.93 399.84 187.96 399.88 187.99 399.9 188 399.94 188.04 399.97 188.06 400.02 188.09 400.04 188.11 400.06 188.14 400.07 188.15 400.09 188.18 400.11 188.21 400.14 188.26 400.19 188.32 400.22 188.35 400.24 188.39 400.25 188.45 400.27 188.5 400.28 188.54 400.29 188.6 400.3 188.66 400.3 188.7 400.31 188.75 400.32 188.79 400.32 188.83 400.33 188.88 400.34 188.92 400.34 188.96 400.35 189 400.38 189.05 400.41 189.09 400.44 189.13 400.52 189.18 400.55 189.2 400.62 189.25 400.68 189.28 400.73 189.29 400.83 189.31 400.88 189.31 400.92 189.31 401.03 189.33 401.08 189.34 401.11 189.35 401.14 189.36 401.19 189.38 401.25 189.42 401.3 189.45 401.36 189.48 401.42 189.5 401.46 189.5 401.51 189.51 401.56 189.51 401.6 189.49 401.65 189.48 401.7 189.48 401.71 189.46 401.73 189.45 402 189.67 403.25 189.16 403.87 188.56 403.97 188.64 404.02 188.68 404.15 188.78 404.29 188.83 404.43 188.87 404.45 188.88 404.52 188.9 404.73 188.96 404.81 188.97 404.94 189 404.98 189.01 404.99 189.01 405.05 189.03 405.1 189.06 405.13 189.06 405.2 189.08 405.27 189.11 405.31 189.13 405.35 189.18 405.37 189.2 405.61 189.3 405.7 189.42 405.95 189.62 406.11 189.84 406.15 189.87 406.24 189.98 406.56 190.41 406.73 190.54 407 190.77 407.05 190.83 407.15 190.92 407.22 191 407.35 191.11 407.4 191.18 407.43 191.22 407.46 191.24 407.56 191.4 407.59 191.43 407.87 191.6 408.04 191.73 408.1 191.8 408.15 191.86 408.2 191.95 408.25 192.02 408.27 192.06 408.33 192.02 408.51 191.91 408.6 191.86 408.64 191.85 408.74 191.83 408.75 191.85 408.8 191.92 408.81 191.94 408.86 192.02 408.86 192.03 408.9 192.09 408.94 192.14 408.95 192.15 408.97 192.19 408.99 192.22 409.13 192.43 409.14 192.51 409.15 192.53 409.16 192.57 409.16 192.58 409.17 192.61 409.2 192.71 409.21 192.74 409.23 192.81 409.26 192.89 409.28 192.94 409.3 192.98 409.31 193.01 409.31 193.02 409.32 193.03 409.33 193.05 409.34 193.08 409.35 193.09 409.37 193.13 409.38 193.17 409.39 193.23 409.39 193.29 409.4 193.36 409.4 193.39 409.4 193.43 409.4 193.43 409.4 193.49 409.4 193.55 409.4 193.59 409.4 193.61 409.4 193.62 409.41 193.73 409.42 193.8 409.42 193.82 409.42 193.88 409.42 193.94 409.42 193.99 409.41 194.01 409.41 194.05 409.4 194.09 409.4 194.1 409.4 194.12 409.4 194.14 409.4 194.18 409.4 194.25 409.4 194.26 409.4 194.27 409.39 194.32 409.4 194.35 409.4 194.37 409.41 194.37 409.41 194.41 409.43 194.44 409.44 194.46 409.46 194.52 409.47 194.55 409.48 194.58 409.48 194.58 409.49 194.61 409.5 194.64 409.5 194.65 409.52 194.68 409.54 194.7 409.57 194.72 409.58 194.74 409.59 194.74 409.6 194.75 409.62 194.77 409.67 194.83 409.7 194.87 409.71 194.87 409.74 194.92 409.76 194.94 409.77 194.96 409.78 194.98 409.8 195.01 409.8 195.02 409.81 195.04 409.81 195.05 409.8 195.07 409.78 195.14 409.76 195.19 409.75 195.21 409.75 195.22 409.72 195.28 409.71 195.3 409.68 195.37 409.66 195.41 409.67 195.44 409.67 195.45 409.67 195.5 409.68 195.53 409.69 195.58 409.7 195.63 409.7 195.69 409.72 195.81 409.74 195.92 409.76 196.09 409.78 196.22 409.8 196.3 409.8 196.32 409.82 196.38 409.83 196.42 409.83 196.43 409.84 196.47 409.84 196.51 409.85 196.57 409.85 196.59 409.86 196.63 409.87 196.69 409.88 196.73 409.88 196.75 409.88 196.76 409.9 196.84 409.91 196.86 409.94 196.92 409.96 196.99 409.99 197.05 410 197.08 410 197.1 410.02 197.14 410.03 197.16 410.04 197.19 410.05 197.22 410.05 197.26 410.05 197.32 410.05 197.35 410.05 197.37 410.04 197.41 410.05 197.48 410.04 197.52 410.04 197.55 410.03 197.63 410.03 197.65 410.03 197.75 410.02 197.79 410.02 197.8 410.02 197.81 410.01 197.83 409.99 197.88 409.98 197.91 409.94 197.97 409.93 198 409.9 198.06 409.86 198.12 409.84 198.16 409.82 198.2 409.8 198.25 409.76 198.32 409.73 198.4 409.71 198.44 409.7 198.46 409.63 198.57 409.61 198.6 409.57 198.69 409.55 198.74 409.53 198.77 409.52 198.79 409.52 198.8 409.51 198.83 409.5 198.84 409.49 198.88 409.49 198.88 409.48 198.92 409.48 198.92 409.47 198.98 409.47 198.99 409.47 199.06 409.47 199.07 409.46 199.13 409.46 199.17 409.45 199.19 409.45 199.22 409.44 199.25 409.43 199.29 409.42 199.32 409.41 199.34 409.4 199.36 409.39 199.4 409.39 199.45 409.39 199.5 409.39 199.58 409.38 199.59 409.38 199.61 409.36 199.63 409.34 199.66 409.31 199.69 409.3 199.7 409.25 199.75 409.21 199.81 409.16 199.85 409.12 199.88 409.07 199.94 409.02 199.99 408.99 200.03 408.97 200.05 408.95 200.07 408.94 200.09 408.9 200.13 408.89 200.15 408.85 200.2 408.82 200.25 408.77 200.32 408.74 200.36 408.69 200.43 408.64 200.5 408.58 200.6 408.57 200.61 408.54 200.65 408.39 200.86 407.98 201.82 407.7 202.4 407.59 202.64 407.58 202.65 407.47 202.82 407.34 203.06 407.33 203.06 407.33 203.07 407.27 203.14 407.23 203.18 407.2 203.21 407.19 203.22 407.09 203.33 406.9 203.54 406.88 203.56 406.85 203.6 406.77 203.69 406.74 203.72 406.72 203.74 406.64 203.82 406.63 203.87 406.62 203.95 406.61 204 406.6 204.01 406.57 204.09 406.56 204.11 406.54 204.16 406.51 204.25 406.5 204.27 406.48 204.37 406.46 204.52 406.4 204.83 406.22 205.83 406.07 205.82 406.04 205.82 406.03 205.82 405.84 205.8 405.82 205.8 405.76 205.8 405.73 205.8 405.65 205.81 405.36 205.82 405.14 205.83 405.09 205.83 404.97 205.84 404.9 205.84 404.71 205.86 404.59 205.86 404.48 205.87 404.32 205.88 404.25 205.88 404.16 205.9 404.14 205.9 403.99 205.92 403.81 205.91 403.76 205.9 403.64 205.83 403.58 205.21 403.55 204.85 403.48 204.22 403.27 202.13 403.26 202.13 403.23 202.11 403.21 202.09 403.17 202.07 403.11 202.06 403.04 202.03 402.97 202 402.93 201.97 402.88 201.94 402.85 201.91 402.84 201.88 402.8 201.81 402.78 201.76 402.76 201.7 402.73 201.65 402.7 201.59 402.69 201.55 402.68 201.49 402.64 201.44 402.61 201.39 402.6 201.36 402.59 201.3 402.59 201.29 402.6 201.23 402.59 201.14 402.58 201.03 402.58 200.97 402.58 200.93 402.58 200.87 402.57 200.81 402.58 200.78 402.59 200.72 402.61 200.67 402.64 200.58 402.66 200.5 402.67 200.46 402.69 200.41 402.67 200.36 402.66 200.32 402.65 200.28 402.65 200.24 402.65 200.21 402.68 200.18 402.72 200.14 402.75 200.11 402.8 200.05 402.82 200 402.82 199.96 402.82 199.91 402.82 199.88 402.83 199.82 402.84 199.74 402.84 199.68 402.85 199.59 402.85 199.55 402.84 199.47 402.83 199.39 402.82 199.32 402.82 199.19 402.81 199.15 402.79 199.11 402.77 199.06 402.76 199.01 402.75 198.98 402.75 198.92 402.76 198.88 402.76 198.84 402.75 198.81 402.73 198.77 402.71 198.74 402.7 198.7 402.7 198.65 402.7 198.61 402.7 198.58 402.71 198.54 402.71 198.51 402.7 198.48 402.69 198.44 402.68 198.41 402.68 198.37 402.68 198.32 402.67 198.29 402.66 198.25 402.65 198.2 402.65 198.14 402.64 198.06 402.64 197.92 402.62 197.8 402.62 197.76 402.6 197.71 402.6 197.66 402.59 197.62 402.59 197.57 402.59 197.52 402.6 197.47 402.61 197.43 402.62 197.38 402.65 197.34 402.69 197.32 402.72 197.3 402.79 197.28 402.83 197.27 402.88 197.25 402.91 197.23 402.94 197.2 402.96 197.16 402.98 197.12 402.98 197.09 402.99 197.07 402.99 197.04 402.99 196.99 403.01 196.94 403.02 196.91 403.02 196.86 403.02 196.81 403.01 196.76 403 196.72 402.99 196.69 402.97 196.65 402.98 196.56 402.99 196.51 403 196.46 403.01 196.42 403.02 196.38 403.02 196.36 403.01 196.34 402.99 196.29 402.97 196.25 402.96 196.22 402.95 196.19 402.93 196.16 402.92 196.12 402.91 196.08 402.9 196.04 402.9 195.98 402.9 195.93 402.91 195.9 402.91 195.87 402.91 195.84 402.89 195.81 402.88 195.78 402.85 195.74 402.84 195.72 402.83 195.69 402.81 195.66 402.79 195.63 402.78 195.6 402.77 195.58 402.76 195.54 402.75 195.52 402.75 195.47 402.74 195.44 402.74 195.37 402.73 195.34 402.73 195.33 402.74 195.3 402.76 195.26 402.79 195.22 402.81 195.19 402.83 195.17 402.83 195.15 402.8 195.08 402.79 195.08 402.78 195.05 402.77 195.03 402.74 195.01 402.72 194.99 402.72 194.98 402.7 194.94 402.68 194.91 402.67 194.88 402.66 194.85 402.65 194.83 402.62 194.82 402.57 194.79 402.54 194.78 402.5 194.77 402.47 194.78 402.46 194.78 402.43 194.79 402.41 194.8 402.39 194.8 402.36 194.81 402.33 194.81 402.29 194.81 402.26 194.81 402.23 194.8 402.2 194.78 402.16 194.76 402.12 194.75 402.07 194.74 402.04 194.73 402.01 194.71 401.98 194.7 401.97 194.69 401.95 194.68 401.91 194.67 401.89 194.66 401.86 194.65 401.83 194.64 401.8 194.63 401.76 194.62 401.72 194.62 401.68 194.61 401.64 194.6 401.61 194.59 401.58 194.58 401.56 194.57 401.53 194.56 401.51 194.55 401.47 194.54 401.46 194.53 401.43 194.53 401.4 194.51 401.38 194.51 401.34 194.5 401.31 194.49 401.29 194.49 401.26 194.49 401.23 194.49 401.19 194.49 401.16 194.49 401.15 194.49 401.13 194.48 401.11 194.48 401.1 194.48 401.07 194.47 401.04 194.47 401 194.46 400.96 194.46 400.92 194.46 400.89 194.45 400.86 194.45 400.81 194.45 400.78 194.44 400.74 194.43 400.71 194.43 400.66 194.43 400.62 194.43 400.58 194.42 400.57 194.42 400.55 194.42 400.49 194.42 400.45 194.43 400.42 194.43 400.38 194.43 400.34 194.43 400.31 194.44 400.28 194.44 400.25 194.45 400.24 194.45 400.22 194.47 400.2 194.48 400.19 194.48 400.17 194.48 400.15 194.48 400.13 194.49 400.1 194.49 400.09 194.5 400.08 194.5 400.05 194.51 400.02 194.51 399.99 194.52 399.96 194.52 399.92 194.53 399.9 194.53 399.88 194.53 399.84 194.53 399.79 194.53 399.73 194.53 399.7 194.53 399.66 194.53 399.62 194.52 399.6 194.52 399.57 194.52 399.53 194.51 399.49 194.5 399.45 194.5 399.42 194.49 399.38 194.48 399.34 194.47 399.32 194.46 399.29 194.45 399.26 194.45 399.24 194.45 399.21 194.44 399.16 194.43 399.14 194.43 399.12 194.42 399.1 194.41 399.08 194.4 399.04 194.39 399 194.38 398.97 194.36 398.94 194.36 398.9 194.35 398.87 194.34 398.85 194.34 398.83 194.33 398.8 194.32 398.76 194.3 398.73 194.29 398.68 194.27 398.63 194.25 398.59 194.23 398.56 194.22 398.51 194.2 398.48 194.19 398.45 194.18 398.44 194.18 398.42 194.18 398.4 194.18 398.37 194.19 398.34 194.19 398.32 194.2 398.3 194.2 398.27 194.2 398.26 194.2 398.24 194.19 398.22 194.18 398.2 194.17 398.17 194.16 398.15 194.17 398.14 194.17 398.12 194.17 398.09 194.17 398.07 194.18 398.02 194.18 397.98 194.19 397.95 194.19 397.91 194.19 397.87 194.19 397.85 194.19 397.81 194.18 397.76 194.18 397.74 194.18 397.72 194.18 397.69 194.17 397.67 194.17 397.65 194.16 397.62 194.16 397.58 194.17 397.56 194.17 397.53 194.19 397.51 194.21 397.49 194.23 397.48 194.24 397.46 194.26 397.44 194.27 397.43 194.27 397.41 194.28 397.39 194.27 397.37 194.27 397.36 194.26 397.35 194.26 397.34 194.25 397.33 194.25 397.32 194.24 397.31 194.24 397.3 194.23 397.28 194.23 397.27 194.22 397.26 194.22 397.25 194.22 397.2 194.21 397.16 194.2 397.12 194.19 397.08 194.18 397.04 194.17 397 194.16 396.95 194.14 396.9 194.13 396.86 194.12 396.83 194.11 396.8 194.1 396.74 194.09 396.67 194.08 396.62 194.08 396.58 194.07 396.54 194.07 396.48 194.07 396.4 194.06 396.35 194.05 396.31 194.05 396.26 194.05 396.22 194.05 396.19 194.05 396.14 194.05 396.12 194.06 396.1 194.06 396.06 194.07 396.03 194.08 396 194.09 395.98 194.09 395.97 194.1 395.96 194.1 395.95 194.1 395.93 194.1 395.92 194.09 395.89 194.09 395.86 194.08 395.82 194.07 395.79 194.06 395.76 194.06 395.74 194.06 395.7 194.05 395.66 194.05 395.62 194.06 395.6 194.06 395.57 194.06 395.53 194.07 395.5 194.07 395.47 194.08 395.44 194.08 395.42 194.09 395.38 194.09 395.35 194.1 395.32 194.1 395.29 194.1 395.24 194.1 395.21 194.1 395.19 194.1 395.15 194.1 395.12 194.09 395.08 194.08 395.05 194.07 395.03 194.06 395.01 194.05 395 194.04 394.98 194.03 394.97 194.01 394.95 194 394.94 193.97 394.91 193.94 394.9 193.93 394.9 193.92 394.88 193.89 394.88 193.88 394.86 193.87 394.83 193.84 394.81 193.83 394.78 193.82 394.76 193.81 394.73 193.8 394.72 193.8 394.7 193.79 394.68 193.78 394.66 193.77 394.63 193.77 394.61 193.76 394.6 193.76 394.58 193.76 394.55 193.75 394.54 193.75 394.53 193.75 394.51 193.74 394.5 193.74 394.49 193.73 394.48 193.72 394.47 193.72 394.46 193.71 394.45 193.71 394.44 193.7 394.43 193.7 394.42 193.7 394.38 193.7 394.37 193.7 394.36 193.7 394.35 193.7 394.34 193.71 394.32 193.71 394.31 193.71 394.3 193.7 394.28 193.7 394.27 193.7 394.25 193.7 394.24 193.69 394.23 193.69 394.22 193.68 394.21 193.68 394.2 193.67 394.19 193.67 394.19 193.66 394.17 193.63 394.16 193.61 394.14 193.59 394.13 193.58 394.11 193.56 394.1 193.55 394.08 193.54 394.05 193.53 394.01 193.5 393.98 193.49 393.97 193.48 393.95 193.48 393.92 193.47 393.9 193.47 393.88 193.46 393.85 193.46 393.83 193.45 393.81 193.44 393.79 193.43 393.77 193.41 393.75 193.39 393.72 193.37 393.7 193.34 393.68 193.32 393.66 193.3 393.68 193.28 393.68 193.28 393.69 193.27 393.7 193.26 393.72 193.25 393.72 193.24 393.75 193.21 393.77 193.19 393.8 193.16 393.82 193.12 393.85 193.08 393.86 193.07 393.87 193.06 393.9 193.03 393.93 192.99 393.95 192.97 393.96 192.94 393.96 192.91 393.97 192.86 393.98 192.82 394.01 192.77 394.04 192.74 394.06 192.71 394.07 192.68 394.07 192.66 394.08 192.63 394.11 192.58 394.15 192.54 394.18 192.5 394.2 192.47 394.22 192.44 394.24 192.4 394.25 192.36 394.27 192.29 394.28 192.25 394.3 192.19 394.31 192.14 394.33 192.11 394.38 192.02 394.41 191.98 394.44 191.92 394.45 191.89 394.48 191.86 394.52 191.83 394.57 191.78 394.6 191.74 394.6 191.7 394.6 191.66 394.59 191.64 394.59 191.59 394.6 191.55 394.6 191.52 394.61 191.48 394.61 191.44 394.59 191.4 394.57 191.36 394.55 191.32 394.52 191.27 394.52 191.21 394.52 191.17 394.53 191.12 394.55 191.09 394.58 191.03 394.61 191.01 394.63 191 394.67 190.98 394.71 190.95 394.76 190.91 394.8 190.88 394.83 190.85 394.85 190.8 394.86 190.75 394.87 190.69 394.86 190.65 394.86 190.6 394.89 190.52 394.92 190.44 394.96 190.39 394.99 190.31 395.03 190.23 395.07 190.14 395.11 190.07 395.16 190.01 395.22 189.96 395.25 189.93 395.29 189.83 395.34 189.77 395.37 189.7 395.41 189.63 395.43 189.53 395.45 189.47 395.46 189.4 395.48 189.33 395.51 189.29 395.53 189.25 395.56 189.22 395.59 189.18 395.62 189.14 395.65 189.1 395.67 189.05 395.67 189.02 395.68 189 395.7 189.01 395.83 187.61 Z M 405.98 155.58 406.04 156.87 405.3 157.13 404.78 157.31 404.26 157.49 403.76 157.66 401.96 158.3 401.34 158.51 400.2 158.88 400.12 158.97 399.59 159.63 398.43 161.23 397.04 162.87 396.93 163.05 396.5 163.97 396.25 164.19 396.11 163.94 395.9 163.59 395.55 164.23 395.02 165.19 394.84 165.49 394.57 166.01 394.59 166.01 394.6 166.02 394.66 166.1 394.7 166.16 394.76 166.28 394.84 166.43 394.91 166.57 394.96 166.65 394.99 166.68 395.04 166.72 395.08 166.74 395.12 166.75 395.22 166.77 395.25 166.77 395.29 166.77 395.35 166.78 395.38 166.78 395.46 166.88 395.63 166.99 395.66 167.12 395.71 167.21 395.77 167.33 395.78 167.37 395.63 167.55 395.54 167.64 395.51 167.76 395.49 167.88 395.46 167.97 395.45 168 395.44 168.04 395.43 168.06 395.42 168.07 395.41 168.1 395.4 168.11 395.39 168.13 395.39 168.14 395.38 168.18 395.37 168.21 395.37 168.24 395.36 168.28 395.36 168.29 395.36 168.33 395.37 168.34 395.37 168.36 395.38 168.38 395.38 168.4 395.39 168.43 395.4 168.44 395.4 168.46 395.4 168.47 395.4 168.48 395.4 168.49 395.4 168.5 395.38 168.51 395.38 168.53 395.37 168.54 395.38 168.57 395.37 168.59 395.38 168.6 395.39 168.62 395.4 168.64 395.4 168.66 395.4 168.67 395.4 168.69 395.4 168.7 395.41 168.73 395.41 168.75 395.42 168.79 395.42 168.8 395.44 168.86 395.45 168.91 395.46 168.94 395.47 168.96 395.48 168.97 395.48 168.99 395.48 169.01 395.48 169.03 395.48 169.06 395.48 169.08 395.48 169.11 395.48 169.14 395.48 169.16 395.48 169.19 395.49 169.22 395.5 169.25 395.5 169.27 395.5 169.29 395.5 169.33 395.5 169.35 395.5 169.37 395.49 169.4 395.49 169.42 395.5 169.45 395.5 169.48 395.51 169.51 395.51 169.55 395.51 169.57 395.52 169.59 395.53 169.62 395.54 169.65 395.54 169.66 395.55 169.68 395.57 169.7 395.58 169.71 395.6 169.73 395.62 169.75 395.63 169.77 395.64 169.78 395.66 169.82 395.68 169.85 395.69 169.89 395.7 169.91 395.72 169.95 395.74 169.99 395.76 170.04 395.77 170.08 395.79 170.12 395.81 170.16 395.82 170.19 395.83 170.22 395.85 170.25 395.86 170.26 395.9 170.3 395.93 170.33 395.96 170.36 395.98 170.38 396.03 170.42 396.05 170.43 396.11 170.45 396.16 170.47 396.2 170.47 396.19 170.49 396.18 170.51 396.32 170.79 396.12 170.98 395.81 171.29 395.67 171.42 395.49 171.99 395.33 172.05 394.94 171.78 393.89 171.91 392.91 172.13 392.93 172.15 392.95 172.15 392.98 172.17 393.06 172.21 393.13 172.24 393.23 172.28 393.23 172.28 393.32 172.32 393.42 172.37 393.47 172.39 393.54 172.41 393.6 172.43 393.67 172.45 393.72 172.48 393.77 172.52 393.83 172.56 393.87 172.61 393.91 172.66 393.93 172.7 393.94 172.72 393.94 172.76 393.93 172.81 393.93 172.86 393.91 172.91 393.9 172.93 393.86 173.03 393.81 173.14 393.76 173.24 393.71 173.34 393.63 173.43 393.57 173.53 393.55 173.57 393.54 173.59 393.53 173.64 393.51 173.7 393.5 173.74 393.5 173.78 393.52 173.82 393.55 173.87 393.58 173.89 393.6 173.9 393.63 173.9 393.67 173.88 393.69 173.87 393.73 174.06 392.65 174.22 392.62 174.03 392.46 173.92 392.38 173.96 391.75 174.54 391.3 174.35 390.35 173.98 390.34 173.95 390.31 173.96 390.27 173.97 390.22 173.98 390.16 174.02 390.09 174.03 390.04 174.02 389.97 174 389.91 173.99 389.86 173.99 389.83 174.01 389.74 174.05 389.7 174.07 389.66 174.1 389.59 174.14 389.45 174.21 389.45 174.23 389.47 174.27 389.48 174.33 389.48 174.38 389.48 174.42 388.78 174.36 388.68 174.33 388.55 174.28 388.17 174.16 387.5 173.95 387.16 173.92 386.79 174.03 386.34 173.86 385.82 173.67 385.54 173.55 385.11 173.27 384.39 172.71 383.94 172.61 383.07 172.88 382.34 173.03 381.89 173.27 381.33 173.2 380.84 173.31 379.17 173.27 379.4 174.66 379.71 176.44 380.2 176.67 380.18 176.68 380.19 176.71 380.2 176.73 380.23 176.77 380.25 176.83 380.26 176.88 380.28 176.93 380.28 176.97 380.32 177.02 380.36 177.06 380.38 177.11 380.39 177.16 380.42 177.2 380.45 177.26 380.49 177.34 380.54 177.39 380.56 177.47 380.58 177.55 380.6 177.63 380.61 177.69 380.64 177.78 380.67 177.86 380.71 177.96 380.73 177.99 380.75 178.05 380.78 178.1 380.85 178.15 380.95 178.22 381.01 178.28 381.06 178.33 381.07 178.36 381.09 178.39 381.12 178.41 381.16 178.45 381.19 178.49 381.22 178.55 381.25 178.62 381.26 178.68 381.26 178.74 381.3 178.85 381.32 178.94 381.33 179.05 381.36 179.16 381.36 179.24 381.4 179.34 381.41 179.36 381.43 179.43 381.47 179.52 381.51 179.61 381.55 179.7 381.58 179.73 381.63 179.78 381.7 179.82 381.78 179.86 381.86 179.89 381.93 179.92 381.97 179.94 381.99 179.94 382.03 179.94 382.09 179.94 382.17 179.95 382.23 179.96 382.28 179.99 382.31 180.01 382.32 180.02 382.33 180.04 382.33 180.07 382.36 180.1 382.39 180.14 382.41 180.19 382.43 180.24 382.47 180.33 382.47 180.35 382.48 180.37 382.49 180.4 382.51 180.41 382.54 180.42 382.56 180.42 382.57 180.42 382.61 180.45 382.66 180.5 382.78 180.64 382.74 180.68 382.67 180.75 382.58 180.83 382.45 180.92 382.41 180.94 382.36 180.97 382.32 180.99 382.26 181.04 382.21 181.07 382.12 181.12 382.05 181.16 381.96 181.2 381.86 181.23 381.74 181.27 381.62 181.3 381.54 181.33 381.48 181.33 381.41 181.32 381.31 181.29 381.25 181.26 381.19 181.21 381.14 181.16 381.07 181.05 381.03 180.95 381.01 180.91 381 180.9 380.97 180.86 380.94 180.83 380.88 180.77 380.77 180.71 380.71 180.68 380.6 180.65 380.46 180.62 380.37 180.61 380.24 180.6 380.14 180.59 380.06 180.58 379.96 180.56 379.84 180.56 379.79 180.55 379.77 180.55 379.69 180.54 379.63 180.54 379.56 180.53 379.52 180.53 379.46 180.53 379.38 180.54 379.25 180.56 379.13 180.58 379.04 180.62 378.94 180.67 378.88 180.73 378.86 180.74 378.8 180.81 378.72 180.93 378.71 180.94 378.7 180.94 378.68 180.95 378.66 180.96 378.63 180.97 378.59 180.97 378.57 180.98 378.55 180.99 378.52 181.01 378.51 181.02 378.48 181.03 378.46 181.05 378.44 181.06 378.41 181.08 378.38 181.1 378.35 181.12 378.32 181.13 378.3 181.14 378.27 181.14 378.25 181.14 378.23 181.14 378.21 181.14 378.2 181.13 378.19 181.13 378.16 181.12 378.11 181.11 378.1 181.11 378.08 181.11 378.06 181.12 378.03 181.15 377.99 181.19 377.96 181.22 377.94 181.24 377.92 181.25 377.89 181.26 377.87 181.26 377.85 181.27 377.83 181.27 377.79 181.27 377.76 181.26 377.72 181.27 377.69 181.26 377.67 181.26 377.66 181.26 377.65 181.25 377.6 181.25 377.58 181.26 377.54 181.27 377.49 181.27 377.48 181.27 377.47 181.26 377.45 181.25 377.44 181.24 377.43 181.22 377.41 181.2 377.39 181.19 377.38 181.19 377.36 181.2 377.34 181.21 377.32 181.22 377.3 181.24 377.28 181.27 377.24 181.31 377.2 181.34 377.17 181.36 377.13 181.36 377.09 181.36 377.07 181.36 377.03 181.35 377.01 181.34 376.98 181.33 376.95 181.32 376.94 181.31 376.93 181.31 376.91 181.31 376.9 181.3 376.88 181.29 376.86 181.28 376.84 181.27 376.83 181.25 376.82 181.24 376.8 181.23 376.78 181.21 376.76 181.2 376.74 181.18 376.73 181.16 376.71 181.15 376.69 181.13 376.68 181.1 376.66 181.07 376.65 181.04 376.64 181.01 376.63 180.99 376.62 180.97 376.61 180.96 376.6 180.94 376.58 180.93 376.56 180.91 376.55 180.9 376.53 180.88 376.51 180.83 376.48 180.79 376.47 180.77 376.47 180.76 376.46 180.74 376.44 180.72 376.42 180.7 376.4 180.67 376.37 180.65 376.35 180.63 376.32 180.61 376.3 180.59 376.29 180.58 376.27 180.56 376.26 180.55 376.24 180.52 376.23 180.51 376.2 180.48 376.18 180.46 376.16 180.44 376.14 180.42 376.12 180.4 376.11 180.39 376.09 180.38 376.07 180.36 376.04 180.35 375.99 180.33 375.95 180.33 375.9 180.33 375.86 180.33 375.83 180.34 375.81 180.34 375.79 180.35 375.76 180.35 375.72 180.35 375.7 180.35 375.68 180.35 375.63 180.35 375.6 180.35 375.57 180.34 375.55 180.34 375.51 180.33 375.48 180.33 375.46 180.32 375.42 180.33 375.4 180.32 375.37 180.3 375.35 180.28 375.34 180.26 375.32 180.24 375.31 180.22 375.29 180.21 375.26 180.2 375.23 180.2 375.22 180.19 375.2 180.19 375.18 180.18 375.16 180.18 375.15 180.17 375.12 180.16 375.1 180.16 375.07 180.16 375.04 180.17 375.03 180.18 375.01 180.19 375 180.2 374.99 180.21 374.97 180.21 374.94 180.22 374.92 180.21 374.89 180.21 374.87 180.21 374.84 180.21 374.82 180.2 374.8 180.19 374.79 180.18 374.77 180.16 374.77 180.16 374.73 180.13 374.71 180.11 374.67 180.06 374.64 180.03 374.63 180.01 374.63 179.99 374.6 179.99 374.57 179.99 374.54 180 374.52 180 374.5 179.99 374.48 179.99 374.47 179.97 374.46 179.95 374.46 179.93 374.45 179.9 374.44 179.87 374.42 179.84 374.41 179.81 374.39 179.79 374.36 179.76 374.33 179.75 374.3 179.74 374.25 179.73 374.22 179.72 374.18 179.71 374.13 179.68 374.11 179.68 374.1 179.67 374.05 179.66 374.02 179.66 373.98 179.65 373.94 179.64 373.9 179.64 373.87 179.64 373.84 179.63 373.82 179.62 373.8 179.62 373.78 179.62 373.76 179.62 373.73 179.62 373.7 179.63 373.67 179.64 373.63 179.64 373.59 179.64 373.57 179.64 373.55 179.64 373.5 179.64 373.48 179.64 373.46 179.64 373.44 179.64 373.41 179.65 373.39 179.64 373.36 179.64 373.32 179.65 373.3 179.65 373.28 179.65 373.25 179.66 373.23 179.66 373.21 179.66 373.2 179.66 373.19 179.66 373.17 179.64 373.16 179.63 373.15 179.63 373.13 179.63 373.11 179.63 373.08 179.64 373.03 179.65 373.01 179.65 372.98 179.66 372.94 179.66 372.92 179.66 372.89 179.66 372.85 179.66 372.81 179.65 372.77 179.65 372.74 179.65 372.7 179.64 372.66 179.63 372.63 179.63 372.6 179.63 372.57 179.63 372.55 179.63 372.52 179.63 372.48 179.62 372.43 179.62 372.37 179.61 372.34 179.6 372.3 179.59 372.27 179.58 372.24 179.58 372.2 179.56 372.18 179.56 372.14 179.55 372.12 179.54 372.08 179.52 372.05 179.51 372.03 179.51 372 179.5 371.98 179.5 371.95 179.49 371.88 179.49 371.86 179.47 371.83 179.45 371.81 179.44 371.79 179.43 371.78 179.43 371.76 179.42 371.72 179.41 371.68 179.4 371.66 179.39 371.63 179.38 371.6 179.37 371.58 179.37 371.55 179.36 371.52 179.36 371.49 179.36 371.46 179.36 371.45 179.36 371.4 179.35 371.37 179.34 371.32 179.33 371.28 179.32 371.25 179.31 371.22 179.31 371.2 179.3 371.17 179.3 371.14 179.29 371.12 179.28 371.11 179.27 371.1 179.26 371.09 179.25 371.07 179.25 371.04 179.24 371.01 179.23 370.97 179.23 370.93 179.22 370.91 179.21 370.89 179.2 370.87 179.19 370.85 179.19 370.83 179.18 370.78 179.16 370.73 179.13 370.68 179.1 370.62 179.07 370.59 179.05 370.53 179.02 370.49 179 370.46 178.98 370.45 178.95 370.43 178.91 370.41 178.87 370.4 178.84 370.38 178.79 370.37 178.77 370.36 178.73 370.34 178.68 370.33 178.65 370.32 178.64 370.31 178.61 370.31 178.6 370.27 178.53 370.25 178.49 370.23 178.43 370.22 178.39 370.21 178.37 370.2 178.32 370.2 178.28 370.18 178.24 370.18 178.23 370.18 178.2 370.18 178.18 370.18 178.16 370.19 178.12 370.19 178.11 370.21 178 370.21 177.92 370.21 177.82 370.23 177.78 370.24 177.74 370.24 177.73 370.24 177.7 370.24 177.69 370.22 177.67 370.2 177.66 370.15 177.64 370.11 177.61 370.08 177.6 370.06 177.58 370.04 177.57 370.01 177.52 369.98 177.48 369.94 177.43 369.91 177.41 369.87 177.36 369.83 177.33 369.79 177.31 369.76 177.29 369.72 177.28 369.68 177.27 369.65 177.25 369.6 177.24 369.57 177.22 369.54 177.2 369.52 177.18 369.47 177.15 369.42 177.1 369.38 177.07 369.33 177.03 369.26 176.98 369.22 176.95 369.18 176.91 369.16 176.88 369.14 176.84 369.14 176.83 369.12 176.79 369.1 176.76 369.09 176.73 369.07 176.66 369.04 176.6 369.02 176.53 369.01 176.48 369 176.41 368.98 176.35 368.97 176.28 368.96 176.22 368.96 176.17 368.96 176.11 368.97 176.06 368.98 176.03 368.99 176 369 175.94 369.02 175.91 369.05 175.84 369.05 175.82 369.06 175.81 369.08 175.77 369.08 175.74 369.1 175.7 369.11 175.67 369.12 175.64 369.13 175.57 369.8 174.71 370.15 175.01 370.59 174.79 371.12 174.5 371.65 174.21 372.23 173.89 372.71 173.63 373.34 173.28 373.89 172.91 374.56 172.49 375.84 172.43 376.83 172.48 377.6 172.53 378.87 172.6 378.99 172.01 379.01 172.01 379 171.98 379 171.95 379 171.92 378.99 171.9 378.98 171.89 378.98 171.86 378.97 171.83 378.97 171.8 378.96 171.77 378.96 171.73 378.96 171.7 378.96 171.66 378.96 171.62 378.96 171.58 378.95 171.54 378.95 171.5 378.93 171.45 378.92 171.41 378.9 171.37 378.89 171.34 378.9 171.34 378.91 171.33 378.95 171.3 378.97 171.28 379 171.27 379.03 171.25 379.06 171.22 379.08 171.21 379.1 171.19 379.14 171.17 379.17 171.15 379.2 171.13 379.23 171.09 379.24 171.07 379.25 171.06 379.26 171.05 379.29 171.02 379.31 171 379.33 170.97 379.35 170.95 379.36 170.93 379.37 170.91 379.39 170.89 379.4 170.87 379.42 170.84 379.44 170.82 379.46 170.8 379.48 170.78 379.49 170.76 379.51 170.73 379.53 170.71 379.55 170.69 379.57 170.67 379.59 170.65 379.61 170.62 379.63 170.59 379.64 170.58 379.65 170.56 379.67 170.54 379.7 170.52 379.73 170.5 379.75 170.49 379.76 170.47 379.78 170.44 379.81 170.41 379.82 170.4 379.83 170.37 379.84 170.34 379.86 170.3 379.87 170.28 379.89 170.24 379.91 170.21 379.94 170.19 379.96 170.17 380 170.16 380.02 170.15 380.05 170.11 380.06 170.1 380.08 170.08 380.1 170.05 380.13 170.01 380.15 169.99 380.17 169.96 380.19 169.93 380.2 169.91 380.23 169.89 380.23 169.89 380.26 169.86 380.27 169.85 380.29 169.83 380.31 169.8 380.34 169.76 380.36 169.74 380.39 169.7 380.43 169.66 380.46 169.64 380.47 169.63 380.5 169.62 380.54 169.62 380.56 169.61 380.57 169.61 380.6 169.61 380.63 169.61 380.69 169.59 380.75 169.57 380.8 169.56 380.85 169.55 380.91 169.54 380.92 169.53 380.93 169.53 380.94 169.53 380.94 169.53 380.95 169.52 380.99 169.5 381.03 169.46 381.04 169.44 381.05 169.43 381.05 169.42 381.07 169.39 381.08 169.37 381.09 169.35 381.11 169.31 381.13 169.29 381.15 169.29 381.18 169.3 381.21 169.3 381.25 169.3 381.3 169.3 381.34 169.29 381.39 169.29 381.41 169.29 381.45 169.29 381.48 169.31 381.51 169.33 381.53 169.34 381.56 169.36 381.58 169.36 381.61 169.37 381.65 169.38 381.69 169.38 381.73 169.37 381.76 169.37 381.78 169.37 381.8 169.38 381.81 169.38 381.86 169.38 381.92 169.4 381.92 169.4 381.95 169.41 381.98 169.42 382.01 169.42 382.05 169.43 382.12 169.44 382.21 169.44 382.27 169.43 382.31 169.44 382.32 169.44 382.34 169.44 382.35 169.44 382.38 169.45 382.41 169.45 382.47 169.46 382.53 169.46 382.53 169.46 382.57 169.46 382.62 169.47 382.65 169.47 382.66 169.48 382.69 169.48 382.72 169.49 382.74 169.49 382.73 169.48 382.73 169.45 382.73 169.43 382.73 169.4 382.73 169.39 382.73 169.36 382.73 169.34 382.73 169.32 382.74 169.28 382.75 169.25 382.75 169.23 382.76 169.21 382.77 169.18 382.78 169.17 382.78 169.15 382.79 169.13 382.79 169.12 382.78 169.1 382.78 169.09 382.77 169.06 382.76 169.03 382.75 169.01 382.74 168.99 382.74 168.97 382.73 168.93 382.73 168.91 382.72 168.88 382.72 168.86 382.71 168.83 382.7 168.81 382.7 168.79 382.7 168.77 382.69 168.74 382.69 168.73 382.68 168.71 382.68 168.69 382.66 168.67 382.65 168.65 382.64 168.63 382.63 168.6 382.61 168.59 382.59 168.57 382.58 168.56 382.57 168.54 382.55 168.52 382.54 168.5 382.53 168.49 382.51 168.46 382.5 168.45 382.48 168.43 382.47 168.41 382.46 168.39 382.45 168.37 382.44 168.34 382.44 168.32 382.44 168.28 382.43 168.25 382.43 168.22 382.43 168.2 382.43 168.17 382.42 168.16 382.42 168.12 382.42 168.1 382.42 168.08 382.42 168.04 382.42 168.02 382.42 168 382.41 167.98 382.41 167.95 382.41 167.94 382.4 167.9 382.4 167.85 382.4 167.83 382.39 167.81 382.38 167.79 382.38 167.77 382.37 167.75 382.36 167.72 382.36 167.7 382.36 167.68 382.36 167.66 382.36 167.63 382.36 167.61 382.36 167.59 382.36 167.58 382.36 167.56 382.35 167.55 382.34 167.53 382.32 167.51 382.3 167.5 382.28 167.48 382.27 167.46 382.25 167.44 382.25 167.43 382.24 167.41 382.23 167.38 382.22 167.34 382.2 167.29 382.2 167.26 382.19 167.22 382.19 167.19 382.19 167.17 382.19 167.15 382.18 167.13 382.18 167.11 382.17 167.06 382.17 167.02 382.17 166.99 382.17 166.96 382.17 166.93 382.18 166.89 382.18 166.87 382.18 166.85 382.19 166.83 382.21 166.79 382.22 166.77 382.22 166.74 382.23 166.72 382.23 166.7 382.23 166.69 382.23 166.65 382.23 166.61 382.22 166.58 382.21 166.55 382.19 166.53 382.18 166.52 382.16 166.49 382.14 166.46 382.13 166.43 382.12 166.41 382.11 166.4 382.11 166.38 382.1 166.35 382.09 166.33 382.08 166.3 382.08 166.28 382.07 166.26 382.08 166.25 382.08 166.23 382.08 166.22 382.08 166.21 382.07 166.19 382.06 166.18 382.05 166.16 382.05 166.15 382.04 166.14 382.03 166.12 382.02 166.1 382.01 166.09 382.01 166.07 382.01 166.06 382.01 166.04 382.01 166.01 382.02 166 382.02 165.99 382.02 165.96 382.03 165.94 382.03 165.92 382.03 165.91 382.03 165.88 382.04 165.86 382.04 165.85 382.04 165.83 382.04 165.81 382.05 165.79 382.05 165.77 382.05 165.75 382.05 165.72 382.06 165.71 382.06 165.69 382.08 165.68 382.1 165.67 382.11 165.66 382.14 165.64 382.16 165.62 382.18 165.6 382.2 165.59 382.23 165.57 382.24 165.56 382.26 165.54 382.27 165.53 382.28 165.51 382.28 165.49 382.29 165.47 382.29 165.45 382.3 165.43 382.31 165.41 382.31 165.39 382.32 165.37 382.33 165.35 382.34 165.32 382.35 165.31 382.37 165.28 382.38 165.26 382.4 165.24 382.41 165.22 382.42 165.2 382.44 165.18 382.45 165.15 382.46 165.14 382.48 165.11 382.49 165.09 382.5 165.06 382.51 165.03 382.52 165.01 382.53 164.99 382.54 164.96 382.55 164.92 382.56 164.9 382.58 164.86 382.58 164.85 382.6 164.82 382.65 164.63 383.28 164.12 382.6 163.59 381.85 163.04 381.1 162.21 380.25 161.24 379.84 160.82 379.84 160.79 379.83 160.73 379.82 160.67 379.81 160.62 379.82 160.55 379.82 160.51 379.82 160.44 379.81 160.39 379.8 160.34 379.79 160.3 379.79 160.27 379.8 160.22 379.8 160.18 379.81 160.14 379.81 160.13 379.81 160.08 379.8 160.06 379.79 160.04 379.77 160.02 379.74 159.98 379.71 159.94 379.69 159.89 379.64 159.83 379.61 159.78 379.6 159.74 379.59 159.71 379.58 159.68 379.57 159.63 379.57 159.59 379.57 159.56 379.59 159.51 379.59 159.49 379.6 159.45 379.6 159.41 379.59 159.36 379.6 159.3 379.59 159.23 379.59 159.16 379.58 159.09 379.57 159.01 379.55 158.97 379.33 157.91 379.2 157.29 380.37 157.43 380.21 158.5 380.21 159.03 380.6 159.25 381.16 159.52 382.36 159.68 382.4 159.69 382.44 159.7 382.47 159.7 382.5 159.71 382.53 159.71 382.55 159.72 382.57 159.72 382.59 159.73 382.61 159.74 382.65 159.75 382.67 159.75 382.69 159.76 382.71 159.76 382.74 159.77 382.75 159.77 382.78 159.78 382.8 159.78 382.84 159.78 382.86 159.78 382.9 159.78 382.93 159.78 382.97 159.78 383 159.78 383.03 159.78 383.07 159.78 383.1 159.78 383.12 159.78 383.15 159.78 383.19 159.79 383.22 159.8 383.25 159.8 383.27 159.81 383.3 159.82 383.35 159.82 383.39 159.84 383.41 159.84 383.45 159.84 383.49 159.85 383.51 159.85 383.53 159.86 383.55 159.86 383.58 159.88 383.61 159.89 383.63 159.89 383.65 159.9 383.68 159.91 383.7 159.92 383.72 159.92 383.75 159.93 383.76 159.94 383.79 159.95 383.83 159.96 383.84 159.96 383.88 159.96 383.91 159.97 383.93 159.97 383.96 159.98 383.99 159.99 384.03 160 384.05 160.01 384.06 160.01 384.1 160.02 384.12 160.03 384.15 160.04 384.2 160.05 384.22 160.06 384.29 160.08 384.32 160.09 384.36 160.1 384.4 160.11 384.42 160.12 384.45 160.12 384.48 160.13 384.52 160.15 384.54 160.15 384.57 160.16 384.58 160.17 384.6 160.17 384.62 160.18 384.64 160.19 384.66 160.2 384.68 160.21 384.7 160.22 384.72 160.23 384.73 160.23 384.74 160.24 384.79 160.27 384.84 160.31 384.88 160.33 384.9 160.34 384.96 160.37 384.98 160.37 385.02 160.39 385.08 160.39 385.11 160.39 385.14 160.39 385.15 160.39 385.18 160.39 385.23 160.37 385.29 160.35 385.31 160.34 385.34 160.33 385.36 160.33 385.41 160.32 385.44 160.31 385.46 160.31 385.49 160.29 385.52 160.28 385.55 160.26 385.57 160.25 385.61 160.24 385.64 160.24 385.66 160.24 385.69 160.24 385.72 160.24 385.75 160.25 385.79 160.26 385.81 160.26 385.84 160.25 385.88 160.25 385.89 160.25 385.91 160.25 385.95 160.26 385.99 160.27 386.02 160.28 386.09 160.31 386.13 160.31 386.15 160.31 386.16 160.31 386.18 160.31 386.2 160.3 386.24 160.3 386.26 160.29 386.28 160.28 386.31 160.28 386.35 160.27 386.39 160.27 386.42 160.28 386.5 160.29 386.57 160.3 386.62 160.31 386.66 160.32 386.68 160.33 386.7 160.35 386.73 160.37 386.75 160.4 386.77 160.41 386.79 160.42 386.84 160.42 386.9 160.42 386.93 160.42 386.94 160.41 386.95 160.41 386.97 160.41 387.01 160.41 387.02 160.41 387.04 160.4 387.06 160.39 387.09 160.37 387.12 160.36 387.13 160.36 387.15 160.35 387.2 160.35 387.21 160.34 387.25 160.34 387.29 160.33 387.33 160.32 387.36 160.31 387.37 160.3 387.39 160.28 387.4 160.27 387.44 160.24 387.47 160.23 387.49 160.22 387.53 160.21 387.55 160.21 387.6 160.2 387.64 160.19 387.68 160.18 387.69 160.18 387.71 160.19 387.73 160.2 387.75 160.21 387.79 160.25 387.84 160.28 387.89 160.31 387.94 160.34 387.99 160.37 388.01 160.39 388.04 160.42 388.08 160.46 388.12 160.51 388.14 160.53 388.17 160.55 388.21 160.55 388.26 160.55 388.29 160.58 388.31 160.59 388.33 160.61 388.35 160.63 388.36 160.66 388.38 160.7 388.41 160.73 388.43 160.74 388.45 160.76 388.47 160.77 388.51 160.77 388.54 160.78 388.58 160.8 388.61 160.81 388.65 160.83 388.67 160.84 388.69 160.85 388.73 160.87 388.78 160.88 388.81 160.89 388.84 160.9 388.85 160.91 388.87 160.96 388.9 161.01 388.94 161.06 388.97 161.1 389.03 161.14 389.07 161.19 389.11 161.22 389.14 161.23 389.16 161.24 389.18 161.24 389.2 161.24 389.22 161.24 389.25 161.23 389.27 161.22 389.28 161.21 389.3 161.2 389.32 161.19 389.34 161.17 389.37 161.15 389.38 161.15 389.4 161.14 389.42 161.14 389.47 161.13 389.5 161.13 389.53 161.14 389.56 161.15 389.62 161.17 389.66 161.17 389.7 161.17 389.73 161.16 389.74 161.15 389.76 161.13 390.55 160.47 391.23 160.47 391.97 160.17 392.77 160.25 393.47 160.32 394.14 159.59 394.24 159.58 394.24 159.55 394.24 159.5 394.37 159.54 394.4 159.44 394.43 159.35 394.47 159.27 394.49 159.22 394.59 159.03 394.66 158.92 394.72 158.8 394.79 158.69 394.85 158.56 394.91 158.42 394.97 158.27 395.02 158.18 395.1 158.06 395.18 157.89 395.2 157.83 395.23 157.75 395.29 157.66 395.31 157.63 395.34 157.55 395.39 157.41 395.42 157.35 395.45 157.29 395.46 157.28 395.49 157.23 395.55 157.14 395.61 157.04 395.64 156.99 395.67 156.93 395.7 156.88 395.71 156.87 395.75 156.8 396.12 156.91 396.99 156.18 398.06 156.09 398.61 156.48 399.01 156.31 399.39 156.16 399.69 156.07 400 156.02 400.35 155.97 400.76 155.98 401.07 156.1 402 155.64 403.34 155.9 404.07 156.13 404.65 155.95 405.16 155.81 405.63 155.67 405.92 155.59 405.98 155.58 Z"/>
</g></svg>