<svg xmlns="http://www.w3.org/2000/svg" version="1.2" baseProfile="tiny" stroke-linecap="round" stroke-linejoin="round" viewBox="111.37 97.83 16.77 18.55"><g xmlns="http://www.w3.org/2000/svg" id="Trapagaran">
<path d="M 121.19 97.85 121.37 98.05 121.48 98.14 121.61 98.28 121.66 98.49 121.68 98.64 121.75 98.74 121.76 98.87 121.78 98.95 121.92 99.15 122.01 99.21 122.2 99.42 122.92 100.02 123.2 100.18 123.35 100.26 123.42 100.26 123.46 100.25 123.46 100.25 123.63 100.22 123.79 100.19 123.82 100.19 123.88 100.18 124.13 100.17 124.21 100.16 124.51 100.14 124.59 100.14 124.61 100.15 124.65 100.2 124.73 100.31 124.76 100.34 124.81 100.37 124.92 100.36 124.98 100.36 125.08 100.35 125.13 100.35 125.19 100.35 125.26 100.36 125.32 100.37 125.36 100.38 125.42 100.4 125.49 100.43 125.54 100.46 125.58 100.5 125.63 100.55 125.67 100.6 125.71 100.65 125.74 100.68 125.76 100.7 125.79 100.71 125.8 100.71 125.86 100.72 125.87 100.74 126.22 101.18 128.08 103.67 128.1 103.68 128.12 103.71 127.98 103.73 127.95 103.74 127.94 103.74 127.9 103.75 127.84 103.76 127.81 103.79 127.77 103.83 127.75 103.88 127.73 103.94 127.67 104.15 127.65 104.2 127.64 104.21 127.6 104.23 127.54 104.25 127.48 104.27 127.43 104.29 127.39 104.31 127.34 104.34 127.29 104.37 127.25 104.41 127.32 104.7 127.34 104.75 127.34 104.8 127.34 104.85 127.31 104.91 127.29 104.95 127.28 104.97 127.26 105 127.25 105.02 127.21 105.07 127.16 105.11 127.11 105.14 127.05 105.15 126.93 105.16 126.88 105.17 126.83 105.18 126.78 105.2 126.73 105.22 126.68 105.25 126.63 105.28 126.49 105.35 126.39 105.44 125.9 105.91 125.75 106.03 125.55 106.22 125.39 106.37 125.24 106.5 124.99 106.73 124.62 107.06 124.49 107.16 124.33 107.33 124.2 107.46 124.11 107.54 124.03 107.61 123.99 107.65 123.78 107.75 123.64 107.85 123.41 108.05 123.16 108.24 123.1 108.28 123.06 108.31 123.02 108.34 122.97 108.38 122.94 108.43 122.9 108.47 122.86 108.52 122.71 108.74 122.61 108.89 122.55 108.97 122.52 109.01 122.48 109.05 122.39 109.1 122.35 109.13 122.3 109.17 122.26 109.21 122.19 109.27 121.99 109.57 121.65 109.83 121.34 110.09 121.13 110.3 120.96 110.47 120.69 110.75 120.49 110.95 120.32 111.13 120.06 111.41 119.87 111.63 119.73 111.9 119.57 112.21 119.45 112.45 119.36 112.63 119.19 112.91 119.07 113.08 118.95 113.28 118.83 113.47 118.69 113.73 118.57 113.93 118.52 114.01 118.46 114.1 118.11 114.73 117.67 115.45 117.13 116.36 115.38 116.07 115.17 115.94 114.19 115.13 113.12 114.39 112.81 114.13 112.71 114.02 112.23 113.5 111.54 112.81 111.45 112.72 111.54 112.61 111.38 112.4 111.54 112.2 112.57 109.96 113.08 108.86 113.08 108.84 112.65 108.47 112.44 108.36 112.43 108.34 112.36 108.27 112.2 108.12 112.18 108.09 112.13 107.93 111.71 105.9 111.64 105.73 112.17 104.39 113.6 104.13 114.85 104.15 114.99 103.87 115.75 102.22 115.93 101.84 116.24 101.16 116.43 101.01 116.65 101.14 116.69 100.95 117.38 100.55 117.82 100.31 117.87 100.22 117.97 100.16 118.01 100.13 118.19 100.01 118.32 99.9 118.55 99.84 118.9 99.77 119.09 99.77 119.14 99.79 119.14 99.78 119.58 99.25 121.19 97.85 Z"/>
</g></svg>