<svg xmlns="http://www.w3.org/2000/svg" version="1.2" baseProfile="tiny" stroke-linecap="round" stroke-linejoin="round" viewBox="506.37 608.97 10.88 8.82"><g xmlns="http://www.w3.org/2000/svg" id="Tulebras">
<path d="M 517.15 614.87 517.14 614.9 517.11 614.95 517.1 614.98 517.08 615.02 517.06 615.07 517.05 615.1 517.04 615.14 517 615.2 516.96 615.29 516.88 615.28 516.87 615.3 516.86 615.3 516.85 615.33 516.84 615.34 516.83 615.34 516.75 615.31 516.71 615.31 516.68 615.33 516.63 615.38 516.61 615.4 516.58 615.41 516.44 615.39 516.39 615.39 516.38 615.39 516.38 615.4 516.4 615.45 516.42 615.48 516.42 615.5 516.43 615.54 516.44 615.59 516.45 615.65 516.45 615.7 516.46 615.74 516.47 615.81 516.47 615.85 516.48 615.87 516.42 615.88 516.27 615.87 516.18 615.85 516.16 615.87 516.14 615.9 516.13 615.92 516.13 615.93 516.14 615.95 516.15 615.97 516.15 616 516.15 616.01 516.12 616.08 516.11 616.12 516.08 616.19 516.05 616.27 516.02 616.33 515.95 616.43 515.89 616.5 515.88 616.53 515.81 616.63 515.79 616.64 515.78 616.64 515.69 616.9 515.59 617.19 515.54 617.18 515.5 617.16 515.49 617.16 515.39 617.12 515.37 617.18 515.32 617.32 515.29 617.4 515.27 617.48 515.27 617.56 515.28 617.59 515.29 617.62 515.3 617.64 515.3 617.68 515.28 617.73 515.25 617.74 515.21 617.74 515.19 617.74 515.17 617.75 515.16 617.75 515.11 617.75 515.11 617.76 515.07 617.77 515.07 617.75 515.06 617.73 515.06 617.72 515.05 617.7 515.02 617.68 515.01 617.68 515 617.67 514.93 617.65 514.91 617.65 514.8 617.62 514.74 617.6 514.72 617.6 514.71 617.68 514.7 617.75 514.68 617.74 514.63 617.73 514.55 617.68 514.52 617.66 514.45 617.6 514.43 617.57 514.42 617.56 514.44 617.55 514.46 617.52 514.48 617.51 514.49 617.5 514.49 617.48 514.49 617.46 514.47 617.45 514.44 617.42 514.41 617.41 514.39 617.39 514.36 617.37 514.34 617.41 514.31 617.39 514.3 617.38 514.29 617.35 514.3 617.33 514.3 617.32 514.32 617.3 514.33 617.28 514.33 617.27 514.33 617.24 514.33 617.23 514.29 617.16 514.29 617.15 514.29 617.11 514.28 617.1 514.26 617.08 514.25 617.08 514.23 617.08 514.17 617.12 514.15 617.11 514.1 617.09 514.06 617.09 514.05 617.1 514.05 617.11 514.06 617.12 514.06 617.13 514.05 617.15 514.03 617.16 514.02 617.17 513.97 617.18 513.95 617.19 513.94 617.19 513.93 617.16 513.93 617.13 513.92 617.09 513.91 617.04 513.91 617.01 513.91 616.99 513.92 616.97 513.92 616.95 513.93 616.94 513.93 616.9 513.93 616.86 513.93 616.81 513.92 616.72 513.92 616.68 513.92 616.63 513.93 616.57 513.95 616.57 513.97 616.47 513.94 616.49 513.91 616.49 513.9 616.48 513.87 616.41 513.84 616.34 513.78 616.18 513.76 616.1 513.74 616.11 513.56 616.24 513.3 616.43 513.29 616.42 513.27 616.4 513.25 616.39 513.24 616.4 513.21 616.43 513.18 616.46 513.16 616.5 513.13 616.53 513.13 616.54 513.1 616.57 513.1 616.5 513.1 616.5 513.08 615.85 513.08 615.84 512.99 615.81 512.96 615.8 512.93 615.79 512.91 615.79 512.8 615.76 512.41 615.58 512.39 615.56 512.38 615.49 512.37 615.42 512.35 615.31 512.34 615.28 512.3 615.25 512.29 615.22 512.27 615.16 512.23 615.06 512.17 615.05 512.11 615.04 512.07 615.03 512.04 615.02 511.9 614.93 511.87 614.91 511.83 614.89 511.71 614.83 511.68 614.83 511.65 614.83 511.59 614.88 511.54 614.92 511.45 614.97 511.42 614.98 511.32 615.03 511.2 615.08 511.12 615.11 511.03 615.15 510.89 615.19 510.88 615.19 510.84 615.21 510.81 615.23 510.77 615.25 510.71 615.27 510.65 615.28 510.64 615.29 510.61 615.29 510.56 615.3 510.48 615.32 510.38 615.35 510.31 615.37 510.23 615.37 510.1 615.34 510.04 615.32 510.01 615.3 509.99 615.28 509.98 615.27 509.97 615.25 509.97 615.23 509.97 615.21 509.98 615.16 510.01 615.07 510.02 615.05 510.02 615.02 510.02 615.01 510.02 615 510.02 614.99 509.97 614.98 509.92 614.96 509.87 614.94 509.8 614.92 509.76 614.91 509.73 614.9 509.7 614.89 509.67 614.87 509.65 614.85 509.56 614.78 509.54 614.76 509.47 614.69 509.42 614.64 509.39 614.61 509.31 614.54 509.26 614.5 509.22 614.47 509.19 614.46 509.17 614.45 509.14 614.45 509.09 614.45 509.05 614.46 508.98 614.48 508.93 614.48 508.85 614.48 508.67 614.47 508.59 614.46 508.47 614.43 508.4 614.41 508.32 614.39 508.29 614.37 508.27 614.36 508.26 614.34 508.24 614.33 508.22 614.33 508.21 614.34 508.19 614.38 508.19 614.39 508.21 614.42 508.21 614.46 508.21 614.52 508.2 614.55 508.19 614.57 508.17 614.61 508.13 614.67 508.12 614.69 508.11 614.71 508.11 614.73 508.11 614.78 508.1 614.8 508.02 614.82 508 614.82 507.98 614.82 507.92 614.8 507.89 614.8 507.81 614.8 507.75 614.8 507.7 614.8 507.68 614.8 507.63 614.79 507.61 614.79 507.59 614.78 507.57 614.78 507.56 614.79 507.52 614.8 507.46 614.83 507.43 614.84 507.4 614.86 507.39 614.86 507.4 614.83 507.42 614.79 507.43 614.77 507.42 614.75 507.42 614.74 507.43 614.64 507.43 614.62 507.45 614.54 507.45 614.48 507.45 614.46 507.43 614.44 507.42 614.42 507.42 614.42 507.36 614.41 507.32 614.4 507.31 614.39 507.3 614.34 507.29 614.29 507.28 614.27 507.26 614.23 507.25 614.21 507.24 614.2 507.23 614.18 507.2 614.16 507.19 614.15 507.17 614.13 507.13 614.11 507.13 614.11 507.09 614.08 507.05 614.06 507.04 614.05 507.04 614.04 507.03 614.04 507.02 614.01 507.01 613.99 507 613.95 506.99 613.94 506.96 613.93 506.95 613.93 506.93 613.93 506.9 613.92 506.87 613.9 506.86 613.87 506.84 613.85 506.82 613.82 506.8 613.79 506.8 613.75 506.8 613.73 506.79 613.72 506.77 613.72 506.76 613.71 506.71 613.68 506.66 613.66 506.61 613.63 506.57 613.61 506.56 613.61 506.53 613.59 506.51 613.58 506.52 613.55 506.53 613.46 506.54 613.39 506.54 613.36 506.54 613.32 506.54 613.29 506.53 613.28 506.5 613.21 506.44 613.09 506.43 613.06 506.4 613.02 506.39 612.99 506.38 612.97 506.39 612.94 506.39 612.93 506.4 612.91 506.4 612.89 506.41 612.84 506.42 612.8 506.42 612.79 506.42 612.76 506.42 612.74 506.42 612.73 506.4 612.7 506.4 612.67 506.4 612.66 506.4 612.64 506.41 612.63 506.42 612.61 506.44 612.6 506.49 612.58 506.56 612.56 506.58 612.56 506.59 612.56 506.59 612.56 506.63 612.55 506.64 612.54 506.67 612.54 506.7 612.52 506.75 612.5 506.79 612.5 506.8 612.5 506.83 612.5 506.9 612.49 506.91 612.49 506.94 612.48 506.96 612.46 506.98 612.46 507.01 612.45 507.02 612.44 507.04 612.43 507.05 612.41 507.07 612.35 507.07 612.34 507.08 612.32 507.1 612.3 507.11 612.28 507.11 612.27 507.1 612.26 507.08 612.2 507.07 612.19 507.07 612.17 507.07 612.16 507.09 612.15 507.1 612.14 507.12 612.14 507.15 612.16 507.18 612.17 507.21 612.17 507.23 612.17 507.26 612.16 507.27 612.15 507.3 612.15 507.32 612.15 507.35 612.15 507.36 612.15 507.36 612.13 507.36 612.12 507.35 612.11 507.33 612.1 507.3 612.1 507.28 612.09 507.27 612.08 507.26 612.07 507.26 612.06 507.26 612.04 507.27 612.02 507.27 612 507.27 611.98 507.25 611.97 507.23 611.96 507.22 611.95 507.22 611.92 507.22 611.91 507.25 611.88 507.27 611.84 507.28 611.83 507.3 611.81 507.31 611.81 507.32 611.81 507.34 611.83 507.37 611.84 507.4 611.84 507.41 611.85 507.44 611.85 507.46 611.85 507.48 611.84 507.5 611.83 507.51 611.81 507.53 611.77 507.55 611.74 507.57 611.72 507.59 611.7 507.61 611.69 507.62 611.69 507.63 611.67 507.64 611.65 507.64 611.61 507.65 611.58 507.65 611.56 507.66 611.55 507.65 611.54 507.65 611.54 507.63 611.54 507.62 611.54 507.6 611.55 507.57 611.56 507.55 611.57 507.52 611.57 507.49 611.57 507.47 611.57 507.45 611.56 507.42 611.55 507.41 611.55 507.39 611.54 507.37 611.54 507.35 611.52 507.34 611.5 507.33 611.48 507.32 611.43 507.3 611.4 507.29 611.38 507.28 611.37 507.26 611.35 507.24 611.34 507.23 611.32 507.22 611.29 507.21 611.24 507.2 611.22 507.18 611.21 507.17 611.2 507.16 611.19 507.15 611.18 507.15 611.16 507.16 611.15 507.17 611.15 507.2 611.14 507.22 611.12 507.23 611.11 507.23 611.1 507.24 611.09 507.22 611.07 507.2 611.02 507.19 610.99 507.18 610.97 507.17 610.93 507.16 610.92 507.13 610.89 507.12 610.87 507.1 610.84 507.1 610.81 507.09 610.78 507.09 610.76 507.1 610.73 507.13 610.7 507.15 610.67 507.17 610.63 507.2 610.6 507.23 610.57 507.25 610.55 507.27 610.52 507.28 610.48 507.28 610.47 507.32 610.45 507.34 610.44 507.35 610.42 507.36 610.41 507.39 610.4 507.4 610.39 507.41 610.36 507.42 610.33 507.43 610.31 507.45 610.28 507.46 610.26 507.47 610.23 507.48 610.22 507.49 610.2 507.5 610.2 507.53 610.2 507.55 610.19 507.56 610.18 507.58 610.16 507.59 610.14 507.62 610.13 507.65 610.12 507.68 610.11 507.71 610.11 507.74 610.12 507.76 610.13 507.78 610.12 507.81 610.1 507.83 610.08 507.85 610.08 507.86 610.08 507.88 610.09 507.9 610.1 507.92 610.12 507.95 610.12 507.97 610.12 507.99 610.11 508 610.1 508.01 610.08 508.02 610.07 508.02 610.05 508.02 610.03 507.99 610.01 507.91 609.97 507.88 609.95 507.87 609.94 507.87 609.9 507.87 609.86 507.88 609.82 507.89 609.8 507.9 609.77 507.9 609.76 507.89 609.75 507.87 609.74 507.85 609.73 507.85 609.72 507.85 609.7 507.86 609.69 507.87 609.67 507.89 609.65 507.93 609.63 507.95 609.62 507.97 609.61 507.99 609.6 508.01 609.6 508.02 609.6 508.03 609.62 508.04 609.64 508.04 609.67 508.06 609.69 508.07 609.7 508.1 609.71 508.12 609.72 508.15 609.75 508.17 609.78 508.18 609.81 508.2 609.82 508.21 609.82 508.22 609.83 508.23 609.83 508.25 609.84 508.27 609.84 508.29 609.83 508.31 609.8 508.31 609.79 508.31 609.76 508.28 609.72 508.25 609.64 508.21 609.57 508.19 609.52 508.18 609.49 508.18 609.46 508.2 609.45 508.22 609.44 508.26 609.43 508.27 609.43 508.28 609.43 508.3 609.41 508.32 609.39 508.35 609.37 508.39 609.35 508.42 609.33 508.45 609.31 508.46 609.29 508.48 609.25 508.51 609.21 508.53 609.19 508.55 609.17 508.56 609.15 508.56 609.13 508.56 609.12 508.56 609.1 508.56 609.07 508.56 609.06 508.57 609.04 508.58 609 508.66 608.99 508.69 608.98 508.72 608.98 508.74 608.98 508.75 608.98 508.76 608.99 508.76 609.03 508.77 609.04 508.78 609.07 508.8 609.08 508.83 609.1 508.86 609.11 508.9 609.11 508.92 609.13 508.94 609.15 508.97 609.17 508.99 609.19 509.01 609.22 509.03 609.24 509.05 609.26 509.05 609.28 509.05 609.3 509.04 609.32 509.04 609.35 509.04 609.36 509.06 609.39 509.07 609.42 509.08 609.43 509.11 609.43 509.13 609.44 509.17 609.45 509.19 609.46 509.22 609.47 509.23 609.49 509.25 609.5 509.27 609.5 509.28 609.51 509.3 609.52 509.31 609.53 509.33 609.55 509.37 609.61 509.38 609.63 509.4 609.67 509.42 609.69 509.44 609.71 509.45 609.73 509.47 609.76 509.48 609.77 509.5 609.8 509.51 609.82 509.51 609.85 509.53 609.88 509.55 609.91 509.56 609.93 509.57 609.95 509.58 609.95 509.61 609.98 509.62 610 509.65 610 509.67 610.02 509.68 610.04 509.69 610.07 509.7 610.1 509.72 610.13 509.73 610.16 509.74 610.18 509.75 610.18 509.8 610.18 509.82 610.18 509.87 610.19 509.89 610.2 509.92 610.21 509.95 610.22 509.97 610.24 509.99 610.25 510.02 610.25 510.04 610.25 510.06 610.27 510.09 610.27 510.12 610.27 510.13 610.27 510.16 610.26 510.18 610.24 510.19 610.23 510.21 610.22 510.23 610.21 510.26 610.2 510.28 610.2 510.3 610.2 510.32 610.2 510.34 610.2 510.36 610.21 510.38 610.23 510.4 610.24 510.44 610.27 510.49 610.29 510.5 610.3 510.51 610.3 510.56 610.33 510.58 610.34 510.6 610.35 510.63 610.36 510.66 610.37 510.67 610.38 510.71 610.37 510.74 610.37 510.79 610.38 510.8 610.38 510.82 610.38 510.85 610.38 510.88 610.38 510.88 610.38 510.91 610.38 510.92 610.38 510.97 610.38 510.99 610.38 511.02 610.38 511.05 610.39 511.1 610.39 511.14 610.4 511.16 610.4 511.2 610.4 511.25 610.43 511.28 610.43 511.29 610.43 511.33 610.42 511.34 610.42 511.35 610.42 511.39 610.42 511.41 610.42 511.43 610.42 511.45 610.42 511.47 610.42 511.51 610.41 511.56 610.4 511.6 610.4 511.63 610.4 511.64 610.4 511.66 610.39 511.7 610.39 511.76 610.38 511.79 610.37 511.81 610.36 511.84 610.36 511.87 610.35 511.91 610.32 511.94 610.31 511.96 610.3 511.98 610.3 512 610.3 512.01 610.3 512.02 610.3 512.03 610.33 512.03 610.34 512.09 610.36 512.1 610.37 512.08 610.38 512.07 610.4 512.07 610.42 512.06 610.44 512.04 610.46 512.03 610.48 512.02 610.5 512.01 610.52 512.01 610.54 511.99 610.56 511.98 610.58 511.97 610.6 511.96 610.61 511.95 610.64 511.93 610.69 511.91 610.75 511.89 610.81 511.88 610.86 511.87 610.9 511.86 610.93 511.86 610.95 511.85 610.98 511.86 611.01 511.99 611.03 512.34 611.08 512.35 611.08 512.36 611.08 512.38 611.04 512.41 611.05 512.44 611.06 512.45 611.06 512.46 611.07 512.48 611.07 512.53 611.11 512.57 611.14 512.59 611.17 512.61 611.2 512.62 611.21 512.63 611.22 512.64 611.25 512.65 611.27 512.66 611.3 512.66 611.31 512.66 611.32 512.68 611.32 512.69 611.33 512.7 611.33 512.72 611.34 512.76 611.37 512.78 611.38 512.78 611.38 512.79 611.39 512.81 611.4 512.83 611.43 512.85 611.45 512.86 611.47 512.87 611.51 512.88 611.53 512.88 611.59 512.89 611.64 512.9 611.68 512.91 611.69 512.92 611.71 512.92 611.74 512.92 611.78 512.93 611.8 512.93 611.83 512.94 611.84 512.95 611.85 512.96 611.86 512.97 611.88 512.97 611.9 512.97 611.94 512.97 611.96 512.98 611.97 512.97 612 512.96 612.02 512.95 612.05 512.94 612.08 512.94 612.11 512.94 612.16 512.95 612.2 512.95 612.22 512.96 612.23 512.97 612.23 512.98 612.21 512.99 612.19 512.99 612.16 513 612.15 513.01 612.12 513.03 612.08 513.04 612.05 513.06 612.03 513.08 612.02 513.1 612.01 513.11 612.01 513.13 612.02 513.13 612.02 513.15 612.04 513.16 612.05 513.17 612.08 513.17 612.12 513.17 612.13 513.17 612.14 513.16 612.17 513.15 612.2 513.15 612.21 513.14 612.23 513.17 612.23 513.19 612.24 513.24 612.24 513.28 612.23 513.29 612.23 513.32 612.14 513.33 612.11 513.34 612.1 513.34 612.08 513.36 612.03 513.37 612 513.37 611.98 513.37 611.95 513.36 611.94 513.34 611.94 513.33 611.93 513.31 611.94 513.29 611.97 513.27 611.98 513.26 611.97 513.25 611.96 513.25 611.95 513.26 611.94 513.26 611.92 513.25 611.91 513.25 611.9 513.24 611.9 513.24 611.88 513.24 611.86 513.25 611.84 513.27 611.81 513.3 611.77 513.32 611.76 513.33 611.74 513.34 611.7 513.35 611.68 513.36 611.67 513.37 611.66 513.4 611.64 513.41 611.64 513.42 611.63 513.43 611.61 513.44 611.6 513.44 611.58 513.43 611.56 513.43 611.55 513.42 611.54 513.39 611.51 513.38 611.5 513.38 611.48 513.38 611.47 513.39 611.44 513.41 611.41 513.42 611.39 513.42 611.37 513.41 611.36 513.38 611.34 513.36 611.32 513.35 611.3 513.36 611.28 513.37 611.26 513.38 611.24 513.38 611.22 513.38 611.21 513.38 611.19 513.37 611.18 513.37 611.17 513.32 611.14 513.32 611.13 513.3 611.12 513.28 611.07 513.26 611.01 513.26 610.95 513.27 610.95 513.29 610.95 513.31 610.96 513.34 610.96 513.39 610.96 513.41 610.96 513.47 610.95 513.5 610.94 513.52 610.94 513.57 610.94 513.58 610.94 513.59 610.94 513.6 610.94 513.61 610.94 513.64 610.94 513.67 610.94 513.7 610.95 513.71 610.95 513.73 610.95 513.77 610.94 513.78 610.94 513.81 610.94 513.84 610.94 513.87 610.94 513.89 610.94 513.93 610.93 513.94 610.93 513.98 610.93 514 610.93 514.03 610.93 514.06 610.93 514.06 611.02 514.08 611.05 514.11 611.07 514.14 611.11 514.16 611.14 514.18 611.17 514.2 611.19 514.21 611.2 514.23 611.21 514.25 611.23 514.29 611.28 514.3 611.3 514.31 611.32 514.32 611.35 514.32 611.36 514.34 611.38 514.38 611.43 514.42 611.45 514.44 611.47 514.46 611.48 514.47 611.5 514.48 611.51 514.5 611.52 514.52 611.53 514.54 611.54 514.56 611.58 514.61 611.63 514.62 611.65 514.65 611.68 514.68 611.71 514.71 611.74 514.73 611.77 514.74 611.79 514.75 611.82 514.76 611.82 514.76 611.82 514.78 611.81 514.8 611.8 514.83 611.8 514.85 611.8 514.86 611.79 514.86 611.79 514.88 611.79 514.89 611.81 514.91 611.84 514.92 611.87 514.94 611.91 514.94 611.93 514.95 611.94 514.96 611.95 515 611.97 515.01 611.98 515.04 612 515.08 612.02 515.13 612.04 515.15 612.06 515.17 612.06 515.19 612.07 515.23 612.07 515.26 612.08 515.31 612.09 515.31 612.22 515.31 612.34 515.31 612.45 515.3 612.51 515.34 612.54 515.35 612.54 515.35 612.55 515.39 612.55 515.41 612.56 515.45 612.59 515.49 612.6 515.51 612.62 515.52 612.62 515.53 612.64 515.55 612.65 515.56 612.7 515.58 612.78 515.59 612.82 515.59 612.85 515.59 612.88 515.61 612.92 515.63 612.96 515.66 613.01 515.69 613.05 515.71 613.07 515.71 613.05 515.72 613.04 515.75 613.01 515.77 612.99 515.82 612.96 515.88 612.92 515.93 612.89 515.94 612.88 515.95 612.89 515.97 612.91 515.98 612.94 515.99 612.96 516 612.97 516.02 612.98 516.03 612.97 516.05 612.94 516.09 612.89 516.13 612.84 516.14 612.82 516.18 612.76 516.2 612.74 516.22 612.71 516.23 612.7 516.27 612.64 516.29 612.61 516.31 612.59 516.33 612.58 516.33 612.58 516.34 612.56 516.35 612.55 516.37 612.53 516.38 612.52 516.39 612.5 516.41 612.48 516.42 612.47 516.42 612.46 516.43 612.45 516.44 612.44 516.44 612.43 516.45 612.42 516.45 612.4 516.45 612.38 516.45 612.36 516.46 612.35 516.47 612.33 516.48 612.32 516.5 612.31 516.52 612.3 516.53 612.26 516.55 612.21 516.57 612.16 516.59 612.08 516.61 612.02 516.64 611.93 516.67 611.85 516.68 611.81 516.71 611.75 516.73 611.71 516.75 611.66 516.77 611.62 516.78 611.58 516.8 611.52 516.8 611.5 516.81 611.47 516.81 611.42 516.81 611.41 516.81 611.38 516.81 611.35 516.81 611.32 516.82 611.28 516.82 611.24 516.83 611.2 516.83 611.17 516.83 611.12 516.84 611.08 516.84 611.05 516.85 610.99 516.85 610.97 516.88 610.96 516.92 610.96 516.96 610.97 516.97 610.98 516.99 611.01 517.01 611.07 517.02 611.11 517.03 611.13 517.07 611.19 517.14 611.29 517.12 611.31 517.07 611.36 517 611.43 516.96 611.46 516.91 611.5 516.88 611.53 516.88 611.54 516.84 611.57 516.81 611.62 516.78 611.66 516.76 611.69 516.76 611.7 516.85 611.76 516.95 611.82 517 611.86 517.06 611.9 517.09 611.91 517.13 611.94 517.15 611.97 517.19 612.01 517.19 612.01 517.2 612.03 517.22 612.06 517.21 612.07 517.15 612.15 517.09 612.24 517.06 612.27 517.01 612.35 516.98 612.38 516.96 612.41 516.95 612.43 516.92 612.52 516.89 612.62 516.91 612.63 517.04 612.65 517.03 612.69 517.01 612.74 517 612.78 517 612.85 517.03 612.84 517.04 612.84 517.05 612.84 517.06 612.86 517.07 612.86 517.08 612.88 517.07 612.89 517.06 612.92 517.01 613 516.96 613.1 516.95 613.12 516.94 613.14 516.89 613.21 516.88 613.24 516.88 613.26 516.88 613.29 516.89 613.32 516.91 613.36 516.88 613.39 516.84 613.43 516.79 613.48 516.69 613.58 516.72 613.61 516.75 613.64 516.76 613.64 516.81 613.67 516.87 613.71 516.93 613.73 516.97 613.75 516.98 613.76 516.97 613.79 516.97 613.8 516.97 613.84 516.97 613.86 516.97 613.89 516.98 613.92 516.99 613.94 517 613.97 516.98 614 516.94 614.02 516.86 614.07 516.84 614.08 516.83 614.1 516.82 614.11 516.82 614.15 516.83 614.21 516.82 614.24 516.81 614.26 516.77 614.3 516.74 614.33 516.72 614.36 516.7 614.38 516.69 614.4 516.62 614.56 516.67 614.59 516.71 614.61 516.83 614.69 516.88 614.72 516.89 614.72 516.94 614.76 517 614.79 517.02 614.81 517.04 614.82 517.07 614.83 517.11 614.85 517.15 614.87 Z"/>
</g></svg>