<svg xmlns="http://www.w3.org/2000/svg" version="1.2" baseProfile="tiny" stroke-linecap="round" stroke-linejoin="round" viewBox="467.12 541.7 102.55 68.3"><g xmlns="http://www.w3.org/2000/svg" id="Tutera">
<path d="M 524.2 541.71 524.22 541.78 524.23 541.85 524.23 541.92 524.23 541.99 524.22 542.06 524.2 542.15 524.18 542.27 524.16 542.36 524.14 542.47 524.13 542.62 524.12 542.77 524.11 542.82 524.1 542.92 524.08 543.03 524.05 543.13 524.02 543.22 523.98 543.31 523.92 543.42 523.86 543.5 523.75 543.68 523.69 543.77 523.63 543.91 523.56 544.06 523.52 544.17 523.48 544.3 523.46 544.39 523.44 544.5 523.45 544.62 523.46 544.77 523.48 544.88 523.51 544.99 523.54 545.08 523.6 545.2 523.65 545.29 523.71 545.39 523.76 545.45 523.81 545.52 523.87 545.58 523.93 545.64 523.99 545.7 524.06 545.75 524.13 545.79 524.21 545.83 524.3 545.85 524.38 545.87 524.46 545.89 524.55 545.91 524.74 545.92 524.88 545.94 525.1 545.95 525.38 545.93 525.57 545.92 525.84 545.92 526.11 545.93 526.18 545.95 526.34 546.01 526.47 546.09 526.65 546.2 526.84 546.34 526.97 546.46 527.08 546.58 527.26 546.83 527.43 547.06 527.59 547.33 527.72 547.55 527.75 547.59 527.84 547.76 527.94 548.02 528.01 548.19 528.12 548.45 528.18 548.63 528.19 548.77 528.21 548.97 528.24 549.2 528.29 549.39 528.31 549.47 528.35 549.51 528.39 549.53 528.42 549.55 529.31 549.52 529.91 549.51 530.03 549.5 530.08 549.49 530.12 549.49 530.18 549.48 530.23 549.45 530.3 549.4 530.35 549.37 530.38 549.34 530.42 549.31 530.49 549.25 530.62 549.14 530.64 549.12 530.73 549.05 530.84 548.94 530.85 548.94 530.87 548.92 530.94 548.86 531.08 548.76 531.09 548.75 531.16 548.7 531.24 548.63 531.27 548.6 531.29 548.58 531.3 548.56 531.32 548.54 531.33 548.52 531.36 548.47 531.41 548.4 531.51 548.29 531.58 548.22 531.61 548.18 531.7 548.09 531.76 548.04 531.82 548 531.91 547.95 532.01 547.92 532.09 547.88 532.2 547.82 532.25 547.8 532.34 547.74 532.36 547.74 532.45 547.68 532.54 547.61 532.57 547.59 532.59 547.59 532.62 547.58 532.72 547.58 532.86 547.57 532.89 547.56 532.92 547.53 532.99 547.45 533.05 547.39 533.11 547.32 533.15 547.3 533.37 547.21 533.55 547.14 533.59 547.13 533.6 547.13 533.64 547.13 533.73 547.12 533.78 547.09 533.85 547.07 533.92 547.06 533.99 547.12 534.02 547.15 534.04 547.18 534.09 547.22 534.1 547.23 534.11 547.24 534.13 547.26 534.16 547.29 534.18 547.31 534.19 547.32 534.21 547.34 534.23 547.35 534.26 547.38 534.29 547.4 534.36 547.46 534.4 547.49 534.52 547.58 534.63 547.67 534.65 547.7 534.75 547.78 534.83 547.85 534.89 547.89 534.91 547.91 534.97 547.95 535.03 547.98 535.16 548.02 535.21 548.04 535.22 548.04 535.23 548.05 535.26 548.06 535.28 548.07 535.34 548.12 535.39 548.18 535.43 548.16 535.48 548.14 535.55 548.14 535.67 548.14 535.69 548.14 535.82 548.12 535.9 548.12 535.97 548.11 536.1 548.12 536.12 548.12 536.16 548.13 536.18 548.13 536.19 548.13 536.34 548.15 536.51 548.2 536.58 548.22 536.62 548.23 536.64 548.24 536.86 548.31 537.05 548.37 537.09 548.38 537.14 548.39 537.19 548.34 537.24 548.27 537.28 548.2 537.29 548.18 537.3 548.16 537.31 548.14 537.36 548.05 537.39 547.96 537.41 547.91 537.43 547.88 537.43 547.87 537.51 547.61 537.51 547.6 537.51 547.58 537.51 547.37 537.51 547.35 537.51 547.32 537.51 547.25 537.52 547.1 537.51 547.07 537.51 546.85 537.51 546.85 537.51 546.82 537.51 546.6 537.51 546.56 537.51 546.52 537.51 546.5 537.51 546.42 537.49 546.4 537.48 546.38 537.47 546.36 537.48 546.35 537.49 546.35 537.51 546.36 537.55 546.39 537.57 546.4 537.7 546.51 537.8 546.58 537.84 546.61 537.97 546.54 538.48 546.28 538.52 546.26 538.53 546.25 538.56 546.24 538.58 546.23 538.59 546.23 538.69 546.67 538.7 546.69 539.01 548.02 539.02 548.05 539.81 547.88 540.31 547.77 541.38 547.54 542.33 547.33 543.51 547.08 544.12 546.95 544.14 546.94 544.16 546.94 544.32 547.67 544.63 549.17 544.75 549.71 544.93 550.54 545.06 551.1 545.06 551.11 545.06 551.13 545.23 551.88 545.36 552.49 545.36 552.5 545.36 552.51 545.37 552.53 545.56 553.44 545.29 553.75 545.05 554.02 545.03 554.04 545.02 554.06 545.01 554.07 544.99 554.09 544.91 554.19 544.82 554.32 544.21 555.25 544.2 555.27 544.19 555.28 544.18 555.3 544.17 555.32 543.94 555.7 543.95 555.71 543.97 555.73 543.98 555.74 544.13 555.89 544.34 556.1 544.36 556.13 544.38 556.15 544.43 556.2 544.47 556.25 544.6 556.4 544.84 556.61 544.85 556.62 544.86 556.63 545.18 557.04 545.19 557.05 545.19 557.06 545.2 557.06 545.29 557.19 545.3 557.2 545.31 557.21 545.33 557.24 545.36 557.31 545.5 557.48 545.51 557.49 545.6 557.59 545.8 557.85 546.02 558.12 546.15 558.03 546.31 557.78 546.54 557.77 546.56 557.79 546.72 557.92 546.8 557.82 546.81 557.83 547.09 557.93 547.43 558.04 547.73 558.11 548.03 558.17 548.16 558.19 548.45 558.25 548.52 558.25 548.63 558.24 548.77 558.32 548.91 558.39 549.1 558.48 549.11 558.49 549.25 558.55 549.41 558.64 549.48 558.69 549.51 558.7 549.58 558.71 549.66 558.73 549.68 558.75 549.81 558.85 549.91 558.92 549.95 558.94 550.01 558.96 550.08 558.99 550.17 559.02 550.27 559.05 550.35 559.1 550.42 559.12 550.54 559.15 550.67 559.16 550.81 559.18 550.84 559.18 550.94 559.21 551.17 559.27 551.3 559.3 551.33 559.32 551.36 559.32 551.39 559.32 551.49 559.34 551.52 559.36 551.61 559.37 551.7 559.36 551.79 559.35 551.88 559.34 551.96 559.33 552.03 559.33 552.08 559.34 552.17 559.37 552.23 559.36 552.27 559.36 552.3 559.37 552.35 559.38 552.37 559.38 552.46 559.39 552.47 559.39 552.52 559.38 552.55 559.38 552.62 559.37 552.69 559.33 552.78 559.28 552.89 559.21 552.96 559.16 552.98 559.15 553.02 559.14 553.07 559.11 553.1 559.05 553.14 559.03 553.17 559.02 553.21 559 553.24 558.95 553.26 558.93 553.27 558.93 553.49 558.82 553.66 558.74 553.81 558.64 553.85 558.61 553.98 558.59 554.01 558.56 554.09 558.51 554.19 558.46 554.23 558.41 554.26 558.39 554.32 558.38 554.56 558.35 554.71 558.31 554.82 558.29 554.83 558.29 554.89 558.28 554.98 558.26 555.04 558.24 555.25 558.18 555.32 558.15 555.54 558.05 555.76 558 556.09 557.91 556.17 557.9 556.31 557.87 556.94 557.76 557.04 557.78 557.13 557.8 557.27 557.81 557.43 557.82 557.55 557.85 557.65 557.88 557.74 557.91 558.2 557.77 558.59 557.64 558.65 557.6 558.69 557.55 558.74 557.5 558.84 557.38 558.99 557.27 559.11 557.19 559.12 557.18 559.3 557.04 559.36 557.02 559.46 556.98 559.59 556.95 559.69 556.92 559.83 556.88 560.02 556.81 560.31 556.7 560.58 556.6 560.71 556.56 560.73 556.55 560.88 556.51 561.02 556.47 561.11 556.44 561.22 556.41 561.32 556.38 561.41 556.35 561.59 556.29 561.77 556.22 562.08 556.1 562.1 556.09 562.11 556.09 562.25 556.04 562.32 556.01 562.34 556.01 562.54 555.94 562.73 555.87 562.83 555.84 562.89 555.81 562.94 555.77 562.97 555.75 563.1 555.68 563.25 555.6 563.43 555.51 563.59 555.43 563.68 555.4 563.79 555.35 563.95 555.27 564.08 555.2 564.17 555.13 564.26 555.04 564.36 554.94 564.44 554.86 564.53 554.74 564.6 554.65 564.65 554.6 564.71 554.53 564.86 554.36 564.97 554.24 565.13 554.09 565.26 553.96 565.33 553.9 565.48 553.78 565.6 553.69 565.69 553.61 565.71 553.59 565.8 553.53 566.1 553.29 566.31 553.14 566.42 553.06 566.46 553.03 566.56 552.95 566.66 552.87 566.76 552.77 566.83 552.72 566.98 552.62 567.09 552.56 567.2 552.52 567.22 552.52 567.31 552.5 567.39 552.5 567.49 552.5 567.57 552.52 567.65 552.53 567.7 552.55 567.75 552.59 567.82 552.62 567.87 552.64 567.94 552.64 568.01 552.65 568.07 552.67 568.11 552.71 568.14 552.76 568.15 552.79 568.19 552.83 568.31 552.98 568.33 553 568.39 553.07 568.59 553.29 568.77 553.5 568.88 553.62 568.92 553.69 568.94 553.71 568.97 553.77 568.99 553.83 568.99 553.88 569.03 553.93 569.08 553.98 569.14 554.03 569.22 554.09 569.28 554.16 569.3 554.19 569.3 554.26 569.29 554.4 569.3 554.55 569.31 554.66 569.33 554.78 569.35 554.93 569.37 555.06 569.41 555.25 569.44 555.41 569.47 555.56 569.51 555.71 569.56 555.9 569.62 556.08 569.63 556.15 569.64 556.26 569.63 556.33 569.62 556.42 569.59 556.52 569.55 556.75 569.53 556.87 569.49 557.05 569.44 557.29 569.41 557.44 569.4 557.47 569.35 557.62 569.31 557.75 569.27 557.88 569.23 558.02 569.2 558.15 569.17 558.26 569.15 558.37 569.13 558.49 569.1 558.61 569.07 558.68 569.05 558.73 569.01 558.78 568.97 558.83 568.92 558.91 568.87 558.97 568.82 559.03 568.78 559.09 568.75 559.15 568.73 559.19 568.71 559.23 568.71 559.25 568.67 559.28 568.63 559.32 568.56 559.38 568.53 559.43 568.5 559.49 568.47 559.54 568.43 559.6 568.37 559.68 568.33 559.72 568.29 559.78 568.23 559.86 568.19 559.94 568.14 560.02 568.12 560.08 568.08 560.15 568.04 560.24 568.02 560.3 568.01 560.36 567.98 560.4 567.94 560.46 567.89 560.53 567.85 560.59 567.82 560.62 567.79 560.66 567.78 560.67 567.69 560.77 567.61 560.86 567.55 560.89 567.46 560.95 567.37 561.03 567.3 561.09 567.2 561.17 567.12 561.23 567.03 561.32 566.94 561.42 566.85 561.51 566.77 561.6 566.71 561.67 566.6 561.79 566.51 561.88 566.48 561.92 566.44 561.97 566.4 562.03 566.36 562.09 566.31 562.15 566.25 562.22 566.19 562.29 566.18 562.31 566.09 562.38 565.96 562.48 565.89 562.53 565.85 562.56 565.77 562.6 565.68 562.65 565.6 562.68 565.5 562.72 565.37 562.75 565.28 562.78 565.19 562.88 565.1 563.01 565.1 563.05 565.09 563.16 565.08 563.28 565.07 563.33 565.07 563.4 565.05 563.51 565.03 563.59 565.01 563.63 565.01 563.67 565.01 563.73 565.01 563.77 564.99 563.85 564.98 563.89 564.97 563.92 564.96 563.94 564.92 563.99 564.9 564.03 564.88 564.06 564.88 564.09 564.87 564.13 564.87 564.17 564.87 564.19 564.87 564.22 564.87 564.24 564.86 564.31 564.85 564.38 564.84 564.48 564.82 564.61 564.82 564.64 564.81 564.69 564.78 564.76 564.78 564.78 564.77 564.82 564.75 564.88 564.72 564.92 564.67 564.99 564.62 565.08 564.6 565.11 564.55 565.16 564.51 565.2 564.5 565.25 564.49 565.3 564.49 565.37 564.49 565.4 564.48 565.44 564.47 565.45 564.44 565.47 564.39 565.51 564.31 565.57 564.26 565.64 564.22 565.73 564.19 565.79 564.19 565.88 564.15 566.02 564.12 566.09 564.1 566.13 564.05 566.24 564.01 566.29 563.96 566.37 563.92 566.45 563.88 566.52 563.81 566.59 563.68 566.69 563.56 566.78 563.45 566.88 563.37 566.95 563.34 566.98 563.32 567.04 563.29 567.12 563.28 567.16 563.27 567.24 563.25 567.29 563.2 567.36 563.17 567.42 563.16 567.48 563.14 567.57 563.14 567.58 563.1 567.64 563.07 567.69 563.04 567.74 563.02 567.86 562.97 568.09 562.93 568.26 562.93 568.27 562.94 568.36 562.94 568.51 562.94 568.63 562.91 568.82 562.86 568.99 562.8 569.17 562.73 569.35 562.64 569.5 562.56 569.65 562.5 569.75 562.48 569.79 562.47 569.81 562.41 569.92 562.38 569.97 562.35 570.01 562.32 570.07 562.28 570.12 562.27 570.13 562.23 570.18 562.21 570.25 562.18 570.34 562.16 570.37 562.16 570.39 562.15 570.42 562.11 570.51 562.05 570.66 562 570.78 561.97 570.86 561.95 570.91 561.94 570.95 561.92 571.01 561.9 571.04 561.89 571.09 561.85 571.17 561.82 571.27 561.81 571.28 561.8 571.3 561.75 571.42 561.75 571.44 561.74 571.45 561.69 571.56 561.67 571.62 561.65 571.67 561.64 571.67 561.64 571.69 561.63 571.71 561.62 571.73 561.61 571.75 561.6 571.79 561.57 571.87 561.56 571.89 561.56 571.94 561.56 571.96 561.56 571.98 561.55 572.02 561.55 572.08 561.54 572.12 561.52 572.14 561.47 572.2 561.4 572.27 561.34 572.34 561.31 572.38 561.27 572.46 561.23 572.54 561.17 572.63 561.12 572.7 561.05 572.8 561 572.85 560.96 572.88 560.92 572.9 560.89 572.91 560.85 572.92 560.8 572.93 560.73 572.93 560.64 572.93 560.61 572.92 560.54 572.89 560.51 572.88 560.4 572.87 560.38 572.89 560.26 572.98 560.16 573.05 560.08 573.12 559.99 573.18 559.92 573.22 559.84 573.25 559.76 573.29 559.68 573.33 559.64 573.38 559.57 573.46 559.56 573.47 559.53 573.48 559.48 573.49 559.44 573.48 559.39 573.5 559.34 573.5 559.28 573.5 559.24 573.5 559.24 573.53 559.2 573.59 559.17 573.63 559.13 573.69 559.11 573.74 559.09 573.8 559.08 573.83 559.07 573.87 559.05 573.9 559.03 573.94 559 574.02 559 574.09 558.96 574.18 558.95 574.22 558.89 574.39 558.82 574.47 558.77 574.57 558.72 574.74 558.68 574.93 558.66 575.08 558.63 575.12 558.59 575.15 558.54 575.17 558.51 575.17 558.46 575.17 558.37 575.15 558.15 575.12 558.12 575.11 557.91 574.94 557.74 574.81 557.55 574.65 557.35 574.48 557.21 574.36 557.18 574.38 557.01 574.53 556.95 574.59 556.91 574.61 556.88 574.62 556.84 574.59 556.76 574.57 556.66 574.54 556.57 574.53 556.49 574.53 556.44 574.52 556.29 574.53 556.17 574.53 556.14 574.5 556.06 574.44 556 574.39 555.94 574.4 555.91 574.41 555.81 574.39 555.61 574.34 555.51 574.32 555.51 574.31 555.33 574.61 555.12 574.98 554.97 575.23 554.79 575.52 554.7 575.56 554.44 575.69 554.41 575.7 554.28 575.71 554.16 575.73 554.11 575.75 553.96 575.85 553.73 575.8 553.71 575.82 553.54 575.99 553.43 576.1 553.34 576.18 553.28 576.21 553.19 576.25 553.12 576.28 553.01 576.33 553.02 576.39 553.05 576.49 553.07 576.53 553.11 576.58 553.13 576.61 553.14 576.63 553.14 576.67 553.14 576.75 553.13 576.84 553.07 577.08 553.03 577.24 553.01 577.25 552.99 577.27 552.93 577.29 552.89 577.31 552.83 577.33 552.81 577.34 552.73 577.38 552.68 577.41 552.65 577.44 552.64 577.46 552.63 577.48 552.62 577.5 552.48 577.68 552.33 577.88 552.2 578.05 552.11 578.17 552.06 578.23 551.9 578.2 551.87 578.2 551.75 578.18 551.74 578.18 551.73 578.19 551.63 578.33 551.59 578.38 551.54 578.45 551.51 578.47 551.24 578.58 551.12 578.64 551.1 578.66 551.09 578.69 551.08 578.7 551.06 578.71 550.96 578.73 550.92 578.71 550.9 578.7 550.89 578.68 550.87 578.65 550.84 578.6 550.8 578.52 550.77 578.47 550.75 578.45 550.74 578.43 550.71 578.41 550.64 578.38 550.57 578.33 550.46 578.25 550.38 578.18 550.35 578.16 550.34 578.16 550.32 578.15 550.15 578.12 550.13 578.12 550.1 578.13 549.98 578.18 549.95 578.21 549.75 578.31 549.68 578.35 549.52 578.44 549.52 578.64 549.52 578.71 549.47 578.8 549.38 579 549.27 579.12 549.26 579.14 549.12 579.3 549.06 579.37 548.98 579.48 548.91 579.57 548.85 579.65 548.79 579.73 548.69 579.82 548.57 579.94 548.48 580.01 548.35 580.09 548.36 580.25 548.37 580.31 548.38 580.47 548.39 580.59 548.38 580.71 548.37 580.88 548.37 580.91 548.37 580.97 548.36 581.04 548.36 581.13 548.34 581.21 548.32 581.32 548.3 581.43 548.28 581.52 548.28 581.54 548.28 581.55 548.27 581.57 548.27 581.62 548.26 581.67 548.24 581.77 548.22 581.79 548.15 581.8 548.11 581.8 547.58 581.88 547.35 581.76 547.32 581.76 547.21 581.9 547.14 581.99 547.13 582.1 547.12 582.14 547.12 582.15 547.1 582.31 547.1 582.34 547.08 582.46 547.05 582.73 546.98 582.74 546.67 582.84 546.65 582.85 546.55 582.88 546.54 582.89 546.52 582.89 546.49 582.91 546.59 583.33 546.88 583.74 546.91 583.94 546.76 584.2 546.75 584.21 546.72 584.25 546.71 584.26 546.71 584.27 546.63 584.39 546.62 584.39 546.61 584.4 546.61 584.42 546.59 584.44 546.57 584.48 546.55 584.5 546.54 584.51 546.52 584.56 546.51 584.57 546.48 584.61 546.67 584.78 546.93 585.03 547.03 585.12 547.26 585.37 547.34 585.43 547.49 585.54 547.64 585.68 547.77 585.79 547.84 585.84 548.05 585.98 548.32 586.18 548.45 586.29 548.59 586.4 548.73 586.52 548.86 586.64 549 586.78 549.08 586.88 549.19 587.01 549.32 587.18 549.44 587.33 549.56 587.52 549.66 587.68 549.75 587.83 549.84 588.02 549.91 588.17 549.97 588.34 550.02 588.5 550.08 588.65 550.13 588.8 550.18 588.99 550.22 589.15 550.24 589.32 550.26 589.51 550.27 589.7 550.27 589.77 550.25 589.92 550.22 590.12 550.17 590.33 550.1 590.58 550.05 590.76 549.97 590.99 549.9 591.22 549.83 591.42 549.74 591.65 549.64 591.87 549.57 592.04 549.52 592.26 549.46 592.51 549.38 592.83 549.32 593.05 549.27 593.28 549.24 593.44 549.21 593.59 549.19 593.73 549.16 593.89 549.15 594 549.14 594.03 549.08 594 549.01 593.95 548.84 593.84 548.81 593.81 548.78 593.79 548.77 593.78 548.66 593.71 548 593.24 547.99 593.23 547.98 593.22 547.15 592.64 546.87 592.45 546.65 592.3 546.39 592.12 545.78 591.69 545.66 591.6 545.28 591.34 544.92 591.07 544.66 590.88 544.24 591.11 544.24 591.12 544.23 591.13 544.16 591.16 543.87 591.33 544 591.57 543.96 591.59 543.95 591.59 543.92 591.61 543.88 591.65 543.82 591.69 543.8 591.71 543.74 591.73 543.68 591.75 543.62 591.77 543.61 591.77 543.58 591.79 543.53 591.82 543.47 591.86 543.43 591.87 543.35 591.79 543.34 591.78 543.23 591.67 543.14 591.57 543.12 591.56 543.03 591.46 542.91 591.35 542.89 591.37 542.88 591.4 542.87 591.42 542.87 591.46 542.87 591.5 542.88 591.54 542.88 591.59 542.88 591.62 542.88 591.67 542.89 591.69 542.89 591.73 542.89 591.76 542.86 591.8 542.83 591.85 542.78 591.89 542.73 591.94 542.67 592.01 542.62 592.05 542.58 592.06 542.55 592.06 542.53 592.07 542.52 592.12 542.5 592.19 542.48 592.25 542.44 592.37 542.39 592.58 542.39 592.63 542.37 592.72 542.36 592.73 542.41 592.79 542.46 592.85 542.45 592.88 542.43 592.92 542.42 592.95 542.38 593.01 542.35 593.05 542.29 593.06 542.24 593.06 542.18 593.07 542.14 593.09 542.09 593.11 542.05 593.13 542 593.15 541.94 593.18 541.9 593.22 541.86 593.27 541.83 593.33 541.8 593.35 541.81 593.38 541.81 593.42 541.79 593.43 541.78 593.44 541.73 593.46 541.69 593.48 541.65 593.5 541.61 593.51 541.52 593.53 541.42 593.55 541.36 593.57 541.31 593.57 541.27 593.57 541.24 593.57 541.21 593.57 541.18 593.57 541.12 593.58 541.04 593.58 540.98 593.59 540.95 593.61 540.91 593.63 540.86 593.64 540.81 593.65 540.77 593.65 540.63 593.68 540.63 593.7 540.65 593.79 540.66 593.82 540.66 593.83 540.64 593.84 540.52 593.88 540.49 593.88 540.48 593.88 540.5 593.96 540.55 594.09 540.62 594.22 540.61 594.24 540.56 594.24 540.56 594.24 540.54 594.25 540.52 594.26 540.52 594.26 540.55 594.33 540.59 594.46 540.64 594.61 540.67 594.7 540.68 594.73 540.71 594.82 540.76 594.95 540.79 595.04 540.85 595.15 540.92 595.31 540.97 595.45 541 595.54 541.1 595.76 541.18 595.89 541.18 595.91 541.17 595.91 541.12 595.91 540.94 595.92 540.84 595.93 540.83 595.93 540.73 595.95 540.7 595.96 540.63 595.98 540.55 595.99 540.46 596.02 540.32 596.04 540.19 596.06 540.08 596.07 540.03 596.07 540.02 596.07 540.01 596.07 540 596.07 539.92 596.07 539.81 596.08 539.76 596.09 539.74 596.09 539.73 596.09 539.7 596.09 539.62 596.12 539.53 596.14 539.52 596.14 539.5 596.14 539.48 596.14 539.38 596.13 539.33 596.13 539.32 596.13 539.26 596.14 539.14 596.15 539.07 596.17 539.01 596.18 538.95 596.18 538.89 596.16 538.84 596.16 538.83 596.15 538.71 596.13 538.65 596.11 538.63 596.11 538.59 596.1 538.57 596.09 538.56 596.09 538.53 596.08 538.46 596.09 538.4 596.1 538.38 596.11 538.37 596.12 538.36 596.13 538.36 596.14 538.34 596.14 538.29 596.17 538.13 596.23 538.02 596.27 538.01 596.28 537.8 596.37 537.63 596.44 537.5 596.5 537.4 596.53 537.38 596.55 537.34 596.59 537.32 596.6 537.13 596.67 536.93 596.76 536.86 596.8 536.78 596.87 536.71 596.96 536.62 597.03 536.53 597.13 536.43 597.22 536.33 597.31 536.22 597.43 536.13 597.49 536.06 597.56 535.98 597.63 535.91 597.72 535.84 597.76 535.8 597.79 535.77 597.81 535.67 597.85 535.58 597.89 535.54 597.94 535.45 598.02 535.38 598.07 535.37 598.08 535.34 598.11 535.13 598.27 535.11 598.27 535.04 598.33 534.98 598.4 534.94 598.44 534.93 598.46 534.92 598.47 534.85 598.53 534.83 598.55 534.8 598.58 534.77 598.6 534.76 598.61 534.72 598.65 534.67 598.71 534.62 598.77 534.59 598.83 534.58 598.84 534.58 598.87 534.57 598.88 534.58 598.92 534.59 598.96 534.6 598.98 534.61 599 534.61 599.03 534.61 599.06 534.6 599.09 534.59 599.12 534.57 599.16 534.57 599.18 534.57 599.25 534.57 599.29 534.58 599.32 534.58 599.34 534.57 599.37 534.56 599.4 534.57 599.43 534.57 599.45 534.58 599.46 534.59 599.48 534.61 599.5 534.62 599.52 534.63 599.54 534.63 599.56 534.63 599.58 534.61 599.62 534.59 599.66 534.58 599.69 534.57 599.72 534.56 599.75 534.57 599.77 534.56 599.78 534.56 599.8 534.55 599.83 534.54 599.85 534.54 599.88 534.53 599.92 534.51 599.96 534.51 599.99 534.49 600.04 534.48 600.09 534.47 600.12 534.47 600.15 534.46 600.18 534.46 600.21 534.46 600.24 534.46 600.26 534.46 600.32 534.46 600.33 534.43 600.38 534.41 600.41 534.39 600.45 534.37 600.48 534.35 600.51 534.33 600.54 534.33 600.58 534.33 600.61 534.33 600.64 534.35 600.67 534.36 600.7 534.34 600.73 534.31 600.77 534.29 600.8 534.28 600.82 534.27 600.83 534.25 600.87 534.23 600.92 534.22 600.9 534.18 600.88 534.15 600.87 534.12 600.86 534.1 600.86 534.08 600.88 534.06 600.91 533.99 600.99 533.94 601.05 533.88 601.09 533.82 601.13 533.75 601.16 533.7 601.19 533.63 601.22 533.6 601.23 533.56 601.23 533.54 601.23 533.52 601.23 533.48 601.23 533.42 601.24 533.41 601.24 533.36 601.24 533.32 601.25 533.28 601.26 533.23 601.28 533.19 601.29 533.15 601.29 533.13 601.28 533.1 601.28 533.06 601.28 533.04 601.3 533.03 601.31 533.03 601.34 533.02 601.37 533.01 601.41 533 601.43 532.99 601.45 532.97 601.46 532.93 601.46 532.89 601.46 532.85 601.45 532.8 601.44 532.78 601.43 532.73 601.41 532.71 601.4 532.6 601.37 532.51 601.35 532.5 601.35 532.48 601.36 532.46 601.37 532.44 601.39 532.43 601.41 532.41 601.42 532.38 601.43 532.34 601.45 532.31 601.47 532.26 601.46 532.22 601.45 532.17 601.45 532.12 601.44 532.07 601.42 532.03 601.4 532.01 601.39 531.97 601.38 531.94 601.36 531.92 601.37 531.89 601.37 531.87 601.35 531.84 601.33 531.82 601.32 531.76 601.3 531.71 601.28 531.65 601.26 531.6 601.24 531.55 601.22 531.54 601.22 531.53 601.21 531.5 601.2 531.47 601.19 531.43 601.18 531.39 601.18 531.35 601.16 531.31 601.15 531.26 601.14 531.21 601.13 531.15 601.1 531.08 601.08 531.03 601.06 530.98 601.04 530.95 601.03 530.89 601.01 530.84 601 530.78 600.98 530.77 600.98 530.7 600.96 530.58 600.92 530.47 600.89 530.37 600.86 530.36 600.85 530.23 600.81 530.23 600.81 530.22 600.8 530.15 600.78 530.06 600.77 529.89 600.73 529.71 600.68 529.64 600.67 529.63 600.67 529.61 600.66 529.58 600.66 529.54 600.65 529.51 600.64 529.49 600.64 529.45 600.62 529.31 600.62 529.27 600.62 529.2 600.62 529.15 600.62 529.09 600.62 529.05 600.63 529.01 600.64 528.97 600.64 528.92 600.66 528.89 600.67 528.86 600.68 528.83 600.71 528.81 600.72 528.77 600.73 528.76 600.73 528.73 600.73 528.68 600.73 528.64 600.74 528.57 600.74 528.5 600.74 528.44 600.74 528.38 600.74 528.33 600.74 528.27 600.75 528.21 600.75 528.17 600.75 528.15 600.75 528.14 600.75 528.12 600.75 528.1 600.75 528.07 600.76 528.04 600.75 527.99 600.74 527.98 600.74 527.96 600.73 527.95 600.72 527.91 600.7 527.88 600.68 527.85 600.66 527.82 600.63 527.78 600.6 527.75 600.58 527.72 600.55 527.7 600.53 527.67 600.51 527.64 600.5 527.61 600.48 527.57 600.48 527.55 600.48 527.52 600.48 527.47 600.5 527.4 600.51 527.34 600.53 527.3 600.54 527.27 600.54 527.24 600.53 527.21 600.51 527.16 600.48 527.13 600.46 527.1 600.44 527.08 600.42 527.06 600.42 527.04 600.42 527.02 600.42 526.99 600.43 526.97 600.43 526.95 600.42 526.94 600.42 526.93 600.42 526.89 600.42 526.86 600.44 526.81 600.45 526.77 600.46 526.73 600.48 526.69 600.49 526.67 600.49 526.63 600.5 526.61 600.52 526.58 600.52 526.56 600.52 526.54 600.52 526.52 600.5 526.51 600.49 526.49 600.46 526.46 600.45 526.44 600.44 526.41 600.42 526.39 600.4 526.38 600.38 526.36 600.37 526.34 600.37 526.31 600.37 526.28 600.37 526.24 600.36 526.21 600.35 526.17 600.35 526.13 600.34 526.09 600.34 526.04 600.33 525.98 600.31 525.95 600.31 525.93 600.31 525.91 600.31 525.89 600.3 525.87 600.29 525.84 600.28 525.8 600.26 525.76 600.24 525.73 600.22 525.7 600.2 525.67 600.17 525.65 600.16 525.64 600.15 525.6 600.12 525.57 600.1 525.54 600.07 525.51 600.05 525.47 600.02 525.44 599.99 525.42 599.97 525.39 599.95 525.36 599.93 525.33 599.9 525.3 599.89 525.27 599.89 525.25 599.89 525.22 599.91 525.19 599.94 525.16 599.95 525.13 599.97 525.11 599.99 525.1 600.02 525.09 600.05 525.07 600.06 525.06 600.06 525.06 600.07 525.04 600.07 525.02 600.06 524.99 600.05 524.96 600.05 524.9 600.06 524.87 600.05 524.84 600.05 524.82 600.04 524.79 600.04 524.75 600.04 524.72 600.04 524.69 600.03 524.66 600.03 524.63 600.03 524.59 600.04 524.56 600.05 524.53 600.06 524.52 600.08 524.51 600.09 524.5 600.1 524.5 600.07 524.5 600.05 524.51 600.03 524.52 600 524.53 599.99 524.56 599.99 524.58 599.97 524.59 599.95 524.6 599.93 524.62 599.92 524.64 599.91 524.66 599.89 524.67 599.88 524.68 599.86 524.71 599.85 524.73 599.83 524.74 599.8 524.75 599.79 524.76 599.78 524.77 599.77 524.81 599.74 524.84 599.7 524.87 599.67 524.9 599.64 524.93 599.61 524.97 599.57 524.99 599.55 525.03 599.52 525.07 599.5 525.11 599.48 525.14 599.46 525.17 599.43 525.2 599.41 525.24 599.38 525.28 599.35 525.3 599.33 525.33 599.29 525.35 599.28 525.39 599.26 525.41 599.24 525.43 599.23 525.45 599.21 525.46 599.19 525.48 599.19 525.5 599.18 525.51 599.17 525.53 599.15 525.55 599.13 525.57 599.11 525.6 599.09 525.63 599.07 525.65 599.05 525.68 599.03 525.7 599 525.74 598.97 525.77 598.94 525.8 598.92 525.83 598.89 525.87 598.86 525.91 598.83 525.94 598.81 525.98 598.78 526.01 598.76 526.04 598.75 526.05 598.73 526.06 598.7 526.07 598.69 526.1 598.68 526.13 598.68 526.16 598.67 526.19 598.66 526.21 598.65 526.23 598.63 526.25 598.62 526.29 598.61 526.34 598.59 526.38 598.58 526.43 598.56 526.46 598.55 526.49 598.53 526.52 598.52 526.55 598.5 526.59 598.48 526.62 598.46 526.66 598.45 526.68 598.44 526.7 598.43 526.71 598.42 526.72 598.41 526.75 598.4 526.78 598.39 526.81 598.38 526.84 598.37 526.87 598.36 526.89 598.35 526.92 598.33 526.95 598.32 526.99 598.3 527.01 598.29 527.05 598.27 527.07 598.25 527.09 598.24 527.11 598.23 527.13 598.23 527.14 598.23 527.15 598.23 527.17 598.24 527.19 598.24 527.21 598.23 527.24 598.22 527.27 598.18 527.31 598.15 527.32 598.14 527.32 598.11 527.33 598.07 527.33 598.05 527.33 598.01 527.34 597.97 527.35 597.92 527.35 597.87 527.36 597.82 527.37 597.78 527.38 597.72 527.39 597.66 527.39 597.6 527.4 597.52 527.41 597.46 527.42 597.4 527.43 597.34 527.43 597.3 527.43 597.28 527.41 597.26 527.4 597.25 527.39 597.23 527.39 597.2 527.39 597.17 527.39 597.15 527.39 597.11 527.39 597.07 527.4 597.03 527.4 597 527.4 596.95 527.4 596.88 527.41 596.81 527.41 596.75 527.42 596.68 527.42 596.6 527.43 596.54 527.43 596.51 527.45 596.49 527.47 596.47 527.49 596.47 527.59 596.52 527.72 596.59 527.8 596.63 527.81 596.64 527.84 596.61 527.88 596.56 527.92 596.51 527.95 596.47 527.97 596.45 527.98 596.44 527.99 596.43 528.03 596.39 528.05 596.36 528.02 596.36 527.96 596.34 527.98 596.28 528.01 596.21 528.03 596.15 528.04 596.14 528.09 596.16 528.15 596.18 528.2 596.19 528.25 596.21 528.29 596.21 528.29 596.18 528.3 596.17 528.3 596.15 528.31 596.11 528.29 596.1 528.29 596.08 528.29 596.06 528.3 596.03 528.3 596.02 528.3 596 528.28 595.99 528.26 595.97 528.22 595.93 528.18 595.89 528.16 595.85 528.13 595.82 528.11 595.78 528.09 595.75 528.08 595.74 528.05 595.72 528.02 595.69 528 595.67 527.95 595.64 528 595.6 528.03 595.58 528.08 595.54 528.09 595.53 528.18 595.45 528.23 595.41 528.24 595.39 528.24 595.36 528.34 595.42 528.4 595.32 528.43 595.27 528.37 595.23 528.35 595.21 528.34 595.2 528.34 595.18 528.35 595.16 528.38 595.12 528.42 595.14 528.45 595.16 528.47 595.18 528.49 595.2 528.52 595.16 528.54 595.12 528.57 595.07 528.58 595.03 528.59 595.02 528.6 594.99 528.52 594.95 528.54 594.9 528.55 594.88 528.57 594.85 528.54 594.83 528.55 594.8 528.58 594.76 528.6 594.73 528.63 594.73 528.64 594.72 528.65 594.72 528.66 594.7 528.68 594.67 528.69 594.65 528.73 594.59 528.76 594.55 528.78 594.51 528.81 594.47 528.83 594.45 528.85 594.46 528.86 594.46 528.89 594.45 528.93 594.44 528.99 594.42 529.05 594.4 529.11 594.37 529.16 594.35 529.2 594.33 529.2 594.31 529.2 594.3 529.2 594.28 529.19 594.23 529.18 594.22 529.18 594.2 529.18 594.18 529.18 594.17 529.17 594.16 529.17 594.16 529.16 594.13 529.15 594.12 529.15 594.11 529.14 594.09 529.12 594.07 529.11 594.04 529.11 594.02 529.11 594.01 529.15 593.89 529.2 593.75 529.18 593.76 529.16 593.78 529.16 593.79 529.14 593.81 529.13 593.84 529.09 593.81 529.02 593.75 528.97 593.71 528.95 593.7 528.98 593.67 529 593.66 529 593.65 529.04 593.61 529.05 593.61 529.07 593.58 529.1 593.53 529.09 593.51 529.08 593.5 528.76 593.16 528.72 593.13 528.74 593.11 528.83 593.03 528.83 593.03 528.85 593 528.88 592.96 528.92 592.9 528.96 592.83 529.01 592.76 529.06 592.71 529.09 592.66 529.14 592.62 529.15 592.62 529.2 592.65 529.28 592.71 529.31 592.68 529.32 592.66 529.37 592.61 529.19 592.49 529.19 592.48 529.17 592.47 529.06 592.39 529.04 592.38 528.97 592.35 528.87 592.29 528.82 592.27 528.81 592.26 528.85 592.19 528.87 592.16 528.86 592.15 528.83 592.13 528.8 592.11 528.75 592.07 528.68 592.02 528.62 591.96 528.57 591.89 528.52 591.84 528.5 591.78 528.47 591.71 528.44 591.64 528.42 591.57 528.38 591.53 528.33 591.46 528.28 591.41 528.23 591.36 528.17 591.31 528.14 591.29 528.11 591.27 528.08 591.26 528.06 591.24 528.02 591.23 527.98 591.21 527.95 591.19 527.92 591.17 527.9 591.13 527.88 591.1 527.85 591.07 527.83 591.05 527.82 591.02 527.81 590.98 527.79 590.93 527.78 590.91 527.77 590.89 527.73 590.85 527.7 590.84 527.65 590.82 527.61 590.82 527.57 590.8 527.54 590.8 527.5 590.79 527.44 590.77 527.39 590.75 527.36 590.72 527.34 590.69 527.33 590.66 527.29 590.65 527.28 590.65 527.25 590.67 527.23 590.7 527.21 590.75 527.2 590.82 527.19 590.93 527.18 591.02 527.17 591.11 527.16 591.17 527.16 591.24 527.14 591.31 527.13 591.39 527.12 591.45 527.11 591.5 527.09 591.57 527.08 591.61 527.08 591.67 527.1 591.73 527.1 591.77 527.08 591.8 527.06 591.82 527.05 591.82 527 591.84 526.93 591.86 526.9 591.88 526.88 591.89 526.83 591.9 526.78 591.89 526.73 591.88 526.71 591.86 526.67 591.86 526.63 591.85 526.58 591.82 526.53 591.79 526.49 591.75 526.44 591.71 526.39 591.67 526.35 591.63 526.32 591.62 526.31 591.61 526.26 591.58 526.21 591.54 526.17 591.51 526.13 591.48 526.11 591.46 526.1 591.44 526.06 591.42 526.03 591.4 526.02 591.38 526 591.36 525.98 591.33 525.96 591.31 525.91 591.29 525.89 591.26 525.85 591.22 525.82 591.19 525.78 591.16 525.76 591.13 525.75 591.09 525.74 591.08 525.76 591.06 525.79 591.04 525.81 590.99 525.84 590.95 525.86 590.92 525.86 590.9 525.85 590.88 525.84 590.86 525.81 590.83 525.79 590.81 525.77 590.78 525.75 590.75 525.74 590.72 525.72 590.73 525.68 590.74 525.65 590.76 525.62 590.78 525.62 590.8 525.61 590.83 525.58 590.85 525.55 590.88 525.52 590.91 525.49 590.94 525.47 590.96 525.44 590.97 525.39 590.98 525.33 591.01 525.3 591.03 525.28 591.07 525.27 591.12 525.26 591.18 525.23 591.22 525.18 591.27 525.14 591.31 525.08 591.37 525.05 591.41 525.02 591.49 524.98 591.54 524.96 591.55 524.93 591.55 524.9 591.55 524.88 591.57 524.84 591.6 524.83 591.63 524.83 591.66 524.85 591.7 524.87 591.76 524.89 591.79 524.91 591.83 524.91 591.86 524.91 591.89 524.9 591.92 524.88 591.96 524.86 592.01 524.83 592.04 524.79 592.07 524.75 592.09 524.71 592.11 524.68 592.11 524.65 592.14 524.61 592.17 524.58 592.2 524.55 592.22 524.52 592.23 524.48 592.24 524.44 592.26 524.41 592.29 524.38 592.32 524.37 592.36 524.37 592.41 524.38 592.46 524.38 592.5 524.38 592.55 524.37 592.59 524.36 592.63 524.34 592.66 524.31 592.67 524.28 592.69 524.25 592.71 524.24 592.72 524.23 592.75 524.23 592.77 524.21 592.8 524.19 592.83 524.18 592.84 524.16 592.87 524.12 592.92 524.11 592.94 524.09 592.96 524.09 592.98 524.09 592.99 524.09 593.01 524.11 593.03 524.12 593.05 524.13 593.08 524.13 593.1 524.12 593.11 524.09 593.12 524.05 593.13 524.02 593.12 523.99 593.12 523.97 593.12 523.95 593.11 523.93 593.12 523.9 593.14 523.89 593.16 523.88 593.2 523.86 593.25 523.86 593.26 523.85 593.3 523.83 593.34 523.8 593.38 523.77 593.41 523.76 593.42 523.74 593.44 523.7 593.45 523.69 593.46 523.67 593.46 523.65 593.47 523.63 593.48 523.59 593.48 523.56 593.49 523.55 593.5 523.54 593.5 523.48 593.54 523.44 593.56 523.41 593.6 523.39 593.64 523.38 593.65 523.34 593.68 523.32 593.69 523.29 593.71 523.28 593.72 523.26 593.75 523.24 593.79 523.22 593.84 523.2 593.87 523.17 593.9 523.16 593.91 523.13 593.93 523.08 593.96 523.02 593.97 522.99 594 522.96 594.03 522.93 593.99 522.89 593.95 522.84 593.91 522.8 593.88 522.81 593.87 522.83 593.86 522.85 593.87 522.89 593.86 522.9 593.85 522.92 593.83 522.93 593.81 522.96 593.8 522.98 593.82 523.01 593.85 523.03 593.89 523.07 593.89 523.1 593.88 523.13 593.88 523.17 593.86 523.2 593.84 523.21 593.81 523.22 593.78 523.23 593.75 523.26 593.71 523.29 593.7 523.3 593.66 523.3 593.65 523.3 593.65 523.31 593.62 523.32 593.61 523.33 593.58 523.35 593.56 523.37 593.54 523.39 593.51 523.42 593.49 523.43 593.46 523.44 593.44 523.46 593.42 523.47 593.41 523.49 593.39 523.51 593.36 523.51 593.35 523.5 593.33 523.49 593.32 523.49 593.3 523.5 593.28 523.48 593.27 523.47 593.25 523.46 593.24 523.47 593.22 523.5 593.21 523.51 593.19 523.51 593.18 523.49 593.17 523.48 593.15 523.46 593.14 523.45 593.13 523.45 593.12 523.44 593.11 523.44 593.1 523.44 593.1 523.43 593.09 523.43 593.08 523.43 593.06 523.44 593.04 523.45 593.03 523.47 593.02 523.49 592.99 523.5 592.98 523.52 592.94 523.55 592.9 523.56 592.86 523.56 592.83 523.54 592.8 523.54 592.78 523.54 592.78 523.54 592.75 523.53 592.74 523.51 592.7 523.5 592.67 523.5 592.64 523.51 592.62 523.51 592.59 523.51 592.56 523.5 592.43 523.49 592.41 523.47 592.26 523.47 592.22 523.46 592.16 523.46 592.14 523.46 592.13 523.46 592.09 523.46 592.05 523.46 592.02 523.46 592 523.44 591.98 523.42 591.96 523.41 591.94 523.4 591.92 523.38 591.91 523.36 591.91 523.34 591.9 523.33 591.9 523.33 591.89 523.32 591.87 523.32 591.85 523.31 591.83 523.31 591.81 523.31 591.78 523.31 591.75 523.3 591.73 523.28 591.73 523.26 591.71 523.25 591.69 523.24 591.67 523.24 591.63 523.24 591.59 523.24 591.55 523.24 591.52 523.23 591.49 523.23 591.47 523.22 591.46 523.22 591.46 523.18 591.44 523.16 591.43 523.13 591.41 523.11 591.38 523.1 591.35 523.07 591.33 523.06 591.32 523.01 591.36 522.99 591.37 522.97 591.38 522.96 591.38 522.94 591.38 522.92 591.38 522.9 591.4 522.89 591.41 522.88 591.41 522.86 591.41 522.84 591.41 522.82 591.45 522.8 591.43 522.75 591.38 522.7 591.33 522.51 591.18 522.5 591.17 522.47 591.18 522.43 591.18 522.37 591.13 522.18 591 522.15 590.95 522.11 590.92 522.05 590.87 522.01 590.83 522 590.82 521.97 590.79 521.93 590.74 521.9 590.7 521.86 590.65 521.8 590.59 521.76 590.54 521.74 590.52 521.71 590.5 521.7 590.49 521.69 590.49 521.64 590.45 521.58 590.4 521.57 590.4 521.53 590.35 521.51 590.32 521.49 590.29 521.47 590.25 521.43 590.2 521.37 590.16 521.34 590.13 521.29 590.07 521.22 589.99 521.16 589.93 521.15 589.92 521.14 589.89 521.13 589.86 521.12 589.83 521.12 589.81 521.09 589.79 521.08 589.76 521.07 589.75 521.05 589.72 521.05 589.71 521.04 589.7 521.04 589.69 521.03 589.66 521.02 589.61 521.02 589.56 521.02 589.53 521.03 589.52 521.05 589.49 521.07 589.48 521.08 589.46 521.12 589.39 521.15 589.33 521.19 589.27 521.21 589.24 521.21 589.22 521.2 589.19 521.19 589.15 521.19 589.13 521.19 589.09 521.21 589.01 521.22 588.97 521.26 588.86 521.27 588.83 521.27 588.81 521.28 588.78 521.29 588.74 521.29 588.72 521.28 588.68 521.27 588.64 521.26 588.58 521.26 588.57 521.25 588.51 521.25 588.48 521.25 588.44 521.24 588.39 521.23 588.37 521.22 588.35 521.2 588.32 521.19 588.29 521.16 588.22 521.14 588.14 521.14 588.07 521.14 588.05 521.14 588 521.13 587.96 521.12 587.92 521.09 587.87 521.05 587.79 521.03 587.72 521.01 587.63 521 587.56 521 587.51 520.99 587.45 521 587.42 520.99 587.39 520.98 587.33 520.98 587.26 520.97 587.19 520.97 587.15 520.96 587.12 520.95 587.11 520.94 587.08 520.94 587.06 520.93 587.01 520.92 586.96 520.92 586.95 520.92 586.9 520.92 586.84 520.91 586.8 520.9 586.72 520.88 586.63 520.86 586.58 520.86 586.54 520.86 586.5 520.85 586.47 520.84 586.44 520.81 586.41 520.79 586.41 520.78 586.4 520.75 586.37 520.71 586.32 520.7 586.28 520.69 586.25 520.69 586.22 520.68 586.18 520.68 586.11 520.67 586.04 520.67 585.96 520.68 585.91 520.69 585.86 520.72 585.83 520.74 585.81 520.77 585.8 520.79 585.78 520.82 585.76 520.86 585.74 520.9 585.71 520.98 585.66 521.02 585.62 521.03 585.61 521.08 585.54 521.1 585.5 521.12 585.48 521.14 585.43 521.16 585.37 521.17 585.35 521.18 585.29 521.19 585.23 521.19 585.21 521.18 585.16 521.18 585.14 521.16 585.1 521.13 585.02 521.09 584.96 521.04 584.91 521.01 584.89 520.98 584.88 520.93 584.87 520.92 584.88 520.89 584.89 520.86 584.88 520.83 584.86 520.8 584.85 520.75 584.84 520.72 584.83 520.68 584.81 520.62 584.81 520.57 584.81 520.52 584.83 520.5 584.83 520.46 584.84 520.38 584.86 520.32 584.87 520.28 584.88 520.24 584.88 520.22 584.88 520.21 584.86 520.17 584.84 520.15 584.82 520.1 584.78 520.06 584.75 520.04 584.73 520 584.72 519.98 584.71 519.94 584.7 519.89 584.7 519.85 584.71 519.81 584.75 519.8 584.77 519.79 584.79 519.75 584.84 519.73 584.88 519.7 584.93 519.69 584.94 519.69 584.95 519.68 584.96 519.66 584.99 519.63 585 519.6 584.99 519.53 584.94 519.46 584.89 519.38 584.83 519.34 584.8 519.31 584.78 519.26 584.77 519.2 584.77 519.16 584.77 519.15 584.77 519.11 584.76 519.07 584.75 519.05 584.74 519.03 584.75 519 584.76 518.95 584.76 518.92 584.75 518.91 584.75 518.87 584.75 518.84 584.75 518.81 584.75 518.78 584.75 518.77 584.76 518.75 584.78 518.74 584.8 518.74 584.86 518.73 584.88 518.72 584.92 518.69 584.94 518.66 584.96 518.63 584.96 518.61 584.96 518.59 584.93 518.57 584.91 518.56 584.89 518.53 584.86 518.52 584.85 518.48 584.82 518.45 584.79 518.45 584.78 518.44 584.75 518.42 584.7 518.4 584.66 518.38 584.65 518.35 584.65 518.29 584.63 518.24 584.62 518.19 584.61 518.14 584.59 518.08 584.58 518.03 584.58 517.99 584.58 517.97 584.57 517.96 584.58 517.95 584.58 517.93 584.59 517.9 584.62 517.88 584.64 517.87 584.68 517.83 584.72 517.78 584.74 517.75 584.73 517.73 584.72 517.72 584.7 517.69 584.66 517.69 584.64 517.68 584.61 517.66 584.59 517.63 584.58 517.61 584.59 517.57 584.6 517.52 584.6 517.49 584.61 517.45 584.6 517.41 584.59 517.38 584.59 517.35 584.6 517.29 584.59 517.2 584.58 517.14 584.56 517.08 584.56 517.02 584.55 516.95 584.55 516.87 584.55 516.82 584.54 516.78 584.52 516.7 584.5 516.62 584.49 516.58 584.48 516.55 584.49 516.54 584.48 516.52 584.47 516.51 584.46 516.5 584.45 516.49 584.42 516.46 584.29 516.45 584.13 516.45 584.12 516.44 584.09 516.42 584.06 516.4 584.03 516.38 583.99 516.37 583.95 516.36 583.88 516.35 583.84 516.34 583.8 516.33 583.77 516.31 583.74 516.28 583.72 516.27 583.7 516.25 583.69 516.24 583.68 516.23 583.67 516.22 583.65 516.22 583.64 516.24 583.6 516.28 583.5 516.32 583.45 516.34 583.44 516.36 583.42 516.41 583.42 516.52 583.41 516.56 583.39 516.59 583.37 516.61 583.34 516.63 583.31 516.66 583.3 516.7 583.3 516.72 583.3 516.76 583.31 516.83 583.32 516.9 583.32 517 583.32 517.02 583.31 517.04 583.29 517.05 583.27 517.08 583.25 517.11 583.24 517.15 583.25 517.17 583.25 517.19 583.26 517.21 583.28 517.24 583.29 517.27 583.3 517.34 583.3 517.38 583.3 517.45 583.3 517.54 583.31 517.59 583.31 517.63 583.31 517.64 583.31 517.74 583.3 517.81 583.28 517.82 583.28 517.84 583.26 517.85 583.22 517.84 583.19 517.84 583.17 517.84 583.15 517.83 583.12 517.82 583.06 517.79 582.95 517.78 582.9 517.76 582.83 517.76 582.78 517.77 582.71 517.78 582.65 517.78 582.6 517.76 582.56 517.74 582.5 517.7 582.44 517.66 582.4 517.61 582.36 517.59 582.35 517.57 582.35 517.57 582.35 517.54 582.35 517.5 582.34 517.46 582.33 517.44 582.31 517.43 582.27 517.43 582.26 517.42 582.22 517.38 582.12 517.37 582.1 517.38 582.07 517.4 582.05 517.43 581.96 517.5 581.82 517.55 581.72 517.6 581.64 517.61 581.62 517.62 581.61 517.63 581.59 517.65 581.58 517.67 581.56 517.69 581.56 517.7 581.53 517.17 581.4 516.64 581.27 516.43 581.22 516.29 581.18 515.9 581.1 515.61 581 515.05 580.81 514.42 580.59 514 580.44 513.72 580.31 513.3 580.13 512.87 579.93 512.28 579.68 511.68 579.42 511.13 579.18 510.96 579.11 510.87 579.08 510.81 579.07 510.72 579.06 510.54 579.05 510.43 579.04 510.14 579.02 509.94 579 509.76 578.99 509.61 578.97 509.49 578.96 509.39 578.95 509.38 578.96 509.38 578.98 509.38 579.11 509.37 579.2 509.37 579.21 509.37 579.25 509.37 579.31 509.37 579.42 509.37 579.44 509.39 579.52 509.4 579.57 509.43 579.72 509.46 579.84 509.47 579.92 509.49 580.01 509.5 580.08 509.51 580.13 509.52 580.21 509.54 580.4 509.55 580.45 509.56 580.58 509.59 580.83 509.61 581.03 509.64 581.23 509.65 581.34 509.65 581.42 509.68 581.63 509.69 581.76 509.7 581.8 509.71 581.98 509.74 582.16 509.75 582.24 509.77 582.4 509.79 582.62 509.81 582.83 509.83 582.97 509.83 583.03 509.84 583.08 509.84 583.18 509.85 583.21 509.86 583.28 509.89 583.45 509.9 583.51 509.93 583.68 509.96 583.89 509.99 584.14 509.99 584.15 510 584.18 510 584.19 510.02 584.37 510.02 584.38 510.03 584.41 510.04 584.49 510.06 584.85 510.06 584.98 510.06 584.99 510.06 585.02 510.06 585.11 510.08 585.19 510.1 585.33 510.14 585.56 510.17 585.74 510.2 585.95 510.2 585.97 510.32 586.11 510.42 586.23 510.52 586.35 510.55 586.39 510.56 586.39 510.57 586.41 510.58 586.43 510.54 586.41 510.35 586.33 510.2 586.27 510.14 586.27 510.08 586.28 510.01 586.28 509.91 586.28 509.8 586.28 509.75 586.31 509.74 586.36 509.74 586.41 509.7 586.46 509.66 586.52 509.57 586.6 509.45 586.67 509.38 586.75 509.33 586.82 509.27 586.99 509.18 587.14 509.04 587.29 508.87 587.43 508.73 587.54 508.54 587.6 508.48 587.64 508.41 587.66 508.38 587.65 508.34 587.61 508.32 587.58 508.32 587.55 508.35 587.46 508.36 587.37 508.34 587.34 508.3 587.3 508.21 587.25 508.18 587.22 508.14 587.21 508.11 587.2 507.93 587.16 507.71 587.12 507.5 587.07 507.36 587.04 507.23 587.06 507.09 587.09 507.05 587.12 506.91 587.21 506.78 587.29 506.78 587.3 506.76 587.3 506.76 587.31 506.56 587.48 506.41 587.63 506.28 587.72 506.19 587.8 506.13 587.88 506.1 587.9 505.96 587.99 505.83 588.03 505.65 588.06 505.56 588.06 505.5 588.03 505.43 587.96 505.37 587.88 505.36 587.85 505.35 587.78 505.36 587.67 505.39 587.56 505.45 587.42 505.53 587.3 505.56 587.23 505.61 587.11 505.62 587.05 505.6 587.01 505.53 586.92 505.5 586.88 505.49 586.82 505.48 586.74 505.48 586.65 505.47 586.56 505.41 586.41 505.36 586.3 505.34 586.27 505.25 586.14 505.16 586 505.16 585.96 505.17 585.92 505.14 585.88 504.95 585.85 504.91 585.84 504.89 585.84 503.82 585.66 503.32 585.57 503.18 585.55 503.09 585.53 503.06 585.53 502.63 585.46 502.46 585.43 502.32 585.4 502.05 585.36 501.7 585.29 501.63 585.31 501.61 585.32 501.57 585.32 501.49 585.33 501.22 585.36 501.12 585.37 500.9 585.4 500.82 585.39 500.8 585.39 500.69 585.38 500.52 585.36 500.38 585.34 500.28 585.32 500.19 585.31 500.05 585.29 500.03 585.29 499.86 585.26 499.62 585.24 499.32 585.24 498.99 585.25 498.71 585.26 498.58 585.26 498.52 585.28 498.27 585.35 498.1 585.39 497.98 585.41 497.77 585.42 497.6 585.43 497.51 585.43 497.5 585.43 497.49 585.42 497.46 585.41 497.43 585.38 497.41 585.35 497.32 585.38 497.28 585.39 497.27 585.39 497.26 585.41 497.26 585.42 497.25 585.44 497.24 585.45 497.24 585.46 497.19 585.55 497.09 585.77 497.04 585.88 497.04 585.89 497 585.97 496.9 586.18 496.73 586.54 496.7 586.62 496.56 586.92 496.55 586.94 496.53 586.99 496.47 587.12 496.42 587.21 496.42 587.22 496.41 587.23 496.37 587.32 496.33 587.4 496.33 587.41 496.32 587.42 496.32 587.43 496.27 587.54 496.24 587.6 496.23 587.61 496.21 587.68 496.2 587.69 496.19 587.7 496.18 587.72 496.12 587.86 496.04 588.03 496 588.11 495.95 588.22 495.95 588.22 495.9 588.32 495.85 588.43 495.83 588.47 495.8 588.54 495.76 588.62 495.74 588.67 495.7 588.75 495.66 588.84 495.65 588.86 495.64 588.87 495.64 588.88 495.61 588.95 495.6 588.96 495.58 589.01 495.53 589.12 495.5 589.19 495.49 589.2 495.44 589.32 495.44 589.33 495.49 589.48 495.49 589.49 495.53 589.58 495.54 589.59 495.58 589.7 495.58 589.72 495.59 589.73 495.62 589.82 495.63 589.82 495.63 589.84 495.67 589.93 495.72 590.05 495.75 590.13 495.76 590.16 495.78 590.2 495.82 590.32 495.82 590.33 495.84 590.36 495.85 590.39 495.88 590.46 495.92 590.58 495.93 590.6 495.95 590.63 495.97 590.68 495.98 590.71 495.98 590.72 495.99 590.74 496.01 590.77 496.03 590.81 496.06 590.88 496.07 590.91 496.12 591.01 496.14 591.05 496.15 591.08 496.19 591.16 496.2 591.19 496.22 591.25 496.27 591.35 496.29 591.41 496.3 591.42 496.31 591.45 496.34 591.51 496.34 591.52 496.36 591.55 496.37 591.58 496.38 591.61 496.4 591.64 496.49 591.86 496.54 591.96 496.54 591.97 496.56 592.01 496.63 592.16 496.66 592.22 496.67 592.24 496.71 592.34 496.71 592.35 496.72 592.37 496.73 592.38 496.75 592.45 496.76 592.46 496.77 592.5 496.8 592.56 496.81 592.58 496.82 592.6 496.84 592.65 496.88 592.74 496.89 592.76 496.99 592.99 497.06 593.16 497.09 593.22 497.13 593.33 497.17 593.41 497.18 593.43 497.19 593.46 497.21 593.52 497.19 593.54 497.14 593.6 497.12 593.61 497.1 593.63 497.06 593.67 496.93 593.79 496.81 593.9 496.76 593.95 496.68 594 496.49 594.15 496.38 594.23 496.33 594.27 496.3 594.3 496.16 594.41 496 594.52 495.87 594.62 495.77 594.69 495.73 594.73 495.65 594.78 495.61 594.8 495.51 594.87 495.47 594.89 495.43 594.91 495.42 594.92 495.37 594.95 495.22 595.05 495.12 595.12 495.11 595.13 495.05 595.17 495 595.2 494.93 595.26 494.92 595.27 494.63 595.5 494.29 595.8 494.28 595.83 494.26 595.92 494.16 596.39 494.13 596.52 494.07 596.82 494.06 596.87 494.04 596.96 494.03 597.03 494.01 597.06 493.95 597.15 493.89 597.26 493.82 597.39 493.71 597.59 493.63 597.74 493.6 597.79 493.52 597.93 493.51 597.94 493.34 598.22 493.29 598.28 493.16 598.41 493.07 598.51 493.02 598.56 492.92 598.67 492.91 598.69 492.84 598.75 492.69 599.02 492.58 599.21 492.53 599.31 492.5 599.32 492.44 599.34 492.04 599.51 492.03 599.51 491.99 599.55 491.89 599.63 491.79 599.73 491.69 599.81 491.57 599.92 491.52 599.96 491.42 600.04 491.31 600.15 491.22 600.23 491.14 600.3 491.06 600.37 491 600.43 490.96 600.47 490.95 600.48 490.93 600.49 490.84 600.57 490.76 600.65 490.71 600.7 490.66 600.75 490.37 601.02 490.36 601.04 490.35 601.04 490.3 601.09 490.28 601.11 490.27 601.12 490.18 601.2 490.17 601.21 490.17 601.22 489.92 601.45 489.9 601.47 489.81 601.55 489.78 601.58 489.61 601.74 489.5 601.84 489.49 601.85 489.47 601.88 489.38 601.96 489.36 601.98 489.34 601.99 489.3 602.03 489.3 602.04 489.16 602.17 489.15 602.18 489.15 602.18 489.11 602.22 489.09 602.23 489.02 602.3 489.01 602.31 488.55 602.75 488.2 603.08 488.19 603.08 488.13 603.14 488.12 603.15 487.6 603.63 487.58 603.65 487.46 603.75 487.26 603.92 487.25 603.93 487.11 604.05 487.09 604.07 487.07 604.08 487.06 604.1 487.05 604.11 486.96 604.18 486.92 604.21 486.91 604.22 486.83 604.29 486.8 604.32 486.74 604.37 486.73 604.38 486.64 604.48 486.63 604.48 486.57 604.54 486.53 604.59 486.49 604.62 486.49 604.63 486.47 604.64 486.45 604.66 486.39 604.73 486.28 604.82 486.28 604.83 486.22 604.88 486.22 604.88 486.21 604.89 486.2 604.9 486.13 604.97 486.02 605.08 485.99 605.11 485.88 605.21 485.84 605.24 485.76 605.32 485.61 605.45 485.59 605.47 485.57 605.49 485.46 605.59 485.24 605.79 485.11 605.9 485.1 605.91 485.08 605.93 485.04 605.96 484.97 606.01 484.9 606.06 484.74 606.18 484.72 606.19 484.63 606.26 484.48 606.35 484.42 606.39 484.25 606.5 484.22 606.52 484.21 606.52 484.06 606.62 484.05 606.63 484.03 606.64 483.96 606.69 483.77 606.81 483.65 606.89 483.64 606.9 483.53 606.97 482.76 607.46 482.37 607.71 482.35 607.72 482.14 607.88 482.11 607.9 482.04 607.93 481.7 608.14 481.32 608.38 481.13 608.49 480.97 608.62 480.91 608.64 480.85 608.68 480.53 608.87 480.5 608.88 480.48 608.9 480.31 609.01 480.29 609.02 480.24 609.05 479.93 609.24 479.68 609.4 479.63 609.43 479.49 609.52 479.31 609.63 479.3 609.64 479.19 609.71 479.07 609.77 478.77 609.99 478.75 609.97 478.71 609.89 478.66 609.81 478.63 609.8 478.59 609.77 478.58 609.76 478.51 609.7 478.32 609.56 478.24 609.5 478.15 609.44 477.96 609.3 477.89 609.24 477.8 609.18 477.77 609.16 477.72 609.13 477.68 609.08 477.53 609 477.34 608.79 477.18 608.71 477.03 608.52 476.94 608.48 476.93 608.46 476.88 608.41 476.75 608.37 476.26 608.1 476.24 608.1 476.22 608.1 476.2 608.09 476.2 608.09 476.17 608.09 476.1 608.08 475.99 608.06 475.88 608.05 475.78 608.01 475.75 607.99 475.72 607.95 475.68 607.93 475.65 607.9 475.62 607.88 475.6 607.85 475.56 607.81 475.51 607.8 475.46 607.79 475.4 607.8 475.35 607.83 475.3 607.87 475.26 607.9 475.23 607.96 475.21 607.97 475.18 607.99 475.16 607.99 475.13 607.98 475.07 607.98 474.99 607.98 474.93 607.97 474.85 607.96 474.83 607.96 474.8 607.97 474.73 607.98 474.68 607.99 474.56 608.01 474.45 608.03 474.4 608.04 474.38 608.04 474.36 608.05 474.31 608.07 474.3 608.08 474.26 608.09 474.18 608.09 474.04 608.08 473.98 608.08 473.91 608.07 473.84 608.06 473.79 608.09 473.74 608.12 473.69 608.13 473.62 608.14 473.56 608.14 473.51 608.13 473.47 608.17 473.44 608.2 473.4 608.21 473.33 608.23 473.19 608.34 472.9 608.55 472.87 608.59 472.83 608.65 472.81 608.66 472.8 608.67 472.77 608.69 472.74 608.71 472.69 608.73 472.64 608.74 472.58 608.73 472.55 608.71 472.51 608.7 472.47 608.67 472.44 608.64 472.41 608.61 472.39 608.58 472.35 608.58 472.33 608.58 472.3 608.56 472.26 608.54 472.22 608.53 472.17 608.52 472.11 608.51 472.06 608.5 471.99 608.49 471.94 608.48 471.86 608.46 471.81 608.45 471.75 608.45 471.69 608.44 471.67 608.43 471.66 608.43 471.6 608.42 471.48 608.45 471.44 608.44 471.42 608.44 471.39 608.44 471.37 608.46 471.34 608.5 471.31 608.54 471.29 608.55 471.25 608.57 471.21 608.61 471.2 608.64 471.19 608.65 471.14 608.58 471.09 608.5 471.05 608.44 471 608.35 470.96 608.28 470.92 608.26 470.88 608.23 470.88 608.23 470.83 608.19 470.76 608.14 470.7 608.09 470.67 608.05 470.62 608 470.59 607.95 470.55 607.9 470.52 607.85 470.51 607.82 470.5 607.77 470.49 607.74 470.49 607.7 470.48 607.65 470.46 607.59 470.44 607.54 470.43 607.49 470.44 607.46 470.44 607.41 470.45 607.35 470.43 607.32 470.4 607.25 470.35 607.19 470.32 607.11 470.31 607.08 470.26 606.94 470.25 606.89 470.24 606.84 470.23 606.77 470.22 606.73 470.19 606.7 470.18 606.66 470.16 606.6 470.14 606.51 470.12 606.41 470.1 606.32 470.09 606.27 470.07 606.19 470.07 606.18 470.06 606.12 470.06 606.02 470.06 605.99 470.06 605.96 470.05 605.94 470.03 605.88 470.01 605.81 469.99 605.75 469.99 605.69 470 605.62 470 605.56 470 605.51 469.98 605.46 469.97 605.42 469.95 605.37 469.93 605.32 469.9 605.28 469.87 605.25 469.83 605.22 469.81 605.19 469.81 605.18 469.81 605.14 469.8 605.13 469.79 605.1 469.75 605.06 469.71 605.02 469.68 604.99 469.62 604.98 469.58 604.96 469.53 604.91 469.44 604.79 469.43 604.76 469.43 604.72 469.42 604.7 469.41 604.68 469.4 604.68 469.37 604.68 469.31 604.68 469.29 604.68 469.27 604.66 469.26 604.64 469.25 604.63 469.24 604.6 469.23 604.57 469.23 604.54 469.22 604.52 469.2 604.49 469.17 604.43 469.14 604.38 469.11 604.33 469.06 604.3 469.04 604.28 469.03 604.25 469.03 604.2 468.99 604.16 468.88 604.09 468.87 604.06 468.83 604.03 468.81 604 468.8 603.98 468.79 603.89 468.78 603.87 468.72 603.78 468.64 603.67 468.64 603.65 468.65 603.6 468.65 603.58 468.63 603.56 468.56 603.49 468.54 603.46 468.54 603.44 468.54 603.42 468.54 603.4 468.53 603.38 468.53 603.37 468.51 603.36 468.5 603.34 468.41 603.15 468.32 602.94 468.26 602.82 468.2 602.67 468.13 602.51 468.08 602.4 468.04 602.29 468.01 602.21 467.9 601.97 467.9 601.95 467.89 601.93 467.87 601.89 467.84 601.82 467.84 601.81 467.83 601.81 467.77 601.8 467.72 601.79 467.71 601.78 467.68 601.78 467.56 601.76 467.55 601.76 467.52 601.75 467.52 601.71 467.51 601.67 467.51 601.65 467.5 601.6 467.49 601.57 467.47 601.52 467.45 601.48 467.43 601.44 467.39 601.38 467.38 601.36 467.34 601.33 467.31 601.3 467.27 601.28 467.23 601.27 467.22 601.27 467.18 601.26 467.14 601.27 467.12 601.27 467.12 601.25 467.16 601.11 467.21 600.94 467.29 600.69 467.31 600.64 467.33 600.57 467.38 600.49 467.44 600.41 467.53 600.34 467.58 600.3 467.61 600.29 467.65 600.28 467.71 600.27 467.76 600.26 467.89 600.24 468.01 600.22 468.04 600.22 468.21 600.18 468.23 600.18 468.27 600.17 468.29 600.17 468.32 600.16 468.38 600.15 468.44 600.13 468.52 600.09 468.62 600.03 468.66 600 468.73 599.94 468.78 599.89 468.8 599.87 468.82 599.85 468.83 599.83 468.86 599.8 468.91 599.73 468.95 599.68 468.98 599.63 469.01 599.58 469.01 599.56 469.02 599.54 469.15 599.41 469.25 599.27 469.35 599.13 469.41 599.06 469.44 599.01 469.48 598.94 469.53 598.84 469.58 598.75 469.63 598.64 469.68 598.53 469.76 598.36 469.83 598.2 469.89 598.06 469.95 597.95 470.01 597.84 470.05 597.76 470.11 597.67 470.16 597.6 470.22 597.52 470.3 597.43 470.4 597.34 470.55 597.21 470.68 597.11 470.84 596.98 471.23 596.65 471.49 596.42 471.77 596.17 472.13 595.86 472.17 595.85 472.19 595.84 472.26 595.81 472.3 595.8 472.35 595.78 472.4 595.76 472.44 595.75 472.47 595.73 472.63 595.67 472.64 595.67 472.66 595.67 472.73 595.66 472.74 595.66 472.83 595.66 473.06 595.66 473.22 595.66 473.23 595.66 473.25 595.66 473.26 595.66 473.38 595.65 473.4 595.65 473.42 595.65 473.49 595.64 473.58 595.64 473.6 595.64 473.72 595.63 473.74 595.63 473.88 595.62 473.94 595.59 473.94 595.58 474.25 595.4 474.26 595.39 474.36 595.32 474.37 595.31 474.39 595.3 474.41 595.29 474.46 595.26 474.47 595.25 474.5 595.23 474.74 595.08 474.81 595.03 474.82 595.03 474.83 595.02 474.98 594.93 475.02 594.9 475.03 594.89 475.05 594.88 475.17 594.81 475.21 594.79 475.24 594.77 475.25 594.77 475.26 594.77 475.27 594.76 475.34 594.73 475.36 594.73 475.63 594.63 475.64 594.63 475.67 594.62 475.73 594.6 475.74 594.59 475.91 594.54 476.11 594.47 476.33 594.39 476.35 594.39 476.39 594.37 476.41 594.37 476.45 594.35 476.47 594.34 476.5 594.33 476.53 594.33 476.55 594.32 476.69 594.29 476.7 594.28 476.72 594.28 476.76 594.27 476.78 594.27 476.84 594.25 476.85 594.25 477.05 594.2 477.11 594.19 477.25 594.16 477.26 594.15 477.38 594.13 477.4 594.12 477.46 594.11 477.48 594.1 477.6 594.07 477.66 594.06 477.68 594.05 477.7 594.05 477.72 594.04 477.75 594.04 478.06 593.99 478.07 593.99 478.09 593.98 478.13 593.98 478.14 593.98 478.16 593.97 478.42 593.94 478.45 593.93 478.52 593.91 478.64 593.88 478.71 593.87 478.73 593.86 478.77 593.85 478.83 593.83 478.86 593.82 478.9 593.81 479.03 593.78 479.04 593.77 479.19 593.73 479.2 593.73 479.33 593.69 479.42 593.67 479.44 593.66 479.5 593.64 479.61 593.61 479.62 593.61 479.63 593.6 479.68 593.59 479.69 593.59 479.71 593.58 479.76 593.57 479.79 593.56 479.81 593.55 479.85 593.54 479.89 593.53 479.94 593.52 479.97 593.51 479.99 593.5 480.07 593.48 480.11 593.47 480.13 593.46 480.16 593.45 480.21 593.44 480.26 593.43 480.28 593.42 480.29 593.42 480.31 593.41 480.37 593.39 480.45 593.37 480.54 593.35 480.63 593.32 480.67 593.31 480.69 593.31 480.7 593.31 480.72 593.3 480.75 593.29 480.76 593.29 480.77 593.29 480.79 593.26 480.81 593.25 480.83 593.22 480.87 593.18 480.93 593.11 480.97 593.06 480.98 593.05 481.02 593.01 481.08 592.95 481.14 592.89 481.2 592.82 481.26 592.75 481.28 592.73 481.29 592.72 481.32 592.69 481.39 592.61 481.46 592.53 481.51 592.47 481.59 592.39 481.65 592.32 481.7 592.26 481.74 592.23 481.75 592.22 481.76 592.21 481.77 592.21 481.83 592.17 481.91 592.11 482.01 592.06 482.08 592.01 482.16 591.95 482.26 591.89 482.37 591.82 482.39 591.8 482.39 591.8 482.43 591.77 482.46 591.75 482.48 591.76 482.52 591.78 482.55 591.8 482.58 591.82 482.61 591.84 482.64 591.85 482.68 591.87 482.72 591.88 482.75 591.88 482.81 591.9 482.85 591.91 482.9 591.93 482.95 591.95 482.99 591.97 483.02 592 483.05 592.02 483.1 592.05 483.15 592.07 483.19 592.1 483.23 592.13 483.29 592.15 483.32 592.17 483.36 592.19 483.39 592.22 483.44 592.25 483.44 592.25 483.49 592.27 483.52 592.29 483.56 592.3 483.6 592.31 483.66 592.32 483.75 592.35 483.83 592.37 483.88 592.38 483.93 592.39 483.96 592.41 484.01 592.43 484.07 592.46 484.11 592.48 484.16 592.5 484.19 592.52 484.21 592.53 484.21 592.53 484.22 592.52 484.26 592.46 484.28 592.44 484.34 592.35 484.38 592.3 484.38 592.29 484.39 592.28 484.39 592.27 484.4 592.27 484.44 592.21 484.46 592.18 484.47 592.17 484.5 592.13 484.53 592.09 484.54 592.07 484.54 592.06 484.56 592.04 484.61 591.97 484.65 591.92 484.69 591.87 484.72 591.81 484.76 591.76 484.84 591.65 484.87 591.6 484.9 591.57 484.91 591.56 484.93 591.53 484.95 591.51 484.97 591.48 485.01 591.42 485.03 591.4 485.05 591.37 485.09 591.31 485.11 591.27 485.14 591.22 485.17 591.17 485.19 591.12 485.21 591.08 485.21 591.06 485.22 591.04 485.25 590.99 485.26 590.94 485.27 590.93 485.28 590.9 485.29 590.9 485.3 590.87 485.32 590.84 485.33 590.83 485.34 590.81 485.35 590.79 485.37 590.75 485.38 590.73 485.42 590.61 485.5 590.45 485.52 590.39 485.78 589.87 485.9 589.65 485.9 589.63 485.9 589.6 485.89 589.52 485.89 589.51 485.89 589.5 485.88 589.42 485.88 589.36 485.87 589.31 485.87 589.28 485.87 589.26 485.86 589.15 485.86 589.13 485.86 589.12 485.85 589.05 485.85 589.02 485.85 589 485.84 588.94 485.84 588.91 485.84 588.88 485.83 588.78 485.83 588.72 485.82 588.6 485.81 588.48 485.8 588.39 485.8 588.37 485.8 588.36 485.8 588.25 485.8 588.23 485.8 588.19 485.8 588.13 485.8 587.96 485.8 587.86 485.8 587.84 485.8 587.82 485.8 587.72 485.79 587.69 485.77 587.65 485.76 587.65 485.73 587.6 485.71 587.59 485.67 587.56 485.58 587.48 485.49 587.4 485.4 587.32 485.31 587.24 485.21 587.16 485.13 587.1 485.07 587.05 484.99 587 484.98 586.99 484.94 586.97 484.88 586.92 484.9 586.91 484.91 586.9 484.99 586.82 485.29 586.53 485.3 586.52 485.55 586.28 485.58 586.24 485.6 586.23 485.63 586.2 485.7 586.14 485.75 586.08 485.84 585.97 485.98 585.8 486.13 585.62 486.16 585.59 486.25 585.48 486.26 585.46 486.41 585.29 486.42 585.28 486.47 585.22 486.49 585.2 486.5 585.19 486.54 585.14 486.54 585.14 486.59 585.08 486.6 585.07 486.63 585.05 486.67 585.02 486.75 584.95 486.79 584.9 486.83 584.87 486.83 584.86 486.93 584.77 487.07 584.64 487.27 584.45 487.28 584.44 487.29 584.43 487.31 584.41 487.4 584.34 487.78 584 487.91 583.89 487.95 583.86 488 583.82 488.01 583.8 488.07 583.75 488.09 583.73 488.1 583.72 488.11 583.71 488.22 583.6 488.43 583.39 488.57 583.25 488.6 583.22 488.61 583.21 488.83 583 489.18 582.64 489.18 582.64 489.2 582.62 489.22 582.6 489.24 582.58 489.26 582.56 489.29 582.53 489.32 582.48 489.48 582.33 489.49 582.32 489.5 582.32 489.51 582.31 489.57 582.25 489.59 582.23 489.6 582.22 489.85 581.97 489.89 581.95 489.95 581.9 490.09 581.79 490.11 581.77 490.35 581.54 490.37 581.53 490.5 581.43 490.64 581.3 490.67 581.27 490.71 581.24 490.87 581.1 490.91 581.07 490.94 581.04 491.72 580.43 491.73 580.42 492.02 580.19 492.03 580.18 492.04 580.17 492.05 580.15 492.19 580 492.27 579.9 492.28 579.89 492.29 579.89 492.43 579.72 492.48 579.67 492.48 579.67 492.57 579.57 492.58 579.56 492.64 579.49 492.65 579.48 492.75 579.36 492.77 579.35 492.87 579.23 492.88 579.22 493.11 578.96 493.11 578.95 493.24 578.81 493.33 578.71 493.33 578.7 493.44 578.58 493.59 578.4 493.61 578.38 493.65 578.33 493.66 578.32 493.76 578.21 493.8 578.15 493.81 578.15 493.82 578.14 493.82 578.13 493.83 578.12 493.86 578.09 493.89 578.06 493.95 577.98 493.96 577.97 493.97 577.96 493.99 577.94 494.1 577.81 494.13 577.78 494.22 577.69 494.23 577.68 494.25 577.66 494.27 577.63 494.31 577.53 494.31 577.51 494.35 577.42 494.35 577.41 494.37 577.34 494.38 577.33 494.4 577.28 494.4 577.27 494.41 577.24 494.42 577.22 494.43 577.2 494.46 577.1 494.46 577.05 494.46 576.51 494.46 576.5 494.46 576.47 494.49 576.46 494.59 576.41 494.64 576.36 494.65 576.35 494.67 576.33 494.69 576.31 494.74 576.24 494.75 576.23 494.78 576.21 494.83 576.18 494.9 576.14 494.97 576.09 495.03 576.06 495.07 576.04 495.26 575.95 495.3 575.92 495.47 575.84 495.64 575.62 495.84 575.35 495.97 575.18 496.1 575.01 496.19 574.89 496.21 574.87 496.21 574.82 496.21 574.76 496.23 574.64 496.28 574.52 496.61 574.34 496.68 574.31 496.72 574.27 496.92 574.13 497.08 574.01 497.22 573.91 497.29 573.86 497.47 573.7 497.66 573.55 497.93 573.34 498 573.26 498.08 573.21 498.12 573.21 498.16 573.21 498.17 573.21 498.18 573.21 498.25 573.21 498.4 573.21 498.71 573.21 498.93 573.21 499.08 573.22 499.19 573.22 499.23 573.22 499.25 573.2 499.42 573.05 499.73 572.77 499.75 572.76 499.81 572.71 499.86 572.67 499.88 572.66 500.14 572.47 500.17 572.46 500.44 572.27 500.47 572.26 500.48 572.25 500.56 572.21 500.77 572.11 500.82 572.09 500.85 572.07 500.89 572.01 500.91 571.97 500.94 571.92 500.99 571.86 501.05 571.75 501.08 571.72 501.09 571.69 501.1 571.68 501.12 571.65 501.12 571.64 501.14 571.56 501.17 571.46 501.2 571.35 501.24 571.25 501.27 571.14 501.29 571.09 501.31 571.02 501.33 570.96 501.36 570.86 501.36 570.85 501.42 570.68 501.44 570.62 501.43 570.56 501.39 570.42 501.39 570.41 501.38 570.37 501.37 570.31 501.36 570.29 501.36 570.27 501.34 570.18 501.29 569.97 501.25 569.82 501.23 569.76 501.21 569.68 501.19 569.58 501.18 569.5 501.14 569.32 501.09 569.13 501.08 569.07 501.07 569.01 501.05 568.94 501.04 568.85 501.04 568.78 501.02 568.68 501.02 568.61 501 568.46 500.97 568.28 500.95 568.09 500.93 567.95 500.92 567.91 500.9 567.76 500.89 567.66 500.88 567.6 500.87 567.51 500.85 567.43 500.85 567.41 500.84 567.33 500.82 567.22 500.82 567.18 500.81 567.16 500.81 567.14 500.8 567.12 500.78 567.07 500.76 567 500.74 566.93 500.71 566.86 500.67 566.75 500.62 566.58 500.61 566.53 500.59 566.49 500.55 566.38 500.53 566.33 500.52 566.29 500.5 566.24 500.56 566.21 500.66 566.15 500.68 566.13 500.79 566.05 501.05 565.87 501.14 565.81 501.28 565.71 501.38 565.64 501.42 565.62 501.49 565.59 501.61 565.53 501.71 565.48 501.78 565.45 501.82 565.42 501.97 565.35 502.18 565.23 502.35 565.14 502.54 565.01 502.64 564.94 503.01 564.71 503.07 564.66 503.08 564.65 503.26 564.46 503.44 564.27 503.64 564.07 503.77 563.9 503.96 563.67 504 563.62 504.1 563.49 504.11 563.48 504.32 563.22 504.56 562.92 504.67 562.78 504.73 562.7 504.88 562.47 504.94 562.37 505.06 562.13 505.08 562.07 505.14 561.94 505.15 561.94 505.18 561.86 505.19 561.84 505.41 561.5 505.62 561.17 505.74 561.04 505.97 560.81 506.15 560.61 506.16 560.6 506.39 560.33 506.48 560.23 506.64 560.06 506.65 560.05 506.97 559.7 507.03 559.62 507.04 559.62 507.32 559.31 507.34 559.29 507.36 559.27 507.41 559.23 507.54 559.13 507.81 558.95 508 558.8 508.02 558.78 508.03 558.77 508.04 558.75 508.09 558.66 508.18 558.52 508.4 558.14 508.42 558.11 508.52 557.99 508.54 557.97 508.62 557.88 508.67 557.8 508.78 557.67 508.8 557.65 508.82 557.63 508.96 557.46 509.09 557.31 509.12 557.28 509.14 557.24 509.15 557.23 509.16 557.21 509.18 557.17 509.2 557.14 509.21 557.12 509.26 557.05 509.31 556.95 509.35 556.88 509.35 556.87 509.48 556.64 509.56 556.48 509.63 556.34 509.68 556.26 509.68 556.25 509.69 556.24 509.75 556.12 509.76 556.1 509.8 556.03 509.8 556.02 509.83 555.98 509.88 555.91 509.92 555.87 509.93 555.87 509.94 555.85 509.95 555.84 509.98 555.82 510 555.8 510 555.8 510.04 555.76 510.09 555.71 510.1 555.7 510.14 555.67 510.25 555.56 510.39 555.42 510.47 555.34 510.53 555.28 510.54 555.27 510.58 555.23 510.8 555 511.15 554.65 511.49 554.31 511.61 554.2 511.64 554.18 511.96 553.89 512.06 553.8 512.09 553.77 512.1 553.76 512.36 553.53 512.38 553.5 512.64 553.26 512.64 553.25 512.7 553.21 512.72 553.2 512.73 553.19 513.22 552.79 513.28 552.75 513.42 552.63 513.65 552.45 513.81 552.33 513.81 552.3 513.83 552.25 513.87 552.08 513.87 552.07 513.87 552.06 513.94 551.81 513.94 551.8 513.95 551.79 513.95 551.76 513.97 551.67 513.99 551.59 514 551.58 514.01 551.54 514.01 551.52 514.02 551.47 514.08 551.26 514.09 551.22 514.09 551.21 514.03 551.08 514.01 551.02 513.96 550.9 513.95 550.87 513.92 550.81 513.9 550.76 513.88 550.71 513.81 550.53 513.8 550.52 513.8 550.52 513.8 550.51 513.76 550.43 513.73 550.35 513.71 550.31 514.08 549.74 514.13 549.66 514.24 549.48 514.33 549.35 514.39 549.26 514.45 549.24 514.57 549.2 514.78 549.13 514.84 549.11 515.17 549 515.29 548.95 515.4 548.92 515.44 548.9 515.5 548.88 515.52 548.87 515.56 548.86 515.64 548.83 515.67 548.81 515.68 548.81 515.89 548.73 516.23 548.62 516.25 548.61 516.6 548.49 517.49 548.23 518.2 548.01 518.51 547.93 519.48 547.64 519.7 547.58 519.83 547.53 519.96 547.55 520.02 547.56 520.19 547.59 520.22 547.58 520.24 547.58 520.27 547.57 520.34 547.51 520.5 547.37 520.65 547.23 520.77 547.14 521.01 546.96 521.03 546.95 521.36 546.7 521.79 546.39 521.88 546.32 521.97 546.24 522.04 546.18 522.05 546.17 522.12 546.12 522.19 546.06 522.31 545.99 522.41 545.93 522.48 545.91 522.57 545.9 522.6 545.89 522.61 545.87 522.62 545.86 522.63 545.85 522.63 545.84 522.63 545.83 522.53 545.74 522.43 545.65 522.38 545.59 522.31 545.48 522.25 545.39 522.17 545.28 522.14 545.23 522.12 545.2 522.12 545.15 522.11 545.11 522.09 545.07 522.07 545.02 522.02 544.96 521.98 544.9 521.94 544.82 521.92 544.76 521.89 544.69 521.85 544.62 521.81 544.55 521.79 544.51 521.78 544.5 521.77 544.48 521.71 544.42 521.68 544.36 521.64 544.28 521.61 544.2 521.54 544.1 521.5 544.04 521.49 544.03 521.47 544.02 521.31 543.79 521.15 543.6 521.14 543.58 521.09 543.54 521.05 543.49 520.98 543.43 520.78 543.23 520.67 543.11 520.67 543.09 520.69 543.1 520.77 543.13 520.87 543.17 520.96 543.21 521.01 543.22 521.06 543.22 521.12 543.2 521.21 543.16 521.29 543.12 521.36 543.09 521.43 543.06 521.57 543.01 521.86 542.9 522.09 542.81 522.13 542.8 522.85 542.44 522.97 542.38 523.72 542 523.78 541.96 524.17 541.76 524.2 541.71 Z"/>
</g></svg>