<svg xmlns="http://www.w3.org/2000/svg" version="1.2" baseProfile="tiny" stroke-linecap="round" stroke-linejoin="round" viewBox="528.3 279.02 10.63 9.18"><g xmlns="http://www.w3.org/2000/svg" id="Uharte Eguesibar">
<path d="M 532.24 279.04 532.25 279.05 532.25 279.07 532.27 279.09 532.32 279.17 532.32 279.19 532.36 279.24 532.37 279.25 532.38 279.26 532.43 279.3 532.46 279.31 532.46 279.31 532.52 279.34 532.56 279.36 532.6 279.41 532.6 279.41 532.63 279.45 532.68 279.49 532.69 279.5 532.74 279.53 532.79 279.57 532.82 279.6 532.84 279.61 532.9 279.67 532.97 279.73 533.04 279.78 533.11 279.83 533.19 279.89 533.29 279.97 533.31 279.97 533.34 280 533.39 280.04 533.45 280.1 533.5 280.15 533.52 280.19 533.55 280.2 533.63 280.18 533.7 280.17 533.76 280.17 533.85 280.16 533.9 280.15 533.96 280.15 534.03 280.14 534.04 280.14 534.15 280.13 534.24 280.14 534.34 280.16 534.42 280.17 534.47 280.17 534.48 280.18 534.58 280.19 534.68 280.23 534.8 280.27 534.95 280.33 535 280.34 535.14 280.38 535.17 280.39 535.32 280.44 535.33 280.44 535.43 280.43 535.49 280.42 535.51 280.42 535.6 280.42 535.63 280.42 535.64 280.42 535.65 280.42 535.7 280.42 535.76 280.41 535.79 280.41 535.9 280.41 535.92 280.41 536.04 280.41 536.07 280.41 536.21 280.41 536.23 280.41 536.3 280.42 536.32 280.42 536.46 280.45 536.53 280.46 536.63 280.47 536.66 280.48 536.7 280.49 536.87 280.52 536.99 280.54 537.12 280.57 537.15 280.57 537.16 280.57 537.2 280.56 537.3 280.55 537.48 280.53 537.67 280.5 537.74 280.49 537.83 280.48 537.92 280.46 538.01 280.45 538.14 280.43 538.26 280.42 538.32 280.42 538.35 280.42 538.37 280.43 538.39 280.43 538.48 280.46 538.59 280.5 538.6 280.56 538.6 280.59 538.6 280.61 538.62 280.66 538.64 280.76 538.67 280.86 538.69 280.92 538.7 280.93 538.71 280.98 538.75 281.08 538.73 281.1 538.68 281.15 538.64 281.18 538.61 281.21 538.54 281.27 538.49 281.32 538.46 281.34 538.46 281.35 538.49 281.38 538.56 281.44 538.66 281.52 538.72 281.58 538.79 281.64 538.86 281.69 538.88 281.71 538.9 281.73 538.92 281.74 538.89 281.8 538.89 281.81 538.88 281.82 538.88 281.83 538.87 281.84 538.84 281.9 538.8 281.98 538.77 282.06 538.75 282.1 538.74 282.11 538.72 282.15 538.7 282.2 538.67 282.24 538.67 282.26 538.65 282.27 538.65 282.28 538.61 282.31 538.56 282.34 538.47 282.39 538.39 282.44 538.32 282.49 538.26 282.53 538.21 282.57 538.13 282.63 538.05 282.67 538.01 282.7 537.98 282.73 537.96 282.76 537.92 282.81 537.91 282.82 537.9 282.86 537.9 282.87 537.89 282.9 537.88 282.93 537.87 282.98 537.86 283.02 537.86 283.03 537.86 283.07 537.85 283.16 537.85 283.2 537.84 283.29 537.84 283.38 537.83 283.4 537.82 283.49 537.82 283.56 537.82 283.56 537.82 283.58 537.79 283.6 537.75 283.63 537.67 283.69 537.59 283.75 537.47 283.84 537.39 283.91 537.33 283.88 537.31 283.87 537.29 283.86 537.21 283.83 537.18 283.81 537.13 283.79 537.08 283.77 537.05 283.75 536.96 283.71 536.88 283.68 536.87 283.68 536.8 283.71 536.77 283.73 536.67 283.78 536.57 283.84 536.53 283.86 536.52 283.86 536.44 283.9 536.41 283.92 536.38 283.94 536.34 283.99 536.31 284.04 536.25 284.12 536.2 284.18 536.14 284.25 536.1 284.31 536.06 284.37 536.04 284.4 536.02 284.42 536.01 284.45 536 284.46 535.95 284.56 535.91 284.64 535.87 284.72 535.84 284.79 535.8 284.87 535.79 284.91 535.78 284.94 535.77 284.94 535.75 285.01 535.74 285.03 535.73 285.05 535.71 285.05 535.69 285.04 535.64 285.02 535.62 285.01 535.54 284.98 535.53 284.97 535.46 284.94 535.43 284.94 535.4 284.93 535.38 284.93 535.32 284.92 535.24 284.91 535.22 284.91 535.14 284.9 535.07 284.89 535 284.87 534.88 284.86 534.8 284.84 534.68 284.83 534.54 284.81 534.41 284.79 534.39 284.79 534.37 284.79 534.33 284.79 534.32 284.78 534.23 284.77 534.21 284.77 534.1 284.76 534.08 284.75 534.07 284.75 534.03 284.75 533.95 284.74 533.84 284.72 533.77 284.71 533.73 284.71 533.58 284.69 533.56 284.71 533.55 284.73 533.51 284.77 533.45 284.84 533.38 284.9 533.35 284.94 533.33 284.97 533.29 285.02 533.25 285.08 533.2 285.15 533.19 285.17 533.18 285.19 533.16 285.21 533.15 285.23 533.15 285.24 533.12 285.27 533.08 285.33 533.04 285.39 533.03 285.4 533 285.45 532.98 285.49 532.95 285.54 532.9 285.68 532.85 285.78 532.85 285.8 532.83 285.83 532.8 285.9 532.79 285.93 532.71 286.06 532.67 286.13 532.63 286.19 532.62 286.22 532.6 286.26 532.59 286.26 532.58 286.28 532.57 286.29 532.53 286.32 532.41 286.39 532.33 286.44 532.31 286.45 532.25 286.49 532.2 286.53 532.17 286.55 532.15 286.56 532.14 286.57 532.11 286.57 532.08 286.58 532.05 286.58 531.99 286.58 531.94 286.57 531.87 286.57 531.81 286.56 531.77 286.55 531.68 286.54 531.59 286.51 531.48 286.49 531.28 286.44 531.08 286.39 530.95 286.36 530.93 286.4 530.92 286.41 530.92 286.42 530.87 286.48 530.86 286.51 530.82 286.57 530.77 286.64 530.75 286.67 530.71 286.73 530.67 286.78 530.64 286.84 530.58 286.92 530.54 286.98 530.51 287.02 530.48 287.07 530.44 287.11 530.35 287.21 530.27 287.29 530.23 287.34 530.18 287.38 530.14 287.43 530.12 287.44 530.07 287.5 530.02 287.54 529.97 287.6 529.95 287.61 529.91 287.63 529.88 287.66 529.83 287.7 529.8 287.74 529.77 287.77 529.72 287.83 529.67 287.91 529.65 287.94 529.64 287.95 529.62 287.98 529.56 288.06 529.5 288.15 529.46 288.19 529.4 288.17 529.33 288.15 529.29 288.14 529.27 288.13 529.22 288.11 529.15 288.09 529.06 288.07 528.98 288.04 528.93 288.02 528.97 287.97 528.97 287.97 528.98 287.95 528.99 287.94 528.99 287.93 529.02 287.91 529.06 287.87 529.12 287.81 529.16 287.78 529.17 287.76 529.23 287.71 529.26 287.69 529.28 287.67 529.31 287.64 529.36 287.58 529.39 287.56 529.41 287.54 529.42 287.53 529.46 287.49 529.47 287.49 529.52 287.43 529.53 287.42 529.55 287.41 529.49 287.37 529.48 287.29 529.48 287.2 529.48 287.18 529.47 287.04 529.47 287 529.47 286.91 529.47 286.83 529.47 286.78 529.47 286.76 529.47 286.72 529.48 286.65 529.48 286.57 529.48 286.49 529.49 286.44 529.48 286.39 529.47 286.34 529.47 286.3 529.45 286.24 529.44 286.17 529.43 286.09 529.41 286.05 529.38 286.02 529.33 285.98 529.24 285.92 529.19 285.87 529.1 285.8 529.03 285.75 528.94 285.68 528.87 285.61 528.8 285.54 528.75 285.48 528.69 285.43 528.64 285.38 528.6 285.33 528.57 285.29 528.54 285.26 528.5 285.22 528.45 285.17 528.41 285.13 528.39 285.11 528.37 285.09 528.34 285.07 528.33 285.05 528.36 285.01 528.4 284.96 528.44 284.9 528.48 284.84 528.53 284.77 528.57 284.72 528.61 284.66 528.65 284.6 528.7 284.53 528.76 284.45 528.8 284.4 528.83 284.35 528.85 284.33 528.86 284.31 528.89 284.26 528.9 284.23 528.9 284.19 528.91 284.18 528.92 284.17 528.93 284.15 528.94 284.14 528.95 284.13 528.96 284.12 528.97 284.11 528.99 284.1 529 284.08 529.01 284.08 529.02 284.07 529.03 284.06 529.04 284.05 529.05 284.05 529.07 284.03 529.08 284.03 529.09 284.02 529.1 284.02 529.12 284 529.14 283.99 529.17 283.97 529.21 283.94 529.24 283.92 529.27 283.89 529.32 283.85 529.36 283.81 529.38 283.79 529.39 283.78 529.4 283.77 529.41 283.77 529.43 283.76 529.44 283.76 529.47 283.75 529.49 283.75 529.5 283.74 529.52 283.73 529.54 283.71 529.57 283.7 529.58 283.68 529.59 283.68 529.6 283.66 529.62 283.65 529.64 283.64 529.66 283.62 529.68 283.61 529.69 283.59 529.71 283.56 529.72 283.55 529.72 283.54 529.73 283.53 529.73 283.52 529.74 283.51 529.74 283.48 529.75 283.47 529.75 283.46 529.75 283.45 529.76 283.43 529.76 283.42 529.76 283.4 529.76 283.38 529.76 283.36 529.76 283.35 529.77 283.33 529.77 283.32 529.77 283.31 529.77 283.3 529.78 283.29 529.79 283.26 529.79 283.25 529.81 283.22 529.82 283.2 529.83 283.17 529.84 283.15 529.84 283.14 529.86 283.12 529.87 283.1 529.88 283.07 529.9 283.05 529.91 283.03 529.92 283.02 529.93 283 529.94 282.98 529.94 282.97 529.94 282.96 529.93 282.96 529.9 282.94 529.88 282.92 529.86 282.91 529.85 282.9 529.84 282.89 529.83 282.86 529.83 282.86 529.83 282.85 529.83 282.83 530.06 282.62 530.12 282.56 530.16 282.52 530.16 282.51 530.17 282.5 530.19 282.47 530.19 282.46 530.2 282.44 530.21 282.43 530.25 282.37 530.27 282.32 530.3 282.28 530.32 282.23 530.35 282.18 530.33 282.13 530.31 282.08 530.3 282.08 530.26 281.97 530.21 281.88 530.19 281.82 530.11 281.36 530.1 281.24 530.07 281.07 530.07 281.03 530.06 280.98 530.06 280.87 530.06 280.85 530.19 280.85 530.24 280.85 530.3 280.85 530.28 280.82 530.27 280.81 530.19 280.71 530.15 280.68 530.11 280.63 530.12 280.56 530.12 280.43 530.13 280.24 530.15 280.09 530.17 280.03 530.18 279.98 530.22 279.91 530.24 279.86 530.27 279.8 530.31 279.76 530.35 279.71 530.37 279.68 530.4 279.65 530.43 279.63 530.47 279.6 530.55 279.55 530.61 279.52 530.66 279.48 530.71 279.44 530.75 279.42 530.79 279.38 530.83 279.35 530.9 279.32 530.95 279.29 530.98 279.28 531.01 279.27 531.09 279.24 531.15 279.23 531.17 279.22 531.29 279.19 531.36 279.17 531.4 279.16 531.44 279.16 531.47 279.15 531.5 279.15 531.61 279.14 531.67 279.15 531.93 279.12 531.97 279.11 532.04 279.09 532.08 279.08 532.1 279.07 532.18 279.05 532.2 279.05 532.24 279.04 Z"/>
</g></svg>