<svg xmlns="http://www.w3.org/2000/svg" version="1.2" baseProfile="tiny" stroke-linecap="round" stroke-linejoin="round" viewBox="623.1 147.95 9.73 33.13"><g xmlns="http://www.w3.org/2000/svg" id="Uharte-Garazi">
<path d="M 629.31 147.97 629.42 148.03 629.48 148.06 629.52 148.08 629.55 148.13 629.59 148.17 629.62 148.22 629.67 148.26 629.73 148.3 629.81 148.34 629.85 148.36 629.89 148.37 629.89 148.39 629.89 148.41 629.86 148.44 629.84 148.46 629.78 148.48 629.74 148.51 629.71 148.54 629.7 148.57 629.7 148.6 629.72 148.63 629.75 148.65 629.78 148.66 629.88 148.66 630.04 148.66 630.15 148.65 630.22 148.64 630.28 148.63 630.33 148.62 630.37 148.62 630.47 148.67 630.51 148.7 630.53 148.74 630.54 148.78 630.53 148.83 630.49 148.89 630.37 149.02 630.31 149.09 630.28 149.16 630.25 149.22 630.24 149.27 630.23 149.34 630.23 149.39 630.24 149.45 630.26 149.53 630.29 149.6 630.32 149.67 630.36 149.74 630.4 149.8 630.45 149.85 630.51 149.89 630.58 149.93 630.67 149.98 630.77 150.04 630.84 150.11 630.9 150.18 630.92 150.25 630.94 150.29 631 150.38 631.12 150.53 631.27 150.72 631.34 150.8 631.36 150.82 631.3 150.93 631.26 150.97 631.23 150.98 631.2 150.99 631.07 151 631.02 151.03 630.95 151.09 630.91 151.14 630.86 151.2 630.82 151.25 630.81 151.26 630.79 151.27 630.75 151.3 630.77 151.86 630.8 152.3 630.8 152.32 630.82 152.35 630.86 152.4 630.89 152.44 630.93 152.5 630.97 152.56 631 152.64 631.04 152.73 631.07 152.79 631.11 152.86 631.16 152.96 631.21 153.05 631.23 153.11 631.25 153.22 631.27 153.37 631.28 153.47 631.29 153.5 631.3 153.65 631.32 153.78 631.34 153.89 631.36 154 631.38 154.1 631.39 154.15 631.39 154.17 631.37 154.26 631.32 154.4 631.28 154.52 631.25 154.61 631.24 154.64 631.21 154.73 631.2 154.8 631.19 154.89 631.16 155.02 631.14 155.12 631.12 155.22 631.09 155.36 631.07 155.45 631.04 155.55 631 155.65 630.96 155.76 630.93 155.85 630.93 155.91 630.92 155.96 630.92 156.1 630.94 156.17 630.98 156.3 631 156.39 631.01 156.47 631.01 156.54 631 156.62 631.02 156.74 631.03 156.87 631.04 156.95 631.02 157.02 631.01 157.08 631.01 157.15 631.02 157.24 631.03 157.32 631.05 157.4 631.09 157.49 631.13 157.59 631.19 157.65 631.28 157.75 631.37 157.84 631.44 157.93 631.52 158.03 631.59 158.12 631.64 158.2 631.66 158.24 631.8 158.4 631.86 158.42 631.95 158.45 632 158.62 632.05 158.72 632.76 158.9 632.77 158.97 632.79 159.08 632.8 159.16 632.22 159.33 632.27 159.68 632.17 159.78 632.05 159.87 631.98 159.93 631.93 159.95 631.82 160.01 631.74 160.06 631.71 160.07 631.65 160.11 631.63 160.08 631.58 159.97 631.48 159.87 631.44 159.85 631.31 159.98 631.26 160.08 631.47 160.31 631.63 160.54 631.65 160.86 631.76 161.2 631.84 161.38 631.97 161.58 631.97 161.59 631.97 161.62 631.98 161.65 631.98 161.69 631.97 161.73 631.94 161.74 631.92 161.75 631.88 161.74 631.85 161.74 631.81 161.73 631.79 161.73 631.78 161.74 631.76 161.75 631.75 161.75 631.73 161.76 631.72 161.76 631.7 161.76 631.68 161.76 631.66 161.77 631.64 161.79 631.62 161.82 631.59 161.89 631.54 162.04 631.18 162.33 631.05 162.46 631 162.55 631.02 162.62 631.05 162.74 630.93 162.79 631 163.12 630.95 163.14 630.52 163.23 630.51 163.2 630.49 163.16 630.49 163.15 630.27 163.13 630.28 163.03 630 163.26 630.06 163.37 630.07 163.47 630.17 163.64 630.26 163.78 630.36 163.94 630.72 163.51 630.91 163.9 630.6 164.06 630.81 164.18 630.53 164.38 630.48 164.36 630.43 164.34 630.38 164.33 630.29 164.29 630.22 164.28 630.16 164.27 630.07 164.74 630.29 164.99 630.3 165.05 630.01 165.26 630 165.29 630.22 165.53 630.25 165.63 630.06 165.91 630 165.93 629.93 165.96 629.88 165.97 629.85 165.99 629.79 166.02 629.76 166.04 629.74 166.06 629.69 166.13 629.67 166.14 629.7 166.19 629.73 166.22 629.78 166.29 629.79 166.32 629.81 166.34 629.84 166.37 629.91 166.45 629.95 166.49 629.99 166.52 630.02 166.56 630.05 166.6 630.09 166.64 630.17 166.71 630.26 166.8 630.36 166.9 630.43 166.98 630.5 167.06 630.57 167.14 630.65 167.23 630.75 167.35 630.78 167.39 630.79 167.4 630.87 167.27 630.89 167.29 630.9 167.31 630.92 167.36 630.96 167.44 630.98 167.49 631 167.52 631.03 167.54 631.07 167.57 631.13 167.61 631.23 167.67 631.32 167.71 631.39 167.73 631.4 167.73 631.4 167.74 631.39 167.75 631.33 167.78 631.29 167.81 631.26 167.86 631.23 167.89 631.21 167.92 631.21 167.94 631.21 167.96 631.22 167.97 631.25 167.98 631.28 167.99 631.34 167.99 631.43 167.98 631.46 167.98 631.47 167.99 631.5 167.97 631.56 167.96 631.63 167.94 631.69 167.93 631.72 167.93 631.74 167.93 631.75 167.93 631.76 167.94 631.76 167.96 631.72 168 631.7 168.05 631.68 168.11 631.66 168.14 631.67 168.16 631.67 168.17 631.66 168.19 631.65 168.21 631.63 168.25 631.62 168.27 631.62 168.33 631.61 168.43 631.61 168.47 631.63 168.5 631.64 168.52 631.65 168.52 631.66 168.52 631.68 168.49 631.72 168.43 631.73 168.4 631.76 168.38 631.81 168.36 631.86 168.35 631.93 168.35 631.97 168.37 632 168.38 632.01 168.4 632.01 168.41 632.01 168.44 632 168.48 631.98 168.53 631.97 168.58 631.97 168.6 631.98 168.64 631.99 168.67 632.02 168.71 632.04 168.75 632.07 168.73 632.12 168.7 632.17 168.69 632.22 168.68 632.27 168.68 632.29 168.68 632.31 168.69 632.36 168.72 632.4 168.75 632.43 168.78 632.46 168.81 632.48 168.86 632.49 168.91 632.5 168.97 632.51 169 632.52 169.03 632.55 169.09 632.57 169.15 632.62 169.28 632.64 169.36 632.66 169.44 632.68 169.5 632.68 169.57 632.69 169.67 632.69 169.69 632.7 169.76 632.7 169.82 632.7 169.9 632.7 169.95 632.69 170 632.68 170.04 632.68 170.11 632.68 170.15 632.68 170.2 632.7 170.27 632.74 170.39 632.76 170.48 632.79 170.56 632.8 170.63 632.81 170.68 632.82 170.73 632.82 170.78 632.82 170.83 632.82 170.89 632.81 170.92 632.8 170.94 632.79 170.97 632.78 171 632.75 171.07 632.67 171.28 632.63 171.36 632.62 171.4 632.61 171.46 632.59 171.53 632.59 171.58 632.59 171.66 632.58 171.73 632.57 171.8 632.56 171.86 632.55 171.9 632.52 171.96 632.5 172.03 632.47 172.08 632.44 172.12 632.41 172.16 632.38 172.19 632.33 172.24 632.32 172.26 632.31 172.27 632.3 172.3 632.3 172.33 632.29 172.4 632.28 172.45 632.26 172.51 632.24 172.55 632.23 172.58 632.23 172.63 632.23 172.69 632.24 172.8 632.25 172.94 632.25 173.02 632.24 173.06 632.24 173.1 632.23 173.13 632.23 173.15 632.23 173.17 632.24 173.18 632.25 173.19 632.26 173.2 632.29 173.21 632.37 173.21 632.47 173.22 632.55 173.23 632.58 173.24 632.6 173.25 632.61 173.26 632.63 173.28 632.66 173.32 632.67 173.35 632.68 173.39 632.68 173.45 632.68 173.5 632.68 173.52 632.66 173.56 632.63 173.6 632.61 173.63 632.57 173.68 632.5 173.75 632.39 173.9 632.33 173.98 632.29 174.02 632.27 174.04 632.23 174.1 632.19 174.18 632.16 174.25 632.15 174.3 632.13 174.38 632.12 174.49 632.12 174.54 632.13 174.58 632.14 174.62 632.15 174.69 632.16 174.77 632.16 174.81 632.16 174.86 632.14 175.03 632.11 175.24 632.11 175.27 632.09 175.32 632.04 175.47 632.02 175.53 632 175.61 631.95 175.77 631.93 175.88 631.93 175.91 631.93 175.94 631.92 176.01 631.89 176.13 631.85 176.26 631.83 176.37 631.81 176.44 631.78 176.49 631.74 176.68 631.74 176.71 631.74 176.73 631.74 176.75 631.74 176.77 631.73 176.79 631.72 176.81 631.69 176.88 631.66 176.96 631.63 177.09 631.6 177.21 631.57 177.29 631.53 177.39 631.5 177.47 631.49 177.55 631.49 177.57 631.49 177.66 631.51 177.81 631.51 177.85 631.51 177.91 631.51 178.02 631.5 178.06 631.48 178.16 631.43 178.28 631.38 178.43 631.33 178.57 631.31 178.61 631.3 178.63 631.24 178.72 631.18 178.81 631.14 178.91 631.1 179 631.05 179.13 631.02 179.25 631 179.37 630.99 179.41 630.99 179.44 630.99 179.47 630.99 179.5 630.98 179.58 630.98 179.61 630.98 179.63 630.98 179.65 630.98 179.68 630.98 179.73 630.96 179.82 630.93 179.89 630.91 179.94 630.86 180.01 630.8 180.1 630.7 180.23 630.69 180.25 630.68 180.26 630.65 180.27 630.64 180.27 630.63 180.26 630.63 180.26 630.62 180.25 630.61 180.24 630.6 180.19 630.59 180.17 630.58 180.14 630.57 180.12 630.56 180.1 630.53 180.06 630.46 180.01 630.45 180 630.43 179.98 630.42 179.97 630.41 179.96 630.38 179.89 630.38 179.88 630.37 179.87 630.35 179.86 630.33 179.86 630.31 179.86 630.3 179.86 630.26 179.89 630.23 179.92 630.2 179.97 630.15 180.03 630.09 180.11 630.04 180.17 629.98 180.22 629.92 180.27 629.85 180.34 629.78 180.41 629.74 180.44 629.69 180.48 629.56 180.55 629.49 180.59 629.45 180.62 629.42 180.65 629.4 180.68 629.38 180.7 629.37 180.74 629.36 180.8 629.34 180.94 629.34 180.96 629.32 181.01 629.3 181.05 629.27 181.08 629.26 181.06 629.22 181.03 629.14 180.99 629.05 180.93 628.93 180.84 628.82 180.77 628.72 180.69 628.66 180.61 628.58 180.51 628.51 180.44 628.4 180.34 628.31 180.25 628.24 180.18 628.18 180.12 628.03 180.01 627.89 179.92 627.78 179.85 627.71 179.79 627.67 179.72 627.56 179.55 627.49 179.4 627.42 179.31 627.36 179.26 627.28 179.23 627.23 179.22 627.23 179.21 627.22 179.18 627.21 179.16 627.21 179.14 627.21 179.12 627.23 179.08 627.25 179.06 627.27 179.05 627.29 179.03 627.35 178.99 627.37 178.97 627.4 178.95 627.43 178.92 627.46 178.89 627.49 178.87 627.52 178.84 627.55 178.81 627.58 178.77 627.64 178.69 627.69 178.64 627.73 178.59 627.77 178.54 627.82 178.5 627.88 178.45 627.92 178.39 627.96 178.35 628 178.32 628.03 178.29 628.05 178.25 628.06 178.21 628.06 178.15 628.07 178.1 628.08 178.04 628.11 178.01 628.15 177.98 628.18 177.96 628.22 177.94 628.25 177.89 628.29 177.84 628.34 177.8 628.37 177.76 628.4 177.74 628.42 177.71 628.45 177.68 628.48 177.67 628.5 177.65 628.51 177.64 628.52 177.62 628.52 177.59 628.53 177.56 628.55 177.54 628.57 177.54 628.59 177.53 628.61 177.51 628.62 177.48 628.63 177.46 628.63 177.44 628.65 177.42 628.68 177.39 628.7 177.36 628.72 177.34 628.73 177.31 628.75 177.27 628.77 177.24 628.78 177.2 628.79 177.16 628.79 177.13 628.8 177.1 628.82 177.07 628.84 177.04 628.86 177.01 628.87 176.99 628.89 176.97 628.91 176.94 628.92 176.91 628.92 176.88 628.92 176.86 628.94 176.84 628.97 176.82 629 176.81 629.03 176.79 629.05 176.76 629.07 176.73 629.07 176.7 629.06 176.67 629.05 176.65 629.03 176.63 629.01 176.61 629 176.58 629.01 176.55 629.02 176.53 629.02 176.51 629.02 176.47 629.01 176.44 629 176.41 628.99 176.38 628.97 176.35 628.96 176.31 628.96 176.28 628.98 176.24 628.99 176.2 629.01 176.16 629.02 176.13 629.04 176.1 629.06 176.07 629.07 176.04 629.08 176 629.09 175.96 629.11 175.93 629.13 175.9 629.14 175.87 629.15 175.83 629.14 175.8 629.14 175.77 629.15 175.73 629.17 175.7 629.19 175.67 629.21 175.64 629.23 175.61 629.25 175.57 629.25 175.53 629.26 175.49 629.27 175.45 629.27 175.41 629.27 175.38 629.27 175.36 629.28 175.32 629.28 175.29 629.27 175.26 629.26 175.23 629.24 175.2 629.22 175.17 629.21 175.14 629.19 175.1 629.17 175.07 629.16 175.04 629.16 175.01 629.15 174.98 629.14 174.95 629.12 174.92 629.09 174.9 629.07 174.88 629.04 174.85 629.03 174.82 629 174.79 628.99 174.76 628.97 174.71 628.96 174.67 628.94 174.64 628.93 174.61 628.91 174.57 628.89 174.53 628.89 174.49 628.88 174.45 628.88 174.41 628.88 174.39 628.88 174.35 628.88 174.32 628.88 174.29 628.89 174.25 628.89 174.22 628.88 174.18 628.87 174.15 628.85 174.12 628.83 174.09 628.81 174.06 628.79 174.03 628.77 174 628.76 173.97 628.74 173.94 628.71 173.92 628.69 173.9 628.67 173.88 628.63 173.86 628.61 173.84 628.59 173.83 628.55 173.82 628.52 173.82 628.49 173.82 628.45 173.83 628.42 173.85 628.39 173.89 628.36 173.92 628.33 173.96 628.31 173.99 628.28 174.01 628.24 174.03 628.19 174.04 628.15 174.04 628.11 174.03 628.06 174.02 628.03 173.99 628 173.96 627.98 173.92 627.96 173.88 627.95 173.84 627.95 173.8 627.96 173.75 627.98 173.7 628.01 173.66 628.04 173.62 628.05 173.57 628.08 173.53 628.11 173.5 628.13 173.47 628.15 173.44 628.16 173.39 628.17 173.34 628.17 173.29 628.17 173.25 628.17 173.19 628.18 173.15 628.19 173.1 628.19 173.05 628.2 173.01 628.21 172.96 628.21 172.92 628.22 172.87 628.23 172.83 628.23 172.77 628.23 172.71 628.23 172.66 628.24 172.61 628.25 172.56 628.26 172.52 628.27 172.46 628.27 172.42 628.26 172.38 628.24 172.35 628.23 172.31 628.23 172.28 628.24 172.24 628.25 172.2 628.27 172.17 628.3 172.14 628.32 172.09 628.33 172.05 628.33 172.01 628.35 171.97 628.37 171.95 628.39 171.92 628.42 171.91 628.45 171.88 628.47 171.86 628.49 171.82 628.51 171.79 628.52 171.75 628.53 171.72 628.55 171.69 628.57 171.65 628.58 171.61 628.58 171.57 628.59 171.52 628.58 171.47 628.58 171.42 628.57 171.37 628.57 171.32 628.55 171.26 628.53 171.22 628.51 171.18 628.48 171.15 628.46 171.1 628.46 171.05 628.46 171 628.48 170.96 628.51 170.92 628.52 170.87 628.54 170.82 628.53 170.78 628.52 170.74 628.49 170.71 628.47 170.66 628.47 170.62 628.48 170.58 628.5 170.53 628.49 170.49 628.49 170.45 628.46 170.44 628.44 170.43 628.41 170.41 628.4 170.39 628.38 170.37 628.34 170.35 628.3 170.35 628.27 170.36 628.24 170.36 628.21 170.36 628.18 170.34 628.16 170.31 628.16 170.27 628.14 170.24 628.12 170.19 628.09 170.16 628.06 170.14 628.03 170.13 628.02 170.09 628.02 170.05 628.02 170 628.02 169.94 628.02 169.87 628.01 169.8 628 169.75 627.97 169.71 627.94 169.65 627.9 169.6 627.85 169.54 627.79 169.47 627.73 169.42 627.67 169.37 627.62 169.35 627.6 169.34 627.56 169.33 627.51 169.31 627.47 169.28 627.44 169.25 627.39 169.23 627.34 169.22 627.29 169.21 627.24 169.2 627.17 169.18 627.13 169.15 627.1 169.13 627.06 169.1 626.99 169.07 626.94 169.03 626.87 168.99 626.8 168.95 626.74 168.91 626.71 168.88 626.65 168.87 626.62 168.87 626.58 168.85 626.54 168.83 626.5 168.8 626.47 168.76 626.42 168.72 626.38 168.71 626.33 168.69 626.31 168.66 626.27 168.63 626.22 168.6 626.19 168.57 626.14 168.54 626.1 168.48 626.05 168.43 626.01 168.39 625.94 168.36 625.85 168.32 625.78 168.3 625.71 168.27 625.67 168.24 625.63 168.23 625.59 168.21 625.56 168.19 625.53 168.14 625.51 168.1 625.48 168.06 625.43 168.01 625.37 167.95 625.31 167.91 625.28 167.87 625.25 167.84 625.2 167.84 625.14 167.83 625.08 167.82 625.03 167.81 624.98 167.78 624.94 167.78 624.9 167.74 624.86 167.7 624.84 167.68 624.8 167.67 624.73 167.67 624.66 167.67 624.58 167.65 624.48 167.63 624.35 167.61 624.29 167.58 624.22 167.55 624.06 167.53 623.93 167.5 623.85 167.49 623.73 167.48 623.69 167.48 623.66 167.48 623.63 167.46 623.59 167.45 623.5 167.44 623.47 167.43 623.43 167.41 623.38 167.44 623.38 167.47 623.37 167.49 623.36 167.5 623.32 167.51 623.28 167.52 623.28 167.48 623.26 167.38 623.22 167.26 623.18 167.14 623.14 167.01 623.12 166.86 623.14 166.76 623.18 166.67 623.23 166.58 623.27 166.47 623.3 166.42 623.32 166.39 623.35 166.34 623.38 166.29 623.41 166.25 623.42 166.22 623.44 166.18 623.46 166.14 623.46 166.09 623.46 166.03 623.46 165.98 623.45 165.95 623.47 165.88 623.48 165.84 623.5 165.79 623.54 165.72 623.57 165.65 623.61 165.57 623.62 165.53 623.63 165.5 623.64 165.45 623.67 165.42 623.69 165.38 623.71 165.34 623.71 165.31 623.7 165.23 623.68 165.2 623.66 165.14 623.65 165.1 623.64 165.03 623.62 164.95 623.63 164.91 623.65 164.86 623.7 164.81 623.76 164.77 623.79 164.74 623.82 164.72 623.91 164.63 624.01 164.54 624.08 164.45 624.1 164.41 624.11 164.36 624.11 164.3 624.11 164.25 624.12 164.17 624.12 164.12 624.11 164.04 624.13 163.97 624.15 163.89 624.16 163.79 624.17 163.7 624.17 163.52 624.16 163.41 624.16 163.29 624.15 163.22 624.14 163.17 624.12 163.13 624.09 163.09 624 163.03 623.95 163 623.92 162.99 623.91 162.96 623.9 162.9 623.9 162.86 623.91 162.83 623.96 162.72 623.98 162.67 623.98 162.62 623.98 162.57 624 162.49 624.04 162.42 624.07 162.38 624.14 162.3 624.21 162.26 624.32 162.22 624.42 162.18 624.57 162.15 624.63 162.14 624.67 162.14 624.71 162.13 624.75 162.12 624.76 162.1 624.78 162.07 624.77 161.99 624.74 161.87 624.72 161.79 624.72 161.72 624.73 161.64 624.75 161.56 624.78 161.49 624.79 161.45 624.9 161.35 624.95 161.31 624.98 161.28 625 161.22 625.07 161.13 625.14 161.04 625.19 160.96 625.28 160.84 625.32 160.79 625.34 160.76 625.35 160.7 625.36 160.67 625.39 160.62 625.41 160.55 625.44 160.48 625.47 160.43 625.49 160.39 625.5 160.32 625.5 160.26 625.49 160.17 625.48 160.13 625.44 160.04 625.43 159.96 625.43 159.88 625.44 159.75 625.44 159.57 625.45 159.47 625.46 159.4 625.46 159.31 625.45 159.21 625.42 159.1 625.41 159.03 625.38 158.98 625.36 158.92 625.35 158.87 625.35 158.83 625.35 158.77 625.38 158.72 625.41 158.67 625.47 158.62 625.56 158.56 625.61 158.51 625.65 158.49 625.7 158.48 625.77 158.47 625.84 158.45 625.92 158.43 625.94 158.42 626 158.4 626.05 158.37 626.1 158.32 626.14 158.28 626.19 158.23 626.25 158.19 626.34 158.16 626.44 158.11 626.51 158.05 626.59 157.99 626.65 157.94 626.73 157.87 626.78 157.84 626.84 157.82 626.9 157.81 626.94 157.79 626.96 157.76 626.97 157.73 626.97 157.68 626.97 157.65 626.99 157.62 627.02 157.6 627.08 157.58 627.11 157.56 627.15 157.54 627.17 157.5 627.17 157.44 627.18 157.36 627.21 157.31 627.24 157.27 627.25 157.24 627.25 157.2 627.26 157.15 627.28 157.14 627.3 157.09 627.33 157.01 627.35 156.9 627.35 156.83 627.37 156.78 627.44 156.72 627.49 156.69 627.51 156.67 627.54 156.65 627.57 156.63 627.6 156.62 627.62 156.6 627.64 156.59 627.66 156.58 627.68 156.57 627.7 156.55 627.71 156.53 627.71 156.51 627.71 156.48 627.7 156.45 627.7 156.42 627.7 156.38 627.68 156.34 627.66 156.32 627.64 156.28 627.64 156.24 627.64 156.2 627.64 156.16 627.64 156.12 627.65 156.09 627.66 156.06 627.67 156.03 627.68 156.01 627.7 155.99 627.73 155.97 627.76 155.96 627.78 155.94 627.8 155.93 627.82 155.91 627.85 155.89 627.88 155.88 627.92 155.86 627.95 155.85 627.98 155.83 628 155.82 628.03 155.81 628.05 155.79 628.07 155.77 628.09 155.75 628.11 155.72 628.13 155.69 628.16 155.63 628.16 155.61 628.17 155.58 628.18 155.54 628.19 155.51 628.2 155.47 628.21 155.44 628.22 155.4 628.24 155.37 628.26 155.35 628.29 155.32 628.31 155.3 628.33 155.28 628.36 155.25 628.38 155.23 628.41 155.21 628.43 155.18 628.46 155.16 628.5 155.13 628.52 155.11 628.56 155.09 628.59 155.08 628.62 155.06 628.64 155.05 628.67 155.03 628.7 155.01 628.72 155 628.74 154.97 628.75 154.95 628.77 154.92 628.79 154.88 628.8 154.84 628.81 154.81 628.81 154.77 628.81 154.72 628.81 154.68 628.81 154.64 628.81 154.58 628.81 154.53 628.81 154.48 628.81 154.43 628.81 154.4 628.8 154.36 628.8 154.28 628.78 154.22 628.77 154.12 628.75 154 628.72 153.88 628.68 153.79 628.64 153.83 628.63 153.84 628.61 153.85 628.58 153.86 628.56 153.86 628.54 153.86 628.52 153.85 628.5 153.83 628.48 153.82 628.45 153.82 628.43 153.82 628.41 153.82 628.39 153.81 628.37 153.8 628.35 153.78 628.33 153.78 628.3 153.77 628.29 153.77 628.28 153.77 628.25 153.78 628.23 153.79 628.2 153.79 628.18 153.79 628.16 153.79 628.13 153.8 628.11 153.81 628.08 153.83 628.05 153.84 628.03 153.84 628.01 153.84 627.98 153.82 627.96 153.81 627.92 153.79 627.9 153.78 627.88 153.77 627.85 153.77 627.82 153.76 627.79 153.76 627.75 153.76 627.73 153.75 627.7 153.75 627.67 153.75 627.64 153.74 627.62 153.73 627.61 153.72 627.58 153.71 627.57 153.71 627.39 153.53 627.37 153.48 627.44 153.44 627.42 153.37 627.4 153.1 627.39 152.38 627.52 151.89 627.52 151.63 627.47 151.54 627.28 151.5 627.22 151.42 627.2 151.35 627.3 151.25 627.36 151.11 627.32 151.06 627.35 150.74 627.47 150.33 627.65 149.98 627.98 149.56 628.05 149.43 628.1 149.42 628.12 149.42 628.15 149.42 628.19 149.44 628.22 149.45 628.26 149.47 628.3 149.51 628.4 149.61 628.45 149.64 628.51 149.68 628.56 149.7 628.61 149.76 628.63 149.78 628.65 149.79 628.75 149.83 628.82 149.85 628.88 149.85 628.94 149.85 629.16 149.87 629.21 149.88 629.24 149.9 629.27 149.91 629.33 149.88 629.31 149.85 629.26 149.79 629.13 149.66 628.96 149.52 628.72 149.33 628.68 149.28 628.68 149.25 628.7 149.22 628.71 149.18 628.72 149.15 628.72 149.1 628.73 149.06 628.75 149 628.76 148.95 628.79 148.9 628.82 148.85 628.87 148.81 628.94 148.76 628.99 148.72 629.04 148.69 629.09 148.65 629.21 148.57 629.26 148.55 629.32 148.54 629.37 148.54 629.4 148.53 629.42 148.49 629.41 148.43 629.37 148.25 629.33 148.15 629.31 148.08 629.3 148.03 629.3 148 629.31 147.97 Z"/>
</g></svg>