<svg xmlns="http://www.w3.org/2000/svg" version="1.2" baseProfile="tiny" stroke-linecap="round" stroke-linejoin="round" viewBox="495.75 327 13.1 20.75"><g xmlns="http://www.w3.org/2000/svg" id="Ukar">
<path d="M 498.53 327.01 498.64 327.05 498.7 327.07 498.82 327.12 498.85 327.14 498.87 327.14 498.87 327.15 499 327.2 498.99 327.32 498.98 327.59 498.97 327.81 498.89 328 498.86 328.07 498.75 328.33 498.65 328.56 498.57 328.77 498.51 328.9 498.45 329.08 498.44 329.15 498.42 329.43 498.4 329.57 498.38 329.82 498.53 330.02 498.76 330.31 498.92 330.54 498.98 330.59 499.07 330.7 499.17 330.81 499.27 330.94 499.36 331.05 499.45 330.99 499.52 330.95 499.58 330.93 499.66 330.91 499.72 330.91 499.8 330.9 499.9 330.9 499.95 330.9 500.01 330.89 500.14 330.89 500.3 330.88 500.42 330.87 500.58 330.86 500.7 330.85 500.75 330.84 500.8 330.82 500.85 330.81 500.9 330.8 500.95 330.8 501 330.8 501.05 330.82 501.12 330.84 501.17 330.85 501.21 330.85 501.34 330.8 501.56 330.74 501.6 330.73 501.76 330.68 501.98 330.61 502.23 330.54 502.4 330.49 502.46 330.47 502.52 330.48 502.7 330.46 502.84 330.45 502.91 330.44 502.94 330.43 503.04 330.4 503.16 330.37 503.29 330.34 503.43 330.31 503.54 330.29 503.66 330.28 503.63 330.31 503.61 330.33 503.57 330.38 503.55 330.41 503.54 330.44 503.51 330.47 503.52 330.54 503.56 330.64 503.59 330.74 503.63 330.87 503.67 331 503.71 331.12 503.74 331.22 503.75 331.32 503.78 331.39 503.79 331.44 503.8 331.52 503.8 331.61 503.8 331.7 503.8 331.84 503.8 331.95 503.79 332.04 503.78 332.18 503.77 332.29 503.77 332.41 503.76 332.52 503.76 332.61 503.79 332.72 503.83 332.85 503.86 332.94 503.88 333.03 503.91 333.13 503.94 333.18 503.94 333.19 503.95 333.21 504.01 333.34 504.08 333.49 504.11 333.57 504.12 333.61 504.13 333.62 504.12 333.8 504.11 333.95 504.1 334.04 504.08 334.12 504.05 334.18 504 334.29 503.95 334.4 503.91 334.52 503.84 334.68 503.81 334.77 503.77 334.89 503.72 334.98 503.67 335.09 503.64 335.14 503.61 335.2 503.58 335.28 503.57 335.3 503.57 335.31 503.55 335.34 503.53 335.4 503.52 335.43 503.48 335.51 503.42 335.62 503.39 335.69 503.37 335.76 503.41 335.85 503.47 335.94 503.52 336 503.62 336.16 503.78 336.25 503.8 336.26 503.94 336.34 503.96 336.34 504 336.35 504.12 336.38 504.15 336.39 504.24 336.42 504.37 336.47 504.41 336.49 504.45 336.51 504.45 336.52 504.46 336.53 504.49 336.55 504.53 336.59 504.57 336.61 504.58 336.62 504.59 336.62 504.61 336.62 504.64 336.64 504.65 336.65 504.73 336.82 504.76 336.88 504.82 336.89 504.85 336.89 504.89 336.89 504.96 336.9 505.03 336.91 505.07 336.91 505.13 336.92 505.2 336.93 505.25 336.92 505.27 336.92 505.31 336.92 505.35 336.92 505.4 336.93 505.42 336.93 505.45 337 505.5 337.13 505.51 337.16 505.52 337.18 505.54 337.21 505.56 337.24 505.58 337.29 505.62 337.37 505.67 337.45 505.7 337.51 505.7 337.52 505.71 337.55 505.72 337.56 505.73 337.57 505.76 337.65 505.78 337.7 505.79 337.7 505.79 337.73 505.81 337.76 505.81 337.77 505.85 337.84 505.87 337.9 505.92 338.04 505.96 338.15 506 338.26 506.01 338.3 506.04 338.36 506.07 338.4 506.09 338.43 506.1 338.44 506.12 338.49 506.15 338.55 506.16 338.59 506.21 338.64 506.25 338.68 506.28 338.71 506.28 338.71 506.29 338.72 506.3 338.73 506.32 338.74 506.37 338.8 506.41 338.84 506.47 338.9 506.48 338.91 506.54 338.98 506.64 339.01 506.65 339.01 506.75 339.05 506.9 339.08 506.94 339.11 506.99 339.13 507.05 339.16 507.11 339.18 507.16 339.19 507.19 339.21 507.21 339.22 507.23 339.23 507.27 339.25 507.29 339.28 507.33 339.4 507.36 339.46 507.37 339.52 507.38 339.54 507.38 339.64 507.38 339.73 507.4 339.8 507.41 339.84 507.43 339.9 507.47 339.98 507.51 340.08 507.55 340.19 507.58 340.3 507.61 340.39 507.66 340.53 507.66 340.6 507.64 340.65 507.62 340.71 507.61 340.76 507.59 340.79 507.57 340.84 507.55 340.89 507.55 340.94 507.55 341.02 507.55 341.09 507.57 341.14 507.6 341.19 507.62 341.26 507.66 341.33 507.7 341.38 507.79 341.44 507.87 341.47 507.93 341.51 507.98 341.55 507.98 341.56 508.04 341.6 508.08 341.67 508.09 341.75 508.09 341.82 508.1 341.89 508.11 341.97 508.12 342.04 508.13 342.13 508.15 342.24 508.15 342.25 508.15 342.3 508.16 342.41 508.17 342.49 508.17 342.5 508.18 342.54 508.18 342.56 508.2 342.66 508.21 342.73 508.22 342.81 508.23 342.88 508.22 342.95 508.23 342.96 508.24 342.96 508.25 342.97 508.41 343.06 508.44 343.07 508.62 343.09 508.72 343.16 508.75 343.15 508.76 343.15 508.77 343.15 508.82 343.16 508.74 343.22 508.66 343.28 508.59 343.31 508.56 343.34 508.53 343.39 508.51 343.43 508.49 343.46 508.44 343.53 508.41 343.58 508.37 343.64 508.34 343.69 508.31 343.74 508.28 343.79 508.27 343.79 508.25 343.83 508.24 343.85 508.19 343.93 508.13 344.04 508.09 344.13 508.04 344.18 507.99 344.22 507.95 344.26 507.92 344.29 507.89 344.34 507.86 344.39 507.85 344.42 507.84 344.45 507.81 344.49 507.8 344.51 507.78 344.53 507.75 344.56 507.67 344.65 507.62 344.7 507.62 344.7 507.58 344.77 507.54 344.86 507.52 344.89 507.49 344.95 507.45 345 507.41 345.03 507.4 345.04 507.38 345.05 507.31 345.1 507.27 345.12 507.26 345.14 507.24 345.17 507.22 345.21 507.22 345.21 507.19 345.27 507.16 345.32 507.11 345.36 507.06 345.39 507.02 345.41 506.99 345.41 506.95 345.44 506.92 345.47 506.83 345.51 506.79 345.54 506.77 345.59 506.75 345.62 506.72 345.65 506.68 345.69 506.64 345.74 506.61 345.78 506.59 345.81 506.59 345.87 506.59 345.99 506.52 346 506.46 346 506.42 346 506.37 346 506.31 346.01 506.23 346.03 506.15 346.03 506.08 346.03 506 346.05 505.91 346.06 505.86 346.07 505.81 346.06 505.78 346.06 505.68 346.05 505.59 346.03 505.55 346.02 505.53 346.02 505.5 346.03 505.46 346.03 505.42 346.02 505.37 346.02 505.34 346.03 505.27 346.02 505.22 346.03 505.16 346.05 505.1 346.07 505.05 346.09 505.02 346.1 504.96 346.1 504.81 346.13 504.69 346.14 504.58 346.15 504.54 346.15 504.47 346.16 504.39 346.24 504.35 346.28 504.31 346.32 504.29 346.34 504.28 346.35 504.27 346.36 504.27 346.37 504.21 346.42 504.2 346.43 504.18 346.45 504.11 346.52 504.06 346.57 504.03 346.6 503.99 346.63 503.96 346.66 503.91 346.71 503.88 346.76 503.83 346.81 503.79 346.84 503.78 346.85 503.72 346.89 503.67 346.93 503.63 346.99 503.55 346.99 503.53 346.99 503.49 347 503.44 347 503.4 347 503.27 347 503.18 347 503.1 347.01 502.96 347.01 502.92 347.01 502.9 347.01 502.88 347.01 502.82 347 502.79 347 502.72 347.01 502.64 347.02 502.59 347.02 502.55 347.03 502.41 347.04 502.39 347.04 502.33 347.06 502.32 347.06 502.25 347.08 502.17 347.11 502.11 347.13 502.07 347.15 502.04 347.17 501.97 347.21 501.9 347.24 501.88 347.25 501.85 347.27 501.83 347.27 501.78 347.32 501.67 347.39 501.66 347.4 501.65 347.41 501.64 347.42 501.61 347.45 501.58 347.47 501.56 347.49 501.5 347.56 501.44 347.62 501.38 347.69 501.35 347.73 500.95 347.59 500.88 347.56 500.63 347.42 500.53 347.36 500.44 347.28 500.28 347.23 499.96 347.11 499.95 347.1 499.79 347.04 499.76 347.03 499.63 346.98 499.62 346.98 499.61 346.97 499.59 346.97 499.35 346.87 499.28 346.86 499.26 346.85 499.25 346.85 499.21 346.84 498.76 346.75 498.73 346.75 498.58 346.71 498.55 346.7 498.46 346.69 498.35 346.66 498.33 346.66 498.32 346.66 498.32 346.66 498.17 346.63 498.16 346.63 498.14 346.62 498.11 346.58 498.08 346.53 498.05 346.48 497.99 346.38 497.98 346.32 497.97 346.15 497.96 346.14 497.95 346.04 497.95 345.99 497.94 345.91 497.93 345.86 497.93 345.85 497.93 345.82 497.93 345.8 497.92 345.75 497.92 345.68 497.91 345.57 497.91 345.53 497.9 345.5 497.89 345.47 497.89 345.43 497.87 345.35 497.87 345.34 497.84 345.19 497.83 345.13 497.82 345.03 497.79 344.88 497.79 344.86 497.76 344.72 497.73 344.56 497.7 344.39 497.69 344.34 497.69 344.32 497.67 344.23 497.66 344.13 497.65 344.08 497.63 343.97 497.62 343.94 497.59 343.89 497.5 343.73 497.42 343.59 497.41 343.57 497.38 343.52 497.33 343.43 497.25 343.29 497.2 343.19 497.19 343.17 497.13 343.06 497.07 342.96 497.03 342.86 497.02 342.83 497.01 342.75 497 342.71 496.99 342.66 496.99 342.59 496.98 342.52 496.97 342.49 496.96 342.38 496.93 342.19 496.91 342.03 496.89 341.85 496.88 341.81 496.82 341.72 496.81 341.7 496.79 341.67 496.76 341.62 496.76 341.61 496.69 341.52 496.65 341.46 496.65 341.45 496.64 341.44 496.63 341.4 496.63 341.34 496.62 341.26 496.62 341.24 496.62 341.18 496.63 341.11 496.66 341 496.7 340.85 496.73 340.76 496.77 340.7 496.86 340.54 496.94 340.39 497.05 340.23 497.07 340.17 497.09 340.13 497.12 340.04 497.19 339.88 497.21 339.83 497.32 339.55 497.33 339.54 497.33 339.54 497.38 339.42 497.62 338.83 497.64 338.79 497.57 338.68 497.46 338.56 497.26 338.33 496.98 338.02 496.93 337.96 496.76 337.77 496.66 337.65 496.61 337.55 496.57 337.47 496.56 337.45 496.55 337.43 496.54 337.4 496.5 337.34 496.49 337.32 496.47 337.28 496.43 337.2 496.42 337.16 496.39 337.11 496.28 336.93 496.27 336.91 496.23 336.85 496.18 336.76 496.17 336.73 496.1 336.61 496.08 336.59 496.03 336.52 496 336.48 496 336.46 495.97 336.42 495.93 336.35 495.92 336.32 495.9 336.11 495.89 336.07 495.89 336.04 495.89 336.02 495.88 335.97 495.85 335.78 495.84 335.68 495.8 335.41 495.78 335.28 495.79 335.23 495.8 335.2 495.83 335.1 495.86 335 495.89 334.9 495.9 334.87 495.93 334.79 495.97 334.68 496 334.57 496.03 334.48 496.06 334.39 496.1 334.31 496.12 334.24 496.16 334.16 496.2 334.07 496.24 334 496.29 333.93 496.34 333.87 496.38 333.8 496.44 333.72 496.49 333.64 496.54 333.59 496.55 333.57 496.65 333.47 496.69 333.42 496.78 333.35 496.83 333.3 496.85 333.25 496.94 333.1 497 332.97 497.06 332.85 497.08 332.84 497.13 332.81 497.38 332.68 497.39 332.68 497.4 332.67 497.51 332.63 497.53 332.61 497.55 332.57 497.59 332.47 497.64 332.37 497.68 332.27 497.72 332.14 497.74 332 497.74 331.98 497.75 331.92 497.75 331.85 497.75 331.75 497.75 331.74 497.75 331.72 497.75 331.49 497.73 331.29 497.73 331.24 497.7 330.88 497.66 330.56 497.62 330.3 497.61 330.2 497.58 330.02 497.55 329.81 497.53 329.68 497.77 329.24 497.77 329.23 497.96 328.87 497.96 328.74 497.96 328.72 497.96 328.72 497.96 328.53 497.96 328.47 497.95 328.32 497.95 328.08 497.95 327.76 497.94 327.57 498.47 327.14 498.53 327.01 Z"/>
</g></svg>