<svg xmlns="http://www.w3.org/2000/svg" version="1.2" baseProfile="tiny" stroke-linecap="round" stroke-linejoin="round" viewBox="484.7 193.93 44.58 43.08"><g xmlns="http://www.w3.org/2000/svg" id="Ultzama">
<path d="M 494.82 195.15 495.04 195.3 495.18 195.42 495.55 195.73 495.94 195.92 496.2 196.02 496.48 196.21 496.68 196.35 496.72 196.38 496.73 196.38 496.94 196.52 497.02 196.56 497.14 196.6 497.15 196.6 497.16 196.6 497.22 196.62 497.26 196.63 497.39 196.57 497.49 196.53 497.59 196.49 497.73 196.45 497.82 196.42 497.97 196.37 498.13 196.31 498.25 196.27 498.42 196.21 498.58 196.16 498.72 196.11 498.91 196.13 499.16 196.16 499.3 196.17 499.36 196.18 499.57 196.12 499.84 196.05 499.99 195.96 500.09 195.91 500.31 195.79 500.45 195.73 500.58 195.69 500.62 195.68 500.85 195.61 501 195.56 501.17 195.51 501.3 195.46 501.45 195.41 501.49 195.4 501.54 195.38 501.69 195.33 501.85 195.31 501.97 195.3 502.2 195.27 502.22 195.27 502.23 195.27 502.43 195.23 502.6 195.2 502.92 195.14 503.12 195.1 503.3 195.07 503.3 195.07 503.31 195.07 503.48 195.03 503.65 195 503.83 194.98 503.85 194.98 504.05 194.96 504.29 194.92 504.44 194.89 504.64 194.84 504.7 194.82 504.76 194.81 504.93 194.78 505.25 194.71 505.53 194.46 505.8 194.22 506.1 194.11 506.16 194.12 506.42 194.16 506.77 194.21 506.98 194.25 507.01 194.25 507.14 194.24 507.41 194.21 507.82 194.17 508.1 194.14 508.11 194.14 508.21 194.13 508.29 194.11 508.4 194.09 508.53 194.07 508.7 194.05 508.85 194.03 509.02 194 509.19 193.97 509.39 193.94 509.56 193.97 509.58 193.97 509.6 193.97 509.64 193.98 509.72 194 509.95 194.04 510.09 194.07 510.27 194.13 510.35 194.16 510.36 194.16 510.38 194.17 510.39 194.17 510.41 194.18 510.56 194.23 510.74 194.28 510.93 194.36 511.18 194.47 511.31 194.53 511.53 194.61 511.78 194.71 512.06 194.77 512.26 194.8 512.5 194.85 512.74 194.9 512.77 194.91 512.8 194.92 512.86 194.93 512.89 194.94 512.94 194.95 513.15 195.01 513.39 195.09 513.51 195.14 513.58 195.16 513.6 195.16 513.79 195.22 514 195.3 514.14 195.33 514.39 195.32 514.62 195.31 514.86 195.3 515.08 195.29 515.33 195.41 515.55 195.51 515.72 195.59 515.94 195.55 515.99 195.54 516.18 195.62 516.26 195.67 516.3 195.7 516.38 195.75 516.5 195.87 516.53 195.92 516.58 195.97 516.59 195.98 516.61 195.99 516.64 196.01 516.73 196.13 516.84 196.27 516.89 196.33 516.98 196.47 517 196.5 517.1 196.63 517.25 196.86 517.4 197.07 517.56 197.29 517.65 197.41 517.79 197.56 517.92 197.72 517.95 197.76 517.96 197.76 517.97 197.77 517.98 197.78 517.99 197.8 518 197.81 518.06 197.89 518.15 198.01 518.23 198.11 518.45 198.39 518.51 198.47 518.53 198.49 518.62 198.62 518.62 198.62 518.63 198.63 518.67 198.68 518.74 198.78 518.75 198.79 518.85 198.93 518.95 199.05 518.96 199.07 518.99 199.1 519.11 199.26 519.13 199.29 519.28 199.48 519.39 199.63 519.58 199.87 519.71 199.99 519.88 200.13 519.98 200.2 520.11 200.31 520.32 200.49 520.49 200.63 520.83 200.9 520.86 200.87 520.95 200.8 521.1 200.7 521.27 200.58 521.28 200.57 521.3 200.56 521.44 200.45 521.77 200.3 521.85 200.27 521.86 200.27 521.95 200.25 521.96 200.25 522.04 200.23 522.31 200.17 522.51 200.12 522.52 200.12 522.54 200.11 522.56 200.11 522.57 200.1 522.62 200.1 522.77 200.06 523.09 199.99 523.52 199.9 523.9 199.81 524.18 199.75 524.47 199.73 524.8 199.69 525.15 199.66 525.19 199.66 525.21 199.66 525.32 199.65 525.62 199.67 525.89 199.69 526.16 199.72 526.48 199.74 526.68 199.74 526.81 199.74 526.92 199.75 527.11 199.75 527.26 199.86 527.33 199.91 527.34 199.92 527.34 199.92 527.48 200.02 527.58 200.09 527.67 200.16 527.71 200.19 527.76 200.22 527.92 200.33 528.07 200.43 528.12 200.46 528.18 200.5 528.21 200.53 528.4 200.65 528.58 200.77 528.76 200.88 528.94 200.91 529.12 200.94 529.28 200.96 529.24 201.06 529.14 201.31 529.09 201.44 529.01 201.66 528.94 201.82 528.8 202.14 528.7 202.29 528.61 202.45 528.48 202.62 528.28 202.92 528.1 203.18 528.09 203.18 528.06 203.23 527.81 203.42 527.55 203.61 527.46 203.68 527.19 203.88 526.8 204.16 526.79 204.24 526.72 204.55 526.71 204.6 526.6 205.07 526.59 205.11 526.58 205.17 526.44 205.4 526.37 205.47 526.22 205.63 525.96 205.85 525.76 206.01 525.57 206.05 525.37 206.09 525.21 206.11 525.13 206.12 524.97 206.15 524.92 206.17 524.73 206.25 524.59 206.3 524.42 206.38 524.29 206.45 524.13 206.53 524.01 206.62 523.85 206.74 523.63 206.89 523.58 206.93 523.57 206.94 523.48 207.01 523.35 207.1 523.33 207.12 523.32 207.13 523.28 207.19 523.23 207.23 523.21 207.25 523.17 207.29 523.13 207.34 523.11 207.35 523.01 207.46 522.91 207.57 522.79 207.7 522.71 207.79 522.61 207.96 522.55 208.05 522.5 208.15 522.46 208.23 522.43 208.3 522.41 208.33 522.33 208.48 522.27 208.59 522.2 208.76 522.08 209.04 522.04 209.15 522.01 209.23 522 209.24 521.92 209.42 521.91 209.44 521.85 209.59 521.82 209.66 521.62 210.06 521.54 210.22 521.5 210.39 521.49 210.43 521.48 210.48 521.48 210.49 521.42 210.66 521.37 210.74 521.36 210.75 521.27 210.89 521.17 211.05 521.09 211.22 520.97 211.44 520.92 211.52 520.62 211.92 520.73 212.56 520.74 212.64 520.76 212.75 520.78 212.93 520.78 212.94 520.78 212.95 520.78 213.04 520.78 213.17 520.75 213.52 520.74 213.67 520.7 214.09 520.69 214.21 520.68 214.23 520.68 214.23 520.68 214.31 520.68 214.32 520.68 214.34 520.67 214.61 520.65 214.96 520.64 215.12 520.57 215.48 520.54 215.62 520.51 215.81 520.46 216.05 520.44 216.12 520.37 216.45 520.32 216.69 520.26 216.98 520.24 217.07 520.22 217.17 520.19 217.33 520.17 217.41 520.17 217.51 520.16 217.54 520.16 217.59 520.14 217.81 520.14 217.83 520.13 217.95 520.13 217.99 520.13 218.12 520.14 218.3 520.15 218.62 520.15 218.65 520.15 218.68 520.16 218.78 520.16 218.94 520.16 218.95 520.16 218.97 520.17 219.03 520.17 219.2 520.22 219.47 520.29 219.83 520.32 219.96 520.33 219.97 520.39 220.23 520.39 220.48 520.4 220.95 520.4 220.97 520.61 221.48 520.6 221.5 520.52 221.61 520.57 221.71 520.59 221.75 520.6 221.77 520.6 221.78 520.77 222.15 521.05 222.78 521.15 223.01 521.29 222.99 521.46 223.47 521.67 224.06 521.81 224.45 521.82 224.46 521.83 224.56 521.82 224.55 521.53 224.45 520.99 224.26 520.35 224.05 520.08 223.95 519.76 223.86 519.44 223.77 519.09 223.65 518.93 223.63 518.92 223.63 518.68 223.6 518.42 223.51 518.37 223.49 518.13 223.53 517.72 223.61 517.47 223.65 517.31 223.67 517.28 223.67 517.15 223.66 517.03 223.64 516.72 223.61 516.46 223.79 516.29 223.91 516.09 223.98 516.05 223.99 516.04 224 515.93 224.15 515.78 224.33 515.7 224.43 515.74 224.5 515.77 224.59 515.8 224.64 515.82 224.66 515.93 224.74 516.01 224.79 516.06 224.84 516.17 224.96 516.29 225.09 516.42 225.22 516.54 225.36 516.66 225.48 516.77 225.6 516.84 225.68 516.88 225.71 516.97 225.79 517.07 225.88 517.17 225.99 517.27 226.1 517.32 226.14 517.42 226.19 517.58 226.24 517.59 226.25 517.72 226.29 517.82 226.33 517.86 226.34 517.97 226.38 518.06 226.51 518.21 226.71 518.33 226.89 518.38 226.96 518.4 227.13 518.42 227.3 518.37 227.44 518.31 227.64 518.25 227.85 518.24 227.88 518.19 228.02 518.16 228.14 518.14 228.18 518.09 228.28 517.94 228.56 517.91 228.63 517.86 228.73 517.87 228.78 517.91 229.01 517.95 229.23 517.98 229.45 517.99 229.48 518 229.57 518.02 229.72 518.03 229.83 518.04 229.88 518.06 230.06 518.07 230.24 518.07 230.32 518.07 230.34 518.07 230.41 518.08 230.49 518.08 230.52 518.08 230.65 518.09 230.73 518.09 230.82 518.09 230.86 518.09 230.91 518.16 230.99 518.24 231.07 518.33 231.17 518.43 231.28 518.51 231.37 518.58 231.44 518.61 231.49 518.51 231.56 518.45 231.6 518.3 231.71 518.19 231.78 518.06 231.87 517.91 231.91 517.78 231.95 517.71 231.97 517.59 232.03 517.44 232.08 517.23 232.17 517.17 232.19 517.08 232.23 516.97 232.27 516.84 232.32 516.76 232.35 516.65 232.39 516.61 232.4 516.5 232.44 516.39 232.47 516.29 232.48 516.15 232.5 515.98 232.51 515.85 232.52 515.75 232.53 515.72 232.53 515.59 232.54 515.51 232.67 515.44 232.78 515.43 232.8 515.42 232.82 515.41 232.84 515.4 232.85 515.38 232.89 515.36 232.93 515.35 232.94 515.32 232.99 515.28 233.06 515.2 233.18 515.14 233.27 515.1 233.35 515.08 233.38 515.05 233.43 515.01 233.49 514.95 233.62 514.88 233.74 514.81 233.87 514.79 233.9 514.74 234 514.7 234.07 514.68 234.07 514.61 234.06 514.49 234.04 514.35 234.02 514.23 234.01 514.13 233.99 514.08 233.99 514 233.98 513.85 233.97 513.75 233.95 513.7 233.98 513.64 234.03 513.51 234.12 513.42 234.18 513.34 234.24 513.38 234.28 513.42 234.32 513.44 234.35 513.48 234.39 513.54 234.46 513.58 234.52 513.63 234.59 513.56 234.66 513.52 234.7 513.51 234.71 513.5 234.73 513.49 234.74 513.48 234.77 513.45 234.81 513.44 234.83 513.42 234.88 513.39 234.92 513.36 234.96 513.34 235 513.28 235.07 513.22 235.1 513.16 235.14 513.15 235.14 513.1 235.17 513.07 235.19 513.05 235.18 513.02 235.16 513 235.15 512.98 235.14 512.96 235.12 512.94 235.1 512.92 235.09 512.91 235.08 512.9 235.07 512.88 235.05 512.86 235.04 512.83 235.01 512.81 235 512.79 234.99 512.77 234.98 512.76 234.97 512.75 234.97 512.74 234.96 512.72 234.96 512.7 234.95 512.67 234.94 512.66 234.93 512.63 234.92 512.61 234.91 512.6 234.9 512.58 234.89 512.57 234.89 512.56 234.88 512.53 234.86 512.52 234.85 512.49 234.83 512.48 234.82 512.47 234.81 512.45 234.77 512.43 234.76 512.43 234.75 512.42 234.74 512.41 234.72 512.4 234.71 512.38 234.69 512.37 234.64 512.35 234.61 512.34 234.58 512.32 234.55 512.3 234.54 512.28 234.52 512.27 234.51 512.25 234.5 512.24 234.49 512.22 234.48 512.21 234.48 512.19 234.48 512.17 234.48 512.16 234.48 512.15 234.48 512.14 234.48 512.12 234.48 512.1 234.48 512.09 234.49 512.08 234.49 512.05 234.5 512.04 234.5 512 234.52 511.96 234.54 511.91 234.57 511.87 234.58 511.82 234.6 511.8 234.58 511.79 234.55 511.76 234.51 511.73 234.46 511.7 234.42 511.67 234.39 511.64 234.36 511.61 234.34 511.57 234.31 511.53 234.28 511.49 234.26 511.43 234.23 511.45 234.21 511.48 234.19 511.51 234.16 511.52 234.14 511.53 234.11 511.54 234.09 511.55 234.06 511.54 234.04 511.54 234.01 511.52 233.98 511.5 233.96 511.48 233.94 511.46 233.91 511.45 233.9 511.39 233.84 511.37 233.81 511.36 233.8 511.32 233.8 511.27 233.82 511.26 233.82 511.24 233.82 511.2 233.83 511.15 233.84 511.1 233.85 511.04 233.86 510.99 233.87 510.93 233.84 510.88 233.82 510.83 233.81 510.77 233.8 510.7 233.79 510.63 233.78 510.49 233.75 510.31 233.72 510.22 233.84 510.21 233.86 510.18 233.9 510.14 233.95 510.11 233.98 510.09 234 510.04 234.05 510.04 234.05 510.03 234.07 510 234.04 509.97 234.02 509.94 233.99 509.9 233.96 509.87 233.94 509.85 233.94 509.82 233.94 509.76 233.93 509.71 233.93 509.66 233.92 509.62 233.91 509.55 233.9 509.5 233.9 509.46 233.9 509.42 233.9 509.41 233.9 509.38 233.91 509.34 233.91 509.3 233.92 509.26 233.93 509.22 233.93 509.19 233.93 509.13 233.92 509.1 233.92 509.06 233.92 509.04 233.93 508.99 233.94 508.95 233.96 508.9 233.98 508.86 234 508.82 234.02 508.8 234.04 508.77 234.07 508.75 234.1 508.73 234.12 508.71 234.13 508.68 234.14 508.65 234.15 508.6 234.15 508.5 234.16 508.42 234.17 508.38 234.17 508.36 234.17 508.35 234.17 508.35 234.18 508.35 234.2 508.35 234.24 508.37 234.36 508.37 234.38 508.38 234.43 508.39 234.51 508.4 234.59 508.4 234.64 508.4 234.66 508.4 234.69 508.39 234.71 508.39 234.72 508.38 234.75 508.36 234.8 508.34 234.85 508.31 234.9 508.27 234.96 508.24 235.02 508.23 235.05 508.21 235.08 508.19 235.14 508.15 235.22 508.1 235.31 508.08 235.35 508.07 235.37 508.04 235.44 508.02 235.53 507.99 235.59 507.97 235.65 507.91 235.77 507.84 235.9 507.79 235.99 507.76 236.05 507.74 236.09 507.73 236.11 507.66 236.19 507.59 236.3 507.55 236.35 507.5 236.42 507.44 236.5 507.37 236.58 507.29 236.67 507.2 236.77 507.1 236.89 507.02 237.01 506.86 236.94 506.71 236.87 506.59 236.82 506.49 236.78 506.42 236.75 506.31 236.73 506.26 236.72 506.2 236.7 506.13 236.69 506.06 236.67 506.03 236.67 506.02 236.66 505.92 236.64 505.8 236.64 505.65 236.64 505.47 236.65 505.29 236.67 505.15 236.68 505.07 236.68 504.96 236.68 504.87 236.67 504.79 236.66 504.73 236.65 504.63 236.63 504.5 236.61 504.4 236.58 504.29 236.55 504.17 236.52 504.06 236.48 503.96 236.43 503.87 236.39 503.78 236.34 503.64 236.27 503.5 236.19 503.37 236.12 503.23 236.04 503.1 235.96 502.97 235.89 502.85 235.82 502.73 235.76 502.63 235.7 502.53 235.63 502.41 235.55 502.34 235.5 502.28 235.46 502.18 235.36 502.04 235.25 501.93 235.15 501.77 235.03 501.68 234.94 501.61 234.88 501.51 234.78 501.4 234.68 501.31 234.59 501.22 234.5 501.17 234.45 501.1 234.32 501.03 234.19 500.98 234.11 500.96 234.06 500.89 233.93 500.82 233.81 500.75 233.68 500.7 233.58 500.64 233.45 500.6 233.38 500.56 233.29 500.52 233.2 500.51 233.14 500.51 233.13 500.49 233.02 500.47 232.94 500.46 232.86 500.44 232.79 500.44 232.71 500.44 232.6 500.44 232.47 500.43 232.35 500.43 232.26 500.43 232.21 500.43 232.15 500.43 232.12 500.46 232.03 500.49 231.9 500.53 231.76 500.55 231.68 500.57 231.58 500.59 231.49 500.6 231.44 500.63 231.36 500.64 231.29 500.66 231.22 500.68 231.15 500.7 231.07 500.71 230.99 500.73 230.92 500.74 230.87 500.76 230.73 500.77 230.64 500.78 230.55 500.79 230.46 500.8 230.39 500.81 230.32 500.82 230.21 500.83 230.12 500.84 230.05 500.84 229.98 500.85 229.91 500.86 229.87 500.86 229.82 500.87 229.78 500.87 229.69 500.88 229.62 500.89 229.55 500.9 229.47 500.9 229.39 500.91 229.29 500.91 229.21 500.91 229.14 500.9 229.01 500.89 228.81 500.88 228.73 500.87 228.7 500.87 228.69 500.87 228.58 500.87 228.49 500.86 228.39 500.86 228.25 500.85 228.21 500.45 228.06 500.04 227.89 499.73 227.75 499.45 227.89 499.2 228.02 498.86 227.77 498.72 227.66 498.43 227.44 497.87 227.01 497.78 226.67 497.7 226.32 497.71 226.2 497.71 226.17 497.71 226.15 497.72 225.95 497.73 225.63 497.74 225.47 497.74 225.35 497.73 225.36 497.67 225.39 497.64 225.4 497.62 225.4 497.63 225.35 497.64 225.29 497.65 225.2 497.68 225.08 497.69 224.94 497.7 224.86 497.73 224.64 497.4 224.49 497.08 224.32 497.06 224.32 496.95 224.26 496.74 224.17 496.64 224.12 496.35 223.92 496.17 223.8 496.16 223.79 496.15 223.79 496.1 223.75 496.07 223.73 495.95 223.68 495.85 223.63 495.72 223.58 495.6 223.52 495.53 223.49 495.52 223.48 495.4 223.43 495.31 223.4 495.24 223.35 495.22 223.34 495.19 223.32 495.11 223.27 495.02 223.21 494.93 223.14 494.86 223.09 494.78 223.03 494.67 222.96 494.59 222.9 494.44 222.88 494.28 222.86 494.14 222.85 494 222.83 493.87 222.82 493.74 222.8 493.61 222.79 493.5 222.77 493.38 222.76 493.28 222.75 493.15 222.73 493.08 222.71 492.95 222.7 492.8 222.67 492.68 222.66 492.61 222.71 492.58 222.73 492.45 222.82 492.32 222.91 492.2 222.99 492.07 223.07 491.95 223.16 491.86 223.22 491.76 223.3 491.72 223.33 491.67 223.37 491.58 223.46 491.49 223.55 491.39 223.64 491.31 223.73 491.22 223.8 491.12 223.83 491.02 223.86 490.87 223.91 490.72 223.96 490.58 224.01 490.43 224.06 490.33 224.08 490.3 224.08 490.26 224.08 490.16 224.07 490.04 224.07 489.95 224.06 489.83 224.05 489.74 224.05 489.64 224.04 489.53 224.04 489.32 224.02 489.2 224.01 489.19 224.13 489.19 224.21 489.18 224.32 489.17 224.46 489.16 224.57 489.15 224.68 489.14 224.81 489.07 224.83 488.95 224.85 488.82 224.87 488.72 224.89 488.47 224.93 488.36 224.95 488.31 224.95 488.13 224.95 488.04 224.95 487.91 224.94 487.8 224.92 487.66 224.9 487.49 224.87 487.34 224.85 487.23 224.83 487.05 224.8 486.97 224.81 486.86 224.83 486.75 224.82 486.64 224.81 486.52 224.79 486.41 224.82 486.32 224.84 486.2 224.87 486.04 224.9 485.97 224.92 485.84 224.95 485.7 224.98 485.61 225.01 485.59 225.01 485.55 225.02 485.44 225.05 485.31 225.09 485.28 225 485.26 224.92 485.25 224.84 485.21 224.7 485.19 224.58 485.16 224.45 485.13 224.32 485.11 224.2 485.09 224.1 485.05 224.01 485 223.9 484.94 223.8 484.9 223.7 484.88 223.63 484.84 223.53 484.8 223.41 484.76 223.29 484.73 223.2 484.7 223.09 484.73 223.02 484.78 222.93 484.83 222.85 484.88 222.75 484.95 222.62 484.99 222.53 485.01 222.45 485.02 222.35 485.03 222.26 485.05 222.14 485.06 222.05 485.07 221.95 485.09 221.85 485.1 221.76 485.12 221.64 485.18 221.59 485.24 221.56 485.31 221.51 485.33 221.35 485.31 221.25 485.3 221.16 485.29 221.05 485.28 220.96 485.27 220.86 485.28 220.76 485.29 220.69 485.3 220.61 485.32 220.53 485.34 220.41 485.34 220.34 485.35 220.25 485.36 220.12 485.37 219.99 485.38 219.87 485.38 219.76 485.39 219.66 485.39 219.55 485.4 219.47 485.41 219.36 485.41 219.26 485.42 219.14 485.43 219.06 485.44 218.95 485.45 218.87 485.46 218.76 485.46 218.63 485.47 218.51 485.48 218.42 485.49 218.27 485.5 218.15 485.51 217.98 485.52 217.84 485.52 217.73 485.53 217.61 485.53 217.5 485.54 217.4 485.56 217.33 485.58 217.25 485.61 217.16 485.63 217.09 485.65 217 485.68 216.86 485.71 216.78 485.72 216.74 485.75 216.67 485.76 216.63 485.77 216.62 485.79 216.6 485.79 216.58 485.8 216.54 485.83 216.47 485.85 216.42 485.87 216.35 485.89 216.31 485.89 216.29 485.89 216.28 485.9 216.27 485.9 216.27 485.91 216.24 485.92 216.19 485.94 216.14 485.97 216.03 486.01 215.93 486.04 215.83 486.06 215.77 486.06 215.76 486.09 215.69 486.11 215.66 486.14 215.62 486.16 215.59 486.17 215.57 486.22 215.52 486.23 215.5 486.26 215.47 486.29 215.43 486.3 215.42 486.33 215.38 486.37 215.33 486.4 215.27 486.41 215.26 486.43 215.24 486.47 215.2 486.53 215.13 486.58 215.09 486.59 215.07 486.6 215.06 486.66 215 486.69 214.96 486.7 214.94 486.74 214.86 486.77 214.78 486.81 214.69 486.85 214.59 486.9 214.49 486.94 214.4 486.96 214.35 486.98 214.29 487.01 214.19 487.03 214.1 487.04 214.08 487.04 214.07 487.06 214.01 487.09 213.9 487.11 213.82 487.13 213.72 487.15 213.53 487.16 213.49 487.17 213.41 487.19 213.29 487.2 213.16 487.21 213.09 487.21 213.07 487.22 213.02 487.22 212.99 487.23 212.93 487.25 212.83 487.25 212.78 487.26 212.63 487.26 212.52 487.27 212.44 487.27 212.34 487.27 212.33 487.27 212.33 487.27 212.31 487.28 212.27 487.28 212.2 487.28 212.19 487.26 212.05 487.24 211.92 487.23 211.8 487.21 211.68 487.21 211.66 487.19 211.58 487.19 211.53 487.18 211.43 487.18 211.34 487.18 211.3 487.18 211.2 487.18 211.08 487.17 211 487.18 210.85 487.18 210.73 487.18 210.64 487.19 210.52 487.2 210.41 487.21 210.29 487.21 210.16 487.22 210.06 487.23 209.96 487.22 209.93 487.21 209.82 487.19 209.71 487.17 209.6 487.16 209.49 487.14 209.39 487.13 209.33 487.13 209.31 487.14 209.2 487.14 209.19 487.15 209.11 487.16 208.98 487.17 208.84 487.14 207.81 487.14 207.71 487.15 207.57 487.15 207.47 487.15 207.45 487.16 207.36 487.17 207.25 487.17 207.09 487.18 206.94 487.17 206.8 487.17 206.65 487.17 206.59 487.17 206.58 487.16 206.51 487.13 206.43 487.07 206.24 487.02 206.09 486.99 206 486.98 205.98 486.95 205.9 486.9 205.77 486.89 205.76 486.83 205.63 486.79 205.53 486.77 205.46 486.76 205.43 486.66 205.2 486.63 205.07 486.62 205.06 486.62 205.05 486.58 204.85 486.54 204.7 486.5 204.52 486.46 204.34 486.48 204.31 486.51 204.24 486.56 204.14 486.73 203.96 486.78 203.9 486.81 203.87 486.85 203.82 486.95 203.71 487.07 203.57 487.12 203.49 487.27 203.25 487.34 203.13 487.41 202.96 487.45 202.87 487.53 202.66 487.59 202.52 487.65 202.37 487.75 202.1 487.82 201.94 487.89 201.84 487.98 201.7 488.09 201.54 488.1 201.53 488.11 201.52 488.12 201.51 488.21 201.38 488.31 201.23 488.37 201.07 488.41 200.97 488.46 200.84 488.52 200.7 488.57 200.59 488.6 200.53 488.66 200.45 488.78 200.28 488.94 200.07 489.06 199.92 489.16 199.8 489.33 199.6 489.47 199.45 489.49 199.43 489.53 199.38 489.67 199.22 489.89 198.99 490.03 198.83 490.21 198.64 490.36 198.47 490.52 198.29 490.68 198.12 490.94 197.72 491.15 197.33 491.34 196.99 491.51 196.67 492.02 196.57 492.68 196.22 492.75 196.15 493.03 195.88 493.18 195.75 493.47 195.66 493.69 195.6 493.96 195.53 494.28 195.36 494.68 195.22 494.74 195.18 494.78 195.17 494.78 195.17 494.82 195.15 Z"/>
</g></svg>