<svg xmlns="http://www.w3.org/2000/svg" version="1.2" baseProfile="tiny" stroke-linecap="round" stroke-linejoin="round" viewBox="511.38 335.62 30.67 23.88"><g xmlns="http://www.w3.org/2000/svg" id="Untzue">
<path d="M 542.04 335.62 542.02 335.66 542 335.71 541.95 335.81 541.89 335.95 541.82 336.09 541.68 336.38 541.61 336.52 541.54 336.67 541.48 336.8 541.41 336.95 541.39 336.98 541.33 337.09 541.25 337.23 541.17 337.36 541.09 337.49 541.02 337.61 540.99 337.67 540.94 337.76 540.91 337.8 540.85 337.89 540.8 337.99 540.76 338.08 540.74 338.15 540.71 338.21 540.69 338.28 540.66 338.35 540.63 338.42 540.61 338.48 540.58 338.56 540.55 338.62 540.53 338.68 540.5 338.74 540.48 338.8 540.47 338.83 540.47 338.89 540.46 338.99 540.45 339.11 540.44 339.18 540.44 339.25 540.43 339.28 540.42 339.3 540.4 339.38 540.37 339.44 540.35 339.52 540.33 339.58 540.3 339.66 540.28 339.73 540.25 339.8 540.23 339.87 540.21 339.94 540.19 340.01 540.14 340.16 540.12 340.23 540.08 340.25 540.03 340.28 539.95 340.33 539.89 340.37 539.83 340.41 539.77 340.45 539.69 340.5 539.64 340.53 539.59 340.56 539.58 340.56 539.56 340.58 539.54 340.59 539.51 340.61 539.47 340.64 539.45 340.66 539.39 340.71 539.36 340.73 539.33 340.76 539.28 340.78 539.2 340.81 539.15 340.83 539.07 340.87 539 340.9 538.92 340.94 538.86 340.96 538.84 340.97 538.78 341 538.72 341.03 538.64 341.06 538.59 341.09 538.5 341.13 538.46 341.15 538.45 341.15 538.39 341.18 538.3 341.22 538.23 341.26 538.21 341.26 538.17 341.28 538.1 341.31 538.03 341.34 538.02 341.35 537.94 341.38 537.88 341.41 537.86 341.42 537.8 341.45 537.76 341.47 537.62 341.57 537.59 341.59 537.58 341.6 537.57 341.61 537.55 341.62 537.5 341.66 537.42 341.72 537.4 341.74 537.38 341.75 537.37 341.77 537.3 341.82 537.25 341.86 537.19 341.91 537.12 341.96 537.08 342 537.05 342.02 537.01 342.05 537 342.06 536.93 342.11 536.89 342.14 536.85 342.16 536.81 342.21 536.77 342.25 536.71 342.31 536.67 342.36 536.61 342.43 536.6 342.43 536.57 342.46 536.54 342.49 536.5 342.53 536.45 342.58 536.39 342.63 536.33 342.68 536.27 342.74 536.26 342.74 536.25 342.75 536.24 342.76 536.23 342.76 536.22 342.77 536.15 342.82 536.1 342.85 536.08 342.86 536 342.92 535.95 342.95 535.87 343 535.82 343.03 535.74 343.08 535.69 343.12 535.62 343.16 535.56 343.2 535.49 343.25 535.44 343.28 535.36 343.33 535.31 343.36 535.23 343.42 535.17 343.45 535.09 343.5 535.03 343.54 534.92 343.53 534.88 343.52 534.79 343.5 534.73 343.49 534.64 343.47 534.59 343.46 534.51 343.44 534.5 343.44 534.44 343.43 534.42 343.42 534.35 343.41 534.29 343.4 534.28 343.4 534.21 343.39 534.2 343.38 534.18 343.38 534.15 343.37 534.06 343.35 534 343.34 533.92 343.33 533.85 343.31 533.78 343.3 533.71 343.29 533.63 343.26 533.58 343.26 533.57 343.25 533.52 343.24 533.46 343.23 533.41 343.23 533.34 343.24 533.26 343.24 533.16 343.24 533.1 343.25 533.04 343.25 533.01 343.25 532.94 343.25 532.93 343.34 532.93 343.35 532.93 343.37 532.93 343.39 532.92 343.48 532.92 343.55 532.92 343.62 532.88 343.69 532.83 343.78 532.81 343.83 532.78 343.89 532.74 343.96 532.63 344.17 532.6 344.22 532.57 344.29 532.54 344.34 532.54 344.35 532.53 344.37 532.46 344.5 532.39 344.64 532.31 344.78 532.26 344.89 532.24 344.91 532.11 345.03 532.07 345.08 532 345.14 531.95 345.18 531.88 345.25 531.82 345.31 531.77 345.37 531.68 345.49 531.63 345.54 531.57 345.6 531.44 345.72 531.32 345.84 531.2 345.95 531.08 346.06 530.99 346.16 530.89 346.25 530.85 346.29 530.83 346.31 530.77 346.36 530.71 346.43 530.66 346.48 530.62 346.51 530.59 346.54 530.55 346.58 530.52 346.6 530.47 346.67 530.45 346.69 530.42 346.72 530.37 346.79 530.31 346.87 530.27 346.92 530.23 346.97 530.18 347.04 530.16 347.07 530.14 347.1 530.1 347.17 530.06 347.24 530.02 347.3 529.98 347.36 529.9 347.5 529.87 347.56 529.83 347.62 529.8 347.69 529.79 347.75 529.78 347.77 529.75 347.84 529.73 347.91 529.7 347.99 529.67 348.07 529.66 348.1 529.66 348.12 529.65 348.13 529.63 348.22 529.6 348.28 529.55 348.42 529.51 348.56 529.48 348.63 529.45 348.71 529.4 348.86 529.37 348.92 529.33 348.99 529.25 349.09 529.24 349.21 529.23 349.28 529.23 349.31 529.17 349.41 529.1 349.55 529.09 349.57 529.06 349.67 529.06 349.69 529.02 349.81 529 349.88 528.98 349.95 528.94 350.1 528.9 350.24 528.86 350.39 528.82 350.54 528.78 350.7 528.73 350.84 528.69 351 528.64 351.16 528.6 351.32 528.56 351.45 528.54 351.48 528.46 351.62 528.45 351.64 528.44 351.66 528.43 351.67 528.41 351.71 528.38 351.74 528.26 351.88 528.14 352.01 528.04 352.13 527.94 352.25 527.87 352.33 527.83 352.37 527.73 352.49 527.62 352.61 527.51 352.73 527.42 352.84 527.4 352.86 527.32 352.95 527.29 352.98 527.2 353.09 527.18 353.11 527.13 353.16 527.12 353.17 527.09 353.19 527.08 353.19 527.05 353.21 526.91 353.27 526.85 353.3 526.83 353.31 526.8 353.33 526.77 353.35 526.63 353.46 526.63 353.46 526.62 353.47 526.5 353.56 526.37 353.65 526.23 353.75 526.13 353.83 526.11 353.85 526.09 353.86 526.04 353.91 525.98 353.96 525.98 353.96 525.89 354.05 525.88 354.06 525.76 354.18 525.64 354.28 525.52 354.39 525.42 354.49 525.31 354.62 525.22 354.72 525.2 354.74 525.29 354.83 525.3 354.84 525.29 354.85 525.29 354.85 525.2 354.94 525.07 355.06 524.96 355.16 524.84 355.27 524.78 355.32 524.71 355.38 524.64 355.45 524.59 355.49 524.47 355.59 524.39 355.66 524.38 355.68 524.36 355.69 524.33 355.72 524.23 355.79 524.2 355.81 524.09 355.89 523.95 355.99 523.82 356.08 523.69 356.18 523.55 356.28 523.41 356.38 523.35 356.42 523.28 356.46 523.14 356.54 523.06 356.59 522.99 356.62 522.88 356.69 522.8 356.73 522.78 356.74 522.74 356.76 522.6 356.84 522.58 356.85 522.55 356.87 522.53 356.87 522.44 356.84 522.28 356.79 522.27 356.79 522.27 356.79 522.23 356.78 522.16 356.75 522.15 356.75 522.14 356.74 522.12 356.74 522.01 356.7 521.99 356.7 521.95 356.68 521.92 356.67 521.86 356.68 521.84 356.68 521.8 356.69 521.79 356.69 521.77 356.7 521.68 356.72 521.61 356.74 521.52 356.76 521.45 356.78 521.38 356.79 521.36 356.8 521.3 356.81 521.21 356.83 521.16 356.85 521.05 356.87 521 356.88 520.99 356.88 520.96 356.89 520.9 356.91 520.82 356.94 520.78 356.95 520.77 356.95 520.75 356.96 520.68 356.97 520.6 357 520.54 357.01 520.46 357.03 520.4 357.05 520.31 357.07 520.27 357.08 520.26 357.08 520.23 357.09 520.22 357.1 520.19 357.11 520.17 357.12 520.09 357.16 520.06 357.17 520.04 357.18 519.99 357.2 519.95 357.22 519.93 357.23 519.9 357.24 519.85 357.25 519.81 357.27 519.78 357.28 519.74 357.29 519.63 357.32 519.6 357.33 519.58 357.34 519.44 357.38 519.37 357.4 519.29 357.42 519.18 357.47 519.15 357.47 518.98 357.52 518.81 357.57 518.65 357.62 518.57 357.64 518.55 357.65 518.54 357.65 518.48 357.67 518.39 357.7 518.32 357.72 518.3 357.72 518.16 357.77 518.08 357.79 518.06 357.79 518.05 357.8 518.01 357.81 517.99 357.82 517.82 357.87 517.8 357.87 517.72 357.9 517.65 357.93 517.58 357.96 517.5 357.99 517.34 358.05 517.33 358.06 517.2 358.11 517.11 358.15 517.04 358.17 516.89 358.23 516.74 358.29 516.6 358.36 516.45 358.41 516.31 358.47 516.16 358.53 516.02 358.59 516 358.6 515.98 358.61 515.96 358.61 515.89 358.64 515.88 358.65 515.87 358.66 515.85 358.69 515.75 358.79 515.64 358.91 515.62 358.93 515.58 358.94 515.57 358.95 515.54 359.02 515.53 359.05 515.48 359.19 515.47 359.21 515.45 359.26 515.41 359.36 515.4 359.39 515.25 359.38 515.17 359.36 515.12 359.36 515.08 359.35 515.03 359.34 514.9 359.33 514.72 359.3 514.7 359.3 514.55 359.28 514.52 359.27 514.51 359.27 514.47 359.27 514.38 359.24 514.36 359.24 514.21 359.19 514.17 359.18 514.15 359.17 514.05 359.14 513.98 359.12 513.88 359.08 513.79 359.06 513.78 359.05 513.73 359.03 513.57 358.99 513.54 358.98 513.54 358.98 513.5 358.97 513.43 358.98 513.33 358.99 513.27 359 513.17 359.01 513.16 359.01 513.14 359.01 513.11 359.02 513.1 359.02 513.09 359.02 513.08 359.02 512.95 359.03 512.86 359.04 512.8 359.05 512.79 359.05 512.65 359.07 512.63 359.07 512.58 359.08 512.53 359.08 512.52 359.09 512.5 359.09 512.42 359.14 512.34 359.18 512.27 359.21 512.27 359.22 512.16 359.27 512.13 359.28 512.11 359.3 512.06 359.32 512.02 359.36 512 359.36 511.87 359.47 511.87 359.45 511.86 359.41 511.85 359.35 511.83 359.27 511.81 359.17 511.79 359.12 511.77 359.06 511.76 358.97 511.78 358.89 511.79 358.79 511.8 358.68 511.8 358.66 511.8 358.62 511.79 358.57 511.75 358.47 511.72 358.42 511.68 358.38 511.62 358.32 511.59 358.27 511.55 358.19 511.52 358.1 511.48 358 511.45 357.89 511.44 357.81 511.43 357.76 511.43 357.68 511.42 357.57 511.42 357.55 511.42 357.47 511.43 357.39 511.43 357.33 511.45 357.24 511.41 357.19 511.43 357.16 511.44 357.15 511.5 357.07 511.58 356.99 511.6 356.97 511.6 356.96 511.62 356.94 511.69 356.86 511.8 356.74 511.88 356.65 511.9 356.63 511.9 356.61 511.94 356.57 511.94 356.57 512 356.5 512.04 356.43 512.05 356.41 512.12 356.32 512.12 356.31 512.13 356.3 512.2 356.21 512.21 356.19 512.23 356.16 512.32 356.05 512.33 356.04 512.39 355.97 512.39 355.96 512.4 355.95 512.4 355.95 512.44 355.9 512.45 355.88 512.48 355.84 512.51 355.8 512.55 355.74 512.55 355.73 512.55 355.72 512.57 355.67 512.59 355.63 512.61 355.58 512.61 355.54 512.63 355.51 512.65 355.49 512.69 355.47 512.75 355.44 512.79 355.43 512.81 355.42 512.85 355.38 512.88 355.36 512.92 355.31 512.99 355.26 512.99 355.25 513.05 355.2 513.07 355.18 513.08 355.17 513.15 355.09 513.17 355.07 513.18 355.05 513.19 355.04 513.25 354.98 513.25 354.97 513.26 354.96 513.31 354.88 513.35 354.84 513.35 354.83 513.36 354.82 513.38 354.82 513.42 354.81 513.44 354.8 513.46 354.78 513.48 354.75 513.49 354.71 513.49 354.68 513.52 354.64 513.55 354.57 513.57 354.51 513.57 354.49 513.61 354.39 513.68 354.22 513.74 354.09 513.74 354.09 513.78 354.01 513.83 353.93 513.84 353.92 513.88 353.85 513.95 353.74 513.98 353.71 514 353.68 514.01 353.66 514 353.6 514 353.59 513.99 353.53 514.03 353.55 514.07 353.55 514.12 353.55 514.18 353.55 514.25 353.55 514.31 353.54 514.38 353.52 514.46 353.5 514.52 353.5 514.57 353.49 514.62 353.49 514.68 353.49 514.75 353.47 514.8 353.45 514.85 353.44 514.9 353.43 514.99 353.41 515.01 353.41 515.09 353.39 515.24 353.36 515.36 353.32 515.44 353.29 515.48 353.28 515.51 353.27 515.52 353.26 515.6 353.23 515.67 353.21 515.73 353.19 515.74 353.16 515.75 353.15 515.76 353.12 515.78 353.06 515.8 352.99 515.81 352.96 515.82 352.93 515.85 352.85 515.85 352.84 515.85 352.83 515.87 352.77 515.89 352.73 515.9 352.7 515.9 352.65 515.89 352.57 515.88 352.52 515.88 352.51 515.86 352.39 515.86 352.36 515.86 352.29 515.85 352.24 515.85 352.16 515.86 352.1 515.87 352.04 515.88 351.98 515.9 351.94 515.91 351.89 515.92 351.88 515.94 351.82 515.97 351.77 515.99 351.75 516.02 351.71 516.06 351.65 516.05 351.58 516.03 351.51 516.03 351.48 516 351.34 516.01 351.31 516.05 351.21 516.07 351.17 516.07 351.15 516.08 351.13 516.12 351.03 516.13 350.97 516.13 350.95 516.13 350.87 516.12 350.83 516.12 350.82 516.12 350.75 516.12 350.67 516.12 350.59 516.12 350.55 516.12 350.53 516.11 350.32 516.11 350.23 516.2 350.18 516.3 350.12 516.39 350.07 516.45 350.04 516.53 350 516.59 349.96 516.67 349.92 516.69 349.91 516.72 349.88 516.77 349.85 516.82 349.82 516.91 349.8 516.99 349.78 517.05 349.77 517.1 349.76 517.16 349.76 517.2 349.76 517.26 349.78 517.32 349.78 517.36 349.78 517.39 349.78 517.41 349.79 517.43 349.79 517.46 349.79 517.48 349.8 517.52 349.8 517.53 349.8 517.59 349.78 517.67 349.76 517.72 349.75 517.8 349.72 517.87 349.7 517.9 349.69 517.91 349.69 517.93 349.68 517.94 349.68 518 349.66 518.02 349.65 518.05 349.64 518.09 349.62 518.12 349.61 518.15 349.6 518.19 349.58 518.21 349.57 518.29 349.53 518.3 349.51 518.36 349.42 518.43 349.32 518.48 349.25 518.5 349.22 518.56 349.14 518.64 349.05 518.71 348.97 518.74 348.93 518.78 348.89 518.83 348.82 518.9 348.75 518.91 348.73 518.97 348.67 519.04 348.6 519.12 348.53 519.13 348.52 519.18 348.48 519.25 348.4 519.33 348.32 519.4 348.24 519.47 348.17 519.53 348.11 519.61 348.02 519.66 347.96 519.73 347.88 519.83 347.84 519.85 347.83 519.96 347.77 520.04 347.72 520.13 347.68 520.17 347.65 520.23 347.61 520.34 347.55 520.43 347.5 520.53 347.44 520.61 347.4 520.72 347.34 520.81 347.28 520.91 347.22 521 347.16 521.08 347.1 521.19 347.03 521.28 346.98 521.38 346.9 521.43 346.87 521.5 346.83 521.57 346.79 521.67 346.74 521.73 346.71 521.78 346.68 521.84 346.64 521.9 346.6 521.96 346.56 521.97 346.56 522.04 346.52 522.14 346.46 522.22 346.42 522.3 346.38 522.37 346.35 522.47 346.3 522.53 346.27 522.64 346.23 522.71 346.19 522.81 346.14 522.85 346.12 522.9 346.09 522.97 346.04 523.03 345.98 523.1 345.91 523.15 345.85 523.22 345.77 523.28 345.71 523.35 345.64 523.42 345.56 523.48 345.5 523.55 345.43 523.61 345.36 523.69 345.28 523.75 345.22 523.81 345.14 523.87 345.08 523.95 345 524.01 344.94 524.08 344.87 524.22 344.73 524.3 344.66 524.45 344.52 524.53 344.45 524.59 344.39 524.68 344.31 524.75 344.25 524.78 344.22 524.84 344.14 524.89 344.06 524.92 344.02 524.95 343.96 525 343.87 525.06 343.78 525.11 343.71 525.16 343.63 525.23 343.52 525.27 343.46 525.33 343.35 525.38 343.26 525.42 343.2 525.46 343.13 525.5 343.07 525.52 343.03 525.56 342.97 525.62 342.87 525.64 342.84 525.68 342.77 525.69 342.76 525.73 342.69 525.78 342.61 525.85 342.52 525.89 342.46 525.93 342.4 525.98 342.34 526.01 342.31 526.06 342.25 526.11 342.19 526.18 342.13 526.25 342.06 526.28 342.03 526.3 342.02 526.31 342 526.38 341.93 526.43 341.87 526.5 341.77 526.56 341.69 526.61 341.62 526.68 341.52 526.73 341.45 526.8 341.36 526.85 341.3 526.9 341.23 526.95 341.16 527.01 341.07 527.07 341 527.11 340.96 527.15 340.89 527.16 340.85 527.17 340.82 527.19 340.77 527.22 340.66 527.26 340.55 527.29 340.46 527.33 340.35 527.34 340.27 527.37 340.17 527.39 340.08 527.4 340.05 527.4 340.01 527.41 339.93 527.42 339.87 527.42 339.82 527.38 339.76 527.34 339.71 527.32 339.69 527.34 339.65 527.34 339.6 527.34 339.51 527.34 339.41 527.35 339.32 527.35 339.2 527.36 339.14 527.35 339.08 527.35 339.04 527.36 339.01 527.46 338.93 527.51 338.89 527.61 338.8 527.68 338.76 527.78 338.67 527.86 338.62 527.95 338.54 528.04 338.47 528.08 338.43 528.15 338.39 528.21 338.34 528.26 338.3 528.29 338.2 528.29 338.19 528.32 338.16 528.35 338.14 528.37 338.12 528.4 338.11 528.42 338.08 528.46 338.04 528.51 337.99 528.56 337.95 528.63 337.9 528.68 337.86 528.74 337.81 528.79 337.77 528.85 337.73 528.9 337.7 528.93 337.68 528.97 337.65 529.02 337.61 529.07 337.57 529.14 337.53 529.21 337.49 529.25 337.46 529.34 337.4 529.41 337.37 529.46 337.34 529.54 337.27 529.6 337.22 529.66 337.17 529.73 337.12 529.78 337.08 529.83 337.04 529.85 337.03 529.91 336.98 529.96 336.94 530.01 336.9 530.06 336.85 530.11 336.82 530.18 336.76 530.25 336.71 530.32 336.65 530.39 336.61 530.48 336.53 530.56 336.47 530.64 336.41 530.75 336.33 530.82 336.27 530.83 336.27 530.86 336.23 530.9 336.21 530.97 336.16 531.03 336.11 531.08 336.08 531.11 336.06 531.13 336.04 531.17 336 531.18 336.02 531.26 336.08 531.31 336.12 531.33 336.13 531.43 336.08 531.48 336.06 531.61 335.99 531.74 335.93 531.82 335.89 531.88 335.86 532 335.79 532.11 335.74 532.14 335.74 532.27 335.79 532.41 335.84 532.55 335.9 532.68 335.96 532.85 336.03 532.96 336.07 533.06 336.11 533.1 336.12 533.13 336.25 533.16 336.39 533.25 336.72 533.31 336.96 533.33 337.01 533.37 337.18 533.38 337.24 533.43 337.42 533.45 337.51 533.5 337.67 533.53 337.74 533.58 337.87 533.61 337.94 533.64 338.02 533.66 338.06 533.68 338.11 533.73 338.2 533.8 338.33 533.88 338.48 533.99 338.67 534.02 338.73 534.03 338.75 534.09 338.86 534.16 338.99 534.24 339.14 534.36 339.35 534.44 339.51 534.52 339.65 534.62 339.6 534.73 339.53 534.86 339.46 534.98 339.38 535.11 339.31 535.25 339.22 535.36 339.15 535.39 339.14 535.45 339.11 535.46 339.1 535.52 339.07 535.56 339.04 535.6 339.02 535.67 338.98 535.72 338.95 535.76 338.93 535.82 338.89 535.89 338.84 535.94 338.81 536.01 338.77 536.09 338.72 536.17 338.67 536.25 338.63 536.31 338.59 536.39 338.55 536.43 338.52 536.48 338.49 536.53 338.46 536.58 338.43 536.64 338.39 536.71 338.35 536.77 338.32 536.81 338.29 536.89 338.24 536.95 338.21 536.98 338.19 537.03 338.16 537.08 338.13 537.11 338.11 537.19 338.06 537.3 338.01 537.39 337.97 537.45 337.94 537.52 337.91 537.57 337.89 537.65 337.85 537.71 337.83 537.78 337.79 537.85 337.77 537.91 337.73 537.98 337.7 538.01 337.69 538.07 337.66 538.12 337.64 538.17 337.62 538.22 337.6 538.27 337.57 538.36 337.53 538.42 337.5 538.48 337.48 538.51 337.46 538.53 337.45 538.58 337.43 538.64 337.4 538.7 337.38 538.74 337.35 538.79 337.32 538.83 337.3 538.87 337.27 538.93 337.24 538.96 337.22 539 337.19 539.05 337.17 539.08 337.15 539.09 337.14 539.16 337.1 539.24 337.04 539.33 336.99 539.39 336.95 539.47 336.91 539.53 336.87 539.6 336.82 539.69 336.77 539.77 336.71 539.84 336.68 539.86 336.66 539.91 336.64 539.97 336.6 540 336.58 540.04 336.56 540.13 336.53 540.25 336.48 540.34 336.45 540.39 336.43 540.48 336.39 540.6 336.34 540.65 336.32 540.71 336.3 540.77 336.27 540.86 336.21 540.98 336.14 541.07 336.08 541.17 336.02 541.28 335.96 541.38 335.9 541.46 335.85 541.55 335.79 541.62 335.75 541.7 335.7 541.75 335.66 541.8 335.64 541.88 335.64 541.96 335.64 542.01 335.63 542.04 335.62 Z"/>
</g></svg>