<svg xmlns="http://www.w3.org/2000/svg" version="1.2" baseProfile="tiny" stroke-linecap="round" stroke-linejoin="round" viewBox="548.75 307.7 42.8 30.4"><g xmlns="http://www.w3.org/2000/svg" id="Untziti">
<path d="M 589.71 338.07 589.63 338.03 589.6 338.02 589.55 337.99 589.54 337.98 589.46 337.93 589.25 337.8 589.12 337.73 589.01 337.67 588.91 337.61 588.84 337.57 588.79 337.56 588.74 337.54 588.69 337.53 588.65 337.53 588.61 337.53 588.57 337.54 588.55 337.54 588.52 337.55 588.48 337.56 588.46 337.56 588.42 337.56 588.4 337.56 588.34 337.55 588.25 337.52 588.2 337.5 588.18 337.5 588.15 337.49 588.12 337.49 588.08 337.49 588.05 337.5 588 337.52 587.88 337.56 587.82 337.57 587.79 337.57 587.77 337.57 587.71 337.56 587.64 337.54 587.56 337.53 587.48 337.51 587.44 337.51 587.39 337.51 587.3 337.51 587.2 337.5 587.11 337.47 587.04 337.44 586.96 337.41 586.85 337.36 586.78 337.32 586.78 337.31 586.76 337.3 586.73 337.28 586.69 337.23 586.68 337.17 586.58 337.05 586.51 336.97 586.44 336.91 586.4 336.91 586.36 336.9 586.28 336.9 586.23 336.89 586.17 336.89 586.09 336.9 585.95 336.9 585.81 336.89 585.69 336.88 585.61 336.88 585.54 336.89 585.41 336.9 585.31 336.91 585.18 336.9 585.07 336.9 584.97 336.89 584.89 336.87 584.84 336.86 584.79 336.85 584.72 336.83 584.67 336.82 584.6 336.8 584.52 336.78 584.42 336.77 584.39 336.76 584.37 336.76 584.23 336.74 584.16 336.71 584.12 336.69 584.08 336.66 584.08 336.65 584.04 336.61 583.94 336.51 583.82 336.39 583.73 336.29 583.63 336.19 583.61 336.18 583.6 336.16 583.54 336.1 583.47 336.04 583.41 335.97 583.26 335.79 583.19 335.71 583.12 335.66 583.07 335.63 583.01 335.6 582.93 335.57 582.85 335.55 582.76 335.54 582.68 335.52 582.59 335.52 582.5 335.52 582.49 335.49 582.47 335.42 582.43 335.28 582.4 335.14 582.38 335.02 582.38 334.93 582.38 334.86 582.39 334.77 582.41 334.68 582.43 334.61 582.45 334.51 582.46 334.41 582.47 334.32 582.47 334.28 582.46 334.21 582.45 334.14 582.41 334.03 582.37 333.91 582.33 333.75 582.3 333.65 582.28 333.56 582.25 333.47 582.22 333.4 582.19 333.32 582.18 333.26 582.19 333.23 582.2 333.17 582.21 333.11 582.21 333.07 582.2 333.02 582.19 332.98 582.16 332.92 582.14 332.86 582.12 332.78 582.11 332.7 582.11 332.68 582.08 332.65 582.04 332.62 581.95 332.56 581.85 332.52 581.78 332.48 581.72 332.45 581.67 332.42 581.63 332.38 581.59 332.33 581.56 332.29 581.54 332.23 581.52 332.18 581.5 332.1 581.48 332.04 581.47 331.97 581.45 331.92 581.42 331.87 581.39 331.84 581.34 331.79 581.25 331.71 581.17 331.64 581.14 331.61 581.14 331.63 581.12 331.67 581.08 331.77 581.03 331.86 580.97 331.96 580.9 332.06 580.88 332.09 580.84 332.14 580.83 332.15 580.78 332.22 580.69 332.31 580.64 332.39 580.56 332.49 580.52 332.54 580.51 332.55 580.45 332.61 580.39 332.67 580.34 332.72 580.29 332.71 580.19 332.7 580.14 332.7 580.13 332.7 580.11 332.71 580.08 332.72 579.99 332.73 579.98 332.73 579.89 332.75 579.83 332.75 579.74 332.75 579.69 332.76 579.63 332.76 579.58 332.78 579.54 332.79 579.51 332.8 579.47 332.82 579.42 332.83 579.32 332.85 579.23 332.86 579.13 332.88 579.1 332.88 579.05 332.87 579.02 332.85 578.99 332.83 578.92 332.79 578.89 332.76 578.87 332.73 578.84 332.71 578.82 332.69 578.79 332.69 578.75 332.68 578.71 332.68 578.64 332.64 578.58 332.62 578.53 332.61 578.49 332.59 578.46 332.59 578.42 332.58 578.38 332.59 578.34 332.59 578.32 332.6 578.3 332.61 578.27 332.62 578.25 332.64 578.22 332.67 578.2 332.7 578.17 332.73 578.14 332.76 578.12 332.77 578.1 332.78 578.08 332.79 578.04 332.78 577.98 332.76 577.91 332.72 577.88 332.71 577.88 332.64 577.89 332.49 577.91 332.34 577.92 332.19 577.92 332.14 577.93 332.12 577.94 332.05 577.97 331.91 577.99 331.78 578.02 331.67 578.02 331.66 578.05 331.54 578.08 331.44 578.11 331.34 578.13 331.29 578.14 331.27 578.31 331.3 578.63 331.37 578.7 331.37 578.82 331.4 578.93 331.33 579.17 331.17 579.46 330.98 579.61 330.88 580.06 330.72 580.25 330.65 580.71 330.78 580.91 330.84 581.19 330.87 581.3 330.9 581.78 331.08 581.85 331.48 582.29 331.76 582.72 331.78 582.85 331.78 583.1 331.75 583.37 331.5 583.57 331.32 583.71 331.31 583.93 331.28 584.04 331.27 584.28 331.19 584.5 331.13 584.85 331.03 584.86 331.02 584.89 331.01 584.9 331.01 585.12 330.94 585.38 330.86 585.84 330.86 586.48 330.86 586.58 330.86 586.82 330.91 586.99 330.95 587.07 330.96 587.22 331.01 587.42 331.05 587.54 331.08 587.7 331.15 587.87 331.21 587.95 331.25 588.02 331.31 588.05 331.33 588.16 331.35 588.31 331.38 588.47 331.42 588.82 331.66 589 331.76 589.15 331.84 589.27 331.9 589.52 332.03 589.91 332.11 589.9 332.16 589.89 332.26 589.88 332.37 589.9 332.47 589.94 332.62 589.97 332.75 589.97 332.81 589.98 332.96 590.01 333.09 590.07 333.26 590.1 333.38 590.13 333.48 590.21 333.59 590.3 333.66 590.32 333.68 590.51 333.8 590.61 333.84 590.73 333.9 590.81 333.94 590.97 334.07 591.08 334.14 591.2 334.24 591.45 334.41 591.42 334.52 591.48 334.72 591.51 334.84 591.52 335.21 591.53 335.33 591.53 335.38 591.53 335.44 591.5 335.64 591.49 335.79 591.5 335.92 591.55 336.1 591.53 336.18 591.47 336.29 591.37 336.43 591.18 336.69 591.17 336.7 591.16 336.72 591.12 336.77 591.06 336.85 591 336.9 590.85 337.12 590.84 337.19 590.83 337.29 590.8 337.36 590.68 337.5 590.43 337.67 590.25 337.81 589.94 337.96 589.71 338.07 Z M 576.75 329.4 576.63 329.5 576.31 329.75 576.12 329.9 576.08 329.94 576.02 330 575.93 330.11 575.79 330.28 575.59 330.31 575.44 330.36 575.15 330.44 574.8 330.54 574.77 330.57 574.74 330.6 574.67 330.69 574.53 330.85 574.46 330.92 574.4 330.98 574.31 331.06 574.16 331.19 574.03 331.3 573.88 331.45 573.83 331.51 573.78 331.6 573.69 331.74 573.58 331.95 573.44 332.2 573.42 332.24 573.4 332.26 573.4 332.28 573.25 332.57 573.22 332.62 573.15 332.73 573.14 332.76 573.13 332.78 573.12 332.8 573.11 332.82 573.05 332.98 573.02 333.05 573.01 333.06 573.01 333.07 573 333.1 572.98 333.11 572.96 333.12 572.74 333.25 572.73 333.25 572.72 333.26 572.7 333.26 572.6 333.24 572.52 333.22 572.51 333.21 572.37 333.18 572.26 333.15 572.18 333.14 572.05 333.14 572.03 333.14 571.98 333.14 571.96 333.15 571.86 333.25 571.84 333.27 571.81 333.29 571.8 333.31 571.76 333.36 571.66 333.47 571.59 333.56 571.47 333.72 571.38 333.84 571.21 334.07 571.13 334.17 571.11 334.2 570.96 334.08 570.83 333.98 570.7 333.88 570.57 333.78 570.45 333.69 570.35 333.59 570.33 333.57 570.31 333.55 570.25 333.46 570.16 333.36 570.04 333.24 569.91 333.12 569.77 333.01 569.67 332.95 569.5 332.84 569.39 332.75 569.22 332.61 569.06 332.45 568.9 332.27 568.76 332.12 568.66 332.01 568.62 331.96 568.51 331.83 568.41 331.71 568.35 331.63 568.29 331.56 568.22 331.47 568.16 331.38 568.1 331.28 568.06 331.23 568.02 331.16 567.97 331.12 567.9 331.06 567.85 331.04 567.81 331.03 567.77 331.03 567.72 331.04 567.69 331.04 567.66 331.05 567.6 331.08 567.53 331.11 567.46 331.14 567.38 331.18 567.36 331.18 567.31 331.19 567.3 331.19 567.24 331.2 567.17 331.21 567.09 331.22 567.03 331.21 566.96 331.21 566.9 331.21 566.84 331.21 566.8 331.21 566.76 331.2 566.7 331.19 566.66 331.18 566.6 331.17 566.52 331.15 566.44 331.13 566.35 331.11 566.28 331.1 566.2 331.09 566.13 331.08 566.08 331.08 566.06 331.03 566.04 330.99 566 330.94 565.96 330.91 565.91 330.88 565.76 330.76 565.71 330.73 565.69 330.72 565.68 330.71 565.66 330.71 565.63 330.69 565.62 330.69 565.54 330.66 565.46 330.63 565.37 330.6 565.24 330.55 565.14 330.5 565.04 330.45 565 330.43 564.91 330.37 564.83 330.34 564.76 330.3 564.75 330.3 564.69 330.28 564.62 330.25 564.61 330.24 564.54 330.21 564.45 330.18 564.43 330.17 564.42 330.14 564.42 330.11 564.44 330.02 564.44 329.97 564.43 329.46 564.43 329.36 564.24 329.06 563.98 328.63 563.92 328.54 563.86 328.46 563.78 328.39 563.68 328.3 563.46 328.1 563.36 328 563.1 327.77 562.96 327.66 562.79 327.53 562.73 327.48 562.68 327.42 562.57 327.3 562.45 327.17 562.34 327.06 562.33 327.05 562.22 326.95 562.18 326.91 561.95 326.69 561.9 326.64 561.85 326.6 561.81 326.56 561.78 326.54 561.71 326.49 561.65 326.44 561.61 326.41 561.53 326.36 561.51 326.34 561.41 326.27 561.4 326.27 561.32 326.22 561.27 326.19 561.23 326.16 561.16 326.11 561.11 326.07 560.99 325.98 560.96 325.96 560.9 325.92 560.84 325.87 560.73 325.79 560.54 325.66 560.41 325.56 560.19 325.42 560.08 325.36 560.01 325.3 559.93 325.24 559.84 325.19 559.7 325.12 559.6 325.06 559.52 325.02 559.38 324.95 559.24 324.9 559.2 324.96 558.69 325.68 558.64 325.77 558.63 325.78 558.46 326.02 558.42 326 558.4 325.98 558.33 325.95 558.26 325.91 558.22 325.9 558.16 325.87 558.08 325.82 557.92 325.76 557.85 325.74 557.78 325.73 557.71 325.73 557.67 325.73 557.66 325.73 557.61 325.73 557.5 325.71 557.41 325.7 557.35 325.69 557.29 325.66 557.16 325.58 557.1 325.55 557.04 325.53 556.96 325.5 556.82 325.46 556.73 325.43 556.67 325.39 556.59 325.33 556.49 325.27 556.42 325.23 556.31 325.15 556.23 325.08 556.19 325.04 556.17 325.02 556.11 324.97 556.03 324.9 555.94 324.84 555.86 324.79 555.77 324.73 555.59 324.6 555.54 324.56 555.51 324.52 555.49 324.48 555.47 324.44 555.44 324.38 555.43 324.36 555.43 324.35 555.41 324.32 555.36 324.28 555.31 324.23 555.23 324.15 555.2 324.13 555.16 324.1 555.1 324.08 555.03 324.06 554.91 324.03 554.83 324 554.78 323.97 554.72 323.94 554.64 323.9 554.57 323.85 554.49 323.8 554.48 323.8 554.35 323.72 554.29 323.69 554.17 323.61 554.04 323.51 553.98 323.45 553.9 323.35 553.83 323.25 553.73 323.12 553.64 322.92 553.58 322.75 553.61 322.67 553.66 322.56 553.67 322.54 553.72 322.41 553.72 322.39 553.7 322.29 553.81 322.25 553.87 322.23 553.9 322.21 553.9 322.12 553.9 322.1 553.87 322.04 553.84 321.98 553.82 321.93 553.77 321.83 553.72 321.7 553.67 321.63 553.63 321.58 553.58 321.53 553.42 321.37 553.39 321.36 552.93 321.05 552.85 321 552.8 320.97 552.73 320.93 552.59 320.85 552.46 320.78 552.32 320.67 552.14 320.53 552.06 320.46 551.82 320.29 551.74 320.23 551.63 320.09 551.4 319.83 551.34 319.76 551.33 319.74 551.31 319.72 551.24 319.6 551.14 319.39 550.97 319.31 550.7 319.19 550.49 319.1 550.47 319.09 550.2 318.96 550.16 318.9 550.13 318.86 550.11 318.83 550.06 318.75 550.01 318.67 549.98 318.61 549.93 318.51 549.89 318.43 549.86 318.37 549.84 318.34 549.82 318.28 549.78 318.18 549.74 318.1 549.72 318.01 549.7 317.97 549.7 317.95 549.69 317.91 549.68 317.89 549.68 317.88 549.68 317.86 549.68 317.84 549.67 317.78 549.67 317.67 549.66 317.6 549.64 317.53 549.63 317.46 549.61 317.38 549.59 317.31 549.58 317.24 549.56 317.17 549.54 317.1 549.53 317.03 549.51 316.96 549.5 316.89 549.48 316.81 549.47 316.76 549.45 316.66 549.43 316.6 549.43 316.59 549.43 316.58 549.41 316.51 549.4 316.43 549.38 316.35 549.36 316.25 549.34 316.22 549.31 316.16 549.27 316.09 549.25 316.04 549.21 315.96 549.18 315.91 549.15 315.85 549.14 315.83 549.13 315.82 549.09 315.78 549.06 315.74 549.04 315.72 549.02 315.65 548.99 315.57 548.97 315.52 548.93 315.46 548.89 315.39 548.84 315.34 548.78 315.26 549.27 315.11 549.28 315.05 549.29 314.97 549.3 314.91 549.32 314.84 549.35 314.76 549.38 314.67 549.46 314.49 549.52 314.34 549.59 314.18 549.64 314.06 549.68 313.97 549.71 313.91 549.78 313.77 549.87 313.61 549.93 313.51 549.96 313.45 550.03 313.36 550.09 313.26 550.17 313.16 550.28 313.03 550.36 312.93 550.43 312.87 550.52 312.79 550.57 312.75 550.6 312.72 550.61 312.71 550.64 312.7 550.68 312.69 550.71 312.67 550.74 312.67 550.78 312.67 550.8 312.67 550.84 312.68 550.97 312.74 551.04 312.78 551.14 312.81 551.24 312.83 551.46 312.86 551.61 312.88 551.82 312.91 551.98 312.94 552.1 312.96 552.26 312.98 552.43 313.01 552.47 313.01 552.56 312.96 552.66 312.89 552.79 312.84 552.99 312.75 553.17 312.67 553.34 312.6 553.44 312.54 553.56 312.49 553.65 312.43 553.67 312.42 553.69 312.4 553.72 312.37 553.76 312.31 553.78 312.27 553.8 312.22 553.82 312.18 553.84 312.13 553.87 312.08 553.91 312 553.96 311.93 553.99 311.89 554.03 311.83 554.04 311.81 554.09 311.75 554.16 311.67 554.23 311.58 554.25 311.56 554.3 311.51 554.36 311.45 554.39 311.42 554.42 311.36 554.43 311.34 554.44 311.31 554.46 311.23 554.48 311.16 554.5 311.12 554.51 311.07 554.53 311.01 554.55 310.95 554.56 310.92 554.59 310.87 554.61 310.83 554.64 310.8 554.7 310.74 554.72 310.71 554.78 310.64 554.85 310.56 554.88 310.51 554.95 310.41 555.01 310.32 555.05 310.28 555.08 310.21 555.1 310.16 555.11 310.12 555.14 310.03 555.16 309.93 555.18 309.76 555.19 309.62 555.2 309.44 555.22 309.34 555.23 309.23 555.24 309.13 555.26 308.99 555.26 308.89 555.27 308.79 555.26 308.71 555.25 308.61 555.24 308.52 555.23 308.42 555.21 308.31 555.2 308.19 555.19 308.08 555.19 307.94 555.18 307.8 555.19 307.71 555.38 307.75 555.61 307.79 555.74 307.81 555.81 307.82 555.89 307.83 556.07 307.84 556.23 307.85 556.24 307.85 556.27 307.86 556.31 307.86 556.38 307.86 556.39 307.86 556.5 307.87 556.56 307.87 556.66 307.92 556.67 307.93 556.7 307.96 556.72 307.97 556.74 307.99 556.78 308.02 556.79 308.03 556.8 308.05 556.83 308.08 556.85 308.12 556.87 308.15 556.88 308.16 556.89 308.19 556.93 308.26 556.97 308.32 557.04 308.41 557.1 308.49 557.19 308.58 557.28 308.65 557.34 308.7 557.4 308.74 557.48 308.77 557.49 308.78 557.52 308.78 557.57 308.79 557.59 308.8 557.63 308.81 557.66 308.81 557.7 308.82 557.77 308.84 557.8 308.84 557.83 308.85 557.93 308.87 557.98 308.88 558.03 308.9 558.08 308.91 558.09 308.91 558.12 308.92 558.13 308.92 558.16 308.93 558.17 308.93 558.2 308.94 558.21 308.94 558.23 308.95 558.25 308.95 558.26 308.96 558.29 308.97 558.32 308.97 558.34 308.98 558.36 308.98 558.4 308.99 558.43 309 558.47 309.01 558.5 309.01 558.52 309.01 558.59 309.01 558.63 309.01 558.66 309.01 558.69 309.01 558.79 309 558.87 309 558.97 308.99 559.06 308.99 559.11 309 559.14 309 559.18 309.01 559.21 309.02 559.24 309.01 559.26 309.01 559.28 309 559.3 309 559.32 308.99 559.36 308.99 559.38 308.99 559.4 309 559.45 308.99 559.48 308.99 559.49 308.99 559.54 308.98 559.57 308.98 559.58 308.98 559.62 308.98 559.67 308.99 559.69 308.98 559.72 308.98 559.74 308.97 559.76 308.97 559.8 308.96 559.82 308.96 559.84 308.95 559.88 308.95 559.92 308.94 559.95 308.93 559.98 308.93 560.01 308.93 560.05 308.93 560.08 308.93 560.1 308.92 560.14 308.93 560.28 308.93 560.33 308.93 560.36 308.93 560.38 308.93 560.41 308.92 560.43 308.92 560.44 308.91 560.46 308.91 560.48 308.91 560.5 308.91 560.54 308.9 560.55 308.9 560.57 308.91 560.61 308.91 560.65 308.9 560.67 308.91 560.69 308.91 560.72 308.91 560.76 308.91 560.81 308.91 560.84 308.91 560.87 308.91 560.9 309.01 560.95 309.15 560.97 309.23 561 309.28 561.02 309.34 561.04 309.38 561.05 309.41 561.06 309.44 561.06 309.46 561.07 309.47 561.08 309.52 561.09 309.58 561.1 309.6 561.09 309.7 561.08 309.75 561.08 309.78 561.17 309.8 561.27 309.83 561.33 309.85 561.34 309.85 561.39 309.87 561.44 309.88 561.54 309.91 561.61 309.93 561.81 309.99 561.89 310.01 561.97 310.02 562.03 310.02 562.04 310.02 562.15 310.01 562.21 310 562.23 310 562.36 310.08 562.37 310.09 562.47 310.15 562.49 310.16 562.55 310.16 562.58 310.16 562.64 310.16 562.69 310.17 562.78 310.16 562.83 310.15 562.87 310.15 562.9 310.15 562.93 310.14 562.96 310.15 562.99 310.15 563.02 310.15 563.06 310.16 563.07 310.16 563.1 310.16 563.14 310.17 563.15 310.18 563.18 310.2 563.22 310.23 563.26 310.25 563.27 310.26 563.32 310.28 563.34 310.28 563.4 310.3 563.49 310.33 563.57 310.35 563.66 310.36 563.73 310.37 563.78 310.43 563.81 310.45 563.84 310.49 563.96 310.53 564.11 310.59 564.25 310.65 564.31 310.68 564.34 310.69 564.39 310.69 564.44 310.69 564.48 310.69 564.54 310.7 564.62 310.71 564.72 310.74 564.81 310.76 564.88 310.78 564.95 310.81 565 310.83 565.04 310.84 565.09 310.86 565.14 310.87 565.24 310.88 565.28 310.88 565.3 310.88 565.34 310.88 565.4 310.9 565.41 310.9 565.46 310.91 565.47 310.91 565.52 310.91 565.6 310.91 565.67 310.91 565.75 310.9 565.83 310.89 565.91 310.88 565.95 310.88 566 310.9 566.06 310.93 566.08 310.94 566.13 310.97 566.14 310.99 566.15 310.99 566.15 310.99 566.16 310.99 566.25 311 566.32 311.01 566.43 311.04 566.62 311.07 566.76 311.09 566.81 311.09 566.91 311.11 566.99 311.12 567.02 311.12 567.18 311.11 567.24 311.11 567.39 311.1 567.43 311.1 567.63 311.09 567.63 311.07 567.74 310.81 567.75 310.78 567.8 310.67 567.99 310.22 568 310.19 568.1 309.97 568.11 309.92 568.11 309.85 568.12 309.83 568.12 309.67 568.12 309.66 568.13 309.44 568.16 309.4 568.31 309.21 568.34 309.2 568.45 309.15 568.62 309.06 568.86 308.94 568.91 308.82 568.92 308.8 569 308.61 569.02 308.58 569.21 308.26 569.31 308.19 569.47 308.07 569.63 308.05 569.65 308.05 569.67 308.05 569.81 307.87 569.82 307.88 569.99 307.94 570 307.96 570.01 307.99 570.01 308.02 570.01 308.03 570.05 308.08 570.08 308.12 570.17 308.22 570.28 308.35 570.4 308.49 570.47 308.56 570.5 308.59 570.56 308.67 570.72 308.84 570.83 308.97 570.86 309.01 570.87 309.18 570.87 309.25 570.88 309.3 570.88 309.33 570.94 309.38 571.03 309.44 571.08 309.47 571.23 309.58 571.4 309.7 571.43 309.72 571.53 309.79 571.6 309.83 571.68 309.89 571.72 309.91 571.8 309.95 571.94 310.02 572.06 310.08 572.13 310.11 572.16 310.12 572.25 310.13 572.33 310.14 572.37 310.14 572.39 310.14 572.47 310.13 572.6 310.13 572.68 310.12 572.8 310.11 572.83 310.15 572.87 310.22 572.92 310.29 572.99 310.4 573.07 310.53 573.09 310.56 573.15 310.63 573.22 310.72 573.28 310.79 573.31 310.83 573.35 310.88 573.37 310.91 573.43 311.01 573.5 311.12 573.54 311.2 573.58 311.26 573.6 311.3 573.62 311.33 573.7 311.4 573.8 311.51 573.93 311.65 574.03 311.75 574.07 311.8 574.1 311.83 574.08 311.87 574.04 311.94 573.98 312.03 573.92 312.13 573.87 312.23 573.83 312.29 573.81 312.32 573.78 312.38 573.75 312.42 573.72 312.47 573.71 312.49 573.7 312.51 573.68 312.54 573.68 312.56 573.67 312.6 573.63 312.7 573.61 312.76 573.59 312.8 573.58 312.84 573.56 312.89 573.55 312.9 573.55 312.92 573.54 312.92 573.51 312.96 573.45 313.06 573.36 313.13 573.33 313.15 573.28 313.19 573.22 313.24 573.2 313.25 573.16 313.29 573.1 313.36 573.05 313.42 573.02 313.46 572.95 313.55 572.91 313.62 572.87 313.69 572.86 313.7 572.79 313.75 572.77 313.75 572.78 313.76 572.77 313.79 572.76 313.83 572.76 313.86 572.72 313.94 572.71 313.97 572.67 314.04 572.66 314.1 572.66 314.13 572.64 314.18 572.62 314.26 572.61 314.33 572.59 314.4 572.58 314.42 572.55 314.49 572.52 314.56 572.48 314.66 572.47 314.67 572.46 314.71 572.44 314.76 572.41 314.83 572.4 314.87 572.39 314.9 572.38 314.93 572.35 315.02 572.23 315.35 572.22 315.38 572.19 315.46 572.17 315.52 572.17 315.53 572.16 315.55 572.15 315.56 572.1 315.65 572.05 315.71 572.02 315.76 572.02 315.77 571.93 315.93 571.86 316.07 571.85 316.1 571.88 316.34 571.88 316.42 571.89 316.47 571.89 316.53 571.88 316.57 571.86 316.67 571.82 316.81 571.8 316.86 571.69 317.06 571.59 317.24 571.48 317.26 571.46 317.41 571.44 317.5 571.43 317.59 571.43 317.63 571.43 317.68 571.42 317.95 571.41 318.07 571.4 318.32 571.2 318.58 571.17 318.63 571.17 318.73 570.64 319.29 570.14 319.81 570.11 319.84 570.01 319.78 570.04 319.87 570.08 319.96 570.13 320.07 570.16 320.13 570.19 320.17 570.23 320.21 570.28 320.26 570.37 320.34 570.43 320.39 570.46 320.41 570.6 320.52 570.65 320.56 570.72 320.64 570.79 320.72 570.88 320.79 570.95 320.83 570.95 320.83 571.03 320.88 571.18 320.97 571.24 321.01 571.29 321.04 571.51 321.18 571.51 321.19 571.54 321.21 571.56 321.22 571.83 321.5 571.84 321.51 571.87 321.55 571.92 321.6 571.93 321.61 571.94 321.62 571.96 321.64 572 321.69 572.03 321.71 572.04 321.74 572.07 321.77 572.08 321.79 572.1 321.83 572.13 321.89 572.16 321.94 572.19 322 572.21 322.05 572.25 322.13 572.27 322.17 572.3 322.24 572.31 322.27 572.32 322.3 572.36 322.4 572.37 322.46 572.4 322.54 572.42 322.6 572.44 322.69 572.45 322.73 572.48 322.79 572.49 322.84 572.5 322.87 572.52 322.92 572.54 322.98 572.56 323.06 572.57 323.1 572.59 323.16 572.61 323.21 572.63 323.28 572.65 323.32 572.66 323.36 572.68 323.39 572.75 323.46 572.79 323.5 572.83 323.54 572.85 323.57 572.88 323.6 572.92 323.65 572.96 323.69 573.01 323.74 573.05 323.78 573.08 323.82 573.12 323.86 573.17 323.92 573.21 323.95 573.26 324.01 573.32 324.05 573.37 324.1 573.42 324.15 573.48 324.2 573.6 324.3 573.75 324.44 573.96 324.62 574.08 324.91 574.2 325.19 574.22 325.22 574.27 325.32 574.32 325.41 574.35 325.47 574.39 325.53 574.42 325.59 574.46 325.65 574.48 325.7 574.52 325.77 574.55 325.79 574.64 325.86 574.68 325.89 574.75 325.95 574.81 326 574.87 326.05 574.91 326.08 574.97 326.14 575 326.16 575.03 326.19 575.06 326.21 575.1 326.28 575.16 326.35 575.19 326.41 575.25 326.49 575.29 326.54 575.35 326.63 575.38 326.65 575.46 326.66 575.57 326.68 575.68 326.7 575.76 326.71 575.83 326.73 575.9 326.74 575.93 326.76 576.02 326.81 576.06 326.83 576.14 326.88 576.2 326.92 576.27 326.96 576.31 326.98 576.36 327.01 576.41 327.03 576.5 327.05 576.57 327.06 576.63 327.08 576.71 327.1 576.77 327.11 576.84 327.13 576.92 327.15 576.99 327.17 577.07 327.19 577.14 327.2 577.21 327.22 577.26 327.23 577.33 327.25 577.39 327.26 577.47 327.28 577.52 327.29 577.58 327.31 577.62 327.32 577.68 327.33 577.72 327.38 577.78 327.45 577.84 327.54 577.89 327.61 577.94 327.66 577.98 327.72 578.02 327.77 578.09 327.86 578.16 327.95 578.17 327.97 578.13 328.05 578.09 328.13 578.04 328.21 577.99 328.3 577.96 328.36 577.93 328.41 577.9 328.48 577.88 328.51 577.81 328.57 577.75 328.62 577.69 328.69 577.66 328.72 577.62 328.75 577.61 328.78 577.59 328.84 577.57 328.88 577.55 328.93 577.53 329.01 577.52 329.03 577.49 329.09 577.44 329.12 577.36 329.15 577.27 329.19 577.19 329.22 576.75 329.4 Z"/>
</g></svg>