<svg xmlns="http://www.w3.org/2000/svg" version="1.2" baseProfile="tiny" stroke-linecap="round" stroke-linejoin="round" viewBox="348.95 372.57 26.13 45.62"><g xmlns="http://www.w3.org/2000/svg" id="Urantzia">
<path d="M 359.5 378.79 359.57 378.78 359.65 378.77 359.71 378.76 359.79 378.74 359.87 378.73 359.96 378.71 360.04 378.7 360.13 378.68 360.2 378.66 360.29 378.64 360.37 378.62 360.48 378.6 360.57 378.58 360.65 378.56 360.69 378.58 360.7 378.59 360.73 378.62 360.74 378.63 360.8 378.67 360.85 378.71 360.93 378.78 361.01 378.85 361.02 378.89 361.03 378.94 361.04 378.98 361.04 379.03 361.05 379.08 361.1 379.09 361.17 379.09 361.25 379.1 361.34 379.11 361.42 379.11 361.5 379.12 361.59 379.13 361.65 379.13 361.77 379.12 361.95 379.11 362.08 379.1 362.21 379.09 362.34 379.08 362.47 379.07 362.54 379.06 362.61 379.06 362.62 379.06 362.63 378.92 362.63 378.76 362.64 378.67 362.65 378.6 362.66 378.49 362.67 378.42 362.66 378.38 362.66 378.31 362.65 378.26 362.65 378.23 362.66 378.21 362.66 378.18 362.67 378.14 362.67 378.12 362.68 378.11 362.68 378.09 362.71 378.02 362.72 378 362.74 377.95 362.76 377.88 362.79 377.81 362.82 377.73 362.85 377.71 362.87 377.69 362.89 377.65 362.9 377.63 362.9 377.6 362.91 377.58 362.98 377.5 363.02 377.46 363.03 377.45 363.04 377.44 363.22 377.26 363.23 377.25 363.41 376.61 363.42 376.6 363.43 376.57 363.43 376.56 363.44 376.53 363.44 376.52 363.44 376.46 363.45 376.39 363.45 376.36 363.47 376.31 363.51 376.23 363.58 376.12 363.65 376.03 363.7 375.96 363.74 375.9 363.78 375.86 363.81 375.83 363.83 375.81 363.87 375.75 363.89 375.7 363.92 375.68 363.96 375.64 363.99 375.61 364.01 375.58 364.03 375.57 364.07 375.53 364.12 375.51 364.16 375.49 364.19 375.47 364.21 375.44 364.24 375.39 364.28 375.35 364.33 375.29 364.37 375.24 364.4 375.22 364.41 375.21 364.42 375.17 364.43 375.14 364.47 375.13 364.48 375.13 364.5 375.12 364.52 375.1 364.55 375.03 364.59 374.94 364.62 374.85 364.64 374.77 364.66 374.69 364.66 374.67 364.67 374.64 364.68 374.56 364.68 374.5 364.7 374.48 364.71 374.45 364.75 374.4 364.8 374.32 364.86 374.23 364.92 374.15 364.99 374.08 365.07 373.99 365.18 373.9 365.29 373.82 365.36 373.74 365.43 373.68 365.47 373.64 365.49 373.62 365.5 373.61 365.51 373.61 365.61 373.53 365.65 373.5 365.68 373.48 365.76 373.43 365.84 373.38 365.96 373.32 366.06 373.26 366.16 373.21 366.27 373.16 366.34 373.13 366.45 373.09 366.56 373.06 366.69 373.02 366.87 372.97 366.93 372.96 367.01 372.94 367.11 372.92 367.19 372.91 367.23 372.9 367.32 372.81 367.34 372.79 367.41 372.73 367.49 372.69 367.55 372.65 367.62 372.62 367.72 372.59 367.78 372.58 367.85 372.57 367.91 372.57 367.98 372.58 368.06 372.59 368.08 372.6 368.07 372.63 368.07 372.69 368.06 372.76 368.05 372.8 368.06 372.87 368.06 372.91 368.07 372.98 368.08 373.05 368.08 373.06 368.09 373.08 368.09 373.1 368.1 373.11 368.12 373.2 368.18 373.42 368.21 373.53 368.23 373.61 368.24 373.65 368.25 373.7 368.26 373.71 368.26 373.74 368.29 373.83 368.29 373.84 368.29 373.86 368.32 373.85 368.46 373.81 368.55 373.78 368.58 373.77 368.68 373.73 368.72 373.72 368.77 373.71 368.79 373.71 368.88 373.69 368.93 373.68 369.01 373.67 369.05 373.67 369.12 373.69 369.21 373.7 369.31 373.71 369.32 373.71 369.39 373.71 369.45 373.72 369.46 373.72 369.47 373.72 369.5 373.72 369.54 373.72 369.59 373.72 369.62 373.72 369.64 373.72 369.71 373.72 369.78 373.72 369.79 373.72 369.92 373.73 370.13 373.73 370.18 373.73 370.21 373.73 370.34 373.74 370.37 373.74 370.4 373.74 370.5 373.75 370.64 373.76 370.72 373.77 370.88 373.78 370.89 373.78 370.91 373.78 371.01 373.78 371.08 373.78 371.11 373.78 371.23 373.79 371.26 373.8 371.29 373.8 371.3 373.8 371.33 373.8 371.35 373.8 371.4 373.8 371.41 373.8 371.42 373.8 371.44 373.8 371.49 373.8 371.51 373.8 371.54 373.8 371.58 373.8 371.63 373.8 371.63 373.8 371.67 373.8 371.7 373.8 371.72 373.8 371.71 374.02 371.7 374.04 371.7 374.04 371.71 374.48 371.71 374.81 371.71 374.82 371.71 374.84 371.71 374.86 371.71 374.87 371.71 374.88 371.71 374.9 371.71 375.13 371.71 375.14 371.71 375.31 371.71 375.52 371.71 375.54 371.71 375.55 371.71 375.75 371.71 375.81 371.71 375.83 371.71 375.84 371.71 375.85 371.71 375.86 371.71 376.18 371.71 376.25 371.71 376.53 371.71 376.69 371.7 376.74 371.7 376.81 371.7 376.9 371.71 376.98 371.71 377.06 371.71 377.1 371.71 377.16 371.71 377.19 371.71 377.2 371.7 377.23 371.69 377.37 371.69 377.41 371.68 377.58 371.68 377.66 371.67 377.75 371.67 377.76 371.67 377.79 371.67 377.82 371.67 377.86 371.67 377.94 371.66 377.99 371.67 378.02 371.68 378.07 371.69 378.11 371.7 378.16 371.71 378.23 371.71 378.28 371.71 378.35 371.72 378.4 371.72 378.44 371.72 378.46 371.72 378.48 371.71 378.51 371.71 378.54 371.7 378.58 371.69 378.62 371.68 378.68 371.67 378.72 371.66 378.77 371.66 378.81 371.65 378.85 371.64 378.88 371.62 378.95 371.61 378.98 371.6 379.01 371.58 379.05 371.57 379.09 371.55 379.12 371.55 379.16 371.54 379.2 371.53 379.26 371.53 379.31 371.53 379.35 371.53 379.41 371.54 379.46 371.54 379.53 371.55 379.59 371.55 379.63 371.55 379.64 371.55 379.7 371.54 379.75 371.53 379.79 371.53 379.81 371.54 379.88 371.55 379.95 371.56 380 371.56 380.02 371.56 380.05 371.56 380.08 371.57 380.13 371.57 380.17 371.58 380.19 371.58 380.24 371.59 380.27 371.58 380.3 371.57 380.33 371.57 380.36 371.57 380.37 371.57 380.42 371.57 380.45 371.57 380.48 371.57 380.49 371.57 380.5 371.57 380.51 371.56 380.53 371.56 380.59 371.56 380.62 371.56 380.63 371.56 380.64 371.55 380.67 371.55 380.69 371.54 380.72 371.52 380.83 371.51 380.85 371.5 380.9 371.49 380.95 371.48 380.97 371.47 381 371.46 381.03 371.44 381.1 371.43 381.12 371.41 381.19 371.38 381.28 371.37 381.29 371.36 381.32 371.33 381.41 371.27 381.53 371.25 381.58 371.23 381.61 371.22 381.63 371.2 381.64 370.99 381.85 370.98 381.86 370.91 381.84 370.86 381.83 370.82 381.83 370.76 381.83 370.67 381.84 370.59 381.85 370.51 381.85 370.42 381.85 370.37 381.86 370.34 381.87 370.31 381.89 370.27 381.92 370.27 381.93 370.25 381.95 370.22 381.99 370.2 382.03 370.19 382.09 370.18 382.18 370.18 382.18 370.19 382.36 370.21 382.56 370.22 382.69 370.2 382.85 370.2 382.86 370.18 382.97 370.17 382.99 370.17 383.03 370.15 383.12 370.14 383.16 370.13 383.21 370.11 383.36 370.1 383.38 370.09 383.47 370.04 383.73 369.99 384 369.99 384.02 369.95 384.23 369.94 384.27 369.94 384.28 369.93 384.32 369.93 384.34 369.91 384.45 369.87 384.7 369.87 384.71 369.85 384.86 369.84 384.86 369.84 384.88 369.84 384.9 369.85 385.23 369.86 385.53 369.86 385.72 369.86 385.74 369.87 385.88 369.87 385.89 369.87 385.91 369.87 385.92 369.88 386.3 369.88 386.36 369.88 386.53 369.88 386.64 369.88 386.7 369.9 386.98 369.9 387.06 369.9 387.07 369.9 387.08 369.9 387.09 369.9 387.1 369.9 387.11 369.9 387.11 369.91 387.13 369.91 387.23 369.92 387.3 369.93 387.39 369.94 387.52 369.95 387.56 369.95 387.63 369.96 387.69 369.95 387.8 369.95 387.88 369.94 388 369.94 388.14 369.93 388.19 369.93 388.25 369.94 388.26 369.96 388.27 370.05 388.32 370.3 388.48 370.44 388.57 370.52 388.61 370.54 388.62 370.57 388.65 370.6 388.67 370.63 388.69 370.67 388.72 370.72 388.77 370.76 388.8 370.78 388.82 370.82 388.86 370.9 388.94 370.92 388.96 370.94 388.98 370.96 389 370.98 389.01 370.99 389.02 371.06 389.05 371.1 389.08 371.17 389.16 371.19 389.19 371.2 389.21 371.25 389.29 371.27 389.33 371.3 389.38 371.3 389.39 371.31 389.41 371.33 389.45 371.38 389.51 371.43 389.55 371.49 389.62 371.54 389.68 371.59 389.75 371.63 389.81 371.67 389.84 371.75 389.93 371.76 389.95 371.79 389.97 371.85 390.01 371.86 390.03 371.91 390.11 372 390.26 371.86 390.38 371.66 390.56 371.55 390.65 371.42 390.76 371.25 390.91 371.23 390.93 371.09 391.06 370.96 391.16 370.94 391.18 370.93 391.19 370.88 391.23 370.67 391.43 370.52 391.57 370.5 391.58 370.47 391.61 370.46 391.62 370.32 391.77 370.12 391.97 369.91 392.18 369.89 392.2 369.73 392.36 369.72 392.37 369.68 392.42 369.66 392.45 370.03 392.92 370.06 392.97 370.17 393.11 370.25 393.21 370.26 393.22 370.31 393.28 370.42 393.43 371.1 394.35 371.59 395.19 371.8 395.54 371.81 395.56 371.88 395.87 371.89 395.92 371.96 396.23 371.95 396.35 371.82 396.74 371.82 396.75 371.69 397.13 371.69 397.15 371.68 397.19 371.68 397.22 371.67 397.26 371.65 397.31 371.62 397.37 371.6 397.43 371.57 397.48 371.56 397.53 371.54 397.57 371.51 397.62 371.5 397.65 371.49 397.67 371.48 397.69 371.47 397.71 371.43 397.73 371.38 397.76 371.35 397.77 371.31 397.79 371.28 397.8 371.23 397.81 371.19 397.83 371.17 397.86 371.15 397.89 371.13 397.92 371.12 397.94 371.11 397.97 371.1 398.01 371.09 398.06 371.09 398.1 371.09 398.13 371.09 398.16 371.1 398.22 371.1 398.28 371.1 398.39 371.1 398.4 371.1 398.42 371.11 398.43 371.12 398.44 371.14 398.48 371.17 398.53 371.18 398.56 371.19 398.58 371.2 398.59 371.23 398.65 371.23 398.67 371.24 398.7 371.25 398.73 371.27 398.77 371.3 398.84 371.32 398.88 371.33 398.9 371.33 398.92 371.34 398.94 371.36 398.98 371.38 399.01 371.39 399.04 371.41 399.11 371.42 399.14 371.42 399.16 371.44 399.2 371.45 399.23 371.48 399.29 371.52 399.34 371.55 399.38 371.56 399.4 371.6 399.45 371.63 399.5 371.66 399.54 371.7 399.58 371.73 399.61 371.75 399.65 371.77 399.69 371.78 399.71 371.8 399.74 371.84 399.78 371.87 399.8 371.91 399.84 371.95 399.88 372.01 399.92 372.05 399.96 372.11 400 372.16 400.03 372.21 400.06 372.25 400.09 372.28 400.12 372.32 400.15 372.35 400.19 372.38 400.22 372.42 400.27 372.42 400.29 372.42 400.32 372.42 400.36 372.41 400.39 372.39 400.44 372.38 400.48 372.36 400.54 372.33 400.59 372.32 400.63 372.29 400.69 372.27 400.76 372.24 400.81 372.22 400.85 372.2 400.89 372.16 400.95 372.13 401.02 372.11 401.05 372.08 401.09 372.06 401.12 372.05 401.16 372.04 401.21 372.03 401.26 372.03 401.29 372.04 401.33 372.05 401.38 372.08 401.49 372.09 401.55 372.11 401.61 372.12 401.66 372.13 401.7 372.14 401.74 372.15 401.8 372.16 401.87 372.17 401.95 372.17 402.01 372.18 402.07 372.19 402.11 372.19 402.16 372.19 402.2 372.19 402.23 372.19 402.25 372.19 402.28 372.19 402.31 372.2 402.34 372.2 402.38 372.2 402.42 372.2 402.43 372.2 402.45 372.2 402.58 372.2 402.67 372.2 402.69 372.2 402.71 372.2 402.74 372.2 402.83 372.21 402.9 372.21 402.91 372.21 402.93 372.21 402.99 372.21 403.23 372.13 403.31 372.12 403.33 372.19 403.41 372.26 403.49 372.42 403.68 372.53 403.81 372.66 403.97 372.83 404.17 372.9 404.25 373.01 404.38 373.14 404.54 373.28 404.7 373.47 404.91 373.54 405 373.61 405.09 373.72 405.22 373.96 405.5 374.11 405.67 374.24 405.82 374.34 405.92 374.43 406.01 374.56 406.14 374.7 406.26 374.77 406.33 374.89 406.45 375.02 406.58 375.05 406.62 375.06 406.68 375.05 406.75 375 406.9 374.98 406.98 374.97 406.99 374.96 407.03 374.95 407.05 374.95 407.09 374.95 407.15 374.96 407.18 374.97 407.23 374.96 407.24 374.95 407.26 374.93 407.27 374.91 407.28 374.85 407.37 374.8 407.46 374.79 407.48 374.76 407.55 374.73 407.61 374.71 407.65 374.7 407.68 374.7 407.74 374.7 407.75 374.71 407.79 374.71 407.79 374.71 407.81 374.72 407.82 374.73 407.87 374.73 407.91 374.71 407.94 374.7 407.96 374.68 407.99 374.61 408.05 374.55 408.1 374.49 408.16 374.47 408.19 374.45 408.21 374.44 408.22 374.42 408.23 374.39 408.29 374.36 408.35 374.33 408.42 374.31 408.46 374.29 408.48 374.27 408.54 374.24 408.59 374.22 408.62 374.21 408.67 374.2 408.75 374.19 408.81 374.19 408.86 374.19 408.93 374.2 408.98 374.2 408.99 374.21 409.05 374.23 409.12 374.26 409.2 374.28 409.26 374.28 409.27 374.3 409.35 374.3 409.38 374.29 409.41 374.27 409.44 374.24 409.48 374.17 409.6 374.12 409.68 374.07 409.75 374.07 409.76 374.02 409.82 373.98 409.86 373.93 409.89 373.87 409.91 373.83 409.93 373.76 409.98 373.7 410.01 373.65 410.05 373.63 410.06 373.61 410.07 373.58 410.12 373.54 410.15 373.5 410.19 373.43 410.26 373.37 410.33 373.32 410.39 373.26 410.48 373.18 410.59 373.03 410.81 372.97 410.91 372.94 410.98 372.92 411.04 372.92 411.1 372.91 411.15 372.91 411.22 372.91 411.27 372.91 411.29 372.91 411.35 372.93 411.42 372.94 411.53 372.95 411.6 372.94 411.65 372.94 411.71 372.93 411.77 372.9 411.82 372.87 411.89 372.83 411.94 372.77 412.02 372.73 412.07 372.7 412.1 372.66 412.14 372.63 412.18 372.6 412.22 372.55 412.24 372.52 412.26 372.5 412.31 372.48 412.36 372.45 412.41 372.42 412.48 372.39 412.53 372.37 412.58 372.35 412.6 372.35 412.64 372.35 412.69 372.37 412.78 372.38 412.86 372.39 412.9 372.39 412.95 372.39 413 372.39 413.07 372.37 413.16 372.36 413.25 372.35 413.38 372.34 413.41 372.33 413.47 372.32 413.53 372.31 413.6 372.31 413.67 372.31 413.79 372.3 413.88 372.29 414.01 372.28 414.12 372.26 414.19 372.21 414.35 372.17 414.51 372.13 414.61 372.12 414.67 372.13 414.77 372.12 414.86 372.1 414.95 372.07 415.03 372.04 415.12 371.99 415.24 371.94 415.34 371.89 415.44 371.86 415.51 371.83 415.57 371.8 415.66 371.77 415.75 371.75 415.79 371.72 415.84 371.7 415.89 371.68 415.96 371.67 416.04 371.65 416.16 371.64 416.28 371.62 416.4 371.6 416.5 371.58 416.57 371.57 416.61 371.53 416.66 371.51 416.7 371.5 416.72 371.5 416.75 371.5 416.81 371.51 416.86 371.5 416.93 371.48 417 371.44 417.08 371.39 417.15 371.35 417.2 371.3 417.23 371.25 417.27 371.24 417.28 371.18 417.35 371.15 417.39 371.13 417.42 371.11 417.49 371.08 417.55 371.06 417.63 371.04 417.71 371.03 417.74 371.03 417.77 371.02 417.82 371.02 417.84 371.03 417.88 371.04 417.95 370.95 417.9 370.86 417.9 370.75 417.91 370.7 417.9 370.49 417.88 370.38 417.87 370.34 417.86 370.24 417.83 370.1 417.8 370.03 417.79 370.02 417.78 370.01 417.79 369.86 417.83 369.7 417.9 369.58 417.95 369.54 417.97 368.96 418.16 368.84 418.15 368.76 418.13 368.75 418.13 368.7 418.13 368.69 418.13 368.54 418.11 368.41 418.1 368.27 418.1 368.2 418.1 368.14 418.08 368.08 418.05 367.98 418.02 367.82 417.99 367.69 417.96 367.64 417.95 367.51 417.93 367.48 417.93 367.19 417.88 367.08 417.86 367.06 417.86 366.95 417.84 366.83 417.81 366.57 417.76 366.51 417.75 366.45 417.73 366.3 417.67 366.01 417.55 365.93 417.52 365.91 417.51 365.81 417.48 365.73 417.46 365.47 417.4 365.36 417.38 365.23 417.36 365.16 417.35 365.07 417.32 365.02 417.3 364.85 417.23 364.69 417.17 364.53 417.11 364.47 417.09 364.37 417.05 364.17 416.97 363.98 416.91 363.83 416.86 363.82 416.86 363.8 416.85 363.72 416.82 363.37 416.66 363.16 416.56 363.03 416.51 362.75 416.38 362.45 416.25 362.39 416.21 362.27 416.16 362.22 416.13 362.09 416.03 362.04 416 361.99 415.95 361.97 415.94 361.93 415.91 361.87 415.87 361.82 415.84 361.76 415.79 361.74 415.78 361.69 415.75 361.68 415.75 361.55 415.68 361.42 415.62 361.37 415.6 361.36 415.6 361.27 415.56 361.22 415.54 361.16 415.51 361.09 415.48 361.04 415.45 360.97 415.4 360.89 415.35 360.85 415.34 360.82 415.32 360.76 415.3 360.72 415.29 360.68 415.29 360.69 415.27 360.73 415.19 360.77 415.13 360.84 415.03 360.87 414.99 360.88 414.97 360.92 414.9 360.93 414.89 361.18 414.55 361.33 414.35 361.49 414.14 361.51 414.11 361.6 414.01 361.63 413.97 361.64 413.96 361.71 413.85 361.73 413.84 361.73 413.83 361.96 413.63 361.96 413.62 362.08 413.46 362.07 413.43 362.07 413.41 362.05 413.29 362.04 413.23 362.03 413.18 362.01 413.1 362 413.05 361.99 413.01 361.98 412.98 361.98 412.96 361.96 412.93 361.9 412.84 361.89 412.83 361.88 412.81 361.86 412.81 361.63 412.7 361.42 412.62 361.21 412.54 361 412.45 360.81 412.38 360.79 412.37 360.59 412.3 360.25 412.18 360.08 412.13 359.91 412.06 359.89 412.06 359.69 412 359.67 411.98 359.57 411.95 359.5 411.92 359.37 411.85 359.27 411.8 359.16 411.76 359 411.7 358.93 411.68 358.91 411.68 358.89 411.68 358.8 411.67 358.73 411.67 358.66 411.66 358.57 411.63 358.55 411.62 358.44 411.58 358.31 411.51 358.21 411.44 358.18 411.42 358.08 411.37 357.88 411.26 357.76 411.21 357.63 411.16 357.52 411.12 357.35 411.05 357.24 411 357.14 410.97 357.07 410.94 356.95 410.89 356.93 410.88 356.91 410.87 356.82 410.84 356.8 410.83 356.79 410.82 356.77 410.82 356.72 410.81 356.67 410.82 356.63 410.82 356.57 410.82 356.49 410.8 356.36 410.76 356.28 410.73 356.27 410.72 356.21 410.7 356.07 410.63 356.04 410.62 355.96 410.6 355.84 410.57 355.77 410.55 355.73 410.54 355.71 410.52 355.66 410.49 355.62 410.47 355.55 410.45 355.46 410.43 355.37 410.4 355.27 410.37 355.23 410.35 355.16 410.33 355.11 410.32 355.06 410.3 355 410.27 354.96 410.25 354.94 410.24 354.82 410.21 354.74 410.2 354.73 410.2 354.72 410.19 354.67 410.18 354.58 410.14 354.46 410.08 354.33 410.04 354.24 410.01 354.16 409.98 353.98 409.89 353.83 409.84 353.79 409.83 353.65 409.79 353.51 409.76 353.44 409.76 353.42 409.75 353.34 409.75 353.29 409.74 353.27 409.74 353.25 409.73 353.23 409.73 353.08 409.67 353.07 409.67 352.88 409.6 352.74 409.55 352.68 409.52 352.66 409.52 352.59 409.49 352.53 409.45 352.46 409.4 352.41 409.36 352.36 409.32 352.34 409.29 352.33 409.28 352.28 409.25 352.21 409.21 352.19 409.19 352.14 409.13 352.08 409.07 352.06 409.04 352.04 409.01 352.02 408.99 351.97 408.96 351.91 408.95 351.88 408.93 351.84 408.9 351.83 408.89 351.82 408.88 351.75 408.79 351.68 408.7 351.64 408.66 351.6 408.6 351.55 408.52 351.49 408.45 351.45 408.37 351.39 408.29 351.34 408.22 351.33 408.19 351.32 408.18 351.37 408.05 351.44 407.88 351.67 407.31 351.68 407.25 351.71 407.13 351.73 407.03 351.78 406.8 351.82 406.6 351.82 406.57 351.87 406.36 351.87 406.35 351.89 406.25 351.9 406.15 351.9 405.89 351.91 405.7 351.92 405.63 351.93 405.55 351.94 405.54 351.97 405.37 351.97 405.35 351.99 405.29 352.02 405.17 352.03 405.14 352.07 404.97 352.14 404.74 352.18 404.57 352.18 404.52 352.17 404.5 352.19 404.43 352.21 404.38 352.23 404.28 352.25 404.2 352.27 404.14 352.28 404.09 352.3 404.03 352.32 403.98 352.33 403.92 352.34 403.83 352.34 403.73 352.35 403.65 352.36 403.59 352.37 403.53 352.37 403.5 352.37 403.45 352.37 403.44 352.37 403.43 352.36 403.41 352.36 403.39 352.35 403.38 352.32 403.36 352.32 403.36 352.31 403.35 352.3 403.34 352.3 403.33 352.3 403.32 352.3 403.3 352.3 403.29 352.31 403.27 352.31 403.26 352.34 403.2 352.37 403.15 352.39 403.09 352.41 403.07 352.43 403.03 352.46 402.96 352.48 402.92 352.5 402.87 352.51 402.84 352.52 402.82 352.54 402.77 352.55 402.75 352.57 402.69 352.58 402.64 352.6 402.6 352.61 402.56 352.63 402.5 352.63 402.48 352.64 402.43 352.65 402.39 352.66 402.38 352.67 402.34 352.68 402.32 352.69 402.3 352.71 402.28 352.73 402.24 352.75 402.19 352.76 402.15 352.76 402.13 352.78 402.08 352.79 402.05 352.81 402 352.82 401.98 352.84 401.96 352.85 401.93 352.86 401.92 352.87 401.9 352.87 401.88 352.89 401.85 352.9 401.82 352.91 401.79 352.95 401.72 352.95 401.71 352.96 401.69 352.96 401.67 352.97 401.63 352.97 401.62 352.98 401.58 352.98 401.55 352.99 401.48 353 401.43 353.01 401.4 353.02 401.32 353.03 401.26 353.05 401.19 353.06 401.11 353.16 401.05 353.24 400.99 353.33 400.93 353.39 400.88 353.47 400.82 353.54 400.76 353.6 400.71 353.65 400.67 353.67 400.66 353.7 400.63 353.72 400.62 353.74 400.61 353.81 400.56 353.88 400.52 353.94 400.48 354.02 400.43 354.1 400.39 354.14 400.36 354.18 400.33 354.22 400.31 354.29 400.26 354.35 400.23 354.39 400.2 354.4 400.19 354.45 400.16 354.47 400.14 354.49 400.13 354.55 400.09 354.64 400.03 354.72 399.98 354.79 399.93 354.8 399.92 354.86 399.88 354.91 399.85 354.93 399.83 355.04 399.76 355.12 399.71 355.14 399.69 355.16 399.67 355.23 399.62 355.28 399.58 355.28 399.57 355.28 399.55 355.29 399.53 355.31 399.45 355.31 399.44 355.33 399.36 355.33 399.34 355.34 399.31 355.34 399.3 355.34 399.28 355.35 399.27 355.35 399.25 355.36 399.22 355.36 399.18 355.37 399.15 355.38 399.11 355.39 399.07 355.4 399.03 355.41 399 355.42 398.98 355.42 398.96 355.44 398.9 355.44 398.88 355.46 398.85 355.48 398.8 355.51 398.72 355.53 398.66 355.57 398.57 355.58 398.53 355.61 398.47 355.61 398.45 355.62 398.44 355.66 398.35 355.68 398.3 355.7 398.23 355.73 398.15 355.77 398.06 355.79 397.99 355.83 397.91 355.85 397.84 355.88 397.78 355.89 397.73 355.91 397.72 355.95 397.69 355.98 397.67 356 397.66 356.02 397.65 356.03 397.64 356.04 397.64 356.06 397.63 356.11 397.63 356.13 397.63 356.16 397.62 356.19 397.61 356.21 397.61 356.24 397.61 356.27 397.61 356.3 397.6 356.35 397.61 356.37 397.61 356.38 397.61 356.42 397.63 356.44 397.64 356.46 397.65 356.5 397.67 356.53 397.7 356.54 397.7 356.57 397.72 356.6 397.75 356.64 397.77 356.66 397.77 356.67 397.78 356.69 397.79 356.74 397.81 356.76 397.81 356.8 397.82 356.84 397.83 356.86 397.73 356.88 397.66 356.9 397.58 356.91 397.55 356.93 397.48 356.95 397.39 356.98 397.29 356.98 397.27 356.98 397.25 356.99 397.24 357 397.17 357.02 397.09 357.03 397.05 357.04 397 357.05 396.95 357.06 396.9 357.07 396.85 357.08 396.79 357.09 396.72 357.1 396.67 357.11 396.61 357.12 396.56 357.13 396.52 357.13 396.49 357.13 396.46 357.13 396.43 357.12 396.39 357.12 396.34 357.12 396.3 357.12 396.26 357.12 396.23 357.12 396.2 357.12 396.18 357.12 396.16 357.12 396.15 357.12 396.13 357.13 396.08 357.13 396.05 357.14 396 357.14 395.97 357.15 395.92 357.15 395.88 357.15 395.87 357.15 395.84 357.15 395.79 357.14 395.71 357.14 395.66 357.14 395.62 357.13 395.58 357.12 395.55 357.1 395.5 357.07 395.45 357.05 395.39 357.02 395.34 356.99 395.28 356.95 395.21 356.92 395.16 356.88 395.11 356.86 395.07 356.82 395.02 356.8 394.99 356.79 394.97 356.78 394.95 356.74 394.9 356.7 394.85 356.67 394.82 356.65 394.8 356.63 394.77 356.6 394.74 356.56 394.72 356.53 394.68 356.5 394.65 356.46 394.62 356.43 394.57 356.4 394.54 356.37 394.51 356.33 394.48 356.27 394.43 356.21 394.39 356.2 394.38 356.18 394.38 356.15 394.36 356.08 394.32 356.02 394.3 355.96 394.27 355.92 394.25 355.87 394.23 355.84 394.21 355.8 394.19 355.77 394.17 355.72 394.16 355.68 394.15 355.65 394.15 355.6 394.14 355.55 394.13 355.48 394.12 355.41 394.11 355.36 394.1 355.29 394.09 355.2 394.08 355.12 394.06 355.01 394.04 354.92 394.02 354.91 394.02 354.82 394 354.8 394 354.78 393.99 354.7 393.98 354.55 393.95 354.44 393.92 354.38 393.99 354.27 394.13 354.11 394.33 354.08 394.36 354.04 394.4 354.02 394.42 354.01 394.44 354 394.45 353.99 394.46 353.98 394.46 353.93 394.52 353.88 394.57 353.87 394.57 353.84 394.61 353.74 394.7 353.67 394.78 353.61 394.84 353.59 394.86 353.56 394.88 353.46 394.82 353.31 394.73 353.12 394.61 352.97 394.52 352.84 394.44 352.78 394.4 352.91 394.18 352.95 394.11 352.96 394.09 352.97 394.08 353.09 393.86 353.12 393.59 353.15 393.27 353.15 393.24 353.07 393.03 353.06 393.01 353.05 392.99 352.96 392.75 352.93 392.5 352.93 392.45 352.89 392.38 352.84 392.3 352.83 392.29 352.8 392.26 352.55 392.03 352.51 392 352.45 391.95 352.42 391.92 352.31 391.82 352 391.54 351.99 391.54 351.91 391.47 351.54 391.13 351.53 391.12 351.52 391.12 351.5 391.11 351.1 390.91 351.09 390.91 351.07 390.89 351.03 390.88 350.97 390.86 350.92 390.86 350.87 390.86 350.86 390.86 350.84 390.86 350.39 390.77 350.4 390.76 350.4 390.75 350.19 390.54 350.09 390.44 350.09 390.43 350.06 390.4 349.92 390.25 349.9 390.24 349.88 390.22 349.85 390.18 349.83 390.17 349.82 390.15 349.81 390.14 349.76 390.09 349.48 389.78 349.18 389.46 348.99 389.25 348.96 389.23 349.02 389.17 349.06 389.13 349.1 389.09 349.15 389.02 349.2 388.94 349.27 388.86 349.32 388.78 349.37 388.72 349.43 388.65 349.46 388.59 349.52 388.52 349.58 388.44 349.62 388.39 349.67 388.34 349.72 388.28 349.77 388.21 349.8 388.17 349.86 388.12 349.91 388.07 349.97 388.02 350.03 387.97 350.07 387.96 350.1 387.96 350.12 387.93 350.14 387.91 350.16 387.86 350.17 387.81 350.18 387.78 350.19 387.72 350.2 387.66 350.2 387.65 350.23 387.61 350.28 387.52 350.31 387.48 350.33 387.44 350.34 387.43 350.37 387.38 350.38 387.36 350.4 387.33 350.41 387.31 350.43 387.28 350.48 387.2 350.49 387.18 350.5 387.16 350.52 387.13 350.56 387.03 350.57 387.03 350.57 387.02 350.6 386.98 350.64 386.87 350.67 386.83 350.69 386.78 350.71 386.74 350.71 386.73 350.73 386.67 350.76 386.62 350.93 386.34 350.95 386.31 351.02 386.18 351.1 386.03 351.15 385.92 351.15 385.9 351.2 385.8 351.22 385.73 351.23 385.68 351.26 385.55 351.32 385.38 351.33 385.35 351.33 385.33 351.37 385.22 351.38 385.18 351.42 385.14 351.48 385.06 351.52 385.01 351.54 384.99 351.57 384.94 351.6 384.91 351.62 384.87 351.64 384.82 351.69 384.73 351.71 384.7 351.72 384.68 351.73 384.66 351.74 384.64 351.74 384.63 351.77 384.62 351.79 384.6 351.84 384.57 351.88 384.55 351.93 384.53 352.07 384.46 352.08 384.44 352.12 384.42 352.15 384.4 352.19 384.38 352.21 384.36 352.24 384.34 352.25 384.33 352.27 384.31 352.29 384.29 352.33 384.24 352.41 384.16 352.51 384.08 352.57 384.04 352.59 384.02 352.6 384 352.64 383.98 352.66 383.96 352.68 383.95 352.71 383.92 352.73 383.92 352.74 383.89 352.76 383.87 352.77 383.86 352.79 383.85 352.8 383.83 352.82 383.81 352.84 383.8 352.9 383.76 352.94 383.74 353.01 383.71 353.05 383.69 353.1 383.68 353.15 383.68 353.17 383.67 353.19 383.66 353.2 383.66 353.21 383.65 353.22 383.64 353.24 383.62 353.25 383.61 353.27 383.57 353.29 383.54 353.31 383.52 353.32 383.5 353.35 383.47 353.36 383.45 353.37 383.43 353.4 383.41 353.43 383.4 353.46 383.38 353.65 383.25 353.71 383.21 353.74 383.19 353.78 383.17 353.81 383.16 353.85 383.15 353.86 383.14 353.87 383.12 353.88 383.11 353.92 383.09 353.95 383.07 354.05 383.01 354.1 382.98 354.16 382.94 354.18 382.93 354.18 382.92 354.2 382.92 354.28 382.89 354.29 382.88 354.44 382.81 354.47 382.79 354.48 382.78 354.51 382.76 354.55 382.72 354.56 382.71 354.64 382.63 354.66 382.62 354.66 382.61 354.74 382.54 354.77 382.51 354.84 382.45 354.95 382.34 354.99 382.3 355 382.29 355.05 382.25 355.06 382.23 355.07 382.23 355.13 382.17 355.17 382.14 355.22 382.1 355.26 382.07 355.28 382.06 355.31 382.03 355.32 382.02 355.34 382.01 355.35 382 355.35 381.99 355.37 381.96 355.37 381.95 355.38 381.92 355.39 381.9 355.44 381.75 355.44 381.75 355.44 381.74 355.45 381.73 355.45 381.72 355.47 381.65 355.6 381.34 355.61 381.33 355.63 381.28 355.63 381.27 355.65 381.25 355.65 381.24 355.7 381.1 355.72 381.07 355.73 381.06 355.74 381.05 355.75 381.05 355.77 381.05 355.78 381.05 355.8 381.04 355.82 381.02 355.84 381.01 355.86 381 355.89 380.99 355.92 380.98 355.96 380.97 356.01 380.95 356.04 380.94 356.08 380.93 356.09 380.92 356.1 380.92 356.13 380.91 356.16 380.91 356.17 380.9 356.19 380.9 356.21 380.9 356.24 380.89 356.28 380.88 356.3 380.88 356.31 380.88 356.36 380.87 356.38 380.87 356.42 380.86 356.43 380.86 356.46 380.85 356.5 380.84 356.53 380.84 356.54 380.83 356.55 380.83 356.57 380.81 356.59 380.79 356.71 380.7 356.76 380.66 356.79 380.63 356.8 380.62 356.79 380.61 356.76 380.58 356.75 380.57 356.73 380.55 356.72 380.53 356.7 380.5 356.68 380.47 356.65 380.43 356.61 380.36 356.57 380.31 356.54 380.26 356.51 380.21 356.48 380.16 356.45 380.12 356.4 380.06 356.38 380.03 356.66 379.84 356.73 379.79 356.75 379.78 356.76 379.77 356.78 379.76 356.82 379.74 356.82 379.73 356.82 379.71 356.83 379.7 356.84 379.68 356.85 379.67 356.87 379.67 356.9 379.66 356.92 379.65 356.96 379.64 357 379.63 357.07 379.6 357.12 379.57 357.17 379.53 357.22 379.5 357.27 379.46 357.32 379.42 357.38 379.39 357.41 379.39 357.44 379.38 357.48 379.39 357.51 379.4 357.54 379.41 357.57 379.42 357.6 379.43 357.68 379.46 357.73 379.47 357.77 379.49 357.8 379.51 357.83 379.52 357.85 379.52 357.87 379.52 357.9 379.52 357.93 379.53 357.98 379.53 358.05 379.53 358.12 379.54 358.17 379.55 358.32 379.56 358.37 379.56 358.4 379.57 358.63 379.47 358.84 379.39 359.03 379.31 359.23 379.22 359.43 379.15 359.6 379.07 359.58 379.03 359.58 379.02 359.55 378.92 359.54 378.9 359.53 378.87 359.52 378.82 359.5 378.79 Z"/>
</g></svg>