<svg xmlns="http://www.w3.org/2000/svg" version="1.2" baseProfile="tiny" stroke-linecap="round" stroke-linejoin="round" viewBox="547.17 101.18 12.25 13.82"><g xmlns="http://www.w3.org/2000/svg" id="Urdazubi">
<path d="M 554.89 101.42 554.9 101.46 554.89 101.48 554.94 101.51 555.01 101.56 555.06 101.6 555.08 101.62 555.1 101.64 555.17 101.7 555.23 101.76 555.28 101.82 555.34 101.87 555.42 101.94 555.46 101.98 555.48 102.01 555.49 102.09 555.5 102.2 555.49 102.21 555.49 102.25 555.5 102.27 555.51 102.31 555.53 102.34 555.55 102.38 555.58 102.43 555.6 102.46 555.62 102.48 555.65 102.51 555.67 102.54 555.7 102.6 555.71 102.61 555.71 102.62 555.73 102.65 555.75 102.68 555.76 102.69 555.77 102.71 555.79 102.74 555.8 102.75 555.81 102.77 555.8 102.78 555.8 102.8 555.8 102.81 555.79 102.82 555.78 102.84 555.76 102.84 555.76 102.85 555.74 102.85 555.73 102.87 555.73 102.88 555.72 102.9 555.71 102.92 555.71 102.94 555.7 102.95 555.7 102.97 555.7 102.99 555.71 103.01 555.71 103.02 555.72 103.04 555.74 103.06 555.76 103.08 555.77 103.1 555.8 103.13 555.82 103.15 555.84 103.17 555.85 103.18 555.87 103.2 555.88 103.21 555.88 103.23 555.89 103.24 555.9 103.27 555.9 103.29 555.91 103.31 555.92 103.33 555.93 103.35 555.95 103.38 555.97 103.41 556.05 103.48 556.12 103.56 556.2 103.62 556.28 103.67 556.32 103.7 556.35 103.72 556.35 103.72 556.37 103.72 556.41 103.7 556.46 103.69 556.48 103.69 556.52 103.69 556.6 103.71 556.69 103.74 556.76 103.74 556.82 103.75 556.86 103.76 556.91 103.77 556.94 103.79 556.98 103.83 557.02 103.87 557.04 103.9 557.04 103.94 557.05 103.97 557.07 104 557.08 104.03 557.1 104.06 557.11 104.11 557.1 104.18 557.1 104.2 557.1 104.21 557.1 104.23 557.09 104.23 557.09 104.25 557.09 104.27 557.08 104.29 557.08 104.34 557.08 104.35 557.07 104.37 557.07 104.39 557.06 104.41 557.06 104.43 557.05 104.44 557.06 104.46 557.06 104.47 557.05 104.48 557.06 104.49 557.09 104.53 557.1 104.54 557.11 104.55 557.12 104.55 557.13 104.56 557.15 104.57 557.16 104.58 557.18 104.59 557.19 104.6 557.22 104.62 557.24 104.63 557.26 104.64 557.28 104.65 557.3 104.67 557.32 104.68 557.33 104.69 557.45 104.78 557.5 104.83 557.55 104.86 557.58 104.88 557.59 104.89 557.6 104.91 557.62 104.94 557.61 105.02 557.61 105.05 557.6 105.07 557.6 105.15 557.63 105.26 557.65 105.33 557.67 105.37 557.7 105.39 557.72 105.4 557.73 105.4 557.78 105.4 557.86 105.38 557.9 105.37 557.94 105.37 557.96 105.37 557.99 105.39 558.03 105.44 558.1 105.53 558.14 105.58 558.19 105.63 558.28 105.7 558.29 105.71 558.39 105.77 558.46 105.81 558.52 105.85 558.61 105.9 558.68 105.93 558.73 105.94 558.76 105.96 558.77 105.97 558.8 106.03 558.81 106.08 558.82 106.13 558.82 106.19 558.83 106.23 558.83 106.33 558.85 106.39 558.87 106.42 558.87 106.44 558.87 106.44 558.88 106.44 558.89 106.47 558.9 106.5 558.95 106.53 558.98 106.54 559.02 106.54 559.06 106.54 559.07 106.54 559.08 106.54 559.11 106.57 559.13 106.63 559.14 106.67 559.15 106.69 559.19 106.75 559.19 106.78 559.19 106.8 559.15 106.83 559.09 106.84 559.08 106.84 559.05 106.85 559 106.86 558.95 106.88 558.93 106.9 558.92 106.93 558.92 106.94 558.94 106.99 559.02 107.12 559.07 107.21 559.12 107.3 559.13 107.3 559.14 107.31 559.2 107.38 559.23 107.41 559.25 107.43 559.26 107.46 559.28 107.54 559.31 107.66 559.36 107.77 559.37 107.82 559.37 107.86 559.38 107.88 559.39 107.92 559.39 107.95 559.35 107.99 559.3 108.01 559.29 108.02 559.26 108.04 559.24 108.07 559.22 108.1 559.19 108.13 559.18 108.13 559.17 108.14 559.16 108.15 559.16 108.15 559.11 108.17 559.09 108.19 559.09 108.23 559.11 108.27 559.15 108.32 559.2 108.36 559.24 108.39 559.27 108.41 559.28 108.43 559.28 108.48 559.28 108.49 559.26 108.56 559.26 108.57 559.27 108.63 559.29 108.67 559.31 108.7 559.35 108.73 559.38 108.76 559.39 108.81 559.37 108.85 559.33 108.91 559.32 108.93 559.3 108.95 559.3 108.99 559.33 109.03 559.35 109.09 559.35 109.16 559.32 109.26 559.31 109.4 559.31 109.42 559.31 109.51 559.29 109.55 559.25 109.59 559.24 109.6 559.2 109.66 559.16 109.74 559.1 109.84 559.09 109.86 559.05 109.89 559.02 109.94 558.99 109.98 558.98 110.03 558.99 110.08 559.01 110.11 559.03 110.16 559.06 110.18 559.07 110.2 559.1 110.21 559.09 110.24 559.06 110.28 559 110.36 558.98 110.38 558.97 110.39 558.97 110.4 558.96 110.41 558.93 110.44 558.9 110.48 558.85 110.54 558.84 110.56 558.82 110.58 558.79 110.58 558.77 110.57 558.75 110.55 558.7 110.52 558.67 110.49 558.66 110.49 558.64 110.47 558.6 110.44 558.58 110.41 558.57 110.4 558.57 110.37 558.56 110.34 558.55 110.32 558.55 110.31 558.54 110.28 558.52 110.32 558.51 110.34 558.45 110.39 558.41 110.41 558.37 110.42 558.3 110.42 558.17 110.4 558.09 110.38 558.02 110.36 557.97 110.34 557.93 110.34 557.9 110.33 557.86 110.32 557.84 110.31 557.82 110.28 557.79 110.25 557.75 110.24 557.71 110.23 557.68 110.24 557.64 110.26 557.61 110.27 557.56 110.28 557.52 110.27 557.47 110.28 557.43 110.29 557.41 110.32 557.39 110.36 557.38 110.41 557.37 110.44 557.36 110.47 557.35 110.48 557.32 110.5 557.29 110.52 557.26 110.54 557.21 110.56 557 110.7 556.68 110.89 556.65 110.91 556.62 110.92 556.6 110.93 556.47 111.01 556.36 111.07 556.36 111.08 556.31 111.1 556.3 111.11 556.26 111.18 556.24 111.23 556.21 111.3 556.15 111.34 556.08 111.39 556.06 111.41 556.05 111.45 556.02 111.58 556.02 111.63 556.02 111.67 556.03 111.69 556.02 111.71 556.01 111.74 555.99 111.77 555.95 111.8 555.95 111.8 555.96 111.82 555.98 111.84 556.02 111.88 556.03 111.89 556.05 111.91 556.09 111.95 556.13 111.98 556.15 112.01 556.17 112.04 556.17 112.08 556.17 112.13 556.15 112.2 556.12 112.28 556.09 112.34 556.09 112.35 556.05 112.41 556.01 112.46 555.98 112.53 555.94 112.61 555.85 112.71 555.77 112.78 555.72 112.83 555.68 112.91 555.67 112.99 555.66 113.06 555.66 113.15 555.63 113.22 555.59 113.28 555.54 113.34 555.49 113.39 555.45 113.44 555.42 113.48 555.39 113.54 555.34 113.63 555.29 113.76 555.24 113.91 555.21 114 555.17 114.1 555.14 114.19 555.13 114.2 555.1 114.26 555.06 114.32 555.03 114.39 555 114.43 554.95 114.51 554.92 114.55 554.89 114.59 554.86 114.62 554.85 114.65 554.83 114.69 554.82 114.72 554.82 114.75 554.82 114.8 554.82 114.83 554.82 114.86 554.82 114.87 554.83 114.89 554.84 114.91 554.84 114.94 554.85 114.97 554.84 114.96 554.81 114.96 554.76 114.93 554.69 114.88 554.62 114.84 554.55 114.79 554.49 114.75 554.42 114.71 554.39 114.69 554.37 114.68 554.37 114.67 554.3 114.63 554.24 114.6 554.21 114.57 554.14 114.52 554.13 114.5 554.05 114.43 553.96 114.34 553.83 114.23 553.73 114.14 553.7 114.12 553.69 114.1 553.68 114.09 553.58 114 553.45 113.88 553.32 113.76 553.23 113.69 553.17 113.63 553.16 113.63 553.15 113.61 553.14 113.6 553.05 113.53 552.93 113.44 552.79 113.32 552.76 113.29 552.68 113.23 552.64 113.2 552.48 113.07 552.44 113.04 552.33 112.94 552.25 112.89 552.19 112.84 552.11 112.77 552.1 112.76 552.05 112.72 552.04 112.71 551.91 112.61 551.86 112.57 551.82 112.54 551.72 112.46 551.68 112.44 551.66 112.42 551.61 112.38 551.51 112.3 551.45 112.25 551.36 112.18 551.28 112.11 551.18 112.02 551.16 112 551.08 111.92 551.02 111.87 551.02 111.86 551.01 111.86 551 111.85 550.94 111.79 550.88 111.74 550.85 111.7 550.79 111.64 550.79 111.64 550.76 111.61 550.64 111.49 550.52 111.37 550.33 111.3 549.96 111.14 549.89 111.11 549.58 110.97 549.48 110.93 549.43 110.91 549.06 110.74 548.66 110.57 548.5 110.5 548.23 110.38 548.07 110.34 548.07 110.31 548.07 110.29 548.05 110.24 548.02 110.19 548 110.16 547.97 110.08 547.93 109.95 547.9 109.87 547.86 109.81 547.84 109.79 547.83 109.77 547.82 109.77 547.8 109.73 547.79 109.73 547.72 109.65 547.67 109.6 547.63 109.56 547.59 109.53 547.56 109.5 547.55 109.47 547.55 109.45 547.56 109.41 547.59 109.37 547.61 109.31 547.62 109.29 547.64 109.25 547.64 109.22 547.62 109.2 547.59 109.18 547.58 109.18 547.54 109.16 547.52 109.16 547.45 109.16 547.42 109.16 547.41 109.16 547.37 109.19 547.29 109.23 547.28 109.23 547.22 109.25 547.19 109.26 547.17 109.26 547.17 109.19 547.18 109.05 547.18 109 547.19 108.96 547.19 108.94 547.2 108.89 547.21 108.8 547.22 108.73 547.23 108.66 547.25 108.57 547.26 108.49 547.26 108.48 547.27 108.43 547.28 108.34 547.3 108.28 547.31 108.2 547.33 108.13 547.34 108.06 547.42 107.99 547.48 107.92 547.53 107.87 547.59 107.81 547.59 107.8 547.62 107.77 547.68 107.71 547.69 107.7 547.71 107.68 547.72 107.66 547.73 107.65 547.8 107.58 547.84 107.54 547.95 107.42 548.06 107.3 548.14 107.22 548.18 107.17 548.31 107.04 548.36 106.98 548.4 106.94 548.42 106.92 548.47 106.86 548.51 106.82 548.52 106.82 548.53 106.8 548.65 106.67 548.76 106.55 548.79 106.53 548.8 106.51 548.87 106.44 548.98 106.32 549.1 106.2 549.11 106.18 549.22 106.07 549.34 105.94 549.38 105.9 549.4 105.88 549.45 105.82 549.47 105.81 549.56 105.72 549.6 105.67 549.61 105.66 549.62 105.65 549.72 105.54 549.74 105.52 549.79 105.47 549.84 105.41 549.97 105.28 550.09 105.15 550.22 105.01 550.24 104.99 550.25 104.98 550.31 104.91 550.38 104.8 550.39 104.79 550.42 104.73 550.52 104.58 550.6 104.44 550.69 104.29 550.72 104.26 550.78 104.16 550.81 104.12 550.83 104.07 550.86 104.02 550.89 103.98 550.91 103.95 550.95 103.88 550.95 103.87 550.97 103.85 551 103.8 551.09 103.66 551.16 103.55 551.17 103.53 551.24 103.42 551.26 103.39 551.34 103.25 551.4 103.15 551.42 103.12 551.44 103.1 551.49 103.01 551.51 102.97 551.6 102.82 551.69 102.67 551.77 102.53 551.81 102.46 551.86 102.39 551.94 102.25 551.98 102.18 552 102.15 552.07 102.04 552.16 101.9 552.21 101.81 552.24 101.76 552.33 101.61 552.35 101.57 552.42 101.46 552.51 101.31 552.57 101.19 552.61 101.19 552.65 101.2 552.68 101.21 552.73 101.22 552.78 101.23 552.83 101.24 552.89 101.26 552.98 101.27 553.03 101.28 553.08 101.29 553.13 101.3 553.18 101.31 553.23 101.33 553.28 101.33 553.33 101.34 553.38 101.36 553.42 101.36 553.47 101.38 553.52 101.38 553.61 101.41 553.65 101.41 553.66 101.42 553.7 101.42 553.72 101.43 553.76 101.44 553.82 101.44 553.87 101.43 553.92 101.44 553.97 101.43 554.03 101.43 554.11 101.43 554.18 101.43 554.23 101.43 554.28 101.42 554.33 101.42 554.38 101.42 554.44 101.42 554.5 101.42 554.58 101.41 554.64 101.41 554.7 101.4 554.75 101.4 554.79 101.4 554.84 101.4 554.87 101.4 554.89 101.42 Z"/>
</g></svg>