<svg xmlns="http://www.w3.org/2000/svg" version="1.2" baseProfile="tiny" stroke-linecap="round" stroke-linejoin="round" viewBox="729.75 193.93 43 37.02"><g xmlns="http://www.w3.org/2000/svg" id="Urdatx/ Santa-Grazi">
<path d="M 730.59 200.71 731.62 200.12 731.63 200.14 732.05 199.88 733.12 200.03 733.69 199.58 734.41 198.91 735.13 198.24 735.14 198.21 735.17 198.18 735.19 198.15 736.02 197.41 736.2 197.38 736.22 197.38 736.25 197.39 736.28 197.4 736.3 197.42 736.32 197.43 736.35 197.45 736.39 197.45 736.41 197.45 736.43 197.43 736.48 197.41 736.53 197.37 736.58 197.35 736.61 197.34 736.63 197.34 736.69 197.34 736.71 197.34 736.77 197.33 736.81 197.31 736.84 197.3 736.88 197.27 736.91 197.24 736.93 197.22 736.95 197.19 736.96 197.15 736.97 197.11 736.99 197.08 737.01 197.07 737.04 197.05 737.08 197.03 737.12 196.98 737.14 196.94 737.16 196.91 737.2 196.89 737.23 196.87 737.28 196.86 737.32 196.84 737.37 196.84 737.4 196.84 737.46 196.86 737.5 196.87 737.54 196.87 737.59 196.85 737.64 196.81 737.69 196.8 737.72 196.8 737.78 196.8 737.82 196.79 737.86 196.77 737.9 196.74 737.93 196.71 737.98 196.7 738.01 196.69 738.09 196.69 738.13 196.69 738.18 196.69 738.22 196.67 738.26 196.64 738.28 196.6 738.3 196.56 738.31 196.53 738.32 196.49 738.31 196.39 738.31 196.36 738.32 196.32 738.34 196.28 738.35 196.25 738.38 196.21 738.41 196.17 738.43 196.13 738.44 196.09 738.44 196.05 738.43 196 738.44 195.96 738.44 195.92 738.45 195.88 738.47 195.83 738.49 195.79 738.51 195.75 738.53 195.72 738.56 195.69 738.59 195.68 738.62 195.65 738.66 195.62 738.7 195.58 738.72 195.56 738.75 195.52 738.77 195.48 738.79 195.45 738.8 195.4 738.8 195.36 738.8 195.32 738.81 195.28 738.84 195.23 738.87 195.2 738.9 195.18 738.93 195.17 739.29 195.31 739.53 195.35 740.25 194.76 740.59 194.64 741.38 193.95 741.39 193.96 741.42 193.99 741.44 194.03 741.47 194.09 741.49 194.15 741.51 194.23 741.53 194.3 741.55 194.36 741.57 194.42 741.58 194.46 741.6 194.55 741.61 194.61 741.63 194.64 741.65 194.69 741.69 194.72 741.72 194.76 741.72 194.78 741.75 194.85 741.78 194.93 741.81 195 741.84 195.06 741.87 195.13 741.9 195.19 741.94 195.25 741.98 195.31 742 195.36 742.02 195.4 742.02 195.42 742.02 195.44 742.01 195.54 741.99 195.65 741.99 195.69 741.98 195.74 741.96 195.77 741.94 195.79 741.92 195.8 741.92 195.82 741.93 195.84 741.95 195.87 741.97 195.91 742.02 195.99 742.04 196.04 742.08 196.11 742.1 196.13 742.13 196.15 742.16 196.17 742.19 196.2 742.22 196.23 742.26 196.27 742.3 197.09 742.28 197.53 742.35 197.57 742.65 197.98 742.84 198.06 743.3 198.35 743.45 198.45 743.45 198.64 743.5 198.66 743.52 198.68 743.58 198.76 743.6 198.79 743.65 198.82 743.69 198.86 743.74 198.9 743.78 198.94 743.83 199 743.87 199.05 743.92 199.1 743.97 199.16 743.99 199.19 744.01 199.22 744.02 199.26 744.2 199.47 744.86 200.39 744.88 200.4 745.34 200.28 745.66 200.25 745.76 200.17 745.87 200.02 745.95 199.8 746.09 199.85 746.65 199.98 746.65 199.98 746.7 199.99 746.72 200.01 746.75 200.03 746.79 200.06 746.87 200.11 746.93 200.16 746.95 200.18 746.98 200.19 747 200.19 747.02 200.19 747.06 200.18 747.73 200.5 748.4 200.82 749.08 201.14 749.22 201.21 749.68 201.27 749.73 201.31 749.76 201.35 749.8 201.37 749.84 201.41 749.88 201.44 749.9 201.46 749.92 201.48 749.95 201.51 749.97 201.53 749.98 201.54 750.01 201.57 750.01 201.58 750.04 201.59 750.06 201.6 750.12 201.62 750.14 201.63 750.15 201.63 750.17 201.62 750.19 201.62 750.22 201.62 750.24 201.62 750.27 201.64 750.32 201.67 750.35 201.69 750.4 201.72 750.44 201.74 750.47 201.75 750.5 201.76 750.53 201.77 750.55 201.77 750.58 201.77 750.62 201.77 750.65 201.77 750.69 201.78 750.7 201.79 750.71 201.8 750.73 201.82 750.75 201.84 750.77 201.86 750.79 201.88 750.82 201.89 750.85 201.9 750.9 201.92 750.93 201.94 750.97 201.96 750.99 201.97 751.02 202 751.05 202.01 751.09 202.02 751.12 202.04 751.15 202.05 751.18 202.06 751.21 202.08 751.21 202.09 751.23 202.12 751.32 202.17 751.49 202.3 751.54 202.31 752.19 202.18 752.64 202.15 753.39 202.67 753.5 202.71 753.7 202.7 753.97 202.89 754.2 203.18 754.47 203.3 755.08 203.33 755.69 203.36 756.1 203.84 756.19 203.88 756.26 203.94 756.3 203.99 756.35 204.02 756.38 204.04 756.44 204.07 756.48 204.09 756.53 204.11 756.58 204.15 756.68 204.14 756.72 204.17 756.78 204.22 756.84 204.27 756.87 204.32 756.89 204.35 756.91 204.39 756.93 204.42 756.95 204.46 756.97 204.49 756.99 204.51 757.02 204.53 757.03 204.54 757.06 204.55 757.06 204.53 757.05 204.52 757.03 204.5 757 204.47 756.98 204.42 756.97 204.35 756.97 204.3 756.97 204.24 756.98 204.22 756.99 204.19 757.01 204.18 757.03 204.17 757.05 204.17 757.08 204.18 757.12 204.21 757.18 204.25 757.19 204.26 757.26 204.5 757.48 204.59 757.76 204.57 757.88 204.65 758.17 205.03 758.39 205.16 759.26 205.49 759.44 205.6 759.81 205.77 759.95 205.76 760 205.74 760.36 205.72 760.53 205.85 760.57 205.83 760.64 205.78 760.71 205.74 760.76 205.7 760.79 205.69 760.81 205.68 760.85 205.68 760.89 205.69 760.91 205.7 760.94 205.71 760.97 205.71 760.99 205.71 761.04 205.7 761.08 205.7 761.11 205.7 761.13 205.7 761.15 205.69 761.17 205.69 761.17 205.68 761.19 205.64 761.24 205.65 761.32 205.64 761.36 205.64 761.41 205.63 761.44 205.63 761.48 205.63 761.55 205.63 761.66 205.62 761.71 205.6 761.76 205.58 761.8 205.56 761.85 205.54 761.9 205.52 761.92 205.51 761.96 205.52 762 205.53 762.05 205.56 762.08 205.58 762.09 205.59 762.11 205.61 762.15 205.64 762.18 205.65 762.21 205.66 762.25 205.66 762.33 205.66 762.42 205.66 762.45 205.65 762.52 205.63 762.62 205.58 762.68 205.55 762.73 205.51 762.77 205.48 762.82 205.45 762.87 205.43 762.91 205.41 762.96 205.39 763.02 205.38 763.13 205.36 763.21 205.35 763.25 205.34 763.31 205.32 763.36 205.31 763.38 205.3 763.41 205.31 763.44 205.31 763.49 205.32 763.54 205.32 763.62 205.33 763.71 205.35 763.77 205.35 763.83 205.35 763.89 205.35 763.95 205.36 763.99 205.1 764.11 205.1 764.14 205.1 764.18 205.11 764.22 205.1 764.26 205.09 764.31 205.08 764.34 205.08 764.35 205.08 764.38 205.07 764.41 205.06 764.44 205.05 764.45 205.05 764.49 205.04 764.55 205.03 764.61 205.01 765 204.98 765.17 204.95 765.22 204.99 765.55 205.09 765.74 205.08 765.79 205.04 765.98 204.99 766.15 205.22 766.45 205.7 766.97 205.86 767.23 206.07 767.51 206.09 767.67 206.13 768.03 206.14 768.51 206.29 769.01 206.48 769.14 206.56 769.37 206.88 769.53 207.03 769.61 207.59 769.82 207.78 769.91 208.01 769.97 208.07 770.04 208.13 770.09 208.2 770.1 208.21 770.15 208.3 770.18 208.36 770.19 208.38 770.24 208.43 770.27 208.47 770.32 208.53 770.35 208.57 770.37 208.6 770.41 208.66 770.43 208.72 770.45 208.78 770.47 208.83 770.49 208.9 770.49 208.97 770.49 209.03 770.49 209.1 770.45 209.43 770.5 209.61 770.69 209.89 771.11 210.44 771.18 210.46 771.25 210.49 771.3 210.52 771.4 210.57 771.51 210.61 771.61 210.67 771.73 210.73 771.84 210.77 771.87 210.8 771.91 210.83 771.92 210.86 771.92 210.88 771.94 210.9 771.96 210.91 771.98 210.93 772 210.95 772 210.97 772 210.98 772 210.99 772.02 211.01 772.05 211.04 772.12 211.1 772.18 211.15 772.24 211.21 772.3 211.28 772.34 211.32 772.37 211.34 772.38 211.36 772.54 211.48 772.73 211.8 772.75 211.98 772.39 212.08 772.36 212.07 772.29 212.04 772.27 212.04 772.18 212.02 772.13 212 771.92 211.9 771.23 211.86 771.19 211.87 771.16 211.87 771.12 211.87 771.1 211.87 771.07 211.87 771.04 211.87 771.02 211.87 771 211.88 770.97 211.87 770.95 211.86 770.94 211.86 770.91 211.86 770.9 211.86 770.87 211.86 770.84 211.86 770.82 211.87 770.79 211.86 770.77 211.86 770.76 211.85 770.73 211.84 770.7 211.81 770.69 211.8 770.67 211.8 770.65 211.8 770.61 211.81 770.58 211.81 770.55 211.8 770.52 211.81 770.49 211.82 770.46 211.82 770.42 211.83 770.39 211.83 770.37 211.83 770.34 211.83 770.31 211.83 770.28 211.83 770.26 211.83 770.24 211.83 770.22 211.83 770.16 211.84 770.12 211.84 770.1 211.83 770.08 211.83 770.06 211.82 770.03 211.82 770 211.81 769.98 211.82 769.96 211.82 769.94 211.84 769.92 211.84 769.9 211.85 769.88 211.86 769.86 211.87 769.85 211.87 769.84 211.87 769.81 211.86 769.79 211.87 769.78 211.88 769.76 211.9 769.74 211.91 769.71 211.91 769.7 211.9 769.68 211.9 769.66 211.91 769.65 211.92 769.64 211.93 769.62 211.94 769.61 211.94 769.6 211.94 769.59 211.95 769.57 211.96 769.55 211.96 769.53 211.97 769.52 211.97 769.5 211.98 769.47 211.99 769.46 211.99 769.45 212 769.44 212.02 769.43 212.02 769.41 212.03 769.4 212.02 769.39 212.01 769.37 212.01 769.36 212.01 769.36 212.02 769.35 212.04 769.34 212.05 769.32 212.05 769.3 212.05 769.27 212.05 769.25 212.04 769.23 212.04 769.22 212.04 769.2 212.04 769.18 212.06 769.17 212.07 769.16 212.09 769.15 212.1 769.14 212.12 769.13 212.15 769.12 212.16 769.09 212.17 769.07 212.17 769.04 212.18 769.01 212.18 768.99 212.19 768.97 212.21 768.95 212.21 768.93 212.21 768.91 212.21 768.89 212.2 768.88 212.21 768.87 212.21 768.85 212.22 768.83 212.22 768.81 212.22 768.79 212.23 768.78 212.24 768.77 212.25 768.76 212.26 768.73 212.25 768.71 212.24 768.69 212.24 768.68 212.25 768.62 212.27 768.58 212.28 768.55 212.27 768.52 212.27 768.5 212.27 768.47 212.27 768.44 212.27 768.41 212.27 768.39 212.27 768.32 212.27 768.29 212.28 768.24 212.3 768.22 212.32 768.2 212.33 768.16 212.33 768.11 212.33 768.08 212.32 768.04 212.31 768.02 212.3 767.99 212.3 767.92 212.31 767.83 212.33 767.76 212.34 767.71 212.35 767.66 212.36 767.62 212.38 767.57 212.38 767.53 212.38 767.48 212.39 767.45 212.4 767.4 212.41 767.36 212.43 767.32 212.44 767.29 212.44 767.24 212.45 767.21 212.45 767.15 212.45 767.11 212.46 767.07 212.46 767.03 212.47 766.98 212.47 766.94 212.47 766.91 212.47 766.87 212.46 766.84 212.45 766.8 212.46 766.76 212.47 766.72 212.48 766.68 212.48 766.65 212.49 766.6 212.5 766.57 212.5 766.53 212.51 766.5 212.5 766.47 212.5 766.44 212.49 766.4 212.48 766.36 212.48 766.33 212.49 766.3 212.5 766.27 212.5 766.25 212.51 766.22 212.52 766.18 212.55 766.16 212.56 766.13 212.58 766.11 212.61 766.09 212.62 766.07 212.63 765.99 212.64 765.94 212.64 765.9 212.63 765.87 212.61 765.79 212.54 765.77 212.51 765.73 212.48 765.7 212.44 765.67 212.42 765.64 212.39 765.61 212.36 765.56 212.3 765.54 212.29 765.51 212.28 765.49 212.28 765.46 212.28 765.43 212.27 765.41 212.25 765.39 212.24 765.33 212.17 765.3 212.16 765.25 212.14 765.22 212.12 765.19 212.1 765.17 212.08 765.14 212.06 765.12 212.06 765.1 212.06 765.08 212.06 765.06 212.04 765.04 212.02 765.02 212.01 765 212.02 764.98 212.03 764.96 212.02 764.93 212.01 764.92 211.99 764.89 211.96 764.69 212.02 764.68 212.03 764.66 212.05 764.62 212.06 764.59 212.07 764.55 212.08 764.52 212.09 764.49 212.09 764.48 212.1 764.46 212.12 764.46 212.15 764.44 212.17 764.43 212.19 764.41 212.2 764.39 212.22 764.37 212.23 764.35 212.23 764.32 212.23 764.3 212.24 764.27 212.25 764.26 212.27 764.25 212.29 764.24 212.3 764.22 212.31 764.19 212.32 764.17 212.32 764.11 212.34 764.09 212.35 764.06 212.36 764.05 212.37 764.01 212.41 764 212.43 763.98 212.46 763.97 212.48 763.96 212.51 763.96 212.54 763.97 212.57 763.97 212.59 763.97 212.62 763.97 212.65 763.97 212.68 763.95 212.69 763.94 212.71 763.92 212.72 763.89 212.73 763.86 212.75 763.84 212.79 763.82 212.82 763.8 212.85 763.74 212.9 763.71 212.93 763.67 212.95 763.64 212.99 763.62 213.02 763.6 213.06 763.59 213.08 763.59 213.12 763.59 213.14 763.6 213.17 763.6 213.2 763.59 213.22 763.57 213.22 763.54 213.22 763.51 213.22 763.48 213.22 763.45 213.26 763.42 213.32 763.42 213.37 763.41 213.41 763.41 213.44 763.41 213.47 763.4 213.49 763.39 213.5 763.37 213.5 763.35 213.5 763.32 213.49 763.3 213.49 763.28 213.5 763.26 213.51 763.24 213.53 763.23 213.57 763.22 213.61 763.22 213.64 763.19 213.68 763.12 213.75 762.92 213.93 762.82 214.04 762.77 214.11 762.71 214.21 762.68 214.25 762.71 214.28 762.71 214.32 762.69 214.38 762.68 214.42 762.67 214.44 762.67 214.48 762.68 214.57 762.71 214.65 762.76 214.73 762.69 214.73 762.66 214.73 762.64 214.74 762.61 214.76 762.58 214.78 761.72 215.02 761.71 215.04 761.33 215.18 760.95 215.32 760.57 215.45 760.12 215.87 759.9 216.12 759.64 216.23 759.56 216.31 759.5 216.39 759.53 216.42 759.57 216.48 759.61 216.56 759.65 216.68 759.72 216.91 759.81 217.12 759.82 217.18 759.83 217.29 759.84 217.37 759.85 217.42 759.86 217.46 759.85 217.51 759.83 217.55 759.83 217.59 759.83 217.62 759.84 217.65 759.85 217.68 759.84 217.7 759.82 217.72 759.81 217.77 759.79 217.81 759.79 217.85 759.79 217.96 759.8 218.15 759.84 218.37 759.88 218.51 759.92 218.64 760.07 218.86 760.15 218.98 760.2 219.07 760.23 219.17 760.24 219.25 760.23 219.32 760.21 219.4 760.2 219.47 760.21 219.57 760.23 219.63 760.23 219.68 760.23 219.72 760.23 219.77 760.24 219.8 760.25 219.82 760.27 219.84 760.33 219.88 760.57 220.02 760.66 220.08 760.74 220.14 760.81 220.23 760.87 220.33 760.88 220.38 760.88 220.42 760.84 220.62 760.79 220.77 760.77 220.84 760.76 220.88 760.78 220.97 760.8 221.08 760.87 221.26 760.95 221.48 761.01 221.61 761.06 221.77 761.14 221.91 761.2 221.99 761.26 222.06 761.31 222.14 761.35 222.19 761.39 222.22 761.42 222.25 761.43 222.29 761.46 222.36 761.46 222.4 761.45 222.43 761.42 222.47 761.4 222.49 761.37 222.52 761.35 222.55 761.33 222.59 761.32 222.63 761.31 222.67 761.3 222.72 761.29 222.76 761.29 222.81 761.28 222.85 761.27 222.9 761.27 222.94 761.25 222.98 761.25 223.02 761.25 223.07 761.26 223.11 761.27 223.14 761.28 223.17 761.3 223.21 761.35 223.27 761.4 223.31 761.45 223.37 761.51 223.44 761.57 223.52 761.62 223.58 761.68 223.65 761.71 223.69 761.86 223.82 761.94 223.85 762 223.86 762.13 223.87 762.27 223.88 762.35 223.9 762.39 223.91 762.42 223.91 762.45 223.91 762.48 223.92 762.5 223.93 762.53 223.95 762.55 223.97 762.58 224 762.61 224.03 762.63 224.04 762.81 224.14 763.32 224.35 763.59 224.42 763.67 224.58 763.75 225.03 763.84 225.35 763.78 225.37 763.69 225.4 763.64 225.42 763.59 225.44 763.49 225.48 763.37 225.53 763.35 225.54 763.29 225.56 763.28 225.56 763.25 225.58 763.23 225.58 763.21 225.59 763.13 225.62 763.07 225.65 763 225.67 762.95 225.69 762.83 225.74 762.74 225.78 762.71 225.79 762.59 225.83 762.55 225.85 762.48 225.87 762.41 225.9 762.36 225.92 762.24 225.96 762.1 226.01 762.04 226.04 761.96 226.07 761.84 226.11 761.82 226.12 761.8 226.13 761.74 226.15 761.72 226.16 761.57 226.22 761.5 226.24 761.37 226.3 761.26 226.34 761.18 226.37 761.14 226.38 761.1 226.4 761.07 226.42 761 226.47 760.94 226.51 760.86 226.57 760.83 226.6 760.78 226.64 760.7 226.7 760.68 226.71 760.62 226.76 760.59 226.78 760.47 226.88 760.43 226.91 760.32 226.99 760.28 227.03 760.23 227.07 760.17 227.07 760.11 227.08 760.01 227.09 759.97 227.1 759.75 227.12 759.58 227.14 759.47 227.16 759.45 227.19 759.42 227.22 759.35 227.3 759.33 227.33 759.28 227.39 759.25 227.42 759.16 227.53 759.08 227.64 759.07 227.64 759.01 227.71 758.99 227.73 758.93 227.8 758.9 227.84 758.88 227.86 758.79 227.96 758.68 228.09 758.65 228.12 758.61 228.17 758.57 228.21 758.46 228.33 758.44 228.35 758.36 228.45 758.34 228.47 758.31 228.5 758.26 228.56 758.21 228.61 758.19 228.64 758.12 228.72 758.11 228.73 758.08 228.76 758.05 228.8 758.03 228.82 758.02 228.83 757.98 228.88 757.96 228.91 757.95 228.92 757.92 228.94 757.9 228.96 757.89 228.98 757.88 228.99 757.86 229.01 757.85 229.02 757.84 229.03 757.83 229.04 757.82 229.05 757.81 229.06 757.8 229.07 757.79 229.08 757.78 229.09 757.77 229.09 757.76 229.11 757.74 229.13 757.7 229.18 757.67 229.21 757.64 229.24 757.61 229.27 757.58 229.31 757.55 229.33 757.5 229.39 757.45 229.43 757.45 229.44 757.44 229.45 757.37 229.52 757.32 229.57 757.31 229.59 757.29 229.61 757.26 229.63 757.26 229.64 757.23 229.67 757.22 229.68 757.2 229.69 757.18 229.72 757.16 229.74 757.12 229.78 757.11 229.79 757.07 229.84 757 229.9 756.99 229.92 756.96 229.94 756.92 229.98 756.9 230 756.89 230.02 756.87 230.04 756.77 230.14 756.76 230.16 756.7 230.21 756.67 230.25 756.64 230.27 756.63 230.29 756.6 230.32 756.59 230.33 756.58 230.35 756.56 230.36 756.53 230.39 756.52 230.41 756.5 230.42 756.49 230.43 756.43 230.44 756.33 230.44 756.28 230.45 756.25 230.45 756.12 230.45 756.09 230.45 756.07 230.46 755.98 230.46 755.91 230.47 755.8 230.48 755.68 230.49 755.5 230.51 755.32 230.53 755.17 230.54 755.06 230.55 755.04 230.55 754.93 230.56 754.75 230.58 754.55 230.59 754.39 230.6 754.32 230.61 754.11 230.62 753.85 230.64 753.84 230.64 753.65 230.64 753.61 230.64 753.41 230.64 753.35 230.64 753.33 230.64 753.31 230.64 753.25 230.63 753.24 230.63 753.16 230.63 753.12 230.63 753.09 230.63 753.07 230.63 753.01 230.61 752.95 230.59 752.87 230.57 752.81 230.55 752.79 230.54 752.77 230.54 752.73 230.52 752.72 230.52 752.67 230.5 752.64 230.48 752.52 230.44 752.44 230.41 752.37 230.38 752.28 230.34 752.21 230.32 752.17 230.3 752.03 230.24 751.96 230.21 751.89 230.18 751.83 230.15 751.74 230.12 751.69 230.1 751.66 230.1 751.63 230.09 751.56 230.1 751.51 230.09 751.51 230.09 751.47 230.09 751.43 230.09 751.41 230.09 751.35 230.08 751.34 230.08 751.33 230.08 751.26 230.08 751.22 230.08 751.21 230.08 751.18 230.08 751.15 230.09 751.13 230.09 751.09 230.09 751.03 230.09 750.92 230.09 750.88 230.1 750.85 230.1 750.83 230.1 750.77 230.11 750.71 230.12 750.67 230.13 750.66 230.13 750.64 230.13 750.61 230.14 750.6 230.15 750.55 230.15 750.51 230.16 750.49 230.16 750.44 230.17 750.4 230.18 750.36 230.19 750.35 230.19 750.34 230.18 750.33 230.17 750.29 230.14 750.25 230.11 750.22 230.07 750.17 230.01 750.14 229.98 750.09 229.96 750.01 229.95 749.98 229.94 749.94 229.93 749.88 229.91 749.83 229.9 749.79 229.89 749.78 229.89 749.73 229.89 749.7 229.89 749.68 229.89 749.61 229.89 749.55 229.88 749.49 229.88 749.46 229.88 749.45 229.87 749.41 229.86 749.37 229.85 749.32 229.83 749.3 229.82 749.28 229.81 749.19 229.77 749.17 229.77 749.17 229.76 749.16 229.76 749.15 229.74 749.12 229.7 749.11 229.69 749.08 229.64 749.04 229.58 749.01 229.54 749 229.52 748.93 229.44 748.91 229.4 748.86 229.35 748.83 229.4 748.82 229.41 748.81 229.43 748.79 229.47 748.77 229.49 748.75 229.52 748.75 229.53 748.69 229.6 748.63 229.67 748.62 229.68 748.59 229.7 748.58 229.72 748.57 229.72 748.56 229.73 748.53 229.76 748.51 229.79 748.49 229.82 748.46 229.86 748.41 229.91 748.38 229.95 748.33 230.01 748.32 230.02 748.3 230.05 748.27 230.08 748.24 230.12 748.22 230.15 748.16 230.15 748 230.18 747.98 230.18 747.97 230.18 747.91 230.18 747.84 230.18 747.72 230.18 747.62 230.18 747.59 230.19 747.55 230.19 747.51 230.2 747.39 230.24 747.31 230.26 747.26 230.27 747.14 230.3 747.03 230.33 747.01 230.33 746.95 230.34 746.87 230.35 746.84 230.35 746.73 230.36 746.68 230.36 746.61 230.37 746.56 230.43 746.54 230.46 746.5 230.5 746.49 230.52 746.45 230.56 746.4 230.63 746.35 230.64 746.28 230.66 746.22 230.65 746.12 230.64 746.03 230.62 746.01 230.62 745.92 230.61 745.84 230.58 745.74 230.55 745.62 230.51 745.41 230.45 745.37 230.45 745.23 230.45 745.1 230.45 745.1 230.45 745.02 230.45 745.01 230.45 744.93 230.45 744.83 230.45 744.77 230.46 744.75 230.46 744.7 230.46 744.69 230.46 744.64 230.47 744.57 230.48 744.5 230.5 744.41 230.51 744.31 230.53 744.3 230.53 744.15 230.56 743.98 230.59 743.89 230.6 743.75 230.62 743.55 230.64 743.14 230.68 743.11 230.68 743.1 230.69 743.03 230.7 742.9 230.72 742.85 230.73 742.73 230.75 742.63 230.77 742.53 230.79 742.43 230.8 742.36 230.8 742.24 230.81 742.21 230.81 741.57 230.87 741.35 230.89 741.27 230.9 741.25 230.9 740.78 230.94 740.7 230.89 740.56 230.82 740.33 230.71 740.3 230.69 740.18 230.63 740.13 230.61 739.98 230.53 739.85 230.47 739.77 230.43 739.73 230.41 739.46 230.28 738.68 229.89 738.66 229.88 738.63 229.87 737.82 229.46 737.01 229.73 735.43 229.37 735.34 229.35 735.28 229.33 734.82 229.28 734.63 229.25 734.43 229.23 734.39 229.22 734.13 229.19 733.44 229.1 733.29 229.15 733.26 229.16 732.99 229.25 732.83 229.3 732.75 229.33 732.48 229.42 732.39 229.41 732.23 229.39 732.09 229.28 732.03 229.23 732.19 229.13 732.98 228.56 733.76 227.99 734.55 227.41 735.34 226.84 736.12 226.27 736.68 225.87 737.24 225.46 737.79 225.06 737.44 224.36 737.07 223.64 736.7 222.91 736.24 222.1 735.8 221.29 735.46 220.66 735.06 219.91 734.66 219.1 734.2 218.28 733.87 217.7 733.55 217.12 733.23 216.53 732.91 215.95 732.69 215.49 732.57 215.06 732.51 214.76 732.49 214.72 732.49 214.69 732.5 214.64 732.5 214.57 732.51 214.49 732.52 214.42 732.55 214.32 732.57 214.23 732.59 214.16 732.59 214.14 732.61 214.1 732.62 214.07 732.63 213.99 732.64 213.93 732.59 213.35 732.58 213.32 732.56 213.28 732.54 213.23 732.52 213.16 732.51 213.09 732.5 213.03 732.5 212.99 732.51 212.95 732.51 212.91 732.57 212.73 732.53 212.15 732.55 211.47 732.54 211.4 732.52 211.24 732.53 211.19 732.54 211.14 732.56 211.06 732.56 211.03 732.55 211.01 732.53 210.96 732.53 210.92 732.53 210.9 732.52 210.8 732.5 210.66 732.51 210.57 732.5 210.49 732.5 210.45 732.49 210.38 732.49 210.33 732.5 210.28 732.49 210.23 732.48 210.19 732.48 209.54 732.34 209.28 732.19 209.08 731.71 208.4 731.23 207.69 730.82 206.94 730.3 206.18 729.76 205.36 729.76 205.28 729.76 205.21 729.77 205.14 729.78 205.06 729.8 204.99 729.81 204.92 729.83 204.84 729.85 204.77 729.86 204.72 729.89 204.65 729.92 204.58 729.94 204.53 729.96 204.48 729.99 204.41 730.02 204.31 730.05 204.23 730.07 204.16 730.1 204.09 730.13 204.04 730.16 203.99 730.19 203.94 730.23 203.89 730.26 203.85 730.29 203.8 730.3 203.76 730.3 203.69 730.3 203.63 730.29 203.5 730.3 203.41 730.31 203.35 730.31 203.34 730.32 203.27 730.32 203.21 730.33 203.15 730.34 203.09 730.37 203.05 730.41 202.99 730.45 202.94 730.51 202.89 730.55 202.83 730.57 202.79 730.6 202.73 730.64 202.66 730.67 202.59 730.7 202.52 730.74 202.45 730.76 202.38 730.79 202.32 730.82 202.28 730.87 202.26 730.92 202.24 730.97 202.21 731 202.17 731.02 202.12 731.03 202.08 731.02 202.03 731.01 201.94 731.01 201.9 731.02 201.87 731.01 201.86 730.99 201.83 730.98 201.81 730.97 201.77 730.98 201.73 730.99 201.69 731 201.65 731.01 201.6 731.01 201.55 730.99 201.49 730.97 201.45 730.93 201.41 730.88 201.4 730.84 201.38 730.81 201.34 730.8 201.3 730.8 201.27 730.79 201.22 730.78 201.18 730.76 201.15 730.73 201.11 730.71 201.08 730.72 201.04 730.73 201.01 730.73 200.98 730.72 200.96 730.69 200.95 730.66 200.91 730.63 200.85 730.61 200.82 730.6 200.77 730.59 200.71 730.59 200.71 Z"/>
</g></svg>