<svg xmlns="http://www.w3.org/2000/svg" version="1.2" baseProfile="tiny" stroke-linecap="round" stroke-linejoin="round" viewBox="138.12 69.75 14.38 15.02"><g xmlns="http://www.w3.org/2000/svg" id="Urduliz">
<path d="M 139.41 70.45 140.8 70.5 141.05 69.92 141.66 69.89 142.06 69.97 142.18 70.06 142.31 70.21 142.67 70.29 142.94 70.44 143.05 70.48 143.24 70.5 143.47 70.54 144.34 69.75 144.33 69.91 144.34 70.1 144.35 70.16 144.36 70.21 144.38 70.26 144.41 70.3 144.49 70.39 144.52 70.44 144.64 70.58 144.66 70.62 144.69 70.69 144.68 70.74 144.66 70.8 144.62 70.91 144.59 70.96 144.52 71.03 144.51 71.07 144.53 71.11 144.5 71.23 144.48 71.24 144.5 71.27 144.52 71.31 144.75 71.44 144.79 71.46 144.82 71.54 144.83 71.6 144.92 71.66 145.11 71.84 145.14 71.91 145.14 71.97 145.15 72.02 145.16 72.07 145.19 72.13 145.21 72.18 145.22 72.22 145.28 72.23 145.33 72.25 145.43 72.3 145.49 72.32 145.59 72.34 145.64 72.35 145.69 72.37 145.73 72.4 145.84 72.52 145.88 72.51 145.93 72.49 145.98 72.5 146.03 72.53 146.06 72.56 146.09 72.61 146.3 72.82 146.39 73.02 146.38 73.1 146.37 73.19 146.34 73.24 146.31 73.29 146.25 73.39 146.23 73.41 146.17 73.5 146.13 73.56 146.01 73.89 145.98 74.2 145.99 74.26 146.1 74.44 146.11 74.55 146.17 74.65 146.28 74.88 146.34 74.96 146.51 75 146.76 75.06 146.92 74.84 147.11 74.84 147.13 74.84 147.4 74.87 147.67 74.55 147.77 74.44 148.79 73.8 148.62 73.51 148.78 73.25 149.46 73.9 149.96 74.36 149.87 74.45 149.78 74.58 149.96 74.83 149.97 74.84 150.15 75.01 150.26 75.12 150.42 75.21 150.63 75.27 150.66 75.28 150.68 75.28 150.78 75.29 150.83 75.28 150.89 75.27 150.96 75.21 151.04 75.24 151.05 75.24 151.35 75.41 151.44 75.45 151.53 75.49 151.61 75.5 151.66 75.51 151.72 75.52 151.9 75.52 152.32 75.72 152.3 75.76 152.28 75.87 152.24 76.02 152.24 76.04 152.25 76.09 152.34 76.25 152.42 76.37 152.47 76.45 152.48 76.49 152.49 76.52 152.49 76.55 152.49 76.58 152.48 76.62 152.48 76.64 152.47 76.67 152.45 76.7 152.4 76.83 152.35 76.97 152.32 77.03 152.27 77.11 152.22 77.17 152.21 77.23 152.24 77.31 152.11 77.51 151.77 77.37 151.49 77.78 150.99 77.66 150.66 78.02 150.2 78.36 150.09 78.23 149.94 78.36 149.81 78.63 149.71 78.67 149.56 78.92 149.43 78.96 149.41 79.06 149.45 79.22 149.24 79.38 149.13 79.48 149.94 80.04 148.94 80.37 148.25 80.45 147.95 80.61 147.85 80.65 147.74 80.66 147.62 80.66 147.54 80.68 147.42 80.68 147.25 80.71 147.13 80.74 147.09 80.77 147.07 80.81 147.06 80.83 147.06 80.99 146.96 81.2 146.91 81.36 146.87 81.44 146.86 81.53 146.73 82.18 147.13 82.47 147.67 82.85 147.13 83.91 146.7 84.76 146.43 84.52 146.08 84.37 145.92 84.31 145.66 84.16 145.46 84.05 145.18 83.86 144.93 83.78 144.57 83.52 144.05 83.22 143.79 82.91 143.32 82.57 143 82.36 142.81 82.14 142.39 81.96 142.15 81.59 142.06 81.53 141.8 81.37 141.42 80.87 141.24 80.27 140.73 79.59 141.3 79.02 141.8 78.54 143.14 77.36 143.79 76.38 143.36 76.05 142.84 75.74 142.32 75.43 141.75 75.09 141.45 74.98 141.25 74.94 141.14 74.84 140.8 74.58 140.33 74.29 139.93 74.08 139.09 73.72 138.26 73.41 138.12 73.35 138.2 73.06 138.83 71.51 138.87 71.48 138.91 71.42 138.93 71.39 138.99 71.35 139.18 71.37 139.24 71.34 139.29 71.29 139.34 71.15 139.29 70.94 139.34 70.72 139.41 70.45 Z"/>
</g></svg>