<svg xmlns="http://www.w3.org/2000/svg" version="1.2" baseProfile="tiny" stroke-linecap="round" stroke-linejoin="round" viewBox="570.93 179.5 25.6 23.55"><g xmlns="http://www.w3.org/2000/svg" id="Urepele">
<path d="M 588.46 179.98 588.51 180.03 588.55 180.06 588.57 180.08 588.6 180.17 588.61 180.19 588.62 180.22 588.67 180.29 588.77 180.43 588.8 180.51 588.83 180.59 588.84 180.63 588.85 180.67 588.85 180.72 588.86 180.75 588.86 180.77 588.88 180.81 588.92 180.85 588.94 180.88 588.96 180.94 588.98 181.03 589 181.09 589.03 181.17 589.06 181.24 589.08 181.27 589.08 181.28 589.11 181.31 589.16 181.36 589.21 181.42 589.26 181.5 589.31 181.59 589.35 181.69 589.39 181.78 589.42 181.86 589.43 181.93 589.44 182 589.45 182.06 589.46 182.14 589.47 182.22 589.47 182.28 589.47 182.35 589.46 182.42 589.45 182.51 589.45 182.6 589.44 182.68 589.44 182.75 589.44 182.82 589.44 182.87 589.44 182.9 589.46 182.97 589.49 183.05 589.52 183.12 589.56 183.21 589.61 183.3 589.65 183.37 589.7 183.44 589.64 184.07 589.63 184.11 589.64 184.14 589.64 184.17 589.66 184.21 589.68 184.25 589.69 184.29 589.69 184.33 589.69 184.34 589.7 184.39 589.7 184.44 589.7 184.46 589.72 184.49 590.04 185.04 590.21 185.2 590.21 185.23 590.21 185.28 590.19 185.47 590.18 185.57 590.16 185.62 590.15 185.64 590.16 185.66 590.16 185.7 590.16 185.73 590.15 185.79 590.15 185.83 590.14 185.86 590.13 185.89 590.12 185.92 590.1 185.96 590.07 186 590.06 186.03 590.02 186.07 590 186.1 589.99 186.13 589.98 186.16 589.97 186.19 589.97 186.21 589.98 186.23 590 186.24 590.02 186.24 590.06 186.24 590.17 186.21 590.24 186.2 590.41 186.11 590.61 186.16 590.74 186.31 590.82 186.43 590.87 186.46 590.98 186.3 591.05 186.35 591.06 186.36 591.09 186.37 591.11 186.38 591.12 186.39 591.13 186.4 591.15 186.42 591.16 186.42 591.19 186.44 591.23 186.45 591.24 186.47 591.25 186.49 591.25 186.52 591.26 186.55 591.26 186.58 591.27 186.61 591.27 186.62 591.28 186.65 591.3 186.66 591.32 186.69 591.41 186.8 591.45 186.86 591.45 186.88 591.45 186.9 591.46 186.92 591.47 186.95 591.48 186.98 591.5 186.99 591.51 187.01 591.54 187.02 591.57 187.05 591.66 187.08 591.7 187.1 591.72 187.1 591.74 187.11 591.76 187.13 591.77 187.14 591.83 187.2 591.9 187.28 591.93 187.33 592.09 187.86 592.22 188.16 592.32 188.27 592.42 188.34 592.48 188.41 592.51 188.45 592.53 188.48 592.56 188.51 592.57 188.53 592.59 188.55 592.61 188.59 592.84 188.63 593.22 189.02 593.26 189.15 594.11 189.75 594.23 189.92 594.26 189.97 594.33 190.11 594.43 190.33 594.46 190.4 594.49 190.45 594.48 190.49 594.48 190.52 594.48 190.54 594.49 190.57 594.51 190.68 594.5 190.73 594.5 190.75 594.5 190.77 594.5 190.8 594.49 190.86 594.26 191.47 594.19 191.58 594.26 192.54 594.32 193.46 594.52 194.1 594.62 194.79 594.73 195.48 594.76 195.52 594.77 195.54 594.78 195.55 594.8 195.59 594.81 195.6 594.82 195.61 594.83 195.63 594.84 195.64 594.84 195.65 594.84 195.67 594.84 195.74 594.83 195.77 594.83 195.78 594.83 195.8 594.84 195.83 594.85 195.85 594.86 195.87 594.87 195.89 594.89 195.97 594.91 196.01 594.94 196.05 594.92 196.08 594.92 196.1 594.92 196.12 594.93 196.18 594.95 196.3 594.97 196.41 594.98 196.43 594.99 196.45 595 196.47 595.01 196.49 595.02 196.5 595.02 196.52 595.03 196.59 595.04 196.71 595.04 196.72 595.05 196.83 595.05 196.92 595.05 196.96 595.04 196.98 595.04 197 595.04 197.02 595.05 197.04 595.07 197.08 595.04 197.15 595.06 197.21 595.1 197.29 595.11 197.34 595.11 197.36 595.11 197.38 595.11 197.4 595.11 197.41 595.1 197.52 595.08 197.62 595.06 197.66 595.05 197.69 595.01 197.74 594.94 197.81 594.86 197.9 594.82 197.95 594.81 197.96 594.8 197.99 594.8 198.01 594.79 198.03 594.78 198.08 594.78 198.16 594.79 198.19 594.79 198.21 594.8 198.23 594.81 198.25 594.82 198.27 594.84 198.29 594.87 198.32 594.89 198.34 594.93 198.37 595.09 198.46 595.14 198.48 595.2 198.53 595.26 198.58 595.33 198.66 595.38 198.73 595.41 198.77 595.42 198.79 595.42 198.8 595.42 198.82 595.41 198.83 595.41 198.85 595.4 198.86 595.4 198.88 595.41 198.9 595.41 198.93 595.42 198.96 595.46 199.13 595.49 199.23 595.54 199.36 595.57 199.42 595.61 199.48 595.66 199.53 595.67 199.53 595.67 200.01 595.81 200.35 596.02 200.59 596.41 200.91 596.53 201.12 596.52 201.45 596.33 202.13 596.14 202.19 596.04 202.46 596.06 202.62 596.16 202.8 596.2 202.82 596.28 202.88 596.37 202.94 596.45 203.01 596.49 203.04 596.45 203.03 596.36 203.01 596.14 202.95 596 202.92 595.87 202.88 595.73 202.84 595.52 202.79 595.31 202.73 595.13 202.69 595 202.65 594.84 202.61 594.71 202.57 594.54 202.53 594.38 202.48 594.24 202.45 594.09 202.41 593.95 202.37 593.82 202.34 593.68 202.3 593.57 202.28 593.41 202.26 593.23 202.22 593.07 202.2 592.93 202.18 592.81 202.16 592.65 202.13 592.51 202.11 592.39 202.09 592.3 202.09 592.21 202.08 592.12 202.06 591.99 202.03 591.84 202.01 591.68 201.98 591.62 201.97 591.53 201.96 591.35 201.93 591.25 201.91 591.06 201.89 590.92 201.83 590.79 201.78 590.54 201.68 590.35 201.6 590.14 201.52 590 201.46 589.83 201.39 589.63 201.3 589.42 201.22 589.36 201.2 589.28 201.18 589.09 201.13 589.04 201.11 589.02 201.11 588.98 201.1 588.82 201.05 588.65 201 588.48 200.95 588.33 200.91 588.19 200.87 588.1 200.84 587.94 200.8 587.78 200.75 587.61 200.7 587.44 200.65 587.24 200.6 587.1 200.55 586.94 200.51 586.85 200.48 586.66 200.42 586.53 200.39 586.36 200.35 586.18 200.32 585.97 200.27 585.87 200.25 585.76 200.22 585.56 200.16 585.34 200.09 585.13 200.03 584.93 199.97 584.73 199.91 584.54 199.86 584.4 199.82 584.27 199.79 584.09 199.74 583.93 199.71 583.65 199.64 583.43 199.59 583.22 199.54 583.02 199.49 582.83 199.45 582.66 199.4 582.46 199.36 582.36 199.33 582.24 199.3 582.09 199.26 581.89 199.19 581.7 199.13 581.56 199.1 581.35 199.04 581.04 198.97 580.81 198.91 580.6 198.86 580.43 198.81 580.19 198.74 579.96 198.67 579.74 198.6 579.57 198.55 579.48 198.52 579.28 198.46 579.03 198.38 578.72 198.28 578.47 198.21 578.31 198.15 578.22 198.14 578.08 198.12 577.91 198.09 577.73 198.06 577.55 198.03 577.37 198 577.2 197.97 577.16 197.97 577.01 197.94 576.91 197.92 576.9 197.92 576.88 197.92 576.82 197.9 576.73 197.87 576.67 197.85 576.59 197.83 576.48 197.8 576.42 197.78 576.31 197.75 576.21 197.72 576.08 197.68 575.93 197.64 575.71 197.58 575.49 197.51 575.26 197.44 575.1 197.2 575 197.06 574.91 196.92 574.89 196.89 574.79 196.75 574.69 196.6 574.52 196.34 574.44 196.23 574.28 195.99 574.19 195.86 574.13 195.77 574.05 195.65 573.99 195.56 573.92 195.46 573.85 195.35 573.52 194.86 573.51 194.85 573.47 194.81 573.46 194.8 573.44 194.78 573.42 194.76 573.4 194.73 573.37 194.69 573.33 194.65 573.32 194.64 573.29 194.61 573.26 194.58 573.25 194.57 573.18 194.49 573.08 194.39 572.99 194.29 572.93 194.23 572.92 194.22 572.91 194.2 572.89 194.17 572.86 194.13 572.86 194.12 572.85 194.11 572.81 194.05 572.8 194.02 572.73 193.91 572.66 193.8 572.65 193.79 572.58 193.67 572.51 193.57 572.45 193.47 572.38 193.35 572.32 193.26 572.27 193.18 572.24 193.13 572.21 193.07 572.19 193.05 572.19 193.04 572.1 192.9 572.01 192.75 572 192.74 572 192.73 571.97 192.7 571.92 192.62 571.84 192.49 571.74 192.34 571.66 192.22 571.62 192.15 571.61 192.14 571.61 192.13 571.55 192.06 571.54 192.03 571.5 191.99 571.49 191.97 571.4 191.85 571.31 191.71 571.22 191.59 571.19 191.55 571.16 191.51 571.08 191.39 571.06 191.37 571.05 191.36 571 191.28 570.95 191.2 570.94 191.18 571.12 191.11 571.32 191.08 571.37 191.08 571.4 191.07 571.42 191.06 571.44 191.05 571.46 191.05 571.47 191.07 571.49 191.08 571.51 191.08 571.52 191.08 571.54 191.06 571.55 191.04 571.56 191.02 572.47 190.7 572.99 190.64 573.03 190.61 573.08 190.57 573.14 190.52 573.51 190.39 573.55 190.38 573.59 190.37 573.77 190.3 573.87 190.26 573.9 190.25 573.92 190.25 573.94 190.25 573.97 190.26 574 190.28 574.01 190.29 574.07 190.26 574.21 190.2 574.72 190.07 575.37 189.89 575.95 189.68 576.53 189.47 576.55 189.47 576.56 189.45 576.56 189.43 576.56 189.33 576.56 189.28 576.57 189.24 576.59 189.18 576.62 189.11 576.66 189.05 576.69 189.02 576.72 189 576.77 188.99 576.82 188.99 576.86 188.99 576.89 188.98 576.91 188.97 576.95 188.92 576.97 188.86 576.99 188.81 577 188.73 577.01 188.69 577.02 188.63 577.04 188.58 577.07 188.51 577.09 188.45 577.12 188.4 577.15 188.37 577.18 188.34 577.21 188.32 577.27 188.3 577.32 188.29 577.38 188.28 577.42 188.26 577.45 188.25 577.5 188.23 577.56 188.21 577.58 188.2 577.62 188.17 577.67 188.13 577.7 188.1 577.73 188.07 577.76 188.01 577.78 187.99 577.81 187.95 577.84 187.92 577.86 187.89 577.88 187.87 577.9 187.82 577.92 187.74 577.95 187.66 577.97 187.62 577.98 187.6 578 187.57 578.02 187.55 578.05 187.52 578.1 187.48 578.13 187.45 578.16 187.42 578.19 187.38 578.23 187.35 578.26 187.31 578.29 187.27 578.32 187.22 578.34 187.17 578.34 187.15 578.34 187.13 578.35 187.07 578.35 186.97 578.35 186.86 578.34 186.69 578.34 186.66 578.34 186.63 578.33 186.62 578.32 186.6 578.21 186.51 578.2 186.5 578.06 185.74 578.97 185.73 579.88 185.71 580.17 185.62 580.12 185.53 580.07 185.45 580.04 185.41 580.08 185.33 580.07 185.32 580.04 185.3 579.98 185.24 579.89 185.14 579.87 185.11 579.86 185.09 579.89 185.06 579.9 185.04 579.91 185.02 579.93 184.98 579.95 184.93 580 184.86 580.04 184.83 580.12 184.8 580.17 184.77 580.21 184.75 580.21 184.71 580.21 184.63 580.21 184.46 580.21 184.33 580.21 184.28 580.25 184.27 580.27 184.26 580.29 184.25 580.29 184.23 580.3 184.21 580.31 184.2 580.33 184.18 580.36 184.16 580.4 184.14 580.45 184.12 580.51 184.1 580.58 184.08 580.59 184.08 580.62 184.02 580.64 184.03 580.66 184.03 580.67 184.03 580.67 184.03 580.68 184.02 580.68 184.01 580.69 183.99 580.71 183.99 580.72 183.99 580.73 183.98 580.74 183.97 580.78 183.95 580.79 183.94 580.8 183.93 580.81 183.92 580.82 183.93 580.83 183.94 580.84 183.94 580.84 183.94 580.85 183.93 580.86 183.92 580.87 183.93 580.88 183.93 580.89 183.93 580.9 183.92 580.9 183.92 580.92 183.93 580.93 183.94 580.94 183.95 580.95 183.95 580.96 183.95 580.98 183.94 580.99 183.95 581 183.95 581.01 183.96 581.02 183.96 581.02 183.97 581.02 183.98 581.03 183.99 581.05 184 581.06 184.01 581.08 184.02 581.1 184.02 581.12 184.03 581.14 184.04 581.16 184.04 581.19 184.04 581.21 184.04 581.24 184.03 581.25 184.02 581.26 184.02 581.29 184.01 581.3 184 581.32 183.99 581.33 183.97 581.34 183.96 581.36 183.96 581.38 183.97 581.39 183.97 581.41 183.97 581.41 183.96 581.42 183.96 581.44 183.97 581.44 183.97 581.45 183.96 581.45 183.95 581.45 183.93 581.46 183.92 581.48 183.92 581.49 183.92 581.5 183.91 581.52 183.91 581.53 183.91 581.55 183.91 581.58 183.91 581.6 183.9 581.64 183.9 581.67 183.89 581.7 183.89 581.75 183.88 581.78 183.88 581.8 183.88 581.82 183.88 581.84 183.89 581.85 183.92 581.87 183.93 581.89 183.93 581.9 183.93 581.93 183.93 581.95 183.93 581.98 183.94 582.01 183.94 582.04 183.95 582.08 183.96 582.14 183.96 582.17 183.97 582.18 183.97 582.19 183.98 582.21 183.99 582.22 183.99 582.25 183.98 582.27 183.98 582.29 183.98 582.31 183.99 582.32 183.99 582.33 184 582.35 184.01 582.36 184.02 582.38 184.03 582.42 184.04 582.45 184.04 582.49 184.03 582.55 184.02 582.66 184 582.72 183.98 582.79 183.97 582.87 183.97 582.92 183.98 582.94 183.97 582.97 183.95 583.02 183.93 583.08 183.9 583.1 183.89 583.12 183.87 583.14 183.86 583.19 183.85 583.23 183.83 583.25 183.79 583.28 183.75 583.33 183.69 583.39 183.65 583.48 183.59 583.55 183.54 583.63 183.51 583.7 183.47 583.74 183.42 583.78 183.37 583.83 183.35 583.91 183.34 583.96 183.32 584.03 183.26 584.05 183.21 584.1 183.16 584.14 183.12 584.23 183.08 584.27 183.07 584.33 183.06 584.36 183.05 584.43 183 584.5 182.96 584.58 182.94 584.62 182.89 584.65 182.85 584.68 182.81 584.69 182.78 584.72 182.76 584.79 182.71 584.82 182.69 584.85 182.68 584.87 182.64 584.89 182.59 584.89 182.54 584.88 182.48 584.86 182.45 584.86 182.42 584.86 182.38 584.88 182.35 584.91 182.33 584.93 182.31 584.95 182.28 584.97 182.24 584.98 182.21 584.98 182.18 585 182.14 585.02 182.11 585.04 182.08 585.08 182.06 585.13 182.04 585.17 182.02 585.21 182 585.25 181.98 585.28 181.96 585.32 181.95 585.35 181.94 585.38 181.93 585.42 181.93 585.46 181.91 585.51 181.88 585.55 181.86 585.59 181.84 585.62 181.82 585.65 181.81 585.69 181.78 585.72 181.76 585.76 181.73 585.79 181.7 585.83 181.69 585.86 181.68 585.9 181.68 585.93 181.68 585.97 181.67 586 181.65 586.02 181.63 586.05 181.6 586.08 181.58 586.1 181.56 586.13 181.54 586.15 181.52 586.16 181.51 586.19 181.48 586.2 181.45 586.21 181.42 586.22 181.38 586.22 181.34 586.22 181.31 586.22 181.26 586.2 181.21 586.19 181.18 586.18 181.15 586.17 181.12 586.15 181.08 586.13 181.04 586.12 181.01 586.11 180.98 586.09 180.94 586.07 180.88 586.06 180.84 585.97 180.71 585.94 180.65 585.92 180.6 585.9 180.55 585.89 180.49 585.72 180.41 585.53 180.27 585.37 180.13 585.4 180.12 585.44 180.09 585.48 180.08 585.51 180.05 585.56 180 585.6 179.97 585.69 179.9 585.71 179.88 585.79 179.79 585.8 179.78 585.85 179.74 585.89 179.71 585.93 179.66 585.95 179.63 586.01 179.59 586.05 179.56 586.09 179.54 586.13 179.53 586.2 179.53 586.25 179.54 586.32 179.55 586.36 179.56 586.42 179.59 586.49 179.65 586.56 179.72 586.61 179.76 586.64 179.81 586.66 179.88 586.69 179.96 586.7 180.01 586.71 180.04 586.74 180.05 586.76 180.05 586.78 180.05 586.8 180.03 586.81 180 586.85 179.99 586.91 179.97 586.98 179.94 587.06 179.9 587.09 179.88 587.18 179.86 587.22 179.85 587.27 179.81 587.29 179.8 587.32 179.79 587.36 179.78 587.48 179.74 587.61 179.7 587.67 179.68 587.7 179.68 587.75 179.69 587.8 179.71 587.84 179.73 587.89 179.76 587.95 179.81 588.03 179.86 588.07 179.87 588.08 179.89 588.15 179.93 588.18 179.95 588.23 179.99 588.26 180 588.29 180.01 588.33 180.01 588.34 180.01 588.35 180.01 588.41 180 588.46 179.98 Z"/>
</g></svg>