<svg xmlns="http://www.w3.org/2000/svg" version="1.2" baseProfile="tiny" stroke-linecap="round" stroke-linejoin="round" viewBox="136.62 211.67 30.05 37.78"><g xmlns="http://www.w3.org/2000/svg" id="Urkabustaiz">
<path d="M 141.93 220.39 142.15 220.27 142.5 220.08 142.85 219.92 143.13 219.81 143.47 219.53 145.53 218.04 145.73 217.83 145.93 217.58 145.9 217.3 145.78 216.93 145.89 216.58 145.94 216.3 146.06 215.87 146.41 215.48 146.61 215.26 147.02 214.89 147.59 214.33 148.05 213.96 148.36 213.87 148.73 213.84 149.05 213.71 149.3 213.46 149.57 213.21 149.91 213.11 150.22 213.21 150.5 213.4 150.76 213.44 151.03 213.53 151.33 213.49 151.55 213.34 151.99 213.42 152.35 213.3 152.63 213.13 152.85 212.94 153.09 212.56 153.31 212.12 153.45 211.68 153.48 211.81 153.57 211.86 154.01 211.71 154.26 212.1 154.61 212.64 154.89 213.17 155.27 213.59 155.57 213.86 155.92 214.13 156.3 214.52 156.73 214.86 156.75 215.23 156.69 215.5 156.9 215.88 157.12 216.31 157.19 216.81 157.45 217.36 157.84 217.64 158.13 218.04 158.51 218.48 158.8 218.8 159.43 219.59 159.51 219.83 159.82 220.09 160.22 220.54 160.52 220.8 160.78 221.03 161.08 221.3 161.41 221.55 161.62 221.88 161.92 222.3 162.23 222.89 162.41 223.21 162.59 223.54 162.67 223.9 162.75 224.34 162.86 224.72 163.06 225.11 163.25 225.44 163.4 225.75 163.46 226.18 163.35 226.56 163.15 226.89 163.03 227.2 162.93 227.5 162.91 227.88 162.94 228.25 162.91 228.57 162.83 228.92 162.77 229.26 162.72 229.63 162.8 229.99 162.94 230.24 163.24 230.47 163.67 230.67 164.02 230.89 164.44 231.16 164.68 231.4 164.93 231.53 164.94 231.92 164.95 232.31 164.93 232.96 164.97 233.38 164.96 233.78 164.91 234.16 164.9 234.71 164.91 235.18 164.84 235.53 164.73 236.03 164.64 236.43 164.57 236.81 164.44 237.32 164.42 237.74 164.47 238.19 164.48 238.63 164.58 239.05 164.64 239.54 164.66 240.09 164.66 240.45 164.68 240.89 164.62 241.14 164.51 241.47 164.33 241.7 164.11 241.87 164.06 242.16 164.03 242.57 164.14 242.94 164.43 243.08 164.71 243.1 164.95 243.19 165.16 243.43 165.34 243.7 165.58 244 165.85 244.24 166.02 244.61 166.07 244.96 166.01 245.32 166.02 245.69 166.16 246.02 166.36 246.34 166.61 246.72 166.53 247.03 166.53 247.42 166.6 247.86 166.66 248.29 166.22 248.25 165.65 248.27 165.16 248.29 164.66 248.35 164.22 248.44 163.74 248.59 163.22 248.67 162.82 248.83 162.42 248.99 162.01 249.13 161.62 249.21 161.04 249.34 160.55 249.42 160.19 249.35 159.71 249.11 159.29 248.9 158.78 248.6 158.52 248.38 158.35 248.25 158.12 248.11 157.98 247.92 157.81 247.59 157.64 247.23 157.43 246.75 157.24 246.47 157.07 246.24 156.85 246.04 156.48 245.92 155.95 245.77 155.32 245.64 154.75 245.48 154.15 245.32 153.67 245.2 153.22 244.89 152.88 244.72 152.45 244.59 151.9 244.51 151.33 244.36 150.9 244.18 150.49 243.98 150.25 243.86 150.09 243.96 150.06 244.18 149.99 244.49 149.87 244.9 149.79 245.31 149.66 245.69 149.52 245.99 149.28 246.22 148.88 246.49 148.47 246.82 148.15 247.13 147.82 247.45 147.47 247.6 147.1 247.58 146.73 247.54 146.22 247.47 145.67 247.52 145.08 247.51 144.43 247.47 143.81 247.31 143.26 247.08 142.64 246.85 142.1 246.64 141.62 246.34 140.46 245.72 139.36 245.23 139.12 245.1 138.91 245.01 138.16 244.64 137.27 244.11 136.65 243.73 136.79 243.24 136.85 242.97 137.05 242.66 137.3 242.37 137.36 241.89 137.33 241.48 137.46 241.29 137.5 240.94 137.43 240.67 137.52 240.43 137.77 240.05 137.4 239.27 137.36 238.94 137.43 238.54 137.57 238.1 137.77 237.51 137.92 237.03 138.03 236.58 138.13 236.18 138.19 235.87 138.32 235.48 138.13 235.21 138.01 234.95 138.1 234.57 138.2 234.2 138.28 233.84 138.36 233.45 138.41 233.09 138.41 232.74 138.35 232.52 138.36 232.29 138.49 232.12 138.83 232.26 139.12 232.36 139.46 232.39 139.86 232.28 140.1 232.17 140.34 232.11 140.6 231.81 140.79 231.37 140.93 231.01 140.89 230.63 140.78 230.28 140.66 230.02 140.58 229.62 140.66 229.17 140.77 228.81 140.92 228.45 141.07 228 141.19 227.41 141.27 226.94 141.38 226.59 141.6 226.21 141.91 225.83 142.05 225.48 142.16 224.92 142.12 224.56 142.04 224.21 142 223.92 142.09 223.5 142.23 223.03 142.31 222.66 142.29 222.38 142.06 222.23 141.42 221.85 141.34 221.8 141.5 221.41 141.93 220.39 Z"/>
</g></svg>