<svg xmlns="http://www.w3.org/2000/svg" version="1.2" baseProfile="tiny" stroke-linecap="round" stroke-linejoin="round" viewBox="588.85 19.17 18.5 15.72"><g xmlns="http://www.w3.org/2000/svg" id="Urketa">
<path d="M 591.93 22.5 592.63 22.41 593.51 22.2 594.15 21.96 594.22 21.87 594.29 21.67 594.43 21.51 594.84 21.11 594.96 21 595.35 20.76 595.72 20.53 596.04 20.45 596.24 20.45 596.85 20.55 597.09 20.56 597.37 20.52 597.67 20.45 598.32 20.2 598.98 19.94 599.8 19.65 600.29 19.51 600.55 19.45 601.19 19.32 601.83 19.19 601.87 19.19 601.95 19.2 602.37 19.27 603.18 19.33 604 19.38 604.82 19.44 605.45 19.45 606.08 19.46 606.11 19.64 606.11 19.69 606.1 19.75 606.09 19.77 606.12 20.09 606.13 20.16 606.14 20.18 606.15 20.28 606.18 20.38 606.23 20.5 606.3 20.6 606.31 20.62 606.37 20.84 606.38 20.87 606.4 20.86 606.42 20.85 606.44 20.85 606.45 20.84 606.5 21.2 606.5 21.25 606.48 21.25 605.83 21.49 605.6 21.62 605.56 21.64 605.43 21.74 605.32 21.83 605.26 21.82 605.23 21.82 605.26 21.87 605.31 21.93 605.36 21.98 605.37 21.99 605.39 22 605.44 22.05 605.49 22.09 605.57 22.13 605.63 22.14 605.69 22.13 605.74 22.11 605.79 22.12 605.84 22.14 605.87 22.17 605.88 22.18 605.9 22.22 605.9 22.3 605.9 22.32 605.88 22.38 605.89 22.41 605.9 22.45 605.93 22.49 605.96 22.52 605.98 22.55 605.99 22.58 606.01 22.63 606.01 22.68 606.01 22.72 606.02 22.77 606.04 22.8 606.13 22.89 606.14 22.9 606.17 22.94 606.2 23 606.25 23.06 606.26 23.08 606.32 23.14 606.39 23.19 606.42 23.21 606.46 23.23 606.51 23.23 606.56 23.23 606.59 23.24 606.61 23.25 606.61 23.27 606.62 23.31 606.61 23.36 606.62 23.4 606.64 23.46 606.67 23.51 606.67 23.53 606.66 23.59 606.64 23.66 606.63 23.7 606.64 23.74 606.68 23.78 606.7 23.79 606.75 23.79 606.85 23.79 606.95 23.79 606.98 23.79 607.04 23.81 607.07 23.82 607.1 23.85 607.12 23.88 607.16 23.99 607.19 24.08 607.22 24.15 607.24 24.19 607.28 24.23 607.32 24.3 607.34 24.33 607.35 24.36 607.35 24.39 607.35 24.41 607.32 24.44 607.21 24.56 607.14 24.64 607.12 24.67 607.11 24.7 607.09 24.79 607.08 24.8 607.05 24.83 607 24.85 606.97 24.86 606.93 24.86 606.88 24.85 606.79 24.84 606.7 24.83 606.61 24.82 606.59 24.82 606.56 24.82 606.54 24.82 606.52 24.83 606.5 24.85 606.49 24.87 606.49 24.9 606.5 24.92 606.52 24.93 606.54 24.93 606.57 24.94 606.6 24.95 606.64 24.97 606.66 24.98 606.67 25 606.68 25.03 606.69 25.08 606.7 25.11 606.7 25.16 606.69 25.19 606.68 25.22 606.66 25.25 606.64 25.26 606.62 25.25 606.59 25.24 606.55 25.24 606.5 25.23 606.46 25.21 606.44 25.19 606.42 25.18 606.4 25.16 606.38 25.16 606.35 25.16 606.33 25.17 606.31 25.18 606.29 25.2 606.29 25.22 606.29 25.25 606.29 25.27 606.31 25.3 606.36 25.36 606.39 25.38 606.39 25.4 606.39 25.42 606.37 25.43 606.36 25.42 606.34 25.41 606.32 25.41 606.29 25.4 606.28 25.4 606.25 25.41 606.22 25.42 606.2 25.44 606.19 25.46 606.19 25.48 606.2 25.51 606.22 25.57 606.23 25.6 606.23 25.63 606.22 25.64 606.21 25.66 606.19 25.66 606.16 25.67 606.14 25.66 606.1 25.66 606.08 25.65 606.06 25.65 606.04 25.66 606.03 25.67 606.02 25.69 605.99 25.74 605.96 25.83 605.95 25.85 605.93 25.86 605.9 25.87 605.86 25.9 605.82 25.92 605.81 25.93 605.8 25.95 605.81 25.97 605.83 25.99 605.84 26 605.86 26.02 605.89 26.03 605.93 26.04 605.96 26.05 605.99 26.04 606.01 26.04 606.04 26.03 606.07 26.03 606.1 26.03 606.11 26.03 606.11 26.04 606.12 26.05 606.13 26.09 606.13 26.11 606.12 26.13 606.09 26.16 606.06 26.21 606.06 26.22 606.05 26.24 606.05 26.26 606.06 26.29 606.06 26.3 606.08 26.34 606.1 26.37 606.11 26.4 606.11 26.42 606.1 26.44 606.1 26.46 606.08 26.48 606.06 26.49 606.04 26.5 606.01 26.5 605.96 26.5 605.93 26.51 605.92 26.52 605.91 26.53 605.9 26.54 605.9 26.56 605.9 26.58 605.91 26.6 605.92 26.62 605.93 26.63 605.95 26.64 606 26.67 606.04 26.69 606.05 26.72 606.06 26.75 606.06 26.79 606.05 26.87 606.04 26.91 606.02 26.93 605.99 26.95 605.96 26.96 605.95 26.97 605.9 26.98 605.84 27 605.8 27.02 605.74 27.08 605.71 27.1 605.68 27.11 605.66 27.11 605.64 27.1 605.62 27.09 605.62 27.09 605.6 27.08 605.59 27.06 605.58 27.04 605.57 27.02 605.56 27.01 605.55 27 605.55 26.99 605.53 26.98 605.51 26.98 605.5 26.98 605.47 26.98 605.44 26.98 605.39 26.99 605.35 27 605.3 27.01 605.26 27.02 605.22 27.02 605.21 27.02 605.19 27.02 605.16 27.02 605.12 27.03 605.1 27.03 605.08 27.04 605.06 27.05 605.04 27.05 605.03 27.05 604.99 27.05 604.97 27.04 604.95 27.04 604.94 27.03 604.91 27.03 604.89 27.03 604.87 27.04 604.83 27.05 604.81 27.05 604.8 27.06 604.77 27.07 604.76 27.07 604.73 27.07 604.71 27.07 604.68 27.06 604.66 27.05 604.64 27.04 604.61 27.03 604.6 27.03 604.58 27.04 604.56 27.05 604.55 27.07 604.53 27.09 604.49 27.18 604.44 27.25 604.42 27.27 604.39 27.29 604.37 27.29 604.36 27.29 604.35 27.29 604.32 27.27 604.29 27.26 604.26 27.24 604.23 27.22 604.21 27.21 604.18 27.2 604.16 27.2 604.14 27.21 604.13 27.22 604.13 27.25 604.13 27.28 604.14 27.31 604.14 27.31 604.16 27.35 604.17 27.38 604.17 27.42 604.17 27.44 604.15 27.47 604.11 27.5 604.07 27.52 604.03 27.54 603.99 27.56 603.95 27.57 603.91 27.58 603.88 27.59 603.84 27.59 603.8 27.59 603.76 27.59 603.71 27.59 603.68 27.59 603.66 27.58 603.63 27.58 603.6 27.57 603.57 27.56 603.54 27.55 603.52 27.54 603.48 27.53 603.45 27.53 603.43 27.53 603.41 27.53 603.38 27.54 603.36 27.6 603.34 27.64 603.32 27.69 603.33 27.71 603.33 27.73 603.33 27.74 603.35 27.77 603.35 27.77 603.39 27.78 603.41 27.79 603.44 27.8 603.46 27.81 603.46 27.84 603.45 27.88 603.44 27.91 603.43 27.94 603.43 27.96 603.42 27.98 603.4 28 603.37 28.01 603.3 28.03 603.26 28.03 603.23 28.03 603.2 28.03 603.16 28.04 603.14 28.06 603.12 28.08 603.11 28.1 603.11 28.13 603.12 28.16 603.13 28.19 603.14 28.22 603.15 28.24 603.15 28.27 603.15 28.28 603.15 28.29 603.13 28.31 603.1 28.32 603.07 28.33 603.05 28.33 603.03 28.33 603 28.32 602.97 28.3 602.94 28.29 602.92 28.28 602.88 28.29 602.85 28.3 602.83 28.31 602.81 28.33 602.8 28.36 602.81 28.38 602.82 28.42 602.82 28.44 602.83 28.48 602.82 28.51 602.8 28.54 602.77 28.58 602.74 28.61 602.72 28.63 602.7 28.66 602.69 28.69 602.67 28.71 602.65 28.72 602.62 28.73 602.59 28.73 602.57 28.73 602.56 28.71 602.55 28.69 602.53 28.68 602.51 28.68 602.5 28.7 602.49 28.73 602.49 28.76 602.48 28.77 602.48 28.79 602.45 28.81 602.42 28.83 602.37 28.85 602.32 28.87 602.27 28.89 602.24 28.92 602.22 28.95 602.22 28.98 602.23 29.01 602.24 29.04 602.25 29.08 602.25 29.11 602.25 29.12 602.24 29.15 602.19 29.16 602.17 29.15 602.15 29.15 602.13 29.16 602.11 29.18 602.1 29.19 602.1 29.19 602.08 29.22 602.07 29.26 602.06 29.3 602.06 29.35 602.04 29.39 602.02 29.42 601.99 29.44 601.97 29.47 601.96 29.51 601.95 29.55 601.96 29.6 601.96 29.64 601.97 29.67 601.98 29.71 601.99 29.75 601.98 29.78 601.96 29.81 601.93 29.83 601.9 29.84 601.88 29.87 601.85 29.9 601.82 29.91 601.78 29.9 601.75 29.89 601.71 29.88 601.68 29.86 601.65 29.85 601.62 29.85 601.58 29.87 601.54 29.88 601.52 29.88 601.48 29.88 601.44 29.87 601.41 29.84 601.38 29.82 601.36 29.8 601.33 29.79 601.29 29.78 601.26 29.77 601.22 29.77 601.2 29.78 601.16 29.8 601.14 29.81 601.11 29.84 601.09 29.85 601.05 29.87 601.02 29.86 601 29.85 600.97 29.83 600.95 29.8 600.93 29.77 600.92 29.75 600.9 29.72 600.88 29.71 600.86 29.71 600.83 29.72 600.81 29.74 600.81 29.77 600.81 29.8 600.81 29.84 600.8 29.87 600.79 29.89 600.77 29.9 600.74 29.9 600.72 29.89 600.7 29.88 600.66 29.85 600.62 29.81 600.59 29.78 600.57 29.77 600.56 29.76 600.54 29.73 600.52 29.71 600.51 29.69 600.49 29.69 600.47 29.68 600.45 29.68 600.42 29.69 600.41 29.7 600.39 29.72 600.36 29.74 600.33 29.76 600.3 29.78 600.28 29.8 600.26 29.82 600.25 29.84 600.24 29.87 600.25 29.9 600.27 29.93 600.28 29.97 600.29 29.99 600.31 30.02 600.31 30.05 600.3 30.07 600.28 30.1 600.26 30.1 600.24 30.11 600.22 30.12 600.2 30.12 600.17 30.13 600.15 30.14 600.13 30.16 600.14 30.19 600.15 30.21 600.18 30.23 600.21 30.24 600.24 30.25 600.27 30.25 600.3 30.26 600.32 30.27 600.33 30.29 600.33 30.31 600.32 30.33 600.29 30.33 600.26 30.32 600.23 30.31 600.2 30.31 600.17 30.31 600.14 30.33 600.12 30.34 600.1 30.36 600.08 30.4 600.08 30.43 600.07 30.46 600.06 30.49 600.06 30.52 600.06 30.56 600.05 30.59 600.05 30.61 600.03 30.63 600 30.65 599.99 30.65 599.96 30.64 599.94 30.64 599.9 30.63 599.87 30.62 599.84 30.61 599.82 30.6 599.8 30.58 599.77 30.56 599.75 30.55 599.72 30.55 599.69 30.57 599.67 30.58 599.67 30.59 599.66 30.63 599.66 30.7 599.65 30.74 599.63 30.78 599.6 30.81 599.58 30.83 599.54 30.85 599.51 30.86 599.48 30.88 599.44 30.9 599.43 30.92 599.42 30.94 599.39 30.98 599.38 31.02 599.36 31.06 599.36 31.1 599.36 31.14 599.36 31.17 599.35 31.2 599.33 31.22 599.3 31.23 599.26 31.26 599.23 31.27 599.22 31.27 599.2 31.29 599.17 31.3 599.15 31.3 599.13 31.29 599.12 31.29 599.09 31.28 599.06 31.27 599.03 31.26 599.01 31.24 598.99 31.22 598.97 31.18 598.96 31.15 598.95 31.13 598.93 31.1 598.91 31.09 598.88 31.09 598.85 31.09 598.82 31.1 598.79 31.11 598.76 31.12 598.73 31.14 598.7 31.16 598.69 31.19 598.69 31.23 598.7 31.26 598.7 31.3 598.7 31.34 598.69 31.37 598.68 31.39 598.66 31.41 598.65 31.41 598.63 31.41 598.62 31.4 598.61 31.38 598.6 31.37 598.6 31.36 598.59 31.34 598.59 31.31 598.58 31.28 598.56 31.26 598.55 31.24 598.53 31.22 598.51 31.21 598.49 31.2 598.46 31.18 598.44 31.17 598.42 31.16 598.39 31.14 598.36 31.12 598.34 31.11 598.31 31.09 598.3 31.09 598.27 31.09 598.24 31.1 598.22 31.12 598.21 31.14 598.21 31.17 598.22 31.22 598.24 31.28 598.24 31.33 598.24 31.34 598.23 31.37 598.22 31.37 598.2 31.37 598.19 31.36 598.15 31.34 598.12 31.31 598.09 31.29 598.05 31.27 598.02 31.27 597.99 31.27 597.97 31.27 597.95 31.3 597.92 31.35 597.9 31.38 597.89 31.4 597.88 31.43 597.86 31.5 597.85 31.56 597.83 31.61 597.83 31.63 597.84 31.65 597.85 31.68 597.87 31.69 597.91 31.74 597.92 31.76 597.94 31.78 597.94 31.79 597.92 31.8 597.89 31.82 597.85 31.83 597.78 31.87 597.73 31.9 597.68 31.92 597.65 31.92 597.62 31.92 597.58 31.91 597.54 31.88 597.5 31.86 597.47 31.82 597.44 31.79 597.42 31.78 597.39 31.78 597.37 31.79 597.35 31.81 597.33 31.83 597.32 31.86 597.3 31.89 597.27 31.95 597.24 31.99 597.21 32.02 597.19 32.05 597.16 32.07 597.13 32.07 597.11 32.06 597.09 32.03 597.08 32 597.06 31.96 597.06 31.93 597.05 31.89 597.05 31.87 597.04 31.86 597.03 31.85 597.01 31.87 596.98 31.89 596.95 31.93 596.92 31.95 596.9 31.95 596.84 31.96 596.79 31.97 596.75 31.99 596.72 32.01 596.68 32.06 596.66 32.07 596.62 32.09 596.6 32.11 596.54 32.15 596.46 32.2 596.41 32.22 596.37 32.25 596.3 32.29 596.26 32.3 596.23 32.31 596.18 32.31 596.15 32.3 596.11 32.29 596.07 32.27 596.05 32.26 596.01 32.25 595.98 32.24 595.95 32.25 595.91 32.26 595.9 32.28 595.9 32.31 595.91 32.33 595.93 32.35 595.94 32.35 595.97 32.36 596.02 32.39 596.05 32.4 596.08 32.42 596.11 32.44 596.13 32.46 596.13 32.48 596.14 32.5 596.13 32.54 596.13 32.56 596.1 32.58 596.01 32.65 595.98 32.68 595.97 32.69 595.95 32.72 595.95 32.75 595.95 32.78 595.96 32.8 595.97 32.82 595.99 32.83 596.01 32.84 596.04 32.84 596.07 32.84 596.09 32.83 596.12 32.82 596.14 32.8 596.17 32.77 596.19 32.75 596.21 32.71 596.23 32.69 596.24 32.68 596.29 32.65 596.34 32.62 596.37 32.6 596.41 32.59 596.45 32.59 596.52 32.61 596.58 32.63 596.63 32.65 596.66 32.67 596.71 32.71 596.74 32.75 596.76 32.78 596.79 32.83 596.8 32.85 596.81 32.89 596.81 32.91 596.81 32.99 596.81 33.03 596.81 33.07 596.8 33.08 596.8 33.09 596.79 33.1 596.79 33.11 596.79 33.12 596.79 33.13 596.78 33.14 596.78 33.15 596.78 33.17 596.78 33.19 596.77 33.2 596.77 33.21 596.77 33.23 596.77 33.24 596.77 33.26 596.78 33.27 596.78 33.28 596.78 33.29 596.78 33.3 596.78 33.32 596.78 33.33 596.78 33.34 596.78 33.35 596.78 33.36 596.78 33.37 596.78 33.38 596.78 33.39 596.78 33.4 596.78 33.41 596.77 33.42 596.77 33.43 596.76 33.43 596.75 33.44 596.74 33.44 596.73 33.44 596.72 33.44 596.71 33.43 596.7 33.43 596.69 33.43 596.68 33.43 596.67 33.42 596.66 33.42 596.65 33.42 596.63 33.41 596.62 33.41 596.61 33.4 596.6 33.4 596.59 33.4 596.58 33.4 596.57 33.4 596.56 33.4 596.55 33.4 596.54 33.4 596.53 33.4 596.53 33.41 596.51 33.42 596.5 33.42 596.5 33.43 596.49 33.43 596.48 33.44 596.48 33.45 596.47 33.46 596.47 33.47 596.47 33.48 596.46 33.49 596.46 33.5 596.46 33.51 596.46 33.53 596.46 33.55 596.46 33.56 596.46 33.57 596.46 33.58 596.46 33.59 596.46 33.61 596.46 33.62 596.46 33.63 596.46 33.65 596.46 33.66 596.46 33.67 596.46 33.68 596.45 33.69 596.45 33.7 596.45 33.72 596.44 33.73 596.44 33.74 596.43 33.75 596.43 33.76 596.42 33.77 596.42 33.79 596.41 33.8 596.4 33.81 596.4 33.82 596.38 33.83 596.38 33.84 596.37 33.85 596.36 33.86 596.35 33.86 596.34 33.87 596.33 33.88 596.32 33.89 596.31 33.89 596.3 33.9 596.29 33.91 596.28 33.92 596.27 33.93 596.26 33.94 596.25 33.95 596.25 33.96 596.24 33.97 596.23 33.98 596.22 33.99 596.22 34 596.21 34.01 596.2 34.02 596.2 34.03 596.19 34.05 596.18 34.06 596.17 34.08 596.17 34.09 596.16 34.1 596.15 34.11 596.15 34.12 596.14 34.13 596.13 34.14 596.13 34.15 596.12 34.16 596.11 34.17 596.11 34.17 596.09 34.18 596.09 34.19 596.08 34.19 596.07 34.19 596.06 34.19 596.05 34.19 596.04 34.19 596.03 34.19 596.02 34.19 596.01 34.19 595.99 34.19 595.98 34.19 595.97 34.19 595.96 34.19 595.95 34.19 595.94 34.19 595.93 34.19 595.92 34.19 595.91 34.19 595.9 34.19 595.88 34.19 595.87 34.19 595.86 34.2 595.85 34.2 595.83 34.2 595.82 34.2 595.8 34.21 595.79 34.21 595.78 34.21 595.77 34.22 595.76 34.22 595.75 34.22 595.74 34.22 595.73 34.22 595.72 34.22 595.71 34.21 595.7 34.21 595.69 34.2 595.68 34.19 595.68 34.18 595.67 34.17 595.67 34.16 595.66 34.15 595.66 34.14 595.65 34.12 595.65 34.11 595.64 34.1 595.63 34.09 595.62 34.08 595.61 34.06 595.6 34.05 595.59 34.04 595.59 34.04 595.58 34.03 595.57 34.03 595.56 34.02 595.55 34.02 595.53 34.02 595.52 34.02 595.51 34.02 595.49 34.02 595.48 34.02 595.46 34.03 595.45 34.03 595.44 34.03 595.42 34.03 595.41 34.04 595.4 34.04 595.38 34.04 595.37 34.05 595.36 34.05 595.34 34.05 595.33 34.05 595.31 34.05 595.29 34.05 595.28 34.05 595.26 34.04 595.25 34.04 595.24 34.03 595.22 34.03 595.21 34.02 595.2 34.02 595.18 34.02 595.17 34.02 595.16 34.02 595.14 34.03 595.12 34.03 595.11 34.04 595.1 34.05 595.08 34.05 595.07 34.06 595.06 34.07 595.04 34.07 595.03 34.08 595.02 34.08 595 34.09 594.99 34.09 594.96 34.09 594.95 34.09 594.93 34.09 594.92 34.09 594.9 34.09 594.89 34.08 594.88 34.08 594.87 34.07 594.85 34.06 594.84 34.06 594.82 34.06 594.81 34.05 594.79 34.05 594.77 34.05 594.76 34.06 594.74 34.06 594.73 34.06 594.72 34.07 594.7 34.07 594.69 34.08 594.68 34.08 594.67 34.09 594.65 34.1 594.64 34.11 594.63 34.12 594.62 34.13 594.61 34.14 594.6 34.15 594.59 34.16 594.58 34.18 594.57 34.19 594.56 34.2 594.55 34.21 594.54 34.22 594.54 34.24 594.53 34.25 594.52 34.27 594.51 34.28 594.5 34.29 594.48 34.31 594.48 34.32 594.47 34.33 594.46 34.35 594.45 34.36 594.44 34.37 594.43 34.39 594.42 34.4 594.41 34.4 594.4 34.41 594.4 34.42 594.39 34.43 594.38 34.43 594.37 34.44 594.36 34.45 594.35 34.46 594.34 34.48 594.28 34.51 594.24 34.53 594.21 34.54 594.16 34.56 594.14 34.62 594.12 34.68 594.11 34.77 594.11 34.81 594.1 34.83 594.08 34.85 594.04 34.87 593.87 34.88 593.84 34.88 593.81 34.86 593.71 34.8 593.65 34.77 593.6 34.74 593.56 34.72 593.51 34.72 593.45 34.72 593.38 34.71 593.34 34.71 593.31 34.7 593.15 34.64 593.1 34.62 593.04 34.59 593.01 34.56 592.96 34.55 592.89 34.55 592.82 34.54 592.76 34.53 592.74 34.52 592.71 34.51 592.7 34.51 592.69 34.5 592.7 34.48 592.69 34.45 592.66 34.42 592.62 34.39 592.59 34.35 592.57 34.32 592.55 34.3 592.54 34.28 592.5 34.24 592.48 34.19 592.45 34.16 592.43 34.15 592.36 34.11 592.32 34.1 592.28 34.09 592.25 34.08 592.24 34.07 592.22 34.05 592.21 34.01 592.18 33.93 592.16 33.88 592.14 33.85 592.13 33.83 592.08 33.8 592.01 33.76 591.98 33.75 591.94 33.76 591.91 33.76 591.85 33.76 591.8 33.75 591.78 33.75 591.73 33.73 591.67 33.7 591.65 33.69 591.57 33.66 591.54 33.64 591.5 33.64 591.44 33.64 591.42 33.64 591.38 33.64 591.33 33.64 591.32 33.65 591.31 33.65 591.3 33.65 591.29 33.65 591.29 33.66 591.28 33.66 591.27 33.67 591.27 33.68 591.26 33.69 591.25 33.7 591.24 33.71 591.23 33.72 591.23 33.73 591.22 33.74 591.21 33.74 591.21 33.75 591.2 33.76 591.2 33.78 591.2 33.78 591.19 33.79 591.19 33.8 591.19 33.81 591.19 33.82 591.18 33.84 591.17 33.85 591.14 33.7 591.13 33.67 591.08 33.67 591.07 33.42 591.05 33.41 591.02 33.41 590.98 33.41 590.96 33.4 590.94 33.39 590.92 33.37 590.92 33.35 590.91 33.33 590.89 33.32 590.86 33.3 590.83 33.29 590.81 33.27 590.8 33.26 590.79 33.26 590.76 33.25 590.73 33.25 590.71 33.23 590.69 33.22 590.67 33.19 590.65 33.17 590.64 33.15 590.62 33.14 590.6 33.14 590.58 33.15 590.55 33.15 590.53 33.14 590.52 33.13 590.5 33.1 590.49 33.08 590.47 33.06 590.45 33.04 590.44 33.02 590.42 33.01 590.4 33 590.38 33 590.36 33 590.34 32.99 590.31 32.98 590.29 32.97 590.27 32.95 590.24 32.93 590.23 32.91 590.22 32.88 590.21 32.87 590.21 32.83 590.2 32.8 590.19 32.77 590.18 32.75 590.18 32.73 590.16 32.69 590.16 32.67 590.15 32.65 590.14 32.62 590.13 32.61 590.18 32.57 590.17 32.55 590.14 32.53 590.1 32.5 590.06 32.48 590.05 32.47 589.97 32.53 589.96 32.52 589.94 32.51 589.91 32.43 589.86 32.33 589.79 32.16 589.78 32.11 589.78 32.08 589.78 32.05 589.78 32.04 589.81 31.95 589.86 31.83 589.86 31.79 589.86 31.76 589.85 31.72 589.84 31.67 589.83 31.64 589.83 31.61 589.81 31.55 589.79 31.53 589.76 31.51 589.72 31.48 589.71 31.46 589.71 31.46 589.7 31.42 589.69 31.35 589.68 31.31 589.68 31.27 589.68 31.23 589.68 31.2 589.68 31.18 589.69 31.14 589.69 31.12 589.69 31.11 589.69 31.1 589.69 31.07 589.68 31.06 589.68 31.03 589.67 31 589.66 30.99 589.65 30.97 589.64 30.96 589.61 30.94 589.6 30.93 589.56 30.92 589.53 30.89 589.51 30.87 589.45 30.85 589.42 30.84 589.4 30.8 589.59 30.72 589.78 30.61 590.13 30.32 590.2 30.27 590.27 30.21 590.28 30.21 590.31 30.19 590.3 30.19 590.26 30.16 590.19 30.11 590.12 30.06 590.08 30.02 590.04 29.99 590.01 29.96 590 29.95 589.96 29.92 589.92 29.89 589.87 29.85 589.84 29.81 589.79 29.78 589.74 29.75 589.69 29.71 589.65 29.68 589.6 29.65 589.55 29.61 589.53 29.6 589.52 29.59 589.48 29.56 589.44 29.53 589.4 29.48 589.36 29.45 589.33 29.43 589.3 29.41 589.29 29.4 589.25 29.36 589.2 29.32 589.16 29.29 589.12 29.24 589.07 29.19 589.03 29.15 588.99 29.11 588.96 29.07 588.93 29.03 588.9 28.99 588.88 28.97 588.87 28.8 588.89 28.58 588.9 28.58 588.95 28.55 589 28.52 589.02 28.52 589.06 28.5 589.12 28.47 589.16 28.45 589.22 28.43 589.25 28.42 589.29 28.41 589.34 28.4 589.39 28.4 589.42 28.39 589.46 28.39 589.48 28.38 589.49 28.37 589.52 28.36 589.55 28.34 589.57 28.31 589.59 28.28 589.6 28.26 589.61 28.25 589.63 28.2 589.66 28.15 589.68 28.11 589.69 28.09 589.7 28.08 589.72 28.06 589.74 28.04 589.78 28.04 589.81 28.03 589.85 28.04 589.9 28.04 589.94 28.04 589.97 28.03 590 28.02 590.03 28 590.04 27.99 590.05 27.98 590.06 27.95 590.07 27.91 590.08 27.83 590.09 27.82 590.1 27.8 590.12 27.78 590.13 27.76 590.16 27.75 590.17 27.75 590.2 27.74 590.22 27.74 590.26 27.75 590.28 27.76 590.31 27.77 590.35 27.79 590.38 27.81 590.42 27.83 590.46 27.84 590.5 27.85 590.63 27.86 590.68 27.86 590.69 27.86 590.71 27.86 590.86 27.87 590.92 27.88 590.95 27.88 591.01 27.89 591.06 27.89 591.09 27.89 591.12 27.88 591.15 27.86 591.17 27.85 591.19 27.83 591.21 27.81 591.22 27.78 591.23 27.76 591.24 27.73 591.25 27.68 591.25 27.56 591.25 27.52 591.26 27.51 591.26 27.49 591.28 27.46 591.3 27.44 591.32 27.42 591.35 27.39 591.38 27.38 591.41 27.36 591.45 27.34 591.47 27.3 591.47 27.27 591.47 27.22 591.47 27.18 591.47 27.12 591.47 27.11 591.48 27.07 591.48 27.05 591.49 27.02 591.57 26.79 591.55 26.78 591.53 26.75 591.51 26.71 591.46 26.6 591.43 26.53 591.41 26.49 591.39 26.46 591.37 26.42 591.34 26.38 591.3 26.33 591.25 26.26 591.21 26.22 591.18 26.19 591.17 26.18 591.15 26.16 591.13 26.13 591.12 26.12 591.07 26.16 591.05 26.15 590.97 26.12 590.86 26.07 590.74 26.04 590.65 26.02 590.58 25.99 590.41 25.9 590.44 25.84 590.45 25.8 590.43 25.76 590.36 25.75 590.3 25.69 590.29 25.61 590.28 25.53 590.2 25.06 590.16 25.05 590.13 25.05 590.09 25.04 590.06 24.84 590.05 24.73 590.04 24.69 590.02 24.65 590 24.6 589.98 24.56 589.92 24.46 589.84 24.36 589.79 24.28 589.78 24.19 589.78 24.17 589.77 24.13 589.77 24.1 589.74 24.09 589.73 24.08 589.72 24.07 589.72 24.05 589.71 24.04 589.71 23.99 589.71 23.96 589.7 23.88 589.69 23.84 589.68 23.77 589.75 23.66 589.85 23.68 589.87 23.69 589.89 23.7 589.9 23.7 589.98 23.69 590.02 23.68 590.14 23.66 590.15 23.66 590.18 23.65 591.21 23.5 591.51 23.45 591.54 23.45 591.84 23.41 591.88 23.35 592.07 23.06 592.07 23.05 591.93 22.5 Z"/>
</g></svg>