<svg xmlns="http://www.w3.org/2000/svg" version="1.2" baseProfile="tiny" stroke-linecap="round" stroke-linejoin="round" viewBox="411.57 116.15 24.07 27.87"><g xmlns="http://www.w3.org/2000/svg" id="Urnieta">
<path d="M 414.34 116.17 414.94 116.18 415.48 116.18 415.62 116.21 416.02 116.39 417.14 116.45 417.35 116.64 417.71 116.92 418.25 117.17 418.28 117.17 418.32 117.19 418.35 117.21 418.4 117.22 418.42 117.23 418.43 117.23 418.45 117.24 418.47 117.25 418.51 117.26 418.54 117.27 418.55 117.28 418.58 117.29 418.6 117.3 418.64 117.31 418.65 117.32 418.66 117.32 418.67 117.33 418.7 117.34 418.71 117.34 418.72 117.35 418.73 117.36 418.75 117.37 418.75 117.37 418.77 117.38 418.78 117.39 418.79 117.39 418.8 117.39 418.83 117.39 418.86 117.39 418.88 117.38 418.89 117.37 418.9 117.36 418.92 117.36 418.94 117.34 418.95 117.34 419 117.31 419.02 117.31 419.03 117.3 419.04 117.29 419.05 117.28 419.07 117.28 419.1 117.27 419.11 117.26 419.11 117.26 419.12 117.25 419.13 117.23 419.14 117.22 419.14 117.21 419.15 117.19 419.16 117.18 419.17 117.18 419.18 117.17 419.18 117.16 419.19 117.15 419.2 117.14 419.21 117.13 419.22 117.12 419.23 117.12 419.24 117.11 419.25 117.11 419.26 117.11 419.26 117.11 419.29 117.1 419.32 117.1 419.33 117.1 419.35 117.09 419.37 117.08 419.4 117.07 419.41 117.06 419.46 117.04 419.52 117.02 419.54 117.01 419.6 116.99 419.61 116.99 419.64 116.98 419.65 116.98 419.67 116.99 419.67 116.98 419.68 116.98 419.68 116.96 419.71 116.95 419.73 116.95 419.75 116.94 419.76 116.94 419.8 116.92 419.83 116.91 419.84 116.9 419.85 116.89 419.87 116.88 419.87 116.88 419.88 116.88 419.89 116.89 419.92 116.9 419.93 116.91 419.94 116.9 419.95 116.9 419.96 116.89 419.98 116.89 420 116.88 420.02 116.88 420.03 116.88 420.04 116.88 420.05 116.89 420.06 116.9 420.08 116.91 420.09 116.91 420.1 116.93 420.11 116.94 420.12 116.95 420.13 116.97 420.14 116.98 420.16 117 420.2 117.02 420.25 117.05 420.27 117.05 420.29 117.05 420.3 117.05 420.32 117.04 420.33 117.04 420.34 117.05 420.35 117.05 420.37 117.05 420.4 117.05 420.42 117.05 420.43 117.05 420.44 117.04 420.45 117.03 420.46 117.02 420.48 117 420.49 116.99 420.5 116.98 420.52 116.97 420.53 116.97 420.54 116.97 420.58 116.98 420.59 116.98 420.6 116.99 420.6 117 420.61 117.01 420.61 117.02 420.63 117.03 420.64 117.04 420.66 117.05 420.68 117.05 420.68 117.07 420.73 117.2 420.73 117.21 420.73 117.22 420.72 117.24 420.72 117.25 420.71 117.26 420.7 117.28 420.69 117.29 420.67 117.32 420.66 117.33 420.65 117.35 420.64 117.36 420.63 117.38 420.62 117.39 420.61 117.41 420.61 117.42 420.6 117.44 420.61 117.45 420.61 117.46 420.61 117.47 420.61 117.48 420.61 117.49 420.6 117.51 420.6 117.52 420.59 117.54 420.59 117.56 420.58 117.58 420.57 117.6 420.57 117.62 420.57 117.63 420.56 117.64 420.56 117.66 420.56 117.68 420.57 117.72 420.58 117.75 420.59 117.78 420.6 117.8 420.61 117.82 420.62 117.83 420.63 117.85 420.65 117.87 420.65 117.89 420.67 117.91 420.67 117.93 420.67 117.94 420.67 117.97 420.67 117.99 420.67 118.01 420.66 118.03 420.65 118.05 420.64 118.06 420.64 118.08 420.64 118.1 420.63 118.11 420.63 118.12 420.63 118.13 420.63 118.16 420.63 118.18 420.63 118.2 420.63 118.21 420.63 118.22 420.63 118.23 420.63 118.23 420.63 118.25 420.63 118.26 420.63 118.27 420.64 118.29 420.64 118.32 420.65 118.34 420.66 118.37 420.67 118.39 420.69 118.4 420.72 118.45 420.73 118.46 420.75 118.48 420.77 118.5 420.8 118.52 420.81 118.54 420.82 118.55 420.83 118.56 420.84 118.58 420.86 118.6 420.87 118.63 420.87 118.66 420.88 118.68 420.88 118.7 420.89 118.75 420.89 118.78 420.89 118.8 420.89 118.82 420.89 118.83 420.89 118.87 420.89 118.88 420.89 118.89 420.88 118.92 420.88 118.95 420.87 118.99 420.87 119.01 420.86 119.04 420.86 119.06 420.85 119.12 420.85 119.18 420.85 119.22 420.85 119.33 420.84 119.41 420.84 119.43 420.85 119.45 420.85 119.47 420.86 119.53 420.86 119.57 420.86 119.6 420.86 119.61 420.86 119.64 420.86 119.66 420.86 119.67 420.87 119.71 420.87 119.73 420.87 119.74 420.87 119.78 420.87 119.82 420.88 119.9 420.88 119.91 420.88 119.93 420.88 119.96 420.88 119.97 420.89 119.98 420.89 120.02 420.9 120.04 420.91 120.08 420.92 120.1 420.92 120.12 420.93 120.16 420.94 120.18 420.94 120.2 420.96 120.25 420.98 120.29 420.99 120.31 421.01 120.38 421.08 120.47 421.1 120.65 421.13 120.63 421.17 120.61 421.22 120.59 421.25 120.57 421.26 120.57 421.24 120.86 421.24 120.91 421.24 120.94 421.24 120.96 421.24 120.99 421.25 121.03 421.25 121.06 421.25 121.11 421.26 121.14 421.26 121.17 421.26 121.2 421.26 121.28 421.26 121.3 421.26 121.33 421.27 121.35 421.28 121.37 421.29 121.39 421.33 121.44 421.35 121.47 421.38 121.5 421.42 121.56 421.45 121.61 421.47 121.64 421.5 121.68 421.54 121.75 421.58 121.82 421.6 121.85 421.6 121.87 421.61 121.89 421.63 121.92 421.65 121.96 421.68 122 421.71 122.04 421.73 122.06 421.77 122.11 421.79 122.14 421.81 122.13 421.84 122.13 421.86 122.14 421.88 122.14 421.92 122.15 421.98 122.16 422.04 122.17 422.07 122.17 422.09 122.17 422.14 122.16 422.18 122.14 422.24 122.12 422.29 122.12 422.31 122.12 422.34 122.13 422.42 122.14 422.49 122.15 422.54 122.15 422.56 122.15 422.58 122.14 422.6 122.14 422.62 122.13 422.66 122.13 422.77 122.13 422.79 122.12 422.8 122.11 422.81 122.09 422.87 122.12 422.91 122.13 422.96 122.14 423 122.15 423.03 122.17 423.05 122.18 423.09 122.19 423.12 122.19 423.16 122.18 423.21 122.18 423.25 122.17 423.3 122.17 423.35 122.17 423.37 122.17 423.41 122.17 423.45 122.17 423.48 122.18 423.52 122.18 423.54 122.18 423.56 122.17 423.59 122.15 423.61 122.12 423.62 122.1 423.62 122.08 423.62 122.05 423.63 122.02 423.64 121.99 423.65 121.96 423.68 121.93 423.7 121.91 423.72 121.9 423.74 121.89 423.76 121.89 423.79 121.89 423.82 121.9 423.85 121.91 423.86 121.91 423.87 121.92 423.88 121.94 423.9 121.97 423.91 121.99 423.92 122.03 423.93 122.06 423.93 122.09 423.93 122.12 423.94 122.14 423.95 122.18 423.97 122.22 424 122.26 424.02 122.3 424.04 122.34 424.06 122.38 424.07 122.42 424.08 122.47 424.1 122.5 424.13 122.57 424.17 122.65 424.19 122.69 424.21 122.74 424.23 122.78 424.25 122.82 424.28 122.85 424.34 122.89 424.39 122.91 424.47 122.96 424.55 122.99 424.62 123.01 424.65 123.02 424.66 123.01 424.68 123.01 424.7 123.01 424.75 123 424.85 122.97 424.9 122.94 424.94 122.93 424.97 122.92 425 122.91 425.03 122.92 425.07 122.94 425.12 122.97 425.15 122.99 425.16 123 425.17 123.04 425.18 123.05 425.17 123.11 425.17 123.15 425.19 123.2 425.21 123.22 425.22 123.25 425.23 123.28 425.23 123.31 425.22 123.36 425.22 123.4 425.21 123.44 425.21 123.48 425.19 123.51 425.18 123.54 425.16 123.57 425.13 123.63 425.08 123.7 425.05 123.74 425.02 123.77 425.01 123.79 424.98 123.83 424.96 123.86 424.94 123.91 424.92 123.94 424.91 123.97 424.89 124.01 424.87 124.04 424.86 124.07 426.03 125.02 428.36 127.04 429.75 128.73 430.88 128.67 431.13 128.43 433.42 129.25 433.52 129.17 433.57 129.24 433.6 129.29 433.62 129.32 433.63 129.34 433.65 129.39 433.66 129.44 433.7 129.49 433.79 129.6 433.83 129.65 433.87 129.69 433.89 129.7 433.95 129.75 434 129.8 434.04 129.83 434.08 129.87 434.12 129.94 434.16 129.99 434.17 130.04 434.18 130.07 434.18 130.1 434.2 130.13 434.26 130.21 434.29 130.27 434.31 130.31 434.34 130.34 434.35 130.36 434.38 130.37 434.45 130.41 434.52 130.44 434.55 130.47 434.64 130.5 434.7 130.53 434.75 130.55 434.8 130.55 434.89 130.56 434.97 130.55 435.04 130.54 435.07 130.54 435.11 130.54 435.14 130.56 435.18 130.57 435.24 130.57 435.29 130.57 435.33 130.57 435.37 130.57 435.41 130.57 435.45 130.57 435.49 130.57 435.52 130.57 435.55 130.56 435.57 130.55 435.61 130.64 434.8 130.83 434.42 131.04 434.19 131.21 434.2 130.9 434.22 130.82 434.22 130.77 434.24 130.74 434.25 130.72 434.26 130.67 434.24 130.62 434.2 130.58 434.16 130.55 434.11 130.53 434.06 130.51 433.99 130.49 433.94 130.48 433.9 130.47 433.85 130.45 433.82 130.43 433.75 130.43 433.68 130.42 433.64 130.42 433.61 130.43 433.53 130.56 433.41 130.65 433.35 130.76 433.33 130.82 433.26 130.92 433.21 130.99 433.2 131.05 433.19 131.1 433.07 131.24 433.01 131.31 432.9 131.41 432.85 131.47 432.81 131.5 432.79 131.53 432.76 131.55 432.72 131.56 432.67 131.57 432.63 131.58 432.6 131.58 432.58 131.59 432.56 131.6 432.53 131.61 432.49 131.65 432.44 131.7 432.39 131.75 432.37 131.79 432.35 131.82 432.33 131.86 432.32 131.87 432.28 131.91 432.25 131.94 432.23 131.96 432.18 132.03 432.19 132.04 431.26 132.43 430.94 132.5 430.32 132.7 429.17 132.87 428.87 133.14 428.7 133.45 428.51 133.74 428.45 133.93 427.83 134.41 428.08 134.43 429.52 135.22 429.63 135.22 429.75 135.24 429.89 135.25 430.05 135.31 430.18 135.39 430.29 135.45 430.44 135.51 430.51 135.56 430.61 135.59 430.75 135.63 430.88 135.66 430.94 135.7 431.02 135.78 431.08 135.83 431.11 135.88 431.12 135.9 431.12 135.9 431.12 135.92 431.12 135.94 431.13 135.97 431.13 136.01 431.14 136.07 431.15 136.11 431.15 136.14 431.15 136.17 431.15 136.2 431.15 136.23 431.15 136.25 431.16 136.27 431.17 136.29 431.19 136.3 431.21 136.31 431.24 136.32 431.26 136.32 431.27 136.32 431.28 136.33 431.29 136.35 431.3 136.36 431.3 136.39 431.29 136.41 431.29 136.43 431.28 136.45 431.26 136.48 431.26 136.5 431.25 136.53 431.25 136.58 431.25 136.59 431.26 136.63 431.26 136.67 431.26 136.72 431.26 136.76 431.27 136.79 431.27 136.83 431.28 136.89 431.29 136.92 431.3 136.94 431.31 136.97 431.31 136.99 431.32 137.01 431.32 137.03 431.31 137.05 431.3 137.08 431.27 137.11 431.26 137.12 431.25 137.14 431.24 137.16 431.24 137.18 431.25 137.2 431.27 137.23 431.29 137.26 431.32 137.29 431.34 137.31 431.36 137.33 431.38 137.35 431.39 137.38 431.41 137.41 431.42 137.44 431.43 137.45 431.43 137.49 431.43 137.56 431.43 137.6 431.43 137.62 431.43 137.64 431.43 137.66 431.43 137.68 431.44 137.71 431.47 137.78 431.49 137.83 431.51 137.88 431.53 137.9 431.53 137.92 431.54 137.93 431.53 137.95 431.51 137.99 431.47 138.04 431.42 138.09 431.38 138.14 431.35 138.18 431.3 138.23 431.28 138.25 431.26 138.26 431.25 138.28 431.22 138.3 431.2 138.32 431.18 138.34 431.16 138.35 431.14 138.35 431.11 138.36 431.07 138.36 431.05 138.37 431.03 138.37 431 138.38 430.97 138.4 430.95 138.41 430.93 138.43 430.92 138.44 430.91 138.47 430.9 138.49 430.9 138.53 430.9 138.56 430.9 138.61 430.9 138.63 430.89 138.65 430.89 138.66 430.91 138.69 430.93 138.71 430.92 138.73 430.91 138.75 430.86 138.81 430.83 138.86 430.8 138.89 430.76 138.95 430.7 139.01 430.65 139.05 430.64 139.1 430.65 139.18 430.69 139.3 430.76 139.41 430.82 139.57 430.83 139.7 430.85 139.78 430.86 139.84 430.88 139.91 430.89 139.96 430.89 139.97 430.89 139.97 430.89 139.99 430.89 140 430.88 140 430.88 140.01 430.86 140.03 430.85 140.04 430.84 140.05 430.82 140.07 430.81 140.08 430.72 140.31 430.66 140.41 430.63 140.5 430.61 140.69 430.61 140.71 430.61 140.72 430.61 140.74 430.61 140.76 430.61 140.77 430.61 140.79 430.61 140.81 430.61 140.83 430.61 140.85 430.61 140.87 430.61 140.89 430.6 140.91 430.59 140.92 430.59 140.94 430.58 140.96 430.58 140.98 430.57 141 430.56 141.02 430.56 141.04 430.55 141.06 430.55 141.08 430.55 141.11 430.55 141.13 430.55 141.16 430.55 141.18 430.54 141.2 430.54 141.22 430.53 141.24 430.53 141.26 430.52 141.28 430.52 141.3 430.52 141.33 430.52 141.36 430.51 141.38 430.51 141.41 430.51 141.43 430.51 141.46 430.51 141.49 430.51 141.51 430.51 141.54 430.51 141.56 430.51 141.59 430.51 141.61 430.51 141.63 430.51 141.66 430.51 141.68 430.52 141.71 430.52 141.73 430.52 141.76 430.52 141.78 430.52 141.8 430.51 141.83 430.51 141.85 430.5 141.87 430.49 141.89 430.48 141.91 430.47 141.93 430.46 141.95 430.45 141.97 430.44 141.98 430.43 142 430.41 142.01 430.4 142.03 430.38 142.04 430.37 142.06 430.36 142.09 430.34 142.12 430.33 142.14 430.31 142.17 430.3 142.2 430.29 142.21 430.27 142.23 430.26 142.24 430.24 142.26 430.23 142.27 430.22 142.28 430.2 142.3 430.19 142.31 430.18 142.32 430.17 142.33 430.16 142.34 430.16 142.35 430.16 142.37 430.15 142.38 430.15 142.39 430.14 142.39 430.13 142.4 430.12 142.4 430.11 142.41 430.11 142.41 430.09 142.42 430.08 142.43 430.07 142.44 430.06 142.45 430.05 142.46 430.04 142.47 430.03 142.47 430.02 142.46 426.55 144.01 426.52 144.01 426.44 144 426.38 143.97 426.33 143.94 426.26 143.88 426.21 143.84 426.19 143.82 426.14 143.79 426.12 143.76 426.06 143.71 426.02 143.66 426 143.62 425.97 143.57 425.91 143.53 425.88 143.52 425.82 143.48 425.78 143.47 425.71 143.41 425.64 143.36 425.57 143.29 425.52 143.26 425.46 143.21 425.41 143.19 425.37 143.15 425.32 143.13 425.24 143.06 425.17 142.98 425.12 142.94 425.02 142.85 424.94 142.76 424.9 142.71 424.87 142.65 424.79 142.51 424.7 142.4 424.67 142.36 424.56 142.23 424.46 142.09 424.44 142.06 424.38 142 424.3 141.92 424.24 141.84 424.15 141.74 424.1 141.68 424.85 140.21 424.53 139.93 424 139.52 423.84 139.57 423.81 139.57 423.78 139.55 423.74 139.53 423.71 139.51 423.66 139.46 423.63 139.4 423.61 139.37 423.57 139.36 423.53 139.35 423.49 139.33 423.44 139.29 423.41 139.26 423.37 139.22 423.35 139.19 423.3 139.16 423.27 139.12 423.24 139.11 423.22 139.09 423.19 139.08 423.17 139.06 423.15 139.04 423.1 139.01 423.07 138.98 423.06 138.97 423.04 138.94 423.03 138.92 423.01 138.91 422.99 138.89 422.98 138.88 422.96 138.86 422.93 138.84 422.91 138.82 422.9 138.81 422.87 138.8 422.85 138.78 422.83 138.76 422.8 138.75 422.78 138.73 422.76 138.71 422.72 138.68 422.69 138.65 422.66 138.62 422.63 138.6 422.59 138.58 422.53 138.54 422.5 138.52 422.46 138.5 422.44 138.47 422.39 138.43 422.37 138.41 422.36 138.39 422.36 138.35 422.36 138.33 422.36 138.3 422.36 138.27 422.35 138.26 422.35 138.25 422.34 138.24 422.31 138.21 422.3 138.18 422.28 138.16 422.27 138.12 422.25 138.1 422.23 138.09 422.2 138.07 422.17 138.06 422.16 138.04 422.15 138.02 422.13 137.99 422.11 137.96 422.09 137.92 422.07 137.88 422.05 137.84 422.03 137.8 422.01 137.78 421.99 137.75 421.97 137.74 421.94 137.7 421.92 137.68 421.9 137.65 421.89 137.63 421.88 137.6 421.87 137.59 421.86 137.58 421.84 137.57 421.82 137.56 421.8 137.55 421.79 137.52 421.77 137.5 421.76 137.46 421.75 137.42 421.75 137.38 421.74 137.34 421.74 137.3 421.73 137.28 421.72 137.25 421.7 137.22 421.68 137.19 421.67 137.17 421.65 137.15 421.63 137.13 421.6 137.1 421.59 137.07 421.58 137.04 421.57 137 421.57 136.97 421.57 136.94 421.56 136.92 421.55 136.9 421.54 136.85 421.53 136.8 421.53 136.78 421.53 136.77 421.54 136.73 421.54 136.7 421.53 136.65 421.53 136.6 421.53 136.57 421.53 136.54 421.54 136.52 421.55 136.51 421.57 136.48 421.58 136.45 421.59 136.39 421.6 136.37 421.6 136.35 421.59 136.31 421.58 136.27 421.57 136.22 421.56 136.17 421.54 136.12 421.53 136.08 421.53 136.06 421.53 136.02 421.53 135.97 421.52 135.92 421.51 135.88 421.5 135.84 421.49 135.8 421.48 135.78 421.46 135.76 421.42 135.72 421.41 135.71 421.39 135.68 421.37 135.64 421.36 135.6 421.36 135.57 421.36 135.54 421.36 135.5 421.36 135.47 421.37 135.44 421.38 135.41 421.38 135.39 421.4 135.34 421.42 135.28 421.43 135.26 421.45 135.2 421.46 135.16 421.47 135.14 421.48 135.09 421.49 135.06 421.49 135.05 421.49 135.01 421.49 134.97 421.5 134.94 421.5 134.9 421.51 134.89 421.51 134.86 421.51 134.84 421.52 134.82 421.53 134.78 421.53 134.75 421.54 134.73 421.54 134.71 421.54 134.7 421.54 134.69 421.53 134.68 421.53 134.68 421.52 134.67 421.51 134.66 421.5 134.64 421.49 134.63 421.48 134.62 421.47 134.6 421.44 134.58 421.41 134.55 421.4 134.55 421.37 134.52 421.36 134.51 421.34 134.49 421.32 134.48 421.31 134.46 421.29 134.45 421.28 134.43 421.28 134.42 421.27 134.4 421.26 134.39 421.25 134.38 421.23 134.36 421.2 134.35 421.19 134.34 421.15 134.3 421.12 134.26 421.09 134.23 421.06 134.2 421.02 134.17 420.98 134.13 420.96 134.11 420.94 134.11 420.9 134.12 420.86 134.13 420.84 134.05 420.63 133.93 420.45 133.73 419.7 133.3 419.49 132.95 419.32 132.78 419.06 132.44 418.6 132.15 418.36 132.05 417.08 130.87 416.28 129.97 415.83 129.77 415.35 129.12 415.26 128.46 414.82 127.93 414.57 127.53 414.25 126.62 413.92 126.62 413.56 126.28 413.19 125.7 412.76 125.15 411.78 123.65 411.59 123.11 411.58 123.1 411.59 123.09 412.97 121.32 413.1 120.99 413.29 120.46 413.54 119.68 412.86 117.66 413.75 117.3 414.19 117.13 414.31 116.18 414.34 116.17 Z"/>
</g></svg>