<svg xmlns="http://www.w3.org/2000/svg" version="1.2" baseProfile="tiny" stroke-linecap="round" stroke-linejoin="round" viewBox="591.02 314.85 42.92 45.03"><g xmlns="http://www.w3.org/2000/svg" id="Urraulbeiti">
<path d="M 624.52 317.93 624.57 318.02 624.62 318.1 624.62 318.11 624.64 318.15 624.65 318.19 624.82 318.27 625.18 318.43 625.19 318.44 625.2 318.44 625.23 318.44 625.26 318.44 625.4 318.41 625.44 318.41 625.61 318.38 625.62 318.38 625.63 318.38 625.67 318.39 625.68 318.39 625.69 318.39 625.7 318.39 625.71 318.38 625.72 318.38 625.73 318.38 625.77 318.35 625.89 318.24 626.01 318.14 626.09 318.07 626.15 318.03 626.17 318.02 626.18 318.02 626.21 318.01 626.24 318 626.27 317.99 626.29 317.99 626.3 317.98 626.32 317.98 626.33 317.98 626.34 317.98 626.37 317.99 626.4 318.01 626.41 318.01 626.51 318.05 626.54 318.07 626.56 318.08 626.57 318.08 626.59 318.09 626.6 318.1 626.77 318.23 626.97 318.38 627.07 318.45 627.19 318.55 627.53 318.8 627.61 318.86 627.88 319.06 627.94 319.11 628.14 319.25 628.16 319.27 628.2 319.31 628.27 319.37 628.29 319.39 628.3 319.4 628.32 319.42 628.37 319.47 628.53 319.66 628.54 319.67 628.55 319.68 628.56 319.69 628.57 319.7 628.58 319.71 628.59 319.72 628.6 319.72 628.61 319.73 628.63 319.73 628.74 319.79 628.83 319.83 628.85 319.84 628.87 319.84 628.9 319.86 629.01 319.91 629.18 319.99 629.23 320.02 629.25 320.03 629.26 320.03 629.37 320.09 629.52 320.14 629.66 320.19 629.77 320.22 629.89 320.26 630.02 320.3 630.2 320.36 630.28 320.39 630.33 320.41 630.39 320.43 630.41 320.44 630.45 320.45 630.46 320.46 630.5 320.48 630.58 320.52 630.59 320.53 630.63 320.55 630.71 320.59 630.79 320.63 630.88 320.67 630.96 320.71 631.04 320.76 631.15 320.81 631.22 320.84 631.28 320.87 631.32 320.89 631.33 320.89 631.37 320.9 631.41 320.92 631.46 320.94 631.52 320.95 631.58 320.98 631.66 321.01 631.77 321.04 631.81 321.06 631.84 321.07 631.88 321.08 631.92 321.1 631.99 321.13 632.06 321.15 632.13 321.18 632.2 321.2 632.36 321.26 632.6 321.34 632.76 321.4 632.91 321.46 633.04 321.51 633.08 321.52 633.2 321.56 633.33 321.62 633.38 321.64 633.56 321.75 633.57 321.75 633.62 321.78 633.67 321.82 633.72 321.85 633.78 321.89 633.8 321.9 633.83 321.92 633.86 321.94 633.87 321.95 633.87 321.96 633.88 321.97 633.89 322.01 633.9 322.04 633.9 322.05 633.9 322.06 633.91 322.08 633.91 322.09 633.9 322.1 633.9 322.11 633.9 322.12 633.9 322.13 633.89 322.14 633.88 322.15 633.69 322.34 633.58 322.58 633.57 322.59 633.57 322.61 633.56 322.63 633.55 322.64 633.55 322.66 633.54 322.68 633.54 322.7 633.53 322.73 633.53 322.76 633.54 322.81 633.54 322.84 633.54 322.87 633.54 322.9 633.55 322.93 633.54 322.96 633.54 322.99 633.53 323.01 633.52 323.04 633.51 323.07 633.5 323.1 633.49 323.12 633.48 323.14 633.48 323.16 633.47 323.17 633.46 323.18 633.46 323.2 633.45 323.21 633.44 323.21 633.43 323.22 633.42 323.24 633.37 323.27 633.31 323.31 633.22 323.35 633.15 323.4 633.12 323.41 633.09 323.42 633.05 323.43 633.04 323.43 631.93 322.63 631.92 322.62 631.59 322.38 631.56 322.38 631.55 322.38 631.53 322.39 631.51 322.4 631.49 322.4 631.48 322.41 631.46 322.42 631.45 322.43 631.44 322.44 631.43 322.46 631.42 322.47 631.4 322.5 631.4 322.52 631.39 322.54 631.38 322.55 631.38 322.57 631.36 322.62 631.32 322.86 631.31 322.95 631.31 322.98 631.31 323.01 631.31 323.03 631.3 323.06 631.3 323.07 631.29 323.09 631.29 323.1 631.29 323.12 631.28 323.13 631.28 323.14 631.27 323.15 631.27 323.15 631.25 323.17 631.25 323.18 631.24 323.19 631.24 323.2 631.23 323.22 631.2 323.31 631.19 323.33 631.19 323.34 631.19 323.35 631.18 323.37 631.17 323.39 631.16 323.41 631.15 323.44 631.14 323.46 631.13 323.48 631.12 323.49 631.1 323.51 631.06 323.54 631.02 323.56 631 323.57 630.98 323.57 630.97 323.58 630.95 323.6 630.94 323.61 630.93 323.63 630.91 323.65 630.9 323.66 630.89 323.67 630.88 323.67 630.87 323.68 630.86 323.68 630.84 323.68 630.83 323.68 630.81 323.68 630.79 323.67 630.78 323.67 630.76 323.67 630.74 323.67 630.72 323.67 630.7 323.68 630.68 323.68 630.58 323.71 630.55 323.73 630.53 323.74 630.51 323.74 630.49 323.76 630.45 323.79 630.4 323.82 630.35 323.82 629.83 323.74 629.82 323.74 629.72 323.72 629.68 323.72 629.66 323.72 629.63 323.71 629.62 323.7 629.14 323.48 628.89 323.13 628.88 323.11 628.82 323.01 628.77 322.94 628.71 322.85 628.69 322.83 628.68 322.81 628.68 322.81 628.66 322.79 628.65 322.79 628.64 322.78 628.63 322.77 628.61 322.76 628.58 322.75 628.57 322.74 628.55 322.72 628.54 322.71 628.52 322.69 628.41 322.59 628.38 322.56 628.35 322.53 628.33 322.52 628.32 322.51 628.31 322.5 628.29 322.49 628.27 322.48 628.24 322.47 628.22 322.46 628.17 322.44 628.14 322.43 628.11 322.42 628.02 322.4 628.01 322.4 627.78 322.24 627.72 322.2 627.71 322.19 627.69 322.18 627.68 322.17 627.67 322.16 627.63 322.15 627.61 322.14 627.46 322.09 627.42 322.07 627.35 322.05 627.33 322.03 627.31 322.02 627.29 322 627.25 321.97 627.23 321.96 627.11 321.87 627.09 321.86 627.07 321.84 627.05 321.83 627.04 321.82 627.02 321.82 627 321.81 626.98 321.81 626.96 321.8 626.89 321.8 626.85 321.8 626.82 321.8 626.79 321.79 626.77 321.79 626.75 321.79 626.72 321.78 626.71 321.78 626.67 321.77 626.64 321.76 626.61 321.74 626.56 321.73 626.42 321.65 626.41 321.66 626.38 321.74 626.34 321.83 626.27 321.97 626.22 322.09 626.06 322.44 625.87 322.86 625.79 323.03 625.75 323.14 625.72 323.2 625.72 323.22 625.71 323.26 625.7 323.3 625.68 323.34 625.66 323.45 625.63 323.51 625.6 323.61 625.59 323.65 625.57 323.7 625.56 323.75 625.53 323.87 625.52 323.9 625.51 323.94 625.49 323.97 625.47 324.01 625.43 324.08 625.42 324.1 625.42 324.11 625.41 324.13 625.41 324.2 625.41 324.26 625.4 324.29 625.4 324.3 625.39 324.32 625.38 324.35 625.37 324.37 625.36 324.4 625.35 324.44 625.33 324.52 625.32 324.58 625.31 324.62 625.3 324.65 625.29 324.67 625.28 324.69 625.27 324.72 625.25 324.75 625.24 324.77 625.23 324.78 625.22 324.79 625.21 324.81 625.2 324.85 625.14 325.05 625.1 325.17 625.08 325.22 625.07 325.26 625.06 325.29 625.04 325.35 625.01 325.42 624.94 325.63 624.88 325.82 624.87 325.87 624.85 325.91 624.82 326 624.75 326.18 624.74 326.2 624.74 326.2 624.7 326.29 624.58 326.63 624.52 326.82 624.47 326.97 624.45 327.05 624.43 327.09 624.42 327.13 624.42 327.16 624.41 327.2 624.4 327.24 624.39 327.28 624.39 327.33 624.39 327.37 624.38 327.4 624.38 327.42 624.38 327.44 624.38 327.48 624.38 327.51 624.38 327.53 624.38 327.56 624.38 327.59 624.39 327.61 624.39 327.62 624.39 327.67 624.4 327.71 624.41 327.76 624.42 327.82 624.43 327.87 624.44 327.94 624.45 328.03 624.46 328.07 624.46 328.11 624.46 328.15 624.46 328.19 624.46 328.23 624.46 328.24 624.46 328.26 624.47 328.3 624.48 328.35 624.53 328.64 624.54 328.8 624.55 328.84 624.55 328.87 624.55 328.89 624.55 328.9 624.55 328.92 624.55 328.94 624.56 328.96 624.56 328.97 624.56 328.99 624.57 329.01 624.57 329.03 624.57 329.04 624.57 329.06 624.58 329.07 624.58 329.09 624.58 329.25 624.57 329.36 624.56 329.46 624.52 329.62 624.33 329.78 624.31 329.79 624.3 329.81 624.29 329.82 624.28 329.83 624.28 329.85 624.26 329.87 624.24 329.88 624.08 330.11 623.99 330.23 623.95 330.28 623.87 330.38 623.82 330.44 623.8 330.46 623.79 330.47 623.75 330.51 623.39 330.91 623.27 331.05 623.09 331.26 622.85 331.53 622.78 331.61 622.77 331.62 622.75 331.64 622.74 331.65 622.68 331.7 622.63 331.75 622.55 331.82 622.45 331.9 622.41 332 622.38 332.06 622.37 332.07 622.35 332.11 622.29 332.22 622.21 332.36 622.18 332.4 622.15 332.46 622.1 332.53 622.03 332.64 621.96 332.76 621.84 333.16 621.8 333.17 621.78 333.18 621.76 333.18 621.74 333.19 621.72 333.2 621.7 333.21 621.68 333.21 621.66 333.22 621.64 333.23 621.63 333.24 621.61 333.25 621.6 333.26 621.58 333.27 621.57 333.28 621.56 333.29 621.55 333.3 621.54 333.31 621.54 333.31 621.53 333.32 621.52 333.34 621.54 333.36 621.54 333.37 621.55 333.37 621.58 333.41 621.61 333.44 621.62 333.45 621.64 333.46 621.65 333.47 621.69 333.49 621.73 333.51 621.78 333.55 621.81 333.57 621.82 333.58 621.83 333.59 621.85 333.6 621.86 333.61 621.87 333.62 621.88 333.62 622 333.68 622.07 333.71 622.13 333.73 622.29 333.8 622.35 333.83 622.46 333.88 622.47 333.88 622.58 333.93 622.66 333.96 622.84 334.05 622.85 334.05 622.86 334.06 622.88 334.07 622.89 334.07 622.91 334.08 623.01 334.1 623.13 334.14 623.22 334.16 623.26 334.18 623.3 334.19 623.32 334.2 623.35 334.2 623.42 334.23 623.54 334.26 623.67 334.29 623.7 334.3 623.72 334.31 623.72 334.32 623.73 334.32 623.74 334.33 623.75 334.34 623.75 334.34 623.75 334.35 623.76 334.36 623.76 334.37 623.76 334.38 623.76 334.39 623.78 334.52 623.78 334.58 623.78 334.59 623.78 334.6 623.79 334.61 623.79 334.62 623.8 334.63 623.8 334.63 623.83 334.65 623.85 334.66 623.86 334.67 623.87 334.68 623.88 334.69 623.89 334.7 623.92 334.73 623.95 334.75 623.97 334.77 623.99 334.79 624.04 334.82 624.16 334.9 624.18 334.91 624.3 334.99 624.41 335.06 624.47 335.1 624.59 335.17 624.68 335.23 624.79 335.32 624.83 335.35 624.86 335.37 624.88 335.38 624.89 335.4 624.89 335.41 624.9 335.42 624.9 335.44 624.91 335.46 624.91 335.48 624.91 335.49 624.92 335.5 624.93 335.51 624.93 335.52 624.94 335.54 624.94 335.55 624.99 335.65 625 335.66 625 335.68 625 335.69 625 335.7 624.99 335.71 624.99 335.72 624.98 335.72 624.97 335.73 624.96 335.73 624.95 335.74 624.94 335.74 624.93 335.74 624.89 335.73 624.91 335.78 624.94 335.85 624.97 335.96 624.97 335.98 625 336.09 625.04 336.24 625.09 336.39 625.1 336.42 625.12 336.44 625.12 336.44 625.14 336.45 625.14 336.46 625.52 336.7 625.52 336.71 625.51 336.73 625.51 336.75 625.5 336.76 625.5 336.78 625.49 336.81 625.48 336.82 625.47 336.84 625.43 336.9 625.41 336.92 625.4 336.94 625.39 336.95 625.39 336.96 625.38 336.97 625.37 336.99 625.36 337 625.3 337.1 625.07 337.51 624.8 337.95 624.56 338.32 624.43 338.54 624.41 338.58 624.4 338.6 624.39 338.61 624.38 338.62 624.38 338.63 624.36 338.65 624.18 338.93 624.16 338.96 624.15 338.97 624.12 339 624.08 339.06 624.07 339.08 624.06 339.09 624.05 339.11 624.05 339.12 624.04 339.16 624.03 339.17 624.03 339.19 624.03 339.19 624.02 339.21 624.02 339.21 624.01 339.22 624 339.23 623.93 339.31 623.91 339.34 623.9 339.35 623.89 339.36 623.88 339.36 623.87 339.37 623.86 339.38 623.85 339.39 623.82 339.4 623.78 339.42 623.75 339.42 623.74 339.43 623.72 339.44 623.64 339.44 623.62 339.44 623.61 339.44 623.6 339.44 623.59 339.44 623.58 339.44 623.57 339.44 623.56 339.44 623.55 339.44 623.49 339.46 623.32 339.51 623.25 339.53 623.24 339.54 623.22 339.54 623.2 339.54 623.18 339.55 623.05 339.57 622.23 339.73 622.21 339.73 622.19 339.74 621.56 339.86 621.25 339.91 621.02 339.95 620.98 339.96 620.9 339.98 620.82 339.99 620.75 340.01 620.73 340.01 620.73 340.02 620.72 340.02 620.7 340.03 620.63 340.07 620.58 340.1 620.52 340.13 620.48 340.16 620.44 340.18 620.43 340.19 620.42 340.19 620.41 340.2 620.38 340.22 619.42 340.65 619.4 340.66 619.39 340.67 619.37 340.67 619.36 340.68 619.24 340.73 619.05 340.81 618.96 340.84 618.89 340.87 618.88 340.87 618.87 340.87 618.86 340.87 618.85 340.87 618.84 340.87 618.83 340.87 618.82 340.87 618.81 340.87 618.8 340.87 618.78 340.86 618.68 340.83 618.67 340.83 618.66 340.82 618.65 340.82 618.64 340.82 618.64 340.82 618.62 340.82 618.62 340.82 618.56 340.83 618.42 340.85 618.39 340.85 618.38 340.85 618.37 340.85 618.35 340.86 618.31 340.89 618.28 340.9 618.25 340.92 618.24 340.92 618.23 340.92 618.22 340.93 618.21 340.93 618.2 340.93 618.18 340.93 618.17 340.92 618.16 340.92 618.14 340.92 618.13 340.92 618.12 340.92 618.11 340.92 618.08 340.91 618 340.88 617.89 340.85 617.87 340.84 617.86 340.84 617.85 340.84 617.84 340.83 617.8 340.83 617.79 340.83 617.79 340.83 617.78 340.83 617.77 340.82 617.71 340.81 617.53 340.74 617.52 340.74 617.51 340.73 617.5 340.73 617.47 340.72 617.39 340.71 617.32 340.69 617.31 340.69 617.3 340.69 617.29 340.68 617.28 340.68 617.27 340.68 617.19 340.68 617.15 340.68 617.14 340.68 617.13 340.68 616.96 340.7 616.87 340.7 616.86 340.7 616.85 340.7 616.84 340.69 616.83 340.69 616.83 340.68 616.82 340.67 616.82 340.66 616.81 340.64 616.8 340.62 616.8 340.59 616.78 340.55 616.6 340.57 616.56 340.58 616.54 340.58 616.54 340.59 616.55 340.65 616.32 340.68 616.25 340.22 616.25 340.2 616.25 340.19 616.25 340.17 616.25 340.16 616.25 340.15 616.25 340.14 616.25 340.13 616.26 340.13 616.26 340.12 616.27 340.11 616.24 340.11 616.18 340.09 616.16 340.08 616.15 340.08 616.12 340.06 616.1 340.05 616.07 340.03 616.04 340.01 615.99 339.98 615.97 339.96 615.93 339.93 615.93 339.93 615.86 339.87 615.72 339.73 615.7 339.73 615.57 339.76 615.54 339.77 615.53 339.7 615.51 339.6 615.47 339.49 615.42 339.4 615.37 339.33 615.27 339.22 615.17 339.13 615.13 339.09 615.12 339.05 615.1 338.96 615.07 338.75 615.04 338.51 615.04 338.33 615.06 338.22 615.09 338.15 615.13 338.11 615.19 338.08 615.36 338 615.53 337.91 615.66 337.83 615.76 337.72 615.83 337.64 615.87 337.58 615.9 337.49 615.92 337.38 615.91 337.3 615.9 337.22 615.87 337.15 615.84 337.08 615.79 337.03 615.71 336.98 615.6 336.94 615.46 336.86 615.41 336.82 615.3 336.7 615.15 336.54 615.03 336.41 614.94 336.36 614.86 336.33 614.79 336.31 614.73 336.31 614.66 336.33 614.57 336.38 614.36 336.52 614.15 336.63 613.97 336.69 613.89 336.7 613.7 336.69 613.58 336.64 613.41 336.54 613.15 336.33 613.06 336.39 613.05 336.4 613.02 336.44 613.01 336.46 613 336.49 613.01 336.51 613.02 336.54 613.04 336.57 613.08 336.61 613.09 336.64 613.1 336.66 613.1 336.69 613.08 336.72 613.06 336.76 613 336.83 612.99 336.84 612.99 336.86 612.98 336.87 612.97 336.88 612.97 336.89 612.96 336.9 612.95 336.93 612.95 336.94 612.94 336.94 612.71 337.37 612.69 337.4 612.68 337.43 612.59 337.62 612.51 337.79 612.47 337.86 612.46 337.88 612.45 337.9 612.45 337.91 612.44 337.92 612.44 337.94 612.41 338.02 612.39 338.09 612.38 338.13 612.37 338.17 612.36 338.19 612.36 338.22 612.32 338.41 612.29 338.53 612.21 339.07 612.19 339.2 612.18 339.25 612.17 339.34 612.16 339.35 612.15 339.45 612.14 339.54 612.14 339.55 612.14 339.56 612.14 339.57 612.13 339.57 612.12 339.62 612.09 339.78 612.08 339.86 612.07 339.88 612.06 339.97 612.03 340.08 612.03 340.09 612.01 340.16 611.98 340.28 611.91 340.52 611.85 340.71 611.8 340.86 611.79 340.89 611.78 340.92 611.73 341.05 611.65 341.31 611.44 341.95 611.44 341.96 611.43 341.97 611.42 342.04 611.39 342.16 611.39 342.17 611.38 342.2 611.46 342.35 611.53 342.49 611.56 342.57 611.57 342.58 611.57 342.58 611.59 342.63 611.69 342.82 611.73 342.89 611.76 342.95 611.76 342.96 611.78 343.01 611.8 343.01 611.82 343.01 611.83 343.02 611.89 343.05 611.97 343.09 612.07 343.12 612.21 343.15 612.37 343.18 612.53 343.21 612.61 343.23 612.71 343.27 612.91 343.34 613.05 343.39 613.14 343.43 613.15 343.44 613.14 343.45 613.11 343.53 613.05 343.65 613.01 343.72 612.99 343.78 612.95 343.84 612.92 343.88 612.91 343.9 612.9 343.91 612.89 343.92 612.89 343.93 612.88 343.95 612.86 344.01 612.83 344.1 612.81 344.15 612.76 344.25 612.76 344.27 612.76 344.27 612.77 344.35 612.77 344.39 612.76 344.43 612.75 344.47 612.75 344.52 612.74 344.54 612.73 344.57 612.73 344.6 612.72 344.62 612.71 344.66 612.68 344.72 612.65 344.8 612.64 344.82 612.63 344.84 612.61 344.92 612.59 345.02 612.56 345.12 612.55 345.14 612.54 345.17 612.53 345.2 612.49 345.3 612.48 345.32 612.46 345.32 612.42 345.31 612.4 345.31 612.37 345.31 612.34 345.31 612.3 345.31 612.22 345.31 612.2 345.32 612.16 345.32 612.1 345.33 612.05 345.33 612.03 345.33 612.01 345.33 611.96 345.34 611.86 345.35 611.83 345.35 611.76 345.36 611.72 345.36 611.66 345.37 611.61 345.38 611.58 345.38 611.56 345.39 611.54 345.4 611.52 345.41 611.5 345.42 611.48 345.43 611.46 345.45 611.45 345.46 611.43 345.48 611.41 345.5 611.4 345.51 611.4 345.53 611.41 345.57 611.42 345.62 611.43 345.65 611.44 345.73 611.45 345.76 611.46 345.8 611.46 345.84 611.47 345.87 611.47 345.9 611.48 345.91 611.48 345.93 611.49 345.95 611.49 345.97 611.5 346.01 611.5 346.04 611.5 346.06 611.5 346.07 611.5 346.09 611.5 346.1 611.51 346.12 611.51 346.15 611.52 346.19 611.55 346.3 611.57 346.35 611.61 346.52 611.62 346.56 611.62 346.58 611.63 346.71 611.63 346.72 611.63 346.73 611.65 346.75 611.66 346.77 611.67 346.79 611.68 346.8 611.68 346.81 611.69 346.83 611.69 346.84 611.69 346.85 611.69 346.87 611.69 346.88 611.7 346.9 611.7 346.92 611.7 346.94 611.7 346.99 611.7 347 611.7 347.02 611.71 347.04 611.71 347.05 611.71 347.07 611.72 347.09 611.73 347.12 611.73 347.13 611.74 347.15 611.75 347.16 611.81 347.25 611.81 347.26 611.81 347.27 611.82 347.31 611.82 347.33 611.82 347.34 611.83 347.35 611.84 347.37 611.86 347.42 611.89 347.47 611.9 347.49 611.92 347.52 611.95 347.58 611.96 347.59 611.97 347.6 611.99 347.63 612.01 347.67 612.04 347.71 612.06 347.74 612.08 347.76 612.11 347.79 612.13 347.83 612.16 347.87 612.17 347.89 612.2 347.93 612.22 347.96 612.23 347.98 612.24 347.99 612.24 348 612.25 348.01 612.25 348.02 612.25 348.04 612.25 348.05 612.25 348.07 612.25 348.09 612.24 348.12 612.24 348.13 612.24 348.15 612.24 348.17 612.23 348.19 612.23 348.22 612.22 348.25 612.21 348.27 612.21 348.29 612.2 348.32 612.18 348.36 612.16 348.42 612.16 348.44 612.14 348.48 612.12 348.53 612.1 348.58 612.09 348.61 612.08 348.65 612.06 348.69 612.05 348.7 612.04 348.73 612.01 348.74 611.98 348.74 611.96 348.75 611.93 348.75 611.9 348.75 611.85 348.76 611.79 348.77 611.77 348.78 611.76 348.78 611.75 348.78 611.74 348.78 611.73 348.78 611.71 348.79 611.69 348.79 611.68 348.79 611.66 348.78 611.64 348.78 611.61 348.78 611.54 348.78 611.53 348.78 611.51 348.79 611.49 348.79 611.47 348.79 611.43 348.8 611.41 348.8 611.39 348.8 611.38 348.8 611.36 348.8 611.34 348.8 611.33 348.8 611.32 348.79 611.32 348.79 611.31 348.78 611.29 348.78 611.28 348.77 611.27 348.76 611.25 348.75 611.23 348.74 611.21 348.73 611.19 348.72 611.17 348.71 611.16 348.69 611.14 348.67 611.13 348.66 611.11 348.64 610.86 348.7 610.83 348.71 610.8 348.72 610.79 348.72 610.74 348.74 610.69 348.75 610.67 348.76 610.66 348.77 610.65 348.78 610.64 348.78 610.63 348.79 610.62 348.81 610.61 348.82 610.6 348.83 610.6 348.84 610.6 348.85 610.6 348.86 610.6 348.88 610.6 348.88 610.6 348.9 610.6 348.92 610.6 348.93 610.6 348.95 610.6 348.96 610.6 348.98 610.59 348.99 610.59 349 610.6 349.01 610.6 349.03 610.6 349.04 610.6 349.05 610.6 349.07 610.61 349.08 610.62 349.1 610.63 349.13 610.64 349.15 610.64 349.17 610.65 349.19 610.66 349.2 610.67 349.22 610.68 349.24 610.69 349.25 610.7 349.27 610.7 349.28 610.7 349.29 610.7 349.31 610.71 349.36 610.71 349.41 610.71 349.43 610.71 349.44 610.71 349.45 610.7 349.46 610.7 349.47 610.69 349.48 610.68 349.49 610.66 349.51 610.65 349.52 610.64 349.53 610.63 349.54 610.62 349.55 610.61 349.57 610.6 349.58 610.59 349.59 610.58 349.61 610.57 349.62 610.56 349.64 610.55 349.65 610.54 349.67 610.53 349.68 610.52 349.68 610.5 349.69 610.48 349.71 610.46 349.73 610.43 349.75 610.39 349.77 610.34 349.81 610.33 349.82 610.31 349.83 610.29 349.85 610.27 349.86 610.25 349.87 610.23 349.87 610.21 349.88 610.2 349.88 610.18 349.89 610.14 349.89 610.12 349.9 610.1 349.9 610.07 349.9 610.04 349.9 610.02 349.9 610 349.89 609.96 349.89 609.94 349.89 609.93 349.89 609.92 349.88 609.91 349.87 609.91 349.87 609.9 349.86 609.89 349.85 609.87 349.84 609.86 349.83 609.85 349.82 609.83 349.82 609.82 349.81 609.81 349.81 609.79 349.81 609.78 349.81 609.77 349.8 609.76 349.81 609.74 349.81 609.67 349.82 609.65 349.82 609.62 349.82 609.59 349.83 609.55 349.84 609.52 349.84 609.48 349.84 609.42 349.85 609.37 349.85 609.36 349.85 609.35 349.85 609.33 349.85 609.32 349.86 609.32 349.87 609.31 349.87 609.3 349.88 609.29 349.89 609.27 349.9 609.21 349.94 609.16 349.97 609.14 349.98 609.13 349.99 609.11 349.99 609.1 349.99 609.09 349.98 609.08 349.98 609.06 349.98 609.05 349.97 609.03 349.96 609.01 349.95 608.97 349.94 608.94 349.93 608.92 349.93 608.9 349.92 608.88 349.92 608.86 349.92 608.84 349.91 608.82 349.9 608.8 349.9 608.79 349.89 608.78 349.89 608.77 349.88 608.76 349.87 608.75 349.86 608.73 349.85 608.71 349.82 608.7 349.81 608.69 349.8 608.68 349.79 608.66 349.78 608.64 349.76 608.63 349.75 608.61 349.74 608.6 349.73 608.58 349.72 608.56 349.71 608.55 349.71 608.53 349.7 608.51 349.69 608.48 349.68 608.47 349.68 608.46 349.67 608.44 349.66 608.41 349.66 608.38 349.65 608.37 349.64 608.35 349.64 608.33 349.63 608.32 349.63 608.31 349.62 608.29 349.61 608.28 349.6 608.27 349.59 608.25 349.58 608.23 349.56 608.22 349.56 608.2 349.54 608.17 349.52 608.16 349.51 608.15 349.5 608.14 349.49 608.12 349.48 608.11 349.47 608.08 349.46 608.05 349.44 608.02 349.43 607.99 349.41 607.95 349.38 607.93 349.37 607.92 349.37 607.9 349.36 607.89 349.36 607.87 349.35 607.85 349.35 607.83 349.35 607.82 349.34 607.8 349.34 607.78 349.34 607.77 349.34 607.75 349.34 607.73 349.34 607.72 349.34 607.7 349.34 607.68 349.35 607.66 349.35 607.64 349.35 607.63 349.35 607.62 349.36 607.6 349.36 607.58 349.37 607.57 349.37 607.55 349.38 607.42 349.43 607.4 349.43 607.38 349.44 607.36 349.44 607.33 349.45 607.32 349.46 607.31 349.46 607.29 349.46 607.26 349.46 607.25 349.46 607.23 349.46 607.22 349.46 607.18 349.45 607.16 349.45 607.14 349.44 607.12 349.44 607.1 349.44 607.06 349.43 607.04 349.43 607.02 349.43 607 349.43 606.98 349.43 606.92 349.43 606.87 349.44 606.85 349.44 606.84 349.44 606.83 349.44 606.82 349.44 606.81 349.45 606.8 349.45 606.8 349.46 606.79 349.46 606.78 349.47 606.78 349.47 606.77 349.48 606.77 349.49 606.75 349.51 606.74 349.52 606.71 349.57 606.68 349.59 606.67 349.6 606.66 349.61 606.65 349.62 606.61 349.64 606.6 349.64 606.58 349.65 606.57 349.66 606.56 349.66 606.54 349.66 606.53 349.67 606.52 349.67 606.5 349.67 606.48 349.67 606.46 349.67 606.43 349.68 606.41 349.68 606.39 349.68 606.37 349.67 606.35 349.67 606.32 349.67 606.29 349.67 606.26 349.67 606.23 349.67 606.21 349.66 606.17 349.66 606.15 349.66 606.12 349.66 606.09 349.66 606.07 349.66 606.05 349.66 606.02 349.67 606.01 349.67 605.99 349.68 605.97 349.68 605.94 349.69 605.92 349.7 605.9 349.71 605.88 349.71 605.86 349.72 605.84 349.72 605.83 349.73 605.81 349.73 605.79 349.73 605.73 349.74 605.7 349.87 605.58 350.3 605.57 350.35 605.46 350.43 605.44 350.45 605.3 350.56 605.22 350.62 605.2 350.63 605.18 350.64 605.18 350.65 605.12 350.72 605.1 350.75 605.08 350.77 605.07 350.78 605.05 350.79 605.04 350.8 605.03 350.81 604.9 350.88 604.69 351 604.61 351.05 604.56 351.08 604.51 351.1 604.48 351.12 604.41 351.15 604.35 351.18 604.2 351.27 604.12 351.31 604.06 351.34 604.01 351.37 603.96 351.45 603.91 351.52 603.85 351.61 603.82 351.66 603.67 351.87 603.62 351.96 603.61 351.97 603.61 351.98 603.6 352.02 603.59 352.07 603.59 352.1 603.59 352.13 603.58 352.16 603.58 352.21 603.58 352.28 603.58 352.3 603.58 352.32 603.58 352.36 603.58 352.38 603.59 352.48 603.59 352.55 603.6 352.59 603.62 352.85 603.62 352.91 603.62 352.94 603.62 352.96 603.62 352.97 603.62 352.98 603.61 353 603.6 353.04 603.58 353.11 603.58 353.14 603.58 353.16 603.57 353.19 603.57 353.21 603.56 353.25 603.55 353.28 603.55 353.3 603.54 353.32 603.5 353.42 603.46 353.53 603.41 353.68 603.4 353.73 603.37 353.82 603.37 353.83 603.36 353.84 603.35 353.86 603.29 354.02 603.24 354.17 603.21 354.23 603.16 354.33 603.13 354.41 603.05 354.61 603.12 354.64 603.15 354.66 603.18 354.66 603.19 354.67 603.21 354.67 603.22 354.68 603.24 354.69 603.25 354.7 603.29 354.72 603.3 354.73 603.32 354.74 603.33 354.75 603.36 354.77 603.39 354.79 603.44 354.83 603.47 354.85 603.49 354.87 603.5 354.89 603.51 354.9 603.52 354.92 603.54 354.94 603.61 355.09 603.66 355.19 603.68 355.23 603.72 355.3 603.74 355.35 603.77 355.4 603.8 355.46 603.84 355.52 603.9 355.63 603.92 355.66 603.93 355.69 603.95 355.74 604.02 355.98 604.02 355.99 604.08 356.18 604.08 356.18 604.12 356.27 604.13 356.31 604.14 356.33 604.15 356.35 604.16 356.39 604.17 356.41 604.17 356.44 604.17 356.47 604.17 356.49 604.17 356.5 604.16 356.52 604.16 356.53 604.15 356.54 604.14 356.56 604.13 356.57 604.1 356.6 604.09 356.63 604.06 356.65 604.06 356.66 604.05 356.67 604.04 356.68 604.01 356.71 603.99 356.73 603.95 356.77 603.94 356.79 603.91 356.82 603.9 356.84 603.89 356.84 603.88 356.86 603.87 356.88 603.85 356.93 603.83 356.96 603.83 356.97 603.82 356.98 603.81 357 603.81 357.01 603.8 357.02 603.8 357.03 603.79 357.04 603.78 357.06 603.77 357.07 603.73 357.13 603.64 357.24 603.6 357.3 603.55 357.34 603.52 357.38 603.43 357.45 603.36 357.5 603.34 357.52 603.31 357.54 603.28 357.57 603.24 357.6 603.19 357.65 603.16 357.69 603.12 357.72 603.08 357.76 603.07 357.77 603.05 357.78 603.04 357.79 603.03 357.79 603.02 357.8 602.99 357.82 602.95 357.85 602.92 357.87 602.91 357.88 602.87 357.92 602.83 357.96 602.8 358 602.78 358.02 602.76 358.05 602.74 358.08 602.69 358.14 602.68 358.17 602.63 358.25 602.58 358.33 602.56 358.37 602.55 358.4 602.53 358.44 602.52 358.47 602.5 358.53 602.48 358.58 602.39 358.78 602.26 358.71 602.24 358.69 602.22 358.68 602.19 358.68 602.17 358.67 602.16 358.67 602.15 358.68 602.13 358.68 602.06 358.68 601.93 358.71 601.91 358.73 601.87 358.75 601.79 358.81 601.66 358.9 601.53 358.99 601.48 359.02 601.43 359.04 601.41 359.05 601.3 359.14 601.21 359.22 601.09 359.32 601.02 359.4 600.99 359.43 600.97 359.44 600.96 359.47 600.96 359.49 600.94 359.51 600.91 359.53 600.81 359.6 600.74 359.64 600.7 359.66 600.65 359.69 600.59 359.71 600.46 359.74 600.34 359.77 600.28 359.78 600.16 359.82 600.04 359.84 599.84 359.88 599.78 359.88 599.7 359.88 599.58 359.87 599.56 359.87 599.55 359.87 599.39 359.86 599.18 359.85 599.12 359.84 599.06 359.83 599.01 359.81 598.95 359.79 598.83 359.67 598.72 359.57 598.61 359.46 598.34 359.2 597.96 358.83 597.91 358.79 597.73 358.62 597.71 358.6 597.61 358.51 597.56 358.47 597.44 358.38 597.34 358.31 597.26 358.27 597.19 358.24 597.12 358.17 597.08 358.14 597.03 358.11 597.01 358.09 596.98 358.05 596.94 358 596.89 357.95 596.84 357.9 596.81 357.88 596.77 357.84 596.73 357.8 596.7 357.76 596.66 357.71 596.63 357.66 596.61 357.63 596.61 357.61 596.61 357.6 596.6 357.6 596.6 357.59 596.6 357.58 596.58 357.53 596.57 357.51 596.57 357.49 596.56 357.48 596.54 357.44 596.51 357.42 596.46 357.4 596.41 357.38 596.37 357.36 596.29 357.33 596.2 357.29 596.12 357.26 596.07 357.24 596 357.24 595.9 357.21 595.78 357.19 595.76 357.19 595.75 357.19 595.71 357.19 595.7 357.2 595.67 357.18 595.61 357.16 595.57 357.14 595.56 357.14 595.53 357.12 595.41 357.05 595.16 356.87 595.09 356.83 594.95 356.73 594.89 356.7 594.74 356.62 594.57 356.54 594.56 356.53 594.38 356.45 594.36 356.44 594.31 356.43 594.3 356.42 594.26 356.41 594.25 356.41 594.19 356.39 594.11 356.36 593.97 356.31 593.95 356.29 593.93 356.26 593.92 356.24 593.91 356.24 593.87 356.2 593.8 356.16 593.78 356.15 593.75 356.13 593.71 356.1 593.66 356.04 593.62 356.01 593.59 355.99 593.55 355.96 593.53 355.92 593.49 355.88 593.46 355.84 593.43 355.82 593.39 355.81 593.33 355.8 593.32 355.78 593.32 355.75 593.31 355.7 593.3 355.66 593.29 355.62 593.28 355.6 593.27 355.57 593.24 355.52 593.24 355.47 593.24 355.45 593.25 355.39 593.25 355.36 593.25 355.33 593.26 355.32 593.29 355.22 593.34 355.14 593.36 355.1 593.38 355.06 593.39 355.04 593.41 355.01 593.42 355 593.43 354.98 593.43 354.95 593.45 354.94 593.46 354.92 593.47 354.92 593.48 354.91 593.5 354.9 593.51 354.89 593.53 354.88 593.54 354.87 593.56 354.87 593.59 354.86 593.64 354.84 593.71 354.83 593.75 354.82 593.79 354.81 593.85 354.8 593.92 354.79 593.96 354.78 593.99 354.77 594.02 354.76 594.03 354.75 594.04 354.75 594.05 354.74 594.07 354.74 594.08 354.73 594.07 354.7 594.07 354.69 594.07 354.67 594.07 354.65 594.07 354.63 594.09 354.52 594.14 354.25 594.19 354.04 594.23 353.85 594.24 353.81 594.27 353.69 594.28 353.67 594.28 353.64 594.29 353.61 594.3 353.59 594.3 353.57 594.31 353.55 594.32 353.52 594.34 353.48 594.35 353.45 594.39 353.38 594.43 353.32 594.45 353.29 594.46 353.28 594.49 353.25 594.51 353.23 594.52 353.22 594.55 353.19 594.65 353.09 594.67 353.06 594.69 353.04 594.7 353.02 594.72 353.01 594.73 352.99 594.73 352.98 594.74 352.97 594.75 352.95 594.76 352.94 594.77 352.93 594.77 352.91 594.78 352.89 594.79 352.88 594.79 352.87 594.79 352.86 594.8 352.85 594.8 352.84 594.8 352.82 594.8 352.81 594.8 352.8 594.79 352.73 594.79 352.68 594.79 352.66 594.79 352.64 594.79 352.63 594.79 352.61 594.78 352.51 594.75 352.4 594.74 352.33 594.73 352.27 594.73 352.24 594.72 352.22 594.72 352.2 594.72 352.19 594.72 352.19 594.72 352.18 594.71 352.17 594.7 352.09 594.67 351.99 594.67 351.98 594.67 351.97 594.66 351.96 594.66 351.95 594.63 351.87 594.62 351.84 594.62 351.84 594.62 351.83 594.62 351.82 594.6 351.74 594.58 351.69 594.56 351.63 594.53 351.46 594.52 351.4 594.5 351.33 594.47 351.19 594.45 351.08 594.44 351.07 594.44 351.06 594.44 351.05 594.44 351.04 594.44 351.03 594.43 351.01 594.44 350.99 594.44 350.98 594.43 350.97 594.43 350.96 594.43 350.86 594.36 350.86 594.34 350.86 594.31 350.86 594.28 350.85 594.27 350.85 594.26 350.85 594.25 350.85 594.23 350.85 594.22 350.85 594.2 350.85 594.19 350.85 594.17 350.85 594.15 350.84 594.14 350.84 594.11 350.83 594.08 350.82 594.03 350.81 593.99 350.8 593.96 350.8 593.95 350.8 593.93 350.8 593.92 350.8 593.87 350.8 593.76 350.82 593.62 350.84 593.6 350.84 593.59 350.84 593.58 350.84 593.57 350.84 593.56 350.84 593.55 350.83 593.53 350.83 593.52 350.82 593.5 350.82 593.49 350.81 593.48 350.81 593.47 350.81 593.47 350.8 593.45 350.79 593.45 350.78 593.44 350.78 593.38 350.7 593.35 350.67 593.32 350.65 593.3 350.63 593.29 350.61 593.27 350.6 593.26 350.6 593.25 350.59 593.21 350.56 593.2 350.56 593.12 350.51 593.11 350.5 593.1 350.49 593.08 350.48 593.06 350.47 593.02 350.44 592.95 350.39 592.9 350.35 592.83 350.29 592.75 350.22 592.61 350.11 592.59 350.09 592.56 350.06 592.53 350.03 592.51 350.02 592.49 349.99 592.48 349.98 592.47 349.97 592.47 349.96 592.46 349.94 592.41 349.85 592.38 349.78 592.16 349.64 592.15 349.64 592.09 349.59 592.06 349.57 592.05 349.55 592.02 349.51 591.92 349.39 591.77 349.21 591.66 349.09 591.58 348.97 591.52 348.88 591.5 348.84 591.43 348.74 591.43 348.73 591.41 348.69 591.4 348.68 591.39 348.66 591.39 348.65 591.38 348.63 591.35 348.54 591.29 348.41 591.28 348.36 591.27 348.33 591.26 348.31 591.26 348.29 591.25 348.28 591.25 348.26 591.25 348.24 591.24 348.23 591.24 348.21 591.24 348.2 591.24 348.18 591.24 348.13 591.24 348.11 591.23 348.09 591.23 348.07 591.23 348.05 591.22 348.03 591.22 348.02 591.22 348.01 591.22 347.99 591.21 347.96 591.2 347.95 591.2 347.92 591.19 347.88 591.18 347.85 591.17 347.83 591.17 347.8 591.14 347.72 591.11 347.64 591.07 347.55 591.04 347.47 591.07 347.46 591.1 347.44 591.12 347.42 591.14 347.41 591.15 347.4 591.17 347.39 591.19 347.39 591.22 347.39 591.23 347.38 591.27 347.36 591.28 347.34 591.3 347.33 591.33 347.3 591.37 347.29 591.41 347.26 591.45 347.24 591.48 347.21 591.52 347.18 591.55 347.16 591.59 347.14 591.63 347.12 591.67 347.11 591.68 347.1 591.7 347.08 591.72 347.06 591.76 347.03 591.77 347.02 591.78 347.01 591.79 347 591.81 346.99 591.84 346.99 591.86 346.98 591.88 346.97 591.9 346.95 591.91 346.94 591.93 346.93 591.95 346.91 591.98 346.91 592.03 346.9 592.07 346.9 592.09 346.89 592.11 346.88 592.15 346.85 592.19 346.83 592.24 346.81 592.28 346.78 592.31 346.77 592.35 346.75 592.39 346.73 592.45 346.7 592.5 346.66 592.56 346.62 592.59 346.59 592.62 346.58 592.63 346.57 592.66 346.56 592.7 346.54 592.75 346.52 592.79 346.51 592.86 346.5 592.92 346.49 592.99 346.49 593.06 346.49 593.13 346.48 593.18 346.46 593.22 346.45 593.24 346.44 593.26 346.42 593.31 346.37 593.34 346.34 593.35 346.33 593.38 346.32 593.4 346.31 593.43 346.3 593.48 346.3 593.5 346.3 593.52 346.3 593.54 346.3 593.57 346.27 593.63 346.25 593.68 346.23 593.73 346.2 593.75 346.19 593.8 346.16 593.83 346.15 593.85 346.15 593.87 346.15 593.9 346.15 593.93 346.14 593.97 346.13 593.99 346.12 594.02 346.11 594.05 346.11 594.07 346.1 594.11 346.11 594.14 346.11 594.18 346.1 594.24 346.1 594.3 346.1 594.33 346.1 594.37 346.09 594.41 346.08 594.44 346.06 594.47 346.04 594.5 346.02 594.53 346.01 594.57 345.98 594.61 345.97 594.63 345.96 594.66 345.95 594.69 345.94 594.77 345.94 594.85 345.93 594.91 345.93 594.97 345.92 594.99 345.92 595.04 345.92 595.07 345.91 595.1 345.89 595.14 345.87 595.15 345.85 595.19 345.84 595.27 345.81 595.38 345.76 595.48 345.73 595.58 345.7 595.67 345.67 595.75 345.64 595.78 345.63 595.86 345.61 595.95 345.59 596.01 345.59 596.05 345.58 596.12 345.58 596.19 345.57 596.23 345.57 596.27 345.57 596.26 345.53 596.25 345.51 596.23 345.44 596.21 345.33 596.15 345.11 596.12 345.02 596.09 344.89 596.07 344.76 596.04 344.63 596.03 344.6 596.01 344.5 595.98 344.39 595.98 344.38 595.98 344.38 595.97 344.33 595.95 344.26 595.94 344.18 595.91 343.98 595.88 343.78 595.85 343.65 595.85 343.62 595.85 343.58 595.84 343.57 595.84 343.5 595.82 343.36 595.81 343.26 595.81 343.24 595.8 343.22 595.77 343.05 595.75 342.9 595.72 342.75 595.7 342.62 595.69 342.53 595.65 342.32 595.64 342.24 595.63 342.17 595.62 342.11 595.6 342.06 595.61 342 595.61 341.94 595.62 341.9 595.63 341.85 595.66 341.8 595.66 341.79 595.7 341.71 595.73 341.65 595.78 341.53 595.82 341.46 595.82 341.45 595.83 341.42 595.86 341.31 595.88 341.19 595.9 341.08 595.92 340.98 595.94 340.88 595.95 340.83 595.97 340.75 595.98 340.67 595.99 340.59 595.98 340.55 595.97 340.51 595.96 340.47 595.94 340.42 595.91 340.35 595.88 340.28 595.85 340.18 595.83 340.07 595.82 339.97 595.81 339.88 595.8 339.75 595.79 339.64 595.78 339.55 595.78 339.47 595.78 339.46 595.78 339.41 595.77 339.37 595.78 339.38 595.89 339.43 595.95 339.46 596 339.47 596.09 339.49 596.13 339.5 596.2 339.49 596.25 339.48 596.36 339.44 596.57 339.35 596.72 339.29 596.84 339.21 596.97 339.13 597.03 339.07 597.09 339 597.16 338.91 597.22 338.81 597.25 338.76 597.28 338.65 597.31 338.55 597.38 338.41 597.41 338.35 597.48 338.37 597.53 338.39 597.57 338.41 597.65 338.43 597.71 338.45 597.88 338.47 598.05 338.49 598.1 338.49 598.28 338.51 598.53 338.52 598.65 338.52 598.67 338.52 598.7 338.52 598.73 338.52 598.82 338.52 598.84 338.52 598.85 338.52 598.91 338.52 599.01 338.51 599.08 338.5 599.16 338.49 599.28 338.48 599.37 338.47 599.42 338.46 599.45 338.46 599.56 338.43 599.65 338.41 599.74 338.38 599.77 338.37 599.83 338.35 599.94 338.35 600 338.36 600.1 338.39 600.25 338.43 600.39 338.45 600.62 338.49 600.75 338.54 600.81 338.55 600.85 338.56 600.87 338.56 600.91 338.57 601.06 338.58 601.19 338.59 601.25 338.59 601.48 338.61 601.57 338.62 601.55 338.51 601.55 338.48 601.51 338.28 601.51 338.27 601.51 338.25 601.51 338.24 601.51 338.15 601.5 338.01 601.5 337.98 601.51 337.88 601.51 337.77 601.52 337.59 601.53 337.46 601.53 337.35 601.62 337.08 601.68 336.89 601.81 336.48 601.88 336.25 601.9 336.19 601.95 336.04 601.98 335.94 601.99 335.91 602 335.87 602.06 335.81 602.14 335.71 602.2 335.65 602.39 335.5 602.74 335.18 602.82 335.1 602.91 334.99 602.99 334.9 603.1 334.77 603.1 334.57 603.11 334.38 603.12 334.33 603.12 334.28 603.12 334.26 603.12 334.24 603.12 334.19 603.13 334.17 603.13 334.16 603.13 334.08 603.13 334.07 603.13 333.99 603.11 333.73 603.1 333.6 603.08 333.57 603.02 333.5 602.98 333.45 602.88 333.33 602.81 333.2 602.74 333.03 602.7 332.94 602.67 332.87 602.66 332.83 602.65 332.79 602.65 332.74 602.66 332.7 602.69 332.63 602.82 332.44 602.82 332.3 602.82 332.06 602.82 331.94 602.8 331.6 602.79 331.47 602.78 331.4 602.79 331.36 602.89 331.15 602.9 331.13 602.92 331.06 602.93 330.87 602.93 330.82 602.93 330.8 602.91 330.75 602.89 330.7 602.88 330.67 602.81 330.48 602.8 330.46 602.79 330.44 602.78 330.32 602.75 330.11 602.96 330.17 603.28 330.26 603.5 330.32 603.57 330.35 603.58 330.35 603.71 330.4 603.83 330.45 603.84 330.46 603.87 330.47 603.92 330.51 604.01 330.58 604.1 330.65 604.14 330.69 604.16 330.68 604.23 330.68 604.19 330.5 604.11 330.2 604.15 330.08 604.09 329.87 604.06 329.75 603.96 329.57 603.84 329.34 603.66 329 603.56 328.81 603.61 328.71 603.65 328.59 603.65 328.56 603.65 328.21 603.44 327.99 603.31 327.85 603.3 327.84 603.29 327.81 603.22 327.6 603.17 327.44 603.16 327.39 603.13 327.23 603.08 327.08 603.07 327.02 603.03 326.93 603.01 326.9 602.79 326.64 602.57 326.38 602.55 326.36 602.48 326.2 602.44 326.08 602.44 325.97 602.44 325.89 602.48 325.82 602.54 325.69 602.56 325.67 602.66 325.48 602.67 325.47 602.68 325.45 602.68 325.43 602.78 325.26 603.15 324.57 603.32 324.26 603.36 324.11 603.42 323.88 603.41 323.85 603.48 323.81 603.57 323.74 603.68 323.65 603.8 323.56 603.91 323.47 604.05 323.38 604.17 323.25 604.18 323.25 604.19 323.24 604.28 323.14 604.45 322.96 604.61 322.81 604.73 322.68 604.76 322.65 604.76 322.65 604.77 322.64 604.82 322.59 604.85 322.56 604.96 322.66 605.05 322.77 605.17 322.92 605.24 323.05 605.3 323.15 605.37 323.25 605.41 323.3 605.45 323.33 605.51 323.36 605.55 323.4 605.58 323.42 605.63 323.44 605.71 323.46 605.77 323.49 605.83 323.52 605.96 323.55 606.13 323.57 606.27 323.57 606.37 323.58 606.48 323.59 606.58 323.58 606.72 323.56 606.83 323.53 606.94 323.51 607.01 323.48 607.07 323.48 607.17 323.44 607.28 323.39 607.4 323.32 607.56 323.22 607.62 323.17 607.7 323.11 607.8 322.98 607.83 322.95 607.89 322.91 607.93 322.87 607.99 322.79 608.05 322.71 608.09 322.63 608.13 322.58 608.19 322.55 608.32 322.47 608.45 322.39 608.55 322.33 608.83 322.19 608.88 322.16 608.95 322.1 609.07 322 609.21 321.87 609.33 321.75 609.46 321.62 609.56 321.53 609.6 321.47 609.66 321.4 609.73 321.33 609.79 321.26 609.87 321.18 609.93 321.11 610.01 321.07 610.11 321.01 610.2 320.98 610.28 320.97 610.44 321 610.51 321.05 610.6 321.16 610.66 321.24 610.68 321.29 610.72 321.29 610.73 321.28 610.78 321.28 610.94 321.24 610.98 321.26 611.09 321.3 611.2 321.35 611.34 321.34 611.5 321.33 611.54 321.32 611.62 321.32 611.63 321.32 611.67 321.15 611.71 321.06 611.73 321 611.82 320.8 611.91 320.6 611.99 320.42 612.03 320.32 612.07 320.23 612.1 320.17 612.12 320.11 612.13 320.07 612.14 320.04 612.14 320.01 612.15 319.92 612.15 319.86 612.16 319.82 612.18 319.76 612.2 319.7 612.21 319.67 612.22 319.64 612.25 319.56 612.26 319.51 612.39 319.54 612.46 319.43 612.54 319.29 612.58 319.22 612.74 319.24 612.8 319.19 612.86 319.13 612.92 319.07 613 319.01 613.06 318.95 613.14 318.89 613.23 318.82 613.34 318.73 613.44 318.65 613.51 318.6 613.58 318.56 613.64 318.52 613.69 318.49 613.8 318.42 613.89 318.37 613.98 318.31 614.02 318.28 614.03 318.28 614.1 318.18 614.11 318.16 614.15 318.09 614.18 318.05 614.19 318.03 614.26 317.95 614.34 317.86 614.39 317.81 614.45 317.74 614.57 317.66 614.64 317.61 614.65 317.6 614.66 317.59 614.75 317.53 614.85 317.46 614.86 317.45 614.9 317.42 614.91 317.42 614.94 317.39 615 317.34 615.09 317.26 615.18 317.18 615.27 317.11 615.31 317.07 615.41 317.01 615.52 316.95 615.58 316.92 615.64 316.89 615.69 316.88 615.74 316.88 615.83 316.86 615.91 316.85 616 316.83 616.08 316.82 616.15 316.8 616.24 316.78 616.31 316.74 616.36 316.73 616.39 316.73 616.43 316.72 616.46 316.7 616.48 316.66 616.5 316.66 616.56 316.6 616.65 316.52 616.78 316.4 616.9 316.29 617 316.2 617.1 316.11 617.22 316.01 617.29 315.94 617.31 315.9 617.35 315.82 617.43 315.72 617.53 315.69 617.65 315.66 617.74 315.64 617.82 315.62 617.93 315.6 617.96 315.6 618.02 315.58 618.17 315.54 618.29 315.52 618.39 315.5 618.43 315.5 618.56 315.47 618.62 315.46 618.66 315.46 618.74 315.46 618.78 315.46 618.81 315.46 618.83 315.45 618.86 315.44 618.92 315.42 619.01 315.38 619.05 315.36 619.1 315.34 619.15 315.32 619.21 315.29 619.24 315.28 619.27 315.26 619.33 315.24 619.38 315.21 619.4 315.2 619.43 315.19 619.46 315.18 619.5 315.17 619.54 315.16 619.57 315.15 619.6 315.14 619.66 315.11 619.68 315.1 619.7 315.08 619.71 315.06 619.74 315.03 619.77 315.01 619.79 315 619.8 314.99 619.82 314.99 619.85 314.98 619.89 314.98 619.91 314.98 619.94 314.99 619.99 314.98 620.03 314.98 620.05 314.97 620.13 314.97 620.18 314.96 620.2 314.96 620.21 314.96 620.27 314.94 620.36 314.91 620.45 314.88 620.5 314.88 620.52 314.87 620.55 314.86 620.57 314.86 620.59 314.87 620.63 314.88 620.71 314.9 620.81 314.92 620.92 314.95 620.95 314.95 620.96 314.95 621 314.96 621.02 314.97 621.1 315 621.13 315.01 621.14 315.01 621.25 315.05 621.35 315.09 621.38 315.1 621.4 315.11 621.47 315.14 621.48 315.15 621.51 315.16 621.52 315.17 621.54 315.17 621.57 315.19 621.6 315.2 621.62 315.21 621.71 315.25 621.76 315.23 621.79 315.23 621.82 315.22 621.85 315.22 621.87 315.22 621.89 315.23 621.92 315.24 621.94 315.24 621.95 315.25 621.96 315.25 621.96 315.26 621.97 315.26 621.97 315.27 622 315.32 622.02 315.36 622.03 315.38 622.07 315.48 622.08 315.48 622.11 315.57 622.14 315.64 622.21 315.82 622.28 315.98 622.29 316.01 622.33 316.08 622.33 316.09 622.33 316.1 622.36 316.18 622.41 316.32 622.46 316.47 622.5 316.62 622.55 316.79 622.58 316.94 622.59 317.01 622.61 317.09 622.63 317.2 622.65 317.26 622.66 317.28 622.7 317.3 622.75 317.32 622.79 317.34 622.83 317.35 622.88 317.38 622.98 317.43 623.01 317.45 623.02 317.46 623.04 317.47 623.05 317.49 623.06 317.49 623.07 317.5 623.08 317.5 623.1 317.51 623.14 317.51 623.17 317.51 623.18 317.52 623.21 317.53 623.25 317.54 623.26 317.55 623.28 317.57 623.28 317.58 623.3 317.59 623.31 317.6 623.33 317.61 623.34 317.61 623.37 317.61 623.39 317.61 623.42 317.61 623.44 317.61 623.46 317.61 623.48 317.61 623.5 317.62 623.53 317.62 623.64 317.67 623.74 317.71 623.85 317.75 623.97 317.79 624 317.8 624.04 317.81 624.17 317.83 624.29 317.86 624.43 317.91 624.5 317.92 624.52 317.93 Z"/>
</g></svg>