<svg xmlns="http://www.w3.org/2000/svg" version="1.2" baseProfile="tiny" stroke-linecap="round" stroke-linejoin="round" viewBox="614.03 262.58 51.17 72.85"><g xmlns="http://www.w3.org/2000/svg" id="Urraulgoiti">
<path d="M 635.44 265.81 635.5 265.83 635.6 265.86 635.75 265.89 635.87 265.91 635.91 265.91 636.05 265.93 636.18 265.94 636.3 265.96 636.45 265.96 636.55 265.97 636.67 265.97 636.8 265.97 636.9 265.98 637 265.97 637.1 265.97 637.19 265.97 637.29 265.97 637.37 265.97 637.53 265.97 637.7 265.96 637.87 265.95 638.08 265.93 638.21 265.91 638.33 265.9 638.44 265.89 638.57 265.87 638.69 265.85 638.78 265.84 638.88 265.81 639.01 265.79 639.08 265.85 639.2 265.95 639.29 266.04 639.37 266.11 639.46 266.19 639.57 266.28 639.68 266.38 639.76 266.46 639.84 266.54 639.97 266.65 640.06 266.73 640.07 266.73 640.08 266.74 640.13 266.79 640.17 266.83 640.3 266.76 640.41 266.71 640.54 266.65 640.66 266.6 640.78 266.55 640.9 266.49 641.03 266.43 641.15 266.38 641.29 266.32 641.42 266.26 641.55 266.21 641.64 266.17 641.74 266.12 641.85 266.07 641.97 266.02 642.04 265.99 642.06 265.98 642.17 265.93 642.25 265.89 642.42 265.88 642.45 265.88 642.49 265.88 642.68 265.87 642.82 265.86 642.88 265.86 643.11 265.85 643.29 265.84 643.48 265.83 643.55 265.83 643.7 265.82 643.89 265.81 643.91 265.82 643.93 265.82 643.94 265.82 644.02 265.83 644.15 265.84 644.32 265.85 644.39 265.86 644.49 265.87 644.53 265.87 644.66 265.88 644.78 265.9 644.84 265.9 644.93 265.95 645.03 266.01 645.04 266.02 645.13 266.08 645.18 266.11 645.24 266.15 645.37 266.23 645.46 266.29 645.57 266.36 645.69 266.44 645.78 266.49 645.87 266.55 646 266.63 646.12 266.7 646.24 266.78 646.34 266.84 646.39 266.99 646.44 267.17 646.49 267.31 646.53 267.44 646.57 267.57 646.6 267.69 646.62 267.75 646.63 267.83 646.64 267.95 646.65 268.08 646.67 268.2 646.68 268.33 646.68 268.39 646.71 268.48 646.76 268.6 646.8 268.7 646.85 268.8 646.89 268.9 646.92 268.98 646.93 269 646.94 269.02 646.99 269.13 647.02 269.23 647.03 269.32 647.04 269.4 647.04 269.43 647.06 269.57 647.07 269.7 647.08 269.83 647.1 269.97 647.11 270.08 647.12 270.21 647.13 270.34 647.14 270.45 647.16 270.59 647.17 270.68 647.18 270.81 647.19 270.94 647.2 271.06 647.21 271.19 647.23 271.3 647.23 271.35 647.24 271.45 647.26 271.52 647.27 271.56 647.27 271.57 647.28 271.61 647.3 271.67 647.33 271.75 647.36 271.82 647.39 271.88 647.41 271.93 647.42 271.95 647.43 271.96 647.48 272.05 647.51 272.13 647.54 272.2 647.57 272.15 647.59 272.12 647.65 272.01 647.7 271.94 647.71 271.92 647.71 271.91 647.77 271.81 647.82 271.73 647.86 271.67 647.91 271.58 647.93 271.54 648.02 271.56 648.09 271.57 648.17 271.58 648.3 271.6 648.41 271.61 648.47 271.61 648.53 271.62 648.59 271.62 648.66 271.61 648.72 271.6 648.78 271.59 648.83 271.57 648.88 271.55 648.95 271.52 648.97 271.51 648.98 271.51 649 271.5 649.06 271.47 649.14 271.43 649.22 271.37 649.26 271.35 649.33 271.5 649.39 271.63 649.45 271.76 649.5 271.87 649.51 271.88 649.52 271.9 649.55 271.97 649.56 272.01 649.57 272.02 649.59 272.04 649.65 272.07 649.75 272.12 649.85 272.16 649.89 272.25 649.93 272.34 649.97 272.41 649.99 272.44 650.02 272.5 650.03 272.52 650.1 272.64 650.17 272.76 650.19 272.78 650.2 272.8 650.27 272.91 650.35 273.04 650.43 273.16 650.51 273.28 650.57 273.38 650.62 273.45 650.69 273.54 650.76 273.66 650.77 273.67 650.85 273.78 650.93 273.88 650.98 273.95 651.04 274.05 651.08 274.1 651.14 274.14 651.21 274.17 651.25 274.19 651.33 274.17 651.46 274.14 651.55 274.12 651.61 274.1 651.65 274.09 651.76 274.09 651.86 274.1 651.98 274.1 652.12 274.11 652.16 274.12 652.19 274.13 652.21 274.15 652.24 274.22 652.27 274.26 652.3 274.31 652.33 274.35 652.34 274.36 652.39 274.42 652.43 274.48 652.47 274.53 652.54 274.6 652.59 274.68 652.64 274.73 652.68 274.78 652.7 274.8 652.69 274.89 652.68 274.98 652.68 275.07 652.67 275.17 652.66 275.28 652.65 275.38 652.65 275.45 652.65 275.46 652.64 275.5 652.69 275.58 652.74 275.65 652.76 275.7 652.77 275.72 652.81 275.78 652.83 275.83 652.84 275.84 652.85 275.86 652.9 275.94 652.95 276.02 652.97 276.07 652.99 276.1 653.03 276.18 653.04 276.2 653.07 276.24 653.05 276.35 653.04 276.45 653.02 276.53 653.06 276.61 653.11 276.71 653.15 276.78 653.16 276.78 653.18 276.82 653.11 276.87 653.06 276.9 652.98 276.95 653.04 277.02 653.11 277.09 653.17 277.18 653.25 277.27 653.33 277.35 653.39 277.42 653.46 277.49 653.52 277.57 653.59 277.65 653.65 277.72 653.74 277.82 653.83 277.92 653.89 278 653.95 278.07 653.98 278.1 654.05 278.18 654.09 278.23 654.19 278.25 654.3 278.28 654.39 278.3 654.46 278.31 654.57 278.33 654.69 278.35 654.82 278.38 654.93 278.41 655.03 278.43 655.14 278.45 655.24 278.47 655.34 278.49 655.43 278.51 655.53 278.53 655.67 278.56 655.73 278.57 655.83 278.57 655.97 278.57 656.04 278.57 656.15 278.57 656.23 278.57 656.3 278.57 656.39 278.58 656.49 278.57 656.59 278.57 656.7 278.58 656.81 278.57 656.87 278.58 656.95 278.58 657.04 278.58 657.15 278.58 657.23 278.57 657.32 278.58 657.42 278.58 657.52 278.58 657.47 278.7 657.42 278.86 657.39 278.92 657.39 278.98 657.4 279.06 657.4 279.12 657.4 279.15 657.39 279.18 657.39 279.19 657.39 279.2 657.38 279.27 657.37 279.35 657.35 279.48 657.34 279.57 657.32 279.7 657.31 279.75 657.32 279.85 657.32 279.9 657.31 279.94 657.29 280.03 657.23 280.15 657.22 280.19 657.21 280.3 657.19 280.41 657.19 280.44 657.19 280.51 657.18 280.57 657.17 280.63 657.15 280.68 657.13 280.72 657.13 280.73 657.13 280.74 657.12 280.78 657.13 280.81 657.13 280.83 657.12 280.87 657.11 280.9 657.09 280.96 657.08 281.01 657.07 281.07 657.07 281.1 657.07 281.13 657.06 281.15 657.06 281.18 657.06 281.21 657.08 281.23 657.11 281.36 657.12 281.41 657.12 281.43 657.11 281.47 657.11 281.5 657.1 281.53 657.1 281.58 657.11 281.62 657.12 281.69 657.13 281.74 657.14 281.76 657.16 281.79 657.16 281.82 657.17 281.88 657.17 281.97 657.17 282.05 657.17 282.13 657.17 282.18 657.17 282.21 657.18 282.22 657.19 282.24 657.18 282.24 657.11 282.31 657.04 282.38 656.96 282.48 656.9 282.58 656.85 282.69 656.82 282.78 656.79 282.87 656.77 282.95 656.75 283.06 656.75 283.17 656.72 283.17 656.62 283.18 656.49 283.21 656.41 283.23 656.26 283.28 656.07 283.36 655.92 283.35 655.9 283.34 655.86 283.31 655.8 283.35 655.89 283.6 655.93 283.74 655.96 283.86 655.97 283.88 655.99 283.92 656 283.93 656.03 284.01 656.06 284.06 656.08 284.11 656.14 284.25 656.36 284.77 656.68 285.55 656.72 285.64 656.73 285.93 656.74 286.02 656.77 286.14 656.77 286.16 656.83 286.43 656.86 286.6 656.89 286.7 656.91 286.84 656.94 286.98 656.94 287.04 656.96 287.16 656.97 287.29 656.97 287.4 656.96 287.51 656.96 287.61 656.95 287.67 656.95 287.79 656.95 287.81 656.95 288 656.94 288.22 656.94 288.31 656.93 288.46 656.93 288.6 656.93 288.67 656.93 288.7 656.93 288.74 656.92 288.86 656.92 288.95 656.96 289.04 657.04 289.21 657.07 289.27 657.14 289.42 657.17 289.49 657.24 289.63 657.31 289.78 657.33 289.81 657.37 289.85 657.41 289.89 657.47 289.94 657.49 289.95 657.56 290.02 657.63 290.1 657.71 290.18 657.77 290.26 657.83 290.34 657.87 290.43 657.89 290.47 657.92 290.55 657.98 290.7 658.03 290.83 658.04 290.88 658.07 290.96 658.14 291.13 658.18 291.25 658.2 291.3 658.25 291.44 658.41 291.49 658.52 291.53 658.66 291.58 658.81 291.64 658.93 291.68 659.04 291.69 659.19 291.7 659.32 291.71 659.43 291.72 659.56 291.73 659.61 291.73 659.69 291.74 659.8 291.75 659.87 291.75 660.02 291.76 660.13 291.77 660.12 291.83 660.1 291.96 660.07 292.09 660.06 292.14 660.05 292.21 660.02 292.33 659.99 292.49 659.99 292.52 659.96 292.63 660.01 292.72 660.05 292.77 660.07 292.8 660.08 292.82 660.16 292.94 660.23 293.06 660.28 293.13 660.31 293.18 660.38 293.28 660.43 293.37 660.47 293.44 660.53 293.55 660.62 293.71 660.68 293.83 660.74 293.93 660.8 293.95 660.82 293.95 660.9 293.95 661.01 293.95 661.16 293.95 661.27 293.95 661.34 293.95 661.49 294.11 661.64 294.27 661.76 294.4 661.83 294.48 661.86 294.51 661.86 294.52 661.87 294.53 661.87 294.54 661.86 294.56 661.87 294.58 661.85 294.65 661.84 294.7 661.82 294.75 661.81 294.78 661.79 294.83 661.77 294.87 661.73 294.94 661.69 295.02 661.65 295.1 661.6 295.18 661.57 295.25 661.56 295.27 661.51 295.35 661.48 295.41 661.48 295.42 661.47 295.44 661.46 295.48 661.45 295.49 661.42 295.63 661.39 295.81 661.36 295.97 661.36 295.98 661.35 296 661.33 296.16 661.3 296.3 661.28 296.41 661.26 296.48 661.24 296.6 661.22 296.72 661.2 296.81 661.18 296.9 661.26 296.96 661.34 297.1 661.35 297.12 661.44 297.27 661.49 297.37 661.55 297.48 661.56 297.51 661.59 297.56 661.61 297.64 661.61 297.69 661.63 297.78 661.64 297.84 661.65 297.87 661.68 298 661.8 298.03 661.88 298.05 662 298.08 662.06 298.07 662.36 298.05 662.47 298.05 662.61 298.04 662.69 298.03 662.76 298.03 663.12 298 663.3 297.97 663.36 297.97 663.57 297.95 663.59 297.95 663.78 297.93 664.03 297.91 664.26 297.9 664.49 297.9 664.59 297.9 664.87 297.91 665.1 297.93 665.08 297.98 664.96 298.34 664.93 298.43 664.93 298.47 664.99 298.7 665 298.72 665.02 298.79 665.09 299.04 664.94 299.45 664.93 299.48 664.92 299.51 664.85 299.68 664.85 299.68 664.84 299.72 664.8 299.89 664.78 300.07 664.78 300.07 665.17 301.08 664.74 301.5 664.49 301.45 664.35 301.43 664.33 301.42 664.22 301.41 664.06 301.38 663.98 301.36 663.92 301.36 663.79 301.37 663.48 301.41 663.38 301.42 663.36 301.42 663.14 301.45 662.8 301.49 662.59 301.51 662.51 301.52 662.3 301.54 662.2 301.56 662.04 301.58 661.95 301.58 661.66 301.61 661.61 301.68 661.56 301.77 661.53 301.82 661.35 302.07 661.17 302.32 661.08 302.34 660.98 302.36 660.82 302.38 660.67 302.41 660.52 302.48 660.51 302.67 660.51 302.83 660.51 302.97 660.51 303.09 660.5 303.17 660.48 303.33 660.45 303.45 660.37 303.51 660.21 303.62 660.04 303.74 659.93 303.82 659.84 303.89 659.87 304.02 659.9 304.09 659.96 304.21 659.98 304.3 659.99 304.34 660 304.39 660.01 304.43 660.04 304.48 660.06 304.52 660.07 304.55 660.08 304.59 660.08 304.65 660.07 304.74 660.06 304.81 660.06 304.87 660.05 304.94 660.05 304.99 660.05 305.03 660.04 305.07 660.04 305.12 660.03 305.15 660.02 305.17 660.02 305.21 660.03 305.25 660.03 305.28 660.03 305.32 660.04 305.35 660.05 305.41 660.05 305.47 660.05 305.53 660.05 305.59 660.05 305.64 660.06 305.7 660.07 305.76 660.08 305.81 660.09 305.86 660.09 305.91 660.09 305.95 660.09 305.99 660.08 306.04 660.08 306.09 660.07 306.15 660.07 306.24 660.06 306.29 660.05 306.33 660.02 306.39 660 306.45 659.97 306.5 659.95 306.54 659.94 306.58 659.94 306.61 659.93 306.63 659.92 306.67 659.9 306.71 659.87 306.75 659.86 306.78 659.85 306.82 659.83 306.89 659.82 306.9 659.81 306.92 659.8 306.93 659.79 306.98 659.78 307.02 659.78 307.04 659.78 307.05 659.78 307.07 659.78 307.1 659.77 307.13 659.74 307.18 659.71 307.23 659.69 307.26 659.66 307.31 659.64 307.36 659.62 307.39 659.61 307.4 659.61 307.43 659.61 307.47 659.6 307.49 659.6 307.52 659.59 307.55 659.57 307.6 659.55 307.65 659.52 307.7 659.49 307.73 659.47 307.76 659.45 307.78 659.43 307.8 659.4 307.81 659.37 307.82 659.33 307.82 659.28 307.82 659.24 307.81 659.17 307.82 659.14 307.82 659.1 307.84 659.05 307.87 659.03 307.89 659 307.93 658.99 307.96 658.98 307.99 658.97 308.03 658.96 308.08 658.94 308.11 658.9 308.14 658.87 308.15 658.84 308.17 658.81 308.18 658.79 308.2 658.77 308.22 658.76 308.27 658.75 308.32 658.74 308.36 658.73 308.4 658.71 308.44 658.68 308.47 658.63 308.5 658.61 308.52 658.59 308.54 658.57 308.57 658.55 308.6 658.54 308.62 658.51 308.63 658.48 308.65 658.46 308.66 658.44 308.69 658.42 308.72 658.39 308.74 658.35 308.76 658.32 308.77 658.3 308.78 658.28 308.79 658.24 308.81 658.21 308.81 658.19 308.82 658.17 308.85 658.15 308.86 658.13 308.86 658.11 308.86 658.1 308.87 658.06 308.9 658.05 308.9 658.01 308.93 657.97 308.95 657.95 308.97 657.9 309 657.85 309.04 657.79 309.07 657.73 309.11 657.66 309.15 657.61 309.19 657.55 309.23 657.47 309.27 657.42 309.31 657.39 309.32 657.34 309.29 657.26 309.23 657.17 309.17 657.1 309.11 657.05 309.07 657.03 309.06 656.98 309.02 656.92 308.97 656.84 308.92 656.83 308.91 656.82 308.9 656.78 308.87 656.71 308.82 656.65 308.78 656.58 308.73 656.53 308.7 656.5 308.7 656.45 308.69 656.41 308.69 656.37 308.69 656.32 308.7 656.27 308.72 656.22 308.74 656.2 308.76 656.17 308.79 656.13 308.82 656.08 308.85 656.01 308.89 655.95 308.92 655.89 308.95 655.8 308.98 655.74 309 655.69 309.02 655.64 309.04 655.59 309.06 655.55 309.08 655.51 309.09 655.48 309.11 655.44 309.13 655.4 309.17 655.37 309.2 655.35 309.21 655.33 309.23 655.3 309.25 655.27 309.26 655.22 309.26 655.16 309.25 655.1 309.25 655.04 309.24 654.99 309.22 654.95 309.2 654.89 309.17 654.82 309.13 654.76 309.09 654.68 309.05 654.6 309 654.49 308.93 654.4 308.88 654.33 308.84 654.26 308.8 654.12 308.74 653.81 308.59 653.71 308.55 653.67 308.54 653.63 308.54 653.54 308.6 653.34 308.69 653.3 308.72 653.21 308.81 653.11 308.9 653.08 308.94 653.02 309 652.97 309.07 652.95 309.1 652.93 309.15 652.91 309.24 652.87 309.37 652.84 309.48 652.81 309.59 652.79 309.69 652.77 309.73 652.72 309.81 652.67 309.91 652.6 310.02 652.52 310.16 652.42 310.32 652.34 310.47 652.27 310.58 652.17 310.74 652.16 310.76 652.07 310.9 652.05 310.94 652 311.02 651.88 311.22 651.83 311.29 651.71 311.13 651.65 311.05 651.64 311.04 651.51 310.87 651.35 310.67 651.2 310.46 651.04 310.27 650.82 309.97 650.6 309.69 650.37 309.38 650.14 309.08 650.03 309.01 649.79 308.86 649.76 308.87 649.64 308.91 649.62 308.92 649.44 308.99 649.39 309.01 649.37 309.01 648.66 308.72 648.62 308.76 648.57 308.81 648.17 309.25 647.79 309.67 647.73 309.73 647.59 309.89 647.42 310.07 647.35 310.15 647.22 310.3 647.07 310.61 647.06 310.63 647.05 310.64 647.03 310.7 646.95 310.84 646.89 310.97 646.84 311.08 646.84 311.08 646.77 311.23 646.72 311.33 646.66 311.45 646.65 311.47 646.65 311.48 646.59 311.6 646.38 311.9 646.38 311.91 646.25 312.11 646.23 312.13 646.05 312.42 645.97 312.46 645.93 312.55 645.84 312.68 645.75 312.8 645.74 312.81 645.73 312.82 645.63 312.93 645.55 313.01 645.54 313.03 645.52 313.05 645.41 313.23 645.35 313.32 645.32 313.4 645.21 313.71 645.21 313.72 645.2 313.75 645.19 313.77 645.3 314.08 645.31 314.11 645.31 314.2 645.3 314.31 645.29 314.55 645.3 314.57 645.31 314.61 645.4 314.82 645.68 315.43 645.8 315.7 645.81 315.71 645.81 315.73 645.91 315.94 645.98 316.1 646.06 316.27 646.28 316.79 646.27 316.96 646.27 316.98 646.26 317.11 646.25 317.23 646.28 317.33 646.38 317.56 646.12 317.8 645.98 317.94 645.82 318.09 645.81 318.1 645.61 318.29 645.29 318.6 644.96 318.55 644.85 318.54 644.71 318.52 644.4 318.49 644.38 318.48 644.35 318.48 644.27 318.48 644.23 318.48 643.93 318.48 643.87 318.5 643.59 318.57 643.47 318.58 643.21 318.59 642.98 318.52 642.9 318.34 642.87 318.28 642.86 318.26 642.84 318.22 642.75 318.02 642.71 317.99 642.61 317.92 642.54 317.88 642.45 317.85 642.34 317.82 642.28 317.8 642.17 317.77 642.03 317.72 641.85 317.65 641.79 317.63 641.76 317.62 641.71 317.62 641.62 317.62 641.44 317.62 641.28 317.62 641.18 317.62 641.08 317.62 641.04 317.59 640.99 317.57 640.98 317.57 640.9 317.54 640.81 317.51 640.72 317.48 640.59 317.44 640.5 317.41 640.43 317.39 640.35 317.38 640.27 317.38 640.2 317.38 640.12 317.38 640.05 317.38 639.97 317.38 639.88 317.39 639.76 317.41 639.65 317.43 639.57 317.46 639.55 317.48 639.47 317.57 639.35 317.68 639.25 317.79 639.14 317.89 639.02 318.01 638.89 318.14 638.77 318.26 638.67 318.35 638.49 318.48 638.36 318.57 638.28 318.62 638.22 318.67 638.14 318.72 638.07 318.73 637.96 318.74 637.93 318.77 637.96 318.8 637.98 318.82 637.97 318.83 637.9 318.85 637.87 318.86 637.83 318.88 637.69 318.93 637.57 318.98 637.46 319.02 637.44 319.03 637.32 319.07 637.21 319.12 637.06 319.17 636.9 319.24 636.76 319.29 636.63 319.34 636.48 319.34 636.41 319.34 636.21 319.46 636.01 319.58 635.85 319.68 635.58 319.85 635.43 319.94 635.42 319.95 635 320.21 634.93 320.72 634.92 320.79 634.91 320.8 634.89 320.92 634.82 321.07 634.67 321.38 634.65 321.44 634.64 321.45 634.59 321.55 634.43 321.9 634.34 322.06 634.29 322.06 634.12 322.07 633.9 322.06 633.9 322.05 633.9 322.04 633.89 322.01 633.88 321.97 633.87 321.96 633.87 321.95 633.86 321.94 633.83 321.92 633.8 321.9 633.78 321.89 633.72 321.85 633.67 321.82 633.62 321.78 633.57 321.75 633.56 321.75 633.38 321.64 633.33 321.62 633.2 321.56 633.08 321.52 633.04 321.51 632.91 321.46 632.76 321.4 632.6 321.34 632.36 321.26 632.2 321.2 632.13 321.18 632.06 321.15 631.99 321.13 631.92 321.1 631.88 321.08 631.84 321.07 631.81 321.06 631.77 321.04 631.66 321.01 631.58 320.98 631.52 320.95 631.46 320.94 631.41 320.92 631.37 320.9 631.33 320.89 631.32 320.89 631.28 320.87 631.22 320.84 631.15 320.81 631.04 320.76 630.96 320.71 630.88 320.67 630.79 320.63 630.71 320.59 630.63 320.55 630.59 320.53 630.58 320.52 630.5 320.48 630.46 320.46 630.45 320.45 630.41 320.44 630.39 320.43 630.33 320.41 630.28 320.39 630.2 320.36 630.02 320.3 629.89 320.26 629.77 320.22 629.66 320.19 629.52 320.14 629.37 320.09 629.26 320.03 629.25 320.03 629.23 320.02 629.18 319.99 629.01 319.91 628.9 319.86 628.87 319.84 628.85 319.84 628.83 319.83 628.74 319.79 628.63 319.73 628.61 319.73 628.6 319.72 628.59 319.72 628.58 319.71 628.57 319.7 628.56 319.69 628.55 319.68 628.54 319.67 628.53 319.66 628.37 319.47 628.32 319.42 628.3 319.4 628.29 319.39 628.27 319.37 628.2 319.31 628.16 319.27 628.14 319.25 627.94 319.11 627.88 319.06 627.61 318.86 627.53 318.8 627.19 318.55 627.07 318.45 626.97 318.38 626.77 318.23 626.6 318.1 626.59 318.09 626.57 318.08 626.56 318.08 626.54 318.07 626.51 318.05 626.41 318.01 626.4 318.01 626.37 317.99 626.34 317.98 626.33 317.98 626.3 317.96 626.22 317.95 626.14 317.95 626.05 317.96 625.93 317.96 625.89 317.96 625.82 317.96 625.72 317.96 625.58 317.96 625.45 317.96 625.31 317.95 625.2 317.95 625.09 317.95 624.99 317.94 624.9 317.94 624.8 317.94 624.66 317.93 624.52 317.93 624.5 317.92 624.43 317.91 624.29 317.86 624.17 317.83 624.04 317.81 624 317.8 623.97 317.79 623.85 317.75 623.74 317.71 623.64 317.67 623.53 317.62 623.5 317.62 623.48 317.61 623.46 317.61 623.44 317.61 623.42 317.61 623.39 317.61 623.37 317.61 623.34 317.61 623.33 317.61 623.31 317.6 623.3 317.59 623.28 317.58 623.28 317.57 623.26 317.55 623.25 317.54 623.21 317.53 623.18 317.52 623.17 317.51 623.14 317.51 623.1 317.51 623.08 317.5 623.07 317.5 623.06 317.49 623.05 317.49 623.04 317.47 623.02 317.46 623.01 317.45 622.98 317.43 622.88 317.38 622.83 317.35 622.79 317.34 622.75 317.32 622.7 317.3 622.66 317.28 622.65 317.26 622.63 317.2 622.61 317.09 622.59 317.01 622.58 316.94 622.55 316.79 622.5 316.62 622.46 316.47 622.41 316.32 622.36 316.18 622.33 316.1 622.33 316.09 622.33 316.08 622.29 316.01 622.28 315.98 622.21 315.82 622.14 315.64 622.11 315.57 622.08 315.48 622.07 315.48 622.03 315.38 622.02 315.36 622 315.32 621.97 315.27 621.97 315.26 621.96 315.26 621.96 315.25 621.95 315.25 621.94 315.24 621.92 315.24 621.89 315.23 621.87 315.22 621.85 315.22 621.82 315.22 621.79 315.23 621.76 315.23 621.71 315.25 621.62 315.21 621.6 315.2 621.57 315.19 621.54 315.17 621.52 315.17 621.51 315.16 621.48 315.15 621.47 315.14 621.4 315.11 621.38 315.1 621.35 315.09 621.25 315.05 621.14 315.01 621.13 315.01 621.1 315 621.02 314.97 621 314.96 620.96 314.95 620.95 314.95 620.92 314.95 620.81 314.92 620.71 314.9 620.63 314.88 620.59 314.87 620.57 314.86 620.55 314.86 620.52 314.87 620.5 314.88 620.45 314.88 620.36 314.91 620.27 314.94 620.21 314.96 620.2 314.96 620.18 314.96 620.13 314.97 620.05 314.97 620.03 314.98 619.99 314.98 619.94 314.99 619.91 314.98 619.89 314.98 619.85 314.98 619.82 314.99 619.8 314.99 619.79 315 619.77 315.01 619.74 315.03 619.71 315.06 619.7 315.08 619.68 315.1 619.66 315.11 619.6 315.14 619.57 315.15 619.54 315.16 619.5 315.17 619.46 315.18 619.43 315.19 619.4 315.2 619.38 315.21 619.33 315.24 619.27 315.26 619.24 315.28 619.21 315.29 619.15 315.32 619.1 315.34 619.05 315.36 619.01 315.38 618.92 315.42 618.86 315.44 618.83 315.45 618.81 315.46 618.78 315.46 618.74 315.46 618.66 315.46 618.62 315.46 618.56 315.47 618.43 315.5 618.39 315.5 618.29 315.52 618.17 315.54 618.02 315.58 617.96 315.6 617.93 315.6 617.82 315.62 617.82 315.58 617.79 315.49 617.77 315.4 617.74 315.3 617.71 315.2 617.67 315.05 617.64 314.97 617.61 314.88 617.58 314.81 617.56 314.75 617.53 314.68 617.51 314.66 617.47 314.61 617.42 314.55 617.37 314.47 617.32 314.42 617.27 314.35 617.19 314.26 617.13 314.18 617.05 314.08 616.98 313.99 616.9 313.89 616.83 313.82 616.8 313.77 616.74 313.7 616.67 313.61 616.63 313.55 616.59 313.51 616.58 313.5 616.58 313.49 616.55 313.47 616.52 313.43 616.48 313.37 616.45 313.33 616.44 313.31 616.4 313.23 616.35 313.14 616.34 313.13 616.34 313.11 616.32 313.09 616.28 313.01 616.24 312.93 616.18 312.83 616.13 312.74 616.09 312.74 615.99 312.76 615.86 312.79 615.77 312.81 615.65 312.83 615.51 312.86 615.49 312.86 615.44 312.87 615.31 312.9 615.26 312.91 615.18 312.92 615.1 312.94 615.1 312.94 615.05 312.94 615.13 312.86 615.21 312.77 615.25 312.72 615.33 312.64 615.38 312.58 615.44 312.51 615.49 312.46 615.52 312.42 615.56 312.36 615.59 312.3 615.62 312.23 615.65 312.18 615.69 312.05 615.71 311.99 615.73 311.94 615.73 311.89 615.73 311.87 615.72 311.83 615.68 311.75 615.64 311.69 615.63 311.64 615.63 311.63 615.65 311.59 615.67 311.56 615.71 311.49 615.74 311.43 615.78 311.36 615.81 311.3 615.82 311.27 615.84 311.23 615.84 311.19 615.85 311.16 615.84 311.12 615.83 311.06 615.81 311.02 615.8 311 615.8 310.98 615.78 310.94 615.74 310.88 615.72 310.84 615.71 310.83 615.69 310.8 615.66 310.75 615.62 310.68 615.6 310.65 615.54 310.57 615.48 310.47 615.42 310.37 615.37 310.29 615.32 310.21 615.28 310.14 615.23 310.08 615.2 310.02 615.17 309.97 615.12 309.85 615.08 309.76 615.04 309.66 615 309.58 614.96 309.51 614.95 309.5 614.92 309.44 614.89 309.4 614.85 309.33 614.81 309.27 614.78 309.21 614.73 309.13 614.68 309.06 614.65 309.01 614.63 308.97 614.62 308.96 614.59 308.91 614.55 308.83 614.5 308.72 614.45 308.63 614.4 308.54 614.38 308.5 614.37 308.48 614.34 308.43 614.29 308.33 614.26 308.28 614.23 308.21 614.21 308.13 614.2 308.09 614.19 308.08 614.18 308.03 614.16 307.96 614.14 307.91 614.13 307.9 614.12 307.85 614.09 307.79 614.07 307.73 614.07 307.72 614.06 307.69 614.06 307.62 614.06 307.61 614.06 307.55 614.07 307.49 614.07 307.45 614.07 307.42 614.11 307.36 614.12 307.34 614.12 307.33 614.15 307.31 614.17 307.28 614.21 307.25 614.25 307.21 614.25 307.18 614.26 307.14 614.27 307.11 614.27 307.1 614.28 307.07 614.3 307.06 614.35 307.02 614.38 307 614.45 306.96 614.51 306.92 614.57 306.89 614.56 306.86 614.53 306.8 614.49 306.72 614.5 306.7 614.53 306.67 614.54 306.66 614.55 306.66 614.59 306.63 614.6 306.62 614.64 306.6 614.69 306.58 614.73 306.56 614.79 306.53 614.85 306.51 614.88 306.5 614.92 306.44 614.97 306.39 615 306.36 615.03 306.33 615.05 306.3 615.12 306.27 615.14 306.25 615.26 306.18 615.31 306.15 615.37 306.11 615.41 306.05 615.48 305.96 615.49 305.94 615.55 305.85 615.61 305.77 615.61 305.76 615.67 305.68 615.72 305.6 615.74 305.57 615.75 305.56 615.83 305.44 615.84 305.43 615.9 305.33 615.96 305.23 616.03 305.12 616.1 305 616.14 304.94 616.16 304.89 616.16 304.88 616.17 304.83 616.18 304.81 616.19 304.77 616.2 304.7 616.21 304.67 616.22 304.6 616.24 304.49 616.26 304.41 616.27 304.36 616.28 304.33 616.28 304.32 616.28 304.3 616.27 304.26 616.27 304.19 616.26 304.14 616.26 304.12 616.33 304.1 616.34 304.09 616.35 303.99 616.37 303.88 616.38 303.8 616.38 303.75 616.38 303.68 616.37 303.61 616.37 303.54 616.36 303.5 616.35 303.46 616.37 303.3 616.39 303.18 616.41 303.03 616.43 302.88 616.43 302.86 616.45 302.71 616.46 302.58 616.46 302.57 616.46 302.56 616.45 302.52 616.41 302.36 616.38 302.19 616.35 302.05 616.42 301.98 616.49 301.91 616.51 301.89 616.56 301.84 616.57 301.83 616.63 301.76 616.69 301.71 616.71 301.67 616.73 301.64 616.75 301.62 616.76 301.58 616.78 301.54 616.79 301.51 616.83 301.44 616.86 301.37 616.87 301.36 616.89 301.3 616.89 301.29 616.92 301.24 616.93 301.21 616.96 301.15 616.99 301.07 617.01 301.03 617.04 300.97 617.07 300.9 617.11 300.81 617.14 300.73 617.17 300.68 617.2 300.61 617.23 300.54 617.24 300.49 617.26 300.43 617.28 300.37 617.3 300.29 617.32 300.22 617.32 300.22 617.34 300.15 617.36 300.08 617.37 300.04 617.43 299.83 617.49 299.63 617.51 299.57 617.53 299.53 617.56 299.47 617.6 299.4 617.67 299.26 617.72 299.18 617.74 299.14 617.76 299.11 617.78 299.09 617.81 299.04 617.84 299 617.87 298.96 617.91 298.9 617.95 298.86 618 298.73 618.09 298.53 618.11 298.48 618.13 298.44 618.17 298.36 618.29 298.33 618.53 298.27 618.73 298.22 618.95 298.16 619.17 298.11 619.38 298.05 619.5 298.02 619.68 297.98 619.9 297.94 620.08 297.9 620.27 297.86 620.39 297.83 620.41 297.83 620.54 297.78 620.74 297.71 620.91 297.64 621.49 297.43 621.7 297.36 621.73 297.35 621.88 297.29 622.02 297.23 622.22 297.15 622.42 297.07 622.46 297.06 622.46 297.05 622.57 297.01 622.67 296.97 622.81 296.93 623.05 296.84 623.11 296.79 623.24 296.67 623.36 296.57 623.33 296.43 623.28 296.27 623.23 296.08 623.19 295.98 623.23 295.83 623.26 295.7 623.29 295.57 623.25 295.5 623.22 295.44 623.18 295.38 623.11 295.26 623.05 295.15 623 295.06 622.96 294.97 622.93 294.93 622.86 294.79 622.81 294.7 622.76 294.61 622.71 294.51 622.66 294.37 622.61 294.2 622.57 294.06 622.54 293.94 622.51 293.83 622.47 293.71 622.47 293.68 622.44 293.56 622.4 293.41 622.25 293.37 622.24 293.37 622.28 293.33 622.33 293.26 622.4 293.17 622.46 293.1 622.47 293.03 622.48 292.98 622.5 292.91 622.53 292.82 622.56 292.78 622.59 292.72 622.62 292.68 622.68 292.58 622.73 292.5 622.76 292.43 622.8 292.31 622.83 292.21 622.85 292.13 622.88 292.01 622.92 291.9 622.93 291.87 622.93 291.86 622.94 291.83 622.96 291.77 622.99 291.7 623.02 291.58 623.03 291.54 623.05 291.4 623.06 291.28 623.07 291.18 623.08 291.07 623.1 290.94 623.07 290.88 623.03 290.78 622.97 290.66 622.91 290.52 622.87 290.42 622.86 290.39 622.85 290.37 622.83 290.24 622.8 290.09 622.77 289.97 622.74 289.82 622.72 289.63 622.7 289.46 622.68 289.33 622.67 289.24 622.66 289.2 622.64 289.07 622.61 288.92 622.58 288.76 622.55 288.64 622.52 288.46 622.5 288.31 622.47 288.18 622.45 288.06 622.43 287.95 622.56 287.78 622.61 287.72 622.84 287.58 622.87 287.57 623.02 287.48 623.15 287.41 623.19 287.39 623.23 287.38 623.24 287.37 623.29 287.35 623.39 287.3 623.53 287.23 623.56 287.22 623.66 287.17 623.93 287.04 623.95 287.03 624.05 287.02 624.07 287.02 624.74 286.95 625.28 287.2 625.73 286.79 626.06 286.69 626.14 286.67 626.19 286.65 626.36 286.6 626.37 286.46 627.43 285.74 627.43 285.59 627.42 285.44 627.42 285.37 627.41 285.29 627.41 285.27 627.41 285.23 627.41 285.19 627.42 285.16 627.42 285.15 627.42 285.14 627.42 285.12 627.43 285.08 627.43 285.04 627.44 285.01 627.44 284.96 627.45 284.91 627.45 284.87 627.46 284.81 627.47 284.77 627.47 284.71 627.48 284.64 627.49 284.56 627.51 284.33 627.6 284.2 627.61 284.17 627.62 284.16 627.63 284.14 627.63 284.1 627.64 284.08 627.64 284.05 627.65 284.01 627.73 283.45 627.74 283.4 627.75 283.34 627.76 283.26 627.32 282.44 627.31 282.41 627.7 281.88 627.64 281.74 627.63 281.73 627.63 281.72 627.55 281.53 627.43 281.24 627.32 280.98 627.31 280.97 627.29 280.91 627.46 280.7 627.49 280.65 627.65 280.46 627.45 280.14 627.2 279.73 627.07 279.5 626.76 278.97 626.93 278.75 626.97 278.69 627 278.66 627.03 278.61 627.06 278.58 627.08 278.56 627.1 278.53 627.11 278.52 627.12 278.51 627.16 278.46 627.19 278.43 627.21 278.41 627.24 278.38 627.27 278.36 627.3 278.34 627.33 278.31 627.34 278.29 627.36 278.27 627.38 278.25 627.39 278.23 627.41 278.21 627.42 278.19 627.43 278.17 627.46 278.13 627.47 278.11 627.49 278.1 627.49 278.09 627.53 278.07 627.87 277.95 627.94 277.92 627.95 277.89 627.98 277.83 627.99 277.82 627.99 277.81 628 277.8 628.17 277.46 628.27 277.28 628.32 277.18 628.38 277.06 628.47 276.89 628.5 276.82 628.92 276.56 629.47 276.23 629.54 276.19 629.75 276.06 629.93 275.94 630.13 275.82 630.17 275.79 630.21 275.77 630.29 275.69 630.32 275.66 630.33 275.64 630.37 275.58 630.4 275.52 630.43 275.48 630.45 275.45 630.49 275.4 630.51 275.38 630.52 275.36 630.53 275.36 630.56 275.34 630.58 275.33 630.6 275.32 630.61 275.3 630.63 275.29 630.63 275.28 630.67 275.23 630.69 275.19 630.73 275.15 630.76 275.13 630.79 275.11 630.8 275.09 630.82 275.07 630.83 275.06 630.84 275.05 630.87 274.98 630.89 274.93 630.89 274.91 630.9 274.87 630.92 274.82 630.93 274.8 630.95 274.77 630.97 274.74 630.99 274.7 631.01 274.68 631.02 274.65 631.03 274.61 631.05 274.58 631.05 274.56 631.06 274.53 631.06 274.48 631.06 274.44 631.06 274.39 631.06 274.36 631.04 274.31 631.03 274.26 631.02 274.22 631.02 274.2 631.01 274.16 631.02 274.13 631.02 274.11 631.03 274.08 631.05 274.05 631.06 274.02 631.07 273.96 631.08 273.9 631.09 273.85 631.1 273.8 631.1 273.77 631.11 273.73 631.13 273.67 631.14 273.63 631.14 273.59 631.15 273.56 631.15 273.53 631.15 273.51 631.14 273.49 631.14 273.48 631.13 273.46 631.12 273.45 631.1 273.43 631.09 273.42 631.08 273.41 631.08 273.4 631.08 273.38 631.08 273.36 631.08 273.33 631.07 273.32 631.07 273.3 631.06 273.27 631.05 273.25 631.04 273.23 631.03 273.21 631.02 273.2 631.01 273.18 631 273.15 630.99 273.11 630.99 273.09 630.98 273.06 630.96 273.02 630.94 272.99 630.93 272.96 630.91 272.91 630.89 272.87 630.88 272.85 630.88 272.83 630.87 272.8 630.87 272.78 630.87 272.72 630.87 272.69 630.87 272.65 630.87 272.63 630.88 272.61 630.88 272.6 630.89 272.58 630.9 272.55 630.91 272.53 630.91 272.51 630.9 272.5 630.9 272.49 630.89 272.46 630.87 272.42 630.85 272.36 630.84 272.33 630.82 272.29 630.81 272.25 630.8 272.2 630.78 272.12 630.74 271.99 630.71 271.86 630.69 271.77 630.68 271.69 630.66 271.61 630.65 271.57 630.64 271.5 630.64 271.45 630.64 271.41 630.63 271.33 630.62 271.14 630.55 271.1 630.49 271.07 630.41 271.02 630.32 270.97 630.2 270.9 630.13 270.87 630.05 270.82 629.98 270.79 629.94 270.77 629.87 270.73 629.8 270.7 629.77 270.68 629.73 270.66 629.67 270.64 629.63 270.62 629.58 270.6 629.52 270.59 629.47 270.58 629.43 270.57 629.37 270.55 629.32 270.53 629.26 270.5 629.18 270.47 629.16 270.46 629.13 270.45 629.08 270.42 629.02 270.39 628.98 270.38 628.94 270.36 628.9 270.34 628.84 270.32 628.78 270.3 628.7 270.27 628.63 270.24 628.58 270.23 628.53 270.22 628.49 270.21 628.45 270.2 628.39 270.19 628.34 270.18 628.29 270.17 628.25 270.16 628.21 270.16 628.16 270.15 628.09 270.14 628.02 270.13 627.98 270.13 627.94 270.12 627.89 270.12 627.88 270.12 627.83 270.12 627.78 270.12 627.72 270.12 627.66 270.13 627.6 270.14 627.55 270.15 627.48 270.16 627.37 270.19 627.33 270.02 627.32 269.96 627.3 269.87 627.29 269.79 627.25 269.59 627.22 269.46 627.21 269.38 627.19 269.3 627.17 269.21 627.15 269.12 627.15 269.08 627.15 268.98 627.15 268.88 627.16 268.8 627.16 268.73 627.16 268.64 627.17 268.59 627.18 268.52 627.19 268.43 627.19 268.41 627.2 268.39 627.22 268.32 627.25 268.25 627.26 268.24 627.26 268.23 627.29 268.17 627.31 268.1 627.33 268.04 627.35 267.98 627.37 267.95 627.38 267.92 627.39 267.89 627.4 267.87 627.41 267.85 627.42 267.82 627.43 267.79 627.45 267.77 627.47 267.73 627.5 267.7 627.51 267.68 627.53 267.65 627.55 267.62 627.57 267.59 627.6 267.55 627.63 267.5 627.67 267.44 627.71 267.37 627.75 267.31 627.78 267.26 627.81 267.21 627.88 267.1 627.97 266.97 628 266.92 628.02 266.89 628.03 266.87 628.05 266.84 628.08 266.8 628.1 266.77 628.15 266.72 628.18 266.68 628.2 266.66 628.22 266.63 628.23 266.62 628.25 266.6 628.27 266.57 628.32 266.52 628.34 266.49 628.36 266.47 628.38 266.44 628.4 266.42 628.44 266.38 628.48 266.34 628.51 266.31 628.54 266.27 628.57 266.24 628.59 266.23 628.64 266.18 628.68 266.13 628.71 266.11 628.75 266.07 628.77 266.05 628.8 266.03 628.83 266 628.88 265.97 628.91 265.94 628.94 265.91 628.97 265.88 629.01 265.85 629.04 265.82 629.07 265.79 629.11 265.76 629.17 265.71 629.21 265.68 629.27 265.62 629.34 265.56 629.41 265.5 629.45 265.48 629.46 265.47 629.48 265.46 629.5 265.45 629.53 265.45 629.57 265.44 629.59 265.43 629.61 265.42 629.64 265.4 629.7 265.36 629.73 265.35 629.74 265.34 629.77 265.33 629.81 265.31 629.85 265.3 629.9 265.28 629.94 265.26 629.97 265.24 630.01 265.22 630.05 265.19 630.08 265.17 630.11 265.14 630.15 265.1 630.17 265.08 630.2 265.05 630.2 265.04 630.24 265.01 630.28 264.96 630.32 264.91 630.36 264.88 630.38 264.85 630.41 264.82 630.45 264.78 630.48 264.75 630.48 264.74 630.55 264.68 630.58 264.64 630.62 264.6 630.66 264.56 630.69 264.53 630.72 264.5 630.73 264.5 630.76 264.46 630.78 264.44 630.82 264.4 630.86 264.36 631.01 264.2 631.13 264.07 631.23 263.98 631.39 263.81 631.42 263.78 631.46 263.74 631.49 263.71 631.52 263.68 631.56 263.63 631.6 263.6 631.62 263.57 631.65 263.54 631.67 263.52 631.7 263.49 631.72 263.47 631.76 263.43 631.78 263.4 631.8 263.38 631.82 263.36 631.85 263.33 631.88 263.3 631.91 263.27 631.94 263.25 631.96 263.22 631.99 263.19 632.03 263.14 632.55 262.59 632.48 262.75 632.38 262.97 632.35 263.14 632.36 263.17 632.37 263.28 632.4 263.47 632.42 263.65 632.45 263.83 632.48 264.02 632.5 264.21 632.52 264.32 632.52 264.33 632.52 264.36 632.54 264.47 632.55 264.55 632.63 264.57 632.71 264.59 632.75 264.6 632.81 264.62 632.86 264.62 632.89 264.63 633.02 264.66 633.19 264.7 633.24 264.71 633.29 264.72 633.37 264.74 633.54 264.78 633.75 264.83 633.89 264.86 634.07 264.91 634.2 264.94 634.24 264.94 634.4 264.98 634.45 264.99 634.6 265.03 634.72 265.14 634.86 265.28 634.96 265.37 635.09 265.5 635.16 265.56 635.22 265.62 635.37 265.76 635.44 265.81 Z M 624.89 335.4 624.88 335.38 624.86 335.37 624.83 335.35 624.79 335.32 624.68 335.23 624.59 335.17 624.47 335.1 624.41 335.06 624.3 334.99 624.18 334.91 624.16 334.9 624.04 334.82 623.99 334.79 623.97 334.77 623.95 334.75 623.92 334.73 623.89 334.7 623.88 334.69 623.87 334.68 623.86 334.67 623.85 334.66 623.83 334.65 623.8 334.63 623.8 334.63 623.79 334.62 623.79 334.61 623.78 334.6 623.78 334.59 623.78 334.58 623.78 334.52 623.76 334.39 623.76 334.38 623.76 334.37 623.76 334.36 623.75 334.35 623.75 334.34 623.75 334.34 623.74 334.33 623.73 334.32 623.72 334.32 623.72 334.31 623.7 334.3 623.67 334.29 623.54 334.26 623.42 334.23 623.35 334.2 623.32 334.2 623.3 334.19 623.26 334.18 623.22 334.16 623.13 334.14 623.01 334.1 622.91 334.08 622.89 334.07 622.88 334.07 622.86 334.06 622.85 334.05 622.84 334.05 622.66 333.96 622.58 333.93 622.47 333.88 622.46 333.88 622.35 333.83 622.29 333.8 622.13 333.73 622.07 333.71 622 333.68 621.88 333.62 621.87 333.62 621.86 333.61 621.85 333.6 621.83 333.59 621.82 333.58 621.81 333.57 621.78 333.55 621.73 333.51 621.69 333.49 621.65 333.47 621.64 333.46 621.62 333.45 621.61 333.44 621.58 333.41 621.55 333.37 621.54 333.37 621.54 333.36 621.52 333.34 621.53 333.32 621.54 333.31 621.54 333.31 621.55 333.3 621.56 333.29 621.57 333.28 621.58 333.27 621.6 333.26 621.61 333.25 621.63 333.24 621.64 333.23 621.66 333.22 621.68 333.21 621.7 333.21 621.72 333.2 621.74 333.19 621.76 333.18 621.78 333.18 621.8 333.17 621.84 333.16 621.96 332.76 622.03 332.64 622.1 332.53 622.15 332.46 622.18 332.4 622.21 332.36 622.29 332.22 622.35 332.11 622.37 332.07 622.38 332.06 622.41 332 622.45 331.9 622.55 331.82 622.63 331.75 622.68 331.7 622.74 331.65 622.75 331.64 622.77 331.62 622.78 331.61 622.85 331.53 623.09 331.26 623.27 331.05 623.39 330.91 623.75 330.51 623.79 330.47 623.8 330.46 623.82 330.44 623.87 330.38 623.95 330.28 623.99 330.23 624.08 330.11 624.24 329.88 624.26 329.87 624.28 329.85 624.28 329.83 624.29 329.82 624.3 329.81 624.31 329.79 624.33 329.78 624.52 329.62 624.56 329.46 624.57 329.36 624.58 329.25 624.58 329.09 624.58 329.07 624.57 329.06 624.57 329.04 624.57 329.03 624.57 329.01 624.56 328.99 624.56 328.97 624.56 328.96 624.55 328.94 624.55 328.92 624.55 328.9 624.55 328.89 624.55 328.87 624.55 328.84 624.54 328.8 624.53 328.64 624.48 328.35 624.47 328.3 624.46 328.26 624.46 328.24 624.46 328.23 624.46 328.19 624.46 328.15 624.46 328.11 624.46 328.07 624.45 328.03 624.44 327.94 624.43 327.87 624.42 327.82 624.41 327.76 624.4 327.71 624.39 327.67 624.39 327.62 624.39 327.61 624.38 327.59 624.38 327.56 624.38 327.53 624.38 327.51 624.38 327.48 624.38 327.44 624.38 327.42 624.38 327.4 624.39 327.37 624.39 327.33 624.39 327.28 624.4 327.24 624.41 327.2 624.42 327.16 624.42 327.13 624.43 327.09 624.45 327.05 624.47 326.97 624.52 326.82 624.58 326.63 624.7 326.29 624.74 326.2 624.74 326.2 624.75 326.18 624.82 326 624.85 325.91 624.87 325.87 624.88 325.82 624.94 325.63 625.01 325.42 625.04 325.35 625.06 325.29 625.07 325.26 625.08 325.22 625.1 325.17 625.14 325.05 625.2 324.85 625.21 324.81 625.22 324.79 625.23 324.78 625.24 324.77 625.25 324.75 625.27 324.72 625.28 324.69 625.29 324.67 625.3 324.65 625.31 324.62 625.32 324.58 625.33 324.52 625.35 324.44 625.36 324.4 625.37 324.37 625.38 324.35 625.39 324.32 625.4 324.3 625.4 324.29 625.41 324.26 625.41 324.2 625.41 324.13 625.42 324.11 625.42 324.1 625.43 324.08 625.47 324.01 625.49 323.97 625.51 323.94 625.52 323.9 625.53 323.87 625.56 323.75 625.57 323.7 625.59 323.65 625.6 323.61 625.63 323.51 625.66 323.45 625.68 323.34 625.7 323.3 625.71 323.26 625.72 323.22 625.72 323.2 625.75 323.14 625.79 323.03 625.87 322.86 626.06 322.44 626.22 322.09 626.27 321.97 626.34 321.83 626.38 321.74 626.41 321.66 626.42 321.65 626.56 321.73 626.61 321.74 626.64 321.76 626.67 321.77 626.71 321.78 626.72 321.78 626.75 321.79 626.77 321.79 626.79 321.79 626.82 321.8 626.85 321.8 626.89 321.8 626.96 321.8 626.98 321.81 627 321.81 627.02 321.82 627.04 321.82 627.05 321.83 627.07 321.84 627.09 321.86 627.11 321.87 627.23 321.96 627.25 321.97 627.29 322 627.31 322.02 627.33 322.03 627.35 322.05 627.42 322.07 627.46 322.09 627.61 322.14 627.63 322.15 627.67 322.16 627.68 322.17 627.69 322.18 627.71 322.19 627.72 322.2 627.78 322.24 628.01 322.4 628.02 322.4 628.11 322.42 628.14 322.43 628.17 322.44 628.22 322.46 628.24 322.47 628.27 322.48 628.29 322.49 628.31 322.5 628.32 322.51 628.33 322.52 628.35 322.53 628.38 322.56 628.41 322.59 628.52 322.69 628.54 322.71 628.55 322.72 628.57 322.74 628.58 322.75 628.61 322.76 628.63 322.77 628.64 322.78 628.65 322.79 628.66 322.79 628.68 322.81 628.68 322.81 628.69 322.83 628.71 322.85 628.77 322.94 628.82 323.01 628.88 323.11 628.89 323.13 629.14 323.48 628.99 323.86 628.77 324.4 628.58 324.9 628.47 325.18 628.27 325.25 628.02 325.35 627.77 325.44 627.52 325.54 627.37 325.59 627.36 325.6 627.35 325.6 627.31 325.61 627.33 325.68 627.33 325.75 627.33 325.8 627.35 325.88 627.39 325.97 627.47 326.1 627.58 326.23 627.61 326.28 627.65 326.37 627.68 326.47 627.73 326.63 627.92 326.69 628.06 326.73 628.38 326.83 628.4 326.84 628.37 326.96 628.37 327 628.4 327.16 628.45 327.38 628.48 327.54 628.51 327.64 628.48 327.84 628.47 328.01 628.46 328.06 628.44 328.22 628.42 328.45 628.4 328.6 628.4 328.66 628.39 328.7 628.38 328.72 628.36 328.74 628.3 328.82 628.28 328.85 628.24 328.94 628.24 328.95 628.21 329 628.1 329.22 628 329.42 627.89 329.59 627.77 329.77 627.66 329.93 627.57 330.08 627.48 330.22 627.43 330.31 627.35 330.44 627.29 330.55 627.26 330.59 627.18 330.75 627.16 330.81 627.15 330.82 627.11 330.96 627.07 331.04 626.92 331.19 626.84 331.26 626.77 331.33 626.76 331.34 626.67 331.43 626.66 331.44 626.64 331.46 626.55 331.55 626.64 331.8 626.65 331.81 626.55 331.98 626.35 332.35 626.25 332.54 626.24 332.55 626.23 332.59 626.21 332.68 626.16 332.92 626.23 333.02 626.25 333.05 626.37 333.26 626.47 333.43 626.48 333.45 626.51 333.48 626.52 333.51 626.52 333.55 626.52 333.61 626.54 333.73 626.54 333.79 626.51 333.83 626.46 333.86 626.38 333.94 626.32 334.02 626.26 334.06 626.19 334.08 626.12 334.11 626.05 334.13 626 334.16 625.86 334.19 625.77 334.21 625.71 334.22 625.65 334.22 625.56 334.25 625.46 334.26 625.37 334.26 625.2 334.26 625.06 334.27 624.99 334.29 624.96 334.32 624.95 334.35 624.95 334.42 624.97 334.5 625.01 334.57 625.06 334.67 625.14 334.76 625.18 334.83 625.24 334.89 625.32 334.95 625.37 335 625.4 335.03 625.41 335.08 625.42 335.11 625.41 335.14 625.38 335.18 625.33 335.21 625.26 335.23 625.2 335.26 625.16 335.31 625.09 335.37 625.03 335.4 624.97 335.41 624.89 335.4 Z"/>
</g></svg>