<svg xmlns="http://www.w3.org/2000/svg" version="1.2" baseProfile="tiny" stroke-linecap="round" stroke-linejoin="round" viewBox="315.07 174.25 10.88 14.15"><g xmlns="http://www.w3.org/2000/svg" id="Urretxu">
<path d="M 322.29 188.38 322.11 188.31 322.1 188.31 322.02 188.31 321.91 188.34 321.9 188.34 321.9 188.35 321.89 188.36 321.87 188.37 321.86 188.38 321.85 188.38 321.84 188.38 321.81 188.39 321.67 188.35 321.62 188.33 321.52 188.27 321.49 188.25 321.43 188.22 321.41 188.21 321.36 188.17 321.33 188.15 321.32 188.14 321.31 188.13 321.3 188.11 321.27 188.08 321.23 188.05 321.2 188.03 321.17 188.02 321.15 188.01 321.14 188.01 321.12 188 321.09 188.01 321.06 188.01 321.03 188.01 321 188.02 320.99 188.02 320.97 188.01 320.95 188 320.93 187.99 320.91 187.98 320.89 187.97 320.87 187.96 320.83 187.94 320.82 187.93 320.78 187.89 320.76 187.86 320.75 187.85 320.73 187.83 320.72 187.81 320.7 187.76 320.7 187.76 320.69 187.75 320.69 187.74 320.68 187.73 320.67 187.72 320.65 187.71 320.63 187.7 320.62 187.69 320.58 187.67 320.56 187.67 320.53 187.65 320.52 187.65 320.5 187.63 320.45 187.61 320.32 187.56 320.29 187.55 320.27 187.54 320.25 187.53 320.19 187.5 320.14 187.44 320.12 187.4 320.08 187.39 320.06 187.38 320 187.39 319.99 187.39 319.98 187.39 319.96 187.35 319.95 187.3 319.93 187.25 319.9 187.2 319.84 187.12 319.79 187.04 319.76 187.01 319.74 186.98 319.72 186.96 319.69 186.92 319.65 186.85 319.61 186.8 319.57 186.75 319.56 186.73 319.54 186.69 319.53 186.66 319.52 186.63 319.51 186.61 319.46 186.54 319.43 186.5 319.4 186.46 319.37 186.42 319.33 186.36 319.31 186.33 319.25 186.24 319.19 186.18 319.15 186.14 319.14 186.12 319.1 186.09 319.07 186.07 319 186.04 318.95 186.02 318.9 186.01 318.85 185.97 318.79 185.94 318.78 185.93 318.74 185.92 318.69 185.89 318.65 185.88 318.61 185.87 318.59 185.87 318.57 185.86 318.54 185.85 318.51 185.83 318.48 185.81 318.45 185.77 318.42 185.74 318.41 185.71 318.39 185.7 318.37 185.68 318.34 185.67 318.32 185.67 318.29 185.66 318.27 185.65 318.24 185.63 318.2 185.59 318.18 185.59 318.17 185.58 318.14 185.59 318.11 185.59 318.09 185.58 318.08 185.58 318.06 185.56 318.04 185.56 318.02 185.55 318 185.55 317.97 185.54 317.94 185.53 317.89 185.52 317.85 185.51 317.84 185.51 317.82 185.5 317.81 185.47 317.81 185.45 317.79 185.44 317.77 185.43 317.73 185.41 317.7 185.41 317.62 185.4 317.58 185.39 317.55 185.39 317.53 185.39 317.5 185.39 317.48 185.39 317.45 185.38 317.43 185.38 317.43 185.37 317.42 185.36 317.41 185.34 317.41 185.33 317.4 185.31 317.38 185.3 317.34 185.27 317.25 185.25 317.13 185.21 317.03 185.15 316.96 185.11 316.94 185.1 316.93 185.09 316.91 185.06 316.89 185.02 316.88 184.99 316.87 184.97 316.85 184.96 316.83 184.94 316.83 184.94 315.74 184.79 315.18 184.67 315.18 184.56 315.08 183.76 316.31 179.96 316.92 179.47 316.88 179.43 316.85 179.38 316.77 179.28 316.66 179.14 316.57 179.07 316.44 178.94 316.37 178.86 316.32 178.8 316.25 178.72 316.18 178.67 316.06 178.59 316.01 178.56 315.94 178.49 315.84 178.39 315.75 178.29 315.93 177.42 316.13 176.86 317.81 175.99 318.67 175.26 318.7 175.27 318.77 175.27 318.86 175.27 318.97 175.27 319.03 175.26 319.07 175.26 319.12 175.26 319.16 175.25 319.19 175.25 319.21 175.26 319.23 175.26 319.26 175.28 319.28 175.29 319.31 175.33 319.34 175.38 319.36 175.41 319.38 175.43 319.41 175.46 319.44 175.48 319.46 175.49 319.48 175.5 319.49 175.51 319.53 175.52 319.58 175.52 319.62 175.52 319.66 175.52 319.68 175.52 319.71 175.51 319.74 175.5 319.77 175.48 319.8 175.46 319.84 175.42 319.88 175.36 319.92 175.3 319.94 175.27 319.95 175.23 319.96 175.19 319.98 175.16 319.99 175.12 320.01 175.09 320.01 175.07 320.01 175.05 320.02 175.01 320.03 174.97 320.05 174.92 320.06 174.89 320.07 174.85 320.1 174.78 320.11 174.72 320.12 174.69 320.13 174.64 320.14 174.61 320.14 174.58 320.14 174.56 320.14 174.53 320.14 174.48 320.14 174.45 320.14 174.43 320.14 174.39 320.15 174.36 320.15 174.34 320.17 174.33 320.18 174.31 320.2 174.3 320.22 174.28 320.25 174.27 320.3 174.26 320.34 174.26 320.43 174.26 320.46 174.26 320.5 174.26 320.53 174.27 320.58 174.28 320.63 174.3 320.7 174.32 320.75 174.33 320.76 174.34 320.77 174.34 320.78 174.34 320.84 174.37 320.93 174.4 321.03 174.44 321.08 174.46 321.14 174.47 321.23 174.49 321.25 174.49 321.27 174.49 321.35 174.49 321.41 174.5 321.44 174.5 321.47 174.51 321.49 174.51 321.51 174.53 321.53 174.56 321.56 174.59 321.57 174.61 321.58 174.64 321.59 174.67 321.6 174.72 321.6 174.77 321.6 174.8 321.59 174.86 321.57 174.93 321.56 174.99 321.56 175.02 321.55 175.05 321.55 175.1 321.55 175.15 321.55 175.2 321.55 175.22 321.55 175.24 321.58 175.28 321.62 175.32 321.68 175.36 321.71 175.37 321.76 175.38 321.82 175.39 321.87 175.39 321.93 175.39 321.96 175.38 322.01 175.36 322.04 175.33 322.05 175.31 322.06 175.28 322.07 175.25 322.07 175.19 322.08 175.13 322.08 175.1 322.07 175.07 322.08 175.03 322.08 174.97 322.1 174.92 322.11 174.91 322.13 174.85 322.15 174.78 322.18 174.72 322.19 174.66 322.21 174.63 322.21 174.61 322.23 174.59 322.25 174.56 322.27 174.54 322.29 174.53 322.31 174.52 322.33 174.52 322.35 174.52 322.38 174.52 322.42 174.52 322.45 174.53 322.49 174.57 322.54 174.62 322.57 174.67 322.61 174.74 322.65 174.83 322.67 174.89 322.69 174.92 322.7 174.97 322.72 175.02 322.72 175.03 322.74 175.09 322.75 175.14 322.76 175.21 322.77 175.28 322.78 175.35 322.78 175.39 322.78 175.4 322.79 175.42 322.79 175.44 322.81 175.49 322.87 175.55 322.95 175.64 322.96 175.66 322.98 175.7 323.02 175.76 323.04 175.79 323.07 175.83 323.11 175.89 323.16 175.93 323.21 175.96 323.25 175.99 323.28 176.01 323.31 176.05 323.35 176.1 323.39 176.17 323.43 176.22 323.45 176.25 323.47 176.3 323.48 176.33 323.5 176.37 323.52 176.41 323.53 176.44 323.54 176.47 323.54 176.51 323.55 176.53 323.56 176.55 323.58 176.57 323.6 176.58 323.63 176.59 323.67 176.59 323.73 176.58 323.79 176.56 323.83 176.56 323.89 176.54 323.95 176.54 323.98 176.54 324.02 176.54 324.09 176.54 324.18 176.55 324.25 176.56 324.29 176.56 324.3 176.57 324.33 176.57 324.34 176.57 324.37 176.56 324.4 176.57 324.43 176.58 324.47 176.6 324.51 176.61 324.53 176.62 324.55 176.64 324.56 176.66 324.57 176.7 324.57 176.74 324.56 176.79 324.55 176.84 324.55 176.88 324.54 176.91 324.54 176.95 324.54 176.99 324.56 177.03 324.57 177.06 324.57 177.09 324.57 177.1 324.57 177.13 324.52 177.2 324.49 177.25 324.46 177.3 324.45 177.34 324.44 177.38 324.43 177.4 324.42 177.43 324.42 177.45 324.42 177.48 324.41 177.51 324.4 177.54 324.38 177.59 324.35 177.65 324.32 177.7 324.3 177.74 324.29 177.76 324.28 177.79 324.28 177.82 324.27 177.85 324.27 177.88 324.28 177.91 324.29 177.95 324.34 178.04 324.42 178.15 324.49 178.26 324.5 178.27 324.52 178.3 324.54 178.32 324.58 178.41 324.6 178.49 324.6 178.54 324.59 178.6 324.59 178.66 324.56 178.74 324.53 178.79 324.5 178.84 324.48 178.88 324.47 178.91 324.46 178.93 324.45 178.94 324.45 178.95 324.45 178.96 324.45 178.99 324.44 179.02 324.44 179.03 324.44 179.04 324.43 179.05 324.41 179.08 324.39 179.11 324.37 179.12 324.36 179.13 324.35 179.15 324.35 179.16 324.35 179.18 324.34 179.21 324.34 179.24 324.35 179.27 324.36 179.3 324.37 179.33 324.38 179.35 324.39 179.39 324.39 179.41 324.4 179.42 324.4 179.43 324.4 179.44 324.41 179.47 324.41 179.49 324.41 179.51 324.41 179.52 324.39 179.57 324.39 179.61 324.38 179.64 324.37 179.68 324.36 179.71 324.35 179.74 324.35 179.75 324.34 179.77 324.33 179.79 324.32 179.81 324.31 179.83 324.3 179.84 324.3 179.85 324.28 179.88 324.27 179.9 324.27 179.93 324.26 179.94 324.26 179.96 324.26 179.96 324.26 179.98 324.27 180.02 324.27 180.04 324.29 180.07 324.3 180.09 324.32 180.11 324.33 180.12 324.34 180.13 324.35 180.15 324.37 180.16 324.38 180.17 324.4 180.19 324.43 180.21 324.46 180.23 324.49 180.26 324.51 180.29 324.53 180.32 324.54 180.34 324.55 180.37 324.56 180.38 324.56 180.39 324.57 180.42 324.58 180.46 324.6 180.51 324.62 180.58 324.66 180.66 324.7 180.7 324.75 180.74 324.81 180.79 324.83 180.81 324.88 180.86 324.96 180.92 324.98 180.94 325.01 180.97 325.05 181.01 325.1 181.05 325.14 181.08 325.16 181.1 325.19 181.13 325.21 181.16 325.23 181.18 325.26 181.24 325.29 181.31 325.32 181.43 325.35 181.49 325.38 181.57 325.39 181.6 325.4 181.62 325.41 181.64 325.42 181.66 325.46 181.7 325.48 181.71 325.5 181.73 325.54 181.74 325.57 181.75 325.6 181.75 325.61 181.75 325.62 181.75 325.64 181.75 325.66 181.75 325.69 181.75 325.71 181.75 325.73 181.76 325.75 181.76 325.78 181.77 325.81 181.79 325.83 181.8 325.85 181.81 325.87 181.83 325.89 181.86 325.91 181.88 325.91 181.9 325.92 181.91 325.92 181.92 325.92 181.94 325.92 181.97 325.92 181.99 325.91 182.01 325.91 182.03 325.91 182.06 325.91 182.09 325.9 182.11 325.9 182.13 325.9 182.14 325.9 182.16 325.91 182.18 325.91 182.2 325.92 182.22 325.92 182.24 325.92 182.27 325.91 182.31 325.91 182.33 325.91 182.35 325.9 182.37 325.88 182.43 325.84 182.52 325.81 182.58 325.8 182.6 325.78 182.63 325.77 182.65 325.74 182.72 325.72 182.76 325.69 182.81 325.68 182.82 325.65 182.88 325.57 183.04 325.49 183.2 325.46 183.25 325.43 183.29 325.37 183.35 325.34 183.38 325.31 183.39 325.29 183.41 325.27 183.42 325.25 183.43 325.22 183.45 325.17 183.47 325.13 183.48 325.11 183.5 325.09 183.51 325.07 183.52 325.04 183.55 325.02 183.57 325 183.59 324.91 183.71 324.82 183.85 324.77 183.9 324.73 183.93 324.67 183.95 324.65 183.96 324.51 184.01 324.4 184.06 324.36 184.07 324.33 184.08 324.3 184.07 324.28 184.06 324.23 184.06 324.2 184.06 324.18 184.06 324.15 184.06 324.1 184.06 324.06 184.07 324.03 184.08 324 184.11 323.96 184.14 323.92 184.17 323.89 184.21 323.83 184.26 323.77 184.32 323.72 184.37 323.69 184.39 323.66 184.41 323.56 184.5 323.52 184.53 323.5 184.56 323.47 184.59 323.45 184.62 323.45 184.63 323.44 184.66 323.39 184.8 323.36 184.91 323.33 184.99 323.33 185 322.94 186.23 322.89 186.29 322.8 186.42 322.72 186.55 322.71 186.56 322.65 187.3 322.62 187.59 322.6 187.67 322.59 187.74 322.57 187.82 322.55 187.89 322.53 187.98 322.52 188.03 322.5 188.08 322.47 188.13 322.47 188.14 322.44 188.18 322.41 188.22 322.34 188.33 322.29 188.38 Z"/>
</g></svg>