<svg xmlns="http://www.w3.org/2000/svg" version="1.2" baseProfile="tiny" stroke-linecap="round" stroke-linejoin="round" viewBox="492.48 172.62 10.13 24.02"><g xmlns="http://www.w3.org/2000/svg" id="Urrotz">
<path d="M 497.93 173.31 497.93 173.38 497.93 173.51 497.93 173.62 497.93 173.63 497.93 173.75 497.93 173.89 497.93 174.03 497.92 174.11 497.92 174.15 497.92 174.27 497.92 174.28 497.92 174.36 497.91 174.46 497.91 174.57 497.91 174.67 497.9 174.77 497.89 174.89 497.89 174.91 497.89 174.97 497.89 175.05 497.84 175.17 497.84 175.18 497.8 175.28 497.79 175.33 497.76 175.41 497.76 175.41 497.72 175.52 497.7 175.56 497.7 175.57 497.69 175.59 497.72 175.58 497.75 175.55 497.78 175.54 497.82 175.54 497.87 175.55 497.93 175.57 497.98 175.6 498.03 175.64 498.07 175.66 498.09 175.66 498.1 175.66 498.13 175.64 498.14 175.62 498.15 175.6 498.15 175.54 498.16 175.5 498.17 175.46 498.18 175.42 498.19 175.36 498.2 175.31 498.22 175.28 498.24 175.26 498.27 175.26 498.32 175.26 498.37 175.27 498.42 175.29 498.46 175.3 498.5 175.32 498.54 175.33 498.58 175.33 498.62 175.33 498.67 175.32 498.7 175.3 498.74 175.28 498.77 175.24 498.8 175.21 498.81 175.18 498.82 175.14 498.84 175.09 498.85 175.04 498.86 174.99 498.86 174.95 498.87 174.93 498.88 174.89 498.89 174.87 498.91 174.86 498.93 174.85 498.96 174.85 498.99 174.87 499.02 174.89 499.06 174.9 499.11 174.93 499.17 174.94 499.23 174.95 499.29 174.96 499.33 174.96 499.36 174.97 499.39 174.97 499.43 174.98 499.46 174.99 499.5 174.98 499.52 174.97 499.54 174.95 499.55 174.92 499.56 174.89 499.57 174.85 499.56 174.81 499.55 174.79 499.54 174.76 499.53 174.73 499.52 174.69 499.51 174.66 499.52 174.61 499.52 174.57 499.54 174.53 499.57 174.49 499.59 174.46 499.62 174.43 499.65 174.41 499.69 174.4 499.72 174.39 499.76 174.39 499.76 174.41 499.77 174.47 499.83 174.75 500.03 174.97 500.11 175.06 500.13 175.07 500.14 175.08 500.16 175.1 500.29 175.25 500.31 175.26 500.34 175.27 500.35 175.27 500.62 175.37 500.78 175.48 500.93 175.57 500.94 175.58 500.95 175.58 501 175.62 501.25 175.77 501.31 175.82 501.32 175.83 501.35 175.85 501.54 175.98 501.6 176.02 501.64 176.06 501.65 176.08 501.72 176.13 501.77 176.18 501.81 176.25 501.86 176.37 501.94 176.54 501.97 176.61 502.04 176.76 502.05 176.8 502.05 176.83 502.04 176.86 502.04 176.87 502.04 176.93 502.02 177.09 502.02 177.12 502.01 177.23 502 177.25 501.99 177.36 501.99 177.39 501.99 177.41 501.98 177.45 501.97 177.67 502.08 177.86 502.08 177.86 502.25 178.16 502.29 178.23 502.33 178.29 502.35 178.33 502.41 178.43 502.47 178.54 502.5 178.58 502.52 178.63 502.51 178.76 502.51 178.82 502.54 179.09 502.55 179.21 502.56 179.31 502.58 179.52 502.59 179.58 502.59 179.6 502.47 179.77 502.46 179.79 502.44 179.83 502.25 180.09 502.23 180.17 502.23 180.24 502.22 180.3 502.22 180.35 502.21 180.45 502.2 180.5 502.18 180.55 502.17 180.58 502.13 180.63 502.1 180.67 501.94 180.88 501.91 180.93 501.89 180.98 501.86 181.03 501.82 181.07 501.81 181.08 501.78 181.12 501.77 181.16 501.74 181.2 501.72 181.23 501.7 181.26 501.7 181.32 501.7 181.34 501.69 181.39 501.69 181.4 501.7 181.45 501.73 181.58 501.73 181.6 501.71 181.64 501.65 181.85 501.66 181.94 501.64 182 501.61 182.07 501.62 182.16 501.63 182.19 501.67 182.46 501.67 182.52 501.66 182.6 501.63 182.65 501.6 182.71 501.55 182.76 501.42 182.85 501.41 182.86 501.4 182.87 501.38 182.89 501.25 183.2 501.19 183.46 501.09 184 501.03 184.07 500.88 184.25 500.88 184.26 500.88 184.29 500.88 184.34 500.88 184.35 500.9 184.4 500.91 184.43 500.93 184.47 500.94 184.5 500.96 184.52 500.97 184.56 500.95 184.59 500.9 184.66 500.87 184.72 500.85 184.79 500.85 184.87 500.87 184.96 500.89 185.05 500.91 185.14 500.93 185.22 500.94 185.3 500.94 185.34 500.92 185.37 500.9 185.39 500.83 185.41 500.8 185.42 500.77 185.45 500.74 185.48 500.71 185.55 500.65 185.68 500.64 185.73 500.63 185.77 500.63 185.82 500.63 185.86 500.61 185.92 500.58 185.99 500.53 186.1 500.5 186.16 500.5 186.18 500.49 186.22 500.49 186.24 500.48 186.28 500.5 186.37 500.49 186.43 500.47 186.48 500.46 186.53 500.46 186.6 500.47 186.65 500.47 186.7 500.45 186.74 500.41 186.78 500.33 186.89 500.26 186.97 500.2 187.05 500.15 187.11 500.11 187.17 500.04 187.27 500 187.33 499.93 187.44 499.88 187.52 499.83 187.6 499.8 187.7 499.77 187.78 499.73 187.87 499.72 187.96 499.71 188.04 499.71 188.11 499.73 188.22 499.74 188.24 499.78 188.34 499.79 188.39 499.79 188.41 499.8 188.46 499.84 188.55 499.91 188.68 499.94 188.72 499.97 188.75 500 188.8 500.07 188.92 500.09 188.98 500.12 189.03 500.13 189.07 500.14 189.13 500.14 189.14 500.14 189.16 500.14 189.17 500.12 189.21 500.1 189.25 500.08 189.28 500.08 189.31 500.08 189.32 500.09 189.37 500.13 189.48 500.15 189.54 500.16 189.56 500.2 189.62 500.24 189.65 500.27 189.69 500.29 189.73 500.3 189.78 500.29 189.81 500.29 189.83 500.29 189.85 500.28 189.9 500.26 189.94 500.22 189.99 500.2 190.03 500.19 190.07 500.17 190.14 500.17 190.17 500.17 190.2 500.18 190.25 500.2 190.29 500.21 190.31 500.25 190.35 500.27 190.38 500.31 190.43 500.31 190.45 500.34 190.52 500.34 190.55 500.33 190.57 500.34 190.61 500.34 190.66 500.36 190.71 500.36 190.76 500.36 190.8 500.36 190.85 500.34 190.9 500.32 190.95 500.3 190.98 500.27 191.01 500.24 191.04 500.2 191.07 500.16 191.09 500.11 191.12 500.07 191.13 500.03 191.15 499.94 191.15 499.91 191.15 499.87 191.16 499.83 191.18 499.79 191.21 499.74 191.26 499.69 191.3 499.65 191.34 499.62 191.36 499.59 191.37 499.55 191.38 499.52 191.39 499.46 191.43 499.42 191.47 499.38 191.51 499.34 191.55 499.32 191.59 499.3 191.65 499.28 191.74 499.27 191.78 499.26 191.82 499.25 191.87 499.24 191.92 499.22 191.95 499.21 191.98 499.19 192.01 499.17 192.06 499.14 192.1 499.13 192.13 499.12 192.15 499.1 192.2 499.08 192.25 499.04 192.31 499.02 192.35 499.01 192.38 498.99 192.41 498.97 192.5 498.95 192.54 498.93 192.57 498.92 192.61 498.92 192.65 498.91 192.68 498.92 192.72 498.92 192.76 498.92 192.81 498.91 192.84 498.89 192.88 498.87 192.92 498.84 192.97 498.83 193 498.83 193.03 498.83 193.08 498.82 193.14 498.81 193.18 498.81 193.23 498.82 193.26 498.83 193.3 498.86 193.35 498.88 193.39 498.91 193.42 498.94 193.46 498.97 193.51 499.01 193.56 499.04 193.6 499.06 193.64 499.1 193.68 499.12 193.73 499.14 193.78 499.15 193.83 499.17 193.9 499.19 193.96 499.22 194.01 499.24 194.06 499.26 194.1 499.27 194.14 499.29 194.18 499.31 194.22 499.32 194.25 499.34 194.29 499.35 194.32 499.35 194.34 499.35 194.36 499.35 194.37 499.35 194.38 499.34 194.4 499.34 194.42 499.34 194.45 499.34 194.49 499.33 194.52 499.32 194.57 499.29 194.65 499.27 194.7 499.24 194.75 499.21 194.8 499.2 194.85 499.18 194.91 499.16 194.94 499.14 195 499.13 195.04 499.11 195.1 499.11 195.15 499.11 195.19 499.1 195.23 499.11 195.27 499.12 195.31 499.13 195.34 499.15 195.37 499.19 195.4 499.21 195.43 499.24 195.47 499.26 195.5 499.28 195.55 499.29 195.59 499.31 195.64 499.31 195.69 499.32 195.75 499.32 195.78 499.32 195.81 499.31 195.85 499.31 195.88 499.3 195.93 499.31 195.99 499.32 196.04 499.33 196.09 499.36 196.18 499.3 196.17 499.16 196.16 498.91 196.13 498.72 196.11 498.58 196.16 498.42 196.21 498.25 196.27 498.13 196.31 497.97 196.37 497.82 196.42 497.73 196.45 497.59 196.49 497.49 196.53 497.39 196.57 497.26 196.63 497.22 196.62 497.16 196.6 497.15 196.6 497.14 196.6 497.02 196.56 496.94 196.52 496.73 196.38 496.72 196.38 496.68 196.35 496.48 196.21 496.2 196.02 495.94 195.92 495.55 195.73 495.18 195.42 495.04 195.3 494.82 195.15 494.81 195.11 494.8 195.07 494.78 195.03 494.77 194.98 494.76 194.93 494.75 194.88 494.75 194.84 494.75 194.79 494.74 194.74 494.74 194.68 494.75 194.63 494.75 194.57 494.76 194.53 494.76 194.48 494.77 194.43 494.78 194.37 494.78 194.33 494.79 194.28 494.81 194.18 494.83 194.12 494.84 194.06 494.85 193.99 494.87 193.93 494.88 193.87 494.89 193.81 494.9 193.76 494.91 193.71 494.94 193.66 494.97 193.61 495 193.55 495.02 193.49 495.05 193.43 495.09 193.36 495.13 193.29 495.16 193.22 495.19 193.16 495.23 193.07 495.27 193 495.3 192.93 495.34 192.85 495.38 192.78 495.41 192.71 495.45 192.63 495.49 192.55 495.52 192.47 495.55 192.37 495.59 192.27 495.61 192.19 495.64 192.11 495.68 192.02 495.71 191.93 495.75 191.82 495.77 191.75 495.8 191.67 495.81 191.63 495.82 191.55 495.84 191.45 495.85 191.38 495.86 191.27 495.88 191.16 495.89 191.08 495.9 190.99 495.92 190.9 495.93 190.77 495.94 190.71 495.95 190.67 495.97 190.58 495.98 190.5 495.99 190.41 496 190.37 496.01 190.3 496.02 190.19 496.04 190.1 496.04 190.09 496.04 190.07 496.04 190.04 496.06 189.96 496.07 189.88 496.08 189.8 496.09 189.72 496.11 189.64 496.12 189.54 496.13 189.46 496.15 189.33 496.16 189.28 496.16 189.26 496.16 189.25 496.16 189.17 496.17 189.06 496.17 188.95 496.16 188.9 496.14 188.85 496.1 188.79 496.05 188.71 496 188.63 495.95 188.54 495.89 188.43 495.87 188.41 495.85 188.36 495.8 188.29 495.78 188.26 495.74 188.18 495.69 188.1 495.66 188.04 495.62 187.98 495.57 187.91 495.57 187.9 495.5 187.84 495.44 187.77 495.35 187.69 495.31 187.65 495.26 187.6 495.23 187.57 495.22 187.56 495.21 187.55 495.18 187.51 495.13 187.47 495.08 187.43 495.03 187.38 494.97 187.34 494.96 187.33 494.92 187.28 494.88 187.24 494.93 187.13 494.96 187.08 494.99 187.03 495.01 186.98 495.04 186.94 495.06 186.9 495.07 186.86 495.08 186.82 495.1 186.78 495.11 186.72 495.13 186.67 495.15 186.6 495.18 186.52 495.19 186.48 495.16 186.43 495.13 186.39 495.1 186.33 495.06 186.27 495.02 186.2 494.99 186.15 494.96 186.09 494.94 186.05 494.92 186.01 494.89 185.98 494.85 185.94 494.8 185.88 494.72 185.8 494.66 185.73 494.59 185.65 494.52 185.58 494.47 185.51 494.41 185.45 494.35 185.38 494.31 185.34 494.27 185.3 494.26 185.29 494.25 185.28 494.26 185.27 494.26 185.25 494.31 185.17 494.31 185.16 494.31 185.15 494.37 185.04 494.46 184.88 494.54 184.71 494.6 184.61 494.64 184.53 494.69 184.42 494.7 184.41 494.73 184.34 494.78 184.24 494.84 184.13 494.88 184.05 495 183.95 495.16 183.83 495.33 183.68 495.47 183.56 495.61 183.45 495.65 183.41 495.66 183.31 495.67 183.18 495.68 182.99 495.68 182.89 495.64 182.76 495.59 182.58 495.55 182.46 495.54 182.42 495.53 182.38 495.5 182.28 495.49 182.27 495.48 182.22 495.44 182.08 495.35 181.81 495.3 181.65 495.26 181.5 495.2 181.33 495.18 181.26 495.16 181.2 495.15 181.16 495.15 181.15 495.14 181.05 495.13 181.01 495.11 180.89 495.11 180.87 495.08 180.74 495.08 180.69 495.06 180.61 495.03 180.51 495.01 180.43 494.98 180.32 494.96 180.24 494.92 180.1 494.91 180.06 494.9 180.04 494.87 179.91 494.86 179.88 494.85 179.84 494.83 179.78 494.83 179.77 494.8 179.71 494.8 179.7 494.79 179.68 494.74 179.59 494.7 179.5 494.7 179.48 494.68 179.46 494.66 179.41 494.64 179.37 494.64 179.35 494.63 179.34 494.62 179.31 494.6 179.23 494.56 179.13 494.54 179.06 494.52 179.01 494.49 178.92 494.53 178.83 494.57 178.73 494.57 178.7 494.58 178.69 494.59 178.67 494.6 178.65 494.61 178.62 494.64 178.53 494.68 178.44 494.6 178.4 494.53 178.36 494.49 178.34 494.47 178.33 494.42 178.31 494.33 178.26 494.3 178.25 494.27 178.23 494.25 178.22 494.21 178.2 494.14 178.16 494.06 178.12 493.97 178.07 493.95 178.06 493.89 178.03 493.84 178 493.82 177.99 493.76 177.95 493.69 177.9 493.61 177.85 493.53 177.8 493.5 177.78 493.49 177.77 493.49 177.77 493.47 177.76 493.45 177.72 493.43 177.69 493.42 177.67 493.4 177.64 493.37 177.59 493.36 177.57 493.34 177.53 493.33 177.52 493.33 177.51 493.29 177.47 493.26 177.43 493.24 177.41 493.18 177.32 493.12 177.25 493.09 177.21 493.07 177.18 493 177.08 492.98 177.05 492.97 177.04 492.95 177.01 492.93 176.97 492.92 176.93 492.91 176.91 492.89 176.84 492.86 176.76 492.82 176.65 492.79 176.56 492.75 176.47 492.73 176.39 492.72 176.38 492.72 176.37 492.7 176.33 492.69 176.27 492.69 176.27 492.69 176.26 492.67 176.15 492.65 176 492.62 175.88 492.61 175.8 492.61 175.79 492.61 175.78 492.6 175.78 492.59 175.69 492.58 175.6 492.56 175.5 492.54 175.38 492.52 175.26 492.5 175.12 492.49 175.05 492.54 175.02 492.62 174.98 492.69 174.93 492.77 174.89 492.78 174.88 492.85 174.83 492.87 174.83 492.94 174.78 493.02 174.73 493.1 174.68 493.17 174.64 493.21 174.62 493.25 174.6 493.3 174.58 493.36 174.56 493.44 174.54 493.54 174.5 493.62 174.48 493.69 174.45 493.77 174.43 493.86 174.4 493.96 174.36 493.97 174.36 494.05 174.33 494.12 174.31 494.2 174.28 494.27 174.26 494.35 174.23 494.43 174.21 494.5 174.18 494.57 174.15 494.6 174.14 494.62 174.13 494.63 174.12 494.64 174.1 494.65 174.08 494.66 174.07 494.66 174.06 494.67 174.05 494.7 173.97 494.75 173.88 494.78 173.82 494.79 173.79 494.8 173.78 494.84 173.7 494.87 173.62 494.89 173.58 494.98 173.57 495.07 173.57 495.18 173.57 495.28 173.56 495.38 173.56 495.48 173.56 495.56 173.56 495.66 173.56 495.69 173.56 495.75 173.56 495.83 173.56 495.92 173.56 496.01 173.56 496.13 173.56 496.17 173.5 496.22 173.41 496.26 173.35 496.28 173.32 496.35 173.21 496.4 173.13 496.47 173.01 496.52 172.93 496.54 172.9 496.6 172.8 496.61 172.78 496.67 172.69 496.69 172.65 496.7 172.66 496.74 172.69 496.83 172.76 496.9 172.82 496.99 172.89 497.05 172.93 497.11 172.98 497.18 173.03 497.24 173.08 497.29 173.12 497.37 173.18 497.43 173.22 497.48 173.26 497.48 173.26 497.52 173.29 497.55 173.32 497.56 173.33 497.58 173.33 497.62 173.33 497.7 173.31 497.72 173.31 497.79 173.31 497.81 173.31 497.82 173.31 497.93 173.31 Z"/>
</g></svg>