<svg xmlns="http://www.w3.org/2000/svg" version="1.2" baseProfile="tiny" stroke-linecap="round" stroke-linejoin="round" viewBox="710.45 264.77 30.58 19.4"><g xmlns="http://www.w3.org/2000/svg" id="Urzainki">
<path d="M 739.57 277.68 739.65 277.71 739.74 277.74 739.84 277.78 739.95 277.82 740.03 277.85 740.06 277.86 740.16 277.9 740.24 277.93 740.33 277.97 740.43 278 740.45 278.06 740.49 278.16 740.53 278.27 740.56 278.35 740.59 278.45 740.63 278.55 740.67 278.65 740.7 278.75 740.75 278.89 740.8 279 740.83 279.09 740.85 279.17 740.87 279.2 740.88 279.25 740.92 279.27 740.96 279.3 741 279.32 741.02 279.34 741.01 279.36 740.98 279.39 740.94 279.43 740.89 279.45 740.84 279.49 740.79 279.51 740.75 279.53 740.71 279.55 740.68 279.58 740.67 279.59 740.64 279.62 740.6 279.68 740.55 279.76 740.52 279.8 740.51 279.85 740.5 279.93 740.51 280.04 740.49 280.12 740.48 280.17 740.46 280.23 740.44 280.31 740.39 280.35 740.35 280.38 740.32 280.42 740.29 280.47 740.26 280.53 740.24 280.56 740.22 280.63 740.22 280.72 740.21 280.81 740.18 280.88 740.15 280.96 740.13 281.04 740.13 281.12 740.16 281.22 740.16 281.28 740.14 281.35 740.09 281.41 739.99 281.52 739.95 281.55 739.9 281.58 739.87 281.57 739.85 281.58 739.82 281.61 739.79 281.64 739.74 281.66 739.65 281.71 739.57 281.75 739.56 281.74 739.48 281.73 739.43 281.72 739.41 281.72 739.31 281.69 739.29 281.7 739.23 281.75 739.17 281.79 739.13 281.84 739.09 281.89 739.04 281.98 738.97 282.1 738.92 282.17 738.87 282.21 738.82 282.24 738.77 282.27 738.67 282.31 738.54 282.39 738.39 282.48 738.23 282.59 738.13 282.66 738.07 282.69 738.01 282.72 737.97 282.74 737.91 282.75 737.82 282.76 737.78 282.78 737.76 282.8 737.74 282.85 737.71 282.92 737.67 282.97 737.62 283.02 737.56 283.06 737.52 283.11 737.49 283.16 737.45 283.24 737.39 283.31 737.39 283.32 737.32 283.24 737.26 283.18 737.21 283.12 737.12 283 737.04 282.88 736.97 282.79 736.93 282.76 736.87 282.72 736.82 282.71 736.75 282.72 736.63 282.71 736.54 282.71 736.4 282.7 736.35 282.69 736.32 282.66 736.29 282.61 736.26 282.56 736.23 282.49 736.22 282.44 736.22 282.38 736.22 282.31 736.2 282.28 736.18 282.25 736.13 282.23 736.07 282.22 736 282.23 735.9 282.24 735.83 282.24 735.77 282.23 735.68 282.2 735.59 282.17 735.49 282.14 735.41 282.13 735.36 282.12 735.31 282.13 735.23 282.14 735.17 282.14 735.14 282.13 735.09 282.11 735.03 282.07 734.99 282.03 734.95 281.99 734.91 281.94 734.87 281.9 734.8 281.84 734.71 281.78 734.64 281.74 734.59 281.71 734.56 281.68 734.53 281.65 734.51 281.6 734.48 281.56 734.46 281.53 734.41 281.5 734.35 281.47 734.29 281.45 734.23 281.43 734.16 281.44 734.09 281.45 734.03 281.45 733.94 281.4 733.88 281.39 733.83 281.38 733.75 281.37 733.68 281.35 733.61 281.34 733.55 281.31 733.5 281.28 733.45 281.26 733.41 281.24 733.37 281.21 733.34 281.18 733.33 281.18 733.32 281.18 733.17 281.18 732.98 281.2 732.92 281.21 732.45 281.26 732.21 281.29 732.18 281.29 731.93 281.33 731.83 281.34 731.48 281.38 731.43 281.38 731.05 281.43 730.82 281.45 730.8 281.46 730.63 281.47 730.46 281.47 730.32 281.47 730.07 281.44 729.88 281.41 729.64 281.43 729.27 281.48 729.21 281.59 729.19 281.63 729.18 281.64 729.11 281.76 729.07 281.85 729.03 282.01 728.99 282.24 728.98 282.27 728.97 282.3 728.95 282.4 728.96 282.55 728.96 282.73 728.76 282.75 728.73 282.75 728.38 282.79 728.37 282.8 728.26 282.81 728.18 282.79 728.14 282.78 727.96 282.72 727.94 282.72 727.48 282.58 727.3 282.53 727.28 282.52 727.18 282.49 727.15 282.46 727.01 282.28 726.99 282.26 726.94 282.21 726.93 282.12 726.91 282.01 726.89 281.86 726.89 281.82 726.89 281.8 726.88 281.74 726.68 281.68 726.47 281.63 726.33 281.59 726.15 281.6 726.05 281.61 726 281.67 725.98 281.7 725.92 281.77 725.84 281.86 725.77 281.93 725.68 282.03 725.67 282.04 725.61 282.11 725.59 282.13 725.56 282.17 725.51 282.21 725.48 282.23 725.19 282.17 724.83 282.09 724.81 282.17 724.47 281.97 724.22 281.82 724.21 281.82 724.16 281.79 723.8 281.59 723.63 281.6 723.38 281.62 723.32 281.63 723.3 281.63 723.01 281.65 722.91 281.69 722.82 281.72 722.76 281.74 722.43 281.85 722.4 281.86 722.31 281.89 722.16 281.94 722.01 281.99 721.97 282.01 721.84 282.06 721.62 282.25 721.47 282.38 721.36 282.41 721.17 282.44 721.15 282.45 721.12 282.46 720.95 282.49 720.79 282.53 720.66 282.54 720.48 282.57 720.29 282.61 720.04 282.66 719.99 282.67 719.89 282.69 719.77 282.71 719.74 282.72 719.57 282.75 719.49 282.79 719.46 282.81 719.3 282.9 719.14 282.98 719.13 282.99 719.02 283.04 718.91 283.15 718.85 283.21 718.75 283.29 718.66 283.38 718.65 283.39 718.53 283.5 718.5 283.54 718.4 283.63 718.28 283.74 718.1 283.92 718.06 283.95 717.91 284.09 717.86 284.14 717.85 284.15 717.79 284.16 717.64 284.12 717.6 284.09 717.58 284.04 717.58 284.03 717.57 283.98 717.66 283.88 717.74 283.76 717.81 283.63 717.89 283.52 717.9 283.5 717.94 283.42 718 283.27 718.06 283.06 718.07 283.03 718.13 282.82 718.16 282.67 718.15 282.6 718.12 282.53 718.06 282.44 718.04 282.38 718.05 282.27 718.08 282.11 718.1 282.05 718.01 282.04 717.97 282.04 717.93 282.03 717.9 282.03 717.87 282.03 717.85 282.03 717.83 282.02 717.82 282.01 717.56 281.86 717.33 281.76 717.16 281.68 717.02 281.62 716.85 281.32 716.62 281.08 716.55 281.02 716.33 280.89 716.24 280.84 716.2 280.82 716.02 280.72 715.9 280.61 715.83 280.54 715.67 280.4 715.52 280.25 715.24 280.01 715.18 279.96 715.17 279.95 714.98 279.79 714.9 279.72 715.05 279.49 715.24 279.22 715.15 279.18 714.84 279.07 714.73 279.02 714.67 279 714.56 278.96 714.45 278.92 714.36 278.88 714.3 278.84 714.24 278.79 714.2 278.72 714.15 278.58 714.12 278.49 714.09 278.37 714.07 278.25 713.82 278.22 713.55 278.17 713.33 278.15 713.3 278.14 713.18 278.12 713.09 278.07 712.85 277.91 712.8 277.91 712.74 277.9 712.53 277.89 712.35 277.88 712.3 277.88 712.16 277.87 712.14 277.87 712.12 277.87 712.1 277.87 712.05 277.86 711.99 277.83 711.96 277.79 711.95 277.78 711.82 277.6 711.81 277.59 711.77 277.57 711.7 277.54 711.63 277.53 711.56 277.52 711.36 277.51 711.25 277.49 711.22 277.48 711.17 277.48 711.12 277.47 710.82 277.39 710.48 277.3 710.46 277.29 710.57 277.02 710.62 276.93 710.65 276.85 710.71 276.73 710.78 276.58 710.91 276.29 710.94 276.23 710.96 276.18 710.9 276.01 710.7 275.46 710.72 275.23 710.72 275.11 710.74 274.89 710.74 274.86 710.77 274.53 710.69 274.24 710.63 274.01 710.61 273.88 710.61 273.85 710.58 273.69 710.57 273.61 710.58 273.53 710.58 273.47 710.59 273.44 710.6 273.35 710.61 273.24 710.61 273.19 710.61 273.17 710.68 272.83 710.7 272.69 710.7 272.67 710.71 272.65 710.72 272.55 710.75 272.38 710.8 272.12 710.81 272.01 710.81 271.91 710.8 271.79 710.79 271.67 710.79 271.54 710.78 271.38 710.77 271.24 710.76 271.09 710.75 270.94 710.75 270.89 710.75 270.87 710.75 270.86 710.75 270.82 710.74 270.71 710.8 270.48 710.83 270.36 710.92 270.13 710.95 270.04 710.99 269.95 711.02 269.87 711.06 269.8 711.1 269.72 711.13 269.64 711.17 269.57 711.21 269.49 711.23 269.44 711.32 269.34 711.37 269.22 711.42 269.1 711.48 268.97 711.61 268.66 711.66 268.53 711.71 268.42 711.74 268.34 711.8 268.15 711.86 267.97 711.91 267.8 711.97 267.64 712.04 267.44 712.11 267.28 712.16 267.16 712.21 267.04 712.27 266.9 712.32 266.8 712.34 266.75 712.4 266.66 712.45 266.58 712.51 266.49 712.57 266.38 712.53 266.29 712.47 266.16 712.41 266.02 712.33 265.85 712.26 265.7 712.19 265.54 712.19 265.53 712.18 265.52 712.14 265.44 712.17 265.37 712.2 265.29 712.24 265.2 712.25 265.18 712.27 265.14 712.29 265.08 712.34 264.98 712.39 264.87 712.43 264.79 712.52 264.93 712.54 264.95 712.69 265.17 712.71 265.19 712.91 265.49 712.93 265.52 713.31 266.06 713.64 266.55 713.7 266.58 714.1 266.78 714.14 266.8 714.39 266.92 714.46 266.95 714.49 266.97 714.71 267.07 714.77 267.1 714.86 267.14 715.09 267.26 715.16 267.28 715.17 267.29 715.18 267.3 715.19 267.33 715.23 267.39 715.24 267.42 715.25 267.46 715.26 267.49 715.28 267.54 715.3 267.58 715.31 267.59 715.32 267.6 715.33 267.6 715.36 267.6 715.37 267.61 715.38 267.63 715.4 267.65 715.42 267.68 715.43 267.7 715.43 267.72 715.43 267.74 715.43 267.76 715.44 267.77 715.45 267.79 715.46 267.81 715.47 267.84 715.48 267.86 715.49 267.89 715.49 267.91 715.49 267.94 715.49 267.97 715.49 268 715.48 268.02 715.48 268.04 715.48 268.07 715.48 268.09 715.47 268.12 715.47 268.13 715.47 268.16 715.47 268.19 715.48 268.23 715.48 268.26 715.49 268.28 715.5 268.31 715.53 268.38 715.56 268.43 715.57 268.47 715.59 268.51 715.6 268.54 715.61 268.57 715.62 268.61 715.63 268.64 715.64 268.66 715.66 268.68 715.67 268.7 715.67 268.73 715.67 268.75 715.68 268.76 715.69 268.77 715.72 268.78 715.74 268.79 715.77 268.81 715.78 268.82 715.79 268.84 715.81 268.86 715.83 268.86 715.86 268.87 715.89 268.88 715.94 268.89 715.99 268.91 716.02 268.92 716.04 268.94 716.05 268.95 716.05 268.97 716.06 268.99 716.07 269 716.09 269.01 716.11 269 716.13 269 716.14 269 716.16 269.01 716.19 269.03 716.2 269.04 716.23 269.06 716.26 269.08 716.29 269.11 716.32 269.14 716.32 269.15 716.31 269.17 716.31 269.19 716.31 269.21 716.32 269.22 716.32 269.25 716.31 269.26 716.31 269.3 716.32 269.33 716.31 269.37 716.32 269.4 716.34 269.42 716.35 269.45 716.36 269.49 716.37 269.53 716.38 269.57 716.39 269.6 716.4 269.62 716.41 269.63 716.42 269.64 716.43 269.65 716.44 269.65 716.46 269.65 716.48 269.66 716.53 269.69 716.55 269.71 716.59 269.72 716.62 269.74 716.66 269.76 716.68 269.76 716.7 269.78 716.71 269.8 716.73 269.81 716.75 269.81 716.79 269.8 716.81 269.79 716.83 269.79 716.84 269.79 716.87 269.8 716.89 269.82 716.92 269.82 716.93 269.82 716.95 269.83 717 269.86 717.04 269.9 717.07 269.92 717.13 269.94 717.16 269.96 717.2 269.98 717.23 270 717.25 270.03 717.29 270.05 717.35 270.1 717.38 270.12 717.4 270.13 717.45 270.15 717.51 270.18 717.51 270.19 717.53 270.22 717.57 270.27 717.6 270.32 717.64 270.38 717.67 270.42 717.69 270.45 717.74 270.49 717.79 270.53 717.83 270.56 717.88 270.6 717.91 270.62 717.96 270.65 718.02 270.7 718.08 270.75 718.16 270.79 718.21 270.83 718.31 270.88 718.38 270.92 718.45 270.95 718.47 270.97 718.54 270.99 718.64 271.02 718.69 271.03 718.8 271.06 718.91 271.09 719 271.12 719.09 271.14 719.19 271.17 719.28 271.2 719.38 271.23 719.47 271.25 719.48 271.25 719.55 271.28 719.6 271.29 719.63 271.3 719.63 271.3 719.71 271.32 719.78 271.34 719.92 271.38 720 271.41 720.04 271.4 720.16 271.5 720.26 271.58 720.32 271.64 720.42 271.71 720.53 271.8 720.65 271.9 720.76 271.99 720.89 272.09 720.9 272.1 721.01 272.18 721.01 272.18 721.03 272.2 721.08 272.23 721.11 272.26 721.17 272.3 721.23 272.34 721.24 272.35 721.33 272.43 721.37 272.45 721.44 272.48 721.51 272.51 721.55 272.54 721.68 272.59 721.72 272.61 721.73 272.62 721.74 272.62 721.85 272.62 721.86 272.63 721.88 272.64 721.89 272.64 721.92 272.67 722.04 272.79 722.24 272.83 722.34 272.8 722.49 272.93 722.71 272.91 722.78 272.91 722.86 272.91 722.91 272.91 722.99 272.94 723.01 272.95 723.13 272.77 723.14 272.75 723.37 272.64 723.58 272.54 723.75 272.47 723.81 272.44 723.95 272.37 724.07 272.31 724.16 272.27 724.37 272.17 724.41 272.15 724.48 272.12 724.68 272.07 724.71 272.07 724.82 272.04 724.9 272.02 724.97 271.85 725.06 271.58 725.13 271.4 725.27 271.46 725.64 271.61 725.82 271.68 725.85 271.69 726.14 271.81 726.28 271.87 726.36 271.9 726.39 271.91 726.62 272.01 726.84 272.1 727.4 272.33 727.54 272.38 727.75 272.54 727.76 272.54 728.05 272.78 728.48 273.14 728.68 273.3 728.74 273.41 728.85 273.64 728.95 273.85 728.94 273.93 728.93 273.98 728.91 274.09 728.88 274.23 729.29 274.52 729.52 274.68 729.89 274.76 729.92 274.77 729.93 274.77 730.09 274.81 730.41 274.89 730.67 275.01 730.98 275.16 731.09 275.21 731.34 275.34 731.63 275.48 731.87 275.59 732.1 275.7 732.36 275.83 732.52 275.91 732.7 276 732.88 276.09 732.94 276.12 733.03 276.16 733.12 276.21 733.18 276.23 733.21 276.24 733.31 276.29 733.44 276.32 733.5 276.33 733.62 276.36 733.75 276.39 733.89 276.42 734.06 276.45 734.15 276.47 734.28 276.58 734.44 276.72 734.62 276.88 734.76 277.01 734.81 277.03 734.83 277.04 734.85 277.05 735.15 277.18 735.44 277.31 735.69 277.41 735.74 277.44 735.97 277.45 735.99 277.46 736.23 277.47 736.4 277.48 736.52 277.49 736.61 277.5 736.76 277.34 736.94 277.16 737.13 276.97 737.29 277.14 737.47 277.33 737.6 277.47 737.62 277.49 737.65 277.53 737.77 277.66 737.9 277.79 738.07 277.94 738.15 278 738.26 278.1 738.48 278.28 738.6 278.37 738.81 278.52 738.83 278.53 739.01 278.66 739.08 278.53 739.2 278.32 739.35 278.06 739.46 277.86 739.47 277.85 739.49 277.81 739.57 277.68 Z"/>
</g></svg>