<svg xmlns="http://www.w3.org/2000/svg" version="1.2" baseProfile="tiny" stroke-linecap="round" stroke-linejoin="round" viewBox="386.82 101.68 22.58 23.25"><g xmlns="http://www.w3.org/2000/svg" id="Usurbil">
<path d="M 390.1 103.28 391.5 103.2 391.71 103.2 391.71 103.2 391.72 103.2 391.73 103.2 391.74 103.2 391.76 103.2 391.77 103.2 391.78 103.2 391.79 103.2 391.8 103.19 391.81 103.19 391.82 103.19 391.83 103.19 391.84 103.19 391.85 103.18 391.86 103.17 391.88 103.17 391.89 103.16 391.9 103.15 391.92 103.15 391.93 103.14 391.94 103.14 391.96 103.13 391.97 103.13 391.98 103.13 392 103.12 392.01 103.12 392.03 103.11 392.04 103.11 392.05 103.11 392.07 103.1 392.1 103.1 392.12 103.1 392.14 103.09 392.16 103.08 392.19 103.08 392.21 103.07 392.23 103.07 392.25 103.07 392.27 103.06 392.28 103.06 392.3 103.06 392.31 103.06 392.32 103.06 392.34 103.05 392.35 103.05 392.37 103.04 392.38 103.04 392.39 103.04 392.41 103.03 392.42 103.03 392.43 103.02 392.45 103.02 392.46 103.01 392.47 103.01 392.5 103 392.52 102.98 392.54 102.97 392.56 102.96 392.58 102.95 392.61 102.94 392.63 102.93 392.65 102.92 392.67 102.91 392.7 102.9 392.72 102.89 392.74 102.88 392.76 102.88 392.78 102.87 392.81 102.86 392.83 102.85 392.85 102.84 392.87 102.83 392.89 102.81 392.91 102.8 392.93 102.79 392.95 102.78 392.97 102.77 392.99 102.75 393.01 102.74 393.02 102.73 393.04 102.73 393.05 102.72 393.06 102.71 393.07 102.7 393.08 102.69 393.1 102.69 393.11 102.68 393.12 102.67 393.13 102.67 393.15 102.66 393.16 102.65 393.17 102.65 393.22 102.63 393.27 102.61 393.32 102.6 393.37 102.58 393.42 102.57 393.47 102.55 393.52 102.53 393.57 102.51 393.69 102.48 393.8 102.44 393.91 102.41 393.93 102.4 393.96 102.38 393.98 102.37 394 102.36 394.02 102.35 394.04 102.34 394.07 102.33 394.09 102.32 394.11 102.32 394.13 102.31 394.16 102.3 394.18 102.29 394.2 102.28 394.22 102.27 394.24 102.26 394.26 102.25 394.28 102.24 394.3 102.23 394.31 102.23 394.32 102.22 394.33 102.21 394.34 102.21 394.35 102.2 394.36 102.2 394.37 102.19 394.38 102.19 394.39 102.19 394.4 102.18 394.41 102.18 394.42 102.17 394.43 102.17 394.44 102.17 394.45 102.16 394.46 102.16 394.47 102.15 394.48 102.15 394.49 102.14 394.5 102.14 394.51 102.13 394.52 102.13 394.53 102.13 394.53 102.12 394.54 102.12 394.56 102.12 394.57 102.11 394.58 102.11 394.6 102.11 394.61 102.1 394.62 102.1 394.64 102.1 394.65 102.1 394.66 102.09 394.68 102.09 394.69 102.09 394.7 102.09 394.71 102.09 394.72 102.09 394.74 102.09 394.75 102.09 394.76 102.09 394.77 102.09 394.78 102.09 394.78 102.08 394.79 102.08 394.8 102.08 394.81 102.08 394.81 102.08 394.82 102.07 394.83 102.07 394.84 102.07 394.85 102.07 394.85 102.07 394.86 102.07 394.87 102.07 394.88 102.07 394.9 102.07 394.91 102.07 394.93 102.07 394.94 102.07 394.96 102.07 394.97 102.06 394.98 102.06 395 102.06 395.01 102.06 395.03 102.05 395.04 102.05 395.06 102.05 395.07 102.04 395.08 102.04 395.1 102.04 395.11 102.03 395.12 102.03 395.12 102.02 395.13 102.02 395.14 102.02 395.14 102.01 395.15 102.01 395.16 102.01 395.17 102.01 395.17 102.01 395.18 102.01 395.19 102.01 395.2 102.01 395.2 102.01 395.21 102.02 395.22 102.02 395.23 102.02 395.24 102.03 395.25 102.03 395.26 102.03 395.5 102.07 395.71 102.11 395.82 102.11 395.98 102.14 396.45 102.23 396.55 102.17 396.57 102.18 396.61 102.21 396.65 102.24 396.68 102.27 396.69 102.31 396.74 102.35 396.76 102.36 396.77 102.38 396.81 102.4 396.86 102.43 396.92 102.45 396.97 102.47 397.03 102.47 397.07 102.46 397.11 102.45 397.15 102.45 397.18 102.45 397.19 102.44 397.23 102.44 397.28 102.44 397.34 102.44 397.39 102.45 397.43 102.47 397.47 102.5 397.52 102.53 397.55 102.55 397.59 102.55 397.61 102.56 397.64 102.57 397.66 102.58 397.68 102.6 397.71 102.6 397.74 102.6 397.76 102.59 397.77 102.59 397.79 102.58 397.81 102.56 397.82 102.55 397.84 102.53 397.86 102.51 397.87 102.5 397.88 102.5 397.9 102.48 397.91 102.48 397.94 102.44 397.98 102.41 398 102.4 398.01 102.4 398.03 102.38 398.05 102.37 398.06 102.35 398.07 102.34 398.1 102.31 398.14 102.3 398.18 102.28 398.23 102.27 398.25 102.27 398.29 102.28 398.35 102.28 398.55 102.27 398.6 102.28 398.68 102.28 398.76 102.3 398.85 102.32 398.86 102.32 398.87 102.31 398.88 102.3 398.89 102.28 398.9 102.24 398.9 102.2 398.91 102.18 398.94 102.15 398.96 102.11 398.99 102.07 399.02 102.03 399.04 102.01 399.06 101.98 399.09 101.95 399.12 101.92 399.14 101.91 399.17 101.9 399.19 101.9 399.21 101.89 399.23 101.89 399.25 101.88 399.28 101.88 399.3 101.87 399.32 101.86 399.34 101.85 399.36 101.85 399.37 101.85 399.39 101.84 399.41 101.83 399.43 101.82 399.45 101.8 399.45 101.79 399.46 101.79 399.49 101.77 399.51 101.77 399.56 101.76 399.61 101.76 399.65 101.75 399.69 101.74 399.72 101.73 399.77 101.73 399.78 101.72 399.85 101.71 399.94 101.69 400 101.69 400.06 101.69 400.1 101.7 400.14 101.71 400.18 101.73 400.21 101.75 400.25 101.77 400.28 101.79 400.3 101.82 400.31 101.84 400.33 101.87 400.34 101.88 400.34 101.9 400.34 101.92 400.34 101.93 400.34 101.95 400.34 101.97 400.34 101.99 400.34 102 400.34 102.03 400.35 102.05 400.36 102.07 400.37 102.09 400.38 102.11 400.38 102.12 400.39 102.14 400.41 102.15 400.42 102.17 400.44 102.19 400.45 102.2 400.47 102.21 400.49 102.22 400.5 102.23 400.51 102.24 400.52 102.24 400.54 102.24 400.56 102.24 400.58 102.24 400.6 102.24 400.61 102.24 400.62 102.24 400.64 102.24 400.66 102.25 400.68 102.27 400.7 102.28 400.73 102.3 400.75 102.31 400.77 102.32 400.79 102.34 400.81 102.36 400.83 102.37 400.85 102.39 400.87 102.4 400.9 102.41 400.92 102.42 400.95 102.43 400.98 102.44 401 102.46 401.03 102.47 401.05 102.5 401.07 102.51 401.09 102.52 401.11 102.54 401.12 102.55 401.14 102.56 401.15 102.57 401.2 102.6 401.26 102.65 401.31 102.69 401.36 102.71 401.37 102.72 401.41 102.75 401.42 102.76 401.47 102.78 401.51 102.81 401.52 102.82 401.54 102.82 401.57 102.84 401.59 102.85 401.63 102.86 401.66 102.86 401.69 102.87 401.72 102.89 401.75 102.92 401.78 102.95 401.8 102.97 401.82 102.99 401.82 103 401.83 103.01 401.84 103.02 401.88 103.03 401.92 103.01 401.95 103 401.97 102.99 401.99 102.99 402.08 102.99 402.12 102.99 402.13 102.99 402.16 102.99 402.22 102.98 402.27 102.95 402.28 102.95 402.31 102.93 402.37 102.89 402.45 102.83 402.46 102.82 402.52 102.78 402.57 102.75 402.62 102.71 402.66 102.68 402.71 102.66 402.74 102.65 402.79 102.63 402.83 102.6 402.88 102.59 402.9 102.58 402.94 102.58 402.97 102.58 403 102.57 403.04 102.57 403.06 102.57 403.09 102.56 403.1 102.55 403.14 102.55 403.2 102.54 403.24 102.54 403.32 102.53 403.4 102.53 403.48 102.51 403.56 102.5 403.57 102.5 403.58 102.5 403.62 102.52 403.64 102.53 403.65 102.54 403.66 102.55 403.67 102.57 403.72 102.6 403.77 102.65 403.83 102.69 403.87 102.72 403.88 102.73 403.9 102.76 403.91 102.77 403.94 102.8 403.96 102.82 403.97 102.82 404 102.83 404.02 102.85 404.04 102.88 404.05 102.9 404.07 102.92 404.11 102.97 404.11 102.98 404.13 103.01 404.16 103.07 404.17 103.09 404.18 103.12 404.21 103.15 404.24 103.2 404.25 103.22 404.26 103.22 404.27 103.24 404.3 103.27 404.31 103.28 404.35 103.3 404.4 103.33 404.45 103.36 404.5 103.39 404.51 103.39 404.55 103.42 404.58 103.45 404.59 103.46 404.61 103.49 404.65 103.53 404.69 103.56 404.72 103.58 404.73 103.59 404.75 103.6 404.78 103.6 404.84 103.59 404.89 103.58 404.94 103.55 405.01 103.53 405.05 103.51 405.08 103.51 405.11 103.51 405.12 103.51 405.14 103.52 405.16 103.53 405.19 103.54 405.2 103.54 405.26 103.55 405.27 103.56 405.35 103.57 405.44 103.58 405.49 103.59 405.53 103.6 405.58 103.61 405.61 103.59 405.66 103.56 405.68 103.56 405.74 103.52 405.8 103.5 405.82 103.49 405.85 103.47 405.89 103.46 405.89 103.45 405.91 103.44 405.95 103.43 405.99 103.41 406.03 103.4 406.02 103.45 406 103.54 405.98 103.66 405.97 103.84 405.96 103.91 405.95 103.96 405.95 104 405.94 104.03 405.92 104.07 405.92 104.09 405.91 104.14 405.91 104.2 405.9 104.25 405.93 104.25 405.94 104.26 405.96 104.26 405.97 104.28 405.98 104.28 405.99 104.3 406 104.31 406.02 104.35 406.03 104.39 406.05 104.43 406.07 104.48 406.1 104.54 406.13 104.58 406.15 104.63 406.17 104.65 406.23 104.73 406.3 104.84 406.36 104.96 406.37 104.98 406.41 105.06 406.45 105.13 406.47 105.18 406.49 105.22 406.51 105.27 406.53 105.31 406.55 105.36 406.56 105.4 406.58 105.45 406.58 105.49 406.58 105.54 406.59 105.58 406.6 105.63 406.62 105.67 406.63 105.72 406.64 105.77 406.66 105.83 406.67 105.87 406.68 105.92 406.71 105.97 406.72 106.02 406.74 106.06 406.75 106.1 406.74 106.14 406.73 106.17 406.74 106.22 406.76 106.26 406.81 106.31 406.86 106.33 406.89 106.36 406.92 106.4 406.92 106.41 406.81 106.66 407.37 106.52 407.46 106.69 407.46 106.7 407.46 106.71 407.47 106.72 407.47 106.73 407.48 106.74 407.48 106.74 407.48 106.75 407.48 106.76 407.48 106.77 407.48 106.78 407.48 106.79 407.49 106.81 407.49 106.82 407.5 106.83 407.5 106.84 407.51 106.85 407.51 106.86 407.52 106.87 407.52 106.88 407.53 106.89 407.53 106.91 407.54 106.92 407.54 106.93 407.55 106.94 407.55 106.96 407.56 106.97 407.56 106.98 407.56 106.99 407.57 107 407.57 107.01 407.58 107.02 407.58 107.03 407.59 107.04 407.59 107.05 407.6 107.06 407.61 107.07 407.61 107.08 407.62 107.09 407.62 107.1 407.63 107.11 407.63 107.12 407.64 107.14 407.64 107.15 407.64 107.15 407.65 107.17 407.65 107.18 407.66 107.19 407.66 107.2 407.67 107.21 407.67 107.22 407.67 107.23 407.67 107.23 407.68 107.24 407.68 107.25 407.68 107.26 407.69 107.27 407.69 107.28 407.7 107.28 407.7 107.3 407.71 107.3 407.71 107.31 407.71 107.32 407.72 107.33 407.72 107.34 407.73 107.35 407.73 107.36 407.73 107.37 407.73 107.38 407.74 107.39 407.74 107.4 407.74 107.42 407.74 107.43 407.74 107.44 407.74 107.45 407.74 107.47 407.74 107.48 407.74 107.5 407.74 107.51 407.74 107.52 407.74 107.53 407.74 107.54 407.74 107.55 407.74 107.57 407.74 107.58 407.74 107.59 407.74 107.61 407.74 107.62 407.74 107.64 407.74 107.64 407.74 107.66 407.73 107.67 407.73 107.68 407.73 107.7 407.73 107.7 407.72 107.72 407.72 107.73 407.72 107.74 407.72 107.76 407.71 107.77 407.71 107.78 407.71 107.79 407.71 107.8 407.71 107.82 407.7 107.83 407.7 107.84 407.7 107.85 407.7 107.87 407.7 107.88 407.7 107.89 407.7 107.9 407.7 107.91 407.69 107.92 407.69 107.93 407.69 107.94 407.69 107.95 407.69 107.96 407.69 107.98 407.69 107.99 407.69 108 407.69 108 407.69 108.01 407.69 108.02 407.69 108.03 407.7 108.04 407.7 108.05 407.7 108.06 407.7 108.07 407.7 108.07 407.7 108.08 407.69 108.09 407.7 108.13 407.72 108.17 407.73 108.18 407.73 108.19 407.74 108.2 407.75 108.22 407.75 108.23 407.76 108.24 407.77 108.25 407.77 108.26 407.77 108.27 407.78 108.28 407.78 108.29 407.79 108.3 407.8 108.31 407.8 108.32 407.81 108.32 407.81 108.33 407.82 108.34 407.83 108.35 407.83 108.36 407.84 108.37 407.85 108.38 407.85 108.39 407.86 108.4 407.87 108.4 407.88 108.41 407.88 108.41 407.89 108.42 407.9 108.43 407.91 108.44 407.91 108.44 407.92 108.45 407.92 108.46 407.93 108.47 407.93 108.48 407.94 108.5 407.94 108.51 407.95 108.51 407.95 108.52 407.96 108.53 407.96 108.54 407.97 108.55 407.97 108.56 407.98 108.57 407.98 108.58 407.98 108.59 407.99 108.6 408 108.61 408 108.61 408 108.62 408.01 108.63 408.02 108.64 408.03 108.65 408.03 108.66 408.04 108.66 408.05 108.67 408.06 108.68 408.07 108.68 408.07 108.68 408.08 108.69 408.09 108.69 408.1 108.69 408.11 108.7 408.12 108.7 408.13 108.71 408.15 108.72 408.16 108.72 408.17 108.72 408.18 108.73 408.19 108.73 408.2 108.74 408.21 108.74 408.22 108.75 408.23 108.75 408.25 108.75 408.25 108.75 408.27 108.76 408.27 108.76 408.28 108.76 408.29 108.77 408.31 108.78 408.32 108.78 408.33 108.79 408.35 108.78 408.4 108.75 408.41 108.74 408.42 108.73 408.42 108.72 408.43 108.72 408.44 108.7 408.45 108.7 408.45 108.69 408.46 108.68 408.47 108.67 408.47 108.67 408.48 108.66 408.49 108.65 408.5 108.65 408.5 108.64 408.51 108.63 408.52 108.63 408.53 108.63 408.56 108.63 408.58 108.63 408.6 108.63 408.63 108.63 408.64 108.63 408.66 108.64 408.75 108.66 408.81 108.67 408.88 108.68 408.99 108.7 409.02 108.71 409.12 108.78 409.18 108.85 409.23 108.91 409.26 108.97 409.28 108.96 409.36 109.09 409.31 109.24 409.33 109.4 409.37 109.77 409.31 110.03 409.24 110.2 409.03 110.54 408.8 110.84 408.14 110.91 408.07 110.95 408.02 110.97 407.97 110.99 407.94 111.01 407.91 111.05 407.9 111.08 407.89 111.13 407.89 111.17 407.9 111.22 407.91 111.25 407.93 111.3 407.95 111.35 408 111.45 408.05 111.56 408.02 111.6 407.97 111.61 407.87 111.62 407.83 111.63 407.79 111.64 407.76 111.65 407.73 111.66 407.68 111.69 407.64 111.71 407.61 111.73 407.59 111.74 407.55 111.76 407.05 111.73 406.39 111.61 406.37 111.65 406.33 111.63 406.3 111.6 406.24 111.54 406.19 111.49 406.14 111.44 406.08 111.37 406.04 111.33 406.03 111.3 405.94 111.24 405.84 111.18 405.76 111.15 405.64 111.11 405.49 111.07 405.43 111.05 405.39 111.06 405.33 111.06 405.31 111.07 405.29 111.07 405.27 111.07 405.21 111.06 405.17 111.06 405.1 111.06 405.04 111.05 404.98 111.02 404.96 111 404.93 111.05 404.93 111.1 404.95 111.15 404.94 111.17 404.97 111.28 404.98 111.31 405 111.36 404.98 111.38 404.89 111.47 404.83 111.52 404.83 111.52 404.83 111.57 404.83 111.61 404.84 111.66 404.85 111.72 404.88 111.83 404.88 111.84 404.91 111.93 404.93 111.99 404.95 112.04 404.97 112.09 404.97 112.1 404.75 112.2 404.71 112.19 404.63 112.14 404.57 112.07 404.47 111.96 404.39 111.86 404.31 111.88 404.3 111.85 404.3 111.81 404.31 111.78 404.32 111.76 404.26 111.73 404.26 111.73 404.25 111.72 404.23 111.69 404.22 111.69 404.21 111.68 404.2 111.67 404.2 111.66 404.19 111.65 404.19 111.65 404.19 111.64 404.18 111.63 404.18 111.62 404.18 111.59 404.18 111.58 404.18 111.52 404.19 111.49 404.19 111.47 404.19 111.47 404.19 111.45 404.16 111.35 404.17 111.39 404.17 111.37 404.17 111.36 404.16 111.33 404.15 111.31 404.15 111.3 404.14 111.28 404.15 111.27 404.13 111.22 404.13 111.21 404.13 111.2 404.12 111.19 404.12 111.18 404.11 111.18 404.1 111.12 403.96 111.19 403.87 111.24 403.77 111.27 403.72 111.31 403.65 111.37 403.59 111.42 403.53 111.46 403.41 111.56 403.26 111.71 403.22 111.74 403.29 111.83 403.31 111.87 403.35 111.92 403.35 111.92 403.46 112 403.59 112.08 403.59 112.08 403.72 111.97 403.85 111.85 404.02 111.76 404.06 111.81 404.06 111.91 404.05 111.95 404.05 111.98 404.04 112.04 404.04 112.05 404.05 112.06 404.05 112.06 404.13 112.08 404.17 112.08 404.17 112.07 404.18 112.08 404.18 112.08 404.19 112.09 404.19 112.1 404.19 112.11 404.21 112.14 404.22 112.15 404.23 112.17 404.24 112.18 404.24 112.19 404.25 112.2 404.25 112.21 404.25 112.22 404.26 112.23 404.25 112.24 404.25 112.26 404.24 112.29 404.25 112.29 404.25 112.3 404.25 112.31 404.25 112.31 404.26 112.31 404.24 112.35 404.21 112.35 404.16 112.36 404.16 112.36 404.16 112.36 404.13 112.38 404.03 112.46 403.95 112.53 403.88 112.6 403.85 112.63 403.78 112.72 403.63 112.96 403.66 112.98 403.66 112.98 403.66 112.98 403.66 113 403.65 113.02 403.64 113.06 403.62 113.11 403.62 113.13 403.61 113.15 403.6 113.19 403.6 113.22 403.59 113.24 403.58 113.25 403.57 113.27 403.53 113.3 403.5 113.33 403.49 113.34 403.49 113.35 403.56 113.42 403.81 113.63 403.79 113.73 403.79 113.75 403.81 113.79 403.91 114 403.94 114 404 114 404.05 114.05 404.03 114.08 404.06 114.13 404.12 114.17 404.21 114.22 404.25 114.3 404.29 114.4 404.37 114.37 404.47 114.44 404.56 114.41 404.62 114.39 404.64 114.62 404.67 114.89 404.37 114.88 404.35 115.16 404.46 115.15 404.71 115.57 404.82 115.75 404.9 115.88 404.94 115.96 404.99 115.93 405.03 115.99 405.03 116 404.88 116.08 404.64 116.12 404.57 116.22 404.56 116.23 404.48 116.29 404.48 116.3 404.48 116.3 404.38 116.37 404.31 116.43 404.25 116.47 404.24 116.47 404.23 116.47 404.14 116.53 404.07 116.57 403.57 116.09 403.48 116 403.2 115.73 403.12 115.65 402.84 115.39 402.76 115.31 402.82 115.22 402.9 115.09 403.03 114.91 402.9 114.65 402.74 114.32 402.59 114.44 402.51 114.34 402.51 114.34 402.5 114.33 402.5 114.33 402.49 114.33 402.48 114.32 402.48 114.32 402.47 114.32 402.46 114.32 402.46 114.32 402.45 114.31 402.45 114.31 402.44 114.31 402.43 114.31 402.43 114.31 402.43 114.31 402.42 114.31 402.42 114.31 402.41 114.31 402.41 114.31 402.4 114.31 402.4 114.3 402.39 114.3 402.38 114.3 402.37 114.29 402.36 114.29 402.35 114.28 402.28 114.26 402.28 114.26 402.26 114.25 402.25 114.24 402.23 114.23 402.22 114.23 402.21 114.22 402.2 114.21 402.18 114.2 402.17 114.19 402.14 114.21 402.12 114.24 402.1 114.29 402.09 114.33 402.07 114.47 402.05 114.59 402.03 114.65 402.03 114.68 402.01 114.78 402 114.83 401.99 114.82 401.99 114.82 401.98 114.81 401.97 114.78 401.96 114.77 401.95 114.76 401.95 114.74 401.94 114.74 401.93 114.73 401.93 114.73 401.92 114.72 401.92 114.71 401.92 114.69 401.91 114.66 401.91 114.65 401.91 114.65 401.9 114.64 401.9 114.64 401.89 114.63 401.88 114.62 401.87 114.61 401.86 114.61 401.86 114.61 401.85 114.6 401.85 114.6 401.85 114.6 401.84 114.59 401.83 114.59 401.83 114.58 401.82 114.58 401.81 114.57 401.8 114.56 401.78 114.54 401.77 114.53 401.77 114.52 401.76 114.52 401.74 114.51 401.73 114.5 401.73 114.49 401.73 114.49 401.73 114.49 401.73 114.49 401.73 114.48 401.73 114.48 401.72 114.48 401.72 114.49 401.72 114.49 401.71 114.49 401.71 114.48 401.71 114.48 401.7 114.47 401.69 114.47 401.68 114.46 401.66 114.45 401.66 114.45 401.65 114.44 401.3 114.93 401.29 114.94 401.29 114.95 401.15 115.16 401.14 115.17 401.17 115.18 401.28 115.15 401.34 115.15 401.44 115.17 401.64 115.28 401.55 115.38 401.58 115.41 401.56 115.42 401.52 115.44 401.48 115.46 401.43 115.5 401.4 115.51 401.37 115.52 401.35 115.53 401.35 115.53 401.34 115.53 401.3 115.54 401.27 115.56 401.24 115.58 401.19 115.64 401.17 115.66 401.16 115.66 401.15 115.67 401.11 115.7 401.1 115.7 401.03 115.74 400.96 115.78 400.95 115.79 400.92 115.81 400.9 115.81 400.88 115.81 400.8 115.81 400.68 115.81 400.63 115.81 400.6 115.81 400.55 115.83 400.49 115.85 400.43 115.86 400.37 115.87 400.35 115.9 400.27 116.01 400.26 116.02 400.25 116.03 400.25 116.01 400.21 115.98 400.2 115.94 400.2 115.94 400.22 115.89 400.22 115.89 400.13 115.88 400.09 115.88 400.08 115.88 400.08 115.89 400.08 115.89 400.07 115.9 400.07 115.9 400.07 115.9 400.06 115.91 400.06 115.91 400.06 115.91 400.05 115.92 400.05 115.92 400.05 115.92 400.04 115.94 400.03 115.94 400.02 115.95 400.01 115.96 399.99 115.97 399.98 115.97 399.97 115.97 399.96 115.97 399.95 115.97 399.95 115.98 399.95 115.98 399.95 115.99 399.97 116.01 399.98 116.04 399.99 116.04 400 116.05 400.01 116.07 400.02 116.08 400.03 116.1 400.04 116.11 400.04 116.11 400.04 116.11 400.04 116.12 400.04 116.13 400.05 116.13 400.05 116.14 400.05 116.15 400.05 116.15 400.05 116.15 400.05 116.16 400.05 116.16 400.06 116.17 400.06 116.18 400.06 116.19 400.05 116.2 400.05 116.22 400.05 116.23 400.04 116.27 400.04 116.29 400.03 116.29 400.03 116.3 400.03 116.31 400.03 116.31 400.03 116.32 400.02 116.32 400.01 116.33 400 116.34 399.99 116.35 399.99 116.36 399.99 116.36 399.99 116.37 399.99 116.37 399.98 116.38 399.98 116.38 399.97 116.39 399.97 116.4 399.97 116.41 399.98 116.42 399.97 116.42 399.97 116.43 399.97 116.43 399.97 116.43 399.97 116.44 399.97 116.44 399.97 116.46 399.98 116.47 399.98 116.48 399.98 116.48 399.98 116.49 399.98 116.5 399.98 116.51 399.98 116.51 399.98 116.52 399.98 116.52 399.98 116.52 399.98 116.53 399.98 116.54 399.98 116.55 399.98 116.55 399.97 116.56 399.97 116.57 399.96 116.58 399.95 116.59 399.94 116.61 399.94 116.61 399.93 116.62 399.93 116.63 399.93 116.63 399.93 116.64 399.93 116.65 399.93 116.66 399.92 116.66 399.92 116.68 399.92 116.68 399.92 116.69 399.92 116.7 399.91 116.72 399.91 116.73 399.91 116.75 399.91 116.76 399.9 116.77 399.9 116.77 399.89 116.78 399.88 116.78 399.86 116.79 399.86 116.79 399.85 116.8 399.85 116.8 399.85 116.81 399.85 116.82 399.86 116.83 399.87 116.85 399.87 116.86 399.88 116.86 399.88 116.87 399.88 116.88 399.88 116.88 399.89 116.89 399.89 116.9 399.89 116.91 399.89 116.92 399.89 116.92 399.9 116.93 399.9 116.94 399.9 116.95 399.91 116.95 399.91 116.96 399.91 116.96 399.92 116.96 399.92 116.96 399.92 116.97 399.92 116.97 399.92 116.97 399.92 116.97 399.92 116.97 399.92 116.97 399.93 116.97 399.93 116.97 399.93 116.97 399.93 116.97 399.93 116.97 399.93 116.98 399.93 116.99 399.93 116.99 399.93 117 399.93 117 399.92 117.01 399.92 117.02 399.92 117.02 399.91 117.02 399.91 117.03 399.9 117.03 399.9 117.04 399.89 117.04 399.88 117.05 399.87 117.06 399.87 117.06 399.87 117.06 399.87 117.07 399.87 117.08 399.87 117.09 399.87 117.1 399.86 117.11 399.86 117.12 399.85 117.13 399.85 117.14 399.84 117.15 399.84 117.15 399.84 117.15 399.83 117.16 399.82 117.16 399.82 117.16 399.82 117.17 399.8 117.18 399.79 117.2 399.79 117.21 399.78 117.22 399.78 117.24 399.77 117.28 399.76 117.29 399.76 117.3 399.75 117.31 399.74 117.32 399.73 117.32 399.72 117.33 399.7 117.34 399.69 117.35 399.69 117.36 399.68 117.37 399.67 117.38 399.67 117.39 399.66 117.4 399.66 117.4 399.66 117.41 399.65 117.42 399.65 117.42 399.65 117.43 399.65 117.45 399.65 117.46 399.65 117.47 399.65 117.47 399.65 117.48 399.66 117.49 399.66 117.49 399.66 117.49 399.65 117.5 399.63 117.52 399.63 117.53 399.62 117.53 399.61 117.54 399.6 117.55 399.59 117.56 399.58 117.57 399.58 117.57 399.58 117.57 399.58 117.58 399.58 117.59 399.57 117.59 399.57 117.6 399.57 117.6 399.56 117.61 399.56 117.62 399.57 117.63 399.57 117.64 399.56 117.66 399.55 117.67 399.55 117.68 399.55 117.7 399.54 117.7 399.54 117.71 399.54 117.72 399.53 117.74 399.53 117.75 399.52 117.76 399.52 117.78 399.52 117.79 399.51 117.8 399.51 117.8 399.52 117.81 399.53 117.82 399.53 117.82 399.52 117.83 399.52 117.84 399.53 117.85 399.53 117.85 399.53 117.86 399.52 117.86 399.52 117.86 399.52 117.87 399.52 117.87 399.52 117.88 399.52 117.88 399.52 117.89 399.52 117.9 399.52 117.91 399.51 117.92 399.5 117.93 399.5 117.93 399.5 117.94 399.5 117.94 399.5 117.94 399.49 117.94 399.49 117.95 399.49 117.95 399.49 117.95 399.49 117.95 399.49 117.95 399.48 117.95 399.48 117.96 399.48 117.96 399.48 117.97 399.48 117.97 399.48 117.97 399.48 117.99 399.48 117.99 399.48 118 399.48 118 399.48 118 399.47 118 399.47 118 399.47 118 399.47 118.01 399.46 118.01 399.46 118.02 399.46 118.02 399.45 118.02 399.44 118.04 399.44 118.04 399.43 118.05 399.43 118.05 399.42 118.06 399.42 118.06 399.42 118.06 399.42 118.06 399.41 118.06 399.41 118.07 399.41 118.07 399.41 118.07 399.41 118.07 399.41 118.07 399.41 118.07 399.41 118.07 399.41 118.07 399.41 118.07 399.41 118.07 399.41 118.07 399.41 118.07 399.41 118.08 399.41 118.08 399.41 118.08 399.41 118.08 399.4 118.08 399.4 118.08 399.4 118.08 399.4 118.08 399.4 118.08 399.4 118.08 399.39 118.08 399.39 118.08 399.39 118.08 399.39 118.08 399.39 118.08 399.39 118.08 399.39 118.08 399.39 118.08 399.38 118.08 399.38 118.09 399.38 118.09 399.38 118.09 399.37 118.09 399.37 118.09 399.37 118.1 399.36 118.11 399.35 118.11 399.35 118.11 399.35 118.11 399.35 118.11 399.34 118.11 399.34 118.11 399.34 118.11 399.33 118.11 399.33 118.11 399.32 118.12 399.32 118.12 399.31 118.12 399.31 118.13 399.31 118.13 399.31 118.14 399.31 118.15 399.31 118.15 399.31 118.16 399.31 118.16 399.31 118.16 399.31 118.16 399.31 118.17 399.31 118.17 399.31 118.17 399.31 118.17 399.31 118.17 399.31 118.18 399.31 118.18 399.3 118.18 399.3 118.18 399.3 118.18 399.3 118.18 399.3 118.19 399.3 118.19 399.3 118.19 399.3 118.19 399.3 118.19 399.3 118.19 399.29 118.19 399.3 118.2 399.3 118.2 399.3 118.2 399.3 118.2 399.3 118.2 399.29 118.22 399.29 118.23 399.29 118.24 399.29 118.24 399.29 118.25 399.29 118.25 399.29 118.25 399.29 118.26 399.29 118.26 399.29 118.26 399.29 118.26 399.29 118.27 399.29 118.27 399.29 118.28 399.29 118.28 399.29 118.28 399.3 118.29 399.3 118.29 399.3 118.29 399.3 118.29 399.3 118.29 399.31 118.29 399.31 118.29 399.31 118.29 399.31 118.29 399.31 118.3 399.31 118.31 399.32 118.32 399.32 118.32 399.32 118.32 399.32 118.33 399.32 118.33 399.32 118.33 399.32 118.33 399.32 118.33 399.32 118.34 399.32 118.35 399.32 118.35 399.31 118.36 399.31 118.36 399.31 118.36 399.31 118.37 399.3 118.38 399.29 118.39 399.29 118.39 399.29 118.4 399.28 118.4 399.28 118.4 399.28 118.4 399.27 118.41 399.27 118.41 399.27 118.41 399.27 118.41 399.26 118.42 399.26 118.43 399.26 118.43 399.25 118.44 399.25 118.45 399.25 118.45 399.24 118.46 399.24 118.46 399.24 118.47 399.24 118.48 399.24 118.49 399.25 118.5 399.25 118.5 399.25 118.5 399.25 118.51 399.25 118.51 399.25 118.51 399.24 118.51 399.24 118.51 399.24 118.52 399.24 118.52 399.24 118.52 399.24 118.52 399.24 118.52 399.24 118.52 399.24 118.53 399.24 118.53 399.23 118.54 399.23 118.54 399.23 118.54 399.23 118.54 399.21 118.55 399.2 118.56 399.2 118.56 399.18 118.58 399.18 118.59 399.17 118.59 399.16 118.6 399.16 118.6 399.15 118.6 399.15 118.61 399.15 118.61 399.15 118.62 399.14 118.62 399.14 118.63 399.14 118.63 399.14 118.63 399.14 118.64 399.14 118.64 399.14 118.64 399.14 118.64 399.14 118.64 399.13 118.65 399.13 118.65 399.12 118.65 399.12 118.66 399.12 118.66 399.12 118.66 399.12 118.66 399.11 118.67 399.11 118.67 399.11 118.67 399.11 118.68 399.11 118.68 399.11 118.68 399.11 118.68 399.11 118.69 399.11 118.69 399.11 118.69 399.11 118.69 399.11 118.69 399.11 118.7 399.11 118.7 399.11 118.7 399.11 118.7 399.11 118.71 399.1 118.71 399.1 118.71 399.1 118.71 399.1 118.71 399.1 118.72 399.1 118.72 399.1 118.72 399.09 118.73 399.09 118.73 399.09 118.73 399.09 118.74 399.09 118.74 399.09 118.74 399.09 118.74 399.08 118.75 399.08 118.75 399.08 118.75 399.08 118.75 399.08 118.75 399.08 118.75 399.08 118.75 399.08 118.75 399.08 118.76 399.08 118.76 399.08 118.76 399.08 118.76 399.08 118.76 399.08 118.76 399.08 118.76 399.08 118.76 399.08 118.76 399.08 118.77 399.08 118.77 399.08 118.77 399.08 118.77 399.08 118.77 399.08 118.77 399.08 118.77 399.08 118.77 399.08 118.78 399.09 118.78 399.09 118.78 399.09 118.78 399.09 118.78 399.09 118.79 399.1 118.8 399.1 118.81 399.1 118.82 399.1 118.84 399.1 118.85 399.1 118.85 399.1 118.85 399.1 118.85 399.1 118.85 399.1 118.86 399.1 118.86 399.1 118.87 399.1 118.89 399.09 118.9 399.09 118.9 399.09 118.9 399.09 118.9 399.09 118.91 399.09 118.91 399.09 118.91 399.09 118.92 399.09 118.94 399.09 118.94 399.09 118.94 399.09 118.94 399.09 118.94 399.09 118.94 399.09 118.94 399.09 118.94 399.09 118.95 399.09 118.95 399.09 118.95 399.09 118.96 399.09 118.97 399.08 118.98 399.08 118.98 399.08 118.98 399.08 118.99 399.08 118.99 399.08 118.99 399.08 118.99 399.08 118.99 399.08 119 399.08 119 399.07 119 399.07 119.01 399.07 119.01 399.07 119.01 399.07 119.01 399.07 119.01 399.07 119.02 399.07 119.02 399.06 119.02 399.06 119.03 399.06 119.03 399.06 119.04 399.06 119.04 399.06 119.04 399.06 119.04 399.06 119.04 399.06 119.04 399.06 119.04 399.06 119.04 399.06 119.04 399.06 119.04 399.06 119.04 399.06 119.05 399.06 119.05 399.06 119.05 399.06 119.05 399.06 119.05 399.06 119.06 399.05 119.06 399.05 119.06 399.05 119.06 399.05 119.06 399.05 119.07 399.05 119.07 399.05 119.08 399.05 119.08 399.05 119.08 399.05 119.09 399.05 119.09 399.05 119.09 399.05 119.1 399.05 119.1 399.05 119.1 399.05 119.1 399.05 119.11 399.05 119.11 399.05 119.11 399.05 119.11 399.04 119.12 399.04 119.12 399.04 119.12 399.03 119.13 399.03 119.13 399.03 119.13 399.03 119.13 399.03 119.14 399.03 119.15 399.03 119.15 399.03 119.15 399.02 119.16 399.02 119.16 399.02 119.16 399.02 119.16 399.02 119.16 399.02 119.16 399.02 119.17 399.02 119.17 399.02 119.17 399.02 119.17 399.01 119.17 399.01 119.18 399.01 119.18 399.01 119.18 399.01 119.19 399.01 119.19 399.01 119.19 399.01 119.2 399 119.2 399 119.2 399 119.21 399 119.21 399 119.21 399 119.21 399 119.21 399 119.21 399 119.21 399 119.22 399 119.22 399 119.22 398.99 119.22 398.99 119.22 398.99 119.23 398.99 119.23 398.99 119.23 398.99 119.23 398.99 119.23 398.99 119.23 398.99 119.23 398.99 119.23 398.99 119.23 398.99 119.23 398.99 119.23 398.99 119.24 398.99 119.24 398.99 119.24 398.99 119.25 398.99 119.25 398.99 119.25 398.98 119.25 398.98 119.25 398.98 119.25 398.98 119.25 398.98 119.25 398.99 119.26 398.99 119.26 398.99 119.26 398.99 119.26 398.99 119.26 398.99 119.26 398.99 119.26 398.99 119.27 398.99 119.27 398.98 119.28 398.97 119.28 398.97 119.28 398.97 119.29 398.97 119.29 398.97 119.29 398.96 119.3 398.96 119.31 398.96 119.31 398.96 119.31 398.95 119.31 398.95 119.31 398.95 119.32 398.95 119.32 398.94 119.32 398.94 119.32 398.94 119.32 398.94 119.32 398.94 119.32 398.94 119.32 398.94 119.32 398.94 119.32 398.93 119.32 398.93 119.33 398.93 119.33 398.93 119.33 398.93 119.33 398.93 119.33 398.93 119.33 398.93 119.33 398.93 119.33 398.93 119.33 398.93 119.33 398.93 119.34 398.93 119.34 398.93 119.34 398.93 119.34 398.93 119.34 398.93 119.34 398.93 119.34 398.93 119.34 398.93 119.34 398.92 119.35 398.92 119.35 398.91 119.36 398.91 119.36 398.91 119.36 398.91 119.36 398.91 119.37 398.91 119.37 398.91 119.37 398.91 119.37 398.91 119.37 398.91 119.37 398.91 119.38 398.91 119.38 398.91 119.39 398.91 119.39 398.91 119.39 398.91 119.39 398.92 119.39 398.92 119.39 398.92 119.4 398.92 119.4 398.92 119.4 398.92 119.4 398.93 119.41 398.93 119.41 398.93 119.41 398.93 119.41 398.93 119.42 398.93 119.42 398.93 119.42 398.93 119.43 398.93 119.43 398.93 119.43 398.93 119.45 398.93 119.46 398.93 119.47 398.93 119.48 398.93 119.48 398.93 119.49 398.93 119.49 398.93 119.49 398.92 119.49 398.92 119.49 398.92 119.49 398.92 119.5 398.92 119.5 398.92 119.5 398.92 119.5 398.92 119.51 398.92 119.51 398.92 119.51 398.92 119.52 398.92 119.52 398.92 119.53 398.91 119.53 398.91 119.53 398.91 119.54 398.91 119.54 398.91 119.54 398.9 119.54 398.9 119.55 398.9 119.55 398.9 119.55 398.89 119.55 398.89 119.56 398.89 119.56 398.89 119.56 398.89 119.56 398.89 119.56 398.89 119.57 398.88 119.57 398.88 119.57 398.87 119.58 398.87 119.58 398.87 119.58 398.86 119.58 398.86 119.58 398.86 119.58 398.86 119.59 398.86 119.59 398.86 119.59 398.86 119.6 398.86 119.6 398.86 119.6 398.85 119.61 398.85 119.61 398.85 119.61 398.85 119.61 398.85 119.61 398.85 119.61 398.85 119.61 398.85 119.61 398.85 119.61 398.85 119.62 398.85 119.62 398.85 119.62 398.85 119.62 398.86 119.62 398.86 119.62 398.86 119.63 398.86 119.63 398.86 119.63 398.86 119.63 398.86 119.64 398.86 119.64 398.86 119.64 398.86 119.65 398.86 119.65 398.86 119.66 398.86 119.66 398.86 119.66 398.86 119.66 398.86 119.67 398.86 119.67 398.85 119.67 398.85 119.68 398.85 119.68 398.85 119.69 398.85 119.69 398.85 119.7 398.85 119.7 398.84 119.7 398.84 119.7 398.84 119.71 398.84 119.71 398.84 119.71 398.84 119.72 398.84 119.72 398.84 119.73 398.84 119.73 398.84 119.73 398.84 119.73 398.84 119.73 398.84 119.74 398.84 119.74 398.84 119.75 398.84 119.75 398.84 119.75 398.84 119.75 398.84 119.76 398.84 119.76 398.84 119.77 398.84 119.78 398.84 119.78 398.84 119.78 398.84 119.78 398.84 119.79 398.84 119.79 398.84 119.79 398.84 119.79 398.84 119.79 398.84 119.79 398.84 119.8 398.84 119.8 398.84 119.8 398.84 119.8 398.84 119.81 398.84 119.81 398.84 119.81 398.84 119.81 398.84 119.82 398.84 119.82 398.84 119.82 398.84 119.82 398.84 119.82 398.84 119.82 398.84 119.82 398.84 119.82 398.84 119.82 398.84 119.83 398.84 119.83 398.83 119.83 398.83 119.84 398.83 119.84 398.83 119.84 398.83 119.84 398.83 119.84 398.82 119.85 398.82 119.85 398.82 119.85 398.82 119.86 398.81 119.86 398.8 119.87 398.8 119.87 398.79 119.88 398.79 119.88 398.79 119.88 398.79 119.89 398.79 119.89 398.79 119.89 398.79 119.89 398.79 119.9 398.78 119.9 398.78 119.9 398.78 119.9 398.77 119.9 398.77 119.91 398.77 119.91 398.77 119.91 398.77 119.91 398.76 119.92 398.76 119.92 398.75 119.92 398.75 119.93 398.75 119.93 398.75 119.93 398.75 119.93 398.74 119.93 398.74 119.94 398.74 119.94 398.74 119.94 398.74 119.94 398.73 119.94 398.73 119.94 398.73 119.94 398.73 119.94 398.73 119.94 398.73 119.94 398.73 119.94 398.73 119.94 398.72 119.94 398.72 119.94 398.72 119.95 398.72 119.95 398.72 119.95 398.72 119.95 398.71 119.95 398.71 119.95 398.71 119.95 398.71 119.95 398.71 119.95 398.71 119.96 398.7 119.96 398.7 119.96 398.7 119.96 398.7 119.97 398.69 119.97 398.69 119.98 398.69 119.98 398.69 119.98 398.69 119.98 398.69 119.98 398.69 119.98 398.69 119.99 398.69 119.99 398.69 119.99 398.69 119.99 398.68 120 398.68 120 398.68 120 398.68 120 398.68 120 398.68 120.01 398.68 120.01 398.68 120.01 398.68 120.01 398.68 120.01 398.68 120.01 398.68 120.01 398.67 120.02 398.67 120.02 398.67 120.03 398.67 120.03 398.67 120.04 398.66 120.04 398.66 120.04 398.66 120.04 398.66 120.04 398.66 120.04 398.66 120.05 398.66 120.05 398.66 120.05 398.65 120.05 398.65 120.06 398.65 120.06 398.65 120.06 398.65 120.06 398.65 120.06 398.64 120.06 398.64 120.06 398.64 120.06 398.64 120.06 398.64 120.06 398.64 120.06 398.64 120.06 398.64 120.06 398.63 120.06 398.63 120.06 398.63 120.07 398.63 120.07 398.63 120.07 398.63 120.07 398.63 120.07 398.63 120.07 398.63 120.07 398.63 120.08 398.63 120.08 398.62 120.08 398.62 120.08 398.62 120.08 398.62 120.08 398.62 120.08 398.62 120.09 398.61 120.09 398.61 120.09 398.6 120.09 398.6 120.09 398.6 120.1 398.6 120.1 398.59 120.11 398.59 120.11 398.59 120.11 398.59 120.11 398.59 120.12 398.59 120.12 398.59 120.12 398.59 120.12 398.59 120.12 398.59 120.12 398.58 120.13 398.58 120.13 398.58 120.13 398.58 120.13 398.58 120.13 398.58 120.14 398.58 120.14 398.58 120.14 398.58 120.14 398.58 120.14 398.58 120.14 398.58 120.15 398.58 120.15 398.58 120.15 398.58 120.15 398.58 120.15 398.58 120.15 398.58 120.16 398.58 120.16 398.58 120.16 398.58 120.17 398.58 120.17 398.58 120.17 398.57 120.17 398.57 120.18 398.57 120.18 398.57 120.18 398.57 120.18 398.57 120.18 398.57 120.19 398.56 120.19 398.56 120.19 398.56 120.19 398.56 120.2 398.56 120.2 398.56 120.2 398.56 120.21 398.56 120.21 398.55 120.21 398.55 120.21 398.55 120.21 398.55 120.21 398.54 120.22 398.53 120.22 398.53 120.22 398.52 120.22 398.52 120.22 398.52 120.22 398.52 120.22 398.52 120.23 398.51 120.23 398.51 120.23 398.51 120.23 398.5 120.24 398.5 120.24 398.5 120.24 398.5 120.24 398.5 120.24 398.5 120.24 398.5 120.24 398.5 120.24 398.5 120.24 398.5 120.24 398.5 120.24 398.5 120.25 398.5 120.25 398.5 120.25 398.5 120.25 398.49 120.25 398.49 120.25 398.49 120.25 398.49 120.25 398.49 120.26 398.48 120.26 398.48 120.26 398.48 120.26 398.48 120.26 398.48 120.26 398.48 120.26 398.48 120.27 398.47 120.27 398.47 120.27 398.47 120.27 398.47 120.28 398.47 120.28 398.47 120.28 398.47 120.28 398.47 120.29 398.46 120.29 398.46 120.29 398.46 120.29 398.46 120.3 398.46 120.3 398.46 120.3 398.46 120.3 398.46 120.3 398.46 120.3 398.45 120.3 398.45 120.31 398.45 120.31 398.45 120.31 398.45 120.31 398.45 120.31 398.45 120.31 398.45 120.31 398.44 120.31 398.44 120.32 398.44 120.32 398.44 120.33 398.44 120.33 398.44 120.34 398.44 120.34 398.43 120.34 398.43 120.35 398.43 120.35 398.43 120.35 398.43 120.35 398.42 120.36 398.42 120.36 398.42 120.36 398.41 120.37 398.41 120.37 398.41 120.37 398.41 120.37 398.41 120.37 398.41 120.37 398.4 120.38 398.4 120.38 398.4 120.39 398.4 120.39 398.4 120.39 398.4 120.39 398.4 120.4 398.4 120.4 398.4 120.4 398.4 120.4 398.4 120.4 398.4 120.4 398.39 120.41 398.39 120.41 398.38 120.42 398.38 120.42 398.38 120.42 398.38 120.42 398.38 120.43 398.38 120.43 398.38 120.43 398.38 120.43 398.38 120.43 398.37 120.43 398.37 120.43 398.37 120.43 398.37 120.43 398.37 120.43 398.37 120.42 398.37 120.43 398.36 120.43 398.36 120.43 398.36 120.43 398.36 120.43 398.36 120.43 398.36 120.43 398.36 120.43 398.36 120.43 398.36 120.43 398.36 120.43 398.35 120.43 398.34 120.43 398.34 120.43 398.33 120.43 398.33 120.43 398.32 120.43 398.32 120.43 398.32 120.43 398.32 120.43 398.32 120.43 398.31 120.43 398.31 120.43 398.31 120.43 398.3 120.42 398.29 120.42 398.29 120.42 398.28 120.42 398.28 120.42 398.27 120.42 398.27 120.42 398.26 120.42 398.26 120.42 398.26 120.42 398.26 120.42 398.24 120.42 398.24 120.43 398.24 120.43 398.24 120.43 398.23 120.43 398.23 120.43 398.23 120.43 398.23 120.43 398.23 120.43 398.22 120.44 398.22 120.44 398.21 120.44 398.21 120.44 398.21 120.44 398.21 120.44 398.21 120.44 398.21 120.44 398.21 120.44 398.21 120.45 398.2 120.45 398.2 120.45 398.2 120.46 398.2 120.46 398.2 120.46 398.2 120.46 398.2 120.46 398.19 120.46 398.19 120.46 398.18 120.46 398.18 120.46 398.18 120.46 398.17 120.47 398.17 120.47 398.17 120.47 398.17 120.47 398.17 120.47 398.17 120.47 398.16 120.47 398.16 120.47 398.16 120.47 398.16 120.47 398.15 120.48 398.15 120.48 398.15 120.48 398.15 120.48 398.15 120.48 398.14 120.48 398.14 120.47 398.13 120.48 398.13 120.48 398.13 120.48 398.13 120.49 398.12 120.49 398.12 120.49 398.12 120.49 398.12 120.49 398.11 120.49 398.11 120.49 398.11 120.49 398.11 120.49 398.11 120.49 398.11 120.49 398.11 120.49 398.11 120.49 398.11 120.49 398.11 120.49 398.11 120.49 398.1 120.49 398.1 120.49 398.1 120.49 398.1 120.49 398.09 120.49 398.09 120.5 398.08 120.5 398.08 120.5 398.08 120.5 398.07 120.5 398.07 120.5 398.07 120.5 398.07 120.5 398.07 120.5 398.07 120.5 398.07 120.5 398.06 120.5 398.06 120.5 398.06 120.5 398.06 120.5 398.06 120.5 398.06 120.5 398.06 120.5 398.06 120.5 398.05 120.5 398.05 120.5 398.05 120.5 398.05 120.5 398.05 120.5 398.05 120.5 398.05 120.5 398.05 120.51 398.05 120.51 398.05 120.51 398.05 120.51 398.05 120.51 398.04 120.51 398.04 120.51 398.04 120.51 398.04 120.51 398.04 120.51 398.03 120.51 398.03 120.51 398.03 120.52 398.03 120.52 398.02 120.52 398.02 120.52 398.02 120.52 398.02 120.52 398.02 120.52 398.02 120.52 398.02 120.53 398.01 120.53 398.01 120.53 398.01 120.53 398.01 120.53 398 120.53 398 120.53 398 120.54 398 120.54 398 120.54 398 120.54 398 120.54 398 120.54 397.99 120.54 397.99 120.54 397.99 120.55 397.99 120.55 397.99 120.55 397.99 120.55 397.99 120.55 397.98 120.55 397.98 120.55 397.98 120.55 397.98 120.55 397.98 120.55 397.98 120.55 397.98 120.55 397.98 120.55 397.98 120.56 397.97 120.56 397.97 120.56 397.97 120.56 397.96 120.56 397.96 120.56 397.95 120.56 397.95 120.57 397.94 120.57 397.94 120.57 397.94 120.58 397.94 120.58 397.94 120.58 397.94 120.58 397.93 120.58 397.93 120.58 397.93 120.58 397.93 120.59 397.93 120.59 397.93 120.59 397.93 120.59 397.93 120.59 397.93 120.59 397.93 120.59 397.93 120.59 397.93 120.59 397.92 120.6 397.92 120.6 397.92 120.6 397.92 120.6 397.92 120.6 397.92 120.6 397.92 120.6 397.92 120.6 397.91 120.6 397.91 120.61 397.91 120.61 397.91 120.61 397.91 120.61 397.91 120.62 397.91 120.62 397.91 120.62 397.9 120.62 397.9 120.62 397.9 120.62 397.9 120.62 397.9 120.63 397.9 120.63 397.9 120.63 397.9 120.63 397.89 120.63 397.89 120.63 397.89 120.64 397.89 120.64 397.89 120.64 397.89 120.64 397.89 120.64 397.89 120.64 397.89 120.65 397.89 120.65 397.89 120.65 397.89 120.65 397.89 120.65 397.88 120.66 397.88 120.66 397.88 120.66 397.88 120.66 397.88 120.66 397.88 120.66 397.88 120.66 397.87 120.66 397.87 120.67 397.87 120.67 397.87 120.67 397.87 120.67 397.87 120.67 397.87 120.67 397.86 120.67 397.86 120.68 397.86 120.68 397.86 120.68 397.85 120.68 397.85 120.68 397.85 120.68 397.85 120.68 397.85 120.68 397.84 120.68 397.84 120.68 397.84 120.68 397.84 120.68 397.83 120.68 397.83 120.68 397.83 120.68 397.83 120.69 397.83 120.69 397.82 120.69 397.82 120.69 397.82 120.69 397.82 120.7 397.81 120.7 397.81 120.7 397.81 120.7 397.81 120.7 397.81 120.71 397.81 120.71 397.8 120.72 397.8 120.72 397.8 120.72 397.8 120.72 397.8 120.72 397.8 120.73 397.8 120.73 397.8 120.73 397.81 120.73 397.81 120.73 397.81 120.74 397.81 120.74 397.8 120.74 397.8 120.74 397.8 120.74 397.8 120.74 397.79 120.74 397.79 120.74 397.79 120.74 397.79 120.75 397.78 120.75 397.78 120.76 397.78 120.76 397.78 120.76 397.78 120.77 397.77 120.77 397.77 120.77 397.77 120.78 397.77 120.78 397.77 120.78 397.77 120.79 397.77 120.79 397.77 120.79 397.77 120.79 397.76 120.8 397.76 120.8 397.76 120.8 397.76 120.8 397.76 120.8 397.75 120.8 397.75 120.8 397.75 120.8 397.75 120.8 397.74 120.8 397.74 120.8 397.74 120.8 397.73 120.8 397.73 120.8 397.73 120.8 397.73 120.81 397.72 120.81 397.72 120.81 397.72 120.81 397.72 120.82 397.72 120.82 397.72 120.82 397.72 120.83 397.71 120.83 397.71 120.83 397.71 120.83 397.71 120.84 397.7 120.84 397.7 120.84 397.7 120.84 397.7 120.84 397.7 120.84 397.69 120.84 397.69 120.84 397.69 120.84 397.69 120.84 397.69 120.84 397.69 120.84 397.68 120.84 397.68 120.85 397.68 120.85 397.68 120.85 397.68 120.85 397.68 120.85 397.68 120.85 397.67 120.86 397.67 120.86 397.67 120.86 397.67 120.86 397.67 120.86 397.66 120.86 397.65 120.86 397.65 120.86 397.65 120.86 397.65 120.86 397.65 120.86 397.65 120.87 397.65 120.87 397.65 120.87 397.64 120.87 397.64 120.87 397.63 120.87 397.63 120.87 397.63 120.87 397.63 120.87 397.63 120.87 397.63 120.87 397.63 120.87 397.62 120.88 397.62 120.88 397.62 120.88 397.61 120.88 397.61 120.88 397.61 120.88 397.6 120.88 397.6 120.88 397.6 120.88 397.59 120.89 397.59 120.89 397.58 120.9 397.58 120.9 397.58 120.9 397.58 120.9 397.58 120.9 397.58 120.9 397.58 120.9 397.58 120.9 397.58 120.9 397.58 120.9 397.58 120.91 397.57 120.91 397.57 120.91 397.57 120.91 397.57 120.91 397.57 120.91 397.57 120.91 397.56 120.91 397.56 120.91 397.56 120.91 397.56 120.92 397.56 120.92 397.55 120.92 397.55 120.92 397.55 120.92 397.55 120.92 397.54 120.92 397.54 120.92 397.53 120.92 397.53 120.93 397.53 120.93 397.53 120.94 397.52 120.94 397.52 120.94 397.51 120.94 397.51 120.95 397.5 120.96 397.48 120.97 397.47 120.97 397.47 120.97 397.45 120.97 397.44 120.97 397.44 120.98 397.43 120.99 397.42 120.99 397.41 120.99 397.41 121 397.41 121 397.4 121 397.39 121 397.38 121.01 397.38 121.01 397.36 121.01 397.35 121.01 397.35 121.02 397.35 121.02 397.34 121.02 397.34 121.01 397.34 121.01 397.34 121.01 397.33 121.01 397.33 121.02 397.32 121.02 397.32 121.01 397.32 121.01 397.31 121.01 397.31 121.02 397.31 121.02 397.3 121.02 397.3 121.02 397.3 121.02 397.29 121.03 397.28 121.03 397.28 121.03 397.27 121.03 397.27 121.03 397.26 121.03 397.26 121.03 397.26 121.04 397.26 121.04 397.26 121.04 397.25 121.04 397.25 121.04 397.25 121.04 397.25 121.05 397.24 121.05 397.24 121.05 397.23 121.05 397.23 121.05 397.23 121.05 397.23 121.05 397.23 121.05 397.23 121.05 397.23 121.05 397.23 121.05 397.23 121.05 397.23 121.05 397.22 121.05 397.22 121.05 397.22 121.05 397.21 121.05 397.21 121.05 397.21 121.05 397.21 121.05 397.2 121.05 397.2 121.05 397.19 121.05 397.19 121.05 397.19 121.05 397.19 121.05 397.19 121.05 397.18 121.05 397.17 121.04 397.17 121.04 397.17 121.04 397.16 121.04 397.15 121.04 397.15 121.04 397.15 121.04 397.14 121.04 397.14 121.04 397.14 121.04 397.14 121.04 397.13 121.04 397.12 121.04 397.12 121.04 397.12 121.04 397.12 121.04 397.11 121.04 397.11 121.04 397.1 121.04 397.1 121.04 397.09 121.04 397.09 121.04 397.08 121.04 397.08 121.04 397.08 121.04 397.07 121.04 397.07 121.04 397.06 121.04 397.05 121.05 397.05 121.05 397.05 121.05 397.04 121.05 397.03 121.06 397.03 121.06 397.02 121.06 397.02 121.07 397.01 121.07 397.01 121.07 397.01 121.07 397 121.07 397 121.07 397 121.07 396.99 121.07 396.99 121.08 396.99 121.08 396.99 121.08 396.99 121.08 396.98 121.08 396.98 121.08 396.97 121.08 396.97 121.08 396.97 121.08 396.97 121.09 396.96 121.09 396.95 121.1 396.95 121.1 396.94 121.1 396.93 121.1 396.92 121.1 396.87 121.06 396.96 121.35 398.15 121.43 398 121.87 398.36 122.22 398.08 122.35 397.71 122.58 397.57 122.85 397.4 123.19 396.76 123.19 396.64 123.24 396.6 123.2 396.31 123.3 395.91 123.76 395.66 124.55 395.5 124.9 395 124.88 394.32 124.82 393.54 124.67 393.24 124.56 393.27 124.49 393.24 124.48 393.22 124.47 393.19 124.43 393.17 124.41 393.15 124.39 393.14 124.37 393.12 124.36 393.09 124.34 393.01 124.29 392.99 124.26 392.95 124.23 392.92 124.22 392.87 124.22 392.82 124.21 392.79 124.21 392.74 124.19 392.7 124.17 392.69 124.17 392.68 124.17 392.67 124.17 392.65 124.17 392.64 124.17 392.63 124.16 392.62 124.16 392.61 124.17 392.6 124.16 392.59 124.16 392.58 124.16 392.57 124.16 392.57 124.15 392.56 124.15 392.55 124.14 392.41 124.08 392.29 123.95 392.24 123.87 392.23 123.83 392.22 123.79 392.2 123.75 392.16 123.73 392.11 123.69 392.1 123.68 392.08 123.66 392.03 123.65 392.01 123.65 391.97 123.66 391.93 123.66 391.87 123.66 391.83 123.63 391.76 123.62 391.72 123.61 391.68 123.59 391.61 123.58 391.58 123.57 391.55 123.57 391.51 123.56 391.49 123.56 391.46 123.56 391.39 123.56 391.35 123.56 391.31 123.56 391.27 123.56 391.24 123.55 391.22 123.55 391.17 123.56 391.14 123.56 391.1 123.57 391.06 123.58 391.02 123.58 390.95 123.59 390.88 123.59 390.82 123.59 390.77 123.59 390.72 123.59 390.68 123.59 390.6 123.59 390.56 123.59 390.53 123.59 390.49 123.58 390.45 123.57 390.43 123.56 390.41 123.54 390.39 123.52 390.36 123.49 390.35 123.46 390.32 123.42 390.29 123.4 390.26 123.35 390.24 123.32 390.22 123.3 390.19 123.29 390.2 123.27 390.21 123.25 390.22 123.22 390.23 123.19 390.25 123.16 390.27 123.13 390.28 123.1 390.29 123.07 390.29 123.04 390.29 123.01 390.29 122.97 390.27 122.94 390.25 122.89 390.23 122.86 390.19 122.8 390.14 122.72 390.12 122.69 390.11 122.68 390.11 122.66 390.1 122.66 390.1 122.64 390.1 122.59 390.1 122.58 390.1 122.58 390.1 122.57 390.11 122.56 390.11 122.55 390.12 122.53 390.12 122.53 390.13 122.5 390.14 122.46 390.15 122.42 390.16 122.39 390.18 122.35 390.26 122.27 390.34 122.21 390.39 122.17 390.37 121.99 390.37 121.91 390.36 121.91 390.33 121.9 390.3 121.88 390.24 121.85 390.2 121.82 390.17 121.81 390.14 121.79 390.12 121.77 390.1 121.75 390.07 121.72 390.04 121.68 390.01 121.65 390 121.62 389.99 121.59 389.98 121.55 389.98 121.5 389.97 121.49 389.96 121.46 389.95 121.41 389.94 121.38 389.95 121.35 389.95 121.34 389.95 121.33 389.96 121.31 389.97 121.28 389.98 121.26 389.99 121.24 390.01 121.21 390.02 121.18 390.02 121.16 390.02 121.14 390.03 121.12 390.03 121.11 390.02 121.1 390.02 121.09 390.02 121.07 390.02 121.04 390.02 121.01 390.02 121 390.01 120.99 390 120.96 389.99 120.94 389.99 120.93 390 120.89 390.01 120.86 390.01 120.85 390.02 120.8 390.03 120.78 390.04 120.74 390.04 120.72 390.05 120.7 390.06 120.68 390.07 120.68 390.08 120.67 390.09 120.66 390.13 120.64 390.15 120.63 390.16 120.62 390.18 120.61 390.2 120.6 390.21 120.59 390.22 120.58 390.22 120.56 390.22 120.54 390.22 120.51 390.22 120.48 390.22 120.45 390.22 120.43 390.22 120.41 390.21 120.4 390.19 120.38 390.18 120.36 390.17 120.35 390.16 120.33 390.15 120.31 390.14 120.29 390.13 120.28 390.12 120.25 390.11 120.22 390.1 120.2 390.09 120.18 390.09 120.17 390.07 120.15 390.07 120.15 390.05 120.14 390.02 120.13 390 120.11 389.98 120.1 389.97 120.09 389.95 120.07 389.94 120.06 389.92 120.05 389.9 120.03 389.89 120.02 389.86 120.01 389.85 119.99 389.81 119.96 389.79 119.95 389.78 119.93 389.76 119.9 389.74 119.88 389.73 119.87 389.71 119.84 389.7 119.83 389.67 119.81 389.65 119.79 389.64 119.76 389.64 119.75 389.64 119.73 389.64 119.71 389.63 119.71 389.63 119.7 389.63 119.69 389.62 119.67 389.6 119.64 389.59 119.61 389.58 119.6 389.57 119.57 389.56 119.55 389.55 119.52 389.54 119.5 389.53 119.48 389.52 119.45 389.51 119.43 389.5 119.42 389.5 119.41 389.48 119.39 389.48 119.38 389.47 119.36 389.45 119.34 389.45 119.32 389.44 119.31 389.43 119.3 389.42 119.29 389.41 119.29 389.4 119.28 389.38 119.26 389.36 119.24 389.35 119.23 389.35 119.21 389.35 119.19 389.35 119.16 389.34 119.14 389.33 119.12 389.33 119.11 389.34 119.09 389.34 119.07 389.33 119.06 389.33 119.02 389.32 118.99 389.32 118.97 389.32 118.96 389.31 118.93 389.31 118.92 389.3 118.9 389.29 118.89 389.28 118.87 389.27 118.83 389.26 118.82 389.25 118.8 389.23 118.78 389.22 118.76 389.2 118.75 389.18 118.73 389.17 118.73 389.14 118.72 389.12 118.71 389.1 118.7 389.09 118.7 389.05 118.7 389.03 118.7 389.01 118.69 388.99 118.69 388.97 118.69 388.95 118.68 388.93 118.67 388.91 118.66 388.89 118.65 388.87 118.64 388.86 118.63 388.84 118.61 388.82 118.6 388.8 118.57 388.77 118.55 388.75 118.52 388.74 118.5 388.72 118.48 388.71 118.46 388.69 118.42 388.68 118.4 388.66 118.38 388.65 118.37 388.64 118.36 388.63 118.34 388.61 118.32 388.58 118.29 388.57 118.27 388.56 118.25 388.55 118.23 388.53 118.21 388.52 118.19 388.5 118.15 388.48 118.13 388.46 118.1 388.43 118.08 388.41 118.06 388.38 118.01 388.35 117.96 388.34 117.93 388.32 117.91 388.31 117.9 388.29 117.87 388.27 117.85 388.25 117.83 388.22 117.8 388.19 117.78 388.14 117.75 388.1 117.73 388.06 117.7 388.04 117.68 388 117.62 387.99 117.6 387.96 117.58 387.93 117.55 387.93 117.54 387.93 117.52 387.93 117.5 387.93 117.47 387.93 117.44 387.92 117.38 387.91 117.37 387.91 117.37 387.91 117.35 387.91 117.35 387.9 117.34 387.9 117.33 387.89 117.32 387.89 117.31 387.88 117.3 387.88 117.29 387.88 117.29 387.87 117.28 387.86 117.27 387.86 117.26 387.86 117.25 387.85 117.23 387.84 117.22 387.84 117.21 387.84 117.2 387.84 117.19 387.84 117.18 387.84 117.17 387.84 117.15 387.84 117.15 387.84 117.13 387.84 117.12 387.84 117.1 387.84 117.09 387.84 117.05 387.84 117.03 387.84 117.01 387.84 116.99 387.84 116.98 387.84 116.97 387.84 116.93 387.84 116.9 387.84 116.84 387.84 116.82 387.84 116.8 387.84 116.78 387.84 116.77 387.84 116.76 387.84 116.75 387.84 116.74 387.84 116.73 387.84 116.72 387.83 116.7 387.82 116.69 387.82 116.68 387.81 116.66 387.81 116.65 387.8 116.65 387.8 116.63 387.8 116.62 387.79 116.62 387.79 116.61 387.79 116.6 387.78 116.59 387.78 116.58 387.77 116.57 387.77 116.56 387.76 116.55 387.76 116.54 387.76 116.53 387.75 116.51 387.74 116.5 387.74 116.49 387.73 116.48 387.73 116.47 387.73 116.46 387.73 116.44 387.73 116.43 387.72 116.39 387.72 116.38 387.72 116.37 387.72 116.35 387.72 116.34 387.71 116.33 387.71 116.32 387.71 116.31 387.71 116.3 387.71 116.29 387.71 116.27 387.71 116.26 387.7 116.25 387.7 116.24 387.7 116.23 387.7 116.22 387.7 116.2 387.7 116.19 387.7 116.18 387.69 116.17 387.69 116.16 387.69 116.15 387.69 116.14 387.69 116.11 387.7 116.1 387.7 116.09 387.7 116.08 387.7 116.07 387.7 116.06 387.7 116.05 387.71 116.04 387.71 116.03 387.71 116.02 387.71 116.01 387.71 116 387.72 115.99 387.72 115.98 387.72 115.97 387.72 115.96 387.72 115.94 387.72 115.93 387.72 115.92 387.72 115.91 387.72 115.9 387.72 115.9 387.72 115.89 387.72 115.88 387.72 115.87 387.73 115.85 387.73 115.84 387.73 115.83 387.73 115.81 387.73 115.8 387.73 115.79 387.73 115.77 387.73 115.76 387.73 115.75 387.73 115.73 387.73 115.72 387.73 115.71 387.73 115.69 387.73 115.68 387.73 115.67 387.73 115.67 387.73 115.66 387.73 115.65 387.73 115.64 387.73 115.63 387.73 115.61 387.73 115.61 387.73 115.6 387.73 115.58 387.73 115.57 387.73 115.57 387.73 115.55 387.73 115.54 387.73 115.53 387.73 115.51 387.72 115.5 387.72 115.49 387.72 115.48 387.72 115.47 387.72 115.45 387.72 115.44 387.72 115.43 387.72 115.42 387.72 115.41 387.72 115.4 387.72 115.39 387.72 115.38 387.71 115.36 387.71 115.35 387.71 115.34 387.71 115.33 387.71 115.32 387.71 115.3 387.71 115.29 387.71 115.28 387.71 115.27 387.71 115.25 387.72 115.24 387.72 115.23 387.72 115.22 387.72 115.21 387.72 115.2 387.73 115.19 387.73 115.18 387.74 115.17 387.74 115.16 387.75 115.15 387.78 115.12 387.79 115.11 387.8 115.1 387.81 115.1 387.82 115.09 387.83 115.08 387.84 115.07 387.85 115.06 387.86 115.05 387.86 115.04 387.87 115.03 387.87 115.02 387.88 115.01 387.89 115.01 387.9 114.99 387.92 114.97 387.93 114.96 387.95 114.95 387.96 114.94 387.97 114.93 387.98 114.92 387.98 114.92 387.99 114.91 388 114.89 388.01 114.89 388.01 114.88 388.01 114.86 388.01 114.86 388.02 114.84 388.02 114.83 388.02 114.82 388.02 114.81 388.03 114.79 388.03 114.78 388.03 114.76 388.03 114.76 388.04 114.75 388.04 114.73 388.04 114.72 388.04 114.71 388.04 114.66 388.04 114.66 388.04 114.65 388.05 114.64 388.05 114.64 388.06 114.63 388.07 114.62 388.07 114.61 388.08 114.59 388.08 114.59 388.08 114.58 388.08 114.57 388.08 114.56 388.08 114.55 388.07 114.54 388.07 114.53 388.07 114.52 388.06 114.52 388.06 114.51 388.05 114.5 388.05 114.49 388.04 114.48 388.03 114.48 388.02 114.47 388.02 114.46 388 114.45 388 114.44 387.99 114.43 387.99 114.42 387.98 114.41 387.97 114.38 387.96 114.37 387.96 114.36 387.96 114.36 387.96 114.35 387.96 114.32 387.96 114.31 387.96 114.29 387.97 114.28 387.97 114.27 387.97 114.26 387.97 114.25 387.98 114.24 387.98 114.22 387.98 114.21 387.99 114.21 387.99 114.19 387.99 114.19 388 114.18 388 114.17 388.01 114.16 388.02 114.13 388.02 114.12 388.02 114.11 388.02 114.1 388.02 114.1 388.03 114.08 388.03 114.07 388.03 114.06 388.03 114.05 388.03 114.04 388.04 114.03 388.04 114.02 388.04 114.01 388.04 114 388.05 114 388.06 113.99 388.06 113.98 388.06 113.97 388.06 113.95 388.06 113.89 388.03 113.87 388.02 113.84 388 113.8 388 113.76 387.99 113.72 387.96 113.68 387.94 113.64 387.9 113.62 387.86 113.6 387.83 113.57 387.81 113.53 387.8 113.45 387.8 113.39 387.81 113.33 387.81 113.28 387.81 113.24 387.81 113.21 387.78 113.2 387.74 113.19 387.7 113.17 387.67 113.15 387.66 113.11 387.65 113.09 387.64 113.09 387.92 112.38 387.61 111.72 387.61 111.72 387.59 111.73 387.52 111.62 387.44 111.5 387.37 111.42 387.27 111.27 387.17 111.13 387.09 111 387.03 110.9 386.99 110.81 386.93 110.66 386.92 110.65 386.88 110.5 386.85 110.41 386.82 110.2 386.82 110.08 386.82 110.01 386.82 109.85 386.85 109.71 386.89 109.59 386.93 109.51 387 109.39 387.07 109.29 387.13 109.22 387.19 109.17 387.25 109.13 387.26 109.13 387.57 108.71 387.59 108.75 387.61 108.74 387.62 108.73 387.62 108.71 387.61 108.69 387.59 108.63 387.59 108.58 387.56 108.51 387.56 108.43 387.54 108.34 387.54 108.32 387.54 108.28 387.53 108.27 387.52 108.24 387.49 108.17 387.48 108.14 387.48 108.12 387.48 108.11 387.49 108.09 387.48 108.06 387.48 108.01 387.47 107.96 387.46 107.95 387.45 107.91 387.43 107.89 387.42 107.87 387.39 107.84 387.36 107.83 387.33 107.8 387.3 107.76 387.27 107.71 387.25 107.68 387.22 107.65 387.21 107.61 387.2 107.58 387.2 107.57 387.2 107.55 387.19 107.5 387.19 107.46 387.18 107.41 387.16 107.37 387.16 107.35 387.15 107.28 387.18 107.21 387.26 107.12 387.37 107.04 387.52 106.92 387.6 106.88 387.61 106.87 387.99 106.71 388.31 106.48 388.61 106.26 388.61 106.25 388.62 106.24 388.62 106.22 388.63 106.21 388.64 106.2 388.65 106.2 388.66 106.19 388.68 106.19 388.7 106.18 388.73 106.15 388.76 106.12 388.77 106.11 388.78 106.1 388.77 106.08 388.76 106.08 388.75 106.07 388.74 106.06 388.74 106.04 388.73 105.99 388.7 105.94 388.7 105.92 388.72 105.89 388.72 105.86 388.72 105.85 388.72 105.84 388.71 105.82 388.69 105.8 388.68 105.78 388.68 105.75 388.67 105.73 388.65 105.7 388.62 105.67 388.6 105.65 388.56 105.61 388.54 105.58 388.52 105.57 388.52 105.56 388.5 105.51 388.5 105.51 388.49 105.46 388.49 105.39 388.48 105.34 388.48 105.3 388.48 105.26 388.48 105.21 388.5 105.17 388.51 105.13 388.53 105.09 388.54 105.06 388.54 105.05 388.55 105.03 388.57 105.02 388.59 105 388.62 104.97 388.65 104.95 388.67 104.92 388.7 104.88 388.72 104.85 388.74 104.84 388.76 104.83 388.79 104.8 388.83 104.77 388.86 104.74 388.87 104.73 388.88 104.7 388.89 104.68 388.89 104.67 388.89 104.65 388.89 104.63 388.89 104.61 388.94 104.57 388.97 104.54 389.01 104.51 389.04 104.48 389.07 104.44 389.33 103.93 389.44 103.74 390.1 103.37 390.1 103.28 Z M 404.98 112.18 404.99 112.17 404.96 112.13 404.99 112.12 405.03 112.19 405.01 112.2 405 112.19 404.99 112.19 404.98 112.18 Z M 404.86 112.24 404.86 112.22 404.97 112.2 404.97 112.2 405.06 112.22 405.06 112.22 405.09 112.26 405.09 112.26 405.18 112.38 405.38 112.23 405.39 112.25 405.4 112.25 405.46 112.36 405.49 112.42 405.24 112.52 405.09 112.56 405.05 112.4 404.9 112.43 404.86 112.24 Z M 405.11 112.61 405.19 112.68 405.26 112.76 405.32 112.85 405.42 113 405.65 113 405.65 113.01 405.65 113.01 405.63 113.04 405.62 113.08 405.61 113.11 405.61 113.12 405.62 113.13 405.62 113.14 405.63 113.15 405.65 113.16 405.66 113.18 405.68 113.21 405.7 113.25 405.72 113.29 405.76 113.37 405.78 113.42 405.8 113.44 405.8 113.44 405.82 113.44 405.84 113.44 405.86 113.44 405.88 113.43 405.89 113.43 405.9 113.44 405.91 113.44 405.91 113.45 405.91 113.46 405.89 113.47 405.88 113.49 405.86 113.51 405.86 113.53 405.86 113.56 405.86 113.58 405.82 113.56 405.8 113.56 405.76 113.45 405.71 113.39 405.6 113.36 405.39 113.3 405.33 113.3 405.27 113.31 405.2 113.29 405.1 113.37 405.1 113.36 405.1 113.32 405.09 113.31 405.09 113.3 405.08 113.28 405.08 113.28 405.05 113.22 405.05 113.21 405.05 113.2 405.02 113.16 404.98 113.11 404.93 113.06 404.87 113 404.86 112.99 404.76 112.89 404.9 112.72 404.98 112.77 405.11 112.61 Z"/>
</g></svg>