<svg xmlns="http://www.w3.org/2000/svg" version="1.2" baseProfile="tiny" stroke-linecap="round" stroke-linejoin="round" viewBox="480.45 320.37 17.75 15.63"><g xmlns="http://www.w3.org/2000/svg" id="Uterga">
<path d="M 496 323.47 495.97 323.5 496.6 324.29 496.74 325.1 496.75 325.14 496.75 325.16 497.38 326 498.17 326.46 497.8 326.52 497.78 326.52 495.87 326.79 495.89 326.81 495.97 326.9 495.99 326.92 496.04 326.97 496.06 327.01 496.12 327.14 496.27 327.43 496.3 327.49 496.15 327.52 496.04 327.54 496.02 327.54 495.83 327.58 495.73 327.6 495.61 327.64 495.51 327.68 495.37 327.75 494.74 327.98 494.43 328.06 494.16 328.1 493.91 328.16 493.81 328.17 493.64 328.18 493.48 328.19 493.44 328.19 493.31 328.24 493.17 328.3 492.99 328.36 492.9 328.4 492.72 328.51 492.61 328.57 492.59 328.59 492.56 328.64 492.48 328.73 492.39 328.82 492.37 328.83 492.31 328.89 492.17 329.03 492.15 329.06 492.1 329.11 492.08 329.13 492.03 329.19 491.93 329.28 491.86 329.35 491.76 329.47 491.7 329.53 491.64 329.59 491.59 329.65 491.56 329.68 491.5 329.74 491.42 329.82 491.38 329.87 491.35 329.9 491.28 329.97 491.22 330.03 491.13 330.12 491.04 330.21 490.98 330.27 490.91 330.33 490.86 330.38 490.77 330.46 490.7 330.52 490.63 330.59 490.57 330.65 490.55 330.66 490.45 330.76 490.4 330.81 490.31 330.91 490.26 330.95 490.17 331.06 490.16 331.07 490.27 331.16 490.37 331.23 490.36 331.27 490.34 331.3 490.32 331.35 490.3 331.4 490.28 331.46 490.22 331.53 490.18 331.59 490.16 331.62 490.13 331.66 490.1 331.68 490.07 331.7 490.05 331.72 490.02 331.74 489.99 331.76 489.96 331.77 489.93 331.79 489.91 331.81 489.89 331.84 489.88 331.88 489.84 331.95 489.81 332 489.79 332.03 489.76 332.07 489.74 332.1 489.71 332.12 489.69 332.14 489.67 332.16 489.64 332.19 489.61 332.21 489.58 332.22 489.54 332.25 489.51 332.26 489.49 332.27 489.46 332.28 489.45 332.28 489.44 332.29 489.41 332.29 489.41 332.3 489.36 332.31 489.29 332.31 489.21 332.33 489.15 332.35 489.1 332.37 489.09 332.39 489.08 332.45 489.06 332.55 489.06 332.62 489.05 332.65 489.05 332.67 489.08 332.7 489.12 332.72 489.13 332.72 489.15 332.74 489.17 332.76 489.18 332.78 489.15 332.86 489.11 332.93 489.08 332.97 489.06 333 489.05 333.05 489.03 333.11 489.02 333.17 489.02 333.19 489.01 333.21 489 333.24 488.98 333.27 488.93 333.34 488.9 333.38 488.86 333.42 488.82 333.47 488.77 333.53 488.74 333.57 488.7 333.6 488.69 333.61 488.67 333.63 488.63 333.7 488.6 333.73 488.58 333.76 488.54 333.8 488.53 333.82 488.5 333.86 488.48 333.89 488.44 333.94 488.41 333.97 488.39 334 488.36 334.04 488.32 334.07 488.3 334.08 488.27 334.11 488.24 334.14 488.2 334.17 488.16 334.19 488.14 334.22 488.1 334.25 488.07 334.27 488.05 334.28 488.01 334.31 487.97 334.33 487.91 334.35 487.89 334.36 487.86 334.38 487.84 334.39 487.82 334.4 487.81 334.42 487.77 334.46 487.75 334.5 487.73 334.53 487.71 334.58 487.7 334.61 487.68 334.68 487.67 334.7 487.65 334.74 487.63 334.8 487.61 334.86 487.58 334.9 487.57 334.91 487.53 334.96 487.51 334.99 487.49 335.02 487.48 335.05 487.47 335.08 487.46 335.12 487.46 335.16 487.45 335.21 487.44 335.27 487.44 335.29 487.43 335.35 487.42 335.38 487.42 335.44 487.42 335.46 487.42 335.48 487.41 335.5 487.39 335.52 487.37 335.54 487.36 335.57 487.35 335.63 487.34 335.66 487.31 335.73 487.29 335.78 487.24 335.76 487.17 335.72 487.14 335.71 487.12 335.7 487.06 335.67 486.9 335.59 486.89 335.59 486.88 335.59 486.84 335.57 486.79 335.54 486.74 335.52 486.61 335.45 486.55 335.42 486.49 335.4 486.44 335.37 486.41 335.35 486.37 335.33 486.33 335.31 486.29 335.29 486.28 335.28 486.26 335.27 486.24 335.25 486.21 335.23 486.19 335.22 486.17 335.2 486.12 335.18 486.09 335.16 486.07 335.15 486.04 335.14 486.03 335.14 485.99 335.12 485.94 335.11 485.91 335.1 485.88 335.09 485.85 335.08 485.83 335.07 485.81 335.06 485.78 335.02 485.74 334.99 485.71 334.96 485.67 334.94 485.59 334.91 485.48 334.87 485.38 334.83 485.28 334.79 485.13 334.75 485.03 334.7 484.88 334.66 484.87 334.66 484.85 334.65 484.84 334.65 484.83 334.64 484.7 334.6 484.61 334.57 484.5 334.54 484.5 334.54 484.49 334.54 484.46 334.53 484.39 334.51 484.34 334.51 484.33 334.51 484.32 334.51 484.31 334.52 484.26 334.54 484.24 334.56 484.21 334.58 484.18 334.6 484.15 334.64 484.12 334.67 484.1 334.7 484.08 334.73 484.06 334.75 484.01 334.8 483.96 334.85 483.92 334.88 483.9 334.92 483.87 334.95 483.84 334.98 483.81 335.01 483.77 335.03 483.76 335.05 483.75 335.06 483.72 335.08 483.69 335.1 483.63 335.14 483.6 335.16 483.46 335.06 483.27 334.94 483.25 334.92 483.16 334.86 483.15 334.85 483.14 334.84 483.12 334.83 483.07 334.8 482.94 334.72 482.91 334.69 482.85 334.65 482.78 334.6 482.74 334.58 482.63 334.51 482.61 334.5 482.6 334.49 482.58 334.48 482.57 334.48 482.55 334.48 482.52 334.48 482.47 334.48 482.4 334.47 482.33 334.47 482.27 334.46 482.21 334.46 482.16 334.46 482.11 334.45 482.06 334.45 482.01 334.46 481.98 334.46 481.95 334.47 481.91 334.48 481.87 334.49 481.86 334.49 481.85 334.5 481.84 334.5 481.82 334.52 481.8 334.54 481.78 334.56 481.77 334.58 481.75 334.61 481.73 334.65 481.72 334.68 481.7 334.73 481.67 334.77 481.65 334.8 481.64 334.82 481.6 334.87 481.58 334.9 481.56 334.93 481.54 334.97 481.53 334.99 481.51 335.02 481.49 335.07 481.47 335.12 481.46 335.16 481.43 335.23 481.43 335.25 481.4 335.32 481.38 335.37 481.35 335.46 481.32 335.53 481.29 335.61 481.26 335.7 481.23 335.76 481.22 335.77 481.17 335.78 481.11 335.8 481.08 335.81 481.07 335.83 481.04 335.86 481.01 335.89 480.96 335.93 480.93 335.96 480.88 336 480.86 335.99 480.83 335.96 480.83 335.94 480.83 335.92 480.83 335.88 480.82 335.83 480.82 335.76 480.77 335.71 480.76 335.71 480.67 335.63 480.62 335.58 480.57 335.54 480.47 335.46 480.46 335.44 480.56 335.3 480.6 335.23 480.61 335.22 480.67 335.14 480.72 335.07 480.77 335.01 480.82 334.95 480.86 334.91 480.89 334.84 480.93 334.75 480.94 334.73 480.96 334.68 480.97 334.61 480.99 334.5 481 334.43 481.02 334.38 481.05 334.32 481.06 334.31 481.08 334.28 481.11 334.24 481.14 334.2 481.18 334.15 481.21 334.12 481.26 334.08 481.29 334.05 481.31 334.03 481.33 334.01 481.37 333.93 481.39 333.89 481.42 333.84 481.45 333.8 481.47 333.76 481.5 333.71 481.65 333.48 481.68 333.43 481.99 332.92 482.13 332.71 482.24 332.55 482.25 332.53 482.26 332.52 482.51 332.12 482.64 331.92 482.65 331.91 482.67 331.89 482.69 331.86 482.71 331.83 482.77 331.76 482.8 331.72 482.82 331.68 482.85 331.64 482.88 331.59 482.91 331.54 482.92 331.53 482.94 331.49 482.95 331.46 482.96 331.43 483.22 330.87 483.25 330.82 483.26 330.78 483.33 330.61 483.49 330.2 483.61 329.89 483.79 329.55 483.86 329.39 483.87 329.38 483.87 329.38 483.93 329.24 483.93 329.22 483.99 329.09 483.99 329.08 484.03 328.96 483.95 328.45 483.9 328.23 483.9 328.19 483.82 327.81 483.8 327.45 483.8 327.42 483.8 327.32 483.8 327.24 483.82 327.13 483.88 326.88 483.91 326.76 483.91 326.74 484.01 326.34 484.07 326.32 484.22 326.24 484.27 326.21 484.34 326.17 484.8 325.92 484.81 325.91 484.87 325.88 484.9 325.81 484.91 325.79 484.97 325.66 484.99 325.62 485.07 325.42 485.11 325.3 485.2 325.06 485.32 325.03 485.37 325.01 485.54 324.96 485.6 324.94 485.86 324.84 485.87 324.84 485.87 324.51 485.85 324.41 485.87 324.38 486.04 324.16 486.06 324.15 486.28 323.84 486.3 323.81 486.16 323.71 486.13 323.68 485.94 323.54 485.75 323.1 485.71 323.03 485.7 323 485.52 322.62 485.43 322.45 485.29 322.18 485.25 322.08 485.22 321.99 485.11 321.74 485.07 321.65 485.03 321.56 485 321.45 484.93 321.25 484.91 321.18 484.9 321.16 484.87 321.06 484.84 320.97 484.83 320.94 484.81 320.86 484.78 320.65 484.84 320.64 484.9 320.63 484.97 320.63 485.18 320.62 485.22 320.61 485.43 320.6 485.45 320.6 485.48 320.6 485.74 320.59 485.85 320.59 485.89 320.47 485.92 320.37 485.98 320.4 486.1 320.47 486.18 320.53 486.3 320.64 486.39 320.72 486.48 320.8 486.53 320.83 486.61 320.84 486.64 320.84 486.67 320.84 486.71 320.85 486.76 320.86 486.83 320.87 486.89 320.86 486.93 320.85 486.99 320.82 487.04 320.78 487.09 320.75 487.11 320.74 487.17 320.75 487.27 320.76 487.34 320.77 487.4 320.79 487.45 320.8 487.47 320.82 487.51 320.86 487.56 320.89 487.63 320.93 487.71 320.97 487.77 321.01 487.88 321.05 487.97 321.07 487.98 321.1 488.01 321.17 488.07 321.31 488.1 321.38 488.12 321.45 488.13 321.51 488.14 321.54 488.15 321.57 488.16 321.6 488.16 321.62 488.17 321.65 488.17 321.72 488.17 321.79 488.17 321.89 488.17 321.98 488.18 322.02 488.19 322.04 488.25 322.11 488.31 322.19 488.36 322.26 488.42 322.34 488.48 322.41 488.51 322.44 488.58 322.48 488.59 322.49 488.68 322.56 488.76 322.64 488.85 322.73 488.92 322.8 488.96 322.84 488.97 322.85 488.98 322.86 489 322.89 489.03 322.96 489.06 323.02 489.11 323.11 489.15 323.19 489.17 323.23 489.22 323.29 489.24 323.32 489.27 323.34 489.37 323.39 489.47 323.44 489.57 323.5 489.63 323.54 489.72 323.59 489.82 323.64 489.9 323.68 489.95 323.71 489.98 323.72 490.06 323.76 490.15 323.8 490.16 323.81 490.24 323.84 490.33 323.85 490.39 323.85 490.5 323.85 490.51 323.85 490.53 323.85 490.61 323.85 490.68 323.85 490.8 323.85 490.9 323.86 490.97 323.86 491.14 323.86 491.27 323.86 491.33 323.86 491.37 323.86 491.46 323.86 491.54 323.86 491.6 323.85 491.69 323.83 491.78 323.83 491.81 323.82 491.84 323.82 491.9 323.81 492 323.79 492.09 323.77 492.19 323.75 492.3 323.73 492.39 323.71 492.45 323.7 492.52 323.69 492.63 323.67 492.71 323.67 492.87 323.64 493.03 323.62 493.04 323.6 493.13 323.53 493.25 323.42 493.37 323.33 493.43 323.26 493.44 323.24 493.45 323.23 493.53 323.24 493.62 323.24 493.73 323.25 493.81 323.26 493.88 323.27 493.98 323.28 494.08 323.29 494.16 323.29 494.25 323.3 494.35 323.31 494.44 323.32 494.53 323.33 494.64 323.34 494.67 323.34 494.85 323.36 495.04 323.38 495.06 323.38 495.12 323.39 495.31 323.41 495.4 323.42 495.57 323.43 495.68 323.44 495.93 323.47 496 323.47 Z"/>
</g></svg>