<svg xmlns="http://www.w3.org/2000/svg" version="1.2" baseProfile="tiny" stroke-linecap="round" stroke-linejoin="round" viewBox="699.57 225.8 32.1 39.08"><g xmlns="http://www.w3.org/2000/svg" id="Uztarroze">
<path d="M 731.63 228.41 731.51 228.48 731.37 228.66 731.2 228.88 731.01 229.11 730.76 229.4 730.53 229.62 730.05 229.68 729.88 229.98 729.63 230.41 729.39 230.8 729.36 230.85 729.32 230.92 729.28 230.98 729.24 231.03 729.22 231.07 729.18 231.13 729.15 231.19 729.12 231.23 729.09 231.27 729.05 231.3 729.01 231.33 728.99 231.34 728.95 231.37 728.92 231.39 728.87 231.42 728.82 231.46 728.79 231.47 728.77 231.49 728.76 231.5 728.75 231.51 728.72 231.54 728.7 231.57 728.67 231.62 728.66 231.66 728.65 231.73 728.63 231.82 728.62 231.89 728.61 231.95 728.6 231.97 728.58 232.01 728.54 232.07 728.51 232.12 728.47 232.18 728.45 232.23 728.42 232.29 728.39 232.33 728.35 232.39 728.31 232.44 728.29 232.47 728.26 232.49 728.24 232.51 728.23 232.53 728.21 232.56 728.2 232.57 728.18 232.62 728.17 232.66 728.17 232.67 728.16 232.68 728.16 232.7 728.16 232.71 728.17 232.73 728.17 232.74 728.15 232.78 728.12 232.83 728.1 232.86 728.07 232.9 728.03 232.95 728 233 727.97 233.03 727.95 233.08 727.93 233.13 727.92 233.16 727.91 233.18 727.91 233.21 727.9 233.26 727.89 233.31 727.89 233.35 727.88 233.39 727.86 233.42 727.84 233.46 727.81 233.51 727.79 233.54 727.77 233.57 727.73 233.61 727.72 233.63 727.7 233.66 727.69 233.69 727.68 233.72 727.67 233.77 727.66 233.81 727.66 233.85 727.64 233.95 727.64 233.97 727.64 234.01 727.63 234.08 727.63 234.11 727.64 234.14 727.66 234.18 727.67 234.24 727.68 234.28 727.69 234.31 727.69 234.33 727.69 234.36 727.68 234.4 727.66 234.44 727.65 234.52 727.62 234.6 727.6 234.69 727.58 234.77 727.55 234.87 727.53 234.96 727.52 235 727.5 235.04 727.48 235.13 727.47 235.2 727.45 235.26 727.43 235.33 727.42 235.39 727.4 235.46 727.38 235.53 727.36 235.59 727.35 235.64 727.33 235.69 727.31 235.76 727.3 235.83 727.28 235.89 727.27 235.94 727.26 235.99 727.25 236.05 727.24 236.13 727.22 236.22 727.21 236.27 727.21 236.28 727.2 236.31 727.19 236.34 727.15 236.42 727.11 236.48 727.08 236.53 727.07 236.54 727.04 236.6 726.98 236.67 726.94 236.72 726.93 236.75 726.86 236.83 726.78 236.94 726.74 237 726.69 237.08 726.68 237.09 726.65 237.12 726.63 237.15 726.58 237.23 726.54 237.28 726.5 237.32 726.44 237.37 726.34 237.46 726.31 237.48 726.26 237.51 726.23 237.54 726.21 237.55 726.2 237.56 726.2 237.57 726.17 237.61 726.14 237.67 726.11 237.77 726.07 237.88 726.01 238.02 725.97 238.14 725.93 238.24 725.88 238.37 725.83 238.49 725.81 238.55 725.81 238.57 725.77 238.66 725.76 238.68 725.75 238.73 725.74 238.77 725.73 238.79 725.73 238.81 725.71 238.88 725.68 238.99 725.66 239.1 725.64 239.19 725.61 239.29 725.59 239.36 725.59 239.39 725.57 239.43 725.57 239.44 725.56 239.49 725.53 239.58 725.52 239.62 725.52 239.63 725.52 239.64 725.52 239.65 725.49 239.74 725.48 239.78 725.47 239.81 725.44 239.9 725.44 239.91 725.44 239.92 725.42 240.01 725.41 240.06 725.38 240.13 725.36 240.25 725.33 240.33 725.31 240.41 725.28 240.5 725.26 240.58 725.25 240.62 725.24 240.65 725.24 240.66 725.21 240.72 725.18 240.79 725.15 240.85 725.12 240.94 725.1 240.99 725.06 241.08 725.04 241.12 725.01 241.19 724.98 241.27 724.96 241.32 724.92 241.39 724.89 241.47 724.86 241.54 724.85 241.57 724.83 241.61 724.8 241.66 724.8 241.67 724.79 241.68 724.77 241.73 724.77 241.74 724.74 241.8 724.73 241.81 724.72 241.84 724.7 241.88 724.66 241.97 724.64 242.02 724.61 242.09 724.58 242.14 724.58 242.16 724.57 242.17 724.53 242.25 724.51 242.31 724.48 242.38 724.45 242.43 724.52 242.45 724.6 242.49 724.66 242.51 724.68 242.52 724.68 242.53 724.67 242.53 724.66 242.56 724.62 242.63 724.56 242.77 724.5 242.88 724.49 242.91 724.41 243.07 724.38 243.13 724.37 243.18 724.35 243.44 724.32 243.75 724.32 243.77 724.3 243.92 724.3 243.94 724.28 244.01 724.27 244.02 724.22 244.2 724.17 244.38 724.11 244.58 724.09 244.67 724.09 244.68 724.08 244.7 724.07 244.74 724.05 244.78 724.04 244.79 723.83 245.25 723.79 245.34 723.73 245.47 723.72 245.49 723.69 245.55 723.59 245.79 723.49 246 723.5 246.12 723.51 246.38 723.52 246.44 723.52 246.47 723.53 246.73 723.54 246.95 723.54 247.11 723.54 247.12 723.54 247.13 723.55 247.15 723.54 247.32 723.54 247.37 723.6 247.64 723.68 248.02 723.7 248.15 723.7 248.18 723.68 248.45 723.68 248.54 723.67 248.78 723.66 248.84 723.64 249.04 723.6 249.24 723.59 249.29 723.59 249.33 723.55 249.53 723.52 249.67 723.51 249.73 723.5 249.74 723.42 249.92 723.36 250.04 723.36 250.06 723.36 250.08 723.33 250.27 723.32 250.39 723.29 250.59 723.25 250.79 723.22 250.96 723.05 251.17 723 251.23 722.99 251.24 722.98 251.25 722.83 251.43 722.83 251.52 722.83 251.67 722.83 251.73 722.84 251.76 722.84 251.89 722.84 252.01 722.85 252.08 722.85 252.2 722.85 252.23 722.87 252.56 722.87 252.57 722.87 252.59 722.97 252.77 723.01 252.85 723.02 252.88 723.06 252.95 723.1 253.02 723.12 253.26 723.12 253.27 723.15 253.61 723.16 253.71 723.21 254.16 723.22 254.23 723.22 254.26 723.22 254.27 723.22 254.28 723.21 254.3 723.09 254.59 723.09 254.61 723.03 254.77 723.02 254.78 722.98 254.87 722.98 254.88 722.95 254.97 722.98 255.09 722.99 255.14 723.07 255.41 723.06 255.7 723.06 255.85 723.06 255.99 722.96 256.22 722.94 256.25 722.93 256.29 722.89 256.36 722.87 256.43 722.86 256.44 722.86 256.49 722.92 257.01 722.95 257.25 722.94 257.26 722.9 257.29 722.67 257.44 722.66 257.45 722.61 257.49 722.59 257.6 722.53 257.97 722.51 258.08 722.48 258.26 722.43 258.56 722.4 258.78 722.37 258.97 722.35 259.07 722.34 259.18 722.34 259.19 722.33 259.23 722.29 259.27 722.19 259.24 722.04 259.16 722 259.13 721.96 259.1 721.93 259.04 721.89 258.95 721.85 258.86 721.82 258.81 721.78 258.75 721.73 258.69 721.65 258.61 721.6 258.55 721.57 258.49 721.52 258.4 721.49 258.32 721.46 258.23 721.44 258.16 721.41 258.09 721.38 258.05 721.32 258.07 721.26 258.09 721.22 258.1 721.16 258.12 721.12 258.14 721.08 258.17 721.02 258.21 720.97 258.25 720.91 258.29 720.88 258.33 720.84 258.36 720.8 258.41 720.77 258.45 720.69 258.54 720.62 258.62 720.55 258.71 720.49 258.82 720.4 258.96 720.35 259.04 720.29 259.14 720.26 259.19 720.25 259.2 720.16 259.21 720.12 259.22 720.1 259.22 720.04 259.23 719.95 259.25 719.92 259.27 719.84 259.33 719.73 259.42 719.66 259.48 719.58 259.54 719.57 259.55 719.55 259.58 719.49 259.68 719.45 259.76 719.41 259.82 719.35 259.88 719.29 259.94 719.26 260.01 719.23 260.08 719.18 260.24 719.16 260.33 719.15 260.35 719.11 260.45 719.08 260.53 719.06 260.66 719.03 260.74 719.03 260.76 719 260.8 718.97 260.85 718.96 260.94 718.96 261.01 718.97 261.1 718.98 261.17 718.98 261.21 719.01 261.3 719.02 261.35 719.01 261.41 718.98 261.51 718.96 261.52 718.89 261.59 718.84 261.63 718.75 261.7 718.61 261.82 718.52 261.89 718.48 261.9 718.38 261.91 718.22 261.93 718.09 262.07 717.99 262.2 717.96 262.23 717.93 262.25 717.88 262.28 717.81 262.32 717.8 262.33 717.72 262.38 717.6 262.46 717.54 262.49 717.49 262.52 717.47 262.53 717.46 262.54 717.42 262.56 717.36 262.63 717.27 262.74 717.19 262.84 717.11 262.94 717.04 263.03 716.97 263.13 716.93 263.17 716.93 263.18 716.82 263.31 716.74 263.4 716.68 263.48 716.58 263.62 716.45 263.81 716.17 264.17 716.08 264.28 715.92 264.26 715.79 264.25 715.63 264.23 715.45 264.21 715.26 264.18 715.22 264.18 715.13 264.17 715.12 264.17 715.08 264.17 714.88 264.17 714.81 264.17 714.76 264.17 714.65 264.17 714.53 264.17 714.38 264.16 714.31 264.16 714.28 264.17 714.26 264.17 714.2 264.16 714.17 264.15 714.15 264.15 714.11 264.15 714.04 264.14 713.96 264.13 713.92 264.12 713.88 264.12 713.79 264.11 713.62 264.09 713.48 264.08 713.47 264.07 713.43 264.07 713.03 264.03 712.93 264.15 712.84 264.26 712.83 264.28 712.78 264.34 712.73 264.4 712.67 264.47 712.67 264.48 712.43 264.79 712.26 264.81 712.12 264.84 711.96 264.86 711.85 264.88 711.76 264.88 711.58 264.88 711.43 264.87 711.41 264.87 711.25 264.86 711.09 264.86 710.94 264.86 710.79 264.85 710.61 264.8 710.49 264.76 710.37 264.73 710.23 264.69 710.09 264.65 709.99 264.61 709.88 264.57 709.82 264.55 709.79 264.53 709.7 264.5 709.63 264.46 709.55 264.42 709.48 264.38 709.47 264.38 709.4 264.34 709.32 264.28 709.25 264.23 709.24 264.22 709.2 264.2 709.16 264.17 709.09 264.11 709.03 264.05 708.98 264 708.96 263.98 708.95 263.96 708.95 263.96 708.91 263.88 708.85 263.8 708.81 263.74 708.76 263.72 708.67 263.69 708.66 263.69 708.63 263.68 708.56 263.65 708.5 263.63 708.45 263.61 708.38 263.59 708.29 263.56 708.28 263.56 708.24 263.55 708.16 263.52 708.09 263.49 707.98 263.44 707.94 263.42 707.85 263.39 707.71 263.32 707.58 263.26 707.4 263.19 707.35 263.17 707.28 263.14 707.15 263.09 707.12 263.07 707.1 263.07 707.06 263.05 707.05 263.05 706.92 263 706.87 262.99 706.82 262.97 706.73 262.94 706.7 262.93 706.64 262.9 706.55 262.87 706.52 262.86 706.39 262.81 706.26 262.76 706.15 262.73 706.14 262.72 706.02 262.69 705.91 262.65 705.86 262.64 705.84 262.63 705.83 262.63 705.73 262.61 705.63 262.6 705.53 262.58 705.44 262.56 705.33 262.54 705.23 262.52 705.13 262.5 704.99 262.48 704.87 262.46 704.77 262.44 704.72 262.43 704.67 262.42 704.6 262.4 704.58 262.41 704.56 262.41 704.46 262.44 704.39 262.46 704.34 262.47 704.27 262.49 704.21 262.51 704.15 262.52 704.08 262.54 703.99 262.55 703.92 262.56 703.85 262.57 703.76 262.58 703.7 262.6 703.69 262.6 703.67 262.6 703.62 262.61 703.53 262.62 703.44 262.64 703.42 262.64 703.37 262.65 703.3 262.66 703.3 262.66 703.26 262.66 703.18 262.66 703.09 262.65 703.07 262.65 703.04 262.65 702.99 262.64 702.91 262.64 702.87 262.64 702.83 262.63 702.76 262.62 702.7 262.61 702.59 262.6 702.46 262.57 702.43 262.57 702.4 262.56 702.38 262.56 702.29 262.55 702.25 262.54 702.24 262.53 702.22 262.53 702.21 262.53 702.2 262.53 702.17 262.54 702.14 262.55 702.09 262.56 702.04 262.56 702 262.57 701.96 262.57 701.92 262.58 701.89 262.59 701.85 262.6 701.82 262.61 701.78 262.62 701.76 262.63 701.73 262.64 701.7 262.66 701.67 262.68 701.65 262.69 701.62 262.71 701.6 262.73 701.58 262.75 701.56 262.77 701.54 262.79 701.52 262.82 701.5 262.84 701.48 262.85 701.45 262.87 701.44 262.87 701.42 262.88 701.4 262.88 701.36 262.87 701.32 262.86 701.25 262.85 701.16 262.83 701.11 262.82 701.09 262.82 701.03 262.82 700.98 262.8 700.93 262.78 700.91 262.77 700.88 262.76 700.86 262.74 700.83 262.73 700.8 262.71 700.75 262.68 700.7 262.65 700.64 262.62 700.59 262.59 700.56 262.57 700.53 262.56 700.49 262.54 700.48 262.54 700.45 262.53 700.43 262.52 700.41 262.51 700.38 262.49 700.36 262.47 700.34 262.45 700.33 262.43 700.32 262.41 700.3 262.39 700.29 262.38 700.28 262.37 700.26 262.36 700.22 262.33 700.19 262.3 700.14 262.27 700.11 262.25 700.09 262.24 700.07 262.23 700.05 262.23 700.02 262.23 700 262.23 699.96 262.23 699.92 262.23 699.89 262.22 699.85 262.21 699.8 262.2 699.75 262.18 699.71 262.17 699.68 262.16 699.65 262.15 699.62 262.13 699.59 262.11 699.59 262.1 699.6 262.09 699.69 261.98 699.71 261.96 699.78 261.88 699.86 261.8 699.93 261.75 700 261.69 700.04 261.67 700.08 261.64 700.09 261.62 700.11 261.55 700.13 261.51 700.16 261.44 700.17 261.38 700.18 261.36 700.2 261.31 700.23 261.23 700.26 261.15 700.29 261.09 700.32 261 700.35 260.94 700.39 260.85 700.43 260.77 700.47 260.68 700.51 260.59 700.52 260.57 700.53 260.54 700.54 260.52 700.57 260.45 700.6 260.39 700.63 260.33 700.66 260.26 700.7 260.17 700.72 260.11 700.73 260.08 700.74 260.07 700.75 260.04 700.75 260.03 700.77 259.99 700.8 259.93 700.81 259.9 700.83 259.87 700.84 259.85 700.88 259.8 700.97 259.63 701 259.56 701.04 259.49 701.07 259.41 701.11 259.34 701.14 259.28 701.18 259.21 701.21 259.15 701.23 259.13 701.24 259.11 701.26 259.08 701.29 259.03 701.34 258.97 701.37 258.91 701.4 258.87 701.44 258.82 701.47 258.77 701.51 258.71 701.54 258.67 701.56 258.62 701.58 258.6 701.6 258.56 701.63 258.5 701.68 258.4 701.72 258.34 701.75 258.28 701.78 258.22 701.84 258.09 701.88 258.03 701.92 257.96 701.95 257.9 701.96 257.89 701.97 257.87 702.01 257.79 702.02 257.75 702.03 257.73 702.05 257.69 702.06 257.65 702.07 257.64 702.08 257.61 702.08 257.6 702.09 257.59 702.1 257.54 702.11 257.49 702.11 257.47 702.11 257.46 702.11 257.41 702.11 257.33 702.12 257.24 702.12 257.16 702.13 257.09 702.13 257.06 702.15 257 702.17 256.93 702.21 256.81 702.24 256.7 702.27 256.64 702.27 256.62 702.3 256.53 702.33 256.46 702.37 256.39 702.41 256.32 702.43 256.28 702.45 256.22 702.48 256.14 702.5 256.1 702.52 256.06 702.54 256.03 702.56 256 702.58 255.98 702.58 255.94 702.59 255.86 702.58 255.79 702.58 255.75 702.59 255.72 702.6 255.69 702.61 255.67 702.63 255.63 702.66 255.59 702.71 255.54 702.73 255.5 702.75 255.47 702.76 255.41 702.78 255.34 702.79 255.25 702.79 255.21 702.81 255.18 702.83 255.15 702.85 255.13 702.91 255.07 702.95 255.03 702.97 255.01 702.97 255.01 702.99 254.98 703.02 254.92 703.03 254.86 703.04 254.84 703.07 254.81 703.11 254.77 703.13 254.74 703.14 254.7 703.15 254.65 703.15 254.57 703.16 254.51 703.17 254.48 703.18 254.44 703.2 254.36 703.22 254.28 703.23 254.25 703.26 254.19 703.29 254.15 703.3 254.13 703.3 254.1 703.31 254.05 703.32 254.03 703.32 254 703.3 253.98 703.29 253.96 703.27 253.94 703.26 253.91 703.26 253.87 703.26 253.83 703.26 253.8 703.28 253.77 703.29 253.74 703.29 253.7 703.28 253.68 703.28 253.64 703.27 253.56 703.26 253.48 703.24 253.42 703.23 253.39 703.21 253.37 703.19 253.35 703.14 253.33 703.09 253.31 703.04 253.29 702.96 253.25 702.92 253.21 702.88 253.17 702.83 253.09 702.79 253.01 702.74 252.92 702.68 252.81 702.65 252.74 702.64 252.71 702.66 252.69 702.68 252.67 702.71 252.64 702.72 252.61 702.74 252.58 702.75 252.52 702.76 252.5 702.76 252.47 702.76 252.46 702.75 252.44 702.74 252.4 702.72 252.37 702.72 252.31 702.71 252.29 702.7 252.27 702.69 252.23 702.68 252.19 702.67 252.15 702.66 252.12 702.66 252.08 702.65 252.05 702.65 252.01 702.64 251.97 702.63 251.92 702.63 251.9 702.61 251.86 702.6 251.83 702.59 251.81 702.56 251.72 702.55 251.7 702.54 251.68 702.53 251.64 702.51 251.61 702.49 251.56 702.47 251.51 702.46 251.49 702.46 251.46 702.44 251.42 702.43 251.39 702.42 251.36 702.41 251.32 702.41 251.28 702.4 251.24 702.4 251.2 702.4 251.18 702.39 251.14 702.38 251.09 702.37 251.05 702.36 250.98 702.36 250.95 702.35 250.92 702.34 250.89 702.33 250.87 702.3 250.82 702.28 250.77 702.26 250.71 702.24 250.66 702.22 250.62 702.2 250.57 702.2 250.54 702.18 250.5 702.17 250.46 702.16 250.42 702.15 250.38 702.13 250.35 702.11 250.3 702.1 250.26 702.1 250.23 702.1 250.2 702.11 250.17 702.11 250.14 702.1 250.11 702.1 250.08 702.09 250.05 702.08 250.03 702.07 250 702.06 249.97 702.06 249.93 702.06 249.91 702.07 249.87 702.07 249.85 702.07 249.82 702.06 249.8 702.05 249.78 702.04 249.76 702.03 249.69 702.04 249.61 702.06 249.51 702.1 249.4 702.13 249.36 702.16 249.32 702.2 249.29 702.24 249.26 702.28 249.23 702.29 249.2 702.29 249.18 702.3 249.13 702.3 249.06 702.31 249 702.33 248.92 702.37 248.85 702.39 248.81 702.45 248.76 702.55 248.68 702.63 248.62 702.69 248.56 702.8 248.46 702.86 248.39 702.92 248.3 702.95 248.24 702.98 248.17 703 248.12 703.02 248.07 703.04 248.03 703.18 247.92 703.26 247.81 703.29 247.76 703.33 247.69 703.35 247.6 703.36 247.52 703.34 247.46 703.34 247.41 703.34 247.38 703.32 247.27 703.31 247.22 703.32 247.2 703.33 247.18 703.33 247.17 703.33 247.14 703.32 247.11 703.31 247.08 703.29 247.04 703.28 246.98 703.29 246.9 703.29 246.86 703.29 246.82 703.28 246.8 703.26 246.77 703.23 246.73 703.22 246.71 703.22 246.67 703.21 246.6 703.19 246.53 703.14 246.37 703.14 246.35 703.14 246.29 703.15 246.2 703.16 246.13 703.15 246.1 703.11 246.07 703.1 246.05 703.09 246.03 703.08 246 703.08 245.97 703.1 245.89 703.1 245.87 703.1 245.84 703.08 245.8 703.03 245.75 702.97 245.67 702.99 245.62 703 245.6 703 245.59 703 245.58 702.99 245.57 702.99 245.57 702.98 245.56 702.98 245.55 702.97 245.55 702.91 245.47 702.88 245.42 702.83 245.37 702.79 245.3 702.78 245.26 702.77 245.22 702.76 245.17 702.75 245.13 702.75 245.09 702.75 245.06 702.76 245.03 702.76 245.01 702.77 244.99 702.78 244.97 702.79 244.95 702.8 244.93 702.82 244.9 702.85 244.86 702.91 244.79 702.93 244.76 702.94 244.73 702.97 244.67 702.98 244.64 702.99 244.62 703 244.6 703.01 244.58 703.01 244.54 703.02 244.5 703.02 244.45 703.03 244.4 703.03 244.37 703.03 244.33 703.03 244.3 703.03 244.26 703.03 244.22 703.03 244.18 703.02 244.14 703.02 244.11 703.01 244.07 703 244.03 702.98 243.99 702.96 243.96 702.94 243.92 702.92 243.88 702.9 243.85 702.88 243.81 702.85 243.78 702.82 243.73 702.81 243.71 702.79 243.69 702.78 243.65 702.76 243.62 702.75 243.59 702.73 243.55 702.7 243.51 702.67 243.48 702.65 243.45 702.63 243.43 702.61 243.4 702.58 243.38 702.55 243.36 702.51 243.33 702.46 243.29 702.46 243.28 702.47 243.2 702.49 243.1 702.51 243.03 702.53 242.97 702.55 242.9 702.57 242.85 702.58 242.8 702.59 242.79 702.6 242.71 702.63 242.61 702.64 242.59 702.65 242.53 702.66 242.5 702.68 242.43 702.7 242.34 702.72 242.27 702.74 242.18 702.76 242.1 702.78 242.05 702.78 242.03 702.8 241.94 702.83 241.84 702.85 241.77 702.87 241.69 702.89 241.62 702.9 241.55 702.92 241.45 702.94 241.39 702.95 241.33 702.97 241.26 702.98 241.19 703 241.12 703.01 241.08 703.02 241.05 703.02 241.03 703.02 241.01 703.02 240.99 703.02 240.98 703.02 240.96 703.02 240.94 702.99 240.74 702.98 240.68 702.97 240.62 702.97 240.58 702.97 240.55 702.97 240.53 702.97 240.49 702.98 240.44 702.99 240.39 702.99 240.35 703 240.31 703.02 240.25 703.03 240.21 703.05 240.17 703.06 240.13 703.08 240.09 703.1 240.05 703.12 240.02 703.14 239.98 703.16 239.96 703.19 239.92 703.22 239.89 703.27 239.84 703.3 239.81 703.35 239.75 703.38 239.72 703.42 239.68 703.45 239.64 703.51 239.57 703.56 239.52 703.59 239.48 703.62 239.46 703.74 239.33 703.78 239.29 703.81 239.25 703.84 239.21 703.86 239.18 703.87 239.16 703.88 239.13 703.89 239.1 703.9 239.07 703.92 239.03 703.94 239 703.96 238.96 703.99 238.92 704.01 238.88 704.04 238.83 704.07 238.8 704.09 238.78 704.12 238.74 704.15 238.7 704.23 238.6 704.32 238.48 704.44 238.32 704.49 238.26 704.53 238.2 704.78 237.83 704.72 237.53 704.72 237.52 704.73 237.51 704.74 237.51 704.78 237.49 704.78 237.48 704.79 237.47 704.82 237.45 704.83 237.44 704.83 237.43 704.84 237.43 704.85 237.41 704.87 237.37 704.92 237.31 704.94 237.28 704.95 237.26 704.96 237.25 704.98 237.23 704.99 237.22 705 237.21 705.01 237.2 705.08 237.13 705.13 237.09 705.17 237.07 705.19 237.06 705.19 237.05 705.33 236.95 705.36 236.93 705.38 236.91 705.4 236.9 705.42 236.88 705.43 236.88 705.45 236.86 705.54 236.82 705.7 236.74 705.83 236.68 705.92 236.63 706.01 236.56 706.07 236.53 706.14 236.48 706.24 236.41 706.45 236.27 706.46 236.26 706.47 236.25 706.49 236.25 706.53 236.21 706.57 236.17 706.58 236.16 706.59 236.14 706.6 236.13 706.61 236.12 706.66 236.08 706.72 236.03 706.77 235.98 706.79 235.96 706.81 235.94 706.82 235.91 706.84 235.89 706.85 235.87 706.87 235.84 706.88 235.8 706.91 235.72 706.96 235.57 707 235.41 707.01 235.37 707.02 235.36 707.02 235.34 707.02 235.33 707.02 235.32 707.02 235.24 707.03 235.09 707.03 235.04 707.04 235.03 707.04 235.02 707.04 235 707.04 234.99 707.04 234.98 707.05 234.97 707.06 234.94 707.07 234.93 707.08 234.9 707.1 234.86 707.11 234.84 707.13 234.79 707.15 234.72 707.16 234.7 707.16 234.7 707.16 234.69 707.16 234.68 707.17 234.66 707.17 234.65 707.17 234.64 707.17 234.62 707.17 234.61 707.17 234.6 707.18 234.58 707.19 234.51 707.2 234.39 707.22 234.3 707.23 234.23 707.24 234.15 707.25 234.09 707.26 234.08 707.26 234.07 707.26 234.06 707.27 234.05 707.27 234.05 707.28 234.04 707.29 234.01 707.31 233.98 707.35 233.93 707.36 233.91 707.37 233.89 707.38 233.86 707.39 233.84 707.39 233.81 707.41 233.72 707.41 233.69 707.42 233.68 707.42 233.67 707.43 233.66 707.43 233.65 707.44 233.64 707.44 233.63 707.45 233.62 707.46 233.62 707.49 233.61 707.52 233.6 707.53 233.59 707.54 233.58 707.54 233.57 707.55 233.52 707.55 233.51 707.55 233.49 707.56 233.48 707.56 233.47 707.57 233.46 707.58 233.45 707.59 233.43 707.75 233.28 707.79 233.23 707.82 233.2 707.83 233.17 707.84 233.16 707.84 233.15 707.85 233.14 707.85 233.12 707.85 233.11 707.86 233.09 707.86 233.08 707.86 232.94 707.86 232.92 707.86 232.91 707.86 232.9 707.87 232.89 707.9 232.78 707.91 232.76 707.91 232.74 707.91 232.73 707.92 232.72 707.92 232.7 707.92 232.7 707.92 232.69 707.92 232.67 707.95 232.57 707.97 232.43 707.98 232.4 707.99 232.37 707.99 232.34 707.99 232.26 707.98 232.2 707.98 232.19 707.99 232.18 707.99 232.16 707.99 232.15 707.99 232.14 708 232.13 708.01 232.1 708.02 232.08 708.02 232.07 708.03 232.06 708.04 232.05 708.04 232.04 708.05 232.01 708.09 231.91 708.1 231.89 708.1 231.87 708.11 231.86 708.11 231.84 708.17 231.74 708.2 231.7 708.25 231.65 708.3 231.61 708.32 231.58 708.32 231.58 708.33 231.57 708.34 231.54 708.34 231.54 708.34 231.53 708.35 231.51 708.35 231.5 708.35 231.46 708.36 231.45 708.36 231.44 708.37 231.43 708.38 231.42 708.44 231.36 708.48 231.33 708.52 231.29 708.56 231.26 708.59 231.24 708.62 231.22 708.65 231.21 708.69 231.2 708.74 231.19 708.79 231.18 708.84 231.16 708.87 231.15 708.9 231.13 708.92 231.12 708.94 231.11 708.96 231.11 708.97 231.09 708.99 231.08 709 231.05 709.03 231.01 709.06 230.96 709.08 230.93 709.1 230.9 709.13 230.88 709.15 230.85 709.18 230.83 709.21 230.82 709.24 230.79 709.26 230.77 709.3 230.73 709.32 230.71 709.33 230.7 709.38 230.69 709.44 230.66 709.49 230.64 709.49 230.64 709.47 230.42 709.44 230.18 709.41 229.98 709.55 229.74 709.69 229.59 709.75 229.51 709.78 229.49 709.81 229.45 709.86 229.38 709.93 229.28 710.01 229.17 710.01 229.09 710.01 228.98 710.01 228.87 710.05 228.74 710.1 228.59 710.18 228.38 710.24 228.25 710.31 228.08 710.35 227.94 710.39 227.86 710.43 227.77 710.44 227.76 710.44 227.74 710.48 227.66 710.53 227.55 710.59 227.42 710.65 227.43 710.69 227.44 710.7 227.45 710.73 227.46 710.81 227.54 710.89 227.63 710.97 227.72 710.99 227.74 711.03 227.76 711.08 227.78 711.16 227.8 711.29 227.85 711.41 227.88 711.53 227.9 711.64 227.9 711.76 227.9 711.91 227.9 712.07 227.9 712.21 227.88 712.38 227.85 712.45 227.83 712.52 227.83 712.56 227.83 712.66 227.84 712.81 227.85 712.86 227.85 712.9 227.86 713.02 227.9 713.08 227.92 713.18 227.93 713.28 227.95 713.4 227.98 713.53 228.01 713.68 228.03 713.86 228.08 714.02 228.11 714.06 228.12 714.13 228.15 714.24 228.19 714.32 228.23 714.44 228.27 714.56 228.32 714.69 228.38 714.84 228.43 714.89 228.45 714.95 228.48 715.05 228.54 715.12 228.58 715.25 228.66 715.38 228.74 715.5 228.82 715.6 228.9 715.73 229 715.89 229.12 716 229.21 716.14 229.33 716.42 229.57 716.47 229.61 716.54 229.66 716.65 229.73 716.76 229.8 716.89 229.88 717 229.95 717.12 230.03 717.25 230.12 717.29 230.14 717.34 230.19 717.43 230.27 717.52 230.35 717.64 230.44 717.77 230.54 717.88 230.62 717.9 230.64 717.95 230.64 718.09 230.65 718.23 230.66 718.28 230.66 718.32 230.65 718.42 230.64 718.53 230.63 718.62 230.61 718.71 230.59 718.78 230.58 718.85 230.56 718.93 230.54 718.98 230.53 719.04 230.53 719.07 230.52 719.12 230.52 719.22 230.52 719.35 230.52 719.57 230.52 719.67 230.53 719.72 230.54 719.79 230.56 719.86 230.58 719.9 230.58 719.92 230.58 719.96 230.58 720.04 230.56 720.07 230.55 720.08 230.54 720.08 230.54 720.88 230.27 721.43 230.37 721.86 230.45 721.92 230.45 722 230.43 722.06 230.42 722.16 230.42 722.24 230.4 722.39 230.36 722.48 230.33 722.56 230.31 722.62 230.3 722.68 230.31 722.74 230.32 722.81 230.3 722.96 230.26 723.04 230.25 723.1 230.25 723.23 230.27 723.36 230.28 723.46 230.21 723.6 230.17 723.78 230.12 723.84 230.09 723.93 230.03 724.02 229.99 724.21 229.92 724.39 229.86 724.48 229.8 724.73 229.61 724.9 229.48 724.97 229.43 725.12 229.32 725.12 229.28 725.13 229.24 725.14 229.13 725.14 229.08 725.13 229.04 725.13 229.04 725.11 228.99 725.09 228.96 725.07 228.94 725.03 228.9 725.03 228.89 725 228.85 724.98 228.82 724.96 228.75 724.96 228.71 724.97 228.68 725.01 228.63 725.03 228.6 725.07 228.59 725.11 228.59 725.14 228.57 725.15 228.54 725.16 228.52 726.06 226.25 728.57 225.83 729.16 226.21 729.27 226.24 729.81 226.39 729.92 226.43 730.22 226.61 730.84 226.98 731.09 227.25 731.19 227.35 731.29 227.51 731.49 227.84 731.61 228.07 731.63 228.12 731.66 228.35 731.63 228.41 Z"/>
</g></svg>