<svg xmlns="http://www.w3.org/2000/svg" version="1.2" baseProfile="tiny" stroke-linecap="round" stroke-linejoin="round" viewBox="550.57 44.75 27.12 29.28"><g xmlns="http://www.w3.org/2000/svg" id="Ustaritze">
<path d="M 562.45 45.11 562.44 45.08 562.44 45.06 562.44 45.05 562.44 45.03 562.44 45.01 562.44 45 562.43 44.99 562.42 44.97 562.39 44.96 562.37 44.95 562.37 44.93 562.37 44.92 562.38 44.91 562.39 44.88 562.4 44.85 562.41 44.8 562.42 44.79 562.42 44.79 562.45 44.8 562.48 44.8 562.5 44.8 562.53 44.8 562.56 44.79 562.57 44.78 562.59 44.78 562.61 44.78 562.63 44.78 562.72 44.75 562.78 44.9 562.83 45.02 562.94 45.15 563.12 45.23 563.33 45.24 563.63 45.23 563.89 45.23 564.29 45.24 564.64 45.25 564.93 45.22 565.33 45.2 565.51 45.16 565.65 45.15 565.79 45.16 565.84 45.18 566 45.22 566.18 45.34 566.3 45.45 566.48 45.57 566.7 45.74 566.96 45.99 567.18 46.2 567.23 46.26 567.3 46.35 567.39 46.5 567.52 46.71 567.6 46.91 567.66 47.1 567.7 47.25 567.74 47.37 567.71 47.48 567.63 47.54 567.41 47.6 567.2 47.62 567.04 47.68 566.79 47.78 566.68 47.87 566.65 47.96 566.65 48.04 566.68 48.27 566.7 48.36 566.72 48.42 566.76 48.56 566.83 48.71 566.87 48.88 566.96 49.27 566.99 49.41 567 49.49 567.11 49.67 567.26 49.84 567.38 50.02 567.49 50.21 567.52 50.27 567.59 50.24 567.6 50.24 567.61 50.24 567.61 50.23 567.63 50.22 567.64 50.22 567.66 50.21 567.69 50.21 567.7 50.2 567.72 50.2 567.73 50.21 567.74 50.22 567.75 50.23 567.76 50.24 567.77 50.26 567.78 50.28 567.79 50.3 567.8 50.33 567.82 50.35 567.84 50.38 567.85 50.4 567.86 50.41 567.87 50.43 567.87 50.45 567.87 50.46 567.87 50.47 567.87 50.48 567.87 50.5 567.87 50.51 567.88 50.53 567.89 50.55 567.89 50.57 567.9 50.58 567.89 50.6 567.89 50.62 567.89 50.63 567.9 50.65 567.91 50.66 567.92 50.66 567.93 50.67 567.94 50.66 567.96 50.66 567.98 50.65 567.99 50.65 568 50.65 568.02 50.66 568.03 50.66 568.04 50.65 568.05 50.64 568.07 50.64 568.09 50.64 568.11 50.64 568.12 50.64 568.14 50.64 568.16 50.64 568.19 50.64 568.21 50.63 568.22 50.63 568.23 50.63 568.25 50.64 568.25 50.65 568.28 50.64 568.3 50.64 568.34 50.63 568.36 50.62 568.37 50.63 568.38 50.63 568.39 50.64 568.4 50.65 568.41 50.65 568.42 50.64 568.45 50.64 568.47 50.64 568.49 50.64 568.51 50.63 568.53 50.62 568.54 50.61 568.55 50.61 568.57 50.6 568.59 50.6 568.61 50.61 568.63 50.62 568.64 50.63 568.65 50.63 568.67 50.64 568.68 50.65 568.69 50.67 568.7 50.67 568.72 50.68 568.73 50.69 568.73 50.7 568.74 50.7 568.74 50.72 568.74 50.73 568.74 50.73 568.76 50.74 568.76 50.74 568.78 50.73 568.78 50.72 568.8 50.72 568.81 50.73 568.81 50.74 568.82 50.75 568.84 50.76 568.85 50.76 568.86 50.77 568.86 50.78 568.86 50.79 568.86 50.8 568.86 50.81 568.86 50.82 568.87 50.82 568.88 50.83 568.89 50.83 568.89 50.84 568.91 50.84 568.91 50.84 568.92 50.84 568.93 50.84 568.94 50.85 568.94 50.86 568.94 50.87 568.93 50.89 568.92 50.9 568.91 50.91 568.91 50.92 568.91 50.93 568.91 50.95 568.92 50.98 568.94 51 568.95 51.01 568.96 51.01 568.97 51.02 568.99 51.03 568.99 51.04 569.01 51.06 569.03 51.07 569.03 51.08 569.04 51.1 569.04 51.12 569.04 51.13 569.04 51.15 569.05 51.16 569.06 51.17 569.08 51.19 569.11 51.2 569.15 51.22 569.16 51.22 569.17 51.22 569.19 51.22 569.21 51.21 569.24 51.2 569.25 51.19 569.27 51.19 569.29 51.19 569.3 51.19 569.31 51.19 569.33 51.19 569.35 51.2 569.36 51.21 569.37 51.22 569.38 51.22 569.39 51.23 569.41 51.23 569.42 51.22 569.43 51.22 569.48 51.22 569.49 51.22 569.5 51.22 569.52 51.2 569.53 51.19 569.54 51.19 569.56 51.19 569.58 51.19 569.59 51.19 569.61 51.19 569.62 51.17 569.63 51.16 569.64 51.15 569.65 51.14 569.66 51.13 569.67 51.12 569.71 51.11 569.75 51.1 569.76 51.09 569.78 51.07 569.79 51.07 569.81 51.07 569.84 51.07 569.89 51.07 569.91 51.07 569.92 51.08 569.93 51.09 569.94 51.09 569.95 51.1 569.95 51.12 569.95 51.14 569.96 51.15 569.98 51.19 570 51.22 570.01 51.23 570.02 51.23 570.03 51.24 570.05 51.24 570.07 51.24 570.09 51.24 570.11 51.22 570.14 51.2 570.15 51.2 570.17 51.19 570.19 51.19 570.2 51.2 570.22 51.2 570.25 51.22 570.28 51.25 570.29 51.25 570.3 51.26 570.31 51.26 570.33 51.26 570.35 51.26 570.36 51.26 570.37 51.27 570.37 51.28 570.38 51.29 570.38 51.3 570.39 51.3 570.4 51.3 570.42 51.29 570.44 51.28 570.46 51.27 570.47 51.27 570.48 51.27 570.49 51.27 570.5 51.27 570.52 51.28 570.56 51.31 570.58 51.32 570.61 51.33 570.64 51.35 570.68 51.36 570.7 51.37 570.71 51.37 570.72 51.37 570.73 51.39 570.74 51.42 570.76 51.45 570.77 51.46 570.78 51.47 570.79 51.48 570.82 51.48 570.86 51.47 570.9 51.47 570.96 51.47 571 51.46 571.06 51.45 571.11 51.44 571.15 51.43 571.18 51.42 571.19 51.42 571.2 51.42 571.21 51.43 571.23 51.44 571.24 51.46 571.24 51.47 571.24 51.48 571.24 51.49 571.23 51.5 571.2 51.54 571.19 51.56 571.19 51.57 571.18 51.59 571.18 51.61 571.2 51.66 571.21 51.7 571.22 51.72 571.24 51.73 571.25 51.73 571.26 51.72 571.28 51.71 571.3 51.71 571.31 51.7 571.33 51.69 571.34 51.68 571.34 51.67 571.35 51.66 571.35 51.65 571.36 51.64 571.37 51.63 571.38 51.63 571.39 51.62 571.39 51.62 571.4 51.59 571.41 51.58 571.41 51.57 571.42 51.56 571.43 51.56 571.44 51.55 571.45 51.56 571.46 51.56 571.5 51.59 571.52 51.61 571.53 51.62 571.54 51.63 571.55 51.63 571.57 51.62 571.58 51.61 571.59 51.6 571.6 51.6 571.61 51.6 571.62 51.6 571.65 51.61 571.66 51.62 571.72 51.63 571.74 51.63 571.77 51.62 571.83 51.62 571.86 51.64 571.88 51.64 571.9 51.64 571.92 51.64 571.93 51.64 571.95 51.65 571.97 51.65 571.99 51.65 572.01 51.65 572.04 51.63 572.07 51.63 572.09 51.64 572.11 51.64 572.13 51.64 572.15 51.63 572.17 51.62 572.19 51.62 572.21 51.61 572.23 51.6 572.25 51.59 572.27 51.59 572.29 51.59 572.37 51.59 572.39 51.61 572.41 51.63 572.49 51.7 572.55 51.73 572.59 51.73 572.6 51.73 572.63 51.73 572.68 51.8 572.72 51.81 572.77 51.83 572.79 51.84 572.82 51.87 572.84 51.88 572.85 51.89 572.88 51.9 572.9 51.91 572.93 51.92 572.95 51.92 572.98 51.93 573.02 51.94 573.05 51.95 573.08 51.95 573.11 51.96 573.13 51.96 573.16 51.97 573.23 51.99 573.26 52 573.34 52.03 573.36 52.04 573.38 52.04 573.42 52.04 573.44 52.04 573.48 52.03 573.58 52.01 573.61 52.01 573.62 52.02 573.64 52.02 573.66 52.02 573.67 52.04 573.69 52.05 573.7 52.06 573.72 52.07 573.74 52.08 573.76 52.09 573.78 52.09 573.81 52.09 573.83 52.09 573.86 52.1 573.88 52.11 573.89 52.11 573.91 52.12 573.93 52.14 573.95 52.14 573.97 52.15 573.99 52.16 574.01 52.17 574.04 52.17 574.08 52.18 574.1 52.19 574.16 52.21 574.18 52.22 574.2 52.22 574.25 52.25 574.27 52.25 574.29 52.26 574.33 52.28 574.35 52.29 574.4 52.31 574.41 52.32 574.44 52.32 574.46 52.34 574.49 52.35 574.54 52.37 574.58 52.4 574.6 52.41 574.62 52.41 574.65 52.42 574.67 52.44 574.69 52.44 574.71 52.46 574.73 52.47 574.75 52.47 574.77 52.48 574.8 52.48 574.82 52.47 574.84 52.47 574.87 52.46 574.91 52.44 574.94 52.44 574.96 52.44 575.01 52.45 575.05 52.47 575.06 52.47 575.08 52.48 575.11 52.48 575.13 52.48 575.15 52.48 575.18 52.48 575.23 52.48 575.29 52.47 575.33 52.47 575.36 52.48 575.41 52.48 575.43 52.48 575.46 52.48 575.49 52.47 575.52 52.47 575.55 52.47 575.61 52.47 575.65 52.47 575.69 52.47 575.72 52.47 575.78 52.47 575.79 52.47 575.85 52.48 575.89 52.48 575.92 52.49 575.93 52.49 575.95 52.49 575.98 52.5 576.01 52.5 576.05 52.5 576.08 52.51 576.11 52.51 576.14 52.51 576.22 52.5 576.25 52.5 576.27 52.5 576.3 52.5 576.33 52.51 576.35 52.51 576.38 52.51 576.4 52.5 576.42 52.5 576.44 52.49 576.45 52.48 576.46 52.48 576.47 52.48 576.49 52.48 576.51 52.48 576.54 52.48 576.6 52.47 576.64 52.47 576.66 52.47 576.67 52.46 576.72 52.45 576.76 52.43 576.8 52.42 576.85 52.4 576.87 52.4 576.89 52.4 576.9 52.4 576.99 52.38 577.02 52.39 577.35 52.35 577.67 52.32 577.57 52.47 577.51 52.6 577.49 53.34 577.43 53.54 577.42 53.56 577.41 53.62 577.41 53.64 577.41 53.66 577.4 53.68 577.39 53.7 577.39 53.72 577.38 53.74 577.37 53.76 577.36 53.78 577.36 53.81 577.36 53.83 577.35 53.86 577.34 53.93 577.33 53.95 577.33 53.97 577.32 53.99 577.31 54.01 577.3 54.02 577.23 54.09 577.19 54.15 577.18 54.17 577.15 54.21 577.13 54.23 577.12 54.25 577.04 54.41 577.01 54.45 576.98 54.51 576.96 54.55 576.94 54.59 576.93 54.61 576.91 54.62 576.9 54.64 576.89 54.68 576.84 54.68 576.82 54.68 576.79 54.69 576.76 54.69 576.73 54.72 576.71 54.74 576.68 54.76 576.61 54.8 576.57 54.82 576.52 54.84 576.49 54.85 576.47 54.87 576.45 54.88 576.43 54.9 576.39 54.93 576.37 54.95 576.35 54.96 576.33 54.98 576.32 55 576.3 55.06 576.29 55.08 576.28 55.1 576.27 55.12 576.26 55.14 576.24 55.15 576.22 55.17 576.16 55.18 576.14 55.19 576.12 55.19 576.08 55.18 576.06 55.18 576.04 55.19 576.02 55.19 576.01 55.19 575.99 55.19 575.98 55.19 575.96 55.2 575.92 55.2 575.89 55.21 575.87 55.22 575.83 55.24 575.81 55.25 575.78 55.27 575.75 55.29 575.64 55.39 575.58 55.44 575.57 55.45 575.56 55.45 575.54 55.47 575.52 55.48 575.49 55.49 575.45 55.51 575.41 55.54 575.33 55.58 575.31 55.6 575.3 55.62 575.26 55.65 575.24 55.66 575.22 55.68 575.18 55.74 575.17 55.76 575.15 55.8 575.14 55.82 575.11 55.85 575.08 55.87 575.08 55.88 575.08 55.9 575.08 55.93 575.08 55.94 575.08 55.96 575.09 55.99 575.1 56 575.11 56.02 575.11 56.04 575.12 56.06 575.13 56.08 575.13 56.1 575.13 56.12 575.13 56.14 575.13 56.16 575.13 56.18 575.13 56.2 575.12 56.22 575.12 56.24 575.11 56.27 575.1 56.29 575.1 56.31 575.09 56.32 575.09 56.34 575.08 56.36 575.08 56.38 575.07 56.4 575.06 56.41 575.05 56.43 575.04 56.45 575.01 56.47 574.99 56.48 574.96 56.5 574.94 56.51 574.9 56.55 574.84 56.58 574.82 56.59 574.8 56.6 574.78 56.62 574.76 56.63 574.74 56.64 574.71 56.67 574.69 56.68 574.68 56.7 574.66 56.73 574.65 56.75 574.65 56.76 574.64 56.76 574.64 56.78 574.64 56.8 574.64 56.82 574.64 56.85 574.61 56.92 574.6 56.96 574.6 56.99 574.59 57.01 574.58 57.07 574.58 57.11 574.58 57.13 574.58 57.15 574.59 57.15 574.59 57.18 574.6 57.19 574.6 57.21 574.61 57.22 574.62 57.24 574.63 57.25 574.64 57.27 574.65 57.29 574.66 57.3 574.69 57.35 574.7 57.37 574.7 57.39 574.7 57.41 574.7 57.43 574.7 57.45 574.71 57.52 574.72 57.54 574.69 57.65 574.68 57.69 574.65 57.75 574.63 57.79 574.62 57.81 574.6 57.85 574.58 57.87 574.57 57.88 574.56 57.89 574.55 57.9 574.5 57.95 574.49 57.97 574.48 57.99 574.47 58.01 574.45 58.03 574.44 58.03 574.43 58.04 574.41 58.05 574.38 58.13 574.38 58.14 574.37 58.17 574.36 58.19 574.35 58.2 574.33 58.22 574.3 58.25 574.22 58.27 574.2 58.31 574.19 58.34 574.15 58.45 574.14 58.47 574.15 58.49 574.14 58.51 574.13 58.53 574.11 58.54 574.09 58.54 574.07 58.54 574.04 58.53 574.02 58.51 574 58.5 573.98 58.49 573.96 58.49 573.94 58.49 573.92 58.51 573.91 58.52 573.91 58.55 573.92 58.58 573.94 58.61 573.95 58.63 573.96 58.64 573.88 58.72 573.86 58.73 573.85 58.73 573.81 58.72 573.79 58.72 573.75 58.72 573.64 58.73 573.63 58.74 573.59 58.76 573.57 58.76 573.56 58.76 573.55 58.76 573.54 58.76 573.53 58.77 573.52 58.77 573.51 58.78 573.49 58.79 573.48 58.8 573.47 58.81 573.46 58.82 573.45 58.83 573.44 58.84 573.43 58.85 573.42 58.87 573.41 58.88 573.4 58.89 573.38 58.9 573.37 58.91 573.36 58.92 573.35 58.93 573.34 58.93 573.33 58.94 573.32 58.95 573.31 58.96 573.3 58.97 573.28 58.98 573.27 58.99 573.26 59 573.23 59.01 573.21 59.02 573.2 59.02 573.19 59.03 573.17 59.05 573.15 59.07 573.14 59.08 573.12 59.09 573.11 59.1 573.1 59.11 573.08 59.12 573.07 59.12 573.05 59.13 573.04 59.14 573.02 59.14 573.01 59.15 573 59.16 572.99 59.16 572.97 59.17 572.96 59.18 572.95 59.18 572.94 59.19 572.93 59.2 572.92 59.21 572.91 59.22 572.9 59.22 572.88 59.24 572.87 59.3 572.87 59.31 572.87 59.34 572.85 59.39 572.84 59.44 572.82 59.49 572.81 59.54 572.78 59.6 572.79 59.61 572.81 59.65 572.83 59.7 572.84 59.76 572.85 59.77 572.87 59.84 572.89 59.88 572.89 59.88 572.88 59.89 572.86 59.89 572.85 59.89 572.83 59.89 572.81 59.9 572.79 59.9 572.78 59.9 572.76 59.91 572.74 59.91 572.72 59.91 572.7 59.92 572.68 59.92 572.67 59.93 572.65 59.93 572.63 59.94 572.61 59.94 572.58 59.95 572.56 59.96 572.54 59.96 572.52 59.97 572.5 59.97 572.48 59.98 572.46 59.98 572.44 59.98 572.42 59.99 572.4 59.99 572.39 59.99 572.37 60 572.35 60 572.33 60 572.32 60 572.3 60 572.28 60 572.27 60.01 572.25 60.01 572.23 60.01 572.22 60.01 572.2 60.01 572.19 60.01 572.17 60.01 571.99 60.03 571.78 60.18 571.79 60.21 571.89 60.25 571.92 60.26 571.94 60.27 571.95 60.29 571.96 60.3 571.97 60.31 571.98 60.33 571.98 60.35 571.98 60.36 571.98 60.39 571.98 60.41 571.98 60.43 571.98 60.45 571.99 60.47 572.1 60.61 572.12 60.63 572.13 60.64 572.14 60.66 572.16 60.67 572.18 60.69 572.2 60.7 572.21 60.72 572.26 60.76 572.28 60.77 572.32 60.79 572.34 60.81 572.37 60.83 572.4 60.84 572.42 60.85 572.43 60.86 572.45 60.93 572.46 60.97 572.59 61.01 572.57 61.03 572.54 61.07 572.51 61.12 572.49 61.16 572.46 61.21 572.45 61.23 572.44 61.25 572.39 61.32 572.33 61.4 572.28 61.48 572.23 61.56 572.19 61.63 572.15 61.69 572.14 61.7 572.12 61.76 572.1 61.8 572.08 61.82 572.06 61.83 572.04 61.85 572.01 61.87 572 61.89 571.99 61.92 571.98 61.97 571.98 62.02 571.97 62.07 571.96 62.09 571.95 62.1 571.96 62.13 571.97 62.15 571.97 62.17 571.97 62.19 571.98 62.2 571.99 62.21 572.01 62.21 572.04 62.21 572.09 62.21 572.14 62.2 572.19 62.2 572.25 62.2 572.34 62.19 572.37 62.19 572.42 62.19 572.49 62.18 572.55 62.18 572.6 62.17 572.64 62.17 572.67 62.17 572.72 62.16 572.75 62.16 572.79 62.15 572.83 62.15 572.86 62.14 572.88 62.12 572.92 62.11 572.99 62.08 573.1 62.03 573.18 62 573.24 61.95 573.31 61.86 573.4 61.97 573.31 62.29 573.32 62.29 573.35 62.29 573.36 62.29 573.46 62.67 573.47 62.7 573.48 62.73 573.49 62.75 573.49 62.78 573.5 62.8 573.5 62.81 573.53 62.98 573.4 63.2 573.27 63.15 573.08 63.09 572.95 63.05 572.84 63.01 572.79 63 572.73 63 572.72 63 572.71 63.05 572.7 63.1 572.7 63.12 572.7 63.14 572.7 63.17 572.69 63.24 572.69 63.25 572.63 63.41 572.61 63.41 572.59 63.41 572.57 63.41 572.55 63.42 572.53 63.43 572.52 63.44 572.51 63.45 572.51 63.47 572.5 63.47 572.5 63.55 572.5 63.58 572.49 63.61 572.49 63.63 572.49 63.66 572.49 63.68 572.48 63.7 572.48 63.73 572.47 63.75 572.47 63.76 572.46 63.78 572.46 63.8 572.46 63.81 572.44 63.84 572.41 63.82 572.38 63.8 572.34 63.77 572.31 63.75 572.29 63.73 572.28 63.73 572.26 63.72 572.24 63.7 572.22 63.7 572.2 63.69 572.18 63.69 572.17 63.69 572.15 63.69 572.13 63.69 572.11 63.69 572.08 63.69 572.05 63.69 572.02 63.69 572 63.69 571.97 63.7 571.93 63.7 571.85 63.7 571.8 63.7 571.75 63.71 571.73 63.71 571.71 63.7 571.67 63.71 571.66 63.72 571.64 63.72 571.63 63.72 571.46 63.77 571.45 63.77 571.43 63.78 571.46 63.81 571.49 63.84 571.55 63.89 571.59 63.93 571.62 63.96 571.66 64.01 571.72 64.09 571.75 64.14 571.78 64.18 571.83 64.23 571.86 64.26 571.88 64.28 571.92 64.32 571.98 64.38 572.04 64.44 572.06 64.46 572.08 64.48 572.11 64.51 572.06 64.6 572.01 64.66 571.87 64.61 571.55 64.49 571.3 64.37 571.08 64.31 570.83 64.28 570.62 64.22 570.47 64.16 570.34 64.11 570.33 64.2 570.33 64.29 570.33 64.34 570.33 64.37 570.33 64.42 570.34 64.43 570.34 64.45 570.35 64.47 570.35 64.48 570.36 64.5 570.36 64.5 570.37 64.52 570.37 64.53 570.36 64.55 570.36 64.57 570.35 64.59 570.35 64.62 570.35 64.65 570.35 64.67 570.33 64.67 570.31 64.67 570.27 64.68 570.23 64.68 570.2 64.67 570.17 64.67 570.15 64.67 570.13 64.68 570.1 64.69 570 64.73 569.94 64.75 569.82 64.76 569.78 64.76 569.77 64.76 569.77 64.77 569.77 64.78 569.78 64.79 569.78 64.8 569.78 64.81 569.77 64.82 569.75 64.82 569.74 64.83 569.73 64.84 569.71 64.84 569.68 64.85 569.65 64.85 569.63 64.85 569.62 64.85 569.58 64.86 569.55 64.86 569.53 64.87 569.52 64.87 569.5 64.88 569.48 64.9 569.46 64.91 569.44 64.92 569.41 64.92 569.4 64.94 569.37 64.96 569.35 64.98 569.33 64.99 569.3 65 569.26 65.01 569.21 65.04 569.16 65.09 569.12 65.13 569.11 65.16 569.08 65.21 569.06 65.26 569.05 65.28 569.02 65.31 569 65.33 568.98 65.34 568.94 65.35 568.91 65.38 568.89 65.41 568.89 65.42 568.89 65.43 568.88 65.44 568.86 65.46 568.83 65.46 568.81 65.46 568.8 65.47 568.78 65.49 568.78 65.49 568.74 65.52 568.69 65.53 568.68 65.52 568.66 65.52 568.65 65.51 568.63 65.51 568.62 65.51 568.61 65.53 568.53 65.59 568.52 65.61 568.5 65.63 568.47 65.64 568.31 65.71 568.27 65.73 568.23 65.74 568.16 65.75 568.12 65.76 568.09 65.76 568.05 65.76 568.03 65.77 568 65.79 567.96 65.81 567.92 65.82 567.88 65.83 567.84 65.83 567.81 65.83 567.8 65.84 567.79 65.85 567.78 65.86 567.77 65.87 567.76 65.89 567.75 65.9 567.74 65.9 567.73 65.9 567.72 65.9 567.71 65.9 567.7 65.91 567.69 65.92 567.68 65.93 567.65 65.99 567.62 66.03 567.6 66.06 567.59 66.09 567.59 66.11 567.59 66.13 567.58 66.13 567.57 66.14 567.56 66.14 567.52 66.17 567.5 66.17 567.48 66.18 567.47 66.18 567.45 66.19 567.43 66.2 567.42 66.22 567.39 66.25 567.36 66.31 567.33 66.35 567.32 66.37 567.31 66.38 567.3 66.36 567.28 66.35 567.24 66.35 567.21 66.35 567.18 66.34 567.15 66.34 567.13 66.35 567.11 66.34 567.06 66.34 567.02 66.34 567 66.33 566.96 66.33 566.94 66.31 566.91 66.3 566.89 66.3 566.87 66.29 566.84 66.29 566.81 66.28 566.78 66.27 566.76 66.27 566.74 66.26 566.74 66.27 566.74 66.29 566.75 66.34 566.75 66.36 566.74 66.39 566.74 66.44 566.74 66.47 566.74 66.5 566.73 66.53 566.72 66.56 566.73 66.58 566.75 66.6 566.77 66.61 566.79 66.63 566.79 66.67 566.79 66.71 566.77 66.79 566.75 66.84 566.73 66.87 566.72 66.88 566.7 66.89 566.66 66.9 566.64 66.91 566.63 66.91 566.57 66.92 566.55 66.93 566.51 66.94 566.48 66.95 566.43 66.98 566.35 67.02 566.34 67.04 566.3 67.05 566.27 67.07 566.17 67.12 566.13 67.15 566.1 67.17 566.09 67.2 566.07 67.26 566.06 67.36 566.05 67.38 566.04 67.43 566.02 67.47 566.01 67.51 566 67.53 565.99 67.56 565.98 67.57 565.97 67.59 565.93 67.7 565.91 67.74 565.88 67.81 565.87 67.83 565.86 67.84 565.85 67.86 565.83 67.89 565.82 67.91 565.8 67.93 565.77 67.98 565.76 67.99 565.75 68 565.72 68.02 565.71 68.05 565.69 68.07 565.66 68.09 565.64 68.13 565.62 68.14 565.58 68.15 565.57 68.13 565.52 68.06 565.51 68.03 565.49 68.01 565.47 67.99 565.46 67.98 565.44 67.96 565.43 67.95 565.42 67.92 565.39 67.84 565.38 67.81 565.36 67.79 565.32 67.78 565.32 67.77 565.32 67.76 565.3 67.75 565.27 67.75 565.26 67.74 565.24 67.73 565.18 67.75 565.16 67.75 565.14 67.75 565.12 67.75 565.1 67.76 565.08 67.77 565.04 67.79 565.02 67.79 565 67.81 564.98 67.82 564.96 67.83 564.95 67.84 564.94 67.85 564.92 67.86 564.89 67.88 564.87 67.89 564.86 67.92 564.85 67.94 564.84 67.97 564.82 67.98 564.82 68.01 564.81 68.02 564.8 68.03 564.79 68.06 564.79 68.07 564.79 68.1 564.78 68.13 564.76 68.13 564.74 68.16 564.72 68.18 564.71 68.2 564.68 68.22 564.64 68.25 564.61 68.25 564.58 68.24 564.56 68.26 564.53 68.28 564.51 68.31 564.44 68.37 564.38 68.41 564.34 68.43 564.3 68.46 564.27 68.49 564.25 68.53 564.24 68.57 564.23 68.59 564.2 68.66 564.18 68.73 564.18 68.82 564.18 68.87 564.19 68.9 564.22 68.94 564.28 69.01 564.31 69.04 564.32 69.07 564.32 69.1 564.31 69.12 564.28 69.15 564.27 69.18 564.26 69.23 564.26 69.29 564.26 69.39 564.25 69.43 564.25 69.46 564.24 69.55 564.23 69.57 564.17 69.58 564.13 69.57 564.09 69.56 564.07 69.55 564.04 69.56 564.01 69.55 563.97 69.56 563.89 69.57 563.85 69.58 563.82 69.58 563.79 69.56 563.76 69.54 563.74 69.5 563.74 69.46 563.73 69.43 563.72 69.4 563.69 69.4 563.66 69.41 563.64 69.44 563.62 69.46 563.6 69.46 563.58 69.46 563.56 69.44 563.53 69.42 563.48 69.39 563.45 69.37 563.42 69.37 563.39 69.38 563.24 69.43 563.23 69.43 563.2 69.44 563.16 69.44 563.12 69.43 563.08 69.42 563.06 69.42 563.02 69.44 562.99 69.45 562.95 69.45 562.92 69.46 562.88 69.46 562.83 69.45 562.76 69.45 562.71 69.46 562.67 69.47 562.64 69.48 562.63 69.5 562.62 69.52 562.6 69.54 562.57 69.56 562.54 69.58 562.52 69.59 562.5 69.61 562.5 69.64 562.5 69.66 562.5 69.69 562.5 69.74 562.48 69.83 562.46 69.89 562.45 69.89 562.43 69.88 562.4 69.88 562.37 69.88 562.34 69.88 562.35 69.92 562.36 70 562.36 70.07 562.35 70.12 562.34 70.15 562.32 70.17 562.3 70.18 562.27 70.2 562.25 70.2 562.22 70.19 562.2 70.18 562.18 70.17 562.15 70.13 562.12 70.09 562.11 70.05 562.09 70.03 562.04 69.97 562 69.95 561.97 69.95 561.96 69.95 561.95 69.95 561.94 69.94 561.91 69.93 561.89 69.92 561.88 69.91 561.86 69.9 561.83 69.89 561.81 69.89 561.74 69.89 561.72 69.89 561.7 69.9 561.67 69.91 561.65 69.91 561.62 69.92 561.59 69.92 561.56 69.94 561.53 69.95 561.51 69.97 561.5 69.99 561.5 70 561.5 70.02 561.51 70.03 561.55 70.04 561.57 70.05 561.59 70.06 561.62 70.07 561.66 70.08 561.7 70.09 561.73 70.11 561.74 70.12 561.75 70.14 561.77 70.18 561.79 70.21 561.8 70.24 561.8 70.27 561.79 70.29 561.79 70.3 561.78 70.31 561.74 70.3 561.69 70.29 561.62 70.26 561.56 70.25 561.49 70.24 561.44 70.23 561.41 70.22 561.36 70.19 561.34 70.17 561.34 70.15 561.35 70.13 561.35 70.11 561.34 70.09 561.32 70.08 561.3 70.08 561.29 70.1 561.28 70.12 561.28 70.14 561.28 70.16 561.25 70.19 561.21 70.22 561.19 70.24 561.16 70.24 561.13 70.24 561.11 70.23 561.09 70.21 561.08 70.19 561.06 70.18 561.03 70.18 561 70.18 560.97 70.19 560.95 70.2 560.94 70.22 560.93 70.24 560.9 70.27 560.9 70.28 560.89 70.3 560.88 70.32 560.88 70.34 560.89 70.37 560.89 70.42 560.88 70.47 560.88 70.5 560.87 70.54 560.85 70.56 560.83 70.57 560.81 70.57 560.77 70.58 560.74 70.59 560.71 70.61 560.71 70.62 560.7 70.64 560.71 70.67 560.72 70.69 560.72 70.71 560.71 70.73 560.7 70.74 560.66 70.77 560.65 70.78 560.63 70.82 560.61 70.84 560.6 70.87 560.59 70.9 560.58 70.93 560.56 70.96 560.56 70.98 560.56 71 560.55 71.03 560.53 71.07 560.51 71.1 560.51 71.13 560.49 71.15 560.47 71.15 560.45 71.15 560.44 71.13 560.43 71.12 560.42 71.1 560.41 71.09 560.41 71.07 560.4 71.06 560.4 71.04 560.39 71.02 560.38 71 560.36 71 560.34 71 560.31 70.99 560.29 70.99 560.29 71 560.29 71.02 560.29 71.04 560.31 71.06 560.32 71.08 560.34 71.11 560.35 71.14 560.36 71.15 560.36 71.17 560.36 71.19 560.35 71.2 560.34 71.22 560.32 71.23 560.29 71.22 560.27 71.21 560.25 71.18 560.23 71.15 560.23 71.14 560.22 71.14 560.21 71.13 560.2 71.14 560.19 71.16 560.17 71.19 560.16 71.22 560.16 71.24 560.16 71.26 560.17 71.27 560.18 71.27 560.2 71.27 560.22 71.28 560.25 71.31 560.27 71.33 560.28 71.37 560.3 71.4 560.32 71.43 560.32 71.46 560.32 71.49 560.32 71.5 560.31 71.52 560.3 71.54 560.29 71.57 560.29 71.58 560.29 71.62 560.28 71.65 560.27 71.67 560.26 71.69 560.26 71.72 560.26 71.73 560.26 71.75 560.26 71.76 560.24 71.79 560.22 71.82 560.2 71.83 560.18 71.84 560.15 71.84 560.11 71.83 560.06 71.82 560.02 71.82 560 71.82 559.97 71.83 559.92 71.84 559.88 71.85 559.84 71.86 559.81 71.86 559.78 71.86 559.77 71.86 559.73 71.82 559.7 71.8 559.68 71.77 559.67 71.74 559.66 71.72 559.65 71.71 559.64 71.7 559.63 71.7 559.61 71.71 559.6 71.72 559.58 71.74 559.57 71.76 559.55 71.79 559.53 71.8 559.51 71.8 559.48 71.81 559.43 71.81 559.39 71.82 559.34 71.83 559.32 71.84 559.31 71.82 559.32 71.8 559.32 71.78 559.34 71.76 559.35 71.74 559.36 71.7 559.38 71.65 559.39 71.62 559.38 71.61 559.35 71.59 559.33 71.58 559.31 71.57 559.3 71.57 559.28 71.6 559.26 71.61 559.24 71.61 559.22 71.62 559.16 71.63 559.14 71.66 559.1 71.69 559.08 71.71 559.07 71.7 559.07 71.69 559.09 71.62 559.09 71.61 559.1 71.6 559.12 71.61 559.13 71.61 559.14 71.6 559.14 71.6 559.15 71.61 559.16 71.61 559.16 71.6 559.15 71.57 559.14 71.56 559.14 71.55 559.13 71.54 559.08 71.47 559.06 71.45 559.04 71.46 559.04 71.47 559.05 71.49 559.04 71.5 559.04 71.52 559.03 71.54 559.04 71.58 559.05 71.6 559.04 71.61 559.03 71.61 559.01 71.62 558.99 71.62 558.97 71.6 558.94 71.59 558.91 71.59 558.87 71.58 558.85 71.58 558.85 71.57 558.85 71.55 558.86 71.54 558.88 71.53 558.89 71.51 558.88 71.49 558.86 71.47 558.85 71.46 558.83 71.45 558.81 71.46 558.79 71.47 558.78 71.49 558.78 71.52 558.77 71.55 558.76 71.56 558.73 71.57 558.72 71.59 558.7 71.61 558.68 71.62 558.66 71.61 558.64 71.6 558.62 71.59 558.59 71.57 558.58 71.55 558.55 71.54 558.53 71.55 558.51 71.54 558.5 71.53 558.47 71.51 558.45 71.51 558.43 71.5 558.4 71.49 558.37 71.49 558.35 71.48 558.33 71.47 558.3 71.46 558.27 71.46 558.24 71.44 558.23 71.43 558.23 71.41 558.24 71.39 558.23 71.37 558.21 71.36 558.17 71.36 558.16 71.36 558.14 71.37 558.14 71.39 558.13 71.42 558.12 71.43 558.1 71.45 558.09 71.47 558.08 71.49 558.09 71.51 558.09 71.53 558.09 71.55 558.1 71.57 558.09 71.59 558.09 71.62 558.1 71.64 558.11 71.66 558.12 71.68 558.12 71.71 558.11 71.73 558.09 71.76 558.08 71.78 558.07 71.8 558.06 71.82 558.05 71.82 558.04 71.83 558.03 71.86 558.01 71.86 557.99 71.85 557.97 71.86 557.96 71.87 557.94 71.87 557.93 71.89 557.93 71.92 557.93 71.93 557.92 71.94 557.89 71.95 557.87 71.95 557.86 71.97 557.86 71.99 557.85 72.01 557.83 72.03 557.82 72.05 557.8 72.07 557.79 72.08 557.75 72.1 557.73 72.12 557.71 72.14 557.69 72.16 557.68 72.19 557.67 72.21 557.67 72.23 557.66 72.26 557.66 72.28 557.65 72.3 557.63 72.32 557.61 72.33 557.6 72.35 557.57 72.37 557.56 72.38 557.54 72.4 557.53 72.42 557.52 72.44 557.51 72.45 557.5 72.47 557.48 72.49 557.47 72.51 557.47 72.53 557.45 72.54 557.43 72.53 557.41 72.53 557.39 72.53 557.33 72.54 557.31 72.53 557.29 72.51 557.29 72.48 557.28 72.46 557.27 72.44 557.25 72.43 557.23 72.42 557.21 72.37 557.19 72.36 557.17 72.34 557.16 72.32 557.16 72.29 557.17 72.27 557.17 72.25 557.15 72.23 557.13 72.22 557.11 72.2 557.09 72.18 557.09 72.15 557.11 72.14 557.11 72.11 557.11 72.08 557.09 72.07 557.07 72.04 557.05 72.03 557.01 72.02 556.99 72.01 556.96 72.01 556.94 72 556.93 72.01 556.91 72.03 556.89 72.05 556.87 72.08 556.86 72.08 556.83 72.09 556.82 72.09 556.78 72.1 556.76 72.1 556.73 72.1 556.72 72.1 556.69 72.1 556.67 72.11 556.65 72.11 556.64 72.12 556.64 72.13 556.61 72.16 556.6 72.17 556.58 72.18 556.57 72.2 556.57 72.21 556.57 72.23 556.56 72.24 556.56 72.25 556.55 72.26 556.54 72.27 556.53 72.29 556.53 72.3 556.53 72.33 556.53 72.35 556.53 72.37 556.53 72.39 556.52 72.41 556.51 72.43 556.5 72.44 556.49 72.47 556.49 72.48 556.48 72.5 556.47 72.51 556.46 72.53 556.45 72.55 556.43 72.58 556.42 72.59 556.41 72.6 556.4 72.62 556.41 72.63 556.41 72.65 556.41 72.67 556.41 72.69 556.4 72.71 556.39 72.71 556.37 72.74 556.37 72.75 556.36 72.77 556.36 72.78 556.37 72.79 556.38 72.8 556.39 72.79 556.4 72.79 556.41 72.8 556.42 72.81 556.42 72.82 556.42 72.84 556.43 72.87 556.43 72.9 556.44 72.91 556.45 72.92 556.46 72.92 556.47 72.93 556.48 72.95 556.49 72.96 556.49 72.97 556.49 73.01 556.48 73.05 556.48 73.07 556.48 73.1 556.48 73.13 556.48 73.15 556.48 73.17 556.47 73.18 556.46 73.2 556.45 73.21 556.44 73.22 556.43 73.22 556.42 73.23 556.46 73.23 556.47 73.24 556.47 73.25 556.47 73.26 556.46 73.27 556.44 73.27 556.43 73.27 556.42 73.28 556.42 73.29 556.43 73.31 556.43 73.33 556.44 73.34 556.44 73.36 556.43 73.37 556.43 73.38 556.41 73.39 556.4 73.41 556.39 73.42 556.38 73.43 556.37 73.44 556.36 73.45 556.34 73.46 556.33 73.47 556.32 73.49 556.32 73.5 556.32 73.52 556.32 73.53 556.33 73.54 556.35 73.56 556.35 73.57 556.36 73.59 556.36 73.63 556.36 73.66 556.36 73.67 556.35 73.69 556.33 73.7 556.32 73.71 556.31 73.73 556.29 73.75 556.28 73.76 556.28 73.76 556.27 73.78 556.27 73.8 556.26 73.82 556.24 73.85 556.23 73.86 556.21 73.88 556.2 73.88 556.19 73.89 556.18 73.9 556.17 73.91 556.17 73.92 556.18 73.93 556.18 73.94 556.19 73.94 556.2 73.94 556.21 73.95 556.22 73.96 556.22 73.97 556.22 73.98 556.22 73.99 556.21 74 556.2 74.01 556.18 74.01 556.17 74.01 556.13 74.02 556.11 74.01 556.07 74.01 556.04 74.01 556.02 74.01 556.01 74.01 555.99 74.01 555.97 74.01 555.95 74.01 555.93 74 555.91 73.99 555.89 73.99 555.88 73.99 555.86 73.97 555.83 73.97 555.78 73.97 555.77 73.96 555.74 73.96 555.72 73.97 555.71 73.97 555.7 73.97 555.68 73.97 555.66 73.97 555.65 73.96 555.64 73.95 555.63 73.94 555.63 73.93 555.61 73.92 555.6 73.91 555.61 73.84 555.57 73.75 555.52 73.65 555.51 73.62 555.5 73.6 555.49 73.59 555.44 73.48 555.38 73.35 555.08 72.68 554.76 71.98 554.62 71.66 554.52 71.44 554.49 71.37 554.37 71.11 554.28 70.91 554.22 70.79 554.03 70.35 553.95 70.18 553.67 69.53 553.35 68.82 553.33 68.77 553.16 68.51 553.09 68.48 553.02 68.43 552.98 68.4 552.92 68.37 552.88 68.34 552.83 68.3 552.78 68.27 552.74 68.24 552.71 68.22 552.67 68.17 552.67 68.14 552.67 68.09 552.67 68.07 552.66 68.01 552.64 67.97 552.62 67.9 552.62 67.83 552.61 67.75 552.61 67.71 552.59 67.67 552.56 67.63 552.53 67.61 552.46 67.59 552.43 67.59 552.4 67.6 552.36 67.61 552.33 67.62 552.29 67.62 552.26 67.64 552.23 67.64 552.19 67.63 552.14 67.64 552.1 67.64 552.06 67.62 552.03 67.62 551.98 67.63 551.95 67.62 551.9 67.62 551.87 67.63 551.82 67.61 551.77 67.62 551.73 67.63 551.69 67.64 551.66 67.63 551.63 67.61 551.6 67.59 551.56 67.59 551.53 67.61 551.5 67.63 551.46 67.65 551.43 67.65 551.4 67.63 551.37 67.61 551.33 67.58 551.3 67.55 551.27 67.52 551.24 67.51 551.23 67.45 551.21 67.42 551.19 67.37 551.15 67.33 551.13 67.28 551.11 67.24 551.06 67.18 551.03 67.15 550.99 67.11 550.95 67.06 550.92 67.02 550.92 66.98 550.91 66.94 550.89 66.88 550.87 66.84 550.83 66.78 550.8 66.72 550.79 66.65 550.77 66.6 550.76 66.55 550.76 66.48 550.77 66.46 550.81 66.42 550.83 66.38 550.83 66.34 550.81 66.31 550.76 66.27 550.7 66.23 550.61 66.17 550.6 66.13 550.59 66.08 550.59 66.03 550.61 65.98 550.63 65.95 550.66 65.92 550.69 65.9 550.72 65.86 550.74 65.82 550.74 65.8 550.74 65.77 550.74 65.72 550.73 65.67 550.71 65.63 550.7 65.58 550.68 65.53 550.67 65.51 550.66 65.5 550.65 65.48 550.64 65.47 550.64 65.45 550.66 65.45 550.68 65.46 550.71 65.49 550.72 65.48 550.73 65.48 550.74 65.47 550.73 65.45 550.73 65.42 550.72 65.38 550.72 65.36 550.7 65.35 550.68 65.34 550.68 65.32 550.68 65.3 550.68 65.28 550.69 65.26 550.7 65.25 550.71 65.24 550.72 65.23 550.73 65.22 550.74 65.22 550.74 65.2 550.73 65.19 550.73 65.17 550.74 65.15 550.74 65.13 550.75 65.11 550.75 65.1 550.74 65.09 550.73 65.08 550.72 65.07 550.71 65.06 550.7 65.04 550.68 65 550.66 64.99 550.64 64.97 550.63 64.95 550.63 64.93 550.62 64.9 550.62 64.88 550.62 64.85 550.62 64.83 550.61 64.81 550.62 64.79 550.62 64.75 550.63 64.73 550.63 64.69 550.64 64.68 550.64 64.66 550.65 64.65 550.65 64.63 550.65 64.61 550.64 64.59 550.63 64.58 550.62 64.57 550.61 64.55 550.61 64.53 550.63 64.52 550.66 64.51 550.66 64.5 550.67 64.48 550.66 64.46 550.66 64.43 550.65 64.41 550.65 64.39 550.64 64.38 550.62 64.36 550.61 64.35 550.61 64.34 550.62 64.32 550.62 64.31 550.64 64.3 550.65 64.3 550.67 64.3 550.69 64.3 550.7 64.3 550.71 64.29 550.73 64.27 550.73 64.25 550.74 64.22 550.75 64.21 550.75 64.19 550.76 64.18 550.77 64.15 550.78 64.13 550.79 64.12 550.79 64.1 550.8 64.09 550.79 64.07 550.79 64.05 550.79 64.03 550.79 64.02 550.8 64.01 550.81 64 550.82 63.98 550.82 63.96 550.83 63.94 550.84 63.91 550.85 63.89 550.86 63.86 550.86 63.84 550.85 63.82 550.83 63.79 550.83 63.77 550.8 63.75 550.79 63.74 550.78 63.73 550.76 63.7 550.77 63.69 550.79 63.67 550.83 63.67 550.88 63.65 550.9 63.64 550.9 63.63 550.9 63.6 550.91 63.58 550.92 63.55 550.94 63.52 550.94 63.5 550.94 63.48 550.93 63.46 550.92 63.43 550.92 63.41 550.93 63.38 550.93 63.36 550.94 63.34 550.95 63.31 550.95 63.3 550.94 63.27 550.95 63.25 550.96 63.23 550.97 63.19 550.97 63.18 550.96 63.15 550.96 63.11 550.95 63.09 550.94 63.07 550.94 63.05 550.93 63.04 550.91 63.03 550.9 63 550.89 62.97 550.88 62.95 550.86 62.94 550.84 62.92 550.84 62.9 550.83 62.88 550.81 62.86 550.8 62.8 550.79 62.78 550.78 62.75 550.76 62.73 550.74 62.72 550.72 62.7 550.71 62.68 550.7 62.66 550.68 62.62 550.68 62.6 550.68 62.58 550.7 62.56 550.71 62.55 550.73 62.56 550.75 62.57 550.76 62.57 550.77 62.55 550.76 62.51 550.76 62.48 550.75 62.44 550.75 62.4 550.74 62.36 550.74 62.32 550.74 62.3 550.75 62.28 550.76 62.25 550.77 62.25 550.78 62.24 550.79 62.22 550.79 62.19 550.8 62.17 550.81 62.14 550.83 62.11 550.83 62.09 550.83 62.06 550.83 62.04 550.83 62.01 550.84 61.98 550.84 61.96 550.85 61.93 550.85 61.9 550.85 61.88 550.85 61.85 550.85 61.82 550.86 61.8 550.88 61.79 550.91 61.79 550.94 61.78 550.97 61.77 550.99 61.75 551.03 61.69 551.05 61.67 551.08 61.65 551.11 61.63 551.14 61.6 551.14 61.57 551.12 61.55 551.08 61.54 551.04 61.54 551.02 61.52 551.01 61.49 551.02 61.47 551.05 61.43 551.08 61.41 551.11 61.38 551.12 61.35 551.11 61.34 551.09 61.35 551.07 61.36 551.03 61.36 551.01 61.36 550.99 61.33 551 61.31 551.02 61.28 551.04 61.26 551.07 61.23 551.09 61.2 551.09 61.17 551.09 61.15 551.06 61.12 551.04 61.1 551.05 61.08 551.07 61.06 551.09 61.04 551.09 61.01 551.08 60.99 551.06 60.95 551.05 60.91 551.07 60.89 551.1 60.87 551.14 60.86 551.16 60.84 551.16 60.82 551.14 60.8 551.11 60.8 551.08 60.81 551.06 60.83 551.06 60.85 551.03 60.85 551 60.85 550.98 60.84 550.96 60.83 550.94 60.8 550.95 60.78 550.97 60.77 551 60.77 551.03 60.77 551.06 60.76 551.07 60.74 551.08 60.71 551.08 60.69 551.06 60.67 551.03 60.66 551 60.65 550.97 60.65 550.96 60.65 550.96 60.62 550.96 60.6 550.95 60.57 550.95 60.55 550.96 60.52 550.98 60.5 551 60.48 551 60.45 550.99 60.44 550.97 60.43 550.98 60.41 550.98 60.38 550.99 60.35 551.02 60.34 551.04 60.33 551.06 60.32 551.08 60.32 551.1 60.3 551.11 60.28 551.14 60.26 551.14 60.23 551.11 60.22 551.08 60.21 551.06 60.21 551.04 60.21 551.02 60.19 551.01 60.17 551 60.11 551 60.05 551.01 60.04 551.04 60.04 551.06 60.01 551.08 60 551.09 59.98 551.14 59.97 551.2 59.99 551.21 59.99 551.23 59.98 551.23 59.96 551.22 59.94 551.23 59.9 551.23 59.88 551.23 59.87 551.23 59.85 551.2 59.84 551.15 59.82 551.14 59.8 551.16 59.77 551.23 59.73 551.27 59.7 551.3 59.66 551.31 59.63 551.28 59.6 551.23 59.58 551.19 59.56 551.18 59.53 551.2 59.5 551.23 59.45 551.26 59.41 551.27 59.37 551.25 59.34 551.21 59.33 551.18 59.33 551.13 59.35 551.11 59.34 551.09 59.31 551.07 59.28 551.03 59.29 550.99 59.28 550.96 59.26 550.95 59.22 550.92 59.19 550.89 59.18 550.87 59.13 550.88 59.09 550.86 59.06 550.83 59.03 550.81 59.01 550.82 58.94 550.81 58.92 550.85 58.91 550.87 58.9 550.89 58.89 550.92 58.89 550.93 58.87 550.95 58.86 550.98 58.85 551.01 58.85 551.04 58.84 551.09 58.82 551.15 58.79 551.18 58.78 551.2 58.77 551.26 58.77 551.35 58.76 551.38 58.75 551.41 58.75 551.44 58.73 551.47 58.72 551.5 58.71 551.53 58.71 551.59 58.72 551.62 58.72 551.64 58.71 551.67 58.7 551.74 58.68 551.76 58.66 551.78 58.65 551.83 58.63 551.86 58.62 551.89 58.61 551.92 58.6 551.95 58.6 551.97 58.6 551.99 58.59 552.02 58.57 552.04 58.55 552.07 58.54 552.08 58.53 552.1 58.51 552.11 58.5 552.14 58.48 552.17 58.46 552.19 58.46 552.22 58.46 552.24 58.46 552.25 58.46 552.27 58.46 552.29 58.46 552.31 58.46 552.34 58.46 552.36 58.46 552.39 58.46 552.42 58.47 552.45 58.47 552.47 58.48 552.49 58.49 552.51 58.49 552.52 58.49 552.56 58.48 552.57 58.48 552.6 58.47 552.62 58.47 552.64 58.47 552.67 58.46 552.7 58.45 552.73 58.45 552.76 58.45 552.78 58.44 552.79 58.43 552.81 58.43 552.82 58.43 552.83 58.42 552.85 58.42 552.86 58.41 552.87 58.41 552.87 58.39 552.88 58.38 552.9 58.37 552.92 58.37 552.95 58.37 552.97 58.37 552.99 58.37 553.01 58.37 553.03 58.37 553.07 58.36 553.09 58.34 553.11 58.33 553.13 58.31 553.14 58.28 553.16 58.25 553.18 58.2 553.2 58.15 553.22 58.11 553.24 58.06 553.26 58.03 553.28 58.02 553.3 58.01 553.33 57.98 553.34 57.96 553.35 57.92 553.36 57.89 553.37 57.86 553.38 57.82 553.41 57.73 553.42 57.68 553.43 57.62 553.45 57.57 553.46 57.51 553.48 57.47 553.49 57.44 553.5 57.41 553.52 57.38 553.55 57.34 553.57 57.31 553.59 57.27 553.61 57.24 553.73 57.12 553.75 57.11 553.86 57.03 554 56.92 554.02 56.9 554.04 56.88 554.11 56.82 554.21 56.78 554.28 56.73 554.31 56.7 554.32 56.66 554.35 56.61 554.37 56.59 554.39 56.55 554.41 56.52 554.45 56.49 554.49 56.45 554.52 56.43 554.56 56.4 554.59 56.37 554.62 56.36 554.65 56.35 554.67 56.34 554.68 56.33 554.7 56.32 554.72 56.31 554.73 56.29 554.74 56.28 554.75 56.26 554.76 56.24 554.76 56.23 554.77 56.22 554.76 56.2 554.76 56.18 554.77 56.17 554.78 56.15 554.8 56.14 554.81 56.13 554.81 56.11 554.82 56.09 554.83 56.08 554.83 56.07 554.84 56.06 554.85 56.05 554.86 56.04 554.87 56.03 554.89 56.02 554.96 55.96 555.02 55.9 555.04 55.89 555.05 55.87 555.06 55.85 555.07 55.84 555.12 55.82 555.14 55.82 555.16 55.8 555.16 55.79 555.17 55.78 555.17 55.77 555.17 55.75 555.17 55.74 555.16 55.72 555.14 55.71 555.13 55.71 555.12 55.7 555.12 55.69 555.12 55.67 555.13 55.66 555.12 55.64 555.11 55.61 555.11 55.6 555.1 55.59 555.09 55.58 555.08 55.58 555.07 55.58 555.05 55.59 555.04 55.58 555.04 55.57 555.03 55.57 555.03 55.56 555.03 55.55 555.04 55.54 555.06 55.5 555.06 55.49 555.06 55.48 555.06 55.47 555.06 55.46 555.06 55.45 555.05 55.44 555.04 55.44 555.04 55.44 555.02 55.44 555.01 55.44 555 55.41 555 55.39 555 55.36 555 55.35 554.99 55.32 554.99 55.27 554.99 55.25 555 55.23 555 55.21 555 55.19 555 55.17 555 55.13 555 55.07 555 55.05 555 55.01 555 54.99 554.99 54.98 554.99 54.96 554.98 54.94 554.97 54.93 554.96 54.93 554.94 54.91 554.92 54.89 554.9 54.88 554.88 54.87 554.87 54.86 554.87 54.85 554.86 54.84 554.86 54.82 554.86 54.81 554.86 54.79 554.86 54.78 554.86 54.77 554.85 54.75 554.85 54.75 554.84 54.74 554.83 54.73 554.83 54.72 554.82 54.69 554.82 54.65 554.82 54.63 554.82 54.62 554.82 54.6 554.82 54.58 554.82 54.58 554.82 54.56 554.82 54.54 554.83 54.53 554.83 54.52 554.84 54.5 554.84 54.48 554.84 54.47 554.84 54.46 554.84 54.45 554.84 54.43 554.83 54.41 554.83 54.4 554.82 54.37 554.82 54.36 554.81 54.35 554.81 54.34 554.77 54.27 554.75 54.22 554.75 54.21 554.75 54.2 554.74 54.19 554.73 54.18 554.72 54.18 554.7 54.18 554.69 54.18 554.69 54.17 554.68 54.16 554.68 54.13 554.68 54.12 554.68 54.1 554.68 54.09 554.67 54.08 554.67 54.08 554.65 54.05 554.65 54.03 554.66 54.02 554.66 54.01 554.67 54 554.67 53.99 554.68 53.98 554.68 53.97 554.68 53.96 554.68 53.94 554.67 53.91 554.66 53.88 554.64 53.84 554.64 53.83 554.64 53.81 554.64 53.79 554.64 53.77 555.45 53.67 555.84 53.63 555.87 53.63 555.95 53.62 556.15 53.58 556.26 53.56 556.36 53.55 556.73 53.52 556.86 53.49 557.06 53.45 557.37 53.04 557.39 53 557.55 52.79 557.97 52.22 558.01 52.22 558.09 52.21 558.12 52.18 558.22 52.11 558.33 51.98 558.42 51.89 558.45 51.86 558.46 51.84 558.48 51.86 558.51 51.9 558.52 51.93 558.53 51.95 558.54 51.99 558.53 52.02 558.53 52.04 558.57 52.04 558.61 52.04 558.71 52.04 558.84 52.04 558.95 52.03 559 52.04 559.05 52.04 559.11 52.04 559.17 52.03 559.25 52.02 559.32 52.03 559.38 52.04 559.41 52.05 559.46 52.06 559.5 52.06 559.55 52.07 559.57 52.07 559.6 52.07 559.66 52.06 559.7 52.04 559.73 52.03 559.75 52.03 559.77 52.03 559.78 52.02 559.8 52.01 559.83 52 559.86 51.98 559.88 51.95 559.89 51.93 559.91 51.9 559.92 51.86 559.93 51.84 559.94 51.83 559.94 51.8 559.93 51.75 559.91 51.71 559.89 51.67 559.88 51.57 559.86 51.49 559.86 51.45 559.86 51.42 559.86 51.38 559.86 51.34 559.86 51.3 559.86 51.25 559.86 51.22 559.86 51.21 559.87 51.2 559.88 51.17 559.89 51.14 559.9 51.13 559.91 51.11 559.91 51.08 559.91 51.05 559.91 51.02 559.92 51 559.93 50.97 559.93 50.95 559.92 50.94 559.91 50.92 559.91 50.91 559.91 50.9 559.92 50.89 559.94 50.87 559.96 50.87 559.98 50.86 559.99 50.86 560 50.84 560 50.83 560.01 50.81 560.02 50.79 560.04 50.77 560.06 50.76 560.07 50.76 560.09 50.76 560.12 50.76 560.13 50.76 560.14 50.74 560.14 50.72 560.12 50.68 560.12 50.66 560.12 50.65 560.13 50.63 560.15 50.62 560.18 50.62 560.2 50.61 560.22 50.58 560.23 50.55 560.23 50.53 560.24 50.51 560.25 50.49 560.24 50.48 560.23 50.46 560.23 50.44 560.23 50.43 560.22 50.41 560.23 50.39 560.24 50.37 560.25 50.35 560.26 50.34 560.28 50.33 560.29 50.31 560.29 50.29 560.3 50.27 560.31 50.25 560.32 50.24 560.35 50.22 560.36 50.21 560.37 50.18 560.37 50.14 560.38 50.13 560.39 50.11 560.39 50.11 560.4 50.09 560.4 50.06 560.4 50.03 560.4 49.99 560.41 49.97 560.42 49.95 560.43 49.91 560.44 49.88 560.44 49.86 560.44 49.84 560.45 49.83 560.45 49.81 560.44 49.79 560.43 49.77 560.42 49.77 560.41 49.75 560.4 49.72 560.4 49.69 560.4 49.66 560.4 49.63 560.41 49.61 560.43 49.6 560.44 49.58 560.45 49.55 560.46 49.52 560.47 49.49 560.47 49.47 560.48 49.43 560.48 49.41 560.49 49.4 560.5 49.39 560.53 49.39 560.55 49.39 560.56 49.38 560.57 49.37 560.57 49.35 560.57 49.32 560.57 49.3 560.58 49.28 560.59 49.25 560.6 49.23 560.61 49.21 560.62 49.19 560.62 49.16 560.63 49.14 560.64 49.13 560.7 49.08 560.72 49.06 560.74 49.04 560.75 49 560.75 48.97 560.75 48.93 560.75 48.87 560.74 48.82 560.74 48.78 560.73 48.74 560.73 48.71 560.73 48.69 560.72 48.65 560.71 48.6 560.7 48.56 560.69 48.53 560.69 48.51 560.68 48.47 560.67 48.45 560.66 48.41 560.66 48.38 560.66 48.35 560.66 48.31 560.66 48.29 560.68 48.26 560.69 48.24 560.7 48.21 560.72 48.2 560.73 48.18 560.73 48.17 560.72 48.16 560.71 48.15 560.71 48.13 560.73 48.12 560.74 48.1 560.75 48.08 560.77 48.05 560.77 48.03 560.79 48.01 560.8 48 560.81 47.98 560.83 47.97 560.86 47.95 560.88 47.92 560.89 47.9 560.9 47.87 560.89 47.85 560.89 47.84 560.88 47.81 560.88 47.78 560.89 47.76 560.91 47.73 560.91 47.72 560.92 47.68 560.93 47.66 560.95 47.61 560.95 47.59 560.96 47.56 560.98 47.52 560.99 47.49 561 47.47 561.02 47.45 561.05 47.44 561.08 47.43 561.11 47.42 561.14 47.42 561.18 47.41 561.21 47.4 561.24 47.38 561.26 47.36 561.29 47.35 561.32 47.34 561.4 47.31 561.42 47.31 561.45 47.3 561.49 47.3 561.53 47.29 561.55 47.28 561.57 47.28 561.59 47.27 561.62 47.28 561.64 47.29 561.66 47.29 561.68 47.3 561.7 47.3 561.74 47.28 561.75 47.27 561.76 47.26 561.78 47.25 561.8 47.25 561.82 47.25 561.84 47.24 561.9 47.23 561.95 47.21 561.99 47.21 562.01 47.19 562.03 47.17 562.04 47.15 562.05 47.14 562.05 47.13 562.07 47.11 562.08 47.09 562.1 47.08 562.1 47.05 562.1 47.03 562.11 47.01 562.11 46.99 562.12 46.97 562.13 46.94 562.13 46.93 562.13 46.93 562.12 46.91 562.1 46.86 562.09 46.83 562.08 46.81 562.07 46.78 562.07 46.76 562.08 46.73 562.08 46.71 562.07 46.68 562.07 46.63 562.09 46.58 562.1 46.54 562.12 46.49 562.14 46.46 562.15 46.43 562.19 46.4 562.22 46.37 562.25 46.35 562.28 46.33 562.29 46.31 562.31 46.3 562.33 46.29 562.35 46.26 562.35 46.24 562.35 46.21 562.34 46.19 562.34 46.16 562.34 46.14 562.34 46.12 562.38 46.05 562.41 46 562.43 45.97 562.45 45.95 562.48 45.9 562.5 45.86 562.51 45.83 562.51 45.81 562.5 45.78 562.49 45.76 562.49 45.74 562.49 45.72 562.49 45.71 562.49 45.66 562.47 45.57 562.45 45.51 562.45 45.48 562.46 45.47 562.47 45.45 562.5 45.43 562.54 45.39 562.54 45.36 562.54 45.33 562.52 45.31 562.49 45.28 562.44 45.25 562.43 45.23 562.42 45.21 562.43 45.19 562.45 45.17 562.46 45.16 562.47 45.14 562.47 45.12 562.45 45.11 Z"/>
</g></svg>