<svg xmlns="http://www.w3.org/2000/svg" version="1.2" baseProfile="tiny" stroke-linecap="round" stroke-linejoin="round" viewBox="510.53 499.77 49.47 46.18"><g xmlns="http://www.w3.org/2000/svg" id="Valtierra">
<path d="M 549.06 513.16 549.02 513.13 548.97 513.09 548.87 513.03 548.82 513 548.8 512.98 548.79 512.96 548.77 512.93 548.76 512.91 548.75 512.9 548.72 512.84 548.7 512.78 548.69 512.76 548.67 512.72 548.64 512.65 548.59 512.53 548.51 512.31 548.47 512.22 548.46 512.21 548.44 512.15 548.33 511.99 548.31 511.95 548.3 511.95 548.29 511.94 548.25 511.92 548.21 511.9 548.17 511.87 548.14 511.84 548.12 511.79 548.09 511.73 548.09 511.72 548.05 511.65 548.02 511.6 547.99 511.55 547.97 511.5 547.94 511.47 547.91 511.43 547.87 511.4 547.84 511.38 547.81 511.37 547.77 511.36 547.74 511.35 547.71 511.34 547.68 511.33 547.69 511.32 547.71 511.3 547.73 511.24 547.78 511.18 547.79 511.16 547.81 511.13 547.83 511.08 547.86 511.02 547.9 510.94 547.94 510.88 547.97 510.84 547.97 510.83 547.99 510.81 548.01 510.79 548.01 510.79 548.02 510.77 548.03 510.77 548.03 510.76 548.05 510.74 548.06 510.68 548.08 510.62 548.1 510.56 548.13 510.5 548.14 510.46 548.16 510.41 548.17 510.37 548.18 510.34 548.19 510.31 548.21 510.29 548.22 510.27 548.23 510.26 548.24 510.26 548.26 510.26 548.27 510.25 548.29 510.24 548.3 510.23 548.31 510.21 548.32 510.18 548.32 510.17 548.33 510.17 548.34 510.16 548.36 510.16 548.4 510.17 548.44 510.17 548.46 510.17 548.47 510.16 548.48 510.14 548.5 510.11 548.54 510.05 548.55 510.03 548.56 510.01 548.56 509.99 548.56 509.97 548.56 509.95 548.55 509.94 548.55 509.91 548.56 509.88 548.57 509.85 548.58 509.81 548.59 509.79 548.61 509.77 548.62 509.75 548.64 509.74 548.66 509.72 548.68 509.69 548.7 509.65 548.71 509.61 548.72 509.61 548.74 509.6 548.78 509.6 548.83 509.59 548.87 509.58 548.9 509.57 548.94 509.55 548.96 509.54 549 509.52 549.02 509.51 549.04 509.51 549.08 509.51 549.11 509.51 549.14 509.52 549.16 509.53 549.19 509.56 549.2 509.57 549.21 509.58 549.22 509.6 549.23 509.63 549.25 509.67 549.26 509.7 549.29 509.72 549.33 509.74 549.36 509.75 549.4 509.75 549.46 509.76 549.51 509.78 549.56 509.79 549.6 509.81 549.62 509.82 549.64 509.83 549.65 509.85 549.66 509.87 549.66 509.9 549.67 509.94 549.66 509.98 549.67 510.01 549.67 510.05 549.68 510.08 549.7 510.1 549.72 510.12 549.75 510.13 549.77 510.14 549.8 510.14 549.84 510.15 549.86 510.15 549.88 510.15 549.91 510.15 549.94 510.15 549.97 510.15 549.99 510.16 550.01 510.17 550.02 510.17 550.05 510.17 550.06 510.17 550.07 510.16 550.09 510.15 550.11 510.13 550.12 510.11 550.14 510.1 550.16 510.09 550.17 510.09 550.19 510.09 550.21 510.09 550.23 510.1 550.24 510.09 550.26 510.09 550.28 510.07 550.29 510.05 550.34 510.03 550.34 510.02 550.35 510.01 550.35 510 550.35 509.98 550.34 509.96 550.33 509.93 550.33 509.91 550.33 509.89 550.34 509.87 550.34 509.85 550.33 509.82 550.33 509.8 550.31 509.78 550.28 509.75 550.26 509.74 550.24 509.72 550.23 509.7 550.23 509.69 550.25 509.68 550.26 509.66 550.27 509.65 550.28 509.64 550.3 509.64 550.32 509.63 550.34 509.63 550.36 509.62 550.38 509.6 550.4 509.58 550.41 509.55 550.42 509.52 550.42 509.49 550.42 509.46 550.41 509.42 550.39 509.38 550.38 509.35 550.37 509.33 550.37 509.3 550.37 509.28 550.38 509.25 550.39 509.21 550.39 509.18 550.39 509.15 550.38 509.12 550.37 509.08 550.36 509.05 550.35 509.03 550.35 509.03 550.34 509 550.32 508.98 550.31 508.95 550.3 508.92 550.29 508.91 550.29 508.89 550.3 508.87 550.31 508.85 550.32 508.82 550.33 508.79 550.34 508.76 550.34 508.74 550.33 508.72 550.32 508.7 550.31 508.69 550.3 508.68 550.28 508.67 550.25 508.66 550.21 508.65 550.18 508.64 550.15 508.63 550.12 508.61 550.09 508.57 550.07 508.55 550.04 508.51 550 508.45 549.96 508.4 549.94 508.38 549.93 508.38 549.89 508.34 549.86 508.3 549.85 508.26 549.85 508.22 549.84 508.17 549.85 508.13 549.86 508.09 549.88 508.06 549.91 508.04 549.93 508.01 549.96 507.96 549.98 507.92 550.02 507.86 550.04 507.88 550.05 507.9 550.07 507.9 550.09 507.88 550.14 507.81 550.15 507.82 550.16 507.84 550.17 507.89 550.19 507.92 550.22 507.93 550.25 507.96 550.27 507.98 550.3 508 550.33 508 550.36 507.97 550.36 507.96 550.39 507.93 550.43 507.9 550.48 507.86 550.47 507.84 550.44 507.77 550.4 507.71 550.4 507.67 550.38 507.61 550.37 507.57 550.35 507.52 550.32 507.46 550.28 507.4 550.25 507.29 550.22 507.2 550.17 507.1 550.09 506.96 550.08 506.92 550.07 506.85 550.07 506.77 550.05 506.7 550.02 506.66 549.98 506.64 549.94 506.66 549.86 506.69 549.78 506.72 549.71 506.73 549.61 506.72 549.53 506.73 549.47 506.74 549.4 506.73 549.32 506.7 549.27 506.68 549.25 506.66 549.18 506.61 549.15 506.56 549.13 506.48 549.09 506.4 549.04 506.32 548.95 506.2 548.87 506.11 548.83 506.06 548.8 506 548.79 505.95 548.77 505.89 548.75 505.84 548.74 505.79 548.74 505.77 548.74 505.77 548.75 505.66 548.75 505.56 548.73 505.45 548.66 505.35 548.62 505.28 548.57 505.22 548.5 505.16 548.46 505.11 548.45 505.08 548.46 505.07 548.46 505.03 548.45 504.99 548.42 504.96 548.39 504.93 548.31 504.9 548.2 504.88 548.13 504.86 548.04 504.83 547.96 504.79 547.89 504.77 547.8 504.76 547.7 504.75 547.62 504.74 547.58 504.76 547.52 504.76 547.47 504.74 547.44 504.75 547.4 504.74 547.36 504.72 547.35 504.68 547.34 504.63 547.31 504.59 547.24 504.55 547.17 504.53 547.09 504.5 547.05 504.49 546.99 504.47 546.87 504.42 546.79 504.36 546.71 504.31 546.63 504.22 546.58 504.09 546.52 504.03 546.46 503.96 546.41 503.92 546.36 503.88 546.33 503.81 546.28 503.7 546.23 503.58 546.19 503.47 546.14 503.36 546.11 503.27 546.09 503.2 546.12 503.16 546.15 503.09 546.16 502.99 546.19 502.86 546.22 502.84 546.23 502.83 546.25 502.79 546.28 502.73 546.3 502.65 546.32 502.57 546.32 502.52 546.32 502.49 546.32 502.49 546.32 502.47 546.33 502.46 546.33 502.45 546.33 502.44 546.34 502.38 546.38 502.27 546.42 502.18 546.42 502.17 546.46 502.09 546.54 502.02 546.62 501.94 546.71 501.85 546.76 501.76 546.82 501.68 546.87 501.6 546.93 501.52 547.02 501.41 547.11 501.31 547.18 501.23 547.27 501.13 547.29 501.1 547.34 501.04 547.43 500.94 547.48 500.87 547.51 500.8 547.54 500.72 547.58 500.68 547.61 500.63 547.64 500.56 547.69 500.48 547.75 500.39 547.76 500.35 547.76 500.33 547.78 500.31 547.79 500.28 547.81 500.27 547.84 500.24 547.87 500.21 547.89 500.18 547.9 500.16 547.92 500.12 547.92 500.12 547.97 500.05 548.01 499.98 548.06 499.91 548.1 499.85 548.12 499.82 548.14 499.81 548.15 499.8 548.16 499.8 548.17 499.81 548.17 499.81 548.19 499.83 548.21 499.86 548.23 499.88 548.26 499.9 548.28 499.9 548.3 499.91 548.32 499.92 548.35 499.92 548.37 499.94 548.4 499.96 548.43 499.98 548.48 500 548.53 500.02 548.57 500.04 548.61 500.04 548.66 500.04 548.71 500.02 548.75 500.02 548.81 500 548.84 500 548.85 499.99 548.86 499.99 548.88 500 548.92 500.01 548.98 500.02 549.02 500.03 549.06 500.03 549.1 500.03 549.13 500.02 549.17 500.01 549.21 499.99 549.23 499.99 549.24 499.99 549.26 499.99 549.3 500 549.34 500 549.38 500 549.42 499.99 549.46 499.97 549.49 499.96 549.53 499.93 549.56 499.91 549.57 499.88 549.59 499.85 549.6 499.82 549.62 499.84 549.63 499.85 549.64 499.88 549.64 499.91 549.65 499.97 549.65 500 549.66 500.03 549.69 500.06 549.71 500.08 549.74 500.09 549.77 500.1 549.83 500.1 549.87 500.11 549.91 500.13 549.94 500.15 549.96 500.16 549.97 500.18 549.99 500.2 550.02 500.23 550.06 500.24 550.1 500.26 550.14 500.28 550.18 500.3 550.26 500.35 550.29 500.37 550.32 500.39 550.37 500.41 550.41 500.44 550.46 500.46 550.54 500.47 550.66 500.46 550.77 500.46 550.84 500.5 550.92 500.54 550.96 500.62 551 500.68 551.05 500.71 551.12 500.73 551.19 500.75 551.25 500.74 551.29 500.74 551.41 500.69 551.51 500.67 551.61 500.63 551.68 500.62 551.75 500.62 551.82 500.59 551.88 500.59 551.93 500.6 552 500.62 552.05 500.63 552.16 500.67 552.27 500.71 552.29 500.72 552.35 500.74 552.42 500.76 552.48 500.79 552.5 500.8 552.52 500.81 552.53 500.82 552.54 500.83 552.64 500.89 552.78 500.98 552.9 501.06 552.98 501.14 553.13 501.26 553.18 501.31 553.34 501.48 553.45 501.6 553.47 501.61 553.54 501.69 553.64 501.78 553.72 501.82 553.77 501.86 553.8 501.89 553.84 501.93 553.87 501.97 553.97 502.1 554.05 502.21 554.08 502.24 554.14 502.33 554.22 502.43 554.25 502.48 554.29 502.54 554.36 502.62 554.41 502.66 554.47 502.71 554.53 502.8 554.62 502.92 554.74 503.1 554.86 503.25 554.99 503.39 555.05 503.46 555.09 503.5 555.11 503.51 555.18 503.56 555.27 503.63 555.36 503.67 555.45 503.71 555.52 503.75 555.6 503.76 555.7 503.76 555.81 503.77 555.88 503.74 555.92 503.71 555.96 503.67 556.02 503.65 556.08 503.66 556.14 503.7 556.21 503.74 556.3 503.78 556.37 503.8 556.42 503.79 556.48 503.75 556.53 503.7 556.55 503.69 556.6 503.69 556.67 503.7 556.77 503.67 556.83 503.64 556.87 503.6 556.91 503.59 556.96 503.61 557.03 503.63 557.12 503.64 557.19 503.65 557.23 503.67 557.24 503.67 557.25 503.71 557.24 503.78 557.25 503.84 557.27 503.91 557.31 503.98 557.38 504.04 557.47 504.09 557.58 504.15 557.73 504.21 557.85 504.22 557.97 504.23 558.09 504.24 558.18 504.23 558.3 504.21 558.41 504.19 558.48 504.19 558.59 504.18 558.73 504.17 558.8 504.17 558.83 504.17 558.83 504.18 558.84 504.21 558.84 504.26 558.84 504.3 558.85 504.37 558.85 504.4 558.85 504.45 558.86 504.51 558.87 504.61 558.88 504.68 558.87 504.69 558.85 504.71 558.79 504.75 558.76 504.79 558.74 504.83 558.73 504.86 558.74 504.89 558.76 504.91 558.79 504.95 558.84 505 558.86 505.02 558.89 505.03 558.93 505.03 558.97 505.03 559.02 505.04 559.09 505.04 559.12 505.06 559.17 505.09 559.23 505.14 559.24 505.14 559.34 505.18 559.42 505.23 559.48 505.25 559.56 505.26 559.64 505.28 559.72 505.3 559.8 505.33 559.85 505.35 559.88 505.38 559.9 505.41 559.9 505.45 559.9 505.53 559.92 505.56 559.94 505.61 559.96 505.68 559.98 505.74 559.99 505.8 559.99 505.85 559.99 505.98 559.99 506.05 559.99 506.11 559.97 506.19 559.97 506.25 559.95 506.35 559.94 506.45 559.92 506.54 559.9 506.63 559.87 506.72 559.85 506.82 559.84 506.94 559.83 507.03 559.82 507.11 559.82 507.24 559.82 507.35 559.81 507.46 559.81 507.57 559.81 507.69 559.81 507.78 559.8 507.89 559.77 508.02 559.72 508.29 559.73 508.36 559.73 508.44 559.72 508.51 559.71 508.57 559.71 508.65 559.72 508.72 559.75 508.79 559.76 508.86 559.76 508.87 559.77 508.95 559.78 509.03 559.78 509.15 559.78 509.29 559.8 509.71 559.8 509.88 559.81 509.93 559.8 510.01 559.8 510.07 559.8 510.14 559.81 510.21 559.81 510.25 559.81 510.3 559.81 510.35 559.8 510.39 559.8 510.47 559.79 510.54 559.79 510.57 559.79 510.6 559.8 510.67 559.79 510.73 559.79 510.77 559.78 510.85 559.78 510.91 559.78 511.01 559.77 511.06 559.77 511.14 559.76 511.25 559.76 511.29 559.76 511.3 559.76 511.31 559.76 511.36 559.76 511.41 559.74 511.47 559.73 511.53 559.7 511.6 559.68 511.65 559.68 511.66 559.67 511.69 559.66 511.78 559.65 511.84 559.65 511.9 559.65 511.97 559.65 512.04 559.64 512.1 559.62 512.15 559.6 512.18 559.61 512.2 559.62 512.22 559.62 512.24 559.61 512.27 559.6 512.29 559.58 512.35 559.55 512.39 559.62 512.43 559.68 512.46 559.7 512.48 559.72 512.51 559.74 512.56 559.75 512.61 559.77 512.69 559.79 512.77 559.81 512.9 559.82 513.01 559.82 513.03 559.83 513.13 559.84 513.25 559.84 513.34 559.84 513.45 559.85 513.57 559.86 513.72 559.86 513.83 559.86 513.96 559.86 514 559.86 514.04 559.86 514.11 559.85 514.25 559.84 514.31 559.84 514.32 559.8 514.55 559.79 514.63 559.78 514.69 559.73 515 559.71 515.12 559.67 515.31 559.65 515.44 559.61 515.65 559.6 515.71 559.59 515.76 559.59 515.77 559.56 515.81 559.54 515.84 559.53 515.85 559.45 515.94 559.31 516.08 559.19 516.2 559.06 516.3 558.91 516.42 558.74 516.54 558.59 516.64 558.47 516.73 558.45 516.74 558.43 516.75 558.3 516.83 558.22 516.89 558.12 516.92 558.1 516.93 557.94 516.99 557.9 517 557.8 517.03 557.72 517.07 557.6 517.13 557.6 517.14 557.42 517.24 557.38 517.26 557.27 517.32 557.15 517.39 557.02 517.46 557 517.47 556.96 517.49 556.86 517.53 556.7 517.62 556.66 517.64 556.62 517.67 556.6 517.68 556.58 517.71 556.56 517.74 556.55 517.79 556.53 517.83 556.52 517.83 556.09 517.64 556 517.5 555.93 517.38 555.89 517.25 555.84 517.1 555.79 516.95 555.74 516.81 555.67 516.68 555.62 516.48 555.39 516.25 555.3 516.14 555.2 516.04 555.1 515.91 554.97 515.76 554.87 515.66 554.81 515.61 554.73 515.56 554.63 515.52 554.51 515.48 554.26 515.43 554.04 515.37 553.88 515.32 553.75 515.27 553.59 515.2 553.47 515.13 553.39 515.06 553.33 514.99 553.27 514.9 553.21 514.79 553.15 514.65 553.11 514.57 553.08 514.54 553.04 514.52 552.99 514.51 552.9 514.51 552.83 514.52 552.78 514.52 552.74 514.51 552.65 514.46 552.45 514.35 552.28 514.25 552.16 514.18 552.15 514.16 552.06 514.13 551.96 514.1 551.86 514.08 551.75 514.07 551.64 514.06 551.57 514.07 551.48 514.07 551.39 514.06 551.29 514.02 551.18 513.97 551.08 513.91 550.98 513.84 550.84 513.77 550.72 513.73 550.6 513.68 550.5 513.62 550.37 513.54 550.26 513.49 550.21 513.48 550.14 513.46 550.06 513.42 549.98 513.38 549.89 513.32 549.81 513.29 549.77 513.28 549.68 513.29 549.59 513.3 549.51 513.28 549.43 513.25 549.33 513.19 549.23 513.16 549.12 513.16 549.06 513.16 Z M 521.75 508.61 521.92 508.79 521.94 508.81 522 508.85 522.12 508.93 522.19 508.97 522.29 509.05 522.39 509.15 522.47 509.14 522.65 509.27 522.67 509.33 522.67 509.34 522.68 509.35 522.76 509.4 522.77 509.41 522.79 509.42 522.85 509.46 522.9 509.49 522.93 509.5 522.99 509.52 523.03 509.53 523.07 509.56 523.1 509.6 523.14 509.62 523.21 509.65 523.24 509.67 523.29 509.7 523.3 509.71 523.35 509.75 523.37 509.76 523.41 509.79 523.5 509.84 523.57 509.88 523.58 509.89 523.65 509.93 523.71 509.97 523.75 510 523.78 510.02 523.79 510.03 524.05 510.19 524.13 510.24 524.24 510.29 524.37 510.42 524.55 510.59 524.75 510.78 524.81 510.85 524.89 510.94 524.94 510.99 524.98 511.03 525.01 511.06 525.08 511.1 525.12 511.14 525.27 511.25 525.33 511.3 525.48 511.39 525.54 511.44 525.64 511.5 525.69 511.54 525.76 511.58 525.84 511.64 525.98 511.73 526.03 511.75 526.11 511.8 526.14 511.82 526.29 511.97 526.33 512.01 526.39 512.06 526.47 512.14 526.53 512.19 526.56 512.23 526.56 512.23 526.6 512.27 526.64 512.32 526.72 512.4 526.78 512.46 526.87 512.55 526.95 512.63 527 512.69 527.05 512.74 527.1 512.76 527.12 512.78 527.13 512.79 527.18 512.83 527.25 512.88 527.32 512.93 527.37 512.97 527.41 513.01 527.46 513.06 527.5 513.09 527.53 513.11 527.55 513.12 527.58 513.14 527.6 513.16 527.65 513.18 527.72 513.24 527.78 513.29 527.84 513.35 527.9 513.4 527.92 513.41 527.94 513.42 527.98 513.45 528.02 513.48 528.08 513.53 528.17 513.61 528.26 513.68 528.32 513.73 528.42 513.8 528.51 513.88 528.6 513.95 528.75 514.06 528.82 514.12 528.86 514.15 528.9 514.2 528.93 514.23 529.04 514.34 529.11 514.4 529.15 514.43 529.2 514.5 529.3 514.61 529.54 514.85 529.77 515.07 529.89 515.2 529.95 515.25 530.17 515.38 530.34 515.41 530.68 515.53 530.8 515.58 530.81 515.59 531.12 515.74 531.14 515.75 531.88 516.1 531.92 516.11 532.09 516.16 532.13 516.17 532.26 516.2 532.34 516.23 532.38 516.24 532.39 516.25 532.41 516.26 532.42 516.26 532.45 516.27 532.56 516.32 532.57 516.33 532.77 516.31 533.11 516.49 533.81 516.85 533.97 516.97 534.08 517.07 534.19 517.15 534.22 517.16 534.23 517.17 534.28 517.2 534.54 517.34 534.86 517.51 535.14 517.65 535.16 517.66 535.28 517.74 535.62 517.96 535.85 518.1 535.98 518.18 535.99 518.19 535.84 518.6 535.77 518.8 535.76 518.82 535.69 519.1 535.69 519.12 535.68 519.14 535.63 519.35 535.56 519.58 535.51 519.81 535.49 519.92 535.46 520.02 535.44 520.08 535.38 520.28 535.28 520.53 535.26 520.57 535.25 520.6 535.19 520.74 535.11 520.91 534.98 521.2 534.9 521.35 534.58 521.89 534.66 521.96 534.73 522.04 534.76 522.06 534.99 522.23 535.13 522.33 535.26 522.44 535.31 522.49 535.32 522.5 535.41 522.57 535.44 522.61 535.48 522.67 535.49 522.68 535.54 522.72 535.55 522.73 535.6 522.77 535.62 522.78 535.72 522.86 535.76 522.89 535.85 522.95 535.97 523.07 535.96 523.08 535.65 523.61 535.64 523.62 535.43 523.98 535.33 524.15 535.32 524.16 535.02 524.68 534.87 524.95 534.8 525.03 534.69 525.23 534.68 525.24 534.38 525.77 534.31 525.89 534.07 526.34 534.06 526.35 533.96 526.56 533.92 526.62 533.83 526.79 533.78 526.89 533.78 526.9 533.73 527 533.59 527.29 533.51 527.47 533.46 527.57 533.42 527.66 533.31 527.84 533.22 528 533.2 528.05 533.11 528.11 533.06 528.15 532.94 528.3 532.9 528.33 532.69 529.03 532.63 529.09 532.6 529.13 532.43 529.47 532.36 529.6 532.08 530.08 532.05 530.14 531.84 530.4 531.71 530.58 531.62 530.7 531.37 531.03 531.3 531.12 531.28 531.18 531.26 531.26 531.25 531.39 531.08 531.78 530.7 532.2 530.38 532.55 530.26 532.68 530.23 532.74 530.15 532.87 530.12 532.93 530.06 533.05 529.81 533.39 529.8 533.4 529.76 533.43 529.7 533.47 529.69 533.49 529.66 533.51 529.61 533.57 529.57 533.63 529.49 533.71 529.44 533.77 529.42 533.8 529.31 533.94 529.25 534 529.22 534.03 529.19 534.06 529.17 534.07 529.13 534.09 529.12 534.1 529.1 534.11 529.09 534.13 529.07 534.16 529.05 534.18 529.05 534.19 529.04 534.2 529.03 534.22 529.01 534.25 528.98 534.28 528.95 534.31 528.92 534.35 528.91 534.36 528.89 534.38 528.92 534.4 528.85 534.58 528.84 534.59 528.68 534.89 528.64 534.94 528.62 534.99 528.59 535.04 528.62 535.07 528.62 535.1 528.63 535.13 528.64 535.16 528.66 535.19 528.68 535.24 528.68 535.25 528.67 535.27 528.66 535.3 528.65 535.33 528.65 535.35 528.64 535.37 528.62 535.39 528.6 535.42 528.59 535.44 528.55 535.5 528.53 535.53 528.51 535.55 528.5 535.57 528.49 535.58 528.46 535.61 528.44 535.64 528.41 535.7 528.4 535.71 528.4 535.74 528.4 535.75 528.4 535.78 528.4 535.8 528.38 535.83 528.36 535.87 528.34 535.9 528.33 535.96 528.31 536 528.29 536.06 528.28 536.11 528.28 536.12 528.27 536.15 528.27 536.2 528.26 536.22 528.26 536.27 528.26 536.32 528.25 536.38 528.25 536.42 528.24 536.45 528.23 536.48 528.21 536.52 528.21 536.53 528.19 536.54 528.18 536.57 528.16 536.61 528.14 536.64 528.13 536.67 528.12 536.7 528.11 536.71 528.1 536.72 528.09 536.72 528.07 536.72 527.97 536.69 527.8 536.6 527.73 536.57 527.69 536.65 527.67 536.7 527.66 536.72 527.64 536.75 527.6 536.86 527.59 536.87 527.56 536.92 527.55 536.93 527.5 536.93 527.48 536.95 527.53 537 527.59 537.08 527.62 537.13 527.61 537.13 527.54 537.14 527.53 537.14 527.47 537.13 527.4 537.14 527.32 537.16 527.25 537.17 527.22 537.21 527.17 537.26 527.16 537.27 527.14 537.32 527.13 537.32 527.11 537.38 527.1 537.39 527.05 537.46 527.04 537.51 527.02 537.55 526.99 537.62 526.95 537.67 526.93 537.7 526.92 537.71 526.88 537.69 526.79 537.65 526.69 537.63 526.64 537.62 526.61 537.63 526.53 537.66 526.51 537.68 526.45 537.71 526.4 537.72 526.34 537.73 526.3 537.75 526.26 537.77 526.18 537.79 526.11 537.82 526.07 537.83 526.04 537.84 526.02 537.86 526 537.88 525.94 537.89 525.95 537.92 525.98 538 525.99 538.04 526 538.05 526 538.13 526 538.22 525.99 538.23 526.02 538.25 526.01 538.28 526 538.34 525.99 538.4 525.98 538.44 525.98 538.46 525.96 538.52 525.97 538.57 525.97 538.61 525.97 538.67 525.97 538.73 525.97 538.77 525.96 538.84 525.95 538.87 525.95 538.9 525.95 538.92 525.97 538.94 525.96 539.02 525.96 539.08 525.96 539.1 525.97 539.12 525.98 539.2 525.98 539.25 525.98 539.29 525.99 539.32 526 539.35 526 539.38 526.01 539.42 526.02 539.46 526.02 539.47 526.03 539.5 526.03 539.54 526.05 539.59 526.06 539.64 526.07 539.67 526.08 539.7 526.07 539.71 526.08 539.8 526.08 539.89 526.07 539.99 526.06 540.06 526.06 540.09 526.07 540.17 526.08 540.27 526.08 540.35 526.06 540.42 526.02 540.51 525.99 540.59 526.02 540.74 525.99 540.8 525.92 540.95 525.81 541.17 525.78 541.23 525.75 541.32 525.74 541.35 525.72 541.39 525.69 541.48 525.68 541.51 525.66 541.58 525.64 541.62 525.63 541.66 525.6 541.71 525.58 541.75 525.56 541.8 525.55 541.83 525.52 541.91 525.51 541.94 525.5 541.96 525.48 542.01 525.47 542.05 525.45 542.14 525.44 542.22 525.42 542.31 525.41 542.38 525.4 542.43 525.39 542.49 525.35 542.67 525.34 542.72 525.33 542.77 525.32 542.81 525.28 543.12 525.27 543.2 525.25 543.29 525.18 543.7 525.12 544.01 525.07 544.32 525 544.74 524.99 544.82 524.99 544.86 524.98 544.88 524.88 545.15 524.8 545.39 524.77 545.48 524.7 545.65 524.69 545.68 524.69 545.71 524.71 545.78 524.74 545.92 524.55 545.91 524.46 545.89 524.38 545.87 524.3 545.85 524.21 545.83 524.13 545.79 524.06 545.75 523.99 545.7 523.93 545.64 523.87 545.58 523.81 545.52 523.76 545.45 523.71 545.39 523.65 545.29 523.6 545.2 523.54 545.08 523.51 544.99 523.48 544.88 523.46 544.77 523.45 544.62 523.44 544.5 523.46 544.39 523.48 544.3 523.52 544.17 523.56 544.06 523.63 543.91 523.69 543.77 523.75 543.68 523.86 543.5 523.92 543.42 523.98 543.31 524.02 543.22 524.05 543.13 524.08 543.03 524.1 542.92 524.11 542.82 524.12 542.77 524.13 542.62 524.14 542.47 524.16 542.36 524.18 542.27 524.2 542.15 524.22 542.06 524.23 541.99 524.23 541.92 524.23 541.85 524.22 541.78 524.2 541.71 524.18 541.64 524.15 541.56 524.11 541.46 524.07 541.38 524.05 541.35 523.99 541.3 523.93 541.24 523.85 541.18 523.79 541.13 523.72 541.09 523.65 541.05 523.58 541 523.51 540.97 523.45 540.94 523.38 540.91 523.29 540.89 523.28 540.88 523.19 540.86 523.1 540.84 523 540.82 522.92 540.81 522.86 540.81 522.81 540.8 522.75 540.81 522.7 540.81 522.65 540.83 522.61 540.84 522.57 540.85 522.53 540.87 522.48 540.9 522.43 540.94 522.37 540.98 522.31 541.03 522.23 541.1 522.15 541.18 522.1 541.24 522.07 541.35 522.04 541.41 522 541.51 521.91 541.71 521.79 541.99 521.68 542.25 521.64 542.33 521.57 542.45 521.52 542.55 521.45 542.65 521.38 542.75 521.3 542.82 521.24 542.88 521.16 542.92 521.09 542.93 521.01 542.93 520.94 542.91 520.85 542.87 520.76 542.82 520.68 542.76 520.82 542.43 520.96 542.13 521.03 541.97 521.15 541.69 521.26 541.43 521.33 541.28 521.38 541.17 521.45 541.02 521.49 540.96 521.54 540.9 521.58 540.84 521.64 540.78 521.72 540.71 521.83 540.62 521.93 540.51 521.97 540.46 522.05 540.29 522.07 540.24 522.09 540.2 522.18 540.06 522.21 540.03 522.24 539.99 522.24 539.96 522.25 539.93 522.25 539.91 522.23 539.82 522.21 539.71 522.21 539.68 522.19 539.61 522.19 539.58 522.17 539.5 522.16 539.47 522.14 539.4 522.14 539.36 522.13 539.34 522.13 539.29 522.13 539.25 522.13 539.23 522.12 539.15 522.11 539.08 522.11 538.95 522.11 538.9 522.11 538.8 522.11 538.71 522.11 538.69 522.1 538.57 522.09 538.46 522.1 538.41 522.1 538.35 522.09 538.21 522.09 538.14 522.09 538.11 522.09 538.08 522.1 537.93 522.11 537.8 522.13 537.72 522.13 537.7 522.13 537.69 522.15 537.54 522.16 537.43 522.13 537.37 522.1 537.31 522.05 537.25 522.04 537.22 522.02 537.18 521.98 537.12 521.94 537.05 521.91 537 521.88 536.94 521.85 536.89 521.82 536.85 521.8 536.79 521.75 536.7 521.72 536.63 521.69 536.58 521.67 536.54 521.65 536.48 521.63 536.44 521.61 536.39 521.59 536.33 521.57 536.27 521.55 536.22 521.54 536.17 521.52 536.13 521.5 536.09 521.48 536.06 521.44 536.01 521.4 535.96 521.35 535.91 521.29 535.87 521.26 535.84 521.18 535.79 521.11 535.76 520.99 535.69 520.95 535.68 520.87 535.65 520.8 535.63 520.72 535.61 520.65 535.59 520.56 535.58 520.48 535.57 520.4 535.57 520.32 535.57 520.25 535.57 520.15 535.57 520.07 535.57 520.01 535.57 519.94 535.58 519.88 535.59 519.82 535.61 519.75 535.63 519.67 535.67 519.61 535.7 519.53 535.74 519.46 535.79 519.4 535.83 519.3 535.89 519.23 535.92 519.16 535.96 519.11 535.98 519.07 536.02 519.04 536.06 519 536.12 518.98 536.15 518.97 536.19 518.95 536.23 518.94 536.29 518.93 536.35 518.92 536.39 518.92 536.47 518.92 536.51 518.92 536.52 518.95 536.96 518.97 537.11 519.37 537.39 519.78 537.71 520.18 538.26 520.21 538.3 520.39 538.58 520.4 538.59 520.42 538.6 520.43 538.6 520.45 538.6 520.46 538.61 520.47 538.61 520.48 538.63 520.49 538.64 520.5 538.64 520.51 538.66 520.52 538.66 520.53 538.66 520.54 538.67 520.66 538.74 520.72 538.81 520.81 538.9 520.89 539 520.96 539.09 521 539.15 521.01 539.18 521.01 539.2 521.01 539.26 521.02 539.33 521.05 539.39 521.07 539.41 521.02 539.48 520.96 539.55 520.95 539.56 520.88 539.64 520.87 539.65 520.85 539.68 520.82 539.71 520.81 539.73 520.8 539.74 520.79 539.75 520.78 539.75 520.76 539.76 520.75 539.78 520.74 539.79 520.71 539.81 520.67 539.84 520.64 539.86 520.61 539.89 520.57 539.92 520.54 539.94 520.5 539.96 520.47 539.99 520.43 540.01 520.4 540.04 520.36 540.06 520.33 540.08 520.29 540.11 520.26 540.13 520.22 540.15 520.21 540.16 520.19 540.14 520.03 539.95 520.1 539.91 520.16 539.87 520.24 539.79 520.32 539.71 520.37 539.64 520.41 539.57 520.43 539.47 520.43 539.4 520.41 539.34 520.38 539.27 520.29 539.13 520.16 538.94 520.04 538.78 519.88 538.59 519.74 538.44 519.61 538.32 519.47 538.21 519.36 538.14 519.24 538.08 519.13 538.04 519.02 538.02 518.89 538.01 518.73 538.04 518.54 538.1 518.31 538.22 518.14 538.35 517.96 538.51 517.77 538.69 517.58 538.9 517.45 539.05 517.33 539.21 517.2 539.39 517.1 539.53 517.01 539.67 516.92 539.78 516.81 539.89 516.73 539.96 516.67 540 516.57 540.06 516.44 540.1 516.35 540.11 516.19 540.12 516 540.11 515.83 540.09 515.71 540.07 515.57 540.03 515.41 539.99 515.22 539.92 515.04 539.86 514.87 539.79 514.71 539.72 514.59 539.66 514.54 539.63 514.4 539.55 514.25 539.45 514.08 539.32 514.01 539.25 513.94 539.19 513.89 539.12 513.83 539.05 513.8 538.99 513.78 538.94 513.76 538.87 513.75 538.82 513.74 538.76 513.74 538.68 513.76 538.58 513.79 538.47 513.83 538.3 513.87 538.13 513.9 537.91 513.91 537.72 513.9 537.59 513.87 537.49 513.79 537.32 513.71 537.19 513.62 537.06 513.54 536.96 513.46 536.88 513.33 536.79 513.23 536.73 513.13 536.68 513 536.64 512.86 536.63 512.65 536.62 512.5 536.63 511.22 536.72 511.25 536.52 511.29 536.24 511.29 536.23 511.32 535.95 511.32 535.94 511.33 535.92 511.33 535.92 511.33 535.91 511.33 535.9 511.33 535.85 511.34 535.8 511.34 535.77 511.35 535.76 511.35 535.75 511.35 535.75 511.35 535.72 511.36 535.71 511.36 535.69 511.36 535.68 511.36 535.66 511.37 535.64 511.37 535.63 511.38 535.61 511.38 535.6 511.38 535.59 511.39 535.57 511.39 535.56 511.39 535.55 511.4 535.54 511.4 535.52 511.41 535.51 511.41 535.5 511.42 535.48 511.43 535.47 511.43 535.45 511.44 535.44 511.45 535.42 511.45 535.41 511.45 535.39 511.45 535.38 511.46 535.37 511.46 535.35 511.46 535.34 511.47 535.32 511.47 535.31 512.01 533.45 512.11 533.12 512.12 533.09 512.14 533.04 512.16 532.99 512.15 532.95 512.12 532.83 512.09 532.7 512.06 532.57 512.01 532.45 511.82 532.03 511.81 532.02 511.8 532 511.8 532 511.79 531.99 511.41 531.61 511.5 531.4 511.51 531.38 511.5 531.34 511.47 531.1 511.46 530.74 511.46 530.65 511.45 530.59 511.45 530.56 511.45 530.54 511.45 530.53 511.46 530.51 511.45 530.51 511.39 530.51 511.38 530.51 511.33 530.51 511.3 530.51 511.22 530.41 511.12 530.29 511.09 530.25 511.04 530.2 510.97 530.13 510.89 530.05 510.86 529.99 510.85 529.99 510.84 529.98 510.8 529.97 510.76 529.94 510.7 529.9 510.65 529.87 510.56 529.82 510.56 529.81 510.57 529.79 510.58 529.78 510.59 529.77 510.59 529.75 510.6 529.74 510.61 529.74 510.61 529.73 510.62 529.71 510.64 529.69 510.65 529.68 510.67 529.66 510.68 529.65 510.69 529.64 510.7 529.63 510.7 529.63 510.72 529.62 510.73 529.61 510.74 529.6 510.75 529.6 510.76 529.59 510.77 529.58 510.78 529.57 510.8 529.57 510.81 529.56 510.82 529.56 510.84 529.55 510.86 529.54 510.86 529.54 510.87 529.53 510.89 529.52 510.9 529.51 510.91 529.5 510.92 529.49 510.93 529.48 510.94 529.47 510.94 529.46 510.94 529.39 510.94 529.27 510.96 529.27 510.98 529.27 510.99 529.27 511 529.27 511 529.26 511.01 529.24 511.01 529.23 511.01 529.22 511.01 529.21 511.02 529.2 511.02 529.18 511.03 529.17 511.04 529.16 511.05 529.14 511.05 529.13 511.05 529.12 511.06 529.07 511.06 529.06 511.06 529.05 511.06 529.04 511.06 529.03 511.07 529.01 511.07 529 511.08 528.99 511.08 528.98 511.09 528.97 511.11 528.96 511.12 528.96 511.13 528.95 511.15 528.94 511.16 528.94 511.17 528.93 511.18 528.93 511.2 528.92 511.21 528.92 511.22 528.92 511.23 528.91 511.25 528.91 511.26 528.9 511.27 528.9 511.29 528.89 511.31 528.89 511.32 528.88 511.33 528.87 511.35 528.87 511.36 528.86 511.37 528.85 511.37 528.84 511.38 528.83 511.38 528.81 511.37 528.79 511.36 528.78 511.36 528.77 511.35 528.76 511.34 528.75 511.33 528.74 511.32 528.73 511.32 528.71 511.32 528.7 511.33 528.69 511.34 528.67 511.35 528.66 511.36 528.65 511.38 528.64 511.39 528.63 511.4 528.63 511.41 528.62 511.42 528.62 511.43 528.61 511.45 528.61 511.47 528.61 511.49 528.61 511.5 528.61 511.52 528.6 511.52 528.6 511.54 528.6 511.55 528.59 511.56 528.58 511.57 528.58 511.6 528.57 511.61 528.56 511.62 528.56 511.63 528.55 511.65 528.55 511.66 528.55 511.69 528.54 511.7 528.54 511.71 528.53 511.72 528.53 511.74 528.52 511.76 528.51 511.78 528.51 511.79 528.5 511.81 528.5 511.82 528.49 511.85 528.48 511.86 528.48 511.91 528.46 511.92 528.45 511.93 528.45 511.95 528.44 511.96 528.44 512.02 528.42 512.04 528.41 512.05 528.41 512.07 528.41 512.08 528.4 512.09 528.4 512.12 528.38 512.13 528.38 512.15 528.37 512.16 528.37 512.18 528.36 512.21 528.35 512.22 528.35 512.23 528.34 512.24 528.33 512.25 528.33 512.26 528.32 512.27 528.31 512.29 528.3 512.3 528.29 512.31 528.28 512.32 528.27 512.33 528.26 512.34 528.25 512.35 528.25 512.36 528.24 512.37 528.24 512.38 528.23 512.41 528.22 512.42 528.21 512.43 528.21 512.45 528.21 512.46 528.2 512.48 528.2 512.5 528.19 512.51 528.19 512.53 528.18 512.54 528.18 512.55 528.18 512.57 528.17 512.58 528.17 512.59 528.16 512.6 528.15 512.6 528.14 512.6 528.12 512.6 528.11 512.61 528.08 512.61 528.07 512.61 528.05 512.61 528.03 512.61 528.02 512.62 528 512.62 527.98 512.63 527.97 512.63 527.96 512.63 527.94 512.64 527.92 512.64 527.91 512.64 527.89 512.64 527.88 512.64 527.86 512.63 527.84 512.63 527.82 512.63 527.81 512.63 527.79 512.62 527.78 512.62 527.76 512.63 527.75 512.63 527.74 512.64 527.73 512.64 527.71 512.65 527.7 512.65 527.68 512.65 527.67 512.65 527.66 512.65 527.64 512.65 527.61 512.65 527.59 512.64 527.58 512.64 527.57 512.64 527.56 512.64 527.54 512.63 527.52 512.63 527.51 512.63 527.49 512.62 527.48 512.62 527.47 512.62 527.46 512.62 527.44 512.62 527.43 512.61 527.42 512.6 527.4 512.59 527.39 512.59 527.37 512.6 527.35 512.63 527.33 512.64 527.33 512.66 527.33 512.67 527.33 512.68 527.32 512.69 527.31 512.69 527.3 512.69 527.29 512.69 527.27 512.68 527.26 512.68 527.24 512.68 527.23 512.69 527.22 512.7 527.2 512.7 527.19 512.71 527.18 512.71 527.17 512.71 527.15 512.71 527.15 512.7 527.13 512.7 527.12 512.71 527.11 512.72 527.09 512.72 527.08 512.71 527.06 512.7 527.05 512.7 527.04 512.69 527.03 512.68 527.01 512.67 527 512.66 527 512.65 526.99 512.63 526.97 512.61 526.96 512.6 526.95 512.59 526.94 512.58 526.93 512.57 526.92 512.56 526.91 512.56 526.91 512.55 526.9 512.52 526.87 512.51 526.86 512.51 526.84 512.52 526.83 512.52 526.82 512.53 526.8 512.54 526.79 512.54 526.78 512.55 526.77 512.56 526.75 512.56 526.74 512.56 526.73 512.56 526.72 512.57 526.71 512.58 526.69 512.59 526.68 512.59 526.67 512.59 526.65 512.6 526.64 512.6 526.63 512.61 526.6 512.61 526.58 512.62 526.56 512.62 526.55 512.62 526.54 512.63 526.52 512.63 526.51 512.63 526.49 512.63 526.48 512.63 526.46 512.63 526.45 512.64 526.43 512.64 526.42 512.64 526.4 512.64 526.39 512.63 526.37 512.63 526.37 512.63 526.35 512.63 526.33 512.62 526.31 512.61 526.28 512.61 526.27 512.61 526.26 512.61 526.24 512.6 526.23 512.6 526.22 512.6 526.2 512.61 526.19 512.61 526.18 512.62 526.17 512.63 526.16 512.64 526.15 512.65 526.14 512.66 526.13 512.67 526.12 512.68 526.11 512.7 526.11 512.7 526.1 512.72 526.08 512.73 526.07 512.74 526.06 512.77 526.04 512.78 526.03 512.79 526.02 512.8 526.01 512.81 526 512.83 526 512.84 525.99 512.85 525.98 512.86 525.96 512.87 525.95 512.88 525.94 512.89 525.93 512.89 525.92 512.91 525.91 512.92 525.9 512.93 525.89 512.94 525.88 512.95 525.87 512.96 525.86 512.97 525.85 512.98 525.84 512.99 525.84 513.01 525.81 513.03 525.8 513.04 525.79 513.05 525.78 513.06 525.77 513.07 525.76 513.08 525.75 513.12 525.71 513.13 525.7 513.15 525.69 513.16 525.68 513.17 525.67 513.18 525.67 513.19 525.65 513.2 525.64 513.21 525.63 513.21 525.63 513.22 525.62 513.23 525.61 513.24 525.6 513.27 525.56 513.31 525.52 513.37 525.45 513.38 525.44 513.39 525.43 513.4 525.42 513.41 525.41 513.42 525.4 513.43 525.39 513.44 525.39 513.45 525.38 513.46 525.37 513.46 525.35 513.47 525.34 513.47 525.32 513.48 525.3 513.49 525.29 513.5 525.26 513.52 525.23 513.58 525.13 513.63 525.04 513.66 524.97 513.71 524.87 513.71 524.86 513.73 524.82 513.74 524.81 513.74 524.79 513.75 524.77 513.77 524.67 513.82 524.44 513.84 524.33 513.85 524.3 514.46 523.81 514.49 523.78 514.53 523.76 514.61 523.69 514.81 523.53 514.84 523.51 515.04 523.35 515.32 523.12 515.72 522.86 515.74 522.85 515.95 522.7 515.98 522.66 516.03 522.6 516.12 522.48 516.27 522.3 516.41 522.1 516.56 521.91 516.68 521.76 516.73 521.69 516.9 521.42 517.03 521.24 517.13 521.1 517.17 521.05 517.31 520.89 517.44 520.75 517.52 520.68 517.57 520.63 517.74 520.47 517.76 520.45 517.89 520.34 517.96 520.27 517.98 520.25 518.05 520.18 518.14 520.1 518.16 520.08 518.18 520.05 518.2 520.04 518.3 519.95 518.37 519.87 518.39 519.86 518.39 519.85 518.44 519.81 518.53 519.71 518.54 519.68 518.57 519.62 518.61 519.58 518.66 519.49 518.77 519.28 518.78 519.26 518.81 519.2 518.86 519.09 518.99 518.81 519 518.76 519.02 518.66 519.04 518.58 519.06 518.5 519.1 518.43 519.13 518.37 519.14 518.33 519.23 518.19 519.24 518.16 519.24 518.15 519.3 518 519.45 517.6 519.56 517.32 519.62 517.21 519.64 517.17 519.8 516.92 519.85 516.82 519.88 516.74 519.91 516.68 519.93 516.61 519.95 516.57 519.98 516.48 520 516.37 520.01 516.34 520.06 516.17 520.11 516 520.11 515.98 520.18 515.76 520.2 515.69 520.28 515.47 520.36 515.28 520.37 515.26 520.4 515.19 520.5 514.96 520.5 514.95 520.51 514.94 520.61 514.62 520.77 514.35 520.86 514.13 520.97 513.87 521.02 513.74 521.03 513.72 521.07 513.62 521.16 513.37 521.26 513.1 521.35 512.86 521.37 512.79 521.41 512.62 521.42 512.56 521.47 512.35 521.49 512.23 521.5 512.2 521.53 512.09 521.55 512.03 521.65 511.73 521.66 511.67 521.69 511.58 521.72 511.5 521.75 511.38 521.76 511.35 521.81 511.26 521.86 511.15 521.94 510.98 521.95 510.95 521.99 510.84 522.05 510.7 522.12 510.53 522.12 510.44 522.12 510.36 522.09 510.29 522.04 510.13 521.99 510.05 521.97 509.98 521.94 509.82 521.94 509.74 521.92 509.57 521.91 509.51 521.87 509.34 521.87 509.33 521.82 509.16 521.81 509.09 521.8 508.93 521.75 508.61 Z"/>
</g></svg>