<svg xmlns="http://www.w3.org/2000/svg" version="1.2" baseProfile="tiny" stroke-linecap="round" stroke-linejoin="round" viewBox="295.5 378.7 40.55 54.12"><g xmlns="http://www.w3.org/2000/svg" id="Viana">
<path d="M 305.35 378.7 305.36 378.73 305.37 378.74 305.42 378.87 305.43 378.88 305.45 378.93 305.48 379 305.57 379.22 305.68 379.48 305.72 379.57 305.88 379.97 305.9 380.01 305.91 380.03 305.93 380.07 305.93 380.09 306.03 380.31 306.11 380.52 306.13 380.56 306.13 380.57 306.25 380.84 306.25 380.85 306.26 380.86 306.4 381.19 306.41 381.22 306.41 381.23 306.42 381.28 306.44 381.44 306.45 381.61 306.46 381.7 306.46 381.72 306.46 381.73 306.47 381.83 306.47 381.88 306.48 381.9 306.5 382.05 306.5 382.05 306.56 382.44 306.56 382.47 306.56 382.48 306.58 382.57 306.58 382.58 306.59 382.64 306.59 382.68 306.63 382.91 306.68 383.18 306.7 383.35 306.77 383.8 306.8 383.95 306.8 384 306.84 384.2 306.85 384.25 306.86 384.32 306.88 384.44 306.89 384.51 306.9 384.56 306.91 384.66 306.93 384.77 306.94 384.84 306.97 385.01 306.98 385.03 306.99 385.11 307.02 385.28 307.08 385.68 307.08 385.7 307.13 386.05 307.17 386.29 307.2 386.48 307.21 386.57 307.21 386.6 307.22 386.63 307.23 386.72 307.24 386.75 307.25 386.84 307.25 386.86 307.25 386.89 307.28 387.07 307.29 387.16 307.29 387.18 307.3 387.19 307.34 387.5 307.34 387.51 307.35 387.57 307.36 387.65 307.39 387.84 307.39 387.88 307.4 387.95 307.4 387.96 307.42 388.08 307.45 388.28 307.45 388.29 307.51 388.73 307.53 388.89 307.55 389 307.56 389.05 307.56 389.09 307.58 389.2 307.59 389.27 307.59 389.29 307.61 389.45 307.62 389.54 307.62 389.55 307.63 389.56 307.63 389.58 307.63 389.69 307.64 389.71 307.64 389.78 307.65 389.82 307.65 389.88 307.66 389.9 307.66 389.98 307.67 390.01 307.68 390.11 307.69 390.27 307.69 390.27 307.7 390.3 307.71 390.35 307.72 390.44 307.73 390.46 307.76 390.62 307.79 390.81 307.8 390.85 307.84 391.02 307.84 391.05 307.88 391.27 307.91 391.38 307.91 391.4 307.92 391.45 307.93 391.52 307.94 391.53 307.95 391.62 307.96 391.67 307.97 391.71 307.98 391.75 308 391.85 308.01 391.91 308.02 391.96 308.02 391.98 308.03 392.01 308.04 392.08 308.06 392.17 308.08 392.26 308.08 392.3 308.11 392.45 308.12 392.54 308.14 392.62 308.15 392.66 308.18 392.84 308.18 392.87 308.19 392.92 308.23 393.16 308.26 393.32 308.27 393.37 308.28 393.46 308.29 393.53 308.3 393.56 308.3 393.59 308.33 393.74 308.35 393.85 308.36 393.92 308.36 393.93 308.37 393.98 308.39 394.07 308.39 394.1 308.4 394.17 308.42 394.27 308.43 394.33 308.43 394.34 308.45 394.44 308.47 394.54 308.48 394.57 308.5 394.72 308.51 394.76 308.57 395.06 308.58 395.17 308.59 395.18 308.59 395.23 308.6 395.26 308.6 395.27 308.64 395.51 308.64 395.54 308.68 395.82 308.7 395.96 308.72 396.03 308.76 396.2 308.78 396.25 308.79 396.3 308.81 396.3 308.83 396.3 309.04 396.31 309.12 396.31 309.15 396.31 309.17 396.31 309.24 396.31 309.36 396.31 309.39 396.31 309.41 396.31 309.57 396.31 309.76 396.31 309.81 396.31 309.94 396.32 310.05 396.32 310.15 396.32 310.22 396.32 310.23 396.32 310.24 396.32 310.25 396.32 310.26 396.32 310.29 396.32 310.41 396.32 310.45 396.32 310.61 396.33 310.73 396.33 310.92 396.33 310.96 396.33 310.97 396.33 310.98 396.33 311 396.33 311.01 396.33 311.14 396.33 311.16 396.33 311.21 396.33 311.22 396.33 311.24 396.33 311.26 396.34 311.94 396.36 312 396.37 312.71 396.4 312.79 396.4 312.83 396.4 312.96 396.41 312.98 396.41 313.13 396.42 313.21 396.42 313.22 396.42 313.25 396.42 313.39 396.43 313.48 396.43 313.49 396.43 313.51 396.43 313.54 396.44 313.6 396.44 313.76 396.45 313.81 396.45 313.83 396.45 314.22 396.47 314.23 396.47 314.45 396.48 314.61 396.49 314.63 396.49 314.82 396.5 314.84 396.5 314.93 396.5 315.05 396.51 315.07 396.51 315.23 396.51 315.29 396.52 315.34 396.52 315.37 396.52 315.55 396.51 315.57 396.51 315.61 396.52 315.64 396.52 315.69 396.52 315.83 396.52 315.86 396.52 315.88 396.52 316.01 396.53 316.02 396.53 316.03 396.53 316.18 396.54 316.27 396.54 316.51 396.55 316.87 396.56 317.01 396.57 317.1 396.57 317.21 396.58 317.23 396.58 317.41 396.58 317.45 396.58 317.63 396.59 318.11 395.83 318.12 395.82 318.14 395.79 318.15 395.78 318.17 395.74 318.27 395.58 318.27 395.57 318.28 395.56 318.37 395.41 318.47 395.26 318.55 395.13 318.64 394.99 318.7 394.89 318.76 394.8 318.81 394.71 318.92 394.68 319 394.66 319.18 394.61 319.22 394.59 319.34 394.51 319.38 394.49 319.42 394.46 319.46 394.44 319.47 394.43 319.6 394.34 319.64 394.31 319.66 394.31 319.69 394.29 319.7 394.29 319.76 394.26 319.78 394.26 319.81 394.25 319.9 394.21 319.95 394.19 319.97 394.18 320.02 394.16 320.12 394.12 320.15 394.1 320.2 394.09 320.23 394.08 320.46 393.98 320.51 393.96 320.58 393.93 320.61 393.92 320.74 393.86 320.82 393.83 320.84 393.82 320.85 393.82 321.04 393.74 321.22 393.66 321.26 393.64 321.42 393.57 321.46 393.56 321.6 393.49 321.75 393.42 321.87 393.37 321.88 393.37 321.94 393.34 321.96 393.34 321.99 393.32 322.09 393.28 322.13 393.26 322.24 393.22 322.26 393.2 322.27 393.2 322.51 393.1 322.86 392.94 323.07 392.85 323.18 392.8 323.24 392.78 323.26 392.77 323.29 392.75 323.28 392.8 323.26 392.86 323.25 392.93 323.2 393.09 323.16 393.26 323.15 393.28 323.05 393.65 322.99 393.86 322.98 393.89 322.98 393.92 322.96 393.97 322.92 394.12 322.92 394.14 322.92 394.23 322.92 394.28 322.92 394.32 322.92 394.36 322.92 394.41 322.92 394.52 322.93 394.68 322.92 394.73 322.91 394.78 322.91 394.8 322.89 394.89 322.88 394.93 322.86 395.01 322.85 395.07 322.84 395.16 322.82 395.29 322.79 395.4 322.79 395.42 322.77 395.53 322.77 395.55 322.79 395.57 322.81 395.59 322.82 395.61 322.87 395.68 322.91 395.74 322.95 395.8 322.98 395.83 323.01 395.87 323.05 395.89 323.08 395.92 323.11 395.94 323.12 395.96 323.15 395.99 323.17 396.03 323.19 396.05 323.22 396.07 323.25 396.1 323.29 396.13 323.33 396.16 323.35 396.18 323.38 396.21 323.39 396.24 323.4 396.27 323.41 396.33 323.41 396.38 323.41 396.43 323.4 396.48 323.39 396.54 323.39 396.6 323.39 396.66 323.4 396.78 323.44 396.84 323.5 396.97 323.55 397.05 323.6 397.14 323.64 397.22 323.69 397.3 323.74 397.4 323.78 397.47 323.8 397.51 323.82 397.56 323.83 397.6 323.85 397.65 323.86 397.72 323.87 397.74 323.89 397.75 323.92 397.77 323.93 397.78 323.94 397.81 323.94 397.82 323.96 397.87 323.98 397.96 324.01 398.05 324.02 398.09 324.03 398.11 324.03 398.17 324.04 398.23 324.03 398.3 324.04 398.34 324.06 398.38 324.1 398.42 324.13 398.46 324.14 398.49 324.14 398.51 324.14 398.55 324.14 398.61 324.15 398.67 324.16 398.71 324.18 398.73 324.23 398.81 324.27 398.85 324.37 398.95 324.42 399.02 324.48 399.1 324.49 399.11 324.55 399.17 324.58 399.2 324.66 399.27 324.73 399.33 324.74 399.35 324.77 399.37 324.82 399.42 324.86 399.45 324.89 399.48 324.93 399.52 324.96 399.55 325.03 399.61 325.07 399.65 325.22 399.79 325.23 399.8 325.27 399.84 325.5 400.04 325.53 400.07 325.6 400.14 325.63 400.17 325.69 400.23 325.71 400.25 325.72 400.26 325.78 400.31 325.81 400.34 325.82 400.35 325.83 400.36 325.83 400.38 325.83 400.39 325.88 400.52 325.93 400.73 325.98 400.87 325.99 400.88 326.08 401.13 326.09 401.16 326.24 401.58 326.31 401.77 326.33 401.84 326.34 401.87 326.44 402.17 326.53 402.38 326.63 402.64 326.79 403.05 326.83 403.17 326.84 403.18 326.88 403.29 326.88 403.31 326.99 403.57 327.07 403.64 327.1 403.68 327.29 403.85 327.4 403.95 327.41 403.96 327.47 404.01 327.5 404.04 327.53 404.07 327.55 404.09 327.56 404.09 327.62 404.15 327.64 404.18 327.65 404.21 327.67 404.24 327.69 404.28 327.69 404.29 327.77 404.47 327.87 404.66 327.89 404.72 328 404.96 328.04 405.04 328.1 405.14 328.14 405.24 328.15 405.26 328.16 405.28 328.18 405.32 328.19 405.34 328.21 405.37 328.23 405.43 328.25 405.48 328.26 405.49 328.27 405.51 328.28 405.55 328.3 405.65 328.3 405.68 328.31 405.7 328.32 405.75 328.35 405.92 328.41 406.15 328.41 406.16 328.44 406.3 328.47 406.43 328.48 406.46 328.51 406.6 328.53 406.65 328.53 406.7 328.5 406.73 328.46 406.77 328.43 406.83 328.4 406.89 328.38 406.94 328.38 406.99 328.37 407.02 328.37 407.07 328.38 407.14 328.38 407.21 328.39 407.32 328.4 407.39 328.4 407.47 328.4 407.54 328.4 407.61 328.4 407.64 328.41 407.67 328.43 407.71 328.47 407.78 328.5 407.84 328.55 407.92 328.58 407.96 328.6 408 328.62 408.03 328.62 408.06 328.61 408.1 328.62 408.16 328.63 408.35 328.67 408.88 328.68 409.05 328.7 409.37 328.74 409.89 328.76 410.24 328.78 410.46 328.78 410.55 328.78 410.62 328.78 410.68 328.78 410.72 328.79 411.14 328.79 411.35 328.79 411.39 328.79 411.42 328.79 411.58 328.79 411.61 328.8 411.63 328.8 411.65 328.8 411.71 328.81 411.81 328.83 412.04 328.83 412.08 328.84 412.19 328.84 412.2 328.86 412.41 328.86 412.45 328.88 412.71 328.88 412.75 328.89 412.76 328.89 412.82 328.9 412.94 328.91 413.07 328.91 413.16 328.91 413.24 328.92 413.33 328.92 413.4 328.92 413.41 328.93 413.61 328.93 413.62 328.94 413.76 328.95 413.78 328.95 413.89 328.95 413.9 328.96 413.96 328.96 414.02 328.96 414.07 328.97 414.22 328.97 414.26 328.97 414.36 328.97 414.37 328.97 414.38 328.99 414.58 328.99 414.7 328.99 414.84 329 415.03 329.01 415.18 329.01 415.23 329.01 415.32 329.02 415.37 329.02 415.41 329.02 415.5 329.02 415.58 329.03 415.62 329.05 415.72 329.06 415.77 329.06 415.83 329.06 415.89 329.06 416.04 329.06 416.21 329.06 416.36 329.06 416.46 329.06 416.54 329.08 416.61 329.09 416.64 329.08 416.73 329.07 416.89 329.06 416.97 329.05 417.04 329.03 417.1 329.03 417.12 329.03 417.2 329.03 417.34 329.02 417.39 329.01 417.42 329 417.44 328.99 417.46 328.98 417.47 328.98 417.48 328.98 417.51 328.97 417.56 328.97 417.62 328.97 417.68 328.97 417.73 328.97 417.75 328.97 417.78 328.96 417.8 328.96 417.81 328.94 417.85 328.93 417.89 328.92 417.91 328.92 417.92 328.9 418 328.89 418.04 328.88 418.08 328.87 418.13 328.87 418.21 328.87 418.24 328.87 418.28 328.84 418.37 328.83 418.41 328.82 418.48 328.81 418.59 328.8 418.66 328.79 418.76 328.78 418.85 328.78 418.92 328.78 419.01 328.77 419.09 328.77 419.14 328.77 419.16 328.77 419.24 328.77 419.27 328.77 419.29 328.76 419.35 328.78 419.41 328.84 419.57 328.85 419.58 328.85 419.59 328.86 419.6 328.94 419.81 329.03 420.04 329.06 420.12 329.11 420.24 329.15 420.36 329.17 420.41 329.2 420.52 329.23 420.63 329.24 420.65 329.25 420.67 329.26 420.7 329.27 420.71 329.44 421.06 329.44 421.08 329.45 421.09 329.56 421.32 329.73 421.71 329.74 421.73 329.75 421.74 329.76 421.76 329.78 421.81 329.79 421.82 329.8 421.85 329.82 421.88 329.97 422.12 330.13 422.39 330.16 422.43 330.26 422.62 330.29 422.68 330.3 422.7 330.31 422.71 330.52 423.11 330.64 423.32 330.65 423.34 330.8 423.62 330.89 423.77 330.94 423.88 330.95 423.9 330.96 423.91 330.99 423.98 330.99 424 331 424.02 331.01 424.05 331.01 424.06 331.02 424.09 331.03 424.11 331.09 424.28 331.12 424.36 331.12 424.37 331.21 424.62 331.34 424.61 332.22 424.53 332.45 424.46 332.96 424.3 332.98 424.3 333.01 424.29 333.09 424.26 333.66 424.19 333.81 424.18 333.85 424.18 334.04 424.16 334.39 424.13 335.05 424.02 335.13 424.01 335.22 423.99 335.26 424 335.46 424.04 335.77 424.1 335.78 424.1 335.85 424.1 335.92 424.08 335.99 424.04 336.02 424.02 336.03 424.01 336.03 424.05 336.04 424.09 336.04 424.14 336.03 424.19 336.02 424.24 335.99 424.28 335.95 424.32 335.9 424.34 335.88 424.36 335.87 424.38 335.87 424.42 335.87 424.47 335.87 424.5 335.85 424.53 335.82 424.56 335.77 424.6 335.73 424.63 335.71 424.67 335.7 424.71 335.7 424.77 335.71 424.82 335.74 424.88 335.77 424.93 335.78 424.98 335.78 425.04 335.77 425.1 335.75 425.16 335.73 425.21 335.7 425.24 335.66 425.29 335.6 425.34 335.54 425.39 335.49 425.44 335.47 425.46 335.46 425.5 335.45 425.55 335.45 425.56 335.43 425.59 335.4 425.64 335.36 425.67 335.34 425.68 335.32 425.69 335.26 425.75 335.21 425.81 335.19 425.82 335.16 425.85 335.13 425.9 335.1 425.96 335.08 426 335.04 426.02 335.01 426.07 334.99 426.11 334.97 426.15 334.96 426.17 334.94 426.17 334.93 426.19 334.93 426.2 334.92 426.25 334.91 426.26 334.9 426.28 334.9 426.29 334.88 426.39 334.87 426.43 334.87 426.46 334.89 426.53 334.86 426.53 334.67 426.5 334.16 426.37 334.06 426.35 334.04 426.35 333.39 426.21 332.83 426.08 332.81 426.07 332.69 426.05 332.56 426.05 332.47 426.05 332.43 426.06 332.35 426.09 332.27 426.13 332.2 426.17 332.15 426.23 332.11 426.29 332.09 426.35 332.08 426.43 332.08 426.45 332.09 426.51 332.09 426.52 332.1 426.63 332.11 426.7 332.14 426.87 332.17 427.04 332.2 427.2 332.22 427.31 332.24 427.36 332.27 427.42 332.3 427.48 332.33 427.56 332.38 427.67 332.45 427.8 332.5 427.91 332.54 428.02 332.57 428.09 332.59 428.12 332.64 428.23 332.72 428.38 332.79 428.52 332.84 428.6 332.91 428.73 332.95 428.79 332.99 428.86 333.02 428.9 333.11 429.06 333.15 429.14 333.21 429.26 333.24 429.31 333.25 429.33 333.26 429.37 333.31 429.46 333.13 429.67 333.05 429.79 332.89 429.97 332.88 429.99 332.84 430.03 332.78 430.08 332.69 430.17 332.59 430.24 332.49 430.3 332.38 430.35 332.27 430.41 332.15 430.44 332.04 430.45 331.94 430.45 331.84 430.43 331.75 430.41 331.64 430.37 331.54 430.33 331.42 430.28 331.29 430.21 331.19 430.14 331.09 430.08 330.99 430 330.97 429.98 330.91 429.92 330.84 429.86 330.79 429.8 330.73 429.75 330.66 429.68 330.58 429.61 330.49 429.53 330.41 429.46 330.35 429.42 330.3 429.37 330.25 429.33 330.18 429.28 330.13 429.24 330.06 429.19 329.99 429.15 329.93 429.1 329.85 429.05 329.77 429 329.71 428.96 329.65 428.93 329.57 428.89 329.46 428.83 329.36 428.78 329.29 428.76 329.2 428.74 329.13 428.72 329.04 428.71 328.97 428.7 328.89 428.69 328.81 428.69 328.73 428.69 328.65 428.69 328.53 428.7 328.37 428.71 328.29 428.72 328.21 428.73 328.12 428.74 328.03 428.76 327.92 428.78 327.83 428.79 327.78 428.8 327.71 428.81 327.63 428.82 327.55 428.82 327.44 428.82 327.35 428.82 327.23 428.8 327.05 428.77 326.91 428.73 326.78 428.69 326.67 428.65 326.57 428.61 326.42 428.54 326.32 428.49 326.2 428.43 326.11 428.36 326 428.28 325.9 428.2 325.83 428.14 325.77 428.09 325.66 427.99 325.55 427.88 325.39 427.71 325.3 427.61 325.23 427.53 325.12 427.41 325.01 427.29 324.9 427.18 324.78 427.05 324.66 426.92 324.58 426.83 324.49 426.74 324.45 426.69 324.34 426.6 324.25 426.51 324.19 426.46 324.14 426.42 324.06 426.35 323.95 426.26 323.82 426.17 323.78 426.15 323.71 426.1 323.62 426.06 323.56 426.04 323.47 426 323.38 425.98 323.31 425.96 323.22 425.93 323.12 425.93 323.04 425.93 322.94 425.92 322.88 425.93 322.79 425.95 322.7 425.97 322.61 426 322.53 426.03 322.46 426.07 322.38 426.11 322.31 426.15 322.24 426.2 322.18 426.25 322.1 426.31 322.05 426.37 321.97 426.46 321.89 426.56 321.81 426.65 321.61 426.82 321.59 426.84 321.56 426.87 321.5 426.93 321.45 426.96 321.39 427.02 321.31 427.07 321.23 427.13 321.13 427.19 321.07 427.24 321 427.29 320.95 427.33 320.92 427.37 320.89 427.41 320.85 427.46 320.83 427.49 320.81 427.52 320.8 427.57 320.78 427.61 320.78 427.66 320.78 427.7 320.78 427.73 320.79 427.77 320.8 427.83 320.81 427.87 320.83 427.91 320.84 427.96 320.86 428.01 320.89 428.08 320.92 428.12 320.97 428.19 321 428.25 321.06 428.33 321.11 428.4 321.15 428.45 321.19 428.49 321.23 428.54 321.27 428.58 321.32 428.63 321.38 428.69 321.46 428.77 321.54 428.83 321.62 428.91 321.69 428.99 321.74 429.04 321.77 429.09 321.82 429.16 321.87 429.25 321.92 429.32 321.96 429.4 321.99 429.46 322.01 429.54 322.03 429.62 322.05 429.7 322.07 429.77 322.12 429.88 322.16 429.97 322.23 430.12 322.25 430.16 322.27 430.19 322.29 430.27 322.31 430.35 322.33 430.44 322.34 430.51 322.35 430.6 322.34 430.77 322.33 430.9 322.32 431.07 322.31 431.23 322.29 431.33 322.28 431.43 322.24 431.56 322.19 431.7 322.17 431.78 322.1 431.9 322.06 431.96 322 432.01 321.93 432.08 321.84 432.15 321.76 432.19 321.65 432.24 321.58 432.27 321.47 432.31 321.37 432.33 321.3 432.35 321.22 432.36 321.1 432.37 320.97 432.38 320.84 432.39 320.73 432.39 320.6 432.38 320.5 432.37 320.4 432.37 320.23 432.38 320.01 432.42 319.85 432.44 319.73 432.48 319.58 432.52 319.47 432.56 319.38 432.59 319.23 432.64 319.12 432.67 318.98 432.72 318.84 432.76 318.72 432.78 318.58 432.8 318.39 432.79 318.25 432.78 318.12 432.75 318.04 432.72 317.96 432.69 317.88 432.65 317.78 432.58 317.71 432.52 317.64 432.45 317.58 432.38 317.53 432.31 317.51 432.25 317.49 432.21 317.49 432.17 317.49 432.12 317.5 432.07 317.53 431.98 317.55 431.9 317.59 431.79 317.62 431.69 317.65 431.58 317.68 431.47 317.68 431.37 317.68 431.3 317.68 431.23 317.67 431.15 317.66 431.08 317.65 430.99 317.64 430.9 317.64 430.84 317.63 430.81 317.6 430.75 317.55 430.67 317.5 430.58 317.43 430.47 317.39 430.36 317.33 430.2 317.29 430.09 317.23 429.97 317.19 429.89 317.16 429.82 317.12 429.73 317.11 429.67 317.08 429.57 317.04 429.44 317.01 429.36 316.98 429.28 316.96 429.24 316.93 429.18 316.9 429.1 316.86 429.04 316.8 428.94 316.76 428.87 316.75 428.81 316.75 428.76 316.74 428.68 316.73 428.65 316.71 428.62 316.69 428.59 316.67 428.56 316.65 428.46 316.65 428.39 316.65 428.35 316.63 428.12 316.6 427.81 316.58 427.59 316.57 427.54 316.57 427.39 316.52 427.33 316.45 427.27 316.37 427.23 316.33 427.22 316.24 427.21 316.11 427.18 315.9 427.11 315.78 427.06 315.72 427.03 315.66 427.02 315.58 426.99 315.52 426.97 315.45 426.94 315.35 426.89 315.31 426.87 315.2 426.79 315.16 426.76 315.1 426.73 315 426.67 314.94 426.65 314.9 426.64 314.87 426.63 314.83 426.63 314.8 426.63 314.77 426.63 314.74 426.64 314.7 426.66 314.67 426.67 314.64 426.69 314.61 426.71 314.58 426.73 314.55 426.75 314.52 426.78 314.51 426.79 314.49 426.82 314.48 426.86 314.46 426.9 314.45 426.94 314.44 426.97 314.43 427.01 314.42 427.06 314.41 427.13 314.39 427.2 314.38 427.25 314.37 427.26 314.36 427.31 314.33 427.42 314.31 427.5 314.29 427.55 314.27 427.63 314.24 427.74 314.2 427.87 314.17 427.95 314.14 428.05 314.11 428.09 314.09 428.13 314.05 428.18 314.02 428.23 313.99 428.28 313.97 428.31 313.94 428.36 313.91 428.39 313.88 428.44 313.84 428.48 313.81 428.51 313.78 428.55 313.73 428.58 313.7 428.61 313.66 428.65 313.62 428.68 313.57 428.73 313.53 428.76 313.48 428.79 313.44 428.81 313.39 428.83 313.34 428.84 313.29 428.85 313.24 428.85 313.18 428.86 313.12 428.86 313.05 428.86 312.98 428.85 312.9 428.84 312.84 428.83 312.79 428.83 312.73 428.82 312.67 428.8 312.62 428.79 312.56 428.78 312.51 428.77 312.44 428.75 312.38 428.73 312.32 428.71 312.23 428.68 312.15 428.65 312.05 428.62 311.97 428.59 311.87 428.54 311.77 428.49 311.71 428.46 311.65 428.42 311.6 428.39 311.55 428.36 311.48 428.32 311.41 428.27 311.36 428.23 311.31 428.2 311.25 428.15 311.21 428.12 311.16 428.08 311.1 428.03 311.03 427.97 310.97 427.91 310.91 427.85 310.87 427.79 310.83 427.74 310.8 427.69 310.77 427.63 310.74 427.58 310.71 427.52 310.69 427.46 310.68 427.41 310.66 427.34 310.65 427.29 310.64 427.24 310.64 427.19 310.63 427.14 310.63 427.07 310.63 426.98 310.63 426.95 310.63 426.88 310.64 426.84 310.64 426.78 310.64 426.73 310.65 426.67 310.66 426.61 310.66 426.58 310.65 426.53 310.62 426.45 310.57 426.32 310.52 426.21 310.45 426.09 310.34 425.93 310.25 425.81 310.16 425.7 310.09 425.64 310.01 425.6 309.79 425.5 309.6 425.44 309.38 425.38 309.15 425.33 308.91 425.31 308.65 425.29 308.52 425.3 308.3 425.33 308.15 425.34 308.04 425.35 307.86 425.36 307.69 425.38 307.54 425.4 307.38 425.43 307.22 425.46 307.1 425.48 306.9 425.52 306.79 425.53 306.71 425.54 306.65 425.55 306.56 425.56 306.48 425.57 306.41 425.58 306.32 425.59 306.26 425.6 306.21 425.6 306.17 425.6 306.12 425.6 306.07 425.6 306.03 425.6 305.97 425.59 305.92 425.58 305.89 425.58 305.84 425.57 305.78 425.55 305.74 425.54 305.68 425.53 305.64 425.52 305.6 425.49 305.57 425.48 305.53 425.47 305.5 425.45 305.46 425.43 305.41 425.41 305.37 425.4 305.33 425.37 305.3 425.35 305.27 425.31 305.25 425.3 305.21 425.26 305.16 425.21 305.1 425.16 305.07 425.16 304.97 425.11 304.94 425.1 304.88 425.07 304.83 425.04 304.79 425.03 304.73 425 304.69 424.98 304.65 424.97 304.62 424.95 304.58 424.94 304.55 424.93 304.51 424.92 304.47 424.91 304.42 424.9 304.38 424.89 304.33 424.87 304.27 424.86 304.23 424.85 304.17 424.84 304.12 424.82 304.08 424.81 304.05 424.8 304 424.8 303.97 424.79 303.94 424.79 303.91 424.78 303.87 424.78 303.83 424.77 303.77 424.77 303.74 424.77 303.7 424.76 303.65 424.75 303.6 424.75 303.57 424.75 303.52 424.75 303.47 424.75 303.43 424.74 303.4 424.74 303.36 424.74 303.31 424.74 303.27 424.73 303.24 424.73 303.21 424.73 303.18 424.73 303.16 424.72 303.15 424.73 303.13 424.72 303.11 424.72 303.09 424.72 303.05 424.72 303.03 424.72 302.99 424.72 302.93 424.71 302.9 424.71 302.84 424.72 302.78 424.74 302.76 424.74 302.74 424.75 302.71 424.76 302.67 424.76 302.66 424.75 302.65 424.77 302.64 424.81 302.62 424.85 302.6 424.9 302.58 424.95 302.57 424.98 302.56 425.02 302.55 425.05 302.54 425.1 302.54 425.12 302.54 425.14 302.54 425.17 302.47 425.1 302.43 425.05 302.4 425.02 302.33 424.94 302.3 424.9 302.24 424.84 302.23 424.82 302.22 424.79 302.19 424.72 302.15 424.66 302.11 424.56 302.07 424.46 302.04 424.4 302.03 424.35 301.99 424.25 301.95 424.18 301.9 424.08 301.87 424.04 301.86 424.01 301.85 424 301.81 423.94 301.46 423.28 301.18 422.81 301.08 422.65 301.01 422.53 300.92 422.4 300.86 422.3 300.74 422.07 300.67 421.95 300.64 421.89 300.57 421.93 300.51 421.87 300.46 421.82 300.42 421.78 300.39 421.72 300.31 421.59 300.24 421.49 300.2 421.42 300.17 421.37 300.15 421.32 300.11 421.23 300.07 421.14 300 421.04 299.97 420.99 299.95 420.97 299.93 420.95 299.79 420.85 299.71 420.78 299.64 420.71 299.57 420.62 299.49 420.55 299.44 420.46 299.38 420.37 299.29 420.25 299.18 420.14 299.07 420.02 299 419.93 298.96 419.86 298.94 419.81 298.93 419.78 298.93 419.74 298.9 419.7 298.87 419.62 298.8 419.49 298.8 419.47 298.8 419.44 298.79 419.41 298.79 419.37 298.78 419.33 298.76 419.27 298.73 419.2 298.71 419.14 298.63 418.93 298.54 418.71 298.49 418.56 298.45 418.45 298.4 418.36 298.34 418.27 298.3 418.2 298.26 418.09 298.23 418.03 298.19 417.98 298.15 417.91 298.1 417.84 298.03 417.77 298.02 417.76 297.98 417.72 297.95 417.7 297.9 417.72 297.78 417.77 297.65 417.84 297.49 417.92 297.43 417.96 297.33 418.02 297.1 418.07 296.92 418.12 296.67 418.22 296.57 418.28 296.56 418.26 296.53 418.17 296.51 418.12 296.46 417.86 296.44 417.74 296.42 417.63 296.4 417.55 296.38 417.47 296.37 417.43 296.37 417.4 296.36 417.38 296.36 417.35 296.35 417.27 296.34 417.18 296.33 417.17 296.32 417.13 296.31 417.1 296.29 417.04 296.27 416.93 296.26 416.89 296.25 416.87 296.23 416.79 296.19 416.63 296.18 416.6 296.07 416.14 295.99 415.81 295.92 415.56 295.85 415.27 295.82 415.13 295.76 414.88 295.7 414.66 295.7 414.65 295.69 414.64 295.65 414.46 295.62 414.34 295.63 414.27 295.65 414.2 295.66 414.12 295.66 414.08 295.67 414.03 295.67 414 295.69 413.85 295.72 413.67 295.73 413.62 295.73 413.58 295.72 413.4 295.71 413.26 295.71 413.17 295.7 412.96 295.7 412.94 295.69 412.7 295.68 412.68 295.67 412.52 295.67 412.49 295.67 412.48 295.66 412.34 295.63 412.12 295.62 412.05 295.6 411.82 295.56 411.52 295.55 411.39 295.54 411.33 295.54 411.31 295.53 411.2 295.53 411.11 295.53 411.04 295.52 410.79 295.52 410.78 295.52 410.76 295.51 410.68 295.51 410.63 295.5 410.52 295.5 410.52 295.5 410.36 295.5 410.34 295.55 410.25 295.57 410.22 295.57 410.2 295.61 410.14 295.68 410.01 295.86 409.67 295.88 409.64 295.89 409.63 295.92 409.59 295.93 409.59 296 409.55 296.02 409.54 296.06 409.51 296.12 409.48 296.39 409.32 296.51 409.26 296.6 409.22 296.81 409.12 296.99 409.03 297.06 409 297.08 408.99 297.1 408.98 297.11 408.97 297.28 408.89 297.34 408.86 297.4 408.83 297.52 408.77 297.58 408.74 297.63 408.72 297.87 408.6 297.89 408.59 298.13 408.47 298.2 408.44 298.21 408.43 298.35 408.37 298.43 408.34 298.44 408.33 298.52 408.3 298.63 408.26 298.68 408.24 298.89 408.16 299.13 408.07 299.16 408.06 299.34 407.99 299.37 407.98 299.38 407.98 299.39 407.98 299.4 407.98 299.47 407.98 299.51 407.97 299.55 407.97 299.62 407.97 299.65 407.97 299.67 407.97 299.69 407.97 299.73 407.97 299.85 407.96 299.87 407.96 299.95 407.96 299.99 407.95 300.06 407.95 300.18 407.94 300.31 407.94 300.4 407.93 300.62 407.92 300.68 407.92 300.82 407.91 300.95 407.91 300.98 407.9 301.01 407.9 301.18 407.89 301.22 407.89 301.24 407.89 301.29 407.89 301.35 407.88 301.4 407.88 301.46 407.87 301.51 407.87 301.56 407.86 301.57 407.86 301.74 407.84 301.87 407.83 301.96 407.82 302.02 407.81 302.05 407.81 302.11 407.8 302.17 407.79 302.23 407.79 302.36 407.79 302.42 407.79 302.47 407.79 302.74 407.79 302.87 407.79 302.89 407.79 303.06 407.79 303.07 407.79 303.12 407.79 303.16 407.78 303.25 407.78 303.29 407.78 303.44 407.76 303.51 407.75 303.62 407.73 304.18 407.69 304.51 407.67 304.57 407.67 304.6 407.66 304.61 407.65 304.62 407.62 304.62 407.57 304.62 407.5 304.6 407.4 304.56 407.34 304.53 407.28 304.52 407.22 304.47 406.98 304.43 406.76 304.4 406.57 304.39 406.53 304.38 406.48 304.36 406.39 304.36 406.36 304.35 406.26 304.35 406.19 304.35 406.14 304.34 406.09 304.34 406.01 304.34 405.99 304.33 405.84 304.33 405.82 304.32 405.67 304.32 405.67 304.3 405.43 304.3 405.31 304.29 405.22 304.29 405.21 304.28 405.19 304.28 405.18 304.27 405.17 304.18 405.05 303.98 404.76 303.92 404.67 303.9 404.65 303.88 404.64 303.88 404.64 303.83 404.61 303.8 404.58 303.75 404.53 303.69 404.46 303.66 404.39 303.6 404.27 303.56 404.11 303.53 404.02 303.51 403.9 303.5 403.9 303.48 403.87 303.44 403.78 303.37 403.72 303.34 403.69 303.32 403.66 303.27 403.59 303.19 403.4 303.17 403.31 303.15 403.27 303.07 403.14 302.98 402.97 302.88 402.81 302.87 402.78 302.87 402.78 302.86 402.57 302.86 402.24 302.86 401.79 302.86 401.76 302.86 401.73 302.84 401.44 302.84 401.43 302.81 401.16 302.78 401.11 302.75 400.87 302.75 400.86 302.75 400.83 302.75 400.76 302.76 400.73 302.77 400.71 302.69 400.59 302.55 400.47 302.55 400.45 302.54 400.42 302.51 400.42 302.48 400.35 302.44 400.09 302.41 400.09 302.38 400.13 302.33 400.05 302.27 399.95 302.22 399.85 302.04 399.31 301.98 399.15 302.11 398.7 302.13 398.64 302.18 398.48 302.19 398.45 302.22 398.33 302.24 398.28 302.24 398.27 302.23 397.86 302.26 397.74 302.25 397.38 302.25 397.27 302.23 397.14 302.22 397.1 302.21 397.09 302.21 397.08 302.2 397.05 302.21 396.99 302.23 396.94 302.26 396.89 302.27 396.88 302.46 396.62 302.49 396.59 302.5 396.58 302.52 396.56 302.57 396.52 302.83 396.3 302.87 396.26 302.94 396.2 303.01 396.15 303.1 396.07 303.24 395.95 303.27 395.92 303.35 395.85 303.36 395.84 303.38 395.82 303.39 395.82 303.45 395.76 303.48 395.74 303.51 395.71 303.52 395.7 303.54 395.69 303.58 395.64 303.65 395.6 303.79 395.54 303.85 395.51 303.9 395.48 303.99 395.44 304.15 395.37 304.39 395.27 304.69 395.15 304.76 395.13 305.07 395.01 305.08 395.01 305.1 395 305.28 394.93 305.31 394.86 305.31 394.81 305.29 394.72 305.27 394.62 305.26 394.56 305.25 394.46 305.22 394.32 305.21 394.24 305.18 394.06 305.16 393.93 305.16 393.85 305.13 393.81 305.12 393.78 305.09 393.73 305.07 393.68 305.05 393.63 305.01 393.55 304.99 393.5 304.97 393.44 304.96 393.38 304.96 393.31 304.96 393.25 304.97 393.19 304.98 393.13 304.99 393.07 304.98 393.03 304.97 392.97 304.95 392.92 304.92 392.84 304.91 392.79 304.89 392.75 304.88 392.69 304.87 392.63 304.85 392.54 304.83 392.46 304.82 392.41 304.81 392.34 304.8 392.27 304.8 392.21 304.81 392.16 304.81 392.1 304.82 392.02 304.82 391.96 304.82 391.9 304.83 391.87 304.84 391.84 304.85 391.79 304.87 391.74 304.87 391.7 304.87 391.64 304.87 391.59 304.87 391.53 304.87 391.47 304.89 391.4 304.9 391.36 304.92 391.3 304.94 391.25 304.94 391.2 304.94 391.17 304.96 391.1 304.98 391.03 304.99 390.96 304.99 390.9 304.99 390.85 304.99 390.8 304.99 390.76 305 390.67 305.02 390.52 305.03 390.36 304.98 390.14 304.96 390.13 304.92 390.08 304.89 390.05 304.85 390 304.8 389.95 304.77 389.91 304.72 389.84 304.71 389.83 304.67 389.78 304.65 389.75 304.63 389.71 304.62 389.68 304.59 389.62 304.59 389.58 304.56 389.52 304.53 389.43 304.52 389.41 304.51 389.37 304.47 389.26 304.4 389.1 304.33 388.92 304.24 388.68 304.16 388.48 304.13 388.37 304.12 388.28 304.12 388.11 304.12 387.93 304.11 387.75 304.11 387.59 304.1 387.44 304.1 387.27 304.12 387.14 304.13 387.04 304.13 386.75 304.14 386.67 304.13 386.5 304.12 386.35 304.12 386.33 304.1 386.21 304.1 386.17 304.09 386.12 304.08 386.09 304.03 385.89 303.98 385.69 303.89 385.17 303.84 384.89 303.82 384.81 303.79 384.64 303.74 384.31 303.73 384.28 303.73 384.26 303.7 384.09 303.64 383.69 303.63 383.64 303.63 383.61 303.62 383.51 303.58 383.2 303.45 382.72 303.1 381.46 302.98 381.09 302.92 380.83 302.89 380.66 302.86 380.51 302.95 380.39 303.22 380 303.36 379.8 303.42 379.71 303.6 379.45 303.73 379.26 303.75 379.23 303.9 379.01 303.98 378.89 304.03 378.88 304.29 378.81 304.5 378.75 304.63 378.71 304.65 378.71 304.66 378.71 304.83 378.71 305.12 378.7 305.31 378.7 305.35 378.7 Z"/>
</g></svg>