<?xml version="1.0" encoding="UTF-8" standalone="no"?>
<svg
   xmlns:dc="http://purl.org/dc/elements/1.1/"
   xmlns:cc="http://creativecommons.org/ns#"
   xmlns:rdf="http://www.w3.org/1999/02/22-rdf-syntax-ns#"
   xmlns:svg="http://www.w3.org/2000/svg"
   xmlns="http://www.w3.org/2000/svg"
   xmlns:sodipodi="http://sodipodi.sourceforge.net/DTD/sodipodi-0.dtd"
   xmlns:inkscape="http://www.inkscape.org/namespaces/inkscape"
   version="1.2"
   width="800"
   height="642"
   viewBox="0 0 800 642"
   stroke-linecap="round"
   stroke-linejoin="round"
   id="svg49"
   sodipodi:docname="Villaverde turtzioz.svg"
   inkscape:version="0.92.5 (2060ec1f9f, 2020-04-08)">
  <metadata
     id="metadata55">
    <rdf:RDF>
      <cc:Work
         rdf:about="">
        <dc:format>image/svg+xml</dc:format>
        <dc:type
           rdf:resource="http://purl.org/dc/dcmitype/StillImage" />
      </cc:Work>
    </rdf:RDF>
  </metadata>
  <defs
     id="defs53" />
  <sodipodi:namedview
     pagecolor="#ffffff"
     bordercolor="#666666"
     borderopacity="1"
     objecttolerance="10"
     gridtolerance="10"
     guidetolerance="10"
     inkscape:pageopacity="0"
     inkscape:pageshadow="2"
     inkscape:window-width="1848"
     inkscape:window-height="1016"
     id="namedview51"
     showgrid="false"
     inkscape:zoom="1.0397333"
     inkscape:cx="400"
     inkscape:cy="321"
     inkscape:window-x="72"
     inkscape:window-y="27"
     inkscape:window-maximized="1"
     inkscape:current-layer="svg49" />
  <g
     id="Villaverde turtzioz"
     transform="matrix(12.586915,0,0,12.586915,-369.93822,-1324.673)">
    <path
       d="m 42.57,118.8 3.22,-1.07 0.91,-0.29 0.67,-0.08 1.45,0.12 0.64,-0.15 0.37,0.07 0.53,-0.63 1.81,-1.07 0.21,-0.12 1.05,-0.01 0.56,0.18 0.36,0.29 0.09,0.14 0.28,0.26 0.39,0.05 2.13,0.85 1.11,0.97 -0.35,1.07 -0.12,2.12 -0.09,0.54 -0.27,1.54 -0.7,0.69 -0.18,0.41 -0.69,1.41 -0.5,0.5 -0.3,0.12 -1.6,1.06 -0.28,0.22 -0.3,0.27 -0.19,0.13 -0.28,0.36 -0.04,0.01 v 0.01 0.02 l 0.01,0.02 0.02,0.02 0.01,0.03 0.01,0.02 v 0.02 l 0.01,0.02 -0.01,0.02 v 0.03 l -0.01,0.01 -0.02,0.02 -0.05,0.08 -0.01,0.03 -0.01,0.05 v 0.02 l 0.01,0.03 0.01,0.03 v 0.03 l 0.01,0.02 -0.01,0.05 v 0.04 l -0.01,0.07 -0.01,0.03 -0.02,0.05 -0.02,0.02 -0.03,0.02 -0.03,0.01 -0.06,0.04 -0.04,0.04 -0.03,0.06 -0.02,0.05 -0.01,0.03 v 0.02 0.01 l 0.04,0.04 0.02,0.02 0.03,0.04 0.02,0.03 0.01,0.03 0.01,0.04 v 0.03 l 0.01,0.03 v 0.03 l 0.04,0.21 0.03,0.08 0.02,0.01 h 0.03 l 0.11,0.04 0.09,0.05 0.01,0.04 0.01,0.08 -0.02,0.11 v 0.09 0.06 l 0.02,0.04 0.05,0.04 0.05,0.01 h 0.07 l 0.06,0.02 0.05,0.02 0.03,0.04 0.02,0.03 -0.01,0.05 -0.06,0.21 -0.02,0.04 -0.01,0.12 -0.02,0.31 v 0.06 l 0.03,0.06 0.2,0.3 0.08,0.07 0.07,0.08 0.06,0.08 0.03,0.06 0.02,0.11 -0.1,0.03 -0.01,0.06 -0.09,0.04 -0.06,0.05 -0.06,0.09 -0.05,0.07 -0.04,0.08 -0.06,0.08 -0.08,0.05 -0.09,0.06 -0.16,0.08 -0.07,0.06 -0.05,0.08 -0.09,0.17 -0.07,0.13 -0.06,0.06 -0.08,0.08 -0.04,0.05 -0.06,0.11 -0.06,0.17 -0.03,0.09 v 0.11 l 0.03,0.11 0.02,0.14 0.02,0.09 0.12,0.24 0.06,0.19 0.03,0.09 0.01,0.06 0.02,0.09 0.04,0.1 0.01,0.02 0.07,0.06 0.05,0.06 0.03,0.09 0.02,0.04 0.03,0.06 0.05,0.07 0.01,0.08 v 0.06 l -0.03,0.06 -0.04,0.06 -0.06,0.05 -0.07,0.05 -0.04,0.04 -0.02,0.04 v 0.05 l 0.01,0.05 0.02,0.04 0.14,0.22 0.03,0.09 0.04,0.09 0.02,0.08 0.01,0.03 0.04,0.07 0.05,0.07 0.03,0.08 0.06,0.2 0.15,0.24 0.05,0.17 0.21,0.22 0.03,0.18 0.05,0.18 0.04,0.12 0.11,0.11 0.07,0.06 0.1,0.11 0.09,0.18 v 0.05 l -0.04,0.13 -0.02,0.03 -0.07,0.07 -0.09,0.04 -0.05,0.04 -0.06,0.08 -0.04,0.06 -0.01,0.04 -0.01,0.04 0.03,0.05 v 0.07 l -0.01,0.05 -0.01,0.07 -0.02,0.09 -0.03,0.09 -0.02,0.04 -1.11,0.56 -3.96,2 -0.5,-0.33 -0.21,-0.59 -0.14,-0.41 -0.62,-0.61 -0.36,-0.28 -0.76,-0.42 -0.32,-0.35 -0.5,-0.47 -0.23,-0.74 0.06,-0.18 0.31,-0.34 0.44,-0.36 0.22,-1.4 0.06,-0.4 0.08,-0.21 0.16,-0.42 -0.12,-0.32 0.11,-0.18 v -0.05 l 0.01,-0.05 0.1,-0.39 -0.87,-0.53 -0.18,-0.31 -0.11,-0.19 -0.11,-0.14 -0.05,-0.09 0.03,-0.1 0.08,-0.27 0.03,-0.26 0.06,-0.32 v -0.08 l -0.06,-0.22 0.02,-0.13 0.04,-0.09 0.02,-0.11 -0.01,-0.14 0.06,-0.33 0.03,-0.18 -0.05,-0.51 -0.2,-0.53 0.64,-0.93 -0.01,-0.18 -0.07,-0.34 0.24,-0.24 0.06,-0.07 0.05,-0.19 0.19,-0.74 0.03,-0.16 0.03,-0.05 0.02,-0.08 -0.02,-0.56 -0.03,-0.1 0.17,-0.37 -0.54,-0.8 -0.55,-0.54 -0.11,-0.44 -0.16,-0.66 -0.38,-0.38 -0.11,-0.1 -0.13,-0.11 -0.16,-0.11 -0.5,-0.45 -0.16,-0.14 -0.91,-1.14 0.2,-0.29 0.27,-0.2 0.12,-0.32 0.09,-0.19 0.02,-0.12 v -0.17 z"
       id="path46"
       inkscape:connector-curvature="0" />
  </g>
</svg>
