<?xml version="1.0" encoding="UTF-8" standalone="no"?>
<svg
   xmlns:dc="http://purl.org/dc/elements/1.1/"
   xmlns:cc="http://creativecommons.org/ns#"
   xmlns:rdf="http://www.w3.org/1999/02/22-rdf-syntax-ns#"
   xmlns:svg="http://www.w3.org/2000/svg"
   xmlns="http://www.w3.org/2000/svg"
   xmlns:sodipodi="http://sodipodi.sourceforge.net/DTD/sodipodi-0.dtd"
   xmlns:inkscape="http://www.inkscape.org/namespaces/inkscape"
   version="1.2"
   width="800"
   height="642"
   viewBox="0 0 800 642"
   stroke-linecap="round"
   stroke-linejoin="round"
   id="svg16"
   sodipodi:docname="Villabuena.svg"
   inkscape:version="0.92.5 (2060ec1f9f, 2020-04-08)">
  <metadata
     id="metadata22">
    <rdf:RDF>
      <cc:Work
         rdf:about="">
        <dc:format>image/svg+xml</dc:format>
        <dc:type
           rdf:resource="http://purl.org/dc/dcmitype/StillImage" />
      </cc:Work>
    </rdf:RDF>
  </metadata>
  <defs
     id="defs20" />
  <sodipodi:namedview
     pagecolor="#ffffff"
     bordercolor="#666666"
     borderopacity="1"
     objecttolerance="10"
     gridtolerance="10"
     guidetolerance="10"
     inkscape:pageopacity="0"
     inkscape:pageshadow="2"
     inkscape:window-width="1848"
     inkscape:window-height="1016"
     id="namedview18"
     showgrid="false"
     inkscape:zoom="1.0397333"
     inkscape:cx="400"
     inkscape:cy="321"
     inkscape:window-x="72"
     inkscape:window-y="27"
     inkscape:window-maximized="1"
     inkscape:current-layer="svg16" />
  <g
     id="Villabuena de Alava"
     transform="matrix(31.384184,0,0,31.384184,-6677.836,-12204.18)">
    <path
       d="m 231.21,394.38 0.15,0.33 0.17,0.5 0.11,0.4 0.08,0.39 0.02,0.41 -0.06,0.37 -0.15,0.34 -0.22,0.17 -0.18,0.25 -0.24,0.11 -0.27,0.04 -0.21,0.07 -0.09,0.31 -0.07,0.35 -0.08,0.4 -0.06,0.36 0.01,0.26 0.08,0.27 0.04,0.22 -0.1,0.38 -0.08,0.39 -0.08,0.32 0.08,0.36 0.16,0.46 0.19,0.37 0.18,0.41 0.11,0.39 0.04,0.3 0.23,0.38 0.39,0.49 0.33,0.52 0.17,0.29 0.21,0.29 0.22,0.28 0.22,0.37 0.36,0.53 -0.55,0.07 -0.58,-0.07 -0.47,-0.1 -0.39,0.4 -0.24,0.26 -0.33,0.34 -0.47,-0.19 -0.39,-0.2 -0.31,-0.13 -0.48,-0.15 -0.33,-0.1 -0.19,-0.32 -0.12,-0.36 -0.12,-0.44 -0.13,-0.48 -0.18,-0.43 -0.23,-0.38 -0.27,-0.35 -0.33,-0.48 -0.28,-0.48 -0.29,-0.46 -0.2,-0.39 -0.27,-0.42 -0.22,-0.36 -0.2,-0.21 -0.43,0.29 -0.8,-0.25 -0.48,-0.29 -0.66,-0.25 -0.55,-0.21 -0.46,-0.06 -0.39,-0.2 -0.34,-0.13 -0.24,-0.3 -0.26,-0.59 -0.34,-0.92 -0.18,-0.58 -0.17,-0.39 -0.22,-0.32 0.02,-0.29 0.21,-0.26 0.49,-0.16 0.88,-0.33 0.16,-0.12 0.2,-0.46 0.16,-0.32 0.17,-0.3 0.27,-0.26 0.36,-0.25 0.38,-0.18 0.42,-0.1 0.45,-0.13 0.38,-0.14 0.31,-0.16 0.22,-0.24 0.23,-0.36 0.07,-0.28 0.08,-0.23 0.14,-0.25 0.14,-0.1 0.41,0.08 0.19,0.07 0.3,0.01 0.31,-0.06 0.39,-0.25 0.29,-0.36 0.35,-0.3 0.32,-0.23 0.32,-0.22 0.23,-0.13 0.32,0.24 0.29,0.32 0.22,0.22 0.19,0.28 0.24,0.26 0.22,0.34 0.17,0.23 0.12,0.26 0.23,0.41 0.22,0.37 0.12,0.33 0.13,0.36 z"
       id="path13"
       inkscape:connector-curvature="0" />
  </g>
</svg>
