<?xml version="1.0" encoding="UTF-8" standalone="no"?>
<svg
   xmlns:dc="http://purl.org/dc/elements/1.1/"
   xmlns:cc="http://creativecommons.org/ns#"
   xmlns:rdf="http://www.w3.org/1999/02/22-rdf-syntax-ns#"
   xmlns:svg="http://www.w3.org/2000/svg"
   xmlns="http://www.w3.org/2000/svg"
   xmlns:sodipodi="http://sodipodi.sourceforge.net/DTD/sodipodi-0.dtd"
   xmlns:inkscape="http://www.inkscape.org/namespaces/inkscape"
   version="1.2"
   width="800"
   height="642"
   viewBox="0 0 800 642"
   stroke-linecap="round"
   stroke-linejoin="round"
   id="svg5"
   sodipodi:docname="Villabona-Amasa.svg"
   inkscape:version="0.92.5 (2060ec1f9f, 2020-04-08)">
  <metadata
     id="metadata11">
    <rdf:RDF>
      <cc:Work
         rdf:about="">
        <dc:format>image/svg+xml</dc:format>
        <dc:type
           rdf:resource="http://purl.org/dc/dcmitype/StillImage" />
      </cc:Work>
    </rdf:RDF>
  </metadata>
  <defs
     id="defs9" />
  <sodipodi:namedview
     pagecolor="#ffffff"
     bordercolor="#666666"
     borderopacity="1"
     objecttolerance="10"
     gridtolerance="10"
     guidetolerance="10"
     inkscape:pageopacity="0"
     inkscape:pageshadow="2"
     inkscape:window-width="1848"
     inkscape:window-height="1016"
     id="namedview7"
     showgrid="false"
     inkscape:zoom="1.0397333"
     inkscape:cx="400"
     inkscape:cy="321"
     inkscape:window-x="72"
     inkscape:window-y="27"
     inkscape:window-maximized="1"
     inkscape:current-layer="svg5" />
  <g
     id="Villabona-Amasa"
     transform="matrix(18.629894,0,0,18.629894,-7146.7114,-2431.255)">
    <path
       d="m 399,141.79 0.02,-0.03 0.02,-0.03 0.02,-0.04 0.07,-0.09 0.03,-0.03 0.04,-0.05 0.05,-0.04 0.03,-0.05 0.09,-0.11 0.05,-0.05 0.04,-0.04 0.05,-0.06 0.11,-0.09 0.1,-0.08 0.06,-0.06 0.04,-0.03 0.06,-0.03 0.04,-0.01 h 0.04 l 0.02,0.01 0.02,0.01 0.01,0.01 0.04,0.02 0.03,0.02 0.06,0.06 0.03,0.02 0.04,0.03 0.01,0.01 0.04,0.04 0.01,0.01 0.02,0.01 v 0.03 l 0.01,0.02 0.01,0.04 0.03,0.03 0.04,0.02 0.05,0.03 0.02,0.01 0.04,0.02 0.16,0.09 0.16,0.05 0.14,0.01 0.11,-0.02 h 0.05 l 0.09,-0.01 h 0.03 l 0.03,-0.01 0.05,-0.02 0.05,-0.01 0.06,-0.01 0.05,-0.01 h 0.04 0.05 l 0.02,0.01 h 0.04 v 0 l 0.19,-0.03 0.21,-0.02 0.13,-0.02 h 0.13 l 0.08,-0.02 0.06,-0.02 0.02,-0.02 0.05,-0.02 0.05,-0.03 0.07,-0.04 0.05,-0.04 0.06,-0.06 0.02,-0.02 0.04,-0.09 0.03,-0.07 0.02,-0.04 0.01,-0.03 0.02,-0.11 0.01,-0.02 0.01,-0.03 0.01,-0.04 v -0.05 l 0.01,-0.05 v -0.04 l 0.01,-0.04 0.02,-0.14 v -0.03 l 0.01,-0.2 v -0.05 l 0.03,-0.07 0.02,-0.07 0.04,-0.08 0.04,-0.06 0.05,-0.06 0.19,-0.23 0.07,-0.13 0.1,-0.16 0.06,0.04 0.01,0.02 0.01,0.02 0.02,0.01 0.02,0.01 h 0.01 l 0.01,0.02 0.01,0.01 0.01,0.01 h 0.02 0.01 l 0.04,0.02 0.02,0.01 0.05,0.03 0.25,0.05 h 0.01 l 0.01,0.01 h 0.02 l 0.01,0.01 h 0.01 0.03 0.03 v 0 h 0.02 l 0.22,0.03 h 0.01 l 0.01,0.01 0.01,0.02 v 0.02 0.03 l 0.01,0.02 v 0.02 l 0.01,0.01 0.01,0.02 0.03,0.04 0.03,0.02 0.04,0.01 0.02,0.01 h 0.01 l 0.03,0.01 h 0.02 l 0.02,0.01 0.05,0.01 h 0.04 l 0.05,0.02 0.01,0.01 0.02,0.01 h 0.01 v 0.01 l 0.02,0.01 0.01,0.01 0.01,0.01 0.02,0.01 0.02,0.01 0.01,0.01 0.02,0.01 0.01,0.01 0.01,0.02 0.01,0.02 0.01,0.02 0.07,0.01 0.06,0.02 0.06,0.01 0.06,0.02 0.09,0.01 h 0.09 l 0.12,-0.03 0.16,-0.04 0.13,-0.03 0.09,-0.03 0.12,-0.04 0.07,-0.04 0.04,-0.01 0.02,-0.01 h 0.03 0.02 l 0.05,0.02 0.02,0.02 0.03,0.04 0.03,0.03 0.02,0.01 -0.01,0.01 1.83,1.72 0.92,0.34 h 0.03 l 0.04,-0.01 h 0.04 l 0.02,-0.01 h 0.02 l 0.02,-0.02 0.02,-0.02 0.01,-0.02 0.02,-0.04 0.02,-0.06 0.03,-0.05 0.01,-0.03 0.02,-0.03 0.01,-0.03 0.03,-0.02 0.03,-0.03 0.03,-0.03 0.03,-0.02 0.03,-0.02 0.03,-0.02 0.03,-0.02 0.05,-0.03 0.08,-0.04 0.04,-0.01 0.03,-0.02 0.04,-0.01 0.03,-0.02 h 0.02 l 0.05,-0.01 0.06,-0.02 0.06,-0.01 h 0.03 l 0.04,-0.01 0.05,-0.02 0.02,-0.01 0.01,-0.01 0.01,-0.03 0.03,-0.03 0.03,-0.04 0.03,-0.04 0.04,-0.04 0.02,-0.02 0.04,-0.04 0.03,-0.04 0.02,-0.02 v 0 l 0.04,-0.01 h 0.03 l 0.02,-0.01 0.02,-0.02 0.02,-0.01 0.03,-0.03 0.03,-0.03 0.03,-0.01 0.02,-0.02 0.03,-0.04 0.03,-0.03 0.05,-0.06 0.01,0.01 0.05,0.04 0.05,0.03 0.06,0.05 0.08,0.06 0.06,0.04 0.07,0.04 0.03,0.04 0.04,0.04 0.05,0.06 0.04,0.06 0.05,0.09 0.04,0.09 0.03,0.06 0.03,0.07 0.02,0.07 0.05,0.08 0.03,0.07 0.02,0.03 0.01,0.03 0.02,0.03 0.02,0.06 0.02,0.06 0.03,0.07 0.02,0.03 0.03,0.04 0.03,0.04 0.03,0.05 0.02,0.03 0.02,0.02 0.03,0.02 0.02,0.01 0.02,0.02 0.01,0.01 0.03,0.03 0.02,0.04 0.02,0.04 0.02,0.05 0.01,0.03 0.02,0.04 0.01,0.06 0.01,0.07 0.01,0.06 v 0.06 l 0.01,0.03 0.02,0.05 0.03,0.03 0.03,0.03 0.05,0.04 0.04,0.01 0.03,0.02 0.1,0.03 0.06,0.02 h 0.03 l 0.04,0.02 0.04,0.01 0.03,0.02 0.03,0.01 0.01,0.02 0.02,0.02 0.02,0.02 0.01,0.03 0.02,0.02 0.03,0.02 0.05,0.03 0.02,0.02 0.01,0.02 0.01,0.02 0.03,0.05 0.01,0.04 0.01,0.03 0.01,0.04 v 0.03 l 0.01,0.04 0.01,0.04 0.01,0.06 0.02,0.07 0.01,0.06 0.01,0.07 v 0.08 l -0.01,0.04 -0.02,0.02 v 0.01 h -0.04 l -0.02,0.01 -0.01,0.01 -0.03,0.02 -0.03,0.02 -0.01,0.03 -0.02,0.03 -0.01,0.03 -0.01,0.03 v 0.03 0.03 0.02 l -0.01,0.03 -0.01,0.02 v 0.02 l -0.01,0.01 v 0.03 0.03 l 0.01,0.03 0.02,0.06 0.03,0.05 0.04,0.05 0.03,0.04 0.03,0.04 0.03,0.06 0.01,0.02 0.04,0.04 0.05,0.02 0.04,0.02 0.03,0.02 0.04,0.02 0.05,0.04 0.03,0.04 0.03,0.03 0.03,0.04 0.04,0.03 0.05,0.03 0.06,0.03 0.05,0.03 0.05,0.03 0.04,0.04 0.06,0.05 0.05,0.05 0.04,0.05 0.03,0.04 0.06,0.05 0.05,0.04 0.07,0.04 0.03,0.01 0.06,0.01 0.08,0.02 h 0.08 l 0.09,-0.01 0.09,-0.01 0.08,-0.04 0.08,-0.05 0.03,-0.02 0.04,-0.03 0.04,-0.03 0.06,-0.04 0.05,-0.04 0.06,-0.06 0.06,-0.04 0.04,-0.02 0.04,-0.01 0.05,-0.01 h 0.06 l 0.04,-0.01 0.05,-0.03 0.03,-0.01 0.06,-0.02 0.07,-0.02 h 0.05 0.05 l 0.06,0.02 0.06,0.02 0.04,0.01 0.04,0.01 0.06,0.03 0.02,0.02 0.04,0.03 0.02,0.02 0.02,0.03 0.02,0.03 0.01,0.03 v 0.01 0.01 l 0.01,0.05 v 0.04 0.03 0.1 l -0.01,0.03 -0.02,0.05 -0.01,0.03 -0.02,0.04 -0.02,0.03 -0.01,0.03 -0.01,0.03 v 0.03 l -0.01,0.02 0.02,0.01 -0.02,0.07 -0.02,0.06 -0.01,0.03 -0.01,0.05 -0.01,0.03 v 0.06 l 0.01,0.05 v 0.05 l 0.02,0.04 0.01,0.03 0.02,0.03 0.03,0.03 0.01,0.03 0.02,0.03 0.01,0.04 0.02,0.08 0.01,0.03 0.02,0.06 0.01,0.04 0.02,0.03 0.02,0.04 v 0.01 l 0.02,0.02 0.02,0.03 0.03,0.04 0.02,0.04 0.02,0.04 0.02,0.04 0.01,0.02 0.02,0.04 0.03,0.05 0.03,0.04 0.04,0.04 0.05,0.06 0.05,0.05 0.03,0.04 0.04,0.05 0.03,0.04 -0.03,0.01 -0.03,0.01 h -0.04 -0.03 -0.03 -0.03 -0.02 -0.04 -0.02 -0.01 -0.02 l -0.03,-0.01 H 416 l -0.01,-0.01 h -0.02 l -0.01,-0.01 v 0 l -0.01,-0.01 -0.01,0.01 -0.02,0.02 -0.01,0.02 h -0.01 l -0.03,0.01 -0.01,0.01 h -0.01 l -0.03,0.02 -0.03,0.01 -0.03,0.02 -0.02,0.02 -0.03,0.02 -0.02,0.01 -0.02,0.01 -0.02,0.02 -0.02,0.02 -0.02,0.03 -0.01,0.02 -0.02,0.03 -0.01,0.02 -0.01,0.03 -0.01,0.01 -0.01,0.05 -0.01,0.03 -0.02,0.04 -0.01,0.03 -0.01,0.02 -0.02,0.02 -0.01,0.01 -0.01,0.02 -0.01,0.02 -0.01,0.04 -0.02,0.03 -0.02,0.04 -0.01,0.03 -0.02,0.04 -0.03,0.06 -0.02,0.03 -0.01,0.01 -0.03,0.04 -0.03,0.03 -0.02,0.02 -0.02,0.02 -0.05,0.03 -0.04,0.02 h -0.02 l -0.02,0.01 h -0.02 l -0.02,0.01 -0.02,0.01 -0.04,0.03 -0.03,0.01 -0.03,0.02 -0.01,0.01 -0.02,0.01 -0.02,0.02 -0.01,0.01 -0.02,0.02 -0.01,0.01 -0.01,0.01 h -0.02 l -0.02,0.01 -0.03,0.02 h -0.02 -0.03 -0.02 -0.01 l -0.02,0.01 -0.04,0.01 -0.05,0.02 -0.04,0.01 -0.02,0.01 h -0.02 l -0.05,0.02 -0.04,0.02 -0.01,0.01 -0.03,0.02 -0.02,0.03 -0.05,0.03 -0.05,0.03 h -0.01 l -0.03,0.02 -0.02,0.01 -0.04,0.02 -0.02,0.01 -0.01,0.01 -0.04,0.04 -0.03,0.03 -0.03,0.01 -0.01,0.01 -0.02,0.01 h -0.01 l -0.01,0.03 -0.02,0.03 -0.01,0.02 -0.02,0.05 -0.02,0.03 -0.01,0.03 -0.02,0.04 -0.03,0.03 -0.01,0.02 -0.03,0.02 -0.02,0.03 -0.01,0.02 -0.02,0.02 -0.02,0.05 -0.02,0.04 -0.01,0.03 -0.01,0.03 -0.02,0.05 -0.03,0.07 -0.03,0.05 -0.01,0.01 -0.03,0.02 -0.04,0.01 -0.03,0.02 -0.02,0.02 -0.02,0.02 -0.02,0.02 -0.02,0.03 -0.02,0.04 v 0.02 0.06 l 0.01,0.05 v 0.04 0.03 l -0.01,0.03 -0.01,0.03 -0.01,0.01 -0.01,0.02 v 0.01 l 0.01,0.03 0.03,0.06 0.02,0.04 0.02,0.05 0.01,0.03 0.01,0.03 0.03,0.02 0.03,0.04 0.03,0.02 0.04,0.01 0.03,0.02 0.03,0.02 0.02,0.01 0.02,0.01 0.03,0.03 0.01,0.03 0.01,0.03 0.01,0.05 0.01,0.04 0.01,0.07 v 0.05 l 0.01,0.03 0.01,0.04 0.01,0.05 0.01,0.02 V 151 l 0.01,0.03 v 0.03 l -0.01,0.06 -0.01,0.04 -0.02,0.06 -0.02,0.04 v 0.01 0.04 l 0.01,0.05 0.01,0.04 0.01,0.03 0.02,0.06 0.01,0.03 0.01,0.05 v 0.03 0.03 l 0.01,0.05 0.01,0.02 0.01,0.02 0.01,0.01 0.02,0.02 0.01,0.03 0.01,0.01 0.01,0.04 v 0.06 0.05 l 0.01,0.03 0.01,0.04 0.02,0.05 0.02,0.06 0.02,0.05 v 0.02 l 0.01,0.02 v 0.13 l -0.01,0.04 v 0.02 l -0.01,0.02 -0.01,0.03 -0.01,0.03 -0.01,0.02 v 0.02 l -0.01,0.04 v 0.04 l -0.02,0.05 -0.03,0.07 -0.02,0.04 -0.02,0.04 -0.03,0.03 -0.04,0.02 -0.04,0.02 -0.02,0.01 -0.03,0.01 -0.01,0.01 -0.02,0.02 -0.04,0.03 -0.01,0.02 -0.03,0.04 -0.02,0.01 -0.02,0.03 -0.06,0.03 -0.01,0.01 -0.02,0.03 -0.02,0.02 -0.02,0.02 -0.03,0.03 -0.02,0.03 -0.02,0.01 -0.02,0.01 -0.03,0.02 h -0.03 l -0.02,0.01 -0.02,0.01 -0.04,0.04 -0.02,0.02 -0.03,0.03 -0.02,0.02 -0.03,0.03 -0.05,0.03 -0.06,0.02 -0.06,0.03 -0.03,0.03 -0.02,0.02 -0.75,1.23 -0.21,-0.08 -0.5,-0.16 -0.53,-0.14 -0.42,0.73 -0.38,0.26 -0.77,0.38 -0.42,0.1 h -0.48 l -0.31,-0.11 -0.16,-0.1 -0.24,-0.18 -0.39,-0.47 -0.36,-0.47 -0.15,0.17 -0.25,0.27 -0.15,0.16 -0.15,0.16 -0.19,0.2 -0.06,0.08 -0.06,0.01 -0.29,0.08 -0.47,0.14 -0.51,0.14 -0.58,0.18 -0.73,-0.23 -0.88,-1.54 -0.74,-1.07 -2.46,-3.09 -0.05,-0.22 h 0.01 v -0.03 -0.02 -0.02 l -0.02,-0.02 -0.03,-0.01 -0.01,-0.02 -0.01,-0.03 -0.01,-0.05 -0.02,-0.04 -0.01,-0.04 -0.02,-0.04 -0.02,-0.05 -0.02,-0.02 -0.01,-0.02 -0.02,-0.01 -0.01,-0.01 -0.03,-0.02 -0.02,-0.01 -0.01,-0.01 h -0.01 -0.02 -0.01 -0.02 -0.02 -0.03 l -0.02,-0.01 -0.02,-0.01 v 0 l -0.01,-0.01 h -0.02 l -0.01,-0.01 -0.52,-0.16 0.01,-0.02 0.04,-0.07 0.03,-0.05 -0.05,-0.04 h -0.02 l -0.03,-0.02 -0.01,-0.01 v -0.01 l -0.03,-0.02 -0.04,-0.02 h -0.02 l -0.02,-0.01 h -0.03 l -0.09,0.01 -0.06,0.01 h -0.04 l -0.02,0.01 h -0.02 -0.01 l -0.01,-0.01 -0.04,-0.01 -0.02,-0.01 h -0.01 l -0.01,0.01 h -0.01 l -0.03,-0.01 -0.02,-0.01 -0.04,-0.01 h -0.01 l -0.01,-0.01 -0.01,-0.01 h -0.01 l -0.04,-0.02 -0.03,-0.02 -0.03,-0.03 -0.01,-0.01 -0.07,-0.04 -0.04,-0.03 -0.04,-0.02 -0.03,-0.01 -0.04,-0.01 -0.04,-0.01 h -0.04 -0.01 l -0.01,-0.01 h -0.01 l -0.01,-0.01 v 0 l -0.02,-0.01 -0.01,-0.01 h -0.01 l -0.02,-0.01 h -0.01 l -0.01,-0.01 -0.03,-0.02 -0.02,-0.01 -0.03,-0.02 -0.05,-0.03 -0.03,-0.02 -0.02,-0.02 h -0.01 l -0.09,-0.04 -0.06,-0.02 h -0.01 l -0.04,-0.01 -0.05,-0.02 h -0.02 l -0.02,-0.01 h -0.02 l -0.02,-0.01 h -0.02 -0.02 -0.03 l -0.05,0.01 -0.02,-0.01 h -0.04 l -0.05,-0.01 h -0.03 l -0.07,0.01 h -0.04 -0.06 -0.02 l -0.02,0.01 -0.03,0.02 -0.03,0.02 -0.03,0.02 -0.03,0.01 -0.03,0.01 -0.01,0.01 -0.03,0.01 h -0.01 l -0.01,0.01 -0.02,0.01 -0.01,0.01 -0.03,0.01 h -0.04 -0.02 -0.04 -0.02 -0.03 -0.02 -0.02 -0.03 -0.04 l -0.02,0.01 h -0.04 l -0.05,0.02 h -0.03 l -0.05,0.01 h -0.01 l -0.03,0.02 -0.02,0.01 -0.02,0.01 -0.02,0.01 -0.04,0.02 -0.04,0.02 -0.03,0.02 -0.04,0.01 -0.01,0.01 -0.01,0.01 -0.03,0.02 -0.02,0.03 -0.03,0.03 -0.03,0.03 -0.02,0.02 -0.01,0.01 h -0.04 -0.04 -0.05 l -0.04,-0.02 -0.05,-0.02 -0.02,-0.01 -0.01,-0.02 -0.01,-0.04 -0.02,-0.01 -0.02,-0.01 -0.02,-0.02 -0.04,-0.04 -0.03,-0.03 -0.06,-0.04 -0.05,-0.04 -0.03,-0.03 -0.04,-0.03 -0.02,-0.01 -0.02,-0.04 -0.02,-0.01 -0.07,-0.07 -0.05,-0.05 -0.03,-0.03 v -0.01 l -0.02,-0.04 -0.02,-0.03 -0.02,-0.03 -0.01,-0.03 -0.01,-0.03 -0.02,-0.04 -0.01,-0.04 -0.01,-0.03 -0.02,-0.02 -0.01,-0.02 -0.02,-0.02 -0.01,-0.02 -0.02,-0.03 -0.02,-0.02 -0.04,-0.06 -0.04,-0.03 -0.06,-0.05 -0.07,-0.04 -0.03,-0.03 -0.01,-0.01 0.26,-0.3 0.48,-0.2 0.02,-0.06 v -0.04 l 0.02,-0.05 0.01,-0.03 0.02,-0.07 0.01,-0.05 0.01,-0.02 0.02,-0.04 0.02,-0.03 0.02,-0.02 0.01,-0.03 0.02,-0.02 0.02,-0.03 0.02,-0.02 0.02,-0.02 0.02,-0.03 0.02,-0.02 0.02,-0.01 0.03,-0.02 0.02,-0.02 0.02,-0.02 0.02,-0.02 v -0.02 l 0.02,-0.02 0.02,-0.02 h 0.01 l 0.01,-0.01 0.02,-0.01 0.01,-0.01 0.01,-0.01 v -0.01 l 0.01,-0.01 v -0.04 l 0.01,-0.06 v -0.03 -0.01 l 0.01,-0.02 v -0.03 l 0.01,-0.02 0.01,-0.03 0.02,-0.02 0.01,-0.02 0.01,-0.02 0.02,-0.01 0.02,-0.01 0.02,-0.02 0.02,-0.01 h 0.02 l 0.01,-0.01 h 0.02 0.02 0.02 0.02 l 0.02,-0.01 0.03,-0.01 0.02,-0.01 0.02,-0.01 0.02,-0.03 0.02,-0.02 0.02,-0.01 0.02,-0.01 0.01,-0.01 0.03,-0.02 0.02,-0.01 0.01,-0.01 0.03,-0.02 0.05,-0.03 0.02,-0.03 v -0.01 -0.04 -0.03 -0.04 -0.02 l 0.01,-0.02 v -0.03 -0.05 -0.08 -0.05 l -0.01,-0.03 v -0.04 l -0.01,-0.02 h 0.01 l 0.51,0.16 0.48,-0.48 0.57,0.12 0.01,-0.08 0.04,0.01 h 0.02 l 0.06,0.02 0.03,0.01 h 0.08 l 0.04,-0.01 0.04,-0.02 0.07,-0.04 0.03,-0.01 0.06,-0.01 h 0.06 l 0.05,0.02 0.04,0.03 0.04,0.03 0.02,0.03 0.05,0.02 0.05,0.02 0.03,0.04 0.01,0.02 h 0.02 0.04 0.03 l 0.03,-0.01 0.04,-0.01 0.04,0.01 h 0.03 0.03 l 0.03,-0.02 0.05,-0.04 0.03,-0.01 0.02,-0.02 0.04,-0.01 0.03,0.01 0.06,0.01 h 0.03 l 0.02,-0.01 0.04,-0.01 h 0.01 l 0.07,0.02 h 0.02 l 0.02,0.02 0.02,0.01 h 0.03 l 0.02,-0.01 0.02,-0.01 0.02,-0.01 h 0.02 0.02 l 0.08,0.03 0.02,0.02 0.03,0.01 0.13,0.09 0.05,0.04 0.01,-0.05 0.02,-0.07 0.01,-0.07 0.03,-0.12 0.02,-0.1 0.03,-0.15 0.03,-0.11 v -0.03 0 l 0.03,-0.15 0.02,-0.11 0.02,-0.14 v -0.02 l 0.01,-0.01 v -0.03 l 0.01,-0.16 0.01,-0.03 v -0.03 l 0.04,-0.27 v -0.06 -0.05 -0.08 -0.05 l -0.01,-0.07 -0.01,-0.05 -0.01,-0.07 -0.02,-0.07 -0.02,-0.05 -0.02,-0.07 -0.13,-0.29 -0.09,-0.21 -0.01,-0.02 -0.01,-0.02 -0.01,-0.03 -0.03,-0.05 -0.06,-0.16 -0.03,-0.08 -0.02,-0.11 v -0.05 -0.04 -0.03 -0.03 l 0.01,-0.04 v -0.01 l 0.01,-0.04 0.01,-0.05 0.01,-0.04 0.01,-0.02 z"
       id="path2"
       inkscape:connector-curvature="0" />
  </g>
</svg>
