<?xml version="1.0" encoding="UTF-8" standalone="no"?>
<svg
   xmlns:dc="http://purl.org/dc/elements/1.1/"
   xmlns:cc="http://creativecommons.org/ns#"
   xmlns:rdf="http://www.w3.org/1999/02/22-rdf-syntax-ns#"
   xmlns:svg="http://www.w3.org/2000/svg"
   xmlns="http://www.w3.org/2000/svg"
   xmlns:sodipodi="http://sodipodi.sourceforge.net/DTD/sodipodi-0.dtd"
   xmlns:inkscape="http://www.inkscape.org/namespaces/inkscape"
   version="1.2"
   width="800"
   height="642"
   viewBox="0 0 800 642"
   stroke-linecap="round"
   stroke-linejoin="round"
   id="svg60"
   sodipodi:docname="Xabier.svg"
   inkscape:version="0.92.5 (2060ec1f9f, 2020-04-08)">
  <metadata
     id="metadata66">
    <rdf:RDF>
      <cc:Work
         rdf:about="">
        <dc:format>image/svg+xml</dc:format>
        <dc:type
           rdf:resource="http://purl.org/dc/dcmitype/StillImage" />
      </cc:Work>
    </rdf:RDF>
  </metadata>
  <defs
     id="defs64" />
  <sodipodi:namedview
     pagecolor="#ffffff"
     bordercolor="#666666"
     borderopacity="1"
     objecttolerance="10"
     gridtolerance="10"
     guidetolerance="10"
     inkscape:pageopacity="0"
     inkscape:pageshadow="2"
     inkscape:window-width="1848"
     inkscape:window-height="1016"
     id="namedview62"
     showgrid="false"
     inkscape:zoom="0.36760125"
     inkscape:cx="400"
     inkscape:cy="321"
     inkscape:window-x="72"
     inkscape:window-y="27"
     inkscape:window-maximized="1"
     inkscape:current-layer="svg60" />
  <g
     id="Xabier"
     transform="matrix(8.0878693,0,0,8.0878693,-4641.9164,-2922.3998)">
    <path
       d="m 642.34,365.87 h 0.15 0.1 l 0.11,0.01 h 0.01 0.02 l 0.2,0.01 h 0.06 v 0 l 0.04,0.01 0.11,0.01 h 0.03 0.04 l 0.07,-0.01 h 0.09 0.04 l 0.08,0.01 0.02,0.01 0.02,0.01 h 0.01 l 0.04,0.01 0.01,0.01 0.04,0.01 0.03,0.01 0.02,0.01 0.04,0.01 v 0 h 0.01 l 0.02,0.01 h 0.02 l 0.01,0.01 0.02,0.01 h 0.02 l 0.01,0.01 h 0.02 l 0.02,0.01 0.01,0.01 h 0.02 l 0.02,0.01 0.01,0.01 h 0.02 l 0.01,0.01 0.02,0.01 0.02,0.01 h 0.01 l 0.02,0.01 0.03,0.01 0.01,0.01 0.02,0.01 h 0.01 l 0.02,0.01 0.02,0.01 0.01,0.01 0.02,0.01 h 0.01 l 0.02,0.01 0.01,0.01 0.02,0.01 h 0.02 l 0.02,0.01 0.02,0.01 0.01,0.01 h 0.02 l 0.01,0.01 0.02,0.01 h 0.02 l 0.01,0.01 h 0.03 0.01 l 0.02,0.01 h 0.02 0.02 0.01 0.02 0.01 0.02 l 0.02,-0.01 h 0.02 0.02 l 0.01,-0.01 h 0.02 0.02 0.01 l 0.01,-0.01 0.07,-0.02 h 0.02 0.02 0.03 0.04 0.03 0.04 0.02 0.01 0.01 l 0.02,-0.01 h 0.02 0.02 0.03 0.02 l 0.03,-0.01 h 0.02 0.02 0.02 0.02 0.01 l 0.01,0.01 0.01,0.01 0.01,0.01 0.02,0.01 0.02,0.01 h 0.02 0.01 0.02 l 0.02,0.01 h 0.01 l 0.02,0.01 0.01,0.01 0.02,0.01 v 0.01 l 0.02,0.01 0.02,0.02 0.02,0.01 0.01,0.01 0.02,0.01 h 0.01 l 0.02,0.01 0.01,0.01 0.02,0.01 h 0.02 l 0.02,0.01 0.01,0.01 h 0.02 0.01 l 0.12,0.03 h 0.02 0.02 l 0.02,0.01 h 0.01 0.02 0.02 l 0.02,0.01 h 0.01 0.02 l 0.02,0.01 h 0.02 0.02 l 0.01,0.01 h 0.02 l 0.02,0.01 h 0.02 l 0.01,0.01 h 0.02 0.02 l 0.01,0.01 h 0.02 l 0.02,0.01 h 0.02 l 0.03,0.01 0.03,0.01 h 0.02 l 0.03,0.01 h 0.02 0.01 l 0.02,0.01 h 0.02 l 0.07,0.01 h 0.01 l 0.02,0.01 h 0.02 l 0.05,0.01 h 0.02 l 0.02,0.01 h 0.01 l 0.02,0.01 h 0.02 l 0.01,0.01 h 0.02 l 0.04,0.01 0.01,0.02 0.06,0.01 h 0.02 0.01 l 0.02,0.01 h 0.02 0.01 0.02 0.02 0.02 0.02 0.05 0.02 0.01 0.02 0.01 0.02 0.04 l 0.01,0.01 h 0.02 0.02 0.02 0.02 0.02 0.01 0.02 0.02 l 0.05,-0.01 h 0.02 0.02 0.01 0.02 l 0.01,0.01 h 0.02 l 0.02,0.01 0.01,0.01 0.01,0.01 0.02,0.01 0.01,0.01 0.02,0.01 0.01,0.01 0.01,0.01 0.01,0.01 0.01,0.01 0.01,0.02 0.02,0.01 0.01,0.01 0.18,0.01 h 0.02 0.01 l 0.02,0.01 h 0.02 0.02 v 0 l 0.04,0.01 h 0.02 0.01 l 0.02,0.01 0.02,0.01 0.01,0.01 h 0.02 l 0.01,0.02 0.01,0.01 0.01,0.01 0.01,0.02 0.01,0.01 0.01,0.02 0.01,0.01 0.01,0.02 v 0.02 l -0.01,0.02 -0.01,0.02 v 0.01 0.02 l 0.09,0.02 0.02,0.01 0.02,0.01 h 0.01 l 0.02,0.01 h 0.02 0.02 0.02 0.01 0.02 0.02 0.02 0.01 0.03 0.01 0.02 0.02 l 0.02,0.01 h 0.01 0.02 0.02 0.01 0.02 l 0.02,0.01 h 0.02 l 0.03,0.01 h 0.04 0.01 l 0.02,0.01 h 0.01 0.02 0.02 l 0.03,0.01 h 0.02 l 0.02,0.01 h 0.01 0.02 l 0.04,0.01 h 0.02 0.02 l 0.01,0.01 h 0.02 0.02 0.02 l 0.01,0.01 h 0.02 0.01 0.02 0.02 l 0.03,0.01 h 0.03 0.03 0.01 0.02 l 0.05,0.01 h 0.02 0.02 0.01 l 0.02,0.01 h 0.01 0.03 0.02 l 0.02,0.01 h 0.02 0.01 l 0.02,0.01 h 0.01 l 0.02,0.01 h 0.02 l 0.02,0.01 h 0.01 l 0.01,0.01 h 0.01 0.01 l 0.02,0.01 h 0.02 l 0.01,0.01 0.02,0.01 h 0.02 l 0.01,0.01 h 0.02 l 0.02,0.01 h 0.02 l 0.02,0.01 h 0.01 0.02 l 0.02,0.01 h 0.02 0.03 0.01 l 0.02,0.01 h 0.04 l 0.02,0.01 h 0.07 l 0.01,0.01 h 0.02 0.02 l 0.02,0.01 h 0.02 0.02 l 0.03,0.01 0.02,0.01 h 0.01 0.02 l 0.02,0.01 h 0.02 0.02 0.01 0.02 l 0.02,0.01 h 0.02 0.01 l 0.02,0.01 h 0.02 l 0.01,0.01 h 0.01 0.02 0.02 0.02 0.01 0.02 0.02 0.01 l 0.02,0.01 h 0.02 0.02 l 0.01,0.01 h 0.01 0.02 0.02 0.01 l 0.02,0.01 h 0.02 0.02 l 0.02,0.01 0.01,0.01 0.02,0.01 h 0.01 l 0.02,0.01 0.01,0.01 0.02,0.01 0.01,0.01 0.02,0.01 0.01,0.01 0.01,0.01 0.02,0.01 0.02,0.01 0.01,0.01 h 0.02 l 0.02,0.01 h 0.01 l 0.02,0.01 h 0.01 0.02 0.02 0.02 0.01 l 0.02,-0.01 h 0.02 l 0.03,-0.01 h 0.02 l 0.01,-0.01 0.02,0.01 h 0.02 0.02 l 0.01,0.01 h 0.01 l 0.02,0.01 0.01,0.01 0.02,0.01 0.01,0.01 h 0.02 l 0.02,0.01 h 0.01 0.03 0.01 0.02 0.03 0.01 0.02 0.01 0.03 l 0.01,-0.01 0.02,-0.01 0.01,-0.01 0.01,-0.01 0.01,-0.01 0.01,-0.01 0.02,-0.01 h 0.01 l 0.02,-0.01 h 0.01 0.02 0.01 0.04 l 0.04,-0.01 h 0.02 0.01 0.02 0.03 l 0.01,0.01 h 0.02 0.02 0.02 0.01 0.02 0.02 0.01 0.02 0.03 0.02 0.02 0.01 0.02 l 0.01,0.01 0.02,0.01 0.01,0.01 h 0.02 l 0.01,0.01 0.01,0.01 h 0.02 l 0.01,0.01 0.02,0.01 0.01,0.01 0.02,0.01 h 0.01 l 0.02,0.01 h 0.01 l 0.02,0.01 0.03,0.01 h 0.02 l 0.02,0.01 0.03,0.01 0.02,0.01 h 0.01 0.02 l 0.02,0.01 h 0.02 0.01 l 0.02,0.01 0.01,0.01 0.02,0.01 h 0.01 l 0.02,0.01 0.02,0.01 h 0.02 0.01 l 0.02,0.01 v 0 l 0.02,0.01 0.02,0.01 h 0.01 l 0.02,0.01 0.01,0.01 0.02,0.01 h 0.02 l 0.02,0.01 0.03,0.02 h 0.01 l 0.01,0.01 h 0.01 l 0.01,0.01 h 0.02 l 0.01,0.01 h 0.01 l 0.01,0.01 h 0.02 l 0.01,0.01 0.02,0.01 v 0 h 0.01 0.01 l 0.01,0.01 h 0.02 l 0.02,0.01 0.01,0.01 h 0.01 0.02 0.02 0.01 l 0.02,0.01 0.02,0.01 h 0.01 l 0.02,0.01 h 0.02 l 0.01,0.01 h 0.02 l 0.01,0.01 0.03,0.01 h 0.02 0.02 0.01 0.01 l 0.02,0.01 0.02,0.01 h 0.01 l 0.02,0.01 0.02,0.01 h 0.02 l 0.01,0.01 h 0.02 l 0.01,0.01 h 0.02 0.01 0.01 l 0.02,0.01 v 0 h 0.02 l 0.01,0.01 0.02,0.01 h 0.01 l 0.03,0.01 h 0.01 l 0.01,0.01 h 0.02 0.02 l 0.03,0.01 h 0.01 0.02 l 0.02,0.01 h 0.01 0.02 0.02 0.02 0.01 0.02 0.04 0.02 l 0.01,0.01 h 0.01 l 0.01,0.01 h 0.02 l 0.01,0.02 0.02,0.01 v 0 l 0.01,0.01 0.02,0.01 h 0.01 l 0.01,0.01 0.02,0.01 0.02,0.01 0.01,0.02 v 0.01 l 0.01,0.01 0.01,0.03 v 0.01 0.02 l 0.01,0.02 v 0.02 0 0.02 0.01 l 0.01,0.01 v 0.02 l 0.01,0.02 v 0 l 0.01,0.01 h 0.03 l 0.01,0.01 h 0.02 l 0.01,0.01 h 0.01 0.02 l 0.02,0.01 0.02,0.01 h 0.02 0.01 l 0.01,0.01 h 0.01 0.02 v 0 h 0.02 0.02 l 0.02,0.01 h 0.01 l 0.02,0.01 h 0.01 l 0.02,0.02 0.01,0.01 0.01,0.01 0.02,0.01 0.02,0.01 h 0.01 0.01 0.01 0.02 l 0.01,-0.01 0.02,-0.01 v 0 l 0.02,-0.01 0.02,-0.01 0.01,-0.01 h 0.02 0.01 l 0.01,-0.01 h 0.02 0.01 l 0.02,-0.01 h 0.02 l 0.01,-0.01 0.02,-0.01 h 0.03 l 0.02,-0.01 h 0.02 l 0.01,-0.01 0.02,-0.01 h 0.02 l 0.03,-0.01 0.01,0.01 v 0 0.01 0.04 l -0.01,0.03 v 0.01 0.02 0.02 0.02 0.02 0.02 0.02 0.01 0.02 0.01 0.01 0.02 0.02 0.01 0.02 0.01 0.02 0.02 0.03 0.01 0.02 0.02 0.01 0.01 0.02 0.01 l -0.01,0.04 v 0.03 0.02 0.01 l -0.01,0.02 v 0.01 0.02 l -0.01,0.01 v 0.02 l -0.01,0.01 v 0.02 0.02 l -0.01,0.01 v 0.02 l -0.01,0.03 v 0.04 l -0.01,0.03 v 0.02 l -0.01,0.01 v 0.02 0.01 l -0.01,0.02 v 0.02 l -0.01,0.01 -0.01,0.06 -0.01,0.01 v 0.02 l -0.01,0.02 v 0.01 0.01 l -0.01,0.02 -0.01,0.01 v 0.02 l -0.01,0.01 -0.01,0.01 -0.01,0.01 -0.01,0.02 -0.02,0.03 -0.02,0.02 -0.01,0.01 -0.01,0.02 -0.01,0.01 -0.02,0.04 -0.01,0.01 v 0.02 l -0.02,0.01 -0.01,0.02 -0.01,0.01 -0.01,0.01 v 0.02 l -0.01,0.02 -0.02,0.04 -0.02,0.01 h -0.01 l -0.02,0.01 -0.01,0.01 -0.02,0.01 -0.01,0.01 -0.03,0.01 -0.01,0.01 -0.01,0.01 -0.02,0.01 -0.01,0.01 -0.01,0.01 -0.01,0.01 -0.01,0.01 -0.01,0.01 -0.01,0.02 v 0.01 l -0.01,0.02 -0.01,0.01 -0.01,0.01 v 0 l -0.02,0.01 -0.02,0.01 -0.02,0.01 -0.02,0.01 -0.01,0.01 h -0.01 l -0.02,0.01 -0.01,0.01 -0.01,0.01 -0.02,0.01 -0.01,0.01 -0.02,0.01 -0.01,0.01 h -0.02 l -0.01,0.01 -0.01,0.01 -0.03,0.01 -0.02,0.01 -0.01,0.01 -0.02,0.02 -0.01,0.01 -0.02,0.02 -0.01,0.01 -0.01,0.02 -0.01,0.01 -0.01,0.01 -0.02,0.01 -0.02,0.01 -0.01,0.01 -0.02,0.01 -0.01,0.01 -0.02,0.01 -0.01,0.01 -0.02,0.01 -0.02,0.01 h -0.02 v 0 l -0.02,0.01 -0.01,0.01 -0.01,0.02 -0.01,0.02 -0.01,0.02 -0.01,0.02 -0.01,0.01 -0.01,0.02 -0.01,0.02 -0.02,0.02 -0.01,0.01 -0.02,0.03 -0.02,0.02 -0.02,0.02 -0.01,0.01 -0.01,0.02 -0.01,0.01 v 0.01 l -0.02,0.03 -0.01,0.02 v 0.02 l -0.01,0.01 -0.01,0.03 -0.05,0.06 -0.01,0.01 -0.04,0.04 -0.01,0.01 -0.01,0.01 -0.02,0.02 -0.01,0.01 -0.03,0.04 -0.01,0.02 -0.02,0.03 -0.02,0.03 -0.03,0.04 -0.01,0.01 -0.01,0.02 v 0.01 l -0.01,0.01 -0.01,0.02 -0.01,0.01 v 0.01 l -0.01,0.02 -0.01,0.01 -0.01,0.02 -0.02,0.02 v 0.01 l -0.01,0.02 -0.01,0.01 -0.01,0.02 -0.01,0.01 -0.01,0.02 -0.01,0.01 -0.01,0.02 -0.01,0.01 -0.01,0.02 -0.01,0.01 -0.01,0.02 v 0 l -0.02,0.03 -0.01,0.02 -0.01,0.01 -0.01,0.02 -0.01,0.01 -0.01,0.02 -0.01,0.01 -0.03,0.03 -0.01,0.01 -0.01,0.02 -0.01,0.01 -0.01,0.01 -0.01,0.02 -0.01,0.01 -0.01,0.02 -0.01,0.01 -0.01,0.02 -0.01,0.02 -0.02,0.03 -0.02,0.04 -0.01,0.02 -0.01,0.01 -0.01,0.02 -0.01,0.02 -0.01,0.01 -0.01,0.02 -0.01,0.01 -0.01,0.02 -0.01,0.01 v 0.02 l -0.01,0.01 -0.01,0.02 -0.01,0.01 -0.02,0.03 -0.01,0.01 -0.01,0.02 -0.01,0.02 -0.02,0.03 v 0.01 l -0.01,0.02 -0.01,0.01 -0.01,0.01 -0.01,0.02 -0.01,0.01 -0.01,0.01 -0.01,0.02 h -0.01 l -0.01,0.02 -0.01,0.01 -0.01,0.02 -0.02,0.04 -0.02,0.03 -0.02,0.03 -0.01,0.03 -0.01,0.01 -0.01,0.02 -0.01,0.02 -0.02,0.03 -0.03,0.05 v 0.01 l -0.02,0.01 v 0 l -0.02,0.01 -0.01,0.02 -0.02,0.01 -0.01,0.01 -0.04,0.05 -0.01,0.01 -0.01,0.01 -0.04,0.04 -0.01,0.01 -0.01,0.01 -0.01,0.02 -0.02,0.01 -0.02,0.02 -0.02,0.02 -0.01,0.01 -0.01,0.01 -0.01,0.02 -0.02,0.01 -0.01,0.01 -0.06,0.08 -0.01,0.01 -0.01,0.01 -0.02,0.03 -0.01,0.01 -0.01,0.02 -0.02,0.02 -0.02,0.03 -0.04,0.04 -0.22,0.25 -0.02,0.02 -0.12,0.09 -0.19,0.16 -0.11,0.08 -0.03,0.02 -0.07,0.03 -0.11,0.06 -0.13,0.05 -0.06,0.04 -0.02,0.01 -0.03,0.01 -0.04,0.01 -0.04,0.03 -0.12,0.07 -0.03,0.02 -0.21,0.15 -0.02,0.02 -0.3,0.22 -0.02,0.02 -0.03,0.02 -0.09,0.05 -0.09,0.04 -0.07,0.07 -0.1,0.06 -0.04,0.01 -0.08,0.04 -0.02,0.01 -0.14,0.06 -0.16,0.07 -0.15,0.05 -0.16,0.06 -0.08,0.05 -0.03,0.01 -0.02,-0.01 h -0.04 -0.04 -0.01 -0.04 -0.02 -0.01 -0.02 l -0.02,-0.01 h -0.02 -0.02 -0.01 -0.02 l -0.04,-0.01 -0.02,-0.01 h -0.02 l -0.03,-0.01 h -0.02 -0.02 -0.01 -0.02 l -0.01,-0.01 h -0.02 -0.02 -0.02 -0.01 -0.02 l -0.02,0.01 h -0.01 -0.02 -0.01 l -0.02,0.01 h -0.02 l -0.02,0.01 h -0.01 l -0.01,0.01 -0.14,0.02 -0.16,0.04 -0.04,0.01 -0.11,0.03 -0.07,-0.01 h -0.02 -0.01 l -0.02,-0.01 h -0.02 -0.01 l -0.02,-0.01 -0.02,-0.01 -0.01,-0.01 -0.02,-0.01 h -0.01 -0.01 l -0.02,0.01 -0.01,0.01 h -0.02 l -0.02,0.01 h -0.02 -0.01 -0.02 -0.02 l -0.02,0.01 h -0.01 -0.02 l -0.03,0.02 -0.18,0.13 -0.09,0.06 -0.01,0.01 -0.02,0.01 h -0.02 -0.01 l -0.02,0.01 h -0.01 -0.01 -0.02 -0.02 -0.01 -0.02 -0.01 -0.02 -0.02 l -0.02,0.01 h -0.03 l -0.24,0.1 -0.02,0.01 h -0.02 -0.02 -0.02 l -0.01,-0.01 -0.02,-0.01 -0.01,-0.01 h -0.02 l -0.01,-0.01 -0.02,-0.01 h -0.01 l -0.02,-0.01 -0.02,-0.01 h -0.01 l -0.02,-0.01 h -0.02 l -0.01,-0.01 h -0.01 -0.02 -0.02 -0.02 -0.01 -0.02 l -0.02,0.01 h -0.01 -0.02 l -0.01,0.01 h -0.01 l -0.02,0.01 -0.01,0.01 -0.01,0.01 h -0.02 -0.01 -0.02 l -0.01,-0.01 -0.02,-0.01 -0.01,-0.01 h -0.01 l -0.02,-0.01 -0.01,-0.01 -0.02,-0.01 -0.02,-0.01 h -0.01 -0.01 -0.02 l -0.02,0.01 h -0.01 l -0.02,0.01 h -0.02 l -0.02,-0.01 h -0.02 -0.01 l -0.02,-0.01 h -0.01 l -0.02,-0.01 h -0.01 -0.02 l -0.01,-0.01 h -0.02 -0.02 -0.02 -0.01 -0.02 -0.01 -0.02 l -0.02,0.01 h -0.02 l -0.02,-0.01 -0.01,-0.01 -0.02,-0.01 -0.01,-0.01 -0.02,-0.01 -0.01,-0.01 h -0.02 l -0.01,-0.01 -0.02,-0.01 -0.02,-0.01 h -0.01 l -0.02,-0.01 -0.01,-0.01 h -0.02 l -0.02,-0.01 h -0.01 l -0.02,-0.01 h -0.02 l -0.02,-0.01 h -0.01 -0.02 -0.01 -0.02 -0.02 -0.02 -0.01 l -0.02,0.01 h -0.04 -0.01 -0.01 -0.01 l -0.01,0.01 h -0.02 -0.02 -0.03 l -0.03,0.01 h -0.02 -0.02 l -0.02,0.01 h -0.02 -0.01 l -0.02,0.01 h -0.01 -0.02 l -0.02,0.01 v 0 l -0.02,0.01 -0.01,0.02 -0.02,0.01 -0.01,0.02 -0.04,-0.02 h -0.02 l -0.02,-0.01 h -0.01 -0.02 l -0.02,-0.01 h -0.02 -0.01 -0.03 l -0.01,-0.01 h -0.04 l -0.02,-0.01 h -0.01 -0.02 -0.02 l -0.02,-0.01 h -0.01 -0.02 -0.01 l -0.02,0.01 h -0.02 -0.02 -0.01 -0.01 l -0.02,0.01 h -0.01 l -0.02,0.01 h -0.02 l -0.01,0.01 h -0.01 l -0.02,0.01 h -0.01 l -0.02,0.01 -0.01,0.02 -0.01,0.01 -0.01,0.01 -0.01,0.02 -0.01,0.01 -0.01,0.02 -0.01,0.01 -0.01,0.02 -0.01,0.01 -0.01,0.02 -0.01,0.01 -0.01,0.02 -0.01,0.01 -0.02,0.03 -0.01,0.01 -0.01,0.01 -0.01,0.01 -0.02,0.02 h -0.01 l -0.02,0.01 -0.01,0.01 -0.02,0.01 -0.02,0.01 h -0.01 l -0.02,0.01 -0.02,0.01 h -0.01 l -0.02,0.01 h -0.02 -0.01 -0.02 -0.02 -0.01 -0.02 l -0.02,-0.01 h -0.02 l -0.01,-0.01 h -0.02 -0.01 l -0.02,-0.01 -0.02,-0.01 h -0.01 l -0.02,-0.01 h -0.02 -0.01 -0.02 -0.02 -0.02 l -0.01,0.01 -0.01,0.01 -0.01,0.02 h -0.01 l -0.02,0.01 h -0.01 -0.02 l -0.02,0.01 h -0.01 l -0.02,0.01 -0.01,0.01 h -0.02 l -0.02,0.01 -0.01,0.01 h -0.01 l -0.02,0.01 -0.01,0.01 -0.02,0.01 v 0.01 l -0.02,0.01 h -0.01 l -0.02,0.01 h -0.02 l -0.02,0.01 h -0.01 l -0.02,0.01 h -0.02 -0.03 -0.02 -0.01 -0.02 -0.01 -0.02 -0.01 l -0.1,0.1 -0.01,0.01 -0.02,0.01 -0.01,0.02 -0.01,0.01 v 0 l -0.02,0.02 -0.01,0.01 -0.01,0.02 -0.01,0.01 -0.01,0.01 -0.01,0.02 -0.01,0.02 -0.01,0.01 -0.01,0.02 -0.01,0.01 -0.02,0.02 -0.02,0.02 -0.02,0.01 v 0.01 l -0.01,0.01 -0.01,0.02 -0.01,0.01 v 0.02 l -0.02,0.01 -0.01,0.01 -0.01,0.01 -0.01,0.02 -0.02,0.01 -0.01,0.01 -0.01,0.01 -0.02,0.03 v 0.01 l -0.01,0.01 -0.02,0.02 -0.01,0.01 -0.01,0.02 -0.02,0.01 -0.01,0.01 -0.09,0.1 -0.04,0.05 -0.04,0.05 -0.01,0.02 -0.01,0.01 -0.01,0.01 -0.02,0.02 v 0 l -0.01,0.02 -0.02,0.01 -0.01,0.01 -0.01,0.01 -0.01,0.02 -0.01,0.01 -0.01,0.02 -0.01,0.01 -0.01,0.02 v 0.01 l -0.01,0.01 -0.01,0.02 -0.01,0.01 -0.01,0.02 -0.02,0.01 -0.01,0.01 -0.01,0.01 -0.02,0.01 -0.01,0.01 -0.04,0.02 h -0.01 l -0.01,0.01 -0.02,0.02 -0.01,0.01 h -0.01 l -0.01,0.02 -0.01,0.01 -0.02,0.01 -0.02,0.01 -0.01,0.01 -0.02,0.01 -0.02,0.01 -0.01,0.01 v 0.02 l -0.01,0.02 -0.01,0.01 -0.01,0.02 -0.01,0.01 -0.01,0.02 -0.02,0.01 -0.01,0.01 -0.01,0.02 -0.01,0.01 -0.02,0.02 -0.01,0.01 v 0.01 l -0.01,0.01 -0.01,0.02 -0.01,0.01 -0.01,0.02 -0.01,0.03 -0.01,0.01 -0.01,0.02 -0.01,0.01 -0.01,0.02 -0.01,0.02 v 0 l -0.01,0.02 -0.01,0.02 -0.01,0.01 -0.01,0.02 -0.01,0.01 -0.09,0.04 -0.04,0.02 h -0.02 l -0.01,0.01 -0.02,0.01 -0.02,0.01 -0.01,0.01 h -0.02 l -0.03,0.02 h -0.02 l -0.01,0.01 -0.01,0.01 -0.02,0.01 h -0.01 l -0.02,0.01 -0.01,0.01 -0.01,0.01 -0.02,0.01 -0.01,0.01 -0.03,0.02 -0.02,0.01 -0.02,0.01 -0.01,0.01 -0.02,0.01 -0.01,0.01 -0.01,0.01 h -0.01 l -0.02,0.01 -0.03,0.02 -0.02,0.01 h -0.01 l -0.01,0.01 -0.02,0.01 -0.01,0.01 -0.02,0.01 h -0.01 l -0.01,0.02 -0.02,0.01 -0.01,0.01 -0.01,0.01 -0.05,0.03 -0.01,0.01 -0.02,0.02 -0.03,0.03 -0.03,0.02 -0.01,0.01 -0.01,0.01 -0.04,0.04 -0.01,0.01 -0.01,0.01 -0.02,0.01 -0.01,0.02 -0.01,0.01 -0.02,0.02 -0.01,0.01 -0.01,0.02 -0.01,0.01 v 0.02 l -0.01,0.01 -0.02,-0.01 -0.17,-0.06 -0.1,-0.04 -0.07,-0.07 -0.04,0.01 -0.08,-0.01 -0.04,-0.02 h -0.02 l -0.02,-0.01 -0.01,-0.01 h -0.02 l -0.02,-0.01 h -0.02 l -0.01,-0.01 h -0.02 l -0.02,-0.01 -0.02,-0.01 -0.01,-0.01 -0.02,-0.01 h -0.01 l -0.02,-0.02 -0.01,-0.01 -0.01,-0.01 -0.02,-0.01 -0.01,-0.01 v -0.01 l -0.02,-0.01 -0.01,-0.01 -0.01,-0.01 -0.02,-0.01 -0.01,-0.01 -0.02,-0.01 h -0.01 l -0.02,-0.01 h -0.02 l -0.01,-0.01 -0.02,-0.01 -0.01,-0.01 -0.02,-0.01 -0.01,-0.02 -0.01,-0.01 -0.01,-0.01 -0.01,-0.01 -0.02,-0.01 -0.01,-0.01 h -0.01 l -0.01,-0.01 -0.02,-0.01 -0.02,-0.01 -0.01,-0.01 h -0.01 l -0.02,-0.01 -0.01,-0.01 -0.02,-0.01 -0.02,-0.01 h -0.01 l -0.01,-0.01 -0.02,-0.01 -0.02,-0.01 h -0.01 -0.02 l -0.01,-0.01 h -0.02 -0.02 -0.01 -0.02 l -0.02,-0.01 h -0.02 l -0.01,-0.01 -0.01,-0.01 -0.01,-0.02 -0.01,-0.01 -0.01,-0.01 -0.01,-0.01 -0.02,-0.03 -0.01,-0.01 -0.01,-0.02 -0.01,-0.02 -0.02,-0.01 -0.01,-0.01 -0.02,-0.01 -0.01,-0.01 -0.02,-0.02 -0.02,-0.01 -0.01,-0.01 -0.02,-0.02 h -0.01 l -0.01,-0.02 -0.01,-0.01 -0.01,-0.01 v -0.01 l -0.01,-0.01 -0.01,-0.02 v -0.01 l -0.01,-0.02 -0.01,-0.01 -0.01,-0.02 -0.01,-0.01 -0.01,-0.02 -0.01,-0.01 v -0.02 l -0.01,-0.01 v -0.02 l -0.02,-0.03 v -0.02 l -0.01,-0.01 v -0.02 l -0.01,-0.01 -0.02,-0.03 v -0.02 l -0.01,-0.01 -0.01,-0.02 v -0.02 l -0.01,-0.01 v -0.02 l -0.01,-0.01 -0.02,-0.03 -0.03,-0.04 -0.01,-0.02 -0.02,-0.01 -0.01,-0.01 -0.01,-0.02 -0.01,-0.01 -0.01,-0.02 -0.01,-0.01 -0.01,-0.02 -0.01,-0.01 -0.01,-0.02 -0.01,-0.01 -0.01,-0.01 -0.02,-0.01 -0.01,-0.01 -0.01,-0.01 -0.01,-0.01 -0.02,-0.01 -0.02,-0.01 h -0.01 l -0.02,-0.01 h -0.01 l -0.02,-0.01 h -0.02 l -0.07,-0.03 -0.03,-0.01 -0.02,-0.01 h -0.01 l -0.02,-0.01 h -0.01 l -0.02,-0.01 h -0.02 l -0.01,-0.01 h -0.02 l -0.03,-0.01 -0.02,-0.01 h -0.02 l -0.01,-0.01 h -0.01 -0.02 l -0.01,-0.01 h -0.02 -0.04 l -0.02,-0.01 h -0.03 l -0.02,-0.01 h -0.02 -0.02 -0.02 -0.02 -0.01 -0.01 -0.02 -0.02 -0.02 -0.02 -0.01 l -0.02,0.01 h -0.02 -0.02 -0.02 -0.01 -0.02 -0.02 -0.02 -0.02 -0.01 -0.02 -0.02 -0.03 -0.01 l -0.02,-0.01 h -0.01 -0.02 -0.02 l -0.03,0.01 h -0.03 l -0.02,0.01 h -0.02 -0.02 -0.02 -0.04 -0.02 -0.02 -0.01 -0.02 -0.01 -0.02 -0.02 l -0.02,-0.01 h -0.02 -0.01 -0.01 -0.03 l -0.02,0.01 h -0.01 -0.02 l -0.02,0.01 h -0.01 -0.02 -0.01 l -0.02,0.01 h -0.02 -0.02 l -0.02,-0.01 h -0.01 -0.02 -0.02 -0.02 l -0.02,-0.01 -0.02,0.01 h -0.01 -0.01 l -0.02,0.01 -0.02,0.01 -0.01,0.01 h -0.01 l -0.02,0.01 -0.01,0.01 h -0.02 -0.02 l -0.02,0.01 h -0.02 l -0.01,0.01 h -0.04 -0.02 l -0.02,0.01 h -0.03 -0.02 l -0.02,0.01 h -0.01 -0.02 -0.03 -0.01 -0.02 -0.02 -0.02 -0.01 -0.02 -0.01 l -0.03,-0.01 h -0.01 l -0.02,-0.01 h -0.02 -0.01 -0.02 -0.02 l -0.02,-0.01 h -0.02 -0.02 -0.02 l -0.01,-0.01 h -0.02 -0.02 -0.08 v -0.02 -0.02 l -0.01,-0.02 v -0.01 l -0.01,-0.02 0.01,-0.02 0.01,-0.03 0.01,-0.02 v -0.01 l 0.01,-0.02 0.01,-0.02 0.01,-0.03 v -0.02 l 0.01,-0.02 v -0.01 l 0.01,-0.02 0.01,-0.02 v -0.02 l 0.01,-0.02 0.01,-0.02 v -0.01 l 0.01,-0.02 0.01,-0.02 v -0.01 l 0.01,-0.01 v -0.02 l 0.01,-0.01 0.01,-0.02 0.01,-0.03 0.01,-0.02 0.01,-0.02 v -0.01 l 0.01,-0.02 v -0.01 l 0.01,-0.02 v -0.03 l 0.01,-0.02 v -0.01 l 0.01,-0.04 0.01,-0.02 V 376 l 0.01,-0.02 v -0.02 -0.02 -0.02 -0.01 l 0.01,-0.04 v -0.01 -0.02 l 0.01,-0.02 v -0.01 -0.02 l 0.01,-0.02 v -0.01 -0.02 l 0.01,-0.01 -0.02,-0.03 v 0 l -0.01,-0.02 v -0.02 l 0.01,-0.02 v -0.01 l 0.01,-0.02 v -0.01 l 0.01,-0.01 0.01,-0.02 0.01,-0.02 v 0 -0.02 l 0.01,-0.02 v -0.02 l 0.01,-0.02 0.01,-0.03 v -0.02 l 0.01,-0.02 v -0.02 -0.01 l 0.01,-0.02 v -0.01 l 0.02,-0.03 0.01,-0.02 v -0.02 -0.02 -0.02 l 0.01,-0.02 h 0.03 0.05 l 0.01,-0.01 0.01,-0.02 v -0.02 -0.01 -0.02 -0.02 -0.01 l 0.01,-0.01 v -0.02 -0.02 l 0.01,-0.01 0.01,-0.02 0.01,-0.01 0.01,-0.02 0.01,-0.01 0.01,-0.02 h 0.01 v -0.02 l 0.01,-0.02 0.01,-0.01 v -0.02 l 0.01,-0.01 v -0.02 l 0.01,-0.01 v -0.02 -0.02 -0.02 -0.02 -0.01 -0.03 l -0.01,-0.01 v -0.02 -0.02 l -0.01,-0.03 -0.01,-0.01 v -0.01 -0.01 l -0.01,-0.02 v -0.01 l -0.01,-0.02 v -0.02 l -0.01,-0.02 v -0.02 l -0.01,-0.01 v -0.02 -0.02 -0.02 -0.01 l -0.01,-0.01 v -0.02 -0.01 l -0.01,-0.04 v -0.03 -0.01 -0.02 -0.02 -0.01 -0.02 -0.02 -0.02 -0.01 l 0.01,-0.04 v -0.02 -0.01 -0.02 -0.02 -0.02 -0.02 -0.01 l -0.01,-0.02 v -0.02 l -0.01,-0.04 1.1,-0.93 0.26,-0.21 0.1,-0.09 0.12,0.02 0.34,0.02 h 0.39 l 0.32,0.01 0.16,0.01 0.08,0.01 0.1,0.02 h 0.11 l 0.21,-0.05 0.26,-0.06 0.35,-0.1 0.15,-0.05 0.1,-0.04 0.1,-0.07 0.07,-0.07 0.06,-0.07 0.04,-0.07 0.03,-0.07 0.04,-0.1 0.03,-0.12 0.02,-0.12 0.02,-0.17 v -0.16 l -0.02,-0.36 -0.01,-0.25 0.01,-0.28 0.03,-0.28 0.06,-0.29 0.06,-0.21 0.1,-0.26 0.11,-0.21 0.12,-0.2 0.17,-0.24 0.15,-0.22 0.19,-0.27 0.19,-0.27 0.12,-0.23 0.1,-0.23 0.19,-0.41 0.18,-0.39 0.22,-0.42 0.09,-0.2 0.03,-0.1 0.02,-0.1 v -0.1 z m -28.79,36.29 0.03,-0.03 0.05,-0.05 v -0.02 l 0.01,-0.01 v -0.04 l 0.02,-0.05 0.02,-0.07 0.02,-0.06 0.03,-0.02 0.03,-0.01 0.04,-0.03 0.02,-0.04 0.01,-0.01 0.01,-0.02 0.01,-0.04 0.02,-0.03 0.01,-0.04 0.01,-0.04 0.02,-0.05 0.01,-0.04 0.01,-0.03 0.01,-0.04 0.02,-0.03 0.02,-0.03 0.03,-0.05 0.04,-0.06 0.02,-0.01 0.02,-0.03 0.04,-0.03 0.03,-0.03 0.02,-0.04 0.02,-0.03 0.02,-0.06 0.01,-0.05 0.02,-0.1 0.03,-0.16 0.03,-0.11 0.03,-0.12 0.02,-0.12 h 0.01 l 0.05,0.02 0.06,0.01 h 0.06 l 0.09,0.02 h 0.08 0.09 0.02 0.02 0.05 0.12 l 0.09,0.01 h 0.1 0.04 0.01 l 0.01,0.01 0.01,0.03 0.01,0.05 h 0.1 0.07 l 0.04,0.01 h 0.06 l 0.04,0.01 h 0.04 l 0.05,0.01 h 0.06 0.07 0.07 l 0.08,0.01 0.07,-0.02 h 0.08 l 0.05,0.01 0.08,0.02 0.08,0.02 0.1,0.01 0.09,0.02 0.07,0.02 0.05,0.03 0.04,0.02 0.06,0.01 h 0.07 l 0.07,0.01 0.05,0.01 0.07,-0.01 0.06,-0.01 0.07,-0.01 0.03,0.01 0.06,0.03 0.01,0.02 0.03,0.02 0.03,0.02 0.02,0.04 0.01,0.03 v 0.02 0.01 l -0.01,0.03 -0.01,0.06 v 0.04 l 0.01,0.04 0.02,0.04 0.02,0.05 0.01,0.05 0.01,0.06 0.01,0.06 0.01,0.05 0.01,0.03 0.01,0.02 0.01,0.03 0.03,0.07 0.03,0.04 0.03,0.05 0.04,0.05 0.02,0.01 0.07,0.07 0.11,0.08 0.09,0.08 0.02,0.15 v 0.02 l 0.03,0.12 0.02,0.06 0.01,0.06 v 0.02 0.03 l 0.02,0.1 0.03,0.08 0.02,0.07 0.01,0.04 v 0.11 l 0.01,0.12 -0.02,0.08 -0.04,0.04 -0.01,0.03 -0.01,0.04 v 0.05 l 0.01,0.04 v 0.06 0.07 0.02 0.04 l 0.01,0.08 0.01,0.1 0.01,0.03 v 0.07 0.08 l 0.01,0.02 0.01,0.07 v 0.05 0.07 0.06 0.06 0.06 0.04 l -0.01,0.03 v 0.06 0.03 0.04 l 0.01,0.07 0.01,0.07 0.01,0.03 0.02,0.07 0.01,0.11 0.02,0.08 0.03,0.08 0.02,0.08 0.03,0.08 0.02,0.07 0.03,0.01 0.06,0.01 0.13,0.05 0.07,0.03 0.05,0.02 0.09,0.02 0.06,0.02 h 0.04 l 0.07,0.04 0.08,0.03 0.07,0.01 h 0.03 0.01 l 0.07,-0.02 h 0.01 l 0.11,-0.02 h 0.05 l 0.04,-0.02 0.03,-0.01 0.06,-0.01 0.07,-0.01 0.03,-0.01 0.03,-0.01 0.04,-0.02 0.03,-0.02 0.02,-0.02 h 0.04 l 0.15,0.02 h 0.08 l 0.06,0.01 h 0.07 l 0.08,-0.01 h 0.07 l 0.07,-0.01 0.11,-0.02 h 0.06 l 0.12,-0.01 h 0.08 0.08 l 0.07,-0.01 h 0.04 l 0.05,0.01 0.05,0.03 h 0.01 l 0.04,0.02 0.08,0.03 0.04,0.03 0.06,0.04 0.06,0.05 0.04,0.04 0.03,0.03 0.02,0.02 0.07,0.04 0.04,0.04 h 0.01 l 0.04,0.03 0.03,0.03 0.02,0.01 h 0.03 l 0.1,0.01 0.14,0.01 0.1,0.02 0.12,0.05 0.14,0.05 0.09,0.04 0.13,0.08 0.11,0.06 0.09,0.06 0.09,0.07 0.14,0.1 0.14,0.1 0.17,0.11 0.19,0.1 0.21,0.1 -0.01,0.13 -0.01,0.11 -0.02,0.12 -0.03,0.14 -0.02,0.12 v 0.06 l -0.01,0.11 v 0.14 l 0.01,0.05 0.01,0.07 0.02,0.13 -0.04,0.23 -0.04,0.25 -0.03,0.27 -0.03,0.26 -0.01,0.09 0.01,0.18 0.01,0.09 v 0.04 l -0.01,0.06 -0.02,0.18 -0.02,0.17 v 0.05 0.11 l 0.02,0.05 0.01,0.06 0.01,0.07 0.01,0.09 0.01,0.09 0.02,0.14 0.01,0.16 0.01,0.12 0.42,-0.11 0.07,-0.02 h 0.01 0.01 l 0.26,-0.06 0.44,-0.09 0.26,-0.05 h 0.06 l 0.24,0.01 h 0.09 l 0.05,0.02 0.03,0.02 0.09,0.05 0.16,0.11 0.05,0.04 0.05,0.02 0.08,0.03 0.06,0.02 0.1,0.01 0.29,0.09 0.34,0.08 0.01,0.02 0.01,0.04 0.02,0.07 0.02,0.03 0.51,0.35 0.02,0.01 0.01,0.02 0.02,0.03 0.02,0.18 v 0.03 l -0.01,0.06 -0.02,0.07 -0.05,0.18 -0.08,0.24 v 0.04 l 0.02,0.11 0.01,0.15 0.01,0.16 0.02,0.3 0.02,0.31 0.01,0.21 0.01,0.24 0.04,0.45 0.01,0.07 0.09,0.23 0.01,0.28 0.04,0.49 V 415 l -0.01,0.11 v 0.08 0.03 l 0.01,0.04 0.08,0.2 0.03,0.15 0.11,0.16 0.08,0.13 0.07,0.14 0.04,0.08 0.06,0.14 0.03,0.07 0.19,0.32 -0.08,0.14 -0.19,0.26 -0.17,0.19 -0.08,0.22 -0.11,0.23 -0.03,0.1 -0.05,0.16 -0.04,0.1 v 0.03 0.03 l 0.02,0.07 0.01,0.08 0.01,0.11 0.01,0.05 -0.01,0.04 -0.01,0.08 -0.02,0.16 -0.04,0.19 -0.02,0.17 -0.03,0.14 -0.03,0.05 -0.11,0.16 -0.11,0.16 -0.08,0.1 -0.06,0.08 -0.03,0.06 -0.03,0.09 -0.03,0.1 -0.03,0.07 -0.02,0.07 -0.02,0.11 -0.02,0.1 v 0.04 0.06 0.09 0.1 0.06 l -0.03,0.09 -0.05,0.13 -0.02,0.04 -0.02,0.02 -0.03,0.03 -0.13,0.11 -0.08,0.07 -0.06,0.08 -0.06,0.06 -0.14,0.17 -0.15,0.18 -0.07,0.1 -0.03,0.07 -0.05,0.09 -0.03,0.07 -0.07,0.23 -0.07,0.18 -0.01,0.03 v 0.04 l -0.01,0.11 -0.01,0.07 -0.03,0.15 -0.02,0.12 0.01,0.06 0.02,0.08 0.09,0.28 0.03,0.13 -0.05,0.08 -0.05,0.1 -0.03,0.01 -0.05,0.03 -0.07,0.03 -0.04,0.03 -0.12,0.06 -0.11,0.07 -0.09,0.06 -0.05,0.02 -0.03,0.03 -0.04,0.02 -0.07,0.06 -0.1,0.09 -0.14,0.12 -0.09,0.08 -0.03,0.03 -0.04,0.07 -0.12,0.19 -0.09,0.13 -0.07,0.11 -0.07,0.08 -0.1,0.12 -0.08,0.09 -0.08,0.1 -0.07,0.11 -0.08,0.12 -0.06,0.09 -0.03,0.04 -0.04,0.04 -0.06,0.08 -0.03,0.05 -0.07,0.1 -0.08,0.14 -0.16,0.25 -0.1,0.06 -0.09,0.05 -0.1,0.06 -0.13,0.1 -0.14,0.1 -0.14,0.1 -0.22,0.14 -0.19,0.11 -0.17,0.1 -0.11,0.06 -0.16,0.06 -0.12,0.04 -0.08,0.02 -0.08,0.03 -0.03,0.02 -0.07,0.05 -0.13,0.1 -0.09,0.06 -0.04,0.02 -0.02,-0.01 h -0.02 -0.02 l -0.03,-0.01 h -0.01 l -0.73,-0.04 h -0.03 l -0.21,0.09 h -0.01 l -0.23,0.1 -0.19,0.08 -0.03,0.02 -0.02,0.02 -0.02,0.02 -0.02,0.02 -0.04,0.03 -0.02,0.03 -0.03,0.01 h -0.04 l -0.05,0.02 h -0.04 l -0.03,0.01 -0.12,0.02 -0.1,0.02 -0.09,0.01 -0.05,0.04 -0.06,0.05 -0.04,0.02 -0.05,0.01 -0.07,0.02 -0.05,0.01 -0.05,0.02 -0.05,0.04 -0.05,0.02 -0.03,0.04 -0.05,0.05 -0.04,0.03 -0.04,0.01 -0.05,0.02 -0.08,0.03 -0.06,0.03 -0.19,0.1 -0.07,0.04 -0.02,0.01 -0.01,0.01 -0.01,0.01 -0.01,0.02 -0.01,0.02 -0.03,0.07 -0.02,0.04 -0.03,0.01 -0.04,0.01 -0.11,0.05 -0.31,0.11 -0.07,0.02 -0.15,0.06 -0.02,0.01 -0.01,0.03 -0.01,0.01 v 0.03 l 0.01,0.04 v 0.08 0.07 l 0.01,0.07 -0.09,0.03 -0.1,0.06 -0.1,0.04 -0.05,-0.01 -0.04,-0.01 h -0.01 -0.02 l -0.02,0.01 -0.1,0.05 -0.11,0.05 -0.11,0.04 -0.14,0.04 -0.1,0.02 -0.04,0.01 -0.08,0.03 -0.08,0.02 -0.06,0.01 -0.04,0.04 -0.1,0.11 -0.07,0.08 -0.04,0.06 -0.03,0.05 -0.07,0.14 -0.06,0.12 -0.07,0.13 -0.05,0.07 -0.07,0.1 -0.07,0.1 -0.03,0.03 -0.04,0.04 -0.03,0.04 -0.02,0.03 -0.02,0.03 -0.04,0.06 -0.07,0.13 v 0.01 l -0.06,0.05 -0.08,0.08 -0.16,0.15 -0.04,0.04 -0.02,0.02 -0.04,0.04 -0.04,0.05 -0.06,0.06 -0.03,0.03 -0.06,0.05 -0.11,0.1 v 0.01 l -0.06,0.06 v 0.01 l -0.04,0.04 -0.04,0.04 -0.07,0.06 -0.11,0.11 -0.09,0.1 -0.04,0.06 -0.05,0.07 -0.07,0.09 -0.02,0.03 -0.01,0.01 -0.03,0.08 -0.05,0.07 -0.07,0.08 -0.06,0.07 -0.03,0.06 -0.04,0.06 -0.03,0.04 -0.02,0.03 -0.03,0.05 -0.07,0.08 -0.01,0.03 -0.02,0.05 -0.02,0.08 -0.02,0.04 -0.01,0.01 -0.02,0.05 -0.08,0.17 -0.03,0.06 -0.01,0.03 -0.05,0.11 -0.01,0.04 -0.01,0.05 -0.02,0.04 -0.01,0.06 v 0.02 l -0.02,0.04 -0.02,0.04 -0.03,0.05 -0.04,0.07 -0.03,0.05 -0.03,0.05 -0.02,0.03 -0.04,0.11 -0.02,0.07 -0.02,0.04 -0.02,0.05 -0.03,0.06 -0.03,0.05 -0.04,0.06 -0.04,0.07 -0.07,0.1 -0.06,0.07 -0.03,0.04 -0.05,0.06 -0.07,0.07 -0.29,0.31 -0.06,0.06 -0.06,0.07 -0.07,0.08 -0.1,0.09 -0.03,0.02 -0.04,0.05 -0.01,0.02 -0.04,0.05 -0.01,0.01 v 0 l -0.01,0.01 -0.01,0.01 -0.01,0.01 -0.02,0.02 -0.02,0.03 -0.01,0.01 -0.01,0.01 -0.01,0.01 -0.01,0.01 -0.01,0.01 v 0 l -0.01,0.01 -0.01,0.01 h -0.01 l -0.01,0.01 -0.16,0.2 -0.1,0.12 -0.21,0.31 -0.09,0.12 -0.06,0.09 -0.05,0.04 -0.03,0.03 -0.06,0.05 -0.14,0.12 -0.09,0.08 -0.08,0.07 -0.05,0.06 -0.04,0.05 -0.02,0.05 -0.03,0.04 -0.01,0.05 -0.01,0.04 -0.02,0.06 -0.02,0.06 -0.01,0.02 -0.03,0.04 -0.02,0.04 -0.1,0.15 -0.01,0.02 -0.03,0.02 -0.04,0.06 -0.03,0.05 -0.01,0.01 -0.07,0.12 -0.08,0.12 -0.2,0.28 -0.21,0.29 -0.06,0.1 -0.03,0.06 -0.08,0.12 -0.07,0.12 -0.03,0.06 -0.07,0.07 -0.04,0.06 -0.03,0.03 v -0.05 -0.03 l 0.01,-0.05 0.01,-0.06 v -0.04 l 0.01,-0.04 v -0.04 l -0.01,-0.07 v -0.07 l 0.01,-0.06 v -0.03 -0.02 -0.04 -0.07 l -0.01,-0.07 v -0.07 -0.16 l 0.01,-0.13 -0.01,-0.08 v -0.04 -0.03 l 0.01,-0.05 v -0.11 -0.09 -0.02 -0.02 l -0.01,-0.08 -0.01,-0.08 -0.02,-0.07 v -0.03 l -0.01,-0.03 -0.02,-0.08 -0.08,-0.36 -0.01,-0.03 -0.01,-0.05 -0.01,-0.02 -0.07,-0.33 -0.04,-0.15 -0.05,-0.21 -0.01,-0.04 -0.01,-0.03 v -0.01 l -0.01,-0.04 v -0.05 -0.03 l -0.01,-0.04 -0.01,-0.07 -0.01,-0.04 -0.01,-0.04 -0.01,-0.05 -0.01,-0.06 -0.02,-0.07 v -0.05 -0.06 -0.04 -0.11 l -0.01,-0.03 -0.01,-0.04 -0.01,-0.01 v -0.01 l -0.02,-0.04 -0.01,-0.02 v 0 l -0.01,-0.01 v -0.02 -0.02 l 0.01,-0.04 v -0.05 -0.03 -0.01 -0.08 -0.1 -0.02 l -0.01,-0.03 v -0.02 l -0.01,-0.01 -0.01,-0.03 -0.01,-0.04 -0.01,-0.02 -0.02,-0.07 -0.01,-0.03 -0.01,-0.02 -0.01,-0.02 -0.01,-0.06 -0.02,-0.05 v -0.02 -0.02 -0.06 -0.04 l -0.01,-0.05 v -0.05 l -0.01,-0.02 v -0.01 -0.06 l -0.01,-0.06 v -0.08 -0.04 l -0.01,-0.04 -0.01,-0.05 -0.01,-0.02 v -0.02 l -0.02,-0.1 v -0.08 -0.03 l -0.01,-0.09 v -0.04 -0.02 -0.07 l -0.01,-0.06 v -0.01 l -0.02,-0.14 -0.02,-0.21 v -0.01 l -0.03,-0.33 -0.03,-0.38 -0.01,-0.08 -0.02,-0.23 -0.01,-0.12 v -0.12 l -0.01,-0.24 0.01,-0.03 -0.01,-0.04 -0.02,-0.12 -0.02,-0.19 -0.02,-0.25 v -0.03 l -0.01,-0.09 v -0.07 l -0.02,-0.17 -0.03,-0.3 -0.03,-0.27 -0.01,-0.14 -0.01,-0.07 -0.01,-0.06 -0.03,-0.31 -0.02,-0.22 -0.02,-0.13 v -0.03 -0.02 -0.01 l -0.04,-0.34 -0.03,-0.27 -0.01,-0.12 -0.01,-0.02 v -0.04 l -0.01,-0.03 -0.02,-0.09 -0.05,-0.15 v -0.01 l -0.01,-0.02 -0.09,-0.34 -0.08,-0.3 -0.06,-0.19 -0.03,-0.11 -0.03,-0.09 -0.01,-0.06 -0.02,-0.1 -0.01,-0.07 -0.01,-0.03 v -0.03 l -0.02,-0.21 -0.03,-0.22 0.02,-0.06 0.03,-0.07 0.02,-0.06 0.03,-0.1 0.05,-0.08 0.06,-0.13 0.09,-0.17 0.06,-0.13 0.08,-0.2 0.05,-0.12 0.08,-0.14 0.1,-0.2 0.03,-0.13 0.02,-0.14 0.02,-0.14 v -0.06 l -0.01,-0.02 -0.02,-0.06 -0.04,-0.09 -0.01,-0.04 v -0.06 -0.11 l 0.01,-0.11 0.01,-0.11 0.01,-0.11 0.03,-0.1 0.02,-0.07 v -0.05 l -0.01,-0.03 -0.04,-0.08 -0.02,-0.08 -0.02,-0.07 v -0.05 l 0.01,-0.05 v -0.03 l 0.02,-0.06 v -0.03 l 0.04,-0.11 0.04,-0.14 0.06,-0.17 v -0.01 l 0.02,-0.05 v -0.01 l -0.01,-0.01 -0.02,-0.04 -0.03,-0.05 -0.01,-0.01 0.01,-0.05 0.01,-0.02 0.03,-0.15 0.02,-0.16 0.02,-0.22 0.04,-0.32 0.02,-0.24 v 0 l 0.02,-0.13 v -0.04 -0.04 -0.01 l 0.01,-0.07 0.02,-0.17 v -0.07 -0.04 -0.04 -0.02 l 0.01,-0.07 v -0.02 l 0.01,-0.09 0.04,-0.22 -0.01,-0.03 -0.07,-0.22 -0.01,-0.07 0.01,-0.03 0.04,-0.06 0.02,-0.03 v -0.06 l 0.03,-0.13 0.02,-0.19 0.01,-0.12 -0.02,-0.14 -0.01,-0.15 0.02,-0.15 0.01,-0.24 0.01,-0.18 v -0.14 l -0.02,-0.14 -0.02,-0.12 -0.01,-0.05 v -0.08 l -0.01,-0.05 -0.03,-0.12 v -0.01 l -0.01,-0.03 -0.01,-0.06 -0.04,-0.14 -0.05,-0.17 v -0.02 l -0.05,-0.19 -0.02,-0.13 -0.01,-0.08 0.01,-0.14 0.02,-0.13 0.02,-0.12 0.02,-0.05 0.02,-0.07 0.03,-0.04 0.04,-0.06 0.02,-0.04 0.02,-0.05 0.04,-0.06 0.03,-0.04 0.07,-0.06 0.07,-0.06 0.04,-0.02 0.08,-0.02 0.16,-0.03 0.2,-0.07 0.11,-0.05 0.02,-0.02 0.03,-0.05 0.1,-0.18 0.02,-0.04 v 0 l 0.01,-0.01 0.04,-0.1 0.06,-0.18 0.05,-0.13 0.01,-0.03 0.13,-0.04 0.19,-0.08 0.14,-0.07 0.16,-0.11 0.12,-0.08 0.13,-0.09 0.08,-0.07 0.05,-0.04 0.04,-0.02 0.08,-0.04 0.12,-0.04 0.15,-0.05 0.15,-0.04 0.06,-0.03 0.05,-0.02 0.08,-0.04 0.06,-0.06 0.07,-0.08 0.06,-0.09 0.06,-0.1 0.03,-0.07 0.04,-0.1 0.02,-0.12 0.01,-0.11 0.01,-0.1 v -0.04 l -0.02,-0.05 -0.03,-0.08 -0.06,-0.14 -0.02,-0.11 -0.03,-0.11 -0.01,-0.12 -0.03,-0.24 -0.02,-0.17 -0.01,-0.03 v -0.01 l -0.01,-0.18 -0.03,-0.21 v -0.07 l 0.01,-0.13 v -0.2 l -0.01,-0.13 0.01,-0.07 0.02,-0.03 0.02,-0.04 0.05,-0.1 0.03,-0.11 0.02,-0.1 v -0.01 l 0.01,-0.11 v -0.02 -0.06 l 0.01,-0.13 v -0.11 l 0.01,-0.01 0.01,-0.06 0.01,-0.04 0.05,-0.1 0.05,-0.11 0.08,-0.14 0.08,-0.14 0.02,-0.02 0.02,-0.04 0.04,-0.1 0.03,-0.08 0.02,-0.03 0.02,-0.04 0.03,-0.06 0.06,-0.09 0.06,-0.09 0.02,-0.04 0.01,-0.02 0.02,-0.05 0.03,-0.04 0.01,-0.03 0.06,-0.1 0.06,-0.11 0.07,-0.1 0.05,-0.09 0.09,-0.14 0.07,-0.11 0.06,-0.1 0.08,-0.12 0.11,-0.16 0.1,-0.2 0.1,-0.22 0.06,-0.15 0.06,-0.14 0.08,-0.2 0.07,-0.17 0.07,-0.19 0.04,-0.13 0.04,-0.13 0.04,-0.12 0.01,-0.03 0.01,-0.02 0.03,-0.11 v -0.02 l 0.01,-0.01 0.03,-0.09 0.02,-0.08 0.01,-0.05 0.01,-0.03 0.02,-0.07 0.01,-0.06 v -0.05 l 0.02,-0.05 0.01,-0.06 v -0.02 l 0.02,-0.06 0.03,-0.11 0.02,-0.06 0.01,-0.04 v -0.02 -0.03 -0.02 l 0.01,-0.03 v -0.04 l 0.01,-0.07 v -0.04 -0.03 -0.05 l -0.01,-0.05 -0.02,-0.05 -0.02,-0.08 -0.01,-0.06 -0.03,-0.05 -0.02,-0.05 v -0.04 l -0.01,-0.05 v -0.08 l -0.01,-0.1 -0.03,-0.09 -0.02,-0.06 -0.03,-0.07 v -0.01 l -0.04,-0.12 -0.04,-0.07 V 404.01 404 l -0.01,-0.02 v -0.02 -0.02 -0.04 -0.04 -0.02 -0.02 -0.02 -0.1 -0.03 -0.03 l -0.01,-0.05 -0.01,-0.05 -0.01,-0.05 v -0.02 -0.02 l 0.01,-0.03 0.01,-0.07 0.01,-0.02 0.04,-0.08 0.01,-0.06 0.02,-0.02 0.01,-0.03 0.02,-0.03 v -0.01 l 0.03,-0.04 0.06,-0.07 0.01,-0.02 0.03,-0.03 0.01,-0.02 0.01,-0.02 0.02,-0.03 v -0.01 l 0.01,-0.03 0.01,-0.04 0.01,-0.03 0.02,-0.03 0.02,-0.05 0.02,-0.03 0.04,-0.06 0.06,-0.06 0.04,-0.05 0.08,-0.08 0.03,-0.06 0.02,-0.04 0.02,-0.03 0.02,-0.03 0.04,-0.06 z"
       id="path57"
       inkscape:connector-curvature="0" />
  </g>
</svg>
