<?xml version="1.0" encoding="UTF-8" standalone="no"?>
<svg
   xmlns:dc="http://purl.org/dc/elements/1.1/"
   xmlns:cc="http://creativecommons.org/ns#"
   xmlns:rdf="http://www.w3.org/1999/02/22-rdf-syntax-ns#"
   xmlns:svg="http://www.w3.org/2000/svg"
   xmlns="http://www.w3.org/2000/svg"
   xmlns:sodipodi="http://sodipodi.sourceforge.net/DTD/sodipodi-0.dtd"
   xmlns:inkscape="http://www.inkscape.org/namespaces/inkscape"
   version="1.2"
   width="800"
   height="642"
   viewBox="0 0 800 642"
   stroke-linecap="round"
   stroke-linejoin="round"
   id="svg104"
   sodipodi:docname="Zalduondo.svg"
   inkscape:version="0.92.5 (2060ec1f9f, 2020-04-08)">
  <metadata
     id="metadata110">
    <rdf:RDF>
      <cc:Work
         rdf:about="">
        <dc:format>image/svg+xml</dc:format>
        <dc:type
           rdf:resource="http://purl.org/dc/dcmitype/StillImage" />
      </cc:Work>
    </rdf:RDF>
  </metadata>
  <defs
     id="defs108" />
  <sodipodi:namedview
     pagecolor="#ffffff"
     bordercolor="#666666"
     borderopacity="1"
     objecttolerance="10"
     gridtolerance="10"
     guidetolerance="10"
     inkscape:pageopacity="0"
     inkscape:pageshadow="2"
     inkscape:window-width="1848"
     inkscape:window-height="1016"
     id="namedview106"
     showgrid="false"
     inkscape:zoom="1.470405"
     inkscape:cx="400"
     inkscape:cy="321"
     inkscape:window-x="72"
     inkscape:window-y="27"
     inkscape:window-maximized="1"
     inkscape:current-layer="svg104" />
  <g
     id="Zalduondo"
     transform="matrix(19.447097,0,0,19.447097,-5721.5513,-4671.9661)">
    <path
       d="m 318.71,244.12 0.6,0.37 0.82,0.38 0.86,0.25 0.86,0.15 0.5,0.11 0.85,0.29 -0.01,0.03 -0.12,0.35 0.05,0.42 0.2,1.06 0.25,1 -0.04,0.41 -0.18,0.39 -0.24,0.53 -0.44,0.23 -0.49,0.22 -0.45,0.23 -0.41,0.48 -0.19,0.46 -0.3,0.58 -0.45,0.13 -0.36,0.24 -0.2,0.59 0.12,0.37 -0.1,0.33 -0.12,0.46 -0.25,0.87 -0.08,0.84 -0.1,1.16 -0.13,0.92 -0.22,1.15 -0.24,0.46 -0.43,0.7 -0.26,0.54 -0.07,0.38 0.2,0.17 0.3,0.1 1.54,0.17 0.72,0.15 0.53,0.26 0.33,0.27 0.12,0.3 -0.05,0.87 -0.11,0.5 -0.34,0.91 -0.37,0.92 -0.37,0.67 -0.43,0.8 -0.25,0.55 -0.37,1.1 -0.26,0.2 -0.2,-0.02 -0.26,-0.18 -0.24,-0.16 h -0.19 l -0.16,0.16 -0.31,0.25 -0.3,0.11 -0.48,-0.19 0.01,-0.23 -0.11,-0.33 -0.45,-0.31 -0.65,-0.15 -0.87,-0.07 -0.6,0.02 -0.07,0.13 -0.13,0.61 -0.84,-0.15 0.06,-0.42 0.04,-0.48 -0.04,-0.5 -1.2,-0.08 0.5,-0.36 0.48,-0.18 0.14,-0.17 -0.21,-0.13 -1.32,-0.74 -1.57,-0.94 0.04,-0.44 0.33,-0.48 0.41,-0.61 0.45,-0.44 0.42,-0.27 0.49,-0.35 0.46,-0.42 0.59,-0.83 0.28,-0.75 0.36,-1.19 0.39,-1.1 0.46,-1.08 0.31,-0.88 0.07,-0.61 0.01,-0.87 0.03,-1.04 0.06,-0.98 0.12,-1 0.06,-0.67 0.12,-0.54 0.27,-0.56 0.41,-0.62 0.55,-0.72 0.5,-0.68 0.62,-0.72 0.35,-0.58 0.28,-0.81 0.09,-0.66 0.02,-0.57 z"
       id="path101"
       inkscape:connector-curvature="0" />
  </g>
</svg>
