<?xml version="1.0" encoding="UTF-8" standalone="no"?>
<svg
   xmlns:dc="http://purl.org/dc/elements/1.1/"
   xmlns:cc="http://creativecommons.org/ns#"
   xmlns:rdf="http://www.w3.org/1999/02/22-rdf-syntax-ns#"
   xmlns:svg="http://www.w3.org/2000/svg"
   xmlns="http://www.w3.org/2000/svg"
   xmlns:sodipodi="http://sodipodi.sourceforge.net/DTD/sodipodi-0.dtd"
   xmlns:inkscape="http://www.inkscape.org/namespaces/inkscape"
   version="1.2"
   width="800"
   height="642"
   viewBox="0 0 800 642"
   stroke-linecap="round"
   stroke-linejoin="round"
   id="svg137"
   sodipodi:docname="Zamudio.svg"
   inkscape:version="0.92.5 (2060ec1f9f, 2020-04-08)">
  <metadata
     id="metadata143">
    <rdf:RDF>
      <cc:Work
         rdf:about="">
        <dc:format>image/svg+xml</dc:format>
        <dc:type
           rdf:resource="http://purl.org/dc/dcmitype/StillImage" />
      </cc:Work>
    </rdf:RDF>
  </metadata>
  <defs
     id="defs141" />
  <sodipodi:namedview
     pagecolor="#ffffff"
     bordercolor="#666666"
     borderopacity="1"
     objecttolerance="10"
     gridtolerance="10"
     guidetolerance="10"
     inkscape:pageopacity="0"
     inkscape:pageshadow="2"
     inkscape:window-width="1848"
     inkscape:window-height="1016"
     id="namedview139"
     showgrid="false"
     inkscape:zoom="1.0397333"
     inkscape:cx="400"
     inkscape:cy="321"
     inkscape:window-x="72"
     inkscape:window-y="27"
     inkscape:window-maximized="1"
     inkscape:current-layer="svg137" />
  <g
     id="Zamudio"
     transform="matrix(19.186789,0,0,19.186789,-2816.7699,-1734.6559)">
    <path
       d="m 172.5,97.34 0.26,-0.26 h 0.01 0.02 l 0.02,0.01 h 0.01 0.02 l 0.02,0.01 h 0.01 l 0.01,0.01 0.01,0.01 h 0.01 l 0.01,0.01 0.01,0.01 0.01,0.01 0.01,0.01 0.01,0.01 0.01,0.01 h 0.01 l 0.01,0.01 0.01,0.01 v 0.01 l 0.01,0.01 h 0.01 v 0.01 l 0.01,0.01 0.01,0.01 0.01,0.01 v 0.01 l 0.01,0.01 0.01,0.01 0.01,0.01 0.01,0.01 h 0.01 l 0.01,0.01 0.01,0.01 0.01,0.01 0.01,0.01 h 0.01 l 0.01,0.02 h 0.01 l 0.01,0.01 0.01,0.01 0.02,0.01 0.01,0.01 h 0.01 l 0.01,0.01 0.01,0.01 h 0.01 l 0.01,0.01 h 0.01 0.02 l 0.01,0.01 h 0.01 0.01 0.01 0.02 l 0.02,0.01 h 0.03 l 0.02,0.01 h 0.02 0.02 0.01 0.01 0.01 v 0.01 h 0.02 l 0.56,0.02 -0.17,0.47 -0.37,0.48 0.44,0.36 0.48,0.26 2.57,1.71 0.76,0.39 0.78,0.5 -0.81,1.19 -0.64,0.63 -0.48,0.59 -1.09,1.06 -0.44,0.6 -0.05,0.12 -0.05,0.16 -0.12,0.38 -0.03,0.12 -0.02,0.06 -0.08,0.16 -0.04,0.11 -0.02,0.06 -0.04,0.12 -0.08,0.56 -0.01,0.13 v 0.05 l -0.03,-0.01 h -0.02 -0.01 -0.02 l -0.01,-0.01 h -0.01 l -0.02,0.01 h -0.01 -0.02 -0.01 l -0.02,0.01 h -0.01 -0.02 l -0.01,0.01 -0.01,0.01 h -0.02 l -0.01,0.01 -0.02,0.01 h -0.02 l -0.01,0.02 h -0.02 l -0.01,0.01 -0.02,0.01 -0.01,0.01 -0.01,0.01 h -0.01 l -0.01,0.01 -0.01,0.01 -0.01,0.01 -0.02,0.01 -0.01,0.01 -0.01,0.01 -0.02,0.01 -0.01,0.01 -0.01,0.01 -0.01,0.01 -0.02,0.01 -0.01,0.01 -0.01,0.01 -0.02,0.01 -0.01,0.01 -0.01,0.01 -0.01,0.01 -0.01,0.02 -0.02,0.01 -0.01,0.01 -0.01,0.01 -0.01,0.01 h -0.01 l -0.01,0.01 -0.01,0.01 h -0.01 v 0.01 l -0.02,0.01 h -0.01 l -0.01,0.01 h -0.01 l -0.01,0.01 -0.01,0.01 h -0.01 l -0.01,0.01 h -0.02 l -0.01,0.01 -0.01,0.01 -0.01,0.01 -0.01,0.01 -0.02,0.01 -0.01,0.01 -0.01,0.01 -0.01,0.01 -0.01,0.01 -0.01,0.02 -0.01,0.01 -0.01,0.01 -0.01,0.01 -0.01,0.01 v 0.02 l -0.01,0.01 -0.01,0.01 -0.01,0.02 -0.01,0.01 v 0.01 l -0.01,0.02 -0.01,0.01 v 0.01 l -0.01,0.02 -0.01,0.01 v 0.02 0.01 l -0.01,0.02 v 0.01 l -0.01,0.02 v 0.01 0.02 l -0.01,0.02 v 0.02 0.02 l -0.01,0.02 v 0.02 l -0.01,0.02 v 0.01 l -0.01,0.05 -0.03,0.05 -0.02,0.05 -0.03,0.07 -0.03,0.06 -0.02,0.07 -0.01,0.03 -0.06,0.19 -0.01,0.02 -0.01,0.02 v 0.01 l -0.01,0.02 v 0.01 l -0.01,0.01 v 0.01 l -0.01,0.01 -0.01,0.01 v 0.01 l -0.01,0.01 -0.01,0.01 v 0.01 l -0.01,0.01 v 0 l -0.05,0.07 -0.03,0.05 -0.04,0.08 -0.04,0.1 -0.03,0.06 -0.02,0.03 -0.03,0.05 -0.11,0.13 -0.02,0.05 -0.02,0.05 -0.01,0.05 -0.02,0.05 -0.02,0.03 -0.02,0.02 -0.03,0.05 -0.05,0.06 -0.16,0.1 0.03,0.48 0.09,0.27 0.23,0.62 -1.87,0.71 -0.04,0.01 -0.01,0.02 -0.01,0.01 v 0.01 l -0.01,0.01 v 0.01 l -0.02,0.04 v 0.01 l -0.01,0.01 v 0.01 0.01 0.01 l -0.01,0.01 v 0.01 0.01 l -0.01,0.01 v 0.01 h -0.01 l -0.01,0.01 h -0.01 v 0.01 h -0.01 -0.02 l -0.01,0.01 h -0.01 l -0.02,0.01 h -0.01 -0.02 l -0.01,0.01 h -0.02 l -0.01,0.01 h -0.02 -0.01 l -0.01,0.01 h -0.02 -0.02 l -0.02,0.01 h -0.01 l -0.02,0.01 h -0.02 l -0.02,0.01 h -0.02 -0.01 -0.02 l -0.02,0.01 h -0.02 l -0.02,0.01 -0.02,0.01 h -0.02 l -0.03,0.01 -0.02,0.01 -0.02,0.01 -0.02,0.01 h -0.02 l -0.02,0.01 -0.02,0.01 -0.02,0.01 -0.02,0.01 -0.02,0.01 -0.01,0.01 -0.02,0.01 -0.01,0.01 -0.02,0.01 -0.01,0.02 -0.01,0.01 -0.01,0.01 -0.01,0.01 -0.01,0.01 -0.01,0.01 -0.01,0.02 -0.01,0.01 -0.01,0.01 -0.01,0.02 v 0.01 l -0.01,0.02 -0.01,0.01 -0.01,0.02 -0.01,0.02 -0.01,0.02 v 0.02 l -0.01,0.02 -0.01,0.02 v 0.02 l -0.01,0.03 -0.01,0.02 -0.01,0.03 -0.01,0.02 v 0.03 l -0.01,0.02 v 0.01 l -0.01,0.02 -0.01,0.04 -0.01,0.04 v 0.03 l -0.01,0.02 v 0.02 0.04 l 0.01,0.03 0.01,0.03 0.01,0.05 v 0.01 0.01 l 0.01,0.01 -0.01,0.12 -0.01,0.01 v 0.05 0.05 0.06 0.04 0.03 l -0.01,0.02 -0.07,0.29 -0.06,0.26 -0.06,0.24 -0.07,0.32 -0.14,0.37 -0.02,0.08 -0.14,0.33 -0.04,0.08 -0.05,0.11 -0.13,0.28 -0.11,0.24 -0.11,0.24 -0.23,0.38 -0.1,0.17 -0.11,0.18 -0.13,0.31 -1.01,-0.47 -0.42,-0.33 -0.19,-0.1 -0.35,-0.22 -0.25,-0.07 -0.22,-0.17 -0.48,-0.14 -0.27,-0.1 -0.48,-0.08 -0.2,-0.05 -0.2,-0.05 -0.24,-0.04 -0.26,-0.08 -0.2,-0.05 -0.45,-0.05 -0.35,-0.1 -0.29,-0.1 -0.19,-0.1 -0.25,-0.14 -0.55,-0.41 -0.59,-0.21 -0.2,-0.11 -0.09,-0.05 -0.18,-0.1 -0.44,-0.27 -0.32,-0.06 -0.55,-0.13 -1.75,-0.29 v -0.04 l 0.23,-0.92 0.19,-0.91 0.49,-0.67 -0.37,-0.37 -0.24,-0.23 -0.05,-0.04 -0.25,-0.21 -0.11,-0.09 -0.22,-0.32 -0.39,-0.16 -0.16,-0.16 -0.2,-0.13 -0.01,-0.1 -0.38,-0.07 -0.07,-0.14 -0.06,-0.04 -0.17,-0.37 -0.2,-0.09 -0.11,-0.09 -0.08,-0.04 -0.23,-0.03 h -0.01 l 0.33,-0.15 0.08,-0.23 -0.27,-0.02 0.13,-0.32 0.1,-0.03 0.03,-0.03 0.08,-0.15 -0.14,-0.03 0.12,-0.44 0.03,-0.01 h 0.06 0.05 l 0.06,-0.02 0.05,-0.02 0.05,-0.03 0.08,-0.06 0.09,-0.07 0.02,-0.01 0.11,-0.09 0.04,-0.03 0.05,-0.03 0.05,-0.02 h 0.03 0.03 0.06 0.05 0.06 l 0.05,0.01 0.06,0.02 0.1,0.02 -0.06,-0.33 0.13,-0.25 0.09,0.08 0.06,-0.22 -0.16,-0.22 0.07,-0.15 -0.25,-0.01 -0.06,-0.06 -0.04,-0.04 -0.04,-0.13 -0.01,-0.04 -0.01,-0.02 -0.02,-0.03 -0.04,-0.04 -0.02,-0.02 -0.06,-0.04 -0.09,-0.07 0.09,-0.14 0.33,-0.08 -0.02,-0.23 0.7,0.06 0.75,-0.09 0.1,-0.1 0.25,-0.7 -0.03,-0.47 0.31,0.04 -0.02,0.1 0.15,0.01 0.18,0.1 0.15,0.02 0.07,0.03 0.1,0.04 0.22,-0.04 0.05,-0.16 h 0.25 l 0.07,0.43 v 0.01 0.01 0.01 0.02 l -0.01,0.01 v 0.01 0.01 0.01 0.02 0.01 0.01 0.01 0.01 0.01 0.01 0.01 0.01 0.01 0.01 0.01 l 0.01,0.01 v 0.01 0.02 0.01 0 0.01 0.01 l 0.01,0.01 v 0.01 0.01 0.01 0.01 l 0.01,0.01 v 0.01 0.01 0.01 0.01 0.01 0.01 l 0.01,0.01 v 0.01 0.02 0.01 0 0.01 0.01 0.01 0.01 0.01 l -0.01,0.01 v 0.01 0.01 l 0.01,0.01 v 0 0.01 0.01 0.01 0.01 0.01 0.01 0.01 0.01 l -0.01,0.01 v 0.01 l -0.01,0.01 v 0 0.01 0.01 0.01 l -0.01,0.01 v 0.01 0.01 0.01 l -0.08,0.2 -0.04,0.19 0.11,0.05 -0.02,0.06 -0.03,0.12 0.11,0.15 0.04,0.07 0.04,0.05 v -0.01 l 0.06,-0.06 0.11,-0.2 -0.05,-0.12 -0.04,-0.01 0.2,-0.53 0.02,-0.05 0.1,-0.25 0.12,-0.33 0.05,-0.15 0.03,-0.05 0.03,-0.05 0.51,0.33 0.1,0.01 -0.02,0.22 0.34,0.13 -0.14,0.48 -0.14,-0.06 -0.19,0.53 0.06,0.03 -0.01,0.02 -0.01,0.03 -0.08,0.14 -0.18,0.46 -0.3,-0.12 -0.16,0.43 -0.05,-0.02 -0.16,0.37 -0.12,-0.05 -0.14,0.32 0.54,0.03 -0.22,0.59 -0.44,-0.2 -0.23,0.53 0.06,0.19 0.51,0.21 -0.03,0.06 -0.01,0.06 -0.01,0.01 -0.03,0.06 -0.01,0.02 -0.05,0.09 -0.04,0.07 -0.14,0.19 -0.03,0.04 -0.03,0.06 -0.01,0.12 -0.04,0.21 -0.02,0.06 -0.02,0.02 -0.05,0.08 -0.05,0.08 -0.01,0.02 -0.08,0.2 0.1,0.22 -0.17,0.19 -0.19,0.45 -0.01,0.09 v 0.03 h 0.01 l 0.07,0.02 0.08,0.03 0.09,0.04 0.21,0.07 0.09,0.03 h 0.04 l 0.02,-0.02 0.02,-0.03 0.01,-0.02 -0.01,-0.04 v -0.03 l -0.01,-0.05 0.01,-0.02 0.03,-0.01 0.11,-0.03 0.13,-0.01 h 0.08 l 0.17,0.01 h 0.13 l 0.09,0.09 0.09,0.09 0.02,0.09 0.04,0.09 0.16,0.1 0.08,0.06 0.17,0.19 0.13,0.13 0.12,0.02 0.25,-0.44 0.02,-0.05 0.05,-0.04 0.03,-0.03 0.1,-0.06 0.03,-0.03 0.03,-0.04 v -0.05 l -0.01,-0.05 -0.08,-0.21 -0.02,-0.05 v -0.06 l -0.01,-0.05 -0.01,-0.06 0.01,-0.04 0.03,-0.05 0.03,-0.05 0.02,-0.05 0.05,-0.03 0.04,-0.04 0.13,-0.1 0.03,-0.04 0.02,-0.04 0.01,-0.06 v -0.16 l 0.01,-0.07 0.07,-0.13 0.03,-0.14 0.01,-0.11 0.02,-0.05 0.05,-0.05 0.05,-0.07 0.02,-0.12 -0.5,-0.29 -0.31,-0.2 -0.7,-0.37 -0.24,-0.12 0.36,-0.04 0.23,0.07 0.05,-0.06 -0.28,-0.18 0.04,-0.17 0.06,-0.03 0.06,-0.03 0.06,-0.03 0.07,-0.03 0.03,-0.01 0.11,-0.04 0.07,-0.01 0.09,-0.03 0.05,-0.01 0.07,-0.01 0.03,-0.01 0.13,-0.02 h 0.06 l 0.07,-0.01 h 0.04 0.11 0.11 0.11 0.08 l 0.06,-0.01 0.06,-0.01 h 0.05 l 0.16,0.33 0.06,0.02 0.23,-0.3 0.11,0.07 0.08,-0.11 0.04,-0.01 0.09,0.11 0.03,-0.04 0.05,-0.02 0.04,-0.02 0.03,-0.02 0.04,-0.02 0.03,-0.03 v -0.04 -0.03 l 0.01,-0.04 0.02,-0.03 0.02,-0.02 0.03,-0.05 v -0.06 -0.02 l 0.02,-0.03 0.02,-0.03 0.03,-0.03 0.03,-0.03 0.04,-0.04 0.03,-0.05 0.08,-0.13 0.02,-0.03 0.18,-0.14 0.13,-0.13 0.11,-0.09 0.11,-0.1 0.13,-0.11 0.03,-0.02 0.17,-0.16 0.03,-0.02 0.06,-0.01 0.1,0.03 0.12,0.04 0.21,0.11 0.07,0.06 0.01,0.05 0.02,0.05 v 0.06 0.05 0.27 0.05 0.06 l 0.04,0.01 0.04,0.01 0.03,0.01 0.02,0.02 0.02,0.03 0.04,0.01 0.06,-0.02 0.04,-0.05 0.03,-0.06 0.06,-0.17 -0.01,-0.03 -0.05,-0.03 -0.02,-0.02 -0.01,-0.04 0.02,-0.05 0.03,-0.06 0.03,-0.04 0.03,-0.02 0.06,-0.03 0.09,-0.05 0.05,-0.03 0.04,-0.03 0.07,-0.06 0.05,-0.01 0.46,0.05 0.05,0.03 0.06,0.08 -0.16,0.17 0.04,0.1 0.06,0.03 0.05,0.03 0.03,0.04 0.03,0.05 0.06,0.07 0.18,-0.26 0.19,-0.16 -0.05,-0.1 0.13,-0.09 0.21,-0.13 0.1,-0.07 0.03,-0.02 0.11,-0.03 0.1,0.16 0.11,-0.01 0.08,0.01 -0.03,-0.1 -0.05,-0.04 -0.02,-0.04 0.01,-0.1 -0.03,-0.08 -0.01,-0.02 -0.01,-0.03 0.01,-0.03 0.03,-0.13 0.02,-0.06 -0.17,-0.09 -0.1,-0.1 -0.03,-0.03 -0.05,-0.04 -0.05,-0.03 -0.28,-0.1 -0.14,-0.05 -0.19,0.52 -0.07,0.15 -0.02,0.02 h -0.01 l -0.09,-0.04 -0.12,-0.05 0.23,-0.71 0.48,-0.31 h 0.02 l 0.03,-0.03 0.04,-0.04 0.02,-0.04 0.02,-0.06 0.04,-0.15 0.4,-0.05 0.1,-0.11 0.05,0.01 0.02,0.05 0.03,0.07 0.04,0.24 0.17,-0.02 0.08,-0.58 -0.45,-0.12 -0.41,-0.01 -0.4,-0.42 0.11,-0.58 0.63,-0.43 v -0.06 l 0.02,-0.05 0.03,-0.05 0.02,-0.06 0.01,-0.06 0.01,-0.06 0.01,-0.06 -0.01,-0.05 0.01,-0.07 0.02,-0.06 0.01,-0.06 0.02,-0.05 -0.03,-0.11 -0.04,-0.03 -0.05,-0.03 -0.05,-0.02 -0.04,-0.06 v -0.06 l -0.01,-0.06 v -0.06 l 0.07,-0.52 0.23,-0.51 0.05,-0.16 0.01,-0.06 -0.03,-0.19 -0.21,-0.2 -0.06,-0.16 -0.06,-0.19 -0.04,-0.09 -0.07,-0.09 -0.04,-0.09 -0.05,-0.06 -0.05,-0.11 -0.01,-0.02 -0.01,-0.23 0.01,-0.12 v -0.47 l 0.11,-0.23 0.02,-0.04 v -0.04 -0.09 l -0.03,-0.06 0.02,-0.09 v -0.02 l -0.01,-0.05 -0.02,-0.05 0.37,-0.12 -0.01,-0.02 -0.05,-0.06 -0.02,-0.03 -0.03,-0.04 -0.03,-0.04 -0.03,-0.03 -0.03,-0.04 -0.03,-0.03 -0.06,-0.05 -0.03,-0.03 -0.03,-0.04 -0.04,-0.03 1.1,-0.36 0.11,-0.05 -0.02,-0.03 -0.03,-0.05 -0.03,-0.05 -0.01,-0.04 -0.01,-0.04 -0.01,-0.05 v -0.04 -0.07 l -0.01,-0.07 -0.01,-0.02 -0.02,-0.05 -0.02,-0.03 -0.03,-0.02 -0.02,-0.02 -0.03,-0.01 -0.01,-0.01 -0.02,-0.01 v -0.02 -0.03 l 0.01,-0.03 0.02,-0.01 0.03,-0.03 0.04,-0.03 0.04,-0.03 0.05,-0.02 0.05,-0.03 0.04,-0.04 0.04,-0.05 0.05,-0.01 0.03,-0.01 0.11,-0.01 h 0.07 l 0.13,-0.01 0.16,-0.07 0.75,-0.07 0.76,0.61 0.47,0.78 0.14,-0.14 0.58,0.35 z"
       id="path134"
       inkscape:connector-curvature="0" />
  </g>
</svg>
