<?xml version="1.0" encoding="UTF-8" standalone="no"?>
<svg
   xmlns:dc="http://purl.org/dc/elements/1.1/"
   xmlns:cc="http://creativecommons.org/ns#"
   xmlns:rdf="http://www.w3.org/1999/02/22-rdf-syntax-ns#"
   xmlns:svg="http://www.w3.org/2000/svg"
   xmlns="http://www.w3.org/2000/svg"
   xmlns:sodipodi="http://sodipodi.sourceforge.net/DTD/sodipodi-0.dtd"
   xmlns:inkscape="http://www.inkscape.org/namespaces/inkscape"
   version="1.2"
   width="800"
   height="642"
   viewBox="0 0 800 642"
   stroke-linecap="round"
   stroke-linejoin="round"
   id="svg148"
   sodipodi:docname="Zanbrana.svg"
   inkscape:version="0.92.5 (2060ec1f9f, 2020-04-08)">
  <metadata
     id="metadata154">
    <rdf:RDF>
      <cc:Work
         rdf:about="">
        <dc:format>image/svg+xml</dc:format>
        <dc:type
           rdf:resource="http://purl.org/dc/dcmitype/StillImage" />
      </cc:Work>
    </rdf:RDF>
  </metadata>
  <defs
     id="defs152" />
  <sodipodi:namedview
     pagecolor="#ffffff"
     bordercolor="#666666"
     borderopacity="1"
     objecttolerance="10"
     gridtolerance="10"
     guidetolerance="10"
     inkscape:pageopacity="0"
     inkscape:pageshadow="2"
     inkscape:window-width="1848"
     inkscape:window-height="1016"
     id="namedview150"
     showgrid="false"
     inkscape:zoom="1.470405"
     inkscape:cx="400"
     inkscape:cy="208.97122"
     inkscape:window-x="72"
     inkscape:window-y="27"
     inkscape:window-maximized="1"
     inkscape:current-layer="svg148" />
  <g
     id="Zanbrana"
     transform="matrix(11.459466,0,0,11.459466,-1654.583,-3636.5269)">
    <path
       d="m 196.31,349.8 0.75,0.06 0.78,-0.02 0.65,-0.05 0.5,0.02 0.63,0.12 0.74,0.06 h 0.65 l 0.68,0.02 0.45,0.12 0.48,0.21 0.4,0.06 0.39,0.01 0.4,0.11 0.87,0.35 -0.25,0.79 -2.12,2.2 h -0.57 l -1.02,1.26 -0.02,0.58 -0.05,0.4 h -0.59 l -0.46,-0.16 -0.37,-0.15 -0.35,0.22 -0.21,0.33 -0.09,0.31 0.07,0.11 0.67,0.26 0.31,0.19 -0.08,0.77 -0.03,0.64 -0.12,0.52 -0.19,0.89 -0.38,0.69 -0.92,-0.76 -1.77,0.21 -0.38,-0.28 -0.35,-0.13 -0.43,0.08 -0.41,0.24 -0.47,0.15 -1.83,-0.05 -0.8,1.07 -1.4,-0.07 -0.8,-0.04 -0.23,0.36 -0.26,0.53 -0.22,0.42 -0.06,0.37 -0.49,0.16 -0.61,0.13 -0.66,0.07 -0.61,0.05 -0.42,-0.1 -0.11,-0.25 0.02,-0.59 0.08,-0.55 0.12,-0.48 0.11,-0.32 -0.04,-0.62 -0.53,-0.34 -0.45,-0.2 -0.67,0.03 -0.51,0.13 -0.74,0.21 -0.58,-0.09 -0.5,-0.23 -0.66,-0.66 -0.5,-0.48 -0.5,-0.45 -0.33,-0.15 -0.45,-0.02 -0.45,0.08 -0.57,0.19 -0.86,0.41 -0.77,0.39 -0.77,0.25 -0.78,0.11 -0.79,0.1 -0.5,0.11 -0.66,0.05 -0.77,-0.03 -0.65,-0.01 -0.43,0.08 -0.91,0.27 -0.24,0.08 -0.2,0.07 -0.12,0.07 -0.15,0.1 -0.06,0.05 -0.07,0.14 -0.03,-0.01 -0.67,-0.07 -0.67,-0.04 -0.78,0.09 -0.5,-0.04 -0.61,-0.05 -0.36,-0.33 -0.32,-0.4 -0.26,-0.42 -0.22,-0.36 -0.4,-0.31 -0.97,-0.45 -0.82,-0.42 -0.8,-0.43 -0.62,-0.41 -0.37,-0.32 -0.33,-0.41 -0.34,-0.5 -0.32,-0.35 -0.6,-0.44 -0.42,-0.27 -0.22,-0.33 -0.06,-0.37 -0.05,-0.67 -0.04,-0.73 -0.16,-0.64 -0.27,-0.9 -0.29,-0.99 -0.03,-0.54 v -0.22 l 0.24,-0.15 0.41,-0.18 0.33,-0.28 -0.13,-0.33 -0.34,-0.35 -0.36,-0.33 -0.13,-0.35 0.15,-0.35 0.26,-0.41 0.33,-0.45 0.12,-0.34 0.33,0.12 0.3,0.24 0.24,0.26 0.31,0.27 0.32,0.13 0.36,0.1 0.28,0.11 0.55,0.16 0.58,0.15 0.42,0.13 0.64,0.14 0.42,0.09 h 0.23 l 0.44,0.08 0.19,0.03 0.32,-0.02 0.33,0.03 0.28,0.14 0.38,0.26 0.29,0.2 0.38,0.04 0.44,-0.01 0.39,-0.05 0.4,-0.09 0.4,-0.02 0.41,0.02 0.4,0.01 h 0.4 l 0.35,-0.04 0.34,-0.21 0.27,-0.2 0.39,-0.22 0.28,-0.1 0.31,-0.17 0.24,-0.17 0.15,-0.31 0.15,-0.53 0.08,-0.29 0.01,-0.35 -0.01,-0.32 -0.03,-0.21 0.03,-0.06 0.08,-0.04 0.44,-0.15 0.21,-0.09 0.38,-0.24 0.5,-0.31 0.47,-0.33 0.38,-0.28 0.41,-0.35 0.16,-0.15 0.2,-0.27 0.17,-0.25 0.15,-0.19 0.15,-0.18 0.15,-0.1 0.19,-0.05 h 0.17 l 0.08,0.07 0.04,0.08 0.14,0.03 0.2,0.08 0.2,0.1 0.16,0.13 0.19,0.2 0.38,0.37 0.38,0.4 0.36,0.33 0.3,0.33 0.12,0.13 0.09,0.08 0.22,0.1 0.75,0.17 0.56,0.09 0.57,0.04 0.39,-0.02 0.18,-0.07 0.12,-0.01 0.1,0.05 0.11,0.12 0.21,0.29 0.07,0.29 v 0.2 l 0.01,0.12 0.08,0.07 0.23,0.03 0.24,0.08 0.27,0.15 0.22,0.07 h 0.18 l 0.13,0.01 0.11,0.05 0.13,-0.03 0.14,-0.06 0.26,-0.08 0.3,-0.04 0.2,-0.02 0.08,0.14 0.14,0.25 0.18,0.52 0.17,0.53 0.12,0.32 0.22,0.06 0.49,0.13 0.24,0.11 0.35,0.18 0.48,0.25 0.21,0.1 0.27,0.17 0.3,0.19 0.25,0.18 0.18,0.14 0.11,0.13 0.14,0.16 0.1,0.2 0.18,0.27 0.27,0.25 0.25,0.22 0.15,0.31 0.09,0.23 0.25,0.27 0.28,-0.06 0.4,-0.06 0.09,-0.31 0.07,-0.26 0.04,-0.05 0.13,-0.04 0.26,-0.08 0.26,-0.12 0.42,-0.13 0.81,-0.26 0.36,-0.09 0.33,-0.05 0.44,-0.04 0.36,-0.03 0.95,-0.02 0.55,-0.02 0.3,0.02 z m -28.91,9.29 0.09,-0.22 0.14,-0.29 0.14,-0.27 0.12,-0.15 0.16,-0.14 0.21,-0.16 0.18,-0.15 0.1,-0.06 0.12,-0.04 0.19,-0.07 0.19,-0.15 0.22,-0.14 0.19,-0.12 0.23,-0.1 0.26,-0.19 0.23,-0.15 0.21,-0.24 0.24,-0.15 0.29,-0.17 0.19,-0.11 0.43,-0.28 0.45,-0.15 0.37,-0.16 0.26,-0.31 0.17,-0.46 0.19,-0.51 0.17,-0.64 0.1,-0.4 0.02,-0.6 -0.01,-0.47 0.05,-0.48 v -0.48 l -0.01,-0.34 -0.08,-0.27 -0.17,-0.08 -0.52,-0.05 -0.57,-0.07 -0.46,-0.02 -0.38,-0.07 -0.32,0.08 -0.31,0.02 -0.18,0.03 -0.27,0.1 -0.19,0.16 -0.18,0.14 -0.23,0.11 -0.24,0.13 -0.17,0.13 -0.23,0.14 -0.2,0.09 -0.22,0.15 -0.14,0.21 -0.2,0.27 -0.24,0.33 -0.24,0.29 -0.19,0.29 -0.19,0.26 -0.13,0.26 -0.13,0.29 -0.07,0.24 -0.1,0.31 -0.08,0.28 -0.05,0.28 -0.04,0.29 v 0.23 l 0.02,0.16 0.07,0.18 0.06,0.16 0.03,0.19 -0.03,0.16 h 0.18 l 0.18,0.01 0.1,-0.02 0.1,-0.02 -0.23,0.34 -0.2,0.33 -0.37,0.54 0.25,0.55 0.13,0.27 0.2,0.46 0.24,0.46 z"
       id="path145"
       inkscape:connector-curvature="0"
       style="fill-rule:evenodd" />
  </g>
</svg>
