<?xml version="1.0" encoding="UTF-8" standalone="no"?>
<svg
   version="1.2"
   width="800"
   height="642"
   viewBox="0 0 800 642"
   stroke-linecap="round"
   stroke-linejoin="round"
   id="svg5"
   sodipodi:docname="Zarautz.svg"
   inkscape:version="1.1.2 (b8e25be833, 2022-02-05)"
   xmlns:inkscape="http://www.inkscape.org/namespaces/inkscape"
   xmlns:sodipodi="http://sodipodi.sourceforge.net/DTD/sodipodi-0.dtd"
   xmlns="http://www.w3.org/2000/svg"
   xmlns:svg="http://www.w3.org/2000/svg">
  <defs
     id="defs9" />
  <sodipodi:namedview
     id="namedview7"
     pagecolor="#ffffff"
     bordercolor="#666666"
     borderopacity="1.0"
     inkscape:pageshadow="2"
     inkscape:pageopacity="0.0"
     inkscape:pagecheckerboard="0"
     showgrid="false"
     inkscape:zoom="1.3146417"
     inkscape:cx="399.72867"
     inkscape:cy="244.55332"
     inkscape:window-width="1848"
     inkscape:window-height="1016"
     inkscape:window-x="72"
     inkscape:window-y="1107"
     inkscape:window-maximized="1"
     inkscape:current-layer="svg5" />
  <g
     id="Zarautz"
     transform="matrix(29.021778,0,0,29.021778,-10189.599,-2974.6264)">
    <path
       d="m 373.59,104 0.34,0.66 0.09,0.18 -0.66,0.53 -0.04,1.6 0.18,0.58 0.05,0.79 -0.29,0.31 -0.08,0.15 0.93,0.52 -2.1,6.95 -0.72,-0.3 -0.26,0.06 -2.29,0.35 v 0.01 l 0.01,0.02 v 0.03 0.04 l -0.01,0.02 -0.01,0.03 -0.02,0.04 -0.01,0.04 -0.01,0.04 -0.01,0.01 -0.01,0.03 v 0.08 0.03 0.03 0 l 0.01,0.01 v 0.01 h 0.01 l 0.01,0.01 0.01,0.01 0.01,0.01 h 0.02 l 0.01,0.01 0.01,0.01 v 0.01 l 0.01,0.01 0.01,0.01 v 0.01 0 0.01 0.01 l -0.02,0.03 -0.01,0.01 -0.01,0.02 -0.02,0.01 -0.04,0.02 -0.02,0.01 -0.03,0.01 -0.02,0.01 h -0.02 l -0.04,0.02 -0.01,0.01 h -0.01 l -0.01,0.01 -0.01,0.01 v 0.01 l -0.01,0.01 h -0.01 l -0.02,0.04 -0.02,0.04 -0.01,0.01 -0.01,0.02 -0.01,0.01 -0.01,0.01 -0.03,0.03 -0.05,0.04 -0.04,0.03 -0.03,0.03 -0.08,0.03 -0.01,0.01 -0.02,0.01 h -0.01 l -0.02,0.01 h -0.01 -0.01 -0.02 -0.01 l -0.09,-0.01 h -0.02 -0.02 l -0.02,0.01 h -0.01 l -0.02,0.01 -0.02,0.01 -0.01,0.01 -0.01,0.01 v 0 l -0.01,0.01 -0.03,0.05 -0.01,0.01 v 0.01 l -0.01,0.01 -0.06,0.04 -0.03,0.03 -0.01,0.01 v 0.01 l -0.01,0.01 -0.01,0.01 -0.01,0.09 -0.01,0.02 -0.01,0.01 -0.02,0.03 -0.03,0.02 -0.02,0.02 -0.02,0.01 -0.05,0.03 h -0.02 l -0.08,0.03 h -0.01 -0.02 -0.03 -0.02 -0.02 -0.03 -0.01 l -0.03,0.02 -0.04,0.02 -0.03,0.01 -0.03,0.01 -0.04,0.02 -0.1,0.11 -0.02,0.01 -0.01,0.01 -0.01,0.02 -0.02,0.01 -0.01,0.01 -0.01,0.01 h -0.01 l -0.02,0.01 -0.02,0.01 h -0.01 -0.01 l -0.03,0.01 h -0.01 l -0.02,0.01 -0.01,0.01 v 0 l -0.01,0.01 -0.01,0.02 -0.01,0.01 -0.01,0.01 -0.02,0.01 -0.01,0.02 -0.02,0.01 -0.01,0.02 -0.01,0.02 -0.01,0.01 -0.01,0.01 -0.01,0.01 -0.01,0.01 -0.02,0.04 -0.03,0.04 -0.03,0.04 -0.03,0.03 h -0.01 l -0.01,0.02 -0.01,0.01 -0.03,0.04 -0.02,0.02 -0.32,0.33 -1.62,2.37 -0.4,0.78 -0.5,1.03 -0.09,0.14 -0.94,0.16 -0.83,0.22 -1.33,-0.19 -0.03,-0.29 0.4,-0.15 0.02,-0.02 0.05,-0.02 0.01,-0.01 0.06,-0.05 0.03,-0.01 0.01,-0.01 h 0.02 0.01 0.01 l 0.02,-0.01 h 0.01 l 0.01,-0.01 h 0.02 l 0.03,-0.02 0.03,-0.02 0.02,-0.01 0.02,-0.01 0.02,-0.01 0.03,-0.02 0.09,-0.03 0.02,-0.01 0.02,-0.01 h 0.02 l 0.01,-0.01 h 0.01 v -0.01 l 0.06,-0.02 0.06,-0.02 0.02,-0.01 h 0.02 0.05 l 0.03,-0.01 h 0.02 l 0.04,-0.02 0.01,-0.01 v 0 h 0.01 0.01 l 0.01,-0.01 v 0 l 0.02,-0.01 0.01,-0.01 0.03,-0.02 0.02,-0.03 0.02,-0.02 0.04,-0.03 0.04,-0.02 0.01,-0.02 0.05,-0.03 0.02,-0.02 0.06,-0.04 0.02,-0.02 0.02,-0.01 0.02,-0.02 0.02,-0.02 0.02,-0.02 0.04,-0.03 0.02,-0.02 0.02,-0.02 0.07,-0.06 0.02,-0.01 0.02,-0.02 0.02,-0.01 0.01,-0.01 0.01,-0.01 h 0.03 l 0.01,-0.01 h 0.05 l 0.03,-0.01 0.04,-0.02 0.03,-0.02 h 0.02 l 0.05,-0.04 -1.04,-1.19 0.01,-0.03 0.01,-0.01 0.01,-0.04 0.01,-0.07 0.02,-0.03 0.03,-0.09 0.01,-0.02 0.01,-0.04 0.05,-0.07 0.03,-0.05 0.02,-0.1 v -0.02 l 0.04,-0.07 0.01,-0.02 0.01,-0.01 v -0.01 l 0.01,-0.01 v -0.01 l 0.01,-0.02 v -0.03 l 0.01,-0.02 0.02,-0.08 0.01,-0.03 v -0.03 l 0.01,-0.03 0.02,-0.1 v -0.07 -0.03 l 0.04,-0.14 0.01,-0.01 H 362 l 0.02,-0.02 0.03,-0.02 0.06,-0.04 v 0 l 0.01,-0.01 v 0 l 0.01,-0.01 0.01,-0.01 0.03,-0.05 0.03,-0.04 0.01,-0.03 0.01,-0.02 0.01,-0.03 0.01,-0.04 0.03,-0.03 0.01,-0.01 0.05,-0.04 0.01,-0.02 0.01,-0.03 0.01,-0.04 v -0.01 l 0.01,-0.02 0.01,-0.01 0.01,-0.02 0.01,-0.01 0.01,-0.02 0.01,-0.01 0.01,-0.02 0.01,-0.01 0.01,-0.01 0.05,-0.03 0.02,-0.02 0.02,-0.01 0.04,-0.03 0.01,-0.01 v -0.01 -0.01 -0.01 l 0.01,-0.01 v -0.04 -0.03 -0.04 -0.04 -0.01 -0.01 -0.01 -0.01 l 0.01,-0.01 v -0.01 l 0.01,-0.01 0.01,-0.01 0.01,-0.01 0.03,-0.02 0.02,-0.02 0.01,-0.02 v -0.01 -0.02 0 -0.01 -0.01 -0.01 l -0.01,-0.01 -0.03,-0.05 -0.02,-0.02 -0.01,-0.02 -0.01,-0.02 -0.01,-0.01 -0.01,-0.01 -0.01,-0.01 v -0.01 -0.01 -0.01 l 0.01,-0.02 v -0.02 l 0.03,-0.06 0.01,-0.02 0.04,-0.04 0.02,-0.03 0.01,-0.01 v -0.02 -0.01 l 0.01,-0.01 v -0.02 -0.02 -0.01 -0.01 l 0.01,-0.02 0.01,-0.01 v -0.01 l 0.01,-0.02 0.01,-0.02 v 0 l 0.01,-0.01 v -0.01 h 0.01 l 0.02,-0.02 0.03,-0.04 0.01,-0.04 0.01,-0.02 v -0.01 l 0.01,-0.02 0.02,-0.08 0.01,-0.04 0.01,-0.05 v -0.04 l 0.01,-0.01 v -0.01 l 0.01,-0.01 v -0.01 l 0.01,-0.01 0.01,-0.01 v 0 l 0.03,-0.02 0.02,-0.02 0.02,-0.02 0.02,-0.01 0.01,-0.02 0.03,-0.04 v -0.02 l 0.01,-0.02 0.01,-0.01 0.01,-0.02 0.01,-0.02 0.01,-0.02 0.01,-0.02 0.01,-0.01 0.04,-0.04 0.02,-0.02 0.02,-0.02 v -0.01 l 0.02,-0.02 0.04,-0.04 0.03,-0.06 0.03,-0.06 0.02,-0.04 0.03,-0.08 0.02,-0.06 0.01,-0.03 0.02,-0.03 0.03,-0.06 0.01,-0.04 v -0.03 l 0.01,-0.03 v -0.06 l -0.02,-0.08 -0.02,-0.07 -0.03,-0.05 -0.09,-0.15 -0.08,-0.07 -0.04,-0.05 -0.04,-0.05 -0.04,-0.07 -0.02,-0.05 -0.01,-0.05 -0.02,-0.06 -0.01,-0.05 -0.03,-0.05 -0.01,-0.06 -0.01,-0.09 -0.01,-0.04 -0.01,-0.04 -0.01,-0.04 -0.02,-0.03 v -0.03 l -0.02,-0.03 -0.01,-0.05 -0.01,-0.04 -0.02,-0.04 -0.01,-0.07 -0.01,-0.05 -0.01,-0.04 -0.01,-0.05 v -0.04 -0.03 l 0.01,-0.04 0.01,-0.03 0.01,-0.03 0.02,-0.04 0.02,-0.04 v -0.03 l -0.01,-0.03 -0.01,-0.02 -0.01,-0.02 -0.01,-0.03 -0.02,-0.03 -0.03,-0.04 -0.01,-0.04 -0.01,-0.01 v -0.02 -0.02 -0.04 -0.04 -0.03 -0.04 l 0.01,-0.05 v -0.04 l 0.01,-0.03 0.01,-0.03 -0.01,-0.06 0.01,-0.06 -0.01,-0.05 v -0.02 l 0.01,-0.03 0.03,-0.04 0.01,-0.02 0.02,-0.02 v -0.03 l 0.01,-0.04 -0.01,-0.04 -0.01,-0.04 -0.02,-0.04 -0.01,-0.02 -0.02,-0.03 -0.03,-0.04 -0.03,-0.04 -0.02,-0.03 -0.03,-0.05 -0.04,-0.06 -0.03,-0.02 -0.01,-0.06 -0.02,-0.04 -0.02,-0.06 -0.01,-0.03 v -0.04 l 0.01,-0.03 0.01,-0.02 0.02,-0.05 0.02,-0.03 0.01,-0.04 v -0.05 -0.03 -0.03 l -0.02,-0.05 -0.02,-0.06 -0.02,-0.05 -0.03,-0.06 -0.02,-0.02 -0.03,-0.03 -0.03,-0.03 -0.02,-0.03 -0.03,-0.05 -0.01,-0.03 -0.01,-0.01 -0.04,-0.08 -0.02,-0.01 -0.01,-0.01 -0.02,0.01 h -0.02 l -0.04,0.01 -0.03,-0.01 h -0.03 l -0.04,-0.01 h -0.03 l -0.03,-0.02 h -0.01 l -0.02,-0.01 -0.02,0.02 -0.01,0.01 -0.02,0.01 -0.03,0.02 -0.03,0.01 -0.03,0.01 -0.05,0.01 -0.04,0.01 h -0.03 -0.02 l -0.05,-0.02 h -0.02 l -0.02,-0.01 -0.01,-0.01 -0.02,-0.01 -0.04,-0.01 h -0.05 -0.04 l -0.04,0.01 -0.04,0.01 -0.05,0.03 -0.03,0.02 -0.01,0.02 -0.01,0.03 -0.01,0.03 0.01,0.08 v 0.01 0.04 l 0.01,0.03 v 0.01 0.03 0.04 0.04 l -0.02,0.06 -0.02,0.03 -0.02,0.04 -0.03,0.04 -0.03,0.02 -0.03,0.03 -0.03,0.02 -0.02,0.01 -0.02,0.01 -0.03,0.01 0.02,-0.3 -0.02,0.02 h -0.04 l -0.13,0.01 h -0.11 -0.13 -0.02 -0.03 l -0.02,-0.01 -0.02,-0.01 -0.03,-0.02 -0.05,-0.03 -0.06,-0.03 -0.05,-0.02 h -0.03 l -0.05,-0.01 h -0.07 l -0.05,-0.01 -0.04,-0.01 h -0.06 l -0.05,-0.01 -0.04,-0.01 -0.05,-0.01 -0.05,-0.01 -0.09,-0.01 0.13,-1.01 -0.93,-0.51 -0.28,-1.09 0.03,-0.06 0.02,-0.03 0.01,-0.01 0.01,-0.02 0.02,-0.05 v -0.02 l 0.01,-0.06 0.01,-0.07 0.02,-0.04 0.01,-0.04 0.01,-0.03 0.02,-0.03 0.01,-0.02 0.03,-0.04 0.02,-0.04 0.01,-0.03 0.01,-0.03 0.01,-0.05 0.01,-0.03 v -0.01 l 0.01,-0.01 0.01,-0.01 v -0.01 l 0.01,-0.01 0.01,-0.02 0.01,-0.02 v -0.02 l -0.01,-0.01 0.01,-0.01 v -0.01 l 0.01,-0.02 0.06,-0.25 v 0 h -0.01 -0.04 -0.01 l -0.01,0.01 -0.01,0.01 -0.01,0.01 -0.02,0.02 h -0.01 -0.02 l -0.05,0.02 -0.05,0.02 h -0.01 -0.01 -0.01 -0.01 l -0.03,-0.01 h -0.04 -0.04 l -0.05,-0.01 h -0.03 -0.01 -0.01 -0.03 l -0.03,-0.01 h -0.03 -0.01 -0.03 -0.01 l -0.06,-0.02 h -0.02 -0.01 -0.03 l 0.98,-1.29 0.62,-0.41 0.21,-0.3 -0.04,-0.91 -0.08,-0.17 0.03,-1.07 0.05,-0.21 h 0.02 l 0.05,0.01 0.03,-0.01 0.03,-0.01 0.02,-0.01 0.02,-0.01 0.02,-0.03 0.02,-0.02 0.02,-0.02 0.03,-0.02 0.02,-0.03 0.01,-0.02 0.03,-0.04 0.01,-0.03 0.04,-0.02 0.02,-0.01 0.01,-0.02 0.02,-0.01 0.02,-0.01 h 0.02 0.01 l 0.02,-0.01 h 0.02 v -0.01 l 0.02,-0.01 0.01,0.01 h 0.01 v 0.01 0.01 0.01 0.01 h -0.01 v 0.01 0.02 0.01 0.01 0.01 l -0.01,0.01 -0.01,0.01 v 0.01 l -0.01,0.02 v 0.01 l -0.01,0.01 v 0.01 l -0.01,0.01 0.01,0.01 v 0.02 0.01 l 0.01,0.02 0.01,0.01 v 0 l 0.01,0.01 h 0.02 0.01 0.05 0.01 l 0.01,-0.01 h 0.02 0.02 l 0.01,-0.01 0.02,-0.01 h 0.01 0.02 l 0.04,-0.02 0.02,-0.01 h 0.02 l 0.03,-0.02 h 0.01 l 0.01,-0.01 h 0.02 l 0.02,-0.03 0.01,-0.01 h 0.02 l 0.01,-0.02 0.02,-0.01 0.01,-0.01 0.02,-0.02 h 0.01 l 0.01,-0.01 0.02,-0.02 0.02,-0.01 h 0.01 l 0.01,-0.01 h 0.01 l 0.02,-0.03 0.01,-0.01 0.02,-0.01 0.01,-0.01 0.03,-0.02 0.01,-0.02 0.02,-0.02 0.03,-0.02 0.02,-0.03 0.02,-0.01 0.01,-0.01 0.03,-0.04 0.01,-0.02 0.01,-0.03 0.02,-0.03 0.02,-0.03 0.01,-0.01 0.02,-0.02 0.01,-0.02 0.03,-0.03 0.02,-0.02 0.02,-0.02 0.03,-0.02 0.02,-0.01 h 0.01 l 0.01,-0.02 0.01,-0.02 v -0.01 l 0.01,-0.01 v -0.01 l 0.01,-0.01 v -0.01 l 0.01,-0.01 h 0.01 l 0.01,0.01 0.01,0.01 v 0.01 0.02 0.01 l -0.01,0.03 0.01,0.02 0.01,0.02 0.01,0.02 0.01,0.01 0.01,0.01 0.01,0.01 0.02,0.02 0.01,0.01 0.01,0.01 0.02,0.01 0.01,0.01 0.02,0.02 0.02,0.02 0.02,0.02 0.02,0.01 0.02,0.02 0.02,0.02 0.02,0.01 0.01,0.02 v 0.01 l 0.03,0.02 0.02,0.02 0.01,0.01 v 0.02 l 0.01,0.02 0.01,0.02 0.01,0.01 h 0.02 l 0.02,0.01 h 0.02 l 0.01,0.01 0.05,0.04 0.02,0.01 0.02,0.01 0.01,0.01 0.02,0.01 0.01,0.02 0.02,0.02 0.03,0.02 h 0.02 l 0.04,0.02 0.02,0.01 0.02,0.02 h 0.01 v 0.01 l 0.01,0.01 v 0.01 l 0.01,0.01 0.01,0.02 v 0.02 l 0.02,0.02 v 0 l 0.01,0.01 v 0.01 l 0.01,0.01 v 0.02 l 0.01,0.02 v 0.01 0.02 0.03 0.01 0.02 l -0.01,0.02 0.01,0.02 0.01,0.03 0.01,0.01 h 0.01 0.01 l 0.02,-0.01 h 0.01 0.02 0.01 l 0.01,-0.01 h 0.01 l 0.01,-0.01 h 0.01 0.02 l 0.01,-0.01 h 0.01 0.01 0.01 0.01 0.02 l 0.02,0.01 h 0.01 v 0.01 h 0.02 0.02 l 0.01,0.01 0.02,0.01 0.01,0.01 H 363 v 0.01 l 0.02,0.02 0.01,0.01 0.01,0.01 0.01,0.02 v 0.01 0.01 l 0.01,0.02 0.01,0.01 0.05,0.09 0.04,0.02 0.03,0.03 0.02,0.02 0.01,0.02 0.02,0.03 0.01,0.03 0.01,0.02 v 0.04 l 0.01,0.02 -0.01,0.03 0.01,0.05 v 0.04 0.03 l 0.01,0.02 0.01,0.01 0.02,0.02 0.01,0.01 0.01,0.01 0.01,0.02 v 0.02 l 0.01,0.01 0.01,0.02 h -0.01 -0.01 v 0 l -0.01,-0.02 -0.01,-0.02 -0.01,-0.01 h -0.01 v -0.01 h -0.01 l -0.01,-0.01 v -0.01 l -0.03,-0.01 h -0.01 -0.01 v 0.01 0 l -0.01,0.02 v 0.01 0.02 l 0.01,0.01 0.04,0.45 h 0.01 v -0.04 -0.01 l 0.04,-0.05 v -0.01 -0.01 -0.01 l -0.04,-0.2 v -0.04 l 0.01,-0.02 0.01,-0.03 v 0 l -0.01,0.1 0.05,0.19 v 0.02 l -0.01,0.01 -0.01,0.01 -0.02,0.03 -0.01,0.01 v 0.01 l 0.01,0.13 v 0.07 0.01 0.01 l 0.02,0.16 v 0.03 l 0.02,0.04 v 0.01 l 0.05,0.01 0.04,0.01 h 0.2 l 0.19,-0.01 h 0.12 0.25 l 0.44,0.02 h 0.21 l 0.19,-0.02 0.19,-0.01 0.13,-0.01 0.15,-0.02 0.12,-0.01 h 0.08 l 0.3,-0.04 0.2,-0.02 0.36,-0.08 0.2,-0.04 0.44,-0.11 0.3,-0.1 0.11,-0.03 0.23,-0.09 0.36,-0.11 0.04,-0.01 0.13,-0.03 0.16,-0.05 0.1,-0.02 0.14,-0.05 0.27,-0.08 0.1,-0.03 0.22,-0.05 0.17,-0.06 0.1,-0.02 0.12,-0.05 0.15,-0.06 0.08,-0.03 0.12,-0.04 0.1,-0.03 0.13,-0.04 0.04,-0.01 0.03,0.02 0.01,0.01 0.04,0.04 0.03,0.01 0.06,0.03 0.05,0.07 0.02,-0.01 0.01,-0.01 -0.03,-0.05 -0.04,-0.04 -0.08,-0.04 -0.02,-0.03 -0.04,-0.07 v -0.01 -0.01 -0.01 l 0.06,-0.07 0.01,-0.02 v -0.04 -0.01 l 0.03,-0.08 0.01,-0.08 v -0.06 -0.05 l -0.01,-0.08 v -0.02 l 0.01,-0.01 0.01,-0.01 0.06,-0.02 0.02,-0.01 v -0.01 -0.01 l -0.02,-0.02 -0.01,-0.01 v -0.01 l 0.01,-0.01 0.02,-0.01 h 0.01 0.02 l 0.05,0.04 h 0.01 l 0.01,-0.01 0.02,-0.01 v -0.02 -0.03 -0.02 l 0.01,-0.01 0.03,-0.03 0.03,-0.02 0.04,-0.02 0.02,-0.02 0.02,-0.01 h 0.03 l 0.01,-0.01 v -0.01 -0.01 l -0.01,-0.03 v -0.03 -0.02 l 0.01,-0.02 h 0.01 l 0.01,-0.02 h 0.01 l 0.02,-0.01 0.02,-0.01 0.02,-0.01 h 0.02 0.01 0.01 l 0.01,-0.01 h 0.01 0.02 0.02 0.01 0.02 l 0.01,0.01 h 0.02 l 0.01,0.01 h 0.01 v 0.01 h 0.02 0.01 l 0.02,0.01 h 0.01 l 0.02,0.01 0.01,0.01 0.01,0.01 0.01,0.01 0.03,0.01 h 0.03 l 0.02,0.01 0.01,-0.01 h 0.01 0.01 0.02 0.01 l 0.01,0.01 h 0.02 0.01 l 0.01,0.01 h 0.01 0.01 0.01 l 0.02,-0.01 0.01,-0.01 0.01,-0.01 v -0.01 -0.01 -0.02 l 0.01,-0.01 v -0.02 -0.01 l 0.01,-0.02 v -0.02 -0.01 -0.02 -0.01 -0.01 l 0.01,-0.01 v -0.01 l 0.01,-0.01 0.01,-0.01 0.01,-0.01 h 0.01 0.01 l 0.01,-0.01 h 0.01 l 0.01,-0.01 h 0.01 0.01 l 0.01,-0.01 0.01,-0.01 v -0.01 l 0.01,-0.01 v -0.01 l 0.01,-0.02 v -0.02 -0.01 -0.02 l -0.01,-0.01 -0.01,-0.01 v -0.01 l -0.01,-0.01 h -0.01 v -0.01 l -0.01,-0.01 h -0.01 l -0.01,-0.01 -0.01,-0.01 h -0.01 l -0.02,-0.01 v 0 l -0.01,-0.01 -0.01,-0.02 -0.01,-0.01 -0.01,-0.01 v -0.01 l -0.01,-0.01 v -0.01 l 0.01,-0.01 h 0.01 v -0.01 -0.02 0 l -0.01,-0.01 v -0.01 h -0.02 v -0.01 h -0.01 l -0.01,-0.01 h -0.01 l -0.01,-0.01 -0.02,-0.02 -0.01,-0.01 -0.01,-0.01 -0.01,-0.01 v -0.01 -0.01 -0.01 -0.01 -0.01 h -0.01 v -0.02 l -0.01,-0.01 v -0.01 -0.01 0 l -0.01,-0.01 v -0.02 -0.01 l 0.01,-0.01 0.01,-0.01 v 0 l 0.01,-0.01 h 0.01 l 0.01,-0.01 0.01,-0.01 v -0.01 h 0.01 l 0.01,-0.01 h 0.01 l 0.01,-0.01 0.02,0.01 v 0.01 l 0.01,0.01 v 0.01 l 0.01,0.02 v 0.02 l 0.02,0.02 0.02,0.02 v 0.01 0.01 l 0.01,0.01 0.01,0.02 0.01,0.02 0.02,0.03 0.01,0.02 0.02,0.02 0.01,0.02 0.02,0.03 0.02,0.03 0.01,0.02 0.02,0.02 0.02,0.02 0.02,0.01 0.02,0.02 0.01,0.01 0.02,0.01 0.01,0.02 0.01,0.02 v 0.02 0.01 0.02 0.02 0.01 0.02 l 0.01,0.02 0.01,0.02 0.01,0.01 0.02,0.02 0.01,0.02 0.03,0.03 0.03,0.03 0.01,0.02 0.02,0.01 0.02,0.01 0.02,0.02 0.01,0.01 0.03,0.02 0.02,0.02 0.03,0.04 0.03,0.03 0.02,0.03 0.02,0.03 0.03,0.02 0.01,0.01 0.01,0.01 0.02,0.01 h 0.01 l 0.01,0.01 h 0.01 0.01 0.02 0.01 0.01 0.02 0.01 0.02 0.01 l 0.01,0.01 0.01,0.01 h 0.02 l 0.01,0.01 0.01,0.01 0.02,0.02 0.01,0.01 0.02,0.02 0.01,0.02 0.01,0.01 0.02,0.01 0.01,0.02 0.02,0.01 0.02,0.02 h 0.01 l 0.04,0.01 0.04,0.02 0.03,0.02 0.03,0.02 0.02,0.03 0.01,0.02 0.02,0.03 0.01,0.01 0.05,0.02 0.03,0.01 h 0.04 0.04 l 0.04,-0.02 h 0.03 0.04 l 0.02,0.01 h 0.02 l 0.03,0.01 h 0.03 l 0.03,-0.01 0.02,-0.03 v -0.02 l -0.02,-0.04 v -0.03 l 0.01,-0.03 0.03,-0.04 0.03,-0.03 0.03,-0.02 0.03,-0.02 0.04,-0.02 0.06,-0.02 h 0.03 l 0.01,-0.01 0.02,-0.03 0.01,-0.02 0.01,-0.02 z m -14.96,9.67 -0.84,-0.41 0.2,-0.51 0.05,-0.03 0.02,-0.02 0.05,-0.02 0.03,-0.01 0.03,-0.01 0.05,-0.01 0.07,-0.02 0.05,-0.02 h 0.03 l 0.05,-0.01 0.07,-0.02 0.03,-0.01 0.06,-0.01 0.04,-0.01 0.14,-0.03 0.07,-0.02 0.07,-0.01 h 0.04 0.04 0.05 l 0.04,0.01 h 0.04 0.02 l -0.08,0.11 0.14,0.11 0.27,0.22 0.57,-0.2 0.1,0.02 0.25,0.45 0.02,-0.01 h 0.03 0.01 l 0.04,-0.01 0.08,-0.02 h 0.03 0.04 l -0.57,0.32 -0.36,0.1 -0.25,-0.01 -0.15,-0.05 -0.34,0.07 -0.06,-0.03 z m -2.22,4.56 -0.98,-2.18 1.23,-1.08 0.25,-0.03 0.68,1.49 0.44,1.72 z m 1.25,-6.32 -0.94,1.36 -0.15,-0.13 -0.61,0.68 -0.55,-0.26 0.13,-1.06 0.11,-0.24 0.67,-0.17 z"
       id="path2" />
  </g>
</svg>
