<?xml version="1.0" encoding="UTF-8" standalone="no"?>
<svg
   xmlns:dc="http://purl.org/dc/elements/1.1/"
   xmlns:cc="http://creativecommons.org/ns#"
   xmlns:rdf="http://www.w3.org/1999/02/22-rdf-syntax-ns#"
   xmlns:svg="http://www.w3.org/2000/svg"
   xmlns="http://www.w3.org/2000/svg"
   xmlns:sodipodi="http://sodipodi.sourceforge.net/DTD/sodipodi-0.dtd"
   xmlns:inkscape="http://www.inkscape.org/namespaces/inkscape"
   version="1.2"
   width="800"
   height="642"
   viewBox="0 0 800 642"
   stroke-linecap="round"
   stroke-linejoin="round"
   id="svg16"
   sodipodi:docname="Zaro.svg"
   inkscape:version="0.92.5 (2060ec1f9f, 2020-04-08)">
  <metadata
     id="metadata22">
    <rdf:RDF>
      <cc:Work
         rdf:about="">
        <dc:format>image/svg+xml</dc:format>
        <dc:type
           rdf:resource="http://purl.org/dc/dcmitype/StillImage" />
      </cc:Work>
    </rdf:RDF>
  </metadata>
  <defs
     id="defs20" />
  <sodipodi:namedview
     pagecolor="#ffffff"
     bordercolor="#666666"
     borderopacity="1"
     objecttolerance="10"
     gridtolerance="10"
     guidetolerance="10"
     inkscape:pageopacity="0"
     inkscape:pageshadow="2"
     inkscape:window-width="1848"
     inkscape:window-height="1016"
     id="namedview18"
     showgrid="false"
     inkscape:zoom="1.0397333"
     inkscape:cx="400"
     inkscape:cy="321"
     inkscape:window-x="72"
     inkscape:window-y="27"
     inkscape:window-maximized="1"
     inkscape:current-layer="svg16" />
  <g
     id="Zaro"
     transform="matrix(36.2782,0,0,36.2782,-22641.549,-5346.4112)">
    <path
       d="m 637.01,151.78 0.07,-0.02 0.37,-0.21 0.07,0.01 0.17,0.24 0.63,0.43 0.62,0.44 v 0.07 l -0.01,0.09 v 0.1 l 0.27,0.11 -0.05,0.05 -0.02,0.08 0.03,0.12 0.02,0.04 0.02,0.03 v 0.04 l 0.01,0.03 0.02,0.03 0.02,0.03 0.02,0.03 0.01,0.04 v 0.03 l 0.01,0.04 v 0.03 0.04 0.04 0.04 0.02 l 0.01,0.03 v 0.04 l 0.01,0.04 0.01,0.03 0.01,0.04 0.01,0.05 0.01,0.03 0.01,0.07 0.01,0.02 v 0.01 0.01 l 0.01,0.02 v 0.02 0.01 l 0.01,0.03 0.01,0.02 0.01,0.02 v 0.02 l -0.01,0.01 v 0.01 0.01 0.02 l 0.01,0.01 0.01,0.02 v 0.02 l 0.01,0.02 v 0.02 l 0.01,0.01 v 0.04 l 0.01,0.03 v 0.03 l -0.03,0.19 0.21,0.05 0.45,-0.15 0.01,0.05 0.04,0.11 0.02,0.04 0.03,0.06 0.03,0.07 0.01,0.04 0.02,0.07 0.01,0.08 v 0.09 0.09 0.03 l -0.01,0.02 -0.01,0.03 0.18,0.32 0.23,-0.03 0.18,0.33 0.06,0.15 h 0.05 l 0.1,-0.11 0.16,-0.31 0.24,-0.09 0.14,-0.03 0.01,0.02 v 0.02 0.03 0.02 l 0.01,0.03 v 0.04 0.05 l 0.02,0.07 0.03,0.05 -0.21,0.23 -0.11,0.04 0.04,0.08 0.32,0.23 -0.2,0.1 h -0.02 -0.01 -0.01 v 0.01 0.01 0.01 0.01 0.03 l 0.01,0.04 v 0.04 0.07 0.06 0.06 l -0.01,0.06 0.07,0.27 v 0.67 l -0.24,0.09 v 0.03 l -0.01,0.02 v 0.02 l -0.01,0.03 -0.01,0.02 -0.01,0.03 -0.01,0.02 v 0.04 0.05 0.06 l -0.01,0.05 -0.01,0.04 -0.02,0.05 0.22,-0.04 0.08,-0.2 h 0.08 l 0.24,0.09 -0.13,0.26 -0.66,0.92 -0.22,0.43 -0.03,0.11 0.06,0.18 0.03,0.04 0.02,0.04 0.02,0.03 0.01,0.04 0.01,0.02 0.01,0.03 0.01,0.02 h 0.01 l 0.01,0.01 h 0.02 l 0.02,0.01 0.02,0.01 0.05,0.03 0.02,0.02 0.17,0.17 0.05,0.25 0.02,0.13 -0.26,-0.06 -0.14,-0.21 -0.09,-0.01 -0.06,0.09 0.1,0.24 -0.01,0.06 -0.07,0.05 -0.13,-0.11 -0.11,-0.03 -0.05,0.11 -0.19,0.26 -0.08,0.06 -0.16,-0.17 -0.04,-0.07 0.27,-0.24 0.11,-0.17 0.14,-0.17 -0.06,-0.03 -0.03,-0.02 -0.03,-0.01 -0.03,-0.03 -0.01,-0.02 -0.02,-0.03 -0.01,-0.02 -0.01,-0.02 -0.02,-0.01 -0.02,-0.01 h -0.03 l -0.05,0.01 -0.04,0.01 -0.04,0.02 -0.02,0.01 v 0 h -0.01 v -0.02 0 l -0.01,-0.01 -0.02,-0.01 h -0.01 l -0.02,-0.02 -0.01,-0.02 v -0.01 -0.01 -0.02 -0.01 h -0.01 -0.01 -0.02 L 640,160.5 h -0.01 -0.01 -0.01 l -0.07,0.03 h -0.01 -0.02 v -0.01 -0.01 -0.01 h -0.01 -0.02 -0.01 l -0.02,0.01 h -0.01 -0.01 -0.01 -0.01 l -0.68,-0.36 -0.04,-0.05 0.02,-0.09 -0.13,-0.1 -0.27,-0.15 v 0.01 l -0.22,-0.13 -0.14,0.19 -0.11,0.04 h -0.08 l -0.14,-0.02 -0.21,-0.14 v 0.21 l -0.05,0.27 0.07,0.04 -0.02,0.26 -0.03,0.02 -0.03,0.01 -0.03,0.01 -0.05,0.04 -0.02,0.04 -0.04,0.04 -0.04,0.05 -0.03,0.02 -0.02,0.01 -0.02,0.01 -0.01,0.01 -0.01,0.01 h -0.01 l -0.02,0.02 h -0.02 -0.01 -0.04 l -0.1,-0.51 -0.06,-0.05 -0.32,-0.1 -0.2,-0.02 -0.12,0.06 -0.21,0.15 -0.06,0.14 -0.07,-0.02 -0.03,-0.02 -0.01,-0.02 v -0.03 -0.05 l 0.01,-0.13 -0.01,-0.11 -0.02,-0.08 -0.05,-0.07 -0.03,-0.04 -0.02,-0.03 -0.02,-0.08 -0.05,-0.06 -0.02,-0.03 -0.08,-0.09 -0.09,-0.04 -0.05,-0.05 -0.05,-0.07 -0.02,-0.09 -0.03,-0.07 -0.02,-0.09 -0.02,-0.1 -0.01,-0.07 v -0.1 -0.05 l -0.04,-0.06 -0.04,-0.08 -0.04,-0.07 -0.02,-0.09 v -0.06 -0.08 -0.09 -0.07 l -0.02,-0.05 -0.01,-0.05 -0.08,-0.1 -0.09,-0.11 -0.07,-0.09 -0.04,-0.06 -0.1,-0.14 -0.07,-0.08 -0.1,-0.1 -0.09,-0.1 -0.06,-0.05 -0.04,-0.03 h -0.04 l -0.05,-0.01 -0.05,-0.02 -0.04,-0.02 -0.03,-0.04 -0.03,-0.05 -0.33,0.06 -0.18,0.08 -0.22,0.23 -0.09,0.25 -0.1,0.55 -0.05,0.11 -0.15,0.11 -0.14,0.05 0.01,-0.11 0.05,-0.07 0.08,-0.36 v -0.1 l -0.24,-0.11 -0.36,-0.1 -0.02,-0.05 -0.07,-0.25 -0.11,-0.18 -0.1,-0.12 -0.75,0.05 -0.02,-0.32 0.15,-0.04 0.3,-0.02 0.01,-0.05 v -0.25 l -0.05,-0.26 -0.15,-0.29 -0.25,-0.3 0.03,-0.05 0.57,-0.16 0.14,-0.05 0.03,0.3 0.05,-0.02 0.24,-0.23 0.04,-0.02 0.02,-0.01 0.03,-0.02 0.03,-0.01 0.03,-0.02 0.02,-0.01 0.03,-0.01 h 0.03 l 0.03,0.01 h 0.03 0.02 0.03 0.02 0.02 l 0.03,-0.01 0.06,-0.03 0.02,-0.02 0.02,-0.02 0.02,-0.01 0.02,-0.03 0.02,-0.02 0.02,-0.02 0.03,-0.02 0.03,-0.01 0.02,-0.01 0.02,-0.02 0.02,-0.01 0.01,-0.01 h 0.02 l 0.01,-0.01 0.02,-0.02 -0.27,-0.22 0.14,-0.14 0.07,0.08 0.33,0.05 0.16,0.07 0.02,-0.02 0.02,-0.01 0.01,-0.02 0.02,-0.01 0.01,-0.01 h 0.02 l 0.01,-0.02 0.01,-0.01 0.01,-0.02 0.02,-0.02 0.01,-0.01 0.01,-0.02 0.01,-0.01 0.02,-0.01 0.01,-0.01 0.02,-0.01 0.02,-0.01 0.02,-0.01 0.02,-0.01 0.02,-0.01 0.01,-0.01 h 0.02 l 0.01,0.01 0.01,0.01 0.01,0.01 v 0.02 l 0.01,0.03 0.02,0.01 0.02,0.01 0.03,0.05 0.02,0.04 0.06,0.05 0.1,0.07 0.1,0.02 h 0.08 l 0.05,-0.02 0.02,-0.03 v -0.06 l 0.37,0.21 -0.14,-0.4 0.27,-0.05 -0.05,-0.3 -0.23,-0.09 -0.18,-0.14 -0.11,0.1 -0.05,-0.04 h -0.01 l -0.03,-0.17 -0.04,-0.07 -0.03,-0.04 -0.03,-0.07 -0.02,-0.07 -0.01,-0.02 0.2,-0.09 0.13,-0.09 0.24,-0.16 0.06,0.01 0.09,0.08 0.28,-0.01 0.19,-0.08 0.04,-0.09 0.04,-0.1 0.03,-0.04 0.03,-0.02 0.03,-0.03 0.04,-0.03 0.02,-0.01 0.17,-0.28 -0.01,-0.12 -0.1,-0.2 0.04,-0.15 0.15,-0.22 h 0.05 l 0.45,0.4 0.03,-0.02 0.03,-0.04 0.05,-0.08 0.03,-0.02 0.04,-0.04 0.03,-0.02 0.04,-0.04 0.03,-0.04 0.03,-0.04 0.02,-0.04 0.01,-0.05 0.01,-0.05 v -0.03 -0.05 -0.14 z"
       id="path13"
       inkscape:connector-curvature="0" />
  </g>
</svg>
