<?xml version="1.0" encoding="UTF-8" standalone="no"?>
<svg
   xmlns:dc="http://purl.org/dc/elements/1.1/"
   xmlns:cc="http://creativecommons.org/ns#"
   xmlns:rdf="http://www.w3.org/1999/02/22-rdf-syntax-ns#"
   xmlns:svg="http://www.w3.org/2000/svg"
   xmlns="http://www.w3.org/2000/svg"
   xmlns:sodipodi="http://sodipodi.sourceforge.net/DTD/sodipodi-0.dtd"
   xmlns:inkscape="http://www.inkscape.org/namespaces/inkscape"
   version="1.2"
   width="800"
   height="642"
   viewBox="0 0 800 642"
   stroke-linecap="round"
   stroke-linejoin="round"
   id="svg49"
   sodipodi:docname="Zeberio.svg"
   inkscape:version="0.92.5 (2060ec1f9f, 2020-04-08)">
  <metadata
     id="metadata55">
    <rdf:RDF>
      <cc:Work
         rdf:about="">
        <dc:format>image/svg+xml</dc:format>
        <dc:type
           rdf:resource="http://purl.org/dc/dcmitype/StillImage" />
      </cc:Work>
    </rdf:RDF>
  </metadata>
  <defs
     id="defs53" />
  <sodipodi:namedview
     pagecolor="#ffffff"
     bordercolor="#666666"
     borderopacity="1"
     objecttolerance="10"
     gridtolerance="10"
     guidetolerance="10"
     inkscape:pageopacity="0"
     inkscape:pageshadow="2"
     inkscape:window-width="1848"
     inkscape:window-height="1016"
     id="namedview51"
     showgrid="false"
     inkscape:zoom="1.0397333"
     inkscape:cx="400"
     inkscape:cy="321"
     inkscape:window-x="72"
     inkscape:window-y="27"
     inkscape:window-maximized="1"
     inkscape:current-layer="svg49" />
  <g
     id="Zeberio"
     transform="matrix(13.622485,0,0,13.622485,-1963.8063,-1831.144)">
    <path
       d="m 164.03,145.07 0.5,0.29 0.24,0.22 0.26,0.32 0.16,0.21 0.14,0.17 0.12,0.14 0.09,0.12 0.17,0.2 0.09,0.13 0.7,0.39 0.38,0.22 -0.03,0.2 0.98,-0.13 0.55,-0.54 0.31,-0.37 0.05,-0.06 0.08,-0.09 0.25,-0.3 0.18,-0.2 0.14,-0.12 0.42,0.18 0.38,0.14 0.37,0.4 0.27,-0.06 0.49,0.1 0.8,1.8 -0.79,1.15 -0.21,0.32 -0.31,0.44 -0.36,0.48 -0.21,0.36 -0.19,0.31 0.18,0.16 0.25,0.13 0.29,0.13 0.23,0.11 0.37,0.19 0.34,0.18 0.2,0.23 0.31,0.32 0.15,0.14 0.27,0.12 0.39,0.16 0.29,0.13 0.33,0.21 0.19,-0.04 0.7,0.07 0.24,-0.27 0.02,-0.31 0.01,-0.2 0.01,-0.24 0.16,-0.22 0.16,-0.2 0.34,-0.44 0.42,-0.14 0.53,-0.18 0.35,-0.13 0.49,-0.22 0.42,0.15 0.32,-0.11 0.17,-0.16 0.24,0.07 0.47,0.06 0.69,0.16 0.14,0.03 0.34,0.15 0.51,0.12 0.13,0.02 0.46,0.1 0.54,0.16 0.88,0.29 0.05,0.09 0.3,0.31 1.01,0.84 0.19,0.21 0.11,0.13 0.16,0.17 0.19,0.13 0.63,0.83 0.61,0.79 -0.31,0.52 -0.04,0.42 -0.04,0.32 -0.1,0.42 -0.13,0.49 -0.16,0.65 -0.25,0.24 -0.18,0.17 -0.17,-0.06 -0.13,0.26 -0.3,0.51 -0.07,-0.07 -0.02,-0.04 -0.03,-0.04 -0.04,-0.09 -0.02,-0.01 -0.13,0.09 0.01,0.02 0.15,0.31 0.16,1 0.3,0.3 -0.12,0.33 0.36,0.3 v 0.01 l 0.14,0.68 0.05,0.21 -0.01,0.04 v 0.06 l -0.02,0.12 v 0.12 0.12 l 0.02,0.11 0.01,0.11 0.01,0.09 v 0.08 l 0.03,0.12 0.05,0.12 0.05,0.14 0.1,0.21 0.06,0.12 0.03,0.09 0.03,0.11 0.03,0.07 0.02,0.06 -0.29,0.18 -0.22,0.1 -0.24,0.09 -0.16,0.07 -0.22,0.08 -0.3,0.13 -0.06,0.12 -0.1,0.15 -0.11,0.16 -0.1,0.14 -0.14,0.22 -0.08,0.16 -0.18,0.38 -0.04,0.11 -0.03,0.08 -0.04,0.05 -0.19,0.41 -0.49,1.01 -0.14,0.38 -0.13,0.36 -0.2,0.14 -0.21,0.15 -0.32,0.2 -0.25,0.1 -0.25,0.09 -0.18,0.08 -0.31,0.41 -0.21,0.26 -0.16,0.26 -0.09,0.16 -0.02,0.03 -0.02,0.03 -0.32,0.26 -0.14,0.18 -0.14,0.14 -0.13,0.18 -0.23,0.26 -0.24,0.35 -0.15,0.22 -0.18,0.24 -0.03,0.03 0.01,0.01 0.03,0.1 0.01,0.06 v 0.06 l 0.02,0.02 0.09,0.07 h 0.01 l 0.05,0.03 0.03,0.02 0.03,0.02 0.03,0.03 0.04,0.03 0.04,0.02 0.02,0.02 0.05,0.05 0.01,0.01 0.02,0.02 0.05,0.04 0.02,0.02 0.08,0.04 0.03,0.02 0.02,0.03 0.01,0.03 -0.01,0.02 v 0.07 l -0.06,0.11 -0.06,0.13 -0.13,0.18 -0.02,0.15 -0.03,0.16 -0.02,0.14 -0.04,0.15 v 0.01 l -0.06,0.21 -0.03,0.1 -0.04,0.14 -0.02,0.08 v 0.02 l 0.08,0.13 0.1,0.24 0.09,0.16 0.08,0.16 0.06,0.14 0.03,0.12 0.02,0.17 0.02,0.18 v 0.07 l -0.21,0.14 -0.12,0.08 -0.13,0.11 -0.12,0.1 -0.16,-0.05 -0.12,-0.02 -0.14,-0.04 -0.15,-0.06 -0.13,-0.07 -0.18,-0.07 -0.11,-0.04 -0.11,-0.02 h -0.1 l -0.18,0.07 -0.03,0.01 -0.18,0.07 -0.19,0.1 -0.15,0.09 -0.14,-0.04 -0.19,-0.09 -0.12,-0.03 -0.09,-0.03 -0.1,-0.1 -0.09,-0.08 -0.08,-0.1 -0.08,-0.08 -0.11,-0.1 -0.09,-0.08 -0.1,-0.1 -0.12,-0.12 -0.09,-0.12 -0.1,-0.19 -0.11,-0.11 -0.11,-0.13 -0.09,-0.1 -0.07,-0.09 -0.08,-0.08 -0.1,-0.08 -0.31,-0.21 -0.11,-0.08 -0.11,-0.1 -0.05,-0.05 -0.29,-0.21 -0.17,-0.13 -0.22,-0.34 -0.13,-0.05 -0.29,-0.06 -0.22,-0.11 -0.2,-0.1 -0.16,-0.12 -0.13,-0.12 -0.31,-0.23 -0.25,-0.09 -0.25,-0.05 -0.02,-0.01 -0.26,-0.09 -0.22,-0.06 -0.2,-0.02 -0.24,-0.02 -0.12,0.01 -0.06,-0.02 -0.35,-0.21 -0.17,-0.05 -0.03,-0.01 -0.04,-0.01 -0.18,-0.08 -0.22,-0.07 -0.31,-0.22 -0.54,0.03 h -0.1 l -0.25,-0.1 -0.1,-0.06 -0.06,-0.06 -0.1,-0.09 -0.1,-0.09 -0.12,-0.1 -0.1,-0.12 -0.08,-0.11 -0.05,-0.05 -0.1,-0.07 -0.11,-0.09 -0.07,-0.06 -0.1,-0.07 -0.05,-0.06 -0.04,-0.04 -0.01,-0.03 -0.02,-0.03 0.01,-0.07 v -0.01 l -0.01,-0.02 -0.01,-0.02 -0.04,-0.05 -0.04,-0.08 -0.05,-0.18 -0.04,-0.17 -0.11,-0.08 -0.13,-0.11 -0.15,-0.1 -0.22,-0.18 -0.09,-0.05 -0.08,-0.09 -0.07,-0.06 -0.09,-0.04 -0.1,-0.05 -0.16,-0.04 -0.14,-0.03 -0.14,-0.04 -0.16,-0.06 -0.14,-0.07 -0.16,-0.08 -0.16,-0.06 -0.12,-0.07 -0.21,-0.18 -0.1,-0.08 -0.1,-0.03 -0.15,-0.07 -0.21,-0.11 -0.11,-0.05 -0.15,-0.05 -0.11,-0.05 -0.23,-0.1 -0.29,-0.07 -0.13,-0.03 -0.14,-0.04 -0.17,-0.05 -0.35,-0.06 -0.12,-0.03 -0.44,0.05 h -0.13 l -0.12,-0.03 -0.13,-0.05 -0.11,-0.07 -0.12,-0.07 -0.12,-0.06 -0.21,-0.12 -0.12,-0.07 -0.08,-0.05 -0.07,-0.02 -0.08,-0.04 -0.09,-0.04 -0.08,-0.04 -0.07,-0.04 -0.07,-0.04 -0.09,-0.07 -0.05,-0.06 -0.1,-0.1 -0.09,-0.09 -0.06,-0.06 v -0.01 h -0.06 l -0.13,0.01 -0.16,-0.03 -0.23,-0.07 -0.18,-0.07 -0.16,-0.08 -0.27,-0.13 -0.29,-0.1 -0.22,-0.09 -0.17,-0.07 -0.17,-0.02 -0.3,-0.04 -0.29,-0.09 -0.25,-0.06 -0.19,-0.03 -0.12,-0.06 -0.02,-0.14 -0.06,-0.2 -0.04,-0.15 -0.02,-0.18 v -0.24 l -0.06,-0.21 -0.01,-0.18 -0.01,-0.16 v -0.02 -0.05 l 0.17,-1.2 0.08,-0.41 0.11,-0.22 0.32,-0.61 -0.15,-0.99 -0.32,-0.71 -0.03,-0.78 -0.23,-0.48 -0.03,-0.61 -0.03,-0.45 0.27,-0.08 0.13,-0.1 0.13,-0.07 0.33,-0.15 0.2,-0.1 0.29,-0.14 0.4,-0.08 0.15,-0.07 0.03,-0.12 0.16,-0.23 0.26,-0.35 0.04,-0.15 0.13,-0.47 0.02,-0.1 v -0.03 l 0.01,-0.02 0.01,-0.04 0.01,-0.03 0.01,-0.03 0.01,-0.03 0.01,-0.02 0.01,-0.03 0.01,-0.03 0.01,-0.04 v -0.05 l -0.01,-0.03 -0.01,-0.03 -0.01,-0.03 v -0.03 l -0.01,-0.05 -0.01,-0.06 -0.02,-0.1 0.02,-0.02 0.01,-0.01 0.01,-0.01 0.02,-0.01 0.01,-0.03 0.02,-0.02 0.04,-0.03 0.02,-0.02 0.03,-0.02 0.03,-0.03 0.04,-0.02 0.03,-0.03 0.02,-0.01 0.02,-0.02 0.02,-0.02 0.02,-0.03 0.02,-0.02 0.01,-0.02 0.02,-0.03 0.01,-0.01 0.04,-0.06 0.02,-0.03 0.03,-0.08 0.01,-0.02 0.01,-0.03 0.01,-0.03 0.01,-0.02 v -0.03 l 0.01,-0.03 v -0.04 l 0.01,-0.04 0.01,-0.03 0.01,-0.03 0.02,-0.03 0.02,-0.03 0.02,-0.03 0.02,-0.03 0.02,-0.03 0.03,-0.03 0.02,-0.01 0.02,-0.03 0.02,-0.02 0.02,-0.02 0.02,-0.02 0.04,-0.03 0.03,-0.03 0.02,-0.03 0.02,-0.02 0.01,-0.02 0.11,-0.05 0.03,-0.01 -0.06,-0.15 -0.03,-0.14 -0.03,-0.18 -0.02,-0.12 -0.02,-0.05 -0.02,-0.02 -0.07,-0.06 -0.07,-0.03 -0.12,-0.03 -0.1,0.01 -0.18,0.05 -0.05,-0.02 -0.08,-0.06 -0.09,-0.1 -0.01,-0.13 -0.07,0.01 -0.04,0.02 -0.18,0.17 -0.29,0.21 -0.22,0.12 -0.06,-0.14 -0.44,-0.08 -0.26,-0.02 -0.09,0.01 0.25,-0.47 0.36,-0.04 -0.14,-0.28 -0.04,-0.05 0.22,-0.36 0.08,-0.22 0.05,-0.36 v -0.39 l 0.13,0.01 0.58,0.09 0.83,-0.16 0.14,-0.1 0.24,-0.18 0.8,-0.53 0.73,-0.66 0.94,-0.72 0.53,-1.33 0.55,-0.54 0.29,-0.36 0.11,-0.14 0.87,-0.33 z"
       id="path46"
       inkscape:connector-curvature="0" />
  </g>
</svg>
