<?xml version="1.0" encoding="UTF-8" standalone="no"?>
<svg
   xmlns:dc="http://purl.org/dc/elements/1.1/"
   xmlns:cc="http://creativecommons.org/ns#"
   xmlns:rdf="http://www.w3.org/1999/02/22-rdf-syntax-ns#"
   xmlns:svg="http://www.w3.org/2000/svg"
   xmlns="http://www.w3.org/2000/svg"
   xmlns:sodipodi="http://sodipodi.sourceforge.net/DTD/sodipodi-0.dtd"
   xmlns:inkscape="http://www.inkscape.org/namespaces/inkscape"
   version="1.2"
   width="800"
   height="642"
   viewBox="0 0 800 642"
   stroke-linecap="round"
   stroke-linejoin="round"
   id="svg82"
   sodipodi:docname="Zestoa.svg"
   inkscape:version="0.92.5 (2060ec1f9f, 2020-04-08)">
  <metadata
     id="metadata88">
    <rdf:RDF>
      <cc:Work
         rdf:about="">
        <dc:format>image/svg+xml</dc:format>
        <dc:type
           rdf:resource="http://purl.org/dc/dcmitype/StillImage" />
      </cc:Work>
    </rdf:RDF>
  </metadata>
  <defs
     id="defs86" />
  <sodipodi:namedview
     pagecolor="#ffffff"
     bordercolor="#666666"
     borderopacity="1"
     objecttolerance="10"
     gridtolerance="10"
     guidetolerance="10"
     inkscape:pageopacity="0"
     inkscape:pageshadow="2"
     inkscape:window-width="1848"
     inkscape:window-height="1016"
     id="namedview84"
     showgrid="false"
     inkscape:zoom="1.470405"
     inkscape:cx="400"
     inkscape:cy="321"
     inkscape:window-x="72"
     inkscape:window-y="27"
     inkscape:window-maximized="1"
     inkscape:current-layer="svg82" />
  <g
     id="Zestoa"
     transform="matrix(10.452545,0,0,10.452545,-3197.0954,-1027.5269)">
    <path
       d="m 341.68,113.87 0.44,0.32 -0.41,1.03 -0.04,0.59 h 0.01 l 0.04,0.01 0.03,0.01 0.09,0.02 0.07,0.04 0.1,0.05 0.04,0.01 0.05,0.03 0.03,0.02 0.06,0.08 0.07,0.14 0.08,0.13 0.09,0.16 0.03,0.06 0.04,0.11 v 0.01 l 0.02,0.07 v 0.03 l 0.01,0.15 -0.01,0.08 -0.01,0.06 -0.04,0.21 -0.05,0.48 -0.01,0.14 V 118 l -0.03,0.25 -0.02,0.1 -0.01,0.1 -0.02,0.11 v 0.02 0.03 l -0.02,0.07 v 0.05 l -0.01,0.08 -0.02,0.14 -0.01,0.14 0.01,0.12 -0.01,0.12 0.02,0.15 0.01,0.11 0.03,0.16 0.02,0.08 0.04,0.13 0.06,0.11 0.02,0.04 0.03,0.03 0.04,0.04 0.08,0.04 h 0.01 l 0.05,0.02 h 0.06 l 0.05,-0.01 0.05,-0.02 0.04,-0.03 0.05,-0.04 0.19,-0.23 0.04,-0.04 0.04,-0.04 0.03,-0.03 0.06,-0.04 0.14,-0.05 0.07,-0.03 0.16,-0.06 0.04,-0.02 0.12,-0.04 0.12,-0.03 0.11,-0.02 h 0.09 0.04 l 0.16,0.03 0.25,0.08 0.28,0.08 0.09,0.03 0.1,0.04 0.11,0.06 0.14,0.06 0.14,0.04 0.09,0.04 0.12,0.04 0.18,0.06 0.1,0.04 0.08,0.01 0.06,0.02 0.08,0.01 0.14,0.02 0.12,-0.01 0.14,-0.01 0.06,-0.01 0.06,-0.01 0.1,-0.02 h 0.06 l 0.07,-0.02 0.15,-0.03 0.08,-0.02 0.07,-0.02 0.04,-0.01 0.02,-0.01 0.05,-0.03 0.08,-0.05 0.07,-0.05 0.02,-0.02 0.02,-0.02 0.03,-0.02 0.04,-0.04 0.1,-0.1 0.04,-0.04 0.02,-0.03 0.07,-0.08 0.1,-0.14 0.03,-0.05 0.12,-0.18 0.01,-0.02 0.15,0.13 0.04,0.02 0.02,0.02 0.06,0.02 0.03,0.01 0.05,0.02 h 0.02 0.02 l 0.04,0.01 0.03,0.01 h 0.03 l 0.03,-0.01 h 0.02 l 0.03,-0.01 0.03,-0.02 0.02,-0.01 0.03,-0.02 0.01,-0.01 0.04,-0.01 0.01,-0.01 0.05,-0.01 0.02,-0.01 0.04,-0.01 0.01,-0.01 0.04,-0.01 0.01,-0.01 0.04,-0.01 0.02,-0.01 0.03,-0.01 0.02,-0.02 h 0.02 l 0.02,-0.01 0.03,-0.01 0.03,-0.01 h 0.04 l 0.03,-0.01 0.04,-0.01 h 0.04 0.04 0.04 l 0.04,0.01 h 0.05 l 0.04,-0.01 h 0.02 l 0.02,-0.02 0.01,-0.03 0.02,-0.02 0.02,-0.01 0.02,-0.01 0.06,-0.01 h 0.03 0.02 0.02 0.01 0.03 l 0.01,-0.01 v 0 h 0.02 l 0.02,-0.02 h 0.01 l 0.02,-0.01 0.02,-0.01 0.02,-0.01 0.03,-0.01 h 0.01 l 0.05,-0.01 h 0.04 l 0.03,-0.01 0.03,-0.01 0.05,-0.03 0.05,-0.03 h 0.02 0.04 l 0.6,-0.45 0.54,-0.4 0.55,-0.35 0.88,-0.47 1.96,1.62 0.5,0.43 -0.01,0.01 -0.03,0.01 -0.02,0.02 -0.03,0.03 -0.02,0.03 -0.02,0.02 -0.03,0.02 -0.03,0.03 -0.04,0.05 -0.03,0.04 -0.07,0.09 v 0.01 l -0.05,0.08 -0.01,0.02 -0.03,0.06 -0.01,0.03 -0.02,0.04 -0.02,0.03 -0.03,0.04 -0.01,0.03 -0.02,0.02 -0.01,0.01 -0.02,0.02 -0.01,0.01 -0.03,0.04 -0.01,0.02 -0.02,0.02 -0.02,0.04 -0.02,0.04 -0.03,0.03 -0.03,0.04 -0.03,0.02 -0.01,0.03 -0.02,0.04 -0.02,0.03 -0.03,0.05 -0.01,0.03 v 0.06 l -0.01,0.04 v 0.01 l 0.01,0.03 v 0.03 l -0.01,0.04 -0.02,0.04 -0.01,0.03 -0.01,0.05 -0.01,0.04 v 0.01 l -0.01,0.02 v 0.02 0.02 l -0.01,0.03 v 0.02 l -0.01,0.03 -0.02,0.04 -0.02,0.03 v 0.01 l -0.02,0.02 -0.03,0.04 -0.01,0.02 v 0.01 l -0.03,0.04 -0.01,0.01 -0.01,0.02 -0.01,0.01 -0.01,0.03 -0.02,0.03 -0.01,0.02 -0.01,0.02 -0.02,0.03 -0.02,0.02 -0.03,0.04 -0.01,0.02 -0.04,0.06 -0.02,0.02 -0.02,0.05 -0.01,0.03 -0.01,0.02 v 0.04 l -0.02,0.05 -0.01,0.06 -0.02,0.07 -0.01,0.08 -0.05,0.05 -0.02,0.03 -0.01,0.05 0.01,0.03 0.04,-0.01 h 0.03 0.02 l 0.05,0.01 0.04,0.01 0.04,0.02 0.03,0.01 0.05,0.03 0.05,0.02 0.04,0.03 0.01,0.01 0.03,0.02 0.02,0.02 0.03,0.03 0.02,0.04 0.03,0.04 0.01,0.03 0.02,0.03 0.01,0.04 0.02,0.04 0.01,0.03 0.01,0.05 v 0.04 l 0.01,0.04 -0.01,0.03 v 0.05 l -0.01,0.02 -0.01,0.03 -0.01,0.04 -0.02,0.05 v 0.02 0.03 0.03 l 0.02,0.02 0.01,0.03 0.02,0.02 0.02,0.03 0.02,0.01 0.01,0.01 0.01,0.02 0.02,0.02 0.01,0.01 0.01,0.02 v 0.02 0.02 l -0.01,0.05 v 0.01 l -0.01,0.05 -0.02,0.04 -0.01,0.03 -0.01,0.03 v 0.01 l -0.01,0.02 v 0.01 l 0.01,0.03 v 0.02 0.02 0.02 l -0.01,0.04 v 0.03 0.04 0.03 0.03 0.04 0.03 l 0.01,0.03 0.02,0.04 0.02,0.03 h 0.03 l 0.03,0.02 0.02,0.03 0.03,0.02 0.02,0.02 0.01,0.02 0.02,0.02 0.02,0.02 0.01,0.02 0.01,0.03 v 0.03 0.04 l -0.01,0.04 -0.01,0.04 -0.01,0.04 -0.01,0.05 -0.01,0.03 v 0.03 l -0.01,0.01 v 0.02 l -0.01,0.01 -0.01,0.01 -0.01,0.02 v 0.01 0.03 l 0.01,0.02 0.01,0.02 0.02,0.01 0.03,0.01 0.04,0.01 h 0.06 0.05 l 0.03,0.01 h 0.04 l 0.03,0.01 h 0.03 l 0.03,-0.01 0.03,-0.01 0.03,0.01 0.02,0.02 0.01,0.03 0.02,0.03 0.01,0.03 0.01,0.04 0.01,0.02 0.01,0.03 0.01,0.02 v 0.02 l 0.01,0.03 0.01,0.04 0.01,0.03 0.02,0.04 0.01,0.03 0.01,0.06 0.01,0.04 0.01,0.04 0.02,0.03 0.01,0.03 0.02,0.03 0.03,0.02 0.04,0.01 0.02,0.01 0.03,0.01 0.04,0.02 0.07,0.03 h 0.01 l 0.03,0.02 0.02,0.01 0.01,0.01 0.02,0.02 0.02,0.03 0.01,0.03 0.02,0.03 0.01,0.01 v 0.02 l -0.01,0.05 -0.01,0.06 v 0.06 0.05 0.04 0.04 l 0.02,0.04 0.02,0.06 0.02,0.06 0.04,0.06 0.03,0.04 0.02,0.01 0.01,0.02 0.03,0.02 0.03,0.02 0.05,0.01 0.04,0.02 0.05,0.01 0.06,0.02 0.04,0.01 0.04,0.02 0.03,0.01 0.04,0.02 0.02,0.02 0.03,0.02 0.02,0.01 0.02,0.03 0.02,0.03 0.02,0.03 0.01,0.03 v 0.04 l 0.01,0.04 v 0.06 l -0.01,0.04 -0.01,0.03 -0.03,0.05 v 0.03 0.04 0.01 0.06 0.04 l 0.02,0.05 0.03,0.05 0.03,0.06 0.03,0.04 0.04,0.04 0.03,0.03 0.02,0.04 0.02,0.04 0.02,0.04 v 0.05 l 0.01,0.03 v 0.03 0.04 l -0.01,0.05 -0.02,0.06 -0.01,0.05 -0.01,0.03 -0.02,0.04 v 0.03 l -0.01,0.03 v 0.01 0.04 l 0.01,0.04 0.02,0.04 0.05,0.08 0.06,0.1 0.05,0.07 0.01,0.05 0.02,0.04 0.02,0.04 0.01,0.05 v 0.04 l 0.01,0.04 v 0.03 0.04 0.03 l 0.01,0.02 0.01,0.03 0.03,0.03 0.04,0.01 h 0.12 0.04 l 0.02,0.01 0.03,0.01 0.02,0.01 0.05,0.03 0.05,0.05 0.02,0.02 0.02,0.04 0.01,0.03 v 0.04 0.04 0.03 l -0.02,0.03 -0.01,0.04 v 0.01 l -0.01,0.03 -0.01,0.04 -0.01,0.04 v 0.05 0.04 0.03 l 0.01,0.04 v 0.02 l 0.02,0.03 0.03,0.05 0.02,0.04 0.02,0.05 0.01,0.04 0.01,0.05 0.01,0.06 v 0.05 0.05 l -0.01,0.05 -0.03,0.07 -0.02,0.05 -0.01,0.03 -0.01,0.06 -0.01,0.03 -0.01,0.04 v 0.02 l -0.01,0.02 -0.01,0.05 V 130 l 0.01,0.09 0.01,0.03 0.01,0.08 0.04,0.11 0.03,0.08 0.05,0.12 0.04,0.1 0.02,0.04 0.02,0.02 0.02,0.02 0.02,0.01 0.04,0.01 0.03,0.01 0.02,0.01 0.01,0.01 0.02,0.01 0.02,0.04 0.01,0.04 0.01,0.02 0.01,0.07 -0.01,0.04 v 0.05 0.05 l 0.01,0.05 0.01,0.07 0.03,0.07 v 0.01 l 0.02,0.04 0.02,0.03 0.02,0.03 0.02,0.02 0.02,0.02 0.03,0.01 0.04,0.01 h 0.03 l 0.03,0.01 0.03,0.01 0.05,0.02 0.04,0.01 0.04,0.02 0.01,0.01 0.02,0.03 0.01,0.03 0.02,0.04 0.01,0.04 0.02,0.02 0.01,0.03 0.02,0.01 0.03,0.02 0.02,0.02 0.03,0.01 0.04,0.01 0.05,0.02 0.07,0.01 0.04,0.01 0.03,0.01 0.03,0.01 0.02,0.01 0.03,0.02 0.05,0.03 0.02,0.02 0.02,0.02 0.02,0.02 0.02,0.03 0.01,0.03 0.01,0.04 0.02,0.03 0.01,0.04 0.02,0.02 0.01,0.01 0.05,0.02 0.06,0.03 0.08,0.04 0.04,0.02 0.02,0.02 0.03,0.02 0.03,0.03 0.03,0.02 0.01,0.02 0.01,0.01 0.01,0.02 0.01,0.02 0.01,0.02 0.03,0.02 0.02,0.02 0.03,0.03 0.03,0.04 0.02,0.03 0.03,0.03 0.02,0.01 0.02,0.01 0.03,0.01 0.02,0.01 0.01,0.01 0.02,0.02 0.02,0.01 0.01,0.02 0.01,0.02 0.01,0.02 0.01,0.03 0.02,0.04 0.01,0.03 v 0.04 l 0.01,0.05 v 0.04 0.04 l 0.02,0.08 v 0.03 0.08 0.02 l 0.01,0.02 0.01,0.02 v 0.01 l 0.01,0.02 v 0.06 0.06 l 0.01,0.03 0.01,0.03 0.02,0.02 0.01,0.02 0.04,0.02 0.03,0.01 0.02,0.01 0.03,0.01 h 0.06 0.02 0.03 l 0.02,0.01 0.03,0.01 0.02,0.02 0.02,0.01 h 0.01 l 0.01,0.02 0.02,0.02 0.02,0.05 0.01,0.04 0.01,0.02 0.02,0.03 0.05,0.06 0.02,0.02 0.02,0.02 0.02,0.01 0.01,0.02 0.01,0.02 0.02,0.04 0.01,0.04 0.01,0.03 0.01,0.01 v 0.03 l 0.01,0.04 0.01,0.03 0.02,0.04 0.03,0.05 0.01,0.02 0.01,0.03 0.01,0.04 0.01,0.03 0.02,0.04 0.02,0.03 0.03,0.04 0.04,0.03 0.04,0.02 0.02,0.02 0.02,0.02 0.02,0.02 0.01,0.02 0.01,0.03 v 0.05 0.03 l -0.01,0.04 v 0.03 0.03 0.04 l 0.02,0.05 0.03,0.06 0.04,0.01 0.03,0.01 0.02,0.01 0.04,0.02 0.03,0.01 0.02,0.02 0.03,0.03 0.05,0.02 0.04,0.02 0.04,0.01 0.02,0.01 h 0.04 0.04 l 0.05,-0.01 0.04,0.01 0.08,0.01 0.06,0.02 0.06,0.01 0.06,0.01 h 0.03 l 0.04,0.07 0.06,0.06 0.02,0.04 0.04,0.03 0.02,0.03 0.01,0.02 0.02,0.03 0.01,0.01 0.01,0.01 0.02,0.03 0.02,0.03 0.01,0.02 0.02,0.02 0.02,0.01 h 0.02 0.05 0.04 0.03 0.04 0.03 0.01 l 0.02,0.02 0.02,0.03 0.02,0.04 0.01,0.02 0.04,0.03 0.02,0.02 0.03,0.02 0.01,0.02 0.02,0.03 0.03,0.04 0.01,0.03 0.01,0.04 0.02,0.04 0.01,0.02 0.01,0.02 0.01,0.02 0.02,0.01 0.01,0.01 0.03,0.01 0.04,0.01 0.02,0.01 0.03,0.01 0.03,0.01 h 0.01 l 0.29,0.32 0.26,0.04 0.83,0.09 0.31,0.12 0.52,0.17 0.38,0.17 0.28,0.21 -1.48,0.92 h -0.02 l -0.03,-0.01 h -0.04 l -0.03,-0.01 h -0.04 l -0.04,-0.01 -0.03,-0.01 -0.04,-0.02 -0.03,-0.02 -0.06,-0.03 -0.05,-0.03 -0.04,-0.04 -0.04,-0.03 -0.05,-0.06 -0.04,-0.04 -0.02,-0.03 -0.05,-0.06 -0.02,-0.03 -0.04,-0.04 -0.03,-0.02 -0.02,-0.02 -0.03,-0.01 -0.03,-0.01 -0.03,-0.01 h -0.03 -0.03 -0.03 -0.01 -0.03 v 0.01 0.02 l -0.01,0.01 v 0.01 0.01 0.02 l -0.01,0.02 v 0.04 0.01 l -0.01,0.03 -0.02,0.03 -0.01,0.03 -0.02,0.05 -0.02,0.04 -0.02,0.03 v 0.01 l -0.02,0.04 v 0.04 l -0.01,0.02 v 0.03 l -0.03,0.03 -0.01,0.02 -0.01,0.02 -0.01,0.05 -0.02,0.02 -0.01,0.02 -0.04,0.03 -0.03,0.02 -0.02,0.02 h -0.01 l -0.02,0.01 -0.01,0.03 -0.04,0.07 -0.02,0.04 -0.02,0.03 -0.01,0.06 -0.02,0.04 -0.01,0.02 -0.01,0.02 -0.01,0.03 -0.03,0.04 -0.04,0.04 -0.02,0.03 -0.02,0.02 -0.03,0.05 -0.03,0.05 -0.03,0.03 -0.02,0.02 -0.02,0.02 -0.02,0.02 -0.01,0.02 -0.02,0.03 -0.02,0.04 -0.01,0.04 -0.01,0.02 -0.01,0.02 -0.66,0.66 -0.48,0.29 -0.65,0.41 -0.46,0.03 -0.52,0.57 -0.08,0.3 -0.71,-0.35 -0.55,-0.26 -0.62,-0.1 -0.72,-0.15 -0.62,-0.1 -0.62,0.06 -0.49,-0.01 -0.49,0.02 -0.67,0.1 -0.45,-0.28 -1.5,0.73 -2.16,0.59 -0.1,-0.08 -0.08,-0.23 -0.4,-1.18 -0.21,-0.85 -0.19,-0.61 -0.1,-0.27 -0.86,-1.18 -0.58,-0.38 -0.29,-0.51 -0.27,-0.27 -0.8,-0.26 -0.4,-0.58 -0.76,-0.65 -0.62,-0.12 -0.73,-0.43 -0.62,0.04 -0.18,-0.06 v 0.01 l 0.01,0.03 0.02,0.04 0.03,0.05 0.02,0.04 v 0.02 l 0.01,0.05 v 0.02 l -0.01,0.03 -0.01,0.03 -0.03,0.02 -0.03,0.03 -0.05,0.04 -0.02,0.01 -0.01,0.02 -0.01,0.02 -0.01,0.01 v 0.03 0.04 l -0.01,0.03 -0.02,0.01 -0.01,0.01 -0.03,0.01 -0.03,0.01 -0.02,0.01 -0.02,0.01 -0.03,0.02 -0.01,0.01 0.03,0.74 -0.69,0.12 -0.02,0.01 -0.04,-0.01 -0.08,-0.01 -0.04,-0.01 -0.05,-0.02 -0.05,-0.03 -0.07,-0.04 -0.02,-0.01 -0.01,-0.01 -0.02,-0.01 -0.05,-0.04 -0.06,-0.07 -0.07,-0.08 -0.07,-0.07 -0.01,-0.01 -0.02,-0.01 -0.04,-0.04 -0.02,-0.04 -0.01,-0.02 -0.01,-0.02 v -0.02 -0.02 -0.03 l 0.01,-0.05 0.01,-0.04 0.01,-0.02 0.01,-0.03 0.03,-0.04 0.03,-0.04 0.04,-0.04 0.04,-0.06 0.03,-0.03 0.03,-0.08 0.04,-0.05 0.1,-0.1 0.03,-0.07 0.02,-0.03 0.01,-0.02 0.04,-0.05 0.04,-0.04 0.02,-0.02 0.04,-0.05 0.04,-0.06 0.03,-0.06 0.04,-0.06 0.02,-0.05 0.01,-0.02 0.03,-0.09 0.01,-0.07 0.02,-0.08 0.01,-0.03 0.02,-0.06 0.01,-0.05 0.03,-0.06 0.02,-0.05 0.01,-0.07 0.01,-0.09 v -0.04 -0.07 l -0.01,-0.04 -0.01,-0.02 -0.03,-0.05 -0.04,-0.05 -0.01,-0.02 -0.01,-0.02 v -0.01 l -0.05,-0.09 -0.03,-0.04 -0.03,-0.08 -0.04,-0.15 -0.02,-0.11 v -0.04 l -0.03,-0.1 -0.02,-0.11 -0.01,-0.02 -0.02,-0.11 -0.02,-0.06 -0.02,-0.12 -0.01,-0.05 v -0.05 l -0.01,-0.02 0.01,-0.09 -0.01,-0.09 -0.01,-0.1 -0.03,-0.08 -0.07,-0.2 -0.03,-0.07 -0.01,-0.03 -0.03,-0.07 -0.02,-0.07 -0.01,-0.03 -0.02,-0.04 -0.04,0.07 -0.01,0.02 -0.02,0.01 -0.01,0.02 -0.02,0.02 -0.12,0.06 -0.09,0.05 -0.05,0.03 -0.05,0.03 -0.04,0.04 -0.02,0.01 h -0.02 -0.02 -0.03 -0.03 l -0.06,0.01 -0.02,0.01 -0.04,0.01 -0.01,0.01 -0.03,0.06 -0.01,0.01 -0.01,0.02 -0.02,0.01 -0.01,0.02 -0.02,0.01 -0.01,0.01 v 0.01 l -0.01,0.03 0.16,0.23 -0.25,0.15 -0.27,0.18 -0.79,0.28 -0.23,0.11 -0.33,0.01 -0.33,0.16 -0.74,-0.07 -0.41,0.3 -0.55,0.44 -0.43,0.33 -0.28,0.3 -0.24,0.43 -0.44,0.16 -1.62,-0.45 -1.01,-0.31 0.24,-0.92 0.12,-0.24 0.06,-0.14 -0.04,-0.23 -0.07,-0.15 -0.35,-0.39 0.01,-0.02 0.01,-0.03 0.02,-0.03 0.01,-0.02 0.03,-0.03 0.01,-0.02 0.02,-0.01 0.03,-0.02 0.03,-0.01 0.02,-0.01 0.01,-0.02 0.01,-0.02 0.02,-0.03 0.02,-0.02 0.01,-0.01 0.01,-0.01 0.02,-0.02 0.02,-0.02 0.03,-0.01 0.02,-0.01 0.04,-0.02 0.03,-0.02 0.03,-0.02 0.03,-0.01 0.03,-0.02 0.03,-0.01 0.04,-0.03 0.02,-0.02 0.01,-0.02 v -0.02 -0.04 -0.04 l -0.01,-0.05 v -0.04 -0.06 -0.03 l 0.01,-0.04 0.01,-0.02 0.01,-0.04 0.02,-0.02 0.02,-0.02 0.02,-0.02 0.02,-0.02 0.02,-0.02 0.03,-0.02 0.02,-0.03 0.02,-0.02 0.01,-0.03 0.01,-0.02 0.01,-0.02 v -0.03 l 0.01,-0.03 0.01,-0.03 v -0.02 l 0.01,-0.02 v -0.01 l 0.01,-0.03 0.02,-0.04 0.01,-0.03 0.02,-0.02 0.01,-0.01 0.04,-0.03 0.01,-0.03 0.02,-0.03 0.02,-0.05 0.04,-0.06 0.03,-0.05 0.02,-0.02 0.03,-0.02 0.02,-0.02 0.03,-0.02 0.04,-0.02 0.04,-0.03 0.02,-0.03 0.04,-0.03 0.02,-0.01 0.02,-0.01 0.03,-0.02 h 0.03 l 0.03,-0.01 h 0.03 l 0.03,-0.01 0.03,-0.02 0.01,-0.01 0.02,-0.01 0.01,-0.03 0.02,-0.02 0.02,-0.02 0.02,-0.01 0.02,-0.01 v -0.01 -0.01 L 334,129.51 v -0.04 -0.04 l 0.01,-0.06 0.01,-0.04 0.01,-0.03 0.02,-0.02 0.02,-0.02 0.03,-0.03 0.03,-0.02 0.03,-0.02 0.04,-0.03 0.03,-0.01 0.04,-0.01 0.04,-0.01 0.03,-0.02 0.02,-0.02 0.02,-0.02 0.01,-0.02 0.01,-0.03 0.01,-0.03 0.01,-0.03 0.02,-0.06 0.02,-0.04 0.02,-0.04 0.02,-0.04 0.02,-0.03 0.02,-0.04 0.03,-0.04 0.04,-0.06 0.05,-0.05 0.04,-0.04 0.06,-0.05 0.05,-0.03 0.05,-0.05 0.05,-0.04 0.03,-0.02 0.04,-0.02 0.04,-0.04 0.03,-0.02 0.04,-0.01 0.05,-0.03 0.02,-0.03 0.02,-0.03 0.04,-0.05 0.03,-0.04 0.03,-0.01 0.02,-0.03 0.03,-0.04 0.02,-0.05 0.01,-0.04 0.01,-0.04 0.02,-0.05 0.01,-0.04 0.01,-0.04 0.02,-0.03 0.02,-0.02 0.02,-0.04 0.04,-0.03 0.02,-0.03 0.03,-0.03 0.02,-0.02 0.01,-0.03 0.01,-0.02 v -0.01 h 0.01 l 0.01,-0.02 0.01,-0.01 0.04,-0.05 0.03,-0.05 0.04,-0.06 0.04,-0.06 0.03,-0.06 0.02,-0.03 0.02,-0.02 0.01,-0.03 0.02,-0.04 0.04,-0.06 0.03,-0.04 0.03,-0.04 0.04,-0.04 0.05,-0.03 0.03,-0.03 0.02,-0.01 0.04,-0.03 0.02,-0.02 -0.02,-0.01 -0.02,-0.01 -0.03,-0.02 -0.06,-0.04 -0.02,-0.01 -0.04,-0.04 -0.04,-0.03 -0.03,-0.03 v -0.01 l -0.02,-0.02 -0.01,-0.01 -0.02,-0.02 -0.01,-0.01 -0.02,-0.02 -0.02,-0.02 -0.02,-0.01 -0.02,-0.01 h -0.01 -0.02 l -0.02,-0.02 -0.14,-0.02 -0.13,-0.01 -0.07,-0.04 -0.05,-0.04 0.14,-0.25 0.06,-0.07 0.07,-0.25 0.21,-0.49 0.09,-0.14 0.05,-0.38 0.04,-0.08 -0.01,-0.02 -0.02,-0.01 -0.01,-0.01 -0.05,-0.05 -0.1,-0.08 -0.03,-0.03 -0.04,-0.02 h -0.02 l -0.04,-0.02 h -0.02 l -0.04,-0.01 h -0.04 l -0.04,0.01 -0.09,0.01 h -0.03 -0.03 -0.02 l -0.02,-0.01 -0.07,-0.08 -0.11,-0.08 -0.17,-0.11 -0.09,-0.05 -0.07,-0.03 -0.1,-0.04 -0.08,-0.04 h -0.02 -0.04 l -0.11,-0.03 -0.06,-0.02 -0.07,-0.03 -0.14,-0.06 -0.02,-0.01 -0.06,-0.02 -0.22,-0.04 h -0.03 -0.03 -0.01 l -0.02,0.01 -0.04,0.01 -0.07,0.03 -0.07,0.05 h -0.08 l -0.07,-0.01 h -0.07 -0.05 l -0.05,-0.01 -0.05,-0.01 -0.06,-0.01 -0.07,-0.01 -0.06,-0.02 -0.06,-0.02 -0.05,-0.02 -0.07,-0.02 -0.04,-0.02 -0.05,-0.01 -0.05,-0.01 -0.04,-0.01 -0.04,-0.01 h -0.05 l -0.1,-0.02 h -0.04 l -0.12,-0.01 -0.01,-0.01 -0.08,-0.01 h -0.03 -0.02 l -0.03,0.01 -0.02,0.01 -0.03,0.02 -0.05,0.01 -0.04,0.02 h -0.04 -0.04 l -0.06,0.01 h -0.06 -0.07 l -0.07,0.01 -0.06,0.01 h -0.07 -0.03 -0.04 l -0.12,0.01 -0.07,0.01 h -0.09 l -0.07,0.01 -0.07,0.01 h -0.09 l -0.09,0.01 -0.05,0.01 h -0.04 l -0.08,0.01 h -0.08 l -0.06,0.01 h -0.07 l -0.04,0.01 -0.03,0.01 -0.03,0.01 -0.04,0.02 -0.17,-0.09 0.11,-1.44 0.05,-1.81 -0.52,-2.54 0.37,-0.22 0.24,-0.26 0.31,-0.47 0.15,-0.3 0.39,-0.65 0.36,-0.67 0.2,-0.36 0.36,-0.65 0.47,-0.85 1.49,-1.83 0.02,-0.02 0.2,-0.23 0.04,-0.23 -0.02,-0.17 -0.03,-0.22 h 0.01 0.03 0.06 0.04 l 0.05,0.01 h 0.02 l 0.02,-0.02 0.04,-0.01 h 0.03 0.05 0.07 l 0.06,0.01 h 0.05 l 0.02,0.02 0.07,0.04 0.05,0.03 0.07,0.04 0.04,0.01 0.07,0.01 h 0.07 l 0.02,-0.09 -0.02,-0.04 -0.02,-0.1 v -0.01 l 0.01,-0.07 0.01,-0.03 0.03,-0.04 0.03,-0.09 0.04,-0.08 0.06,-0.06 0.05,-0.06 0.05,-0.08 0.05,-0.06 0.04,-0.07 0.05,-0.04 0.05,-0.06 0.15,-0.24 0.09,-0.68 -0.07,-0.13 0.1,-0.12 0.01,0.01 0.08,0.02 0.1,0.03 0.06,0.03 0.03,0.02 0.02,0.01 h 0.03 0.03 l 0.01,-0.01 0.01,-0.01 0.03,-0.01 h 0.02 0.02 l 0.02,0.01 0.03,-0.01 0.01,-0.01 0.02,-0.01 0.03,-0.02 0.02,-0.01 0.01,-0.01 0.03,-0.02 0.03,-0.03 0.03,-0.02 0.03,-0.04 0.02,-0.03 0.01,-0.02 0.03,-0.01 0.04,-0.03 0.01,-0.01 0.03,-0.01 0.03,-0.01 0.04,-0.02 0.04,-0.02 0.03,-0.01 0.01,-0.02 0.02,-0.01 0.01,-0.01 0.01,-0.02 0.01,-0.02 0.01,-0.03 0.02,-0.01 0.02,-0.02 0.02,-0.02 0.02,-0.02 0.01,-0.03 0.02,-0.02 0.02,-0.02 0.03,-0.03 0.04,-0.03 0.03,-0.02 0.04,-0.03 0.02,-0.01 0.02,-0.02 h 0.02 l 0.02,-0.02 0.02,-0.02 h 0.01 l 0.01,-0.01 v -0.01 l 0.03,-0.05 v -0.01 l 0.01,-0.01 0.01,-0.02 0.02,-0.03 0.02,-0.03 0.02,-0.02 0.03,-0.03 0.01,-0.01 h 0.01 0.01 0.01 0.03 0.01 0.02 0.02 l 0.02,-0.01 h 0.01 l 0.01,0.01 0.01,0.01 0.01,0.01 0.01,0.02 0.02,0.01 h 0.02 0.01 0.01 v -0.01 l 0.01,-0.01 0.02,-0.02 h 0.01 l 0.02,-0.02 0.03,-0.01 0.01,-0.01 0.03,-0.01 0.02,-0.02 0.02,-0.02 0.02,-0.01 0.03,-0.03 0.01,-0.02 0.03,-0.03 0.01,-0.01 -0.01,-0.02 -0.1,-0.37 0.13,-0.33 0.02,-0.3 v -0.34 l -0.08,-0.19 -0.06,-0.26 -0.13,-0.3 1.03,0.45 0.3,0.91 -0.69,0.07 h -0.01 l -0.01,0.01 v 0.01 l -0.01,0.02 v 0.02 0.03 l -0.01,0.04 -0.01,0.07 -0.01,0.07 -0.01,0.07 -0.01,0.04 v 0.03 l -0.01,0.02 -0.01,0.02 -0.01,0.02 v 0.02 l -0.01,0.01 -0.02,0.02 -0.01,0.05 -0.03,0.09 -0.05,0.15 -0.01,0.04 -0.01,0.04 -0.01,0.06 -0.01,0.05 -0.01,0.02 -0.02,0.1 -0.01,0.04 v 0.03 0.02 0.02 0.03 0.02 l 0.01,0.02 v 0.05 l 0.01,0.05 v 0.01 l 0.01,0.01 v 0.05 l 0.01,0.02 0.01,0.05 0.02,0.07 0.01,0.05 v 0.03 0.04 0.03 l -0.01,0.03 0.01,0.02 v 0.01 l 0.01,0.03 0.02,0.04 0.02,0.03 0.01,0.03 v 0.02 0.04 l 0.35,-0.05 0.34,0.81 0.19,0.35 0.63,0.89 0.64,-0.01 0.1,-0.23 0.05,-0.66 -0.21,-0.16 v -0.01 l 0.01,-0.01 v -0.01 l 0.01,-0.01 v -0.01 l 0.01,-0.01 v 0 l 0.01,-0.01 v -0.01 l 0.01,-0.01 0.01,-0.02 0.01,-0.01 0.01,-0.01 0.01,-0.01 v -0.02 l 0.01,-0.01 v -0.01 l 0.01,-0.01 v -0.01 0 l 0.01,-0.01 0.01,-0.02 v 0 -0.01 l 0.01,-0.01 v -0.01 l 0.01,-0.01 v -0.01 -0.01 -0.01 -0.01 h 0.01 v -0.01 -0.01 -0.01 -0.01 l 0.01,-0.01 v -0.01 -0.01 -0.01 -0.01 0 -0.02 l 0.01,-0.01 v -0.01 0 -0.01 -0.01 -0.01 l 0.01,-0.01 v -0.01 0 -0.01 -0.01 0 -0.01 -0.01 l 0.01,-0.01 v -0.01 -0.01 -0.01 l 0.01,-0.01 v 0 -0.01 -0.01 l 0.01,-0.01 v -0.01 -0.01 0 -0.01 l -0.01,-0.01 v -0.01 l 0.01,-0.01 v -0.01 -0.01 -0.01 0 -0.01 -0.01 l 0.01,-0.01 -0.01,-0.01 v -0.01 0 -0.01 -0.01 -0.01 l -0.01,-0.01 v -0.01 -0.01 -0.01 -0.01 0 -0.01 -0.02 0 -0.01 -0.01 0 -0.01 -0.01 -0.01 -0.01 -0.01 -0.01 -0.01 0 -0.01 -0.01 0 -0.01 l 0.01,-0.01 v -0.01 -0.01 -0.01 -0.01 h 0.01 v -0.02 h 0.01 v -0.01 -0.01 l 0.01,-0.01 v -0.01 -0.01 l 0.01,-0.02 0.13,-0.22 0.42,-0.15 0.21,-0.21 0.2,0.29 -0.04,0.07 -0.06,0.12 -0.02,0.1 -0.03,0.09 -0.01,0.08 -0.01,0.07 v 0.02 l 0.01,0.08 0.01,0.09 0.02,0.08 0.03,0.08 0.06,0.07 0.01,0.07 v 0.12 0.04 0.01 l 0.01,0.05 0.02,0.03 0.01,0.02 0.05,0.03 0.05,0.03 0.06,0.02 0.07,0.01 0.05,0.02 0.06,0.02 0.03,0.02 0.04,0.02 0.08,0.03 0.01,0.02 0.27,0.8 -0.19,1.36 -0.03,-0.01 -0.08,-0.04 -0.05,-0.02 -0.06,-0.05 -0.05,-0.03 -0.04,-0.02 -0.05,-0.03 -0.05,-0.03 -0.03,-0.02 -0.07,-0.04 -0.06,-0.02 -0.02,-0.01 -0.25,-0.11 -0.01,0.04 -0.02,0.03 -0.01,0.02 v 0.02 z"
       id="path79"
       inkscape:connector-curvature="0" />
  </g>
</svg>
