<?xml version="1.0" encoding="UTF-8" standalone="no"?>
<svg
   xmlns:dc="http://purl.org/dc/elements/1.1/"
   xmlns:cc="http://creativecommons.org/ns#"
   xmlns:rdf="http://www.w3.org/1999/02/22-rdf-syntax-ns#"
   xmlns:svg="http://www.w3.org/2000/svg"
   xmlns="http://www.w3.org/2000/svg"
   xmlns:sodipodi="http://sodipodi.sourceforge.net/DTD/sodipodi-0.dtd"
   xmlns:inkscape="http://www.inkscape.org/namespaces/inkscape"
   version="1.2"
   width="800"
   height="642"
   viewBox="0 0 800 642"
   stroke-linecap="round"
   stroke-linejoin="round"
   id="svg93"
   sodipodi:docname="Ziburu.svg"
   inkscape:version="0.92.5 (2060ec1f9f, 2020-04-08)">
  <metadata
     id="metadata99">
    <rdf:RDF>
      <cc:Work
         rdf:about="">
        <dc:format>image/svg+xml</dc:format>
        <dc:type
           rdf:resource="http://purl.org/dc/dcmitype/StillImage" />
      </cc:Work>
    </rdf:RDF>
  </metadata>
  <defs
     id="defs97" />
  <sodipodi:namedview
     pagecolor="#ffffff"
     bordercolor="#666666"
     borderopacity="1"
     objecttolerance="10"
     gridtolerance="10"
     guidetolerance="10"
     inkscape:pageopacity="0"
     inkscape:pageshadow="2"
     inkscape:window-width="1848"
     inkscape:window-height="1016"
     id="namedview95"
     showgrid="false"
     inkscape:zoom="1.0397333"
     inkscape:cx="400"
     inkscape:cy="321"
     inkscape:window-x="72"
     inkscape:window-y="27"
     inkscape:window-maximized="1"
     inkscape:current-layer="svg93" />
  <g
     id="Ziburu"
     transform="matrix(24.93294,0,0,24.93294,-12170.238,-1519.623)">
    <path
       d="m 502,63.18 h 0.02 0.03 l 0.03,-0.01 0.03,-0.02 v 0.01 h 0.02 0.02 l 0.02,-0.01 0.01,-0.01 0.02,-0.02 0.01,-0.01 0.05,-0.01 h 0.01 l 0.02,-0.01 v -0.01 -0.02 -0.02 -0.01 l 0.01,-0.01 0.07,-0.03 V 63 l 0.01,0.01 h 0.02 l 0.02,-0.01 0.01,-0.01 h 0.02 v 0 h 0.02 0.01 0.01 0.01 l 0.02,0.01 h 0.02 0.02 v -0.01 l 0.01,-0.01 0.01,-0.01 0.03,-0.03 0.04,-0.02 0.03,-0.02 0.02,-0.01 0.01,0.01 h 0.02 l 0.02,-0.01 0.01,-0.01 0.01,-0.01 0.01,-0.01 0.02,-0.02 v -0.01 h -0.01 -0.02 l -0.03,0.01 v -0.01 -0.01 h 0.01 l 0.04,-0.02 0.04,-0.01 v 0 h 0.02 0.03 0.02 l 0.02,-0.01 h 0.02 l 0.02,-0.01 0.03,-0.01 h 0.03 l 0.02,-0.01 h 0.02 l 0.02,-0.01 0.02,-0.01 0.01,0.01 -0.01,0.02 h 0.01 l 0.02,-0.01 0.01,0.01 h 0.02 v 0.01 h 0.01 0.01 v -0.01 -0.01 l 0.01,-0.01 0.01,-0.02 V 62.7 62.69 l 0.01,-0.02 v 0 l 0.03,-0.01 v 0 0.02 h 0.02 v 0.02 0 0.02 0.01 0.02 l 0.01,0.03 0.01,0.01 v 0.01 l 0.05,-0.02 0.07,-0.02 0.04,-0.01 h 0.06 V 62.73 62.7 62.68 62.66 l -0.02,-0.04 V 62.6 62.58 l 0.01,-0.03 0.01,-0.03 0.01,-0.02 0.03,-0.01 h 0.01 v 0.01 l 0.01,0.02 0.02,0.01 h 0.03 l 0.02,-0.01 0.01,-0.01 0.02,-0.03 0.02,-0.02 h 0.04 l 0.05,-0.03 0.03,-0.02 h 0.01 l 0.02,0.02 0.01,0.02 v 0.02 l -0.01,0.01 0.02,0.01 h 0.02 l 0.02,0.01 0.02,-0.01 0.06,-0.02 0.14,-0.05 0.05,-0.01 v 0.01 l 0.01,0.01 v 0.02 l -0.01,0.02 -0.02,0.02 -0.07,0.02 -0.09,0.03 v 0.02 0.04 l -0.01,0.04 -0.01,0.03 -0.01,0.03 v 0.02 l -0.02,0.02 -0.01,0.03 0.21,0.16 v 0.01 0.01 l -0.01,0.01 -0.02,0.01 h -0.01 l -0.01,-0.02 -0.08,-0.07 -0.02,-0.01 -0.05,-0.04 -0.14,-0.12 -0.01,-0.02 -0.03,-0.03 -0.1,0.07 -0.03,0.01 -0.01,0.04 v 0.01 l -0.02,0.01 -0.01,-0.01 -0.02,-0.01 -0.01,-0.03 -0.05,0.03 h -0.03 -0.06 l -0.07,0.03 -0.03,0.01 -0.02,0.02 -0.02,0.02 -0.02,0.03 v 0.04 l -0.01,0.03 0.01,0.03 0.03,0.1 0.01,0.05 v 0.02 0.02 l -0.01,0.03 -0.02,0.04 -0.04,0.05 -0.03,0.05 -0.02,0.03 -0.01,0.02 v 0.02 0.03 l 0.03,0.01 0.03,0.01 h 0.02 l -0.03,0.07 0.03,0.01 0.02,0.01 0.07,0.07 0.09,0.08 0.09,0.09 0.08,0.07 0.03,0.03 0.03,0.01 0.03,-0.03 0.05,-0.05 0.01,-0.01 0.01,0.03 0.02,0.02 0.01,0.02 -0.04,0.05 -0.02,0.03 0.01,0.01 -0.09,0.15 -0.06,0.1 -0.06,0.09 0.02,0.05 0.01,0.05 0.03,0.1 0.01,0.03 v 0.04 l 0.01,0.02 0.02,0.04 0.03,0.04 0.01,0.04 0.02,0.05 0.01,0.04 0.02,0.05 0.02,0.03 0.02,0.05 0.01,0.03 0.02,0.05 0.02,0.02 0.03,0.02 0.03,0.02 0.01,0.01 0.06,0.04 0.05,0.03 0.12,0.02 0.05,0.03 0.11,0.05 0.03,-0.01 0.05,0.02 0.05,0.01 0.05,0.02 0.06,0.02 0.06,0.02 0.02,0.01 0.02,0.02 0.03,0.02 0.03,0.01 h 0.01 l 0.03,0.02 0.03,0.02 0.04,0.02 h 0.02 l 0.07,0.01 0.02,0.01 h 0.05 0.06 l 0.05,0.01 0.04,0.01 0.05,0.03 0.02,0.01 h 0.02 l 0.16,0.04 0.05,0.01 0.04,0.01 h 0.02 l 0.04,-0.01 0.17,-0.04 0.05,-0.01 0.03,-0.01 0.01,-0.02 0.05,-0.01 h 0.05 l 0.01,-0.01 h 0.02 l 0.02,0.02 0.04,0.01 0.06,0.05 0.04,0.03 0.04,-0.02 0.03,-0.01 0.02,-0.01 h 0.02 l 0.02,-0.01 h 0.01 l 0.02,0.01 v 0 l 0.01,0.02 0.07,-0.01 0.09,-0.01 v 0.01 l 0.07,0.01 h 0.03 l 0.03,-0.01 0.02,-0.01 0.03,-0.01 0.03,-0.02 0.03,-0.03 0.01,-0.01 -0.01,-0.01 -0.01,-0.01 -0.01,-0.02 h -0.01 v 0 l 0.01,-0.02 0.02,-0.01 0.02,-0.02 h 0.02 l 0.05,-0.02 0.04,-0.01 0.04,-0.02 0.05,-0.02 h 0.02 l 0.02,-0.01 0.02,-0.01 0.02,-0.01 v 0.02 l -0.01,0.02 -0.02,0.01 -0.02,0.02 -0.02,0.01 -0.02,0.02 h -0.01 l 0.03,0.03 0.02,0.02 0.04,-0.01 h 0.03 0.01 v 0.01 l 0.02,0.01 v 0.02 h 0.01 v 0.02 l 0.02,-0.01 v -0.01 l -0.01,-0.01 v -0.01 -0.01 l 0.01,-0.02 0.01,-0.02 0.01,-0.01 0.02,-0.02 h 0.01 v 0.03 0.02 l 0.02,0.01 0.01,0.01 v 0.02 l 0.01,0.02 0.01,0.02 -0.02,0.02 v 0.01 l 0.01,0.01 0.02,-0.02 0.01,0.02 h 0.02 v 0.01 h 0.02 0.03 l 0.01,0.01 0.02,0.01 h 0.02 l 0.01,0.02 0.02,-0.01 0.01,-0.02 0.01,-0.02 0.02,-0.01 0.02,0.01 -0.02,0.02 -0.02,0.02 -0.02,0.02 -0.02,0.02 v 0.01 l 0.01,0.01 h 0.01 0.03 l 0.02,-0.01 -0.01,0.02 v 0.02 h 0.02 v 0.01 0.02 l 0.01,0.02 0.01,0.02 v 0.02 l 0.02,0.02 v 0.03 l 0.03,-0.01 0.1,0.02 0.13,0.03 h 0.01 l 0.09,0.01 0.1,0.15 0.22,0.13 0.25,0.11 0.41,-0.19 0.11,-0.06 0.36,0.51 0.08,0.26 0.01,0.04 0.01,0.03 0.02,0.06 0.22,0.17 0.18,0.34 0.17,0.15 0.33,0.26 0.3,0.1 0.04,0.02 0.39,0.1 0.31,0.09 0.22,0.08 0.29,0.1 0.22,0.05 0.29,0.05 0.27,-0.01 0.26,-0.05 0.32,-0.09 0.3,-0.12 0.54,-0.15 0.29,-0.11 0.3,-0.09 0.2,-0.04 h 0.11 0.02 l 0.09,0.02 0.08,0.04 0.06,0.06 0.03,0.08 0.03,0.1 -0.01,0.1 -0.02,0.09 -0.05,0.1 -0.06,0.11 -0.07,0.11 -0.02,0.05 -0.01,0.04 v 0.04 l -0.01,0.06 v 0.05 l 0.01,0.06 0.03,0.12 0.09,0.23 0.07,0.13 0.17,0.37 0.06,0.13 0.05,0.11 0.05,0.07 0.14,0.16 0.09,0.11 0.13,0.13 0.1,0.08 0.1,0.08 0.05,0.08 0.04,0.09 0.02,0.1 0.02,0.13 -0.01,0.13 -0.14,0.45 -0.05,0.16 -0.08,0.33 -0.07,0.25 -0.05,0.23 -0.02,0.1 0.01,0.16 0.01,0.19 0.02,0.17 0.07,0.29 0.04,0.11 0.17,0.55 0.06,0.23 0.04,0.17 0.06,0.42 v 0.15 0.22 l -0.03,0.13 -0.03,0.13 -0.01,0.11 0.01,0.08 0.01,0.03 0.04,0.05 0.07,0.04 -0.02,0.06 h -0.01 l -0.01,0.02 h -0.01 l -0.02,0.01 -0.01,0.01 v 0.01 l -0.01,0.02 h -0.02 -0.02 l -0.01,0.02 -0.01,0.02 -0.03,0.03 -0.01,0.02 v 0.01 l -0.02,0.04 v 0.03 0.05 0.04 0.05 0.04 0.03 0.03 l -0.01,0.02 -0.01,0.03 -0.01,0.03 -0.01,0.03 -0.03,0.05 -0.01,0.03 -0.03,0.03 h -0.02 l -0.03,0.01 -0.03,0.01 h -0.03 -0.03 -0.04 l -0.06,-0.01 -0.03,0.01 -0.03,0.01 h -0.04 l -0.03,0.01 h -0.05 l -0.04,-0.01 -0.06,-0.01 h -0.06 l -0.05,0.01 -0.02,0.01 -0.03,0.02 -0.03,0.02 -0.03,0.02 -0.05,0.01 h -0.04 l -0.04,0.01 -0.1,-0.01 -0.06,0.04 -0.07,0.04 -0.06,0.01 h -0.04 l -0.1,-0.03 -0.05,-0.02 h -0.04 -0.04 -0.04 v 0.01 l -0.01,0.01 -0.06,0.15 -0.02,0.07 -0.04,0.08 -0.07,0.19 -0.04,0.09 v 0.01 0 l -0.08,0.23 -0.09,0.25 -0.3,0.33 -0.19,-0.01 h -0.01 l -0.08,-0.01 h -0.02 l -0.41,-0.02 h -0.1 l -0.35,-0.04 -0.48,0.18 -0.04,-0.01 -0.17,-0.03 v -0.28 h 0.03 l 0.02,-0.01 0.03,-0.01 -0.01,-0.02 v 0 l -0.02,-0.01 -0.02,-0.01 0.02,-0.04 0.03,-0.04 0.03,-0.02 -0.5,-0.33 -0.07,-0.05 -0.08,-0.05 -0.07,-0.05 h -0.03 l -0.01,-0.01 -0.03,-0.01 -0.04,-0.02 -0.04,-0.02 -0.03,-0.03 -0.02,-0.03 v -0.01 l -0.39,-0.4 -0.16,-0.16 h -0.03 l -0.5,0.02 -0.01,-0.13 V 76.5 l 0.03,-0.03 0.06,-0.09 0.09,-0.19 0.02,-0.04 0.02,-0.03 0.02,-0.05 0.02,-0.03 0.14,-0.09 0.06,-0.11 0.08,-0.12 -0.03,-0.04 -0.02,-0.02 -0.01,-0.02 -0.03,-0.03 -0.04,-0.04 -0.02,-0.04 -0.01,-0.01 -0.12,-0.23 -0.02,-0.1 0.01,-0.14 0.01,-0.06 0.01,-0.16 0.01,-0.11 v -0.06 -0.03 l -0.02,-0.03 -0.01,-0.03 -0.02,-0.04 -0.08,-0.09 -0.04,-0.04 -0.05,-0.06 -0.04,-0.02 -0.02,-0.01 -0.03,-0.02 -0.01,-0.02 v -0.01 l -0.05,-0.07 -0.03,-0.06 -0.02,-0.03 h -0.01 l -0.03,-0.03 -0.08,-0.04 -0.06,-0.02 h -0.02 -0.08 l -0.04,0.01 -0.03,-0.01 -0.06,-0.05 -0.08,-0.06 -0.06,-0.07 -0.07,-0.07 -0.05,-0.03 -0.03,-0.03 -0.03,-0.03 -0.02,-0.04 -0.03,-0.06 v -0.02 l -0.01,-0.02 -0.03,-0.03 -0.08,-0.08 -0.02,-0.04 -0.02,-0.03 -0.06,-0.11 -0.05,-0.06 -0.03,-0.04 -0.02,-0.03 -0.02,-0.01 -0.11,-0.16 -0.12,-0.45 -0.2,-0.24 -0.04,-0.13 -0.03,-0.03 -0.09,-0.13 -0.05,-0.07 -0.02,-0.04 -0.01,-0.05 -0.01,-0.04 0.01,-0.05 v -0.09 l 0.02,-0.04 0.02,-0.05 0.03,-0.06 0.02,-0.04 v -0.04 l 0.01,-0.02 v -0.13 l 0.01,-0.1 0.01,-0.08 0.02,-0.09 0.02,-0.05 0.01,-0.03 0.03,-0.05 0.01,-0.02 0.02,-0.02 0.09,-0.15 0.01,-0.01 0.02,-0.03 0.03,-0.07 -0.01,-0.02 -0.02,-0.03 -0.01,-0.03 -0.03,-0.04 -0.05,-0.06 -0.1,-0.11 -0.05,-0.05 -0.04,-0.04 -0.11,-0.09 -0.09,-0.07 -0.06,-0.04 -0.03,-0.02 -0.06,-0.05 -0.08,-0.07 -0.04,-0.05 -0.03,-0.03 -0.02,-0.02 -0.06,-0.08 -0.03,-0.02 -0.01,-0.02 -0.02,-0.02 h -0.01 l -0.01,-0.02 -0.02,-0.02 -0.02,-0.01 -0.02,-0.02 -0.03,-0.02 -0.04,-0.04 -0.03,-0.03 -0.04,0.03 -0.03,0.02 -0.01,-0.01 -0.01,-0.01 -0.01,-0.01 -0.04,-0.03 -0.03,-0.02 0.02,-0.03 -0.08,-0.04 -0.04,0.05 -0.04,0.05 -0.05,0.04 -0.04,0.04 -0.1,0.06 -0.02,-0.06 -0.1,0.03 -0.05,-0.02 -0.18,-0.1 -0.09,-0.06 -0.04,0.05 -0.12,-0.02 -0.05,-0.16 -0.11,-0.22 -0.05,-0.03 -0.15,0.12 -0.25,0.24 -0.14,0.14 -0.14,-0.21 -0.03,-0.03 -0.02,-0.01 -0.1,0.05 -0.07,0.03 -0.05,0.04 -0.03,0.01 -0.02,0.01 h -0.03 l -0.06,0.01 h -0.08 l -0.04,0.01 h -0.02 l -0.08,0.02 -0.19,0.02 -0.05,-0.02 -0.03,0.09 -0.06,0.16 -0.03,0.06 -0.02,0.06 -0.01,0.04 -0.01,0.01 -0.3,-0.01 -0.18,-0.01 -0.12,-0.04 -0.04,-0.02 -0.02,-0.05 -0.05,-0.03 -0.18,-0.12 -0.18,0.05 -0.06,-0.03 -0.1,-0.08 -0.08,-0.1 -0.03,-0.01 -0.07,-0.07 -0.02,-0.02 -0.12,-0.05 -0.15,0.01 -0.1,-0.14 -0.1,-0.01 -0.05,-0.04 h -0.06 l -0.13,-0.13 -0.03,-0.01 v 0.01 l -0.03,0.04 -0.04,-0.03 -0.02,-0.01 0.03,-0.03 0.01,-0.02 0.01,-0.08 0.01,-0.03 -0.02,-0.01 -0.07,-0.04 -0.03,-0.01 -0.02,-0.01 -0.01,-0.02 -0.02,-0.02 -0.02,-0.05 -0.03,-0.07 -0.03,-0.06 -0.03,-0.04 -0.02,-0.02 -0.02,-0.01 -0.03,-0.02 -0.04,-0.01 -0.06,-0.02 h -0.05 l -0.04,-0.01 -0.04,-0.02 -0.04,-0.01 -0.03,-0.02 h -0.01 -0.02 l -0.02,-0.01 -0.03,-0.01 -0.05,-0.03 -0.05,-0.04 -0.04,-0.03 v -0.01 l -0.02,-0.03 -0.01,-0.02 -0.01,-0.04 -0.01,-0.02 0.01,-0.02 V 68 l 0.02,-0.02 0.02,-0.04 0.02,-0.04 0.01,-0.02 0.02,-0.01 0.01,-0.02 0.02,-0.05 0.02,-0.03 0.01,-0.03 v -0.03 l 0.02,-0.03 0.01,-0.04 0.03,-0.05 0.01,-0.03 0.01,-0.05 0.04,-0.09 0.09,-0.08 0.08,-0.08 0.1,-0.08 0.1,-0.06 0.11,-0.09 0.11,-0.06 0.1,-0.08 0.07,-0.1 0.07,-0.08 0.07,-0.08 0.09,-0.09 0.05,-0.04 0.05,-0.04 0.14,-0.11 0.14,-0.08 0.08,-0.07 0.05,-0.05 0.03,-0.07 0.04,-0.07 0.03,-0.07 v -0.05 -0.08 -0.1 -0.16 l -0.01,-0.15 v -0.15 l 0.01,-0.06 0.02,-0.05 0.03,-0.05 0.04,-0.08 -0.02,-0.01 -0.03,-0.01 -0.01,-0.01 h -0.02 l -0.01,-0.01 -0.02,-0.01 -0.01,-0.02 -0.02,-0.02 -0.02,-0.03 -0.02,-0.03 -0.01,-0.03 -0.02,-0.05 -0.01,-0.08 -0.01,-0.05 -0.01,-0.05 v -0.03 l -0.02,-0.11 v -0.08 -0.02 -0.01 l -0.01,-0.05 v -0.04 l -0.01,-0.03 -0.02,-0.04 -0.01,-0.03 -0.03,-0.03 -0.02,-0.03 -0.03,-0.03 -0.07,-0.06 -0.03,-0.04 -0.02,-0.02 -0.02,-0.04 -0.04,-0.08 -0.05,-0.11 -0.04,-0.08 -0.02,-0.06 -0.02,-0.03 -0.03,-0.04 -0.03,-0.03 -0.03,-0.03 -0.02,-0.03 -0.04,-0.02 -0.04,-0.02 -0.04,-0.02 -0.03,-0.02 h -0.03 l -0.02,-0.01 -0.02,-0.01 h -0.03 -0.01 l -0.05,-0.07 -0.01,-0.01 0.01,-0.02 v -0.01 z"
       id="path90"
       inkscape:connector-curvature="0" />
  </g>
</svg>
