<?xml version="1.0" encoding="UTF-8" standalone="no"?>
<svg
   xmlns:dc="http://purl.org/dc/elements/1.1/"
   xmlns:cc="http://creativecommons.org/ns#"
   xmlns:rdf="http://www.w3.org/1999/02/22-rdf-syntax-ns#"
   xmlns:svg="http://www.w3.org/2000/svg"
   xmlns="http://www.w3.org/2000/svg"
   xmlns:sodipodi="http://sodipodi.sourceforge.net/DTD/sodipodi-0.dtd"
   xmlns:inkscape="http://www.inkscape.org/namespaces/inkscape"
   version="1.2"
   width="800"
   height="642"
   viewBox="0 0 800 642"
   stroke-linecap="round"
   stroke-linejoin="round"
   id="svg115"
   sodipodi:docname="Zigoitia.svg"
   inkscape:version="0.92.5 (2060ec1f9f, 2020-04-08)">
  <metadata
     id="metadata121">
    <rdf:RDF>
      <cc:Work
         rdf:about="">
        <dc:format>image/svg+xml</dc:format>
        <dc:type
           rdf:resource="http://purl.org/dc/dcmitype/StillImage" />
      </cc:Work>
    </rdf:RDF>
  </metadata>
  <defs
     id="defs119" />
  <sodipodi:namedview
     pagecolor="#ffffff"
     bordercolor="#666666"
     borderopacity="1"
     objecttolerance="10"
     gridtolerance="10"
     guidetolerance="10"
     inkscape:pageopacity="0"
     inkscape:pageshadow="2"
     inkscape:window-width="1848"
     inkscape:window-height="1016"
     id="namedview117"
     showgrid="false"
     inkscape:zoom="1.470405"
     inkscape:cx="400"
     inkscape:cy="321"
     inkscape:window-x="72"
     inkscape:window-y="27"
     inkscape:window-maximized="1"
     inkscape:current-layer="svg115" />
  <g
     id="Zigoitia"
     transform="matrix(7.6242883,0,0,7.6242883,-1258.0848,-1366.127)">
    <path
       d="m 194.19,208.37 0.22,0.17 0.29,0.2 0.2,0.14 0.17,0.07 0.04,0.04 0.06,0.01 0.06,0.02 0.19,0.03 h 0.36 l 0.38,0.02 0.2,-0.09 0.45,-0.17 0.2,-0.09 h 0.19 l 0.45,-0.07 0.23,-0.09 0.85,-0.08 0.16,0.25 1.65,0.36 0.13,-0.05 0.32,-0.24 0.74,-1.88 0.34,-0.43 0.25,-0.03 0.29,-0.01 0.4,0.01 0.22,-0.03 0.16,-0.1 0.22,-0.1 0.25,0.15 0.22,0.22 0.14,0.1 0.11,0.15 0.12,0.24 0.05,0.12 v 0.41 l 0.07,0.1 0.38,0.34 0.1,0.16 0.03,0.13 0.08,0.17 0.01,0.08 0.12,0.28 0.08,0.28 0.1,0.28 0.1,0.24 0.08,0.06 0.17,0.07 0.18,0.05 0.09,0.03 0.09,0.02 0.1,0.02 0.09,0.04 0.11,0.06 0.04,0.04 0.05,0.08 0.04,0.02 h 0.06 l 0.09,-0.03 h 0.02 0.06 l 0.03,0.01 0.09,-0.02 0.18,-0.06 0.09,-0.01 0.06,0.01 0.12,-0.04 0.05,-0.02 0.11,-0.08 0.09,-0.04 0.08,-0.06 0.25,-0.13 0.06,-0.06 0.07,-0.06 0.22,-0.18 0.16,-0.1 0.17,-0.08 0.17,-0.06 0.21,-0.12 0.05,-0.02 0.07,-0.06 0.06,-0.06 0.04,-0.1 0.03,-0.08 0.03,-0.09 0.07,-0.07 0.07,-0.04 0.17,-0.09 0.09,-0.05 0.07,-0.07 0.16,-0.19 0.05,-0.04 0.38,-0.24 0.35,-0.22 0.08,-0.04 0.19,-0.04 0.1,-0.02 h 0.18 l 0.1,-0.01 h 0.14 0.05 l 0.24,0.07 0.13,0.03 h 0.08 l 0.09,0.01 0.09,0.03 0.08,0.07 0.07,0.05 0.04,0.02 0.14,0.01 0.21,-0.05 0.05,-0.01 0.12,0.03 0.08,0.04 0.07,0.03 0.04,0.01 0.07,-0.01 0.48,-0.29 0.26,-0.14 0.09,-0.03 0.09,-0.01 0.09,0.03 0.06,0.08 0.07,0.07 0.04,0.07 0.05,0.13 0.01,0.08 0.03,0.08 0.05,0.07 0.05,0.09 0.04,0.1 0.01,0.15 -0.01,0.1 0.08,0.05 0.4,0.23 0.08,0.06 0.18,0.15 0.23,0.16 0.1,0.03 0.08,0.02 0.06,0.03 0.03,0.02 0.01,0.05 0.08,0.45 0.03,0.04 0.06,0.04 0.23,0.13 0.09,0.05 0.08,0.05 0.13,0.09 0.12,0.1 0.09,0.09 0.1,0.1 0.11,0.11 0.15,0.26 0.06,0.06 0.08,0.04 0.09,0.06 0.13,0.05 0.08,0.02 h 0.11 0.09 l 0.13,-0.03 0.08,-0.02 0.09,-0.05 0.08,-0.05 0.08,-0.07 0.05,-0.07 0.07,-0.06 0.06,-0.07 0.06,-0.06 0.12,-0.15 0.03,-0.06 h 0.15 l 0.06,0.01 0.02,0.04 0.03,0.08 0.04,0.08 0.03,0.09 0.02,0.09 0.01,0.09 0.02,0.1 v 0.08 l 0.01,0.02 0.02,0.04 0.03,0.27 0.05,0.08 0.16,0.27 0.14,0.41 0.06,0.28 0.02,0.35 -0.15,0.33 -0.17,0.32 -0.07,0.24 -0.02,0.32 0.03,0.37 0.02,0.28 0.1,0.36 0.17,0.41 0.19,0.29 0.27,0.28 0.29,0.22 0.25,0.37 0.22,0.34 0.26,0.5 0.26,0.42 0.29,0.56 0.3,0.61 0.14,0.55 -0.09,0.52 -0.03,0.4 -0.03,0.38 0.09,0.36 0.04,0.4 -0.01,0.4 -0.1,0.39 -0.13,0.4 -0.17,0.31 -0.24,0.32 -0.15,0.27 -0.05,0.33 0.03,0.33 0.04,0.39 v 0.35 l -0.03,0.26 -0.03,0.29 -0.07,0.26 -0.03,0.26 0.06,0.29 v 0.25 l -0.15,0.14 -0.3,0.1 -0.24,0.04 -0.15,0.16 -0.05,0.26 0.03,0.29 0.01,0.24 0.01,0.22 -0.14,0.17 -0.27,0.07 -0.27,0.07 -0.18,0.08 -0.08,0.24 -0.01,0.22 0.09,0.3 0.1,0.32 0.1,0.31 0.11,0.33 0.15,0.29 0.1,0.27 0.11,0.24 0.86,0.61 0.39,0.3 0.13,0.22 0.08,0.15 -0.13,0.34 -0.14,0.32 -0.13,0.29 -0.16,0.29 -0.14,0.25 -0.1,0.33 -0.02,0.39 -0.02,0.21 0.04,0.23 h -0.01 l -0.06,0.37 -0.04,0.38 -0.05,0.43 0.03,0.32 0.01,0.34 -0.14,0.32 -0.25,0.25 -0.3,0.09 -0.35,0.02 -0.32,0.07 -0.28,0.06 -0.09,0.26 0.01,0.27 -0.06,0.36 0.03,0.31 0.02,0.3 -0.01,0.29 -0.31,0.32 -0.36,0.16 -0.25,0.21 -0.27,0.32 -0.1,0.44 -0.03,0.4 0.07,0.26 0.39,0.21 0.43,0.21 0.45,0.2 0.36,0.2 0.32,0.13 0.34,0.22 -0.33,0.63 -0.48,0.58 -0.33,0.41 -0.22,0.34 -0.04,0.32 0.03,0.32 0.05,0.32 0.06,0.36 0.09,0.42 0.09,0.32 0.06,0.16 0.16,0.11 0.34,0.1 0.28,0.12 0.02,0.37 -0.04,0.36 -0.08,0.35 -0.06,0.25 0.24,0.27 0.29,0.23 0.35,0.29 0.23,0.22 0.24,0.18 0.22,0.47 0.11,0.44 0.08,0.33 0.08,0.38 0.07,0.35 0.04,0.27 -0.56,0.79 -0.34,0.52 -0.28,0.37 -0.33,0.34 -0.38,0.29 -0.44,0.21 -0.51,0.13 -0.54,0.09 -0.52,0.01 -0.56,0.02 h -0.51 l -0.46,0.02 -0.32,-0.01 -0.13,0.11 -0.3,0.37 -0.15,0.49 -0.32,0.04 -0.27,0.43 -0.25,0.35 -0.27,0.14 -0.28,-0.05 -0.21,0.05 0.08,0.24 0.04,0.31 -0.05,0.21 -0.24,0.13 -0.22,-0.35 -0.16,-0.36 -0.31,-0.25 -0.35,0.04 -0.59,-0.3 -0.38,-0.09 -0.4,-0.14 -0.3,-0.08 -0.51,0.04 -0.6,0.03 -0.57,0.07 -0.64,-0.01 -0.56,-0.01 -0.55,-0.05 -0.56,-0.17 -0.39,-0.18 -0.47,-0.08 -0.51,-0.12 -0.32,-0.24 -0.29,-0.34 -0.29,-0.3 -0.31,-0.09 -0.36,-0.06 -0.4,-0.14 -0.41,-0.5 -0.24,-0.5 -0.38,-0.31 -0.41,-0.18 -0.7,-0.25 -0.64,-0.14 -0.6,-0.09 -0.49,-0.15 -0.36,-0.06 -0.18,-0.1 -0.47,0.16 -0.33,-0.11 -0.36,-0.35 -0.24,-0.25 -0.34,-0.28 -0.28,0.3 -0.04,0.38 0.19,0.32 0.01,0.28 -0.24,0.12 -0.46,-0.23 -0.53,-0.39 -0.54,-0.29 -0.63,-0.35 -0.7,-0.3 -0.59,-0.26 -0.74,-0.5 -0.56,-0.4 -0.46,-0.4 -0.47,-0.41 -0.27,-0.42 0.02,-0.5 0.19,-0.52 0.22,-0.42 0.18,-0.36 -0.03,-0.34 -0.4,-0.48 -0.28,-0.31 -0.69,-2.46 0.06,-0.86 0.17,-0.53 0.11,-0.58 -0.14,-0.55 -0.14,-0.58 0.02,-0.42 0.32,-0.61 0.31,-0.59 0.43,-0.51 0.61,-0.54 0.61,-0.38 0.52,-0.09 0.46,-0.09 0.35,-0.25 0.28,-0.5 0.32,-0.51 0.28,-0.36 0.18,-0.35 -0.39,-0.95 -0.34,-0.86 -0.28,-0.76 -0.27,-0.89 -0.2,-0.8 -0.11,-0.69 -0.23,-0.66 -0.31,-0.85 -0.23,-0.97 -0.14,-0.65 -0.12,-0.67 -0.02,-0.7 0.14,-0.85 0.21,-0.86 0.28,-0.65 0.29,-0.82 0.16,-0.73 0.16,-0.61 0.06,-0.53 -0.01,-0.45 -0.08,-0.44 0.07,-0.65 0.05,-0.49 -0.01,-0.44 0.01,-0.52 -0.01,-0.48 -0.02,-0.54 0.01,-0.5 -0.04,-0.63 0.01,-0.5 -0.01,-0.5 -0.04,-0.5 v -0.49 -0.52 l 0.08,-0.41 0.15,-0.4 0.18,-0.33 0.22,-0.38 0.22,-0.36 0.11,-0.41 -0.09,-0.37 -0.05,-0.36 -0.05,-0.41 v -0.34 l 0.05,-0.34 z"
       id="path112"
       inkscape:connector-curvature="0" />
  </g>
</svg>
