<?xml version="1.0" encoding="UTF-8" standalone="no"?>
<svg
   xmlns:dc="http://purl.org/dc/elements/1.1/"
   xmlns:cc="http://creativecommons.org/ns#"
   xmlns:rdf="http://www.w3.org/1999/02/22-rdf-syntax-ns#"
   xmlns:svg="http://www.w3.org/2000/svg"
   xmlns="http://www.w3.org/2000/svg"
   xmlns:sodipodi="http://sodipodi.sourceforge.net/DTD/sodipodi-0.dtd"
   xmlns:inkscape="http://www.inkscape.org/namespaces/inkscape"
   version="1.2"
   width="800"
   height="642"
   viewBox="0 0 800 642"
   stroke-linecap="round"
   stroke-linejoin="round"
   id="svg137"
   sodipodi:docname="Ziortza-Bolibar.svg"
   inkscape:version="0.92.5 (2060ec1f9f, 2020-04-08)">
  <metadata
     id="metadata143">
    <rdf:RDF>
      <cc:Work
         rdf:about="">
        <dc:format>image/svg+xml</dc:format>
        <dc:type
           rdf:resource="http://purl.org/dc/dcmitype/StillImage" />
      </cc:Work>
    </rdf:RDF>
  </metadata>
  <defs
     id="defs141" />
  <sodipodi:namedview
     pagecolor="#ffffff"
     bordercolor="#666666"
     borderopacity="1"
     objecttolerance="10"
     gridtolerance="10"
     guidetolerance="10"
     inkscape:pageopacity="0"
     inkscape:pageshadow="2"
     inkscape:window-width="1848"
     inkscape:window-height="1016"
     id="namedview139"
     showgrid="false"
     inkscape:zoom="1.0397333"
     inkscape:cx="400"
     inkscape:cy="321"
     inkscape:window-x="72"
     inkscape:window-y="27"
     inkscape:window-maximized="1"
     inkscape:current-layer="svg137" />
  <g
     id="Ziortza-Bolibar"
     transform="matrix(17.771661,0,0,17.771661,-4122.3066,-1899.5583)">
    <path
       d="m 255.41,113.26 0.17,0.04 0.2,0.19 0.34,0.21 0.16,0.09 h 0.18 l 0.93,0.15 0.47,-0.16 0.49,-0.09 0.71,-0.15 0.33,0.15 0.39,0.18 0.14,0.11 0.5,0.17 0.57,0.16 0.39,0.13 0.06,0.02 0.92,0.2 0.38,-0.13 0.21,-0.13 0.01,-0.01 0.07,0.1 0.13,0.41 0.08,0.18 0.04,0.01 0.27,0.2 0.1,0.08 0.1,0.05 0.05,0.03 0.02,0.03 0.06,0.07 0.13,0.18 0.05,0.09 0.12,0.12 0.23,0.04 0.19,0.02 0.04,0.01 0.14,0.05 0.12,0.03 0.16,0.06 0.15,0.03 0.01,0.05 0.14,0.05 0.13,0.04 0.08,0.05 0.13,0.04 -0.02,0.05 -0.09,0.18 -0.09,0.13 -0.26,0.28 -0.25,0.21 -0.03,0.13 -0.02,0.59 -0.04,0.09 -0.19,0.19 -0.13,0.19 -0.06,0.24 -0.01,0.46 -0.16,0.3 -0.14,0.38 -0.07,0.45 -0.09,0.26 v 0.13 l 0.09,0.06 0.18,0.2 0.19,0.31 0.17,0.15 0.01,0.15 -0.07,0.23 -0.03,0.11 0.08,0.36 -0.03,0.2 -0.08,0.16 -0.2,0.23 -0.05,0.16 0.24,0.36 0.01,0.08 -0.15,0.96 -0.1,0.18 -0.06,0.36 -0.16,0.29 -0.03,0.22 -0.32,0.79 -0.26,0.27 -0.07,0.22 -0.23,0.1 -0.27,0.32 -0.04,0.36 0.13,0.33 -0.07,0.13 -0.19,0.22 -0.1,0.23 -0.13,0.21 -0.08,0.09 -0.27,0.17 -0.07,0.33 -0.01,0.26 -0.03,0.09 -0.09,0.17 v 0.13 l -0.85,-0.37 -0.73,0.02 -0.47,0.16 -0.7,0.01 -0.47,0.16 -0.6,-0.21 -1.81,-0.47 -0.93,0.77 -0.01,0.01 -0.13,0.12 -1.16,1 -0.1,0.08 -0.23,0.35 -0.08,0.3 -0.02,0.06 -0.03,0.06 -0.12,0.17 -0.1,0.08 -0.16,0.04 -3.44,2.45 -1.12,-1.28 -0.88,-0.58 -0.61,-0.52 -0.51,-0.56 -0.2,-0.21 -0.71,-0.87 0.25,-0.37 0.04,-0.05 0.01,-0.02 0.09,-0.2 2.57,-5 0.01,-0.02 -0.01,-0.17 0.27,-0.35 0.06,-0.1 0.09,-0.19 0.08,-0.15 0.41,-0.34 0.18,-0.11 0.1,-0.09 0.59,-0.85 0.1,-0.17 0.08,-0.32 0.01,-0.04 -0.01,-0.12 0.04,-0.13 0.03,-0.16 0.03,-0.11 0.42,-0.42 0.08,-0.17 0.47,-0.97 0.19,-0.87 0.01,-0.01 0.08,-0.14 0.15,-0.05 0.17,-0.25 0.01,-0.01 1.04,-0.36 0.56,-0.01 0.04,-0.04 0.01,-0.01 h 0.01 0.01 0.01 l 0.01,-0.01 h 0.01 l 0.02,-0.01 h 0.02 0.01 0.01 0.02 0.02 l 0.03,-0.01 0.02,-0.01 0.01,-0.02 0.01,-0.01 0.03,-0.03 0.02,-0.02 0.01,-0.03 0.01,-0.03 0.01,-0.02 v -0.02 -0.01 l 0.12,-0.1 0.02,-0.02 v -0.01 h 0.01 v -0.02 l 0.01,-0.02 v 0 -0.02 l 0.01,-0.01 v -0.01 -0.01 -0.01 -0.02 l 0.01,-0.03 v -0.01 -0.01 -0.02 l 0.01,-0.03 v -0.02 l 0.01,-0.03 v -0.02 -0.02 -0.02 -0.01 -0.02 -0.03 -0.02 l 0.01,-0.02 v -0.02 -0.02 l 0.01,-0.03 v -0.02 -0.01 -0.01 l 0.01,-0.02 v -0.01 -0.02 l 0.01,-0.01 v -0.02 l 0.01,-0.02 v -0.01 -0.02 l 0.01,-0.02 0.01,-0.02 0.01,-0.03 v -0.01 l 0.01,-0.02 v -0.01 -0.01 l 0.01,-0.01 v -0.01 l 0.01,-0.01 v -0.01 -0.01 l 0.01,-0.02 0.01,-0.01 v -0.02 l 0.01,-0.01 v -0.02 l 0.01,-0.01 v -0.01 -0.01 -0.01 l 0.01,-0.02 v -0.01 -0.01 -0.01 l -0.01,-0.01 v -0.01 0 -0.01 l -0.01,-0.01 -0.01,-0.02 -0.01,-0.01 h -0.01 v -0.01 h -0.01 l -0.01,-0.01 h -0.01 l -0.01,-0.01 h -0.01 l -0.01,-0.01 h -0.01 l -0.02,-0.01 -0.01,-0.01 -0.01,-0.01 h -0.02 l -0.01,-0.01 -0.01,-0.01 -0.02,-0.01 -0.02,-0.01 h -0.01 l -0.02,-0.01 -0.01,-0.01 v 0 l -0.01,-0.01 -0.02,-0.01 h -0.01 l -0.01,-0.02 h -0.01 l -0.01,-0.01 -0.01,-0.01 -0.01,-0.01 -0.01,-0.01 -0.02,-0.01 v -0.01 l -0.01,-0.01 h -0.01 v -0.01 l -0.01,-0.01 v -0.01 l -0.01,-0.01 v -0.01 -0.01 l -0.01,-0.01 v -0.01 -0.02 -0.01 -0.01 l -0.01,-0.01 v -0.01 -0.02 -0.02 -0.02 l 0.01,-0.02 v -0.01 -0.01 -0.01 l 0.01,-0.01 v -0.01 0 l 0.01,-0.02 v -0.01 l 0.01,-0.01 v -0.01 l 0.01,-0.01 0.01,-0.01 0.01,-0.01 0.01,-0.01 v -0.01 l 0.01,-0.01 0.01,-0.01 v 0 l 0.01,-0.01 0.01,-0.01 0.04,-0.03 0.01,-0.01 0.01,-0.01 v -0.01 -0.01 -0.01 l 0.01,-0.01 v -0.02 -0.01 -0.01 -0.02 -0.01 -0.01 -0.02 -0.01 -0.01 -0.01 -0.01 -0.01 -0.02 -0.01 l -0.01,-0.01 v -0.02 -0.01 l -0.01,-0.01 v -0.02 l -0.01,-0.02 v -0.01 l -0.01,-0.02 v -0.02 l -0.01,-0.01 v -0.02 l -0.01,-0.01 v -0.01 l -0.01,-0.02 -0.01,-0.01 v -0.02 l -0.01,-0.01 v -0.01 l -0.01,-0.02 -0.01,-0.01 v -0.01 l -0.01,-0.02 v 0 -0.01 l -0.01,-0.01 v 0 -0.02 -0.01 0 l 0.01,-0.01 v -0.01 -0.01 l 0.01,-0.01 v -0.01 l 0.01,-0.01 v -0.01 l 0.01,-0.01 0.01,-0.01 v -0.01 l 0.02,-0.02 0.01,-0.04 0.01,-0.02 0.02,-0.03 v -0.03 l 0.01,-0.02 0.01,-0.03 0.02,-0.03 0.01,-0.01 h 0.01 v -0.01 -0.01 -0.02 l -0.01,-0.01 -0.01,-0.01 v -0.01 -0.01 l -0.01,-0.01 v -0.01 -0.01 l 0.01,-0.01 v -0.01 -0.01 -0.01 -0.01 l 0.01,-0.01 v -0.02 -0.01 -0.02 l 0.02,-0.06 0.01,-0.06 0.02,-0.07 0.01,-0.07 v -0.01 -0.02 l 0.01,-0.03 v -0.04 -0.01 -0.04 -0.02 -0.02 -0.02 l 0.01,-0.06 v -0.01 l 0.01,-0.05 0.01,-0.01 0.01,-0.05 v -0.02 l 0.01,-0.03 v -0.01 0 l 0.01,-0.02 v -0.01 l 0.01,-0.02 0.01,-0.02 0.01,-0.01 0.02,-0.02 0.01,-0.01 v -0.01 l 0.01,-0.01 0.01,-0.01 0.01,-0.01 0.01,-0.01 v -0.01 l 0.01,-0.01 0.01,-0.01 v -0.01 l 0.01,-0.01 0.01,-0.01 v -0.01 l 0.01,-0.02 v 0 l 0.01,-0.01 V 114 l 0.01,-0.01 v -0.02 l 0.01,-0.01 0.01,-0.01 v -0.02 l 0.01,-0.01 0.03,-0.06 0.01,-0.02 0.05,-0.08 0.04,-0.05 0.09,-0.12 0.01,-0.01 0.16,-0.16 0.03,-0.03 0.03,-0.02 z m -4.56,6.42 -0.07,-0.02 -0.29,-0.03 -0.09,-0.03 -0.01,-0.01 -0.02,-0.14 0.08,-0.37 0.45,-0.14 0.33,0.03 0.06,0.27 -0.14,0.2 -0.16,0.13 z"
       id="path134"
       inkscape:connector-curvature="0" />
  </g>
</svg>
