<?xml version="1.0" encoding="UTF-8" standalone="no"?>
<svg
   xmlns:dc="http://purl.org/dc/elements/1.1/"
   xmlns:cc="http://creativecommons.org/ns#"
   xmlns:rdf="http://www.w3.org/1999/02/22-rdf-syntax-ns#"
   xmlns:svg="http://www.w3.org/2000/svg"
   xmlns="http://www.w3.org/2000/svg"
   xmlns:sodipodi="http://sodipodi.sourceforge.net/DTD/sodipodi-0.dtd"
   xmlns:inkscape="http://www.inkscape.org/namespaces/inkscape"
   version="1.2"
   width="800"
   height="642"
   viewBox="0 0 800 642"
   stroke-linecap="round"
   stroke-linejoin="round"
   id="svg159"
   sodipodi:docname="Ziritza Etxauribar.svg"
   inkscape:version="0.92.5 (2060ec1f9f, 2020-04-08)">
  <metadata
     id="metadata165">
    <rdf:RDF>
      <cc:Work
         rdf:about="">
        <dc:format>image/svg+xml</dc:format>
        <dc:type
           rdf:resource="http://purl.org/dc/dcmitype/StillImage" />
      </cc:Work>
    </rdf:RDF>
  </metadata>
  <defs
     id="defs163" />
  <sodipodi:namedview
     pagecolor="#ffffff"
     bordercolor="#666666"
     borderopacity="1"
     objecttolerance="10"
     gridtolerance="10"
     guidetolerance="10"
     inkscape:pageopacity="0"
     inkscape:pageshadow="2"
     inkscape:window-width="1848"
     inkscape:window-height="1016"
     id="namedview161"
     showgrid="false"
     inkscape:zoom="1.0397333"
     inkscape:cx="400"
     inkscape:cy="321"
     inkscape:window-x="72"
     inkscape:window-y="27"
     inkscape:window-maximized="1"
     inkscape:current-layer="svg159" />
  <g
     id="Ziritza Etxauribar"
     transform="matrix(30.910117,0,0,30.910117,-13998.127,-8945.8255)">
    <path
       d="m 468.6,296.96 0.06,-0.01 0.07,-0.02 0.05,-0.01 0.07,-0.01 0.06,-0.01 0.05,-0.01 0.1,-0.01 h 0.07 l 0.09,-0.01 0.09,-0.01 0.09,-0.01 0.1,-0.01 0.15,-0.02 0.14,-0.01 0.08,-0.01 h 0.04 l 0.03,-0.01 0.02,-0.01 0.05,-0.03 0.05,-0.03 0.04,-0.03 0.04,-0.01 h 0.02 0.02 0.04 l 0.11,0.04 0.04,0.01 0.04,0.01 0.03,0.01 h 0.03 l 0.03,0.01 h 0.05 l 0.08,-0.01 h 0.08 l 0.08,-0.01 h 0.07 l 0.09,-0.01 h 0.06 l 0.07,-0.01 0.03,-0.01 0.05,-0.01 0.03,-0.02 0.03,-0.02 0.02,-0.01 0.01,-0.02 0.01,-0.02 0.02,-0.04 0.02,-0.02 0.02,-0.02 0.02,-0.01 0.04,-0.01 h 0.02 0.04 l 0.05,0.01 0.04,0.01 0.04,0.02 0.04,0.01 0.02,0.02 0.03,0.01 0.01,0.02 0.03,0.02 0.01,0.03 0.01,0.02 0.02,0.04 0.01,0.04 0.02,0.03 0.01,0.03 0.02,0.02 0.02,0.01 0.04,0.01 0.02,0.01 0.04,0.01 h 0.04 l 0.01,0.02 0.04,0.01 h 0.09 0.05 l 0.06,0.01 0.1,0.02 0.1,0.01 v 0.02 l 0.01,0.01 v 0.01 l 0.06,0.11 0.03,0.05 0.01,0.01 0.01,0.01 0.05,0.11 h 0.01 l 0.05,0.1 0.05,0.08 0.02,0.05 0.01,0.02 0.01,0.04 0.01,0.03 v 0.02 l 0.01,0.03 v 0.06 l 0.01,0.01 v 0.02 0.01 0.02 l 0.01,0.03 v 0.03 l 0.03,0.18 0.05,0.28 0.02,0.13 0.04,0.33 0.02,0.12 v 0 0.02 l 0.02,0.14 0.02,0.15 0.01,0.06 0.03,0.15 0.01,0.11 0.02,0.09 0.03,0.17 0.03,0.12 0.02,0.14 0.02,0.12 0.02,0.12 0.01,0.06 v 0.02 l 0.01,0.13 v 0.11 l 0.03,0.18 0.02,0.16 0.02,0.14 v 0.02 0.06 l 0.01,0.14 v 0.05 0.18 l 0.01,0.14 v 0.06 0.01 l 0.01,0.13 v 0.07 h -0.03 l -0.04,-0.01 -0.08,-0.03 -0.09,-0.02 -0.06,-0.02 -0.05,-0.01 -0.07,-0.01 -0.05,-0.01 -0.05,-0.01 -0.08,-0.01 -0.08,-0.03 -0.12,-0.03 -0.07,-0.02 -0.08,-0.02 -0.07,-0.03 -0.09,-0.03 -0.07,-0.02 -0.07,-0.03 -0.09,-0.04 -0.09,-0.05 -0.1,-0.05 -0.08,-0.05 -0.09,-0.05 -0.11,-0.06 -0.14,-0.07 -0.07,-0.03 -0.04,-0.02 -0.08,-0.04 -0.07,-0.04 -0.08,-0.04 -0.07,-0.05 -0.07,-0.04 -0.05,-0.04 -0.06,-0.05 -0.06,-0.06 -0.09,-0.09 -0.08,-0.08 -0.06,-0.07 -0.07,-0.08 -0.07,-0.09 -0.08,-0.11 -0.06,-0.09 -0.05,-0.08 -0.06,-0.1 -0.05,-0.12 -0.05,-0.11 -0.04,-0.1 -0.04,-0.1 -0.03,-0.07 -0.03,-0.12 -0.02,-0.07 -0.05,-0.11 -0.03,-0.09 -0.04,-0.07 -0.04,-0.05 -0.03,-0.04 -0.03,-0.02 -0.05,-0.02 -0.04,-0.01 -0.06,-0.01 -0.07,-0.01 -0.06,-0.01 -0.07,-0.01 -0.07,-0.01 h -0.06 -0.07 l -0.08,0.01 -0.07,0.01 -0.06,0.01 -0.05,0.01 -0.06,0.02 -0.06,0.03 -0.06,0.03 -0.04,0.02 -0.04,0.02 -0.05,0.02 -0.09,0.06 -0.04,0.04 -0.06,0.06 -0.04,0.05 -0.04,0.06 -0.02,0.03 -0.03,0.06 -0.01,0.06 -0.02,0.05 -0.02,0.06 -0.01,0.06 v 0.03 l -0.01,0.05 0.01,0.07 v 0.09 l 0.01,0.05 0.01,0.1 0.01,0.06 0.02,0.08 0.02,0.09 0.02,0.08 0.02,0.08 0.02,0.08 0.01,0.05 0.03,0.07 0.03,0.05 0.03,0.04 0.02,0.04 0.02,0.04 0.03,0.04 0.04,0.04 0.04,0.04 0.05,0.05 -0.06,0.06 -0.07,0.06 -0.02,0.03 h -0.01 l -0.03,0.02 -0.05,0.01 -0.06,0.01 -0.09,0.02 -0.04,0.01 -0.01,0.01 -0.04,0.02 h -0.01 l -0.12,0.05 -0.01,0.01 -0.1,0.04 -0.09,0.04 -0.02,0.01 -0.15,0.06 -0.1,0.05 h -0.04 -0.1 l -0.19,-0.01 -0.09,-0.01 h -0.02 -0.01 l -0.03,0.01 h -0.07 l -0.12,0.01 -0.11,0.02 h -0.09 l -0.05,0.01 h -0.06 l -0.09,0.01 h -0.05 -0.03 l -0.02,0.01 -0.1,0.06 -0.11,0.08 -0.11,0.07 -0.09,0.07 -0.03,0.02 h -0.01 l -0.08,-0.04 -0.11,-0.05 -0.07,-0.05 -0.09,-0.04 -0.06,-0.04 -0.03,-0.02 -0.04,-0.04 -0.03,-0.03 -0.04,-0.02 -0.04,-0.02 -0.04,-0.03 -0.06,-0.04 -0.04,-0.01 -0.05,-0.01 -0.04,-0.01 -0.14,-0.03 -0.06,-0.02 -0.06,-0.02 -0.05,-0.02 -0.04,-0.02 -0.05,-0.03 -0.05,-0.03 -0.07,-0.05 -0.05,-0.03 -0.05,-0.05 -0.05,-0.04 -0.04,-0.06 -0.05,-0.04 -0.04,-0.04 -0.07,-0.05 -0.04,-0.06 -0.02,-0.02 -0.04,-0.06 -0.05,-0.04 -0.05,-0.06 -0.07,-0.06 -0.04,-0.04 -0.04,-0.03 -0.06,-0.05 -0.05,-0.04 -0.02,-0.02 h -0.01 l -0.13,-0.12 -0.02,-0.01 -0.02,-0.01 -0.04,-0.03 -0.13,-0.07 -0.05,-0.04 -0.04,-0.02 -0.01,-0.01 h -0.02 l -0.06,-0.02 -0.09,-0.02 -0.12,-0.03 -0.1,-0.02 -0.01,-0.01 -0.13,-0.02 -0.13,-0.03 -0.12,-0.03 -0.16,-0.04 -0.08,-0.02 -0.12,-0.03 -0.14,-0.03 -0.07,-0.01 -0.15,-0.01 -0.03,-0.01 -0.15,-0.01 -0.09,-0.02 -0.14,-0.02 -0.26,-0.51 -0.02,-0.09 -0.01,-0.11 -0.02,-0.08 -0.01,-0.05 -0.01,-0.1 -0.02,-0.13 v -0.09 l -0.01,-0.09 -0.01,-0.09 -0.01,-0.08 v -0.05 -0.09 l 0.02,-0.14 0.01,-0.09 0.01,-0.1 v -0.1 l 0.01,-0.08 v -0.03 l 0.02,-0.12 v -0.11 l 0.01,-0.11 0.02,-0.11 h 0.09 l 0.05,0.01 0.06,-0.06 0.04,-0.04 0.05,-0.05 0.04,-0.04 0.01,-0.01 0.03,-0.02 0.05,0.01 0.01,0.01 0.05,0.01 0.08,0.01 0.08,0.02 0.1,0.01 0.11,0.02 0.07,0.02 0.07,-0.01 0.02,-0.02 h 0.03 l 0.05,-0.01 h 0.07 l 0.07,-0.01 0.08,-0.01 h 0.06 0.09 0.06 0.04 0.02 l 0.03,0.01 h 0.05 0.02 0.07 0.09 0.09 0.09 0.08 0.05 l 0.05,-0.01 h 0.04 l 0.04,-0.01 0.03,-0.02 0.03,-0.02 0.03,-0.02 0.01,-0.02 0.02,-0.01 0.03,-0.01 0.06,-0.01 0.09,-0.02 0.03,-0.01 0.05,-0.01 0.04,-0.01 0.03,-0.01 0.07,-0.01 h 0.07 0.04 0.05 l 0.04,0.01 h 0.05 l 0.07,-0.01 0.09,-0.01 0.07,-0.02 h 0.05 0.05 0.06 0.09 0.09 0.1 l 0.09,0.01 0.07,-0.01 0.06,0.01 0.08,-0.01 0.06,0.01 0.05,0.01 h 0.07 0.04 l 0.02,0.01 0.05,0.02 0.04,0.01 0.06,0.01 0.09,0.02 0.1,0.01 h 0.03 l 0.07,-0.01 h 0.06 l 0.05,-0.01 0.07,-0.01 0.04,-0.01 0.06,-0.01 0.06,-0.01 h 0.08 l 0.07,-0.01 0.16,-0.01 0.07,-0.01 0.06,-0.01 h 0.02 0.04 l 0.04,-0.01 h 0.06 l 0.07,-0.01 h 0.06 0.03 0.03 l 0.03,0.01 h 0.03 l 0.05,0.02 0.06,0.02 0.12,0.02 0.08,0.02 0.05,0.01 h 0.04 l 0.02,0.01 0.04,0.01 0.08,0.02 h 0.02 l 0.04,0.01 0.04,0.01 0.03,0.01 0.03,0.01 0.12,0.03 0.05,0.01 0.05,-0.01 0.06,0.01 0.04,0.01 0.04,0.01 0.05,0.01 0.09,0.02 0.12,0.03 0.12,0.03 0.08,0.02 0.07,0.01 0.09,0.01 0.03,-0.06 0.01,-0.03 z"
       id="path156"
       inkscape:connector-curvature="0" />
  </g>
</svg>
