<?xml version="1.0" encoding="UTF-8" standalone="no"?>
<svg
   version="1.2"
   width="800"
   height="642"
   viewBox="0 0 800 642"
   stroke-linecap="round"
   stroke-linejoin="round"
   id="svg5"
   sodipodi:docname="Zizur.svg"
   inkscape:version="1.1.2 (b8e25be833, 2022-02-05)"
   xmlns:inkscape="http://www.inkscape.org/namespaces/inkscape"
   xmlns:sodipodi="http://sodipodi.sourceforge.net/DTD/sodipodi-0.dtd"
   xmlns="http://www.w3.org/2000/svg"
   xmlns:svg="http://www.w3.org/2000/svg">
  <defs
     id="defs9" />
  <sodipodi:namedview
     id="namedview7"
     pagecolor="#ffffff"
     bordercolor="#666666"
     borderopacity="1.0"
     inkscape:pageshadow="2"
     inkscape:pageopacity="0.0"
     inkscape:pagecheckerboard="0"
     showgrid="false"
     inkscape:zoom="1.3146417"
     inkscape:cx="399.72867"
     inkscape:cy="321.38033"
     inkscape:window-width="1848"
     inkscape:window-height="1016"
     inkscape:window-x="72"
     inkscape:window-y="1107"
     inkscape:window-maximized="1"
     inkscape:current-layer="svg5" />
  <g
     id="Zizur"
     transform="matrix(15.397866,0,0,15.397866,-7210.1228,-4465.8476)">
    <path
       d="m 509.45,297.6 0.03,-0.04 0.03,-0.04 0.03,-0.04 0.01,-0.04 0.02,-0.04 0.02,-0.04 0.01,-0.06 0.01,-0.07 0.02,-0.08 0.02,-0.07 0.02,-0.07 0.03,-0.09 0.02,-0.08 0.03,-0.08 0.02,-0.04 0.01,-0.03 0.03,-0.06 0.02,-0.03 0.03,-0.06 0.06,-0.12 0.05,-0.09 0.05,-0.1 0.05,-0.09 0.05,-0.09 0.04,-0.07 0.04,-0.08 0.01,-0.02 0.02,-0.03 v -0.01 l 0.01,-0.02 0.01,-0.01 0.03,-0.05 v -0.01 l 0.01,-0.02 0.01,-0.01 0.04,0.01 0.05,0.02 0.05,0.02 0.04,0.02 0.04,0.02 0.04,0.03 0.04,0.02 0.03,0.02 0.04,0.02 0.04,0.03 0.04,0.03 0.03,0.02 0.02,0.02 0.04,0.03 0.03,0.02 0.02,0.03 0.03,0.02 0.03,0.03 0.03,0.03 0.03,0.03 0.05,0.06 0.03,0.03 0.03,0.04 0.02,0.03 0.03,-0.03 0.03,-0.06 0.03,-0.05 0.04,-0.05 0.03,-0.06 0.03,-0.05 0.01,-0.02 h 0.01 v -0.04 l -0.01,-0.03 -0.05,-0.03 -0.07,-0.05 -0.09,-0.05 -0.03,-0.03 -0.03,-0.01 -0.05,-0.04 -0.04,-0.03 -0.03,-0.03 -0.05,-0.05 -0.01,-0.01 -0.04,-0.04 -0.02,-0.03 -0.04,-0.03 -0.06,-0.06 -0.05,-0.06 -0.05,-0.05 -0.04,-0.05 -0.05,-0.04 -0.03,-0.04 -0.03,-0.02 0.06,0.01 0.08,0.02 0.09,0.03 0.08,0.02 0.02,-0.04 0.07,-0.11 0.03,-0.05 0.08,-0.13 0.04,-0.06 0.04,-0.06 0.06,-0.03 0.06,-0.02 0.03,-0.01 0.04,-0.02 v 0 l 0.06,-0.01 0.05,-0.02 0.07,-0.01 0.07,-0.02 h 0.06 0.06 l 0.05,0.01 0.05,0.02 0.06,0.04 0.07,0.04 0.07,0.03 0.05,0.03 0.03,0.03 0.01,0.02 -0.01,0.04 -0.02,0.05 -0.02,0.04 -0.01,0.04 v 0.05 l 0.01,0.05 v 0.04 l 0.02,0.04 0.03,0.04 0.03,0.06 0.02,0.04 0.01,0.02 0.02,0.03 0.01,0.01 0.02,0.05 0.02,0.05 0.01,0.06 0.02,0.07 0.02,0.05 0.02,0.05 v 0.06 l 0.02,0.04 0.01,0.03 0.03,0.05 0.04,0.04 0.05,0.03 0.03,0.03 0.07,0.01 0.04,0.01 0.04,-0.01 0.02,-0.01 0.03,-0.02 0.01,-0.03 0.01,-0.04 0.01,-0.04 0.01,-0.05 0.02,-0.03 0.01,-0.02 0.02,-0.01 h 0.04 0.06 l 0.06,0.01 h 0.07 l 0.05,0.01 0.03,-0.01 h 0.05 0.04 l 0.06,0.01 0.06,0.01 0.03,-0.01 0.05,-0.01 0.03,-0.01 0.04,-0.01 h 0.03 l 0.04,0.01 0.03,0.01 0.03,0.01 0.02,0.03 0.04,0.05 0.02,0.04 0.01,0.02 v 0.03 0.04 l -0.02,0.04 -0.02,0.04 -0.02,0.04 -0.02,0.03 -0.04,0.02 -0.03,0.03 -0.03,0.03 -0.01,0.03 -0.02,0.04 v 0.04 0.02 0.05 l 0.02,0.04 0.01,0.05 0.01,0.03 0.01,0.04 v 0.05 0.04 l -0.01,0.03 -0.01,0.01 -0.02,0.02 -0.05,0.02 -0.04,0.02 -0.03,0.02 -0.03,0.03 -0.04,0.03 -0.03,0.03 -0.03,0.04 -0.02,0.01 v 0.02 l -0.01,0.02 -0.01,0.04 -0.02,0.04 -0.02,0.05 -0.01,0.03 0.01,0.02 0.02,0.02 h 0.02 l 0.06,0.01 h 0.05 0.05 0.03 l 0.02,0.01 0.02,0.02 0.03,0.04 0.03,0.05 0.03,0.04 0.03,0.04 0.02,0.04 0.02,0.05 0.02,0.04 0.01,0.03 0.02,0.03 0.01,0.04 0.01,0.03 v 0.04 l -0.01,0.03 -0.01,0.03 -0.01,0.02 -0.02,0.03 -0.03,0.04 -0.07,0.05 -0.02,0.01 h -0.02 l -0.17,-0.08 -0.02,0.01 -0.05,0.05 -0.06,0.04 -0.06,0.05 -0.02,0.05 -0.03,0.06 -0.04,0.06 -0.02,0.04 v 0.04 l 0.01,0.03 0.03,0.02 0.04,0.04 0.02,0.05 0.02,0.07 0.03,0.05 v 0.03 0.03 l -0.02,0.04 -0.04,0.08 -0.01,0.02 -0.01,0.02 v 0.01 l -0.01,0.02 -0.05,0.1 -0.01,0.1 0.02,0.16 0.01,0.06 -0.01,0.05 -0.05,0.11 -0.05,0.1 v 0.05 l 0.03,0.12 0.07,0.12 0.06,0.11 0.07,0.12 0.04,0.08 0.06,0.06 0.04,0.04 0.03,0.06 0.04,0.07 0.05,0.07 0.05,0.03 0.08,0.03 0.11,0.03 0.12,0.02 0.16,0.02 h 0.02 l 0.01,0.01 0.04,0.06 0.02,0.05 0.03,0.08 0.02,0.1 0.02,0.1 0.01,0.13 0.01,0.07 0.01,0.05 0.01,0.02 -0.02,0.02 -0.02,0.02 -0.17,0.2 -0.02,0.02 -0.04,0.04 -0.38,0.73 -0.36,0.55 v 0.01 l -0.01,0.01 -0.02,-0.01 -0.02,-0.01 -0.22,-0.08 -0.64,-0.16 -0.07,-0.04 -0.8,0.44 -0.16,0.08 -0.04,0.03 h -0.02 l -0.2,0.12 -0.31,0.17 -0.29,0.43 -0.15,1.15 -0.27,0.77 -0.05,0.17 -0.06,0.18 -0.08,0.29 -0.11,-0.19 -0.06,-0.07 -0.04,-0.02 -0.04,-0.03 -0.1,-0.08 -0.01,-0.01 -0.01,-0.01 -0.01,-0.01 -0.48,-0.15 -0.42,-0.1 -0.17,-0.04 -0.09,-0.3 -0.01,-0.2 -0.01,-0.17 -0.05,-0.12 -0.01,-0.01 -0.05,-0.03 -0.09,-0.07 -0.09,-0.11 v -0.01 l -0.04,-0.28 -0.02,-0.05 -0.01,-0.01 -0.02,-0.03 h -0.01 -0.03 v -0.01 l -0.51,-0.02 h -0.07 -0.02 l -0.47,-0.02 -0.13,-0.08 -0.06,-0.01 -0.19,-0.02 -0.01,0.01 -0.06,0.01 -0.04,-0.16 -0.05,-0.24 -0.05,-0.19 -0.03,-0.18 v -0.01 l 0.07,0.01 h 0.03 l 0.02,-0.01 0.02,-0.02 0.07,-0.08 0.07,-0.1 0.09,-0.11 0.01,-0.04 0.04,-0.02 0.11,-0.13 0.04,-0.04 0.01,-0.02 0.03,-0.02 0.02,-0.02 0.02,-0.02 0.02,-0.02 0.1,-0.1 0.09,-0.09 0.04,-0.04 0.02,-0.01 0.02,-0.02 0.03,-0.02 h 0.02 l 0.07,-0.06 0.06,-0.06 0.07,-0.05 0.11,-0.09 0.16,-0.14 0.07,-0.06 0.07,-0.06 0.15,-0.13 -0.03,-0.05 -0.02,-0.01 -0.05,-0.07 -0.01,-0.02 0.03,-0.06 0.03,-0.04 v -0.04 0 -0.02 l -0.01,-0.01 v -0.02 l -0.01,-0.01 v -0.01 l -0.01,-0.01 -0.01,-0.02 v 0 l -0.01,-0.02 -0.01,-0.01 v -0.01 l -0.01,-0.01 v -0.01 l -0.01,-0.01 -0.01,-0.01 v -0.01 -0.01 l -0.01,-0.01 -0.01,-0.05 v -0.05 l -0.01,-0.06 -0.01,-0.04 -0.02,-0.34 -0.15,-0.14 -0.06,-0.09 -0.02,-0.03 0.03,-0.09 0.02,-0.07 v -0.02 h 0.01 l 0.01,-0.05 v -0.01 l 0.01,-0.06 0.03,-0.12 -0.09,-0.08 -0.13,-0.12 0.02,-0.05 v -0.02 l -0.01,-0.01 v 0 l -0.02,-0.03 -0.03,-0.02 -0.05,-0.04 h -0.01 l -0.03,-0.01 v -0.06 l 0.01,-0.25 v -0.02 l 0.03,-0.09 0.03,-0.06 v -0.03 l 0.03,-0.08 0.01,-0.01 0.01,-0.03 0.02,-0.05 0.02,-0.08 0.03,-0.11 0.03,-0.1 0.03,-0.09 0.04,-0.11 0.04,-0.13 0.04,-0.11 0.03,-0.1 0.03,-0.08 0.02,-0.06 0.07,0.02 0.09,0.02 0.07,0.02 0.05,-0.02 0.05,-0.02 0.07,-0.03 -0.01,-0.03 -0.01,-0.05 v -0.07 l -0.01,-0.09 v -0.07 l -0.01,-0.04 v -0.02 -0.01 -0.04 l -0.01,-0.05 v -0.06 l 0.01,-0.03 0.04,0.03 0.07,0.06 0.07,0.07 0.02,0.01 0.03,0.04 0.04,0.03 0.02,0.02 0.08,0.07 0.06,0.03 0.08,0.03 0.08,0.05 0.06,0.03 0.05,0.02 0.01,0.02 0.03,0.01 0.02,0.01 0.05,0.03 0.08,0.03 0.06,0.03 0.04,0.03 0.02,0.03 0.05,0.06 0.04,0.04 0.03,0.04 0.05,0.03 0.07,0.03 0.06,0.01 0.04,0.02 0.05,0.02 0.04,0.03 0.06,0.04 0.03,0.02 0.04,0.03 0.2,0.14 0.09,0.06 0.01,0.01 0.01,0.01 v -0.02 -0.01 -0.06 l 0.01,-0.11 v -0.13 l 0.01,-0.09 v -0.02 -0.02 -0.06 -0.08 -0.03 -0.02 -0.01 -0.03 -0.07 -0.05 -0.03 -0.02 l -0.04,-0.03 -0.03,-0.02 -0.06,-0.04 -0.08,-0.06 z m -24.49,0.19 0.07,0.04 0.04,0.02 0.05,0.03 0.07,0.04 0.08,0.05 0.02,0.01 0.09,0.05 0.05,0.03 0.04,0.02 0.07,0.04 0.05,0.03 v 0.01 h 0.03 l 0.02,0.01 0.1,0.04 0.06,0.02 h 0.03 l 0.04,0.02 0.09,-0.03 0.09,-0.03 0.02,-0.01 0.07,-0.03 0.04,-0.01 h 0.01 l 0.01,-0.01 h 0.01 l 0.01,-0.01 0.04,-0.01 0.08,-0.03 0.04,-0.02 h 0.01 l 0.07,-0.02 0.05,-0.02 0.07,-0.03 0.06,-0.04 0.08,-0.05 0.08,0.05 0.05,0.04 0.03,0.03 0.04,0.04 0.04,0.04 0.01,0.01 0.03,0.04 0.03,0.05 0.02,0.03 0.02,0.02 0.04,0.07 0.03,0.04 0.03,0.02 0.06,0.04 0.05,0.04 0.06,0.03 0.03,0.03 0.05,0.03 0.03,0.02 0.04,0.02 0.04,0.02 0.05,0.02 0.09,-0.09 0.06,-0.06 0.12,-0.11 0.08,-0.08 0.03,-0.03 0.02,-0.01 0.09,-0.02 h 0.02 v -0.01 l 0.05,-0.01 h 0.03 l 0.12,-0.04 h 0.03 l 0.04,-0.01 0.11,-0.02 0.01,-0.01 h 0.04 l 0.09,-0.03 h 0.04 l 0.13,-0.03 0.1,-0.02 0.01,-0.01 0.07,-0.01 0.09,-0.02 0.04,-0.01 0.02,-0.01 h 0.02 0.02 l 0.01,-0.01 0.15,-0.03 0.11,-0.02 0.17,-0.04 0.1,-0.02 0.23,-0.06 0.12,-0.02 0.01,-0.01 0.02,0.01 0.02,-0.07 0.03,-0.16 0.04,-0.17 0.02,-0.1 0.02,-0.06 0.02,-0.11 0.01,-0.05 0.02,-0.11 0.02,-0.06 0.02,-0.09 0.01,-0.07 0.02,-0.11 v -0.05 l 0.01,-0.1 0.01,-0.06 v -0.06 -0.06 l 0.01,-0.04 0.01,-0.06 v -0.05 l 0.01,-0.03 0.01,-0.02 0.02,-0.04 0.03,-0.05 0.04,-0.04 0.04,-0.04 0.02,-0.03 0.03,-0.04 0.01,-0.04 0.02,-0.04 0.02,-0.07 0.02,-0.03 0.03,-0.07 0.02,-0.07 0.03,-0.08 0.02,-0.05 0.04,-0.08 0.02,-0.07 0.03,-0.08 0.03,-0.06 0.04,-0.09 0.02,-0.06 0.03,-0.08 0.02,-0.05 h 0.02 l 0.08,0.02 0.08,0.02 0.15,0.03 0.08,0.02 0.09,0.01 0.06,0.01 h 0.09 0.05 l 0.07,0.01 0.05,0.01 0.08,0.01 0.11,0.01 0.05,0.01 0.09,0.03 0.07,0.01 0.1,0.02 0.06,0.01 0.09,0.01 0.08,0.01 0.07,0.01 0.16,0.02 0.08,0.01 h 0.04 0.01 0.05 0.1 l 0.13,0.01 0.14,0.01 h 0.1 0.03 l 0.04,-0.02 h 0.03 0.01 0.04 l 0.07,0.01 h 0.08 l 0.04,0.01 h 0.01 0.01 l 0.01,0.01 v 0 l 0.04,0.01 0.02,0.01 0.01,0.02 0.02,0.05 0.04,0.02 0.04,0.01 0.05,0.02 0.05,0.01 0.06,0.02 0.06,0.02 0.05,0.02 0.05,0.01 0.06,0.02 0.05,0.01 0.05,0.02 0.01,-0.05 0.01,-0.04 0.02,-0.04 0.01,-0.05 0.02,-0.03 0.02,-0.03 0.04,-0.04 0.05,-0.02 0.03,-0.03 0.05,-0.02 0.05,-0.03 0.03,-0.03 0.05,-0.03 0.09,-0.08 0.07,-0.05 0.06,-0.05 0.05,-0.04 0.06,-0.03 0.05,-0.03 0.05,-0.01 0.04,-0.02 0.08,-0.01 h 0.05 l 0.04,-0.01 h 0.05 l 0.05,-0.01 h 0.06 0.06 0.05 0.02 0.03 0.07 l 0.05,-0.01 h 0.05 0.05 0.05 l 0.02,-0.01 0.03,-0.01 0.04,-0.03 0.02,-0.02 0.03,-0.01 h 0.02 0.03 l 0.03,0.01 0.04,0.01 0.03,-0.01 0.08,-0.02 0.06,-0.02 0.04,-0.01 0.03,-0.01 0.05,0.03 0.07,0.03 0.06,0.02 0.03,0.02 0.05,0.03 0.06,0.03 0.07,0.03 0.05,0.04 0.02,0.01 0.06,0.02 0.06,0.02 0.06,0.03 0.07,0.03 0.07,0.03 0.08,0.04 h 0.02 l 0.03,0.01 0.04,-0.01 0.03,-0.01 0.04,-0.02 0.03,-0.03 0.04,-0.03 0.03,-0.02 0.03,-0.02 h 0.01 0.03 l 0.02,0.02 0.04,0.02 0.03,0.03 0.06,0.04 0.06,0.04 0.03,0.02 0.03,0.01 0.03,0.01 h 0.02 0.01 0.02 0.06 0.09 l 0.06,0.01 h 0.05 l 0.06,0.01 0.07,0.02 0.05,0.01 0.04,0.01 0.02,0.01 0.04,0.01 0.04,-0.04 0.05,-0.04 0.04,-0.05 0.04,0.05 0.03,0.03 0.01,0.02 0.02,0.03 0.08,0.09 0.05,0.06 0.03,0.04 0.05,0.05 0.05,0.07 0.02,0.03 0.01,0.01 0.02,0.02 0.02,0.03 0.05,0.07 0.07,0.07 0.06,0.08 0.08,0.1 0.05,0.06 0.02,0.1 0.02,0.14 0.02,0.12 0.01,0.05 0.09,-0.03 0.1,-0.04 0.1,-0.03 0.12,-0.02 0.12,-0.01 0.01,0.08 v 0.1 l 0.01,0.13 0.01,0.09 v 0 l 0.01,0.06 0.02,0.05 v 0.08 l 0.01,0.02 0.05,0.1 0.04,0.09 0.03,0.06 0.02,0.03 0.02,0.02 0.03,0.05 0.07,0.1 0.07,0.09 0.04,0.06 0.04,0.05 h 0.03 l 0.06,-0.01 0.06,0.01 h 0.06 0.01 l 0.03,0.05 0.01,0.05 0.02,0.2 -0.01,0.01 h -0.01 v 0.01 l -0.01,0.01 -0.01,0.01 v 0.01 h -0.01 l -0.01,0.01 v 0 l -0.02,0.01 h -0.01 -0.01 l -0.03,0.01 v 0.02 0.03 0.02 l 0.01,0.01 h 0.01 l 0.01,0.01 h 0.02 0.03 0.03 0.01 0.01 l 0.01,0.01 h 0.01 l 0.01,0.01 h 0.01 l 0.01,0.01 h 0.01 0.01 0.01 0.01 0.01 0.01 0.01 l 0.01,-0.01 h 0.01 l 0.01,-0.01 0.01,-0.01 v -0.01 l 0.02,0.01 0.02,0.03 0.02,0.04 0.02,0.05 0.02,0.05 0.01,0.03 0.01,0.03 v 0.06 0.05 0.04 0.06 0.07 l 0.01,0.06 0.01,0.05 v 0.04 l 0.01,0.05 0.01,0.02 0.01,0.02 v 0.01 l 0.03,0.05 0.02,0.05 0.02,0.04 v 0.03 0.03 0.03 0.02 l 0.03,0.03 0.02,0.02 0.01,0.02 v 0.03 l -0.01,0.04 -0.02,0.03 -0.02,0.03 -0.03,0.03 -0.03,0.03 -0.03,0.02 -0.03,0.04 -0.03,0.05 -0.03,0.04 -0.05,0.06 -0.05,0.06 -0.03,0.03 -0.02,0.03 -0.02,0.03 -0.02,0.03 -0.02,0.04 -0.01,0.03 -0.01,0.03 v 0.02 l 0.01,0.03 0.01,0.03 v 0.02 l -0.01,0.02 -0.03,0.05 -0.04,0.06 -0.02,0.03 -0.02,0.03 -0.01,0.02 -0.01,0.04 -0.01,0.05 v 0.05 0.05 0.03 l -0.07,-0.03 0.02,0.03 0.03,0.04 0.05,0.08 0.07,0.1 0.06,0.08 0.04,0.07 0.08,0.12 0.09,0.13 0.07,0.1 0.05,0.06 0.05,0.09 0.03,0.04 -0.06,0.08 0.25,0.2 0.42,0.33 -0.02,0.03 -0.05,0.05 -0.06,0.04 -0.06,0.04 -0.05,0.04 0.01,0.02 0.04,0.06 0.06,0.12 0.05,0.08 0.01,0.01 0.03,0.07 0.05,0.08 0.05,0.07 0.01,0.04 0.04,0.06 0.04,0.08 0.02,0.04 0.04,0.08 0.02,0.04 0.05,0.08 0.04,0.08 0.04,0.07 0.04,0.05 0.03,0.03 0.04,0.05 0.05,0.06 0.05,0.05 0.05,0.06 0.06,0.06 0.05,0.07 0.07,0.07 0.05,0.06 0.06,0.05 0.05,0.05 0.05,0.05 0.07,0.06 0.07,0.06 0.04,0.04 -0.2,0.29 -0.02,0.03 -0.35,-0.38 -0.3,-0.34 -0.04,0.02 -0.11,0.05 -0.16,0.09 -0.08,0.03 -0.18,0.05 -0.16,0.03 -0.05,0.01 -0.05,0.01 -0.08,0.02 -0.05,-0.01 -0.07,-0.01 -0.12,-0.01 -0.06,-0.01 h -0.04 -0.03 -0.15 l -0.03,0.05 -0.03,0.06 -0.15,0.14 -0.18,0.17 -0.22,0.19 -0.19,0.16 -0.01,0.02 0.36,0.36 0.38,0.17 0.03,0.04 0.14,0.16 0.08,0.09 0.01,0.02 0.22,0.38 0.07,0.19 0.03,0.08 0.05,0.18 0.17,0.32 0.01,0.03 -0.07,0.55 -0.03,0.26 0.08,0.05 -0.18,0.34 -0.01,0.07 -0.02,0.08 v 0.05 l -0.02,0.17 -0.01,0.18 -0.01,0.1 v 0.01 0.2 0.15 0.11 0.05 l 0.01,0.04 -0.01,0.02 -0.04,0.21 v 0.02 0.02 l 0.01,0.02 0.01,0.01 0.02,0.01 0.11,0.09 0.12,0.35 0.01,0.04 0.3,0.23 -0.05,0.32 v 0.01 0.01 0.05 0.01 l 0.01,0.47 -0.09,0.16 -0.08,0.11 -0.03,0.07 -0.24,0.46 -0.01,0.01 0.05,0.82 0.01,0.11 v 0.03 l -0.01,0.01 -0.01,0.02 -0.03,0.04 -0.07,0.08 -0.34,0.41 -0.06,0.09 -0.01,0.02 -0.08,0.16 -0.07,0.15 -0.01,0.03 -0.12,0.26 -0.15,0.44 -0.01,0.04 -0.02,0.08 -0.01,0.04 -0.03,0.14 -0.03,0.13 -0.01,0.07 -0.01,0.02 -0.01,0.02 v 0.06 0.04 0.02 l -0.01,0.1 v 0.02 0.05 l -0.01,0.04 -0.01,0.06 v 0.01 l -0.03,0.22 -0.02,0.08 -0.01,0.06 -0.02,0.1 -0.01,0.06 v 0.01 l -0.02,0.06 -0.01,0.04 -0.03,0.07 -0.02,0.09 -0.01,0.03 -0.02,0.05 v 0.02 l -0.03,0.08 -0.01,0.05 -0.02,0.07 -0.01,0.04 -0.02,0.05 -0.02,0.08 -0.03,0.09 -0.01,0.05 -0.01,0.03 v 0.01 0.11 0.05 l 0.01,0.58 v 0.04 l 0.01,0.16 v 0.04 l -0.05,0.02 -0.05,0.02 -0.1,0.03 -0.15,0.04 -0.25,0.06 -0.07,0.02 0.11,0.31 h 0.01 l 0.03,0.09 0.05,0.12 v 0.01 l 0.04,0.1 0.1,0.27 0.04,0.08 0.09,0.24 0.01,0.04 0.1,0.24 v 0.01 l 0.03,0.08 0.09,0.24 0.09,0.32 0.03,0.14 0.05,0.19 0.02,0.07 0.02,0.06 0.02,0.05 0.1,0.22 0.15,0.38 0.05,0.15 0.07,0.12 0.03,0.04 0.01,0.02 0.12,0.21 0.02,0.03 0.41,0.73 0.66,1.34 -0.21,0.48 -0.39,-0.03 -0.24,-0.02 -0.14,-0.01 -0.13,-0.02 h -0.12 l -0.03,-0.01 h -0.08 l -0.21,-0.02 h -0.03 l -0.81,-0.07 h -0.03 l -0.11,-0.01 -1.87,-0.36 -0.6,-0.1 -0.15,-0.03 -0.63,-0.05 h -0.07 l -0.25,-0.03 -0.11,-0.01 -0.17,-0.01 -0.09,-0.01 -0.19,-0.02 -0.06,-0.01 h -0.02 l -0.19,-0.02 -0.18,-0.02 h -0.03 l -0.11,-0.01 -0.09,-0.01 -0.09,-0.01 -0.1,-0.01 -0.09,-0.01 h -0.08 l -0.1,-0.01 -0.1,-0.01 -0.07,-0.01 -0.08,-0.01 -0.11,-0.01 h -0.09 l -0.08,-0.01 -0.01,0.01 -0.01,0.02 -0.06,0.07 -0.12,0.09 -0.12,0.11 -0.09,0.07 -0.01,0.02 -0.16,0.02 -0.16,0.03 h -0.08 l -0.11,0.02 -0.07,0.01 -0.06,0.01 -0.09,0.02 -0.11,0.02 -0.1,0.02 -0.09,0.02 -0.1,0.02 -0.06,0.01 h -0.03 l -0.03,0.01 h -0.09 l -0.09,0.02 -0.06,0.01 h -0.08 -0.09 -0.04 -0.06 -0.13 -0.17 -0.07 l -0.1,-0.01 h -0.12 -0.07 -0.08 -0.02 -0.01 -0.11 -0.06 l -0.09,-0.01 -0.08,-0.03 -0.01,-0.01 -0.09,-0.04 -0.08,-0.04 -0.03,-0.01 -0.05,-0.03 -0.08,-0.04 -0.1,-0.05 -0.09,-0.05 -0.06,-0.04 -0.1,-0.06 -0.1,-0.05 -0.1,-0.05 -0.03,-0.02 -0.02,-0.03 -0.05,-0.06 -0.02,-0.04 -0.04,-0.08 -0.05,-0.09 -0.03,-0.06 -0.03,-0.07 -0.02,-0.03 -0.01,-0.01 -0.01,-0.01 -0.04,-0.04 -0.07,-0.07 -0.09,-0.09 -0.08,-0.08 -0.09,-0.07 -0.01,-0.01 -0.07,-0.04 -0.03,-0.03 -0.06,-0.07 -0.06,-0.08 -0.05,-0.07 -0.06,-0.08 -0.06,-0.07 -0.01,-0.02 -0.01,-0.04 v -0.09 -0.1 -0.07 -0.07 l -0.01,-0.03 v -0.02 l -0.01,-0.03 -0.01,-0.03 -0.01,-0.03 -0.01,-0.06 -0.02,-0.07 -0.03,-0.07 -0.06,-0.14 -0.03,-0.07 -0.01,-0.03 -0.09,-0.02 -0.11,-0.04 -0.06,-0.04 -0.08,-0.04 -0.07,-0.04 -0.05,-0.03 -0.04,-0.04 -0.02,-0.02 -0.05,-0.01 -0.06,-0.02 -0.07,-0.01 -0.1,-0.01 -0.06,-0.01 -0.02,0.01 -0.05,0.03 -0.05,0.04 -0.06,0.03 -0.04,0.01 -0.06,0.01 -0.07,-0.01 -0.05,-0.01 -0.04,-0.01 h -0.03 -0.03 l -0.08,-0.01 -0.05,-0.03 -0.09,-0.08 -0.09,-0.08 -0.12,-0.11 -0.08,-0.06 -0.12,-0.07 -0.06,-0.03 -0.03,0.1 -0.04,0.12 h -0.11 l -0.26,0.01 h -0.03 -0.02 l -0.21,0.01 -0.04,0.01 -0.21,0.01 h -0.07 l -0.06,0.01 -0.06,0.01 -0.04,-0.09 v -0.01 l -0.05,-0.1 -0.1,-0.22 -0.04,-0.1 -0.04,-0.08 -0.03,-0.11 -0.07,-0.16 -0.02,-0.06 -0.06,-0.12 -0.05,-0.11 -0.06,-0.11 -0.07,-0.13 -0.04,-0.07 -0.02,-0.04 -0.02,-0.04 v -0.04 l -0.01,-0.02 -0.05,0.01 -0.02,0.01 -0.22,0.03 -0.08,0.02 h -0.03 l -0.06,0.01 -0.1,0.02 -0.05,0.01 -0.07,0.01 -0.05,-0.01 h -0.04 l -0.04,-0.02 -0.05,-0.02 -0.04,-0.03 -0.05,-0.02 -0.03,-0.02 -0.03,-0.01 -0.07,-0.03 -0.08,-0.02 h -0.01 l -0.04,-0.01 -0.02,-0.01 -0.06,-0.01 -0.07,-0.01 h -0.07 l -0.11,-0.02 -0.09,-0.02 -0.05,-0.01 -0.07,-0.01 h -0.01 l -0.04,0.01 h -0.09 -0.09 l -0.06,0.01 -0.04,-0.01 -0.04,-0.01 -0.1,-0.04 -0.13,0.04 -0.06,0.01 -0.04,0.01 h -0.04 -0.03 l -0.04,-0.01 -0.09,-0.04 -0.08,-0.02 -0.06,-0.01 -0.08,-0.02 -0.07,-0.01 -0.07,-0.02 -0.06,-0.01 h -0.01 l -0.23,0.14 -0.01,0.01 -0.07,0.04 -0.3,0.17 h -0.05 l -0.06,0.01 -0.11,0.03 -0.1,0.01 -0.07,0.02 -0.06,0.01 -0.05,0.02 -0.04,0.02 h -0.04 l -0.07,-0.01 -0.07,0.01 -0.05,0.01 -0.08,0.02 -0.09,0.01 -0.16,0.02 -0.13,0.02 -0.11,0.03 -0.03,0.01 h -0.03 l -0.04,0.01 -0.19,0.04 -0.15,0.05 -0.08,-0.08 -0.02,-0.03 -0.02,-0.03 -0.02,-0.04 -0.01,-0.07 -0.02,-0.1 -0.03,-0.12 -0.03,-0.12 -0.01,-0.11 -0.01,-0.05 0.01,-0.05 v -0.11 -0.05 -0.06 l -0.08,-0.1 -0.04,-0.05 -0.07,-0.07 -0.01,-0.01 -0.01,-0.01 -0.01,-0.01 -0.09,-0.08 -0.08,-0.07 -0.11,-0.08 -0.08,-0.05 -0.03,-0.02 -0.04,0.01 h -0.02 l -0.12,0.03 -0.15,0.03 -0.04,0.01 v -0.03 l -0.01,-0.08 -0.01,-0.11 -0.01,-0.01 v -0.08 l -0.01,-0.07 v -0.01 -0.03 l -0.01,-0.05 -0.01,-0.06 -0.02,-0.07 -0.02,-0.05 -0.03,-0.04 -0.08,-0.1 -0.01,-0.03 -0.02,-0.02 v -0.01 l -0.03,-0.04 -0.01,-0.02 -0.08,-0.11 -0.03,-0.03 -0.09,-0.07 -0.03,-0.02 -0.01,-0.01 -0.01,-0.01 -0.13,-0.11 -0.04,-0.04 -0.02,-0.03 -0.11,-0.1 -0.08,-0.08 -0.02,-0.02 -0.11,-0.1 0.03,-0.01 0.03,-0.02 0.03,-0.02 0.06,-0.05 0.02,-0.01 h 0.01 l 0.13,-0.1 0.05,-0.04 0.04,-0.03 0.04,-0.02 0.01,-0.01 0.02,-0.02 0.09,-0.06 0.09,-0.07 0.02,-0.01 v 0 l 0.04,0.02 0.06,0.04 0.04,0.02 0.04,0.03 0.06,0.02 0.08,0.01 h 0.06 0.06 l 0.06,-0.01 0.05,-0.03 0.03,-0.03 0.02,-0.04 0.03,-0.05 0.02,-0.05 0.02,-0.05 0.03,-0.04 0.05,-0.03 0.04,-0.03 0.04,-0.03 0.03,-0.02 0.03,-0.03 v -0.05 l -0.01,-0.06 v -0.03 -0.01 -0.03 l 0.01,-0.09 v -0.09 -0.06 l 0.01,-0.09 0.01,-0.08 0.02,-0.06 0.02,-0.07 0.03,-0.07 0.03,-0.07 0.02,-0.06 0.01,-0.02 0.01,-0.01 -0.01,-0.05 0.01,-0.07 v -0.05 l 0.01,-0.11 v -0.13 l 0.01,-0.13 v -0.11 l 0.01,-0.1 v -0.06 l 0.01,-0.04 0.01,-0.03 0.04,-0.08 0.05,-0.07 0.04,-0.09 v -0.01 l 0.02,-0.04 0.01,-0.04 v -0.06 l 0.02,-0.06 0.03,-0.06 0.01,-0.02 0.02,-0.06 0.02,-0.04 0.01,-0.03 0.01,-0.04 0.01,-0.02 0.01,-0.03 0.01,-0.02 0.02,-0.08 0.01,-0.01 0.03,-0.08 0.02,-0.05 0.02,-0.05 0.03,-0.09 0.03,-0.07 0.03,-0.1 0.05,-0.13 v -0.03 l -0.01,-0.04 v -0.01 l -0.02,-0.1 v -0.06 -0.02 l 0.01,-0.05 0.01,-0.05 0.01,-0.04 0.01,-0.03 v -0.01 l 0.02,-0.05 v -0.01 l 0.01,-0.02 0.02,-0.06 0.02,-0.07 0.02,-0.04 0.02,-0.06 0.03,-0.07 0.01,-0.02 0.02,-0.03 0.01,-0.03 0.02,-0.03 0.03,-0.06 v -0.01 l 0.03,-0.05 0.01,-0.03 0.02,-0.04 0.02,-0.04 0.04,-0.07 0.04,-0.1 0.05,-0.1 0.04,-0.06 0.05,-0.03 0.03,-0.04 0.06,-0.05 0.06,-0.03 0.07,-0.06 0.07,-0.06 0.05,-0.04 0.01,-0.02 0.04,-0.03 0.03,-0.02 0.05,-0.04 0.01,-0.01 0.04,-0.02 0.03,-0.02 0.04,-0.01 h 0.01 l 0.04,-0.01 0.07,-0.01 0.04,-0.01 H 480 l 0.08,-0.01 0.05,-0.01 0.05,-0.02 0.04,-0.02 0.06,-0.03 0.05,-0.02 0.04,-0.01 0.06,-0.03 0.08,-0.03 0.07,-0.03 0.06,-0.04 0.08,-0.05 0.07,-0.05 0.05,-0.04 0.08,-0.07 0.06,-0.05 0.06,-0.06 0.07,-0.06 0.05,-0.05 0.12,-0.09 0.07,-0.07 v -0.01 l 0.04,-0.07 0.01,-0.01 0.02,-0.06 0.03,-0.07 0.01,-0.02 0.01,-0.01 0.03,-0.08 -0.03,-0.08 -0.01,-0.1 -0.01,-0.12 0.01,-0.08 0.02,-0.03 0.07,-0.08 0.05,-0.07 0.07,-0.07 v 0 l 0.04,-0.04 0.05,-0.05 0.05,-0.06 0.03,-0.04 0.05,-0.09 0.02,-0.04 0.03,-0.06 0.09,-0.17 0.06,-0.09 0.06,-0.12 0.09,-0.15 0.07,-0.13 0.06,-0.1 -0.05,-0.07 -0.03,-0.05 -0.06,-0.1 0.02,-0.02 0.02,-0.04 0.04,-0.04 0.03,-0.05 0.05,-0.05 0.02,-0.06 0.01,-0.02 0.03,-0.04 0.02,-0.05 0.03,-0.05 0.04,-0.06 0.03,-0.07 -0.05,-0.02 -0.03,-0.05 -0.03,-0.08 -0.03,-0.04 -0.02,-0.07 -0.04,-0.1 v -0.02 l -0.03,-0.1 -0.04,-0.12 -0.02,-0.11 v -0.07 l -0.01,-0.02 v -0.05 l -0.01,-0.05 v -0.05 l 0.01,-0.04 0.01,-0.07 v -0.01 l 0.01,-0.04 v -0.02 l 0.01,-0.05 0.01,-0.05 0.03,-0.17 0.02,-0.13 v -0.03 l 0.02,-0.07 0.01,-0.13 0.02,-0.09 v -0.01 -0.02 -0.01 l 0.01,-0.08 0.01,-0.05 0.01,-0.05 0.01,-0.06 v -0.02 -0.03 l 0.01,-0.03 -0.02,-0.05 -0.02,-0.04 -0.02,-0.06 -0.06,-0.07 -0.03,-0.05 -0.02,-0.04 -0.04,-0.04 -0.05,-0.07 -0.02,-0.04 -0.01,-0.06 v -0.07 -0.05 -0.07 l -0.02,-0.04 -0.03,-0.06 -0.04,-0.06 -0.04,-0.05 -0.03,-0.05 -0.02,-0.05 -0.01,-0.1 -0.01,-0.1 -0.01,-0.08 -0.01,-0.08 v -0.1 -0.02 l -0.01,-0.02 -0.07,-0.15 -0.05,-0.13 -0.04,-0.08 -0.04,-0.07 -0.02,-0.07 -0.02,-0.04 -0.01,-0.02 -0.01,-0.06 0.01,-0.07 0.01,-0.07 0.02,-0.09 0.03,-0.09 0.01,-0.02 0.08,-0.15 0.01,-0.02 h -0.01 l -0.05,-0.02 -0.04,-0.01 -0.03,-0.02 -0.02,-0.02 v -0.02 l -0.06,-0.04 -0.1,-0.05 -0.02,-0.02 h -0.01 l -0.03,-0.02 -0.06,-0.03 -0.18,-0.11 -0.2,-0.11 -0.02,-0.01 -0.32,-0.19 -0.03,-0.01 -0.13,-0.08 -0.13,-0.07 -0.15,-0.08 -0.03,-0.03 -0.01,-0.01 -0.02,-0.02 -0.02,-0.02 -0.03,-0.01 -0.04,-0.01 h -0.07 l -0.05,-0.01 -0.04,-0.02 -0.04,-0.03 -0.01,-0.02 -0.03,-0.02 v 0 l -0.02,-0.01 v -0.01 l -0.05,-0.01 -0.03,-0.02 -0.04,-0.03 -0.02,-0.03 -0.02,-0.02 -0.04,-0.03 -0.01,-0.01 -0.04,-0.01 -0.02,-0.01 -0.01,-0.01 -0.03,-0.01 0.03,-0.11 0.01,-0.01 v -0.01 -0.01 l 0.01,-0.02 0.01,-0.04 v -0.01 l 0.03,-0.07 v -0.02 l 0.03,-0.09 0.09,-0.29 0.01,-0.02 0.01,-0.04 0.04,-0.13 0.12,-0.39 0.1,-0.31 v -0.01 -0.01 l 0.01,-0.03 0.01,-0.03 v 0 l -0.02,-0.06 -0.06,-0.08 -0.04,-0.08 -0.06,-0.1 -0.02,-0.05 -0.01,-0.06 v 0 -0.02 l 0.01,-0.06 0.06,0.01 0.1,0.03 0.07,0.03 0.03,0.01 0.09,0.05 0.09,0.05 0.1,0.06 0.09,0.05 0.1,0.05 0.09,0.07 0.08,0.05 0.06,0.04 0.04,0.03 0.04,0.04 0.04,0.04 0.05,0.05 0.05,0.05 0.05,0.02 0.05,0.04 0.08,0.03 0.07,0.03 0.08,0.03 0.05,0.01 0.09,0.01 0.08,0.02 h 0.1 0.1 l 0.09,-0.01 0.1,-0.01 0.07,-0.01 0.06,-0.01 0.08,-0.02 0.09,-0.01 0.07,0.01 0.03,-0.01 h 0.08 0.02 l 0.07,0.01 0.04,0.01 0.05,0.02 0.06,0.02 0.04,0.02 0.05,0.03 0.05,0.03 0.06,0.03 0.03,0.03 0.06,0.04 0.02,0.03 0.08,0.07 0.08,0.08 0.04,0.04 0.07,0.06 0.04,0.04 0.07,0.05 0.07,0.04 0.07,0.05 0.04,0.02 0.1,0.06 0.06,0.03 0.11,0.05 0.06,0.03 0.1,0.03 0.07,0.02 0.08,0.02 0.05,0.01 h 0.07 l 0.08,0.01 h 0.09 0.1 0.07 0.02 l 0.08,-0.01 0.08,-0.02 0.08,-0.01 0.07,-0.04 0.04,-0.04 0.05,-0.06 0.03,-0.04 0.04,-0.06 0.02,-0.04 0.03,-0.06 0.01,-0.07 0.01,-0.05 0.02,-0.07 0.02,-0.09 0.01,-0.09 v -0.08 -0.07 -0.05 l -0.01,-0.1 v -0.09 l -0.01,-0.07 -0.02,-0.08 -0.03,-0.08 -0.01,-0.06 v -0.04 -0.07 -0.09 l -0.01,-0.09 -0.01,-0.09 v -0.03 l -0.01,-0.05 -0.02,-0.06 -0.01,-0.07 -0.02,-0.04 -0.02,-0.06 -0.01,-0.04 -0.03,-0.05 z"
       id="path2" />
  </g>
</svg>
