<?xml version="1.0" encoding="UTF-8" standalone="no"?>
<svg
   version="1.2"
   width="800"
   height="642"
   viewBox="0 0 800 642"
   stroke-linecap="round"
   stroke-linejoin="round"
   id="svg41"
   sodipodi:docname="Zubieta.svg"
   inkscape:version="1.1.2 (b8e25be833, 2022-02-05)"
   xmlns:inkscape="http://www.inkscape.org/namespaces/inkscape"
   xmlns:sodipodi="http://sodipodi.sourceforge.net/DTD/sodipodi-0.dtd"
   xmlns="http://www.w3.org/2000/svg"
   xmlns:svg="http://www.w3.org/2000/svg">
  <defs
     id="defs45" />
  <sodipodi:namedview
     id="namedview43"
     pagecolor="#ffffff"
     bordercolor="#666666"
     borderopacity="1.0"
     inkscape:pageshadow="2"
     inkscape:pageopacity="0.0"
     inkscape:pagecheckerboard="0"
     showgrid="false"
     inkscape:zoom="1.3146417"
     inkscape:cx="399.72867"
     inkscape:cy="321"
     inkscape:window-width="1848"
     inkscape:window-height="1043"
     inkscape:window-x="72"
     inkscape:window-y="0"
     inkscape:window-maximized="1"
     inkscape:current-layer="svg41" />
  <g
     id="Zubieta"
     transform="matrix(23.552011,0,0,23.552011,-11046.727,-3597.9344)">
    <path
       d="m 481.73,153.81 0.32,0.11 0.07,0.03 0.35,0.14 0.01,0.01 0.22,0.13 0.12,0.07 v 0.01 l 0.02,0.02 0.01,0.01 0.03,0.03 0.01,0.01 0.12,0.14 0.11,0.11 0.12,0.13 0.13,0.17 0.03,0.03 0.23,0.07 0.02,0.01 0.05,0.01 0.44,0.22 0.21,0.1 0.33,0.16 0.05,0.06 0.13,0.16 0.04,0.05 0.03,0.05 0.02,0.03 0.2,0.34 0.01,0.01 0.02,0.02 0.16,0.04 0.09,0.01 0.08,0.01 h 0.02 0.05 l 0.04,0.02 0.14,0.1 0.02,0.01 0.01,0.01 v 0 l 0.01,0.01 0.01,0.01 0.04,0.14 0.22,0.2 0.12,0.22 0.14,0.23 0.11,0.21 0.09,0.18 0.04,0.1 0.03,0.07 0.03,0.07 0.03,0.06 0.03,0.07 0.02,0.03 0.01,0.01 0.02,0.03 0.04,0.05 0.06,0.06 0.04,0.06 0.06,0.07 0.02,0.03 0.01,0.03 0.03,0.1 0.04,0.11 0.01,0.04 0.01,0.04 0.01,0.07 0.01,0.12 0.01,0.08 v 0.06 0.05 0.07 l -0.01,0.08 -0.01,0.06 -0.01,0.06 -0.02,0.06 -0.03,0.07 -0.03,0.09 -0.04,0.11 -0.03,0.07 -0.01,0.03 0.04,0.1 0.04,0.11 0.05,0.13 0.07,0.19 0.04,0.12 0.02,0.04 v 0.02 0.06 0.1 0.15 0.06 0.1 l -0.01,0.05 v 0.01 0.02 l 0.02,0.05 0.03,0.09 0.04,0.1 0.06,0.13 0.05,0.15 0.06,0.13 0.04,0.09 0.05,0.1 0.03,0.06 0.02,0.02 0.02,0.03 0.04,0.06 0.06,0.07 0.07,0.07 0.09,0.11 0.1,0.11 0.02,0.03 0.07,0.07 0.12,0.18 0.11,0.14 0.12,0.15 0.12,0.14 0.12,0.15 0.07,0.08 0.01,0.01 0.16,0.19 0.17,0.2 0.12,0.14 0.01,0.01 0.03,0.04 0.14,0.17 0.02,0.02 0.01,0.02 0.02,0.02 0.01,0.03 v 0.01 l 0.01,0.03 0.01,0.03 0.01,0.02 v 0 l 0.04,0.1 0.03,0.1 0.03,0.12 0.04,0.1 0.01,0.05 0.01,0.01 0.02,0.03 0.05,0.05 0.04,0.04 0.03,0.04 h 0.01 l 0.06,0.07 0.03,0.03 0.09,0.09 0.08,0.08 0.06,0.06 0.13,0.12 0.01,0.02 0.07,0.07 0.02,0.01 0.08,0.09 0.02,0.03 h 0.02 l 0.09,0.02 0.14,0.04 0.08,0.02 0.33,0.08 0.06,0.02 0.02,0.01 0.02,0.01 0.06,0.02 0.09,0.03 0.03,0.02 0.02,0.01 0.01,0.01 0.05,0.05 0.04,0.03 0.06,0.05 0.1,0.08 0.13,0.11 0.09,0.08 0.01,0.01 0.01,0.01 0.06,0.06 0.01,0.01 -0.01,0.03 v 0.01 0.01 0.02 l -0.01,0.03 v 0.02 0.01 l -0.01,0.05 -0.02,0.03 -0.07,0.12 -0.11,0.17 -0.09,0.15 -0.02,0.02 -0.02,0.02 -0.04,0.01 h -0.01 l -0.01,0.04 -0.01,0.12 -0.04,0.14 -0.01,0.07 v 0.03 0.02 0.03 l 0.01,0.02 0.01,0.01 0.03,0.03 0.04,0.03 0.04,0.02 0.04,0.02 0.03,0.02 v 0 l 0.03,0.01 0.07,0.05 0.07,0.03 0.03,0.01 h 0.02 l 0.02,0.01 h 0.03 0.02 l 0.03,0.01 0.05,0.01 h 0.04 l 0.02,0.01 0.02,0.01 0.04,0.02 0.07,0.06 0.05,0.05 0.04,0.05 0.02,0.04 0.02,0.03 0.02,0.03 0.01,0.01 0.03,0.05 0.03,0.05 0.03,0.03 0.01,0.01 0.01,0.01 0.01,0.02 0.02,0.03 0.02,0.01 h 0.01 l 0.04,0.02 0.04,0.02 0.01,0.01 h 0.02 l 0.02,0.03 0.03,0.02 0.03,0.02 0.04,0.03 0.04,0.02 0.02,0.01 0.02,0.02 0.02,0.03 0.01,0.01 0.03,0.02 0.02,0.01 0.02,0.01 0.01,0.02 v 0.01 l 0.01,0.02 0.01,0.03 0.02,0.05 0.02,0.05 0.02,0.05 0.04,0.06 0.03,0.06 v 0.02 l 0.01,0.02 v 0.02 0.01 l 0.01,0.02 v 0.01 l 0.02,0.02 0.01,0.01 v 0.02 l 0.01,0.03 0.01,0.02 0.04,0.07 0.02,0.02 0.04,0.06 0.03,0.06 0.03,0.03 0.04,0.05 0.03,0.02 0.01,0.01 v 0 l 0.02,0.02 0.03,0.04 0.03,0.06 0.02,0.09 0.02,0.04 0.04,0.06 0.02,0.06 0.02,0.03 0.01,0.01 0.01,0.02 0.03,0.08 0.01,0.06 0.02,0.09 v 0.1 l 0.03,0.12 v 0.01 0.11 l 0.01,0.04 v 0.07 0.02 l 0.01,0.06 v 0.07 0.02 l 0.01,0.09 v 0.05 0.01 0.1 0.03 l -0.06,0.12 -0.06,0.1 -0.05,0.1 -0.07,0.12 -0.1,0.18 -0.09,0.15 -0.02,0.04 -0.01,0.01 -0.04,0.08 -0.09,0.16 -0.06,0.11 -0.08,0.14 -0.01,0.01 v 0.02 l -0.1,0.19 -0.06,0.13 -0.02,0.04 -0.01,0.03 -0.04,0.03 -0.09,0.09 -0.06,0.06 -0.03,0.03 -0.18,0.17 -0.09,0.08 -0.07,0.07 -0.02,0.02 -0.07,0.06 -0.03,0.02 -0.04,0.05 -0.02,0.01 -0.01,0.01 -0.12,0.09 -0.03,0.02 -0.17,0.12 -0.09,0.06 -0.14,0.09 -0.18,0.13 -0.04,0.02 -0.01,0.01 -0.1,0.07 -0.15,0.11 h -0.01 l -0.12,0.08 -0.35,0.21 -0.06,0.04 -0.26,0.16 -0.02,0.01 -0.03,0.02 -0.02,0.01 -0.03,0.02 -0.28,0.15 -0.04,0.03 -0.77,0.45 -0.15,0.05 -0.12,0.05 -0.09,0.03 -0.11,0.04 -0.18,0.06 -0.09,0.03 -0.07,0.02 -0.04,0.02 -0.03,0.01 -0.19,0.08 -0.03,0.01 -0.04,0.01 -0.03,0.01 -0.07,0.02 -0.15,0.04 -0.21,0.04 -0.08,0.01 -0.04,0.01 h -0.01 -0.01 l -0.02,0.01 h -0.01 l -0.13,0.02 -0.04,0.01 h -0.02 l -0.05,0.01 h -0.01 l -0.05,0.01 -0.05,0.01 -0.19,0.06 -0.01,0.01 h -0.01 l -0.24,0.08 h -0.03 l -0.19,0.06 -0.01,0.01 -0.03,0.01 -0.16,0.05 -0.13,0.04 -0.09,0.02 -0.01,0.02 -0.01,0.02 -0.02,0.03 -0.01,0.02 -0.01,0.04 -0.01,0.01 -0.01,0.03 -0.02,0.07 -0.04,0.07 -0.01,0.06 -0.02,0.04 -0.01,0.03 -0.01,0.04 -0.01,0.05 -0.04,0.18 v 0.02 l -0.04,0.14 -0.02,0.15 0.01,0.18 v 0.01 l 0.01,0.08 0.02,0.18 0.01,0.08 -0.09,-0.04 h -0.02 l -0.01,-0.01 h -0.01 l -0.02,-0.01 -0.1,-0.05 -0.09,-0.04 -0.03,-0.01 -0.03,-0.02 -0.08,-0.04 -0.12,-0.07 -0.1,-0.06 -0.01,-0.01 -0.07,-0.04 -0.09,-0.05 -0.14,-0.08 -0.01,-0.01 -0.03,-0.01 -0.11,-0.07 -0.13,-0.08 -0.12,-0.07 -0.08,-0.04 -0.02,-0.01 -0.02,-0.02 h -0.01 l -0.06,-0.07 -0.09,-0.1 -0.07,-0.06 -0.04,-0.04 -0.01,-0.01 -0.01,-0.01 -0.02,-0.02 -0.06,-0.05 -0.05,-0.05 -0.07,-0.09 -0.01,-0.02 -0.02,-0.02 -0.01,-0.01 -0.01,-0.02 -0.03,0.01 -0.14,0.07 -0.01,0.01 -0.25,0.12 -0.19,0.1 -0.09,0.05 -0.06,0.02 -0.07,0.03 -0.03,0.02 -0.07,0.03 -0.13,0.06 -0.29,0.14 h -0.01 l -0.01,-0.02 -0.29,-0.21 h -0.01 l -0.01,-0.02 h -0.01 l -0.06,-0.04 -0.01,-0.01 v -0.01 l -0.1,-0.06 -0.01,-0.01 h -0.01 l -0.02,-0.02 -0.03,-0.02 0.08,-0.24 0.01,-0.02 v -0.03 l 0.01,-0.03 v -0.03 -0.03 -0.04 -0.03 l -0.01,-0.04 -0.01,-0.03 -0.01,-0.04 -0.01,-0.03 -0.02,-0.02 v -0.01 l -0.02,-0.05 -0.04,-0.05 -0.03,-0.03 -0.03,-0.03 -0.03,-0.05 -0.01,-0.04 v -0.02 l 0.01,-0.04 0.01,-0.03 0.02,-0.05 0.01,-0.03 0.01,-0.02 0.01,-0.04 0.01,-0.07 v -0.05 -0.03 l -0.01,-0.04 -0.02,-0.08 -0.01,-0.04 -0.01,-0.04 v -0.04 -0.02 l -0.01,-0.03 -0.01,-0.04 0.01,-0.03 0.01,-0.04 0.03,-0.03 0.04,-0.04 0.04,-0.03 0.04,-0.03 0.04,-0.04 0.04,-0.04 0.04,-0.04 0.03,-0.05 0.03,-0.03 0.03,-0.05 0.02,-0.02 -0.04,-0.17 -0.01,-0.03 -0.02,-0.1 -0.03,-0.13 -0.01,-0.03 h -0.01 -0.01 -0.03 -0.04 -0.04 -0.01 -0.04 -0.06 l -0.05,-0.01 -0.03,-0.01 h -0.04 l -0.05,-0.03 -0.04,-0.01 -0.04,-0.02 -0.03,-0.02 -0.04,-0.02 -0.04,-0.01 h -0.03 l -0.06,-0.02 -0.04,-0.02 -0.03,-0.02 -0.05,-0.02 -0.04,-0.02 -0.05,-0.04 -0.05,-0.03 -0.05,-0.03 -0.05,-0.02 -0.04,-0.03 -0.06,-0.04 -0.06,-0.03 -0.05,-0.02 -0.03,-0.02 -0.06,-0.04 -0.09,-0.06 -0.08,-0.04 -0.01,-0.01 -0.03,-0.01 -0.03,-0.02 -0.03,-0.02 -0.03,-0.01 -0.03,-0.01 -0.01,-0.01 -0.03,-0.03 -0.01,-0.03 -0.03,-0.03 -0.02,-0.04 -0.01,-0.04 -0.02,-0.05 -0.01,-0.05 -0.01,-0.04 -0.01,-0.06 v -0.04 l -0.01,-0.04 -0.01,-0.02 -0.02,-0.01 -0.04,-0.02 -0.04,-0.02 -0.05,-0.02 -0.04,-0.01 -0.04,-0.02 -0.04,-0.03 -0.04,-0.02 -0.05,-0.02 -0.04,-0.01 -0.05,-0.01 -0.04,-0.02 -0.04,-0.01 -0.05,-0.01 h -0.04 l -0.03,-0.01 -0.04,-0.01 -0.05,-0.01 -0.04,-0.01 -0.03,-0.01 -0.01,-0.01 v -0.02 l 0.01,-0.01 0.02,-0.01 0.02,-0.02 0.03,-0.02 0.02,-0.02 0.02,-0.01 0.04,-0.01 0.03,-0.02 0.03,-0.02 0.03,-0.01 0.02,-0.01 0.03,-0.01 h 0.03 l 0.03,-0.01 0.1,-0.03 h 0.02 l 0.02,-0.01 h 0.02 l 0.01,-0.01 v -0.02 -0.02 l -0.01,-0.01 -0.01,-0.01 -0.02,-0.03 -0.02,-0.02 -0.01,-0.01 -0.02,-0.01 -0.02,-0.03 -0.02,-0.02 -0.02,-0.02 -0.02,-0.02 -0.01,-0.04 -0.02,-0.01 -0.02,-0.02 -0.03,-0.01 -0.03,-0.01 -0.02,-0.02 -0.03,-0.03 -0.01,-0.02 -0.02,-0.03 -0.02,-0.01 -0.02,-0.02 -0.02,-0.02 -0.02,-0.03 v -0.03 -0.03 l 0.01,-0.02 0.02,-0.02 0.02,-0.04 0.03,-0.06 0.01,-0.03 0.01,-0.03 0.01,-0.04 0.01,-0.03 0.01,-0.03 v -0.03 l -0.01,-0.02 -0.02,-0.02 -0.02,-0.03 -0.01,-0.02 -0.03,-0.02 -0.03,-0.03 -0.05,-0.05 -0.02,-0.01 -0.01,-0.02 -0.02,-0.01 -0.06,-0.07 -0.02,-0.02 -0.02,-0.02 -0.03,-0.01 -0.03,-0.01 -0.02,-0.02 -0.02,-0.04 -0.01,-0.04 v -0.03 l -0.01,-0.04 v -0.04 -0.03 -0.04 -0.05 l 0.01,-0.03 0.02,-0.04 0.03,-0.03 0.02,-0.02 0.02,-0.02 0.03,-0.03 0.03,-0.03 0.03,-0.03 0.04,-0.03 0.04,-0.04 0.02,-0.04 0.02,-0.02 0.02,-0.02 v -0.03 -0.03 -0.04 -0.02 l 0.01,-0.03 0.01,-0.02 0.02,-0.03 0.01,-0.03 0.01,-0.05 v -0.03 l 0.01,-0.04 v -0.04 l 0.01,-0.04 0.01,-0.04 0.01,-0.03 0.01,-0.03 0.01,-0.03 0.01,-0.03 0.01,-0.03 0.03,-0.02 0.03,-0.02 0.02,-0.02 0.04,-0.03 0.03,-0.02 0.02,-0.03 0.03,-0.02 0.03,-0.03 0.02,-0.03 0.03,-0.03 0.04,-0.04 0.04,-0.02 0.02,-0.02 0.03,-0.02 0.03,-0.02 0.02,-0.03 0.01,-0.02 0.02,-0.03 0.01,-0.03 0.01,-0.03 0.01,-0.04 0.02,-0.05 0.01,-0.01 0.01,-0.04 0.01,-0.03 0.01,-0.04 0.02,-0.03 0.01,-0.03 0.03,-0.04 0.03,-0.02 0.03,-0.03 0.03,-0.02 0.03,-0.03 0.02,-0.03 0.02,-0.02 0.03,-0.04 0.01,-0.02 0.01,-0.03 0.02,-0.04 0.02,-0.03 0.02,-0.03 0.02,-0.03 0.02,-0.04 0.02,-0.04 0.02,-0.03 0.01,-0.03 0.02,-0.03 0.02,-0.04 0.03,-0.04 0.03,-0.05 v -0.03 l 0.01,-0.03 -0.01,-0.05 -0.01,-0.03 -0.01,-0.05 -0.01,-0.03 -0.01,-0.04 -0.01,-0.02 -0.01,-0.04 -0.02,-0.04 -0.02,-0.06 -0.01,-0.06 -0.02,-0.04 -0.02,-0.05 -0.02,-0.04 -0.01,-0.04 -0.01,-0.04 -0.01,-0.04 -0.01,-0.06 -0.02,-0.05 -0.01,-0.04 v -0.04 l -0.01,-0.05 -0.01,-0.05 -0.01,-0.04 -0.01,-0.04 -0.01,-0.04 -0.03,-0.06 -0.03,-0.07 v -0.02 l -0.02,-0.04 -0.02,-0.05 -0.01,-0.04 -0.02,-0.05 -0.01,-0.05 -0.03,-0.04 -0.01,-0.04 -0.02,-0.04 -0.02,-0.05 -0.02,-0.03 -0.02,-0.04 -0.02,-0.04 -0.02,-0.04 -0.02,-0.03 -0.02,-0.04 -0.02,-0.04 -0.03,-0.05 -0.02,-0.04 -0.01,-0.04 -0.02,-0.04 -0.01,-0.03 -0.02,-0.04 -0.02,-0.07 -0.01,-0.03 -0.01,-0.05 v -0.03 -0.04 l 0.01,-0.04 0.01,-0.04 0.01,-0.05 0.02,-0.05 0.01,-0.05 0.01,-0.04 0.01,-0.04 v -0.04 -0.04 l 0.01,-0.05 0.01,-0.03 0.02,-0.04 0.02,-0.03 0.02,-0.04 0.02,-0.03 0.01,-0.02 0.02,-0.02 0.03,-0.04 0.02,-0.03 0.02,-0.03 0.03,-0.05 0.04,-0.04 0.02,-0.03 0.05,-0.06 0.02,-0.03 0.02,-0.03 0.02,-0.04 0.02,-0.04 0.02,-0.04 0.02,-0.03 0.01,-0.04 0.02,-0.03 0.01,-0.05 0.01,-0.05 0.01,-0.06 0.01,-0.07 v -0.06 -0.01 l -0.01,-0.01 -0.01,-0.02 -0.04,-0.04 -0.06,-0.04 -0.05,-0.03 -0.04,-0.01 -0.05,-0.02 -0.04,-0.02 -0.05,-0.02 -0.05,-0.01 -0.05,-0.02 -0.04,-0.01 -0.02,-0.01 -0.04,-0.02 -0.06,-0.03 -0.03,-0.02 -0.04,-0.02 -0.05,-0.03 -0.04,-0.03 -0.04,-0.02 -0.04,-0.02 -0.04,-0.02 h -0.02 l -0.04,-0.02 -0.03,-0.02 -0.02,-0.01 -0.02,-0.03 -0.01,-0.07 v -0.02 -0.04 -0.03 -0.05 -0.04 l 0.01,-0.02 v -0.04 -0.02 l 0.01,-0.04 0.01,-0.04 v -0.04 l 0.01,-0.04 0.01,-0.03 0.02,-0.02 0.01,-0.04 0.01,-0.03 0.01,-0.05 0.01,-0.1 0.01,-0.05 0.01,-0.04 0.01,-0.05 0.01,-0.04 0.01,-0.04 0.02,-0.04 0.01,-0.04 0.02,-0.04 0.01,-0.04 0.02,-0.03 v -0.01 l 0.02,-0.04 0.01,-0.04 v -0.04 -0.01 l 0.01,-0.02 v -0.05 l 0.01,-0.05 0.01,-0.05 v -0.04 -0.04 l -0.01,-0.06 v -0.05 -0.04 -0.04 -0.05 -0.04 -0.05 -0.04 l -0.01,-0.03 v -0.09 l -0.01,-0.05 -0.01,-0.04 -0.01,-0.05 -0.01,-0.06 -0.01,-0.05 -0.01,-0.04 -0.02,-0.06 -0.02,-0.07 -0.03,-0.06 -0.01,-0.05 -0.02,-0.04 -0.01,-0.05 -0.03,-0.05 -0.02,-0.03 -0.03,-0.05 -0.05,-0.06 v -0.02 l -0.01,-0.02 -0.03,-0.04 -0.02,-0.02 v -0.01 l -0.03,-0.03 -0.02,-0.02 -0.03,-0.01 -0.03,-0.01 h -0.03 -0.03 -0.12 -0.03 l -0.02,-0.01 -0.04,0.01 -0.06,-0.01 h -0.05 -0.04 l -0.05,-0.01 h -0.03 l -0.04,-0.02 -0.04,-0.03 -0.11,-0.08 -0.01,-0.01 -0.11,-0.07 -0.09,-0.09 -0.05,-0.02 -0.03,-0.02 -0.04,-0.01 -0.03,-0.01 h -0.05 l -0.03,0.01 h -0.04 l -0.03,0.01 -0.03,0.02 -0.03,0.01 -0.05,0.03 -0.03,0.02 -0.02,0.02 -0.05,0.04 h -0.01 l -0.02,0.02 -0.01,0.01 h -0.01 l -0.02,-0.02 -0.01,-0.02 -0.02,-0.06 -0.02,-0.05 -0.02,-0.04 -0.01,-0.04 -0.01,-0.04 v -0.04 l -0.01,-0.03 v -0.04 l -0.01,-0.03 -0.01,-0.03 -0.01,-0.08 -0.01,-0.04 v -0.05 l 0.01,-0.05 v -0.05 -0.04 l 0.01,-0.05 v -0.01 l 0.01,-0.02 0.02,-0.04 0.04,-0.05 0.03,-0.03 0.03,-0.04 0.03,-0.04 0.03,-0.04 0.03,-0.06 0.01,-0.04 0.02,-0.06 0.01,-0.06 0.01,-0.06 0.02,-0.04 0.01,-0.06 0.03,-0.06 0.03,-0.07 0.03,-0.05 0.03,-0.07 0.03,-0.07 0.02,-0.05 0.01,-0.05 0.01,-0.04 v -0.05 -0.04 -0.05 -0.03 -0.05 l 0.01,-0.06 0.01,-0.06 v -0.05 -0.02 l 0.01,-0.01 v -0.04 l 0.02,-0.08 0.01,-0.05 0.01,-0.06 0.01,-0.06 0.01,-0.05 0.01,-0.07 0.01,-0.05 v -0.06 -0.05 -0.06 -0.06 -0.06 l -0.01,-0.06 v -0.06 -0.05 l -0.01,-0.04 v -0.05 l -0.01,-0.08 -0.01,-0.05 -0.01,-0.05 -0.01,-0.06 v -0.04 -0.04 l -0.01,-0.05 v -0.04 l -0.01,-0.06 -0.01,-0.04 -0.02,-0.06 -0.01,-0.04 -0.02,-0.05 -0.02,-0.06 -0.03,-0.06 -0.03,-0.09 -0.03,-0.07 -0.03,-0.07 -0.02,-0.06 -0.03,-0.04 -0.03,-0.04 -0.04,-0.06 -0.04,-0.06 -0.04,-0.1 0.01,-0.01 h 0.04 l 0.03,0.01 0.09,0.05 0.12,0.04 0.03,0.05 h 0.03 0.04 l 0.12,-0.05 0.06,-0.04 0.07,-0.05 0.09,-0.01 0.05,-0.03 0.02,-0.02 0.03,-0.09 0.13,-0.08 0.04,-0.03 0.05,-0.07 0.07,-0.08 0.09,-0.05 0.11,-0.05 0.08,-0.05 0.01,-0.06 0.03,-0.05 0.02,-0.03 0.07,-0.05 0.03,-0.01 0.06,-0.02 0.1,-0.03 0.08,-0.04 0.05,-0.04 0.05,-0.04 0.08,-0.1 0.04,-0.03 0.04,-0.02 0.09,-0.05 0.05,-0.01 0.12,-0.04 0.02,-0.02 0.05,-0.05 0.04,-0.05 0.05,-0.03 0.13,-0.08 0.05,-0.02 0.04,-0.02 0.05,-0.01 0.04,-0.03 0.05,-0.03 0.05,-0.03 0.04,-0.02 0.04,-0.01 h 0.04 l 0.04,-0.01 0.04,-0.02 0.03,-0.01 h 0.08 l 0.05,-0.01 0.06,-0.02 0.06,-0.04 0.06,-0.04 0.07,-0.04 0.07,-0.03 0.07,-0.02 0.05,-0.01 0.04,-0.01 0.05,-0.02 0.05,-0.03 0.05,-0.02 0.04,-0.02 0.06,-0.01 0.04,-0.02 0.04,-0.03 0.05,-0.05 0.06,-0.05 0.03,-0.03 z"
       id="path38" />
  </g>
</svg>
