<?xml version="1.0" encoding="UTF-8" standalone="no"?>
<svg
   version="1.2"
   width="800"
   height="642"
   viewBox="0 0 800 642"
   stroke-linecap="round"
   stroke-linejoin="round"
   id="svg77"
   sodipodi:docname="Zumarraga.svg"
   inkscape:version="1.1.2 (b8e25be833, 2022-02-05)"
   xmlns:inkscape="http://www.inkscape.org/namespaces/inkscape"
   xmlns:sodipodi="http://sodipodi.sourceforge.net/DTD/sodipodi-0.dtd"
   xmlns="http://www.w3.org/2000/svg"
   xmlns:svg="http://www.w3.org/2000/svg">
  <defs
     id="defs81" />
  <sodipodi:namedview
     id="namedview79"
     pagecolor="#ffffff"
     bordercolor="#666666"
     borderopacity="1.0"
     inkscape:pageshadow="2"
     inkscape:pageopacity="0.0"
     inkscape:pagecheckerboard="0"
     showgrid="false"
     inkscape:zoom="1.3146417"
     inkscape:cx="399.72867"
     inkscape:cy="321"
     inkscape:window-width="1848"
     inkscape:window-height="1043"
     inkscape:window-x="72"
     inkscape:window-y="0"
     inkscape:window-maximized="1"
     inkscape:current-layer="svg77" />
  <g
     id="Zumarraga"
     transform="matrix(23.767242,0,0,23.767242,-7325.1504,-3969.6305)">
    <path
       d="m 327.36,167.68 h 0.02 l 0.33,0.28 0.18,-0.05 0.25,1.19 0.37,0.04 0.41,0.16 0.25,0.19 0.35,0.31 0.21,0.19 0.14,0.15 0.5,0.51 0.21,0.21 0.22,0.35 0.27,0.46 0.24,0.32 0.26,0.06 0.31,0.1 0.22,0.26 0.16,0.19 0.31,0.53 0.1,0.18 0.11,0.23 0.14,0.27 0.11,0.22 0.06,0.82 -0.06,0.63 0.51,0.68 0.61,0.82 0.79,0.18 h 0.07 l -0.8,1.28 v 0 l -0.02,0.01 -0.01,0.02 v 0.01 l -0.02,0.02 -0.01,0.01 -0.02,0.02 -0.02,0.03 -0.02,0.02 -0.01,0.01 -0.01,0.02 -0.01,0.01 -0.02,0.03 v 0.01 l -0.02,0.02 -0.01,0.02 -0.02,0.03 -0.01,0.02 -0.01,0.01 -0.01,0.01 -0.02,0.01 v 0.02 l -0.01,0.01 -0.01,0.01 -0.01,0.01 -0.01,0.01 -0.03,0.02 -0.04,0.03 -0.01,0.01 -0.03,0.01 -0.01,0.02 -0.02,0.01 -0.02,0.01 -0.03,0.02 -0.03,0.01 -0.02,0.02 -0.03,0.02 -0.01,0.01 -0.04,0.01 -0.02,0.01 -0.02,0.02 -0.02,0.02 -0.03,0.02 -0.02,0.02 -0.02,0.01 -0.02,0.02 -0.03,0.02 -0.03,0.02 -0.01,0.01 -0.02,0.03 -0.01,0.02 -0.02,0.03 -0.01,0.01 -0.02,0.02 -0.02,0.02 -0.02,0.02 -0.03,0.02 -0.01,0.01 -0.02,0.01 -0.02,0.02 -0.02,0.01 -0.02,0.03 -0.02,0.03 -0.03,0.04 -0.01,0.01 -0.02,0.04 -0.03,0.03 -0.01,0.01 -0.01,0.03 -0.01,0.03 -0.01,0.02 -0.02,0.03 -0.01,0.03 -0.01,0.02 v 0.05 0.02 l -0.02,0.02 -0.02,0.01 -0.01,0.01 -0.01,0.01 -0.01,0.01 v 0.04 l -0.01,0.04 -0.01,0.01 -0.01,0.02 -0.02,0.02 -0.02,0.02 -0.01,0.01 -0.01,0.01 -0.01,0.02 -0.02,0.03 -0.02,0.04 v 0.02 l -0.01,0.02 v 0.03 0.01 l -0.01,0.03 -0.01,0.04 v 0.03 0.02 0.03 0.03 0.01 l 0.01,0.01 0.01,0.02 0.01,0.02 0.01,0.03 v 0.02 0.03 l 0.01,0.02 v 0.02 l 0.01,0.03 0.01,0.04 0.02,0.04 0.01,0.03 0.01,0.02 -0.01,0.02 v 0.03 l -0.01,0.01 -0.01,0.02 -0.01,0.02 -0.01,0.01 v 0.02 0.02 l -0.01,0.02 v 0.04 0.02 0.02 0.01 l 0.01,0.02 v 0.04 l 0.01,0.03 v 0.02 l -0.01,0.01 -0.01,0.01 -0.01,0.04 -0.02,0.03 -0.03,0.04 -0.01,0.03 -0.01,0.01 -0.01,0.01 -0.01,0.01 v 0.02 0.02 0.01 l 0.01,0.01 0.01,0.02 0.02,0.03 0.01,0.02 v 0.02 l 0.01,0.04 0.01,0.03 0.01,0.04 -0.03,0.07 -0.02,0.02 -0.02,0.03 -0.02,0.03 -0.01,0.02 -0.02,0.03 -0.02,0.02 -0.03,0.02 -0.03,0.03 -0.03,0.03 -0.02,0.02 -0.01,0.02 -0.02,0.03 -0.01,0.03 -0.01,0.02 -0.01,0.02 v 0.03 l -0.01,0.02 -0.01,0.02 -0.01,0.02 v 0.02 l -0.01,0.01 v 0.01 l -0.01,0.01 -0.02,0.03 -0.02,0.01 -0.03,0.01 -0.02,0.01 -0.01,0.01 h -0.01 v 0 l -0.01,0.01 h -0.01 v 0 l -0.01,0.01 h -0.01 v 0.01 0.01 l -0.01,0.01 v 0 0.05 0.01 0 0.01 0.01 l -0.01,0.01 v 0.01 0.01 l -0.01,0.01 v 0.01 0.01 0.01 l -0.01,0.02 v 0.03 l -0.01,0.02 -0.01,0.03 -0.01,0.03 v 0.03 l -0.01,0.01 v 0.01 l -0.01,0.02 v 0.01 l -0.01,0.02 v 0.01 l -0.01,0.01 v 0.01 l -0.01,0.01 v 0.01 0.02 0.01 0.01 l -0.01,0.01 v 0.01 0.01 0.01 0.01 0.01 0.01 0.01 0.01 0.02 0.01 0 0.01 0.01 l -0.01,0.02 v 0.01 0 l -0.01,0.01 v 0.01 0.01 0.01 0.01 0 0.03 l 0.01,0.01 v 0.02 l 0.02,0.02 0.01,0.02 0.04,0.04 0.03,0.04 0.02,0.05 v 0.02 0.02 l -0.01,0.04 -0.01,0.01 -0.01,0.02 -0.02,0.02 -0.04,0.04 -0.01,0.02 -0.01,0.01 0.01,0.02 v 0.02 0.02 l -0.01,0.02 -0.01,0.04 -0.01,0.04 -0.01,0.03 -0.02,0.03 -0.02,0.03 -0.01,0.02 -0.01,0.03 -0.02,0.04 -0.01,0.03 -0.02,0.04 -0.02,0.01 -0.01,0.01 -0.02,0.01 h -0.02 l -0.02,0.02 -0.02,0.02 -0.03,0.02 h -0.01 l -0.03,0.01 h -0.02 l -0.02,0.01 h -0.01 l -0.01,0.01 v 0.02 l -0.02,0.02 -0.01,0.02 -0.01,0.02 -0.01,0.01 -0.03,0.02 -0.01,0.02 -0.02,0.02 -0.01,0.02 -0.02,0.01 -0.02,0.01 h -0.01 l -0.02,-0.01 -0.02,0.01 h -0.02 l -0.01,0.01 -0.01,0.01 -0.01,0.01 -0.01,0.02 -0.01,0.02 -0.01,0.01 -0.01,0.02 -0.02,0.01 -0.02,0.02 -0.02,0.02 -0.01,0.03 -0.01,0.02 -0.02,0.01 -0.02,0.01 h -0.03 l -0.03,0.01 -0.03,0.01 -0.03,0.02 -0.02,0.02 -0.02,0.01 -0.03,0.02 -0.02,0.02 -0.01,0.02 -0.01,0.01 v 0.03 l -0.01,0.02 -0.02,0.03 -0.02,0.03 -0.02,0.02 -0.02,0.02 v 0.02 l -0.01,0.02 -0.01,0.02 -0.01,0.02 -0.03,0.03 -0.01,0.02 -0.01,0.02 -0.01,0.02 -0.02,0.02 -0.03,0.03 -0.03,0.03 -0.01,0.02 -0.02,0.02 -0.01,0.03 -0.02,0.02 -0.02,0.03 -0.01,0.02 -0.02,0.02 v 0.01 0.01 l -0.01,0.01 -0.01,0.01 v 0 l -0.01,0.01 v 0 l -0.01,0.01 h -0.01 l -0.01,0.01 -0.01,0.01 -0.01,0.01 v 0 l -0.01,0.01 -0.01,0.01 h -0.01 l -0.01,0.01 h -0.01 l -0.03,0.01 -0.03,0.01 -0.02,0.01 -0.01,0.01 h -0.01 l -0.01,0.01 -0.01,0.01 -0.01,0.01 v 0.01 0.01 l -0.01,0.01 v 0.01 0 0.01 0.01 0.01 0.01 0.01 0.02 l -0.01,0.01 v 0.01 0.01 0.01 l -0.01,0.01 v 0.02 l -0.01,0.01 v 0.01 l -0.01,0.01 v 0.01 l -0.01,0.01 v 0.01 l -0.01,0.01 v 0 0.01 l -0.01,0.01 v 0.01 0 l -0.01,0.01 0.01,0.02 v 0.01 l 0.01,0.01 0.01,0.01 v 0.01 0.01 0.01 0.02 0.01 h -0.01 v 0.01 l -0.01,0.01 -0.01,0.01 -0.01,0.01 h -0.01 v 0.01 l -0.01,0.01 v 0.01 0.01 0.01 l 0.01,0.03 0.01,0.01 0.01,0.03 v 0.03 l 0.01,0.04 0.05,0.57 -0.01,0.02 -0.02,0.05 -0.01,0.05 -0.01,0.02 v 0.05 l -0.01,0.05 -0.01,0.08 -0.02,0.06 -0.01,0.04 v 0.03 l 0.01,0.04 v 0.03 l 0.02,0.06 0.01,0.03 v 0.03 0.04 l 0.01,0.04 v 0.03 l 0.01,0.04 0.01,0.04 v 0.05 0.04 l 0.01,0.05 v 0.04 0.02 l -0.01,0.01 v 0.02 l -0.01,0.01 -0.03,0.02 -0.02,0.01 -0.01,0.01 -0.01,0.01 -0.01,0.01 v 0.02 0.01 l -0.01,0.05 -0.01,0.04 -0.01,0.03 -0.01,0.02 v 0.01 l -0.01,0.02 v 0.02 l -0.01,0.03 -0.01,0.03 -0.01,0.03 -0.04,-0.03 -0.05,-0.05 -0.02,-0.03 -0.02,-0.02 v -0.02 l -0.04,0.02 -0.03,0.01 -0.02,0.02 -0.05,0.04 -0.02,0.02 -0.04,0.03 -0.01,0.02 -0.01,0.02 v 0.03 l -0.01,0.01 -0.04,0.03 -0.02,0.01 v 0.02 l -0.01,0.04 v 0.03 0.03 l -0.03,0.03 -0.03,0.02 -0.07,0.03 -0.05,0.03 -0.04,0.02 -0.01,0.03 v 0.07 l 0.02,0.1 0.02,0.08 -0.02,0.03 -0.01,0.04 -0.02,0.05 v 0.03 l -0.78,1.98 -0.77,1.25 -0.32,0.85 -2.7,0.4 -0.6,0.04 -0.87,0.21 h -0.02 v -0.02 l -0.01,-0.07 -0.03,-0.06 -0.02,-0.05 -0.04,-0.06 -0.03,-0.05 -0.02,-0.05 -0.03,-0.03 -0.04,-0.05 -0.12,-0.13 -0.04,-0.03 -0.06,-0.04 -0.06,-0.07 -0.05,-0.06 -0.11,-0.08 -0.03,-0.04 -0.02,-0.02 h -0.01 l -0.07,-0.04 -0.06,-0.04 -0.06,-0.03 -0.06,-0.05 -0.04,-0.03 -0.11,-0.07 -0.07,-0.04 -0.08,-0.03 h -0.01 l -0.04,-0.02 -0.02,-0.01 h -0.01 l -0.03,-0.01 -0.04,-0.01 -0.06,-0.03 -0.07,-0.04 -0.06,-0.04 -0.08,-0.06 -0.05,-0.05 -0.04,-0.05 -0.05,-0.06 -0.04,-0.05 -0.06,-0.06 -0.03,-0.06 -0.05,-0.08 -0.07,-0.12 -0.05,-0.06 -0.03,-0.02 -0.02,-0.02 -0.03,-0.05 -0.03,-0.05 -0.02,-0.05 -0.05,-0.07 -0.04,-0.03 -0.02,-0.03 -0.01,-0.01 -0.01,-0.01 -0.01,-0.02 v -0.01 h -0.01 l -0.02,-0.01 -0.04,-0.01 -0.04,-0.02 v 0 h -0.01 l -0.01,-0.01 v -0.01 -0.01 l 0.01,-0.01 0.01,-0.02 0.02,-0.04 0.02,-0.03 v -0.01 l -0.01,-0.01 -0.02,-0.01 -0.01,-0.01 -0.01,-0.01 h -0.02 -0.01 l -0.01,-0.01 h -0.01 l -0.01,-0.01 -0.01,-0.01 -0.02,-0.02 -0.01,-0.01 -0.01,-0.02 -0.02,-0.01 -0.03,-0.03 0.01,-0.03 0.03,-0.06 0.03,-0.07 0.04,-0.07 0.04,-0.06 0.03,-0.05 0.04,-0.05 0.01,-0.02 0.03,-0.03 0.04,-0.03 0.03,-0.02 0.04,-0.01 0.03,-0.01 0.03,-0.02 0.14,-0.11 0.03,-0.03 0.04,-0.05 0.05,-0.07 0.03,-0.05 0.06,-0.1 0.04,-0.09 0.02,-0.05 0.01,-0.02 0.02,-0.03 0.02,-0.03 0.02,-0.05 0.03,-0.03 0.03,-0.03 0.04,-0.05 0.01,-0.02 0.02,-0.02 0.01,-0.03 0.01,-0.04 v -0.04 -0.04 l -0.01,-0.05 v -0.06 -0.07 l 0.01,-0.03 0.01,-0.03 0.02,-0.02 0.02,-0.02 0.02,-0.01 0.02,-0.01 0.04,-0.02 0.06,-0.03 0.05,-0.02 0.02,-0.02 0.03,-0.02 0.02,-0.03 0.02,-0.02 0.01,-0.02 0.01,-0.04 0.01,-0.03 0.01,-0.02 0.01,-0.03 0.01,-0.02 0.01,-0.03 0.02,-0.03 0.01,-0.02 0.01,-0.03 0.01,-0.02 0.05,-0.05 0.07,-0.11 0.03,-0.04 0.03,-0.04 v -0.01 l 0.03,-0.05 0.02,-0.05 0.01,-0.05 0.02,-0.09 0.02,-0.07 0.02,-0.08 0.01,-0.07 0.02,-0.08 0.03,-0.29 0.06,-0.74 0.01,-0.01 0.08,-0.13 0.09,-0.13 0.05,-0.06 0.39,-1.23 v -0.01 l 0.03,-0.08 0.03,-0.11 0.05,-0.14 0.01,-0.03 v -0.01 l 0.02,-0.03 0.03,-0.03 0.02,-0.03 0.04,-0.03 0.1,-0.09 0.03,-0.02 0.03,-0.02 0.05,-0.05 0.06,-0.06 0.06,-0.05 0.03,-0.04 0.04,-0.03 0.04,-0.03 0.03,-0.03 0.03,-0.01 0.04,-0.01 h 0.05 0.03 0.02 0.03 0.05 l 0.02,0.01 0.03,0.01 0.03,-0.01 0.04,-0.01 0.11,-0.05 0.14,-0.05 0.02,-0.01 0.06,-0.02 0.04,-0.03 0.05,-0.05 0.09,-0.14 0.09,-0.12 0.02,-0.02 0.02,-0.02 0.03,-0.03 0.02,-0.01 0.02,-0.01 0.02,-0.02 0.04,-0.01 0.05,-0.02 0.03,-0.02 0.02,-0.01 0.02,-0.01 0.02,-0.02 0.03,-0.01 0.03,-0.03 0.06,-0.06 0.03,-0.04 0.03,-0.05 0.08,-0.16 0.08,-0.16 0.03,-0.06 0.01,-0.01 0.03,-0.05 0.02,-0.04 0.03,-0.07 0.01,-0.02 0.02,-0.03 0.01,-0.02 0.03,-0.06 0.04,-0.09 0.02,-0.06 0.01,-0.02 v -0.02 -0.02 l 0.01,-0.04 v -0.03 -0.02 l -0.01,-0.02 v -0.02 l -0.01,-0.02 v -0.02 -0.01 -0.02 l 0.01,-0.02 v -0.03 -0.03 -0.02 l 0.01,-0.02 v -0.02 -0.03 -0.02 -0.01 l -0.01,-0.01 v -0.02 l -0.02,-0.02 -0.02,-0.03 -0.02,-0.02 -0.02,-0.01 -0.02,-0.01 -0.03,-0.02 -0.03,-0.01 h -0.02 l -0.02,-0.01 h -0.02 -0.03 -0.02 -0.02 -0.01 -0.01 -0.03 l -0.03,-0.01 -0.04,-0.01 -0.02,-0.02 -0.02,-0.01 -0.04,-0.04 -0.01,-0.02 -0.01,-0.02 -0.01,-0.02 -0.01,-0.03 -0.03,-0.08 -0.03,-0.06 -0.03,-0.12 -0.03,-0.07 -0.03,-0.06 -0.02,-0.02 -0.02,-0.03 -0.03,-0.03 -0.02,-0.02 -0.04,-0.03 -0.05,-0.04 -0.04,-0.04 -0.03,-0.03 -0.02,-0.02 -0.08,-0.06 -0.05,-0.05 -0.02,-0.02 -0.06,-0.05 -0.05,-0.04 -0.04,-0.04 -0.04,-0.08 -0.02,-0.07 -0.02,-0.05 -0.01,-0.04 -0.01,-0.03 v -0.01 l -0.01,-0.01 -0.01,-0.03 -0.01,-0.02 -0.02,-0.03 -0.02,-0.03 -0.03,-0.03 -0.03,-0.02 -0.03,-0.02 -0.02,-0.02 -0.01,-0.01 -0.02,-0.01 -0.01,-0.02 -0.01,-0.01 -0.01,-0.01 -0.02,-0.02 -0.01,-0.02 -0.02,-0.03 v -0.02 l -0.01,-0.04 v -0.02 0 -0.02 l 0.01,-0.01 v -0.03 l 0.01,-0.02 0.02,-0.03 v -0.01 l 0.01,-0.01 0.01,-0.02 0.01,-0.02 0.01,-0.02 0.01,-0.02 v -0.01 l 0.01,-0.03 0.01,-0.03 0.01,-0.04 0.01,-0.03 v -0.04 l 0.02,-0.05 v -0.01 -0.02 -0.02 l -0.01,-0.03 v -0.01 -0.01 l -0.01,-0.01 v -0.02 l -0.01,-0.04 -0.01,-0.02 -0.01,-0.03 -0.01,-0.03 -0.01,-0.03 v -0.03 l 0.01,-0.03 v -0.02 -0.01 l 0.01,-0.02 0.01,-0.01 0.02,-0.01 0.02,-0.03 0.02,-0.03 0.01,-0.01 v -0.01 -0.01 l 0.01,-0.03 v -0.03 -0.01 -0.01 l 0.01,-0.01 0.01,-0.02 0.01,-0.03 0.02,-0.04 0.03,-0.05 0.03,-0.05 0.03,-0.08 v -0.06 l 0.01,-0.06 v -0.05 l -0.02,-0.08 -0.04,-0.09 -0.02,-0.02 -0.02,-0.03 -0.01,-0.01 -0.07,-0.11 -0.08,-0.11 -0.05,-0.09 -0.01,-0.04 -0.01,-0.03 v -0.03 l 0.01,-0.03 v -0.03 l 0.01,-0.03 0.01,-0.02 0.02,-0.04 0.03,-0.05 0.03,-0.06 0.02,-0.05 0.01,-0.03 0.01,-0.03 v -0.03 -0.02 l 0.01,-0.03 0.01,-0.02 0.01,-0.04 0.01,-0.04 0.03,-0.05 0.03,-0.05 0.05,-0.07 v -0.03 -0.01 -0.03 l -0.01,-0.03 -0.02,-0.04 v -0.04 -0.04 l 0.01,-0.03 v -0.04 l 0.01,-0.05 0.01,-0.05 v -0.04 l -0.01,-0.04 -0.01,-0.02 -0.02,-0.02 -0.02,-0.01 -0.04,-0.01 -0.04,-0.02 -0.03,-0.01 -0.03,-0.01 -0.03,0.01 h -0.01 -0.03 l -0.01,-0.01 h -0.04 l -0.07,-0.01 -0.09,-0.01 h -0.07 -0.04 -0.03 -0.06 l -0.06,0.02 h -0.04 l -0.06,0.02 -0.06,0.01 h -0.04 l -0.03,-0.01 -0.02,-0.01 -0.02,-0.02 -0.01,-0.02 -0.01,-0.02 v -0.04 l -0.01,-0.03 -0.01,-0.03 -0.02,-0.04 -0.02,-0.04 -0.01,-0.03 -0.02,-0.05 -0.02,-0.03 -0.04,-0.05 -0.04,-0.07 -0.04,-0.05 -0.03,-0.04 -0.03,-0.02 -0.04,-0.03 -0.05,-0.03 -0.05,-0.04 -0.04,-0.06 -0.03,-0.04 -0.02,-0.03 -0.04,-0.06 -0.02,-0.04 -0.01,-0.02 -0.08,-0.09 -0.06,-0.06 -0.02,-0.05 v -0.02 l -0.01,-0.02 v -0.01 -0.04 l -0.01,-0.07 -0.01,-0.07 -0.01,-0.07 -0.01,-0.05 -0.02,-0.06 v -0.01 l -0.02,-0.05 -0.01,-0.05 -0.02,-0.03 -0.02,-0.06 -0.04,-0.09 -0.04,-0.07 -0.03,-0.05 -0.05,-0.05 -0.04,-0.04 -0.03,-0.01 h -0.04 -0.03 -0.02 -0.02 l -0.02,0.01 -0.02,0.01 -0.02,0.02 -0.02,0.03 -0.02,0.02 v 0.02 l -0.02,0.03 -0.01,0.06 -0.03,0.06 -0.02,0.07 -0.02,0.06 -0.01,0.01 -0.02,0.05 v 0.06 l -0.01,0.04 0.01,0.03 v 0.03 l -0.01,0.06 v 0.06 l -0.01,0.03 -0.01,0.03 -0.01,0.02 -0.03,0.03 -0.05,0.02 -0.03,0.01 h -0.06 -0.05 l -0.06,-0.01 -0.05,-0.01 -0.03,-0.01 -0.06,-0.04 -0.04,-0.04 -0.03,-0.04 v -0.02 -0.02 -0.05 -0.05 -0.05 l 0.01,-0.03 v -0.03 l 0.01,-0.06 0.02,-0.07 0.01,-0.06 v -0.03 -0.05 l -0.01,-0.05 -0.01,-0.03 -0.01,-0.03 -0.01,-0.02 -0.03,-0.03 -0.02,-0.03 -0.02,-0.02 h -0.02 l -0.03,-0.01 h -0.03 l -0.06,-0.01 h -0.08 -0.02 -0.02 l -0.09,-0.02 -0.06,-0.01 -0.05,-0.02 -0.1,-0.04 -0.09,-0.03 -0.06,-0.03 h -0.01 -0.01 l -0.01,-0.01 -0.05,-0.01 -0.07,-0.02 -0.05,-0.02 -0.05,-0.01 -0.03,-0.01 h -0.04 -0.03 -0.09 -0.04 l -0.05,0.01 -0.03,0.01 -0.02,0.02 -0.02,0.01 -0.01,0.02 -0.02,0.01 v 0.02 l -0.01,0.03 v 0.04 0.02 0.03 0.05 0.03 0.02 0.03 l -0.01,0.03 -0.01,0.05 -0.01,0.03 -0.01,0.06 -0.03,0.07 -0.01,0.04 -0.01,0.03 -0.02,0.05 -0.01,0.04 -0.01,0.04 v 0.02 0.02 l -0.02,0.03 -0.01,0.04 -0.02,0.03 -0.01,0.04 -0.01,0.04 -0.02,0.03 -0.04,0.06 -0.04,0.06 -0.04,0.04 -0.03,0.02 -0.03,0.02 -0.03,0.01 -0.03,0.01 h -0.02 -0.04 -0.04 -0.05 l -0.04,-0.01 -0.01,-0.01 -0.02,-0.01 -0.02,-0.01 -0.03,-0.02 -0.03,-0.03 -0.02,-0.02 -0.02,-0.03 -0.03,-0.05 -0.03,-0.04 -0.02,-0.01 -0.03,-0.02 h -0.02 l -0.02,-0.01 h -0.03 l -0.04,0.01 h -0.05 -0.04 l -0.06,0.01 h -0.11 -0.09 -0.07 l -0.03,-0.01 -0.04,-0.01 -0.02,-0.02 -0.03,-0.03 -0.01,-0.02 -0.02,-0.06 -0.03,-0.03 -0.01,-0.02 -0.03,-0.04 -0.01,-0.01 -0.01,-0.03 -0.04,-0.04 -0.02,-0.04 v -0.02 l 0.01,-0.04 v -0.04 l 0.01,-0.04 v -0.06 l -0.01,-0.06 v -0.04 l -0.01,-0.04 -0.02,-0.05 -0.02,-0.03 -0.02,-0.03 -0.03,-0.02 -0.02,-0.01 -0.04,-0.01 -0.02,-0.01 h -0.02 -0.03 l -0.04,0.01 -0.05,0.02 -0.04,0.02 -0.01,0.01 -0.02,0.02 -0.04,0.03 -0.04,0.02 h -0.03 l -0.03,0.02 -0.04,0.01 h -0.03 -0.01 -0.04 -0.01 -0.03 l -0.04,-0.01 -0.05,-0.02 -0.06,-0.02 -0.06,-0.03 -0.05,-0.05 -0.06,-0.06 -0.03,-0.04 -0.02,-0.03 -0.01,-0.03 -0.02,-0.03 -0.02,-0.04 -0.03,-0.04 v -0.02 -0.02 l 0.01,-0.02 0.01,-0.02 0.02,-0.03 0.02,-0.03 0.02,-0.03 0.01,-0.03 0.02,-0.04 0.01,-0.02 v -0.04 l 0.02,-0.04 0.01,-0.04 v -0.02 l 0.01,-0.03 v -0.03 l 0.02,-0.05 0.01,-0.06 0.01,-0.08 0.01,-0.05 0.01,-0.06 v -0.02 -0.02 -0.04 l -0.01,-0.06 v -0.03 -0.02 l -0.01,-0.03 -0.02,-0.02 -0.02,-0.03 -0.02,-0.02 -0.02,-0.02 -0.02,-0.01 -0.04,-0.03 -0.03,-0.01 -0.05,-0.02 -0.06,-0.02 -0.04,-0.02 -0.04,-0.01 h -0.04 -0.03 -0.02 l -0.03,-0.01 -0.03,-0.02 -0.02,-0.04 -0.03,-0.03 -0.01,-0.02 v -0.01 l 0.01,-0.03 v -0.02 l 0.01,-0.02 0.02,-0.05 0.02,-0.07 0.02,-0.04 0.01,-0.02 0.02,-0.03 0.03,-0.03 0.03,-0.03 0.02,-0.03 0.03,-0.03 0.04,-0.05 0.03,-0.04 0.05,-0.05 0.03,-0.04 0.02,-0.04 0.02,-0.03 0.01,-0.03 v -0.02 h 0.03 l 0.24,-0.09 0.11,0.01 0.02,-0.01 0.02,-0.01 h 0.03 l 0.02,-0.01 h 0.03 l 0.01,-0.01 0.02,0.01 0.02,-0.01 h 0.03 0.02 l 0.02,-0.01 0.03,-0.01 h 0.02 L 318,172 h 0.02 0.02 l 0.01,-0.01 h 0.01 0.01 0.01 0.03 v 0 h 0.03 l 0.03,-0.01 h 0.01 l 0.01,-0.01 0.02,-0.01 h 0.02 l 0.02,-0.01 h 0.01 l 0.02,-0.01 h 0.01 0.02 l 0.02,0.01 h 0.03 0.01 l 0.02,-0.01 0.03,-0.01 h 0.01 l 0.01,-0.01 0.02,-0.01 h 0.02 l 0.01,-0.01 h 0.02 l 0.02,-0.01 h 0.03 0.01 l 0.03,-0.01 0.02,-0.01 h 0.01 0.03 l 0.01,-0.01 h 0.03 0.02 l 0.02,-0.03 0.23,-0.25 0.62,-1.33 0.03,-0.23 -0.04,-0.1 0.29,-0.28 0.1,-0.17 0.07,-0.14 0.02,-0.07 0.53,-0.81 0.53,-0.33 0.04,-0.04 h 0.24 l 0.57,-0.23 0.29,-0.18 0.25,0.09 0.54,-0.35 0.59,0.16 0.17,0.32 0.22,-0.1 0.35,-0.07 0.38,-0.01 0.41,0.01 0.3,0.01 0.27,0.01 0.19,-0.08 z"
       id="path74" />
  </g>
</svg>
