<?xml version="1.0" encoding="UTF-8" standalone="no"?>
<svg
   version="1.2"
   width="800"
   height="642"
   viewBox="0 0 800 642"
   stroke-linecap="round"
   stroke-linejoin="round"
   id="svg68"
   sodipodi:docname="Zumaia.svg"
   inkscape:version="1.1.2 (b8e25be833, 2022-02-05)"
   xmlns:inkscape="http://www.inkscape.org/namespaces/inkscape"
   xmlns:sodipodi="http://sodipodi.sourceforge.net/DTD/sodipodi-0.dtd"
   xmlns="http://www.w3.org/2000/svg"
   xmlns:svg="http://www.w3.org/2000/svg">
  <defs
     id="defs72" />
  <sodipodi:namedview
     id="namedview70"
     pagecolor="#ffffff"
     bordercolor="#666666"
     borderopacity="1.0"
     inkscape:pageshadow="2"
     inkscape:pageopacity="0.0"
     inkscape:pagecheckerboard="0"
     showgrid="false"
     inkscape:zoom="1.3146417"
     inkscape:cx="399.72867"
     inkscape:cy="359.03318"
     inkscape:window-width="1848"
     inkscape:window-height="1043"
     inkscape:window-x="72"
     inkscape:window-y="0"
     inkscape:window-maximized="1"
     inkscape:current-layer="svg68" />
  <g
     id="Zumaia"
     transform="matrix(29.173578,0,0,29.173578,-9625.0644,-2800.4536)">
    <path
       d="m 343.97,101.17 -0.04,0.23 1.37,2.21 2.14,0.82 -0.03,0.16 1.9,0.71 1.21,0.88 0.47,0.88 0.89,0.1 h 0.02 0.01 0.01 0.01 0.01 v 0 h 0.01 l 0.01,-0.01 v 0 h 0.01 0.01 l 0.01,0.01 v 0 l 0.01,0.01 v 0 l 0.01,0.01 h 0.01 v 0.01 l 0.01,0.01 0.01,0.01 0.01,0.01 v 0.01 l 0.01,0.01 v 0.01 0 l 0.01,0.01 v 0.01 h 0.01 v 0.01 0.01 l 0.01,0.02 v 0 0.01 l 0.01,0.01 v 0 0.01 l 0.01,0.01 v 0.01 0 0.01 0.01 h 0.01 v 0.01 0.01 0.01 0 0.01 0.01 0 l 0.01,0.01 v 0.01 0 l 0.01,0.01 v 0.01 l 0.01,0.01 v 0 0.01 0.01 h 0.01 v 0.01 l 0.01,0.01 v 0 l 0.01,0.01 v 0 l 0.01,0.01 v 0 l 0.05,0.06 0.03,0.02 0.02,0.03 0.05,0.06 0.05,0.07 0.03,0.03 0.03,0.03 0.05,0.04 0.08,0.08 0.05,0.05 0.06,0.04 0.06,0.04 0.11,0.06 0.09,0.03 0.11,0.05 0.07,0.02 0.11,0.02 0.23,0.33 0.07,0.04 0.03,0.02 0.08,0.06 0.07,0.06 0.01,0.04 v 0.06 l 0.01,0.08 -0.01,0.02 -0.02,0.08 -0.04,0.1 -0.04,0.12 -0.05,0.1 -0.03,0.05 -0.04,0.08 -0.03,0.03 -0.01,0.02 -0.02,0.03 -0.01,0.26 -0.12,0.51 0.04,0.67 0.03,0.33 0.17,0.28 0.41,-0.31 0.17,0.05 1.15,0.74 -0.8,0.43 h -0.01 l -0.03,-0.02 -0.04,-0.02 -0.02,-0.02 -0.03,-0.01 -0.05,-0.02 -0.03,-0.01 -0.02,-0.02 -0.02,-0.01 -0.03,-0.01 -0.05,-0.04 -0.03,-0.02 -0.06,-0.02 -0.04,-0.02 -0.04,-0.01 h -0.02 l -0.04,-0.01 -0.04,0.01 h -0.04 -0.05 -0.03 l -0.05,0.01 h -0.01 l -0.02,0.01 h -0.03 l -0.02,0.01 -0.02,0.02 -0.03,0.02 -0.01,0.02 -0.03,0.02 h -0.01 l -0.01,0.01 -0.02,0.01 -0.02,0.01 -0.01,0.01 h -0.02 l -0.03,0.01 -0.06,0.02 -0.04,0.01 -0.03,0.02 -0.05,-0.01 h -0.03 -0.03 -0.02 -0.02 l -0.03,0.01 h -0.03 l -0.04,0.02 -0.02,0.02 -0.04,0.02 -0.03,0.02 h -0.02 -0.03 -0.03 -0.03 -0.04 l -0.02,-0.01 -0.01,-0.01 -0.03,-0.03 -0.03,-0.02 -0.04,-0.02 -0.04,-0.01 -0.02,-0.01 -0.03,-0.01 h -0.04 l -0.02,-0.01 h -0.03 l -0.03,0.01 h -0.02 l -0.02,0.01 -0.03,0.01 -0.04,0.01 -0.05,0.02 -0.07,0.03 -0.06,0.01 -0.03,0.01 h -0.03 -0.03 -0.03 -0.03 l -0.04,-0.01 -0.06,-0.01 -0.05,-0.01 h -0.02 -0.01 l -0.07,-0.02 h -0.06 -0.06 -0.05 -0.03 -0.04 -0.02 l -0.02,0.01 h -0.01 l -0.02,0.01 -0.02,0.01 -0.04,0.01 -0.01,0.01 -0.03,0.01 -0.03,0.02 h -0.04 l -0.03,0.01 h -0.01 -0.01 -0.03 -0.03 -0.02 -0.02 -0.05 l -0.07,-0.01 h -0.04 -0.01 l -0.03,0.01 h -0.01 l -0.03,0.01 -0.02,0.01 -0.02,0.02 h -0.01 l -0.01,0.02 -0.02,0.01 -0.01,0.02 -0.01,0.02 -0.03,0.03 -0.01,0.02 -0.02,0.04 -0.02,0.02 -0.03,0.04 -0.03,0.03 -0.02,0.02 -0.02,0.03 -0.01,0.01 -0.02,0.03 -0.03,0.03 -0.03,0.03 -0.02,0.01 -0.01,0.01 -0.03,0.01 -0.01,0.01 -0.04,0.02 -0.03,0.01 -0.03,0.01 -0.06,0.01 -0.02,0.01 h -0.01 -0.01 -0.01 l -0.01,0.01 h -0.01 -0.01 l -0.01,0.01 h -0.01 -0.01 l -0.01,0.01 h -0.02 -0.01 l -0.01,0.01 -0.02,0.01 h -0.01 -0.01 l -0.01,0.01 h -0.01 -0.01 l -0.01,0.01 h -0.01 -0.01 v 0 h -0.01 -0.01 l -0.01,0.01 h -0.01 -0.01 -0.01 -0.01 -0.01 -0.01 v 0 h -0.01 -0.01 -0.01 -0.01 -0.01 -0.01 -0.01 -0.01 -0.01 -0.01 v -0.01 h -0.01 -0.02 -0.01 -0.01 l -0.02,-0.01 h -0.01 -0.02 -0.01 -0.01 l -0.02,-0.01 h -0.01 -0.01 -0.01 l -0.02,-0.01 h -0.01 l -0.02,-0.01 h -0.01 -0.01 l -0.01,-0.01 h -0.01 -0.01 l -0.01,-0.01 h -0.01 l -0.02,-0.01 h -0.01 l -0.01,-0.01 h -0.01 l -0.01,-0.01 h -0.02 l -0.01,-0.01 -0.01,-0.01 -0.01,-0.01 h -0.02 v -0.01 l -0.01,-0.01 v 0 l -0.01,-0.01 h -0.01 l -0.01,-0.01 v -0.01 l -0.01,-0.01 h -0.01 l -0.01,-0.01 -0.01,-0.01 -0.01,-0.01 h -0.01 l -0.02,-0.01 -0.01,-0.01 -0.01,-0.01 -0.02,-0.02 -0.01,-0.01 -0.01,-0.02 -0.02,-0.01 -0.01,-0.01 -0.01,-0.02 -0.01,-0.01 -0.01,-0.02 -0.01,-0.01 -0.01,-0.01 -0.01,-0.01 -0.01,-0.01 -0.01,-0.02 -0.01,-0.01 -0.01,-0.01 v -0.01 l -0.01,-0.02 -0.01,-0.01 v -0.01 l -0.01,-0.01 v -0.02 l -0.01,-0.01 v -0.01 l -0.01,-0.01 v -0.02 l -0.01,-0.01 v -0.01 -0.01 l -0.01,-0.01 v -0.01 0 -0.01 -0.01 l -0.01,-0.01 v -0.01 -0.01 l 0.01,-0.01 v -0.01 -0.01 -0.01 0 -0.01 l 0.01,-0.01 v -0.02 -0.01 l 0.01,-0.01 v -0.01 -0.02 -0.01 0 l -0.01,-0.01 v -0.01 l -0.01,-0.01 v -0.01 h -0.01 l -0.01,-0.01 v -0.01 h -0.01 -0.01 l -0.01,-0.01 v 0 L 349,112.33 h -0.01 l -0.01,-0.01 h -0.01 -0.02 -0.01 l -0.01,-0.01 h -0.02 l -0.01,-0.01 h -0.01 v 0 l -0.01,-0.01 h -0.01 -0.01 l -0.01,-0.01 v 0 h -0.01 l -0.01,-0.01 -0.03,-0.02 -0.03,-0.02 -0.04,-0.04 -0.04,-0.04 -0.04,-0.04 -0.03,-0.04 v -0.01 l -0.01,-0.01 -0.01,-0.04 -0.01,-0.01 v 0 l -0.01,-0.01 v -0.01 h -0.01 v -0.01 -0.01 l -0.01,-0.01 v -0.01 -0.01 l -0.01,-0.01 -0.01,-0.01 -0.02,-0.01 -0.01,-0.01 -0.01,-0.01 v 0 l -0.01,-0.01 h -0.01 v -0.01 h -0.01 l -0.01,-0.01 v 0 h -0.01 l -0.01,-0.01 h -0.01 v -0.01 h -0.02 -0.01 l -0.01,-0.01 h -0.01 -0.01 -0.01 l -0.01,-0.01 h -0.01 -0.01 l -0.01,-0.01 h -0.01 l -0.01,-0.01 h -0.01 l -0.01,-0.01 -0.01,-0.01 -0.04,-0.02 -0.05,-0.46 -0.34,-0.18 h -0.01 -0.01 -0.01 l -0.01,0.01 h -0.01 -0.01 -0.01 v 0 l -0.01,0.01 h -0.01 -0.01 v 0 h -0.01 -0.01 -0.01 l -0.02,0.01 -0.02,0.01 h -0.03 l -0.02,0.01 h -0.02 l -0.03,0.01 -0.03,0.01 -0.03,0.01 -0.02,0.01 -0.03,0.01 h -0.01 l -0.02,0.01 -0.02,0.01 h -0.01 l -0.02,0.01 h -0.01 v 0 h -0.02 v 0 l -0.01,0.01 h -0.01 -0.01 l -0.01,0.01 v 0 h -0.01 l -0.01,0.01 h -0.01 -0.01 v 0.01 h -0.01 l -0.01,0.01 h -0.01 l -0.01,0.01 h -0.01 -0.01 l -0.02,0.01 h -0.02 l -0.02,0.01 h -0.01 -0.02 l -0.02,0.01 h -0.01 l -0.02,0.01 h -0.01 -0.02 l -0.01,0.01 h -0.01 l -0.01,0.01 h -0.01 -0.01 -0.01 l -0.01,0.01 v 0 h -0.01 l -0.01,0.01 h -0.01 -0.01 -0.01 v 0 l -0.01,0.01 h -0.01 -0.01 -0.01 -0.01 -0.01 -0.01 -0.03 -0.02 -0.03 -0.02 -0.03 -0.01 v 0 h -0.01 -0.01 -0.01 -0.01 -0.01 -0.04 l -0.03,-0.01 -0.03,0.03 -0.03,0.02 -0.02,0.04 -0.07,0.04 -0.02,0.02 -0.04,0.03 -0.02,0.02 -0.04,0.02 -0.02,0.01 -0.03,0.01 -0.03,0.02 h -0.02 l -0.04,0.03 -0.04,0.01 -0.03,0.02 h -0.03 -0.03 -0.03 -0.03 -0.03 l -0.02,0.01 -0.03,0.01 -0.04,0.01 -0.06,0.03 -0.06,0.02 -0.03,0.01 h -0.01 l -0.03,0.01 -0.05,0.01 -0.04,0.02 -0.05,0.02 -0.04,0.02 h -0.02 l -0.02,0.01 -0.02,0.01 -0.03,0.01 -0.03,0.02 -0.03,0.04 -0.03,0.04 -0.05,0.06 -0.05,0.06 -0.04,0.04 -0.03,0.03 -0.03,0.02 -0.02,0.02 -0.02,0.03 -0.05,0.05 -0.04,0.04 -0.03,0.03 -0.04,0.04 -0.01,0.01 -0.03,0.04 -0.06,0.08 -0.05,0.06 -0.03,0.02 -0.03,0.04 -0.04,0.04 -0.03,0.04 -0.03,0.03 -0.06,0.09 -0.04,0.05 -0.03,0.03 -0.03,0.04 -0.03,0.02 -0.07,0.07 -0.03,0.03 -0.02,0.03 -0.04,0.04 -0.03,0.03 -0.04,0.03 -0.02,0.02 -0.01,0.02 -0.04,0.03 -0.04,0.03 -0.03,0.02 -0.02,0.01 -0.03,0.02 -0.03,0.01 -0.01,0.01 -0.04,0.02 h -0.04 l -0.05,0.01 h -0.05 -0.07 l -0.04,-0.01 h -0.05 -0.07 l -0.05,0.01 -0.04,0.01 h -0.06 l -0.04,0.01 h -0.05 l -0.03,0.01 -0.13,0.02 -0.05,-0.03 -0.03,-0.02 -0.05,-0.03 h -0.01 l -0.08,-0.36 -0.58,0.38 -0.67,0.44 -0.24,-1.94 v -0.02 l 0.01,-0.02 0.02,-0.03 0.01,-0.04 0.25,0.11 0.02,0.01 0.06,0.02 0.07,0.04 0.03,0.02 0.05,0.03 0.05,0.03 0.04,0.02 0.05,0.03 0.06,0.05 0.05,0.02 0.08,0.04 0.03,0.01 0.19,-1.36 -0.27,-0.8 -0.01,-0.02 -0.08,-0.03 -0.04,-0.02 -0.03,-0.02 -0.06,-0.02 -0.05,-0.02 -0.07,-0.01 -0.06,-0.02 -0.05,-0.03 -0.05,-0.03 -0.01,-0.02 -0.02,-0.03 -0.01,-0.05 v -0.01 -0.04 -0.12 l -0.01,-0.07 -0.06,-0.07 -0.03,-0.08 -0.02,-0.08 -0.01,-0.09 -0.01,-0.08 v -0.02 l 0.01,-0.07 0.01,-0.08 0.03,-0.09 0.02,-0.1 0.06,-0.12 0.04,-0.07 -0.2,-0.29 -0.21,0.21 -0.42,0.15 -0.13,0.22 -0.01,0.02 v 0.01 0.01 l -0.01,0.01 v 0.01 0.01 h -0.01 v 0.02 h -0.01 v 0.01 0.01 0.01 0.01 l -0.01,0.01 v 0.01 0 0.01 0.01 0 0.01 0.01 0.01 0.01 0.01 0.01 0.01 0 0.01 0.01 0 0.02 0.01 0 0.01 0.01 0.01 0.01 l 0.01,0.01 v 0.01 0.01 0.01 0 0.01 l 0.01,0.01 -0.01,0.01 v 0.01 0.01 0 0.01 0.01 0.01 l -0.01,0.01 v 0.01 l 0.01,0.01 v 0.01 0 0.01 0.01 l -0.01,0.01 v 0.01 0.01 0 l -0.01,0.01 v 0.01 0.01 0.01 l -0.01,0.01 v 0.01 0.01 0 0.01 0.01 0 0.01 l -0.01,0.01 v 0.01 0.01 0.01 0 0.01 l -0.01,0.01 v 0.02 0 0.01 0.01 0.01 0.01 l -0.01,0.01 v 0.01 0.01 0.01 0.01 h -0.01 v 0.01 0.01 0.01 0.01 l -0.01,0.01 v 0.01 l -0.01,0.01 v 0.01 0 l -0.01,0.02 -0.01,0.01 v 0 0.01 l -0.01,0.01 v 0.01 l -0.01,0.01 v 0.02 l -0.01,0.01 -0.01,0.01 -0.01,0.01 -0.01,0.02 -0.01,0.01 v 0.01 l -0.01,0.01 v 0 l -0.01,0.01 v 0.01 l -0.01,0.01 v 0.01 l -0.01,0.01 v 0.01 l 0.21,0.16 -0.05,0.66 -0.1,0.23 -0.64,0.01 -0.63,-0.89 -0.19,-0.35 -0.34,-0.81 -0.35,0.05 v -0.04 -0.02 l -0.01,-0.03 -0.02,-0.03 -0.02,-0.04 -0.01,-0.03 v -0.01 l -0.01,-0.02 0.01,-0.03 v -0.03 -0.04 -0.03 l -0.01,-0.05 -0.02,-0.07 -0.01,-0.05 -0.01,-0.02 v -0.05 l -0.01,-0.01 v -0.01 l -0.01,-0.05 v -0.05 l -0.01,-0.02 v -0.02 -0.03 -0.02 -0.02 -0.03 l 0.01,-0.04 0.02,-0.1 0.01,-0.02 0.01,-0.05 0.01,-0.06 0.01,-0.04 0.01,-0.04 0.05,-0.15 0.03,-0.09 0.01,-0.05 0.02,-0.02 0.01,-0.01 v -0.02 l 0.01,-0.02 0.01,-0.02 0.01,-0.02 v -0.03 l 0.01,-0.04 0.01,-0.07 0.01,-0.07 0.01,-0.07 0.01,-0.04 v -0.03 -0.02 l 0.01,-0.02 v -0.01 l 0.01,-0.01 h 0.01 l 0.69,-0.07 -0.3,-0.91 -1.03,-0.45 -0.78,-0.29 -0.35,-0.04 -1.31,-0.42 -0.31,-0.18 -0.28,-0.11 -0.69,-0.09 -0.69,-0.08 -0.26,-0.57 -0.01,-0.01 0.01,-0.02 0.03,-0.01 h 0.04 l 0.03,-0.02 0.03,-0.02 0.04,-0.02 h 0.01 l 0.05,-0.01 0.02,-0.02 0.02,-0.01 0.07,-0.01 h 0.06 l 0.08,-0.02 0.1,-0.02 0.11,-0.01 0.15,-0.04 0.09,-0.02 0.14,-0.03 0.11,-0.02 0.31,-0.12 0.13,-0.06 0.13,-0.06 0.34,-0.16 0.08,-0.03 0.13,-0.07 0.15,-0.08 0.29,-0.14 0.08,-0.04 0.08,-0.04 0.06,-0.02 0.08,-0.03 0.08,-0.03 0.07,-0.02 0.12,-0.03 0.1,-0.02 h 0.04 l 0.06,-0.02 0.07,-0.03 0.06,-0.02 0.06,-0.03 0.02,-0.02 0.03,-0.03 v -0.03 -0.02 l 0.01,-0.03 v -0.02 l 0.01,-0.01 h 0.01 l 0.02,-0.03 0.02,-0.02 0.04,-0.03 0.02,-0.01 0.01,-0.01 0.03,-0.01 0.02,-0.02 -0.01,-0.01 -0.02,-0.01 v -0.01 h 0.01 l 0.03,0.01 0.01,0.01 0.03,0.01 h 0.03 v 0 -0.01 l -0.01,-0.01 -0.02,-0.01 v -0.01 -0.01 h 0.01 l 0.02,0.01 h 0.02 0.02 l 0.01,-0.02 -0.02,-0.01 v -0.01 -0.01 h 0.02 l 0.02,0.01 h 0.02 0.01 0.01 l 0.04,0.01 0.03,0.01 0.02,-0.01 0.03,-0.03 0.02,-0.03 v -0.02 -0.01 L 337.53,102 h -0.01 v -0.01 l -0.01,-0.02 h 0.01 0.03 0.04 0.03 0.03 l 0.02,0.01 h 0.02 l 0.02,-0.01 0.02,-0.02 h 0.02 l 0.03,0.01 0.02,0.01 0.03,0.02 0.01,0.01 h 0.03 0.02 l 0.01,-0.01 0.02,-0.01 0.01,-0.02 -0.01,-0.02 -0.02,-0.02 -0.02,-0.02 -0.03,-0.05 -0.01,-0.01 -0.02,-0.02 -0.02,-0.03 -0.02,-0.01 -0.02,-0.02 v -0.01 l 0.02,0.01 h 0.02 0.02 0.03 l 0.03,0.01 h 0.03 v -0.02 -0.01 l -0.01,-0.01 -0.03,-0.01 -0.01,-0.01 -0.03,-0.02 -0.02,-0.01 -0.03,-0.01 -0.04,-0.03 -0.01,-0.02 -0.01,-0.02 v -0.01 -0.02 h 0.01 0.01 0.02 l 0.02,0.01 0.03,0.01 0.02,0.01 v -0.01 h 0.02 0.02 0.02 0.03 l 0.04,0.01 0.03,0.01 0.02,0.01 0.01,0.01 v 0.02 l 0.01,0.01 h 0.01 l 0.01,-0.02 h 0.02 0.02 0.02 l 0.03,0.01 0.02,0.01 v 0.01 0.02 0.01 h 0.01 0.01 0.02 0.02 0.01 0.01 0.01 0.02 l 0.02,-0.01 0.01,-0.01 h 0.02 0.02 l 0.03,0.01 0.01,0.01 v 0.02 0 l 0.01,0.01 0.01,0.01 v 0 h 0.01 l 0.01,-0.01 0.01,-0.01 h 0.01 0.02 l 0.01,0.01 h 0.02 l 0.02,0.01 0.01,0.02 v 0.01 h 0.01 l 0.02,0.01 h 0.02 0.03 l 0.03,0.01 h 0.03 0.03 l 0.03,0.01 0.03,0.02 0.02,0.01 0.01,0.02 0.01,0.01 h 0.02 l 0.02,0.01 h 0.01 l 0.02,-0.01 h 0.02 0.01 l 0.02,-0.01 0.01,-0.01 h 0.02 l 0.02,0.01 0.02,0.01 0.06,0.03 0.05,0.01 0.02,0.02 0.02,0.01 h 0.01 0.02 0.01 0.02 l 0.03,0.01 0.03,0.01 0.02,0.01 0.02,0.01 0.02,0.01 0.02,0.01 0.01,0.02 h 0.03 l 0.04,-0.01 0.02,-0.01 h 0.03 l 0.02,0.02 0.03,0.02 0.03,0.02 0.05,0.01 0.02,-0.01 0.03,-0.02 0.03,-0.03 0.02,-0.01 0.03,-0.01 h 0.02 l 0.02,-0.01 0.02,-0.04 v -0.03 -0.02 l 0.02,-0.03 0.02,-0.02 0.03,-0.03 0.05,-0.08 0.04,-0.08 0.02,-0.04 0.02,-0.03 0.05,-0.08 0.02,-0.04 v -0.02 -0.16 l 0.01,-0.02 v -0.01 h 0.02 l 0.06,0.01 0.04,0.01 0.02,0.02 h 0.01 l 0.02,-0.01 0.01,-0.02 0.02,-0.03 0.04,-0.05 0.01,-0.01 v -0.02 -0.06 -0.04 l 0.02,-0.09 v -0.06 -0.04 l -0.02,-0.04 -0.02,-0.01 -0.09,-0.06 -0.02,-0.01 -0.02,-0.04 -0.02,-0.03 -0.03,-0.08 -0.03,-0.07 -0.01,-0.01 0.01,-0.01 v -0.01 h 0.02 l 0.08,0.02 h 0.02 l 0.08,-0.03 h 0.02 l 0.05,0.03 0.04,0.01 0.03,0.03 0.04,0.02 h 0.02 0.02 l 0.02,-0.01 0.02,-0.01 0.03,-0.04 h 0.02 l 0.02,-0.01 h 0.01 l 0.02,-0.02 h 0.01 l 0.02,-0.01 0.02,-0.01 0.01,-0.02 0.01,-0.01 0.03,-0.07 v -0.01 l 0.01,-0.02 0.02,-0.01 0.02,-0.01 0.03,0.01 0.04,0.01 0.05,0.02 0.04,0.01 0.03,0.01 h 0.02 0.01 l 0.01,0.01 h 0.04 l 0.03,0.02 h 0.04 l 0.01,0.01 0.01,0.02 h 0.02 0.02 0.02 0.02 l 0.02,-0.01 0.04,0.01 0.03,0.01 0.04,0.02 0.05,0.03 0.03,0.02 0.04,0.01 0.02,0.01 0.08,0.05 0.06,0.02 h 0.07 l 0.06,-0.02 h 0.02 0.02 l 0.02,0.01 h 0.02 l 0.01,0.01 0.01,0.02 0.02,0.01 0.02,0.01 0.07,0.02 0.08,0.01 0.11,0.05 0.07,0.04 0.04,0.04 0.02,0.01 0.03,0.02 h 0.03 l 0.1,-0.01 h 0.02 l 0.02,-0.01 0.05,-0.03 0.02,-0.01 0.07,-0.01 0.04,-0.01 h 0.08 l 0.06,0.01 h 0.02 l 0.01,0.02 0.04,0.04 0.02,0.01 0.02,0.01 h 0.03 0.01 v 0 l 0.02,-0.01 0.02,-0.01 0.02,-0.01 0.03,-0.04 0.03,-0.03 0.02,-0.02 0.02,-0.03 0.02,-0.03 0.01,-0.01 0.02,-0.02 0.03,-0.03 0.02,-0.04 0.02,-0.04 0.01,-0.01 0.02,-0.02 0.01,-0.01 0.03,-0.06 0.01,-0.03 0.01,-0.02 v -0.04 l 0.01,-0.01 v -0.02 -0.01 -0.02 -0.02 l 0.01,-0.02 0.01,-0.03 v -0.01 -0.03 l 0.01,-0.02 v -0.02 l 0.01,-0.02 v -0.01 l 0.02,-0.05 0.01,-0.04 0.02,-0.04 0.01,-0.03 0.01,-0.03 0.01,-0.03 0.01,-0.01 0.01,-0.02 0.01,-0.01 0.01,-0.01 0.01,-0.02 0.02,-0.01 0.01,-0.01 0.02,-0.03 0.01,-0.02 0.01,-0.01 v -0.02 l 0.01,-0.01 0.02,-0.01 0.02,-0.01 0.03,-0.02 0.02,-0.02 0.02,-0.02 0.02,-0.02 0.02,-0.01 0.02,-0.01 0.03,-0.02 0.01,-0.01 0.01,-0.01 0.02,-0.02 0.01,-0.02 0.01,-0.01 0.01,-0.01 0.02,-0.01 h 0.01 0.01 l 0.01,-0.01 0.02,-0.01 h 0.01 l 0.01,-0.01 h 0.02 l 0.01,-0.01 0.01,-0.01 h 0.01 l 0.02,0.01 0.01,0.01 0.01,0.01 0.01,0.02 v 0.01 0.02 0.02 0.02 l -0.01,0.01 -0.01,0.01 -0.01,0.01 h -0.01 l -0.01,-0.01 h -0.02 l -0.01,0.01 h -0.02 l -0.02,0.01 h -0.01 l -0.01,0.01 -0.02,0.01 h -0.01 l -0.01,0.01 -0.02,0.01 h -0.01 l -0.01,0.01 -0.02,0.01 -0.01,0.01 -0.01,0.01 -0.02,0.01 -0.01,0.01 h -0.01 l -0.01,0.02 h -0.01 l -0.02,0.01 -0.01,0.02 -0.01,0.01 -0.01,0.01 -0.01,0.01 -0.01,0.01 -0.01,0.01 -0.01,0.01 -0.01,0.01 -0.01,0.01 -0.01,0.02 -0.01,0.01 -0.01,0.01 -0.01,0.01 -0.01,0.02 -0.01,0.01 -0.01,0.01 v 0.01 l -0.01,0.02 -0.01,0.01 -0.01,0.02 v 0.01 l -0.01,0.01 -0.01,0.02 v 0.01 l -0.01,0.02 -0.01,0.01 v 0.01 l -0.01,0.02 v 0.01 l -0.01,0.02 v 0.01 l -0.01,0.02 v 0.01 l -0.05,0.19 v 0.02 0.01 0.01 l -0.01,0.02 v 0.01 0.02 l -0.01,0.01 v 0.01 0.01 l -0.01,0.01 v 0.01 0.01 l -0.01,0.01 v 0.01 l -0.01,0.01 v 0.01 h -0.01 l -0.01,0.03 -0.01,0.01 -0.01,0.01 v 0.02 h -0.01 l -0.02,0.03 -0.01,0.02 -0.02,0.01 -0.07,0.08 -0.22,0.25 -0.01,0.03 -0.01,0.01 -0.07,0.08 -0.07,0.07 -0.01,0.02 -0.02,0.02 -0.02,0.02 -0.03,0.02 -0.04,0.04 -0.07,0.06 -0.15,0.13 -0.13,0.11 -0.01,0.01 -0.01,0.01 -0.07,0.06 -0.19,0.17 -0.14,0.13 -0.07,0.07 -0.01,0.02 -0.02,0.02 -0.07,0.09 -0.07,0.11 -0.07,0.1 h -0.01 l 0.02,0.01 -0.04,0.07 -0.01,0.01 -0.01,0.02 -0.06,0.1 v 0 l -0.02,0.08 -0.02,0.13 -0.07,0.07 v 0.01 l -0.01,0.01 -0.17,0.21 h -0.01 v 0.01 l -0.07,0.09 -0.02,0.01 0.06,0.07 0.01,0.01 v 0 l 0.01,0.01 0.01,0.01 v 0.01 h 0.01 v 0.01 l 0.01,0.01 0.25,0.35 -0.02,0.01 0.07,0.07 0.05,0.04 0.41,0.16 0.02,-0.03 0.14,0.07 0.01,0.01 0.29,-0.29 -0.07,-0.04 0.06,-0.07 0.03,-0.04 h -0.01 l -0.01,-0.01 -0.05,0.04 -0.01,0.02 -0.02,-0.01 -0.01,-0.01 -0.01,-0.01 -0.01,-0.01 -0.01,-0.01 -0.02,-0.02 v 0 l -0.02,-0.02 v -0.01 l -0.03,-0.02 -0.01,-0.01 -0.02,-0.02 h -0.01 v -0.01 l -0.08,0.08 -0.07,0.06 -0.01,-0.01 0.02,-0.02 0.07,-0.07 -0.03,-0.02 -0.01,-0.01 -0.01,-0.01 -0.04,0.03 -0.02,0.02 -0.04,0.03 h -0.01 v 0 l -0.02,0.03 -0.36,-0.34 0.05,-0.24 h -0.01 v -0.01 -0.01 l 0.01,-0.01 v -0.01 h 0.01 l 0.01,-0.01 h 0.01 v -0.02 -0.02 -0.01 l 0.01,-0.02 v -0.02 -0.01 l 0.01,-0.02 v -0.02 -0.01 l 0.01,-0.02 v -0.02 l 0.01,-0.01 0.01,-0.02 v -0.03 l 0.01,-0.02 0.01,-0.02 0.01,-0.02 v -0.02 l 0.01,-0.02 0.01,-0.02 0.01,-0.02 0.01,-0.02 0.01,-0.03 0.01,-0.01 0.02,-0.02 0.01,-0.03 0.01,-0.01 0.01,-0.02 0.02,-0.02 0.01,-0.02 0.01,-0.02 v 0 l 0.02,-0.01 h 0.01 v 0.01 l 0.01,0.01 v 0 0.01 l -0.01,0.01 -0.01,0.01 h -0.01 l -0.06,0.1 -0.01,0.01 v 0.02 l -0.01,0.01 -0.01,0.01 v 0.02 l -0.01,0.01 -0.01,0.01 v 0.02 l -0.01,0.01 v 0.01 l -0.01,0.02 -0.01,0.02 v 0.02 l -0.01,0.02 -0.01,0.01 v 0.02 l -0.01,0.02 -0.01,0.02 v 0.02 l -0.01,0.01 v 0.02 0.02 l -0.01,0.01 v 0.02 0.01 l -0.01,0.02 v 0.01 0.02 0.01 0.01 l 0.01,0.01 h 0.01 v 0.01 l 0.01,0.01 v 0.04 l 0.21,0.22 0.03,-0.03 0.13,-0.14 0.02,0.01 0.07,-0.07 0.04,0.03 0.01,-0.01 -0.03,-0.04 0.06,-0.07 0.26,0.25 0.28,-0.29 -0.07,-0.07 -0.07,-0.07 -0.04,0.04 -0.21,0.22 -0.01,-0.01 0.21,-0.21 0.04,-0.05 -0.08,-0.08 -0.04,0.05 -0.12,0.12 h -0.01 l 0.12,-0.13 0.04,-0.04 -0.22,-0.21 -0.11,-0.11 -0.03,0.04 -0.1,0.1 h -0.01 l 0.11,-0.11 0.03,-0.03 -0.03,-0.03 -0.02,-0.02 -0.01,0.01 h -0.01 l -0.01,-0.01 v -0.01 h -0.01 v -0.01 h -0.01 v -0.01 -0.01 l 0.01,-0.01 h 0.01 v -0.01 l 0.02,0.01 v 0 h 0.01 l 0.01,0.01 v 0.01 l 0.01,0.01 v 0 l -0.01,0.01 0.02,0.02 0.6,0.58 0.01,-0.01 0.04,-0.03 0.19,0.19 -0.01,-0.03 0.03,-0.02 0.04,-0.04 0.04,-0.04 0.04,-0.04 0.04,-0.05 0.04,-0.04 0.01,-0.02 0.02,-0.01 h 0.02 v 0 l 0.01,-0.01 0.01,-0.01 -0.01,-0.02 -0.02,-0.02 -0.02,-0.01 -0.02,-0.03 v -0.03 l -0.02,-0.02 h -0.01 l -0.01,0.01 -0.01,0.01 h -0.01 l -0.01,-0.01 -0.01,-0.01 v 0.01 l -0.01,0.01 -0.01,-0.01 h -0.01 v 0.01 l -0.02,0.02 v 0.02 0.01 h -0.01 -0.01 l -0.02,-0.01 -0.01,-0.01 v -0.01 l 0.01,-0.01 v -0.01 l -0.01,0.01 h -0.01 -0.01 l -0.01,-0.01 0.01,-0.01 -0.01,-0.01 -0.01,0.01 v 0.01 h -0.01 v 0.01 0.01 l -0.01,0.01 h -0.02 l -0.02,-0.01 -0.02,-0.01 v -0.01 -0.01 -0.02 -0.01 -0.01 -0.01 -0.01 l -0.01,-0.01 -0.01,-0.01 -0.01,-0.01 h -0.02 v 0 l -0.01,-0.01 v -0.01 h 0.02 v -0.01 -0.01 0 l 0.01,-0.01 v -0.02 0 l 0.01,-0.01 v -0.01 l -0.01,-0.01 v -0.01 l 0.01,-0.01 v -0.02 -0.01 -0.01 -0.01 0 l -0.01,-0.02 0.01,-0.01 v -0.01 -0.01 -0.01 l 0.01,-0.01 0.01,0.01 0.01,0.01 -0.01,0.01 v 0.01 0.01 0.01 0.01 h 0.02 0.01 0.01 l 0.02,0.01 v 0 h 0.02 0.02 l 0.01,-0.01 0.01,-0.01 0.02,-0.01 0.02,-0.02 v -0.02 l 0.01,-0.01 v -0.02 -0.01 l -0.02,-0.01 v -0.01 l -0.01,-0.01 -0.02,-0.01 -0.02,-0.01 -0.01,-0.01 -0.01,-0.01 -0.02,-0.01 -0.01,-0.01 h -0.01 l -0.01,-0.01 -0.02,-0.01 -0.01,-0.01 -0.02,-0.01 -0.01,-0.01 h -0.01 l -0.02,-0.01 h -0.02 -0.01 l -0.01,-0.01 h -0.02 -0.02 -0.02 -0.01 l -0.02,-0.01 -0.08,-0.04 -0.04,-0.06 -0.01,-0.01 -0.06,-0.1 -0.06,-0.06 -0.03,-0.02 h -0.02 l -0.01,0.01 -0.01,0.01 -0.01,0.01 -0.02,0.01 -0.02,0.01 v 0.02 l -0.01,0.01 -0.01,0.01 -0.01,0.01 -0.02,0.01 -0.02,0.02 -0.01,0.01 -0.01,0.02 -0.02,0.01 -0.02,0.01 -0.02,0.01 -0.01,0.02 -0.01,0.01 -0.01,0.02 -0.02,0.02 -0.04,0.04 -0.03,0.02 h -0.01 -0.01 l -0.02,-0.01 -0.02,-0.02 v -0.01 -0.02 l 0.01,-0.02 0.04,-0.03 0.05,-0.04 0.1,-0.09 0.12,-0.11 0.12,-0.11 0.13,-0.11 0.08,-0.07 0.14,-0.12 0.08,-0.08 0.09,-0.09 0.08,-0.09 0.16,-0.19 0.13,-0.15 0.03,-0.04 0.01,-0.01 v -0.01 l 0.01,-0.01 0.01,-0.02 0.01,-0.01 v -0.01 l 0.01,-0.02 0.01,-0.01 v -0.01 l 0.01,-0.02 0.01,-0.01 v -0.02 l 0.01,-0.01 v -0.02 l 0.01,-0.02 0.01,-0.03 v -0.02 l 0.01,-0.02 0.01,-0.02 v -0.03 l 0.01,-0.02 v -0.02 l 0.01,-0.02 v -0.01 -0.02 l 0.01,-0.02 v -0.01 l 0.01,-0.02 0.01,-0.02 v -0.01 l 0.01,-0.02 v -0.01 l 0.01,-0.02 0.01,-0.01 v -0.01 l 0.01,-0.02 0.01,-0.01 0.01,-0.02 0.01,-0.01 v -0.02 l 0.01,-0.01 0.01,-0.02 0.01,-0.01 0.01,-0.02 0.01,-0.01 h 0.01 l 0.01,-0.01 h 0.01 l 0.01,0.01 v 0 l 0.01,0.01 v 0.01 0.01 0 L 343.8,100 v 0.01 l -0.01,0.01 v 0 l -0.02,0.02 -0.01,0.02 -0.01,0.02 -0.01,0.02 -0.01,0.02 -0.01,0.01 v 0.01 l -0.01,0.01 v 0.02 l -0.01,0.01 -0.01,0.02 v 0.01 l -0.01,0.01 v 0.02 0.01 l -0.02,0.06 -0.01,0.05 -0.01,0.05 -0.01,0.01 v 0.02 l -0.01,0.01 v 0.02 0.01 l -0.01,0.02 v 0.01 l -0.01,0.02 v 0.01 l -0.01,0.02 -0.01,0.01 v 0.02 l -0.01,0.01 -0.01,0.02 v 0.01 l -0.01,0.01 -0.01,0.02 -0.01,0.01 v 0.02 l -0.01,0.01 -0.01,0.02 -0.01,0.01 -0.01,0.01 -0.05,0.06 0.01,0.02 0.01,0.01 0.01,0.02 0.01,0.01 0.01,0.01 0.01,0.02 0.01,0.01 0.01,0.01 0.01,0.02 0.01,0.01 0.01,0.01 0.02,0.02 0.01,0.01 0.01,0.01 0.01,0.01 0.02,0.01 0.01,0.02 0.01,0.01 0.02,0.01 0.01,0.01 0.01,0.01 0.02,0.01 h 0.01 l 0.01,0.01 0.01,0.01 h 0.01 l 0.01,0.01 h 0.01 l 0.01,0.01 0.02,0.01 h 0.01 0.01 l 0.01,0.01 h 0.01 l 0.01,0.01 h 0.02 0.01 l 0.01,0.01 h 0.01 0.01 0.02 0.01 l 0.01,0.01 h 0.01 0.01 z"
       id="path65" />
  </g>
</svg>
