<?xml version="1.0" encoding="UTF-8" standalone="no"?>
<svg
   version="1.2"
   width="800"
   height="642"
   viewBox="0 0 800 642"
   stroke-linecap="round"
   stroke-linejoin="round"
   id="svg86"
   sodipodi:docname="Zuraide.svg"
   inkscape:version="1.1.2 (b8e25be833, 2022-02-05)"
   xmlns:inkscape="http://www.inkscape.org/namespaces/inkscape"
   xmlns:sodipodi="http://sodipodi.sourceforge.net/DTD/sodipodi-0.dtd"
   xmlns="http://www.w3.org/2000/svg"
   xmlns:svg="http://www.w3.org/2000/svg">
  <defs
     id="defs90" />
  <sodipodi:namedview
     id="namedview88"
     pagecolor="#ffffff"
     bordercolor="#666666"
     borderopacity="1.0"
     inkscape:pageshadow="2"
     inkscape:pageopacity="0.0"
     inkscape:pagecheckerboard="0"
     showgrid="false"
     inkscape:zoom="1.3146417"
     inkscape:cx="399.72867"
     inkscape:cy="321"
     inkscape:window-width="1848"
     inkscape:window-height="1043"
     inkscape:window-x="72"
     inkscape:window-y="0"
     inkscape:window-maximized="1"
     inkscape:current-layer="svg86" />
  <g
     id="Zuraide"
     transform="matrix(21.611068,0,0,21.611068,-11691.628,-1440.5075)">
    <path
       d="m 562.2,70.18 -0.01,0.01 v 0 l -0.02,0.02 -0.01,0.01 -0.01,0.02 -0.02,0.02 0.02,0.03 0.02,0.01 0.03,0.03 0.01,0.03 0.01,0.04 -0.02,0.02 h -0.02 l -0.02,-0.01 -0.07,-0.01 -0.04,-0.02 -0.02,0.01 -0.01,0.03 0.02,0.02 0.01,0.03 h 0.03 0.02 l 0.01,0.02 -0.03,0.02 -0.04,0.02 -0.04,0.02 -0.06,0.01 -0.07,0.01 -0.04,0.01 -0.02,0.02 0.02,0.05 0.01,0.03 v 0.04 l -0.03,0.01 -0.02,0.01 -0.01,0.03 -0.01,0.03 v 0.04 l -0.02,0.03 -0.03,0.04 -0.02,0.02 -0.02,0.03 v 0.05 l 0.01,0.02 0.01,0.03 0.02,0.05 v 0.04 l -0.01,0.02 -0.02,0.03 0.01,0.02 0.02,0.02 0.02,0.02 0.02,0.02 0.01,0.02 -0.01,0.03 -0.03,0.01 -0.01,0.03 0.01,0.03 0.01,0.04 0.01,0.03 0.04,0.05 0.03,0.03 0.03,0.03 0.03,0.02 0.08,0.01 0.04,0.01 -0.02,0.02 -0.02,0.04 -0.02,0.02 -0.02,0.04 -0.03,0.1 -0.01,0.02 -0.05,0.09 -0.01,0.05 -0.01,0.03 0.07,0.09 0.08,0.12 0.09,0.13 0.06,0.11 0.06,0.11 0.02,0.02 0.12,0.22 0.21,0.33 0.01,0.01 0.07,0.08 0.04,0.06 0.14,0.22 0.12,0.18 0.13,0.19 0.12,0.16 0.13,0.16 0.1,0.11 0.2,0.24 0.07,0.08 0.08,0.09 0.29,0.43 0.04,0.09 0.01,0.01 0.02,0.04 h 0.01 l 0.05,0.01 0.03,0.03 0.04,0.02 0.03,0.03 0.04,0.02 0.04,0.23 0.04,0.12 0.02,0.06 0.02,0.05 v 0.02 l -0.02,0.03 v 0.04 l 0.01,0.04 0.01,0.06 0.01,0.02 0.03,0.11 0.04,0.17 0.01,0.08 v 0.02 0.02 l -0.01,0.03 -0.02,0.03 -0.03,0.02 -0.05,0.06 -0.01,0.03 -0.01,0.02 v 0.03 0.04 0.04 0.02 0.08 l 0.03,0.22 0.03,0.14 0.02,0.07 0.02,0.04 v 0.07 l 0.01,0.06 0.01,0.05 0.03,0.05 0.03,0.05 0.02,0.02 0.07,0.06 0.05,0.06 0.04,0.06 0.01,0.01 0.05,0.06 0.05,0.07 0.05,0.07 0.02,0.04 0.02,0.03 0.04,0.08 0.04,0.09 0.03,0.09 0.02,0.03 0.01,0.02 0.02,0.03 0.01,0.02 0.03,0.05 0.07,0.07 0.03,0.04 0.04,0.07 0.02,0.07 v 0.09 l 0.02,0.14 0.01,0.09 -0.01,0.09 -0.03,0.06 -0.04,0.07 -0.06,0.08 -0.05,0.1 -0.1,0.2 -0.02,0.04 -0.03,0.07 -0.01,0.08 -0.01,0.08 v 0.08 l -0.02,0.11 v 0.06 l 0.04,0.05 v 0 l 0.06,0.05 0.04,0.04 0.02,0.06 0.07,0.21 0.04,0.08 0.05,0.07 0.04,0.03 0.06,0.01 0.04,0.03 0.05,0.03 0.09,0.05 0.06,0.05 0.01,0.05 -0.01,0.03 0.02,0.04 0.03,0.05 0.02,0.02 0.02,0.02 0.02,0.05 0.01,0.08 -0.02,0.05 -0.05,0.07 -0.05,0.03 -0.02,0.02 v 0.01 l -0.01,0.05 -0.01,0.07 -0.01,0.03 -0.05,0.04 -0.08,0.04 h -0.06 l -0.09,-0.01 -0.04,-0.02 -0.05,-0.01 -0.04,-0.01 -0.04,-0.01 -0.05,-0.01 -0.05,0.02 -0.04,0.03 -0.02,0.02 -0.03,0.02 -0.04,0.04 -0.02,0.03 -0.03,0.08 -0.01,0.05 v 0.06 l -0.03,0.03 -0.02,0.04 -0.02,0.06 -0.03,0.05 -0.01,0.03 -0.01,0.02 h -0.01 l -0.03,0.01 v 0.02 0.03 0.01 l -0.03,0.03 -0.01,0.02 -0.01,0.04 -0.01,0.04 v 0.03 0.02 0.05 l 0.01,0.03 0.03,0.04 0.04,0.06 0.02,0.02 0.02,0.01 0.03,0.01 0.01,0.02 0.01,0.03 0.01,0.03 0.03,0.03 0.03,0.02 0.04,0.02 0.01,0.01 0.02,0.02 0.03,0.06 0.01,0.05 0.01,0.04 0.01,0.05 0.03,0.08 0.02,0.03 0.02,0.01 0.01,0.02 v 0.02 l 0.01,0.03 0.02,0.05 0.04,0.05 0.03,0.05 0.01,0.01 0.02,0.02 0.01,0.01 0.02,0.02 h 0.01 l 0.05,-0.01 0.12,-0.03 0.05,-0.02 h 0.02 l 0.01,0.01 h 0.01 l 0.01,0.02 0.02,0.02 0.03,0.02 0.02,0.01 0.05,0.02 0.01,0.01 0.05,0.03 h 0.01 l 0.01,0.01 0.01,0.03 0.02,0.03 0.01,0.03 v 0 0.01 0.03 l 0.01,0.02 v 0.01 l 0.01,0.02 v 0.02 l 0.01,0.01 v 0.01 0.02 l 0.01,0.01 v 0.02 l 0.01,0.01 v 0.01 l 0.01,0.02 v 0 l 0.01,0.01 v 0.02 l 0.01,0.01 v 0.01 l 0.01,0.01 0.01,0.01 0.01,0.01 0.01,0.01 v 0.01 l 0.01,0.01 0.01,0.01 0.01,0.01 0.01,0.01 v 0.01 l 0.01,0.02 0.01,0.01 0.01,0.01 0.01,0.01 0.01,0.01 0.01,0.01 v 0.01 l 0.02,0.02 0.04,0.05 0.04,0.02 0.05,0.03 h 0.01 l 0.05,0.03 0.03,0.02 0.01,0.01 0.01,0.01 h 0.02 0.02 l 0.02,0.01 0.01,0.03 0.02,0.04 0.04,0.03 0.04,0.04 0.03,0.01 v 0.02 l 0.02,0.02 0.02,0.01 0.03,0.02 0.01,0.03 0.02,0.02 0.04,0.02 0.04,0.01 0.04,0.02 0.01,0.02 h 0.02 0.03 l 0.03,0.01 0.04,0.02 0.05,0.02 0.03,0.02 0.06,0.02 0.06,0.01 0.02,0.01 h 0.02 0.03 0.03 l 0.02,-0.01 h 0.03 0.03 l 0.02,0.02 0.02,0.04 0.03,0.04 0.02,0.05 0.03,0.03 -0.01,0.06 -0.02,0.03 -0.01,0.01 -0.03,0.01 h -0.02 l -0.05,0.01 -0.12,0.03 -0.04,0.01 -0.02,0.01 -0.03,0.02 -0.03,0.01 h -0.01 l -0.05,-0.02 -0.05,-0.03 -0.03,-0.01 h -0.03 -0.02 l -0.04,0.04 -0.08,0.08 -0.05,0.03 -0.01,0.01 -0.01,0.01 -0.03,0.02 -0.06,0.04 -0.14,0.1 -0.04,0.04 -0.05,0.02 -0.05,0.01 -0.07,0.02 -0.05,0.01 h -0.04 -0.03 l -0.01,0.01 -0.06,0.03 -0.07,0.02 -0.03,0.01 -0.04,0.02 -0.06,0.01 h -0.05 -0.04 l 0.01,0.02 -0.01,0.02 -0.03,0.06 -0.07,0.12 -0.03,0.04 -0.12,0.14 -0.14,0.33 0.01,0.08 0.01,0.05 -0.03,0.1 -0.04,0.08 -0.03,0.08 -0.01,0.02 -0.01,0.3 v 0.31 l -0.01,0.02 -0.06,0.22 -0.04,0.13 -0.03,0.13 -0.01,0.02 -0.03,0.17 -0.05,0.23 -0.14,0.31 -0.02,0.07 -0.03,0.08 v 0.14 0.03 0.05 l 0.02,0.09 0.01,0.1 v 0.02 0.04 l 0.06,0.14 0.14,0.14 v 0.04 0.02 0.03 l -0.01,0.04 -0.03,0.04 -0.04,0.05 -0.02,0.03 -0.03,0.04 -0.03,0.02 -0.04,0.02 -0.02,0.01 -0.02,0.02 -0.01,0.04 -0.01,0.03 -0.03,0.03 -0.04,0.04 -0.03,0.02 -0.04,0.03 -0.03,0.03 -0.03,0.03 -0.02,0.03 -0.03,0.05 -0.03,0.05 -0.02,0.05 h -0.02 l -0.54,0.65 -0.1,0.2 -0.13,0.26 v 0 l -0.09,0.22 -0.03,0.07 -0.07,0.39 -0.08,0.16 -0.14,0.31 -0.15,0.3 -0.01,0.02 h 0.02 L 563,92.87 562.96,93 v 0.01 l -0.01,0.02 -0.01,0.04 -0.09,0.24 -0.03,0.08 -0.04,0.09 -0.04,0.11 -0.07,0.28 -0.02,0.06 -0.08,0.16 -0.14,0.29 -0.11,0.21 -0.02,0.04 -0.03,-0.07 -0.09,-0.27 -0.1,-0.3 -0.09,-0.25 -0.09,-0.26 -0.02,-0.05 -0.13,-0.52 -0.03,-0.11 -0.02,-0.11 -0.12,-0.43 -0.13,-0.5 -0.06,-0.23 -0.17,-0.44 -0.07,-0.18 -0.07,-0.2 -0.02,-0.06 -0.02,-0.04 -0.04,-0.04 -0.26,-0.3 -0.38,-0.42 -0.1,-0.1 -0.13,-0.14 -0.06,-0.06 -0.24,0.04 -0.1,0.01 -0.09,0.01 -0.19,0.03 -0.3,0.02 -0.13,0.03 -0.15,0.01 -0.22,0.03 -0.16,0.02 -0.48,0.13 -0.12,0.01 -0.36,0.03 -0.24,0.02 -0.07,0.01 h -0.03 -0.06 l -0.38,0.04 h -0.01 l -0.22,-0.02 -0.28,-0.02 -0.25,-0.02 -0.09,-0.01 h -0.05 l -0.07,-0.04 -0.14,-0.07 -0.12,-0.08 -0.06,-0.03 -0.05,-0.01 -0.02,-0.01 -0.28,0.05 -0.38,0.07 -0.12,0.02 -0.13,-0.07 -0.15,-0.07 -0.2,-0.42 -0.05,-0.11 -0.01,-0.04 -0.02,-0.04 -0.04,-0.1 -0.03,-0.1 -0.01,-0.04 -0.03,-0.14 -0.04,-0.18 -0.02,-0.08 v -0.01 l -0.01,-0.07 v -0.03 l 0.01,-0.04 0.01,-0.05 v -0.04 -0.05 -0.02 l 0.01,-0.02 v -0.02 l 0.01,-0.03 0.03,-0.05 0.03,-0.08 0.02,-0.02 0.01,-0.04 0.04,-0.1 0.05,-0.11 0.03,-0.09 0.02,-0.08 0.01,-0.04 0.08,-0.3 -0.03,-0.03 -0.03,-0.03 -0.03,-0.02 -0.03,-0.01 -0.04,-0.02 v -0.01 -0.04 l 0.01,-0.04 V 86.9 l 0.01,-0.06 0.02,-0.05 v -0.02 l 0.01,-0.05 v -0.05 -0.06 l -0.02,-0.08 v 0 -0.05 -0.05 l 0.02,-0.05 v -0.02 l 0.03,-0.04 0.03,-0.04 0.04,-0.05 0.03,-0.03 0.02,-0.02 0.02,-0.02 v -0.04 l -0.01,-0.02 -0.01,-0.01 v -0.02 l -0.01,-0.02 V 86.03 L 554.25,86.01 554.24,86 h -0.01 -0.03 l -0.01,-0.01 h -0.01 l -0.01,-0.01 h -0.02 l -0.02,-0.02 -0.01,-0.02 -0.01,-0.02 -0.02,-0.01 -0.02,-0.01 -0.03,-0.01 -0.01,-0.01 -0.01,-0.02 h -0.04 l -0.03,0.01 -0.01,0.01 h -0.02 -0.03 -0.02 -0.03 l -0.02,0.01 -0.03,0.01 h -0.02 l -0.04,-0.01 h -0.06 l -0.03,-0.01 h -0.04 -0.02 l -0.04,-0.01 -0.01,-0.02 h -0.02 -0.04 l -0.02,-0.01 -0.03,-0.01 -0.03,-0.02 -0.03,-0.01 -0.04,-0.03 -0.04,-0.03 -0.06,-0.05 -0.05,-0.04 -0.02,-0.03 -0.03,-0.02 -0.05,-0.02 -0.03,-0.01 -0.03,-0.01 -0.02,-0.01 -0.01,-0.04 0.01,-0.04 v -0.03 l -0.05,-0.02 h -0.03 l -0.05,-0.01 -0.04,0.01 h -0.06 -0.03 l -0.02,-0.02 -0.03,-0.01 h -0.03 l -0.05,0.01 -0.03,0.02 -0.03,0.01 -0.01,0.02 -0.05,0.02 -0.04,0.02 -0.03,0.01 -0.01,-0.02 -0.02,-0.05 -0.02,-0.03 -0.02,-0.01 h -0.03 l -0.02,0.01 -0.03,0.02 -0.03,-0.01 -0.01,-0.02 -0.02,-0.04 -0.01,-0.03 -0.02,-0.02 -0.04,-0.05 -0.06,-0.04 -0.03,-0.04 -0.02,-0.04 -0.03,-0.04 -0.01,-0.03 -0.02,-0.02 -0.03,-0.04 -0.03,-0.04 -0.02,-0.04 -0.01,-0.03 0.01,-0.01 0.02,-0.03 0.01,-0.02 0.01,-0.02 v -0.02 -0.03 h -0.04 l -0.04,-0.01 h -0.05 -0.03 l -0.02,-0.01 -0.02,-0.02 -0.04,-0.01 -0.05,-0.05 -0.13,-0.11 -0.2,-0.17 -0.03,-0.03 -0.02,-0.01 0.05,-0.02 0.04,-0.07 0.04,-0.07 0.06,-0.07 0.03,-0.05 0.03,-0.06 0.01,-0.05 0.02,-0.06 0.02,-0.03 0.01,-0.02 v -0.02 -0.03 -0.01 l 0.02,-0.03 0.01,-0.02 0.03,-0.04 0.02,-0.04 0.02,-0.04 0.02,-0.07 0.01,-0.04 0.01,-0.03 0.02,-0.04 0.03,-0.03 v -0.01 l 0.03,-0.04 0.03,-0.04 0.05,-0.05 0.03,-0.04 0.01,-0.02 0.04,-0.1 0.02,-0.04 0.03,-0.1 0.04,-0.11 v -0.01 l 0.01,-0.03 0.02,-0.05 0.03,-0.11 0.05,-0.18 0.09,-0.31 0.06,-0.17 v -0.04 l 0.08,-0.27 0.01,-0.05 0.01,-0.01 0.01,-0.04 0.01,-0.04 0.01,-0.05 0.04,-0.07 0.03,-0.06 0.02,-0.07 0.01,-0.08 0.02,-0.07 0.04,-0.1 0.01,-0.09 0.09,-0.35 0.05,-0.06 0.01,-0.02 0.02,-0.02 0.02,-0.02 0.01,-0.02 0.01,-0.04 0.01,-0.02 0.01,-0.03 0.02,-0.02 v -0.02 l 0.02,-0.02 0.01,-0.02 v -0.02 l 0.01,-0.03 v -0.03 l 0.01,-0.03 V 80.14 80.1 l -0.01,-0.03 V 80.04 80 79.96 79.94 l -0.01,-0.04 v -0.04 l -0.01,-0.01 v -0.02 -0.04 l -0.01,-0.03 v -0.03 l 0.01,-0.04 v -0.03 -0.03 l -0.01,-0.02 -0.01,-0.03 -0.02,-0.03 v -0.03 l 0.03,-0.03 0.01,-0.03 0.06,-0.15 0.02,-0.04 0.02,-0.05 0.07,-0.18 0.06,-0.17 0.06,-0.13 0.06,-0.16 0.03,-0.06 0.02,-0.05 0.04,-0.09 0.03,-0.07 0.03,-0.08 0.04,-0.11 0.05,-0.1 0.01,-0.04 0.05,-0.12 0.01,-0.03 0.02,-0.03 0.02,-0.03 0.05,-0.13 0.03,-0.1 0.05,-0.12 0.06,-0.18 0.04,-0.11 0.03,-0.08 0.01,-0.03 0.04,-0.11 0.03,-0.07 0.01,-0.05 0.03,-0.08 0.01,-0.04 0.01,-0.01 0.02,-0.04 0.03,-0.07 0.02,-0.06 0.02,-0.06 0.02,-0.05 0.01,-0.03 0.01,-0.01 v -0.01 l 0.01,-0.02 0.02,-0.06 0.02,-0.07 0.01,-0.05 0.02,-0.03 0.01,-0.02 v -0.02 -0.01 -0.01 l 0.01,-0.02 V 76 l 0.01,-0.01 0.01,-0.01 0.02,-0.06 0.01,-0.01 v -0.03 l 0.01,-0.01 0.01,-0.02 0.01,-0.01 0.01,-0.01 0.02,-0.02 0.01,-0.01 0.01,-0.01 0.01,-0.01 0.01,-0.01 h 0.06 0.02 l 0.01,-0.01 0.01,-0.02 0.01,-0.01 h 0.02 l 0.01,-0.02 h 0.02 l 0.02,-0.02 0.01,-0.01 0.01,-0.02 0.01,-0.01 v -0.02 -0.01 l 0.01,-0.02 0.02,-0.01 0.01,-0.01 0.01,-0.01 0.01,-0.01 0.02,-0.01 0.01,-0.01 0.02,-0.01 0.01,-0.02 V 75.5 l -0.01,-0.02 V 75.47 75.45 75.44 75.42 L 554.65,75.4 V 75.39 75.37 75.35 75.32 75.3 75.29 l -0.01,-0.02 -0.01,-0.02 -0.01,-0.02 -0.01,-0.03 -0.01,-0.01 -0.01,-0.01 -0.01,-0.03 -0.03,-0.07 v -0.02 l -0.02,-0.03 -0.01,-0.03 -0.01,-0.04 -0.01,-0.03 -0.01,-0.03 -0.01,-0.02 -0.01,-0.02 -0.01,-0.02 -0.01,-0.03 -0.01,-0.03 v -0.02 -0.02 l 0.01,-0.02 V 74.7 l 0.01,-0.02 0.01,-0.01 0.01,-0.01 0.02,-0.01 0.01,-0.01 0.01,-0.01 0.01,-0.02 0.01,-0.02 v -0.02 l 0.01,-0.02 0.01,-0.02 0.01,-0.01 0.02,-0.01 0.01,-0.02 0.02,-0.01 0.01,-0.02 0.02,-0.01 0.01,-0.02 0.01,-0.01 0.01,-0.01 0.02,-0.01 0.02,-0.02 0.01,-0.01 0.02,-0.01 0.02,-0.01 0.01,-0.01 0.01,-0.02 V 74.3 l 0.02,-0.01 0.01,-0.01 0.01,-0.01 0.02,-0.01 v -0.02 l 0.02,-0.04 0.01,-0.03 0.01,-0.02 0.01,-0.02 0.01,-0.01 0.02,-0.01 0.02,-0.01 0.01,-0.02 0.01,-0.01 0.01,-0.02 v -0.01 l 0.01,-0.01 0.01,-0.01 0.01,-0.02 0.01,-0.01 0.01,-0.02 0.01,-0.02 0.01,-0.01 0.01,-0.01 h 0.02 0.02 0.02 0.01 0.02 0.02 l 0.03,0.01 0.02,0.01 0.01,0.01 0.02,0.01 0.02,0.02 h 0.01 0.01 0.01 v -0.01 l 0.03,-0.01 0.02,-0.01 0.03,-0.02 0.02,-0.01 h 0.02 l 0.02,-0.01 0.02,-0.01 h 0.03 0.02 l 0.04,-0.01 h 0.03 l 0.02,0.01 0.01,0.01 0.02,0.01 v 0.01 l 0.01,0.01 0.01,0.01 0.01,0.01 h 0.02 0.02 0.01 0.01 l 0.02,-0.01 h 0.03 l 0.01,0.01 h 0.05 0.03 l 0.02,0.02 h 0.01 0.02 l 0.02,0.01 0.02,0.01 h 0.02 0.02 0.02 0.01 0.02 0.03 0.04 l 0.02,0.01 0.04,-0.01 h 0.01 0.02 l 0.01,-0.01 0.01,-0.01 v -0.01 -0.01 -0.01 l -0.01,-0.01 -0.01,-0.01 h -0.01 -0.01 v -0.01 l -0.01,-0.01 v -0.01 l 0.01,-0.01 0.01,-0.01 0.01,-0.01 h 0.01 l 0.02,-0.02 0.01,-0.01 0.02,-0.03 0.01,-0.02 v -0.02 l 0.01,-0.02 v 0 l 0.01,-0.01 0.02,-0.02 0.01,-0.02 0.01,-0.01 0.02,-0.01 0.01,-0.02 v -0.01 -0.03 -0.04 l -0.01,-0.02 v -0.01 l -0.02,-0.02 -0.01,-0.01 V 73.52 73.5 73.49 l 0.01,-0.02 0.01,-0.01 0.02,-0.01 0.01,-0.01 0.01,-0.01 0.01,-0.01 0.01,-0.01 0.01,-0.02 0.02,-0.01 v -0.01 l 0.01,-0.01 v -0.02 l -0.01,-0.01 v -0.02 l -0.01,-0.02 v -0.01 l 0.01,-0.01 h 0.01 0.02 l 0.01,-0.01 v -0.01 -0.01 l -0.01,-0.01 h -0.04 l 0.01,-0.01 h 0.01 l 0.01,-0.01 0.01,-0.01 0.01,-0.02 0.01,-0.01 V 73.15 73.13 73.1 73.07 73.05 l 0.01,-0.04 v -0.04 -0.01 l -0.01,-0.01 -0.01,-0.02 -0.01,-0.01 h -0.01 l -0.01,-0.01 -0.01,-0.01 v -0.03 l -0.01,-0.03 v -0.02 -0.01 l -0.01,-0.01 -0.01,-0.01 h -0.01 l -0.01,0.01 -0.01,-0.01 -0.01,-0.01 v -0.01 l 0.01,-0.02 v -0.01 l 0.02,-0.03 h 0.01 l 0.01,-0.02 v -0.02 -0.02 -0.02 l -0.01,-0.01 0.01,-0.02 0.01,-0.01 0.01,-0.01 0.02,-0.03 0.01,-0.02 0.01,-0.02 0.01,-0.01 0.01,-0.02 v -0.01 l 0.01,-0.03 0.01,-0.01 0.01,-0.02 0.01,-0.02 V 72.37 72.35 72.33 72.3 72.29 l 0.01,-0.02 0.01,-0.01 0.01,-0.01 v -0.01 l 0.01,-0.01 V 72.21 72.2 l 0.01,-0.02 0.02,-0.01 0.01,-0.01 0.03,-0.03 v -0.01 l 0.01,-0.01 h 0.02 l 0.02,-0.01 h 0.03 0.01 0.03 0.02 l 0.04,-0.01 h 0.01 l 0.03,-0.01 h 0.01 l 0.02,-0.03 0.02,-0.02 0.02,-0.02 0.01,-0.01 0.02,0.01 h 0.03 l 0.02,0.01 0.04,0.01 0.02,0.01 0.02,0.03 0.02,0.01 v 0.03 0.03 l -0.02,0.01 v 0.03 l 0.02,0.02 0.02,0.02 0.02,0.01 0.02,0.02 v 0.02 l -0.01,0.02 v 0.03 l 0.01,0.02 0.02,0.02 0.02,0.01 0.02,0.05 0.02,0.01 0.02,0.01 0.01,0.02 0.01,0.02 v 0.03 l 0.02,0.02 0.02,0.01 0.06,-0.01 h 0.02 0.02 l 0.02,0.01 0.02,-0.01 v -0.02 l 0.01,-0.02 0.02,-0.02 0.01,-0.02 0.01,-0.01 0.01,-0.02 0.01,-0.02 0.02,-0.02 0.01,-0.01 0.03,-0.02 0.01,-0.02 0.02,-0.01 0.02,-0.02 0.01,-0.02 v -0.02 l 0.01,-0.03 v -0.02 l 0.01,-0.02 0.01,-0.03 0.02,-0.02 0.02,-0.02 0.02,-0.02 0.04,-0.02 0.01,-0.01 0.02,-0.02 0.01,-0.02 0.02,-0.02 0.01,-0.02 v -0.02 l 0.01,-0.02 h 0.02 l 0.03,-0.01 0.01,-0.01 v -0.01 -0.03 l 0.01,-0.02 h 0.02 l 0.01,-0.01 0.02,-0.01 0.02,0.01 h 0.02 l 0.01,-0.03 0.01,-0.01 h 0.01 l 0.01,-0.02 0.01,-0.02 0.01,-0.02 0.02,-0.03 0.01,-0.02 v -0.03 l -0.01,-0.02 -0.01,-0.02 -0.01,-0.02 v -0.03 l 0.01,-0.02 -0.01,-0.02 v -0.02 -0.02 l -0.01,-0.02 0.01,-0.02 0.01,-0.02 0.02,-0.02 0.01,-0.01 0.01,-0.03 v -0.02 l 0.02,-0.01 h 0.01 0.04 l 0.02,0.01 0.01,0.02 -0.01,0.02 v 0.02 l 0.01,0.01 0.03,0.02 h 0.03 l 0.03,0.01 0.02,0.01 0.02,0.01 h 0.03 l 0.03,0.01 0.02,0.01 h 0.02 l 0.03,0.02 0.01,0.01 0.02,0.01 0.02,-0.01 0.03,0.01 0.01,0.02 0.03,0.02 0.02,0.01 0.02,0.01 0.02,0.01 0.02,-0.01 0.02,-0.02 0.01,-0.02 0.03,-0.01 0.01,-0.01 0.01,-0.03 v -0.03 l 0.01,-0.02 0.02,-0.01 0.02,-0.01 0.02,0.01 0.01,0.01 0.02,0.02 0.01,0.02 -0.01,0.02 -0.02,0.01 -0.01,0.01 v 0.02 0.01 h 0.02 l 0.04,0.01 h 0.03 l 0.03,0.01 0.02,0.02 h 0.02 l 0.02,-0.01 h 0.01 l 0.01,-0.01 -0.01,-0.02 -0.01,-0.04 0.01,-0.02 V 71.5 l 0.01,-0.01 -0.01,-0.02 v -0.01 l 0.02,-0.01 0.02,0.02 0.05,0.07 0.01,0.01 v 0.01 l 0.01,0.01 0.01,0.03 v 0.01 h -0.01 l -0.01,-0.01 v 0 l -0.01,0.01 h -0.01 l -0.02,-0.01 -0.01,0.01 v 0.01 l -0.02,0.07 v 0.01 l 0.01,0.01 0.02,-0.02 0.04,-0.03 0.02,-0.03 0.06,-0.01 0.02,-0.01 h 0.02 l 0.02,-0.01 0.02,-0.03 h 0.01 l 0.02,0.01 0.02,0.01 0.03,0.02 0.01,0.01 -0.01,0.03 -0.02,0.05 -0.01,0.04 -0.01,0.02 -0.02,0.02 v 0.02 l -0.01,0.02 0.01,0.02 0.02,-0.01 0.05,-0.01 0.04,-0.01 h 0.05 l 0.03,-0.01 h 0.02 l 0.02,-0.01 0.02,-0.03 0.01,-0.02 0.02,-0.02 0.01,-0.01 0.02,-0.01 h 0.01 l 0.01,0.01 0.01,0.01 0.01,0.02 0.01,0.03 0.02,0.03 0.03,0.02 0.04,0.04 h 0.01 0.03 0.03 l 0.04,-0.01 0.04,-0.01 0.05,-0.01 0.03,-0.01 h 0.02 0.04 l 0.05,0.01 0.04,0.01 h 0.03 l 0.02,-0.01 0.02,-0.01 0.02,-0.03 0.02,-0.03 v -0.01 -0.02 -0.01 -0.03 l 0.01,-0.02 0.01,-0.02 0.01,-0.03 v -0.04 -0.01 l 0.01,-0.03 0.01,-0.02 0.01,-0.02 v -0.01 -0.03 -0.03 l -0.02,-0.03 -0.02,-0.03 -0.01,-0.04 -0.02,-0.02 -0.03,-0.03 -0.02,-0.01 h -0.02 -0.01 l -0.01,-0.01 v -0.02 -0.02 l 0.01,-0.03 0.02,-0.03 0.01,-0.02 0.01,-0.01 0.01,0.01 h 0.01 v 0.01 l 0.02,0.03 0.02,0.03 0.02,0.01 0.03,0.01 0.02,-0.01 0.01,-0.02 0.01,-0.01 v -0.02 -0.02 l -0.01,-0.01 -0.01,-0.03 -0.02,-0.03 -0.01,-0.02 -0.02,-0.02 V 71.02 71 70.99 h 0.02 l 0.03,0.01 h 0.02 0.02 l 0.01,0.02 0.01,0.02 v 0.02 l 0.01,0.01 v 0.02 l 0.01,0.01 0.01,0.02 0.01,0.01 0.01,0.02 h 0.02 0.02 l 0.02,-0.02 V 71.1 l 0.02,-0.03 0.02,-0.04 0.01,-0.03 v -0.02 -0.02 l 0.02,-0.03 0.01,-0.03 0.01,-0.03 0.01,-0.03 0.02,-0.02 0.02,-0.04 0.01,-0.01 0.04,-0.03 0.01,-0.01 0.01,-0.02 v -0.02 l -0.01,-0.02 -0.01,-0.03 0.01,-0.02 v -0.01 l 0.03,-0.02 0.03,-0.01 0.04,-0.01 h 0.02 l 0.02,-0.01 0.02,-0.02 0.01,-0.04 v -0.03 l 0.01,-0.05 v -0.05 l -0.01,-0.03 v -0.02 l 0.01,-0.02 0.01,-0.02 v -0.01 l 0.03,-0.03 0.01,-0.02 0.01,-0.02 0.02,-0.01 0.03,-0.01 h 0.03 0.03 l 0.02,0.01 0.01,0.02 0.02,0.02 0.02,0.01 h 0.03 0.03 l 0.02,-0.02 0.04,-0.03 0.03,-0.03 v -0.02 -0.02 l 0.01,-0.02 0.01,-0.02 h 0.02 l 0.02,0.01 0.01,0.02 v 0.02 l -0.01,0.02 v 0.02 l 0.02,0.02 0.05,0.03 0.03,0.01 0.05,0.01 0.07,0.01 0.06,0.01 0.07,0.03 0.05,0.01 0.04,0.01 0.01,-0.01 v -0.01 l 0.01,-0.02 v -0.03 l -0.01,-0.03 -0.02,-0.03 -0.02,-0.04 -0.01,-0.02 -0.01,-0.01 -0.03,-0.02 -0.04,-0.01 -0.04,-0.01 -0.03,-0.01 -0.02,-0.01 -0.02,-0.01 -0.04,-0.01 -0.01,-0.01 V 70 69.99 l 0.01,-0.02 0.02,-0.02 0.03,-0.01 0.03,-0.02 h 0.03 l 0.03,-0.01 h 0.02 l 0.03,-0.01 0.02,-0.01 h 0.02 0.07 0.02 l 0.03,0.01 0.02,0.01 0.01,0.01 0.02,0.01 0.03,0.01 0.01,0.01 h 0.01 0.01 0.03 l 0.04,0.02 0.05,0.06 0.02,0.02 0.01,0.04 0.03,0.04 0.03,0.04 z"
       id="path83" />
  </g>
</svg>
